0, 0, Header, 0, 1, 384
1, 0, Start_track
1, 0, Title_t, "Etude Op. 25/12--Eduard Kunz    "
1, 0, Text_t, "2009 Piano-e-Competition audition round"
1, 0, Text_t, "captured January 2009"
1, 0, Text_t, "http://www.piano-e-competition.com/"
1, 0, Text_t, "File processed for distribution by software from Zenph Studios, Inc., http://www.zenph.com"
1, 0, Instrument_name_t, "Yamaha Disklavier Pro Mark IV concert grand piano, model DCFIIISM4PRO"
1, 0, Sequencer_specific, 39, 67, 113, 0, 1, 0, 1, 0, 69, 116, 117, 100, 101, 32, 79, 112, 46, 32, 50, 53, 47, 49, 50, 32, 69, 100, 117, 97, 114, 100, 32, 75, 117, 110, 122, 32, 32, 32, 32, 32
1, 0, Sequencer_specific, 6, 67, 113, 0, 0, 0, 69
1, 0, System_exclusive, 21, 67, 113, 126, 21, 0, 2, 2, 0, 3, 14, 1, 4, 1, 13, 13, 10, 11, 9, 2, 7, 247
1, 0, Sequencer_specific, 5, 67, 123, 12, 2, 1
1, 0, Tempo, 512820
1, 0, Time_signature, 4, 2, 24, 8
1, 0, System_exclusive, 5, 126, 127, 9, 1, 247
1, 1, System_exclusive, 8, 67, 16, 76, 0, 0, 126, 0, 247
1, 2, System_exclusive, 8, 67, 16, 76, 8, 9, 7, 1, 247
1, 3, Control_c, 0, 0, 0
1, 3, Control_c, 1, 0, 0
1, 3, Control_c, 2, 0, 0
1, 3, Control_c, 3, 0, 0
1, 3, Control_c, 4, 0, 0
1, 3, Control_c, 5, 0, 0
1, 3, Control_c, 6, 0, 0
1, 3, Control_c, 7, 0, 0
1, 3, Control_c, 8, 0, 0
1, 3, Control_c, 9, 0, 127
1, 3, Control_c, 10, 0, 0
1, 3, Control_c, 11, 0, 0
1, 3, Control_c, 12, 0, 0
1, 3, Control_c, 13, 0, 0
1, 3, Control_c, 14, 0, 0
1, 3, Control_c, 15, 0, 0
1, 4, Control_c, 0, 32, 0
1, 4, Control_c, 1, 32, 0
1, 4, Control_c, 2, 32, 0
1, 4, Control_c, 3, 32, 0
1, 4, Control_c, 4, 32, 0
1, 4, Control_c, 5, 32, 0
1, 4, Control_c, 6, 32, 0
1, 4, Control_c, 7, 32, 0
1, 4, Control_c, 8, 32, 0
1, 4, Control_c, 9, 32, 0
1, 4, Control_c, 10, 32, 0
1, 4, Control_c, 11, 32, 0
1, 4, Control_c, 12, 32, 0
1, 4, Control_c, 13, 32, 0
1, 4, Control_c, 14, 32, 0
1, 4, Control_c, 15, 32, 0
1, 5, Program_c, 0, 0
1, 5, Program_c, 1, 0
1, 5, Program_c, 2, 0
1, 5, Program_c, 3, 0
1, 5, Program_c, 4, 0
1, 5, Program_c, 5, 0
1, 5, Program_c, 6, 0
1, 5, Program_c, 7, 0
1, 5, Program_c, 8, 0
1, 5, Program_c, 9, 0
1, 5, Program_c, 10, 0
1, 5, Program_c, 11, 0
1, 5, Program_c, 12, 0
1, 5, Program_c, 13, 0
1, 5, Program_c, 14, 0
1, 5, Program_c, 15, 0
1, 6, Control_c, 0, 7, 100
1, 6, Control_c, 1, 7, 100
1, 6, Control_c, 2, 7, 100
1, 6, Control_c, 3, 7, 100
1, 6, Control_c, 4, 7, 100
1, 6, Control_c, 5, 7, 100
1, 6, Control_c, 6, 7, 100
1, 6, Control_c, 7, 7, 100
1, 6, Control_c, 8, 7, 100
1, 6, Control_c, 9, 7, 100
1, 6, Control_c, 10, 7, 100
1, 6, Control_c, 11, 7, 100
1, 6, Control_c, 12, 7, 100
1, 6, Control_c, 13, 7, 100
1, 6, Control_c, 14, 7, 100
1, 6, Control_c, 15, 7, 100
1, 117, Control_c, 0, 64, 15
1, 229, Control_c, 0, 64, 31
1, 341, Control_c, 0, 64, 46
1, 452, Control_c, 0, 64, 63
1, 564, Control_c, 0, 64, 77
1, 676, Control_c, 0, 64, 94
1, 787, Control_c, 0, 64, 108
1, 899, Control_c, 0, 64, 127
1, 1128, Note_on_c, 0, 51, 90
1, 1141, Note_on_c, 0, 36, 76
1, 1164, Control_c, 0, 64, 75
1, 1179, Control_c, 0, 64, 55
1, 1194, Control_c, 0, 64, 19
1, 1209, Control_c, 0, 64, 15
1, 1224, Control_c, 0, 64, 48
1, 1239, Control_c, 0, 64, 75
1, 1248, Poly_aftertouch_c, 0, 59, 0
1, 1254, Control_c, 0, 64, 101
1, 1269, Control_c, 0, 64, 127
1, 1311, Note_on_c, 0, 55, 69
1, 1326, Note_on_c, 0, 43, 60
1, 1347, Note_off_c, 0, 51, 63
1, 1363, Note_off_c, 0, 36, 63
1, 1384, Note_off_c, 0, 55, 61
1, 1387, Note_off_c, 0, 43, 63
1, 1422, Note_on_c, 0, 48, 62
1, 1422, Note_on_c, 0, 63, 63
1, 1459, Note_off_c, 0, 48, 63
1, 1467, Note_off_c, 0, 63, 61
1, 1541, Note_on_c, 0, 48, 71
1, 1554, Note_on_c, 0, 63, 76
1, 1626, Note_off_c, 0, 48, 62
1, 1631, Note_on_c, 0, 67, 65
1, 1638, Note_off_c, 0, 63, 63
1, 1640, Note_on_c, 0, 55, 48
1, 1663, Note_off_c, 0, 67, 63
1, 1664, Note_off_c, 0, 55, 62
1, 1682, Note_on_c, 0, 60, 63
1, 1694, Note_on_c, 0, 75, 56
1, 1724, Note_off_c, 0, 75, 65
1, 1732, Note_off_c, 0, 60, 61
1, 1783, Note_on_c, 0, 60, 55
1, 1787, Note_on_c, 0, 75, 74
1, 1855, Note_on_c, 0, 79, 70
1, 1859, Note_on_c, 0, 67, 66
1, 1862, Note_off_c, 0, 75, 56
1, 1890, Note_off_c, 0, 67, 63
1, 1915, Note_on_c, 0, 87, 85
1, 1917, Note_off_c, 0, 79, 59
1, 1926, Note_on_c, 0, 72, 72
1, 1964, Note_off_c, 0, 60, 58
1, 1965, Note_off_c, 0, 72, 60
1, 1983, Note_on_c, 0, 67, 60
1, 1986, Note_on_c, 0, 79, 78
1, 2000, Note_off_c, 0, 87, 65
1, 2022, Note_off_c, 0, 67, 60
1, 2031, Note_off_c, 0, 79, 66
1, 2048, Note_on_c, 0, 60, 45
1, 2064, Note_on_c, 0, 75, 44
1, 2076, Note_off_c, 0, 60, 57
1, 2095, Note_off_c, 0, 75, 59
1, 2134, Note_on_c, 0, 60, 67
1, 2159, Note_on_c, 0, 75, 66
1, 2202, Note_off_c, 0, 60, 62
1, 2205, Note_on_c, 0, 67, 79
1, 2213, Note_on_c, 0, 55, 55
1, 2219, Note_off_c, 0, 75, 64
1, 2248, Note_off_c, 0, 55, 62
1, 2259, Note_off_c, 0, 67, 64
1, 2260, Note_on_c, 0, 48, 63
1, 2275, Note_on_c, 0, 63, 68
1, 2289, Note_off_c, 0, 48, 64
1, 2295, Note_off_c, 0, 63, 67
1, 2341, Note_on_c, 0, 48, 72
1, 2358, Note_on_c, 0, 63, 77
1, 2415, Note_on_c, 0, 43, 66
1, 2419, Note_on_c, 0, 55, 68
1, 2427, Note_off_c, 0, 63, 62
1, 2432, Note_off_c, 0, 48, 60
1, 2495, Note_on_c, 0, 50, 96
1, 2495, Note_off_c, 0, 55, 59
1, 2496, Note_off_c, 0, 43, 59
1, 2499, Note_on_c, 0, 36, 78
1, 2514, Control_c, 0, 64, 75
1, 2529, Control_c, 0, 64, 53
1, 2544, Control_c, 0, 64, 43
1, 2559, Control_c, 0, 64, 61
1, 2574, Note_on_c, 0, 56, 77
1, 2574, Control_c, 0, 64, 77
1, 2579, Note_off_c, 0, 36, 65
1, 2585, Note_on_c, 0, 41, 49
1, 2588, Control_c, 0, 64, 127
1, 2602, Note_off_c, 0, 50, 63
1, 2618, Note_off_c, 0, 41, 51
1, 2631, Note_on_c, 0, 48, 73
1, 2638, Note_on_c, 0, 62, 69
1, 2647, Note_off_c, 0, 56, 64
1, 2665, Note_off_c, 0, 48, 67
1, 2672, Note_off_c, 0, 62, 66
1, 2727, Note_on_c, 0, 62, 84
1, 2751, Note_on_c, 0, 48, 51
1, 2779, Note_off_c, 0, 62, 62
1, 2788, Note_on_c, 0, 53, 63
1, 2789, Note_off_c, 0, 48, 55
1, 2791, Note_on_c, 0, 68, 72
1, 2812, Note_off_c, 0, 53, 63
1, 2858, Note_on_c, 0, 60, 62
1, 2859, Note_off_c, 0, 68, 66
1, 2863, Note_on_c, 0, 74, 62
1, 2890, Note_off_c, 0, 60, 63
1, 2893, Note_off_c, 0, 74, 67
1, 2945, Note_on_c, 0, 74, 78
1, 2975, Note_on_c, 0, 60, 47
1, 3002, Note_on_c, 0, 62, 38
1, 3002, Note_on_c, 0, 80, 81
1, 3007, Note_on_c, 0, 65, 64
1, 3012, Note_off_c, 0, 74, 62
1, 3034, Note_off_c, 0, 65, 65
1, 3036, Note_on_c, 0, 64, 27
1, 3039, Note_off_c, 0, 62, 46
1, 3059, Note_on_c, 0, 86, 90
1, 3065, Note_on_c, 0, 72, 71
1, 3066, Note_off_c, 0, 80, 64
1, 3074, Note_off_c, 0, 64, 51
1, 3095, Note_off_c, 0, 60, 47
1, 3101, Note_off_c, 0, 72, 65
1, 3125, Note_on_c, 0, 80, 83
1, 3130, Note_off_c, 0, 86, 65
1, 3131, Note_on_c, 0, 65, 57
1, 3175, Note_off_c, 0, 80, 65
1, 3187, Note_on_c, 0, 64, 34
1, 3190, Note_off_c, 0, 65, 63
1, 3190, Note_on_c, 0, 60, 55
1, 3195, Note_on_c, 0, 74, 67
1, 3221, Note_off_c, 0, 60, 62
1, 3221, Note_off_c, 0, 64, 47
1, 3223, Note_off_c, 0, 74, 67
1, 3268, Note_on_c, 0, 60, 68
1, 3269, Note_on_c, 0, 74, 89
1, 3313, Note_off_c, 0, 60, 60
1, 3330, Note_on_c, 0, 53, 71
1, 3332, Note_on_c, 0, 68, 87
1, 3338, Note_off_c, 0, 74, 64
1, 3380, Note_off_c, 0, 53, 60
1, 3381, Note_off_c, 0, 68, 66
1, 3394, Note_on_c, 0, 48, 55
1, 3396, Note_on_c, 0, 62, 76
1, 3416, Note_off_c, 0, 48, 60
1, 3432, Note_off_c, 0, 62, 66
1, 3450, Note_on_c, 0, 48, 60
1, 3462, Note_on_c, 0, 62, 70
1, 3515, Note_on_c, 0, 41, 67
1, 3521, Note_on_c, 0, 56, 81
1, 3536, Note_off_c, 0, 48, 58
1, 3561, Note_off_c, 0, 62, 63
1, 3599, Note_off_c, 0, 56, 64
1, 3605, Note_off_c, 0, 41, 62
1, 3616, Note_on_c, 0, 53, 91
1, 3617, Note_on_c, 0, 36, 85
1, 3640, Control_c, 0, 64, 74
1, 3655, Control_c, 0, 64, 42
1, 3670, Control_c, 0, 64, 0
1, 3685, Control_c, 0, 64, 41
1, 3697, Note_off_c, 0, 36, 64
1, 3700, Control_c, 0, 64, 62
1, 3706, Note_on_c, 0, 44, 63
1, 3709, Note_on_c, 0, 60, 72
1, 3715, Control_c, 0, 64, 77
1, 3728, Note_off_c, 0, 53, 59
1, 3730, Control_c, 0, 64, 112
1, 3734, Note_off_c, 0, 44, 65
1, 3744, Control_c, 0, 64, 127
1, 3775, Note_on_c, 0, 48, 48
1, 3780, Note_on_c, 0, 65, 72
1, 3788, Note_off_c, 0, 60, 63
1, 3806, Note_off_c, 0, 48, 54
1, 3817, Note_off_c, 0, 65, 61
1, 3861, Note_on_c, 0, 48, 52
1, 3861, Poly_aftertouch_c, 0, 50, 0
1, 3868, Note_on_c, 0, 65, 82
1, 3898, Poly_aftertouch_c, 0, 50, 127
1, 3908, Note_off_c, 0, 48, 64
1, 3914, Note_off_c, 0, 65, 59
1, 3916, Note_on_c, 0, 56, 69
1, 3928, Note_on_c, 0, 72, 82
1, 3943, Poly_aftertouch_c, 0, 50, 0
1, 3943, Note_off_c, 0, 56, 66
1, 3958, Note_on_c, 0, 60, 69
1, 3990, Note_off_c, 0, 72, 64
1, 3996, Note_on_c, 0, 77, 68
1, 4000, Note_off_c, 0, 60, 63
1, 4024, Note_off_c, 0, 77, 68
1, 4058, Note_on_c, 0, 60, 63
1, 4075, Note_on_c, 0, 77, 75
1, 4124, Note_on_c, 0, 84, 76
1, 4129, Note_on_c, 0, 68, 72
1, 4136, Note_off_c, 0, 77, 61
1, 4171, Note_off_c, 0, 68, 63
1, 4182, Note_on_c, 0, 89, 95
1, 4183, Note_on_c, 0, 72, 85
1, 4190, Note_off_c, 0, 84, 66
1, 4222, Note_off_c, 0, 60, 59
1, 4238, Note_off_c, 0, 72, 61
1, 4242, Note_on_c, 0, 84, 86
1, 4248, Note_on_c, 0, 68, 74
1, 4252, Note_off_c, 0, 89, 65
1, 4281, Note_off_c, 0, 68, 66
1, 4293, Note_on_c, 0, 60, 63
1, 4299, Note_off_c, 0, 84, 66
1, 4318, Note_on_c, 0, 77, 67
1, 4325, Note_off_c, 0, 60, 62
1, 4355, Note_off_c, 0, 77, 69
1, 4388, Note_on_c, 0, 60, 75
1, 4399, Note_on_c, 0, 77, 84
1, 4436, Note_off_c, 0, 60, 60
1, 4454, Note_on_c, 0, 56, 63
1, 4457, Note_on_c, 0, 72, 89
1, 4468, Note_off_c, 0, 77, 64
1, 4481, Note_off_c, 0, 56, 66
1, 4495, Note_on_c, 0, 48, 71
1, 4511, Note_off_c, 0, 72, 65
1, 4520, Note_on_c, 0, 65, 78
1, 4529, Note_off_c, 0, 48, 64
1, 4563, Note_off_c, 0, 65, 64
1, 4575, Note_on_c, 0, 48, 73
1, 4589, Note_on_c, 0, 65, 72
1, 4639, Note_off_c, 0, 48, 61
1, 4645, Note_on_c, 0, 44, 75
1, 4646, Note_on_c, 0, 60, 75
1, 4647, Note_off_c, 0, 65, 64
1, 4678, Note_off_c, 0, 60, 64
1, 4701, Note_off_c, 0, 44, 61
1, 4782, Note_on_c, 0, 36, 75
1, 4788, Note_on_c, 0, 51, 93
1, 4805, Control_c, 0, 64, 90
1, 4820, Control_c, 0, 64, 63
1, 4825, Note_on_c, 0, 59, 40
1, 4835, Control_c, 0, 64, 44
1, 4850, Control_c, 0, 64, 50
1, 4856, Note_off_c, 0, 59, 54
1, 4864, Control_c, 0, 64, 68
1, 4871, Note_on_c, 0, 55, 70
1, 4874, Note_off_c, 0, 36, 64
1, 4875, Note_on_c, 0, 43, 53
1, 4879, Control_c, 0, 64, 89
1, 4889, Note_off_c, 0, 51, 64
1, 4894, Control_c, 0, 64, 127
1, 4904, Note_off_c, 0, 43, 59
1, 4912, Note_off_c, 0, 55, 64
1, 4915, Note_on_c, 0, 63, 67
1, 4917, Note_on_c, 0, 48, 71
1, 4964, Note_off_c, 0, 48, 64
1, 4978, Note_off_c, 0, 63, 63
1, 4997, Poly_aftertouch_c, 0, 48, 0
1, 5006, Note_on_c, 0, 48, 62
1, 5018, Note_on_c, 0, 63, 71
1, 5078, Note_on_c, 0, 55, 71
1, 5091, Note_off_c, 0, 48, 63
1, 5092, Note_on_c, 0, 67, 77
1, 5095, Note_off_c, 0, 63, 64
1, 5118, Note_off_c, 0, 55, 63
1, 5128, Note_off_c, 0, 67, 64
1, 5136, Note_on_c, 0, 60, 72
1, 5145, Note_on_c, 0, 75, 66
1, 5181, Note_off_c, 0, 75, 64
1, 5189, Note_off_c, 0, 60, 61
1, 5232, Note_on_c, 0, 60, 61
1, 5241, Note_on_c, 0, 75, 83
1, 5296, Note_on_c, 0, 79, 77
1, 5300, Note_on_c, 0, 67, 78
1, 5314, Note_off_c, 0, 75, 59
1, 5353, Note_off_c, 0, 67, 63
1, 5362, Note_on_c, 0, 87, 86
1, 5364, Note_on_c, 0, 72, 84
1, 5378, Note_off_c, 0, 79, 64
1, 5421, Note_off_c, 0, 60, 60
1, 5421, Note_off_c, 0, 72, 65
1, 5426, Note_on_c, 0, 79, 72
1, 5440, Note_on_c, 0, 67, 75
1, 5453, Note_off_c, 0, 87, 65
1, 5473, Note_off_c, 0, 79, 67
1, 5489, Note_off_c, 0, 67, 61
1, 5491, Note_on_c, 0, 60, 57
1, 5493, Note_on_c, 0, 75, 60
1, 5515, Note_off_c, 0, 75, 65
1, 5522, Note_off_c, 0, 60, 63
1, 5565, Note_on_c, 0, 60, 79
1, 5578, Note_on_c, 0, 75, 84
1, 5632, Note_on_c, 0, 67, 81
1, 5648, Note_on_c, 0, 55, 68
1, 5654, Note_off_c, 0, 60, 62
1, 5670, Note_off_c, 0, 75, 64
1, 5697, Note_off_c, 0, 67, 64
1, 5709, Note_on_c, 0, 48, 76
1, 5709, Note_off_c, 0, 55, 62
1, 5710, Note_on_c, 0, 63, 76
1, 5733, Note_off_c, 0, 63, 68
1, 5751, Note_off_c, 0, 48, 62
1, 5780, Note_on_c, 0, 48, 68
1, 5786, Note_on_c, 0, 63, 78
1, 5873, Note_on_c, 0, 55, 65
1, 5876, Note_on_c, 0, 43, 70
1, 5885, Note_off_c, 0, 48, 61
1, 5895, Note_off_c, 0, 63, 60
1, 5935, Note_on_c, 0, 50, 101
1, 5942, Note_on_c, 0, 36, 81
1, 5947, Control_c, 0, 64, 81
1, 5952, Note_off_c, 0, 43, 63
1, 5962, Control_c, 0, 64, 58
1, 5968, Note_off_c, 0, 55, 46
1, 5977, Control_c, 0, 64, 45
1, 5992, Control_c, 0, 64, 59
1, 6007, Control_c, 0, 64, 72
1, 6021, Control_c, 0, 64, 100
1, 6022, Note_on_c, 0, 56, 77
1, 6029, Note_off_c, 0, 36, 64
1, 6032, Note_on_c, 0, 41, 61
1, 6036, Control_c, 0, 64, 127
1, 6046, Note_off_c, 0, 50, 65
1, 6063, Note_off_c, 0, 41, 61
1, 6081, Note_on_c, 0, 48, 69
1, 6085, Note_on_c, 0, 62, 58
1, 6095, Note_off_c, 0, 56, 64
1, 6120, Note_off_c, 0, 48, 64
1, 6120, Note_off_c, 0, 62, 67
1, 6177, Note_on_c, 0, 48, 65
1, 6178, Note_on_c, 0, 62, 81
1, 6222, Note_off_c, 0, 62, 58
1, 6239, Note_off_c, 0, 48, 63
1, 6242, Note_on_c, 0, 68, 76
1, 6254, Note_on_c, 0, 53, 36
1, 6284, Note_off_c, 0, 53, 52
1, 6287, Note_on_c, 0, 60, 69
1, 6295, Note_off_c, 0, 68, 66
1, 6299, Note_on_c, 0, 74, 68
1, 6329, Note_off_c, 0, 60, 63
1, 6338, Note_off_c, 0, 74, 60
1, 6383, Note_on_c, 0, 74, 72
1, 6385, Note_on_c, 0, 60, 56
1, 6440, Note_on_c, 0, 80, 81
1, 6448, Note_on_c, 0, 65, 61
1, 6448, Note_off_c, 0, 74, 61
1, 6464, Note_on_c, 0, 64, 35
1, 6470, Note_off_c, 0, 65, 64
1, 6495, Note_on_c, 0, 72, 78
1, 6495, Note_off_c, 0, 64, 54
1, 6499, Note_on_c, 0, 86, 91
1, 6505, Note_off_c, 0, 80, 64
1, 6532, Note_off_c, 0, 60, 60
1, 6547, Note_off_c, 0, 72, 64
1, 6560, Note_on_c, 0, 80, 87
1, 6565, Note_on_c, 0, 65, 57
1, 6575, Note_off_c, 0, 86, 65
1, 6610, Note_on_c, 0, 64, 45
1, 6625, Note_on_c, 0, 60, 64
1, 6626, Note_off_c, 0, 80, 64
1, 6629, Note_off_c, 0, 65, 63
1, 6639, Note_on_c, 0, 74, 67
1, 6642, Note_off_c, 0, 64, 65
1, 6660, Note_off_c, 0, 60, 61
1, 6669, Note_off_c, 0, 74, 68
1, 6697, Note_on_c, 0, 60, 75
1, 6710, Note_on_c, 0, 74, 96
1, 6751, Note_off_c, 0, 60, 62
1, 6768, Note_on_c, 0, 53, 75
1, 6773, Note_on_c, 0, 68, 91
1, 6789, Note_off_c, 0, 74, 64
1, 6826, Note_off_c, 0, 68, 66
1, 6831, Note_off_c, 0, 53, 61
1, 6834, Note_on_c, 0, 48, 65
1, 6841, Note_on_c, 0, 62, 79
1, 6860, Note_off_c, 0, 48, 61
1, 6869, Note_off_c, 0, 62, 69
1, 6884, Note_on_c, 0, 48, 68
1, 6910, Note_on_c, 0, 62, 77
1, 6954, Note_on_c, 0, 41, 77
1, 6966, Note_on_c, 0, 56, 87
1, 6967, Note_off_c, 0, 62, 65
1, 6968, Note_off_c, 0, 48, 63
1, 7026, Note_off_c, 0, 56, 60
1, 7050, Note_on_c, 0, 36, 87
1, 7050, Note_on_c, 0, 51, 94
1, 7051, Note_off_c, 0, 41, 62
1, 7065, Control_c, 0, 64, 80
1, 7080, Control_c, 0, 64, 51
1, 7095, Control_c, 0, 64, 38
1, 7110, Control_c, 0, 64, 54
1, 7125, Control_c, 0, 64, 70
1, 7126, Note_on_c, 0, 41, 76
1, 7128, Note_on_c, 0, 56, 85
1, 7133, Note_off_c, 0, 36, 65
1, 7140, Control_c, 0, 64, 94
1, 7155, Control_c, 0, 64, 127
1, 7161, Note_off_c, 0, 41, 64
1, 7161, Note_off_c, 0, 51, 65
1, 7171, Note_on_c, 0, 47, 78
1, 7178, Note_on_c, 0, 63, 60
1, 7187, Note_off_c, 0, 56, 64
1, 7214, Note_off_c, 0, 47, 66
1, 7235, Note_off_c, 0, 63, 65
1, 7265, Note_on_c, 0, 48, 73
1, 7277, Note_on_c, 0, 63, 70
1, 7332, Note_on_c, 0, 53, 75
1, 7342, Note_off_c, 0, 48, 63
1, 7344, Note_on_c, 0, 68, 88
1, 7357, Note_off_c, 0, 63, 64
1, 7367, Note_off_c, 0, 53, 65
1, 7390, Note_on_c, 0, 59, 78
1, 7407, Note_on_c, 0, 75, 75
1, 7413, Note_off_c, 0, 68, 66
1, 7435, Note_off_c, 0, 59, 66
1, 7455, Note_off_c, 0, 75, 62
1, 7485, Note_on_c, 0, 75, 81
1, 7486, Note_on_c, 0, 60, 71
1, 7555, Note_on_c, 0, 65, 69
1, 7558, Note_on_c, 0, 80, 87
1, 7569, Note_off_c, 0, 75, 65
1, 7593, Note_on_c, 0, 64, 23
1, 7602, Note_off_c, 0, 65, 63
1, 7617, Note_on_c, 0, 87, 103
1, 7619, Note_on_c, 0, 71, 85
1, 7632, Note_off_c, 0, 64, 45
1, 7643, Note_off_c, 0, 80, 64
1, 7664, Note_off_c, 0, 60, 62
1, 7683, Note_on_c, 0, 80, 83
1, 7686, Note_off_c, 0, 71, 64
1, 7710, Note_on_c, 0, 65, 71
1, 7721, Note_off_c, 0, 87, 66
1, 7741, Note_off_c, 0, 65, 64
1, 7749, Note_on_c, 0, 60, 65
1, 7750, Note_off_c, 0, 80, 64
1, 7763, Note_on_c, 0, 75, 65
1, 7763, Note_on_c, 0, 64, 7
1, 7777, Note_off_c, 0, 60, 64
1, 7780, Note_off_c, 0, 75, 68
1, 7813, Note_off_c, 0, 64, 52
1, 7822, Note_on_c, 0, 59, 81
1, 7840, Note_on_c, 0, 75, 78
1, 7891, Note_off_c, 0, 59, 64
1, 7897, Note_on_c, 0, 68, 81
1, 7898, Note_on_c, 0, 53, 70
1, 7918, Note_off_c, 0, 75, 64
1, 7960, Note_off_c, 0, 68, 65
1, 7961, Note_off_c, 0, 53, 63
1, 7971, Note_on_c, 0, 48, 55
1, 7972, Note_on_c, 0, 63, 68
1, 7995, Note_off_c, 0, 48, 65
1, 7999, Note_off_c, 0, 63, 68
1, 8032, Note_on_c, 0, 47, 83
1, 8049, Note_on_c, 0, 63, 82
1, 8116, Note_on_c, 0, 41, 71
1, 8119, Note_off_c, 0, 47, 61
1, 8127, Note_on_c, 0, 56, 74
1, 8134, Note_off_c, 0, 63, 62
1, 8181, Note_on_c, 0, 36, 83
1, 8190, Note_off_c, 0, 41, 62
1, 8230, Note_off_c, 0, 56, 62
1, 8261, Note_on_c, 0, 48, 97
1, 8311, Control_c, 0, 64, 76
1, 8321, Note_on_c, 0, 57, 14
1, 8326, Control_c, 0, 64, 50
1, 8340, Control_c, 0, 64, 0
1, 8343, Note_off_c, 0, 57, 48
1, 8385, Control_c, 0, 64, 54
1, 8400, Control_c, 0, 64, 70
1, 8414, Control_c, 0, 64, 83
1, 8429, Control_c, 0, 64, 113
1, 8431, Note_off_c, 0, 48, 59
1, 8436, Note_on_c, 0, 51, 54
1, 8444, Control_c, 0, 64, 127
1, 8461, Note_on_c, 0, 43, 40
1, 8469, Note_off_c, 0, 36, 62
1, 8485, Note_off_c, 0, 51, 64
1, 8498, Note_off_c, 0, 43, 50
1, 8499, Note_on_c, 0, 60, 53
1, 8529, Note_on_c, 0, 48, 49
1, 8569, Note_off_c, 0, 60, 53
1, 8585, Note_off_c, 0, 48, 58
1, 8665, Note_on_c, 0, 60, 52
1, 8678, Note_on_c, 0, 48, 56
1, 8720, Note_off_c, 0, 60, 53
1, 8759, Note_on_c, 0, 63, 31
1, 8791, Note_off_c, 0, 63, 56
1, 8842, Note_on_c, 0, 55, 35
1, 8952, Note_on_c, 0, 72, 79
1, 8955, Control_c, 0, 64, 91
1, 8970, Control_c, 0, 64, 80
1, 8985, Control_c, 0, 64, 78
1, 8997, Note_on_c, 0, 60, 44
1, 8999, Note_off_c, 0, 55, 43
1, 9000, Control_c, 0, 64, 78
1, 9015, Control_c, 0, 64, 79
1, 9030, Control_c, 0, 64, 81
1, 9045, Control_c, 0, 64, 86
1, 9055, Note_off_c, 0, 48, 61
1, 9059, Control_c, 0, 64, 97
1, 9074, Note_off_c, 0, 72, 60
1, 9074, Control_c, 0, 64, 127
1, 9078, Note_off_c, 0, 60, 46
1, 9107, Note_on_c, 0, 55, 45
1, 9110, Note_on_c, 0, 63, 54
1, 9144, Note_off_c, 0, 55, 63
1, 9153, Note_off_c, 0, 63, 60
1, 9193, Note_on_c, 0, 48, 52
1, 9221, Note_on_c, 0, 60, 20
1, 9252, Note_on_c, 0, 63, 64
1, 9256, Note_on_c, 0, 55, 48
1, 9259, Note_off_c, 0, 48, 51
1, 9265, Note_off_c, 0, 60, 40
1, 9307, Note_off_c, 0, 55, 57
1, 9340, Note_on_c, 0, 70, 79
1, 9340, Note_off_c, 0, 63, 64
1, 9351, Note_on_c, 0, 60, 52
1, 9388, Note_off_c, 0, 60, 59
1, 9413, Note_on_c, 0, 55, 57
1, 9417, Note_on_c, 0, 63, 66
1, 9446, Note_off_c, 0, 55, 64
1, 9452, Note_off_c, 0, 70, 62
1, 9473, Note_on_c, 0, 48, 58
1, 9480, Note_off_c, 0, 63, 64
1, 9483, Note_on_c, 0, 60, 61
1, 9537, Note_on_c, 0, 55, 54
1, 9542, Note_off_c, 0, 60, 61
1, 9544, Note_on_c, 0, 63, 61
1, 9589, Note_off_c, 0, 55, 59
1, 9616, Note_on_c, 0, 60, 49
1, 9626, Note_on_c, 0, 68, 84
1, 9632, Note_off_c, 0, 63, 63
1, 9661, Note_off_c, 0, 60, 62
1, 9673, Note_off_c, 0, 48, 52
1, 9691, Note_on_c, 0, 55, 57
1, 9691, Note_on_c, 0, 63, 67
1, 9725, Note_off_c, 0, 55, 59
1, 9728, Poly_aftertouch_c, 0, 66, 127
1, 9754, Note_on_c, 0, 60, 72
1, 9757, Note_off_c, 0, 63, 64
1, 9782, Note_on_c, 0, 48, 55
1, 9788, Poly_aftertouch_c, 0, 66, 0
1, 9789, Note_off_c, 0, 68, 63
1, 9817, Note_on_c, 0, 62, 77
1, 9823, Note_on_c, 0, 55, 58
1, 9833, Note_off_c, 0, 60, 60
1, 9898, Note_off_c, 0, 55, 63
1, 9903, Note_on_c, 0, 67, 92
1, 9904, Note_on_c, 0, 59, 63
1, 9905, Note_off_c, 0, 62, 56
1, 9912, Control_c, 0, 64, 90
1, 9927, Control_c, 0, 64, 75
1, 9929, Note_off_c, 0, 48, 60
1, 9942, Control_c, 0, 64, 72
1, 9956, Note_off_c, 0, 59, 60
1, 9957, Control_c, 0, 64, 76
1, 9972, Control_c, 0, 64, 85
1, 9977, Note_on_c, 0, 62, 66
1, 9985, Note_on_c, 0, 55, 54
1, 9986, Control_c, 0, 64, 101
1, 10001, Control_c, 0, 64, 124
1, 10016, Control_c, 0, 64, 127
1, 10033, Note_off_c, 0, 55, 62
1, 10041, Note_off_c, 0, 62, 65
1, 10050, Note_on_c, 0, 59, 72
1, 10054, Note_on_c, 0, 48, 60
1, 10107, Note_off_c, 0, 67, 62
1, 10110, Note_on_c, 0, 61, 78
1, 10116, Note_off_c, 0, 59, 65
1, 10129, Note_on_c, 0, 55, 60
1, 10164, Note_off_c, 0, 55, 64
1, 10177, Note_on_c, 0, 67, 90
1, 10183, Note_on_c, 0, 58, 62
1, 10190, Note_off_c, 0, 61, 64
1, 10237, Note_off_c, 0, 58, 63
1, 10244, Note_on_c, 0, 55, 64
1, 10248, Note_on_c, 0, 61, 77
1, 10252, Note_off_c, 0, 48, 35
1, 10314, Note_off_c, 0, 61, 64
1, 10317, Note_off_c, 0, 55, 58
1, 10330, Note_on_c, 0, 58, 65
1, 10341, Note_on_c, 0, 48, 67
1, 10377, Note_off_c, 0, 67, 51
1, 10386, Note_off_c, 0, 58, 64
1, 10406, Note_on_c, 0, 60, 75
1, 10426, Note_on_c, 0, 53, 57
1, 10503, Note_on_c, 0, 65, 94
1, 10513, Control_c, 0, 64, 80
1, 10522, Note_off_c, 0, 53, 62
1, 10526, Note_on_c, 0, 57, 63
1, 10527, Control_c, 0, 64, 64
1, 10529, Note_off_c, 0, 60, 62
1, 10542, Control_c, 0, 64, 56
1, 10557, Control_c, 0, 64, 61
1, 10572, Note_off_c, 0, 57, 61
1, 10572, Control_c, 0, 64, 70
1, 10582, Note_off_c, 0, 48, 35
1, 10587, Control_c, 0, 64, 83
1, 10589, Note_on_c, 0, 60, 71
1, 10595, Note_on_c, 0, 53, 50
1, 10602, Control_c, 0, 64, 109
1, 10616, Control_c, 0, 64, 127
1, 10653, Note_off_c, 0, 53, 62
1, 10655, Note_on_c, 0, 48, 68
1, 10656, Note_on_c, 0, 57, 74
1, 10659, Note_off_c, 0, 60, 63
1, 10711, Note_off_c, 0, 65, 61
1, 10729, Note_on_c, 0, 59, 79
1, 10741, Note_off_c, 0, 57, 64
1, 10749, Note_on_c, 0, 53, 61
1, 10795, Note_off_c, 0, 53, 59
1, 10807, Note_on_c, 0, 65, 97
1, 10819, Note_off_c, 0, 59, 66
1, 10824, Note_on_c, 0, 56, 71
1, 10857, Note_off_c, 0, 48, 53
1, 10879, Note_off_c, 0, 56, 62
1, 10885, Note_on_c, 0, 59, 87
1, 10896, Note_on_c, 0, 53, 62
1, 10920, Note_off_c, 0, 65, 61
1, 10946, Note_off_c, 0, 59, 64
1, 10952, Note_off_c, 0, 53, 55
1, 10968, Note_on_c, 0, 48, 67
1, 10985, Note_on_c, 0, 56, 80
1, 11018, Note_off_c, 0, 56, 63
1, 11034, Note_off_c, 0, 48, 64
1, 11212, Note_on_c, 0, 51, 101
1, 11229, Note_on_c, 0, 36, 75
1, 11262, Control_c, 0, 64, 78
1, 11277, Control_c, 0, 64, 63
1, 11292, Control_c, 0, 64, 61
1, 11306, Control_c, 0, 64, 71
1, 11321, Control_c, 0, 64, 92
1, 11336, Control_c, 0, 64, 127
1, 11340, Note_on_c, 0, 55, 74
1, 11353, Note_off_c, 0, 36, 61
1, 11354, Note_on_c, 0, 43, 53
1, 11361, Note_off_c, 0, 51, 64
1, 11383, Note_off_c, 0, 43, 58
1, 11394, Note_off_c, 0, 55, 63
1, 11409, Note_on_c, 0, 48, 61
1, 11418, Note_on_c, 0, 63, 67
1, 11451, Note_off_c, 0, 48, 64
1, 11460, Note_off_c, 0, 63, 56
1, 11511, Note_on_c, 0, 48, 69
1, 11519, Note_on_c, 0, 63, 80
1, 11586, Note_on_c, 0, 55, 59
1, 11587, Note_on_c, 0, 67, 75
1, 11588, Note_off_c, 0, 63, 63
1, 11589, Note_off_c, 0, 48, 63
1, 11608, Note_off_c, 0, 55, 65
1, 11626, Note_off_c, 0, 67, 63
1, 11636, Note_on_c, 0, 60, 67
1, 11656, Note_on_c, 0, 75, 62
1, 11676, Note_off_c, 0, 60, 63
1, 11686, Note_off_c, 0, 75, 67
1, 11727, Note_on_c, 0, 60, 61
1, 11744, Note_on_c, 0, 75, 80
1, 11799, Note_on_c, 0, 79, 78
1, 11803, Note_on_c, 0, 67, 73
1, 11810, Note_off_c, 0, 75, 63
1, 11848, Note_off_c, 0, 67, 62
1, 11869, Note_on_c, 0, 87, 89
1, 11870, Note_on_c, 0, 72, 79
1, 11879, Note_off_c, 0, 79, 61
1, 11915, Note_off_c, 0, 60, 60
1, 11933, Note_off_c, 0, 72, 63
1, 11936, Note_on_c, 0, 67, 67
1, 11942, Note_on_c, 0, 79, 77
1, 11953, Note_off_c, 0, 87, 67
1, 11984, Note_off_c, 0, 67, 56
1, 11984, Note_off_c, 0, 79, 66
1, 11991, Note_on_c, 0, 60, 60
1, 12005, Note_on_c, 0, 75, 59
1, 12020, Note_off_c, 0, 60, 64
1, 12023, Note_off_c, 0, 75, 67
1, 12079, Note_on_c, 0, 60, 78
1, 12086, Note_on_c, 0, 75, 80
1, 12161, Note_on_c, 0, 67, 85
1, 12161, Note_off_c, 0, 60, 61
1, 12180, Note_on_c, 0, 55, 59
1, 12187, Note_off_c, 0, 75, 64
1, 12213, Note_on_c, 0, 48, 76
1, 12213, Note_off_c, 0, 55, 63
1, 12216, Note_off_c, 0, 67, 65
1, 12236, Note_on_c, 0, 63, 69
1, 12252, Note_off_c, 0, 48, 60
1, 12258, Note_off_c, 0, 63, 66
1, 12292, Note_on_c, 0, 48, 70
1, 12322, Note_on_c, 0, 63, 75
1, 12367, Note_on_c, 0, 43, 73
1, 12377, Note_off_c, 0, 48, 60
1, 12392, Note_off_c, 0, 63, 62
1, 12413, Note_on_c, 0, 55, 44
1, 12417, Note_on_c, 0, 36, 84
1, 12458, Note_off_c, 0, 43, 61
1, 12486, Note_on_c, 0, 50, 104
1, 12496, Note_off_c, 0, 55, 36
1, 12499, Control_c, 0, 64, 78
1, 12514, Control_c, 0, 64, 55
1, 12529, Control_c, 0, 64, 47
1, 12545, Control_c, 0, 64, 60
1, 12559, Note_off_c, 0, 36, 62
1, 12560, Control_c, 0, 64, 76
1, 12583, Control_c, 0, 64, 127
1, 12592, Note_on_c, 0, 56, 74
1, 12601, Note_off_c, 0, 50, 66
1, 12631, Note_on_c, 0, 48, 62
1, 12631, Poly_aftertouch_c, 0, 41, 0
1, 12632, Note_on_c, 0, 62, 61
1, 12648, Note_off_c, 0, 56, 64
1, 12665, Note_off_c, 0, 48, 64
1, 12668, Poly_aftertouch_c, 0, 41, 0
1, 12684, Note_off_c, 0, 62, 64
1, 12724, Note_on_c, 0, 48, 73
1, 12726, Poly_aftertouch_c, 0, 62, 0
1, 12735, Note_on_c, 0, 62, 62
1, 12786, Note_off_c, 0, 62, 64
1, 12792, Note_on_c, 0, 53, 58
1, 12794, Note_off_c, 0, 48, 62
1, 12795, Note_on_c, 0, 68, 73
1, 12821, Note_off_c, 0, 53, 64
1, 12850, Note_on_c, 0, 60, 62
1, 12854, Note_off_c, 0, 68, 66
1, 12858, Note_on_c, 0, 74, 69
1, 12888, Note_off_c, 0, 60, 62
1, 12901, Note_off_c, 0, 74, 59
1, 12950, Note_on_c, 0, 74, 67
1, 12956, Note_on_c, 0, 60, 66
1, 13006, Note_on_c, 0, 80, 78
1, 13010, Note_off_c, 0, 74, 64
1, 13019, Note_on_c, 0, 65, 63
1, 13046, Note_off_c, 0, 65, 66
1, 13064, Note_on_c, 0, 86, 89
1, 13066, Note_on_c, 0, 72, 82
1, 13069, Note_off_c, 0, 80, 65
1, 13100, Poly_aftertouch_c, 0, 64, 127
1, 13102, Note_off_c, 0, 60, 58
1, 13122, Poly_aftertouch_c, 0, 64, 0
1, 13125, Note_off_c, 0, 72, 62
1, 13129, Note_on_c, 0, 80, 87
1, 13139, Note_on_c, 0, 65, 62
1, 13140, Note_off_c, 0, 86, 64
1, 13187, Note_off_c, 0, 80, 63
1, 13197, Note_off_c, 0, 65, 64
1, 13202, Note_on_c, 0, 60, 65
1, 13203, Note_on_c, 0, 74, 67
1, 13230, Note_off_c, 0, 60, 64
1, 13233, Note_off_c, 0, 74, 68
1, 13270, Note_on_c, 0, 60, 82
1, 13272, Note_on_c, 0, 74, 88
1, 13335, Note_off_c, 0, 60, 60
1, 13343, Note_on_c, 0, 53, 77
1, 13344, Note_on_c, 0, 68, 89
1, 13358, Note_off_c, 0, 74, 66
1, 13396, Note_off_c, 0, 68, 67
1, 13409, Note_off_c, 0, 53, 61
1, 13421, Note_on_c, 0, 48, 58
1, 13421, Note_on_c, 0, 62, 66
1, 13443, Note_off_c, 0, 48, 0
1, 13456, Note_off_c, 0, 62, 67
1, 13461, Note_on_c, 0, 48, 55
1, 13493, Note_on_c, 0, 62, 78
1, 13535, Note_on_c, 0, 41, 72
1, 13546, Note_on_c, 0, 56, 84
1, 13563, Note_off_c, 0, 48, 62
1, 13614, Note_off_c, 0, 62, 46
1, 13617, Note_off_c, 0, 41, 62
1, 13618, Note_off_c, 0, 56, 63
1, 13622, Note_on_c, 0, 36, 90
1, 13630, Note_on_c, 0, 53, 97
1, 13656, Control_c, 0, 64, 73
1, 13671, Control_c, 0, 64, 46
1, 13686, Control_c, 0, 64, 0
1, 13701, Control_c, 0, 64, 13
1, 13707, Note_on_c, 0, 44, 78
1, 13713, Note_off_c, 0, 36, 65
1, 13716, Control_c, 0, 64, 58
1, 13719, Note_on_c, 0, 60, 70
1, 13731, Control_c, 0, 64, 75
1, 13737, Note_off_c, 0, 53, 63
1, 13745, Control_c, 0, 64, 97
1, 13745, Note_off_c, 0, 44, 63
1, 13760, Control_c, 0, 64, 127
1, 13772, Note_on_c, 0, 48, 65
1, 13794, Note_off_c, 0, 60, 63
1, 13797, Note_on_c, 0, 65, 75
1, 13812, Note_off_c, 0, 48, 66
1, 13833, Note_off_c, 0, 65, 56
1, 13859, Note_on_c, 0, 48, 68
1, 13883, Note_on_c, 0, 65, 83
1, 13928, Note_off_c, 0, 48, 64
1, 13933, Note_on_c, 0, 56, 69
1, 13936, Note_off_c, 0, 65, 61
1, 13947, Note_on_c, 0, 72, 80
1, 13961, Note_off_c, 0, 56, 65
1, 13982, Note_on_c, 0, 60, 68
1, 14008, Note_off_c, 0, 72, 64
1, 14014, Note_on_c, 0, 77, 65
1, 14022, Note_off_c, 0, 60, 63
1, 14043, Note_off_c, 0, 77, 68
1, 14075, Note_on_c, 0, 60, 64
1, 14092, Note_on_c, 0, 77, 84
1, 14144, Note_on_c, 0, 68, 81
1, 14148, Note_on_c, 0, 84, 82
1, 14160, Note_off_c, 0, 77, 63
1, 14202, Note_off_c, 0, 68, 65
1, 14208, Note_on_c, 0, 72, 90
1, 14208, Note_on_c, 0, 89, 102
1, 14219, Note_off_c, 0, 84, 65
1, 14249, Note_off_c, 0, 60, 61
1, 14272, Note_on_c, 0, 84, 88
1, 14282, Note_on_c, 0, 68, 77
1, 14282, Note_off_c, 0, 72, 62
1, 14291, Note_off_c, 0, 89, 64
1, 14331, Note_off_c, 0, 68, 66
1, 14334, Note_on_c, 0, 60, 74
1, 14336, Note_off_c, 0, 84, 67
1, 14351, Note_on_c, 0, 77, 70
1, 14365, Note_off_c, 0, 60, 63
1, 14383, Note_off_c, 0, 77, 67
1, 14409, Note_on_c, 0, 60, 83
1, 14422, Note_on_c, 0, 77, 81
1, 14481, Note_off_c, 0, 60, 61
1, 14486, Note_on_c, 0, 72, 92
1, 14488, Note_on_c, 0, 56, 72
1, 14500, Note_off_c, 0, 77, 65
1, 14518, Note_off_c, 0, 56, 63
1, 14531, Note_on_c, 0, 48, 72
1, 14544, Note_off_c, 0, 72, 65
1, 14556, Note_on_c, 0, 65, 76
1, 14561, Note_off_c, 0, 48, 64
1, 14603, Note_off_c, 0, 65, 64
1, 14615, Note_on_c, 0, 48, 74
1, 14631, Note_on_c, 0, 65, 61
1, 14676, Note_on_c, 0, 44, 71
1, 14692, Note_on_c, 0, 60, 70
1, 14693, Note_off_c, 0, 65, 62
1, 14708, Note_on_c, 0, 62, 54
1, 14714, Note_off_c, 0, 48, 57
1, 14734, Note_off_c, 0, 62, 60
1, 14740, Note_off_c, 0, 44, 63
1, 14747, Note_off_c, 0, 60, 64
1, 14753, Poly_aftertouch_c, 0, 47, 0
1, 14762, Note_on_c, 0, 36, 84
1, 14767, Note_on_c, 0, 52, 91
1, 14790, Control_c, 0, 64, 71
1, 14805, Control_c, 0, 64, 45
1, 14828, Control_c, 0, 64, 10
1, 14842, Control_c, 0, 64, 44
1, 14845, Note_on_c, 0, 60, 62
1, 14846, Note_on_c, 0, 43, 68
1, 14848, Note_on_c, 0, 39, 8
1, 14857, Control_c, 0, 64, 67
1, 14860, Note_off_c, 0, 36, 64
1, 14872, Control_c, 0, 64, 89
1, 14875, Note_off_c, 0, 43, 63
1, 14879, Note_off_c, 0, 52, 63
1, 14887, Control_c, 0, 64, 127
1, 14888, Note_on_c, 0, 48, 75
1, 14899, Note_off_c, 0, 39, 37
1, 14917, Note_on_c, 0, 64, 58
1, 14943, Note_off_c, 0, 48, 64
1, 14943, Note_off_c, 0, 60, 63
1, 14965, Note_off_c, 0, 64, 64
1, 15014, Note_on_c, 0, 48, 45
1, 15016, Note_on_c, 0, 64, 62
1, 15024, Note_on_c, 0, 50, 52
1, 15071, Note_off_c, 0, 48, 61
1, 15073, Note_off_c, 0, 64, 62
1, 15074, Note_off_c, 0, 50, 61
1, 15084, Note_on_c, 0, 72, 77
1, 15105, Note_on_c, 0, 55, 7
1, 15117, Note_on_c, 0, 60, 72
1, 15128, Note_off_c, 0, 55, 0
1, 15152, Note_off_c, 0, 72, 62
1, 15160, Note_off_c, 0, 60, 62
1, 15162, Poly_aftertouch_c, 0, 55, 0
1, 15164, Note_on_c, 0, 76, 60
1, 15185, Note_off_c, 0, 76, 59
1, 15207, Note_on_c, 0, 60, 67
1, 15217, Note_on_c, 0, 76, 81
1, 15284, Note_on_c, 0, 84, 84
1, 15284, Note_on_c, 0, 67, 72
1, 15321, Note_off_c, 0, 67, 61
1, 15337, Note_on_c, 0, 72, 83
1, 15348, Note_on_c, 0, 88, 99
1, 15361, Note_off_c, 0, 84, 68
1, 15395, Note_off_c, 0, 60, 62
1, 15395, Note_off_c, 0, 76, 54
1, 15414, Note_on_c, 0, 84, 89
1, 15414, Note_off_c, 0, 72, 63
1, 15420, Note_on_c, 0, 67, 78
1, 15442, Note_off_c, 0, 88, 67
1, 15475, Note_off_c, 0, 84, 66
1, 15476, Note_off_c, 0, 67, 63
1, 15480, Note_on_c, 0, 60, 65
1, 15485, Note_on_c, 0, 76, 79
1, 15510, Note_off_c, 0, 60, 63
1, 15536, Note_off_c, 0, 76, 65
1, 15575, Note_on_c, 0, 76, 78
1, 15576, Poly_aftertouch_c, 0, 60, 127
1, 15620, Poly_aftertouch_c, 0, 60, 0
1, 15635, Note_on_c, 0, 55, 74
1, 15636, Note_on_c, 0, 72, 81
1, 15668, Note_off_c, 0, 76, 63
1, 15674, Note_on_c, 0, 71, 37
1, 15675, Note_off_c, 0, 71, 127
1, 15689, Note_off_c, 0, 55, 63
1, 15695, Note_on_c, 0, 48, 65
1, 15696, Note_off_c, 0, 72, 65
1, 15716, Note_on_c, 0, 64, 76
1, 15718, Note_off_c, 0, 48, 62
1, 15744, Note_off_c, 0, 64, 69
1, 15757, Note_on_c, 0, 48, 78
1, 15799, Note_on_c, 0, 64, 75
1, 15811, Note_on_c, 0, 43, 77
1, 15818, Note_on_c, 0, 45, 66
1, 15823, Note_off_c, 0, 48, 62
1, 15838, Note_off_c, 0, 64, 64
1, 15841, Note_off_c, 0, 45, 60
1, 15851, Note_on_c, 0, 60, 72
1, 15879, Note_off_c, 0, 60, 65
1, 15910, Note_on_c, 0, 41, 94
1, 15914, Note_off_c, 0, 43, 63
1, 15959, Note_on_c, 0, 56, 104
1, 16022, Control_c, 0, 64, 76
1, 16037, Control_c, 0, 64, 49
1, 16052, Control_c, 0, 64, 0
1, 16067, Control_c, 0, 64, 29
1, 16082, Control_c, 0, 64, 61
1, 16093, Note_on_c, 0, 49, 72
1, 16096, Control_c, 0, 64, 83
1, 16102, Note_off_c, 0, 41, 62
1, 16108, Note_on_c, 0, 61, 73
1, 16111, Control_c, 0, 64, 127
1, 16127, Note_off_c, 0, 56, 62
1, 16136, Note_off_c, 0, 49, 63
1, 16157, Note_on_c, 0, 53, 62
1, 16157, Note_on_c, 0, 68, 65
1, 16171, Note_off_c, 0, 61, 64
1, 16211, Note_off_c, 0, 53, 62
1, 16216, Note_off_c, 0, 68, 65
1, 16253, Note_on_c, 0, 53, 60
1, 16275, Note_on_c, 0, 68, 69
1, 16328, Note_on_c, 0, 61, 74
1, 16328, Note_off_c, 0, 53, 63
1, 16343, Note_off_c, 0, 68, 63
1, 16345, Note_on_c, 0, 73, 73
1, 16365, Note_off_c, 0, 61, 64
1, 16387, Note_on_c, 0, 65, 70
1, 16403, Note_on_c, 0, 80, 64
1, 16403, Note_off_c, 0, 73, 65
1, 16434, Note_off_c, 0, 80, 64
1, 16437, Note_off_c, 0, 65, 65
1, 16489, Note_on_c, 0, 65, 54
1, 16496, Note_on_c, 0, 80, 80
1, 16558, Note_on_c, 0, 73, 77
1, 16559, Note_on_c, 0, 85, 80
1, 16568, Note_off_c, 0, 80, 59
1, 16608, Note_off_c, 0, 73, 65
1, 16613, Note_on_c, 0, 92, 97
1, 16622, Note_on_c, 0, 77, 87
1, 16633, Note_off_c, 0, 85, 63
1, 16675, Note_off_c, 0, 65, 63
1, 16686, Note_on_c, 0, 85, 86
1, 16690, Note_on_c, 0, 73, 78
1, 16693, Note_off_c, 0, 77, 66
1, 16717, Note_off_c, 0, 92, 66
1, 16731, Note_off_c, 0, 73, 63
1, 16749, Note_off_c, 0, 85, 64
1, 16770, Note_on_c, 0, 80, 41
1, 16772, Note_on_c, 0, 65, 29
1, 16799, Note_off_c, 0, 80, 54
1, 16810, Note_off_c, 0, 65, 0
1, 16810, Note_on_c, 0, 65, 42
1, 16826, Note_on_c, 0, 80, 71
1, 16891, Note_on_c, 0, 73, 87
1, 16892, Note_off_c, 0, 65, 62
1, 16911, Note_off_c, 0, 80, 63
1, 16926, Note_on_c, 0, 75, 26
1, 16928, Note_on_c, 0, 61, 21
1, 16940, Note_on_c, 0, 53, 73
1, 16948, Note_off_c, 0, 73, 66
1, 16962, Note_off_c, 0, 61, 48
1, 16963, Note_off_c, 0, 75, 42
1, 16974, Note_off_c, 0, 53, 65
1, 17020, Note_on_c, 0, 53, 71
1, 17030, Poly_aftertouch_c, 0, 68, 127
1, 17032, Note_on_c, 0, 68, 3
1, 17084, Note_on_c, 0, 49, 80
1, 17100, Note_on_c, 0, 61, 64
1, 17102, Note_off_c, 0, 53, 56
1, 17115, Note_off_c, 0, 68, 58
1, 17159, Note_off_c, 0, 49, 65
1, 17166, Note_off_c, 0, 61, 65
1, 17176, Note_on_c, 0, 43, 90
1, 17183, Note_on_c, 0, 55, 100
1, 17222, Control_c, 0, 64, 72
1, 17237, Control_c, 0, 64, 36
1, 17251, Control_c, 0, 64, 30
1, 17261, Note_on_c, 0, 59, 78
1, 17263, Note_on_c, 0, 50, 82
1, 17266, Control_c, 0, 64, 55
1, 17279, Note_off_c, 0, 43, 63
1, 17281, Control_c, 0, 64, 73
1, 17285, Note_off_c, 0, 55, 64
1, 17296, Control_c, 0, 64, 107
1, 17296, Note_off_c, 0, 50, 65
1, 17311, Control_c, 0, 64, 127
1, 17314, Note_on_c, 0, 53, 81
1, 17327, Note_off_c, 0, 59, 66
1, 17337, Note_on_c, 0, 67, 72
1, 17367, Note_off_c, 0, 53, 63
1, 17374, Note_off_c, 0, 67, 62
1, 17422, Note_on_c, 0, 55, 73
1, 17425, Note_on_c, 0, 67, 89
1, 17475, Note_on_c, 0, 62, 83
1, 17489, Note_on_c, 0, 71, 81
1, 17490, Note_off_c, 0, 67, 62
1, 17509, Note_off_c, 0, 55, 62
1, 17509, Note_off_c, 0, 62, 66
1, 17537, Note_off_c, 0, 71, 62
1, 17543, Note_on_c, 0, 65, 72
1, 17551, Note_on_c, 0, 79, 69
1, 17572, Note_off_c, 0, 65, 68
1, 17578, Note_off_c, 0, 79, 65
1, 17628, Note_on_c, 0, 79, 87
1, 17632, Note_on_c, 0, 67, 81
1, 17691, Note_on_c, 0, 83, 92
1, 17698, Note_on_c, 0, 74, 84
1, 17704, Note_off_c, 0, 79, 66
1, 17759, Note_on_c, 0, 91, 104
1, 17764, Note_on_c, 0, 77, 95
1, 17764, Note_off_c, 0, 74, 58
1, 17785, Note_off_c, 0, 83, 64
1, 17834, Note_on_c, 0, 83, 81
1, 17841, Note_off_c, 0, 67, 64
1, 17850, Note_off_c, 0, 77, 65
1, 17857, Note_off_c, 0, 91, 65
1, 17863, Note_on_c, 0, 74, 72
1, 17874, Note_on_c, 0, 85, 25
1, 17895, Note_off_c, 0, 74, 63
1, 17899, Note_off_c, 0, 83, 67
1, 17909, Note_on_c, 0, 67, 63
1, 17911, Note_off_c, 0, 85, 44
1, 17918, Note_on_c, 0, 79, 62
1, 17935, Note_off_c, 0, 67, 67
1, 17943, Note_off_c, 0, 79, 67
1, 17972, Note_on_c, 0, 65, 82
1, 17994, Note_on_c, 0, 79, 85
1, 18061, Note_on_c, 0, 71, 82
1, 18064, Note_on_c, 0, 62, 72
1, 18068, Note_off_c, 0, 65, 63
1, 18068, Note_off_c, 0, 79, 64
1, 18080, Note_on_c, 0, 73, 50
1, 18104, Note_off_c, 0, 73, 59
1, 18115, Note_off_c, 0, 62, 63
1, 18118, Note_off_c, 0, 71, 64
1, 18130, Note_on_c, 0, 55, 59
1, 18135, Note_on_c, 0, 53, 56
1, 18151, Note_on_c, 0, 67, 57
1, 18161, Note_off_c, 0, 55, 63
1, 18163, Note_off_c, 0, 53, 54
1, 18175, Note_off_c, 0, 67, 64
1, 18220, Note_on_c, 0, 67, 88
1, 18225, Note_on_c, 0, 50, 68
1, 18244, Note_on_c, 0, 52, 36
1, 18278, Note_off_c, 0, 52, 50
1, 18283, Note_on_c, 0, 59, 71
1, 18285, Note_off_c, 0, 67, 63
1, 18294, Note_on_c, 0, 43, 80
1, 18320, Note_off_c, 0, 50, 64
1, 18322, Note_off_c, 0, 59, 64
1, 18428, Note_on_c, 0, 52, 104
1, 18433, Note_on_c, 0, 36, 94
1, 18466, Note_off_c, 0, 43, 64
1, 18467, Note_on_c, 0, 58, 41
1, 18468, Note_off_c, 0, 58, 127
1, 18475, Control_c, 0, 64, 96
1, 18489, Control_c, 0, 64, 61
1, 18495, Poly_aftertouch_c, 0, 58, 0
1, 18504, Control_c, 0, 64, 0
1, 18518, Poly_aftertouch_c, 0, 63, 0
1, 18533, Control_c, 0, 64, 32
1, 18548, Control_c, 0, 64, 65
1, 18571, Control_c, 0, 64, 91
1, 18580, Note_on_c, 0, 55, 77
1, 18586, Control_c, 0, 64, 127
1, 18592, Note_on_c, 0, 43, 66
1, 18598, Note_off_c, 0, 52, 54
1, 18616, Note_off_c, 0, 36, 64
1, 18622, Note_off_c, 0, 43, 65
1, 18646, Note_off_c, 0, 55, 64
1, 18661, Note_on_c, 0, 48, 66
1, 18670, Note_on_c, 0, 64, 64
1, 18700, Note_off_c, 0, 48, 64
1, 18706, Note_off_c, 0, 64, 65
1, 18756, Note_on_c, 0, 48, 69
1, 18759, Note_on_c, 0, 64, 76
1, 18817, Note_on_c, 0, 55, 67
1, 18818, Note_off_c, 0, 48, 63
1, 18831, Note_on_c, 0, 67, 83
1, 18834, Note_off_c, 0, 64, 65
1, 18844, Note_off_c, 0, 55, 66
1, 18875, Note_on_c, 0, 60, 69
1, 18889, Note_off_c, 0, 67, 65
1, 18896, Note_on_c, 0, 76, 76
1, 18914, Note_off_c, 0, 60, 64
1, 18929, Note_off_c, 0, 76, 65
1, 18960, Note_on_c, 0, 60, 72
1, 18985, Note_on_c, 0, 76, 81
1, 19031, Note_on_c, 0, 67, 78
1, 19043, Note_on_c, 0, 79, 92
1, 19046, Note_off_c, 0, 60, 62
1, 19054, Note_off_c, 0, 76, 64
1, 19057, Note_off_c, 0, 67, 69
1, 19097, Note_on_c, 0, 72, 74
1, 19098, Note_off_c, 0, 79, 67
1, 19114, Note_on_c, 0, 88, 70
1, 19125, Note_off_c, 0, 72, 67
1, 19131, Note_off_c, 0, 88, 70
1, 19183, Note_on_c, 0, 72, 84
1, 19183, Note_on_c, 0, 88, 90
1, 19237, Note_on_c, 0, 91, 98
1, 19241, Note_off_c, 0, 88, 69
1, 19257, Note_on_c, 0, 79, 80
1, 19286, Note_off_c, 0, 79, 62
1, 19313, Note_on_c, 0, 100, 110
1, 19323, Note_on_c, 0, 84, 82
1, 19332, Note_off_c, 0, 91, 65
1, 19376, Note_off_c, 0, 84, 67
1, 19379, Note_off_c, 0, 72, 60
1, 19385, Note_on_c, 0, 91, 89
1, 19397, Note_on_c, 0, 79, 72
1, 19402, Note_off_c, 0, 100, 67
1, 19422, Note_off_c, 0, 79, 67
1, 19431, Note_off_c, 0, 91, 65
1, 19433, Note_on_c, 0, 72, 52
1, 19451, Note_on_c, 0, 88, 68
1, 19460, Note_off_c, 0, 72, 66
1, 19473, Note_off_c, 0, 88, 71
1, 19508, Note_on_c, 0, 72, 84
1, 19522, Note_on_c, 0, 88, 85
1, 19589, Note_on_c, 0, 67, 74
1, 19589, Note_on_c, 0, 79, 82
1, 19591, Note_off_c, 0, 72, 63
1, 19597, Note_off_c, 0, 88, 66
1, 19621, Note_on_c, 0, 82, 26
1, 19639, Note_off_c, 0, 67, 62
1, 19642, Note_off_c, 0, 79, 66
1, 19659, Note_off_c, 0, 82, 43
1, 19662, Note_on_c, 0, 60, 58
1, 19678, Note_on_c, 0, 76, 40
1, 19689, Note_off_c, 0, 60, 64
1, 19707, Note_off_c, 0, 76, 48
1, 19734, Note_on_c, 0, 76, 75
1, 19735, Note_on_c, 0, 60, 69
1, 19803, Note_on_c, 0, 67, 80
1, 19806, Note_on_c, 0, 55, 70
1, 19808, Note_off_c, 0, 60, 63
1, 19819, Note_off_c, 0, 76, 62
1, 19851, Note_off_c, 0, 55, 62
1, 19863, Note_on_c, 0, 48, 72
1, 19869, Note_off_c, 0, 67, 64
1, 19877, Note_on_c, 0, 64, 67
1, 19901, Note_off_c, 0, 64, 68
1, 19921, Note_off_c, 0, 48, 63
1, 19973, Note_on_c, 0, 64, 78
1, 19984, Note_on_c, 0, 48, 61
1, 20047, Note_on_c, 0, 55, 75
1, 20074, Note_on_c, 0, 43, 59
1, 20076, Note_off_c, 0, 48, 59
1, 20110, Note_off_c, 0, 55, 65
1, 20123, Note_off_c, 0, 43, 59
1, 20131, Note_on_c, 0, 36, 72
1, 20145, Note_on_c, 0, 52, 99
1, 20170, Note_on_c, 0, 62, 51
1, 20203, Note_off_c, 0, 62, 33
1, 20228, Note_on_c, 0, 43, 61
1, 20234, Note_on_c, 0, 55, 53
1, 20252, Note_off_c, 0, 52, 63
1, 20312, Note_off_c, 0, 55, 64
1, 20343, Note_on_c, 0, 50, 105
1, 20343, Note_off_c, 0, 43, 63
1, 20344, Note_off_c, 0, 64, 59
1, 20361, Note_on_c, 0, 47, 73
1, 20365, Control_c, 0, 64, 90
1, 20372, Note_on_c, 0, 62, 30
1, 20380, Control_c, 0, 64, 57
1, 20394, Control_c, 0, 64, 15
1, 20403, Note_off_c, 0, 62, 55
1, 20409, Control_c, 0, 64, 35
1, 20423, Note_off_c, 0, 36, 56
1, 20424, Control_c, 0, 64, 61
1, 20433, Note_on_c, 0, 55, 69
1, 20439, Control_c, 0, 64, 76
1, 20440, Note_off_c, 0, 47, 62
1, 20452, Note_on_c, 0, 43, 65
1, 20454, Control_c, 0, 64, 127
1, 20506, Note_on_c, 0, 62, 72
1, 20511, Note_off_c, 0, 55, 63
1, 20516, Note_off_c, 0, 43, 62
1, 20526, Note_on_c, 0, 36, 62
1, 20531, Note_off_c, 0, 50, 61
1, 20592, Note_on_c, 0, 55, 73
1, 20608, Note_off_c, 0, 62, 61
1, 20615, Note_on_c, 0, 43, 63
1, 20675, Note_on_c, 0, 53, 98
1, 20691, Note_off_c, 0, 43, 62
1, 20691, Note_off_c, 0, 55, 0
1, 20691, Control_c, 0, 64, 101
1, 20692, Note_on_c, 0, 50, 80
1, 20706, Control_c, 0, 64, 72
1, 20721, Control_c, 0, 64, 68
1, 20727, Note_on_c, 0, 62, 40
1, 20730, Poly_aftertouch_c, 0, 55, 0
1, 20736, Control_c, 0, 64, 80
1, 20751, Note_off_c, 0, 62, 62
1, 20751, Control_c, 0, 64, 127
1, 20766, Poly_aftertouch_c, 0, 55, 127
1, 20783, Note_off_c, 0, 50, 62
1, 20797, Note_on_c, 0, 43, 73
1, 20797, Poly_aftertouch_c, 0, 55, 0
1, 20815, Note_off_c, 0, 36, 57
1, 20865, Note_on_c, 0, 67, 73
1, 20887, Note_off_c, 0, 67, 68
1, 20891, Note_off_c, 0, 43, 61
1, 20908, Note_on_c, 0, 36, 58
1, 20967, Note_on_c, 0, 55, 63
1, 20978, Note_on_c, 0, 43, 75
1, 20998, Note_off_c, 0, 53, 60
1, 21007, Note_off_c, 0, 36, 60
1, 21024, Poly_aftertouch_c, 0, 67, 0
1, 21081, Note_off_c, 0, 55, 49
1, 21097, Note_on_c, 0, 36, 93
1, 21117, Note_on_c, 0, 52, 104
1, 21131, Note_off_c, 0, 43, 63
1, 21158, Control_c, 0, 64, 92
1, 21173, Control_c, 0, 64, 63
1, 21188, Control_c, 0, 64, 35
1, 21203, Control_c, 0, 64, 31
1, 21217, Control_c, 0, 64, 58
1, 21232, Control_c, 0, 64, 84
1, 21247, Control_c, 0, 64, 127
1, 21268, Note_off_c, 0, 52, 57
1, 21285, Note_on_c, 0, 43, 61
1, 21296, Note_on_c, 0, 55, 73
1, 21308, Note_off_c, 0, 36, 61
1, 21347, Note_off_c, 0, 43, 58
1, 21361, Note_off_c, 0, 55, 62
1, 21373, Note_on_c, 0, 48, 69
1, 21380, Note_on_c, 0, 64, 60
1, 21418, Note_off_c, 0, 64, 60
1, 21422, Note_off_c, 0, 48, 63
1, 21461, Poly_aftertouch_c, 0, 48, 0
1, 21469, Note_on_c, 0, 48, 59
1, 21482, Note_on_c, 0, 64, 78
1, 21546, Note_on_c, 0, 55, 60
1, 21552, Note_off_c, 0, 48, 61
1, 21552, Note_off_c, 0, 64, 61
1, 21552, Note_on_c, 0, 67, 78
1, 21582, Note_off_c, 0, 55, 66
1, 21609, Note_on_c, 0, 60, 68
1, 21620, Note_off_c, 0, 67, 64
1, 21627, Note_on_c, 0, 76, 69
1, 21652, Note_off_c, 0, 60, 62
1, 21658, Note_off_c, 0, 76, 63
1, 21700, Note_on_c, 0, 60, 67
1, 21710, Note_on_c, 0, 76, 88
1, 21770, Note_on_c, 0, 67, 74
1, 21779, Note_on_c, 0, 79, 85
1, 21787, Note_off_c, 0, 60, 59
1, 21787, Note_off_c, 0, 76, 65
1, 21800, Note_off_c, 0, 67, 65
1, 21829, Note_on_c, 0, 72, 75
1, 21834, Note_off_c, 0, 79, 67
1, 21844, Note_on_c, 0, 88, 65
1, 21871, Note_off_c, 0, 72, 64
1, 21873, Note_off_c, 0, 88, 68
1, 21917, Note_on_c, 0, 88, 94
1, 21919, Note_on_c, 0, 72, 68
1, 21967, Note_on_c, 0, 74, 14
1, 21968, Note_off_c, 0, 74, 127
1, 21980, Note_on_c, 0, 91, 92
1, 21997, Note_on_c, 0, 79, 80
1, 21998, Note_off_c, 0, 88, 66
1, 22040, Note_off_c, 0, 79, 66
1, 22041, Note_on_c, 0, 100, 100
1, 22058, Note_off_c, 0, 91, 65
1, 22059, Note_on_c, 0, 84, 81
1, 22101, Note_off_c, 0, 72, 62
1, 22117, Note_on_c, 0, 91, 93
1, 22117, Note_off_c, 0, 84, 67
1, 22133, Note_on_c, 0, 79, 80
1, 22134, Note_off_c, 0, 100, 67
1, 22157, Note_on_c, 0, 94, 28
1, 22158, Note_off_c, 0, 94, 127
1, 22160, Note_off_c, 0, 79, 67
1, 22169, Note_off_c, 0, 91, 66
1, 22175, Note_on_c, 0, 72, 61
1, 22197, Note_on_c, 0, 88, 57
1, 22202, Note_off_c, 0, 72, 65
1, 22217, Note_off_c, 0, 88, 68
1, 22254, Note_on_c, 0, 72, 84
1, 22258, Note_on_c, 0, 88, 84
1, 22327, Note_off_c, 0, 72, 64
1, 22330, Note_on_c, 0, 79, 84
1, 22333, Note_on_c, 0, 67, 75
1, 22348, Note_off_c, 0, 88, 66
1, 22378, Note_off_c, 0, 67, 60
1, 22385, Note_off_c, 0, 79, 66
1, 22396, Note_on_c, 0, 60, 63
1, 22410, Note_on_c, 0, 76, 64
1, 22422, Note_off_c, 0, 60, 65
1, 22434, Note_off_c, 0, 76, 67
1, 22471, Note_on_c, 0, 76, 88
1, 22477, Note_on_c, 0, 60, 75
1, 22533, Note_on_c, 0, 67, 88
1, 22534, Note_off_c, 0, 60, 63
1, 22541, Note_on_c, 0, 55, 66
1, 22552, Note_off_c, 0, 76, 61
1, 22588, Note_on_c, 0, 48, 76
1, 22593, Note_off_c, 0, 67, 65
1, 22597, Note_off_c, 0, 55, 62
1, 22606, Note_on_c, 0, 64, 70
1, 22632, Note_off_c, 0, 64, 68
1, 22635, Poly_aftertouch_c, 0, 70, 0
1, 22639, Note_off_c, 0, 48, 63
1, 22685, Note_on_c, 0, 64, 84
1, 22706, Note_on_c, 0, 48, 61
1, 22730, Control_c, 0, 64, 99
1, 22745, Control_c, 0, 64, 73
1, 22760, Control_c, 0, 64, 66
1, 22764, Note_on_c, 0, 55, 76
1, 22775, Control_c, 0, 64, 73
1, 22778, Note_on_c, 0, 43, 63
1, 22787, Note_off_c, 0, 48, 61
1, 22789, Control_c, 0, 64, 95
1, 22804, Control_c, 0, 64, 127
1, 22823, Note_off_c, 0, 43, 62
1, 22831, Note_off_c, 0, 55, 60
1, 22840, Note_on_c, 0, 36, 67
1, 22849, Note_on_c, 0, 52, 96
1, 22918, Note_off_c, 0, 52, 61
1, 22930, Note_on_c, 0, 43, 58
1, 22955, Note_on_c, 0, 55, 63
1, 22983, Note_off_c, 0, 55, 66
1, 23014, Note_off_c, 0, 43, 63
1, 23028, Control_c, 0, 64, 105
1, 23029, Note_on_c, 0, 50, 100
1, 23043, Control_c, 0, 64, 68
1, 23046, Note_on_c, 0, 47, 61
1, 23059, Note_on_c, 0, 52, 62
1, 23065, Control_c, 0, 64, 49
1, 23080, Control_c, 0, 64, 49
1, 23092, Note_off_c, 0, 52, 35
1, 23094, Control_c, 0, 64, 64
1, 23105, Note_on_c, 0, 55, 54
1, 23109, Control_c, 0, 64, 80
1, 23115, Note_off_c, 0, 36, 63
1, 23117, Note_off_c, 0, 64, 62
1, 23124, Control_c, 0, 64, 127
1, 23128, Note_on_c, 0, 43, 66
1, 23143, Note_off_c, 0, 47, 50
1, 23174, Note_off_c, 0, 55, 64
1, 23198, Note_off_c, 0, 43, 63
1, 23202, Note_on_c, 0, 36, 68
1, 23210, Note_on_c, 0, 62, 81
1, 23271, Note_off_c, 0, 50, 64
1, 23275, Note_on_c, 0, 55, 74
1, 23290, Note_on_c, 0, 43, 64
1, 23332, Note_off_c, 0, 55, 63
1, 23355, Note_off_c, 0, 43, 62
1, 23357, Note_on_c, 0, 48, 104
1, 23376, Control_c, 0, 64, 83
1, 23380, Note_on_c, 0, 45, 70
1, 23391, Control_c, 0, 64, 61
1, 23406, Control_c, 0, 64, 52
1, 23410, Note_on_c, 0, 60, 8
1, 23411, Note_off_c, 0, 60, 127
1, 23420, Control_c, 0, 64, 63
1, 23427, Note_off_c, 0, 45, 58
1, 23435, Control_c, 0, 64, 83
1, 23436, Note_on_c, 0, 55, 65
1, 23445, Note_off_c, 0, 36, 63
1, 23445, Note_on_c, 0, 43, 72
1, 23450, Control_c, 0, 64, 127
1, 23454, Note_off_c, 0, 62, 62
1, 23517, Note_off_c, 0, 43, 61
1, 23521, Note_off_c, 0, 55, 63
1, 23541, Note_on_c, 0, 36, 64
1, 23541, Note_on_c, 0, 60, 77
1, 23603, Note_on_c, 0, 43, 78
1, 23604, Note_on_c, 0, 55, 71
1, 23614, Note_off_c, 0, 36, 61
1, 23636, Note_off_c, 0, 48, 57
1, 23646, Note_off_c, 0, 60, 58
1, 23717, Note_on_c, 0, 50, 100
1, 23723, Note_on_c, 0, 36, 96
1, 23761, Control_c, 0, 64, 106
1, 23761, Note_off_c, 0, 43, 63
1, 23776, Control_c, 0, 64, 64
1, 23791, Control_c, 0, 64, 27
1, 23796, Note_off_c, 0, 55, 55
1, 23813, Control_c, 0, 64, 0
1, 23842, Control_c, 0, 64, 40
1, 23857, Control_c, 0, 64, 66
1, 23872, Control_c, 0, 64, 87
1, 23887, Control_c, 0, 64, 127
1, 23891, Note_on_c, 0, 43, 72
1, 23901, Note_on_c, 0, 55, 75
1, 23904, Note_off_c, 0, 36, 62
1, 23934, Note_off_c, 0, 50, 34
1, 23936, Note_off_c, 0, 43, 63
1, 23963, Note_on_c, 0, 47, 65
1, 23969, Note_off_c, 0, 55, 62
1, 23979, Note_on_c, 0, 62, 67
1, 23995, Note_off_c, 0, 47, 67
1, 24021, Note_off_c, 0, 62, 59
1, 24059, Note_on_c, 0, 48, 73
1, 24075, Note_on_c, 0, 62, 83
1, 24125, Note_on_c, 0, 55, 69
1, 24145, Note_on_c, 0, 67, 78
1, 24149, Note_off_c, 0, 48, 62
1, 24150, Note_off_c, 0, 62, 64
1, 24161, Note_off_c, 0, 55, 65
1, 24188, Note_on_c, 0, 59, 75
1, 24202, Note_on_c, 0, 74, 68
1, 24209, Note_off_c, 0, 67, 64
1, 24226, Note_off_c, 0, 59, 67
1, 24236, Note_off_c, 0, 74, 63
1, 24278, Note_on_c, 0, 60, 79
1, 24289, Note_on_c, 0, 74, 84
1, 24343, Note_on_c, 0, 67, 83
1, 24348, Note_on_c, 0, 79, 84
1, 24360, Note_off_c, 0, 74, 64
1, 24382, Note_off_c, 0, 60, 62
1, 24390, Note_off_c, 0, 67, 65
1, 24414, Note_on_c, 0, 86, 75
1, 24415, Note_off_c, 0, 79, 66
1, 24418, Note_on_c, 0, 71, 73
1, 24438, Note_off_c, 0, 86, 68
1, 24444, Note_off_c, 0, 71, 68
1, 24480, Note_on_c, 0, 86, 90
1, 24497, Note_on_c, 0, 72, 86
1, 24542, Note_on_c, 0, 91, 88
1, 24570, Note_on_c, 0, 79, 83
1, 24579, Note_off_c, 0, 86, 65
1, 24615, Note_off_c, 0, 79, 65
1, 24620, Note_on_c, 0, 98, 100
1, 24629, Note_on_c, 0, 83, 82
1, 24634, Note_off_c, 0, 91, 66
1, 24665, Note_off_c, 0, 83, 69
1, 24685, Note_on_c, 0, 91, 91
1, 24706, Note_on_c, 0, 79, 75
1, 24709, Note_off_c, 0, 72, 0
1, 24709, Note_off_c, 0, 98, 65
1, 24730, Note_off_c, 0, 79, 67
1, 24742, Note_off_c, 0, 91, 65
1, 24747, Poly_aftertouch_c, 0, 72, 127
1, 24763, Note_on_c, 0, 86, 64
1, 24774, Poly_aftertouch_c, 0, 72, 0
1, 24787, Note_off_c, 0, 86, 68
1, 24809, Note_on_c, 0, 71, 74
1, 24816, Note_on_c, 0, 72, 67
1, 24833, Note_on_c, 0, 86, 92
1, 24881, Note_off_c, 0, 72, 64
1, 24888, Note_on_c, 0, 79, 87
1, 24891, Note_on_c, 0, 67, 82
1, 24892, Note_off_c, 0, 71, 65
1, 24914, Note_off_c, 0, 86, 65
1, 24940, Note_off_c, 0, 67, 63
1, 24942, Note_on_c, 0, 60, 78
1, 24947, Note_off_c, 0, 79, 67
1, 24977, Note_off_c, 0, 60, 59
1, 25004, Note_on_c, 0, 72, 44
1, 25018, Note_on_c, 0, 74, 3
1, 25019, Note_on_c, 0, 59, 83
1, 25040, Note_off_c, 0, 72, 0
1, 25040, Note_on_c, 0, 72, 4
1, 25093, Note_on_c, 0, 67, 72
1, 25095, Note_on_c, 0, 55, 71
1, 25095, Note_off_c, 0, 59, 66
1, 25097, Note_off_c, 0, 74, 61
1, 25103, Note_on_c, 0, 65, 80
1, 25126, Note_off_c, 0, 72, 62
1, 25144, Note_off_c, 0, 67, 65
1, 25147, Note_off_c, 0, 55, 63
1, 25148, Note_on_c, 0, 48, 76
1, 25149, Note_off_c, 0, 65, 64
1, 25165, Note_on_c, 0, 62, 64
1, 25181, Note_off_c, 0, 48, 66
1, 25190, Note_off_c, 0, 62, 66
1, 25236, Note_on_c, 0, 62, 99
1, 25241, Note_on_c, 0, 47, 83
1, 25273, Control_c, 0, 64, 94
1, 25288, Control_c, 0, 64, 61
1, 25309, Control_c, 0, 64, 8
1, 25315, Note_on_c, 0, 55, 83
1, 25324, Control_c, 0, 64, 0
1, 25326, Note_on_c, 0, 43, 71
1, 25337, Note_off_c, 0, 47, 61
1, 25340, Control_c, 0, 64, 16
1, 25355, Control_c, 0, 64, 54
1, 25370, Control_c, 0, 64, 70
1, 25384, Note_off_c, 0, 55, 57
1, 25385, Control_c, 0, 64, 95
1, 25388, Note_on_c, 0, 36, 79
1, 25393, Note_off_c, 0, 43, 62
1, 25399, Note_on_c, 0, 50, 99
1, 25400, Control_c, 0, 64, 127
1, 25474, Note_on_c, 0, 55, 73
1, 25476, Note_off_c, 0, 50, 66
1, 25490, Note_on_c, 0, 43, 61
1, 25527, Note_off_c, 0, 55, 62
1, 25568, Note_on_c, 0, 48, 96
1, 25577, Note_off_c, 0, 43, 62
1, 25589, Note_on_c, 0, 60, 57
1, 25590, Note_on_c, 0, 45, 70
1, 25592, Control_c, 0, 64, 117
1, 25606, Control_c, 0, 64, 67
1, 25621, Control_c, 0, 64, 41
1, 25636, Control_c, 0, 64, 25
1, 25642, Note_off_c, 0, 62, 58
1, 25648, Note_off_c, 0, 36, 56
1, 25651, Control_c, 0, 64, 52
1, 25656, Note_on_c, 0, 53, 69
1, 25666, Control_c, 0, 64, 70
1, 25677, Note_on_c, 0, 41, 60
1, 25681, Control_c, 0, 64, 98
1, 25690, Note_off_c, 0, 60, 22
1, 25696, Control_c, 0, 64, 127
1, 25734, Note_off_c, 0, 53, 61
1, 25738, Note_off_c, 0, 45, 0
1, 25741, Note_on_c, 0, 60, 69
1, 25753, Note_off_c, 0, 41, 61
1, 25758, Note_on_c, 0, 36, 70
1, 25775, Poly_aftertouch_c, 0, 45, 127
1, 25811, Note_off_c, 0, 48, 56
1, 25821, Note_on_c, 0, 53, 73
1, 25822, Poly_aftertouch_c, 0, 45, 0
1, 25841, Note_on_c, 0, 41, 59
1, 25878, Note_off_c, 0, 53, 59
1, 25902, Note_on_c, 0, 48, 101
1, 25907, Note_off_c, 0, 41, 62
1, 25921, Note_on_c, 0, 45, 69
1, 25989, Note_off_c, 0, 36, 63
1, 25997, Note_on_c, 0, 53, 83
1, 26000, Note_on_c, 0, 41, 64
1, 26073, Note_off_c, 0, 41, 62
1, 26075, Note_on_c, 0, 57, 78
1, 26078, Note_off_c, 0, 53, 60
1, 26090, Note_on_c, 0, 36, 65
1, 26116, Note_off_c, 0, 60, 59
1, 26162, Note_on_c, 0, 41, 63
1, 26168, Note_on_c, 0, 53, 74
1, 26168, Note_off_c, 0, 36, 58
1, 26180, Note_off_c, 0, 48, 58
1, 26184, Note_off_c, 0, 57, 56
1, 26185, Note_off_c, 0, 45, 36
1, 26298, Note_on_c, 0, 48, 101
1, 26310, Note_off_c, 0, 41, 62
1, 26311, Note_on_c, 0, 36, 75
1, 26333, Note_off_c, 0, 53, 60
1, 26346, Note_on_c, 0, 57, 30
1, 26356, Control_c, 0, 64, 78
1, 26371, Note_off_c, 0, 57, 56
1, 26371, Control_c, 0, 64, 57
1, 26386, Control_c, 0, 64, 15
1, 26401, Control_c, 0, 64, 24
1, 26416, Control_c, 0, 64, 56
1, 26430, Control_c, 0, 64, 80
1, 26445, Control_c, 0, 64, 127
1, 26462, Note_on_c, 0, 53, 68
1, 26467, Note_on_c, 0, 44, 55
1, 26467, Note_off_c, 0, 36, 57
1, 26469, Note_off_c, 0, 48, 59
1, 26504, Note_off_c, 0, 44, 61
1, 26528, Note_on_c, 0, 48, 58
1, 26533, Note_off_c, 0, 53, 62
1, 26541, Note_on_c, 0, 60, 60
1, 26579, Note_off_c, 0, 48, 60
1, 26583, Note_off_c, 0, 60, 58
1, 26646, Note_on_c, 0, 48, 48
1, 26650, Note_on_c, 0, 60, 73
1, 26710, Note_off_c, 0, 60, 55
1, 26712, Note_off_c, 0, 48, 62
1, 26722, Note_on_c, 0, 65, 72
1, 26724, Note_on_c, 0, 56, 58
1, 26753, Note_off_c, 0, 56, 64
1, 26780, Note_off_c, 0, 65, 63
1, 26781, Note_on_c, 0, 60, 54
1, 26787, Note_on_c, 0, 72, 59
1, 26824, Note_off_c, 0, 72, 64
1, 26832, Note_off_c, 0, 60, 62
1, 26888, Note_on_c, 0, 72, 77
1, 26900, Note_on_c, 0, 60, 43
1, 26954, Note_on_c, 0, 77, 72
1, 26957, Note_on_c, 0, 68, 69
1, 26960, Note_off_c, 0, 72, 61
1, 27006, Note_off_c, 0, 68, 58
1, 27019, Note_on_c, 0, 84, 90
1, 27026, Note_on_c, 0, 72, 68
1, 27036, Note_off_c, 0, 77, 65
1, 27058, Note_off_c, 0, 60, 55
1, 27086, Note_off_c, 0, 72, 60
1, 27094, Note_on_c, 0, 77, 75
1, 27096, Note_on_c, 0, 68, 65
1, 27109, Note_off_c, 0, 84, 65
1, 27128, Note_off_c, 0, 68, 65
1, 27149, Note_on_c, 0, 60, 57
1, 27150, Control_c, 0, 67, 8
1, 27152, Note_off_c, 0, 77, 66
1, 27165, Note_on_c, 0, 72, 52
1, 27165, Control_c, 0, 67, 10
1, 27175, Note_off_c, 0, 60, 65
1, 27179, Control_c, 0, 67, 12
1, 27193, Note_off_c, 0, 72, 66
1, 27194, Control_c, 0, 67, 13
1, 27209, Control_c, 0, 67, 14
1, 27232, Note_on_c, 0, 60, 78
1, 27249, Note_on_c, 0, 72, 83
1, 27268, Control_c, 0, 67, 14
1, 27283, Control_c, 0, 67, 16
1, 27297, Control_c, 0, 67, 17
1, 27311, Note_off_c, 0, 60, 60
1, 27312, Control_c, 0, 67, 18
1, 27318, Note_on_c, 0, 65, 71
1, 27327, Control_c, 0, 67, 20
1, 27329, Note_off_c, 0, 72, 61
1, 27342, Control_c, 0, 67, 23
1, 27357, Control_c, 0, 67, 26
1, 27371, Note_off_c, 0, 65, 64
1, 27371, Control_c, 0, 67, 31
1, 27372, Note_on_c, 0, 48, 65
1, 27383, Poly_aftertouch_c, 0, 57, 127
1, 27386, Control_c, 0, 67, 37
1, 27401, Control_c, 0, 67, 43
1, 27407, Note_off_c, 0, 48, 64
1, 27412, Poly_aftertouch_c, 0, 57, 0
1, 27416, Control_c, 0, 67, 48
1, 27425, Note_on_c, 0, 60, 40
1, 27431, Control_c, 0, 67, 51
1, 27445, Control_c, 0, 67, 52
1, 27460, Control_c, 0, 67, 53
1, 27464, Note_on_c, 0, 48, 70
1, 27465, Note_off_c, 0, 60, 0
1, 27465, Note_on_c, 0, 60, 53
1, 27490, Control_c, 0, 67, 53
1, 27504, Control_c, 0, 67, 54
1, 27526, Note_off_c, 0, 48, 50
1, 27536, Note_on_c, 0, 44, 70
1, 27545, Note_on_c, 0, 53, 73
1, 27571, Control_c, 0, 67, 54
1, 27616, Control_c, 0, 67, 55
1, 27620, Note_off_c, 0, 44, 61
1, 27631, Note_off_c, 0, 53, 63
1, 27631, Control_c, 0, 67, 55
1, 27645, Note_on_c, 0, 48, 99
1, 27645, Control_c, 0, 67, 57
1, 27657, Note_on_c, 0, 36, 73
1, 27660, Control_c, 0, 64, 84
1, 27660, Control_c, 0, 67, 59
1, 27675, Control_c, 0, 64, 58
1, 27675, Control_c, 0, 67, 61
1, 27690, Control_c, 0, 64, 0
1, 27690, Control_c, 0, 67, 64
1, 27699, Note_off_c, 0, 60, 39
1, 27704, Control_c, 0, 64, 34
1, 27704, Control_c, 0, 67, 68
1, 27719, Control_c, 0, 64, 62
1, 27719, Control_c, 0, 67, 72
1, 27733, Note_on_c, 0, 52, 78
1, 27735, Control_c, 0, 64, 81
1, 27735, Control_c, 0, 67, 73
1, 27738, Note_off_c, 0, 36, 61
1, 27747, Note_off_c, 0, 48, 61
1, 27750, Note_on_c, 0, 43, 53
1, 27750, Control_c, 0, 64, 127
1, 27750, Control_c, 0, 67, 74
1, 27777, Note_off_c, 0, 43, 60
1, 27800, Note_on_c, 0, 48, 57
1, 27803, Note_off_c, 0, 52, 64
1, 27809, Note_on_c, 0, 60, 62
1, 27809, Control_c, 0, 67, 73
1, 27824, Control_c, 0, 67, 72
1, 27839, Control_c, 0, 67, 72
1, 27841, Note_off_c, 0, 48, 64
1, 27849, Note_off_c, 0, 60, 60
1, 27854, Control_c, 0, 67, 71
1, 27869, Control_c, 0, 67, 70
1, 27883, Control_c, 0, 67, 69
1, 27898, Control_c, 0, 67, 69
1, 27902, Note_on_c, 0, 48, 64
1, 27905, Note_on_c, 0, 60, 79
1, 27913, Control_c, 0, 67, 68
1, 27927, Control_c, 0, 67, 67
1, 27942, Control_c, 0, 67, 66
1, 27957, Control_c, 0, 67, 65
1, 27972, Note_on_c, 0, 55, 64
1, 27972, Control_c, 0, 67, 64
1, 27976, Note_on_c, 0, 64, 76
1, 27976, Note_off_c, 0, 48, 62
1, 27979, Note_off_c, 0, 60, 62
1, 27987, Control_c, 0, 67, 63
1, 28001, Note_off_c, 0, 55, 65
1, 28001, Control_c, 0, 67, 61
1, 28016, Control_c, 0, 67, 59
1, 28031, Control_c, 0, 67, 54
1, 28036, Note_on_c, 0, 60, 54
1, 28038, Note_off_c, 0, 64, 65
1, 28046, Control_c, 0, 67, 46
1, 28050, Note_on_c, 0, 72, 64
1, 28061, Control_c, 0, 67, 36
1, 28075, Control_c, 0, 67, 24
1, 28080, Note_off_c, 0, 60, 61
1, 28086, Note_off_c, 0, 72, 57
1, 28090, Control_c, 0, 67, 12
1, 28105, Control_c, 0, 67, 0
1, 28140, Note_on_c, 0, 60, 62
1, 28148, Note_on_c, 0, 72, 79
1, 28214, Note_on_c, 0, 76, 77
1, 28224, Note_off_c, 0, 72, 59
1, 28227, Note_on_c, 0, 67, 62
1, 28265, Note_off_c, 0, 67, 60
1, 28283, Note_on_c, 0, 72, 71
1, 28288, Note_on_c, 0, 84, 89
1, 28290, Note_off_c, 0, 76, 61
1, 28355, Note_off_c, 0, 60, 59
1, 28370, Note_on_c, 0, 67, 72
1, 28370, Note_off_c, 0, 72, 62
1, 28373, Note_on_c, 0, 76, 79
1, 28380, Note_off_c, 0, 84, 63
1, 28429, Note_off_c, 0, 67, 62
1, 28435, Note_on_c, 0, 60, 58
1, 28437, Note_off_c, 0, 76, 64
1, 28459, Note_on_c, 0, 72, 51
1, 28472, Note_off_c, 0, 60, 61
1, 28483, Note_off_c, 0, 72, 62
1, 28523, Note_on_c, 0, 60, 72
1, 28539, Note_on_c, 0, 72, 82
1, 28611, Note_on_c, 0, 55, 67
1, 28616, Note_on_c, 0, 64, 76
1, 28622, Note_off_c, 0, 60, 60
1, 28632, Note_off_c, 0, 72, 59
1, 28681, Note_on_c, 0, 48, 70
1, 28682, Note_off_c, 0, 55, 62
1, 28689, Note_off_c, 0, 64, 65
1, 28704, Note_on_c, 0, 60, 64
1, 28733, Note_off_c, 0, 60, 64
1, 28735, Note_off_c, 0, 48, 61
1, 28785, Note_on_c, 0, 48, 55
1, 28796, Note_on_c, 0, 60, 79
1, 28862, Note_on_c, 0, 43, 69
1, 28873, Note_off_c, 0, 48, 59
1, 28875, Note_on_c, 0, 52, 75
1, 28900, Note_off_c, 0, 60, 55
1, 28912, Note_off_c, 0, 43, 62
1, 29123, Note_off_c, 0, 52, 36
1, 29143, Note_on_c, 0, 48, 97
1, 29158, Note_on_c, 0, 32, 89
1, 29179, Note_on_c, 0, 31, 77
1, 29231, Control_c, 0, 64, 82
1, 29246, Control_c, 0, 64, 60
1, 29261, Control_c, 0, 64, 31
1, 29276, Control_c, 0, 64, 21
1, 29282, Poly_aftertouch_c, 0, 42, 0
1, 29291, Control_c, 0, 64, 49
1, 29306, Control_c, 0, 64, 81
1, 29321, Control_c, 0, 64, 127
1, 29334, Note_off_c, 0, 31, 30
1, 29359, Note_on_c, 0, 39, 66
1, 29360, Note_on_c, 0, 50, 46
1, 29368, Note_on_c, 0, 51, 73
1, 29383, Note_off_c, 0, 48, 59
1, 29390, Note_off_c, 0, 50, 53
1, 29416, Note_off_c, 0, 32, 54
1, 29428, Note_off_c, 0, 51, 65
1, 29452, Note_off_c, 0, 39, 61
1, 29474, Note_on_c, 0, 44, 70
1, 29479, Note_on_c, 0, 60, 61
1, 29517, Note_off_c, 0, 44, 64
1, 29535, Note_off_c, 0, 60, 60
1, 29586, Note_on_c, 0, 60, 63
1, 29599, Note_on_c, 0, 44, 64
1, 29671, Note_off_c, 0, 60, 60
1, 29678, Note_on_c, 0, 51, 53
1, 29678, Note_on_c, 0, 63, 77
1, 29687, Note_off_c, 0, 44, 59
1, 29711, Note_off_c, 0, 51, 65
1, 29729, Note_off_c, 0, 63, 66
1, 29738, Note_on_c, 0, 56, 66
1, 29744, Note_on_c, 0, 72, 71
1, 29767, Note_off_c, 0, 56, 65
1, 29787, Note_off_c, 0, 72, 62
1, 29842, Note_on_c, 0, 56, 63
1, 29848, Note_on_c, 0, 72, 72
1, 29912, Note_on_c, 0, 63, 71
1, 29919, Note_off_c, 0, 56, 57
1, 29920, Note_off_c, 0, 72, 57
1, 29921, Note_on_c, 0, 75, 86
1, 29949, Note_off_c, 0, 63, 63
1, 29970, Note_off_c, 0, 75, 68
1, 29985, Note_on_c, 0, 68, 62
1, 29991, Note_on_c, 0, 84, 71
1, 30011, Note_off_c, 0, 68, 68
1, 30021, Note_off_c, 0, 84, 67
1, 30075, Note_on_c, 0, 84, 87
1, 30081, Note_on_c, 0, 68, 65
1, 30146, Note_on_c, 0, 87, 89
1, 30171, Note_off_c, 0, 84, 65
1, 30215, Note_off_c, 0, 87, 62
1, 30216, Note_on_c, 0, 96, 98
1, 30224, Note_off_c, 0, 68, 45
1, 30230, Note_on_c, 0, 80, 62
1, 30263, Note_off_c, 0, 80, 63
1, 30281, Note_on_c, 0, 75, 70
1, 30289, Note_on_c, 0, 87, 93
1, 30311, Note_off_c, 0, 75, 65
1, 30313, Note_off_c, 0, 96, 67
1, 30320, Note_on_c, 0, 68, 63
1, 30352, Note_off_c, 0, 87, 68
1, 30353, Note_off_c, 0, 68, 65
1, 30354, Note_on_c, 0, 84, 70
1, 30389, Note_off_c, 0, 84, 66
1, 30420, Note_on_c, 0, 68, 76
1, 30430, Note_on_c, 0, 84, 77
1, 30494, Note_off_c, 0, 68, 63
1, 30496, Note_on_c, 0, 63, 64
1, 30502, Note_on_c, 0, 75, 89
1, 30519, Note_off_c, 0, 84, 66
1, 30534, Note_off_c, 0, 63, 63
1, 30546, Note_on_c, 0, 56, 69
1, 30569, Note_off_c, 0, 75, 67
1, 30578, Note_off_c, 0, 56, 62
1, 30606, Note_on_c, 0, 72, 44
1, 30629, Note_off_c, 0, 72, 54
1, 30648, Note_on_c, 0, 56, 73
1, 30659, Note_on_c, 0, 72, 80
1, 30737, Note_on_c, 0, 63, 89
1, 30737, Note_off_c, 0, 56, 62
1, 30741, Note_off_c, 0, 72, 64
1, 30743, Note_on_c, 0, 51, 51
1, 30764, Note_on_c, 0, 44, 68
1, 30774, Note_off_c, 0, 51, 64
1, 30787, Note_off_c, 0, 63, 65
1, 30799, Note_on_c, 0, 60, 74
1, 30820, Note_off_c, 0, 44, 61
1, 30823, Note_off_c, 0, 60, 65
1, 30879, Note_on_c, 0, 60, 75
1, 30893, Note_on_c, 0, 44, 71
1, 30957, Note_on_c, 0, 51, 81
1, 30984, Note_on_c, 0, 39, 56
1, 30989, Note_on_c, 0, 54, 47
1, 31020, Note_off_c, 0, 60, 56
1, 31022, Note_off_c, 0, 39, 60
1, 31022, Note_off_c, 0, 54, 65
1, 31023, Note_on_c, 0, 32, 72
1, 31029, Note_on_c, 0, 48, 100
1, 31029, Note_off_c, 0, 44, 35
1, 31054, Note_off_c, 0, 51, 63
1, 31117, Note_on_c, 0, 39, 64
1, 31121, Note_on_c, 0, 51, 67
1, 31123, Note_off_c, 0, 48, 64
1, 31199, Note_off_c, 0, 51, 65
1, 31223, Note_on_c, 0, 46, 98
1, 31247, Note_off_c, 0, 39, 62
1, 31248, Control_c, 0, 64, 89
1, 31257, Note_on_c, 0, 43, 63
1, 31263, Control_c, 0, 64, 62
1, 31278, Control_c, 0, 64, 39
1, 31315, Control_c, 0, 64, 61
1, 31318, Note_on_c, 0, 51, 75
1, 31330, Note_off_c, 0, 32, 60
1, 31330, Control_c, 0, 64, 75
1, 31344, Control_c, 0, 64, 106
1, 31351, Note_off_c, 0, 43, 57
1, 31359, Control_c, 0, 64, 127
1, 31361, Note_on_c, 0, 39, 59
1, 31404, Note_on_c, 0, 58, 63
1, 31404, Note_off_c, 0, 51, 64
1, 31414, Note_off_c, 0, 39, 59
1, 31424, Note_on_c, 0, 32, 59
1, 31457, Note_off_c, 0, 46, 63
1, 31467, Note_on_c, 0, 51, 70
1, 31509, Note_off_c, 0, 58, 54
1, 31525, Note_on_c, 0, 39, 60
1, 31537, Note_off_c, 0, 32, 48
1, 31555, Note_off_c, 0, 51, 63
1, 31565, Note_on_c, 0, 49, 100
1, 31577, Note_on_c, 0, 58, 44
1, 31581, Control_c, 0, 64, 89
1, 31584, Note_off_c, 0, 39, 61
1, 31593, Note_on_c, 0, 46, 64
1, 31596, Control_c, 0, 64, 70
1, 31611, Control_c, 0, 64, 66
1, 31622, Note_off_c, 0, 58, 61
1, 31625, Control_c, 0, 64, 74
1, 31628, Note_on_c, 0, 50, 12
1, 31640, Control_c, 0, 64, 101
1, 31654, Note_on_c, 0, 51, 72
1, 31655, Control_c, 0, 64, 127
1, 31674, Note_off_c, 0, 50, 43
1, 31689, Note_off_c, 0, 46, 57
1, 31690, Note_off_c, 0, 51, 65
1, 31695, Note_on_c, 0, 39, 65
1, 31764, Note_off_c, 0, 39, 60
1, 31765, Note_on_c, 0, 63, 73
1, 31791, Note_on_c, 0, 32, 56
1, 31796, Note_off_c, 0, 63, 67
1, 31879, Note_on_c, 0, 39, 67
1, 31884, Note_on_c, 0, 51, 70
1, 31894, Note_off_c, 0, 32, 53
1, 31948, Note_off_c, 0, 49, 57
1, 31982, Note_on_c, 0, 32, 93
1, 32015, Note_off_c, 0, 39, 62
1, 32045, Note_off_c, 0, 51, 0
1, 32057, Note_on_c, 0, 48, 103
1, 32082, Poly_aftertouch_c, 0, 51, 127
1, 32093, Control_c, 0, 64, 86
1, 32108, Control_c, 0, 64, 62
1, 32123, Control_c, 0, 64, 27
1, 32134, Poly_aftertouch_c, 0, 51, 0
1, 32138, Control_c, 0, 64, 0
1, 32153, Control_c, 0, 64, 37
1, 32167, Control_c, 0, 64, 63
1, 32182, Control_c, 0, 64, 83
1, 32197, Control_c, 0, 64, 127
1, 32197, Note_off_c, 0, 48, 57
1, 32208, Note_on_c, 0, 51, 81
1, 32213, Note_on_c, 0, 39, 64
1, 32233, Note_off_c, 0, 32, 59
1, 32268, Note_off_c, 0, 39, 61
1, 32269, Note_off_c, 0, 51, 65
1, 32299, Note_on_c, 0, 44, 61
1, 32306, Note_on_c, 0, 60, 63
1, 32328, Note_off_c, 0, 44, 64
1, 32349, Note_off_c, 0, 60, 61
1, 32403, Note_on_c, 0, 44, 62
1, 32405, Note_on_c, 0, 60, 65
1, 32465, Note_on_c, 0, 51, 63
1, 32483, Note_off_c, 0, 60, 53
1, 32486, Note_on_c, 0, 63, 81
1, 32487, Note_off_c, 0, 44, 61
1, 32500, Note_off_c, 0, 51, 64
1, 32531, Note_off_c, 0, 63, 67
1, 32552, Note_on_c, 0, 56, 53
1, 32557, Note_on_c, 0, 72, 68
1, 32574, Note_off_c, 0, 56, 61
1, 32606, Note_off_c, 0, 72, 62
1, 32641, Note_on_c, 0, 56, 69
1, 32654, Note_on_c, 0, 72, 72
1, 32712, Note_on_c, 0, 63, 69
1, 32725, Note_on_c, 0, 75, 86
1, 32731, Note_off_c, 0, 56, 61
1, 32737, Note_off_c, 0, 72, 56
1, 32752, Note_off_c, 0, 63, 64
1, 32770, Note_off_c, 0, 75, 67
1, 32782, Note_on_c, 0, 68, 68
1, 32809, Note_on_c, 0, 84, 61
1, 32815, Note_off_c, 0, 68, 68
1, 32829, Note_off_c, 0, 84, 66
1, 32882, Note_on_c, 0, 68, 66
1, 32889, Note_on_c, 0, 84, 87
1, 32953, Note_on_c, 0, 75, 71
1, 32954, Note_on_c, 0, 87, 79
1, 32971, Note_off_c, 0, 84, 63
1, 33000, Note_off_c, 0, 75, 60
1, 33017, Note_off_c, 0, 87, 65
1, 33019, Note_on_c, 0, 96, 96
1, 33035, Note_on_c, 0, 80, 70
1, 33038, Note_off_c, 0, 68, 58
1, 33087, Note_off_c, 0, 80, 64
1, 33102, Note_on_c, 0, 87, 100
1, 33105, Note_on_c, 0, 75, 70
1, 33113, Note_off_c, 0, 96, 65
1, 33137, Note_off_c, 0, 75, 65
1, 33147, Note_on_c, 0, 68, 69
1, 33154, Note_on_c, 0, 90, 6
1, 33158, Note_on_c, 0, 84, 77
1, 33164, Note_off_c, 0, 87, 67
1, 33172, Note_off_c, 0, 68, 68
1, 33189, Note_off_c, 0, 84, 66
1, 33212, Note_off_c, 0, 90, 29
1, 33227, Note_on_c, 0, 68, 76
1, 33243, Note_on_c, 0, 84, 86
1, 33306, Note_on_c, 0, 63, 73
1, 33308, Note_off_c, 0, 68, 65
1, 33315, Note_on_c, 0, 75, 90
1, 33325, Note_off_c, 0, 84, 65
1, 33351, Note_off_c, 0, 63, 62
1, 33352, Note_on_c, 0, 56, 76
1, 33373, Note_off_c, 0, 75, 65
1, 33385, Note_off_c, 0, 56, 66
1, 33393, Note_on_c, 0, 72, 62
1, 33411, Poly_aftertouch_c, 0, 78, 0
1, 33425, Note_off_c, 0, 72, 65
1, 33451, Note_on_c, 0, 56, 78
1, 33459, Note_on_c, 0, 72, 80
1, 33527, Note_on_c, 0, 51, 62
1, 33529, Note_on_c, 0, 63, 86
1, 33533, Note_off_c, 0, 56, 60
1, 33534, Note_off_c, 0, 72, 64
1, 33571, Note_on_c, 0, 44, 72
1, 33577, Note_off_c, 0, 51, 66
1, 33592, Note_off_c, 0, 63, 66
1, 33605, Note_on_c, 0, 60, 75
1, 33611, Note_off_c, 0, 44, 61
1, 33611, Poly_aftertouch_c, 0, 66, 127
1, 33631, Note_off_c, 0, 60, 65
1, 33639, Poly_aftertouch_c, 0, 66, 0
1, 33659, Poly_aftertouch_c, 0, 43, 127
1, 33687, Note_on_c, 0, 60, 78
1, 33699, Note_on_c, 0, 44, 67
1, 33710, Poly_aftertouch_c, 0, 43, 0
1, 33764, Note_off_c, 0, 60, 62
1, 33773, Note_on_c, 0, 51, 76
1, 33777, Note_on_c, 0, 39, 58
1, 33790, Note_off_c, 0, 44, 55
1, 33816, Note_on_c, 0, 54, 17
1, 33824, Note_on_c, 0, 32, 70
1, 33827, Note_off_c, 0, 39, 55
1, 33841, Note_off_c, 0, 51, 63
1, 33846, Note_off_c, 0, 54, 0
1, 33849, Note_on_c, 0, 48, 95
1, 33861, Poly_aftertouch_c, 0, 54, 0
1, 33896, Note_on_c, 0, 55, 18
1, 33927, Note_off_c, 0, 48, 63
1, 33929, Note_on_c, 0, 39, 64
1, 33939, Note_off_c, 0, 55, 40
1, 33962, Note_on_c, 0, 51, 44
1, 34004, Note_off_c, 0, 51, 60
1, 34041, Note_on_c, 0, 46, 93
1, 34041, Note_off_c, 0, 39, 61
1, 34050, Note_on_c, 0, 43, 72
1, 34051, Control_c, 0, 64, 89
1, 34065, Control_c, 0, 64, 64
1, 34080, Control_c, 0, 64, 51
1, 34083, Note_on_c, 0, 50, 33
1, 34084, Note_off_c, 0, 50, 127
1, 34095, Control_c, 0, 64, 57
1, 34111, Control_c, 0, 64, 71
1, 34126, Control_c, 0, 64, 100
1, 34126, Note_on_c, 0, 51, 67
1, 34130, Note_off_c, 0, 32, 58
1, 34141, Control_c, 0, 64, 127
1, 34154, Note_on_c, 0, 39, 70
1, 34198, Note_off_c, 0, 43, 35
1, 34212, Note_off_c, 0, 51, 64
1, 34224, Note_off_c, 0, 39, 62
1, 34225, Note_on_c, 0, 58, 61
1, 34226, Note_on_c, 0, 32, 68
1, 34279, Note_off_c, 0, 46, 64
1, 34291, Note_off_c, 0, 58, 54
1, 34304, Note_on_c, 0, 51, 40
1, 34315, Note_on_c, 0, 39, 61
1, 34337, Note_off_c, 0, 51, 54
1, 34358, Note_on_c, 0, 44, 99
1, 34381, Note_off_c, 0, 39, 61
1, 34384, Control_c, 0, 64, 79
1, 34385, Note_on_c, 0, 41, 69
1, 34399, Control_c, 0, 64, 61
1, 34412, Note_on_c, 0, 52, 15
1, 34414, Control_c, 0, 64, 52
1, 34429, Control_c, 0, 64, 65
1, 34443, Control_c, 0, 64, 83
1, 34445, Note_on_c, 0, 51, 69
1, 34457, Note_off_c, 0, 32, 61
1, 34457, Note_off_c, 0, 52, 30
1, 34458, Control_c, 0, 64, 127
1, 34460, Note_off_c, 0, 41, 55
1, 34467, Note_on_c, 0, 39, 69
1, 34519, Note_on_c, 0, 56, 73
1, 34524, Note_off_c, 0, 51, 64
1, 34531, Note_off_c, 0, 39, 59
1, 34555, Note_on_c, 0, 32, 56
1, 34561, Note_off_c, 0, 44, 59
1, 34587, Note_on_c, 0, 51, 64
1, 34611, Note_on_c, 0, 39, 67
1, 34621, Note_off_c, 0, 56, 56
1, 34622, Note_off_c, 0, 32, 60
1, 34699, Note_off_c, 0, 51, 61
1, 34715, Note_on_c, 0, 46, 95
1, 34718, Note_on_c, 0, 32, 97
1, 34725, Note_off_c, 0, 39, 58
1, 34734, Note_on_c, 0, 54, 63
1, 34740, Control_c, 0, 64, 79
1, 34755, Control_c, 0, 64, 57
1, 34758, Note_off_c, 0, 54, 63
1, 34769, Control_c, 0, 64, 19
1, 34784, Control_c, 0, 64, 0
1, 34799, Control_c, 0, 64, 39
1, 34814, Control_c, 0, 64, 65
1, 34829, Control_c, 0, 64, 85
1, 34843, Control_c, 0, 64, 118
1, 34850, Note_on_c, 0, 51, 71
1, 34853, Note_on_c, 0, 39, 76
1, 34858, Control_c, 0, 64, 127
1, 34865, Note_off_c, 0, 46, 63
1, 34901, Note_off_c, 0, 32, 60
1, 34926, Note_off_c, 0, 39, 63
1, 34938, Note_off_c, 0, 51, 63
1, 34940, Note_on_c, 0, 58, 49
1, 34941, Note_on_c, 0, 43, 71
1, 34971, Note_off_c, 0, 43, 64
1, 34991, Note_off_c, 0, 58, 63
1, 35064, Note_on_c, 0, 44, 76
1, 35075, Note_on_c, 0, 58, 81
1, 35145, Note_on_c, 0, 51, 71
1, 35151, Note_on_c, 0, 63, 77
1, 35161, Note_off_c, 0, 58, 64
1, 35172, Note_off_c, 0, 44, 62
1, 35196, Note_off_c, 0, 51, 63
1, 35206, Note_on_c, 0, 55, 76
1, 35222, Note_off_c, 0, 63, 65
1, 35223, Note_on_c, 0, 70, 64
1, 35236, Note_off_c, 0, 55, 67
1, 35258, Note_off_c, 0, 70, 64
1, 35314, Note_on_c, 0, 70, 80
1, 35317, Note_on_c, 0, 56, 74
1, 35377, Note_on_c, 0, 63, 74
1, 35380, Note_on_c, 0, 75, 84
1, 35397, Note_off_c, 0, 70, 62
1, 35399, Note_off_c, 0, 56, 61
1, 35425, Note_off_c, 0, 63, 62
1, 35439, Note_on_c, 0, 67, 77
1, 35449, Note_on_c, 0, 82, 73
1, 35454, Note_off_c, 0, 75, 66
1, 35467, Note_off_c, 0, 67, 67
1, 35485, Note_off_c, 0, 82, 62
1, 35543, Note_on_c, 0, 68, 83
1, 35543, Note_on_c, 0, 82, 77
1, 35601, Note_on_c, 0, 75, 72
1, 35607, Note_on_c, 0, 87, 84
1, 35619, Note_off_c, 0, 82, 63
1, 35655, Note_off_c, 0, 75, 64
1, 35661, Note_on_c, 0, 79, 83
1, 35662, Note_on_c, 0, 94, 96
1, 35677, Note_off_c, 0, 87, 67
1, 35685, Note_off_c, 0, 68, 63
1, 35722, Note_off_c, 0, 79, 64
1, 35739, Note_on_c, 0, 87, 94
1, 35763, Note_on_c, 0, 75, 56
1, 35769, Note_off_c, 0, 94, 65
1, 35790, Note_on_c, 0, 68, 77
1, 35790, Note_off_c, 0, 75, 66
1, 35812, Note_off_c, 0, 87, 67
1, 35825, Note_on_c, 0, 82, 64
1, 35829, Note_off_c, 0, 68, 62
1, 35843, Note_off_c, 0, 82, 65
1, 35878, Note_on_c, 0, 67, 82
1, 35901, Note_on_c, 0, 82, 89
1, 35947, Note_off_c, 0, 67, 62
1, 35957, Note_on_c, 0, 63, 76
1, 35957, Note_on_c, 0, 75, 83
1, 35991, Note_off_c, 0, 82, 63
1, 36009, Note_on_c, 0, 56, 76
1, 36012, Note_off_c, 0, 63, 65
1, 36025, Note_off_c, 0, 75, 66
1, 36037, Note_on_c, 0, 70, 63
1, 36040, Note_off_c, 0, 56, 65
1, 36057, Note_off_c, 0, 70, 63
1, 36071, Poly_aftertouch_c, 0, 76, 0
1, 36097, Note_on_c, 0, 55, 76
1, 36108, Note_on_c, 0, 70, 89
1, 36165, Note_off_c, 0, 55, 60
1, 36167, Note_on_c, 0, 63, 85
1, 36178, Note_on_c, 0, 51, 71
1, 36193, Note_off_c, 0, 70, 62
1, 36224, Note_on_c, 0, 44, 82
1, 36236, Note_off_c, 0, 51, 64
1, 36236, Note_off_c, 0, 63, 66
1, 36246, Note_on_c, 0, 58, 64
1, 36266, Note_off_c, 0, 58, 64
1, 36273, Note_off_c, 0, 44, 62
1, 36326, Note_on_c, 0, 58, 83
1, 36331, Poly_aftertouch_c, 0, 46, 0
1, 36350, Note_on_c, 0, 43, 72
1, 36392, Note_on_c, 0, 51, 74
1, 36402, Note_on_c, 0, 56, 19
1, 36415, Control_c, 0, 64, 81
1, 36430, Control_c, 0, 64, 63
1, 36437, Note_on_c, 0, 39, 58
1, 36439, Note_off_c, 0, 43, 53
1, 36445, Control_c, 0, 64, 53
1, 36449, Note_off_c, 0, 56, 39
1, 36459, Control_c, 0, 64, 62
1, 36463, Note_on_c, 0, 46, 89
1, 36469, Note_on_c, 0, 52, 5
1, 36470, Note_off_c, 0, 58, 61
1, 36474, Control_c, 0, 64, 75
1, 36476, Note_off_c, 0, 51, 62
1, 36480, Note_on_c, 0, 32, 67
1, 36486, Note_off_c, 0, 39, 61
1, 36489, Control_c, 0, 64, 105
1, 36504, Control_c, 0, 64, 127
1, 36508, Note_off_c, 0, 52, 55
1, 36560, Note_on_c, 0, 51, 73
1, 36577, Poly_aftertouch_c, 0, 56, 0
1, 36580, Note_off_c, 0, 46, 64
1, 36596, Note_on_c, 0, 39, 60
1, 36651, Note_off_c, 0, 51, 64
1, 36652, Note_off_c, 0, 39, 58
1, 36661, Note_on_c, 0, 44, 93
1, 36678, Note_on_c, 0, 41, 64
1, 36690, Control_c, 0, 64, 72
1, 36705, Control_c, 0, 64, 51
1, 36719, Control_c, 0, 64, 25
1, 36734, Control_c, 0, 64, 37
1, 36739, Note_off_c, 0, 32, 61
1, 36749, Note_on_c, 0, 49, 71
1, 36749, Control_c, 0, 64, 63
1, 36755, Note_on_c, 0, 37, 57
1, 36764, Control_c, 0, 64, 79
1, 36779, Control_c, 0, 64, 111
1, 36794, Control_c, 0, 64, 127
1, 36825, Note_off_c, 0, 49, 64
1, 36832, Note_on_c, 0, 56, 73
1, 36833, Note_off_c, 0, 37, 61
1, 36845, Note_on_c, 0, 32, 65
1, 36874, Note_off_c, 0, 41, 22
1, 36906, Note_off_c, 0, 44, 62
1, 36909, Note_on_c, 0, 49, 68
1, 36947, Note_on_c, 0, 37, 49
1, 36992, Note_off_c, 0, 49, 61
1, 37012, Note_on_c, 0, 44, 102
1, 37029, Note_off_c, 0, 37, 56
1, 37039, Note_on_c, 0, 41, 56
1, 37045, Control_c, 0, 64, 85
1, 37060, Control_c, 0, 64, 70
1, 37075, Control_c, 0, 64, 68
1, 37089, Control_c, 0, 64, 76
1, 37099, Poly_aftertouch_c, 0, 54, 127
1, 37104, Control_c, 0, 64, 98
1, 37119, Note_off_c, 0, 32, 60
1, 37119, Control_c, 0, 64, 127
1, 37122, Note_off_c, 0, 56, 57
1, 37125, Note_on_c, 0, 49, 64
1, 37143, Note_on_c, 0, 37, 53
1, 37187, Note_off_c, 0, 37, 62
1, 37189, Note_off_c, 0, 49, 62
1, 37193, Note_on_c, 0, 53, 63
1, 37201, Poly_aftertouch_c, 0, 54, 0
1, 37241, Note_on_c, 0, 32, 38
1, 37265, Note_off_c, 0, 41, 20
1, 37274, Note_off_c, 0, 53, 62
1, 37289, Note_off_c, 0, 32, 56
1, 37289, Note_on_c, 0, 49, 70
1, 37292, Note_on_c, 0, 37, 59
1, 37313, Note_off_c, 0, 44, 54
1, 37504, Note_on_c, 0, 44, 98
1, 37509, Note_on_c, 0, 32, 66
1, 37528, Control_c, 0, 64, 74
1, 37542, Note_off_c, 0, 49, 63
1, 37543, Control_c, 0, 64, 50
1, 37553, Note_off_c, 0, 37, 36
1, 37558, Control_c, 0, 64, 0
1, 37587, Control_c, 0, 64, 9
1, 37602, Control_c, 0, 64, 48
1, 37617, Control_c, 0, 64, 69
1, 37632, Control_c, 0, 64, 95
1, 37647, Control_c, 0, 64, 127
1, 37670, Note_on_c, 0, 49, 72
1, 37686, Note_off_c, 0, 44, 61
1, 37700, Note_off_c, 0, 32, 58
1, 37705, Note_on_c, 0, 40, 50
1, 37740, Note_off_c, 0, 40, 62
1, 37744, Note_off_c, 0, 49, 62
1, 37755, Note_on_c, 0, 56, 58
1, 37766, Control_c, 0, 67, 11
1, 37772, Note_on_c, 0, 44, 44
1, 37780, Control_c, 0, 67, 20
1, 37794, Note_off_c, 0, 44, 64
1, 37795, Control_c, 0, 67, 32
1, 37808, Note_off_c, 0, 56, 59
1, 37810, Control_c, 0, 67, 50
1, 37825, Control_c, 0, 67, 70
1, 37840, Control_c, 0, 67, 89
1, 37854, Control_c, 0, 67, 106
1, 37869, Control_c, 0, 67, 118
1, 37881, Note_on_c, 0, 56, 66
1, 37882, Note_on_c, 0, 44, 53
1, 37884, Control_c, 0, 67, 121
1, 37950, Note_on_c, 0, 52, 54
1, 37950, Note_off_c, 0, 56, 61
1, 37957, Control_c, 0, 67, 120
1, 37959, Note_on_c, 0, 61, 69
1, 37965, Note_off_c, 0, 44, 61
1, 37972, Control_c, 0, 67, 119
1, 37983, Note_off_c, 0, 52, 65
1, 37986, Control_c, 0, 67, 118
1, 38001, Control_c, 0, 67, 118
1, 38011, Note_off_c, 0, 61, 63
1, 38016, Control_c, 0, 67, 117
1, 38021, Note_on_c, 0, 68, 62
1, 38024, Note_on_c, 0, 56, 47
1, 38039, Control_c, 0, 67, 117
1, 38054, Control_c, 0, 67, 116
1, 38056, Note_off_c, 0, 56, 64
1, 38059, Note_off_c, 0, 68, 65
1, 38083, Control_c, 0, 67, 117
1, 38098, Control_c, 0, 67, 117
1, 38114, Control_c, 0, 67, 118
1, 38127, Note_on_c, 0, 68, 76
1, 38146, Note_on_c, 0, 56, 45
1, 38158, Control_c, 0, 67, 117
1, 38173, Control_c, 0, 67, 116
1, 38188, Control_c, 0, 67, 114
1, 38199, Note_on_c, 0, 73, 71
1, 38203, Control_c, 0, 67, 114
1, 38204, Note_on_c, 0, 64, 33
1, 38208, Note_off_c, 0, 68, 63
1, 38217, Control_c, 0, 67, 113
1, 38232, Control_c, 0, 67, 113
1, 38247, Control_c, 0, 67, 112
1, 38249, Note_off_c, 0, 64, 56
1, 38262, Control_c, 0, 67, 111
1, 38265, Note_on_c, 0, 68, 61
1, 38267, Note_on_c, 0, 80, 82
1, 38276, Note_off_c, 0, 73, 63
1, 38277, Control_c, 0, 67, 110
1, 38281, Note_off_c, 0, 56, 36
1, 38291, Control_c, 0, 67, 109
1, 38306, Control_c, 0, 67, 108
1, 38319, Note_off_c, 0, 68, 65
1, 38321, Control_c, 0, 67, 108
1, 38335, Note_on_c, 0, 73, 73
1, 38350, Control_c, 0, 67, 107
1, 38353, Note_off_c, 0, 80, 63
1, 38365, Control_c, 0, 67, 108
1, 38380, Control_c, 0, 67, 108
1, 38390, Note_on_c, 0, 56, 47
1, 38392, Note_off_c, 0, 73, 64
1, 38395, Control_c, 0, 67, 110
1, 38409, Control_c, 0, 67, 111
1, 38414, Note_off_c, 0, 56, 59
1, 38424, Control_c, 0, 67, 112
1, 38431, Note_on_c, 0, 68, 22
1, 38439, Control_c, 0, 67, 113
1, 38454, Control_c, 0, 67, 113
1, 38483, Note_off_c, 0, 68, 0
1, 38483, Note_on_c, 0, 68, 39
1, 38485, Note_on_c, 0, 56, 68
1, 38549, Note_off_c, 0, 56, 61
1, 38553, Note_on_c, 0, 61, 76
1, 38570, Note_on_c, 0, 52, 57
1, 38571, Note_off_c, 0, 68, 62
1, 38600, Note_off_c, 0, 52, 66
1, 38614, Note_off_c, 0, 61, 65
1, 38617, Control_c, 0, 67, 114
1, 38633, Note_on_c, 0, 44, 50
1, 38655, Note_off_c, 0, 44, 61
1, 38661, Note_on_c, 0, 56, 30
1, 38676, Control_c, 0, 67, 113
1, 38692, Note_off_c, 0, 56, 0
1, 38706, Control_c, 0, 67, 113
1, 38719, Note_on_c, 0, 44, 70
1, 38719, Note_on_c, 0, 56, 44
1, 38735, Control_c, 0, 67, 112
1, 38765, Control_c, 0, 67, 112
1, 38788, Control_c, 0, 67, 111
1, 38795, Note_off_c, 0, 44, 62
1, 38800, Note_on_c, 0, 49, 69
1, 38803, Control_c, 0, 67, 111
1, 38806, Note_off_c, 0, 56, 58
1, 38812, Note_on_c, 0, 40, 52
1, 38817, Control_c, 0, 67, 110
1, 38847, Control_c, 0, 67, 110
1, 38861, Control_c, 0, 67, 109
1, 38869, Note_off_c, 0, 40, 59
1, 38886, Note_off_c, 0, 49, 64
1, 38891, Control_c, 0, 67, 109
1, 38907, Note_on_c, 0, 44, 95
1, 38907, Control_c, 0, 64, 119
1, 38907, Control_c, 0, 67, 108
1, 38915, Note_on_c, 0, 32, 66
1, 38922, Control_c, 0, 64, 74
1, 38922, Control_c, 0, 67, 107
1, 38937, Control_c, 0, 64, 57
1, 38937, Control_c, 0, 67, 105
1, 38952, Control_c, 0, 64, 57
1, 38952, Control_c, 0, 67, 102
1, 38966, Control_c, 0, 64, 71
1, 38966, Control_c, 0, 67, 98
1, 38979, Note_on_c, 0, 48, 64
1, 38981, Control_c, 0, 64, 96
1, 38981, Control_c, 0, 67, 92
1, 38996, Control_c, 0, 64, 127
1, 38996, Control_c, 0, 67, 80
1, 39005, Note_off_c, 0, 44, 63
1, 39006, Note_on_c, 0, 39, 52
1, 39011, Control_c, 0, 67, 58
1, 39012, Note_off_c, 0, 32, 60
1, 39026, Control_c, 0, 67, 17
1, 39034, Note_off_c, 0, 48, 63
1, 39035, Note_off_c, 0, 39, 61
1, 39040, Control_c, 0, 67, 0
1, 39047, Note_on_c, 0, 56, 68
1, 39071, Note_on_c, 0, 44, 25
1, 39074, Note_off_c, 0, 56, 64
1, 39106, Note_off_c, 0, 44, 44
1, 39144, Note_on_c, 0, 56, 75
1, 39144, Control_c, 0, 67, 9
1, 39158, Control_c, 0, 67, 12
1, 39173, Control_c, 0, 67, 16
1, 39188, Control_c, 0, 67, 20
1, 39203, Control_c, 0, 67, 25
1, 39218, Control_c, 0, 67, 31
1, 39220, Note_on_c, 0, 44, 30
1, 39223, Note_off_c, 0, 56, 59
1, 39228, Note_on_c, 0, 60, 65
1, 39232, Control_c, 0, 67, 36
1, 39247, Control_c, 0, 67, 39
1, 39259, Note_off_c, 0, 44, 50
1, 39262, Control_c, 0, 67, 42
1, 39277, Control_c, 0, 67, 44
1, 39285, Note_off_c, 0, 60, 50
1, 39292, Control_c, 0, 67, 45
1, 39299, Note_on_c, 0, 56, 45
1, 39301, Note_on_c, 0, 68, 72
1, 39307, Control_c, 0, 67, 46
1, 39322, Control_c, 0, 67, 47
1, 39337, Control_c, 0, 67, 48
1, 39351, Control_c, 0, 67, 50
1, 39375, Note_on_c, 0, 60, 67
1, 39381, Control_c, 0, 67, 50
1, 39381, Note_off_c, 0, 56, 61
1, 39387, Note_on_c, 0, 51, 50
1, 39387, Note_off_c, 0, 68, 61
1, 39426, Control_c, 0, 67, 51
1, 39432, Note_off_c, 0, 51, 60
1, 39438, Note_off_c, 0, 60, 62
1, 39440, Control_c, 0, 67, 52
1, 39441, Note_on_c, 0, 44, 64
1, 39450, Note_on_c, 0, 56, 57
1, 39455, Control_c, 0, 67, 54
1, 39470, Control_c, 0, 67, 55
1, 39474, Note_off_c, 0, 56, 64
1, 39484, Control_c, 0, 67, 56
1, 39486, Note_off_c, 0, 44, 62
1, 39499, Control_c, 0, 67, 57
1, 39514, Control_c, 0, 67, 58
1, 39536, Control_c, 0, 67, 59
1, 39551, Control_c, 0, 67, 61
1, 39566, Control_c, 0, 67, 64
1, 39581, Control_c, 0, 67, 66
1, 39596, Control_c, 0, 67, 71
1, 39611, Control_c, 0, 64, 91
1, 39611, Control_c, 0, 67, 79
1, 39616, Note_on_c, 0, 42, 84
1, 39625, Note_on_c, 0, 32, 64
1, 39626, Control_c, 0, 64, 66
1, 39626, Control_c, 0, 67, 86
1, 39640, Control_c, 0, 64, 49
1, 39640, Control_c, 0, 67, 92
1, 39655, Control_c, 0, 64, 45
1, 39655, Control_c, 0, 67, 98
1, 39670, Control_c, 0, 64, 59
1, 39670, Control_c, 0, 67, 102
1, 39684, Control_c, 0, 64, 70
1, 39684, Control_c, 0, 67, 105
1, 39695, Note_on_c, 0, 48, 71
1, 39699, Control_c, 0, 64, 86
1, 39699, Control_c, 0, 67, 108
1, 39700, Note_on_c, 0, 38, 51
1, 39704, Note_off_c, 0, 32, 60
1, 39715, Control_c, 0, 64, 127
1, 39715, Control_c, 0, 67, 111
1, 39727, Note_off_c, 0, 42, 61
1, 39730, Control_c, 0, 67, 112
1, 39739, Note_off_c, 0, 38, 63
1, 39745, Control_c, 0, 67, 113
1, 39760, Control_c, 0, 67, 113
1, 39764, Note_off_c, 0, 48, 64
1, 39773, Note_on_c, 0, 44, 52
1, 39783, Note_on_c, 0, 54, 54
1, 39789, Control_c, 0, 67, 112
1, 39803, Note_off_c, 0, 44, 64
1, 39804, Control_c, 0, 67, 111
1, 39813, Note_off_c, 0, 54, 65
1, 39819, Control_c, 0, 67, 110
1, 39834, Control_c, 0, 67, 110
1, 39849, Control_c, 0, 67, 109
1, 39876, Note_on_c, 0, 54, 67
1, 39878, Control_c, 0, 67, 110
1, 39912, Note_on_c, 0, 44, 33
1, 39937, Control_c, 0, 67, 109
1, 39939, Note_on_c, 0, 50, 48
1, 39939, Note_on_c, 0, 60, 65
1, 39952, Note_off_c, 0, 54, 62
1, 39952, Control_c, 0, 67, 109
1, 39967, Control_c, 0, 67, 108
1, 39981, Control_c, 0, 67, 108
1, 39985, Note_off_c, 0, 44, 0
1, 39991, Note_off_c, 0, 50, 62
1, 40011, Control_c, 0, 67, 107
1, 40022, Poly_aftertouch_c, 0, 44, 127
1, 40027, Note_on_c, 0, 56, 56
1, 40029, Note_on_c, 0, 66, 72
1, 40036, Note_off_c, 0, 60, 61
1, 40055, Control_c, 0, 67, 107
1, 40069, Poly_aftertouch_c, 0, 44, 0
1, 40070, Control_c, 0, 67, 106
1, 40082, Note_off_c, 0, 56, 55
1, 40100, Control_c, 0, 67, 106
1, 40109, Note_on_c, 0, 60, 60
1, 40115, Note_on_c, 0, 50, 47
1, 40119, Note_off_c, 0, 66, 59
1, 40155, Note_off_c, 0, 50, 61
1, 40169, Note_on_c, 0, 44, 64
1, 40176, Note_off_c, 0, 60, 61
1, 40193, Note_on_c, 0, 54, 67
1, 40245, Note_off_c, 0, 54, 55
1, 40249, Note_off_c, 0, 44, 62
1, 40315, Control_c, 0, 67, 105
1, 40428, Note_on_c, 0, 43, 79
1, 40449, Control_c, 0, 67, 106
1, 40455, Note_on_c, 0, 31, 60
1, 40463, Control_c, 0, 64, 102
1, 40478, Control_c, 0, 64, 70
1, 40493, Control_c, 0, 64, 46
1, 40509, Control_c, 0, 64, 0
1, 40509, Control_c, 0, 67, 105
1, 40538, Control_c, 0, 67, 106
1, 40568, Control_c, 0, 67, 106
1, 40583, Control_c, 0, 64, 44
1, 40583, Control_c, 0, 67, 107
1, 40598, Control_c, 0, 64, 62
1, 40598, Control_c, 0, 67, 107
1, 40608, Note_off_c, 0, 43, 58
1, 40612, Control_c, 0, 64, 70
1, 40612, Control_c, 0, 67, 108
1, 40617, Note_on_c, 0, 47, 65
1, 40621, Note_off_c, 0, 31, 57
1, 40627, Control_c, 0, 64, 77
1, 40638, Note_on_c, 0, 38, 39
1, 40642, Control_c, 0, 64, 86
1, 40642, Control_c, 0, 67, 107
1, 40657, Control_c, 0, 64, 93
1, 40657, Control_c, 0, 67, 107
1, 40672, Control_c, 0, 64, 101
1, 40672, Control_c, 0, 67, 106
1, 40674, Note_off_c, 0, 38, 49
1, 40682, Note_off_c, 0, 47, 61
1, 40687, Control_c, 0, 64, 111
1, 40687, Control_c, 0, 67, 106
1, 40702, Control_c, 0, 64, 127
1, 40702, Control_c, 0, 67, 105
1, 40704, Note_on_c, 0, 43, 54
1, 40724, Note_on_c, 0, 55, 50
1, 40731, Control_c, 0, 67, 105
1, 40737, Note_off_c, 0, 43, 63
1, 40746, Control_c, 0, 67, 104
1, 40755, Note_off_c, 0, 55, 64
1, 40761, Control_c, 0, 67, 104
1, 40805, Control_c, 0, 67, 103
1, 40816, Note_on_c, 0, 43, 67
1, 40818, Note_on_c, 0, 55, 71
1, 40820, Control_c, 0, 67, 103
1, 40835, Control_c, 0, 67, 102
1, 40850, Control_c, 0, 67, 102
1, 40865, Control_c, 0, 67, 101
1, 40878, Note_off_c, 0, 43, 61
1, 40879, Control_c, 0, 67, 100
1, 40881, Note_on_c, 0, 59, 69
1, 40882, Note_off_c, 0, 55, 64
1, 40892, Note_on_c, 0, 50, 45
1, 40894, Control_c, 0, 67, 100
1, 40909, Control_c, 0, 67, 99
1, 40922, Note_off_c, 0, 50, 49
1, 40924, Control_c, 0, 67, 98
1, 40935, Note_off_c, 0, 59, 65
1, 40938, Control_c, 0, 67, 95
1, 40940, Note_on_c, 0, 55, 52
1, 40953, Control_c, 0, 67, 93
1, 40955, Note_on_c, 0, 67, 62
1, 40968, Control_c, 0, 67, 91
1, 40980, Note_off_c, 0, 55, 64
1, 40983, Note_off_c, 0, 67, 64
1, 40983, Control_c, 0, 67, 89
1, 40998, Control_c, 0, 67, 85
1, 41012, Control_c, 0, 67, 83
1, 41035, Control_c, 0, 67, 81
1, 41050, Control_c, 0, 67, 77
1, 41056, Note_on_c, 0, 67, 71
1, 41065, Note_on_c, 0, 55, 65
1, 41065, Control_c, 0, 67, 74
1, 41080, Control_c, 0, 67, 72
1, 41094, Control_c, 0, 67, 71
1, 41109, Control_c, 0, 67, 71
1, 41123, Note_off_c, 0, 67, 63
1, 41125, Note_on_c, 0, 71, 67
1, 41179, Note_off_c, 0, 71, 57
1, 41186, Note_on_c, 0, 67, 60
1, 41191, Note_on_c, 0, 79, 75
1, 41198, Control_c, 0, 67, 71
1, 41212, Control_c, 0, 67, 72
1, 41241, Note_off_c, 0, 55, 60
1, 41259, Note_on_c, 0, 62, 53
1, 41262, Note_off_c, 0, 67, 62
1, 41262, Note_off_c, 0, 79, 64
1, 41267, Note_on_c, 0, 71, 75
1, 41301, Note_off_c, 0, 62, 62
1, 41301, Control_c, 0, 67, 72
1, 41322, Note_off_c, 0, 71, 63
1, 41340, Note_on_c, 0, 55, 44
1, 41347, Control_c, 0, 67, 72
1, 41348, Note_on_c, 0, 67, 49
1, 41361, Control_c, 0, 67, 71
1, 41364, Note_off_c, 0, 55, 60
1, 41371, Note_off_c, 0, 67, 59
1, 41376, Control_c, 0, 67, 70
1, 41391, Control_c, 0, 67, 68
1, 41406, Control_c, 0, 67, 63
1, 41418, Note_on_c, 0, 55, 66
1, 41421, Control_c, 0, 67, 53
1, 41424, Note_on_c, 0, 67, 78
1, 41435, Control_c, 0, 67, 43
1, 41450, Control_c, 0, 67, 32
1, 41465, Control_c, 0, 67, 20
1, 41480, Control_c, 0, 67, 0
1, 41489, Note_off_c, 0, 55, 63
1, 41501, Note_off_c, 0, 67, 62
1, 41507, Note_on_c, 0, 59, 74
1, 41511, Note_on_c, 0, 50, 42
1, 41542, Note_off_c, 0, 50, 53
1, 41548, Note_on_c, 0, 43, 63
1, 41560, Note_off_c, 0, 59, 65
1, 41587, Note_on_c, 0, 55, 58
1, 41590, Note_off_c, 0, 43, 61
1, 41614, Note_off_c, 0, 55, 65
1, 41644, Note_on_c, 0, 43, 59
1, 41662, Note_on_c, 0, 55, 51
1, 41703, Note_off_c, 0, 55, 63
1, 41717, Note_on_c, 0, 47, 59
1, 41724, Note_on_c, 0, 38, 61
1, 41802, Note_off_c, 0, 43, 36
1, 41804, Note_on_c, 0, 31, 79
1, 41825, Note_off_c, 0, 38, 59
1, 41882, Note_off_c, 0, 47, 28
1, 41919, Note_on_c, 0, 44, 96
1, 41945, Control_c, 0, 64, 94
1, 41960, Control_c, 0, 64, 66
1, 41975, Control_c, 0, 64, 39
1, 41990, Control_c, 0, 64, 25
1, 42004, Control_c, 0, 64, 37
1, 42019, Control_c, 0, 64, 58
1, 42034, Control_c, 0, 64, 71
1, 42044, Note_off_c, 0, 31, 61
1, 42049, Note_on_c, 0, 48, 66
1, 42049, Control_c, 0, 64, 92
1, 42053, Note_off_c, 0, 44, 62
1, 42064, Control_c, 0, 64, 127
1, 42068, Note_on_c, 0, 39, 47
1, 42081, Note_off_c, 0, 48, 63
1, 42103, Note_off_c, 0, 39, 55
1, 42115, Note_on_c, 0, 56, 56
1, 42121, Note_on_c, 0, 43, 53
1, 42152, Note_off_c, 0, 56, 59
1, 42157, Note_off_c, 0, 43, 63
1, 42231, Note_on_c, 0, 56, 77
1, 42238, Note_on_c, 0, 43, 67
1, 42302, Note_off_c, 0, 43, 61
1, 42303, Note_on_c, 0, 60, 72
1, 42322, Note_on_c, 0, 51, 55
1, 42322, Note_off_c, 0, 56, 61
1, 42347, Note_off_c, 0, 51, 63
1, 42356, Note_off_c, 0, 60, 61
1, 42362, Note_on_c, 0, 55, 61
1, 42386, Note_on_c, 0, 68, 56
1, 42407, Note_off_c, 0, 55, 63
1, 42413, Note_off_c, 0, 68, 66
1, 42466, Note_on_c, 0, 55, 68
1, 42481, Note_on_c, 0, 68, 75
1, 42536, Note_on_c, 0, 72, 65
1, 42549, Note_on_c, 0, 63, 69
1, 42563, Note_off_c, 0, 68, 63
1, 42592, Note_off_c, 0, 63, 61
1, 42596, Note_off_c, 0, 55, 54
1, 42610, Note_on_c, 0, 80, 78
1, 42615, Note_off_c, 0, 72, 60
1, 42678, Note_on_c, 0, 63, 80
1, 42680, Note_on_c, 0, 72, 67
1, 42696, Note_off_c, 0, 80, 63
1, 42725, Note_off_c, 0, 63, 65
1, 42728, Note_off_c, 0, 72, 62
1, 42741, Note_on_c, 0, 55, 65
1, 42755, Note_on_c, 0, 68, 48
1, 42775, Note_off_c, 0, 68, 64
1, 42779, Note_off_c, 0, 55, 66
1, 42826, Note_on_c, 0, 55, 68
1, 42839, Note_on_c, 0, 68, 75
1, 42899, Note_on_c, 0, 60, 72
1, 42914, Note_off_c, 0, 55, 64
1, 42920, Note_on_c, 0, 51, 59
1, 42927, Note_off_c, 0, 68, 63
1, 42951, Note_off_c, 0, 51, 66
1, 42964, Note_off_c, 0, 60, 62
1, 42972, Note_on_c, 0, 43, 67
1, 42985, Note_on_c, 0, 56, 63
1, 43003, Note_off_c, 0, 43, 65
1, 43006, Note_off_c, 0, 56, 62
1, 43069, Note_on_c, 0, 43, 70
1, 43086, Note_on_c, 0, 56, 59
1, 43120, Note_off_c, 0, 43, 62
1, 43120, Note_off_c, 0, 56, 63
1, 43122, Note_on_c, 0, 48, 68
1, 43123, Note_on_c, 0, 39, 72
1, 43157, Note_off_c, 0, 48, 62
1, 43191, Note_off_c, 0, 39, 56
1, 43197, Note_on_c, 0, 32, 87
1, 43301, Note_on_c, 0, 48, 101
1, 43354, Control_c, 0, 64, 75
1, 43369, Control_c, 0, 64, 54
1, 43384, Control_c, 0, 64, 41
1, 43398, Control_c, 0, 64, 56
1, 43413, Control_c, 0, 64, 70
1, 43428, Control_c, 0, 64, 90
1, 43443, Control_c, 0, 64, 127
1, 43453, Note_on_c, 0, 38, 53
1, 43492, Note_off_c, 0, 38, 62
1, 43497, Note_off_c, 0, 32, 60
1, 43507, Note_off_c, 0, 48, 61
1, 43513, Note_on_c, 0, 53, 62
1, 43540, Note_on_c, 0, 44, 54
1, 43574, Note_off_c, 0, 44, 63
1, 43574, Note_off_c, 0, 53, 60
1, 43588, Note_on_c, 0, 60, 57
1, 43626, Note_off_c, 0, 60, 60
1, 43666, Note_on_c, 0, 44, 55
1, 43687, Note_on_c, 0, 60, 71
1, 43699, Note_on_c, 0, 50, 65
1, 43727, Note_off_c, 0, 44, 58
1, 43730, Note_off_c, 0, 60, 57
1, 43747, Note_off_c, 0, 50, 65
1, 43758, Note_on_c, 0, 65, 75
1, 43802, Note_on_c, 0, 56, 51
1, 43817, Note_off_c, 0, 65, 63
1, 43830, Note_off_c, 0, 56, 55
1, 43838, Note_on_c, 0, 72, 53
1, 43859, Note_off_c, 0, 72, 57
1, 43907, Note_on_c, 0, 56, 65
1, 43924, Note_on_c, 0, 72, 76
1, 43931, Note_on_c, 0, 62, 66
1, 43977, Note_on_c, 0, 77, 78
1, 43984, Note_off_c, 0, 72, 54
1, 43990, Note_off_c, 0, 62, 65
1, 44037, Note_off_c, 0, 56, 61
1, 44039, Note_on_c, 0, 68, 64
1, 44057, Note_on_c, 0, 84, 85
1, 44058, Note_off_c, 0, 77, 62
1, 44088, Note_off_c, 0, 68, 63
1, 44112, Note_on_c, 0, 62, 58
1, 44124, Note_on_c, 0, 77, 77
1, 44134, Note_off_c, 0, 84, 65
1, 44139, Note_off_c, 0, 62, 68
1, 44149, Note_on_c, 0, 56, 68
1, 44172, Note_off_c, 0, 77, 65
1, 44180, Note_off_c, 0, 56, 63
1, 44187, Note_on_c, 0, 72, 62
1, 44214, Note_off_c, 0, 72, 66
1, 44252, Note_on_c, 0, 56, 74
1, 44273, Note_on_c, 0, 72, 75
1, 44312, Note_off_c, 0, 56, 61
1, 44335, Note_on_c, 0, 65, 79
1, 44347, Note_off_c, 0, 72, 62
1, 44366, Poly_aftertouch_c, 0, 74, 0
1, 44370, Note_on_c, 0, 44, 57
1, 44386, Poly_aftertouch_c, 0, 49, 127
1, 44387, Note_off_c, 0, 65, 65
1, 44391, Note_off_c, 0, 44, 61
1, 44400, Control_c, 0, 67, 8
1, 44407, Note_on_c, 0, 60, 70
1, 44415, Control_c, 0, 67, 15
1, 44417, Poly_aftertouch_c, 0, 49, 0
1, 44429, Control_c, 0, 67, 23
1, 44437, Note_off_c, 0, 60, 66
1, 44444, Control_c, 0, 67, 36
1, 44448, Note_on_c, 0, 44, 77
1, 44459, Control_c, 0, 67, 53
1, 44473, Control_c, 0, 67, 69
1, 44488, Control_c, 0, 67, 79
1, 44502, Note_on_c, 0, 60, 58
1, 44504, Control_c, 0, 67, 83
1, 44509, Note_off_c, 0, 44, 61
1, 44517, Note_on_c, 0, 62, 12
1, 44519, Control_c, 0, 67, 85
1, 44534, Control_c, 0, 67, 87
1, 44549, Note_on_c, 0, 53, 68
1, 44549, Control_c, 0, 67, 90
1, 44550, Note_off_c, 0, 60, 59
1, 44559, Note_off_c, 0, 62, 43
1, 44564, Control_c, 0, 67, 94
1, 44577, Note_on_c, 0, 38, 32
1, 44578, Control_c, 0, 67, 96
1, 44593, Control_c, 0, 67, 96
1, 44608, Control_c, 0, 67, 97
1, 44619, Note_off_c, 0, 38, 48
1, 44631, Note_off_c, 0, 53, 62
1, 44638, Control_c, 0, 67, 97
1, 44647, Note_on_c, 0, 47, 86
1, 44652, Control_c, 0, 64, 92
1, 44652, Control_c, 0, 67, 98
1, 44654, Note_on_c, 0, 31, 58
1, 44666, Control_c, 0, 64, 63
1, 44666, Control_c, 0, 67, 97
1, 44681, Control_c, 0, 64, 33
1, 44681, Control_c, 0, 67, 97
1, 44696, Control_c, 0, 64, 39
1, 44711, Control_c, 0, 64, 58
1, 44711, Control_c, 0, 67, 96
1, 44725, Note_on_c, 0, 38, 47
1, 44726, Control_c, 0, 64, 70
1, 44726, Control_c, 0, 67, 95
1, 44732, Note_off_c, 0, 31, 61
1, 44739, Note_on_c, 0, 53, 72
1, 44741, Control_c, 0, 64, 87
1, 44741, Control_c, 0, 67, 94
1, 44755, Note_off_c, 0, 38, 57
1, 44756, Control_c, 0, 64, 127
1, 44756, Control_c, 0, 67, 94
1, 44759, Note_off_c, 0, 47, 64
1, 44777, Control_c, 0, 67, 93
1, 44792, Control_c, 0, 67, 93
1, 44802, Note_on_c, 0, 43, 57
1, 44807, Control_c, 0, 67, 92
1, 44822, Note_off_c, 0, 53, 63
1, 44822, Control_c, 0, 67, 92
1, 44826, Note_on_c, 0, 59, 61
1, 44837, Note_off_c, 0, 43, 65
1, 44837, Control_c, 0, 67, 91
1, 44852, Note_off_c, 0, 59, 67
1, 44866, Control_c, 0, 67, 91
1, 44896, Control_c, 0, 67, 90
1, 44913, Note_on_c, 0, 43, 50
1, 44914, Note_on_c, 0, 59, 72
1, 44926, Control_c, 0, 67, 90
1, 44954, Note_off_c, 0, 59, 61
1, 44956, Control_c, 0, 67, 89
1, 44959, Note_off_c, 0, 43, 62
1, 44970, Control_c, 0, 67, 88
1, 44979, Note_on_c, 0, 65, 71
1, 44985, Control_c, 0, 67, 87
1, 45000, Control_c, 0, 67, 86
1, 45024, Note_on_c, 0, 55, 56
1, 45030, Control_c, 0, 67, 86
1, 45039, Note_off_c, 0, 65, 63
1, 45045, Poly_aftertouch_c, 0, 50, 0
1, 45056, Note_off_c, 0, 55, 64
1, 45059, Control_c, 0, 67, 85
1, 45069, Note_on_c, 0, 71, 36
1, 45089, Control_c, 0, 67, 84
1, 45093, Note_off_c, 0, 71, 0
1, 45103, Control_c, 0, 67, 84
1, 45113, Note_on_c, 0, 71, 53
1, 45118, Control_c, 0, 67, 83
1, 45139, Note_on_c, 0, 55, 59
1, 45148, Control_c, 0, 67, 82
1, 45163, Control_c, 0, 67, 80
1, 45177, Control_c, 0, 67, 78
1, 45190, Note_on_c, 0, 77, 73
1, 45192, Note_off_c, 0, 71, 57
1, 45192, Control_c, 0, 67, 75
1, 45207, Control_c, 0, 67, 72
1, 45222, Control_c, 0, 67, 69
1, 45223, Note_on_c, 0, 58, 20
1, 45232, Note_on_c, 0, 62, 12
1, 45237, Control_c, 0, 67, 67
1, 45248, Note_on_c, 0, 67, 69
1, 45251, Control_c, 0, 67, 65
1, 45254, Note_off_c, 0, 77, 66
1, 45260, Note_on_c, 0, 83, 81
1, 45265, Note_off_c, 0, 62, 0
1, 45266, Note_off_c, 0, 58, 48
1, 45266, Control_c, 0, 67, 63
1, 45273, Note_off_c, 0, 55, 58
1, 45281, Poly_aftertouch_c, 0, 62, 0
1, 45281, Control_c, 0, 67, 59
1, 45297, Control_c, 0, 67, 54
1, 45310, Note_off_c, 0, 67, 62
1, 45312, Control_c, 0, 67, 47
1, 45323, Note_on_c, 0, 77, 77
1, 45323, Note_off_c, 0, 83, 65
1, 45326, Control_c, 0, 67, 41
1, 45330, Note_on_c, 0, 62, 45
1, 45341, Control_c, 0, 67, 34
1, 45356, Control_c, 0, 67, 25
1, 45359, Note_off_c, 0, 62, 61
1, 45371, Note_off_c, 0, 77, 64
1, 45371, Control_c, 0, 67, 16
1, 45386, Control_c, 0, 67, 0
1, 45392, Note_on_c, 0, 71, 64
1, 45405, Note_on_c, 0, 55, 25
1, 45416, Note_off_c, 0, 71, 68
1, 45453, Note_off_c, 0, 55, 0
1, 45453, Note_on_c, 0, 55, 40
1, 45474, Note_on_c, 0, 71, 73
1, 45528, Note_off_c, 0, 55, 61
1, 45544, Note_on_c, 0, 65, 77
1, 45544, Note_off_c, 0, 71, 61
1, 45557, Note_on_c, 0, 50, 47
1, 45587, Note_off_c, 0, 50, 50
1, 45591, Note_off_c, 0, 65, 64
1, 45593, Note_on_c, 0, 43, 53
1, 45618, Note_on_c, 0, 59, 68
1, 45626, Note_off_c, 0, 43, 62
1, 45643, Note_off_c, 0, 59, 68
1, 45668, Note_on_c, 0, 43, 59
1, 45713, Note_on_c, 0, 59, 52
1, 45717, Note_on_c, 0, 60, 39
1, 45734, Note_on_c, 0, 38, 67
1, 45739, Note_off_c, 0, 43, 61
1, 45748, Note_off_c, 0, 60, 50
1, 45760, Note_off_c, 0, 59, 59
1, 45763, Note_on_c, 0, 53, 57
1, 45800, Note_on_c, 0, 31, 85
1, 45833, Note_off_c, 0, 38, 60
1, 45880, Note_off_c, 0, 53, 61
1, 45903, Note_on_c, 0, 47, 100
1, 45941, Control_c, 0, 64, 108
1, 45945, Poly_aftertouch_c, 0, 55, 127
1, 45956, Control_c, 0, 64, 85
1, 45971, Control_c, 0, 64, 82
1, 45981, Poly_aftertouch_c, 0, 55, 0
1, 45985, Note_on_c, 0, 38, 45
1, 45986, Note_off_c, 0, 31, 63
1, 45986, Control_c, 0, 64, 86
1, 46000, Control_c, 0, 64, 99
1, 46009, Note_on_c, 0, 53, 68
1, 46014, Note_off_c, 0, 47, 63
1, 46015, Control_c, 0, 64, 127
1, 46026, Note_off_c, 0, 38, 43
1, 46039, Note_on_c, 0, 43, 60
1, 46073, Note_off_c, 0, 43, 63
1, 46074, Note_off_c, 0, 53, 63
1, 46091, Note_on_c, 0, 59, 49
1, 46114, Note_off_c, 0, 59, 59
1, 46143, Note_on_c, 0, 43, 66
1, 46165, Note_on_c, 0, 59, 69
1, 46203, Note_off_c, 0, 59, 62
1, 46207, Note_off_c, 0, 43, 63
1, 46223, Note_on_c, 0, 65, 76
1, 46225, Note_on_c, 0, 50, 29
1, 46274, Note_off_c, 0, 50, 41
1, 46278, Note_on_c, 0, 55, 61
1, 46294, Note_off_c, 0, 65, 63
1, 46310, Note_off_c, 0, 55, 64
1, 46315, Note_on_c, 0, 71, 50
1, 46339, Note_off_c, 0, 71, 54
1, 46383, Note_on_c, 0, 71, 74
1, 46385, Note_on_c, 0, 55, 67
1, 46455, Note_on_c, 0, 77, 72
1, 46463, Note_off_c, 0, 71, 61
1, 46480, Note_on_c, 0, 62, 47
1, 46508, Note_off_c, 0, 62, 54
1, 46512, Note_on_c, 0, 67, 74
1, 46512, Note_on_c, 0, 83, 85
1, 46517, Note_off_c, 0, 77, 65
1, 46545, Note_off_c, 0, 55, 57
1, 46574, Note_off_c, 0, 67, 63
1, 46578, Note_on_c, 0, 77, 80
1, 46585, Note_off_c, 0, 83, 66
1, 46586, Note_on_c, 0, 62, 71
1, 46633, Note_off_c, 0, 77, 65
1, 46635, Note_off_c, 0, 62, 62
1, 46643, Note_on_c, 0, 71, 67
1, 46669, Note_on_c, 0, 55, 47
1, 46676, Note_off_c, 0, 71, 65
1, 46707, Note_off_c, 0, 55, 0
1, 46721, Note_on_c, 0, 55, 59
1, 46732, Note_on_c, 0, 71, 79
1, 46778, Note_off_c, 0, 55, 62
1, 46795, Note_on_c, 0, 65, 84
1, 46801, Note_off_c, 0, 71, 64
1, 46808, Note_on_c, 0, 50, 53
1, 46833, Note_off_c, 0, 50, 62
1, 46847, Note_off_c, 0, 65, 65
1, 46858, Note_on_c, 0, 43, 49
1, 46863, Note_on_c, 0, 59, 71
1, 46890, Note_off_c, 0, 43, 0
1, 46896, Note_off_c, 0, 59, 69
1, 46914, Note_on_c, 0, 43, 58
1, 46960, Note_on_c, 0, 59, 66
1, 46964, Note_on_c, 0, 39, 60
1, 46979, Note_off_c, 0, 43, 60
1, 46993, Note_off_c, 0, 39, 58
1, 47000, Note_on_c, 0, 38, 60
1, 47000, Note_on_c, 0, 53, 71
1, 47021, Note_off_c, 0, 59, 55
1, 47054, Note_off_c, 0, 38, 61
1, 47056, Note_on_c, 0, 32, 87
1, 47086, Note_off_c, 0, 53, 62
1, 47116, Note_on_c, 0, 48, 103
1, 47128, Control_c, 0, 64, 92
1, 47143, Control_c, 0, 64, 60
1, 47158, Control_c, 0, 64, 0
1, 47187, Control_c, 0, 64, 41
1, 47202, Control_c, 0, 64, 67
1, 47212, Note_on_c, 0, 53, 67
1, 47217, Control_c, 0, 64, 87
1, 47218, Note_off_c, 0, 48, 61
1, 47222, Note_on_c, 0, 41, 61
1, 47230, Note_off_c, 0, 32, 61
1, 47232, Control_c, 0, 64, 127
1, 47251, Note_off_c, 0, 41, 64
1, 47272, Note_on_c, 0, 60, 70
1, 47274, Note_off_c, 0, 53, 63
1, 47283, Note_on_c, 0, 44, 58
1, 47307, Note_off_c, 0, 60, 62
1, 47310, Note_off_c, 0, 44, 56
1, 47363, Note_on_c, 0, 60, 76
1, 47385, Note_on_c, 0, 44, 69
1, 47416, Note_on_c, 0, 53, 62
1, 47427, Note_on_c, 0, 65, 77
1, 47428, Note_off_c, 0, 60, 58
1, 47456, Note_off_c, 0, 44, 61
1, 47477, Note_off_c, 0, 53, 64
1, 47492, Note_off_c, 0, 65, 64
1, 47496, Note_on_c, 0, 56, 71
1, 47498, Note_on_c, 0, 72, 56
1, 47528, Note_off_c, 0, 72, 64
1, 47529, Note_off_c, 0, 56, 63
1, 47583, Note_on_c, 0, 72, 76
1, 47604, Note_on_c, 0, 56, 71
1, 47644, Note_on_c, 0, 77, 71
1, 47650, Note_on_c, 0, 64, 48
1, 47652, Note_on_c, 0, 65, 69
1, 47658, Note_off_c, 0, 72, 57
1, 47675, Note_off_c, 0, 64, 62
1, 47698, Note_off_c, 0, 56, 61
1, 47712, Note_on_c, 0, 68, 94
1, 47713, Note_on_c, 0, 84, 90
1, 47723, Note_off_c, 0, 65, 61
1, 47726, Note_off_c, 0, 77, 63
1, 47784, Note_on_c, 0, 77, 72
1, 47785, Note_on_c, 0, 65, 75
1, 47787, Note_off_c, 0, 68, 64
1, 47802, Note_off_c, 0, 84, 65
1, 47813, Poly_aftertouch_c, 0, 60, 0
1, 47838, Poly_aftertouch_c, 0, 60, 0
1, 47841, Note_off_c, 0, 65, 64
1, 47844, Note_off_c, 0, 77, 66
1, 47849, Note_on_c, 0, 56, 72
1, 47851, Note_on_c, 0, 72, 66
1, 47882, Note_off_c, 0, 72, 66
1, 47884, Note_off_c, 0, 56, 63
1, 47936, Note_on_c, 0, 72, 82
1, 47938, Note_on_c, 0, 56, 80
1, 47965, Note_on_c, 0, 71, 53
1, 47966, Note_off_c, 0, 71, 127
1, 47992, Note_off_c, 0, 56, 65
1, 48002, Note_on_c, 0, 65, 79
1, 48009, Note_off_c, 0, 72, 63
1, 48013, Note_on_c, 0, 53, 72
1, 48040, Note_off_c, 0, 53, 65
1, 48056, Note_off_c, 0, 65, 64
1, 48062, Note_on_c, 0, 44, 69
1, 48069, Note_on_c, 0, 60, 70
1, 48091, Note_off_c, 0, 44, 65
1, 48096, Note_off_c, 0, 60, 67
1, 48137, Note_on_c, 0, 44, 93
1, 48154, Note_on_c, 0, 60, 78
1, 48182, Note_off_c, 0, 44, 64
1, 48206, Note_on_c, 0, 45, 7
1, 48207, Note_on_c, 0, 41, 79
1, 48207, Note_on_c, 0, 53, 63
1, 48211, Note_off_c, 0, 60, 62
1, 48240, Note_off_c, 0, 45, 0
1, 48252, Poly_aftertouch_c, 0, 43, 127
1, 48253, Poly_aftertouch_c, 0, 45, 0
1, 48262, Note_off_c, 0, 53, 63
1, 48273, Note_on_c, 0, 33, 92
1, 48294, Note_off_c, 0, 41, 63
1, 48304, Poly_aftertouch_c, 0, 43, 0
1, 48358, Note_on_c, 0, 51, 108
1, 48381, Control_c, 0, 64, 99
1, 48388, Note_on_c, 0, 58, 64
1, 48389, Note_off_c, 0, 58, 127
1, 48395, Control_c, 0, 64, 66
1, 48407, Poly_aftertouch_c, 0, 58, 0
1, 48410, Control_c, 0, 64, 45
1, 48425, Control_c, 0, 64, 52
1, 48438, Note_on_c, 0, 42, 68
1, 48439, Control_c, 0, 64, 66
1, 48441, Note_off_c, 0, 33, 63
1, 48454, Control_c, 0, 64, 80
1, 48461, Note_on_c, 0, 54, 78
1, 48469, Control_c, 0, 64, 127
1, 48479, Note_off_c, 0, 42, 64
1, 48485, Note_off_c, 0, 51, 63
1, 48496, Note_on_c, 0, 45, 68
1, 48536, Note_off_c, 0, 54, 63
1, 48542, Note_off_c, 0, 45, 66
1, 48549, Note_on_c, 0, 63, 62
1, 48577, Note_off_c, 0, 63, 67
1, 48596, Note_on_c, 0, 45, 71
1, 48629, Note_on_c, 0, 63, 83
1, 48680, Note_on_c, 0, 54, 75
1, 48681, Note_off_c, 0, 45, 64
1, 48691, Note_on_c, 0, 66, 86
1, 48702, Note_off_c, 0, 63, 63
1, 48714, Note_off_c, 0, 54, 62
1, 48738, Note_on_c, 0, 57, 72
1, 48753, Note_off_c, 0, 66, 65
1, 48773, Note_on_c, 0, 75, 58
1, 48777, Note_off_c, 0, 57, 65
1, 48801, Note_off_c, 0, 75, 67
1, 48828, Note_on_c, 0, 57, 74
1, 48852, Note_on_c, 0, 75, 87
1, 48908, Note_on_c, 0, 78, 85
1, 48914, Note_on_c, 0, 66, 81
1, 48920, Note_off_c, 0, 75, 64
1, 48968, Note_on_c, 0, 87, 102
1, 48971, Note_on_c, 0, 69, 99
1, 48973, Note_off_c, 0, 66, 58
1, 48988, Note_off_c, 0, 78, 63
1, 49024, Note_off_c, 0, 57, 61
1, 49040, Note_on_c, 0, 78, 87
1, 49049, Note_off_c, 0, 69, 67
1, 49051, Note_on_c, 0, 66, 83
1, 49063, Note_off_c, 0, 87, 67
1, 49090, Note_off_c, 0, 66, 64
1, 49102, Note_off_c, 0, 78, 65
1, 49108, Note_on_c, 0, 75, 63
1, 49115, Note_on_c, 0, 57, 62
1, 49125, Note_off_c, 0, 75, 68
1, 49138, Note_off_c, 0, 57, 67
1, 49183, Note_on_c, 0, 75, 83
1, 49185, Note_on_c, 0, 57, 86
1, 49251, Note_on_c, 0, 66, 91
1, 49264, Note_off_c, 0, 57, 61
1, 49284, Note_off_c, 0, 75, 63
1, 49308, Note_on_c, 0, 45, 77
1, 49320, Note_off_c, 0, 66, 66
1, 49335, Poly_aftertouch_c, 0, 70, 127
1, 49351, Note_on_c, 0, 63, 48
1, 49351, Note_off_c, 0, 45, 63
1, 49367, Poly_aftertouch_c, 0, 70, 0
1, 49376, Note_off_c, 0, 63, 59
1, 49400, Note_on_c, 0, 45, 71
1, 49438, Note_on_c, 0, 63, 36
1, 49468, Note_off_c, 0, 45, 63
1, 49472, Note_on_c, 0, 54, 72
1, 49473, Note_off_c, 0, 63, 57
1, 49480, Note_on_c, 0, 42, 64
1, 49506, Note_on_c, 0, 56, 34
1, 49515, Note_off_c, 0, 42, 62
1, 49522, Note_on_c, 0, 34, 86
1, 49613, Note_off_c, 0, 56, 29
1, 49627, Control_c, 0, 64, 69
1, 49636, Note_on_c, 0, 50, 99
1, 49636, Note_off_c, 0, 54, 62
1, 49641, Control_c, 0, 64, 39
1, 49656, Control_c, 0, 64, 0
1, 49686, Control_c, 0, 64, 23
1, 49700, Control_c, 0, 64, 57
1, 49715, Control_c, 0, 64, 75
1, 49730, Control_c, 0, 64, 97
1, 49745, Control_c, 0, 64, 127
1, 49747, Note_off_c, 0, 50, 67
1, 49761, Note_on_c, 0, 55, 66
1, 49769, Note_on_c, 0, 43, 56
1, 49782, Note_off_c, 0, 34, 62
1, 49825, Note_off_c, 0, 43, 64
1, 49839, Note_off_c, 0, 55, 64
1, 49841, Note_on_c, 0, 46, 63
1, 49850, Note_on_c, 0, 62, 58
1, 49869, Note_off_c, 0, 46, 66
1, 49906, Note_off_c, 0, 62, 64
1, 49962, Note_on_c, 0, 62, 66
1, 49976, Note_on_c, 0, 46, 50
1, 50044, Note_on_c, 0, 55, 62
1, 50057, Note_on_c, 0, 67, 71
1, 50059, Note_off_c, 0, 62, 63
1, 50075, Note_off_c, 0, 46, 64
1, 50083, Note_off_c, 0, 55, 63
1, 50118, Note_on_c, 0, 58, 66
1, 50118, Note_off_c, 0, 67, 64
1, 50130, Note_on_c, 0, 74, 51
1, 50145, Note_off_c, 0, 58, 66
1, 50159, Note_off_c, 0, 74, 67
1, 50224, Note_on_c, 0, 74, 76
1, 50234, Note_on_c, 0, 58, 54
1, 50257, Note_on_c, 0, 67, 76
1, 50282, Note_on_c, 0, 79, 75
1, 50304, Note_off_c, 0, 74, 59
1, 50339, Note_off_c, 0, 67, 64
1, 50342, Note_on_c, 0, 70, 81
1, 50348, Note_off_c, 0, 58, 61
1, 50351, Note_on_c, 0, 86, 79
1, 50354, Note_off_c, 0, 79, 64
1, 50397, Note_off_c, 0, 70, 64
1, 50419, Note_on_c, 0, 67, 77
1, 50420, Note_off_c, 0, 86, 64
1, 50422, Note_on_c, 0, 79, 73
1, 50446, Note_off_c, 0, 67, 65
1, 50466, Note_off_c, 0, 79, 64
1, 50468, Note_on_c, 0, 58, 72
1, 50480, Note_on_c, 0, 74, 58
1, 50506, Note_off_c, 0, 58, 64
1, 50509, Note_off_c, 0, 74, 67
1, 50557, Note_on_c, 0, 58, 85
1, 50568, Note_on_c, 0, 74, 79
1, 50612, Note_off_c, 0, 58, 65
1, 50628, Note_on_c, 0, 55, 73
1, 50636, Note_on_c, 0, 67, 83
1, 50646, Note_off_c, 0, 74, 62
1, 50658, Note_off_c, 0, 55, 67
1, 50682, Note_off_c, 0, 67, 64
1, 50692, Note_on_c, 0, 46, 70
1, 50706, Note_on_c, 0, 62, 68
1, 50721, Note_off_c, 0, 46, 66
1, 50736, Note_off_c, 0, 62, 67
1, 50775, Note_on_c, 0, 46, 86
1, 50795, Note_on_c, 0, 62, 82
1, 50817, Note_off_c, 0, 46, 66
1, 50842, Note_on_c, 0, 43, 76
1, 50870, Note_on_c, 0, 55, 58
1, 50899, Note_off_c, 0, 43, 64
1, 50924, Note_on_c, 0, 35, 91
1, 50932, Note_off_c, 0, 62, 54
1, 50994, Note_off_c, 0, 55, 57
1, 51004, Note_on_c, 0, 50, 111
1, 51021, Control_c, 0, 64, 78
1, 51036, Control_c, 0, 64, 49
1, 51051, Control_c, 0, 64, 0
1, 51081, Control_c, 0, 64, 53
1, 51092, Note_on_c, 0, 41, 70
1, 51095, Control_c, 0, 64, 72
1, 51109, Note_on_c, 0, 56, 74
1, 51110, Note_off_c, 0, 35, 61
1, 51110, Control_c, 0, 64, 97
1, 51117, Note_off_c, 0, 50, 60
1, 51125, Control_c, 0, 64, 127
1, 51131, Note_off_c, 0, 41, 64
1, 51159, Note_on_c, 0, 47, 72
1, 51178, Note_on_c, 0, 62, 57
1, 51179, Note_off_c, 0, 56, 63
1, 51195, Note_off_c, 0, 47, 68
1, 51206, Note_off_c, 0, 62, 67
1, 51251, Note_on_c, 0, 47, 77
1, 51256, Note_on_c, 0, 62, 81
1, 51316, Note_off_c, 0, 62, 63
1, 51317, Note_on_c, 0, 68, 81
1, 51321, Note_on_c, 0, 53, 74
1, 51342, Note_off_c, 0, 47, 64
1, 51359, Note_off_c, 0, 53, 64
1, 51386, Note_on_c, 0, 59, 73
1, 51388, Note_off_c, 0, 68, 66
1, 51392, Note_on_c, 0, 74, 66
1, 51421, Note_off_c, 0, 59, 68
1, 51421, Note_off_c, 0, 74, 66
1, 51470, Note_on_c, 0, 74, 83
1, 51476, Note_on_c, 0, 59, 76
1, 51544, Note_on_c, 0, 80, 83
1, 51546, Note_on_c, 0, 65, 73
1, 51559, Note_off_c, 0, 74, 64
1, 51596, Note_off_c, 0, 65, 61
1, 51604, Note_off_c, 0, 80, 61
1, 51610, Note_on_c, 0, 86, 102
1, 51615, Note_on_c, 0, 71, 92
1, 51677, Note_off_c, 0, 59, 64
1, 51681, Note_on_c, 0, 80, 91
1, 51697, Note_off_c, 0, 71, 65
1, 51706, Note_on_c, 0, 65, 78
1, 51706, Note_off_c, 0, 86, 65
1, 51743, Note_off_c, 0, 80, 64
1, 51754, Note_on_c, 0, 59, 75
1, 51758, Note_off_c, 0, 65, 60
1, 51769, Note_on_c, 0, 74, 60
1, 51790, Note_off_c, 0, 59, 66
1, 51794, Note_off_c, 0, 74, 68
1, 51833, Note_on_c, 0, 59, 84
1, 51838, Note_on_c, 0, 74, 92
1, 51891, Note_off_c, 0, 59, 63
1, 51905, Note_on_c, 0, 68, 89
1, 51907, Note_on_c, 0, 53, 70
1, 51918, Note_off_c, 0, 74, 65
1, 51941, Note_on_c, 0, 47, 76
1, 51942, Note_off_c, 0, 53, 65
1, 51950, Note_off_c, 0, 68, 67
1, 51964, Note_on_c, 0, 62, 76
1, 51976, Note_off_c, 0, 47, 67
1, 51996, Note_off_c, 0, 62, 69
1, 52008, Note_on_c, 0, 47, 87
1, 52055, Note_on_c, 0, 62, 68
1, 52071, Note_on_c, 0, 41, 84
1, 52082, Note_off_c, 0, 47, 65
1, 52087, Note_off_c, 0, 62, 66
1, 52091, Note_on_c, 0, 56, 84
1, 52151, Note_off_c, 0, 56, 62
1, 52171, Note_on_c, 0, 36, 93
1, 52184, Note_off_c, 0, 41, 61
1, 52187, Note_on_c, 0, 51, 100
1, 52229, Control_c, 0, 64, 72
1, 52244, Control_c, 0, 64, 51
1, 52264, Note_on_c, 0, 40, 16
1, 52266, Control_c, 0, 64, 44
1, 52273, Note_on_c, 0, 41, 81
1, 52278, Note_on_c, 0, 56, 78
1, 52281, Control_c, 0, 64, 58
1, 52295, Control_c, 0, 64, 69
1, 52302, Note_off_c, 0, 36, 65
1, 52304, Note_off_c, 0, 40, 59
1, 52310, Control_c, 0, 64, 84
1, 52321, Note_off_c, 0, 51, 65
1, 52325, Control_c, 0, 64, 127
1, 52327, Note_off_c, 0, 41, 62
1, 52339, Note_on_c, 0, 63, 59
1, 52344, Note_on_c, 0, 48, 76
1, 52354, Note_off_c, 0, 56, 63
1, 52378, Note_off_c, 0, 48, 66
1, 52386, Note_off_c, 0, 63, 64
1, 52427, Note_on_c, 0, 48, 73
1, 52438, Note_on_c, 0, 63, 78
1, 52493, Note_on_c, 0, 53, 75
1, 52506, Note_on_c, 0, 68, 82
1, 52512, Note_off_c, 0, 48, 62
1, 52524, Note_off_c, 0, 63, 64
1, 52526, Note_off_c, 0, 53, 66
1, 52563, Note_on_c, 0, 60, 71
1, 52563, Note_on_c, 0, 75, 71
1, 52566, Note_off_c, 0, 68, 65
1, 52594, Note_off_c, 0, 75, 65
1, 52599, Note_off_c, 0, 60, 65
1, 52648, Note_on_c, 0, 75, 89
1, 52661, Note_on_c, 0, 60, 80
1, 52713, Note_on_c, 0, 65, 69
1, 52725, Note_on_c, 0, 80, 84
1, 52748, Note_off_c, 0, 75, 63
1, 52765, Note_off_c, 0, 65, 63
1, 52766, Note_on_c, 0, 64, 10
1, 52783, Note_on_c, 0, 87, 97
1, 52786, Note_on_c, 0, 72, 82
1, 52806, Note_off_c, 0, 80, 64
1, 52814, Note_off_c, 0, 64, 54
1, 52832, Note_off_c, 0, 60, 62
1, 52838, Note_off_c, 0, 72, 64
1, 52849, Note_on_c, 0, 80, 81
1, 52868, Note_on_c, 0, 65, 73
1, 52876, Note_off_c, 0, 87, 69
1, 52915, Note_off_c, 0, 80, 66
1, 52923, Note_off_c, 0, 65, 62
1, 52929, Note_on_c, 0, 60, 72
1, 52932, Note_on_c, 0, 75, 60
1, 52950, Note_off_c, 0, 75, 68
1, 52956, Note_off_c, 0, 60, 65
1, 53016, Note_on_c, 0, 60, 82
1, 53016, Note_on_c, 0, 75, 82
1, 53067, Note_off_c, 0, 60, 62
1, 53075, Note_on_c, 0, 68, 84
1, 53090, Note_on_c, 0, 53, 63
1, 53108, Note_off_c, 0, 75, 65
1, 53120, Note_on_c, 0, 52, 34
1, 53136, Note_off_c, 0, 53, 64
1, 53142, Note_off_c, 0, 68, 66
1, 53150, Note_on_c, 0, 48, 57
1, 53157, Note_off_c, 0, 52, 33
1, 53164, Note_on_c, 0, 63, 56
1, 53172, Note_off_c, 0, 48, 62
1, 53185, Note_off_c, 0, 63, 62
1, 53210, Note_on_c, 0, 48, 67
1, 53251, Note_on_c, 0, 63, 76
1, 53255, Note_on_c, 0, 41, 81
1, 53267, Note_off_c, 0, 48, 64
1, 53279, Note_on_c, 0, 56, 78
1, 53310, Poly_aftertouch_c, 0, 47, 0
1, 53311, Note_off_c, 0, 63, 61
1, 53316, Note_off_c, 0, 41, 63
1, 53350, Note_off_c, 0, 56, 62
1, 53385, Note_on_c, 0, 39, 93
1, 53457, Note_on_c, 0, 40, 48
1, 53494, Note_on_c, 0, 55, 112
1, 53517, Note_on_c, 0, 42, 40
1, 53526, Note_on_c, 0, 41, 2
1, 53571, Note_off_c, 0, 41, 45
1, 53577, Control_c, 0, 64, 110
1, 53592, Control_c, 0, 64, 65
1, 53606, Control_c, 0, 64, 25
1, 53621, Control_c, 0, 64, 0
1, 53636, Control_c, 0, 64, 52
1, 53651, Control_c, 0, 64, 75
1, 53666, Control_c, 0, 64, 127
1, 53721, Note_on_c, 0, 44, 60
1, 53731, Note_off_c, 0, 39, 59
1, 53731, Note_off_c, 0, 40, 57
1, 53763, Note_off_c, 0, 55, 55
1, 53775, Note_on_c, 0, 60, 65
1, 53806, Note_off_c, 0, 44, 62
1, 53814, Note_off_c, 0, 42, 40
1, 53844, Note_on_c, 0, 51, 50
1, 53844, Note_off_c, 0, 60, 60
1, 53851, Note_on_c, 0, 67, 63
1, 53870, Note_off_c, 0, 51, 60
1, 53907, Note_off_c, 0, 67, 57
1, 53969, Note_on_c, 0, 51, 45
1, 53973, Note_on_c, 0, 67, 63
1, 54026, Note_off_c, 0, 51, 61
1, 54028, Note_off_c, 0, 67, 53
1, 54030, Note_on_c, 0, 56, 61
1, 54047, Note_on_c, 0, 72, 71
1, 54086, Note_off_c, 0, 56, 60
1, 54115, Note_off_c, 0, 72, 63
1, 54140, Note_on_c, 0, 79, 51
1, 54142, Note_on_c, 0, 63, 31
1, 54163, Note_off_c, 0, 79, 59
1, 54204, Note_off_c, 0, 63, 0
1, 54217, Note_on_c, 0, 63, 49
1, 54226, Note_on_c, 0, 79, 68
1, 54268, Note_on_c, 0, 68, 73
1, 54271, Note_on_c, 0, 84, 83
1, 54281, Note_on_c, 0, 81, 13
1, 54286, Note_off_c, 0, 79, 65
1, 54304, Note_off_c, 0, 81, 45
1, 54330, Note_off_c, 0, 68, 65
1, 54340, Note_on_c, 0, 91, 98
1, 54354, Note_on_c, 0, 75, 76
1, 54362, Note_off_c, 0, 84, 66
1, 54378, Note_off_c, 0, 63, 56
1, 54384, Note_off_c, 0, 75, 66
1, 54425, Note_on_c, 0, 84, 85
1, 54434, Note_off_c, 0, 91, 64
1, 54435, Note_on_c, 0, 68, 64
1, 54468, Note_on_c, 0, 63, 69
1, 54468, Note_off_c, 0, 84, 66
1, 54470, Note_off_c, 0, 68, 65
1, 54474, Note_on_c, 0, 79, 72
1, 54498, Note_off_c, 0, 63, 65
1, 54513, Note_off_c, 0, 79, 67
1, 54557, Note_on_c, 0, 79, 85
1, 54563, Note_on_c, 0, 63, 82
1, 54605, Note_off_c, 0, 63, 57
1, 54625, Note_on_c, 0, 72, 88
1, 54635, Note_on_c, 0, 56, 63
1, 54646, Note_off_c, 0, 79, 64
1, 54656, Note_off_c, 0, 56, 64
1, 54661, Note_on_c, 0, 51, 74
1, 54679, Note_off_c, 0, 72, 66
1, 54697, Note_off_c, 0, 51, 66
1, 54698, Note_on_c, 0, 67, 66
1, 54718, Note_off_c, 0, 67, 68
1, 54760, Note_on_c, 0, 51, 78
1, 54771, Note_on_c, 0, 67, 80
1, 54789, Note_on_c, 0, 65, 65
1, 54795, Note_off_c, 0, 51, 66
1, 54803, Note_on_c, 0, 44, 75
1, 54834, Note_on_c, 0, 60, 71
1, 54836, Note_on_c, 0, 43, 57
1, 54840, Note_off_c, 0, 44, 57
1, 54849, Note_off_c, 0, 67, 45
1, 54869, Note_off_c, 0, 43, 63
1, 54897, Note_on_c, 0, 38, 91
1, 54912, Note_off_c, 0, 65, 22
1, 54984, Note_off_c, 0, 60, 57
1, 55004, Note_on_c, 0, 53, 99
1, 55016, Control_c, 0, 64, 91
1, 55031, Control_c, 0, 64, 59
1, 55046, Control_c, 0, 64, 0
1, 55076, Control_c, 0, 64, 27
1, 55091, Control_c, 0, 64, 59
1, 55103, Note_on_c, 0, 44, 61
1, 55105, Control_c, 0, 64, 76
1, 55111, Note_on_c, 0, 60, 73
1, 55115, Note_off_c, 0, 38, 62
1, 55120, Control_c, 0, 64, 118
1, 55128, Note_off_c, 0, 53, 61
1, 55135, Control_c, 0, 64, 127
1, 55136, Note_off_c, 0, 44, 63
1, 55163, Note_on_c, 0, 50, 68
1, 55186, Note_on_c, 0, 65, 62
1, 55186, Note_off_c, 0, 60, 62
1, 55209, Note_off_c, 0, 50, 65
1, 55217, Note_off_c, 0, 65, 65
1, 55274, Note_on_c, 0, 50, 64
1, 55276, Note_on_c, 0, 65, 79
1, 55339, Note_on_c, 0, 72, 84
1, 55341, Note_on_c, 0, 56, 74
1, 55341, Note_off_c, 0, 50, 65
1, 55341, Note_off_c, 0, 65, 60
1, 55374, Note_off_c, 0, 56, 63
1, 55395, Note_on_c, 0, 62, 75
1, 55408, Note_off_c, 0, 72, 62
1, 55423, Note_on_c, 0, 77, 60
1, 55443, Note_off_c, 0, 62, 64
1, 55444, Note_off_c, 0, 77, 65
1, 55490, Note_on_c, 0, 77, 78
1, 55500, Note_on_c, 0, 62, 74
1, 55545, Note_on_c, 0, 84, 81
1, 55567, Note_off_c, 0, 77, 62
1, 55568, Note_on_c, 0, 68, 77
1, 55612, Note_on_c, 0, 89, 91
1, 55619, Note_off_c, 0, 68, 65
1, 55627, Note_on_c, 0, 74, 80
1, 55627, Note_off_c, 0, 84, 66
1, 55648, Poly_aftertouch_c, 0, 65, 0
1, 55669, Note_off_c, 0, 62, 62
1, 55685, Note_on_c, 0, 83, 91
1, 55699, Note_on_c, 0, 68, 82
1, 55701, Note_off_c, 0, 74, 60
1, 55706, Note_off_c, 0, 89, 64
1, 55746, Note_off_c, 0, 83, 67
1, 55752, Note_on_c, 0, 77, 74
1, 55754, Note_on_c, 0, 62, 73
1, 55757, Note_off_c, 0, 68, 65
1, 55790, Note_off_c, 0, 62, 69
1, 55801, Note_off_c, 0, 77, 67
1, 55830, Note_on_c, 0, 62, 83
1, 55834, Note_on_c, 0, 77, 81
1, 55889, Note_off_c, 0, 62, 63
1, 55901, Note_on_c, 0, 71, 92
1, 55903, Note_on_c, 0, 56, 76
1, 55929, Note_off_c, 0, 77, 65
1, 55937, Note_on_c, 0, 50, 71
1, 55940, Note_off_c, 0, 56, 62
1, 55959, Note_off_c, 0, 71, 65
1, 55967, Note_off_c, 0, 50, 67
1, 55972, Note_on_c, 0, 65, 73
1, 56006, Note_off_c, 0, 65, 68
1, 56027, Note_on_c, 0, 52, 66
1, 56033, Note_on_c, 0, 50, 71
1, 56064, Note_on_c, 0, 65, 88
1, 56074, Note_on_c, 0, 44, 87
1, 56091, Note_off_c, 0, 50, 62
1, 56092, Note_off_c, 0, 52, 61
1, 56122, Note_on_c, 0, 59, 78
1, 56126, Note_off_c, 0, 65, 63
1, 56135, Note_off_c, 0, 44, 63
1, 56161, Note_on_c, 0, 43, 92
1, 56187, Note_off_c, 0, 59, 57
1, 56261, Note_on_c, 0, 56, 107
1, 56276, Control_c, 0, 64, 77
1, 56277, Note_on_c, 0, 63, 85
1, 56290, Control_c, 0, 64, 39
1, 56292, Note_off_c, 0, 63, 70
1, 56304, Note_on_c, 0, 66, 39
1, 56305, Control_c, 0, 64, 0
1, 56320, Control_c, 0, 64, 38
1, 56333, Note_off_c, 0, 66, 34
1, 56334, Control_c, 0, 64, 68
1, 56346, Note_on_c, 0, 50, 71
1, 56349, Note_on_c, 0, 59, 60
1, 56349, Control_c, 0, 64, 115
1, 56364, Control_c, 0, 64, 127
1, 56366, Note_off_c, 0, 43, 64
1, 56378, Note_off_c, 0, 56, 62
1, 56387, Note_off_c, 0, 50, 66
1, 56405, Note_on_c, 0, 53, 74
1, 56408, Note_off_c, 0, 59, 66
1, 56426, Note_on_c, 0, 68, 68
1, 56442, Note_off_c, 0, 53, 65
1, 56454, Note_off_c, 0, 68, 66
1, 56505, Note_on_c, 0, 55, 78
1, 56510, Note_on_c, 0, 68, 83
1, 56567, Note_on_c, 0, 62, 79
1, 56577, Note_on_c, 0, 71, 76
1, 56599, Note_off_c, 0, 62, 67
1, 56601, Note_off_c, 0, 68, 64
1, 56609, Note_off_c, 0, 55, 64
1, 56628, Note_off_c, 0, 71, 64
1, 56636, Note_on_c, 0, 65, 76
1, 56656, Note_on_c, 0, 80, 63
1, 56667, Note_off_c, 0, 65, 65
1, 56681, Note_off_c, 0, 80, 66
1, 56730, Note_on_c, 0, 67, 83
1, 56734, Note_on_c, 0, 80, 87
1, 56806, Note_on_c, 0, 83, 82
1, 56810, Note_on_c, 0, 74, 81
1, 56815, Note_off_c, 0, 80, 63
1, 56855, Note_off_c, 0, 74, 66
1, 56870, Note_on_c, 0, 92, 97
1, 56873, Note_on_c, 0, 77, 97
1, 56894, Note_off_c, 0, 83, 65
1, 56934, Note_off_c, 0, 67, 65
1, 56943, Note_on_c, 0, 83, 78
1, 56945, Note_off_c, 0, 92, 68
1, 56948, Note_off_c, 0, 77, 64
1, 56972, Note_on_c, 0, 74, 63
1, 56996, Note_off_c, 0, 83, 67
1, 56998, Note_off_c, 0, 74, 68
1, 57004, Note_on_c, 0, 67, 71
1, 57010, Note_on_c, 0, 80, 68
1, 57026, Note_off_c, 0, 80, 66
1, 57031, Note_off_c, 0, 67, 65
1, 57064, Note_on_c, 0, 65, 83
1, 57088, Note_on_c, 0, 80, 78
1, 57143, Note_on_c, 0, 71, 87
1, 57155, Note_on_c, 0, 62, 82
1, 57160, Note_off_c, 0, 65, 64
1, 57181, Note_off_c, 0, 80, 62
1, 57204, Note_on_c, 0, 55, 80
1, 57206, Note_off_c, 0, 62, 65
1, 57210, Note_off_c, 0, 71, 67
1, 57227, Note_on_c, 0, 68, 73
1, 57242, Note_off_c, 0, 68, 71
1, 57244, Note_off_c, 0, 55, 61
1, 57283, Note_on_c, 0, 53, 87
1, 57314, Note_on_c, 0, 68, 68
1, 57345, Note_on_c, 0, 50, 86
1, 57357, Note_on_c, 0, 59, 59
1, 57362, Note_off_c, 0, 53, 61
1, 57377, Note_off_c, 0, 68, 63
1, 57418, Note_on_c, 0, 43, 95
1, 57448, Note_off_c, 0, 59, 63
1, 57453, Note_off_c, 0, 50, 66
1, 57469, Control_c, 0, 64, 124
1, 57479, Note_on_c, 0, 55, 109
1, 57484, Control_c, 0, 64, 68
1, 57506, Control_c, 0, 64, 34
1, 57521, Control_c, 0, 64, 0
1, 57527, Note_on_c, 0, 62, 40
1, 57536, Control_c, 0, 64, 37
1, 57538, Note_on_c, 0, 63, 31
1, 57551, Control_c, 0, 64, 64
1, 57560, Note_off_c, 0, 62, 36
1, 57566, Control_c, 0, 64, 87
1, 57569, Note_on_c, 0, 50, 67
1, 57574, Note_off_c, 0, 63, 46
1, 57575, Note_on_c, 0, 59, 42
1, 57580, Control_c, 0, 64, 127
1, 57595, Note_off_c, 0, 55, 59
1, 57598, Note_off_c, 0, 43, 64
1, 57607, Note_off_c, 0, 50, 66
1, 57636, Note_on_c, 0, 53, 69
1, 57642, Note_off_c, 0, 59, 66
1, 57643, Note_on_c, 0, 67, 72
1, 57663, Note_off_c, 0, 53, 64
1, 57682, Note_off_c, 0, 67, 64
1, 57729, Note_on_c, 0, 55, 75
1, 57752, Note_on_c, 0, 67, 75
1, 57806, Note_on_c, 0, 62, 75
1, 57812, Note_on_c, 0, 71, 79
1, 57813, Note_off_c, 0, 67, 62
1, 57839, Note_off_c, 0, 62, 64
1, 57842, Note_off_c, 0, 55, 61
1, 57874, Note_on_c, 0, 65, 68
1, 57877, Note_off_c, 0, 71, 64
1, 57905, Note_on_c, 0, 79, 50
1, 57908, Note_off_c, 0, 65, 63
1, 57926, Note_off_c, 0, 79, 60
1, 57974, Note_on_c, 0, 67, 74
1, 57989, Note_on_c, 0, 79, 79
1, 58041, Note_on_c, 0, 83, 80
1, 58051, Note_off_c, 0, 79, 64
1, 58058, Note_on_c, 0, 74, 72
1, 58103, Note_off_c, 0, 74, 53
1, 58107, Note_on_c, 0, 91, 97
1, 58113, Note_on_c, 0, 77, 95
1, 58140, Note_off_c, 0, 83, 64
1, 58181, Note_on_c, 0, 83, 73
1, 58185, Note_off_c, 0, 77, 66
1, 58191, Note_off_c, 0, 67, 59
1, 58198, Note_off_c, 0, 91, 64
1, 58215, Note_on_c, 0, 74, 65
1, 58236, Note_on_c, 0, 67, 52
1, 58240, Note_off_c, 0, 74, 68
1, 58243, Note_off_c, 0, 83, 66
1, 58268, Note_on_c, 0, 79, 54
1, 58277, Note_off_c, 0, 67, 63
1, 58295, Note_off_c, 0, 79, 67
1, 58325, Note_on_c, 0, 65, 86
1, 58342, Note_on_c, 0, 79, 84
1, 58410, Note_on_c, 0, 71, 83
1, 58422, Note_on_c, 0, 62, 76
1, 58430, Note_off_c, 0, 65, 63
1, 58430, Note_off_c, 0, 79, 63
1, 58437, Note_on_c, 0, 73, 47
1, 58459, Note_off_c, 0, 73, 60
1, 58479, Note_on_c, 0, 55, 79
1, 58480, Note_off_c, 0, 71, 65
1, 58486, Note_off_c, 0, 62, 65
1, 58488, Note_on_c, 0, 67, 79
1, 58527, Note_off_c, 0, 55, 65
1, 58527, Note_off_c, 0, 67, 64
1, 58576, Note_on_c, 0, 53, 76
1, 58577, Note_on_c, 0, 67, 82
1, 58642, Note_off_c, 0, 67, 63
1, 58644, Note_on_c, 0, 50, 85
1, 58647, Note_on_c, 0, 59, 80
1, 58662, Note_off_c, 0, 53, 63
1, 58688, Note_off_c, 0, 50, 66
1, 58691, Note_off_c, 0, 59, 64
1, 58921, Note_on_c, 0, 43, 115
1, 58932, Note_on_c, 0, 31, 90
1, 58967, Control_c, 0, 64, 99
1, 58982, Control_c, 0, 64, 68
1, 59005, Control_c, 0, 64, 47
1, 59019, Control_c, 0, 64, 14
1, 59034, Control_c, 0, 64, 23
1, 59049, Control_c, 0, 64, 50
1, 59058, Poly_aftertouch_c, 0, 38, 0
1, 59064, Control_c, 0, 64, 69
1, 59079, Note_off_c, 0, 43, 0
1, 59079, Control_c, 0, 64, 88
1, 59094, Control_c, 0, 64, 127
1, 59115, Poly_aftertouch_c, 0, 43, 127
1, 59150, Note_on_c, 0, 38, 58
1, 59169, Note_on_c, 0, 47, 77
1, 59174, Poly_aftertouch_c, 0, 43, 0
1, 59177, Note_off_c, 0, 31, 61
1, 59200, Note_off_c, 0, 38, 63
1, 59231, Note_off_c, 0, 47, 65
1, 59236, Note_on_c, 0, 43, 54
1, 59267, Note_off_c, 0, 43, 64
1, 59276, Note_on_c, 0, 55, 50
1, 59309, Note_off_c, 0, 55, 60
1, 59338, Note_on_c, 0, 43, 72
1, 59378, Note_on_c, 0, 55, 72
1, 59428, Note_on_c, 0, 50, 74
1, 59449, Note_on_c, 0, 59, 75
1, 59456, Note_off_c, 0, 55, 62
1, 59520, Note_off_c, 0, 50, 63
1, 59530, Note_off_c, 0, 59, 61
1, 59541, Note_on_c, 0, 55, 99
1, 59555, Note_on_c, 0, 67, 71
1, 59616, Poly_aftertouch_c, 0, 47, 127
1, 59625, Note_off_c, 0, 67, 61
1, 59628, Note_on_c, 0, 59, 82
1, 59636, Note_off_c, 0, 43, 61
1, 59649, Note_on_c, 0, 50, 74
1, 59658, Poly_aftertouch_c, 0, 47, 0
1, 59658, Note_off_c, 0, 55, 63
1, 59700, Note_off_c, 0, 59, 66
1, 59726, Note_on_c, 0, 55, 62
1, 59734, Note_on_c, 0, 43, 81
1, 59749, Note_off_c, 0, 50, 65
1, 59760, Note_off_c, 0, 55, 66
1, 59794, Note_off_c, 0, 43, 64
1, 59928, Note_on_c, 0, 43, 105
1, 59938, Note_on_c, 0, 32, 91
1, 59961, Control_c, 0, 64, 74
1, 59975, Control_c, 0, 64, 45
1, 59982, Note_on_c, 0, 52, 28
1, 59982, Note_on_c, 0, 50, 10
1, 59985, Note_on_c, 0, 51, 30
1, 59990, Control_c, 0, 64, 0
1, 60005, Control_c, 0, 64, 25
1, 60018, Note_off_c, 0, 50, 33
1, 60020, Control_c, 0, 64, 61
1, 60025, Note_off_c, 0, 51, 50
1, 60025, Note_off_c, 0, 52, 50
1, 60029, Poly_aftertouch_c, 0, 36, 127
1, 60035, Control_c, 0, 64, 83
1, 60049, Control_c, 0, 64, 127
1, 60051, Note_off_c, 0, 43, 55
1, 60064, Note_on_c, 0, 48, 53
1, 60072, Note_on_c, 0, 36, 3
1, 60078, Note_off_c, 0, 32, 60
1, 60134, Note_off_c, 0, 36, 59
1, 60145, Note_on_c, 0, 44, 76
1, 60150, Note_off_c, 0, 48, 64
1, 60159, Note_on_c, 0, 55, 53
1, 60185, Note_off_c, 0, 44, 63
1, 60201, Note_off_c, 0, 55, 61
1, 60261, Note_on_c, 0, 44, 79
1, 60261, Note_on_c, 0, 55, 69
1, 60317, Note_on_c, 0, 48, 72
1, 60340, Note_on_c, 0, 46, 19
1, 60346, Note_on_c, 0, 60, 71
1, 60364, Note_off_c, 0, 55, 63
1, 60386, Note_off_c, 0, 46, 39
1, 60414, Note_off_c, 0, 48, 63
1, 60417, Note_on_c, 0, 67, 90
1, 60420, Note_on_c, 0, 56, 87
1, 60427, Note_off_c, 0, 44, 0
1, 60427, Note_on_c, 0, 44, 8
1, 60427, Poly_aftertouch_c, 0, 59, 0
1, 60430, Note_off_c, 0, 60, 63
1, 60448, Poly_aftertouch_c, 0, 59, 0
1, 60474, Note_off_c, 0, 44, 46
1, 60477, Note_off_c, 0, 56, 63
1, 60487, Note_on_c, 0, 60, 82
1, 60500, Note_on_c, 0, 48, 66
1, 60527, Note_off_c, 0, 67, 61
1, 60555, Note_on_c, 0, 44, 84
1, 60564, Note_off_c, 0, 60, 63
1, 60572, Note_on_c, 0, 55, 61
1, 60581, Note_off_c, 0, 48, 63
1, 60600, Note_off_c, 0, 55, 65
1, 60618, Note_off_c, 0, 44, 62
1, 60707, Note_on_c, 0, 43, 98
1, 60714, Note_on_c, 0, 33, 97
1, 60724, Control_c, 0, 64, 91
1, 60739, Control_c, 0, 64, 62
1, 60742, Note_on_c, 0, 54, 40
1, 60743, Note_on_c, 0, 50, 45
1, 60754, Control_c, 0, 64, 19
1, 60769, Control_c, 0, 64, 11
1, 60777, Note_off_c, 0, 50, 38
1, 60777, Note_off_c, 0, 54, 43
1, 60784, Control_c, 0, 64, 52
1, 60798, Control_c, 0, 64, 74
1, 60807, Note_on_c, 0, 37, 82
1, 60807, Note_on_c, 0, 49, 76
1, 60813, Control_c, 0, 64, 106
1, 60817, Note_off_c, 0, 43, 56
1, 60826, Note_off_c, 0, 33, 63
1, 60828, Control_c, 0, 64, 127
1, 60842, Note_on_c, 0, 36, 25
1, 60868, Note_off_c, 0, 37, 62
1, 60871, Note_on_c, 0, 45, 69
1, 60882, Note_off_c, 0, 49, 65
1, 60884, Note_off_c, 0, 36, 43
1, 60905, Note_on_c, 0, 55, 46
1, 60921, Note_off_c, 0, 45, 65
1, 60938, Note_off_c, 0, 55, 50
1, 60966, Note_on_c, 0, 55, 71
1, 60977, Note_on_c, 0, 45, 80
1, 61038, Note_on_c, 0, 61, 88
1, 61043, Note_on_c, 0, 49, 82
1, 61060, Note_off_c, 0, 55, 62
1, 61108, Note_off_c, 0, 49, 64
1, 61117, Note_on_c, 0, 57, 91
1, 61117, Note_on_c, 0, 67, 86
1, 61117, Note_off_c, 0, 61, 63
1, 61178, Note_off_c, 0, 45, 64
1, 61188, Note_on_c, 0, 61, 85
1, 61195, Note_off_c, 0, 57, 62
1, 61198, Note_on_c, 0, 49, 79
1, 61223, Note_on_c, 0, 63, 23
1, 61225, Note_off_c, 0, 67, 61
1, 61255, Note_off_c, 0, 61, 64
1, 61266, Note_on_c, 0, 55, 92
1, 61270, Note_off_c, 0, 63, 50
1, 61278, Note_on_c, 0, 45, 86
1, 61288, Note_off_c, 0, 49, 64
1, 61308, Note_off_c, 0, 45, 68
1, 61321, Note_off_c, 0, 55, 65
1, 61369, Poly_aftertouch_c, 0, 47, 0
1, 61448, Note_on_c, 0, 34, 101
1, 61461, Note_on_c, 0, 43, 85
1, 61473, Control_c, 0, 64, 93
1, 61488, Control_c, 0, 64, 57
1, 61501, Note_on_c, 0, 54, 20
1, 61503, Control_c, 0, 64, 0
1, 61532, Control_c, 0, 64, 32
1, 61547, Control_c, 0, 64, 61
1, 61549, Note_off_c, 0, 54, 50
1, 61562, Control_c, 0, 64, 75
1, 61568, Note_on_c, 0, 37, 79
1, 61577, Control_c, 0, 64, 93
1, 61592, Control_c, 0, 64, 127
1, 61599, Note_on_c, 0, 49, 65
1, 61619, Note_off_c, 0, 43, 28
1, 61634, Note_off_c, 0, 49, 63
1, 61650, Note_on_c, 0, 46, 95
1, 61665, Note_off_c, 0, 37, 56
1, 61690, Note_on_c, 0, 55, 50
1, 61754, Note_on_c, 0, 37, 72
1, 61756, Note_off_c, 0, 46, 63
1, 61759, Note_on_c, 0, 49, 49
1, 61795, Note_off_c, 0, 34, 57
1, 61821, Note_off_c, 0, 49, 61
1, 61827, Note_off_c, 0, 55, 40
1, 61860, Note_off_c, 0, 37, 63
1, 61866, Note_on_c, 0, 43, 101
1, 61873, Note_on_c, 0, 35, 93
1, 61885, Note_on_c, 0, 52, 60
1, 61888, Control_c, 0, 64, 77
1, 61890, Note_on_c, 0, 50, 67
1, 61903, Control_c, 0, 64, 51
1, 61914, Note_off_c, 0, 50, 60
1, 61918, Control_c, 0, 64, 0
1, 61947, Control_c, 0, 64, 32
1, 61962, Control_c, 0, 64, 62
1, 61977, Control_c, 0, 64, 82
1, 62000, Control_c, 0, 64, 115
1, 62009, Note_on_c, 0, 50, 65
1, 62012, Note_on_c, 0, 38, 68
1, 62015, Control_c, 0, 64, 127
1, 62037, Note_off_c, 0, 52, 21
1, 62043, Note_off_c, 0, 43, 55
1, 62104, Note_off_c, 0, 50, 65
1, 62111, Note_off_c, 0, 38, 62
1, 62120, Note_on_c, 0, 47, 102
1, 62129, Note_on_c, 0, 55, 92
1, 62225, Note_off_c, 0, 35, 58
1, 62227, Poly_aftertouch_c, 0, 52, 0
1, 62236, Note_on_c, 0, 50, 84
1, 62260, Note_off_c, 0, 55, 56
1, 62266, Note_on_c, 0, 38, 64
1, 62268, Poly_aftertouch_c, 0, 52, 0
1, 62269, Note_off_c, 0, 50, 68
1, 62535, Note_off_c, 0, 47, 50
1, 62566, Note_on_c, 0, 51, 98
1, 62575, Note_on_c, 0, 36, 92
1, 62578, Control_c, 0, 64, 70
1, 62593, Control_c, 0, 64, 39
1, 62594, Note_off_c, 0, 38, 38
1, 62601, Note_on_c, 0, 58, 52
1, 62602, Note_off_c, 0, 58, 127
1, 62608, Control_c, 0, 64, 0
1, 62652, Control_c, 0, 64, 45
1, 62653, Poly_aftertouch_c, 0, 61, 127
1, 62667, Control_c, 0, 64, 71
1, 62682, Control_c, 0, 64, 94
1, 62686, Poly_aftertouch_c, 0, 61, 0
1, 62696, Control_c, 0, 64, 127
1, 62778, Note_on_c, 0, 55, 67
1, 62808, Note_on_c, 0, 43, 59
1, 62810, Note_off_c, 0, 51, 61
1, 62830, Note_off_c, 0, 36, 60
1, 62851, Note_off_c, 0, 55, 60
1, 62865, Note_off_c, 0, 43, 62
1, 62906, Note_on_c, 0, 48, 63
1, 62924, Note_on_c, 0, 62, 25
1, 62960, Note_off_c, 0, 48, 63
1, 62964, Note_off_c, 0, 62, 42
1, 63016, Note_on_c, 0, 48, 62
1, 63032, Note_on_c, 0, 63, 73
1, 63103, Note_on_c, 0, 67, 70
1, 63108, Note_off_c, 0, 48, 62
1, 63111, Note_off_c, 0, 63, 63
1, 63116, Note_on_c, 0, 55, 55
1, 63143, Note_off_c, 0, 55, 62
1, 63145, Note_off_c, 0, 67, 60
1, 63175, Note_on_c, 0, 60, 65
1, 63186, Note_on_c, 0, 75, 53
1, 63215, Note_off_c, 0, 60, 63
1, 63217, Note_off_c, 0, 75, 67
1, 63270, Note_on_c, 0, 60, 72
1, 63281, Note_on_c, 0, 75, 74
1, 63342, Note_on_c, 0, 79, 69
1, 63342, Note_on_c, 0, 67, 70
1, 63351, Note_off_c, 0, 75, 61
1, 63384, Note_off_c, 0, 67, 59
1, 63401, Note_on_c, 0, 72, 90
1, 63405, Note_on_c, 0, 87, 90
1, 63422, Note_off_c, 0, 79, 63
1, 63437, Note_on_c, 0, 84, 30
1, 63467, Note_off_c, 0, 60, 62
1, 63471, Note_off_c, 0, 84, 56
1, 63473, Note_on_c, 0, 79, 75
1, 63482, Note_off_c, 0, 72, 63
1, 63493, Note_on_c, 0, 67, 75
1, 63503, Note_off_c, 0, 87, 65
1, 63533, Note_off_c, 0, 79, 66
1, 63541, Note_off_c, 0, 67, 60
1, 63547, Note_on_c, 0, 60, 63
1, 63558, Note_on_c, 0, 75, 55
1, 63577, Note_off_c, 0, 60, 62
1, 63577, Note_off_c, 0, 75, 64
1, 63637, Note_on_c, 0, 60, 76
1, 63642, Note_on_c, 0, 75, 80
1, 63708, Note_on_c, 0, 67, 78
1, 63716, Note_off_c, 0, 60, 61
1, 63717, Note_on_c, 0, 55, 67
1, 63739, Note_off_c, 0, 75, 63
1, 63762, Note_off_c, 0, 67, 65
1, 63766, Poly_aftertouch_c, 0, 68, 127
1, 63767, Note_on_c, 0, 48, 73
1, 63767, Note_off_c, 0, 55, 63
1, 63792, Note_on_c, 0, 63, 59
1, 63808, Note_off_c, 0, 48, 63
1, 63808, Poly_aftertouch_c, 0, 68, 0
1, 63814, Note_off_c, 0, 63, 61
1, 63848, Note_on_c, 0, 48, 70
1, 63890, Note_on_c, 0, 63, 58
1, 63908, Note_on_c, 0, 43, 81
1, 63920, Note_off_c, 0, 48, 63
1, 63962, Note_off_c, 0, 63, 57
1, 63972, Note_on_c, 0, 36, 94
1, 63998, Note_on_c, 0, 55, 12
1, 64024, Note_off_c, 0, 43, 62
1, 64037, Note_off_c, 0, 55, 54
1, 64057, Note_on_c, 0, 50, 116
1, 64075, Control_c, 0, 64, 93
1, 64090, Control_c, 0, 64, 61
1, 64102, Note_on_c, 0, 61, 41
1, 64105, Control_c, 0, 64, 41
1, 64120, Control_c, 0, 64, 49
1, 64132, Note_off_c, 0, 61, 52
1, 64135, Control_c, 0, 64, 66
1, 64149, Control_c, 0, 64, 85
1, 64155, Note_on_c, 0, 41, 56
1, 64156, Note_off_c, 0, 36, 62
1, 64164, Control_c, 0, 64, 127
1, 64168, Note_off_c, 0, 50, 57
1, 64177, Note_on_c, 0, 56, 72
1, 64190, Note_off_c, 0, 41, 62
1, 64219, Note_on_c, 0, 48, 66
1, 64244, Note_on_c, 0, 62, 69
1, 64247, Note_off_c, 0, 56, 64
1, 64269, Note_off_c, 0, 48, 65
1, 64284, Note_off_c, 0, 62, 65
1, 64330, Note_on_c, 0, 48, 61
1, 64340, Note_on_c, 0, 62, 69
1, 64369, Note_on_c, 0, 64, 34
1, 64394, Note_off_c, 0, 62, 64
1, 64403, Note_on_c, 0, 53, 41
1, 64403, Note_off_c, 0, 64, 55
1, 64407, Note_on_c, 0, 68, 56
1, 64409, Note_off_c, 0, 48, 62
1, 64436, Note_on_c, 0, 69, 55
1, 64436, Note_off_c, 0, 53, 46
1, 64447, Note_off_c, 0, 68, 46
1, 64467, Note_off_c, 0, 69, 64
1, 64468, Note_on_c, 0, 60, 67
1, 64505, Note_off_c, 0, 60, 65
1, 64511, Note_on_c, 0, 76, 22
1, 64550, Note_on_c, 0, 74, 45
1, 64552, Note_off_c, 0, 76, 39
1, 64573, Note_on_c, 0, 60, 67
1, 64630, Note_on_c, 0, 80, 81
1, 64640, Note_on_c, 0, 65, 61
1, 64643, Note_off_c, 0, 74, 62
1, 64686, Note_on_c, 0, 64, 15
1, 64686, Note_off_c, 0, 65, 57
1, 64692, Note_on_c, 0, 72, 90
1, 64693, Note_on_c, 0, 86, 97
1, 64700, Note_off_c, 0, 80, 64
1, 64732, Note_off_c, 0, 64, 43
1, 64735, Note_off_c, 0, 60, 60
1, 64759, Note_off_c, 0, 72, 64
1, 64769, Note_on_c, 0, 80, 90
1, 64793, Note_off_c, 0, 86, 65
1, 64796, Note_on_c, 0, 65, 64
1, 64829, Note_off_c, 0, 80, 63
1, 64836, Note_off_c, 0, 65, 64
1, 64839, Note_on_c, 0, 60, 63
1, 64853, Note_on_c, 0, 74, 61
1, 64868, Note_off_c, 0, 60, 64
1, 64883, Note_off_c, 0, 74, 67
1, 64890, Poly_aftertouch_c, 0, 64, 127
1, 64910, Note_on_c, 0, 60, 76
1, 64916, Poly_aftertouch_c, 0, 64, 0
1, 64928, Note_on_c, 0, 74, 83
1, 64973, Note_off_c, 0, 60, 61
1, 64977, Note_on_c, 0, 53, 71
1, 64999, Note_on_c, 0, 68, 86
1, 65011, Note_off_c, 0, 74, 63
1, 65047, Note_off_c, 0, 53, 62
1, 65052, Note_off_c, 0, 68, 66
1, 65071, Note_on_c, 0, 62, 80
1, 65089, Note_on_c, 0, 48, 17
1, 65109, Note_off_c, 0, 62, 65
1, 65157, Note_on_c, 0, 62, 57
1, 65175, Note_on_c, 0, 41, 76
1, 65199, Note_on_c, 0, 56, 78
1, 65214, Note_off_c, 0, 48, 55
1, 65257, Note_off_c, 0, 62, 55
1, 65270, Note_off_c, 0, 41, 61
1, 65273, Note_on_c, 0, 36, 94
1, 65300, Note_off_c, 0, 56, 62
1, 65324, Note_on_c, 0, 53, 98
1, 65336, Control_c, 0, 64, 101
1, 65351, Control_c, 0, 64, 65
1, 65366, Control_c, 0, 64, 31
1, 65379, Note_on_c, 0, 61, 31
1, 65381, Control_c, 0, 64, 0
1, 65410, Control_c, 0, 64, 58
1, 65411, Note_off_c, 0, 61, 33
1, 65420, Note_on_c, 0, 44, 65
1, 65425, Control_c, 0, 64, 75
1, 65431, Note_on_c, 0, 60, 68
1, 65440, Control_c, 0, 64, 100
1, 65441, Note_off_c, 0, 36, 64
1, 65454, Note_off_c, 0, 53, 61
1, 65455, Control_c, 0, 64, 127
1, 65461, Note_off_c, 0, 44, 63
1, 65497, Note_on_c, 0, 48, 65
1, 65509, Note_off_c, 0, 60, 62
1, 65516, Note_on_c, 0, 65, 59
1, 65524, Note_off_c, 0, 48, 65
1, 65545, Note_off_c, 0, 65, 65
1, 65583, Note_on_c, 0, 48, 77
1, 65599, Note_on_c, 0, 65, 79
1, 65645, Note_off_c, 0, 48, 63
1, 65651, Note_on_c, 0, 56, 76
1, 65659, Note_off_c, 0, 65, 61
1, 65661, Note_on_c, 0, 72, 77
1, 65683, Note_off_c, 0, 56, 63
1, 65709, Note_on_c, 0, 60, 66
1, 65742, Note_off_c, 0, 72, 63
1, 65745, Note_on_c, 0, 77, 61
1, 65760, Note_off_c, 0, 60, 61
1, 65775, Note_off_c, 0, 77, 68
1, 65821, Note_on_c, 0, 60, 63
1, 65828, Note_on_c, 0, 77, 81
1, 65868, Note_on_c, 0, 63, 37
1, 65882, Note_on_c, 0, 68, 78
1, 65890, Note_on_c, 0, 84, 74
1, 65899, Note_off_c, 0, 63, 56
1, 65907, Note_off_c, 0, 77, 64
1, 65935, Note_off_c, 0, 68, 64
1, 65949, Note_on_c, 0, 72, 95
1, 65953, Note_on_c, 0, 89, 95
1, 65962, Note_off_c, 0, 84, 65
1, 65990, Note_on_c, 0, 86, 42
1, 66000, Note_off_c, 0, 60, 60
1, 66020, Note_on_c, 0, 68, 80
1, 66020, Note_on_c, 0, 84, 82
1, 66021, Note_off_c, 0, 72, 64
1, 66038, Note_off_c, 0, 89, 64
1, 66044, Note_off_c, 0, 86, 45
1, 66062, Note_off_c, 0, 68, 69
1, 66080, Note_off_c, 0, 84, 67
1, 66086, Note_on_c, 0, 60, 68
1, 66097, Note_on_c, 0, 77, 73
1, 66113, Note_off_c, 0, 60, 64
1, 66123, Note_off_c, 0, 77, 70
1, 66161, Note_on_c, 0, 60, 83
1, 66183, Note_on_c, 0, 77, 84
1, 66218, Note_on_c, 0, 76, 35
1, 66219, Note_off_c, 0, 76, 127
1, 66228, Note_on_c, 0, 56, 76
1, 66234, Note_on_c, 0, 72, 88
1, 66235, Note_off_c, 0, 60, 62
1, 66254, Note_off_c, 0, 77, 65
1, 66282, Note_off_c, 0, 56, 61
1, 66295, Note_on_c, 0, 48, 72
1, 66299, Note_off_c, 0, 72, 65
1, 66311, Note_on_c, 0, 65, 83
1, 66320, Note_off_c, 0, 48, 66
1, 66349, Note_off_c, 0, 65, 65
1, 66370, Note_on_c, 0, 48, 80
1, 66385, Poly_aftertouch_c, 0, 51, 0
1, 66392, Note_on_c, 0, 65, 73
1, 66422, Note_on_c, 0, 44, 82
1, 66427, Note_on_c, 0, 60, 77
1, 66442, Note_off_c, 0, 65, 64
1, 66451, Note_off_c, 0, 48, 57
1, 66468, Note_off_c, 0, 60, 61
1, 66510, Note_off_c, 0, 44, 64
1, 66566, Note_on_c, 0, 36, 96
1, 66567, Note_on_c, 0, 51, 93
1, 66610, Control_c, 0, 64, 70
1, 66624, Control_c, 0, 64, 44
1, 66639, Control_c, 0, 64, 22
1, 66654, Control_c, 0, 64, 49
1, 66656, Note_on_c, 0, 43, 76
1, 66656, Note_on_c, 0, 55, 75
1, 66668, Note_off_c, 0, 51, 65
1, 66668, Control_c, 0, 64, 70
1, 66681, Note_off_c, 0, 36, 64
1, 66683, Control_c, 0, 64, 91
1, 66693, Note_off_c, 0, 55, 63
1, 66698, Control_c, 0, 64, 127
1, 66701, Note_off_c, 0, 43, 62
1, 66715, Note_on_c, 0, 48, 79
1, 66716, Note_on_c, 0, 63, 63
1, 66756, Note_off_c, 0, 63, 64
1, 66762, Note_off_c, 0, 48, 64
1, 66811, Note_on_c, 0, 48, 70
1, 66814, Note_on_c, 0, 63, 90
1, 66869, Note_on_c, 0, 55, 81
1, 66874, Note_on_c, 0, 67, 77
1, 66889, Note_off_c, 0, 63, 64
1, 66909, Note_off_c, 0, 48, 57
1, 66918, Note_off_c, 0, 55, 63
1, 66922, Note_off_c, 0, 67, 64
1, 66947, Note_on_c, 0, 60, 73
1, 66950, Note_on_c, 0, 75, 63
1, 66974, Note_off_c, 0, 75, 65
1, 66988, Note_off_c, 0, 60, 62
1, 67039, Note_on_c, 0, 75, 86
1, 67040, Note_on_c, 0, 60, 73
1, 67101, Note_on_c, 0, 79, 73
1, 67102, Note_on_c, 0, 67, 77
1, 67113, Note_off_c, 0, 75, 62
1, 67145, Note_off_c, 0, 67, 63
1, 67161, Note_on_c, 0, 72, 90
1, 67161, Note_on_c, 0, 87, 92
1, 67181, Note_off_c, 0, 79, 64
1, 67223, Note_off_c, 0, 60, 62
1, 67227, Note_on_c, 0, 79, 77
1, 67229, Note_off_c, 0, 72, 63
1, 67249, Note_on_c, 0, 67, 81
1, 67260, Note_off_c, 0, 87, 66
1, 67292, Note_off_c, 0, 79, 66
1, 67304, Note_off_c, 0, 67, 64
1, 67312, Note_on_c, 0, 75, 60
1, 67318, Note_on_c, 0, 60, 57
1, 67331, Note_off_c, 0, 75, 65
1, 67341, Note_off_c, 0, 60, 63
1, 67378, Note_on_c, 0, 60, 80
1, 67392, Note_on_c, 0, 75, 84
1, 67449, Note_on_c, 0, 55, 77
1, 67458, Note_on_c, 0, 67, 93
1, 67460, Note_off_c, 0, 60, 62
1, 67470, Note_on_c, 0, 68, 35
1, 67482, Note_off_c, 0, 75, 63
1, 67500, Note_off_c, 0, 68, 56
1, 67510, Note_off_c, 0, 55, 63
1, 67510, Note_off_c, 0, 67, 65
1, 67512, Note_on_c, 0, 48, 78
1, 67521, Poly_aftertouch_c, 0, 70, 127
1, 67529, Note_on_c, 0, 63, 72
1, 67540, Note_off_c, 0, 48, 66
1, 67548, Poly_aftertouch_c, 0, 70, 0
1, 67553, Note_off_c, 0, 63, 68
1, 67580, Note_on_c, 0, 48, 93
1, 67607, Note_on_c, 0, 63, 79
1, 67642, Note_on_c, 0, 43, 82
1, 67644, Note_on_c, 0, 55, 59
1, 67649, Note_on_c, 0, 57, 19
1, 67656, Note_off_c, 0, 48, 64
1, 67695, Note_off_c, 0, 57, 42
1, 67695, Note_off_c, 0, 63, 63
1, 67711, Note_on_c, 0, 36, 94
1, 67730, Control_c, 0, 64, 65
1, 67745, Control_c, 0, 64, 0
1, 67747, Note_off_c, 0, 43, 64
1, 67754, Note_on_c, 0, 50, 108
1, 67775, Note_off_c, 0, 55, 38
1, 67804, Control_c, 0, 64, 33
1, 67819, Control_c, 0, 64, 74
1, 67822, Note_on_c, 0, 41, 76
1, 67834, Control_c, 0, 64, 91
1, 67848, Note_on_c, 0, 56, 74
1, 67849, Control_c, 0, 64, 127
1, 67851, Note_on_c, 0, 40, 32
1, 67851, Note_off_c, 0, 36, 64
1, 67855, Note_off_c, 0, 50, 62
1, 67862, Note_off_c, 0, 41, 63
1, 67883, Note_on_c, 0, 48, 75
1, 67891, Note_off_c, 0, 40, 49
1, 67901, Note_off_c, 0, 56, 64
1, 67903, Note_on_c, 0, 62, 68
1, 67926, Note_off_c, 0, 48, 63
1, 67932, Note_off_c, 0, 62, 66
1, 67938, Poly_aftertouch_c, 0, 52, 0
1, 67995, Note_on_c, 0, 62, 81
1, 68004, Note_on_c, 0, 50, 66
1, 68052, Note_on_c, 0, 53, 66
1, 68060, Note_on_c, 0, 68, 82
1, 68063, Note_off_c, 0, 62, 63
1, 68080, Note_off_c, 0, 50, 57
1, 68081, Note_off_c, 0, 53, 65
1, 68110, Poly_aftertouch_c, 0, 52, 0
1, 68111, Note_on_c, 0, 60, 74
1, 68118, Note_off_c, 0, 68, 66
1, 68132, Poly_aftertouch_c, 0, 52, 0
1, 68141, Note_on_c, 0, 74, 54
1, 68144, Note_off_c, 0, 60, 65
1, 68164, Note_off_c, 0, 74, 60
1, 68214, Note_on_c, 0, 74, 82
1, 68218, Note_on_c, 0, 60, 71
1, 68266, Note_on_c, 0, 65, 72
1, 68273, Note_on_c, 0, 80, 89
1, 68291, Note_off_c, 0, 74, 64
1, 68302, Note_on_c, 0, 64, 32
1, 68316, Note_off_c, 0, 65, 62
1, 68335, Note_on_c, 0, 72, 81
1, 68338, Note_off_c, 0, 64, 48
1, 68340, Note_on_c, 0, 86, 90
1, 68349, Note_off_c, 0, 80, 63
1, 68356, Note_off_c, 0, 60, 53
1, 68381, Note_off_c, 0, 72, 65
1, 68400, Note_on_c, 0, 80, 83
1, 68427, Note_off_c, 0, 86, 66
1, 68431, Note_on_c, 0, 65, 63
1, 68467, Note_off_c, 0, 80, 64
1, 68469, Note_on_c, 0, 60, 67
1, 68470, Note_off_c, 0, 65, 64
1, 68478, Note_on_c, 0, 74, 73
1, 68483, Note_on_c, 0, 64, 12
1, 68493, Note_off_c, 0, 60, 66
1, 68511, Note_off_c, 0, 74, 64
1, 68529, Note_off_c, 0, 64, 54
1, 68534, Note_on_c, 0, 60, 84
1, 68553, Note_on_c, 0, 74, 90
1, 68567, Control_c, 0, 64, 82
1, 68582, Control_c, 0, 64, 64
1, 68597, Control_c, 0, 64, 66
1, 68607, Note_off_c, 0, 60, 62
1, 68610, Note_on_c, 0, 53, 75
1, 68612, Control_c, 0, 64, 89
1, 68626, Note_on_c, 0, 68, 89
1, 68627, Control_c, 0, 64, 127
1, 68651, Note_off_c, 0, 74, 65
1, 68681, Note_off_c, 0, 53, 62
1, 68681, Note_off_c, 0, 68, 65
1, 68688, Note_on_c, 0, 48, 64
1, 68700, Note_on_c, 0, 62, 79
1, 68704, Note_on_c, 0, 64, 27
1, 68715, Note_off_c, 0, 48, 63
1, 68721, Note_off_c, 0, 62, 69
1, 68746, Note_on_c, 0, 48, 72
1, 68748, Note_off_c, 0, 64, 47
1, 68770, Note_on_c, 0, 62, 89
1, 68820, Note_on_c, 0, 41, 86
1, 68828, Note_on_c, 0, 56, 92
1, 68836, Note_off_c, 0, 48, 63
1, 68838, Note_off_c, 0, 62, 65
1, 68883, Note_off_c, 0, 56, 59
1, 68943, Note_on_c, 0, 51, 105
1, 68951, Note_on_c, 0, 36, 91
1, 68965, Note_on_c, 0, 58, 82
1, 68968, Note_off_c, 0, 41, 60
1, 68979, Note_on_c, 0, 57, 63
1, 68982, Note_off_c, 0, 58, 71
1, 68985, Note_on_c, 0, 61, 44
1, 68985, Note_on_c, 0, 59, 48
1, 69001, Note_off_c, 0, 57, 63
1, 69005, Control_c, 0, 64, 80
1, 69008, Note_off_c, 0, 61, 60
1, 69009, Note_off_c, 0, 59, 59
1, 69020, Control_c, 0, 64, 47
1, 69035, Poly_aftertouch_c, 0, 53, 0
1, 69035, Control_c, 0, 64, 35
1, 69044, Poly_aftertouch_c, 0, 40, 0
1, 69050, Control_c, 0, 64, 58
1, 69064, Control_c, 0, 64, 74
1, 69065, Poly_aftertouch_c, 0, 63, 0
1, 69074, Note_on_c, 0, 41, 73
1, 69077, Note_on_c, 0, 56, 76
1, 69079, Control_c, 0, 64, 127
1, 69109, Note_off_c, 0, 36, 63
1, 69109, Poly_aftertouch_c, 0, 63, 0
1, 69113, Poly_aftertouch_c, 0, 40, 0
1, 69116, Note_off_c, 0, 51, 64
1, 69126, Note_on_c, 0, 63, 40
1, 69126, Note_off_c, 0, 41, 62
1, 69138, Note_on_c, 0, 47, 73
1, 69152, Note_off_c, 0, 56, 63
1, 69183, Note_off_c, 0, 47, 66
1, 69205, Note_off_c, 0, 63, 62
1, 69244, Note_on_c, 0, 48, 72
1, 69251, Note_on_c, 0, 63, 62
1, 69304, Note_on_c, 0, 53, 65
1, 69323, Note_on_c, 0, 68, 79
1, 69332, Note_off_c, 0, 48, 62
1, 69341, Note_off_c, 0, 53, 61
1, 69347, Note_off_c, 0, 63, 64
1, 69376, Note_on_c, 0, 59, 70
1, 69384, Note_on_c, 0, 75, 71
1, 69389, Note_off_c, 0, 68, 65
1, 69411, Note_off_c, 0, 59, 67
1, 69429, Note_off_c, 0, 75, 63
1, 69493, Note_on_c, 0, 75, 73
1, 69500, Note_on_c, 0, 60, 57
1, 69506, Note_on_c, 0, 59, 44
1, 69535, Note_off_c, 0, 59, 55
1, 69550, Note_on_c, 0, 65, 63
1, 69559, Note_on_c, 0, 80, 77
1, 69570, Note_on_c, 0, 77, 37
1, 69586, Note_off_c, 0, 75, 60
1, 69602, Note_off_c, 0, 65, 63
1, 69602, Note_off_c, 0, 77, 48
1, 69616, Note_on_c, 0, 71, 81
1, 69623, Note_on_c, 0, 87, 90
1, 69639, Note_off_c, 0, 80, 63
1, 69664, Note_off_c, 0, 60, 61
1, 69694, Note_off_c, 0, 71, 64
1, 69695, Note_on_c, 0, 80, 77
1, 69715, Note_off_c, 0, 87, 67
1, 69720, Note_on_c, 0, 65, 63
1, 69757, Note_off_c, 0, 65, 64
1, 69757, Note_off_c, 0, 80, 64
1, 69769, Note_on_c, 0, 60, 57
1, 69771, Note_on_c, 0, 75, 62
1, 69791, Note_off_c, 0, 75, 65
1, 69795, Note_off_c, 0, 60, 63
1, 69836, Note_on_c, 0, 59, 81
1, 69853, Note_on_c, 0, 75, 80
1, 69913, Note_off_c, 0, 59, 64
1, 69916, Note_on_c, 0, 68, 79
1, 69917, Note_on_c, 0, 53, 73
1, 69935, Note_off_c, 0, 75, 64
1, 69980, Note_off_c, 0, 68, 66
1, 69986, Note_off_c, 0, 53, 61
1, 69996, Note_on_c, 0, 48, 62
1, 70010, Note_on_c, 0, 63, 68
1, 70024, Note_off_c, 0, 48, 64
1, 70034, Note_off_c, 0, 63, 66
1, 70081, Note_on_c, 0, 47, 73
1, 70106, Note_on_c, 0, 63, 69
1, 70146, Note_on_c, 0, 41, 71
1, 70171, Note_on_c, 0, 56, 72
1, 70177, Note_off_c, 0, 47, 64
1, 70204, Note_off_c, 0, 63, 61
1, 70250, Note_on_c, 0, 36, 88
1, 70260, Note_off_c, 0, 41, 63
1, 70344, Note_off_c, 0, 56, 62
1, 70373, Note_on_c, 0, 48, 97
1, 70413, Control_c, 0, 64, 93
1, 70417, Note_on_c, 0, 57, 35
1, 70428, Control_c, 0, 64, 62
1, 70443, Control_c, 0, 64, 13
1, 70448, Note_off_c, 0, 57, 49
1, 70457, Control_c, 0, 64, 0
1, 70502, Control_c, 0, 64, 21
1, 70517, Control_c, 0, 64, 53
1, 70532, Control_c, 0, 64, 69
1, 70547, Control_c, 0, 64, 82
1, 70561, Control_c, 0, 64, 108
1, 70576, Control_c, 0, 64, 127
1, 70598, Note_on_c, 0, 51, 58
1, 70606, Note_on_c, 0, 43, 48
1, 70616, Note_off_c, 0, 48, 57
1, 70644, Note_off_c, 0, 36, 55
1, 70656, Note_off_c, 0, 43, 60
1, 70657, Note_off_c, 0, 51, 65
1, 70716, Note_on_c, 0, 60, 53
1, 70726, Note_on_c, 0, 48, 51
1, 70777, Note_off_c, 0, 48, 61
1, 70812, Note_off_c, 0, 60, 58
1, 70883, Note_on_c, 0, 60, 50
1, 70899, Note_on_c, 0, 48, 59
1, 70991, Note_off_c, 0, 60, 38
1, 71004, Note_on_c, 0, 63, 41
1, 71080, Note_on_c, 0, 55, 43
1, 71131, Note_off_c, 0, 63, 36
1, 71195, Note_on_c, 0, 60, 63
1, 71250, Note_on_c, 0, 72, 83
1, 71250, Note_off_c, 0, 55, 35
1, 71251, Control_c, 0, 64, 87
1, 71266, Control_c, 0, 64, 74
1, 71280, Control_c, 0, 64, 74
1, 71295, Control_c, 0, 64, 81
1, 71310, Control_c, 0, 64, 94
1, 71325, Control_c, 0, 64, 127
1, 71427, Note_off_c, 0, 72, 52
1, 71438, Note_on_c, 0, 55, 42
1, 71444, Note_off_c, 0, 60, 54
1, 71444, Note_off_c, 0, 48, 50
1, 71474, Note_on_c, 0, 63, 40
1, 71522, Note_off_c, 0, 63, 60
1, 71530, Note_off_c, 0, 55, 52
1, 71551, Note_on_c, 0, 60, 47
1, 71593, Note_on_c, 0, 48, 49
1, 71602, Note_off_c, 0, 60, 54
1, 71641, Note_on_c, 0, 63, 52
1, 71682, Note_on_c, 0, 55, 48
1, 71733, Note_off_c, 0, 55, 59
1, 71769, Note_on_c, 0, 60, 49
1, 71772, Note_on_c, 0, 70, 82
1, 71776, Note_off_c, 0, 63, 64
1, 71831, Note_off_c, 0, 48, 36
1, 71832, Note_off_c, 0, 60, 61
1, 71843, Poly_aftertouch_c, 0, 69, 127
1, 71850, Note_on_c, 0, 55, 49
1, 71857, Note_on_c, 0, 63, 64
1, 71872, Poly_aftertouch_c, 0, 69, 0
1, 71892, Note_off_c, 0, 55, 58
1, 71928, Note_off_c, 0, 70, 63
1, 71930, Note_on_c, 0, 48, 53
1, 71932, Note_off_c, 0, 63, 62
1, 71948, Note_on_c, 0, 60, 63
1, 72002, Note_off_c, 0, 60, 51
1, 72007, Note_on_c, 0, 55, 52
1, 72019, Note_on_c, 0, 63, 66
1, 72073, Note_off_c, 0, 55, 59
1, 72102, Note_on_c, 0, 60, 54
1, 72103, Note_off_c, 0, 63, 58
1, 72119, Note_on_c, 0, 68, 81
1, 72141, Note_off_c, 0, 48, 60
1, 72166, Note_off_c, 0, 60, 56
1, 72190, Note_on_c, 0, 63, 69
1, 72197, Note_on_c, 0, 55, 48
1, 72225, Note_off_c, 0, 55, 63
1, 72256, Note_off_c, 0, 63, 62
1, 72270, Note_on_c, 0, 60, 65
1, 72299, Note_on_c, 0, 48, 38
1, 72301, Note_off_c, 0, 68, 63
1, 72323, Note_on_c, 0, 55, 55
1, 72326, Note_on_c, 0, 62, 74
1, 72350, Note_off_c, 0, 60, 54
1, 72419, Note_off_c, 0, 62, 60
1, 72435, Note_on_c, 0, 59, 91
1, 72439, Note_off_c, 0, 55, 58
1, 72454, Note_on_c, 0, 67, 68
1, 72460, Control_c, 0, 64, 101
1, 72483, Control_c, 0, 64, 78
1, 72498, Control_c, 0, 64, 71
1, 72512, Control_c, 0, 64, 73
1, 72527, Control_c, 0, 64, 84
1, 72542, Control_c, 0, 64, 110
1, 72546, Note_off_c, 0, 48, 55
1, 72556, Note_on_c, 0, 62, 64
1, 72557, Control_c, 0, 64, 127
1, 72570, Note_on_c, 0, 55, 64
1, 72582, Note_off_c, 0, 59, 57
1, 72612, Note_off_c, 0, 62, 64
1, 72640, Note_on_c, 0, 59, 55
1, 72646, Note_off_c, 0, 55, 59
1, 72670, Note_on_c, 0, 48, 51
1, 72705, Note_off_c, 0, 67, 46
1, 72705, Note_on_c, 0, 61, 71
1, 72723, Note_off_c, 0, 59, 60
1, 72723, Note_on_c, 0, 55, 61
1, 72775, Note_on_c, 0, 58, 94
1, 72788, Note_on_c, 0, 67, 78
1, 72791, Note_off_c, 0, 61, 64
1, 72806, Note_off_c, 0, 55, 61
1, 72824, Control_c, 0, 64, 96
1, 72839, Control_c, 0, 64, 75
1, 72853, Control_c, 0, 64, 72
1, 72868, Control_c, 0, 64, 78
1, 72875, Note_on_c, 0, 61, 68
1, 72881, Note_on_c, 0, 55, 71
1, 72883, Control_c, 0, 64, 98
1, 72889, Note_off_c, 0, 48, 60
1, 72898, Control_c, 0, 64, 127
1, 72910, Note_off_c, 0, 58, 66
1, 72939, Note_off_c, 0, 61, 62
1, 72966, Note_on_c, 0, 58, 54
1, 72980, Note_off_c, 0, 67, 0
1, 72987, Note_on_c, 0, 48, 83
1, 72997, Note_off_c, 0, 55, 60
1, 73022, Poly_aftertouch_c, 0, 67, 0
1, 73027, Note_off_c, 0, 58, 62
1, 73031, Note_on_c, 0, 60, 71
1, 73046, Note_on_c, 0, 53, 61
1, 73090, Note_on_c, 0, 51, 3
1, 73131, Note_on_c, 0, 65, 87
1, 73134, Note_on_c, 0, 57, 90
1, 73143, Note_off_c, 0, 60, 55
1, 73146, Note_off_c, 0, 53, 63
1, 73149, Control_c, 0, 64, 90
1, 73164, Control_c, 0, 64, 67
1, 73179, Control_c, 0, 64, 55
1, 73194, Control_c, 0, 64, 60
1, 73209, Control_c, 0, 64, 72
1, 73218, Note_on_c, 0, 53, 67
1, 73219, Note_off_c, 0, 48, 61
1, 73221, Note_on_c, 0, 60, 72
1, 73231, Control_c, 0, 64, 92
1, 73246, Control_c, 0, 64, 127
1, 73257, Note_off_c, 0, 57, 55
1, 73308, Note_on_c, 0, 48, 84
1, 73308, Note_off_c, 0, 60, 62
1, 73316, Note_on_c, 0, 57, 71
1, 73331, Note_off_c, 0, 53, 63
1, 73338, Note_off_c, 0, 51, 0
1, 73375, Poly_aftertouch_c, 0, 51, 127
1, 73386, Note_on_c, 0, 53, 68
1, 73387, Note_off_c, 0, 65, 61
1, 73393, Note_on_c, 0, 59, 80
1, 73411, Note_off_c, 0, 57, 61
1, 73480, Note_on_c, 0, 56, 95
1, 73480, Note_on_c, 0, 65, 97
1, 73494, Note_off_c, 0, 53, 63
1, 73498, Note_off_c, 0, 59, 64
1, 73498, Control_c, 0, 64, 88
1, 73513, Control_c, 0, 64, 65
1, 73527, Control_c, 0, 64, 46
1, 73542, Control_c, 0, 64, 44
1, 73557, Control_c, 0, 64, 61
1, 73561, Note_on_c, 0, 59, 73
1, 73562, Note_off_c, 0, 48, 63
1, 73564, Poly_aftertouch_c, 0, 51, 0
1, 73572, Note_on_c, 0, 53, 67
1, 73572, Control_c, 0, 64, 78
1, 73578, Note_off_c, 0, 56, 64
1, 73587, Control_c, 0, 64, 117
1, 73601, Note_off_c, 0, 65, 61
1, 73602, Control_c, 0, 64, 127
1, 73632, Note_off_c, 0, 59, 64
1, 73673, Note_on_c, 0, 56, 89
1, 73677, Note_on_c, 0, 48, 89
1, 73695, Note_off_c, 0, 53, 62
1, 73731, Note_off_c, 0, 56, 63
1, 73754, Note_off_c, 0, 48, 64
1, 73947, Note_on_c, 0, 51, 106
1, 73960, Note_on_c, 0, 36, 95
1, 73994, Control_c, 0, 64, 100
1, 74008, Control_c, 0, 64, 66
1, 74023, Control_c, 0, 64, 39
1, 74038, Control_c, 0, 64, 0
1, 74054, Control_c, 0, 64, 38
1, 74069, Control_c, 0, 64, 66
1, 74083, Control_c, 0, 64, 86
1, 74085, Note_on_c, 0, 55, 71
1, 74088, Note_on_c, 0, 43, 61
1, 74098, Control_c, 0, 64, 127
1, 74100, Note_off_c, 0, 51, 64
1, 74109, Note_off_c, 0, 36, 59
1, 74139, Note_off_c, 0, 43, 63
1, 74147, Note_off_c, 0, 55, 61
1, 74161, Note_on_c, 0, 48, 70
1, 74168, Note_on_c, 0, 63, 59
1, 74210, Note_off_c, 0, 48, 63
1, 74217, Note_off_c, 0, 63, 57
1, 74273, Note_on_c, 0, 48, 70
1, 74294, Note_on_c, 0, 63, 74
1, 74380, Note_on_c, 0, 55, 69
1, 74386, Note_on_c, 0, 67, 70
1, 74398, Note_off_c, 0, 63, 63
1, 74410, Note_off_c, 0, 48, 52
1, 74411, Note_off_c, 0, 55, 65
1, 74434, Note_off_c, 0, 67, 61
1, 74450, Note_on_c, 0, 60, 68
1, 74455, Note_on_c, 0, 75, 63
1, 74486, Note_off_c, 0, 60, 64
1, 74491, Note_off_c, 0, 75, 64
1, 74553, Note_on_c, 0, 60, 63
1, 74560, Note_on_c, 0, 75, 78
1, 74619, Note_on_c, 0, 79, 76
1, 74621, Note_on_c, 0, 67, 67
1, 74639, Note_off_c, 0, 75, 63
1, 74652, Note_off_c, 0, 67, 58
1, 74680, Note_on_c, 0, 72, 84
1, 74684, Note_on_c, 0, 87, 92
1, 74702, Note_off_c, 0, 79, 64
1, 74741, Note_off_c, 0, 60, 61
1, 74760, Note_on_c, 0, 67, 75
1, 74764, Note_off_c, 0, 72, 63
1, 74773, Note_on_c, 0, 79, 82
1, 74783, Note_off_c, 0, 87, 67
1, 74815, Note_off_c, 0, 79, 66
1, 74820, Note_off_c, 0, 67, 63
1, 74830, Note_on_c, 0, 75, 67
1, 74841, Note_on_c, 0, 60, 61
1, 74848, Note_off_c, 0, 75, 67
1, 74860, Note_off_c, 0, 60, 64
1, 74914, Note_on_c, 0, 75, 83
1, 74918, Note_on_c, 0, 60, 69
1, 74949, Note_on_c, 0, 59, 40
1, 74975, Note_off_c, 0, 60, 62
1, 74976, Note_off_c, 0, 59, 58
1, 74979, Note_on_c, 0, 67, 83
1, 74981, Note_on_c, 0, 55, 75
1, 75013, Note_off_c, 0, 75, 65
1, 75029, Note_on_c, 0, 48, 75
1, 75029, Note_off_c, 0, 55, 61
1, 75039, Note_off_c, 0, 67, 66
1, 75058, Note_on_c, 0, 63, 66
1, 75063, Note_off_c, 0, 48, 63
1, 75074, Note_off_c, 0, 63, 73
1, 75107, Note_on_c, 0, 48, 82
1, 75141, Note_on_c, 0, 63, 70
1, 75158, Note_on_c, 0, 43, 82
1, 75165, Note_off_c, 0, 48, 64
1, 75178, Note_on_c, 0, 54, 42
1, 75215, Note_on_c, 0, 36, 91
1, 75236, Note_off_c, 0, 63, 63
1, 75253, Note_off_c, 0, 43, 64
1, 75270, Poly_aftertouch_c, 0, 55, 127
1, 75284, Note_on_c, 0, 50, 106
1, 75292, Control_c, 0, 64, 83
1, 75298, Poly_aftertouch_c, 0, 55, 0
1, 75306, Control_c, 0, 64, 56
1, 75321, Control_c, 0, 64, 0
1, 75323, Poly_aftertouch_c, 0, 40, 127
1, 75333, Note_on_c, 0, 41, 70
1, 75351, Control_c, 0, 64, 52
1, 75364, Note_off_c, 0, 36, 64
1, 75366, Control_c, 0, 64, 71
1, 75367, Poly_aftertouch_c, 0, 40, 0
1, 75373, Note_off_c, 0, 54, 16
1, 75375, Note_on_c, 0, 56, 60
1, 75380, Control_c, 0, 64, 94
1, 75384, Note_off_c, 0, 41, 61
1, 75385, Note_off_c, 0, 50, 52
1, 75395, Control_c, 0, 64, 127
1, 75399, Note_on_c, 0, 52, 26
1, 75414, Note_on_c, 0, 48, 73
1, 75436, Note_off_c, 0, 56, 64
1, 75439, Note_off_c, 0, 52, 43
1, 75441, Note_on_c, 0, 62, 60
1, 75447, Note_off_c, 0, 48, 65
1, 75474, Note_off_c, 0, 62, 67
1, 75513, Note_on_c, 0, 48, 75
1, 75527, Note_on_c, 0, 62, 80
1, 75581, Note_on_c, 0, 53, 65
1, 75583, Note_off_c, 0, 62, 61
1, 75592, Note_on_c, 0, 68, 76
1, 75593, Note_off_c, 0, 48, 58
1, 75617, Note_off_c, 0, 53, 63
1, 75638, Poly_aftertouch_c, 0, 52, 0
1, 75650, Note_on_c, 0, 60, 64
1, 75653, Note_off_c, 0, 68, 66
1, 75680, Note_off_c, 0, 60, 64
1, 75682, Note_on_c, 0, 74, 44
1, 75710, Note_off_c, 0, 74, 54
1, 75745, Note_on_c, 0, 60, 64
1, 75752, Note_on_c, 0, 74, 78
1, 75781, Note_on_c, 0, 62, 36
1, 75795, Note_on_c, 0, 65, 75
1, 75814, Note_on_c, 0, 80, 85
1, 75814, Note_off_c, 0, 62, 34
1, 75827, Note_off_c, 0, 74, 64
1, 75829, Note_on_c, 0, 64, 26
1, 75852, Note_off_c, 0, 65, 62
1, 75866, Note_on_c, 0, 72, 83
1, 75873, Note_off_c, 0, 64, 49
1, 75877, Note_on_c, 0, 86, 96
1, 75880, Note_off_c, 0, 80, 62
1, 75905, Note_off_c, 0, 60, 57
1, 75924, Note_off_c, 0, 72, 64
1, 75941, Note_on_c, 0, 80, 91
1, 75954, Note_on_c, 0, 65, 75
1, 75964, Note_off_c, 0, 86, 65
1, 76000, Note_off_c, 0, 80, 64
1, 76006, Note_off_c, 0, 65, 64
1, 76014, Note_on_c, 0, 74, 70
1, 76022, Note_on_c, 0, 60, 56
1, 76047, Note_off_c, 0, 74, 66
1, 76060, Note_off_c, 0, 60, 0
1, 76070, Note_on_c, 0, 60, 67
1, 76088, Note_on_c, 0, 74, 83
1, 76123, Note_off_c, 0, 60, 63
1, 76145, Note_on_c, 0, 53, 79
1, 76160, Note_on_c, 0, 68, 92
1, 76179, Note_off_c, 0, 74, 64
1, 76201, Note_off_c, 0, 53, 62
1, 76209, Note_off_c, 0, 68, 66
1, 76218, Note_on_c, 0, 48, 60
1, 76234, Note_on_c, 0, 62, 79
1, 76247, Note_off_c, 0, 48, 61
1, 76267, Note_off_c, 0, 62, 67
1, 76270, Note_on_c, 0, 48, 76
1, 76322, Note_on_c, 0, 62, 62
1, 76335, Note_on_c, 0, 60, 65
1, 76340, Note_off_c, 0, 48, 65
1, 76344, Note_on_c, 0, 41, 82
1, 76362, Poly_aftertouch_c, 0, 50, 0
1, 76392, Note_off_c, 0, 60, 0
1, 76392, Note_on_c, 0, 60, 23
1, 76394, Note_on_c, 0, 56, 71
1, 76418, Note_on_c, 0, 36, 93
1, 76419, Note_off_c, 0, 62, 62
1, 76431, Note_off_c, 0, 41, 64
1, 76487, Note_off_c, 0, 56, 62
1, 76496, Note_on_c, 0, 52, 105
1, 76508, Control_c, 0, 64, 111
1, 76522, Note_on_c, 0, 58, 69
1, 76523, Control_c, 0, 64, 65
1, 76538, Control_c, 0, 64, 21
1, 76540, Note_off_c, 0, 58, 62
1, 76541, Note_off_c, 0, 60, 49
1, 76553, Control_c, 0, 64, 0
1, 76568, Control_c, 0, 64, 26
1, 76577, Note_on_c, 0, 43, 69
1, 76583, Control_c, 0, 64, 62
1, 76595, Note_on_c, 0, 58, 79
1, 76598, Control_c, 0, 64, 86
1, 76604, Note_off_c, 0, 36, 64
1, 76613, Control_c, 0, 64, 127
1, 76617, Note_off_c, 0, 52, 60
1, 76620, Note_off_c, 0, 43, 65
1, 76642, Note_on_c, 0, 48, 73
1, 76680, Note_on_c, 0, 64, 56
1, 76680, Note_off_c, 0, 58, 65
1, 76686, Note_off_c, 0, 48, 64
1, 76710, Note_off_c, 0, 64, 64
1, 76739, Note_on_c, 0, 48, 68
1, 76756, Note_on_c, 0, 64, 71
1, 76812, Note_on_c, 0, 55, 69
1, 76818, Note_off_c, 0, 64, 60
1, 76825, Note_on_c, 0, 70, 83
1, 76844, Note_off_c, 0, 48, 63
1, 76844, Note_off_c, 0, 55, 64
1, 76877, Note_on_c, 0, 60, 69
1, 76891, Note_off_c, 0, 70, 65
1, 76893, Note_on_c, 0, 76, 71
1, 76914, Note_off_c, 0, 60, 63
1, 76927, Note_off_c, 0, 76, 62
1, 76985, Note_on_c, 0, 76, 88
1, 76995, Note_on_c, 0, 60, 64
1, 77030, Note_on_c, 0, 62, 35
1, 77031, Note_off_c, 0, 62, 127
1, 77051, Note_on_c, 0, 82, 87
1, 77060, Note_on_c, 0, 67, 73
1, 77066, Note_off_c, 0, 76, 63
1, 77113, Note_on_c, 0, 88, 102
1, 77120, Note_on_c, 0, 72, 87
1, 77121, Note_off_c, 0, 67, 59
1, 77124, Note_off_c, 0, 82, 65
1, 77156, Poly_aftertouch_c, 0, 62, 127
1, 77179, Note_off_c, 0, 60, 59
1, 77191, Note_on_c, 0, 82, 97
1, 77194, Note_off_c, 0, 72, 64
1, 77206, Poly_aftertouch_c, 0, 62, 0
1, 77211, Note_on_c, 0, 67, 76
1, 77215, Note_off_c, 0, 88, 68
1, 77257, Note_off_c, 0, 82, 64
1, 77266, Note_off_c, 0, 67, 63
1, 77269, Note_on_c, 0, 76, 77
1, 77277, Note_on_c, 0, 60, 66
1, 77304, Note_off_c, 0, 60, 64
1, 77309, Note_off_c, 0, 76, 63
1, 77347, Note_on_c, 0, 76, 78
1, 77354, Note_on_c, 0, 60, 79
1, 77423, Note_off_c, 0, 60, 62
1, 77424, Note_on_c, 0, 70, 91
1, 77438, Note_on_c, 0, 57, 56
1, 77439, Note_on_c, 0, 55, 55
1, 77459, Note_off_c, 0, 76, 64
1, 77472, Note_off_c, 0, 57, 62
1, 77484, Note_on_c, 0, 48, 72
1, 77486, Note_off_c, 0, 55, 63
1, 77489, Note_off_c, 0, 70, 65
1, 77504, Note_on_c, 0, 64, 81
1, 77530, Note_off_c, 0, 48, 63
1, 77549, Note_off_c, 0, 64, 67
1, 77563, Note_on_c, 0, 48, 69
1, 77590, Note_on_c, 0, 64, 75
1, 77654, Note_on_c, 0, 43, 72
1, 77674, Note_off_c, 0, 48, 61
1, 77678, Note_on_c, 0, 58, 87
1, 77819, Note_on_c, 0, 37, 94
1, 77825, Note_on_c, 0, 53, 110
1, 77841, Note_off_c, 0, 58, 59
1, 77862, Note_off_c, 0, 43, 62
1, 77886, Control_c, 0, 64, 97
1, 77900, Control_c, 0, 64, 60
1, 77915, Control_c, 0, 64, 0
1, 77918, Note_off_c, 0, 64, 64
1, 77960, Control_c, 0, 64, 40
1, 77974, Control_c, 0, 64, 67
1, 77989, Control_c, 0, 64, 90
1, 78002, Note_on_c, 0, 56, 84
1, 78004, Note_on_c, 0, 44, 67
1, 78004, Control_c, 0, 64, 127
1, 78022, Note_off_c, 0, 53, 58
1, 78044, Note_off_c, 0, 37, 62
1, 78067, Note_off_c, 0, 44, 63
1, 78067, Note_off_c, 0, 56, 65
1, 78091, Note_on_c, 0, 65, 72
1, 78093, Note_on_c, 0, 49, 65
1, 78120, Note_off_c, 0, 49, 65
1, 78141, Note_off_c, 0, 65, 64
1, 78187, Note_on_c, 0, 65, 72
1, 78198, Note_on_c, 0, 49, 63
1, 78257, Note_on_c, 0, 56, 72
1, 78264, Note_off_c, 0, 65, 53
1, 78269, Note_on_c, 0, 68, 83
1, 78280, Note_off_c, 0, 49, 62
1, 78297, Note_off_c, 0, 56, 56
1, 78307, Note_off_c, 0, 68, 66
1, 78336, Note_on_c, 0, 61, 61
1, 78339, Note_on_c, 0, 77, 61
1, 78356, Note_off_c, 0, 61, 64
1, 78365, Note_off_c, 0, 77, 68
1, 78432, Note_on_c, 0, 61, 69
1, 78433, Note_on_c, 0, 77, 63
1, 78439, Note_on_c, 0, 79, 74
1, 78491, Note_on_c, 0, 80, 81
1, 78498, Note_on_c, 0, 68, 73
1, 78500, Note_off_c, 0, 79, 62
1, 78505, Note_off_c, 0, 77, 66
1, 78550, Note_off_c, 0, 68, 64
1, 78553, Note_on_c, 0, 89, 98
1, 78571, Note_on_c, 0, 73, 81
1, 78571, Note_off_c, 0, 80, 61
1, 78584, Note_off_c, 0, 61, 58
1, 78627, Note_off_c, 0, 73, 65
1, 78634, Note_on_c, 0, 80, 81
1, 78634, Note_on_c, 0, 68, 72
1, 78647, Note_off_c, 0, 89, 65
1, 78670, Poly_aftertouch_c, 0, 65, 0
1, 78675, Note_off_c, 0, 68, 65
1, 78682, Note_on_c, 0, 61, 69
1, 78696, Note_off_c, 0, 80, 64
1, 78705, Note_on_c, 0, 77, 61
1, 78713, Note_off_c, 0, 61, 66
1, 78724, Note_off_c, 0, 77, 66
1, 78774, Note_on_c, 0, 61, 79
1, 78776, Note_on_c, 0, 77, 82
1, 78842, Note_off_c, 0, 61, 64
1, 78850, Note_on_c, 0, 56, 65
1, 78852, Note_on_c, 0, 68, 88
1, 78860, Note_off_c, 0, 77, 65
1, 78883, Note_on_c, 0, 49, 73
1, 78902, Note_off_c, 0, 56, 59
1, 78914, Note_off_c, 0, 68, 65
1, 78917, Note_on_c, 0, 65, 78
1, 78935, Note_off_c, 0, 49, 64
1, 78957, Note_off_c, 0, 65, 63
1, 79005, Note_on_c, 0, 65, 62
1, 79024, Note_on_c, 0, 48, 43
1, 79030, Note_on_c, 0, 47, 50
1, 79062, Note_off_c, 0, 47, 54
1, 79065, Note_off_c, 0, 48, 58
1, 79070, Note_off_c, 0, 65, 63
1, 79071, Note_on_c, 0, 56, 75
1, 79096, Note_on_c, 0, 44, 28
1, 79156, Note_off_c, 0, 44, 42
1, 79209, Note_on_c, 0, 37, 96
1, 79258, Note_on_c, 0, 39, 54
1, 79289, Note_off_c, 0, 56, 59
1, 79306, Note_off_c, 0, 39, 46
1, 79309, Note_on_c, 0, 53, 94
1, 79310, Control_c, 0, 64, 77
1, 79325, Control_c, 0, 64, 44
1, 79340, Control_c, 0, 64, 0
1, 79354, Control_c, 0, 64, 23
1, 79369, Control_c, 0, 64, 59
1, 79384, Control_c, 0, 64, 81
1, 79399, Control_c, 0, 64, 127
1, 79438, Note_off_c, 0, 53, 55
1, 79462, Note_on_c, 0, 44, 52
1, 79468, Note_on_c, 0, 56, 54
1, 79487, Note_off_c, 0, 37, 60
1, 79498, Note_off_c, 0, 44, 63
1, 79503, Note_off_c, 0, 56, 63
1, 79540, Note_on_c, 0, 65, 57
1, 79549, Note_on_c, 0, 49, 43
1, 79576, Note_off_c, 0, 65, 62
1, 79579, Note_off_c, 0, 49, 51
1, 79648, Note_on_c, 0, 65, 69
1, 79658, Note_on_c, 0, 49, 63
1, 79707, Note_off_c, 0, 65, 54
1, 79722, Note_on_c, 0, 56, 52
1, 79728, Note_on_c, 0, 68, 71
1, 79731, Note_off_c, 0, 49, 59
1, 79746, Note_off_c, 0, 56, 60
1, 79769, Note_off_c, 0, 68, 65
1, 79784, Note_on_c, 0, 61, 56
1, 79789, Note_on_c, 0, 77, 58
1, 79811, Note_off_c, 0, 61, 65
1, 79820, Note_off_c, 0, 77, 67
1, 79886, Note_on_c, 0, 77, 74
1, 79919, Note_on_c, 0, 61, 36
1, 79942, Note_on_c, 0, 80, 69
1, 79945, Note_off_c, 0, 77, 60
1, 79946, Note_on_c, 0, 68, 59
1, 79984, Note_off_c, 0, 68, 66
1, 80001, Note_off_c, 0, 80, 63
1, 80016, Poly_aftertouch_c, 0, 79, 0
1, 80019, Note_on_c, 0, 89, 74
1, 80029, Note_on_c, 0, 73, 60
1, 80036, Note_off_c, 0, 61, 27
1, 80059, Note_off_c, 0, 73, 66
1, 80077, Note_on_c, 0, 68, 61
1, 80077, Note_off_c, 0, 89, 64
1, 80095, Note_on_c, 0, 80, 83
1, 80107, Note_off_c, 0, 68, 66
1, 80127, Note_on_c, 0, 61, 65
1, 80132, Note_off_c, 0, 80, 61
1, 80154, Note_on_c, 0, 77, 55
1, 80155, Note_off_c, 0, 61, 66
1, 80172, Note_off_c, 0, 77, 66
1, 80220, Note_on_c, 0, 61, 72
1, 80235, Note_on_c, 0, 77, 80
1, 80270, Note_off_c, 0, 61, 63
1, 80291, Note_on_c, 0, 56, 60
1, 80299, Note_on_c, 0, 68, 81
1, 80303, Note_off_c, 0, 77, 64
1, 80316, Note_on_c, 0, 49, 67
1, 80323, Note_off_c, 0, 56, 64
1, 80347, Note_off_c, 0, 49, 64
1, 80348, Note_off_c, 0, 68, 65
1, 80366, Note_on_c, 0, 65, 62
1, 80395, Note_off_c, 0, 65, 66
1, 80413, Note_on_c, 0, 49, 76
1, 80447, Note_on_c, 0, 65, 72
1, 80497, Note_on_c, 0, 56, 76
1, 80501, Note_off_c, 0, 65, 62
1, 80506, Note_on_c, 0, 43, 52
1, 80508, Note_off_c, 0, 49, 63
1, 80556, Note_off_c, 0, 43, 58
1, 80591, Note_on_c, 0, 37, 87
1, 80595, Note_on_c, 0, 52, 95
1, 80622, Control_c, 0, 64, 76
1, 80637, Control_c, 0, 64, 54
1, 80641, Note_off_c, 0, 56, 29
1, 80652, Control_c, 0, 64, 46
1, 80666, Control_c, 0, 64, 61
1, 80681, Control_c, 0, 64, 79
1, 80685, Note_on_c, 0, 43, 53
1, 80690, Note_on_c, 0, 58, 74
1, 80696, Control_c, 0, 64, 127
1, 80708, Note_off_c, 0, 52, 62
1, 80721, Note_off_c, 0, 37, 60
1, 80725, Note_off_c, 0, 43, 64
1, 80750, Note_on_c, 0, 49, 69
1, 80759, Note_off_c, 0, 58, 66
1, 80760, Note_on_c, 0, 64, 61
1, 80776, Note_off_c, 0, 49, 67
1, 80790, Note_off_c, 0, 64, 66
1, 80849, Note_on_c, 0, 64, 76
1, 80850, Note_on_c, 0, 49, 61
1, 80890, Note_on_c, 0, 55, 63
1, 80908, Note_off_c, 0, 64, 61
1, 80909, Note_on_c, 0, 70, 74
1, 80937, Note_off_c, 0, 49, 61
1, 80944, Note_off_c, 0, 55, 64
1, 80977, Note_on_c, 0, 76, 59
1, 80979, Note_off_c, 0, 70, 64
1, 80980, Note_on_c, 0, 61, 61
1, 81004, Note_off_c, 0, 61, 66
1, 81006, Note_off_c, 0, 76, 64
1, 81066, Note_on_c, 0, 76, 81
1, 81078, Note_on_c, 0, 61, 71
1, 81110, Note_on_c, 0, 67, 65
1, 81132, Note_on_c, 0, 82, 77
1, 81138, Note_off_c, 0, 76, 61
1, 81166, Note_off_c, 0, 67, 65
1, 81190, Note_on_c, 0, 88, 84
1, 81191, Note_on_c, 0, 73, 78
1, 81194, Note_off_c, 0, 82, 64
1, 81197, Note_off_c, 0, 61, 62
1, 81240, Note_off_c, 0, 73, 66
1, 81252, Note_on_c, 0, 82, 89
1, 81266, Note_on_c, 0, 67, 65
1, 81275, Note_off_c, 0, 88, 66
1, 81303, Note_off_c, 0, 67, 65
1, 81308, Note_on_c, 0, 61, 74
1, 81317, Note_off_c, 0, 82, 64
1, 81323, Poly_aftertouch_c, 0, 84, 0
1, 81329, Note_on_c, 0, 76, 69
1, 81333, Note_off_c, 0, 61, 62
1, 81358, Note_off_c, 0, 76, 68
1, 81388, Note_on_c, 0, 61, 79
1, 81408, Note_on_c, 0, 76, 80
1, 81414, Note_on_c, 0, 77, 61
1, 81434, Note_off_c, 0, 77, 65
1, 81450, Note_off_c, 0, 61, 65
1, 81473, Note_on_c, 0, 70, 93
1, 81480, Note_on_c, 0, 55, 69
1, 81484, Note_off_c, 0, 76, 64
1, 81531, Note_off_c, 0, 55, 63
1, 81533, Note_off_c, 0, 70, 64
1, 81536, Note_on_c, 0, 49, 76
1, 81544, Note_on_c, 0, 64, 77
1, 81558, Note_off_c, 0, 49, 66
1, 81580, Note_off_c, 0, 64, 67
1, 81609, Note_on_c, 0, 49, 84
1, 81619, Note_on_c, 0, 64, 74
1, 81677, Note_on_c, 0, 58, 85
1, 81681, Note_on_c, 0, 43, 75
1, 81682, Note_on_c, 0, 42, 40
1, 81687, Note_off_c, 0, 49, 64
1, 81715, Note_off_c, 0, 42, 54
1, 81726, Poly_aftertouch_c, 0, 60, 127
1, 81728, Note_off_c, 0, 43, 64
1, 81744, Note_on_c, 0, 37, 95
1, 81759, Note_off_c, 0, 58, 66
1, 81760, Note_off_c, 0, 64, 62
1, 81763, Control_c, 0, 64, 83
1, 81766, Note_on_c, 0, 53, 98
1, 81766, Poly_aftertouch_c, 0, 60, 0
1, 81778, Control_c, 0, 64, 27
1, 81793, Control_c, 0, 64, 0
1, 81844, Note_on_c, 0, 44, 85
1, 81852, Control_c, 0, 64, 64
1, 81856, Note_on_c, 0, 59, 77
1, 81866, Control_c, 0, 64, 89
1, 81877, Note_off_c, 0, 53, 61
1, 81881, Control_c, 0, 64, 127
1, 81883, Note_off_c, 0, 37, 62
1, 81899, Note_off_c, 0, 44, 63
1, 81927, Note_off_c, 0, 59, 65
1, 81929, Note_on_c, 0, 65, 66
1, 81936, Note_on_c, 0, 49, 43
1, 81954, Note_off_c, 0, 65, 65
1, 81967, Note_off_c, 0, 49, 53
1, 82005, Note_on_c, 0, 65, 81
1, 82017, Note_on_c, 0, 49, 64
1, 82064, Note_on_c, 0, 56, 76
1, 82074, Note_on_c, 0, 71, 76
1, 82074, Note_off_c, 0, 49, 58
1, 82083, Note_off_c, 0, 65, 62
1, 82086, Note_off_c, 0, 56, 66
1, 82132, Note_on_c, 0, 61, 69
1, 82132, Note_off_c, 0, 71, 65
1, 82141, Note_on_c, 0, 77, 62
1, 82158, Note_off_c, 0, 61, 66
1, 82163, Note_off_c, 0, 77, 66
1, 82232, Note_on_c, 0, 77, 83
1, 82235, Note_on_c, 0, 61, 69
1, 82282, Note_on_c, 0, 83, 87
1, 82289, Note_on_c, 0, 68, 75
1, 82295, Note_off_c, 0, 77, 66
1, 82344, Note_off_c, 0, 68, 65
1, 82354, Note_on_c, 0, 89, 99
1, 82362, Note_off_c, 0, 61, 56
1, 82366, Note_on_c, 0, 73, 81
1, 82377, Note_off_c, 0, 83, 66
1, 82412, Note_off_c, 0, 73, 66
1, 82428, Note_on_c, 0, 68, 70
1, 82428, Note_on_c, 0, 83, 92
1, 82452, Note_off_c, 0, 89, 65
1, 82456, Note_off_c, 0, 68, 65
1, 82470, Note_on_c, 0, 61, 74
1, 82481, Note_off_c, 0, 83, 67
1, 82494, Note_off_c, 0, 61, 66
1, 82496, Note_on_c, 0, 77, 65
1, 82522, Note_off_c, 0, 77, 68
1, 82545, Note_on_c, 0, 61, 75
1, 82571, Note_on_c, 0, 77, 92
1, 82620, Note_off_c, 0, 61, 63
1, 82629, Note_on_c, 0, 71, 85
1, 82632, Note_on_c, 0, 56, 68
1, 82657, Note_off_c, 0, 77, 65
1, 82661, Note_on_c, 0, 49, 73
1, 82668, Note_off_c, 0, 56, 62
1, 82670, Note_on_c, 0, 72, 21
1, 82688, Note_off_c, 0, 71, 66
1, 82693, Note_off_c, 0, 49, 67
1, 82707, Note_off_c, 0, 72, 38
1, 82709, Note_on_c, 0, 65, 68
1, 82730, Note_off_c, 0, 65, 68
1, 82751, Note_on_c, 0, 49, 90
1, 82759, Poly_aftertouch_c, 0, 51, 0
1, 82783, Note_on_c, 0, 65, 88
1, 82815, Note_off_c, 0, 49, 66
1, 82836, Note_on_c, 0, 43, 54
1, 82847, Note_on_c, 0, 59, 70
1, 82893, Note_off_c, 0, 59, 63
1, 82898, Poly_aftertouch_c, 0, 48, 0
1, 82911, Note_on_c, 0, 38, 95
1, 82914, Note_on_c, 0, 55, 97
1, 82920, Note_off_c, 0, 65, 60
1, 82926, Poly_aftertouch_c, 0, 48, 0
1, 82928, Control_c, 0, 64, 69
1, 82941, Note_off_c, 0, 43, 55
1, 82943, Control_c, 0, 64, 30
1, 82961, Note_on_c, 0, 64, 41
1, 82965, Control_c, 0, 64, 0
1, 82980, Control_c, 0, 64, 37
1, 82992, Note_off_c, 0, 64, 34
1, 82993, Note_on_c, 0, 59, 62
1, 82995, Control_c, 0, 64, 61
1, 83000, Note_on_c, 0, 43, 55
1, 83010, Control_c, 0, 64, 80
1, 83022, Note_off_c, 0, 55, 64
1, 83025, Control_c, 0, 64, 127
1, 83030, Note_off_c, 0, 38, 63
1, 83040, Note_off_c, 0, 43, 62
1, 83048, Note_on_c, 0, 50, 78
1, 83057, Note_off_c, 0, 59, 66
1, 83082, Note_on_c, 0, 67, 54
1, 83099, Note_off_c, 0, 50, 66
1, 83108, Note_off_c, 0, 67, 58
1, 83145, Note_on_c, 0, 67, 83
1, 83165, Note_on_c, 0, 50, 72
1, 83202, Note_on_c, 0, 52, 34
1, 83210, Note_on_c, 0, 71, 90
1, 83211, Note_on_c, 0, 55, 64
1, 83221, Note_off_c, 0, 67, 64
1, 83242, Note_off_c, 0, 52, 44
1, 83263, Note_off_c, 0, 55, 62
1, 83268, Note_off_c, 0, 50, 65
1, 83269, Note_on_c, 0, 62, 75
1, 83272, Note_on_c, 0, 79, 88
1, 83277, Note_off_c, 0, 71, 64
1, 83315, Note_off_c, 0, 62, 66
1, 83331, Note_on_c, 0, 71, 91
1, 83361, Note_off_c, 0, 79, 65
1, 83361, Note_on_c, 0, 55, 62
1, 83368, Note_on_c, 0, 50, 83
1, 83380, Note_off_c, 0, 71, 67
1, 83386, Note_on_c, 0, 67, 89
1, 83390, Note_off_c, 0, 55, 63
1, 83406, Note_off_c, 0, 50, 65
1, 83409, Note_off_c, 0, 67, 69
1, 83491, Note_on_c, 0, 56, 101
1, 83503, Note_on_c, 0, 38, 82
1, 83513, Control_c, 0, 64, 73
1, 83528, Control_c, 0, 64, 47
1, 83529, Note_on_c, 0, 62, 45
1, 83543, Control_c, 0, 64, 23
1, 83558, Control_c, 0, 64, 49
1, 83561, Note_off_c, 0, 62, 39
1, 83564, Note_on_c, 0, 59, 77
1, 83573, Control_c, 0, 64, 69
1, 83587, Note_off_c, 0, 38, 63
1, 83587, Control_c, 0, 64, 88
1, 83595, Note_on_c, 0, 41, 59
1, 83597, Note_off_c, 0, 56, 63
1, 83600, Note_on_c, 0, 40, 30
1, 83602, Control_c, 0, 64, 127
1, 83624, Note_off_c, 0, 41, 59
1, 83629, Note_off_c, 0, 59, 66
1, 83636, Note_on_c, 0, 50, 72
1, 83644, Note_off_c, 0, 40, 46
1, 83660, Note_on_c, 0, 68, 60
1, 83674, Note_off_c, 0, 50, 68
1, 83680, Note_off_c, 0, 68, 62
1, 83737, Note_on_c, 0, 68, 90
1, 83739, Note_on_c, 0, 50, 79
1, 83797, Note_on_c, 0, 71, 81
1, 83806, Note_on_c, 0, 53, 58
1, 83821, Note_off_c, 0, 68, 65
1, 83844, Note_off_c, 0, 53, 61
1, 83865, Note_on_c, 0, 62, 74
1, 83867, Note_on_c, 0, 80, 86
1, 83868, Note_off_c, 0, 50, 64
1, 83875, Note_off_c, 0, 71, 62
1, 83896, Note_off_c, 0, 62, 67
1, 83931, Note_on_c, 0, 53, 71
1, 83934, Note_on_c, 0, 71, 83
1, 83954, Note_on_c, 0, 73, 40
1, 83970, Note_off_c, 0, 80, 62
1, 83979, Note_off_c, 0, 73, 60
1, 84002, Note_on_c, 0, 68, 88
1, 84005, Note_off_c, 0, 71, 65
1, 84008, Note_on_c, 0, 50, 82
1, 84018, Note_off_c, 0, 53, 62
1, 84026, Note_on_c, 0, 52, 49
1, 84039, Note_off_c, 0, 68, 63
1, 84053, Note_off_c, 0, 52, 53
1, 84056, Note_off_c, 0, 50, 67
1, 84207, Note_on_c, 0, 55, 97
1, 84229, Note_on_c, 0, 39, 77
1, 84277, Control_c, 0, 64, 67
1, 84292, Control_c, 0, 64, 22
1, 84306, Control_c, 0, 64, 0
1, 84321, Control_c, 0, 64, 40
1, 84336, Control_c, 0, 64, 67
1, 84350, Control_c, 0, 64, 97
1, 84365, Control_c, 0, 64, 127
1, 84452, Note_on_c, 0, 48, 56
1, 84468, Note_off_c, 0, 55, 60
1, 84470, Note_on_c, 0, 60, 49
1, 84486, Note_on_c, 0, 59, 41
1, 84499, Note_off_c, 0, 39, 61
1, 84512, Note_off_c, 0, 48, 64
1, 84516, Note_off_c, 0, 59, 55
1, 84529, Note_off_c, 0, 60, 61
1, 84536, Note_on_c, 0, 51, 60
1, 84539, Note_on_c, 0, 67, 65
1, 84562, Note_off_c, 0, 51, 67
1, 84585, Note_off_c, 0, 67, 60
1, 84643, Note_on_c, 0, 67, 70
1, 84645, Note_on_c, 0, 51, 67
1, 84707, Note_on_c, 0, 59, 34
1, 84709, Note_on_c, 0, 72, 77
1, 84714, Note_off_c, 0, 67, 61
1, 84715, Note_on_c, 0, 60, 58
1, 84736, Note_off_c, 0, 59, 48
1, 84743, Note_off_c, 0, 51, 63
1, 84753, Note_off_c, 0, 60, 64
1, 84768, Note_on_c, 0, 63, 77
1, 84774, Note_off_c, 0, 72, 64
1, 84786, Note_on_c, 0, 79, 57
1, 84797, Note_off_c, 0, 63, 67
1, 84805, Note_off_c, 0, 79, 63
1, 84861, Note_on_c, 0, 79, 80
1, 84874, Note_on_c, 0, 63, 55
1, 84906, Note_on_c, 0, 84, 88
1, 84918, Note_on_c, 0, 72, 59
1, 84932, Note_off_c, 0, 79, 65
1, 84980, Note_on_c, 0, 75, 88
1, 84981, Note_on_c, 0, 91, 97
1, 84983, Note_off_c, 0, 63, 62
1, 84992, Note_off_c, 0, 72, 63
1, 85001, Note_off_c, 0, 84, 65
1, 85028, Note_on_c, 0, 67, 19
1, 85037, Note_off_c, 0, 75, 65
1, 85046, Note_on_c, 0, 72, 74
1, 85051, Note_on_c, 0, 84, 80
1, 85068, Note_off_c, 0, 67, 41
1, 85075, Note_off_c, 0, 91, 65
1, 85094, Note_off_c, 0, 72, 64
1, 85105, Note_on_c, 0, 63, 76
1, 85113, Note_off_c, 0, 84, 67
1, 85118, Note_on_c, 0, 79, 76
1, 85143, Note_off_c, 0, 63, 66
1, 85151, Poly_aftertouch_c, 0, 86, 0
1, 85153, Note_off_c, 0, 79, 65
1, 85196, Note_on_c, 0, 63, 85
1, 85201, Note_on_c, 0, 79, 85
1, 85267, Note_off_c, 0, 63, 65
1, 85276, Note_on_c, 0, 72, 82
1, 85282, Note_on_c, 0, 60, 66
1, 85302, Note_off_c, 0, 79, 65
1, 85314, Note_off_c, 0, 60, 63
1, 85331, Note_off_c, 0, 72, 65
1, 85346, Note_on_c, 0, 51, 39
1, 85355, Note_on_c, 0, 67, 68
1, 85371, Poly_aftertouch_c, 0, 74, 0
1, 85373, Note_off_c, 0, 67, 66
1, 85376, Note_off_c, 0, 51, 55
1, 85386, Poly_aftertouch_c, 0, 74, 0
1, 85405, Note_on_c, 0, 51, 76
1, 85423, Note_on_c, 0, 67, 89
1, 85464, Note_off_c, 0, 51, 67
1, 85478, Note_on_c, 0, 48, 80
1, 85482, Note_on_c, 0, 60, 79
1, 85496, Note_off_c, 0, 67, 63
1, 85512, Note_off_c, 0, 60, 65
1, 85555, Note_on_c, 0, 40, 92
1, 85585, Note_off_c, 0, 48, 64
1, 85666, Note_on_c, 0, 60, 108
1, 85685, Control_c, 0, 64, 81
1, 85687, Note_on_c, 0, 66, 33
1, 85700, Control_c, 0, 64, 38
1, 85714, Control_c, 0, 64, 0
1, 85718, Note_off_c, 0, 66, 55
1, 85759, Control_c, 0, 64, 59
1, 85764, Note_on_c, 0, 48, 74
1, 85774, Control_c, 0, 64, 82
1, 85776, Note_on_c, 0, 67, 40
1, 85787, Note_off_c, 0, 40, 62
1, 85788, Control_c, 0, 64, 127
1, 85792, Note_off_c, 0, 60, 57
1, 85800, Note_off_c, 0, 48, 64
1, 85830, Note_on_c, 0, 52, 73
1, 85854, Note_off_c, 0, 67, 64
1, 85860, Note_on_c, 0, 72, 59
1, 85863, Note_off_c, 0, 52, 66
1, 85879, Note_off_c, 0, 72, 61
1, 85886, Poly_aftertouch_c, 0, 66, 0
1, 85921, Note_on_c, 0, 52, 79
1, 85933, Note_on_c, 0, 72, 79
1, 85986, Note_on_c, 0, 60, 74
1, 85994, Note_on_c, 0, 79, 84
1, 85996, Note_off_c, 0, 72, 56
1, 86002, Note_off_c, 0, 52, 60
1, 86017, Note_off_c, 0, 60, 63
1, 86047, Note_on_c, 0, 64, 73
1, 86056, Note_off_c, 0, 79, 67
1, 86062, Note_on_c, 0, 84, 71
1, 86079, Note_off_c, 0, 64, 67
1, 86088, Note_off_c, 0, 84, 68
1, 86131, Note_on_c, 0, 84, 95
1, 86138, Note_on_c, 0, 64, 82
1, 86194, Note_on_c, 0, 91, 90
1, 86202, Note_on_c, 0, 72, 75
1, 86211, Note_off_c, 0, 84, 65
1, 86242, Note_off_c, 0, 72, 62
1, 86259, Note_on_c, 0, 96, 103
1, 86262, Note_on_c, 0, 76, 95
1, 86274, Note_off_c, 0, 91, 67
1, 86316, Note_on_c, 0, 91, 84
1, 86325, Note_off_c, 0, 64, 63
1, 86333, Note_on_c, 0, 72, 86
1, 86338, Note_off_c, 0, 76, 66
1, 86348, Note_off_c, 0, 96, 66
1, 86390, Note_off_c, 0, 91, 64
1, 86394, Note_off_c, 0, 72, 63
1, 86404, Note_on_c, 0, 64, 75
1, 86414, Note_on_c, 0, 84, 64
1, 86434, Note_off_c, 0, 64, 67
1, 86437, Note_off_c, 0, 84, 69
1, 86478, Note_on_c, 0, 64, 79
1, 86483, Note_on_c, 0, 84, 97
1, 86544, Note_on_c, 0, 79, 91
1, 86544, Note_off_c, 0, 64, 65
1, 86548, Note_on_c, 0, 60, 74
1, 86564, Note_off_c, 0, 84, 65
1, 86578, Note_off_c, 0, 60, 65
1, 86596, Note_on_c, 0, 52, 77
1, 86601, Note_off_c, 0, 79, 67
1, 86619, Note_on_c, 0, 72, 66
1, 86627, Note_off_c, 0, 52, 64
1, 86642, Note_off_c, 0, 72, 66
1, 86647, Note_on_c, 0, 53, 79
1, 86683, Poly_aftertouch_c, 0, 52, 127
1, 86711, Note_on_c, 0, 72, 60
1, 86724, Note_on_c, 0, 67, 69
1, 86725, Note_on_c, 0, 50, 94
1, 86727, Note_off_c, 0, 72, 65
1, 86736, Poly_aftertouch_c, 0, 52, 0
1, 86738, Note_off_c, 0, 53, 63
1, 86741, Note_off_c, 0, 67, 65
1, 86793, Note_on_c, 0, 41, 82
1, 86804, Note_on_c, 0, 43, 78
1, 86833, Note_off_c, 0, 50, 66
1, 86843, Note_off_c, 0, 43, 0
1, 86843, Note_on_c, 0, 43, 34
1, 86864, Note_on_c, 0, 58, 99
1, 86903, Control_c, 0, 64, 70
1, 86917, Control_c, 0, 64, 18
1, 86932, Control_c, 0, 64, 0
1, 86941, Note_on_c, 0, 60, 66
1, 86945, Note_on_c, 0, 48, 59
1, 86947, Control_c, 0, 64, 34
1, 86957, Note_on_c, 0, 50, 49
1, 86961, Control_c, 0, 64, 64
1, 86967, Note_off_c, 0, 58, 66
1, 86976, Note_off_c, 0, 48, 65
1, 86976, Control_c, 0, 64, 90
1, 86982, Note_off_c, 0, 41, 62
1, 86985, Note_off_c, 0, 50, 54
1, 86988, Note_off_c, 0, 60, 61
1, 86991, Control_c, 0, 64, 127
1, 86994, Note_off_c, 0, 43, 40
1, 87007, Note_on_c, 0, 53, 78
1, 87007, Poly_aftertouch_c, 0, 61, 127
1, 87021, Note_on_c, 0, 70, 63
1, 87038, Poly_aftertouch_c, 0, 61, 0
1, 87043, Note_off_c, 0, 70, 65
1, 87058, Note_off_c, 0, 53, 63
1, 87095, Note_on_c, 0, 70, 89
1, 87115, Note_on_c, 0, 53, 59
1, 87161, Note_on_c, 0, 72, 76
1, 87173, Note_on_c, 0, 60, 71
1, 87176, Note_off_c, 0, 70, 62
1, 87206, Note_off_c, 0, 60, 63
1, 87223, Note_off_c, 0, 72, 60
1, 87237, Note_on_c, 0, 65, 79
1, 87241, Note_on_c, 0, 82, 82
1, 87263, Note_off_c, 0, 53, 57
1, 87266, Note_on_c, 0, 75, 15
1, 87293, Note_off_c, 0, 65, 65
1, 87293, Note_on_c, 0, 72, 80
1, 87301, Note_on_c, 0, 60, 68
1, 87309, Note_off_c, 0, 82, 65
1, 87320, Note_off_c, 0, 75, 62
1, 87349, Note_on_c, 0, 53, 85
1, 87352, Note_off_c, 0, 60, 63
1, 87353, Note_on_c, 0, 70, 81
1, 87359, Note_off_c, 0, 72, 64
1, 87371, Poly_aftertouch_c, 0, 73, 0
1, 87373, Note_off_c, 0, 70, 71
1, 87377, Note_off_c, 0, 53, 65
1, 87389, Poly_aftertouch_c, 0, 78, 0
1, 87460, Note_on_c, 0, 56, 101
1, 87481, Note_on_c, 0, 63, 66
1, 87487, Control_c, 0, 64, 76
1, 87490, Note_on_c, 0, 41, 75
1, 87501, Note_off_c, 0, 63, 65
1, 87502, Control_c, 0, 64, 52
1, 87512, Note_on_c, 0, 62, 20
1, 87517, Control_c, 0, 64, 35
1, 87532, Control_c, 0, 64, 57
1, 87536, Note_on_c, 0, 60, 70
1, 87547, Note_on_c, 0, 48, 71
1, 87547, Control_c, 0, 64, 77
1, 87555, Note_off_c, 0, 62, 31
1, 87561, Control_c, 0, 64, 127
1, 87573, Note_off_c, 0, 56, 64
1, 87573, Poly_aftertouch_c, 0, 43, 127
1, 87586, Note_off_c, 0, 41, 62
1, 87597, Note_off_c, 0, 48, 64
1, 87600, Note_off_c, 0, 60, 63
1, 87602, Note_on_c, 0, 68, 74
1, 87616, Poly_aftertouch_c, 0, 43, 0
1, 87630, Note_off_c, 0, 68, 67
1, 87634, Note_on_c, 0, 53, 44
1, 87661, Note_off_c, 0, 53, 58
1, 87685, Note_on_c, 0, 68, 88
1, 87706, Note_on_c, 0, 53, 80
1, 87717, Poly_aftertouch_c, 0, 55, 127
1, 87750, Note_on_c, 0, 72, 72
1, 87770, Note_on_c, 0, 60, 74
1, 87773, Note_off_c, 0, 68, 62
1, 87806, Poly_aftertouch_c, 0, 55, 0
1, 87813, Note_off_c, 0, 60, 60
1, 87814, Note_on_c, 0, 80, 87
1, 87828, Note_on_c, 0, 65, 82
1, 87838, Note_off_c, 0, 72, 61
1, 87844, Poly_aftertouch_c, 0, 55, 127
1, 87881, Note_off_c, 0, 53, 61
1, 87881, Note_on_c, 0, 72, 74
1, 87886, Note_off_c, 0, 65, 65
1, 87897, Note_on_c, 0, 60, 83
1, 87901, Poly_aftertouch_c, 0, 55, 0
1, 87908, Note_off_c, 0, 80, 63
1, 87946, Note_off_c, 0, 60, 64
1, 87946, Note_off_c, 0, 72, 63
1, 87947, Note_on_c, 0, 68, 76
1, 87949, Note_on_c, 0, 53, 79
1, 87966, Note_off_c, 0, 68, 67
1, 87972, Note_on_c, 0, 57, 40
1, 87979, Note_off_c, 0, 53, 67
1, 88004, Note_off_c, 0, 57, 54
1, 88080, Note_on_c, 0, 53, 95
1, 88101, Note_on_c, 0, 41, 76
1, 88122, Note_on_c, 0, 60, 35
1, 88124, Control_c, 0, 64, 69
1, 88139, Control_c, 0, 64, 45
1, 88150, Note_off_c, 0, 60, 48
1, 88154, Control_c, 0, 64, 35
1, 88169, Control_c, 0, 64, 58
1, 88174, Note_on_c, 0, 56, 78
1, 88182, Note_on_c, 0, 48, 55
1, 88183, Control_c, 0, 64, 79
1, 88197, Note_off_c, 0, 53, 62
1, 88198, Note_off_c, 0, 41, 62
1, 88198, Control_c, 0, 64, 127
1, 88220, Note_off_c, 0, 48, 63
1, 88240, Note_off_c, 0, 56, 64
1, 88244, Note_on_c, 0, 53, 57
1, 88264, Note_on_c, 0, 65, 59
1, 88274, Note_off_c, 0, 53, 65
1, 88292, Note_off_c, 0, 65, 65
1, 88339, Note_on_c, 0, 65, 79
1, 88352, Note_on_c, 0, 53, 71
1, 88420, Note_on_c, 0, 68, 74
1, 88420, Note_off_c, 0, 65, 60
1, 88474, Note_on_c, 0, 77, 73
1, 88475, Note_on_c, 0, 65, 59
1, 88477, Note_off_c, 0, 68, 65
1, 88527, Note_off_c, 0, 65, 64
1, 88535, Note_off_c, 0, 53, 59
1, 88548, Note_on_c, 0, 68, 84
1, 88554, Note_on_c, 0, 60, 72
1, 88556, Note_off_c, 0, 77, 65
1, 88611, Note_off_c, 0, 60, 60
1, 88611, Note_on_c, 0, 53, 70
1, 88628, Note_off_c, 0, 68, 62
1, 88630, Note_on_c, 0, 65, 74
1, 88653, Note_off_c, 0, 65, 68
1, 88664, Note_off_c, 0, 53, 63
1, 88778, Note_on_c, 0, 50, 103
1, 88787, Note_on_c, 0, 41, 72
1, 88814, Control_c, 0, 64, 76
1, 88820, Note_on_c, 0, 59, 36
1, 88828, Control_c, 0, 64, 47
1, 88843, Control_c, 0, 64, 17
1, 88850, Note_off_c, 0, 59, 49
1, 88858, Control_c, 0, 64, 40
1, 88872, Control_c, 0, 64, 64
1, 88882, Note_on_c, 0, 56, 51
1, 88887, Control_c, 0, 64, 88
1, 88892, Note_on_c, 0, 48, 66
1, 88902, Control_c, 0, 64, 127
1, 88906, Note_off_c, 0, 41, 60
1, 88921, Note_off_c, 0, 50, 64
1, 88932, Note_off_c, 0, 48, 66
1, 88937, Poly_aftertouch_c, 0, 44, 127
1, 88969, Note_on_c, 0, 53, 59
1, 88972, Note_off_c, 0, 56, 64
1, 88974, Poly_aftertouch_c, 0, 44, 0
1, 88983, Note_on_c, 0, 62, 58
1, 88995, Note_off_c, 0, 53, 65
1, 88995, Poly_aftertouch_c, 0, 52, 0
1, 89011, Note_off_c, 0, 62, 67
1, 89056, Note_on_c, 0, 62, 84
1, 89073, Note_on_c, 0, 53, 54
1, 89140, Note_on_c, 0, 68, 87
1, 89168, Poly_aftertouch_c, 0, 56, 127
1, 89183, Note_on_c, 0, 65, 68
1, 89207, Note_off_c, 0, 68, 64
1, 89213, Note_on_c, 0, 74, 82
1, 89224, Note_off_c, 0, 65, 61
1, 89229, Note_on_c, 0, 60, 43
1, 89240, Note_off_c, 0, 62, 63
1, 89258, Note_off_c, 0, 60, 63
1, 89276, Note_off_c, 0, 53, 63
1, 89285, Poly_aftertouch_c, 0, 56, 0
1, 89289, Note_on_c, 0, 68, 90
1, 89332, Note_off_c, 0, 74, 62
1, 89353, Note_on_c, 0, 62, 89
1, 89371, Note_off_c, 0, 68, 65
1, 89403, Note_off_c, 0, 62, 66
1, 89452, Note_on_c, 0, 43, 94
1, 89543, Note_on_c, 0, 55, 104
1, 89547, Control_c, 0, 64, 86
1, 89562, Control_c, 0, 64, 55
1, 89577, Control_c, 0, 64, 0
1, 89606, Control_c, 0, 64, 44
1, 89621, Control_c, 0, 64, 66
1, 89629, Note_on_c, 0, 65, 3
1, 89636, Control_c, 0, 64, 89
1, 89646, Note_on_c, 0, 60, 39
1, 89651, Control_c, 0, 64, 127
1, 89657, Note_on_c, 0, 51, 58
1, 89666, Note_off_c, 0, 65, 55
1, 89673, Note_off_c, 0, 43, 62
1, 89680, Note_off_c, 0, 55, 58
1, 89710, Note_off_c, 0, 51, 64
1, 89738, Note_off_c, 0, 60, 62
1, 89743, Note_on_c, 0, 67, 62
1, 89756, Note_on_c, 0, 55, 51
1, 89772, Note_off_c, 0, 67, 65
1, 89777, Note_off_c, 0, 55, 66
1, 89847, Note_on_c, 0, 67, 65
1, 89857, Note_on_c, 0, 55, 69
1, 89958, Poly_aftertouch_c, 0, 75, 127
1, 90000, Note_on_c, 0, 63, 107
1, 90000, Poly_aftertouch_c, 0, 75, 0
1, 90057, Note_on_c, 0, 72, 72
1, 90065, Note_off_c, 0, 67, 34
1, 90110, Note_off_c, 0, 55, 64
1, 90138, Note_off_c, 0, 72, 54
1, 90149, Note_off_c, 0, 63, 66
1, 90166, Note_on_c, 0, 67, 73
1, 90171, Note_on_c, 0, 79, 55
1, 90197, Note_off_c, 0, 67, 64
1, 90205, Note_off_c, 0, 79, 64
1, 90269, Note_on_c, 0, 79, 80
1, 90286, Note_on_c, 0, 67, 51
1, 90337, Note_on_c, 0, 75, 67
1, 90338, Note_on_c, 0, 84, 76
1, 90351, Note_off_c, 0, 79, 63
1, 90373, Note_off_c, 0, 75, 65
1, 90401, Note_on_c, 0, 91, 84
1, 90404, Note_on_c, 0, 79, 62
1, 90406, Note_on_c, 0, 70, 6
1, 90415, Note_off_c, 0, 84, 65
1, 90423, Note_off_c, 0, 67, 63
1, 90451, Note_off_c, 0, 79, 59
1, 90464, Note_on_c, 0, 75, 72
1, 90471, Note_off_c, 0, 70, 44
1, 90478, Note_on_c, 0, 84, 74
1, 90498, Note_off_c, 0, 75, 66
1, 90504, Note_off_c, 0, 91, 63
1, 90537, Note_off_c, 0, 84, 67
1, 90545, Note_on_c, 0, 67, 39
1, 90558, Note_on_c, 0, 79, 63
1, 90584, Note_off_c, 0, 79, 68
1, 90590, Note_off_c, 0, 67, 0
1, 90600, Note_on_c, 0, 67, 64
1, 90635, Note_on_c, 0, 79, 87
1, 90664, Note_off_c, 0, 67, 64
1, 90675, Note_on_c, 0, 63, 71
1, 90687, Note_on_c, 0, 72, 84
1, 90701, Note_off_c, 0, 63, 68
1, 90715, Note_off_c, 0, 79, 64
1, 90718, Note_on_c, 0, 55, 69
1, 90748, Note_off_c, 0, 72, 64
1, 90752, Note_off_c, 0, 55, 64
1, 90758, Note_on_c, 0, 67, 82
1, 90792, Note_off_c, 0, 67, 66
1, 90805, Poly_aftertouch_c, 0, 55, 127
1, 90850, Note_on_c, 0, 51, 84
1, 90861, Note_on_c, 0, 67, 64
1, 90867, Poly_aftertouch_c, 0, 55, 0
1, 90885, Note_on_c, 0, 60, 74
1, 90889, Note_off_c, 0, 67, 64
1, 90924, Note_on_c, 0, 43, 93
1, 90954, Note_off_c, 0, 51, 65
1, 90960, Note_on_c, 0, 46, 58
1, 90980, Note_off_c, 0, 60, 52
1, 90984, Note_off_c, 0, 46, 60
1, 91006, Note_on_c, 0, 56, 108
1, 91030, Control_c, 0, 64, 74
1, 91045, Control_c, 0, 64, 33
1, 91047, Note_on_c, 0, 59, 49
1, 91048, Note_off_c, 0, 59, 127
1, 91060, Control_c, 0, 64, 0
1, 91069, Note_on_c, 0, 63, 8
1, 91072, Note_on_c, 0, 51, 71
1, 91074, Control_c, 0, 64, 42
1, 91087, Note_on_c, 0, 60, 20
1, 91089, Control_c, 0, 64, 63
1, 91101, Note_off_c, 0, 43, 65
1, 91104, Control_c, 0, 64, 77
1, 91113, Note_off_c, 0, 56, 62
1, 91118, Control_c, 0, 64, 118
1, 91121, Note_off_c, 0, 51, 64
1, 91133, Control_c, 0, 64, 127
1, 91139, Note_off_c, 0, 60, 62
1, 91146, Note_on_c, 0, 55, 61
1, 91148, Note_on_c, 0, 68, 71
1, 91152, Note_off_c, 0, 63, 38
1, 91175, Note_off_c, 0, 55, 65
1, 91176, Note_off_c, 0, 68, 65
1, 91248, Note_on_c, 0, 55, 81
1, 91268, Note_on_c, 0, 68, 67
1, 91374, Note_on_c, 0, 63, 101
1, 91396, Note_on_c, 0, 72, 84
1, 91416, Note_off_c, 0, 68, 63
1, 91419, Note_on_c, 0, 59, 28
1, 91427, Note_on_c, 0, 61, 33
1, 91438, Note_off_c, 0, 55, 64
1, 91454, Note_off_c, 0, 59, 45
1, 91460, Note_off_c, 0, 61, 49
1, 91460, Note_off_c, 0, 72, 62
1, 91473, Note_off_c, 0, 63, 67
1, 91480, Note_on_c, 0, 80, 62
1, 91487, Note_on_c, 0, 67, 77
1, 91510, Note_off_c, 0, 80, 66
1, 91518, Note_off_c, 0, 67, 66
1, 91569, Note_on_c, 0, 80, 82
1, 91590, Note_on_c, 0, 67, 76
1, 91617, Note_on_c, 0, 84, 77
1, 91633, Note_on_c, 0, 75, 76
1, 91644, Note_off_c, 0, 80, 60
1, 91687, Note_on_c, 0, 92, 95
1, 91693, Note_off_c, 0, 75, 64
1, 91700, Note_on_c, 0, 79, 90
1, 91707, Note_off_c, 0, 84, 61
1, 91717, Note_off_c, 0, 67, 51
1, 91753, Note_on_c, 0, 84, 75
1, 91755, Note_off_c, 0, 79, 67
1, 91771, Note_on_c, 0, 75, 69
1, 91778, Note_off_c, 0, 92, 68
1, 91798, Note_off_c, 0, 75, 69
1, 91815, Note_off_c, 0, 84, 66
1, 91821, Note_on_c, 0, 67, 72
1, 91824, Note_on_c, 0, 80, 64
1, 91842, Note_off_c, 0, 80, 64
1, 91848, Note_off_c, 0, 67, 66
1, 91899, Note_on_c, 0, 67, 85
1, 91905, Note_on_c, 0, 80, 80
1, 91963, Note_on_c, 0, 72, 85
1, 91972, Note_on_c, 0, 63, 78
1, 91976, Note_off_c, 0, 67, 63
1, 92002, Note_off_c, 0, 80, 63
1, 92024, Note_on_c, 0, 55, 78
1, 92025, Note_off_c, 0, 63, 64
1, 92032, Note_off_c, 0, 72, 66
1, 92037, Note_on_c, 0, 58, 53
1, 92051, Note_on_c, 0, 68, 68
1, 92053, Note_off_c, 0, 55, 68
1, 92063, Note_off_c, 0, 58, 54
1, 92070, Note_off_c, 0, 68, 64
1, 92107, Note_on_c, 0, 55, 80
1, 92131, Note_on_c, 0, 68, 85
1, 92134, Note_on_c, 0, 53, 59
1, 92159, Note_on_c, 0, 51, 83
1, 92182, Note_on_c, 0, 60, 75
1, 92188, Note_off_c, 0, 55, 63
1, 92207, Note_off_c, 0, 53, 36
1, 92212, Note_off_c, 0, 51, 67
1, 92221, Note_off_c, 0, 68, 58
1, 92236, Note_on_c, 0, 43, 93
1, 92257, Note_on_c, 0, 50, 52
1, 92285, Note_off_c, 0, 50, 52
1, 92289, Note_on_c, 0, 46, 12
1, 92305, Note_off_c, 0, 60, 61
1, 92327, Note_on_c, 0, 56, 117
1, 92337, Note_off_c, 0, 46, 47
1, 92349, Control_c, 0, 64, 67
1, 92360, Note_on_c, 0, 63, 55
1, 92364, Control_c, 0, 64, 24
1, 92379, Control_c, 0, 64, 0
1, 92386, Note_off_c, 0, 63, 38
1, 92388, Note_on_c, 0, 66, 15
1, 92409, Control_c, 0, 64, 49
1, 92424, Control_c, 0, 64, 69
1, 92435, Note_off_c, 0, 66, 39
1, 92439, Control_c, 0, 64, 80
1, 92448, Note_on_c, 0, 50, 57
1, 92453, Control_c, 0, 64, 99
1, 92457, Note_on_c, 0, 59, 65
1, 92468, Control_c, 0, 64, 112
1, 92483, Control_c, 0, 64, 118
1, 92484, Note_off_c, 0, 43, 63
1, 92489, Note_off_c, 0, 50, 65
1, 92498, Control_c, 0, 64, 119
1, 92502, Note_off_c, 0, 56, 61
1, 92524, Note_on_c, 0, 53, 66
1, 92525, Note_off_c, 0, 59, 65
1, 92540, Note_on_c, 0, 68, 66
1, 92543, Control_c, 0, 64, 127
1, 92582, Note_off_c, 0, 53, 63
1, 92621, Note_off_c, 0, 68, 63
1, 92665, Note_on_c, 0, 55, 83
1, 92721, Note_on_c, 0, 68, 66
1, 92772, Note_on_c, 0, 62, 99
1, 92790, Note_on_c, 0, 71, 75
1, 92808, Note_off_c, 0, 68, 61
1, 92835, Note_off_c, 0, 55, 64
1, 92851, Note_off_c, 0, 71, 61
1, 92866, Note_off_c, 0, 62, 62
1, 92871, Note_on_c, 0, 65, 85
1, 92877, Note_on_c, 0, 80, 64
1, 92907, Note_off_c, 0, 80, 63
1, 92918, Note_off_c, 0, 65, 66
1, 92964, Note_on_c, 0, 80, 84
1, 92980, Note_on_c, 0, 67, 85
1, 93026, Note_on_c, 0, 83, 83
1, 93032, Note_on_c, 0, 74, 65
1, 93042, Note_off_c, 0, 80, 62
1, 93085, Note_off_c, 0, 74, 58
1, 93091, Note_on_c, 0, 92, 95
1, 93092, Note_on_c, 0, 77, 96
1, 93112, Note_off_c, 0, 83, 64
1, 93153, Note_off_c, 0, 67, 64
1, 93163, Note_on_c, 0, 83, 79
1, 93173, Note_off_c, 0, 77, 66
1, 93179, Note_off_c, 0, 92, 67
1, 93193, Note_on_c, 0, 85, 17
1, 93194, Note_on_c, 0, 74, 66
1, 93222, Note_off_c, 0, 74, 67
1, 93226, Note_off_c, 0, 83, 66
1, 93228, Note_on_c, 0, 67, 78
1, 93229, Note_on_c, 0, 80, 79
1, 93239, Note_off_c, 0, 85, 38
1, 93250, Note_off_c, 0, 80, 67
1, 93260, Note_off_c, 0, 67, 65
1, 93306, Note_on_c, 0, 80, 74
1, 93309, Note_on_c, 0, 65, 86
1, 93379, Note_on_c, 0, 71, 87
1, 93384, Note_on_c, 0, 72, 79
1, 93384, Note_off_c, 0, 65, 64
1, 93390, Note_on_c, 0, 62, 82
1, 93410, Note_off_c, 0, 72, 65
1, 93413, Note_off_c, 0, 80, 63
1, 93437, Note_on_c, 0, 55, 75
1, 93447, Note_off_c, 0, 62, 65
1, 93455, Note_off_c, 0, 71, 65
1, 93460, Note_on_c, 0, 68, 82
1, 93479, Note_off_c, 0, 68, 71
1, 93485, Note_off_c, 0, 55, 61
1, 93521, Note_on_c, 0, 53, 90
1, 93529, Poly_aftertouch_c, 0, 58, 0
1, 93538, Note_on_c, 0, 68, 57
1, 93571, Note_on_c, 0, 62, 48
1, 93586, Note_on_c, 0, 50, 87
1, 93595, Note_off_c, 0, 53, 64
1, 93596, Note_off_c, 0, 62, 63
1, 93600, Note_on_c, 0, 59, 55
1, 93622, Note_off_c, 0, 68, 63
1, 93651, Note_on_c, 0, 43, 93
1, 93681, Note_off_c, 0, 59, 58
1, 93691, Note_off_c, 0, 50, 66
1, 93722, Note_on_c, 0, 55, 118
1, 93735, Note_on_c, 0, 59, 47
1, 93744, Control_c, 0, 64, 78
1, 93749, Note_on_c, 0, 63, 67
1, 93753, Note_on_c, 0, 66, 42
1, 93759, Control_c, 0, 64, 43
1, 93759, Note_off_c, 0, 59, 61
1, 93774, Control_c, 0, 64, 32
1, 93779, Note_off_c, 0, 63, 52
1, 93782, Note_off_c, 0, 66, 55
1, 93789, Control_c, 0, 64, 59
1, 93799, Note_on_c, 0, 50, 67
1, 93803, Control_c, 0, 64, 78
1, 93818, Control_c, 0, 64, 127
1, 93828, Note_on_c, 0, 59, 79
1, 93835, Note_off_c, 0, 55, 57
1, 93837, Note_off_c, 0, 43, 63
1, 93842, Note_off_c, 0, 50, 65
1, 93865, Note_on_c, 0, 53, 69
1, 93880, Note_off_c, 0, 59, 66
1, 93884, Note_on_c, 0, 67, 71
1, 93899, Note_off_c, 0, 53, 65
1, 93900, Poly_aftertouch_c, 0, 61, 127
1, 93930, Poly_aftertouch_c, 0, 61, 0
1, 93933, Note_off_c, 0, 67, 62
1, 93975, Note_on_c, 0, 55, 87
1, 93997, Note_on_c, 0, 67, 72
1, 94054, Note_on_c, 0, 62, 93
1, 94061, Note_on_c, 0, 71, 96
1, 94090, Note_off_c, 0, 67, 64
1, 94100, Note_off_c, 0, 62, 60
1, 94114, Note_off_c, 0, 55, 65
1, 94144, Note_on_c, 0, 65, 72
1, 94149, Poly_aftertouch_c, 0, 61, 0
1, 94152, Note_off_c, 0, 71, 63
1, 94152, Note_on_c, 0, 79, 81
1, 94172, Note_off_c, 0, 65, 67
1, 94205, Note_off_c, 0, 79, 64
1, 94250, Note_on_c, 0, 79, 78
1, 94257, Note_on_c, 0, 67, 68
1, 94313, Note_on_c, 0, 74, 76
1, 94315, Note_on_c, 0, 83, 89
1, 94330, Note_off_c, 0, 79, 66
1, 94380, Note_on_c, 0, 77, 99
1, 94386, Note_on_c, 0, 91, 103
1, 94411, Note_off_c, 0, 83, 68
1, 94415, Note_off_c, 0, 74, 60
1, 94466, Note_off_c, 0, 67, 63
1, 94469, Note_on_c, 0, 83, 95
1, 94473, Poly_aftertouch_c, 0, 74, 0
1, 94480, Note_off_c, 0, 77, 66
1, 94481, Note_off_c, 0, 91, 61
1, 94483, Note_on_c, 0, 74, 50
1, 94490, Note_on_c, 0, 85, 57
1, 94510, Note_off_c, 0, 85, 65
1, 94527, Note_off_c, 0, 74, 65
1, 94540, Note_off_c, 0, 83, 66
1, 94546, Note_on_c, 0, 79, 73
1, 94546, Note_on_c, 0, 67, 65
1, 94573, Note_off_c, 0, 67, 66
1, 94585, Note_off_c, 0, 79, 64
1, 94626, Note_on_c, 0, 65, 85
1, 94630, Note_on_c, 0, 79, 75
1, 94710, Note_on_c, 0, 71, 81
1, 94726, Note_on_c, 0, 62, 73
1, 94732, Note_off_c, 0, 65, 63
1, 94738, Note_off_c, 0, 79, 65
1, 94769, Note_on_c, 0, 55, 78
1, 94781, Note_off_c, 0, 62, 66
1, 94790, Note_off_c, 0, 71, 64
1, 94801, Note_on_c, 0, 67, 80
1, 94826, Note_off_c, 0, 55, 64
1, 94844, Note_off_c, 0, 67, 62
1, 94898, Note_on_c, 0, 50, 90
1, 94898, Note_on_c, 0, 67, 84
1, 94984, Note_on_c, 0, 59, 91
1, 94990, Note_off_c, 0, 67, 62
1, 95011, Note_on_c, 0, 43, 86
1, 95014, Note_off_c, 0, 50, 65
1, 95026, Note_off_c, 0, 59, 66
1, 95164, Note_on_c, 0, 36, 95
1, 95209, Note_off_c, 0, 43, 64
1, 95257, Note_on_c, 0, 52, 120
1, 95315, Control_c, 0, 64, 90
1, 95330, Control_c, 0, 64, 54
1, 95345, Control_c, 0, 64, 0
1, 95374, Control_c, 0, 64, 59
1, 95389, Control_c, 0, 64, 82
1, 95404, Control_c, 0, 64, 127
1, 95542, Note_off_c, 0, 52, 56
1, 95544, Note_on_c, 0, 55, 70
1, 95553, Note_on_c, 0, 43, 53
1, 95579, Note_off_c, 0, 36, 63
1, 95594, Note_off_c, 0, 43, 62
1, 95629, Note_off_c, 0, 55, 60
1, 95630, Note_on_c, 0, 48, 66
1, 95635, Note_on_c, 0, 64, 69
1, 95675, Note_off_c, 0, 48, 64
1, 95712, Note_off_c, 0, 64, 62
1, 95756, Note_on_c, 0, 48, 64
1, 95764, Note_on_c, 0, 64, 68
1, 95835, Note_on_c, 0, 55, 63
1, 95843, Note_on_c, 0, 67, 89
1, 95857, Note_off_c, 0, 48, 63
1, 95857, Note_off_c, 0, 64, 63
1, 95862, Note_off_c, 0, 55, 66
1, 95897, Note_on_c, 0, 60, 70
1, 95910, Note_off_c, 0, 67, 65
1, 95926, Note_on_c, 0, 76, 74
1, 95930, Note_off_c, 0, 60, 65
1, 95952, Note_off_c, 0, 76, 66
1, 95994, Note_on_c, 0, 60, 83
1, 96001, Note_on_c, 0, 76, 88
1, 96061, Note_on_c, 0, 67, 62
1, 96063, Note_on_c, 0, 79, 91
1, 96082, Note_off_c, 0, 60, 61
1, 96083, Note_off_c, 0, 76, 63
1, 96088, Note_off_c, 0, 67, 64
1, 96096, Note_on_c, 0, 69, 27
1, 96122, Note_on_c, 0, 72, 76
1, 96127, Note_off_c, 0, 79, 67
1, 96132, Note_off_c, 0, 69, 58
1, 96144, Note_on_c, 0, 88, 67
1, 96154, Note_off_c, 0, 72, 65
1, 96161, Note_off_c, 0, 88, 69
1, 96212, Note_on_c, 0, 88, 84
1, 96221, Note_on_c, 0, 72, 81
1, 96240, Note_on_c, 0, 89, 51
1, 96265, Note_off_c, 0, 89, 59
1, 96267, Note_on_c, 0, 91, 94
1, 96280, Note_off_c, 0, 88, 68
1, 96295, Note_on_c, 0, 79, 71
1, 96331, Note_on_c, 0, 100, 102
1, 96331, Note_off_c, 0, 79, 47
1, 96338, Note_on_c, 0, 84, 93
1, 96356, Note_off_c, 0, 91, 65
1, 96401, Note_off_c, 0, 84, 67
1, 96409, Note_off_c, 0, 72, 60
1, 96414, Note_on_c, 0, 91, 101
1, 96429, Note_off_c, 0, 100, 66
1, 96433, Note_on_c, 0, 94, 60
1, 96444, Note_on_c, 0, 79, 65
1, 96462, Note_off_c, 0, 94, 38
1, 96468, Note_off_c, 0, 79, 68
1, 96476, Note_off_c, 0, 91, 66
1, 96486, Note_on_c, 0, 72, 34
1, 96489, Note_on_c, 0, 88, 69
1, 96509, Note_off_c, 0, 72, 54
1, 96510, Note_off_c, 0, 88, 70
1, 96549, Note_on_c, 0, 72, 75
1, 96570, Note_on_c, 0, 89, 75
1, 96574, Note_on_c, 0, 88, 76
1, 96613, Note_off_c, 0, 89, 66
1, 96623, Note_off_c, 0, 72, 64
1, 96629, Note_on_c, 0, 67, 75
1, 96630, Note_on_c, 0, 79, 80
1, 96648, Note_off_c, 0, 88, 66
1, 96686, Note_off_c, 0, 67, 63
1, 96692, Note_off_c, 0, 79, 67
1, 96699, Note_on_c, 0, 60, 66
1, 96713, Note_on_c, 0, 76, 60
1, 96728, Note_off_c, 0, 60, 64
1, 96739, Note_off_c, 0, 76, 66
1, 96782, Note_on_c, 0, 76, 88
1, 96784, Note_on_c, 0, 60, 79
1, 96850, Note_on_c, 0, 67, 81
1, 96855, Note_off_c, 0, 60, 63
1, 96859, Note_on_c, 0, 55, 65
1, 96867, Note_off_c, 0, 76, 63
1, 96907, Note_off_c, 0, 67, 64
1, 96916, Note_on_c, 0, 48, 73
1, 96920, Note_off_c, 0, 55, 64
1, 96942, Note_on_c, 0, 64, 38
1, 96957, Note_off_c, 0, 48, 61
1, 96972, Note_off_c, 0, 64, 58
1, 97096, Note_on_c, 0, 64, 100
1, 97106, Note_on_c, 0, 62, 83
1, 97122, Note_off_c, 0, 62, 67
1, 97191, Note_off_c, 0, 64, 63
1, 97252, Note_on_c, 0, 48, 61
1, 97320, Note_on_c, 0, 55, 76
1, 97332, Note_off_c, 0, 48, 56
1, 97348, Note_on_c, 0, 43, 57
1, 97361, Note_off_c, 0, 55, 65
1, 97401, Note_off_c, 0, 43, 55
1, 97403, Note_on_c, 0, 52, 68
1, 97415, Note_on_c, 0, 36, 64
1, 97461, Note_off_c, 0, 52, 61
1, 97463, Note_on_c, 0, 55, 67
1, 97491, Note_on_c, 0, 43, 59
1, 97515, Note_off_c, 0, 55, 64
1, 97536, Note_on_c, 0, 50, 80
1, 97558, Note_off_c, 0, 43, 63
1, 97585, Note_on_c, 0, 47, 61
1, 97598, Note_on_c, 0, 55, 79
1, 97609, Note_off_c, 0, 50, 66
1, 97622, Note_off_c, 0, 47, 67
1, 97628, Note_off_c, 0, 55, 68
1, 97635, Note_off_c, 0, 36, 48
1, 97648, Note_on_c, 0, 43, 69
1, 97658, Note_on_c, 0, 62, 101
1, 97661, Note_on_c, 0, 55, 76
1, 97685, Note_on_c, 0, 36, 60
1, 97692, Note_off_c, 0, 55, 63
1, 97710, Note_off_c, 0, 43, 63
1, 97711, Note_on_c, 0, 57, 21
1, 97712, Note_off_c, 0, 57, 127
1, 97751, Poly_aftertouch_c, 0, 57, 0
1, 97789, Note_on_c, 0, 43, 65
1, 97793, Note_on_c, 0, 55, 52
1, 97803, Note_on_c, 0, 53, 73
1, 97820, Note_off_c, 0, 55, 58
1, 97847, Note_off_c, 0, 43, 57
1, 97868, Note_on_c, 0, 50, 68
1, 97886, Note_on_c, 0, 55, 75
1, 97901, Note_off_c, 0, 53, 62
1, 97917, Note_on_c, 0, 40, 8
1, 97917, Note_off_c, 0, 55, 65
1, 97919, Note_off_c, 0, 50, 66
1, 97947, Note_on_c, 0, 43, 68
1, 97948, Note_off_c, 0, 36, 49
1, 97970, Note_off_c, 0, 62, 62
1, 97975, Note_off_c, 0, 40, 46
1, 98007, Note_on_c, 0, 36, 81
1, 98098, Note_on_c, 0, 67, 106
1, 98109, Poly_aftertouch_c, 0, 40, 127
1, 98141, Note_off_c, 0, 43, 32
1, 98158, Note_off_c, 0, 67, 63
1, 98250, Note_on_c, 0, 43, 75
1, 98255, Note_off_c, 0, 36, 59
1, 98311, Poly_aftertouch_c, 0, 40, 0
1, 98346, Note_on_c, 0, 36, 95
1, 98387, Note_off_c, 0, 43, 63
1, 98388, Note_on_c, 0, 52, 75
1, 98452, Note_on_c, 0, 43, 68
1, 98457, Note_on_c, 0, 55, 74
1, 98465, Note_off_c, 0, 52, 64
1, 98475, Note_on_c, 0, 40, 13
1, 98517, Note_off_c, 0, 36, 62
1, 98518, Note_off_c, 0, 55, 63
1, 98530, Note_off_c, 0, 43, 62
1, 98536, Note_on_c, 0, 48, 79
1, 98539, Note_off_c, 0, 40, 44
1, 98549, Note_on_c, 0, 64, 43
1, 98589, Note_off_c, 0, 64, 51
1, 98611, Note_off_c, 0, 48, 63
1, 98711, Note_on_c, 0, 62, 100
1, 98712, Note_on_c, 0, 64, 98
1, 98719, Note_on_c, 0, 48, 92
1, 98738, Note_on_c, 0, 71, 67
1, 98756, Note_off_c, 0, 71, 62
1, 98767, Note_off_c, 0, 62, 66
1, 98795, Note_off_c, 0, 64, 68
1, 98864, Note_on_c, 0, 55, 50
1, 98880, Note_off_c, 0, 48, 60
1, 98887, Note_off_c, 0, 55, 64
1, 98895, Note_on_c, 0, 67, 54
1, 98916, Note_on_c, 0, 60, 71
1, 98937, Note_off_c, 0, 67, 64
1, 98956, Note_on_c, 0, 76, 55
1, 98970, Note_off_c, 0, 60, 63
1, 98996, Note_off_c, 0, 76, 62
1, 99022, Note_on_c, 0, 60, 71
1, 99052, Note_on_c, 0, 76, 85
1, 99107, Note_on_c, 0, 67, 68
1, 99112, Note_on_c, 0, 79, 88
1, 99119, Note_off_c, 0, 76, 62
1, 99130, Note_off_c, 0, 60, 62
1, 99136, Note_off_c, 0, 67, 65
1, 99166, Note_on_c, 0, 72, 75
1, 99172, Note_off_c, 0, 79, 66
1, 99185, Note_on_c, 0, 88, 66
1, 99206, Note_off_c, 0, 72, 64
1, 99211, Note_off_c, 0, 88, 69
1, 99258, Note_on_c, 0, 88, 91
1, 99262, Note_on_c, 0, 72, 70
1, 99316, Note_on_c, 0, 91, 97
1, 99329, Note_off_c, 0, 88, 68
1, 99344, Note_on_c, 0, 79, 66
1, 99369, Note_off_c, 0, 79, 68
1, 99387, Note_on_c, 0, 100, 92
1, 99396, Note_on_c, 0, 84, 89
1, 99397, Note_off_c, 0, 91, 63
1, 99440, Note_on_c, 0, 98, 25
1, 99441, Note_off_c, 0, 98, 127
1, 99450, Note_off_c, 0, 72, 62
1, 99464, Note_off_c, 0, 84, 67
1, 99469, Note_on_c, 0, 79, 61
1, 99474, Note_on_c, 0, 91, 90
1, 99479, Note_on_c, 0, 93, 69
1, 99484, Note_off_c, 0, 100, 67
1, 99494, Note_off_c, 0, 93, 68
1, 99515, Note_off_c, 0, 79, 66
1, 99518, Note_off_c, 0, 91, 67
1, 99524, Note_on_c, 0, 72, 57
1, 99530, Note_on_c, 0, 88, 65
1, 99551, Note_off_c, 0, 72, 64
1, 99556, Note_off_c, 0, 88, 69
1, 99595, Note_on_c, 0, 72, 80
1, 99604, Note_on_c, 0, 88, 90
1, 99668, Note_on_c, 0, 67, 73
1, 99670, Note_on_c, 0, 79, 81
1, 99670, Note_off_c, 0, 72, 64
1, 99685, Note_off_c, 0, 88, 66
1, 99688, Note_on_c, 0, 82, 56
1, 99709, Note_off_c, 0, 82, 61
1, 99721, Note_off_c, 0, 67, 63
1, 99729, Note_off_c, 0, 79, 67
1, 99731, Note_on_c, 0, 60, 69
1, 99748, Note_on_c, 0, 76, 55
1, 99758, Note_off_c, 0, 60, 65
1, 99770, Note_off_c, 0, 76, 60
1, 99777, Note_on_c, 0, 74, 46
1, 99803, Note_off_c, 0, 74, 62
1, 99807, Note_on_c, 0, 60, 81
1, 99815, Note_on_c, 0, 76, 86
1, 99872, Note_off_c, 0, 60, 63
1, 99874, Note_on_c, 0, 55, 71
1, 99876, Note_on_c, 0, 67, 85
1, 99886, Note_off_c, 0, 76, 64
1, 99932, Note_on_c, 0, 48, 75
1, 99932, Note_off_c, 0, 55, 63
1, 99938, Note_off_c, 0, 67, 64
1, 99953, Note_on_c, 0, 64, 57
1, 99970, Note_off_c, 0, 48, 64
1, 99972, Note_off_c, 0, 64, 63
1, 100054, Note_on_c, 0, 64, 100
1, 100087, Note_on_c, 0, 50, 70
1, 100090, Note_on_c, 0, 48, 72
1, 100119, Control_c, 0, 64, 78
1, 100134, Control_c, 0, 64, 58
1, 100149, Note_off_c, 0, 50, 65
1, 100149, Control_c, 0, 64, 58
1, 100163, Control_c, 0, 64, 74
1, 100186, Control_c, 0, 64, 110
1, 100201, Control_c, 0, 64, 127
1, 100201, Note_on_c, 0, 43, 58
1, 100204, Note_off_c, 0, 48, 60
1, 100205, Note_on_c, 0, 55, 72
1, 100237, Note_on_c, 0, 36, 68
1, 100245, Note_off_c, 0, 43, 57
1, 100247, Note_on_c, 0, 52, 75
1, 100264, Note_off_c, 0, 55, 62
1, 100282, Poly_aftertouch_c, 0, 62, 127
1, 100302, Note_off_c, 0, 52, 64
1, 100335, Note_on_c, 0, 43, 65
1, 100346, Note_on_c, 0, 55, 49
1, 100365, Note_off_c, 0, 64, 56
1, 100370, Note_off_c, 0, 55, 64
1, 100386, Note_off_c, 0, 43, 60
1, 100412, Note_on_c, 0, 50, 55
1, 100413, Note_on_c, 0, 48, 56
1, 100423, Note_on_c, 0, 47, 62
1, 100431, Poly_aftertouch_c, 0, 62, 0
1, 100452, Note_on_c, 0, 55, 74
1, 100457, Note_off_c, 0, 48, 61
1, 100475, Note_off_c, 0, 47, 65
1, 100483, Note_off_c, 0, 36, 63
1, 100484, Note_off_c, 0, 50, 65
1, 100487, Note_on_c, 0, 43, 72
1, 100523, Note_off_c, 0, 55, 63
1, 100546, Note_on_c, 0, 62, 97
1, 100561, Note_on_c, 0, 36, 81
1, 100570, Note_on_c, 0, 55, 51
1, 100584, Note_off_c, 0, 43, 63
1, 100593, Note_off_c, 0, 55, 63
1, 100651, Note_on_c, 0, 55, 80
1, 100656, Note_on_c, 0, 43, 62
1, 100679, Poly_aftertouch_c, 0, 40, 127
1, 100702, Note_off_c, 0, 55, 60
1, 100721, Note_off_c, 0, 43, 63
1, 100725, Poly_aftertouch_c, 0, 40, 0
1, 100731, Note_on_c, 0, 48, 75
1, 100734, Note_on_c, 0, 45, 68
1, 100744, Note_off_c, 0, 62, 59
1, 100762, Poly_aftertouch_c, 0, 40, 127
1, 100790, Note_on_c, 0, 55, 70
1, 100803, Note_off_c, 0, 36, 63
1, 100805, Note_off_c, 0, 45, 65
1, 100810, Note_on_c, 0, 43, 75
1, 100819, Note_off_c, 0, 48, 63
1, 100837, Note_off_c, 0, 55, 63
1, 100857, Poly_aftertouch_c, 0, 40, 0
1, 100875, Note_on_c, 0, 60, 104
1, 100881, Note_on_c, 0, 36, 90
1, 100892, Note_off_c, 0, 43, 39
1, 100974, Note_on_c, 0, 43, 76
1, 100982, Note_off_c, 0, 36, 64
1, 100985, Note_on_c, 0, 55, 78
1, 101023, Control_c, 0, 64, 115
1, 101037, Note_on_c, 0, 36, 84
1, 101038, Control_c, 0, 64, 70
1, 101038, Note_off_c, 0, 55, 63
1, 101053, Control_c, 0, 64, 53
1, 101067, Control_c, 0, 64, 60
1, 101071, Note_off_c, 0, 43, 63
1, 101082, Control_c, 0, 64, 74
1, 101092, Note_on_c, 0, 50, 58
1, 101093, Note_off_c, 0, 60, 61
1, 101097, Control_c, 0, 64, 127
1, 101127, Note_on_c, 0, 40, 17
1, 101130, Note_on_c, 0, 43, 73
1, 101136, Note_on_c, 0, 55, 71
1, 101160, Note_off_c, 0, 50, 65
1, 101197, Note_off_c, 0, 40, 40
1, 101221, Note_on_c, 0, 62, 65
1, 101225, Note_off_c, 0, 36, 64
1, 101230, Note_off_c, 0, 55, 59
1, 101232, Note_on_c, 0, 47, 85
1, 101238, Note_off_c, 0, 43, 64
1, 101298, Note_off_c, 0, 47, 66
1, 101324, Note_off_c, 0, 62, 58
1, 101411, Note_on_c, 0, 48, 87
1, 101417, Note_on_c, 0, 62, 100
1, 101469, Note_on_c, 0, 72, 33
1, 101498, Note_off_c, 0, 72, 57
1, 101527, Note_on_c, 0, 55, 70
1, 101528, Note_on_c, 0, 67, 73
1, 101560, Note_off_c, 0, 62, 62
1, 101566, Note_off_c, 0, 55, 62
1, 101569, Note_off_c, 0, 48, 63
1, 101595, Note_on_c, 0, 59, 71
1, 101601, Note_on_c, 0, 74, 70
1, 101606, Note_off_c, 0, 67, 64
1, 101630, Note_off_c, 0, 59, 68
1, 101640, Note_off_c, 0, 74, 62
1, 101696, Note_on_c, 0, 60, 78
1, 101705, Note_on_c, 0, 74, 75
1, 101761, Note_on_c, 0, 67, 79
1, 101770, Note_on_c, 0, 79, 85
1, 101785, Note_off_c, 0, 74, 65
1, 101797, Note_off_c, 0, 60, 63
1, 101804, Note_off_c, 0, 67, 63
1, 101825, Note_on_c, 0, 71, 78
1, 101833, Note_off_c, 0, 79, 67
1, 101836, Note_on_c, 0, 86, 69
1, 101862, Note_off_c, 0, 71, 64
1, 101862, Note_off_c, 0, 86, 67
1, 101912, Note_on_c, 0, 86, 83
1, 101921, Note_on_c, 0, 72, 78
1, 101967, Note_on_c, 0, 91, 90
1, 101980, Note_off_c, 0, 86, 67
1, 101983, Note_on_c, 0, 79, 76
1, 102024, Note_off_c, 0, 79, 61
1, 102040, Note_on_c, 0, 98, 95
1, 102048, Note_on_c, 0, 83, 88
1, 102056, Note_off_c, 0, 91, 65
1, 102100, Note_off_c, 0, 72, 62
1, 102106, Note_off_c, 0, 83, 68
1, 102122, Note_on_c, 0, 91, 92
1, 102124, Note_on_c, 0, 79, 74
1, 102136, Note_off_c, 0, 98, 64
1, 102150, Note_off_c, 0, 79, 68
1, 102162, Note_on_c, 0, 72, 59
1, 102165, Note_off_c, 0, 91, 66
1, 102181, Note_on_c, 0, 86, 65
1, 102189, Note_off_c, 0, 72, 66
1, 102205, Note_off_c, 0, 86, 65
1, 102229, Note_on_c, 0, 71, 83
1, 102262, Note_on_c, 0, 86, 76
1, 102271, Note_on_c, 0, 88, 65
1, 102289, Note_off_c, 0, 88, 66
1, 102311, Note_on_c, 0, 67, 77
1, 102311, Note_on_c, 0, 79, 89
1, 102314, Note_off_c, 0, 71, 65
1, 102332, Note_off_c, 0, 86, 64
1, 102359, Note_off_c, 0, 67, 62
1, 102368, Note_off_c, 0, 79, 67
1, 102370, Note_on_c, 0, 60, 73
1, 102394, Note_off_c, 0, 60, 66
1, 102408, Note_on_c, 0, 74, 30
1, 102418, Note_on_c, 0, 72, 48
1, 102446, Note_on_c, 0, 59, 89
1, 102447, Note_off_c, 0, 74, 0
1, 102467, Note_off_c, 0, 72, 0
1, 102467, Note_on_c, 0, 72, 53
1, 102469, Note_on_c, 0, 74, 60
1, 102520, Note_off_c, 0, 74, 65
1, 102523, Note_on_c, 0, 55, 73
1, 102523, Note_off_c, 0, 59, 66
1, 102532, Note_on_c, 0, 67, 70
1, 102564, Note_off_c, 0, 72, 64
1, 102579, Note_on_c, 0, 48, 76
1, 102580, Note_off_c, 0, 67, 65
1, 102582, Note_off_c, 0, 55, 63
1, 102594, Note_on_c, 0, 62, 73
1, 102596, Note_on_c, 0, 65, 28
1, 102621, Note_off_c, 0, 62, 67
1, 102631, Note_off_c, 0, 65, 53
1, 102636, Note_off_c, 0, 48, 64
1, 102714, Note_on_c, 0, 62, 88
1, 102734, Note_on_c, 0, 47, 78
1, 102757, Control_c, 0, 64, 116
1, 102772, Control_c, 0, 64, 67
1, 102787, Control_c, 0, 64, 33
1, 102803, Control_c, 0, 64, 0
1, 102833, Control_c, 0, 64, 36
1, 102848, Control_c, 0, 64, 61
1, 102854, Note_on_c, 0, 55, 75
1, 102862, Note_on_c, 0, 43, 48
1, 102862, Note_off_c, 0, 47, 62
1, 102862, Control_c, 0, 64, 76
1, 102877, Control_c, 0, 64, 106
1, 102892, Control_c, 0, 64, 127
1, 102907, Note_off_c, 0, 43, 60
1, 102913, Note_on_c, 0, 36, 70
1, 102919, Note_off_c, 0, 55, 63
1, 102934, Note_on_c, 0, 50, 62
1, 102976, Note_off_c, 0, 50, 62
1, 103009, Note_on_c, 0, 43, 59
1, 103055, Note_off_c, 0, 43, 60
1, 103072, Note_on_c, 0, 48, 68
1, 103087, Note_on_c, 0, 45, 61
1, 103097, Note_off_c, 0, 62, 57
1, 103135, Note_on_c, 0, 53, 77
1, 103147, Note_off_c, 0, 36, 60
1, 103150, Note_off_c, 0, 48, 62
1, 103156, Note_on_c, 0, 41, 68
1, 103217, Note_off_c, 0, 45, 55
1, 103241, Note_on_c, 0, 60, 93
1, 103250, Note_on_c, 0, 36, 78
1, 103252, Note_off_c, 0, 41, 61
1, 103269, Control_c, 0, 64, 67
1, 103284, Control_c, 0, 64, 43
1, 103292, Note_off_c, 0, 53, 62
1, 103299, Control_c, 0, 64, 48
1, 103313, Control_c, 0, 64, 68
1, 103328, Control_c, 0, 64, 87
1, 103343, Control_c, 0, 64, 127
1, 103353, Note_on_c, 0, 41, 73
1, 103357, Note_on_c, 0, 53, 68
1, 103379, Poly_aftertouch_c, 0, 57, 0
1, 103423, Note_off_c, 0, 53, 62
1, 103432, Note_off_c, 0, 41, 62
1, 103436, Note_on_c, 0, 45, 64
1, 103449, Note_on_c, 0, 48, 70
1, 103510, Note_on_c, 0, 53, 75
1, 103511, Note_on_c, 0, 41, 73
1, 103518, Note_off_c, 0, 36, 62
1, 103535, Note_off_c, 0, 60, 61
1, 103542, Note_off_c, 0, 48, 63
1, 103563, Note_off_c, 0, 53, 64
1, 103593, Note_on_c, 0, 57, 98
1, 103594, Note_off_c, 0, 45, 0
1, 103595, Control_c, 0, 64, 67
1, 103598, Note_off_c, 0, 41, 61
1, 103603, Note_on_c, 0, 36, 78
1, 103611, Control_c, 0, 64, 50
1, 103626, Control_c, 0, 64, 64
1, 103632, Poly_aftertouch_c, 0, 45, 127
1, 103638, Note_on_c, 0, 45, 3
1, 103641, Control_c, 0, 64, 79
1, 103655, Control_c, 0, 64, 127
1, 103665, Note_on_c, 0, 40, 11
1, 103700, Note_on_c, 0, 41, 77
1, 103718, Note_off_c, 0, 36, 63
1, 103722, Note_off_c, 0, 45, 37
1, 103724, Note_on_c, 0, 53, 60
1, 103743, Note_off_c, 0, 40, 38
1, 103790, Note_on_c, 0, 36, 94
1, 103805, Note_off_c, 0, 41, 60
1, 103813, Note_off_c, 0, 53, 62
1, 103837, Note_on_c, 0, 40, 42
1, 103848, Control_c, 0, 64, 67
1, 103863, Control_c, 0, 64, 34
1, 103871, Note_off_c, 0, 40, 49
1, 103877, Control_c, 0, 64, 42
1, 103885, Note_on_c, 0, 48, 61
1, 103892, Control_c, 0, 64, 65
1, 103906, Note_off_c, 0, 57, 48
1, 103907, Control_c, 0, 64, 91
1, 103929, Control_c, 0, 64, 127
1, 103949, Note_on_c, 0, 53, 57
1, 103963, Note_off_c, 0, 48, 63
1, 103977, Note_on_c, 0, 44, 63
1, 104010, Note_off_c, 0, 53, 59
1, 104016, Note_on_c, 0, 60, 57
1, 104019, Note_off_c, 0, 36, 62
1, 104048, Note_off_c, 0, 44, 62
1, 104072, Note_on_c, 0, 48, 63
1, 104093, Note_off_c, 0, 60, 52
1, 104126, Note_off_c, 0, 48, 64
1, 104186, Note_on_c, 0, 60, 102
1, 104196, Note_on_c, 0, 48, 80
1, 104322, Note_on_c, 0, 65, 74
1, 104329, Note_on_c, 0, 56, 66
1, 104330, Note_off_c, 0, 48, 59
1, 104338, Note_off_c, 0, 60, 57
1, 104359, Note_off_c, 0, 56, 64
1, 104386, Note_on_c, 0, 60, 57
1, 104397, Note_off_c, 0, 65, 63
1, 104398, Note_on_c, 0, 72, 63
1, 104442, Note_off_c, 0, 60, 61
1, 104442, Note_off_c, 0, 72, 54
1, 104495, Note_on_c, 0, 60, 59
1, 104505, Note_on_c, 0, 72, 81
1, 104571, Note_off_c, 0, 60, 61
1, 104577, Note_on_c, 0, 77, 77
1, 104583, Note_on_c, 0, 68, 64
1, 104586, Note_off_c, 0, 72, 62
1, 104603, Note_off_c, 0, 68, 65
1, 104632, Note_on_c, 0, 72, 57
1, 104638, Note_off_c, 0, 77, 66
1, 104640, Note_on_c, 0, 84, 67
1, 104666, Note_off_c, 0, 84, 68
1, 104678, Note_off_c, 0, 72, 64
1, 104729, Note_on_c, 0, 84, 86
1, 104746, Note_on_c, 0, 72, 67
1, 104788, Note_on_c, 0, 89, 90
1, 104798, Note_off_c, 0, 84, 67
1, 104823, Note_on_c, 0, 80, 67
1, 104853, Note_off_c, 0, 80, 61
1, 104865, Note_on_c, 0, 96, 91
1, 104867, Note_on_c, 0, 84, 77
1, 104881, Note_off_c, 0, 89, 65
1, 104910, Note_off_c, 0, 72, 56
1, 104928, Note_on_c, 0, 80, 74
1, 104932, Note_off_c, 0, 84, 67
1, 104941, Note_on_c, 0, 89, 79
1, 104959, Note_off_c, 0, 96, 64
1, 104969, Note_off_c, 0, 80, 64
1, 104987, Note_on_c, 0, 72, 56
1, 104991, Note_off_c, 0, 89, 66
1, 105002, Note_on_c, 0, 84, 66
1, 105013, Note_off_c, 0, 72, 63
1, 105039, Note_off_c, 0, 84, 66
1, 105066, Note_on_c, 0, 72, 78
1, 105080, Note_on_c, 0, 84, 70
1, 105135, Note_on_c, 0, 68, 70
1, 105144, Note_on_c, 0, 77, 83
1, 105146, Note_off_c, 0, 72, 62
1, 105164, Note_off_c, 0, 84, 65
1, 105184, Note_off_c, 0, 68, 65
1, 105202, Note_on_c, 0, 60, 73
1, 105203, Note_off_c, 0, 77, 66
1, 105229, Note_off_c, 0, 60, 64
1, 105231, Note_on_c, 0, 72, 60
1, 105253, Note_off_c, 0, 72, 67
1, 105276, Poly_aftertouch_c, 0, 63, 0
1, 105277, Note_on_c, 0, 60, 83
1, 105296, Poly_aftertouch_c, 0, 63, 0
1, 105300, Note_on_c, 0, 72, 83
1, 105352, Note_on_c, 0, 56, 73
1, 105352, Note_on_c, 0, 65, 80
1, 105353, Note_off_c, 0, 60, 61
1, 105377, Note_off_c, 0, 72, 62
1, 105381, Note_off_c, 0, 56, 65
1, 105404, Note_on_c, 0, 48, 77
1, 105413, Note_off_c, 0, 65, 65
1, 105439, Note_on_c, 0, 60, 62
1, 105454, Note_off_c, 0, 48, 63
1, 105468, Note_off_c, 0, 60, 65
1, 105503, Poly_aftertouch_c, 0, 51, 0
1, 105564, Note_on_c, 0, 60, 97
1, 105587, Note_on_c, 0, 48, 82
1, 105620, Control_c, 0, 64, 74
1, 105635, Control_c, 0, 64, 60
1, 105649, Control_c, 0, 64, 63
1, 105664, Control_c, 0, 64, 80
1, 105679, Control_c, 0, 64, 127
1, 105700, Note_off_c, 0, 48, 56
1, 105701, Note_on_c, 0, 53, 76
1, 105711, Note_on_c, 0, 44, 72
1, 105766, Note_off_c, 0, 53, 59
1, 105784, Note_off_c, 0, 44, 62
1, 105793, Note_on_c, 0, 48, 53
1, 105803, Note_on_c, 0, 36, 71
1, 105813, Note_off_c, 0, 48, 63
1, 105824, Note_on_c, 0, 50, 24
1, 105865, Note_off_c, 0, 50, 42
1, 105876, Note_on_c, 0, 53, 34
1, 105888, Note_off_c, 0, 36, 63
1, 105892, Note_on_c, 0, 44, 71
1, 105899, Note_off_c, 0, 53, 55
1, 105931, Note_on_c, 0, 48, 76
1, 105941, Note_off_c, 0, 44, 49
1, 105965, Note_on_c, 0, 36, 61
1, 105985, Poly_aftertouch_c, 0, 39, 127
1, 106002, Note_on_c, 0, 53, 69
1, 106025, Note_off_c, 0, 48, 63
1, 106031, Note_off_c, 0, 60, 60
1, 106035, Poly_aftertouch_c, 0, 39, 0
1, 106057, Note_on_c, 0, 44, 63
1, 106080, Note_off_c, 0, 53, 63
1, 106103, Note_off_c, 0, 44, 62
1, 106105, Note_on_c, 0, 60, 101
1, 106120, Note_on_c, 0, 48, 82
1, 106179, Note_off_c, 0, 48, 64
1, 106217, Note_off_c, 0, 36, 39
1, 106222, Note_on_c, 0, 44, 61
1, 106235, Note_on_c, 0, 53, 65
1, 106261, Note_off_c, 0, 44, 59
1, 106278, Note_off_c, 0, 53, 62
1, 106311, Note_on_c, 0, 36, 66
1, 106330, Note_on_c, 0, 48, 60
1, 106405, Note_on_c, 0, 44, 62
1, 106413, Note_on_c, 0, 53, 68
1, 106419, Note_off_c, 0, 48, 62
1, 106425, Note_off_c, 0, 60, 59
1, 106458, Note_off_c, 0, 53, 59
1, 106497, Note_on_c, 0, 62, 100
1, 106511, Note_off_c, 0, 44, 58
1, 106514, Note_on_c, 0, 48, 92
1, 106589, Note_off_c, 0, 36, 45
1, 106590, Poly_aftertouch_c, 0, 55, 127
1, 106605, Note_off_c, 0, 48, 59
1, 106624, Poly_aftertouch_c, 0, 55, 0
1, 106633, Note_on_c, 0, 53, 63
1, 106662, Note_on_c, 0, 36, 69
1, 106667, Note_off_c, 0, 53, 60
1, 106714, Note_on_c, 0, 48, 68
1, 106762, Note_on_c, 0, 53, 64
1, 106778, Note_on_c, 0, 44, 63
1, 106784, Note_off_c, 0, 36, 63
1, 106791, Note_off_c, 0, 48, 62
1, 106815, Note_off_c, 0, 44, 62
1, 106832, Note_on_c, 0, 48, 62
1, 106835, Note_off_c, 0, 53, 61
1, 106846, Note_on_c, 0, 60, 65
1, 106871, Note_off_c, 0, 62, 42
1, 106895, Note_off_c, 0, 48, 63
1, 106944, Note_off_c, 0, 60, 58
1, 107025, Note_on_c, 0, 60, 102
1, 107027, Note_on_c, 0, 48, 91
1, 107162, Note_on_c, 0, 56, 68
1, 107164, Note_on_c, 0, 65, 75
1, 107165, Note_off_c, 0, 48, 63
1, 107173, Note_off_c, 0, 60, 52
1, 107201, Note_off_c, 0, 56, 62
1, 107223, Note_on_c, 0, 60, 60
1, 107239, Note_on_c, 0, 72, 65
1, 107239, Note_off_c, 0, 65, 62
1, 107273, Note_off_c, 0, 60, 64
1, 107279, Note_off_c, 0, 72, 58
1, 107339, Note_on_c, 0, 60, 67
1, 107340, Note_on_c, 0, 72, 83
1, 107411, Note_on_c, 0, 77, 73
1, 107412, Note_off_c, 0, 60, 62
1, 107416, Note_on_c, 0, 68, 68
1, 107420, Note_off_c, 0, 72, 62
1, 107426, Note_on_c, 0, 76, 61
1, 107444, Note_off_c, 0, 68, 67
1, 107447, Note_off_c, 0, 76, 63
1, 107465, Note_on_c, 0, 72, 64
1, 107478, Note_off_c, 0, 77, 66
1, 107482, Note_on_c, 0, 84, 64
1, 107510, Note_off_c, 0, 84, 68
1, 107511, Note_off_c, 0, 72, 64
1, 107559, Note_on_c, 0, 84, 83
1, 107566, Note_on_c, 0, 72, 72
1, 107620, Note_on_c, 0, 89, 91
1, 107639, Note_off_c, 0, 84, 66
1, 107649, Note_on_c, 0, 80, 74
1, 107703, Note_off_c, 0, 80, 59
1, 107707, Note_on_c, 0, 96, 95
1, 107719, Note_off_c, 0, 89, 65
1, 107733, Note_on_c, 0, 84, 87
1, 107773, Note_off_c, 0, 72, 60
1, 107781, Note_on_c, 0, 89, 91
1, 107787, Note_on_c, 0, 80, 82
1, 107792, Note_off_c, 0, 84, 66
1, 107808, Note_off_c, 0, 96, 65
1, 107829, Note_off_c, 0, 80, 64
1, 107838, Note_off_c, 0, 89, 65
1, 107846, Note_on_c, 0, 84, 67
1, 107855, Note_on_c, 0, 72, 57
1, 107876, Note_off_c, 0, 72, 62
1, 107888, Note_off_c, 0, 84, 67
1, 107930, Note_on_c, 0, 84, 78
1, 107932, Note_on_c, 0, 72, 80
1, 107996, Note_on_c, 0, 68, 78
1, 107996, Note_on_c, 0, 77, 84
1, 108009, Note_off_c, 0, 72, 63
1, 108028, Note_off_c, 0, 84, 66
1, 108043, Note_off_c, 0, 68, 66
1, 108062, Note_off_c, 0, 77, 66
1, 108067, Note_on_c, 0, 60, 79
1, 108079, Note_on_c, 0, 72, 65
1, 108096, Note_off_c, 0, 60, 66
1, 108102, Note_off_c, 0, 72, 68
1, 108148, Note_on_c, 0, 72, 95
1, 108149, Note_on_c, 0, 60, 86
1, 108158, Poly_aftertouch_c, 0, 63, 0
1, 108220, Note_on_c, 0, 65, 80
1, 108226, Note_on_c, 0, 56, 77
1, 108237, Note_off_c, 0, 60, 61
1, 108246, Note_on_c, 0, 66, 50
1, 108255, Note_off_c, 0, 72, 63
1, 108271, Note_off_c, 0, 66, 57
1, 108274, Note_off_c, 0, 56, 63
1, 108279, Note_on_c, 0, 48, 81
1, 108281, Note_off_c, 0, 65, 64
1, 108289, Note_on_c, 0, 60, 65
1, 108290, Note_on_c, 0, 51, 52
1, 108308, Note_off_c, 0, 48, 67
1, 108315, Note_off_c, 0, 60, 65
1, 108318, Note_off_c, 0, 51, 58
1, 108370, Control_c, 0, 64, 100
1, 108378, Note_on_c, 0, 60, 98
1, 108385, Control_c, 0, 64, 52
1, 108389, Note_on_c, 0, 48, 90
1, 108401, Control_c, 0, 64, 0
1, 108472, Note_on_c, 0, 53, 79
1, 108476, Note_off_c, 0, 48, 55
1, 108479, Note_on_c, 0, 44, 59
1, 108497, Control_c, 0, 64, 66
1, 108512, Control_c, 0, 64, 127
1, 108538, Note_off_c, 0, 44, 61
1, 108542, Note_on_c, 0, 36, 73
1, 108560, Note_on_c, 0, 48, 73
1, 108561, Note_off_c, 0, 53, 63
1, 108620, Note_off_c, 0, 48, 64
1, 108624, Note_off_c, 0, 36, 64
1, 108634, Note_on_c, 0, 44, 80
1, 108652, Note_on_c, 0, 53, 52
1, 108675, Note_off_c, 0, 53, 57
1, 108687, Note_off_c, 0, 44, 61
1, 108717, Note_on_c, 0, 36, 77
1, 108720, Note_on_c, 0, 48, 97
1, 108808, Note_on_c, 0, 53, 70
1, 108812, Note_on_c, 0, 44, 67
1, 108823, Note_off_c, 0, 60, 61
1, 108835, Note_off_c, 0, 48, 63
1, 108860, Note_off_c, 0, 53, 64
1, 108909, Note_on_c, 0, 60, 101
1, 108918, Note_off_c, 0, 44, 62
1, 108926, Note_on_c, 0, 48, 84
1, 108977, Note_off_c, 0, 48, 64
1, 109015, Note_off_c, 0, 36, 60
1, 109045, Note_on_c, 0, 53, 72
1, 109067, Note_on_c, 0, 44, 37
1, 109104, Note_off_c, 0, 53, 61
1, 109109, Note_off_c, 0, 44, 42
1, 109111, Note_on_c, 0, 36, 73
1, 109155, Note_on_c, 0, 48, 77
1, 109224, Note_on_c, 0, 44, 65
1, 109263, Note_on_c, 0, 53, 66
1, 109290, Note_off_c, 0, 60, 57
1, 109294, Note_off_c, 0, 48, 62
1, 109310, Note_off_c, 0, 53, 64
1, 109371, Note_on_c, 0, 48, 101
1, 109406, Note_off_c, 0, 44, 62
1, 109445, Note_on_c, 0, 62, 102
1, 109510, Note_on_c, 0, 60, 17
1, 109511, Note_off_c, 0, 60, 127
1, 109584, Poly_aftertouch_c, 0, 57, 0
1, 109587, Note_on_c, 0, 44, 76
1, 109611, Note_off_c, 0, 48, 51
1, 109644, Note_on_c, 0, 53, 63
1, 109647, Note_off_c, 0, 36, 30
1, 109649, Note_on_c, 0, 55, 63
1, 109676, Note_off_c, 0, 44, 64
1, 109699, Note_on_c, 0, 36, 92
1, 109708, Note_off_c, 0, 55, 45
1, 109716, Note_off_c, 0, 53, 56
1, 109796, Note_on_c, 0, 52, 96
1, 109853, Control_c, 0, 64, 84
1, 109867, Control_c, 0, 64, 30
1, 109882, Control_c, 0, 64, 0
1, 109924, Note_on_c, 0, 43, 78
1, 109925, Note_on_c, 0, 55, 64
1, 109931, Note_off_c, 0, 62, 61
1, 110008, Note_off_c, 0, 55, 62
1, 110026, Note_on_c, 0, 48, 99
1, 110120, Note_on_c, 0, 64, 100
1, 110172, Control_c, 0, 64, 71
1, 110187, Control_c, 0, 64, 127
1, 110246, Note_off_c, 0, 43, 61
1, 110346, Note_off_c, 0, 48, 57
1, 110367, Note_on_c, 0, 43, 70
1, 110399, Note_off_c, 0, 43, 66
1, 110425, Note_off_c, 0, 36, 64
1, 110476, Note_off_c, 0, 52, 63
1, 110509, Note_on_c, 0, 55, 64
1, 110603, Note_on_c, 0, 52, 75
1, 110709, Note_off_c, 0, 55, 0
1, 110719, Note_on_c, 0, 31, 109
1, 110747, Poly_aftertouch_c, 0, 55, 127
1, 110797, Poly_aftertouch_c, 0, 55, 0
1, 110873, Note_off_c, 0, 31, 63
1, 111019, Note_on_c, 0, 55, 60
1, 111069, Note_off_c, 0, 64, 61
1, 111086, Note_off_c, 0, 55, 63
1, 111131, Note_on_c, 0, 48, 62
1, 111162, Note_on_c, 0, 64, 86
1, 111172, Note_off_c, 0, 48, 65
1, 111260, Note_on_c, 0, 43, 64
1, 111281, Poly_aftertouch_c, 0, 39, 127
1, 111291, Note_on_c, 0, 55, 57
1, 111319, Poly_aftertouch_c, 0, 39, 0
1, 111322, Note_off_c, 0, 52, 59
1, 111345, Note_off_c, 0, 55, 58
1, 111349, Note_on_c, 0, 36, 98
1, 111381, Note_off_c, 0, 43, 64
1, 111459, Note_on_c, 0, 52, 110
1, 111493, Note_on_c, 0, 56, 45
1, 111510, Note_on_c, 0, 60, 13
1, 111525, Note_off_c, 0, 56, 52
1, 111534, Note_off_c, 0, 60, 0
1, 111559, Poly_aftertouch_c, 0, 60, 0
1, 111677, Note_on_c, 0, 55, 60
1, 111690, Note_on_c, 0, 48, 64
1, 111694, Note_on_c, 0, 40, 30
1, 111705, Note_off_c, 0, 64, 60
1, 111738, Note_off_c, 0, 40, 53
1, 111743, Note_on_c, 0, 43, 68
1, 111753, Note_off_c, 0, 48, 63
1, 111760, Note_off_c, 0, 55, 60
1, 111769, Note_off_c, 0, 36, 42
1, 111771, Note_off_c, 0, 43, 63
1, 111809, Note_on_c, 0, 64, 62
1, 111863, Note_off_c, 0, 52, 52
1, 111875, Note_on_c, 0, 55, 68
1, 111966, Note_off_c, 0, 55, 61
1, 111975, Note_on_c, 0, 31, 108
1, 111990, Note_on_c, 0, 52, 69
1, 112050, Note_off_c, 0, 31, 64
1, 112118, Note_on_c, 0, 55, 55
1, 112118, Note_off_c, 0, 64, 60
1, 112183, Note_off_c, 0, 55, 57
1, 112213, Note_on_c, 0, 64, 61
1, 112218, Note_on_c, 0, 48, 58
1, 112264, Note_off_c, 0, 52, 61
1, 112273, Note_on_c, 0, 55, 65
1, 112281, Note_on_c, 0, 43, 73
1, 112288, Note_off_c, 0, 48, 62
1, 112316, Note_off_c, 0, 55, 63
1, 112349, Note_on_c, 0, 36, 96
1, 112349, Note_on_c, 0, 52, 97
1, 112377, Note_off_c, 0, 43, 64
1, 112434, Note_on_c, 0, 55, 68
1, 112443, Note_off_c, 0, 64, 64
1, 112472, Note_off_c, 0, 52, 56
1, 112496, Note_on_c, 0, 40, 26
1, 112518, Note_on_c, 0, 48, 74
1, 112524, Note_off_c, 0, 55, 63
1, 112531, Note_on_c, 0, 64, 68
1, 112533, Note_off_c, 0, 40, 52
1, 112536, Poly_aftertouch_c, 0, 43, 127
1, 112565, Note_off_c, 0, 36, 57
1, 112571, Note_on_c, 0, 43, 4
1, 112571, Note_off_c, 0, 48, 65
1, 112596, Note_off_c, 0, 43, 54
1, 112601, Note_on_c, 0, 55, 63
1, 112641, Note_off_c, 0, 55, 55
1, 112667, Note_on_c, 0, 31, 88
1, 112670, Note_on_c, 0, 52, 89
1, 112678, Note_on_c, 0, 33, 67
1, 112700, Note_off_c, 0, 31, 67
1, 112710, Note_off_c, 0, 33, 56
1, 112743, Note_on_c, 0, 55, 83
1, 112746, Note_off_c, 0, 64, 64
1, 112806, Note_off_c, 0, 52, 42
1, 112818, Note_off_c, 0, 55, 62
1, 112819, Note_on_c, 0, 64, 68
1, 112822, Note_on_c, 0, 48, 76
1, 112884, Note_on_c, 0, 43, 71
1, 112884, Note_on_c, 0, 55, 74
1, 112888, Note_off_c, 0, 48, 51
1, 112967, Note_on_c, 0, 52, 96
1, 112970, Note_on_c, 0, 36, 96
1, 113000, Note_off_c, 0, 43, 64
1, 113036, Note_off_c, 0, 55, 0
1, 113048, Note_on_c, 0, 55, 66
1, 113060, Note_off_c, 0, 64, 55
1, 113076, Note_on_c, 0, 43, 74
1, 113111, Note_on_c, 0, 40, 14
1, 113137, Note_off_c, 0, 43, 64
1, 113141, Note_off_c, 0, 55, 63
1, 113142, Note_on_c, 0, 64, 66
1, 113144, Note_on_c, 0, 48, 77
1, 113146, Note_off_c, 0, 40, 51
1, 113173, Note_on_c, 0, 47, 42
1, 113190, Note_off_c, 0, 48, 67
1, 113200, Note_off_c, 0, 36, 64
1, 113209, Note_off_c, 0, 47, 47
1, 113220, Note_off_c, 0, 52, 63
1, 113221, Note_on_c, 0, 43, 44
1, 113222, Note_on_c, 0, 55, 77
1, 113245, Note_off_c, 0, 43, 62
1, 113265, Note_off_c, 0, 55, 0
1, 113285, Note_on_c, 0, 31, 100
1, 113285, Note_on_c, 0, 52, 104
1, 113302, Poly_aftertouch_c, 0, 55, 127
1, 113317, Poly_aftertouch_c, 0, 55, 0
1, 113317, Note_on_c, 0, 62, 31
1, 113331, Note_off_c, 0, 31, 65
1, 113360, Note_off_c, 0, 62, 30
1, 113403, Note_on_c, 0, 55, 75
1, 113417, Note_off_c, 0, 64, 64
1, 113446, Note_on_c, 0, 48, 66
1, 113463, Note_off_c, 0, 55, 60
1, 113493, Note_on_c, 0, 64, 63
1, 113506, Note_off_c, 0, 48, 64
1, 113514, Note_on_c, 0, 43, 73
1, 113543, Note_off_c, 0, 43, 66
1, 113566, Note_on_c, 0, 55, 80
1, 113568, Note_off_c, 0, 52, 64
1, 113626, Note_off_c, 0, 64, 53
1, 113897, Note_on_c, 0, 52, 86
1, 113898, Note_on_c, 0, 24, 95
1, 113899, Note_on_c, 0, 36, 108
1, 113915, Note_off_c, 0, 55, 55
1, 113959, Control_c, 0, 64, 83
1, 113974, Control_c, 0, 64, 51
1, 113990, Control_c, 0, 64, 0
1, 114064, Control_c, 0, 64, 45
1, 114079, Control_c, 0, 64, 77
1, 114089, Note_off_c, 0, 52, 64
1, 114093, Control_c, 0, 64, 127
1, 114124, Note_off_c, 0, 24, 63
1, 114181, Note_off_c, 0, 36, 62
1, 114893, Note_on_c, 0, 67, 97
1, 114893, Note_on_c, 0, 76, 91
1, 114894, Note_on_c, 0, 48, 89
1, 114894, Note_on_c, 0, 60, 94
1, 114894, Note_on_c, 0, 64, 93
1, 114896, Note_on_c, 0, 72, 93
1, 114898, Note_on_c, 0, 55, 94
1, 114926, Note_on_c, 0, 71, 55
1, 114927, Note_off_c, 0, 71, 127
1, 115062, Note_off_c, 0, 64, 59
1, 115097, Note_off_c, 0, 67, 54
1, 115100, Note_off_c, 0, 72, 52
1, 115108, Note_off_c, 0, 60, 58
1, 115130, Note_off_c, 0, 76, 56
1, 115153, Note_off_c, 0, 55, 56
1, 115200, Note_off_c, 0, 48, 62
1, 116161, Control_c, 0, 64, 120
1, 116176, Control_c, 0, 64, 112
1, 116190, Control_c, 0, 64, 109
1, 116205, Control_c, 0, 64, 104
1, 116220, Control_c, 0, 64, 99
1, 116235, Control_c, 0, 64, 95
1, 116250, Control_c, 0, 64, 93
1, 116265, Control_c, 0, 64, 91
1, 116280, Control_c, 0, 64, 90
1, 116295, Control_c, 0, 64, 90
1, 116309, Control_c, 0, 64, 89
1, 116324, Control_c, 0, 64, 87
1, 116339, Control_c, 0, 64, 86
1, 116354, Control_c, 0, 64, 85
1, 116369, Control_c, 0, 64, 83
1, 116384, Control_c, 0, 64, 79
1, 116399, Control_c, 0, 64, 76
1, 116414, Control_c, 0, 64, 74
1, 116429, Control_c, 0, 64, 73
1, 116444, Control_c, 0, 64, 71
1, 116458, Control_c, 0, 64, 69
1, 116473, Control_c, 0, 64, 68
1, 116488, Control_c, 0, 64, 65
1, 116503, Control_c, 0, 64, 63
1, 116518, Control_c, 0, 64, 61
1, 116532, Control_c, 0, 64, 59
1, 116547, Control_c, 0, 64, 56
1, 116562, Control_c, 0, 64, 54
1, 116577, Control_c, 0, 64, 51
1, 116592, Control_c, 0, 64, 47
1, 116606, Control_c, 0, 64, 41
1, 116621, Control_c, 0, 64, 33
1, 116636, Control_c, 0, 64, 21
1, 116658, Control_c, 0, 64, 0
1, 116733, End_track
0, 0, End_of_file
