0, 0, Header, 0, 1, 384
1, 0, Start_track
1, 0, Title_t, "HaydnHobXVI:52_1--Kurz          "
1, 0, Text_t, "2011 ePiano Junior Competition"
1, 0, Text_t, "captured in spring and summer 2011"
1, 0, Text_t, "http://www.piano-e-competition.com/"
1, 0, Text_t, "standard-resolution version"
1, 0, Text_t, "File processed for distribution with software designed and coded by Dr. John Q. Walker, founder of Zenph Sound Innovations"
1, 0, Instrument_name_t, "Yamaha Disklavier Pro Mark IV concert grand piano, model DCFIIISM4PRO"
1, 0, Sequencer_specific, 39, 67, 113, 0, 1, 0, 1, 0, 72, 97, 121, 100, 110, 83, 111, 110, 97, 116, 97, 88, 86, 73, 53, 50, 65, 97, 114, 111, 110, 32, 75, 117, 114, 122, 32, 32, 32, 32, 32, 32
1, 0, Sequencer_specific, 6, 67, 113, 0, 0, 0, 69
1, 0, System_exclusive, 21, 67, 113, 126, 21, 0, 2, 2, 2, 5, 12, 8, 4, 14, 0, 15, 4, 14, 4, 5, 3, 247
1, 0, Sequencer_specific, 5, 67, 123, 12, 2, 1
1, 0, Tempo, 512820
1, 0, Time_signature, 4, 2, 24, 8
1, 0, System_exclusive, 5, 126, 127, 9, 1, 247
1, 1, System_exclusive, 8, 67, 16, 76, 0, 0, 126, 0, 247
1, 2, System_exclusive, 8, 67, 16, 76, 8, 9, 7, 1, 247
1, 3, Control_c, 0, 0, 108
1, 3, Control_c, 1, 0, 108
1, 3, Control_c, 2, 0, 0
1, 3, Control_c, 3, 0, 0
1, 3, Control_c, 4, 0, 0
1, 3, Control_c, 5, 0, 0
1, 3, Control_c, 6, 0, 0
1, 3, Control_c, 7, 0, 0
1, 3, Control_c, 8, 0, 0
1, 3, Control_c, 9, 0, 127
1, 3, Control_c, 10, 0, 0
1, 3, Control_c, 11, 0, 0
1, 3, Control_c, 12, 0, 0
1, 3, Control_c, 13, 0, 0
1, 3, Control_c, 14, 0, 0
1, 3, Control_c, 15, 0, 0
1, 4, Control_c, 0, 32, 0
1, 4, Control_c, 1, 32, 0
1, 4, Control_c, 2, 32, 0
1, 4, Control_c, 3, 32, 0
1, 4, Control_c, 4, 32, 0
1, 4, Control_c, 5, 32, 0
1, 4, Control_c, 6, 32, 0
1, 4, Control_c, 7, 32, 0
1, 4, Control_c, 8, 32, 0
1, 4, Control_c, 9, 32, 0
1, 4, Control_c, 10, 32, 0
1, 4, Control_c, 11, 32, 0
1, 4, Control_c, 12, 32, 0
1, 4, Control_c, 13, 32, 0
1, 4, Control_c, 14, 32, 0
1, 4, Control_c, 15, 32, 0
1, 5, Program_c, 0, 0
1, 5, Program_c, 1, 0
1, 5, Program_c, 2, 0
1, 5, Program_c, 3, 0
1, 5, Program_c, 4, 0
1, 5, Program_c, 5, 0
1, 5, Program_c, 6, 0
1, 5, Program_c, 7, 0
1, 5, Program_c, 8, 0
1, 5, Program_c, 9, 0
1, 5, Program_c, 10, 0
1, 5, Program_c, 11, 0
1, 5, Program_c, 12, 0
1, 5, Program_c, 13, 0
1, 5, Program_c, 14, 0
1, 5, Program_c, 15, 0
1, 6, Control_c, 0, 7, 100
1, 6, Control_c, 1, 7, 100
1, 6, Control_c, 2, 7, 100
1, 6, Control_c, 3, 7, 100
1, 6, Control_c, 4, 7, 100
1, 6, Control_c, 5, 7, 100
1, 6, Control_c, 6, 7, 100
1, 6, Control_c, 7, 7, 100
1, 6, Control_c, 8, 7, 100
1, 6, Control_c, 9, 7, 100
1, 6, Control_c, 10, 7, 100
1, 6, Control_c, 11, 7, 100
1, 6, Control_c, 12, 7, 100
1, 6, Control_c, 13, 7, 100
1, 6, Control_c, 14, 7, 100
1, 6, Control_c, 15, 7, 100
1, 42, Control_c, 0, 64, 12
1, 79, Control_c, 0, 64, 25
1, 116, Control_c, 0, 64, 37
1, 153, Control_c, 0, 64, 51
1, 190, Control_c, 0, 64, 62
1, 226, Control_c, 0, 64, 76
1, 263, Control_c, 0, 64, 87
1, 300, Control_c, 0, 64, 103
1, 381, Note_on_c, 0, 39, 67
1, 388, Control_c, 0, 64, 95
1, 403, Control_c, 0, 64, 83
1, 406, Note_on_c, 0, 43, 68
1, 418, Control_c, 0, 64, 67
1, 433, Control_c, 0, 64, 48
1, 447, Note_on_c, 0, 46, 67
1, 447, Control_c, 0, 64, 0
1, 488, Note_on_c, 0, 51, 67
1, 500, Note_on_c, 0, 63, 95
1, 511, Note_on_c, 0, 58, 73
1, 514, Note_on_c, 0, 55, 68
1, 521, Control_c, 0, 64, 45
1, 536, Control_c, 0, 64, 59
1, 551, Control_c, 0, 64, 65
1, 565, Control_c, 0, 64, 71
1, 572, Note_off_c, 0, 51, 63
1, 576, Note_off_c, 0, 55, 62
1, 580, Control_c, 0, 64, 86
1, 590, Note_off_c, 0, 39, 62
1, 593, Note_off_c, 0, 58, 62
1, 597, Control_c, 0, 64, 127
1, 605, Note_off_c, 0, 43, 63
1, 609, Note_off_c, 0, 46, 62
1, 628, Note_off_c, 0, 63, 62
1, 944, Control_c, 0, 64, 95
1, 959, Control_c, 0, 64, 71
1, 974, Control_c, 0, 64, 28
1, 975, Note_on_c, 0, 67, 92
1, 977, Note_on_c, 0, 49, 67
1, 980, Note_on_c, 0, 43, 61
1, 982, Note_on_c, 0, 46, 65
1, 982, Note_on_c, 0, 39, 64
1, 988, Note_on_c, 0, 61, 77
1, 989, Note_on_c, 0, 63, 76
1, 989, Control_c, 0, 64, 0
1, 1033, Control_c, 0, 64, 26
1, 1048, Control_c, 0, 64, 60
1, 1063, Control_c, 0, 64, 70
1, 1068, Note_off_c, 0, 63, 57
1, 1077, Control_c, 0, 64, 90
1, 1083, Note_off_c, 0, 67, 59
1, 1092, Control_c, 0, 64, 127
1, 1098, Note_off_c, 0, 39, 61
1, 1101, Note_off_c, 0, 49, 61
1, 1125, Note_off_c, 0, 46, 62
1, 1125, Note_off_c, 0, 43, 62
1, 1153, Note_off_c, 0, 61, 19
1, 1319, Note_on_c, 0, 67, 94
1, 1325, Note_on_c, 0, 49, 68
1, 1327, Note_on_c, 0, 63, 83
1, 1328, Note_on_c, 0, 61, 75
1, 1339, Note_on_c, 0, 43, 52
1, 1339, Note_on_c, 0, 46, 53
1, 1342, Note_on_c, 0, 39, 45
1, 1353, Note_off_c, 0, 49, 66
1, 1358, Note_off_c, 0, 61, 62
1, 1363, Note_off_c, 0, 46, 61
1, 1370, Note_off_c, 0, 67, 62
1, 1371, Note_off_c, 0, 43, 64
1, 1381, Note_off_c, 0, 63, 63
1, 1389, Note_off_c, 0, 39, 48
1, 1445, Note_on_c, 0, 68, 103
1, 1450, Note_on_c, 0, 48, 75
1, 1453, Note_on_c, 0, 44, 67
1, 1460, Note_on_c, 0, 60, 83
1, 1461, Note_on_c, 0, 39, 68
1, 1468, Note_on_c, 0, 63, 71
1, 1494, Control_c, 0, 64, 88
1, 1509, Control_c, 0, 64, 65
1, 1524, Control_c, 0, 64, 0
1, 1754, Control_c, 0, 64, 51
1, 1768, Control_c, 0, 64, 61
1, 1783, Control_c, 0, 64, 65
1, 1798, Control_c, 0, 64, 71
1, 1813, Control_c, 0, 64, 89
1, 1827, Control_c, 0, 64, 127
1, 1837, Note_off_c, 0, 60, 60
1, 1861, Note_off_c, 0, 63, 59
1, 1904, Note_off_c, 0, 68, 59
1, 2147, Note_on_c, 0, 68, 80
1, 2153, Note_off_c, 0, 48, 61
1, 2172, Note_off_c, 0, 39, 58
1, 2180, Note_off_c, 0, 44, 47
1, 2182, Control_c, 0, 64, 112
1, 2198, Control_c, 0, 64, 78
1, 2198, Note_off_c, 0, 68, 64
1, 2199, Note_on_c, 0, 67, 73
1, 2213, Control_c, 0, 64, 64
1, 2228, Control_c, 0, 64, 43
1, 2228, Note_off_c, 0, 67, 66
1, 2242, Control_c, 0, 64, 0
1, 2243, Note_on_c, 0, 65, 75
1, 2281, Note_off_c, 0, 65, 63
1, 2301, Note_on_c, 0, 63, 78
1, 2360, Note_off_c, 0, 63, 63
1, 2381, Note_on_c, 0, 62, 79
1, 2386, Note_on_c, 0, 44, 64
1, 2392, Note_on_c, 0, 39, 50
1, 2392, Note_on_c, 0, 50, 64
1, 2401, Note_on_c, 0, 41, 63
1, 2404, Note_on_c, 0, 56, 76
1, 2465, Note_on_c, 0, 58, 54
1, 2529, Note_off_c, 0, 58, 59
1, 2531, Control_c, 0, 64, 42
1, 2546, Control_c, 0, 64, 63
1, 2549, Note_off_c, 0, 56, 63
1, 2561, Control_c, 0, 64, 74
1, 2565, Note_off_c, 0, 62, 64
1, 2567, Note_off_c, 0, 50, 61
1, 2576, Control_c, 0, 64, 127
1, 2588, Note_off_c, 0, 39, 63
1, 2595, Note_off_c, 0, 41, 63
1, 2597, Note_off_c, 0, 44, 63
1, 2760, Note_on_c, 0, 65, 95
1, 2827, Control_c, 0, 64, 103
1, 2842, Control_c, 0, 64, 82
1, 2857, Control_c, 0, 64, 70
1, 2872, Control_c, 0, 64, 60
1, 2881, Note_on_c, 0, 70, 92
1, 2886, Control_c, 0, 64, 19
1, 2888, Note_on_c, 0, 41, 52
1, 2891, Note_on_c, 0, 44, 53
1, 2891, Note_on_c, 0, 62, 75
1, 2894, Note_on_c, 0, 39, 52
1, 2894, Note_on_c, 0, 50, 47
1, 2901, Control_c, 0, 64, 0
1, 3021, Control_c, 0, 64, 41
1, 3036, Control_c, 0, 64, 61
1, 3050, Control_c, 0, 64, 68
1, 3065, Control_c, 0, 64, 79
1, 3080, Control_c, 0, 64, 117
1, 3093, Note_off_c, 0, 50, 37
1, 3095, Control_c, 0, 64, 127
1, 3095, Note_off_c, 0, 70, 53
1, 3110, Note_off_c, 0, 39, 57
1, 3124, Note_off_c, 0, 41, 62
1, 3131, Note_off_c, 0, 44, 60
1, 3162, Note_off_c, 0, 62, 54
1, 3270, Note_on_c, 0, 68, 83
1, 3271, Note_off_c, 0, 65, 58
1, 3339, Note_off_c, 0, 68, 61
1, 3369, Control_c, 0, 64, 96
1, 3384, Control_c, 0, 64, 76
1, 3391, Note_on_c, 0, 67, 79
1, 3396, Note_on_c, 0, 43, 45
1, 3398, Control_c, 0, 64, 58
1, 3399, Note_on_c, 0, 39, 46
1, 3402, Note_on_c, 0, 46, 45
1, 3403, Note_on_c, 0, 51, 49
1, 3405, Note_on_c, 0, 58, 65
1, 3408, Note_on_c, 0, 63, 67
1, 3413, Control_c, 0, 64, 0
1, 3576, Control_c, 0, 64, 49
1, 3590, Control_c, 0, 64, 63
1, 3605, Control_c, 0, 64, 68
1, 3620, Control_c, 0, 64, 74
1, 3635, Control_c, 0, 64, 87
1, 3650, Control_c, 0, 64, 127
1, 3784, Control_c, 0, 64, 108
1, 3799, Control_c, 0, 64, 82
1, 3814, Control_c, 0, 64, 67
1, 3828, Control_c, 0, 64, 48
1, 3829, Note_off_c, 0, 58, 64
1, 3841, Note_off_c, 0, 39, 63
1, 3843, Control_c, 0, 64, 0
1, 3846, Note_off_c, 0, 43, 63
1, 3850, Note_off_c, 0, 63, 63
1, 3851, Note_off_c, 0, 46, 63
1, 3858, Note_off_c, 0, 51, 64
1, 3858, Note_off_c, 0, 67, 65
1, 4117, Control_c, 0, 64, 15
1, 4132, Control_c, 0, 64, 23
1, 4147, Control_c, 0, 64, 30
1, 4161, Control_c, 0, 64, 32
1, 4176, Control_c, 0, 64, 33
1, 4206, Control_c, 0, 64, 34
1, 4220, Control_c, 0, 64, 34
1, 4235, Control_c, 0, 64, 37
1, 4250, Control_c, 0, 64, 39
1, 4265, Control_c, 0, 64, 40
1, 4345, Note_on_c, 0, 65, 31
1, 4356, Note_on_c, 0, 74, 45
1, 4366, Note_on_c, 0, 58, 34
1, 4378, Note_on_c, 0, 68, 24
1, 4491, Note_off_c, 0, 58, 58
1, 4491, Note_off_c, 0, 65, 58
1, 4493, Note_off_c, 0, 68, 56
1, 4711, Note_off_c, 0, 74, 59
1, 4717, Note_on_c, 0, 77, 55
1, 4834, Note_off_c, 0, 77, 57
1, 4845, Note_on_c, 0, 65, 25
1, 4848, Note_on_c, 0, 58, 36
1, 4855, Note_on_c, 0, 82, 57
1, 4865, Note_on_c, 0, 68, 29
1, 4954, Note_off_c, 0, 65, 58
1, 4955, Note_off_c, 0, 68, 56
1, 4958, Note_off_c, 0, 58, 57
1, 5203, Note_off_c, 0, 82, 57
1, 5222, Note_on_c, 0, 80, 42
1, 5224, Note_on_c, 0, 62, 24
1, 5304, Note_off_c, 0, 62, 50
1, 5334, Note_off_c, 0, 80, 64
1, 5352, Note_on_c, 0, 63, 20
1, 5354, Control_c, 0, 64, 41
1, 5362, Note_on_c, 0, 79, 45
1, 5538, Note_off_c, 0, 63, 51
1, 5560, Note_off_c, 0, 79, 62
1, 5994, Note_on_c, 0, 84, 83
1, 6007, Note_on_c, 0, 80, 68
1, 6016, Note_on_c, 0, 58, 63
1, 6068, Note_off_c, 0, 80, 62
1, 6119, Note_on_c, 0, 82, 79
1, 6129, Note_on_c, 0, 79, 59
1, 6138, Note_off_c, 0, 58, 59
1, 6139, Note_off_c, 0, 84, 60
1, 6143, Note_on_c, 0, 60, 47
1, 6192, Note_off_c, 0, 79, 54
1, 6204, Note_off_c, 0, 60, 58
1, 6243, Note_on_c, 0, 80, 80
1, 6256, Note_off_c, 0, 82, 61
1, 6259, Note_on_c, 0, 77, 44
1, 6267, Note_on_c, 0, 62, 42
1, 6285, Note_off_c, 0, 77, 54
1, 6289, Control_c, 0, 64, 40
1, 6319, Control_c, 0, 64, 40
1, 6334, Note_off_c, 0, 62, 54
1, 6334, Control_c, 0, 64, 39
1, 6337, Note_off_c, 0, 80, 63
1, 6349, Control_c, 0, 64, 38
1, 6377, Note_on_c, 0, 79, 65
1, 6383, Note_on_c, 0, 75, 56
1, 6389, Note_on_c, 0, 63, 44
1, 6393, Control_c, 0, 64, 38
1, 6423, Control_c, 0, 64, 37
1, 6437, Control_c, 0, 64, 37
1, 6452, Control_c, 0, 64, 36
1, 6464, Note_off_c, 0, 75, 59
1, 6468, Note_off_c, 0, 79, 66
1, 6497, Note_off_c, 0, 63, 62
1, 6630, Control_c, 0, 64, 36
1, 6645, Control_c, 0, 64, 35
1, 6660, Control_c, 0, 64, 35
1, 6911, Control_c, 0, 64, 35
1, 6926, Control_c, 0, 64, 36
1, 6949, Control_c, 0, 64, 36
1, 6963, Control_c, 0, 64, 37
1, 6994, Control_c, 0, 64, 37
1, 7038, Control_c, 0, 64, 38
1, 7083, Control_c, 0, 64, 38
1, 7098, Control_c, 0, 64, 39
1, 7129, Note_on_c, 0, 58, 38
1, 7131, Note_on_c, 0, 80, 45
1, 7132, Note_on_c, 0, 84, 52
1, 7142, Control_c, 0, 64, 40
1, 7186, Control_c, 0, 64, 40
1, 7201, Control_c, 0, 64, 41
1, 7216, Control_c, 0, 64, 41
1, 7230, Note_off_c, 0, 80, 52
1, 7230, Control_c, 0, 64, 42
1, 7233, Note_off_c, 0, 84, 58
1, 7243, Note_off_c, 0, 58, 38
1, 7245, Control_c, 0, 64, 42
1, 7256, Note_on_c, 0, 60, 41
1, 7260, Control_c, 0, 64, 43
1, 7264, Note_on_c, 0, 82, 53
1, 7274, Note_on_c, 0, 79, 43
1, 7290, Control_c, 0, 64, 44
1, 7316, Note_off_c, 0, 60, 59
1, 7356, Note_off_c, 0, 79, 45
1, 7362, Note_off_c, 0, 82, 55
1, 7378, Note_on_c, 0, 80, 53
1, 7394, Note_on_c, 0, 62, 34
1, 7402, Note_on_c, 0, 77, 31
1, 7433, Note_off_c, 0, 77, 44
1, 7453, Note_off_c, 0, 62, 51
1, 7463, Note_off_c, 0, 80, 57
1, 7504, Note_on_c, 0, 79, 39
1, 7512, Note_on_c, 0, 75, 49
1, 7513, Note_on_c, 0, 63, 34
1, 7572, Control_c, 0, 64, 43
1, 7578, Note_off_c, 0, 75, 52
1, 7586, Control_c, 0, 64, 42
1, 7588, Note_off_c, 0, 79, 65
1, 7616, Control_c, 0, 64, 42
1, 7618, Note_off_c, 0, 63, 57
1, 8098, Control_c, 0, 64, 41
1, 8113, Control_c, 0, 64, 41
1, 8127, Control_c, 0, 64, 40
1, 8172, Control_c, 0, 64, 40
1, 8187, Control_c, 0, 64, 39
1, 8201, Control_c, 0, 64, 39
1, 8233, Note_on_c, 0, 84, 98
1, 8243, Note_on_c, 0, 80, 78
1, 8246, Control_c, 0, 64, 38
1, 8334, Note_off_c, 0, 80, 61
1, 8342, Note_on_c, 0, 79, 77
1, 8347, Note_on_c, 0, 82, 94
1, 8372, Note_off_c, 0, 84, 63
1, 8466, Note_on_c, 0, 77, 76
1, 8467, Note_on_c, 0, 80, 95
1, 8470, Note_off_c, 0, 79, 62
1, 8486, Note_off_c, 0, 82, 63
1, 8544, Note_on_c, 0, 75, 59
1, 8544, Note_off_c, 0, 77, 61
1, 8571, Note_off_c, 0, 80, 64
1, 8583, Note_on_c, 0, 79, 90
1, 8679, Note_on_c, 0, 84, 93
1, 8688, Note_on_c, 0, 80, 74
1, 8693, Note_off_c, 0, 79, 66
1, 8699, Note_off_c, 0, 75, 57
1, 8759, Note_off_c, 0, 80, 59
1, 8789, Note_on_c, 0, 79, 70
1, 8809, Note_on_c, 0, 82, 89
1, 8829, Note_off_c, 0, 84, 62
1, 8875, Note_off_c, 0, 79, 64
1, 8902, Note_on_c, 0, 77, 72
1, 8920, Note_on_c, 0, 80, 94
1, 8943, Note_off_c, 0, 82, 64
1, 9006, Note_off_c, 0, 77, 52
1, 9014, Note_off_c, 0, 80, 64
1, 9027, Note_on_c, 0, 75, 73
1, 9035, Note_on_c, 0, 79, 81
1, 9096, Note_off_c, 0, 75, 61
1, 9134, Note_off_c, 0, 79, 0
1, 9145, Note_on_c, 0, 82, 89
1, 9148, Note_on_c, 0, 79, 63
1, 9245, Note_off_c, 0, 79, 53
1, 9263, Note_on_c, 0, 80, 89
1, 9267, Note_on_c, 0, 77, 64
1, 9285, Note_off_c, 0, 82, 35
1, 9373, Note_off_c, 0, 80, 52
1, 9376, Note_on_c, 0, 79, 84
1, 9379, Note_off_c, 0, 77, 63
1, 9388, Note_on_c, 0, 75, 64
1, 9388, Control_c, 0, 64, 39
1, 9463, Note_off_c, 0, 75, 49
1, 9469, Note_off_c, 0, 79, 64
1, 9477, Control_c, 0, 64, 39
1, 9492, Control_c, 0, 64, 40
1, 9499, Note_on_c, 0, 77, 84
1, 9500, Note_on_c, 0, 74, 62
1, 9537, Control_c, 0, 64, 40
1, 9587, Note_off_c, 0, 74, 48
1, 9605, Note_on_c, 0, 75, 81
1, 9605, Note_off_c, 0, 77, 54
1, 9611, Note_on_c, 0, 72, 61
1, 9707, Note_off_c, 0, 72, 63
1, 9721, Note_on_c, 0, 70, 60
1, 9722, Note_on_c, 0, 74, 77
1, 9728, Note_off_c, 0, 75, 58
1, 9744, Control_c, 0, 64, 41
1, 9789, Note_off_c, 0, 74, 62
1, 9818, Control_c, 0, 64, 41
1, 9834, Note_on_c, 0, 72, 72
1, 9835, Note_off_c, 0, 70, 60
1, 9843, Note_on_c, 0, 68, 56
1, 9898, Note_off_c, 0, 68, 57
1, 9958, Note_on_c, 0, 70, 69
1, 9961, Note_off_c, 0, 72, 39
1, 9980, Note_on_c, 0, 67, 47
1, 10047, Note_off_c, 0, 67, 54
1, 10058, Note_off_c, 0, 70, 51
1, 10073, Note_on_c, 0, 68, 64
1, 10092, Note_on_c, 0, 65, 36
1, 10167, Note_off_c, 0, 68, 59
1, 10176, Note_on_c, 0, 67, 61
1, 10179, Note_off_c, 0, 65, 59
1, 10198, Note_on_c, 0, 63, 49
1, 10254, Note_off_c, 0, 67, 61
1, 10255, Note_off_c, 0, 63, 56
1, 10304, Note_on_c, 0, 65, 54
1, 10327, Note_on_c, 0, 62, 28
1, 10330, Control_c, 0, 64, 41
1, 10360, Control_c, 0, 64, 40
1, 10365, Note_off_c, 0, 62, 44
1, 10457, Note_off_c, 0, 65, 59
1, 10464, Note_on_c, 0, 48, 46
1, 10472, Note_on_c, 0, 63, 64
1, 10537, Control_c, 0, 64, 44
1, 10548, Note_off_c, 0, 48, 54
1, 10552, Control_c, 0, 64, 50
1, 10567, Control_c, 0, 64, 57
1, 10582, Control_c, 0, 64, 62
1, 10597, Control_c, 0, 64, 66
1, 10609, Note_on_c, 0, 56, 36
1, 10611, Control_c, 0, 64, 72
1, 10626, Control_c, 0, 64, 81
1, 10641, Control_c, 0, 64, 105
1, 10655, Control_c, 0, 64, 127
1, 10719, Note_off_c, 0, 56, 38
1, 10734, Note_on_c, 0, 48, 42
1, 10798, Note_off_c, 0, 48, 53
1, 10826, Control_c, 0, 64, 104
1, 10838, Note_on_c, 0, 56, 47
1, 10841, Control_c, 0, 64, 91
1, 10855, Control_c, 0, 64, 85
1, 10870, Control_c, 0, 64, 84
1, 10885, Control_c, 0, 64, 83
1, 10900, Control_c, 0, 64, 81
1, 10905, Note_off_c, 0, 56, 52
1, 10915, Control_c, 0, 64, 77
1, 10930, Control_c, 0, 64, 72
1, 10944, Control_c, 0, 64, 66
1, 10959, Control_c, 0, 64, 62
1, 10975, Note_on_c, 0, 48, 36
1, 10975, Control_c, 0, 64, 55
1, 10990, Control_c, 0, 64, 50
1, 11005, Control_c, 0, 64, 48
1, 11039, Note_off_c, 0, 48, 56
1, 11076, Note_on_c, 0, 56, 45
1, 11142, Note_off_c, 0, 56, 56
1, 11200, Note_on_c, 0, 48, 40
1, 11257, Note_off_c, 0, 48, 58
1, 11268, Note_off_c, 0, 63, 58
1, 11286, Control_c, 0, 64, 49
1, 11309, Note_on_c, 0, 56, 43
1, 11316, Control_c, 0, 64, 49
1, 11319, Note_on_c, 0, 65, 48
1, 11364, Note_off_c, 0, 56, 58
1, 11365, Note_off_c, 0, 65, 60
1, 11375, Control_c, 0, 64, 50
1, 11382, Note_on_c, 0, 63, 52
1, 11409, Note_on_c, 0, 46, 42
1, 11418, Note_off_c, 0, 63, 65
1, 11440, Note_on_c, 0, 62, 63
1, 11499, Note_off_c, 0, 46, 53
1, 11531, Control_c, 0, 64, 51
1, 11546, Control_c, 0, 64, 52
1, 11550, Note_on_c, 0, 56, 54
1, 11560, Control_c, 0, 64, 55
1, 11575, Control_c, 0, 64, 60
1, 11590, Control_c, 0, 64, 64
1, 11605, Control_c, 0, 64, 69
1, 11620, Control_c, 0, 64, 75
1, 11634, Control_c, 0, 64, 82
1, 11649, Control_c, 0, 64, 91
1, 11650, Note_off_c, 0, 56, 53
1, 11659, Note_on_c, 0, 46, 55
1, 11664, Control_c, 0, 64, 101
1, 11679, Control_c, 0, 64, 121
1, 11693, Control_c, 0, 64, 127
1, 11746, Note_off_c, 0, 46, 57
1, 11776, Note_on_c, 0, 56, 60
1, 11798, Control_c, 0, 64, 108
1, 11813, Control_c, 0, 64, 96
1, 11828, Control_c, 0, 64, 86
1, 11841, Note_off_c, 0, 56, 54
1, 11843, Control_c, 0, 64, 78
1, 11857, Control_c, 0, 64, 72
1, 11872, Control_c, 0, 64, 69
1, 11887, Control_c, 0, 64, 67
1, 11891, Note_on_c, 0, 61, 61
1, 11893, Note_on_c, 0, 46, 46
1, 11901, Control_c, 0, 64, 66
1, 11902, Note_off_c, 0, 62, 59
1, 11916, Control_c, 0, 64, 64
1, 11931, Control_c, 0, 64, 62
1, 11946, Control_c, 0, 64, 60
1, 11961, Control_c, 0, 64, 58
1, 11963, Note_off_c, 0, 46, 54
1, 11975, Control_c, 0, 64, 56
1, 11990, Control_c, 0, 64, 55
1, 12005, Control_c, 0, 64, 55
1, 12017, Note_on_c, 0, 55, 47
1, 12020, Control_c, 0, 64, 54
1, 12035, Control_c, 0, 64, 54
1, 12050, Control_c, 0, 64, 53
1, 12110, Note_off_c, 0, 55, 56
1, 12120, Note_on_c, 0, 46, 42
1, 12124, Control_c, 0, 64, 53
1, 12203, Note_off_c, 0, 46, 60
1, 12246, Note_on_c, 0, 55, 47
1, 12316, Note_off_c, 0, 55, 51
1, 12348, Note_off_c, 0, 61, 61
1, 12359, Note_on_c, 0, 44, 31
1, 12367, Note_on_c, 0, 60, 57
1, 12437, Note_off_c, 0, 44, 56
1, 12477, Note_on_c, 0, 55, 42
1, 12551, Note_off_c, 0, 55, 51
1, 12577, Control_c, 0, 64, 53
1, 12608, Note_on_c, 0, 44, 29
1, 12621, Control_c, 0, 64, 54
1, 12672, Note_off_c, 0, 44, 56
1, 12709, Note_on_c, 0, 55, 44
1, 12759, Note_off_c, 0, 55, 54
1, 12831, Note_on_c, 0, 44, 34
1, 12843, Control_c, 0, 64, 54
1, 12903, Note_off_c, 0, 44, 54
1, 12962, Note_on_c, 0, 53, 40
1, 13026, Note_off_c, 0, 53, 55
1, 13069, Note_on_c, 0, 44, 40
1, 13131, Note_off_c, 0, 44, 57
1, 13156, Note_off_c, 0, 60, 57
1, 13184, Note_on_c, 0, 53, 41
1, 13192, Note_on_c, 0, 62, 50
1, 13229, Note_off_c, 0, 62, 65
1, 13239, Note_off_c, 0, 53, 57
1, 13247, Note_on_c, 0, 60, 45
1, 13291, Note_off_c, 0, 60, 65
1, 13301, Note_on_c, 0, 43, 43
1, 13302, Note_on_c, 0, 58, 63
1, 13371, Note_off_c, 0, 43, 52
1, 13422, Note_on_c, 0, 53, 51
1, 13514, Note_off_c, 0, 53, 55
1, 13519, Note_on_c, 0, 43, 56
1, 13574, Note_off_c, 0, 58, 62
1, 13619, Note_off_c, 0, 43, 56
1, 13643, Note_on_c, 0, 60, 67
1, 13648, Note_on_c, 0, 53, 58
1, 13698, Note_off_c, 0, 60, 58
1, 13704, Note_on_c, 0, 62, 75
1, 13729, Note_off_c, 0, 53, 57
1, 13756, Note_on_c, 0, 63, 87
1, 13757, Note_on_c, 0, 43, 58
1, 13774, Note_off_c, 0, 62, 63
1, 13849, Note_off_c, 0, 43, 59
1, 13875, Note_on_c, 0, 51, 62
1, 13991, Note_on_c, 0, 43, 59
1, 14008, Note_off_c, 0, 51, 36
1, 14057, Note_off_c, 0, 63, 59
1, 14085, Note_off_c, 0, 43, 61
1, 14104, Note_on_c, 0, 51, 63
1, 14112, Note_on_c, 0, 65, 69
1, 14146, Control_c, 0, 64, 54
1, 14168, Note_on_c, 0, 67, 76
1, 14173, Note_off_c, 0, 65, 61
1, 14177, Control_c, 0, 64, 53
1, 14194, Note_off_c, 0, 51, 57
1, 14219, Note_on_c, 0, 41, 53
1, 14225, Note_on_c, 0, 68, 93
1, 14235, Note_off_c, 0, 67, 64
1, 14316, Note_off_c, 0, 41, 59
1, 14349, Note_on_c, 0, 50, 56
1, 14434, Note_off_c, 0, 50, 51
1, 14451, Control_c, 0, 64, 53
1, 14469, Note_on_c, 0, 41, 46
1, 14540, Note_off_c, 0, 41, 64
1, 14579, Note_on_c, 0, 50, 54
1, 14658, Note_off_c, 0, 50, 51
1, 14694, Note_on_c, 0, 39, 44
1, 14707, Note_off_c, 0, 68, 58
1, 14717, Note_on_c, 0, 67, 60
1, 14733, Control_c, 0, 64, 52
1, 14747, Control_c, 0, 64, 50
1, 14762, Control_c, 0, 64, 49
1, 14771, Note_off_c, 0, 39, 54
1, 14807, Control_c, 0, 64, 53
1, 14822, Control_c, 0, 64, 59
1, 14822, Note_on_c, 0, 43, 38
1, 14837, Control_c, 0, 64, 64
1, 14849, Note_off_c, 0, 67, 60
1, 14851, Control_c, 0, 64, 68
1, 14866, Control_c, 0, 64, 75
1, 14880, Control_c, 0, 64, 83
1, 14894, Control_c, 0, 64, 92
1, 14897, Note_off_c, 0, 43, 59
1, 14909, Control_c, 0, 64, 101
1, 14924, Control_c, 0, 64, 104
1, 14926, Note_on_c, 0, 46, 45
1, 14939, Control_c, 0, 64, 101
1, 14954, Control_c, 0, 64, 98
1, 14968, Note_off_c, 0, 46, 63
1, 14970, Control_c, 0, 64, 95
1, 14985, Control_c, 0, 64, 92
1, 14999, Control_c, 0, 64, 89
1, 15010, Note_on_c, 0, 51, 57
1, 15014, Control_c, 0, 64, 87
1, 15029, Control_c, 0, 64, 85
1, 15039, Note_off_c, 0, 51, 62
1, 15044, Control_c, 0, 64, 80
1, 15059, Control_c, 0, 64, 76
1, 15073, Control_c, 0, 64, 70
1, 15088, Control_c, 0, 64, 66
1, 15103, Control_c, 0, 64, 62
1, 15117, Control_c, 0, 64, 58
1, 15132, Control_c, 0, 64, 55
1, 15147, Control_c, 0, 64, 53
1, 15162, Control_c, 0, 64, 52
1, 15173, Note_on_c, 0, 65, 55
1, 15177, Note_on_c, 0, 60, 55
1, 15180, Note_on_c, 0, 56, 41
1, 15185, Control_c, 0, 64, 50
1, 15193, Note_on_c, 0, 44, 35
1, 15199, Control_c, 0, 64, 47
1, 15211, Note_off_c, 0, 56, 56
1, 15214, Note_off_c, 0, 60, 64
1, 15214, Control_c, 0, 64, 42
1, 15217, Note_off_c, 0, 65, 60
1, 15227, Note_off_c, 0, 44, 53
1, 15229, Control_c, 0, 64, 35
1, 15244, Control_c, 0, 64, 32
1, 15259, Control_c, 0, 64, 31
1, 15273, Control_c, 0, 64, 30
1, 15288, Control_c, 0, 64, 30
1, 15303, Control_c, 0, 64, 29
1, 15317, Control_c, 0, 64, 28
1, 15332, Control_c, 0, 64, 26
1, 15695, Note_on_c, 0, 62, 49
1, 15698, Note_on_c, 0, 53, 37
1, 15701, Note_on_c, 0, 46, 35
1, 15702, Note_on_c, 0, 56, 42
1, 15748, Note_off_c, 0, 62, 62
1, 15749, Note_off_c, 0, 56, 62
1, 15754, Note_off_c, 0, 53, 64
1, 15758, Note_off_c, 0, 46, 63
1, 15822, Control_c, 0, 64, 26
1, 15837, Control_c, 0, 64, 24
1, 15852, Control_c, 0, 64, 16
1, 15867, Control_c, 0, 64, 0
1, 16211, Note_on_c, 0, 75, 102
1, 16216, Note_on_c, 0, 55, 60
1, 16219, Note_on_c, 0, 67, 84
1, 16220, Note_on_c, 0, 70, 82
1, 16223, Note_on_c, 0, 58, 73
1, 16223, Note_on_c, 0, 63, 84
1, 16226, Note_on_c, 0, 51, 72
1, 16259, Control_c, 0, 64, 73
1, 16274, Control_c, 0, 64, 127
1, 16345, Note_off_c, 0, 67, 62
1, 16360, Note_off_c, 0, 63, 63
1, 16378, Note_off_c, 0, 70, 63
1, 16400, Note_off_c, 0, 51, 64
1, 16404, Note_off_c, 0, 75, 60
1, 16406, Note_off_c, 0, 58, 63
1, 16411, Note_off_c, 0, 55, 64
1, 16728, Note_on_c, 0, 79, 103
1, 16732, Note_on_c, 0, 51, 80
1, 16736, Note_on_c, 0, 58, 78
1, 16739, Note_on_c, 0, 75, 88
1, 16741, Note_on_c, 0, 55, 69
1, 16741, Note_on_c, 0, 61, 83
1, 16742, Note_on_c, 0, 73, 91
1, 16742, Control_c, 0, 64, 103
1, 16757, Control_c, 0, 64, 61
1, 16772, Control_c, 0, 64, 0
1, 16828, Note_off_c, 0, 75, 53
1, 16831, Control_c, 0, 64, 61
1, 16846, Control_c, 0, 64, 100
1, 16861, Control_c, 0, 64, 127
1, 16910, Note_off_c, 0, 61, 62
1, 16920, Note_off_c, 0, 51, 65
1, 16925, Note_off_c, 0, 58, 63
1, 16928, Note_off_c, 0, 55, 64
1, 16989, Note_off_c, 0, 73, 55
1, 17063, Note_off_c, 0, 79, 60
1, 17108, Note_on_c, 0, 75, 103
1, 17148, Note_on_c, 0, 73, 32
1, 17181, Note_off_c, 0, 73, 55
1, 17199, Note_off_c, 0, 75, 57
1, 17282, Note_on_c, 0, 80, 102
1, 17287, Note_on_c, 0, 51, 70
1, 17287, Note_on_c, 0, 56, 71
1, 17287, Note_on_c, 0, 60, 72
1, 17295, Note_on_c, 0, 72, 86
1, 17305, Note_on_c, 0, 75, 73
1, 17365, Control_c, 0, 64, 86
1, 17380, Control_c, 0, 64, 63
1, 17395, Control_c, 0, 64, 0
1, 17506, Control_c, 0, 64, 56
1, 17511, Note_off_c, 0, 72, 58
1, 17520, Control_c, 0, 64, 70
1, 17535, Control_c, 0, 64, 101
1, 17550, Control_c, 0, 64, 127
1, 17564, Note_off_c, 0, 80, 61
1, 17564, Note_off_c, 0, 75, 62
1, 17713, Note_off_c, 0, 56, 0
1, 17751, Poly_aftertouch_c, 0, 56, 127
1, 17819, Note_on_c, 0, 84, 76
1, 17880, Note_on_c, 0, 82, 67
1, 17886, Note_off_c, 0, 84, 62
1, 17926, Note_on_c, 0, 80, 71
1, 17937, Note_off_c, 0, 82, 65
1, 17978, Note_on_c, 0, 79, 78
1, 17985, Note_off_c, 0, 80, 65
1, 18015, Note_off_c, 0, 79, 63
1, 18028, Note_on_c, 0, 77, 79
1, 18031, Note_off_c, 0, 60, 61
1, 18034, Note_off_c, 0, 51, 62
1, 18046, Poly_aftertouch_c, 0, 56, 0
1, 18083, Note_on_c, 0, 75, 84
1, 18086, Note_off_c, 0, 77, 60
1, 18123, Note_on_c, 0, 74, 82
1, 18135, Note_off_c, 0, 75, 62
1, 18176, Note_off_c, 0, 74, 65
1, 18190, Note_on_c, 0, 72, 80
1, 18225, Control_c, 0, 64, 104
1, 18240, Control_c, 0, 64, 73
1, 18242, Note_on_c, 0, 70, 84
1, 18255, Control_c, 0, 64, 60
1, 18256, Note_on_c, 0, 62, 77
1, 18257, Note_off_c, 0, 72, 62
1, 18260, Note_on_c, 0, 56, 64
1, 18261, Note_on_c, 0, 58, 69
1, 18270, Control_c, 0, 64, 53
1, 18271, Note_on_c, 0, 53, 57
1, 18285, Control_c, 0, 64, 58
1, 18298, Note_on_c, 0, 68, 82
1, 18299, Control_c, 0, 64, 64
1, 18308, Note_off_c, 0, 70, 66
1, 18314, Control_c, 0, 64, 74
1, 18329, Control_c, 0, 64, 98
1, 18342, Note_off_c, 0, 62, 52
1, 18343, Control_c, 0, 64, 127
1, 18347, Note_on_c, 0, 67, 85
1, 18365, Note_off_c, 0, 68, 63
1, 18372, Note_off_c, 0, 58, 60
1, 18384, Note_off_c, 0, 56, 57
1, 18395, Note_off_c, 0, 67, 64
1, 18409, Note_on_c, 0, 65, 73
1, 18450, Note_off_c, 0, 65, 53
1, 18453, Note_on_c, 0, 63, 82
1, 18454, Note_off_c, 0, 53, 54
1, 18503, Note_on_c, 0, 62, 77
1, 18509, Note_off_c, 0, 63, 64
1, 18536, Note_off_c, 0, 62, 61
1, 18563, Note_on_c, 0, 60, 70
1, 18600, Note_off_c, 0, 60, 61
1, 18602, Note_on_c, 0, 58, 81
1, 18647, Note_on_c, 0, 56, 86
1, 18649, Note_off_c, 0, 58, 66
1, 18689, Note_on_c, 0, 55, 84
1, 18709, Note_off_c, 0, 56, 62
1, 18739, Note_off_c, 0, 55, 65
1, 18745, Note_on_c, 0, 53, 80
1, 18789, Note_off_c, 0, 53, 59
1, 18799, Note_on_c, 0, 51, 84
1, 18829, Note_off_c, 0, 51, 67
1, 18837, Note_on_c, 0, 52, 55
1, 18842, Note_on_c, 0, 50, 80
1, 18861, Control_c, 0, 64, 117
1, 18862, Note_off_c, 0, 52, 58
1, 18876, Control_c, 0, 64, 105
1, 18879, Note_off_c, 0, 50, 63
1, 18891, Control_c, 0, 64, 100
1, 18897, Note_on_c, 0, 48, 71
1, 18906, Control_c, 0, 64, 94
1, 18928, Control_c, 0, 64, 86
1, 18942, Control_c, 0, 64, 81
1, 18954, Note_on_c, 0, 46, 80
1, 18957, Note_off_c, 0, 48, 58
1, 18957, Control_c, 0, 64, 77
1, 18973, Control_c, 0, 64, 76
1, 18988, Control_c, 0, 64, 74
1, 18995, Note_on_c, 0, 44, 75
1, 19003, Control_c, 0, 64, 71
1, 19007, Note_off_c, 0, 46, 62
1, 19018, Control_c, 0, 64, 68
1, 19031, Note_on_c, 0, 43, 84
1, 19033, Control_c, 0, 64, 67
1, 19044, Note_off_c, 0, 44, 64
1, 19047, Control_c, 0, 64, 66
1, 19062, Control_c, 0, 64, 65
1, 19077, Control_c, 0, 64, 63
1, 19082, Note_on_c, 0, 41, 82
1, 19082, Note_off_c, 0, 43, 63
1, 19092, Control_c, 0, 64, 61
1, 19107, Control_c, 0, 64, 60
1, 19121, Control_c, 0, 64, 59
1, 19136, Control_c, 0, 64, 58
1, 19143, Note_off_c, 0, 41, 64
1, 19151, Control_c, 0, 64, 53
1, 19159, Note_on_c, 0, 39, 80
1, 19165, Control_c, 0, 64, 46
1, 19180, Control_c, 0, 64, 43
1, 19195, Control_c, 0, 64, 41
1, 19210, Control_c, 0, 64, 39
1, 19225, Control_c, 0, 64, 27
1, 19240, Control_c, 0, 64, 0
1, 19383, Note_off_c, 0, 39, 63
1, 19595, Control_c, 0, 64, 10
1, 19610, Control_c, 0, 64, 18
1, 19625, Control_c, 0, 64, 20
1, 19639, Control_c, 0, 64, 25
1, 19662, Control_c, 0, 64, 32
1, 19677, Control_c, 0, 64, 36
1, 19691, Control_c, 0, 64, 38
1, 19736, Control_c, 0, 64, 39
1, 19751, Control_c, 0, 64, 40
1, 19767, Control_c, 0, 64, 41
1, 19815, Note_on_c, 0, 75, 55
1, 19826, Control_c, 0, 64, 42
1, 19841, Control_c, 0, 64, 44
1, 19842, Note_on_c, 0, 84, 36
1, 19907, Note_off_c, 0, 84, 44
1, 19934, Note_on_c, 0, 79, 45
1, 20027, Note_off_c, 0, 79, 44
1, 20065, Note_on_c, 0, 84, 45
1, 20141, Note_off_c, 0, 75, 57
1, 20158, Note_off_c, 0, 84, 54
1, 20192, Note_on_c, 0, 77, 44
1, 20197, Note_on_c, 0, 79, 32
1, 20235, Note_off_c, 0, 77, 46
1, 20258, Note_on_c, 0, 75, 45
1, 20266, Note_off_c, 0, 79, 47
1, 20283, Note_off_c, 0, 75, 56
1, 20295, Note_on_c, 0, 84, 45
1, 20311, Note_on_c, 0, 74, 61
1, 20370, Note_off_c, 0, 84, 57
1, 20435, Note_on_c, 0, 77, 46
1, 20528, Note_off_c, 0, 77, 59
1, 20548, Note_on_c, 0, 84, 46
1, 20641, Note_off_c, 0, 84, 59
1, 20671, Note_on_c, 0, 77, 56
1, 20775, Note_off_c, 0, 77, 59
1, 20779, Note_off_c, 0, 74, 62
1, 20785, Note_on_c, 0, 73, 65
1, 20795, Note_on_c, 0, 82, 58
1, 20842, Control_c, 0, 64, 44
1, 20867, Note_off_c, 0, 82, 55
1, 20901, Control_c, 0, 64, 43
1, 20910, Note_on_c, 0, 77, 56
1, 20989, Note_off_c, 0, 77, 56
1, 21033, Note_on_c, 0, 82, 49
1, 21086, Note_off_c, 0, 82, 61
1, 21146, Note_on_c, 0, 77, 47
1, 21225, Note_off_c, 0, 77, 54
1, 21273, Note_off_c, 0, 73, 59
1, 21284, Note_on_c, 0, 72, 45
1, 21286, Note_on_c, 0, 82, 41
1, 21341, Note_off_c, 0, 82, 53
1, 21402, Note_on_c, 0, 76, 43
1, 21472, Note_off_c, 0, 76, 57
1, 21513, Note_on_c, 0, 82, 43
1, 21607, Note_off_c, 0, 82, 58
1, 21633, Note_on_c, 0, 76, 45
1, 21704, Note_off_c, 0, 76, 59
1, 21745, Note_on_c, 0, 80, 53
1, 21830, Note_off_c, 0, 80, 62
1, 21871, Note_on_c, 0, 75, 50
1, 21943, Note_off_c, 0, 75, 54
1, 21979, Note_on_c, 0, 80, 49
1, 22083, Note_off_c, 0, 72, 47
1, 22086, Note_off_c, 0, 80, 56
1, 22105, Note_on_c, 0, 74, 53
1, 22124, Note_on_c, 0, 75, 46
1, 22136, Note_off_c, 0, 74, 63
1, 22155, Note_on_c, 0, 72, 46
1, 22173, Note_off_c, 0, 75, 56
1, 22202, Note_off_c, 0, 72, 62
1, 22214, Note_on_c, 0, 70, 52
1, 22235, Note_on_c, 0, 80, 46
1, 22295, Note_off_c, 0, 80, 57
1, 22349, Note_on_c, 0, 74, 46
1, 22438, Note_off_c, 0, 74, 56
1, 22480, Note_on_c, 0, 80, 49
1, 22558, Note_off_c, 0, 80, 54
1, 22578, Note_on_c, 0, 74, 50
1, 22672, Note_off_c, 0, 74, 53
1, 22698, Note_on_c, 0, 79, 55
1, 22772, Note_off_c, 0, 79, 62
1, 22814, Note_on_c, 0, 73, 51
1, 22900, Note_off_c, 0, 73, 58
1, 22921, Note_on_c, 0, 79, 53
1, 22995, Note_off_c, 0, 70, 58
1, 23008, Note_off_c, 0, 79, 58
1, 23048, Note_on_c, 0, 72, 41
1, 23052, Note_on_c, 0, 73, 48
1, 23085, Note_off_c, 0, 72, 52
1, 23103, Note_on_c, 0, 70, 43
1, 23110, Note_off_c, 0, 73, 56
1, 23127, Note_off_c, 0, 70, 59
1, 23152, Note_on_c, 0, 79, 50
1, 23157, Note_on_c, 0, 69, 63
1, 23217, Note_off_c, 0, 79, 55
1, 23288, Note_on_c, 0, 72, 45
1, 23364, Note_off_c, 0, 72, 55
1, 23410, Note_on_c, 0, 79, 51
1, 23494, Note_off_c, 0, 79, 58
1, 23526, Note_on_c, 0, 72, 55
1, 23539, Control_c, 0, 64, 44
1, 23598, Note_off_c, 0, 72, 53
1, 23627, Note_on_c, 0, 68, 65
1, 23637, Note_on_c, 0, 77, 61
1, 23640, Note_off_c, 0, 69, 57
1, 23711, Note_off_c, 0, 77, 62
1, 23762, Note_on_c, 0, 72, 54
1, 23819, Note_off_c, 0, 72, 54
1, 23871, Note_on_c, 0, 77, 61
1, 23963, Note_off_c, 0, 68, 56
1, 23965, Note_off_c, 0, 77, 59
1, 23996, Note_on_c, 0, 70, 59
1, 24010, Note_on_c, 0, 72, 56
1, 24033, Note_off_c, 0, 70, 63
1, 24046, Note_on_c, 0, 68, 73
1, 24052, Note_off_c, 0, 72, 64
1, 24079, Note_off_c, 0, 68, 63
1, 24110, Note_on_c, 0, 67, 72
1, 24113, Note_on_c, 0, 77, 60
1, 24184, Note_off_c, 0, 77, 55
1, 24244, Note_on_c, 0, 70, 58
1, 24338, Note_off_c, 0, 70, 63
1, 24358, Note_on_c, 0, 77, 67
1, 24435, Note_off_c, 0, 77, 57
1, 24468, Note_on_c, 0, 70, 62
1, 24564, Note_off_c, 0, 70, 63
1, 24571, Note_on_c, 0, 75, 73
1, 24582, Note_on_c, 0, 66, 71
1, 24592, Note_off_c, 0, 67, 60
1, 24659, Note_off_c, 0, 75, 54
1, 24688, Note_on_c, 0, 70, 65
1, 24803, Note_off_c, 0, 70, 62
1, 24808, Note_on_c, 0, 75, 70
1, 24894, Note_off_c, 0, 75, 63
1, 24930, Note_on_c, 0, 70, 70
1, 25034, Note_off_c, 0, 70, 61
1, 25049, Note_off_c, 0, 66, 63
1, 25049, Note_on_c, 0, 75, 75
1, 25054, Note_on_c, 0, 65, 68
1, 25139, Note_off_c, 0, 75, 59
1, 25165, Note_on_c, 0, 69, 70
1, 25276, Note_off_c, 0, 69, 57
1, 25297, Note_on_c, 0, 75, 71
1, 25397, Note_off_c, 0, 75, 50
1, 25399, Note_on_c, 0, 69, 67
1, 25520, Note_off_c, 0, 69, 60
1, 25526, Note_on_c, 0, 64, 73
1, 25529, Note_on_c, 0, 73, 70
1, 25532, Note_off_c, 0, 65, 58
1, 25586, Control_c, 0, 64, 45
1, 25601, Control_c, 0, 64, 48
1, 25616, Control_c, 0, 64, 53
1, 25626, Note_off_c, 0, 73, 56
1, 25631, Control_c, 0, 64, 57
1, 25638, Note_on_c, 0, 70, 69
1, 25646, Control_c, 0, 64, 60
1, 25668, Control_c, 0, 64, 63
1, 25682, Control_c, 0, 64, 65
1, 25697, Control_c, 0, 64, 68
1, 25712, Control_c, 0, 64, 73
1, 25726, Control_c, 0, 64, 82
1, 25741, Note_off_c, 0, 64, 63
1, 25741, Control_c, 0, 64, 94
1, 25756, Control_c, 0, 64, 108
1, 25763, Note_on_c, 0, 73, 76
1, 25777, Note_off_c, 0, 70, 60
1, 25786, Control_c, 0, 64, 105
1, 25801, Control_c, 0, 64, 103
1, 25816, Control_c, 0, 64, 103
1, 25830, Control_c, 0, 64, 101
1, 25845, Note_off_c, 0, 73, 56
1, 25845, Control_c, 0, 64, 98
1, 25860, Control_c, 0, 64, 90
1, 25875, Note_on_c, 0, 70, 75
1, 25875, Control_c, 0, 64, 83
1, 25890, Control_c, 0, 64, 79
1, 25905, Control_c, 0, 64, 77
1, 25920, Control_c, 0, 64, 75
1, 25994, Control_c, 0, 64, 75
1, 26006, Note_off_c, 0, 70, 63
1, 26008, Control_c, 0, 64, 73
1, 26023, Control_c, 0, 64, 68
1, 26024, Note_on_c, 0, 53, 70
1, 26026, Note_on_c, 0, 65, 82
1, 26029, Note_on_c, 0, 69, 76
1, 26038, Control_c, 0, 64, 59
1, 26053, Control_c, 0, 64, 12
1, 26068, Control_c, 0, 64, 0
1, 26162, Note_on_c, 0, 72, 72
1, 26172, Control_c, 0, 64, 41
1, 26176, Note_off_c, 0, 69, 56
1, 26187, Control_c, 0, 64, 53
1, 26202, Control_c, 0, 64, 60
1, 26217, Control_c, 0, 64, 64
1, 26231, Control_c, 0, 64, 68
1, 26234, Note_off_c, 0, 65, 60
1, 26246, Control_c, 0, 64, 75
1, 26261, Control_c, 0, 64, 87
1, 26276, Control_c, 0, 64, 127
1, 26277, Note_on_c, 0, 77, 82
1, 26280, Note_off_c, 0, 72, 63
1, 26379, Note_off_c, 0, 77, 61
1, 26384, Note_on_c, 0, 72, 82
1, 26505, Control_c, 0, 64, 88
1, 26508, Note_on_c, 0, 63, 84
1, 26520, Control_c, 0, 64, 71
1, 26526, Note_off_c, 0, 72, 61
1, 26535, Control_c, 0, 64, 56
1, 26543, Note_on_c, 0, 79, 65
1, 26543, Note_on_c, 0, 81, 63
1, 26549, Control_c, 0, 64, 0
1, 26594, Control_c, 0, 64, 28
1, 26609, Control_c, 0, 64, 56
1, 26622, Note_off_c, 0, 81, 62
1, 26623, Note_off_c, 0, 79, 63
1, 26624, Control_c, 0, 64, 62
1, 26638, Control_c, 0, 64, 64
1, 26650, Note_on_c, 0, 69, 72
1, 26653, Control_c, 0, 64, 64
1, 26668, Control_c, 0, 64, 65
1, 26683, Control_c, 0, 64, 67
1, 26698, Control_c, 0, 64, 72
1, 26713, Control_c, 0, 64, 78
1, 26728, Control_c, 0, 64, 85
1, 26731, Note_off_c, 0, 69, 62
1, 26743, Control_c, 0, 64, 91
1, 26757, Control_c, 0, 64, 96
1, 26772, Control_c, 0, 64, 101
1, 26772, Note_on_c, 0, 82, 78
1, 26787, Control_c, 0, 64, 108
1, 26801, Note_off_c, 0, 63, 57
1, 26802, Control_c, 0, 64, 109
1, 26817, Control_c, 0, 64, 106
1, 26818, Note_off_c, 0, 82, 49
1, 26831, Control_c, 0, 64, 105
1, 26846, Control_c, 0, 64, 104
1, 26861, Control_c, 0, 64, 103
1, 26876, Control_c, 0, 64, 100
1, 26891, Note_on_c, 0, 65, 80
1, 26891, Control_c, 0, 64, 98
1, 26905, Control_c, 0, 64, 98
1, 26920, Control_c, 0, 64, 97
1, 26935, Control_c, 0, 64, 96
1, 26941, Note_on_c, 0, 63, 77
1, 26951, Control_c, 0, 64, 92
1, 26954, Note_off_c, 0, 65, 60
1, 26966, Control_c, 0, 64, 88
1, 26980, Control_c, 0, 64, 86
1, 26995, Control_c, 0, 64, 82
1, 27005, Note_on_c, 0, 82, 83
1, 27005, Note_on_c, 0, 61, 74
1, 27010, Control_c, 0, 64, 74
1, 27013, Note_off_c, 0, 63, 63
1, 27025, Control_c, 0, 64, 68
1, 27040, Control_c, 0, 64, 66
1, 27054, Control_c, 0, 64, 67
1, 27069, Control_c, 0, 64, 67
1, 27091, Note_off_c, 0, 82, 62
1, 27099, Control_c, 0, 64, 67
1, 27106, Note_on_c, 0, 70, 69
1, 27114, Control_c, 0, 64, 65
1, 27128, Control_c, 0, 64, 64
1, 27133, Note_off_c, 0, 61, 50
1, 27143, Control_c, 0, 64, 60
1, 27166, Control_c, 0, 64, 51
1, 27180, Control_c, 0, 64, 45
1, 27195, Control_c, 0, 64, 42
1, 27211, Note_off_c, 0, 70, 58
1, 27240, Note_on_c, 0, 78, 77
1, 27258, Note_on_c, 0, 58, 59
1, 27338, Note_off_c, 0, 78, 60
1, 27357, Note_on_c, 0, 70, 68
1, 27442, Note_off_c, 0, 58, 37
1, 27464, Note_on_c, 0, 60, 59
1, 27468, Note_off_c, 0, 70, 52
1, 27473, Note_on_c, 0, 77, 83
1, 27566, Note_off_c, 0, 77, 56
1, 27592, Note_on_c, 0, 70, 56
1, 27690, Note_off_c, 0, 60, 62
1, 27700, Note_on_c, 0, 61, 71
1, 27712, Note_off_c, 0, 70, 61
1, 27713, Note_on_c, 0, 76, 73
1, 27714, Control_c, 0, 64, 43
1, 27728, Note_off_c, 0, 53, 48
1, 27729, Control_c, 0, 64, 45
1, 27744, Control_c, 0, 64, 47
1, 27759, Control_c, 0, 64, 47
1, 27765, Note_off_c, 0, 76, 62
1, 27804, Control_c, 0, 64, 47
1, 27819, Control_c, 0, 64, 46
1, 27839, Note_on_c, 0, 70, 52
1, 27878, Control_c, 0, 64, 45
1, 27907, Note_off_c, 0, 70, 54
1, 27924, Note_off_c, 0, 61, 52
1, 27952, Note_on_c, 0, 60, 72
1, 27953, Note_on_c, 0, 77, 67
1, 27956, Note_on_c, 0, 53, 60
1, 28018, Control_c, 0, 64, 45
1, 28063, Control_c, 0, 64, 45
1, 28081, Note_on_c, 0, 69, 50
1, 28093, Control_c, 0, 64, 49
1, 28108, Control_c, 0, 64, 52
1, 28123, Control_c, 0, 64, 54
1, 28132, Note_off_c, 0, 77, 48
1, 28138, Control_c, 0, 64, 56
1, 28152, Control_c, 0, 64, 58
1, 28155, Note_off_c, 0, 69, 58
1, 28167, Control_c, 0, 64, 60
1, 28182, Note_on_c, 0, 72, 57
1, 28182, Control_c, 0, 64, 62
1, 28197, Control_c, 0, 64, 63
1, 28211, Control_c, 0, 64, 64
1, 28221, Note_off_c, 0, 60, 62
1, 28226, Control_c, 0, 64, 64
1, 28258, Note_off_c, 0, 72, 64
1, 28296, Note_on_c, 0, 69, 55
1, 28300, Control_c, 0, 64, 65
1, 28330, Control_c, 0, 64, 64
1, 28359, Control_c, 0, 64, 64
1, 28374, Control_c, 0, 64, 62
1, 28389, Control_c, 0, 64, 58
1, 28403, Control_c, 0, 64, 52
1, 28415, Note_off_c, 0, 69, 58
1, 28418, Control_c, 0, 64, 47
1, 28424, Note_on_c, 0, 63, 82
1, 28433, Control_c, 0, 64, 46
1, 28438, Note_on_c, 0, 78, 72
1, 28448, Control_c, 0, 64, 47
1, 28463, Control_c, 0, 64, 54
1, 28478, Control_c, 0, 64, 60
1, 28492, Control_c, 0, 64, 64
1, 28502, Note_off_c, 0, 78, 64
1, 28507, Control_c, 0, 64, 66
1, 28522, Control_c, 0, 64, 68
1, 28537, Note_on_c, 0, 69, 63
1, 28537, Control_c, 0, 64, 71
1, 28553, Control_c, 0, 64, 74
1, 28567, Control_c, 0, 64, 77
1, 28582, Control_c, 0, 64, 80
1, 28589, Note_off_c, 0, 63, 62
1, 28597, Control_c, 0, 64, 82
1, 28612, Control_c, 0, 64, 83
1, 28615, Note_off_c, 0, 69, 48
1, 28656, Note_on_c, 0, 81, 73
1, 28679, Control_c, 0, 64, 82
1, 28694, Control_c, 0, 64, 81
1, 28708, Control_c, 0, 64, 80
1, 28723, Control_c, 0, 64, 78
1, 28738, Control_c, 0, 64, 75
1, 28740, Note_off_c, 0, 81, 63
1, 28753, Control_c, 0, 64, 71
1, 28767, Note_on_c, 0, 65, 71
1, 28768, Control_c, 0, 64, 67
1, 28780, Note_on_c, 0, 72, 62
1, 28782, Control_c, 0, 64, 65
1, 28797, Control_c, 0, 64, 63
1, 28812, Control_c, 0, 64, 60
1, 28815, Note_on_c, 0, 63, 71
1, 28826, Note_off_c, 0, 65, 60
1, 28826, Control_c, 0, 64, 56
1, 28835, Note_off_c, 0, 72, 53
1, 28841, Control_c, 0, 64, 52
1, 28856, Control_c, 0, 64, 50
1, 28868, Note_on_c, 0, 61, 74
1, 28871, Control_c, 0, 64, 50
1, 28877, Note_off_c, 0, 63, 62
1, 28886, Control_c, 0, 64, 49
1, 28898, Note_on_c, 0, 82, 71
1, 28931, Control_c, 0, 64, 49
1, 28946, Control_c, 0, 64, 48
1, 28960, Control_c, 0, 64, 47
1, 28990, Control_c, 0, 64, 47
1, 29013, Note_on_c, 0, 70, 59
1, 29065, Note_off_c, 0, 82, 55
1, 29099, Note_off_c, 0, 61, 58
1, 29109, Note_off_c, 0, 70, 57
1, 29121, Note_on_c, 0, 78, 66
1, 29123, Note_on_c, 0, 58, 65
1, 29203, Note_off_c, 0, 78, 59
1, 29242, Note_on_c, 0, 70, 53
1, 29302, Note_off_c, 0, 58, 55
1, 29355, Note_off_c, 0, 70, 54
1, 29364, Note_on_c, 0, 60, 69
1, 29370, Note_on_c, 0, 77, 68
1, 29397, Control_c, 0, 64, 46
1, 29450, Note_off_c, 0, 77, 59
1, 29487, Note_on_c, 0, 70, 53
1, 29586, Note_off_c, 0, 60, 59
1, 29604, Note_on_c, 0, 61, 58
1, 29604, Note_off_c, 0, 70, 49
1, 29614, Note_on_c, 0, 76, 66
1, 29616, Note_off_c, 0, 53, 45
1, 29671, Note_off_c, 0, 76, 61
1, 29721, Note_on_c, 0, 70, 56
1, 29790, Note_off_c, 0, 61, 49
1, 29820, Note_off_c, 0, 70, 64
1, 29845, Note_on_c, 0, 77, 71
1, 29855, Note_on_c, 0, 60, 64
1, 29858, Note_on_c, 0, 53, 53
1, 29985, Note_off_c, 0, 77, 50
1, 29987, Note_on_c, 0, 69, 53
1, 30034, Control_c, 0, 64, 47
1, 30048, Control_c, 0, 64, 50
1, 30061, Note_off_c, 0, 69, 54
1, 30063, Control_c, 0, 64, 52
1, 30078, Control_c, 0, 64, 56
1, 30093, Control_c, 0, 64, 58
1, 30095, Note_on_c, 0, 72, 51
1, 30108, Control_c, 0, 64, 60
1, 30123, Control_c, 0, 64, 62
1, 30131, Note_off_c, 0, 60, 57
1, 30138, Control_c, 0, 64, 65
1, 30161, Control_c, 0, 64, 67
1, 30171, Note_off_c, 0, 72, 58
1, 30176, Control_c, 0, 64, 69
1, 30191, Control_c, 0, 64, 71
1, 30205, Note_on_c, 0, 69, 53
1, 30205, Control_c, 0, 64, 72
1, 30220, Control_c, 0, 64, 71
1, 30235, Control_c, 0, 64, 71
1, 30250, Control_c, 0, 64, 70
1, 30265, Control_c, 0, 64, 68
1, 30279, Control_c, 0, 64, 65
1, 30294, Control_c, 0, 64, 63
1, 30302, Note_off_c, 0, 69, 38
1, 30309, Control_c, 0, 64, 60
1, 30324, Control_c, 0, 64, 56
1, 30339, Control_c, 0, 64, 55
1, 30341, Note_on_c, 0, 77, 64
1, 30344, Note_on_c, 0, 57, 48
1, 30353, Control_c, 0, 64, 54
1, 30357, Note_on_c, 0, 60, 49
1, 30368, Control_c, 0, 64, 54
1, 30403, Note_off_c, 0, 77, 59
1, 30423, Note_on_c, 0, 72, 56
1, 30427, Control_c, 0, 64, 53
1, 30461, Note_off_c, 0, 72, 64
1, 30493, Note_on_c, 0, 69, 62
1, 30552, Note_off_c, 0, 69, 55
1, 30574, Note_on_c, 0, 77, 65
1, 30598, Note_off_c, 0, 60, 55
1, 30642, Note_off_c, 0, 77, 60
1, 30658, Note_on_c, 0, 72, 53
1, 30698, Note_off_c, 0, 72, 65
1, 30735, Note_on_c, 0, 69, 60
1, 30782, Note_off_c, 0, 69, 57
1, 30793, Note_off_c, 0, 57, 38
1, 30816, Note_on_c, 0, 61, 47
1, 30817, Note_on_c, 0, 76, 60
1, 30823, Note_on_c, 0, 58, 37
1, 30871, Note_off_c, 0, 76, 58
1, 30896, Note_on_c, 0, 70, 60
1, 30940, Note_off_c, 0, 70, 63
1, 30984, Note_on_c, 0, 67, 55
1, 31011, Note_off_c, 0, 61, 48
1, 31030, Note_off_c, 0, 67, 59
1, 31055, Note_on_c, 0, 76, 66
1, 31107, Note_off_c, 0, 76, 59
1, 31138, Note_on_c, 0, 70, 55
1, 31172, Note_off_c, 0, 70, 66
1, 31206, Control_c, 0, 64, 54
1, 31223, Note_on_c, 0, 67, 47
1, 31257, Note_off_c, 0, 67, 59
1, 31262, Note_off_c, 0, 58, 56
1, 31294, Note_on_c, 0, 60, 47
1, 31294, Note_on_c, 0, 75, 62
1, 31301, Note_on_c, 0, 57, 44
1, 31371, Note_off_c, 0, 75, 59
1, 31387, Note_on_c, 0, 72, 51
1, 31454, Note_off_c, 0, 72, 58
1, 31470, Note_on_c, 0, 65, 55
1, 31518, Control_c, 0, 64, 54
1, 31518, Note_off_c, 0, 65, 54
1, 31533, Control_c, 0, 64, 55
1, 31536, Note_off_c, 0, 60, 62
1, 31536, Note_on_c, 0, 75, 61
1, 31548, Control_c, 0, 64, 55
1, 31557, Note_off_c, 0, 57, 64
1, 31560, Note_off_c, 0, 53, 49
1, 31606, Note_on_c, 0, 72, 69
1, 31607, Control_c, 0, 64, 56
1, 31608, Note_off_c, 0, 75, 59
1, 31621, Control_c, 0, 64, 57
1, 31643, Control_c, 0, 64, 59
1, 31655, Note_off_c, 0, 72, 63
1, 31658, Control_c, 0, 64, 60
1, 31673, Control_c, 0, 64, 62
1, 31682, Note_on_c, 0, 65, 71
1, 31688, Control_c, 0, 64, 64
1, 31703, Control_c, 0, 64, 65
1, 31709, Note_off_c, 0, 65, 67
1, 31718, Control_c, 0, 64, 66
1, 31793, Control_c, 0, 64, 65
1, 31807, Control_c, 0, 64, 63
1, 31822, Control_c, 0, 64, 50
1, 31834, Note_on_c, 0, 70, 95
1, 31837, Control_c, 0, 64, 0
1, 31842, Note_on_c, 0, 62, 78
1, 31843, Note_on_c, 0, 65, 83
1, 31846, Note_on_c, 0, 50, 66
1, 31847, Note_on_c, 0, 46, 74
1, 31849, Note_on_c, 0, 58, 76
1, 31853, Note_on_c, 0, 53, 62
1, 31891, Note_on_c, 0, 52, 13
1, 31911, Note_off_c, 0, 52, 36
1, 31912, Control_c, 0, 64, 59
1, 31926, Control_c, 0, 64, 71
1, 31941, Control_c, 0, 64, 96
1, 31956, Control_c, 0, 64, 127
1, 31964, Note_off_c, 0, 58, 60
1, 31989, Note_off_c, 0, 62, 61
1, 32019, Note_off_c, 0, 65, 62
1, 32040, Note_off_c, 0, 46, 62
1, 32043, Note_off_c, 0, 53, 62
1, 32048, Note_off_c, 0, 70, 62
1, 32057, Note_off_c, 0, 50, 63
1, 32341, Control_c, 0, 64, 93
1, 32356, Note_on_c, 0, 74, 96
1, 32356, Control_c, 0, 64, 67
1, 32365, Note_on_c, 0, 53, 69
1, 32370, Note_on_c, 0, 46, 68
1, 32370, Note_on_c, 0, 56, 79
1, 32370, Note_on_c, 0, 70, 81
1, 32370, Control_c, 0, 64, 0
1, 32371, Note_on_c, 0, 50, 63
1, 32372, Note_on_c, 0, 68, 83
1, 32422, Control_c, 0, 64, 10
1, 32437, Control_c, 0, 64, 58
1, 32446, Note_off_c, 0, 70, 56
1, 32451, Control_c, 0, 64, 71
1, 32466, Control_c, 0, 64, 113
1, 32481, Control_c, 0, 64, 127
1, 32553, Note_off_c, 0, 56, 63
1, 32565, Note_off_c, 0, 46, 64
1, 32567, Note_off_c, 0, 53, 64
1, 32572, Note_off_c, 0, 50, 64
1, 32625, Note_off_c, 0, 68, 50
1, 32699, Note_off_c, 0, 74, 58
1, 32742, Note_on_c, 0, 70, 97
1, 32757, Note_on_c, 0, 68, 62
1, 32776, Note_off_c, 0, 68, 64
1, 32826, Note_off_c, 0, 70, 61
1, 32895, Note_on_c, 0, 75, 104
1, 32900, Note_on_c, 0, 51, 65
1, 32904, Note_on_c, 0, 55, 75
1, 32910, Note_on_c, 0, 46, 66
1, 32910, Note_on_c, 0, 67, 83
1, 32921, Note_on_c, 0, 70, 75
1, 32956, Control_c, 0, 64, 96
1, 32971, Control_c, 0, 64, 70
1, 32986, Control_c, 0, 64, 26
1, 33000, Control_c, 0, 64, 0
1, 33119, Control_c, 0, 64, 34
1, 33134, Control_c, 0, 64, 49
1, 33156, Control_c, 0, 64, 58
1, 33171, Control_c, 0, 64, 66
1, 33186, Control_c, 0, 64, 79
1, 33200, Control_c, 0, 64, 127
1, 33259, Note_off_c, 0, 67, 56
1, 33307, Note_off_c, 0, 70, 62
1, 33316, Note_off_c, 0, 75, 57
1, 33468, Control_c, 0, 64, 96
1, 33483, Control_c, 0, 64, 68
1, 33497, Control_c, 0, 64, 0
1, 33563, Note_on_c, 0, 79, 73
1, 33620, Note_on_c, 0, 77, 73
1, 33627, Note_off_c, 0, 79, 63
1, 33667, Note_on_c, 0, 75, 75
1, 33675, Note_off_c, 0, 77, 63
1, 33722, Note_on_c, 0, 74, 75
1, 33727, Note_off_c, 0, 75, 63
1, 33727, Note_off_c, 0, 51, 53
1, 33744, Note_off_c, 0, 55, 57
1, 33755, Note_off_c, 0, 74, 63
1, 33772, Note_off_c, 0, 46, 54
1, 33776, Note_on_c, 0, 72, 75
1, 33830, Note_off_c, 0, 72, 63
1, 33833, Note_on_c, 0, 70, 75
1, 33885, Note_off_c, 0, 70, 64
1, 33893, Note_on_c, 0, 69, 82
1, 33900, Note_on_c, 0, 51, 60
1, 33906, Note_on_c, 0, 57, 69
1, 33907, Note_on_c, 0, 46, 54
1, 33911, Note_on_c, 0, 48, 57
1, 33950, Note_on_c, 0, 70, 78
1, 33954, Note_off_c, 0, 69, 62
1, 33989, Note_off_c, 0, 70, 66
1, 34003, Note_on_c, 0, 72, 76
1, 34040, Note_off_c, 0, 72, 62
1, 34061, Note_on_c, 0, 74, 84
1, 34123, Note_on_c, 0, 75, 93
1, 34138, Note_off_c, 0, 74, 62
1, 34171, Note_off_c, 0, 75, 66
1, 34180, Note_on_c, 0, 77, 87
1, 34242, Note_on_c, 0, 79, 90
1, 34252, Note_off_c, 0, 77, 63
1, 34294, Note_on_c, 0, 81, 78
1, 34316, Note_off_c, 0, 79, 63
1, 34356, Note_on_c, 0, 82, 90
1, 34368, Note_off_c, 0, 81, 66
1, 34390, Note_off_c, 0, 82, 67
1, 34416, Note_on_c, 0, 84, 90
1, 34480, Note_on_c, 0, 86, 90
1, 34493, Note_off_c, 0, 84, 62
1, 34536, Note_on_c, 0, 87, 82
1, 34568, Note_off_c, 0, 86, 63
1, 34591, Note_on_c, 0, 89, 102
1, 34619, Note_off_c, 0, 87, 65
1, 34645, Note_off_c, 0, 89, 67
1, 34666, Note_off_c, 0, 57, 61
1, 34678, Note_off_c, 0, 51, 63
1, 34678, Note_off_c, 0, 48, 63
1, 34681, Note_off_c, 0, 46, 61
1, 34741, Note_on_c, 0, 87, 89
1, 34776, Note_off_c, 0, 87, 63
1, 34869, Note_on_c, 0, 50, 53
1, 34871, Note_on_c, 0, 58, 67
1, 34873, Note_on_c, 0, 86, 82
1, 34875, Note_on_c, 0, 53, 50
1, 34876, Note_on_c, 0, 46, 53
1, 34895, Note_off_c, 0, 86, 69
1, 34996, Note_on_c, 0, 84, 80
1, 35020, Note_off_c, 0, 84, 66
1, 35111, Note_on_c, 0, 82, 81
1, 35143, Note_off_c, 0, 82, 60
1, 35235, Note_on_c, 0, 81, 74
1, 35258, Note_off_c, 0, 81, 70
1, 35337, Note_off_c, 0, 58, 62
1, 35348, Note_off_c, 0, 46, 63
1, 35356, Note_off_c, 0, 53, 64
1, 35361, Note_off_c, 0, 50, 57
1, 35393, Note_on_c, 0, 77, 48
1, 35417, Note_off_c, 0, 77, 55
1, 35484, Note_on_c, 0, 77, 78
1, 35532, Note_off_c, 0, 77, 62
1, 35642, Note_on_c, 0, 74, 31
1, 35676, Note_off_c, 0, 74, 33
1, 35727, Note_on_c, 0, 74, 65
1, 35755, Note_off_c, 0, 74, 67
1, 35870, Note_on_c, 0, 51, 63
1, 35871, Note_on_c, 0, 57, 61
1, 35872, Note_on_c, 0, 72, 69
1, 35884, Note_on_c, 0, 48, 53
1, 35890, Note_on_c, 0, 46, 47
1, 35918, Note_off_c, 0, 72, 64
1, 35926, Note_on_c, 0, 70, 65
1, 35960, Note_off_c, 0, 70, 63
1, 35969, Note_on_c, 0, 69, 77
1, 36014, Note_on_c, 0, 70, 71
1, 36016, Note_off_c, 0, 69, 62
1, 36049, Note_off_c, 0, 70, 67
1, 36064, Note_on_c, 0, 72, 82
1, 36093, Note_off_c, 0, 72, 59
1, 36118, Note_on_c, 0, 74, 78
1, 36172, Note_on_c, 0, 75, 90
1, 36180, Note_off_c, 0, 74, 63
1, 36217, Note_off_c, 0, 75, 66
1, 36231, Note_on_c, 0, 77, 86
1, 36285, Note_on_c, 0, 79, 87
1, 36295, Note_off_c, 0, 77, 62
1, 36330, Note_on_c, 0, 81, 72
1, 36347, Note_off_c, 0, 79, 59
1, 36372, Control_c, 0, 64, 12
1, 36377, Note_on_c, 0, 82, 92
1, 36387, Control_c, 0, 64, 22
1, 36392, Note_off_c, 0, 81, 66
1, 36402, Control_c, 0, 64, 29
1, 36407, Note_off_c, 0, 82, 69
1, 36416, Control_c, 0, 64, 33
1, 36431, Note_on_c, 0, 84, 89
1, 36431, Control_c, 0, 64, 35
1, 36446, Control_c, 0, 64, 37
1, 36461, Control_c, 0, 64, 38
1, 36498, Note_on_c, 0, 86, 92
1, 36513, Note_off_c, 0, 84, 61
1, 36544, Note_on_c, 0, 87, 88
1, 36582, Note_off_c, 0, 86, 62
1, 36600, Note_on_c, 0, 89, 99
1, 36630, Note_off_c, 0, 87, 65
1, 36637, Note_off_c, 0, 57, 45
1, 36652, Note_off_c, 0, 46, 62
1, 36652, Note_off_c, 0, 48, 61
1, 36657, Note_off_c, 0, 89, 66
1, 36663, Note_off_c, 0, 51, 62
1, 36669, Control_c, 0, 64, 37
1, 36684, Control_c, 0, 64, 35
1, 36699, Control_c, 0, 64, 34
1, 36714, Control_c, 0, 64, 34
1, 36734, Note_on_c, 0, 87, 90
1, 36758, Control_c, 0, 64, 33
1, 36776, Note_off_c, 0, 87, 64
1, 36788, Control_c, 0, 64, 32
1, 36803, Control_c, 0, 64, 31
1, 36818, Control_c, 0, 64, 30
1, 36854, Note_on_c, 0, 86, 99
1, 36860, Note_on_c, 0, 46, 66
1, 36860, Note_on_c, 0, 53, 64
1, 36864, Note_on_c, 0, 58, 73
1, 36867, Note_on_c, 0, 50, 54
1, 36905, Note_on_c, 0, 87, 82
1, 36908, Note_off_c, 0, 86, 67
1, 36938, Note_off_c, 0, 87, 68
1, 36943, Control_c, 0, 64, 31
1, 36949, Note_on_c, 0, 86, 86
1, 36958, Control_c, 0, 64, 32
1, 36973, Control_c, 0, 64, 33
1, 36988, Control_c, 0, 64, 33
1, 36991, Note_off_c, 0, 86, 65
1, 36999, Note_on_c, 0, 84, 76
1, 37003, Control_c, 0, 64, 34
1, 37027, Note_off_c, 0, 84, 62
1, 37094, Note_on_c, 0, 82, 75
1, 37128, Note_on_c, 0, 84, 78
1, 37130, Note_off_c, 0, 82, 66
1, 37185, Note_on_c, 0, 82, 72
1, 37193, Note_off_c, 0, 84, 63
1, 37221, Note_on_c, 0, 81, 69
1, 37232, Note_off_c, 0, 82, 65
1, 37245, Note_off_c, 0, 81, 69
1, 37271, Note_off_c, 0, 58, 62
1, 37309, Note_off_c, 0, 53, 56
1, 37311, Note_off_c, 0, 46, 62
1, 37321, Note_off_c, 0, 50, 56
1, 37334, Note_on_c, 0, 79, 75
1, 37375, Note_off_c, 0, 79, 66
1, 37377, Note_on_c, 0, 81, 66
1, 37439, Note_off_c, 0, 81, 63
1, 37444, Note_on_c, 0, 79, 65
1, 37471, Note_off_c, 0, 79, 68
1, 37477, Note_on_c, 0, 77, 68
1, 37497, Note_off_c, 0, 77, 65
1, 37597, Note_on_c, 0, 75, 68
1, 37614, Note_on_c, 0, 77, 64
1, 37625, Note_off_c, 0, 75, 64
1, 37682, Note_off_c, 0, 77, 62
1, 37688, Note_on_c, 0, 75, 76
1, 37723, Note_off_c, 0, 75, 63
1, 37738, Note_on_c, 0, 74, 63
1, 37772, Note_off_c, 0, 74, 64
1, 37796, Control_c, 0, 64, 33
1, 37860, Note_on_c, 0, 79, 85
1, 37873, Note_on_c, 0, 51, 56
1, 37880, Note_on_c, 0, 74, 58
1, 37999, Note_off_c, 0, 74, 24
1, 38015, Note_on_c, 0, 55, 45
1, 38017, Note_on_c, 0, 77, 76
1, 38049, Control_c, 0, 64, 34
1, 38133, Note_off_c, 0, 55, 56
1, 38136, Note_on_c, 0, 57, 59
1, 38139, Control_c, 0, 64, 34
1, 38139, Note_on_c, 0, 75, 75
1, 38150, Note_off_c, 0, 77, 53
1, 38220, Note_off_c, 0, 75, 60
1, 38222, Note_off_c, 0, 57, 64
1, 38246, Note_on_c, 0, 74, 71
1, 38248, Note_on_c, 0, 59, 65
1, 38279, Note_off_c, 0, 51, 60
1, 38356, Note_off_c, 0, 59, 55
1, 38356, Note_off_c, 0, 79, 62
1, 38367, Note_on_c, 0, 60, 68
1, 38371, Note_on_c, 0, 75, 84
1, 38398, Note_off_c, 0, 74, 57
1, 38496, Note_on_c, 0, 82, 85
1, 38586, Note_off_c, 0, 82, 63
1, 38619, Note_on_c, 0, 81, 78
1, 38708, Note_off_c, 0, 81, 63
1, 38744, Note_on_c, 0, 58, 45
1, 38749, Note_on_c, 0, 79, 70
1, 38772, Note_off_c, 0, 60, 35
1, 38861, Note_off_c, 0, 79, 60
1, 38872, Note_off_c, 0, 58, 53
1, 38877, Note_on_c, 0, 77, 67
1, 38878, Note_on_c, 0, 57, 47
1, 38908, Note_off_c, 0, 75, 55
1, 38917, Control_c, 0, 64, 34
1, 38955, Note_off_c, 0, 57, 62
1, 39023, Note_on_c, 0, 74, 42
1, 39035, Note_on_c, 0, 65, 18
1, 39069, Note_off_c, 0, 74, 44
1, 39098, Note_off_c, 0, 65, 40
1, 39140, Note_on_c, 0, 67, 45
1, 39157, Note_on_c, 0, 75, 38
1, 39212, Note_off_c, 0, 67, 57
1, 39225, Note_off_c, 0, 75, 58
1, 39273, Note_on_c, 0, 69, 40
1, 39291, Note_on_c, 0, 72, 32
1, 39323, Note_off_c, 0, 72, 49
1, 39379, Note_off_c, 0, 77, 62
1, 39400, Note_off_c, 0, 69, 37
1, 39403, Note_on_c, 0, 70, 48
1, 39404, Note_on_c, 0, 74, 60
1, 39522, Note_on_c, 0, 82, 79
1, 39547, Control_c, 0, 64, 33
1, 39584, Note_off_c, 0, 70, 62
1, 39596, Note_off_c, 0, 82, 64
1, 39637, Note_on_c, 0, 81, 79
1, 39693, Note_off_c, 0, 74, 58
1, 39757, Note_on_c, 0, 79, 86
1, 39795, Note_off_c, 0, 81, 62
1, 39921, Note_on_c, 0, 77, 84
1, 39931, Note_on_c, 0, 70, 63
1, 39936, Note_on_c, 0, 72, 68
1, 39938, Note_on_c, 0, 67, 56
1, 39943, Note_off_c, 0, 79, 62
1, 40055, Note_off_c, 0, 77, 57
1, 40067, Note_on_c, 0, 76, 74
1, 40192, Note_on_c, 0, 79, 77
1, 40216, Note_off_c, 0, 76, 60
1, 40312, Note_on_c, 0, 77, 78
1, 40317, Note_off_c, 0, 79, 56
1, 40408, Note_off_c, 0, 77, 59
1, 40437, Note_on_c, 0, 76, 70
1, 40556, Note_on_c, 0, 82, 71
1, 40649, Note_off_c, 0, 76, 50
1, 40651, Note_off_c, 0, 82, 64
1, 40698, Note_on_c, 0, 81, 61
1, 40717, Note_off_c, 0, 67, 57
1, 40730, Note_off_c, 0, 70, 59
1, 40746, Note_off_c, 0, 72, 58
1, 40803, Note_off_c, 0, 81, 59
1, 40824, Note_on_c, 0, 79, 58
1, 40927, Note_off_c, 0, 79, 59
1, 40948, Note_on_c, 0, 77, 53
1, 40953, Note_on_c, 0, 67, 40
1, 40957, Note_on_c, 0, 73, 54
1, 41015, Note_off_c, 0, 77, 59
1, 41064, Note_on_c, 0, 76, 52
1, 41173, Note_off_c, 0, 76, 59
1, 41185, Note_on_c, 0, 79, 51
1, 41255, Note_off_c, 0, 79, 56
1, 41313, Note_on_c, 0, 77, 40
1, 41407, Note_off_c, 0, 77, 59
1, 41444, Note_on_c, 0, 76, 47
1, 41576, Note_on_c, 0, 82, 47
1, 41650, Note_off_c, 0, 73, 56
1, 41660, Note_off_c, 0, 82, 62
1, 41683, Note_off_c, 0, 76, 31
1, 41722, Note_on_c, 0, 81, 42
1, 41818, Note_off_c, 0, 81, 58
1, 41835, Note_on_c, 0, 79, 45
1, 41932, Note_off_c, 0, 79, 58
1, 41960, Note_on_c, 0, 77, 49
1, 41977, Note_on_c, 0, 72, 35
1, 42059, Note_off_c, 0, 77, 57
1, 42092, Note_on_c, 0, 76, 57
1, 42214, Note_on_c, 0, 79, 76
1, 42231, Control_c, 0, 64, 34
1, 42236, Note_off_c, 0, 76, 59
1, 42330, Note_on_c, 0, 77, 81
1, 42349, Note_off_c, 0, 79, 60
1, 42454, Note_on_c, 0, 76, 71
1, 42455, Note_off_c, 0, 77, 55
1, 42473, Note_on_c, 0, 70, 49
1, 42477, Note_off_c, 0, 72, 51
1, 42564, Note_on_c, 0, 82, 80
1, 42598, Note_off_c, 0, 76, 59
1, 42676, Note_off_c, 0, 67, 60
1, 42701, Note_on_c, 0, 79, 70
1, 42716, Note_off_c, 0, 70, 61
1, 42745, Note_off_c, 0, 82, 39
1, 42813, Note_off_c, 0, 79, 61
1, 42836, Note_on_c, 0, 76, 60
1, 42961, Note_off_c, 0, 76, 57
1, 42966, Note_on_c, 0, 69, 42
1, 42978, Note_on_c, 0, 65, 34
1, 42981, Note_on_c, 0, 79, 61
1, 43075, Note_off_c, 0, 79, 59
1, 43111, Note_on_c, 0, 77, 59
1, 43197, Note_off_c, 0, 77, 57
1, 43236, Note_on_c, 0, 76, 52
1, 43328, Note_off_c, 0, 76, 58
1, 43336, Note_off_c, 0, 69, 53
1, 43362, Note_on_c, 0, 77, 54
1, 43395, Note_off_c, 0, 65, 47
1, 43457, Note_off_c, 0, 77, 58
1, 43508, Note_on_c, 0, 76, 52
1, 43550, Note_off_c, 0, 76, 63
1, 43604, Note_on_c, 0, 77, 72
1, 43639, Control_c, 0, 64, 22
1, 43654, Control_c, 0, 64, 0
1, 43675, Note_off_c, 0, 77, 62
1, 43729, Control_c, 0, 64, 50
1, 43739, Note_on_c, 0, 79, 83
1, 43740, Note_on_c, 0, 82, 93
1, 43744, Note_on_c, 0, 70, 93
1, 43744, Control_c, 0, 64, 81
1, 43746, Note_on_c, 0, 67, 83
1, 43746, Note_on_c, 0, 55, 70
1, 43750, Note_on_c, 0, 63, 63
1, 43750, Note_on_c, 0, 75, 84
1, 43755, Note_on_c, 0, 58, 69
1, 43759, Control_c, 0, 64, 127
1, 43770, Note_off_c, 0, 67, 67
1, 43782, Note_off_c, 0, 55, 64
1, 43782, Note_off_c, 0, 63, 66
1, 43785, Note_off_c, 0, 70, 65
1, 43786, Note_off_c, 0, 58, 64
1, 43796, Note_off_c, 0, 75, 62
1, 43803, Control_c, 0, 64, 101
1, 43818, Control_c, 0, 64, 70
1, 43820, Note_off_c, 0, 79, 65
1, 43826, Note_off_c, 0, 82, 63
1, 43833, Control_c, 0, 64, 19
1, 43848, Control_c, 0, 64, 0
1, 43874, Note_on_c, 0, 75, 86
1, 43916, Note_off_c, 0, 75, 60
1, 43999, Note_on_c, 0, 69, 53
1, 44002, Note_on_c, 0, 65, 51
1, 44007, Note_on_c, 0, 75, 76
1, 44094, Note_off_c, 0, 75, 55
1, 44136, Note_on_c, 0, 74, 55
1, 44179, Note_off_c, 0, 69, 54
1, 44241, Note_off_c, 0, 74, 60
1, 44264, Note_on_c, 0, 73, 62
1, 44357, Note_off_c, 0, 73, 60
1, 44396, Note_off_c, 0, 65, 61
1, 44402, Note_on_c, 0, 74, 63
1, 44458, Note_off_c, 0, 74, 56
1, 44532, Note_on_c, 0, 73, 65
1, 44589, Note_off_c, 0, 73, 63
1, 44637, Note_on_c, 0, 74, 64
1, 44668, Note_off_c, 0, 74, 65
1, 44744, Control_c, 0, 64, 34
1, 44755, Note_on_c, 0, 60, 77
1, 44756, Note_on_c, 0, 55, 75
1, 44756, Note_on_c, 0, 51, 68
1, 44759, Note_on_c, 0, 75, 86
1, 44759, Note_on_c, 0, 79, 89
1, 44759, Control_c, 0, 64, 65
1, 44765, Note_on_c, 0, 67, 88
1, 44767, Note_on_c, 0, 72, 88
1, 44774, Control_c, 0, 64, 91
1, 44785, Note_off_c, 0, 60, 66
1, 44789, Control_c, 0, 64, 127
1, 44797, Note_off_c, 0, 51, 58
1, 44798, Note_off_c, 0, 55, 62
1, 44810, Note_off_c, 0, 67, 61
1, 44813, Note_off_c, 0, 72, 64
1, 44837, Note_off_c, 0, 75, 62
1, 44840, Note_off_c, 0, 79, 64
1, 44848, Control_c, 0, 64, 82
1, 44863, Control_c, 0, 64, 58
1, 44877, Control_c, 0, 64, 0
1, 44889, Note_on_c, 0, 72, 81
1, 44918, Note_off_c, 0, 72, 62
1, 45018, Note_on_c, 0, 62, 58
1, 45019, Note_on_c, 0, 58, 52
1, 45022, Note_on_c, 0, 72, 75
1, 45135, Note_off_c, 0, 72, 57
1, 45162, Note_on_c, 0, 70, 67
1, 45257, Note_off_c, 0, 70, 63
1, 45297, Note_on_c, 0, 69, 53
1, 45340, Note_off_c, 0, 62, 52
1, 45382, Note_off_c, 0, 69, 57
1, 45403, Note_on_c, 0, 70, 55
1, 45415, Note_off_c, 0, 58, 58
1, 45493, Note_off_c, 0, 70, 63
1, 45537, Note_on_c, 0, 69, 58
1, 45581, Note_off_c, 0, 69, 61
1, 45655, Note_on_c, 0, 70, 66
1, 45688, Note_off_c, 0, 70, 63
1, 45759, Control_c, 0, 64, 61
1, 45768, Note_on_c, 0, 50, 65
1, 45770, Note_on_c, 0, 62, 75
1, 45771, Note_on_c, 0, 58, 71
1, 45773, Note_on_c, 0, 74, 87
1, 45773, Note_on_c, 0, 77, 100
1, 45774, Control_c, 0, 64, 81
1, 45776, Note_on_c, 0, 53, 71
1, 45776, Note_on_c, 0, 65, 93
1, 45786, Note_on_c, 0, 70, 82
1, 45789, Control_c, 0, 64, 127
1, 45795, Note_off_c, 0, 62, 68
1, 45802, Note_off_c, 0, 50, 65
1, 45806, Note_off_c, 0, 58, 64
1, 45817, Note_off_c, 0, 53, 63
1, 45817, Note_off_c, 0, 65, 61
1, 45831, Note_off_c, 0, 70, 57
1, 45845, Note_off_c, 0, 74, 65
1, 45848, Control_c, 0, 64, 83
1, 45854, Note_off_c, 0, 77, 63
1, 45863, Control_c, 0, 64, 64
1, 45885, Control_c, 0, 64, 18
1, 45900, Control_c, 0, 64, 0
1, 45921, Note_on_c, 0, 70, 78
1, 45958, Note_off_c, 0, 70, 61
1, 46022, Note_on_c, 0, 57, 70
1, 46025, Note_on_c, 0, 69, 86
1, 46026, Note_on_c, 0, 51, 73
1, 46026, Note_on_c, 0, 60, 74
1, 46032, Note_on_c, 0, 53, 68
1, 46075, Note_off_c, 0, 69, 60
1, 46083, Note_on_c, 0, 79, 75
1, 46156, Note_on_c, 0, 77, 82
1, 46186, Note_off_c, 0, 79, 66
1, 46187, Note_off_c, 0, 60, 56
1, 46219, Note_on_c, 0, 75, 81
1, 46242, Note_off_c, 0, 51, 61
1, 46244, Note_off_c, 0, 77, 63
1, 46253, Note_off_c, 0, 57, 63
1, 46257, Note_on_c, 0, 74, 83
1, 46258, Note_off_c, 0, 53, 63
1, 46282, Note_off_c, 0, 75, 63
1, 46309, Note_off_c, 0, 74, 64
1, 46333, Note_on_c, 0, 72, 79
1, 46378, Note_off_c, 0, 72, 58
1, 46396, Note_on_c, 0, 70, 78
1, 46437, Note_off_c, 0, 70, 64
1, 46467, Note_on_c, 0, 69, 74
1, 46517, Note_off_c, 0, 69, 61
1, 46527, Note_on_c, 0, 70, 75
1, 46528, Note_on_c, 0, 50, 54
1, 46530, Note_on_c, 0, 62, 52
1, 46531, Note_on_c, 0, 58, 51
1, 46545, Note_on_c, 0, 53, 54
1, 46565, Note_off_c, 0, 70, 63
1, 46590, Note_on_c, 0, 77, 70
1, 46654, Note_off_c, 0, 77, 64
1, 46660, Note_on_c, 0, 79, 76
1, 46703, Note_off_c, 0, 62, 38
1, 46730, Note_off_c, 0, 79, 62
1, 46734, Note_on_c, 0, 77, 67
1, 46747, Note_off_c, 0, 50, 61
1, 46774, Note_off_c, 0, 58, 61
1, 46778, Note_on_c, 0, 75, 67
1, 46778, Note_off_c, 0, 77, 63
1, 46780, Note_off_c, 0, 53, 62
1, 46842, Note_on_c, 0, 74, 64
1, 46842, Note_off_c, 0, 75, 62
1, 46855, Control_c, 0, 64, 10
1, 46870, Control_c, 0, 64, 12
1, 46872, Note_off_c, 0, 74, 66
1, 46892, Note_on_c, 0, 72, 65
1, 46899, Control_c, 0, 64, 14
1, 46928, Note_off_c, 0, 72, 60
1, 46945, Control_c, 0, 64, 15
1, 46950, Note_on_c, 0, 70, 68
1, 46960, Control_c, 0, 64, 16
1, 46975, Control_c, 0, 64, 18
1, 46981, Note_off_c, 0, 70, 67
1, 46990, Control_c, 0, 64, 19
1, 47004, Control_c, 0, 64, 20
1, 47025, Note_on_c, 0, 69, 66
1, 47034, Control_c, 0, 64, 21
1, 47035, Note_on_c, 0, 60, 55
1, 47040, Note_on_c, 0, 57, 50
1, 47042, Note_on_c, 0, 51, 54
1, 47046, Note_on_c, 0, 53, 51
1, 47066, Note_off_c, 0, 69, 58
1, 47078, Control_c, 0, 64, 22
1, 47086, Note_on_c, 0, 79, 65
1, 47123, Control_c, 0, 64, 23
1, 47155, Note_on_c, 0, 77, 62
1, 47159, Note_off_c, 0, 79, 64
1, 47212, Control_c, 0, 64, 24
1, 47216, Note_off_c, 0, 77, 62
1, 47217, Note_on_c, 0, 75, 69
1, 47242, Control_c, 0, 64, 24
1, 47253, Note_off_c, 0, 60, 40
1, 47271, Note_on_c, 0, 74, 71
1, 47271, Control_c, 0, 64, 25
1, 47272, Note_off_c, 0, 57, 64
1, 47277, Note_off_c, 0, 51, 60
1, 47277, Note_off_c, 0, 75, 62
1, 47278, Note_off_c, 0, 53, 62
1, 47304, Note_off_c, 0, 74, 62
1, 47339, Note_on_c, 0, 72, 73
1, 47345, Control_c, 0, 64, 26
1, 47382, Control_c, 0, 64, 26
1, 47397, Control_c, 0, 64, 27
1, 47400, Note_off_c, 0, 72, 61
1, 47406, Note_on_c, 0, 70, 71
1, 47427, Control_c, 0, 64, 28
1, 47457, Control_c, 0, 64, 28
1, 47457, Note_off_c, 0, 70, 61
1, 47463, Note_on_c, 0, 69, 80
1, 47471, Control_c, 0, 64, 29
1, 47501, Control_c, 0, 64, 29
1, 47522, Note_on_c, 0, 70, 87
1, 47525, Note_on_c, 0, 50, 71
1, 47528, Note_on_c, 0, 58, 71
1, 47530, Control_c, 0, 64, 30
1, 47533, Note_on_c, 0, 62, 72
1, 47534, Note_on_c, 0, 53, 67
1, 47534, Note_off_c, 0, 69, 62
1, 47560, Control_c, 0, 64, 30
1, 47567, Note_off_c, 0, 70, 67
1, 47583, Note_on_c, 0, 72, 80
1, 47590, Control_c, 0, 64, 31
1, 47604, Control_c, 0, 64, 31
1, 47619, Control_c, 0, 64, 32
1, 47634, Control_c, 0, 64, 32
1, 47645, Note_off_c, 0, 72, 56
1, 47647, Note_on_c, 0, 74, 88
1, 47649, Control_c, 0, 64, 33
1, 47678, Control_c, 0, 64, 33
1, 47713, Note_on_c, 0, 75, 92
1, 47724, Control_c, 0, 64, 34
1, 47726, Note_off_c, 0, 74, 61
1, 47739, Control_c, 0, 64, 34
1, 47753, Control_c, 0, 64, 35
1, 47758, Note_off_c, 0, 75, 65
1, 47761, Note_off_c, 0, 62, 55
1, 47768, Control_c, 0, 64, 36
1, 47770, Note_on_c, 0, 77, 90
1, 47783, Control_c, 0, 64, 36
1, 47800, Note_off_c, 0, 50, 60
1, 47803, Note_off_c, 0, 58, 64
1, 47815, Note_off_c, 0, 53, 61
1, 47837, Note_on_c, 0, 79, 87
1, 47841, Note_off_c, 0, 77, 62
1, 47889, Note_on_c, 0, 80, 85
1, 47907, Note_off_c, 0, 79, 65
1, 47943, Note_on_c, 0, 82, 84
1, 47955, Note_off_c, 0, 80, 65
1, 48005, Note_on_c, 0, 80, 83
1, 48011, Note_on_c, 0, 50, 72
1, 48016, Note_off_c, 0, 82, 63
1, 48020, Note_on_c, 0, 62, 80
1, 48022, Note_on_c, 0, 58, 72
1, 48028, Note_on_c, 0, 53, 66
1, 48032, Note_on_c, 0, 56, 69
1, 48050, Control_c, 0, 64, 36
1, 48065, Control_c, 0, 64, 35
1, 48080, Control_c, 0, 64, 34
1, 48085, Note_on_c, 0, 82, 76
1, 48094, Control_c, 0, 64, 33
1, 48109, Control_c, 0, 64, 33
1, 48113, Note_off_c, 0, 80, 63
1, 48146, Control_c, 0, 64, 32
1, 48148, Note_on_c, 0, 84, 102
1, 48172, Note_off_c, 0, 82, 66
1, 48175, Control_c, 0, 64, 32
1, 48190, Control_c, 0, 64, 31
1, 48205, Control_c, 0, 64, 30
1, 48220, Control_c, 0, 64, 30
1, 48226, Note_on_c, 0, 82, 74
1, 48235, Control_c, 0, 64, 29
1, 48262, Note_off_c, 0, 84, 61
1, 48268, Note_on_c, 0, 80, 79
1, 48294, Control_c, 0, 64, 29
1, 48305, Note_off_c, 0, 82, 66
1, 48333, Note_on_c, 0, 79, 80
1, 48349, Note_off_c, 0, 80, 64
1, 48384, Note_off_c, 0, 79, 65
1, 48389, Note_on_c, 0, 77, 82
1, 48460, Note_off_c, 0, 77, 61
1, 48462, Note_on_c, 0, 75, 76
1, 48505, Note_off_c, 0, 75, 58
1, 48518, Note_on_c, 0, 74, 78
1, 48580, Note_on_c, 0, 75, 81
1, 48606, Control_c, 0, 64, 29
1, 48610, Note_off_c, 0, 74, 61
1, 48636, Note_on_c, 0, 77, 87
1, 48649, Note_off_c, 0, 75, 62
1, 48712, Note_on_c, 0, 75, 80
1, 48739, Note_off_c, 0, 77, 62
1, 48760, Note_on_c, 0, 74, 74
1, 48780, Note_off_c, 0, 75, 64
1, 48790, Note_off_c, 0, 62, 48
1, 48811, Note_off_c, 0, 74, 62
1, 48819, Note_off_c, 0, 50, 63
1, 48823, Note_off_c, 0, 53, 61
1, 48836, Note_off_c, 0, 56, 61
1, 48837, Note_on_c, 0, 72, 67
1, 48840, Note_off_c, 0, 58, 59
1, 48843, Control_c, 0, 64, 30
1, 48891, Note_off_c, 0, 72, 60
1, 48894, Control_c, 0, 64, 30
1, 48901, Note_on_c, 0, 70, 65
1, 48909, Control_c, 0, 64, 31
1, 48924, Control_c, 0, 64, 32
1, 48941, Note_off_c, 0, 70, 63
1, 48941, Note_on_c, 0, 68, 71
1, 48954, Control_c, 0, 64, 32
1, 48968, Control_c, 0, 64, 33
1, 48977, Note_off_c, 0, 68, 66
1, 48998, Control_c, 0, 64, 33
1, 49010, Note_on_c, 0, 67, 70
1, 49036, Note_off_c, 0, 67, 68
1, 49053, Note_on_c, 0, 51, 44
1, 49057, Note_on_c, 0, 55, 44
1, 49058, Note_on_c, 0, 58, 47
1, 49058, Note_on_c, 0, 63, 45
1, 49164, Note_on_c, 0, 79, 64
1, 49197, Note_off_c, 0, 79, 67
1, 49258, Note_off_c, 0, 63, 55
1, 49283, Note_off_c, 0, 51, 59
1, 49290, Note_on_c, 0, 78, 67
1, 49306, Note_off_c, 0, 58, 54
1, 49323, Note_off_c, 0, 78, 67
1, 49333, Note_off_c, 0, 55, 42
1, 49433, Note_on_c, 0, 81, 47
1, 49458, Note_off_c, 0, 81, 63
1, 49553, Note_on_c, 0, 79, 64
1, 49582, Note_off_c, 0, 79, 66
1, 49672, Note_on_c, 0, 82, 79
1, 49706, Note_off_c, 0, 82, 65
1, 49802, Note_on_c, 0, 78, 86
1, 49846, Note_off_c, 0, 78, 63
1, 49915, Note_on_c, 0, 81, 86
1, 49964, Note_off_c, 0, 81, 67
1, 50041, Note_on_c, 0, 79, 91
1, 50082, Note_off_c, 0, 79, 65
1, 50160, Note_on_c, 0, 82, 94
1, 50208, Note_off_c, 0, 82, 65
1, 50289, Note_on_c, 0, 66, 82
1, 50292, Note_on_c, 0, 78, 73
1, 50293, Note_on_c, 0, 77, 91
1, 50322, Note_off_c, 0, 77, 63
1, 50323, Note_off_c, 0, 78, 64
1, 50340, Note_off_c, 0, 66, 62
1, 50405, Note_on_c, 0, 69, 91
1, 50408, Note_on_c, 0, 81, 96
1, 50445, Note_off_c, 0, 69, 63
1, 50468, Note_off_c, 0, 81, 67
1, 50527, Note_on_c, 0, 79, 102
1, 50530, Note_on_c, 0, 67, 92
1, 50575, Note_off_c, 0, 79, 66
1, 50576, Note_off_c, 0, 67, 64
1, 50654, Note_on_c, 0, 70, 91
1, 50655, Note_on_c, 0, 82, 101
1, 50695, Note_off_c, 0, 70, 65
1, 50727, Note_off_c, 0, 82, 63
1, 50801, Note_on_c, 0, 79, 91
1, 50811, Note_on_c, 0, 67, 78
1, 50827, Note_on_c, 0, 80, 50
1, 50828, Note_off_c, 0, 80, 127
1, 50852, Control_c, 0, 64, 35
1, 50867, Control_c, 0, 64, 48
1, 50868, Note_off_c, 0, 79, 67
1, 50882, Control_c, 0, 64, 60
1, 50882, Note_on_c, 0, 75, 84
1, 50887, Note_on_c, 0, 63, 62
1, 50893, Note_off_c, 0, 67, 57
1, 50896, Control_c, 0, 64, 65
1, 50912, Control_c, 0, 64, 69
1, 50927, Control_c, 0, 64, 75
1, 50935, Note_off_c, 0, 75, 62
1, 50940, Note_on_c, 0, 60, 65
1, 50942, Control_c, 0, 64, 79
1, 50954, Note_off_c, 0, 63, 63
1, 50957, Control_c, 0, 64, 79
1, 50965, Note_on_c, 0, 72, 79
1, 50971, Control_c, 0, 64, 76
1, 50971, Note_off_c, 0, 60, 66
1, 50986, Control_c, 0, 64, 71
1, 51001, Control_c, 0, 64, 65
1, 51016, Control_c, 0, 64, 60
1, 51030, Control_c, 0, 64, 57
1, 51045, Control_c, 0, 64, 55
1, 51060, Control_c, 0, 64, 54
1, 51075, Control_c, 0, 64, 52
1, 51077, Note_on_c, 0, 53, 55
1, 51079, Note_on_c, 0, 70, 76
1, 51087, Note_off_c, 0, 72, 62
1, 51090, Control_c, 0, 64, 50
1, 51105, Control_c, 0, 64, 46
1, 51126, Control_c, 0, 64, 41
1, 51129, Note_on_c, 0, 62, 26
1, 51141, Control_c, 0, 64, 37
1, 51156, Control_c, 0, 64, 33
1, 51171, Control_c, 0, 64, 30
1, 51186, Control_c, 0, 64, 25
1, 51201, Control_c, 0, 64, 8
1, 51216, Control_c, 0, 64, 0
1, 51260, Control_c, 0, 64, 23
1, 51275, Control_c, 0, 64, 51
1, 51290, Control_c, 0, 64, 63
1, 51305, Control_c, 0, 64, 69
1, 51319, Control_c, 0, 64, 81
1, 51334, Control_c, 0, 64, 127
1, 51396, Note_off_c, 0, 62, 48
1, 51408, Control_c, 0, 64, 93
1, 51422, Note_off_c, 0, 70, 61
1, 51423, Control_c, 0, 64, 75
1, 51437, Control_c, 0, 64, 65
1, 51452, Control_c, 0, 64, 57
1, 51467, Control_c, 0, 64, 48
1, 51474, Note_on_c, 0, 72, 61
1, 51482, Control_c, 0, 64, 47
1, 51516, Note_off_c, 0, 72, 64
1, 51529, Note_on_c, 0, 70, 66
1, 51541, Control_c, 0, 64, 46
1, 51559, Note_off_c, 0, 70, 68
1, 51571, Control_c, 0, 64, 46
1, 51581, Note_on_c, 0, 69, 54
1, 51630, Note_off_c, 0, 69, 53
1, 51630, Control_c, 0, 64, 44
1, 51640, Note_on_c, 0, 70, 67
1, 51645, Control_c, 0, 64, 44
1, 51654, Note_on_c, 0, 63, 41
1, 51662, Note_on_c, 0, 74, 73
1, 51666, Note_off_c, 0, 70, 69
1, 51689, Control_c, 0, 64, 43
1, 51690, Poly_aftertouch_c, 0, 69, 127
1, 51735, Control_c, 0, 64, 42
1, 51749, Control_c, 0, 64, 39
1, 51764, Control_c, 0, 64, 37
1, 51779, Control_c, 0, 64, 36
1, 51839, Control_c, 0, 64, 38
1, 51860, Control_c, 0, 64, 45
1, 51875, Control_c, 0, 64, 53
1, 51890, Control_c, 0, 64, 60
1, 51905, Control_c, 0, 64, 64
1, 51920, Control_c, 0, 64, 66
1, 51934, Control_c, 0, 64, 67
1, 51964, Control_c, 0, 64, 67
1, 51979, Control_c, 0, 64, 65
1, 51994, Control_c, 0, 64, 63
1, 52009, Control_c, 0, 64, 61
1, 52024, Control_c, 0, 64, 60
1, 52068, Control_c, 0, 64, 60
1, 52083, Control_c, 0, 64, 59
1, 52098, Control_c, 0, 64, 58
1, 52104, Note_off_c, 0, 74, 59
1, 52112, Control_c, 0, 64, 57
1, 52127, Control_c, 0, 64, 56
1, 52129, Note_on_c, 0, 72, 50
1, 52142, Control_c, 0, 64, 56
1, 52157, Control_c, 0, 64, 55
1, 52172, Control_c, 0, 64, 54
1, 52186, Control_c, 0, 64, 53
1, 52200, Note_off_c, 0, 63, 41
1, 52201, Control_c, 0, 64, 52
1, 52216, Control_c, 0, 64, 52
1, 52218, Poly_aftertouch_c, 0, 69, 0
1, 52231, Control_c, 0, 64, 51
1, 52243, Note_off_c, 0, 72, 63
1, 52246, Control_c, 0, 64, 50
1, 52258, Note_on_c, 0, 58, 36
1, 52260, Control_c, 0, 64, 48
1, 52261, Note_off_c, 0, 53, 36
1, 52267, Note_on_c, 0, 62, 32
1, 52269, Note_on_c, 0, 70, 58
1, 52275, Control_c, 0, 64, 46
1, 52290, Control_c, 0, 64, 44
1, 52305, Control_c, 0, 64, 42
1, 52319, Control_c, 0, 64, 40
1, 52334, Control_c, 0, 64, 38
1, 52349, Control_c, 0, 64, 37
1, 52364, Control_c, 0, 64, 36
1, 52379, Control_c, 0, 64, 35
1, 52408, Control_c, 0, 67, 16
1, 52423, Control_c, 0, 67, 110
1, 52438, Control_c, 0, 64, 36
1, 52438, Control_c, 0, 67, 127
1, 52453, Control_c, 0, 64, 38
1, 52468, Control_c, 0, 64, 40
1, 52483, Control_c, 0, 64, 41
1, 52498, Control_c, 0, 64, 42
1, 52502, Note_off_c, 0, 70, 63
1, 52504, Note_off_c, 0, 62, 56
1, 52523, Note_off_c, 0, 58, 62
1, 52818, Note_on_c, 0, 89, 68
1, 52839, Note_on_c, 0, 86, 66
1, 52847, Note_on_c, 0, 74, 53
1, 52849, Note_off_c, 0, 89, 66
1, 52853, Note_on_c, 0, 70, 50
1, 52866, Note_off_c, 0, 86, 67
1, 52868, Note_off_c, 0, 74, 62
1, 52876, Note_off_c, 0, 70, 61
1, 53069, Note_on_c, 0, 89, 67
1, 53088, Note_on_c, 0, 72, 54
1, 53094, Note_on_c, 0, 65, 42
1, 53100, Note_on_c, 0, 84, 56
1, 53110, Note_off_c, 0, 89, 62
1, 53114, Note_off_c, 0, 72, 65
1, 53120, Note_off_c, 0, 84, 61
1, 53121, Note_off_c, 0, 65, 59
1, 53128, Control_c, 0, 64, 41
1, 53315, Note_on_c, 0, 89, 61
1, 53351, Note_on_c, 0, 70, 40
1, 53351, Note_off_c, 0, 89, 66
1, 53353, Note_on_c, 0, 82, 61
1, 53365, Note_on_c, 0, 62, 36
1, 53386, Note_off_c, 0, 82, 66
1, 53544, Note_off_c, 0, 62, 61
1, 53555, Note_off_c, 0, 70, 64
1, 53572, Note_on_c, 0, 89, 55
1, 53606, Note_off_c, 0, 89, 62
1, 53612, Note_on_c, 0, 77, 58
1, 53631, Note_off_c, 0, 77, 61
1, 53843, Note_on_c, 0, 89, 48
1, 53850, Note_on_c, 0, 86, 73
1, 53856, Note_on_c, 0, 74, 77
1, 53859, Note_on_c, 0, 70, 56
1, 53868, Note_off_c, 0, 89, 55
1, 53875, Note_off_c, 0, 86, 69
1, 53878, Note_off_c, 0, 74, 70
1, 53884, Note_off_c, 0, 70, 65
1, 53966, Control_c, 0, 64, 42
1, 53981, Control_c, 0, 64, 42
1, 54072, Note_on_c, 0, 89, 72
1, 54099, Note_on_c, 0, 65, 64
1, 54099, Note_on_c, 0, 72, 80
1, 54114, Note_off_c, 0, 89, 64
1, 54116, Note_on_c, 0, 84, 59
1, 54128, Note_off_c, 0, 72, 71
1, 54134, Note_off_c, 0, 65, 67
1, 54134, Note_off_c, 0, 84, 62
1, 54227, Control_c, 0, 64, 43
1, 54324, Note_on_c, 0, 89, 74
1, 54361, Note_on_c, 0, 70, 57
1, 54367, Note_on_c, 0, 62, 49
1, 54369, Note_on_c, 0, 82, 60
1, 54370, Note_off_c, 0, 89, 64
1, 54387, Note_off_c, 0, 82, 63
1, 54449, Control_c, 0, 64, 43
1, 54478, Control_c, 0, 64, 44
1, 54493, Control_c, 0, 64, 45
1, 54560, Note_on_c, 0, 89, 73
1, 54562, Note_off_c, 0, 62, 63
1, 54569, Note_off_c, 0, 70, 63
1, 54600, Note_off_c, 0, 89, 65
1, 54602, Note_on_c, 0, 77, 75
1, 54626, Control_c, 0, 67, 86
1, 54628, Note_off_c, 0, 77, 68
1, 54641, Control_c, 0, 67, 0
1, 54819, Note_on_c, 0, 89, 75
1, 54843, Note_on_c, 0, 80, 74
1, 54856, Note_off_c, 0, 89, 65
1, 54860, Note_on_c, 0, 62, 48
1, 54860, Note_on_c, 0, 70, 57
1, 54874, Note_off_c, 0, 80, 71
1, 54888, Note_off_c, 0, 70, 65
1, 54888, Note_off_c, 0, 62, 62
1, 55083, Note_on_c, 0, 89, 70
1, 55102, Note_on_c, 0, 78, 88
1, 55103, Note_on_c, 0, 70, 61
1, 55106, Note_on_c, 0, 62, 41
1, 55123, Note_off_c, 0, 89, 64
1, 55127, Note_off_c, 0, 78, 67
1, 55133, Note_off_c, 0, 70, 67
1, 55134, Note_off_c, 0, 62, 54
1, 55319, Note_on_c, 0, 89, 68
1, 55344, Note_on_c, 0, 63, 47
1, 55356, Note_on_c, 0, 70, 53
1, 55361, Note_on_c, 0, 79, 71
1, 55362, Note_off_c, 0, 89, 59
1, 55387, Note_off_c, 0, 79, 69
1, 55544, Note_on_c, 0, 83, 69
1, 55544, Note_off_c, 0, 70, 56
1, 55577, Note_on_c, 0, 67, 54
1, 55579, Note_on_c, 0, 85, 61
1, 55579, Note_off_c, 0, 83, 66
1, 55592, Note_on_c, 0, 84, 78
1, 55606, Note_off_c, 0, 85, 43
1, 55622, Note_off_c, 0, 84, 66
1, 55769, Note_on_c, 0, 86, 60
1, 55798, Note_off_c, 0, 67, 61
1, 55828, Note_on_c, 0, 87, 88
1, 55829, Note_on_c, 0, 72, 58
1, 55854, Note_off_c, 0, 86, 64
1, 55862, Note_off_c, 0, 63, 38
1, 55893, Note_off_c, 0, 87, 63
1, 56039, Note_on_c, 0, 86, 60
1, 56051, Note_off_c, 0, 72, 35
1, 56068, Note_on_c, 0, 64, 44
1, 56068, Note_off_c, 0, 86, 66
1, 56080, Note_on_c, 0, 84, 60
1, 56109, Note_off_c, 0, 84, 65
1, 56284, Note_on_c, 0, 82, 64
1, 56304, Note_on_c, 0, 65, 52
1, 56310, Note_on_c, 0, 81, 62
1, 56313, Note_off_c, 0, 82, 67
1, 56315, Note_off_c, 0, 64, 35
1, 56316, Control_c, 0, 64, 45
1, 56337, Note_off_c, 0, 81, 68
1, 56519, Note_on_c, 0, 79, 69
1, 56560, Note_on_c, 0, 77, 80
1, 56564, Note_off_c, 0, 79, 66
1, 56567, Note_on_c, 0, 67, 57
1, 56584, Note_off_c, 0, 65, 41
1, 56593, Note_off_c, 0, 77, 63
1, 56772, Note_on_c, 0, 76, 62
1, 56806, Note_on_c, 0, 69, 68
1, 56808, Note_off_c, 0, 67, 62
1, 56814, Note_on_c, 0, 77, 84
1, 56823, Note_off_c, 0, 76, 65
1, 56833, Note_off_c, 0, 69, 68
1, 56856, Note_on_c, 0, 79, 8
1, 56857, Note_off_c, 0, 79, 127
1, 56862, Note_off_c, 0, 77, 65
1, 56995, Note_on_c, 0, 79, 73
1, 57053, Note_on_c, 0, 77, 94
1, 57058, Note_off_c, 0, 79, 65
1, 57059, Note_on_c, 0, 57, 57
1, 57066, Note_on_c, 0, 65, 56
1, 57088, Note_off_c, 0, 65, 60
1, 57089, Note_off_c, 0, 57, 66
1, 57092, Note_off_c, 0, 77, 65
1, 57247, Note_on_c, 0, 75, 89
1, 57307, Note_on_c, 0, 58, 70
1, 57308, Note_on_c, 0, 61, 74
1, 57313, Note_on_c, 0, 73, 97
1, 57321, Note_off_c, 0, 75, 60
1, 57371, Note_on_c, 0, 75, 83
1, 57380, Note_off_c, 0, 73, 64
1, 57387, Note_off_c, 0, 61, 60
1, 57390, Note_off_c, 0, 58, 58
1, 57398, Control_c, 0, 64, 45
1, 57424, Note_on_c, 0, 65, 69
1, 57434, Note_on_c, 0, 73, 80
1, 57442, Note_off_c, 0, 75, 64
1, 57458, Control_c, 0, 64, 44
1, 57473, Control_c, 0, 64, 44
1, 57486, Note_off_c, 0, 73, 65
1, 57488, Control_c, 0, 64, 43
1, 57491, Note_off_c, 0, 65, 50
1, 57493, Note_on_c, 0, 72, 79
1, 57550, Note_on_c, 0, 58, 58
1, 57551, Note_on_c, 0, 61, 66
1, 57552, Note_on_c, 0, 70, 94
1, 57559, Note_off_c, 0, 72, 65
1, 57590, Note_off_c, 0, 70, 65
1, 57610, Note_off_c, 0, 61, 54
1, 57612, Note_off_c, 0, 58, 52
1, 57673, Note_on_c, 0, 65, 63
1, 57677, Note_on_c, 0, 70, 96
1, 57710, Note_off_c, 0, 65, 62
1, 57710, Note_off_c, 0, 70, 64
1, 57724, Control_c, 0, 64, 43
1, 57753, Control_c, 0, 64, 42
1, 57808, Note_on_c, 0, 60, 72
1, 57809, Note_on_c, 0, 57, 61
1, 57810, Note_on_c, 0, 75, 99
1, 57871, Note_off_c, 0, 57, 52
1, 57877, Note_on_c, 0, 77, 82
1, 57883, Note_off_c, 0, 60, 62
1, 57889, Note_off_c, 0, 75, 64
1, 57929, Note_on_c, 0, 65, 64
1, 57942, Note_on_c, 0, 75, 84
1, 57960, Note_off_c, 0, 77, 63
1, 57988, Note_off_c, 0, 65, 52
1, 57997, Note_on_c, 0, 73, 80
1, 58004, Note_off_c, 0, 75, 64
1, 58027, Control_c, 0, 64, 42
1, 58048, Note_on_c, 0, 57, 50
1, 58049, Note_off_c, 0, 73, 64
1, 58060, Note_on_c, 0, 60, 52
1, 58060, Note_on_c, 0, 72, 86
1, 58087, Control_c, 0, 64, 41
1, 58094, Note_off_c, 0, 72, 66
1, 58102, Control_c, 0, 64, 40
1, 58107, Note_off_c, 0, 57, 59
1, 58117, Control_c, 0, 64, 40
1, 58126, Note_off_c, 0, 60, 62
1, 58132, Control_c, 0, 64, 39
1, 58147, Control_c, 0, 64, 38
1, 58162, Control_c, 0, 64, 38
1, 58176, Control_c, 0, 64, 36
1, 58191, Note_on_c, 0, 72, 77
1, 58192, Note_on_c, 0, 65, 44
1, 58206, Control_c, 0, 64, 35
1, 58215, Note_off_c, 0, 72, 70
1, 58221, Control_c, 0, 64, 34
1, 58223, Note_off_c, 0, 65, 60
1, 58236, Control_c, 0, 64, 31
1, 58251, Control_c, 0, 64, 24
1, 58266, Control_c, 0, 64, 16
1, 58281, Control_c, 0, 64, 0
1, 58339, Note_on_c, 0, 61, 42
1, 58340, Note_on_c, 0, 58, 39
1, 58355, Note_on_c, 0, 73, 67
1, 58388, Note_off_c, 0, 73, 64
1, 58400, Note_off_c, 0, 58, 54
1, 58406, Note_on_c, 0, 75, 61
1, 58406, Note_off_c, 0, 61, 56
1, 58453, Note_off_c, 0, 75, 59
1, 58459, Note_on_c, 0, 65, 37
1, 58471, Note_on_c, 0, 73, 67
1, 58502, Note_off_c, 0, 73, 65
1, 58519, Note_on_c, 0, 72, 65
1, 58520, Note_off_c, 0, 65, 55
1, 58549, Note_off_c, 0, 72, 66
1, 58579, Note_on_c, 0, 70, 72
1, 58581, Note_on_c, 0, 61, 36
1, 58591, Note_on_c, 0, 58, 43
1, 58611, Note_off_c, 0, 70, 68
1, 58643, Note_off_c, 0, 61, 57
1, 58652, Note_off_c, 0, 58, 57
1, 58725, Note_on_c, 0, 70, 70
1, 58736, Note_on_c, 0, 65, 32
1, 58749, Note_off_c, 0, 70, 69
1, 58767, Note_off_c, 0, 65, 49
1, 58853, Note_on_c, 0, 60, 49
1, 58856, Note_on_c, 0, 57, 47
1, 58862, Note_on_c, 0, 75, 73
1, 58905, Note_off_c, 0, 57, 57
1, 58907, Note_off_c, 0, 60, 60
1, 58918, Note_off_c, 0, 75, 61
1, 58926, Note_on_c, 0, 77, 67
1, 58981, Note_on_c, 0, 65, 46
1, 58981, Note_on_c, 0, 75, 64
1, 58982, Note_off_c, 0, 77, 62
1, 59021, Note_off_c, 0, 75, 63
1, 59026, Note_off_c, 0, 65, 59
1, 59035, Note_on_c, 0, 73, 72
1, 59072, Note_off_c, 0, 73, 65
1, 59093, Note_on_c, 0, 57, 46
1, 59097, Note_on_c, 0, 72, 82
1, 59101, Note_on_c, 0, 60, 45
1, 59133, Note_off_c, 0, 72, 66
1, 59139, Note_off_c, 0, 57, 60
1, 59152, Note_off_c, 0, 60, 59
1, 59230, Note_on_c, 0, 65, 65
1, 59231, Note_on_c, 0, 72, 78
1, 59249, Note_off_c, 0, 65, 64
1, 59255, Note_off_c, 0, 72, 65
1, 59356, Note_on_c, 0, 61, 86
1, 59357, Note_on_c, 0, 73, 87
1, 59360, Note_on_c, 0, 49, 82
1, 59375, Note_off_c, 0, 61, 71
1, 59387, Note_off_c, 0, 49, 63
1, 59416, Note_off_c, 0, 73, 66
1, 59420, Note_on_c, 0, 75, 83
1, 59473, Note_on_c, 0, 73, 76
1, 59487, Note_off_c, 0, 75, 64
1, 59528, Note_on_c, 0, 72, 79
1, 59541, Note_off_c, 0, 73, 64
1, 59582, Note_on_c, 0, 70, 93
1, 59583, Note_off_c, 0, 72, 63
1, 59592, Note_on_c, 0, 58, 98
1, 59594, Note_on_c, 0, 46, 76
1, 59601, Note_off_c, 0, 70, 69
1, 59621, Note_off_c, 0, 58, 63
1, 59651, Note_off_c, 0, 46, 63
1, 59655, Note_on_c, 0, 72, 82
1, 59717, Note_on_c, 0, 70, 85
1, 59736, Note_off_c, 0, 72, 63
1, 59771, Note_on_c, 0, 68, 88
1, 59790, Note_off_c, 0, 70, 64
1, 59807, Control_c, 0, 64, 15
1, 59822, Control_c, 0, 64, 37
1, 59826, Note_on_c, 0, 54, 104
1, 59830, Note_on_c, 0, 66, 95
1, 59833, Note_on_c, 0, 42, 90
1, 59837, Control_c, 0, 64, 52
1, 59839, Note_off_c, 0, 68, 61
1, 59852, Control_c, 0, 64, 62
1, 59860, Note_off_c, 0, 54, 64
1, 59862, Note_on_c, 0, 44, 36
1, 59867, Control_c, 0, 64, 65
1, 59881, Note_off_c, 0, 42, 64
1, 59881, Control_c, 0, 64, 67
1, 59888, Note_off_c, 0, 66, 59
1, 59896, Note_on_c, 0, 68, 83
1, 59896, Control_c, 0, 64, 68
1, 59904, Note_off_c, 0, 44, 33
1, 59911, Control_c, 0, 64, 67
1, 59926, Control_c, 0, 64, 65
1, 59941, Control_c, 0, 64, 61
1, 59953, Note_on_c, 0, 66, 67
1, 59956, Control_c, 0, 64, 55
1, 59971, Control_c, 0, 64, 52
1, 59977, Note_off_c, 0, 68, 62
1, 59986, Control_c, 0, 64, 49
1, 60000, Control_c, 0, 64, 48
1, 60007, Note_on_c, 0, 65, 80
1, 60007, Note_off_c, 0, 66, 64
1, 60015, Control_c, 0, 64, 46
1, 60030, Control_c, 0, 64, 44
1, 60045, Control_c, 0, 64, 41
1, 60060, Control_c, 0, 64, 39
1, 60066, Note_on_c, 0, 51, 101
1, 60069, Note_off_c, 0, 65, 56
1, 60072, Note_on_c, 0, 39, 87
1, 60072, Note_on_c, 0, 63, 84
1, 60074, Control_c, 0, 64, 37
1, 60089, Control_c, 0, 64, 35
1, 60106, Note_off_c, 0, 51, 66
1, 60111, Control_c, 0, 64, 31
1, 60126, Control_c, 0, 64, 24
1, 60132, Note_off_c, 0, 39, 61
1, 60141, Control_c, 0, 64, 0
1, 60147, Note_on_c, 0, 65, 78
1, 60150, Note_off_c, 0, 63, 63
1, 60210, Note_on_c, 0, 63, 79
1, 60227, Note_off_c, 0, 65, 63
1, 60266, Note_on_c, 0, 61, 81
1, 60277, Note_off_c, 0, 63, 63
1, 60322, Note_on_c, 0, 60, 90
1, 60323, Note_on_c, 0, 48, 102
1, 60327, Note_off_c, 0, 61, 63
1, 60329, Note_on_c, 0, 36, 89
1, 60366, Note_on_c, 0, 68, 30
1, 60387, Note_off_c, 0, 68, 38
1, 60395, Note_on_c, 0, 61, 83
1, 60407, Note_off_c, 0, 60, 54
1, 60422, Control_c, 0, 64, 43
1, 60437, Control_c, 0, 64, 54
1, 60451, Note_off_c, 0, 61, 64
1, 60451, Note_on_c, 0, 63, 80
1, 60452, Control_c, 0, 64, 62
1, 60467, Control_c, 0, 64, 69
1, 60481, Control_c, 0, 64, 81
1, 60497, Control_c, 0, 64, 127
1, 60513, Note_on_c, 0, 61, 82
1, 60534, Note_off_c, 0, 48, 60
1, 60536, Note_off_c, 0, 63, 62
1, 60552, Note_off_c, 0, 36, 60
1, 60566, Note_off_c, 0, 61, 62
1, 60567, Note_on_c, 0, 60, 81
1, 60638, Note_off_c, 0, 60, 58
1, 60639, Note_on_c, 0, 61, 82
1, 60689, Note_on_c, 0, 63, 83
1, 60692, Note_off_c, 0, 61, 63
1, 60755, Note_on_c, 0, 61, 78
1, 60777, Note_off_c, 0, 63, 62
1, 60808, Control_c, 0, 64, 117
1, 60812, Note_on_c, 0, 34, 85
1, 60812, Note_on_c, 0, 46, 94
1, 60813, Note_on_c, 0, 60, 86
1, 60813, Note_off_c, 0, 61, 62
1, 60822, Control_c, 0, 64, 78
1, 60837, Control_c, 0, 64, 58
1, 60838, Poly_aftertouch_c, 0, 37, 127
1, 60859, Control_c, 0, 64, 0
1, 60890, Note_on_c, 0, 61, 77
1, 60895, Note_off_c, 0, 60, 53
1, 60907, Poly_aftertouch_c, 0, 37, 0
1, 60934, Control_c, 0, 64, 48
1, 60948, Note_off_c, 0, 61, 63
1, 60948, Control_c, 0, 64, 60
1, 60951, Note_on_c, 0, 63, 80
1, 60963, Control_c, 0, 64, 64
1, 60978, Control_c, 0, 64, 71
1, 60993, Control_c, 0, 64, 83
1, 61008, Control_c, 0, 64, 127
1, 61017, Note_on_c, 0, 61, 69
1, 61036, Note_off_c, 0, 63, 63
1, 61056, Note_off_c, 0, 46, 57
1, 61068, Note_off_c, 0, 61, 62
1, 61078, Note_on_c, 0, 60, 77
1, 61087, Note_off_c, 0, 34, 59
1, 61133, Note_off_c, 0, 60, 61
1, 61142, Note_on_c, 0, 61, 65
1, 61183, Note_off_c, 0, 61, 54
1, 61196, Note_on_c, 0, 63, 76
1, 61270, Note_off_c, 0, 63, 61
1, 61274, Note_on_c, 0, 61, 70
1, 61309, Note_off_c, 0, 61, 62
1, 61318, Note_on_c, 0, 45, 86
1, 61320, Control_c, 0, 64, 118
1, 61324, Note_on_c, 0, 33, 75
1, 61329, Note_on_c, 0, 60, 78
1, 61335, Control_c, 0, 64, 81
1, 61350, Control_c, 0, 64, 61
1, 61365, Control_c, 0, 64, 0
1, 61382, Note_off_c, 0, 60, 62
1, 61393, Note_on_c, 0, 61, 70
1, 61424, Control_c, 0, 64, 27
1, 61431, Note_off_c, 0, 61, 60
1, 61439, Control_c, 0, 64, 56
1, 61453, Control_c, 0, 64, 63
1, 61461, Note_on_c, 0, 63, 62
1, 61468, Control_c, 0, 64, 66
1, 61483, Control_c, 0, 64, 69
1, 61498, Control_c, 0, 64, 74
1, 61512, Note_off_c, 0, 63, 55
1, 61513, Control_c, 0, 64, 83
1, 61527, Control_c, 0, 64, 100
1, 61530, Note_off_c, 0, 45, 56
1, 61534, Note_on_c, 0, 61, 66
1, 61542, Control_c, 0, 64, 127
1, 61554, Note_off_c, 0, 33, 59
1, 61563, Note_off_c, 0, 61, 66
1, 61588, Note_on_c, 0, 60, 61
1, 61649, Note_off_c, 0, 60, 57
1, 61655, Note_on_c, 0, 61, 60
1, 61691, Note_off_c, 0, 61, 62
1, 61720, Note_on_c, 0, 63, 59
1, 61769, Note_off_c, 0, 63, 59
1, 61793, Note_on_c, 0, 61, 53
1, 61801, Control_c, 0, 64, 103
1, 61816, Control_c, 0, 64, 86
1, 61826, Note_off_c, 0, 61, 62
1, 61831, Control_c, 0, 64, 75
1, 61833, Note_on_c, 0, 42, 74
1, 61846, Control_c, 0, 64, 67
1, 61847, Note_on_c, 0, 30, 57
1, 61860, Note_on_c, 0, 60, 58
1, 61861, Control_c, 0, 64, 61
1, 61876, Control_c, 0, 64, 53
1, 61890, Control_c, 0, 64, 45
1, 61901, Note_off_c, 0, 60, 64
1, 61905, Control_c, 0, 64, 39
1, 61919, Note_on_c, 0, 61, 56
1, 61920, Control_c, 0, 64, 39
1, 61955, Note_off_c, 0, 61, 63
1, 61965, Control_c, 0, 64, 40
1, 61979, Control_c, 0, 64, 46
1, 61980, Note_on_c, 0, 63, 58
1, 61994, Control_c, 0, 64, 54
1, 62009, Control_c, 0, 64, 61
1, 62024, Control_c, 0, 64, 65
1, 62028, Note_off_c, 0, 63, 58
1, 62036, Note_on_c, 0, 61, 56
1, 62039, Control_c, 0, 64, 68
1, 62053, Control_c, 0, 64, 73
1, 62068, Control_c, 0, 64, 80
1, 62083, Control_c, 0, 64, 90
1, 62084, Note_off_c, 0, 61, 60
1, 62099, Control_c, 0, 64, 113
1, 62102, Note_off_c, 0, 42, 58
1, 62114, Control_c, 0, 64, 127
1, 62114, Note_on_c, 0, 60, 59
1, 62165, Note_off_c, 0, 60, 63
1, 62184, Note_off_c, 0, 30, 37
1, 62186, Note_on_c, 0, 61, 45
1, 62219, Note_off_c, 0, 61, 58
1, 62242, Note_on_c, 0, 63, 54
1, 62262, Control_c, 0, 64, 101
1, 62276, Control_c, 0, 64, 88
1, 62286, Note_off_c, 0, 63, 61
1, 62291, Control_c, 0, 64, 80
1, 62306, Control_c, 0, 64, 73
1, 62317, Note_on_c, 0, 61, 45
1, 62321, Control_c, 0, 64, 68
1, 62336, Control_c, 0, 64, 64
1, 62352, Note_on_c, 0, 41, 56
1, 62353, Note_on_c, 0, 29, 50
1, 62353, Note_off_c, 0, 61, 58
1, 62358, Control_c, 0, 64, 61
1, 62373, Control_c, 0, 64, 56
1, 62379, Note_on_c, 0, 60, 51
1, 62388, Control_c, 0, 64, 54
1, 62402, Control_c, 0, 64, 53
1, 62412, Note_off_c, 0, 60, 60
1, 62417, Control_c, 0, 64, 51
1, 62432, Control_c, 0, 64, 50
1, 62442, Note_on_c, 0, 61, 54
1, 62447, Control_c, 0, 64, 49
1, 62462, Control_c, 0, 64, 47
1, 62474, Note_off_c, 0, 61, 64
1, 62476, Control_c, 0, 64, 47
1, 62491, Control_c, 0, 64, 46
1, 62505, Note_on_c, 0, 63, 47
1, 62548, Note_off_c, 0, 63, 62
1, 62552, Note_on_c, 0, 61, 59
1, 62591, Note_off_c, 0, 61, 64
1, 62615, Note_on_c, 0, 60, 56
1, 62660, Note_off_c, 0, 60, 61
1, 62683, Control_c, 0, 67, 18
1, 62688, Note_on_c, 0, 61, 38
1, 62698, Control_c, 0, 67, 27
1, 62713, Control_c, 0, 67, 37
1, 62717, Note_off_c, 0, 61, 57
1, 62728, Control_c, 0, 67, 53
1, 62738, Note_on_c, 0, 63, 48
1, 62743, Control_c, 0, 67, 72
1, 62758, Control_c, 0, 67, 89
1, 62773, Control_c, 0, 67, 104
1, 62777, Note_off_c, 0, 63, 64
1, 62788, Control_c, 0, 67, 120
1, 62802, Note_on_c, 0, 61, 52
1, 62802, Control_c, 0, 67, 127
1, 62829, Note_off_c, 0, 61, 62
1, 62854, Note_on_c, 0, 60, 56
1, 62899, Note_off_c, 0, 60, 59
1, 62914, Note_on_c, 0, 61, 51
1, 62949, Note_off_c, 0, 61, 64
1, 62969, Note_on_c, 0, 63, 54
1, 63012, Note_off_c, 0, 63, 62
1, 63032, Note_on_c, 0, 61, 51
1, 63066, Note_off_c, 0, 61, 64
1, 63095, Note_on_c, 0, 60, 56
1, 63137, Note_off_c, 0, 60, 62
1, 63154, Note_on_c, 0, 61, 54
1, 63181, Control_c, 0, 64, 47
1, 63186, Note_off_c, 0, 61, 64
1, 63215, Note_on_c, 0, 63, 52
1, 63255, Control_c, 0, 64, 47
1, 63258, Note_off_c, 0, 63, 62
1, 63265, Note_on_c, 0, 61, 56
1, 63270, Control_c, 0, 64, 48
1, 63303, Note_off_c, 0, 61, 64
1, 63334, Note_on_c, 0, 60, 53
1, 63359, Control_c, 0, 64, 48
1, 63371, Note_off_c, 0, 60, 60
1, 63401, Note_on_c, 0, 62, 50
1, 63403, Control_c, 0, 64, 49
1, 63435, Note_off_c, 0, 62, 65
1, 63455, Note_on_c, 0, 63, 54
1, 63491, Control_c, 0, 64, 49
1, 63495, Note_off_c, 0, 63, 63
1, 63521, Note_on_c, 0, 62, 49
1, 63551, Control_c, 0, 64, 50
1, 63552, Note_off_c, 0, 62, 64
1, 63577, Note_on_c, 0, 60, 55
1, 63614, Note_off_c, 0, 60, 64
1, 63634, Note_on_c, 0, 62, 55
1, 63668, Note_off_c, 0, 62, 64
1, 63685, Control_c, 0, 64, 50
1, 63694, Note_on_c, 0, 63, 57
1, 63700, Control_c, 0, 64, 51
1, 63715, Control_c, 0, 67, 122
1, 63730, Control_c, 0, 64, 51
1, 63730, Control_c, 0, 67, 111
1, 63736, Note_off_c, 0, 63, 62
1, 63743, Note_on_c, 0, 62, 62
1, 63745, Control_c, 0, 67, 83
1, 63759, Control_c, 0, 67, 44
1, 63774, Control_c, 0, 67, 0
1, 63778, Note_off_c, 0, 62, 64
1, 63806, Note_on_c, 0, 60, 59
1, 63851, Note_off_c, 0, 60, 64
1, 63859, Note_on_c, 0, 62, 67
1, 63908, Note_off_c, 0, 29, 56
1, 63914, Control_c, 0, 64, 52
1, 63920, Note_on_c, 0, 63, 73
1, 63922, Note_off_c, 0, 62, 62
1, 63940, Note_off_c, 0, 41, 63
1, 63959, Note_off_c, 0, 63, 62
1, 63974, Control_c, 0, 64, 52
1, 63980, Note_on_c, 0, 65, 85
1, 63989, Control_c, 0, 64, 53
1, 64004, Control_c, 0, 64, 53
1, 64034, Control_c, 0, 64, 54
1, 64037, Note_off_c, 0, 65, 58
1, 64040, Note_on_c, 0, 67, 82
1, 64048, Control_c, 0, 64, 54
1, 64102, Note_on_c, 0, 69, 83
1, 64120, Note_off_c, 0, 67, 58
1, 64137, Control_c, 0, 64, 54
1, 64153, Note_on_c, 0, 70, 82
1, 64169, Note_off_c, 0, 69, 64
1, 64196, Control_c, 0, 64, 53
1, 64197, Note_off_c, 0, 70, 67
1, 64217, Note_on_c, 0, 72, 82
1, 64241, Control_c, 0, 64, 52
1, 64255, Control_c, 0, 64, 52
1, 64270, Control_c, 0, 64, 51
1, 64284, Note_on_c, 0, 74, 91
1, 64285, Control_c, 0, 64, 50
1, 64292, Note_on_c, 0, 62, 62
1, 64294, Note_on_c, 0, 70, 79
1, 64300, Control_c, 0, 64, 48
1, 64302, Note_on_c, 0, 58, 57
1, 64305, Note_off_c, 0, 72, 64
1, 64306, Note_on_c, 0, 65, 65
1, 64314, Control_c, 0, 64, 46
1, 64329, Control_c, 0, 64, 41
1, 64344, Control_c, 0, 64, 34
1, 64359, Control_c, 0, 64, 26
1, 64374, Control_c, 0, 64, 18
1, 64388, Control_c, 0, 64, 16
1, 64403, Control_c, 0, 64, 22
1, 64418, Control_c, 0, 64, 52
1, 64433, Control_c, 0, 64, 64
1, 64448, Control_c, 0, 64, 71
1, 64463, Control_c, 0, 64, 81
1, 64469, Note_off_c, 0, 65, 35
1, 64478, Control_c, 0, 64, 108
1, 64487, Note_off_c, 0, 74, 60
1, 64493, Control_c, 0, 64, 127
1, 64500, Note_off_c, 0, 62, 62
1, 64509, Note_off_c, 0, 70, 62
1, 64513, Note_off_c, 0, 58, 63
1, 64820, Note_on_c, 0, 57, 78
1, 64823, Note_on_c, 0, 77, 105
1, 64824, Note_on_c, 0, 60, 75
1, 64827, Note_on_c, 0, 65, 86
1, 64830, Note_on_c, 0, 69, 95
1, 64835, Note_on_c, 0, 72, 84
1, 64856, Control_c, 0, 64, 94
1, 64871, Control_c, 0, 64, 73
1, 64886, Control_c, 0, 64, 33
1, 64901, Control_c, 0, 64, 0
1, 64989, Control_c, 0, 64, 32
1, 65004, Control_c, 0, 64, 66
1, 65019, Control_c, 0, 64, 88
1, 65034, Control_c, 0, 64, 127
1, 65064, Note_off_c, 0, 69, 61
1, 65073, Note_off_c, 0, 65, 59
1, 65074, Note_off_c, 0, 77, 56
1, 65088, Note_off_c, 0, 72, 63
1, 65127, Note_off_c, 0, 60, 61
1, 65128, Note_off_c, 0, 57, 59
1, 65504, Note_on_c, 0, 82, 101
1, 65508, Note_on_c, 0, 55, 73
1, 65510, Note_on_c, 0, 70, 93
1, 65513, Note_on_c, 0, 63, 82
1, 65514, Note_on_c, 0, 58, 72
1, 65514, Note_on_c, 0, 75, 86
1, 65575, Control_c, 0, 64, 80
1, 65590, Control_c, 0, 64, 60
1, 65605, Control_c, 0, 64, 0
1, 65724, Control_c, 0, 64, 40
1, 65739, Control_c, 0, 64, 62
1, 65754, Control_c, 0, 64, 72
1, 65768, Control_c, 0, 64, 90
1, 65783, Control_c, 0, 64, 127
1, 65861, Note_off_c, 0, 55, 60
1, 65872, Note_off_c, 0, 63, 57
1, 65892, Note_off_c, 0, 58, 58
1, 66296, Note_off_c, 0, 70, 56
1, 66395, Note_off_c, 0, 82, 57
1, 66576, Control_c, 0, 64, 103
1, 66591, Control_c, 0, 64, 76
1, 66606, Control_c, 0, 64, 63
1, 66621, Control_c, 0, 64, 40
1, 66635, Control_c, 0, 64, 0
1, 66663, Note_off_c, 0, 75, 18
1, 66699, Note_on_c, 0, 81, 67
1, 66746, Note_on_c, 0, 79, 74
1, 66750, Note_off_c, 0, 81, 63
1, 66786, Note_on_c, 0, 77, 78
1, 66815, Note_off_c, 0, 79, 65
1, 66843, Note_on_c, 0, 75, 96
1, 66871, Note_off_c, 0, 77, 64
1, 66874, Note_on_c, 0, 67, 56
1, 66895, Note_on_c, 0, 70, 39
1, 66978, Note_off_c, 0, 70, 65
1, 66979, Note_off_c, 0, 75, 65
1, 66982, Note_off_c, 0, 67, 65
1, 67257, Note_on_c, 0, 65, 38
1, 67268, Note_on_c, 0, 70, 39
1, 67269, Note_on_c, 0, 74, 73
1, 67286, Note_off_c, 0, 65, 56
1, 67297, Note_off_c, 0, 74, 65
1, 67298, Note_off_c, 0, 70, 53
1, 67404, Note_on_c, 0, 70, 45
1, 67405, Note_on_c, 0, 79, 85
1, 67409, Note_on_c, 0, 63, 41
1, 67501, Note_off_c, 0, 70, 64
1, 67509, Note_off_c, 0, 63, 63
1, 67527, Note_off_c, 0, 79, 65
1, 67793, Note_on_c, 0, 67, 51
1, 67799, Note_on_c, 0, 61, 37
1, 67800, Note_on_c, 0, 77, 72
1, 67823, Note_on_c, 0, 70, 49
1, 67832, Note_off_c, 0, 61, 55
1, 67833, Note_off_c, 0, 67, 63
1, 67845, Note_off_c, 0, 77, 58
1, 67849, Note_off_c, 0, 70, 60
1, 67953, Note_on_c, 0, 67, 36
1, 67958, Note_on_c, 0, 76, 64
1, 67967, Note_on_c, 0, 60, 45
1, 67967, Note_on_c, 0, 70, 46
1, 68073, Control_c, 0, 64, 30
1, 68087, Control_c, 0, 64, 52
1, 68102, Control_c, 0, 64, 61
1, 68117, Control_c, 0, 64, 65
1, 68132, Control_c, 0, 64, 70
1, 68144, Note_off_c, 0, 60, 53
1, 68147, Control_c, 0, 64, 82
1, 68159, Note_off_c, 0, 67, 59
1, 68161, Control_c, 0, 64, 103
1, 68176, Control_c, 0, 64, 127
1, 68225, Note_off_c, 0, 70, 36
1, 68266, Note_off_c, 0, 76, 58
1, 68480, Control_c, 0, 64, 101
1, 68496, Control_c, 0, 64, 75
1, 68510, Control_c, 0, 64, 58
1, 68525, Control_c, 0, 64, 0
1, 68643, Note_on_c, 0, 79, 77
1, 68664, Note_on_c, 0, 75, 44
1, 68674, Note_off_c, 0, 79, 59
1, 68690, Note_off_c, 0, 75, 57
1, 68773, Note_on_c, 0, 77, 91
1, 68780, Note_on_c, 0, 74, 72
1, 68806, Note_off_c, 0, 74, 69
1, 68818, Note_off_c, 0, 77, 64
1, 68896, Note_on_c, 0, 72, 83
1, 68897, Note_on_c, 0, 75, 73
1, 68901, Note_on_c, 0, 76, 83
1, 68919, Note_off_c, 0, 72, 68
1, 68921, Note_off_c, 0, 75, 54
1, 68922, Note_off_c, 0, 76, 70
1, 69016, Note_on_c, 0, 74, 96
1, 69024, Note_on_c, 0, 70, 86
1, 69150, Note_on_c, 0, 62, 74
1, 69152, Note_on_c, 0, 65, 83
1, 69182, Note_off_c, 0, 65, 65
1, 69191, Note_off_c, 0, 62, 62
1, 69272, Note_on_c, 0, 63, 92
1, 69283, Note_on_c, 0, 60, 76
1, 69307, Note_off_c, 0, 63, 63
1, 69313, Note_off_c, 0, 60, 63
1, 69388, Note_off_c, 0, 70, 42
1, 69398, Note_on_c, 0, 62, 85
1, 69407, Note_on_c, 0, 58, 71
1, 69439, Note_off_c, 0, 62, 62
1, 69444, Note_off_c, 0, 58, 62
1, 69528, Note_on_c, 0, 60, 73
1, 69540, Note_on_c, 0, 57, 63
1, 69550, Note_off_c, 0, 74, 49
1, 69642, Note_off_c, 0, 57, 58
1, 69656, Note_off_c, 0, 60, 60
1, 69671, Note_on_c, 0, 79, 62
1, 69685, Note_on_c, 0, 75, 50
1, 69709, Note_off_c, 0, 75, 59
1, 69709, Note_off_c, 0, 79, 61
1, 69803, Note_on_c, 0, 77, 62
1, 69805, Note_on_c, 0, 74, 55
1, 69844, Note_off_c, 0, 77, 65
1, 69845, Note_off_c, 0, 74, 64
1, 69934, Note_on_c, 0, 75, 66
1, 69948, Note_on_c, 0, 72, 37
1, 69967, Note_off_c, 0, 75, 62
1, 69978, Note_off_c, 0, 72, 49
1, 70063, Note_on_c, 0, 74, 63
1, 70072, Note_on_c, 0, 70, 55
1, 70183, Note_on_c, 0, 62, 60
1, 70185, Note_on_c, 0, 65, 54
1, 70210, Note_off_c, 0, 65, 62
1, 70221, Note_off_c, 0, 62, 63
1, 70319, Note_on_c, 0, 60, 54
1, 70323, Note_on_c, 0, 63, 43
1, 70351, Note_off_c, 0, 63, 55
1, 70352, Note_off_c, 0, 60, 60
1, 70398, Note_off_c, 0, 70, 48
1, 70454, Note_on_c, 0, 58, 38
1, 70455, Note_on_c, 0, 62, 36
1, 70486, Note_off_c, 0, 62, 55
1, 70488, Note_off_c, 0, 58, 53
1, 70598, Note_on_c, 0, 60, 50
1, 70619, Note_on_c, 0, 57, 41
1, 70628, Note_off_c, 0, 74, 31
1, 70637, Note_off_c, 0, 60, 63
1, 70726, Note_off_c, 0, 57, 55
1, 70728, Note_on_c, 0, 79, 77
1, 70731, Note_on_c, 0, 75, 69
1, 70736, Note_on_c, 0, 65, 61
1, 70788, Note_off_c, 0, 65, 52
1, 70803, Note_off_c, 0, 75, 62
1, 70841, Note_on_c, 0, 67, 72
1, 70845, Note_on_c, 0, 74, 80
1, 70848, Note_on_c, 0, 77, 86
1, 70863, Note_off_c, 0, 79, 51
1, 70910, Note_off_c, 0, 74, 61
1, 70927, Note_off_c, 0, 67, 60
1, 70952, Note_off_c, 0, 77, 48
1, 70964, Note_on_c, 0, 69, 81
1, 70965, Note_on_c, 0, 75, 92
1, 70967, Note_on_c, 0, 72, 79
1, 71003, Note_off_c, 0, 72, 65
1, 71038, Note_off_c, 0, 69, 56
1, 71041, Note_off_c, 0, 75, 63
1, 71073, Note_on_c, 0, 70, 70
1, 71081, Note_on_c, 0, 74, 91
1, 71156, Note_off_c, 0, 74, 60
1, 71182, Note_off_c, 0, 70, 61
1, 71201, Note_on_c, 0, 82, 96
1, 71203, Note_on_c, 0, 77, 86
1, 71211, Note_on_c, 0, 74, 72
1, 71289, Note_off_c, 0, 74, 56
1, 71303, Note_off_c, 0, 82, 65
1, 71315, Note_off_c, 0, 77, 55
1, 71339, Note_on_c, 0, 72, 71
1, 71342, Note_on_c, 0, 81, 82
1, 71343, Note_on_c, 0, 75, 77
1, 71424, Note_off_c, 0, 81, 65
1, 71441, Note_off_c, 0, 75, 59
1, 71452, Note_off_c, 0, 72, 51
1, 71466, Note_on_c, 0, 79, 87
1, 71476, Note_on_c, 0, 70, 64
1, 71563, Note_off_c, 0, 70, 54
1, 71574, Note_off_c, 0, 79, 56
1, 71597, Note_on_c, 0, 77, 86
1, 71601, Note_on_c, 0, 69, 59
1, 71603, Note_on_c, 0, 72, 65
1, 71635, Note_off_c, 0, 69, 64
1, 71646, Note_off_c, 0, 72, 56
1, 71723, Note_on_c, 0, 75, 85
1, 71727, Note_on_c, 0, 67, 58
1, 71728, Note_on_c, 0, 70, 53
1, 71735, Note_off_c, 0, 77, 58
1, 71757, Note_off_c, 0, 70, 65
1, 71760, Note_off_c, 0, 67, 65
1, 71831, Note_off_c, 0, 75, 61
1, 71845, Note_on_c, 0, 69, 63
1, 71857, Note_on_c, 0, 65, 46
1, 71859, Note_on_c, 0, 74, 76
1, 71875, Note_off_c, 0, 69, 66
1, 71883, Note_off_c, 0, 65, 59
1, 71980, Note_on_c, 0, 67, 57
1, 71984, Note_on_c, 0, 72, 80
1, 71987, Note_on_c, 0, 63, 53
1, 71991, Note_off_c, 0, 74, 61
1, 72016, Note_off_c, 0, 67, 65
1, 72035, Note_off_c, 0, 63, 58
1, 72161, Note_on_c, 0, 71, 80
1, 72163, Note_on_c, 0, 62, 45
1, 72164, Note_off_c, 0, 72, 61
1, 72169, Note_on_c, 0, 65, 46
1, 72663, Note_off_c, 0, 62, 25
1, 72692, Note_off_c, 0, 65, 38
1, 72696, Note_on_c, 0, 67, 44
1, 72702, Note_off_c, 0, 71, 60
1, 72716, Note_on_c, 0, 63, 30
1, 72717, Note_on_c, 0, 72, 59
1, 72835, Note_off_c, 0, 67, 60
1, 72888, Note_off_c, 0, 72, 63
1, 72889, Note_off_c, 0, 63, 58
1, 73325, Note_on_c, 0, 69, 52
1, 73331, Note_on_c, 0, 60, 42
1, 73331, Note_on_c, 0, 63, 36
1, 73334, Note_on_c, 0, 65, 41
1, 73404, Control_c, 0, 64, 8
1, 73404, Control_c, 0, 67, 13
1, 73419, Control_c, 0, 64, 12
1, 73419, Control_c, 0, 67, 28
1, 73434, Control_c, 0, 64, 16
1, 73434, Control_c, 0, 67, 42
1, 73449, Control_c, 0, 64, 26
1, 73449, Control_c, 0, 67, 53
1, 73463, Control_c, 0, 64, 38
1, 73463, Control_c, 0, 67, 65
1, 73478, Control_c, 0, 64, 46
1, 73478, Control_c, 0, 67, 80
1, 73493, Control_c, 0, 64, 51
1, 73493, Control_c, 0, 67, 105
1, 73507, Control_c, 0, 64, 54
1, 73507, Control_c, 0, 67, 127
1, 73522, Control_c, 0, 64, 57
1, 73537, Control_c, 0, 64, 61
1, 73552, Control_c, 0, 64, 65
1, 73567, Control_c, 0, 64, 68
1, 73589, Control_c, 0, 64, 71
1, 73604, Control_c, 0, 64, 76
1, 73619, Control_c, 0, 64, 81
1, 73634, Control_c, 0, 64, 87
1, 73649, Control_c, 0, 64, 92
1, 73663, Control_c, 0, 64, 95
1, 73678, Control_c, 0, 64, 95
1, 73754, Note_off_c, 0, 63, 42
1, 73763, Note_off_c, 0, 69, 56
1, 73781, Control_c, 0, 64, 94
1, 73796, Control_c, 0, 64, 94
1, 73826, Control_c, 0, 64, 93
1, 73854, Note_off_c, 0, 60, 37
1, 73886, Control_c, 0, 64, 93
1, 73900, Control_c, 0, 64, 92
1, 73930, Control_c, 0, 64, 91
1, 73945, Control_c, 0, 64, 90
1, 73946, Note_on_c, 0, 70, 49
1, 73951, Note_on_c, 0, 62, 38
1, 73960, Control_c, 0, 64, 89
1, 73974, Control_c, 0, 64, 86
1, 73989, Control_c, 0, 64, 80
1, 74004, Control_c, 0, 64, 74
1, 74019, Control_c, 0, 64, 67
1, 74033, Control_c, 0, 64, 62
1, 74048, Control_c, 0, 64, 55
1, 74063, Control_c, 0, 64, 49
1, 74079, Control_c, 0, 64, 47
1, 74103, Note_off_c, 0, 62, 52
1, 74133, Note_off_c, 0, 70, 35
1, 74138, Control_c, 0, 64, 45
1, 74153, Control_c, 0, 64, 42
1, 74168, Control_c, 0, 64, 39
1, 74183, Control_c, 0, 64, 38
1, 74200, Note_off_c, 0, 65, 40
1, 74212, Control_c, 0, 64, 37
1, 74242, Control_c, 0, 64, 37
1, 74257, Control_c, 0, 64, 36
1, 74516, Control_c, 0, 64, 37
1, 74530, Control_c, 0, 64, 37
1, 74545, Control_c, 0, 64, 38
1, 74560, Control_c, 0, 67, 123
1, 74575, Control_c, 0, 67, 110
1, 74590, Control_c, 0, 67, 96
1, 74604, Control_c, 0, 64, 38
1, 74604, Control_c, 0, 67, 84
1, 74619, Control_c, 0, 64, 39
1, 74619, Control_c, 0, 67, 70
1, 74634, Control_c, 0, 67, 57
1, 74649, Control_c, 0, 67, 42
1, 74664, Control_c, 0, 67, 24
1, 74679, Control_c, 0, 67, 0
1, 74708, Control_c, 0, 64, 39
1, 74812, Control_c, 0, 64, 40
1, 74961, Control_c, 0, 64, 40
1, 75035, Control_c, 0, 64, 41
1, 75065, Control_c, 0, 64, 41
1, 75176, Control_c, 0, 64, 42
1, 75250, Control_c, 0, 64, 42
1, 75279, Control_c, 0, 64, 43
1, 75294, Control_c, 0, 64, 43
1, 75383, Control_c, 0, 64, 44
1, 75590, Control_c, 0, 64, 44
1, 75739, Control_c, 0, 64, 45
1, 75835, Control_c, 0, 64, 45
1, 75954, Control_c, 0, 64, 46
1, 76087, Control_c, 0, 64, 46
1, 76201, Note_on_c, 0, 67, 46
1, 76213, Note_on_c, 0, 55, 36
1, 76295, Control_c, 0, 64, 47
1, 76599, Control_c, 0, 64, 47
1, 76614, Control_c, 0, 64, 48
1, 76629, Control_c, 0, 64, 49
1, 76644, Control_c, 0, 64, 50
1, 76659, Control_c, 0, 64, 51
1, 76673, Control_c, 0, 64, 52
1, 76688, Control_c, 0, 64, 53
1, 76703, Control_c, 0, 64, 55
1, 76718, Control_c, 0, 64, 56
1, 76732, Control_c, 0, 64, 57
1, 76747, Control_c, 0, 64, 58
1, 76762, Control_c, 0, 64, 60
1, 76777, Control_c, 0, 64, 61
1, 76792, Control_c, 0, 64, 62
1, 76807, Control_c, 0, 64, 63
1, 76822, Control_c, 0, 64, 63
1, 76837, Control_c, 0, 64, 64
1, 76852, Control_c, 0, 64, 65
1, 76867, Control_c, 0, 64, 66
1, 76881, Control_c, 0, 64, 67
1, 76896, Control_c, 0, 64, 68
1, 76911, Control_c, 0, 64, 69
1, 76925, Control_c, 0, 64, 71
1, 76925, Control_c, 0, 67, 21
1, 76940, Control_c, 0, 64, 73
1, 76940, Control_c, 0, 67, 40
1, 76955, Control_c, 0, 64, 77
1, 76955, Control_c, 0, 67, 51
1, 76970, Control_c, 0, 64, 80
1, 76970, Control_c, 0, 67, 55
1, 76985, Control_c, 0, 64, 84
1, 76985, Control_c, 0, 67, 58
1, 76999, Control_c, 0, 64, 92
1, 76999, Control_c, 0, 67, 67
1, 77014, Control_c, 0, 64, 102
1, 77014, Control_c, 0, 67, 86
1, 77029, Control_c, 0, 64, 127
1, 77029, Control_c, 0, 67, 110
1, 77044, Control_c, 0, 67, 127
1, 77082, Note_off_c, 0, 67, 59
1, 77185, Note_off_c, 0, 55, 41
1, 77583, Note_on_c, 0, 66, 37
1, 77584, Note_on_c, 0, 54, 38
1, 77585, Control_c, 0, 64, 119
1, 77589, Note_on_c, 0, 30, 27
1, 77591, Note_on_c, 0, 42, 31
1, 77600, Control_c, 0, 64, 102
1, 77615, Control_c, 0, 64, 92
1, 77630, Control_c, 0, 64, 85
1, 77645, Control_c, 0, 64, 78
1, 77659, Control_c, 0, 64, 70
1, 77674, Control_c, 0, 64, 63
1, 77689, Control_c, 0, 64, 53
1, 77704, Control_c, 0, 64, 37
1, 77719, Control_c, 0, 64, 20
1, 77734, Control_c, 0, 64, 17
1, 77763, Control_c, 0, 64, 16
1, 77778, Control_c, 0, 64, 12
1, 77793, Control_c, 0, 64, 0
1, 77896, Control_c, 0, 64, 23
1, 77911, Control_c, 0, 64, 40
1, 77926, Control_c, 0, 64, 51
1, 77940, Control_c, 0, 64, 56
1, 77955, Control_c, 0, 64, 59
1, 77970, Control_c, 0, 64, 62
1, 77985, Control_c, 0, 64, 64
1, 78000, Control_c, 0, 64, 65
1, 78014, Control_c, 0, 64, 67
1, 78029, Control_c, 0, 64, 71
1, 78044, Control_c, 0, 64, 75
1, 78059, Control_c, 0, 64, 80
1, 78083, Control_c, 0, 64, 85
1, 78098, Control_c, 0, 64, 90
1, 78112, Control_c, 0, 64, 94
1, 78127, Control_c, 0, 64, 98
1, 78142, Control_c, 0, 64, 102
1, 78157, Control_c, 0, 64, 104
1, 78201, Control_c, 0, 64, 104
1, 78275, Control_c, 0, 64, 105
1, 78290, Control_c, 0, 64, 106
1, 78305, Control_c, 0, 64, 107
1, 78319, Control_c, 0, 64, 111
1, 78334, Control_c, 0, 64, 127
1, 78381, Note_off_c, 0, 42, 52
1, 78406, Note_off_c, 0, 30, 40
1, 78408, Control_c, 0, 67, 113
1, 78423, Control_c, 0, 67, 0
1, 78425, Note_off_c, 0, 54, 54
1, 78438, Control_c, 0, 64, 89
1, 78444, Note_off_c, 0, 66, 40
1, 78452, Control_c, 0, 64, 69
1, 78467, Control_c, 0, 64, 56
1, 78482, Control_c, 0, 64, 49
1, 78497, Control_c, 0, 64, 53
1, 78512, Control_c, 0, 64, 59
1, 78525, Control_c, 0, 64, 64
1, 78540, Control_c, 0, 64, 67
1, 78555, Control_c, 0, 64, 69
1, 78569, Control_c, 0, 64, 72
1, 78584, Control_c, 0, 64, 78
1, 78599, Control_c, 0, 64, 88
1, 78614, Control_c, 0, 64, 106
1, 78629, Control_c, 0, 64, 119
1, 78642, Note_on_c, 0, 65, 95
1, 78643, Control_c, 0, 64, 83
1, 78644, Note_on_c, 0, 53, 93
1, 78645, Note_on_c, 0, 29, 84
1, 78658, Control_c, 0, 64, 46
1, 78673, Control_c, 0, 64, 0
1, 78686, Note_off_c, 0, 53, 63
1, 78700, Note_off_c, 0, 65, 65
1, 78703, Note_on_c, 0, 41, 80
1, 78709, Note_off_c, 0, 29, 61
1, 78718, Control_c, 0, 64, 65
1, 78733, Control_c, 0, 64, 100
1, 78747, Control_c, 0, 64, 127
1, 78755, Note_off_c, 0, 41, 63
1, 78821, Note_on_c, 0, 29, 38
1, 78852, Note_on_c, 0, 41, 67
1, 78866, Note_off_c, 0, 29, 53
1, 78882, Note_off_c, 0, 41, 66
1, 78898, Note_on_c, 0, 29, 63
1, 78903, Note_on_c, 0, 77, 101
1, 78904, Note_on_c, 0, 65, 91
1, 78906, Note_on_c, 0, 74, 83
1, 78907, Poly_aftertouch_c, 0, 31, 0
1, 78912, Note_on_c, 0, 70, 81
1, 78936, Note_off_c, 0, 70, 68
1, 78940, Note_off_c, 0, 65, 61
1, 78947, Note_on_c, 0, 41, 66
1, 78947, Note_off_c, 0, 29, 61
1, 78951, Note_off_c, 0, 74, 65
1, 78965, Note_off_c, 0, 77, 64
1, 79003, Note_off_c, 0, 41, 62
1, 79013, Note_on_c, 0, 29, 71
1, 79049, Note_off_c, 0, 29, 65
1, 79069, Note_on_c, 0, 41, 73
1, 79112, Note_off_c, 0, 41, 63
1, 79150, Note_on_c, 0, 29, 70
1, 79165, Note_on_c, 0, 70, 99
1, 79165, Note_on_c, 0, 82, 100
1, 79168, Note_on_c, 0, 74, 86
1, 79181, Note_on_c, 0, 77, 74
1, 79192, Note_on_c, 0, 41, 76
1, 79196, Note_off_c, 0, 29, 58
1, 79201, Note_off_c, 0, 70, 67
1, 79204, Note_off_c, 0, 74, 61
1, 79205, Note_off_c, 0, 77, 65
1, 79230, Note_on_c, 0, 83, 8
1, 79243, Note_off_c, 0, 41, 64
1, 79243, Note_off_c, 0, 82, 63
1, 79268, Note_on_c, 0, 29, 62
1, 79287, Note_off_c, 0, 83, 51
1, 79313, Note_off_c, 0, 29, 58
1, 79320, Note_on_c, 0, 41, 80
1, 79370, Note_off_c, 0, 41, 62
1, 79396, Note_on_c, 0, 29, 74
1, 79413, Note_on_c, 0, 86, 106
1, 79415, Note_on_c, 0, 77, 85
1, 79416, Note_on_c, 0, 82, 90
1, 79418, Note_on_c, 0, 74, 94
1, 79440, Note_off_c, 0, 74, 65
1, 79448, Note_off_c, 0, 77, 63
1, 79453, Note_on_c, 0, 41, 76
1, 79460, Note_off_c, 0, 29, 60
1, 79463, Note_off_c, 0, 82, 65
1, 79480, Note_off_c, 0, 86, 65
1, 79493, Note_off_c, 0, 41, 60
1, 79516, Note_on_c, 0, 29, 61
1, 79574, Note_off_c, 0, 29, 58
1, 79585, Note_on_c, 0, 41, 73
1, 79647, Note_off_c, 0, 41, 60
1, 79671, Note_on_c, 0, 29, 92
1, 79674, Note_on_c, 0, 89, 105
1, 79678, Note_on_c, 0, 77, 108
1, 79681, Note_on_c, 0, 86, 97
1, 79684, Note_on_c, 0, 82, 92
1, 79713, Note_off_c, 0, 29, 62
1, 79719, Note_off_c, 0, 77, 66
1, 79726, Note_off_c, 0, 89, 67
1, 79734, Note_off_c, 0, 86, 67
1, 79737, Note_off_c, 0, 82, 65
1, 79904, Control_c, 0, 64, 70
1, 79919, Control_c, 0, 64, 0
1, 80208, Note_on_c, 0, 81, 103
1, 80211, Note_on_c, 0, 53, 76
1, 80213, Note_on_c, 0, 72, 96
1, 80214, Note_on_c, 0, 60, 74
1, 80215, Note_on_c, 0, 65, 80
1, 80215, Note_on_c, 0, 77, 86
1, 80216, Control_c, 0, 64, 51
1, 80219, Note_on_c, 0, 57, 71
1, 80220, Note_on_c, 0, 75, 83
1, 80231, Control_c, 0, 64, 70
1, 80239, Note_off_c, 0, 65, 69
1, 80246, Control_c, 0, 64, 127
1, 80248, Note_off_c, 0, 72, 66
1, 80262, Note_off_c, 0, 53, 61
1, 80268, Note_off_c, 0, 75, 60
1, 80269, Note_off_c, 0, 60, 63
1, 80269, Note_off_c, 0, 81, 69
1, 80274, Note_off_c, 0, 77, 65
1, 80275, Note_off_c, 0, 57, 64
1, 80476, Control_c, 0, 64, 107
1, 80491, Control_c, 0, 64, 69
1, 80506, Control_c, 0, 64, 0
1, 80779, Note_on_c, 0, 46, 77
1, 80781, Note_on_c, 0, 82, 94
1, 80783, Note_on_c, 0, 50, 70
1, 80783, Note_on_c, 0, 53, 74
1, 80786, Note_on_c, 0, 58, 80
1, 80851, Note_on_c, 0, 86, 99
1, 80853, Note_off_c, 0, 82, 67
1, 80926, Note_on_c, 0, 84, 89
1, 80976, Note_off_c, 0, 86, 58
1, 80989, Note_off_c, 0, 58, 59
1, 80995, Note_on_c, 0, 82, 87
1, 81031, Note_off_c, 0, 84, 64
1, 81039, Note_off_c, 0, 53, 63
1, 81045, Note_off_c, 0, 46, 62
1, 81047, Note_off_c, 0, 50, 62
1, 81067, Note_on_c, 0, 81, 84
1, 81090, Note_off_c, 0, 82, 65
1, 81138, Note_on_c, 0, 79, 84
1, 81138, Note_off_c, 0, 81, 65
1, 81186, Note_off_c, 0, 79, 66
1, 81200, Note_on_c, 0, 77, 84
1, 81266, Note_on_c, 0, 76, 82
1, 81270, Note_off_c, 0, 77, 61
1, 81322, Note_on_c, 0, 75, 94
1, 81326, Note_on_c, 0, 51, 74
1, 81328, Note_on_c, 0, 57, 74
1, 81333, Note_on_c, 0, 48, 62
1, 81335, Note_on_c, 0, 46, 59
1, 81335, Note_off_c, 0, 76, 62
1, 81385, Note_off_c, 0, 75, 63
1, 81391, Note_on_c, 0, 79, 86
1, 81433, Control_c, 0, 64, 16
1, 81448, Control_c, 0, 64, 24
1, 81454, Note_on_c, 0, 77, 80
1, 81462, Control_c, 0, 64, 27
1, 81477, Control_c, 0, 64, 28
1, 81489, Note_off_c, 0, 79, 65
1, 81507, Control_c, 0, 64, 22
1, 81509, Note_off_c, 0, 57, 54
1, 81520, Control_c, 0, 64, 0
1, 81522, Note_on_c, 0, 75, 85
1, 81545, Note_off_c, 0, 77, 62
1, 81556, Note_off_c, 0, 46, 63
1, 81564, Note_off_c, 0, 48, 62
1, 81568, Note_off_c, 0, 51, 64
1, 81580, Note_on_c, 0, 74, 84
1, 81594, Note_off_c, 0, 75, 63
1, 81632, Note_off_c, 0, 74, 64
1, 81648, Note_on_c, 0, 72, 81
1, 81705, Note_off_c, 0, 72, 61
1, 81713, Note_on_c, 0, 70, 75
1, 81769, Note_off_c, 0, 70, 63
1, 81771, Note_on_c, 0, 69, 83
1, 81840, Note_on_c, 0, 53, 61
1, 81843, Note_on_c, 0, 70, 81
1, 81844, Note_on_c, 0, 46, 45
1, 81848, Note_on_c, 0, 50, 49
1, 81849, Note_on_c, 0, 58, 59
1, 81850, Note_off_c, 0, 69, 61
1, 81904, Note_off_c, 0, 70, 65
1, 81907, Note_on_c, 0, 74, 77
1, 81974, Note_on_c, 0, 72, 71
1, 81985, Note_off_c, 0, 58, 58
1, 81994, Note_off_c, 0, 74, 57
1, 82038, Note_on_c, 0, 70, 76
1, 82048, Note_off_c, 0, 72, 62
1, 82062, Note_off_c, 0, 46, 62
1, 82062, Note_off_c, 0, 53, 63
1, 82068, Note_off_c, 0, 50, 62
1, 82104, Note_on_c, 0, 69, 75
1, 82107, Note_off_c, 0, 70, 64
1, 82155, Note_off_c, 0, 69, 62
1, 82176, Note_on_c, 0, 67, 71
1, 82221, Note_off_c, 0, 67, 59
1, 82245, Note_on_c, 0, 65, 71
1, 82301, Note_off_c, 0, 65, 61
1, 82310, Note_on_c, 0, 64, 65
1, 82352, Note_on_c, 0, 51, 49
1, 82354, Note_on_c, 0, 57, 49
1, 82360, Note_on_c, 0, 46, 44
1, 82363, Note_on_c, 0, 48, 50
1, 82366, Note_on_c, 0, 63, 64
1, 82366, Note_off_c, 0, 64, 58
1, 82404, Note_off_c, 0, 63, 65
1, 82421, Note_on_c, 0, 67, 66
1, 82484, Note_on_c, 0, 65, 61
1, 82491, Note_off_c, 0, 67, 62
1, 82492, Note_off_c, 0, 57, 37
1, 82540, Note_off_c, 0, 65, 62
1, 82542, Note_on_c, 0, 63, 66
1, 82572, Note_off_c, 0, 51, 61
1, 82577, Note_off_c, 0, 48, 59
1, 82604, Note_off_c, 0, 46, 62
1, 82609, Note_off_c, 0, 63, 63
1, 82614, Note_on_c, 0, 62, 59
1, 82644, Note_off_c, 0, 62, 65
1, 82674, Note_on_c, 0, 60, 54
1, 82691, Control_c, 0, 64, 8
1, 82706, Control_c, 0, 64, 10
1, 82709, Note_off_c, 0, 60, 58
1, 82721, Control_c, 0, 64, 12
1, 82727, Note_on_c, 0, 58, 63
1, 82751, Control_c, 0, 64, 14
1, 82768, Note_off_c, 0, 58, 62
1, 82781, Control_c, 0, 64, 16
1, 82793, Note_on_c, 0, 57, 67
1, 82796, Control_c, 0, 64, 19
1, 82810, Control_c, 0, 64, 21
1, 82825, Control_c, 0, 64, 23
1, 82828, Note_off_c, 0, 57, 64
1, 82840, Control_c, 0, 64, 24
1, 82849, Note_on_c, 0, 46, 68
1, 82850, Note_on_c, 0, 58, 69
1, 82854, Note_on_c, 0, 34, 53
1, 82855, Control_c, 0, 64, 24
1, 82882, Note_off_c, 0, 58, 68
1, 82884, Note_off_c, 0, 46, 64
1, 82885, Control_c, 0, 64, 25
1, 82889, Note_off_c, 0, 34, 63
1, 82904, Note_on_c, 0, 57, 65
1, 82930, Control_c, 0, 64, 26
1, 82945, Note_off_c, 0, 57, 64
1, 82945, Control_c, 0, 64, 26
1, 82959, Note_on_c, 0, 58, 65
1, 82959, Control_c, 0, 64, 27
1, 82974, Control_c, 0, 64, 28
1, 82985, Note_off_c, 0, 58, 66
1, 83009, Note_on_c, 0, 53, 59
1, 83040, Note_off_c, 0, 53, 65
1, 83078, Note_on_c, 0, 62, 73
1, 83079, Note_on_c, 0, 50, 69
1, 83084, Note_on_c, 0, 38, 54
1, 83104, Note_off_c, 0, 50, 66
1, 83113, Note_off_c, 0, 38, 59
1, 83135, Note_off_c, 0, 62, 62
1, 83137, Note_on_c, 0, 61, 74
1, 83199, Note_on_c, 0, 62, 66
1, 83201, Note_off_c, 0, 61, 59
1, 83211, Control_c, 0, 64, 28
1, 83254, Note_off_c, 0, 62, 63
1, 83266, Note_on_c, 0, 58, 75
1, 83289, Note_off_c, 0, 58, 67
1, 83327, Note_on_c, 0, 41, 63
1, 83329, Note_on_c, 0, 53, 78
1, 83350, Note_on_c, 0, 65, 82
1, 83352, Control_c, 0, 64, 29
1, 83356, Note_off_c, 0, 53, 68
1, 83357, Note_off_c, 0, 41, 64
1, 83398, Note_on_c, 0, 64, 79
1, 83401, Note_off_c, 0, 65, 65
1, 83426, Control_c, 0, 64, 29
1, 83440, Control_c, 0, 64, 30
1, 83455, Control_c, 0, 64, 30
1, 83459, Note_on_c, 0, 65, 79
1, 83469, Note_off_c, 0, 64, 62
1, 83470, Control_c, 0, 64, 31
1, 83496, Note_off_c, 0, 65, 64
1, 83500, Control_c, 0, 64, 32
1, 83514, Control_c, 0, 64, 33
1, 83529, Control_c, 0, 64, 34
1, 83544, Control_c, 0, 64, 35
1, 83555, Note_on_c, 0, 62, 16
1, 83559, Control_c, 0, 64, 35
1, 83574, Control_c, 0, 64, 36
1, 83577, Note_on_c, 0, 70, 93
1, 83581, Note_on_c, 0, 58, 91
1, 83584, Note_on_c, 0, 46, 70
1, 83588, Control_c, 0, 64, 37
1, 83595, Note_off_c, 0, 62, 42
1, 83603, Control_c, 0, 64, 38
1, 83612, Note_off_c, 0, 58, 65
1, 83618, Control_c, 0, 64, 39
1, 83621, Note_off_c, 0, 46, 66
1, 83636, Note_off_c, 0, 70, 66
1, 83648, Control_c, 0, 64, 40
1, 83651, Note_on_c, 0, 69, 82
1, 83678, Control_c, 0, 64, 40
1, 83696, Note_on_c, 0, 70, 79
1, 83711, Note_off_c, 0, 69, 63
1, 83743, Note_off_c, 0, 70, 65
1, 83762, Note_on_c, 0, 65, 75
1, 83787, Note_off_c, 0, 65, 69
1, 83823, Note_on_c, 0, 74, 95
1, 83832, Note_on_c, 0, 62, 86
1, 83835, Note_on_c, 0, 50, 58
1, 83853, Note_off_c, 0, 62, 72
1, 83860, Note_off_c, 0, 50, 58
1, 83893, Note_on_c, 0, 73, 83
1, 83897, Note_off_c, 0, 74, 62
1, 83952, Note_on_c, 0, 74, 82
1, 83958, Note_off_c, 0, 73, 67
1, 83999, Note_off_c, 0, 74, 63
1, 84020, Note_on_c, 0, 70, 70
1, 84039, Note_off_c, 0, 70, 40
1, 84083, Note_on_c, 0, 65, 81
1, 84086, Note_on_c, 0, 53, 57
1, 84089, Note_on_c, 0, 77, 96
1, 84107, Note_off_c, 0, 65, 67
1, 84112, Note_off_c, 0, 53, 62
1, 84150, Note_on_c, 0, 76, 83
1, 84156, Note_off_c, 0, 77, 60
1, 84205, Note_on_c, 0, 77, 80
1, 84220, Note_off_c, 0, 76, 65
1, 84234, Control_c, 0, 64, 41
1, 84242, Note_off_c, 0, 77, 65
1, 84268, Note_on_c, 0, 74, 72
1, 84297, Note_off_c, 0, 74, 64
1, 84324, Note_on_c, 0, 70, 77
1, 84330, Note_on_c, 0, 82, 83
1, 84336, Note_on_c, 0, 58, 54
1, 84345, Note_off_c, 0, 70, 72
1, 84360, Note_off_c, 0, 58, 59
1, 84388, Note_off_c, 0, 82, 64
1, 84411, Control_c, 0, 64, 40
1, 84417, Note_on_c, 0, 81, 50
1, 84426, Control_c, 0, 64, 38
1, 84441, Control_c, 0, 64, 37
1, 84449, Note_on_c, 0, 82, 72
1, 84457, Control_c, 0, 64, 36
1, 84459, Note_off_c, 0, 81, 66
1, 84472, Control_c, 0, 64, 35
1, 84486, Control_c, 0, 64, 35
1, 84489, Note_off_c, 0, 82, 66
1, 84501, Control_c, 0, 64, 34
1, 84517, Control_c, 0, 64, 34
1, 84519, Note_on_c, 0, 77, 56
1, 84532, Control_c, 0, 64, 32
1, 84547, Control_c, 0, 64, 31
1, 84551, Note_off_c, 0, 77, 61
1, 84561, Control_c, 0, 64, 31
1, 84571, Note_on_c, 0, 84, 77
1, 84572, Note_on_c, 0, 65, 54
1, 84578, Note_on_c, 0, 75, 47
1, 84603, Note_off_c, 0, 75, 57
1, 84608, Note_off_c, 0, 65, 65
1, 84614, Note_off_c, 0, 84, 58
1, 84650, Note_on_c, 0, 83, 57
1, 84650, Control_c, 0, 64, 30
1, 84704, Note_on_c, 0, 84, 61
1, 84719, Note_off_c, 0, 83, 61
1, 84739, Note_off_c, 0, 84, 64
1, 84766, Note_on_c, 0, 77, 62
1, 84810, Note_off_c, 0, 77, 62
1, 84834, Note_on_c, 0, 82, 70
1, 84837, Note_on_c, 0, 74, 51
1, 84839, Note_on_c, 0, 70, 55
1, 84858, Note_off_c, 0, 74, 62
1, 84868, Note_off_c, 0, 70, 66
1, 84872, Note_off_c, 0, 82, 63
1, 84880, Control_c, 0, 64, 31
1, 84898, Note_on_c, 0, 81, 60
1, 84949, Note_off_c, 0, 81, 55
1, 84954, Control_c, 0, 64, 31
1, 84960, Note_on_c, 0, 82, 76
1, 84984, Control_c, 0, 64, 32
1, 84990, Note_off_c, 0, 82, 65
1, 85013, Note_on_c, 0, 77, 73
1, 85028, Control_c, 0, 64, 32
1, 85041, Note_off_c, 0, 77, 66
1, 85074, Note_on_c, 0, 84, 104
1, 85080, Note_on_c, 0, 75, 73
1, 85082, Note_on_c, 0, 65, 61
1, 85102, Control_c, 0, 64, 33
1, 85103, Note_off_c, 0, 75, 69
1, 85112, Note_off_c, 0, 65, 65
1, 85135, Note_on_c, 0, 83, 81
1, 85145, Note_off_c, 0, 84, 61
1, 85204, Note_on_c, 0, 84, 83
1, 85214, Note_off_c, 0, 83, 65
1, 85246, Note_on_c, 0, 77, 75
1, 85247, Note_off_c, 0, 84, 65
1, 85307, Note_off_c, 0, 77, 63
1, 85319, Note_on_c, 0, 82, 92
1, 85328, Note_on_c, 0, 74, 73
1, 85334, Note_on_c, 0, 70, 68
1, 85353, Note_off_c, 0, 74, 69
1, 85360, Note_off_c, 0, 70, 67
1, 85374, Note_on_c, 0, 81, 81
1, 85374, Note_off_c, 0, 82, 66
1, 85414, Control_c, 0, 64, 32
1, 85443, Control_c, 0, 64, 32
1, 85446, Note_on_c, 0, 82, 87
1, 85453, Note_off_c, 0, 81, 65
1, 85458, Control_c, 0, 64, 31
1, 85473, Control_c, 0, 64, 31
1, 85487, Note_on_c, 0, 77, 81
1, 85492, Note_off_c, 0, 82, 64
1, 85503, Control_c, 0, 64, 30
1, 85528, Note_off_c, 0, 77, 64
1, 85547, Control_c, 0, 64, 36
1, 85565, Note_on_c, 0, 84, 101
1, 85569, Control_c, 0, 64, 46
1, 85572, Note_on_c, 0, 65, 74
1, 85574, Note_on_c, 0, 75, 81
1, 85584, Control_c, 0, 64, 54
1, 85596, Note_off_c, 0, 75, 69
1, 85599, Control_c, 0, 64, 56
1, 85605, Note_off_c, 0, 65, 64
1, 85629, Control_c, 0, 64, 56
1, 85633, Note_on_c, 0, 83, 78
1, 85642, Note_off_c, 0, 84, 57
1, 85643, Control_c, 0, 64, 53
1, 85658, Control_c, 0, 64, 49
1, 85673, Control_c, 0, 64, 45
1, 85688, Control_c, 0, 64, 43
1, 85703, Control_c, 0, 64, 42
1, 85706, Note_on_c, 0, 84, 76
1, 85714, Note_off_c, 0, 83, 65
1, 85717, Control_c, 0, 64, 42
1, 85732, Control_c, 0, 64, 41
1, 85742, Note_off_c, 0, 84, 61
1, 85747, Control_c, 0, 64, 40
1, 85748, Note_on_c, 0, 77, 76
1, 85762, Control_c, 0, 64, 38
1, 85776, Control_c, 0, 64, 36
1, 85791, Control_c, 0, 64, 35
1, 85806, Note_off_c, 0, 77, 63
1, 85806, Control_c, 0, 64, 34
1, 85816, Note_on_c, 0, 70, 71
1, 85818, Note_on_c, 0, 82, 98
1, 85821, Control_c, 0, 64, 34
1, 85836, Control_c, 0, 64, 33
1, 85852, Note_off_c, 0, 70, 65
1, 85857, Note_off_c, 0, 82, 67
1, 85866, Control_c, 0, 64, 33
1, 85884, Note_on_c, 0, 74, 65
1, 85915, Note_off_c, 0, 74, 61
1, 85925, Control_c, 0, 64, 32
1, 85940, Control_c, 0, 64, 31
1, 85949, Note_on_c, 0, 70, 63
1, 85954, Control_c, 0, 64, 31
1, 85978, Note_off_c, 0, 70, 67
1, 85999, Control_c, 0, 64, 30
1, 86000, Note_on_c, 0, 74, 65
1, 86031, Note_off_c, 0, 74, 64
1, 86065, Note_on_c, 0, 70, 57
1, 86073, Control_c, 0, 64, 30
1, 86077, Note_on_c, 0, 86, 98
1, 86092, Note_on_c, 0, 82, 68
1, 86096, Note_off_c, 0, 70, 66
1, 86103, Control_c, 0, 64, 29
1, 86109, Note_off_c, 0, 82, 67
1, 86117, Note_off_c, 0, 86, 64
1, 86118, Note_on_c, 0, 74, 64
1, 86132, Control_c, 0, 64, 29
1, 86152, Note_off_c, 0, 74, 62
1, 86185, Note_on_c, 0, 70, 54
1, 86222, Note_off_c, 0, 70, 66
1, 86248, Note_on_c, 0, 74, 62
1, 86286, Note_off_c, 0, 74, 61
1, 86322, Note_on_c, 0, 70, 58
1, 86324, Note_on_c, 0, 89, 100
1, 86331, Note_on_c, 0, 86, 68
1, 86356, Note_off_c, 0, 70, 66
1, 86358, Note_off_c, 0, 86, 66
1, 86372, Note_off_c, 0, 89, 66
1, 86386, Note_on_c, 0, 74, 63
1, 86420, Note_off_c, 0, 74, 63
1, 86458, Note_on_c, 0, 70, 56
1, 86492, Note_off_c, 0, 70, 65
1, 86518, Note_on_c, 0, 74, 66
1, 86566, Note_off_c, 0, 74, 58
1, 86569, Note_on_c, 0, 86, 96
1, 86580, Note_on_c, 0, 82, 80
1, 86584, Note_on_c, 0, 70, 62
1, 86601, Note_off_c, 0, 82, 72
1, 86624, Note_off_c, 0, 70, 65
1, 86625, Note_off_c, 0, 86, 64
1, 86661, Note_on_c, 0, 74, 64
1, 86694, Note_off_c, 0, 74, 64
1, 86732, Control_c, 0, 64, 29
1, 86733, Note_on_c, 0, 70, 54
1, 86766, Note_off_c, 0, 70, 66
1, 86772, Note_on_c, 0, 74, 71
1, 86776, Control_c, 0, 64, 30
1, 86791, Control_c, 0, 64, 31
1, 86806, Control_c, 0, 64, 31
1, 86814, Note_off_c, 0, 74, 58
1, 86821, Control_c, 0, 64, 32
1, 86826, Note_on_c, 0, 89, 102
1, 86829, Note_on_c, 0, 86, 73
1, 86836, Control_c, 0, 64, 33
1, 86841, Note_on_c, 0, 70, 80
1, 86852, Control_c, 0, 64, 34
1, 86864, Note_off_c, 0, 86, 66
1, 86865, Note_off_c, 0, 70, 69
1, 86867, Control_c, 0, 64, 34
1, 86873, Note_off_c, 0, 89, 67
1, 87044, Control_c, 0, 64, 34
1, 87067, Control_c, 0, 64, 33
1, 87081, Control_c, 0, 64, 32
1, 87229, Control_c, 0, 67, 15
1, 87244, Control_c, 0, 67, 20
1, 87259, Control_c, 0, 67, 21
1, 87318, Control_c, 0, 67, 22
1, 87333, Control_c, 0, 67, 22
1, 87348, Control_c, 0, 67, 24
1, 87362, Control_c, 0, 67, 27
1, 87376, Note_on_c, 0, 82, 50
1, 87377, Control_c, 0, 67, 42
1, 87381, Note_on_c, 0, 70, 39
1, 87381, Note_on_c, 0, 74, 33
1, 87381, Note_on_c, 0, 86, 54
1, 87392, Control_c, 0, 67, 65
1, 87407, Control_c, 0, 67, 98
1, 87419, Note_off_c, 0, 82, 62
1, 87419, Note_off_c, 0, 86, 66
1, 87422, Control_c, 0, 67, 127
1, 87428, Note_off_c, 0, 70, 64
1, 87429, Note_off_c, 0, 74, 52
1, 87860, Control_c, 0, 64, 33
1, 87904, Control_c, 0, 64, 33
1, 87963, Control_c, 0, 64, 34
1, 87975, Note_on_c, 0, 82, 54
1, 87976, Note_on_c, 0, 74, 36
1, 87981, Note_on_c, 0, 77, 50
1, 87993, Control_c, 0, 64, 34
1, 87997, Note_on_c, 0, 70, 33
1, 88033, Note_off_c, 0, 82, 62
1, 88033, Note_off_c, 0, 77, 60
1, 88037, Control_c, 0, 64, 35
1, 88045, Note_off_c, 0, 74, 63
1, 88055, Note_off_c, 0, 70, 63
1, 88111, Control_c, 0, 64, 35
1, 88245, Control_c, 0, 64, 36
1, 88304, Control_c, 0, 64, 36
1, 88349, Control_c, 0, 64, 37
1, 88364, Control_c, 0, 64, 38
1, 88394, Control_c, 0, 64, 39
1, 88423, Control_c, 0, 64, 39
1, 88438, Control_c, 0, 64, 40
1, 88468, Control_c, 0, 64, 40
1, 88483, Control_c, 0, 64, 41
1, 88498, Control_c, 0, 64, 41
1, 88543, Control_c, 0, 64, 42
1, 88698, Control_c, 0, 64, 42
1, 88713, Control_c, 0, 64, 43
1, 88728, Control_c, 0, 64, 44
1, 88757, Control_c, 0, 64, 44
1, 88787, Control_c, 0, 64, 45
1, 88802, Control_c, 0, 64, 45
1, 88817, Control_c, 0, 64, 46
1, 88817, Control_c, 0, 67, 117
1, 88832, Control_c, 0, 64, 46
1, 88832, Control_c, 0, 67, 102
1, 88847, Control_c, 0, 64, 47
1, 88847, Control_c, 0, 67, 86
1, 88861, Control_c, 0, 67, 71
1, 88876, Control_c, 0, 64, 47
1, 88876, Control_c, 0, 67, 56
1, 88891, Control_c, 0, 67, 40
1, 88906, Control_c, 0, 64, 48
1, 88906, Control_c, 0, 67, 20
1, 88921, Control_c, 0, 67, 0
1, 88935, Control_c, 0, 64, 48
1, 88950, Control_c, 0, 64, 49
1, 88994, Control_c, 0, 64, 49
1, 89024, Control_c, 0, 64, 50
1, 89083, Control_c, 0, 64, 50
1, 89172, Control_c, 0, 64, 51
1, 89231, Control_c, 0, 64, 51
1, 89262, Control_c, 0, 64, 52
1, 89344, Control_c, 0, 64, 52
1, 89432, Control_c, 0, 64, 53
1, 89765, Note_on_c, 0, 65, 46
1, 89778, Note_on_c, 0, 62, 39
1, 89793, Note_on_c, 0, 46, 24
1, 89807, Note_on_c, 0, 34, 9
1, 90239, Control_c, 0, 64, 54
1, 90254, Control_c, 0, 64, 55
1, 90269, Control_c, 0, 64, 56
1, 90284, Control_c, 0, 64, 57
1, 90298, Control_c, 0, 64, 59
1, 90313, Control_c, 0, 64, 61
1, 90328, Control_c, 0, 64, 63
1, 90343, Control_c, 0, 64, 64
1, 90358, Control_c, 0, 64, 65
1, 90373, Control_c, 0, 64, 66
1, 90387, Control_c, 0, 64, 67
1, 90402, Control_c, 0, 64, 69
1, 90417, Control_c, 0, 64, 73
1, 90431, Control_c, 0, 64, 76
1, 90446, Control_c, 0, 64, 79
1, 90461, Control_c, 0, 64, 83
1, 90476, Control_c, 0, 64, 87
1, 90491, Control_c, 0, 64, 91
1, 90505, Control_c, 0, 64, 99
1, 90520, Control_c, 0, 64, 109
1, 90535, Control_c, 0, 64, 121
1, 90550, Control_c, 0, 64, 127
1, 90854, Control_c, 0, 67, 13
1, 90869, Control_c, 0, 67, 20
1, 90870, Note_off_c, 0, 65, 54
1, 90884, Control_c, 0, 67, 29
1, 90899, Control_c, 0, 67, 34
1, 90914, Control_c, 0, 67, 37
1, 90928, Control_c, 0, 67, 38
1, 90943, Control_c, 0, 67, 40
1, 90958, Control_c, 0, 67, 42
1, 90973, Control_c, 0, 67, 46
1, 90978, Note_off_c, 0, 46, 39
1, 90988, Control_c, 0, 67, 48
1, 91002, Control_c, 0, 67, 48
1, 91017, Control_c, 0, 67, 49
1, 91019, Note_off_c, 0, 34, 42
1, 91032, Control_c, 0, 67, 49
1, 91269, Control_c, 0, 67, 49
1, 91284, Control_c, 0, 67, 48
1, 91358, Control_c, 0, 67, 48
1, 91373, Note_off_c, 0, 62, 60
1, 91375, Note_on_c, 0, 66, 74
1, 91390, Note_on_c, 0, 32, 38
1, 91391, Note_on_c, 0, 60, 50
1, 91393, Note_on_c, 0, 44, 38
1, 91461, Control_c, 0, 64, 98
1, 91476, Control_c, 0, 64, 83
1, 91491, Control_c, 0, 64, 72
1, 91506, Control_c, 0, 64, 63
1, 91506, Control_c, 0, 67, 47
1, 91521, Control_c, 0, 64, 48
1, 91536, Control_c, 0, 64, 36
1, 91558, Control_c, 0, 64, 34
1, 91587, Control_c, 0, 64, 35
1, 91617, Control_c, 0, 64, 33
1, 91632, Control_c, 0, 64, 31
1, 91663, Control_c, 0, 64, 33
1, 91677, Control_c, 0, 64, 40
1, 91692, Control_c, 0, 64, 50
1, 91692, Control_c, 0, 67, 48
1, 91707, Control_c, 0, 64, 57
1, 91707, Control_c, 0, 67, 48
1, 91722, Control_c, 0, 64, 62
1, 91722, Control_c, 0, 67, 49
1, 91737, Control_c, 0, 64, 64
1, 91737, Control_c, 0, 67, 50
1, 91751, Control_c, 0, 64, 65
1, 91751, Control_c, 0, 67, 51
1, 91766, Control_c, 0, 64, 67
1, 91766, Control_c, 0, 67, 54
1, 91781, Control_c, 0, 64, 68
1, 91781, Control_c, 0, 67, 62
1, 91795, Control_c, 0, 64, 71
1, 91795, Control_c, 0, 67, 84
1, 91810, Control_c, 0, 64, 76
1, 91810, Control_c, 0, 67, 108
1, 91825, Control_c, 0, 64, 82
1, 91825, Control_c, 0, 67, 127
1, 91840, Control_c, 0, 64, 90
1, 91855, Control_c, 0, 64, 104
1, 91869, Control_c, 0, 64, 127
1, 91989, Note_off_c, 0, 32, 40
1, 92572, Note_off_c, 0, 66, 33
1, 92627, Note_off_c, 0, 44, 34
1, 93062, Note_off_c, 0, 60, 36
1, 93199, Note_on_c, 0, 67, 44
1, 93203, Note_on_c, 0, 31, 25
1, 93205, Note_on_c, 0, 59, 43
1, 93211, Note_on_c, 0, 43, 15
1, 93249, Control_c, 0, 64, 115
1, 93264, Control_c, 0, 64, 97
1, 93279, Control_c, 0, 64, 86
1, 93294, Control_c, 0, 64, 78
1, 93309, Control_c, 0, 64, 71
1, 93323, Control_c, 0, 64, 65
1, 93338, Control_c, 0, 64, 59
1, 93353, Control_c, 0, 64, 52
1, 93368, Control_c, 0, 64, 47
1, 93383, Control_c, 0, 64, 44
1, 93397, Control_c, 0, 64, 41
1, 93412, Control_c, 0, 64, 39
1, 93427, Control_c, 0, 64, 34
1, 93441, Control_c, 0, 64, 29
1, 93456, Control_c, 0, 64, 26
1, 93471, Control_c, 0, 64, 21
1, 93486, Control_c, 0, 64, 15
1, 93501, Control_c, 0, 64, 12
1, 93515, Control_c, 0, 64, 10
1, 93575, Control_c, 0, 64, 12
1, 93589, Control_c, 0, 64, 22
1, 93604, Control_c, 0, 64, 34
1, 93619, Control_c, 0, 64, 45
1, 93634, Control_c, 0, 64, 52
1, 93649, Control_c, 0, 64, 57
1, 93664, Control_c, 0, 64, 60
1, 93679, Control_c, 0, 64, 62
1, 93694, Control_c, 0, 64, 64
1, 93709, Control_c, 0, 64, 65
1, 93723, Control_c, 0, 64, 67
1, 93738, Control_c, 0, 64, 69
1, 93753, Control_c, 0, 64, 72
1, 93768, Control_c, 0, 64, 76
1, 93783, Control_c, 0, 64, 79
1, 93804, Control_c, 0, 64, 84
1, 93819, Control_c, 0, 64, 88
1, 93834, Control_c, 0, 64, 94
1, 93849, Control_c, 0, 64, 100
1, 93864, Control_c, 0, 64, 108
1, 93879, Control_c, 0, 64, 112
1, 93893, Control_c, 0, 64, 115
1, 93908, Control_c, 0, 64, 116
1, 94161, Control_c, 0, 64, 117
1, 94176, Control_c, 0, 64, 118
1, 94191, Control_c, 0, 64, 119
1, 94206, Control_c, 0, 64, 123
1, 94235, Control_c, 0, 64, 127
1, 94850, Control_c, 0, 64, 123
1, 94865, Control_c, 0, 64, 121
1, 94910, Control_c, 0, 64, 119
1, 94925, Control_c, 0, 64, 117
1, 94940, Control_c, 0, 64, 115
1, 94955, Control_c, 0, 64, 115
1, 94999, Control_c, 0, 64, 114
1, 95014, Control_c, 0, 64, 111
1, 95028, Control_c, 0, 64, 109
1, 95102, Control_c, 0, 64, 109
1, 95176, Control_c, 0, 64, 108
1, 95220, Note_off_c, 0, 31, 40
1, 95220, Control_c, 0, 64, 109
1, 95225, Note_off_c, 0, 43, 26
1, 95235, Control_c, 0, 64, 110
1, 95311, Note_off_c, 0, 59, 42
1, 95362, Control_c, 0, 64, 109
1, 95376, Control_c, 0, 64, 108
1, 95385, Note_off_c, 0, 67, 42
1, 95391, Control_c, 0, 64, 107
1, 95406, Control_c, 0, 64, 105
1, 95420, Control_c, 0, 64, 103
1, 95435, Control_c, 0, 64, 98
1, 95450, Control_c, 0, 64, 90
1, 95465, Control_c, 0, 64, 82
1, 95480, Control_c, 0, 64, 76
1, 95494, Control_c, 0, 64, 71
1, 95494, Control_c, 0, 67, 117
1, 95509, Control_c, 0, 64, 67
1, 95509, Control_c, 0, 67, 103
1, 95524, Control_c, 0, 64, 65
1, 95524, Control_c, 0, 67, 90
1, 95539, Control_c, 0, 64, 64
1, 95539, Control_c, 0, 67, 79
1, 95554, Control_c, 0, 64, 63
1, 95554, Control_c, 0, 67, 65
1, 95569, Control_c, 0, 64, 62
1, 95569, Control_c, 0, 67, 52
1, 95584, Control_c, 0, 64, 61
1, 95584, Control_c, 0, 67, 39
1, 95599, Control_c, 0, 64, 60
1, 95599, Control_c, 0, 67, 30
1, 95613, Control_c, 0, 64, 59
1, 95613, Control_c, 0, 67, 20
1, 95628, Control_c, 0, 64, 57
1, 95628, Control_c, 0, 67, 12
1, 95643, Control_c, 0, 64, 55
1, 95643, Control_c, 0, 67, 0
1, 95658, Control_c, 0, 64, 54
1, 95673, Control_c, 0, 64, 54
1, 95688, Control_c, 0, 64, 53
1, 95926, Control_c, 0, 64, 54
1, 96230, Control_c, 0, 67, 34
1, 96244, Control_c, 0, 67, 110
1, 96259, Control_c, 0, 67, 127
1, 96289, Control_c, 0, 64, 54
1, 96420, Note_on_c, 0, 79, 63
1, 96422, Control_c, 0, 64, 55
1, 96447, Note_off_c, 0, 79, 68
1, 96449, Note_on_c, 0, 76, 74
1, 96452, Note_on_c, 0, 60, 56
1, 96454, Note_on_c, 0, 64, 52
1, 96474, Note_off_c, 0, 76, 68
1, 96477, Note_off_c, 0, 64, 59
1, 96481, Note_off_c, 0, 60, 65
1, 96482, Control_c, 0, 64, 54
1, 96615, Control_c, 0, 64, 54
1, 96652, Note_on_c, 0, 79, 54
1, 96681, Note_on_c, 0, 55, 47
1, 96686, Note_on_c, 0, 74, 63
1, 96688, Note_off_c, 0, 79, 67
1, 96689, Control_c, 0, 64, 53
1, 96704, Control_c, 0, 64, 53
1, 96716, Note_off_c, 0, 74, 66
1, 96719, Control_c, 0, 64, 52
1, 96726, Note_off_c, 0, 55, 63
1, 96734, Control_c, 0, 64, 51
1, 96748, Control_c, 0, 64, 51
1, 96763, Control_c, 0, 64, 50
1, 96778, Control_c, 0, 64, 49
1, 96800, Control_c, 0, 64, 47
1, 96815, Control_c, 0, 64, 44
1, 96830, Control_c, 0, 64, 42
1, 96845, Control_c, 0, 64, 40
1, 96859, Control_c, 0, 64, 39
1, 96874, Control_c, 0, 64, 38
1, 96889, Control_c, 0, 64, 37
1, 96904, Control_c, 0, 64, 36
1, 96919, Control_c, 0, 64, 34
1, 96923, Note_on_c, 0, 79, 44
1, 96934, Control_c, 0, 64, 33
1, 96948, Control_c, 0, 64, 31
1, 96949, Note_on_c, 0, 72, 65
1, 96951, Note_off_c, 0, 79, 61
1, 96957, Note_on_c, 0, 52, 33
1, 96960, Note_on_c, 0, 60, 37
1, 96963, Control_c, 0, 64, 29
1, 96978, Note_off_c, 0, 72, 67
1, 96978, Control_c, 0, 64, 28
1, 96993, Control_c, 0, 64, 27
1, 97008, Control_c, 0, 64, 26
1, 97022, Control_c, 0, 64, 26
1, 97155, Note_off_c, 0, 60, 64
1, 97155, Note_off_c, 0, 52, 60
1, 97173, Note_on_c, 0, 79, 31
1, 97201, Note_on_c, 0, 67, 46
1, 97206, Note_off_c, 0, 79, 51
1, 97226, Note_off_c, 0, 67, 57
1, 97275, Control_c, 0, 64, 26
1, 97304, Control_c, 0, 64, 27
1, 97334, Control_c, 0, 64, 28
1, 97363, Control_c, 0, 64, 28
1, 97378, Control_c, 0, 64, 29
1, 97393, Control_c, 0, 64, 29
1, 97408, Control_c, 0, 64, 30
1, 97423, Control_c, 0, 64, 31
1, 97438, Note_on_c, 0, 76, 77
1, 97438, Control_c, 0, 64, 31
1, 97453, Control_c, 0, 64, 32
1, 97454, Note_on_c, 0, 60, 54
1, 97454, Note_on_c, 0, 64, 71
1, 97462, Note_off_c, 0, 76, 70
1, 97476, Note_off_c, 0, 60, 59
1, 97480, Note_off_c, 0, 64, 68
1, 97512, Control_c, 0, 64, 32
1, 97664, Note_on_c, 0, 79, 64
1, 97691, Note_on_c, 0, 74, 75
1, 97692, Note_off_c, 0, 79, 68
1, 97697, Note_on_c, 0, 55, 52
1, 97704, Note_on_c, 0, 62, 50
1, 97714, Note_off_c, 0, 74, 69
1, 97724, Note_off_c, 0, 55, 62
1, 97730, Note_off_c, 0, 62, 59
1, 97907, Note_on_c, 0, 79, 68
1, 97941, Note_on_c, 0, 72, 71
1, 97942, Note_on_c, 0, 60, 71
1, 97947, Note_off_c, 0, 79, 67
1, 97948, Note_on_c, 0, 52, 56
1, 97966, Note_off_c, 0, 72, 69
1, 97993, Control_c, 0, 64, 33
1, 98039, Control_c, 0, 64, 33
1, 98142, Note_off_c, 0, 52, 65
1, 98143, Note_on_c, 0, 79, 67
1, 98159, Note_off_c, 0, 60, 65
1, 98174, Note_on_c, 0, 67, 75
1, 98174, Note_off_c, 0, 79, 67
1, 98198, Note_off_c, 0, 67, 69
1, 98246, Control_c, 0, 64, 34
1, 98246, Control_c, 0, 67, 102
1, 98260, Control_c, 0, 67, 51
1, 98275, Control_c, 0, 67, 0
1, 98401, Control_c, 0, 64, 34
1, 98419, Note_on_c, 0, 84, 62
1, 98434, Note_on_c, 0, 60, 51
1, 98436, Note_on_c, 0, 79, 67
1, 98438, Note_on_c, 0, 64, 57
1, 98448, Note_off_c, 0, 84, 66
1, 98462, Note_off_c, 0, 79, 68
1, 98465, Note_off_c, 0, 60, 64
1, 98468, Note_off_c, 0, 64, 64
1, 98565, Control_c, 0, 64, 35
1, 98594, Control_c, 0, 64, 35
1, 98664, Note_on_c, 0, 84, 58
1, 98681, Note_on_c, 0, 60, 53
1, 98683, Note_on_c, 0, 81, 72
1, 98690, Note_off_c, 0, 84, 65
1, 98694, Note_on_c, 0, 65, 53
1, 98705, Note_off_c, 0, 81, 70
1, 98713, Note_off_c, 0, 60, 65
1, 98717, Note_off_c, 0, 65, 61
1, 98941, Note_on_c, 0, 84, 66
1, 98943, Note_on_c, 0, 60, 42
1, 98944, Note_on_c, 0, 82, 72
1, 98954, Note_on_c, 0, 67, 57
1, 98971, Note_off_c, 0, 84, 67
1, 98976, Note_off_c, 0, 60, 61
1, 98982, Note_off_c, 0, 82, 67
1, 98985, Note_off_c, 0, 67, 65
1, 99187, Note_on_c, 0, 84, 62
1, 99208, Note_on_c, 0, 60, 44
1, 99213, Note_on_c, 0, 81, 80
1, 99216, Note_off_c, 0, 84, 67
1, 99221, Note_on_c, 0, 69, 59
1, 99241, Note_off_c, 0, 60, 63
1, 99244, Note_off_c, 0, 69, 61
1, 99248, Note_off_c, 0, 81, 65
1, 99419, Note_on_c, 0, 84, 64
1, 99447, Note_on_c, 0, 60, 54
1, 99456, Note_off_c, 0, 84, 62
1, 99462, Note_on_c, 0, 79, 76
1, 99468, Note_on_c, 0, 70, 58
1, 99486, Note_off_c, 0, 79, 71
1, 99492, Note_off_c, 0, 60, 62
1, 99498, Note_off_c, 0, 70, 67
1, 99675, Note_on_c, 0, 84, 62
1, 99696, Note_on_c, 0, 60, 43
1, 99705, Note_off_c, 0, 84, 66
1, 99723, Note_on_c, 0, 70, 44
1, 99724, Note_on_c, 0, 76, 70
1, 99725, Note_off_c, 0, 60, 55
1, 99748, Note_off_c, 0, 70, 59
1, 99754, Note_off_c, 0, 76, 68
1, 99917, Note_on_c, 0, 84, 64
1, 99951, Note_off_c, 0, 84, 62
1, 99980, Note_on_c, 0, 65, 41
1, 99986, Note_on_c, 0, 77, 64
1, 99988, Note_on_c, 0, 69, 31
1, 100024, Note_off_c, 0, 77, 62
1, 100059, Note_on_c, 0, 84, 58
1, 100091, Note_off_c, 0, 84, 66
1, 100103, Note_on_c, 0, 86, 68
1, 100142, Note_off_c, 0, 69, 53
1, 100152, Note_off_c, 0, 65, 56
1, 100171, Note_on_c, 0, 84, 60
1, 100177, Note_off_c, 0, 86, 58
1, 100224, Note_off_c, 0, 84, 60
1, 100236, Note_on_c, 0, 82, 62
1, 100297, Note_off_c, 0, 82, 62
1, 100303, Note_on_c, 0, 81, 55
1, 100334, Note_off_c, 0, 81, 67
1, 100351, Note_on_c, 0, 79, 61
1, 100389, Note_off_c, 0, 79, 60
1, 100419, Note_on_c, 0, 77, 64
1, 100451, Note_off_c, 0, 77, 65
1, 100484, Note_on_c, 0, 60, 44
1, 100488, Note_on_c, 0, 76, 58
1, 100489, Note_on_c, 0, 70, 42
1, 100536, Note_off_c, 0, 76, 62
1, 100559, Note_on_c, 0, 79, 61
1, 100603, Note_off_c, 0, 70, 63
1, 100604, Note_off_c, 0, 79, 62
1, 100624, Note_on_c, 0, 82, 59
1, 100640, Note_off_c, 0, 60, 54
1, 100667, Note_off_c, 0, 82, 66
1, 100684, Note_on_c, 0, 86, 66
1, 100754, Note_off_c, 0, 86, 63
1, 100757, Note_on_c, 0, 84, 63
1, 100803, Note_off_c, 0, 84, 63
1, 100817, Note_on_c, 0, 82, 65
1, 100881, Note_off_c, 0, 82, 65
1, 100891, Note_on_c, 0, 81, 53
1, 100914, Note_off_c, 0, 81, 63
1, 100949, Note_on_c, 0, 79, 58
1, 100997, Note_off_c, 0, 79, 59
1, 101021, Note_on_c, 0, 77, 58
1, 101030, Note_on_c, 0, 62, 40
1, 101036, Note_on_c, 0, 69, 40
1, 101058, Note_off_c, 0, 77, 65
1, 101082, Note_on_c, 0, 76, 61
1, 101126, Note_off_c, 0, 76, 60
1, 101149, Note_on_c, 0, 77, 72
1, 101180, Control_c, 0, 64, 36
1, 101206, Note_off_c, 0, 69, 62
1, 101210, Control_c, 0, 64, 36
1, 101213, Note_on_c, 0, 79, 61
1, 101214, Note_off_c, 0, 77, 55
1, 101261, Note_off_c, 0, 62, 57
1, 101280, Note_on_c, 0, 81, 76
1, 101285, Note_off_c, 0, 79, 65
1, 101347, Note_on_c, 0, 77, 65
1, 101347, Note_off_c, 0, 81, 64
1, 101396, Note_off_c, 0, 77, 58
1, 101406, Note_on_c, 0, 76, 60
1, 101442, Note_off_c, 0, 76, 66
1, 101477, Note_on_c, 0, 74, 55
1, 101519, Note_off_c, 0, 74, 63
1, 101545, Note_on_c, 0, 73, 60
1, 101561, Note_on_c, 0, 57, 47
1, 101569, Note_on_c, 0, 67, 44
1, 101578, Note_off_c, 0, 73, 67
1, 101622, Note_on_c, 0, 76, 64
1, 101668, Note_on_c, 0, 79, 65
1, 101677, Note_off_c, 0, 76, 61
1, 101734, Note_off_c, 0, 79, 66
1, 101738, Note_on_c, 0, 82, 79
1, 101753, Note_off_c, 0, 67, 59
1, 101761, Note_off_c, 0, 57, 62
1, 101797, Note_off_c, 0, 82, 67
1, 101808, Note_on_c, 0, 81, 68
1, 101882, Note_off_c, 0, 81, 63
1, 101884, Note_on_c, 0, 79, 76
1, 101950, Note_on_c, 0, 77, 77
1, 101954, Note_off_c, 0, 79, 62
1, 101993, Note_off_c, 0, 77, 63
1, 102020, Note_on_c, 0, 76, 69
1, 102080, Note_off_c, 0, 76, 63
1, 102088, Note_on_c, 0, 65, 50
1, 102090, Note_on_c, 0, 58, 44
1, 102094, Note_on_c, 0, 74, 67
1, 102135, Note_off_c, 0, 74, 56
1, 102164, Note_on_c, 0, 76, 76
1, 102223, Note_on_c, 0, 77, 75
1, 102238, Note_off_c, 0, 76, 58
1, 102285, Note_off_c, 0, 77, 63
1, 102286, Note_off_c, 0, 65, 59
1, 102288, Note_on_c, 0, 79, 81
1, 102309, Note_off_c, 0, 58, 60
1, 102365, Note_off_c, 0, 79, 63
1, 102366, Note_on_c, 0, 77, 75
1, 102424, Note_on_c, 0, 74, 69
1, 102428, Note_off_c, 0, 77, 63
1, 102459, Note_off_c, 0, 74, 65
1, 102490, Note_on_c, 0, 72, 66
1, 102529, Note_off_c, 0, 72, 54
1, 102549, Note_on_c, 0, 70, 74
1, 102589, Note_off_c, 0, 70, 63
1, 102614, Note_on_c, 0, 53, 56
1, 102615, Note_on_c, 0, 63, 59
1, 102619, Note_on_c, 0, 69, 79
1, 102672, Note_off_c, 0, 69, 63
1, 102681, Note_on_c, 0, 72, 78
1, 102692, Control_c, 0, 64, 36
1, 102707, Control_c, 0, 64, 35
1, 102742, Note_off_c, 0, 72, 62
1, 102744, Note_on_c, 0, 75, 81
1, 102766, Control_c, 0, 64, 35
1, 102787, Note_on_c, 0, 76, 51
1, 102788, Control_c, 0, 64, 35
1, 102806, Note_off_c, 0, 63, 61
1, 102810, Note_off_c, 0, 75, 63
1, 102814, Note_on_c, 0, 79, 83
1, 102819, Note_off_c, 0, 76, 66
1, 102822, Note_off_c, 0, 53, 62
1, 102834, Control_c, 0, 64, 35
1, 102849, Control_c, 0, 64, 35
1, 102890, Note_on_c, 0, 77, 79
1, 102920, Note_off_c, 0, 79, 65
1, 102952, Note_on_c, 0, 75, 82
1, 102975, Note_off_c, 0, 77, 61
1, 103024, Note_on_c, 0, 74, 79
1, 103033, Note_off_c, 0, 75, 62
1, 103075, Note_off_c, 0, 74, 62
1, 103084, Note_on_c, 0, 72, 78
1, 103142, Note_off_c, 0, 72, 63
1, 103143, Note_on_c, 0, 70, 84
1, 103158, Note_on_c, 0, 55, 61
1, 103166, Note_on_c, 0, 62, 64
1, 103205, Note_off_c, 0, 70, 65
1, 103206, Note_on_c, 0, 69, 82
1, 103270, Note_on_c, 0, 70, 84
1, 103286, Note_off_c, 0, 69, 62
1, 103337, Note_off_c, 0, 70, 65
1, 103345, Note_on_c, 0, 72, 80
1, 103349, Note_off_c, 0, 62, 60
1, 103391, Note_off_c, 0, 55, 63
1, 103400, Note_on_c, 0, 74, 86
1, 103417, Note_off_c, 0, 72, 65
1, 103466, Note_on_c, 0, 70, 83
1, 103479, Note_off_c, 0, 74, 62
1, 103538, Control_c, 0, 64, 35
1, 103542, Note_on_c, 0, 69, 70
1, 103546, Note_off_c, 0, 70, 63
1, 103573, Note_off_c, 0, 69, 64
1, 103597, Note_on_c, 0, 67, 76
1, 103646, Note_off_c, 0, 67, 62
1, 103668, Note_on_c, 0, 60, 73
1, 103671, Note_on_c, 0, 50, 65
1, 103671, Note_on_c, 0, 66, 78
1, 103718, Note_off_c, 0, 66, 60
1, 103742, Note_on_c, 0, 69, 88
1, 103795, Note_off_c, 0, 69, 63
1, 103801, Note_off_c, 0, 60, 57
1, 103808, Note_on_c, 0, 72, 74
1, 103856, Note_on_c, 0, 75, 77
1, 103862, Note_off_c, 0, 72, 61
1, 103862, Note_off_c, 0, 50, 60
1, 103923, Note_off_c, 0, 75, 66
1, 103929, Note_on_c, 0, 74, 78
1, 104003, Note_on_c, 0, 72, 76
1, 104012, Note_off_c, 0, 74, 62
1, 104066, Note_on_c, 0, 70, 80
1, 104074, Note_off_c, 0, 72, 65
1, 104116, Note_off_c, 0, 70, 64
1, 104121, Note_on_c, 0, 69, 87
1, 104176, Control_c, 0, 64, 34
1, 104180, Note_off_c, 0, 69, 64
1, 104187, Note_on_c, 0, 51, 73
1, 104188, Note_on_c, 0, 67, 82
1, 104191, Control_c, 0, 64, 33
1, 104205, Control_c, 0, 64, 32
1, 104210, Note_off_c, 0, 67, 70
1, 104220, Control_c, 0, 64, 31
1, 104228, Note_off_c, 0, 51, 64
1, 104235, Control_c, 0, 64, 31
1, 104245, Note_on_c, 0, 55, 77
1, 104264, Control_c, 0, 64, 30
1, 104302, Control_c, 0, 64, 29
1, 104317, Control_c, 0, 64, 29
1, 104319, Note_on_c, 0, 51, 81
1, 104326, Note_off_c, 0, 55, 63
1, 104331, Control_c, 0, 64, 28
1, 104346, Control_c, 0, 64, 28
1, 104361, Control_c, 0, 64, 27
1, 104371, Note_off_c, 0, 51, 64
1, 104376, Control_c, 0, 64, 26
1, 104378, Note_on_c, 0, 55, 76
1, 104391, Control_c, 0, 64, 20
1, 104405, Control_c, 0, 64, 14
1, 104420, Control_c, 0, 64, 8
1, 104436, Control_c, 0, 64, 0
1, 104455, Note_off_c, 0, 55, 60
1, 104458, Note_on_c, 0, 51, 80
1, 104464, Note_on_c, 0, 70, 102
1, 104464, Note_on_c, 0, 82, 98
1, 104496, Control_c, 0, 64, 8
1, 104510, Control_c, 0, 64, 18
1, 104511, Note_off_c, 0, 51, 63
1, 104523, Note_on_c, 0, 55, 71
1, 104525, Control_c, 0, 64, 22
1, 104540, Control_c, 0, 64, 24
1, 104584, Control_c, 0, 64, 23
1, 104595, Note_off_c, 0, 55, 62
1, 104599, Note_on_c, 0, 51, 70
1, 104599, Control_c, 0, 64, 19
1, 104614, Control_c, 0, 64, 17
1, 104640, Note_off_c, 0, 51, 64
1, 104655, Note_on_c, 0, 55, 64
1, 104726, Note_off_c, 0, 55, 62
1, 104732, Note_on_c, 0, 51, 76
1, 104779, Note_off_c, 0, 51, 63
1, 104784, Note_on_c, 0, 55, 70
1, 104854, Note_off_c, 0, 55, 62
1, 104865, Note_on_c, 0, 51, 75
1, 104881, Note_off_c, 0, 82, 63
1, 104888, Note_off_c, 0, 70, 59
1, 104905, Note_off_c, 0, 51, 64
1, 104918, Note_on_c, 0, 55, 72
1, 104965, Note_on_c, 0, 81, 93
1, 104969, Note_on_c, 0, 69, 97
1, 104983, Note_off_c, 0, 55, 62
1, 104988, Note_on_c, 0, 51, 75
1, 105029, Note_off_c, 0, 51, 66
1, 105052, Note_on_c, 0, 55, 71
1, 105118, Note_off_c, 0, 55, 62
1, 105127, Note_on_c, 0, 51, 71
1, 105158, Note_off_c, 0, 51, 66
1, 105161, Note_off_c, 0, 81, 59
1, 105167, Note_off_c, 0, 69, 61
1, 105176, Note_on_c, 0, 55, 73
1, 105233, Note_on_c, 0, 79, 92
1, 105239, Note_off_c, 0, 55, 62
1, 105239, Note_on_c, 0, 67, 87
1, 105244, Note_on_c, 0, 51, 68
1, 105282, Note_off_c, 0, 51, 65
1, 105285, Note_off_c, 0, 79, 68
1, 105289, Note_off_c, 0, 67, 64
1, 105304, Note_on_c, 0, 55, 72
1, 105359, Note_off_c, 0, 55, 61
1, 105376, Note_on_c, 0, 51, 65
1, 105408, Note_off_c, 0, 51, 65
1, 105427, Note_on_c, 0, 55, 70
1, 105451, Control_c, 0, 64, 18
1, 105476, Note_off_c, 0, 55, 57
1, 105490, Note_on_c, 0, 51, 65
1, 105492, Note_on_c, 0, 75, 94
1, 105499, Note_on_c, 0, 63, 80
1, 105510, Control_c, 0, 64, 19
1, 105528, Note_off_c, 0, 51, 66
1, 105540, Control_c, 0, 64, 20
1, 105549, Note_off_c, 0, 63, 57
1, 105553, Note_on_c, 0, 55, 69
1, 105578, Note_off_c, 0, 75, 54
1, 105599, Note_off_c, 0, 55, 58
1, 105615, Note_on_c, 0, 51, 64
1, 105629, Control_c, 0, 64, 21
1, 105648, Note_off_c, 0, 51, 64
1, 105680, Note_on_c, 0, 55, 66
1, 105703, Control_c, 0, 64, 22
1, 105723, Note_off_c, 0, 55, 57
1, 105738, Note_on_c, 0, 51, 59
1, 105748, Note_on_c, 0, 74, 87
1, 105759, Note_on_c, 0, 62, 74
1, 105782, Note_off_c, 0, 51, 65
1, 105784, Control_c, 0, 64, 23
1, 105810, Note_off_c, 0, 74, 64
1, 105811, Note_off_c, 0, 62, 57
1, 105814, Control_c, 0, 64, 24
1, 105818, Note_on_c, 0, 55, 59
1, 105864, Note_off_c, 0, 55, 55
1, 105877, Note_on_c, 0, 51, 53
1, 105889, Control_c, 0, 64, 24
1, 105903, Control_c, 0, 64, 28
1, 105912, Note_off_c, 0, 51, 64
1, 105918, Control_c, 0, 64, 33
1, 105933, Control_c, 0, 64, 37
1, 105948, Control_c, 0, 64, 41
1, 105951, Note_on_c, 0, 55, 48
1, 105963, Control_c, 0, 64, 44
1, 105977, Control_c, 0, 64, 47
1, 105982, Note_off_c, 0, 55, 53
1, 105992, Control_c, 0, 64, 50
1, 106004, Note_on_c, 0, 51, 59
1, 106007, Control_c, 0, 64, 54
1, 106014, Note_on_c, 0, 73, 84
1, 106016, Note_on_c, 0, 61, 63
1, 106022, Control_c, 0, 64, 57
1, 106038, Control_c, 0, 64, 59
1, 106043, Note_off_c, 0, 61, 62
1, 106053, Control_c, 0, 64, 60
1, 106057, Note_off_c, 0, 51, 62
1, 106063, Note_off_c, 0, 73, 65
1, 106071, Note_on_c, 0, 55, 55
1, 106097, Control_c, 0, 64, 60
1, 106118, Note_off_c, 0, 55, 62
1, 106141, Control_c, 0, 64, 59
1, 106163, Note_on_c, 0, 51, 53
1, 106188, Note_off_c, 0, 51, 59
1, 106211, Note_on_c, 0, 55, 55
1, 106215, Control_c, 0, 64, 58
1, 106230, Control_c, 0, 64, 58
1, 106245, Control_c, 0, 64, 56
1, 106260, Control_c, 0, 64, 55
1, 106261, Note_off_c, 0, 55, 61
1, 106274, Control_c, 0, 64, 54
1, 106289, Control_c, 0, 64, 53
1, 106304, Control_c, 0, 64, 52
1, 106315, Note_on_c, 0, 54, 41
1, 106318, Control_c, 0, 64, 51
1, 106321, Note_on_c, 0, 50, 46
1, 106335, Note_on_c, 0, 74, 62
1, 106348, Control_c, 0, 64, 51
1, 106378, Control_c, 0, 64, 50
1, 106497, Control_c, 0, 64, 50
1, 106509, Note_on_c, 0, 86, 64
1, 106509, Note_off_c, 0, 74, 44
1, 106631, Note_off_c, 0, 86, 60
1, 106634, Note_on_c, 0, 85, 64
1, 106729, Note_off_c, 0, 85, 60
1, 106744, Note_on_c, 0, 88, 68
1, 106874, Note_on_c, 0, 86, 66
1, 106967, Note_off_c, 0, 54, 51
1, 106977, Note_on_c, 0, 55, 49
1, 106982, Note_on_c, 0, 82, 64
1, 106984, Note_off_c, 0, 86, 55
1, 107080, Note_off_c, 0, 82, 63
1, 107102, Note_on_c, 0, 54, 46
1, 107103, Note_off_c, 0, 55, 54
1, 107114, Note_on_c, 0, 81, 66
1, 107167, Note_off_c, 0, 88, 7
1, 107196, Note_off_c, 0, 54, 60
1, 107216, Note_off_c, 0, 81, 59
1, 107225, Note_on_c, 0, 84, 75
1, 107233, Note_on_c, 0, 57, 58
1, 107352, Note_off_c, 0, 57, 60
1, 107364, Note_on_c, 0, 82, 85
1, 107366, Note_on_c, 0, 55, 63
1, 107374, Note_off_c, 0, 84, 63
1, 107448, Note_off_c, 0, 82, 66
1, 107454, Note_off_c, 0, 50, 0
1, 107469, Note_off_c, 0, 55, 63
1, 107482, Note_on_c, 0, 50, 16
1, 107483, Note_on_c, 0, 79, 82
1, 107486, Note_on_c, 0, 58, 74
1, 107504, Control_c, 0, 64, 50
1, 107549, Note_off_c, 0, 58, 62
1, 107597, Note_on_c, 0, 57, 70
1, 107601, Note_on_c, 0, 78, 81
1, 107618, Note_off_c, 0, 79, 58
1, 107698, Note_off_c, 0, 78, 63
1, 107701, Note_off_c, 0, 57, 64
1, 107709, Note_on_c, 0, 60, 70
1, 107722, Note_on_c, 0, 81, 82
1, 107800, Note_off_c, 0, 60, 57
1, 107841, Note_on_c, 0, 58, 66
1, 107855, Note_on_c, 0, 79, 79
1, 107867, Note_off_c, 0, 81, 60
1, 107952, Note_off_c, 0, 79, 62
1, 107972, Note_on_c, 0, 75, 75
1, 108080, Note_off_c, 0, 75, 60
1, 108092, Note_off_c, 0, 58, 61
1, 108097, Note_on_c, 0, 55, 54
1, 108109, Note_on_c, 0, 74, 57
1, 108196, Note_off_c, 0, 74, 57
1, 108217, Note_on_c, 0, 73, 61
1, 108307, Note_off_c, 0, 73, 64
1, 108362, Note_on_c, 0, 74, 59
1, 108372, Note_on_c, 0, 54, 45
1, 108381, Note_off_c, 0, 55, 55
1, 108448, Note_off_c, 0, 74, 55
1, 108521, Note_on_c, 0, 86, 56
1, 108588, Note_off_c, 0, 50, 56
1, 108625, Note_off_c, 0, 54, 63
1, 108631, Note_off_c, 0, 86, 57
1, 108656, Note_on_c, 0, 85, 52
1, 108765, Note_off_c, 0, 85, 50
1, 108796, Note_on_c, 0, 88, 46
1, 108905, Note_off_c, 0, 88, 58
1, 108926, Note_on_c, 0, 86, 53
1, 109034, Note_off_c, 0, 86, 49
1, 109051, Note_on_c, 0, 82, 47
1, 109051, Note_on_c, 0, 67, 44
1, 109138, Note_off_c, 0, 82, 62
1, 109148, Note_off_c, 0, 67, 53
1, 109177, Note_on_c, 0, 66, 33
1, 109182, Note_on_c, 0, 81, 46
1, 109232, Note_off_c, 0, 66, 55
1, 109276, Note_on_c, 0, 69, 41
1, 109281, Note_off_c, 0, 81, 57
1, 109296, Note_on_c, 0, 84, 71
1, 109370, Note_off_c, 0, 69, 58
1, 109416, Note_on_c, 0, 82, 83
1, 109419, Note_on_c, 0, 67, 54
1, 109426, Note_off_c, 0, 84, 61
1, 109433, Control_c, 0, 64, 51
1, 109495, Note_off_c, 0, 67, 63
1, 109501, Note_off_c, 0, 82, 65
1, 109528, Note_on_c, 0, 79, 86
1, 109530, Note_on_c, 0, 70, 71
1, 109606, Note_off_c, 0, 70, 60
1, 109647, Note_on_c, 0, 78, 88
1, 109656, Note_on_c, 0, 69, 71
1, 109662, Note_off_c, 0, 79, 59
1, 109754, Note_on_c, 0, 81, 86
1, 109754, Note_off_c, 0, 69, 62
1, 109759, Note_off_c, 0, 78, 60
1, 109766, Note_on_c, 0, 72, 74
1, 109779, Note_on_c, 0, 80, 52
1, 109801, Note_off_c, 0, 80, 61
1, 109821, Note_off_c, 0, 81, 66
1, 109865, Note_off_c, 0, 72, 57
1, 109877, Note_on_c, 0, 79, 84
1, 109883, Note_on_c, 0, 70, 74
1, 109992, Note_off_c, 0, 79, 54
1, 109993, Note_on_c, 0, 87, 94
1, 109998, Note_off_c, 0, 70, 62
1, 110003, Note_on_c, 0, 67, 71
1, 110099, Note_off_c, 0, 87, 57
1, 110101, Note_off_c, 0, 67, 61
1, 110110, Note_on_c, 0, 66, 70
1, 110119, Note_on_c, 0, 86, 81
1, 110211, Control_c, 0, 64, 50
1, 110226, Control_c, 0, 64, 50
1, 110238, Note_on_c, 0, 84, 96
1, 110238, Note_off_c, 0, 66, 52
1, 110238, Note_on_c, 0, 69, 72
1, 110247, Note_off_c, 0, 86, 64
1, 110308, Control_c, 0, 64, 49
1, 110361, Note_on_c, 0, 67, 75
1, 110365, Note_off_c, 0, 69, 63
1, 110379, Note_on_c, 0, 82, 87
1, 110394, Note_off_c, 0, 84, 58
1, 110437, Note_off_c, 0, 67, 61
1, 110482, Note_off_c, 0, 82, 64
1, 110493, Note_on_c, 0, 75, 80
1, 110502, Note_on_c, 0, 79, 81
1, 110582, Note_off_c, 0, 75, 53
1, 110613, Note_on_c, 0, 74, 64
1, 110619, Control_c, 0, 64, 50
1, 110630, Note_on_c, 0, 78, 79
1, 110632, Note_off_c, 0, 79, 64
1, 110648, Control_c, 0, 64, 50
1, 110663, Control_c, 0, 64, 51
1, 110692, Control_c, 0, 64, 51
1, 110729, Note_off_c, 0, 74, 61
1, 110735, Note_on_c, 0, 72, 68
1, 110740, Note_off_c, 0, 78, 61
1, 110746, Note_on_c, 0, 81, 70
1, 110780, Control_c, 0, 64, 52
1, 110829, Note_off_c, 0, 81, 63
1, 110865, Note_on_c, 0, 79, 62
1, 110883, Note_on_c, 0, 70, 46
1, 110938, Note_off_c, 0, 72, 37
1, 110980, Note_off_c, 0, 79, 53
1, 110984, Note_on_c, 0, 67, 49
1, 110984, Note_off_c, 0, 70, 64
1, 110987, Note_on_c, 0, 87, 68
1, 111083, Note_off_c, 0, 87, 57
1, 111105, Note_off_c, 0, 67, 58
1, 111125, Note_on_c, 0, 86, 62
1, 111126, Note_on_c, 0, 66, 45
1, 111214, Note_off_c, 0, 66, 57
1, 111238, Note_on_c, 0, 69, 51
1, 111244, Note_off_c, 0, 86, 60
1, 111258, Note_on_c, 0, 84, 59
1, 111308, Control_c, 0, 64, 52
1, 111327, Note_off_c, 0, 69, 55
1, 111352, Control_c, 0, 64, 53
1, 111353, Note_off_c, 0, 84, 63
1, 111357, Note_on_c, 0, 67, 50
1, 111374, Note_on_c, 0, 82, 54
1, 111382, Control_c, 0, 64, 53
1, 111424, Note_off_c, 0, 67, 58
1, 111446, Note_off_c, 0, 82, 65
1, 111490, Note_on_c, 0, 79, 59
1, 111492, Note_on_c, 0, 75, 67
1, 111570, Note_off_c, 0, 75, 59
1, 111584, Note_off_c, 0, 79, 50
1, 111612, Note_on_c, 0, 74, 55
1, 111621, Note_on_c, 0, 78, 58
1, 111709, Note_off_c, 0, 74, 61
1, 111709, Note_off_c, 0, 78, 62
1, 111734, Note_on_c, 0, 81, 53
1, 111738, Note_on_c, 0, 72, 50
1, 111838, Note_off_c, 0, 81, 59
1, 111857, Note_off_c, 0, 72, 59
1, 111871, Note_on_c, 0, 79, 54
1, 111883, Note_on_c, 0, 70, 42
1, 111949, Note_off_c, 0, 79, 55
1, 111995, Note_on_c, 0, 82, 51
1, 111999, Note_on_c, 0, 67, 42
1, 112018, Note_off_c, 0, 70, 38
1, 112072, Note_off_c, 0, 67, 59
1, 112074, Note_off_c, 0, 82, 59
1, 112123, Note_on_c, 0, 76, 50
1, 112128, Note_on_c, 0, 72, 40
1, 112211, Note_off_c, 0, 76, 49
1, 112232, Note_on_c, 0, 70, 52
1, 112234, Note_off_c, 0, 72, 38
1, 112238, Note_on_c, 0, 79, 58
1, 112315, Note_off_c, 0, 79, 50
1, 112337, Control_c, 0, 64, 54
1, 112352, Note_on_c, 0, 77, 60
1, 112354, Note_off_c, 0, 70, 59
1, 112362, Note_on_c, 0, 68, 53
1, 112397, Control_c, 0, 64, 54
1, 112461, Note_off_c, 0, 77, 62
1, 112468, Note_off_c, 0, 68, 57
1, 112472, Control_c, 0, 64, 55
1, 112475, Note_on_c, 0, 80, 71
1, 112484, Note_on_c, 0, 65, 55
1, 112487, Control_c, 0, 64, 55
1, 112502, Control_c, 0, 64, 56
1, 112539, Control_c, 0, 64, 56
1, 112563, Note_off_c, 0, 65, 60
1, 112563, Note_off_c, 0, 80, 63
1, 112583, Control_c, 0, 64, 57
1, 112601, Note_on_c, 0, 70, 59
1, 112607, Note_on_c, 0, 74, 69
1, 112657, Control_c, 0, 64, 57
1, 112713, Note_on_c, 0, 77, 75
1, 112713, Note_off_c, 0, 74, 58
1, 112716, Note_on_c, 0, 68, 59
1, 112718, Note_off_c, 0, 70, 51
1, 112819, Note_off_c, 0, 77, 53
1, 112826, Note_on_c, 0, 67, 55
1, 112827, Note_on_c, 0, 75, 79
1, 112828, Note_off_c, 0, 68, 48
1, 112924, Control_c, 0, 64, 57
1, 112924, Note_off_c, 0, 67, 62
1, 112950, Note_on_c, 0, 79, 74
1, 112953, Note_off_c, 0, 75, 59
1, 112956, Note_on_c, 0, 63, 48
1, 113051, Note_off_c, 0, 63, 50
1, 113069, Note_on_c, 0, 68, 57
1, 113076, Note_on_c, 0, 72, 75
1, 113141, Note_off_c, 0, 68, 59
1, 113174, Note_on_c, 0, 67, 58
1, 113185, Note_on_c, 0, 75, 78
1, 113195, Note_off_c, 0, 79, 46
1, 113198, Note_off_c, 0, 72, 59
1, 113310, Note_on_c, 0, 74, 73
1, 113314, Note_on_c, 0, 65, 58
1, 113314, Note_off_c, 0, 67, 57
1, 113318, Note_off_c, 0, 75, 56
1, 113418, Note_off_c, 0, 65, 64
1, 113429, Note_off_c, 0, 74, 61
1, 113430, Note_on_c, 0, 77, 77
1, 113439, Note_on_c, 0, 62, 58
1, 113531, Note_off_c, 0, 77, 60
1, 113534, Note_off_c, 0, 62, 60
1, 113538, Control_c, 0, 64, 56
1, 113556, Note_on_c, 0, 71, 80
1, 113562, Note_on_c, 0, 67, 62
1, 113661, Note_off_c, 0, 71, 61
1, 113663, Note_on_c, 0, 74, 81
1, 113672, Note_off_c, 0, 67, 54
1, 113674, Note_on_c, 0, 65, 60
1, 113702, Control_c, 0, 64, 56
1, 113775, Note_off_c, 0, 74, 59
1, 113794, Note_on_c, 0, 72, 85
1, 113796, Note_off_c, 0, 65, 60
1, 113806, Note_on_c, 0, 63, 63
1, 113908, Control_c, 0, 64, 55
1, 113916, Note_on_c, 0, 80, 93
1, 113933, Note_off_c, 0, 72, 52
1, 113934, Note_off_c, 0, 63, 62
1, 113954, Note_on_c, 0, 60, 61
1, 114047, Note_off_c, 0, 80, 58
1, 114054, Note_on_c, 0, 79, 79
1, 114065, Control_c, 0, 64, 55
1, 114080, Note_off_c, 0, 60, 63
1, 114080, Control_c, 0, 64, 54
1, 114082, Note_on_c, 0, 59, 67
1, 114110, Control_c, 0, 64, 54
1, 114125, Control_c, 0, 64, 53
1, 114140, Control_c, 0, 64, 53
1, 114169, Control_c, 0, 64, 52
1, 114188, Note_on_c, 0, 77, 82
1, 114188, Note_off_c, 0, 79, 62
1, 114194, Note_off_c, 0, 59, 61
1, 114199, Note_on_c, 0, 62, 67
1, 114199, Control_c, 0, 64, 52
1, 114228, Control_c, 0, 64, 51
1, 114273, Control_c, 0, 64, 51
1, 114283, Note_off_c, 0, 62, 61
1, 114297, Note_on_c, 0, 60, 72
1, 114307, Note_on_c, 0, 75, 80
1, 114317, Control_c, 0, 64, 50
1, 114329, Note_off_c, 0, 77, 58
1, 114387, Note_off_c, 0, 60, 65
1, 114391, Control_c, 0, 64, 50
1, 114410, Note_off_c, 0, 75, 61
1, 114431, Note_on_c, 0, 72, 76
1, 114432, Note_on_c, 0, 68, 83
1, 114481, Control_c, 0, 64, 50
1, 114553, Note_off_c, 0, 72, 53
1, 114554, Control_c, 0, 64, 51
1, 114556, Note_on_c, 0, 67, 64
1, 114564, Note_on_c, 0, 71, 67
1, 114569, Control_c, 0, 64, 51
1, 114578, Note_off_c, 0, 68, 32
1, 114652, Note_off_c, 0, 71, 60
1, 114662, Note_off_c, 0, 67, 61
1, 114673, Note_on_c, 0, 65, 62
1, 114676, Note_on_c, 0, 74, 66
1, 114763, Note_off_c, 0, 74, 63
1, 114806, Note_on_c, 0, 72, 57
1, 114816, Note_on_c, 0, 63, 53
1, 114856, Note_off_c, 0, 65, 37
1, 114918, Note_off_c, 0, 63, 62
1, 114928, Note_on_c, 0, 80, 63
1, 114930, Note_off_c, 0, 72, 33
1, 114946, Note_on_c, 0, 60, 23
1, 114986, Note_off_c, 0, 60, 30
1, 115010, Note_off_c, 0, 80, 60
1, 115025, Note_on_c, 0, 59, 54
1, 115059, Note_on_c, 0, 79, 54
1, 115091, Note_off_c, 0, 59, 56
1, 115150, Note_on_c, 0, 62, 42
1, 115156, Note_off_c, 0, 79, 63
1, 115171, Note_on_c, 0, 77, 59
1, 115243, Note_off_c, 0, 62, 56
1, 115289, Note_on_c, 0, 60, 43
1, 115293, Note_off_c, 0, 77, 61
1, 115312, Note_on_c, 0, 75, 45
1, 115372, Note_off_c, 0, 60, 55
1, 115389, Note_off_c, 0, 75, 61
1, 115420, Note_on_c, 0, 68, 55
1, 115439, Note_on_c, 0, 72, 47
1, 115542, Note_off_c, 0, 72, 51
1, 115556, Note_off_c, 0, 68, 46
1, 115574, Note_on_c, 0, 67, 47
1, 115593, Note_on_c, 0, 71, 55
1, 115688, Note_off_c, 0, 71, 58
1, 115727, Note_on_c, 0, 74, 47
1, 115735, Note_on_c, 0, 65, 44
1, 115742, Note_off_c, 0, 67, 40
1, 115851, Note_off_c, 0, 74, 59
1, 115900, Note_on_c, 0, 72, 34
1, 115909, Note_on_c, 0, 63, 38
1, 115939, Note_off_c, 0, 65, 34
1, 116038, Note_off_c, 0, 72, 43
1, 116050, Note_on_c, 0, 79, 42
1, 116075, Note_off_c, 0, 63, 46
1, 116200, Note_on_c, 0, 71, 37
1, 116239, Note_off_c, 0, 79, 31
1, 116286, Note_off_c, 0, 71, 57
1, 116317, Note_on_c, 0, 74, 45
1, 116320, Note_on_c, 0, 68, 46
1, 116341, Note_on_c, 0, 65, 28
1, 116385, Control_c, 0, 64, 52
1, 116392, Note_off_c, 0, 68, 57
1, 116433, Note_off_c, 0, 74, 62
1, 116437, Note_off_c, 0, 65, 55
1, 116445, Note_on_c, 0, 67, 48
1, 116452, Note_on_c, 0, 63, 44
1, 116462, Note_on_c, 0, 72, 58
1, 116554, Note_off_c, 0, 72, 57
1, 116571, Note_on_c, 0, 79, 66
1, 116610, Note_off_c, 0, 67, 56
1, 116648, Note_off_c, 0, 63, 60
1, 116683, Note_on_c, 0, 71, 73
1, 116789, Note_off_c, 0, 79, 55
1, 116795, Note_on_c, 0, 68, 72
1, 116797, Note_on_c, 0, 74, 75
1, 116799, Note_on_c, 0, 65, 59
1, 116805, Note_off_c, 0, 71, 60
1, 116906, Note_off_c, 0, 68, 60
1, 116924, Note_off_c, 0, 74, 62
1, 116925, Note_on_c, 0, 72, 76
1, 116928, Note_on_c, 0, 67, 73
1, 116941, Note_off_c, 0, 65, 61
1, 116945, Note_on_c, 0, 63, 57
1, 117046, Note_off_c, 0, 72, 57
1, 117052, Note_on_c, 0, 79, 76
1, 117127, Note_off_c, 0, 67, 58
1, 117149, Control_c, 0, 64, 52
1, 117161, Note_on_c, 0, 71, 65
1, 117161, Note_off_c, 0, 63, 60
1, 117164, Control_c, 0, 64, 55
1, 117179, Control_c, 0, 64, 57
1, 117194, Control_c, 0, 64, 58
1, 117242, Note_off_c, 0, 79, 49
1, 117254, Control_c, 0, 64, 57
1, 117269, Control_c, 0, 64, 56
1, 117279, Note_off_c, 0, 71, 59
1, 117284, Control_c, 0, 64, 55
1, 117287, Note_on_c, 0, 74, 65
1, 117291, Note_on_c, 0, 68, 68
1, 117296, Note_on_c, 0, 65, 59
1, 117313, Control_c, 0, 64, 55
1, 117387, Control_c, 0, 64, 54
1, 117402, Control_c, 0, 64, 54
1, 117405, Note_off_c, 0, 68, 61
1, 117417, Control_c, 0, 64, 53
1, 117431, Control_c, 0, 64, 53
1, 117442, Note_off_c, 0, 74, 57
1, 117446, Control_c, 0, 64, 52
1, 117460, Note_on_c, 0, 72, 57
1, 117460, Control_c, 0, 64, 51
1, 117475, Note_off_c, 0, 65, 61
1, 117475, Control_c, 0, 64, 50
1, 117476, Note_on_c, 0, 67, 62
1, 117490, Control_c, 0, 64, 50
1, 117491, Note_on_c, 0, 63, 50
1, 117579, Control_c, 0, 64, 52
1, 117594, Control_c, 0, 64, 56
1, 117609, Control_c, 0, 64, 60
1, 117616, Note_off_c, 0, 72, 60
1, 117623, Control_c, 0, 64, 63
1, 117624, Note_on_c, 0, 79, 50
1, 117638, Control_c, 0, 64, 65
1, 117653, Control_c, 0, 64, 67
1, 117668, Control_c, 0, 64, 70
1, 117683, Control_c, 0, 64, 74
1, 117697, Control_c, 0, 64, 81
1, 117712, Control_c, 0, 64, 92
1, 117727, Control_c, 0, 64, 108
1, 117742, Control_c, 0, 64, 127
1, 117756, Note_on_c, 0, 72, 55
1, 117818, Note_off_c, 0, 79, 57
1, 117863, Note_off_c, 0, 67, 39
1, 117876, Note_on_c, 0, 79, 48
1, 117904, Note_off_c, 0, 72, 35
1, 117985, Note_off_c, 0, 79, 58
1, 118015, Note_off_c, 0, 63, 32
1, 118016, Note_on_c, 0, 72, 51
1, 118086, Note_off_c, 0, 72, 55
1, 118119, Note_on_c, 0, 79, 54
1, 118211, Note_off_c, 0, 79, 56
1, 118258, Note_on_c, 0, 72, 40
1, 118343, Note_off_c, 0, 72, 55
1, 118374, Note_on_c, 0, 79, 51
1, 118444, Note_off_c, 0, 79, 52
1, 118509, Note_on_c, 0, 67, 37
1, 118519, Note_on_c, 0, 63, 35
1, 118522, Note_on_c, 0, 72, 51
1, 118572, Note_off_c, 0, 63, 58
1, 118585, Note_off_c, 0, 67, 49
1, 118615, Note_on_c, 0, 60, 46
1, 118622, Note_off_c, 0, 72, 37
1, 118650, Note_on_c, 0, 79, 55
1, 118656, Note_on_c, 0, 84, 51
1, 118704, Note_off_c, 0, 79, 58
1, 118722, Note_off_c, 0, 60, 37
1, 118744, Note_off_c, 0, 84, 51
1, 118775, Note_on_c, 0, 72, 53
1, 118780, Note_on_c, 0, 63, 30
1, 118787, Note_on_c, 0, 67, 47
1, 118846, Note_off_c, 0, 67, 53
1, 118848, Note_off_c, 0, 63, 57
1, 118865, Note_off_c, 0, 72, 60
1, 118877, Note_on_c, 0, 84, 78
1, 118887, Note_on_c, 0, 79, 61
1, 118891, Note_on_c, 0, 60, 52
1, 118972, Note_off_c, 0, 60, 50
1, 118989, Note_off_c, 0, 84, 62
1, 119011, Note_on_c, 0, 72, 74
1, 119022, Note_on_c, 0, 67, 61
1, 119025, Note_off_c, 0, 79, 32
1, 119026, Note_on_c, 0, 63, 55
1, 119103, Note_off_c, 0, 67, 49
1, 119103, Note_off_c, 0, 63, 60
1, 119118, Note_on_c, 0, 84, 89
1, 119123, Note_on_c, 0, 79, 78
1, 119125, Note_off_c, 0, 72, 43
1, 119130, Note_on_c, 0, 60, 57
1, 119203, Note_off_c, 0, 79, 63
1, 119221, Note_off_c, 0, 60, 55
1, 119227, Note_off_c, 0, 84, 63
1, 119258, Note_on_c, 0, 72, 76
1, 119281, Note_on_c, 0, 67, 60
1, 119287, Note_on_c, 0, 63, 61
1, 119324, Note_off_c, 0, 67, 54
1, 119335, Note_on_c, 0, 60, 15
1, 119350, Note_off_c, 0, 72, 56
1, 119371, Note_off_c, 0, 63, 58
1, 119371, Note_on_c, 0, 84, 87
1, 119376, Note_on_c, 0, 79, 66
1, 119378, Note_off_c, 0, 60, 49
1, 119405, Note_off_c, 0, 79, 66
1, 119436, Note_off_c, 0, 84, 62
1, 119616, Note_on_c, 0, 84, 94
1, 119634, Control_c, 0, 64, 98
1, 119636, Note_on_c, 0, 79, 67
1, 119648, Control_c, 0, 64, 80
1, 119651, Note_on_c, 0, 68, 53
1, 119663, Control_c, 0, 64, 67
1, 119678, Control_c, 0, 64, 52
1, 119693, Control_c, 0, 64, 31
1, 119708, Control_c, 0, 64, 27
1, 119723, Control_c, 0, 64, 30
1, 119738, Control_c, 0, 64, 38
1, 119750, Note_off_c, 0, 68, 54
1, 119753, Control_c, 0, 64, 45
1, 119768, Control_c, 0, 64, 49
1, 119778, Note_on_c, 0, 72, 44
1, 119782, Control_c, 0, 64, 51
1, 119797, Control_c, 0, 64, 54
1, 119812, Control_c, 0, 64, 57
1, 119826, Control_c, 0, 64, 59
1, 119841, Control_c, 0, 64, 60
1, 119856, Control_c, 0, 64, 59
1, 119871, Control_c, 0, 64, 58
1, 119885, Note_on_c, 0, 68, 55
1, 119886, Control_c, 0, 64, 56
1, 119891, Note_off_c, 0, 72, 53
1, 119900, Control_c, 0, 64, 56
1, 119915, Control_c, 0, 64, 55
1, 119930, Control_c, 0, 64, 54
1, 119973, Note_off_c, 0, 68, 58
1, 119982, Note_off_c, 0, 79, 56
1, 120029, Note_on_c, 0, 72, 53
1, 120038, Note_on_c, 0, 80, 58
1, 120079, Note_on_c, 0, 79, 67
1, 120084, Note_off_c, 0, 80, 63
1, 120115, Note_off_c, 0, 72, 50
1, 120129, Note_off_c, 0, 79, 64
1, 120137, Note_on_c, 0, 77, 84
1, 120142, Note_on_c, 0, 68, 60
1, 120174, Control_c, 0, 64, 54
1, 120180, Note_off_c, 0, 77, 64
1, 120204, Control_c, 0, 64, 53
1, 120219, Control_c, 0, 64, 53
1, 120228, Note_off_c, 0, 68, 61
1, 120233, Control_c, 0, 64, 52
1, 120243, Note_on_c, 0, 72, 66
1, 120307, Control_c, 0, 64, 52
1, 120322, Control_c, 0, 64, 51
1, 120337, Control_c, 0, 64, 50
1, 120352, Control_c, 0, 64, 49
1, 120355, Note_off_c, 0, 84, 62
1, 120367, Control_c, 0, 64, 49
1, 120386, Note_off_c, 0, 72, 53
1, 120390, Note_on_c, 0, 77, 93
1, 120402, Note_on_c, 0, 68, 69
1, 120445, Note_off_c, 0, 77, 63
1, 120471, Control_c, 0, 64, 50
1, 120493, Note_off_c, 0, 68, 58
1, 120511, Note_on_c, 0, 72, 65
1, 120704, Note_on_c, 0, 85, 92
1, 120712, Note_on_c, 0, 77, 75
1, 120717, Note_off_c, 0, 72, 57
1, 120721, Note_on_c, 0, 67, 53
1, 120723, Control_c, 0, 64, 50
1, 120738, Control_c, 0, 64, 54
1, 120760, Control_c, 0, 64, 59
1, 120775, Control_c, 0, 64, 63
1, 120790, Control_c, 0, 64, 67
1, 120805, Control_c, 0, 64, 73
1, 120820, Control_c, 0, 64, 86
1, 120835, Control_c, 0, 64, 127
1, 120856, Note_off_c, 0, 67, 47
1, 120882, Note_on_c, 0, 70, 55
1, 121019, Note_on_c, 0, 67, 50
1, 121030, Note_off_c, 0, 70, 36
1, 121070, Note_off_c, 0, 67, 61
1, 121122, Note_off_c, 0, 77, 61
1, 121137, Note_on_c, 0, 79, 62
1, 121140, Note_off_c, 0, 85, 58
1, 121207, Note_on_c, 0, 77, 54
1, 121211, Note_off_c, 0, 79, 62
1, 121237, Note_off_c, 0, 77, 64
1, 121249, Control_c, 0, 64, 101
1, 121261, Note_on_c, 0, 76, 67
1, 121264, Control_c, 0, 64, 82
1, 121275, Note_on_c, 0, 60, 56
1, 121279, Control_c, 0, 64, 69
1, 121291, Note_off_c, 0, 76, 67
1, 121294, Control_c, 0, 64, 60
1, 121309, Control_c, 0, 64, 46
1, 121324, Control_c, 0, 64, 41
1, 121365, Note_off_c, 0, 60, 60
1, 121368, Control_c, 0, 64, 42
1, 121385, Note_on_c, 0, 70, 55
1, 121412, Control_c, 0, 64, 41
1, 121481, Note_off_c, 0, 70, 41
1, 121504, Note_on_c, 0, 82, 53
1, 121510, Note_on_c, 0, 60, 52
1, 121521, Note_on_c, 0, 76, 55
1, 121538, Control_c, 0, 64, 42
1, 121598, Control_c, 0, 64, 42
1, 121603, Note_off_c, 0, 82, 54
1, 121627, Control_c, 0, 64, 43
1, 121628, Note_off_c, 0, 76, 60
1, 121633, Note_off_c, 0, 60, 37
1, 121634, Note_on_c, 0, 70, 48
1, 121640, Note_on_c, 0, 79, 58
1, 121642, Control_c, 0, 64, 44
1, 121701, Control_c, 0, 64, 44
1, 121714, Note_off_c, 0, 70, 59
1, 121714, Note_off_c, 0, 79, 64
1, 121731, Control_c, 0, 64, 45
1, 121746, Note_on_c, 0, 65, 53
1, 121746, Control_c, 0, 64, 45
1, 121764, Note_on_c, 0, 80, 56
1, 121857, Note_off_c, 0, 80, 64
1, 121878, Note_off_c, 0, 65, 60
1, 121893, Note_on_c, 0, 72, 47
1, 121971, Note_off_c, 0, 72, 55
1, 122012, Note_on_c, 0, 80, 55
1, 122077, Note_off_c, 0, 80, 58
1, 122129, Note_on_c, 0, 72, 48
1, 122240, Note_off_c, 0, 72, 56
1, 122251, Note_on_c, 0, 41, 76
1, 122266, Note_on_c, 0, 80, 62
1, 122365, Note_off_c, 0, 80, 59
1, 122387, Note_on_c, 0, 73, 53
1, 122504, Note_on_c, 0, 80, 57
1, 122509, Note_off_c, 0, 73, 53
1, 122591, Note_off_c, 0, 41, 53
1, 122623, Note_on_c, 0, 43, 53
1, 122623, Note_off_c, 0, 80, 54
1, 122635, Note_on_c, 0, 73, 53
1, 122677, Note_off_c, 0, 43, 60
1, 122681, Note_on_c, 0, 41, 64
1, 122728, Note_off_c, 0, 41, 64
1, 122729, Note_off_c, 0, 73, 54
1, 122749, Note_on_c, 0, 40, 58
1, 122762, Note_on_c, 0, 79, 54
1, 122859, Note_off_c, 0, 79, 56
1, 122874, Note_off_c, 0, 40, 62
1, 122898, Note_on_c, 0, 73, 38
1, 122983, Note_off_c, 0, 73, 57
1, 123027, Note_on_c, 0, 79, 45
1, 123090, Note_off_c, 0, 79, 57
1, 123110, Control_c, 0, 64, 46
1, 123139, Control_c, 0, 64, 46
1, 123151, Note_on_c, 0, 73, 34
1, 123169, Control_c, 0, 64, 47
1, 123234, Note_off_c, 0, 73, 45
1, 123264, Note_on_c, 0, 63, 55
1, 123269, Note_on_c, 0, 79, 50
1, 123346, Note_off_c, 0, 79, 54
1, 123397, Note_on_c, 0, 72, 40
1, 123502, Note_off_c, 0, 72, 34
1, 123519, Note_on_c, 0, 79, 45
1, 123588, Note_off_c, 0, 63, 59
1, 123623, Note_off_c, 0, 79, 57
1, 123634, Note_on_c, 0, 65, 46
1, 123646, Note_on_c, 0, 72, 47
1, 123679, Note_off_c, 0, 65, 56
1, 123688, Note_on_c, 0, 63, 47
1, 123704, Note_off_c, 0, 72, 55
1, 123741, Note_on_c, 0, 62, 50
1, 123750, Note_off_c, 0, 63, 62
1, 123782, Note_on_c, 0, 77, 49
1, 123852, Note_off_c, 0, 62, 61
1, 123861, Note_off_c, 0, 77, 51
1, 123905, Note_on_c, 0, 72, 48
1, 123987, Note_off_c, 0, 72, 54
1, 124022, Note_on_c, 0, 77, 50
1, 124098, Note_off_c, 0, 77, 63
1, 124143, Note_on_c, 0, 72, 51
1, 124223, Note_off_c, 0, 72, 58
1, 124248, Note_on_c, 0, 37, 64
1, 124251, Note_on_c, 0, 77, 58
1, 124337, Note_off_c, 0, 77, 60
1, 124361, Note_on_c, 0, 70, 58
1, 124504, Note_off_c, 0, 70, 52
1, 124513, Note_on_c, 0, 77, 57
1, 124576, Note_off_c, 0, 37, 53
1, 124600, Note_on_c, 0, 39, 54
1, 124606, Note_off_c, 0, 77, 57
1, 124638, Note_on_c, 0, 70, 46
1, 124677, Note_on_c, 0, 37, 56
1, 124696, Note_off_c, 0, 39, 39
1, 124716, Note_off_c, 0, 37, 62
1, 124727, Note_on_c, 0, 36, 56
1, 124739, Note_off_c, 0, 70, 54
1, 124775, Note_on_c, 0, 75, 49
1, 124843, Note_off_c, 0, 36, 61
1, 124862, Note_off_c, 0, 75, 56
1, 124895, Note_on_c, 0, 70, 39
1, 125005, Note_off_c, 0, 70, 47
1, 125023, Note_on_c, 0, 75, 45
1, 125086, Note_off_c, 0, 75, 60
1, 125139, Note_on_c, 0, 70, 41
1, 125253, Note_off_c, 0, 70, 62
1, 125269, Note_on_c, 0, 60, 66
1, 125293, Note_on_c, 0, 75, 48
1, 125364, Note_off_c, 0, 75, 56
1, 125402, Note_on_c, 0, 68, 43
1, 125518, Note_off_c, 0, 68, 59
1, 125540, Note_on_c, 0, 75, 48
1, 125572, Note_off_c, 0, 60, 62
1, 125624, Note_off_c, 0, 75, 56
1, 125627, Note_on_c, 0, 61, 38
1, 125661, Note_off_c, 0, 61, 60
1, 125662, Note_on_c, 0, 68, 37
1, 125667, Note_on_c, 0, 60, 50
1, 125722, Note_off_c, 0, 60, 59
1, 125748, Note_on_c, 0, 58, 55
1, 125751, Note_off_c, 0, 68, 36
1, 125776, Note_on_c, 0, 73, 41
1, 125853, Note_off_c, 0, 58, 61
1, 125859, Note_off_c, 0, 73, 50
1, 125916, Note_on_c, 0, 68, 36
1, 126016, Note_off_c, 0, 68, 55
1, 126042, Note_on_c, 0, 73, 39
1, 126123, Note_off_c, 0, 73, 56
1, 126166, Note_on_c, 0, 68, 40
1, 126265, Note_on_c, 0, 34, 60
1, 126276, Note_off_c, 0, 68, 50
1, 126291, Note_on_c, 0, 73, 42
1, 126328, Control_c, 0, 64, 47
1, 126342, Control_c, 0, 64, 49
1, 126357, Control_c, 0, 64, 52
1, 126368, Note_off_c, 0, 73, 58
1, 126372, Control_c, 0, 64, 55
1, 126387, Control_c, 0, 64, 56
1, 126402, Control_c, 0, 64, 57
1, 126409, Note_on_c, 0, 67, 53
1, 126416, Control_c, 0, 64, 58
1, 126431, Control_c, 0, 64, 60
1, 126446, Control_c, 0, 64, 62
1, 126461, Control_c, 0, 64, 64
1, 126475, Control_c, 0, 64, 65
1, 126490, Control_c, 0, 64, 66
1, 126505, Control_c, 0, 64, 68
1, 126520, Note_on_c, 0, 73, 79
1, 126520, Control_c, 0, 64, 69
1, 126525, Note_off_c, 0, 67, 61
1, 126535, Control_c, 0, 64, 72
1, 126549, Control_c, 0, 64, 76
1, 126564, Control_c, 0, 64, 82
1, 126579, Control_c, 0, 64, 86
1, 126583, Note_off_c, 0, 73, 64
1, 126594, Control_c, 0, 64, 87
1, 126619, Note_off_c, 0, 34, 57
1, 126634, Note_on_c, 0, 67, 68
1, 126640, Note_on_c, 0, 36, 81
1, 126653, Note_off_c, 0, 67, 66
1, 126695, Note_on_c, 0, 34, 76
1, 126698, Control_c, 0, 64, 89
1, 126713, Control_c, 0, 64, 92
1, 126728, Control_c, 0, 64, 98
1, 126728, Note_off_c, 0, 36, 62
1, 126749, Control_c, 0, 64, 115
1, 126762, Note_on_c, 0, 72, 86
1, 126764, Control_c, 0, 64, 127
1, 126766, Note_on_c, 0, 32, 86
1, 126811, Note_off_c, 0, 34, 60
1, 126828, Note_on_c, 0, 75, 88
1, 126833, Note_off_c, 0, 72, 61
1, 126854, Control_c, 0, 64, 99
1, 126869, Control_c, 0, 64, 77
1, 126884, Control_c, 0, 64, 64
1, 126893, Note_on_c, 0, 77, 85
1, 126897, Note_off_c, 0, 32, 63
1, 126898, Control_c, 0, 64, 51
1, 126901, Note_off_c, 0, 75, 64
1, 126913, Control_c, 0, 64, 44
1, 126943, Control_c, 0, 64, 45
1, 126958, Control_c, 0, 64, 45
1, 126962, Note_on_c, 0, 75, 86
1, 126980, Note_off_c, 0, 77, 61
1, 126987, Control_c, 0, 64, 44
1, 127002, Control_c, 0, 64, 43
1, 127017, Control_c, 0, 64, 42
1, 127031, Note_on_c, 0, 73, 80
1, 127044, Note_off_c, 0, 75, 61
1, 127077, Control_c, 0, 64, 43
1, 127081, Note_off_c, 0, 73, 66
1, 127089, Note_on_c, 0, 72, 84
1, 127146, Note_off_c, 0, 72, 60
1, 127162, Note_on_c, 0, 70, 76
1, 127166, Control_c, 0, 64, 43
1, 127195, Control_c, 0, 64, 44
1, 127208, Note_on_c, 0, 68, 81
1, 127216, Note_off_c, 0, 70, 63
1, 127224, Control_c, 0, 64, 44
1, 127239, Control_c, 0, 64, 45
1, 127261, Note_off_c, 0, 68, 63
1, 127275, Note_on_c, 0, 67, 82
1, 127290, Note_on_c, 0, 51, 76
1, 127293, Note_on_c, 0, 58, 70
1, 127295, Note_on_c, 0, 61, 78
1, 127320, Note_off_c, 0, 67, 65
1, 127341, Note_on_c, 0, 77, 87
1, 127411, Note_on_c, 0, 75, 81
1, 127415, Note_off_c, 0, 77, 66
1, 127444, Note_off_c, 0, 61, 60
1, 127461, Control_c, 0, 64, 44
1, 127479, Note_on_c, 0, 73, 81
1, 127502, Note_off_c, 0, 58, 62
1, 127503, Note_off_c, 0, 51, 63
1, 127508, Note_off_c, 0, 75, 59
1, 127513, Control_c, 0, 64, 44
1, 127542, Note_off_c, 0, 73, 65
1, 127559, Note_on_c, 0, 72, 84
1, 127587, Control_c, 0, 64, 43
1, 127609, Note_off_c, 0, 72, 65
1, 127631, Note_on_c, 0, 70, 78
1, 127686, Note_on_c, 0, 68, 80
1, 127692, Note_off_c, 0, 70, 64
1, 127723, Note_off_c, 0, 68, 61
1, 127736, Control_c, 0, 64, 44
1, 127739, Note_on_c, 0, 67, 75
1, 127789, Note_on_c, 0, 60, 80
1, 127789, Note_off_c, 0, 67, 60
1, 127793, Note_on_c, 0, 56, 70
1, 127801, Note_on_c, 0, 68, 85
1, 127862, Note_off_c, 0, 68, 55
1, 127867, Note_on_c, 0, 70, 88
1, 127913, Note_off_c, 0, 70, 67
1, 127928, Note_on_c, 0, 72, 86
1, 127979, Note_off_c, 0, 72, 61
1, 127987, Note_on_c, 0, 73, 87
1, 128008, Note_off_c, 0, 56, 64
1, 128013, Note_off_c, 0, 60, 64
1, 128032, Note_off_c, 0, 73, 67
1, 128068, Note_on_c, 0, 74, 77
1, 128075, Note_on_c, 0, 75, 67
1, 128096, Note_off_c, 0, 74, 65
1, 128119, Note_off_c, 0, 75, 59
1, 128123, Note_on_c, 0, 76, 75
1, 128127, Note_on_c, 0, 77, 73
1, 128149, Note_off_c, 0, 76, 69
1, 128153, Note_off_c, 0, 77, 67
1, 128197, Note_on_c, 0, 79, 81
1, 128228, Note_on_c, 0, 80, 69
1, 128230, Note_on_c, 0, 77, 36
1, 128231, Note_off_c, 0, 77, 127
1, 128254, Note_off_c, 0, 79, 61
1, 128299, Note_on_c, 0, 82, 79
1, 128303, Note_on_c, 0, 55, 73
1, 128304, Note_on_c, 0, 63, 80
1, 128306, Note_on_c, 0, 58, 69
1, 128306, Control_c, 0, 64, 45
1, 128320, Control_c, 0, 64, 46
1, 128324, Note_off_c, 0, 80, 65
1, 128335, Control_c, 0, 64, 48
1, 128350, Control_c, 0, 64, 50
1, 128365, Control_c, 0, 64, 51
1, 128370, Note_on_c, 0, 84, 88
1, 128376, Note_off_c, 0, 82, 65
1, 128380, Control_c, 0, 64, 52
1, 128440, Control_c, 0, 64, 51
1, 128448, Note_on_c, 0, 82, 77
1, 128455, Control_c, 0, 64, 50
1, 128469, Control_c, 0, 64, 50
1, 128472, Note_off_c, 0, 84, 64
1, 128484, Control_c, 0, 64, 49
1, 128494, Note_off_c, 0, 55, 61
1, 128505, Note_on_c, 0, 80, 77
1, 128512, Note_off_c, 0, 82, 64
1, 128514, Control_c, 0, 64, 49
1, 128519, Note_off_c, 0, 63, 60
1, 128529, Control_c, 0, 64, 48
1, 128532, Note_off_c, 0, 58, 60
1, 128543, Control_c, 0, 64, 47
1, 128558, Control_c, 0, 64, 47
1, 128573, Control_c, 0, 64, 46
1, 128575, Note_on_c, 0, 79, 80
1, 128583, Note_off_c, 0, 80, 63
1, 128588, Control_c, 0, 64, 45
1, 128603, Control_c, 0, 64, 44
1, 128618, Control_c, 0, 64, 43
1, 128618, Note_off_c, 0, 79, 63
1, 128633, Control_c, 0, 64, 42
1, 128639, Note_on_c, 0, 77, 69
1, 128648, Control_c, 0, 64, 42
1, 128662, Control_c, 0, 64, 40
1, 128677, Control_c, 0, 64, 40
1, 128678, Note_off_c, 0, 77, 61
1, 128692, Control_c, 0, 64, 39
1, 128723, Note_on_c, 0, 75, 38
1, 128746, Note_off_c, 0, 75, 36
1, 128772, Note_on_c, 0, 73, 66
1, 128804, Note_off_c, 0, 73, 65
1, 128808, Note_on_c, 0, 63, 45
1, 128809, Note_on_c, 0, 56, 44
1, 128812, Note_on_c, 0, 60, 50
1, 128826, Note_on_c, 0, 72, 65
1, 128865, Note_off_c, 0, 72, 64
1, 128880, Note_on_c, 0, 75, 59
1, 128928, Note_off_c, 0, 75, 61
1, 128939, Note_on_c, 0, 77, 62
1, 128962, Note_off_c, 0, 60, 58
1, 128973, Note_off_c, 0, 56, 56
1, 128976, Note_off_c, 0, 63, 57
1, 129008, Note_off_c, 0, 77, 62
1, 129017, Note_on_c, 0, 75, 73
1, 129066, Note_off_c, 0, 75, 57
1, 129087, Note_on_c, 0, 73, 58
1, 129113, Note_off_c, 0, 73, 66
1, 129140, Note_on_c, 0, 72, 58
1, 129187, Note_off_c, 0, 72, 60
1, 129207, Note_on_c, 0, 70, 60
1, 129250, Note_off_c, 0, 70, 60
1, 129268, Note_on_c, 0, 68, 57
1, 129303, Note_off_c, 0, 68, 64
1, 129330, Note_on_c, 0, 67, 67
1, 129331, Note_on_c, 0, 63, 43
1, 129334, Note_on_c, 0, 58, 44
1, 129337, Note_on_c, 0, 61, 41
1, 129358, Note_off_c, 0, 67, 67
1, 129391, Note_on_c, 0, 77, 69
1, 129452, Note_off_c, 0, 77, 63
1, 129460, Note_on_c, 0, 75, 66
1, 129518, Note_off_c, 0, 63, 58
1, 129521, Note_off_c, 0, 61, 56
1, 129523, Note_off_c, 0, 75, 62
1, 129524, Note_on_c, 0, 73, 65
1, 129536, Note_off_c, 0, 58, 60
1, 129560, Note_off_c, 0, 73, 66
1, 129596, Note_on_c, 0, 72, 65
1, 129640, Note_off_c, 0, 72, 64
1, 129659, Note_on_c, 0, 70, 61
1, 129710, Note_off_c, 0, 70, 61
1, 129712, Note_on_c, 0, 68, 70
1, 129752, Note_off_c, 0, 68, 64
1, 129775, Note_on_c, 0, 67, 66
1, 129810, Note_off_c, 0, 67, 57
1, 129837, Note_on_c, 0, 68, 78
1, 129837, Note_on_c, 0, 60, 49
1, 129842, Note_on_c, 0, 63, 53
1, 129885, Note_off_c, 0, 68, 59
1, 129904, Note_on_c, 0, 70, 80
1, 129942, Note_off_c, 0, 70, 65
1, 129963, Note_on_c, 0, 72, 74
1, 130001, Note_off_c, 0, 72, 61
1, 130017, Note_on_c, 0, 73, 84
1, 130019, Note_off_c, 0, 60, 55
1, 130022, Note_off_c, 0, 63, 62
1, 130090, Note_on_c, 0, 75, 91
1, 130096, Note_off_c, 0, 73, 46
1, 130139, Note_off_c, 0, 75, 63
1, 130146, Control_c, 0, 64, 38
1, 130153, Note_on_c, 0, 77, 85
1, 130190, Control_c, 0, 64, 38
1, 130200, Note_off_c, 0, 77, 54
1, 130205, Control_c, 0, 64, 37
1, 130220, Note_on_c, 0, 79, 81
1, 130220, Control_c, 0, 64, 36
1, 130235, Control_c, 0, 64, 36
1, 130250, Control_c, 0, 64, 35
1, 130264, Control_c, 0, 64, 35
1, 130278, Note_off_c, 0, 79, 64
1, 130280, Note_on_c, 0, 80, 76
1, 130331, Note_on_c, 0, 82, 80
1, 130341, Note_on_c, 0, 55, 49
1, 130344, Note_off_c, 0, 80, 61
1, 130354, Note_on_c, 0, 63, 55
1, 130355, Note_on_c, 0, 58, 52
1, 130398, Control_c, 0, 64, 34
1, 130403, Note_on_c, 0, 84, 85
1, 130406, Note_off_c, 0, 82, 66
1, 130442, Control_c, 0, 64, 34
1, 130457, Control_c, 0, 64, 33
1, 130472, Control_c, 0, 64, 33
1, 130485, Note_on_c, 0, 82, 72
1, 130499, Note_off_c, 0, 84, 58
1, 130509, Control_c, 0, 64, 32
1, 130523, Control_c, 0, 64, 32
1, 130529, Note_off_c, 0, 55, 64
1, 130541, Note_off_c, 0, 63, 62
1, 130543, Note_on_c, 0, 80, 68
1, 130547, Note_off_c, 0, 82, 66
1, 130552, Note_off_c, 0, 58, 63
1, 130600, Note_off_c, 0, 80, 65
1, 130603, Note_on_c, 0, 79, 67
1, 130633, Note_off_c, 0, 79, 67
1, 130661, Note_on_c, 0, 77, 71
1, 130705, Note_off_c, 0, 77, 61
1, 130729, Note_on_c, 0, 75, 63
1, 130772, Note_off_c, 0, 75, 62
1, 130779, Note_on_c, 0, 73, 64
1, 130816, Note_off_c, 0, 73, 66
1, 130841, Note_on_c, 0, 72, 70
1, 130849, Note_on_c, 0, 68, 81
1, 130879, Note_off_c, 0, 68, 66
1, 130892, Note_off_c, 0, 72, 60
1, 130895, Control_c, 0, 64, 31
1, 130905, Note_on_c, 0, 73, 69
1, 130943, Note_off_c, 0, 73, 66
1, 130972, Note_on_c, 0, 75, 68
1, 131030, Note_off_c, 0, 75, 61
1, 131033, Note_on_c, 0, 73, 64
1, 131070, Note_off_c, 0, 73, 67
1, 131085, Note_on_c, 0, 63, 77
1, 131087, Control_c, 0, 64, 32
1, 131101, Note_on_c, 0, 72, 65
1, 131119, Note_off_c, 0, 63, 65
1, 131149, Note_off_c, 0, 72, 62
1, 131161, Note_on_c, 0, 73, 62
1, 131195, Note_off_c, 0, 73, 66
1, 131225, Note_on_c, 0, 75, 65
1, 131283, Note_off_c, 0, 75, 58
1, 131287, Control_c, 0, 64, 32
1, 131296, Note_on_c, 0, 73, 59
1, 131302, Control_c, 0, 64, 33
1, 131317, Control_c, 0, 64, 34
1, 131332, Control_c, 0, 64, 35
1, 131336, Note_off_c, 0, 73, 63
1, 131343, Note_on_c, 0, 60, 74
1, 131361, Control_c, 0, 64, 35
1, 131365, Note_on_c, 0, 72, 62
1, 131378, Note_off_c, 0, 60, 64
1, 131405, Note_off_c, 0, 72, 63
1, 131429, Note_on_c, 0, 73, 43
1, 131464, Note_off_c, 0, 73, 65
1, 131485, Note_on_c, 0, 75, 60
1, 131524, Note_off_c, 0, 75, 63
1, 131540, Note_on_c, 0, 73, 58
1, 131576, Note_off_c, 0, 73, 66
1, 131587, Note_on_c, 0, 56, 49
1, 131613, Note_on_c, 0, 72, 52
1, 131621, Note_off_c, 0, 56, 65
1, 131644, Control_c, 0, 64, 35
1, 131650, Note_off_c, 0, 72, 64
1, 131659, Control_c, 0, 64, 34
1, 131668, Note_on_c, 0, 73, 49
1, 131673, Control_c, 0, 64, 34
1, 131673, Control_c, 0, 67, 38
1, 131688, Control_c, 0, 67, 102
1, 131702, Note_off_c, 0, 73, 65
1, 131702, Control_c, 0, 67, 127
1, 131725, Note_on_c, 0, 75, 54
1, 131732, Control_c, 0, 64, 33
1, 131747, Control_c, 0, 64, 33
1, 131766, Note_off_c, 0, 75, 62
1, 131776, Control_c, 0, 64, 32
1, 131784, Note_on_c, 0, 73, 59
1, 131791, Control_c, 0, 64, 32
1, 131806, Control_c, 0, 64, 31
1, 131816, Note_off_c, 0, 73, 66
1, 131846, Note_on_c, 0, 72, 57
1, 131855, Note_on_c, 0, 66, 65
1, 131884, Note_off_c, 0, 66, 63
1, 131891, Note_off_c, 0, 72, 61
1, 131902, Note_on_c, 0, 73, 53
1, 131909, Control_c, 0, 64, 31
1, 131942, Note_off_c, 0, 73, 64
1, 131971, Note_on_c, 0, 75, 54
1, 132021, Note_off_c, 0, 75, 62
1, 132040, Note_on_c, 0, 73, 56
1, 132075, Note_off_c, 0, 73, 66
1, 132107, Note_on_c, 0, 72, 54
1, 132113, Note_on_c, 0, 63, 62
1, 132142, Note_off_c, 0, 63, 66
1, 132146, Note_off_c, 0, 72, 62
1, 132167, Note_on_c, 0, 73, 50
1, 132198, Note_off_c, 0, 73, 65
1, 132225, Note_on_c, 0, 75, 60
1, 132267, Note_off_c, 0, 75, 60
1, 132283, Note_on_c, 0, 73, 59
1, 132318, Note_off_c, 0, 73, 66
1, 132353, Note_on_c, 0, 60, 60
1, 132353, Note_on_c, 0, 72, 60
1, 132387, Note_off_c, 0, 60, 65
1, 132396, Note_off_c, 0, 72, 63
1, 132418, Note_on_c, 0, 73, 56
1, 132449, Note_off_c, 0, 73, 66
1, 132471, Note_on_c, 0, 75, 63
1, 132480, Control_c, 0, 64, 31
1, 132495, Control_c, 0, 64, 32
1, 132509, Control_c, 0, 64, 32
1, 132515, Note_off_c, 0, 75, 57
1, 132524, Note_on_c, 0, 73, 66
1, 132524, Control_c, 0, 64, 33
1, 132539, Control_c, 0, 64, 33
1, 132565, Note_off_c, 0, 73, 65
1, 132569, Control_c, 0, 64, 34
1, 132583, Control_c, 0, 64, 34
1, 132588, Note_on_c, 0, 54, 72
1, 132591, Note_on_c, 0, 72, 68
1, 132598, Control_c, 0, 64, 35
1, 132613, Control_c, 0, 67, 32
1, 132618, Note_off_c, 0, 54, 69
1, 132628, Control_c, 0, 67, 0
1, 132643, Note_off_c, 0, 72, 62
1, 132651, Note_on_c, 0, 73, 70
1, 132690, Note_off_c, 0, 73, 65
1, 132714, Note_on_c, 0, 75, 78
1, 132783, Note_on_c, 0, 73, 78
1, 132799, Note_off_c, 0, 75, 58
1, 132828, Control_c, 0, 64, 34
1, 132838, Note_off_c, 0, 73, 65
1, 132843, Control_c, 0, 64, 34
1, 132854, Note_on_c, 0, 72, 92
1, 132856, Note_on_c, 0, 30, 83
1, 132860, Note_on_c, 0, 42, 104
1, 132872, Poly_aftertouch_c, 0, 34, 127
1, 132915, Poly_aftertouch_c, 0, 34, 0
1, 132924, Note_on_c, 0, 74, 92
1, 132944, Note_off_c, 0, 72, 61
1, 132984, Note_on_c, 0, 75, 90
1, 132991, Note_off_c, 0, 74, 63
1, 133039, Note_on_c, 0, 74, 79
1, 133066, Note_off_c, 0, 75, 62
1, 133107, Note_off_c, 0, 74, 65
1, 133108, Note_on_c, 0, 72, 84
1, 133173, Note_on_c, 0, 74, 87
1, 133182, Note_off_c, 0, 72, 63
1, 133238, Note_on_c, 0, 75, 90
1, 133244, Note_off_c, 0, 74, 65
1, 133295, Note_on_c, 0, 76, 10
1, 133300, Note_on_c, 0, 74, 74
1, 133341, Note_off_c, 0, 76, 53
1, 133358, Note_off_c, 0, 74, 63
1, 133360, Note_off_c, 0, 75, 60
1, 133366, Note_on_c, 0, 72, 80
1, 133422, Note_on_c, 0, 74, 80
1, 133422, Control_c, 0, 64, 34
1, 133423, Note_off_c, 0, 72, 65
1, 133452, Control_c, 0, 64, 35
1, 133467, Control_c, 0, 64, 37
1, 133487, Note_off_c, 0, 74, 64
1, 133488, Note_on_c, 0, 75, 84
1, 133489, Control_c, 0, 64, 39
1, 133504, Control_c, 0, 64, 42
1, 133519, Control_c, 0, 64, 48
1, 133533, Control_c, 0, 64, 54
1, 133548, Control_c, 0, 64, 59
1, 133550, Note_on_c, 0, 74, 67
1, 133561, Note_off_c, 0, 75, 62
1, 133563, Control_c, 0, 64, 61
1, 133578, Control_c, 0, 64, 63
1, 133593, Control_c, 0, 64, 66
1, 133605, Note_off_c, 0, 74, 63
1, 133605, Note_on_c, 0, 72, 82
1, 133608, Control_c, 0, 64, 71
1, 133622, Control_c, 0, 64, 82
1, 133637, Control_c, 0, 64, 99
1, 133652, Control_c, 0, 64, 127
1, 133665, Note_off_c, 0, 72, 62
1, 133669, Note_on_c, 0, 75, 87
1, 133696, Control_c, 0, 64, 107
1, 133711, Control_c, 0, 64, 92
1, 133726, Control_c, 0, 64, 83
1, 133731, Note_off_c, 0, 30, 60
1, 133733, Note_on_c, 0, 74, 80
1, 133740, Control_c, 0, 64, 77
1, 133742, Note_off_c, 0, 75, 62
1, 133745, Note_off_c, 0, 42, 60
1, 133755, Control_c, 0, 64, 74
1, 133770, Control_c, 0, 64, 70
1, 133783, Note_off_c, 0, 74, 64
1, 133785, Control_c, 0, 64, 66
1, 133790, Note_on_c, 0, 72, 79
1, 133800, Control_c, 0, 64, 62
1, 133814, Control_c, 0, 64, 56
1, 133829, Control_c, 0, 64, 49
1, 133831, Note_off_c, 0, 72, 57
1, 133844, Control_c, 0, 64, 45
1, 133858, Control_c, 0, 64, 44
1, 133861, Note_on_c, 0, 71, 83
1, 133863, Note_on_c, 0, 43, 96
1, 133866, Note_on_c, 0, 31, 75
1, 133900, Note_off_c, 0, 71, 63
1, 133933, Note_on_c, 0, 67, 79
1, 133987, Note_off_c, 0, 67, 64
1, 133994, Note_on_c, 0, 71, 82
1, 134042, Note_off_c, 0, 31, 63
1, 134046, Note_on_c, 0, 74, 81
1, 134052, Control_c, 0, 64, 44
1, 134061, Note_off_c, 0, 71, 60
1, 134074, Note_off_c, 0, 43, 65
1, 134112, Note_on_c, 0, 79, 101
1, 134118, Note_off_c, 0, 74, 65
1, 134126, Control_c, 0, 64, 43
1, 134182, Note_on_c, 0, 74, 80
1, 134198, Note_off_c, 0, 79, 61
1, 134237, Note_on_c, 0, 71, 75
1, 134255, Note_off_c, 0, 74, 62
1, 134271, Note_off_c, 0, 71, 67
1, 134296, Control_c, 0, 64, 44
1, 134301, Note_on_c, 0, 67, 74
1, 134358, Note_on_c, 0, 66, 83
1, 134359, Note_off_c, 0, 67, 62
1, 134365, Note_on_c, 0, 55, 93
1, 134366, Note_on_c, 0, 51, 79
1, 134368, Note_on_c, 0, 43, 70
1, 134370, Control_c, 0, 64, 45
1, 134374, Note_on_c, 0, 48, 66
1, 134385, Control_c, 0, 64, 45
1, 134400, Control_c, 0, 64, 46
1, 134406, Note_off_c, 0, 66, 62
1, 134428, Note_on_c, 0, 67, 78
1, 134491, Note_off_c, 0, 67, 62
1, 134498, Note_on_c, 0, 72, 82
1, 134561, Note_on_c, 0, 75, 77
1, 134577, Note_off_c, 0, 72, 58
1, 134583, Note_off_c, 0, 55, 60
1, 134600, Note_off_c, 0, 43, 64
1, 134610, Note_on_c, 0, 79, 96
1, 134613, Note_off_c, 0, 51, 64
1, 134619, Note_off_c, 0, 48, 62
1, 134624, Note_off_c, 0, 75, 63
1, 134678, Note_on_c, 0, 75, 82
1, 134713, Note_off_c, 0, 79, 62
1, 134718, Note_on_c, 0, 72, 72
1, 134754, Note_off_c, 0, 75, 63
1, 134759, Note_off_c, 0, 72, 64
1, 134787, Note_on_c, 0, 67, 79
1, 134800, Control_c, 0, 64, 45
1, 134858, Note_on_c, 0, 50, 83
1, 134860, Note_on_c, 0, 66, 85
1, 134860, Note_off_c, 0, 67, 61
1, 134861, Note_on_c, 0, 55, 91
1, 134865, Note_on_c, 0, 43, 77
1, 134872, Note_on_c, 0, 47, 70
1, 134875, Control_c, 0, 64, 45
1, 134908, Note_off_c, 0, 66, 62
1, 134923, Note_on_c, 0, 67, 84
1, 134971, Note_off_c, 0, 67, 66
1, 135000, Control_c, 0, 64, 44
1, 135004, Note_on_c, 0, 71, 91
1, 135030, Control_c, 0, 64, 44
1, 135063, Note_on_c, 0, 74, 82
1, 135075, Control_c, 0, 64, 43
1, 135081, Note_off_c, 0, 71, 56
1, 135083, Note_off_c, 0, 55, 60
1, 135110, Note_off_c, 0, 43, 64
1, 135113, Note_on_c, 0, 79, 97
1, 135122, Note_off_c, 0, 50, 62
1, 135125, Note_off_c, 0, 74, 65
1, 135126, Note_off_c, 0, 47, 61
1, 135186, Note_on_c, 0, 74, 84
1, 135212, Note_off_c, 0, 79, 65
1, 135248, Note_on_c, 0, 71, 75
1, 135258, Note_off_c, 0, 74, 62
1, 135284, Note_off_c, 0, 71, 65
1, 135307, Note_on_c, 0, 67, 75
1, 135368, Note_off_c, 0, 67, 62
1, 135372, Note_on_c, 0, 66, 82
1, 135378, Note_on_c, 0, 51, 83
1, 135378, Note_on_c, 0, 55, 88
1, 135384, Note_on_c, 0, 43, 68
1, 135386, Note_on_c, 0, 48, 70
1, 135411, Note_off_c, 0, 66, 62
1, 135415, Control_c, 0, 64, 44
1, 135446, Note_on_c, 0, 67, 76
1, 135489, Control_c, 0, 64, 44
1, 135506, Note_off_c, 0, 67, 58
1, 135516, Note_on_c, 0, 72, 79
1, 135576, Note_on_c, 0, 75, 89
1, 135590, Note_off_c, 0, 72, 61
1, 135598, Note_off_c, 0, 55, 60
1, 135611, Note_off_c, 0, 43, 64
1, 135632, Note_off_c, 0, 51, 63
1, 135636, Note_off_c, 0, 48, 62
1, 135644, Note_on_c, 0, 79, 93
1, 135655, Note_off_c, 0, 75, 63
1, 135731, Note_on_c, 0, 75, 79
1, 135761, Note_off_c, 0, 79, 64
1, 135776, Note_on_c, 0, 72, 73
1, 135804, Note_off_c, 0, 75, 62
1, 135841, Note_on_c, 0, 67, 69
1, 135842, Note_off_c, 0, 72, 63
1, 135892, Note_off_c, 0, 67, 59
1, 135902, Note_on_c, 0, 43, 50
1, 135903, Note_on_c, 0, 79, 73
1, 135956, Note_on_c, 0, 47, 51
1, 135957, Note_off_c, 0, 43, 54
1, 135998, Note_off_c, 0, 47, 63
1, 136010, Note_on_c, 0, 50, 56
1, 136040, Note_off_c, 0, 50, 66
1, 136068, Note_on_c, 0, 55, 66
1, 136124, Note_off_c, 0, 55, 61
1, 136135, Note_on_c, 0, 56, 71
1, 136163, Note_off_c, 0, 56, 66
1, 136169, Note_off_c, 0, 79, 46
1, 136194, Note_on_c, 0, 55, 75
1, 136194, Control_c, 0, 64, 44
1, 136223, Control_c, 0, 64, 43
1, 136247, Note_off_c, 0, 55, 63
1, 136252, Control_c, 0, 64, 42
1, 136261, Note_on_c, 0, 50, 73
1, 136267, Control_c, 0, 64, 41
1, 136282, Control_c, 0, 64, 40
1, 136297, Control_c, 0, 64, 39
1, 136312, Control_c, 0, 64, 37
1, 136318, Note_off_c, 0, 50, 53
1, 136323, Note_on_c, 0, 47, 64
1, 136327, Control_c, 0, 64, 34
1, 136342, Control_c, 0, 64, 30
1, 136356, Control_c, 0, 64, 24
1, 136369, Note_on_c, 0, 43, 76
1, 136371, Control_c, 0, 64, 18
1, 136387, Note_on_c, 0, 79, 94
1, 136387, Control_c, 0, 64, 17
1, 136388, Note_off_c, 0, 47, 63
1, 136390, Note_on_c, 0, 75, 90
1, 136391, Note_on_c, 0, 67, 90
1, 136398, Note_on_c, 0, 72, 78
1, 136417, Control_c, 0, 64, 26
1, 136431, Control_c, 0, 64, 43
1, 136441, Note_on_c, 0, 48, 77
1, 136446, Control_c, 0, 64, 58
1, 136452, Note_off_c, 0, 43, 61
1, 136461, Control_c, 0, 64, 66
1, 136484, Control_c, 0, 64, 76
1, 136499, Control_c, 0, 64, 110
1, 136505, Note_on_c, 0, 51, 82
1, 136513, Control_c, 0, 64, 127
1, 136530, Note_off_c, 0, 48, 61
1, 136564, Note_off_c, 0, 51, 63
1, 136580, Note_on_c, 0, 55, 80
1, 136587, Note_off_c, 0, 67, 60
1, 136587, Control_c, 0, 64, 90
1, 136602, Control_c, 0, 64, 73
1, 136604, Note_off_c, 0, 79, 57
1, 136617, Control_c, 0, 64, 63
1, 136618, Note_off_c, 0, 72, 59
1, 136631, Control_c, 0, 64, 48
1, 136636, Note_off_c, 0, 75, 52
1, 136640, Note_on_c, 0, 56, 87
1, 136645, Note_off_c, 0, 55, 65
1, 136646, Control_c, 0, 64, 44
1, 136676, Control_c, 0, 64, 45
1, 136689, Note_off_c, 0, 56, 66
1, 136691, Control_c, 0, 64, 46
1, 136712, Note_on_c, 0, 55, 82
1, 136791, Note_off_c, 0, 55, 63
1, 136798, Note_on_c, 0, 50, 71
1, 136818, Note_on_c, 0, 48, 70
1, 136824, Control_c, 0, 64, 44
1, 136831, Note_off_c, 0, 50, 69
1, 136839, Control_c, 0, 64, 42
1, 136854, Control_c, 0, 64, 39
1, 136869, Control_c, 0, 64, 34
1, 136883, Control_c, 0, 64, 21
1, 136888, Note_on_c, 0, 43, 85
1, 136896, Note_off_c, 0, 48, 63
1, 136898, Control_c, 0, 64, 0
1, 136901, Note_on_c, 0, 74, 87
1, 136902, Note_on_c, 0, 71, 89
1, 136902, Note_on_c, 0, 79, 100
1, 136903, Note_on_c, 0, 67, 96
1, 136944, Control_c, 0, 64, 51
1, 136948, Note_on_c, 0, 47, 67
1, 136958, Control_c, 0, 64, 64
1, 136973, Control_c, 0, 64, 72
1, 136988, Control_c, 0, 64, 93
1, 136995, Note_off_c, 0, 43, 62
1, 137003, Control_c, 0, 64, 127
1, 137022, Note_on_c, 0, 50, 79
1, 137044, Note_off_c, 0, 47, 63
1, 137081, Note_off_c, 0, 50, 64
1, 137093, Note_on_c, 0, 55, 71
1, 137111, Note_off_c, 0, 67, 59
1, 137137, Note_off_c, 0, 74, 61
1, 137137, Note_off_c, 0, 79, 62
1, 137137, Note_off_c, 0, 71, 57
1, 137159, Note_on_c, 0, 56, 69
1, 137180, Note_off_c, 0, 56, 61
1, 137181, Control_c, 0, 64, 99
1, 137195, Note_off_c, 0, 55, 62
1, 137196, Control_c, 0, 64, 72
1, 137211, Control_c, 0, 64, 53
1, 137227, Note_on_c, 0, 55, 73
1, 137233, Control_c, 0, 64, 0
1, 137292, Note_off_c, 0, 55, 63
1, 137318, Note_on_c, 0, 50, 79
1, 137353, Note_on_c, 0, 47, 62
1, 137397, Note_off_c, 0, 50, 56
1, 137403, Note_on_c, 0, 43, 88
1, 137421, Note_on_c, 0, 75, 97
1, 137422, Note_on_c, 0, 67, 103
1, 137422, Note_on_c, 0, 79, 99
1, 137426, Note_on_c, 0, 72, 88
1, 137433, Note_off_c, 0, 47, 64
1, 137455, Control_c, 0, 64, 60
1, 137470, Control_c, 0, 64, 77
1, 137473, Note_on_c, 0, 48, 85
1, 137485, Control_c, 0, 64, 127
1, 137501, Note_off_c, 0, 43, 64
1, 137530, Note_off_c, 0, 67, 56
1, 137534, Note_on_c, 0, 51, 87
1, 137555, Note_off_c, 0, 79, 59
1, 137558, Note_off_c, 0, 48, 64
1, 137576, Note_off_c, 0, 72, 58
1, 137583, Note_off_c, 0, 51, 65
1, 137589, Note_on_c, 0, 55, 86
1, 137611, Note_off_c, 0, 75, 57
1, 137657, Note_on_c, 0, 56, 91
1, 137661, Note_off_c, 0, 55, 66
1, 137677, Control_c, 0, 64, 113
1, 137692, Control_c, 0, 64, 101
1, 137707, Control_c, 0, 64, 95
1, 137714, Note_off_c, 0, 56, 66
1, 137722, Control_c, 0, 64, 91
1, 137734, Note_on_c, 0, 55, 88
1, 137737, Control_c, 0, 64, 85
1, 137751, Control_c, 0, 64, 80
1, 137766, Control_c, 0, 64, 75
1, 137781, Control_c, 0, 64, 70
1, 137796, Control_c, 0, 64, 64
1, 137805, Note_off_c, 0, 55, 63
1, 137806, Note_on_c, 0, 51, 84
1, 137811, Control_c, 0, 64, 48
1, 137826, Control_c, 0, 64, 0
1, 137844, Note_on_c, 0, 48, 69
1, 137858, Note_off_c, 0, 51, 65
1, 137911, Note_on_c, 0, 43, 99
1, 137918, Note_on_c, 0, 79, 104
1, 137922, Note_on_c, 0, 67, 110
1, 137922, Note_off_c, 0, 48, 64
1, 137926, Note_on_c, 0, 74, 91
1, 137927, Note_on_c, 0, 71, 94
1, 137943, Note_on_c, 0, 47, 50
1, 137959, Control_c, 0, 64, 54
1, 137980, Note_off_c, 0, 47, 52
1, 137982, Control_c, 0, 64, 98
1, 137997, Control_c, 0, 64, 127
1, 137999, Note_off_c, 0, 67, 66
1, 138023, Note_off_c, 0, 79, 63
1, 138023, Note_off_c, 0, 43, 64
1, 138041, Note_off_c, 0, 71, 62
1, 138049, Note_off_c, 0, 74, 61
1, 138190, Control_c, 0, 64, 83
1, 138204, Control_c, 0, 64, 56
1, 138219, Control_c, 0, 64, 0
1, 138426, Control_c, 0, 64, 31
1, 138440, Control_c, 0, 64, 46
1, 138455, Control_c, 0, 64, 58
1, 138467, Note_on_c, 0, 43, 88
1, 138467, Note_on_c, 0, 83, 110
1, 138468, Note_on_c, 0, 50, 70
1, 138470, Control_c, 0, 64, 67
1, 138470, Note_on_c, 0, 55, 101
1, 138474, Note_on_c, 0, 79, 84
1, 138476, Note_on_c, 0, 47, 85
1, 138476, Note_on_c, 0, 74, 90
1, 138485, Control_c, 0, 64, 93
1, 138500, Control_c, 0, 64, 127
1, 138516, Note_off_c, 0, 55, 66
1, 138526, Note_off_c, 0, 83, 68
1, 138533, Note_off_c, 0, 74, 66
1, 138537, Note_off_c, 0, 43, 64
1, 138537, Note_off_c, 0, 79, 67
1, 138540, Note_off_c, 0, 50, 64
1, 138547, Note_off_c, 0, 47, 64
1, 138744, Control_c, 0, 64, 108
1, 138759, Control_c, 0, 64, 81
1, 138774, Control_c, 0, 64, 62
1, 138789, Control_c, 0, 64, 21
1, 138804, Control_c, 0, 64, 0
1, 139105, Note_on_c, 0, 55, 104
1, 139112, Note_on_c, 0, 47, 91
1, 139112, Note_on_c, 0, 50, 83
1, 139114, Note_on_c, 0, 31, 86
1, 139116, Note_on_c, 0, 43, 99
1, 139233, Control_c, 0, 64, 25
1, 139248, Control_c, 0, 64, 45
1, 139263, Control_c, 0, 64, 54
1, 139278, Control_c, 0, 64, 60
1, 139293, Control_c, 0, 64, 65
1, 139308, Control_c, 0, 64, 71
1, 139322, Control_c, 0, 64, 85
1, 139337, Control_c, 0, 64, 127
1, 140910, Control_c, 0, 67, 40
1, 140924, Control_c, 0, 67, 73
1, 140939, Control_c, 0, 67, 100
1, 140954, Control_c, 0, 67, 123
1, 140977, Control_c, 0, 67, 127
1, 142097, Note_off_c, 0, 47, 49
1, 142116, Note_off_c, 0, 31, 55
1, 142132, Note_off_c, 0, 43, 55
1, 142157, Note_off_c, 0, 50, 57
1, 142172, Note_off_c, 0, 55, 55
1, 142184, Control_c, 0, 64, 108
1, 142199, Control_c, 0, 64, 97
1, 142214, Control_c, 0, 64, 90
1, 142229, Control_c, 0, 64, 87
1, 142244, Control_c, 0, 64, 82
1, 142259, Control_c, 0, 64, 74
1, 142274, Control_c, 0, 64, 66
1, 142288, Control_c, 0, 64, 57
1, 142303, Control_c, 0, 64, 45
1, 142318, Control_c, 0, 64, 34
1, 142333, Control_c, 0, 64, 31
1, 142362, Control_c, 0, 64, 32
1, 142392, Control_c, 0, 64, 31
1, 142407, Control_c, 0, 64, 27
1, 142422, Control_c, 0, 64, 22
1, 142436, Control_c, 0, 64, 20
1, 142503, Control_c, 0, 64, 19
1, 142577, Control_c, 0, 64, 16
1, 142592, Control_c, 0, 64, 0
1, 143376, Note_on_c, 0, 83, 49
1, 143398, Note_on_c, 0, 80, 63
1, 143400, Note_on_c, 0, 64, 48
1, 143409, Note_off_c, 0, 83, 64
1, 143429, Note_off_c, 0, 64, 63
1, 143429, Note_off_c, 0, 80, 67
1, 143488, Poly_aftertouch_c, 0, 68, 0
1, 143630, Note_on_c, 0, 83, 41
1, 143643, Note_on_c, 0, 78, 74
1, 143656, Note_off_c, 0, 83, 57
1, 143660, Note_on_c, 0, 59, 24
1, 143666, Note_on_c, 0, 66, 31
1, 143669, Note_off_c, 0, 78, 69
1, 143696, Note_off_c, 0, 66, 48
1, 143706, Note_off_c, 0, 59, 62
1, 143878, Note_on_c, 0, 83, 51
1, 143902, Note_on_c, 0, 76, 64
1, 143910, Note_off_c, 0, 83, 66
1, 143919, Note_on_c, 0, 56, 22
1, 143924, Note_on_c, 0, 64, 31
1, 143934, Note_off_c, 0, 76, 66
1, 144116, Note_off_c, 0, 56, 55
1, 144119, Note_off_c, 0, 64, 54
1, 144124, Note_on_c, 0, 83, 57
1, 144151, Note_off_c, 0, 83, 65
1, 144165, Note_on_c, 0, 71, 57
1, 144184, Note_off_c, 0, 71, 61
1, 144392, Note_on_c, 0, 83, 66
1, 144402, Note_on_c, 0, 80, 82
1, 144413, Note_on_c, 0, 64, 58
1, 144414, Note_off_c, 0, 83, 66
1, 144416, Note_on_c, 0, 68, 63
1, 144429, Note_off_c, 0, 80, 67
1, 144435, Note_off_c, 0, 68, 63
1, 144442, Note_off_c, 0, 64, 64
1, 144646, Note_on_c, 0, 83, 61
1, 144670, Note_on_c, 0, 59, 59
1, 144670, Note_on_c, 0, 66, 65
1, 144670, Note_on_c, 0, 78, 78
1, 144673, Note_off_c, 0, 83, 67
1, 144694, Note_off_c, 0, 66, 63
1, 144694, Note_off_c, 0, 78, 70
1, 144701, Note_off_c, 0, 59, 65
1, 144909, Note_on_c, 0, 83, 63
1, 144932, Note_on_c, 0, 76, 75
1, 144935, Note_on_c, 0, 56, 56
1, 144938, Note_off_c, 0, 83, 67
1, 144941, Note_on_c, 0, 64, 61
1, 144957, Note_off_c, 0, 76, 70
1, 145093, Note_off_c, 0, 56, 61
1, 145106, Note_off_c, 0, 64, 59
1, 145138, Note_on_c, 0, 83, 64
1, 145178, Note_off_c, 0, 83, 66
1, 145192, Note_on_c, 0, 71, 60
1, 145215, Note_off_c, 0, 71, 65
1, 145283, Control_c, 0, 67, 125
1, 145298, Control_c, 0, 67, 126
1, 145313, Control_c, 0, 67, 127
1, 145401, Control_c, 0, 67, 124
1, 145414, Note_on_c, 0, 88, 51
1, 145416, Control_c, 0, 67, 116
1, 145429, Note_on_c, 0, 64, 47
1, 145430, Note_on_c, 0, 83, 71
1, 145431, Control_c, 0, 67, 86
1, 145435, Note_on_c, 0, 68, 64
1, 145438, Note_off_c, 0, 88, 65
1, 145446, Control_c, 0, 67, 32
1, 145462, Note_off_c, 0, 83, 69
1, 145468, Control_c, 0, 67, 0
1, 145472, Note_off_c, 0, 64, 62
1, 145472, Note_off_c, 0, 68, 65
1, 145663, Note_on_c, 0, 88, 50
1, 145681, Note_on_c, 0, 85, 83
1, 145684, Note_on_c, 0, 69, 60
1, 145686, Note_on_c, 0, 64, 47
1, 145687, Note_off_c, 0, 88, 65
1, 145705, Note_off_c, 0, 85, 69
1, 145712, Note_off_c, 0, 69, 65
1, 145721, Note_off_c, 0, 64, 64
1, 145904, Note_on_c, 0, 88, 40
1, 145922, Note_on_c, 0, 64, 46
1, 145925, Note_on_c, 0, 71, 69
1, 145925, Note_on_c, 0, 86, 87
1, 145946, Note_off_c, 0, 88, 65
1, 145952, Note_off_c, 0, 71, 68
1, 145962, Note_off_c, 0, 64, 64
1, 145967, Note_off_c, 0, 86, 65
1, 146157, Note_on_c, 0, 88, 73
1, 146176, Note_on_c, 0, 64, 59
1, 146181, Note_on_c, 0, 73, 69
1, 146185, Note_on_c, 0, 85, 76
1, 146189, Note_off_c, 0, 88, 69
1, 146214, Note_off_c, 0, 73, 69
1, 146217, Note_off_c, 0, 64, 65
1, 146217, Note_off_c, 0, 85, 67
1, 146417, Note_on_c, 0, 88, 60
1, 146432, Note_on_c, 0, 64, 54
1, 146433, Note_on_c, 0, 83, 88
1, 146441, Note_on_c, 0, 74, 62
1, 146449, Note_off_c, 0, 88, 68
1, 146468, Note_off_c, 0, 64, 65
1, 146468, Note_off_c, 0, 83, 66
1, 146472, Note_off_c, 0, 74, 66
1, 146658, Note_on_c, 0, 88, 57
1, 146676, Note_on_c, 0, 80, 80
1, 146679, Note_on_c, 0, 74, 61
1, 146679, Note_on_c, 0, 64, 48
1, 146689, Note_off_c, 0, 88, 67
1, 146699, Note_off_c, 0, 80, 67
1, 146707, Note_off_c, 0, 74, 64
1, 146709, Note_off_c, 0, 64, 62
1, 146893, Note_on_c, 0, 88, 56
1, 146914, Control_c, 0, 64, 18
1, 146916, Note_on_c, 0, 81, 79
1, 146927, Note_off_c, 0, 88, 67
1, 146929, Control_c, 0, 64, 42
1, 146930, Note_on_c, 0, 73, 62
1, 146944, Control_c, 0, 64, 58
1, 146965, Control_c, 0, 64, 66
1, 146970, Note_off_c, 0, 73, 67
1, 146974, Note_off_c, 0, 81, 65
1, 146980, Control_c, 0, 64, 75
1, 146995, Control_c, 0, 64, 94
1, 147010, Control_c, 0, 64, 127
1, 147140, Note_on_c, 0, 85, 63
1, 147158, Control_c, 0, 64, 98
1, 147169, Note_off_c, 0, 85, 66
1, 147173, Control_c, 0, 64, 79
1, 147186, Note_on_c, 0, 76, 67
1, 147188, Control_c, 0, 64, 67
1, 147203, Control_c, 0, 64, 57
1, 147215, Note_off_c, 0, 76, 64
1, 147218, Control_c, 0, 64, 47
1, 147218, Control_c, 0, 67, 10
1, 147232, Control_c, 0, 64, 44
1, 147232, Control_c, 0, 67, 22
1, 147247, Control_c, 0, 67, 59
1, 147262, Control_c, 0, 67, 123
1, 147277, Control_c, 0, 64, 43
1, 147277, Control_c, 0, 67, 127
1, 147292, Control_c, 0, 64, 39
1, 147306, Control_c, 0, 64, 32
1, 147321, Control_c, 0, 64, 25
1, 147336, Control_c, 0, 64, 23
1, 147418, Note_on_c, 0, 76, 62
1, 147441, Note_on_c, 0, 73, 78
1, 147446, Note_off_c, 0, 76, 67
1, 147454, Note_on_c, 0, 57, 49
1, 147454, Note_on_c, 0, 61, 43
1, 147469, Note_off_c, 0, 73, 65
1, 147480, Note_off_c, 0, 57, 60
1, 147481, Note_off_c, 0, 61, 57
1, 147663, Note_on_c, 0, 76, 46
1, 147681, Note_on_c, 0, 52, 41
1, 147690, Note_on_c, 0, 59, 46
1, 147711, Note_on_c, 0, 71, 61
1, 147720, Note_off_c, 0, 76, 64
1, 147732, Note_off_c, 0, 59, 63
1, 147738, Note_off_c, 0, 52, 65
1, 147739, Note_off_c, 0, 71, 67
1, 147916, Note_on_c, 0, 76, 51
1, 147938, Note_on_c, 0, 49, 37
1, 147946, Note_on_c, 0, 57, 44
1, 147952, Note_on_c, 0, 69, 53
1, 147955, Note_off_c, 0, 76, 65
1, 147976, Note_off_c, 0, 69, 62
1, 148085, Control_c, 0, 64, 24
1, 148129, Control_c, 0, 64, 24
1, 148144, Note_off_c, 0, 57, 60
1, 148154, Note_on_c, 0, 76, 51
1, 148154, Note_off_c, 0, 49, 63
1, 148200, Note_on_c, 0, 64, 56
1, 148200, Note_off_c, 0, 76, 62
1, 148219, Control_c, 0, 64, 26
1, 148219, Control_c, 0, 67, 61
1, 148220, Note_off_c, 0, 64, 62
1, 148234, Control_c, 0, 64, 28
1, 148234, Control_c, 0, 67, 0
1, 148249, Control_c, 0, 64, 30
1, 148263, Control_c, 0, 64, 31
1, 148278, Control_c, 0, 64, 32
1, 148368, Control_c, 0, 64, 32
1, 148410, Note_on_c, 0, 76, 60
1, 148412, Control_c, 0, 64, 33
1, 148427, Control_c, 0, 64, 34
1, 148435, Note_on_c, 0, 73, 81
1, 148439, Note_off_c, 0, 76, 67
1, 148442, Control_c, 0, 64, 36
1, 148448, Note_on_c, 0, 57, 62
1, 148450, Note_on_c, 0, 61, 62
1, 148465, Control_c, 0, 64, 37
1, 148474, Note_off_c, 0, 73, 67
1, 148480, Control_c, 0, 64, 38
1, 148484, Note_off_c, 0, 57, 66
1, 148488, Note_off_c, 0, 61, 64
1, 148554, Control_c, 0, 64, 39
1, 148568, Control_c, 0, 64, 40
1, 148583, Control_c, 0, 64, 41
1, 148612, Control_c, 0, 64, 41
1, 148653, Note_on_c, 0, 76, 55
1, 148686, Note_on_c, 0, 71, 82
1, 148691, Note_on_c, 0, 52, 53
1, 148694, Note_off_c, 0, 76, 66
1, 148698, Note_on_c, 0, 59, 53
1, 148712, Note_off_c, 0, 71, 66
1, 148720, Note_off_c, 0, 52, 66
1, 148723, Note_off_c, 0, 59, 59
1, 148849, Control_c, 0, 64, 41
1, 148864, Control_c, 0, 64, 40
1, 148879, Control_c, 0, 64, 39
1, 148912, Note_on_c, 0, 76, 55
1, 148937, Note_on_c, 0, 57, 47
1, 148944, Note_on_c, 0, 49, 39
1, 148945, Note_on_c, 0, 69, 62
1, 148948, Note_off_c, 0, 76, 65
1, 148966, Note_off_c, 0, 69, 64
1, 149129, Note_off_c, 0, 57, 49
1, 149143, Note_on_c, 0, 76, 60
1, 149153, Note_off_c, 0, 49, 59
1, 149180, Note_off_c, 0, 76, 66
1, 149192, Note_on_c, 0, 64, 70
1, 149227, Note_off_c, 0, 64, 67
1, 149371, Note_on_c, 0, 81, 77
1, 149410, Note_off_c, 0, 81, 67
1, 149428, Note_on_c, 0, 69, 75
1, 149453, Note_off_c, 0, 69, 70
1, 149593, Note_on_c, 0, 85, 80
1, 149641, Note_off_c, 0, 85, 60
1, 149647, Note_on_c, 0, 73, 81
1, 149673, Note_off_c, 0, 73, 63
1, 149842, Note_on_c, 0, 88, 79
1, 149895, Note_off_c, 0, 88, 65
1, 149905, Note_on_c, 0, 79, 50
1, 149911, Note_on_c, 0, 76, 45
1, 149913, Note_on_c, 0, 73, 43
1, 149928, Note_off_c, 0, 79, 60
1, 150083, Note_on_c, 0, 88, 62
1, 150128, Note_off_c, 0, 88, 63
1, 150155, Note_on_c, 0, 79, 45
1, 150180, Note_off_c, 0, 79, 58
1, 150332, Note_on_c, 0, 88, 46
1, 150334, Note_off_c, 0, 73, 52
1, 150353, Note_off_c, 0, 76, 42
1, 150373, Note_off_c, 0, 88, 60
1, 150385, Note_on_c, 0, 71, 39
1, 150391, Note_on_c, 0, 74, 45
1, 150400, Note_on_c, 0, 79, 50
1, 150432, Note_off_c, 0, 79, 59
1, 150573, Note_on_c, 0, 88, 46
1, 150603, Note_off_c, 0, 74, 62
1, 150608, Note_off_c, 0, 71, 62
1, 150621, Note_off_c, 0, 88, 61
1, 150639, Note_on_c, 0, 79, 45
1, 150684, Note_off_c, 0, 79, 66
1, 150817, Note_on_c, 0, 88, 52
1, 150860, Note_off_c, 0, 88, 63
1, 150879, Note_on_c, 0, 70, 26
1, 150890, Note_on_c, 0, 78, 64
1, 150891, Note_on_c, 0, 73, 42
1, 150918, Note_off_c, 0, 78, 62
1, 151037, Note_on_c, 0, 88, 77
1, 151079, Note_off_c, 0, 73, 59
1, 151101, Note_off_c, 0, 88, 64
1, 151120, Note_on_c, 0, 79, 80
1, 151124, Note_on_c, 0, 74, 55
1, 151128, Note_on_c, 0, 71, 59
1, 151155, Note_off_c, 0, 79, 67
1, 151157, Note_off_c, 0, 70, 38
1, 151184, Control_c, 0, 64, 39
1, 151198, Control_c, 0, 64, 40
1, 151258, Control_c, 0, 64, 40
1, 151267, Note_off_c, 0, 71, 61
1, 151286, Note_on_c, 0, 88, 75
1, 151345, Note_off_c, 0, 74, 59
1, 151347, Note_on_c, 0, 73, 54
1, 151355, Note_on_c, 0, 70, 58
1, 151359, Note_on_c, 0, 78, 85
1, 151362, Note_off_c, 0, 88, 65
1, 151408, Note_off_c, 0, 78, 60
1, 151423, Note_off_c, 0, 70, 63
1, 151468, Note_off_c, 0, 73, 35
1, 151473, Control_c, 0, 64, 40
1, 151543, Note_on_c, 0, 88, 75
1, 151598, Note_on_c, 0, 70, 50
1, 151604, Note_off_c, 0, 88, 64
1, 151605, Note_on_c, 0, 66, 54
1, 151607, Control_c, 0, 64, 39
1, 151613, Note_on_c, 0, 85, 81
1, 151637, Control_c, 0, 64, 39
1, 151637, Note_off_c, 0, 85, 66
1, 151646, Note_off_c, 0, 66, 62
1, 151648, Note_off_c, 0, 70, 62
1, 151666, Control_c, 0, 64, 38
1, 151681, Control_c, 0, 64, 38
1, 151711, Control_c, 0, 64, 37
1, 151726, Control_c, 0, 64, 37
1, 151741, Control_c, 0, 64, 36
1, 151771, Control_c, 0, 64, 36
1, 151785, Control_c, 0, 64, 35
1, 151805, Note_on_c, 0, 88, 59
1, 151815, Control_c, 0, 64, 35
1, 151829, Control_c, 0, 64, 34
1, 151880, Note_off_c, 0, 88, 63
1, 151883, Note_on_c, 0, 86, 79
1, 151919, Note_on_c, 0, 71, 38
1, 151949, Control_c, 0, 64, 36
1, 151964, Control_c, 0, 64, 46
1, 151978, Control_c, 0, 64, 56
1, 151993, Control_c, 0, 64, 63
1, 152008, Control_c, 0, 64, 67
1, 152016, Note_off_c, 0, 71, 64
1, 152022, Control_c, 0, 64, 75
1, 152037, Control_c, 0, 64, 90
1, 152052, Control_c, 0, 64, 127
1, 152056, Note_on_c, 0, 74, 43
1, 152086, Note_off_c, 0, 86, 62
1, 152161, Note_off_c, 0, 74, 48
1, 152191, Note_on_c, 0, 71, 48
1, 152246, Note_off_c, 0, 71, 62
1, 152301, Note_on_c, 0, 74, 48
1, 152429, Note_off_c, 0, 74, 51
1, 152432, Note_on_c, 0, 79, 83
1, 152439, Note_on_c, 0, 71, 53
1, 152515, Note_off_c, 0, 71, 63
1, 152554, Note_on_c, 0, 74, 49
1, 152671, Note_on_c, 0, 71, 48
1, 152674, Note_off_c, 0, 74, 35
1, 152756, Note_off_c, 0, 71, 61
1, 152768, Note_off_c, 0, 79, 63
1, 152796, Note_on_c, 0, 81, 66
1, 152798, Note_on_c, 0, 74, 47
1, 152844, Control_c, 0, 64, 116
1, 152853, Note_off_c, 0, 81, 63
1, 152853, Note_on_c, 0, 79, 76
1, 152859, Control_c, 0, 64, 99
1, 152874, Control_c, 0, 64, 90
1, 152879, Note_off_c, 0, 74, 47
1, 152889, Control_c, 0, 64, 84
1, 152904, Control_c, 0, 64, 80
1, 152912, Note_off_c, 0, 79, 65
1, 152914, Note_on_c, 0, 78, 82
1, 152918, Note_on_c, 0, 70, 37
1, 152918, Control_c, 0, 64, 74
1, 152933, Control_c, 0, 64, 69
1, 152956, Control_c, 0, 64, 64
1, 152971, Control_c, 0, 64, 58
1, 152985, Control_c, 0, 64, 50
1, 152990, Note_off_c, 0, 70, 56
1, 153000, Control_c, 0, 64, 46
1, 153015, Control_c, 0, 64, 46
1, 153032, Note_on_c, 0, 73, 46
1, 153154, Note_off_c, 0, 73, 56
1, 153174, Note_on_c, 0, 70, 39
1, 153228, Note_off_c, 0, 70, 58
1, 153268, Control_c, 0, 64, 45
1, 153286, Note_on_c, 0, 73, 43
1, 153344, Note_off_c, 0, 73, 54
1, 153396, Note_off_c, 0, 78, 63
1, 153416, Note_on_c, 0, 71, 48
1, 153422, Note_on_c, 0, 77, 55
1, 153491, Note_off_c, 0, 71, 61
1, 153539, Note_on_c, 0, 74, 44
1, 153618, Note_off_c, 0, 74, 53
1, 153652, Note_on_c, 0, 71, 44
1, 153729, Note_off_c, 0, 71, 55
1, 153777, Note_on_c, 0, 74, 42
1, 153849, Note_off_c, 0, 74, 52
1, 153895, Note_off_c, 0, 77, 59
1, 153909, Note_on_c, 0, 78, 53
1, 153913, Note_on_c, 0, 70, 37
1, 153968, Note_off_c, 0, 70, 60
1, 154040, Note_on_c, 0, 73, 38
1, 154142, Note_off_c, 0, 73, 52
1, 154173, Note_on_c, 0, 70, 37
1, 154209, Control_c, 0, 64, 46
1, 154226, Note_off_c, 0, 70, 60
1, 154281, Note_on_c, 0, 73, 36
1, 154417, Note_off_c, 0, 73, 35
1, 154421, Note_off_c, 0, 78, 56
1, 154436, Note_on_c, 0, 71, 46
1, 154438, Note_on_c, 0, 86, 42
1, 154543, Note_off_c, 0, 86, 61
1, 154567, Note_on_c, 0, 79, 50
1, 154668, Note_off_c, 0, 79, 54
1, 154690, Note_on_c, 0, 86, 49
1, 154750, Control_c, 0, 64, 46
1, 154760, Note_off_c, 0, 86, 55
1, 154799, Note_off_c, 0, 71, 52
1, 154816, Note_on_c, 0, 73, 61
1, 154820, Note_on_c, 0, 79, 42
1, 154839, Control_c, 0, 64, 47
1, 154856, Note_off_c, 0, 73, 62
1, 154877, Note_on_c, 0, 71, 59
1, 154878, Note_off_c, 0, 79, 57
1, 154931, Note_off_c, 0, 71, 62
1, 154933, Note_on_c, 0, 85, 43
1, 154934, Note_on_c, 0, 70, 59
1, 155003, Note_off_c, 0, 85, 58
1, 155044, Note_on_c, 0, 79, 49
1, 155124, Note_off_c, 0, 79, 62
1, 155154, Note_on_c, 0, 85, 53
1, 155275, Note_on_c, 0, 79, 62
1, 155317, Note_off_c, 0, 85, 48
1, 155381, Note_off_c, 0, 79, 59
1, 155392, Note_off_c, 0, 70, 61
1, 155397, Note_on_c, 0, 84, 67
1, 155398, Note_on_c, 0, 69, 72
1, 155476, Note_off_c, 0, 84, 60
1, 155515, Note_on_c, 0, 78, 67
1, 155634, Note_on_c, 0, 84, 70
1, 155640, Note_off_c, 0, 78, 59
1, 155731, Note_off_c, 0, 84, 61
1, 155743, Note_on_c, 0, 78, 78
1, 155857, Note_on_c, 0, 68, 76
1, 155862, Note_on_c, 0, 83, 74
1, 155869, Note_off_c, 0, 78, 60
1, 155879, Note_off_c, 0, 69, 53
1, 155972, Note_off_c, 0, 83, 61
1, 155976, Note_on_c, 0, 78, 81
1, 156087, Note_on_c, 0, 83, 81
1, 156103, Note_off_c, 0, 78, 61
1, 156190, Note_on_c, 0, 78, 84
1, 156194, Note_off_c, 0, 83, 62
1, 156262, Control_c, 0, 64, 46
1, 156306, Control_c, 0, 64, 46
1, 156334, Note_on_c, 0, 67, 62
1, 156338, Note_on_c, 0, 83, 81
1, 156345, Note_off_c, 0, 68, 60
1, 156351, Note_off_c, 0, 78, 64
1, 156457, Note_off_c, 0, 83, 58
1, 156462, Note_on_c, 0, 76, 69
1, 156563, Note_off_c, 0, 76, 61
1, 156573, Control_c, 0, 64, 45
1, 156576, Note_on_c, 0, 83, 72
1, 156620, Note_off_c, 0, 67, 59
1, 156663, Note_off_c, 0, 83, 61
1, 156674, Note_on_c, 0, 69, 49
1, 156701, Note_on_c, 0, 76, 58
1, 156724, Note_off_c, 0, 69, 63
1, 156746, Note_on_c, 0, 67, 61
1, 156773, Note_off_c, 0, 76, 56
1, 156813, Note_on_c, 0, 82, 60
1, 156814, Note_off_c, 0, 67, 59
1, 156819, Note_on_c, 0, 66, 57
1, 156897, Note_off_c, 0, 82, 60
1, 156926, Note_on_c, 0, 76, 54
1, 157038, Note_off_c, 0, 76, 61
1, 157052, Note_on_c, 0, 82, 71
1, 157160, Note_on_c, 0, 76, 74
1, 157164, Note_off_c, 0, 82, 59
1, 157261, Note_on_c, 0, 82, 83
1, 157267, Note_off_c, 0, 76, 61
1, 157368, Note_off_c, 0, 82, 62
1, 157372, Note_on_c, 0, 76, 78
1, 157500, Note_on_c, 0, 67, 60
1, 157504, Note_off_c, 0, 76, 54
1, 157507, Note_on_c, 0, 83, 82
1, 157520, Note_off_c, 0, 66, 56
1, 157622, Note_off_c, 0, 83, 57
1, 157628, Note_on_c, 0, 76, 60
1, 157715, Note_off_c, 0, 76, 59
1, 157735, Note_on_c, 0, 82, 66
1, 157773, Note_on_c, 0, 66, 53
1, 157792, Note_off_c, 0, 67, 53
1, 157849, Note_off_c, 0, 82, 60
1, 157862, Note_on_c, 0, 76, 55
1, 157959, Note_off_c, 0, 76, 59
1, 157990, Note_on_c, 0, 82, 48
1, 158068, Note_off_c, 0, 82, 60
1, 158092, Note_on_c, 0, 76, 55
1, 158101, Control_c, 0, 64, 46
1, 158206, Note_off_c, 0, 76, 57
1, 158221, Note_on_c, 0, 82, 63
1, 158227, Control_c, 0, 64, 46
1, 158286, Control_c, 0, 64, 47
1, 158299, Note_off_c, 0, 82, 62
1, 158338, Note_on_c, 0, 76, 51
1, 158410, Note_off_c, 0, 66, 55
1, 158423, Note_off_c, 0, 76, 58
1, 158442, Note_on_c, 0, 67, 43
1, 158448, Note_on_c, 0, 83, 57
1, 158543, Note_off_c, 0, 83, 58
1, 158570, Note_on_c, 0, 76, 47
1, 158677, Note_off_c, 0, 76, 53
1, 158705, Note_on_c, 0, 82, 54
1, 158728, Note_on_c, 0, 66, 42
1, 158766, Note_off_c, 0, 67, 37
1, 158803, Note_off_c, 0, 82, 60
1, 158844, Note_on_c, 0, 76, 41
1, 158955, Note_off_c, 0, 76, 59
1, 158961, Control_c, 0, 67, 17
1, 158976, Control_c, 0, 67, 40
1, 158982, Note_on_c, 0, 82, 41
1, 158990, Control_c, 0, 67, 61
1, 159005, Control_c, 0, 67, 80
1, 159020, Control_c, 0, 67, 102
1, 159035, Control_c, 0, 67, 121
1, 159045, Note_off_c, 0, 82, 59
1, 159050, Control_c, 0, 67, 127
1, 159095, Note_on_c, 0, 76, 45
1, 159166, Note_off_c, 0, 76, 56
1, 159226, Note_on_c, 0, 82, 46
1, 159257, Control_c, 0, 64, 47
1, 159286, Note_off_c, 0, 82, 58
1, 159330, Note_on_c, 0, 76, 37
1, 159414, Note_off_c, 0, 76, 54
1, 159435, Note_on_c, 0, 82, 44
1, 159510, Note_off_c, 0, 82, 61
1, 159562, Note_on_c, 0, 76, 46
1, 159640, Note_off_c, 0, 76, 43
1, 159666, Note_off_c, 0, 66, 53
1, 159678, Note_on_c, 0, 65, 39
1, 159694, Note_on_c, 0, 81, 40
1, 159760, Note_off_c, 0, 81, 57
1, 159811, Note_on_c, 0, 75, 41
1, 159903, Control_c, 0, 64, 48
1, 159917, Note_off_c, 0, 75, 44
1, 159928, Note_on_c, 0, 81, 32
1, 159965, Note_off_c, 0, 65, 65
1, 160009, Note_off_c, 0, 81, 53
1, 160040, Note_on_c, 0, 75, 40
1, 160109, Control_c, 0, 64, 51
1, 160124, Control_c, 0, 64, 55
1, 160139, Control_c, 0, 64, 59
1, 160140, Note_off_c, 0, 75, 58
1, 160147, Note_on_c, 0, 81, 40
1, 160154, Control_c, 0, 64, 62
1, 160156, Poly_aftertouch_c, 0, 68, 127
1, 160169, Control_c, 0, 64, 65
1, 160183, Control_c, 0, 64, 68
1, 160195, Poly_aftertouch_c, 0, 68, 0
1, 160198, Control_c, 0, 64, 73
1, 160213, Note_off_c, 0, 81, 55
1, 160213, Control_c, 0, 64, 78
1, 160228, Control_c, 0, 64, 84
1, 160242, Control_c, 0, 64, 90
1, 160257, Control_c, 0, 64, 95
1, 160272, Control_c, 0, 64, 99
1, 160287, Note_on_c, 0, 75, 43
1, 160287, Control_c, 0, 64, 104
1, 160302, Control_c, 0, 64, 106
1, 160317, Control_c, 0, 64, 110
1, 160332, Control_c, 0, 64, 114
1, 160347, Control_c, 0, 64, 118
1, 160362, Control_c, 0, 64, 121
1, 160374, Note_off_c, 0, 75, 49
1, 160377, Control_c, 0, 64, 119
1, 160392, Control_c, 0, 64, 115
1, 160394, Note_on_c, 0, 81, 36
1, 160406, Control_c, 0, 64, 112
1, 160421, Control_c, 0, 64, 111
1, 160444, Control_c, 0, 64, 110
1, 160459, Control_c, 0, 64, 106
1, 160473, Control_c, 0, 64, 100
1, 160488, Control_c, 0, 64, 95
1, 160503, Control_c, 0, 64, 91
1, 160508, Note_off_c, 0, 81, 38
1, 160518, Control_c, 0, 64, 89
1, 160532, Note_on_c, 0, 75, 36
1, 160533, Control_c, 0, 64, 88
1, 160547, Control_c, 0, 64, 87
1, 160562, Control_c, 0, 64, 86
1, 160577, Control_c, 0, 64, 84
1, 160592, Control_c, 0, 64, 82
1, 160603, Note_off_c, 0, 75, 38
1, 160607, Control_c, 0, 64, 80
1, 160621, Control_c, 0, 64, 78
1, 160636, Control_c, 0, 64, 75
1, 160646, Note_on_c, 0, 58, 47
1, 160648, Note_on_c, 0, 65, 39
1, 160649, Note_on_c, 0, 80, 42
1, 160651, Control_c, 0, 64, 72
1, 160666, Control_c, 0, 64, 66
1, 160681, Control_c, 0, 64, 62
1, 160695, Control_c, 0, 64, 57
1, 160710, Control_c, 0, 64, 55
1, 160725, Note_off_c, 0, 80, 57
1, 160740, Control_c, 0, 64, 57
1, 160755, Control_c, 0, 64, 60
1, 160770, Control_c, 0, 64, 63
1, 160778, Note_on_c, 0, 74, 36
1, 160785, Control_c, 0, 64, 64
1, 160800, Control_c, 0, 64, 66
1, 160814, Control_c, 0, 64, 67
1, 160829, Control_c, 0, 64, 68
1, 160844, Control_c, 0, 64, 70
1, 160859, Control_c, 0, 64, 72
1, 160862, Note_off_c, 0, 74, 54
1, 160873, Control_c, 0, 64, 73
1, 160888, Control_c, 0, 64, 74
1, 160901, Note_on_c, 0, 80, 34
1, 160903, Control_c, 0, 64, 75
1, 160964, Note_off_c, 0, 80, 64
1, 160977, Control_c, 0, 64, 75
1, 161008, Note_on_c, 0, 74, 47
1, 161080, Note_off_c, 0, 74, 49
1, 161110, Note_on_c, 0, 80, 47
1, 161203, Note_off_c, 0, 80, 61
1, 161240, Note_on_c, 0, 74, 47
1, 161283, Note_off_c, 0, 58, 30
1, 161310, Note_off_c, 0, 74, 52
1, 161311, Control_c, 0, 64, 75
1, 161326, Control_c, 0, 64, 74
1, 161341, Control_c, 0, 64, 73
1, 161347, Note_on_c, 0, 80, 55
1, 161356, Control_c, 0, 64, 72
1, 161364, Note_on_c, 0, 59, 53
1, 161370, Control_c, 0, 64, 71
1, 161385, Control_c, 0, 64, 70
1, 161400, Control_c, 0, 64, 67
1, 161405, Note_off_c, 0, 65, 39
1, 161415, Control_c, 0, 64, 66
1, 161430, Control_c, 0, 64, 67
1, 161444, Control_c, 0, 64, 67
1, 161457, Note_off_c, 0, 80, 61
1, 161459, Control_c, 0, 64, 68
1, 161465, Note_on_c, 0, 75, 64
1, 161474, Control_c, 0, 64, 68
1, 161488, Control_c, 0, 64, 69
1, 161503, Control_c, 0, 64, 70
1, 161518, Control_c, 0, 64, 71
1, 161533, Control_c, 0, 64, 71
1, 161563, Control_c, 0, 64, 70
1, 161578, Control_c, 0, 64, 69
1, 161587, Note_on_c, 0, 58, 70
1, 161589, Note_on_c, 0, 80, 70
1, 161593, Control_c, 0, 64, 67
1, 161595, Note_off_c, 0, 59, 56
1, 161596, Note_off_c, 0, 75, 59
1, 161600, Note_on_c, 0, 65, 57
1, 161608, Control_c, 0, 64, 64
1, 161623, Control_c, 0, 64, 60
1, 161637, Control_c, 0, 64, 55
1, 161652, Control_c, 0, 64, 51
1, 161667, Control_c, 0, 64, 49
1, 161682, Control_c, 0, 64, 48
1, 161696, Control_c, 0, 64, 49
1, 161706, Note_off_c, 0, 80, 62
1, 161711, Control_c, 0, 64, 51
1, 161715, Note_on_c, 0, 74, 61
1, 161726, Control_c, 0, 64, 54
1, 161741, Control_c, 0, 64, 58
1, 161756, Control_c, 0, 64, 61
1, 161770, Control_c, 0, 64, 63
1, 161785, Control_c, 0, 64, 64
1, 161800, Control_c, 0, 64, 66
1, 161814, Note_off_c, 0, 74, 62
1, 161815, Control_c, 0, 64, 68
1, 161816, Note_on_c, 0, 80, 74
1, 161830, Control_c, 0, 64, 70
1, 161844, Control_c, 0, 64, 73
1, 161859, Control_c, 0, 64, 77
1, 161874, Control_c, 0, 64, 82
1, 161888, Control_c, 0, 64, 86
1, 161903, Control_c, 0, 64, 91
1, 161918, Control_c, 0, 64, 96
1, 161921, Note_off_c, 0, 80, 62
1, 161925, Note_on_c, 0, 74, 73
1, 161942, Control_c, 0, 64, 100
1, 161942, Control_c, 0, 67, 100
1, 161956, Control_c, 0, 64, 105
1, 161956, Control_c, 0, 67, 61
1, 161971, Control_c, 0, 64, 110
1, 161971, Control_c, 0, 67, 11
1, 161986, Control_c, 0, 64, 115
1, 161986, Control_c, 0, 67, 0
1, 162001, Control_c, 0, 64, 127
1, 162038, Note_off_c, 0, 74, 61
1, 162043, Note_on_c, 0, 80, 79
1, 162144, Note_off_c, 0, 80, 62
1, 162154, Note_on_c, 0, 74, 74
1, 162281, Note_on_c, 0, 80, 76
1, 162282, Note_off_c, 0, 74, 60
1, 162289, Note_on_c, 0, 59, 72
1, 162338, Note_off_c, 0, 65, 34
1, 162356, Control_c, 0, 64, 114
1, 162371, Control_c, 0, 64, 105
1, 162386, Control_c, 0, 64, 96
1, 162391, Note_on_c, 0, 75, 81
1, 162395, Note_off_c, 0, 58, 37
1, 162401, Control_c, 0, 64, 89
1, 162402, Note_off_c, 0, 80, 61
1, 162415, Control_c, 0, 64, 83
1, 162430, Control_c, 0, 64, 76
1, 162445, Control_c, 0, 64, 69
1, 162460, Control_c, 0, 64, 63
1, 162475, Control_c, 0, 64, 51
1, 162490, Control_c, 0, 64, 24
1, 162505, Control_c, 0, 64, 0
1, 162507, Note_off_c, 0, 59, 58
1, 162517, Note_on_c, 0, 58, 74
1, 162523, Note_on_c, 0, 80, 84
1, 162529, Note_on_c, 0, 65, 72
1, 162550, Note_off_c, 0, 75, 60
1, 162647, Note_on_c, 0, 74, 76
1, 162652, Control_c, 0, 64, 30
1, 162667, Control_c, 0, 64, 51
1, 162672, Note_off_c, 0, 80, 58
1, 162690, Control_c, 0, 64, 59
1, 162705, Control_c, 0, 64, 63
1, 162708, Note_off_c, 0, 65, 57
1, 162719, Control_c, 0, 64, 67
1, 162734, Control_c, 0, 64, 72
1, 162749, Control_c, 0, 64, 84
1, 162764, Control_c, 0, 64, 127
1, 162765, Note_off_c, 0, 74, 62
1, 162767, Note_on_c, 0, 77, 82
1, 162841, Note_off_c, 0, 77, 63
1, 162875, Note_on_c, 0, 68, 87
1, 162924, Note_off_c, 0, 68, 63
1, 162991, Note_on_c, 0, 72, 86
1, 163002, Control_c, 0, 64, 101
1, 163016, Control_c, 0, 64, 81
1, 163031, Control_c, 0, 64, 68
1, 163046, Control_c, 0, 64, 60
1, 163050, Note_off_c, 0, 58, 44
1, 163061, Control_c, 0, 64, 47
1, 163076, Control_c, 0, 64, 38
1, 163103, Note_on_c, 0, 65, 83
1, 163104, Note_off_c, 0, 72, 62
1, 163210, Note_on_c, 0, 68, 89
1, 163229, Note_off_c, 0, 65, 53
1, 163238, Control_c, 0, 64, 38
1, 163253, Control_c, 0, 64, 39
1, 163268, Control_c, 0, 64, 40
1, 163309, Note_off_c, 0, 68, 59
1, 163319, Note_on_c, 0, 62, 80
1, 163342, Control_c, 0, 64, 40
1, 163440, Note_on_c, 0, 65, 92
1, 163445, Note_off_c, 0, 62, 60
1, 163518, Note_off_c, 0, 65, 61
1, 163554, Note_on_c, 0, 56, 88
1, 163572, Control_c, 0, 64, 44
1, 163587, Control_c, 0, 64, 52
1, 163602, Control_c, 0, 64, 59
1, 163617, Control_c, 0, 64, 64
1, 163630, Note_off_c, 0, 56, 62
1, 163632, Control_c, 0, 64, 68
1, 163647, Control_c, 0, 64, 73
1, 163661, Control_c, 0, 64, 84
1, 163672, Note_on_c, 0, 60, 100
1, 163676, Control_c, 0, 64, 103
1, 163691, Control_c, 0, 64, 127
1, 163776, Note_off_c, 0, 60, 62
1, 163798, Note_on_c, 0, 53, 94
1, 163842, Note_off_c, 0, 53, 66
1, 163869, Control_c, 0, 64, 110
1, 163883, Control_c, 0, 64, 101
1, 163898, Control_c, 0, 64, 93
1, 163913, Control_c, 0, 64, 85
1, 163918, Note_on_c, 0, 56, 95
1, 163928, Control_c, 0, 64, 74
1, 163943, Control_c, 0, 64, 66
1, 163957, Control_c, 0, 64, 57
1, 163972, Control_c, 0, 64, 42
1, 163987, Control_c, 0, 64, 28
1, 164002, Control_c, 0, 64, 18
1, 164017, Control_c, 0, 64, 0
1, 164036, Note_on_c, 0, 46, 83
1, 164076, Control_c, 0, 64, 22
1, 164086, Note_off_c, 0, 56, 63
1, 164091, Control_c, 0, 64, 46
1, 164106, Control_c, 0, 64, 59
1, 164116, Note_off_c, 0, 46, 62
1, 164121, Control_c, 0, 64, 64
1, 164135, Control_c, 0, 64, 66
1, 164150, Control_c, 0, 64, 69
1, 164165, Control_c, 0, 64, 74
1, 164166, Note_on_c, 0, 48, 93
1, 164187, Control_c, 0, 64, 83
1, 164202, Control_c, 0, 64, 109
1, 164217, Control_c, 0, 64, 127
1, 164240, Note_off_c, 0, 48, 62
1, 164304, Note_on_c, 0, 50, 87
1, 164347, Note_off_c, 0, 50, 63
1, 164455, Control_c, 0, 64, 84
1, 164469, Control_c, 0, 64, 63
1, 164484, Control_c, 0, 64, 0
1, 164501, Note_on_c, 0, 43, 52
1, 164501, Note_on_c, 0, 63, 99
1, 164503, Note_on_c, 0, 39, 76
1, 164505, Note_on_c, 0, 51, 87
1, 164507, Note_on_c, 0, 46, 70
1, 164511, Note_on_c, 0, 55, 84
1, 164514, Note_on_c, 0, 58, 82
1, 164544, Control_c, 0, 64, 30
1, 164559, Control_c, 0, 64, 60
1, 164574, Control_c, 0, 64, 72
1, 164588, Control_c, 0, 64, 91
1, 164601, Note_off_c, 0, 55, 61
1, 164603, Control_c, 0, 64, 127
1, 164613, Note_off_c, 0, 51, 63
1, 164649, Note_off_c, 0, 58, 60
1, 164657, Note_off_c, 0, 39, 60
1, 164660, Note_off_c, 0, 63, 59
1, 164661, Note_off_c, 0, 46, 61
1, 164671, Note_off_c, 0, 43, 62
1, 165039, Control_c, 0, 64, 71
1, 165042, Note_on_c, 0, 67, 100
1, 165050, Note_on_c, 0, 43, 56
1, 165054, Control_c, 0, 64, 35
1, 165055, Note_on_c, 0, 49, 79
1, 165055, Note_on_c, 0, 61, 84
1, 165056, Note_on_c, 0, 39, 71
1, 165058, Note_on_c, 0, 46, 71
1, 165060, Note_on_c, 0, 63, 70
1, 165069, Control_c, 0, 64, 0
1, 165094, Note_off_c, 0, 63, 55
1, 165113, Control_c, 0, 64, 55
1, 165129, Control_c, 0, 64, 68
1, 165144, Control_c, 0, 64, 82
1, 165159, Note_off_c, 0, 61, 43
1, 165159, Control_c, 0, 64, 127
1, 165173, Note_off_c, 0, 49, 60
1, 165179, Note_off_c, 0, 67, 56
1, 165183, Note_off_c, 0, 39, 60
1, 165183, Poly_aftertouch_c, 0, 41, 127
1, 165195, Note_off_c, 0, 46, 62
1, 165204, Note_off_c, 0, 43, 63
1, 165212, Poly_aftertouch_c, 0, 41, 0
1, 165401, Note_on_c, 0, 67, 95
1, 165405, Note_on_c, 0, 61, 86
1, 165409, Note_on_c, 0, 49, 77
1, 165409, Note_on_c, 0, 63, 85
1, 165417, Note_on_c, 0, 46, 69
1, 165419, Note_on_c, 0, 39, 67
1, 165420, Note_on_c, 0, 43, 66
1, 165437, Note_off_c, 0, 49, 67
1, 165446, Note_off_c, 0, 46, 65
1, 165450, Note_off_c, 0, 39, 62
1, 165450, Note_off_c, 0, 43, 64
1, 165452, Note_off_c, 0, 67, 65
1, 165458, Note_off_c, 0, 61, 61
1, 165469, Note_off_c, 0, 63, 63
1, 165523, Note_on_c, 0, 68, 105
1, 165526, Note_on_c, 0, 39, 66
1, 165526, Note_on_c, 0, 48, 84
1, 165532, Note_on_c, 0, 60, 92
1, 165536, Note_on_c, 0, 44, 73
1, 165542, Note_on_c, 0, 63, 73
1, 165573, Control_c, 0, 64, 79
1, 165588, Control_c, 0, 64, 58
1, 165602, Control_c, 0, 64, 0
1, 165788, Control_c, 0, 64, 48
1, 165802, Control_c, 0, 64, 53
1, 165817, Control_c, 0, 64, 57
1, 165832, Control_c, 0, 64, 63
1, 165847, Control_c, 0, 64, 68
1, 165861, Control_c, 0, 64, 78
1, 165876, Control_c, 0, 64, 127
1, 165927, Note_off_c, 0, 60, 59
1, 165959, Note_off_c, 0, 63, 61
1, 165995, Note_off_c, 0, 68, 58
1, 166124, Note_off_c, 0, 39, 60
1, 166124, Note_off_c, 0, 44, 54
1, 166124, Note_off_c, 0, 48, 63
1, 166234, Note_on_c, 0, 68, 81
1, 166276, Note_on_c, 0, 67, 79
1, 166278, Note_off_c, 0, 68, 63
1, 166322, Note_off_c, 0, 67, 61
1, 166326, Note_on_c, 0, 65, 78
1, 166359, Note_off_c, 0, 65, 63
1, 166383, Note_on_c, 0, 63, 78
1, 166444, Note_off_c, 0, 63, 64
1, 166455, Note_on_c, 0, 61, 67
1, 166478, Control_c, 0, 64, 81
1, 166481, Note_on_c, 0, 50, 86
1, 166481, Note_on_c, 0, 44, 73
1, 166487, Note_on_c, 0, 39, 70
1, 166490, Note_on_c, 0, 41, 65
1, 166492, Control_c, 0, 64, 62
1, 166499, Note_on_c, 0, 56, 76
1, 166507, Control_c, 0, 64, 0
1, 166514, Note_on_c, 0, 58, 73
1, 166523, Note_on_c, 0, 62, 84
1, 166536, Note_off_c, 0, 61, 62
1, 166631, Note_off_c, 0, 56, 59
1, 166670, Control_c, 0, 64, 16
1, 166672, Note_off_c, 0, 58, 57
1, 166682, Note_off_c, 0, 62, 63
1, 166684, Control_c, 0, 64, 58
1, 166699, Control_c, 0, 64, 66
1, 166704, Note_off_c, 0, 50, 56
1, 166714, Control_c, 0, 64, 73
1, 166730, Control_c, 0, 64, 85
1, 166732, Note_off_c, 0, 44, 63
1, 166735, Note_off_c, 0, 39, 62
1, 166738, Note_off_c, 0, 41, 64
1, 166745, Control_c, 0, 64, 107
1, 166760, Control_c, 0, 64, 127
1, 166863, Note_on_c, 0, 65, 93
1, 166968, Control_c, 0, 64, 96
1, 166982, Note_on_c, 0, 70, 99
1, 166982, Control_c, 0, 64, 72
1, 166988, Note_on_c, 0, 62, 85
1, 166994, Note_on_c, 0, 50, 75
1, 166997, Note_on_c, 0, 44, 69
1, 166997, Control_c, 0, 64, 49
1, 167002, Note_on_c, 0, 39, 64
1, 167006, Note_on_c, 0, 41, 57
1, 167012, Control_c, 0, 64, 0
1, 167161, Control_c, 0, 64, 46
1, 167180, Note_off_c, 0, 50, 54
1, 167182, Control_c, 0, 64, 62
1, 167197, Control_c, 0, 64, 66
1, 167212, Control_c, 0, 64, 68
1, 167227, Control_c, 0, 64, 72
1, 167236, Note_off_c, 0, 39, 62
1, 167239, Note_off_c, 0, 70, 55
1, 167242, Control_c, 0, 64, 79
1, 167245, Note_off_c, 0, 41, 62
1, 167250, Note_off_c, 0, 44, 63
1, 167256, Control_c, 0, 64, 91
1, 167271, Control_c, 0, 64, 127
1, 167282, Note_off_c, 0, 62, 54
1, 167376, Note_on_c, 0, 68, 87
1, 167376, Note_off_c, 0, 65, 60
1, 167450, Note_off_c, 0, 68, 62
1, 167506, Note_on_c, 0, 67, 91
1, 167507, Note_on_c, 0, 51, 74
1, 167511, Note_on_c, 0, 43, 57
1, 167516, Note_on_c, 0, 46, 58
1, 167516, Note_on_c, 0, 39, 59
1, 167516, Note_on_c, 0, 63, 79
1, 167523, Note_on_c, 0, 58, 71
1, 167524, Control_c, 0, 64, 96
1, 167539, Control_c, 0, 64, 80
1, 167554, Control_c, 0, 64, 64
1, 167569, Control_c, 0, 64, 0
1, 167687, Control_c, 0, 64, 48
1, 167702, Control_c, 0, 64, 59
1, 167717, Control_c, 0, 64, 63
1, 167731, Control_c, 0, 64, 68
1, 167746, Control_c, 0, 64, 78
1, 167761, Control_c, 0, 64, 107
1, 167776, Control_c, 0, 64, 127
1, 167991, Control_c, 0, 64, 82
1, 167993, Note_off_c, 0, 58, 64
1, 168003, Note_off_c, 0, 39, 63
1, 168003, Note_off_c, 0, 43, 64
1, 168003, Note_off_c, 0, 51, 64
1, 168005, Note_off_c, 0, 46, 63
1, 168005, Control_c, 0, 64, 63
1, 168008, Note_off_c, 0, 67, 62
1, 168009, Note_off_c, 0, 63, 63
1, 168020, Control_c, 0, 64, 0
1, 168243, Control_c, 0, 67, 11
1, 168258, Control_c, 0, 67, 13
1, 168287, Control_c, 0, 67, 11
1, 168302, Control_c, 0, 67, 9
1, 168317, Control_c, 0, 67, 0
1, 168392, Control_c, 0, 64, 8
1, 168407, Control_c, 0, 64, 14
1, 168436, Control_c, 0, 64, 15
1, 168466, Control_c, 0, 64, 16
1, 168481, Control_c, 0, 64, 18
1, 168495, Control_c, 0, 64, 20
1, 168510, Control_c, 0, 64, 22
1, 168551, Note_on_c, 0, 74, 46
1, 168552, Note_on_c, 0, 65, 35
1, 168554, Note_on_c, 0, 68, 38
1, 168561, Note_on_c, 0, 58, 30
1, 168643, Control_c, 0, 64, 23
1, 168721, Note_off_c, 0, 65, 64
1, 168726, Note_off_c, 0, 68, 56
1, 168730, Note_off_c, 0, 58, 57
1, 168930, Note_off_c, 0, 74, 60
1, 168938, Note_on_c, 0, 77, 56
1, 169050, Note_off_c, 0, 77, 53
1, 169075, Note_on_c, 0, 82, 59
1, 169087, Note_on_c, 0, 65, 28
1, 169088, Note_on_c, 0, 68, 41
1, 169090, Note_on_c, 0, 58, 36
1, 169203, Note_off_c, 0, 68, 60
1, 169214, Note_off_c, 0, 65, 58
1, 169228, Note_off_c, 0, 58, 58
1, 169453, Note_off_c, 0, 82, 52
1, 169472, Note_on_c, 0, 80, 46
1, 169475, Note_on_c, 0, 62, 33
1, 169543, Note_off_c, 0, 62, 54
1, 169589, Note_off_c, 0, 80, 61
1, 169596, Note_on_c, 0, 63, 32
1, 169605, Note_on_c, 0, 79, 53
1, 169826, Note_off_c, 0, 63, 25
1, 169839, Note_off_c, 0, 79, 55
1, 169844, Control_c, 0, 64, 24
1, 169963, Control_c, 0, 64, 24
1, 169978, Control_c, 0, 64, 26
1, 169993, Control_c, 0, 64, 28
1, 170007, Control_c, 0, 64, 29
1, 170022, Control_c, 0, 64, 30
1, 170037, Control_c, 0, 64, 30
1, 170052, Control_c, 0, 64, 31
1, 170067, Control_c, 0, 64, 31
1, 170330, Note_on_c, 0, 84, 83
1, 170336, Note_on_c, 0, 58, 66
1, 170345, Note_on_c, 0, 80, 70
1, 170412, Note_off_c, 0, 80, 64
1, 170440, Note_on_c, 0, 82, 82
1, 170442, Note_on_c, 0, 79, 75
1, 170443, Note_off_c, 0, 58, 64
1, 170456, Note_on_c, 0, 60, 58
1, 170461, Note_off_c, 0, 84, 58
1, 170518, Note_off_c, 0, 79, 63
1, 170554, Note_off_c, 0, 60, 62
1, 170555, Note_on_c, 0, 80, 84
1, 170563, Note_on_c, 0, 77, 69
1, 170573, Note_off_c, 0, 82, 63
1, 170578, Note_on_c, 0, 62, 55
1, 170592, Note_off_c, 0, 77, 66
1, 170659, Note_off_c, 0, 80, 59
1, 170676, Note_off_c, 0, 62, 60
1, 170687, Note_on_c, 0, 79, 72
1, 170696, Note_on_c, 0, 75, 70
1, 170711, Note_on_c, 0, 63, 47
1, 170727, Control_c, 0, 64, 31
1, 170742, Control_c, 0, 64, 30
1, 170771, Control_c, 0, 64, 30
1, 170785, Note_off_c, 0, 75, 61
1, 170795, Note_off_c, 0, 79, 66
1, 170803, Note_off_c, 0, 63, 65
1, 170816, Control_c, 0, 64, 29
1, 170905, Control_c, 0, 64, 29
1, 170927, Control_c, 0, 64, 28
1, 170986, Control_c, 0, 64, 27
1, 171001, Control_c, 0, 64, 26
1, 171238, Control_c, 0, 67, 29
1, 171253, Control_c, 0, 67, 49
1, 171268, Control_c, 0, 67, 71
1, 171283, Control_c, 0, 67, 89
1, 171297, Control_c, 0, 67, 104
1, 171312, Control_c, 0, 67, 115
1, 171327, Control_c, 0, 67, 123
1, 171341, Control_c, 0, 67, 127
1, 171456, Note_on_c, 0, 58, 39
1, 171459, Note_on_c, 0, 84, 49
1, 171460, Note_on_c, 0, 80, 44
1, 171460, Control_c, 0, 64, 27
1, 171518, Note_off_c, 0, 80, 58
1, 171519, Note_off_c, 0, 58, 63
1, 171520, Control_c, 0, 64, 28
1, 171565, Note_off_c, 0, 84, 60
1, 171568, Note_on_c, 0, 60, 43
1, 171579, Control_c, 0, 64, 28
1, 171585, Note_on_c, 0, 82, 54
1, 171589, Note_on_c, 0, 79, 42
1, 171624, Control_c, 0, 64, 29
1, 171631, Note_off_c, 0, 60, 59
1, 171647, Note_off_c, 0, 79, 58
1, 171692, Note_on_c, 0, 62, 37
1, 171696, Note_off_c, 0, 82, 52
1, 171706, Note_on_c, 0, 80, 55
1, 171735, Note_on_c, 0, 77, 4
1, 171772, Note_off_c, 0, 77, 38
1, 171773, Note_off_c, 0, 80, 54
1, 171778, Note_off_c, 0, 62, 54
1, 171821, Note_on_c, 0, 63, 26
1, 171833, Note_on_c, 0, 79, 38
1, 171928, Control_c, 0, 67, 127
1, 171933, Note_off_c, 0, 79, 62
1, 171942, Control_c, 0, 67, 126
1, 171957, Control_c, 0, 67, 125
1, 171963, Note_off_c, 0, 63, 54
1, 171972, Control_c, 0, 67, 125
1, 171987, Control_c, 0, 67, 123
1, 172002, Control_c, 0, 67, 121
1, 172017, Control_c, 0, 67, 118
1, 172032, Control_c, 0, 67, 115
1, 172046, Control_c, 0, 67, 113
1, 172061, Control_c, 0, 67, 111
1, 172076, Control_c, 0, 67, 107
1, 172091, Control_c, 0, 67, 101
1, 172106, Control_c, 0, 67, 93
1, 172120, Control_c, 0, 67, 75
1, 172135, Control_c, 0, 67, 49
1, 172150, Control_c, 0, 67, 20
1, 172165, Control_c, 0, 67, 0
1, 172314, Control_c, 0, 64, 29
1, 172343, Control_c, 0, 64, 30
1, 172387, Control_c, 0, 64, 30
1, 172588, Control_c, 0, 64, 31
1, 172602, Control_c, 0, 64, 33
1, 172617, Control_c, 0, 64, 37
1, 172619, Note_on_c, 0, 84, 99
1, 172628, Note_on_c, 0, 80, 81
1, 172632, Control_c, 0, 64, 39
1, 172647, Control_c, 0, 64, 39
1, 172726, Note_on_c, 0, 79, 78
1, 172727, Note_on_c, 0, 82, 95
1, 172752, Note_off_c, 0, 84, 64
1, 172780, Control_c, 0, 64, 40
1, 172790, Note_off_c, 0, 80, 40
1, 172839, Note_on_c, 0, 77, 81
1, 172840, Note_on_c, 0, 80, 89
1, 172855, Control_c, 0, 64, 39
1, 172859, Note_off_c, 0, 79, 54
1, 172860, Note_off_c, 0, 82, 64
1, 172869, Control_c, 0, 64, 39
1, 172942, Note_off_c, 0, 80, 63
1, 172943, Control_c, 0, 64, 38
1, 172955, Note_on_c, 0, 75, 80
1, 172956, Note_on_c, 0, 79, 91
1, 172958, Control_c, 0, 64, 36
1, 172962, Note_off_c, 0, 77, 60
1, 173017, Control_c, 0, 64, 36
1, 173032, Control_c, 0, 64, 34
1, 173047, Control_c, 0, 64, 32
1, 173062, Control_c, 0, 64, 31
1, 173072, Note_on_c, 0, 84, 98
1, 173074, Note_on_c, 0, 80, 80
1, 173084, Note_off_c, 0, 79, 45
1, 173087, Note_off_c, 0, 75, 53
1, 173141, Note_off_c, 0, 80, 57
1, 173183, Note_on_c, 0, 79, 76
1, 173194, Note_on_c, 0, 82, 88
1, 173221, Note_off_c, 0, 84, 62
1, 173262, Note_off_c, 0, 79, 63
1, 173300, Note_on_c, 0, 77, 72
1, 173303, Note_on_c, 0, 80, 92
1, 173329, Note_off_c, 0, 82, 64
1, 173381, Control_c, 0, 64, 32
1, 173396, Note_off_c, 0, 80, 64
1, 173411, Control_c, 0, 64, 32
1, 173413, Note_on_c, 0, 79, 86
1, 173417, Note_on_c, 0, 75, 72
1, 173422, Note_off_c, 0, 77, 61
1, 173425, Control_c, 0, 64, 33
1, 173440, Control_c, 0, 64, 33
1, 173470, Control_c, 0, 64, 34
1, 173485, Note_off_c, 0, 75, 61
1, 173515, Note_off_c, 0, 79, 0
1, 173522, Note_on_c, 0, 82, 88
1, 173528, Note_on_c, 0, 79, 65
1, 173558, Control_c, 0, 64, 34
1, 173610, Note_off_c, 0, 79, 51
1, 173618, Control_c, 0, 64, 35
1, 173638, Note_on_c, 0, 80, 90
1, 173645, Note_on_c, 0, 77, 67
1, 173647, Control_c, 0, 64, 35
1, 173661, Note_off_c, 0, 82, 56
1, 173691, Control_c, 0, 64, 36
1, 173751, Note_on_c, 0, 79, 83
1, 173752, Note_off_c, 0, 77, 63
1, 173757, Note_off_c, 0, 80, 56
1, 173761, Note_on_c, 0, 75, 67
1, 173795, Control_c, 0, 64, 36
1, 173840, Note_off_c, 0, 75, 60
1, 173847, Note_off_c, 0, 79, 63
1, 173873, Note_on_c, 0, 77, 85
1, 173878, Note_on_c, 0, 74, 63
1, 173922, Control_c, 0, 64, 37
1, 173937, Control_c, 0, 64, 38
1, 173956, Note_off_c, 0, 74, 47
1, 173979, Note_off_c, 0, 77, 53
1, 173984, Note_on_c, 0, 75, 80
1, 173993, Note_on_c, 0, 72, 63
1, 173996, Control_c, 0, 64, 38
1, 174026, Control_c, 0, 64, 39
1, 174070, Control_c, 0, 64, 39
1, 174086, Note_off_c, 0, 75, 58
1, 174088, Note_off_c, 0, 72, 62
1, 174091, Note_on_c, 0, 74, 74
1, 174101, Note_on_c, 0, 70, 60
1, 174129, Control_c, 0, 64, 40
1, 174164, Note_off_c, 0, 74, 61
1, 174173, Control_c, 0, 64, 40
1, 174205, Note_on_c, 0, 72, 75
1, 174210, Note_off_c, 0, 70, 57
1, 174218, Control_c, 0, 64, 41
1, 174220, Note_on_c, 0, 68, 58
1, 174247, Control_c, 0, 64, 41
1, 174277, Note_off_c, 0, 68, 58
1, 174277, Control_c, 0, 64, 42
1, 174292, Control_c, 0, 64, 42
1, 174307, Control_c, 0, 64, 43
1, 174321, Control_c, 0, 64, 44
1, 174327, Note_on_c, 0, 70, 72
1, 174331, Note_off_c, 0, 72, 39
1, 174340, Note_on_c, 0, 67, 47
1, 174366, Control_c, 0, 64, 44
1, 174381, Control_c, 0, 64, 45
1, 174415, Note_off_c, 0, 67, 51
1, 174431, Note_off_c, 0, 70, 54
1, 174442, Note_on_c, 0, 68, 68
1, 174452, Note_on_c, 0, 65, 49
1, 174548, Note_off_c, 0, 68, 57
1, 174554, Note_on_c, 0, 67, 61
1, 174559, Note_off_c, 0, 65, 53
1, 174572, Note_on_c, 0, 63, 47
1, 174636, Note_off_c, 0, 67, 61
1, 174652, Note_off_c, 0, 63, 52
1, 174688, Note_on_c, 0, 65, 60
1, 174709, Note_on_c, 0, 62, 40
1, 174740, Note_off_c, 0, 62, 55
1, 174854, Note_off_c, 0, 65, 59
1, 174864, Note_on_c, 0, 48, 45
1, 174867, Note_on_c, 0, 63, 65
1, 174953, Control_c, 0, 64, 45
1, 174957, Note_off_c, 0, 48, 56
1, 174968, Control_c, 0, 64, 50
1, 174983, Control_c, 0, 64, 55
1, 174991, Note_on_c, 0, 56, 44
1, 174997, Control_c, 0, 64, 59
1, 175012, Control_c, 0, 64, 63
1, 175027, Control_c, 0, 64, 65
1, 175042, Control_c, 0, 64, 69
1, 175057, Control_c, 0, 64, 74
1, 175058, Note_off_c, 0, 56, 55
1, 175071, Control_c, 0, 64, 80
1, 175086, Control_c, 0, 64, 87
1, 175101, Control_c, 0, 64, 95
1, 175114, Note_on_c, 0, 48, 42
1, 175115, Control_c, 0, 64, 98
1, 175129, Control_c, 0, 64, 97
1, 175144, Control_c, 0, 64, 96
1, 175159, Control_c, 0, 64, 94
1, 175174, Control_c, 0, 64, 92
1, 175178, Note_off_c, 0, 48, 56
1, 175189, Control_c, 0, 64, 90
1, 175204, Control_c, 0, 64, 87
1, 175218, Control_c, 0, 64, 84
1, 175224, Note_on_c, 0, 56, 44
1, 175233, Control_c, 0, 64, 80
1, 175248, Control_c, 0, 64, 76
1, 175263, Control_c, 0, 64, 72
1, 175278, Control_c, 0, 64, 69
1, 175293, Control_c, 0, 64, 66
1, 175295, Note_off_c, 0, 56, 55
1, 175308, Control_c, 0, 64, 64
1, 175323, Control_c, 0, 64, 63
1, 175337, Control_c, 0, 64, 61
1, 175347, Note_on_c, 0, 48, 33
1, 175352, Control_c, 0, 64, 59
1, 175367, Control_c, 0, 64, 56
1, 175382, Control_c, 0, 64, 55
1, 175396, Control_c, 0, 64, 54
1, 175417, Note_off_c, 0, 48, 56
1, 175418, Control_c, 0, 64, 53
1, 175433, Control_c, 0, 64, 53
1, 175463, Control_c, 0, 64, 52
1, 175479, Note_on_c, 0, 56, 40
1, 175493, Control_c, 0, 64, 52
1, 175550, Note_off_c, 0, 56, 53
1, 175595, Note_on_c, 0, 48, 38
1, 175655, Note_off_c, 0, 48, 61
1, 175663, Note_off_c, 0, 63, 60
1, 175707, Note_on_c, 0, 65, 51
1, 175723, Note_on_c, 0, 56, 30
1, 175759, Note_off_c, 0, 65, 58
1, 175768, Note_on_c, 0, 63, 52
1, 175779, Note_off_c, 0, 56, 46
1, 175809, Note_off_c, 0, 63, 63
1, 175812, Note_on_c, 0, 46, 39
1, 175824, Note_on_c, 0, 62, 61
1, 175925, Note_off_c, 0, 46, 54
1, 175955, Note_on_c, 0, 56, 48
1, 175967, Control_c, 0, 64, 52
1, 175982, Control_c, 0, 64, 54
1, 175996, Control_c, 0, 64, 57
1, 176011, Control_c, 0, 64, 61
1, 176026, Control_c, 0, 64, 64
1, 176041, Control_c, 0, 64, 65
1, 176051, Note_off_c, 0, 56, 57
1, 176056, Control_c, 0, 64, 67
1, 176058, Note_on_c, 0, 46, 57
1, 176071, Control_c, 0, 64, 70
1, 176085, Control_c, 0, 64, 72
1, 176100, Control_c, 0, 64, 75
1, 176115, Control_c, 0, 64, 78
1, 176129, Control_c, 0, 64, 81
1, 176144, Control_c, 0, 64, 82
1, 176149, Note_off_c, 0, 46, 60
1, 176181, Control_c, 0, 64, 81
1, 176184, Note_on_c, 0, 56, 60
1, 176196, Control_c, 0, 64, 80
1, 176211, Control_c, 0, 64, 79
1, 176226, Control_c, 0, 64, 78
1, 176241, Control_c, 0, 64, 75
1, 176256, Control_c, 0, 64, 72
1, 176271, Control_c, 0, 64, 68
1, 176285, Note_off_c, 0, 56, 51
1, 176286, Control_c, 0, 64, 65
1, 176300, Control_c, 0, 64, 63
1, 176301, Note_on_c, 0, 46, 43
1, 176306, Note_on_c, 0, 61, 64
1, 176315, Control_c, 0, 64, 61
1, 176321, Note_off_c, 0, 62, 59
1, 176330, Control_c, 0, 64, 59
1, 176345, Control_c, 0, 64, 58
1, 176360, Control_c, 0, 64, 57
1, 176375, Control_c, 0, 64, 56
1, 176390, Control_c, 0, 64, 54
1, 176393, Note_off_c, 0, 46, 59
1, 176405, Control_c, 0, 64, 53
1, 176420, Control_c, 0, 64, 52
1, 176427, Note_on_c, 0, 55, 48
1, 176435, Control_c, 0, 64, 52
1, 176449, Control_c, 0, 64, 51
1, 176464, Control_c, 0, 64, 51
1, 176496, Note_off_c, 0, 55, 52
1, 176533, Note_on_c, 0, 46, 43
1, 176601, Note_off_c, 0, 46, 58
1, 176650, Note_on_c, 0, 55, 40
1, 176745, Note_off_c, 0, 55, 45
1, 176755, Note_off_c, 0, 61, 59
1, 176769, Note_on_c, 0, 44, 32
1, 176777, Note_on_c, 0, 60, 57
1, 176857, Note_off_c, 0, 44, 54
1, 176902, Note_on_c, 0, 55, 42
1, 176984, Note_off_c, 0, 55, 54
1, 177033, Note_on_c, 0, 44, 35
1, 177096, Note_off_c, 0, 44, 57
1, 177137, Note_on_c, 0, 55, 42
1, 177198, Note_off_c, 0, 55, 55
1, 177273, Note_on_c, 0, 44, 35
1, 177350, Note_off_c, 0, 44, 52
1, 177403, Note_on_c, 0, 53, 37
1, 177469, Note_off_c, 0, 53, 53
1, 177505, Note_on_c, 0, 44, 38
1, 177580, Note_off_c, 0, 44, 53
1, 177597, Note_off_c, 0, 60, 61
1, 177618, Note_on_c, 0, 53, 39
1, 177624, Note_on_c, 0, 62, 47
1, 177672, Note_off_c, 0, 62, 64
1, 177687, Note_on_c, 0, 60, 56
1, 177690, Note_off_c, 0, 53, 56
1, 177735, Note_off_c, 0, 60, 64
1, 177738, Note_on_c, 0, 43, 46
1, 177752, Note_on_c, 0, 58, 60
1, 177830, Note_off_c, 0, 43, 52
1, 177869, Note_on_c, 0, 53, 50
1, 177983, Note_off_c, 0, 53, 52
1, 177986, Note_on_c, 0, 43, 52
1, 178013, Note_off_c, 0, 58, 62
1, 178086, Note_off_c, 0, 43, 58
1, 178093, Note_on_c, 0, 60, 64
1, 178107, Note_on_c, 0, 53, 57
1, 178125, Note_off_c, 0, 60, 67
1, 178151, Note_on_c, 0, 62, 76
1, 178184, Note_off_c, 0, 53, 53
1, 178208, Note_on_c, 0, 63, 87
1, 178214, Note_on_c, 0, 43, 60
1, 178229, Note_off_c, 0, 62, 62
1, 178311, Note_off_c, 0, 43, 58
1, 178332, Note_on_c, 0, 51, 64
1, 178444, Note_off_c, 0, 51, 55
1, 178446, Note_on_c, 0, 43, 63
1, 178540, Note_off_c, 0, 63, 62
1, 178561, Note_off_c, 0, 43, 60
1, 178576, Note_on_c, 0, 51, 62
1, 178586, Note_on_c, 0, 65, 69
1, 178632, Note_off_c, 0, 65, 64
1, 178638, Note_on_c, 0, 67, 80
1, 178670, Note_off_c, 0, 51, 59
1, 178680, Control_c, 0, 64, 50
1, 178692, Note_on_c, 0, 41, 59
1, 178700, Note_on_c, 0, 68, 90
1, 178709, Note_off_c, 0, 67, 63
1, 178785, Note_off_c, 0, 41, 59
1, 178815, Note_on_c, 0, 50, 60
1, 178932, Note_off_c, 0, 50, 34
1, 178936, Note_on_c, 0, 41, 49
1, 179001, Note_off_c, 0, 41, 55
1, 179022, Control_c, 0, 64, 50
1, 179050, Note_on_c, 0, 50, 53
1, 179144, Note_off_c, 0, 50, 46
1, 179183, Note_on_c, 0, 39, 48
1, 179197, Note_off_c, 0, 68, 57
1, 179202, Note_on_c, 0, 67, 57
1, 179300, Note_off_c, 0, 39, 47
1, 179317, Note_on_c, 0, 43, 46
1, 179425, Note_off_c, 0, 43, 58
1, 179451, Note_on_c, 0, 46, 45
1, 179529, Note_off_c, 0, 46, 59
1, 179574, Note_on_c, 0, 51, 43
1, 179741, Note_off_c, 0, 51, 25
1, 179741, Control_c, 0, 64, 49
1, 179754, Note_off_c, 0, 67, 62
1, 179756, Control_c, 0, 64, 48
1, 179770, Note_on_c, 0, 46, 40
1, 179771, Control_c, 0, 64, 46
1, 179785, Note_on_c, 0, 65, 58
1, 179785, Control_c, 0, 64, 43
1, 179800, Control_c, 0, 64, 40
1, 179815, Control_c, 0, 64, 38
1, 179830, Control_c, 0, 64, 39
1, 179845, Control_c, 0, 64, 50
1, 179860, Control_c, 0, 64, 59
1, 179875, Control_c, 0, 64, 64
1, 179890, Control_c, 0, 64, 67
1, 179912, Control_c, 0, 64, 72
1, 179927, Control_c, 0, 64, 82
1, 179941, Control_c, 0, 64, 105
1, 179953, Note_off_c, 0, 65, 54
1, 179956, Control_c, 0, 64, 127
1, 179997, Note_on_c, 0, 70, 53
1, 180021, Note_off_c, 0, 46, 57
1, 180089, Note_off_c, 0, 70, 57
1, 180119, Control_c, 0, 64, 98
1, 180134, Control_c, 0, 64, 80
1, 180135, Note_on_c, 0, 69, 52
1, 180149, Control_c, 0, 64, 70
1, 180164, Control_c, 0, 64, 62
1, 180179, Control_c, 0, 64, 51
1, 180193, Control_c, 0, 64, 44
1, 180208, Control_c, 0, 64, 43
1, 180240, Note_off_c, 0, 69, 40
1, 180253, Note_on_c, 0, 72, 55
1, 180322, Note_off_c, 0, 72, 51
1, 180371, Note_on_c, 0, 70, 54
1, 180371, Control_c, 0, 64, 43
1, 180430, Control_c, 0, 64, 44
1, 180450, Note_on_c, 0, 58, 47
1, 180473, Note_off_c, 0, 70, 49
1, 180484, Note_on_c, 0, 74, 57
1, 180489, Control_c, 0, 64, 44
1, 180504, Control_c, 0, 64, 45
1, 180519, Control_c, 0, 64, 45
1, 180537, Note_off_c, 0, 58, 57
1, 180547, Note_off_c, 0, 74, 60
1, 180578, Note_on_c, 0, 57, 44
1, 180578, Control_c, 0, 64, 46
1, 180603, Note_on_c, 0, 72, 59
1, 180675, Control_c, 0, 64, 46
1, 180678, Note_off_c, 0, 57, 60
1, 180703, Note_off_c, 0, 72, 51
1, 180704, Control_c, 0, 64, 47
1, 180711, Note_on_c, 0, 75, 69
1, 180721, Note_on_c, 0, 60, 48
1, 180797, Note_off_c, 0, 60, 53
1, 180826, Note_off_c, 0, 75, 61
1, 180830, Note_on_c, 0, 58, 49
1, 180836, Note_on_c, 0, 74, 70
1, 180852, Control_c, 0, 64, 47
1, 180907, Note_off_c, 0, 58, 52
1, 180935, Note_off_c, 0, 74, 56
1, 180939, Note_on_c, 0, 77, 78
1, 180950, Note_on_c, 0, 62, 49
1, 181029, Note_off_c, 0, 77, 61
1, 181033, Note_off_c, 0, 62, 58
1, 181062, Note_on_c, 0, 76, 76
1, 181070, Note_on_c, 0, 60, 50
1, 181150, Note_off_c, 0, 60, 64
1, 181168, Note_off_c, 0, 76, 58
1, 181172, Note_on_c, 0, 79, 80
1, 181183, Note_on_c, 0, 63, 56
1, 181225, Note_off_c, 0, 63, 63
1, 181270, Note_off_c, 0, 79, 63
1, 181295, Note_on_c, 0, 77, 79
1, 181299, Note_on_c, 0, 62, 56
1, 181379, Note_off_c, 0, 62, 62
1, 181420, Note_on_c, 0, 80, 86
1, 181422, Note_on_c, 0, 65, 64
1, 181424, Note_off_c, 0, 77, 61
1, 181508, Note_off_c, 0, 65, 55
1, 181526, Note_off_c, 0, 80, 57
1, 181533, Note_on_c, 0, 64, 63
1, 181533, Note_on_c, 0, 79, 79
1, 181621, Note_off_c, 0, 64, 59
1, 181627, Note_off_c, 0, 79, 64
1, 181630, Note_on_c, 0, 82, 77
1, 181653, Note_on_c, 0, 67, 57
1, 181779, Note_off_c, 0, 67, 40
1, 181781, Note_on_c, 0, 80, 84
1, 181797, Note_on_c, 0, 65, 58
1, 181804, Note_off_c, 0, 82, 58
1, 181922, Note_on_c, 0, 79, 65
1, 182014, Note_off_c, 0, 80, 60
1, 182029, Note_off_c, 0, 79, 64
1, 182048, Note_on_c, 0, 77, 72
1, 182127, Note_off_c, 0, 77, 61
1, 182135, Control_c, 0, 64, 48
1, 182180, Note_on_c, 0, 75, 67
1, 182252, Note_off_c, 0, 75, 61
1, 182295, Note_on_c, 0, 74, 61
1, 182298, Note_on_c, 0, 58, 46
1, 182343, Note_off_c, 0, 65, 45
1, 182382, Note_off_c, 0, 74, 55
1, 182400, Note_on_c, 0, 84, 68
1, 182424, Control_c, 0, 64, 47
1, 182483, Control_c, 0, 64, 47
1, 182513, Note_on_c, 0, 82, 75
1, 182516, Note_off_c, 0, 84, 60
1, 182626, Note_on_c, 0, 80, 85
1, 182653, Note_off_c, 0, 82, 63
1, 182752, Note_on_c, 0, 63, 50
1, 182754, Note_on_c, 0, 79, 83
1, 182757, Note_off_c, 0, 80, 64
1, 182764, Note_on_c, 0, 67, 63
1, 182837, Note_off_c, 0, 58, 63
1, 182856, Control_c, 0, 64, 46
1, 182862, Note_on_c, 0, 80, 86
1, 182867, Note_off_c, 0, 79, 63
1, 182918, Note_off_c, 0, 67, 62
1, 182930, Note_off_c, 0, 63, 63
1, 182988, Note_on_c, 0, 82, 88
1, 183017, Note_off_c, 0, 80, 63
1, 183087, Note_off_c, 0, 82, 57
1, 183091, Note_on_c, 0, 83, 87
1, 183130, Control_c, 0, 64, 46
1, 183240, Note_on_c, 0, 84, 88
1, 183242, Note_on_c, 0, 75, 87
1, 183261, Note_off_c, 0, 83, 42
1, 183370, Note_off_c, 0, 84, 62
1, 183374, Note_on_c, 0, 79, 80
1, 183470, Control_c, 0, 64, 45
1, 183492, Note_off_c, 0, 79, 63
1, 183494, Note_on_c, 0, 84, 78
1, 183584, Note_off_c, 0, 75, 61
1, 183609, Note_off_c, 0, 84, 59
1, 183616, Note_on_c, 0, 77, 70
1, 183627, Note_on_c, 0, 79, 68
1, 183667, Note_off_c, 0, 77, 59
1, 183675, Note_on_c, 0, 75, 70
1, 183730, Note_off_c, 0, 79, 63
1, 183731, Note_on_c, 0, 74, 70
1, 183744, Note_off_c, 0, 75, 62
1, 183750, Note_on_c, 0, 84, 65
1, 183775, Control_c, 0, 64, 46
1, 183827, Note_off_c, 0, 74, 61
1, 183840, Note_off_c, 0, 84, 59
1, 183859, Note_on_c, 0, 77, 64
1, 183908, Control_c, 0, 64, 46
1, 183950, Note_off_c, 0, 77, 60
1, 183977, Note_on_c, 0, 84, 57
1, 184041, Control_c, 0, 64, 47
1, 184049, Note_off_c, 0, 84, 55
1, 184087, Note_on_c, 0, 77, 55
1, 184185, Note_off_c, 0, 77, 44
1, 184223, Note_on_c, 0, 37, 48
1, 184226, Note_on_c, 0, 82, 50
1, 184308, Control_c, 0, 64, 47
1, 184314, Note_off_c, 0, 82, 59
1, 184352, Note_on_c, 0, 77, 49
1, 184458, Note_off_c, 0, 77, 47
1, 184506, Note_on_c, 0, 82, 39
1, 184557, Note_off_c, 0, 37, 48
1, 184564, Note_off_c, 0, 82, 61
1, 184595, Note_on_c, 0, 39, 44
1, 184623, Note_on_c, 0, 77, 44
1, 184647, Note_off_c, 0, 39, 56
1, 184663, Note_on_c, 0, 37, 48
1, 184683, Note_off_c, 0, 77, 52
1, 184706, Note_off_c, 0, 37, 61
1, 184724, Note_on_c, 0, 36, 53
1, 184745, Note_on_c, 0, 82, 44
1, 184800, Note_off_c, 0, 82, 65
1, 184841, Note_off_c, 0, 36, 62
1, 184863, Note_on_c, 0, 76, 51
1, 184933, Note_off_c, 0, 76, 59
1, 184980, Note_on_c, 0, 82, 50
1, 185085, Note_off_c, 0, 82, 53
1, 185109, Note_on_c, 0, 76, 47
1, 185204, Note_off_c, 0, 76, 57
1, 185225, Note_on_c, 0, 72, 66
1, 185228, Note_on_c, 0, 80, 58
1, 185312, Note_off_c, 0, 80, 65
1, 185350, Note_on_c, 0, 75, 65
1, 185458, Note_off_c, 0, 75, 55
1, 185466, Note_on_c, 0, 80, 56
1, 185541, Note_off_c, 0, 72, 59
1, 185576, Note_on_c, 0, 73, 54
1, 185577, Note_off_c, 0, 80, 55
1, 185596, Note_on_c, 0, 75, 57
1, 185622, Note_off_c, 0, 73, 61
1, 185631, Note_on_c, 0, 72, 63
1, 185661, Note_off_c, 0, 75, 51
1, 185690, Note_off_c, 0, 72, 62
1, 185702, Note_on_c, 0, 80, 53
1, 185706, Note_on_c, 0, 70, 60
1, 185792, Note_off_c, 0, 70, 64
1, 185795, Note_off_c, 0, 80, 56
1, 185830, Note_on_c, 0, 74, 49
1, 185909, Note_off_c, 0, 74, 55
1, 185945, Note_on_c, 0, 80, 46
1, 186022, Note_off_c, 0, 80, 48
1, 186057, Note_on_c, 0, 74, 42
1, 186149, Note_off_c, 0, 74, 49
1, 186187, Note_on_c, 0, 34, 48
1, 186206, Note_on_c, 0, 79, 42
1, 186266, Note_off_c, 0, 79, 59
1, 186303, Note_on_c, 0, 73, 48
1, 186407, Note_off_c, 0, 73, 37
1, 186438, Note_on_c, 0, 79, 38
1, 186511, Note_off_c, 0, 34, 53
1, 186529, Note_off_c, 0, 79, 47
1, 186549, Note_on_c, 0, 73, 35
1, 186552, Note_on_c, 0, 36, 43
1, 186617, Note_off_c, 0, 36, 57
1, 186618, Note_on_c, 0, 34, 49
1, 186666, Note_off_c, 0, 34, 55
1, 186676, Note_on_c, 0, 32, 51
1, 186694, Note_on_c, 0, 79, 49
1, 186713, Note_off_c, 0, 73, 45
1, 186793, Note_off_c, 0, 32, 61
1, 186814, Note_off_c, 0, 79, 54
1, 186827, Note_on_c, 0, 72, 48
1, 186890, Note_off_c, 0, 72, 54
1, 186946, Note_on_c, 0, 79, 48
1, 187066, Note_on_c, 0, 72, 41
1, 187074, Note_off_c, 0, 79, 30
1, 187141, Note_off_c, 0, 72, 53
1, 187172, Note_on_c, 0, 68, 67
1, 187180, Note_on_c, 0, 77, 56
1, 187198, Control_c, 0, 64, 48
1, 187276, Note_off_c, 0, 77, 59
1, 187319, Note_on_c, 0, 72, 50
1, 187368, Note_off_c, 0, 72, 59
1, 187423, Note_on_c, 0, 77, 53
1, 187490, Note_off_c, 0, 68, 61
1, 187507, Note_off_c, 0, 77, 60
1, 187522, Note_on_c, 0, 70, 59
1, 187557, Note_on_c, 0, 72, 27
1, 187586, Note_off_c, 0, 70, 48
1, 187592, Note_on_c, 0, 68, 45
1, 187601, Note_off_c, 0, 72, 50
1, 187632, Note_off_c, 0, 68, 63
1, 187636, Note_on_c, 0, 67, 59
1, 187658, Note_on_c, 0, 77, 49
1, 187717, Note_off_c, 0, 67, 60
1, 187730, Note_off_c, 0, 77, 59
1, 187773, Note_on_c, 0, 70, 42
1, 187854, Note_off_c, 0, 70, 55
1, 187879, Note_on_c, 0, 77, 46
1, 187942, Note_off_c, 0, 77, 56
1, 187991, Note_on_c, 0, 70, 45
1, 188098, Note_off_c, 0, 70, 55
1, 188125, Note_on_c, 0, 31, 46
1, 188126, Note_on_c, 0, 75, 52
1, 188219, Note_off_c, 0, 75, 57
1, 188239, Note_on_c, 0, 70, 58
1, 188344, Note_off_c, 0, 70, 63
1, 188349, Note_on_c, 0, 75, 66
1, 188432, Note_off_c, 0, 31, 61
1, 188453, Note_on_c, 0, 32, 70
1, 188466, Note_off_c, 0, 75, 61
1, 188478, Note_on_c, 0, 70, 67
1, 188532, Note_on_c, 0, 31, 70
1, 188535, Note_off_c, 0, 32, 61
1, 188555, Note_off_c, 0, 70, 63
1, 188570, Note_on_c, 0, 29, 76
1, 188587, Note_on_c, 0, 74, 75
1, 188598, Note_off_c, 0, 31, 62
1, 188624, Note_on_c, 0, 28, 17
1, 188648, Note_off_c, 0, 74, 63
1, 188675, Note_off_c, 0, 28, 38
1, 188688, Note_on_c, 0, 70, 67
1, 188778, Note_off_c, 0, 29, 35
1, 188793, Note_off_c, 0, 70, 54
1, 188814, Note_on_c, 0, 80, 76
1, 188822, Note_on_c, 0, 38, 73
1, 188853, Note_off_c, 0, 38, 65
1, 188907, Note_off_c, 0, 80, 62
1, 188937, Note_on_c, 0, 70, 57
1, 189032, Note_off_c, 0, 70, 60
1, 189050, Note_on_c, 0, 39, 65
1, 189055, Note_on_c, 0, 79, 83
1, 189081, Note_off_c, 0, 39, 64
1, 189146, Note_off_c, 0, 79, 64
1, 189169, Note_on_c, 0, 70, 59
1, 189273, Note_off_c, 0, 70, 53
1, 189295, Note_on_c, 0, 75, 81
1, 189300, Note_on_c, 0, 43, 65
1, 189333, Note_off_c, 0, 43, 65
1, 189371, Note_off_c, 0, 75, 61
1, 189404, Note_on_c, 0, 70, 53
1, 189533, Note_off_c, 0, 70, 53
1, 189555, Note_on_c, 0, 74, 57
1, 189567, Note_on_c, 0, 46, 43
1, 189578, Control_c, 0, 64, 52
1, 189593, Control_c, 0, 64, 57
1, 189607, Control_c, 0, 64, 61
1, 189622, Control_c, 0, 64, 63
1, 189644, Control_c, 0, 64, 64
1, 189646, Note_off_c, 0, 74, 62
1, 189659, Control_c, 0, 64, 65
1, 189674, Control_c, 0, 64, 66
1, 189689, Control_c, 0, 64, 67
1, 189692, Note_off_c, 0, 46, 50
1, 189704, Control_c, 0, 64, 69
1, 189718, Control_c, 0, 64, 71
1, 189733, Control_c, 0, 64, 75
1, 189748, Control_c, 0, 64, 80
1, 189763, Control_c, 0, 64, 86
1, 189778, Control_c, 0, 64, 88
1, 189792, Control_c, 0, 64, 85
1, 189795, Note_on_c, 0, 53, 55
1, 189807, Control_c, 0, 64, 77
1, 189811, Note_on_c, 0, 82, 76
1, 189822, Control_c, 0, 64, 66
1, 189837, Control_c, 0, 64, 54
1, 189842, Note_on_c, 0, 74, 38
1, 189852, Control_c, 0, 64, 44
1, 189867, Control_c, 0, 64, 47
1, 189876, Note_off_c, 0, 53, 49
1, 189882, Control_c, 0, 64, 54
1, 189897, Control_c, 0, 64, 60
1, 189912, Control_c, 0, 64, 64
1, 189916, Note_on_c, 0, 46, 45
1, 189927, Control_c, 0, 64, 67
1, 189932, Note_off_c, 0, 74, 0
1, 189941, Control_c, 0, 64, 69
1, 189956, Control_c, 0, 64, 71
1, 189968, Poly_aftertouch_c, 0, 74, 127
1, 189971, Control_c, 0, 64, 74
1, 189980, Note_off_c, 0, 82, 62
1, 189986, Control_c, 0, 64, 79
1, 190001, Poly_aftertouch_c, 0, 74, 0
1, 190001, Control_c, 0, 64, 86
1, 190014, Note_off_c, 0, 46, 54
1, 190016, Control_c, 0, 64, 92
1, 190031, Control_c, 0, 64, 93
1, 190042, Note_on_c, 0, 54, 61
1, 190045, Control_c, 0, 64, 90
1, 190059, Note_on_c, 0, 81, 80
1, 190060, Control_c, 0, 64, 81
1, 190061, Note_on_c, 0, 75, 72
1, 190075, Control_c, 0, 64, 71
1, 190090, Control_c, 0, 64, 64
1, 190105, Control_c, 0, 64, 59
1, 190120, Control_c, 0, 64, 60
1, 190135, Control_c, 0, 64, 63
1, 190150, Control_c, 0, 64, 66
1, 190153, Note_off_c, 0, 54, 60
1, 190165, Control_c, 0, 64, 69
1, 190167, Note_on_c, 0, 46, 46
1, 190180, Control_c, 0, 64, 74
1, 190195, Control_c, 0, 64, 80
1, 190209, Control_c, 0, 64, 86
1, 190218, Note_off_c, 0, 75, 59
1, 190221, Note_off_c, 0, 81, 60
1, 190224, Control_c, 0, 64, 91
1, 190239, Control_c, 0, 64, 98
1, 190254, Control_c, 0, 64, 105
1, 190264, Note_off_c, 0, 46, 56
1, 190283, Control_c, 0, 64, 98
1, 190298, Control_c, 0, 64, 86
1, 190302, Note_on_c, 0, 57, 53
1, 190310, Note_on_c, 0, 75, 68
1, 190311, Note_on_c, 0, 78, 77
1, 190313, Control_c, 0, 64, 74
1, 190328, Control_c, 0, 64, 65
1, 190342, Control_c, 0, 64, 59
1, 190357, Control_c, 0, 64, 60
1, 190364, Note_off_c, 0, 57, 58
1, 190372, Control_c, 0, 64, 63
1, 190394, Control_c, 0, 64, 65
1, 190409, Control_c, 0, 64, 68
1, 190421, Note_on_c, 0, 46, 46
1, 190422, Note_off_c, 0, 78, 55
1, 190424, Control_c, 0, 64, 71
1, 190439, Control_c, 0, 64, 75
1, 190444, Note_off_c, 0, 75, 58
1, 190454, Control_c, 0, 64, 79
1, 190468, Control_c, 0, 64, 83
1, 190483, Control_c, 0, 64, 90
1, 190498, Control_c, 0, 64, 99
1, 190513, Control_c, 0, 64, 112
1, 190525, Note_off_c, 0, 46, 54
1, 190528, Control_c, 0, 64, 121
1, 190535, Note_on_c, 0, 58, 61
1, 190542, Control_c, 0, 64, 114
1, 190544, Note_on_c, 0, 77, 70
1, 190555, Note_on_c, 0, 74, 51
1, 190557, Control_c, 0, 64, 104
1, 190572, Control_c, 0, 64, 90
1, 190587, Control_c, 0, 64, 76
1, 190594, Note_off_c, 0, 58, 49
1, 190602, Control_c, 0, 64, 65
1, 190616, Control_c, 0, 64, 52
1, 190631, Control_c, 0, 64, 46
1, 190646, Control_c, 0, 64, 47
1, 190654, Note_on_c, 0, 46, 53
1, 190661, Control_c, 0, 64, 51
1, 190668, Note_off_c, 0, 74, 57
1, 190675, Control_c, 0, 64, 55
1, 190691, Control_c, 0, 64, 59
1, 190706, Control_c, 0, 64, 62
1, 190721, Control_c, 0, 64, 64
1, 190736, Control_c, 0, 64, 65
1, 190737, Note_off_c, 0, 46, 48
1, 190749, Note_off_c, 0, 77, 52
1, 190751, Control_c, 0, 64, 65
1, 190761, Note_on_c, 0, 53, 66
1, 190765, Control_c, 0, 64, 67
1, 190780, Control_c, 0, 64, 69
1, 190785, Note_on_c, 0, 82, 87
1, 190787, Note_on_c, 0, 74, 73
1, 190795, Control_c, 0, 64, 72
1, 190810, Control_c, 0, 64, 80
1, 190825, Control_c, 0, 64, 94
1, 190829, Note_off_c, 0, 53, 57
1, 190839, Control_c, 0, 64, 127
1, 190886, Note_on_c, 0, 46, 66
1, 190917, Note_off_c, 0, 74, 47
1, 190925, Note_off_c, 0, 82, 57
1, 190958, Control_c, 0, 64, 90
1, 190972, Control_c, 0, 64, 71
1, 190987, Control_c, 0, 64, 55
1, 190996, Note_on_c, 0, 54, 76
1, 191002, Control_c, 0, 64, 0
1, 191007, Note_off_c, 0, 46, 60
1, 191016, Note_on_c, 0, 81, 84
1, 191020, Note_on_c, 0, 75, 76
1, 191031, Control_c, 0, 64, 40
1, 191046, Control_c, 0, 64, 55
1, 191061, Control_c, 0, 64, 63
1, 191076, Control_c, 0, 64, 66
1, 191090, Control_c, 0, 64, 68
1, 191105, Control_c, 0, 64, 71
1, 191120, Control_c, 0, 64, 76
1, 191127, Note_off_c, 0, 54, 62
1, 191142, Note_on_c, 0, 46, 62
1, 191142, Control_c, 0, 64, 84
1, 191157, Control_c, 0, 64, 95
1, 191172, Control_c, 0, 64, 115
1, 191178, Note_off_c, 0, 81, 57
1, 191187, Control_c, 0, 64, 127
1, 191199, Note_off_c, 0, 75, 53
1, 191261, Control_c, 0, 64, 96
1, 191267, Note_off_c, 0, 46, 53
1, 191271, Note_on_c, 0, 57, 71
1, 191271, Note_on_c, 0, 78, 88
1, 191274, Note_on_c, 0, 75, 82
1, 191276, Control_c, 0, 64, 74
1, 191290, Control_c, 0, 64, 61
1, 191305, Control_c, 0, 64, 51
1, 191320, Control_c, 0, 64, 55
1, 191335, Control_c, 0, 64, 61
1, 191350, Control_c, 0, 64, 67
1, 191357, Note_off_c, 0, 57, 63
1, 191364, Control_c, 0, 64, 73
1, 191378, Note_off_c, 0, 75, 60
1, 191379, Control_c, 0, 64, 82
1, 191381, Note_off_c, 0, 78, 63
1, 191390, Note_on_c, 0, 46, 65
1, 191394, Control_c, 0, 64, 91
1, 191409, Control_c, 0, 64, 109
1, 191424, Control_c, 0, 64, 127
1, 191483, Control_c, 0, 64, 95
1, 191491, Note_on_c, 0, 58, 83
1, 191497, Note_on_c, 0, 77, 100
1, 191499, Control_c, 0, 64, 68
1, 191502, Note_off_c, 0, 46, 58
1, 191506, Note_on_c, 0, 74, 82
1, 191513, Control_c, 0, 64, 48
1, 191528, Control_c, 0, 64, 37
1, 191543, Control_c, 0, 64, 49
1, 191558, Control_c, 0, 64, 62
1, 191573, Control_c, 0, 64, 70
1, 191587, Control_c, 0, 64, 99
1, 191593, Note_off_c, 0, 77, 64
1, 191596, Note_off_c, 0, 58, 60
1, 191602, Control_c, 0, 64, 127
1, 191620, Note_on_c, 0, 46, 79
1, 191629, Note_off_c, 0, 74, 27
1, 191721, Control_c, 0, 64, 85
1, 191731, Note_on_c, 0, 58, 85
1, 191735, Note_on_c, 0, 79, 105
1, 191736, Control_c, 0, 64, 58
1, 191741, Note_on_c, 0, 76, 91
1, 191751, Control_c, 0, 64, 0
1, 191751, Note_off_c, 0, 46, 61
1, 191786, Note_off_c, 0, 76, 49
1, 191795, Control_c, 0, 64, 56
1, 191810, Control_c, 0, 64, 71
1, 191819, Note_off_c, 0, 58, 58
1, 191825, Control_c, 0, 64, 127
1, 191855, Note_off_c, 0, 79, 59
1, 191863, Note_on_c, 0, 46, 81
1, 191971, Note_on_c, 0, 58, 82
1, 191980, Note_on_c, 0, 80, 106
1, 191980, Control_c, 0, 64, 76
1, 191986, Note_on_c, 0, 77, 97
1, 191989, Note_off_c, 0, 46, 61
1, 191995, Control_c, 0, 64, 45
1, 192010, Control_c, 0, 64, 0
1, 192039, Control_c, 0, 64, 42
1, 192042, Note_off_c, 0, 58, 60
1, 192054, Control_c, 0, 64, 65
1, 192069, Control_c, 0, 64, 77
1, 192084, Control_c, 0, 64, 127
1, 192101, Note_on_c, 0, 46, 76
1, 192132, Note_off_c, 0, 80, 63
1, 192162, Note_off_c, 0, 77, 63
1, 192213, Note_on_c, 0, 58, 83
1, 192215, Note_on_c, 0, 79, 96
1, 192222, Note_on_c, 0, 76, 94
1, 192226, Note_off_c, 0, 46, 57
1, 192264, Note_off_c, 0, 76, 64
1, 192296, Note_off_c, 0, 79, 65
1, 192297, Note_off_c, 0, 58, 54
1, 192332, Note_on_c, 0, 46, 79
1, 192469, Note_on_c, 0, 58, 82
1, 192470, Control_c, 0, 64, 98
1, 192472, Note_on_c, 0, 82, 98
1, 192474, Note_on_c, 0, 79, 89
1, 192484, Note_off_c, 0, 46, 59
1, 192484, Control_c, 0, 64, 69
1, 192499, Control_c, 0, 64, 38
1, 192514, Control_c, 0, 64, 0
1, 192529, Control_c, 0, 64, 24
1, 192543, Control_c, 0, 64, 51
1, 192558, Control_c, 0, 64, 62
1, 192573, Control_c, 0, 64, 68
1, 192585, Note_off_c, 0, 58, 61
1, 192588, Control_c, 0, 64, 75
1, 192603, Control_c, 0, 64, 86
1, 192612, Note_on_c, 0, 46, 69
1, 192618, Control_c, 0, 64, 127
1, 192663, Note_off_c, 0, 82, 55
1, 192725, Note_off_c, 0, 79, 59
1, 192736, Note_on_c, 0, 58, 84
1, 192746, Note_off_c, 0, 46, 57
1, 192809, Note_off_c, 0, 58, 54
1, 192856, Note_on_c, 0, 46, 77
1, 192937, Note_on_c, 0, 80, 97
1, 192943, Note_on_c, 0, 77, 91
1, 192967, Note_on_c, 0, 58, 84
1, 192972, Note_off_c, 0, 46, 45
1, 193016, Note_off_c, 0, 77, 59
1, 193020, Note_off_c, 0, 58, 60
1, 193028, Note_off_c, 0, 80, 63
1, 193088, Note_on_c, 0, 46, 75
1, 193183, Note_off_c, 0, 46, 62
1, 193205, Note_on_c, 0, 58, 84
1, 193214, Note_on_c, 0, 77, 102
1, 193219, Note_on_c, 0, 74, 84
1, 193248, Note_off_c, 0, 77, 66
1, 193256, Note_off_c, 0, 74, 61
1, 193265, Note_off_c, 0, 58, 61
1, 193307, Note_on_c, 0, 46, 78
1, 193340, Note_off_c, 0, 46, 63
1, 193533, Note_on_c, 0, 51, 83
1, 193535, Note_on_c, 0, 75, 109
1, 193537, Control_c, 0, 64, 97
1, 193539, Note_on_c, 0, 55, 77
1, 193540, Note_on_c, 0, 58, 81
1, 193542, Note_on_c, 0, 67, 92
1, 193545, Note_on_c, 0, 70, 90
1, 193552, Control_c, 0, 64, 60
1, 193566, Control_c, 0, 64, 0
1, 193611, Control_c, 0, 64, 22
1, 193626, Control_c, 0, 64, 62
1, 193640, Control_c, 0, 64, 80
1, 193655, Control_c, 0, 64, 127
1, 193688, Note_off_c, 0, 67, 62
1, 193699, Note_off_c, 0, 58, 63
1, 193700, Note_off_c, 0, 51, 64
1, 193703, Note_off_c, 0, 55, 63
1, 193729, Note_off_c, 0, 70, 61
1, 193733, Note_off_c, 0, 75, 60
1, 194060, Note_on_c, 0, 79, 103
1, 194062, Note_on_c, 0, 51, 78
1, 194067, Note_on_c, 0, 75, 99
1, 194068, Note_on_c, 0, 58, 78
1, 194069, Note_on_c, 0, 55, 72
1, 194070, Note_on_c, 0, 73, 94
1, 194072, Control_c, 0, 64, 82
1, 194073, Note_on_c, 0, 61, 85
1, 194087, Control_c, 0, 64, 0
1, 194137, Note_off_c, 0, 73, 52
1, 194138, Control_c, 0, 64, 39
1, 194153, Control_c, 0, 64, 127
1, 194173, Note_off_c, 0, 61, 60
1, 194186, Note_off_c, 0, 75, 58
1, 194191, Note_off_c, 0, 51, 64
1, 194195, Note_off_c, 0, 79, 60
1, 194201, Note_off_c, 0, 58, 62
1, 194211, Note_off_c, 0, 55, 63
1, 194219, Poly_aftertouch_c, 0, 53, 127
1, 194246, Poly_aftertouch_c, 0, 53, 0
1, 194449, Note_on_c, 0, 79, 95
1, 194454, Note_on_c, 0, 56, 67
1, 194460, Note_on_c, 0, 75, 83
1, 194463, Note_on_c, 0, 73, 66
1, 194466, Note_on_c, 0, 61, 58
1, 194482, Note_off_c, 0, 73, 45
1, 194493, Note_off_c, 0, 61, 58
1, 194511, Note_off_c, 0, 79, 64
1, 194518, Note_off_c, 0, 75, 57
1, 194520, Note_on_c, 0, 51, 2
1, 194526, Note_on_c, 0, 74, 3
1, 194546, Note_off_c, 0, 56, 48
1, 194550, Poly_aftertouch_c, 0, 76, 127
1, 194562, Note_off_c, 0, 51, 0
1, 194565, Note_off_c, 0, 74, 36
1, 194576, Note_on_c, 0, 80, 109
1, 194576, Note_on_c, 0, 51, 69
1, 194577, Note_on_c, 0, 60, 94
1, 194579, Poly_aftertouch_c, 0, 76, 0
1, 194585, Note_on_c, 0, 72, 93
1, 194591, Note_on_c, 0, 56, 50
1, 194600, Note_on_c, 0, 75, 70
1, 194627, Control_c, 0, 64, 96
1, 194642, Control_c, 0, 64, 69
1, 194656, Control_c, 0, 64, 23
1, 194671, Control_c, 0, 64, 0
1, 194791, Control_c, 0, 64, 34
1, 194805, Control_c, 0, 64, 63
1, 194812, Note_off_c, 0, 72, 57
1, 194820, Control_c, 0, 64, 71
1, 194828, Note_off_c, 0, 75, 61
1, 194835, Control_c, 0, 64, 88
1, 194850, Control_c, 0, 64, 127
1, 194899, Note_off_c, 0, 80, 0
1, 194936, Poly_aftertouch_c, 0, 80, 127
1, 195138, Control_c, 0, 64, 104
1, 195153, Control_c, 0, 64, 101
1, 195168, Control_c, 0, 64, 102
1, 195211, Note_on_c, 0, 82, 65
1, 195235, Poly_aftertouch_c, 0, 80, 0
1, 195247, Note_off_c, 0, 82, 66
1, 195253, Note_on_c, 0, 84, 76
1, 195271, Control_c, 0, 64, 101
1, 195286, Control_c, 0, 64, 100
1, 195301, Control_c, 0, 64, 99
1, 195316, Note_on_c, 0, 82, 78
1, 195316, Control_c, 0, 64, 96
1, 195322, Note_off_c, 0, 84, 62
1, 195331, Control_c, 0, 64, 93
1, 195346, Control_c, 0, 64, 89
1, 195360, Control_c, 0, 64, 84
1, 195366, Note_on_c, 0, 80, 72
1, 195368, Note_off_c, 0, 82, 67
1, 195375, Control_c, 0, 64, 79
1, 195381, Note_off_c, 0, 60, 54
1, 195385, Note_off_c, 0, 56, 55
1, 195390, Control_c, 0, 64, 75
1, 195392, Note_off_c, 0, 51, 58
1, 195405, Control_c, 0, 64, 72
1, 195420, Control_c, 0, 64, 71
1, 195425, Note_on_c, 0, 79, 74
1, 195432, Note_off_c, 0, 80, 66
1, 195435, Control_c, 0, 64, 70
1, 195450, Control_c, 0, 64, 69
1, 195459, Note_off_c, 0, 79, 66
1, 195464, Control_c, 0, 64, 67
1, 195470, Note_on_c, 0, 77, 84
1, 195480, Control_c, 0, 64, 65
1, 195495, Control_c, 0, 64, 63
1, 195509, Control_c, 0, 64, 60
1, 195524, Control_c, 0, 64, 57
1, 195533, Note_on_c, 0, 75, 86
1, 195538, Note_off_c, 0, 77, 61
1, 195539, Control_c, 0, 64, 53
1, 195554, Control_c, 0, 64, 49
1, 195569, Control_c, 0, 64, 46
1, 195572, Note_on_c, 0, 56, 73
1, 195573, Note_on_c, 0, 51, 70
1, 195578, Note_on_c, 0, 53, 66
1, 195578, Note_on_c, 0, 62, 77
1, 195584, Control_c, 0, 64, 44
1, 195584, Note_on_c, 0, 74, 91
1, 195587, Note_off_c, 0, 75, 65
1, 195599, Control_c, 0, 64, 44
1, 195648, Note_on_c, 0, 75, 88
1, 195653, Note_off_c, 0, 74, 65
1, 195680, Control_c, 0, 64, 43
1, 195694, Note_off_c, 0, 75, 65
1, 195695, Control_c, 0, 64, 42
1, 195709, Note_on_c, 0, 77, 86
1, 195724, Control_c, 0, 64, 42
1, 195769, Control_c, 0, 64, 41
1, 195775, Note_on_c, 0, 79, 90
1, 195780, Note_off_c, 0, 77, 55
1, 195784, Control_c, 0, 64, 40
1, 195799, Control_c, 0, 64, 40
1, 195828, Control_c, 0, 64, 39
1, 195833, Note_on_c, 0, 80, 92
1, 195842, Note_off_c, 0, 79, 65
1, 195893, Note_on_c, 0, 79, 80
1, 195909, Note_off_c, 0, 80, 66
1, 195948, Note_off_c, 0, 79, 66
1, 195954, Note_on_c, 0, 77, 81
1, 195961, Control_c, 0, 64, 39
1, 196019, Note_on_c, 0, 75, 82
1, 196028, Note_off_c, 0, 77, 62
1, 196070, Note_off_c, 0, 75, 62
1, 196071, Note_on_c, 0, 74, 81
1, 196135, Note_on_c, 0, 75, 83
1, 196159, Note_off_c, 0, 74, 59
1, 196193, Note_on_c, 0, 77, 85
1, 196196, Note_off_c, 0, 75, 64
1, 196261, Note_on_c, 0, 75, 84
1, 196282, Note_off_c, 0, 77, 62
1, 196292, Note_off_c, 0, 62, 36
1, 196323, Note_on_c, 0, 74, 77
1, 196327, Note_off_c, 0, 53, 60
1, 196334, Note_off_c, 0, 75, 63
1, 196339, Note_off_c, 0, 51, 62
1, 196342, Note_off_c, 0, 56, 63
1, 196359, Note_off_c, 0, 74, 64
1, 196389, Note_on_c, 0, 72, 82
1, 196436, Note_off_c, 0, 72, 62
1, 196451, Note_on_c, 0, 70, 71
1, 196491, Note_on_c, 0, 68, 72
1, 196502, Note_off_c, 0, 70, 63
1, 196525, Note_off_c, 0, 68, 66
1, 196556, Note_on_c, 0, 67, 75
1, 196558, Note_on_c, 0, 51, 72
1, 196559, Note_on_c, 0, 58, 69
1, 196561, Note_on_c, 0, 63, 79
1, 196566, Note_on_c, 0, 55, 64
1, 196577, Control_c, 0, 64, 39
1, 196584, Note_off_c, 0, 67, 65
1, 196651, Control_c, 0, 64, 40
1, 196655, Note_on_c, 0, 82, 86
1, 196666, Control_c, 0, 64, 40
1, 196696, Control_c, 0, 64, 41
1, 196714, Note_on_c, 0, 84, 86
1, 196725, Control_c, 0, 64, 42
1, 196729, Note_off_c, 0, 82, 65
1, 196800, Note_on_c, 0, 82, 80
1, 196815, Note_off_c, 0, 55, 63
1, 196819, Note_off_c, 0, 51, 62
1, 196824, Note_off_c, 0, 58, 63
1, 196828, Note_off_c, 0, 84, 66
1, 196840, Note_off_c, 0, 63, 59
1, 196844, Note_on_c, 0, 83, 42
1, 196848, Note_on_c, 0, 80, 81
1, 196872, Note_off_c, 0, 83, 59
1, 196876, Note_off_c, 0, 82, 63
1, 196900, Note_on_c, 0, 79, 78
1, 196947, Note_off_c, 0, 79, 65
1, 196948, Note_off_c, 0, 80, 65
1, 196960, Note_on_c, 0, 77, 75
1, 196975, Control_c, 0, 64, 41
1, 196997, Note_off_c, 0, 77, 56
1, 197005, Control_c, 0, 64, 41
1, 197024, Note_on_c, 0, 75, 81
1, 197057, Note_off_c, 0, 75, 64
1, 197080, Note_on_c, 0, 74, 77
1, 197092, Note_on_c, 0, 56, 59
1, 197095, Control_c, 0, 64, 40
1, 197095, Note_on_c, 0, 65, 64
1, 197096, Note_on_c, 0, 58, 52
1, 197132, Note_off_c, 0, 74, 60
1, 197143, Note_on_c, 0, 84, 82
1, 197146, Control_c, 0, 64, 40
1, 197218, Note_off_c, 0, 84, 64
1, 197218, Note_on_c, 0, 82, 73
1, 197265, Note_off_c, 0, 82, 66
1, 197278, Note_off_c, 0, 65, 50
1, 197284, Note_on_c, 0, 80, 66
1, 197318, Note_off_c, 0, 56, 62
1, 197333, Note_off_c, 0, 58, 62
1, 197339, Note_on_c, 0, 79, 68
1, 197341, Note_off_c, 0, 80, 65
1, 197370, Note_off_c, 0, 79, 68
1, 197401, Note_on_c, 0, 77, 69
1, 197432, Note_off_c, 0, 77, 62
1, 197472, Note_on_c, 0, 75, 64
1, 197502, Note_off_c, 0, 75, 66
1, 197536, Note_on_c, 0, 74, 62
1, 197572, Note_off_c, 0, 74, 57
1, 197578, Note_on_c, 0, 55, 51
1, 197580, Note_on_c, 0, 63, 52
1, 197587, Note_on_c, 0, 58, 46
1, 197599, Note_on_c, 0, 75, 63
1, 197630, Note_off_c, 0, 75, 66
1, 197664, Note_on_c, 0, 82, 66
1, 197720, Note_off_c, 0, 82, 64
1, 197725, Note_on_c, 0, 84, 75
1, 197799, Note_off_c, 0, 55, 62
1, 197800, Note_off_c, 0, 84, 62
1, 197803, Note_on_c, 0, 82, 68
1, 197825, Note_off_c, 0, 63, 63
1, 197831, Note_off_c, 0, 58, 60
1, 197842, Note_off_c, 0, 82, 67
1, 197857, Note_on_c, 0, 80, 56
1, 197912, Note_on_c, 0, 79, 65
1, 197915, Note_off_c, 0, 80, 62
1, 197942, Note_off_c, 0, 79, 67
1, 197960, Note_on_c, 0, 77, 74
1, 197999, Note_off_c, 0, 77, 61
1, 198070, Note_on_c, 0, 76, 24
1, 198091, Note_on_c, 0, 74, 69
1, 198103, Note_on_c, 0, 56, 50
1, 198106, Note_on_c, 0, 65, 45
1, 198108, Note_on_c, 0, 58, 45
1, 198109, Note_off_c, 0, 76, 30
1, 198134, Note_off_c, 0, 74, 60
1, 198171, Note_on_c, 0, 84, 52
1, 198198, Note_on_c, 0, 86, 14
1, 198217, Note_off_c, 0, 86, 34
1, 198222, Note_off_c, 0, 84, 62
1, 198225, Note_on_c, 0, 82, 69
1, 198274, Note_off_c, 0, 82, 65
1, 198296, Note_on_c, 0, 80, 66
1, 198352, Note_off_c, 0, 80, 63
1, 198355, Note_on_c, 0, 79, 62
1, 198359, Note_off_c, 0, 65, 35
1, 198364, Note_off_c, 0, 56, 60
1, 198371, Note_off_c, 0, 58, 60
1, 198387, Note_off_c, 0, 79, 66
1, 198413, Note_on_c, 0, 77, 69
1, 198460, Note_off_c, 0, 77, 61
1, 198481, Note_on_c, 0, 75, 66
1, 198518, Note_off_c, 0, 75, 62
1, 198533, Note_on_c, 0, 74, 76
1, 198586, Note_on_c, 0, 55, 62
1, 198595, Note_on_c, 0, 58, 64
1, 198595, Note_on_c, 0, 63, 70
1, 198599, Note_on_c, 0, 75, 88
1, 198613, Note_off_c, 0, 74, 59
1, 198654, Note_off_c, 0, 75, 64
1, 198666, Note_on_c, 0, 77, 85
1, 198728, Note_on_c, 0, 79, 89
1, 198736, Note_off_c, 0, 77, 55
1, 198790, Note_on_c, 0, 80, 81
1, 198823, Control_c, 0, 64, 40
1, 198824, Note_off_c, 0, 79, 64
1, 198838, Control_c, 0, 64, 41
1, 198847, Note_on_c, 0, 82, 87
1, 198850, Note_off_c, 0, 80, 69
1, 198852, Control_c, 0, 64, 42
1, 198890, Note_off_c, 0, 82, 67
1, 198912, Control_c, 0, 64, 42
1, 198918, Note_on_c, 0, 84, 76
1, 198926, Note_on_c, 0, 83, 60
1, 198926, Control_c, 0, 64, 43
1, 198946, Note_off_c, 0, 83, 65
1, 198956, Control_c, 0, 64, 43
1, 198964, Note_on_c, 0, 86, 91
1, 198976, Note_off_c, 0, 84, 64
1, 199021, Note_off_c, 0, 86, 65
1, 199025, Note_on_c, 0, 87, 91
1, 199030, Control_c, 0, 64, 44
1, 199095, Note_on_c, 0, 85, 94
1, 199119, Note_off_c, 0, 87, 63
1, 199161, Note_on_c, 0, 84, 94
1, 199166, Note_off_c, 0, 85, 65
1, 199215, Note_off_c, 0, 84, 65
1, 199244, Note_on_c, 0, 82, 87
1, 199309, Note_on_c, 0, 80, 72
1, 199316, Note_off_c, 0, 82, 64
1, 199364, Note_off_c, 0, 63, 52
1, 199364, Note_on_c, 0, 79, 80
1, 199378, Control_c, 0, 64, 43
1, 199385, Note_off_c, 0, 55, 63
1, 199388, Note_off_c, 0, 58, 58
1, 199393, Control_c, 0, 64, 42
1, 199395, Note_off_c, 0, 80, 64
1, 199408, Control_c, 0, 64, 42
1, 199429, Note_off_c, 0, 79, 66
1, 199440, Note_on_c, 0, 77, 76
1, 199483, Control_c, 0, 64, 41
1, 199490, Note_off_c, 0, 77, 59
1, 199520, Note_on_c, 0, 75, 73
1, 199575, Note_on_c, 0, 73, 61
1, 199576, Note_off_c, 0, 75, 61
1, 199605, Note_off_c, 0, 73, 67
1, 199635, Note_on_c, 0, 72, 69
1, 199638, Note_on_c, 0, 56, 40
1, 199641, Note_on_c, 0, 63, 44
1, 199643, Note_on_c, 0, 60, 43
1, 199661, Note_off_c, 0, 72, 68
1, 199764, Control_c, 0, 64, 41
1, 199810, Note_on_c, 0, 84, 62
1, 199823, Control_c, 0, 64, 40
1, 199838, Note_off_c, 0, 84, 67
1, 199882, Note_off_c, 0, 56, 56
1, 199883, Note_off_c, 0, 60, 45
1, 199892, Note_off_c, 0, 63, 58
1, 199926, Note_on_c, 0, 83, 53
1, 199948, Note_off_c, 0, 83, 60
1, 200044, Note_on_c, 0, 86, 55
1, 200067, Note_off_c, 0, 86, 64
1, 200169, Note_on_c, 0, 84, 65
1, 200198, Note_off_c, 0, 84, 65
1, 200289, Note_on_c, 0, 87, 83
1, 200291, Control_c, 0, 64, 41
1, 200340, Note_off_c, 0, 87, 64
1, 200350, Control_c, 0, 64, 41
1, 200380, Control_c, 0, 64, 42
1, 200415, Note_on_c, 0, 83, 89
1, 200452, Note_off_c, 0, 83, 65
1, 200454, Control_c, 0, 64, 42
1, 200520, Note_on_c, 0, 86, 98
1, 200574, Note_off_c, 0, 86, 67
1, 200637, Note_on_c, 0, 84, 106
1, 200681, Note_off_c, 0, 84, 66
1, 200752, Note_on_c, 0, 87, 102
1, 200813, Note_off_c, 0, 87, 65
1, 200886, Note_on_c, 0, 71, 91
1, 200886, Note_on_c, 0, 83, 104
1, 200920, Control_c, 0, 64, 42
1, 200932, Note_off_c, 0, 83, 66
1, 200935, Note_off_c, 0, 71, 65
1, 200935, Control_c, 0, 64, 41
1, 201006, Note_on_c, 0, 86, 110
1, 201008, Note_on_c, 0, 74, 92
1, 201039, Control_c, 0, 64, 41
1, 201052, Note_off_c, 0, 74, 63
1, 201066, Note_off_c, 0, 86, 65
1, 201069, Control_c, 0, 64, 40
1, 201131, Note_on_c, 0, 84, 107
1, 201132, Note_on_c, 0, 72, 96
1, 201143, Control_c, 0, 64, 40
1, 201180, Note_off_c, 0, 72, 65
1, 201184, Note_off_c, 0, 84, 64
1, 201251, Note_on_c, 0, 87, 101
1, 201262, Note_on_c, 0, 75, 87
1, 201292, Control_c, 0, 64, 40
1, 201309, Note_off_c, 0, 75, 61
1, 201325, Note_off_c, 0, 87, 62
1, 201398, Note_on_c, 0, 84, 93
1, 201402, Note_on_c, 0, 72, 76
1, 201425, Control_c, 0, 64, 42
1, 201440, Control_c, 0, 64, 47
1, 201454, Control_c, 0, 64, 54
1, 201469, Control_c, 0, 64, 61
1, 201472, Note_on_c, 0, 80, 91
1, 201473, Note_on_c, 0, 68, 62
1, 201478, Note_off_c, 0, 84, 64
1, 201479, Note_off_c, 0, 72, 59
1, 201484, Control_c, 0, 64, 65
1, 201499, Control_c, 0, 64, 69
1, 201513, Note_on_c, 0, 65, 56
1, 201514, Control_c, 0, 64, 78
1, 201528, Control_c, 0, 64, 93
1, 201531, Note_off_c, 0, 68, 59
1, 201540, Note_off_c, 0, 80, 65
1, 201543, Control_c, 0, 64, 127
1, 201544, Note_off_c, 0, 65, 66
1, 201558, Note_on_c, 0, 77, 89
1, 201602, Control_c, 0, 64, 116
1, 201625, Control_c, 0, 64, 93
1, 201640, Control_c, 0, 64, 79
1, 201654, Control_c, 0, 64, 68
1, 201665, Note_on_c, 0, 67, 63
1, 201669, Control_c, 0, 64, 60
1, 201676, Note_on_c, 0, 58, 49
1, 201676, Note_on_c, 0, 75, 83
1, 201684, Control_c, 0, 64, 44
1, 201688, Note_off_c, 0, 77, 62
1, 201698, Control_c, 0, 64, 16
1, 201713, Control_c, 0, 64, 0
1, 201832, Control_c, 0, 64, 32
1, 201847, Control_c, 0, 64, 54
1, 201862, Control_c, 0, 64, 62
1, 201877, Control_c, 0, 64, 66
1, 201892, Control_c, 0, 64, 74
1, 201907, Control_c, 0, 64, 97
1, 201922, Control_c, 0, 64, 127
1, 201960, Note_off_c, 0, 67, 61
1, 201996, Control_c, 0, 64, 119
1, 202011, Control_c, 0, 64, 91
1, 202017, Note_off_c, 0, 75, 61
1, 202026, Control_c, 0, 64, 77
1, 202041, Control_c, 0, 64, 71
1, 202056, Control_c, 0, 64, 65
1, 202063, Note_on_c, 0, 77, 70
1, 202070, Control_c, 0, 64, 60
1, 202085, Control_c, 0, 64, 52
1, 202100, Control_c, 0, 64, 46
1, 202115, Control_c, 0, 64, 42
1, 202115, Note_off_c, 0, 77, 62
1, 202126, Note_on_c, 0, 75, 67
1, 202130, Control_c, 0, 64, 42
1, 202153, Note_on_c, 0, 74, 65
1, 202154, Note_off_c, 0, 75, 66
1, 202159, Control_c, 0, 64, 40
1, 202174, Control_c, 0, 64, 38
1, 202187, Note_off_c, 0, 74, 62
1, 202189, Control_c, 0, 64, 33
1, 202202, Note_on_c, 0, 75, 68
1, 202203, Control_c, 0, 64, 26
1, 202218, Control_c, 0, 64, 22
1, 202233, Control_c, 0, 64, 20
1, 202248, Control_c, 0, 64, 19
1, 202252, Note_on_c, 0, 68, 54
1, 202252, Note_on_c, 0, 79, 84
1, 202256, Note_off_c, 0, 75, 63
1, 202262, Note_on_c, 0, 74, 81
1, 202277, Control_c, 0, 64, 17
1, 202292, Control_c, 0, 64, 8
1, 202307, Control_c, 0, 64, 0
1, 202463, Control_c, 0, 64, 12
1, 202477, Control_c, 0, 64, 42
1, 202492, Control_c, 0, 64, 54
1, 202507, Control_c, 0, 64, 57
1, 202521, Control_c, 0, 64, 60
1, 202536, Control_c, 0, 64, 62
1, 202551, Control_c, 0, 64, 63
1, 202566, Control_c, 0, 64, 65
1, 202581, Control_c, 0, 64, 65
1, 202610, Control_c, 0, 64, 64
1, 202625, Control_c, 0, 64, 64
1, 202655, Control_c, 0, 64, 63
1, 202671, Control_c, 0, 64, 63
1, 202686, Control_c, 0, 64, 61
1, 202700, Control_c, 0, 64, 59
1, 202705, Note_off_c, 0, 79, 60
1, 202714, Note_on_c, 0, 77, 61
1, 202715, Control_c, 0, 64, 56
1, 202730, Control_c, 0, 64, 53
1, 202745, Control_c, 0, 64, 50
1, 202760, Control_c, 0, 64, 49
1, 202774, Control_c, 0, 64, 48
1, 202804, Control_c, 0, 64, 48
1, 202819, Control_c, 0, 64, 47
1, 202834, Control_c, 0, 64, 45
1, 202843, Note_off_c, 0, 58, 60
1, 202848, Control_c, 0, 64, 43
1, 202852, Note_off_c, 0, 68, 55
1, 202858, Note_off_c, 0, 77, 59
1, 202863, Control_c, 0, 64, 41
1, 202872, Note_off_c, 0, 74, 59
1, 202878, Note_on_c, 0, 63, 37
1, 202885, Note_on_c, 0, 75, 55
1, 202893, Control_c, 0, 64, 41
1, 202896, Note_on_c, 0, 67, 40
1, 202908, Control_c, 0, 64, 40
1, 202923, Control_c, 0, 64, 39
1, 202938, Control_c, 0, 64, 38
1, 203123, Control_c, 0, 64, 38
1, 203152, Control_c, 0, 64, 35
1, 203165, Note_off_c, 0, 75, 63
1, 203167, Control_c, 0, 64, 32
1, 203179, Note_off_c, 0, 67, 59
1, 203182, Control_c, 0, 64, 25
1, 203182, Control_c, 0, 67, 64
1, 203194, Note_off_c, 0, 63, 58
1, 203197, Control_c, 0, 64, 10
1, 203197, Control_c, 0, 67, 127
1, 203212, Control_c, 0, 64, 0
1, 203486, Note_on_c, 0, 82, 67
1, 203512, Note_off_c, 0, 82, 70
1, 203513, Note_on_c, 0, 79, 62
1, 203516, Note_on_c, 0, 63, 47
1, 203528, Note_on_c, 0, 67, 20
1, 203540, Note_off_c, 0, 79, 67
1, 203543, Note_off_c, 0, 63, 55
1, 203565, Note_off_c, 0, 67, 43
1, 203725, Note_on_c, 0, 82, 50
1, 203760, Note_off_c, 0, 82, 66
1, 203761, Note_on_c, 0, 77, 70
1, 203764, Note_on_c, 0, 58, 35
1, 203787, Note_off_c, 0, 77, 66
1, 203808, Note_off_c, 0, 58, 62
1, 203847, Poly_aftertouch_c, 0, 65, 0
1, 203988, Note_on_c, 0, 82, 47
1, 204027, Note_on_c, 0, 55, 41
1, 204032, Note_on_c, 0, 75, 55
1, 204033, Note_off_c, 0, 82, 66
1, 204035, Note_on_c, 0, 63, 37
1, 204055, Note_off_c, 0, 75, 54
1, 204220, Note_off_c, 0, 55, 64
1, 204235, Note_on_c, 0, 82, 54
1, 204236, Note_off_c, 0, 63, 64
1, 204282, Note_off_c, 0, 82, 59
1, 204304, Note_on_c, 0, 70, 51
1, 204327, Note_off_c, 0, 70, 59
1, 204501, Note_on_c, 0, 82, 61
1, 204527, Note_on_c, 0, 79, 68
1, 204528, Note_off_c, 0, 82, 67
1, 204536, Note_on_c, 0, 67, 70
1, 204543, Note_on_c, 0, 63, 52
1, 204554, Note_off_c, 0, 79, 69
1, 204562, Note_off_c, 0, 67, 68
1, 204565, Note_off_c, 0, 63, 61
1, 204738, Note_on_c, 0, 82, 50
1, 204783, Note_off_c, 0, 82, 65
1, 204785, Note_on_c, 0, 77, 66
1, 204787, Note_on_c, 0, 65, 74
1, 204793, Note_on_c, 0, 58, 52
1, 204811, Note_off_c, 0, 65, 68
1, 204814, Note_off_c, 0, 77, 66
1, 204819, Note_off_c, 0, 58, 62
1, 204975, Note_on_c, 0, 82, 57
1, 205023, Note_on_c, 0, 63, 54
1, 205025, Note_off_c, 0, 82, 60
1, 205033, Note_on_c, 0, 75, 62
1, 205039, Note_on_c, 0, 55, 40
1, 205051, Note_off_c, 0, 75, 63
1, 205217, Note_on_c, 0, 82, 70
1, 205218, Note_off_c, 0, 55, 64
1, 205233, Note_off_c, 0, 63, 58
1, 205245, Note_off_c, 0, 82, 65
1, 205258, Control_c, 0, 64, 8
1, 205275, Note_on_c, 0, 70, 66
1, 205302, Note_off_c, 0, 70, 66
1, 205302, Control_c, 0, 64, 14
1, 205302, Control_c, 0, 67, 101
1, 205317, Control_c, 0, 64, 17
1, 205317, Control_c, 0, 67, 32
1, 205332, Control_c, 0, 64, 19
1, 205332, Control_c, 0, 67, 0
1, 205399, Control_c, 0, 64, 20
1, 205443, Control_c, 0, 64, 21
1, 205475, Note_on_c, 0, 82, 54
1, 205496, Note_off_c, 0, 82, 60
1, 205516, Note_on_c, 0, 55, 47
1, 205516, Note_on_c, 0, 73, 72
1, 205525, Note_on_c, 0, 63, 49
1, 205542, Note_off_c, 0, 73, 68
1, 205546, Control_c, 0, 64, 22
1, 205550, Note_off_c, 0, 63, 61
1, 205556, Note_off_c, 0, 55, 64
1, 205716, Note_on_c, 0, 82, 65
1, 205743, Note_off_c, 0, 82, 69
1, 205761, Note_on_c, 0, 71, 72
1, 205763, Note_on_c, 0, 55, 48
1, 205773, Note_on_c, 0, 63, 50
1, 205788, Note_off_c, 0, 71, 68
1, 205795, Note_off_c, 0, 55, 63
1, 205799, Note_off_c, 0, 63, 61
1, 205972, Note_on_c, 0, 82, 63
1, 206002, Note_off_c, 0, 82, 68
1, 206020, Note_on_c, 0, 56, 46
1, 206026, Note_on_c, 0, 63, 47
1, 206029, Note_on_c, 0, 72, 57
1, 206050, Note_off_c, 0, 72, 61
1, 206215, Note_on_c, 0, 76, 64
1, 206251, Note_off_c, 0, 63, 55
1, 206260, Note_on_c, 0, 60, 49
1, 206260, Note_off_c, 0, 76, 64
1, 206262, Note_on_c, 0, 77, 77
1, 206295, Note_off_c, 0, 77, 62
1, 206443, Note_on_c, 0, 79, 68
1, 206494, Note_off_c, 0, 60, 58
1, 206500, Note_on_c, 0, 80, 85
1, 206502, Note_off_c, 0, 56, 34
1, 206516, Note_on_c, 0, 65, 53
1, 206520, Note_off_c, 0, 79, 64
1, 206546, Note_off_c, 0, 80, 65
1, 206701, Note_on_c, 0, 79, 66
1, 206741, Note_off_c, 0, 79, 66
1, 206750, Note_on_c, 0, 77, 80
1, 206751, Note_on_c, 0, 57, 47
1, 206770, Note_off_c, 0, 65, 40
1, 206783, Note_off_c, 0, 77, 63
1, 206950, Note_on_c, 0, 75, 74
1, 206983, Note_off_c, 0, 75, 65
1, 206998, Note_on_c, 0, 58, 49
1, 207010, Note_on_c, 0, 74, 76
1, 207034, Note_off_c, 0, 74, 69
1, 207066, Note_off_c, 0, 57, 33
1, 207188, Note_on_c, 0, 84, 71
1, 207231, Note_off_c, 0, 84, 66
1, 207239, Note_on_c, 0, 82, 71
1, 207249, Note_on_c, 0, 60, 60
1, 207260, Note_off_c, 0, 58, 61
1, 207263, Note_off_c, 0, 82, 69
1, 207407, Note_on_c, 0, 81, 78
1, 207464, Note_off_c, 0, 60, 63
1, 207466, Note_on_c, 0, 82, 91
1, 207479, Note_on_c, 0, 62, 62
1, 207486, Note_off_c, 0, 81, 64
1, 207526, Note_off_c, 0, 82, 65
1, 207657, Note_on_c, 0, 84, 83
1, 207688, Note_off_c, 0, 62, 63
1, 207712, Note_on_c, 0, 82, 85
1, 207721, Note_off_c, 0, 84, 62
1, 207727, Note_on_c, 0, 70, 67
1, 207754, Note_off_c, 0, 70, 68
1, 207756, Note_off_c, 0, 82, 65
1, 207892, Note_on_c, 0, 80, 80
1, 207953, Note_off_c, 0, 80, 64
1, 207958, Note_on_c, 0, 78, 97
1, 207959, Note_on_c, 0, 63, 62
1, 207961, Note_on_c, 0, 66, 75
1, 208015, Note_on_c, 0, 80, 87
1, 208022, Note_off_c, 0, 78, 66
1, 208054, Note_off_c, 0, 66, 56
1, 208057, Note_off_c, 0, 63, 54
1, 208083, Note_on_c, 0, 78, 86
1, 208086, Note_on_c, 0, 70, 73
1, 208089, Note_off_c, 0, 80, 66
1, 208133, Note_off_c, 0, 78, 66
1, 208136, Note_on_c, 0, 77, 87
1, 208140, Note_off_c, 0, 70, 56
1, 208204, Note_on_c, 0, 75, 95
1, 208204, Note_on_c, 0, 66, 73
1, 208211, Note_on_c, 0, 63, 63
1, 208211, Note_off_c, 0, 77, 65
1, 208242, Note_off_c, 0, 75, 62
1, 208261, Note_off_c, 0, 66, 60
1, 208264, Note_off_c, 0, 63, 54
1, 208332, Note_on_c, 0, 75, 95
1, 208334, Note_on_c, 0, 70, 66
1, 208372, Note_off_c, 0, 75, 62
1, 208380, Note_off_c, 0, 70, 60
1, 208465, Note_on_c, 0, 80, 96
1, 208472, Note_on_c, 0, 65, 70
1, 208480, Note_on_c, 0, 62, 57
1, 208511, Note_on_c, 0, 78, 32
1, 208518, Note_off_c, 0, 78, 44
1, 208525, Note_on_c, 0, 82, 84
1, 208529, Note_off_c, 0, 80, 66
1, 208539, Note_off_c, 0, 65, 64
1, 208558, Note_off_c, 0, 62, 53
1, 208588, Note_on_c, 0, 80, 85
1, 208590, Note_on_c, 0, 70, 61
1, 208595, Note_off_c, 0, 82, 66
1, 208639, Note_off_c, 0, 70, 55
1, 208649, Note_on_c, 0, 78, 81
1, 208657, Note_off_c, 0, 80, 66
1, 208708, Note_off_c, 0, 78, 66
1, 208710, Note_on_c, 0, 62, 52
1, 208713, Note_on_c, 0, 65, 48
1, 208719, Note_on_c, 0, 77, 78
1, 208745, Note_off_c, 0, 77, 66
1, 208763, Note_off_c, 0, 62, 57
1, 208772, Note_off_c, 0, 65, 62
1, 208835, Note_on_c, 0, 70, 51
1, 208852, Note_on_c, 0, 77, 63
1, 208872, Note_off_c, 0, 77, 63
1, 208883, Note_off_c, 0, 70, 58
1, 208927, Control_c, 0, 64, 23
1, 208941, Control_c, 0, 64, 24
1, 208971, Control_c, 0, 64, 24
1, 208978, Note_on_c, 0, 66, 46
1, 208986, Control_c, 0, 64, 26
1, 208986, Note_on_c, 0, 63, 36
1, 208986, Note_on_c, 0, 78, 70
1, 209001, Control_c, 0, 64, 27
1, 209025, Note_off_c, 0, 78, 63
1, 209037, Note_off_c, 0, 66, 59
1, 209041, Note_on_c, 0, 80, 62
1, 209045, Control_c, 0, 64, 28
1, 209049, Note_off_c, 0, 63, 52
1, 209092, Note_on_c, 0, 70, 43
1, 209096, Note_off_c, 0, 80, 59
1, 209120, Note_on_c, 0, 78, 60
1, 209151, Note_off_c, 0, 70, 56
1, 209155, Note_off_c, 0, 78, 66
1, 209166, Note_on_c, 0, 77, 69
1, 209201, Note_off_c, 0, 77, 63
1, 209216, Note_on_c, 0, 66, 35
1, 209228, Note_on_c, 0, 63, 36
1, 209231, Note_on_c, 0, 75, 65
1, 209246, Control_c, 0, 64, 27
1, 209251, Note_off_c, 0, 75, 63
1, 209271, Note_off_c, 0, 66, 59
1, 209282, Note_off_c, 0, 63, 59
1, 209366, Note_on_c, 0, 70, 36
1, 209368, Note_on_c, 0, 75, 51
1, 209390, Note_off_c, 0, 75, 57
1, 209405, Note_off_c, 0, 70, 57
1, 209487, Note_on_c, 0, 65, 57
1, 209490, Note_on_c, 0, 80, 76
1, 209498, Note_on_c, 0, 62, 45
1, 209547, Note_off_c, 0, 80, 65
1, 209549, Note_off_c, 0, 65, 59
1, 209550, Note_off_c, 0, 62, 56
1, 209555, Note_on_c, 0, 82, 68
1, 209606, Note_on_c, 0, 70, 54
1, 209614, Note_on_c, 0, 80, 71
1, 209614, Note_off_c, 0, 82, 65
1, 209656, Note_off_c, 0, 70, 55
1, 209672, Note_off_c, 0, 80, 64
1, 209672, Note_on_c, 0, 78, 73
1, 209710, Note_off_c, 0, 78, 65
1, 209730, Note_on_c, 0, 65, 46
1, 209731, Note_on_c, 0, 77, 80
1, 209742, Note_on_c, 0, 62, 46
1, 209763, Note_off_c, 0, 77, 63
1, 209802, Note_off_c, 0, 62, 52
1, 209816, Note_off_c, 0, 65, 49
1, 209873, Note_on_c, 0, 70, 55
1, 209874, Note_on_c, 0, 77, 72
1, 209893, Note_off_c, 0, 70, 63
1, 209899, Note_off_c, 0, 77, 64
1, 210002, Note_on_c, 0, 66, 79
1, 210004, Note_on_c, 0, 78, 84
1, 210021, Note_on_c, 0, 54, 69
1, 210024, Note_off_c, 0, 66, 69
1, 210052, Note_off_c, 0, 54, 66
1, 210062, Note_off_c, 0, 78, 65
1, 210066, Note_on_c, 0, 80, 79
1, 210128, Note_on_c, 0, 78, 78
1, 210140, Note_off_c, 0, 80, 65
1, 210176, Note_on_c, 0, 77, 83
1, 210197, Note_off_c, 0, 78, 64
1, 210210, Note_off_c, 0, 77, 64
1, 210217, Control_c, 0, 64, 28
1, 210230, Note_on_c, 0, 75, 84
1, 210232, Control_c, 0, 64, 30
1, 210234, Note_on_c, 0, 63, 93
1, 210241, Note_on_c, 0, 51, 91
1, 210247, Control_c, 0, 64, 31
1, 210251, Note_off_c, 0, 75, 70
1, 210262, Control_c, 0, 64, 31
1, 210263, Note_on_c, 0, 74, 56
1, 210265, Note_off_c, 0, 63, 61
1, 210283, Note_off_c, 0, 74, 61
1, 210291, Note_off_c, 0, 51, 63
1, 210304, Note_on_c, 0, 77, 88
1, 210363, Note_on_c, 0, 75, 85
1, 210381, Note_off_c, 0, 77, 62
1, 210417, Note_on_c, 0, 73, 88
1, 210445, Note_off_c, 0, 75, 63
1, 210470, Note_on_c, 0, 59, 101
1, 210473, Note_on_c, 0, 71, 92
1, 210475, Note_on_c, 0, 47, 82
1, 210477, Note_off_c, 0, 73, 64
1, 210502, Note_off_c, 0, 59, 68
1, 210506, Note_off_c, 0, 47, 66
1, 210532, Note_off_c, 0, 71, 58
1, 210537, Note_on_c, 0, 73, 89
1, 210595, Note_off_c, 0, 73, 66
1, 210605, Note_on_c, 0, 71, 90
1, 210669, Note_on_c, 0, 70, 90
1, 210671, Note_off_c, 0, 71, 61
1, 210727, Note_on_c, 0, 56, 101
1, 210729, Note_on_c, 0, 68, 95
1, 210731, Note_off_c, 0, 70, 65
1, 210735, Note_on_c, 0, 44, 86
1, 210766, Note_off_c, 0, 56, 67
1, 210774, Control_c, 0, 64, 31
1, 210788, Note_on_c, 0, 70, 84
1, 210790, Note_off_c, 0, 68, 67
1, 210803, Control_c, 0, 64, 30
1, 210807, Note_off_c, 0, 44, 62
1, 210818, Control_c, 0, 64, 29
1, 210832, Control_c, 0, 64, 29
1, 210837, Note_on_c, 0, 68, 85
1, 210844, Note_off_c, 0, 70, 64
1, 210902, Note_on_c, 0, 66, 92
1, 210906, Control_c, 0, 64, 27
1, 210909, Note_off_c, 0, 68, 62
1, 210921, Control_c, 0, 64, 12
1, 210936, Control_c, 0, 64, 0
1, 210964, Note_off_c, 0, 66, 64
1, 210970, Note_on_c, 0, 65, 77
1, 210974, Note_on_c, 0, 53, 110
1, 210978, Note_on_c, 0, 41, 87
1, 211021, Note_on_c, 0, 45, 29
1, 211034, Note_on_c, 0, 66, 72
1, 211040, Note_on_c, 0, 43, 4
1, 211059, Note_off_c, 0, 65, 59
1, 211062, Note_off_c, 0, 45, 49
1, 211079, Note_off_c, 0, 43, 38
1, 211092, Note_on_c, 0, 68, 82
1, 211092, Note_off_c, 0, 66, 64
1, 211100, Control_c, 0, 64, 29
1, 211114, Control_c, 0, 64, 49
1, 211129, Control_c, 0, 64, 58
1, 211144, Control_c, 0, 64, 64
1, 211157, Note_on_c, 0, 66, 74
1, 211158, Control_c, 0, 64, 71
1, 211173, Control_c, 0, 64, 85
1, 211175, Note_off_c, 0, 68, 62
1, 211188, Control_c, 0, 64, 127
1, 211192, Note_off_c, 0, 53, 60
1, 211213, Note_off_c, 0, 41, 64
1, 211213, Note_off_c, 0, 66, 63
1, 211213, Note_on_c, 0, 65, 85
1, 211287, Note_on_c, 0, 66, 83
1, 211308, Note_off_c, 0, 65, 55
1, 211335, Note_on_c, 0, 68, 90
1, 211338, Note_off_c, 0, 66, 65
1, 211406, Note_on_c, 0, 66, 81
1, 211431, Note_off_c, 0, 68, 62
1, 211465, Note_on_c, 0, 65, 84
1, 211465, Note_off_c, 0, 66, 64
1, 211469, Note_on_c, 0, 51, 105
1, 211475, Note_on_c, 0, 39, 91
1, 211493, Control_c, 0, 64, 100
1, 211508, Control_c, 0, 64, 69
1, 211523, Control_c, 0, 64, 0
1, 211534, Note_on_c, 0, 66, 81
1, 211553, Note_off_c, 0, 65, 49
1, 211592, Note_on_c, 0, 68, 81
1, 211595, Note_off_c, 0, 66, 63
1, 211597, Control_c, 0, 64, 59
1, 211611, Control_c, 0, 64, 68
1, 211626, Control_c, 0, 64, 79
1, 211641, Control_c, 0, 64, 98
1, 211653, Note_on_c, 0, 66, 83
1, 211655, Control_c, 0, 64, 127
1, 211675, Note_off_c, 0, 68, 62
1, 211715, Note_off_c, 0, 66, 63
1, 211720, Note_on_c, 0, 65, 87
1, 211746, Note_off_c, 0, 51, 61
1, 211780, Note_off_c, 0, 39, 58
1, 211794, Note_on_c, 0, 66, 80
1, 211794, Note_off_c, 0, 65, 52
1, 211851, Note_on_c, 0, 68, 86
1, 211856, Note_off_c, 0, 66, 64
1, 211922, Note_on_c, 0, 66, 68
1, 211934, Note_off_c, 0, 68, 61
1, 211975, Note_on_c, 0, 50, 88
1, 211975, Note_off_c, 0, 66, 62
1, 211978, Note_on_c, 0, 38, 74
1, 211980, Control_c, 0, 64, 90
1, 211981, Note_on_c, 0, 65, 79
1, 211995, Control_c, 0, 64, 66
1, 212010, Control_c, 0, 64, 0
1, 212037, Note_off_c, 0, 65, 58
1, 212052, Note_on_c, 0, 66, 70
1, 212107, Control_c, 0, 64, 50
1, 212108, Note_off_c, 0, 66, 59
1, 212122, Control_c, 0, 64, 60
1, 212123, Note_on_c, 0, 68, 71
1, 212136, Control_c, 0, 64, 64
1, 212151, Control_c, 0, 64, 67
1, 212161, Note_off_c, 0, 50, 58
1, 212166, Control_c, 0, 64, 70
1, 212180, Control_c, 0, 64, 76
1, 212182, Note_on_c, 0, 66, 58
1, 212191, Note_off_c, 0, 68, 60
1, 212195, Control_c, 0, 64, 83
1, 212204, Note_off_c, 0, 38, 59
1, 212210, Control_c, 0, 64, 91
1, 212225, Control_c, 0, 64, 103
1, 212232, Note_off_c, 0, 66, 61
1, 212240, Control_c, 0, 64, 127
1, 212248, Note_on_c, 0, 65, 66
1, 212310, Note_off_c, 0, 65, 61
1, 212316, Note_on_c, 0, 66, 59
1, 212358, Note_off_c, 0, 66, 63
1, 212381, Note_on_c, 0, 68, 67
1, 212389, Control_c, 0, 64, 117
1, 212404, Control_c, 0, 64, 99
1, 212418, Control_c, 0, 64, 89
1, 212433, Control_c, 0, 64, 79
1, 212439, Note_off_c, 0, 68, 57
1, 212447, Note_on_c, 0, 66, 58
1, 212448, Control_c, 0, 64, 70
1, 212463, Control_c, 0, 64, 61
1, 212478, Control_c, 0, 64, 50
1, 212480, Note_on_c, 0, 47, 67
1, 212483, Note_on_c, 0, 35, 55
1, 212484, Note_off_c, 0, 66, 63
1, 212492, Control_c, 0, 64, 42
1, 212507, Control_c, 0, 64, 40
1, 212514, Note_on_c, 0, 65, 60
1, 212537, Control_c, 0, 64, 44
1, 212552, Control_c, 0, 64, 53
1, 212560, Note_off_c, 0, 65, 59
1, 212567, Control_c, 0, 64, 60
1, 212582, Control_c, 0, 64, 63
1, 212583, Note_on_c, 0, 66, 55
1, 212597, Control_c, 0, 64, 65
1, 212611, Control_c, 0, 64, 67
1, 212618, Note_off_c, 0, 66, 64
1, 212626, Control_c, 0, 64, 70
1, 212637, Note_on_c, 0, 68, 59
1, 212641, Control_c, 0, 64, 75
1, 212656, Control_c, 0, 64, 80
1, 212671, Control_c, 0, 64, 85
1, 212685, Control_c, 0, 64, 90
1, 212687, Note_off_c, 0, 68, 56
1, 212700, Control_c, 0, 64, 92
1, 212705, Note_off_c, 0, 35, 60
1, 212707, Note_on_c, 0, 66, 54
1, 212712, Note_off_c, 0, 47, 58
1, 212742, Note_off_c, 0, 66, 63
1, 212757, Note_on_c, 0, 65, 60
1, 212804, Control_c, 0, 64, 91
1, 212807, Note_off_c, 0, 65, 59
1, 212819, Control_c, 0, 64, 90
1, 212834, Control_c, 0, 64, 89
1, 212837, Note_on_c, 0, 66, 53
1, 212856, Control_c, 0, 64, 87
1, 212865, Note_off_c, 0, 66, 62
1, 212871, Control_c, 0, 64, 86
1, 212885, Control_c, 0, 64, 83
1, 212891, Note_on_c, 0, 68, 59
1, 212900, Control_c, 0, 64, 81
1, 212915, Control_c, 0, 64, 78
1, 212915, Control_c, 0, 67, 11
1, 212930, Control_c, 0, 64, 74
1, 212930, Control_c, 0, 67, 32
1, 212936, Note_off_c, 0, 68, 59
1, 212940, Note_on_c, 0, 66, 59
1, 212945, Control_c, 0, 64, 70
1, 212945, Control_c, 0, 67, 60
1, 212960, Control_c, 0, 64, 65
1, 212960, Control_c, 0, 67, 92
1, 212975, Control_c, 0, 64, 61
1, 212975, Control_c, 0, 67, 127
1, 212981, Note_off_c, 0, 66, 62
1, 212989, Control_c, 0, 64, 56
1, 213000, Note_on_c, 0, 46, 58
1, 213002, Note_on_c, 0, 34, 52
1, 213004, Control_c, 0, 64, 50
1, 213010, Note_on_c, 0, 65, 55
1, 213019, Control_c, 0, 64, 45
1, 213034, Control_c, 0, 64, 42
1, 213049, Control_c, 0, 64, 40
1, 213057, Note_off_c, 0, 65, 61
1, 213064, Control_c, 0, 64, 37
1, 213078, Note_on_c, 0, 66, 45
1, 213079, Control_c, 0, 64, 34
1, 213094, Control_c, 0, 64, 31
1, 213109, Note_off_c, 0, 66, 62
1, 213109, Control_c, 0, 64, 29
1, 213132, Note_on_c, 0, 68, 54
1, 213174, Note_off_c, 0, 68, 62
1, 213198, Note_on_c, 0, 66, 49
1, 213225, Note_off_c, 0, 66, 62
1, 213251, Note_on_c, 0, 65, 54
1, 213293, Note_off_c, 0, 65, 62
1, 213308, Note_on_c, 0, 66, 57
1, 213347, Note_off_c, 0, 66, 63
1, 213361, Control_c, 0, 64, 30
1, 213376, Control_c, 0, 64, 30
1, 213380, Note_on_c, 0, 68, 51
1, 213390, Control_c, 0, 64, 31
1, 213405, Control_c, 0, 64, 32
1, 213420, Control_c, 0, 64, 33
1, 213425, Note_off_c, 0, 68, 62
1, 213434, Control_c, 0, 64, 33
1, 213437, Note_on_c, 0, 66, 56
1, 213472, Note_off_c, 0, 66, 64
1, 213502, Note_on_c, 0, 65, 51
1, 213508, Control_c, 0, 64, 34
1, 213538, Note_off_c, 0, 65, 61
1, 213538, Control_c, 0, 64, 34
1, 213555, Note_on_c, 0, 66, 55
1, 213568, Control_c, 0, 64, 35
1, 213583, Control_c, 0, 64, 36
1, 213592, Note_off_c, 0, 66, 63
1, 213620, Control_c, 0, 64, 36
1, 213632, Note_on_c, 0, 68, 53
1, 213664, Control_c, 0, 64, 37
1, 213675, Note_off_c, 0, 68, 62
1, 213679, Control_c, 0, 64, 38
1, 213684, Note_on_c, 0, 66, 57
1, 213694, Control_c, 0, 64, 38
1, 213708, Control_c, 0, 64, 39
1, 213717, Note_off_c, 0, 66, 64
1, 213750, Note_on_c, 0, 65, 52
1, 213782, Control_c, 0, 64, 39
1, 213786, Note_off_c, 0, 65, 59
1, 213808, Note_on_c, 0, 66, 47
1, 213812, Control_c, 0, 64, 40
1, 213839, Note_off_c, 0, 66, 63
1, 213842, Control_c, 0, 64, 40
1, 213864, Note_on_c, 0, 68, 55
1, 213872, Control_c, 0, 64, 41
1, 213887, Control_c, 0, 64, 41
1, 213902, Control_c, 0, 64, 42
1, 213909, Note_off_c, 0, 68, 61
1, 213931, Note_on_c, 0, 66, 47
1, 213931, Control_c, 0, 64, 42
1, 213946, Control_c, 0, 64, 43
1, 213961, Note_off_c, 0, 66, 62
1, 213989, Note_on_c, 0, 65, 57
1, 214006, Control_c, 0, 64, 44
1, 214026, Note_off_c, 0, 65, 61
1, 214057, Note_on_c, 0, 67, 52
1, 214095, Note_off_c, 0, 67, 64
1, 214118, Note_on_c, 0, 68, 59
1, 214139, Control_c, 0, 64, 44
1, 214154, Control_c, 0, 64, 45
1, 214158, Note_off_c, 0, 68, 62
1, 214172, Note_on_c, 0, 67, 58
1, 214204, Note_off_c, 0, 67, 65
1, 214213, Control_c, 0, 64, 45
1, 214228, Control_c, 0, 64, 46
1, 214237, Note_on_c, 0, 65, 57
1, 214257, Control_c, 0, 64, 46
1, 214277, Note_off_c, 0, 65, 62
1, 214278, Note_on_c, 0, 67, 64
1, 214323, Note_off_c, 0, 67, 63
1, 214340, Note_on_c, 0, 68, 69
1, 214369, Control_c, 0, 64, 47
1, 214399, Control_c, 0, 64, 47
1, 214402, Note_on_c, 0, 67, 60
1, 214414, Note_off_c, 0, 68, 61
1, 214428, Control_c, 0, 64, 48
1, 214441, Note_off_c, 0, 67, 66
1, 214457, Control_c, 0, 64, 48
1, 214467, Note_on_c, 0, 65, 69
1, 214472, Control_c, 0, 67, 127
1, 214487, Control_c, 0, 64, 49
1, 214487, Control_c, 0, 67, 85
1, 214502, Control_c, 0, 67, 22
1, 214513, Note_off_c, 0, 65, 61
1, 214517, Control_c, 0, 64, 49
1, 214517, Control_c, 0, 67, 0
1, 214523, Note_on_c, 0, 67, 80
1, 214581, Note_on_c, 0, 68, 82
1, 214592, Note_off_c, 0, 67, 58
1, 214639, Note_off_c, 0, 68, 66
1, 214641, Note_on_c, 0, 70, 82
1, 214683, Note_off_c, 0, 70, 67
1, 214689, Note_off_c, 0, 34, 61
1, 214705, Note_off_c, 0, 46, 64
1, 214711, Note_on_c, 0, 72, 85
1, 214725, Control_c, 0, 64, 50
1, 214740, Control_c, 0, 64, 50
1, 214770, Note_on_c, 0, 74, 83
1, 214770, Note_off_c, 0, 72, 59
1, 214838, Note_on_c, 0, 75, 76
1, 214865, Note_off_c, 0, 74, 62
1, 214873, Control_c, 0, 64, 50
1, 214885, Note_on_c, 0, 77, 83
1, 214909, Note_off_c, 0, 75, 63
1, 214918, Control_c, 0, 64, 49
1, 214947, Control_c, 0, 64, 49
1, 214960, Note_on_c, 0, 79, 104
1, 214962, Control_c, 0, 64, 48
1, 214977, Control_c, 0, 64, 48
1, 214978, Note_on_c, 0, 67, 75
1, 214982, Note_on_c, 0, 75, 83
1, 214987, Note_on_c, 0, 70, 74
1, 214989, Note_on_c, 0, 63, 65
1, 214992, Control_c, 0, 64, 46
1, 215006, Control_c, 0, 64, 45
1, 215007, Note_off_c, 0, 77, 63
1, 215021, Control_c, 0, 64, 42
1, 215036, Control_c, 0, 64, 39
1, 215051, Control_c, 0, 64, 35
1, 215066, Control_c, 0, 64, 33
1, 215080, Control_c, 0, 64, 34
1, 215103, Control_c, 0, 64, 46
1, 215118, Control_c, 0, 64, 53
1, 215133, Control_c, 0, 64, 52
1, 215148, Control_c, 0, 64, 42
1, 215162, Control_c, 0, 64, 0
1, 215195, Note_off_c, 0, 79, 63
1, 215206, Control_c, 0, 64, 46
1, 215221, Control_c, 0, 64, 66
1, 215222, Note_off_c, 0, 70, 62
1, 215228, Note_off_c, 0, 75, 61
1, 215236, Control_c, 0, 64, 86
1, 215238, Note_off_c, 0, 67, 62
1, 215251, Control_c, 0, 64, 127
1, 215263, Note_off_c, 0, 63, 62
1, 215555, Note_on_c, 0, 82, 104
1, 215560, Note_on_c, 0, 62, 80
1, 215565, Note_on_c, 0, 74, 89
1, 215567, Note_on_c, 0, 70, 95
1, 215567, Note_on_c, 0, 77, 87
1, 215571, Note_on_c, 0, 65, 80
1, 215577, Control_c, 0, 64, 106
1, 215592, Control_c, 0, 64, 76
1, 215607, Control_c, 0, 64, 54
1, 215622, Control_c, 0, 64, 0
1, 215710, Control_c, 0, 64, 44
1, 215725, Control_c, 0, 64, 62
1, 215740, Control_c, 0, 64, 69
1, 215755, Control_c, 0, 64, 88
1, 215769, Control_c, 0, 64, 127
1, 215803, Note_off_c, 0, 74, 59
1, 215810, Note_off_c, 0, 70, 54
1, 215836, Note_off_c, 0, 82, 62
1, 215840, Note_off_c, 0, 77, 61
1, 215854, Note_off_c, 0, 62, 60
1, 215865, Note_off_c, 0, 65, 59
1, 216300, Note_on_c, 0, 87, 104
1, 216302, Note_on_c, 0, 60, 74
1, 216305, Note_on_c, 0, 75, 103
1, 216307, Note_on_c, 0, 68, 87
1, 216310, Note_on_c, 0, 63, 77
1, 216310, Note_on_c, 0, 80, 91
1, 216386, Control_c, 0, 64, 100
1, 216400, Control_c, 0, 64, 79
1, 216415, Control_c, 0, 64, 63
1, 216430, Control_c, 0, 64, 0
1, 216564, Control_c, 0, 64, 35
1, 216578, Control_c, 0, 64, 52
1, 216600, Control_c, 0, 64, 62
1, 216615, Control_c, 0, 64, 68
1, 216630, Control_c, 0, 64, 77
1, 216645, Control_c, 0, 64, 98
1, 216659, Control_c, 0, 64, 127
1, 216736, Note_off_c, 0, 60, 49
1, 216757, Note_off_c, 0, 68, 48
1, 216778, Note_off_c, 0, 63, 56
1, 217191, Note_off_c, 0, 75, 57
1, 217301, Note_off_c, 0, 87, 26
1, 217342, Control_c, 0, 64, 92
1, 217364, Control_c, 0, 64, 68
1, 217379, Control_c, 0, 64, 43
1, 217394, Control_c, 0, 64, 0
1, 217465, Note_off_c, 0, 80, 63
1, 217478, Note_on_c, 0, 86, 58
1, 217524, Note_off_c, 0, 86, 61
1, 217537, Note_on_c, 0, 84, 54
1, 217563, Note_on_c, 0, 82, 66
1, 217572, Note_off_c, 0, 84, 64
1, 217603, Note_on_c, 0, 80, 74
1, 217616, Note_off_c, 0, 82, 60
1, 217637, Note_on_c, 0, 72, 45
1, 217660, Note_on_c, 0, 75, 28
1, 217719, Note_off_c, 0, 72, 66
1, 217723, Note_off_c, 0, 80, 66
1, 217723, Note_off_c, 0, 75, 62
1, 217928, Control_c, 0, 64, 8
1, 217943, Control_c, 0, 64, 14
1, 217958, Control_c, 0, 64, 15
1, 217989, Note_on_c, 0, 70, 57
1, 217994, Note_on_c, 0, 75, 52
1, 217995, Note_on_c, 0, 79, 82
1, 218016, Note_off_c, 0, 75, 58
1, 218017, Control_c, 0, 64, 16
1, 218020, Note_off_c, 0, 70, 67
1, 218034, Note_off_c, 0, 79, 66
1, 218140, Note_on_c, 0, 75, 45
1, 218148, Note_on_c, 0, 84, 92
1, 218152, Note_on_c, 0, 68, 50
1, 218253, Note_off_c, 0, 75, 62
1, 218261, Note_off_c, 0, 84, 62
1, 218269, Note_off_c, 0, 68, 62
1, 218409, Control_c, 0, 64, 15
1, 218424, Control_c, 0, 64, 14
1, 218439, Control_c, 0, 64, 12
1, 218540, Note_on_c, 0, 66, 43
1, 218540, Note_on_c, 0, 70, 47
1, 218546, Note_on_c, 0, 82, 72
1, 218568, Note_on_c, 0, 75, 44
1, 218575, Note_off_c, 0, 66, 58
1, 218588, Note_off_c, 0, 70, 60
1, 218603, Note_off_c, 0, 75, 50
1, 218613, Note_off_c, 0, 82, 58
1, 218738, Note_on_c, 0, 65, 39
1, 218742, Note_on_c, 0, 81, 54
1, 218746, Note_on_c, 0, 75, 45
1, 218747, Note_on_c, 0, 72, 42
1, 218808, Control_c, 0, 64, 20
1, 218823, Control_c, 0, 64, 35
1, 218838, Control_c, 0, 64, 48
1, 218860, Control_c, 0, 64, 55
1, 218875, Control_c, 0, 64, 60
1, 218890, Control_c, 0, 64, 64
1, 218905, Control_c, 0, 64, 66
1, 218920, Control_c, 0, 64, 70
1, 218934, Control_c, 0, 64, 76
1, 218949, Control_c, 0, 64, 89
1, 218964, Control_c, 0, 64, 127
1, 219001, Note_off_c, 0, 72, 58
1, 219011, Note_off_c, 0, 65, 53
1, 219021, Note_off_c, 0, 75, 53
1, 219032, Note_off_c, 0, 81, 37
1, 219305, Control_c, 0, 64, 87
1, 219319, Control_c, 0, 64, 67
1, 219334, Control_c, 0, 64, 39
1, 219349, Control_c, 0, 64, 0
1, 219468, Note_on_c, 0, 84, 87
1, 219476, Note_on_c, 0, 80, 79
1, 219503, Note_off_c, 0, 80, 66
1, 219511, Note_off_c, 0, 84, 65
1, 219602, Note_on_c, 0, 82, 93
1, 219610, Note_on_c, 0, 79, 77
1, 219632, Note_off_c, 0, 79, 71
1, 219654, Note_off_c, 0, 82, 67
1, 219722, Note_on_c, 0, 80, 93
1, 219736, Note_on_c, 0, 77, 74
1, 219762, Note_off_c, 0, 77, 68
1, 219773, Note_off_c, 0, 80, 64
1, 219846, Note_on_c, 0, 79, 94
1, 219856, Note_on_c, 0, 75, 84
1, 219972, Note_on_c, 0, 70, 89
1, 219975, Note_on_c, 0, 67, 76
1, 219998, Note_off_c, 0, 70, 65
1, 220005, Note_off_c, 0, 67, 65
1, 220094, Note_on_c, 0, 68, 92
1, 220104, Note_on_c, 0, 65, 74
1, 220123, Note_off_c, 0, 68, 66
1, 220133, Note_off_c, 0, 65, 66
1, 220224, Note_on_c, 0, 67, 77
1, 220238, Note_on_c, 0, 63, 63
1, 220259, Note_off_c, 0, 67, 65
1, 220275, Note_off_c, 0, 63, 61
1, 220291, Note_off_c, 0, 75, 54
1, 220323, Note_off_c, 0, 79, 56
1, 220376, Note_on_c, 0, 62, 60
1, 220376, Note_on_c, 0, 65, 59
1, 220475, Note_off_c, 0, 62, 49
1, 220483, Note_on_c, 0, 84, 65
1, 220491, Note_on_c, 0, 80, 55
1, 220492, Note_off_c, 0, 65, 58
1, 220521, Note_off_c, 0, 84, 59
1, 220525, Note_off_c, 0, 80, 66
1, 220628, Note_on_c, 0, 82, 61
1, 220638, Note_on_c, 0, 79, 47
1, 220662, Note_off_c, 0, 82, 65
1, 220663, Note_off_c, 0, 79, 58
1, 220751, Note_on_c, 0, 80, 64
1, 220755, Note_on_c, 0, 77, 53
1, 220759, Control_c, 0, 64, 8
1, 220773, Control_c, 0, 64, 10
1, 220776, Note_off_c, 0, 77, 61
1, 220780, Note_off_c, 0, 80, 68
1, 220818, Control_c, 0, 64, 12
1, 220874, Note_on_c, 0, 79, 62
1, 220883, Note_on_c, 0, 75, 65
1, 220991, Note_on_c, 0, 70, 72
1, 221005, Note_on_c, 0, 67, 56
1, 221017, Note_off_c, 0, 70, 68
1, 221035, Note_off_c, 0, 67, 65
1, 221071, Control_c, 0, 64, 14
1, 221108, Control_c, 0, 64, 18
1, 221123, Control_c, 0, 64, 22
1, 221130, Note_on_c, 0, 68, 66
1, 221137, Control_c, 0, 64, 23
1, 221139, Note_on_c, 0, 65, 55
1, 221152, Control_c, 0, 64, 24
1, 221162, Note_off_c, 0, 68, 64
1, 221167, Control_c, 0, 64, 25
1, 221175, Note_off_c, 0, 65, 64
1, 221182, Control_c, 0, 64, 26
1, 221226, Control_c, 0, 64, 26
1, 221257, Note_off_c, 0, 75, 43
1, 221266, Note_on_c, 0, 63, 57
1, 221266, Note_on_c, 0, 67, 51
1, 221292, Note_off_c, 0, 67, 58
1, 221307, Note_off_c, 0, 63, 60
1, 221387, Note_off_c, 0, 79, 45
1, 221408, Note_on_c, 0, 65, 30
1, 221416, Note_on_c, 0, 62, 21
1, 221445, Note_off_c, 0, 65, 43
1, 221449, Note_off_c, 0, 62, 47
1, 221516, Note_on_c, 0, 70, 66
1, 221518, Note_on_c, 0, 84, 77
1, 221521, Note_on_c, 0, 80, 69
1, 221582, Control_c, 0, 64, 27
1, 221588, Note_off_c, 0, 80, 64
1, 221596, Control_c, 0, 64, 29
1, 221597, Note_off_c, 0, 70, 57
1, 221611, Control_c, 0, 64, 31
1, 221619, Note_off_c, 0, 84, 57
1, 221626, Control_c, 0, 64, 33
1, 221634, Note_on_c, 0, 82, 92
1, 221636, Note_on_c, 0, 72, 68
1, 221640, Note_on_c, 0, 79, 80
1, 221640, Control_c, 0, 64, 34
1, 221655, Control_c, 0, 64, 34
1, 221685, Control_c, 0, 64, 35
1, 221695, Note_off_c, 0, 79, 62
1, 221700, Control_c, 0, 64, 35
1, 221707, Note_off_c, 0, 72, 65
1, 221729, Note_off_c, 0, 82, 64
1, 221729, Control_c, 0, 64, 36
1, 221745, Note_on_c, 0, 74, 79
1, 221756, Note_on_c, 0, 77, 86
1, 221758, Note_on_c, 0, 80, 88
1, 221759, Control_c, 0, 64, 36
1, 221800, Note_off_c, 0, 77, 62
1, 221804, Note_off_c, 0, 74, 62
1, 221847, Note_off_c, 0, 80, 63
1, 221867, Note_on_c, 0, 75, 76
1, 221877, Note_on_c, 0, 79, 86
1, 221931, Control_c, 0, 64, 37
1, 221965, Note_off_c, 0, 79, 62
1, 221975, Note_off_c, 0, 75, 60
1, 221998, Note_on_c, 0, 82, 31
1, 222000, Note_on_c, 0, 79, 73
1, 222000, Note_on_c, 0, 87, 104
1, 222081, Note_off_c, 0, 87, 66
1, 222097, Note_off_c, 0, 79, 55
1, 222132, Note_on_c, 0, 80, 86
1, 222135, Note_on_c, 0, 86, 90
1, 222136, Note_on_c, 0, 77, 80
1, 222162, Note_off_c, 0, 82, 51
1, 222215, Note_off_c, 0, 80, 61
1, 222221, Note_off_c, 0, 86, 59
1, 222248, Note_on_c, 0, 84, 93
1, 222257, Control_c, 0, 64, 36
1, 222260, Note_on_c, 0, 75, 74
1, 222280, Note_off_c, 0, 77, 28
1, 222286, Control_c, 0, 64, 35
1, 222300, Control_c, 0, 64, 35
1, 222315, Control_c, 0, 64, 34
1, 222330, Control_c, 0, 64, 33
1, 222335, Note_off_c, 0, 75, 60
1, 222344, Control_c, 0, 64, 32
1, 222359, Control_c, 0, 64, 31
1, 222378, Note_on_c, 0, 77, 85
1, 222378, Note_on_c, 0, 82, 91
1, 222384, Note_on_c, 0, 74, 65
1, 222389, Control_c, 0, 64, 31
1, 222404, Note_off_c, 0, 84, 63
1, 222404, Control_c, 0, 64, 30
1, 222414, Note_off_c, 0, 74, 65
1, 222415, Note_off_c, 0, 77, 61
1, 222418, Control_c, 0, 64, 28
1, 222433, Control_c, 0, 64, 26
1, 222448, Control_c, 0, 64, 25
1, 222463, Control_c, 0, 64, 24
1, 222501, Note_on_c, 0, 80, 94
1, 222502, Note_on_c, 0, 75, 67
1, 222510, Note_on_c, 0, 72, 61
1, 222522, Note_off_c, 0, 82, 63
1, 222531, Note_off_c, 0, 75, 66
1, 222538, Note_off_c, 0, 72, 66
1, 222612, Note_off_c, 0, 80, 64
1, 222631, Note_on_c, 0, 79, 87
1, 222635, Note_on_c, 0, 70, 67
1, 222638, Note_on_c, 0, 74, 67
1, 222671, Note_off_c, 0, 74, 63
1, 222678, Note_off_c, 0, 70, 62
1, 222747, Note_off_c, 0, 79, 0
1, 222753, Note_on_c, 0, 72, 72
1, 222763, Note_on_c, 0, 77, 89
1, 222768, Note_on_c, 0, 68, 58
1, 222778, Poly_aftertouch_c, 0, 79, 0
1, 222784, Note_off_c, 0, 72, 65
1, 222800, Note_off_c, 0, 68, 64
1, 222909, Note_on_c, 0, 67, 51
1, 222910, Note_on_c, 0, 76, 90
1, 222917, Note_on_c, 0, 70, 60
1, 222919, Note_off_c, 0, 77, 61
1, 223064, Control_c, 0, 64, 24
1, 223123, Control_c, 0, 64, 25
1, 223138, Control_c, 0, 64, 26
1, 223153, Control_c, 0, 64, 28
1, 223167, Control_c, 0, 64, 29
1, 223182, Control_c, 0, 64, 30
1, 223197, Control_c, 0, 64, 30
1, 223212, Control_c, 0, 64, 31
1, 223241, Control_c, 0, 64, 31
1, 223256, Control_c, 0, 64, 32
1, 223271, Control_c, 0, 64, 32
1, 223436, Note_off_c, 0, 67, 23
1, 223459, Note_off_c, 0, 70, 44
1, 223474, Note_off_c, 0, 76, 62
1, 223481, Note_on_c, 0, 68, 41
1, 223482, Note_on_c, 0, 77, 68
1, 223488, Note_on_c, 0, 72, 29
1, 223590, Note_off_c, 0, 72, 56
1, 223620, Control_c, 0, 64, 31
1, 223645, Note_off_c, 0, 68, 60
1, 223646, Note_off_c, 0, 77, 60
1, 224006, Control_c, 0, 64, 32
1, 224051, Control_c, 0, 64, 32
1, 224065, Control_c, 0, 64, 33
1, 224087, Control_c, 0, 64, 34
1, 224087, Control_c, 0, 67, 12
1, 224095, Note_on_c, 0, 74, 55
1, 224102, Note_on_c, 0, 70, 37
1, 224102, Control_c, 0, 67, 33
1, 224105, Note_on_c, 0, 65, 40
1, 224117, Control_c, 0, 64, 34
1, 224117, Control_c, 0, 67, 67
1, 224120, Note_on_c, 0, 68, 27
1, 224132, Control_c, 0, 67, 106
1, 224147, Control_c, 0, 64, 35
1, 224147, Control_c, 0, 67, 127
1, 224162, Control_c, 0, 64, 36
1, 224177, Control_c, 0, 64, 39
1, 224191, Control_c, 0, 64, 40
1, 224206, Control_c, 0, 64, 41
1, 224221, Control_c, 0, 64, 41
1, 224266, Control_c, 0, 64, 42
1, 224281, Control_c, 0, 64, 44
1, 224296, Control_c, 0, 64, 47
1, 224311, Control_c, 0, 64, 51
1, 224326, Control_c, 0, 64, 57
1, 224340, Control_c, 0, 64, 63
1, 224355, Control_c, 0, 64, 67
1, 224370, Control_c, 0, 64, 72
1, 224385, Control_c, 0, 64, 80
1, 224400, Control_c, 0, 64, 88
1, 224414, Control_c, 0, 64, 96
1, 224429, Control_c, 0, 64, 102
1, 224444, Control_c, 0, 64, 107
1, 224459, Control_c, 0, 64, 112
1, 224474, Control_c, 0, 64, 116
1, 224488, Control_c, 0, 64, 118
1, 224562, Control_c, 0, 64, 115
1, 224570, Note_off_c, 0, 65, 36
1, 224577, Control_c, 0, 64, 114
1, 224592, Control_c, 0, 64, 112
1, 224607, Control_c, 0, 64, 111
1, 224621, Control_c, 0, 64, 110
1, 224630, Note_off_c, 0, 68, 35
1, 224636, Control_c, 0, 64, 108
1, 224651, Control_c, 0, 64, 107
1, 224666, Control_c, 0, 64, 106
1, 224681, Note_on_c, 0, 67, 41
1, 224681, Control_c, 0, 64, 104
1, 224687, Note_off_c, 0, 74, 52
1, 224695, Control_c, 0, 64, 100
1, 224698, Note_on_c, 0, 75, 52
1, 224710, Control_c, 0, 64, 90
1, 224725, Control_c, 0, 64, 77
1, 224740, Control_c, 0, 64, 68
1, 224755, Control_c, 0, 64, 59
1, 224770, Control_c, 0, 64, 52
1, 224776, Note_off_c, 0, 70, 42
1, 224785, Control_c, 0, 64, 51
1, 224814, Control_c, 0, 64, 50
1, 224833, Note_off_c, 0, 67, 52
1, 224836, Control_c, 0, 64, 49
1, 224851, Control_c, 0, 64, 45
1, 224865, Control_c, 0, 64, 41
1, 224880, Control_c, 0, 64, 39
1, 224928, Note_off_c, 0, 75, 43
1, 225134, Control_c, 0, 64, 40
1, 225208, Control_c, 0, 64, 40
1, 225223, Control_c, 0, 64, 41
1, 225252, Control_c, 0, 64, 42
1, 225311, Control_c, 0, 64, 42
1, 225326, Control_c, 0, 64, 43
1, 225356, Control_c, 0, 64, 44
1, 225370, Control_c, 0, 64, 44
1, 225415, Control_c, 0, 64, 45
1, 225430, Control_c, 0, 64, 45
1, 225459, Control_c, 0, 64, 46
1, 225518, Control_c, 0, 64, 46
1, 225548, Control_c, 0, 64, 47
1, 225563, Control_c, 0, 64, 47
1, 225600, Control_c, 0, 64, 48
1, 225674, Control_c, 0, 64, 48
1, 225733, Control_c, 0, 64, 49
1, 225882, Control_c, 0, 64, 49
1, 225956, Control_c, 0, 64, 50
1, 226133, Control_c, 0, 64, 50
1, 226237, Control_c, 0, 64, 51
1, 226363, Control_c, 0, 64, 51
1, 226541, Control_c, 0, 64, 52
1, 226681, Note_on_c, 0, 72, 55
1, 226687, Note_on_c, 0, 60, 47
1, 226912, Control_c, 0, 64, 52
1, 226941, Control_c, 0, 64, 53
1, 226956, Control_c, 0, 64, 54
1, 226971, Control_c, 0, 64, 56
1, 226986, Control_c, 0, 64, 57
1, 227000, Control_c, 0, 64, 59
1, 227015, Control_c, 0, 64, 61
1, 227030, Control_c, 0, 64, 62
1, 227045, Control_c, 0, 64, 63
1, 227060, Control_c, 0, 64, 64
1, 227082, Control_c, 0, 64, 65
1, 227097, Control_c, 0, 64, 66
1, 227112, Control_c, 0, 64, 68
1, 227127, Control_c, 0, 64, 70
1, 227141, Control_c, 0, 64, 73
1, 227156, Control_c, 0, 64, 76
1, 227171, Control_c, 0, 64, 79
1, 227186, Control_c, 0, 64, 84
1, 227201, Control_c, 0, 64, 89
1, 227215, Control_c, 0, 64, 94
1, 227230, Control_c, 0, 64, 101
1, 227245, Control_c, 0, 64, 111
1, 227260, Control_c, 0, 64, 127
1, 227599, Note_off_c, 0, 72, 55
1, 227699, Note_off_c, 0, 60, 55
1, 228074, Note_on_c, 0, 71, 50
1, 228076, Note_on_c, 0, 59, 48
1, 228079, Note_on_c, 0, 47, 34
1, 228087, Note_on_c, 0, 35, 28
1, 228113, Control_c, 0, 64, 99
1, 228128, Control_c, 0, 64, 85
1, 228143, Control_c, 0, 64, 74
1, 228157, Control_c, 0, 64, 66
1, 228172, Control_c, 0, 64, 60
1, 228187, Control_c, 0, 64, 54
1, 228202, Control_c, 0, 64, 50
1, 228217, Control_c, 0, 64, 49
1, 228233, Control_c, 0, 64, 48
1, 228248, Control_c, 0, 64, 46
1, 228262, Control_c, 0, 64, 45
1, 228277, Control_c, 0, 64, 42
1, 228292, Control_c, 0, 64, 39
1, 228307, Control_c, 0, 64, 38
1, 228336, Control_c, 0, 64, 39
1, 228351, Control_c, 0, 64, 41
1, 228366, Control_c, 0, 64, 43
1, 228380, Control_c, 0, 64, 46
1, 228395, Control_c, 0, 64, 50
1, 228410, Control_c, 0, 64, 54
1, 228425, Control_c, 0, 64, 57
1, 228440, Control_c, 0, 64, 60
1, 228454, Control_c, 0, 64, 62
1, 228469, Control_c, 0, 64, 64
1, 228484, Control_c, 0, 64, 65
1, 228499, Control_c, 0, 64, 67
1, 228514, Control_c, 0, 64, 70
1, 228529, Control_c, 0, 64, 72
1, 228544, Control_c, 0, 64, 76
1, 228559, Control_c, 0, 64, 81
1, 228574, Control_c, 0, 64, 89
1, 228595, Control_c, 0, 64, 97
1, 228610, Control_c, 0, 64, 110
1, 228625, Control_c, 0, 64, 127
1, 228869, Note_off_c, 0, 71, 35
1, 228986, Note_off_c, 0, 47, 36
1, 228992, Note_off_c, 0, 59, 17
1, 229083, Note_off_c, 0, 35, 38
1, 229545, Note_on_c, 0, 69, 40
1, 229547, Note_on_c, 0, 45, 33
1, 229548, Note_on_c, 0, 57, 39
1, 229563, Note_on_c, 0, 33, 31
1, 229565, Control_c, 0, 64, 113
1, 229580, Control_c, 0, 64, 99
1, 229595, Control_c, 0, 64, 90
1, 229609, Control_c, 0, 64, 82
1, 229624, Control_c, 0, 64, 76
1, 229639, Control_c, 0, 64, 71
1, 229654, Control_c, 0, 64, 66
1, 229669, Control_c, 0, 64, 61
1, 229683, Control_c, 0, 64, 56
1, 229698, Control_c, 0, 64, 49
1, 229713, Control_c, 0, 64, 45
1, 229727, Control_c, 0, 64, 43
1, 229802, Control_c, 0, 64, 45
1, 229817, Control_c, 0, 64, 49
1, 229832, Control_c, 0, 64, 55
1, 229847, Control_c, 0, 64, 59
1, 229862, Control_c, 0, 64, 62
1, 229877, Control_c, 0, 64, 64
1, 229892, Control_c, 0, 64, 65
1, 229906, Control_c, 0, 64, 67
1, 229921, Control_c, 0, 64, 69
1, 229936, Control_c, 0, 64, 72
1, 229951, Control_c, 0, 64, 74
1, 229966, Control_c, 0, 64, 77
1, 229981, Control_c, 0, 64, 79
1, 229996, Control_c, 0, 64, 83
1, 230010, Control_c, 0, 64, 87
1, 230025, Control_c, 0, 64, 91
1, 230040, Control_c, 0, 64, 96
1, 230055, Control_c, 0, 64, 100
1, 230070, Control_c, 0, 64, 106
1, 230092, Control_c, 0, 64, 111
1, 230106, Control_c, 0, 64, 121
1, 230121, Control_c, 0, 64, 127
1, 230362, Note_off_c, 0, 69, 57
1, 230406, Note_off_c, 0, 45, 38
1, 230419, Note_off_c, 0, 33, 40
1, 230487, Note_off_c, 0, 57, 57
1, 230803, Control_c, 0, 64, 112
1, 230809, Note_on_c, 0, 32, 29
1, 230811, Note_on_c, 0, 56, 40
1, 230826, Control_c, 0, 64, 96
1, 230829, Note_on_c, 0, 68, 42
1, 230839, Note_on_c, 0, 44, 15
1, 230841, Control_c, 0, 64, 84
1, 230855, Control_c, 0, 64, 74
1, 230870, Control_c, 0, 64, 65
1, 230885, Control_c, 0, 64, 57
1, 230900, Control_c, 0, 64, 48
1, 230915, Control_c, 0, 64, 44
1, 230929, Control_c, 0, 64, 46
1, 230944, Control_c, 0, 64, 50
1, 230959, Control_c, 0, 64, 54
1, 230974, Control_c, 0, 64, 58
1, 230988, Control_c, 0, 64, 62
1, 231003, Control_c, 0, 64, 64
1, 231018, Control_c, 0, 64, 66
1, 231033, Control_c, 0, 64, 69
1, 231048, Control_c, 0, 64, 73
1, 231063, Control_c, 0, 64, 78
1, 231078, Control_c, 0, 64, 83
1, 231090, Note_off_c, 0, 56, 63
1, 231093, Control_c, 0, 64, 92
1, 231107, Control_c, 0, 64, 102
1, 231122, Control_c, 0, 64, 116
1, 231133, Note_off_c, 0, 44, 41
1, 231136, Note_off_c, 0, 32, 39
1, 231137, Control_c, 0, 64, 127
1, 231189, Note_off_c, 0, 68, 30
1, 231385, Note_on_c, 0, 69, 72
1, 231391, Note_on_c, 0, 33, 44
1, 231394, Note_on_c, 0, 57, 54
1, 231399, Note_on_c, 0, 45, 38
1, 231404, Control_c, 0, 64, 108
1, 231420, Control_c, 0, 64, 88
1, 231435, Control_c, 0, 64, 74
1, 231450, Control_c, 0, 64, 65
1, 231465, Control_c, 0, 64, 55
1, 231479, Control_c, 0, 64, 48
1, 231494, Control_c, 0, 64, 46
1, 231509, Control_c, 0, 64, 48
1, 231524, Control_c, 0, 64, 53
1, 231539, Control_c, 0, 64, 60
1, 231553, Control_c, 0, 64, 65
1, 231575, Control_c, 0, 64, 69
1, 231590, Control_c, 0, 64, 75
1, 231605, Control_c, 0, 64, 84
1, 231605, Control_c, 0, 67, 97
1, 231620, Control_c, 0, 64, 96
1, 231620, Control_c, 0, 67, 27
1, 231633, Note_off_c, 0, 57, 59
1, 231635, Control_c, 0, 64, 127
1, 231635, Control_c, 0, 67, 0
1, 231645, Note_off_c, 0, 69, 62
1, 231703, Note_off_c, 0, 33, 40
1, 231704, Note_off_c, 0, 45, 57
1, 231930, Control_c, 0, 64, 103
1, 231945, Control_c, 0, 64, 71
1, 231960, Control_c, 0, 64, 49
1, 231975, Control_c, 0, 64, 0
1, 231999, Note_on_c, 0, 58, 98
1, 232001, Note_on_c, 0, 34, 82
1, 232003, Note_on_c, 0, 67, 85
1, 232004, Note_on_c, 0, 70, 90
1, 232005, Control_c, 0, 64, 47
1, 232008, Note_on_c, 0, 63, 86
1, 232020, Control_c, 0, 64, 66
1, 232034, Control_c, 0, 64, 82
1, 232038, Note_off_c, 0, 58, 67
1, 232049, Control_c, 0, 64, 127
1, 232057, Note_off_c, 0, 34, 62
1, 232058, Note_off_c, 0, 63, 62
1, 232066, Note_off_c, 0, 67, 65
1, 232078, Note_on_c, 0, 46, 70
1, 232082, Note_off_c, 0, 70, 67
1, 232120, Note_off_c, 0, 46, 53
1, 232137, Note_on_c, 0, 34, 70
1, 232167, Note_off_c, 0, 34, 66
1, 232196, Note_on_c, 0, 46, 68
1, 232225, Note_off_c, 0, 46, 65
1, 232257, Note_on_c, 0, 34, 67
1, 232294, Note_off_c, 0, 34, 61
1, 232323, Note_on_c, 0, 46, 69
1, 232353, Note_off_c, 0, 46, 65
1, 232383, Note_on_c, 0, 34, 69
1, 232416, Note_off_c, 0, 34, 62
1, 232434, Note_on_c, 0, 46, 64
1, 232467, Note_off_c, 0, 46, 64
1, 232499, Note_on_c, 0, 34, 74
1, 232511, Note_on_c, 0, 75, 105
1, 232516, Note_on_c, 0, 67, 85
1, 232521, Note_on_c, 0, 70, 89
1, 232538, Note_off_c, 0, 67, 65
1, 232544, Note_off_c, 0, 34, 58
1, 232561, Note_on_c, 0, 46, 73
1, 232561, Note_off_c, 0, 70, 61
1, 232582, Note_off_c, 0, 75, 62
1, 232599, Note_off_c, 0, 46, 63
1, 232635, Note_on_c, 0, 34, 66
1, 232668, Note_off_c, 0, 34, 63
1, 232684, Note_on_c, 0, 46, 67
1, 232720, Note_off_c, 0, 46, 60
1, 232747, Note_on_c, 0, 34, 78
1, 232756, Note_on_c, 0, 79, 99
1, 232764, Note_on_c, 0, 75, 93
1, 232771, Note_on_c, 0, 70, 87
1, 232792, Note_off_c, 0, 70, 71
1, 232806, Note_off_c, 0, 75, 65
1, 232807, Note_off_c, 0, 34, 61
1, 232812, Note_off_c, 0, 79, 67
1, 232818, Note_on_c, 0, 46, 74
1, 232849, Note_off_c, 0, 46, 62
1, 232889, Note_on_c, 0, 34, 62
1, 232923, Note_off_c, 0, 34, 61
1, 232953, Note_on_c, 0, 46, 60
1, 233003, Note_off_c, 0, 46, 59
1, 233024, Note_on_c, 0, 82, 100
1, 233029, Note_on_c, 0, 34, 81
1, 233038, Note_on_c, 0, 79, 87
1, 233053, Note_on_c, 0, 74, 71
1, 233087, Note_off_c, 0, 74, 68
1, 233089, Note_off_c, 0, 34, 60
1, 233094, Note_off_c, 0, 79, 67
1, 233103, Note_off_c, 0, 82, 67
1, 233250, Control_c, 0, 64, 83
1, 233265, Control_c, 0, 64, 60
1, 233280, Control_c, 0, 64, 0
1, 233435, Note_on_c, 0, 79, 79
1, 233441, Note_on_c, 0, 63, 56
1, 233441, Note_on_c, 0, 67, 62
1, 233459, Note_on_c, 0, 75, 43
1, 233471, Note_off_c, 0, 67, 66
1, 233482, Note_off_c, 0, 63, 65
1, 233483, Note_off_c, 0, 79, 64
1, 233485, Note_off_c, 0, 75, 54
1, 233549, Note_on_c, 0, 82, 84
1, 233559, Note_on_c, 0, 67, 65
1, 233564, Note_on_c, 0, 70, 70
1, 233571, Note_on_c, 0, 79, 67
1, 233577, Note_on_c, 0, 75, 46
1, 233589, Note_off_c, 0, 70, 70
1, 233593, Note_off_c, 0, 67, 65
1, 233599, Note_off_c, 0, 79, 67
1, 233601, Note_off_c, 0, 75, 56
1, 233604, Note_off_c, 0, 82, 65
1, 233670, Note_on_c, 0, 79, 91
1, 233677, Note_on_c, 0, 75, 79
1, 233680, Note_on_c, 0, 67, 84
1, 233682, Note_on_c, 0, 63, 68
1, 233710, Note_off_c, 0, 67, 64
1, 233713, Note_off_c, 0, 63, 66
1, 233718, Note_off_c, 0, 75, 59
1, 233719, Note_off_c, 0, 79, 67
1, 233792, Note_on_c, 0, 67, 86
1, 233792, Note_on_c, 0, 82, 93
1, 233793, Note_on_c, 0, 70, 90
1, 233797, Note_on_c, 0, 79, 94
1, 233804, Note_on_c, 0, 78, 51
1, 233829, Note_off_c, 0, 70, 66
1, 233836, Note_off_c, 0, 78, 40
1, 233845, Note_off_c, 0, 79, 64
1, 233847, Note_on_c, 0, 75, 35
1, 233849, Note_off_c, 0, 67, 62
1, 233862, Note_off_c, 0, 82, 66
1, 233869, Note_off_c, 0, 75, 39
1, 233922, Note_on_c, 0, 63, 68
1, 233922, Note_on_c, 0, 79, 91
1, 233930, Note_on_c, 0, 75, 90
1, 233933, Note_on_c, 0, 67, 76
1, 233963, Note_off_c, 0, 67, 63
1, 233978, Note_off_c, 0, 79, 64
1, 233978, Note_off_c, 0, 63, 61
1, 233981, Note_off_c, 0, 75, 62
1, 234043, Note_on_c, 0, 82, 98
1, 234044, Control_c, 0, 64, 43
1, 234047, Note_on_c, 0, 79, 95
1, 234051, Note_on_c, 0, 67, 87
1, 234051, Note_on_c, 0, 70, 90
1, 234059, Control_c, 0, 64, 67
1, 234073, Control_c, 0, 64, 113
1, 234080, Note_off_c, 0, 70, 66
1, 234088, Control_c, 0, 64, 127
1, 234097, Note_off_c, 0, 67, 66
1, 234105, Note_off_c, 0, 82, 68
1, 234107, Note_off_c, 0, 79, 65
1, 234311, Control_c, 0, 64, 85
1, 234326, Control_c, 0, 64, 45
1, 234340, Control_c, 0, 64, 0
1, 234399, Control_c, 0, 64, 40
1, 234414, Control_c, 0, 64, 34
1, 234429, Control_c, 0, 64, 0
1, 234611, Note_on_c, 0, 74, 101
1, 234615, Note_on_c, 0, 53, 70
1, 234616, Note_on_c, 0, 46, 74
1, 234616, Note_on_c, 0, 65, 91
1, 234618, Note_on_c, 0, 58, 84
1, 234620, Note_on_c, 0, 70, 90
1, 234622, Note_on_c, 0, 68, 83
1, 234625, Note_on_c, 0, 50, 64
1, 234630, Control_c, 0, 64, 42
1, 234645, Control_c, 0, 64, 66
1, 234660, Control_c, 0, 64, 99
1, 234661, Note_off_c, 0, 65, 64
1, 234669, Note_off_c, 0, 58, 60
1, 234675, Control_c, 0, 64, 127
1, 234687, Note_off_c, 0, 74, 66
1, 234693, Note_off_c, 0, 68, 62
1, 234703, Note_off_c, 0, 70, 64
1, 234707, Note_off_c, 0, 53, 62
1, 234708, Note_off_c, 0, 46, 62
1, 234720, Note_off_c, 0, 50, 63
1, 234896, Control_c, 0, 64, 92
1, 234911, Control_c, 0, 64, 61
1, 234926, Control_c, 0, 64, 0
1, 235180, Note_on_c, 0, 75, 94
1, 235186, Note_on_c, 0, 55, 74
1, 235191, Note_on_c, 0, 51, 73
1, 235248, Note_on_c, 0, 79, 89
1, 235251, Note_off_c, 0, 75, 65
1, 235325, Note_on_c, 0, 77, 85
1, 235362, Note_off_c, 0, 79, 65
1, 235393, Note_on_c, 0, 75, 85
1, 235426, Note_off_c, 0, 77, 63
1, 235458, Note_on_c, 0, 74, 86
1, 235463, Note_off_c, 0, 55, 58
1, 235487, Note_off_c, 0, 75, 58
1, 235499, Note_off_c, 0, 51, 64
1, 235518, Note_off_c, 0, 74, 63
1, 235529, Note_on_c, 0, 72, 80
1, 235570, Note_off_c, 0, 72, 65
1, 235606, Note_on_c, 0, 70, 80
1, 235651, Note_off_c, 0, 70, 63
1, 235666, Note_on_c, 0, 69, 75
1, 235728, Note_on_c, 0, 53, 68
1, 235740, Note_on_c, 0, 46, 59
1, 235771, Note_off_c, 0, 69, 64
1, 235778, Note_on_c, 0, 72, 72
1, 235855, Note_on_c, 0, 70, 78
1, 235864, Note_off_c, 0, 72, 64
1, 235896, Note_off_c, 0, 46, 61
1, 235900, Note_off_c, 0, 53, 63
1, 235906, Note_off_c, 0, 70, 67
1, 235916, Note_on_c, 0, 68, 70
1, 235970, Note_on_c, 0, 67, 76
1, 235987, Note_off_c, 0, 68, 62
1, 236011, Note_off_c, 0, 67, 64
1, 236032, Note_on_c, 0, 65, 70
1, 236097, Note_off_c, 0, 65, 54
1, 236106, Note_on_c, 0, 63, 80
1, 236148, Note_off_c, 0, 63, 62
1, 236177, Note_on_c, 0, 62, 71
1, 236203, Note_off_c, 0, 62, 68
1, 236254, Note_on_c, 0, 55, 74
1, 236255, Note_on_c, 0, 51, 86
1, 236258, Note_on_c, 0, 63, 94
1, 236327, Note_on_c, 0, 79, 101
1, 236403, Note_on_c, 0, 77, 85
1, 236425, Control_c, 0, 64, 12
1, 236440, Control_c, 0, 64, 18
1, 236452, Note_off_c, 0, 79, 65
1, 236455, Control_c, 0, 64, 24
1, 236469, Note_on_c, 0, 75, 91
1, 236469, Control_c, 0, 64, 29
1, 236477, Note_off_c, 0, 63, 62
1, 236484, Control_c, 0, 64, 31
1, 236502, Note_off_c, 0, 77, 65
1, 236515, Note_off_c, 0, 55, 62
1, 236523, Note_on_c, 0, 74, 88
1, 236536, Note_off_c, 0, 51, 64
1, 236554, Note_off_c, 0, 75, 64
1, 236591, Note_off_c, 0, 74, 65
1, 236592, Note_on_c, 0, 72, 87
1, 236643, Note_off_c, 0, 72, 61
1, 236665, Note_on_c, 0, 70, 84
1, 236676, Control_c, 0, 64, 30
1, 236691, Control_c, 0, 64, 29
1, 236712, Note_off_c, 0, 70, 63
1, 236718, Note_on_c, 0, 69, 74
1, 236720, Control_c, 0, 64, 28
1, 236735, Control_c, 0, 64, 27
1, 236750, Control_c, 0, 64, 26
1, 236765, Control_c, 0, 64, 25
1, 236780, Note_on_c, 0, 68, 84
1, 236780, Control_c, 0, 64, 23
1, 236781, Note_on_c, 0, 53, 67
1, 236783, Note_on_c, 0, 46, 59
1, 236785, Note_off_c, 0, 69, 64
1, 236794, Control_c, 0, 64, 21
1, 236809, Control_c, 0, 64, 20
1, 236846, Note_off_c, 0, 68, 63
1, 236846, Control_c, 0, 64, 19
1, 236852, Note_on_c, 0, 72, 83
1, 236920, Control_c, 0, 64, 18
1, 236926, Note_on_c, 0, 70, 78
1, 236934, Note_off_c, 0, 72, 62
1, 236935, Control_c, 0, 64, 17
1, 236950, Control_c, 0, 64, 16
1, 236960, Note_off_c, 0, 53, 55
1, 236965, Control_c, 0, 64, 15
1, 236979, Note_off_c, 0, 70, 67
1, 236989, Note_on_c, 0, 68, 69
1, 237036, Note_off_c, 0, 46, 56
1, 237039, Control_c, 0, 64, 14
1, 237048, Note_off_c, 0, 68, 64
1, 237050, Note_on_c, 0, 67, 74
1, 237086, Note_off_c, 0, 67, 66
1, 237108, Note_on_c, 0, 65, 72
1, 237143, Note_off_c, 0, 65, 62
1, 237188, Note_on_c, 0, 63, 69
1, 237223, Note_off_c, 0, 63, 66
1, 237260, Note_on_c, 0, 62, 65
1, 237300, Note_off_c, 0, 62, 62
1, 237315, Note_on_c, 0, 39, 55
1, 237316, Note_on_c, 0, 51, 69
1, 237326, Note_on_c, 0, 63, 63
1, 237352, Note_off_c, 0, 51, 64
1, 237353, Note_off_c, 0, 39, 64
1, 237355, Note_off_c, 0, 63, 65
1, 237380, Control_c, 0, 64, 15
1, 237393, Note_on_c, 0, 62, 53
1, 237410, Control_c, 0, 64, 16
1, 237421, Note_on_c, 0, 63, 59
1, 237422, Note_off_c, 0, 62, 64
1, 237451, Note_off_c, 0, 63, 65
1, 237463, Note_on_c, 0, 67, 67
1, 237491, Note_off_c, 0, 67, 67
1, 237548, Note_on_c, 0, 43, 66
1, 237549, Note_on_c, 0, 67, 91
1, 237553, Note_on_c, 0, 55, 81
1, 237588, Note_off_c, 0, 55, 67
1, 237594, Note_off_c, 0, 43, 66
1, 237595, Control_c, 0, 64, 17
1, 237609, Note_off_c, 0, 67, 64
1, 237624, Control_c, 0, 64, 18
1, 237630, Note_on_c, 0, 66, 77
1, 237639, Control_c, 0, 64, 19
1, 237660, Note_off_c, 0, 66, 66
1, 237669, Control_c, 0, 64, 20
1, 237689, Note_on_c, 0, 67, 77
1, 237713, Note_off_c, 0, 67, 69
1, 237766, Note_on_c, 0, 70, 69
1, 237793, Note_off_c, 0, 70, 67
1, 237805, Note_on_c, 0, 58, 95
1, 237810, Note_on_c, 0, 46, 79
1, 237818, Control_c, 0, 64, 22
1, 237822, Note_on_c, 0, 70, 78
1, 237833, Control_c, 0, 64, 25
1, 237841, Note_off_c, 0, 46, 67
1, 237843, Note_off_c, 0, 58, 64
1, 237847, Control_c, 0, 64, 28
1, 237862, Control_c, 0, 64, 31
1, 237871, Note_off_c, 0, 70, 67
1, 237877, Control_c, 0, 64, 34
1, 237886, Note_on_c, 0, 69, 78
1, 237892, Control_c, 0, 64, 36
1, 237907, Control_c, 0, 64, 38
1, 237922, Control_c, 0, 64, 40
1, 237931, Note_off_c, 0, 69, 56
1, 237937, Control_c, 0, 64, 42
1, 237939, Note_on_c, 0, 70, 83
1, 237952, Control_c, 0, 64, 43
1, 237966, Control_c, 0, 64, 44
1, 237994, Note_on_c, 0, 75, 81
1, 238002, Note_off_c, 0, 70, 64
1, 238018, Note_off_c, 0, 75, 67
1, 238040, Control_c, 0, 64, 43
1, 238055, Control_c, 0, 64, 42
1, 238062, Note_on_c, 0, 63, 97
1, 238066, Note_on_c, 0, 75, 92
1, 238070, Control_c, 0, 64, 42
1, 238076, Note_on_c, 0, 51, 71
1, 238085, Control_c, 0, 64, 41
1, 238088, Note_on_c, 0, 54, 43
1, 238100, Note_off_c, 0, 51, 66
1, 238107, Note_on_c, 0, 76, 52
1, 238107, Note_off_c, 0, 63, 64
1, 238112, Note_off_c, 0, 75, 64
1, 238115, Note_off_c, 0, 54, 56
1, 238129, Control_c, 0, 64, 41
1, 238132, Note_on_c, 0, 74, 89
1, 238134, Note_off_c, 0, 76, 61
1, 238144, Control_c, 0, 64, 40
1, 238158, Control_c, 0, 64, 39
1, 238173, Control_c, 0, 64, 38
1, 238178, Note_off_c, 0, 74, 63
1, 238188, Control_c, 0, 64, 38
1, 238199, Note_on_c, 0, 75, 84
1, 238203, Control_c, 0, 64, 37
1, 238218, Control_c, 0, 64, 37
1, 238233, Control_c, 0, 64, 36
1, 238244, Note_on_c, 0, 79, 62
1, 238245, Note_off_c, 0, 75, 64
1, 238247, Control_c, 0, 64, 34
1, 238262, Control_c, 0, 64, 33
1, 238272, Note_off_c, 0, 79, 67
1, 238277, Control_c, 0, 64, 32
1, 238292, Control_c, 0, 64, 32
1, 238316, Note_on_c, 0, 79, 96
1, 238324, Note_on_c, 0, 55, 76
1, 238325, Note_on_c, 0, 67, 92
1, 238357, Note_off_c, 0, 55, 66
1, 238359, Control_c, 0, 64, 32
1, 238361, Note_off_c, 0, 67, 66
1, 238386, Note_off_c, 0, 79, 64
1, 238388, Control_c, 0, 64, 33
1, 238390, Note_on_c, 0, 78, 87
1, 238403, Control_c, 0, 64, 34
1, 238418, Control_c, 0, 64, 34
1, 238438, Note_off_c, 0, 78, 63
1, 238447, Control_c, 0, 64, 35
1, 238449, Note_on_c, 0, 79, 72
1, 238462, Control_c, 0, 64, 36
1, 238481, Note_off_c, 0, 79, 64
1, 238532, Note_on_c, 0, 82, 59
1, 238551, Note_off_c, 0, 82, 64
1, 238575, Note_on_c, 0, 58, 82
1, 238575, Note_on_c, 0, 70, 90
1, 238575, Note_on_c, 0, 82, 94
1, 238595, Control_c, 0, 64, 36
1, 238605, Note_off_c, 0, 70, 66
1, 238608, Note_off_c, 0, 58, 65
1, 238646, Note_on_c, 0, 81, 87
1, 238646, Note_off_c, 0, 82, 64
1, 238694, Note_off_c, 0, 81, 64
1, 238705, Note_on_c, 0, 82, 76
1, 238756, Note_on_c, 0, 87, 84
1, 238762, Note_off_c, 0, 82, 66
1, 238786, Note_off_c, 0, 87, 64
1, 238830, Note_on_c, 0, 75, 87
1, 238834, Note_on_c, 0, 87, 92
1, 238835, Note_on_c, 0, 63, 71
1, 238849, Note_off_c, 0, 75, 71
1, 238864, Note_off_c, 0, 63, 67
1, 238902, Note_off_c, 0, 87, 64
1, 238905, Note_on_c, 0, 82, 73
1, 238955, Note_off_c, 0, 82, 63
1, 238976, Note_on_c, 0, 81, 61
1, 239025, Note_off_c, 0, 81, 62
1, 239040, Note_on_c, 0, 82, 61
1, 239078, Control_c, 0, 64, 36
1, 239081, Note_off_c, 0, 82, 65
1, 239087, Note_on_c, 0, 68, 62
1, 239090, Note_on_c, 0, 58, 56
1, 239097, Note_on_c, 0, 86, 74
1, 239118, Note_off_c, 0, 68, 65
1, 239133, Note_off_c, 0, 58, 62
1, 239144, Note_off_c, 0, 86, 61
1, 239165, Note_on_c, 0, 82, 72
1, 239196, Note_off_c, 0, 82, 66
1, 239244, Note_on_c, 0, 81, 49
1, 239283, Note_off_c, 0, 81, 53
1, 239299, Note_on_c, 0, 82, 59
1, 239332, Note_off_c, 0, 82, 66
1, 239350, Note_on_c, 0, 87, 77
1, 239358, Note_on_c, 0, 67, 44
1, 239361, Note_on_c, 0, 63, 44
1, 239384, Note_off_c, 0, 67, 55
1, 239389, Note_off_c, 0, 63, 52
1, 239403, Note_off_c, 0, 87, 58
1, 239424, Note_on_c, 0, 82, 55
1, 239461, Note_off_c, 0, 82, 66
1, 239497, Note_on_c, 0, 81, 53
1, 239525, Note_off_c, 0, 81, 53
1, 239544, Note_on_c, 0, 82, 65
1, 239573, Note_off_c, 0, 82, 68
1, 239598, Note_on_c, 0, 86, 104
1, 239609, Note_on_c, 0, 58, 61
1, 239609, Note_on_c, 0, 68, 63
1, 239629, Note_off_c, 0, 68, 62
1, 239639, Note_off_c, 0, 58, 65
1, 239669, Note_on_c, 0, 82, 72
1, 239673, Note_off_c, 0, 86, 67
1, 239709, Note_off_c, 0, 82, 65
1, 239732, Note_on_c, 0, 81, 70
1, 239772, Note_on_c, 0, 82, 69
1, 239776, Note_off_c, 0, 81, 64
1, 239832, Note_off_c, 0, 82, 64
1, 239844, Note_on_c, 0, 87, 106
1, 239860, Note_on_c, 0, 67, 63
1, 239861, Note_on_c, 0, 63, 62
1, 239880, Note_off_c, 0, 67, 64
1, 239892, Note_off_c, 0, 63, 65
1, 239921, Note_on_c, 0, 82, 76
1, 239923, Note_off_c, 0, 87, 61
1, 239972, Note_off_c, 0, 82, 65
1, 239985, Note_on_c, 0, 81, 70
1, 240026, Note_off_c, 0, 81, 61
1, 240042, Note_on_c, 0, 82, 70
1, 240071, Note_off_c, 0, 82, 68
1, 240094, Control_c, 0, 64, 36
1, 240098, Note_on_c, 0, 86, 103
1, 240103, Note_on_c, 0, 68, 89
1, 240106, Note_on_c, 0, 58, 72
1, 240109, Control_c, 0, 64, 42
1, 240123, Note_off_c, 0, 68, 70
1, 240124, Control_c, 0, 64, 48
1, 240133, Note_off_c, 0, 58, 68
1, 240139, Control_c, 0, 64, 49
1, 240154, Control_c, 0, 64, 50
1, 240169, Note_on_c, 0, 82, 76
1, 240173, Note_off_c, 0, 86, 65
1, 240183, Control_c, 0, 64, 48
1, 240198, Control_c, 0, 64, 45
1, 240214, Control_c, 0, 64, 43
1, 240221, Note_off_c, 0, 82, 64
1, 240223, Note_on_c, 0, 81, 74
1, 240229, Control_c, 0, 64, 42
1, 240243, Control_c, 0, 64, 41
1, 240271, Control_c, 0, 64, 40
1, 240273, Note_on_c, 0, 82, 68
1, 240274, Note_off_c, 0, 81, 64
1, 240286, Control_c, 0, 64, 40
1, 240301, Control_c, 0, 64, 39
1, 240330, Note_off_c, 0, 82, 65
1, 240330, Control_c, 0, 64, 38
1, 240337, Note_on_c, 0, 87, 109
1, 240345, Control_c, 0, 64, 38
1, 240349, Note_on_c, 0, 63, 74
1, 240380, Note_off_c, 0, 87, 63
1, 240385, Note_off_c, 0, 63, 61
1, 240405, Control_c, 0, 64, 37
1, 240411, Note_on_c, 0, 67, 71
1, 240420, Control_c, 0, 64, 33
1, 240434, Control_c, 0, 64, 29
1, 240449, Control_c, 0, 64, 28
1, 240454, Note_off_c, 0, 67, 60
1, 240464, Control_c, 0, 64, 27
1, 240482, Note_on_c, 0, 63, 67
1, 240512, Note_off_c, 0, 63, 63
1, 240548, Note_on_c, 0, 67, 60
1, 240592, Note_off_c, 0, 67, 62
1, 240608, Note_on_c, 0, 63, 53
1, 240631, Note_on_c, 0, 79, 77
1, 240636, Note_on_c, 0, 75, 57
1, 240649, Note_off_c, 0, 63, 65
1, 240655, Note_off_c, 0, 75, 60
1, 240656, Note_off_c, 0, 79, 69
1, 240679, Note_on_c, 0, 67, 56
1, 240707, Note_off_c, 0, 67, 62
1, 240736, Note_on_c, 0, 63, 56
1, 240769, Note_off_c, 0, 63, 65
1, 240789, Note_on_c, 0, 67, 57
1, 240829, Note_off_c, 0, 67, 60
1, 240860, Note_on_c, 0, 63, 47
1, 240870, Note_on_c, 0, 79, 73
1, 240874, Note_on_c, 0, 82, 74
1, 240894, Note_off_c, 0, 79, 70
1, 240898, Note_off_c, 0, 82, 71
1, 240901, Note_off_c, 0, 63, 64
1, 240935, Note_on_c, 0, 67, 48
1, 240962, Note_off_c, 0, 67, 56
1, 241001, Note_on_c, 0, 63, 51
1, 241042, Note_off_c, 0, 63, 64
1, 241068, Note_on_c, 0, 67, 46
1, 241117, Note_off_c, 0, 67, 61
1, 241125, Note_on_c, 0, 79, 80
1, 241138, Note_on_c, 0, 63, 52
1, 241144, Note_on_c, 0, 75, 44
1, 241158, Note_off_c, 0, 79, 67
1, 241170, Note_off_c, 0, 75, 54
1, 241177, Note_off_c, 0, 63, 63
1, 241218, Note_on_c, 0, 67, 46
1, 241228, Control_c, 0, 64, 28
1, 241243, Note_off_c, 0, 67, 56
1, 241271, Note_on_c, 0, 63, 56
1, 241302, Control_c, 0, 64, 29
1, 241304, Note_off_c, 0, 63, 65
1, 241324, Control_c, 0, 64, 30
1, 241332, Note_on_c, 0, 67, 60
1, 241338, Control_c, 0, 64, 31
1, 241368, Control_c, 0, 64, 31
1, 241376, Note_off_c, 0, 67, 60
1, 241387, Note_on_c, 0, 82, 85
1, 241391, Note_on_c, 0, 79, 67
1, 241396, Note_on_c, 0, 63, 63
1, 241406, Note_off_c, 0, 79, 67
1, 241411, Note_off_c, 0, 82, 68
1, 241412, Control_c, 0, 64, 32
1, 241436, Note_off_c, 0, 63, 62
1, 241456, Note_on_c, 0, 67, 75
1, 241524, Note_off_c, 0, 67, 61
1, 241530, Note_on_c, 0, 63, 76
1, 241561, Control_c, 0, 64, 32
1, 241570, Note_off_c, 0, 63, 61
1, 241574, Note_on_c, 0, 67, 67
1, 241576, Control_c, 0, 64, 33
1, 241635, Control_c, 0, 64, 33
1, 241645, Note_on_c, 0, 51, 102
1, 241648, Note_on_c, 0, 50, 92
1, 241649, Note_on_c, 0, 63, 82
1, 241654, Note_on_c, 0, 48, 88
1, 241657, Note_off_c, 0, 67, 64
1, 241669, Note_off_c, 0, 48, 68
1, 241679, Control_c, 0, 64, 34
1, 241696, Note_off_c, 0, 51, 64
1, 241696, Note_off_c, 0, 50, 63
1, 241701, Note_on_c, 0, 67, 67
1, 241703, Note_off_c, 0, 63, 64
1, 241709, Control_c, 0, 64, 34
1, 241773, Note_on_c, 0, 63, 81
1, 241782, Note_off_c, 0, 67, 63
1, 241826, Note_on_c, 0, 67, 71
1, 241827, Note_off_c, 0, 63, 64
1, 241896, Note_on_c, 0, 46, 100
1, 241896, Note_on_c, 0, 63, 82
1, 241898, Note_on_c, 0, 45, 97
1, 241905, Note_off_c, 0, 67, 62
1, 241917, Control_c, 0, 64, 34
1, 241932, Control_c, 0, 64, 33
1, 241938, Note_off_c, 0, 45, 64
1, 241951, Note_off_c, 0, 46, 66
1, 241951, Note_off_c, 0, 63, 64
1, 241956, Note_on_c, 0, 67, 80
1, 242023, Note_on_c, 0, 63, 76
1, 242027, Note_off_c, 0, 67, 64
1, 242082, Note_off_c, 0, 63, 63
1, 242086, Note_on_c, 0, 67, 79
1, 242089, Note_on_c, 0, 42, 34
1, 242124, Note_off_c, 0, 42, 53
1, 242161, Note_on_c, 0, 43, 101
1, 242162, Note_on_c, 0, 63, 85
1, 242166, Note_off_c, 0, 67, 62
1, 242169, Note_on_c, 0, 42, 94
1, 242208, Note_on_c, 0, 67, 66
1, 242212, Note_off_c, 0, 63, 64
1, 242217, Note_off_c, 0, 43, 65
1, 242226, Note_off_c, 0, 42, 62
1, 242282, Note_on_c, 0, 63, 76
1, 242283, Note_off_c, 0, 67, 61
1, 242299, Note_on_c, 0, 56, 39
1, 242328, Note_off_c, 0, 56, 58
1, 242336, Note_off_c, 0, 63, 63
1, 242343, Note_on_c, 0, 67, 81
1, 242354, Control_c, 0, 64, 32
1, 242369, Control_c, 0, 64, 24
1, 242384, Control_c, 0, 64, 14
1, 242399, Control_c, 0, 64, 0
1, 242428, Control_c, 0, 64, 19
1, 242431, Note_on_c, 0, 39, 98
1, 242431, Note_on_c, 0, 63, 96
1, 242432, Note_off_c, 0, 67, 63
1, 242443, Control_c, 0, 64, 43
1, 242458, Control_c, 0, 64, 60
1, 242473, Control_c, 0, 64, 69
1, 242487, Control_c, 0, 64, 94
1, 242489, Note_off_c, 0, 39, 64
1, 242500, Note_off_c, 0, 63, 63
1, 242502, Control_c, 0, 64, 127
1, 242682, Control_c, 0, 64, 87
1, 242697, Control_c, 0, 64, 64
1, 242711, Control_c, 0, 64, 0
1, 242926, Control_c, 0, 64, 21
1, 242941, Control_c, 0, 64, 39
1, 242956, Control_c, 0, 64, 53
1, 242971, Control_c, 0, 64, 63
1, 242974, Note_on_c, 0, 87, 107
1, 242980, Note_on_c, 0, 79, 102
1, 242982, Note_on_c, 0, 51, 89
1, 242985, Note_on_c, 0, 63, 105
1, 242986, Control_c, 0, 64, 74
1, 242988, Note_on_c, 0, 58, 88
1, 242991, Note_on_c, 0, 82, 70
1, 242992, Note_on_c, 0, 55, 80
1, 242995, Note_on_c, 0, 81, 87
1, 243001, Control_c, 0, 64, 127
1, 243002, Note_on_c, 0, 85, 62
1, 243003, Note_off_c, 0, 85, 127
1, 243021, Note_off_c, 0, 82, 47
1, 243022, Note_off_c, 0, 63, 68
1, 243030, Note_off_c, 0, 79, 68
1, 243034, Note_off_c, 0, 87, 66
1, 243034, Note_off_c, 0, 81, 68
1, 243041, Note_off_c, 0, 58, 65
1, 243044, Note_off_c, 0, 51, 65
1, 243046, Note_off_c, 0, 55, 65
1, 243208, Control_c, 0, 64, 92
1, 243223, Control_c, 0, 64, 69
1, 243237, Control_c, 0, 64, 23
1, 243252, Control_c, 0, 64, 0
1, 243629, Note_on_c, 0, 63, 102
1, 243630, Note_on_c, 0, 55, 93
1, 243633, Note_on_c, 0, 51, 104
1, 243636, Note_on_c, 0, 39, 84
1, 243637, Note_on_c, 0, 46, 79
1, 243639, Note_on_c, 0, 43, 71
1, 243639, Note_on_c, 0, 58, 85
1, 243720, Control_c, 0, 64, 32
1, 243734, Control_c, 0, 64, 52
1, 243749, Control_c, 0, 64, 61
1, 243764, Control_c, 0, 64, 66
1, 243779, Control_c, 0, 64, 69
1, 243794, Control_c, 0, 64, 76
1, 243808, Control_c, 0, 64, 93
1, 243823, Control_c, 0, 64, 127
1, 244247, Note_off_c, 0, 51, 68
1, 244248, Note_off_c, 0, 55, 66
1, 244252, Note_off_c, 0, 63, 66
1, 244253, Control_c, 0, 64, 76
1, 244259, Note_off_c, 0, 58, 67
1, 244260, Note_off_c, 0, 39, 60
1, 244261, Note_off_c, 0, 43, 65
1, 244264, Note_off_c, 0, 46, 65
1, 244268, Control_c, 0, 64, 46
1, 244283, Control_c, 0, 64, 0
1, 244358, End_track
0, 0, End_of_file
