0, 0, Header, 0, 1, 384
1, 0, Start_track
1, 0, Title_t, "BachPF_BWV874--Kurz             "
1, 0, Text_t, "2011 ePiano Junior Competition"
1, 0, Text_t, "captured in spring and summer 2011"
1, 0, Text_t, "http://www.piano-e-competition.com/"
1, 0, Text_t, "standard-resolution version"
1, 0, Text_t, "File processed for distribution with software designed and coded by Dr. John Q. Walker, founder of Zenph Sound Innovations"
1, 0, Instrument_name_t, "Yamaha Disklavier Pro Mark IV concert grand piano, model DCFIIISM4PRO"
1, 0, Sequencer_specific, 39, 67, 113, 0, 1, 0, 1, 0, 66, 97, 99, 104, 80, 70, 95, 66, 87, 86, 56, 55, 52, 32, 32, 32, 65, 97, 114, 111, 110, 32, 75, 117, 114, 122, 32, 32, 32, 32, 32, 32
1, 0, Sequencer_specific, 6, 67, 113, 0, 0, 0, 69
1, 0, System_exclusive, 21, 67, 113, 126, 21, 0, 2, 2, 2, 5, 12, 8, 4, 14, 0, 15, 4, 14, 4, 5, 3, 247
1, 0, Sequencer_specific, 5, 67, 123, 12, 2, 1
1, 0, Tempo, 512820
1, 0, Time_signature, 4, 2, 24, 8
1, 0, System_exclusive, 5, 126, 127, 9, 1, 247
1, 1, System_exclusive, 8, 67, 16, 76, 0, 0, 126, 0, 247
1, 2, System_exclusive, 8, 67, 16, 76, 8, 9, 7, 1, 247
1, 3, Control_c, 0, 0, 108
1, 3, Control_c, 1, 0, 108
1, 3, Control_c, 2, 0, 0
1, 3, Control_c, 3, 0, 0
1, 3, Control_c, 4, 0, 0
1, 3, Control_c, 5, 0, 0
1, 3, Control_c, 6, 0, 0
1, 3, Control_c, 7, 0, 0
1, 3, Control_c, 8, 0, 0
1, 3, Control_c, 9, 0, 127
1, 3, Control_c, 10, 0, 0
1, 3, Control_c, 11, 0, 0
1, 3, Control_c, 12, 0, 0
1, 3, Control_c, 13, 0, 0
1, 3, Control_c, 14, 0, 0
1, 3, Control_c, 15, 0, 0
1, 4, Control_c, 0, 32, 0
1, 4, Control_c, 1, 32, 0
1, 4, Control_c, 2, 32, 0
1, 4, Control_c, 3, 32, 0
1, 4, Control_c, 4, 32, 0
1, 4, Control_c, 5, 32, 0
1, 4, Control_c, 6, 32, 0
1, 4, Control_c, 7, 32, 0
1, 4, Control_c, 8, 32, 0
1, 4, Control_c, 9, 32, 0
1, 4, Control_c, 10, 32, 0
1, 4, Control_c, 11, 32, 0
1, 4, Control_c, 12, 32, 0
1, 4, Control_c, 13, 32, 0
1, 4, Control_c, 14, 32, 0
1, 4, Control_c, 15, 32, 0
1, 5, Program_c, 0, 0
1, 5, Program_c, 1, 0
1, 5, Program_c, 2, 0
1, 5, Program_c, 3, 0
1, 5, Program_c, 4, 0
1, 5, Program_c, 5, 0
1, 5, Program_c, 6, 0
1, 5, Program_c, 7, 0
1, 5, Program_c, 8, 0
1, 5, Program_c, 9, 0
1, 5, Program_c, 10, 0
1, 5, Program_c, 11, 0
1, 5, Program_c, 12, 0
1, 5, Program_c, 13, 0
1, 5, Program_c, 14, 0
1, 5, Program_c, 15, 0
1, 6, Control_c, 0, 7, 100
1, 6, Control_c, 1, 7, 100
1, 6, Control_c, 2, 7, 100
1, 6, Control_c, 3, 7, 100
1, 6, Control_c, 4, 7, 100
1, 6, Control_c, 5, 7, 100
1, 6, Control_c, 6, 7, 100
1, 6, Control_c, 7, 7, 100
1, 6, Control_c, 8, 7, 100
1, 6, Control_c, 9, 7, 100
1, 6, Control_c, 10, 7, 100
1, 6, Control_c, 11, 7, 100
1, 6, Control_c, 12, 7, 100
1, 6, Control_c, 13, 7, 100
1, 6, Control_c, 14, 7, 100
1, 6, Control_c, 15, 7, 100
1, 379, Control_c, 0, 64, 85
1, 381, Note_on_c, 0, 50, 84
1, 385, Note_on_c, 0, 38, 74
1, 394, Control_c, 0, 64, 84
1, 409, Control_c, 0, 64, 83
1, 424, Control_c, 0, 64, 78
1, 438, Control_c, 0, 64, 73
1, 453, Control_c, 0, 64, 69
1, 468, Control_c, 0, 64, 64
1, 483, Control_c, 0, 64, 59
1, 498, Control_c, 0, 64, 53
1, 512, Control_c, 0, 64, 50
1, 542, Control_c, 0, 64, 51
1, 582, Note_on_c, 0, 62, 79
1, 633, Control_c, 0, 64, 50
1, 645, Note_off_c, 0, 62, 62
1, 651, Note_on_c, 0, 64, 75
1, 692, Control_c, 0, 64, 50
1, 729, Note_on_c, 0, 66, 74
1, 735, Note_off_c, 0, 64, 60
1, 781, Control_c, 0, 64, 49
1, 795, Control_c, 0, 64, 49
1, 802, Note_on_c, 0, 67, 75
1, 815, Note_off_c, 0, 50, 50
1, 825, Control_c, 0, 64, 48
1, 830, Note_off_c, 0, 66, 61
1, 850, Note_off_c, 0, 38, 61
1, 855, Control_c, 0, 64, 48
1, 881, Note_on_c, 0, 69, 75
1, 893, Note_off_c, 0, 67, 63
1, 941, Note_off_c, 0, 69, 62
1, 1056, Note_on_c, 0, 66, 76
1, 1069, Control_c, 0, 64, 48
1, 1086, Note_off_c, 0, 66, 62
1, 1114, Control_c, 0, 64, 49
1, 1129, Control_c, 0, 64, 49
1, 1158, Control_c, 0, 64, 50
1, 1193, Note_on_c, 0, 69, 78
1, 1203, Control_c, 0, 64, 50
1, 1238, Note_off_c, 0, 69, 64
1, 1334, Note_on_c, 0, 74, 86
1, 1382, Note_off_c, 0, 74, 63
1, 1483, Note_on_c, 0, 69, 81
1, 1525, Note_off_c, 0, 69, 63
1, 1627, Note_on_c, 0, 74, 93
1, 1685, Note_off_c, 0, 74, 65
1, 1777, Note_on_c, 0, 78, 96
1, 1835, Note_off_c, 0, 78, 65
1, 1924, Note_on_c, 0, 74, 90
1, 1964, Note_off_c, 0, 74, 64
1, 2053, Note_on_c, 0, 78, 85
1, 2108, Note_off_c, 0, 78, 65
1, 2159, Control_c, 0, 64, 51
1, 2234, Note_on_c, 0, 81, 92
1, 2322, Control_c, 0, 64, 50
1, 2337, Control_c, 0, 64, 49
1, 2352, Control_c, 0, 64, 49
1, 2367, Control_c, 0, 64, 48
1, 2381, Control_c, 0, 64, 47
1, 2396, Control_c, 0, 64, 46
1, 2434, Control_c, 0, 64, 49
1, 2448, Control_c, 0, 64, 55
1, 2463, Control_c, 0, 64, 62
1, 2478, Control_c, 0, 64, 68
1, 2493, Control_c, 0, 64, 76
1, 2502, Note_off_c, 0, 81, 50
1, 2508, Control_c, 0, 64, 96
1, 2522, Control_c, 0, 64, 127
1, 2685, Control_c, 0, 64, 116
1, 2700, Control_c, 0, 64, 101
1, 2714, Control_c, 0, 64, 93
1, 2729, Control_c, 0, 64, 88
1, 2744, Control_c, 0, 64, 83
1, 2759, Control_c, 0, 64, 79
1, 2774, Control_c, 0, 64, 75
1, 2788, Control_c, 0, 64, 70
1, 2791, Note_on_c, 0, 81, 87
1, 2803, Control_c, 0, 64, 64
1, 2805, Note_on_c, 0, 62, 55
1, 2806, Note_on_c, 0, 78, 78
1, 2818, Control_c, 0, 64, 54
1, 2833, Control_c, 0, 64, 31
1, 2848, Control_c, 0, 64, 0
1, 2937, Control_c, 0, 64, 15
1, 2952, Control_c, 0, 64, 47
1, 2967, Control_c, 0, 64, 60
1, 2982, Control_c, 0, 64, 65
1, 2994, Note_off_c, 0, 81, 62
1, 2997, Control_c, 0, 64, 70
1, 3012, Control_c, 0, 64, 79
1, 3027, Control_c, 0, 64, 121
1, 3038, Note_off_c, 0, 62, 63
1, 3042, Control_c, 0, 64, 127
1, 3058, Note_off_c, 0, 78, 59
1, 3227, Control_c, 0, 64, 118
1, 3242, Control_c, 0, 64, 101
1, 3256, Control_c, 0, 64, 90
1, 3271, Control_c, 0, 64, 81
1, 3286, Control_c, 0, 64, 72
1, 3300, Note_on_c, 0, 81, 85
1, 3301, Control_c, 0, 64, 64
1, 3304, Note_on_c, 0, 78, 78
1, 3312, Note_on_c, 0, 69, 66
1, 3316, Control_c, 0, 64, 53
1, 3331, Control_c, 0, 64, 39
1, 3345, Control_c, 0, 64, 26
1, 3360, Control_c, 0, 64, 22
1, 3419, Control_c, 0, 64, 18
1, 3434, Control_c, 0, 64, 14
1, 3449, Control_c, 0, 64, 0
1, 3525, Note_off_c, 0, 78, 64
1, 3569, Note_on_c, 0, 76, 67
1, 3569, Note_on_c, 0, 79, 87
1, 3624, Note_off_c, 0, 81, 59
1, 3701, Control_c, 0, 64, 15
1, 3716, Control_c, 0, 64, 41
1, 3730, Control_c, 0, 64, 53
1, 3732, Note_off_c, 0, 79, 65
1, 3741, Note_off_c, 0, 76, 63
1, 3745, Control_c, 0, 64, 60
1, 3760, Control_c, 0, 64, 63
1, 3775, Control_c, 0, 64, 64
1, 3787, Note_off_c, 0, 69, 53
1, 3805, Control_c, 0, 64, 63
1, 3819, Note_on_c, 0, 79, 88
1, 3820, Control_c, 0, 64, 61
1, 3825, Note_on_c, 0, 57, 64
1, 3827, Note_on_c, 0, 76, 81
1, 3835, Control_c, 0, 64, 54
1, 3850, Control_c, 0, 64, 41
1, 3865, Control_c, 0, 64, 30
1, 3879, Control_c, 0, 64, 31
1, 3894, Control_c, 0, 64, 44
1, 3916, Control_c, 0, 64, 56
1, 3931, Control_c, 0, 64, 64
1, 3946, Control_c, 0, 64, 69
1, 3960, Control_c, 0, 64, 79
1, 3975, Control_c, 0, 64, 95
1, 3990, Control_c, 0, 64, 127
1, 4079, Note_on_c, 0, 74, 76
1, 4081, Note_on_c, 0, 78, 89
1, 4084, Note_off_c, 0, 76, 38
1, 4100, Note_off_c, 0, 79, 60
1, 4175, Note_off_c, 0, 74, 51
1, 4176, Note_off_c, 0, 78, 64
1, 4331, Control_c, 0, 64, 111
1, 4339, Note_on_c, 0, 78, 88
1, 4343, Note_on_c, 0, 74, 80
1, 4344, Note_off_c, 0, 57, 63
1, 4346, Control_c, 0, 64, 100
1, 4349, Note_on_c, 0, 62, 74
1, 4361, Control_c, 0, 64, 93
1, 4376, Control_c, 0, 64, 86
1, 4391, Control_c, 0, 64, 80
1, 4406, Control_c, 0, 64, 75
1, 4420, Control_c, 0, 64, 71
1, 4435, Control_c, 0, 64, 65
1, 4440, Note_off_c, 0, 62, 62
1, 4450, Control_c, 0, 64, 58
1, 4465, Control_c, 0, 64, 49
1, 4480, Control_c, 0, 64, 38
1, 4494, Control_c, 0, 64, 19
1, 4509, Control_c, 0, 64, 0
1, 4528, Note_off_c, 0, 78, 64
1, 4533, Note_off_c, 0, 74, 63
1, 4596, Note_on_c, 0, 50, 62
1, 4663, Note_on_c, 0, 52, 58
1, 4685, Note_off_c, 0, 50, 58
1, 4735, Note_off_c, 0, 52, 64
1, 4738, Note_on_c, 0, 54, 62
1, 4774, Note_off_c, 0, 54, 67
1, 4785, Note_on_c, 0, 55, 70
1, 4841, Note_off_c, 0, 55, 64
1, 4872, Note_on_c, 0, 57, 70
1, 4900, Note_off_c, 0, 57, 67
1, 5018, Note_on_c, 0, 54, 73
1, 5053, Note_off_c, 0, 54, 64
1, 5161, Note_on_c, 0, 57, 79
1, 5186, Note_off_c, 0, 57, 69
1, 5303, Note_on_c, 0, 62, 83
1, 5346, Note_off_c, 0, 62, 61
1, 5465, Note_on_c, 0, 57, 82
1, 5515, Note_off_c, 0, 57, 63
1, 5602, Note_on_c, 0, 62, 86
1, 5648, Note_off_c, 0, 62, 63
1, 5747, Note_on_c, 0, 66, 85
1, 5779, Note_on_c, 0, 67, 53
1, 5802, Note_off_c, 0, 67, 59
1, 5804, Note_off_c, 0, 66, 64
1, 5893, Note_on_c, 0, 62, 85
1, 5934, Note_off_c, 0, 62, 67
1, 6037, Note_on_c, 0, 66, 94
1, 6100, Note_off_c, 0, 66, 61
1, 6234, Note_on_c, 0, 69, 98
1, 6326, Control_c, 0, 64, 30
1, 6341, Control_c, 0, 64, 47
1, 6356, Control_c, 0, 64, 58
1, 6370, Control_c, 0, 64, 64
1, 6385, Control_c, 0, 64, 70
1, 6400, Control_c, 0, 64, 79
1, 6401, Note_off_c, 0, 69, 63
1, 6414, Control_c, 0, 64, 105
1, 6429, Control_c, 0, 64, 127
1, 6711, Control_c, 0, 64, 112
1, 6726, Control_c, 0, 64, 99
1, 6741, Control_c, 0, 64, 88
1, 6755, Control_c, 0, 64, 76
1, 6762, Note_on_c, 0, 78, 91
1, 6770, Control_c, 0, 64, 67
1, 6771, Note_on_c, 0, 50, 56
1, 6774, Note_on_c, 0, 69, 69
1, 6785, Control_c, 0, 64, 54
1, 6799, Control_c, 0, 64, 0
1, 6873, Control_c, 0, 64, 18
1, 6888, Control_c, 0, 64, 49
1, 6911, Control_c, 0, 64, 59
1, 6926, Control_c, 0, 64, 64
1, 6941, Control_c, 0, 64, 67
1, 6956, Control_c, 0, 64, 74
1, 6969, Note_off_c, 0, 69, 63
1, 6969, Note_off_c, 0, 78, 63
1, 6971, Control_c, 0, 64, 88
1, 6986, Note_off_c, 0, 50, 63
1, 6986, Control_c, 0, 64, 127
1, 7267, Control_c, 0, 64, 121
1, 7282, Control_c, 0, 64, 91
1, 7286, Note_on_c, 0, 78, 93
1, 7289, Note_on_c, 0, 57, 66
1, 7297, Control_c, 0, 64, 75
1, 7300, Note_on_c, 0, 69, 70
1, 7311, Control_c, 0, 64, 64
1, 7326, Control_c, 0, 64, 44
1, 7341, Control_c, 0, 64, 0
1, 7525, Note_on_c, 0, 76, 82
1, 7532, Note_on_c, 0, 67, 74
1, 7537, Note_off_c, 0, 69, 65
1, 7593, Note_off_c, 0, 78, 42
1, 7593, Control_c, 0, 64, 25
1, 7608, Control_c, 0, 64, 49
1, 7622, Control_c, 0, 64, 59
1, 7637, Control_c, 0, 64, 64
1, 7639, Note_off_c, 0, 76, 65
1, 7659, Control_c, 0, 64, 67
1, 7674, Control_c, 0, 64, 70
1, 7686, Note_off_c, 0, 67, 62
1, 7689, Control_c, 0, 64, 74
1, 7704, Control_c, 0, 64, 75
1, 7734, Control_c, 0, 64, 74
1, 7749, Control_c, 0, 64, 71
1, 7761, Note_off_c, 0, 57, 39
1, 7764, Control_c, 0, 64, 66
1, 7779, Control_c, 0, 64, 58
1, 7784, Note_on_c, 0, 45, 59
1, 7788, Note_on_c, 0, 76, 83
1, 7794, Note_on_c, 0, 67, 78
1, 7794, Control_c, 0, 64, 30
1, 7808, Control_c, 0, 64, 0
1, 7913, Control_c, 0, 64, 34
1, 7927, Control_c, 0, 64, 46
1, 7942, Control_c, 0, 64, 52
1, 7957, Control_c, 0, 64, 58
1, 7972, Control_c, 0, 64, 62
1, 7987, Control_c, 0, 64, 64
1, 8001, Control_c, 0, 64, 67
1, 8015, Note_off_c, 0, 76, 50
1, 8016, Control_c, 0, 64, 71
1, 8031, Control_c, 0, 64, 76
1, 8041, Note_on_c, 0, 74, 74
1, 8046, Control_c, 0, 64, 80
1, 8050, Note_on_c, 0, 66, 76
1, 8060, Control_c, 0, 64, 79
1, 8075, Control_c, 0, 64, 73
1, 8085, Note_off_c, 0, 67, 63
1, 8090, Control_c, 0, 64, 64
1, 8106, Control_c, 0, 64, 51
1, 8121, Control_c, 0, 64, 31
1, 8135, Control_c, 0, 64, 8
1, 8150, Control_c, 0, 64, 0
1, 8165, Control_c, 0, 64, 14
1, 8170, Note_off_c, 0, 74, 58
1, 8180, Control_c, 0, 64, 35
1, 8195, Control_c, 0, 64, 49
1, 8209, Control_c, 0, 64, 55
1, 8210, Note_off_c, 0, 66, 58
1, 8224, Control_c, 0, 64, 59
1, 8239, Control_c, 0, 64, 62
1, 8253, Control_c, 0, 64, 65
1, 8268, Control_c, 0, 64, 69
1, 8283, Control_c, 0, 64, 76
1, 8296, Note_on_c, 0, 74, 77
1, 8298, Control_c, 0, 64, 92
1, 8307, Note_on_c, 0, 66, 78
1, 8309, Note_on_c, 0, 50, 66
1, 8313, Control_c, 0, 64, 127
1, 8318, Note_off_c, 0, 45, 51
1, 8348, Note_off_c, 0, 74, 63
1, 8354, Note_off_c, 0, 66, 57
1, 8396, Note_off_c, 0, 50, 60
1, 8424, Control_c, 0, 64, 94
1, 8439, Control_c, 0, 64, 73
1, 8453, Control_c, 0, 64, 63
1, 8468, Control_c, 0, 64, 53
1, 8483, Control_c, 0, 64, 47
1, 8498, Control_c, 0, 64, 47
1, 8558, Control_c, 0, 64, 46
1, 8565, Note_on_c, 0, 67, 8
1, 8573, Control_c, 0, 64, 44
1, 8588, Control_c, 0, 64, 40
1, 8589, Note_on_c, 0, 64, 60
1, 8603, Control_c, 0, 64, 39
1, 8612, Note_off_c, 0, 67, 36
1, 8618, Control_c, 0, 64, 38
1, 8622, Note_off_c, 0, 64, 65
1, 8646, Note_on_c, 0, 62, 69
1, 8656, Note_on_c, 0, 38, 54
1, 8703, Note_off_c, 0, 38, 58
1, 8716, Note_off_c, 0, 62, 55
1, 8719, Note_on_c, 0, 61, 68
1, 8772, Note_off_c, 0, 61, 61
1, 8794, Note_on_c, 0, 59, 67
1, 8805, Note_on_c, 0, 50, 54
1, 8820, Note_off_c, 0, 59, 66
1, 8840, Note_off_c, 0, 50, 64
1, 8943, Note_on_c, 0, 62, 68
1, 8971, Note_off_c, 0, 62, 66
1, 9077, Note_on_c, 0, 50, 50
1, 9087, Note_on_c, 0, 59, 67
1, 9109, Note_off_c, 0, 50, 64
1, 9115, Note_off_c, 0, 59, 65
1, 9244, Note_on_c, 0, 56, 62
1, 9245, Control_c, 0, 64, 40
1, 9252, Note_on_c, 0, 50, 47
1, 9260, Control_c, 0, 64, 48
1, 9275, Control_c, 0, 64, 56
1, 9278, Note_off_c, 0, 56, 65
1, 9290, Control_c, 0, 64, 61
1, 9305, Control_c, 0, 64, 64
1, 9320, Control_c, 0, 64, 67
1, 9335, Control_c, 0, 64, 68
1, 9365, Control_c, 0, 64, 66
1, 9379, Control_c, 0, 64, 64
1, 9394, Control_c, 0, 64, 61
1, 9409, Control_c, 0, 64, 57
1, 9424, Control_c, 0, 64, 55
1, 9425, Note_on_c, 0, 64, 60
1, 9439, Control_c, 0, 64, 53
1, 9454, Control_c, 0, 64, 53
1, 9469, Control_c, 0, 64, 52
1, 9484, Control_c, 0, 64, 52
1, 9486, Note_off_c, 0, 64, 58
1, 9498, Control_c, 0, 64, 51
1, 9498, Note_on_c, 0, 66, 60
1, 9513, Control_c, 0, 64, 50
1, 9528, Control_c, 0, 64, 50
1, 9543, Control_c, 0, 64, 49
1, 9561, Note_on_c, 0, 68, 66
1, 9568, Note_off_c, 0, 66, 61
1, 9572, Control_c, 0, 64, 49
1, 9575, Note_off_c, 0, 50, 58
1, 9602, Control_c, 0, 64, 48
1, 9617, Control_c, 0, 64, 47
1, 9626, Note_off_c, 0, 68, 62
1, 9631, Control_c, 0, 64, 46
1, 9636, Note_on_c, 0, 69, 63
1, 9646, Control_c, 0, 64, 44
1, 9661, Control_c, 0, 64, 43
1, 9676, Control_c, 0, 64, 42
1, 9703, Note_off_c, 0, 69, 63
1, 9705, Control_c, 0, 64, 41
1, 9706, Note_on_c, 0, 71, 71
1, 9720, Control_c, 0, 64, 40
1, 9730, Note_off_c, 0, 71, 69
1, 9735, Control_c, 0, 64, 40
1, 9750, Control_c, 0, 64, 39
1, 9765, Control_c, 0, 64, 38
1, 9779, Control_c, 0, 64, 36
1, 9794, Control_c, 0, 64, 35
1, 9809, Control_c, 0, 64, 33
1, 9823, Control_c, 0, 64, 28
1, 9838, Control_c, 0, 64, 23
1, 9853, Control_c, 0, 64, 12
1, 9868, Control_c, 0, 64, 0
1, 9873, Note_on_c, 0, 52, 63
1, 9878, Note_on_c, 0, 68, 64
1, 9919, Note_off_c, 0, 68, 65
1, 9937, Note_off_c, 0, 52, 56
1, 9962, Note_on_c, 0, 50, 57
1, 10013, Note_off_c, 0, 50, 61
1, 10025, Note_on_c, 0, 49, 55
1, 10036, Note_on_c, 0, 71, 64
1, 10069, Note_off_c, 0, 49, 64
1, 10071, Note_off_c, 0, 71, 62
1, 10095, Note_on_c, 0, 47, 58
1, 10173, Note_on_c, 0, 49, 70
1, 10175, Note_on_c, 0, 76, 64
1, 10180, Note_off_c, 0, 47, 61
1, 10195, Note_off_c, 0, 76, 66
1, 10338, Note_off_c, 0, 49, 64
1, 10339, Note_on_c, 0, 64, 88
1, 10411, Note_on_c, 0, 62, 78
1, 10467, Note_off_c, 0, 64, 63
1, 10484, Note_on_c, 0, 61, 83
1, 10503, Note_on_c, 0, 37, 68
1, 10520, Note_off_c, 0, 62, 64
1, 10544, Note_off_c, 0, 37, 63
1, 10552, Note_on_c, 0, 59, 89
1, 10581, Note_off_c, 0, 61, 62
1, 10630, Note_off_c, 0, 59, 62
1, 10636, Note_on_c, 0, 57, 87
1, 10652, Note_on_c, 0, 49, 71
1, 10694, Note_off_c, 0, 57, 65
1, 10812, Note_on_c, 0, 61, 73
1, 10812, Note_off_c, 0, 49, 61
1, 10852, Note_off_c, 0, 61, 58
1, 10971, Note_on_c, 0, 49, 54
1, 10975, Note_on_c, 0, 57, 73
1, 11007, Note_off_c, 0, 49, 65
1, 11010, Note_off_c, 0, 57, 67
1, 11141, Note_on_c, 0, 49, 42
1, 11144, Note_on_c, 0, 54, 64
1, 11174, Note_off_c, 0, 54, 67
1, 11218, Control_c, 0, 64, 28
1, 11233, Control_c, 0, 64, 41
1, 11248, Control_c, 0, 64, 47
1, 11263, Control_c, 0, 64, 52
1, 11277, Control_c, 0, 64, 55
1, 11292, Control_c, 0, 64, 56
1, 11307, Control_c, 0, 64, 57
1, 11322, Control_c, 0, 64, 56
1, 11327, Note_on_c, 0, 62, 61
1, 11337, Control_c, 0, 64, 52
1, 11351, Control_c, 0, 64, 43
1, 11366, Control_c, 0, 64, 30
1, 11368, Note_off_c, 0, 62, 61
1, 11381, Control_c, 0, 64, 17
1, 11393, Note_on_c, 0, 64, 66
1, 11403, Control_c, 0, 64, 0
1, 11464, Note_on_c, 0, 66, 75
1, 11469, Note_off_c, 0, 64, 61
1, 11530, Note_off_c, 0, 49, 61
1, 11540, Note_on_c, 0, 68, 74
1, 11549, Note_off_c, 0, 66, 61
1, 11613, Note_on_c, 0, 69, 81
1, 11631, Note_off_c, 0, 68, 63
1, 11655, Note_off_c, 0, 69, 65
1, 11783, Note_on_c, 0, 50, 61
1, 11785, Note_on_c, 0, 66, 66
1, 11821, Note_off_c, 0, 66, 65
1, 11833, Note_off_c, 0, 50, 57
1, 11858, Note_on_c, 0, 49, 58
1, 11904, Note_off_c, 0, 49, 60
1, 11922, Note_on_c, 0, 47, 59
1, 11941, Note_on_c, 0, 69, 72
1, 11968, Note_off_c, 0, 47, 63
1, 11982, Note_off_c, 0, 69, 63
1, 11992, Note_on_c, 0, 45, 59
1, 12078, Note_off_c, 0, 45, 62
1, 12081, Note_on_c, 0, 47, 60
1, 12089, Note_on_c, 0, 74, 75
1, 12105, Note_off_c, 0, 47, 59
1, 12271, Note_on_c, 0, 54, 85
1, 12289, Note_off_c, 0, 74, 60
1, 12332, Note_off_c, 0, 54, 64
1, 12345, Note_on_c, 0, 52, 78
1, 12422, Note_on_c, 0, 50, 78
1, 12434, Note_off_c, 0, 52, 61
1, 12442, Note_on_c, 0, 66, 71
1, 12476, Note_on_c, 0, 49, 76
1, 12491, Note_off_c, 0, 66, 59
1, 12497, Note_off_c, 0, 50, 60
1, 12559, Note_on_c, 0, 47, 81
1, 12572, Note_off_c, 0, 49, 63
1, 12583, Note_on_c, 0, 74, 84
1, 12596, Note_on_c, 0, 66, 74
1, 12608, Note_off_c, 0, 47, 63
1, 12619, Note_on_c, 0, 76, 27
1, 12620, Note_off_c, 0, 76, 127
1, 12747, Note_on_c, 0, 50, 77
1, 12783, Note_off_c, 0, 50, 63
1, 12794, Note_off_c, 0, 74, 58
1, 12813, Note_off_c, 0, 66, 59
1, 12908, Note_on_c, 0, 47, 76
1, 12928, Note_on_c, 0, 74, 81
1, 12929, Note_on_c, 0, 66, 73
1, 12942, Note_off_c, 0, 47, 64
1, 12963, Note_off_c, 0, 66, 64
1, 12986, Note_off_c, 0, 74, 63
1, 13077, Note_on_c, 0, 44, 71
1, 13084, Note_on_c, 0, 74, 94
1, 13095, Note_on_c, 0, 64, 79
1, 13120, Note_off_c, 0, 44, 61
1, 13246, Note_on_c, 0, 47, 65
1, 13279, Note_off_c, 0, 47, 63
1, 13409, Note_on_c, 0, 44, 61
1, 13422, Note_off_c, 0, 64, 52
1, 13446, Note_off_c, 0, 44, 63
1, 13460, Note_off_c, 0, 74, 58
1, 13574, Note_on_c, 0, 40, 45
1, 13609, Note_off_c, 0, 40, 60
1, 13737, Note_on_c, 0, 44, 52
1, 13758, Note_on_c, 0, 76, 65
1, 13780, Note_off_c, 0, 44, 62
1, 13833, Note_off_c, 0, 76, 59
1, 13844, Note_on_c, 0, 74, 55
1, 13901, Note_on_c, 0, 40, 41
1, 13911, Note_off_c, 0, 74, 60
1, 13921, Note_on_c, 0, 73, 58
1, 13946, Note_off_c, 0, 40, 59
1, 13958, Note_off_c, 0, 73, 65
1, 13978, Note_on_c, 0, 71, 63
1, 14026, Note_off_c, 0, 71, 60
1, 14054, Note_on_c, 0, 73, 73
1, 14059, Note_on_c, 0, 45, 55
1, 14080, Note_off_c, 0, 73, 68
1, 14095, Note_off_c, 0, 45, 63
1, 14229, Note_on_c, 0, 49, 55
1, 14231, Note_on_c, 0, 69, 65
1, 14258, Note_off_c, 0, 49, 63
1, 14283, Note_off_c, 0, 69, 53
1, 14307, Note_on_c, 0, 71, 65
1, 14364, Note_off_c, 0, 71, 60
1, 14374, Note_on_c, 0, 73, 66
1, 14381, Note_on_c, 0, 45, 49
1, 14429, Note_off_c, 0, 45, 63
1, 14451, Note_off_c, 0, 73, 60
1, 14457, Note_on_c, 0, 74, 73
1, 14528, Note_on_c, 0, 42, 54
1, 14536, Note_on_c, 0, 76, 87
1, 14542, Note_off_c, 0, 74, 63
1, 14567, Note_off_c, 0, 42, 63
1, 14577, Note_off_c, 0, 76, 65
1, 14702, Note_on_c, 0, 74, 92
1, 14706, Note_on_c, 0, 45, 64
1, 14748, Note_off_c, 0, 45, 64
1, 14786, Note_on_c, 0, 73, 86
1, 14793, Note_off_c, 0, 74, 63
1, 14839, Note_on_c, 0, 42, 69
1, 14849, Note_on_c, 0, 71, 84
1, 14882, Note_off_c, 0, 73, 62
1, 14896, Note_off_c, 0, 42, 58
1, 14918, Note_on_c, 0, 69, 88
1, 14918, Note_off_c, 0, 71, 65
1, 14984, Note_off_c, 0, 69, 60
1, 14995, Note_on_c, 0, 74, 94
1, 14998, Note_on_c, 0, 47, 68
1, 15033, Note_off_c, 0, 47, 66
1, 15050, Note_off_c, 0, 74, 66
1, 15171, Note_on_c, 0, 71, 85
1, 15185, Note_on_c, 0, 50, 75
1, 15222, Note_off_c, 0, 50, 64
1, 15243, Note_on_c, 0, 73, 85
1, 15260, Note_off_c, 0, 71, 55
1, 15309, Note_on_c, 0, 74, 88
1, 15320, Note_on_c, 0, 47, 71
1, 15333, Note_off_c, 0, 73, 61
1, 15355, Note_off_c, 0, 47, 66
1, 15392, Note_on_c, 0, 76, 88
1, 15407, Note_off_c, 0, 74, 55
1, 15463, Note_on_c, 0, 44, 68
1, 15479, Note_on_c, 0, 77, 91
1, 15494, Note_off_c, 0, 76, 64
1, 15502, Note_off_c, 0, 44, 64
1, 15516, Note_off_c, 0, 77, 65
1, 15627, Note_on_c, 0, 47, 61
1, 15636, Note_on_c, 0, 76, 81
1, 15668, Note_off_c, 0, 47, 61
1, 15719, Note_off_c, 0, 76, 64
1, 15723, Note_on_c, 0, 74, 81
1, 15773, Note_on_c, 0, 44, 68
1, 15789, Note_on_c, 0, 73, 78
1, 15790, Note_off_c, 0, 74, 62
1, 15812, Note_off_c, 0, 44, 65
1, 15845, Note_off_c, 0, 73, 64
1, 15860, Note_on_c, 0, 71, 80
1, 15915, Note_off_c, 0, 71, 60
1, 15942, Note_on_c, 0, 76, 87
1, 15949, Note_on_c, 0, 49, 73
1, 15980, Note_off_c, 0, 49, 66
1, 16103, Note_on_c, 0, 57, 74
1, 16168, Note_on_c, 0, 59, 62
1, 16234, Note_off_c, 0, 57, 26
1, 16247, Note_on_c, 0, 61, 79
1, 16257, Note_off_c, 0, 59, 63
1, 16319, Note_off_c, 0, 61, 61
1, 16327, Note_on_c, 0, 62, 83
1, 16403, Note_on_c, 0, 64, 91
1, 16406, Note_off_c, 0, 62, 62
1, 16435, Note_off_c, 0, 64, 68
1, 16564, Note_on_c, 0, 62, 79
1, 16628, Note_off_c, 0, 62, 59
1, 16641, Note_on_c, 0, 61, 74
1, 16697, Note_off_c, 0, 61, 63
1, 16719, Note_on_c, 0, 59, 83
1, 16777, Note_off_c, 0, 59, 64
1, 16793, Note_on_c, 0, 57, 82
1, 16845, Note_on_c, 0, 66, 92
1, 16855, Note_off_c, 0, 57, 64
1, 16855, Note_on_c, 0, 50, 75
1, 16891, Note_off_c, 0, 50, 65
1, 17013, Note_on_c, 0, 57, 83
1, 17079, Note_off_c, 0, 57, 52
1, 17095, Note_on_c, 0, 61, 82
1, 17175, Note_off_c, 0, 61, 63
1, 17179, Note_on_c, 0, 62, 86
1, 17207, Note_off_c, 0, 66, 60
1, 17241, Note_off_c, 0, 62, 60
1, 17245, Note_off_c, 0, 76, 59
1, 17252, Note_on_c, 0, 64, 85
1, 17320, Note_on_c, 0, 66, 87
1, 17331, Note_on_c, 0, 74, 88
1, 17332, Note_off_c, 0, 64, 62
1, 17371, Note_off_c, 0, 66, 64
1, 17499, Note_on_c, 0, 64, 81
1, 17568, Note_on_c, 0, 62, 76
1, 17574, Note_off_c, 0, 64, 62
1, 17587, Control_c, 0, 64, 10
1, 17601, Control_c, 0, 64, 28
1, 17616, Control_c, 0, 64, 40
1, 17630, Note_on_c, 0, 61, 73
1, 17630, Note_off_c, 0, 62, 64
1, 17631, Control_c, 0, 64, 45
1, 17646, Control_c, 0, 64, 50
1, 17660, Control_c, 0, 64, 54
1, 17661, Note_off_c, 0, 61, 65
1, 17675, Control_c, 0, 64, 57
1, 17690, Control_c, 0, 64, 58
1, 17720, Control_c, 0, 64, 57
1, 17734, Note_on_c, 0, 57, 41
1, 17735, Control_c, 0, 64, 54
1, 17750, Control_c, 0, 64, 53
1, 17765, Control_c, 0, 64, 52
1, 17766, Note_off_c, 0, 57, 55
1, 17794, Control_c, 0, 64, 52
1, 17796, Note_on_c, 0, 52, 79
1, 17804, Note_on_c, 0, 68, 80
1, 17809, Control_c, 0, 64, 51
1, 17824, Control_c, 0, 64, 49
1, 17839, Control_c, 0, 64, 46
1, 17854, Control_c, 0, 64, 43
1, 17863, Note_off_c, 0, 52, 64
1, 17868, Control_c, 0, 64, 42
1, 17881, Note_off_c, 0, 68, 56
1, 17883, Control_c, 0, 64, 39
1, 17898, Control_c, 0, 64, 37
1, 17912, Control_c, 0, 64, 35
1, 17927, Control_c, 0, 64, 34
1, 17957, Note_on_c, 0, 64, 65
1, 18028, Note_off_c, 0, 64, 62
1, 18030, Control_c, 0, 64, 34
1, 18035, Note_on_c, 0, 66, 75
1, 18039, Note_off_c, 0, 74, 48
1, 18105, Note_off_c, 0, 66, 61
1, 18106, Note_on_c, 0, 68, 76
1, 18113, Note_on_c, 0, 40, 66
1, 18171, Note_off_c, 0, 40, 62
1, 18188, Note_off_c, 0, 68, 62
1, 18190, Note_on_c, 0, 69, 77
1, 18258, Note_on_c, 0, 74, 83
1, 18262, Note_on_c, 0, 71, 76
1, 18268, Note_on_c, 0, 40, 81
1, 18270, Note_off_c, 0, 69, 63
1, 18319, Note_off_c, 0, 71, 65
1, 18411, Note_off_c, 0, 40, 62
1, 18423, Note_off_c, 0, 74, 61
1, 18435, Note_on_c, 0, 68, 88
1, 18493, Note_off_c, 0, 68, 60
1, 18574, Note_on_c, 0, 71, 91
1, 18578, Note_on_c, 0, 40, 71
1, 18631, Note_off_c, 0, 71, 64
1, 18632, Note_off_c, 0, 40, 58
1, 18661, Control_c, 0, 64, 33
1, 18676, Control_c, 0, 64, 32
1, 18706, Control_c, 0, 64, 31
1, 18727, Note_on_c, 0, 74, 75
1, 18731, Note_on_c, 0, 80, 100
1, 18735, Note_on_c, 0, 40, 82
1, 18780, Control_c, 0, 64, 31
1, 18799, Note_off_c, 0, 74, 64
1, 18894, Note_on_c, 0, 71, 92
1, 18954, Note_off_c, 0, 71, 66
1, 18996, Note_off_c, 0, 80, 63
1, 19047, Note_on_c, 0, 74, 96
1, 19107, Note_off_c, 0, 74, 62
1, 19201, Note_on_c, 0, 83, 101
1, 19216, Note_on_c, 0, 80, 86
1, 19249, Note_off_c, 0, 40, 56
1, 19305, Note_off_c, 0, 80, 54
1, 19377, Note_on_c, 0, 74, 91
1, 19425, Note_off_c, 0, 74, 63
1, 19464, Note_on_c, 0, 47, 72
1, 19508, Note_on_c, 0, 80, 89
1, 19517, Note_off_c, 0, 83, 64
1, 19533, Note_on_c, 0, 49, 78
1, 19547, Note_off_c, 0, 47, 63
1, 19562, Note_off_c, 0, 80, 66
1, 19601, Note_on_c, 0, 50, 84
1, 19621, Note_off_c, 0, 49, 61
1, 19695, Note_on_c, 0, 52, 87
1, 19698, Note_on_c, 0, 73, 100
1, 19705, Note_off_c, 0, 50, 63
1, 19853, Note_on_c, 0, 81, 85
1, 19864, Note_off_c, 0, 73, 61
1, 19882, Note_off_c, 0, 52, 59
1, 19935, Note_on_c, 0, 80, 81
1, 19970, Note_off_c, 0, 81, 64
1, 20012, Note_on_c, 0, 40, 60
1, 20019, Note_on_c, 0, 78, 75
1, 20051, Note_off_c, 0, 80, 63
1, 20063, Note_off_c, 0, 40, 61
1, 20070, Note_on_c, 0, 76, 81
1, 20071, Control_c, 0, 64, 31
1, 20097, Note_off_c, 0, 78, 64
1, 20113, Note_off_c, 0, 76, 64
1, 20170, Note_on_c, 0, 40, 66
1, 20179, Note_on_c, 0, 69, 80
1, 20179, Note_on_c, 0, 75, 92
1, 20218, Control_c, 0, 64, 32
1, 20259, Note_off_c, 0, 75, 59
1, 20277, Control_c, 0, 64, 32
1, 20306, Control_c, 0, 64, 33
1, 20321, Control_c, 0, 64, 33
1, 20340, Note_on_c, 0, 78, 83
1, 20348, Note_off_c, 0, 40, 60
1, 20388, Control_c, 0, 64, 34
1, 20406, Note_off_c, 0, 78, 63
1, 20434, Note_off_c, 0, 69, 56
1, 20509, Note_on_c, 0, 75, 83
1, 20510, Note_on_c, 0, 40, 54
1, 20555, Note_off_c, 0, 40, 63
1, 20564, Note_off_c, 0, 75, 63
1, 20656, Note_on_c, 0, 69, 76
1, 20658, Note_on_c, 0, 40, 59
1, 20658, Note_on_c, 0, 66, 70
1, 20707, Note_off_c, 0, 69, 62
1, 20804, Note_on_c, 0, 75, 80
1, 20869, Note_off_c, 0, 75, 60
1, 20877, Note_off_c, 0, 66, 52
1, 20969, Note_on_c, 0, 69, 73
1, 21014, Note_off_c, 0, 69, 62
1, 21124, Note_on_c, 0, 63, 62
1, 21133, Note_on_c, 0, 66, 67
1, 21170, Note_off_c, 0, 66, 62
1, 21178, Note_off_c, 0, 40, 63
1, 21285, Note_on_c, 0, 69, 72
1, 21346, Note_off_c, 0, 69, 61
1, 21419, Control_c, 0, 64, 34
1, 21442, Note_on_c, 0, 66, 69
1, 21464, Note_off_c, 0, 63, 51
1, 21485, Note_off_c, 0, 66, 58
1, 21603, Note_on_c, 0, 68, 75
1, 21610, Note_on_c, 0, 64, 61
1, 21641, Control_c, 0, 64, 35
1, 21685, Control_c, 0, 64, 35
1, 21700, Control_c, 0, 64, 36
1, 21715, Control_c, 0, 64, 37
1, 21730, Control_c, 0, 64, 38
1, 21745, Control_c, 0, 64, 38
1, 21759, Control_c, 0, 64, 39
1, 21762, Note_on_c, 0, 66, 74
1, 21774, Note_off_c, 0, 68, 61
1, 21807, Note_off_c, 0, 64, 41
1, 21822, Note_off_c, 0, 66, 61
1, 21917, Note_on_c, 0, 64, 75
1, 21923, Note_on_c, 0, 52, 69
1, 21923, Note_on_c, 0, 62, 70
1, 21953, Note_off_c, 0, 52, 65
1, 21956, Note_off_c, 0, 62, 64
1, 21958, Note_off_c, 0, 64, 60
1, 22048, Control_c, 0, 64, 38
1, 22063, Control_c, 0, 64, 35
1, 22078, Control_c, 0, 64, 34
1, 22080, Note_on_c, 0, 54, 72
1, 22087, Note_on_c, 0, 69, 91
1, 22093, Control_c, 0, 64, 35
1, 22099, Note_on_c, 0, 61, 77
1, 22108, Control_c, 0, 64, 44
1, 22123, Control_c, 0, 64, 57
1, 22138, Control_c, 0, 64, 65
1, 22143, Note_off_c, 0, 54, 60
1, 22153, Control_c, 0, 64, 74
1, 22168, Control_c, 0, 64, 96
1, 22174, Note_off_c, 0, 61, 55
1, 22182, Control_c, 0, 64, 127
1, 22189, Note_off_c, 0, 69, 65
1, 22241, Note_on_c, 0, 52, 78
1, 22242, Control_c, 0, 64, 99
1, 22257, Control_c, 0, 64, 76
1, 22271, Note_off_c, 0, 52, 66
1, 22272, Control_c, 0, 64, 64
1, 22287, Control_c, 0, 64, 44
1, 22301, Control_c, 0, 64, 0
1, 22388, Note_on_c, 0, 74, 88
1, 22395, Note_on_c, 0, 50, 63
1, 22406, Note_on_c, 0, 69, 63
1, 22428, Note_off_c, 0, 50, 61
1, 22444, Note_off_c, 0, 69, 62
1, 22447, Note_off_c, 0, 74, 62
1, 22594, Note_on_c, 0, 73, 98
1, 22597, Note_on_c, 0, 52, 67
1, 22597, Note_on_c, 0, 69, 83
1, 22611, Control_c, 0, 64, 32
1, 22634, Control_c, 0, 64, 55
1, 22649, Control_c, 0, 64, 65
1, 22663, Control_c, 0, 64, 76
1, 22677, Note_off_c, 0, 69, 63
1, 22678, Control_c, 0, 64, 127
1, 22695, Note_off_c, 0, 73, 59
1, 22901, Control_c, 0, 64, 100
1, 22915, Control_c, 0, 64, 78
1, 22930, Control_c, 0, 64, 65
1, 22945, Control_c, 0, 64, 51
1, 22960, Control_c, 0, 64, 32
1, 22975, Control_c, 0, 64, 29
1, 23005, Control_c, 0, 64, 30
1, 23020, Control_c, 0, 64, 31
1, 23035, Control_c, 0, 64, 32
1, 23121, Note_on_c, 0, 73, 83
1, 23129, Note_on_c, 0, 40, 69
1, 23132, Note_on_c, 0, 68, 75
1, 23154, Note_on_c, 0, 71, 67
1, 23157, Note_off_c, 0, 73, 61
1, 23198, Note_off_c, 0, 71, 62
1, 23200, Note_on_c, 0, 73, 73
1, 23230, Note_on_c, 0, 71, 65
1, 23234, Note_off_c, 0, 73, 67
1, 23288, Note_on_c, 0, 69, 77
1, 23291, Note_off_c, 0, 71, 66
1, 23310, Note_off_c, 0, 40, 59
1, 23330, Note_off_c, 0, 69, 63
1, 23450, Note_on_c, 0, 71, 84
1, 23486, Note_off_c, 0, 68, 59
1, 23506, Note_off_c, 0, 71, 63
1, 23603, Note_off_c, 0, 52, 44
1, 23620, Control_c, 0, 64, 31
1, 23640, Note_on_c, 0, 45, 80
1, 23650, Control_c, 0, 64, 36
1, 23658, Note_on_c, 0, 69, 59
1, 23665, Control_c, 0, 64, 53
1, 23679, Control_c, 0, 64, 64
1, 23691, Note_off_c, 0, 69, 65
1, 23694, Control_c, 0, 64, 75
1, 23709, Control_c, 0, 64, 127
1, 23767, Note_off_c, 0, 45, 62
1, 23784, Control_c, 0, 64, 83
1, 23799, Control_c, 0, 64, 67
1, 23814, Control_c, 0, 64, 47
1, 23822, Note_on_c, 0, 73, 66
1, 23828, Control_c, 0, 64, 21
1, 23843, Control_c, 0, 64, 16
1, 23864, Note_off_c, 0, 73, 66
1, 23888, Control_c, 0, 64, 17
1, 23896, Note_on_c, 0, 71, 71
1, 23902, Control_c, 0, 64, 18
1, 23932, Note_off_c, 0, 71, 65
1, 23967, Note_on_c, 0, 52, 74
1, 23976, Note_on_c, 0, 69, 59
1, 23977, Control_c, 0, 64, 19
1, 23992, Control_c, 0, 64, 20
1, 23998, Note_off_c, 0, 52, 67
1, 24021, Note_off_c, 0, 69, 55
1, 24049, Note_on_c, 0, 68, 53
1, 24084, Note_off_c, 0, 68, 63
1, 24113, Note_on_c, 0, 66, 65
1, 24135, Note_on_c, 0, 57, 70
1, 24151, Note_off_c, 0, 66, 65
1, 24176, Note_off_c, 0, 57, 64
1, 24182, Note_on_c, 0, 56, 80
1, 24230, Note_off_c, 0, 56, 64
1, 24234, Note_on_c, 0, 57, 77
1, 24266, Control_c, 0, 64, 21
1, 24304, Note_on_c, 0, 69, 67
1, 24368, Note_off_c, 0, 69, 62
1, 24373, Note_on_c, 0, 68, 67
1, 24451, Note_on_c, 0, 66, 69
1, 24454, Note_off_c, 0, 68, 59
1, 24489, Note_off_c, 0, 66, 62
1, 24519, Note_on_c, 0, 64, 68
1, 24594, Note_on_c, 0, 63, 82
1, 24598, Note_off_c, 0, 64, 63
1, 24633, Note_off_c, 0, 63, 58
1, 24716, Note_off_c, 0, 57, 55
1, 24754, Note_on_c, 0, 59, 68
1, 24757, Note_on_c, 0, 66, 82
1, 24791, Note_off_c, 0, 59, 64
1, 24814, Note_off_c, 0, 66, 63
1, 24823, Note_on_c, 0, 57, 77
1, 24907, Note_off_c, 0, 57, 63
1, 24908, Note_on_c, 0, 56, 75
1, 24918, Note_on_c, 0, 71, 94
1, 24972, Note_off_c, 0, 71, 64
1, 24975, Note_off_c, 0, 56, 60
1, 24984, Note_on_c, 0, 54, 72
1, 25060, Note_off_c, 0, 54, 64
1, 25082, Note_on_c, 0, 71, 97
1, 25086, Note_on_c, 0, 53, 76
1, 25111, Note_off_c, 0, 53, 66
1, 25246, Note_on_c, 0, 68, 75
1, 25252, Note_on_c, 0, 54, 70
1, 25289, Note_off_c, 0, 54, 65
1, 25297, Note_off_c, 0, 68, 60
1, 25321, Note_on_c, 0, 53, 69
1, 25327, Control_c, 0, 64, 22
1, 25386, Control_c, 0, 64, 23
1, 25395, Note_off_c, 0, 53, 64
1, 25396, Note_on_c, 0, 51, 69
1, 25409, Note_on_c, 0, 65, 66
1, 25415, Control_c, 0, 64, 24
1, 25464, Note_on_c, 0, 49, 72
1, 25467, Note_off_c, 0, 51, 62
1, 25474, Note_off_c, 0, 65, 59
1, 25489, Control_c, 0, 64, 24
1, 25536, Note_off_c, 0, 49, 61
1, 25555, Note_on_c, 0, 54, 86
1, 25561, Note_on_c, 0, 61, 79
1, 25604, Note_off_c, 0, 71, 54
1, 25616, Note_off_c, 0, 61, 61
1, 25723, Note_off_c, 0, 54, 61
1, 25747, Note_on_c, 0, 69, 72
1, 25802, Note_off_c, 0, 69, 63
1, 25820, Note_on_c, 0, 68, 72
1, 25883, Note_on_c, 0, 66, 67
1, 25884, Note_off_c, 0, 68, 62
1, 25894, Note_on_c, 0, 42, 64
1, 25918, Note_off_c, 0, 66, 64
1, 25921, Note_off_c, 0, 42, 61
1, 25952, Note_on_c, 0, 64, 67
1, 26000, Control_c, 0, 64, 25
1, 26004, Note_off_c, 0, 64, 53
1, 26029, Note_on_c, 0, 62, 62
1, 26054, Note_on_c, 0, 54, 63
1, 26059, Note_off_c, 0, 62, 65
1, 26060, Control_c, 0, 64, 26
1, 26074, Control_c, 0, 64, 26
1, 26076, Note_on_c, 0, 52, 73
1, 26086, Note_off_c, 0, 54, 63
1, 26089, Control_c, 0, 64, 28
1, 26104, Control_c, 0, 64, 28
1, 26120, Control_c, 0, 64, 29
1, 26133, Note_on_c, 0, 54, 82
1, 26135, Control_c, 0, 64, 30
1, 26138, Note_off_c, 0, 52, 66
1, 26149, Control_c, 0, 64, 30
1, 26164, Control_c, 0, 64, 31
1, 26199, Note_on_c, 0, 66, 76
1, 26223, Control_c, 0, 64, 31
1, 26253, Note_off_c, 0, 66, 66
1, 26275, Note_on_c, 0, 64, 76
1, 26326, Note_off_c, 0, 64, 64
1, 26344, Note_on_c, 0, 62, 70
1, 26427, Note_on_c, 0, 61, 77
1, 26429, Note_off_c, 0, 62, 58
1, 26504, Note_off_c, 0, 61, 60
1, 26506, Note_on_c, 0, 59, 83
1, 26546, Note_off_c, 0, 59, 61
1, 26650, Note_off_c, 0, 54, 63
1, 26665, Note_on_c, 0, 55, 74
1, 26674, Note_on_c, 0, 62, 80
1, 26714, Note_off_c, 0, 62, 60
1, 26741, Note_off_c, 0, 55, 57
1, 26758, Note_on_c, 0, 54, 75
1, 26817, Note_off_c, 0, 54, 65
1, 26832, Note_on_c, 0, 52, 77
1, 26833, Note_on_c, 0, 67, 87
1, 26880, Note_off_c, 0, 67, 63
1, 26904, Note_off_c, 0, 52, 62
1, 26913, Note_on_c, 0, 50, 68
1, 26976, Note_on_c, 0, 67, 95
1, 26995, Note_off_c, 0, 50, 63
1, 27006, Note_on_c, 0, 49, 50
1, 27036, Note_off_c, 0, 49, 34
1, 27163, Note_on_c, 0, 64, 75
1, 27175, Note_on_c, 0, 50, 79
1, 27222, Note_off_c, 0, 64, 60
1, 27235, Note_off_c, 0, 50, 56
1, 27255, Note_on_c, 0, 49, 70
1, 27320, Note_on_c, 0, 47, 73
1, 27320, Note_off_c, 0, 49, 64
1, 27333, Note_on_c, 0, 61, 68
1, 27367, Note_off_c, 0, 61, 61
1, 27392, Note_off_c, 0, 47, 62
1, 27396, Note_on_c, 0, 45, 66
1, 27470, Note_off_c, 0, 67, 59
1, 27486, Note_on_c, 0, 50, 87
1, 27490, Note_off_c, 0, 45, 55
1, 27498, Note_on_c, 0, 57, 75
1, 27549, Note_off_c, 0, 57, 60
1, 27631, Note_off_c, 0, 50, 64
1, 27651, Note_on_c, 0, 66, 70
1, 27710, Note_off_c, 0, 66, 64
1, 27733, Note_on_c, 0, 64, 71
1, 27777, Note_off_c, 0, 64, 61
1, 27811, Note_on_c, 0, 62, 65
1, 27813, Note_on_c, 0, 38, 66
1, 27840, Note_off_c, 0, 38, 64
1, 27862, Note_off_c, 0, 62, 54
1, 27895, Note_on_c, 0, 61, 67
1, 27931, Note_off_c, 0, 61, 62
1, 27978, Note_on_c, 0, 59, 68
1, 27990, Note_on_c, 0, 50, 62
1, 28005, Note_off_c, 0, 59, 66
1, 28033, Note_on_c, 0, 49, 73
1, 28034, Note_off_c, 0, 50, 64
1, 28068, Note_off_c, 0, 49, 63
1, 28080, Note_on_c, 0, 50, 69
1, 28158, Note_on_c, 0, 62, 73
1, 28233, Note_off_c, 0, 62, 62
1, 28233, Note_on_c, 0, 61, 72
1, 28314, Note_on_c, 0, 59, 75
1, 28320, Note_off_c, 0, 61, 60
1, 28353, Note_off_c, 0, 59, 62
1, 28380, Note_on_c, 0, 57, 78
1, 28460, Note_on_c, 0, 56, 86
1, 28465, Note_off_c, 0, 57, 61
1, 28515, Note_off_c, 0, 56, 64
1, 28609, Note_off_c, 0, 50, 60
1, 28631, Note_on_c, 0, 52, 68
1, 28637, Note_on_c, 0, 59, 83
1, 28671, Note_off_c, 0, 52, 64
1, 28692, Note_off_c, 0, 59, 64
1, 28709, Note_on_c, 0, 50, 77
1, 28782, Note_on_c, 0, 49, 73
1, 28786, Note_off_c, 0, 50, 63
1, 28798, Note_on_c, 0, 64, 87
1, 28844, Note_off_c, 0, 64, 64
1, 28851, Note_off_c, 0, 49, 63
1, 28859, Note_on_c, 0, 47, 68
1, 28932, Note_on_c, 0, 45, 73
1, 28937, Note_off_c, 0, 47, 63
1, 28955, Note_on_c, 0, 61, 94
1, 28986, Note_off_c, 0, 45, 62
1, 29003, Note_off_c, 0, 61, 63
1, 29107, Note_on_c, 0, 47, 72
1, 29119, Note_on_c, 0, 64, 87
1, 29173, Note_off_c, 0, 64, 64
1, 29181, Note_off_c, 0, 47, 59
1, 29186, Note_on_c, 0, 49, 78
1, 29242, Note_off_c, 0, 49, 64
1, 29256, Note_on_c, 0, 50, 80
1, 29277, Control_c, 0, 64, 32
1, 29280, Note_on_c, 0, 69, 95
1, 29292, Control_c, 0, 64, 32
1, 29307, Control_c, 0, 64, 34
1, 29309, Note_off_c, 0, 50, 65
1, 29322, Control_c, 0, 64, 35
1, 29337, Control_c, 0, 64, 36
1, 29350, Note_off_c, 0, 69, 62
1, 29352, Control_c, 0, 64, 37
1, 29353, Note_on_c, 0, 52, 74
1, 29374, Control_c, 0, 64, 38
1, 29389, Control_c, 0, 64, 40
1, 29404, Control_c, 0, 64, 40
1, 29419, Control_c, 0, 64, 41
1, 29449, Note_on_c, 0, 62, 94
1, 29450, Note_on_c, 0, 54, 92
1, 29457, Note_off_c, 0, 52, 62
1, 29488, Note_off_c, 0, 54, 61
1, 29616, Note_off_c, 0, 62, 60
1, 29622, Note_on_c, 0, 52, 84
1, 29653, Note_off_c, 0, 52, 66
1, 29781, Note_on_c, 0, 50, 79
1, 29788, Note_on_c, 0, 71, 92
1, 29792, Note_on_c, 0, 62, 78
1, 29807, Note_off_c, 0, 50, 66
1, 29819, Control_c, 0, 64, 40
1, 29833, Note_off_c, 0, 62, 61
1, 29848, Control_c, 0, 64, 40
1, 29878, Control_c, 0, 64, 39
1, 29917, Note_off_c, 0, 71, 58
1, 29922, Control_c, 0, 64, 39
1, 29950, Note_on_c, 0, 52, 78
1, 29959, Note_on_c, 0, 64, 85
1, 29961, Note_on_c, 0, 61, 91
1, 30055, Control_c, 0, 64, 38
1, 30070, Control_c, 0, 64, 38
1, 30131, Note_on_c, 0, 69, 94
1, 30131, Note_off_c, 0, 64, 66
1, 30131, Note_off_c, 0, 52, 64
1, 30140, Note_off_c, 0, 61, 61
1, 30153, Control_c, 0, 64, 37
1, 30188, Note_off_c, 0, 69, 64
1, 30212, Control_c, 0, 64, 37
1, 30296, Note_on_c, 0, 40, 65
1, 30301, Note_on_c, 0, 68, 88
1, 30307, Note_on_c, 0, 59, 69
1, 30341, Note_off_c, 0, 40, 62
1, 30342, Note_off_c, 0, 59, 61
1, 30364, Note_off_c, 0, 68, 59
1, 30466, Note_on_c, 0, 45, 74
1, 30468, Note_on_c, 0, 69, 96
1, 30478, Note_on_c, 0, 61, 80
1, 30508, Note_off_c, 0, 45, 63
1, 30633, Note_on_c, 0, 49, 86
1, 30682, Note_off_c, 0, 49, 64
1, 30821, Note_on_c, 0, 52, 88
1, 30857, Note_off_c, 0, 52, 66
1, 30990, Control_c, 0, 64, 37
1, 31062, Note_on_c, 0, 57, 91
1, 31138, Control_c, 0, 64, 38
1, 31167, Control_c, 0, 64, 40
1, 31182, Control_c, 0, 64, 43
1, 31197, Control_c, 0, 64, 46
1, 31212, Control_c, 0, 64, 50
1, 31226, Control_c, 0, 64, 57
1, 31241, Control_c, 0, 64, 62
1, 31256, Control_c, 0, 64, 67
1, 31263, Note_off_c, 0, 57, 66
1, 31271, Control_c, 0, 64, 72
1, 31286, Control_c, 0, 64, 81
1, 31301, Control_c, 0, 64, 95
1, 31316, Control_c, 0, 64, 127
1, 31388, Note_off_c, 0, 61, 60
1, 31413, Note_off_c, 0, 69, 62
1, 31508, Control_c, 0, 64, 110
1, 31523, Control_c, 0, 64, 98
1, 31537, Control_c, 0, 64, 90
1, 31552, Control_c, 0, 64, 83
1, 31567, Control_c, 0, 64, 76
1, 31580, Note_on_c, 0, 57, 92
1, 31581, Note_on_c, 0, 45, 82
1, 31582, Control_c, 0, 64, 70
1, 31597, Control_c, 0, 64, 65
1, 31619, Control_c, 0, 64, 59
1, 31634, Control_c, 0, 64, 52
1, 31649, Control_c, 0, 64, 50
1, 31664, Control_c, 0, 64, 49
1, 31739, Control_c, 0, 64, 49
1, 31769, Control_c, 0, 64, 48
1, 31784, Control_c, 0, 64, 48
1, 31787, Note_on_c, 0, 76, 99
1, 31867, Note_on_c, 0, 74, 79
1, 31918, Note_off_c, 0, 76, 62
1, 31944, Note_on_c, 0, 73, 83
1, 31977, Note_off_c, 0, 74, 63
1, 31986, Note_off_c, 0, 57, 32
1, 32021, Note_on_c, 0, 71, 87
1, 32043, Note_off_c, 0, 73, 60
1, 32049, Control_c, 0, 64, 48
1, 32088, Note_off_c, 0, 45, 31
1, 32096, Note_off_c, 0, 71, 65
1, 32098, Note_on_c, 0, 69, 83
1, 32124, Control_c, 0, 64, 49
1, 32140, Note_off_c, 0, 69, 65
1, 32261, Note_on_c, 0, 73, 80
1, 32309, Note_off_c, 0, 73, 56
1, 32418, Note_on_c, 0, 69, 76
1, 32445, Note_off_c, 0, 69, 65
1, 32576, Note_on_c, 0, 64, 67
1, 32606, Note_off_c, 0, 64, 67
1, 32726, Note_on_c, 0, 69, 71
1, 32772, Note_off_c, 0, 69, 63
1, 32898, Note_on_c, 0, 64, 67
1, 32927, Note_off_c, 0, 64, 66
1, 33052, Note_on_c, 0, 61, 64
1, 33082, Note_off_c, 0, 61, 64
1, 33225, Note_on_c, 0, 64, 63
1, 33255, Note_off_c, 0, 64, 65
1, 33391, Note_on_c, 0, 61, 60
1, 33422, Note_off_c, 0, 61, 64
1, 33560, Note_on_c, 0, 57, 63
1, 33733, Note_on_c, 0, 69, 67
1, 33776, Note_off_c, 0, 57, 59
1, 33779, Note_off_c, 0, 69, 60
1, 33802, Note_on_c, 0, 71, 69
1, 33865, Note_off_c, 0, 71, 59
1, 33878, Note_on_c, 0, 73, 69
1, 33973, Note_off_c, 0, 73, 53
1, 33977, Note_on_c, 0, 74, 54
1, 34033, Note_on_c, 0, 76, 76
1, 34040, Note_off_c, 0, 74, 63
1, 34055, Note_on_c, 0, 57, 60
1, 34058, Note_on_c, 0, 69, 77
1, 34067, Note_on_c, 0, 61, 58
1, 34073, Note_off_c, 0, 76, 66
1, 34231, Note_on_c, 0, 73, 68
1, 34260, Note_off_c, 0, 73, 66
1, 34262, Note_off_c, 0, 69, 59
1, 34276, Note_off_c, 0, 57, 61
1, 34297, Note_off_c, 0, 61, 61
1, 34382, Note_on_c, 0, 76, 75
1, 34415, Note_off_c, 0, 76, 63
1, 34553, Note_on_c, 0, 57, 55
1, 34554, Note_on_c, 0, 69, 58
1, 34554, Note_on_c, 0, 61, 52
1, 34561, Note_on_c, 0, 81, 56
1, 34621, Note_off_c, 0, 81, 61
1, 34644, Control_c, 0, 64, 50
1, 34651, Note_off_c, 0, 61, 56
1, 34653, Note_on_c, 0, 76, 52
1, 34659, Control_c, 0, 64, 52
1, 34674, Control_c, 0, 64, 55
1, 34676, Note_off_c, 0, 69, 36
1, 34689, Control_c, 0, 64, 58
1, 34704, Control_c, 0, 64, 62
1, 34713, Note_off_c, 0, 76, 62
1, 34718, Control_c, 0, 64, 65
1, 34720, Note_on_c, 0, 78, 70
1, 34733, Control_c, 0, 64, 66
1, 34748, Control_c, 0, 64, 68
1, 34762, Control_c, 0, 64, 69
1, 34792, Control_c, 0, 64, 68
1, 34796, Note_off_c, 0, 78, 57
1, 34807, Note_on_c, 0, 71, 76
1, 34807, Control_c, 0, 64, 66
1, 34811, Note_on_c, 0, 62, 61
1, 34811, Note_on_c, 0, 80, 80
1, 34822, Control_c, 0, 64, 62
1, 34836, Control_c, 0, 64, 57
1, 34851, Control_c, 0, 64, 54
1, 34866, Control_c, 0, 64, 54
1, 34896, Control_c, 0, 64, 56
1, 34902, Note_on_c, 0, 81, 82
1, 34912, Control_c, 0, 64, 59
1, 34913, Note_off_c, 0, 62, 59
1, 34918, Note_off_c, 0, 80, 63
1, 34927, Control_c, 0, 64, 64
1, 34941, Control_c, 0, 64, 69
1, 34956, Control_c, 0, 64, 77
1, 34963, Note_off_c, 0, 71, 60
1, 34971, Control_c, 0, 64, 89
1, 34986, Control_c, 0, 64, 127
1, 34994, Note_on_c, 0, 80, 89
1, 35003, Note_off_c, 0, 81, 65
1, 35045, Control_c, 0, 64, 105
1, 35060, Control_c, 0, 64, 76
1, 35063, Note_on_c, 0, 71, 88
1, 35073, Note_on_c, 0, 62, 63
1, 35075, Note_on_c, 0, 81, 83
1, 35075, Control_c, 0, 64, 59
1, 35090, Control_c, 0, 64, 47
1, 35093, Note_off_c, 0, 80, 64
1, 35104, Control_c, 0, 64, 48
1, 35119, Control_c, 0, 64, 54
1, 35131, Note_off_c, 0, 57, 57
1, 35134, Control_c, 0, 64, 61
1, 35136, Note_off_c, 0, 62, 62
1, 35149, Control_c, 0, 64, 67
1, 35164, Note_off_c, 0, 81, 64
1, 35164, Control_c, 0, 64, 76
1, 35165, Note_on_c, 0, 76, 79
1, 35179, Control_c, 0, 64, 90
1, 35184, Note_off_c, 0, 71, 63
1, 35193, Control_c, 0, 64, 127
1, 35242, Note_on_c, 0, 78, 84
1, 35248, Note_off_c, 0, 76, 60
1, 35267, Control_c, 0, 64, 100
1, 35282, Control_c, 0, 64, 77
1, 35297, Control_c, 0, 64, 63
1, 35312, Control_c, 0, 64, 45
1, 35321, Note_on_c, 0, 73, 83
1, 35327, Control_c, 0, 64, 21
1, 35328, Note_on_c, 0, 80, 84
1, 35334, Note_on_c, 0, 64, 64
1, 35335, Note_off_c, 0, 78, 60
1, 35364, Control_c, 0, 64, 42
1, 35379, Control_c, 0, 64, 59
1, 35392, Note_off_c, 0, 73, 59
1, 35393, Control_c, 0, 64, 66
1, 35408, Control_c, 0, 64, 72
1, 35411, Note_off_c, 0, 64, 58
1, 35423, Control_c, 0, 64, 78
1, 35432, Note_on_c, 0, 81, 78
1, 35437, Note_off_c, 0, 80, 64
1, 35438, Control_c, 0, 64, 81
1, 35453, Control_c, 0, 64, 74
1, 35467, Control_c, 0, 64, 69
1, 35482, Control_c, 0, 64, 67
1, 35497, Control_c, 0, 64, 69
1, 35512, Control_c, 0, 64, 72
1, 35519, Note_on_c, 0, 80, 87
1, 35525, Note_off_c, 0, 81, 66
1, 35527, Control_c, 0, 64, 77
1, 35541, Control_c, 0, 64, 87
1, 35556, Control_c, 0, 64, 98
1, 35571, Control_c, 0, 64, 103
1, 35576, Note_on_c, 0, 73, 81
1, 35578, Note_on_c, 0, 64, 63
1, 35588, Note_off_c, 0, 80, 65
1, 35604, Note_off_c, 0, 73, 64
1, 35605, Note_on_c, 0, 81, 88
1, 35630, Control_c, 0, 64, 100
1, 35635, Note_off_c, 0, 64, 63
1, 35645, Control_c, 0, 64, 91
1, 35655, Note_off_c, 0, 81, 65
1, 35659, Control_c, 0, 64, 80
1, 35674, Control_c, 0, 64, 70
1, 35689, Control_c, 0, 64, 65
1, 35705, Control_c, 0, 64, 64
1, 35720, Control_c, 0, 64, 63
1, 35750, Control_c, 0, 64, 63
1, 35764, Control_c, 0, 64, 62
1, 35779, Control_c, 0, 64, 60
1, 35794, Control_c, 0, 64, 57
1, 35808, Control_c, 0, 64, 54
1, 35812, Note_on_c, 0, 80, 76
1, 35823, Note_on_c, 0, 64, 71
1, 35823, Control_c, 0, 64, 49
1, 35838, Control_c, 0, 64, 46
1, 35853, Control_c, 0, 64, 44
1, 35868, Control_c, 0, 64, 41
1, 35882, Control_c, 0, 64, 38
1, 35897, Note_off_c, 0, 80, 64
1, 35897, Control_c, 0, 64, 36
1, 35900, Note_off_c, 0, 64, 62
1, 35900, Note_on_c, 0, 78, 74
1, 35911, Note_on_c, 0, 62, 68
1, 35912, Control_c, 0, 64, 34
1, 35927, Control_c, 0, 64, 33
1, 35942, Control_c, 0, 64, 33
1, 35974, Note_on_c, 0, 76, 71
1, 35976, Note_off_c, 0, 78, 62
1, 35977, Note_off_c, 0, 62, 63
1, 35978, Note_on_c, 0, 61, 69
1, 36014, Note_off_c, 0, 76, 64
1, 36040, Note_on_c, 0, 74, 74
1, 36049, Note_off_c, 0, 61, 63
1, 36064, Note_on_c, 0, 59, 68
1, 36112, Note_off_c, 0, 74, 58
1, 36135, Note_on_c, 0, 73, 73
1, 36136, Note_on_c, 0, 57, 67
1, 36142, Note_off_c, 0, 59, 65
1, 36157, Control_c, 0, 64, 32
1, 36168, Note_off_c, 0, 57, 65
1, 36198, Note_off_c, 0, 73, 57
1, 36215, Note_on_c, 0, 74, 77
1, 36288, Note_on_c, 0, 61, 84
1, 36299, Note_off_c, 0, 74, 62
1, 36309, Note_on_c, 0, 76, 78
1, 36319, Note_off_c, 0, 61, 64
1, 36398, Note_on_c, 0, 74, 68
1, 36398, Note_off_c, 0, 76, 61
1, 36452, Note_on_c, 0, 57, 85
1, 36463, Note_off_c, 0, 74, 63
1, 36470, Note_on_c, 0, 73, 69
1, 36478, Note_off_c, 0, 57, 67
1, 36540, Note_off_c, 0, 73, 63
1, 36547, Note_on_c, 0, 71, 68
1, 36579, Note_off_c, 0, 71, 65
1, 36613, Note_on_c, 0, 52, 74
1, 36619, Note_on_c, 0, 69, 67
1, 36641, Note_off_c, 0, 52, 68
1, 36655, Note_off_c, 0, 69, 59
1, 36679, Note_on_c, 0, 71, 76
1, 36715, Note_off_c, 0, 71, 63
1, 36737, Note_on_c, 0, 69, 73
1, 36774, Note_on_c, 0, 57, 76
1, 36775, Note_off_c, 0, 69, 63
1, 36777, Note_on_c, 0, 71, 73
1, 36801, Note_off_c, 0, 57, 68
1, 36810, Note_off_c, 0, 71, 63
1, 36829, Note_on_c, 0, 69, 68
1, 36882, Note_on_c, 0, 71, 73
1, 36884, Note_off_c, 0, 69, 64
1, 36918, Note_off_c, 0, 71, 63
1, 36938, Note_on_c, 0, 69, 71
1, 36949, Note_on_c, 0, 52, 75
1, 36977, Note_off_c, 0, 52, 68
1, 36981, Note_on_c, 0, 71, 67
1, 36984, Note_off_c, 0, 69, 63
1, 37016, Note_off_c, 0, 71, 62
1, 37037, Note_on_c, 0, 69, 70
1, 37084, Note_on_c, 0, 71, 69
1, 37088, Note_off_c, 0, 69, 63
1, 37097, Note_on_c, 0, 49, 83
1, 37127, Note_off_c, 0, 71, 62
1, 37137, Note_off_c, 0, 49, 63
1, 37148, Note_on_c, 0, 69, 70
1, 37194, Note_on_c, 0, 71, 68
1, 37198, Note_off_c, 0, 69, 63
1, 37239, Note_off_c, 0, 71, 62
1, 37251, Note_on_c, 0, 52, 79
1, 37256, Note_on_c, 0, 69, 67
1, 37279, Note_off_c, 0, 52, 68
1, 37301, Note_on_c, 0, 71, 65
1, 37302, Note_off_c, 0, 69, 64
1, 37354, Note_off_c, 0, 71, 59
1, 37373, Note_on_c, 0, 69, 70
1, 37406, Note_on_c, 0, 49, 72
1, 37409, Note_off_c, 0, 69, 65
1, 37411, Note_on_c, 0, 71, 60
1, 37438, Note_off_c, 0, 49, 66
1, 37463, Note_off_c, 0, 71, 59
1, 37491, Note_on_c, 0, 69, 68
1, 37567, Note_on_c, 0, 45, 72
1, 37638, Note_off_c, 0, 69, 61
1, 37651, Note_on_c, 0, 71, 68
1, 37704, Note_off_c, 0, 71, 62
1, 37748, Note_on_c, 0, 69, 65
1, 37757, Control_c, 0, 64, 33
1, 37766, Note_off_c, 0, 45, 63
1, 37787, Note_off_c, 0, 69, 60
1, 37837, Note_on_c, 0, 68, 53
1, 37876, Note_off_c, 0, 68, 65
1, 37905, Note_on_c, 0, 69, 71
1, 37942, Note_off_c, 0, 69, 66
1, 37983, Note_on_c, 0, 64, 52
1, 37994, Control_c, 0, 64, 33
1, 38032, Note_off_c, 0, 64, 49
1, 38037, Note_on_c, 0, 45, 50
1, 38041, Note_on_c, 0, 49, 47
1, 38047, Note_on_c, 0, 52, 41
1, 38061, Note_on_c, 0, 61, 59
1, 38108, Note_off_c, 0, 61, 61
1, 38146, Note_on_c, 0, 66, 64
1, 38174, Control_c, 0, 64, 34
1, 38209, Note_off_c, 0, 66, 63
1, 38209, Note_off_c, 0, 52, 54
1, 38229, Note_on_c, 0, 64, 51
1, 38246, Note_off_c, 0, 45, 59
1, 38266, Note_off_c, 0, 49, 61
1, 38266, Note_off_c, 0, 64, 64
1, 38309, Note_on_c, 0, 62, 51
1, 38333, Note_off_c, 0, 62, 61
1, 38389, Note_on_c, 0, 64, 51
1, 38436, Note_off_c, 0, 64, 62
1, 38474, Note_on_c, 0, 61, 25
1, 38512, Note_off_c, 0, 61, 45
1, 38543, Note_on_c, 0, 45, 45
1, 38546, Note_on_c, 0, 52, 46
1, 38549, Note_on_c, 0, 59, 68
1, 38550, Note_on_c, 0, 49, 55
1, 38585, Note_off_c, 0, 59, 65
1, 38603, Note_on_c, 0, 57, 60
1, 38665, Note_off_c, 0, 49, 57
1, 38667, Note_off_c, 0, 52, 59
1, 38667, Note_off_c, 0, 57, 62
1, 38674, Note_on_c, 0, 59, 55
1, 38706, Note_off_c, 0, 59, 65
1, 38717, Note_on_c, 0, 57, 57
1, 38768, Note_off_c, 0, 57, 63
1, 38786, Note_on_c, 0, 59, 57
1, 38818, Note_on_c, 0, 47, 58
1, 38818, Note_off_c, 0, 59, 65
1, 38822, Note_on_c, 0, 50, 57
1, 38825, Note_on_c, 0, 57, 63
1, 38860, Note_off_c, 0, 50, 63
1, 38870, Note_off_c, 0, 47, 59
1, 38875, Note_off_c, 0, 57, 63
1, 38890, Note_on_c, 0, 59, 63
1, 38924, Note_off_c, 0, 59, 65
1, 38931, Note_on_c, 0, 57, 67
1, 38982, Note_off_c, 0, 57, 63
1, 38995, Note_on_c, 0, 59, 66
1, 39012, Control_c, 0, 64, 34
1, 39031, Note_off_c, 0, 59, 65
1, 39037, Note_on_c, 0, 57, 71
1, 39061, Note_on_c, 0, 50, 63
1, 39062, Note_on_c, 0, 47, 64
1, 39092, Note_off_c, 0, 57, 61
1, 39111, Note_on_c, 0, 59, 65
1, 39152, Note_off_c, 0, 59, 64
1, 39160, Note_on_c, 0, 57, 63
1, 39212, Note_off_c, 0, 57, 61
1, 39217, Note_on_c, 0, 59, 61
1, 39234, Note_off_c, 0, 45, 22
1, 39259, Note_off_c, 0, 59, 62
1, 39271, Note_on_c, 0, 57, 53
1, 39309, Note_off_c, 0, 47, 52
1, 39315, Note_off_c, 0, 57, 63
1, 39316, Note_on_c, 0, 59, 64
1, 39319, Note_off_c, 0, 50, 58
1, 39327, Note_on_c, 0, 49, 64
1, 39329, Note_on_c, 0, 52, 63
1, 39362, Note_off_c, 0, 52, 66
1, 39373, Note_off_c, 0, 49, 62
1, 39381, Note_off_c, 0, 59, 60
1, 39397, Note_on_c, 0, 57, 65
1, 39576, Note_off_c, 0, 57, 61
1, 39597, Note_on_c, 0, 52, 55
1, 39600, Note_on_c, 0, 49, 61
1, 39764, Note_off_c, 0, 52, 61
1, 39801, Note_off_c, 0, 49, 63
1, 39839, Note_on_c, 0, 57, 65
1, 39879, Note_off_c, 0, 57, 64
1, 39912, Note_on_c, 0, 59, 63
1, 39977, Note_off_c, 0, 59, 60
1, 39986, Note_on_c, 0, 61, 61
1, 40020, Control_c, 0, 64, 35
1, 40035, Control_c, 0, 64, 36
1, 40045, Note_off_c, 0, 61, 62
1, 40050, Control_c, 0, 64, 37
1, 40064, Control_c, 0, 64, 38
1, 40065, Note_on_c, 0, 62, 62
1, 40079, Control_c, 0, 64, 39
1, 40138, Control_c, 0, 64, 39
1, 40142, Note_off_c, 0, 62, 61
1, 40151, Note_on_c, 0, 64, 63
1, 40183, Note_off_c, 0, 64, 65
1, 40318, Note_on_c, 0, 61, 67
1, 40347, Note_off_c, 0, 61, 65
1, 40474, Note_on_c, 0, 57, 64
1, 40479, Control_c, 0, 64, 39
1, 40483, Note_on_c, 0, 64, 62
1, 40494, Control_c, 0, 64, 36
1, 40509, Control_c, 0, 64, 34
1, 40513, Note_off_c, 0, 57, 65
1, 40515, Note_off_c, 0, 64, 66
1, 40524, Control_c, 0, 64, 32
1, 40539, Control_c, 0, 64, 29
1, 40554, Control_c, 0, 64, 28
1, 40568, Control_c, 0, 64, 26
1, 40583, Control_c, 0, 64, 22
1, 40606, Control_c, 0, 64, 15
1, 40621, Control_c, 0, 64, 0
1, 40657, Note_on_c, 0, 59, 63
1, 40664, Note_on_c, 0, 67, 56
1, 40685, Note_off_c, 0, 67, 61
1, 40688, Note_off_c, 0, 59, 65
1, 40825, Note_on_c, 0, 76, 94
1, 40839, Note_on_c, 0, 61, 67
1, 40887, Note_off_c, 0, 61, 56
1, 40906, Note_on_c, 0, 74, 84
1, 40914, Note_on_c, 0, 59, 65
1, 40946, Note_off_c, 0, 76, 64
1, 40956, Note_off_c, 0, 59, 63
1, 40968, Note_on_c, 0, 57, 66
1, 40981, Note_on_c, 0, 73, 88
1, 41013, Note_off_c, 0, 74, 63
1, 41049, Note_off_c, 0, 57, 63
1, 41050, Note_on_c, 0, 71, 89
1, 41057, Note_on_c, 0, 59, 68
1, 41081, Note_off_c, 0, 73, 65
1, 41116, Note_off_c, 0, 59, 63
1, 41126, Note_on_c, 0, 69, 91
1, 41128, Note_off_c, 0, 71, 65
1, 41131, Note_on_c, 0, 61, 73
1, 41156, Note_off_c, 0, 61, 67
1, 41175, Note_off_c, 0, 69, 65
1, 41294, Note_on_c, 0, 76, 87
1, 41299, Note_on_c, 0, 62, 67
1, 41343, Note_off_c, 0, 76, 64
1, 41377, Note_off_c, 0, 62, 59
1, 41404, Note_on_c, 0, 61, 35
1, 41448, Note_off_c, 0, 61, 49
1, 41460, Note_on_c, 0, 59, 59
1, 41469, Note_on_c, 0, 67, 77
1, 41504, Note_off_c, 0, 67, 65
1, 41516, Note_off_c, 0, 59, 61
1, 41534, Note_on_c, 0, 61, 66
1, 41598, Note_off_c, 0, 61, 62
1, 41618, Note_on_c, 0, 62, 73
1, 41629, Note_on_c, 0, 66, 82
1, 41644, Note_off_c, 0, 62, 69
1, 41659, Note_off_c, 0, 66, 63
1, 41827, Note_on_c, 0, 62, 58
1, 41866, Note_off_c, 0, 62, 62
1, 41895, Note_on_c, 0, 64, 63
1, 41949, Note_off_c, 0, 64, 52
1, 41972, Note_on_c, 0, 66, 59
1, 42011, Note_off_c, 0, 66, 65
1, 42041, Note_on_c, 0, 67, 65
1, 42128, Note_off_c, 0, 67, 62
1, 42136, Note_on_c, 0, 69, 73
1, 42166, Note_off_c, 0, 69, 64
1, 42322, Note_on_c, 0, 66, 59
1, 42346, Note_off_c, 0, 66, 57
1, 42472, Note_on_c, 0, 50, 58
1, 42473, Note_on_c, 0, 69, 74
1, 42509, Note_off_c, 0, 69, 66
1, 42512, Note_off_c, 0, 50, 63
1, 42648, Note_on_c, 0, 52, 63
1, 42651, Note_on_c, 0, 72, 69
1, 42679, Note_off_c, 0, 52, 66
1, 42679, Note_off_c, 0, 72, 69
1, 42825, Note_on_c, 0, 81, 91
1, 42827, Note_on_c, 0, 54, 76
1, 42898, Note_off_c, 0, 54, 63
1, 42909, Note_on_c, 0, 52, 73
1, 42919, Note_on_c, 0, 79, 86
1, 42961, Note_off_c, 0, 81, 66
1, 42967, Note_off_c, 0, 52, 65
1, 42969, Note_on_c, 0, 50, 65
1, 42997, Note_on_c, 0, 78, 90
1, 43028, Note_off_c, 0, 79, 67
1, 43056, Note_on_c, 0, 52, 76
1, 43061, Note_off_c, 0, 50, 63
1, 43067, Note_on_c, 0, 76, 90
1, 43114, Note_off_c, 0, 78, 61
1, 43135, Note_on_c, 0, 54, 84
1, 43144, Note_on_c, 0, 74, 92
1, 43147, Note_off_c, 0, 52, 63
1, 43150, Note_off_c, 0, 76, 64
1, 43188, Note_off_c, 0, 54, 65
1, 43195, Note_off_c, 0, 74, 66
1, 43310, Note_on_c, 0, 81, 81
1, 43331, Note_on_c, 0, 55, 68
1, 43362, Note_off_c, 0, 81, 66
1, 43400, Note_on_c, 0, 54, 70
1, 43405, Note_off_c, 0, 55, 61
1, 43487, Note_on_c, 0, 72, 60
1, 43498, Note_on_c, 0, 52, 71
1, 43505, Note_off_c, 0, 54, 64
1, 43517, Note_off_c, 0, 72, 66
1, 43573, Note_off_c, 0, 52, 65
1, 43596, Note_on_c, 0, 55, 65
1, 43619, Note_on_c, 0, 71, 86
1, 43640, Note_off_c, 0, 55, 63
1, 43672, Control_c, 0, 64, 8
1, 43687, Control_c, 0, 64, 10
1, 43703, Control_c, 0, 64, 15
1, 43718, Control_c, 0, 64, 17
1, 43733, Control_c, 0, 64, 19
1, 43748, Control_c, 0, 64, 21
1, 43777, Control_c, 0, 64, 22
1, 43798, Note_on_c, 0, 59, 76
1, 43822, Control_c, 0, 64, 23
1, 43856, Note_off_c, 0, 59, 61
1, 43863, Note_on_c, 0, 57, 64
1, 43915, Note_off_c, 0, 71, 55
1, 43919, Note_on_c, 0, 55, 67
1, 43929, Note_off_c, 0, 57, 63
1, 43940, Note_on_c, 0, 69, 72
1, 44011, Note_on_c, 0, 54, 55
1, 44014, Note_off_c, 0, 55, 57
1, 44056, Note_off_c, 0, 69, 59
1, 44083, Note_on_c, 0, 52, 61
1, 44088, Note_on_c, 0, 67, 60
1, 44089, Note_off_c, 0, 54, 64
1, 44110, Note_off_c, 0, 52, 67
1, 44125, Note_off_c, 0, 67, 61
1, 44152, Note_on_c, 0, 69, 70
1, 44190, Note_off_c, 0, 69, 61
1, 44205, Note_on_c, 0, 67, 66
1, 44268, Note_on_c, 0, 55, 56
1, 44313, Note_on_c, 0, 54, 64
1, 44317, Note_off_c, 0, 55, 62
1, 44366, Note_off_c, 0, 67, 57
1, 44395, Note_on_c, 0, 52, 63
1, 44396, Note_off_c, 0, 54, 60
1, 44402, Note_on_c, 0, 66, 63
1, 44470, Note_off_c, 0, 52, 63
1, 44476, Note_on_c, 0, 50, 55
1, 44531, Note_off_c, 0, 66, 58
1, 44555, Note_on_c, 0, 49, 56
1, 44560, Note_off_c, 0, 50, 64
1, 44577, Note_on_c, 0, 64, 62
1, 44590, Note_off_c, 0, 49, 64
1, 44726, Note_on_c, 0, 52, 61
1, 44741, Note_on_c, 0, 73, 59
1, 44765, Note_off_c, 0, 52, 65
1, 44808, Note_off_c, 0, 73, 61
1, 44831, Note_on_c, 0, 71, 51
1, 44882, Note_off_c, 0, 71, 64
1, 44891, Note_on_c, 0, 49, 59
1, 44900, Note_on_c, 0, 70, 60
1, 44929, Note_off_c, 0, 49, 65
1, 44947, Note_off_c, 0, 70, 57
1, 44986, Note_on_c, 0, 71, 64
1, 45042, Note_on_c, 0, 46, 52
1, 45070, Note_off_c, 0, 71, 62
1, 45071, Note_on_c, 0, 73, 78
1, 45079, Note_off_c, 0, 46, 64
1, 45213, Note_on_c, 0, 49, 63
1, 45248, Note_off_c, 0, 49, 65
1, 45378, Note_off_c, 0, 64, 57
1, 45383, Note_off_c, 0, 73, 64
1, 45392, Note_on_c, 0, 46, 65
1, 45403, Note_on_c, 0, 67, 72
1, 45427, Note_off_c, 0, 46, 64
1, 45512, Control_c, 0, 64, 24
1, 45527, Control_c, 0, 64, 25
1, 45535, Note_off_c, 0, 67, 60
1, 45541, Control_c, 0, 64, 26
1, 45557, Control_c, 0, 64, 28
1, 45570, Note_on_c, 0, 50, 72
1, 45572, Control_c, 0, 64, 29
1, 45575, Note_on_c, 0, 66, 78
1, 45587, Control_c, 0, 64, 30
1, 45602, Control_c, 0, 64, 31
1, 45603, Note_off_c, 0, 50, 64
1, 45616, Control_c, 0, 64, 31
1, 45661, Control_c, 0, 64, 32
1, 45731, Note_on_c, 0, 74, 79
1, 45745, Note_on_c, 0, 54, 62
1, 45776, Note_off_c, 0, 54, 66
1, 45820, Note_on_c, 0, 73, 77
1, 45821, Note_off_c, 0, 74, 64
1, 45896, Note_on_c, 0, 50, 63
1, 45899, Note_on_c, 0, 71, 74
1, 45908, Note_off_c, 0, 73, 59
1, 45939, Note_off_c, 0, 50, 63
1, 45984, Note_on_c, 0, 73, 75
1, 46024, Note_off_c, 0, 71, 56
1, 46050, Note_on_c, 0, 47, 54
1, 46059, Note_on_c, 0, 74, 90
1, 46087, Note_off_c, 0, 47, 62
1, 46090, Note_off_c, 0, 73, 65
1, 46226, Note_on_c, 0, 50, 67
1, 46265, Note_off_c, 0, 50, 64
1, 46313, Note_off_c, 0, 66, 58
1, 46381, Note_on_c, 0, 47, 68
1, 46397, Note_on_c, 0, 69, 92
1, 46399, Note_off_c, 0, 74, 57
1, 46421, Note_off_c, 0, 47, 62
1, 46544, Note_off_c, 0, 69, 60
1, 46553, Note_on_c, 0, 52, 77
1, 46566, Note_on_c, 0, 67, 94
1, 46584, Note_off_c, 0, 52, 68
1, 46610, Control_c, 0, 64, 32
1, 46625, Control_c, 0, 64, 33
1, 46640, Control_c, 0, 64, 33
1, 46669, Control_c, 0, 64, 34
1, 46724, Note_on_c, 0, 76, 91
1, 46730, Note_on_c, 0, 55, 78
1, 46764, Note_off_c, 0, 55, 64
1, 46817, Note_on_c, 0, 74, 82
1, 46846, Note_off_c, 0, 76, 62
1, 46882, Note_on_c, 0, 52, 70
1, 46897, Note_on_c, 0, 73, 88
1, 46912, Note_off_c, 0, 74, 63
1, 46916, Note_off_c, 0, 52, 67
1, 46951, Control_c, 0, 64, 33
1, 46977, Note_on_c, 0, 74, 83
1, 46983, Note_off_c, 0, 73, 63
1, 47047, Note_on_c, 0, 49, 73
1, 47060, Note_on_c, 0, 76, 106
1, 47083, Note_off_c, 0, 74, 65
1, 47088, Note_off_c, 0, 49, 60
1, 47100, Control_c, 0, 64, 33
1, 47144, Control_c, 0, 64, 30
1, 47159, Control_c, 0, 64, 24
1, 47174, Control_c, 0, 64, 10
1, 47188, Control_c, 0, 64, 0
1, 47198, Note_on_c, 0, 52, 78
1, 47232, Note_off_c, 0, 52, 66
1, 47365, Note_off_c, 0, 76, 58
1, 47371, Note_on_c, 0, 49, 76
1, 47378, Note_on_c, 0, 71, 86
1, 47392, Note_off_c, 0, 67, 60
1, 47405, Note_off_c, 0, 49, 64
1, 47508, Note_off_c, 0, 71, 62
1, 47540, Note_on_c, 0, 54, 90
1, 47543, Note_on_c, 0, 70, 99
1, 47551, Control_c, 0, 64, 25
1, 47566, Note_on_c, 0, 80, 55
1, 47566, Control_c, 0, 64, 59
1, 47581, Control_c, 0, 64, 70
1, 47585, Note_off_c, 0, 80, 63
1, 47595, Control_c, 0, 64, 93
1, 47602, Note_off_c, 0, 70, 62
1, 47610, Control_c, 0, 64, 127
1, 47699, Note_off_c, 0, 54, 60
1, 47723, Note_on_c, 0, 79, 99
1, 47759, Control_c, 0, 64, 88
1, 47774, Control_c, 0, 64, 70
1, 47789, Control_c, 0, 64, 56
1, 47803, Control_c, 0, 64, 16
1, 47807, Note_on_c, 0, 78, 90
1, 47818, Control_c, 0, 64, 0
1, 47829, Note_off_c, 0, 79, 63
1, 47869, Note_on_c, 0, 59, 74
1, 47878, Note_off_c, 0, 78, 65
1, 47880, Note_on_c, 0, 76, 86
1, 47915, Note_off_c, 0, 59, 60
1, 47951, Note_on_c, 0, 75, 95
1, 47967, Note_off_c, 0, 76, 64
1, 48021, Note_on_c, 0, 58, 76
1, 48033, Note_off_c, 0, 75, 41
1, 48035, Note_on_c, 0, 76, 100
1, 48103, Note_off_c, 0, 76, 65
1, 48189, Note_off_c, 0, 58, 63
1, 48199, Note_on_c, 0, 59, 78
1, 48208, Note_on_c, 0, 79, 94
1, 48245, Note_off_c, 0, 59, 62
1, 48259, Note_off_c, 0, 79, 66
1, 48378, Note_on_c, 0, 75, 96
1, 48380, Note_on_c, 0, 61, 73
1, 48407, Note_off_c, 0, 61, 66
1, 48427, Note_off_c, 0, 75, 63
1, 48548, Note_on_c, 0, 76, 94
1, 48552, Note_on_c, 0, 54, 75
1, 48558, Note_on_c, 0, 73, 84
1, 48611, Control_c, 0, 64, 33
1, 48623, Note_off_c, 0, 76, 62
1, 48626, Control_c, 0, 64, 51
1, 48641, Control_c, 0, 64, 59
1, 48656, Control_c, 0, 64, 64
1, 48671, Control_c, 0, 64, 68
1, 48675, Note_off_c, 0, 54, 63
1, 48685, Control_c, 0, 64, 74
1, 48700, Control_c, 0, 64, 81
1, 48712, Note_on_c, 0, 79, 88
1, 48715, Control_c, 0, 64, 86
1, 48736, Note_off_c, 0, 73, 52
1, 48745, Control_c, 0, 64, 81
1, 48759, Control_c, 0, 64, 72
1, 48774, Control_c, 0, 64, 62
1, 48789, Control_c, 0, 64, 51
1, 48793, Note_on_c, 0, 78, 80
1, 48804, Control_c, 0, 64, 43
1, 48814, Note_off_c, 0, 79, 62
1, 48819, Control_c, 0, 64, 42
1, 48866, Note_on_c, 0, 59, 75
1, 48877, Note_on_c, 0, 76, 81
1, 48900, Note_off_c, 0, 78, 63
1, 48957, Note_on_c, 0, 75, 83
1, 48971, Note_off_c, 0, 76, 62
1, 49031, Note_on_c, 0, 76, 91
1, 49032, Note_on_c, 0, 58, 79
1, 49046, Note_off_c, 0, 59, 57
1, 49063, Control_c, 0, 64, 41
1, 49078, Control_c, 0, 64, 40
1, 49081, Note_off_c, 0, 75, 55
1, 49089, Note_off_c, 0, 76, 64
1, 49092, Control_c, 0, 64, 39
1, 49107, Control_c, 0, 64, 38
1, 49122, Control_c, 0, 64, 37
1, 49152, Control_c, 0, 64, 37
1, 49196, Control_c, 0, 64, 36
1, 49211, Control_c, 0, 64, 35
1, 49225, Note_on_c, 0, 78, 72
1, 49226, Control_c, 0, 64, 34
1, 49240, Control_c, 0, 64, 33
1, 49255, Control_c, 0, 64, 32
1, 49270, Control_c, 0, 64, 32
1, 49302, Control_c, 0, 64, 31
1, 49305, Note_on_c, 0, 76, 71
1, 49314, Note_off_c, 0, 78, 61
1, 49357, Note_on_c, 0, 59, 63
1, 49357, Note_off_c, 0, 58, 57
1, 49371, Note_off_c, 0, 76, 64
1, 49374, Note_on_c, 0, 75, 72
1, 49385, Note_off_c, 0, 59, 65
1, 49402, Note_off_c, 0, 75, 66
1, 49449, Note_on_c, 0, 73, 66
1, 49450, Control_c, 0, 64, 31
1, 49494, Control_c, 0, 64, 30
1, 49508, Control_c, 0, 64, 28
1, 49520, Note_off_c, 0, 73, 61
1, 49523, Control_c, 0, 64, 28
1, 49538, Note_on_c, 0, 75, 71
1, 49544, Note_on_c, 0, 47, 57
1, 49553, Control_c, 0, 64, 32
1, 49568, Control_c, 0, 64, 48
1, 49575, Note_off_c, 0, 75, 59
1, 49590, Control_c, 0, 64, 60
1, 49605, Control_c, 0, 64, 66
1, 49620, Control_c, 0, 64, 72
1, 49623, Note_off_c, 0, 47, 63
1, 49635, Control_c, 0, 64, 80
1, 49650, Control_c, 0, 64, 83
1, 49664, Control_c, 0, 64, 77
1, 49679, Control_c, 0, 64, 66
1, 49694, Control_c, 0, 64, 51
1, 49709, Control_c, 0, 64, 0
1, 49737, Note_on_c, 0, 72, 53
1, 49787, Note_off_c, 0, 72, 64
1, 49803, Note_on_c, 0, 71, 62
1, 49837, Note_off_c, 0, 71, 65
1, 49850, Note_on_c, 0, 64, 52
1, 49867, Note_on_c, 0, 69, 65
1, 49908, Note_off_c, 0, 64, 49
1, 49924, Note_off_c, 0, 69, 60
1, 49943, Note_on_c, 0, 68, 63
1, 49986, Note_off_c, 0, 68, 63
1, 50006, Note_on_c, 0, 63, 47
1, 50027, Note_on_c, 0, 69, 71
1, 50054, Note_off_c, 0, 69, 69
1, 50118, Note_off_c, 0, 63, 43
1, 50170, Note_on_c, 0, 64, 57
1, 50187, Note_on_c, 0, 72, 72
1, 50212, Note_off_c, 0, 64, 64
1, 50215, Note_off_c, 0, 72, 68
1, 50356, Note_on_c, 0, 66, 51
1, 50365, Note_on_c, 0, 68, 66
1, 50381, Note_off_c, 0, 66, 60
1, 50394, Note_off_c, 0, 68, 63
1, 50518, Note_on_c, 0, 59, 49
1, 50528, Note_on_c, 0, 78, 67
1, 50533, Note_on_c, 0, 69, 57
1, 50546, Control_c, 0, 64, 45
1, 50561, Control_c, 0, 64, 60
1, 50572, Note_off_c, 0, 69, 60
1, 50576, Control_c, 0, 64, 67
1, 50591, Control_c, 0, 64, 80
1, 50606, Control_c, 0, 64, 127
1, 50629, Note_off_c, 0, 59, 58
1, 50646, Note_off_c, 0, 78, 62
1, 50665, Control_c, 0, 64, 97
1, 50680, Control_c, 0, 64, 74
1, 50695, Control_c, 0, 64, 60
1, 50703, Note_on_c, 0, 72, 53
1, 50709, Control_c, 0, 64, 28
1, 50724, Control_c, 0, 64, 0
1, 50754, Note_off_c, 0, 72, 64
1, 50777, Note_on_c, 0, 71, 57
1, 50814, Note_off_c, 0, 71, 66
1, 50850, Note_on_c, 0, 64, 46
1, 50856, Note_on_c, 0, 69, 60
1, 50904, Note_off_c, 0, 69, 60
1, 50931, Note_on_c, 0, 68, 60
1, 50977, Note_off_c, 0, 68, 62
1, 50998, Note_off_c, 0, 64, 34
1, 51007, Note_on_c, 0, 63, 49
1, 51018, Note_on_c, 0, 69, 69
1, 51045, Note_off_c, 0, 69, 68
1, 51201, Note_on_c, 0, 71, 60
1, 51239, Note_off_c, 0, 71, 62
1, 51282, Note_on_c, 0, 69, 57
1, 51318, Note_off_c, 0, 69, 65
1, 51351, Note_on_c, 0, 64, 58
1, 51354, Note_off_c, 0, 63, 51
1, 51363, Note_on_c, 0, 67, 56
1, 51381, Note_off_c, 0, 64, 65
1, 51412, Note_off_c, 0, 67, 58
1, 51446, Note_on_c, 0, 66, 58
1, 51496, Note_off_c, 0, 66, 59
1, 51525, Note_on_c, 0, 52, 47
1, 51538, Note_on_c, 0, 67, 60
1, 51587, Note_off_c, 0, 67, 55
1, 51616, Note_on_c, 0, 71, 72
1, 51619, Note_on_c, 0, 55, 54
1, 51624, Note_off_c, 0, 52, 63
1, 51677, Note_off_c, 0, 71, 58
1, 51680, Note_off_c, 0, 55, 59
1, 51681, Control_c, 0, 64, 12
1, 51689, Note_on_c, 0, 73, 77
1, 51692, Note_on_c, 0, 57, 62
1, 51696, Control_c, 0, 64, 15
1, 51711, Control_c, 0, 64, 17
1, 51743, Note_off_c, 0, 57, 62
1, 51770, Control_c, 0, 64, 18
1, 51774, Note_on_c, 0, 75, 84
1, 51776, Note_off_c, 0, 73, 67
1, 51780, Note_on_c, 0, 59, 67
1, 51843, Note_off_c, 0, 75, 66
1, 51851, Note_off_c, 0, 59, 53
1, 51858, Note_on_c, 0, 61, 66
1, 51868, Note_on_c, 0, 76, 81
1, 51932, Note_off_c, 0, 76, 59
1, 51934, Note_on_c, 0, 63, 60
1, 51935, Note_off_c, 0, 61, 57
1, 51937, Note_on_c, 0, 78, 85
1, 52006, Note_off_c, 0, 63, 63
1, 52015, Note_on_c, 0, 79, 82
1, 52021, Note_on_c, 0, 64, 74
1, 52031, Note_off_c, 0, 78, 63
1, 52051, Note_off_c, 0, 64, 66
1, 52103, Note_on_c, 0, 78, 82
1, 52108, Note_off_c, 0, 79, 63
1, 52178, Note_on_c, 0, 67, 72
1, 52182, Note_on_c, 0, 76, 83
1, 52197, Note_off_c, 0, 78, 59
1, 52206, Control_c, 0, 64, 17
1, 52209, Note_off_c, 0, 67, 62
1, 52237, Note_off_c, 0, 76, 64
1, 52260, Note_on_c, 0, 74, 77
1, 52334, Note_off_c, 0, 74, 47
1, 52339, Note_on_c, 0, 64, 69
1, 52344, Note_on_c, 0, 73, 80
1, 52367, Note_off_c, 0, 64, 67
1, 52423, Note_on_c, 0, 71, 82
1, 52431, Note_off_c, 0, 73, 61
1, 52488, Note_on_c, 0, 61, 71
1, 52489, Note_off_c, 0, 71, 63
1, 52501, Note_on_c, 0, 76, 90
1, 52522, Note_off_c, 0, 61, 64
1, 52590, Note_on_c, 0, 74, 79
1, 52626, Note_off_c, 0, 76, 61
1, 52659, Note_on_c, 0, 64, 70
1, 52671, Note_on_c, 0, 73, 75
1, 52681, Note_off_c, 0, 74, 62
1, 52694, Note_off_c, 0, 64, 62
1, 52748, Note_on_c, 0, 71, 75
1, 52751, Note_off_c, 0, 73, 62
1, 52788, Note_off_c, 0, 71, 64
1, 52826, Note_on_c, 0, 69, 74
1, 52838, Note_on_c, 0, 61, 64
1, 52867, Note_off_c, 0, 61, 65
1, 52890, Note_off_c, 0, 69, 54
1, 52907, Note_on_c, 0, 68, 70
1, 52972, Note_off_c, 0, 68, 62
1, 52979, Note_on_c, 0, 73, 86
1, 52980, Note_on_c, 0, 57, 63
1, 53012, Note_off_c, 0, 57, 64
1, 53073, Note_on_c, 0, 71, 70
1, 53074, Note_off_c, 0, 73, 65
1, 53142, Note_on_c, 0, 61, 63
1, 53145, Note_on_c, 0, 69, 77
1, 53145, Note_off_c, 0, 71, 65
1, 53176, Note_off_c, 0, 61, 64
1, 53188, Note_off_c, 0, 69, 62
1, 53227, Note_on_c, 0, 67, 70
1, 53285, Note_off_c, 0, 67, 57
1, 53290, Note_on_c, 0, 57, 64
1, 53300, Note_on_c, 0, 66, 69
1, 53318, Note_off_c, 0, 57, 67
1, 53369, Note_off_c, 0, 66, 62
1, 53380, Note_on_c, 0, 64, 72
1, 53441, Note_off_c, 0, 64, 61
1, 53469, Note_on_c, 0, 50, 53
1, 53473, Note_on_c, 0, 66, 75
1, 53507, Note_off_c, 0, 66, 65
1, 53541, Note_on_c, 0, 69, 77
1, 53552, Note_off_c, 0, 50, 61
1, 53558, Note_on_c, 0, 54, 68
1, 53601, Note_off_c, 0, 69, 55
1, 53619, Note_on_c, 0, 71, 84
1, 53628, Note_off_c, 0, 54, 64
1, 53642, Note_on_c, 0, 55, 68
1, 53687, Note_off_c, 0, 71, 55
1, 53692, Note_off_c, 0, 55, 60
1, 53701, Note_on_c, 0, 73, 87
1, 53714, Note_on_c, 0, 57, 76
1, 53759, Note_off_c, 0, 73, 64
1, 53779, Note_on_c, 0, 74, 82
1, 53780, Note_off_c, 0, 57, 61
1, 53784, Note_on_c, 0, 59, 72
1, 53850, Note_off_c, 0, 74, 55
1, 53851, Note_off_c, 0, 59, 62
1, 53854, Note_on_c, 0, 76, 86
1, 53860, Note_on_c, 0, 61, 76
1, 53926, Note_on_c, 0, 78, 99
1, 53936, Note_off_c, 0, 76, 59
1, 53938, Note_off_c, 0, 61, 60
1, 53944, Note_on_c, 0, 62, 79
1, 54015, Note_on_c, 0, 76, 83
1, 54021, Note_off_c, 0, 78, 64
1, 54065, Note_off_c, 0, 76, 65
1, 54093, Note_on_c, 0, 74, 80
1, 54152, Note_off_c, 0, 74, 59
1, 54177, Note_on_c, 0, 73, 80
1, 54254, Note_on_c, 0, 71, 76
1, 54258, Note_off_c, 0, 73, 64
1, 54294, Note_off_c, 0, 71, 65
1, 54323, Note_on_c, 0, 69, 73
1, 54397, Note_off_c, 0, 69, 57
1, 54408, Note_on_c, 0, 68, 73
1, 54469, Note_off_c, 0, 68, 61
1, 54488, Note_on_c, 0, 71, 69
1, 54555, Note_off_c, 0, 71, 65
1, 54567, Note_on_c, 0, 76, 81
1, 54570, Note_off_c, 0, 62, 58
1, 54577, Note_on_c, 0, 61, 62
1, 54606, Note_off_c, 0, 61, 64
1, 54650, Note_off_c, 0, 76, 63
1, 54653, Note_on_c, 0, 74, 69
1, 54691, Note_on_c, 0, 72, 27
1, 54705, Note_off_c, 0, 72, 37
1, 54723, Note_on_c, 0, 59, 71
1, 54727, Note_on_c, 0, 76, 81
1, 54729, Note_off_c, 0, 74, 63
1, 54749, Note_off_c, 0, 59, 66
1, 54787, Note_off_c, 0, 76, 65
1, 54814, Note_on_c, 0, 67, 71
1, 54852, Note_off_c, 0, 67, 65
1, 54880, Note_on_c, 0, 58, 67
1, 54906, Note_on_c, 0, 66, 75
1, 54929, Note_off_c, 0, 58, 59
1, 54950, Note_off_c, 0, 66, 58
1, 54966, Note_on_c, 0, 61, 72
1, 54984, Note_on_c, 0, 70, 70
1, 55020, Note_off_c, 0, 61, 63
1, 55042, Note_off_c, 0, 70, 59
1, 55053, Note_on_c, 0, 73, 76
1, 55059, Note_on_c, 0, 59, 67
1, 55126, Note_off_c, 0, 59, 63
1, 55130, Note_on_c, 0, 58, 67
1, 55130, Note_on_c, 0, 74, 80
1, 55141, Note_off_c, 0, 73, 60
1, 55157, Control_c, 0, 64, 18
1, 55202, Note_on_c, 0, 56, 75
1, 55205, Note_off_c, 0, 58, 61
1, 55217, Note_off_c, 0, 74, 62
1, 55219, Note_on_c, 0, 76, 85
1, 55279, Note_on_c, 0, 54, 76
1, 55284, Note_off_c, 0, 56, 62
1, 55336, Note_off_c, 0, 54, 64
1, 55364, Note_on_c, 0, 59, 79
1, 55392, Note_off_c, 0, 59, 65
1, 55401, Note_off_c, 0, 76, 38
1, 55444, Note_on_c, 0, 66, 74
1, 55521, Note_off_c, 0, 66, 57
1, 55521, Note_on_c, 0, 68, 73
1, 55528, Note_on_c, 0, 54, 69
1, 55562, Note_off_c, 0, 54, 66
1, 55597, Note_on_c, 0, 70, 70
1, 55602, Note_off_c, 0, 68, 61
1, 55646, Note_off_c, 0, 70, 63
1, 55674, Note_on_c, 0, 71, 76
1, 55676, Note_on_c, 0, 50, 63
1, 55711, Note_off_c, 0, 50, 64
1, 55718, Note_off_c, 0, 71, 60
1, 55753, Note_on_c, 0, 73, 74
1, 55822, Note_off_c, 0, 73, 57
1, 55837, Note_on_c, 0, 74, 79
1, 55843, Note_on_c, 0, 47, 59
1, 55887, Note_off_c, 0, 47, 57
1, 55921, Note_on_c, 0, 73, 78
1, 55921, Note_off_c, 0, 74, 62
1, 55995, Note_on_c, 0, 71, 78
1, 55997, Note_off_c, 0, 73, 63
1, 55999, Note_on_c, 0, 49, 64
1, 56041, Note_off_c, 0, 71, 61
1, 56057, Note_off_c, 0, 49, 59
1, 56068, Note_on_c, 0, 69, 73
1, 56087, Note_on_c, 0, 50, 72
1, 56129, Note_off_c, 0, 50, 63
1, 56146, Note_on_c, 0, 67, 77
1, 56150, Note_off_c, 0, 69, 61
1, 56170, Note_on_c, 0, 52, 69
1, 56218, Note_off_c, 0, 52, 50
1, 56221, Note_on_c, 0, 66, 82
1, 56245, Note_off_c, 0, 67, 51
1, 56248, Note_on_c, 0, 54, 64
1, 56300, Note_off_c, 0, 66, 61
1, 56308, Note_on_c, 0, 71, 89
1, 56318, Note_on_c, 0, 55, 78
1, 56337, Note_off_c, 0, 54, 60
1, 56403, Note_on_c, 0, 69, 83
1, 56406, Note_off_c, 0, 55, 62
1, 56409, Note_on_c, 0, 57, 75
1, 56441, Note_off_c, 0, 71, 56
1, 56467, Note_off_c, 0, 57, 64
1, 56490, Note_on_c, 0, 59, 64
1, 56495, Note_on_c, 0, 67, 76
1, 56519, Note_off_c, 0, 69, 60
1, 56546, Note_off_c, 0, 59, 62
1, 56555, Note_on_c, 0, 57, 72
1, 56556, Note_on_c, 0, 66, 80
1, 56561, Note_off_c, 0, 67, 64
1, 56580, Control_c, 0, 64, 17
1, 56612, Note_off_c, 0, 66, 64
1, 56633, Note_on_c, 0, 64, 77
1, 56637, Note_off_c, 0, 57, 58
1, 56641, Note_on_c, 0, 55, 59
1, 56683, Note_on_c, 0, 54, 62
1, 56692, Note_off_c, 0, 55, 63
1, 56705, Note_off_c, 0, 64, 62
1, 56707, Note_on_c, 0, 62, 80
1, 56758, Note_off_c, 0, 54, 65
1, 56766, Note_on_c, 0, 52, 60
1, 56788, Note_on_c, 0, 67, 86
1, 56794, Note_off_c, 0, 62, 54
1, 56811, Note_off_c, 0, 52, 58
1, 56849, Note_on_c, 0, 54, 70
1, 56864, Note_on_c, 0, 66, 80
1, 56888, Note_off_c, 0, 67, 62
1, 56907, Note_off_c, 0, 54, 64
1, 56935, Note_on_c, 0, 55, 73
1, 56954, Note_on_c, 0, 64, 61
1, 56981, Note_off_c, 0, 66, 58
1, 57002, Note_off_c, 0, 55, 62
1, 57005, Note_on_c, 0, 62, 74
1, 57014, Note_off_c, 0, 64, 62
1, 57016, Note_on_c, 0, 54, 66
1, 57053, Note_off_c, 0, 54, 65
1, 57077, Note_off_c, 0, 62, 63
1, 57083, Note_on_c, 0, 61, 74
1, 57097, Note_on_c, 0, 55, 75
1, 57155, Note_on_c, 0, 64, 77
1, 57155, Note_off_c, 0, 55, 60
1, 57161, Note_off_c, 0, 61, 63
1, 57166, Note_on_c, 0, 52, 67
1, 57210, Control_c, 0, 64, 15
1, 57225, Control_c, 0, 64, 12
1, 57226, Note_off_c, 0, 52, 64
1, 57242, Note_off_c, 0, 64, 62
1, 57259, Note_on_c, 0, 58, 96
1, 57266, Note_on_c, 0, 54, 93
1, 57269, Control_c, 0, 64, 21
1, 57285, Control_c, 0, 64, 41
1, 57300, Control_c, 0, 64, 54
1, 57305, Note_off_c, 0, 58, 65
1, 57315, Control_c, 0, 64, 62
1, 57330, Control_c, 0, 64, 67
1, 57345, Control_c, 0, 64, 75
1, 57359, Control_c, 0, 64, 92
1, 57374, Control_c, 0, 64, 127
1, 57468, Note_on_c, 0, 79, 102
1, 57558, Note_on_c, 0, 78, 86
1, 57570, Note_off_c, 0, 54, 57
1, 57593, Note_off_c, 0, 79, 63
1, 57611, Control_c, 0, 64, 107
1, 57626, Control_c, 0, 64, 84
1, 57627, Note_on_c, 0, 76, 80
1, 57639, Note_off_c, 0, 78, 63
1, 57641, Control_c, 0, 64, 71
1, 57656, Control_c, 0, 64, 63
1, 57667, Note_on_c, 0, 42, 67
1, 57670, Control_c, 0, 64, 47
1, 57685, Control_c, 0, 64, 25
1, 57692, Note_off_c, 0, 76, 64
1, 57700, Control_c, 0, 64, 17
1, 57703, Note_on_c, 0, 74, 89
1, 57703, Note_off_c, 0, 42, 66
1, 57715, Control_c, 0, 64, 16
1, 57729, Control_c, 0, 64, 15
1, 57744, Control_c, 0, 64, 12
1, 57759, Control_c, 0, 64, 0
1, 57784, Note_on_c, 0, 42, 76
1, 57790, Note_on_c, 0, 70, 88
1, 57790, Note_on_c, 0, 73, 88
1, 57803, Note_off_c, 0, 74, 65
1, 57919, Note_off_c, 0, 73, 36
1, 57965, Note_on_c, 0, 76, 89
1, 57997, Note_off_c, 0, 42, 61
1, 58026, Note_off_c, 0, 76, 63
1, 58081, Note_off_c, 0, 70, 62
1, 58127, Note_on_c, 0, 73, 83
1, 58141, Note_on_c, 0, 42, 61
1, 58171, Note_off_c, 0, 73, 62
1, 58174, Note_off_c, 0, 42, 64
1, 58280, Note_on_c, 0, 42, 65
1, 58291, Note_on_c, 0, 64, 83
1, 58293, Note_on_c, 0, 70, 79
1, 58347, Note_off_c, 0, 70, 61
1, 58466, Note_on_c, 0, 73, 75
1, 58517, Note_off_c, 0, 73, 60
1, 58597, Note_off_c, 0, 64, 61
1, 58636, Note_on_c, 0, 70, 72
1, 58677, Note_off_c, 0, 70, 61
1, 58798, Note_on_c, 0, 64, 63
1, 58799, Note_on_c, 0, 61, 71
1, 58872, Note_off_c, 0, 64, 62
1, 58967, Note_on_c, 0, 70, 65
1, 58977, Note_off_c, 0, 42, 58
1, 59035, Control_c, 0, 64, 8
1, 59044, Note_off_c, 0, 70, 59
1, 59049, Control_c, 0, 64, 10
1, 59050, Note_on_c, 0, 49, 79
1, 59056, Note_off_c, 0, 61, 0
1, 59079, Control_c, 0, 64, 12
1, 59080, Note_on_c, 0, 61, 29
1, 59094, Control_c, 0, 64, 14
1, 59109, Control_c, 0, 64, 15
1, 59123, Control_c, 0, 64, 16
1, 59129, Note_on_c, 0, 50, 82
1, 59138, Note_off_c, 0, 49, 63
1, 59138, Control_c, 0, 64, 17
1, 59139, Note_on_c, 0, 64, 66
1, 59153, Control_c, 0, 64, 18
1, 59167, Control_c, 0, 64, 19
1, 59179, Note_off_c, 0, 64, 64
1, 59190, Note_off_c, 0, 50, 64
1, 59205, Note_on_c, 0, 52, 78
1, 59212, Control_c, 0, 64, 20
1, 59278, Note_on_c, 0, 54, 83
1, 59289, Note_off_c, 0, 52, 63
1, 59295, Note_on_c, 0, 62, 76
1, 59302, Note_off_c, 0, 61, 50
1, 59467, Note_off_c, 0, 62, 62
1, 59470, Note_off_c, 0, 54, 60
1, 59488, Note_on_c, 0, 59, 58
1, 59532, Note_off_c, 0, 59, 56
1, 59568, Note_on_c, 0, 61, 59
1, 59604, Control_c, 0, 64, 19
1, 59605, Note_off_c, 0, 61, 63
1, 59630, Note_on_c, 0, 42, 60
1, 59661, Note_on_c, 0, 62, 61
1, 59662, Note_off_c, 0, 42, 64
1, 59679, Control_c, 0, 64, 18
1, 59694, Control_c, 0, 64, 17
1, 59700, Note_off_c, 0, 62, 62
1, 59723, Note_on_c, 0, 64, 64
1, 59724, Control_c, 0, 64, 16
1, 59768, Note_off_c, 0, 64, 61
1, 59795, Note_on_c, 0, 42, 62
1, 59807, Note_on_c, 0, 71, 87
1, 59820, Note_on_c, 0, 66, 58
1, 59864, Note_off_c, 0, 66, 57
1, 59987, Note_on_c, 0, 62, 77
1, 59994, Note_off_c, 0, 42, 60
1, 60034, Note_off_c, 0, 62, 62
1, 60108, Note_off_c, 0, 71, 60
1, 60148, Note_on_c, 0, 42, 83
1, 60152, Note_on_c, 0, 66, 78
1, 60192, Note_off_c, 0, 42, 62
1, 60205, Note_off_c, 0, 66, 61
1, 60303, Note_on_c, 0, 42, 85
1, 60317, Note_on_c, 0, 74, 95
1, 60322, Note_on_c, 0, 71, 71
1, 60446, Note_off_c, 0, 71, 39
1, 60490, Note_on_c, 0, 66, 79
1, 60537, Note_off_c, 0, 66, 64
1, 60564, Note_off_c, 0, 74, 60
1, 60643, Note_on_c, 0, 71, 79
1, 60693, Note_off_c, 0, 71, 65
1, 60801, Note_on_c, 0, 77, 89
1, 60808, Note_on_c, 0, 74, 80
1, 60859, Note_off_c, 0, 74, 55
1, 60934, Poly_aftertouch_c, 0, 46, 127
1, 60979, Note_on_c, 0, 71, 74
1, 61020, Note_off_c, 0, 71, 62
1, 61086, Note_off_c, 0, 77, 60
1, 61123, Note_on_c, 0, 74, 88
1, 61172, Note_off_c, 0, 74, 63
1, 61292, Note_on_c, 0, 78, 98
1, 61308, Note_on_c, 0, 73, 78
1, 61332, Poly_aftertouch_c, 0, 46, 0
1, 61355, Note_off_c, 0, 42, 62
1, 61378, Note_off_c, 0, 73, 58
1, 61482, Note_on_c, 0, 70, 69
1, 61524, Note_off_c, 0, 70, 62
1, 61530, Note_off_c, 0, 78, 61
1, 61551, Note_on_c, 0, 50, 76
1, 61628, Note_on_c, 0, 52, 74
1, 61637, Note_on_c, 0, 73, 84
1, 61639, Note_on_c, 0, 76, 85
1, 61642, Note_off_c, 0, 50, 62
1, 61683, Note_off_c, 0, 73, 62
1, 61697, Note_on_c, 0, 54, 81
1, 61699, Note_off_c, 0, 52, 63
1, 61703, Note_off_c, 0, 76, 64
1, 61764, Note_off_c, 0, 54, 62
1, 61792, Note_on_c, 0, 55, 83
1, 61809, Note_on_c, 0, 74, 93
1, 61819, Note_on_c, 0, 71, 80
1, 61838, Note_off_c, 0, 55, 63
1, 61969, Note_on_c, 0, 54, 74
1, 61999, Note_off_c, 0, 54, 69
1, 62008, Note_off_c, 0, 71, 45
1, 62017, Note_off_c, 0, 74, 52
1, 62135, Note_on_c, 0, 79, 94
1, 62136, Note_on_c, 0, 52, 73
1, 62164, Note_off_c, 0, 52, 67
1, 62196, Note_off_c, 0, 79, 61
1, 62356, Note_on_c, 0, 74, 97
1, 62359, Note_on_c, 0, 54, 73
1, 62367, Note_on_c, 0, 71, 81
1, 62378, Control_c, 0, 64, 22
1, 62392, Control_c, 0, 64, 44
1, 62407, Control_c, 0, 64, 56
1, 62422, Control_c, 0, 64, 63
1, 62437, Control_c, 0, 64, 68
1, 62441, Note_off_c, 0, 71, 0
1, 62452, Note_off_c, 0, 74, 63
1, 62452, Control_c, 0, 64, 77
1, 62466, Control_c, 0, 64, 108
1, 62478, Poly_aftertouch_c, 0, 71, 127
1, 62481, Control_c, 0, 64, 127
1, 62532, Poly_aftertouch_c, 0, 71, 0
1, 62777, Control_c, 0, 64, 102
1, 62791, Control_c, 0, 64, 93
1, 62806, Control_c, 0, 64, 87
1, 62821, Control_c, 0, 64, 83
1, 62836, Control_c, 0, 64, 77
1, 62851, Control_c, 0, 64, 73
1, 62867, Control_c, 0, 64, 70
1, 62882, Control_c, 0, 64, 67
1, 62896, Control_c, 0, 64, 64
1, 62903, Note_on_c, 0, 74, 87
1, 62907, Note_on_c, 0, 42, 67
1, 62909, Note_off_c, 0, 54, 0
1, 62909, Note_on_c, 0, 54, 13
1, 62910, Note_on_c, 0, 70, 78
1, 62911, Control_c, 0, 64, 61
1, 62926, Control_c, 0, 64, 56
1, 62941, Control_c, 0, 64, 52
1, 62955, Note_off_c, 0, 74, 60
1, 62956, Control_c, 0, 64, 50
1, 62961, Note_on_c, 0, 73, 64
1, 62970, Control_c, 0, 64, 49
1, 62985, Control_c, 0, 64, 48
1, 62987, Note_on_c, 0, 74, 65
1, 62992, Note_off_c, 0, 73, 67
1, 63000, Control_c, 0, 64, 46
1, 63015, Control_c, 0, 64, 43
1, 63030, Control_c, 0, 64, 38
1, 63041, Note_on_c, 0, 73, 87
1, 63044, Control_c, 0, 64, 33
1, 63050, Note_off_c, 0, 74, 63
1, 63067, Control_c, 0, 64, 30
1, 63082, Control_c, 0, 64, 28
1, 63096, Note_on_c, 0, 71, 80
1, 63096, Control_c, 0, 64, 28
1, 63101, Note_off_c, 0, 73, 65
1, 63111, Control_c, 0, 64, 27
1, 63126, Control_c, 0, 64, 26
1, 63141, Control_c, 0, 64, 25
1, 63154, Note_off_c, 0, 71, 65
1, 63156, Control_c, 0, 64, 24
1, 63170, Control_c, 0, 64, 21
1, 63185, Control_c, 0, 64, 20
1, 63195, Note_off_c, 0, 42, 61
1, 63200, Control_c, 0, 64, 19
1, 63214, Control_c, 0, 64, 18
1, 63283, Note_on_c, 0, 73, 77
1, 63326, Note_off_c, 0, 70, 59
1, 63334, Note_off_c, 0, 73, 62
1, 63348, Control_c, 0, 64, 17
1, 63354, Note_off_c, 0, 54, 60
1, 63408, Control_c, 0, 64, 16
1, 63422, Control_c, 0, 64, 10
1, 63437, Control_c, 0, 64, 0
1, 63477, Note_on_c, 0, 47, 78
1, 63477, Note_on_c, 0, 71, 75
1, 63510, Note_off_c, 0, 71, 62
1, 63511, Control_c, 0, 64, 50
1, 63526, Control_c, 0, 64, 64
1, 63541, Control_c, 0, 64, 78
1, 63556, Control_c, 0, 64, 127
1, 63626, Note_off_c, 0, 47, 62
1, 63668, Note_on_c, 0, 74, 69
1, 63675, Control_c, 0, 64, 93
1, 63684, Note_on_c, 0, 76, 55
1, 63690, Control_c, 0, 64, 73
1, 63705, Control_c, 0, 64, 59
1, 63709, Note_off_c, 0, 76, 57
1, 63719, Control_c, 0, 64, 29
1, 63734, Control_c, 0, 64, 0
1, 63736, Note_off_c, 0, 74, 64
1, 63745, Note_on_c, 0, 73, 74
1, 63826, Note_off_c, 0, 73, 65
1, 63827, Note_on_c, 0, 71, 67
1, 63842, Note_on_c, 0, 54, 83
1, 63861, Note_off_c, 0, 71, 62
1, 63868, Note_off_c, 0, 54, 70
1, 63892, Note_on_c, 0, 69, 71
1, 63971, Note_off_c, 0, 69, 53
1, 63996, Note_on_c, 0, 67, 70
1, 64027, Note_off_c, 0, 67, 63
1, 64034, Note_on_c, 0, 59, 77
1, 64064, Note_off_c, 0, 59, 67
1, 64066, Note_on_c, 0, 58, 82
1, 64121, Note_off_c, 0, 58, 61
1, 64131, Note_on_c, 0, 59, 89
1, 64200, Note_on_c, 0, 71, 84
1, 64290, Note_on_c, 0, 69, 78
1, 64326, Note_off_c, 0, 71, 62
1, 64369, Note_on_c, 0, 67, 79
1, 64403, Note_off_c, 0, 69, 58
1, 64450, Note_on_c, 0, 66, 84
1, 64460, Note_off_c, 0, 67, 62
1, 64520, Note_off_c, 0, 66, 63
1, 64532, Note_on_c, 0, 64, 87
1, 64575, Note_off_c, 0, 64, 66
1, 64581, Note_on_c, 0, 73, 27
1, 64611, Note_off_c, 0, 73, 32
1, 64702, Note_off_c, 0, 59, 53
1, 64708, Note_on_c, 0, 60, 74
1, 64715, Note_on_c, 0, 67, 81
1, 64744, Note_off_c, 0, 60, 64
1, 64747, Note_off_c, 0, 67, 62
1, 64778, Note_on_c, 0, 59, 75
1, 64845, Note_on_c, 0, 57, 77
1, 64848, Note_off_c, 0, 59, 63
1, 64878, Note_on_c, 0, 72, 95
1, 64919, Note_on_c, 0, 55, 76
1, 64925, Note_off_c, 0, 57, 64
1, 64928, Note_off_c, 0, 72, 64
1, 65009, Note_off_c, 0, 55, 63
1, 65015, Note_on_c, 0, 54, 75
1, 65035, Note_on_c, 0, 72, 98
1, 65054, Note_off_c, 0, 54, 63
1, 65196, Note_on_c, 0, 55, 72
1, 65221, Note_on_c, 0, 69, 75
1, 65269, Note_off_c, 0, 55, 61
1, 65271, Note_off_c, 0, 69, 61
1, 65276, Note_on_c, 0, 54, 72
1, 65368, Note_on_c, 0, 52, 69
1, 65376, Note_on_c, 0, 66, 73
1, 65384, Note_off_c, 0, 54, 59
1, 65419, Note_off_c, 0, 66, 57
1, 65432, Note_on_c, 0, 50, 66
1, 65433, Note_off_c, 0, 52, 64
1, 65528, Note_off_c, 0, 50, 36
1, 65541, Note_on_c, 0, 62, 80
1, 65542, Note_on_c, 0, 55, 73
1, 65573, Note_off_c, 0, 62, 65
1, 65619, Note_on_c, 0, 57, 79
1, 65621, Note_off_c, 0, 55, 63
1, 65680, Note_off_c, 0, 57, 65
1, 65680, Note_off_c, 0, 72, 48
1, 65697, Note_on_c, 0, 59, 73
1, 65701, Note_on_c, 0, 67, 94
1, 65774, Note_off_c, 0, 59, 62
1, 65776, Note_on_c, 0, 55, 67
1, 65846, Note_off_c, 0, 55, 62
1, 65858, Note_on_c, 0, 54, 69
1, 65864, Note_on_c, 0, 71, 87
1, 65923, Note_off_c, 0, 54, 64
1, 65932, Note_off_c, 0, 71, 61
1, 65935, Note_on_c, 0, 55, 70
1, 65992, Note_off_c, 0, 55, 61
1, 66023, Note_on_c, 0, 49, 70
1, 66033, Note_off_c, 0, 67, 62
1, 66040, Note_on_c, 0, 71, 95
1, 66050, Note_off_c, 0, 49, 66
1, 66139, Note_on_c, 0, 69, 72
1, 66210, Note_on_c, 0, 52, 66
1, 66223, Note_on_c, 0, 67, 73
1, 66237, Note_off_c, 0, 52, 67
1, 66257, Note_off_c, 0, 69, 61
1, 66301, Note_on_c, 0, 66, 67
1, 66312, Note_off_c, 0, 67, 59
1, 66346, Note_off_c, 0, 71, 60
1, 66355, Note_off_c, 0, 66, 60
1, 66365, Note_on_c, 0, 49, 57
1, 66380, Note_on_c, 0, 64, 67
1, 66399, Note_off_c, 0, 49, 63
1, 66434, Note_off_c, 0, 64, 60
1, 66451, Note_on_c, 0, 62, 67
1, 66493, Note_off_c, 0, 62, 63
1, 66524, Note_on_c, 0, 61, 78
1, 66532, Note_on_c, 0, 54, 61
1, 66554, Note_off_c, 0, 61, 61
1, 66581, Control_c, 0, 64, 8
1, 66586, Note_off_c, 0, 54, 60
1, 66608, Note_on_c, 0, 55, 63
1, 66610, Control_c, 0, 64, 10
1, 66625, Control_c, 0, 64, 12
1, 66651, Note_off_c, 0, 55, 63
1, 66686, Note_on_c, 0, 57, 59
1, 66690, Note_on_c, 0, 66, 76
1, 66752, Note_off_c, 0, 57, 55
1, 66777, Note_on_c, 0, 54, 54
1, 66828, Note_off_c, 0, 54, 64
1, 66850, Note_on_c, 0, 52, 57
1, 66872, Note_on_c, 0, 69, 72
1, 66900, Note_off_c, 0, 52, 60
1, 66916, Note_off_c, 0, 69, 61
1, 66923, Note_on_c, 0, 54, 61
1, 66981, Note_off_c, 0, 54, 57
1, 67028, Note_on_c, 0, 47, 59
1, 67033, Note_off_c, 0, 66, 63
1, 67036, Note_on_c, 0, 69, 81
1, 67066, Note_off_c, 0, 47, 63
1, 67127, Note_on_c, 0, 67, 66
1, 67197, Note_on_c, 0, 50, 62
1, 67212, Note_on_c, 0, 66, 63
1, 67213, Note_off_c, 0, 67, 59
1, 67229, Note_off_c, 0, 50, 65
1, 67281, Note_on_c, 0, 64, 61
1, 67290, Note_off_c, 0, 66, 60
1, 67323, Note_off_c, 0, 64, 65
1, 67355, Note_on_c, 0, 62, 67
1, 67366, Note_on_c, 0, 47, 49
1, 67399, Note_off_c, 0, 47, 64
1, 67405, Note_off_c, 0, 62, 55
1, 67433, Note_on_c, 0, 61, 59
1, 67471, Note_off_c, 0, 61, 64
1, 67500, Note_on_c, 0, 59, 78
1, 67522, Control_c, 0, 64, 14
1, 67526, Note_on_c, 0, 52, 57
1, 67544, Note_off_c, 0, 59, 59
1, 67578, Note_off_c, 0, 52, 62
1, 67607, Note_on_c, 0, 54, 65
1, 67646, Note_off_c, 0, 54, 66
1, 67677, Note_off_c, 0, 69, 58
1, 67678, Note_on_c, 0, 55, 55
1, 67686, Note_on_c, 0, 64, 77
1, 67723, Control_c, 0, 64, 15
1, 67731, Note_off_c, 0, 55, 54
1, 67752, Note_on_c, 0, 52, 56
1, 67808, Note_off_c, 0, 52, 60
1, 67837, Note_on_c, 0, 50, 49
1, 67847, Note_on_c, 0, 67, 70
1, 67890, Note_off_c, 0, 50, 61
1, 67895, Note_off_c, 0, 67, 60
1, 67919, Note_on_c, 0, 52, 56
1, 67989, Note_off_c, 0, 52, 58
1, 68017, Note_off_c, 0, 64, 62
1, 68020, Note_on_c, 0, 67, 75
1, 68022, Note_on_c, 0, 45, 54
1, 68058, Note_off_c, 0, 45, 64
1, 68115, Note_on_c, 0, 66, 64
1, 68181, Note_on_c, 0, 49, 54
1, 68194, Note_on_c, 0, 64, 60
1, 68194, Note_off_c, 0, 66, 64
1, 68215, Note_off_c, 0, 49, 65
1, 68237, Note_off_c, 0, 64, 63
1, 68243, Note_off_c, 0, 67, 0
1, 68266, Note_on_c, 0, 67, 23
1, 68267, Note_on_c, 0, 62, 59
1, 68329, Note_off_c, 0, 62, 58
1, 68347, Note_on_c, 0, 45, 58
1, 68359, Note_on_c, 0, 61, 56
1, 68380, Note_off_c, 0, 45, 64
1, 68423, Note_on_c, 0, 59, 67
1, 68455, Note_off_c, 0, 61, 39
1, 68472, Note_off_c, 0, 59, 61
1, 68503, Note_on_c, 0, 50, 61
1, 68508, Note_on_c, 0, 57, 65
1, 68539, Note_off_c, 0, 57, 65
1, 68562, Note_off_c, 0, 50, 58
1, 68580, Note_on_c, 0, 52, 49
1, 68646, Note_off_c, 0, 52, 59
1, 68649, Control_c, 0, 64, 16
1, 68652, Note_on_c, 0, 54, 59
1, 68658, Note_on_c, 0, 62, 64
1, 68673, Note_off_c, 0, 67, 40
1, 68708, Control_c, 0, 64, 18
1, 68716, Note_off_c, 0, 54, 63
1, 68723, Control_c, 0, 64, 20
1, 68738, Control_c, 0, 64, 22
1, 68741, Note_on_c, 0, 50, 56
1, 68753, Control_c, 0, 64, 23
1, 68768, Control_c, 0, 64, 24
1, 68783, Control_c, 0, 64, 25
1, 68798, Note_on_c, 0, 66, 65
1, 68798, Control_c, 0, 64, 26
1, 68800, Note_off_c, 0, 50, 56
1, 68812, Control_c, 0, 64, 26
1, 68815, Note_on_c, 0, 49, 49
1, 68854, Note_off_c, 0, 49, 63
1, 68863, Note_off_c, 0, 66, 60
1, 68891, Note_on_c, 0, 50, 66
1, 68939, Note_off_c, 0, 50, 55
1, 68980, Note_on_c, 0, 47, 60
1, 69030, Note_off_c, 0, 47, 59
1, 69046, Note_on_c, 0, 48, 66
1, 69096, Note_off_c, 0, 48, 64
1, 69134, Note_on_c, 0, 50, 64
1, 69143, Note_on_c, 0, 66, 69
1, 69176, Note_off_c, 0, 66, 63
1, 69193, Note_off_c, 0, 50, 55
1, 69215, Note_on_c, 0, 47, 53
1, 69276, Note_off_c, 0, 47, 59
1, 69304, Note_on_c, 0, 45, 58
1, 69310, Note_on_c, 0, 72, 76
1, 69357, Note_off_c, 0, 45, 61
1, 69357, Note_off_c, 0, 72, 60
1, 69386, Note_on_c, 0, 47, 63
1, 69442, Note_off_c, 0, 47, 54
1, 69465, Note_on_c, 0, 71, 85
1, 69468, Note_on_c, 0, 43, 62
1, 69502, Note_off_c, 0, 62, 49
1, 69537, Note_off_c, 0, 43, 51
1, 69558, Note_on_c, 0, 45, 63
1, 69625, Note_off_c, 0, 45, 62
1, 69629, Note_on_c, 0, 47, 70
1, 69630, Note_on_c, 0, 67, 74
1, 69688, Note_off_c, 0, 47, 62
1, 69704, Note_on_c, 0, 66, 75
1, 69711, Note_on_c, 0, 45, 66
1, 69725, Note_off_c, 0, 67, 54
1, 69783, Note_off_c, 0, 45, 63
1, 69784, Note_on_c, 0, 64, 73
1, 69787, Note_on_c, 0, 43, 66
1, 69820, Note_off_c, 0, 66, 58
1, 69860, Note_off_c, 0, 43, 57
1, 69862, Note_off_c, 0, 64, 60
1, 69867, Note_on_c, 0, 42, 65
1, 69867, Note_on_c, 0, 62, 72
1, 69916, Note_off_c, 0, 71, 50
1, 69933, Note_on_c, 0, 67, 75
1, 69943, Note_off_c, 0, 62, 63
1, 69944, Note_off_c, 0, 42, 62
1, 69959, Note_on_c, 0, 40, 61
1, 69970, Note_off_c, 0, 67, 64
1, 70056, Note_off_c, 0, 40, 62
1, 70056, Note_on_c, 0, 42, 69
1, 70103, Note_off_c, 0, 42, 62
1, 70109, Note_on_c, 0, 73, 82
1, 70119, Note_on_c, 0, 64, 62
1, 70124, Note_on_c, 0, 43, 70
1, 70151, Note_off_c, 0, 64, 66
1, 70182, Note_off_c, 0, 73, 59
1, 70193, Note_off_c, 0, 43, 57
1, 70211, Note_on_c, 0, 42, 69
1, 70268, Note_off_c, 0, 42, 63
1, 70280, Note_on_c, 0, 40, 61
1, 70284, Note_on_c, 0, 74, 88
1, 70285, Note_on_c, 0, 66, 71
1, 70375, Note_off_c, 0, 40, 63
1, 70382, Note_on_c, 0, 38, 68
1, 70479, Note_on_c, 0, 45, 80
1, 70495, Note_off_c, 0, 38, 61
1, 70527, Note_off_c, 0, 74, 60
1, 70603, Note_off_c, 0, 66, 60
1, 70656, Note_on_c, 0, 71, 76
1, 70670, Note_on_c, 0, 62, 58
1, 70699, Note_off_c, 0, 62, 64
1, 70706, Note_off_c, 0, 71, 60
1, 70848, Note_on_c, 0, 73, 94
1, 70857, Note_on_c, 0, 64, 74
1, 70890, Note_off_c, 0, 64, 59
1, 70905, Note_off_c, 0, 73, 64
1, 71028, Note_on_c, 0, 76, 101
1, 71041, Note_on_c, 0, 67, 76
1, 71115, Note_off_c, 0, 45, 61
1, 71127, Note_on_c, 0, 44, 67
1, 71133, Control_c, 0, 64, 27
1, 71177, Control_c, 0, 64, 28
1, 71192, Control_c, 0, 64, 28
1, 71203, Note_on_c, 0, 46, 76
1, 71207, Control_c, 0, 64, 29
1, 71210, Note_off_c, 0, 44, 62
1, 71222, Control_c, 0, 64, 29
1, 71236, Control_c, 0, 64, 30
1, 71268, Note_off_c, 0, 46, 64
1, 71281, Control_c, 0, 64, 30
1, 71286, Note_on_c, 0, 47, 77
1, 71356, Note_off_c, 0, 67, 55
1, 71371, Note_on_c, 0, 49, 77
1, 71372, Note_off_c, 0, 47, 62
1, 71406, Note_off_c, 0, 76, 60
1, 71440, Note_off_c, 0, 49, 63
1, 71457, Note_on_c, 0, 46, 75
1, 71534, Note_on_c, 0, 47, 86
1, 71587, Note_off_c, 0, 46, 59
1, 71705, Note_on_c, 0, 73, 94
1, 71713, Note_on_c, 0, 64, 82
1, 71740, Note_off_c, 0, 64, 64
1, 71760, Note_off_c, 0, 73, 64
1, 71866, Note_on_c, 0, 74, 99
1, 71881, Note_on_c, 0, 66, 84
1, 71914, Note_off_c, 0, 66, 59
1, 71928, Note_off_c, 0, 74, 64
1, 72083, Note_on_c, 0, 79, 99
1, 72097, Note_on_c, 0, 71, 83
1, 72187, Note_off_c, 0, 47, 63
1, 72196, Note_on_c, 0, 45, 69
1, 72293, Note_on_c, 0, 47, 71
1, 72305, Note_off_c, 0, 45, 60
1, 72319, Control_c, 0, 64, 30
1, 72347, Note_off_c, 0, 47, 63
1, 72357, Note_on_c, 0, 50, 72
1, 72443, Note_on_c, 0, 49, 77
1, 72456, Note_off_c, 0, 50, 57
1, 72479, Note_off_c, 0, 71, 56
1, 72518, Note_off_c, 0, 49, 62
1, 72541, Note_off_c, 0, 79, 63
1, 72542, Note_on_c, 0, 52, 84
1, 72607, Note_off_c, 0, 52, 56
1, 72624, Note_on_c, 0, 50, 83
1, 72783, Note_on_c, 0, 78, 93
1, 72801, Note_on_c, 0, 69, 79
1, 72834, Note_off_c, 0, 69, 63
1, 72845, Note_off_c, 0, 78, 64
1, 72973, Note_on_c, 0, 76, 97
1, 72978, Note_on_c, 0, 67, 78
1, 73006, Note_off_c, 0, 67, 64
1, 73047, Note_off_c, 0, 76, 60
1, 73141, Note_on_c, 0, 78, 100
1, 73153, Note_on_c, 0, 69, 81
1, 73236, Note_on_c, 0, 52, 70
1, 73236, Note_off_c, 0, 50, 60
1, 73294, Note_off_c, 0, 52, 64
1, 73316, Note_on_c, 0, 50, 73
1, 73374, Note_off_c, 0, 50, 55
1, 73403, Note_on_c, 0, 48, 68
1, 73480, Note_off_c, 0, 48, 61
1, 73483, Note_on_c, 0, 47, 67
1, 73561, Note_off_c, 0, 47, 62
1, 73572, Note_off_c, 0, 69, 46
1, 73576, Note_on_c, 0, 45, 58
1, 73606, Note_off_c, 0, 78, 57
1, 73640, Note_on_c, 0, 43, 62
1, 73640, Note_off_c, 0, 45, 63
1, 73734, Note_on_c, 0, 50, 68
1, 73743, Note_off_c, 0, 43, 59
1, 73772, Note_off_c, 0, 50, 64
1, 73810, Note_on_c, 0, 52, 72
1, 73829, Note_on_c, 0, 76, 81
1, 73839, Note_on_c, 0, 67, 71
1, 73865, Note_off_c, 0, 52, 58
1, 73873, Note_off_c, 0, 67, 63
1, 73890, Note_on_c, 0, 54, 77
1, 73892, Note_off_c, 0, 76, 62
1, 73976, Note_on_c, 0, 55, 80
1, 73986, Note_off_c, 0, 54, 63
1, 73987, Note_on_c, 0, 74, 90
1, 73999, Note_on_c, 0, 66, 77
1, 74042, Note_off_c, 0, 55, 63
1, 74057, Note_off_c, 0, 74, 61
1, 74065, Note_on_c, 0, 57, 78
1, 74066, Note_off_c, 0, 66, 58
1, 74160, Note_on_c, 0, 58, 82
1, 74160, Note_on_c, 0, 76, 98
1, 74173, Note_on_c, 0, 67, 78
1, 74173, Note_off_c, 0, 57, 64
1, 74203, Note_off_c, 0, 67, 60
1, 74219, Note_off_c, 0, 76, 63
1, 74247, Control_c, 0, 64, 29
1, 74339, Note_on_c, 0, 73, 89
1, 74352, Note_on_c, 0, 64, 74
1, 74378, Note_off_c, 0, 64, 69
1, 74392, Note_off_c, 0, 73, 62
1, 74417, Control_c, 0, 64, 29
1, 74512, Note_on_c, 0, 74, 86
1, 74519, Note_on_c, 0, 66, 77
1, 74535, Control_c, 0, 64, 28
1, 74551, Note_off_c, 0, 66, 63
1, 74554, Note_off_c, 0, 74, 62
1, 74565, Control_c, 0, 64, 28
1, 74639, Control_c, 0, 64, 27
1, 74669, Note_on_c, 0, 74, 67
1, 74684, Note_on_c, 0, 64, 67
1, 74700, Note_off_c, 0, 74, 64
1, 74705, Note_on_c, 0, 73, 73
1, 74715, Note_off_c, 0, 58, 61
1, 74742, Note_on_c, 0, 57, 56
1, 74742, Control_c, 0, 64, 26
1, 74755, Note_off_c, 0, 73, 62
1, 74765, Note_on_c, 0, 74, 69
1, 74794, Note_off_c, 0, 57, 57
1, 74810, Note_on_c, 0, 73, 61
1, 74826, Note_on_c, 0, 58, 57
1, 74829, Note_off_c, 0, 74, 0
1, 74846, Note_on_c, 0, 74, 51
1, 74869, Note_off_c, 0, 58, 62
1, 74876, Note_off_c, 0, 73, 0
1, 74891, Note_on_c, 0, 73, 46
1, 74900, Note_on_c, 0, 55, 57
1, 74911, Note_off_c, 0, 74, 57
1, 74948, Note_off_c, 0, 73, 65
1, 74960, Note_off_c, 0, 55, 63
1, 74991, Note_on_c, 0, 52, 57
1, 75057, Note_off_c, 0, 64, 43
1, 75081, Note_off_c, 0, 52, 59
1, 75092, Note_on_c, 0, 55, 54
1, 75144, Note_off_c, 0, 55, 64
1, 75148, Note_on_c, 0, 65, 64
1, 75175, Note_on_c, 0, 57, 60
1, 75196, Note_off_c, 0, 65, 60
1, 75222, Note_off_c, 0, 57, 57
1, 75239, Note_on_c, 0, 64, 60
1, 75257, Note_on_c, 0, 55, 60
1, 75296, Note_off_c, 0, 55, 66
1, 75310, Note_off_c, 0, 64, 51
1, 75319, Note_on_c, 0, 65, 59
1, 75330, Note_on_c, 0, 57, 59
1, 75356, Note_off_c, 0, 65, 62
1, 75369, Note_off_c, 0, 57, 59
1, 75395, Note_on_c, 0, 62, 57
1, 75397, Note_on_c, 0, 53, 61
1, 75448, Note_off_c, 0, 62, 53
1, 75450, Note_off_c, 0, 53, 62
1, 75479, Note_on_c, 0, 50, 55
1, 75486, Note_on_c, 0, 69, 66
1, 75543, Note_off_c, 0, 50, 55
1, 75543, Note_off_c, 0, 69, 59
1, 75575, Note_on_c, 0, 53, 50
1, 75576, Note_on_c, 0, 65, 57
1, 75636, Note_off_c, 0, 53, 63
1, 75657, Note_on_c, 0, 70, 72
1, 75666, Note_on_c, 0, 55, 56
1, 75728, Note_off_c, 0, 55, 57
1, 75752, Note_on_c, 0, 53, 63
1, 75806, Note_off_c, 0, 53, 61
1, 75839, Note_on_c, 0, 55, 65
1, 75841, Note_on_c, 0, 64, 60
1, 75854, Control_c, 0, 64, 27
1, 75861, Note_off_c, 0, 65, 39
1, 75880, Note_off_c, 0, 64, 60
1, 75891, Note_off_c, 0, 55, 60
1, 75907, Note_on_c, 0, 52, 57
1, 75979, Note_off_c, 0, 52, 64
1, 76002, Note_on_c, 0, 49, 58
1, 76012, Note_on_c, 0, 67, 68
1, 76014, Note_off_c, 0, 70, 61
1, 76070, Note_off_c, 0, 49, 60
1, 76095, Note_on_c, 0, 52, 45
1, 76132, Note_off_c, 0, 52, 64
1, 76166, Note_on_c, 0, 53, 61
1, 76168, Note_on_c, 0, 69, 86
1, 76213, Note_off_c, 0, 53, 58
1, 76242, Note_on_c, 0, 52, 62
1, 76281, Note_off_c, 0, 67, 54
1, 76314, Note_off_c, 0, 52, 63
1, 76330, Note_on_c, 0, 53, 68
1, 76342, Note_on_c, 0, 61, 64
1, 76378, Note_off_c, 0, 61, 63
1, 76382, Note_off_c, 0, 53, 57
1, 76415, Note_on_c, 0, 50, 64
1, 76485, Note_off_c, 0, 50, 63
1, 76515, Note_on_c, 0, 47, 58
1, 76521, Note_on_c, 0, 62, 78
1, 76527, Note_off_c, 0, 69, 61
1, 76596, Note_on_c, 0, 50, 56
1, 76597, Note_off_c, 0, 47, 53
1, 76651, Note_off_c, 0, 50, 63
1, 76683, Note_on_c, 0, 52, 64
1, 76688, Note_on_c, 0, 67, 94
1, 76746, Note_off_c, 0, 52, 58
1, 76765, Note_on_c, 0, 50, 66
1, 76821, Note_off_c, 0, 50, 60
1, 76843, Note_on_c, 0, 52, 71
1, 76862, Note_on_c, 0, 61, 73
1, 76893, Note_off_c, 0, 62, 53
1, 76906, Note_off_c, 0, 52, 52
1, 76922, Note_off_c, 0, 61, 61
1, 76923, Note_on_c, 0, 49, 67
1, 76990, Note_off_c, 0, 49, 63
1, 77015, Note_on_c, 0, 45, 62
1, 77029, Note_off_c, 0, 67, 46
1, 77031, Note_on_c, 0, 64, 85
1, 77104, Note_on_c, 0, 49, 65
1, 77109, Note_off_c, 0, 45, 61
1, 77171, Note_off_c, 0, 49, 64
1, 77189, Note_on_c, 0, 65, 92
1, 77191, Note_on_c, 0, 50, 71
1, 77238, Note_off_c, 0, 50, 59
1, 77293, Note_on_c, 0, 49, 64
1, 77323, Note_off_c, 0, 64, 28
1, 77357, Note_off_c, 0, 49, 60
1, 77362, Note_on_c, 0, 50, 71
1, 77385, Note_on_c, 0, 57, 70
1, 77419, Note_off_c, 0, 50, 62
1, 77427, Note_off_c, 0, 57, 59
1, 77461, Note_on_c, 0, 53, 69
1, 77504, Note_off_c, 0, 53, 58
1, 77540, Note_on_c, 0, 47, 61
1, 77570, Note_on_c, 0, 62, 70
1, 77578, Note_off_c, 0, 47, 63
1, 77624, Note_on_c, 0, 50, 67
1, 77662, Note_off_c, 0, 65, 22
1, 77675, Note_off_c, 0, 50, 59
1, 77719, Note_on_c, 0, 44, 58
1, 77720, Note_on_c, 0, 59, 73
1, 77727, Note_off_c, 0, 62, 61
1, 77771, Note_off_c, 0, 59, 59
1, 77782, Note_off_c, 0, 44, 61
1, 77787, Note_on_c, 0, 64, 62
1, 77812, Note_on_c, 0, 45, 61
1, 77852, Note_off_c, 0, 45, 62
1, 77861, Note_on_c, 0, 62, 65
1, 77868, Note_off_c, 0, 64, 60
1, 77878, Note_on_c, 0, 44, 59
1, 77912, Note_off_c, 0, 44, 64
1, 77926, Note_off_c, 0, 62, 58
1, 77931, Note_on_c, 0, 45, 71
1, 77947, Note_on_c, 0, 61, 68
1, 77978, Note_off_c, 0, 45, 62
1, 77988, Note_on_c, 0, 44, 73
1, 78015, Note_off_c, 0, 61, 62
1, 78030, Note_off_c, 0, 44, 61
1, 78048, Note_on_c, 0, 62, 75
1, 78068, Note_on_c, 0, 45, 76
1, 78116, Note_off_c, 0, 45, 60
1, 78125, Note_off_c, 0, 62, 58
1, 78130, Note_on_c, 0, 44, 72
1, 78140, Note_on_c, 0, 65, 80
1, 78168, Note_off_c, 0, 44, 64
1, 78189, Note_on_c, 0, 45, 75
1, 78217, Note_on_c, 0, 71, 92
1, 78222, Note_off_c, 0, 65, 65
1, 78239, Note_off_c, 0, 45, 58
1, 78256, Note_on_c, 0, 44, 75
1, 78297, Note_off_c, 0, 44, 62
1, 78308, Note_on_c, 0, 65, 80
1, 78318, Note_on_c, 0, 45, 73
1, 78347, Note_off_c, 0, 71, 59
1, 78366, Note_off_c, 0, 45, 58
1, 78384, Note_on_c, 0, 44, 70
1, 78394, Note_on_c, 0, 64, 83
1, 78402, Note_off_c, 0, 65, 62
1, 78426, Note_off_c, 0, 44, 64
1, 78448, Note_on_c, 0, 45, 76
1, 78451, Note_off_c, 0, 64, 63
1, 78476, Note_on_c, 0, 62, 80
1, 78503, Note_off_c, 0, 45, 60
1, 78509, Note_on_c, 0, 44, 73
1, 78553, Note_off_c, 0, 44, 62
1, 78560, Note_on_c, 0, 61, 80
1, 78574, Note_off_c, 0, 62, 60
1, 78575, Note_on_c, 0, 45, 70
1, 78630, Note_off_c, 0, 45, 60
1, 78638, Note_on_c, 0, 59, 85
1, 78639, Note_on_c, 0, 44, 67
1, 78644, Note_off_c, 0, 61, 62
1, 78703, Note_off_c, 0, 44, 61
1, 78721, Note_on_c, 0, 61, 88
1, 78730, Note_on_c, 0, 45, 78
1, 78746, Note_off_c, 0, 59, 61
1, 78801, Note_off_c, 0, 61, 65
1, 78823, Note_on_c, 0, 57, 84
1, 78913, Note_on_c, 0, 55, 87
1, 78925, Note_off_c, 0, 57, 65
1, 78977, Note_off_c, 0, 45, 58
1, 78992, Note_on_c, 0, 54, 85
1, 79019, Note_off_c, 0, 55, 62
1, 79079, Note_on_c, 0, 52, 85
1, 79102, Note_off_c, 0, 54, 62
1, 79146, Note_off_c, 0, 52, 65
1, 79150, Note_on_c, 0, 50, 86
1, 79232, Note_on_c, 0, 49, 91
1, 79250, Note_off_c, 0, 50, 65
1, 79258, Note_on_c, 0, 51, 58
1, 79284, Note_off_c, 0, 51, 58
1, 79329, Note_on_c, 0, 47, 84
1, 79338, Control_c, 0, 64, 26
1, 79344, Note_off_c, 0, 49, 60
1, 79353, Control_c, 0, 64, 23
1, 79401, Note_off_c, 0, 47, 63
1, 79403, Note_on_c, 0, 45, 85
1, 79413, Control_c, 0, 64, 22
1, 79490, Note_on_c, 0, 43, 81
1, 79501, Note_off_c, 0, 45, 64
1, 79570, Note_on_c, 0, 42, 85
1, 79584, Note_off_c, 0, 43, 64
1, 79671, Note_on_c, 0, 40, 78
1, 79695, Note_off_c, 0, 42, 63
1, 79773, Note_on_c, 0, 38, 84
1, 79791, Control_c, 0, 64, 21
1, 79802, Note_off_c, 0, 40, 63
1, 79806, Control_c, 0, 64, 20
1, 79821, Control_c, 0, 64, 18
1, 79836, Control_c, 0, 64, 15
1, 79851, Control_c, 0, 64, 10
1, 79866, Control_c, 0, 64, 0
1, 80003, Note_on_c, 0, 50, 76
1, 80061, Note_off_c, 0, 50, 64
1, 80070, Note_on_c, 0, 52, 75
1, 80150, Note_off_c, 0, 38, 57
1, 80152, Note_on_c, 0, 54, 79
1, 80162, Note_off_c, 0, 52, 61
1, 80231, Note_on_c, 0, 55, 74
1, 80247, Note_off_c, 0, 54, 65
1, 80328, Note_on_c, 0, 57, 76
1, 80340, Note_off_c, 0, 55, 64
1, 80376, Note_off_c, 0, 57, 63
1, 80509, Note_on_c, 0, 54, 74
1, 80542, Note_off_c, 0, 54, 65
1, 80676, Note_on_c, 0, 57, 74
1, 80704, Note_off_c, 0, 57, 68
1, 80829, Note_on_c, 0, 62, 86
1, 80874, Note_off_c, 0, 62, 62
1, 80941, Control_c, 0, 64, 8
1, 80970, Control_c, 0, 64, 10
1, 80985, Control_c, 0, 64, 12
1, 80994, Note_on_c, 0, 57, 85
1, 81037, Control_c, 0, 64, 14
1, 81050, Note_off_c, 0, 57, 64
1, 81052, Control_c, 0, 64, 15
1, 81067, Control_c, 0, 64, 16
1, 81111, Control_c, 0, 64, 17
1, 81156, Note_on_c, 0, 62, 92
1, 81204, Note_off_c, 0, 62, 63
1, 81323, Note_on_c, 0, 66, 93
1, 81380, Note_off_c, 0, 66, 64
1, 81479, Note_on_c, 0, 62, 89
1, 81525, Note_off_c, 0, 62, 65
1, 81630, Control_c, 0, 64, 18
1, 81642, Note_on_c, 0, 66, 81
1, 81702, Note_off_c, 0, 66, 61
1, 81704, Control_c, 0, 64, 19
1, 81848, Note_on_c, 0, 69, 94
1, 81979, Control_c, 0, 64, 23
1, 81993, Control_c, 0, 64, 37
1, 82008, Control_c, 0, 64, 51
1, 82023, Control_c, 0, 64, 61
1, 82039, Control_c, 0, 64, 69
1, 82042, Note_off_c, 0, 69, 63
1, 82054, Control_c, 0, 64, 80
1, 82069, Control_c, 0, 64, 110
1, 82083, Control_c, 0, 64, 127
1, 82320, Control_c, 0, 64, 109
1, 82334, Control_c, 0, 64, 93
1, 82349, Control_c, 0, 64, 86
1, 82364, Control_c, 0, 64, 82
1, 82379, Control_c, 0, 64, 81
1, 82394, Control_c, 0, 64, 78
1, 82408, Control_c, 0, 64, 71
1, 82412, Note_on_c, 0, 78, 95
1, 82423, Note_on_c, 0, 69, 79
1, 82423, Control_c, 0, 64, 61
1, 82431, Note_on_c, 0, 50, 58
1, 82438, Control_c, 0, 64, 0
1, 82564, Control_c, 0, 64, 52
1, 82579, Control_c, 0, 64, 62
1, 82594, Control_c, 0, 64, 66
1, 82608, Control_c, 0, 64, 69
1, 82623, Control_c, 0, 64, 73
1, 82638, Control_c, 0, 64, 80
1, 82653, Control_c, 0, 64, 90
1, 82658, Note_off_c, 0, 69, 61
1, 82662, Note_off_c, 0, 78, 60
1, 82668, Control_c, 0, 64, 100
1, 82683, Control_c, 0, 64, 107
1, 82698, Control_c, 0, 64, 108
1, 82712, Control_c, 0, 64, 109
1, 82727, Control_c, 0, 64, 109
1, 82754, Note_off_c, 0, 50, 33
1, 82802, Control_c, 0, 64, 109
1, 82816, Control_c, 0, 64, 108
1, 82832, Control_c, 0, 64, 106
1, 82847, Control_c, 0, 64, 104
1, 82861, Control_c, 0, 64, 102
1, 82876, Control_c, 0, 64, 99
1, 82891, Control_c, 0, 64, 98
1, 82906, Control_c, 0, 64, 96
1, 82921, Control_c, 0, 64, 94
1, 82936, Control_c, 0, 64, 91
1, 82951, Control_c, 0, 64, 88
1, 82954, Note_on_c, 0, 78, 95
1, 82960, Note_on_c, 0, 69, 80
1, 82963, Note_on_c, 0, 57, 68
1, 82965, Control_c, 0, 64, 83
1, 82980, Control_c, 0, 64, 78
1, 82994, Control_c, 0, 64, 71
1, 83009, Control_c, 0, 64, 64
1, 83024, Control_c, 0, 64, 53
1, 83038, Control_c, 0, 64, 29
1, 83053, Control_c, 0, 64, 0
1, 83174, Note_off_c, 0, 78, 61
1, 83216, Note_on_c, 0, 76, 83
1, 83225, Note_on_c, 0, 67, 58
1, 83239, Note_off_c, 0, 69, 61
1, 83276, Control_c, 0, 64, 24
1, 83298, Control_c, 0, 64, 47
1, 83312, Control_c, 0, 64, 57
1, 83327, Control_c, 0, 64, 61
1, 83334, Note_off_c, 0, 76, 64
1, 83342, Control_c, 0, 64, 65
1, 83357, Control_c, 0, 64, 70
1, 83371, Control_c, 0, 64, 79
1, 83375, Note_off_c, 0, 67, 61
1, 83386, Control_c, 0, 64, 92
1, 83401, Control_c, 0, 64, 107
1, 83416, Control_c, 0, 64, 121
1, 83446, Control_c, 0, 64, 114
1, 83460, Note_off_c, 0, 57, 56
1, 83461, Control_c, 0, 64, 107
1, 83476, Control_c, 0, 64, 101
1, 83486, Note_on_c, 0, 76, 90
1, 83487, Note_on_c, 0, 45, 61
1, 83490, Note_on_c, 0, 67, 79
1, 83490, Control_c, 0, 64, 95
1, 83505, Control_c, 0, 64, 87
1, 83520, Control_c, 0, 64, 74
1, 83535, Control_c, 0, 64, 63
1, 83550, Control_c, 0, 64, 42
1, 83564, Control_c, 0, 64, 0
1, 83624, Control_c, 0, 64, 20
1, 83640, Control_c, 0, 64, 25
1, 83654, Control_c, 0, 64, 26
1, 83699, Control_c, 0, 64, 25
1, 83708, Note_off_c, 0, 76, 58
1, 83752, Note_on_c, 0, 74, 75
1, 83763, Note_on_c, 0, 66, 68
1, 83799, Note_off_c, 0, 67, 61
1, 83848, Control_c, 0, 64, 24
1, 83862, Control_c, 0, 64, 22
1, 83892, Control_c, 0, 64, 21
1, 83907, Control_c, 0, 64, 16
1, 83922, Control_c, 0, 64, 0
1, 83934, Note_off_c, 0, 74, 56
1, 83950, Note_off_c, 0, 66, 60
1, 84025, Control_c, 0, 64, 39
1, 84035, Note_on_c, 0, 74, 80
1, 84036, Note_off_c, 0, 45, 62
1, 84039, Note_on_c, 0, 50, 60
1, 84043, Note_on_c, 0, 66, 74
1, 84048, Control_c, 0, 64, 55
1, 84062, Control_c, 0, 64, 64
1, 84077, Note_off_c, 0, 74, 63
1, 84077, Control_c, 0, 64, 73
1, 84092, Note_off_c, 0, 66, 62
1, 84092, Control_c, 0, 64, 88
1, 84107, Control_c, 0, 64, 127
1, 84175, Note_off_c, 0, 50, 62
1, 84240, Control_c, 0, 64, 97
1, 84255, Control_c, 0, 64, 76
1, 84269, Control_c, 0, 64, 59
1, 84284, Control_c, 0, 64, 12
1, 84299, Control_c, 0, 64, 0
1, 84304, Note_on_c, 0, 62, 55
1, 84340, Note_off_c, 0, 62, 63
1, 84365, Note_on_c, 0, 64, 65
1, 84424, Note_off_c, 0, 64, 52
1, 84445, Note_on_c, 0, 66, 63
1, 84504, Note_off_c, 0, 66, 59
1, 84514, Note_on_c, 0, 67, 65
1, 84586, Note_on_c, 0, 69, 77
1, 84587, Note_off_c, 0, 67, 64
1, 84614, Note_off_c, 0, 69, 65
1, 84763, Note_on_c, 0, 66, 77
1, 84786, Note_on_c, 0, 60, 67
1, 84803, Note_off_c, 0, 66, 63
1, 84846, Note_on_c, 0, 59, 74
1, 84853, Note_off_c, 0, 60, 64
1, 84918, Note_on_c, 0, 57, 80
1, 84929, Note_on_c, 0, 69, 87
1, 84932, Note_off_c, 0, 59, 62
1, 84977, Note_off_c, 0, 69, 65
1, 85012, Note_off_c, 0, 57, 65
1, 85017, Note_on_c, 0, 55, 72
1, 85085, Note_on_c, 0, 72, 96
1, 85090, Note_on_c, 0, 54, 78
1, 85104, Note_off_c, 0, 55, 65
1, 85135, Note_off_c, 0, 54, 63
1, 85136, Note_off_c, 0, 72, 66
1, 85258, Note_on_c, 0, 69, 96
1, 85258, Note_on_c, 0, 57, 81
1, 85299, Note_off_c, 0, 57, 62
1, 85310, Note_off_c, 0, 69, 66
1, 85416, Note_on_c, 0, 72, 103
1, 85419, Note_on_c, 0, 54, 81
1, 85453, Note_off_c, 0, 54, 63
1, 85464, Note_off_c, 0, 72, 65
1, 85588, Note_on_c, 0, 50, 75
1, 85588, Note_on_c, 0, 78, 100
1, 85630, Note_off_c, 0, 50, 60
1, 85652, Note_off_c, 0, 78, 64
1, 85752, Note_on_c, 0, 54, 79
1, 85756, Note_on_c, 0, 72, 97
1, 85789, Note_off_c, 0, 54, 63
1, 85799, Note_off_c, 0, 72, 66
1, 85915, Note_on_c, 0, 50, 70
1, 85917, Note_on_c, 0, 78, 93
1, 85950, Note_off_c, 0, 50, 68
1, 85980, Note_off_c, 0, 78, 64
1, 86084, Note_on_c, 0, 81, 96
1, 86090, Note_on_c, 0, 45, 73
1, 86145, Note_off_c, 0, 45, 61
1, 86292, Note_on_c, 0, 50, 81
1, 86312, Note_off_c, 0, 81, 61
1, 86323, Note_off_c, 0, 50, 67
1, 86450, Note_on_c, 0, 45, 77
1, 86482, Note_off_c, 0, 45, 67
1, 86625, Note_on_c, 0, 74, 85
1, 86630, Note_on_c, 0, 69, 77
1, 86673, Note_on_c, 0, 72, 78
1, 86674, Note_off_c, 0, 74, 63
1, 86732, Note_off_c, 0, 72, 63
1, 86737, Note_on_c, 0, 74, 73
1, 86766, Note_on_c, 0, 45, 63
1, 86779, Note_on_c, 0, 72, 72
1, 86806, Note_off_c, 0, 74, 61
1, 86823, Note_off_c, 0, 45, 59
1, 86950, Note_on_c, 0, 42, 72
1, 86986, Note_off_c, 0, 72, 51
1, 86987, Note_off_c, 0, 42, 65
1, 87011, Note_off_c, 0, 69, 61
1, 87154, Note_on_c, 0, 38, 56
1, 87169, Note_on_c, 0, 72, 67
1, 87181, Note_on_c, 0, 69, 46
1, 87410, Note_on_c, 0, 67, 74
1, 87413, Note_on_c, 0, 71, 83
1, 87442, Note_off_c, 0, 72, 61
1, 87448, Note_off_c, 0, 69, 60
1, 87486, Control_c, 0, 64, 16
1, 87501, Control_c, 0, 64, 30
1, 87516, Control_c, 0, 64, 38
1, 87530, Control_c, 0, 64, 44
1, 87545, Control_c, 0, 64, 49
1, 87560, Control_c, 0, 64, 52
1, 87575, Control_c, 0, 64, 54
1, 87587, Note_off_c, 0, 71, 65
1, 87590, Control_c, 0, 64, 55
1, 87604, Control_c, 0, 64, 55
1, 87632, Note_off_c, 0, 67, 61
1, 87650, Control_c, 0, 64, 55
1, 87665, Control_c, 0, 64, 54
1, 87680, Control_c, 0, 64, 53
1, 87682, Note_off_c, 0, 38, 60
1, 87695, Note_on_c, 0, 71, 75
1, 87695, Control_c, 0, 64, 52
1, 87703, Note_on_c, 0, 50, 60
1, 87704, Note_on_c, 0, 67, 67
1, 87709, Control_c, 0, 64, 51
1, 87724, Control_c, 0, 64, 49
1, 87739, Control_c, 0, 64, 48
1, 87753, Control_c, 0, 64, 48
1, 87768, Control_c, 0, 64, 47
1, 87791, Control_c, 0, 64, 46
1, 87806, Control_c, 0, 64, 46
1, 87835, Control_c, 0, 64, 45
1, 87865, Control_c, 0, 64, 45
1, 87924, Note_off_c, 0, 67, 62
1, 87924, Control_c, 0, 64, 44
1, 87963, Note_off_c, 0, 71, 57
1, 87966, Note_on_c, 0, 66, 68
1, 87971, Note_on_c, 0, 69, 70
1, 88057, Control_c, 0, 64, 44
1, 88087, Control_c, 0, 64, 43
1, 88102, Control_c, 0, 64, 42
1, 88112, Note_off_c, 0, 50, 57
1, 88117, Control_c, 0, 64, 41
1, 88132, Control_c, 0, 64, 39
1, 88146, Control_c, 0, 64, 35
1, 88161, Control_c, 0, 64, 30
1, 88176, Control_c, 0, 64, 20
1, 88191, Control_c, 0, 64, 0
1, 88210, Note_off_c, 0, 66, 35
1, 88221, Note_on_c, 0, 43, 68
1, 88229, Note_off_c, 0, 69, 56
1, 88235, Control_c, 0, 64, 32
1, 88238, Note_on_c, 0, 71, 73
1, 88244, Note_on_c, 0, 67, 74
1, 88250, Control_c, 0, 64, 51
1, 88265, Control_c, 0, 64, 62
1, 88274, Note_off_c, 0, 67, 63
1, 88277, Note_off_c, 0, 71, 63
1, 88280, Control_c, 0, 64, 69
1, 88295, Control_c, 0, 64, 80
1, 88309, Control_c, 0, 64, 112
1, 88324, Control_c, 0, 64, 127
1, 88429, Control_c, 0, 64, 123
1, 88433, Note_on_c, 0, 83, 103
1, 88443, Control_c, 0, 64, 95
1, 88458, Control_c, 0, 64, 76
1, 88473, Control_c, 0, 64, 65
1, 88488, Control_c, 0, 64, 52
1, 88503, Control_c, 0, 64, 36
1, 88518, Control_c, 0, 64, 29
1, 88526, Note_on_c, 0, 81, 84
1, 88540, Control_c, 0, 64, 27
1, 88555, Control_c, 0, 64, 26
1, 88570, Control_c, 0, 64, 25
1, 88580, Note_off_c, 0, 83, 61
1, 88584, Control_c, 0, 64, 20
1, 88585, Note_on_c, 0, 50, 75
1, 88591, Note_off_c, 0, 43, 62
1, 88599, Control_c, 0, 64, 12
1, 88609, Note_on_c, 0, 79, 89
1, 88614, Control_c, 0, 64, 0
1, 88621, Note_off_c, 0, 50, 65
1, 88649, Note_off_c, 0, 81, 66
1, 88680, Note_on_c, 0, 78, 95
1, 88702, Note_off_c, 0, 79, 65
1, 88761, Note_on_c, 0, 76, 93
1, 88765, Note_on_c, 0, 55, 86
1, 88766, Note_off_c, 0, 78, 63
1, 88815, Note_off_c, 0, 76, 65
1, 88918, Note_off_c, 0, 55, 61
1, 88923, Note_on_c, 0, 79, 87
1, 88977, Note_off_c, 0, 79, 66
1, 89088, Note_on_c, 0, 55, 74
1, 89096, Note_on_c, 0, 76, 80
1, 89120, Note_off_c, 0, 55, 66
1, 89134, Note_off_c, 0, 76, 64
1, 89253, Note_on_c, 0, 55, 72
1, 89261, Note_on_c, 0, 73, 80
1, 89290, Note_off_c, 0, 73, 71
1, 89311, Note_off_c, 0, 55, 63
1, 89312, Note_on_c, 0, 54, 67
1, 89351, Note_off_c, 0, 54, 65
1, 89354, Note_on_c, 0, 55, 64
1, 89452, Control_c, 0, 64, 8
1, 89481, Control_c, 0, 64, 10
1, 89491, Note_on_c, 0, 57, 70
1, 89496, Control_c, 0, 64, 12
1, 89537, Note_off_c, 0, 55, 58
1, 89538, Note_off_c, 0, 57, 61
1, 89565, Note_on_c, 0, 59, 71
1, 89570, Control_c, 0, 64, 14
1, 89629, Control_c, 0, 64, 15
1, 89640, Note_off_c, 0, 59, 58
1, 89644, Note_on_c, 0, 61, 65
1, 89697, Note_off_c, 0, 61, 62
1, 89703, Control_c, 0, 64, 16
1, 89725, Note_on_c, 0, 62, 61
1, 89799, Note_on_c, 0, 64, 73
1, 89802, Note_off_c, 0, 62, 64
1, 89826, Note_off_c, 0, 64, 67
1, 89969, Note_on_c, 0, 45, 57
1, 89973, Note_on_c, 0, 61, 62
1, 90007, Note_off_c, 0, 61, 63
1, 90032, Note_off_c, 0, 45, 60
1, 90046, Note_on_c, 0, 43, 66
1, 90112, Note_off_c, 0, 43, 58
1, 90123, Note_on_c, 0, 42, 70
1, 90147, Note_on_c, 0, 64, 60
1, 90189, Note_off_c, 0, 64, 63
1, 90198, Note_off_c, 0, 42, 64
1, 90211, Note_on_c, 0, 40, 68
1, 90296, Note_on_c, 0, 42, 81
1, 90302, Note_off_c, 0, 40, 64
1, 90308, Note_on_c, 0, 69, 76
1, 90342, Note_off_c, 0, 69, 64
1, 90487, Note_on_c, 0, 81, 91
1, 90496, Control_c, 0, 64, 17
1, 90555, Control_c, 0, 64, 18
1, 90560, Note_on_c, 0, 79, 81
1, 90570, Control_c, 0, 64, 19
1, 90609, Note_off_c, 0, 42, 56
1, 90620, Note_off_c, 0, 81, 62
1, 90644, Control_c, 0, 64, 20
1, 90645, Note_on_c, 0, 78, 87
1, 90653, Note_on_c, 0, 54, 73
1, 90683, Note_off_c, 0, 79, 65
1, 90705, Note_off_c, 0, 54, 63
1, 90727, Note_on_c, 0, 76, 85
1, 90758, Note_off_c, 0, 78, 61
1, 90800, Control_c, 0, 64, 19
1, 90807, Note_off_c, 0, 76, 62
1, 90814, Note_on_c, 0, 74, 88
1, 90823, Note_on_c, 0, 54, 71
1, 90858, Note_off_c, 0, 74, 65
1, 90904, Control_c, 0, 64, 18
1, 90987, Note_off_c, 0, 54, 62
1, 90993, Note_on_c, 0, 78, 86
1, 91033, Note_off_c, 0, 78, 54
1, 91142, Note_on_c, 0, 74, 73
1, 91148, Note_on_c, 0, 54, 61
1, 91167, Note_off_c, 0, 74, 68
1, 91179, Note_off_c, 0, 54, 64
1, 91300, Note_on_c, 0, 73, 74
1, 91319, Note_on_c, 0, 54, 59
1, 91333, Note_off_c, 0, 73, 64
1, 91350, Note_on_c, 0, 71, 74
1, 91383, Note_off_c, 0, 71, 60
1, 91392, Note_on_c, 0, 73, 78
1, 91432, Note_on_c, 0, 71, 75
1, 91438, Note_off_c, 0, 73, 64
1, 91467, Note_off_c, 0, 71, 67
1, 91521, Note_on_c, 0, 55, 61
1, 91529, Note_off_c, 0, 54, 54
1, 91619, Note_on_c, 0, 57, 63
1, 91619, Note_off_c, 0, 55, 58
1, 91654, Note_off_c, 0, 57, 64
1, 91695, Note_on_c, 0, 59, 19
1, 91729, Note_on_c, 0, 60, 7
1, 91743, Note_off_c, 0, 59, 51
1, 91754, Note_on_c, 0, 61, 65
1, 91760, Note_off_c, 0, 60, 41
1, 91813, Note_off_c, 0, 61, 61
1, 91830, Note_on_c, 0, 62, 60
1, 91875, Note_off_c, 0, 62, 63
1, 92005, Note_on_c, 0, 43, 55
1, 92016, Note_on_c, 0, 59, 66
1, 92044, Note_off_c, 0, 43, 61
1, 92045, Note_off_c, 0, 59, 66
1, 92076, Note_on_c, 0, 42, 61
1, 92145, Note_off_c, 0, 42, 60
1, 92153, Note_on_c, 0, 40, 65
1, 92175, Note_on_c, 0, 62, 61
1, 92208, Note_off_c, 0, 62, 65
1, 92219, Note_off_c, 0, 40, 63
1, 92243, Note_on_c, 0, 38, 56
1, 92322, Note_off_c, 0, 38, 62
1, 92326, Note_on_c, 0, 40, 61
1, 92331, Note_on_c, 0, 67, 75
1, 92353, Note_off_c, 0, 40, 61
1, 92387, Control_c, 0, 64, 19
1, 92432, Control_c, 0, 64, 20
1, 92462, Control_c, 0, 64, 24
1, 92477, Control_c, 0, 64, 26
1, 92492, Control_c, 0, 64, 28
1, 92496, Note_off_c, 0, 67, 60
1, 92506, Control_c, 0, 64, 29
1, 92521, Control_c, 0, 64, 29
1, 92528, Note_on_c, 0, 59, 88
1, 92551, Control_c, 0, 64, 30
1, 92601, Note_on_c, 0, 57, 78
1, 92607, Note_off_c, 0, 59, 63
1, 92664, Note_on_c, 0, 55, 75
1, 92675, Note_on_c, 0, 71, 83
1, 92677, Note_off_c, 0, 57, 61
1, 92678, Note_on_c, 0, 67, 79
1, 92723, Note_off_c, 0, 71, 60
1, 92731, Note_off_c, 0, 67, 62
1, 92752, Note_on_c, 0, 54, 65
1, 92767, Note_off_c, 0, 55, 62
1, 92831, Note_on_c, 0, 52, 72
1, 92839, Note_off_c, 0, 54, 65
1, 92842, Note_on_c, 0, 71, 88
1, 92844, Note_on_c, 0, 67, 83
1, 92863, Note_off_c, 0, 52, 69
1, 92877, Control_c, 0, 64, 29
1, 92891, Control_c, 0, 64, 29
1, 92921, Control_c, 0, 64, 28
1, 92950, Control_c, 0, 64, 28
1, 93024, Note_on_c, 0, 55, 73
1, 93056, Note_off_c, 0, 55, 66
1, 93069, Note_off_c, 0, 71, 57
1, 93088, Note_off_c, 0, 67, 60
1, 93191, Note_on_c, 0, 52, 67
1, 93199, Note_on_c, 0, 71, 78
1, 93204, Note_on_c, 0, 67, 74
1, 93223, Note_off_c, 0, 52, 67
1, 93242, Note_off_c, 0, 71, 62
1, 93246, Note_off_c, 0, 67, 61
1, 93378, Note_on_c, 0, 49, 52
1, 93386, Note_on_c, 0, 70, 59
1, 93403, Note_on_c, 0, 71, 69
1, 93418, Note_on_c, 0, 69, 40
1, 93420, Note_on_c, 0, 67, 39
1, 93449, Note_off_c, 0, 69, 55
1, 93450, Note_off_c, 0, 70, 37
1, 93497, Note_off_c, 0, 49, 60
1, 93550, Note_off_c, 0, 71, 61
1, 93552, Note_on_c, 0, 69, 64
1, 93554, Note_on_c, 0, 52, 61
1, 93594, Note_off_c, 0, 52, 66
1, 93713, Control_c, 0, 64, 27
1, 93733, Note_on_c, 0, 49, 59
1, 93772, Note_off_c, 0, 49, 64
1, 93772, Note_off_c, 0, 69, 54
1, 93799, Note_off_c, 0, 67, 49
1, 93905, Note_on_c, 0, 45, 56
1, 93937, Note_off_c, 0, 45, 65
1, 94068, Note_on_c, 0, 69, 61
1, 94076, Note_on_c, 0, 49, 48
1, 94123, Note_off_c, 0, 49, 60
1, 94132, Note_off_c, 0, 69, 58
1, 94142, Note_on_c, 0, 67, 55
1, 94207, Note_off_c, 0, 67, 58
1, 94221, Note_on_c, 0, 45, 49
1, 94225, Note_on_c, 0, 66, 57
1, 94269, Note_off_c, 0, 45, 58
1, 94269, Note_off_c, 0, 66, 61
1, 94293, Note_on_c, 0, 64, 58
1, 94346, Note_off_c, 0, 64, 56
1, 94377, Note_on_c, 0, 50, 63
1, 94388, Note_on_c, 0, 66, 69
1, 94405, Note_off_c, 0, 50, 65
1, 94417, Note_off_c, 0, 66, 66
1, 94575, Note_on_c, 0, 54, 56
1, 94583, Note_on_c, 0, 62, 55
1, 94605, Note_off_c, 0, 54, 65
1, 94618, Note_off_c, 0, 62, 62
1, 94657, Note_on_c, 0, 64, 63
1, 94692, Control_c, 0, 64, 28
1, 94712, Note_off_c, 0, 64, 52
1, 94719, Note_on_c, 0, 50, 47
1, 94731, Note_on_c, 0, 66, 65
1, 94758, Note_off_c, 0, 50, 64
1, 94764, Note_off_c, 0, 66, 64
1, 94805, Note_on_c, 0, 67, 71
1, 94853, Note_off_c, 0, 67, 57
1, 94882, Note_on_c, 0, 47, 46
1, 94885, Note_on_c, 0, 69, 80
1, 94888, Note_on_c, 0, 74, 78
1, 94910, Note_off_c, 0, 47, 58
1, 95026, Note_off_c, 0, 69, 26
1, 95071, Note_on_c, 0, 50, 60
1, 95080, Note_on_c, 0, 67, 68
1, 95084, Note_off_c, 0, 74, 61
1, 95104, Note_off_c, 0, 50, 63
1, 95143, Note_off_c, 0, 67, 63
1, 95155, Note_on_c, 0, 66, 73
1, 95219, Note_on_c, 0, 47, 51
1, 95227, Note_on_c, 0, 64, 77
1, 95246, Note_off_c, 0, 66, 59
1, 95266, Note_off_c, 0, 47, 61
1, 95289, Note_off_c, 0, 64, 64
1, 95304, Note_on_c, 0, 62, 80
1, 95369, Note_off_c, 0, 62, 62
1, 95382, Note_on_c, 0, 52, 76
1, 95387, Note_on_c, 0, 67, 85
1, 95388, Note_on_c, 0, 71, 89
1, 95426, Note_off_c, 0, 52, 62
1, 95545, Note_off_c, 0, 67, 59
1, 95566, Note_on_c, 0, 55, 72
1, 95566, Note_on_c, 0, 64, 84
1, 95603, Note_off_c, 0, 55, 64
1, 95612, Note_off_c, 0, 71, 62
1, 95634, Note_off_c, 0, 64, 60
1, 95641, Note_on_c, 0, 66, 83
1, 95688, Note_off_c, 0, 66, 66
1, 95718, Note_on_c, 0, 52, 73
1, 95724, Note_on_c, 0, 67, 92
1, 95752, Note_off_c, 0, 52, 66
1, 95783, Note_off_c, 0, 67, 65
1, 95802, Note_on_c, 0, 69, 87
1, 95870, Note_on_c, 0, 49, 73
1, 95879, Note_on_c, 0, 71, 87
1, 95883, Note_on_c, 0, 76, 91
1, 95896, Note_off_c, 0, 69, 64
1, 95923, Note_off_c, 0, 49, 61
1, 96064, Note_on_c, 0, 52, 74
1, 96066, Note_on_c, 0, 69, 82
1, 96076, Note_off_c, 0, 71, 61
1, 96095, Note_off_c, 0, 52, 67
1, 96117, Note_off_c, 0, 69, 64
1, 96138, Note_on_c, 0, 67, 78
1, 96189, Note_off_c, 0, 67, 66
1, 96222, Note_on_c, 0, 66, 77
1, 96234, Note_on_c, 0, 49, 69
1, 96270, Note_off_c, 0, 49, 67
1, 96286, Note_off_c, 0, 66, 63
1, 96292, Note_on_c, 0, 64, 74
1, 96325, Note_off_c, 0, 64, 59
1, 96385, Note_on_c, 0, 69, 82
1, 96391, Note_on_c, 0, 54, 78
1, 96425, Note_off_c, 0, 54, 64
1, 96596, Note_on_c, 0, 50, 67
1, 96613, Note_off_c, 0, 76, 57
1, 96666, Note_on_c, 0, 52, 66
1, 96687, Note_off_c, 0, 50, 59
1, 96694, Note_off_c, 0, 69, 56
1, 96728, Note_on_c, 0, 67, 69
1, 96741, Note_on_c, 0, 54, 75
1, 96771, Note_off_c, 0, 52, 62
1, 96804, Control_c, 0, 64, 28
1, 96818, Note_on_c, 0, 55, 78
1, 96833, Note_off_c, 0, 54, 62
1, 96887, Note_off_c, 0, 55, 63
1, 96894, Note_on_c, 0, 57, 84
1, 96896, Note_off_c, 0, 67, 62
1, 96902, Note_on_c, 0, 74, 91
1, 96911, Note_on_c, 0, 66, 77
1, 96930, Note_off_c, 0, 57, 65
1, 96997, Control_c, 0, 64, 28
1, 97076, Note_on_c, 0, 55, 77
1, 97143, Note_on_c, 0, 54, 79
1, 97146, Note_off_c, 0, 55, 63
1, 97183, Note_off_c, 0, 74, 56
1, 97212, Note_on_c, 0, 72, 81
1, 97235, Note_on_c, 0, 52, 74
1, 97241, Note_off_c, 0, 66, 61
1, 97248, Note_off_c, 0, 54, 64
1, 97276, Note_off_c, 0, 72, 63
1, 97298, Note_on_c, 0, 50, 74
1, 97299, Note_on_c, 0, 66, 41
1, 97316, Note_off_c, 0, 52, 64
1, 97389, Note_on_c, 0, 71, 91
1, 97391, Note_off_c, 0, 66, 0
1, 97392, Note_on_c, 0, 55, 92
1, 97404, Note_on_c, 0, 66, 49
1, 97414, Note_off_c, 0, 50, 64
1, 97436, Note_off_c, 0, 55, 65
1, 97486, Control_c, 0, 64, 27
1, 97539, Control_c, 0, 64, 26
1, 97575, Note_on_c, 0, 52, 78
1, 97598, Note_off_c, 0, 66, 58
1, 97668, Note_on_c, 0, 55, 71
1, 97675, Note_on_c, 0, 54, 40
1, 97693, Note_off_c, 0, 52, 63
1, 97700, Note_off_c, 0, 71, 53
1, 97714, Note_on_c, 0, 69, 82
1, 97731, Note_off_c, 0, 55, 0
1, 97757, Note_off_c, 0, 54, 63
1, 97768, Poly_aftertouch_c, 0, 55, 127
1, 97776, Note_on_c, 0, 57, 72
1, 97863, Note_on_c, 0, 67, 84
1, 97866, Poly_aftertouch_c, 0, 55, 0
1, 97873, Note_on_c, 0, 59, 85
1, 97882, Note_off_c, 0, 57, 65
1, 97885, Note_off_c, 0, 69, 59
1, 97895, Note_on_c, 0, 64, 66
1, 97918, Note_off_c, 0, 59, 66
1, 98049, Note_on_c, 0, 57, 84
1, 98058, Control_c, 0, 64, 26
1, 98073, Control_c, 0, 64, 24
1, 98088, Control_c, 0, 64, 21
1, 98103, Control_c, 0, 64, 19
1, 98111, Note_on_c, 0, 55, 80
1, 98112, Note_off_c, 0, 57, 64
1, 98117, Control_c, 0, 64, 16
1, 98132, Control_c, 0, 64, 14
1, 98133, Note_off_c, 0, 64, 58
1, 98162, Control_c, 0, 64, 12
1, 98191, Control_c, 0, 64, 10
1, 98198, Note_on_c, 0, 54, 76
1, 98199, Note_off_c, 0, 55, 64
1, 98206, Control_c, 0, 64, 0
1, 98210, Note_on_c, 0, 62, 67
1, 98246, Note_off_c, 0, 62, 64
1, 98282, Note_on_c, 0, 52, 72
1, 98291, Note_off_c, 0, 54, 64
1, 98373, Note_on_c, 0, 57, 80
1, 98379, Note_off_c, 0, 52, 64
1, 98385, Note_on_c, 0, 61, 77
1, 98448, Note_off_c, 0, 61, 60
1, 98450, Control_c, 0, 64, 36
1, 98465, Control_c, 0, 64, 59
1, 98477, Note_off_c, 0, 57, 62
1, 98480, Control_c, 0, 64, 67
1, 98495, Control_c, 0, 64, 74
1, 98509, Control_c, 0, 64, 79
1, 98524, Control_c, 0, 64, 77
1, 98539, Control_c, 0, 64, 69
1, 98554, Control_c, 0, 64, 60
1, 98569, Control_c, 0, 64, 33
1, 98583, Control_c, 0, 64, 0
1, 98589, Note_on_c, 0, 57, 63
1, 98627, Note_off_c, 0, 57, 61
1, 98628, Note_off_c, 0, 67, 18
1, 98664, Note_on_c, 0, 59, 60
1, 98710, Note_off_c, 0, 59, 61
1, 98725, Note_on_c, 0, 61, 57
1, 98728, Note_on_c, 0, 45, 56
1, 98769, Note_off_c, 0, 45, 62
1, 98787, Note_off_c, 0, 61, 61
1, 98821, Note_on_c, 0, 62, 62
1, 98857, Note_off_c, 0, 62, 61
1, 98899, Note_on_c, 0, 67, 67
1, 98901, Note_on_c, 0, 64, 59
1, 98908, Note_on_c, 0, 45, 79
1, 98940, Control_c, 0, 64, 33
1, 98955, Control_c, 0, 64, 54
1, 98970, Control_c, 0, 64, 61
1, 98985, Control_c, 0, 64, 63
1, 99000, Control_c, 0, 64, 64
1, 99018, Note_off_c, 0, 45, 64
1, 99022, Control_c, 0, 64, 63
1, 99037, Control_c, 0, 64, 60
1, 99052, Control_c, 0, 64, 54
1, 99066, Note_off_c, 0, 64, 28
1, 99066, Control_c, 0, 64, 49
1, 99081, Note_on_c, 0, 61, 72
1, 99081, Control_c, 0, 64, 46
1, 99096, Control_c, 0, 64, 44
1, 99111, Control_c, 0, 64, 42
1, 99126, Control_c, 0, 64, 40
1, 99127, Note_off_c, 0, 61, 59
1, 99140, Control_c, 0, 64, 36
1, 99155, Control_c, 0, 64, 33
1, 99170, Control_c, 0, 64, 31
1, 99172, Note_off_c, 0, 67, 56
1, 99185, Control_c, 0, 64, 30
1, 99235, Note_on_c, 0, 45, 85
1, 99241, Note_on_c, 0, 64, 75
1, 99245, Control_c, 0, 64, 30
1, 99259, Control_c, 0, 64, 29
1, 99265, Note_off_c, 0, 64, 69
1, 99268, Note_off_c, 0, 45, 65
1, 99274, Control_c, 0, 64, 29
1, 99289, Control_c, 0, 64, 28
1, 99304, Control_c, 0, 64, 26
1, 99319, Control_c, 0, 64, 24
1, 99333, Control_c, 0, 64, 23
1, 99348, Control_c, 0, 64, 22
1, 99401, Note_on_c, 0, 45, 85
1, 99404, Note_on_c, 0, 73, 86
1, 99411, Note_on_c, 0, 67, 67
1, 99441, Note_off_c, 0, 67, 65
1, 99451, Control_c, 0, 64, 21
1, 99459, Note_off_c, 0, 45, 61
1, 99462, Note_on_c, 0, 44, 82
1, 99466, Control_c, 0, 64, 18
1, 99481, Control_c, 0, 64, 15
1, 99511, Control_c, 0, 64, 14
1, 99516, Note_on_c, 0, 45, 83
1, 99528, Note_off_c, 0, 44, 64
1, 99570, Control_c, 0, 64, 12
1, 99584, Control_c, 0, 64, 10
1, 99596, Note_on_c, 0, 64, 83
1, 99599, Control_c, 0, 64, 0
1, 99644, Note_off_c, 0, 64, 64
1, 99708, Note_off_c, 0, 73, 63
1, 99746, Note_on_c, 0, 67, 92
1, 99802, Note_off_c, 0, 67, 63
1, 99924, Note_on_c, 0, 76, 96
1, 99931, Note_on_c, 0, 73, 84
1, 99963, Control_c, 0, 64, 10
1, 99978, Control_c, 0, 64, 12
1, 99993, Note_off_c, 0, 45, 64
1, 100018, Note_off_c, 0, 73, 55
1, 100092, Note_on_c, 0, 67, 92
1, 100139, Note_off_c, 0, 67, 64
1, 100142, Control_c, 0, 64, 10
1, 100156, Control_c, 0, 64, 8
1, 100178, Note_on_c, 0, 52, 81
1, 100252, Note_on_c, 0, 54, 86
1, 100258, Note_on_c, 0, 73, 90
1, 100267, Note_off_c, 0, 52, 65
1, 100268, Note_off_c, 0, 76, 64
1, 100288, Control_c, 0, 64, 0
1, 100324, Note_off_c, 0, 73, 59
1, 100333, Note_on_c, 0, 55, 86
1, 100365, Note_off_c, 0, 54, 60
1, 100421, Note_on_c, 0, 57, 92
1, 100427, Note_off_c, 0, 55, 63
1, 100428, Note_on_c, 0, 66, 99
1, 100505, Note_off_c, 0, 66, 61
1, 100601, Note_on_c, 0, 74, 94
1, 100611, Note_off_c, 0, 57, 53
1, 100687, Note_on_c, 0, 73, 89
1, 100693, Note_off_c, 0, 74, 62
1, 100759, Note_on_c, 0, 45, 55
1, 100762, Note_on_c, 0, 71, 81
1, 100768, Note_off_c, 0, 73, 63
1, 100804, Note_off_c, 0, 45, 61
1, 100818, Note_off_c, 0, 71, 65
1, 100827, Note_on_c, 0, 69, 72
1, 100851, Note_off_c, 0, 69, 69
1, 100936, Note_on_c, 0, 45, 55
1, 100939, Note_on_c, 0, 62, 78
1, 100942, Note_on_c, 0, 68, 74
1, 100949, Control_c, 0, 64, 8
1, 100964, Control_c, 0, 64, 10
1, 101001, Note_off_c, 0, 68, 59
1, 101008, Control_c, 0, 64, 12
1, 101067, Control_c, 0, 64, 14
1, 101097, Control_c, 0, 64, 15
1, 101100, Note_off_c, 0, 45, 56
1, 101111, Note_on_c, 0, 71, 71
1, 101151, Note_off_c, 0, 71, 62
1, 101259, Note_off_c, 0, 62, 57
1, 101263, Note_on_c, 0, 45, 55
1, 101281, Note_on_c, 0, 68, 71
1, 101295, Note_off_c, 0, 45, 64
1, 101320, Note_off_c, 0, 68, 60
1, 101444, Note_on_c, 0, 45, 51
1, 101457, Note_on_c, 0, 62, 65
1, 101461, Note_on_c, 0, 59, 67
1, 101490, Note_off_c, 0, 62, 66
1, 101494, Note_off_c, 0, 45, 63
1, 101519, Note_on_c, 0, 44, 48
1, 101559, Note_off_c, 0, 44, 64
1, 101581, Note_on_c, 0, 45, 55
1, 101627, Note_on_c, 0, 68, 65
1, 101681, Note_off_c, 0, 68, 54
1, 101726, Note_off_c, 0, 59, 41
1, 101809, Note_on_c, 0, 62, 41
1, 101836, Note_off_c, 0, 62, 57
1, 101967, Note_on_c, 0, 59, 52
1, 101968, Note_on_c, 0, 56, 52
1, 102014, Note_off_c, 0, 59, 64
1, 102088, Note_off_c, 0, 45, 39
1, 102166, Note_on_c, 0, 62, 39
1, 102212, Note_off_c, 0, 62, 57
1, 102317, Note_on_c, 0, 59, 51
1, 102332, Note_off_c, 0, 56, 56
1, 102345, Note_off_c, 0, 59, 63
1, 102500, Note_on_c, 0, 61, 61
1, 102536, Note_on_c, 0, 57, 32
1, 102595, Control_c, 0, 64, 16
1, 102667, Note_off_c, 0, 61, 51
1, 102676, Note_on_c, 0, 59, 65
1, 102680, Note_off_c, 0, 57, 52
1, 102723, Note_off_c, 0, 59, 62
1, 102759, Note_on_c, 0, 42, 51
1, 102825, Note_off_c, 0, 42, 60
1, 102835, Note_on_c, 0, 43, 62
1, 102848, Note_on_c, 0, 55, 51
1, 102851, Note_on_c, 0, 57, 52
1, 102887, Note_off_c, 0, 57, 65
1, 102896, Note_off_c, 0, 55, 62
1, 102908, Note_off_c, 0, 43, 61
1, 102918, Note_on_c, 0, 45, 64
1, 102983, Note_off_c, 0, 45, 63
1, 102999, Note_on_c, 0, 47, 74
1, 103010, Note_on_c, 0, 62, 69
1, 103026, Note_on_c, 0, 54, 62
1, 103030, Note_off_c, 0, 47, 64
1, 103155, Note_off_c, 0, 62, 58
1, 103168, Note_on_c, 0, 45, 67
1, 103176, Note_off_c, 0, 54, 64
1, 103203, Note_off_c, 0, 45, 63
1, 103332, Note_on_c, 0, 67, 73
1, 103339, Note_on_c, 0, 43, 55
1, 103352, Note_on_c, 0, 64, 48
1, 103373, Control_c, 0, 64, 17
1, 103378, Note_off_c, 0, 43, 63
1, 103394, Note_off_c, 0, 64, 59
1, 103510, Note_on_c, 0, 45, 57
1, 103520, Note_on_c, 0, 61, 64
1, 103528, Note_off_c, 0, 67, 60
1, 103544, Control_c, 0, 64, 18
1, 103574, Control_c, 0, 64, 19
1, 103695, Note_off_c, 0, 61, 39
1, 103699, Note_on_c, 0, 66, 75
1, 103777, Note_on_c, 0, 64, 67
1, 103778, Note_off_c, 0, 66, 61
1, 103781, Note_off_c, 0, 45, 51
1, 103842, Note_on_c, 0, 62, 54
1, 103843, Note_on_c, 0, 57, 62
1, 103858, Note_on_c, 0, 66, 74
1, 103863, Note_off_c, 0, 64, 61
1, 103885, Note_off_c, 0, 57, 63
1, 104031, Note_off_c, 0, 62, 0
1, 104031, Note_on_c, 0, 62, 8
1, 104040, Note_on_c, 0, 57, 63
1, 104040, Note_on_c, 0, 64, 77
1, 104040, Note_off_c, 0, 66, 60
1, 104181, Control_c, 0, 64, 20
1, 104202, Note_on_c, 0, 61, 67
1, 104204, Note_off_c, 0, 62, 54
1, 104211, Control_c, 0, 64, 21
1, 104223, Note_off_c, 0, 64, 35
1, 104226, Control_c, 0, 64, 23
1, 104247, Control_c, 0, 64, 24
1, 104249, Note_off_c, 0, 61, 63
1, 104256, Note_off_c, 0, 57, 52
1, 104262, Control_c, 0, 64, 24
1, 104277, Control_c, 0, 64, 25
1, 104297, Note_on_c, 0, 59, 73
1, 104361, Note_off_c, 0, 59, 58
1, 104368, Note_on_c, 0, 69, 76
1, 104381, Note_on_c, 0, 45, 48
1, 104413, Note_off_c, 0, 45, 53
1, 104508, Note_off_c, 0, 69, 57
1, 104535, Note_on_c, 0, 62, 65
1, 104553, Note_on_c, 0, 50, 91
1, 104557, Note_on_c, 0, 66, 78
1, 104565, Note_off_c, 0, 62, 66
1, 104611, Note_off_c, 0, 66, 64
1, 104650, Note_on_c, 0, 69, 87
1, 104717, Note_off_c, 0, 50, 62
1, 104720, Note_on_c, 0, 71, 91
1, 104731, Note_off_c, 0, 69, 63
1, 104798, Note_on_c, 0, 73, 91
1, 104814, Note_off_c, 0, 71, 62
1, 104863, Note_off_c, 0, 73, 65
1, 104871, Note_on_c, 0, 57, 91
1, 104875, Note_on_c, 0, 74, 89
1, 104905, Note_off_c, 0, 57, 67
1, 104944, Control_c, 0, 64, 24
1, 104947, Note_off_c, 0, 74, 61
1, 104957, Note_on_c, 0, 76, 92
1, 104959, Control_c, 0, 64, 23
1, 104989, Control_c, 0, 64, 22
1, 105012, Control_c, 0, 64, 21
1, 105026, Control_c, 0, 64, 20
1, 105041, Control_c, 0, 64, 19
1, 105054, Note_on_c, 0, 62, 82
1, 105056, Control_c, 0, 64, 18
1, 105064, Note_off_c, 0, 76, 48
1, 105066, Note_on_c, 0, 78, 93
1, 105070, Control_c, 0, 64, 17
1, 105085, Control_c, 0, 64, 16
1, 105100, Control_c, 0, 64, 14
1, 105102, Note_on_c, 0, 61, 84
1, 105110, Note_off_c, 0, 62, 65
1, 105115, Control_c, 0, 64, 10
1, 105130, Control_c, 0, 64, 8
1, 105145, Note_on_c, 0, 76, 93
1, 105160, Note_off_c, 0, 78, 64
1, 105170, Note_on_c, 0, 62, 92
1, 105177, Note_off_c, 0, 61, 62
1, 105190, Control_c, 0, 64, 0
1, 105211, Note_off_c, 0, 76, 60
1, 105219, Note_on_c, 0, 74, 89
1, 105299, Note_on_c, 0, 73, 88
1, 105311, Note_off_c, 0, 74, 59
1, 105380, Note_on_c, 0, 71, 84
1, 105393, Note_off_c, 0, 73, 65
1, 105433, Note_off_c, 0, 71, 66
1, 105457, Note_on_c, 0, 69, 80
1, 105542, Note_on_c, 0, 68, 89
1, 105552, Note_off_c, 0, 69, 63
1, 105591, Note_off_c, 0, 68, 61
1, 105698, Note_off_c, 0, 62, 56
1, 105708, Note_on_c, 0, 64, 71
1, 105718, Note_on_c, 0, 71, 83
1, 105752, Note_off_c, 0, 64, 64
1, 105764, Note_off_c, 0, 71, 65
1, 105783, Note_on_c, 0, 62, 75
1, 105861, Note_on_c, 0, 61, 73
1, 105862, Note_off_c, 0, 62, 61
1, 105888, Note_on_c, 0, 76, 89
1, 105931, Note_off_c, 0, 61, 59
1, 105934, Note_off_c, 0, 76, 64
1, 105950, Note_on_c, 0, 59, 71
1, 106042, Note_off_c, 0, 59, 63
1, 106044, Note_on_c, 0, 58, 79
1, 106053, Note_on_c, 0, 76, 95
1, 106075, Note_off_c, 0, 58, 66
1, 106224, Note_on_c, 0, 59, 70
1, 106237, Note_on_c, 0, 73, 67
1, 106264, Note_off_c, 0, 73, 67
1, 106279, Control_c, 0, 64, 8
1, 106294, Note_off_c, 0, 59, 59
1, 106312, Note_on_c, 0, 58, 64
1, 106339, Control_c, 0, 64, 10
1, 106363, Note_off_c, 0, 58, 58
1, 106382, Note_on_c, 0, 56, 69
1, 106398, Control_c, 0, 64, 12
1, 106406, Note_off_c, 0, 76, 59
1, 106411, Note_on_c, 0, 70, 72
1, 106447, Note_off_c, 0, 70, 62
1, 106453, Note_off_c, 0, 56, 63
1, 106455, Note_on_c, 0, 54, 70
1, 106548, Note_off_c, 0, 54, 62
1, 106565, Note_on_c, 0, 59, 80
1, 106578, Note_on_c, 0, 66, 85
1, 106634, Note_off_c, 0, 66, 62
1, 106716, Note_off_c, 0, 59, 61
1, 106752, Note_on_c, 0, 68, 73
1, 106826, Note_off_c, 0, 68, 61
1, 106834, Note_on_c, 0, 70, 68
1, 106882, Note_off_c, 0, 70, 63
1, 106891, Note_on_c, 0, 47, 60
1, 106913, Note_on_c, 0, 71, 75
1, 106919, Note_off_c, 0, 47, 65
1, 106949, Note_off_c, 0, 71, 62
1, 106994, Note_on_c, 0, 73, 67
1, 107046, Note_off_c, 0, 73, 59
1, 107061, Note_on_c, 0, 59, 70
1, 107075, Note_on_c, 0, 74, 76
1, 107087, Control_c, 0, 64, 14
1, 107109, Note_off_c, 0, 59, 62
1, 107113, Note_on_c, 0, 58, 78
1, 107149, Note_off_c, 0, 74, 57
1, 107159, Note_on_c, 0, 73, 73
1, 107163, Note_off_c, 0, 58, 62
1, 107184, Note_on_c, 0, 59, 73
1, 107245, Note_off_c, 0, 73, 63
1, 107246, Note_on_c, 0, 71, 70
1, 107280, Note_off_c, 0, 71, 64
1, 107314, Note_on_c, 0, 69, 72
1, 107376, Note_off_c, 0, 69, 59
1, 107399, Note_on_c, 0, 67, 71
1, 107457, Note_off_c, 0, 67, 54
1, 107472, Note_on_c, 0, 66, 72
1, 107529, Note_off_c, 0, 66, 62
1, 107545, Note_on_c, 0, 64, 74
1, 107573, Note_off_c, 0, 64, 67
1, 107687, Note_off_c, 0, 59, 54
1, 107712, Note_on_c, 0, 60, 58
1, 107717, Note_on_c, 0, 67, 71
1, 107745, Note_off_c, 0, 67, 67
1, 107752, Note_off_c, 0, 60, 67
1, 107789, Note_on_c, 0, 59, 68
1, 107850, Note_off_c, 0, 59, 46
1, 107867, Note_on_c, 0, 57, 63
1, 107887, Note_on_c, 0, 72, 72
1, 107922, Note_off_c, 0, 72, 59
1, 107938, Note_off_c, 0, 57, 61
1, 107953, Note_on_c, 0, 55, 64
1, 108043, Note_off_c, 0, 55, 61
1, 108044, Note_on_c, 0, 72, 85
1, 108045, Note_on_c, 0, 54, 71
1, 108080, Note_off_c, 0, 54, 66
1, 108218, Note_on_c, 0, 55, 65
1, 108220, Note_on_c, 0, 69, 70
1, 108266, Note_off_c, 0, 69, 59
1, 108286, Note_off_c, 0, 55, 62
1, 108299, Note_on_c, 0, 54, 61
1, 108356, Note_off_c, 0, 54, 59
1, 108371, Note_on_c, 0, 52, 72
1, 108389, Note_on_c, 0, 66, 60
1, 108416, Note_off_c, 0, 66, 63
1, 108441, Note_off_c, 0, 52, 57
1, 108443, Note_off_c, 0, 72, 63
1, 108462, Note_on_c, 0, 50, 71
1, 108534, Note_off_c, 0, 50, 61
1, 108549, Note_on_c, 0, 55, 83
1, 108580, Note_on_c, 0, 62, 70
1, 108644, Note_off_c, 0, 62, 57
1, 108705, Note_on_c, 0, 64, 76
1, 108718, Note_off_c, 0, 55, 60
1, 108800, Note_on_c, 0, 66, 84
1, 108814, Note_off_c, 0, 64, 57
1, 108867, Note_off_c, 0, 66, 62
1, 108885, Note_on_c, 0, 67, 82
1, 108897, Note_on_c, 0, 43, 69
1, 108927, Note_off_c, 0, 43, 63
1, 108958, Note_off_c, 0, 67, 57
1, 108964, Note_on_c, 0, 69, 87
1, 109041, Note_on_c, 0, 55, 82
1, 109049, Note_on_c, 0, 71, 95
1, 109059, Note_off_c, 0, 69, 57
1, 109097, Note_on_c, 0, 72, 26
1, 109133, Note_off_c, 0, 72, 31
1, 109136, Note_on_c, 0, 69, 89
1, 109139, Note_off_c, 0, 71, 65
1, 109193, Note_off_c, 0, 69, 65
1, 109212, Note_on_c, 0, 67, 80
1, 109294, Note_off_c, 0, 67, 51
1, 109300, Note_on_c, 0, 66, 76
1, 109380, Note_on_c, 0, 64, 81
1, 109383, Note_off_c, 0, 66, 63
1, 109433, Note_off_c, 0, 64, 65
1, 109460, Note_on_c, 0, 62, 80
1, 109545, Note_off_c, 0, 62, 60
1, 109549, Note_on_c, 0, 61, 81
1, 109592, Note_off_c, 0, 61, 59
1, 109711, Note_off_c, 0, 55, 56
1, 109719, Note_on_c, 0, 57, 72
1, 109727, Note_on_c, 0, 64, 86
1, 109761, Note_off_c, 0, 57, 62
1, 109774, Note_off_c, 0, 64, 64
1, 109804, Note_on_c, 0, 55, 72
1, 109868, Note_on_c, 0, 54, 74
1, 109871, Note_off_c, 0, 55, 62
1, 109880, Note_on_c, 0, 69, 90
1, 109890, Note_on_c, 0, 61, 83
1, 109928, Note_off_c, 0, 61, 60
1, 109928, Note_off_c, 0, 69, 65
1, 109947, Note_off_c, 0, 54, 60
1, 109971, Note_on_c, 0, 52, 62
1, 110041, Note_on_c, 0, 50, 67
1, 110043, Note_off_c, 0, 52, 64
1, 110047, Note_on_c, 0, 62, 82
1, 110047, Note_on_c, 0, 66, 86
1, 110075, Note_off_c, 0, 62, 63
1, 110105, Note_off_c, 0, 66, 63
1, 110107, Note_off_c, 0, 50, 63
1, 110218, Note_on_c, 0, 52, 80
1, 110225, Note_on_c, 0, 69, 92
1, 110286, Note_off_c, 0, 69, 65
1, 110304, Note_off_c, 0, 52, 63
1, 110307, Note_on_c, 0, 54, 80
1, 110367, Note_off_c, 0, 54, 64
1, 110375, Note_on_c, 0, 55, 81
1, 110378, Note_on_c, 0, 74, 94
1, 110390, Note_on_c, 0, 66, 84
1, 110438, Note_off_c, 0, 74, 63
1, 110444, Note_off_c, 0, 66, 63
1, 110462, Note_on_c, 0, 57, 81
1, 110466, Note_off_c, 0, 55, 60
1, 110541, Note_off_c, 0, 57, 63
1, 110542, Note_on_c, 0, 59, 90
1, 110556, Note_on_c, 0, 67, 95
1, 110578, Note_off_c, 0, 59, 65
1, 110674, Note_off_c, 0, 67, 46
1, 110743, Note_on_c, 0, 69, 83
1, 110745, Note_on_c, 0, 57, 76
1, 110768, Note_off_c, 0, 57, 67
1, 110800, Note_off_c, 0, 69, 62
1, 110912, Note_on_c, 0, 55, 79
1, 110915, Note_on_c, 0, 76, 106
1, 110921, Control_c, 0, 64, 12
1, 110921, Note_on_c, 0, 71, 62
1, 110944, Note_off_c, 0, 55, 67
1, 110951, Control_c, 0, 64, 10
1, 110959, Note_off_c, 0, 71, 60
1, 110965, Control_c, 0, 64, 8
1, 110980, Control_c, 0, 64, 0
1, 111095, Note_off_c, 0, 76, 57
1, 111120, Note_on_c, 0, 57, 85
1, 111123, Note_on_c, 0, 66, 85
1, 111125, Note_on_c, 0, 69, 89
1, 111180, Control_c, 0, 64, 42
1, 111186, Note_off_c, 0, 57, 65
1, 111195, Control_c, 0, 64, 59
1, 111210, Control_c, 0, 64, 67
1, 111225, Control_c, 0, 64, 79
1, 111240, Control_c, 0, 64, 115
1, 111255, Control_c, 0, 64, 127
1, 111309, Note_on_c, 0, 74, 100
1, 111312, Note_off_c, 0, 69, 64
1, 111314, Note_off_c, 0, 66, 61
1, 111442, Note_off_c, 0, 74, 60
1, 111514, Note_on_c, 0, 45, 80
1, 111517, Note_on_c, 0, 73, 102
1, 111523, Note_on_c, 0, 64, 87
1, 111525, Note_on_c, 0, 67, 84
1, 111550, Control_c, 0, 64, 102
1, 111565, Control_c, 0, 64, 79
1, 111581, Control_c, 0, 64, 65
1, 111596, Control_c, 0, 64, 40
1, 111610, Control_c, 0, 64, 0
1, 111656, Note_off_c, 0, 64, 56
1, 111720, Note_off_c, 0, 73, 61
1, 111751, Note_on_c, 0, 38, 81
1, 111761, Note_on_c, 0, 74, 101
1, 111767, Note_on_c, 0, 62, 91
1, 111779, Note_off_c, 0, 45, 64
1, 112031, Note_on_c, 0, 69, 88
1, 112053, Note_off_c, 0, 67, 64
1, 112309, Note_off_c, 0, 62, 60
1, 112327, Note_on_c, 0, 66, 95
1, 112373, Control_c, 0, 66, 127
1, 112487, Note_off_c, 0, 38, 62
1, 112722, Note_on_c, 0, 62, 85
1, 112785, Note_on_c, 0, 61, 87
1, 112795, Note_off_c, 0, 62, 65
1, 112858, Note_on_c, 0, 62, 95
1, 112866, Note_off_c, 0, 61, 63
1, 114528, Note_off_c, 0, 62, 66
1, 114535, Note_off_c, 0, 74, 63
1, 114540, Note_off_c, 0, 69, 67
1, 114543, Note_off_c, 0, 66, 65
1, 114590, Control_c, 0, 66, 0
1, 116221, Control_c, 0, 64, 8
1, 116288, Control_c, 0, 64, 10
1, 116317, Control_c, 0, 64, 12
1, 116332, Control_c, 0, 64, 14
1, 116347, Control_c, 0, 64, 17
1, 116362, Control_c, 0, 64, 20
1, 116378, Control_c, 0, 64, 22
1, 116393, Control_c, 0, 64, 24
1, 116407, Control_c, 0, 64, 28
1, 116422, Control_c, 0, 64, 31
1, 116437, Control_c, 0, 64, 34
1, 116452, Control_c, 0, 64, 36
1, 116467, Control_c, 0, 64, 38
1, 116481, Control_c, 0, 64, 40
1, 116496, Control_c, 0, 64, 41
1, 116511, Control_c, 0, 64, 42
1, 116526, Control_c, 0, 64, 43
1, 117050, Control_c, 0, 67, 9
1, 117065, Control_c, 0, 67, 24
1, 117079, Control_c, 0, 67, 38
1, 117094, Control_c, 0, 67, 48
1, 117109, Control_c, 0, 67, 51
1, 117124, Control_c, 0, 67, 53
1, 117139, Control_c, 0, 67, 58
1, 117154, Control_c, 0, 67, 72
1, 117169, Control_c, 0, 67, 92
1, 117184, Control_c, 0, 67, 117
1, 117199, Control_c, 0, 67, 127
1, 117288, Control_c, 0, 64, 42
1, 117303, Control_c, 0, 64, 41
1, 117333, Control_c, 0, 64, 41
1, 117348, Control_c, 0, 64, 40
1, 117377, Control_c, 0, 64, 40
1, 117392, Control_c, 0, 64, 39
1, 117407, Control_c, 0, 64, 38
1, 117422, Control_c, 0, 64, 36
1, 117437, Control_c, 0, 64, 36
1, 117659, Control_c, 0, 64, 36
1, 117770, Control_c, 0, 64, 37
1, 117800, Control_c, 0, 64, 37
1, 117815, Control_c, 0, 64, 38
1, 117903, Control_c, 0, 64, 38
1, 117951, Note_on_c, 0, 62, 47
1, 117993, Control_c, 0, 64, 39
1, 118082, Control_c, 0, 64, 39
1, 118116, Note_off_c, 0, 62, 59
1, 118260, Control_c, 0, 64, 40
1, 118285, Note_on_c, 0, 62, 58
1, 118430, Note_off_c, 0, 62, 64
1, 118640, Note_on_c, 0, 62, 47
1, 118790, Note_off_c, 0, 62, 62
1, 118976, Note_on_c, 0, 55, 49
1, 119678, Note_on_c, 0, 59, 57
1, 119759, Note_off_c, 0, 55, 36
1, 120787, Note_on_c, 0, 52, 38
1, 120802, Note_off_c, 0, 59, 37
1, 121032, Control_c, 0, 64, 40
1, 121099, Note_off_c, 0, 52, 53
1, 121109, Note_on_c, 0, 57, 50
1, 121435, Note_off_c, 0, 57, 53
1, 121436, Note_on_c, 0, 55, 51
1, 121747, Note_off_c, 0, 55, 54
1, 121762, Note_on_c, 0, 54, 40
1, 122064, Note_on_c, 0, 69, 59
1, 122093, Control_c, 0, 67, 94
1, 122108, Control_c, 0, 67, 77
1, 122123, Control_c, 0, 67, 52
1, 122138, Control_c, 0, 67, 24
1, 122153, Control_c, 0, 67, 0
1, 122242, Note_off_c, 0, 69, 62
1, 122370, Note_off_c, 0, 54, 54
1, 122377, Note_on_c, 0, 50, 42
1, 122381, Note_on_c, 0, 69, 65
1, 122543, Note_off_c, 0, 69, 59
1, 122691, Note_on_c, 0, 69, 64
1, 122848, Note_off_c, 0, 69, 61
1, 123039, Note_on_c, 0, 62, 60
1, 123342, Note_on_c, 0, 54, 49
1, 123399, Note_off_c, 0, 50, 36
1, 123658, Note_off_c, 0, 54, 51
1, 123662, Note_on_c, 0, 59, 44
1, 123672, Note_off_c, 0, 62, 61
1, 123674, Note_on_c, 0, 66, 63
1, 123986, Note_on_c, 0, 57, 49
1, 123991, Note_off_c, 0, 59, 36
1, 124307, Note_off_c, 0, 57, 52
1, 124312, Note_on_c, 0, 56, 46
1, 124631, Note_on_c, 0, 59, 52
1, 124648, Note_off_c, 0, 66, 55
1, 124955, Note_off_c, 0, 59, 52
1, 124958, Note_on_c, 0, 64, 57
1, 125280, Note_off_c, 0, 64, 56
1, 125286, Note_on_c, 0, 62, 52
1, 125566, Note_off_c, 0, 62, 48
1, 125585, Note_on_c, 0, 61, 45
1, 125599, Note_on_c, 0, 57, 28
1, 125635, Note_off_c, 0, 56, 42
1, 125898, Note_on_c, 0, 64, 61
1, 125933, Note_off_c, 0, 61, 59
1, 126228, Note_on_c, 0, 61, 44
1, 126249, Note_off_c, 0, 57, 42
1, 126252, Note_on_c, 0, 69, 56
1, 126255, Note_off_c, 0, 64, 60
1, 126559, Note_off_c, 0, 69, 57
1, 126560, Note_on_c, 0, 67, 57
1, 126791, Note_off_c, 0, 61, 57
1, 126872, Note_off_c, 0, 67, 57
1, 126886, Note_on_c, 0, 66, 51
1, 127198, Note_on_c, 0, 57, 63
1, 127505, Note_off_c, 0, 57, 60
1, 127522, Note_on_c, 0, 62, 53
1, 127526, Note_on_c, 0, 69, 62
1, 127546, Note_off_c, 0, 66, 55
1, 127808, Note_off_c, 0, 62, 57
1, 127825, Note_on_c, 0, 61, 47
1, 128147, Note_on_c, 0, 59, 51
1, 128171, Note_off_c, 0, 61, 49
1, 128473, Note_on_c, 0, 74, 57
1, 128478, Note_off_c, 0, 69, 36
1, 128501, Note_on_c, 0, 62, 24
1, 128627, Note_off_c, 0, 74, 56
1, 128782, Note_off_c, 0, 62, 50
1, 128799, Note_on_c, 0, 74, 78
1, 128812, Note_on_c, 0, 67, 53
1, 128945, Note_off_c, 0, 74, 60
1, 129030, Note_off_c, 0, 67, 54
1, 129107, Note_on_c, 0, 74, 70
1, 129110, Note_on_c, 0, 66, 52
1, 129212, Note_off_c, 0, 74, 59
1, 129413, Note_off_c, 0, 66, 35
1, 129420, Note_on_c, 0, 67, 64
1, 129431, Note_on_c, 0, 64, 49
1, 129510, Note_off_c, 0, 59, 64
1, 129679, Note_off_c, 0, 64, 56
1, 129744, Note_on_c, 0, 59, 48
1, 129745, Note_on_c, 0, 66, 53
1, 129960, Note_off_c, 0, 67, 52
1, 130046, Note_off_c, 0, 59, 58
1, 130055, Note_off_c, 0, 66, 63
1, 130056, Note_on_c, 0, 71, 69
1, 130066, Note_on_c, 0, 64, 45
1, 130068, Note_on_c, 0, 67, 59
1, 130345, Note_off_c, 0, 64, 52
1, 130377, Note_on_c, 0, 62, 47
1, 130690, Note_off_c, 0, 62, 58
1, 130693, Note_on_c, 0, 61, 47
1, 131000, Note_on_c, 0, 57, 53
1, 131012, Note_on_c, 0, 64, 48
1, 131013, Note_off_c, 0, 67, 60
1, 131015, Note_off_c, 0, 71, 55
1, 131164, Note_off_c, 0, 57, 53
1, 131313, Note_on_c, 0, 69, 68
1, 131319, Note_on_c, 0, 57, 63
1, 131324, Note_on_c, 0, 66, 52
1, 131326, Note_off_c, 0, 64, 54
1, 131463, Note_off_c, 0, 57, 51
1, 131587, Note_off_c, 0, 66, 61
1, 131620, Note_off_c, 0, 69, 61
1, 131632, Note_on_c, 0, 67, 62
1, 131634, Note_on_c, 0, 64, 59
1, 131636, Note_on_c, 0, 57, 63
1, 131668, Note_off_c, 0, 61, 56
1, 131770, Note_off_c, 0, 57, 59
1, 131939, Note_off_c, 0, 64, 57
1, 131944, Note_on_c, 0, 50, 53
1, 131958, Note_on_c, 0, 62, 50
1, 131958, Note_on_c, 0, 66, 63
1, 132001, Note_off_c, 0, 67, 38
1, 132261, Note_on_c, 0, 57, 50
1, 132315, Note_off_c, 0, 62, 55
1, 132576, Note_on_c, 0, 54, 62
1, 132576, Note_off_c, 0, 57, 60
1, 132584, Note_off_c, 0, 50, 36
1, 132586, Note_on_c, 0, 62, 44
1, 132872, Note_off_c, 0, 62, 41
1, 132902, Note_on_c, 0, 61, 40
1, 133180, Note_off_c, 0, 61, 50
1, 133209, Note_off_c, 0, 54, 63
1, 133214, Note_on_c, 0, 68, 67
1, 133215, Note_on_c, 0, 59, 51
1, 133236, Note_off_c, 0, 66, 54
1, 133467, Note_off_c, 0, 59, 36
1, 133504, Note_on_c, 0, 47, 39
1, 133840, Note_on_c, 0, 52, 50
1, 133844, Note_off_c, 0, 47, 42
1, 134114, Note_off_c, 0, 52, 42
1, 134143, Note_on_c, 0, 50, 31
1, 134149, Note_on_c, 0, 59, 46
1, 134222, Note_off_c, 0, 68, 55
1, 134460, Note_on_c, 0, 49, 30
1, 134462, Note_on_c, 0, 69, 57
1, 134474, Note_on_c, 0, 64, 44
1, 134478, Note_off_c, 0, 50, 38
1, 134481, Note_off_c, 0, 59, 38
1, 134762, Note_off_c, 0, 49, 36
1, 134781, Note_on_c, 0, 47, 36
1, 134781, Note_on_c, 0, 52, 44
1, 134787, Note_off_c, 0, 64, 52
1, 134792, Note_on_c, 0, 62, 44
1, 135073, Note_off_c, 0, 47, 50
1, 135102, Note_on_c, 0, 45, 43
1, 135104, Note_off_c, 0, 52, 62
1, 135114, Note_off_c, 0, 62, 53
1, 135123, Note_on_c, 0, 61, 48
1, 135136, Note_on_c, 0, 57, 35
1, 135401, Note_off_c, 0, 57, 46
1, 135423, Note_on_c, 0, 64, 54
1, 135424, Note_off_c, 0, 69, 40
1, 135425, Note_on_c, 0, 55, 46
1, 135737, Note_on_c, 0, 69, 69
1, 135739, Note_on_c, 0, 54, 54
1, 135749, Note_off_c, 0, 64, 58
1, 135761, Note_off_c, 0, 55, 50
1, 135768, Note_off_c, 0, 45, 53
1, 135948, Control_c, 0, 64, 41
1, 135993, Control_c, 0, 64, 42
1, 136019, Note_off_c, 0, 54, 63
1, 136026, Note_off_c, 0, 69, 59
1, 136050, Note_on_c, 0, 45, 44
1, 136056, Note_on_c, 0, 67, 70
1, 136060, Note_on_c, 0, 52, 44
1, 136096, Control_c, 0, 64, 44
1, 136111, Control_c, 0, 64, 50
1, 136125, Control_c, 0, 64, 56
1, 136140, Control_c, 0, 64, 61
1, 136156, Control_c, 0, 64, 65
1, 136171, Control_c, 0, 64, 69
1, 136181, Note_off_c, 0, 67, 62
1, 136186, Control_c, 0, 64, 77
1, 136200, Control_c, 0, 64, 89
1, 136215, Control_c, 0, 64, 110
1, 136230, Control_c, 0, 64, 127
1, 136318, Control_c, 0, 64, 121
1, 136324, Note_off_c, 0, 52, 51
1, 136333, Control_c, 0, 64, 104
1, 136349, Control_c, 0, 64, 90
1, 136355, Note_on_c, 0, 50, 52
1, 136357, Note_on_c, 0, 66, 79
1, 136364, Control_c, 0, 64, 79
1, 136379, Control_c, 0, 64, 71
1, 136394, Control_c, 0, 64, 64
1, 136396, Note_off_c, 0, 45, 59
1, 136409, Control_c, 0, 64, 55
1, 136423, Control_c, 0, 64, 45
1, 136438, Control_c, 0, 64, 45
1, 136653, Note_off_c, 0, 61, 63
1, 136664, Note_on_c, 0, 49, 56
1, 136673, Note_on_c, 0, 57, 64
1, 136992, Note_on_c, 0, 62, 69
1, 136998, Note_on_c, 0, 47, 51
1, 137001, Note_off_c, 0, 50, 54
1, 137010, Note_off_c, 0, 49, 48
1, 137097, Control_c, 0, 64, 46
1, 137112, Control_c, 0, 64, 47
1, 137127, Control_c, 0, 64, 49
1, 137143, Control_c, 0, 64, 51
1, 137158, Control_c, 0, 64, 53
1, 137172, Control_c, 0, 64, 54
1, 137224, Control_c, 0, 64, 54
1, 137239, Note_off_c, 0, 62, 62
1, 137269, Control_c, 0, 64, 53
1, 137276, Note_on_c, 0, 45, 50
1, 137287, Note_on_c, 0, 50, 60
1, 137294, Note_on_c, 0, 61, 69
1, 137302, Note_off_c, 0, 47, 53
1, 137313, Control_c, 0, 64, 54
1, 137316, Note_off_c, 0, 57, 56
1, 137328, Control_c, 0, 64, 57
1, 137343, Control_c, 0, 64, 60
1, 137358, Control_c, 0, 64, 63
1, 137362, Note_off_c, 0, 66, 60
1, 137372, Control_c, 0, 64, 65
1, 137387, Control_c, 0, 64, 67
1, 137402, Control_c, 0, 64, 70
1, 137417, Control_c, 0, 64, 72
1, 137426, Note_off_c, 0, 45, 62
1, 137432, Control_c, 0, 64, 74
1, 137446, Control_c, 0, 64, 75
1, 137461, Control_c, 0, 64, 75
1, 137491, Control_c, 0, 64, 75
1, 137505, Control_c, 0, 64, 74
1, 137535, Control_c, 0, 64, 74
1, 137550, Control_c, 0, 64, 72
1, 137565, Control_c, 0, 64, 70
1, 137579, Control_c, 0, 64, 67
1, 137594, Control_c, 0, 64, 65
1, 137596, Note_on_c, 0, 43, 50
1, 137603, Note_on_c, 0, 64, 78
1, 137609, Note_off_c, 0, 50, 62
1, 137609, Control_c, 0, 64, 63
1, 137612, Note_off_c, 0, 61, 61
1, 137621, Note_on_c, 0, 59, 55
1, 137624, Note_on_c, 0, 55, 50
1, 137624, Control_c, 0, 64, 62
1, 137639, Control_c, 0, 64, 62
1, 137652, Control_c, 0, 64, 60
1, 137667, Control_c, 0, 64, 59
1, 137682, Control_c, 0, 64, 58
1, 137696, Control_c, 0, 64, 57
1, 137711, Control_c, 0, 64, 56
1, 137726, Control_c, 0, 64, 55
1, 137741, Control_c, 0, 64, 55
1, 137770, Control_c, 0, 64, 54
1, 137800, Control_c, 0, 64, 54
1, 137859, Control_c, 0, 64, 53
1, 137904, Note_off_c, 0, 55, 54
1, 137904, Note_on_c, 0, 54, 54
1, 137919, Note_on_c, 0, 62, 69
1, 137921, Note_off_c, 0, 64, 62
1, 138119, Control_c, 0, 64, 53
1, 138149, Control_c, 0, 64, 52
1, 138164, Control_c, 0, 64, 52
1, 138179, Control_c, 0, 64, 51
1, 138193, Control_c, 0, 64, 50
1, 138208, Control_c, 0, 64, 47
1, 138223, Note_off_c, 0, 62, 58
1, 138223, Control_c, 0, 64, 42
1, 138233, Note_on_c, 0, 52, 56
1, 138236, Note_on_c, 0, 57, 60
1, 138236, Note_on_c, 0, 61, 71
1, 138238, Control_c, 0, 64, 36
1, 138241, Note_off_c, 0, 54, 63
1, 138253, Control_c, 0, 64, 30
1, 138266, Note_off_c, 0, 59, 51
1, 138268, Note_off_c, 0, 43, 61
1, 138268, Control_c, 0, 64, 27
1, 138282, Control_c, 0, 64, 26
1, 138312, Control_c, 0, 64, 28
1, 138327, Control_c, 0, 64, 36
1, 138342, Control_c, 0, 64, 44
1, 138357, Control_c, 0, 64, 50
1, 138372, Control_c, 0, 64, 54
1, 138387, Control_c, 0, 64, 58
1, 138401, Control_c, 0, 64, 60
1, 138416, Control_c, 0, 64, 61
1, 138431, Control_c, 0, 64, 62
1, 138446, Control_c, 0, 64, 62
1, 138461, Control_c, 0, 64, 63
1, 138475, Control_c, 0, 64, 62
1, 138490, Control_c, 0, 64, 60
1, 138505, Control_c, 0, 64, 53
1, 138519, Control_c, 0, 64, 41
1, 138534, Control_c, 0, 64, 26
1, 138549, Control_c, 0, 64, 8
1, 138555, Note_on_c, 0, 42, 66
1, 138564, Control_c, 0, 64, 0
1, 138568, Note_off_c, 0, 52, 67
1, 138579, Control_c, 0, 64, 10
1, 138593, Control_c, 0, 64, 33
1, 138608, Control_c, 0, 64, 48
1, 138623, Control_c, 0, 64, 57
1, 138637, Control_c, 0, 64, 62
1, 138652, Control_c, 0, 64, 65
1, 138667, Control_c, 0, 64, 68
1, 138682, Control_c, 0, 64, 75
1, 138705, Control_c, 0, 64, 89
1, 138720, Control_c, 0, 64, 127
1, 138729, Note_off_c, 0, 57, 54
1, 138872, Note_off_c, 0, 61, 54
1, 138898, Control_c, 0, 64, 102
1, 138913, Control_c, 0, 64, 84
1, 138928, Control_c, 0, 64, 73
1, 138938, Note_on_c, 0, 62, 66
1, 138940, Note_on_c, 0, 50, 48
1, 138940, Note_on_c, 0, 56, 66
1, 138940, Note_off_c, 0, 42, 34
1, 138941, Note_on_c, 0, 47, 43
1, 138942, Control_c, 0, 64, 66
1, 138957, Control_c, 0, 64, 57
1, 138972, Control_c, 0, 64, 45
1, 138987, Control_c, 0, 64, 31
1, 139002, Control_c, 0, 64, 23
1, 139016, Control_c, 0, 64, 22
1, 139031, Control_c, 0, 64, 23
1, 139039, Note_off_c, 0, 50, 62
1, 139046, Control_c, 0, 64, 42
1, 139061, Control_c, 0, 64, 56
1, 139076, Control_c, 0, 64, 62
1, 139090, Control_c, 0, 64, 65
1, 139105, Control_c, 0, 64, 67
1, 139120, Control_c, 0, 64, 71
1, 139135, Control_c, 0, 64, 79
1, 139147, Note_off_c, 0, 56, 60
1, 139150, Control_c, 0, 64, 92
1, 139165, Control_c, 0, 64, 118
1, 139180, Control_c, 0, 64, 127
1, 139212, Note_off_c, 0, 47, 34
1, 139296, Note_on_c, 0, 45, 56
1, 139298, Control_c, 0, 64, 96
1, 139304, Note_on_c, 0, 54, 63
1, 139308, Note_on_c, 0, 49, 46
1, 139313, Control_c, 0, 64, 76
1, 139328, Control_c, 0, 64, 62
1, 139342, Control_c, 0, 64, 34
1, 139357, Control_c, 0, 64, 0
1, 139387, Control_c, 0, 64, 25
1, 139402, Control_c, 0, 64, 46
1, 139416, Note_off_c, 0, 45, 51
1, 139416, Control_c, 0, 64, 60
1, 139431, Control_c, 0, 64, 64
1, 139454, Note_off_c, 0, 49, 61
1, 139454, Control_c, 0, 64, 66
1, 139468, Control_c, 0, 64, 68
1, 139483, Control_c, 0, 64, 71
1, 139498, Control_c, 0, 64, 78
1, 139499, Note_off_c, 0, 54, 56
1, 139513, Control_c, 0, 64, 92
1, 139528, Control_c, 0, 64, 115
1, 139543, Control_c, 0, 64, 127
1, 139633, Control_c, 0, 64, 102
1, 139641, Note_on_c, 0, 52, 63
1, 139647, Control_c, 0, 64, 86
1, 139648, Note_on_c, 0, 47, 46
1, 139652, Note_on_c, 0, 44, 52
1, 139662, Control_c, 0, 64, 74
1, 139677, Control_c, 0, 64, 65
1, 139692, Control_c, 0, 64, 52
1, 139706, Control_c, 0, 64, 37
1, 139721, Control_c, 0, 64, 31
1, 139899, Control_c, 0, 64, 31
1, 139961, Note_off_c, 0, 62, 39
1, 139964, Note_on_c, 0, 71, 60
1, 140018, Control_c, 0, 64, 32
1, 140047, Control_c, 0, 64, 32
1, 140062, Control_c, 0, 64, 33
1, 140077, Control_c, 0, 64, 33
1, 140082, Note_off_c, 0, 71, 59
1, 140092, Control_c, 0, 64, 34
1, 140102, Note_on_c, 0, 69, 60
1, 140122, Control_c, 0, 64, 34
1, 140151, Control_c, 0, 64, 35
1, 140218, Control_c, 0, 64, 35
1, 140250, Note_off_c, 0, 69, 54
1, 140262, Control_c, 0, 64, 36
1, 140282, Note_on_c, 0, 71, 57
1, 140394, Note_off_c, 0, 71, 64
1, 140515, Control_c, 0, 64, 36
1, 140584, Note_on_c, 0, 62, 48
1, 140714, Note_off_c, 0, 52, 38
1, 140728, Note_off_c, 0, 62, 61
1, 140791, Note_off_c, 0, 44, 61
1, 140881, Note_on_c, 0, 61, 45
1, 140886, Note_on_c, 0, 52, 30
1, 140891, Note_off_c, 0, 47, 40
1, 140924, Poly_aftertouch_c, 0, 45, 127
1, 141041, Control_c, 0, 64, 37
1, 141175, Control_c, 0, 64, 38
1, 141189, Note_on_c, 0, 64, 58
1, 141190, Control_c, 0, 64, 40
1, 141205, Control_c, 0, 64, 43
1, 141219, Control_c, 0, 64, 50
1, 141234, Control_c, 0, 64, 56
1, 141249, Control_c, 0, 64, 60
1, 141264, Control_c, 0, 64, 63
1, 141279, Control_c, 0, 64, 65
1, 141293, Control_c, 0, 64, 68
1, 141308, Control_c, 0, 64, 70
1, 141320, Note_off_c, 0, 64, 59
1, 141323, Control_c, 0, 64, 73
1, 141338, Control_c, 0, 64, 76
1, 141353, Control_c, 0, 64, 77
1, 141368, Control_c, 0, 64, 76
1, 141383, Control_c, 0, 64, 72
1, 141397, Control_c, 0, 64, 69
1, 141412, Control_c, 0, 64, 66
1, 141427, Control_c, 0, 64, 63
1, 141442, Control_c, 0, 64, 61
1, 141457, Control_c, 0, 64, 59
1, 141472, Control_c, 0, 64, 55
1, 141487, Control_c, 0, 64, 51
1, 141490, Poly_aftertouch_c, 0, 45, 0
1, 141495, Note_on_c, 0, 43, 46
1, 141501, Control_c, 0, 64, 45
1, 141514, Note_on_c, 0, 64, 66
1, 141516, Control_c, 0, 64, 40
1, 141531, Control_c, 0, 64, 35
1, 141545, Control_c, 0, 64, 31
1, 141560, Control_c, 0, 64, 24
1, 141575, Control_c, 0, 64, 15
1, 141590, Control_c, 0, 64, 0
1, 141619, Control_c, 0, 64, 16
1, 141634, Control_c, 0, 64, 40
1, 141649, Control_c, 0, 64, 55
1, 141657, Note_off_c, 0, 64, 62
1, 141664, Control_c, 0, 64, 62
1, 141679, Control_c, 0, 64, 65
1, 141701, Control_c, 0, 64, 68
1, 141716, Control_c, 0, 64, 73
1, 141731, Control_c, 0, 64, 82
1, 141745, Control_c, 0, 64, 96
1, 141760, Control_c, 0, 64, 108
1, 141766, Note_off_c, 0, 43, 62
1, 141775, Control_c, 0, 64, 111
1, 141790, Control_c, 0, 64, 102
1, 141805, Control_c, 0, 64, 93
1, 141819, Control_c, 0, 64, 86
1, 141822, Note_on_c, 0, 64, 73
1, 141834, Control_c, 0, 64, 82
1, 141849, Control_c, 0, 64, 79
1, 141863, Control_c, 0, 64, 77
1, 141878, Control_c, 0, 64, 74
1, 141893, Control_c, 0, 64, 72
1, 141908, Control_c, 0, 64, 72
1, 141968, Control_c, 0, 64, 71
1, 142006, Note_off_c, 0, 64, 38
1, 142013, Control_c, 0, 64, 71
1, 142028, Control_c, 0, 64, 70
1, 142042, Control_c, 0, 64, 70
1, 142087, Control_c, 0, 64, 69
1, 142102, Control_c, 0, 64, 68
1, 142107, Note_off_c, 0, 52, 42
1, 142116, Control_c, 0, 64, 66
1, 142131, Note_on_c, 0, 42, 49
1, 142131, Control_c, 0, 64, 64
1, 142137, Note_on_c, 0, 57, 61
1, 142143, Note_off_c, 0, 61, 57
1, 142146, Control_c, 0, 64, 63
1, 142160, Control_c, 0, 64, 61
1, 142175, Control_c, 0, 64, 59
1, 142190, Control_c, 0, 64, 56
1, 142205, Control_c, 0, 64, 53
1, 142220, Control_c, 0, 64, 49
1, 142234, Control_c, 0, 64, 46
1, 142249, Control_c, 0, 64, 45
1, 142264, Control_c, 0, 64, 44
1, 142279, Control_c, 0, 64, 42
1, 142294, Control_c, 0, 64, 41
1, 142308, Control_c, 0, 64, 40
1, 142338, Control_c, 0, 64, 40
1, 142415, Note_on_c, 0, 55, 38
1, 142419, Note_on_c, 0, 64, 57
1, 142427, Control_c, 0, 64, 40
1, 142449, Control_c, 0, 64, 44
1, 142464, Control_c, 0, 64, 49
1, 142479, Control_c, 0, 64, 53
1, 142493, Control_c, 0, 64, 57
1, 142494, Note_off_c, 0, 55, 0
1, 142494, Note_on_c, 0, 55, 15
1, 142508, Control_c, 0, 64, 60
1, 142523, Control_c, 0, 64, 61
1, 142538, Control_c, 0, 64, 63
1, 142553, Control_c, 0, 64, 64
1, 142567, Control_c, 0, 64, 66
1, 142582, Control_c, 0, 64, 67
1, 142597, Control_c, 0, 64, 68
1, 142656, Control_c, 0, 64, 67
1, 142657, Note_off_c, 0, 57, 55
1, 142671, Control_c, 0, 64, 67
1, 142686, Control_c, 0, 64, 66
1, 142700, Control_c, 0, 64, 65
1, 142715, Control_c, 0, 64, 65
1, 142730, Note_off_c, 0, 64, 36
1, 142730, Control_c, 0, 64, 64
1, 142733, Note_on_c, 0, 60, 71
1, 142739, Note_on_c, 0, 69, 56
1, 142745, Note_off_c, 0, 55, 45
1, 142746, Control_c, 0, 64, 63
1, 142752, Note_on_c, 0, 54, 45
1, 142761, Control_c, 0, 64, 61
1, 142776, Control_c, 0, 64, 59
1, 142790, Control_c, 0, 64, 57
1, 142805, Control_c, 0, 64, 56
1, 142820, Control_c, 0, 64, 54
1, 142835, Control_c, 0, 64, 53
1, 142850, Control_c, 0, 64, 51
1, 142864, Control_c, 0, 64, 50
1, 142879, Control_c, 0, 64, 49
1, 142894, Control_c, 0, 64, 48
1, 142909, Control_c, 0, 64, 48
1, 142924, Control_c, 0, 64, 46
1, 142939, Control_c, 0, 64, 45
1, 142954, Control_c, 0, 64, 43
1, 142968, Control_c, 0, 64, 42
1, 142983, Control_c, 0, 64, 41
1, 142998, Control_c, 0, 64, 40
1, 143028, Control_c, 0, 64, 41
1, 143031, Note_off_c, 0, 54, 63
1, 143043, Control_c, 0, 64, 47
1, 143044, Note_off_c, 0, 69, 49
1, 143045, Note_on_c, 0, 52, 47
1, 143055, Note_on_c, 0, 67, 59
1, 143057, Control_c, 0, 64, 54
1, 143072, Control_c, 0, 64, 59
1, 143087, Control_c, 0, 64, 62
1, 143100, Note_off_c, 0, 42, 56
1, 143102, Control_c, 0, 64, 64
1, 143108, Note_off_c, 0, 67, 60
1, 143116, Control_c, 0, 64, 66
1, 143131, Control_c, 0, 64, 67
1, 143146, Control_c, 0, 64, 69
1, 143161, Control_c, 0, 64, 71
1, 143176, Control_c, 0, 64, 72
1, 143198, Control_c, 0, 64, 73
1, 143213, Control_c, 0, 64, 75
1, 143228, Control_c, 0, 64, 75
1, 143258, Control_c, 0, 64, 75
1, 143272, Control_c, 0, 64, 74
1, 143287, Control_c, 0, 64, 74
1, 143302, Control_c, 0, 64, 72
1, 143316, Control_c, 0, 64, 70
1, 143326, Note_off_c, 0, 52, 53
1, 143331, Control_c, 0, 64, 67
1, 143344, Note_on_c, 0, 47, 43
1, 143346, Control_c, 0, 64, 64
1, 143350, Note_on_c, 0, 51, 43
1, 143359, Note_on_c, 0, 66, 51
1, 143361, Control_c, 0, 64, 62
1, 143376, Control_c, 0, 64, 61
1, 143390, Control_c, 0, 64, 60
1, 143405, Control_c, 0, 64, 59
1, 143420, Control_c, 0, 64, 57
1, 143427, Note_off_c, 0, 60, 62
1, 143435, Control_c, 0, 64, 54
1, 143450, Control_c, 0, 64, 51
1, 143464, Control_c, 0, 64, 50
1, 143479, Control_c, 0, 64, 49
1, 143555, Control_c, 0, 64, 49
1, 143669, Note_on_c, 0, 54, 59
1, 143881, Control_c, 0, 64, 49
1, 143983, Note_on_c, 0, 59, 64
1, 144015, Note_off_c, 0, 54, 57
1, 144298, Note_on_c, 0, 57, 69
1, 144305, Note_off_c, 0, 59, 58
1, 144613, Note_off_c, 0, 57, 62
1, 144620, Note_on_c, 0, 55, 63
1, 144623, Note_on_c, 0, 52, 53
1, 144641, Note_off_c, 0, 51, 43
1, 144642, Note_off_c, 0, 47, 56
1, 144642, Note_off_c, 0, 66, 62
1, 144930, Note_on_c, 0, 71, 83
1, 144930, Note_off_c, 0, 55, 55
1, 144936, Note_on_c, 0, 50, 50
1, 144944, Note_on_c, 0, 59, 60
1, 144951, Note_off_c, 0, 52, 60
1, 145096, Note_off_c, 0, 71, 60
1, 145252, Note_on_c, 0, 71, 82
1, 145255, Note_on_c, 0, 55, 60
1, 145256, Note_on_c, 0, 64, 61
1, 145273, Note_off_c, 0, 50, 63
1, 145294, Note_off_c, 0, 59, 43
1, 145395, Note_off_c, 0, 71, 58
1, 145547, Note_on_c, 0, 71, 83
1, 145555, Note_off_c, 0, 64, 64
1, 145562, Note_on_c, 0, 62, 64
1, 145654, Note_off_c, 0, 71, 58
1, 145760, Note_off_c, 0, 62, 56
1, 145860, Control_c, 0, 64, 49
1, 145861, Note_on_c, 0, 64, 78
1, 145875, Note_on_c, 0, 61, 63
1, 145875, Control_c, 0, 64, 47
1, 145889, Control_c, 0, 64, 46
1, 145903, Control_c, 0, 64, 43
1, 145918, Control_c, 0, 64, 40
1, 145934, Control_c, 0, 64, 39
1, 145949, Control_c, 0, 64, 39
1, 145994, Control_c, 0, 64, 38
1, 146152, Note_off_c, 0, 61, 54
1, 146158, Note_on_c, 0, 59, 61
1, 146444, Note_off_c, 0, 59, 49
1, 146495, Note_on_c, 0, 67, 76
1, 146497, Note_on_c, 0, 49, 42
1, 146498, Note_on_c, 0, 58, 51
1, 146517, Note_off_c, 0, 55, 55
1, 146586, Note_off_c, 0, 64, 38
1, 146796, Note_off_c, 0, 49, 48
1, 146802, Note_off_c, 0, 58, 62
1, 146806, Note_on_c, 0, 50, 42
1, 146817, Note_on_c, 0, 59, 51
1, 147094, Note_off_c, 0, 50, 58
1, 147115, Note_on_c, 0, 52, 45
1, 147120, Control_c, 0, 64, 39
1, 147135, Control_c, 0, 64, 42
1, 147139, Note_on_c, 0, 61, 42
1, 147150, Control_c, 0, 64, 47
1, 147164, Control_c, 0, 64, 52
1, 147179, Control_c, 0, 64, 57
1, 147194, Control_c, 0, 64, 59
1, 147209, Control_c, 0, 64, 61
1, 147224, Control_c, 0, 64, 62
1, 147238, Control_c, 0, 64, 63
1, 147249, Note_off_c, 0, 67, 59
1, 147258, Note_off_c, 0, 59, 44
1, 147258, Note_off_c, 0, 61, 59
1, 147298, Control_c, 0, 64, 62
1, 147312, Control_c, 0, 64, 62
1, 147327, Control_c, 0, 64, 61
1, 147342, Control_c, 0, 64, 61
1, 147356, Control_c, 0, 64, 60
1, 147371, Control_c, 0, 64, 59
1, 147387, Control_c, 0, 64, 57
1, 147402, Control_c, 0, 64, 55
1, 147417, Control_c, 0, 64, 54
1, 147418, Note_off_c, 0, 52, 62
1, 147428, Note_on_c, 0, 61, 64
1, 147431, Control_c, 0, 64, 53
1, 147436, Note_on_c, 0, 55, 40
1, 147440, Note_on_c, 0, 64, 50
1, 147446, Control_c, 0, 64, 52
1, 147461, Control_c, 0, 64, 52
1, 147476, Control_c, 0, 64, 50
1, 147491, Control_c, 0, 64, 49
1, 147505, Control_c, 0, 64, 49
1, 147520, Control_c, 0, 64, 48
1, 147705, Note_off_c, 0, 61, 52
1, 147735, Note_off_c, 0, 55, 52
1, 147736, Control_c, 0, 64, 48
1, 147737, Note_off_c, 0, 64, 59
1, 147752, Note_on_c, 0, 66, 60
1, 147760, Note_on_c, 0, 46, 34
1, 147762, Note_on_c, 0, 62, 46
1, 147765, Note_on_c, 0, 54, 37
1, 147929, Control_c, 0, 64, 49
1, 147944, Control_c, 0, 64, 50
1, 147958, Control_c, 0, 64, 52
1, 147973, Control_c, 0, 64, 54
1, 147988, Control_c, 0, 64, 55
1, 148003, Control_c, 0, 64, 55
1, 148041, Note_off_c, 0, 62, 55
1, 148047, Note_off_c, 0, 66, 59
1, 148065, Note_on_c, 0, 61, 41
1, 148067, Note_on_c, 0, 64, 57
1, 148077, Control_c, 0, 64, 56
1, 148092, Control_c, 0, 64, 57
1, 148107, Control_c, 0, 64, 59
1, 148122, Control_c, 0, 64, 60
1, 148136, Control_c, 0, 64, 60
1, 148151, Control_c, 0, 64, 61
1, 148166, Control_c, 0, 64, 62
1, 148180, Control_c, 0, 64, 63
1, 148195, Control_c, 0, 64, 64
1, 148209, Note_off_c, 0, 61, 60
1, 148210, Control_c, 0, 64, 64
1, 148226, Note_off_c, 0, 46, 53
1, 148269, Control_c, 0, 64, 64
1, 148299, Control_c, 0, 64, 63
1, 148313, Control_c, 0, 64, 61
1, 148330, Control_c, 0, 64, 57
1, 148345, Control_c, 0, 64, 51
1, 148358, Note_off_c, 0, 54, 47
1, 148359, Control_c, 0, 64, 44
1, 148360, Note_off_c, 0, 64, 54
1, 148370, Note_on_c, 0, 62, 61
1, 148374, Control_c, 0, 64, 40
1, 148376, Note_on_c, 0, 47, 45
1, 148385, Note_on_c, 0, 59, 53
1, 148389, Control_c, 0, 64, 38
1, 148545, Control_c, 0, 64, 38
1, 148574, Control_c, 0, 64, 39
1, 148618, Control_c, 0, 64, 39
1, 148665, Note_off_c, 0, 59, 37
1, 148692, Control_c, 0, 64, 40
1, 148695, Note_on_c, 0, 66, 74
1, 148713, Note_on_c, 0, 57, 57
1, 148730, Note_off_c, 0, 62, 39
1, 149010, Note_on_c, 0, 56, 60
1, 149013, Note_on_c, 0, 71, 84
1, 149013, Note_off_c, 0, 57, 59
1, 149041, Note_off_c, 0, 66, 61
1, 149328, Note_on_c, 0, 54, 58
1, 149338, Note_off_c, 0, 56, 58
1, 149343, Note_on_c, 0, 69, 77
1, 149364, Note_off_c, 0, 71, 54
1, 149514, Note_off_c, 0, 47, 32
1, 149625, Note_off_c, 0, 69, 61
1, 149644, Note_on_c, 0, 68, 80
1, 149652, Note_off_c, 0, 54, 63
1, 149660, Note_on_c, 0, 52, 58
1, 149952, Control_c, 0, 64, 39
1, 149968, Note_on_c, 0, 71, 87
1, 149973, Note_on_c, 0, 50, 62
1, 150085, Control_c, 0, 64, 39
1, 150263, Control_c, 0, 64, 38
1, 150287, Note_on_c, 0, 49, 53
1, 150288, Note_on_c, 0, 76, 86
1, 150293, Note_off_c, 0, 50, 60
1, 150325, Note_off_c, 0, 71, 60
1, 150367, Control_c, 0, 64, 38
1, 150426, Control_c, 0, 64, 37
1, 150573, Note_off_c, 0, 49, 60
1, 150593, Note_on_c, 0, 74, 75
1, 150607, Note_on_c, 0, 47, 49
1, 150638, Note_off_c, 0, 76, 59
1, 150667, Note_off_c, 0, 68, 58
1, 150906, Note_off_c, 0, 52, 36
1, 150912, Note_on_c, 0, 45, 49
1, 150913, Note_off_c, 0, 47, 54
1, 150917, Note_on_c, 0, 73, 69
1, 150924, Note_off_c, 0, 74, 57
1, 151216, Note_on_c, 0, 52, 48
1, 151220, Note_on_c, 0, 69, 64
1, 151345, Note_off_c, 0, 69, 61
1, 151508, Control_c, 0, 64, 38
1, 151536, Note_on_c, 0, 57, 54
1, 151539, Control_c, 0, 64, 42
1, 151541, Note_on_c, 0, 69, 72
1, 151553, Control_c, 0, 64, 51
1, 151568, Control_c, 0, 64, 57
1, 151583, Control_c, 0, 64, 61
1, 151598, Control_c, 0, 64, 63
1, 151613, Control_c, 0, 64, 64
1, 151626, Note_off_c, 0, 45, 57
1, 151627, Control_c, 0, 64, 65
1, 151642, Control_c, 0, 64, 66
1, 151649, Note_off_c, 0, 69, 62
1, 151655, Note_off_c, 0, 57, 58
1, 151657, Control_c, 0, 64, 66
1, 151672, Control_c, 0, 64, 67
1, 151687, Control_c, 0, 64, 68
1, 151701, Control_c, 0, 64, 69
1, 151731, Control_c, 0, 64, 69
1, 151746, Control_c, 0, 64, 67
1, 151761, Control_c, 0, 64, 64
1, 151775, Control_c, 0, 64, 59
1, 151790, Control_c, 0, 64, 54
1, 151805, Control_c, 0, 64, 48
1, 151820, Control_c, 0, 64, 43
1, 151834, Control_c, 0, 64, 42
1, 151839, Note_on_c, 0, 45, 48
1, 151840, Note_on_c, 0, 69, 79
1, 151852, Note_on_c, 0, 55, 55
1, 151864, Control_c, 0, 64, 47
1, 151880, Control_c, 0, 64, 55
1, 151892, Note_off_c, 0, 52, 36
1, 151895, Control_c, 0, 64, 61
1, 151909, Control_c, 0, 64, 64
1, 151924, Control_c, 0, 64, 67
1, 151935, Note_off_c, 0, 69, 65
1, 151936, Note_off_c, 0, 45, 64
1, 151939, Control_c, 0, 64, 70
1, 151940, Note_off_c, 0, 73, 66
1, 151954, Control_c, 0, 64, 73
1, 151969, Control_c, 0, 64, 79
1, 151983, Control_c, 0, 64, 86
1, 151998, Control_c, 0, 64, 94
1, 152013, Control_c, 0, 64, 97
1, 152042, Control_c, 0, 64, 96
1, 152057, Control_c, 0, 64, 94
1, 152072, Control_c, 0, 64, 92
1, 152087, Control_c, 0, 64, 89
1, 152102, Control_c, 0, 64, 85
1, 152117, Control_c, 0, 64, 79
1, 152132, Control_c, 0, 64, 73
1, 152141, Note_off_c, 0, 55, 58
1, 152143, Note_on_c, 0, 47, 45
1, 152146, Control_c, 0, 64, 66
1, 152159, Note_on_c, 0, 54, 49
1, 152161, Control_c, 0, 64, 61
1, 152162, Note_on_c, 0, 62, 78
1, 152183, Control_c, 0, 64, 53
1, 152198, Control_c, 0, 64, 48
1, 152213, Control_c, 0, 64, 46
1, 152227, Control_c, 0, 64, 45
1, 152242, Control_c, 0, 64, 45
1, 152257, Control_c, 0, 64, 44
1, 152272, Control_c, 0, 64, 43
1, 152287, Control_c, 0, 64, 40
1, 152302, Control_c, 0, 64, 38
1, 152317, Control_c, 0, 64, 36
1, 152451, Control_c, 0, 64, 40
1, 152463, Note_off_c, 0, 54, 64
1, 152466, Control_c, 0, 64, 45
1, 152475, Note_on_c, 0, 74, 74
1, 152479, Note_on_c, 0, 52, 45
1, 152480, Control_c, 0, 64, 51
1, 152495, Control_c, 0, 64, 56
1, 152510, Control_c, 0, 64, 58
1, 152525, Control_c, 0, 64, 59
1, 152555, Control_c, 0, 64, 60
1, 152558, Note_off_c, 0, 74, 58
1, 152569, Control_c, 0, 64, 61
1, 152584, Control_c, 0, 64, 62
1, 152599, Control_c, 0, 64, 62
1, 152614, Control_c, 0, 64, 63
1, 152643, Control_c, 0, 64, 63
1, 152672, Control_c, 0, 64, 64
1, 152687, Control_c, 0, 64, 63
1, 152717, Control_c, 0, 64, 63
1, 152746, Control_c, 0, 64, 61
1, 152749, Note_off_c, 0, 52, 60
1, 152761, Note_on_c, 0, 50, 50
1, 152761, Control_c, 0, 64, 59
1, 152762, Note_on_c, 0, 74, 82
1, 152773, Note_on_c, 0, 66, 66
1, 152776, Note_off_c, 0, 62, 60
1, 152776, Control_c, 0, 64, 54
1, 152791, Control_c, 0, 64, 47
1, 152805, Control_c, 0, 64, 39
1, 152820, Control_c, 0, 64, 34
1, 152835, Control_c, 0, 64, 33
1, 152844, Note_off_c, 0, 47, 60
1, 152865, Control_c, 0, 64, 38
1, 152880, Control_c, 0, 64, 46
1, 152895, Control_c, 0, 64, 53
1, 152910, Control_c, 0, 64, 57
1, 152931, Control_c, 0, 64, 60
1, 152936, Note_off_c, 0, 74, 57
1, 152946, Control_c, 0, 64, 61
1, 152961, Control_c, 0, 64, 62
1, 152975, Control_c, 0, 64, 63
1, 152990, Control_c, 0, 64, 63
1, 153020, Control_c, 0, 64, 62
1, 153035, Control_c, 0, 64, 58
1, 153050, Control_c, 0, 64, 43
1, 153065, Control_c, 0, 64, 0
1, 153075, Note_on_c, 0, 74, 86
1, 153090, Note_on_c, 0, 47, 58
1, 153109, Control_c, 0, 64, 37
1, 153125, Control_c, 0, 64, 54
1, 153140, Note_off_c, 0, 50, 63
1, 153140, Control_c, 0, 64, 61
1, 153147, Note_off_c, 0, 47, 61
1, 153154, Control_c, 0, 64, 64
1, 153159, Note_off_c, 0, 74, 62
1, 153169, Control_c, 0, 64, 66
1, 153184, Control_c, 0, 64, 68
1, 153199, Control_c, 0, 64, 71
1, 153214, Control_c, 0, 64, 75
1, 153229, Control_c, 0, 64, 79
1, 153244, Control_c, 0, 64, 83
1, 153259, Control_c, 0, 64, 87
1, 153273, Control_c, 0, 64, 88
1, 153318, Control_c, 0, 64, 88
1, 153333, Control_c, 0, 64, 86
1, 153347, Control_c, 0, 64, 82
1, 153362, Control_c, 0, 64, 74
1, 153370, Note_on_c, 0, 40, 47
1, 153373, Note_on_c, 0, 67, 82
1, 153377, Control_c, 0, 64, 65
1, 153381, Note_on_c, 0, 52, 44
1, 153391, Control_c, 0, 64, 55
1, 153406, Control_c, 0, 64, 44
1, 153421, Control_c, 0, 64, 40
1, 153451, Control_c, 0, 64, 42
1, 153465, Control_c, 0, 64, 48
1, 153480, Control_c, 0, 64, 54
1, 153491, Note_off_c, 0, 52, 62
1, 153495, Control_c, 0, 64, 59
1, 153510, Control_c, 0, 64, 62
1, 153523, Note_off_c, 0, 66, 55
1, 153525, Control_c, 0, 64, 64
1, 153539, Control_c, 0, 64, 67
1, 153554, Control_c, 0, 64, 69
1, 153569, Control_c, 0, 64, 72
1, 153584, Control_c, 0, 64, 75
1, 153598, Control_c, 0, 64, 78
1, 153613, Control_c, 0, 64, 79
1, 153643, Control_c, 0, 64, 78
1, 153658, Control_c, 0, 64, 76
1, 153680, Control_c, 0, 64, 72
1, 153691, Note_on_c, 0, 59, 61
1, 153695, Control_c, 0, 64, 66
1, 153703, Note_on_c, 0, 54, 51
1, 153710, Control_c, 0, 64, 60
1, 153725, Control_c, 0, 64, 54
1, 153754, Control_c, 0, 64, 57
1, 153769, Control_c, 0, 64, 62
1, 153784, Control_c, 0, 64, 66
1, 153798, Control_c, 0, 64, 69
1, 153813, Control_c, 0, 64, 73
1, 153825, Note_off_c, 0, 40, 41
1, 153828, Control_c, 0, 64, 78
1, 153841, Note_off_c, 0, 59, 50
1, 153843, Control_c, 0, 64, 84
1, 153858, Control_c, 0, 64, 92
1, 153873, Control_c, 0, 64, 101
1, 153879, Note_off_c, 0, 54, 60
1, 153887, Control_c, 0, 64, 111
1, 153902, Control_c, 0, 64, 123
1, 153918, Control_c, 0, 64, 127
1, 153948, Control_c, 0, 64, 115
1, 153963, Control_c, 0, 64, 111
1, 153977, Control_c, 0, 64, 105
1, 153992, Control_c, 0, 64, 99
1, 154007, Control_c, 0, 64, 90
1, 154011, Note_on_c, 0, 71, 74
1, 154013, Note_on_c, 0, 55, 50
1, 154013, Note_off_c, 0, 67, 60
1, 154022, Note_on_c, 0, 64, 56
1, 154022, Control_c, 0, 64, 79
1, 154037, Control_c, 0, 64, 67
1, 154051, Control_c, 0, 64, 60
1, 154066, Control_c, 0, 64, 53
1, 154081, Control_c, 0, 64, 51
1, 154156, Control_c, 0, 64, 51
1, 154287, Note_off_c, 0, 64, 62
1, 154301, Note_on_c, 0, 52, 43
1, 154312, Note_on_c, 0, 62, 48
1, 154314, Note_off_c, 0, 55, 52
1, 154612, Note_off_c, 0, 62, 44
1, 154623, Note_off_c, 0, 52, 55
1, 154630, Note_on_c, 0, 45, 36
1, 154634, Note_on_c, 0, 61, 47
1, 154636, Note_on_c, 0, 55, 39
1, 154725, Note_off_c, 0, 55, 62
1, 154830, Control_c, 0, 64, 51
1, 154913, Note_off_c, 0, 71, 35
1, 154934, Note_on_c, 0, 55, 45
1, 154942, Note_on_c, 0, 64, 56
1, 154978, Control_c, 0, 64, 52
1, 155265, Note_on_c, 0, 54, 39
1, 155272, Note_on_c, 0, 69, 59
1, 155275, Note_off_c, 0, 55, 37
1, 155276, Note_off_c, 0, 64, 57
1, 155400, Control_c, 0, 64, 51
1, 155415, Control_c, 0, 64, 51
1, 155430, Control_c, 0, 64, 50
1, 155444, Control_c, 0, 64, 50
1, 155459, Control_c, 0, 64, 49
1, 155474, Control_c, 0, 64, 49
1, 155520, Control_c, 0, 64, 49
1, 155535, Control_c, 0, 64, 53
1, 155543, Note_off_c, 0, 54, 51
1, 155549, Control_c, 0, 64, 57
1, 155557, Note_off_c, 0, 69, 55
1, 155564, Control_c, 0, 64, 60
1, 155569, Note_on_c, 0, 52, 38
1, 155579, Control_c, 0, 64, 61
1, 155584, Note_on_c, 0, 67, 52
1, 155594, Control_c, 0, 64, 62
1, 155608, Note_off_c, 0, 61, 58
1, 155609, Note_off_c, 0, 45, 62
1, 155609, Control_c, 0, 64, 62
1, 155624, Control_c, 0, 64, 63
1, 155639, Control_c, 0, 64, 65
1, 155654, Control_c, 0, 64, 67
1, 155668, Control_c, 0, 64, 71
1, 155683, Control_c, 0, 64, 76
1, 155698, Control_c, 0, 64, 82
1, 155713, Control_c, 0, 64, 89
1, 155725, Note_off_c, 0, 52, 40
1, 155728, Control_c, 0, 64, 96
1, 155742, Control_c, 0, 64, 103
1, 155757, Control_c, 0, 64, 108
1, 155772, Control_c, 0, 64, 109
1, 155787, Control_c, 0, 64, 106
1, 155802, Control_c, 0, 64, 101
1, 155816, Control_c, 0, 64, 92
1, 155831, Control_c, 0, 64, 81
1, 155846, Control_c, 0, 64, 70
1, 155848, Note_off_c, 0, 67, 58
1, 155861, Control_c, 0, 64, 62
1, 155876, Control_c, 0, 64, 52
1, 155876, Note_on_c, 0, 38, 37
1, 155881, Note_on_c, 0, 66, 51
1, 155882, Note_on_c, 0, 50, 40
1, 155891, Control_c, 0, 64, 50
1, 155906, Control_c, 0, 64, 52
1, 155928, Control_c, 0, 64, 58
1, 155929, Note_off_c, 0, 38, 58
1, 155942, Control_c, 0, 64, 63
1, 155957, Control_c, 0, 64, 67
1, 155971, Note_off_c, 0, 50, 63
1, 155972, Control_c, 0, 64, 69
1, 155987, Control_c, 0, 64, 72
1, 156001, Control_c, 0, 64, 74
1, 156016, Control_c, 0, 64, 77
1, 156031, Control_c, 0, 64, 79
1, 156046, Control_c, 0, 64, 82
1, 156061, Control_c, 0, 64, 85
1, 156075, Control_c, 0, 64, 88
1, 156090, Control_c, 0, 64, 93
1, 156105, Control_c, 0, 64, 99
1, 156120, Control_c, 0, 64, 103
1, 156135, Control_c, 0, 64, 104
1, 156208, Note_on_c, 0, 57, 52
1, 156283, Control_c, 0, 64, 103
1, 156298, Control_c, 0, 64, 102
1, 156339, Note_off_c, 0, 66, 44
1, 156417, Control_c, 0, 64, 101
1, 156432, Control_c, 0, 64, 101
1, 156446, Control_c, 0, 64, 100
1, 156461, Control_c, 0, 64, 98
1, 156476, Control_c, 0, 64, 96
1, 156486, Note_off_c, 0, 57, 57
1, 156490, Control_c, 0, 64, 93
1, 156505, Control_c, 0, 64, 88
1, 156520, Control_c, 0, 64, 80
1, 156529, Note_on_c, 0, 62, 47
1, 156535, Control_c, 0, 64, 72
1, 156550, Control_c, 0, 64, 65
1, 156564, Control_c, 0, 64, 60
1, 156579, Control_c, 0, 64, 56
1, 156594, Control_c, 0, 64, 55
1, 156676, Control_c, 0, 64, 55
1, 156691, Control_c, 0, 64, 54
1, 156837, Note_off_c, 0, 62, 51
1, 156841, Note_on_c, 0, 60, 50
1, 156847, Note_on_c, 0, 69, 63
1, 156898, Control_c, 0, 64, 55
1, 157076, Control_c, 0, 64, 55
1, 157149, Note_off_c, 0, 69, 63
1, 157154, Note_on_c, 0, 59, 55
1, 157154, Note_on_c, 0, 74, 77
1, 157156, Note_off_c, 0, 60, 59
1, 157166, Control_c, 0, 64, 56
1, 157425, Control_c, 0, 64, 56
1, 157456, Note_off_c, 0, 74, 63
1, 157472, Note_on_c, 0, 72, 78
1, 157474, Note_on_c, 0, 62, 58
1, 157514, Control_c, 0, 64, 57
1, 157543, Control_c, 0, 64, 57
1, 157680, Note_off_c, 0, 59, 35
1, 157753, Note_off_c, 0, 62, 32
1, 157783, Note_on_c, 0, 71, 81
1, 157796, Note_on_c, 0, 67, 65
1, 157804, Note_off_c, 0, 72, 56
1, 158077, Control_c, 0, 64, 57
1, 158088, Note_on_c, 0, 74, 83
1, 158094, Note_off_c, 0, 67, 60
1, 158099, Note_on_c, 0, 66, 64
1, 158112, Note_off_c, 0, 71, 52
1, 158337, Control_c, 0, 64, 56
1, 158381, Control_c, 0, 64, 56
1, 158396, Control_c, 0, 64, 55
1, 158423, Note_on_c, 0, 79, 90
1, 158430, Note_off_c, 0, 74, 63
1, 158439, Note_on_c, 0, 64, 63
1, 158455, Control_c, 0, 64, 57
1, 158465, Note_off_c, 0, 66, 54
1, 158469, Control_c, 0, 64, 59
1, 158484, Control_c, 0, 64, 61
1, 158499, Control_c, 0, 64, 64
1, 158514, Control_c, 0, 64, 67
1, 158529, Control_c, 0, 64, 70
1, 158536, Note_off_c, 0, 64, 63
1, 158544, Control_c, 0, 64, 73
1, 158559, Control_c, 0, 64, 77
1, 158573, Control_c, 0, 64, 81
1, 158588, Control_c, 0, 64, 87
1, 158603, Control_c, 0, 64, 98
1, 158618, Control_c, 0, 64, 112
1, 158633, Control_c, 0, 64, 127
1, 158708, Control_c, 0, 64, 123
1, 158723, Control_c, 0, 64, 111
1, 158737, Control_c, 0, 64, 102
1, 158752, Control_c, 0, 64, 95
1, 158755, Note_on_c, 0, 62, 57
1, 158756, Note_on_c, 0, 52, 59
1, 158767, Control_c, 0, 64, 90
1, 158782, Control_c, 0, 64, 86
1, 158797, Control_c, 0, 64, 81
1, 158812, Control_c, 0, 64, 77
1, 158827, Control_c, 0, 64, 72
1, 158841, Control_c, 0, 64, 67
1, 158856, Control_c, 0, 64, 63
1, 158871, Control_c, 0, 64, 60
1, 158885, Control_c, 0, 64, 59
1, 158967, Control_c, 0, 64, 58
1, 158982, Control_c, 0, 64, 58
1, 159012, Control_c, 0, 64, 57
1, 159066, Note_on_c, 0, 78, 88
1, 159071, Note_off_c, 0, 62, 62
1, 159072, Note_on_c, 0, 57, 64
1, 159079, Note_off_c, 0, 79, 66
1, 159083, Note_on_c, 0, 61, 64
1, 159086, Control_c, 0, 64, 57
1, 159105, Note_off_c, 0, 52, 59
1, 159204, Control_c, 0, 64, 56
1, 159380, Note_on_c, 0, 55, 61
1, 159384, Note_on_c, 0, 76, 86
1, 159385, Note_off_c, 0, 57, 50
1, 159396, Control_c, 0, 64, 56
1, 159402, Note_off_c, 0, 78, 60
1, 159470, Control_c, 0, 64, 56
1, 159515, Control_c, 0, 64, 57
1, 159530, Control_c, 0, 64, 57
1, 159545, Control_c, 0, 64, 58
1, 159648, Control_c, 0, 64, 57
1, 159670, Control_c, 0, 64, 56
1, 159685, Control_c, 0, 64, 53
1, 159688, Note_off_c, 0, 61, 61
1, 159696, Note_on_c, 0, 54, 63
1, 159699, Note_on_c, 0, 81, 85
1, 159700, Control_c, 0, 64, 49
1, 159704, Note_on_c, 0, 62, 58
1, 159710, Note_off_c, 0, 76, 65
1, 159712, Note_off_c, 0, 55, 38
1, 159715, Control_c, 0, 64, 47
1, 159730, Control_c, 0, 64, 46
1, 159819, Control_c, 0, 64, 47
1, 159833, Control_c, 0, 64, 48
1, 159841, Note_off_c, 0, 62, 62
1, 159848, Control_c, 0, 64, 50
1, 159863, Control_c, 0, 64, 51
1, 159878, Control_c, 0, 64, 54
1, 159893, Control_c, 0, 64, 57
1, 159907, Control_c, 0, 64, 60
1, 159922, Control_c, 0, 64, 62
1, 159937, Control_c, 0, 64, 63
1, 159952, Control_c, 0, 64, 65
1, 159967, Control_c, 0, 64, 67
1, 159981, Control_c, 0, 64, 70
1, 159996, Control_c, 0, 64, 74
1, 160004, Note_on_c, 0, 57, 65
1, 160004, Note_on_c, 0, 79, 87
1, 160005, Note_on_c, 0, 64, 60
1, 160007, Note_off_c, 0, 54, 62
1, 160009, Note_off_c, 0, 81, 49
1, 160011, Control_c, 0, 64, 77
1, 160019, Poly_aftertouch_c, 0, 75, 0
1, 160026, Control_c, 0, 64, 80
1, 160040, Control_c, 0, 64, 82
1, 160055, Control_c, 0, 64, 85
1, 160068, Note_off_c, 0, 79, 65
1, 160070, Control_c, 0, 64, 86
1, 160085, Control_c, 0, 64, 87
1, 160129, Control_c, 0, 64, 87
1, 160139, Note_off_c, 0, 64, 56
1, 160144, Control_c, 0, 64, 88
1, 160159, Control_c, 0, 64, 89
1, 160174, Control_c, 0, 64, 89
1, 160189, Control_c, 0, 64, 89
1, 160219, Control_c, 0, 64, 88
1, 160233, Control_c, 0, 64, 88
1, 160248, Control_c, 0, 64, 86
1, 160263, Control_c, 0, 64, 85
1, 160278, Control_c, 0, 64, 83
1, 160293, Control_c, 0, 64, 82
1, 160308, Control_c, 0, 64, 80
1, 160323, Control_c, 0, 64, 77
1, 160338, Note_on_c, 0, 78, 88
1, 160338, Control_c, 0, 64, 72
1, 160339, Note_off_c, 0, 57, 58
1, 160344, Note_on_c, 0, 62, 57
1, 160353, Control_c, 0, 64, 67
1, 160358, Note_on_c, 0, 66, 57
1, 160368, Control_c, 0, 64, 64
1, 160383, Control_c, 0, 64, 62
1, 160398, Control_c, 0, 64, 61
1, 160419, Control_c, 0, 64, 60
1, 160434, Control_c, 0, 64, 59
1, 160449, Control_c, 0, 64, 58
1, 160463, Control_c, 0, 64, 57
1, 160478, Control_c, 0, 64, 57
1, 160493, Control_c, 0, 64, 56
1, 160508, Control_c, 0, 64, 56
1, 160523, Control_c, 0, 64, 54
1, 160538, Control_c, 0, 64, 54
1, 160621, Note_off_c, 0, 78, 59
1, 160656, Note_on_c, 0, 76, 74
1, 160667, Note_on_c, 0, 61, 51
1, 160670, Note_off_c, 0, 62, 60
1, 160686, Control_c, 0, 64, 53
1, 160943, Note_off_c, 0, 61, 60
1, 160955, Note_off_c, 0, 76, 58
1, 160960, Note_on_c, 0, 74, 70
1, 160968, Note_on_c, 0, 59, 46
1, 161071, Control_c, 0, 64, 54
1, 161086, Control_c, 0, 64, 55
1, 161101, Control_c, 0, 64, 56
1, 161116, Control_c, 0, 64, 57
1, 161131, Control_c, 0, 64, 58
1, 161146, Control_c, 0, 64, 59
1, 161257, Control_c, 0, 64, 60
1, 161272, Control_c, 0, 64, 62
1, 161276, Note_on_c, 0, 47, 37
1, 161286, Control_c, 0, 64, 64
1, 161301, Control_c, 0, 64, 65
1, 161316, Control_c, 0, 64, 67
1, 161331, Control_c, 0, 64, 70
1, 161338, Note_off_c, 0, 74, 63
1, 161346, Control_c, 0, 64, 74
1, 161361, Control_c, 0, 64, 77
1, 161376, Control_c, 0, 64, 81
1, 161390, Control_c, 0, 64, 82
1, 161405, Control_c, 0, 64, 83
1, 161432, Note_off_c, 0, 59, 40
1, 161445, Note_off_c, 0, 66, 56
1, 161479, Control_c, 0, 64, 83
1, 161509, Control_c, 0, 64, 82
1, 161524, Control_c, 0, 64, 82
1, 161539, Control_c, 0, 64, 81
1, 161553, Control_c, 0, 64, 79
1, 161568, Control_c, 0, 64, 77
1, 161583, Control_c, 0, 64, 75
1, 161586, Note_on_c, 0, 59, 34
1, 161590, Note_on_c, 0, 52, 51
1, 161596, Note_on_c, 0, 73, 67
1, 161598, Control_c, 0, 64, 73
1, 161613, Control_c, 0, 64, 69
1, 161620, Note_on_c, 0, 68, 46
1, 161627, Control_c, 0, 64, 66
1, 161642, Control_c, 0, 64, 63
1, 161648, Note_off_c, 0, 47, 34
1, 161657, Control_c, 0, 64, 61
1, 161672, Control_c, 0, 64, 59
1, 161686, Control_c, 0, 64, 59
1, 161716, Control_c, 0, 64, 58
1, 161746, Control_c, 0, 64, 58
1, 161760, Control_c, 0, 64, 57
1, 161790, Control_c, 0, 64, 57
1, 161863, Note_off_c, 0, 73, 58
1, 161893, Note_off_c, 0, 52, 50
1, 161894, Note_on_c, 0, 50, 46
1, 161894, Note_on_c, 0, 71, 72
1, 162198, Note_on_c, 0, 76, 75
1, 162205, Note_off_c, 0, 71, 63
1, 162207, Note_on_c, 0, 49, 40
1, 162243, Control_c, 0, 64, 57
1, 162248, Note_off_c, 0, 59, 44
1, 162249, Note_off_c, 0, 50, 27
1, 162255, Note_off_c, 0, 68, 36
1, 162258, Control_c, 0, 64, 60
1, 162273, Control_c, 0, 64, 62
1, 162288, Control_c, 0, 64, 63
1, 162303, Control_c, 0, 64, 64
1, 162317, Control_c, 0, 64, 65
1, 162332, Control_c, 0, 64, 66
1, 162347, Control_c, 0, 64, 67
1, 162362, Control_c, 0, 64, 68
1, 162377, Control_c, 0, 64, 69
1, 162391, Control_c, 0, 64, 69
1, 162406, Control_c, 0, 64, 69
1, 162421, Control_c, 0, 64, 67
1, 162435, Control_c, 0, 64, 65
1, 162450, Control_c, 0, 64, 62
1, 162465, Control_c, 0, 64, 57
1, 162480, Control_c, 0, 64, 56
1, 162509, Control_c, 0, 64, 57
1, 162514, Note_off_c, 0, 76, 55
1, 162523, Note_on_c, 0, 74, 70
1, 162524, Control_c, 0, 64, 61
1, 162527, Note_on_c, 0, 59, 39
1, 162539, Control_c, 0, 64, 64
1, 162540, Note_on_c, 0, 52, 48
1, 162540, Note_on_c, 0, 68, 60
1, 162554, Control_c, 0, 64, 66
1, 162568, Note_off_c, 0, 49, 50
1, 162569, Control_c, 0, 64, 67
1, 162583, Control_c, 0, 64, 69
1, 162594, Note_off_c, 0, 52, 64
1, 162598, Control_c, 0, 64, 71
1, 162613, Control_c, 0, 64, 74
1, 162627, Note_off_c, 0, 74, 60
1, 162627, Control_c, 0, 64, 77
1, 162638, Note_off_c, 0, 59, 52
1, 162642, Control_c, 0, 64, 78
1, 162665, Control_c, 0, 64, 79
1, 162680, Control_c, 0, 64, 81
1, 162695, Control_c, 0, 64, 81
1, 162718, Note_off_c, 0, 68, 54
1, 162726, Control_c, 0, 64, 81
1, 162740, Control_c, 0, 64, 80
1, 162785, Control_c, 0, 64, 79
1, 162800, Control_c, 0, 64, 77
1, 162814, Control_c, 0, 64, 73
1, 162829, Control_c, 0, 64, 69
1, 162844, Control_c, 0, 64, 66
1, 162848, Note_on_c, 0, 57, 41
1, 162859, Control_c, 0, 64, 64
1, 162860, Note_on_c, 0, 73, 61
1, 162863, Note_on_c, 0, 61, 37
1, 162866, Note_on_c, 0, 69, 43
1, 162874, Control_c, 0, 64, 63
1, 162888, Control_c, 0, 64, 61
1, 162903, Control_c, 0, 64, 60
1, 162918, Control_c, 0, 64, 58
1, 162932, Control_c, 0, 64, 57
1, 162947, Control_c, 0, 64, 57
1, 162977, Control_c, 0, 64, 56
1, 162992, Control_c, 0, 64, 55
1, 163006, Control_c, 0, 64, 54
1, 163021, Control_c, 0, 64, 54
1, 163081, Control_c, 0, 64, 53
1, 163110, Control_c, 0, 64, 53
1, 163119, Note_off_c, 0, 73, 51
1, 163140, Control_c, 0, 64, 52
1, 163143, Note_off_c, 0, 57, 58
1, 163155, Note_on_c, 0, 56, 45
1, 163155, Note_on_c, 0, 71, 62
1, 163161, Note_on_c, 0, 64, 52
1, 163163, Note_off_c, 0, 69, 55
1, 163170, Control_c, 0, 64, 52
1, 163258, Control_c, 0, 64, 51
1, 163414, Control_c, 0, 64, 51
1, 163465, Note_off_c, 0, 71, 58
1, 163473, Note_off_c, 0, 64, 58
1, 163475, Note_on_c, 0, 69, 62
1, 163481, Note_on_c, 0, 54, 46
1, 163481, Note_off_c, 0, 56, 51
1, 163504, Control_c, 0, 64, 53
1, 163519, Control_c, 0, 64, 57
1, 163534, Control_c, 0, 64, 60
1, 163549, Control_c, 0, 64, 63
1, 163563, Control_c, 0, 64, 65
1, 163578, Control_c, 0, 64, 66
1, 163581, Note_off_c, 0, 61, 43
1, 163593, Control_c, 0, 64, 68
1, 163608, Control_c, 0, 64, 70
1, 163623, Control_c, 0, 64, 73
1, 163637, Control_c, 0, 64, 75
1, 163652, Control_c, 0, 64, 78
1, 163667, Control_c, 0, 64, 79
1, 163696, Control_c, 0, 64, 79
1, 163711, Control_c, 0, 64, 78
1, 163726, Control_c, 0, 64, 78
1, 163741, Control_c, 0, 64, 77
1, 163755, Control_c, 0, 64, 76
1, 163770, Control_c, 0, 64, 72
1, 163772, Note_off_c, 0, 69, 62
1, 163780, Note_on_c, 0, 57, 50
1, 163781, Note_on_c, 0, 73, 71
1, 163785, Control_c, 0, 64, 68
1, 163792, Note_on_c, 0, 52, 42
1, 163799, Note_on_c, 0, 68, 48
1, 163800, Control_c, 0, 64, 63
1, 163815, Control_c, 0, 64, 61
1, 163829, Control_c, 0, 64, 62
1, 163840, Note_off_c, 0, 54, 22
1, 163844, Control_c, 0, 64, 63
1, 163859, Control_c, 0, 64, 65
1, 163867, Note_off_c, 0, 52, 59
1, 163874, Control_c, 0, 64, 68
1, 163888, Control_c, 0, 64, 71
1, 163903, Control_c, 0, 64, 73
1, 163918, Control_c, 0, 64, 74
1, 163933, Control_c, 0, 64, 74
1, 163948, Control_c, 0, 64, 73
1, 163963, Control_c, 0, 64, 73
1, 163976, Note_off_c, 0, 68, 58
1, 163978, Control_c, 0, 64, 72
1, 163993, Control_c, 0, 64, 71
1, 164008, Control_c, 0, 64, 67
1, 164023, Control_c, 0, 64, 64
1, 164037, Control_c, 0, 64, 60
1, 164044, Note_off_c, 0, 57, 32
1, 164052, Control_c, 0, 64, 56
1, 164067, Control_c, 0, 64, 52
1, 164069, Note_off_c, 0, 73, 55
1, 164081, Control_c, 0, 64, 49
1, 164082, Note_on_c, 0, 50, 40
1, 164094, Note_on_c, 0, 71, 59
1, 164096, Control_c, 0, 64, 49
1, 164100, Note_on_c, 0, 62, 36
1, 164101, Note_on_c, 0, 66, 54
1, 164178, Control_c, 0, 64, 50
1, 164192, Control_c, 0, 64, 54
1, 164207, Control_c, 0, 64, 58
1, 164222, Control_c, 0, 64, 60
1, 164237, Control_c, 0, 64, 62
1, 164252, Control_c, 0, 64, 64
1, 164267, Control_c, 0, 64, 64
1, 164281, Control_c, 0, 64, 65
1, 164296, Control_c, 0, 64, 65
1, 164342, Control_c, 0, 64, 65
1, 164356, Control_c, 0, 64, 63
1, 164360, Note_off_c, 0, 71, 54
1, 164371, Control_c, 0, 64, 62
1, 164386, Control_c, 0, 64, 61
1, 164401, Control_c, 0, 64, 60
1, 164407, Note_off_c, 0, 62, 44
1, 164415, Note_on_c, 0, 61, 41
1, 164416, Control_c, 0, 64, 59
1, 164416, Note_on_c, 0, 69, 60
1, 164431, Control_c, 0, 64, 57
1, 164446, Control_c, 0, 64, 55
1, 164460, Control_c, 0, 64, 53
1, 164475, Control_c, 0, 64, 51
1, 164490, Control_c, 0, 64, 51
1, 164549, Control_c, 0, 64, 53
1, 164564, Control_c, 0, 64, 57
1, 164578, Control_c, 0, 64, 61
1, 164583, Note_off_c, 0, 69, 59
1, 164593, Control_c, 0, 64, 64
1, 164608, Control_c, 0, 64, 67
1, 164623, Control_c, 0, 64, 70
1, 164638, Control_c, 0, 64, 73
1, 164652, Control_c, 0, 64, 76
1, 164667, Control_c, 0, 64, 78
1, 164682, Control_c, 0, 64, 78
1, 164697, Control_c, 0, 64, 79
1, 164708, Note_off_c, 0, 50, 51
1, 164712, Note_off_c, 0, 66, 41
1, 164720, Note_on_c, 0, 64, 56
1, 164722, Note_on_c, 0, 68, 68
1, 164728, Note_on_c, 0, 59, 39
1, 164741, Note_off_c, 0, 61, 35
1, 164741, Control_c, 0, 64, 78
1, 164756, Control_c, 0, 64, 77
1, 164771, Control_c, 0, 64, 75
1, 164786, Control_c, 0, 64, 71
1, 164801, Control_c, 0, 64, 66
1, 164815, Control_c, 0, 64, 61
1, 164830, Control_c, 0, 64, 57
1, 164845, Control_c, 0, 64, 55
1, 164911, Note_off_c, 0, 64, 37
1, 165007, Note_off_c, 0, 59, 45
1, 165020, Note_on_c, 0, 49, 30
1, 165045, Control_c, 0, 64, 57
1, 165047, Note_on_c, 0, 64, 54
1, 165051, Note_off_c, 0, 68, 60
1, 165060, Control_c, 0, 64, 60
1, 165075, Control_c, 0, 64, 63
1, 165090, Control_c, 0, 64, 65
1, 165105, Control_c, 0, 64, 67
1, 165120, Control_c, 0, 64, 69
1, 165134, Control_c, 0, 64, 73
1, 165149, Control_c, 0, 64, 76
1, 165164, Control_c, 0, 64, 78
1, 165179, Control_c, 0, 64, 79
1, 165209, Control_c, 0, 64, 79
1, 165239, Control_c, 0, 64, 79
1, 165253, Control_c, 0, 64, 78
1, 165268, Control_c, 0, 64, 78
1, 165298, Control_c, 0, 64, 77
1, 165313, Control_c, 0, 64, 76
1, 165327, Control_c, 0, 64, 73
1, 165342, Control_c, 0, 64, 70
1, 165354, Note_off_c, 0, 64, 63
1, 165357, Control_c, 0, 64, 68
1, 165360, Note_on_c, 0, 57, 39
1, 165367, Note_on_c, 0, 69, 66
1, 165372, Control_c, 0, 64, 66
1, 165373, Note_on_c, 0, 54, 32
1, 165382, Note_on_c, 0, 62, 52
1, 165387, Control_c, 0, 64, 64
1, 165394, Note_off_c, 0, 49, 40
1, 165401, Control_c, 0, 64, 63
1, 165416, Control_c, 0, 64, 61
1, 165431, Control_c, 0, 64, 59
1, 165445, Control_c, 0, 64, 58
1, 165475, Control_c, 0, 64, 58
1, 165505, Control_c, 0, 64, 57
1, 165519, Control_c, 0, 64, 56
1, 165606, Note_off_c, 0, 57, 33
1, 165638, Note_off_c, 0, 54, 43
1, 165676, Note_on_c, 0, 52, 44
1, 165679, Note_on_c, 0, 56, 37
1, 165696, Note_on_c, 0, 61, 44
1, 165699, Note_off_c, 0, 62, 43
1, 165912, Note_off_c, 0, 56, 41
1, 165972, Note_off_c, 0, 52, 45
1, 165981, Note_on_c, 0, 50, 35
1, 165985, Note_off_c, 0, 61, 52
1, 165989, Note_on_c, 0, 54, 38
1, 165996, Note_on_c, 0, 59, 45
1, 166328, Note_on_c, 0, 61, 42
1, 166330, Note_off_c, 0, 59, 41
1, 166636, Note_on_c, 0, 52, 39
1, 166638, Note_off_c, 0, 61, 52
1, 166642, Note_off_c, 0, 50, 38
1, 166649, Note_on_c, 0, 62, 39
1, 166667, Note_off_c, 0, 54, 44
1, 166914, Control_c, 0, 67, 13
1, 166929, Control_c, 0, 67, 30
1, 166944, Control_c, 0, 67, 49
1, 166950, Note_off_c, 0, 69, 43
1, 166959, Control_c, 0, 67, 71
1, 166973, Control_c, 0, 67, 100
1, 166980, Note_on_c, 0, 68, 50
1, 166988, Control_c, 0, 67, 127
1, 167091, Control_c, 0, 64, 56
1, 167354, Note_off_c, 0, 68, 50
1, 167355, Note_on_c, 0, 45, 37
1, 167364, Note_on_c, 0, 69, 57
1, 167661, Note_off_c, 0, 62, 54
1, 167678, Note_on_c, 0, 61, 41
1, 167781, Control_c, 0, 67, 108
1, 167796, Control_c, 0, 67, 81
1, 167811, Control_c, 0, 67, 57
1, 167826, Control_c, 0, 67, 39
1, 167841, Control_c, 0, 67, 22
1, 167856, Control_c, 0, 67, 0
1, 167964, Note_off_c, 0, 45, 58
1, 167971, Note_off_c, 0, 52, 59
1, 167990, Note_off_c, 0, 61, 52
1, 167993, Note_on_c, 0, 66, 42
1, 168218, Control_c, 0, 64, 56
1, 168321, Note_on_c, 0, 42, 43
1, 168326, Note_on_c, 0, 64, 42
1, 168373, Note_off_c, 0, 66, 42
1, 168501, Note_off_c, 0, 69, 37
1, 168585, Note_off_c, 0, 64, 60
1, 168602, Note_on_c, 0, 63, 47
1, 168607, Note_off_c, 0, 42, 60
1, 168614, Note_on_c, 0, 47, 45
1, 168917, Note_on_c, 0, 66, 48
1, 168921, Note_on_c, 0, 59, 55
1, 169040, Note_off_c, 0, 59, 53
1, 169235, Note_on_c, 0, 59, 68
1, 169245, Note_on_c, 0, 71, 57
1, 169291, Note_off_c, 0, 66, 41
1, 169367, Note_off_c, 0, 59, 39
1, 169536, Note_off_c, 0, 71, 55
1, 169540, Note_on_c, 0, 69, 66
1, 169545, Note_on_c, 0, 59, 71
1, 169624, Note_off_c, 0, 47, 42
1, 169719, Note_off_c, 0, 59, 32
1, 169838, Note_on_c, 0, 52, 60
1, 169842, Note_off_c, 0, 63, 59
1, 169853, Note_on_c, 0, 67, 58
1, 169854, Note_off_c, 0, 69, 34
1, 170117, Control_c, 0, 64, 56
1, 170126, Note_on_c, 0, 50, 50
1, 170127, Note_on_c, 0, 59, 50
1, 170169, Control_c, 0, 64, 56
1, 170184, Control_c, 0, 64, 59
1, 170198, Control_c, 0, 64, 61
1, 170213, Control_c, 0, 64, 64
1, 170228, Note_off_c, 0, 52, 59
1, 170228, Control_c, 0, 64, 66
1, 170243, Control_c, 0, 64, 68
1, 170258, Control_c, 0, 64, 70
1, 170272, Control_c, 0, 64, 71
1, 170287, Control_c, 0, 64, 73
1, 170302, Control_c, 0, 64, 74
1, 170317, Control_c, 0, 64, 75
1, 170331, Control_c, 0, 64, 76
1, 170376, Control_c, 0, 64, 75
1, 170405, Control_c, 0, 64, 74
1, 170420, Control_c, 0, 64, 73
1, 170435, Control_c, 0, 64, 69
1, 170444, Note_on_c, 0, 55, 65
1, 170444, Note_off_c, 0, 59, 38
1, 170444, Note_off_c, 0, 50, 54
1, 170450, Control_c, 0, 64, 65
1, 170455, Note_on_c, 0, 49, 44
1, 170462, Note_on_c, 0, 64, 56
1, 170465, Control_c, 0, 64, 62
1, 170479, Control_c, 0, 64, 59
1, 170494, Control_c, 0, 64, 57
1, 170509, Control_c, 0, 64, 55
1, 170524, Control_c, 0, 64, 53
1, 170539, Control_c, 0, 64, 52
1, 170584, Control_c, 0, 64, 53
1, 170597, Control_c, 0, 64, 55
1, 170612, Control_c, 0, 64, 58
1, 170627, Control_c, 0, 64, 60
1, 170642, Control_c, 0, 64, 62
1, 170657, Control_c, 0, 64, 62
1, 170671, Control_c, 0, 64, 63
1, 170686, Control_c, 0, 64, 64
1, 170702, Control_c, 0, 64, 65
1, 170717, Control_c, 0, 64, 64
1, 170732, Control_c, 0, 64, 62
1, 170736, Note_on_c, 0, 47, 51
1, 170746, Note_off_c, 0, 64, 63
1, 170746, Control_c, 0, 64, 56
1, 170761, Control_c, 0, 64, 49
1, 170775, Note_on_c, 0, 62, 47
1, 170776, Control_c, 0, 64, 48
1, 170786, Note_off_c, 0, 49, 35
1, 170791, Control_c, 0, 64, 51
1, 170806, Control_c, 0, 64, 58
1, 170820, Control_c, 0, 64, 63
1, 170835, Control_c, 0, 64, 65
1, 170843, Note_off_c, 0, 47, 63
1, 170850, Control_c, 0, 64, 68
1, 170865, Control_c, 0, 64, 69
1, 170880, Control_c, 0, 64, 70
1, 170902, Control_c, 0, 64, 71
1, 170917, Control_c, 0, 64, 72
1, 170932, Control_c, 0, 64, 74
1, 170946, Control_c, 0, 64, 76
1, 170961, Control_c, 0, 64, 77
1, 170976, Control_c, 0, 64, 77
1, 170991, Control_c, 0, 64, 76
1, 171006, Control_c, 0, 64, 74
1, 171020, Control_c, 0, 64, 68
1, 171035, Control_c, 0, 64, 60
1, 171050, Control_c, 0, 64, 46
1, 171065, Control_c, 0, 64, 36
1, 171066, Note_on_c, 0, 46, 46
1, 171077, Note_on_c, 0, 61, 60
1, 171094, Control_c, 0, 64, 42
1, 171100, Note_off_c, 0, 55, 56
1, 171109, Control_c, 0, 64, 53
1, 171124, Control_c, 0, 64, 61
1, 171135, Note_off_c, 0, 62, 52
1, 171139, Control_c, 0, 64, 64
1, 171153, Control_c, 0, 64, 67
1, 171165, Note_off_c, 0, 61, 63
1, 171168, Control_c, 0, 64, 71
1, 171183, Control_c, 0, 64, 75
1, 171195, Note_off_c, 0, 67, 43
1, 171198, Control_c, 0, 64, 79
1, 171213, Control_c, 0, 64, 84
1, 171227, Control_c, 0, 64, 91
1, 171242, Control_c, 0, 64, 98
1, 171257, Control_c, 0, 64, 102
1, 171287, Control_c, 0, 64, 100
1, 171302, Control_c, 0, 64, 98
1, 171317, Control_c, 0, 64, 96
1, 171332, Control_c, 0, 64, 91
1, 171346, Control_c, 0, 64, 84
1, 171361, Control_c, 0, 64, 75
1, 171376, Control_c, 0, 64, 69
1, 171387, Note_on_c, 0, 49, 46
1, 171389, Note_on_c, 0, 78, 83
1, 171391, Control_c, 0, 64, 69
1, 171435, Control_c, 0, 64, 68
1, 171450, Control_c, 0, 64, 67
1, 171464, Control_c, 0, 64, 64
1, 171479, Control_c, 0, 64, 62
1, 171496, Control_c, 0, 64, 60
1, 171511, Control_c, 0, 64, 57
1, 171525, Control_c, 0, 64, 56
1, 171540, Control_c, 0, 64, 55
1, 171549, Note_off_c, 0, 78, 58
1, 171555, Control_c, 0, 64, 54
1, 171569, Control_c, 0, 64, 53
1, 171584, Control_c, 0, 64, 53
1, 171697, Note_on_c, 0, 78, 87
1, 171702, Note_on_c, 0, 54, 57
1, 171711, Note_off_c, 0, 49, 56
1, 171738, Note_off_c, 0, 46, 62
1, 171799, Control_c, 0, 64, 54
1, 171814, Control_c, 0, 64, 55
1, 171829, Control_c, 0, 64, 55
1, 171862, Note_off_c, 0, 78, 62
1, 171888, Control_c, 0, 64, 55
1, 171903, Control_c, 0, 64, 54
1, 171917, Control_c, 0, 64, 53
1, 171932, Control_c, 0, 64, 52
1, 171947, Control_c, 0, 64, 51
1, 172002, Note_on_c, 0, 46, 50
1, 172003, Note_on_c, 0, 78, 87
1, 172006, Note_on_c, 0, 52, 55
1, 172006, Control_c, 0, 64, 53
1, 172021, Control_c, 0, 64, 58
1, 172034, Note_off_c, 0, 54, 58
1, 172036, Control_c, 0, 64, 61
1, 172050, Control_c, 0, 64, 64
1, 172065, Control_c, 0, 64, 66
1, 172080, Control_c, 0, 64, 69
1, 172095, Control_c, 0, 64, 72
1, 172110, Control_c, 0, 64, 75
1, 172112, Note_off_c, 0, 78, 61
1, 172117, Note_off_c, 0, 46, 58
1, 172125, Control_c, 0, 64, 79
1, 172140, Control_c, 0, 64, 82
1, 172154, Control_c, 0, 64, 85
1, 172169, Control_c, 0, 64, 87
1, 172199, Control_c, 0, 64, 86
1, 172214, Control_c, 0, 64, 85
1, 172229, Control_c, 0, 64, 84
1, 172243, Control_c, 0, 64, 82
1, 172258, Control_c, 0, 64, 79
1, 172273, Note_off_c, 0, 52, 28
1, 172273, Control_c, 0, 64, 73
1, 172289, Control_c, 0, 64, 67
1, 172292, Note_on_c, 0, 71, 75
1, 172301, Note_on_c, 0, 45, 47
1, 172304, Control_c, 0, 64, 62
1, 172307, Note_on_c, 0, 51, 57
1, 172318, Control_c, 0, 64, 57
1, 172333, Control_c, 0, 64, 53
1, 172348, Control_c, 0, 64, 50
1, 172363, Control_c, 0, 64, 48
1, 172378, Control_c, 0, 64, 47
1, 172399, Control_c, 0, 64, 46
1, 172482, Note_off_c, 0, 71, 60
1, 172533, Control_c, 0, 64, 46
1, 172563, Control_c, 0, 64, 47
1, 172603, Note_off_c, 0, 51, 57
1, 172607, Note_on_c, 0, 71, 79
1, 172607, Control_c, 0, 64, 47
1, 172614, Note_on_c, 0, 53, 58
1, 172637, Control_c, 0, 64, 48
1, 172666, Control_c, 0, 64, 48
1, 172696, Control_c, 0, 64, 49
1, 172733, Note_off_c, 0, 53, 62
1, 172735, Note_on_c, 0, 54, 71
1, 172740, Note_off_c, 0, 71, 61
1, 172740, Control_c, 0, 64, 49
1, 172784, Control_c, 0, 64, 50
1, 172892, Note_on_c, 0, 71, 78
1, 172895, Note_on_c, 0, 53, 55
1, 172895, Note_on_c, 0, 74, 77
1, 172897, Note_off_c, 0, 54, 58
1, 172995, Note_off_c, 0, 45, 56
1, 173059, Note_off_c, 0, 71, 59
1, 173178, Control_c, 0, 64, 54
1, 173193, Control_c, 0, 64, 59
1, 173207, Note_on_c, 0, 44, 50
1, 173208, Control_c, 0, 64, 62
1, 173216, Note_on_c, 0, 71, 79
1, 173222, Control_c, 0, 64, 64
1, 173237, Control_c, 0, 64, 68
1, 173251, Note_off_c, 0, 53, 63
1, 173252, Control_c, 0, 64, 72
1, 173254, Note_off_c, 0, 44, 62
1, 173267, Control_c, 0, 64, 76
1, 173275, Note_off_c, 0, 71, 64
1, 173282, Control_c, 0, 64, 80
1, 173296, Control_c, 0, 64, 84
1, 173311, Control_c, 0, 64, 90
1, 173326, Control_c, 0, 64, 99
1, 173341, Control_c, 0, 64, 108
1, 173356, Control_c, 0, 64, 119
1, 173371, Control_c, 0, 64, 127
1, 173415, Control_c, 0, 64, 116
1, 173430, Control_c, 0, 64, 110
1, 173445, Control_c, 0, 64, 103
1, 173460, Control_c, 0, 64, 94
1, 173475, Control_c, 0, 64, 84
1, 173489, Control_c, 0, 64, 74
1, 173504, Control_c, 0, 64, 67
1, 173509, Note_on_c, 0, 64, 77
1, 173519, Control_c, 0, 64, 61
1, 173523, Note_on_c, 0, 49, 42
1, 173533, Control_c, 0, 64, 58
1, 173548, Control_c, 0, 64, 57
1, 173607, Control_c, 0, 64, 56
1, 173621, Control_c, 0, 64, 56
1, 173636, Control_c, 0, 64, 55
1, 173651, Control_c, 0, 64, 55
1, 173666, Control_c, 0, 64, 54
1, 173710, Control_c, 0, 64, 54
1, 173725, Control_c, 0, 64, 53
1, 173818, Note_on_c, 0, 59, 50
1, 173821, Note_on_c, 0, 68, 70
1, 173822, Note_off_c, 0, 74, 63
1, 173829, Control_c, 0, 64, 55
1, 173844, Control_c, 0, 64, 57
1, 173858, Control_c, 0, 64, 60
1, 173873, Control_c, 0, 64, 63
1, 173897, Control_c, 0, 64, 66
1, 173912, Control_c, 0, 64, 68
1, 173926, Control_c, 0, 64, 71
1, 173941, Control_c, 0, 64, 73
1, 173956, Control_c, 0, 64, 75
1, 173970, Control_c, 0, 64, 77
1, 173985, Control_c, 0, 64, 81
1, 174000, Control_c, 0, 64, 84
1, 174015, Control_c, 0, 64, 85
1, 174025, Note_off_c, 0, 64, 53
1, 174074, Control_c, 0, 64, 85
1, 174089, Control_c, 0, 64, 84
1, 174104, Control_c, 0, 64, 83
1, 174119, Control_c, 0, 64, 80
1, 174128, Note_off_c, 0, 59, 51
1, 174134, Control_c, 0, 64, 75
1, 174136, Note_on_c, 0, 67, 71
1, 174143, Note_on_c, 0, 58, 46
1, 174145, Note_on_c, 0, 73, 55
1, 174149, Control_c, 0, 64, 70
1, 174160, Note_off_c, 0, 68, 38
1, 174163, Control_c, 0, 64, 64
1, 174178, Control_c, 0, 64, 61
1, 174193, Control_c, 0, 64, 58
1, 174208, Control_c, 0, 64, 57
1, 174223, Control_c, 0, 64, 56
1, 174237, Control_c, 0, 64, 55
1, 174252, Control_c, 0, 64, 54
1, 174267, Control_c, 0, 64, 53
1, 174282, Control_c, 0, 64, 51
1, 174297, Control_c, 0, 64, 50
1, 174311, Control_c, 0, 64, 48
1, 174326, Control_c, 0, 64, 46
1, 174342, Control_c, 0, 64, 43
1, 174357, Control_c, 0, 64, 41
1, 174371, Control_c, 0, 64, 39
1, 174386, Control_c, 0, 64, 39
1, 174431, Control_c, 0, 64, 41
1, 174432, Note_off_c, 0, 73, 59
1, 174445, Control_c, 0, 64, 51
1, 174446, Note_on_c, 0, 61, 45
1, 174459, Note_on_c, 0, 71, 59
1, 174460, Control_c, 0, 64, 58
1, 174462, Note_off_c, 0, 58, 44
1, 174475, Control_c, 0, 64, 62
1, 174489, Control_c, 0, 64, 65
1, 174504, Control_c, 0, 64, 68
1, 174515, Note_off_c, 0, 61, 60
1, 174519, Control_c, 0, 64, 73
1, 174520, Note_off_c, 0, 49, 62
1, 174534, Control_c, 0, 64, 80
1, 174549, Control_c, 0, 64, 88
1, 174563, Control_c, 0, 64, 98
1, 174578, Control_c, 0, 64, 112
1, 174593, Control_c, 0, 64, 127
1, 174625, Note_off_c, 0, 71, 59
1, 174706, Control_c, 0, 64, 104
1, 174721, Control_c, 0, 64, 84
1, 174736, Control_c, 0, 64, 71
1, 174750, Control_c, 0, 64, 62
1, 174753, Note_on_c, 0, 42, 46
1, 174762, Note_on_c, 0, 70, 55
1, 174765, Control_c, 0, 64, 51
1, 174780, Control_c, 0, 64, 49
1, 174794, Control_c, 0, 64, 52
1, 174809, Control_c, 0, 64, 57
1, 174824, Control_c, 0, 64, 63
1, 174834, Note_off_c, 0, 42, 62
1, 174839, Control_c, 0, 64, 67
1, 174854, Control_c, 0, 64, 70
1, 174855, Note_off_c, 0, 67, 60
1, 174868, Control_c, 0, 64, 73
1, 174883, Control_c, 0, 64, 76
1, 174898, Control_c, 0, 64, 79
1, 174913, Control_c, 0, 64, 85
1, 174928, Control_c, 0, 64, 93
1, 174942, Control_c, 0, 64, 105
1, 174957, Control_c, 0, 64, 127
1, 175061, Note_off_c, 0, 70, 26
1, 175076, Control_c, 0, 64, 104
1, 175077, Note_on_c, 0, 54, 47
1, 175077, Note_on_c, 0, 61, 59
1, 175091, Control_c, 0, 64, 86
1, 175091, Note_on_c, 0, 64, 43
1, 175106, Control_c, 0, 64, 76
1, 175120, Control_c, 0, 64, 69
1, 175135, Control_c, 0, 64, 65
1, 175150, Control_c, 0, 64, 64
1, 175217, Note_off_c, 0, 64, 52
1, 175376, Note_off_c, 0, 61, 59
1, 175398, Note_on_c, 0, 56, 43
1, 175400, Note_on_c, 0, 62, 46
1, 175404, Note_on_c, 0, 71, 52
1, 175405, Note_on_c, 0, 66, 52
1, 175409, Control_c, 0, 64, 64
1, 175439, Control_c, 0, 64, 63
1, 175446, Note_off_c, 0, 54, 31
1, 175454, Control_c, 0, 64, 62
1, 175468, Control_c, 0, 64, 61
1, 175484, Control_c, 0, 64, 61
1, 175544, Control_c, 0, 64, 60
1, 175573, Control_c, 0, 64, 60
1, 175603, Control_c, 0, 64, 59
1, 175632, Control_c, 0, 64, 59
1, 175646, Note_off_c, 0, 56, 37
1, 175662, Control_c, 0, 64, 58
1, 175663, Note_off_c, 0, 62, 43
1, 175677, Control_c, 0, 64, 58
1, 175695, Note_off_c, 0, 66, 61
1, 175695, Note_off_c, 0, 71, 54
1, 175705, Note_on_c, 0, 58, 30
1, 175706, Note_on_c, 0, 73, 60
1, 175706, Control_c, 0, 64, 57
1, 175709, Note_on_c, 0, 61, 39
1, 175712, Note_on_c, 0, 64, 55
1, 175765, Control_c, 0, 64, 58
1, 175780, Control_c, 0, 64, 58
1, 175795, Control_c, 0, 64, 59
1, 175824, Control_c, 0, 64, 60
1, 175839, Control_c, 0, 64, 63
1, 175854, Control_c, 0, 64, 65
1, 175869, Control_c, 0, 64, 67
1, 175884, Control_c, 0, 64, 70
1, 175898, Control_c, 0, 64, 73
1, 175900, Note_off_c, 0, 64, 59
1, 175913, Control_c, 0, 64, 76
1, 175923, Note_off_c, 0, 73, 58
1, 175928, Control_c, 0, 64, 79
1, 175943, Control_c, 0, 64, 81
1, 175958, Control_c, 0, 64, 82
1, 175973, Note_off_c, 0, 61, 48
1, 175988, Control_c, 0, 64, 81
1, 176003, Control_c, 0, 64, 80
1, 176012, Note_off_c, 0, 58, 40
1, 176016, Note_on_c, 0, 59, 44
1, 176017, Control_c, 0, 64, 78
1, 176027, Note_on_c, 0, 62, 51
1, 176027, Note_on_c, 0, 74, 62
1, 176032, Control_c, 0, 64, 75
1, 176047, Control_c, 0, 64, 70
1, 176062, Control_c, 0, 64, 65
1, 176077, Control_c, 0, 64, 61
1, 176091, Control_c, 0, 64, 59
1, 176106, Control_c, 0, 64, 58
1, 176348, Note_on_c, 0, 66, 62
1, 176350, Note_off_c, 0, 62, 55
1, 176352, Note_on_c, 0, 57, 43
1, 176455, Control_c, 0, 64, 58
1, 176602, Note_off_c, 0, 57, 61
1, 176603, Control_c, 0, 64, 57
1, 176629, Note_on_c, 0, 56, 41
1, 176654, Note_off_c, 0, 66, 60
1, 176656, Note_on_c, 0, 71, 56
1, 176945, Note_off_c, 0, 71, 59
1, 176951, Control_c, 0, 64, 57
1, 176959, Note_on_c, 0, 69, 58
1, 176960, Note_off_c, 0, 56, 57
1, 176961, Note_on_c, 0, 54, 40
1, 177070, Control_c, 0, 64, 56
1, 177231, Note_off_c, 0, 69, 59
1, 177250, Note_on_c, 0, 68, 51
1, 177255, Note_on_c, 0, 53, 38
1, 177284, Note_off_c, 0, 59, 41
1, 177314, Note_off_c, 0, 54, 28
1, 177475, Note_off_c, 0, 74, 61
1, 177529, Control_c, 0, 64, 57
1, 177575, Note_on_c, 0, 56, 58
1, 177873, Note_on_c, 0, 61, 62
1, 177884, Note_off_c, 0, 56, 55
1, 177892, Note_on_c, 0, 73, 73
1, 178158, Note_off_c, 0, 68, 58
1, 178182, Note_off_c, 0, 61, 61
1, 178185, Note_on_c, 0, 59, 62
1, 178466, Note_off_c, 0, 59, 56
1, 178497, Note_on_c, 0, 57, 57
1, 178508, Control_c, 0, 64, 56
1, 178541, Note_off_c, 0, 53, 47
1, 178803, Note_on_c, 0, 54, 67
1, 178812, Note_on_c, 0, 61, 53
1, 178850, Control_c, 0, 64, 57
1, 178864, Control_c, 0, 64, 59
1, 178879, Control_c, 0, 64, 62
1, 178894, Control_c, 0, 64, 66
1, 178909, Control_c, 0, 64, 71
1, 178924, Control_c, 0, 64, 80
1, 178939, Control_c, 0, 64, 89
1, 178951, Note_off_c, 0, 54, 59
1, 178953, Control_c, 0, 64, 98
1, 178968, Control_c, 0, 64, 108
1, 178983, Control_c, 0, 64, 118
1, 178998, Control_c, 0, 64, 127
1, 179042, Control_c, 0, 64, 117
1, 179057, Control_c, 0, 64, 109
1, 179072, Control_c, 0, 64, 98
1, 179087, Control_c, 0, 64, 84
1, 179098, Note_on_c, 0, 54, 76
1, 179101, Control_c, 0, 64, 69
1, 179108, Note_on_c, 0, 66, 62
1, 179109, Note_off_c, 0, 73, 55
1, 179116, Control_c, 0, 64, 60
1, 179139, Control_c, 0, 64, 47
1, 179154, Control_c, 0, 64, 40
1, 179183, Control_c, 0, 64, 41
1, 179198, Control_c, 0, 64, 47
1, 179213, Control_c, 0, 64, 55
1, 179228, Control_c, 0, 64, 61
1, 179242, Control_c, 0, 64, 63
1, 179257, Control_c, 0, 64, 65
1, 179272, Control_c, 0, 64, 67
1, 179281, Note_off_c, 0, 54, 60
1, 179287, Control_c, 0, 64, 68
1, 179301, Control_c, 0, 64, 69
1, 179310, Note_off_c, 0, 61, 32
1, 179331, Control_c, 0, 64, 68
1, 179346, Control_c, 0, 64, 65
1, 179360, Control_c, 0, 64, 60
1, 179375, Control_c, 0, 64, 52
1, 179390, Control_c, 0, 64, 46
1, 179405, Control_c, 0, 64, 46
1, 179406, Note_on_c, 0, 54, 78
1, 179414, Note_on_c, 0, 64, 67
1, 179420, Control_c, 0, 64, 48
1, 179429, Note_off_c, 0, 66, 54
1, 179434, Control_c, 0, 64, 55
1, 179449, Control_c, 0, 64, 61
1, 179464, Control_c, 0, 64, 65
1, 179480, Control_c, 0, 64, 69
1, 179495, Control_c, 0, 64, 73
1, 179510, Control_c, 0, 64, 78
1, 179512, Note_off_c, 0, 57, 60
1, 179525, Control_c, 0, 64, 83
1, 179536, Note_off_c, 0, 54, 63
1, 179539, Control_c, 0, 64, 88
1, 179554, Control_c, 0, 64, 95
1, 179569, Control_c, 0, 64, 104
1, 179583, Control_c, 0, 64, 108
1, 179598, Control_c, 0, 64, 104
1, 179613, Control_c, 0, 64, 96
1, 179628, Control_c, 0, 64, 86
1, 179643, Control_c, 0, 64, 77
1, 179657, Control_c, 0, 64, 68
1, 179672, Control_c, 0, 64, 63
1, 179687, Control_c, 0, 64, 60
1, 179702, Control_c, 0, 64, 59
1, 179703, Note_off_c, 0, 64, 61
1, 179705, Note_on_c, 0, 47, 75
1, 179717, Control_c, 0, 64, 58
1, 179726, Note_on_c, 0, 62, 65
1, 179732, Control_c, 0, 64, 56
1, 179747, Control_c, 0, 64, 54
1, 179762, Control_c, 0, 64, 51
1, 179776, Control_c, 0, 64, 47
1, 179791, Control_c, 0, 64, 42
1, 179806, Control_c, 0, 64, 39
1, 179821, Control_c, 0, 64, 38
1, 179850, Control_c, 0, 64, 38
1, 180021, Note_on_c, 0, 54, 61
1, 180037, Note_on_c, 0, 71, 63
1, 180080, Control_c, 0, 64, 38
1, 180095, Control_c, 0, 64, 40
1, 180110, Control_c, 0, 64, 44
1, 180125, Control_c, 0, 64, 50
1, 180139, Control_c, 0, 64, 55
1, 180154, Control_c, 0, 64, 59
1, 180157, Note_on_c, 0, 69, 76
1, 180169, Control_c, 0, 64, 61
1, 180181, Note_off_c, 0, 71, 61
1, 180183, Control_c, 0, 64, 63
1, 180198, Control_c, 0, 64, 63
1, 180201, Note_off_c, 0, 62, 43
1, 180213, Control_c, 0, 64, 64
1, 180228, Control_c, 0, 64, 64
1, 180243, Control_c, 0, 64, 65
1, 180272, Control_c, 0, 64, 64
1, 180288, Control_c, 0, 64, 63
1, 180303, Control_c, 0, 64, 61
1, 180310, Note_on_c, 0, 59, 57
1, 180318, Control_c, 0, 64, 58
1, 180323, Note_on_c, 0, 50, 55
1, 180323, Note_on_c, 0, 68, 72
1, 180325, Note_off_c, 0, 69, 63
1, 180333, Control_c, 0, 64, 53
1, 180337, Note_off_c, 0, 54, 53
1, 180338, Note_off_c, 0, 47, 33
1, 180348, Control_c, 0, 64, 48
1, 180362, Control_c, 0, 64, 44
1, 180364, Note_on_c, 0, 49, 5
1, 180377, Control_c, 0, 64, 41
1, 180392, Control_c, 0, 64, 39
1, 180406, Control_c, 0, 64, 39
1, 180415, Note_off_c, 0, 49, 26
1, 180421, Control_c, 0, 64, 38
1, 180450, Note_off_c, 0, 59, 51
1, 180451, Control_c, 0, 64, 38
1, 180614, Note_on_c, 0, 57, 56
1, 180623, Note_on_c, 0, 66, 64
1, 180623, Note_off_c, 0, 68, 61
1, 180885, Note_off_c, 0, 66, 53
1, 180909, Note_on_c, 0, 56, 51
1, 180915, Note_off_c, 0, 50, 45
1, 180920, Note_on_c, 0, 65, 58
1, 180924, Note_on_c, 0, 59, 52
1, 180948, Control_c, 0, 64, 39
1, 180960, Note_off_c, 0, 57, 56
1, 180962, Control_c, 0, 64, 40
1, 180977, Control_c, 0, 64, 40
1, 181006, Control_c, 0, 64, 43
1, 181021, Control_c, 0, 64, 46
1, 181036, Control_c, 0, 64, 49
1, 181051, Control_c, 0, 64, 52
1, 181052, Note_off_c, 0, 56, 64
1, 181066, Control_c, 0, 64, 54
1, 181080, Control_c, 0, 64, 59
1, 181094, Control_c, 0, 64, 63
1, 181109, Control_c, 0, 64, 66
1, 181124, Control_c, 0, 64, 70
1, 181139, Control_c, 0, 64, 76
1, 181154, Control_c, 0, 64, 85
1, 181169, Control_c, 0, 64, 96
1, 181184, Control_c, 0, 64, 108
1, 181199, Control_c, 0, 64, 114
1, 181213, Control_c, 0, 64, 108
1, 181228, Control_c, 0, 64, 98
1, 181237, Note_on_c, 0, 44, 60
1, 181243, Control_c, 0, 64, 85
1, 181258, Control_c, 0, 64, 74
1, 181273, Control_c, 0, 64, 66
1, 181288, Control_c, 0, 64, 61
1, 181302, Control_c, 0, 64, 57
1, 181317, Control_c, 0, 64, 55
1, 181332, Control_c, 0, 64, 55
1, 181398, Control_c, 0, 64, 54
1, 181413, Control_c, 0, 64, 54
1, 181443, Control_c, 0, 64, 53
1, 181517, Control_c, 0, 64, 53
1, 181526, Note_on_c, 0, 49, 53
1, 181556, Note_off_c, 0, 44, 54
1, 181561, Control_c, 0, 64, 52
1, 181576, Control_c, 0, 64, 52
1, 181606, Control_c, 0, 64, 51
1, 181808, Note_off_c, 0, 49, 54
1, 181831, Note_on_c, 0, 47, 46
1, 182007, Note_off_c, 0, 65, 58
1, 182100, Note_off_c, 0, 59, 60
1, 182141, Note_on_c, 0, 45, 48
1, 182145, Note_off_c, 0, 47, 46
1, 182237, Control_c, 0, 67, 11
1, 182251, Control_c, 0, 67, 50
1, 182266, Control_c, 0, 67, 105
1, 182281, Control_c, 0, 67, 127
1, 182440, Note_on_c, 0, 54, 46
1, 182450, Note_on_c, 0, 61, 50
1, 182452, Note_on_c, 0, 57, 43
1, 182570, Note_off_c, 0, 57, 53
1, 182577, Note_off_c, 0, 61, 36
1, 182580, Note_off_c, 0, 54, 50
1, 182585, Note_on_c, 0, 56, 43
1, 182585, Note_off_c, 0, 45, 38
1, 182596, Note_on_c, 0, 59, 50
1, 182716, Note_off_c, 0, 56, 57
1, 182733, Note_off_c, 0, 59, 54
1, 182756, Note_on_c, 0, 57, 42
1, 182763, Note_on_c, 0, 66, 64
1, 182777, Note_on_c, 0, 61, 46
1, 183059, Note_on_c, 0, 47, 38
1, 183068, Note_off_c, 0, 61, 56
1, 183085, Note_on_c, 0, 62, 41
1, 183101, Note_off_c, 0, 57, 35
1, 183364, Note_off_c, 0, 47, 36
1, 183371, Note_on_c, 0, 49, 30
1, 183372, Note_off_c, 0, 62, 56
1, 183384, Note_on_c, 0, 56, 40
1, 183396, Note_on_c, 0, 61, 44
1, 183702, Note_on_c, 0, 54, 31
1, 183729, Note_off_c, 0, 56, 44
1, 184015, Note_on_c, 0, 56, 41
1, 184018, Note_off_c, 0, 66, 48
1, 184024, Note_on_c, 0, 65, 51
1, 184030, Note_off_c, 0, 54, 41
1, 184193, Control_c, 0, 64, 53
1, 184208, Control_c, 0, 64, 57
1, 184222, Control_c, 0, 64, 61
1, 184237, Control_c, 0, 64, 64
1, 184252, Control_c, 0, 64, 65
1, 184268, Control_c, 0, 64, 67
1, 184283, Control_c, 0, 64, 70
1, 184296, Note_off_c, 0, 56, 61
1, 184298, Control_c, 0, 64, 73
1, 184313, Control_c, 0, 64, 77
1, 184320, Note_on_c, 0, 59, 39
1, 184325, Note_off_c, 0, 61, 42
1, 184327, Control_c, 0, 64, 82
1, 184334, Note_off_c, 0, 49, 56
1, 184336, Note_off_c, 0, 65, 55
1, 184342, Control_c, 0, 64, 88
1, 184357, Control_c, 0, 64, 94
1, 184379, Control_c, 0, 64, 101
1, 184394, Control_c, 0, 64, 113
1, 184409, Control_c, 0, 64, 127
1, 184452, Note_off_c, 0, 59, 53
1, 184631, Control_c, 0, 64, 111
1, 184645, Control_c, 0, 64, 93
1, 184660, Control_c, 0, 64, 80
1, 184666, Note_on_c, 0, 42, 39
1, 184675, Control_c, 0, 64, 70
1, 184683, Note_on_c, 0, 66, 48
1, 184687, Note_on_c, 0, 57, 43
1, 184690, Control_c, 0, 64, 59
1, 184694, Note_on_c, 0, 54, 24
1, 184705, Control_c, 0, 64, 39
1, 184719, Control_c, 0, 64, 30
1, 184734, Control_c, 0, 64, 34
1, 184749, Control_c, 0, 64, 48
1, 184764, Control_c, 0, 64, 59
1, 184779, Control_c, 0, 64, 66
1, 184793, Control_c, 0, 64, 72
1, 184793, Control_c, 0, 67, 97
1, 184808, Control_c, 0, 64, 78
1, 184808, Control_c, 0, 67, 61
1, 184818, Note_off_c, 0, 42, 63
1, 184823, Control_c, 0, 64, 83
1, 184823, Control_c, 0, 67, 18
1, 184838, Control_c, 0, 64, 88
1, 184838, Control_c, 0, 67, 0
1, 184847, Note_off_c, 0, 57, 55
1, 184853, Control_c, 0, 64, 91
1, 184868, Control_c, 0, 64, 93
1, 184875, Note_off_c, 0, 54, 40
1, 184883, Control_c, 0, 64, 95
1, 184898, Control_c, 0, 64, 95
1, 184927, Control_c, 0, 64, 94
1, 184942, Control_c, 0, 64, 93
1, 184957, Control_c, 0, 64, 92
1, 184971, Control_c, 0, 64, 91
1, 184986, Control_c, 0, 64, 88
1, 185001, Control_c, 0, 64, 83
1, 185014, Note_on_c, 0, 57, 56
1, 185016, Control_c, 0, 64, 78
1, 185031, Control_c, 0, 64, 75
1, 185045, Control_c, 0, 64, 74
1, 185060, Control_c, 0, 64, 73
1, 185076, Control_c, 0, 64, 72
1, 185091, Control_c, 0, 64, 71
1, 185106, Control_c, 0, 64, 70
1, 185128, Control_c, 0, 64, 69
1, 185157, Control_c, 0, 64, 68
1, 185181, Note_off_c, 0, 57, 63
1, 185187, Control_c, 0, 64, 68
1, 185202, Control_c, 0, 64, 67
1, 185217, Control_c, 0, 64, 66
1, 185247, Control_c, 0, 64, 66
1, 185261, Control_c, 0, 64, 65
1, 185276, Control_c, 0, 64, 63
1, 185291, Control_c, 0, 64, 62
1, 185294, Note_off_c, 0, 66, 63
1, 185306, Control_c, 0, 64, 61
1, 185314, Note_on_c, 0, 57, 73
1, 185336, Control_c, 0, 64, 60
1, 185350, Control_c, 0, 64, 59
1, 185365, Control_c, 0, 64, 58
1, 185380, Control_c, 0, 64, 57
1, 185394, Control_c, 0, 64, 56
1, 185409, Control_c, 0, 64, 56
1, 185468, Control_c, 0, 64, 55
1, 185476, Note_off_c, 0, 57, 56
1, 185600, Note_on_c, 0, 81, 71
1, 185602, Note_on_c, 0, 57, 68
1, 185706, Control_c, 0, 64, 56
1, 185721, Control_c, 0, 64, 56
1, 185777, Note_off_c, 0, 57, 64
1, 185804, Note_off_c, 0, 81, 61
1, 185918, Note_on_c, 0, 50, 65
1, 185923, Note_on_c, 0, 81, 76
1, 186094, Note_off_c, 0, 81, 60
1, 186223, Note_on_c, 0, 81, 82
1, 186234, Note_on_c, 0, 69, 64
1, 186272, Note_off_c, 0, 69, 56
1, 186473, Note_off_c, 0, 81, 49
1, 186510, Note_on_c, 0, 74, 77
1, 186517, Note_on_c, 0, 54, 57
1, 186521, Note_off_c, 0, 50, 58
1, 186524, Note_on_c, 0, 69, 69
1, 186529, Control_c, 0, 64, 55
1, 186544, Control_c, 0, 64, 55
1, 186559, Control_c, 0, 64, 54
1, 186573, Control_c, 0, 64, 54
1, 186588, Note_off_c, 0, 69, 42
1, 186588, Control_c, 0, 64, 53
1, 186603, Control_c, 0, 64, 53
1, 186625, Control_c, 0, 64, 52
1, 186640, Control_c, 0, 64, 52
1, 186686, Control_c, 0, 64, 51
1, 186701, Control_c, 0, 64, 51
1, 186716, Control_c, 0, 64, 50
1, 186775, Control_c, 0, 64, 51
1, 186790, Control_c, 0, 64, 55
1, 186804, Control_c, 0, 64, 59
1, 186809, Note_off_c, 0, 74, 63
1, 186819, Control_c, 0, 64, 63
1, 186823, Note_on_c, 0, 69, 74
1, 186834, Control_c, 0, 64, 66
1, 186848, Control_c, 0, 64, 70
1, 186859, Note_off_c, 0, 69, 64
1, 186863, Control_c, 0, 64, 75
1, 186878, Control_c, 0, 64, 82
1, 186893, Control_c, 0, 64, 94
1, 186908, Control_c, 0, 64, 127
1, 187148, Note_on_c, 0, 78, 78
1, 187153, Note_on_c, 0, 62, 59
1, 187160, Control_c, 0, 64, 111
1, 187175, Control_c, 0, 64, 88
1, 187189, Control_c, 0, 64, 75
1, 187204, Control_c, 0, 64, 64
1, 187219, Control_c, 0, 64, 57
1, 187234, Control_c, 0, 64, 53
1, 187248, Control_c, 0, 64, 52
1, 187263, Control_c, 0, 64, 51
1, 187293, Control_c, 0, 64, 51
1, 187308, Control_c, 0, 64, 50
1, 187322, Control_c, 0, 64, 49
1, 187337, Control_c, 0, 64, 48
1, 187352, Control_c, 0, 64, 47
1, 187374, Control_c, 0, 64, 46
1, 187414, Note_off_c, 0, 54, 56
1, 187457, Note_on_c, 0, 50, 58
1, 187459, Note_on_c, 0, 47, 52
1, 187748, Note_on_c, 0, 55, 70
1, 187754, Note_on_c, 0, 52, 62
1, 187770, Note_off_c, 0, 47, 55
1, 187779, Note_off_c, 0, 50, 37
1, 187827, Note_off_c, 0, 62, 34
1, 187868, Note_off_c, 0, 78, 63
1, 187995, Note_off_c, 0, 55, 53
1, 188028, Note_off_c, 0, 52, 63
1, 188047, Note_on_c, 0, 54, 55
1, 188048, Note_on_c, 0, 71, 73
1, 188049, Note_on_c, 0, 50, 54
1, 188309, Note_off_c, 0, 50, 40
1, 188332, Note_off_c, 0, 54, 52
1, 188333, Note_on_c, 0, 49, 50
1, 188353, Note_on_c, 0, 52, 50
1, 188353, Note_on_c, 0, 76, 78
1, 188367, Note_off_c, 0, 71, 60
1, 188580, Note_off_c, 0, 49, 57
1, 188624, Note_off_c, 0, 76, 54
1, 188635, Note_on_c, 0, 47, 48
1, 188647, Note_on_c, 0, 74, 61
1, 188651, Note_off_c, 0, 52, 43
1, 188654, Note_on_c, 0, 64, 69
1, 188716, Control_c, 0, 64, 50
1, 188731, Control_c, 0, 64, 55
1, 188743, Note_off_c, 0, 74, 62
1, 188746, Control_c, 0, 64, 59
1, 188761, Control_c, 0, 64, 63
1, 188775, Control_c, 0, 64, 66
1, 188790, Control_c, 0, 64, 69
1, 188805, Control_c, 0, 64, 73
1, 188819, Control_c, 0, 64, 76
1, 188834, Control_c, 0, 64, 80
1, 188849, Control_c, 0, 64, 82
1, 188871, Control_c, 0, 64, 85
1, 188886, Control_c, 0, 64, 85
1, 188905, Note_off_c, 0, 64, 55
1, 188916, Control_c, 0, 64, 84
1, 188931, Control_c, 0, 64, 83
1, 188946, Control_c, 0, 64, 82
1, 188951, Note_off_c, 0, 47, 41
1, 188961, Control_c, 0, 64, 80
1, 188963, Note_on_c, 0, 45, 51
1, 188965, Note_on_c, 0, 73, 75
1, 188975, Control_c, 0, 64, 77
1, 188984, Note_on_c, 0, 69, 56
1, 188990, Control_c, 0, 64, 72
1, 189005, Control_c, 0, 64, 66
1, 189019, Control_c, 0, 64, 62
1, 189034, Control_c, 0, 64, 58
1, 189049, Control_c, 0, 64, 58
1, 189124, Control_c, 0, 64, 57
1, 189169, Control_c, 0, 64, 57
1, 189249, Note_off_c, 0, 69, 63
1, 189259, Note_on_c, 0, 52, 45
1, 189283, Note_on_c, 0, 67, 51
1, 189497, Note_off_c, 0, 52, 62
1, 189509, Control_c, 0, 64, 58
1, 189524, Control_c, 0, 64, 61
1, 189530, Note_off_c, 0, 45, 49
1, 189539, Control_c, 0, 64, 63
1, 189549, Note_on_c, 0, 57, 49
1, 189549, Note_off_c, 0, 67, 57
1, 189554, Control_c, 0, 64, 64
1, 189557, Note_on_c, 0, 66, 60
1, 189569, Control_c, 0, 64, 65
1, 189584, Control_c, 0, 64, 67
1, 189599, Control_c, 0, 64, 70
1, 189619, Note_off_c, 0, 57, 60
1, 189621, Control_c, 0, 64, 73
1, 189636, Control_c, 0, 64, 76
1, 189650, Control_c, 0, 64, 78
1, 189665, Control_c, 0, 64, 80
1, 189680, Control_c, 0, 64, 82
1, 189683, Note_off_c, 0, 73, 56
1, 189695, Control_c, 0, 64, 82
1, 189710, Control_c, 0, 64, 82
1, 189769, Control_c, 0, 64, 81
1, 189784, Control_c, 0, 64, 81
1, 189798, Control_c, 0, 64, 80
1, 189813, Control_c, 0, 64, 79
1, 189828, Control_c, 0, 64, 78
1, 189843, Control_c, 0, 64, 76
1, 189858, Control_c, 0, 64, 73
1, 189858, Note_on_c, 0, 69, 76
1, 189873, Note_off_c, 0, 66, 60
1, 189873, Control_c, 0, 64, 72
1, 189903, Control_c, 0, 64, 72
1, 189947, Control_c, 0, 64, 72
1, 189992, Poly_aftertouch_c, 0, 60, 0
1, 190025, Poly_aftertouch_c, 0, 59, 0
1, 190037, Control_c, 0, 64, 72
1, 190066, Control_c, 0, 64, 71
1, 190081, Control_c, 0, 64, 70
1, 190096, Control_c, 0, 64, 69
1, 190111, Control_c, 0, 64, 69
1, 190126, Control_c, 0, 64, 68
1, 190129, Note_on_c, 0, 59, 72
1, 190140, Control_c, 0, 64, 67
1, 190141, Note_on_c, 0, 74, 74
1, 190155, Control_c, 0, 64, 65
1, 190170, Control_c, 0, 64, 63
1, 190185, Control_c, 0, 64, 61
1, 190191, Note_off_c, 0, 69, 55
1, 190200, Control_c, 0, 64, 60
1, 190214, Control_c, 0, 64, 59
1, 190229, Control_c, 0, 64, 58
1, 190244, Control_c, 0, 64, 57
1, 190288, Control_c, 0, 64, 58
1, 190303, Control_c, 0, 64, 59
1, 190332, Control_c, 0, 64, 59
1, 190347, Control_c, 0, 64, 60
1, 190370, Control_c, 0, 64, 60
1, 190385, Control_c, 0, 64, 61
1, 190400, Control_c, 0, 64, 62
1, 190411, Note_off_c, 0, 59, 57
1, 190414, Control_c, 0, 64, 62
1, 190429, Control_c, 0, 64, 64
1, 190434, Note_on_c, 0, 72, 64
1, 190444, Control_c, 0, 64, 65
1, 190457, Note_on_c, 0, 62, 50
1, 190459, Control_c, 0, 64, 66
1, 190466, Note_off_c, 0, 74, 33
1, 190473, Control_c, 0, 64, 67
1, 190488, Control_c, 0, 64, 69
1, 190500, Note_off_c, 0, 72, 64
1, 190503, Control_c, 0, 64, 72
1, 190518, Control_c, 0, 64, 75
1, 190533, Control_c, 0, 64, 78
1, 190547, Control_c, 0, 64, 81
1, 190562, Control_c, 0, 64, 83
1, 190577, Control_c, 0, 64, 84
1, 190591, Control_c, 0, 64, 85
1, 190696, Control_c, 0, 64, 84
1, 190741, Control_c, 0, 64, 84
1, 190744, Note_off_c, 0, 62, 47
1, 190756, Note_on_c, 0, 71, 71
1, 190769, Note_on_c, 0, 67, 57
1, 190785, Control_c, 0, 64, 83
1, 190800, Control_c, 0, 64, 83
1, 190815, Control_c, 0, 64, 82
1, 190949, Control_c, 0, 64, 82
1, 190963, Control_c, 0, 64, 81
1, 190978, Control_c, 0, 64, 81
1, 190993, Control_c, 0, 64, 80
1, 191008, Control_c, 0, 64, 78
1, 191023, Note_off_c, 0, 67, 60
1, 191023, Control_c, 0, 64, 72
1, 191037, Control_c, 0, 64, 66
1, 191048, Note_on_c, 0, 66, 65
1, 191052, Control_c, 0, 64, 61
1, 191059, Note_on_c, 0, 47, 49
1, 191067, Control_c, 0, 64, 60
1, 191072, Note_on_c, 0, 57, 35
1, 191081, Control_c, 0, 64, 61
1, 191096, Control_c, 0, 64, 63
1, 191119, Control_c, 0, 64, 66
1, 191134, Control_c, 0, 64, 69
1, 191144, Note_off_c, 0, 71, 57
1, 191149, Control_c, 0, 64, 72
1, 191163, Control_c, 0, 64, 75
1, 191178, Control_c, 0, 64, 78
1, 191193, Control_c, 0, 64, 82
1, 191196, Note_off_c, 0, 57, 50
1, 191208, Control_c, 0, 64, 86
1, 191222, Control_c, 0, 64, 91
1, 191237, Control_c, 0, 64, 94
1, 191252, Control_c, 0, 64, 95
1, 191321, Note_off_c, 0, 66, 33
1, 191326, Control_c, 0, 64, 94
1, 191341, Control_c, 0, 64, 93
1, 191370, Control_c, 0, 64, 92
1, 191385, Control_c, 0, 64, 91
1, 191388, Note_on_c, 0, 64, 71
1, 191394, Note_on_c, 0, 55, 53
1, 191395, Note_off_c, 0, 47, 59
1, 191400, Control_c, 0, 64, 86
1, 191401, Note_on_c, 0, 52, 53
1, 191414, Control_c, 0, 64, 79
1, 191429, Control_c, 0, 64, 74
1, 191444, Control_c, 0, 64, 70
1, 191460, Control_c, 0, 64, 68
1, 191475, Control_c, 0, 64, 65
1, 191490, Control_c, 0, 64, 63
1, 191505, Control_c, 0, 64, 61
1, 191519, Control_c, 0, 64, 60
1, 191534, Control_c, 0, 64, 59
1, 191607, Control_c, 0, 64, 58
1, 191622, Control_c, 0, 64, 58
1, 191665, Note_off_c, 0, 52, 58
1, 191689, Note_on_c, 0, 71, 68
1, 191691, Note_on_c, 0, 50, 53
1, 191700, Note_on_c, 0, 72, 60
1, 191730, Note_off_c, 0, 72, 52
1, 191881, Control_c, 0, 64, 57
1, 191925, Control_c, 0, 64, 57
1, 191940, Control_c, 0, 64, 56
1, 191955, Control_c, 0, 64, 56
1, 191970, Control_c, 0, 64, 55
1, 191984, Control_c, 0, 64, 55
1, 192002, Note_on_c, 0, 48, 57
1, 192004, Note_on_c, 0, 76, 82
1, 192016, Note_off_c, 0, 50, 56
1, 192030, Note_on_c, 0, 77, 44
1, 192031, Note_off_c, 0, 77, 127
1, 192035, Note_off_c, 0, 71, 62
1, 192088, Control_c, 0, 64, 55
1, 192103, Control_c, 0, 64, 58
1, 192118, Note_off_c, 0, 48, 62
1, 192118, Control_c, 0, 64, 61
1, 192132, Control_c, 0, 64, 64
1, 192147, Control_c, 0, 64, 66
1, 192162, Control_c, 0, 64, 68
1, 192177, Control_c, 0, 64, 70
1, 192192, Control_c, 0, 64, 72
1, 192207, Control_c, 0, 64, 74
1, 192222, Control_c, 0, 64, 74
1, 192236, Control_c, 0, 64, 75
1, 192267, Control_c, 0, 64, 73
1, 192279, Note_off_c, 0, 76, 58
1, 192282, Control_c, 0, 64, 70
1, 192296, Control_c, 0, 64, 66
1, 192301, Note_off_c, 0, 55, 36
1, 192302, Note_on_c, 0, 47, 50
1, 192304, Note_on_c, 0, 74, 81
1, 192310, Note_on_c, 0, 52, 56
1, 192311, Control_c, 0, 64, 61
1, 192326, Control_c, 0, 64, 57
1, 192356, Control_c, 0, 64, 58
1, 192371, Control_c, 0, 64, 59
1, 192386, Control_c, 0, 64, 60
1, 192518, Note_off_c, 0, 64, 54
1, 192587, Note_off_c, 0, 47, 39
1, 192600, Note_off_c, 0, 74, 60
1, 192600, Note_on_c, 0, 45, 49
1, 192603, Note_on_c, 0, 72, 82
1, 192621, Note_on_c, 0, 57, 53
1, 192621, Note_off_c, 0, 52, 61
1, 192733, Control_c, 0, 64, 60
1, 192880, Note_off_c, 0, 57, 52
1, 192915, Note_on_c, 0, 55, 47
1, 192919, Note_on_c, 0, 64, 60
1, 193184, Note_off_c, 0, 55, 57
1, 193198, Note_on_c, 0, 54, 49
1, 193209, Note_on_c, 0, 69, 60
1, 193209, Note_off_c, 0, 64, 59
1, 193492, Note_off_c, 0, 69, 58
1, 193501, Note_off_c, 0, 54, 60
1, 193507, Note_on_c, 0, 67, 59
1, 193528, Note_on_c, 0, 52, 42
1, 193566, Note_off_c, 0, 45, 53
1, 193753, Note_off_c, 0, 52, 51
1, 193803, Note_on_c, 0, 50, 44
1, 193811, Note_on_c, 0, 66, 55
1, 193816, Note_on_c, 0, 47, 30
1, 193817, Note_off_c, 0, 67, 57
1, 193891, Note_off_c, 0, 72, 61
1, 194089, Note_off_c, 0, 66, 62
1, 194115, Note_on_c, 0, 54, 43
1, 194117, Note_on_c, 0, 62, 53
1, 194401, Note_off_c, 0, 50, 41
1, 194410, Note_off_c, 0, 47, 50
1, 194410, Note_off_c, 0, 54, 60
1, 194415, Note_on_c, 0, 71, 66
1, 194419, Note_off_c, 0, 62, 42
1, 194422, Note_on_c, 0, 59, 44
1, 194425, Note_on_c, 0, 67, 56
1, 194627, Note_off_c, 0, 67, 54
1, 194662, Control_c, 0, 64, 60
1, 194672, Note_off_c, 0, 59, 54
1, 194705, Note_on_c, 0, 57, 46
1, 194707, Note_on_c, 0, 66, 53
1, 194713, Note_on_c, 0, 50, 35
1, 194985, Note_off_c, 0, 57, 59
1, 195027, Note_on_c, 0, 64, 45
1, 195030, Note_off_c, 0, 66, 49
1, 195035, Note_on_c, 0, 55, 31
1, 195293, Note_off_c, 0, 64, 60
1, 195308, Note_off_c, 0, 55, 45
1, 195316, Note_on_c, 0, 54, 34
1, 195328, Note_on_c, 0, 62, 41
1, 195410, Note_off_c, 0, 50, 40
1, 195563, Note_off_c, 0, 54, 44
1, 195598, Note_off_c, 0, 71, 43
1, 195610, Note_on_c, 0, 52, 41
1, 195619, Note_off_c, 0, 62, 36
1, 195623, Note_on_c, 0, 55, 34
1, 195632, Note_on_c, 0, 60, 47
1, 195854, Note_off_c, 0, 52, 33
1, 195902, Note_on_c, 0, 69, 65
1, 195905, Note_on_c, 0, 57, 37
1, 195906, Note_on_c, 0, 54, 41
1, 195911, Note_off_c, 0, 55, 44
1, 195936, Control_c, 0, 64, 61
1, 195966, Control_c, 0, 64, 61
1, 195996, Control_c, 0, 64, 62
1, 196070, Control_c, 0, 64, 61
1, 196129, Control_c, 0, 64, 61
1, 196133, Note_off_c, 0, 57, 42
1, 196205, Note_on_c, 0, 55, 42
1, 196210, Note_off_c, 0, 60, 60
1, 196218, Control_c, 0, 64, 60
1, 196219, Note_off_c, 0, 54, 52
1, 196234, Note_on_c, 0, 59, 49
1, 196263, Control_c, 0, 64, 61
1, 196278, Control_c, 0, 64, 61
1, 196293, Control_c, 0, 64, 62
1, 196307, Control_c, 0, 64, 63
1, 196322, Control_c, 0, 64, 65
1, 196337, Control_c, 0, 64, 67
1, 196359, Control_c, 0, 64, 68
1, 196363, Note_off_c, 0, 69, 52
1, 196374, Control_c, 0, 64, 70
1, 196389, Control_c, 0, 64, 71
1, 196404, Control_c, 0, 64, 72
1, 196434, Control_c, 0, 64, 72
1, 196449, Control_c, 0, 64, 72
1, 196463, Control_c, 0, 64, 71
1, 196478, Control_c, 0, 64, 70
1, 196493, Control_c, 0, 64, 69
1, 196507, Control_c, 0, 64, 67
1, 196522, Control_c, 0, 64, 63
1, 196537, Control_c, 0, 64, 60
1, 196545, Note_on_c, 0, 52, 34
1, 196552, Control_c, 0, 64, 59
1, 196554, Note_on_c, 0, 67, 55
1, 196559, Note_off_c, 0, 59, 38
1, 196567, Note_on_c, 0, 64, 41
1, 196581, Control_c, 0, 64, 61
1, 196596, Control_c, 0, 64, 64
1, 196611, Control_c, 0, 64, 66
1, 196623, Note_off_c, 0, 52, 63
1, 196626, Control_c, 0, 64, 69
1, 196628, Note_off_c, 0, 55, 62
1, 196641, Control_c, 0, 64, 70
1, 196655, Control_c, 0, 64, 72
1, 196670, Control_c, 0, 64, 74
1, 196685, Control_c, 0, 64, 76
1, 196699, Control_c, 0, 64, 78
1, 196714, Control_c, 0, 64, 79
1, 196744, Control_c, 0, 64, 79
1, 196789, Control_c, 0, 64, 79
1, 196804, Control_c, 0, 64, 78
1, 196819, Control_c, 0, 64, 75
1, 196834, Control_c, 0, 64, 71
1, 196848, Control_c, 0, 64, 66
1, 196863, Note_on_c, 0, 57, 42
1, 196863, Control_c, 0, 64, 63
1, 196864, Note_on_c, 0, 48, 40
1, 196878, Control_c, 0, 64, 60
1, 196893, Control_c, 0, 64, 59
1, 196908, Control_c, 0, 64, 60
1, 196923, Control_c, 0, 64, 61
1, 196938, Control_c, 0, 64, 62
1, 196953, Control_c, 0, 64, 64
1, 196967, Control_c, 0, 64, 66
1, 196982, Control_c, 0, 64, 68
1, 196997, Control_c, 0, 64, 70
1, 197009, Note_off_c, 0, 67, 58
1, 197012, Control_c, 0, 64, 72
1, 197026, Control_c, 0, 64, 74
1, 197041, Control_c, 0, 64, 76
1, 197057, Control_c, 0, 64, 77
1, 197114, Note_off_c, 0, 48, 37
1, 197138, Control_c, 0, 64, 77
1, 197153, Control_c, 0, 64, 76
1, 197154, Note_on_c, 0, 45, 42
1, 197161, Note_off_c, 0, 64, 63
1, 197168, Control_c, 0, 64, 73
1, 197179, Note_on_c, 0, 66, 52
1, 197183, Control_c, 0, 64, 71
1, 197212, Control_c, 0, 64, 72
1, 197227, Control_c, 0, 64, 73
1, 197230, Note_on_c, 0, 67, 50
1, 197242, Control_c, 0, 64, 74
1, 197254, Note_off_c, 0, 67, 59
1, 197257, Control_c, 0, 64, 75
1, 197272, Control_c, 0, 64, 76
1, 197301, Control_c, 0, 64, 75
1, 197316, Control_c, 0, 64, 75
1, 197320, Note_off_c, 0, 66, 60
1, 197330, Note_off_c, 0, 45, 29
1, 197331, Control_c, 0, 64, 74
1, 197341, Note_on_c, 0, 64, 59
1, 197357, Note_off_c, 0, 57, 34
1, 197361, Control_c, 0, 64, 73
1, 197376, Control_c, 0, 64, 72
1, 197391, Control_c, 0, 64, 71
1, 197405, Control_c, 0, 64, 71
1, 197420, Control_c, 0, 64, 70
1, 197435, Control_c, 0, 64, 69
1, 197450, Control_c, 0, 64, 68
1, 197465, Control_c, 0, 64, 66
1, 197470, Note_off_c, 0, 64, 49
1, 197477, Note_on_c, 0, 66, 67
1, 197478, Note_on_c, 0, 50, 53
1, 197479, Control_c, 0, 64, 63
1, 197494, Control_c, 0, 64, 59
1, 197509, Control_c, 0, 64, 58
1, 197519, Note_on_c, 0, 62, 48
1, 197523, Control_c, 0, 64, 59
1, 197538, Control_c, 0, 64, 60
1, 197553, Control_c, 0, 64, 63
1, 197568, Control_c, 0, 64, 66
1, 197583, Control_c, 0, 64, 69
1, 197597, Control_c, 0, 64, 74
1, 197612, Control_c, 0, 64, 77
1, 197627, Control_c, 0, 64, 77
1, 197772, Note_off_c, 0, 50, 40
1, 197775, Control_c, 0, 64, 78
1, 197780, Note_on_c, 0, 48, 52
1, 197790, Control_c, 0, 64, 79
1, 197805, Control_c, 0, 64, 78
1, 197820, Control_c, 0, 64, 78
1, 197851, Poly_aftertouch_c, 0, 55, 127
1, 197873, Control_c, 0, 64, 78
1, 197905, Poly_aftertouch_c, 0, 55, 0
1, 197917, Control_c, 0, 64, 79
1, 197976, Control_c, 0, 64, 78
1, 197991, Control_c, 0, 64, 77
1, 198006, Control_c, 0, 64, 75
1, 198021, Control_c, 0, 64, 69
1, 198035, Control_c, 0, 64, 63
1, 198050, Control_c, 0, 64, 56
1, 198065, Control_c, 0, 64, 51
1, 198080, Control_c, 0, 64, 50
1, 198095, Note_off_c, 0, 66, 36
1, 198095, Control_c, 0, 64, 51
1, 198109, Note_on_c, 0, 67, 73
1, 198109, Control_c, 0, 64, 55
1, 198112, Note_on_c, 0, 47, 41
1, 198112, Note_on_c, 0, 55, 54
1, 198113, Note_off_c, 0, 48, 39
1, 198124, Control_c, 0, 64, 60
1, 198139, Control_c, 0, 64, 63
1, 198141, Note_off_c, 0, 47, 54
1, 198151, Note_off_c, 0, 55, 64
1, 198154, Control_c, 0, 64, 67
1, 198169, Control_c, 0, 64, 70
1, 198184, Control_c, 0, 64, 75
1, 198199, Control_c, 0, 64, 81
1, 198214, Control_c, 0, 64, 86
1, 198228, Control_c, 0, 64, 90
1, 198234, Note_off_c, 0, 62, 47
1, 198243, Control_c, 0, 64, 93
1, 198254, Note_off_c, 0, 67, 58
1, 198258, Control_c, 0, 64, 94
1, 198272, Control_c, 0, 64, 95
1, 198331, Control_c, 0, 64, 94
1, 198345, Control_c, 0, 64, 93
1, 198360, Control_c, 0, 64, 90
1, 198375, Control_c, 0, 64, 85
1, 198390, Control_c, 0, 64, 77
1, 198405, Control_c, 0, 64, 70
1, 198409, Note_on_c, 0, 50, 65
1, 198415, Note_on_c, 0, 62, 86
1, 198419, Control_c, 0, 64, 65
1, 198434, Control_c, 0, 64, 60
1, 198449, Control_c, 0, 64, 56
1, 198464, Control_c, 0, 64, 53
1, 198479, Control_c, 0, 64, 49
1, 198494, Control_c, 0, 64, 46
1, 198509, Control_c, 0, 64, 45
1, 198571, Note_off_c, 0, 62, 60
1, 198695, Control_c, 0, 64, 44
1, 198733, Note_on_c, 0, 55, 70
1, 198735, Note_on_c, 0, 62, 80
1, 198774, Note_off_c, 0, 50, 61
1, 198924, Note_off_c, 0, 62, 60
1, 199021, Control_c, 0, 64, 45
1, 199024, Note_on_c, 0, 71, 83
1, 199025, Note_on_c, 0, 54, 66
1, 199032, Note_on_c, 0, 62, 73
1, 199036, Control_c, 0, 64, 46
1, 199050, Control_c, 0, 64, 47
1, 199065, Control_c, 0, 64, 49
1, 199069, Note_off_c, 0, 55, 60
1, 199080, Control_c, 0, 64, 53
1, 199094, Control_c, 0, 64, 58
1, 199109, Control_c, 0, 64, 60
1, 199124, Control_c, 0, 64, 63
1, 199139, Control_c, 0, 64, 64
1, 199154, Control_c, 0, 64, 66
1, 199156, Note_off_c, 0, 71, 60
1, 199168, Control_c, 0, 64, 69
1, 199183, Control_c, 0, 64, 70
1, 199198, Control_c, 0, 64, 71
1, 199208, Note_off_c, 0, 62, 41
1, 199213, Control_c, 0, 64, 69
1, 199216, Note_off_c, 0, 54, 50
1, 199228, Control_c, 0, 64, 67
1, 199242, Control_c, 0, 64, 64
1, 199257, Control_c, 0, 64, 62
1, 199272, Control_c, 0, 64, 60
1, 199287, Control_c, 0, 64, 58
1, 199302, Control_c, 0, 64, 56
1, 199314, Note_on_c, 0, 52, 66
1, 199316, Note_on_c, 0, 55, 73
1, 199316, Control_c, 0, 64, 53
1, 199318, Note_on_c, 0, 71, 91
1, 199331, Control_c, 0, 64, 51
1, 199354, Control_c, 0, 64, 49
1, 199369, Control_c, 0, 64, 48
1, 199398, Control_c, 0, 64, 49
1, 199413, Control_c, 0, 64, 55
1, 199428, Control_c, 0, 64, 60
1, 199443, Control_c, 0, 64, 62
1, 199459, Control_c, 0, 64, 64
1, 199473, Note_off_c, 0, 71, 60
1, 199473, Control_c, 0, 64, 65
1, 199488, Control_c, 0, 64, 66
1, 199503, Control_c, 0, 64, 67
1, 199518, Control_c, 0, 64, 68
1, 199532, Control_c, 0, 64, 68
1, 199547, Control_c, 0, 64, 69
1, 199577, Control_c, 0, 64, 68
1, 199592, Control_c, 0, 64, 67
1, 199606, Control_c, 0, 64, 65
1, 199612, Note_on_c, 0, 71, 87
1, 199616, Note_on_c, 0, 79, 88
1, 199621, Control_c, 0, 64, 65
1, 199623, Note_off_c, 0, 55, 61
1, 199636, Control_c, 0, 64, 64
1, 199651, Control_c, 0, 64, 65
1, 199666, Control_c, 0, 64, 67
1, 199680, Control_c, 0, 64, 69
1, 199683, Note_off_c, 0, 71, 59
1, 199695, Control_c, 0, 64, 72
1, 199710, Control_c, 0, 64, 75
1, 199716, Note_off_c, 0, 79, 64
1, 199725, Control_c, 0, 64, 77
1, 199740, Control_c, 0, 64, 79
1, 199755, Control_c, 0, 64, 80
1, 199784, Control_c, 0, 64, 80
1, 199814, Control_c, 0, 64, 79
1, 199829, Control_c, 0, 64, 78
1, 199844, Control_c, 0, 64, 75
1, 199859, Control_c, 0, 64, 72
1, 199873, Control_c, 0, 64, 68
1, 199888, Control_c, 0, 64, 67
1, 199903, Control_c, 0, 64, 64
1, 199918, Control_c, 0, 64, 62
1, 199931, Note_on_c, 0, 64, 78
1, 199932, Control_c, 0, 64, 58
1, 199934, Note_on_c, 0, 79, 88
1, 199939, Note_on_c, 0, 59, 71
1, 199947, Control_c, 0, 64, 53
1, 199962, Control_c, 0, 64, 48
1, 199977, Control_c, 0, 64, 45
1, 199992, Control_c, 0, 64, 43
1, 200006, Control_c, 0, 64, 41
1, 200021, Control_c, 0, 64, 40
1, 200036, Control_c, 0, 64, 39
1, 200051, Control_c, 0, 64, 38
1, 200065, Control_c, 0, 64, 37
1, 200109, Note_off_c, 0, 79, 51
1, 200132, Control_c, 0, 64, 40
1, 200147, Control_c, 0, 64, 47
1, 200162, Control_c, 0, 64, 54
1, 200173, Poly_aftertouch_c, 0, 70, 127
1, 200177, Control_c, 0, 64, 57
1, 200192, Control_c, 0, 64, 61
1, 200206, Control_c, 0, 64, 64
1, 200221, Control_c, 0, 64, 67
1, 200231, Note_on_c, 0, 79, 91
1, 200236, Control_c, 0, 64, 71
1, 200252, Control_c, 0, 64, 76
1, 200261, Note_off_c, 0, 64, 32
1, 200267, Control_c, 0, 64, 82
1, 200282, Control_c, 0, 64, 89
1, 200296, Control_c, 0, 64, 97
1, 200303, Poly_aftertouch_c, 0, 70, 0
1, 200311, Control_c, 0, 64, 103
1, 200326, Control_c, 0, 64, 106
1, 200343, Note_off_c, 0, 79, 54
1, 200349, Note_off_c, 0, 59, 53
1, 200355, Control_c, 0, 64, 106
1, 200370, Control_c, 0, 64, 107
1, 200385, Control_c, 0, 64, 107
1, 200474, Control_c, 0, 64, 105
1, 200489, Control_c, 0, 64, 104
1, 200503, Control_c, 0, 64, 103
1, 200518, Control_c, 0, 64, 101
1, 200533, Control_c, 0, 64, 99
1, 200534, Note_on_c, 0, 73, 88
1, 200536, Note_off_c, 0, 52, 64
1, 200539, Note_on_c, 0, 67, 65
1, 200548, Control_c, 0, 64, 94
1, 200563, Control_c, 0, 64, 87
1, 200578, Control_c, 0, 64, 79
1, 200593, Control_c, 0, 64, 73
1, 200608, Control_c, 0, 64, 68
1, 200622, Control_c, 0, 64, 65
1, 200637, Control_c, 0, 64, 63
1, 200652, Control_c, 0, 64, 62
1, 200667, Control_c, 0, 64, 61
1, 200682, Control_c, 0, 64, 60
1, 200697, Control_c, 0, 64, 59
1, 200712, Control_c, 0, 64, 58
1, 200726, Control_c, 0, 64, 57
1, 200741, Control_c, 0, 64, 56
1, 200756, Control_c, 0, 64, 55
1, 200771, Control_c, 0, 64, 55
1, 200815, Control_c, 0, 64, 54
1, 200830, Control_c, 0, 64, 53
1, 200838, Note_on_c, 0, 50, 58
1, 200851, Note_on_c, 0, 52, 62
1, 200852, Control_c, 0, 64, 53
1, 201168, Note_on_c, 0, 49, 47
1, 201169, Note_on_c, 0, 57, 54
1, 201171, Note_on_c, 0, 76, 82
1, 201177, Note_off_c, 0, 52, 56
1, 201177, Note_off_c, 0, 67, 63
1, 201179, Control_c, 0, 64, 55
1, 201194, Control_c, 0, 64, 58
1, 201194, Note_off_c, 0, 50, 36
1, 201194, Note_off_c, 0, 73, 61
1, 201209, Control_c, 0, 64, 61
1, 201224, Control_c, 0, 64, 64
1, 201239, Control_c, 0, 64, 67
1, 201253, Control_c, 0, 64, 70
1, 201268, Control_c, 0, 64, 73
1, 201283, Control_c, 0, 64, 77
1, 201287, Note_off_c, 0, 57, 53
1, 201297, Control_c, 0, 64, 79
1, 201299, Note_off_c, 0, 49, 55
1, 201312, Control_c, 0, 64, 82
1, 201327, Control_c, 0, 64, 86
1, 201342, Control_c, 0, 64, 91
1, 201357, Control_c, 0, 64, 96
1, 201371, Control_c, 0, 64, 96
1, 201386, Control_c, 0, 64, 96
1, 201416, Control_c, 0, 64, 95
1, 201431, Control_c, 0, 64, 94
1, 201445, Control_c, 0, 64, 91
1, 201460, Control_c, 0, 64, 85
1, 201461, Note_on_c, 0, 45, 49
1, 201472, Note_on_c, 0, 61, 65
1, 201475, Control_c, 0, 64, 77
1, 201478, Note_on_c, 0, 55, 48
1, 201490, Control_c, 0, 64, 70
1, 201504, Control_c, 0, 64, 66
1, 201519, Control_c, 0, 64, 63
1, 201534, Control_c, 0, 64, 62
1, 201549, Control_c, 0, 64, 61
1, 201564, Control_c, 0, 64, 60
1, 201601, Control_c, 0, 64, 59
1, 201749, Control_c, 0, 64, 59
1, 201761, Note_off_c, 0, 55, 55
1, 201779, Control_c, 0, 64, 58
1, 201781, Note_off_c, 0, 45, 58
1, 201788, Note_on_c, 0, 50, 44
1, 201792, Note_on_c, 0, 66, 65
1, 201797, Note_on_c, 0, 54, 40
1, 201799, Note_off_c, 0, 61, 59
1, 201849, Note_off_c, 0, 76, 53
1, 201883, Control_c, 0, 64, 59
1, 201913, Control_c, 0, 64, 59
1, 202047, Control_c, 0, 64, 59
1, 202072, Note_off_c, 0, 66, 60
1, 202088, Note_on_c, 0, 69, 70
1, 202091, Control_c, 0, 64, 58
1, 202092, Note_on_c, 0, 64, 54
1, 202093, Note_on_c, 0, 48, 46
1, 202094, Note_off_c, 0, 50, 44
1, 202120, Control_c, 0, 64, 58
1, 202180, Control_c, 0, 64, 59
1, 202194, Control_c, 0, 64, 60
1, 202209, Control_c, 0, 64, 62
1, 202224, Control_c, 0, 64, 64
1, 202239, Control_c, 0, 64, 65
1, 202254, Control_c, 0, 64, 66
1, 202255, Note_off_c, 0, 64, 54
1, 202268, Control_c, 0, 64, 68
1, 202283, Control_c, 0, 64, 69
1, 202298, Control_c, 0, 64, 71
1, 202312, Control_c, 0, 64, 73
1, 202327, Control_c, 0, 64, 73
1, 202350, Control_c, 0, 64, 73
1, 202365, Control_c, 0, 64, 70
1, 202380, Control_c, 0, 64, 66
1, 202394, Control_c, 0, 64, 59
1, 202400, Note_on_c, 0, 47, 43
1, 202406, Note_on_c, 0, 74, 74
1, 202409, Control_c, 0, 64, 52
1, 202420, Note_on_c, 0, 62, 50
1, 202423, Note_off_c, 0, 69, 57
1, 202424, Control_c, 0, 64, 49
1, 202454, Control_c, 0, 64, 52
1, 202468, Control_c, 0, 64, 59
1, 202483, Control_c, 0, 64, 64
1, 202498, Control_c, 0, 64, 66
1, 202513, Control_c, 0, 64, 69
1, 202527, Control_c, 0, 64, 72
1, 202542, Control_c, 0, 64, 76
1, 202557, Control_c, 0, 64, 80
1, 202572, Control_c, 0, 64, 84
1, 202578, Note_off_c, 0, 47, 35
1, 202587, Control_c, 0, 64, 88
1, 202601, Note_off_c, 0, 48, 13
1, 202601, Control_c, 0, 64, 91
1, 202616, Control_c, 0, 64, 92
1, 202631, Control_c, 0, 64, 91
1, 202647, Control_c, 0, 64, 87
1, 202662, Control_c, 0, 64, 80
1, 202677, Control_c, 0, 64, 68
1, 202692, Control_c, 0, 64, 61
1, 202706, Control_c, 0, 64, 57
1, 202712, Note_off_c, 0, 74, 55
1, 202717, Note_on_c, 0, 72, 65
1, 202719, Note_on_c, 0, 45, 46
1, 202736, Control_c, 0, 64, 59
1, 202750, Control_c, 0, 64, 62
1, 202765, Control_c, 0, 64, 65
1, 202780, Control_c, 0, 64, 68
1, 202788, Note_off_c, 0, 72, 63
1, 202794, Control_c, 0, 64, 71
1, 202809, Control_c, 0, 64, 74
1, 202823, Control_c, 0, 64, 78
1, 202834, Note_off_c, 0, 45, 59
1, 202838, Control_c, 0, 64, 82
1, 202853, Control_c, 0, 64, 87
1, 202868, Control_c, 0, 64, 93
1, 202870, Note_off_c, 0, 54, 63
1, 202883, Control_c, 0, 64, 99
1, 202897, Control_c, 0, 64, 104
1, 202912, Control_c, 0, 64, 105
1, 202956, Control_c, 0, 64, 102
1, 202971, Control_c, 0, 64, 98
1, 202986, Control_c, 0, 64, 95
1, 203001, Control_c, 0, 64, 91
1, 203016, Control_c, 0, 64, 85
1, 203019, Note_on_c, 0, 43, 46
1, 203020, Note_on_c, 0, 71, 69
1, 203031, Control_c, 0, 64, 78
1, 203046, Control_c, 0, 64, 70
1, 203060, Control_c, 0, 64, 64
1, 203075, Control_c, 0, 64, 62
1, 203097, Control_c, 0, 64, 60
1, 203112, Control_c, 0, 64, 59
1, 203127, Control_c, 0, 64, 59
1, 203141, Control_c, 0, 64, 56
1, 203156, Control_c, 0, 64, 54
1, 203171, Control_c, 0, 64, 51
1, 203186, Control_c, 0, 64, 49
1, 203201, Control_c, 0, 64, 49
1, 203230, Control_c, 0, 64, 48
1, 203245, Control_c, 0, 64, 48
1, 203344, Note_on_c, 0, 47, 46
1, 203349, Control_c, 0, 64, 50
1, 203364, Control_c, 0, 64, 54
1, 203379, Control_c, 0, 64, 60
1, 203394, Control_c, 0, 64, 64
1, 203409, Control_c, 0, 64, 66
1, 203423, Control_c, 0, 64, 70
1, 203429, Note_off_c, 0, 43, 60
1, 203439, Control_c, 0, 64, 72
1, 203454, Control_c, 0, 64, 74
1, 203469, Control_c, 0, 64, 75
1, 203507, Note_off_c, 0, 62, 25
1, 203543, Control_c, 0, 64, 75
1, 203558, Control_c, 0, 64, 74
1, 203572, Control_c, 0, 64, 73
1, 203587, Control_c, 0, 64, 69
1, 203602, Control_c, 0, 64, 65
1, 203612, Note_off_c, 0, 47, 42
1, 203617, Control_c, 0, 64, 61
1, 203632, Control_c, 0, 64, 58
1, 203646, Note_on_c, 0, 44, 40
1, 203646, Control_c, 0, 64, 55
1, 203648, Note_on_c, 0, 52, 43
1, 203661, Control_c, 0, 64, 53
1, 203676, Control_c, 0, 64, 52
1, 203691, Control_c, 0, 64, 51
1, 203706, Control_c, 0, 64, 50
1, 203720, Control_c, 0, 64, 50
1, 203750, Control_c, 0, 64, 49
1, 203764, Control_c, 0, 64, 49
1, 203895, Note_off_c, 0, 52, 54
1, 203935, Control_c, 0, 64, 48
1, 203940, Note_on_c, 0, 50, 44
1, 203950, Control_c, 0, 64, 48
1, 203952, Note_on_c, 0, 59, 50
1, 203994, Control_c, 0, 64, 51
1, 204009, Control_c, 0, 64, 57
1, 204024, Control_c, 0, 64, 61
1, 204038, Control_c, 0, 64, 64
1, 204053, Control_c, 0, 64, 66
1, 204068, Control_c, 0, 64, 69
1, 204083, Control_c, 0, 64, 73
1, 204098, Control_c, 0, 64, 78
1, 204113, Control_c, 0, 64, 82
1, 204116, Note_off_c, 0, 44, 40
1, 204128, Control_c, 0, 64, 86
1, 204143, Control_c, 0, 64, 87
1, 204157, Control_c, 0, 64, 86
1, 204172, Control_c, 0, 64, 83
1, 204187, Control_c, 0, 64, 77
1, 204202, Control_c, 0, 64, 70
1, 204217, Control_c, 0, 64, 65
1, 204232, Control_c, 0, 64, 61
1, 204232, Note_on_c, 0, 49, 31
1, 204237, Note_on_c, 0, 45, 30
1, 204247, Note_off_c, 0, 50, 31
1, 204247, Control_c, 0, 64, 58
1, 204256, Note_on_c, 0, 64, 46
1, 204262, Control_c, 0, 64, 56
1, 204307, Control_c, 0, 64, 59
1, 204322, Control_c, 0, 64, 62
1, 204336, Control_c, 0, 64, 64
1, 204351, Control_c, 0, 64, 67
1, 204354, Note_off_c, 0, 71, 43
1, 204366, Control_c, 0, 64, 69
1, 204379, Note_off_c, 0, 59, 41
1, 204381, Control_c, 0, 64, 71
1, 204396, Control_c, 0, 64, 72
1, 204404, Note_off_c, 0, 64, 54
1, 204411, Control_c, 0, 64, 73
1, 204441, Control_c, 0, 64, 72
1, 204456, Control_c, 0, 64, 71
1, 204470, Control_c, 0, 64, 71
1, 204485, Control_c, 0, 64, 69
1, 204500, Control_c, 0, 64, 67
1, 204514, Control_c, 0, 64, 64
1, 204529, Control_c, 0, 64, 61
1, 204542, Note_off_c, 0, 49, 47
1, 204544, Control_c, 0, 64, 58
1, 204551, Note_on_c, 0, 64, 67
1, 204558, Note_on_c, 0, 50, 41
1, 204559, Control_c, 0, 64, 57
1, 204569, Note_on_c, 0, 62, 54
1, 204574, Control_c, 0, 64, 57
1, 204611, Control_c, 0, 64, 56
1, 204625, Control_c, 0, 64, 55
1, 204640, Control_c, 0, 64, 53
1, 204655, Control_c, 0, 64, 52
1, 204834, Note_off_c, 0, 62, 60
1, 204877, Note_on_c, 0, 69, 68
1, 204879, Note_on_c, 0, 61, 51
1, 204884, Note_off_c, 0, 64, 57
1, 204885, Note_off_c, 0, 50, 52
1, 204891, Note_on_c, 0, 52, 40
1, 204921, Control_c, 0, 64, 51
1, 204936, Control_c, 0, 64, 51
1, 205040, Control_c, 0, 64, 50
1, 205070, Control_c, 0, 64, 50
1, 205112, Note_off_c, 0, 69, 55
1, 205129, Control_c, 0, 64, 51
1, 205144, Control_c, 0, 64, 56
1, 205158, Note_off_c, 0, 45, 57
1, 205159, Control_c, 0, 64, 60
1, 205174, Control_c, 0, 64, 63
1, 205179, Note_on_c, 0, 64, 51
1, 205181, Note_on_c, 0, 67, 57
1, 205189, Control_c, 0, 64, 65
1, 205204, Control_c, 0, 64, 67
1, 205218, Control_c, 0, 64, 69
1, 205233, Control_c, 0, 64, 73
1, 205248, Control_c, 0, 64, 77
1, 205263, Control_c, 0, 64, 83
1, 205278, Control_c, 0, 64, 93
1, 205291, Note_off_c, 0, 67, 59
1, 205292, Control_c, 0, 64, 102
1, 205307, Control_c, 0, 64, 106
1, 205359, Control_c, 0, 64, 106
1, 205374, Control_c, 0, 64, 105
1, 205389, Control_c, 0, 64, 104
1, 205403, Control_c, 0, 64, 101
1, 205418, Control_c, 0, 64, 98
1, 205433, Control_c, 0, 64, 93
1, 205448, Control_c, 0, 64, 86
1, 205463, Control_c, 0, 64, 78
1, 205478, Control_c, 0, 64, 69
1, 205478, Note_off_c, 0, 52, 53
1, 205482, Note_on_c, 0, 46, 44
1, 205492, Control_c, 0, 64, 65
1, 205496, Note_on_c, 0, 66, 58
1, 205496, Note_off_c, 0, 64, 53
1, 205507, Control_c, 0, 64, 61
1, 205522, Control_c, 0, 64, 59
1, 205537, Control_c, 0, 64, 58
1, 205551, Control_c, 0, 64, 57
1, 205581, Control_c, 0, 64, 56
1, 205596, Control_c, 0, 64, 56
1, 205625, Control_c, 0, 64, 55
1, 205655, Control_c, 0, 64, 55
1, 205788, Control_c, 0, 64, 55
1, 205800, Note_on_c, 0, 49, 42
1, 205803, Control_c, 0, 64, 58
1, 205818, Control_c, 0, 64, 61
1, 205833, Control_c, 0, 64, 64
1, 205848, Control_c, 0, 64, 66
1, 205863, Control_c, 0, 64, 69
1, 205878, Control_c, 0, 64, 71
1, 205893, Control_c, 0, 64, 73
1, 205907, Control_c, 0, 64, 75
1, 205922, Control_c, 0, 64, 76
1, 205937, Control_c, 0, 64, 77
1, 205943, Note_off_c, 0, 66, 57
1, 205952, Control_c, 0, 64, 77
1, 206012, Control_c, 0, 64, 77
1, 206026, Control_c, 0, 64, 76
1, 206041, Control_c, 0, 64, 75
1, 206056, Control_c, 0, 64, 73
1, 206071, Control_c, 0, 64, 71
1, 206093, Control_c, 0, 64, 68
1, 206108, Control_c, 0, 64, 66
1, 206112, Note_on_c, 0, 54, 41
1, 206119, Note_on_c, 0, 73, 63
1, 206122, Control_c, 0, 64, 63
1, 206124, Note_off_c, 0, 49, 39
1, 206134, Note_off_c, 0, 61, 55
1, 206137, Control_c, 0, 64, 62
1, 206152, Control_c, 0, 64, 61
1, 206167, Control_c, 0, 64, 59
1, 206181, Control_c, 0, 64, 55
1, 206196, Control_c, 0, 64, 51
1, 206211, Control_c, 0, 64, 48
1, 206330, Control_c, 0, 64, 49
1, 206345, Control_c, 0, 64, 50
1, 206360, Control_c, 0, 64, 51
1, 206374, Control_c, 0, 64, 54
1, 206389, Control_c, 0, 64, 57
1, 206404, Control_c, 0, 64, 60
1, 206419, Control_c, 0, 64, 63
1, 206425, Note_on_c, 0, 52, 41
1, 206433, Note_on_c, 0, 61, 46
1, 206434, Control_c, 0, 64, 64
1, 206444, Note_off_c, 0, 54, 35
1, 206448, Control_c, 0, 64, 65
1, 206463, Control_c, 0, 64, 67
1, 206478, Control_c, 0, 64, 70
1, 206493, Control_c, 0, 64, 72
1, 206508, Control_c, 0, 64, 74
1, 206522, Control_c, 0, 64, 76
1, 206544, Note_off_c, 0, 46, 32
1, 206611, Control_c, 0, 64, 75
1, 206626, Control_c, 0, 64, 74
1, 206642, Control_c, 0, 64, 74
1, 206656, Control_c, 0, 64, 73
1, 206671, Control_c, 0, 64, 71
1, 206686, Control_c, 0, 64, 69
1, 206701, Control_c, 0, 64, 66
1, 206703, Note_off_c, 0, 52, 38
1, 206716, Control_c, 0, 64, 62
1, 206728, Note_on_c, 0, 47, 35
1, 206730, Control_c, 0, 64, 59
1, 206734, Note_off_c, 0, 73, 50
1, 206737, Note_on_c, 0, 50, 45
1, 206745, Note_on_c, 0, 66, 44
1, 206745, Control_c, 0, 64, 58
1, 206760, Control_c, 0, 64, 58
1, 206804, Control_c, 0, 64, 57
1, 206819, Control_c, 0, 64, 57
1, 206842, Control_c, 0, 64, 56
1, 206873, Note_off_c, 0, 66, 58
1, 206882, Note_off_c, 0, 61, 36
1, 207067, Note_on_c, 0, 66, 62
1, 207069, Note_on_c, 0, 64, 45
1, 207197, Control_c, 0, 64, 57
1, 207344, Note_off_c, 0, 64, 57
1, 207366, Note_off_c, 0, 66, 56
1, 207372, Note_on_c, 0, 71, 60
1, 207383, Note_on_c, 0, 62, 43
1, 207425, Note_off_c, 0, 50, 52
1, 207576, Note_off_c, 0, 47, 40
1, 207628, Note_off_c, 0, 71, 57
1, 207656, Note_on_c, 0, 69, 50
1, 207660, Note_on_c, 0, 54, 46
1, 207937, Note_off_c, 0, 69, 60
1, 207956, Note_on_c, 0, 67, 53
1, 207966, Note_on_c, 0, 47, 37
1, 207971, Note_on_c, 0, 59, 42
1, 207976, Note_off_c, 0, 54, 46
1, 208020, Control_c, 0, 64, 57
1, 208036, Control_c, 0, 64, 59
1, 208050, Control_c, 0, 64, 61
1, 208065, Control_c, 0, 64, 62
1, 208080, Control_c, 0, 64, 64
1, 208095, Control_c, 0, 64, 65
1, 208110, Control_c, 0, 64, 66
1, 208154, Control_c, 0, 64, 66
1, 208169, Control_c, 0, 64, 67
1, 208199, Control_c, 0, 64, 67
1, 208213, Control_c, 0, 64, 68
1, 208228, Control_c, 0, 64, 68
1, 208244, Control_c, 0, 64, 69
1, 208259, Control_c, 0, 64, 69
1, 208271, Note_on_c, 0, 57, 49
1, 208274, Control_c, 0, 64, 70
1, 208280, Note_off_c, 0, 59, 44
1, 208340, Control_c, 0, 64, 69
1, 208355, Control_c, 0, 64, 69
1, 208357, Note_off_c, 0, 47, 17
1, 208384, Control_c, 0, 64, 68
1, 208414, Control_c, 0, 64, 67
1, 208459, Control_c, 0, 64, 67
1, 208474, Control_c, 0, 64, 66
1, 208489, Control_c, 0, 64, 66
1, 208490, Note_off_c, 0, 57, 36
1, 208490, Note_off_c, 0, 62, 44
1, 208504, Control_c, 0, 64, 65
1, 208562, Control_c, 0, 64, 64
1, 208566, Note_on_c, 0, 52, 42
1, 208580, Note_on_c, 0, 55, 49
1, 208607, Control_c, 0, 64, 64
1, 208636, Control_c, 0, 64, 63
1, 208651, Control_c, 0, 64, 62
1, 208666, Control_c, 0, 64, 61
1, 208681, Control_c, 0, 64, 61
1, 208884, Note_off_c, 0, 52, 57
1, 208887, Note_on_c, 0, 59, 57
1, 208891, Note_on_c, 0, 50, 41
1, 209189, Note_on_c, 0, 49, 47
1, 209195, Note_off_c, 0, 59, 55
1, 209199, Note_off_c, 0, 50, 40
1, 209206, Note_on_c, 0, 64, 62
1, 209225, Note_off_c, 0, 55, 51
1, 209508, Note_on_c, 0, 52, 53
1, 209508, Note_off_c, 0, 64, 60
1, 209510, Note_on_c, 0, 62, 65
1, 209600, Note_off_c, 0, 67, 53
1, 209802, Note_off_c, 0, 52, 63
1, 209806, Note_on_c, 0, 61, 70
1, 209829, Note_on_c, 0, 57, 55
1, 209850, Note_off_c, 0, 49, 60
1, 209852, Note_off_c, 0, 62, 48
1, 210122, Note_on_c, 0, 64, 69
1, 210126, Note_on_c, 0, 55, 64
1, 210137, Note_off_c, 0, 57, 61
1, 210198, Note_off_c, 0, 61, 61
1, 210426, Note_on_c, 0, 69, 82
1, 210430, Note_on_c, 0, 54, 58
1, 210430, Note_off_c, 0, 55, 61
1, 210441, Note_off_c, 0, 64, 62
1, 210519, Control_c, 0, 64, 60
1, 210730, Note_on_c, 0, 57, 60
1, 210730, Note_off_c, 0, 69, 52
1, 210731, Note_on_c, 0, 67, 80
1, 210736, Note_off_c, 0, 54, 62
1, 210750, Note_on_c, 0, 61, 56
1, 210921, Note_off_c, 0, 61, 38
1, 210957, Control_c, 0, 64, 60
1, 210986, Control_c, 0, 64, 59
1, 211001, Control_c, 0, 64, 58
1, 211016, Control_c, 0, 64, 58
1, 211024, Note_off_c, 0, 57, 62
1, 211025, Note_on_c, 0, 66, 87
1, 211028, Note_on_c, 0, 62, 60
1, 211049, Note_off_c, 0, 67, 56
1, 211349, Control_c, 0, 64, 58
1, 211353, Note_off_c, 0, 62, 60
1, 211354, Note_off_c, 0, 66, 65
1, 211356, Note_on_c, 0, 69, 88
1, 211356, Note_on_c, 0, 64, 69
1, 211358, Note_on_c, 0, 61, 60
1, 211363, Control_c, 0, 64, 60
1, 211378, Control_c, 0, 64, 62
1, 211393, Control_c, 0, 64, 64
1, 211408, Control_c, 0, 64, 67
1, 211414, Note_off_c, 0, 64, 63
1, 211423, Control_c, 0, 64, 70
1, 211436, Note_off_c, 0, 69, 64
1, 211439, Control_c, 0, 64, 74
1, 211453, Control_c, 0, 64, 78
1, 211468, Control_c, 0, 64, 81
1, 211483, Control_c, 0, 64, 84
1, 211498, Control_c, 0, 64, 85
1, 211513, Control_c, 0, 64, 86
1, 211527, Control_c, 0, 64, 87
1, 211542, Control_c, 0, 64, 88
1, 211557, Control_c, 0, 64, 89
1, 211587, Control_c, 0, 64, 88
1, 211601, Control_c, 0, 64, 87
1, 211616, Control_c, 0, 64, 83
1, 211631, Control_c, 0, 64, 78
1, 211642, Note_off_c, 0, 61, 61
1, 211646, Control_c, 0, 64, 71
1, 211654, Note_on_c, 0, 74, 90
1, 211660, Control_c, 0, 64, 66
1, 211669, Note_on_c, 0, 59, 57
1, 211675, Note_on_c, 0, 62, 53
1, 211675, Control_c, 0, 64, 63
1, 211690, Control_c, 0, 64, 61
1, 211705, Control_c, 0, 64, 61
1, 211720, Control_c, 0, 64, 60
1, 211735, Control_c, 0, 64, 60
1, 211780, Control_c, 0, 64, 59
1, 211795, Control_c, 0, 64, 59
1, 211887, Note_off_c, 0, 62, 46
1, 211919, Note_off_c, 0, 74, 62
1, 211971, Note_on_c, 0, 73, 90
1, 211973, Note_off_c, 0, 59, 58
1, 211974, Note_on_c, 0, 57, 67
1, 211981, Note_on_c, 0, 66, 71
1, 212228, Note_off_c, 0, 73, 61
1, 212257, Note_off_c, 0, 66, 63
1, 212279, Note_on_c, 0, 55, 77
1, 212283, Note_on_c, 0, 71, 89
1, 212288, Note_off_c, 0, 57, 63
1, 212581, Note_on_c, 0, 54, 72
1, 212588, Control_c, 0, 64, 60
1, 212593, Note_on_c, 0, 74, 96
1, 212598, Note_off_c, 0, 55, 61
1, 212600, Note_on_c, 0, 69, 68
1, 212600, Note_off_c, 0, 71, 63
1, 212602, Control_c, 0, 64, 62
1, 212617, Control_c, 0, 64, 64
1, 212627, Note_off_c, 0, 69, 67
1, 212632, Control_c, 0, 64, 67
1, 212647, Control_c, 0, 64, 71
1, 212662, Control_c, 0, 64, 75
1, 212669, Note_off_c, 0, 74, 64
1, 212677, Control_c, 0, 64, 80
1, 212692, Control_c, 0, 64, 85
1, 212707, Control_c, 0, 64, 89
1, 212722, Control_c, 0, 64, 95
1, 212736, Control_c, 0, 64, 105
1, 212751, Control_c, 0, 64, 127
1, 212862, Control_c, 0, 64, 110
1, 212877, Control_c, 0, 64, 100
1, 212891, Note_on_c, 0, 79, 97
1, 212891, Control_c, 0, 64, 92
1, 212892, Note_off_c, 0, 54, 42
1, 212898, Note_on_c, 0, 52, 68
1, 212900, Note_on_c, 0, 67, 79
1, 212906, Control_c, 0, 64, 87
1, 212921, Control_c, 0, 64, 81
1, 212936, Control_c, 0, 64, 75
1, 212951, Control_c, 0, 64, 68
1, 212966, Control_c, 0, 64, 63
1, 212981, Control_c, 0, 64, 59
1, 212996, Control_c, 0, 64, 58
1, 213055, Control_c, 0, 64, 57
1, 213085, Control_c, 0, 64, 56
1, 213179, Note_off_c, 0, 67, 60
1, 213197, Note_on_c, 0, 50, 79
1, 213202, Note_on_c, 0, 71, 94
1, 213204, Note_off_c, 0, 52, 54
1, 213520, Note_on_c, 0, 49, 67
1, 213527, Note_on_c, 0, 76, 95
1, 213535, Note_off_c, 0, 50, 62
1, 213558, Note_off_c, 0, 71, 62
1, 213823, Note_off_c, 0, 49, 63
1, 213831, Note_on_c, 0, 74, 91
1, 213832, Note_on_c, 0, 47, 70
1, 213865, Note_off_c, 0, 76, 63
1, 214040, Control_c, 0, 64, 55
1, 214054, Control_c, 0, 64, 52
1, 214069, Control_c, 0, 64, 46
1, 214084, Control_c, 0, 64, 27
1, 214099, Control_c, 0, 64, 0
1, 214123, Note_off_c, 0, 47, 59
1, 214126, Note_on_c, 0, 45, 77
1, 214135, Note_on_c, 0, 73, 94
1, 214138, Note_off_c, 0, 74, 62
1, 214174, Note_off_c, 0, 79, 63
1, 214455, Note_on_c, 0, 43, 81
1, 214457, Note_off_c, 0, 45, 64
1, 214459, Note_on_c, 0, 76, 99
1, 214772, Note_on_c, 0, 42, 88
1, 214773, Note_on_c, 0, 81, 101
1, 214789, Note_off_c, 0, 76, 60
1, 214797, Note_off_c, 0, 73, 62
1, 214808, Note_off_c, 0, 43, 63
1, 215106, Note_on_c, 0, 79, 90
1, 215108, Note_on_c, 0, 40, 82
1, 215108, Note_on_c, 0, 76, 88
1, 215146, Note_off_c, 0, 42, 64
1, 215150, Note_off_c, 0, 81, 59
1, 215486, Note_on_c, 0, 74, 86
1, 215486, Note_on_c, 0, 78, 92
1, 215487, Note_on_c, 0, 38, 87
1, 215513, Note_off_c, 0, 76, 63
1, 215521, Note_off_c, 0, 40, 63
1, 215533, Note_off_c, 0, 79, 60
1, 215553, Control_c, 0, 64, 34
1, 215567, Control_c, 0, 64, 60
1, 215582, Control_c, 0, 64, 70
1, 215597, Control_c, 0, 64, 89
1, 215604, Note_off_c, 0, 38, 63
1, 215612, Control_c, 0, 64, 127
1, 215804, Control_c, 0, 64, 103
1, 215826, Control_c, 0, 64, 91
1, 215841, Control_c, 0, 64, 83
1, 215856, Control_c, 0, 64, 77
1, 215871, Control_c, 0, 64, 73
1, 215886, Control_c, 0, 64, 69
1, 215891, Note_off_c, 0, 74, 57
1, 215896, Note_off_c, 0, 78, 62
1, 215900, Control_c, 0, 64, 65
1, 215915, Control_c, 0, 64, 62
1, 215920, Note_on_c, 0, 62, 93
1, 215925, Note_on_c, 0, 76, 75
1, 215926, Note_on_c, 0, 79, 83
1, 215930, Control_c, 0, 64, 59
1, 215945, Control_c, 0, 64, 57
1, 215960, Control_c, 0, 64, 56
1, 216147, Note_off_c, 0, 62, 59
1, 216167, Control_c, 0, 64, 56
1, 216182, Control_c, 0, 64, 55
1, 216197, Control_c, 0, 64, 55
1, 216212, Control_c, 0, 64, 54
1, 216227, Control_c, 0, 64, 53
1, 216242, Control_c, 0, 64, 53
1, 216250, Note_off_c, 0, 79, 59
1, 216257, Control_c, 0, 64, 52
1, 216264, Note_on_c, 0, 62, 93
1, 216269, Note_on_c, 0, 81, 84
1, 216272, Control_c, 0, 64, 52
1, 216284, Note_on_c, 0, 78, 86
1, 216287, Control_c, 0, 64, 51
1, 216314, Note_off_c, 0, 76, 65
1, 216316, Control_c, 0, 64, 51
1, 216361, Control_c, 0, 64, 50
1, 216444, Note_off_c, 0, 62, 55
1, 216591, Note_on_c, 0, 50, 72
1, 216591, Control_c, 0, 64, 51
1, 216597, Note_on_c, 0, 62, 88
1, 216605, Control_c, 0, 64, 52
1, 216620, Control_c, 0, 64, 52
1, 216635, Control_c, 0, 64, 53
1, 216732, Note_off_c, 0, 62, 47
1, 216906, Note_on_c, 0, 52, 69
1, 216908, Note_on_c, 0, 55, 86
1, 216940, Note_off_c, 0, 50, 64
1, 217065, Control_c, 0, 64, 52
1, 217174, Note_off_c, 0, 78, 59
1, 217193, Note_on_c, 0, 74, 85
1, 217196, Note_on_c, 0, 71, 81
1, 217196, Note_off_c, 0, 81, 64
1, 217228, Control_c, 0, 64, 52
1, 217369, Control_c, 0, 64, 51
1, 217414, Control_c, 0, 64, 51
1, 217458, Control_c, 0, 64, 50
1, 217472, Control_c, 0, 64, 48
1, 217487, Control_c, 0, 64, 44
1, 217502, Control_c, 0, 64, 42
1, 217508, Note_on_c, 0, 59, 81
1, 217514, Note_on_c, 0, 79, 85
1, 217517, Control_c, 0, 64, 41
1, 217525, Note_on_c, 0, 76, 75
1, 217545, Note_off_c, 0, 74, 54
1, 217546, Control_c, 0, 64, 41
1, 217561, Control_c, 0, 64, 46
1, 217576, Control_c, 0, 64, 55
1, 217591, Control_c, 0, 64, 60
1, 217605, Control_c, 0, 64, 63
1, 217620, Control_c, 0, 64, 65
1, 217635, Control_c, 0, 64, 67
1, 217650, Control_c, 0, 64, 71
1, 217652, Note_off_c, 0, 52, 35
1, 217665, Control_c, 0, 64, 76
1, 217679, Control_c, 0, 64, 82
1, 217694, Control_c, 0, 64, 86
1, 217709, Control_c, 0, 64, 86
1, 217724, Control_c, 0, 64, 85
1, 217728, Note_off_c, 0, 79, 62
1, 217739, Control_c, 0, 64, 83
1, 217753, Control_c, 0, 64, 81
1, 217768, Control_c, 0, 64, 78
1, 217773, Note_off_c, 0, 59, 43
1, 217783, Note_off_c, 0, 55, 23
1, 217783, Control_c, 0, 64, 76
1, 217798, Control_c, 0, 64, 73
1, 217812, Note_on_c, 0, 52, 64
1, 217814, Control_c, 0, 64, 71
1, 217828, Note_on_c, 0, 74, 75
1, 217829, Control_c, 0, 64, 71
1, 217831, Note_on_c, 0, 78, 82
1, 217854, Note_off_c, 0, 71, 59
1, 217854, Note_off_c, 0, 76, 60
1, 217858, Control_c, 0, 64, 71
1, 217873, Control_c, 0, 64, 71
1, 218088, Control_c, 0, 64, 70
1, 218102, Control_c, 0, 64, 69
1, 218117, Control_c, 0, 64, 66
1, 218118, Note_off_c, 0, 78, 62
1, 218132, Control_c, 0, 64, 62
1, 218143, Note_on_c, 0, 57, 64
1, 218144, Note_on_c, 0, 76, 79
1, 218145, Note_on_c, 0, 73, 71
1, 218147, Control_c, 0, 64, 55
1, 218158, Note_off_c, 0, 74, 47
1, 218162, Control_c, 0, 64, 53
1, 218177, Control_c, 0, 64, 55
1, 218192, Control_c, 0, 64, 59
1, 218206, Note_off_c, 0, 52, 62
1, 218206, Control_c, 0, 64, 62
1, 218221, Control_c, 0, 64, 64
1, 218232, Note_off_c, 0, 57, 63
1, 218236, Control_c, 0, 64, 67
1, 218251, Control_c, 0, 64, 70
1, 218266, Control_c, 0, 64, 73
1, 218281, Control_c, 0, 64, 76
1, 218295, Control_c, 0, 64, 81
1, 218310, Control_c, 0, 64, 88
1, 218325, Control_c, 0, 64, 97
1, 218340, Control_c, 0, 64, 103
1, 218355, Control_c, 0, 64, 104
1, 218369, Control_c, 0, 64, 103
1, 218384, Control_c, 0, 64, 101
1, 218399, Control_c, 0, 64, 100
1, 218414, Control_c, 0, 64, 98
1, 218428, Control_c, 0, 64, 93
1, 218442, Note_on_c, 0, 52, 69
1, 218443, Control_c, 0, 64, 85
1, 218458, Control_c, 0, 64, 75
1, 218472, Note_on_c, 0, 55, 49
1, 218473, Control_c, 0, 64, 67
1, 218488, Control_c, 0, 64, 60
1, 218502, Control_c, 0, 64, 50
1, 218517, Control_c, 0, 64, 47
1, 218547, Control_c, 0, 64, 48
1, 218734, Note_on_c, 0, 54, 55
1, 218740, Note_off_c, 0, 55, 58
1, 218742, Note_on_c, 0, 57, 75
1, 218747, Note_off_c, 0, 52, 60
1, 218772, Note_off_c, 0, 76, 65
1, 218791, Note_off_c, 0, 73, 64
1, 219043, Note_off_c, 0, 57, 61
1, 219049, Note_on_c, 0, 55, 65
1, 219054, Note_on_c, 0, 52, 54
1, 219061, Note_on_c, 0, 64, 70
1, 219107, Note_off_c, 0, 54, 37
1, 219336, Note_off_c, 0, 55, 59
1, 219349, Note_on_c, 0, 50, 49
1, 219351, Note_on_c, 0, 54, 59
1, 219351, Note_off_c, 0, 52, 52
1, 219358, Note_on_c, 0, 69, 71
1, 219391, Note_off_c, 0, 64, 57
1, 219663, Note_on_c, 0, 52, 52
1, 219672, Note_on_c, 0, 55, 52
1, 219673, Note_on_c, 0, 67, 72
1, 219674, Note_off_c, 0, 54, 60
1, 219699, Note_off_c, 0, 69, 63
1, 219736, Note_off_c, 0, 50, 17
1, 219967, Note_off_c, 0, 55, 60
1, 219968, Note_off_c, 0, 52, 32
1, 219985, Note_on_c, 0, 74, 73
1, 219986, Note_off_c, 0, 67, 61
1, 219996, Note_on_c, 0, 54, 45
1, 219999, Note_on_c, 0, 57, 44
1, 220001, Control_c, 0, 64, 46
1, 220011, Note_on_c, 0, 66, 45
1, 220015, Control_c, 0, 64, 45
1, 220030, Control_c, 0, 64, 43
1, 220045, Control_c, 0, 64, 40
1, 220059, Control_c, 0, 64, 36
1, 220074, Control_c, 0, 64, 33
1, 220089, Control_c, 0, 64, 32
1, 220119, Control_c, 0, 64, 34
1, 220133, Control_c, 0, 64, 37
1, 220148, Control_c, 0, 64, 40
1, 220163, Control_c, 0, 64, 41
1, 220178, Control_c, 0, 64, 43
1, 220192, Control_c, 0, 64, 46
1, 220209, Control_c, 0, 64, 49
1, 220224, Note_off_c, 0, 66, 55
1, 220224, Control_c, 0, 64, 51
1, 220238, Control_c, 0, 64, 53
1, 220253, Control_c, 0, 64, 55
1, 220268, Control_c, 0, 64, 58
1, 220283, Control_c, 0, 64, 61
1, 220290, Note_on_c, 0, 72, 71
1, 220297, Control_c, 0, 64, 62
1, 220320, Control_c, 0, 64, 63
1, 220326, Note_on_c, 0, 64, 45
1, 220326, Note_off_c, 0, 74, 58
1, 220335, Control_c, 0, 64, 65
1, 220350, Control_c, 0, 64, 66
1, 220365, Control_c, 0, 64, 69
1, 220366, Note_off_c, 0, 72, 64
1, 220379, Control_c, 0, 64, 73
1, 220394, Control_c, 0, 64, 77
1, 220409, Control_c, 0, 64, 81
1, 220424, Control_c, 0, 64, 83
1, 220426, Note_off_c, 0, 64, 58
1, 220438, Control_c, 0, 64, 84
1, 220483, Control_c, 0, 64, 83
1, 220497, Control_c, 0, 64, 83
1, 220512, Control_c, 0, 64, 82
1, 220527, Control_c, 0, 64, 82
1, 220542, Control_c, 0, 64, 80
1, 220557, Control_c, 0, 64, 79
1, 220571, Control_c, 0, 64, 77
1, 220586, Control_c, 0, 64, 75
1, 220601, Control_c, 0, 64, 72
1, 220616, Note_on_c, 0, 71, 72
1, 220616, Control_c, 0, 64, 68
1, 220631, Control_c, 0, 64, 66
1, 220633, Note_on_c, 0, 62, 54
1, 220645, Control_c, 0, 64, 65
1, 220648, Note_off_c, 0, 54, 62
1, 220660, Control_c, 0, 64, 64
1, 220675, Control_c, 0, 64, 64
1, 220690, Control_c, 0, 64, 63
1, 220704, Control_c, 0, 64, 62
1, 220717, Note_off_c, 0, 57, 35
1, 220719, Control_c, 0, 64, 61
1, 220734, Control_c, 0, 64, 59
1, 220749, Control_c, 0, 64, 59
1, 220779, Control_c, 0, 64, 58
1, 220794, Control_c, 0, 64, 58
1, 220808, Control_c, 0, 64, 57
1, 220823, Control_c, 0, 64, 56
1, 220838, Control_c, 0, 64, 55
1, 220853, Control_c, 0, 64, 55
1, 220868, Control_c, 0, 64, 54
1, 220882, Control_c, 0, 64, 54
1, 220897, Control_c, 0, 64, 53
1, 220912, Control_c, 0, 64, 52
1, 220928, Note_on_c, 0, 50, 56
1, 220930, Note_on_c, 0, 47, 52
1, 220942, Control_c, 0, 64, 51
1, 220986, Control_c, 0, 64, 51
1, 221017, Control_c, 0, 64, 50
1, 221231, Note_off_c, 0, 62, 56
1, 221234, Note_on_c, 0, 55, 61
1, 221241, Note_on_c, 0, 52, 53
1, 221243, Note_on_c, 0, 61, 56
1, 221247, Note_off_c, 0, 47, 46
1, 221250, Note_off_c, 0, 50, 36
1, 221515, Note_off_c, 0, 52, 61
1, 221522, Note_off_c, 0, 55, 57
1, 221530, Note_off_c, 0, 61, 60
1, 221547, Note_on_c, 0, 54, 52
1, 221557, Note_on_c, 0, 50, 38
1, 221561, Note_on_c, 0, 62, 54
1, 221791, Note_off_c, 0, 50, 42
1, 221827, Note_off_c, 0, 54, 47
1, 221841, Note_on_c, 0, 49, 30
1, 221860, Note_on_c, 0, 52, 34
1, 221866, Note_on_c, 0, 64, 50
1, 221891, Control_c, 0, 64, 53
1, 221906, Control_c, 0, 64, 56
1, 221921, Control_c, 0, 64, 58
1, 221927, Note_off_c, 0, 71, 50
1, 221936, Control_c, 0, 64, 61
1, 221939, Note_off_c, 0, 62, 37
1, 221950, Control_c, 0, 64, 63
1, 221965, Control_c, 0, 64, 63
1, 221980, Control_c, 0, 64, 64
1, 221995, Control_c, 0, 64, 63
1, 221996, Note_off_c, 0, 64, 57
1, 222010, Control_c, 0, 64, 63
1, 222025, Control_c, 0, 64, 62
1, 222040, Control_c, 0, 64, 61
1, 222055, Control_c, 0, 64, 60
1, 222084, Control_c, 0, 64, 60
1, 222099, Control_c, 0, 64, 59
1, 222114, Control_c, 0, 64, 59
1, 222124, Note_off_c, 0, 49, 42
1, 222129, Control_c, 0, 64, 58
1, 222162, Note_on_c, 0, 47, 41
1, 222173, Control_c, 0, 64, 58
1, 222175, Note_on_c, 0, 64, 67
1, 222188, Control_c, 0, 64, 57
1, 222189, Note_on_c, 0, 62, 53
1, 222203, Control_c, 0, 64, 56
1, 222232, Control_c, 0, 64, 56
1, 222291, Control_c, 0, 64, 55
1, 222321, Control_c, 0, 64, 55
1, 222469, Control_c, 0, 64, 54
1, 222478, Note_off_c, 0, 62, 55
1, 222480, Note_on_c, 0, 45, 43
1, 222486, Note_off_c, 0, 64, 59
1, 222487, Note_on_c, 0, 69, 62
1, 222502, Note_on_c, 0, 61, 40
1, 222529, Control_c, 0, 64, 54
1, 222540, Note_off_c, 0, 47, 33
1, 222543, Control_c, 0, 64, 53
1, 222611, Control_c, 0, 64, 53
1, 222731, Note_off_c, 0, 69, 57
1, 222785, Note_off_c, 0, 61, 56
1, 222797, Note_on_c, 0, 64, 48
1, 222801, Note_on_c, 0, 67, 51
1, 222818, Control_c, 0, 64, 55
1, 222833, Control_c, 0, 64, 58
1, 222848, Control_c, 0, 64, 62
1, 222863, Control_c, 0, 64, 64
1, 222878, Control_c, 0, 64, 65
1, 222885, Note_off_c, 0, 52, 50
1, 222892, Control_c, 0, 64, 66
1, 222907, Control_c, 0, 64, 68
1, 222916, Note_off_c, 0, 67, 60
1, 222922, Control_c, 0, 64, 69
1, 222937, Control_c, 0, 64, 70
1, 222952, Control_c, 0, 64, 72
1, 222966, Control_c, 0, 64, 76
1, 222981, Control_c, 0, 64, 80
1, 222996, Control_c, 0, 64, 82
1, 223027, Control_c, 0, 64, 82
1, 223041, Control_c, 0, 64, 81
1, 223056, Control_c, 0, 64, 79
1, 223071, Control_c, 0, 64, 76
1, 223085, Control_c, 0, 64, 72
1, 223100, Control_c, 0, 64, 67
1, 223115, Control_c, 0, 64, 63
1, 223118, Note_on_c, 0, 66, 47
1, 223130, Control_c, 0, 64, 61
1, 223132, Note_off_c, 0, 45, 36
1, 223145, Control_c, 0, 64, 59
1, 223159, Control_c, 0, 64, 57
1, 223174, Control_c, 0, 64, 57
1, 223189, Control_c, 0, 64, 56
1, 223204, Control_c, 0, 64, 55
1, 223219, Control_c, 0, 64, 54
1, 223233, Control_c, 0, 64, 54
1, 223263, Control_c, 0, 64, 53
1, 223315, Control_c, 0, 64, 53
1, 223398, Note_off_c, 0, 64, 56
1, 223414, Note_on_c, 0, 57, 49
1, 223422, Note_on_c, 0, 62, 43
1, 223566, Note_off_c, 0, 57, 63
1, 223716, Note_on_c, 0, 57, 71
1, 223718, Note_on_c, 0, 64, 65
1, 223756, Note_off_c, 0, 66, 42
1, 223855, Note_off_c, 0, 57, 63
1, 224003, Note_on_c, 0, 57, 70
1, 224016, Note_off_c, 0, 62, 56
1, 224017, Note_on_c, 0, 61, 59
1, 224092, Control_c, 0, 64, 54
1, 224107, Control_c, 0, 64, 56
1, 224121, Control_c, 0, 64, 57
1, 224132, Note_off_c, 0, 57, 55
1, 224136, Control_c, 0, 64, 59
1, 224151, Control_c, 0, 64, 61
1, 224166, Control_c, 0, 64, 63
1, 224181, Control_c, 0, 64, 64
1, 224195, Control_c, 0, 64, 65
1, 224211, Control_c, 0, 64, 66
1, 224246, Note_off_c, 0, 61, 59
1, 224271, Control_c, 0, 64, 65
1, 224286, Control_c, 0, 64, 65
1, 224300, Control_c, 0, 64, 64
1, 224315, Control_c, 0, 64, 63
1, 224317, Note_on_c, 0, 51, 55
1, 224324, Note_on_c, 0, 66, 71
1, 224329, Control_c, 0, 64, 63
1, 224340, Note_on_c, 0, 60, 54
1, 224341, Note_off_c, 0, 64, 54
1, 224344, Control_c, 0, 64, 61
1, 224359, Control_c, 0, 64, 60
1, 224374, Control_c, 0, 64, 58
1, 224389, Control_c, 0, 64, 56
1, 224404, Control_c, 0, 64, 55
1, 224419, Control_c, 0, 64, 54
1, 224434, Control_c, 0, 64, 54
1, 224487, Note_off_c, 0, 60, 58
1, 224567, Control_c, 0, 64, 55
1, 224582, Control_c, 0, 64, 56
1, 224597, Control_c, 0, 64, 58
1, 224611, Control_c, 0, 64, 60
1, 224626, Control_c, 0, 64, 62
1, 224627, Note_on_c, 0, 52, 56
1, 224627, Note_on_c, 0, 68, 84
1, 224641, Control_c, 0, 64, 63
1, 224644, Note_off_c, 0, 51, 61
1, 224648, Note_on_c, 0, 59, 56
1, 224655, Control_c, 0, 64, 63
1, 224669, Note_off_c, 0, 66, 58
1, 224670, Control_c, 0, 64, 64
1, 224685, Control_c, 0, 64, 64
1, 224744, Control_c, 0, 64, 64
1, 224774, Control_c, 0, 64, 63
1, 224789, Control_c, 0, 64, 63
1, 224811, Control_c, 0, 64, 62
1, 224841, Control_c, 0, 64, 62
1, 224849, Note_off_c, 0, 59, 58
1, 224907, Note_off_c, 0, 68, 60
1, 224930, Control_c, 0, 64, 61
1, 224944, Control_c, 0, 64, 61
1, 224959, Note_on_c, 0, 69, 84
1, 224959, Control_c, 0, 64, 60
1, 224961, Note_off_c, 0, 52, 62
1, 224965, Note_on_c, 0, 53, 49
1, 224974, Control_c, 0, 64, 59
1, 224982, Note_on_c, 0, 57, 62
1, 224989, Control_c, 0, 64, 58
1, 225004, Control_c, 0, 64, 56
1, 225020, Control_c, 0, 64, 55
1, 225034, Control_c, 0, 64, 53
1, 225049, Control_c, 0, 64, 52
1, 225064, Control_c, 0, 64, 51
1, 225108, Control_c, 0, 64, 51
1, 225268, Note_off_c, 0, 57, 53
1, 225277, Note_on_c, 0, 60, 56
1, 225571, Note_off_c, 0, 60, 64
1, 225599, Note_on_c, 0, 62, 60
1, 225886, Note_on_c, 0, 47, 63
1, 225890, Note_on_c, 0, 59, 63
1, 225898, Note_off_c, 0, 53, 62
1, 225904, Note_off_c, 0, 62, 58
1, 225909, Note_on_c, 0, 64, 62
1, 225952, Note_off_c, 0, 69, 35
1, 225975, Note_off_c, 0, 59, 55
1, 226046, Note_off_c, 0, 64, 61
1, 226048, Note_on_c, 0, 65, 76
1, 226195, Note_on_c, 0, 68, 82
1, 226201, Note_on_c, 0, 52, 58
1, 226211, Note_on_c, 0, 64, 58
1, 226219, Note_on_c, 0, 59, 46
1, 226221, Note_off_c, 0, 47, 51
1, 226223, Note_off_c, 0, 65, 52
1, 226469, Note_off_c, 0, 59, 0
1, 226486, Control_c, 0, 64, 51
1, 226487, Note_on_c, 0, 59, 33
1, 226497, Note_on_c, 0, 50, 59
1, 226500, Control_c, 0, 64, 53
1, 226515, Control_c, 0, 64, 54
1, 226527, Note_off_c, 0, 52, 58
1, 226530, Control_c, 0, 64, 56
1, 226545, Control_c, 0, 64, 59
1, 226560, Control_c, 0, 64, 60
1, 226574, Control_c, 0, 64, 62
1, 226589, Control_c, 0, 64, 62
1, 226694, Control_c, 0, 64, 62
1, 226709, Control_c, 0, 64, 61
1, 226723, Control_c, 0, 64, 60
1, 226738, Control_c, 0, 64, 58
1, 226753, Control_c, 0, 64, 54
1, 226762, Note_off_c, 0, 50, 52
1, 226769, Control_c, 0, 64, 47
1, 226784, Control_c, 0, 64, 42
1, 226810, Note_on_c, 0, 49, 52
1, 226813, Control_c, 0, 64, 46
1, 226818, Note_on_c, 0, 52, 60
1, 226822, Note_on_c, 0, 69, 81
1, 226828, Control_c, 0, 64, 55
1, 226837, Note_off_c, 0, 59, 50
1, 226843, Control_c, 0, 64, 61
1, 226858, Control_c, 0, 64, 64
1, 226859, Note_off_c, 0, 64, 63
1, 226869, Note_off_c, 0, 68, 62
1, 226873, Control_c, 0, 64, 67
1, 226879, Note_off_c, 0, 69, 65
1, 226887, Control_c, 0, 64, 72
1, 226898, Note_off_c, 0, 52, 65
1, 226902, Control_c, 0, 64, 81
1, 226908, Note_off_c, 0, 49, 58
1, 226917, Control_c, 0, 64, 94
1, 226932, Control_c, 0, 64, 115
1, 226946, Control_c, 0, 64, 127
1, 226991, Control_c, 0, 64, 123
1, 227006, Control_c, 0, 64, 112
1, 227021, Control_c, 0, 64, 107
1, 227036, Control_c, 0, 64, 101
1, 227057, Control_c, 0, 64, 93
1, 227072, Control_c, 0, 64, 83
1, 227087, Control_c, 0, 64, 73
1, 227102, Control_c, 0, 64, 66
1, 227117, Control_c, 0, 64, 58
1, 227128, Note_on_c, 0, 45, 67
1, 227128, Note_on_c, 0, 81, 90
1, 227131, Control_c, 0, 64, 48
1, 227146, Control_c, 0, 64, 43
1, 227161, Control_c, 0, 64, 42
1, 227254, Note_off_c, 0, 81, 62
1, 227422, Note_on_c, 0, 81, 91
1, 227424, Note_on_c, 0, 50, 63
1, 227453, Note_off_c, 0, 45, 62
1, 227525, Note_off_c, 0, 81, 64
1, 227721, Note_on_c, 0, 81, 85
1, 227727, Note_on_c, 0, 49, 56
1, 227736, Note_on_c, 0, 78, 83
1, 227740, Control_c, 0, 64, 43
1, 227792, Note_off_c, 0, 50, 58
1, 227840, Note_off_c, 0, 78, 59
1, 228031, Note_on_c, 0, 47, 69
1, 228037, Note_on_c, 0, 78, 91
1, 228042, Note_on_c, 0, 74, 74
1, 228043, Control_c, 0, 64, 43
1, 228046, Note_off_c, 0, 49, 0
1, 228058, Control_c, 0, 64, 46
1, 228065, Note_off_c, 0, 81, 62
1, 228073, Control_c, 0, 64, 50
1, 228088, Control_c, 0, 64, 56
1, 228103, Control_c, 0, 64, 63
1, 228118, Control_c, 0, 64, 67
1, 228122, Poly_aftertouch_c, 0, 49, 0
1, 228133, Control_c, 0, 64, 70
1, 228148, Control_c, 0, 64, 73
1, 228162, Control_c, 0, 64, 75
1, 228165, Note_off_c, 0, 47, 63
1, 228175, Note_off_c, 0, 78, 62
1, 228177, Control_c, 0, 64, 76
1, 228207, Control_c, 0, 64, 75
1, 228222, Control_c, 0, 64, 74
1, 228237, Control_c, 0, 64, 74
1, 228267, Control_c, 0, 64, 73
1, 228282, Control_c, 0, 64, 73
1, 228296, Control_c, 0, 64, 71
1, 228311, Control_c, 0, 64, 67
1, 228326, Control_c, 0, 64, 63
1, 228333, Note_on_c, 0, 62, 73
1, 228338, Note_on_c, 0, 78, 92
1, 228341, Control_c, 0, 64, 58
1, 228356, Control_c, 0, 64, 54
1, 228370, Control_c, 0, 64, 51
1, 228385, Control_c, 0, 64, 50
1, 228400, Control_c, 0, 64, 49
1, 228415, Control_c, 0, 64, 49
1, 228459, Control_c, 0, 64, 48
1, 228463, Note_off_c, 0, 78, 59
1, 228474, Control_c, 0, 64, 48
1, 228489, Control_c, 0, 64, 47
1, 228500, Note_off_c, 0, 62, 57
1, 228518, Control_c, 0, 64, 47
1, 228644, Note_on_c, 0, 78, 93
1, 228648, Note_off_c, 0, 74, 57
1, 228650, Note_on_c, 0, 62, 73
1, 228653, Note_on_c, 0, 71, 79
1, 228747, Note_off_c, 0, 62, 57
1, 228748, Control_c, 0, 64, 48
1, 228763, Control_c, 0, 64, 49
1, 228777, Control_c, 0, 64, 50
1, 228792, Control_c, 0, 64, 50
1, 228795, Note_on_c, 0, 59, 24
1, 228807, Control_c, 0, 64, 51
1, 228836, Note_off_c, 0, 59, 42
1, 228941, Control_c, 0, 64, 51
1, 228941, Note_on_c, 0, 59, 54
1, 228943, Note_on_c, 0, 62, 71
1, 228970, Control_c, 0, 64, 52
1, 228985, Control_c, 0, 64, 53
1, 229000, Control_c, 0, 64, 56
1, 229015, Control_c, 0, 64, 60
1, 229018, Note_off_c, 0, 59, 61
1, 229030, Control_c, 0, 64, 62
1, 229045, Control_c, 0, 64, 63
1, 229057, Note_off_c, 0, 62, 54
1, 229060, Control_c, 0, 64, 64
1, 229075, Control_c, 0, 64, 65
1, 229090, Control_c, 0, 64, 67
1, 229105, Control_c, 0, 64, 68
1, 229134, Control_c, 0, 64, 67
1, 229149, Control_c, 0, 64, 66
1, 229164, Control_c, 0, 64, 65
1, 229179, Control_c, 0, 64, 64
1, 229193, Control_c, 0, 64, 62
1, 229208, Control_c, 0, 64, 60
1, 229223, Control_c, 0, 64, 58
1, 229229, Note_on_c, 0, 59, 66
1, 229236, Note_on_c, 0, 56, 63
1, 229236, Note_off_c, 0, 71, 58
1, 229238, Control_c, 0, 64, 56
1, 229242, Note_on_c, 0, 74, 74
1, 229253, Control_c, 0, 64, 55
1, 229267, Control_c, 0, 64, 54
1, 229282, Control_c, 0, 64, 54
1, 229304, Control_c, 0, 64, 53
1, 229319, Control_c, 0, 64, 53
1, 229334, Control_c, 0, 64, 52
1, 229345, Note_off_c, 0, 59, 55
1, 229349, Control_c, 0, 64, 52
1, 229364, Control_c, 0, 64, 51
1, 229379, Control_c, 0, 64, 51
1, 229394, Control_c, 0, 64, 50
1, 229423, Control_c, 0, 64, 50
1, 229526, Control_c, 0, 64, 50
1, 229547, Note_on_c, 0, 59, 67
1, 229551, Note_on_c, 0, 71, 77
1, 229571, Control_c, 0, 64, 51
1, 229589, Note_off_c, 0, 78, 64
1, 229625, Note_off_c, 0, 59, 52
1, 229853, Note_on_c, 0, 52, 51
1, 229859, Note_off_c, 0, 56, 55
1, 229862, Note_on_c, 0, 76, 81
1, 229866, Note_on_c, 0, 59, 60
1, 229872, Note_off_c, 0, 74, 63
1, 229978, Note_off_c, 0, 71, 55
1, 230151, Note_off_c, 0, 76, 58
1, 230157, Note_on_c, 0, 74, 66
1, 230163, Note_on_c, 0, 68, 72
1, 230450, Note_off_c, 0, 52, 60
1, 230470, Note_off_c, 0, 74, 60
1, 230473, Note_on_c, 0, 73, 72
1, 230479, Note_on_c, 0, 55, 49
1, 230502, Note_off_c, 0, 68, 58
1, 230773, Note_off_c, 0, 59, 56
1, 230777, Note_on_c, 0, 71, 69
1, 230783, Note_on_c, 0, 52, 51
1, 231099, Note_off_c, 0, 52, 58
1, 231101, Note_off_c, 0, 71, 62
1, 231106, Note_on_c, 0, 69, 70
1, 231114, Note_on_c, 0, 57, 58
1, 231143, Control_c, 0, 64, 53
1, 231158, Control_c, 0, 64, 56
1, 231168, Note_off_c, 0, 55, 59
1, 231172, Control_c, 0, 64, 60
1, 231187, Control_c, 0, 64, 62
1, 231202, Control_c, 0, 64, 63
1, 231217, Control_c, 0, 64, 65
1, 231232, Control_c, 0, 64, 66
1, 231246, Control_c, 0, 64, 68
1, 231261, Control_c, 0, 64, 69
1, 231276, Control_c, 0, 64, 70
1, 231305, Control_c, 0, 64, 69
1, 231335, Control_c, 0, 64, 68
1, 231350, Control_c, 0, 64, 68
1, 231365, Control_c, 0, 64, 67
1, 231370, Note_off_c, 0, 57, 49
1, 231379, Control_c, 0, 64, 67
1, 231395, Control_c, 0, 64, 66
1, 231405, Note_on_c, 0, 55, 50
1, 231410, Control_c, 0, 64, 65
1, 231411, Note_on_c, 0, 49, 43
1, 231425, Control_c, 0, 64, 64
1, 231440, Control_c, 0, 64, 63
1, 231448, Note_off_c, 0, 73, 59
1, 231469, Control_c, 0, 64, 63
1, 231484, Control_c, 0, 64, 62
1, 231499, Control_c, 0, 64, 61
1, 231514, Control_c, 0, 64, 60
1, 231528, Control_c, 0, 64, 60
1, 231566, Control_c, 0, 64, 59
1, 231596, Control_c, 0, 64, 59
1, 231625, Control_c, 0, 64, 58
1, 231670, Control_c, 0, 64, 58
1, 231699, Control_c, 0, 64, 57
1, 231726, Note_off_c, 0, 49, 60
1, 231729, Note_on_c, 0, 72, 73
1, 231735, Note_on_c, 0, 54, 56
1, 231740, Note_off_c, 0, 55, 60
1, 231788, Control_c, 0, 64, 57
1, 231817, Control_c, 0, 64, 56
1, 232010, Control_c, 0, 64, 56
1, 232039, Note_off_c, 0, 69, 62
1, 232044, Note_on_c, 0, 52, 54
1, 232047, Note_on_c, 0, 67, 62
1, 232323, Note_off_c, 0, 52, 59
1, 232339, Note_off_c, 0, 67, 60
1, 232355, Note_on_c, 0, 66, 54
1, 232362, Note_on_c, 0, 50, 44
1, 232652, Note_on_c, 0, 57, 49
1, 232657, Note_off_c, 0, 66, 60
1, 232663, Note_on_c, 0, 64, 63
1, 232681, Note_off_c, 0, 54, 55
1, 232941, Note_off_c, 0, 57, 61
1, 232951, Note_off_c, 0, 64, 59
1, 232961, Note_on_c, 0, 66, 61
1, 232965, Note_on_c, 0, 62, 42
1, 233184, Note_off_c, 0, 72, 44
1, 233259, Note_off_c, 0, 62, 56
1, 233273, Note_on_c, 0, 60, 50
1, 233281, Note_on_c, 0, 69, 66
1, 233567, Note_off_c, 0, 60, 60
1, 233583, Note_on_c, 0, 74, 73
1, 233588, Note_off_c, 0, 69, 61
1, 233591, Note_on_c, 0, 59, 42
1, 233594, Note_off_c, 0, 50, 54
1, 233857, Control_c, 0, 64, 55
1, 233873, Note_off_c, 0, 59, 52
1, 233905, Note_on_c, 0, 57, 45
1, 233907, Note_off_c, 0, 74, 56
1, 233908, Note_on_c, 0, 50, 35
1, 233912, Note_on_c, 0, 72, 66
1, 233931, Control_c, 0, 64, 56
1, 233946, Control_c, 0, 64, 58
1, 233961, Control_c, 0, 64, 61
1, 233975, Control_c, 0, 64, 63
1, 233990, Control_c, 0, 64, 64
1, 234005, Control_c, 0, 64, 65
1, 234020, Control_c, 0, 64, 66
1, 234035, Control_c, 0, 64, 67
1, 234050, Control_c, 0, 64, 69
1, 234057, Note_off_c, 0, 72, 59
1, 234064, Control_c, 0, 64, 69
1, 234079, Control_c, 0, 64, 70
1, 234139, Control_c, 0, 64, 69
1, 234153, Control_c, 0, 64, 69
1, 234168, Control_c, 0, 64, 67
1, 234183, Control_c, 0, 64, 64
1, 234197, Note_off_c, 0, 57, 62
1, 234197, Control_c, 0, 64, 62
1, 234212, Control_c, 0, 64, 61
1, 234217, Note_on_c, 0, 71, 70
1, 234224, Note_off_c, 0, 50, 42
1, 234225, Note_on_c, 0, 55, 44
1, 234227, Control_c, 0, 64, 60
1, 234242, Control_c, 0, 64, 59
1, 234271, Control_c, 0, 64, 59
1, 234286, Control_c, 0, 64, 57
1, 234301, Control_c, 0, 64, 56
1, 234315, Control_c, 0, 64, 55
1, 234330, Control_c, 0, 64, 55
1, 234360, Control_c, 0, 64, 54
1, 234390, Control_c, 0, 64, 54
1, 234405, Control_c, 0, 64, 53
1, 234420, Control_c, 0, 64, 53
1, 234449, Control_c, 0, 64, 52
1, 234494, Control_c, 0, 64, 52
1, 234512, Note_off_c, 0, 66, 62
1, 234525, Note_on_c, 0, 62, 57
1, 234530, Note_on_c, 0, 54, 32
1, 234830, Note_off_c, 0, 54, 54
1, 234844, Note_on_c, 0, 52, 40
1, 234847, Note_on_c, 0, 67, 58
1, 234864, Note_off_c, 0, 62, 56
1, 234902, Control_c, 0, 64, 51
1, 234946, Control_c, 0, 64, 51
1, 234976, Control_c, 0, 64, 50
1, 235019, Control_c, 0, 64, 50
1, 235117, Note_off_c, 0, 52, 60
1, 235131, Note_on_c, 0, 50, 45
1, 235141, Note_off_c, 0, 67, 54
1, 235148, Note_on_c, 0, 66, 56
1, 235403, Note_off_c, 0, 50, 56
1, 235436, Note_on_c, 0, 49, 38
1, 235451, Note_on_c, 0, 64, 53
1, 235469, Note_off_c, 0, 66, 56
1, 235499, Note_off_c, 0, 55, 34
1, 235626, Note_off_c, 0, 71, 59
1, 235742, Note_on_c, 0, 52, 49
1, 235751, Note_off_c, 0, 64, 63
1, 235772, Note_on_c, 0, 62, 54
1, 236064, Note_off_c, 0, 52, 60
1, 236070, Note_on_c, 0, 57, 49
1, 236081, Note_on_c, 0, 69, 73
1, 236081, Note_off_c, 0, 62, 54
1, 236089, Note_on_c, 0, 61, 56
1, 236102, Control_c, 0, 64, 51
1, 236116, Control_c, 0, 64, 54
1, 236131, Control_c, 0, 64, 56
1, 236146, Control_c, 0, 64, 59
1, 236151, Note_off_c, 0, 49, 62
1, 236161, Control_c, 0, 64, 62
1, 236175, Control_c, 0, 64, 63
1, 236190, Control_c, 0, 64, 64
1, 236206, Control_c, 0, 64, 66
1, 236221, Control_c, 0, 64, 67
1, 236225, Note_off_c, 0, 57, 54
1, 236236, Control_c, 0, 64, 68
1, 236251, Control_c, 0, 64, 71
1, 236265, Control_c, 0, 64, 73
1, 236280, Control_c, 0, 64, 75
1, 236295, Control_c, 0, 64, 76
1, 236325, Control_c, 0, 64, 75
1, 236339, Control_c, 0, 64, 74
1, 236354, Control_c, 0, 64, 73
1, 236369, Control_c, 0, 64, 72
1, 236383, Note_on_c, 0, 45, 45
1, 236384, Control_c, 0, 64, 69
1, 236388, Note_on_c, 0, 55, 45
1, 236399, Control_c, 0, 64, 65
1, 236414, Control_c, 0, 64, 62
1, 236429, Control_c, 0, 64, 60
1, 236444, Control_c, 0, 64, 58
1, 236459, Control_c, 0, 64, 56
1, 236473, Control_c, 0, 64, 54
1, 236488, Control_c, 0, 64, 51
1, 236502, Control_c, 0, 64, 49
1, 236517, Control_c, 0, 64, 48
1, 236678, Note_off_c, 0, 55, 55
1, 236688, Note_off_c, 0, 61, 60
1, 236701, Note_on_c, 0, 50, 46
1, 236709, Note_on_c, 0, 54, 35
1, 236709, Note_off_c, 0, 45, 58
1, 237028, Note_on_c, 0, 48, 42
1, 237028, Note_on_c, 0, 57, 56
1, 237049, Note_off_c, 0, 50, 42
1, 237177, Control_c, 0, 64, 48
1, 237310, Control_c, 0, 64, 49
1, 237325, Control_c, 0, 64, 53
1, 237327, Note_off_c, 0, 57, 59
1, 237329, Note_on_c, 0, 47, 41
1, 237332, Note_on_c, 0, 62, 54
1, 237339, Control_c, 0, 64, 57
1, 237354, Control_c, 0, 64, 61
1, 237369, Control_c, 0, 64, 63
1, 237381, Note_off_c, 0, 48, 31
1, 237384, Control_c, 0, 64, 65
1, 237399, Control_c, 0, 64, 67
1, 237413, Control_c, 0, 64, 70
1, 237428, Control_c, 0, 64, 72
1, 237441, Note_off_c, 0, 47, 53
1, 237443, Control_c, 0, 64, 76
1, 237458, Control_c, 0, 64, 80
1, 237473, Control_c, 0, 64, 86
1, 237487, Control_c, 0, 64, 92
1, 237502, Control_c, 0, 64, 96
1, 237517, Control_c, 0, 64, 97
1, 237554, Control_c, 0, 64, 96
1, 237569, Control_c, 0, 64, 93
1, 237584, Control_c, 0, 64, 87
1, 237599, Control_c, 0, 64, 79
1, 237613, Control_c, 0, 64, 68
1, 237628, Note_off_c, 0, 62, 60
1, 237628, Control_c, 0, 64, 61
1, 237633, Note_on_c, 0, 45, 43
1, 237634, Note_on_c, 0, 60, 62
1, 237643, Control_c, 0, 64, 52
1, 237658, Control_c, 0, 64, 49
1, 237673, Control_c, 0, 64, 49
1, 237688, Control_c, 0, 64, 53
1, 237702, Control_c, 0, 64, 60
1, 237717, Control_c, 0, 64, 64
1, 237731, Control_c, 0, 64, 66
1, 237746, Control_c, 0, 64, 69
1, 237761, Control_c, 0, 64, 73
1, 237776, Note_off_c, 0, 45, 60
1, 237776, Control_c, 0, 64, 79
1, 237792, Control_c, 0, 64, 90
1, 237807, Control_c, 0, 64, 108
1, 237822, Control_c, 0, 64, 127
1, 237865, Note_off_c, 0, 54, 42
1, 237949, Note_on_c, 0, 43, 48
1, 237949, Note_off_c, 0, 60, 63
1, 237951, Note_on_c, 0, 59, 68
1, 237970, Control_c, 0, 64, 101
1, 237985, Control_c, 0, 64, 90
1, 238000, Control_c, 0, 64, 84
1, 238015, Control_c, 0, 64, 80
1, 238030, Control_c, 0, 64, 75
1, 238044, Control_c, 0, 64, 70
1, 238059, Control_c, 0, 64, 65
1, 238074, Control_c, 0, 64, 59
1, 238089, Control_c, 0, 64, 54
1, 238104, Control_c, 0, 64, 54
1, 238237, Control_c, 0, 64, 54
1, 238240, Note_off_c, 0, 69, 61
1, 238252, Control_c, 0, 64, 56
1, 238267, Control_c, 0, 64, 58
1, 238268, Note_on_c, 0, 47, 53
1, 238289, Control_c, 0, 64, 60
1, 238304, Control_c, 0, 64, 61
1, 238319, Control_c, 0, 64, 63
1, 238333, Control_c, 0, 64, 63
1, 238348, Control_c, 0, 64, 64
1, 238363, Control_c, 0, 64, 65
1, 238378, Control_c, 0, 64, 65
1, 238452, Control_c, 0, 64, 65
1, 238467, Control_c, 0, 64, 64
1, 238482, Control_c, 0, 64, 63
1, 238497, Control_c, 0, 64, 61
1, 238511, Control_c, 0, 64, 60
1, 238526, Control_c, 0, 64, 59
1, 238541, Control_c, 0, 64, 57
1, 238555, Control_c, 0, 64, 56
1, 238570, Control_c, 0, 64, 54
1, 238586, Control_c, 0, 64, 51
1, 238590, Note_off_c, 0, 47, 36
1, 238597, Note_on_c, 0, 52, 43
1, 238601, Control_c, 0, 64, 49
1, 238602, Note_on_c, 0, 67, 79
1, 238616, Control_c, 0, 64, 47
1, 238631, Control_c, 0, 64, 46
1, 238647, Note_off_c, 0, 59, 55
1, 238675, Control_c, 0, 64, 46
1, 238690, Control_c, 0, 64, 52
1, 238705, Control_c, 0, 64, 57
1, 238720, Control_c, 0, 64, 61
1, 238734, Control_c, 0, 64, 63
1, 238749, Control_c, 0, 64, 65
1, 238764, Control_c, 0, 64, 67
1, 238779, Control_c, 0, 64, 68
1, 238793, Control_c, 0, 64, 70
1, 238853, Control_c, 0, 64, 69
1, 238867, Control_c, 0, 64, 69
1, 238882, Control_c, 0, 64, 67
1, 238885, Note_off_c, 0, 52, 52
1, 238897, Control_c, 0, 64, 63
1, 238902, Note_on_c, 0, 50, 41
1, 238912, Control_c, 0, 64, 57
1, 238916, Note_on_c, 0, 59, 57
1, 238927, Control_c, 0, 64, 51
1, 238942, Control_c, 0, 64, 50
1, 238986, Control_c, 0, 64, 53
1, 239001, Control_c, 0, 64, 58
1, 239010, Note_off_c, 0, 43, 55
1, 239016, Control_c, 0, 64, 60
1, 239038, Control_c, 0, 64, 62
1, 239053, Control_c, 0, 64, 63
1, 239067, Control_c, 0, 64, 64
1, 239082, Control_c, 0, 64, 66
1, 239097, Control_c, 0, 64, 68
1, 239112, Control_c, 0, 64, 69
1, 239127, Control_c, 0, 64, 70
1, 239141, Control_c, 0, 64, 71
1, 239156, Control_c, 0, 64, 72
1, 239171, Control_c, 0, 64, 73
1, 239201, Control_c, 0, 64, 73
1, 239206, Note_on_c, 0, 45, 40
1, 239208, Note_on_c, 0, 49, 39
1, 239216, Control_c, 0, 64, 72
1, 239220, Note_on_c, 0, 64, 54
1, 239231, Control_c, 0, 64, 72
1, 239233, Note_off_c, 0, 50, 37
1, 239246, Control_c, 0, 64, 71
1, 239260, Control_c, 0, 64, 71
1, 239264, Note_off_c, 0, 59, 32
1, 239275, Control_c, 0, 64, 69
1, 239290, Control_c, 0, 64, 66
1, 239305, Control_c, 0, 64, 66
1, 239348, Note_off_c, 0, 64, 57
1, 239380, Control_c, 0, 64, 65
1, 239395, Control_c, 0, 64, 65
1, 239424, Control_c, 0, 64, 64
1, 239439, Control_c, 0, 64, 63
1, 239454, Control_c, 0, 64, 63
1, 239469, Control_c, 0, 64, 62
1, 239483, Control_c, 0, 64, 62
1, 239490, Note_off_c, 0, 67, 55
1, 239498, Control_c, 0, 64, 61
1, 239520, Note_on_c, 0, 64, 76
1, 239528, Control_c, 0, 64, 61
1, 239529, Note_off_c, 0, 49, 53
1, 239531, Note_on_c, 0, 62, 60
1, 239535, Note_on_c, 0, 50, 47
1, 239557, Control_c, 0, 64, 60
1, 239572, Control_c, 0, 64, 60
1, 239646, Control_c, 0, 64, 59
1, 239831, Control_c, 0, 64, 59
1, 239842, Note_on_c, 0, 69, 80
1, 239842, Note_off_c, 0, 64, 63
1, 239847, Note_off_c, 0, 62, 62
1, 239856, Note_off_c, 0, 50, 60
1, 239861, Control_c, 0, 64, 58
1, 239862, Note_on_c, 0, 52, 45
1, 239863, Note_on_c, 0, 61, 51
1, 239890, Control_c, 0, 64, 58
1, 239905, Control_c, 0, 64, 57
1, 239920, Control_c, 0, 64, 57
1, 239934, Control_c, 0, 64, 56
1, 239964, Control_c, 0, 64, 56
1, 239994, Control_c, 0, 64, 55
1, 240009, Control_c, 0, 64, 54
1, 240024, Control_c, 0, 64, 54
1, 240039, Control_c, 0, 64, 53
1, 240053, Control_c, 0, 64, 53
1, 240068, Control_c, 0, 64, 52
1, 240083, Control_c, 0, 64, 51
1, 240134, Note_off_c, 0, 69, 59
1, 240168, Note_on_c, 0, 67, 70
1, 240170, Note_on_c, 0, 64, 60
1, 240172, Note_off_c, 0, 61, 59
1, 240172, Control_c, 0, 64, 53
1, 240188, Control_c, 0, 64, 57
1, 240203, Control_c, 0, 64, 60
1, 240217, Control_c, 0, 64, 62
1, 240232, Control_c, 0, 64, 64
1, 240246, Control_c, 0, 64, 65
1, 240261, Control_c, 0, 64, 66
1, 240276, Control_c, 0, 64, 67
1, 240291, Control_c, 0, 64, 69
1, 240305, Control_c, 0, 64, 71
1, 240320, Control_c, 0, 64, 72
1, 240321, Note_off_c, 0, 67, 59
1, 240335, Control_c, 0, 64, 73
1, 240394, Control_c, 0, 64, 72
1, 240409, Control_c, 0, 64, 71
1, 240423, Control_c, 0, 64, 70
1, 240438, Control_c, 0, 64, 69
1, 240453, Control_c, 0, 64, 68
1, 240468, Control_c, 0, 64, 67
1, 240483, Control_c, 0, 64, 66
1, 240498, Control_c, 0, 64, 65
1, 240508, Note_on_c, 0, 66, 77
1, 240513, Control_c, 0, 64, 63
1, 240535, Control_c, 0, 64, 62
1, 240550, Control_c, 0, 64, 61
1, 240564, Control_c, 0, 64, 60
1, 240579, Control_c, 0, 64, 59
1, 240594, Control_c, 0, 64, 59
1, 240609, Control_c, 0, 64, 58
1, 240624, Control_c, 0, 64, 57
1, 240632, Note_off_c, 0, 52, 61
1, 240638, Control_c, 0, 64, 57
1, 240653, Control_c, 0, 64, 56
1, 240668, Control_c, 0, 64, 56
1, 240683, Control_c, 0, 64, 55
1, 240712, Control_c, 0, 64, 55
1, 240843, Note_on_c, 0, 62, 54
1, 240856, Note_on_c, 0, 50, 39
1, 240858, Note_off_c, 0, 64, 59
1, 240905, Note_off_c, 0, 45, 37
1, 241201, Note_off_c, 0, 50, 57
1, 241210, Note_on_c, 0, 57, 46
1, 241214, Note_on_c, 0, 64, 72
1, 241246, Note_off_c, 0, 66, 62
1, 241432, Control_c, 0, 64, 54
1, 241565, Control_c, 0, 64, 54
1, 241595, Control_c, 0, 64, 53
1, 241604, Note_off_c, 0, 57, 52
1, 241627, Note_on_c, 0, 55, 42
1, 241639, Control_c, 0, 64, 53
1, 241642, Note_on_c, 0, 61, 50
1, 241646, Note_off_c, 0, 62, 58
1, 241654, Control_c, 0, 64, 52
1, 241669, Control_c, 0, 64, 51
1, 241684, Control_c, 0, 64, 49
1, 241699, Control_c, 0, 64, 47
1, 241714, Control_c, 0, 64, 44
1, 241728, Control_c, 0, 64, 41
1, 241744, Control_c, 0, 64, 38
1, 241759, Control_c, 0, 64, 35
1, 241773, Control_c, 0, 64, 35
1, 241789, Control_c, 0, 64, 35
1, 241789, Control_c, 0, 67, 17
1, 241803, Control_c, 0, 64, 43
1, 241803, Control_c, 0, 67, 92
1, 241818, Control_c, 0, 64, 51
1, 241818, Control_c, 0, 67, 127
1, 241833, Control_c, 0, 64, 59
1, 241848, Control_c, 0, 64, 64
1, 241859, Note_off_c, 0, 64, 61
1, 241863, Control_c, 0, 64, 69
1, 241878, Control_c, 0, 64, 77
1, 241893, Control_c, 0, 64, 98
1, 241896, Note_off_c, 0, 55, 63
1, 241905, Note_off_c, 0, 61, 60
1, 241908, Control_c, 0, 64, 127
1, 242267, Note_on_c, 0, 62, 71
1, 242280, Note_on_c, 0, 38, 43
1, 242282, Note_on_c, 0, 57, 55
1, 242283, Note_on_c, 0, 54, 57
1, 242285, Control_c, 0, 64, 99
1, 242289, Note_on_c, 0, 50, 45
1, 242300, Control_c, 0, 64, 83
1, 242315, Control_c, 0, 64, 71
1, 242330, Control_c, 0, 64, 61
1, 242345, Control_c, 0, 64, 41
1, 242359, Control_c, 0, 64, 16
1, 242374, Control_c, 0, 64, 15
1, 242552, Control_c, 0, 64, 17
1, 242566, Control_c, 0, 64, 22
1, 242582, Control_c, 0, 64, 29
1, 242597, Control_c, 0, 64, 39
1, 242612, Control_c, 0, 64, 48
1, 242626, Control_c, 0, 64, 52
1, 242641, Control_c, 0, 64, 55
1, 242656, Control_c, 0, 64, 57
1, 242671, Control_c, 0, 64, 59
1, 242686, Control_c, 0, 64, 61
1, 242701, Control_c, 0, 64, 63
1, 242715, Control_c, 0, 64, 64
1, 242730, Control_c, 0, 64, 65
1, 242760, Control_c, 0, 64, 66
1, 242782, Control_c, 0, 64, 67
1, 242797, Control_c, 0, 64, 68
1, 242812, Control_c, 0, 64, 70
1, 242827, Control_c, 0, 64, 73
1, 242841, Control_c, 0, 64, 75
1, 242856, Control_c, 0, 64, 77
1, 242871, Control_c, 0, 64, 78
1, 242886, Control_c, 0, 64, 78
1, 242915, Control_c, 0, 64, 79
1, 242930, Control_c, 0, 64, 79
1, 242945, Control_c, 0, 64, 80
1, 242960, Control_c, 0, 64, 80
1, 244650, Control_c, 0, 64, 81
1, 245309, Control_c, 0, 64, 80
1, 245324, Control_c, 0, 64, 80
1, 245369, Control_c, 0, 64, 79
1, 245383, Control_c, 0, 64, 79
1, 245398, Control_c, 0, 64, 78
1, 245443, Control_c, 0, 64, 78
1, 245458, Control_c, 0, 64, 77
1, 245473, Control_c, 0, 64, 75
1, 245488, Control_c, 0, 64, 73
1, 245502, Control_c, 0, 64, 71
1, 245502, Control_c, 0, 67, 127
1, 245517, Control_c, 0, 64, 70
1, 245517, Control_c, 0, 67, 116
1, 245532, Control_c, 0, 64, 68
1, 245532, Control_c, 0, 67, 108
1, 245547, Control_c, 0, 64, 67
1, 245547, Control_c, 0, 67, 100
1, 245562, Control_c, 0, 64, 64
1, 245562, Control_c, 0, 67, 92
1, 245576, Control_c, 0, 64, 62
1, 245576, Control_c, 0, 67, 83
1, 245591, Control_c, 0, 64, 58
1, 245591, Control_c, 0, 67, 77
1, 245606, Control_c, 0, 64, 56
1, 245606, Control_c, 0, 67, 70
1, 245620, Control_c, 0, 64, 56
1, 245620, Control_c, 0, 67, 63
1, 245635, Control_c, 0, 64, 55
1, 245635, Control_c, 0, 67, 53
1, 245650, Control_c, 0, 64, 54
1, 245650, Control_c, 0, 67, 44
1, 245665, Control_c, 0, 64, 52
1, 245665, Control_c, 0, 67, 35
1, 245680, Control_c, 0, 64, 50
1, 245680, Control_c, 0, 67, 26
1, 245694, Control_c, 0, 64, 47
1, 245694, Control_c, 0, 67, 17
1, 245709, Control_c, 0, 64, 45
1, 245709, Control_c, 0, 67, 0
1, 245724, Control_c, 0, 64, 42
1, 245739, Control_c, 0, 64, 40
1, 245754, Control_c, 0, 64, 36
1, 245777, Control_c, 0, 64, 31
1, 245792, Control_c, 0, 64, 28
1, 245807, Control_c, 0, 64, 24
1, 245822, Control_c, 0, 64, 21
1, 245826, Note_off_c, 0, 57, 56
1, 245828, Note_off_c, 0, 50, 43
1, 245828, Note_off_c, 0, 54, 58
1, 245836, Control_c, 0, 64, 17
1, 245848, Note_off_c, 0, 62, 60
1, 245851, Control_c, 0, 64, 12
1, 245866, Control_c, 0, 64, 0
1, 245869, Note_off_c, 0, 38, 41
1, 246429, Control_c, 0, 64, 10
1, 246443, Control_c, 0, 64, 12
1, 246458, Control_c, 0, 64, 14
1, 246473, Control_c, 0, 64, 15
1, 246488, Control_c, 0, 64, 16
1, 246503, Control_c, 0, 64, 19
1, 246525, Control_c, 0, 64, 21
1, 246540, Control_c, 0, 64, 22
1, 246585, Control_c, 0, 64, 23
1, 246600, Control_c, 0, 64, 24
1, 246615, Control_c, 0, 64, 25
1, 246629, Control_c, 0, 64, 26
1, 246689, Control_c, 0, 64, 27
1, 246704, Control_c, 0, 64, 28
1, 246719, Control_c, 0, 64, 28
1, 246734, Control_c, 0, 64, 29
1, 246748, Control_c, 0, 64, 30
1, 246763, Control_c, 0, 64, 30
1, 246778, Control_c, 0, 64, 31
1, 246793, Control_c, 0, 64, 32
1, 246808, Control_c, 0, 64, 33
1, 246822, Control_c, 0, 64, 35
1, 246837, Control_c, 0, 64, 37
1, 246852, Control_c, 0, 64, 38
1, 246881, Control_c, 0, 64, 39
1, 246896, Control_c, 0, 64, 40
1, 246911, Control_c, 0, 64, 41
1, 246926, Control_c, 0, 64, 43
1, 246940, Control_c, 0, 64, 44
1, 246955, Control_c, 0, 64, 44
1, 246970, Control_c, 0, 64, 45
1, 247029, Control_c, 0, 64, 45
1, 247206, Control_c, 0, 64, 46
1, 247748, Control_c, 0, 64, 46
1, 247763, Control_c, 0, 64, 48
1, 247777, Control_c, 0, 64, 48
1, 247792, Control_c, 0, 64, 49
1, 247881, Control_c, 0, 64, 49
1, 247926, Control_c, 0, 64, 50
1, 248156, Control_c, 0, 64, 50
1, 248830, Control_c, 0, 64, 51
1, 249349, Control_c, 0, 64, 51
1, 249638, Control_c, 0, 64, 52
1, 249653, Control_c, 0, 64, 52
1, 249697, Control_c, 0, 64, 53
1, 249727, Control_c, 0, 64, 53
1, 249756, Control_c, 0, 64, 54
1, 249861, Control_c, 0, 64, 54
1, 249905, Control_c, 0, 64, 55
1, 249950, Control_c, 0, 64, 55
1, 251522, Control_c, 0, 64, 55
1, 251536, Control_c, 0, 64, 54
1, 251551, Control_c, 0, 64, 54
1, 251566, Control_c, 0, 64, 52
1, 251581, Control_c, 0, 64, 49
1, 251596, Control_c, 0, 64, 44
1, 251610, Control_c, 0, 64, 32
1, 251625, Control_c, 0, 64, 0
1, 251700, End_track
0, 0, End_of_file
