0, 0, Header, 0, 1, 384
1, 0, Start_track
1, 0, Title_t, "Sonata K. 576--Annie Kwok          "
1, 0, Text_t, "2008 e-Piano Junior Competition virtual audition round"
1, 0, Text_t, "recorded January and February 2008"
1, 0, Text_t, "http://www.piano-e-competition.com/"
1, 0, Text_t, "File processed for distribution by software from Zenph Studios, Inc., http://www.zenph.com"
1, 0, Instrument_name_t, "Yamaha Disklavier Pro Mark IV concert grand piano, model DCFIIISM4PRO"
1, 0, Sequencer_specific, 39, 67, 113, 0, 1, 0, 1, 0, 83, 111, 110, 97, 116, 97, 32, 75, 46, 32, 53, 55, 54, 32, 32, 32, 65, 110, 110, 105, 101, 32, 75, 119, 111, 107, 32, 32, 32, 32, 32, 32
1, 0, Sequencer_specific, 6, 67, 113, 0, 0, 0, 69
1, 0, System_exclusive, 21, 67, 113, 126, 21, 0, 2, 2, 0, 0, 8, 1, 4, 7, 9, 14, 8, 4, 14, 2, 7, 247
1, 0, Sequencer_specific, 5, 67, 123, 12, 2, 1
1, 0, Tempo, 512820
1, 0, Time_signature, 4, 2, 24, 8
1, 0, System_exclusive, 5, 126, 127, 9, 1, 247
1, 1, System_exclusive, 8, 67, 16, 76, 0, 0, 126, 0, 247
1, 2, System_exclusive, 8, 67, 16, 76, 8, 9, 7, 1, 247
1, 3, Control_c, 0, 0, 0
1, 3, Control_c, 1, 0, 0
1, 3, Control_c, 2, 0, 0
1, 3, Control_c, 3, 0, 0
1, 3, Control_c, 4, 0, 0
1, 3, Control_c, 5, 0, 0
1, 3, Control_c, 6, 0, 0
1, 3, Control_c, 7, 0, 0
1, 3, Control_c, 8, 0, 0
1, 3, Control_c, 9, 0, 127
1, 3, Control_c, 10, 0, 0
1, 3, Control_c, 11, 0, 0
1, 3, Control_c, 12, 0, 0
1, 3, Control_c, 13, 0, 0
1, 3, Control_c, 14, 0, 0
1, 3, Control_c, 15, 0, 0
1, 4, Control_c, 0, 32, 0
1, 4, Control_c, 1, 32, 0
1, 4, Control_c, 2, 32, 0
1, 4, Control_c, 3, 32, 0
1, 4, Control_c, 4, 32, 0
1, 4, Control_c, 5, 32, 0
1, 4, Control_c, 6, 32, 0
1, 4, Control_c, 7, 32, 0
1, 4, Control_c, 8, 32, 0
1, 4, Control_c, 9, 32, 0
1, 4, Control_c, 10, 32, 0
1, 4, Control_c, 11, 32, 0
1, 4, Control_c, 12, 32, 0
1, 4, Control_c, 13, 32, 0
1, 4, Control_c, 14, 32, 0
1, 4, Control_c, 15, 32, 0
1, 5, Program_c, 0, 0
1, 5, Program_c, 1, 0
1, 5, Program_c, 2, 0
1, 5, Program_c, 3, 0
1, 5, Program_c, 4, 0
1, 5, Program_c, 5, 0
1, 5, Program_c, 6, 0
1, 5, Program_c, 7, 0
1, 5, Program_c, 8, 0
1, 5, Program_c, 9, 0
1, 5, Program_c, 10, 0
1, 5, Program_c, 11, 0
1, 5, Program_c, 12, 0
1, 5, Program_c, 13, 0
1, 5, Program_c, 14, 0
1, 5, Program_c, 15, 0
1, 6, Control_c, 0, 7, 100
1, 6, Control_c, 1, 7, 100
1, 6, Control_c, 2, 7, 100
1, 6, Control_c, 3, 7, 100
1, 6, Control_c, 4, 7, 100
1, 6, Control_c, 5, 7, 100
1, 6, Control_c, 6, 7, 100
1, 6, Control_c, 7, 7, 100
1, 6, Control_c, 8, 7, 100
1, 6, Control_c, 9, 7, 100
1, 6, Control_c, 10, 7, 100
1, 6, Control_c, 11, 7, 100
1, 6, Control_c, 12, 7, 100
1, 6, Control_c, 13, 7, 100
1, 6, Control_c, 14, 7, 100
1, 6, Control_c, 15, 7, 100
1, 1131, Note_on_c, 0, 57, 58
1, 1137, Note_on_c, 0, 45, 58
1, 1168, Note_off_c, 0, 57, 61
1, 1179, Note_off_c, 0, 45, 60
1, 1309, Note_on_c, 0, 62, 73
1, 1311, Note_on_c, 0, 50, 73
1, 1345, Note_off_c, 0, 50, 63
1, 1360, Note_off_c, 0, 62, 58
1, 1471, Note_on_c, 0, 45, 66
1, 1471, Note_on_c, 0, 57, 74
1, 1508, Note_off_c, 0, 45, 61
1, 1509, Note_off_c, 0, 57, 61
1, 1626, Note_on_c, 0, 62, 72
1, 1628, Note_on_c, 0, 50, 73
1, 1654, Note_off_c, 0, 50, 67
1, 1675, Note_off_c, 0, 62, 58
1, 1782, Note_on_c, 0, 54, 80
1, 1782, Note_on_c, 0, 66, 69
1, 1815, Note_on_c, 0, 67, 52
1, 1818, Note_off_c, 0, 66, 50
1, 1830, Note_off_c, 0, 54, 57
1, 1838, Note_off_c, 0, 67, 62
1, 1936, Note_on_c, 0, 62, 75
1, 1938, Note_on_c, 0, 50, 71
1, 1970, Note_off_c, 0, 50, 63
1, 1991, Note_off_c, 0, 62, 56
1, 2097, Note_on_c, 0, 54, 81
1, 2097, Note_on_c, 0, 66, 81
1, 2120, Note_off_c, 0, 54, 68
1, 2153, Note_off_c, 0, 66, 62
1, 2272, Note_on_c, 0, 57, 77
1, 2273, Note_on_c, 0, 69, 77
1, 2502, Note_off_c, 0, 57, 63
1, 2511, Note_off_c, 0, 69, 64
1, 2601, Note_on_c, 0, 69, 74
1, 2609, Note_on_c, 0, 57, 61
1, 2627, Note_off_c, 0, 69, 64
1, 2640, Note_off_c, 0, 57, 65
1, 2798, Note_on_c, 0, 69, 53
1, 2804, Note_on_c, 0, 57, 48
1, 2984, Note_off_c, 0, 57, 61
1, 2996, Note_off_c, 0, 69, 60
1, 3113, Control_c, 0, 64, 23
1, 3128, Control_c, 0, 64, 51
1, 3143, Control_c, 0, 64, 63
1, 3150, Note_on_c, 0, 69, 46
1, 3154, Note_on_c, 0, 67, 51
1, 3156, Note_on_c, 0, 74, 51
1, 3157, Control_c, 0, 64, 67
1, 3172, Control_c, 0, 64, 72
1, 3187, Control_c, 0, 64, 78
1, 3190, Note_off_c, 0, 67, 62
1, 3196, Note_off_c, 0, 69, 60
1, 3201, Control_c, 0, 64, 83
1, 3204, Note_off_c, 0, 74, 54
1, 3207, Note_on_c, 0, 73, 53
1, 3216, Control_c, 0, 64, 86
1, 3231, Control_c, 0, 64, 87
1, 3235, Note_off_c, 0, 73, 57
1, 3281, Note_on_c, 0, 71, 39
1, 3306, Control_c, 0, 64, 86
1, 3321, Control_c, 0, 64, 84
1, 3325, Note_off_c, 0, 71, 43
1, 3336, Note_on_c, 0, 73, 56
1, 3336, Control_c, 0, 64, 77
1, 3350, Control_c, 0, 64, 68
1, 3364, Control_c, 0, 64, 59
1, 3375, Note_on_c, 0, 66, 42
1, 3378, Note_on_c, 0, 69, 12
1, 3380, Control_c, 0, 64, 48
1, 3385, Note_off_c, 0, 73, 55
1, 3395, Note_on_c, 0, 74, 52
1, 3395, Control_c, 0, 64, 31
1, 3410, Control_c, 0, 64, 0
1, 3590, Note_off_c, 0, 69, 57
1, 3606, Note_off_c, 0, 66, 60
1, 3614, Note_off_c, 0, 74, 56
1, 3713, Control_c, 0, 64, 38
1, 3728, Note_on_c, 0, 69, 45
1, 3728, Control_c, 0, 64, 56
1, 3736, Note_on_c, 0, 61, 45
1, 3738, Note_on_c, 0, 78, 55
1, 3743, Control_c, 0, 64, 64
1, 3752, Note_off_c, 0, 69, 60
1, 3758, Control_c, 0, 64, 68
1, 3762, Note_off_c, 0, 61, 57
1, 3773, Control_c, 0, 64, 72
1, 3774, Note_on_c, 0, 76, 63
1, 3787, Control_c, 0, 64, 77
1, 3789, Note_off_c, 0, 78, 52
1, 3802, Control_c, 0, 64, 81
1, 3806, Note_off_c, 0, 76, 63
1, 3817, Control_c, 0, 64, 84
1, 3830, Note_on_c, 0, 74, 65
1, 3831, Control_c, 0, 64, 86
1, 3846, Control_c, 0, 64, 88
1, 3888, Note_on_c, 0, 76, 69
1, 3893, Note_off_c, 0, 74, 56
1, 3932, Note_on_c, 0, 62, 52
1, 3935, Note_on_c, 0, 78, 60
1, 3935, Control_c, 0, 64, 86
1, 3939, Note_on_c, 0, 69, 30
1, 3943, Note_off_c, 0, 76, 57
1, 3950, Control_c, 0, 64, 81
1, 3965, Control_c, 0, 64, 73
1, 3979, Control_c, 0, 64, 64
1, 3994, Control_c, 0, 64, 53
1, 4009, Control_c, 0, 64, 40
1, 4024, Control_c, 0, 64, 22
1, 4039, Control_c, 0, 64, 0
1, 4087, Note_off_c, 0, 69, 61
1, 4130, Note_off_c, 0, 62, 58
1, 4164, Note_off_c, 0, 78, 57
1, 4289, Note_on_c, 0, 64, 50
1, 4290, Note_on_c, 0, 55, 45
1, 4290, Note_on_c, 0, 81, 57
1, 4313, Note_off_c, 0, 64, 59
1, 4318, Note_off_c, 0, 55, 57
1, 4375, Note_on_c, 0, 79, 50
1, 4459, Note_off_c, 0, 81, 31
1, 4480, Note_on_c, 0, 57, 29
1, 4489, Note_on_c, 0, 62, 34
1, 4492, Note_on_c, 0, 78, 49
1, 4495, Note_off_c, 0, 79, 52
1, 4580, Control_c, 0, 64, 26
1, 4595, Control_c, 0, 64, 51
1, 4610, Control_c, 0, 64, 62
1, 4625, Control_c, 0, 64, 67
1, 4640, Control_c, 0, 64, 72
1, 4654, Control_c, 0, 64, 78
1, 4669, Control_c, 0, 64, 84
1, 4684, Control_c, 0, 64, 89
1, 4692, Note_off_c, 0, 78, 53
1, 4699, Control_c, 0, 64, 93
1, 4714, Control_c, 0, 64, 96
1, 4728, Control_c, 0, 64, 97
1, 4743, Control_c, 0, 64, 98
1, 4754, Note_off_c, 0, 57, 52
1, 4758, Control_c, 0, 64, 99
1, 4772, Control_c, 0, 64, 99
1, 4802, Control_c, 0, 64, 100
1, 4853, Note_off_c, 0, 62, 36
1, 5034, Control_c, 0, 64, 99
1, 5049, Control_c, 0, 64, 97
1, 5064, Control_c, 0, 64, 93
1, 5078, Control_c, 0, 64, 85
1, 5082, Note_on_c, 0, 61, 35
1, 5093, Control_c, 0, 64, 75
1, 5099, Note_on_c, 0, 76, 41
1, 5108, Control_c, 0, 64, 65
1, 5123, Control_c, 0, 64, 55
1, 5138, Control_c, 0, 64, 46
1, 5152, Control_c, 0, 64, 40
1, 5163, Note_off_c, 0, 61, 0
1, 5163, Note_on_c, 0, 61, 2
1, 5167, Control_c, 0, 64, 37
1, 5182, Control_c, 0, 64, 36
1, 5250, Note_off_c, 0, 61, 58
1, 5256, Note_off_c, 0, 76, 59
1, 5375, Control_c, 0, 64, 37
1, 5389, Control_c, 0, 64, 37
1, 5434, Control_c, 0, 64, 38
1, 5457, Note_on_c, 0, 47, 60
1, 5459, Note_on_c, 0, 59, 60
1, 5464, Control_c, 0, 64, 38
1, 5490, Note_off_c, 0, 59, 64
1, 5491, Note_off_c, 0, 47, 61
1, 5618, Note_on_c, 0, 52, 76
1, 5619, Note_on_c, 0, 64, 75
1, 5649, Note_off_c, 0, 52, 61
1, 5672, Note_off_c, 0, 64, 58
1, 5788, Note_on_c, 0, 47, 73
1, 5790, Note_on_c, 0, 59, 79
1, 5836, Note_off_c, 0, 47, 59
1, 5846, Note_off_c, 0, 59, 60
1, 5948, Note_on_c, 0, 52, 79
1, 5950, Note_on_c, 0, 64, 78
1, 5973, Note_off_c, 0, 52, 65
1, 6009, Note_off_c, 0, 64, 60
1, 6108, Note_on_c, 0, 67, 82
1, 6108, Note_on_c, 0, 55, 85
1, 6150, Note_off_c, 0, 55, 61
1, 6167, Note_off_c, 0, 67, 61
1, 6266, Note_on_c, 0, 52, 83
1, 6269, Note_on_c, 0, 64, 79
1, 6302, Note_off_c, 0, 52, 62
1, 6328, Note_off_c, 0, 64, 61
1, 6419, Note_on_c, 0, 55, 80
1, 6421, Note_on_c, 0, 67, 79
1, 6440, Note_off_c, 0, 55, 68
1, 6477, Note_off_c, 0, 67, 62
1, 6604, Note_on_c, 0, 59, 70
1, 6604, Note_on_c, 0, 71, 74
1, 6844, Note_off_c, 0, 59, 61
1, 6852, Note_off_c, 0, 71, 62
1, 6857, Control_c, 0, 64, 38
1, 6872, Control_c, 0, 64, 37
1, 6887, Control_c, 0, 64, 37
1, 6916, Control_c, 0, 64, 36
1, 6935, Note_on_c, 0, 59, 73
1, 6935, Note_on_c, 0, 71, 75
1, 6960, Note_off_c, 0, 59, 65
1, 6975, Note_off_c, 0, 71, 54
1, 7118, Note_on_c, 0, 71, 55
1, 7127, Note_on_c, 0, 59, 53
1, 7281, Note_off_c, 0, 71, 61
1, 7304, Note_off_c, 0, 59, 61
1, 7479, Note_on_c, 0, 75, 47
1, 7485, Note_on_c, 0, 66, 48
1, 7509, Note_off_c, 0, 75, 56
1, 7516, Note_off_c, 0, 66, 59
1, 7662, Note_on_c, 0, 78, 46
1, 7665, Note_on_c, 0, 67, 35
1, 7672, Note_on_c, 0, 71, 34
1, 7701, Note_off_c, 0, 78, 62
1, 7746, Note_on_c, 0, 76, 53
1, 7824, Note_on_c, 0, 79, 58
1, 7825, Note_off_c, 0, 76, 55
1, 7843, Control_c, 0, 64, 37
1, 7858, Control_c, 0, 64, 37
1, 7886, Note_off_c, 0, 79, 58
1, 7887, Control_c, 0, 64, 38
1, 7889, Note_on_c, 0, 78, 68
1, 7902, Control_c, 0, 64, 38
1, 7957, Note_off_c, 0, 78, 61
1, 7962, Note_on_c, 0, 81, 66
1, 8029, Note_on_c, 0, 79, 59
1, 8089, Note_off_c, 0, 71, 54
1, 8123, Note_off_c, 0, 79, 50
1, 8144, Note_on_c, 0, 83, 48
1, 8153, Note_off_c, 0, 81, 36
1, 8162, Note_off_c, 0, 67, 60
1, 8371, Note_off_c, 0, 83, 53
1, 8511, Note_on_c, 0, 64, 44
1, 8516, Note_on_c, 0, 57, 37
1, 8519, Note_on_c, 0, 73, 53
1, 8546, Note_off_c, 0, 64, 61
1, 8549, Note_off_c, 0, 57, 58
1, 8555, Note_off_c, 0, 73, 63
1, 8725, Control_c, 0, 64, 39
1, 8729, Note_on_c, 0, 62, 36
1, 8731, Note_on_c, 0, 76, 44
1, 8747, Control_c, 0, 64, 47
1, 8748, Note_on_c, 0, 67, 31
1, 8762, Control_c, 0, 64, 59
1, 8777, Control_c, 0, 64, 65
1, 8792, Control_c, 0, 64, 70
1, 8807, Control_c, 0, 64, 76
1, 8821, Control_c, 0, 64, 84
1, 8836, Control_c, 0, 64, 92
1, 8851, Control_c, 0, 64, 99
1, 8866, Control_c, 0, 64, 108
1, 8881, Control_c, 0, 64, 113
1, 8895, Control_c, 0, 64, 116
1, 8910, Control_c, 0, 64, 118
1, 8925, Control_c, 0, 64, 119
1, 8929, Note_off_c, 0, 76, 45
1, 8959, Note_off_c, 0, 62, 54
1, 8962, Note_off_c, 0, 67, 52
1, 9237, Control_c, 0, 64, 118
1, 9252, Control_c, 0, 64, 116
1, 9267, Control_c, 0, 64, 111
1, 9282, Control_c, 0, 64, 105
1, 9297, Control_c, 0, 64, 97
1, 9312, Control_c, 0, 64, 88
1, 9320, Note_on_c, 0, 66, 31
1, 9326, Control_c, 0, 64, 78
1, 9333, Note_on_c, 0, 74, 38
1, 9341, Control_c, 0, 64, 68
1, 9356, Control_c, 0, 64, 60
1, 9370, Control_c, 0, 64, 51
1, 9385, Control_c, 0, 64, 46
1, 9400, Control_c, 0, 64, 42
1, 9415, Control_c, 0, 64, 40
1, 9446, Note_off_c, 0, 66, 53
1, 9670, Note_on_c, 0, 45, 64
1, 9722, Note_off_c, 0, 45, 52
1, 9725, Note_off_c, 0, 74, 53
1, 9831, Note_on_c, 0, 50, 70
1, 9838, Control_c, 0, 64, 40
1, 9867, Note_off_c, 0, 50, 62
1, 9991, Note_on_c, 0, 45, 64
1, 9993, Note_on_c, 0, 74, 72
1, 10033, Note_off_c, 0, 45, 62
1, 10055, Note_off_c, 0, 74, 59
1, 10144, Note_on_c, 0, 50, 68
1, 10147, Note_on_c, 0, 78, 76
1, 10175, Note_off_c, 0, 50, 64
1, 10211, Note_off_c, 0, 78, 61
1, 10306, Note_on_c, 0, 81, 81
1, 10307, Note_on_c, 0, 54, 72
1, 10353, Note_off_c, 0, 54, 57
1, 10368, Note_off_c, 0, 81, 62
1, 10458, Note_on_c, 0, 50, 66
1, 10459, Note_on_c, 0, 78, 74
1, 10487, Note_off_c, 0, 50, 64
1, 10515, Note_off_c, 0, 78, 61
1, 10614, Note_on_c, 0, 86, 64
1, 10623, Note_on_c, 0, 54, 55
1, 10648, Note_off_c, 0, 54, 60
1, 10794, Note_on_c, 0, 57, 43
1, 10862, Note_off_c, 0, 86, 53
1, 10865, Note_on_c, 0, 85, 60
1, 10937, Note_off_c, 0, 85, 61
1, 10954, Note_on_c, 0, 88, 64
1, 11002, Note_off_c, 0, 57, 62
1, 11028, Note_on_c, 0, 86, 65
1, 11113, Note_on_c, 0, 85, 66
1, 11119, Note_on_c, 0, 57, 54
1, 11140, Note_off_c, 0, 57, 62
1, 11169, Note_off_c, 0, 88, 32
1, 11171, Note_on_c, 0, 83, 72
1, 11194, Note_off_c, 0, 86, 51
1, 11212, Note_off_c, 0, 85, 58
1, 11250, Note_on_c, 0, 81, 68
1, 11250, Note_off_c, 0, 83, 60
1, 11258, Note_on_c, 0, 57, 56
1, 11289, Note_off_c, 0, 57, 65
1, 11291, Note_off_c, 0, 81, 61
1, 11336, Note_on_c, 0, 83, 69
1, 11412, Note_on_c, 0, 81, 69
1, 11482, Note_on_c, 0, 79, 68
1, 11536, Note_off_c, 0, 83, 33
1, 11560, Note_on_c, 0, 78, 71
1, 11563, Note_on_c, 0, 61, 62
1, 11592, Note_off_c, 0, 79, 58
1, 11598, Note_off_c, 0, 81, 55
1, 11628, Note_on_c, 0, 76, 70
1, 11645, Note_off_c, 0, 78, 59
1, 11708, Note_on_c, 0, 78, 59
1, 11713, Note_on_c, 0, 62, 65
1, 11748, Note_off_c, 0, 76, 57
1, 11773, Note_off_c, 0, 61, 59
1, 11804, Note_off_c, 0, 62, 58
1, 11804, Note_off_c, 0, 78, 59
1, 11809, Note_on_c, 0, 81, 64
1, 11885, Note_on_c, 0, 78, 61
1, 11951, Note_off_c, 0, 81, 48
1, 11955, Note_off_c, 0, 78, 59
1, 11959, Note_on_c, 0, 74, 68
1, 12031, Note_off_c, 0, 74, 60
1, 12037, Note_on_c, 0, 73, 70
1, 12047, Note_on_c, 0, 64, 59
1, 12130, Note_on_c, 0, 69, 65
1, 12138, Note_off_c, 0, 73, 54
1, 12192, Note_on_c, 0, 66, 64
1, 12197, Note_off_c, 0, 69, 58
1, 12204, Note_on_c, 0, 74, 74
1, 12233, Note_off_c, 0, 64, 59
1, 12272, Note_on_c, 0, 73, 69
1, 12273, Note_off_c, 0, 66, 60
1, 12304, Note_off_c, 0, 74, 59
1, 12353, Note_on_c, 0, 74, 62
1, 12356, Note_off_c, 0, 73, 62
1, 12434, Note_on_c, 0, 78, 64
1, 12436, Note_off_c, 0, 74, 58
1, 12513, Note_on_c, 0, 76, 63
1, 12517, Note_off_c, 0, 78, 56
1, 12518, Note_on_c, 0, 67, 51
1, 12556, Note_off_c, 0, 67, 49
1, 12579, Note_off_c, 0, 76, 55
1, 12587, Note_on_c, 0, 79, 54
1, 12669, Control_c, 0, 64, 38
1, 12684, Control_c, 0, 64, 36
1, 12699, Control_c, 0, 64, 35
1, 12700, Note_on_c, 0, 57, 34
1, 12701, Note_on_c, 0, 74, 51
1, 12713, Control_c, 0, 64, 34
1, 12717, Note_on_c, 0, 66, 35
1, 12758, Control_c, 0, 64, 38
1, 12769, Note_off_c, 0, 79, 35
1, 12773, Control_c, 0, 64, 48
1, 12787, Control_c, 0, 64, 57
1, 12802, Control_c, 0, 64, 63
1, 12817, Control_c, 0, 64, 69
1, 12831, Control_c, 0, 64, 76
1, 12846, Control_c, 0, 64, 86
1, 12861, Control_c, 0, 64, 95
1, 12876, Control_c, 0, 64, 104
1, 12891, Control_c, 0, 64, 113
1, 12905, Control_c, 0, 64, 120
1, 12920, Control_c, 0, 64, 122
1, 12935, Control_c, 0, 64, 123
1, 12936, Note_off_c, 0, 74, 59
1, 12964, Note_off_c, 0, 66, 59
1, 13173, Control_c, 0, 64, 121
1, 13188, Control_c, 0, 64, 117
1, 13203, Control_c, 0, 64, 112
1, 13217, Control_c, 0, 64, 105
1, 13240, Control_c, 0, 64, 98
1, 13255, Control_c, 0, 64, 88
1, 13269, Control_c, 0, 64, 79
1, 13277, Note_on_c, 0, 64, 32
1, 13284, Control_c, 0, 64, 70
1, 13292, Note_on_c, 0, 73, 43
1, 13299, Control_c, 0, 64, 64
1, 13314, Control_c, 0, 64, 59
1, 13329, Control_c, 0, 64, 56
1, 13343, Control_c, 0, 64, 54
1, 13358, Control_c, 0, 64, 53
1, 13423, Note_off_c, 0, 64, 59
1, 13432, Control_c, 0, 64, 53
1, 13470, Note_off_c, 0, 57, 44
1, 13621, Note_on_c, 0, 47, 59
1, 13669, Control_c, 0, 64, 52
1, 13672, Note_off_c, 0, 47, 52
1, 13681, Note_off_c, 0, 73, 56
1, 13728, Control_c, 0, 64, 52
1, 13759, Control_c, 0, 64, 51
1, 13774, Control_c, 0, 64, 51
1, 13784, Note_on_c, 0, 52, 64
1, 13789, Control_c, 0, 64, 50
1, 13804, Control_c, 0, 64, 49
1, 13819, Control_c, 0, 64, 49
1, 13822, Note_off_c, 0, 52, 61
1, 13833, Control_c, 0, 64, 48
1, 13847, Control_c, 0, 64, 47
1, 13862, Control_c, 0, 64, 45
1, 13876, Control_c, 0, 64, 44
1, 13891, Control_c, 0, 64, 42
1, 13906, Control_c, 0, 64, 40
1, 13921, Control_c, 0, 64, 37
1, 13936, Control_c, 0, 64, 33
1, 13938, Note_on_c, 0, 47, 66
1, 13945, Note_on_c, 0, 76, 78
1, 13951, Control_c, 0, 64, 29
1, 13966, Control_c, 0, 64, 22
1, 13988, Control_c, 0, 64, 16
1, 13989, Note_off_c, 0, 47, 58
1, 14003, Control_c, 0, 64, 0
1, 14010, Note_off_c, 0, 76, 62
1, 14102, Note_on_c, 0, 52, 72
1, 14104, Note_on_c, 0, 79, 79
1, 14132, Note_off_c, 0, 52, 63
1, 14172, Note_off_c, 0, 79, 61
1, 14255, Note_on_c, 0, 55, 76
1, 14256, Note_on_c, 0, 83, 85
1, 14302, Note_off_c, 0, 55, 58
1, 14314, Note_off_c, 0, 83, 62
1, 14407, Note_on_c, 0, 52, 66
1, 14413, Note_on_c, 0, 79, 74
1, 14435, Note_off_c, 0, 52, 64
1, 14470, Note_off_c, 0, 79, 60
1, 14569, Note_on_c, 0, 55, 55
1, 14570, Note_on_c, 0, 88, 64
1, 14591, Note_off_c, 0, 55, 59
1, 14764, Note_on_c, 0, 59, 44
1, 14836, Note_on_c, 0, 87, 63
1, 14890, Note_off_c, 0, 88, 56
1, 14913, Note_on_c, 0, 84, 66
1, 14955, Note_off_c, 0, 59, 60
1, 14988, Note_on_c, 0, 83, 75
1, 14996, Note_off_c, 0, 87, 62
1, 15026, Note_off_c, 0, 84, 55
1, 15061, Note_off_c, 0, 83, 61
1, 15065, Note_on_c, 0, 81, 72
1, 15073, Note_on_c, 0, 59, 47
1, 15099, Note_off_c, 0, 59, 56
1, 15137, Note_on_c, 0, 79, 70
1, 15146, Note_off_c, 0, 81, 58
1, 15220, Note_on_c, 0, 59, 47
1, 15229, Note_on_c, 0, 78, 69
1, 15233, Note_off_c, 0, 79, 59
1, 15289, Note_off_c, 0, 78, 61
1, 15295, Note_on_c, 0, 76, 68
1, 15367, Note_off_c, 0, 76, 59
1, 15369, Note_on_c, 0, 75, 70
1, 15438, Note_on_c, 0, 72, 75
1, 15519, Note_off_c, 0, 59, 55
1, 15521, Note_on_c, 0, 71, 73
1, 15524, Note_on_c, 0, 63, 61
1, 15537, Note_off_c, 0, 75, 62
1, 15553, Note_off_c, 0, 72, 59
1, 15590, Note_off_c, 0, 71, 61
1, 15597, Note_on_c, 0, 69, 72
1, 15674, Note_off_c, 0, 63, 56
1, 15674, Note_off_c, 0, 69, 58
1, 15674, Note_on_c, 0, 64, 62
1, 15677, Note_on_c, 0, 67, 72
1, 15751, Note_off_c, 0, 67, 60
1, 15757, Note_on_c, 0, 71, 70
1, 15823, Note_off_c, 0, 71, 60
1, 15831, Note_on_c, 0, 76, 60
1, 15873, Note_off_c, 0, 76, 61
1, 15897, Note_on_c, 0, 71, 65
1, 15968, Note_off_c, 0, 71, 57
1, 15977, Note_on_c, 0, 79, 63
1, 16045, Note_on_c, 0, 76, 68
1, 16045, Note_off_c, 0, 79, 60
1, 16130, Note_on_c, 0, 83, 69
1, 16132, Note_off_c, 0, 64, 54
1, 16141, Note_off_c, 0, 76, 61
1, 16179, Note_off_c, 0, 83, 56
1, 16305, Note_on_c, 0, 71, 53
1, 16354, Note_off_c, 0, 71, 55
1, 16452, Note_on_c, 0, 57, 35
1, 16465, Note_on_c, 0, 67, 43
1, 16469, Note_on_c, 0, 73, 55
1, 16490, Note_off_c, 0, 57, 60
1, 16508, Note_off_c, 0, 67, 60
1, 16512, Note_off_c, 0, 73, 60
1, 16657, Note_on_c, 0, 62, 39
1, 16669, Note_on_c, 0, 74, 43
1, 16853, Note_on_c, 0, 66, 35
1, 16997, Note_off_c, 0, 62, 41
1, 17024, Note_on_c, 0, 69, 44
1, 17078, Note_off_c, 0, 74, 53
1, 17132, Note_off_c, 0, 66, 41
1, 17196, Note_on_c, 0, 62, 44
1, 17214, Note_off_c, 0, 69, 37
1, 17375, Note_on_c, 0, 86, 58
1, 17380, Note_on_c, 0, 66, 41
1, 17455, Note_off_c, 0, 62, 34
1, 17456, Note_on_c, 0, 85, 59
1, 17514, Note_off_c, 0, 66, 52
1, 17521, Note_on_c, 0, 69, 45
1, 17521, Note_on_c, 0, 83, 70
1, 17522, Note_off_c, 0, 86, 51
1, 17560, Note_off_c, 0, 85, 51
1, 17587, Note_off_c, 0, 83, 62
1, 17600, Note_on_c, 0, 81, 69
1, 17671, Note_on_c, 0, 61, 53
1, 17671, Note_on_c, 0, 80, 76
1, 17672, Note_off_c, 0, 81, 60
1, 17715, Note_off_c, 0, 69, 36
1, 17748, Note_off_c, 0, 80, 60
1, 17754, Note_on_c, 0, 81, 70
1, 17823, Note_off_c, 0, 81, 62
1, 17824, Note_on_c, 0, 64, 49
1, 17834, Note_on_c, 0, 80, 71
1, 17908, Note_on_c, 0, 81, 71
1, 17908, Note_off_c, 0, 61, 33
1, 17921, Note_off_c, 0, 80, 58
1, 17971, Note_off_c, 0, 64, 53
1, 17982, Note_off_c, 0, 81, 62
1, 17984, Note_on_c, 0, 69, 57
1, 17987, Note_on_c, 0, 83, 71
1, 18058, Note_on_c, 0, 81, 66
1, 18091, Note_off_c, 0, 83, 57
1, 18095, Note_off_c, 0, 81, 57
1, 18157, Note_on_c, 0, 64, 42
1, 18159, Note_off_c, 0, 69, 41
1, 18329, Note_on_c, 0, 81, 56
1, 18332, Note_on_c, 0, 67, 43
1, 18371, Note_off_c, 0, 64, 34
1, 18401, Note_on_c, 0, 79, 57
1, 18465, Note_off_c, 0, 67, 51
1, 18488, Note_on_c, 0, 78, 63
1, 18490, Note_on_c, 0, 69, 47
1, 18492, Note_off_c, 0, 81, 47
1, 18505, Note_off_c, 0, 79, 55
1, 18546, Note_off_c, 0, 78, 58
1, 18553, Note_on_c, 0, 76, 68
1, 18627, Note_on_c, 0, 62, 53
1, 18633, Note_off_c, 0, 76, 62
1, 18634, Note_on_c, 0, 73, 75
1, 18657, Note_off_c, 0, 69, 42
1, 18704, Note_off_c, 0, 73, 61
1, 18711, Note_on_c, 0, 74, 73
1, 18788, Note_on_c, 0, 66, 50
1, 18789, Note_off_c, 0, 74, 61
1, 18794, Note_on_c, 0, 73, 73
1, 18842, Note_off_c, 0, 62, 35
1, 18868, Note_on_c, 0, 74, 67
1, 18883, Note_off_c, 0, 73, 59
1, 18946, Note_on_c, 0, 69, 46
1, 18947, Note_on_c, 0, 76, 67
1, 18947, Note_off_c, 0, 74, 61
1, 18988, Note_off_c, 0, 66, 35
1, 19016, Note_on_c, 0, 74, 64
1, 19049, Note_off_c, 0, 74, 62
1, 19054, Note_off_c, 0, 76, 60
1, 19117, Note_on_c, 0, 62, 44
1, 19117, Note_off_c, 0, 69, 41
1, 19304, Note_on_c, 0, 66, 44
1, 19307, Note_on_c, 0, 86, 50
1, 19359, Note_off_c, 0, 62, 33
1, 19374, Note_on_c, 0, 85, 54
1, 19435, Note_off_c, 0, 66, 52
1, 19447, Note_on_c, 0, 83, 58
1, 19447, Note_off_c, 0, 86, 37
1, 19453, Note_on_c, 0, 69, 42
1, 19483, Note_off_c, 0, 85, 39
1, 19495, Note_off_c, 0, 83, 59
1, 19522, Note_on_c, 0, 81, 56
1, 19587, Note_off_c, 0, 81, 57
1, 19600, Note_on_c, 0, 80, 55
1, 19607, Note_on_c, 0, 61, 45
1, 19632, Note_off_c, 0, 69, 36
1, 19658, Note_off_c, 0, 80, 54
1, 19678, Note_on_c, 0, 81, 49
1, 19735, Note_off_c, 0, 81, 58
1, 19752, Note_on_c, 0, 64, 45
1, 19769, Note_on_c, 0, 80, 59
1, 19802, Note_off_c, 0, 61, 32
1, 19834, Note_off_c, 0, 80, 48
1, 19846, Note_on_c, 0, 81, 57
1, 19895, Note_off_c, 0, 81, 57
1, 19903, Note_off_c, 0, 64, 50
1, 19914, Note_on_c, 0, 83, 60
1, 19932, Note_on_c, 0, 69, 46
1, 19993, Note_on_c, 0, 81, 58
1, 20021, Note_off_c, 0, 83, 53
1, 20028, Note_off_c, 0, 81, 61
1, 20085, Note_on_c, 0, 64, 39
1, 20086, Note_off_c, 0, 69, 42
1, 20257, Note_on_c, 0, 81, 47
1, 20264, Note_on_c, 0, 67, 42
1, 20327, Note_on_c, 0, 79, 50
1, 20379, Note_off_c, 0, 64, 40
1, 20400, Note_off_c, 0, 81, 43
1, 20403, Note_on_c, 0, 69, 38
1, 20404, Note_off_c, 0, 67, 53
1, 20410, Note_off_c, 0, 79, 51
1, 20416, Note_on_c, 0, 78, 45
1, 20431, Note_off_c, 0, 69, 57
1, 20458, Note_off_c, 0, 78, 61
1, 20483, Note_on_c, 0, 76, 54
1, 20562, Note_off_c, 0, 76, 54
1, 20579, Note_on_c, 0, 73, 54
1, 20588, Note_on_c, 0, 66, 39
1, 20598, Note_on_c, 0, 69, 31
1, 20633, Note_off_c, 0, 73, 59
1, 20666, Note_on_c, 0, 74, 58
1, 20729, Note_off_c, 0, 74, 55
1, 20759, Note_on_c, 0, 73, 55
1, 20797, Note_off_c, 0, 73, 63
1, 20802, Note_off_c, 0, 69, 60
1, 20822, Note_off_c, 0, 66, 60
1, 20828, Note_on_c, 0, 74, 59
1, 20896, Note_on_c, 0, 79, 59
1, 20899, Note_off_c, 0, 74, 52
1, 20968, Note_on_c, 0, 78, 63
1, 21051, Note_on_c, 0, 75, 65
1, 21052, Note_off_c, 0, 79, 54
1, 21059, Note_on_c, 0, 61, 47
1, 21068, Note_on_c, 0, 69, 52
1, 21078, Note_off_c, 0, 78, 57
1, 21123, Note_off_c, 0, 75, 61
1, 21134, Note_on_c, 0, 76, 66
1, 21201, Note_off_c, 0, 76, 62
1, 21209, Note_on_c, 0, 75, 65
1, 21272, Note_off_c, 0, 75, 62
1, 21291, Note_on_c, 0, 76, 71
1, 21316, Note_off_c, 0, 69, 61
1, 21318, Note_off_c, 0, 61, 59
1, 21357, Note_on_c, 0, 81, 66
1, 21357, Note_off_c, 0, 76, 60
1, 21427, Note_on_c, 0, 79, 59
1, 21485, Note_off_c, 0, 81, 56
1, 21498, Note_off_c, 0, 79, 57
1, 21518, Note_on_c, 0, 62, 46
1, 21518, Note_on_c, 0, 69, 44
1, 21518, Note_on_c, 0, 77, 65
1, 21579, Note_off_c, 0, 77, 58
1, 21590, Note_on_c, 0, 78, 61
1, 21656, Note_off_c, 0, 78, 57
1, 21683, Note_on_c, 0, 77, 61
1, 21746, Note_off_c, 0, 77, 51
1, 21758, Note_on_c, 0, 78, 56
1, 21786, Note_off_c, 0, 62, 53
1, 21786, Note_off_c, 0, 69, 54
1, 21811, Note_off_c, 0, 78, 58
1, 21831, Note_on_c, 0, 83, 56
1, 21907, Note_on_c, 0, 81, 61
1, 21927, Note_off_c, 0, 83, 53
1, 21938, Note_off_c, 0, 81, 64
1, 21996, Note_on_c, 0, 64, 46
1, 21999, Note_on_c, 0, 69, 41
1, 22006, Note_on_c, 0, 81, 57
1, 22083, Note_on_c, 0, 79, 65
1, 22156, Note_on_c, 0, 78, 66
1, 22157, Note_on_c, 0, 66, 50
1, 22159, Note_off_c, 0, 64, 50
1, 22181, Note_off_c, 0, 81, 37
1, 22207, Note_off_c, 0, 69, 36
1, 22229, Note_off_c, 0, 79, 58
1, 22233, Note_on_c, 0, 76, 69
1, 22267, Note_off_c, 0, 78, 56
1, 22285, Note_off_c, 0, 66, 55
1, 22302, Note_off_c, 0, 76, 63
1, 22307, Note_on_c, 0, 67, 49
1, 22330, Note_on_c, 0, 74, 60
1, 22392, Note_off_c, 0, 74, 59
1, 22395, Note_on_c, 0, 73, 64
1, 22424, Note_off_c, 0, 73, 64
1, 22449, Note_off_c, 0, 67, 47
1, 22501, Note_on_c, 0, 69, 41
1, 22505, Note_on_c, 0, 73, 63
1, 22507, Note_on_c, 0, 66, 23
1, 22543, Note_off_c, 0, 73, 59
1, 22597, Note_on_c, 0, 74, 43
1, 22643, Note_off_c, 0, 74, 45
1, 22665, Note_on_c, 0, 73, 55
1, 22699, Note_off_c, 0, 69, 53
1, 22706, Note_off_c, 0, 73, 63
1, 22722, Note_off_c, 0, 66, 58
1, 22750, Note_on_c, 0, 74, 54
1, 22806, Note_off_c, 0, 74, 50
1, 22823, Note_on_c, 0, 79, 52
1, 22901, Note_on_c, 0, 78, 53
1, 22977, Note_on_c, 0, 61, 37
1, 22980, Note_on_c, 0, 75, 54
1, 22989, Note_on_c, 0, 69, 42
1, 22989, Note_off_c, 0, 79, 37
1, 23005, Note_off_c, 0, 78, 53
1, 23045, Note_off_c, 0, 75, 60
1, 23066, Note_on_c, 0, 76, 60
1, 23133, Note_off_c, 0, 76, 57
1, 23146, Note_on_c, 0, 75, 61
1, 23205, Note_off_c, 0, 75, 60
1, 23224, Note_on_c, 0, 76, 60
1, 23257, Note_off_c, 0, 69, 62
1, 23260, Note_off_c, 0, 61, 58
1, 23287, Note_on_c, 0, 81, 64
1, 23293, Note_off_c, 0, 76, 52
1, 23356, Note_on_c, 0, 79, 59
1, 23406, Note_off_c, 0, 81, 56
1, 23421, Note_off_c, 0, 79, 60
1, 23444, Note_on_c, 0, 77, 65
1, 23451, Note_on_c, 0, 69, 50
1, 23454, Note_on_c, 0, 62, 46
1, 23506, Note_off_c, 0, 77, 57
1, 23519, Note_on_c, 0, 78, 60
1, 23580, Note_off_c, 0, 78, 56
1, 23610, Note_on_c, 0, 77, 56
1, 23683, Note_off_c, 0, 77, 46
1, 23689, Note_on_c, 0, 78, 56
1, 23719, Note_off_c, 0, 69, 51
1, 23733, Note_off_c, 0, 62, 51
1, 23742, Note_off_c, 0, 78, 59
1, 23762, Note_on_c, 0, 83, 57
1, 23850, Note_on_c, 0, 81, 50
1, 23856, Note_off_c, 0, 83, 55
1, 23870, Note_off_c, 0, 81, 61
1, 23919, Note_on_c, 0, 64, 48
1, 23924, Note_on_c, 0, 69, 48
1, 23945, Note_on_c, 0, 81, 68
1, 24011, Note_on_c, 0, 79, 66
1, 24076, Note_off_c, 0, 81, 54
1, 24090, Note_on_c, 0, 78, 60
1, 24093, Note_on_c, 0, 66, 48
1, 24098, Note_off_c, 0, 64, 50
1, 24156, Note_off_c, 0, 79, 55
1, 24157, Note_on_c, 0, 76, 69
1, 24157, Note_off_c, 0, 69, 36
1, 24189, Note_off_c, 0, 78, 55
1, 24223, Note_off_c, 0, 66, 54
1, 24227, Note_off_c, 0, 76, 61
1, 24240, Note_on_c, 0, 67, 51
1, 24249, Note_on_c, 0, 74, 67
1, 24309, Note_off_c, 0, 74, 59
1, 24318, Note_on_c, 0, 73, 62
1, 24354, Note_off_c, 0, 73, 61
1, 24373, Note_off_c, 0, 67, 50
1, 24424, Note_on_c, 0, 66, 36
1, 24431, Note_on_c, 0, 69, 44
1, 24501, Note_on_c, 0, 74, 54
1, 24501, Control_c, 0, 64, 32
1, 24516, Control_c, 0, 64, 50
1, 24531, Control_c, 0, 64, 57
1, 24545, Control_c, 0, 64, 61
1, 24560, Control_c, 0, 64, 63
1, 24562, Note_off_c, 0, 74, 54
1, 24575, Control_c, 0, 64, 65
1, 24581, Note_on_c, 0, 78, 52
1, 24590, Control_c, 0, 64, 68
1, 24605, Control_c, 0, 64, 71
1, 24619, Control_c, 0, 64, 74
1, 24634, Control_c, 0, 64, 76
1, 24649, Control_c, 0, 64, 77
1, 24654, Note_on_c, 0, 81, 64
1, 24664, Control_c, 0, 64, 78
1, 24669, Note_off_c, 0, 78, 53
1, 24709, Control_c, 0, 64, 77
1, 24720, Note_off_c, 0, 81, 61
1, 24724, Control_c, 0, 64, 73
1, 24728, Note_off_c, 0, 66, 31
1, 24738, Note_off_c, 0, 69, 37
1, 24738, Control_c, 0, 64, 67
1, 24739, Note_on_c, 0, 67, 45
1, 24742, Note_on_c, 0, 86, 65
1, 24746, Note_on_c, 0, 64, 45
1, 24753, Control_c, 0, 64, 59
1, 24763, Note_off_c, 0, 67, 60
1, 24768, Control_c, 0, 64, 46
1, 24783, Note_off_c, 0, 64, 63
1, 24783, Control_c, 0, 64, 32
1, 24798, Control_c, 0, 64, 0
1, 24820, Note_on_c, 0, 85, 65
1, 24833, Note_off_c, 0, 86, 60
1, 24856, Note_off_c, 0, 85, 63
1, 24913, Note_on_c, 0, 61, 47
1, 24937, Note_off_c, 0, 61, 59
1, 24942, Note_on_c, 0, 66, 59
1, 24967, Note_on_c, 0, 62, 52
1, 24976, Control_c, 0, 64, 45
1, 24991, Control_c, 0, 64, 60
1, 25004, Note_on_c, 0, 71, 64
1, 25006, Control_c, 0, 64, 64
1, 25021, Control_c, 0, 64, 68
1, 25035, Control_c, 0, 64, 72
1, 25050, Control_c, 0, 64, 77
1, 25065, Control_c, 0, 64, 81
1, 25077, Note_off_c, 0, 71, 60
1, 25080, Control_c, 0, 64, 86
1, 25082, Note_on_c, 0, 74, 60
1, 25095, Control_c, 0, 64, 92
1, 25109, Control_c, 0, 64, 95
1, 25124, Control_c, 0, 64, 96
1, 25155, Note_on_c, 0, 78, 72
1, 25175, Note_off_c, 0, 74, 56
1, 25178, Note_off_c, 0, 66, 57
1, 25198, Control_c, 0, 64, 93
1, 25221, Control_c, 0, 64, 88
1, 25224, Note_on_c, 0, 64, 55
1, 25235, Note_off_c, 0, 78, 60
1, 25236, Control_c, 0, 64, 79
1, 25236, Note_on_c, 0, 61, 55
1, 25250, Control_c, 0, 64, 67
1, 25255, Note_off_c, 0, 62, 54
1, 25258, Note_on_c, 0, 83, 67
1, 25263, Note_off_c, 0, 64, 59
1, 25265, Control_c, 0, 64, 56
1, 25280, Control_c, 0, 64, 34
1, 25282, Note_off_c, 0, 61, 60
1, 25294, Control_c, 0, 64, 0
1, 25335, Note_on_c, 0, 81, 67
1, 25354, Note_off_c, 0, 83, 56
1, 25362, Note_off_c, 0, 81, 62
1, 25429, Note_on_c, 0, 59, 64
1, 25430, Note_on_c, 0, 62, 66
1, 25457, Control_c, 0, 64, 21
1, 25472, Control_c, 0, 64, 57
1, 25487, Control_c, 0, 64, 66
1, 25502, Control_c, 0, 64, 73
1, 25505, Note_on_c, 0, 67, 67
1, 25517, Control_c, 0, 64, 83
1, 25531, Control_c, 0, 64, 94
1, 25546, Control_c, 0, 64, 105
1, 25561, Control_c, 0, 64, 118
1, 25576, Control_c, 0, 64, 127
1, 25576, Note_off_c, 0, 67, 60
1, 25578, Note_on_c, 0, 71, 69
1, 25665, Note_on_c, 0, 74, 74
1, 25665, Control_c, 0, 64, 114
1, 25680, Control_c, 0, 64, 102
1, 25685, Note_off_c, 0, 71, 52
1, 25694, Control_c, 0, 64, 90
1, 25709, Control_c, 0, 64, 77
1, 25724, Control_c, 0, 64, 65
1, 25728, Note_off_c, 0, 62, 36
1, 25740, Note_off_c, 0, 59, 56
1, 25740, Control_c, 0, 64, 53
1, 25741, Note_on_c, 0, 61, 55
1, 25743, Note_on_c, 0, 57, 62
1, 25744, Note_off_c, 0, 74, 61
1, 25753, Note_on_c, 0, 79, 75
1, 25755, Control_c, 0, 64, 27
1, 25770, Control_c, 0, 64, 0
1, 25774, Note_off_c, 0, 61, 63
1, 25782, Note_off_c, 0, 57, 64
1, 25831, Note_off_c, 0, 79, 60
1, 25832, Note_on_c, 0, 78, 66
1, 25856, Note_off_c, 0, 78, 66
1, 25916, Note_on_c, 0, 55, 65
1, 25917, Control_c, 0, 64, 24
1, 25921, Note_on_c, 0, 59, 68
1, 25932, Control_c, 0, 64, 58
1, 25947, Control_c, 0, 64, 66
1, 25968, Note_off_c, 0, 55, 58
1, 25970, Control_c, 0, 64, 73
1, 25985, Control_c, 0, 64, 83
1, 25985, Note_off_c, 0, 59, 52
1, 25999, Control_c, 0, 64, 97
1, 26000, Note_on_c, 0, 64, 63
1, 26014, Control_c, 0, 64, 127
1, 26077, Note_off_c, 0, 64, 55
1, 26082, Note_on_c, 0, 67, 69
1, 26157, Note_off_c, 0, 67, 56
1, 26160, Note_on_c, 0, 71, 73
1, 26217, Note_on_c, 0, 56, 38
1, 26223, Note_off_c, 0, 71, 59
1, 26232, Note_on_c, 0, 59, 66
1, 26236, Control_c, 0, 64, 109
1, 26241, Note_on_c, 0, 76, 77
1, 26251, Control_c, 0, 64, 97
1, 26258, Note_off_c, 0, 56, 62
1, 26260, Note_off_c, 0, 59, 65
1, 26265, Control_c, 0, 64, 88
1, 26280, Control_c, 0, 64, 81
1, 26295, Control_c, 0, 64, 73
1, 26310, Note_on_c, 0, 74, 79
1, 26310, Control_c, 0, 64, 68
1, 26324, Control_c, 0, 64, 63
1, 26339, Control_c, 0, 64, 61
1, 26354, Control_c, 0, 64, 60
1, 26369, Control_c, 0, 64, 58
1, 26384, Control_c, 0, 64, 56
1, 26398, Note_on_c, 0, 57, 67
1, 26399, Control_c, 0, 64, 54
1, 26400, Note_on_c, 0, 73, 87
1, 26414, Control_c, 0, 64, 50
1, 26417, Note_off_c, 0, 76, 62
1, 26429, Control_c, 0, 64, 45
1, 26435, Note_off_c, 0, 74, 61
1, 26444, Control_c, 0, 64, 38
1, 26453, Note_off_c, 0, 73, 64
1, 26458, Control_c, 0, 64, 30
1, 26471, Note_on_c, 0, 64, 70
1, 26488, Control_c, 0, 64, 0
1, 26548, Note_off_c, 0, 64, 60
1, 26551, Note_on_c, 0, 61, 69
1, 26565, Note_on_c, 0, 81, 81
1, 26620, Note_off_c, 0, 57, 0
1, 26632, Note_off_c, 0, 61, 53
1, 26644, Note_off_c, 0, 81, 61
1, 26646, Note_on_c, 0, 64, 71
1, 26658, Poly_aftertouch_c, 0, 57, 127
1, 26729, Note_off_c, 0, 64, 61
1, 26735, Note_on_c, 0, 62, 71
1, 26735, Poly_aftertouch_c, 0, 57, 0
1, 26738, Note_on_c, 0, 78, 76
1, 26742, Note_on_c, 0, 74, 70
1, 26771, Note_off_c, 0, 74, 61
1, 26801, Note_off_c, 0, 62, 55
1, 26819, Note_off_c, 0, 78, 57
1, 26821, Note_on_c, 0, 66, 72
1, 26864, Note_off_c, 0, 66, 62
1, 26900, Note_on_c, 0, 73, 78
1, 26900, Note_on_c, 0, 76, 78
1, 26906, Note_on_c, 0, 57, 71
1, 26947, Note_off_c, 0, 73, 60
1, 26968, Note_off_c, 0, 76, 62
1, 26983, Note_on_c, 0, 64, 76
1, 27056, Note_on_c, 0, 81, 86
1, 27060, Note_off_c, 0, 64, 61
1, 27062, Note_on_c, 0, 61, 72
1, 27132, Note_off_c, 0, 81, 61
1, 27136, Note_off_c, 0, 61, 58
1, 27153, Note_on_c, 0, 64, 70
1, 27184, Note_off_c, 0, 57, 26
1, 27216, Note_on_c, 0, 74, 76
1, 27217, Note_off_c, 0, 64, 60
1, 27219, Note_on_c, 0, 62, 74
1, 27219, Note_on_c, 0, 78, 74
1, 27249, Note_off_c, 0, 74, 55
1, 27276, Note_off_c, 0, 62, 58
1, 27299, Note_on_c, 0, 66, 76
1, 27326, Note_off_c, 0, 66, 63
1, 27338, Note_off_c, 0, 78, 54
1, 27371, Control_c, 0, 64, 34
1, 27385, Note_on_c, 0, 64, 81
1, 27386, Note_on_c, 0, 76, 80
1, 27386, Note_on_c, 0, 73, 81
1, 27386, Control_c, 0, 64, 58
1, 27394, Note_on_c, 0, 57, 74
1, 27401, Control_c, 0, 64, 67
1, 27416, Control_c, 0, 64, 75
1, 27430, Control_c, 0, 64, 88
1, 27445, Control_c, 0, 64, 106
1, 27468, Control_c, 0, 64, 127
1, 27485, Note_off_c, 0, 73, 60
1, 27527, Control_c, 0, 64, 112
1, 27542, Control_c, 0, 64, 97
1, 27549, Note_off_c, 0, 64, 59
1, 27556, Note_on_c, 0, 81, 76
1, 27557, Control_c, 0, 64, 84
1, 27571, Control_c, 0, 64, 70
1, 27573, Note_off_c, 0, 76, 62
1, 27577, Note_off_c, 0, 57, 61
1, 27586, Control_c, 0, 64, 59
1, 27601, Control_c, 0, 64, 42
1, 27609, Note_off_c, 0, 81, 62
1, 27616, Control_c, 0, 64, 0
1, 27722, Note_on_c, 0, 69, 71
1, 27725, Note_on_c, 0, 45, 69
1, 27728, Note_on_c, 0, 57, 64
1, 27749, Note_off_c, 0, 57, 65
1, 27751, Note_off_c, 0, 69, 63
1, 27755, Note_off_c, 0, 45, 63
1, 27928, Note_on_c, 0, 57, 31
1, 27934, Note_on_c, 0, 45, 41
1, 27937, Note_on_c, 0, 69, 46
1, 28140, Note_off_c, 0, 45, 59
1, 28153, Note_on_c, 0, 49, 10
1, 28157, Note_off_c, 0, 69, 53
1, 28190, Note_off_c, 0, 49, 46
1, 28190, Note_off_c, 0, 57, 61
1, 28310, Note_on_c, 0, 76, 61
1, 28348, Note_off_c, 0, 76, 61
1, 28471, Note_on_c, 0, 81, 67
1, 28517, Note_on_c, 0, 64, 10
1, 28533, Note_off_c, 0, 81, 51
1, 28560, Note_off_c, 0, 64, 38
1, 28633, Note_on_c, 0, 76, 74
1, 28639, Note_on_c, 0, 69, 72
1, 28678, Note_off_c, 0, 69, 57
1, 28694, Note_off_c, 0, 76, 62
1, 28796, Note_on_c, 0, 64, 63
1, 28797, Note_on_c, 0, 81, 76
1, 28858, Note_off_c, 0, 81, 61
1, 28859, Note_off_c, 0, 64, 58
1, 28967, Note_on_c, 0, 85, 77
1, 28969, Note_on_c, 0, 69, 70
1, 28994, Note_off_c, 0, 69, 67
1, 29027, Note_off_c, 0, 85, 64
1, 29129, Note_on_c, 0, 81, 76
1, 29132, Note_on_c, 0, 73, 62
1, 29151, Note_off_c, 0, 73, 63
1, 29192, Note_off_c, 0, 81, 61
1, 29277, Note_on_c, 0, 69, 70
1, 29284, Note_on_c, 0, 85, 74
1, 29308, Note_off_c, 0, 69, 60
1, 29343, Note_off_c, 0, 85, 63
1, 29441, Note_on_c, 0, 88, 56
1, 29443, Note_on_c, 0, 73, 59
1, 29516, Note_on_c, 0, 86, 61
1, 29565, Note_off_c, 0, 73, 58
1, 29600, Note_on_c, 0, 85, 66
1, 29606, Note_on_c, 0, 76, 63
1, 29607, Note_off_c, 0, 88, 49
1, 29617, Note_off_c, 0, 86, 54
1, 29670, Note_off_c, 0, 85, 62
1, 29672, Note_on_c, 0, 74, 69
1, 29673, Note_on_c, 0, 83, 68
1, 29678, Note_off_c, 0, 76, 60
1, 29754, Note_on_c, 0, 73, 70
1, 29762, Note_off_c, 0, 83, 60
1, 29763, Note_off_c, 0, 74, 61
1, 29764, Note_on_c, 0, 82, 73
1, 29775, Note_off_c, 0, 73, 68
1, 29833, Note_on_c, 0, 80, 75
1, 29838, Note_on_c, 0, 71, 70
1, 29910, Note_off_c, 0, 71, 59
1, 29911, Note_on_c, 0, 70, 73
1, 29915, Note_on_c, 0, 78, 76
1, 29960, Note_off_c, 0, 80, 59
1, 29970, Note_off_c, 0, 82, 50
1, 29995, Note_on_c, 0, 68, 68
1, 29999, Note_on_c, 0, 76, 71
1, 30000, Note_off_c, 0, 78, 59
1, 30004, Note_off_c, 0, 70, 60
1, 30069, Note_on_c, 0, 74, 75
1, 30071, Note_on_c, 0, 66, 65
1, 30075, Note_off_c, 0, 68, 58
1, 30092, Note_off_c, 0, 66, 68
1, 30134, Note_on_c, 0, 73, 78
1, 30152, Note_on_c, 0, 64, 69
1, 30161, Note_off_c, 0, 76, 24
1, 30174, Note_off_c, 0, 74, 60
1, 30212, Note_off_c, 0, 73, 62
1, 30216, Note_on_c, 0, 71, 70
1, 30219, Note_on_c, 0, 62, 70
1, 30219, Note_off_c, 0, 64, 58
1, 30283, Note_off_c, 0, 62, 56
1, 30288, Note_on_c, 0, 61, 65
1, 30292, Note_off_c, 0, 71, 61
1, 30295, Note_on_c, 0, 70, 69
1, 30314, Note_off_c, 0, 61, 67
1, 30362, Note_on_c, 0, 59, 71
1, 30363, Note_on_c, 0, 71, 64
1, 30364, Note_off_c, 0, 70, 59
1, 30432, Note_off_c, 0, 59, 56
1, 30439, Note_on_c, 0, 58, 64
1, 30521, Note_off_c, 0, 71, 56
1, 30526, Note_off_c, 0, 58, 59
1, 30533, Note_on_c, 0, 66, 67
1, 30545, Note_on_c, 0, 59, 55
1, 30575, Note_off_c, 0, 66, 63
1, 30579, Note_off_c, 0, 59, 63
1, 30697, Note_on_c, 0, 71, 60
1, 30706, Note_on_c, 0, 54, 60
1, 30746, Note_off_c, 0, 54, 64
1, 30746, Note_off_c, 0, 71, 54
1, 30869, Note_on_c, 0, 74, 60
1, 30878, Note_on_c, 0, 59, 64
1, 30908, Note_off_c, 0, 59, 63
1, 30927, Note_off_c, 0, 74, 57
1, 31040, Note_on_c, 0, 71, 61
1, 31042, Note_on_c, 0, 62, 61
1, 31074, Note_off_c, 0, 62, 62
1, 31076, Note_off_c, 0, 71, 58
1, 31190, Note_on_c, 0, 74, 65
1, 31191, Note_on_c, 0, 59, 58
1, 31222, Note_off_c, 0, 59, 61
1, 31248, Note_off_c, 0, 74, 50
1, 31356, Note_on_c, 0, 62, 57
1, 31357, Note_on_c, 0, 78, 51
1, 31441, Note_on_c, 0, 76, 60
1, 31474, Note_off_c, 0, 78, 52
1, 31484, Note_off_c, 0, 62, 57
1, 31503, Note_off_c, 0, 76, 56
1, 31521, Note_on_c, 0, 66, 57
1, 31521, Note_on_c, 0, 74, 62
1, 31541, Note_off_c, 0, 66, 63
1, 31587, Note_off_c, 0, 74, 54
1, 31593, Note_on_c, 0, 73, 68
1, 31612, Note_on_c, 0, 64, 58
1, 31679, Note_off_c, 0, 73, 56
1, 31681, Note_on_c, 0, 71, 63
1, 31686, Note_on_c, 0, 62, 61
1, 31687, Note_off_c, 0, 64, 54
1, 31738, Note_off_c, 0, 62, 58
1, 31751, Note_on_c, 0, 61, 58
1, 31756, Note_on_c, 0, 70, 67
1, 31770, Note_off_c, 0, 71, 51
1, 31782, Note_off_c, 0, 61, 65
1, 31826, Note_on_c, 0, 74, 70
1, 31829, Note_on_c, 0, 59, 70
1, 31833, Note_off_c, 0, 70, 59
1, 31875, Note_off_c, 0, 59, 57
1, 31902, Note_on_c, 0, 73, 69
1, 31902, Note_on_c, 0, 58, 65
1, 31933, Note_off_c, 0, 58, 64
1, 31988, Note_on_c, 0, 71, 73
1, 32005, Note_off_c, 0, 74, 36
1, 32006, Note_on_c, 0, 62, 68
1, 32030, Note_off_c, 0, 73, 59
1, 32053, Note_off_c, 0, 71, 57
1, 32055, Note_off_c, 0, 62, 60
1, 32062, Note_on_c, 0, 61, 67
1, 32069, Note_on_c, 0, 69, 66
1, 32086, Note_off_c, 0, 61, 67
1, 32148, Note_on_c, 0, 68, 71
1, 32163, Note_on_c, 0, 59, 64
1, 32164, Note_off_c, 0, 69, 43
1, 32223, Note_off_c, 0, 59, 58
1, 32230, Note_on_c, 0, 57, 53
1, 32233, Note_on_c, 0, 66, 71
1, 32310, Note_off_c, 0, 57, 59
1, 32315, Note_on_c, 0, 56, 62
1, 32318, Note_on_c, 0, 64, 69
1, 32346, Note_off_c, 0, 68, 33
1, 32355, Note_off_c, 0, 66, 56
1, 32382, Note_on_c, 0, 54, 68
1, 32382, Note_off_c, 0, 56, 61
1, 32430, Note_off_c, 0, 54, 60
1, 32477, Note_on_c, 0, 52, 74
1, 32487, Note_on_c, 0, 59, 66
1, 32519, Note_off_c, 0, 52, 58
1, 32521, Note_off_c, 0, 64, 57
1, 32539, Note_off_c, 0, 59, 55
1, 32654, Note_on_c, 0, 64, 61
1, 32655, Note_on_c, 0, 47, 57
1, 32689, Note_off_c, 0, 47, 63
1, 32712, Note_off_c, 0, 64, 58
1, 32822, Note_on_c, 0, 68, 61
1, 32825, Note_on_c, 0, 52, 60
1, 32858, Note_off_c, 0, 52, 62
1, 32879, Note_off_c, 0, 68, 54
1, 32993, Note_on_c, 0, 64, 53
1, 32998, Note_on_c, 0, 56, 58
1, 33031, Note_off_c, 0, 56, 64
1, 33036, Note_off_c, 0, 64, 56
1, 33148, Note_on_c, 0, 68, 56
1, 33149, Note_on_c, 0, 52, 51
1, 33177, Note_off_c, 0, 52, 59
1, 33191, Note_off_c, 0, 68, 53
1, 33324, Note_on_c, 0, 56, 47
1, 33329, Note_on_c, 0, 71, 43
1, 33397, Note_on_c, 0, 73, 52
1, 33421, Note_off_c, 0, 71, 36
1, 33458, Note_off_c, 0, 56, 59
1, 33471, Note_off_c, 0, 73, 60
1, 33482, Note_on_c, 0, 74, 66
1, 33499, Note_on_c, 0, 59, 51
1, 33564, Note_off_c, 0, 59, 49
1, 33577, Note_on_c, 0, 73, 67
1, 33591, Note_on_c, 0, 61, 47
1, 33640, Note_off_c, 0, 61, 57
1, 33647, Note_off_c, 0, 74, 44
1, 33652, Note_on_c, 0, 71, 64
1, 33663, Note_on_c, 0, 62, 62
1, 33696, Note_off_c, 0, 73, 60
1, 33730, Note_off_c, 0, 71, 61
1, 33739, Note_on_c, 0, 69, 67
1, 33748, Note_on_c, 0, 61, 64
1, 33753, Note_off_c, 0, 62, 56
1, 33774, Note_off_c, 0, 61, 66
1, 33813, Note_off_c, 0, 69, 62
1, 33819, Note_on_c, 0, 68, 63
1, 33834, Note_on_c, 0, 59, 64
1, 33901, Note_on_c, 0, 66, 62
1, 33914, Note_off_c, 0, 59, 59
1, 33916, Note_on_c, 0, 57, 63
1, 33920, Note_off_c, 0, 68, 46
1, 33976, Note_off_c, 0, 66, 59
1, 33979, Note_on_c, 0, 64, 59
1, 33993, Note_off_c, 0, 57, 61
1, 34000, Note_on_c, 0, 56, 52
1, 34042, Note_off_c, 0, 56, 61
1, 34049, Note_off_c, 0, 64, 55
1, 34058, Note_on_c, 0, 66, 52
1, 34061, Note_on_c, 0, 54, 55
1, 34134, Note_off_c, 0, 66, 59
1, 34138, Note_on_c, 0, 56, 49
1, 34142, Note_on_c, 0, 62, 60
1, 34191, Note_off_c, 0, 56, 59
1, 34193, Note_off_c, 0, 54, 35
1, 34222, Note_off_c, 0, 62, 56
1, 34230, Note_on_c, 0, 64, 50
1, 34245, Note_on_c, 0, 52, 44
1, 34312, Note_off_c, 0, 64, 51
1, 34328, Note_on_c, 0, 57, 32
1, 34360, Note_on_c, 0, 61, 50
1, 34418, Note_off_c, 0, 52, 35
1, 34435, Note_off_c, 0, 61, 52
1, 34454, Note_on_c, 0, 64, 43
1, 34502, Note_off_c, 0, 64, 60
1, 34556, Note_on_c, 0, 63, 43
1, 34615, Note_off_c, 0, 63, 48
1, 34633, Note_on_c, 0, 64, 47
1, 34655, Note_off_c, 0, 57, 62
1, 34712, Note_on_c, 0, 66, 49
1, 34722, Note_off_c, 0, 64, 52
1, 34781, Note_on_c, 0, 64, 38
1, 34791, Note_off_c, 0, 66, 58
1, 34873, Note_off_c, 0, 64, 55
1, 34878, Note_on_c, 0, 57, 19
1, 34888, Note_on_c, 0, 61, 34
1, 34894, Note_on_c, 0, 69, 57
1, 34998, Note_off_c, 0, 69, 60
1, 35004, Note_on_c, 0, 64, 43
1, 35055, Note_off_c, 0, 64, 54
1, 35068, Note_on_c, 0, 63, 53
1, 35147, Note_on_c, 0, 64, 53
1, 35206, Note_off_c, 0, 63, 45
1, 35212, Note_off_c, 0, 61, 58
1, 35223, Note_on_c, 0, 66, 60
1, 35226, Note_off_c, 0, 64, 59
1, 35300, Note_on_c, 0, 64, 51
1, 35358, Note_off_c, 0, 66, 55
1, 35381, Note_off_c, 0, 64, 59
1, 35399, Note_on_c, 0, 56, 39
1, 35405, Note_on_c, 0, 59, 67
1, 35413, Note_off_c, 0, 57, 49
1, 35476, Note_off_c, 0, 59, 58
1, 35503, Note_on_c, 0, 64, 55
1, 35556, Note_off_c, 0, 64, 57
1, 35592, Note_on_c, 0, 63, 46
1, 35654, Note_on_c, 0, 64, 50
1, 35744, Note_on_c, 0, 57, 41
1, 35744, Note_off_c, 0, 63, 41
1, 35746, Note_off_c, 0, 64, 58
1, 35751, Note_on_c, 0, 61, 69
1, 35836, Note_on_c, 0, 64, 55
1, 35842, Note_off_c, 0, 61, 56
1, 35887, Note_off_c, 0, 57, 55
1, 35891, Note_off_c, 0, 56, 35
1, 35899, Note_off_c, 0, 64, 57
1, 35926, Note_on_c, 0, 59, 54
1, 35926, Note_on_c, 0, 62, 74
1, 35994, Note_off_c, 0, 62, 52
1, 36003, Note_on_c, 0, 64, 57
1, 36073, Note_off_c, 0, 59, 55
1, 36075, Note_off_c, 0, 64, 54
1, 36090, Note_on_c, 0, 61, 62
1, 36096, Note_on_c, 0, 57, 38
1, 36173, Note_on_c, 0, 64, 48
1, 36179, Note_off_c, 0, 61, 52
1, 36234, Note_off_c, 0, 64, 51
1, 36264, Note_off_c, 0, 57, 48
1, 36267, Note_on_c, 0, 59, 61
1, 36279, Note_on_c, 0, 56, 44
1, 36321, Note_off_c, 0, 59, 57
1, 36339, Note_on_c, 0, 64, 55
1, 36414, Note_off_c, 0, 64, 56
1, 36424, Note_off_c, 0, 56, 58
1, 36449, Note_on_c, 0, 57, 40
1, 36455, Note_on_c, 0, 61, 64
1, 36516, Note_off_c, 0, 61, 57
1, 36532, Note_on_c, 0, 64, 52
1, 36583, Note_off_c, 0, 64, 58
1, 36641, Note_on_c, 0, 63, 41
1, 36701, Note_off_c, 0, 63, 47
1, 36710, Note_on_c, 0, 64, 48
1, 36781, Note_off_c, 0, 57, 62
1, 36792, Note_on_c, 0, 66, 49
1, 36799, Note_off_c, 0, 64, 56
1, 36864, Note_on_c, 0, 64, 47
1, 36868, Note_off_c, 0, 66, 54
1, 36941, Note_off_c, 0, 64, 53
1, 36960, Note_on_c, 0, 57, 34
1, 36960, Note_on_c, 0, 69, 72
1, 36963, Note_on_c, 0, 61, 43
1, 37060, Note_off_c, 0, 69, 61
1, 37065, Note_on_c, 0, 64, 51
1, 37132, Note_off_c, 0, 64, 51
1, 37142, Note_on_c, 0, 63, 48
1, 37225, Note_on_c, 0, 64, 45
1, 37234, Note_off_c, 0, 63, 50
1, 37273, Note_off_c, 0, 61, 51
1, 37291, Note_off_c, 0, 64, 57
1, 37310, Note_on_c, 0, 66, 46
1, 37392, Note_on_c, 0, 64, 51
1, 37449, Note_off_c, 0, 64, 58
1, 37457, Note_off_c, 0, 66, 37
1, 37476, Note_on_c, 0, 56, 43
1, 37479, Note_on_c, 0, 59, 65
1, 37495, Note_off_c, 0, 57, 41
1, 37552, Note_off_c, 0, 59, 57
1, 37568, Note_on_c, 0, 64, 59
1, 37641, Note_off_c, 0, 64, 53
1, 37670, Note_on_c, 0, 63, 47
1, 37736, Note_on_c, 0, 64, 50
1, 37812, Note_off_c, 0, 63, 46
1, 37819, Note_off_c, 0, 64, 59
1, 37824, Note_on_c, 0, 57, 42
1, 37827, Note_on_c, 0, 61, 71
1, 37907, Note_on_c, 0, 64, 60
1, 37916, Note_off_c, 0, 61, 58
1, 37968, Note_off_c, 0, 57, 54
1, 37977, Note_off_c, 0, 56, 37
1, 37985, Note_off_c, 0, 64, 54
1, 38006, Note_on_c, 0, 62, 76
1, 38012, Note_on_c, 0, 59, 51
1, 38078, Note_off_c, 0, 62, 52
1, 38080, Note_on_c, 0, 64, 56
1, 38149, Note_off_c, 0, 64, 57
1, 38169, Note_on_c, 0, 61, 58
1, 38170, Note_off_c, 0, 59, 53
1, 38172, Note_on_c, 0, 57, 41
1, 38242, Note_on_c, 0, 64, 49
1, 38249, Note_off_c, 0, 61, 54
1, 38290, Note_off_c, 0, 64, 58
1, 38325, Note_off_c, 0, 57, 48
1, 38337, Note_on_c, 0, 56, 47
1, 38338, Note_on_c, 0, 59, 50
1, 38373, Note_off_c, 0, 56, 63
1, 38391, Note_off_c, 0, 59, 56
1, 38419, Note_on_c, 0, 64, 47
1, 38504, Note_on_c, 0, 57, 46
1, 38528, Control_c, 0, 64, 23
1, 38532, Note_off_c, 0, 64, 56
1, 38543, Control_c, 0, 64, 45
1, 38551, Note_on_c, 0, 61, 57
1, 38558, Control_c, 0, 64, 56
1, 38573, Control_c, 0, 64, 62
1, 38588, Control_c, 0, 64, 65
1, 38603, Control_c, 0, 64, 68
1, 38618, Control_c, 0, 64, 71
1, 38632, Control_c, 0, 64, 75
1, 38635, Note_off_c, 0, 57, 60
1, 38646, Note_off_c, 0, 61, 60
1, 38647, Control_c, 0, 64, 79
1, 38653, Note_on_c, 0, 64, 62
1, 38662, Control_c, 0, 64, 82
1, 38672, Note_off_c, 0, 64, 62
1, 38677, Control_c, 0, 64, 85
1, 38699, Control_c, 0, 64, 87
1, 38714, Control_c, 0, 64, 88
1, 38728, Control_c, 0, 64, 89
1, 38743, Control_c, 0, 64, 91
1, 38749, Note_on_c, 0, 69, 70
1, 38758, Control_c, 0, 64, 92
1, 38773, Control_c, 0, 64, 94
1, 38787, Note_off_c, 0, 69, 56
1, 38787, Control_c, 0, 64, 97
1, 38802, Control_c, 0, 64, 98
1, 38822, Note_on_c, 0, 73, 69
1, 38832, Control_c, 0, 64, 98
1, 38889, Note_on_c, 0, 76, 68
1, 38905, Note_off_c, 0, 73, 61
1, 38921, Control_c, 0, 64, 97
1, 38936, Control_c, 0, 64, 94
1, 38951, Control_c, 0, 64, 88
1, 38953, Note_off_c, 0, 76, 60
1, 38965, Control_c, 0, 64, 80
1, 38966, Note_on_c, 0, 61, 53
1, 38975, Note_on_c, 0, 81, 68
1, 38980, Control_c, 0, 64, 69
1, 38987, Note_on_c, 0, 57, 42
1, 38995, Control_c, 0, 64, 61
1, 39010, Control_c, 0, 64, 52
1, 39025, Control_c, 0, 64, 46
1, 39039, Control_c, 0, 64, 39
1, 39054, Control_c, 0, 64, 34
1, 39059, Note_on_c, 0, 80, 70
1, 39069, Control_c, 0, 64, 34
1, 39080, Note_off_c, 0, 61, 53
1, 39124, Note_on_c, 0, 59, 44
1, 39127, Note_on_c, 0, 62, 51
1, 39134, Note_on_c, 0, 78, 75
1, 39161, Note_off_c, 0, 81, 55
1, 39193, Note_off_c, 0, 57, 35
1, 39211, Note_on_c, 0, 76, 74
1, 39222, Note_off_c, 0, 80, 58
1, 39232, Control_c, 0, 64, 33
1, 39247, Control_c, 0, 64, 33
1, 39254, Note_off_c, 0, 78, 57
1, 39261, Control_c, 0, 64, 32
1, 39276, Note_off_c, 0, 76, 62
1, 39276, Control_c, 0, 64, 31
1, 39286, Note_on_c, 0, 64, 51
1, 39286, Note_on_c, 0, 74, 73
1, 39291, Control_c, 0, 64, 31
1, 39295, Note_off_c, 0, 62, 34
1, 39302, Note_off_c, 0, 59, 50
1, 39303, Note_on_c, 0, 61, 45
1, 39306, Control_c, 0, 64, 30
1, 39327, Note_off_c, 0, 64, 60
1, 39334, Note_off_c, 0, 61, 54
1, 39336, Control_c, 0, 64, 29
1, 39351, Control_c, 0, 64, 28
1, 39360, Note_off_c, 0, 74, 59
1, 39366, Control_c, 0, 64, 27
1, 39371, Note_on_c, 0, 73, 62
1, 39381, Control_c, 0, 64, 23
1, 39395, Control_c, 0, 64, 16
1, 39410, Control_c, 0, 64, 0
1, 39464, Note_on_c, 0, 62, 45
1, 39473, Note_on_c, 0, 66, 53
1, 39551, Control_c, 0, 64, 33
1, 39557, Note_on_c, 0, 70, 59
1, 39566, Control_c, 0, 64, 52
1, 39580, Control_c, 0, 64, 61
1, 39591, Note_off_c, 0, 73, 53
1, 39595, Control_c, 0, 64, 65
1, 39610, Control_c, 0, 64, 68
1, 39621, Note_off_c, 0, 70, 54
1, 39625, Control_c, 0, 64, 71
1, 39628, Note_on_c, 0, 71, 67
1, 39640, Control_c, 0, 64, 75
1, 39655, Control_c, 0, 64, 79
1, 39660, Note_off_c, 0, 62, 51
1, 39669, Control_c, 0, 64, 82
1, 39684, Control_c, 0, 64, 85
1, 39698, Note_off_c, 0, 71, 58
1, 39699, Control_c, 0, 64, 88
1, 39712, Note_on_c, 0, 73, 68
1, 39713, Note_off_c, 0, 66, 36
1, 39714, Control_c, 0, 64, 89
1, 39729, Control_c, 0, 64, 90
1, 39744, Note_off_c, 0, 73, 62
1, 39796, Note_on_c, 0, 74, 72
1, 39863, Note_on_c, 0, 76, 67
1, 39870, Note_off_c, 0, 74, 56
1, 39891, Control_c, 0, 64, 89
1, 39906, Control_c, 0, 64, 88
1, 39920, Control_c, 0, 64, 85
1, 39935, Control_c, 0, 64, 80
1, 39936, Note_off_c, 0, 76, 61
1, 39938, Note_on_c, 0, 59, 50
1, 39939, Note_on_c, 0, 62, 55
1, 39942, Note_on_c, 0, 78, 69
1, 39950, Control_c, 0, 64, 72
1, 39965, Control_c, 0, 64, 64
1, 39980, Control_c, 0, 64, 57
1, 39995, Control_c, 0, 64, 50
1, 40010, Control_c, 0, 64, 46
1, 40025, Note_on_c, 0, 76, 64
1, 40025, Control_c, 0, 64, 44
1, 40050, Note_off_c, 0, 78, 46
1, 40064, Note_off_c, 0, 62, 57
1, 40075, Note_off_c, 0, 76, 59
1, 40094, Note_on_c, 0, 74, 72
1, 40099, Note_on_c, 0, 64, 54
1, 40115, Control_c, 0, 64, 43
1, 40120, Note_on_c, 0, 61, 43
1, 40126, Note_off_c, 0, 59, 39
1, 40170, Note_on_c, 0, 73, 71
1, 40170, Note_off_c, 0, 74, 60
1, 40174, Control_c, 0, 64, 43
1, 40212, Control_c, 0, 64, 42
1, 40226, Control_c, 0, 64, 40
1, 40239, Note_off_c, 0, 64, 47
1, 40241, Control_c, 0, 64, 36
1, 40256, Note_on_c, 0, 62, 53
1, 40256, Control_c, 0, 64, 26
1, 40261, Note_on_c, 0, 66, 57
1, 40268, Note_on_c, 0, 71, 69
1, 40271, Control_c, 0, 64, 0
1, 40282, Note_off_c, 0, 61, 57
1, 40290, Note_off_c, 0, 62, 63
1, 40291, Note_off_c, 0, 66, 65
1, 40345, Note_on_c, 0, 69, 69
1, 40379, Note_off_c, 0, 71, 57
1, 40395, Note_off_c, 0, 73, 50
1, 40404, Control_c, 0, 64, 42
1, 40418, Control_c, 0, 64, 56
1, 40423, Note_off_c, 0, 69, 60
1, 40425, Note_on_c, 0, 52, 60
1, 40433, Note_on_c, 0, 64, 68
1, 40433, Control_c, 0, 64, 62
1, 40448, Control_c, 0, 64, 65
1, 40463, Control_c, 0, 64, 67
1, 40478, Control_c, 0, 64, 69
1, 40481, Note_off_c, 0, 64, 60
1, 40493, Control_c, 0, 64, 71
1, 40507, Note_on_c, 0, 73, 68
1, 40507, Control_c, 0, 64, 73
1, 40522, Control_c, 0, 64, 73
1, 40537, Control_c, 0, 64, 74
1, 40540, Note_off_c, 0, 73, 60
1, 40585, Note_on_c, 0, 57, 53
1, 40593, Note_on_c, 0, 61, 55
1, 40601, Note_on_c, 0, 69, 68
1, 40611, Control_c, 0, 64, 74
1, 40615, Note_off_c, 0, 61, 60
1, 40652, Note_off_c, 0, 57, 55
1, 40666, Note_off_c, 0, 69, 55
1, 40667, Note_on_c, 0, 76, 71
1, 40730, Control_c, 0, 64, 74
1, 40744, Control_c, 0, 64, 73
1, 40746, Note_on_c, 0, 73, 79
1, 40748, Note_off_c, 0, 76, 61
1, 40749, Note_on_c, 0, 61, 45
1, 40751, Note_on_c, 0, 57, 51
1, 40757, Note_off_c, 0, 52, 56
1, 40759, Control_c, 0, 64, 72
1, 40774, Control_c, 0, 64, 70
1, 40782, Note_off_c, 0, 61, 64
1, 40786, Note_off_c, 0, 57, 63
1, 40789, Control_c, 0, 64, 67
1, 40804, Control_c, 0, 64, 63
1, 40814, Note_off_c, 0, 73, 61
1, 40818, Control_c, 0, 64, 59
1, 40825, Note_on_c, 0, 81, 66
1, 40833, Control_c, 0, 64, 56
1, 40848, Control_c, 0, 64, 51
1, 40863, Control_c, 0, 64, 46
1, 40878, Control_c, 0, 64, 38
1, 40880, Note_off_c, 0, 81, 42
1, 40892, Control_c, 0, 64, 28
1, 40905, Note_on_c, 0, 52, 49
1, 40907, Control_c, 0, 64, 0
1, 40929, Note_on_c, 0, 73, 54
1, 40958, Note_off_c, 0, 73, 62
1, 40992, Note_on_c, 0, 71, 67
1, 41044, Note_off_c, 0, 71, 61
1, 41048, Note_on_c, 0, 73, 71
1, 41049, Control_c, 0, 64, 23
1, 41064, Control_c, 0, 64, 46
1, 41079, Note_on_c, 0, 56, 48
1, 41079, Control_c, 0, 64, 57
1, 41083, Note_on_c, 0, 62, 37
1, 41094, Control_c, 0, 64, 62
1, 41098, Note_off_c, 0, 73, 59
1, 41108, Note_on_c, 0, 71, 70
1, 41109, Control_c, 0, 64, 64
1, 41115, Note_off_c, 0, 62, 54
1, 41123, Control_c, 0, 64, 66
1, 41130, Note_off_c, 0, 56, 57
1, 41138, Control_c, 0, 64, 67
1, 41153, Control_c, 0, 64, 68
1, 41156, Note_off_c, 0, 71, 63
1, 41165, Note_on_c, 0, 73, 63
1, 41167, Control_c, 0, 64, 69
1, 41182, Control_c, 0, 64, 70
1, 41196, Note_off_c, 0, 73, 65
1, 41197, Control_c, 0, 64, 72
1, 41212, Control_c, 0, 64, 74
1, 41214, Note_on_c, 0, 71, 67
1, 41227, Control_c, 0, 64, 77
1, 41241, Control_c, 0, 64, 78
1, 41256, Control_c, 0, 64, 80
1, 41259, Note_off_c, 0, 71, 64
1, 41261, Note_on_c, 0, 73, 75
1, 41271, Control_c, 0, 64, 80
1, 41286, Control_c, 0, 64, 81
1, 41297, Note_on_c, 0, 62, 46
1, 41315, Note_on_c, 0, 71, 70
1, 41320, Note_on_c, 0, 56, 48
1, 41328, Note_off_c, 0, 73, 61
1, 41342, Note_off_c, 0, 62, 59
1, 41390, Control_c, 0, 64, 80
1, 41402, Note_on_c, 0, 69, 73
1, 41405, Control_c, 0, 64, 77
1, 41408, Note_off_c, 0, 71, 60
1, 41417, Note_off_c, 0, 52, 47
1, 41420, Control_c, 0, 64, 69
1, 41429, Note_off_c, 0, 56, 51
1, 41435, Control_c, 0, 64, 55
1, 41443, Note_off_c, 0, 69, 64
1, 41446, Note_on_c, 0, 71, 50
1, 41449, Control_c, 0, 64, 30
1, 41464, Control_c, 0, 64, 0
1, 41494, Control_c, 0, 64, 28
1, 41507, Note_on_c, 0, 69, 78
1, 41508, Control_c, 0, 64, 51
1, 41509, Note_on_c, 0, 61, 61
1, 41512, Note_on_c, 0, 57, 59
1, 41520, Note_off_c, 0, 71, 61
1, 41523, Control_c, 0, 64, 62
1, 41538, Control_c, 0, 64, 68
1, 41539, Note_off_c, 0, 61, 64
1, 41541, Note_off_c, 0, 57, 65
1, 41553, Control_c, 0, 64, 72
1, 41566, Note_off_c, 0, 69, 63
1, 41567, Control_c, 0, 64, 76
1, 41582, Control_c, 0, 64, 79
1, 41597, Control_c, 0, 64, 81
1, 41612, Control_c, 0, 64, 81
1, 41708, Control_c, 0, 64, 81
1, 41724, Control_c, 0, 64, 78
1, 41736, Note_on_c, 0, 45, 66
1, 41739, Note_on_c, 0, 57, 69
1, 41739, Control_c, 0, 64, 71
1, 41753, Control_c, 0, 64, 63
1, 41763, Note_off_c, 0, 45, 64
1, 41763, Note_off_c, 0, 57, 66
1, 41768, Control_c, 0, 64, 55
1, 41783, Control_c, 0, 64, 44
1, 41798, Control_c, 0, 64, 32
1, 41828, Control_c, 0, 64, 0
1, 41920, Note_on_c, 0, 45, 57
1, 41921, Note_on_c, 0, 57, 58
1, 41950, Note_off_c, 0, 45, 59
1, 41950, Note_off_c, 0, 57, 65
1, 42150, Note_on_c, 0, 57, 34
1, 42156, Note_on_c, 0, 45, 33
1, 42446, Note_off_c, 0, 57, 49
1, 42460, Note_off_c, 0, 45, 52
1, 42841, Note_on_c, 0, 73, 41
1, 43068, Note_on_c, 0, 74, 40
1, 43071, Note_off_c, 0, 73, 36
1, 43416, Note_on_c, 0, 76, 50
1, 43517, Note_off_c, 0, 74, 41
1, 43578, Note_off_c, 0, 76, 57
1, 43584, Note_on_c, 0, 78, 57
1, 43754, Note_on_c, 0, 76, 55
1, 43775, Note_off_c, 0, 78, 49
1, 43803, Note_off_c, 0, 76, 58
1, 43822, Note_on_c, 0, 74, 66
1, 43900, Note_off_c, 0, 74, 37
1, 43903, Note_on_c, 0, 73, 58
1, 43983, Note_on_c, 0, 71, 51
1, 43989, Note_off_c, 0, 73, 52
1, 44093, Note_off_c, 0, 71, 37
1, 44096, Note_on_c, 0, 62, 24
1, 44099, Note_on_c, 0, 59, 31
1, 44101, Note_on_c, 0, 52, 32
1, 44101, Note_on_c, 0, 69, 47
1, 44222, Control_c, 0, 64, 28
1, 44237, Control_c, 0, 64, 47
1, 44252, Control_c, 0, 64, 56
1, 44266, Control_c, 0, 64, 61
1, 44281, Control_c, 0, 64, 63
1, 44296, Control_c, 0, 64, 65
1, 44311, Control_c, 0, 64, 66
1, 44326, Control_c, 0, 64, 67
1, 44341, Control_c, 0, 64, 68
1, 44356, Control_c, 0, 64, 70
1, 44371, Control_c, 0, 64, 72
1, 44385, Control_c, 0, 64, 74
1, 44400, Control_c, 0, 64, 77
1, 44415, Control_c, 0, 64, 79
1, 44430, Control_c, 0, 64, 81
1, 44445, Control_c, 0, 64, 82
1, 44459, Control_c, 0, 64, 84
1, 44474, Control_c, 0, 64, 85
1, 44489, Control_c, 0, 64, 87
1, 44503, Control_c, 0, 64, 88
1, 44518, Control_c, 0, 64, 89
1, 44533, Control_c, 0, 64, 90
1, 44548, Control_c, 0, 64, 91
1, 44563, Control_c, 0, 64, 92
1, 44577, Control_c, 0, 64, 93
1, 44592, Control_c, 0, 64, 93
1, 44607, Control_c, 0, 64, 94
1, 44691, Note_off_c, 0, 62, 39
1, 44695, Note_on_c, 0, 68, 45
1, 44695, Note_off_c, 0, 69, 52
1, 44718, Note_off_c, 0, 59, 48
1, 44748, Control_c, 0, 64, 94
1, 44757, Note_off_c, 0, 52, 37
1, 44807, Control_c, 0, 64, 95
1, 44822, Control_c, 0, 64, 95
1, 45032, Note_on_c, 0, 56, 44
1, 45032, Note_on_c, 0, 66, 52
1, 45038, Note_on_c, 0, 50, 43
1, 45061, Note_off_c, 0, 66, 58
1, 45062, Note_off_c, 0, 56, 56
1, 45071, Note_off_c, 0, 68, 35
1, 45077, Note_off_c, 0, 50, 57
1, 45179, Control_c, 0, 64, 94
1, 45193, Control_c, 0, 64, 93
1, 45208, Control_c, 0, 64, 90
1, 45223, Control_c, 0, 64, 85
1, 45234, Note_on_c, 0, 66, 45
1, 45238, Control_c, 0, 64, 80
1, 45253, Control_c, 0, 64, 73
1, 45253, Note_on_c, 0, 57, 32
1, 45261, Note_on_c, 0, 49, 33
1, 45268, Control_c, 0, 64, 67
1, 45282, Control_c, 0, 64, 62
1, 45297, Control_c, 0, 64, 58
1, 45312, Control_c, 0, 64, 55
1, 45326, Control_c, 0, 64, 52
1, 45341, Control_c, 0, 64, 51
1, 45356, Control_c, 0, 64, 49
1, 45371, Control_c, 0, 64, 49
1, 45386, Control_c, 0, 64, 47
1, 45400, Control_c, 0, 64, 45
1, 45415, Control_c, 0, 64, 43
1, 45417, Note_on_c, 0, 64, 51
1, 45419, Note_off_c, 0, 66, 51
1, 45438, Control_c, 0, 64, 39
1, 45453, Control_c, 0, 64, 36
1, 45463, Note_off_c, 0, 64, 62
1, 45467, Control_c, 0, 64, 32
1, 45482, Control_c, 0, 64, 27
1, 45497, Control_c, 0, 64, 20
1, 45512, Control_c, 0, 64, 0
1, 45592, Note_on_c, 0, 64, 58
1, 45602, Note_off_c, 0, 57, 56
1, 45620, Note_off_c, 0, 49, 49
1, 45631, Note_off_c, 0, 64, 56
1, 45754, Note_on_c, 0, 64, 61
1, 45912, Note_off_c, 0, 64, 57
1, 45921, Note_on_c, 0, 49, 39
1, 45923, Note_on_c, 0, 69, 60
1, 45962, Note_off_c, 0, 69, 57
1, 46070, Note_off_c, 0, 49, 45
1, 46094, Note_on_c, 0, 69, 52
1, 46097, Note_on_c, 0, 73, 52
1, 46105, Note_on_c, 0, 45, 28
1, 46129, Note_off_c, 0, 69, 63
1, 46143, Note_off_c, 0, 73, 58
1, 46301, Note_off_c, 0, 45, 35
1, 46303, Note_on_c, 0, 73, 42
1, 46324, Note_on_c, 0, 52, 29
1, 46332, Note_on_c, 0, 69, 30
1, 46394, Control_c, 0, 64, 47
1, 46409, Control_c, 0, 64, 59
1, 46424, Control_c, 0, 64, 64
1, 46438, Control_c, 0, 64, 68
1, 46453, Control_c, 0, 64, 71
1, 46468, Control_c, 0, 64, 74
1, 46482, Control_c, 0, 64, 77
1, 46497, Control_c, 0, 64, 80
1, 46513, Control_c, 0, 64, 83
1, 46520, Note_off_c, 0, 73, 35
1, 46528, Control_c, 0, 64, 85
1, 46543, Control_c, 0, 64, 86
1, 46558, Control_c, 0, 64, 87
1, 46567, Note_off_c, 0, 52, 40
1, 46573, Control_c, 0, 64, 87
1, 46587, Control_c, 0, 64, 88
1, 46617, Control_c, 0, 64, 88
1, 46671, Note_off_c, 0, 69, 36
1, 46674, Note_on_c, 0, 74, 53
1, 46825, Control_c, 0, 64, 88
1, 46840, Control_c, 0, 64, 87
1, 46854, Control_c, 0, 64, 86
1, 46856, Note_off_c, 0, 74, 41
1, 46869, Control_c, 0, 64, 83
1, 46884, Control_c, 0, 64, 79
1, 46899, Control_c, 0, 64, 74
1, 46913, Note_on_c, 0, 68, 31
1, 46913, Control_c, 0, 64, 68
1, 46916, Note_on_c, 0, 71, 34
1, 46936, Control_c, 0, 64, 62
1, 46951, Control_c, 0, 64, 56
1, 46966, Control_c, 0, 64, 52
1, 46981, Control_c, 0, 64, 49
1, 46995, Control_c, 0, 64, 48
1, 47010, Control_c, 0, 64, 47
1, 47069, Control_c, 0, 64, 47
1, 47084, Control_c, 0, 64, 46
1, 47099, Control_c, 0, 64, 45
1, 47100, Note_off_c, 0, 71, 40
1, 47113, Control_c, 0, 64, 44
1, 47128, Control_c, 0, 64, 43
1, 47136, Note_off_c, 0, 68, 39
1, 47143, Control_c, 0, 64, 42
1, 47158, Control_c, 0, 64, 41
1, 47173, Control_c, 0, 64, 41
1, 47188, Control_c, 0, 64, 40
1, 47203, Control_c, 0, 64, 39
1, 47217, Control_c, 0, 64, 38
1, 47232, Control_c, 0, 64, 38
1, 47247, Control_c, 0, 64, 37
1, 47262, Control_c, 0, 64, 36
1, 47277, Control_c, 0, 64, 35
1, 47292, Control_c, 0, 64, 34
1, 47303, Note_on_c, 0, 73, 48
1, 47307, Control_c, 0, 64, 33
1, 47322, Control_c, 0, 64, 31
1, 47337, Control_c, 0, 64, 31
1, 47352, Control_c, 0, 64, 30
1, 47367, Control_c, 0, 64, 29
1, 47381, Control_c, 0, 64, 28
1, 47396, Control_c, 0, 64, 28
1, 47411, Control_c, 0, 64, 27
1, 47426, Control_c, 0, 64, 26
1, 47441, Control_c, 0, 64, 25
1, 47455, Control_c, 0, 64, 24
1, 47470, Control_c, 0, 64, 22
1, 47477, Note_off_c, 0, 73, 40
1, 47485, Note_on_c, 0, 74, 46
1, 47485, Control_c, 0, 64, 20
1, 47500, Control_c, 0, 64, 19
1, 47512, Note_off_c, 0, 74, 57
1, 47515, Control_c, 0, 64, 18
1, 47529, Control_c, 0, 64, 18
1, 47652, Note_on_c, 0, 74, 40
1, 47729, Control_c, 0, 64, 18
1, 47741, Note_on_c, 0, 73, 58
1, 47741, Note_off_c, 0, 74, 53
1, 47781, Note_off_c, 0, 73, 60
1, 47820, Note_on_c, 0, 76, 61
1, 47888, Note_off_c, 0, 76, 60
1, 47891, Note_on_c, 0, 74, 61
1, 47959, Note_off_c, 0, 74, 59
1, 47969, Note_on_c, 0, 78, 65
1, 48042, Note_on_c, 0, 76, 62
1, 48110, Note_on_c, 0, 74, 67
1, 48111, Note_off_c, 0, 76, 61
1, 48137, Note_off_c, 0, 78, 36
1, 48181, Note_on_c, 0, 73, 62
1, 48182, Note_off_c, 0, 74, 60
1, 48201, Note_off_c, 0, 73, 65
1, 48260, Note_on_c, 0, 74, 57
1, 48336, Note_on_c, 0, 71, 60
1, 48344, Note_off_c, 0, 74, 57
1, 48369, Note_off_c, 0, 71, 61
1, 48414, Note_on_c, 0, 69, 53
1, 48428, Note_on_c, 0, 59, 35
1, 48430, Note_on_c, 0, 52, 36
1, 48430, Note_on_c, 0, 62, 33
1, 48489, Note_off_c, 0, 69, 57
1, 48493, Note_on_c, 0, 68, 57
1, 48575, Note_on_c, 0, 71, 61
1, 48583, Note_off_c, 0, 68, 55
1, 48606, Note_off_c, 0, 71, 62
1, 48651, Note_on_c, 0, 69, 67
1, 48718, Note_off_c, 0, 69, 58
1, 48726, Note_on_c, 0, 73, 70
1, 48788, Note_off_c, 0, 73, 61
1, 48793, Note_on_c, 0, 71, 68
1, 48871, Note_on_c, 0, 74, 77
1, 48872, Note_off_c, 0, 71, 62
1, 48878, Note_off_c, 0, 52, 52
1, 48904, Note_off_c, 0, 74, 60
1, 48932, Note_off_c, 0, 59, 59
1, 48941, Note_off_c, 0, 62, 56
1, 48952, Control_c, 0, 64, 19
1, 48962, Note_on_c, 0, 73, 70
1, 48982, Control_c, 0, 64, 19
1, 48997, Control_c, 0, 64, 20
1, 49006, Note_off_c, 0, 73, 63
1, 49028, Note_on_c, 0, 76, 71
1, 49093, Note_off_c, 0, 76, 63
1, 49099, Note_on_c, 0, 74, 73
1, 49182, Note_off_c, 0, 74, 60
1, 49185, Note_on_c, 0, 78, 67
1, 49201, Note_on_c, 0, 62, 35
1, 49206, Note_on_c, 0, 68, 51
1, 49226, Control_c, 0, 64, 20
1, 49241, Control_c, 0, 64, 21
1, 49244, Note_off_c, 0, 62, 62
1, 49247, Note_off_c, 0, 68, 57
1, 49270, Note_on_c, 0, 76, 58
1, 49276, Note_off_c, 0, 78, 57
1, 49300, Note_off_c, 0, 76, 63
1, 49301, Control_c, 0, 64, 21
1, 49376, Note_on_c, 0, 69, 50
1, 49379, Note_on_c, 0, 61, 41
1, 49383, Note_on_c, 0, 76, 61
1, 49415, Note_off_c, 0, 76, 65
1, 49475, Note_on_c, 0, 81, 57
1, 49543, Note_on_c, 0, 80, 67
1, 49551, Note_off_c, 0, 61, 59
1, 49551, Note_off_c, 0, 69, 62
1, 49616, Note_off_c, 0, 81, 60
1, 49620, Note_on_c, 0, 79, 69
1, 49680, Note_on_c, 0, 62, 54
1, 49686, Control_c, 0, 64, 22
1, 49689, Note_on_c, 0, 69, 49
1, 49710, Note_on_c, 0, 78, 70
1, 49712, Note_off_c, 0, 69, 60
1, 49718, Note_off_c, 0, 62, 63
1, 49739, Note_off_c, 0, 79, 61
1, 49760, Note_off_c, 0, 80, 55
1, 49782, Note_on_c, 0, 77, 67
1, 49788, Note_off_c, 0, 78, 61
1, 49866, Note_on_c, 0, 69, 37
1, 49880, Note_on_c, 0, 76, 75
1, 49884, Note_on_c, 0, 61, 45
1, 49904, Note_off_c, 0, 77, 52
1, 49954, Note_off_c, 0, 76, 63
1, 49974, Note_on_c, 0, 81, 71
1, 50055, Note_on_c, 0, 80, 74
1, 50105, Note_off_c, 0, 69, 63
1, 50106, Note_off_c, 0, 61, 59
1, 50132, Note_on_c, 0, 79, 79
1, 50146, Note_off_c, 0, 81, 58
1, 50218, Note_on_c, 0, 78, 78
1, 50227, Note_on_c, 0, 62, 58
1, 50242, Note_on_c, 0, 69, 44
1, 50261, Note_off_c, 0, 62, 62
1, 50265, Note_off_c, 0, 79, 58
1, 50266, Note_off_c, 0, 69, 54
1, 50272, Note_off_c, 0, 80, 58
1, 50315, Note_on_c, 0, 77, 63
1, 50325, Note_off_c, 0, 78, 60
1, 50390, Control_c, 0, 64, 21
1, 50405, Control_c, 0, 64, 19
1, 50435, Control_c, 0, 64, 0
1, 50436, Note_on_c, 0, 69, 17
1, 50440, Note_off_c, 0, 77, 52
1, 50445, Note_on_c, 0, 61, 38
1, 50446, Note_on_c, 0, 76, 54
1, 50569, Control_c, 0, 64, 47
1, 50584, Control_c, 0, 64, 60
1, 50599, Control_c, 0, 64, 65
1, 50614, Control_c, 0, 64, 69
1, 50628, Control_c, 0, 64, 74
1, 50643, Control_c, 0, 64, 76
1, 50658, Control_c, 0, 64, 78
1, 50680, Control_c, 0, 64, 79
1, 50695, Control_c, 0, 64, 80
1, 50710, Control_c, 0, 64, 82
1, 50725, Control_c, 0, 64, 83
1, 50738, Note_off_c, 0, 76, 57
1, 50740, Control_c, 0, 64, 84
1, 50754, Control_c, 0, 64, 84
1, 50769, Control_c, 0, 64, 85
1, 50784, Control_c, 0, 64, 85
1, 50814, Control_c, 0, 64, 86
1, 50818, Note_off_c, 0, 69, 35
1, 50843, Control_c, 0, 64, 86
1, 51021, Control_c, 0, 64, 86
1, 51036, Control_c, 0, 64, 83
1, 51051, Control_c, 0, 64, 76
1, 51066, Control_c, 0, 64, 66
1, 51073, Note_on_c, 0, 77, 65
1, 51080, Control_c, 0, 64, 54
1, 51082, Note_on_c, 0, 71, 43
1, 51086, Note_on_c, 0, 68, 42
1, 51095, Control_c, 0, 64, 29
1, 51110, Control_c, 0, 64, 0
1, 51169, Control_c, 0, 64, 45
1, 51184, Control_c, 0, 64, 60
1, 51198, Control_c, 0, 64, 65
1, 51213, Control_c, 0, 64, 70
1, 51228, Control_c, 0, 64, 76
1, 51243, Control_c, 0, 64, 81
1, 51258, Control_c, 0, 64, 84
1, 51272, Control_c, 0, 64, 86
1, 51286, Control_c, 0, 64, 88
1, 51302, Control_c, 0, 64, 89
1, 51317, Control_c, 0, 64, 91
1, 51332, Control_c, 0, 64, 92
1, 51347, Control_c, 0, 64, 93
1, 51355, Note_off_c, 0, 77, 58
1, 51362, Control_c, 0, 64, 94
1, 51376, Control_c, 0, 64, 95
1, 51391, Control_c, 0, 64, 95
1, 51406, Control_c, 0, 64, 96
1, 51407, Note_off_c, 0, 61, 35
1, 51430, Note_off_c, 0, 71, 33
1, 51456, Note_off_c, 0, 68, 40
1, 51650, Control_c, 0, 64, 95
1, 51665, Control_c, 0, 64, 94
1, 51680, Control_c, 0, 64, 91
1, 51695, Control_c, 0, 64, 85
1, 51710, Control_c, 0, 64, 78
1, 51725, Control_c, 0, 64, 70
1, 51740, Control_c, 0, 64, 63
1, 51740, Note_on_c, 0, 78, 38
1, 51741, Note_on_c, 0, 62, 23
1, 51754, Note_on_c, 0, 66, 29
1, 51754, Control_c, 0, 64, 54
1, 51762, Note_on_c, 0, 69, 27
1, 51769, Control_c, 0, 64, 49
1, 51784, Control_c, 0, 64, 45
1, 51799, Control_c, 0, 64, 43
1, 51814, Control_c, 0, 64, 42
1, 51843, Control_c, 0, 64, 41
1, 51858, Control_c, 0, 64, 41
1, 51873, Control_c, 0, 64, 40
1, 51888, Control_c, 0, 64, 39
1, 51902, Control_c, 0, 64, 37
1, 51917, Control_c, 0, 64, 36
1, 51932, Control_c, 0, 64, 35
1, 51945, Note_off_c, 0, 78, 50
1, 51946, Control_c, 0, 64, 34
1, 51961, Control_c, 0, 64, 33
1, 51976, Control_c, 0, 64, 32
1, 51991, Control_c, 0, 64, 31
1, 52006, Control_c, 0, 64, 31
1, 52020, Control_c, 0, 64, 30
1, 52050, Control_c, 0, 64, 30
1, 52064, Control_c, 0, 64, 29
1, 52079, Control_c, 0, 64, 29
1, 52124, Note_on_c, 0, 78, 41
1, 52211, Note_on_c, 0, 80, 53
1, 52271, Note_off_c, 0, 78, 40
1, 52301, Note_on_c, 0, 81, 61
1, 52339, Control_c, 0, 64, 28
1, 52352, Note_off_c, 0, 80, 37
1, 52372, Note_on_c, 0, 77, 59
1, 52381, Note_off_c, 0, 81, 59
1, 52450, Note_on_c, 0, 78, 61
1, 52452, Note_off_c, 0, 77, 57
1, 52498, Note_off_c, 0, 78, 60
1, 52518, Note_on_c, 0, 73, 60
1, 52546, Note_off_c, 0, 73, 66
1, 52607, Note_on_c, 0, 74, 57
1, 52652, Note_off_c, 0, 69, 43
1, 52680, Note_on_c, 0, 71, 55
1, 52695, Control_c, 0, 64, 28
1, 52710, Control_c, 0, 64, 27
1, 52713, Note_off_c, 0, 74, 46
1, 52756, Note_off_c, 0, 66, 56
1, 52773, Note_off_c, 0, 71, 52
1, 52776, Note_off_c, 0, 62, 54
1, 52783, Control_c, 0, 64, 26
1, 52786, Note_on_c, 0, 69, 40
1, 52798, Control_c, 0, 64, 25
1, 52813, Control_c, 0, 64, 23
1, 52828, Control_c, 0, 64, 22
1, 52842, Control_c, 0, 64, 19
1, 52857, Control_c, 0, 64, 16
1, 52888, Control_c, 0, 64, 0
1, 53215, Note_on_c, 0, 52, 38
1, 53224, Note_on_c, 0, 61, 28
1, 53251, Control_c, 0, 64, 43
1, 53266, Control_c, 0, 64, 57
1, 53281, Control_c, 0, 64, 63
1, 53290, Note_off_c, 0, 61, 49
1, 53296, Control_c, 0, 64, 67
1, 53310, Control_c, 0, 64, 69
1, 53325, Control_c, 0, 64, 71
1, 53340, Control_c, 0, 64, 73
1, 53355, Control_c, 0, 64, 75
1, 53370, Control_c, 0, 64, 76
1, 53373, Note_off_c, 0, 52, 42
1, 53385, Control_c, 0, 64, 77
1, 53439, Note_on_c, 0, 62, 38
1, 53444, Control_c, 0, 64, 75
1, 53448, Note_on_c, 0, 53, 38
1, 53459, Control_c, 0, 64, 70
1, 53473, Control_c, 0, 64, 63
1, 53488, Control_c, 0, 64, 53
1, 53503, Control_c, 0, 64, 49
1, 53518, Control_c, 0, 64, 50
1, 53533, Control_c, 0, 64, 55
1, 53547, Control_c, 0, 64, 61
1, 53562, Control_c, 0, 64, 65
1, 53577, Control_c, 0, 64, 68
1, 53591, Control_c, 0, 64, 72
1, 53606, Control_c, 0, 64, 75
1, 53621, Control_c, 0, 64, 77
1, 53625, Note_off_c, 0, 62, 56
1, 53627, Note_off_c, 0, 53, 51
1, 53636, Control_c, 0, 64, 78
1, 53651, Control_c, 0, 64, 78
1, 53778, Control_c, 0, 64, 78
1, 53793, Control_c, 0, 64, 74
1, 53808, Control_c, 0, 64, 67
1, 53822, Control_c, 0, 64, 59
1, 53837, Control_c, 0, 64, 51
1, 53843, Note_on_c, 0, 63, 33
1, 53849, Note_on_c, 0, 54, 37
1, 53852, Control_c, 0, 64, 50
1, 53867, Control_c, 0, 64, 52
1, 53882, Control_c, 0, 64, 58
1, 53896, Control_c, 0, 64, 63
1, 53903, Note_off_c, 0, 69, 54
1, 53911, Control_c, 0, 64, 67
1, 53926, Control_c, 0, 64, 70
1, 53941, Control_c, 0, 64, 74
1, 53955, Note_off_c, 0, 63, 56
1, 53956, Control_c, 0, 64, 76
1, 53957, Note_off_c, 0, 54, 35
1, 53970, Control_c, 0, 64, 77
1, 53985, Control_c, 0, 64, 78
1, 54074, Control_c, 0, 64, 77
1, 54089, Control_c, 0, 64, 77
1, 54103, Control_c, 0, 64, 75
1, 54118, Control_c, 0, 64, 71
1, 54133, Control_c, 0, 64, 65
1, 54144, Note_on_c, 0, 52, 31
1, 54148, Note_on_c, 0, 64, 30
1, 54148, Control_c, 0, 64, 57
1, 54153, Note_on_c, 0, 73, 42
1, 54159, Note_on_c, 0, 69, 27
1, 54163, Control_c, 0, 64, 43
1, 54178, Control_c, 0, 64, 0
1, 54252, Control_c, 0, 64, 21
1, 54267, Control_c, 0, 64, 47
1, 54282, Control_c, 0, 64, 59
1, 54296, Control_c, 0, 64, 64
1, 54311, Control_c, 0, 64, 68
1, 54326, Control_c, 0, 64, 70
1, 54340, Control_c, 0, 64, 72
1, 54355, Control_c, 0, 64, 74
1, 54370, Control_c, 0, 64, 77
1, 54385, Control_c, 0, 64, 80
1, 54391, Note_off_c, 0, 73, 37
1, 54400, Control_c, 0, 64, 83
1, 54407, Note_off_c, 0, 69, 41
1, 54422, Control_c, 0, 64, 84
1, 54437, Control_c, 0, 64, 85
1, 54452, Control_c, 0, 64, 86
1, 54455, Note_off_c, 0, 64, 40
1, 54467, Control_c, 0, 64, 86
1, 54749, Control_c, 0, 64, 86
1, 54763, Control_c, 0, 64, 85
1, 54778, Control_c, 0, 64, 83
1, 54793, Control_c, 0, 64, 79
1, 54800, Note_on_c, 0, 73, 43
1, 54808, Control_c, 0, 64, 72
1, 54823, Control_c, 0, 64, 67
1, 54837, Control_c, 0, 64, 62
1, 54840, Note_on_c, 0, 68, 39
1, 54852, Control_c, 0, 64, 59
1, 54856, Note_on_c, 0, 62, 35
1, 54856, Note_on_c, 0, 71, 51
1, 54867, Control_c, 0, 64, 58
1, 54877, Note_off_c, 0, 73, 37
1, 54882, Control_c, 0, 64, 56
1, 54897, Control_c, 0, 64, 56
1, 54912, Control_c, 0, 64, 54
1, 54926, Control_c, 0, 64, 53
1, 54941, Control_c, 0, 64, 52
1, 54956, Control_c, 0, 64, 50
1, 54971, Control_c, 0, 64, 48
1, 54986, Control_c, 0, 64, 46
1, 55001, Control_c, 0, 64, 45
1, 55016, Control_c, 0, 64, 43
1, 55028, Note_off_c, 0, 68, 56
1, 55030, Control_c, 0, 64, 41
1, 55033, Note_off_c, 0, 52, 45
1, 55033, Note_on_c, 0, 69, 47
1, 55038, Note_off_c, 0, 71, 35
1, 55045, Control_c, 0, 64, 39
1, 55060, Control_c, 0, 64, 36
1, 55075, Control_c, 0, 64, 34
1, 55077, Note_off_c, 0, 69, 60
1, 55090, Control_c, 0, 64, 31
1, 55105, Control_c, 0, 64, 28
1, 55119, Control_c, 0, 64, 24
1, 55134, Control_c, 0, 64, 21
1, 55149, Control_c, 0, 64, 18
1, 55200, Control_c, 0, 64, 0
1, 55202, Note_on_c, 0, 71, 50
1, 55242, Note_off_c, 0, 71, 61
1, 55379, Note_off_c, 0, 62, 41
1, 55385, Note_on_c, 0, 69, 38
1, 55387, Note_on_c, 0, 57, 33
1, 55567, Note_on_c, 0, 61, 36
1, 55575, Note_off_c, 0, 69, 58
1, 55702, Note_off_c, 0, 57, 39
1, 55716, Note_on_c, 0, 75, 51
1, 55724, Note_on_c, 0, 64, 34
1, 55799, Note_off_c, 0, 75, 53
1, 55803, Note_on_c, 0, 76, 49
1, 55838, Note_off_c, 0, 61, 39
1, 55844, Note_off_c, 0, 76, 62
1, 55861, Note_on_c, 0, 78, 57
1, 55886, Note_on_c, 0, 57, 31
1, 55886, Note_off_c, 0, 64, 40
1, 55963, Note_on_c, 0, 76, 60
1, 55999, Note_off_c, 0, 76, 60
1, 56018, Note_off_c, 0, 78, 59
1, 56028, Note_on_c, 0, 74, 68
1, 56041, Note_on_c, 0, 61, 40
1, 56095, Note_off_c, 0, 74, 52
1, 56104, Note_off_c, 0, 57, 39
1, 56110, Note_on_c, 0, 73, 71
1, 56175, Note_off_c, 0, 61, 51
1, 56191, Note_on_c, 0, 64, 50
1, 56196, Note_on_c, 0, 71, 64
1, 56215, Note_off_c, 0, 73, 54
1, 56251, Note_off_c, 0, 71, 60
1, 56275, Note_on_c, 0, 69, 64
1, 56342, Note_off_c, 0, 69, 62
1, 56346, Note_off_c, 0, 64, 35
1, 56348, Note_on_c, 0, 68, 66
1, 56350, Note_on_c, 0, 52, 50
1, 56375, Note_off_c, 0, 68, 63
1, 56432, Note_on_c, 0, 69, 63
1, 56501, Note_off_c, 0, 69, 61
1, 56504, Note_on_c, 0, 71, 66
1, 56511, Note_on_c, 0, 56, 47
1, 56574, Note_off_c, 0, 52, 34
1, 56578, Note_on_c, 0, 73, 69
1, 56583, Note_off_c, 0, 71, 60
1, 56613, Note_off_c, 0, 73, 62
1, 56648, Note_on_c, 0, 74, 77
1, 56664, Note_on_c, 0, 59, 49
1, 56691, Note_off_c, 0, 56, 34
1, 56737, Note_on_c, 0, 76, 70
1, 56741, Note_off_c, 0, 74, 60
1, 56794, Note_off_c, 0, 59, 54
1, 56813, Note_on_c, 0, 52, 51
1, 56816, Note_on_c, 0, 78, 71
1, 56838, Note_off_c, 0, 76, 56
1, 56887, Note_on_c, 0, 80, 73
1, 56896, Note_off_c, 0, 78, 60
1, 56933, Note_off_c, 0, 80, 63
1, 56970, Note_on_c, 0, 56, 54
1, 56971, Note_on_c, 0, 81, 79
1, 57026, Note_off_c, 0, 52, 35
1, 57050, Note_off_c, 0, 81, 61
1, 57064, Note_on_c, 0, 83, 70
1, 57090, Note_off_c, 0, 56, 56
1, 57111, Note_on_c, 0, 59, 51
1, 57119, Note_on_c, 0, 85, 72
1, 57156, Note_off_c, 0, 83, 60
1, 57190, Note_off_c, 0, 85, 63
1, 57193, Note_on_c, 0, 86, 64
1, 57230, Note_off_c, 0, 59, 50
1, 57278, Note_on_c, 0, 57, 45
1, 57294, Note_on_c, 0, 85, 68
1, 57457, Note_off_c, 0, 85, 62
1, 57457, Note_off_c, 0, 86, 38
1, 57466, Note_on_c, 0, 61, 52
1, 57621, Note_off_c, 0, 57, 38
1, 57633, Note_on_c, 0, 64, 45
1, 57640, Note_on_c, 0, 75, 61
1, 57705, Note_on_c, 0, 76, 50
1, 57779, Note_off_c, 0, 61, 42
1, 57780, Note_off_c, 0, 75, 54
1, 57785, Note_off_c, 0, 76, 60
1, 57788, Note_on_c, 0, 57, 34
1, 57788, Note_on_c, 0, 78, 63
1, 57795, Note_off_c, 0, 64, 39
1, 57875, Note_on_c, 0, 76, 58
1, 57934, Note_off_c, 0, 76, 60
1, 57940, Note_off_c, 0, 78, 57
1, 57952, Note_on_c, 0, 61, 40
1, 57961, Note_on_c, 0, 74, 69
1, 58014, Note_off_c, 0, 57, 36
1, 58023, Note_off_c, 0, 74, 52
1, 58030, Note_on_c, 0, 73, 72
1, 58098, Note_on_c, 0, 64, 52
1, 58104, Note_off_c, 0, 61, 41
1, 58113, Note_on_c, 0, 71, 68
1, 58163, Note_off_c, 0, 73, 56
1, 58198, Note_off_c, 0, 71, 60
1, 58205, Note_on_c, 0, 69, 66
1, 58251, Note_off_c, 0, 64, 53
1, 58265, Note_on_c, 0, 52, 52
1, 58281, Note_off_c, 0, 69, 58
1, 58283, Note_on_c, 0, 68, 66
1, 58351, Note_on_c, 0, 66, 67
1, 58402, Note_off_c, 0, 68, 44
1, 58426, Note_off_c, 0, 66, 61
1, 58431, Note_on_c, 0, 64, 66
1, 58436, Note_on_c, 0, 59, 51
1, 58494, Note_off_c, 0, 52, 35
1, 58515, Note_on_c, 0, 66, 67
1, 58524, Note_off_c, 0, 64, 55
1, 58568, Note_on_c, 0, 62, 53
1, 58602, Note_on_c, 0, 68, 62
1, 58607, Note_off_c, 0, 59, 34
1, 58607, Note_off_c, 0, 66, 60
1, 58630, Note_off_c, 0, 68, 63
1, 58661, Note_on_c, 0, 69, 75
1, 58702, Note_off_c, 0, 62, 53
1, 58724, Note_on_c, 0, 52, 48
1, 58742, Note_on_c, 0, 71, 71
1, 58746, Note_off_c, 0, 69, 59
1, 58813, Note_on_c, 0, 73, 73
1, 58820, Note_off_c, 0, 71, 60
1, 58849, Note_off_c, 0, 73, 64
1, 58885, Note_on_c, 0, 74, 82
1, 58888, Note_on_c, 0, 59, 51
1, 58950, Note_off_c, 0, 52, 35
1, 58972, Note_off_c, 0, 74, 62
1, 58973, Note_on_c, 0, 76, 74
1, 59028, Note_off_c, 0, 59, 58
1, 59048, Note_on_c, 0, 78, 71
1, 59055, Note_on_c, 0, 62, 52
1, 59068, Note_off_c, 0, 76, 62
1, 59114, Note_on_c, 0, 80, 69
1, 59124, Note_off_c, 0, 78, 61
1, 59190, Note_off_c, 0, 62, 43
1, 59209, Note_on_c, 0, 57, 50
1, 59209, Note_on_c, 0, 61, 53
1, 59216, Note_on_c, 0, 81, 73
1, 59253, Note_off_c, 0, 80, 61
1, 59316, Control_c, 0, 64, 37
1, 59331, Control_c, 0, 64, 60
1, 59346, Control_c, 0, 64, 64
1, 59359, Note_off_c, 0, 81, 62
1, 59360, Control_c, 0, 64, 67
1, 59375, Control_c, 0, 64, 70
1, 59390, Note_on_c, 0, 76, 73
1, 59390, Control_c, 0, 64, 74
1, 59405, Control_c, 0, 64, 80
1, 59420, Control_c, 0, 64, 86
1, 59434, Control_c, 0, 64, 92
1, 59449, Control_c, 0, 64, 96
1, 59464, Control_c, 0, 64, 98
1, 59539, Control_c, 0, 64, 96
1, 59554, Control_c, 0, 64, 93
1, 59568, Control_c, 0, 64, 89
1, 59580, Note_on_c, 0, 85, 77
1, 59583, Control_c, 0, 64, 82
1, 59584, Note_on_c, 0, 64, 59
1, 59594, Note_off_c, 0, 61, 51
1, 59598, Control_c, 0, 64, 74
1, 59600, Note_off_c, 0, 57, 35
1, 59600, Note_off_c, 0, 76, 59
1, 59613, Control_c, 0, 64, 66
1, 59628, Control_c, 0, 64, 60
1, 59642, Control_c, 0, 64, 55
1, 59665, Control_c, 0, 64, 53
1, 59680, Control_c, 0, 64, 52
1, 59695, Control_c, 0, 64, 51
1, 59710, Control_c, 0, 64, 50
1, 59724, Control_c, 0, 64, 44
1, 59739, Control_c, 0, 64, 34
1, 59754, Control_c, 0, 64, 0
1, 59762, Note_on_c, 0, 61, 41
1, 59764, Note_on_c, 0, 57, 38
1, 59772, Note_on_c, 0, 81, 77
1, 59803, Note_off_c, 0, 64, 50
1, 59872, Control_c, 0, 64, 16
1, 59886, Control_c, 0, 64, 50
1, 59895, Note_off_c, 0, 85, 33
1, 59901, Control_c, 0, 64, 61
1, 59916, Control_c, 0, 64, 68
1, 59931, Control_c, 0, 64, 73
1, 59946, Control_c, 0, 64, 79
1, 59954, Note_on_c, 0, 76, 76
1, 59961, Control_c, 0, 64, 82
1, 59976, Control_c, 0, 64, 83
1, 59991, Control_c, 0, 64, 84
1, 60039, Note_off_c, 0, 81, 35
1, 60095, Control_c, 0, 64, 83
1, 60110, Control_c, 0, 64, 81
1, 60116, Note_off_c, 0, 57, 35
1, 60121, Note_off_c, 0, 76, 58
1, 60122, Note_on_c, 0, 85, 63
1, 60125, Control_c, 0, 64, 77
1, 60136, Note_on_c, 0, 64, 43
1, 60140, Control_c, 0, 64, 71
1, 60143, Note_off_c, 0, 61, 35
1, 60155, Control_c, 0, 64, 65
1, 60170, Control_c, 0, 64, 58
1, 60184, Control_c, 0, 64, 49
1, 60199, Control_c, 0, 64, 40
1, 60214, Control_c, 0, 64, 20
1, 60229, Control_c, 0, 64, 0
1, 60315, Note_off_c, 0, 64, 38
1, 60353, Note_on_c, 0, 81, 50
1, 60362, Note_on_c, 0, 61, 25
1, 60370, Note_on_c, 0, 57, 25
1, 60397, Note_off_c, 0, 85, 34
1, 60414, Control_c, 0, 64, 16
1, 60429, Control_c, 0, 64, 41
1, 60444, Control_c, 0, 64, 55
1, 60458, Control_c, 0, 64, 61
1, 60473, Control_c, 0, 64, 64
1, 60488, Control_c, 0, 64, 66
1, 60503, Control_c, 0, 64, 67
1, 60517, Control_c, 0, 64, 67
1, 60532, Control_c, 0, 64, 68
1, 60547, Control_c, 0, 64, 69
1, 60562, Control_c, 0, 64, 70
1, 60577, Control_c, 0, 64, 71
1, 60591, Control_c, 0, 64, 72
1, 60606, Control_c, 0, 64, 73
1, 60621, Control_c, 0, 64, 73
1, 60636, Control_c, 0, 64, 74
1, 60798, Control_c, 0, 64, 73
1, 60828, Control_c, 0, 64, 73
1, 60843, Control_c, 0, 64, 72
1, 60858, Control_c, 0, 64, 71
1, 60873, Control_c, 0, 64, 70
1, 60888, Control_c, 0, 64, 69
1, 60903, Control_c, 0, 64, 68
1, 60918, Control_c, 0, 64, 66
1, 60933, Control_c, 0, 64, 64
1, 60948, Control_c, 0, 64, 63
1, 60962, Control_c, 0, 64, 61
1, 60977, Control_c, 0, 64, 61
1, 60992, Control_c, 0, 64, 60
1, 61022, Control_c, 0, 64, 60
1, 61037, Control_c, 0, 64, 59
1, 61052, Control_c, 0, 64, 59
1, 61056, Note_off_c, 0, 57, 35
1, 61067, Control_c, 0, 64, 57
1, 61081, Control_c, 0, 64, 56
1, 61096, Control_c, 0, 64, 54
1, 61111, Control_c, 0, 64, 52
1, 61125, Control_c, 0, 64, 50
1, 61137, Note_off_c, 0, 81, 37
1, 61140, Control_c, 0, 64, 49
1, 61152, Note_off_c, 0, 61, 34
1, 61162, Control_c, 0, 64, 46
1, 61177, Control_c, 0, 64, 44
1, 61192, Control_c, 0, 64, 43
1, 61207, Control_c, 0, 64, 41
1, 61222, Control_c, 0, 64, 40
1, 61237, Control_c, 0, 64, 38
1, 61252, Control_c, 0, 64, 36
1, 61266, Control_c, 0, 64, 34
1, 61281, Control_c, 0, 64, 32
1, 61296, Control_c, 0, 64, 30
1, 61311, Control_c, 0, 64, 27
1, 61326, Control_c, 0, 64, 24
1, 61340, Control_c, 0, 64, 21
1, 61355, Control_c, 0, 64, 18
1, 61370, Control_c, 0, 64, 16
1, 61429, Control_c, 0, 64, 0
1, 61580, Note_on_c, 0, 81, 37
1, 61591, Note_on_c, 0, 57, 15
1, 61592, Note_on_c, 0, 60, 26
1, 61621, Control_c, 0, 64, 25
1, 61636, Control_c, 0, 64, 37
1, 61651, Control_c, 0, 64, 45
1, 61666, Control_c, 0, 64, 50
1, 61682, Control_c, 0, 64, 55
1, 61697, Control_c, 0, 64, 58
1, 61711, Control_c, 0, 64, 61
1, 61726, Control_c, 0, 64, 62
1, 61741, Control_c, 0, 64, 63
1, 61755, Control_c, 0, 64, 64
1, 61770, Control_c, 0, 64, 65
1, 61785, Control_c, 0, 64, 66
1, 61788, Note_off_c, 0, 81, 39
1, 61794, Note_on_c, 0, 76, 41
1, 61800, Control_c, 0, 64, 67
1, 61815, Control_c, 0, 64, 68
1, 61829, Control_c, 0, 64, 69
1, 61844, Control_c, 0, 64, 70
1, 61859, Control_c, 0, 64, 71
1, 61874, Control_c, 0, 64, 71
1, 61888, Control_c, 0, 64, 72
1, 61910, Control_c, 0, 64, 72
1, 61918, Note_off_c, 0, 57, 40
1, 61963, Note_off_c, 0, 60, 39
1, 61964, Note_off_c, 0, 76, 41
1, 61965, Note_on_c, 0, 64, 38
1, 61970, Note_on_c, 0, 84, 42
1, 62015, Note_off_c, 0, 64, 51
1, 62118, Control_c, 0, 64, 72
1, 62133, Control_c, 0, 64, 70
1, 62148, Control_c, 0, 64, 67
1, 62162, Note_on_c, 0, 60, 19
1, 62162, Control_c, 0, 64, 60
1, 62163, Note_on_c, 0, 81, 44
1, 62167, Note_on_c, 0, 57, 30
1, 62177, Control_c, 0, 64, 53
1, 62192, Control_c, 0, 64, 45
1, 62207, Control_c, 0, 64, 31
1, 62222, Control_c, 0, 64, 25
1, 62250, Note_off_c, 0, 84, 33
1, 62251, Control_c, 0, 64, 26
1, 62266, Control_c, 0, 64, 40
1, 62280, Control_c, 0, 64, 53
1, 62295, Control_c, 0, 64, 59
1, 62310, Control_c, 0, 64, 63
1, 62325, Control_c, 0, 64, 65
1, 62340, Control_c, 0, 64, 66
1, 62352, Note_on_c, 0, 76, 42
1, 62355, Control_c, 0, 64, 66
1, 62369, Control_c, 0, 64, 67
1, 62372, Note_off_c, 0, 81, 32
1, 62384, Control_c, 0, 64, 68
1, 62399, Control_c, 0, 64, 69
1, 62414, Control_c, 0, 64, 70
1, 62429, Control_c, 0, 64, 72
1, 62444, Control_c, 0, 64, 73
1, 62459, Control_c, 0, 64, 74
1, 62471, Note_off_c, 0, 57, 37
1, 62474, Control_c, 0, 64, 75
1, 62489, Control_c, 0, 64, 75
1, 62507, Note_on_c, 0, 64, 27
1, 62514, Note_off_c, 0, 76, 38
1, 62515, Note_on_c, 0, 84, 37
1, 62523, Note_off_c, 0, 60, 39
1, 62611, Note_off_c, 0, 64, 36
1, 62689, Control_c, 0, 64, 75
1, 62704, Control_c, 0, 64, 74
1, 62718, Control_c, 0, 64, 73
1, 62733, Control_c, 0, 64, 70
1, 62748, Control_c, 0, 64, 67
1, 62757, Note_on_c, 0, 81, 32
1, 62760, Note_on_c, 0, 57, 28
1, 62763, Control_c, 0, 64, 63
1, 62775, Note_on_c, 0, 60, 19
1, 62778, Control_c, 0, 64, 60
1, 62793, Control_c, 0, 64, 57
1, 62808, Control_c, 0, 64, 54
1, 62814, Note_off_c, 0, 84, 24
1, 62823, Control_c, 0, 64, 50
1, 62837, Control_c, 0, 64, 46
1, 62852, Control_c, 0, 64, 42
1, 62867, Control_c, 0, 64, 39
1, 62882, Control_c, 0, 64, 36
1, 62897, Control_c, 0, 64, 34
1, 62911, Control_c, 0, 64, 32
1, 62926, Control_c, 0, 64, 31
1, 62941, Control_c, 0, 64, 30
1, 62956, Control_c, 0, 64, 28
1, 62971, Control_c, 0, 64, 27
1, 62985, Control_c, 0, 64, 26
1, 63000, Control_c, 0, 64, 25
1, 63015, Control_c, 0, 64, 23
1, 63029, Control_c, 0, 64, 23
1, 63044, Control_c, 0, 64, 22
1, 63059, Control_c, 0, 64, 21
1, 63074, Control_c, 0, 64, 21
1, 63103, Control_c, 0, 64, 20
1, 63118, Control_c, 0, 64, 20
1, 63133, Control_c, 0, 64, 19
1, 63148, Control_c, 0, 64, 19
1, 63163, Control_c, 0, 64, 18
1, 63177, Control_c, 0, 64, 18
1, 63207, Control_c, 0, 64, 17
1, 63283, Control_c, 0, 64, 16
1, 63313, Control_c, 0, 64, 16
1, 63457, Note_off_c, 0, 57, 33
1, 63460, Note_off_c, 0, 81, 31
1, 63469, Control_c, 0, 64, 0
1, 63489, Note_off_c, 0, 60, 34
1, 63948, Note_on_c, 0, 81, 86
1, 63952, Note_on_c, 0, 60, 65
1, 63955, Note_on_c, 0, 63, 78
1, 63959, Note_on_c, 0, 53, 67
1, 63972, Control_c, 0, 64, 29
1, 63987, Control_c, 0, 64, 59
1, 64001, Control_c, 0, 64, 66
1, 64016, Control_c, 0, 64, 71
1, 64031, Control_c, 0, 64, 78
1, 64045, Control_c, 0, 64, 84
1, 64051, Note_off_c, 0, 81, 61
1, 64060, Control_c, 0, 64, 89
1, 64076, Control_c, 0, 64, 94
1, 64091, Control_c, 0, 64, 97
1, 64106, Control_c, 0, 64, 99
1, 64121, Control_c, 0, 64, 99
1, 64143, Note_on_c, 0, 75, 84
1, 64179, Note_off_c, 0, 53, 48
1, 64207, Note_off_c, 0, 63, 54
1, 64218, Note_off_c, 0, 75, 62
1, 64221, Note_off_c, 0, 60, 56
1, 64301, Note_on_c, 0, 54, 82
1, 64303, Note_on_c, 0, 84, 90
1, 64439, Control_c, 0, 64, 95
1, 64454, Control_c, 0, 64, 83
1, 64469, Control_c, 0, 64, 67
1, 64478, Note_on_c, 0, 60, 56
1, 64483, Control_c, 0, 64, 46
1, 64485, Note_off_c, 0, 54, 39
1, 64494, Note_on_c, 0, 63, 91
1, 64498, Note_on_c, 0, 81, 96
1, 64498, Control_c, 0, 64, 0
1, 64507, Note_on_c, 0, 53, 72
1, 64522, Note_off_c, 0, 84, 57
1, 64543, Control_c, 0, 64, 31
1, 64557, Control_c, 0, 64, 58
1, 64572, Control_c, 0, 64, 68
1, 64587, Control_c, 0, 64, 76
1, 64599, Note_off_c, 0, 81, 61
1, 64602, Control_c, 0, 64, 88
1, 64617, Control_c, 0, 64, 105
1, 64632, Control_c, 0, 64, 122
1, 64647, Control_c, 0, 64, 127
1, 64665, Note_on_c, 0, 75, 88
1, 64695, Note_off_c, 0, 53, 52
1, 64744, Note_off_c, 0, 75, 62
1, 64755, Note_off_c, 0, 63, 35
1, 64771, Note_off_c, 0, 60, 51
1, 64820, Note_on_c, 0, 54, 81
1, 64820, Note_on_c, 0, 84, 91
1, 64990, Note_off_c, 0, 54, 36
1, 64996, Control_c, 0, 64, 111
1, 65010, Control_c, 0, 64, 93
1, 65012, Note_on_c, 0, 60, 44
1, 65025, Control_c, 0, 64, 73
1, 65031, Note_on_c, 0, 63, 82
1, 65034, Note_on_c, 0, 81, 90
1, 65040, Control_c, 0, 64, 56
1, 65049, Note_on_c, 0, 53, 67
1, 65055, Control_c, 0, 64, 0
1, 65058, Note_off_c, 0, 84, 54
1, 65366, Control_c, 0, 64, 16
1, 65380, Control_c, 0, 64, 17
1, 65440, Control_c, 0, 64, 18
1, 65632, Control_c, 0, 64, 17
1, 65654, Control_c, 0, 64, 16
1, 65669, Control_c, 0, 64, 16
1, 65724, Note_off_c, 0, 53, 42
1, 65731, Note_off_c, 0, 63, 58
1, 65751, Note_off_c, 0, 81, 60
1, 65766, Note_off_c, 0, 60, 55
1, 66048, Note_on_c, 0, 65, 57
1, 66076, Note_off_c, 0, 65, 61
1, 66217, Note_on_c, 0, 70, 72
1, 66273, Note_off_c, 0, 70, 52
1, 66391, Note_on_c, 0, 65, 60
1, 66435, Note_off_c, 0, 65, 61
1, 66557, Note_on_c, 0, 70, 70
1, 66617, Note_off_c, 0, 70, 55
1, 66700, Control_c, 0, 64, 0
1, 66716, Note_on_c, 0, 74, 78
1, 66769, Note_off_c, 0, 74, 59
1, 66878, Note_on_c, 0, 70, 67
1, 66917, Note_off_c, 0, 70, 59
1, 67036, Note_on_c, 0, 74, 70
1, 67038, Note_on_c, 0, 53, 47
1, 67076, Note_off_c, 0, 74, 53
1, 67080, Note_off_c, 0, 53, 63
1, 67214, Note_on_c, 0, 77, 62
1, 67216, Note_on_c, 0, 58, 54
1, 67253, Note_off_c, 0, 58, 62
1, 67378, Note_on_c, 0, 53, 50
1, 67419, Note_off_c, 0, 53, 62
1, 67440, Note_off_c, 0, 77, 56
1, 67540, Note_on_c, 0, 58, 60
1, 67542, Note_on_c, 0, 77, 77
1, 67576, Note_off_c, 0, 58, 60
1, 67587, Note_off_c, 0, 77, 57
1, 67698, Note_on_c, 0, 77, 72
1, 67708, Note_on_c, 0, 62, 60
1, 67750, Note_off_c, 0, 62, 53
1, 67860, Note_on_c, 0, 58, 61
1, 67900, Note_off_c, 0, 58, 62
1, 68010, Note_on_c, 0, 62, 65
1, 68029, Note_on_c, 0, 82, 63
1, 68035, Note_off_c, 0, 77, 55
1, 68037, Note_off_c, 0, 62, 67
1, 68197, Note_on_c, 0, 65, 55
1, 68200, Note_on_c, 0, 81, 63
1, 68278, Note_on_c, 0, 79, 58
1, 68291, Note_off_c, 0, 81, 57
1, 68302, Note_off_c, 0, 82, 36
1, 68332, Note_off_c, 0, 79, 58
1, 68342, Note_on_c, 0, 77, 65
1, 68397, Note_off_c, 0, 65, 61
1, 68421, Note_on_c, 0, 79, 64
1, 68424, Note_off_c, 0, 77, 58
1, 68504, Note_on_c, 0, 81, 68
1, 68507, Note_on_c, 0, 65, 58
1, 68527, Note_off_c, 0, 65, 63
1, 68546, Note_off_c, 0, 79, 53
1, 68572, Note_on_c, 0, 82, 61
1, 68613, Note_off_c, 0, 81, 60
1, 68659, Note_on_c, 0, 65, 49
1, 68661, Note_on_c, 0, 84, 75
1, 68670, Note_off_c, 0, 82, 58
1, 68736, Note_on_c, 0, 82, 64
1, 68772, Note_off_c, 0, 84, 54
1, 68800, Note_off_c, 0, 82, 62
1, 68801, Note_on_c, 0, 81, 74
1, 68878, Note_on_c, 0, 82, 76
1, 68884, Note_off_c, 0, 81, 61
1, 68911, Note_off_c, 0, 82, 61
1, 68950, Note_off_c, 0, 65, 57
1, 68955, Note_on_c, 0, 70, 61
1, 68960, Note_on_c, 0, 84, 77
1, 69024, Note_on_c, 0, 86, 71
1, 69053, Note_off_c, 0, 84, 52
1, 69079, Note_off_c, 0, 70, 58
1, 69100, Note_on_c, 0, 69, 60
1, 69106, Note_on_c, 0, 87, 79
1, 69133, Note_off_c, 0, 86, 59
1, 69158, Note_off_c, 0, 87, 62
1, 69187, Note_on_c, 0, 67, 58
1, 69192, Note_off_c, 0, 69, 57
1, 69259, Note_off_c, 0, 67, 59
1, 69266, Note_on_c, 0, 65, 65
1, 69267, Note_on_c, 0, 77, 71
1, 69320, Note_off_c, 0, 77, 57
1, 69345, Note_off_c, 0, 65, 58
1, 69349, Note_on_c, 0, 67, 63
1, 69386, Note_off_c, 0, 67, 59
1, 69421, Note_on_c, 0, 69, 66
1, 69428, Note_on_c, 0, 87, 85
1, 69486, Note_off_c, 0, 69, 59
1, 69497, Note_on_c, 0, 70, 65
1, 69564, Note_off_c, 0, 70, 56
1, 69567, Note_on_c, 0, 72, 68
1, 69652, Note_off_c, 0, 72, 61
1, 69658, Note_on_c, 0, 70, 57
1, 69712, Note_off_c, 0, 70, 58
1, 69733, Note_on_c, 0, 69, 55
1, 69744, Note_on_c, 0, 77, 74
1, 69763, Note_off_c, 0, 87, 55
1, 69777, Note_off_c, 0, 77, 59
1, 69817, Note_on_c, 0, 70, 60
1, 69844, Note_off_c, 0, 69, 43
1, 69896, Note_off_c, 0, 70, 59
1, 69898, Note_on_c, 0, 72, 67
1, 69900, Note_on_c, 0, 87, 71
1, 69926, Note_off_c, 0, 72, 65
1, 69971, Note_on_c, 0, 74, 74
1, 70058, Note_on_c, 0, 75, 77
1, 70068, Note_off_c, 0, 74, 57
1, 70114, Note_off_c, 0, 87, 59
1, 70121, Note_on_c, 0, 89, 75
1, 70222, Note_on_c, 0, 87, 79
1, 70293, Note_on_c, 0, 86, 73
1, 70293, Note_off_c, 0, 89, 52
1, 70299, Note_off_c, 0, 75, 60
1, 70315, Note_on_c, 0, 77, 68
1, 70326, Note_off_c, 0, 87, 59
1, 70367, Note_off_c, 0, 86, 61
1, 70372, Note_on_c, 0, 84, 74
1, 70388, Note_off_c, 0, 77, 58
1, 70388, Note_on_c, 0, 75, 73
1, 70407, Note_off_c, 0, 75, 71
1, 70450, Note_off_c, 0, 84, 52
1, 70453, Note_on_c, 0, 82, 76
1, 70463, Note_on_c, 0, 74, 75
1, 70528, Note_on_c, 0, 81, 79
1, 70528, Note_off_c, 0, 74, 52
1, 70540, Note_off_c, 0, 82, 60
1, 70546, Note_on_c, 0, 72, 67
1, 70591, Note_off_c, 0, 81, 61
1, 70600, Note_on_c, 0, 82, 75
1, 70603, Note_off_c, 0, 72, 54
1, 70626, Note_on_c, 0, 74, 75
1, 70683, Note_on_c, 0, 81, 80
1, 70691, Note_off_c, 0, 74, 61
1, 70692, Note_on_c, 0, 72, 67
1, 70752, Note_on_c, 0, 79, 78
1, 70764, Note_off_c, 0, 72, 59
1, 70767, Note_on_c, 0, 70, 71
1, 70772, Note_off_c, 0, 81, 58
1, 70782, Note_off_c, 0, 82, 41
1, 70787, Note_off_c, 0, 70, 68
1, 70821, Note_off_c, 0, 79, 62
1, 70834, Note_on_c, 0, 77, 72
1, 70838, Note_on_c, 0, 69, 76
1, 70913, Note_on_c, 0, 75, 74
1, 70913, Note_off_c, 0, 77, 61
1, 70917, Note_off_c, 0, 69, 64
1, 70924, Note_on_c, 0, 67, 68
1, 70997, Note_off_c, 0, 75, 60
1, 70998, Note_on_c, 0, 66, 77
1, 71003, Note_off_c, 0, 67, 61
1, 71007, Note_on_c, 0, 74, 81
1, 71086, Note_off_c, 0, 74, 60
1, 71091, Note_on_c, 0, 75, 73
1, 71173, Note_off_c, 0, 75, 60
1, 71177, Note_on_c, 0, 74, 78
1, 71240, Note_on_c, 0, 84, 72
1, 71244, Note_off_c, 0, 74, 60
1, 71324, Note_on_c, 0, 67, 61
1, 71324, Note_off_c, 0, 66, 57
1, 71333, Note_on_c, 0, 75, 69
1, 71336, Note_off_c, 0, 84, 58
1, 71397, Note_on_c, 0, 84, 63
1, 71416, Note_off_c, 0, 75, 59
1, 71480, Note_off_c, 0, 67, 56
1, 71482, Note_on_c, 0, 74, 73
1, 71487, Note_on_c, 0, 66, 49
1, 71498, Note_off_c, 0, 84, 48
1, 71560, Note_off_c, 0, 74, 61
1, 71561, Note_on_c, 0, 75, 63
1, 71649, Note_off_c, 0, 75, 59
1, 71662, Note_on_c, 0, 74, 64
1, 71709, Note_off_c, 0, 74, 56
1, 71719, Note_on_c, 0, 84, 63
1, 71799, Note_off_c, 0, 66, 52
1, 71800, Note_on_c, 0, 67, 54
1, 71801, Note_off_c, 0, 84, 53
1, 71808, Note_on_c, 0, 75, 59
1, 71884, Note_off_c, 0, 75, 54
1, 71895, Note_on_c, 0, 84, 53
1, 71944, Note_off_c, 0, 84, 52
1, 71965, Note_on_c, 0, 66, 34
1, 71970, Note_off_c, 0, 67, 35
1, 71981, Note_on_c, 0, 74, 63
1, 72016, Note_off_c, 0, 74, 62
1, 72054, Note_on_c, 0, 84, 71
1, 72127, Note_on_c, 0, 81, 72
1, 72150, Note_off_c, 0, 84, 46
1, 72184, Note_off_c, 0, 81, 62
1, 72204, Note_on_c, 0, 79, 69
1, 72268, Note_off_c, 0, 79, 54
1, 72276, Note_on_c, 0, 78, 72
1, 72350, Note_on_c, 0, 75, 70
1, 72382, Note_off_c, 0, 78, 46
1, 72433, Note_on_c, 0, 74, 72
1, 72433, Note_off_c, 0, 75, 59
1, 72474, Note_off_c, 0, 66, 57
1, 72500, Note_off_c, 0, 74, 58
1, 72504, Note_on_c, 0, 75, 58
1, 72582, Note_on_c, 0, 74, 63
1, 72615, Note_off_c, 0, 75, 48
1, 72643, Note_off_c, 0, 74, 56
1, 72653, Note_on_c, 0, 72, 66
1, 72717, Note_off_c, 0, 72, 55
1, 72727, Note_on_c, 0, 50, 54
1, 72741, Note_on_c, 0, 70, 61
1, 72766, Note_off_c, 0, 50, 62
1, 72802, Note_off_c, 0, 70, 49
1, 72804, Note_on_c, 0, 69, 60
1, 72883, Note_off_c, 0, 69, 53
1, 72892, Note_on_c, 0, 55, 58
1, 72900, Note_on_c, 0, 67, 56
1, 72925, Note_off_c, 0, 55, 62
1, 73059, Note_on_c, 0, 50, 52
1, 73101, Note_off_c, 0, 50, 63
1, 73103, Note_off_c, 0, 67, 59
1, 73238, Note_on_c, 0, 55, 57
1, 73239, Note_on_c, 0, 62, 63
1, 73267, Note_off_c, 0, 55, 61
1, 73276, Note_off_c, 0, 62, 56
1, 73398, Note_on_c, 0, 67, 67
1, 73404, Note_on_c, 0, 58, 59
1, 73440, Note_off_c, 0, 58, 61
1, 73452, Note_off_c, 0, 67, 56
1, 73567, Note_on_c, 0, 62, 71
1, 73570, Note_on_c, 0, 55, 58
1, 73603, Note_off_c, 0, 55, 62
1, 73627, Note_off_c, 0, 62, 57
1, 73729, Note_on_c, 0, 67, 73
1, 73730, Note_on_c, 0, 58, 66
1, 73757, Note_off_c, 0, 58, 64
1, 73784, Note_off_c, 0, 67, 56
1, 73902, Note_on_c, 0, 62, 72
1, 73903, Note_on_c, 0, 70, 75
1, 73983, Note_off_c, 0, 70, 58
1, 74061, Note_on_c, 0, 67, 69
1, 74106, Note_off_c, 0, 62, 59
1, 74118, Note_off_c, 0, 67, 57
1, 74219, Note_on_c, 0, 62, 66
1, 74220, Note_on_c, 0, 70, 68
1, 74247, Note_off_c, 0, 62, 63
1, 74253, Note_off_c, 0, 70, 59
1, 74397, Note_on_c, 0, 74, 58
1, 74401, Note_on_c, 0, 62, 37
1, 74608, Note_off_c, 0, 74, 55
1, 74693, Note_off_c, 0, 62, 58
1, 74729, Note_on_c, 0, 67, 61
1, 74735, Note_on_c, 0, 74, 63
1, 74769, Note_off_c, 0, 74, 62
1, 74853, Note_off_c, 0, 67, 35
1, 74874, Note_on_c, 0, 66, 55
1, 74880, Note_on_c, 0, 74, 66
1, 74939, Note_off_c, 0, 66, 55
1, 74978, Note_on_c, 0, 64, 52
1, 75034, Note_off_c, 0, 64, 56
1, 75044, Note_on_c, 0, 66, 61
1, 75106, Note_off_c, 0, 66, 54
1, 75107, Note_on_c, 0, 62, 57
1, 75164, Note_on_c, 0, 70, 63
1, 75175, Note_off_c, 0, 74, 59
1, 75177, Note_on_c, 0, 79, 67
1, 75245, Note_off_c, 0, 70, 60
1, 75246, Note_off_c, 0, 62, 58
1, 75342, Note_on_c, 0, 69, 61
1, 75348, Note_on_c, 0, 78, 61
1, 75393, Note_off_c, 0, 79, 52
1, 75418, Note_off_c, 0, 78, 60
1, 75428, Note_off_c, 0, 69, 62
1, 75429, Note_on_c, 0, 76, 62
1, 75501, Note_on_c, 0, 78, 57
1, 75521, Note_off_c, 0, 76, 57
1, 75559, Note_off_c, 0, 78, 59
1, 75568, Note_on_c, 0, 74, 65
1, 75652, Note_on_c, 0, 82, 70
1, 75655, Note_on_c, 0, 67, 65
1, 75669, Note_off_c, 0, 74, 58
1, 75798, Note_off_c, 0, 67, 60
1, 75807, Note_on_c, 0, 66, 61
1, 75808, Note_on_c, 0, 81, 70
1, 75873, Note_off_c, 0, 66, 52
1, 75892, Note_on_c, 0, 64, 59
1, 75957, Note_off_c, 0, 64, 58
1, 75968, Note_on_c, 0, 66, 62
1, 75984, Note_off_c, 0, 81, 57
1, 76009, Note_off_c, 0, 82, 55
1, 76035, Note_on_c, 0, 62, 63
1, 76056, Note_off_c, 0, 66, 57
1, 76112, Note_on_c, 0, 81, 71
1, 76120, Note_off_c, 0, 62, 54
1, 76120, Note_on_c, 0, 72, 74
1, 76138, Control_c, 0, 64, 46
1, 76153, Control_c, 0, 64, 57
1, 76168, Control_c, 0, 64, 62
1, 76183, Control_c, 0, 64, 65
1, 76198, Control_c, 0, 64, 66
1, 76213, Control_c, 0, 64, 66
1, 76228, Control_c, 0, 64, 67
1, 76257, Control_c, 0, 64, 67
1, 76272, Control_c, 0, 64, 67
1, 76283, Note_on_c, 0, 70, 76
1, 76284, Note_on_c, 0, 79, 66
1, 76286, Note_off_c, 0, 72, 62
1, 76287, Control_c, 0, 64, 64
1, 76302, Control_c, 0, 64, 57
1, 76316, Control_c, 0, 64, 41
1, 76338, Note_off_c, 0, 81, 33
1, 76342, Note_off_c, 0, 79, 61
1, 76355, Note_on_c, 0, 78, 64
1, 76361, Control_c, 0, 64, 26
1, 76376, Control_c, 0, 64, 51
1, 76390, Control_c, 0, 64, 61
1, 76405, Control_c, 0, 64, 66
1, 76420, Control_c, 0, 64, 69
1, 76430, Note_on_c, 0, 79, 68
1, 76435, Control_c, 0, 64, 71
1, 76450, Control_c, 0, 64, 72
1, 76457, Note_off_c, 0, 78, 51
1, 76487, Note_off_c, 0, 79, 61
1, 76502, Note_on_c, 0, 74, 75
1, 76508, Control_c, 0, 64, 72
1, 76523, Control_c, 0, 64, 69
1, 76538, Control_c, 0, 64, 62
1, 76544, Note_off_c, 0, 70, 54
1, 76553, Control_c, 0, 64, 49
1, 76568, Note_on_c, 0, 69, 68
1, 76568, Control_c, 0, 64, 21
1, 76573, Note_off_c, 0, 74, 58
1, 76597, Note_on_c, 0, 84, 66
1, 76597, Control_c, 0, 64, 16
1, 76612, Control_c, 0, 64, 34
1, 76627, Control_c, 0, 64, 50
1, 76642, Control_c, 0, 64, 58
1, 76657, Control_c, 0, 64, 61
1, 76672, Control_c, 0, 64, 63
1, 76702, Control_c, 0, 64, 62
1, 76716, Control_c, 0, 64, 61
1, 76731, Control_c, 0, 64, 57
1, 76745, Control_c, 0, 64, 47
1, 76753, Note_off_c, 0, 84, 49
1, 76758, Note_off_c, 0, 69, 60
1, 76760, Control_c, 0, 64, 19
1, 76761, Note_on_c, 0, 67, 52
1, 76763, Note_on_c, 0, 82, 57
1, 76775, Control_c, 0, 64, 0
1, 76827, Note_off_c, 0, 82, 55
1, 76838, Note_on_c, 0, 74, 61
1, 76850, Control_c, 0, 64, 20
1, 76865, Control_c, 0, 64, 50
1, 76886, Control_c, 0, 64, 59
1, 76901, Control_c, 0, 64, 63
1, 76916, Control_c, 0, 64, 64
1, 76925, Note_off_c, 0, 74, 61
1, 76931, Control_c, 0, 64, 65
1, 76934, Note_on_c, 0, 75, 58
1, 76946, Control_c, 0, 64, 65
1, 76961, Control_c, 0, 64, 66
1, 76976, Control_c, 0, 64, 67
1, 76991, Control_c, 0, 64, 68
1, 76994, Note_off_c, 0, 75, 56
1, 77005, Control_c, 0, 64, 69
1, 77013, Note_on_c, 0, 74, 67
1, 77020, Control_c, 0, 64, 71
1, 77035, Control_c, 0, 64, 74
1, 77050, Control_c, 0, 64, 76
1, 77065, Control_c, 0, 64, 79
1, 77077, Note_off_c, 0, 74, 54
1, 77080, Control_c, 0, 64, 81
1, 77094, Control_c, 0, 64, 83
1, 77099, Note_on_c, 0, 75, 66
1, 77109, Control_c, 0, 64, 84
1, 77124, Control_c, 0, 64, 85
1, 77138, Control_c, 0, 64, 86
1, 77153, Control_c, 0, 64, 88
1, 77166, Note_off_c, 0, 75, 54
1, 77168, Control_c, 0, 64, 90
1, 77169, Note_on_c, 0, 74, 65
1, 77183, Control_c, 0, 64, 92
1, 77198, Control_c, 0, 64, 94
1, 77212, Control_c, 0, 64, 95
1, 77227, Control_c, 0, 64, 97
1, 77238, Note_off_c, 0, 74, 58
1, 77239, Note_on_c, 0, 81, 70
1, 77242, Control_c, 0, 64, 98
1, 77255, Note_on_c, 0, 65, 52
1, 77257, Control_c, 0, 64, 99
1, 77272, Control_c, 0, 64, 101
1, 77286, Control_c, 0, 64, 102
1, 77301, Control_c, 0, 64, 104
1, 77305, Note_off_c, 0, 67, 30
1, 77316, Control_c, 0, 64, 106
1, 77321, Note_off_c, 0, 81, 60
1, 77322, Note_on_c, 0, 75, 68
1, 77331, Control_c, 0, 64, 108
1, 77345, Control_c, 0, 64, 110
1, 77360, Control_c, 0, 64, 111
1, 77375, Control_c, 0, 64, 113
1, 77390, Control_c, 0, 64, 114
1, 77404, Note_off_c, 0, 75, 59
1, 77405, Control_c, 0, 64, 115
1, 77407, Note_on_c, 0, 76, 75
1, 77420, Control_c, 0, 64, 115
1, 77435, Control_c, 0, 64, 116
1, 77464, Control_c, 0, 64, 116
1, 77470, Note_off_c, 0, 76, 61
1, 77483, Note_on_c, 0, 75, 64
1, 77551, Note_off_c, 0, 75, 56
1, 77560, Note_on_c, 0, 76, 68
1, 77593, Note_off_c, 0, 76, 57
1, 77631, Note_on_c, 0, 75, 55
1, 77635, Control_c, 0, 64, 115
1, 77650, Control_c, 0, 64, 112
1, 77665, Control_c, 0, 64, 108
1, 77680, Control_c, 0, 64, 103
1, 77695, Control_c, 0, 64, 97
1, 77709, Control_c, 0, 64, 90
1, 77724, Control_c, 0, 64, 83
1, 77739, Control_c, 0, 64, 75
1, 77742, Note_on_c, 0, 64, 46
1, 77745, Note_on_c, 0, 80, 56
1, 77745, Note_off_c, 0, 75, 56
1, 77748, Note_off_c, 0, 65, 41
1, 77754, Control_c, 0, 64, 68
1, 77769, Control_c, 0, 64, 63
1, 77784, Control_c, 0, 64, 59
1, 77790, Note_off_c, 0, 80, 62
1, 77799, Control_c, 0, 64, 57
1, 77813, Control_c, 0, 64, 56
1, 77832, Note_on_c, 0, 81, 70
1, 77906, Note_on_c, 0, 83, 72
1, 77912, Note_off_c, 0, 81, 56
1, 77917, Control_c, 0, 64, 56
1, 77979, Note_on_c, 0, 84, 73
1, 78003, Note_off_c, 0, 83, 52
1, 78045, Note_on_c, 0, 86, 73
1, 78045, Note_off_c, 0, 84, 60
1, 78121, Note_on_c, 0, 84, 77
1, 78195, Note_on_c, 0, 83, 83
1, 78202, Note_off_c, 0, 86, 58
1, 78211, Note_off_c, 0, 84, 58
1, 78265, Note_off_c, 0, 83, 61
1, 78267, Note_on_c, 0, 81, 77
1, 78338, Note_off_c, 0, 64, 56
1, 78348, Note_off_c, 0, 81, 53
1, 78357, Note_on_c, 0, 79, 71
1, 78429, Note_on_c, 0, 77, 72
1, 78491, Note_on_c, 0, 76, 74
1, 78508, Note_off_c, 0, 79, 37
1, 78514, Note_off_c, 0, 77, 49
1, 78547, Control_c, 0, 64, 55
1, 78559, Note_off_c, 0, 76, 62
1, 78562, Control_c, 0, 64, 51
1, 78574, Note_on_c, 0, 74, 60
1, 78577, Control_c, 0, 64, 44
1, 78591, Control_c, 0, 64, 29
1, 78606, Control_c, 0, 64, 0
1, 78654, Note_on_c, 0, 57, 54
1, 78654, Note_off_c, 0, 74, 54
1, 78658, Note_on_c, 0, 72, 54
1, 78666, Control_c, 0, 64, 32
1, 78681, Control_c, 0, 64, 55
1, 78696, Control_c, 0, 64, 63
1, 78710, Control_c, 0, 64, 69
1, 78725, Control_c, 0, 64, 75
1, 78740, Control_c, 0, 64, 82
1, 78747, Note_on_c, 0, 64, 57
1, 78755, Control_c, 0, 64, 87
1, 78770, Control_c, 0, 64, 91
1, 78784, Control_c, 0, 64, 94
1, 78799, Control_c, 0, 64, 96
1, 78803, Note_off_c, 0, 64, 56
1, 78814, Control_c, 0, 64, 97
1, 78827, Note_on_c, 0, 65, 63
1, 78864, Note_off_c, 0, 72, 35
1, 78881, Note_off_c, 0, 65, 59
1, 78899, Note_on_c, 0, 64, 57
1, 78956, Note_off_c, 0, 64, 51
1, 78989, Note_on_c, 0, 65, 64
1, 78991, Control_c, 0, 64, 96
1, 79021, Control_c, 0, 64, 95
1, 79036, Control_c, 0, 64, 95
1, 79044, Note_off_c, 0, 57, 39
1, 79051, Note_on_c, 0, 64, 58
1, 79051, Control_c, 0, 64, 93
1, 79065, Control_c, 0, 64, 90
1, 79079, Note_off_c, 0, 65, 36
1, 79080, Control_c, 0, 64, 83
1, 79095, Control_c, 0, 64, 73
1, 79110, Control_c, 0, 64, 59
1, 79132, Control_c, 0, 64, 42
1, 79133, Note_on_c, 0, 55, 64
1, 79138, Note_on_c, 0, 71, 71
1, 79145, Note_off_c, 0, 64, 58
1, 79147, Control_c, 0, 64, 32
1, 79162, Control_c, 0, 64, 33
1, 79177, Control_c, 0, 64, 46
1, 79191, Control_c, 0, 64, 60
1, 79206, Control_c, 0, 64, 67
1, 79208, Note_off_c, 0, 55, 58
1, 79221, Control_c, 0, 64, 76
1, 79235, Control_c, 0, 64, 86
1, 79243, Note_on_c, 0, 65, 59
1, 79250, Control_c, 0, 64, 95
1, 79267, Control_c, 0, 64, 102
1, 79281, Control_c, 0, 64, 107
1, 79296, Control_c, 0, 64, 108
1, 79312, Note_on_c, 0, 66, 75
1, 79314, Note_off_c, 0, 65, 61
1, 79378, Note_on_c, 0, 65, 63
1, 79391, Note_off_c, 0, 66, 60
1, 79446, Note_off_c, 0, 65, 59
1, 79470, Note_on_c, 0, 66, 74
1, 79525, Note_on_c, 0, 65, 64
1, 79527, Note_off_c, 0, 66, 60
1, 79548, Control_c, 0, 64, 107
1, 79551, Note_off_c, 0, 65, 66
1, 79563, Control_c, 0, 64, 105
1, 79578, Control_c, 0, 64, 100
1, 79593, Control_c, 0, 64, 94
1, 79607, Control_c, 0, 64, 88
1, 79622, Control_c, 0, 64, 80
1, 79637, Control_c, 0, 64, 71
1, 79651, Control_c, 0, 64, 62
1, 79656, Note_on_c, 0, 66, 52
1, 79666, Control_c, 0, 64, 50
1, 79667, Note_on_c, 0, 54, 58
1, 79681, Control_c, 0, 64, 34
1, 79696, Control_c, 0, 64, 0
1, 79703, Note_off_c, 0, 71, 55
1, 79733, Note_on_c, 0, 70, 55
1, 79805, Note_on_c, 0, 73, 64
1, 79811, Note_off_c, 0, 70, 58
1, 79823, Note_off_c, 0, 73, 65
1, 79917, Note_on_c, 0, 78, 67
1, 79954, Note_off_c, 0, 78, 57
1, 79979, Note_on_c, 0, 82, 72
1, 80043, Note_on_c, 0, 85, 78
1, 80098, Note_off_c, 0, 82, 48
1, 80137, Note_on_c, 0, 88, 84
1, 80147, Note_off_c, 0, 85, 61
1, 80224, Note_on_c, 0, 85, 77
1, 80295, Note_on_c, 0, 82, 82
1, 80323, Note_off_c, 0, 85, 63
1, 80334, Note_off_c, 0, 88, 58
1, 80340, Note_off_c, 0, 54, 56
1, 80355, Note_off_c, 0, 82, 64
1, 80360, Note_on_c, 0, 79, 74
1, 80440, Note_off_c, 0, 66, 47
1, 80441, Note_off_c, 0, 79, 58
1, 80443, Note_on_c, 0, 78, 71
1, 80517, Note_on_c, 0, 76, 68
1, 80549, Note_off_c, 0, 78, 41
1, 80601, Note_on_c, 0, 74, 68
1, 80607, Note_off_c, 0, 76, 54
1, 80690, Note_on_c, 0, 59, 53
1, 80764, Note_on_c, 0, 62, 62
1, 80780, Note_off_c, 0, 74, 54
1, 80806, Note_off_c, 0, 59, 42
1, 80848, Note_on_c, 0, 66, 64
1, 80879, Note_off_c, 0, 62, 53
1, 80905, Note_on_c, 0, 71, 75
1, 80926, Note_off_c, 0, 66, 60
1, 80967, Note_on_c, 0, 74, 87
1, 80970, Note_off_c, 0, 71, 61
1, 81067, Note_on_c, 0, 77, 78
1, 81070, Note_on_c, 0, 71, 82
1, 81086, Note_off_c, 0, 74, 58
1, 81150, Note_on_c, 0, 55, 57
1, 81235, Note_on_c, 0, 59, 69
1, 81254, Note_off_c, 0, 71, 58
1, 81298, Note_on_c, 0, 62, 71
1, 81301, Note_off_c, 0, 77, 52
1, 81332, Note_off_c, 0, 55, 35
1, 81365, Note_on_c, 0, 67, 70
1, 81389, Note_off_c, 0, 59, 57
1, 81397, Note_off_c, 0, 62, 59
1, 81423, Note_on_c, 0, 71, 61
1, 81425, Note_off_c, 0, 67, 60
1, 81454, Note_on_c, 0, 77, 50
1, 81514, Note_off_c, 0, 71, 56
1, 81531, Note_on_c, 0, 54, 63
1, 81557, Note_off_c, 0, 77, 60
1, 81562, Note_on_c, 0, 78, 64
1, 81600, Note_off_c, 0, 78, 57
1, 81641, Note_on_c, 0, 73, 62
1, 81706, Note_on_c, 0, 58, 52
1, 81706, Note_on_c, 0, 61, 51
1, 81710, Note_off_c, 0, 73, 61
1, 81717, Note_on_c, 0, 78, 63
1, 81744, Note_off_c, 0, 61, 60
1, 81779, Note_off_c, 0, 58, 56
1, 81791, Note_on_c, 0, 82, 68
1, 81825, Note_off_c, 0, 78, 55
1, 81873, Note_on_c, 0, 85, 68
1, 81873, Note_off_c, 0, 82, 60
1, 81874, Note_off_c, 0, 54, 55
1, 81881, Note_on_c, 0, 61, 49
1, 81900, Note_on_c, 0, 58, 45
1, 81963, Note_on_c, 0, 82, 72
1, 81978, Note_off_c, 0, 85, 59
1, 82008, Note_off_c, 0, 61, 37
1, 82018, Note_on_c, 0, 54, 52
1, 82034, Note_on_c, 0, 86, 74
1, 82040, Note_off_c, 0, 82, 61
1, 82048, Note_off_c, 0, 58, 32
1, 82112, Note_on_c, 0, 83, 79
1, 82133, Note_off_c, 0, 86, 60
1, 82199, Note_on_c, 0, 59, 50
1, 82203, Note_on_c, 0, 62, 49
1, 82203, Note_off_c, 0, 83, 62
1, 82204, Note_on_c, 0, 86, 77
1, 82237, Note_off_c, 0, 62, 54
1, 82264, Note_off_c, 0, 59, 55
1, 82277, Note_on_c, 0, 83, 74
1, 82356, Note_on_c, 0, 62, 56
1, 82362, Note_on_c, 0, 80, 74
1, 82370, Note_on_c, 0, 59, 53
1, 82376, Note_off_c, 0, 54, 60
1, 82380, Note_off_c, 0, 86, 54
1, 82391, Note_off_c, 0, 83, 62
1, 82402, Note_off_c, 0, 59, 63
1, 82404, Note_off_c, 0, 62, 56
1, 82437, Note_off_c, 0, 80, 61
1, 82440, Note_on_c, 0, 77, 70
1, 82511, Note_on_c, 0, 54, 63
1, 82512, Note_off_c, 0, 77, 56
1, 82521, Note_on_c, 0, 78, 69
1, 82584, Note_off_c, 0, 78, 61
1, 82608, Note_on_c, 0, 73, 71
1, 82677, Note_on_c, 0, 61, 54
1, 82679, Note_on_c, 0, 58, 54
1, 82684, Note_off_c, 0, 73, 61
1, 82684, Note_on_c, 0, 78, 78
1, 82707, Note_off_c, 0, 61, 60
1, 82726, Note_off_c, 0, 58, 55
1, 82753, Note_on_c, 0, 82, 77
1, 82805, Note_off_c, 0, 78, 59
1, 82833, Note_off_c, 0, 54, 58
1, 82836, Note_on_c, 0, 58, 60
1, 82842, Note_on_c, 0, 61, 45
1, 82843, Note_on_c, 0, 85, 75
1, 82851, Note_off_c, 0, 82, 61
1, 82923, Note_on_c, 0, 82, 74
1, 82932, Note_off_c, 0, 61, 53
1, 82936, Note_off_c, 0, 85, 63
1, 82991, Note_off_c, 0, 82, 63
1, 82993, Note_on_c, 0, 54, 58
1, 82998, Note_off_c, 0, 58, 44
1, 83005, Note_on_c, 0, 86, 79
1, 83075, Note_on_c, 0, 83, 83
1, 83093, Note_off_c, 0, 86, 61
1, 83155, Note_on_c, 0, 86, 79
1, 83160, Note_on_c, 0, 62, 61
1, 83160, Note_off_c, 0, 83, 62
1, 83164, Note_on_c, 0, 59, 56
1, 83197, Note_off_c, 0, 62, 60
1, 83222, Note_off_c, 0, 59, 55
1, 83231, Note_on_c, 0, 83, 77
1, 83313, Note_on_c, 0, 80, 75
1, 83314, Note_on_c, 0, 62, 55
1, 83336, Note_on_c, 0, 59, 44
1, 83340, Note_off_c, 0, 54, 55
1, 83340, Note_off_c, 0, 83, 61
1, 83343, Note_off_c, 0, 62, 59
1, 83364, Note_off_c, 0, 59, 54
1, 83370, Note_off_c, 0, 86, 46
1, 83376, Note_on_c, 0, 77, 62
1, 83395, Note_off_c, 0, 80, 60
1, 83486, Note_on_c, 0, 54, 43
1, 83495, Note_off_c, 0, 77, 59
1, 83500, Note_on_c, 0, 78, 66
1, 83504, Note_on_c, 0, 58, 47
1, 83504, Note_on_c, 0, 61, 44
1, 83685, Note_off_c, 0, 78, 59
1, 83689, Note_on_c, 0, 73, 76
1, 83851, Note_on_c, 0, 82, 77
1, 83896, Note_off_c, 0, 73, 56
1, 84023, Note_on_c, 0, 78, 77
1, 84169, Note_off_c, 0, 54, 58
1, 84188, Note_on_c, 0, 73, 79
1, 84211, Note_off_c, 0, 58, 59
1, 84218, Note_off_c, 0, 61, 56
1, 84270, Note_off_c, 0, 82, 41
1, 84292, Note_off_c, 0, 78, 36
1, 84359, Note_on_c, 0, 82, 73
1, 84397, Note_off_c, 0, 73, 55
1, 84564, Note_on_c, 0, 78, 54
1, 84565, Note_on_c, 0, 66, 30
1, 84633, Note_off_c, 0, 82, 37
1, 84735, Note_on_c, 0, 61, 43
1, 84893, Control_c, 0, 64, 16
1, 84899, Note_on_c, 0, 70, 52
1, 84908, Control_c, 0, 64, 16
1, 84910, Note_off_c, 0, 66, 36
1, 84923, Control_c, 0, 64, 18
1, 84938, Control_c, 0, 64, 19
1, 84952, Control_c, 0, 64, 20
1, 84967, Control_c, 0, 64, 21
1, 84982, Control_c, 0, 64, 22
1, 84997, Control_c, 0, 64, 23
1, 85085, Note_on_c, 0, 66, 48
1, 85087, Note_off_c, 0, 61, 52
1, 85152, Control_c, 0, 64, 23
1, 85161, Note_off_c, 0, 78, 39
1, 85167, Control_c, 0, 64, 24
1, 85182, Control_c, 0, 64, 24
1, 85188, Note_off_c, 0, 70, 50
1, 85196, Control_c, 0, 64, 25
1, 85254, Note_on_c, 0, 61, 38
1, 85256, Control_c, 0, 64, 25
1, 85270, Control_c, 0, 64, 26
1, 85285, Control_c, 0, 64, 28
1, 85300, Control_c, 0, 64, 29
1, 85315, Control_c, 0, 64, 30
1, 85330, Control_c, 0, 64, 30
1, 85344, Control_c, 0, 64, 31
1, 85374, Control_c, 0, 64, 31
1, 85376, Note_off_c, 0, 66, 35
1, 85388, Control_c, 0, 64, 32
1, 85403, Control_c, 0, 64, 33
1, 85433, Control_c, 0, 64, 33
1, 85437, Note_on_c, 0, 70, 39
1, 85537, Control_c, 0, 64, 34
1, 85567, Control_c, 0, 64, 34
1, 85596, Control_c, 0, 64, 35
1, 85618, Note_on_c, 0, 78, 38
1, 85638, Note_on_c, 0, 66, 34
1, 85685, Note_off_c, 0, 70, 39
1, 85804, Note_off_c, 0, 61, 22
1, 85817, Note_on_c, 0, 73, 38
1, 85820, Note_off_c, 0, 78, 38
1, 85820, Control_c, 0, 64, 35
1, 85975, Control_c, 0, 64, 36
1, 85989, Note_off_c, 0, 73, 47
1, 86005, Note_on_c, 0, 81, 39
1, 86168, Note_on_c, 0, 78, 45
1, 86213, Control_c, 0, 64, 35
1, 86240, Note_off_c, 0, 81, 30
1, 86348, Note_on_c, 0, 73, 41
1, 86425, Note_off_c, 0, 66, 44
1, 86506, Note_on_c, 0, 81, 41
1, 86507, Note_off_c, 0, 73, 35
1, 86556, Note_off_c, 0, 78, 35
1, 86636, Control_c, 0, 64, 35
1, 86650, Control_c, 0, 64, 34
1, 86699, Note_on_c, 0, 80, 42
1, 86703, Note_on_c, 0, 66, 28
1, 86714, Note_off_c, 0, 81, 34
1, 86718, Note_on_c, 0, 71, 26
1, 86724, Control_c, 0, 64, 35
1, 86739, Control_c, 0, 64, 39
1, 86754, Control_c, 0, 64, 47
1, 86768, Control_c, 0, 64, 55
1, 86783, Control_c, 0, 64, 60
1, 86798, Control_c, 0, 64, 63
1, 86813, Control_c, 0, 64, 66
1, 86828, Control_c, 0, 64, 69
1, 86843, Control_c, 0, 64, 72
1, 86858, Control_c, 0, 64, 76
1, 86872, Control_c, 0, 64, 81
1, 86884, Note_on_c, 0, 73, 48
1, 86887, Control_c, 0, 64, 85
1, 86902, Control_c, 0, 64, 88
1, 86917, Control_c, 0, 64, 90
1, 86932, Control_c, 0, 64, 91
1, 86947, Control_c, 0, 64, 92
1, 86952, Note_off_c, 0, 80, 32
1, 86962, Control_c, 0, 64, 92
1, 86976, Control_c, 0, 64, 93
1, 86998, Note_off_c, 0, 66, 33
1, 87051, Note_off_c, 0, 73, 51
1, 87057, Note_on_c, 0, 83, 51
1, 87071, Note_off_c, 0, 71, 38
1, 87198, Control_c, 0, 64, 92
1, 87213, Control_c, 0, 64, 91
1, 87227, Control_c, 0, 64, 88
1, 87242, Note_on_c, 0, 80, 53
1, 87243, Control_c, 0, 64, 82
1, 87257, Control_c, 0, 64, 73
1, 87259, Note_on_c, 0, 65, 35
1, 87272, Control_c, 0, 64, 63
1, 87287, Control_c, 0, 64, 52
1, 87295, Note_off_c, 0, 83, 40
1, 87302, Control_c, 0, 64, 43
1, 87317, Control_c, 0, 64, 39
1, 87332, Note_off_c, 0, 65, 0
1, 87332, Note_on_c, 0, 65, 3
1, 87346, Control_c, 0, 64, 46
1, 87369, Control_c, 0, 64, 56
1, 87384, Control_c, 0, 64, 62
1, 87398, Control_c, 0, 64, 65
1, 87413, Control_c, 0, 64, 67
1, 87423, Note_on_c, 0, 73, 55
1, 87428, Control_c, 0, 64, 69
1, 87443, Control_c, 0, 64, 71
1, 87458, Control_c, 0, 64, 74
1, 87472, Control_c, 0, 64, 77
1, 87487, Control_c, 0, 64, 79
1, 87492, Note_off_c, 0, 80, 34
1, 87502, Control_c, 0, 64, 81
1, 87517, Control_c, 0, 64, 81
1, 87533, Note_off_c, 0, 65, 49
1, 87561, Control_c, 0, 64, 82
1, 87591, Control_c, 0, 64, 82
1, 87593, Note_on_c, 0, 83, 63
1, 87659, Note_off_c, 0, 73, 36
1, 87739, Control_c, 0, 64, 82
1, 87754, Control_c, 0, 64, 79
1, 87766, Note_on_c, 0, 82, 66
1, 87769, Control_c, 0, 64, 73
1, 87771, Note_on_c, 0, 64, 38
1, 87773, Note_on_c, 0, 67, 40
1, 87784, Control_c, 0, 64, 64
1, 87798, Control_c, 0, 64, 51
1, 87813, Control_c, 0, 64, 32
1, 87828, Control_c, 0, 64, 0
1, 87831, Note_off_c, 0, 83, 42
1, 87887, Control_c, 0, 64, 42
1, 87902, Control_c, 0, 64, 57
1, 87917, Control_c, 0, 64, 62
1, 87932, Control_c, 0, 64, 65
1, 87934, Note_on_c, 0, 73, 69
1, 87946, Control_c, 0, 64, 66
1, 87954, Note_off_c, 0, 82, 57
1, 87961, Control_c, 0, 64, 67
1, 87976, Control_c, 0, 64, 69
1, 87990, Control_c, 0, 64, 70
1, 88005, Control_c, 0, 64, 72
1, 88020, Control_c, 0, 64, 74
1, 88035, Control_c, 0, 64, 75
1, 88051, Control_c, 0, 64, 76
1, 88066, Control_c, 0, 64, 76
1, 88095, Control_c, 0, 64, 77
1, 88115, Note_on_c, 0, 85, 60
1, 88193, Note_off_c, 0, 64, 40
1, 88207, Control_c, 0, 64, 76
1, 88214, Note_off_c, 0, 73, 36
1, 88221, Control_c, 0, 64, 76
1, 88236, Control_c, 0, 64, 75
1, 88251, Control_c, 0, 64, 72
1, 88266, Control_c, 0, 64, 68
1, 88276, Note_off_c, 0, 67, 38
1, 88281, Control_c, 0, 64, 61
1, 88295, Note_on_c, 0, 66, 42
1, 88295, Note_on_c, 0, 82, 56
1, 88295, Control_c, 0, 64, 50
1, 88310, Control_c, 0, 64, 25
1, 88325, Control_c, 0, 64, 0
1, 88388, Note_off_c, 0, 85, 33
1, 88414, Control_c, 0, 64, 24
1, 88428, Control_c, 0, 64, 45
1, 88443, Control_c, 0, 64, 57
1, 88458, Control_c, 0, 64, 62
1, 88473, Control_c, 0, 64, 66
1, 88488, Note_on_c, 0, 73, 53
1, 88488, Control_c, 0, 64, 68
1, 88503, Control_c, 0, 64, 70
1, 88518, Control_c, 0, 64, 72
1, 88533, Control_c, 0, 64, 74
1, 88534, Note_off_c, 0, 66, 58
1, 88547, Control_c, 0, 64, 76
1, 88562, Control_c, 0, 64, 77
1, 88577, Control_c, 0, 64, 78
1, 88592, Control_c, 0, 64, 78
1, 88607, Control_c, 0, 64, 79
1, 88608, Note_off_c, 0, 82, 36
1, 88623, Note_off_c, 0, 73, 56
1, 88653, Note_on_c, 0, 85, 43
1, 88700, Note_off_c, 0, 85, 62
1, 88739, Control_c, 0, 64, 78
1, 88754, Control_c, 0, 64, 78
1, 88769, Control_c, 0, 64, 77
1, 88784, Control_c, 0, 64, 76
1, 88799, Control_c, 0, 64, 75
1, 88813, Control_c, 0, 64, 73
1, 88826, Note_on_c, 0, 59, 38
1, 88828, Control_c, 0, 64, 70
1, 88844, Control_c, 0, 64, 68
1, 88848, Note_on_c, 0, 83, 46
1, 88867, Control_c, 0, 64, 65
1, 88882, Control_c, 0, 64, 64
1, 88896, Control_c, 0, 64, 63
1, 88911, Control_c, 0, 64, 63
1, 88941, Control_c, 0, 64, 62
1, 88956, Control_c, 0, 64, 61
1, 88970, Control_c, 0, 64, 60
1, 88985, Control_c, 0, 64, 59
1, 89000, Control_c, 0, 64, 58
1, 89015, Control_c, 0, 64, 57
1, 89022, Note_on_c, 0, 54, 37
1, 89030, Control_c, 0, 64, 56
1, 89044, Control_c, 0, 64, 55
1, 89059, Control_c, 0, 64, 53
1, 89074, Control_c, 0, 64, 52
1, 89082, Note_off_c, 0, 59, 38
1, 89089, Control_c, 0, 64, 50
1, 89104, Control_c, 0, 64, 49
1, 89118, Control_c, 0, 64, 47
1, 89133, Control_c, 0, 64, 45
1, 89148, Control_c, 0, 64, 44
1, 89162, Control_c, 0, 64, 43
1, 89177, Control_c, 0, 64, 41
1, 89192, Control_c, 0, 64, 40
1, 89198, Note_on_c, 0, 62, 40
1, 89207, Control_c, 0, 64, 38
1, 89222, Control_c, 0, 64, 37
1, 89236, Control_c, 0, 64, 35
1, 89251, Control_c, 0, 64, 33
1, 89266, Control_c, 0, 64, 32
1, 89281, Control_c, 0, 64, 30
1, 89296, Control_c, 0, 64, 28
1, 89311, Control_c, 0, 64, 27
1, 89326, Control_c, 0, 64, 25
1, 89341, Control_c, 0, 64, 24
1, 89356, Control_c, 0, 64, 23
1, 89370, Control_c, 0, 64, 21
1, 89385, Control_c, 0, 64, 20
1, 89387, Note_on_c, 0, 59, 46
1, 89398, Note_off_c, 0, 54, 39
1, 89400, Control_c, 0, 64, 19
1, 89415, Control_c, 0, 64, 18
1, 89430, Control_c, 0, 64, 16
1, 89445, Note_off_c, 0, 62, 30
1, 89549, Control_c, 0, 64, 0
1, 89556, Note_on_c, 0, 54, 34
1, 89629, Note_off_c, 0, 83, 37
1, 89696, Note_off_c, 0, 59, 37
1, 89740, Note_on_c, 0, 62, 38
1, 89913, Note_on_c, 0, 83, 44
1, 89914, Note_off_c, 0, 54, 47
1, 89916, Note_on_c, 0, 61, 38
1, 89922, Note_on_c, 0, 76, 39
1, 89958, Note_off_c, 0, 62, 33
1, 90001, Control_c, 0, 64, 30
1, 90016, Control_c, 0, 64, 46
1, 90031, Control_c, 0, 64, 55
1, 90046, Control_c, 0, 64, 61
1, 90060, Control_c, 0, 64, 63
1, 90075, Control_c, 0, 64, 64
1, 90090, Control_c, 0, 64, 65
1, 90091, Note_on_c, 0, 54, 31
1, 90104, Control_c, 0, 64, 66
1, 90119, Control_c, 0, 64, 67
1, 90134, Control_c, 0, 64, 69
1, 90149, Control_c, 0, 64, 71
1, 90164, Control_c, 0, 64, 72
1, 90179, Control_c, 0, 64, 74
1, 90193, Control_c, 0, 64, 75
1, 90208, Control_c, 0, 64, 77
1, 90223, Control_c, 0, 64, 77
1, 90238, Control_c, 0, 64, 78
1, 90253, Control_c, 0, 64, 79
1, 90263, Note_off_c, 0, 61, 24
1, 90274, Note_on_c, 0, 64, 51
1, 90393, Control_c, 0, 64, 78
1, 90408, Control_c, 0, 64, 77
1, 90423, Control_c, 0, 64, 76
1, 90439, Control_c, 0, 64, 72
1, 90449, Note_on_c, 0, 82, 60
1, 90454, Control_c, 0, 64, 66
1, 90464, Note_on_c, 0, 61, 47
1, 90469, Control_c, 0, 64, 59
1, 90484, Control_c, 0, 64, 51
1, 90498, Control_c, 0, 64, 43
1, 90506, Note_off_c, 0, 54, 56
1, 90513, Control_c, 0, 64, 37
1, 90528, Control_c, 0, 64, 37
1, 90548, Note_off_c, 0, 83, 36
1, 90557, Control_c, 0, 64, 42
1, 90572, Note_off_c, 0, 64, 34
1, 90572, Control_c, 0, 64, 52
1, 90587, Control_c, 0, 64, 59
1, 90602, Control_c, 0, 64, 63
1, 90616, Control_c, 0, 64, 66
1, 90631, Control_c, 0, 64, 67
1, 90637, Note_on_c, 0, 54, 57
1, 90646, Control_c, 0, 64, 69
1, 90661, Control_c, 0, 64, 70
1, 90676, Control_c, 0, 64, 72
1, 90691, Control_c, 0, 64, 73
1, 90706, Control_c, 0, 64, 74
1, 90709, Note_off_c, 0, 76, 57
1, 90717, Note_off_c, 0, 82, 60
1, 90721, Control_c, 0, 64, 74
1, 90735, Control_c, 0, 64, 75
1, 90750, Control_c, 0, 64, 75
1, 90765, Control_c, 0, 64, 76
1, 90790, Note_off_c, 0, 61, 35
1, 90795, Note_on_c, 0, 64, 54
1, 90913, Control_c, 0, 64, 75
1, 90928, Control_c, 0, 64, 74
1, 90942, Control_c, 0, 64, 72
1, 90957, Control_c, 0, 64, 69
1, 90969, Note_on_c, 0, 63, 56
1, 90971, Control_c, 0, 64, 62
1, 90980, Note_on_c, 0, 72, 55
1, 90980, Note_off_c, 0, 54, 55
1, 90986, Control_c, 0, 64, 54
1, 90988, Note_on_c, 0, 81, 50
1, 91001, Control_c, 0, 64, 41
1, 91007, Note_off_c, 0, 64, 36
1, 91016, Control_c, 0, 64, 0
1, 91112, Control_c, 0, 64, 21
1, 91127, Control_c, 0, 64, 42
1, 91134, Note_off_c, 0, 63, 60
1, 91138, Note_on_c, 0, 54, 47
1, 91141, Control_c, 0, 64, 53
1, 91156, Control_c, 0, 64, 59
1, 91171, Control_c, 0, 64, 62
1, 91186, Control_c, 0, 64, 63
1, 91201, Control_c, 0, 64, 63
1, 91216, Control_c, 0, 64, 64
1, 91231, Control_c, 0, 64, 64
1, 91246, Control_c, 0, 64, 65
1, 91261, Control_c, 0, 64, 65
1, 91276, Control_c, 0, 64, 67
1, 91291, Control_c, 0, 64, 68
1, 91306, Control_c, 0, 64, 69
1, 91320, Control_c, 0, 64, 69
1, 91330, Note_on_c, 0, 66, 48
1, 91335, Control_c, 0, 64, 70
1, 91469, Control_c, 0, 64, 69
1, 91475, Note_off_c, 0, 66, 47
1, 91484, Control_c, 0, 64, 69
1, 91498, Note_on_c, 0, 63, 46
1, 91499, Control_c, 0, 64, 67
1, 91508, Note_off_c, 0, 54, 53
1, 91513, Control_c, 0, 64, 64
1, 91528, Control_c, 0, 64, 58
1, 91529, Note_on_c, 0, 71, 44
1, 91543, Control_c, 0, 64, 49
1, 91557, Control_c, 0, 64, 31
1, 91572, Control_c, 0, 64, 0
1, 91646, Control_c, 0, 64, 42
1, 91661, Control_c, 0, 64, 56
1, 91669, Note_on_c, 0, 54, 43
1, 91676, Control_c, 0, 64, 63
1, 91690, Control_c, 0, 64, 65
1, 91696, Note_off_c, 0, 81, 39
1, 91705, Control_c, 0, 64, 67
1, 91717, Note_off_c, 0, 63, 37
1, 91720, Control_c, 0, 64, 68
1, 91723, Note_off_c, 0, 72, 40
1, 91735, Control_c, 0, 64, 69
1, 91750, Control_c, 0, 64, 70
1, 91764, Control_c, 0, 64, 71
1, 91779, Control_c, 0, 64, 72
1, 91794, Control_c, 0, 64, 73
1, 91809, Control_c, 0, 64, 74
1, 91823, Note_off_c, 0, 54, 57
1, 91866, Note_on_c, 0, 66, 34
1, 91905, Note_off_c, 0, 71, 32
1, 91908, Note_off_c, 0, 66, 46
1, 91950, Control_c, 0, 64, 73
1, 91964, Control_c, 0, 64, 73
1, 91979, Control_c, 0, 64, 71
1, 91994, Control_c, 0, 64, 70
1, 92009, Control_c, 0, 64, 69
1, 92024, Control_c, 0, 64, 67
1, 92040, Control_c, 0, 64, 66
1, 92053, Note_on_c, 0, 64, 38
1, 92055, Control_c, 0, 64, 65
1, 92058, Note_on_c, 0, 76, 41
1, 92069, Control_c, 0, 64, 64
1, 92084, Control_c, 0, 64, 63
1, 92099, Control_c, 0, 64, 62
1, 92114, Control_c, 0, 64, 62
1, 92129, Control_c, 0, 64, 61
1, 92143, Control_c, 0, 64, 61
1, 92158, Control_c, 0, 64, 60
1, 92173, Control_c, 0, 64, 59
1, 92187, Control_c, 0, 64, 58
1, 92202, Control_c, 0, 64, 58
1, 92217, Control_c, 0, 64, 57
1, 92232, Control_c, 0, 64, 56
1, 92247, Control_c, 0, 64, 56
1, 92249, Note_on_c, 0, 71, 40
1, 92261, Note_off_c, 0, 76, 37
1, 92262, Control_c, 0, 64, 55
1, 92277, Control_c, 0, 64, 54
1, 92292, Control_c, 0, 64, 52
1, 92306, Control_c, 0, 64, 50
1, 92321, Control_c, 0, 64, 48
1, 92336, Control_c, 0, 64, 46
1, 92351, Control_c, 0, 64, 45
1, 92366, Control_c, 0, 64, 43
1, 92380, Control_c, 0, 64, 42
1, 92395, Control_c, 0, 64, 41
1, 92402, Note_on_c, 0, 79, 44
1, 92408, Note_off_c, 0, 71, 47
1, 92410, Control_c, 0, 64, 40
1, 92425, Control_c, 0, 64, 38
1, 92440, Control_c, 0, 64, 37
1, 92454, Control_c, 0, 64, 35
1, 92470, Control_c, 0, 64, 34
1, 92485, Control_c, 0, 64, 32
1, 92500, Control_c, 0, 64, 30
1, 92514, Control_c, 0, 64, 28
1, 92529, Control_c, 0, 64, 27
1, 92544, Control_c, 0, 64, 26
1, 92559, Control_c, 0, 64, 24
1, 92569, Note_on_c, 0, 76, 47
1, 92574, Control_c, 0, 64, 22
1, 92588, Control_c, 0, 64, 20
1, 92611, Control_c, 0, 64, 17
1, 92649, Note_off_c, 0, 79, 43
1, 92655, Control_c, 0, 64, 0
1, 92766, Note_on_c, 0, 71, 44
1, 92822, Note_off_c, 0, 64, 47
1, 92915, Note_off_c, 0, 71, 47
1, 92920, Note_on_c, 0, 79, 48
1, 92936, Note_off_c, 0, 76, 38
1, 93103, Note_on_c, 0, 59, 31
1, 93104, Note_on_c, 0, 64, 32
1, 93113, Note_on_c, 0, 78, 45
1, 93144, Control_c, 0, 64, 29
1, 93159, Control_c, 0, 64, 44
1, 93174, Control_c, 0, 64, 53
1, 93189, Note_off_c, 0, 79, 38
1, 93189, Control_c, 0, 64, 58
1, 93204, Control_c, 0, 64, 60
1, 93219, Control_c, 0, 64, 62
1, 93234, Control_c, 0, 64, 62
1, 93249, Control_c, 0, 64, 63
1, 93264, Control_c, 0, 64, 64
1, 93278, Control_c, 0, 64, 64
1, 93293, Control_c, 0, 64, 65
1, 93300, Note_on_c, 0, 71, 41
1, 93308, Control_c, 0, 64, 66
1, 93314, Note_off_c, 0, 78, 35
1, 93323, Control_c, 0, 64, 67
1, 93359, Control_c, 0, 64, 67
1, 93477, Note_on_c, 0, 81, 53
1, 93582, Control_c, 0, 64, 67
1, 93597, Control_c, 0, 64, 66
1, 93611, Control_c, 0, 64, 64
1, 93626, Control_c, 0, 64, 60
1, 93640, Note_on_c, 0, 63, 39
1, 93642, Control_c, 0, 64, 53
1, 93645, Note_on_c, 0, 78, 50
1, 93657, Control_c, 0, 64, 43
1, 93662, Note_off_c, 0, 71, 41
1, 93672, Control_c, 0, 64, 23
1, 93687, Control_c, 0, 64, 0
1, 93731, Control_c, 0, 64, 39
1, 93746, Control_c, 0, 64, 53
1, 93747, Note_off_c, 0, 81, 33
1, 93760, Control_c, 0, 64, 59
1, 93775, Control_c, 0, 64, 62
1, 93790, Control_c, 0, 64, 64
1, 93805, Control_c, 0, 64, 65
1, 93820, Control_c, 0, 64, 66
1, 93821, Note_on_c, 0, 71, 49
1, 93834, Control_c, 0, 64, 67
1, 93841, Note_off_c, 0, 78, 54
1, 93849, Control_c, 0, 64, 68
1, 93864, Control_c, 0, 64, 69
1, 93865, Note_off_c, 0, 64, 52
1, 93878, Control_c, 0, 64, 70
1, 93887, Note_off_c, 0, 63, 58
1, 93893, Control_c, 0, 64, 70
1, 93901, Note_off_c, 0, 59, 58
1, 93908, Control_c, 0, 64, 71
1, 93952, Control_c, 0, 64, 71
1, 93991, Note_on_c, 0, 81, 63
1, 94152, Control_c, 0, 64, 71
1, 94166, Control_c, 0, 64, 70
1, 94169, Note_on_c, 0, 62, 39
1, 94173, Note_on_c, 0, 53, 43
1, 94178, Note_on_c, 0, 80, 61
1, 94181, Control_c, 0, 64, 68
1, 94196, Control_c, 0, 64, 64
1, 94211, Control_c, 0, 64, 58
1, 94211, Note_off_c, 0, 71, 47
1, 94226, Control_c, 0, 64, 48
1, 94240, Control_c, 0, 64, 27
1, 94255, Control_c, 0, 64, 0
1, 94299, Control_c, 0, 64, 19
1, 94307, Note_off_c, 0, 81, 32
1, 94314, Control_c, 0, 64, 42
1, 94329, Control_c, 0, 64, 53
1, 94344, Note_on_c, 0, 71, 61
1, 94344, Control_c, 0, 64, 60
1, 94358, Control_c, 0, 64, 63
1, 94373, Control_c, 0, 64, 64
1, 94381, Note_off_c, 0, 80, 53
1, 94388, Control_c, 0, 64, 65
1, 94403, Control_c, 0, 64, 66
1, 94418, Control_c, 0, 64, 66
1, 94434, Control_c, 0, 64, 67
1, 94449, Control_c, 0, 64, 68
1, 94463, Control_c, 0, 64, 69
1, 94478, Control_c, 0, 64, 69
1, 94512, Note_on_c, 0, 83, 70
1, 94626, Control_c, 0, 64, 69
1, 94641, Control_c, 0, 64, 68
1, 94656, Control_c, 0, 64, 66
1, 94670, Control_c, 0, 64, 62
1, 94685, Note_on_c, 0, 52, 42
1, 94685, Control_c, 0, 64, 55
1, 94687, Note_on_c, 0, 80, 64
1, 94698, Note_off_c, 0, 53, 45
1, 94700, Control_c, 0, 64, 45
1, 94709, Note_off_c, 0, 71, 46
1, 94715, Control_c, 0, 64, 23
1, 94730, Control_c, 0, 64, 0
1, 94772, Note_off_c, 0, 83, 36
1, 94789, Control_c, 0, 64, 27
1, 94804, Control_c, 0, 64, 44
1, 94819, Control_c, 0, 64, 53
1, 94834, Control_c, 0, 64, 59
1, 94849, Control_c, 0, 64, 62
1, 94858, Note_on_c, 0, 71, 52
1, 94870, Control_c, 0, 64, 63
1, 94885, Control_c, 0, 64, 64
1, 94900, Control_c, 0, 64, 64
1, 94909, Note_off_c, 0, 52, 53
1, 94915, Control_c, 0, 64, 65
1, 94930, Control_c, 0, 64, 66
1, 94933, Note_off_c, 0, 80, 49
1, 94945, Control_c, 0, 64, 67
1, 94960, Control_c, 0, 64, 68
1, 94975, Control_c, 0, 64, 68
1, 94989, Control_c, 0, 64, 69
1, 94990, Note_off_c, 0, 71, 58
1, 95004, Control_c, 0, 64, 69
1, 95034, Control_c, 0, 64, 70
1, 95035, Note_on_c, 0, 83, 53
1, 95100, Note_off_c, 0, 62, 35
1, 95137, Control_c, 0, 64, 69
1, 95152, Control_c, 0, 64, 69
1, 95167, Control_c, 0, 64, 68
1, 95181, Control_c, 0, 64, 67
1, 95187, Note_off_c, 0, 83, 41
1, 95196, Control_c, 0, 64, 65
1, 95205, Note_on_c, 0, 81, 44
1, 95211, Control_c, 0, 64, 63
1, 95225, Note_on_c, 0, 61, 23
1, 95227, Control_c, 0, 64, 62
1, 95242, Control_c, 0, 64, 61
1, 95257, Control_c, 0, 64, 60
1, 95272, Control_c, 0, 64, 59
1, 95286, Control_c, 0, 64, 57
1, 95301, Control_c, 0, 64, 55
1, 95316, Control_c, 0, 64, 54
1, 95330, Control_c, 0, 64, 52
1, 95345, Control_c, 0, 64, 51
1, 95360, Control_c, 0, 64, 50
1, 95375, Control_c, 0, 64, 49
1, 95384, Note_on_c, 0, 57, 33
1, 95390, Control_c, 0, 64, 48
1, 95404, Control_c, 0, 64, 48
1, 95419, Control_c, 0, 64, 47
1, 95434, Control_c, 0, 64, 46
1, 95449, Control_c, 0, 64, 45
1, 95465, Control_c, 0, 64, 43
1, 95479, Control_c, 0, 64, 42
1, 95494, Control_c, 0, 64, 39
1, 95496, Note_off_c, 0, 61, 34
1, 95509, Control_c, 0, 64, 37
1, 95523, Control_c, 0, 64, 35
1, 95538, Control_c, 0, 64, 34
1, 95553, Control_c, 0, 64, 32
1, 95568, Control_c, 0, 64, 31
1, 95569, Note_on_c, 0, 64, 42
1, 95583, Control_c, 0, 64, 30
1, 95605, Control_c, 0, 64, 28
1, 95620, Control_c, 0, 64, 26
1, 95635, Control_c, 0, 64, 25
1, 95649, Control_c, 0, 64, 23
1, 95664, Control_c, 0, 64, 21
1, 95679, Control_c, 0, 64, 19
1, 95694, Control_c, 0, 64, 17
1, 95753, Note_on_c, 0, 61, 40
1, 95760, Note_off_c, 0, 57, 36
1, 95768, Control_c, 0, 64, 0
1, 95805, Note_off_c, 0, 64, 32
1, 95924, Note_on_c, 0, 57, 32
1, 95965, Note_off_c, 0, 81, 36
1, 96018, Note_off_c, 0, 61, 36
1, 96107, Note_on_c, 0, 64, 40
1, 96246, Note_off_c, 0, 57, 38
1, 96264, Note_on_c, 0, 81, 41
1, 96265, Note_on_c, 0, 70, 41
1, 96267, Note_on_c, 0, 62, 41
1, 96319, Note_off_c, 0, 64, 35
1, 96354, Control_c, 0, 64, 27
1, 96369, Control_c, 0, 64, 43
1, 96384, Control_c, 0, 64, 54
1, 96399, Control_c, 0, 64, 59
1, 96414, Control_c, 0, 64, 62
1, 96428, Control_c, 0, 64, 64
1, 96443, Control_c, 0, 64, 64
1, 96458, Control_c, 0, 64, 65
1, 96472, Control_c, 0, 64, 66
1, 96475, Note_on_c, 0, 57, 30
1, 96487, Control_c, 0, 64, 68
1, 96502, Control_c, 0, 64, 70
1, 96505, Note_off_c, 0, 62, 32
1, 96517, Control_c, 0, 64, 72
1, 96532, Control_c, 0, 64, 74
1, 96547, Control_c, 0, 64, 75
1, 96554, Note_off_c, 0, 70, 48
1, 96561, Control_c, 0, 64, 76
1, 96576, Control_c, 0, 64, 77
1, 96591, Control_c, 0, 64, 77
1, 96638, Note_on_c, 0, 65, 43
1, 96769, Control_c, 0, 64, 77
1, 96784, Control_c, 0, 64, 75
1, 96798, Control_c, 0, 64, 72
1, 96799, Note_on_c, 0, 63, 50
1, 96806, Note_on_c, 0, 71, 51
1, 96813, Control_c, 0, 64, 66
1, 96829, Control_c, 0, 64, 59
1, 96834, Note_off_c, 0, 57, 43
1, 96844, Control_c, 0, 64, 50
1, 96847, Note_off_c, 0, 65, 40
1, 96858, Control_c, 0, 64, 38
1, 96873, Control_c, 0, 64, 31
1, 96903, Control_c, 0, 64, 42
1, 96918, Control_c, 0, 64, 54
1, 96933, Control_c, 0, 64, 61
1, 96948, Control_c, 0, 64, 65
1, 96963, Control_c, 0, 64, 67
1, 96977, Control_c, 0, 64, 69
1, 96981, Note_on_c, 0, 57, 43
1, 96992, Control_c, 0, 64, 71
1, 97007, Control_c, 0, 64, 73
1, 97022, Control_c, 0, 64, 74
1, 97037, Control_c, 0, 64, 76
1, 97051, Control_c, 0, 64, 77
1, 97058, Note_off_c, 0, 63, 35
1, 97066, Control_c, 0, 64, 79
1, 97081, Control_c, 0, 64, 79
1, 97103, Control_c, 0, 64, 80
1, 97133, Control_c, 0, 64, 80
1, 97168, Note_on_c, 0, 66, 55
1, 97168, Note_off_c, 0, 71, 53
1, 97169, Note_off_c, 0, 81, 39
1, 97177, Control_c, 0, 64, 81
1, 97296, Control_c, 0, 64, 80
1, 97310, Control_c, 0, 64, 79
1, 97317, Note_off_c, 0, 66, 56
1, 97325, Control_c, 0, 64, 74
1, 97332, Note_on_c, 0, 72, 64
1, 97332, Note_on_c, 0, 64, 54
1, 97339, Note_on_c, 0, 81, 54
1, 97340, Control_c, 0, 64, 66
1, 97355, Control_c, 0, 64, 57
1, 97357, Note_off_c, 0, 57, 35
1, 97370, Control_c, 0, 64, 46
1, 97384, Control_c, 0, 64, 34
1, 97399, Control_c, 0, 64, 30
1, 97414, Control_c, 0, 64, 33
1, 97428, Control_c, 0, 64, 46
1, 97443, Control_c, 0, 64, 57
1, 97458, Control_c, 0, 64, 63
1, 97473, Control_c, 0, 64, 66
1, 97488, Control_c, 0, 64, 68
1, 97502, Control_c, 0, 64, 70
1, 97517, Control_c, 0, 64, 71
1, 97520, Note_on_c, 0, 57, 50
1, 97532, Control_c, 0, 64, 73
1, 97547, Control_c, 0, 64, 74
1, 97562, Control_c, 0, 64, 75
1, 97577, Control_c, 0, 64, 76
1, 97607, Note_off_c, 0, 64, 35
1, 97690, Note_on_c, 0, 67, 60
1, 97829, Control_c, 0, 64, 75
1, 97851, Control_c, 0, 64, 73
1, 97860, Note_on_c, 0, 64, 60
1, 97866, Control_c, 0, 64, 69
1, 97875, Note_on_c, 0, 73, 75
1, 97881, Control_c, 0, 64, 63
1, 97896, Control_c, 0, 64, 53
1, 97907, Note_off_c, 0, 57, 37
1, 97911, Control_c, 0, 64, 40
1, 97919, Note_off_c, 0, 67, 34
1, 97925, Control_c, 0, 64, 30
1, 97940, Control_c, 0, 64, 29
1, 97955, Control_c, 0, 64, 31
1, 97968, Note_off_c, 0, 72, 36
1, 97970, Control_c, 0, 64, 45
1, 97985, Control_c, 0, 64, 57
1, 97999, Control_c, 0, 64, 63
1, 98014, Control_c, 0, 64, 67
1, 98029, Control_c, 0, 64, 69
1, 98033, Note_on_c, 0, 57, 51
1, 98044, Control_c, 0, 64, 71
1, 98058, Control_c, 0, 64, 72
1, 98073, Control_c, 0, 64, 72
1, 98085, Note_off_c, 0, 64, 49
1, 98088, Control_c, 0, 64, 73
1, 98103, Control_c, 0, 64, 74
1, 98118, Control_c, 0, 64, 75
1, 98132, Control_c, 0, 64, 76
1, 98185, Note_off_c, 0, 81, 25
1, 98191, Note_off_c, 0, 73, 60
1, 98214, Note_on_c, 0, 67, 64
1, 98355, Control_c, 0, 64, 75
1, 98370, Control_c, 0, 64, 70
1, 98376, Note_on_c, 0, 66, 66
1, 98379, Note_on_c, 0, 74, 80
1, 98385, Note_on_c, 0, 81, 73
1, 98385, Control_c, 0, 64, 61
1, 98399, Control_c, 0, 64, 46
1, 98415, Control_c, 0, 64, 24
1, 98419, Note_off_c, 0, 57, 53
1, 98429, Control_c, 0, 64, 19
1, 98444, Control_c, 0, 64, 26
1, 98459, Note_off_c, 0, 67, 36
1, 98459, Control_c, 0, 64, 45
1, 98474, Control_c, 0, 64, 57
1, 98489, Control_c, 0, 64, 63
1, 98504, Control_c, 0, 64, 66
1, 98512, Note_off_c, 0, 66, 58
1, 98519, Control_c, 0, 64, 69
1, 98534, Control_c, 0, 64, 71
1, 98548, Control_c, 0, 64, 72
1, 98557, Note_on_c, 0, 57, 56
1, 98563, Control_c, 0, 64, 73
1, 98578, Control_c, 0, 64, 73
1, 98600, Control_c, 0, 64, 74
1, 98615, Control_c, 0, 64, 74
1, 98629, Control_c, 0, 64, 75
1, 98644, Control_c, 0, 64, 76
1, 98659, Control_c, 0, 64, 76
1, 98689, Control_c, 0, 64, 77
1, 98729, Note_off_c, 0, 74, 51
1, 98739, Note_on_c, 0, 69, 74
1, 98867, Control_c, 0, 64, 76
1, 98881, Control_c, 0, 64, 72
1, 98896, Control_c, 0, 64, 64
1, 98900, Note_on_c, 0, 75, 79
1, 98907, Note_on_c, 0, 65, 71
1, 98911, Control_c, 0, 64, 52
1, 98926, Control_c, 0, 64, 29
1, 98927, Note_off_c, 0, 69, 56
1, 98941, Control_c, 0, 64, 21
1, 98955, Control_c, 0, 64, 24
1, 98969, Note_off_c, 0, 57, 40
1, 98970, Control_c, 0, 64, 40
1, 98985, Control_c, 0, 64, 55
1, 99000, Control_c, 0, 64, 62
1, 99015, Control_c, 0, 64, 66
1, 99029, Control_c, 0, 64, 70
1, 99044, Control_c, 0, 64, 72
1, 99055, Note_off_c, 0, 81, 22
1, 99059, Control_c, 0, 64, 74
1, 99073, Control_c, 0, 64, 74
1, 99082, Note_on_c, 0, 57, 58
1, 99086, Note_off_c, 0, 65, 58
1, 99088, Control_c, 0, 64, 75
1, 99133, Control_c, 0, 64, 75
1, 99136, Note_off_c, 0, 75, 60
1, 99244, Note_on_c, 0, 69, 80
1, 99297, Control_c, 0, 64, 74
1, 99312, Control_c, 0, 64, 70
1, 99327, Control_c, 0, 64, 62
1, 99350, Control_c, 0, 64, 45
1, 99365, Control_c, 0, 64, 21
1, 99379, Control_c, 0, 64, 0
1, 99409, Control_c, 0, 64, 36
1, 99422, Note_on_c, 0, 64, 71
1, 99423, Control_c, 0, 64, 55
1, 99431, Note_off_c, 0, 69, 60
1, 99432, Note_on_c, 0, 76, 83
1, 99435, Note_on_c, 0, 81, 74
1, 99438, Control_c, 0, 64, 65
1, 99453, Control_c, 0, 64, 70
1, 99458, Note_off_c, 0, 57, 57
1, 99468, Control_c, 0, 64, 76
1, 99483, Control_c, 0, 64, 80
1, 99497, Control_c, 0, 64, 83
1, 99512, Control_c, 0, 64, 84
1, 99527, Control_c, 0, 64, 85
1, 99542, Control_c, 0, 64, 86
1, 99557, Control_c, 0, 64, 87
1, 99571, Control_c, 0, 64, 88
1, 99586, Note_on_c, 0, 57, 65
1, 99586, Control_c, 0, 64, 89
1, 99601, Control_c, 0, 64, 89
1, 99616, Control_c, 0, 64, 90
1, 99619, Note_off_c, 0, 64, 50
1, 99646, Control_c, 0, 64, 90
1, 99661, Control_c, 0, 64, 91
1, 99697, Note_off_c, 0, 76, 59
1, 99745, Note_on_c, 0, 69, 81
1, 99868, Control_c, 0, 64, 88
1, 99883, Control_c, 0, 64, 82
1, 99897, Control_c, 0, 64, 71
1, 99912, Control_c, 0, 64, 58
1, 99922, Note_on_c, 0, 62, 69
1, 99927, Control_c, 0, 64, 22
1, 99938, Note_on_c, 0, 78, 82
1, 99942, Control_c, 0, 64, 0
1, 99959, Note_off_c, 0, 69, 55
1, 99962, Note_off_c, 0, 57, 56
1, 99988, Note_off_c, 0, 81, 53
1, 100001, Control_c, 0, 64, 52
1, 100017, Control_c, 0, 64, 63
1, 100032, Control_c, 0, 64, 69
1, 100046, Control_c, 0, 64, 76
1, 100061, Control_c, 0, 64, 81
1, 100076, Control_c, 0, 64, 85
1, 100099, Control_c, 0, 64, 88
1, 100114, Control_c, 0, 64, 90
1, 100122, Note_on_c, 0, 57, 51
1, 100128, Control_c, 0, 64, 91
1, 100143, Control_c, 0, 64, 92
1, 100158, Control_c, 0, 64, 93
1, 100173, Control_c, 0, 64, 94
1, 100188, Control_c, 0, 64, 97
1, 100188, Note_off_c, 0, 78, 61
1, 100202, Control_c, 0, 64, 100
1, 100207, Note_off_c, 0, 62, 35
1, 100217, Control_c, 0, 64, 103
1, 100232, Control_c, 0, 64, 106
1, 100246, Control_c, 0, 64, 108
1, 100261, Control_c, 0, 64, 109
1, 100276, Control_c, 0, 64, 110
1, 100290, Note_on_c, 0, 69, 68
1, 100306, Control_c, 0, 64, 110
1, 100320, Control_c, 0, 64, 111
1, 100329, Note_off_c, 0, 57, 28
1, 100468, Control_c, 0, 64, 109
1, 100483, Control_c, 0, 64, 105
1, 100486, Note_off_c, 0, 69, 39
1, 100495, Note_on_c, 0, 57, 45
1, 100498, Control_c, 0, 64, 99
1, 100504, Note_on_c, 0, 61, 51
1, 100507, Note_on_c, 0, 79, 63
1, 100513, Control_c, 0, 64, 92
1, 100528, Control_c, 0, 64, 84
1, 100543, Control_c, 0, 64, 76
1, 100558, Control_c, 0, 64, 68
1, 100573, Control_c, 0, 64, 62
1, 100585, Note_on_c, 0, 81, 66
1, 100588, Control_c, 0, 64, 59
1, 100602, Control_c, 0, 64, 57
1, 100607, Note_off_c, 0, 79, 51
1, 100617, Control_c, 0, 64, 55
1, 100632, Control_c, 0, 64, 54
1, 100646, Control_c, 0, 64, 53
1, 100659, Note_off_c, 0, 81, 61
1, 100661, Control_c, 0, 64, 52
1, 100663, Note_on_c, 0, 83, 74
1, 100691, Control_c, 0, 64, 52
1, 100735, Control_c, 0, 64, 51
1, 100737, Note_on_c, 0, 81, 69
1, 100760, Note_off_c, 0, 83, 57
1, 100764, Control_c, 0, 64, 51
1, 100779, Control_c, 0, 64, 50
1, 100798, Note_off_c, 0, 81, 63
1, 100805, Note_on_c, 0, 79, 70
1, 100809, Control_c, 0, 64, 50
1, 100884, Note_on_c, 0, 78, 76
1, 100887, Note_off_c, 0, 79, 58
1, 100907, Control_c, 0, 64, 49
1, 100958, Note_on_c, 0, 76, 74
1, 100959, Note_off_c, 0, 78, 60
1, 101032, Note_on_c, 0, 78, 64
1, 101061, Note_off_c, 0, 76, 55
1, 101094, Note_off_c, 0, 78, 61
1, 101100, Note_on_c, 0, 79, 70
1, 101176, Note_on_c, 0, 78, 67
1, 101228, Note_off_c, 0, 79, 55
1, 101244, Note_on_c, 0, 76, 65
1, 101274, Note_off_c, 0, 78, 57
1, 101300, Note_off_c, 0, 76, 59
1, 101303, Note_on_c, 0, 74, 75
1, 101378, Note_on_c, 0, 73, 73
1, 101380, Note_off_c, 0, 74, 56
1, 101437, Note_on_c, 0, 74, 63
1, 101471, Note_off_c, 0, 73, 59
1, 101518, Note_off_c, 0, 74, 60
1, 101523, Note_on_c, 0, 76, 74
1, 101611, Note_on_c, 0, 74, 74
1, 101670, Note_off_c, 0, 76, 55
1, 101693, Note_on_c, 0, 73, 73
1, 101720, Note_off_c, 0, 57, 52
1, 101729, Control_c, 0, 64, 49
1, 101730, Note_off_c, 0, 61, 35
1, 101754, Note_off_c, 0, 74, 57
1, 101769, Note_on_c, 0, 71, 71
1, 101803, Note_off_c, 0, 73, 58
1, 101830, Note_off_c, 0, 71, 58
1, 101842, Note_on_c, 0, 69, 73
1, 101899, Note_off_c, 0, 69, 49
1, 101906, Control_c, 0, 64, 48
1, 101921, Note_on_c, 0, 71, 66
1, 102004, Note_on_c, 0, 69, 75
1, 102020, Note_off_c, 0, 71, 53
1, 102073, Note_off_c, 0, 69, 62
1, 102084, Note_on_c, 0, 67, 66
1, 102140, Note_on_c, 0, 45, 67
1, 102151, Note_off_c, 0, 67, 51
1, 102159, Note_on_c, 0, 66, 69
1, 102189, Note_off_c, 0, 45, 55
1, 102230, Note_on_c, 0, 64, 68
1, 102270, Note_off_c, 0, 66, 52
1, 102318, Note_on_c, 0, 62, 76
1, 102319, Note_on_c, 0, 50, 76
1, 102325, Note_off_c, 0, 64, 60
1, 102353, Note_off_c, 0, 50, 65
1, 102364, Note_off_c, 0, 62, 59
1, 102490, Note_on_c, 0, 45, 74
1, 102501, Note_on_c, 0, 57, 72
1, 102531, Note_off_c, 0, 45, 61
1, 102536, Note_off_c, 0, 57, 63
1, 102656, Note_on_c, 0, 50, 75
1, 102656, Note_on_c, 0, 62, 79
1, 102682, Note_off_c, 0, 50, 65
1, 102719, Note_off_c, 0, 62, 59
1, 102825, Note_on_c, 0, 66, 81
1, 102826, Note_on_c, 0, 54, 79
1, 102867, Note_off_c, 0, 54, 59
1, 102903, Note_off_c, 0, 66, 61
1, 102983, Note_on_c, 0, 50, 79
1, 102986, Note_on_c, 0, 62, 79
1, 103012, Note_off_c, 0, 50, 64
1, 103047, Note_off_c, 0, 62, 57
1, 103153, Note_on_c, 0, 54, 76
1, 103154, Note_on_c, 0, 66, 80
1, 103177, Note_off_c, 0, 54, 68
1, 103205, Note_off_c, 0, 66, 63
1, 103329, Note_on_c, 0, 69, 77
1, 103333, Note_on_c, 0, 57, 75
1, 103583, Control_c, 0, 64, 48
1, 103586, Note_off_c, 0, 57, 63
1, 103587, Note_off_c, 0, 69, 64
1, 103597, Control_c, 0, 64, 47
1, 103612, Control_c, 0, 64, 46
1, 103675, Note_on_c, 0, 69, 72
1, 103676, Note_on_c, 0, 57, 70
1, 103686, Control_c, 0, 64, 46
1, 103702, Note_off_c, 0, 57, 68
1, 103707, Note_off_c, 0, 69, 62
1, 103867, Note_on_c, 0, 69, 57
1, 103878, Note_on_c, 0, 57, 54
1, 104004, Control_c, 0, 64, 45
1, 104035, Control_c, 0, 64, 45
1, 104062, Note_off_c, 0, 57, 62
1, 104065, Control_c, 0, 64, 44
1, 104080, Control_c, 0, 64, 43
1, 104084, Note_off_c, 0, 69, 60
1, 104094, Control_c, 0, 64, 42
1, 104109, Control_c, 0, 64, 41
1, 104124, Control_c, 0, 64, 40
1, 104139, Control_c, 0, 64, 39
1, 104154, Control_c, 0, 64, 38
1, 104227, Control_c, 0, 64, 46
1, 104242, Control_c, 0, 64, 58
1, 104245, Note_on_c, 0, 74, 51
1, 104256, Note_on_c, 0, 67, 41
1, 104257, Control_c, 0, 64, 64
1, 104267, Note_on_c, 0, 69, 29
1, 104272, Control_c, 0, 64, 68
1, 104282, Note_off_c, 0, 67, 56
1, 104287, Control_c, 0, 64, 73
1, 104289, Note_off_c, 0, 74, 57
1, 104298, Note_off_c, 0, 69, 51
1, 104302, Note_on_c, 0, 73, 48
1, 104302, Control_c, 0, 64, 79
1, 104317, Control_c, 0, 64, 83
1, 104332, Note_off_c, 0, 73, 61
1, 104332, Control_c, 0, 64, 86
1, 104347, Control_c, 0, 64, 89
1, 104361, Control_c, 0, 64, 90
1, 104361, Note_on_c, 0, 71, 51
1, 104376, Control_c, 0, 64, 90
1, 104418, Note_off_c, 0, 71, 50
1, 104427, Note_on_c, 0, 73, 58
1, 104435, Control_c, 0, 64, 90
1, 104450, Control_c, 0, 64, 86
1, 104465, Control_c, 0, 64, 79
1, 104475, Note_off_c, 0, 73, 58
1, 104478, Note_on_c, 0, 69, 9
1, 104480, Control_c, 0, 64, 70
1, 104481, Note_on_c, 0, 66, 37
1, 104490, Note_on_c, 0, 74, 49
1, 104494, Control_c, 0, 64, 61
1, 104509, Control_c, 0, 64, 52
1, 104524, Control_c, 0, 64, 44
1, 104538, Control_c, 0, 64, 37
1, 104553, Control_c, 0, 64, 32
1, 104568, Control_c, 0, 64, 31
1, 104620, Control_c, 0, 64, 31
1, 104650, Control_c, 0, 64, 29
1, 104665, Control_c, 0, 64, 27
1, 104680, Control_c, 0, 64, 26
1, 104690, Note_off_c, 0, 69, 55
1, 104694, Control_c, 0, 64, 24
1, 104709, Control_c, 0, 64, 23
1, 104713, Note_off_c, 0, 66, 59
1, 104722, Note_off_c, 0, 74, 52
1, 104724, Control_c, 0, 64, 22
1, 104783, Control_c, 0, 64, 25
1, 104798, Control_c, 0, 64, 39
1, 104814, Control_c, 0, 64, 52
1, 104829, Control_c, 0, 64, 60
1, 104843, Control_c, 0, 64, 65
1, 104844, Note_on_c, 0, 78, 58
1, 104853, Note_on_c, 0, 61, 43
1, 104858, Note_on_c, 0, 69, 34
1, 104858, Control_c, 0, 64, 68
1, 104873, Control_c, 0, 64, 71
1, 104881, Note_off_c, 0, 61, 56
1, 104888, Note_off_c, 0, 69, 47
1, 104888, Control_c, 0, 64, 74
1, 104893, Note_on_c, 0, 76, 56
1, 104903, Control_c, 0, 64, 76
1, 104906, Note_off_c, 0, 78, 47
1, 104917, Control_c, 0, 64, 80
1, 104927, Note_off_c, 0, 76, 63
1, 104932, Control_c, 0, 64, 82
1, 104946, Note_on_c, 0, 74, 65
1, 104947, Control_c, 0, 64, 85
1, 104961, Control_c, 0, 64, 87
1, 104976, Control_c, 0, 64, 87
1, 104991, Control_c, 0, 64, 88
1, 105014, Note_off_c, 0, 74, 50
1, 105016, Note_on_c, 0, 76, 55
1, 105050, Control_c, 0, 64, 87
1, 105059, Note_off_c, 0, 76, 53
1, 105065, Control_c, 0, 64, 81
1, 105066, Note_on_c, 0, 62, 48
1, 105066, Note_on_c, 0, 78, 53
1, 105080, Note_on_c, 0, 69, 29
1, 105080, Control_c, 0, 64, 73
1, 105095, Control_c, 0, 64, 64
1, 105110, Control_c, 0, 64, 53
1, 105125, Control_c, 0, 64, 43
1, 105139, Control_c, 0, 64, 34
1, 105154, Control_c, 0, 64, 26
1, 105241, Note_off_c, 0, 69, 61
1, 105281, Note_off_c, 0, 62, 57
1, 105294, Note_off_c, 0, 78, 56
1, 105438, Note_on_c, 0, 81, 51
1, 105439, Note_on_c, 0, 55, 43
1, 105442, Note_on_c, 0, 64, 45
1, 105443, Control_c, 0, 64, 26
1, 105467, Note_off_c, 0, 55, 56
1, 105468, Note_off_c, 0, 64, 56
1, 105513, Note_on_c, 0, 79, 47
1, 105577, Control_c, 0, 64, 25
1, 105592, Control_c, 0, 64, 23
1, 105598, Note_off_c, 0, 81, 36
1, 105607, Control_c, 0, 64, 19
1, 105622, Control_c, 0, 64, 0
1, 105647, Note_on_c, 0, 78, 38
1, 105650, Note_on_c, 0, 62, 33
1, 105658, Note_on_c, 0, 57, 31
1, 105664, Note_off_c, 0, 79, 36
1, 105756, Control_c, 0, 64, 19
1, 105771, Control_c, 0, 64, 54
1, 105785, Control_c, 0, 64, 64
1, 105800, Control_c, 0, 64, 69
1, 105815, Control_c, 0, 64, 76
1, 105830, Control_c, 0, 64, 84
1, 105845, Control_c, 0, 64, 89
1, 105859, Control_c, 0, 64, 94
1, 105867, Note_off_c, 0, 78, 53
1, 105874, Control_c, 0, 64, 97
1, 105889, Control_c, 0, 64, 99
1, 105904, Control_c, 0, 64, 100
1, 105919, Control_c, 0, 64, 101
1, 105933, Control_c, 0, 64, 102
1, 105956, Note_off_c, 0, 57, 50
1, 105962, Control_c, 0, 64, 102
1, 106016, Note_off_c, 0, 62, 36
1, 106207, Control_c, 0, 64, 102
1, 106221, Control_c, 0, 64, 101
1, 106236, Control_c, 0, 64, 97
1, 106251, Control_c, 0, 64, 90
1, 106266, Control_c, 0, 64, 81
1, 106269, Note_on_c, 0, 61, 27
1, 106279, Note_on_c, 0, 76, 38
1, 106281, Control_c, 0, 64, 69
1, 106296, Control_c, 0, 64, 61
1, 106310, Control_c, 0, 64, 51
1, 106325, Control_c, 0, 64, 43
1, 106340, Control_c, 0, 64, 34
1, 106355, Control_c, 0, 64, 21
1, 106448, Note_off_c, 0, 61, 57
1, 106468, Note_off_c, 0, 76, 60
1, 106653, Note_on_c, 0, 47, 62
1, 106658, Note_on_c, 0, 59, 62
1, 106692, Note_off_c, 0, 47, 61
1, 106695, Note_off_c, 0, 59, 59
1, 106820, Note_on_c, 0, 52, 78
1, 106820, Note_on_c, 0, 64, 78
1, 106868, Note_off_c, 0, 52, 58
1, 106890, Note_off_c, 0, 64, 59
1, 106997, Note_on_c, 0, 47, 72
1, 107002, Note_on_c, 0, 59, 75
1, 107048, Note_off_c, 0, 47, 57
1, 107055, Note_off_c, 0, 59, 59
1, 107156, Note_on_c, 0, 52, 76
1, 107166, Note_on_c, 0, 64, 68
1, 107183, Note_off_c, 0, 52, 64
1, 107223, Note_off_c, 0, 64, 57
1, 107324, Note_on_c, 0, 55, 79
1, 107328, Note_on_c, 0, 67, 80
1, 107360, Note_off_c, 0, 55, 61
1, 107384, Note_off_c, 0, 67, 60
1, 107488, Note_on_c, 0, 52, 77
1, 107491, Note_on_c, 0, 64, 78
1, 107520, Note_off_c, 0, 52, 62
1, 107553, Note_off_c, 0, 64, 60
1, 107658, Note_on_c, 0, 55, 74
1, 107664, Note_on_c, 0, 67, 79
1, 107681, Note_off_c, 0, 55, 67
1, 107721, Note_off_c, 0, 67, 62
1, 107843, Note_on_c, 0, 71, 75
1, 107845, Note_on_c, 0, 59, 72
1, 108088, Note_off_c, 0, 59, 61
1, 108095, Note_off_c, 0, 71, 62
1, 108182, Note_on_c, 0, 71, 71
1, 108183, Note_on_c, 0, 59, 67
1, 108211, Note_off_c, 0, 59, 64
1, 108219, Note_off_c, 0, 71, 55
1, 108378, Note_on_c, 0, 59, 52
1, 108379, Note_on_c, 0, 71, 50
1, 108527, Note_off_c, 0, 71, 61
1, 108566, Note_off_c, 0, 59, 60
1, 108735, Note_on_c, 0, 75, 44
1, 108752, Note_on_c, 0, 66, 34
1, 108766, Note_off_c, 0, 75, 52
1, 108779, Note_off_c, 0, 66, 56
1, 108919, Note_on_c, 0, 67, 34
1, 108920, Note_on_c, 0, 78, 43
1, 108927, Note_on_c, 0, 71, 40
1, 108961, Note_off_c, 0, 78, 59
1, 109005, Note_on_c, 0, 76, 55
1, 109094, Note_on_c, 0, 79, 57
1, 109097, Note_off_c, 0, 76, 52
1, 109153, Note_off_c, 0, 79, 60
1, 109162, Note_on_c, 0, 78, 69
1, 109233, Note_on_c, 0, 81, 64
1, 109233, Note_off_c, 0, 78, 59
1, 109288, Note_on_c, 0, 79, 56
1, 109369, Note_off_c, 0, 79, 54
1, 109394, Note_off_c, 0, 81, 32
1, 109398, Note_off_c, 0, 71, 47
1, 109402, Note_on_c, 0, 83, 45
1, 109484, Note_off_c, 0, 67, 60
1, 109632, Note_off_c, 0, 83, 55
1, 109777, Note_on_c, 0, 64, 44
1, 109791, Note_on_c, 0, 73, 45
1, 109794, Note_on_c, 0, 57, 17
1, 109808, Note_off_c, 0, 64, 59
1, 109813, Note_off_c, 0, 73, 60
1, 109834, Note_off_c, 0, 57, 47
1, 110016, Note_on_c, 0, 76, 42
1, 110018, Note_on_c, 0, 62, 35
1, 110021, Note_on_c, 0, 67, 37
1, 110054, Control_c, 0, 64, 25
1, 110069, Control_c, 0, 64, 44
1, 110083, Control_c, 0, 64, 56
1, 110098, Control_c, 0, 64, 63
1, 110113, Control_c, 0, 64, 67
1, 110128, Control_c, 0, 64, 72
1, 110143, Control_c, 0, 64, 78
1, 110157, Control_c, 0, 64, 84
1, 110172, Control_c, 0, 64, 90
1, 110187, Control_c, 0, 64, 95
1, 110202, Control_c, 0, 64, 100
1, 110217, Control_c, 0, 64, 104
1, 110231, Note_off_c, 0, 76, 41
1, 110231, Control_c, 0, 64, 108
1, 110246, Control_c, 0, 64, 113
1, 110261, Control_c, 0, 64, 122
1, 110276, Control_c, 0, 64, 127
1, 110278, Note_off_c, 0, 62, 49
1, 110319, Note_off_c, 0, 67, 33
1, 110595, Control_c, 0, 64, 112
1, 110610, Control_c, 0, 64, 97
1, 110621, Note_on_c, 0, 66, 31
1, 110625, Control_c, 0, 64, 84
1, 110640, Control_c, 0, 64, 73
1, 110654, Control_c, 0, 64, 64
1, 110657, Note_on_c, 0, 74, 35
1, 110669, Control_c, 0, 64, 56
1, 110684, Control_c, 0, 64, 53
1, 110699, Control_c, 0, 64, 51
1, 110702, Note_off_c, 0, 66, 0
1, 110702, Note_on_c, 0, 66, 3
1, 110714, Control_c, 0, 64, 50
1, 110729, Control_c, 0, 64, 49
1, 110744, Control_c, 0, 64, 46
1, 110758, Control_c, 0, 64, 43
1, 110772, Note_off_c, 0, 66, 58
1, 110773, Control_c, 0, 64, 39
1, 110788, Control_c, 0, 64, 37
1, 110803, Control_c, 0, 64, 36
1, 110833, Control_c, 0, 64, 35
1, 110862, Control_c, 0, 64, 35
1, 110877, Control_c, 0, 64, 34
1, 110892, Control_c, 0, 64, 34
1, 110921, Control_c, 0, 64, 33
1, 110936, Control_c, 0, 64, 33
1, 110966, Control_c, 0, 64, 32
1, 110980, Control_c, 0, 64, 31
1, 110988, Note_on_c, 0, 45, 58
1, 110995, Control_c, 0, 64, 30
1, 111010, Control_c, 0, 64, 28
1, 111025, Control_c, 0, 64, 26
1, 111033, Note_off_c, 0, 45, 59
1, 111040, Control_c, 0, 64, 24
1, 111051, Note_off_c, 0, 74, 50
1, 111054, Control_c, 0, 64, 21
1, 111069, Control_c, 0, 64, 16
1, 111084, Control_c, 0, 64, 0
1, 111151, Note_on_c, 0, 50, 67
1, 111196, Note_off_c, 0, 50, 57
1, 111328, Note_on_c, 0, 45, 63
1, 111333, Note_on_c, 0, 74, 73
1, 111373, Note_off_c, 0, 45, 59
1, 111399, Note_off_c, 0, 74, 60
1, 111489, Note_on_c, 0, 50, 68
1, 111491, Note_on_c, 0, 78, 76
1, 111519, Note_off_c, 0, 50, 64
1, 111552, Note_off_c, 0, 78, 62
1, 111647, Note_on_c, 0, 54, 70
1, 111650, Note_on_c, 0, 81, 80
1, 111700, Note_off_c, 0, 54, 57
1, 111712, Note_off_c, 0, 81, 62
1, 111802, Note_on_c, 0, 50, 62
1, 111811, Note_on_c, 0, 78, 72
1, 111835, Note_off_c, 0, 50, 64
1, 111858, Note_off_c, 0, 78, 61
1, 111969, Note_on_c, 0, 54, 57
1, 111972, Note_on_c, 0, 86, 60
1, 111995, Note_off_c, 0, 54, 59
1, 112154, Note_on_c, 0, 57, 42
1, 112204, Note_off_c, 0, 86, 55
1, 112220, Note_on_c, 0, 85, 62
1, 112289, Note_off_c, 0, 85, 61
1, 112307, Note_on_c, 0, 88, 68
1, 112359, Note_off_c, 0, 57, 62
1, 112378, Note_on_c, 0, 86, 64
1, 112469, Note_on_c, 0, 85, 69
1, 112473, Note_on_c, 0, 57, 51
1, 112497, Note_off_c, 0, 88, 37
1, 112498, Note_off_c, 0, 57, 61
1, 112528, Note_on_c, 0, 83, 73
1, 112555, Note_off_c, 0, 86, 52
1, 112568, Note_off_c, 0, 85, 57
1, 112612, Note_off_c, 0, 83, 61
1, 112616, Note_on_c, 0, 81, 68
1, 112621, Note_on_c, 0, 57, 58
1, 112654, Note_off_c, 0, 57, 63
1, 112667, Note_off_c, 0, 81, 56
1, 112713, Note_on_c, 0, 83, 66
1, 112778, Note_on_c, 0, 81, 75
1, 112863, Note_on_c, 0, 79, 68
1, 112897, Note_off_c, 0, 83, 36
1, 112940, Note_on_c, 0, 78, 67
1, 112949, Note_on_c, 0, 67, 66
1, 112970, Note_off_c, 0, 79, 57
1, 112977, Note_off_c, 0, 81, 56
1, 113004, Note_on_c, 0, 76, 67
1, 113008, Note_off_c, 0, 78, 61
1, 113051, Note_off_c, 0, 76, 59
1, 113098, Note_on_c, 0, 74, 68
1, 113142, Note_off_c, 0, 67, 60
1, 113152, Note_on_c, 0, 66, 57
1, 113207, Note_off_c, 0, 66, 53
1, 113218, Note_off_c, 0, 74, 56
1, 113235, Note_on_c, 0, 69, 71
1, 113303, Note_on_c, 0, 67, 60
1, 113316, Note_off_c, 0, 69, 59
1, 113375, Note_on_c, 0, 66, 67
1, 113375, Note_on_c, 0, 74, 79
1, 113388, Note_off_c, 0, 67, 58
1, 113409, Note_off_c, 0, 66, 63
1, 113433, Note_off_c, 0, 74, 55
1, 113466, Note_on_c, 0, 64, 72
1, 113534, Note_off_c, 0, 64, 57
1, 113536, Note_on_c, 0, 62, 69
1, 113550, Note_on_c, 0, 74, 86
1, 113600, Note_off_c, 0, 62, 59
1, 113614, Note_off_c, 0, 74, 60
1, 113625, Note_on_c, 0, 64, 71
1, 113697, Note_off_c, 0, 64, 60
1, 113705, Note_on_c, 0, 62, 69
1, 113772, Note_on_c, 0, 60, 71
1, 113778, Note_off_c, 0, 62, 58
1, 113800, Note_off_c, 0, 60, 62
1, 113849, Note_on_c, 0, 62, 68
1, 113865, Note_on_c, 0, 59, 73
1, 113932, Note_off_c, 0, 59, 59
1, 113933, Note_on_c, 0, 57, 70
1, 114021, Note_on_c, 0, 55, 73
1, 114023, Note_off_c, 0, 57, 62
1, 114031, Note_on_c, 0, 67, 62
1, 114043, Note_off_c, 0, 55, 66
1, 114050, Note_off_c, 0, 62, 58
1, 114097, Note_off_c, 0, 67, 61
1, 114184, Note_on_c, 0, 62, 71
1, 114199, Note_on_c, 0, 43, 63
1, 114240, Note_off_c, 0, 43, 63
1, 114249, Note_off_c, 0, 62, 56
1, 114360, Note_on_c, 0, 47, 63
1, 114364, Note_on_c, 0, 67, 71
1, 114397, Note_off_c, 0, 47, 60
1, 114431, Note_off_c, 0, 67, 58
1, 114519, Note_on_c, 0, 50, 61
1, 114528, Note_on_c, 0, 71, 68
1, 114558, Note_off_c, 0, 50, 58
1, 114580, Note_off_c, 0, 71, 59
1, 114678, Note_on_c, 0, 47, 51
1, 114690, Note_on_c, 0, 67, 66
1, 114704, Note_off_c, 0, 47, 58
1, 114744, Note_off_c, 0, 67, 56
1, 114840, Note_on_c, 0, 71, 65
1, 114855, Note_on_c, 0, 55, 58
1, 114892, Note_off_c, 0, 71, 60
1, 115014, Note_on_c, 0, 74, 65
1, 115060, Note_off_c, 0, 55, 58
1, 115078, Note_on_c, 0, 54, 54
1, 115158, Note_off_c, 0, 54, 57
1, 115173, Note_on_c, 0, 57, 63
1, 115203, Note_off_c, 0, 74, 59
1, 115244, Note_on_c, 0, 55, 59
1, 115251, Note_off_c, 0, 57, 55
1, 115313, Note_on_c, 0, 54, 66
1, 115319, Note_on_c, 0, 74, 77
1, 115323, Note_off_c, 0, 55, 57
1, 115351, Note_off_c, 0, 54, 65
1, 115386, Note_off_c, 0, 74, 59
1, 115406, Note_on_c, 0, 52, 71
1, 115468, Note_off_c, 0, 52, 59
1, 115474, Note_on_c, 0, 50, 67
1, 115494, Note_on_c, 0, 74, 81
1, 115529, Note_off_c, 0, 50, 58
1, 115552, Note_off_c, 0, 74, 58
1, 115558, Note_on_c, 0, 52, 67
1, 115620, Note_off_c, 0, 52, 58
1, 115629, Note_on_c, 0, 50, 66
1, 115690, Note_off_c, 0, 50, 58
1, 115693, Note_on_c, 0, 48, 63
1, 115732, Note_off_c, 0, 48, 65
1, 115796, Note_on_c, 0, 72, 58
1, 115798, Note_on_c, 0, 47, 64
1, 115862, Note_off_c, 0, 47, 55
1, 115878, Note_on_c, 0, 45, 59
1, 115950, Note_on_c, 0, 43, 65
1, 115951, Note_off_c, 0, 45, 58
1, 115980, Note_off_c, 0, 43, 63
1, 116023, Note_on_c, 0, 71, 62
1, 116055, Note_off_c, 0, 72, 52
1, 116082, Note_off_c, 0, 71, 58
1, 116106, Note_on_c, 0, 74, 70
1, 116174, Note_on_c, 0, 72, 67
1, 116252, Note_on_c, 0, 60, 71
1, 116254, Note_off_c, 0, 74, 55
1, 116269, Note_on_c, 0, 71, 69
1, 116354, Note_on_c, 0, 69, 70
1, 116368, Note_off_c, 0, 72, 47
1, 116382, Note_off_c, 0, 71, 55
1, 116425, Note_on_c, 0, 67, 74
1, 116434, Note_off_c, 0, 69, 63
1, 116450, Note_off_c, 0, 67, 64
1, 116500, Note_on_c, 0, 59, 51
1, 116516, Note_off_c, 0, 60, 51
1, 116587, Note_on_c, 0, 62, 64
1, 116589, Note_off_c, 0, 59, 59
1, 116640, Note_on_c, 0, 60, 68
1, 116646, Note_off_c, 0, 62, 58
1, 116686, Note_off_c, 0, 60, 58
1, 116738, Note_on_c, 0, 59, 63
1, 116749, Note_on_c, 0, 84, 80
1, 116819, Note_off_c, 0, 59, 0
1, 116820, Note_on_c, 0, 57, 46
1, 116850, Note_on_c, 0, 59, 11
1, 116895, Note_off_c, 0, 59, 48
1, 116907, Note_on_c, 0, 55, 58
1, 116935, Note_off_c, 0, 57, 53
1, 116956, Note_off_c, 0, 55, 59
1, 116991, Note_off_c, 0, 84, 59
1, 116994, Note_on_c, 0, 83, 72
1, 117068, Note_off_c, 0, 83, 62
1, 117072, Note_on_c, 0, 86, 71
1, 117146, Note_on_c, 0, 84, 73
1, 117218, Note_on_c, 0, 83, 73
1, 117223, Note_on_c, 0, 72, 72
1, 117233, Note_off_c, 0, 86, 54
1, 117251, Note_off_c, 0, 84, 57
1, 117290, Note_on_c, 0, 81, 70
1, 117290, Note_off_c, 0, 83, 61
1, 117372, Note_off_c, 0, 81, 62
1, 117376, Note_on_c, 0, 80, 70
1, 117429, Note_off_c, 0, 80, 56
1, 117454, Note_on_c, 0, 71, 57
1, 117478, Note_off_c, 0, 72, 59
1, 117510, Note_off_c, 0, 71, 59
1, 117533, Note_on_c, 0, 76, 67
1, 117596, Note_on_c, 0, 74, 69
1, 117605, Note_off_c, 0, 76, 59
1, 117620, Note_off_c, 0, 74, 66
1, 117692, Note_on_c, 0, 72, 69
1, 117705, Note_on_c, 0, 74, 76
1, 117743, Note_off_c, 0, 72, 61
1, 117765, Note_on_c, 0, 71, 63
1, 117847, Note_on_c, 0, 69, 55
1, 117857, Note_off_c, 0, 71, 56
1, 117897, Note_off_c, 0, 69, 62
1, 117924, Note_on_c, 0, 72, 62
1, 117958, Note_off_c, 0, 74, 44
1, 117994, Note_off_c, 0, 72, 59
1, 118010, Note_on_c, 0, 76, 70
1, 118081, Note_on_c, 0, 74, 75
1, 118166, Note_on_c, 0, 62, 68
1, 118166, Note_on_c, 0, 72, 73
1, 118169, Note_off_c, 0, 76, 58
1, 118210, Note_on_c, 0, 60, 17
1, 118211, Note_off_c, 0, 60, 127
1, 118246, Note_on_c, 0, 71, 74
1, 118258, Note_off_c, 0, 74, 56
1, 118282, Note_off_c, 0, 72, 59
1, 118333, Note_on_c, 0, 69, 77
1, 118342, Note_off_c, 0, 71, 58
1, 118366, Note_off_c, 0, 69, 60
1, 118404, Note_on_c, 0, 60, 53
1, 118431, Note_off_c, 0, 62, 51
1, 118500, Note_off_c, 0, 60, 55
1, 118506, Note_on_c, 0, 64, 62
1, 118551, Note_on_c, 0, 62, 68
1, 118559, Note_off_c, 0, 64, 59
1, 118595, Note_off_c, 0, 62, 61
1, 118631, Note_on_c, 0, 86, 88
1, 118648, Note_on_c, 0, 60, 71
1, 118720, Note_off_c, 0, 60, 56
1, 118721, Note_on_c, 0, 59, 63
1, 118806, Note_on_c, 0, 57, 68
1, 118820, Note_off_c, 0, 59, 60
1, 118845, Note_off_c, 0, 57, 62
1, 118881, Note_on_c, 0, 84, 73
1, 118887, Note_off_c, 0, 86, 59
1, 118949, Note_off_c, 0, 84, 59
1, 118959, Note_on_c, 0, 88, 79
1, 119021, Note_on_c, 0, 86, 75
1, 119100, Note_on_c, 0, 84, 77
1, 119108, Note_on_c, 0, 74, 86
1, 119129, Note_off_c, 0, 88, 46
1, 119138, Note_off_c, 0, 86, 62
1, 119176, Note_off_c, 0, 84, 60
1, 119182, Note_on_c, 0, 83, 72
1, 119260, Note_off_c, 0, 83, 63
1, 119263, Note_on_c, 0, 82, 72
1, 119322, Note_off_c, 0, 82, 53
1, 119323, Note_on_c, 0, 73, 65
1, 119327, Note_off_c, 0, 74, 57
1, 119410, Note_on_c, 0, 78, 57
1, 119417, Note_off_c, 0, 73, 62
1, 119450, Note_off_c, 0, 78, 60
1, 119496, Note_on_c, 0, 76, 69
1, 119545, Note_off_c, 0, 76, 60
1, 119573, Note_on_c, 0, 74, 68
1, 119583, Note_on_c, 0, 76, 75
1, 119645, Note_on_c, 0, 73, 63
1, 119683, Note_off_c, 0, 74, 32
1, 119718, Note_off_c, 0, 73, 61
1, 119719, Note_on_c, 0, 71, 70
1, 119767, Note_off_c, 0, 71, 63
1, 119802, Note_off_c, 0, 76, 61
1, 119805, Note_on_c, 0, 74, 71
1, 119884, Note_on_c, 0, 78, 69
1, 119895, Note_off_c, 0, 74, 58
1, 119956, Note_on_c, 0, 76, 71
1, 120003, Note_off_c, 0, 78, 55
1, 120023, Note_on_c, 0, 64, 76
1, 120035, Note_off_c, 0, 76, 60
1, 120038, Note_on_c, 0, 74, 72
1, 120115, Note_on_c, 0, 73, 74
1, 120121, Note_off_c, 0, 74, 61
1, 120186, Note_on_c, 0, 71, 71
1, 120205, Note_off_c, 0, 73, 61
1, 120230, Note_off_c, 0, 71, 62
1, 120278, Note_off_c, 0, 64, 56
1, 120280, Note_on_c, 0, 62, 59
1, 120352, Note_on_c, 0, 67, 65
1, 120376, Note_off_c, 0, 62, 56
1, 120411, Note_on_c, 0, 66, 64
1, 120418, Note_off_c, 0, 67, 57
1, 120477, Note_off_c, 0, 66, 60
1, 120487, Note_on_c, 0, 78, 84
1, 120491, Note_on_c, 0, 64, 67
1, 120531, Note_off_c, 0, 64, 55
1, 120586, Note_on_c, 0, 62, 71
1, 120660, Note_on_c, 0, 61, 68
1, 120664, Note_off_c, 0, 62, 60
1, 120698, Note_off_c, 0, 61, 60
1, 120729, Note_on_c, 0, 76, 74
1, 120736, Note_off_c, 0, 78, 58
1, 120794, Note_off_c, 0, 76, 63
1, 120796, Note_on_c, 0, 79, 78
1, 120876, Note_on_c, 0, 78, 72
1, 120944, Note_on_c, 0, 66, 79
1, 120950, Note_on_c, 0, 76, 72
1, 120953, Note_off_c, 0, 79, 57
1, 120995, Note_off_c, 0, 78, 59
1, 121025, Note_on_c, 0, 74, 75
1, 121026, Note_off_c, 0, 76, 63
1, 121110, Note_on_c, 0, 73, 75
1, 121114, Note_off_c, 0, 74, 62
1, 121152, Note_off_c, 0, 73, 61
1, 121197, Note_on_c, 0, 64, 56
1, 121212, Note_off_c, 0, 66, 58
1, 121254, Note_on_c, 0, 69, 62
1, 121286, Note_off_c, 0, 64, 56
1, 121325, Note_on_c, 0, 67, 64
1, 121347, Note_off_c, 0, 69, 60
1, 121396, Note_on_c, 0, 79, 86
1, 121405, Note_on_c, 0, 66, 64
1, 121413, Note_off_c, 0, 67, 60
1, 121443, Note_off_c, 0, 66, 63
1, 121483, Note_on_c, 0, 64, 73
1, 121556, Note_off_c, 0, 64, 57
1, 121569, Note_on_c, 0, 62, 76
1, 121570, Note_on_c, 0, 78, 78
1, 121597, Note_off_c, 0, 79, 58
1, 121597, Note_off_c, 0, 62, 62
1, 121637, Note_off_c, 0, 78, 62
1, 121653, Note_on_c, 0, 74, 74
1, 121743, Note_on_c, 0, 78, 72
1, 121749, Note_off_c, 0, 74, 58
1, 121818, Note_on_c, 0, 81, 73
1, 121824, Note_off_c, 0, 78, 60
1, 121885, Note_off_c, 0, 81, 62
1, 121889, Note_on_c, 0, 67, 63
1, 121894, Note_on_c, 0, 64, 63
1, 121904, Note_on_c, 0, 86, 75
1, 121908, Note_off_c, 0, 67, 64
1, 121924, Note_off_c, 0, 64, 63
1, 121978, Note_on_c, 0, 85, 76
1, 122002, Note_off_c, 0, 86, 61
1, 122021, Note_off_c, 0, 85, 62
1, 122061, Note_on_c, 0, 62, 59
1, 122064, Control_c, 0, 64, 34
1, 122069, Note_on_c, 0, 66, 69
1, 122079, Control_c, 0, 64, 59
1, 122094, Control_c, 0, 64, 65
1, 122109, Control_c, 0, 64, 70
1, 122124, Control_c, 0, 64, 76
1, 122138, Control_c, 0, 64, 85
1, 122153, Control_c, 0, 64, 93
1, 122154, Note_on_c, 0, 71, 76
1, 122168, Control_c, 0, 64, 106
1, 122182, Control_c, 0, 64, 127
1, 122228, Note_on_c, 0, 74, 77
1, 122229, Note_off_c, 0, 71, 59
1, 122306, Note_on_c, 0, 78, 77
1, 122331, Note_off_c, 0, 74, 57
1, 122345, Control_c, 0, 64, 106
1, 122353, Note_off_c, 0, 66, 60
1, 122360, Control_c, 0, 64, 86
1, 122375, Note_off_c, 0, 78, 62
1, 122375, Control_c, 0, 64, 69
1, 122378, Note_on_c, 0, 64, 54
1, 122391, Control_c, 0, 64, 56
1, 122396, Note_on_c, 0, 61, 65
1, 122396, Note_on_c, 0, 83, 87
1, 122405, Control_c, 0, 64, 30
1, 122410, Note_off_c, 0, 64, 63
1, 122420, Control_c, 0, 64, 0
1, 122426, Note_off_c, 0, 61, 63
1, 122439, Note_off_c, 0, 62, 35
1, 122473, Note_on_c, 0, 81, 76
1, 122492, Note_off_c, 0, 83, 60
1, 122516, Note_off_c, 0, 81, 60
1, 122560, Control_c, 0, 64, 18
1, 122563, Note_on_c, 0, 62, 74
1, 122571, Note_on_c, 0, 59, 71
1, 122575, Control_c, 0, 64, 51
1, 122590, Control_c, 0, 64, 62
1, 122605, Control_c, 0, 64, 68
1, 122619, Control_c, 0, 64, 78
1, 122634, Control_c, 0, 64, 91
1, 122648, Note_on_c, 0, 67, 75
1, 122649, Control_c, 0, 64, 109
1, 122664, Control_c, 0, 64, 127
1, 122728, Note_off_c, 0, 67, 61
1, 122733, Note_on_c, 0, 71, 79
1, 122816, Note_on_c, 0, 74, 79
1, 122819, Note_off_c, 0, 71, 57
1, 122827, Control_c, 0, 64, 97
1, 122834, Note_off_c, 0, 62, 55
1, 122842, Control_c, 0, 64, 79
1, 122857, Control_c, 0, 64, 65
1, 122872, Control_c, 0, 64, 50
1, 122882, Note_on_c, 0, 61, 65
1, 122886, Control_c, 0, 64, 0
1, 122887, Note_on_c, 0, 79, 82
1, 122887, Note_off_c, 0, 74, 61
1, 122891, Note_off_c, 0, 59, 58
1, 122897, Note_on_c, 0, 57, 61
1, 122907, Note_off_c, 0, 61, 66
1, 122935, Note_off_c, 0, 57, 64
1, 122965, Note_on_c, 0, 78, 73
1, 122977, Note_off_c, 0, 79, 61
1, 123004, Note_off_c, 0, 78, 62
1, 123034, Control_c, 0, 64, 34
1, 123049, Control_c, 0, 64, 58
1, 123052, Note_on_c, 0, 55, 65
1, 123055, Note_on_c, 0, 59, 60
1, 123064, Control_c, 0, 64, 65
1, 123078, Control_c, 0, 64, 72
1, 123093, Control_c, 0, 64, 80
1, 123095, Note_off_c, 0, 55, 60
1, 123108, Note_off_c, 0, 59, 52
1, 123108, Control_c, 0, 64, 91
1, 123123, Control_c, 0, 64, 105
1, 123130, Note_on_c, 0, 64, 69
1, 123138, Control_c, 0, 64, 127
1, 123201, Note_off_c, 0, 64, 57
1, 123205, Note_on_c, 0, 67, 77
1, 123283, Note_on_c, 0, 71, 77
1, 123284, Note_off_c, 0, 67, 57
1, 123350, Note_off_c, 0, 71, 58
1, 123359, Note_on_c, 0, 56, 49
1, 123365, Note_on_c, 0, 59, 65
1, 123366, Note_on_c, 0, 76, 79
1, 123383, Control_c, 0, 64, 123
1, 123389, Note_off_c, 0, 56, 61
1, 123394, Note_off_c, 0, 59, 64
1, 123398, Control_c, 0, 64, 105
1, 123413, Control_c, 0, 64, 94
1, 123428, Control_c, 0, 64, 87
1, 123436, Note_on_c, 0, 74, 82
1, 123442, Control_c, 0, 64, 79
1, 123457, Control_c, 0, 64, 73
1, 123472, Control_c, 0, 64, 67
1, 123487, Control_c, 0, 64, 64
1, 123502, Control_c, 0, 64, 62
1, 123517, Control_c, 0, 64, 60
1, 123525, Note_on_c, 0, 73, 87
1, 123526, Note_on_c, 0, 57, 66
1, 123532, Control_c, 0, 64, 58
1, 123547, Control_c, 0, 64, 55
1, 123554, Note_off_c, 0, 76, 61
1, 123561, Control_c, 0, 64, 52
1, 123564, Note_off_c, 0, 74, 62
1, 123576, Control_c, 0, 64, 48
1, 123579, Note_off_c, 0, 73, 65
1, 123590, Note_on_c, 0, 64, 74
1, 123591, Control_c, 0, 64, 43
1, 123606, Control_c, 0, 64, 36
1, 123621, Control_c, 0, 64, 27
1, 123650, Control_c, 0, 64, 0
1, 123666, Note_off_c, 0, 64, 60
1, 123671, Note_on_c, 0, 61, 69
1, 123694, Note_on_c, 0, 81, 84
1, 123737, Note_off_c, 0, 61, 59
1, 123755, Note_on_c, 0, 64, 72
1, 123764, Note_off_c, 0, 81, 61
1, 123831, Note_off_c, 0, 57, 53
1, 123832, Note_off_c, 0, 64, 62
1, 123838, Note_on_c, 0, 62, 72
1, 123856, Note_on_c, 0, 78, 82
1, 123857, Note_on_c, 0, 74, 73
1, 123883, Note_off_c, 0, 74, 64
1, 123920, Note_off_c, 0, 62, 57
1, 123923, Note_on_c, 0, 66, 77
1, 123928, Note_off_c, 0, 78, 56
1, 123975, Note_off_c, 0, 66, 61
1, 124010, Note_on_c, 0, 73, 81
1, 124012, Note_on_c, 0, 57, 73
1, 124012, Note_on_c, 0, 76, 81
1, 124068, Note_off_c, 0, 73, 61
1, 124087, Note_off_c, 0, 76, 62
1, 124101, Note_on_c, 0, 64, 73
1, 124177, Note_on_c, 0, 81, 85
1, 124183, Note_off_c, 0, 64, 61
1, 124187, Note_on_c, 0, 61, 68
1, 124253, Note_off_c, 0, 61, 54
1, 124256, Note_off_c, 0, 81, 59
1, 124265, Note_on_c, 0, 64, 71
1, 124332, Note_off_c, 0, 57, 47
1, 124335, Note_off_c, 0, 64, 59
1, 124342, Note_on_c, 0, 62, 70
1, 124345, Note_on_c, 0, 74, 76
1, 124355, Note_on_c, 0, 78, 70
1, 124386, Note_off_c, 0, 74, 49
1, 124407, Note_off_c, 0, 62, 56
1, 124423, Note_on_c, 0, 66, 69
1, 124444, Note_off_c, 0, 66, 69
1, 124456, Note_off_c, 0, 78, 35
1, 124502, Control_c, 0, 64, 46
1, 124510, Note_on_c, 0, 64, 86
1, 124511, Note_on_c, 0, 76, 80
1, 124516, Note_on_c, 0, 73, 80
1, 124517, Control_c, 0, 64, 60
1, 124529, Note_on_c, 0, 57, 64
1, 124532, Control_c, 0, 64, 66
1, 124547, Control_c, 0, 64, 71
1, 124562, Control_c, 0, 64, 78
1, 124576, Control_c, 0, 64, 82
1, 124591, Control_c, 0, 64, 84
1, 124618, Note_off_c, 0, 73, 62
1, 124650, Control_c, 0, 64, 83
1, 124666, Control_c, 0, 64, 78
1, 124681, Control_c, 0, 64, 70
1, 124685, Note_off_c, 0, 64, 59
1, 124691, Note_on_c, 0, 81, 72
1, 124696, Control_c, 0, 64, 60
1, 124704, Note_off_c, 0, 76, 62
1, 124710, Control_c, 0, 64, 47
1, 124715, Note_off_c, 0, 57, 62
1, 124725, Control_c, 0, 64, 25
1, 124736, Note_off_c, 0, 81, 60
1, 124740, Control_c, 0, 64, 0
1, 124869, Note_on_c, 0, 57, 65
1, 124873, Note_on_c, 0, 45, 64
1, 124873, Note_on_c, 0, 69, 64
1, 124898, Note_off_c, 0, 57, 65
1, 124899, Note_off_c, 0, 69, 67
1, 124907, Note_off_c, 0, 45, 60
1, 125075, Note_on_c, 0, 69, 47
1, 125079, Note_on_c, 0, 57, 37
1, 125080, Note_on_c, 0, 45, 41
1, 125356, Note_off_c, 0, 45, 52
1, 125361, Note_off_c, 0, 69, 57
1, 125376, Note_off_c, 0, 57, 48
1, 125907, Note_on_c, 0, 66, 32
1, 126111, Note_on_c, 0, 67, 35
1, 126127, Note_off_c, 0, 66, 42
1, 126494, Note_off_c, 0, 67, 51
1, 126503, Note_on_c, 0, 69, 47
1, 126650, Note_off_c, 0, 69, 50
1, 126688, Note_on_c, 0, 71, 44
1, 126868, Note_on_c, 0, 69, 47
1, 126904, Note_off_c, 0, 71, 35
1, 126947, Note_on_c, 0, 67, 44
1, 127017, Note_on_c, 0, 66, 42
1, 127023, Note_off_c, 0, 67, 44
1, 127038, Note_off_c, 0, 69, 36
1, 127073, Note_off_c, 0, 66, 59
1, 127102, Note_on_c, 0, 64, 46
1, 127207, Note_on_c, 0, 62, 46
1, 127216, Note_on_c, 0, 45, 25
1, 127216, Note_on_c, 0, 52, 30
1, 127224, Note_on_c, 0, 55, 27
1, 127226, Note_off_c, 0, 64, 33
1, 127305, Control_c, 0, 64, 27
1, 127320, Control_c, 0, 64, 47
1, 127335, Control_c, 0, 64, 55
1, 127350, Control_c, 0, 64, 60
1, 127365, Control_c, 0, 64, 62
1, 127380, Control_c, 0, 64, 63
1, 127395, Control_c, 0, 64, 64
1, 127409, Control_c, 0, 64, 65
1, 127424, Control_c, 0, 64, 66
1, 127439, Control_c, 0, 64, 67
1, 127454, Control_c, 0, 64, 68
1, 127469, Control_c, 0, 64, 70
1, 127483, Control_c, 0, 64, 72
1, 127498, Control_c, 0, 64, 74
1, 127513, Control_c, 0, 64, 77
1, 127527, Control_c, 0, 64, 79
1, 127542, Control_c, 0, 64, 81
1, 127557, Control_c, 0, 64, 82
1, 127572, Control_c, 0, 64, 83
1, 127587, Control_c, 0, 64, 84
1, 127601, Control_c, 0, 64, 85
1, 127616, Control_c, 0, 64, 87
1, 127631, Control_c, 0, 64, 87
1, 127646, Control_c, 0, 64, 88
1, 127661, Control_c, 0, 64, 89
1, 127690, Control_c, 0, 64, 90
1, 127705, Control_c, 0, 64, 90
1, 127720, Control_c, 0, 64, 91
1, 127735, Control_c, 0, 64, 91
1, 127750, Control_c, 0, 64, 92
1, 127754, Note_off_c, 0, 55, 40
1, 127764, Control_c, 0, 64, 92
1, 127776, Note_on_c, 0, 61, 46
1, 127779, Control_c, 0, 64, 93
1, 127801, Control_c, 0, 64, 94
1, 127816, Control_c, 0, 64, 95
1, 127831, Control_c, 0, 64, 96
1, 127846, Control_c, 0, 64, 97
1, 127854, Note_off_c, 0, 52, 32
1, 127860, Control_c, 0, 64, 98
1, 127869, Note_off_c, 0, 62, 38
1, 127873, Note_off_c, 0, 45, 35
1, 127913, Note_off_c, 0, 61, 35
1, 128128, Control_c, 0, 64, 97
1, 128143, Control_c, 0, 64, 97
1, 128149, Note_on_c, 0, 43, 46
1, 128151, Note_on_c, 0, 59, 42
1, 128152, Note_on_c, 0, 49, 42
1, 128158, Control_c, 0, 64, 96
1, 128173, Control_c, 0, 64, 95
1, 128183, Note_off_c, 0, 49, 54
1, 128188, Control_c, 0, 64, 94
1, 128191, Note_off_c, 0, 59, 47
1, 128193, Note_off_c, 0, 43, 61
1, 128203, Control_c, 0, 64, 93
1, 128218, Control_c, 0, 64, 91
1, 128232, Control_c, 0, 64, 89
1, 128247, Control_c, 0, 64, 87
1, 128262, Control_c, 0, 64, 84
1, 128276, Control_c, 0, 64, 82
1, 128291, Control_c, 0, 64, 78
1, 128306, Control_c, 0, 64, 75
1, 128321, Control_c, 0, 64, 71
1, 128336, Control_c, 0, 64, 68
1, 128350, Control_c, 0, 64, 66
1, 128354, Note_on_c, 0, 59, 32
1, 128361, Note_on_c, 0, 50, 37
1, 128365, Control_c, 0, 64, 65
1, 128367, Note_on_c, 0, 42, 32
1, 128380, Control_c, 0, 64, 65
1, 128395, Control_c, 0, 64, 64
1, 128411, Control_c, 0, 64, 64
1, 128425, Control_c, 0, 64, 63
1, 128440, Control_c, 0, 64, 61
1, 128455, Control_c, 0, 64, 60
1, 128470, Control_c, 0, 64, 58
1, 128484, Control_c, 0, 64, 57
1, 128499, Control_c, 0, 64, 55
1, 128514, Control_c, 0, 64, 53
1, 128529, Control_c, 0, 64, 51
1, 128534, Note_on_c, 0, 57, 43
1, 128535, Note_off_c, 0, 59, 52
1, 128544, Control_c, 0, 64, 49
1, 128581, Control_c, 0, 64, 47
1, 128581, Note_off_c, 0, 57, 63
1, 128596, Control_c, 0, 64, 44
1, 128611, Control_c, 0, 64, 41
1, 128625, Control_c, 0, 64, 38
1, 128640, Control_c, 0, 64, 34
1, 128655, Control_c, 0, 64, 28
1, 128670, Control_c, 0, 64, 23
1, 128684, Control_c, 0, 64, 18
1, 128708, Note_on_c, 0, 57, 53
1, 128714, Control_c, 0, 64, 0
1, 128750, Note_off_c, 0, 57, 59
1, 128755, Note_off_c, 0, 50, 48
1, 128768, Note_off_c, 0, 42, 51
1, 128879, Note_on_c, 0, 57, 56
1, 129037, Note_on_c, 0, 42, 37
1, 129040, Note_off_c, 0, 57, 59
1, 129046, Note_on_c, 0, 62, 56
1, 129084, Note_off_c, 0, 62, 58
1, 129213, Note_on_c, 0, 62, 53
1, 129218, Note_off_c, 0, 42, 40
1, 129222, Note_on_c, 0, 38, 32
1, 129226, Note_on_c, 0, 66, 46
1, 129255, Note_off_c, 0, 62, 59
1, 129266, Note_off_c, 0, 66, 59
1, 129416, Note_off_c, 0, 38, 37
1, 129437, Note_on_c, 0, 66, 35
1, 129453, Note_on_c, 0, 45, 23
1, 129453, Note_on_c, 0, 62, 34
1, 129522, Control_c, 0, 64, 22
1, 129537, Control_c, 0, 64, 41
1, 129552, Control_c, 0, 64, 52
1, 129567, Control_c, 0, 64, 59
1, 129583, Control_c, 0, 64, 62
1, 129597, Control_c, 0, 64, 64
1, 129612, Control_c, 0, 64, 65
1, 129627, Control_c, 0, 64, 66
1, 129642, Control_c, 0, 64, 67
1, 129657, Control_c, 0, 64, 68
1, 129671, Control_c, 0, 64, 70
1, 129678, Note_off_c, 0, 45, 50
1, 129686, Control_c, 0, 64, 72
1, 129694, Note_off_c, 0, 66, 39
1, 129701, Control_c, 0, 64, 74
1, 129703, Note_off_c, 0, 62, 35
1, 129716, Control_c, 0, 64, 76
1, 129730, Control_c, 0, 64, 77
1, 129745, Control_c, 0, 64, 78
1, 129824, Note_on_c, 0, 64, 42
1, 129836, Note_on_c, 0, 67, 40
1, 129864, Note_off_c, 0, 64, 59
1, 129890, Note_off_c, 0, 67, 41
1, 129923, Control_c, 0, 64, 77
1, 129938, Control_c, 0, 64, 77
1, 129952, Control_c, 0, 64, 76
1, 129967, Control_c, 0, 64, 75
1, 129982, Control_c, 0, 64, 74
1, 129997, Control_c, 0, 64, 72
1, 130012, Control_c, 0, 64, 69
1, 130027, Control_c, 0, 64, 67
1, 130048, Control_c, 0, 64, 65
1, 130063, Control_c, 0, 64, 63
1, 130077, Note_on_c, 0, 64, 32
1, 130078, Note_on_c, 0, 61, 28
1, 130078, Control_c, 0, 64, 61
1, 130093, Control_c, 0, 64, 60
1, 130108, Control_c, 0, 64, 59
1, 130122, Control_c, 0, 64, 58
1, 130137, Control_c, 0, 64, 57
1, 130152, Control_c, 0, 64, 56
1, 130167, Control_c, 0, 64, 54
1, 130182, Control_c, 0, 64, 51
1, 130197, Control_c, 0, 64, 49
1, 130212, Control_c, 0, 64, 46
1, 130227, Control_c, 0, 64, 43
1, 130242, Control_c, 0, 64, 40
1, 130256, Control_c, 0, 64, 37
1, 130271, Control_c, 0, 64, 34
1, 130275, Note_off_c, 0, 64, 41
1, 130286, Control_c, 0, 64, 30
1, 130301, Control_c, 0, 64, 26
1, 130305, Note_off_c, 0, 61, 40
1, 130316, Control_c, 0, 64, 22
1, 130330, Control_c, 0, 64, 18
1, 130360, Control_c, 0, 64, 0
1, 130485, Note_on_c, 0, 66, 36
1, 130682, Note_off_c, 0, 66, 40
1, 130683, Note_on_c, 0, 67, 37
1, 131035, Note_off_c, 0, 67, 53
1, 131053, Note_on_c, 0, 69, 46
1, 131213, Note_off_c, 0, 69, 45
1, 131243, Note_on_c, 0, 71, 42
1, 131428, Note_on_c, 0, 69, 52
1, 131440, Note_off_c, 0, 71, 39
1, 131502, Note_on_c, 0, 67, 45
1, 131583, Note_on_c, 0, 66, 44
1, 131607, Note_off_c, 0, 69, 35
1, 131611, Note_off_c, 0, 67, 38
1, 131629, Note_off_c, 0, 66, 60
1, 131661, Note_on_c, 0, 64, 45
1, 131738, Note_off_c, 0, 64, 42
1, 131744, Note_on_c, 0, 52, 28
1, 131747, Note_on_c, 0, 45, 15
1, 131750, Note_on_c, 0, 55, 25
1, 131762, Note_on_c, 0, 62, 47
1, 131813, Control_c, 0, 64, 35
1, 131827, Control_c, 0, 64, 48
1, 131842, Control_c, 0, 64, 56
1, 131857, Control_c, 0, 64, 60
1, 131872, Control_c, 0, 64, 62
1, 131887, Control_c, 0, 64, 63
1, 131902, Control_c, 0, 64, 64
1, 131917, Control_c, 0, 64, 64
1, 131932, Control_c, 0, 64, 65
1, 131947, Control_c, 0, 64, 67
1, 131962, Control_c, 0, 64, 68
1, 131977, Control_c, 0, 64, 69
1, 131991, Control_c, 0, 64, 70
1, 132006, Control_c, 0, 64, 70
1, 132021, Control_c, 0, 64, 71
1, 132111, Control_c, 0, 64, 70
1, 132117, Note_off_c, 0, 55, 41
1, 132140, Control_c, 0, 64, 70
1, 132152, Note_off_c, 0, 45, 29
1, 132155, Control_c, 0, 64, 69
1, 132170, Control_c, 0, 64, 68
1, 132177, Note_off_c, 0, 52, 41
1, 132185, Control_c, 0, 64, 67
1, 132199, Control_c, 0, 64, 66
1, 132214, Control_c, 0, 64, 64
1, 132229, Control_c, 0, 64, 63
1, 132240, Note_off_c, 0, 62, 55
1, 132243, Control_c, 0, 64, 61
1, 132258, Control_c, 0, 64, 60
1, 132273, Control_c, 0, 64, 59
1, 132281, Note_on_c, 0, 61, 48
1, 132295, Control_c, 0, 64, 59
1, 132340, Control_c, 0, 64, 58
1, 132349, Note_off_c, 0, 61, 55
1, 132370, Control_c, 0, 64, 58
1, 132385, Control_c, 0, 64, 57
1, 132399, Control_c, 0, 64, 55
1, 132414, Control_c, 0, 64, 53
1, 132429, Control_c, 0, 64, 50
1, 132443, Control_c, 0, 64, 47
1, 132458, Control_c, 0, 64, 44
1, 132468, Note_on_c, 0, 71, 53
1, 132473, Control_c, 0, 64, 40
1, 132488, Control_c, 0, 64, 35
1, 132503, Control_c, 0, 64, 32
1, 132517, Control_c, 0, 64, 28
1, 132532, Control_c, 0, 64, 26
1, 132547, Control_c, 0, 64, 25
1, 132562, Control_c, 0, 64, 24
1, 132577, Control_c, 0, 64, 23
1, 132591, Control_c, 0, 64, 21
1, 132606, Control_c, 0, 64, 19
1, 132621, Control_c, 0, 64, 16
1, 132628, Note_on_c, 0, 49, 47
1, 132640, Note_on_c, 0, 69, 58
1, 132641, Note_on_c, 0, 43, 46
1, 132669, Note_off_c, 0, 49, 64
1, 132680, Control_c, 0, 64, 0
1, 132681, Note_off_c, 0, 71, 49
1, 132683, Note_off_c, 0, 69, 54
1, 132688, Note_off_c, 0, 43, 61
1, 132805, Note_on_c, 0, 69, 65
1, 132808, Note_on_c, 0, 42, 57
1, 132809, Note_on_c, 0, 50, 55
1, 132851, Note_off_c, 0, 42, 60
1, 132857, Note_off_c, 0, 50, 57
1, 132972, Note_on_c, 0, 74, 60
1, 132973, Note_off_c, 0, 69, 63
1, 133007, Note_off_c, 0, 74, 62
1, 133142, Note_on_c, 0, 62, 60
1, 133143, Note_on_c, 0, 47, 56
1, 133151, Note_on_c, 0, 55, 47
1, 133178, Note_off_c, 0, 55, 56
1, 133182, Note_off_c, 0, 47, 62
1, 133182, Note_off_c, 0, 62, 56
1, 133333, Note_on_c, 0, 62, 53
1, 133338, Note_on_c, 0, 66, 58
1, 133340, Note_on_c, 0, 57, 49
1, 133341, Note_on_c, 0, 45, 54
1, 133365, Note_off_c, 0, 57, 59
1, 133372, Note_off_c, 0, 45, 54
1, 133374, Note_off_c, 0, 62, 58
1, 133386, Note_off_c, 0, 66, 57
1, 133691, Note_on_c, 0, 45, 43
1, 133697, Note_on_c, 0, 64, 42
1, 133702, Note_on_c, 0, 61, 42
1, 133705, Note_on_c, 0, 55, 41
1, 133738, Note_off_c, 0, 61, 57
1, 133741, Note_off_c, 0, 45, 58
1, 133748, Note_off_c, 0, 64, 57
1, 133749, Note_off_c, 0, 55, 62
1, 133947, Note_on_c, 0, 64, 26
1, 133959, Note_on_c, 0, 61, 33
1, 133965, Note_on_c, 0, 55, 23
1, 133968, Note_on_c, 0, 50, 30
1, 133986, Control_c, 0, 64, 25
1, 134001, Control_c, 0, 64, 42
1, 134015, Control_c, 0, 64, 53
1, 134030, Control_c, 0, 64, 59
1, 134045, Control_c, 0, 64, 63
1, 134060, Control_c, 0, 64, 65
1, 134075, Control_c, 0, 64, 67
1, 134090, Control_c, 0, 64, 68
1, 134104, Control_c, 0, 64, 70
1, 134119, Control_c, 0, 64, 72
1, 134134, Control_c, 0, 64, 75
1, 134149, Control_c, 0, 64, 77
1, 134164, Control_c, 0, 64, 79
1, 134178, Control_c, 0, 64, 80
1, 134193, Control_c, 0, 64, 81
1, 134198, Note_off_c, 0, 61, 39
1, 134208, Control_c, 0, 64, 82
1, 134221, Note_off_c, 0, 55, 54
1, 134244, Note_off_c, 0, 50, 58
1, 134264, Note_off_c, 0, 64, 33
1, 134461, Control_c, 0, 64, 81
1, 134476, Control_c, 0, 64, 81
1, 134491, Control_c, 0, 64, 80
1, 134506, Control_c, 0, 64, 79
1, 134520, Control_c, 0, 64, 78
1, 134543, Control_c, 0, 64, 75
1, 134558, Control_c, 0, 64, 71
1, 134573, Control_c, 0, 64, 64
1, 134576, Note_on_c, 0, 54, 27
1, 134587, Control_c, 0, 64, 58
1, 134600, Note_on_c, 0, 62, 32
1, 134602, Control_c, 0, 64, 50
1, 134617, Control_c, 0, 64, 39
1, 134632, Control_c, 0, 64, 28
1, 134646, Control_c, 0, 64, 16
1, 134738, Note_off_c, 0, 62, 53
1, 134847, Note_off_c, 0, 54, 44
1, 134988, Note_on_c, 0, 78, 47
1, 135168, Note_on_c, 0, 79, 52
1, 135182, Note_off_c, 0, 78, 42
1, 135204, Note_off_c, 0, 79, 61
1, 135363, Note_on_c, 0, 79, 44
1, 135437, Note_on_c, 0, 78, 51
1, 135444, Note_off_c, 0, 79, 47
1, 135467, Note_off_c, 0, 78, 63
1, 135515, Note_on_c, 0, 81, 62
1, 135542, Control_c, 0, 64, 0
1, 135587, Note_on_c, 0, 79, 60
1, 135592, Note_off_c, 0, 81, 59
1, 135658, Note_off_c, 0, 79, 60
1, 135670, Note_on_c, 0, 83, 68
1, 135735, Note_on_c, 0, 81, 69
1, 135788, Note_off_c, 0, 83, 50
1, 135807, Note_off_c, 0, 81, 61
1, 135819, Note_on_c, 0, 79, 63
1, 135871, Note_off_c, 0, 79, 59
1, 135891, Note_on_c, 0, 78, 61
1, 135908, Note_off_c, 0, 78, 63
1, 135971, Note_on_c, 0, 79, 58
1, 136055, Note_on_c, 0, 76, 54
1, 136112, Note_off_c, 0, 79, 36
1, 136159, Note_off_c, 0, 76, 49
1, 136171, Note_on_c, 0, 74, 51
1, 136174, Note_on_c, 0, 57, 31
1, 136180, Note_on_c, 0, 67, 32
1, 136184, Note_on_c, 0, 64, 30
1, 136261, Control_c, 0, 64, 47
1, 136276, Control_c, 0, 64, 61
1, 136290, Control_c, 0, 64, 66
1, 136305, Control_c, 0, 64, 71
1, 136320, Control_c, 0, 64, 76
1, 136335, Control_c, 0, 64, 79
1, 136347, Note_off_c, 0, 74, 57
1, 136350, Control_c, 0, 64, 83
1, 136364, Control_c, 0, 64, 87
1, 136379, Control_c, 0, 64, 91
1, 136394, Control_c, 0, 64, 94
1, 136409, Control_c, 0, 64, 97
1, 136424, Control_c, 0, 64, 99
1, 136439, Control_c, 0, 64, 100
1, 136454, Control_c, 0, 64, 101
1, 136483, Control_c, 0, 64, 101
1, 136564, Note_on_c, 0, 76, 50
1, 136631, Control_c, 0, 64, 101
1, 136646, Control_c, 0, 64, 99
1, 136648, Note_on_c, 0, 74, 54
1, 136661, Control_c, 0, 64, 97
1, 136676, Control_c, 0, 64, 93
1, 136690, Control_c, 0, 64, 88
1, 136705, Control_c, 0, 64, 81
1, 136720, Control_c, 0, 64, 73
1, 136734, Control_c, 0, 64, 66
1, 136746, Note_off_c, 0, 76, 36
1, 136748, Note_on_c, 0, 73, 46
1, 136749, Control_c, 0, 64, 61
1, 136766, Control_c, 0, 64, 57
1, 136779, Note_off_c, 0, 74, 44
1, 136781, Control_c, 0, 64, 55
1, 136803, Control_c, 0, 64, 54
1, 136817, Control_c, 0, 64, 54
1, 136831, Note_off_c, 0, 57, 46
1, 136832, Control_c, 0, 64, 53
1, 136847, Control_c, 0, 64, 52
1, 136862, Control_c, 0, 64, 51
1, 136877, Control_c, 0, 64, 49
1, 136886, Note_off_c, 0, 67, 52
1, 136892, Control_c, 0, 64, 47
1, 136907, Control_c, 0, 64, 43
1, 136911, Note_off_c, 0, 64, 48
1, 136921, Control_c, 0, 64, 37
1, 136936, Control_c, 0, 64, 27
1, 136951, Control_c, 0, 64, 0
1, 136979, Note_off_c, 0, 73, 60
1, 137084, Control_c, 0, 64, 40
1, 137098, Note_on_c, 0, 62, 40
1, 137099, Control_c, 0, 64, 54
1, 137113, Note_on_c, 0, 71, 46
1, 137113, Control_c, 0, 64, 61
1, 137119, Note_on_c, 0, 59, 26
1, 137125, Note_on_c, 0, 68, 28
1, 137128, Control_c, 0, 64, 64
1, 137141, Note_off_c, 0, 62, 58
1, 137143, Control_c, 0, 64, 66
1, 137147, Note_off_c, 0, 71, 60
1, 137156, Note_off_c, 0, 59, 50
1, 137156, Note_off_c, 0, 68, 46
1, 137157, Control_c, 0, 64, 67
1, 137172, Control_c, 0, 64, 68
1, 137187, Control_c, 0, 64, 70
1, 137202, Control_c, 0, 64, 71
1, 137217, Control_c, 0, 64, 73
1, 137232, Control_c, 0, 64, 75
1, 137247, Control_c, 0, 64, 75
1, 137297, Note_on_c, 0, 61, 37
1, 137304, Note_on_c, 0, 67, 36
1, 137311, Note_on_c, 0, 71, 44
1, 137318, Note_on_c, 0, 64, 38
1, 137321, Control_c, 0, 64, 75
1, 137336, Control_c, 0, 64, 73
1, 137351, Control_c, 0, 64, 70
1, 137365, Control_c, 0, 64, 65
1, 137380, Control_c, 0, 64, 60
1, 137394, Control_c, 0, 64, 56
1, 137409, Control_c, 0, 64, 53
1, 137424, Control_c, 0, 64, 50
1, 137438, Control_c, 0, 64, 48
1, 137453, Control_c, 0, 64, 46
1, 137468, Control_c, 0, 64, 44
1, 137476, Note_off_c, 0, 71, 57
1, 137483, Control_c, 0, 64, 42
1, 137491, Note_on_c, 0, 69, 54
1, 137498, Control_c, 0, 64, 39
1, 137512, Control_c, 0, 64, 35
1, 137524, Note_off_c, 0, 69, 64
1, 137527, Control_c, 0, 64, 30
1, 137550, Control_c, 0, 64, 25
1, 137566, Note_off_c, 0, 67, 52
1, 137566, Control_c, 0, 64, 19
1, 137595, Control_c, 0, 64, 0
1, 137618, Note_off_c, 0, 64, 55
1, 137635, Note_off_c, 0, 61, 50
1, 137658, Note_on_c, 0, 69, 63
1, 137708, Note_off_c, 0, 69, 62
1, 137814, Note_on_c, 0, 62, 36
1, 137825, Note_on_c, 0, 66, 40
1, 137826, Note_on_c, 0, 69, 69
1, 137887, Note_off_c, 0, 69, 62
1, 137992, Note_on_c, 0, 74, 67
1, 138039, Note_off_c, 0, 74, 49
1, 138128, Note_off_c, 0, 66, 56
1, 138135, Note_off_c, 0, 62, 55
1, 138162, Note_on_c, 0, 74, 56
1, 138168, Note_on_c, 0, 78, 51
1, 138196, Note_off_c, 0, 74, 61
1, 138209, Note_off_c, 0, 78, 57
1, 138366, Note_on_c, 0, 78, 43
1, 138374, Note_on_c, 0, 57, 26
1, 138379, Note_on_c, 0, 69, 26
1, 138391, Note_on_c, 0, 74, 37
1, 138404, Control_c, 0, 64, 22
1, 138418, Control_c, 0, 64, 49
1, 138433, Control_c, 0, 64, 60
1, 138448, Control_c, 0, 64, 65
1, 138463, Control_c, 0, 64, 69
1, 138478, Control_c, 0, 64, 72
1, 138493, Control_c, 0, 64, 76
1, 138508, Control_c, 0, 64, 81
1, 138523, Control_c, 0, 64, 85
1, 138537, Control_c, 0, 64, 89
1, 138552, Control_c, 0, 64, 93
1, 138558, Note_off_c, 0, 74, 38
1, 138567, Control_c, 0, 64, 95
1, 138582, Control_c, 0, 64, 97
1, 138586, Note_off_c, 0, 78, 34
1, 138597, Control_c, 0, 64, 98
1, 138611, Control_c, 0, 64, 99
1, 138626, Control_c, 0, 64, 100
1, 138641, Control_c, 0, 64, 100
1, 138730, Note_on_c, 0, 76, 48
1, 138731, Note_on_c, 0, 79, 50
1, 138753, Note_off_c, 0, 76, 59
1, 138783, Note_off_c, 0, 79, 49
1, 138878, Control_c, 0, 64, 99
1, 138892, Control_c, 0, 64, 97
1, 138907, Control_c, 0, 64, 95
1, 138922, Control_c, 0, 64, 91
1, 138937, Control_c, 0, 64, 86
1, 138952, Control_c, 0, 64, 80
1, 138954, Note_on_c, 0, 76, 39
1, 138962, Note_on_c, 0, 73, 38
1, 138967, Control_c, 0, 64, 75
1, 138982, Control_c, 0, 64, 69
1, 138997, Control_c, 0, 64, 65
1, 139011, Control_c, 0, 64, 61
1, 139033, Control_c, 0, 64, 59
1, 139048, Control_c, 0, 64, 56
1, 139063, Control_c, 0, 64, 54
1, 139078, Control_c, 0, 64, 53
1, 139092, Control_c, 0, 64, 52
1, 139107, Control_c, 0, 64, 52
1, 139122, Control_c, 0, 64, 51
1, 139127, Note_off_c, 0, 76, 57
1, 139137, Control_c, 0, 64, 51
1, 139152, Control_c, 0, 64, 50
1, 139166, Note_off_c, 0, 73, 42
1, 139168, Control_c, 0, 64, 48
1, 139182, Control_c, 0, 64, 46
1, 139197, Control_c, 0, 64, 44
1, 139212, Control_c, 0, 64, 41
1, 139227, Control_c, 0, 64, 39
1, 139241, Control_c, 0, 64, 36
1, 139245, Note_off_c, 0, 57, 47
1, 139256, Control_c, 0, 64, 34
1, 139271, Control_c, 0, 64, 31
1, 139286, Control_c, 0, 64, 28
1, 139295, Note_off_c, 0, 69, 36
1, 139301, Control_c, 0, 64, 26
1, 139315, Control_c, 0, 64, 23
1, 139328, Note_on_c, 0, 78, 41
1, 139330, Control_c, 0, 64, 21
1, 139345, Control_c, 0, 64, 19
1, 139360, Control_c, 0, 64, 17
1, 139375, Control_c, 0, 64, 16
1, 139390, Control_c, 0, 64, 16
1, 139464, Control_c, 0, 64, 0
1, 139515, Note_on_c, 0, 79, 46
1, 139524, Note_off_c, 0, 78, 38
1, 139547, Note_off_c, 0, 79, 54
1, 139699, Note_on_c, 0, 79, 38
1, 139785, Note_on_c, 0, 78, 56
1, 139796, Note_off_c, 0, 79, 43
1, 139820, Note_off_c, 0, 78, 61
1, 139870, Note_on_c, 0, 81, 60
1, 139936, Note_on_c, 0, 79, 56
1, 139944, Note_off_c, 0, 81, 56
1, 140007, Note_off_c, 0, 79, 61
1, 140018, Note_on_c, 0, 83, 64
1, 140081, Note_on_c, 0, 81, 66
1, 140125, Note_off_c, 0, 83, 54
1, 140150, Note_off_c, 0, 81, 61
1, 140157, Note_on_c, 0, 79, 65
1, 140222, Note_off_c, 0, 79, 53
1, 140234, Note_on_c, 0, 78, 63
1, 140260, Note_off_c, 0, 78, 63
1, 140309, Note_on_c, 0, 79, 55
1, 140387, Note_on_c, 0, 76, 60
1, 140401, Note_off_c, 0, 79, 57
1, 140424, Note_off_c, 0, 76, 60
1, 140469, Note_on_c, 0, 74, 55
1, 140496, Note_on_c, 0, 69, 38
1, 140501, Note_on_c, 0, 67, 32
1, 140553, Note_on_c, 0, 73, 62
1, 140593, Note_off_c, 0, 74, 36
1, 140642, Note_on_c, 0, 76, 62
1, 140647, Note_off_c, 0, 73, 59
1, 140672, Note_off_c, 0, 76, 62
1, 140700, Note_on_c, 0, 74, 76
1, 140779, Note_off_c, 0, 74, 57
1, 140785, Note_on_c, 0, 78, 67
1, 140846, Note_off_c, 0, 78, 59
1, 140851, Note_on_c, 0, 76, 69
1, 140920, Note_off_c, 0, 76, 62
1, 140925, Note_on_c, 0, 79, 68
1, 140952, Note_off_c, 0, 79, 66
1, 140999, Note_on_c, 0, 78, 69
1, 141035, Note_off_c, 0, 78, 60
1, 141082, Note_on_c, 0, 81, 72
1, 141157, Note_on_c, 0, 79, 63
1, 141158, Note_off_c, 0, 81, 59
1, 141219, Note_off_c, 0, 79, 59
1, 141226, Note_on_c, 0, 83, 68
1, 141316, Note_on_c, 0, 81, 64
1, 141330, Note_off_c, 0, 83, 59
1, 141336, Note_off_c, 0, 69, 57
1, 141342, Note_off_c, 0, 81, 64
1, 141362, Note_off_c, 0, 67, 59
1, 141421, Note_on_c, 0, 81, 65
1, 141604, Note_on_c, 0, 75, 58
1, 141608, Note_on_c, 0, 65, 50
1, 141636, Note_off_c, 0, 75, 62
1, 141644, Note_off_c, 0, 65, 61
1, 141781, Note_on_c, 0, 65, 53
1, 141787, Note_on_c, 0, 75, 62
1, 141815, Note_off_c, 0, 75, 66
1, 141821, Note_off_c, 0, 65, 58
1, 141970, Note_on_c, 0, 80, 58
1, 141980, Note_off_c, 0, 81, 48
1, 142159, Note_on_c, 0, 74, 57
1, 142163, Note_on_c, 0, 64, 46
1, 142201, Note_off_c, 0, 64, 57
1, 142201, Note_off_c, 0, 74, 61
1, 142326, Note_on_c, 0, 64, 45
1, 142332, Note_on_c, 0, 74, 58
1, 142368, Note_off_c, 0, 80, 56
1, 142374, Note_off_c, 0, 74, 60
1, 142375, Note_off_c, 0, 64, 57
1, 142532, Note_on_c, 0, 79, 45
1, 142741, Note_on_c, 0, 74, 40
1, 142741, Note_on_c, 0, 71, 33
1, 142786, Note_off_c, 0, 71, 51
1, 142795, Note_off_c, 0, 74, 46
1, 142918, Note_on_c, 0, 71, 34
1, 142922, Note_on_c, 0, 74, 46
1, 142974, Note_off_c, 0, 71, 58
1, 142981, Note_off_c, 0, 74, 55
1, 143200, Note_on_c, 0, 73, 30
1, 143215, Note_on_c, 0, 70, 23
1, 143221, Note_on_c, 0, 78, 19
1, 143257, Note_off_c, 0, 79, 42
1, 143431, Note_off_c, 0, 73, 58
1, 143445, Note_off_c, 0, 78, 54
1, 143486, Note_off_c, 0, 70, 58
1, 143632, Note_on_c, 0, 68, 29
1, 143664, Note_off_c, 0, 68, 49
1, 143796, Note_on_c, 0, 54, 52
1, 143809, Note_on_c, 0, 72, 45
1, 143834, Note_off_c, 0, 72, 57
1, 143856, Note_off_c, 0, 54, 56
1, 143963, Note_on_c, 0, 59, 60
1, 143981, Note_on_c, 0, 66, 58
1, 144007, Note_off_c, 0, 59, 55
1, 144031, Note_off_c, 0, 66, 57
1, 144138, Note_on_c, 0, 54, 59
1, 144143, Note_on_c, 0, 71, 63
1, 144183, Note_off_c, 0, 54, 58
1, 144200, Note_off_c, 0, 71, 58
1, 144314, Note_on_c, 0, 74, 79
1, 144317, Note_on_c, 0, 59, 70
1, 144354, Note_off_c, 0, 59, 58
1, 144381, Note_off_c, 0, 74, 60
1, 144471, Note_on_c, 0, 71, 77
1, 144477, Note_on_c, 0, 62, 68
1, 144505, Note_off_c, 0, 62, 63
1, 144531, Note_off_c, 0, 71, 59
1, 144621, Note_on_c, 0, 59, 65
1, 144622, Note_on_c, 0, 74, 74
1, 144648, Note_off_c, 0, 59, 65
1, 144693, Note_off_c, 0, 74, 58
1, 144794, Note_on_c, 0, 62, 59
1, 144794, Note_on_c, 0, 78, 59
1, 144872, Note_on_c, 0, 76, 61
1, 144909, Note_off_c, 0, 78, 47
1, 144935, Note_off_c, 0, 62, 58
1, 144940, Note_off_c, 0, 76, 60
1, 144946, Note_on_c, 0, 74, 68
1, 144965, Note_on_c, 0, 66, 57
1, 144994, Note_off_c, 0, 66, 64
1, 145026, Note_off_c, 0, 74, 53
1, 145033, Note_on_c, 0, 73, 70
1, 145068, Note_on_c, 0, 64, 46
1, 145119, Note_on_c, 0, 71, 62
1, 145132, Note_on_c, 0, 62, 65
1, 145133, Note_off_c, 0, 73, 50
1, 145146, Note_off_c, 0, 64, 53
1, 145193, Note_on_c, 0, 70, 71
1, 145193, Note_off_c, 0, 62, 55
1, 145203, Note_on_c, 0, 61, 56
1, 145219, Note_off_c, 0, 71, 50
1, 145224, Note_off_c, 0, 61, 62
1, 145270, Note_on_c, 0, 59, 71
1, 145274, Note_on_c, 0, 74, 71
1, 145280, Note_off_c, 0, 70, 60
1, 145321, Note_off_c, 0, 59, 58
1, 145346, Note_on_c, 0, 58, 67
1, 145354, Note_on_c, 0, 73, 72
1, 145382, Note_off_c, 0, 58, 57
1, 145428, Note_on_c, 0, 71, 71
1, 145428, Note_off_c, 0, 74, 50
1, 145441, Note_on_c, 0, 62, 68
1, 145471, Note_off_c, 0, 73, 55
1, 145495, Note_off_c, 0, 62, 58
1, 145504, Note_on_c, 0, 61, 61
1, 145504, Note_off_c, 0, 71, 60
1, 145511, Note_on_c, 0, 69, 71
1, 145524, Note_off_c, 0, 61, 62
1, 145594, Note_on_c, 0, 59, 68
1, 145594, Note_on_c, 0, 67, 72
1, 145608, Note_off_c, 0, 69, 39
1, 145668, Note_off_c, 0, 59, 55
1, 145672, Note_on_c, 0, 66, 71
1, 145679, Note_on_c, 0, 57, 61
1, 145762, Note_on_c, 0, 55, 66
1, 145772, Note_on_c, 0, 64, 68
1, 145773, Note_off_c, 0, 57, 58
1, 145776, Note_off_c, 0, 67, 53
1, 145835, Note_on_c, 0, 54, 72
1, 145841, Note_off_c, 0, 55, 57
1, 145847, Note_off_c, 0, 66, 36
1, 145890, Note_off_c, 0, 54, 63
1, 145929, Note_on_c, 0, 52, 82
1, 145930, Note_on_c, 0, 59, 73
1, 145960, Note_off_c, 0, 64, 53
1, 145962, Note_off_c, 0, 52, 63
1, 145977, Note_off_c, 0, 59, 58
1, 146101, Note_on_c, 0, 64, 65
1, 146107, Note_on_c, 0, 47, 61
1, 146141, Note_off_c, 0, 47, 62
1, 146162, Note_off_c, 0, 64, 52
1, 146265, Note_on_c, 0, 67, 68
1, 146269, Note_on_c, 0, 52, 65
1, 146297, Note_off_c, 0, 52, 64
1, 146321, Note_off_c, 0, 67, 58
1, 146440, Note_on_c, 0, 55, 61
1, 146440, Note_on_c, 0, 64, 63
1, 146473, Note_off_c, 0, 55, 60
1, 146493, Note_off_c, 0, 64, 57
1, 146610, Note_on_c, 0, 67, 61
1, 146649, Note_off_c, 0, 67, 56
1, 146774, Note_on_c, 0, 55, 55
1, 146778, Note_on_c, 0, 71, 55
1, 146857, Note_on_c, 0, 69, 64
1, 146927, Note_off_c, 0, 55, 60
1, 146933, Note_on_c, 0, 67, 62
1, 146942, Note_on_c, 0, 59, 59
1, 146957, Note_off_c, 0, 71, 35
1, 146976, Note_off_c, 0, 59, 62
1, 147009, Note_on_c, 0, 66, 66
1, 147021, Note_off_c, 0, 69, 53
1, 147027, Note_off_c, 0, 67, 59
1, 147051, Note_on_c, 0, 57, 61
1, 147081, Note_off_c, 0, 66, 60
1, 147093, Note_on_c, 0, 64, 62
1, 147099, Note_off_c, 0, 57, 60
1, 147121, Note_on_c, 0, 55, 60
1, 147156, Note_off_c, 0, 64, 60
1, 147158, Note_on_c, 0, 63, 70
1, 147173, Note_off_c, 0, 55, 57
1, 147178, Note_on_c, 0, 54, 64
1, 147182, Note_off_c, 0, 63, 66
1, 147228, Note_off_c, 0, 54, 59
1, 147241, Note_on_c, 0, 52, 58
1, 147278, Note_on_c, 0, 79, 74
1, 147296, Note_off_c, 0, 52, 59
1, 147301, Note_on_c, 0, 51, 64
1, 147329, Note_off_c, 0, 51, 65
1, 147359, Note_on_c, 0, 78, 70
1, 147441, Note_on_c, 0, 76, 74
1, 147470, Note_off_c, 0, 79, 42
1, 147471, Note_on_c, 0, 67, 71
1, 147484, Note_off_c, 0, 78, 58
1, 147512, Note_off_c, 0, 76, 56
1, 147526, Note_off_c, 0, 67, 59
1, 147530, Note_on_c, 0, 74, 69
1, 147540, Note_on_c, 0, 66, 59
1, 147576, Note_off_c, 0, 66, 53
1, 147605, Note_on_c, 0, 73, 72
1, 147608, Note_off_c, 0, 74, 52
1, 147608, Note_on_c, 0, 64, 63
1, 147635, Note_off_c, 0, 64, 66
1, 147684, Note_on_c, 0, 71, 72
1, 147692, Note_on_c, 0, 62, 69
1, 147764, Note_off_c, 0, 62, 49
1, 147766, Note_on_c, 0, 61, 70
1, 147775, Note_on_c, 0, 69, 76
1, 147799, Note_off_c, 0, 61, 63
1, 147817, Note_off_c, 0, 71, 50
1, 147853, Note_on_c, 0, 59, 73
1, 147922, Note_on_c, 0, 64, 75
1, 147923, Note_off_c, 0, 73, 33
1, 147926, Note_off_c, 0, 59, 59
1, 147927, Note_on_c, 0, 57, 73
1, 147952, Note_off_c, 0, 57, 67
1, 147955, Note_off_c, 0, 69, 61
1, 147981, Note_off_c, 0, 64, 59
1, 148111, Note_on_c, 0, 52, 63
1, 148114, Note_on_c, 0, 69, 68
1, 148144, Note_off_c, 0, 52, 62
1, 148164, Note_off_c, 0, 69, 60
1, 148281, Note_on_c, 0, 57, 64
1, 148282, Note_on_c, 0, 73, 66
1, 148309, Note_off_c, 0, 57, 65
1, 148349, Note_off_c, 0, 73, 59
1, 148457, Note_on_c, 0, 61, 57
1, 148457, Note_on_c, 0, 69, 61
1, 148489, Note_off_c, 0, 61, 63
1, 148505, Note_off_c, 0, 69, 51
1, 148621, Note_on_c, 0, 73, 61
1, 148622, Note_on_c, 0, 57, 45
1, 148647, Note_off_c, 0, 57, 59
1, 148657, Note_off_c, 0, 73, 61
1, 148792, Note_on_c, 0, 61, 47
1, 148798, Note_on_c, 0, 76, 56
1, 148872, Note_on_c, 0, 78, 61
1, 148892, Note_off_c, 0, 76, 45
1, 148908, Note_off_c, 0, 61, 58
1, 148938, Note_on_c, 0, 64, 59
1, 148945, Note_off_c, 0, 78, 60
1, 148949, Note_on_c, 0, 79, 66
1, 149020, Note_off_c, 0, 64, 57
1, 149035, Note_on_c, 0, 78, 67
1, 149037, Note_on_c, 0, 66, 52
1, 149085, Note_off_c, 0, 66, 58
1, 149100, Note_on_c, 0, 67, 67
1, 149109, Note_on_c, 0, 76, 75
1, 149111, Note_off_c, 0, 79, 52
1, 149158, Note_off_c, 0, 78, 57
1, 149191, Note_off_c, 0, 67, 59
1, 149191, Note_on_c, 0, 66, 67
1, 149191, Note_on_c, 0, 74, 75
1, 149191, Note_off_c, 0, 76, 62
1, 149216, Note_off_c, 0, 66, 66
1, 149265, Note_on_c, 0, 64, 69
1, 149267, Note_on_c, 0, 73, 73
1, 149269, Note_off_c, 0, 74, 59
1, 149336, Note_off_c, 0, 64, 52
1, 149345, Note_on_c, 0, 71, 70
1, 149346, Note_on_c, 0, 62, 67
1, 149376, Note_off_c, 0, 73, 57
1, 149422, Note_off_c, 0, 62, 59
1, 149422, Note_off_c, 0, 71, 60
1, 149424, Note_on_c, 0, 61, 59
1, 149430, Note_on_c, 0, 69, 63
1, 149463, Note_off_c, 0, 61, 59
1, 149479, Note_off_c, 0, 69, 52
1, 149484, Note_on_c, 0, 59, 54
1, 149492, Note_on_c, 0, 71, 57
1, 149570, Note_off_c, 0, 71, 59
1, 149570, Note_off_c, 0, 59, 57
1, 149588, Note_on_c, 0, 67, 60
1, 149595, Note_on_c, 0, 61, 38
1, 149624, Note_off_c, 0, 61, 55
1, 149652, Note_off_c, 0, 67, 54
1, 149666, Note_on_c, 0, 57, 46
1, 149671, Note_on_c, 0, 69, 53
1, 149735, Note_off_c, 0, 69, 52
1, 149768, Note_on_c, 0, 62, 43
1, 149789, Note_on_c, 0, 66, 54
1, 149826, Note_off_c, 0, 57, 35
1, 149853, Note_off_c, 0, 66, 53
1, 149869, Note_on_c, 0, 69, 51
1, 149939, Note_off_c, 0, 69, 60
1, 149964, Note_on_c, 0, 68, 51
1, 150009, Note_off_c, 0, 68, 53
1, 150049, Note_on_c, 0, 69, 46
1, 150067, Note_off_c, 0, 62, 58
1, 150118, Note_on_c, 0, 71, 55
1, 150130, Note_off_c, 0, 69, 56
1, 150187, Note_off_c, 0, 71, 58
1, 150202, Note_on_c, 0, 69, 48
1, 150286, Note_on_c, 0, 62, 27
1, 150290, Note_off_c, 0, 69, 54
1, 150309, Note_on_c, 0, 66, 30
1, 150314, Note_on_c, 0, 74, 64
1, 150413, Note_off_c, 0, 74, 59
1, 150422, Note_on_c, 0, 69, 43
1, 150461, Note_off_c, 0, 69, 60
1, 150485, Note_on_c, 0, 68, 51
1, 150562, Note_on_c, 0, 69, 65
1, 150601, Note_off_c, 0, 68, 36
1, 150630, Note_off_c, 0, 66, 58
1, 150633, Note_off_c, 0, 69, 61
1, 150637, Note_on_c, 0, 71, 61
1, 150718, Note_on_c, 0, 69, 59
1, 150771, Note_off_c, 0, 71, 51
1, 150799, Note_off_c, 0, 69, 61
1, 150806, Note_on_c, 0, 61, 40
1, 150814, Note_on_c, 0, 64, 64
1, 150854, Note_off_c, 0, 62, 41
1, 150887, Note_off_c, 0, 64, 54
1, 150914, Note_on_c, 0, 69, 54
1, 150971, Note_off_c, 0, 69, 58
1, 151012, Note_on_c, 0, 68, 44
1, 151076, Note_on_c, 0, 69, 49
1, 151144, Note_off_c, 0, 68, 38
1, 151148, Note_on_c, 0, 62, 51
1, 151152, Note_off_c, 0, 69, 62
1, 151155, Note_on_c, 0, 66, 72
1, 151238, Note_on_c, 0, 69, 60
1, 151257, Note_off_c, 0, 66, 55
1, 151298, Note_off_c, 0, 61, 32
1, 151303, Note_off_c, 0, 62, 54
1, 151319, Note_off_c, 0, 69, 60
1, 151329, Note_on_c, 0, 67, 80
1, 151329, Note_on_c, 0, 64, 53
1, 151408, Note_on_c, 0, 69, 59
1, 151457, Note_off_c, 0, 67, 29
1, 151483, Note_off_c, 0, 69, 61
1, 151484, Note_on_c, 0, 62, 48
1, 151488, Note_off_c, 0, 64, 49
1, 151497, Note_on_c, 0, 66, 63
1, 151576, Note_on_c, 0, 69, 50
1, 151582, Note_off_c, 0, 66, 53
1, 151627, Note_off_c, 0, 69, 59
1, 151650, Note_off_c, 0, 62, 55
1, 151650, Note_on_c, 0, 61, 49
1, 151660, Note_on_c, 0, 64, 56
1, 151685, Note_off_c, 0, 61, 60
1, 151723, Note_off_c, 0, 64, 53
1, 151764, Note_on_c, 0, 69, 26
1, 151794, Note_off_c, 0, 69, 44
1, 151841, Note_on_c, 0, 62, 32
1, 151847, Note_on_c, 0, 66, 47
1, 151934, Note_on_c, 0, 81, 56
1, 151985, Note_off_c, 0, 81, 59
1, 152008, Note_on_c, 0, 80, 59
1, 152089, Note_off_c, 0, 62, 58
1, 152092, Note_on_c, 0, 81, 58
1, 152106, Note_off_c, 0, 80, 45
1, 152117, Note_off_c, 0, 66, 61
1, 152170, Note_on_c, 0, 83, 66
1, 152180, Note_off_c, 0, 81, 54
1, 152233, Note_off_c, 0, 83, 55
1, 152238, Note_on_c, 0, 81, 60
1, 152318, Note_off_c, 0, 81, 58
1, 152333, Note_on_c, 0, 74, 37
1, 152339, Note_on_c, 0, 86, 72
1, 152340, Note_on_c, 0, 78, 47
1, 152434, Note_on_c, 0, 81, 54
1, 152434, Note_off_c, 0, 86, 58
1, 152494, Note_off_c, 0, 81, 57
1, 152499, Note_on_c, 0, 80, 61
1, 152595, Note_off_c, 0, 80, 52
1, 152598, Note_on_c, 0, 81, 52
1, 152640, Note_off_c, 0, 78, 58
1, 152661, Note_off_c, 0, 81, 61
1, 152675, Note_on_c, 0, 83, 59
1, 152756, Note_on_c, 0, 81, 57
1, 152825, Note_off_c, 0, 81, 59
1, 152833, Note_off_c, 0, 83, 36
1, 152846, Note_on_c, 0, 73, 49
1, 152849, Note_on_c, 0, 76, 70
1, 152873, Note_off_c, 0, 74, 38
1, 152923, Note_off_c, 0, 76, 58
1, 152944, Note_on_c, 0, 81, 62
1, 153013, Note_off_c, 0, 81, 59
1, 153034, Note_on_c, 0, 80, 49
1, 153114, Note_on_c, 0, 81, 60
1, 153180, Note_off_c, 0, 80, 41
1, 153181, Note_on_c, 0, 74, 49
1, 153191, Note_off_c, 0, 81, 61
1, 153195, Note_on_c, 0, 78, 71
1, 153281, Note_on_c, 0, 81, 65
1, 153291, Note_off_c, 0, 78, 59
1, 153332, Note_off_c, 0, 74, 54
1, 153352, Note_off_c, 0, 81, 59
1, 153353, Note_off_c, 0, 73, 41
1, 153364, Note_on_c, 0, 76, 54
1, 153367, Note_on_c, 0, 79, 76
1, 153436, Note_off_c, 0, 79, 53
1, 153442, Note_on_c, 0, 81, 62
1, 153506, Note_off_c, 0, 81, 58
1, 153534, Note_on_c, 0, 74, 49
1, 153534, Note_off_c, 0, 76, 53
1, 153537, Note_on_c, 0, 78, 60
1, 153610, Note_on_c, 0, 81, 52
1, 153615, Note_off_c, 0, 78, 51
1, 153654, Note_off_c, 0, 81, 60
1, 153695, Note_on_c, 0, 76, 54
1, 153701, Note_on_c, 0, 73, 47
1, 153708, Note_off_c, 0, 74, 36
1, 153738, Note_off_c, 0, 73, 59
1, 153762, Note_off_c, 0, 76, 51
1, 153777, Note_on_c, 0, 81, 53
1, 153885, Note_on_c, 0, 74, 45
1, 153945, Note_off_c, 0, 81, 53
1, 153946, Note_on_c, 0, 78, 52
1, 154011, Note_off_c, 0, 78, 57
1, 154032, Note_on_c, 0, 79, 63
1, 154103, Note_on_c, 0, 81, 62
1, 154108, Note_off_c, 0, 79, 59
1, 154110, Note_off_c, 0, 74, 60
1, 154190, Note_on_c, 0, 83, 71
1, 154226, Note_off_c, 0, 81, 57
1, 154259, Note_on_c, 0, 85, 71
1, 154302, Note_off_c, 0, 83, 61
1, 154348, Note_off_c, 0, 85, 65
1, 154353, Note_on_c, 0, 66, 50
1, 154353, Note_on_c, 0, 86, 76
1, 154378, Note_on_c, 0, 62, 42
1, 154436, Note_on_c, 0, 85, 70
1, 154482, Note_off_c, 0, 66, 39
1, 154503, Note_on_c, 0, 64, 42
1, 154506, Note_on_c, 0, 83, 80
1, 154512, Note_off_c, 0, 86, 59
1, 154515, Note_on_c, 0, 67, 50
1, 154585, Note_on_c, 0, 81, 75
1, 154607, Note_off_c, 0, 62, 37
1, 154611, Note_off_c, 0, 85, 61
1, 154620, Note_off_c, 0, 83, 59
1, 154652, Note_off_c, 0, 81, 62
1, 154663, Note_off_c, 0, 67, 55
1, 154667, Note_on_c, 0, 69, 52
1, 154670, Note_on_c, 0, 79, 61
1, 154678, Note_off_c, 0, 64, 55
1, 154680, Note_on_c, 0, 66, 35
1, 154694, Note_off_c, 0, 69, 63
1, 154706, Note_off_c, 0, 66, 56
1, 154727, Note_off_c, 0, 79, 52
1, 154755, Note_on_c, 0, 78, 54
1, 154860, Note_on_c, 0, 67, 38
1, 154867, Note_on_c, 0, 71, 41
1, 154923, Note_on_c, 0, 75, 55
1, 154958, Note_off_c, 0, 78, 44
1, 154987, Note_off_c, 0, 75, 58
1, 155004, Note_on_c, 0, 76, 68
1, 155078, Note_off_c, 0, 76, 59
1, 155079, Note_on_c, 0, 78, 60
1, 155081, Note_off_c, 0, 71, 51
1, 155093, Note_off_c, 0, 67, 58
1, 155156, Note_on_c, 0, 79, 66
1, 155168, Note_off_c, 0, 78, 59
1, 155231, Note_on_c, 0, 81, 68
1, 155244, Note_off_c, 0, 79, 58
1, 155308, Note_off_c, 0, 81, 59
1, 155311, Note_on_c, 0, 64, 48
1, 155317, Note_on_c, 0, 67, 50
1, 155321, Note_on_c, 0, 83, 73
1, 155403, Note_on_c, 0, 81, 74
1, 155451, Note_off_c, 0, 67, 59
1, 155478, Note_on_c, 0, 79, 72
1, 155487, Note_on_c, 0, 66, 46
1, 155492, Note_on_c, 0, 69, 48
1, 155541, Note_off_c, 0, 83, 36
1, 155558, Note_on_c, 0, 78, 70
1, 155595, Note_off_c, 0, 79, 59
1, 155597, Note_off_c, 0, 81, 58
1, 155609, Note_off_c, 0, 64, 27
1, 155627, Note_off_c, 0, 78, 61
1, 155630, Note_on_c, 0, 76, 64
1, 155630, Note_off_c, 0, 69, 47
1, 155633, Note_on_c, 0, 71, 55
1, 155644, Note_on_c, 0, 67, 38
1, 155658, Note_off_c, 0, 66, 58
1, 155663, Note_off_c, 0, 71, 62
1, 155669, Note_off_c, 0, 67, 52
1, 155677, Note_off_c, 0, 76, 47
1, 155710, Note_on_c, 0, 74, 66
1, 155743, Note_off_c, 0, 74, 61
1, 155824, Note_on_c, 0, 57, 51
1, 155886, Note_on_c, 0, 68, 43
1, 155931, Note_off_c, 0, 68, 58
1, 155962, Note_on_c, 0, 62, 52
1, 155978, Note_on_c, 0, 71, 44
1, 155989, Note_on_c, 0, 66, 33
1, 156015, Note_off_c, 0, 66, 50
1, 156023, Note_off_c, 0, 71, 57
1, 156057, Note_on_c, 0, 69, 49
1, 156104, Note_off_c, 0, 69, 55
1, 156111, Note_off_c, 0, 62, 0
1, 156123, Note_on_c, 0, 62, 36
1, 156126, Note_on_c, 0, 66, 49
1, 156132, Note_on_c, 0, 73, 61
1, 156165, Note_off_c, 0, 57, 54
1, 156175, Note_off_c, 0, 66, 61
1, 156185, Note_off_c, 0, 62, 57
1, 156201, Note_off_c, 0, 73, 59
1, 156210, Note_on_c, 0, 71, 62
1, 156296, Note_on_c, 0, 74, 76
1, 156298, Note_off_c, 0, 71, 60
1, 156313, Note_on_c, 0, 57, 60
1, 156327, Note_off_c, 0, 74, 61
1, 156392, Note_on_c, 0, 73, 66
1, 156430, Note_off_c, 0, 73, 62
1, 156464, Note_on_c, 0, 76, 70
1, 156469, Note_on_c, 0, 66, 64
1, 156471, Note_on_c, 0, 62, 58
1, 156496, Note_off_c, 0, 66, 65
1, 156530, Note_off_c, 0, 76, 63
1, 156539, Note_on_c, 0, 74, 66
1, 156545, Note_off_c, 0, 62, 54
1, 156616, Note_off_c, 0, 74, 60
1, 156617, Note_on_c, 0, 78, 73
1, 156623, Note_on_c, 0, 62, 54
1, 156629, Note_on_c, 0, 66, 60
1, 156652, Note_off_c, 0, 57, 50
1, 156655, Note_off_c, 0, 66, 66
1, 156658, Note_off_c, 0, 62, 62
1, 156676, Note_off_c, 0, 78, 61
1, 156696, Note_on_c, 0, 76, 72
1, 156775, Note_on_c, 0, 57, 63
1, 156776, Note_off_c, 0, 76, 57
1, 156784, Note_on_c, 0, 79, 74
1, 156849, Note_off_c, 0, 79, 62
1, 156857, Note_on_c, 0, 78, 76
1, 156937, Note_on_c, 0, 81, 77
1, 156940, Note_on_c, 0, 62, 62
1, 156945, Note_on_c, 0, 66, 56
1, 156948, Note_off_c, 0, 78, 60
1, 156964, Note_off_c, 0, 66, 63
1, 156977, Note_off_c, 0, 81, 62
1, 157006, Note_off_c, 0, 62, 54
1, 157020, Note_on_c, 0, 79, 75
1, 157097, Note_off_c, 0, 79, 58
1, 157101, Note_on_c, 0, 83, 87
1, 157110, Note_on_c, 0, 62, 58
1, 157111, Note_on_c, 0, 66, 52
1, 157138, Note_off_c, 0, 57, 58
1, 157140, Note_off_c, 0, 62, 64
1, 157143, Note_off_c, 0, 66, 63
1, 157176, Note_off_c, 0, 83, 60
1, 157181, Note_on_c, 0, 81, 82
1, 157252, Note_on_c, 0, 57, 68
1, 157256, Note_off_c, 0, 81, 60
1, 157261, Note_on_c, 0, 85, 79
1, 157300, Note_off_c, 0, 85, 64
1, 157341, Note_on_c, 0, 83, 84
1, 157415, Note_on_c, 0, 66, 67
1, 157416, Note_on_c, 0, 86, 86
1, 157418, Note_on_c, 0, 62, 60
1, 157426, Note_off_c, 0, 83, 62
1, 157439, Note_off_c, 0, 66, 66
1, 157496, Note_on_c, 0, 85, 85
1, 157496, Note_off_c, 0, 62, 53
1, 157502, Note_off_c, 0, 86, 62
1, 157535, Note_off_c, 0, 57, 61
1, 157559, Note_on_c, 0, 66, 77
1, 157562, Note_on_c, 0, 62, 34
1, 157569, Note_on_c, 0, 88, 81
1, 157578, Note_off_c, 0, 85, 64
1, 157635, Note_off_c, 0, 66, 60
1, 157645, Note_on_c, 0, 86, 81
1, 157720, Note_off_c, 0, 62, 0
1, 157737, Note_on_c, 0, 62, 29
1, 157752, Note_on_c, 0, 56, 56
1, 157752, Note_on_c, 0, 89, 86
1, 157757, Note_on_c, 0, 65, 64
1, 157772, Note_on_c, 0, 59, 53
1, 157788, Note_off_c, 0, 86, 57
1, 157809, Note_off_c, 0, 88, 55
1, 158032, Note_off_c, 0, 89, 49
1, 158197, Note_on_c, 0, 83, 60
1, 158253, Note_on_c, 0, 85, 58
1, 158280, Note_off_c, 0, 83, 58
1, 158329, Note_on_c, 0, 86, 65
1, 158340, Note_off_c, 0, 85, 61
1, 158391, Note_off_c, 0, 86, 61
1, 158407, Note_on_c, 0, 80, 61
1, 158435, Note_off_c, 0, 80, 65
1, 158489, Note_on_c, 0, 83, 70
1, 158570, Note_on_c, 0, 74, 75
1, 158583, Note_off_c, 0, 83, 59
1, 158642, Note_off_c, 0, 74, 61
1, 158647, Note_on_c, 0, 77, 65
1, 158700, Note_off_c, 0, 77, 55
1, 158727, Note_on_c, 0, 71, 63
1, 158840, Note_off_c, 0, 71, 53
1, 158867, Note_on_c, 0, 74, 44
1, 158941, Note_off_c, 0, 65, 48
1, 158999, Note_off_c, 0, 56, 35
1, 159082, Note_off_c, 0, 59, 35
1, 159213, Note_off_c, 0, 62, 34
1, 159344, Note_on_c, 0, 66, 35
1, 159347, Note_on_c, 0, 57, 30
1, 159370, Control_c, 0, 64, 25
1, 159385, Control_c, 0, 64, 52
1, 159399, Control_c, 0, 64, 62
1, 159414, Control_c, 0, 64, 65
1, 159429, Control_c, 0, 64, 69
1, 159444, Control_c, 0, 64, 73
1, 159458, Note_off_c, 0, 66, 57
1, 159459, Control_c, 0, 64, 78
1, 159474, Control_c, 0, 64, 82
1, 159488, Control_c, 0, 64, 86
1, 159496, Note_off_c, 0, 57, 0
1, 159503, Control_c, 0, 64, 88
1, 159518, Control_c, 0, 64, 88
1, 159553, Poly_aftertouch_c, 0, 57, 0
1, 159577, Control_c, 0, 64, 85
1, 159592, Control_c, 0, 64, 76
1, 159601, Note_on_c, 0, 58, 40
1, 159605, Note_on_c, 0, 67, 39
1, 159606, Control_c, 0, 64, 64
1, 159621, Control_c, 0, 64, 48
1, 159636, Control_c, 0, 64, 19
1, 159651, Control_c, 0, 64, 0
1, 159681, Control_c, 0, 64, 38
1, 159696, Control_c, 0, 64, 57
1, 159711, Control_c, 0, 64, 64
1, 159725, Control_c, 0, 64, 67
1, 159740, Control_c, 0, 64, 70
1, 159755, Control_c, 0, 64, 74
1, 159759, Note_off_c, 0, 67, 60
1, 159770, Control_c, 0, 64, 77
1, 159785, Control_c, 0, 64, 80
1, 159799, Control_c, 0, 64, 82
1, 159812, Note_off_c, 0, 58, 35
1, 159814, Control_c, 0, 64, 83
1, 159829, Control_c, 0, 64, 84
1, 159858, Control_c, 0, 64, 85
1, 159947, Control_c, 0, 64, 83
1, 159962, Control_c, 0, 64, 78
1, 159977, Control_c, 0, 64, 69
1, 159992, Control_c, 0, 64, 56
1, 160012, Note_on_c, 0, 59, 37
1, 160015, Control_c, 0, 64, 38
1, 160022, Note_on_c, 0, 68, 35
1, 160029, Control_c, 0, 64, 18
1, 160044, Control_c, 0, 64, 0
1, 160074, Control_c, 0, 64, 35
1, 160089, Control_c, 0, 64, 52
1, 160103, Control_c, 0, 64, 62
1, 160118, Control_c, 0, 64, 65
1, 160119, Note_off_c, 0, 74, 53
1, 160133, Control_c, 0, 64, 68
1, 160148, Control_c, 0, 64, 71
1, 160162, Control_c, 0, 64, 73
1, 160168, Note_off_c, 0, 59, 53
1, 160177, Control_c, 0, 64, 75
1, 160182, Note_off_c, 0, 68, 53
1, 160192, Control_c, 0, 64, 78
1, 160207, Control_c, 0, 64, 81
1, 160221, Control_c, 0, 64, 82
1, 160385, Control_c, 0, 64, 82
1, 160399, Control_c, 0, 64, 81
1, 160414, Control_c, 0, 64, 77
1, 160429, Control_c, 0, 64, 70
1, 160444, Control_c, 0, 64, 63
1, 160455, Note_on_c, 0, 74, 35
1, 160459, Control_c, 0, 64, 54
1, 160460, Note_on_c, 0, 78, 36
1, 160461, Note_on_c, 0, 57, 32
1, 160462, Note_on_c, 0, 69, 32
1, 160473, Control_c, 0, 64, 41
1, 160503, Control_c, 0, 64, 0
1, 160577, Control_c, 0, 64, 30
1, 160592, Control_c, 0, 64, 48
1, 160608, Control_c, 0, 64, 59
1, 160622, Control_c, 0, 64, 63
1, 160637, Control_c, 0, 64, 65
1, 160652, Control_c, 0, 64, 67
1, 160666, Control_c, 0, 64, 69
1, 160681, Control_c, 0, 64, 71
1, 160696, Control_c, 0, 64, 75
1, 160706, Note_off_c, 0, 74, 39
1, 160711, Note_off_c, 0, 78, 38
1, 160711, Control_c, 0, 64, 79
1, 160727, Control_c, 0, 64, 83
1, 160749, Control_c, 0, 64, 86
1, 160764, Control_c, 0, 64, 87
1, 160778, Control_c, 0, 64, 88
1, 160793, Control_c, 0, 64, 89
1, 160807, Note_off_c, 0, 69, 41
1, 160808, Control_c, 0, 64, 89
1, 160823, Control_c, 0, 64, 90
1, 160838, Control_c, 0, 64, 91
1, 160853, Control_c, 0, 64, 91
1, 161060, Control_c, 0, 64, 91
1, 161075, Control_c, 0, 64, 89
1, 161090, Control_c, 0, 64, 86
1, 161104, Control_c, 0, 64, 80
1, 161118, Note_on_c, 0, 78, 37
1, 161119, Control_c, 0, 64, 70
1, 161134, Control_c, 0, 64, 63
1, 161145, Note_on_c, 0, 73, 44
1, 161149, Control_c, 0, 64, 58
1, 161162, Note_on_c, 0, 76, 50
1, 161164, Control_c, 0, 64, 55
1, 161171, Note_on_c, 0, 67, 34
1, 161172, Note_off_c, 0, 78, 40
1, 161178, Control_c, 0, 64, 53
1, 161193, Control_c, 0, 64, 52
1, 161208, Control_c, 0, 64, 52
1, 161223, Control_c, 0, 64, 50
1, 161238, Control_c, 0, 64, 49
1, 161252, Control_c, 0, 64, 48
1, 161267, Control_c, 0, 64, 48
1, 161282, Control_c, 0, 64, 47
1, 161297, Control_c, 0, 64, 47
1, 161326, Control_c, 0, 64, 46
1, 161341, Control_c, 0, 64, 46
1, 161349, Note_on_c, 0, 74, 42
1, 161351, Note_off_c, 0, 73, 57
1, 161354, Note_off_c, 0, 76, 35
1, 161356, Control_c, 0, 64, 45
1, 161363, Note_off_c, 0, 57, 35
1, 161371, Control_c, 0, 64, 45
1, 161386, Control_c, 0, 64, 44
1, 161391, Note_off_c, 0, 74, 52
1, 161401, Control_c, 0, 64, 43
1, 161416, Control_c, 0, 64, 42
1, 161431, Control_c, 0, 64, 41
1, 161445, Control_c, 0, 64, 40
1, 161460, Control_c, 0, 64, 39
1, 161475, Control_c, 0, 64, 37
1, 161496, Control_c, 0, 64, 36
1, 161511, Control_c, 0, 64, 36
1, 161514, Note_on_c, 0, 76, 51
1, 161527, Control_c, 0, 64, 35
1, 161542, Control_c, 0, 64, 34
1, 161557, Control_c, 0, 64, 34
1, 161559, Note_off_c, 0, 76, 59
1, 161572, Control_c, 0, 64, 33
1, 161587, Control_c, 0, 64, 33
1, 161601, Control_c, 0, 64, 32
1, 161616, Control_c, 0, 64, 31
1, 161631, Control_c, 0, 64, 30
1, 161646, Control_c, 0, 64, 30
1, 161675, Control_c, 0, 64, 29
1, 161688, Note_off_c, 0, 67, 39
1, 161704, Note_on_c, 0, 62, 34
1, 161707, Note_on_c, 0, 74, 49
1, 161720, Control_c, 0, 64, 29
1, 161735, Control_c, 0, 64, 28
1, 161750, Control_c, 0, 64, 28
1, 161765, Control_c, 0, 64, 27
1, 161780, Control_c, 0, 64, 26
1, 161809, Control_c, 0, 64, 26
1, 161824, Control_c, 0, 64, 25
1, 161839, Control_c, 0, 64, 25
1, 161868, Control_c, 0, 64, 24
1, 161883, Control_c, 0, 64, 23
1, 161896, Note_on_c, 0, 66, 34
1, 161897, Note_off_c, 0, 74, 57
1, 161898, Control_c, 0, 64, 23
1, 161957, Control_c, 0, 64, 22
1, 161987, Control_c, 0, 64, 22
1, 162031, Control_c, 0, 64, 21
1, 162037, Note_off_c, 0, 62, 42
1, 162046, Control_c, 0, 64, 21
1, 162048, Note_on_c, 0, 80, 47
1, 162065, Note_on_c, 0, 69, 39
1, 162119, Control_c, 0, 64, 20
1, 162124, Note_on_c, 0, 81, 44
1, 162149, Control_c, 0, 64, 20
1, 162155, Note_off_c, 0, 66, 34
1, 162161, Note_off_c, 0, 80, 39
1, 162164, Control_c, 0, 64, 19
1, 162179, Control_c, 0, 64, 19
1, 162181, Note_off_c, 0, 81, 52
1, 162194, Control_c, 0, 64, 18
1, 162206, Note_on_c, 0, 62, 39
1, 162206, Note_off_c, 0, 69, 44
1, 162209, Control_c, 0, 64, 16
1, 162217, Note_on_c, 0, 83, 58
1, 162304, Note_on_c, 0, 81, 61
1, 162350, Control_c, 0, 64, 0
1, 162379, Note_on_c, 0, 66, 39
1, 162385, Note_off_c, 0, 83, 45
1, 162386, Note_on_c, 0, 79, 63
1, 162426, Note_off_c, 0, 62, 34
1, 162462, Note_on_c, 0, 78, 64
1, 162492, Note_off_c, 0, 79, 56
1, 162500, Note_off_c, 0, 81, 36
1, 162530, Note_off_c, 0, 66, 55
1, 162534, Note_off_c, 0, 78, 60
1, 162542, Note_on_c, 0, 69, 50
1, 162542, Note_on_c, 0, 76, 62
1, 162614, Note_on_c, 0, 74, 71
1, 162686, Note_off_c, 0, 69, 49
1, 162694, Note_off_c, 0, 76, 26
1, 162695, Note_off_c, 0, 74, 61
1, 162698, Note_on_c, 0, 73, 69
1, 162710, Note_on_c, 0, 57, 39
1, 162765, Note_off_c, 0, 73, 62
1, 162771, Note_on_c, 0, 74, 66
1, 162850, Note_off_c, 0, 74, 59
1, 162856, Note_on_c, 0, 75, 70
1, 162865, Note_on_c, 0, 61, 47
1, 162902, Note_off_c, 0, 75, 62
1, 162909, Note_off_c, 0, 57, 35
1, 162927, Note_on_c, 0, 76, 75
1, 163014, Note_on_c, 0, 77, 74
1, 163020, Note_off_c, 0, 76, 59
1, 163022, Note_on_c, 0, 64, 49
1, 163040, Note_off_c, 0, 61, 34
1, 163094, Note_on_c, 0, 78, 72
1, 163105, Note_off_c, 0, 77, 59
1, 163141, Note_off_c, 0, 78, 62
1, 163167, Note_off_c, 0, 64, 40
1, 163170, Note_on_c, 0, 79, 72
1, 163173, Note_on_c, 0, 57, 46
1, 163248, Note_on_c, 0, 80, 72
1, 163275, Note_off_c, 0, 79, 40
1, 163321, Note_on_c, 0, 61, 47
1, 163336, Note_on_c, 0, 81, 71
1, 163372, Note_off_c, 0, 57, 34
1, 163386, Note_off_c, 0, 80, 53
1, 163400, Note_on_c, 0, 82, 64
1, 163422, Note_off_c, 0, 81, 59
1, 163453, Note_off_c, 0, 61, 52
1, 163458, Note_off_c, 0, 82, 62
1, 163476, Note_on_c, 0, 64, 49
1, 163489, Note_on_c, 0, 83, 64
1, 163565, Note_on_c, 0, 79, 53
1, 163622, Note_off_c, 0, 64, 44
1, 163622, Note_off_c, 0, 83, 36
1, 163634, Note_off_c, 0, 79, 53
1, 163660, Note_on_c, 0, 78, 46
1, 163667, Note_on_c, 0, 62, 42
1, 163878, Note_on_c, 0, 66, 42
1, 163886, Note_off_c, 0, 78, 57
1, 164020, Note_off_c, 0, 62, 35
1, 164031, Note_on_c, 0, 80, 49
1, 164044, Note_on_c, 0, 69, 40
1, 164103, Note_on_c, 0, 81, 55
1, 164128, Note_off_c, 0, 66, 37
1, 164139, Note_off_c, 0, 80, 48
1, 164166, Note_off_c, 0, 81, 51
1, 164188, Note_off_c, 0, 69, 44
1, 164188, Note_on_c, 0, 83, 59
1, 164194, Note_on_c, 0, 62, 33
1, 164278, Note_on_c, 0, 81, 66
1, 164351, Note_on_c, 0, 79, 64
1, 164361, Note_on_c, 0, 66, 40
1, 164375, Note_off_c, 0, 83, 35
1, 164408, Note_off_c, 0, 62, 33
1, 164425, Note_on_c, 0, 78, 61
1, 164454, Note_off_c, 0, 79, 57
1, 164454, Note_off_c, 0, 81, 43
1, 164506, Note_off_c, 0, 66, 47
1, 164507, Note_off_c, 0, 78, 61
1, 164515, Note_on_c, 0, 76, 61
1, 164517, Note_on_c, 0, 69, 51
1, 164596, Note_on_c, 0, 74, 70
1, 164668, Note_on_c, 0, 57, 41
1, 164668, Note_off_c, 0, 69, 41
1, 164675, Note_on_c, 0, 73, 68
1, 164675, Note_off_c, 0, 74, 60
1, 164677, Note_off_c, 0, 76, 28
1, 164741, Note_off_c, 0, 73, 60
1, 164743, Note_on_c, 0, 74, 60
1, 164819, Note_off_c, 0, 74, 60
1, 164829, Note_on_c, 0, 75, 66
1, 164841, Note_on_c, 0, 64, 45
1, 164875, Note_off_c, 0, 75, 61
1, 164910, Note_off_c, 0, 57, 34
1, 164911, Note_on_c, 0, 76, 69
1, 164984, Note_off_c, 0, 76, 62
1, 164989, Note_on_c, 0, 67, 45
1, 164989, Note_on_c, 0, 77, 65
1, 164999, Note_off_c, 0, 64, 0
1, 165057, Poly_aftertouch_c, 0, 64, 0
1, 165065, Note_on_c, 0, 78, 66
1, 165068, Note_off_c, 0, 77, 59
1, 165094, Note_off_c, 0, 78, 63
1, 165114, Note_off_c, 0, 67, 52
1, 165148, Note_on_c, 0, 79, 64
1, 165152, Note_on_c, 0, 57, 41
1, 165224, Note_on_c, 0, 81, 60
1, 165239, Note_off_c, 0, 79, 54
1, 165297, Note_off_c, 0, 81, 57
1, 165328, Note_on_c, 0, 64, 43
1, 165331, Note_on_c, 0, 83, 60
1, 165365, Note_off_c, 0, 57, 36
1, 165416, Note_on_c, 0, 79, 44
1, 165447, Note_off_c, 0, 83, 35
1, 165498, Note_off_c, 0, 64, 36
1, 165510, Note_off_c, 0, 79, 55
1, 165520, Note_on_c, 0, 76, 47
1, 165523, Note_on_c, 0, 67, 40
1, 165587, Note_off_c, 0, 76, 47
1, 165624, Note_on_c, 0, 73, 49
1, 165709, Note_off_c, 0, 73, 57
1, 165713, Note_off_c, 0, 67, 46
1, 165768, Note_on_c, 0, 66, 27
1, 165770, Note_on_c, 0, 62, 38
1, 165777, Note_on_c, 0, 74, 40
1, 165863, Control_c, 0, 64, 32
1, 165878, Control_c, 0, 64, 50
1, 165893, Control_c, 0, 64, 59
1, 165908, Control_c, 0, 64, 63
1, 165923, Control_c, 0, 64, 67
1, 165938, Control_c, 0, 64, 69
1, 165953, Control_c, 0, 64, 71
1, 165967, Control_c, 0, 64, 74
1, 165982, Control_c, 0, 64, 77
1, 166004, Control_c, 0, 64, 79
1, 166018, Control_c, 0, 64, 82
1, 166020, Note_on_c, 0, 69, 49
1, 166033, Control_c, 0, 64, 83
1, 166041, Note_off_c, 0, 74, 41
1, 166048, Note_off_c, 0, 69, 54
1, 166048, Control_c, 0, 64, 84
1, 166063, Control_c, 0, 64, 85
1, 166078, Control_c, 0, 64, 85
1, 166182, Control_c, 0, 64, 84
1, 166197, Control_c, 0, 64, 81
1, 166211, Control_c, 0, 64, 75
1, 166217, Note_off_c, 0, 66, 38
1, 166223, Note_off_c, 0, 62, 34
1, 166226, Control_c, 0, 64, 66
1, 166231, Note_on_c, 0, 69, 23
1, 166241, Control_c, 0, 64, 60
1, 166247, Note_on_c, 0, 78, 40
1, 166256, Control_c, 0, 64, 54
1, 166271, Control_c, 0, 64, 49
1, 166285, Control_c, 0, 64, 46
1, 166300, Control_c, 0, 64, 46
1, 166316, Control_c, 0, 64, 45
1, 166331, Control_c, 0, 64, 45
1, 166346, Control_c, 0, 64, 43
1, 166361, Control_c, 0, 64, 42
1, 166376, Control_c, 0, 64, 39
1, 166390, Control_c, 0, 64, 35
1, 166405, Control_c, 0, 64, 31
1, 166420, Control_c, 0, 64, 26
1, 166435, Control_c, 0, 64, 21
1, 166443, Note_off_c, 0, 69, 50
1, 166449, Control_c, 0, 64, 21
1, 166479, Control_c, 0, 64, 21
1, 166486, Note_on_c, 0, 62, 33
1, 166489, Note_on_c, 0, 66, 30
1, 166489, Note_on_c, 0, 74, 42
1, 166494, Control_c, 0, 64, 31
1, 166508, Control_c, 0, 64, 45
1, 166523, Control_c, 0, 64, 55
1, 166538, Control_c, 0, 64, 61
1, 166553, Control_c, 0, 64, 64
1, 166568, Control_c, 0, 64, 66
1, 166583, Control_c, 0, 64, 67
1, 166597, Control_c, 0, 64, 70
1, 166602, Note_off_c, 0, 78, 31
1, 166612, Control_c, 0, 64, 73
1, 166627, Control_c, 0, 64, 76
1, 166641, Control_c, 0, 64, 79
1, 166656, Control_c, 0, 64, 82
1, 166671, Control_c, 0, 64, 85
1, 166686, Control_c, 0, 64, 87
1, 166701, Control_c, 0, 64, 88
1, 166715, Control_c, 0, 64, 89
1, 166730, Control_c, 0, 64, 91
1, 166752, Control_c, 0, 64, 92
1, 166765, Note_on_c, 0, 69, 31
1, 166767, Control_c, 0, 64, 93
1, 166782, Control_c, 0, 64, 94
1, 166793, Note_off_c, 0, 74, 40
1, 166795, Note_off_c, 0, 69, 48
1, 166796, Control_c, 0, 64, 94
1, 166989, Control_c, 0, 64, 93
1, 167004, Control_c, 0, 64, 91
1, 167019, Control_c, 0, 64, 88
1, 167034, Control_c, 0, 64, 84
1, 167048, Control_c, 0, 64, 78
1, 167063, Control_c, 0, 64, 72
1, 167076, Note_on_c, 0, 69, 26
1, 167077, Note_on_c, 0, 78, 33
1, 167078, Control_c, 0, 64, 66
1, 167093, Control_c, 0, 64, 62
1, 167095, Note_off_c, 0, 66, 34
1, 167102, Note_off_c, 0, 62, 36
1, 167109, Control_c, 0, 64, 59
1, 167124, Control_c, 0, 64, 58
1, 167138, Control_c, 0, 64, 57
1, 167153, Control_c, 0, 64, 56
1, 167168, Control_c, 0, 64, 56
1, 167183, Control_c, 0, 64, 55
1, 167198, Control_c, 0, 64, 54
1, 167212, Control_c, 0, 64, 53
1, 167227, Control_c, 0, 64, 52
1, 167242, Control_c, 0, 64, 51
1, 167256, Control_c, 0, 64, 50
1, 167271, Control_c, 0, 64, 50
1, 167301, Control_c, 0, 64, 49
1, 167330, Control_c, 0, 64, 49
1, 167346, Control_c, 0, 64, 48
1, 167376, Control_c, 0, 64, 48
1, 167605, Control_c, 0, 64, 48
1, 167617, Note_on_c, 0, 62, 11
1, 167620, Control_c, 0, 64, 50
1, 167625, Note_off_c, 0, 69, 46
1, 167626, Note_on_c, 0, 74, 32
1, 167631, Note_on_c, 0, 66, 29
1, 167635, Control_c, 0, 64, 52
1, 167650, Control_c, 0, 64, 55
1, 167664, Control_c, 0, 64, 59
1, 167679, Control_c, 0, 64, 61
1, 167694, Control_c, 0, 64, 64
1, 167709, Control_c, 0, 64, 66
1, 167724, Control_c, 0, 64, 68
1, 167726, Note_off_c, 0, 78, 31
1, 167738, Control_c, 0, 64, 70
1, 167753, Control_c, 0, 64, 73
1, 167768, Control_c, 0, 64, 77
1, 167783, Control_c, 0, 64, 80
1, 167798, Control_c, 0, 64, 82
1, 167813, Control_c, 0, 64, 84
1, 167828, Control_c, 0, 64, 86
1, 167843, Control_c, 0, 64, 88
1, 167858, Control_c, 0, 64, 90
1, 167872, Control_c, 0, 64, 92
1, 167887, Control_c, 0, 64, 94
1, 167902, Control_c, 0, 64, 96
1, 167917, Control_c, 0, 64, 98
1, 167932, Control_c, 0, 64, 100
1, 167947, Control_c, 0, 64, 102
1, 167962, Control_c, 0, 64, 103
1, 167977, Control_c, 0, 64, 104
1, 167992, Control_c, 0, 64, 104
1, 168022, Control_c, 0, 64, 105
1, 168051, Control_c, 0, 64, 105
1, 168066, Control_c, 0, 64, 106
1, 168080, Control_c, 0, 64, 106
1, 168184, Control_c, 0, 64, 107
1, 169266, Control_c, 0, 64, 106
1, 169310, Control_c, 0, 64, 106
1, 169325, Control_c, 0, 64, 105
1, 169340, Control_c, 0, 64, 105
1, 169369, Control_c, 0, 64, 104
1, 169384, Control_c, 0, 64, 103
1, 169399, Control_c, 0, 64, 103
1, 169414, Control_c, 0, 64, 102
1, 169429, Control_c, 0, 64, 102
1, 169458, Control_c, 0, 64, 101
1, 169473, Control_c, 0, 64, 101
1, 169488, Control_c, 0, 64, 100
1, 169503, Control_c, 0, 64, 99
1, 169519, Control_c, 0, 64, 99
1, 169533, Control_c, 0, 64, 98
1, 169548, Control_c, 0, 64, 98
1, 169563, Control_c, 0, 64, 97
1, 169593, Control_c, 0, 64, 96
1, 169607, Control_c, 0, 64, 96
1, 169622, Control_c, 0, 64, 95
1, 169637, Control_c, 0, 64, 94
1, 169652, Control_c, 0, 64, 93
1, 169667, Control_c, 0, 64, 92
1, 169682, Control_c, 0, 64, 91
1, 169697, Control_c, 0, 64, 90
1, 169712, Control_c, 0, 64, 88
1, 169714, Note_off_c, 0, 62, 38
1, 169721, Note_off_c, 0, 66, 36
1, 169733, Control_c, 0, 64, 87
1, 169739, Note_off_c, 0, 74, 40
1, 169748, Control_c, 0, 64, 84
1, 169763, Control_c, 0, 64, 82
1, 169778, Control_c, 0, 64, 78
1, 169792, Control_c, 0, 64, 75
1, 169807, Control_c, 0, 64, 71
1, 169822, Control_c, 0, 64, 69
1, 169837, Control_c, 0, 64, 68
1, 169897, Control_c, 0, 64, 67
1, 169911, Control_c, 0, 64, 67
1, 169926, Control_c, 0, 64, 66
1, 169941, Control_c, 0, 64, 64
1, 169956, Control_c, 0, 64, 63
1, 169971, Control_c, 0, 64, 61
1, 169986, Control_c, 0, 64, 59
1, 170000, Control_c, 0, 64, 58
1, 170015, Control_c, 0, 64, 55
1, 170030, Control_c, 0, 64, 53
1, 170045, Control_c, 0, 64, 51
1, 170059, Control_c, 0, 64, 48
1, 170074, Control_c, 0, 64, 45
1, 170089, Control_c, 0, 64, 43
1, 170104, Control_c, 0, 64, 40
1, 170119, Control_c, 0, 64, 35
1, 170133, Control_c, 0, 64, 28
1, 170148, Control_c, 0, 64, 16
1, 170163, Control_c, 0, 64, 0
1, 170163, End_track
0, 0, End_of_file
