0, 0, Header, 0, 1, 384
1, 0, Start_track
1, 0, Title_t, "Scarbo--Simon Lariviere         "
1, 0, Text_t, "2009 Piano-e-Competition audition round"
1, 0, Text_t, "captured January 2009"
1, 0, Text_t, "http://www.piano-e-competition.com/"
1, 0, Text_t, "File processed for distribution by software from Zenph Studios, Inc., http://www.zenph.com"
1, 0, Instrument_name_t, "Yamaha Disklavier Pro Mark IV concert grand piano, model DCFIIISM4PRO"
1, 0, Sequencer_specific, 39, 67, 113, 0, 1, 0, 1, 0, 83, 99, 97, 114, 98, 111, 44, 32, 82, 97, 118, 101, 108, 32, 32, 32, 83, 105, 109, 111, 110, 32, 76, 97, 114, 105, 118, 105, 101, 114, 101, 32
1, 0, Sequencer_specific, 6, 67, 113, 0, 0, 0, 69
1, 0, System_exclusive, 21, 67, 113, 126, 21, 0, 2, 2, 0, 3, 14, 1, 4, 1, 13, 13, 10, 11, 9, 2, 7, 247
1, 0, Sequencer_specific, 5, 67, 123, 12, 2, 1
1, 0, Tempo, 512820
1, 0, Time_signature, 4, 2, 24, 8
1, 0, System_exclusive, 5, 126, 127, 9, 1, 247
1, 1, System_exclusive, 8, 67, 16, 76, 0, 0, 126, 0, 247
1, 2, System_exclusive, 8, 67, 16, 76, 8, 9, 7, 1, 247
1, 3, Control_c, 0, 0, 0
1, 3, Control_c, 1, 0, 0
1, 3, Control_c, 2, 0, 0
1, 3, Control_c, 3, 0, 0
1, 3, Control_c, 4, 0, 0
1, 3, Control_c, 5, 0, 0
1, 3, Control_c, 6, 0, 0
1, 3, Control_c, 7, 0, 0
1, 3, Control_c, 8, 0, 0
1, 3, Control_c, 9, 0, 127
1, 3, Control_c, 10, 0, 0
1, 3, Control_c, 11, 0, 0
1, 3, Control_c, 12, 0, 0
1, 3, Control_c, 13, 0, 0
1, 3, Control_c, 14, 0, 0
1, 3, Control_c, 15, 0, 0
1, 4, Control_c, 0, 32, 0
1, 4, Control_c, 1, 32, 0
1, 4, Control_c, 2, 32, 0
1, 4, Control_c, 3, 32, 0
1, 4, Control_c, 4, 32, 0
1, 4, Control_c, 5, 32, 0
1, 4, Control_c, 6, 32, 0
1, 4, Control_c, 7, 32, 0
1, 4, Control_c, 8, 32, 0
1, 4, Control_c, 9, 32, 0
1, 4, Control_c, 10, 32, 0
1, 4, Control_c, 11, 32, 0
1, 4, Control_c, 12, 32, 0
1, 4, Control_c, 13, 32, 0
1, 4, Control_c, 14, 32, 0
1, 4, Control_c, 15, 32, 0
1, 5, Program_c, 0, 0
1, 5, Program_c, 1, 0
1, 5, Program_c, 2, 0
1, 5, Program_c, 3, 0
1, 5, Program_c, 4, 0
1, 5, Program_c, 5, 0
1, 5, Program_c, 6, 0
1, 5, Program_c, 7, 0
1, 5, Program_c, 8, 0
1, 5, Program_c, 9, 0
1, 5, Program_c, 10, 0
1, 5, Program_c, 11, 0
1, 5, Program_c, 12, 0
1, 5, Program_c, 13, 0
1, 5, Program_c, 14, 0
1, 5, Program_c, 15, 0
1, 6, Control_c, 0, 7, 100
1, 6, Control_c, 1, 7, 100
1, 6, Control_c, 2, 7, 100
1, 6, Control_c, 3, 7, 100
1, 6, Control_c, 4, 7, 100
1, 6, Control_c, 5, 7, 100
1, 6, Control_c, 6, 7, 100
1, 6, Control_c, 7, 7, 100
1, 6, Control_c, 8, 7, 100
1, 6, Control_c, 9, 7, 100
1, 6, Control_c, 10, 7, 100
1, 6, Control_c, 11, 7, 100
1, 6, Control_c, 12, 7, 100
1, 6, Control_c, 13, 7, 100
1, 6, Control_c, 14, 7, 100
1, 6, Control_c, 15, 7, 100
1, 117, Control_c, 0, 67, 15
1, 229, Control_c, 0, 67, 31
1, 341, Control_c, 0, 67, 46
1, 452, Control_c, 0, 67, 63
1, 564, Control_c, 0, 67, 77
1, 676, Control_c, 0, 67, 94
1, 787, Control_c, 0, 67, 108
1, 899, Control_c, 0, 67, 127
1, 1131, Control_c, 0, 64, 58
1, 1134, Note_on_c, 0, 31, 36
1, 1146, Control_c, 0, 64, 56
1, 1160, Control_c, 0, 64, 53
1, 1175, Control_c, 0, 64, 50
1, 1190, Control_c, 0, 64, 46
1, 1205, Control_c, 0, 64, 43
1, 1227, Control_c, 0, 64, 41
1, 1241, Control_c, 0, 64, 39
1, 1256, Control_c, 0, 64, 37
1, 1271, Control_c, 0, 64, 36
1, 1286, Control_c, 0, 64, 34
1, 1302, Control_c, 0, 64, 33
1, 1317, Control_c, 0, 64, 30
1, 1331, Control_c, 0, 64, 28
1, 1346, Control_c, 0, 64, 25
1, 1361, Control_c, 0, 64, 22
1, 1376, Control_c, 0, 64, 20
1, 1391, Control_c, 0, 64, 18
1, 1405, Control_c, 0, 64, 17
1, 1420, Control_c, 0, 64, 15
1, 1435, Control_c, 0, 64, 13
1, 1450, Control_c, 0, 64, 10
1, 1465, Control_c, 0, 64, 8
1, 1479, Control_c, 0, 64, 0
1, 1667, Note_on_c, 0, 32, 29
1, 1778, Note_off_c, 0, 31, 36
1, 2242, Note_on_c, 0, 39, 24
1, 2313, Note_off_c, 0, 32, 38
1, 2895, Note_off_c, 0, 39, 22
1, 3978, Control_c, 0, 64, 17
1, 3992, Control_c, 0, 64, 27
1, 4007, Control_c, 0, 64, 35
1, 4022, Control_c, 0, 64, 44
1, 4037, Control_c, 0, 64, 51
1, 4052, Control_c, 0, 64, 57
1, 4067, Control_c, 0, 64, 60
1, 4082, Control_c, 0, 64, 62
1, 4097, Control_c, 0, 64, 63
1, 4111, Control_c, 0, 64, 64
1, 4126, Control_c, 0, 64, 65
1, 4141, Control_c, 0, 64, 67
1, 4156, Control_c, 0, 64, 69
1, 4171, Control_c, 0, 64, 71
1, 4185, Control_c, 0, 64, 74
1, 4200, Control_c, 0, 64, 76
1, 4222, Control_c, 0, 64, 80
1, 4237, Control_c, 0, 64, 83
1, 4252, Control_c, 0, 64, 86
1, 4267, Control_c, 0, 64, 89
1, 4281, Control_c, 0, 64, 92
1, 4296, Control_c, 0, 64, 94
1, 4311, Control_c, 0, 64, 96
1, 4326, Control_c, 0, 64, 98
1, 4341, Control_c, 0, 64, 99
1, 4356, Control_c, 0, 64, 100
1, 4371, Control_c, 0, 64, 101
1, 4386, Control_c, 0, 64, 103
1, 4400, Control_c, 0, 64, 105
1, 4415, Control_c, 0, 64, 107
1, 4430, Control_c, 0, 64, 109
1, 4444, Control_c, 0, 64, 110
1, 4459, Control_c, 0, 64, 113
1, 4474, Control_c, 0, 64, 114
1, 4490, Control_c, 0, 64, 115
1, 4517, Note_on_c, 0, 64, 72
1, 4526, Note_on_c, 0, 50, 59
1, 4526, Note_on_c, 0, 51, 71
1, 4532, Note_on_c, 0, 59, 58
1, 4538, Note_on_c, 0, 56, 48
1, 4539, Note_on_c, 0, 52, 58
1, 4568, Note_off_c, 0, 51, 58
1, 4604, Note_on_c, 0, 51, 40
1, 4616, Note_off_c, 0, 56, 0
1, 4653, Control_c, 0, 64, 117
1, 4654, Poly_aftertouch_c, 0, 56, 127
1, 4683, Control_c, 0, 64, 119
1, 4712, Note_off_c, 0, 51, 53
1, 4727, Control_c, 0, 64, 122
1, 4756, Control_c, 0, 64, 127
1, 4761, Note_on_c, 0, 51, 39
1, 4794, Note_off_c, 0, 51, 0
1, 4814, Note_on_c, 0, 51, 49
1, 4860, Note_off_c, 0, 51, 61
1, 4904, Note_on_c, 0, 51, 43
1, 4945, Note_off_c, 0, 51, 0
1, 4972, Note_on_c, 0, 51, 53
1, 5010, Note_off_c, 0, 51, 63
1, 5054, Note_on_c, 0, 51, 45
1, 5091, Note_off_c, 0, 51, 56
1, 5124, Note_on_c, 0, 51, 49
1, 5156, Note_off_c, 0, 51, 56
1, 5197, Note_on_c, 0, 51, 49
1, 5235, Note_off_c, 0, 51, 59
1, 5265, Note_on_c, 0, 51, 45
1, 5296, Note_off_c, 0, 51, 56
1, 5345, Note_on_c, 0, 51, 50
1, 5372, Note_off_c, 0, 51, 60
1, 5439, Note_on_c, 0, 51, 33
1, 5491, Note_off_c, 0, 51, 0
1, 5491, Note_on_c, 0, 51, 29
1, 5528, Note_off_c, 0, 51, 62
1, 5566, Note_on_c, 0, 51, 46
1, 5602, Note_off_c, 0, 51, 53
1, 5648, Note_on_c, 0, 51, 41
1, 5683, Note_off_c, 0, 51, 53
1, 5738, Note_on_c, 0, 51, 30
1, 5789, Note_off_c, 0, 51, 0
1, 5802, Note_on_c, 0, 51, 43
1, 5832, Note_off_c, 0, 51, 58
1, 5892, Note_on_c, 0, 51, 22
1, 5941, Note_off_c, 0, 51, 0
1, 5941, Note_on_c, 0, 51, 20
1, 5984, Note_off_c, 0, 51, 64
1, 6025, Note_on_c, 0, 51, 36
1, 6076, Note_off_c, 0, 51, 0
1, 6094, Note_on_c, 0, 51, 40
1, 6139, Note_off_c, 0, 51, 0
1, 6162, Note_on_c, 0, 51, 33
1, 6198, Note_off_c, 0, 51, 55
1, 6248, Note_on_c, 0, 51, 42
1, 6281, Note_off_c, 0, 51, 53
1, 6331, Note_on_c, 0, 51, 27
1, 6380, Note_off_c, 0, 51, 0
1, 6380, Note_on_c, 0, 51, 30
1, 6430, Note_off_c, 0, 51, 63
1, 6485, Note_on_c, 0, 51, 21
1, 6541, Note_off_c, 0, 51, 0
1, 6541, Note_on_c, 0, 51, 31
1, 6585, Note_off_c, 0, 51, 64
1, 6646, Note_on_c, 0, 51, 14
1, 6742, Note_off_c, 0, 51, 0
1, 6769, Note_on_c, 0, 51, 24
1, 6819, Note_off_c, 0, 51, 0
1, 6851, Note_on_c, 0, 51, 29
1, 6890, Note_off_c, 0, 51, 59
1, 6934, Note_on_c, 0, 51, 36
1, 6994, Note_off_c, 0, 51, 0
1, 7007, Note_off_c, 0, 64, 45
1, 7008, Note_on_c, 0, 51, 42
1, 7051, Note_off_c, 0, 51, 0
1, 7058, Note_off_c, 0, 59, 36
1, 7061, Poly_aftertouch_c, 0, 51, 0
1, 7065, Note_off_c, 0, 52, 37
1, 7083, Note_on_c, 0, 51, 27
1, 7084, Note_off_c, 0, 50, 25
1, 7107, Poly_aftertouch_c, 0, 56, 0
1, 7133, Note_off_c, 0, 51, 0
1, 7149, Note_on_c, 0, 51, 41
1, 7195, Note_off_c, 0, 51, 62
1, 7243, Note_on_c, 0, 51, 38
1, 7277, Note_off_c, 0, 51, 0
1, 7309, Note_on_c, 0, 51, 36
1, 7382, Note_off_c, 0, 51, 0
1, 7404, Note_on_c, 0, 51, 18
1, 7468, Note_off_c, 0, 51, 0
1, 7468, Note_on_c, 0, 51, 17
1, 7538, Note_off_c, 0, 51, 56
1, 7569, Note_on_c, 0, 59, 50
1, 7578, Note_on_c, 0, 56, 46
1, 7605, Note_on_c, 0, 52, 33
1, 7605, Note_on_c, 0, 50, 32
1, 7631, Poly_aftertouch_c, 0, 51, 127
1, 7755, Note_on_c, 0, 51, 14
1, 7823, Note_off_c, 0, 51, 0
1, 7859, Poly_aftertouch_c, 0, 51, 127
1, 7869, Note_on_c, 0, 51, 3
1, 7999, Note_off_c, 0, 51, 0
1, 7999, Note_on_c, 0, 51, 20
1, 8067, Note_off_c, 0, 51, 0
1, 8067, Note_on_c, 0, 51, 24
1, 8121, Note_off_c, 0, 51, 0
1, 8143, Note_on_c, 0, 51, 31
1, 8183, Note_off_c, 0, 51, 57
1, 8255, Note_on_c, 0, 51, 11
1, 8482, Note_off_c, 0, 51, 0
1, 8482, Note_on_c, 0, 51, 3
1, 8539, Note_off_c, 0, 51, 0
1, 8539, Note_on_c, 0, 51, 26
1, 8623, Note_off_c, 0, 51, 0
1, 8623, Note_on_c, 0, 51, 27
1, 8995, Note_off_c, 0, 51, 0
1, 8995, Note_on_c, 0, 51, 3
1, 9040, Control_c, 0, 64, 117
1, 9055, Control_c, 0, 64, 113
1, 9070, Control_c, 0, 64, 109
1, 9085, Control_c, 0, 64, 105
1, 9100, Control_c, 0, 64, 101
1, 9114, Control_c, 0, 64, 98
1, 9129, Control_c, 0, 64, 95
1, 9144, Control_c, 0, 64, 93
1, 9159, Control_c, 0, 64, 91
1, 9174, Control_c, 0, 64, 89
1, 9188, Control_c, 0, 64, 86
1, 9203, Control_c, 0, 64, 84
1, 9218, Control_c, 0, 64, 82
1, 9233, Control_c, 0, 64, 80
1, 9248, Control_c, 0, 64, 78
1, 9263, Control_c, 0, 64, 76
1, 9278, Control_c, 0, 64, 74
1, 9293, Control_c, 0, 64, 73
1, 9308, Control_c, 0, 64, 72
1, 9323, Control_c, 0, 64, 71
1, 9337, Control_c, 0, 64, 69
1, 9352, Control_c, 0, 64, 68
1, 9367, Control_c, 0, 64, 67
1, 9382, Control_c, 0, 64, 66
1, 9397, Control_c, 0, 64, 65
1, 9412, Control_c, 0, 64, 64
1, 9427, Control_c, 0, 64, 62
1, 9441, Control_c, 0, 64, 61
1, 9463, Control_c, 0, 64, 60
1, 9478, Control_c, 0, 64, 58
1, 9493, Control_c, 0, 64, 57
1, 9495, Note_off_c, 0, 56, 27
1, 9508, Control_c, 0, 64, 55
1, 9523, Control_c, 0, 64, 54
1, 9537, Control_c, 0, 64, 53
1, 9546, Note_off_c, 0, 59, 31
1, 9548, Note_off_c, 0, 51, 32
1, 9552, Control_c, 0, 64, 52
1, 9567, Control_c, 0, 64, 51
1, 9570, Note_off_c, 0, 52, 35
1, 9573, Note_off_c, 0, 50, 30
1, 9582, Control_c, 0, 64, 50
1, 9597, Control_c, 0, 64, 49
1, 9611, Control_c, 0, 64, 48
1, 9641, Control_c, 0, 64, 48
1, 9656, Control_c, 0, 64, 47
1, 9671, Control_c, 0, 64, 47
1, 9686, Control_c, 0, 64, 46
1, 9701, Control_c, 0, 64, 45
1, 9716, Control_c, 0, 64, 45
1, 9730, Control_c, 0, 64, 44
1, 9745, Control_c, 0, 64, 44
1, 9760, Control_c, 0, 64, 43
1, 9775, Control_c, 0, 64, 42
1, 9790, Control_c, 0, 64, 41
1, 9804, Control_c, 0, 64, 40
1, 9819, Control_c, 0, 64, 39
1, 9834, Control_c, 0, 64, 38
1, 9849, Control_c, 0, 64, 37
1, 9863, Control_c, 0, 64, 35
1, 9878, Control_c, 0, 64, 34
1, 9893, Control_c, 0, 64, 32
1, 9908, Control_c, 0, 64, 31
1, 9923, Control_c, 0, 64, 30
1, 9937, Control_c, 0, 64, 29
1, 9952, Control_c, 0, 64, 28
1, 9967, Control_c, 0, 64, 27
1, 9982, Control_c, 0, 64, 25
1, 9997, Control_c, 0, 64, 23
1, 10011, Control_c, 0, 64, 21
1, 10026, Control_c, 0, 64, 19
1, 10041, Control_c, 0, 64, 18
1, 10056, Control_c, 0, 64, 16
1, 10070, Control_c, 0, 64, 14
1, 10086, Control_c, 0, 64, 11
1, 10101, Control_c, 0, 64, 9
1, 10116, Control_c, 0, 64, 0
1, 11406, Control_c, 0, 64, 8
1, 11421, Control_c, 0, 64, 10
1, 11435, Control_c, 0, 64, 12
1, 11450, Control_c, 0, 64, 14
1, 11465, Control_c, 0, 64, 17
1, 11480, Control_c, 0, 64, 20
1, 11495, Control_c, 0, 64, 22
1, 11509, Control_c, 0, 64, 23
1, 11524, Control_c, 0, 64, 24
1, 11539, Control_c, 0, 64, 26
1, 11554, Control_c, 0, 64, 28
1, 11569, Control_c, 0, 64, 32
1, 11583, Control_c, 0, 64, 35
1, 11598, Control_c, 0, 64, 38
1, 11613, Control_c, 0, 64, 42
1, 11627, Control_c, 0, 64, 45
1, 11642, Control_c, 0, 64, 47
1, 11657, Control_c, 0, 64, 50
1, 11673, Control_c, 0, 64, 52
1, 11688, Control_c, 0, 64, 54
1, 11710, Control_c, 0, 64, 56
1, 11725, Control_c, 0, 64, 56
1, 11740, Control_c, 0, 64, 57
1, 11844, Control_c, 0, 64, 57
1, 11873, Control_c, 0, 64, 58
1, 11918, Control_c, 0, 64, 58
1, 11977, Control_c, 0, 64, 59
1, 11992, Control_c, 0, 64, 59
1, 12021, Control_c, 0, 64, 60
1, 12036, Control_c, 0, 64, 60
1, 12050, Control_c, 0, 64, 61
1, 12080, Control_c, 0, 64, 61
1, 12110, Control_c, 0, 64, 62
1, 12139, Control_c, 0, 64, 62
1, 12184, Control_c, 0, 64, 63
1, 12214, Control_c, 0, 64, 63
1, 12229, Control_c, 0, 64, 64
1, 12258, Control_c, 0, 64, 64
1, 12303, Control_c, 0, 64, 65
1, 12332, Control_c, 0, 64, 65
1, 12376, Control_c, 0, 64, 66
1, 12436, Control_c, 0, 64, 66
1, 12548, Control_c, 0, 64, 67
1, 12597, Note_on_c, 0, 31, 42
1, 12918, Control_c, 0, 64, 66
1, 12992, Control_c, 0, 64, 66
1, 13022, Control_c, 0, 64, 65
1, 13051, Control_c, 0, 64, 65
1, 13066, Control_c, 0, 64, 64
1, 13081, Control_c, 0, 64, 64
1, 13096, Control_c, 0, 64, 63
1, 13111, Control_c, 0, 64, 62
1, 13126, Control_c, 0, 64, 61
1, 13133, Note_on_c, 0, 32, 36
1, 13140, Control_c, 0, 64, 59
1, 13155, Control_c, 0, 64, 57
1, 13170, Control_c, 0, 64, 55
1, 13185, Control_c, 0, 64, 51
1, 13203, Note_off_c, 0, 31, 36
1, 13206, Control_c, 0, 64, 49
1, 13221, Control_c, 0, 64, 47
1, 13236, Control_c, 0, 64, 45
1, 13251, Control_c, 0, 64, 44
1, 13266, Control_c, 0, 64, 44
1, 13282, Control_c, 0, 64, 43
1, 13296, Control_c, 0, 64, 42
1, 13311, Control_c, 0, 64, 40
1, 13326, Control_c, 0, 64, 38
1, 13341, Control_c, 0, 64, 36
1, 13356, Control_c, 0, 64, 34
1, 13371, Control_c, 0, 64, 32
1, 13385, Control_c, 0, 64, 29
1, 13400, Control_c, 0, 64, 27
1, 13415, Control_c, 0, 64, 25
1, 13430, Control_c, 0, 64, 24
1, 13445, Control_c, 0, 64, 23
1, 13460, Control_c, 0, 64, 22
1, 13475, Control_c, 0, 64, 21
1, 13490, Control_c, 0, 64, 19
1, 13504, Control_c, 0, 64, 18
1, 13519, Control_c, 0, 64, 16
1, 13534, Control_c, 0, 64, 14
1, 13549, Control_c, 0, 64, 11
1, 13564, Control_c, 0, 64, 8
1, 13578, Control_c, 0, 64, 0
1, 13770, Note_on_c, 0, 39, 22
1, 13803, Note_off_c, 0, 32, 38
1, 14370, Note_off_c, 0, 39, 30
1, 15135, Control_c, 0, 64, 14
1, 15150, Control_c, 0, 64, 21
1, 15165, Control_c, 0, 64, 26
1, 15180, Control_c, 0, 64, 30
1, 15194, Control_c, 0, 64, 34
1, 15209, Control_c, 0, 64, 38
1, 15224, Control_c, 0, 64, 42
1, 15239, Control_c, 0, 64, 47
1, 15254, Control_c, 0, 64, 53
1, 15268, Control_c, 0, 64, 57
1, 15283, Control_c, 0, 64, 60
1, 15298, Control_c, 0, 64, 61
1, 15313, Control_c, 0, 64, 62
1, 15357, Control_c, 0, 64, 62
1, 15372, Control_c, 0, 64, 63
1, 15387, Control_c, 0, 64, 63
1, 15401, Control_c, 0, 64, 64
1, 15416, Control_c, 0, 64, 65
1, 15431, Control_c, 0, 64, 65
1, 15454, Control_c, 0, 64, 66
1, 15469, Control_c, 0, 64, 66
1, 15483, Control_c, 0, 64, 67
1, 15498, Control_c, 0, 64, 68
1, 15513, Control_c, 0, 64, 69
1, 15528, Control_c, 0, 64, 69
1, 15557, Control_c, 0, 64, 70
1, 15587, Control_c, 0, 64, 70
1, 15616, Control_c, 0, 64, 71
1, 15661, Control_c, 0, 64, 71
1, 15692, Control_c, 0, 64, 72
1, 15751, Control_c, 0, 64, 72
1, 15795, Control_c, 0, 64, 73
1, 15824, Control_c, 0, 64, 73
1, 15869, Control_c, 0, 64, 74
1, 15876, Note_on_c, 0, 52, 70
1, 15883, Note_on_c, 0, 47, 60
1, 15888, Note_on_c, 0, 44, 52
1, 15888, Note_on_c, 0, 51, 60
1, 15895, Note_on_c, 0, 38, 49
1, 15896, Note_on_c, 0, 40, 55
1, 15925, Note_off_c, 0, 51, 65
1, 15943, Control_c, 0, 64, 74
1, 16032, Control_c, 0, 64, 75
1, 16036, Note_on_c, 0, 51, 26
1, 16091, Control_c, 0, 64, 75
1, 16107, Note_off_c, 0, 51, 0
1, 16125, Note_on_c, 0, 51, 36
1, 16168, Note_off_c, 0, 51, 0
1, 16187, Note_on_c, 0, 51, 49
1, 16265, Note_off_c, 0, 51, 0
1, 16283, Note_on_c, 0, 51, 32
1, 16333, Note_off_c, 0, 51, 0
1, 16347, Note_on_c, 0, 51, 47
1, 16387, Note_off_c, 0, 51, 55
1, 16432, Note_on_c, 0, 51, 35
1, 16479, Note_off_c, 0, 51, 0
1, 16494, Note_on_c, 0, 51, 46
1, 16527, Note_off_c, 0, 51, 53
1, 16578, Note_on_c, 0, 51, 42
1, 16636, Note_off_c, 0, 51, 0
1, 16653, Note_on_c, 0, 51, 23
1, 16706, Note_off_c, 0, 51, 0
1, 16706, Note_on_c, 0, 51, 32
1, 16747, Note_off_c, 0, 51, 61
1, 16781, Note_on_c, 0, 51, 44
1, 16846, Note_off_c, 0, 51, 0
1, 16861, Note_on_c, 0, 51, 39
1, 16900, Note_off_c, 0, 51, 0
1, 16912, Poly_aftertouch_c, 0, 51, 0
1, 16928, Note_on_c, 0, 51, 35
1, 16983, Note_off_c, 0, 51, 0
1, 17004, Note_on_c, 0, 51, 37
1, 17063, Note_off_c, 0, 51, 0
1, 17079, Note_on_c, 0, 51, 40
1, 17137, Note_off_c, 0, 51, 0
1, 17155, Note_on_c, 0, 51, 34
1, 17186, Note_off_c, 0, 51, 0
1, 17219, Note_on_c, 0, 51, 23
1, 17274, Note_off_c, 0, 51, 0
1, 17289, Note_on_c, 0, 51, 42
1, 17335, Note_off_c, 0, 51, 0
1, 17363, Note_on_c, 0, 51, 33
1, 17427, Note_off_c, 0, 51, 0
1, 17445, Note_on_c, 0, 51, 30
1, 17468, Note_off_c, 0, 51, 0
1, 17491, Note_on_c, 0, 51, 23
1, 17548, Note_off_c, 0, 51, 0
1, 17568, Note_on_c, 0, 51, 33
1, 17609, Note_off_c, 0, 51, 60
1, 17633, Poly_aftertouch_c, 0, 51, 0
1, 17652, Note_on_c, 0, 51, 31
1, 17710, Note_off_c, 0, 51, 0
1, 17729, Note_on_c, 0, 51, 37
1, 17761, Note_off_c, 0, 51, 56
1, 17809, Note_on_c, 0, 51, 15
1, 17906, Note_off_c, 0, 51, 0
1, 17933, Note_on_c, 0, 51, 14
1, 17979, Note_off_c, 0, 51, 0
1, 18011, Note_on_c, 0, 51, 28
1, 18050, Note_off_c, 0, 51, 0
1, 18079, Note_on_c, 0, 51, 44
1, 18140, Note_off_c, 0, 51, 0
1, 18158, Note_on_c, 0, 51, 35
1, 18191, Note_off_c, 0, 51, 63
1, 18229, Note_on_c, 0, 51, 46
1, 18259, Note_off_c, 0, 52, 34
1, 18268, Note_off_c, 0, 51, 63
1, 18281, Note_off_c, 0, 38, 36
1, 18288, Note_off_c, 0, 47, 35
1, 18319, Note_on_c, 0, 51, 29
1, 18342, Note_off_c, 0, 40, 38
1, 18350, Note_off_c, 0, 51, 0
1, 18363, Poly_aftertouch_c, 0, 51, 0
1, 18378, Note_off_c, 0, 44, 40
1, 18384, Note_on_c, 0, 51, 29
1, 18435, Note_off_c, 0, 51, 0
1, 18459, Note_on_c, 0, 51, 38
1, 18493, Note_off_c, 0, 51, 65
1, 18549, Note_on_c, 0, 51, 18
1, 18608, Note_off_c, 0, 51, 0
1, 18608, Note_on_c, 0, 51, 13
1, 18651, Note_off_c, 0, 51, 0
1, 18683, Note_on_c, 0, 51, 30
1, 18747, Note_off_c, 0, 51, 0
1, 18747, Note_on_c, 0, 51, 31
1, 18759, Control_c, 0, 64, 75
1, 18793, Note_off_c, 0, 51, 63
1, 18848, Control_c, 0, 64, 74
1, 18853, Note_on_c, 0, 47, 54
1, 18867, Poly_aftertouch_c, 0, 51, 127
1, 18868, Note_on_c, 0, 51, 3
1, 18882, Note_on_c, 0, 44, 35
1, 18887, Note_on_c, 0, 40, 35
1, 18912, Note_on_c, 0, 38, 26
1, 18927, Note_off_c, 0, 51, 0
1, 18965, Poly_aftertouch_c, 0, 51, 127
1, 19012, Control_c, 0, 64, 74
1, 19052, Poly_aftertouch_c, 0, 51, 0
1, 19089, Note_on_c, 0, 51, 20
1, 19132, Note_off_c, 0, 51, 0
1, 19145, Control_c, 0, 64, 73
1, 19160, Note_on_c, 0, 51, 29
1, 19214, Note_off_c, 0, 51, 0
1, 19243, Note_on_c, 0, 51, 33
1, 19271, Control_c, 0, 64, 73
1, 19293, Note_off_c, 0, 51, 0
1, 19320, Note_on_c, 0, 51, 38
1, 19401, Note_off_c, 0, 51, 0
1, 19401, Note_on_c, 0, 51, 35
1, 19456, Note_off_c, 0, 51, 0
1, 19485, Note_on_c, 0, 51, 24
1, 19547, Note_off_c, 0, 51, 0
1, 19571, Note_on_c, 0, 51, 24
1, 19642, Note_off_c, 0, 51, 0
1, 19642, Note_on_c, 0, 51, 29
1, 19712, Note_off_c, 0, 51, 0
1, 19738, Note_on_c, 0, 51, 14
1, 19790, Control_c, 0, 64, 72
1, 19818, Note_off_c, 0, 51, 0
1, 19818, Note_on_c, 0, 51, 18
1, 19896, Note_off_c, 0, 51, 0
1, 19915, Note_on_c, 0, 51, 27
1, 19990, Control_c, 0, 64, 72
1, 19997, Note_off_c, 0, 51, 0
1, 19997, Note_on_c, 0, 51, 15
1, 20064, Control_c, 0, 64, 71
1, 20092, Note_off_c, 0, 51, 0
1, 20110, Note_on_c, 0, 51, 22
1, 20124, Control_c, 0, 64, 71
1, 20183, Control_c, 0, 64, 70
1, 20212, Control_c, 0, 64, 70
1, 20222, Note_off_c, 0, 51, 0
1, 20242, Note_on_c, 0, 51, 19
1, 20242, Control_c, 0, 64, 69
1, 20257, Control_c, 0, 64, 69
1, 20271, Control_c, 0, 64, 68
1, 20301, Control_c, 0, 64, 68
1, 20316, Control_c, 0, 64, 67
1, 20336, Note_off_c, 0, 51, 0
1, 20336, Note_on_c, 0, 51, 15
1, 20346, Control_c, 0, 64, 67
1, 20360, Control_c, 0, 64, 66
1, 20390, Control_c, 0, 64, 66
1, 20405, Control_c, 0, 64, 65
1, 20420, Control_c, 0, 64, 65
1, 20450, Control_c, 0, 64, 64
1, 20465, Control_c, 0, 64, 64
1, 20480, Control_c, 0, 64, 63
1, 20495, Control_c, 0, 64, 63
1, 20510, Control_c, 0, 64, 62
1, 20524, Control_c, 0, 64, 62
1, 20539, Control_c, 0, 64, 61
1, 20554, Control_c, 0, 64, 61
1, 20569, Control_c, 0, 64, 60
1, 20584, Control_c, 0, 64, 59
1, 20599, Control_c, 0, 64, 59
1, 20613, Control_c, 0, 64, 58
1, 20628, Control_c, 0, 64, 57
1, 20643, Control_c, 0, 64, 57
1, 20658, Control_c, 0, 64, 56
1, 20673, Control_c, 0, 64, 56
1, 20694, Control_c, 0, 64, 55
1, 20709, Control_c, 0, 64, 54
1, 20724, Control_c, 0, 64, 54
1, 20739, Control_c, 0, 64, 53
1, 20754, Control_c, 0, 64, 53
1, 20784, Control_c, 0, 64, 52
1, 20799, Control_c, 0, 64, 52
1, 20813, Control_c, 0, 64, 51
1, 20828, Control_c, 0, 64, 51
1, 20831, Note_off_c, 0, 38, 32
1, 20843, Control_c, 0, 64, 50
1, 20858, Control_c, 0, 64, 49
1, 20861, Note_off_c, 0, 47, 31
1, 20864, Note_off_c, 0, 40, 35
1, 20873, Note_off_c, 0, 51, 37
1, 20873, Control_c, 0, 64, 49
1, 20877, Note_off_c, 0, 44, 22
1, 20887, Control_c, 0, 64, 48
1, 20902, Control_c, 0, 64, 48
1, 20917, Control_c, 0, 64, 47
1, 20932, Control_c, 0, 64, 46
1, 20946, Control_c, 0, 64, 46
1, 20961, Control_c, 0, 64, 45
1, 20976, Control_c, 0, 64, 44
1, 20991, Control_c, 0, 64, 43
1, 21006, Control_c, 0, 64, 43
1, 21020, Control_c, 0, 64, 42
1, 21035, Control_c, 0, 64, 41
1, 21050, Control_c, 0, 64, 41
1, 21065, Control_c, 0, 64, 40
1, 21080, Control_c, 0, 64, 39
1, 21094, Control_c, 0, 64, 38
1, 21109, Control_c, 0, 64, 37
1, 21124, Control_c, 0, 64, 36
1, 21139, Control_c, 0, 64, 35
1, 21153, Control_c, 0, 64, 34
1, 21168, Control_c, 0, 64, 33
1, 21183, Control_c, 0, 64, 32
1, 21198, Control_c, 0, 64, 31
1, 21213, Control_c, 0, 64, 31
1, 21243, Control_c, 0, 64, 30
1, 21258, Control_c, 0, 64, 29
1, 21273, Control_c, 0, 64, 28
1, 21288, Control_c, 0, 64, 28
1, 21303, Control_c, 0, 64, 27
1, 21317, Control_c, 0, 64, 26
1, 21332, Control_c, 0, 64, 26
1, 21362, Control_c, 0, 64, 25
1, 21377, Control_c, 0, 64, 25
1, 21392, Control_c, 0, 64, 24
1, 21407, Control_c, 0, 64, 24
1, 21422, Control_c, 0, 64, 23
1, 21443, Control_c, 0, 64, 22
1, 21458, Control_c, 0, 64, 20
1, 21473, Control_c, 0, 64, 20
1, 21488, Control_c, 0, 64, 19
1, 21517, Control_c, 0, 64, 18
1, 21532, Control_c, 0, 64, 17
1, 21547, Control_c, 0, 64, 16
1, 21562, Control_c, 0, 64, 15
1, 21577, Control_c, 0, 64, 14
1, 21592, Control_c, 0, 64, 13
1, 21607, Control_c, 0, 64, 11
1, 21621, Control_c, 0, 64, 10
1, 21636, Control_c, 0, 64, 8
1, 21651, Control_c, 0, 64, 0
1, 22957, Control_c, 0, 64, 9
1, 22971, Control_c, 0, 64, 12
1, 22986, Control_c, 0, 64, 15
1, 23001, Control_c, 0, 64, 18
1, 23015, Control_c, 0, 64, 22
1, 23030, Control_c, 0, 64, 24
1, 23045, Control_c, 0, 64, 26
1, 23060, Control_c, 0, 64, 28
1, 23075, Control_c, 0, 64, 31
1, 23089, Control_c, 0, 64, 34
1, 23104, Control_c, 0, 64, 37
1, 23119, Control_c, 0, 64, 41
1, 23134, Control_c, 0, 64, 45
1, 23149, Control_c, 0, 64, 48
1, 23163, Control_c, 0, 64, 51
1, 23178, Control_c, 0, 64, 53
1, 23193, Control_c, 0, 64, 55
1, 23207, Control_c, 0, 64, 56
1, 23222, Control_c, 0, 64, 57
1, 23237, Control_c, 0, 64, 58
1, 23252, Control_c, 0, 64, 58
1, 23267, Control_c, 0, 64, 59
1, 23282, Control_c, 0, 64, 60
1, 23297, Control_c, 0, 64, 61
1, 23312, Control_c, 0, 64, 62
1, 23326, Control_c, 0, 64, 63
1, 23341, Control_c, 0, 64, 64
1, 23356, Control_c, 0, 64, 64
1, 23371, Control_c, 0, 64, 65
1, 23386, Control_c, 0, 64, 66
1, 23401, Control_c, 0, 64, 66
1, 23415, Control_c, 0, 64, 67
1, 23445, Control_c, 0, 64, 68
1, 23460, Control_c, 0, 64, 68
1, 23475, Control_c, 0, 64, 69
1, 23489, Control_c, 0, 64, 69
1, 23504, Control_c, 0, 64, 70
1, 23519, Control_c, 0, 64, 71
1, 23533, Control_c, 0, 64, 72
1, 23548, Control_c, 0, 64, 73
1, 23563, Control_c, 0, 64, 74
1, 23578, Control_c, 0, 64, 75
1, 23593, Control_c, 0, 64, 75
1, 23607, Control_c, 0, 64, 76
1, 23622, Control_c, 0, 64, 77
1, 23637, Control_c, 0, 64, 78
1, 23653, Control_c, 0, 64, 79
1, 23668, Control_c, 0, 64, 80
1, 23690, Control_c, 0, 64, 81
1, 23705, Control_c, 0, 64, 83
1, 23720, Control_c, 0, 64, 84
1, 23735, Control_c, 0, 64, 85
1, 23750, Control_c, 0, 64, 86
1, 23764, Control_c, 0, 64, 87
1, 23779, Control_c, 0, 64, 88
1, 23794, Control_c, 0, 64, 90
1, 23809, Control_c, 0, 64, 91
1, 23824, Control_c, 0, 64, 92
1, 23838, Control_c, 0, 64, 94
1, 23853, Control_c, 0, 64, 96
1, 23868, Control_c, 0, 64, 98
1, 23883, Control_c, 0, 64, 99
1, 23898, Control_c, 0, 64, 101
1, 23912, Control_c, 0, 64, 103
1, 23927, Control_c, 0, 64, 104
1, 23942, Control_c, 0, 64, 105
1, 23956, Control_c, 0, 64, 107
1, 23971, Control_c, 0, 64, 108
1, 23986, Control_c, 0, 64, 109
1, 24001, Control_c, 0, 64, 110
1, 24016, Control_c, 0, 64, 111
1, 24030, Control_c, 0, 64, 113
1, 24045, Control_c, 0, 64, 114
1, 24075, Control_c, 0, 64, 115
1, 24090, Control_c, 0, 64, 117
1, 24119, Control_c, 0, 64, 119
1, 24134, Control_c, 0, 64, 122
1, 24149, Control_c, 0, 64, 127
1, 24203, Note_on_c, 0, 21, 31
1, 25035, Note_on_c, 0, 22, 44
1, 25693, Note_on_c, 0, 27, 41
1, 26042, Note_off_c, 0, 21, 19
1, 26240, Note_on_c, 0, 31, 44
1, 26269, Note_on_c, 0, 26, 39
1, 26269, Note_on_c, 0, 28, 37
1, 26738, Note_off_c, 0, 26, 28
1, 26788, Note_off_c, 0, 28, 37
1, 26795, Note_on_c, 0, 32, 46
1, 26927, Note_off_c, 0, 22, 35
1, 26972, Note_off_c, 0, 27, 40
1, 26990, Note_off_c, 0, 31, 35
1, 27203, Note_off_c, 0, 32, 0
1, 27212, Note_on_c, 0, 39, 45
1, 27255, Poly_aftertouch_c, 0, 32, 0
1, 27595, Note_off_c, 0, 39, 42
1, 27616, Note_on_c, 0, 31, 49
1, 27938, Note_on_c, 0, 32, 52
1, 27969, Note_off_c, 0, 31, 35
1, 28217, Note_on_c, 0, 39, 51
1, 28263, Note_off_c, 0, 32, 34
1, 28427, Note_on_c, 0, 43, 47
1, 28430, Note_off_c, 0, 39, 32
1, 28435, Note_on_c, 0, 38, 43
1, 28435, Note_on_c, 0, 40, 40
1, 28608, Note_off_c, 0, 38, 37
1, 28624, Note_on_c, 0, 44, 49
1, 28625, Note_off_c, 0, 40, 40
1, 28728, Note_off_c, 0, 43, 32
1, 28761, Control_c, 0, 67, 126
1, 28770, Note_on_c, 0, 51, 55
1, 28776, Control_c, 0, 67, 121
1, 28790, Note_off_c, 0, 44, 58
1, 28791, Control_c, 0, 67, 118
1, 28806, Control_c, 0, 67, 118
1, 28850, Control_c, 0, 67, 117
1, 28871, Note_off_c, 0, 51, 63
1, 28880, Control_c, 0, 67, 117
1, 28895, Control_c, 0, 67, 116
1, 28901, Note_on_c, 0, 43, 55
1, 28910, Control_c, 0, 67, 114
1, 28932, Control_c, 0, 67, 112
1, 28947, Control_c, 0, 67, 111
1, 28961, Control_c, 0, 67, 110
1, 29021, Control_c, 0, 67, 111
1, 29025, Note_on_c, 0, 44, 56
1, 29028, Note_off_c, 0, 43, 56
1, 29065, Control_c, 0, 67, 111
1, 29124, Control_c, 0, 67, 112
1, 29149, Note_off_c, 0, 44, 57
1, 29151, Note_on_c, 0, 51, 53
1, 29218, Note_off_c, 0, 51, 62
1, 29252, Note_on_c, 0, 50, 44
1, 29253, Note_on_c, 0, 52, 50
1, 29258, Note_on_c, 0, 55, 56
1, 29258, Control_c, 0, 67, 111
1, 29273, Control_c, 0, 67, 111
1, 29288, Control_c, 0, 67, 110
1, 29303, Control_c, 0, 67, 109
1, 29318, Control_c, 0, 67, 108
1, 29324, Note_on_c, 0, 56, 64
1, 29333, Control_c, 0, 67, 104
1, 29333, Note_off_c, 0, 50, 38
1, 29348, Control_c, 0, 67, 98
1, 29363, Control_c, 0, 67, 89
1, 29370, Note_off_c, 0, 52, 38
1, 29377, Control_c, 0, 67, 81
1, 29387, Note_off_c, 0, 55, 62
1, 29392, Control_c, 0, 67, 74
1, 29407, Control_c, 0, 67, 65
1, 29416, Note_off_c, 0, 56, 65
1, 29422, Control_c, 0, 67, 58
1, 29422, Note_on_c, 0, 63, 60
1, 29437, Control_c, 0, 67, 51
1, 29451, Control_c, 0, 67, 45
1, 29460, Note_off_c, 0, 63, 66
1, 29466, Control_c, 0, 67, 40
1, 29472, Note_on_c, 0, 55, 62
1, 29481, Control_c, 0, 67, 33
1, 29495, Control_c, 0, 67, 24
1, 29510, Control_c, 0, 67, 15
1, 29525, Control_c, 0, 67, 0
1, 29547, Note_on_c, 0, 56, 68
1, 29563, Note_off_c, 0, 55, 63
1, 29610, Note_on_c, 0, 63, 70
1, 29619, Note_off_c, 0, 56, 63
1, 29664, Note_off_c, 0, 63, 65
1, 29670, Note_on_c, 0, 62, 56
1, 29682, Note_on_c, 0, 67, 67
1, 29689, Note_on_c, 0, 64, 38
1, 29726, Note_on_c, 0, 68, 66
1, 29729, Note_off_c, 0, 62, 54
1, 29742, Note_off_c, 0, 64, 43
1, 29766, Note_off_c, 0, 67, 61
1, 29777, Note_on_c, 0, 75, 74
1, 29785, Note_off_c, 0, 68, 60
1, 29804, Note_on_c, 0, 67, 70
1, 29816, Note_off_c, 0, 75, 61
1, 29863, Note_on_c, 0, 68, 71
1, 29881, Note_off_c, 0, 67, 60
1, 29905, Note_on_c, 0, 75, 76
1, 29917, Note_off_c, 0, 68, 62
1, 29936, Note_off_c, 0, 75, 59
1, 29945, Note_on_c, 0, 74, 38
1, 29947, Note_on_c, 0, 79, 74
1, 29955, Note_on_c, 0, 76, 37
1, 29968, Note_on_c, 0, 80, 81
1, 29975, Note_off_c, 0, 74, 61
1, 29983, Note_off_c, 0, 76, 59
1, 30010, Note_off_c, 0, 79, 63
1, 30022, Note_off_c, 0, 80, 64
1, 30025, Note_on_c, 0, 87, 77
1, 30047, Note_off_c, 0, 87, 70
1, 30055, Note_on_c, 0, 79, 84
1, 30093, Note_on_c, 0, 80, 76
1, 30118, Note_off_c, 0, 79, 63
1, 30128, Note_on_c, 0, 87, 86
1, 30151, Note_off_c, 0, 87, 66
1, 30153, Note_off_c, 0, 80, 61
1, 30157, Note_on_c, 0, 86, 62
1, 30159, Note_on_c, 0, 88, 61
1, 30174, Note_on_c, 0, 91, 85
1, 30210, Note_off_c, 0, 86, 61
1, 30214, Note_on_c, 0, 92, 76
1, 30214, Note_off_c, 0, 88, 65
1, 30233, Note_on_c, 0, 99, 94
1, 30237, Note_off_c, 0, 92, 69
1, 30242, Note_off_c, 0, 91, 63
1, 30259, Control_c, 0, 64, 66
1, 30259, Control_c, 0, 67, 13
1, 30273, Control_c, 0, 64, 46
1, 30273, Control_c, 0, 67, 24
1, 30288, Control_c, 0, 64, 0
1, 30288, Control_c, 0, 67, 45
1, 30303, Control_c, 0, 67, 89
1, 30317, Control_c, 0, 67, 127
1, 30326, Note_off_c, 0, 99, 60
1, 30373, Note_on_c, 0, 87, 59
1, 30373, Note_on_c, 0, 91, 66
1, 30377, Control_c, 0, 64, 29
1, 30380, Note_on_c, 0, 80, 59
1, 30391, Control_c, 0, 64, 52
1, 30406, Control_c, 0, 64, 69
1, 30429, Control_c, 0, 64, 127
1, 30451, Note_off_c, 0, 91, 41
1, 30466, Note_off_c, 0, 87, 54
1, 30466, Note_off_c, 0, 80, 51
1, 30495, Note_on_c, 0, 100, 63
1, 30496, Note_on_c, 0, 98, 52
1, 30521, Note_on_c, 0, 86, 9
1, 30528, Note_on_c, 0, 92, 11
1, 30529, Note_off_c, 0, 98, 63
1, 30529, Note_off_c, 0, 100, 60
1, 30537, Poly_aftertouch_c, 0, 88, 127
1, 30567, Note_on_c, 0, 91, 59
1, 30567, Note_off_c, 0, 86, 52
1, 30583, Note_off_c, 0, 92, 33
1, 30593, Note_on_c, 0, 87, 38
1, 30609, Note_off_c, 0, 91, 44
1, 30620, Poly_aftertouch_c, 0, 88, 0
1, 30621, Note_on_c, 0, 98, 45
1, 30624, Note_off_c, 0, 87, 53
1, 30636, Note_on_c, 0, 100, 34
1, 30650, Note_off_c, 0, 98, 57
1, 30657, Poly_aftertouch_c, 0, 88, 127
1, 30658, Poly_aftertouch_c, 0, 86, 127
1, 30670, Note_off_c, 0, 100, 51
1, 30684, Note_on_c, 0, 91, 62
1, 30698, Note_on_c, 0, 87, 50
1, 30703, Poly_aftertouch_c, 0, 86, 0
1, 30709, Poly_aftertouch_c, 0, 80, 127
1, 30717, Note_off_c, 0, 91, 47
1, 30720, Note_off_c, 0, 87, 61
1, 30721, Note_on_c, 0, 98, 55
1, 30722, Note_on_c, 0, 86, 37
1, 30730, Note_on_c, 0, 88, 27
1, 30752, Note_off_c, 0, 98, 54
1, 30757, Note_on_c, 0, 100, 35
1, 30769, Note_off_c, 0, 88, 52
1, 30770, Note_off_c, 0, 86, 46
1, 30781, Note_on_c, 0, 87, 69
1, 30782, Poly_aftertouch_c, 0, 80, 0
1, 30791, Note_off_c, 0, 100, 55
1, 30794, Note_on_c, 0, 91, 61
1, 30798, Note_on_c, 0, 80, 34
1, 30820, Note_off_c, 0, 87, 59
1, 30821, Note_off_c, 0, 91, 49
1, 30831, Note_on_c, 0, 98, 55
1, 30831, Note_off_c, 0, 80, 53
1, 30847, Note_on_c, 0, 86, 45
1, 30847, Note_on_c, 0, 88, 41
1, 30859, Note_off_c, 0, 98, 56
1, 30874, Note_off_c, 0, 86, 54
1, 30876, Note_off_c, 0, 88, 56
1, 30900, Poly_aftertouch_c, 0, 92, 0
1, 30904, Note_on_c, 0, 91, 47
1, 30916, Note_on_c, 0, 87, 45
1, 30929, Note_on_c, 0, 98, 65
1, 30934, Note_off_c, 0, 91, 51
1, 30942, Note_off_c, 0, 87, 55
1, 30943, Note_on_c, 0, 86, 58
1, 30944, Note_on_c, 0, 92, 41
1, 30948, Note_on_c, 0, 88, 52
1, 30955, Note_on_c, 0, 100, 20
1, 30958, Note_off_c, 0, 98, 65
1, 30967, Note_off_c, 0, 86, 57
1, 30972, Note_off_c, 0, 88, 61
1, 30972, Note_off_c, 0, 92, 56
1, 30997, Note_off_c, 0, 100, 44
1, 31000, Note_on_c, 0, 87, 73
1, 31005, Note_on_c, 0, 91, 59
1, 31035, Note_on_c, 0, 86, 62
1, 31035, Note_off_c, 0, 87, 60
1, 31035, Note_off_c, 0, 91, 48
1, 31037, Note_on_c, 0, 88, 59
1, 31039, Poly_aftertouch_c, 0, 80, 127
1, 31042, Note_on_c, 0, 100, 47
1, 31044, Note_on_c, 0, 92, 55
1, 31047, Note_on_c, 0, 98, 44
1, 31059, Note_off_c, 0, 88, 61
1, 31062, Note_off_c, 0, 86, 53
1, 31065, Note_off_c, 0, 92, 61
1, 31073, Note_off_c, 0, 100, 56
1, 31074, Note_off_c, 0, 98, 57
1, 31090, Poly_aftertouch_c, 0, 80, 0
1, 31101, Note_on_c, 0, 87, 63
1, 31113, Note_on_c, 0, 91, 55
1, 31128, Poly_aftertouch_c, 0, 80, 127
1, 31132, Note_on_c, 0, 92, 62
1, 31133, Note_on_c, 0, 86, 65
1, 31133, Note_on_c, 0, 88, 59
1, 31136, Note_on_c, 0, 98, 65
1, 31136, Note_off_c, 0, 91, 54
1, 31138, Note_off_c, 0, 87, 63
1, 31142, Note_on_c, 0, 100, 54
1, 31156, Note_off_c, 0, 92, 62
1, 31157, Note_off_c, 0, 86, 55
1, 31157, Note_off_c, 0, 98, 66
1, 31158, Note_off_c, 0, 88, 57
1, 31172, Note_off_c, 0, 100, 59
1, 31202, Poly_aftertouch_c, 0, 80, 0
1, 31202, Note_on_c, 0, 87, 66
1, 31208, Note_on_c, 0, 91, 69
1, 31228, Note_on_c, 0, 80, 8
1, 31238, Note_off_c, 0, 91, 53
1, 31240, Note_on_c, 0, 86, 60
1, 31240, Note_on_c, 0, 88, 59
1, 31241, Note_on_c, 0, 98, 61
1, 31242, Note_on_c, 0, 100, 56
1, 31249, Note_on_c, 0, 92, 52
1, 31252, Note_off_c, 0, 87, 65
1, 31260, Note_off_c, 0, 86, 60
1, 31261, Note_off_c, 0, 88, 61
1, 31262, Note_off_c, 0, 100, 61
1, 31265, Note_off_c, 0, 98, 63
1, 31274, Note_off_c, 0, 92, 58
1, 31288, Poly_aftertouch_c, 0, 87, 0
1, 31297, Note_on_c, 0, 87, 61
1, 31300, Note_off_c, 0, 80, 0
1, 31310, Note_on_c, 0, 91, 67
1, 31325, Note_on_c, 0, 80, 15
1, 31330, Note_on_c, 0, 88, 66
1, 31330, Note_off_c, 0, 91, 59
1, 31333, Note_on_c, 0, 100, 62
1, 31334, Note_on_c, 0, 86, 62
1, 31334, Note_on_c, 0, 98, 67
1, 31337, Note_on_c, 0, 92, 64
1, 31347, Note_off_c, 0, 87, 64
1, 31354, Note_off_c, 0, 100, 60
1, 31357, Note_off_c, 0, 92, 68
1, 31359, Note_off_c, 0, 98, 68
1, 31361, Note_off_c, 0, 86, 54
1, 31362, Note_off_c, 0, 88, 60
1, 31380, Note_off_c, 0, 80, 0
1, 31389, Note_on_c, 0, 87, 58
1, 31394, Note_on_c, 0, 91, 74
1, 31399, Note_on_c, 0, 80, 40
1, 31429, Note_off_c, 0, 91, 55
1, 31429, Note_on_c, 0, 88, 70
1, 31429, Control_c, 0, 67, 117
1, 31431, Note_on_c, 0, 100, 59
1, 31436, Note_on_c, 0, 86, 57
1, 31439, Note_off_c, 0, 87, 65
1, 31441, Note_off_c, 0, 80, 47
1, 31444, Control_c, 0, 67, 104
1, 31449, Note_on_c, 0, 98, 45
1, 31449, Note_off_c, 0, 88, 61
1, 31451, Note_off_c, 0, 100, 63
1, 31452, Note_on_c, 0, 92, 30
1, 31457, Note_off_c, 0, 86, 62
1, 31459, Control_c, 0, 67, 89
1, 31473, Control_c, 0, 67, 71
1, 31476, Note_off_c, 0, 98, 57
1, 31482, Note_on_c, 0, 87, 61
1, 31485, Note_on_c, 0, 91, 61
1, 31488, Note_off_c, 0, 92, 42
1, 31488, Control_c, 0, 67, 54
1, 31496, Note_on_c, 0, 80, 48
1, 31503, Control_c, 0, 67, 38
1, 31518, Control_c, 0, 67, 25
1, 31521, Note_on_c, 0, 88, 64
1, 31523, Note_on_c, 0, 86, 69
1, 31523, Note_on_c, 0, 100, 67
1, 31523, Note_off_c, 0, 91, 60
1, 31523, Note_off_c, 0, 80, 57
1, 31533, Control_c, 0, 67, 17
1, 31534, Note_off_c, 0, 87, 65
1, 31540, Note_off_c, 0, 86, 65
1, 31542, Note_off_c, 0, 88, 63
1, 31545, Note_off_c, 0, 100, 61
1, 31548, Control_c, 0, 67, 11
1, 31557, Note_on_c, 0, 98, 29
1, 31563, Control_c, 0, 67, 0
1, 31580, Note_on_c, 0, 87, 62
1, 31582, Note_on_c, 0, 91, 73
1, 31595, Note_on_c, 0, 80, 57
1, 31613, Note_on_c, 0, 88, 72
1, 31614, Note_on_c, 0, 100, 72
1, 31614, Note_off_c, 0, 80, 63
1, 31619, Note_on_c, 0, 86, 65
1, 31623, Note_off_c, 0, 91, 55
1, 31628, Note_off_c, 0, 87, 65
1, 31631, Note_off_c, 0, 100, 69
1, 31633, Note_off_c, 0, 88, 63
1, 31634, Note_on_c, 0, 92, 34
1, 31637, Note_off_c, 0, 86, 63
1, 31668, Note_on_c, 0, 91, 69
1, 31670, Note_off_c, 0, 92, 53
1, 31673, Note_on_c, 0, 87, 63
1, 31681, Note_off_c, 0, 98, 19
1, 31684, Note_on_c, 0, 80, 67
1, 31703, Note_off_c, 0, 80, 67
1, 31706, Note_on_c, 0, 88, 74
1, 31708, Note_on_c, 0, 100, 73
1, 31711, Note_on_c, 0, 86, 69
1, 31713, Note_on_c, 0, 98, 55
1, 31715, Note_off_c, 0, 91, 60
1, 31717, Note_off_c, 0, 87, 64
1, 31721, Note_on_c, 0, 92, 65
1, 31727, Note_off_c, 0, 86, 68
1, 31728, Note_off_c, 0, 88, 66
1, 31730, Note_off_c, 0, 100, 70
1, 31738, Note_off_c, 0, 98, 66
1, 31740, Note_off_c, 0, 92, 65
1, 31758, Note_on_c, 0, 91, 75
1, 31762, Note_on_c, 0, 87, 73
1, 31772, Note_on_c, 0, 80, 68
1, 31789, Note_off_c, 0, 80, 67
1, 31799, Note_on_c, 0, 88, 82
1, 31801, Note_on_c, 0, 100, 77
1, 31802, Note_on_c, 0, 86, 79
1, 31805, Note_off_c, 0, 87, 65
1, 31806, Note_off_c, 0, 91, 59
1, 31810, Note_on_c, 0, 92, 62
1, 31811, Note_on_c, 0, 98, 67
1, 31821, Note_off_c, 0, 100, 71
1, 31822, Note_off_c, 0, 86, 71
1, 31822, Note_off_c, 0, 88, 66
1, 31828, Note_off_c, 0, 98, 67
1, 31830, Note_off_c, 0, 92, 65
1, 31852, Note_on_c, 0, 91, 75
1, 31855, Note_on_c, 0, 87, 81
1, 31860, Note_on_c, 0, 80, 72
1, 31878, Note_off_c, 0, 80, 68
1, 31890, Note_on_c, 0, 88, 93
1, 31891, Note_on_c, 0, 100, 87
1, 31894, Note_on_c, 0, 86, 82
1, 31897, Note_on_c, 0, 98, 69
1, 31897, Note_off_c, 0, 87, 65
1, 31898, Note_off_c, 0, 91, 60
1, 31904, Note_on_c, 0, 92, 57
1, 31909, Note_off_c, 0, 100, 71
1, 31922, Note_off_c, 0, 86, 69
1, 31923, Note_off_c, 0, 98, 69
1, 31927, Note_off_c, 0, 88, 62
1, 31932, Note_off_c, 0, 92, 63
1, 31945, Note_on_c, 0, 91, 82
1, 31950, Note_on_c, 0, 87, 83
1, 31956, Note_on_c, 0, 80, 70
1, 31979, Note_off_c, 0, 80, 66
1, 31989, Note_on_c, 0, 100, 82
1, 31992, Note_on_c, 0, 88, 76
1, 31992, Note_off_c, 0, 87, 66
1, 31995, Note_on_c, 0, 92, 73
1, 31995, Note_on_c, 0, 98, 65
1, 31995, Note_off_c, 0, 91, 62
1, 31998, Note_on_c, 0, 86, 64
1, 32007, Note_off_c, 0, 100, 74
1, 32009, Note_off_c, 0, 88, 67
1, 32011, Note_off_c, 0, 92, 69
1, 32013, Note_off_c, 0, 98, 68
1, 32017, Note_off_c, 0, 86, 64
1, 32032, Note_on_c, 0, 91, 84
1, 32039, Note_on_c, 0, 87, 83
1, 32046, Note_on_c, 0, 80, 69
1, 32066, Note_off_c, 0, 80, 67
1, 32074, Note_on_c, 0, 88, 84
1, 32076, Note_on_c, 0, 100, 84
1, 32077, Note_on_c, 0, 86, 84
1, 32079, Note_off_c, 0, 87, 66
1, 32081, Note_off_c, 0, 91, 62
1, 32084, Note_on_c, 0, 92, 65
1, 32085, Note_on_c, 0, 98, 66
1, 32095, Note_off_c, 0, 86, 68
1, 32100, Note_off_c, 0, 100, 60
1, 32102, Note_off_c, 0, 92, 67
1, 32102, Note_off_c, 0, 88, 64
1, 32103, Note_off_c, 0, 98, 69
1, 32119, Note_on_c, 0, 91, 85
1, 32126, Note_on_c, 0, 87, 88
1, 32132, Note_on_c, 0, 80, 81
1, 32153, Note_off_c, 0, 80, 71
1, 32165, Note_off_c, 0, 91, 62
1, 32166, Note_off_c, 0, 87, 66
1, 32167, Note_on_c, 0, 88, 86
1, 32168, Note_on_c, 0, 100, 86
1, 32171, Note_on_c, 0, 92, 76
1, 32171, Note_on_c, 0, 86, 76
1, 32174, Note_on_c, 0, 98, 64
1, 32186, Note_off_c, 0, 86, 70
1, 32186, Note_off_c, 0, 88, 66
1, 32186, Note_off_c, 0, 100, 73
1, 32190, Note_off_c, 0, 92, 69
1, 32193, Note_off_c, 0, 98, 68
1, 32211, Note_on_c, 0, 91, 89
1, 32216, Note_on_c, 0, 87, 91
1, 32222, Note_on_c, 0, 80, 81
1, 32239, Note_off_c, 0, 80, 73
1, 32251, Note_on_c, 0, 88, 81
1, 32251, Note_off_c, 0, 87, 67
1, 32253, Note_on_c, 0, 86, 91
1, 32254, Note_off_c, 0, 91, 64
1, 32256, Note_on_c, 0, 92, 85
1, 32256, Note_on_c, 0, 100, 93
1, 32258, Note_on_c, 0, 98, 83
1, 32274, Note_on_c, 0, 89, 58
1, 32274, Note_off_c, 0, 92, 74
1, 32275, Note_off_c, 0, 86, 63
1, 32278, Note_off_c, 0, 98, 71
1, 32285, Note_off_c, 0, 88, 66
1, 32285, Note_off_c, 0, 100, 64
1, 32296, Note_off_c, 0, 89, 63
1, 32304, Note_on_c, 0, 91, 95
1, 32306, Note_on_c, 0, 87, 100
1, 32318, Note_on_c, 0, 80, 72
1, 32333, Note_off_c, 0, 80, 70
1, 32342, Note_off_c, 0, 87, 65
1, 32342, Note_off_c, 0, 91, 63
1, 32347, Note_on_c, 0, 100, 82
1, 32349, Note_on_c, 0, 88, 80
1, 32353, Note_on_c, 0, 92, 75
1, 32354, Note_on_c, 0, 98, 81
1, 32356, Note_on_c, 0, 86, 70
1, 32364, Note_off_c, 0, 88, 70
1, 32367, Note_off_c, 0, 100, 73
1, 32368, Note_off_c, 0, 92, 72
1, 32371, Note_off_c, 0, 86, 67
1, 32374, Note_off_c, 0, 98, 73
1, 32394, Note_on_c, 0, 91, 95
1, 32395, Note_on_c, 0, 87, 94
1, 32401, Note_on_c, 0, 80, 80
1, 32421, Note_off_c, 0, 80, 71
1, 32430, Note_off_c, 0, 87, 67
1, 32431, Note_off_c, 0, 91, 60
1, 32434, Note_on_c, 0, 88, 84
1, 32437, Note_on_c, 0, 100, 99
1, 32439, Note_on_c, 0, 86, 89
1, 32442, Note_on_c, 0, 92, 81
1, 32445, Note_on_c, 0, 98, 87
1, 32454, Note_off_c, 0, 86, 72
1, 32461, Note_off_c, 0, 88, 66
1, 32462, Note_off_c, 0, 98, 74
1, 32463, Note_off_c, 0, 92, 73
1, 32466, Note_off_c, 0, 100, 62
1, 32485, Note_on_c, 0, 87, 95
1, 32485, Note_on_c, 0, 91, 94
1, 32496, Note_on_c, 0, 80, 74
1, 32510, Note_off_c, 0, 80, 72
1, 32519, Note_off_c, 0, 87, 68
1, 32524, Note_on_c, 0, 88, 103
1, 32524, Note_on_c, 0, 100, 97
1, 32524, Note_off_c, 0, 91, 61
1, 32530, Note_on_c, 0, 86, 88
1, 32530, Note_on_c, 0, 92, 86
1, 32531, Note_on_c, 0, 98, 90
1, 32547, Note_off_c, 0, 86, 73
1, 32547, Note_off_c, 0, 92, 75
1, 32550, Note_off_c, 0, 98, 69
1, 32551, Note_off_c, 0, 88, 63
1, 32555, Note_off_c, 0, 100, 69
1, 32576, Note_on_c, 0, 87, 98
1, 32577, Note_on_c, 0, 91, 94
1, 32583, Note_on_c, 0, 80, 76
1, 32603, Note_off_c, 0, 80, 67
1, 32610, Note_off_c, 0, 87, 67
1, 32614, Note_on_c, 0, 100, 103
1, 32617, Note_off_c, 0, 91, 63
1, 32618, Note_on_c, 0, 88, 99
1, 32620, Note_on_c, 0, 86, 95
1, 32620, Note_on_c, 0, 98, 97
1, 32621, Note_on_c, 0, 92, 90
1, 32636, Note_off_c, 0, 86, 75
1, 32636, Note_off_c, 0, 92, 76
1, 32637, Note_off_c, 0, 88, 68
1, 32647, Note_off_c, 0, 100, 70
1, 32648, Note_off_c, 0, 98, 64
1, 32679, Note_on_c, 0, 87, 102
1, 32681, Note_on_c, 0, 91, 102
1, 32685, Note_on_c, 0, 80, 77
1, 32699, Note_off_c, 0, 80, 71
1, 32710, Note_off_c, 0, 87, 69
1, 32712, Note_on_c, 0, 88, 110
1, 32712, Note_on_c, 0, 100, 103
1, 32714, Note_off_c, 0, 91, 61
1, 32715, Note_on_c, 0, 86, 102
1, 32719, Note_on_c, 0, 92, 90
1, 32719, Note_on_c, 0, 98, 89
1, 32734, Note_off_c, 0, 92, 75
1, 32740, Note_on_c, 0, 97, 41
1, 32740, Note_off_c, 0, 88, 67
1, 32743, Note_off_c, 0, 86, 60
1, 32743, Note_off_c, 0, 100, 71
1, 32750, Note_off_c, 0, 97, 41
1, 32750, Note_off_c, 0, 98, 65
1, 32767, Note_on_c, 0, 87, 108
1, 32770, Note_on_c, 0, 91, 101
1, 32774, Note_on_c, 0, 80, 77
1, 32793, Note_off_c, 0, 80, 68
1, 32806, Note_off_c, 0, 87, 68
1, 32806, Note_off_c, 0, 91, 64
1, 32806, Note_on_c, 0, 98, 88
1, 32809, Note_on_c, 0, 86, 101
1, 32809, Note_on_c, 0, 88, 96
1, 32809, Note_on_c, 0, 100, 108
1, 32822, Note_on_c, 0, 92, 70
1, 32833, Note_off_c, 0, 86, 63
1, 32835, Note_off_c, 0, 88, 64
1, 32837, Note_off_c, 0, 92, 69
1, 32837, Note_off_c, 0, 100, 74
1, 32840, Note_off_c, 0, 98, 68
1, 32848, Note_on_c, 0, 97, 8
1, 32849, Note_off_c, 0, 97, 127
1, 32859, Note_on_c, 0, 87, 102
1, 32863, Note_on_c, 0, 91, 108
1, 32868, Note_on_c, 0, 80, 82
1, 32883, Note_off_c, 0, 80, 68
1, 32901, Note_off_c, 0, 87, 66
1, 32901, Note_off_c, 0, 91, 62
1, 32906, Note_on_c, 0, 88, 92
1, 32907, Note_on_c, 0, 98, 93
1, 32907, Note_on_c, 0, 100, 99
1, 32910, Note_on_c, 0, 86, 89
1, 32910, Note_on_c, 0, 92, 77
1, 32922, Note_off_c, 0, 86, 70
1, 32923, Note_off_c, 0, 92, 72
1, 32926, Note_off_c, 0, 88, 69
1, 32938, Note_off_c, 0, 98, 62
1, 32944, Note_off_c, 0, 100, 63
1, 32951, Note_on_c, 0, 87, 105
1, 32953, Note_on_c, 0, 91, 97
1, 32961, Note_on_c, 0, 80, 80
1, 32973, Note_off_c, 0, 80, 72
1, 32992, Note_off_c, 0, 87, 67
1, 32994, Note_on_c, 0, 88, 107
1, 32994, Note_off_c, 0, 91, 61
1, 32995, Note_on_c, 0, 86, 59
1, 32996, Note_on_c, 0, 92, 94
1, 32996, Note_on_c, 0, 98, 90
1, 32999, Note_on_c, 0, 100, 85
1, 33014, Note_off_c, 0, 92, 73
1, 33024, Note_off_c, 0, 100, 65
1, 33026, Note_off_c, 0, 86, 62
1, 33026, Note_off_c, 0, 88, 60
1, 33028, Note_off_c, 0, 98, 68
1, 33044, Note_on_c, 0, 87, 101
1, 33045, Note_on_c, 0, 91, 95
1, 33053, Note_on_c, 0, 80, 74
1, 33068, Note_off_c, 0, 80, 68
1, 33085, Note_on_c, 0, 100, 99
1, 33085, Note_off_c, 0, 87, 68
1, 33087, Note_on_c, 0, 88, 97
1, 33087, Note_on_c, 0, 98, 89
1, 33088, Note_off_c, 0, 91, 62
1, 33089, Note_on_c, 0, 86, 96
1, 33092, Note_on_c, 0, 92, 85
1, 33107, Note_off_c, 0, 86, 65
1, 33109, Note_off_c, 0, 92, 70
1, 33113, Note_off_c, 0, 88, 66
1, 33119, Note_off_c, 0, 100, 69
1, 33121, Note_off_c, 0, 98, 68
1, 33132, Note_on_c, 0, 91, 86
1, 33135, Note_on_c, 0, 87, 94
1, 33145, Note_on_c, 0, 80, 71
1, 33163, Note_off_c, 0, 80, 69
1, 33175, Note_on_c, 0, 100, 94
1, 33176, Note_off_c, 0, 91, 64
1, 33177, Note_off_c, 0, 87, 66
1, 33178, Note_on_c, 0, 88, 94
1, 33182, Note_on_c, 0, 86, 85
1, 33182, Note_on_c, 0, 98, 83
1, 33183, Note_on_c, 0, 92, 61
1, 33198, Note_off_c, 0, 86, 73
1, 33201, Note_off_c, 0, 88, 66
1, 33202, Note_off_c, 0, 92, 64
1, 33203, Note_off_c, 0, 98, 67
1, 33208, Note_off_c, 0, 100, 68
1, 33223, Note_on_c, 0, 91, 94
1, 33223, Note_on_c, 0, 87, 99
1, 33232, Note_on_c, 0, 80, 83
1, 33253, Note_off_c, 0, 80, 70
1, 33267, Note_off_c, 0, 87, 67
1, 33268, Note_on_c, 0, 100, 89
1, 33268, Note_off_c, 0, 91, 61
1, 33275, Note_on_c, 0, 88, 81
1, 33280, Note_on_c, 0, 86, 74
1, 33280, Note_on_c, 0, 92, 68
1, 33282, Note_on_c, 0, 98, 77
1, 33293, Note_off_c, 0, 88, 61
1, 33294, Note_off_c, 0, 86, 69
1, 33298, Note_off_c, 0, 98, 71
1, 33298, Note_off_c, 0, 100, 49
1, 33303, Note_off_c, 0, 92, 69
1, 33323, Note_on_c, 0, 91, 91
1, 33324, Note_on_c, 0, 87, 92
1, 33348, Note_on_c, 0, 80, 48
1, 33361, Note_off_c, 0, 87, 66
1, 33367, Note_off_c, 0, 91, 59
1, 33369, Note_on_c, 0, 88, 78
1, 33371, Note_off_c, 0, 80, 61
1, 33373, Note_on_c, 0, 86, 75
1, 33375, Note_on_c, 0, 92, 75
1, 33377, Note_on_c, 0, 98, 65
1, 33379, Note_on_c, 0, 100, 79
1, 33395, Note_off_c, 0, 100, 66
1, 33396, Note_off_c, 0, 92, 72
1, 33399, Note_off_c, 0, 86, 62
1, 33402, Note_off_c, 0, 98, 68
1, 33405, Note_off_c, 0, 88, 61
1, 33430, Note_on_c, 0, 91, 86
1, 33431, Note_on_c, 0, 87, 87
1, 33447, Note_on_c, 0, 80, 60
1, 33465, Note_off_c, 0, 80, 64
1, 33468, Note_off_c, 0, 87, 66
1, 33478, Note_off_c, 0, 91, 60
1, 33479, Note_on_c, 0, 100, 71
1, 33484, Note_on_c, 0, 88, 74
1, 33484, Note_on_c, 0, 98, 73
1, 33494, Note_on_c, 0, 86, 57
1, 33505, Note_on_c, 0, 92, 46
1, 33511, Note_off_c, 0, 88, 55
1, 33511, Note_off_c, 0, 98, 65
1, 33512, Note_off_c, 0, 100, 60
1, 33517, Note_off_c, 0, 86, 60
1, 33533, Note_on_c, 0, 87, 84
1, 33533, Note_on_c, 0, 91, 75
1, 33534, Note_off_c, 0, 92, 56
1, 33549, Note_on_c, 0, 80, 47
1, 33574, Note_off_c, 0, 87, 65
1, 33578, Note_off_c, 0, 80, 57
1, 33587, Note_off_c, 0, 91, 58
1, 33590, Note_on_c, 0, 88, 67
1, 33596, Note_on_c, 0, 100, 68
1, 33598, Note_on_c, 0, 86, 57
1, 33602, Note_on_c, 0, 92, 56
1, 33608, Note_on_c, 0, 98, 56
1, 33614, Note_off_c, 0, 88, 55
1, 33623, Note_off_c, 0, 86, 57
1, 33623, Note_off_c, 0, 100, 57
1, 33626, Note_off_c, 0, 92, 60
1, 33628, Note_off_c, 0, 98, 63
1, 33639, Note_on_c, 0, 91, 67
1, 33645, Note_on_c, 0, 87, 63
1, 33662, Note_on_c, 0, 80, 39
1, 33676, Note_off_c, 0, 87, 66
1, 33694, Note_off_c, 0, 80, 55
1, 33695, Note_on_c, 0, 100, 74
1, 33697, Note_off_c, 0, 91, 59
1, 33700, Note_on_c, 0, 88, 60
1, 33701, Note_on_c, 0, 86, 57
1, 33702, Note_on_c, 0, 92, 58
1, 33702, Note_on_c, 0, 98, 59
1, 33728, Note_off_c, 0, 92, 63
1, 33733, Note_off_c, 0, 88, 55
1, 33733, Note_off_c, 0, 86, 50
1, 33733, Note_off_c, 0, 98, 66
1, 33736, Note_off_c, 0, 100, 63
1, 33755, Note_on_c, 0, 87, 67
1, 33755, Note_on_c, 0, 91, 59
1, 33790, Note_off_c, 0, 87, 63
1, 33808, Note_on_c, 0, 88, 60
1, 33811, Note_off_c, 0, 91, 56
1, 33813, Note_on_c, 0, 86, 57
1, 33819, Note_on_c, 0, 100, 52
1, 33827, Note_on_c, 0, 98, 43
1, 33834, Note_off_c, 0, 86, 58
1, 33836, Note_off_c, 0, 88, 53
1, 33837, Note_on_c, 0, 92, 20
1, 33846, Note_off_c, 0, 100, 57
1, 33857, Note_off_c, 0, 98, 52
1, 33865, Note_on_c, 0, 87, 62
1, 33870, Note_on_c, 0, 91, 47
1, 33882, Note_off_c, 0, 92, 41
1, 33905, Note_off_c, 0, 87, 60
1, 33917, Note_on_c, 0, 100, 64
1, 33924, Note_on_c, 0, 88, 55
1, 33925, Note_on_c, 0, 98, 56
1, 33936, Note_on_c, 0, 86, 35
1, 33953, Note_on_c, 0, 92, 29
1, 33953, Note_off_c, 0, 98, 57
1, 33956, Note_off_c, 0, 88, 51
1, 33956, Note_off_c, 0, 100, 54
1, 33965, Note_off_c, 0, 91, 0
1, 33972, Note_off_c, 0, 86, 53
1, 33977, Note_on_c, 0, 91, 53
1, 33983, Note_on_c, 0, 87, 63
1, 33992, Note_off_c, 0, 92, 47
1, 34019, Note_off_c, 0, 87, 61
1, 34043, Note_off_c, 0, 91, 50
1, 34046, Note_on_c, 0, 100, 56
1, 34048, Note_on_c, 0, 86, 53
1, 34049, Note_on_c, 0, 88, 47
1, 34065, Note_on_c, 0, 98, 22
1, 34074, Note_off_c, 0, 100, 52
1, 34079, Note_off_c, 0, 86, 51
1, 34081, Note_off_c, 0, 88, 53
1, 34102, Note_off_c, 0, 98, 45
1, 34106, Note_on_c, 0, 91, 49
1, 34114, Note_on_c, 0, 87, 55
1, 34150, Control_c, 0, 67, 9
1, 34152, Note_off_c, 0, 87, 59
1, 34171, Note_on_c, 0, 100, 49
1, 34172, Control_c, 0, 67, 10
1, 34174, Note_on_c, 0, 88, 48
1, 34177, Note_on_c, 0, 86, 49
1, 34187, Control_c, 0, 67, 12
1, 34202, Control_c, 0, 67, 13
1, 34205, Note_off_c, 0, 86, 55
1, 34206, Note_off_c, 0, 91, 0
1, 34207, Note_on_c, 0, 98, 30
1, 34207, Note_off_c, 0, 88, 52
1, 34216, Note_off_c, 0, 100, 44
1, 34217, Control_c, 0, 67, 13
1, 34228, Note_on_c, 0, 91, 30
1, 34232, Control_c, 0, 67, 15
1, 34246, Control_c, 0, 67, 16
1, 34247, Note_off_c, 0, 98, 46
1, 34249, Note_on_c, 0, 87, 55
1, 34261, Control_c, 0, 67, 18
1, 34276, Control_c, 0, 67, 20
1, 34284, Note_off_c, 0, 87, 56
1, 34290, Control_c, 0, 67, 23
1, 34305, Note_on_c, 0, 88, 43
1, 34305, Control_c, 0, 67, 27
1, 34318, Note_on_c, 0, 86, 32
1, 34320, Control_c, 0, 67, 33
1, 34331, Note_on_c, 0, 100, 12
1, 34335, Control_c, 0, 67, 43
1, 34346, Note_off_c, 0, 88, 52
1, 34350, Control_c, 0, 67, 52
1, 34355, Note_off_c, 0, 86, 52
1, 34357, Note_off_c, 0, 91, 0
1, 34357, Note_on_c, 0, 91, 25
1, 34365, Control_c, 0, 67, 64
1, 34377, Note_on_c, 0, 87, 53
1, 34380, Control_c, 0, 67, 74
1, 34384, Note_off_c, 0, 100, 39
1, 34395, Control_c, 0, 67, 86
1, 34409, Control_c, 0, 67, 98
1, 34424, Control_c, 0, 67, 112
1, 34435, Note_off_c, 0, 87, 53
1, 34437, Note_on_c, 0, 86, 47
1, 34439, Control_c, 0, 67, 127
1, 34440, Note_on_c, 0, 88, 37
1, 34463, Poly_aftertouch_c, 0, 80, 0
1, 34472, Note_off_c, 0, 86, 48
1, 34474, Note_off_c, 0, 88, 54
1, 34476, Poly_aftertouch_c, 0, 100, 127
1, 34477, Note_off_c, 0, 91, 40
1, 34494, Poly_aftertouch_c, 0, 98, 127
1, 34526, Poly_aftertouch_c, 0, 98, 0
1, 34548, Note_on_c, 0, 91, 44
1, 34564, Note_on_c, 0, 87, 27
1, 34592, Poly_aftertouch_c, 0, 100, 0
1, 34642, Poly_aftertouch_c, 0, 80, 0
1, 34684, Note_off_c, 0, 91, 0
1, 34687, Note_off_c, 0, 87, 0
1, 34722, Poly_aftertouch_c, 0, 91, 127
1, 34724, Poly_aftertouch_c, 0, 87, 127
1, 34812, Poly_aftertouch_c, 0, 91, 0
1, 34907, Poly_aftertouch_c, 0, 87, 0
1, 35012, Control_c, 0, 64, 113
1, 35027, Control_c, 0, 64, 105
1, 35041, Control_c, 0, 64, 99
1, 35056, Control_c, 0, 64, 95
1, 35071, Control_c, 0, 64, 90
1, 35086, Control_c, 0, 64, 86
1, 35101, Control_c, 0, 64, 83
1, 35115, Control_c, 0, 64, 80
1, 35130, Control_c, 0, 64, 78
1, 35145, Control_c, 0, 64, 76
1, 35160, Control_c, 0, 64, 74
1, 35175, Control_c, 0, 64, 73
1, 35189, Control_c, 0, 64, 71
1, 35204, Control_c, 0, 64, 70
1, 35219, Control_c, 0, 64, 69
1, 35234, Control_c, 0, 64, 68
1, 35248, Control_c, 0, 64, 67
1, 35263, Control_c, 0, 64, 66
1, 35278, Control_c, 0, 64, 65
1, 35293, Control_c, 0, 64, 65
1, 35308, Control_c, 0, 64, 64
1, 35322, Control_c, 0, 64, 64
1, 35337, Control_c, 0, 64, 63
1, 35352, Control_c, 0, 64, 63
1, 35367, Control_c, 0, 64, 62
1, 35382, Control_c, 0, 64, 62
1, 35396, Control_c, 0, 64, 61
1, 35411, Control_c, 0, 64, 61
1, 35426, Control_c, 0, 64, 60
1, 35441, Control_c, 0, 64, 60
1, 35456, Control_c, 0, 64, 59
1, 35471, Control_c, 0, 64, 58
1, 35486, Control_c, 0, 64, 56
1, 35500, Control_c, 0, 64, 55
1, 35515, Control_c, 0, 64, 54
1, 35530, Control_c, 0, 64, 52
1, 35545, Control_c, 0, 64, 51
1, 35560, Control_c, 0, 64, 50
1, 35575, Control_c, 0, 64, 49
1, 35589, Control_c, 0, 64, 48
1, 35619, Control_c, 0, 64, 48
1, 35650, Control_c, 0, 64, 47
1, 35671, Control_c, 0, 64, 46
1, 35686, Control_c, 0, 64, 45
1, 35849, Control_c, 0, 64, 45
1, 35878, Control_c, 0, 64, 44
1, 35893, Control_c, 0, 64, 44
1, 35908, Control_c, 0, 64, 43
1, 35923, Control_c, 0, 64, 43
1, 35937, Control_c, 0, 64, 42
1, 35952, Control_c, 0, 64, 41
1, 35967, Control_c, 0, 64, 40
1, 35982, Control_c, 0, 64, 38
1, 35997, Control_c, 0, 64, 35
1, 36011, Control_c, 0, 64, 32
1, 36026, Control_c, 0, 64, 27
1, 36026, Control_c, 0, 67, 121
1, 36041, Control_c, 0, 64, 21
1, 36041, Control_c, 0, 67, 98
1, 36056, Control_c, 0, 64, 11
1, 36056, Control_c, 0, 67, 71
1, 36070, Control_c, 0, 64, 0
1, 36070, Control_c, 0, 67, 51
1, 36085, Control_c, 0, 67, 36
1, 36100, Control_c, 0, 67, 25
1, 36115, Control_c, 0, 67, 17
1, 36130, Control_c, 0, 67, 9
1, 36144, Control_c, 0, 67, 0
1, 36388, Note_on_c, 0, 75, 80
1, 36416, Note_on_c, 0, 63, 53
1, 36422, Note_on_c, 0, 70, 51
1, 36429, Note_on_c, 0, 39, 45
1, 36449, Control_c, 0, 64, 28
1, 36464, Control_c, 0, 64, 49
1, 36479, Control_c, 0, 64, 69
1, 36493, Control_c, 0, 64, 127
1, 36535, Note_off_c, 0, 39, 59
1, 36541, Note_off_c, 0, 63, 63
1, 36542, Note_on_c, 0, 46, 56
1, 36544, Note_off_c, 0, 70, 0
1, 36544, Note_on_c, 0, 70, 11
1, 36600, Note_off_c, 0, 75, 55
1, 36614, Note_on_c, 0, 51, 64
1, 36629, Note_off_c, 0, 46, 62
1, 36674, Note_off_c, 0, 51, 63
1, 36690, Note_on_c, 0, 76, 95
1, 36695, Note_on_c, 0, 55, 63
1, 36698, Note_on_c, 0, 64, 82
1, 36723, Note_off_c, 0, 64, 67
1, 36729, Note_off_c, 0, 70, 50
1, 36744, Note_off_c, 0, 55, 59
1, 36761, Note_off_c, 0, 76, 68
1, 36785, Note_on_c, 0, 58, 75
1, 36859, Note_on_c, 0, 63, 78
1, 36869, Note_off_c, 0, 58, 63
1, 36905, Note_off_c, 0, 63, 69
1, 36913, Note_on_c, 0, 87, 110
1, 36915, Note_on_c, 0, 75, 106
1, 36920, Note_on_c, 0, 67, 77
1, 36926, Note_on_c, 0, 82, 86
1, 36959, Note_off_c, 0, 75, 54
1, 36971, Note_off_c, 0, 67, 61
1, 37001, Note_on_c, 0, 70, 78
1, 37060, Note_on_c, 0, 75, 87
1, 37076, Note_off_c, 0, 70, 62
1, 37095, Note_off_c, 0, 87, 61
1, 37120, Note_on_c, 0, 79, 90
1, 37135, Note_off_c, 0, 75, 65
1, 37147, Note_on_c, 0, 70, 56
1, 37155, Poly_aftertouch_c, 0, 72, 127
1, 37173, Note_off_c, 0, 82, 52
1, 37182, Note_off_c, 0, 70, 54
1, 37213, Note_off_c, 0, 79, 61
1, 37220, Note_on_c, 0, 75, 74
1, 37260, Poly_aftertouch_c, 0, 72, 0
1, 37274, Note_off_c, 0, 75, 60
1, 37289, Note_on_c, 0, 70, 67
1, 37326, Note_off_c, 0, 70, 62
1, 37379, Note_on_c, 0, 67, 60
1, 37405, Note_off_c, 0, 67, 53
1, 37493, Note_on_c, 0, 63, 42
1, 37511, Note_on_c, 0, 85, 93
1, 37519, Note_on_c, 0, 73, 81
1, 37520, Note_off_c, 0, 63, 60
1, 37540, Note_off_c, 0, 73, 71
1, 37543, Note_off_c, 0, 85, 66
1, 37596, Note_on_c, 0, 83, 100
1, 37604, Note_on_c, 0, 71, 88
1, 37616, Note_on_c, 0, 55, 77
1, 37642, Note_off_c, 0, 71, 64
1, 37648, Note_off_c, 0, 83, 65
1, 37650, Note_off_c, 0, 55, 64
1, 37681, Note_on_c, 0, 51, 70
1, 37748, Note_on_c, 0, 46, 70
1, 37751, Note_on_c, 0, 78, 29
1, 37757, Note_off_c, 0, 51, 64
1, 37817, Note_off_c, 0, 78, 0
1, 37828, Note_off_c, 0, 46, 62
1, 37854, Poly_aftertouch_c, 0, 78, 127
1, 37855, Note_on_c, 0, 39, 79
1, 37867, Note_on_c, 0, 82, 102
1, 37873, Note_on_c, 0, 70, 90
1, 37882, Note_on_c, 0, 75, 79
1, 37894, Control_c, 0, 64, 82
1, 37916, Control_c, 0, 64, 51
1, 37931, Control_c, 0, 64, 0
1, 37933, Poly_aftertouch_c, 0, 78, 0
1, 37963, Note_on_c, 0, 42, 17
1, 37976, Note_on_c, 0, 47, 66
1, 37990, Control_c, 0, 64, 46
1, 37997, Note_off_c, 0, 39, 63
1, 38005, Control_c, 0, 64, 69
1, 38008, Note_off_c, 0, 42, 37
1, 38020, Control_c, 0, 64, 127
1, 38026, Note_off_c, 0, 47, 63
1, 38047, Note_on_c, 0, 52, 77
1, 38083, Note_off_c, 0, 70, 58
1, 38116, Note_off_c, 0, 52, 55
1, 38168, Note_on_c, 0, 56, 53
1, 38187, Note_on_c, 0, 80, 87
1, 38194, Note_on_c, 0, 68, 72
1, 38202, Note_off_c, 0, 75, 57
1, 38225, Note_off_c, 0, 56, 63
1, 38228, Note_off_c, 0, 82, 61
1, 38234, Note_on_c, 0, 59, 60
1, 38262, Note_off_c, 0, 80, 61
1, 38271, Note_off_c, 0, 68, 58
1, 38299, Note_on_c, 0, 64, 68
1, 38307, Note_off_c, 0, 59, 59
1, 38364, Note_off_c, 0, 64, 61
1, 38388, Note_on_c, 0, 75, 85
1, 38390, Note_on_c, 0, 59, 11
1, 38398, Note_on_c, 0, 63, 77
1, 38407, Note_on_c, 0, 56, 73
1, 38424, Note_off_c, 0, 59, 43
1, 38439, Note_off_c, 0, 56, 67
1, 38439, Note_off_c, 0, 63, 59
1, 38457, Note_off_c, 0, 75, 58
1, 38490, Note_on_c, 0, 52, 76
1, 38516, Note_off_c, 0, 52, 68
1, 38591, Note_on_c, 0, 37, 79
1, 38595, Note_on_c, 0, 75, 89
1, 38605, Note_on_c, 0, 63, 76
1, 38613, Note_on_c, 0, 68, 67
1, 38613, Control_c, 0, 64, 68
1, 38628, Control_c, 0, 64, 41
1, 38643, Control_c, 0, 64, 0
1, 38692, Note_on_c, 0, 44, 67
1, 38696, Control_c, 0, 64, 31
1, 38711, Control_c, 0, 64, 63
1, 38711, Control_c, 0, 67, 8
1, 38720, Note_off_c, 0, 63, 64
1, 38726, Control_c, 0, 64, 127
1, 38727, Note_off_c, 0, 75, 58
1, 38740, Control_c, 0, 67, 0
1, 38742, Note_off_c, 0, 37, 59
1, 38760, Note_on_c, 0, 48, 76
1, 38783, Note_off_c, 0, 44, 61
1, 38799, Note_off_c, 0, 48, 64
1, 38805, Note_on_c, 0, 52, 77
1, 38826, Note_on_c, 0, 76, 98
1, 38827, Note_on_c, 0, 64, 86
1, 38848, Note_off_c, 0, 68, 62
1, 38854, Note_off_c, 0, 52, 66
1, 38855, Note_off_c, 0, 64, 63
1, 38878, Note_off_c, 0, 76, 71
1, 38904, Note_on_c, 0, 56, 81
1, 38967, Note_on_c, 0, 61, 77
1, 38979, Note_off_c, 0, 56, 64
1, 39011, Note_off_c, 0, 61, 66
1, 39023, Note_on_c, 0, 70, 98
1, 39023, Note_on_c, 0, 82, 102
1, 39028, Note_on_c, 0, 75, 96
1, 39033, Note_on_c, 0, 65, 71
1, 39054, Note_off_c, 0, 70, 66
1, 39060, Note_off_c, 0, 82, 69
1, 39063, Note_off_c, 0, 65, 67
1, 39093, Note_on_c, 0, 68, 87
1, 39096, Note_off_c, 0, 75, 58
1, 39147, Note_on_c, 0, 73, 87
1, 39158, Note_off_c, 0, 68, 61
1, 39185, Note_off_c, 0, 73, 63
1, 39201, Note_on_c, 0, 77, 85
1, 39258, Note_on_c, 0, 73, 76
1, 39259, Note_off_c, 0, 77, 64
1, 39296, Note_off_c, 0, 73, 57
1, 39331, Note_on_c, 0, 68, 49
1, 39352, Note_off_c, 0, 68, 40
1, 39379, Note_on_c, 0, 64, 42
1, 39417, Note_off_c, 0, 64, 56
1, 39428, Note_on_c, 0, 60, 63
1, 39460, Note_off_c, 0, 60, 64
1, 39483, Note_on_c, 0, 56, 74
1, 39511, Note_off_c, 0, 56, 67
1, 39534, Control_c, 0, 67, 11
1, 39549, Control_c, 0, 67, 20
1, 39558, Note_on_c, 0, 53, 59
1, 39563, Control_c, 0, 67, 33
1, 39578, Control_c, 0, 67, 58
1, 39579, Note_off_c, 0, 53, 63
1, 39593, Control_c, 0, 67, 80
1, 39608, Control_c, 0, 67, 100
1, 39616, Note_on_c, 0, 48, 68
1, 39622, Control_c, 0, 67, 119
1, 39638, Control_c, 0, 67, 127
1, 39649, Poly_aftertouch_c, 0, 52, 127
1, 39674, Poly_aftertouch_c, 0, 52, 0
1, 39680, Note_off_c, 0, 48, 58
1, 39703, Note_on_c, 0, 43, 62
1, 39703, Note_on_c, 0, 44, 32
1, 39734, Note_off_c, 0, 43, 57
1, 39739, Note_off_c, 0, 44, 51
1, 39740, Note_on_c, 0, 37, 80
1, 39816, Control_c, 0, 64, 77
1, 39826, Note_on_c, 0, 44, 70
1, 39830, Control_c, 0, 64, 63
1, 39841, Note_off_c, 0, 37, 62
1, 39845, Control_c, 0, 64, 49
1, 39860, Control_c, 0, 64, 27
1, 39875, Control_c, 0, 64, 0
1, 39910, Note_on_c, 0, 58, 77
1, 39916, Note_on_c, 0, 51, 70
1, 39927, Note_on_c, 0, 49, 64
1, 39929, Note_off_c, 0, 44, 59
1, 40001, Note_off_c, 0, 49, 64
1, 40021, Note_on_c, 0, 53, 54
1, 40103, Note_on_c, 0, 49, 53
1, 40105, Note_off_c, 0, 53, 51
1, 40177, Note_on_c, 0, 44, 60
1, 40189, Note_off_c, 0, 49, 60
1, 40234, Note_off_c, 0, 44, 59
1, 40238, Note_on_c, 0, 37, 68
1, 40308, Note_off_c, 0, 37, 60
1, 40327, Note_on_c, 0, 44, 55
1, 40385, Note_off_c, 0, 44, 54
1, 40408, Note_on_c, 0, 49, 57
1, 40451, Note_off_c, 0, 49, 67
1, 40478, Note_on_c, 0, 53, 57
1, 40535, Note_off_c, 0, 53, 55
1, 40557, Note_on_c, 0, 49, 53
1, 40615, Note_off_c, 0, 49, 58
1, 40621, Note_on_c, 0, 44, 58
1, 40666, Note_off_c, 0, 44, 62
1, 40696, Note_on_c, 0, 37, 64
1, 40742, Note_off_c, 0, 37, 63
1, 40794, Note_on_c, 0, 44, 37
1, 40830, Note_off_c, 0, 44, 50
1, 40841, Note_on_c, 0, 49, 55
1, 40879, Note_off_c, 0, 49, 65
1, 40923, Note_on_c, 0, 53, 50
1, 40965, Note_off_c, 0, 53, 53
1, 40982, Note_on_c, 0, 49, 60
1, 41046, Note_off_c, 0, 49, 56
1, 41058, Note_on_c, 0, 44, 59
1, 41101, Note_off_c, 0, 44, 63
1, 41126, Note_on_c, 0, 37, 68
1, 41174, Note_off_c, 0, 37, 62
1, 41209, Note_on_c, 0, 44, 53
1, 41253, Note_off_c, 0, 44, 61
1, 41270, Note_on_c, 0, 49, 55
1, 41309, Note_off_c, 0, 49, 66
1, 41332, Note_on_c, 0, 53, 54
1, 41370, Note_off_c, 0, 53, 59
1, 41400, Note_on_c, 0, 49, 60
1, 41445, Note_off_c, 0, 49, 62
1, 41462, Note_on_c, 0, 44, 62
1, 41513, Note_off_c, 0, 44, 61
1, 41537, Note_on_c, 0, 37, 62
1, 41588, Note_off_c, 0, 37, 60
1, 41611, Note_on_c, 0, 44, 57
1, 41648, Note_off_c, 0, 44, 63
1, 41672, Note_off_c, 0, 51, 61
1, 41687, Note_on_c, 0, 53, 67
1, 41689, Note_off_c, 0, 58, 59
1, 41690, Note_on_c, 0, 49, 54
1, 41701, Note_on_c, 0, 47, 50
1, 41746, Note_off_c, 0, 49, 60
1, 41748, Note_on_c, 0, 44, 54
1, 41795, Note_off_c, 0, 44, 61
1, 41830, Note_on_c, 0, 37, 48
1, 41865, Note_off_c, 0, 37, 58
1, 41880, Note_on_c, 0, 44, 61
1, 41920, Note_off_c, 0, 44, 64
1, 41948, Note_on_c, 0, 49, 65
1, 42000, Note_off_c, 0, 49, 61
1, 42013, Note_on_c, 0, 44, 58
1, 42055, Note_off_c, 0, 44, 62
1, 42087, Note_on_c, 0, 37, 45
1, 42121, Note_off_c, 0, 37, 58
1, 42148, Note_on_c, 0, 44, 54
1, 42183, Note_off_c, 0, 44, 63
1, 42212, Note_on_c, 0, 49, 56
1, 42264, Note_off_c, 0, 49, 59
1, 42277, Note_on_c, 0, 44, 52
1, 42318, Note_off_c, 0, 44, 63
1, 42342, Note_on_c, 0, 37, 55
1, 42391, Note_off_c, 0, 37, 61
1, 42420, Note_on_c, 0, 44, 54
1, 42452, Note_off_c, 0, 44, 62
1, 42486, Note_on_c, 0, 49, 49
1, 42526, Note_off_c, 0, 49, 66
1, 42546, Note_on_c, 0, 44, 48
1, 42583, Note_off_c, 0, 44, 57
1, 42613, Note_on_c, 0, 37, 50
1, 42655, Note_off_c, 0, 37, 56
1, 42675, Note_on_c, 0, 44, 53
1, 42710, Note_off_c, 0, 44, 64
1, 42748, Note_on_c, 0, 49, 54
1, 42787, Note_off_c, 0, 49, 66
1, 42807, Note_on_c, 0, 44, 55
1, 42848, Note_off_c, 0, 44, 64
1, 42870, Control_c, 0, 64, 11
1, 42877, Note_on_c, 0, 37, 50
1, 42885, Control_c, 0, 64, 19
1, 42895, Note_off_c, 0, 53, 63
1, 42900, Control_c, 0, 64, 26
1, 42913, Note_off_c, 0, 37, 53
1, 42915, Control_c, 0, 64, 32
1, 42929, Control_c, 0, 64, 36
1, 42935, Note_on_c, 0, 44, 60
1, 42944, Control_c, 0, 64, 40
1, 42952, Note_off_c, 0, 47, 64
1, 42959, Control_c, 0, 64, 43
1, 42969, Note_off_c, 0, 44, 64
1, 42974, Control_c, 0, 64, 44
1, 43010, Note_on_c, 0, 49, 40
1, 43033, Control_c, 0, 64, 45
1, 43044, Note_off_c, 0, 49, 54
1, 43051, Note_on_c, 0, 44, 62
1, 43063, Control_c, 0, 64, 45
1, 43078, Control_c, 0, 64, 46
1, 43093, Control_c, 0, 64, 47
1, 43097, Note_off_c, 0, 44, 55
1, 43108, Control_c, 0, 64, 48
1, 43137, Control_c, 0, 64, 47
1, 43138, Note_on_c, 0, 37, 66
1, 43159, Control_c, 0, 64, 45
1, 43174, Control_c, 0, 64, 39
1, 43177, Note_off_c, 0, 37, 65
1, 43189, Control_c, 0, 64, 28
1, 43204, Control_c, 0, 64, 0
1, 43212, Note_on_c, 0, 44, 53
1, 43254, Note_off_c, 0, 44, 63
1, 43272, Note_on_c, 0, 37, 56
1, 43316, Note_off_c, 0, 37, 64
1, 43353, Note_on_c, 0, 44, 50
1, 43389, Note_off_c, 0, 44, 61
1, 43410, Note_on_c, 0, 37, 56
1, 43446, Note_off_c, 0, 37, 64
1, 43477, Note_on_c, 0, 44, 51
1, 43515, Note_off_c, 0, 44, 63
1, 43534, Note_on_c, 0, 37, 59
1, 43571, Note_off_c, 0, 37, 63
1, 43605, Note_on_c, 0, 44, 50
1, 43640, Note_off_c, 0, 44, 58
1, 43659, Note_on_c, 0, 37, 53
1, 43695, Note_off_c, 0, 37, 64
1, 43734, Note_on_c, 0, 44, 44
1, 43770, Note_off_c, 0, 44, 56
1, 43790, Note_on_c, 0, 37, 48
1, 43820, Note_off_c, 0, 37, 62
1, 43861, Note_on_c, 0, 44, 52
1, 43907, Note_off_c, 0, 44, 61
1, 43921, Note_on_c, 0, 37, 52
1, 43956, Note_off_c, 0, 37, 64
1, 43999, Note_on_c, 0, 44, 49
1, 44032, Note_off_c, 0, 44, 57
1, 44054, Note_on_c, 0, 37, 47
1, 44080, Note_off_c, 0, 37, 59
1, 44121, Note_on_c, 0, 44, 48
1, 44154, Note_off_c, 0, 44, 60
1, 44164, Note_on_c, 0, 37, 56
1, 44205, Note_off_c, 0, 37, 64
1, 44243, Note_on_c, 0, 44, 48
1, 44279, Note_off_c, 0, 44, 60
1, 44303, Note_on_c, 0, 37, 50
1, 44336, Note_off_c, 0, 37, 63
1, 44374, Note_on_c, 0, 44, 47
1, 44405, Note_off_c, 0, 44, 57
1, 44434, Note_on_c, 0, 37, 46
1, 44461, Note_off_c, 0, 37, 58
1, 44493, Note_on_c, 0, 44, 49
1, 44530, Note_off_c, 0, 44, 60
1, 44551, Note_on_c, 0, 37, 47
1, 44586, Note_off_c, 0, 37, 64
1, 44628, Note_on_c, 0, 44, 39
1, 44667, Note_off_c, 0, 44, 53
1, 44690, Note_on_c, 0, 37, 53
1, 44720, Note_off_c, 0, 37, 63
1, 44742, Note_on_c, 0, 44, 56
1, 44791, Note_off_c, 0, 44, 58
1, 44810, Note_on_c, 0, 37, 54
1, 44848, Note_off_c, 0, 37, 62
1, 44944, Note_on_c, 0, 37, 49
1, 44973, Note_off_c, 0, 37, 61
1, 45039, Note_on_c, 0, 44, 10
1, 45069, Note_on_c, 0, 37, 50
1, 45085, Note_off_c, 0, 44, 35
1, 45102, Note_off_c, 0, 37, 63
1, 45156, Note_on_c, 0, 44, 27
1, 45191, Note_off_c, 0, 44, 49
1, 45209, Note_on_c, 0, 37, 41
1, 45239, Note_off_c, 0, 37, 57
1, 45274, Note_on_c, 0, 44, 53
1, 45311, Note_off_c, 0, 44, 61
1, 45326, Note_on_c, 0, 37, 53
1, 45366, Note_off_c, 0, 37, 64
1, 45469, Note_on_c, 0, 43, 68
1, 45473, Note_on_c, 0, 35, 67
1, 45477, Note_on_c, 0, 47, 44
1, 45479, Note_on_c, 0, 41, 64
1, 45495, Note_off_c, 0, 43, 65
1, 45505, Note_off_c, 0, 35, 64
1, 45507, Note_off_c, 0, 41, 67
1, 45526, Note_off_c, 0, 47, 60
1, 45528, Note_on_c, 0, 53, 55
1, 45585, Note_off_c, 0, 53, 63
1, 45608, Note_on_c, 0, 55, 48
1, 45656, Note_off_c, 0, 55, 61
1, 45698, Note_on_c, 0, 53, 47
1, 45734, Note_off_c, 0, 53, 66
1, 45766, Note_on_c, 0, 55, 48
1, 45811, Note_off_c, 0, 55, 59
1, 45898, Note_on_c, 0, 47, 64
1, 45898, Note_on_c, 0, 63, 86
1, 45917, Note_off_c, 0, 63, 75
1, 45955, Note_off_c, 0, 47, 59
1, 45958, Note_on_c, 0, 63, 78
1, 45960, Note_on_c, 0, 53, 44
1, 45981, Note_off_c, 0, 63, 72
1, 45999, Note_off_c, 0, 53, 66
1, 46028, Note_on_c, 0, 55, 49
1, 46032, Note_on_c, 0, 63, 64
1, 46058, Note_off_c, 0, 63, 67
1, 46065, Note_off_c, 0, 55, 64
1, 46085, Note_on_c, 0, 61, 75
1, 46098, Note_on_c, 0, 53, 46
1, 46119, Note_off_c, 0, 61, 63
1, 46124, Note_off_c, 0, 53, 59
1, 46157, Note_on_c, 0, 63, 72
1, 46169, Note_on_c, 0, 55, 53
1, 46184, Note_off_c, 0, 63, 69
1, 46207, Note_off_c, 0, 55, 50
1, 46218, Note_on_c, 0, 53, 53
1, 46262, Note_off_c, 0, 53, 63
1, 46294, Note_on_c, 0, 47, 63
1, 46349, Note_off_c, 0, 47, 59
1, 46367, Note_on_c, 0, 53, 50
1, 46400, Note_off_c, 0, 53, 66
1, 46431, Note_on_c, 0, 55, 45
1, 46466, Note_off_c, 0, 55, 58
1, 46499, Note_on_c, 0, 53, 51
1, 46532, Note_off_c, 0, 53, 66
1, 46569, Note_on_c, 0, 55, 49
1, 46606, Note_off_c, 0, 55, 59
1, 46641, Note_on_c, 0, 53, 38
1, 46681, Note_off_c, 0, 53, 51
1, 46701, Control_c, 0, 64, 14
1, 46709, Note_on_c, 0, 47, 48
1, 46716, Control_c, 0, 64, 37
1, 46731, Control_c, 0, 64, 55
1, 46745, Control_c, 0, 64, 68
1, 46758, Note_off_c, 0, 47, 57
1, 46760, Control_c, 0, 64, 91
1, 46775, Control_c, 0, 64, 110
1, 46788, Note_on_c, 0, 53, 43
1, 46790, Control_c, 0, 64, 111
1, 46840, Note_on_c, 0, 55, 58
1, 46842, Note_off_c, 0, 53, 60
1, 46882, Note_off_c, 0, 55, 62
1, 46908, Note_on_c, 0, 67, 64
1, 46918, Note_on_c, 0, 65, 60
1, 46932, Control_c, 0, 64, 114
1, 46947, Control_c, 0, 64, 117
1, 46956, Note_off_c, 0, 65, 63
1, 46959, Note_off_c, 0, 67, 58
1, 46962, Control_c, 0, 64, 127
1, 47003, Note_on_c, 0, 55, 49
1, 47019, Note_on_c, 0, 53, 50
1, 47057, Note_off_c, 0, 55, 61
1, 47077, Note_off_c, 0, 53, 54
1, 47099, Note_on_c, 0, 47, 73
1, 47109, Note_on_c, 0, 61, 73
1, 47124, Note_off_c, 0, 47, 67
1, 47124, Control_c, 0, 64, 78
1, 47138, Note_off_c, 0, 61, 63
1, 47139, Control_c, 0, 64, 60
1, 47154, Control_c, 0, 64, 37
1, 47168, Control_c, 0, 64, 0
1, 47177, Note_on_c, 0, 53, 72
1, 47180, Note_on_c, 0, 55, 43
1, 47223, Note_off_c, 0, 53, 63
1, 47223, Note_off_c, 0, 55, 62
1, 47249, Note_on_c, 0, 67, 71
1, 47250, Note_off_c, 0, 67, 127
1, 47250, Note_on_c, 0, 63, 72
1, 47250, Note_on_c, 0, 65, 61
1, 47271, Note_off_c, 0, 65, 67
1, 47291, Note_off_c, 0, 63, 58
1, 47318, Note_on_c, 0, 53, 66
1, 47329, Note_on_c, 0, 55, 49
1, 47350, Note_off_c, 0, 53, 63
1, 47353, Note_off_c, 0, 55, 60
1, 47382, Note_on_c, 0, 58, 73
1, 47420, Note_off_c, 0, 58, 59
1, 47445, Note_on_c, 0, 53, 60
1, 47468, Note_on_c, 0, 55, 34
1, 47500, Note_off_c, 0, 53, 52
1, 47502, Note_off_c, 0, 55, 46
1, 47516, Note_on_c, 0, 47, 78
1, 47526, Note_on_c, 0, 56, 60
1, 47541, Note_off_c, 0, 47, 66
1, 47562, Note_off_c, 0, 56, 62
1, 47601, Note_on_c, 0, 50, 57
1, 47603, Note_on_c, 0, 52, 52
1, 47649, Note_off_c, 0, 50, 64
1, 47652, Note_off_c, 0, 52, 66
1, 47675, Note_on_c, 0, 61, 68
1, 47677, Note_on_c, 0, 62, 59
1, 47677, Note_on_c, 0, 64, 58
1, 47678, Note_off_c, 0, 64, 127
1, 47696, Note_off_c, 0, 62, 64
1, 47729, Note_off_c, 0, 61, 60
1, 47747, Note_on_c, 0, 52, 50
1, 47748, Note_on_c, 0, 50, 56
1, 47785, Note_off_c, 0, 50, 57
1, 47788, Note_off_c, 0, 52, 63
1, 47818, Note_on_c, 0, 56, 52
1, 47859, Note_off_c, 0, 56, 67
1, 47892, Note_on_c, 0, 50, 45
1, 47896, Note_on_c, 0, 52, 37
1, 47936, Note_off_c, 0, 50, 48
1, 47939, Note_off_c, 0, 52, 49
1, 47947, Control_c, 0, 64, 31
1, 47962, Control_c, 0, 64, 43
1, 47964, Note_on_c, 0, 51, 60
1, 47964, Note_on_c, 0, 35, 60
1, 47976, Control_c, 0, 64, 56
1, 47991, Control_c, 0, 64, 62
1, 47993, Note_off_c, 0, 35, 65
1, 48006, Control_c, 0, 64, 63
1, 48023, Note_off_c, 0, 51, 54
1, 48036, Control_c, 0, 64, 62
1, 48044, Note_on_c, 0, 50, 47
1, 48047, Note_on_c, 0, 52, 47
1, 48050, Control_c, 0, 64, 60
1, 48065, Control_c, 0, 64, 56
1, 48079, Note_off_c, 0, 50, 54
1, 48080, Control_c, 0, 64, 52
1, 48083, Note_off_c, 0, 52, 54
1, 48094, Note_on_c, 0, 53, 57
1, 48095, Control_c, 0, 64, 46
1, 48110, Control_c, 0, 64, 39
1, 48125, Control_c, 0, 64, 34
1, 48140, Control_c, 0, 64, 28
1, 48154, Control_c, 0, 64, 23
1, 48163, Note_on_c, 0, 50, 47
1, 48166, Note_on_c, 0, 52, 48
1, 48169, Control_c, 0, 64, 19
1, 48171, Note_off_c, 0, 53, 55
1, 48184, Control_c, 0, 64, 14
1, 48199, Control_c, 0, 64, 0
1, 48207, Note_off_c, 0, 50, 56
1, 48208, Note_off_c, 0, 52, 59
1, 48229, Note_on_c, 0, 51, 56
1, 48268, Note_off_c, 0, 51, 65
1, 48303, Note_on_c, 0, 50, 44
1, 48306, Note_on_c, 0, 52, 44
1, 48339, Note_off_c, 0, 50, 55
1, 48351, Note_off_c, 0, 52, 64
1, 48378, Note_on_c, 0, 47, 64
1, 48450, Note_on_c, 0, 53, 44
1, 48455, Note_off_c, 0, 47, 58
1, 48493, Note_off_c, 0, 53, 65
1, 48520, Note_on_c, 0, 55, 52
1, 48558, Note_off_c, 0, 55, 56
1, 48586, Note_on_c, 0, 53, 50
1, 48624, Note_off_c, 0, 53, 66
1, 48664, Note_on_c, 0, 55, 48
1, 48702, Note_off_c, 0, 55, 51
1, 48736, Note_on_c, 0, 53, 32
1, 48769, Note_off_c, 0, 53, 48
1, 48786, Note_on_c, 0, 47, 62
1, 48793, Note_on_c, 0, 63, 77
1, 48816, Note_off_c, 0, 63, 71
1, 48846, Note_off_c, 0, 47, 58
1, 48853, Note_on_c, 0, 53, 57
1, 48857, Note_on_c, 0, 63, 80
1, 48876, Note_off_c, 0, 63, 74
1, 48888, Note_off_c, 0, 53, 65
1, 48921, Note_on_c, 0, 63, 83
1, 48922, Note_on_c, 0, 55, 39
1, 48944, Note_off_c, 0, 63, 71
1, 48956, Note_off_c, 0, 55, 55
1, 48982, Note_on_c, 0, 61, 75
1, 48984, Note_on_c, 0, 53, 48
1, 49012, Note_off_c, 0, 53, 61
1, 49017, Note_off_c, 0, 61, 67
1, 49048, Note_on_c, 0, 55, 56
1, 49056, Note_on_c, 0, 63, 68
1, 49082, Note_off_c, 0, 63, 69
1, 49089, Note_off_c, 0, 55, 58
1, 49100, Note_on_c, 0, 53, 54
1, 49154, Note_off_c, 0, 53, 62
1, 49189, Note_on_c, 0, 47, 56
1, 49246, Note_off_c, 0, 47, 60
1, 49254, Note_on_c, 0, 53, 59
1, 49294, Note_off_c, 0, 53, 66
1, 49321, Note_on_c, 0, 55, 58
1, 49366, Note_off_c, 0, 55, 63
1, 49392, Note_on_c, 0, 53, 48
1, 49429, Note_off_c, 0, 53, 65
1, 49479, Note_on_c, 0, 55, 37
1, 49511, Note_off_c, 0, 55, 53
1, 49526, Note_on_c, 0, 53, 50
1, 49567, Note_off_c, 0, 53, 62
1, 49600, Note_on_c, 0, 47, 55
1, 49609, Control_c, 0, 64, 28
1, 49623, Control_c, 0, 64, 47
1, 49638, Control_c, 0, 64, 62
1, 49653, Control_c, 0, 64, 82
1, 49660, Note_on_c, 0, 53, 62
1, 49661, Note_off_c, 0, 47, 56
1, 49668, Control_c, 0, 64, 127
1, 49704, Note_off_c, 0, 53, 61
1, 49740, Note_on_c, 0, 55, 61
1, 49774, Note_off_c, 0, 55, 66
1, 49798, Note_on_c, 0, 67, 66
1, 49810, Note_on_c, 0, 65, 60
1, 49842, Note_off_c, 0, 67, 54
1, 49845, Note_off_c, 0, 65, 65
1, 49872, Note_on_c, 0, 55, 58
1, 49937, Note_off_c, 0, 55, 58
1, 49940, Note_on_c, 0, 53, 45
1, 49982, Note_off_c, 0, 53, 63
1, 50000, Note_on_c, 0, 47, 72
1, 50003, Note_on_c, 0, 61, 79
1, 50017, Control_c, 0, 64, 88
1, 50028, Note_off_c, 0, 47, 67
1, 50032, Control_c, 0, 64, 66
1, 50044, Note_off_c, 0, 61, 59
1, 50046, Control_c, 0, 64, 52
1, 50061, Control_c, 0, 64, 15
1, 50071, Note_on_c, 0, 53, 67
1, 50074, Note_on_c, 0, 55, 61
1, 50076, Control_c, 0, 64, 0
1, 50117, Note_off_c, 0, 53, 64
1, 50118, Note_off_c, 0, 55, 63
1, 50143, Note_on_c, 0, 63, 83
1, 50159, Note_on_c, 0, 65, 51
1, 50160, Note_off_c, 0, 65, 127
1, 50205, Note_off_c, 0, 63, 63
1, 50223, Note_on_c, 0, 53, 61
1, 50230, Note_on_c, 0, 55, 43
1, 50250, Note_off_c, 0, 53, 57
1, 50256, Note_off_c, 0, 55, 58
1, 50280, Note_on_c, 0, 58, 74
1, 50330, Note_off_c, 0, 58, 57
1, 50345, Note_on_c, 0, 53, 59
1, 50355, Note_on_c, 0, 55, 29
1, 50386, Note_off_c, 0, 53, 65
1, 50386, Note_off_c, 0, 55, 58
1, 50417, Note_on_c, 0, 47, 72
1, 50423, Note_on_c, 0, 56, 66
1, 50444, Note_off_c, 0, 47, 66
1, 50459, Note_off_c, 0, 56, 62
1, 50503, Note_on_c, 0, 50, 57
1, 50508, Note_on_c, 0, 52, 47
1, 50544, Note_off_c, 0, 50, 65
1, 50547, Note_off_c, 0, 52, 65
1, 50558, Note_on_c, 0, 64, 70
1, 50559, Note_off_c, 0, 64, 127
1, 50564, Note_on_c, 0, 62, 59
1, 50577, Note_on_c, 0, 61, 59
1, 50586, Note_off_c, 0, 62, 63
1, 50614, Note_off_c, 0, 61, 63
1, 50652, Note_on_c, 0, 50, 57
1, 50658, Note_on_c, 0, 52, 48
1, 50686, Note_off_c, 0, 50, 58
1, 50688, Note_off_c, 0, 52, 61
1, 50712, Note_on_c, 0, 56, 66
1, 50745, Note_off_c, 0, 56, 64
1, 50786, Note_on_c, 0, 50, 45
1, 50793, Note_on_c, 0, 52, 27
1, 50830, Note_off_c, 0, 50, 51
1, 50835, Note_off_c, 0, 52, 50
1, 50854, Control_c, 0, 64, 8
1, 50867, Note_on_c, 0, 51, 56
1, 50868, Control_c, 0, 64, 11
1, 50881, Note_on_c, 0, 35, 55
1, 50883, Control_c, 0, 64, 13
1, 50898, Control_c, 0, 64, 15
1, 50913, Note_off_c, 0, 35, 64
1, 50913, Control_c, 0, 64, 18
1, 50924, Note_off_c, 0, 51, 57
1, 50928, Control_c, 0, 64, 21
1, 50932, Note_on_c, 0, 50, 56
1, 50937, Note_on_c, 0, 52, 48
1, 50942, Control_c, 0, 64, 24
1, 50957, Control_c, 0, 64, 28
1, 50972, Control_c, 0, 64, 31
1, 50977, Note_off_c, 0, 50, 63
1, 50982, Note_off_c, 0, 52, 63
1, 50986, Control_c, 0, 64, 34
1, 51005, Note_on_c, 0, 53, 54
1, 51016, Control_c, 0, 64, 32
1, 51031, Control_c, 0, 64, 24
1, 51046, Control_c, 0, 64, 16
1, 51058, Note_off_c, 0, 53, 61
1, 51061, Control_c, 0, 64, 9
1, 51074, Note_on_c, 0, 50, 48
1, 51076, Control_c, 0, 64, 0
1, 51082, Note_on_c, 0, 52, 44
1, 51110, Note_off_c, 0, 50, 53
1, 51112, Note_off_c, 0, 52, 56
1, 51134, Note_on_c, 0, 51, 54
1, 51171, Note_off_c, 0, 51, 66
1, 51204, Note_on_c, 0, 50, 48
1, 51217, Note_on_c, 0, 52, 41
1, 51231, Note_off_c, 0, 50, 60
1, 51246, Note_off_c, 0, 52, 54
1, 51294, Note_on_c, 0, 44, 53
1, 51342, Control_c, 0, 64, 11
1, 51357, Control_c, 0, 64, 31
1, 51365, Note_on_c, 0, 50, 36
1, 51372, Control_c, 0, 64, 42
1, 51386, Note_off_c, 0, 44, 50
1, 51394, Control_c, 0, 64, 55
1, 51409, Control_c, 0, 64, 70
1, 51424, Control_c, 0, 64, 93
1, 51439, Control_c, 0, 64, 114
1, 51454, Control_c, 0, 64, 127
1, 51460, Note_off_c, 0, 50, 57
1, 51463, Note_on_c, 0, 54, 55
1, 51518, Note_off_c, 0, 54, 59
1, 51538, Note_on_c, 0, 66, 65
1, 51547, Note_on_c, 0, 62, 49
1, 51575, Note_off_c, 0, 66, 62
1, 51580, Note_off_c, 0, 62, 65
1, 51582, Note_on_c, 0, 59, 40
1, 51635, Note_off_c, 0, 59, 53
1, 51699, Note_on_c, 0, 58, 33
1, 51756, Note_off_c, 0, 58, 42
1, 51802, Note_on_c, 0, 59, 41
1, 51840, Note_on_c, 0, 65, 54
1, 51842, Note_on_c, 0, 61, 59
1, 51857, Note_off_c, 0, 59, 42
1, 51878, Note_off_c, 0, 61, 66
1, 51885, Note_on_c, 0, 66, 74
1, 51893, Note_on_c, 0, 58, 43
1, 51901, Note_off_c, 0, 65, 60
1, 51906, Note_on_c, 0, 62, 67
1, 51926, Note_off_c, 0, 58, 61
1, 51928, Note_off_c, 0, 66, 64
1, 51934, Note_off_c, 0, 62, 68
1, 51968, Note_on_c, 0, 59, 43
1, 51993, Note_off_c, 0, 59, 56
1, 52024, Note_on_c, 0, 58, 56
1, 52062, Note_off_c, 0, 58, 63
1, 52086, Note_on_c, 0, 59, 53
1, 52143, Control_c, 0, 67, 113
1, 52146, Note_off_c, 0, 59, 56
1, 52158, Control_c, 0, 67, 87
1, 52173, Control_c, 0, 67, 58
1, 52182, Note_on_c, 0, 65, 64
1, 52188, Note_on_c, 0, 58, 36
1, 52188, Control_c, 0, 67, 30
1, 52190, Note_on_c, 0, 61, 63
1, 52203, Control_c, 0, 67, 18
1, 52214, Note_off_c, 0, 58, 57
1, 52217, Control_c, 0, 67, 14
1, 52226, Note_off_c, 0, 61, 66
1, 52232, Note_on_c, 0, 66, 82
1, 52232, Control_c, 0, 67, 11
1, 52244, Note_on_c, 0, 62, 70
1, 52247, Control_c, 0, 67, 0
1, 52251, Note_off_c, 0, 65, 64
1, 52253, Note_on_c, 0, 59, 53
1, 52271, Note_off_c, 0, 62, 68
1, 52273, Note_off_c, 0, 66, 66
1, 52285, Note_off_c, 0, 59, 58
1, 52302, Note_on_c, 0, 58, 51
1, 52345, Note_off_c, 0, 58, 62
1, 52363, Note_on_c, 0, 59, 62
1, 52417, Note_off_c, 0, 59, 59
1, 52441, Note_on_c, 0, 58, 55
1, 52464, Note_off_c, 0, 58, 63
1, 52508, Note_on_c, 0, 59, 57
1, 52510, Note_on_c, 0, 65, 73
1, 52514, Note_on_c, 0, 61, 74
1, 52553, Note_off_c, 0, 59, 57
1, 52563, Note_off_c, 0, 61, 65
1, 52563, Note_on_c, 0, 58, 59
1, 52563, Note_on_c, 0, 66, 85
1, 52575, Note_on_c, 0, 62, 72
1, 52578, Note_off_c, 0, 65, 66
1, 52603, Note_off_c, 0, 62, 66
1, 52623, Note_off_c, 0, 58, 61
1, 52645, Note_on_c, 0, 59, 64
1, 52665, Note_off_c, 0, 66, 0
1, 52700, Note_off_c, 0, 59, 61
1, 52702, Poly_aftertouch_c, 0, 66, 127
1, 52718, Note_on_c, 0, 58, 63
1, 52751, Poly_aftertouch_c, 0, 66, 0
1, 52760, Note_on_c, 0, 61, 70
1, 52784, Note_off_c, 0, 58, 62
1, 52801, Note_off_c, 0, 61, 66
1, 52806, Note_on_c, 0, 59, 72
1, 52816, Note_on_c, 0, 62, 79
1, 52865, Note_off_c, 0, 62, 54
1, 52871, Note_on_c, 0, 63, 85
1, 52899, Note_on_c, 0, 60, 73
1, 52901, Note_off_c, 0, 59, 61
1, 52930, Note_on_c, 0, 64, 79
1, 52946, Note_off_c, 0, 63, 67
1, 52974, Note_on_c, 0, 61, 84
1, 52977, Note_off_c, 0, 60, 65
1, 52977, Note_off_c, 0, 64, 65
1, 52981, Note_on_c, 0, 65, 89
1, 53026, Control_c, 0, 64, 79
1, 53028, Note_off_c, 0, 61, 65
1, 53034, Note_on_c, 0, 62, 94
1, 53040, Control_c, 0, 64, 53
1, 53043, Note_on_c, 0, 66, 99
1, 53046, Note_on_c, 0, 70, 80
1, 53055, Control_c, 0, 64, 0
1, 53058, Note_off_c, 0, 65, 67
1, 53068, Note_on_c, 0, 71, 64
1, 53083, Note_on_c, 0, 61, 81
1, 53088, Note_off_c, 0, 62, 65
1, 53093, Note_off_c, 0, 71, 67
1, 53100, Note_off_c, 0, 70, 40
1, 53104, Note_on_c, 0, 65, 77
1, 53113, Note_off_c, 0, 66, 63
1, 53140, Note_off_c, 0, 61, 67
1, 53144, Note_on_c, 0, 62, 83
1, 53169, Note_on_c, 0, 70, 81
1, 53175, Note_on_c, 0, 66, 75
1, 53182, Note_off_c, 0, 65, 63
1, 53198, Note_off_c, 0, 62, 60
1, 53213, Note_on_c, 0, 61, 81
1, 53222, Note_off_c, 0, 70, 62
1, 53230, Note_off_c, 0, 66, 52
1, 53240, Note_on_c, 0, 65, 72
1, 53260, Note_off_c, 0, 61, 63
1, 53283, Note_on_c, 0, 62, 81
1, 53302, Note_on_c, 0, 70, 84
1, 53302, Note_off_c, 0, 65, 59
1, 53305, Note_on_c, 0, 66, 77
1, 53339, Note_off_c, 0, 62, 62
1, 53341, Note_on_c, 0, 61, 73
1, 53349, Note_off_c, 0, 70, 63
1, 53353, Note_on_c, 0, 65, 72
1, 53356, Note_off_c, 0, 66, 63
1, 53390, Note_off_c, 0, 61, 61
1, 53402, Note_off_c, 0, 65, 61
1, 53407, Note_on_c, 0, 62, 74
1, 53428, Note_on_c, 0, 66, 78
1, 53434, Note_off_c, 0, 62, 69
1, 53437, Note_on_c, 0, 70, 80
1, 53459, Note_off_c, 0, 70, 68
1, 53474, Note_off_c, 0, 66, 60
1, 53498, Note_on_c, 0, 62, 75
1, 53501, Control_c, 0, 67, 10
1, 53516, Control_c, 0, 67, 18
1, 53517, Note_off_c, 0, 62, 69
1, 53531, Control_c, 0, 67, 31
1, 53545, Control_c, 0, 67, 55
1, 53547, Note_on_c, 0, 58, 48
1, 53560, Control_c, 0, 67, 90
1, 53574, Note_off_c, 0, 58, 57
1, 53575, Control_c, 0, 67, 127
1, 53621, Note_on_c, 0, 54, 60
1, 53671, Note_off_c, 0, 54, 64
1, 53705, Note_on_c, 0, 50, 41
1, 53736, Note_off_c, 0, 50, 65
1, 53770, Note_on_c, 0, 42, 35
1, 53806, Note_on_c, 0, 45, 38
1, 53866, Note_off_c, 0, 45, 63
1, 53887, Note_off_c, 0, 42, 25
1, 55027, Control_c, 0, 64, 24
1, 55042, Control_c, 0, 64, 43
1, 55057, Control_c, 0, 64, 57
1, 55072, Note_on_c, 0, 75, 65
1, 55072, Control_c, 0, 64, 69
1, 55073, Note_on_c, 0, 67, 60
1, 55076, Note_on_c, 0, 35, 53
1, 55087, Control_c, 0, 64, 91
1, 55101, Control_c, 0, 64, 117
1, 55105, Note_off_c, 0, 67, 64
1, 55106, Note_off_c, 0, 75, 61
1, 55116, Control_c, 0, 64, 127
1, 55142, Note_on_c, 0, 63, 63
1, 55144, Note_off_c, 0, 35, 57
1, 55173, Note_off_c, 0, 63, 68
1, 55222, Note_on_c, 0, 63, 68
1, 55223, Note_on_c, 0, 43, 49
1, 55231, Poly_aftertouch_c, 0, 41, 127
1, 55231, Note_on_c, 0, 41, 3
1, 55251, Note_off_c, 0, 63, 68
1, 55257, Note_off_c, 0, 43, 52
1, 55276, Note_off_c, 0, 41, 49
1, 55293, Note_on_c, 0, 61, 65
1, 55295, Note_on_c, 0, 47, 26
1, 55327, Note_off_c, 0, 61, 65
1, 55336, Note_off_c, 0, 47, 55
1, 55367, Note_on_c, 0, 75, 74
1, 55386, Note_on_c, 0, 53, 55
1, 55413, Note_off_c, 0, 53, 65
1, 55425, Note_on_c, 0, 55, 58
1, 55434, Note_off_c, 0, 75, 62
1, 55464, Note_off_c, 0, 55, 60
1, 55481, Note_on_c, 0, 59, 58
1, 55515, Note_off_c, 0, 59, 62
1, 55562, Note_on_c, 0, 65, 45
1, 55589, Note_on_c, 0, 67, 57
1, 55601, Note_off_c, 0, 65, 64
1, 55621, Note_off_c, 0, 67, 59
1, 55631, Note_on_c, 0, 71, 64
1, 55678, Note_off_c, 0, 71, 61
1, 55690, Note_on_c, 0, 67, 52
1, 55725, Note_off_c, 0, 67, 64
1, 55742, Note_on_c, 0, 65, 50
1, 55766, Note_on_c, 0, 59, 47
1, 55768, Note_off_c, 0, 65, 63
1, 55799, Note_off_c, 0, 59, 61
1, 55812, Note_on_c, 0, 55, 56
1, 55887, Note_off_c, 0, 55, 63
1, 55891, Note_on_c, 0, 53, 46
1, 55924, Note_on_c, 0, 47, 77
1, 55931, Note_off_c, 0, 53, 51
1, 55932, Control_c, 0, 64, 108
1, 55947, Control_c, 0, 64, 85
1, 55962, Control_c, 0, 64, 71
1, 55977, Control_c, 0, 64, 61
1, 55991, Control_c, 0, 64, 48
1, 55993, Note_off_c, 0, 47, 64
1, 56006, Control_c, 0, 64, 18
1, 56016, Note_on_c, 0, 53, 52
1, 56021, Control_c, 0, 64, 0
1, 56040, Note_off_c, 0, 53, 37
1, 56078, Note_on_c, 0, 55, 67
1, 56110, Note_off_c, 0, 55, 68
1, 56146, Note_on_c, 0, 67, 58
1, 56149, Note_on_c, 0, 65, 57
1, 56176, Note_off_c, 0, 67, 64
1, 56181, Note_off_c, 0, 65, 67
1, 56215, Note_on_c, 0, 55, 63
1, 56236, Note_off_c, 0, 55, 64
1, 56260, Note_on_c, 0, 53, 58
1, 56320, Note_off_c, 0, 53, 59
1, 56343, Note_on_c, 0, 73, 79
1, 56355, Note_on_c, 0, 47, 58
1, 56364, Note_off_c, 0, 73, 71
1, 56381, Note_off_c, 0, 47, 59
1, 56406, Note_on_c, 0, 61, 59
1, 56437, Note_off_c, 0, 61, 68
1, 56489, Note_on_c, 0, 75, 74
1, 56492, Note_on_c, 0, 65, 61
1, 56496, Note_on_c, 0, 67, 47
1, 56511, Note_off_c, 0, 65, 67
1, 56514, Note_off_c, 0, 75, 67
1, 56522, Note_off_c, 0, 67, 57
1, 56548, Note_on_c, 0, 63, 71
1, 56576, Note_off_c, 0, 63, 70
1, 56626, Note_on_c, 0, 70, 75
1, 56658, Note_off_c, 0, 70, 63
1, 56695, Note_on_c, 0, 58, 73
1, 56736, Note_off_c, 0, 58, 64
1, 56771, Note_on_c, 0, 68, 75
1, 56775, Note_on_c, 0, 47, 67
1, 56809, Note_off_c, 0, 47, 65
1, 56809, Note_off_c, 0, 68, 52
1, 56838, Note_on_c, 0, 56, 63
1, 56867, Note_off_c, 0, 56, 68
1, 56911, Note_on_c, 0, 64, 63
1, 56914, Note_on_c, 0, 62, 60
1, 56923, Note_on_c, 0, 73, 72
1, 56934, Note_off_c, 0, 64, 65
1, 56943, Note_off_c, 0, 62, 66
1, 56945, Note_off_c, 0, 73, 68
1, 56976, Note_on_c, 0, 61, 75
1, 57014, Note_off_c, 0, 61, 67
1, 57064, Note_on_c, 0, 68, 71
1, 57085, Note_off_c, 0, 68, 63
1, 57154, Note_on_c, 0, 54, 35
1, 57190, Note_off_c, 0, 54, 32
1, 57225, Note_on_c, 0, 44, 53
1, 57226, Note_on_c, 0, 35, 52
1, 57227, Note_on_c, 0, 51, 52
1, 57253, Note_off_c, 0, 35, 57
1, 57262, Note_off_c, 0, 44, 64
1, 57279, Note_off_c, 0, 51, 61
1, 57296, Note_on_c, 0, 50, 38
1, 57299, Note_on_c, 0, 52, 42
1, 57326, Note_off_c, 0, 50, 56
1, 57327, Note_off_c, 0, 52, 59
1, 57345, Note_on_c, 0, 53, 60
1, 57351, Note_on_c, 0, 49, 51
1, 57386, Note_off_c, 0, 49, 58
1, 57413, Note_on_c, 0, 50, 59
1, 57414, Note_off_c, 0, 53, 61
1, 57425, Note_on_c, 0, 52, 52
1, 57460, Note_off_c, 0, 50, 59
1, 57463, Note_off_c, 0, 52, 53
1, 57497, Note_on_c, 0, 44, 59
1, 57499, Note_on_c, 0, 51, 54
1, 57527, Note_off_c, 0, 44, 63
1, 57528, Note_off_c, 0, 51, 66
1, 57554, Note_on_c, 0, 52, 47
1, 57565, Note_on_c, 0, 50, 46
1, 57582, Note_off_c, 0, 52, 59
1, 57595, Note_off_c, 0, 50, 54
1, 57629, Note_on_c, 0, 47, 62
1, 57633, Note_on_c, 0, 56, 66
1, 57664, Note_off_c, 0, 47, 66
1, 57668, Note_off_c, 0, 56, 64
1, 57696, Note_on_c, 0, 64, 57
1, 57708, Note_on_c, 0, 62, 56
1, 57730, Note_off_c, 0, 62, 64
1, 57731, Note_off_c, 0, 64, 51
1, 57771, Note_on_c, 0, 61, 65
1, 57802, Note_off_c, 0, 61, 65
1, 57834, Note_on_c, 0, 76, 69
1, 57839, Note_on_c, 0, 74, 66
1, 57858, Control_c, 0, 67, 118
1, 57869, Note_off_c, 0, 74, 63
1, 57873, Control_c, 0, 67, 96
1, 57880, Note_off_c, 0, 76, 63
1, 57887, Control_c, 0, 67, 74
1, 57902, Control_c, 0, 67, 52
1, 57917, Control_c, 0, 67, 30
1, 57925, Note_on_c, 0, 56, 62
1, 57932, Control_c, 0, 67, 16
1, 57947, Control_c, 0, 67, 0
1, 57951, Note_off_c, 0, 56, 67
1, 57996, Note_on_c, 0, 65, 30
1, 58026, Note_off_c, 0, 65, 51
1, 58061, Note_on_c, 0, 74, 60
1, 58063, Note_on_c, 0, 68, 80
1, 58073, Note_on_c, 0, 59, 52
1, 58092, Note_off_c, 0, 68, 59
1, 58097, Note_off_c, 0, 74, 58
1, 58098, Poly_aftertouch_c, 0, 64, 0
1, 58098, Note_off_c, 0, 59, 58
1, 58140, Note_on_c, 0, 73, 54
1, 58173, Note_off_c, 0, 73, 65
1, 58212, Note_on_c, 0, 74, 57
1, 58216, Note_on_c, 0, 73, 72
1, 58236, Note_off_c, 0, 74, 68
1, 58243, Note_off_c, 0, 73, 65
1, 58269, Note_on_c, 0, 76, 60
1, 58318, Note_off_c, 0, 76, 52
1, 58342, Note_on_c, 0, 68, 69
1, 58343, Note_on_c, 0, 77, 64
1, 58368, Note_off_c, 0, 68, 66
1, 58388, Note_off_c, 0, 77, 62
1, 58407, Note_on_c, 0, 79, 63
1, 58466, Note_off_c, 0, 79, 60
1, 58477, Note_on_c, 0, 67, 69
1, 58481, Note_on_c, 0, 62, 66
1, 58483, Note_on_c, 0, 59, 57
1, 58486, Note_on_c, 0, 77, 67
1, 58487, Note_on_c, 0, 65, 50
1, 58505, Note_off_c, 0, 59, 59
1, 58505, Note_off_c, 0, 67, 65
1, 58510, Note_off_c, 0, 62, 67
1, 58511, Note_off_c, 0, 65, 61
1, 58526, Note_off_c, 0, 77, 60
1, 58558, Note_on_c, 0, 79, 60
1, 58630, Note_on_c, 0, 83, 63
1, 58630, Note_on_c, 0, 86, 62
1, 58631, Note_on_c, 0, 77, 64
1, 58632, Note_off_c, 0, 79, 60
1, 58646, Note_off_c, 0, 83, 69
1, 58650, Note_off_c, 0, 86, 63
1, 58686, Note_off_c, 0, 77, 55
1, 58697, Note_on_c, 0, 76, 66
1, 58731, Note_off_c, 0, 76, 66
1, 58765, Note_on_c, 0, 74, 57
1, 58798, Note_off_c, 0, 74, 61
1, 58825, Note_on_c, 0, 73, 68
1, 58889, Note_off_c, 0, 73, 63
1, 58892, Note_on_c, 0, 68, 88
1, 58901, Note_on_c, 0, 74, 71
1, 58901, Note_on_c, 0, 59, 61
1, 58914, Note_on_c, 0, 62, 39
1, 58915, Note_off_c, 0, 68, 66
1, 58916, Note_on_c, 0, 64, 41
1, 58923, Note_off_c, 0, 59, 62
1, 58946, Note_off_c, 0, 64, 55
1, 58947, Note_off_c, 0, 62, 54
1, 58962, Note_on_c, 0, 73, 70
1, 58962, Note_off_c, 0, 74, 65
1, 59011, Note_off_c, 0, 73, 64
1, 59033, Note_on_c, 0, 73, 75
1, 59049, Note_on_c, 0, 74, 70
1, 59062, Note_off_c, 0, 73, 65
1, 59070, Note_off_c, 0, 74, 72
1, 59115, Note_on_c, 0, 76, 61
1, 59169, Note_on_c, 0, 77, 20
1, 59170, Note_on_c, 0, 68, 76
1, 59172, Note_off_c, 0, 76, 57
1, 59196, Note_off_c, 0, 68, 65
1, 59234, Note_off_c, 0, 77, 60
1, 59243, Note_on_c, 0, 79, 68
1, 59306, Note_off_c, 0, 79, 60
1, 59307, Note_on_c, 0, 67, 69
1, 59309, Note_on_c, 0, 77, 67
1, 59312, Note_on_c, 0, 62, 64
1, 59315, Note_on_c, 0, 65, 51
1, 59320, Note_on_c, 0, 59, 40
1, 59327, Note_off_c, 0, 67, 66
1, 59334, Note_off_c, 0, 62, 65
1, 59339, Note_off_c, 0, 65, 61
1, 59348, Note_off_c, 0, 59, 53
1, 59357, Note_off_c, 0, 77, 62
1, 59372, Note_on_c, 0, 79, 61
1, 59443, Note_on_c, 0, 77, 67
1, 59446, Note_off_c, 0, 79, 61
1, 59453, Note_on_c, 0, 86, 59
1, 59454, Note_off_c, 0, 86, 127
1, 59455, Note_on_c, 0, 83, 57
1, 59473, Note_off_c, 0, 83, 67
1, 59506, Note_on_c, 0, 76, 74
1, 59511, Note_off_c, 0, 77, 62
1, 59555, Note_off_c, 0, 76, 64
1, 59574, Note_on_c, 0, 74, 60
1, 59604, Note_off_c, 0, 74, 66
1, 59644, Note_on_c, 0, 73, 66
1, 59699, Note_off_c, 0, 73, 62
1, 59706, Note_on_c, 0, 74, 67
1, 59710, Note_on_c, 0, 68, 81
1, 59720, Note_on_c, 0, 59, 60
1, 59720, Note_on_c, 0, 62, 63
1, 59728, Note_on_c, 0, 64, 43
1, 59732, Note_off_c, 0, 68, 67
1, 59742, Note_off_c, 0, 59, 60
1, 59743, Note_off_c, 0, 62, 65
1, 59756, Note_off_c, 0, 64, 55
1, 59774, Note_on_c, 0, 73, 67
1, 59775, Note_off_c, 0, 74, 64
1, 59822, Note_off_c, 0, 73, 60
1, 59851, Note_on_c, 0, 73, 68
1, 59858, Note_on_c, 0, 74, 69
1, 59878, Note_off_c, 0, 73, 69
1, 59882, Note_off_c, 0, 74, 71
1, 59917, Note_on_c, 0, 76, 74
1, 59973, Note_off_c, 0, 76, 62
1, 59984, Note_on_c, 0, 68, 82
1, 59987, Note_on_c, 0, 77, 78
1, 60006, Note_off_c, 0, 68, 67
1, 60039, Note_off_c, 0, 77, 61
1, 60053, Note_on_c, 0, 79, 72
1, 60116, Note_on_c, 0, 74, 85
1, 60117, Note_off_c, 0, 79, 62
1, 60122, Note_on_c, 0, 77, 70
1, 60153, Note_off_c, 0, 74, 64
1, 60175, Note_off_c, 0, 77, 60
1, 60188, Note_on_c, 0, 76, 59
1, 60249, Note_on_c, 0, 59, 79
1, 60250, Note_on_c, 0, 67, 77
1, 60256, Note_off_c, 0, 76, 65
1, 60257, Note_on_c, 0, 77, 71
1, 60257, Note_on_c, 0, 65, 65
1, 60272, Note_off_c, 0, 59, 66
1, 60273, Note_off_c, 0, 67, 67
1, 60275, Note_off_c, 0, 65, 67
1, 60286, Note_off_c, 0, 77, 62
1, 60326, Note_on_c, 0, 79, 69
1, 60382, Note_off_c, 0, 79, 53
1, 60387, Note_on_c, 0, 74, 80
1, 60398, Note_on_c, 0, 80, 69
1, 60415, Note_off_c, 0, 74, 66
1, 60444, Note_off_c, 0, 80, 62
1, 60448, Note_on_c, 0, 82, 73
1, 60505, Note_off_c, 0, 82, 64
1, 60521, Note_on_c, 0, 83, 72
1, 60525, Note_on_c, 0, 71, 93
1, 60533, Note_on_c, 0, 56, 76
1, 60540, Note_off_c, 0, 71, 76
1, 60542, Note_on_c, 0, 64, 48
1, 60547, Note_on_c, 0, 62, 50
1, 60549, Note_off_c, 0, 56, 67
1, 60571, Note_off_c, 0, 64, 36
1, 60575, Note_off_c, 0, 62, 35
1, 60582, Note_off_c, 0, 83, 65
1, 60586, Note_on_c, 0, 82, 74
1, 60636, Note_off_c, 0, 82, 64
1, 60656, Note_on_c, 0, 83, 72
1, 60669, Note_on_c, 0, 76, 60
1, 60688, Note_off_c, 0, 76, 67
1, 60715, Note_off_c, 0, 83, 59
1, 60719, Note_on_c, 0, 85, 74
1, 60776, Note_on_c, 0, 71, 72
1, 60784, Note_on_c, 0, 86, 79
1, 60785, Note_off_c, 0, 85, 62
1, 60798, Note_off_c, 0, 71, 72
1, 60844, Note_off_c, 0, 86, 62
1, 60849, Note_on_c, 0, 88, 78
1, 60910, Note_on_c, 0, 62, 73
1, 60914, Note_on_c, 0, 86, 83
1, 60916, Note_on_c, 0, 69, 73
1, 60919, Note_off_c, 0, 88, 66
1, 60925, Note_on_c, 0, 67, 57
1, 60932, Note_off_c, 0, 69, 69
1, 60937, Note_off_c, 0, 62, 69
1, 60949, Note_off_c, 0, 67, 60
1, 60975, Note_off_c, 0, 86, 61
1, 60976, Note_on_c, 0, 88, 75
1, 61051, Note_off_c, 0, 88, 66
1, 61053, Note_on_c, 0, 86, 73
1, 61054, Note_on_c, 0, 80, 67
1, 61056, Note_on_c, 0, 82, 66
1, 61071, Note_off_c, 0, 80, 67
1, 61074, Note_off_c, 0, 82, 68
1, 61113, Note_on_c, 0, 85, 69
1, 61128, Note_off_c, 0, 86, 61
1, 61175, Note_off_c, 0, 85, 66
1, 61194, Note_on_c, 0, 83, 61
1, 61224, Note_off_c, 0, 83, 66
1, 61250, Note_on_c, 0, 82, 74
1, 61311, Note_off_c, 0, 82, 64
1, 61312, Note_on_c, 0, 83, 71
1, 61315, Note_on_c, 0, 71, 92
1, 61324, Note_on_c, 0, 62, 64
1, 61326, Note_on_c, 0, 56, 70
1, 61334, Note_on_c, 0, 64, 43
1, 61339, Note_off_c, 0, 71, 68
1, 61344, Note_off_c, 0, 62, 64
1, 61345, Note_off_c, 0, 56, 65
1, 61363, Note_off_c, 0, 64, 55
1, 61384, Note_on_c, 0, 82, 74
1, 61387, Note_off_c, 0, 83, 65
1, 61436, Note_off_c, 0, 82, 65
1, 61453, Note_on_c, 0, 83, 75
1, 61463, Note_on_c, 0, 76, 69
1, 61485, Note_off_c, 0, 76, 69
1, 61512, Note_off_c, 0, 83, 61
1, 61517, Note_on_c, 0, 85, 77
1, 61583, Note_off_c, 0, 85, 62
1, 61583, Note_on_c, 0, 86, 81
1, 61589, Note_on_c, 0, 71, 73
1, 61610, Note_off_c, 0, 71, 72
1, 61645, Note_off_c, 0, 86, 66
1, 61646, Note_on_c, 0, 88, 84
1, 61704, Note_on_c, 0, 68, 90
1, 61706, Note_on_c, 0, 70, 88
1, 61709, Note_on_c, 0, 62, 78
1, 61715, Note_on_c, 0, 86, 84
1, 61718, Note_off_c, 0, 88, 67
1, 61724, Note_off_c, 0, 68, 66
1, 61726, Note_off_c, 0, 70, 67
1, 61732, Note_off_c, 0, 62, 71
1, 61779, Note_on_c, 0, 88, 78
1, 61782, Note_off_c, 0, 86, 63
1, 61840, Note_on_c, 0, 80, 79
1, 61841, Note_on_c, 0, 82, 75
1, 61856, Note_off_c, 0, 82, 73
1, 61858, Note_off_c, 0, 88, 66
1, 61858, Note_on_c, 0, 86, 77
1, 61860, Note_off_c, 0, 80, 70
1, 61920, Note_on_c, 0, 85, 77
1, 61935, Note_off_c, 0, 86, 62
1, 61971, Note_off_c, 0, 85, 66
1, 61994, Note_on_c, 0, 83, 66
1, 62026, Note_off_c, 0, 83, 66
1, 62046, Note_on_c, 0, 82, 75
1, 62111, Note_off_c, 0, 82, 64
1, 62116, Note_on_c, 0, 71, 92
1, 62117, Note_on_c, 0, 83, 76
1, 62117, Note_on_c, 0, 64, 60
1, 62122, Note_on_c, 0, 56, 66
1, 62132, Note_on_c, 0, 62, 48
1, 62138, Note_off_c, 0, 64, 63
1, 62138, Note_off_c, 0, 71, 70
1, 62141, Note_off_c, 0, 56, 66
1, 62162, Note_off_c, 0, 62, 55
1, 62174, Note_on_c, 0, 82, 85
1, 62183, Note_off_c, 0, 83, 64
1, 62235, Note_off_c, 0, 82, 65
1, 62247, Note_on_c, 0, 76, 79
1, 62253, Note_on_c, 0, 83, 77
1, 62266, Note_off_c, 0, 76, 72
1, 62316, Note_on_c, 0, 85, 82
1, 62318, Note_off_c, 0, 83, 63
1, 62376, Note_on_c, 0, 71, 83
1, 62379, Note_on_c, 0, 86, 79
1, 62383, Note_off_c, 0, 85, 65
1, 62399, Note_off_c, 0, 71, 69
1, 62441, Note_off_c, 0, 86, 64
1, 62442, Note_on_c, 0, 88, 80
1, 62501, Note_on_c, 0, 77, 86
1, 62505, Note_on_c, 0, 86, 87
1, 62517, Note_off_c, 0, 88, 67
1, 62541, Note_off_c, 0, 77, 59
1, 62567, Note_on_c, 0, 85, 76
1, 62578, Note_off_c, 0, 86, 60
1, 62626, Note_off_c, 0, 85, 67
1, 62639, Note_on_c, 0, 68, 83
1, 62641, Note_on_c, 0, 86, 78
1, 62642, Note_on_c, 0, 70, 78
1, 62645, Note_on_c, 0, 62, 67
1, 62664, Note_off_c, 0, 62, 67
1, 62664, Note_off_c, 0, 68, 63
1, 62665, Note_off_c, 0, 70, 67
1, 62689, Note_off_c, 0, 86, 66
1, 62698, Note_on_c, 0, 88, 83
1, 62754, Note_on_c, 0, 89, 89
1, 62765, Note_on_c, 0, 77, 89
1, 62769, Note_off_c, 0, 88, 67
1, 62788, Note_off_c, 0, 77, 65
1, 62820, Note_on_c, 0, 91, 94
1, 62822, Note_off_c, 0, 89, 67
1, 62865, Note_off_c, 0, 91, 62
1, 62943, Note_on_c, 0, 92, 109
1, 62946, Note_on_c, 0, 68, 103
1, 62949, Note_on_c, 0, 83, 89
1, 62951, Note_on_c, 0, 53, 89
1, 62954, Note_on_c, 0, 59, 76
1, 62957, Note_on_c, 0, 87, 82
1, 62958, Note_on_c, 0, 60, 73
1, 62964, Note_on_c, 0, 69, 71
1, 62965, Note_on_c, 0, 64, 67
1, 62966, Note_off_c, 0, 68, 63
1, 62967, Control_c, 0, 64, 38
1, 62970, Note_on_c, 0, 63, 46
1, 62973, Note_off_c, 0, 53, 73
1, 62978, Note_off_c, 0, 59, 68
1, 62979, Note_off_c, 0, 60, 71
1, 62982, Control_c, 0, 64, 58
1, 62983, Note_on_c, 0, 55, 39
1, 62984, Note_off_c, 0, 55, 127
1, 62984, Note_off_c, 0, 69, 45
1, 62985, Note_off_c, 0, 64, 62
1, 62997, Control_c, 0, 64, 103
1, 63005, Note_off_c, 0, 63, 34
1, 63012, Control_c, 0, 64, 127
1, 63029, Note_off_c, 0, 83, 65
1, 63092, Note_off_c, 0, 92, 61
1, 63108, Note_off_c, 0, 87, 62
1, 63275, Poly_aftertouch_c, 0, 74, 127
1, 63306, Poly_aftertouch_c, 0, 74, 0
1, 63323, Poly_aftertouch_c, 0, 85, 0
1, 63343, Note_on_c, 0, 67, 94
1, 63360, Note_on_c, 0, 68, 86
1, 63414, Note_off_c, 0, 67, 63
1, 63420, Note_on_c, 0, 71, 72
1, 63446, Note_off_c, 0, 68, 62
1, 63453, Note_off_c, 0, 71, 66
1, 63455, Note_on_c, 0, 75, 77
1, 63464, Note_on_c, 0, 74, 62
1, 63482, Note_off_c, 0, 74, 68
1, 63493, Note_off_c, 0, 75, 64
1, 63497, Note_on_c, 0, 80, 72
1, 63498, Note_on_c, 0, 79, 51
1, 63524, Note_off_c, 0, 79, 63
1, 63530, Note_on_c, 0, 83, 79
1, 63543, Note_off_c, 0, 80, 62
1, 63548, Note_off_c, 0, 83, 73
1, 63555, Note_on_c, 0, 82, 28
1, 63596, Note_off_c, 0, 82, 0
1, 63596, Note_on_c, 0, 82, 35
1, 63640, Note_off_c, 0, 82, 65
1, 63643, Note_on_c, 0, 86, 69
1, 63664, Note_off_c, 0, 86, 66
1, 63681, Note_on_c, 0, 87, 65
1, 63733, Note_off_c, 0, 87, 64
1, 63740, Note_on_c, 0, 91, 69
1, 63761, Control_c, 0, 64, 99
1, 63765, Note_on_c, 0, 95, 71
1, 63766, Note_off_c, 0, 91, 65
1, 63776, Control_c, 0, 64, 74
1, 63791, Control_c, 0, 64, 63
1, 63801, Note_off_c, 0, 95, 67
1, 63805, Control_c, 0, 64, 51
1, 63820, Control_c, 0, 64, 28
1, 63835, Control_c, 0, 64, 0
1, 63865, Control_c, 0, 67, 8
1, 63879, Control_c, 0, 67, 14
1, 63894, Note_on_c, 0, 63, 63
1, 63894, Control_c, 0, 67, 22
1, 63909, Control_c, 0, 67, 35
1, 63923, Control_c, 0, 67, 52
1, 63929, Note_off_c, 0, 63, 68
1, 63930, Note_on_c, 0, 70, 68
1, 63938, Control_c, 0, 67, 72
1, 63953, Control_c, 0, 64, 14
1, 63953, Control_c, 0, 67, 96
1, 63968, Control_c, 0, 64, 42
1, 63968, Control_c, 0, 67, 127
1, 63980, Note_on_c, 0, 99, 87
1, 63983, Control_c, 0, 64, 61
1, 63986, Note_on_c, 0, 79, 60
1, 63988, Note_off_c, 0, 70, 61
1, 63994, Note_on_c, 0, 94, 66
1, 63997, Note_on_c, 0, 87, 68
1, 63998, Control_c, 0, 64, 127
1, 64006, Note_off_c, 0, 99, 66
1, 64011, Note_off_c, 0, 94, 64
1, 64014, Note_off_c, 0, 87, 66
1, 64024, Note_off_c, 0, 79, 61
1, 64242, Control_c, 0, 64, 103
1, 64251, Note_on_c, 0, 63, 74
1, 64257, Control_c, 0, 64, 79
1, 64272, Control_c, 0, 64, 64
1, 64272, Note_off_c, 0, 63, 70
1, 64287, Control_c, 0, 64, 51
1, 64302, Control_c, 0, 64, 22
1, 64316, Note_on_c, 0, 63, 80
1, 64316, Control_c, 0, 64, 0
1, 64332, Poly_aftertouch_c, 0, 67, 0
1, 64333, Note_off_c, 0, 63, 72
1, 64378, Note_on_c, 0, 63, 83
1, 64398, Note_off_c, 0, 63, 71
1, 64442, Note_on_c, 0, 64, 70
1, 64490, Note_off_c, 0, 64, 60
1, 64505, Note_on_c, 0, 67, 70
1, 64511, Note_on_c, 0, 66, 79
1, 64515, Note_on_c, 0, 71, 52
1, 64535, Note_off_c, 0, 66, 68
1, 64537, Note_off_c, 0, 71, 65
1, 64540, Note_off_c, 0, 67, 60
1, 64579, Note_on_c, 0, 66, 74
1, 64601, Note_off_c, 0, 66, 66
1, 64644, Note_on_c, 0, 66, 84
1, 64689, Note_off_c, 0, 66, 63
1, 64715, Note_on_c, 0, 66, 63
1, 64741, Note_off_c, 0, 66, 68
1, 64773, Note_on_c, 0, 67, 60
1, 64783, Note_on_c, 0, 66, 68
1, 64803, Note_on_c, 0, 71, 10
1, 64818, Note_off_c, 0, 66, 64
1, 64824, Note_off_c, 0, 67, 58
1, 64845, Note_off_c, 0, 71, 53
1, 64847, Note_on_c, 0, 64, 69
1, 64892, Note_off_c, 0, 64, 63
1, 64922, Note_on_c, 0, 63, 76
1, 64931, Note_on_c, 0, 70, 57
1, 64939, Note_on_c, 0, 67, 49
1, 64943, Note_off_c, 0, 63, 72
1, 64952, Note_off_c, 0, 70, 62
1, 64964, Note_off_c, 0, 67, 59
1, 65083, Note_on_c, 0, 63, 73
1, 65092, Note_on_c, 0, 67, 21
1, 65107, Note_off_c, 0, 63, 70
1, 65132, Note_off_c, 0, 67, 42
1, 65154, Note_on_c, 0, 63, 71
1, 65174, Note_off_c, 0, 63, 67
1, 65214, Note_on_c, 0, 63, 62
1, 65242, Note_off_c, 0, 63, 65
1, 65280, Note_on_c, 0, 64, 73
1, 65336, Note_off_c, 0, 64, 61
1, 65339, Note_on_c, 0, 67, 66
1, 65348, Note_on_c, 0, 60, 73
1, 65352, Note_on_c, 0, 69, 55
1, 65363, Note_off_c, 0, 60, 69
1, 65373, Note_off_c, 0, 67, 61
1, 65375, Note_off_c, 0, 69, 63
1, 65420, Note_on_c, 0, 60, 71
1, 65435, Note_off_c, 0, 60, 68
1, 65492, Note_on_c, 0, 60, 66
1, 65512, Note_off_c, 0, 60, 42
1, 65563, Note_on_c, 0, 60, 53
1, 65583, Note_off_c, 0, 60, 62
1, 65624, Note_on_c, 0, 67, 60
1, 65626, Note_on_c, 0, 60, 68
1, 65628, Note_on_c, 0, 69, 55
1, 65652, Note_off_c, 0, 69, 63
1, 65657, Note_off_c, 0, 67, 64
1, 65666, Note_off_c, 0, 60, 64
1, 65688, Note_on_c, 0, 61, 69
1, 65733, Note_off_c, 0, 61, 66
1, 65758, Note_on_c, 0, 63, 74
1, 65761, Note_on_c, 0, 67, 53
1, 65766, Note_on_c, 0, 70, 63
1, 65780, Note_off_c, 0, 63, 71
1, 65795, Note_off_c, 0, 67, 62
1, 65795, Note_off_c, 0, 70, 62
1, 65903, Note_on_c, 0, 75, 78
1, 65937, Note_off_c, 0, 75, 58
1, 65950, Poly_aftertouch_c, 0, 67, 127
1, 65962, Note_on_c, 0, 63, 60
1, 65983, Note_off_c, 0, 63, 65
1, 65995, Poly_aftertouch_c, 0, 67, 0
1, 66035, Note_on_c, 0, 63, 59
1, 66058, Note_off_c, 0, 63, 64
1, 66092, Note_on_c, 0, 64, 86
1, 66123, Note_off_c, 0, 64, 65
1, 66164, Note_on_c, 0, 78, 87
1, 66167, Note_on_c, 0, 67, 62
1, 66171, Note_on_c, 0, 71, 53
1, 66203, Note_off_c, 0, 67, 61
1, 66203, Note_off_c, 0, 78, 62
1, 66203, Note_off_c, 0, 71, 60
1, 66241, Note_on_c, 0, 66, 53
1, 66265, Note_off_c, 0, 66, 59
1, 66295, Note_on_c, 0, 66, 59
1, 66315, Note_off_c, 0, 66, 63
1, 66371, Note_on_c, 0, 66, 83
1, 66401, Note_off_c, 0, 66, 64
1, 66439, Note_on_c, 0, 67, 68
1, 66440, Note_on_c, 0, 78, 90
1, 66463, Note_off_c, 0, 78, 64
1, 66481, Note_on_c, 0, 71, 19
1, 66502, Note_off_c, 0, 67, 61
1, 66504, Note_on_c, 0, 64, 72
1, 66517, Note_off_c, 0, 71, 55
1, 66535, Note_off_c, 0, 64, 65
1, 66577, Note_on_c, 0, 70, 73
1, 66578, Note_on_c, 0, 63, 78
1, 66578, Note_on_c, 0, 67, 52
1, 66600, Note_off_c, 0, 63, 73
1, 66604, Note_off_c, 0, 67, 62
1, 66609, Note_off_c, 0, 70, 61
1, 66722, Note_on_c, 0, 67, 64
1, 66724, Note_on_c, 0, 70, 70
1, 66729, Note_on_c, 0, 75, 81
1, 66751, Note_off_c, 0, 70, 67
1, 66758, Note_off_c, 0, 67, 59
1, 66760, Note_off_c, 0, 75, 59
1, 66792, Note_on_c, 0, 63, 58
1, 66818, Note_off_c, 0, 63, 58
1, 66842, Note_on_c, 0, 63, 68
1, 66877, Note_off_c, 0, 63, 62
1, 66915, Note_on_c, 0, 64, 79
1, 66940, Note_off_c, 0, 64, 63
1, 66988, Note_on_c, 0, 72, 79
1, 66990, Note_on_c, 0, 67, 74
1, 66991, Note_on_c, 0, 69, 75
1, 67012, Note_off_c, 0, 72, 65
1, 67015, Note_off_c, 0, 67, 67
1, 67016, Note_off_c, 0, 69, 66
1, 67061, Note_on_c, 0, 60, 64
1, 67079, Note_off_c, 0, 60, 65
1, 67144, Note_on_c, 0, 60, 59
1, 67167, Note_off_c, 0, 60, 41
1, 67211, Note_on_c, 0, 60, 70
1, 67250, Note_off_c, 0, 60, 60
1, 67266, Note_on_c, 0, 72, 61
1, 67268, Note_on_c, 0, 67, 63
1, 67269, Note_on_c, 0, 69, 70
1, 67285, Note_off_c, 0, 72, 64
1, 67297, Note_off_c, 0, 69, 65
1, 67298, Note_off_c, 0, 67, 56
1, 67312, Control_c, 0, 67, 127
1, 67319, Note_on_c, 0, 61, 81
1, 67327, Control_c, 0, 67, 115
1, 67340, Note_off_c, 0, 61, 72
1, 67341, Control_c, 0, 67, 101
1, 67356, Control_c, 0, 67, 84
1, 67371, Control_c, 0, 67, 62
1, 67386, Control_c, 0, 67, 37
1, 67401, Note_on_c, 0, 70, 81
1, 67401, Control_c, 0, 67, 0
1, 67403, Note_on_c, 0, 63, 79
1, 67405, Note_on_c, 0, 75, 83
1, 67421, Note_off_c, 0, 70, 70
1, 67423, Note_off_c, 0, 75, 71
1, 67425, Note_off_c, 0, 63, 72
1, 67551, Note_on_c, 0, 82, 79
1, 67553, Note_on_c, 0, 87, 78
1, 67559, Note_on_c, 0, 67, 78
1, 67573, Note_off_c, 0, 82, 69
1, 67580, Note_on_c, 0, 79, 25
1, 67580, Note_off_c, 0, 67, 69
1, 67587, Note_on_c, 0, 70, 36
1, 67588, Note_off_c, 0, 87, 64
1, 67614, Note_off_c, 0, 79, 32
1, 67621, Note_on_c, 0, 75, 80
1, 67621, Note_off_c, 0, 70, 32
1, 67654, Note_off_c, 0, 75, 64
1, 67682, Note_on_c, 0, 75, 64
1, 67700, Note_on_c, 0, 76, 65
1, 67713, Note_off_c, 0, 75, 59
1, 67719, Note_off_c, 0, 76, 67
1, 67767, Note_on_c, 0, 76, 63
1, 67779, Note_on_c, 0, 77, 48
1, 67804, Note_off_c, 0, 77, 56
1, 67808, Note_off_c, 0, 76, 67
1, 67829, Note_on_c, 0, 90, 94
1, 67831, Note_on_c, 0, 79, 87
1, 67837, Note_on_c, 0, 83, 74
1, 67846, Note_on_c, 0, 67, 59
1, 67850, Note_off_c, 0, 79, 71
1, 67855, Note_on_c, 0, 71, 47
1, 67868, Note_off_c, 0, 83, 71
1, 67876, Note_off_c, 0, 67, 61
1, 67888, Note_off_c, 0, 71, 61
1, 67888, Note_off_c, 0, 90, 66
1, 67913, Note_on_c, 0, 78, 81
1, 67945, Note_off_c, 0, 78, 66
1, 67969, Note_on_c, 0, 78, 75
1, 67992, Note_off_c, 0, 78, 71
1, 68045, Note_on_c, 0, 78, 86
1, 68066, Note_off_c, 0, 78, 70
1, 68111, Note_on_c, 0, 90, 86
1, 68126, Note_on_c, 0, 79, 69
1, 68126, Note_on_c, 0, 71, 63
1, 68138, Note_off_c, 0, 90, 71
1, 68144, Note_off_c, 0, 79, 65
1, 68145, Note_off_c, 0, 71, 68
1, 68188, Note_on_c, 0, 76, 68
1, 68224, Note_off_c, 0, 76, 63
1, 68246, Note_on_c, 0, 79, 79
1, 68251, Note_on_c, 0, 67, 59
1, 68251, Note_on_c, 0, 87, 89
1, 68253, Control_c, 0, 64, 15
1, 68267, Note_on_c, 0, 82, 54
1, 68268, Control_c, 0, 64, 43
1, 68272, Note_off_c, 0, 79, 62
1, 68273, Note_off_c, 0, 67, 63
1, 68276, Note_on_c, 0, 75, 35
1, 68277, Note_off_c, 0, 87, 66
1, 68283, Control_c, 0, 64, 58
1, 68290, Note_off_c, 0, 82, 61
1, 68297, Control_c, 0, 64, 66
1, 68309, Note_off_c, 0, 75, 53
1, 68312, Control_c, 0, 64, 69
1, 68342, Control_c, 0, 64, 68
1, 68357, Control_c, 0, 64, 67
1, 68371, Control_c, 0, 64, 65
1, 68387, Poly_aftertouch_c, 0, 82, 0
1, 68387, Control_c, 0, 64, 64
1, 68395, Note_on_c, 0, 82, 59
1, 68402, Control_c, 0, 64, 61
1, 68410, Note_on_c, 0, 99, 81
1, 68417, Control_c, 0, 64, 55
1, 68432, Control_c, 0, 64, 48
1, 68446, Control_c, 0, 64, 38
1, 68448, Note_off_c, 0, 82, 63
1, 68461, Control_c, 0, 64, 27
1, 68469, Note_on_c, 0, 88, 58
1, 68476, Control_c, 0, 64, 15
1, 68477, Note_off_c, 0, 99, 57
1, 68491, Control_c, 0, 64, 0
1, 68505, Note_on_c, 0, 86, 19
1, 68507, Note_off_c, 0, 88, 60
1, 68517, Note_on_c, 0, 83, 70
1, 68526, Note_on_c, 0, 102, 85
1, 68528, Note_off_c, 0, 86, 33
1, 68543, Note_on_c, 0, 90, 54
1, 68544, Note_on_c, 0, 95, 64
1, 68550, Note_off_c, 0, 83, 65
1, 68567, Note_off_c, 0, 90, 63
1, 68569, Note_on_c, 0, 88, 80
1, 68571, Note_off_c, 0, 95, 68
1, 68577, Note_off_c, 0, 102, 65
1, 68644, Note_off_c, 0, 88, 62
1, 68654, Note_on_c, 0, 82, 86
1, 68654, Note_on_c, 0, 99, 90
1, 68663, Note_on_c, 0, 87, 73
1, 68666, Note_on_c, 0, 79, 64
1, 68675, Note_on_c, 0, 94, 57
1, 68675, Note_off_c, 0, 82, 68
1, 68679, Note_off_c, 0, 87, 66
1, 68681, Note_on_c, 0, 78, 51
1, 68686, Note_off_c, 0, 79, 66
1, 68696, Note_off_c, 0, 94, 61
1, 68705, Note_off_c, 0, 99, 63
1, 68705, Note_off_c, 0, 78, 58
1, 68766, Control_c, 0, 64, 29
1, 68781, Control_c, 0, 64, 34
1, 68795, Control_c, 0, 64, 33
1, 68810, Control_c, 0, 64, 27
1, 68812, Note_on_c, 0, 82, 73
1, 68818, Note_on_c, 0, 99, 80
1, 68825, Control_c, 0, 64, 24
1, 68830, Note_on_c, 0, 79, 41
1, 68831, Note_on_c, 0, 87, 58
1, 68852, Note_off_c, 0, 87, 62
1, 68854, Control_c, 0, 64, 26
1, 68859, Note_off_c, 0, 79, 52
1, 68869, Control_c, 0, 64, 27
1, 68871, Note_on_c, 0, 88, 79
1, 68872, Note_off_c, 0, 82, 63
1, 68880, Note_off_c, 0, 99, 64
1, 68913, Control_c, 0, 64, 27
1, 68919, Note_on_c, 0, 102, 92
1, 68928, Note_on_c, 0, 90, 65
1, 68929, Note_off_c, 0, 88, 63
1, 68937, Note_on_c, 0, 95, 62
1, 68939, Note_on_c, 0, 81, 75
1, 68958, Note_off_c, 0, 90, 58
1, 68958, Control_c, 0, 64, 27
1, 68962, Note_off_c, 0, 95, 66
1, 68988, Note_off_c, 0, 81, 63
1, 68988, Note_off_c, 0, 102, 64
1, 69002, Note_on_c, 0, 88, 63
1, 69003, Control_c, 0, 64, 27
1, 69007, Note_on_c, 0, 89, 62
1, 69018, Control_c, 0, 64, 25
1, 69027, Note_off_c, 0, 89, 64
1, 69032, Control_c, 0, 64, 21
1, 69047, Control_c, 0, 64, 9
1, 69055, Note_on_c, 0, 99, 92
1, 69059, Note_on_c, 0, 87, 88
1, 69062, Note_on_c, 0, 82, 90
1, 69062, Control_c, 0, 64, 0
1, 69065, Note_off_c, 0, 88, 65
1, 69068, Note_on_c, 0, 94, 76
1, 69069, Note_on_c, 0, 79, 71
1, 69080, Note_on_c, 0, 78, 65
1, 69081, Note_off_c, 0, 87, 69
1, 69092, Note_off_c, 0, 94, 67
1, 69094, Note_off_c, 0, 79, 66
1, 69099, Note_off_c, 0, 78, 64
1, 69103, Note_off_c, 0, 82, 63
1, 69112, Note_off_c, 0, 99, 64
1, 69212, Note_on_c, 0, 82, 70
1, 69223, Note_on_c, 0, 99, 66
1, 69226, Note_on_c, 0, 87, 53
1, 69233, Note_on_c, 0, 79, 22
1, 69233, Note_on_c, 0, 94, 40
1, 69241, Control_c, 0, 64, 25
1, 69250, Note_off_c, 0, 87, 61
1, 69256, Control_c, 0, 64, 41
1, 69261, Note_off_c, 0, 82, 62
1, 69266, Note_off_c, 0, 94, 54
1, 69270, Control_c, 0, 64, 51
1, 69275, Note_off_c, 0, 79, 42
1, 69277, Note_on_c, 0, 88, 73
1, 69285, Control_c, 0, 64, 55
1, 69300, Control_c, 0, 64, 59
1, 69315, Control_c, 0, 64, 62
1, 69325, Note_on_c, 0, 90, 66
1, 69325, Note_on_c, 0, 102, 75
1, 69330, Control_c, 0, 64, 65
1, 69334, Note_off_c, 0, 88, 65
1, 69339, Note_on_c, 0, 83, 59
1, 69340, Note_off_c, 0, 99, 49
1, 69343, Note_on_c, 0, 95, 57
1, 69344, Control_c, 0, 64, 68
1, 69367, Control_c, 0, 64, 69
1, 69370, Note_off_c, 0, 90, 65
1, 69377, Note_off_c, 0, 95, 64
1, 69380, Note_off_c, 0, 83, 69
1, 69391, Note_off_c, 0, 102, 62
1, 69411, Note_on_c, 0, 88, 66
1, 69463, Note_on_c, 0, 99, 78
1, 69468, Note_on_c, 0, 87, 65
1, 69469, Note_off_c, 0, 88, 62
1, 69477, Note_on_c, 0, 82, 70
1, 69483, Note_on_c, 0, 79, 62
1, 69486, Note_on_c, 0, 94, 48
1, 69495, Note_off_c, 0, 87, 55
1, 69504, Note_off_c, 0, 79, 63
1, 69519, Note_off_c, 0, 94, 52
1, 69533, Note_off_c, 0, 99, 63
1, 69534, Note_on_c, 0, 88, 70
1, 69539, Note_off_c, 0, 82, 41
1, 69584, Note_off_c, 0, 88, 61
1, 69593, Note_on_c, 0, 102, 87
1, 69601, Note_on_c, 0, 81, 78
1, 69614, Note_on_c, 0, 95, 58
1, 69617, Note_on_c, 0, 90, 43
1, 69635, Note_off_c, 0, 95, 63
1, 69636, Note_off_c, 0, 102, 65
1, 69648, Note_off_c, 0, 90, 57
1, 69659, Note_off_c, 0, 81, 63
1, 69672, Note_on_c, 0, 88, 76
1, 69723, Note_on_c, 0, 99, 90
1, 69730, Note_on_c, 0, 79, 75
1, 69732, Note_off_c, 0, 88, 43
1, 69734, Note_on_c, 0, 82, 75
1, 69742, Note_on_c, 0, 87, 58
1, 69762, Note_off_c, 0, 87, 63
1, 69768, Note_off_c, 0, 79, 60
1, 69777, Note_off_c, 0, 82, 60
1, 69794, Note_off_c, 0, 99, 63
1, 69804, Note_on_c, 0, 88, 81
1, 69840, Note_off_c, 0, 88, 66
1, 69844, Note_on_c, 0, 83, 74
1, 69855, Note_on_c, 0, 102, 97
1, 69855, Note_on_c, 0, 90, 85
1, 69861, Note_on_c, 0, 95, 75
1, 69885, Note_off_c, 0, 90, 59
1, 69891, Note_off_c, 0, 95, 65
1, 69894, Note_off_c, 0, 83, 66
1, 69915, Note_off_c, 0, 102, 65
1, 69917, Note_on_c, 0, 88, 88
1, 69981, Note_on_c, 0, 82, 91
1, 69986, Note_on_c, 0, 99, 102
1, 69990, Note_off_c, 0, 88, 61
1, 69992, Note_on_c, 0, 87, 92
1, 70002, Note_on_c, 0, 94, 81
1, 70009, Note_on_c, 0, 79, 66
1, 70027, Note_off_c, 0, 79, 65
1, 70031, Note_off_c, 0, 87, 59
1, 70052, Note_on_c, 0, 88, 90
1, 70053, Note_off_c, 0, 94, 65
1, 70060, Note_off_c, 0, 99, 64
1, 70062, Note_off_c, 0, 82, 60
1, 70078, Control_c, 0, 64, 70
1, 70092, Control_c, 0, 64, 71
1, 70119, Note_off_c, 0, 88, 65
1, 70126, Note_on_c, 0, 81, 87
1, 70126, Note_on_c, 0, 102, 108
1, 70132, Note_on_c, 0, 90, 92
1, 70132, Note_on_c, 0, 97, 97
1, 70148, Note_off_c, 0, 90, 75
1, 70161, Note_off_c, 0, 102, 70
1, 70168, Note_off_c, 0, 97, 64
1, 70189, Note_off_c, 0, 81, 64
1, 70195, Note_on_c, 0, 88, 92
1, 70210, Note_off_c, 0, 88, 76
1, 70232, Control_c, 0, 64, 69
1, 70247, Control_c, 0, 64, 69
1, 70306, Control_c, 0, 64, 68
1, 70321, Control_c, 0, 64, 66
1, 70336, Control_c, 0, 64, 63
1, 70351, Control_c, 0, 64, 60
1, 70365, Control_c, 0, 64, 55
1, 70380, Control_c, 0, 64, 48
1, 70395, Control_c, 0, 64, 40
1, 70410, Control_c, 0, 64, 34
1, 70425, Control_c, 0, 64, 29
1, 70440, Control_c, 0, 64, 26
1, 70455, Control_c, 0, 64, 26
1, 70469, Control_c, 0, 64, 24
1, 70484, Control_c, 0, 64, 18
1, 70499, Control_c, 0, 64, 0
1, 70659, Note_on_c, 0, 75, 82
1, 70684, Note_on_c, 0, 39, 51
1, 70685, Note_on_c, 0, 63, 50
1, 70706, Control_c, 0, 64, 16
1, 70708, Note_on_c, 0, 70, 34
1, 70721, Control_c, 0, 64, 42
1, 70736, Control_c, 0, 64, 61
1, 70750, Control_c, 0, 64, 127
1, 70759, Note_off_c, 0, 63, 64
1, 70794, Note_on_c, 0, 46, 71
1, 70805, Note_off_c, 0, 39, 58
1, 70834, Note_off_c, 0, 75, 54
1, 70878, Note_off_c, 0, 46, 62
1, 70889, Note_on_c, 0, 51, 70
1, 70917, Note_off_c, 0, 51, 68
1, 70940, Note_on_c, 0, 76, 93
1, 70943, Note_on_c, 0, 64, 80
1, 70972, Note_off_c, 0, 64, 64
1, 70975, Note_off_c, 0, 70, 52
1, 70979, Note_on_c, 0, 52, 68
1, 70983, Note_on_c, 0, 53, 64
1, 71009, Note_off_c, 0, 76, 69
1, 71054, Note_on_c, 0, 55, 75
1, 71095, Note_off_c, 0, 53, 62
1, 71101, Note_off_c, 0, 52, 66
1, 71101, Note_on_c, 0, 61, 76
1, 71128, Note_off_c, 0, 55, 62
1, 71143, Note_off_c, 0, 61, 64
1, 71156, Note_on_c, 0, 87, 105
1, 71160, Note_on_c, 0, 64, 76
1, 71161, Note_on_c, 0, 75, 95
1, 71176, Note_on_c, 0, 82, 81
1, 71197, Note_off_c, 0, 64, 62
1, 71223, Note_off_c, 0, 75, 57
1, 71247, Note_on_c, 0, 67, 82
1, 71301, Note_on_c, 0, 73, 81
1, 71319, Note_on_c, 0, 70, 50
1, 71334, Note_off_c, 0, 67, 61
1, 71352, Note_off_c, 0, 87, 62
1, 71358, Note_off_c, 0, 70, 43
1, 71358, Note_on_c, 0, 76, 93
1, 71373, Note_off_c, 0, 73, 60
1, 71376, Note_on_c, 0, 67, 54
1, 71405, Note_off_c, 0, 67, 54
1, 71425, Note_on_c, 0, 73, 70
1, 71435, Note_off_c, 0, 76, 64
1, 71512, Note_on_c, 0, 67, 69
1, 71531, Note_off_c, 0, 73, 61
1, 71568, Note_off_c, 0, 67, 64
1, 71585, Note_off_c, 0, 82, 44
1, 71624, Note_on_c, 0, 64, 72
1, 71654, Note_off_c, 0, 64, 60
1, 71703, Note_on_c, 0, 85, 96
1, 71707, Note_on_c, 0, 73, 87
1, 71721, Note_on_c, 0, 55, 65
1, 71732, Note_off_c, 0, 73, 66
1, 71734, Note_off_c, 0, 85, 69
1, 71780, Note_on_c, 0, 83, 98
1, 71787, Note_on_c, 0, 71, 90
1, 71789, Note_on_c, 0, 82, 64
1, 71801, Note_on_c, 0, 52, 78
1, 71808, Note_off_c, 0, 82, 67
1, 71825, Note_off_c, 0, 71, 67
1, 71834, Note_off_c, 0, 83, 62
1, 71846, Note_on_c, 0, 61, 68
1, 71856, Note_off_c, 0, 55, 56
1, 71896, Note_off_c, 0, 52, 66
1, 71915, Note_on_c, 0, 64, 67
1, 71945, Note_off_c, 0, 61, 62
1, 71946, Note_off_c, 0, 64, 61
1, 71994, Note_on_c, 0, 78, 34
1, 72026, Note_off_c, 0, 78, 57
1, 72040, Control_c, 0, 64, 65
1, 72055, Control_c, 0, 64, 26
1, 72056, Note_on_c, 0, 82, 98
1, 72062, Note_on_c, 0, 70, 87
1, 72070, Control_c, 0, 64, 0
1, 72071, Note_on_c, 0, 75, 74
1, 72073, Note_on_c, 0, 65, 78
1, 72161, Note_on_c, 0, 61, 69
1, 72166, Note_off_c, 0, 65, 66
1, 72188, Control_c, 0, 64, 23
1, 72203, Control_c, 0, 64, 46
1, 72218, Control_c, 0, 64, 61
1, 72233, Control_c, 0, 64, 127
1, 72237, Note_off_c, 0, 61, 65
1, 72242, Note_on_c, 0, 56, 66
1, 72252, Note_off_c, 0, 70, 61
1, 72279, Note_off_c, 0, 56, 65
1, 72321, Note_on_c, 0, 53, 69
1, 72326, Note_on_c, 0, 80, 83
1, 72327, Note_on_c, 0, 68, 77
1, 72356, Note_off_c, 0, 53, 67
1, 72358, Note_off_c, 0, 75, 60
1, 72383, Note_off_c, 0, 82, 63
1, 72416, Note_off_c, 0, 68, 59
1, 72416, Note_off_c, 0, 80, 63
1, 72423, Note_on_c, 0, 44, 62
1, 72454, Note_off_c, 0, 44, 64
1, 72473, Note_on_c, 0, 37, 69
1, 72520, Note_on_c, 0, 75, 91
1, 72532, Note_on_c, 0, 63, 78
1, 72533, Note_on_c, 0, 44, 69
1, 72540, Note_off_c, 0, 37, 62
1, 72561, Note_off_c, 0, 63, 65
1, 72594, Note_off_c, 0, 75, 60
1, 72596, Note_on_c, 0, 49, 69
1, 72599, Note_off_c, 0, 44, 60
1, 72653, Note_off_c, 0, 49, 60
1, 72714, Poly_aftertouch_c, 0, 55, 127
1, 72747, Poly_aftertouch_c, 0, 55, 0
1, 72780, Note_on_c, 0, 73, 85
1, 72788, Note_on_c, 0, 39, 76
1, 72790, Control_c, 0, 64, 79
1, 72798, Note_on_c, 0, 66, 65
1, 72800, Note_on_c, 0, 61, 67
1, 72804, Control_c, 0, 64, 53
1, 72819, Control_c, 0, 64, 0
1, 72878, Control_c, 0, 64, 43
1, 72891, Note_off_c, 0, 39, 64
1, 72893, Control_c, 0, 64, 67
1, 72908, Control_c, 0, 64, 127
1, 72919, Note_on_c, 0, 45, 58
1, 72920, Note_off_c, 0, 73, 62
1, 72924, Note_off_c, 0, 61, 65
1, 72952, Note_off_c, 0, 45, 64
1, 72994, Note_on_c, 0, 49, 77
1, 73000, Note_on_c, 0, 75, 95
1, 73000, Note_on_c, 0, 63, 82
1, 73022, Note_off_c, 0, 66, 64
1, 73051, Note_off_c, 0, 63, 64
1, 73079, Note_on_c, 0, 54, 71
1, 73085, Note_off_c, 0, 75, 64
1, 73104, Note_off_c, 0, 49, 63
1, 73134, Note_off_c, 0, 54, 64
1, 73151, Note_on_c, 0, 57, 68
1, 73188, Note_off_c, 0, 57, 61
1, 73199, Note_on_c, 0, 80, 98
1, 73231, Note_on_c, 0, 81, 57
1, 73233, Note_on_c, 0, 61, 80
1, 73254, Note_off_c, 0, 81, 62
1, 73287, Note_on_c, 0, 68, 62
1, 73297, Note_off_c, 0, 61, 58
1, 73301, Note_on_c, 0, 66, 65
1, 73336, Note_off_c, 0, 66, 63
1, 73348, Note_on_c, 0, 73, 74
1, 73371, Note_off_c, 0, 68, 60
1, 73389, Note_on_c, 0, 78, 82
1, 73396, Note_off_c, 0, 73, 61
1, 73436, Poly_aftertouch_c, 0, 73, 0
1, 73445, Note_off_c, 0, 80, 58
1, 73446, Note_on_c, 0, 73, 68
1, 73473, Note_off_c, 0, 78, 65
1, 73501, Note_off_c, 0, 73, 66
1, 73503, Note_on_c, 0, 69, 71
1, 73525, Note_off_c, 0, 69, 67
1, 73525, Note_on_c, 0, 68, 66
1, 73561, Note_on_c, 0, 66, 82
1, 73569, Control_c, 0, 67, 10
1, 73583, Note_off_c, 0, 68, 63
1, 73583, Control_c, 0, 67, 15
1, 73598, Control_c, 0, 67, 20
1, 73603, Note_on_c, 0, 61, 75
1, 73613, Control_c, 0, 67, 26
1, 73627, Control_c, 0, 67, 35
1, 73637, Note_off_c, 0, 66, 67
1, 73642, Control_c, 0, 67, 46
1, 73643, Note_on_c, 0, 57, 68
1, 73653, Note_off_c, 0, 61, 70
1, 73657, Control_c, 0, 67, 59
1, 73668, Note_off_c, 0, 57, 68
1, 73672, Control_c, 0, 67, 73
1, 73687, Control_c, 0, 67, 90
1, 73688, Note_on_c, 0, 54, 69
1, 73701, Control_c, 0, 67, 111
1, 73716, Control_c, 0, 67, 127
1, 73722, Note_on_c, 0, 49, 69
1, 73724, Note_off_c, 0, 54, 55
1, 73745, Note_on_c, 0, 45, 66
1, 73769, Poly_aftertouch_c, 0, 60, 0
1, 73798, Note_on_c, 0, 56, 67
1, 73806, Note_off_c, 0, 49, 63
1, 73814, Note_off_c, 0, 45, 62
1, 73859, Note_on_c, 0, 54, 76
1, 73895, Note_off_c, 0, 56, 66
1, 73921, Note_on_c, 0, 49, 73
1, 73928, Note_off_c, 0, 54, 65
1, 73941, Note_on_c, 0, 45, 68
1, 73952, Note_off_c, 0, 49, 68
1, 73972, Note_off_c, 0, 45, 64
1, 74035, Note_on_c, 0, 42, 64
1, 74068, Note_on_c, 0, 37, 70
1, 74081, Note_off_c, 0, 42, 60
1, 74121, Note_on_c, 0, 33, 71
1, 74129, Note_off_c, 0, 37, 62
1, 74147, Note_off_c, 0, 33, 66
1, 74195, Note_on_c, 0, 27, 84
1, 74213, Control_c, 0, 64, 79
1, 74228, Control_c, 0, 64, 66
1, 74243, Control_c, 0, 64, 56
1, 74258, Control_c, 0, 64, 46
1, 74265, Note_on_c, 0, 39, 81
1, 74273, Control_c, 0, 64, 35
1, 74288, Control_c, 0, 64, 29
1, 74289, Note_off_c, 0, 27, 65
1, 74295, Note_off_c, 0, 39, 67
1, 74303, Control_c, 0, 64, 26
1, 74318, Control_c, 0, 64, 26
1, 74332, Control_c, 0, 64, 24
1, 74347, Control_c, 0, 64, 18
1, 74362, Control_c, 0, 64, 0
1, 74374, Note_on_c, 0, 39, 75
1, 74419, Note_off_c, 0, 39, 63
1, 74439, Note_on_c, 0, 51, 72
1, 74476, Note_off_c, 0, 51, 66
1, 74516, Note_on_c, 0, 51, 69
1, 74562, Note_off_c, 0, 51, 65
1, 74601, Note_on_c, 0, 63, 70
1, 74634, Note_off_c, 0, 63, 64
1, 74669, Note_on_c, 0, 39, 72
1, 74742, Note_on_c, 0, 51, 67
1, 74753, Note_off_c, 0, 39, 63
1, 74778, Note_off_c, 0, 51, 66
1, 74825, Note_on_c, 0, 51, 66
1, 74829, Control_c, 0, 64, 8
1, 74844, Control_c, 0, 64, 13
1, 74859, Control_c, 0, 64, 17
1, 74860, Note_off_c, 0, 51, 66
1, 74874, Control_c, 0, 64, 19
1, 74888, Control_c, 0, 64, 20
1, 74889, Note_on_c, 0, 63, 71
1, 74919, Note_off_c, 0, 63, 68
1, 75041, Note_on_c, 0, 75, 65
1, 75068, Note_off_c, 0, 75, 62
1, 75109, Note_on_c, 0, 51, 76
1, 75111, Control_c, 0, 64, 16
1, 75126, Control_c, 0, 64, 0
1, 75186, Note_on_c, 0, 63, 55
1, 75189, Note_off_c, 0, 51, 62
1, 75214, Control_c, 0, 64, 17
1, 75218, Note_off_c, 0, 63, 60
1, 75229, Control_c, 0, 64, 30
1, 75244, Control_c, 0, 64, 37
1, 75257, Note_on_c, 0, 63, 56
1, 75259, Control_c, 0, 64, 43
1, 75273, Control_c, 0, 64, 47
1, 75288, Control_c, 0, 64, 50
1, 75303, Note_off_c, 0, 63, 67
1, 75318, Control_c, 0, 64, 49
1, 75333, Control_c, 0, 64, 48
1, 75344, Note_on_c, 0, 75, 53
1, 75355, Control_c, 0, 64, 46
1, 75370, Control_c, 0, 64, 45
1, 75374, Note_off_c, 0, 75, 60
1, 75385, Control_c, 0, 64, 43
1, 75399, Control_c, 0, 64, 42
1, 75414, Control_c, 0, 64, 42
1, 75419, Note_on_c, 0, 75, 58
1, 75429, Control_c, 0, 64, 41
1, 75444, Control_c, 0, 64, 39
1, 75453, Note_off_c, 0, 75, 62
1, 75459, Control_c, 0, 64, 37
1, 75473, Control_c, 0, 64, 34
1, 75487, Note_on_c, 0, 87, 65
1, 75488, Control_c, 0, 64, 32
1, 75503, Control_c, 0, 64, 30
1, 75518, Control_c, 0, 64, 29
1, 75533, Control_c, 0, 64, 27
1, 75540, Note_off_c, 0, 87, 56
1, 75548, Control_c, 0, 64, 22
1, 75562, Control_c, 0, 64, 18
1, 75573, Note_on_c, 0, 99, 62
1, 75578, Control_c, 0, 64, 14
1, 75593, Control_c, 0, 64, 13
1, 75608, Control_c, 0, 64, 13
1, 75622, Control_c, 0, 64, 12
1, 75635, Note_off_c, 0, 99, 57
1, 75637, Control_c, 0, 64, 10
1, 75652, Control_c, 0, 64, 0
1, 76133, Control_c, 0, 64, 9
1, 76148, Control_c, 0, 64, 10
1, 76163, Control_c, 0, 64, 11
1, 76193, Control_c, 0, 64, 12
1, 76208, Control_c, 0, 64, 14
1, 76222, Control_c, 0, 64, 15
1, 76237, Control_c, 0, 64, 17
1, 76252, Control_c, 0, 64, 18
1, 76267, Control_c, 0, 64, 19
1, 76506, Note_on_c, 0, 77, 75
1, 76512, Note_on_c, 0, 69, 59
1, 76515, Note_on_c, 0, 59, 60
1, 76520, Control_c, 0, 64, 18
1, 76521, Note_on_c, 0, 74, 47
1, 76522, Note_on_c, 0, 63, 52
1, 76528, Note_off_c, 0, 77, 65
1, 76533, Note_off_c, 0, 69, 62
1, 76534, Control_c, 0, 64, 16
1, 76544, Note_off_c, 0, 74, 62
1, 76549, Control_c, 0, 64, 13
1, 76552, Note_off_c, 0, 63, 68
1, 76554, Note_off_c, 0, 59, 57
1, 76564, Control_c, 0, 64, 0
1, 76579, Note_on_c, 0, 79, 72
1, 76594, Note_on_c, 0, 62, 45
1, 76604, Note_on_c, 0, 73, 62
1, 76609, Note_on_c, 0, 53, 43
1, 76622, Note_on_c, 0, 58, 42
1, 76643, Note_on_c, 0, 68, 7
1, 76697, Control_c, 0, 64, 18
1, 76712, Control_c, 0, 64, 37
1, 76726, Control_c, 0, 64, 52
1, 76741, Control_c, 0, 64, 64
1, 76744, Note_off_c, 0, 53, 60
1, 76753, Note_off_c, 0, 58, 62
1, 76756, Control_c, 0, 64, 78
1, 76771, Control_c, 0, 64, 97
1, 76786, Control_c, 0, 64, 109
1, 76792, Note_off_c, 0, 73, 59
1, 76798, Note_off_c, 0, 62, 63
1, 76801, Control_c, 0, 64, 114
1, 76813, Note_off_c, 0, 68, 36
1, 76816, Control_c, 0, 64, 117
1, 76831, Control_c, 0, 64, 127
1, 76853, Note_off_c, 0, 79, 60
1, 76925, Note_on_c, 0, 64, 48
1, 77010, Note_on_c, 0, 76, 53
1, 77046, Note_off_c, 0, 76, 58
1, 77058, Note_off_c, 0, 64, 36
1, 77086, Note_on_c, 0, 88, 50
1, 77126, Note_off_c, 0, 88, 63
1, 77167, Note_on_c, 0, 76, 41
1, 77218, Note_off_c, 0, 76, 47
1, 77246, Note_on_c, 0, 88, 40
1, 77287, Note_off_c, 0, 88, 47
1, 77326, Note_on_c, 0, 76, 43
1, 77352, Note_off_c, 0, 76, 58
1, 77371, Note_on_c, 0, 64, 38
1, 77453, Note_on_c, 0, 76, 43
1, 77487, Note_off_c, 0, 64, 29
1, 77500, Note_off_c, 0, 76, 48
1, 77529, Note_on_c, 0, 88, 51
1, 77569, Note_off_c, 0, 88, 51
1, 77622, Note_on_c, 0, 76, 32
1, 77654, Note_off_c, 0, 76, 56
1, 77683, Note_on_c, 0, 88, 49
1, 77743, Note_on_c, 0, 76, 48
1, 77743, Note_off_c, 0, 88, 46
1, 77788, Note_off_c, 0, 76, 51
1, 77814, Note_on_c, 0, 64, 43
1, 77871, Note_off_c, 0, 64, 53
1, 77901, Note_on_c, 0, 76, 40
1, 77932, Note_off_c, 0, 76, 54
1, 77961, Note_on_c, 0, 88, 46
1, 78008, Note_off_c, 0, 88, 47
1, 78025, Note_on_c, 0, 76, 48
1, 78074, Note_off_c, 0, 76, 47
1, 78110, Note_on_c, 0, 88, 49
1, 78164, Note_off_c, 0, 88, 44
1, 78199, Note_on_c, 0, 76, 30
1, 78232, Note_off_c, 0, 76, 55
1, 78241, Note_on_c, 0, 64, 44
1, 78304, Note_off_c, 0, 64, 40
1, 78325, Note_on_c, 0, 76, 36
1, 78363, Note_off_c, 0, 76, 56
1, 78392, Note_on_c, 0, 88, 49
1, 78438, Note_off_c, 0, 88, 51
1, 78455, Note_on_c, 0, 76, 51
1, 78497, Note_off_c, 0, 76, 50
1, 78536, Note_on_c, 0, 88, 56
1, 78589, Note_off_c, 0, 88, 53
1, 78612, Note_on_c, 0, 76, 47
1, 78651, Note_off_c, 0, 76, 52
1, 78687, Note_on_c, 0, 64, 34
1, 78733, Note_off_c, 0, 64, 45
1, 78780, Note_on_c, 0, 76, 12
1, 78813, Note_on_c, 0, 88, 47
1, 78825, Note_off_c, 0, 76, 55
1, 78849, Note_off_c, 0, 88, 50
1, 78884, Note_on_c, 0, 76, 42
1, 78945, Note_off_c, 0, 76, 43
1, 78950, Note_on_c, 0, 88, 48
1, 79028, Note_off_c, 0, 88, 59
1, 79048, Note_on_c, 0, 76, 36
1, 79084, Note_off_c, 0, 76, 53
1, 79099, Note_on_c, 0, 64, 49
1, 79148, Note_off_c, 0, 64, 55
1, 79177, Note_on_c, 0, 76, 48
1, 79213, Note_off_c, 0, 76, 50
1, 79257, Note_on_c, 0, 88, 42
1, 79303, Note_off_c, 0, 88, 48
1, 79318, Note_on_c, 0, 76, 49
1, 79373, Note_off_c, 0, 76, 50
1, 79394, Note_on_c, 0, 88, 54
1, 79449, Note_off_c, 0, 88, 56
1, 79481, Note_on_c, 0, 76, 46
1, 79514, Note_off_c, 0, 76, 55
1, 79537, Note_on_c, 0, 64, 44
1, 79592, Note_off_c, 0, 64, 53
1, 79612, Note_on_c, 0, 76, 49
1, 79640, Note_off_c, 0, 76, 55
1, 79675, Note_on_c, 0, 88, 42
1, 79714, Note_off_c, 0, 88, 50
1, 79735, Note_on_c, 0, 76, 51
1, 79789, Note_off_c, 0, 76, 49
1, 79817, Note_on_c, 0, 88, 45
1, 79877, Note_off_c, 0, 88, 45
1, 79907, Note_on_c, 0, 76, 37
1, 79946, Note_off_c, 0, 76, 52
1, 79964, Note_on_c, 0, 64, 50
1, 80033, Note_off_c, 0, 64, 45
1, 80037, Note_on_c, 0, 76, 46
1, 80067, Note_off_c, 0, 76, 55
1, 80096, Note_on_c, 0, 88, 47
1, 80151, Note_off_c, 0, 88, 45
1, 80166, Note_on_c, 0, 76, 51
1, 80216, Note_off_c, 0, 76, 54
1, 80255, Note_on_c, 0, 88, 42
1, 80296, Note_off_c, 0, 88, 48
1, 80337, Note_on_c, 0, 76, 40
1, 80369, Note_off_c, 0, 76, 56
1, 80394, Note_on_c, 0, 64, 47
1, 80466, Note_off_c, 0, 64, 52
1, 80467, Note_on_c, 0, 76, 45
1, 80493, Note_off_c, 0, 76, 57
1, 80539, Note_on_c, 0, 88, 48
1, 80583, Note_off_c, 0, 88, 50
1, 80615, Note_on_c, 0, 76, 45
1, 80673, Note_off_c, 0, 76, 44
1, 80708, Note_on_c, 0, 88, 24
1, 80745, Note_off_c, 0, 88, 55
1, 80771, Note_on_c, 0, 76, 42
1, 80803, Note_off_c, 0, 76, 55
1, 80817, Note_on_c, 0, 64, 53
1, 80877, Note_off_c, 0, 64, 50
1, 80912, Note_on_c, 0, 76, 36
1, 80940, Note_off_c, 0, 76, 55
1, 80966, Note_on_c, 0, 88, 50
1, 81004, Note_off_c, 0, 88, 55
1, 81052, Note_on_c, 0, 76, 51
1, 81084, Note_off_c, 0, 76, 64
1, 81105, Note_on_c, 0, 88, 51
1, 81143, Note_off_c, 0, 88, 65
1, 81172, Note_on_c, 0, 76, 71
1, 81199, Note_off_c, 0, 76, 67
1, 81205, Control_c, 0, 64, 90
1, 81220, Control_c, 0, 64, 64
1, 81235, Control_c, 0, 64, 51
1, 81249, Control_c, 0, 64, 24
1, 81264, Control_c, 0, 64, 0
1, 81330, Note_on_c, 0, 77, 74
1, 81347, Note_on_c, 0, 59, 62
1, 81353, Note_on_c, 0, 69, 43
1, 81357, Note_off_c, 0, 77, 68
1, 81358, Note_on_c, 0, 63, 49
1, 81362, Note_on_c, 0, 74, 37
1, 81380, Note_off_c, 0, 69, 57
1, 81384, Note_off_c, 0, 63, 58
1, 81390, Note_off_c, 0, 59, 52
1, 81391, Note_off_c, 0, 74, 58
1, 81406, Note_on_c, 0, 62, 65
1, 81409, Note_on_c, 0, 79, 76
1, 81420, Note_on_c, 0, 53, 58
1, 81421, Note_on_c, 0, 58, 55
1, 81421, Note_on_c, 0, 68, 73
1, 81433, Note_on_c, 0, 73, 54
1, 81436, Note_off_c, 0, 62, 67
1, 81442, Note_off_c, 0, 79, 59
1, 81443, Note_off_c, 0, 58, 61
1, 81444, Note_off_c, 0, 53, 62
1, 81448, Note_off_c, 0, 68, 64
1, 81454, Note_off_c, 0, 73, 61
1, 81552, Note_on_c, 0, 76, 79
1, 81558, Note_on_c, 0, 67, 69
1, 81578, Note_off_c, 0, 67, 67
1, 81584, Note_off_c, 0, 76, 55
1, 81594, Note_on_c, 0, 61, 56
1, 81603, Note_on_c, 0, 57, 52
1, 81620, Note_off_c, 0, 61, 68
1, 81629, Note_on_c, 0, 77, 75
1, 81630, Note_on_c, 0, 51, 59
1, 81636, Note_on_c, 0, 56, 60
1, 81637, Note_on_c, 0, 71, 52
1, 81645, Note_off_c, 0, 57, 59
1, 81646, Note_on_c, 0, 60, 58
1, 81655, Note_on_c, 0, 66, 56
1, 81670, Note_off_c, 0, 51, 62
1, 81676, Note_off_c, 0, 56, 66
1, 81676, Note_off_c, 0, 71, 65
1, 81678, Note_off_c, 0, 60, 66
1, 81683, Note_off_c, 0, 77, 59
1, 81687, Note_off_c, 0, 66, 52
1, 82033, Note_on_c, 0, 77, 68
1, 82038, Note_on_c, 0, 69, 52
1, 82042, Note_on_c, 0, 59, 57
1, 82043, Note_on_c, 0, 74, 47
1, 82048, Note_on_c, 0, 63, 58
1, 82057, Note_off_c, 0, 77, 64
1, 82062, Note_off_c, 0, 69, 59
1, 82064, Note_off_c, 0, 74, 62
1, 82093, Note_off_c, 0, 63, 68
1, 82096, Note_off_c, 0, 59, 57
1, 82115, Note_on_c, 0, 79, 70
1, 82128, Note_on_c, 0, 58, 34
1, 82130, Note_on_c, 0, 68, 53
1, 82132, Note_on_c, 0, 62, 56
1, 82137, Note_on_c, 0, 53, 47
1, 82137, Note_on_c, 0, 73, 53
1, 82200, Note_off_c, 0, 68, 0
1, 82200, Note_on_c, 0, 68, 3
1, 82213, Control_c, 0, 64, 33
1, 82228, Control_c, 0, 64, 48
1, 82243, Control_c, 0, 64, 62
1, 82258, Control_c, 0, 64, 78
1, 82271, Note_off_c, 0, 53, 62
1, 82272, Control_c, 0, 64, 127
1, 82279, Note_off_c, 0, 58, 59
1, 82327, Note_off_c, 0, 62, 63
1, 82336, Note_off_c, 0, 73, 60
1, 82340, Note_off_c, 0, 68, 40
1, 82386, Note_off_c, 0, 79, 58
1, 82455, Note_on_c, 0, 64, 49
1, 82547, Note_on_c, 0, 76, 40
1, 82548, Note_off_c, 0, 64, 52
1, 82579, Note_off_c, 0, 76, 53
1, 82605, Note_on_c, 0, 88, 52
1, 82656, Note_off_c, 0, 88, 56
1, 82677, Note_on_c, 0, 76, 52
1, 82746, Note_off_c, 0, 76, 53
1, 82760, Note_on_c, 0, 88, 49
1, 82816, Note_off_c, 0, 88, 50
1, 82833, Note_on_c, 0, 76, 38
1, 82890, Note_off_c, 0, 76, 45
1, 82903, Note_on_c, 0, 64, 51
1, 82973, Note_off_c, 0, 64, 48
1, 82983, Note_on_c, 0, 76, 50
1, 83018, Note_off_c, 0, 76, 52
1, 83050, Note_on_c, 0, 88, 49
1, 83098, Note_off_c, 0, 88, 48
1, 83115, Note_on_c, 0, 76, 52
1, 83155, Note_off_c, 0, 76, 49
1, 83184, Note_on_c, 0, 88, 56
1, 83263, Note_on_c, 0, 76, 51
1, 83265, Note_off_c, 0, 88, 55
1, 83308, Note_off_c, 0, 76, 57
1, 83335, Note_on_c, 0, 64, 52
1, 83413, Note_on_c, 0, 76, 50
1, 83419, Note_off_c, 0, 64, 47
1, 83446, Note_off_c, 0, 76, 54
1, 83484, Note_on_c, 0, 88, 48
1, 83531, Note_off_c, 0, 88, 46
1, 83546, Note_on_c, 0, 76, 45
1, 83597, Note_off_c, 0, 76, 46
1, 83636, Note_on_c, 0, 88, 53
1, 83678, Note_off_c, 0, 88, 48
1, 83710, Note_on_c, 0, 76, 47
1, 83742, Note_off_c, 0, 76, 56
1, 83770, Note_on_c, 0, 64, 44
1, 83843, Note_on_c, 0, 76, 49
1, 83854, Note_off_c, 0, 64, 42
1, 83874, Note_off_c, 0, 76, 54
1, 83913, Note_on_c, 0, 88, 45
1, 83955, Note_off_c, 0, 88, 48
1, 83982, Note_on_c, 0, 76, 48
1, 84025, Note_off_c, 0, 76, 48
1, 84055, Note_on_c, 0, 88, 54
1, 84120, Note_off_c, 0, 88, 53
1, 84133, Note_on_c, 0, 76, 46
1, 84170, Note_off_c, 0, 76, 54
1, 84207, Note_on_c, 0, 64, 44
1, 84255, Note_off_c, 0, 64, 43
1, 84272, Note_on_c, 0, 76, 47
1, 84301, Note_off_c, 0, 76, 57
1, 84358, Note_on_c, 0, 88, 43
1, 84398, Note_off_c, 0, 88, 48
1, 84415, Note_on_c, 0, 76, 48
1, 84481, Note_off_c, 0, 76, 42
1, 84498, Note_on_c, 0, 88, 56
1, 84552, Note_off_c, 0, 88, 54
1, 84600, Note_on_c, 0, 76, 23
1, 84638, Note_on_c, 0, 64, 53
1, 84640, Note_off_c, 0, 76, 54
1, 84702, Note_off_c, 0, 64, 49
1, 84707, Note_on_c, 0, 76, 39
1, 84746, Note_off_c, 0, 76, 50
1, 84786, Note_on_c, 0, 88, 52
1, 84835, Note_off_c, 0, 88, 60
1, 84896, Note_on_c, 0, 76, 39
1, 84942, Note_off_c, 0, 76, 48
1, 84945, Note_on_c, 0, 88, 45
1, 84986, Note_off_c, 0, 88, 47
1, 85022, Note_on_c, 0, 76, 40
1, 85070, Note_off_c, 0, 76, 47
1, 85108, Note_on_c, 0, 64, 46
1, 85152, Note_off_c, 0, 64, 51
1, 85180, Note_on_c, 0, 76, 45
1, 85207, Note_off_c, 0, 76, 59
1, 85250, Note_on_c, 0, 88, 48
1, 85294, Note_off_c, 0, 88, 49
1, 85338, Note_on_c, 0, 76, 31
1, 85374, Note_off_c, 0, 76, 56
1, 85395, Note_on_c, 0, 88, 48
1, 85433, Note_off_c, 0, 88, 64
1, 85465, Note_on_c, 0, 76, 62
1, 85489, Control_c, 0, 64, 98
1, 85491, Note_off_c, 0, 76, 63
1, 85504, Control_c, 0, 64, 71
1, 85519, Control_c, 0, 64, 57
1, 85533, Control_c, 0, 64, 37
1, 85548, Control_c, 0, 64, 0
1, 85604, Note_on_c, 0, 77, 68
1, 85611, Note_on_c, 0, 69, 57
1, 85621, Note_on_c, 0, 74, 41
1, 85621, Note_off_c, 0, 77, 67
1, 85624, Note_on_c, 0, 59, 63
1, 85630, Note_on_c, 0, 58, 16
1, 85632, Note_off_c, 0, 69, 63
1, 85648, Note_on_c, 0, 62, 44
1, 85648, Note_off_c, 0, 74, 59
1, 85659, Note_off_c, 0, 59, 59
1, 85674, Note_on_c, 0, 79, 82
1, 85675, Note_off_c, 0, 58, 0
1, 85675, Note_on_c, 0, 58, 28
1, 85682, Note_on_c, 0, 68, 77
1, 85689, Note_on_c, 0, 73, 69
1, 85705, Note_off_c, 0, 68, 68
1, 85712, Note_off_c, 0, 73, 69
1, 85713, Note_off_c, 0, 62, 64
1, 85715, Note_off_c, 0, 58, 64
1, 85717, Note_off_c, 0, 79, 59
1, 85825, Note_on_c, 0, 76, 70
1, 85827, Note_on_c, 0, 67, 71
1, 85851, Note_off_c, 0, 76, 70
1, 85854, Note_off_c, 0, 67, 67
1, 85871, Note_on_c, 0, 57, 52
1, 85872, Note_on_c, 0, 61, 51
1, 85897, Note_on_c, 0, 77, 80
1, 85898, Note_off_c, 0, 61, 69
1, 85907, Note_on_c, 0, 51, 64
1, 85908, Note_on_c, 0, 71, 59
1, 85911, Note_on_c, 0, 66, 80
1, 85912, Note_on_c, 0, 56, 60
1, 85920, Note_on_c, 0, 60, 58
1, 85925, Note_off_c, 0, 57, 56
1, 85944, Note_off_c, 0, 66, 60
1, 85952, Note_off_c, 0, 60, 66
1, 85955, Note_off_c, 0, 51, 63
1, 85955, Note_off_c, 0, 56, 63
1, 85958, Note_off_c, 0, 71, 65
1, 85959, Note_off_c, 0, 77, 61
1, 86134, Control_c, 0, 64, 12
1, 86149, Control_c, 0, 64, 26
1, 86164, Control_c, 0, 64, 33
1, 86179, Control_c, 0, 64, 38
1, 86194, Control_c, 0, 64, 42
1, 86196, Note_on_c, 0, 74, 63
1, 86197, Note_on_c, 0, 55, 59
1, 86199, Note_on_c, 0, 59, 51
1, 86203, Note_on_c, 0, 65, 52
1, 86209, Control_c, 0, 64, 46
1, 86214, Note_on_c, 0, 71, 44
1, 86223, Note_off_c, 0, 59, 58
1, 86224, Control_c, 0, 64, 50
1, 86227, Note_off_c, 0, 65, 61
1, 86238, Note_off_c, 0, 71, 60
1, 86238, Control_c, 0, 64, 54
1, 86240, Note_off_c, 0, 55, 60
1, 86253, Control_c, 0, 64, 55
1, 86268, Control_c, 0, 64, 53
1, 86276, Note_off_c, 0, 74, 61
1, 86283, Control_c, 0, 64, 42
1, 86298, Control_c, 0, 64, 15
1, 86298, Note_on_c, 0, 69, 53
1, 86298, Note_on_c, 0, 75, 63
1, 86301, Note_on_c, 0, 54, 55
1, 86305, Note_on_c, 0, 58, 59
1, 86311, Note_on_c, 0, 49, 54
1, 86312, Control_c, 0, 64, 0
1, 86313, Note_on_c, 0, 64, 51
1, 86385, Note_off_c, 0, 64, 61
1, 86386, Control_c, 0, 64, 34
1, 86401, Control_c, 0, 64, 49
1, 86402, Note_off_c, 0, 69, 62
1, 86408, Note_off_c, 0, 49, 62
1, 86416, Note_off_c, 0, 54, 64
1, 86416, Control_c, 0, 64, 62
1, 86420, Note_off_c, 0, 58, 63
1, 86430, Control_c, 0, 64, 74
1, 86445, Control_c, 0, 64, 98
1, 86460, Control_c, 0, 64, 127
1, 86462, Note_off_c, 0, 75, 61
1, 86646, Note_on_c, 0, 76, 44
1, 86698, Note_off_c, 0, 76, 61
1, 86727, Note_on_c, 0, 88, 53
1, 86766, Note_off_c, 0, 88, 65
1, 86812, Note_on_c, 0, 76, 42
1, 86840, Note_off_c, 0, 76, 57
1, 86865, Note_on_c, 0, 64, 51
1, 86912, Note_off_c, 0, 64, 58
1, 86939, Note_on_c, 0, 88, 51
1, 86969, Note_off_c, 0, 88, 55
1, 87013, Note_on_c, 0, 76, 40
1, 87040, Note_off_c, 0, 76, 57
1, 87070, Note_on_c, 0, 76, 47
1, 87110, Note_off_c, 0, 76, 60
1, 87164, Note_on_c, 0, 88, 53
1, 87201, Note_off_c, 0, 88, 55
1, 87229, Note_on_c, 0, 76, 50
1, 87255, Note_off_c, 0, 76, 57
1, 87303, Note_on_c, 0, 64, 52
1, 87353, Note_off_c, 0, 64, 60
1, 87383, Note_on_c, 0, 88, 55
1, 87413, Note_off_c, 0, 88, 53
1, 87448, Note_on_c, 0, 76, 53
1, 87469, Note_off_c, 0, 76, 64
1, 87523, Note_on_c, 0, 76, 52
1, 87559, Note_off_c, 0, 76, 55
1, 87607, Note_on_c, 0, 88, 60
1, 87649, Note_off_c, 0, 88, 55
1, 87681, Note_on_c, 0, 76, 48
1, 87708, Note_off_c, 0, 76, 58
1, 87753, Note_on_c, 0, 64, 50
1, 87790, Note_off_c, 0, 64, 52
1, 87819, Note_on_c, 0, 88, 58
1, 87851, Note_off_c, 0, 88, 64
1, 87892, Note_on_c, 0, 76, 53
1, 87913, Note_off_c, 0, 76, 65
1, 87957, Note_on_c, 0, 76, 48
1, 87985, Note_off_c, 0, 76, 57
1, 88050, Note_on_c, 0, 88, 53
1, 88089, Note_off_c, 0, 88, 54
1, 88121, Note_on_c, 0, 76, 51
1, 88148, Note_off_c, 0, 76, 56
1, 88200, Note_on_c, 0, 64, 49
1, 88242, Note_off_c, 0, 64, 47
1, 88274, Note_on_c, 0, 88, 53
1, 88300, Note_off_c, 0, 88, 56
1, 88343, Note_on_c, 0, 76, 45
1, 88369, Note_off_c, 0, 76, 61
1, 88421, Note_on_c, 0, 76, 39
1, 88450, Note_off_c, 0, 76, 55
1, 88489, Note_on_c, 0, 88, 59
1, 88533, Note_off_c, 0, 88, 55
1, 88577, Note_on_c, 0, 76, 46
1, 88600, Note_off_c, 0, 76, 62
1, 88650, Note_on_c, 0, 64, 49
1, 88680, Note_off_c, 0, 64, 56
1, 88710, Note_on_c, 0, 88, 56
1, 88745, Note_off_c, 0, 88, 63
1, 88806, Note_on_c, 0, 76, 27
1, 88905, Note_off_c, 0, 76, 46
1, 88958, Note_on_c, 0, 88, 57
1, 88993, Note_off_c, 0, 88, 66
1, 89014, Note_on_c, 0, 76, 70
1, 89040, Control_c, 0, 64, 95
1, 89041, Note_off_c, 0, 76, 68
1, 89055, Control_c, 0, 64, 73
1, 89070, Control_c, 0, 64, 62
1, 89084, Control_c, 0, 64, 49
1, 89099, Control_c, 0, 64, 18
1, 89114, Control_c, 0, 64, 0
1, 89182, Note_on_c, 0, 72, 73
1, 89189, Note_on_c, 0, 64, 64
1, 89189, Control_c, 0, 64, 36
1, 89192, Note_on_c, 0, 58, 61
1, 89193, Note_on_c, 0, 69, 54
1, 89204, Control_c, 0, 64, 52
1, 89204, Note_on_c, 0, 49, 63
1, 89215, Note_off_c, 0, 69, 61
1, 89216, Note_on_c, 0, 54, 37
1, 89219, Note_off_c, 0, 58, 64
1, 89219, Control_c, 0, 64, 65
1, 89234, Control_c, 0, 64, 72
1, 89247, Note_off_c, 0, 64, 40
1, 89247, Note_off_c, 0, 54, 50
1, 89248, Control_c, 0, 64, 70
1, 89256, Note_on_c, 0, 68, 65
1, 89261, Note_off_c, 0, 49, 64
1, 89262, Note_on_c, 0, 42, 70
1, 89262, Note_on_c, 0, 73, 77
1, 89263, Control_c, 0, 64, 64
1, 89269, Note_off_c, 0, 72, 60
1, 89278, Control_c, 0, 64, 57
1, 89293, Note_off_c, 0, 68, 60
1, 89293, Control_c, 0, 64, 45
1, 89294, Note_off_c, 0, 42, 62
1, 89295, Note_off_c, 0, 73, 62
1, 89307, Control_c, 0, 64, 24
1, 89322, Control_c, 0, 64, 0
1, 89418, Note_on_c, 0, 47, 58
1, 89423, Note_on_c, 0, 59, 69
1, 89426, Note_on_c, 0, 67, 59
1, 89426, Control_c, 0, 64, 23
1, 89431, Note_on_c, 0, 63, 53
1, 89432, Note_on_c, 0, 54, 22
1, 89441, Control_c, 0, 64, 38
1, 89448, Note_off_c, 0, 47, 65
1, 89455, Control_c, 0, 64, 49
1, 89463, Note_off_c, 0, 59, 57
1, 89470, Note_off_c, 0, 54, 30
1, 89470, Control_c, 0, 64, 57
1, 89479, Note_on_c, 0, 42, 76
1, 89480, Note_off_c, 0, 63, 0
1, 89480, Note_on_c, 0, 63, 26
1, 89482, Note_off_c, 0, 67, 41
1, 89485, Control_c, 0, 64, 61
1, 89491, Note_on_c, 0, 68, 74
1, 89500, Note_on_c, 0, 66, 66
1, 89500, Control_c, 0, 64, 61
1, 89509, Note_off_c, 0, 42, 64
1, 89514, Control_c, 0, 64, 58
1, 89520, Note_off_c, 0, 63, 60
1, 89529, Control_c, 0, 64, 50
1, 89529, Control_c, 0, 67, 126
1, 89530, Note_off_c, 0, 66, 66
1, 89542, Note_off_c, 0, 68, 58
1, 89544, Control_c, 0, 64, 39
1, 89544, Control_c, 0, 67, 123
1, 89559, Control_c, 0, 64, 24
1, 89559, Control_c, 0, 67, 120
1, 89581, Control_c, 0, 64, 0
1, 89581, Control_c, 0, 67, 117
1, 89596, Control_c, 0, 67, 113
1, 89601, Poly_aftertouch_c, 0, 35, 0
1, 89612, Control_c, 0, 67, 110
1, 89627, Control_c, 0, 67, 107
1, 89642, Control_c, 0, 67, 106
1, 89665, Note_on_c, 0, 71, 70
1, 89667, Note_on_c, 0, 55, 68
1, 89671, Control_c, 0, 67, 107
1, 89686, Note_on_c, 0, 65, 41
1, 89686, Control_c, 0, 67, 109
1, 89701, Control_c, 0, 67, 113
1, 89703, Note_off_c, 0, 55, 59
1, 89706, Note_on_c, 0, 69, 52
1, 89714, Note_off_c, 0, 65, 57
1, 89715, Control_c, 0, 67, 117
1, 89721, Note_on_c, 0, 54, 58
1, 89730, Control_c, 0, 67, 123
1, 89741, Note_off_c, 0, 71, 62
1, 89745, Control_c, 0, 67, 127
1, 89746, Note_on_c, 0, 75, 73
1, 89747, Note_on_c, 0, 58, 63
1, 89753, Note_on_c, 0, 64, 59
1, 89760, Note_on_c, 0, 49, 62
1, 89819, Control_c, 0, 64, 22
1, 89834, Control_c, 0, 64, 39
1, 89849, Control_c, 0, 64, 55
1, 89854, Note_off_c, 0, 49, 64
1, 89863, Control_c, 0, 64, 73
1, 89866, Note_off_c, 0, 54, 64
1, 89866, Note_off_c, 0, 64, 58
1, 89878, Control_c, 0, 64, 127
1, 89881, Note_off_c, 0, 69, 62
1, 89885, Note_off_c, 0, 58, 62
1, 89935, Note_off_c, 0, 75, 62
1, 90023, Note_on_c, 0, 64, 54
1, 90105, Note_on_c, 0, 76, 48
1, 90111, Note_off_c, 0, 64, 60
1, 90129, Note_off_c, 0, 76, 59
1, 90171, Note_on_c, 0, 88, 53
1, 90222, Note_off_c, 0, 88, 62
1, 90254, Note_on_c, 0, 76, 52
1, 90301, Note_off_c, 0, 76, 58
1, 90336, Note_on_c, 0, 88, 45
1, 90369, Note_off_c, 0, 88, 52
1, 90409, Note_on_c, 0, 76, 48
1, 90440, Note_off_c, 0, 76, 57
1, 90474, Note_on_c, 0, 64, 53
1, 90529, Note_on_c, 0, 76, 58
1, 90540, Note_off_c, 0, 64, 55
1, 90568, Note_off_c, 0, 76, 59
1, 90610, Note_on_c, 0, 88, 54
1, 90650, Note_off_c, 0, 88, 58
1, 90690, Note_on_c, 0, 76, 57
1, 90739, Note_off_c, 0, 76, 47
1, 90759, Note_on_c, 0, 88, 44
1, 90787, Note_off_c, 0, 88, 57
1, 90823, Note_on_c, 0, 76, 46
1, 90849, Note_off_c, 0, 76, 60
1, 90897, Note_on_c, 0, 64, 58
1, 90942, Note_off_c, 0, 64, 58
1, 90942, Note_on_c, 0, 76, 61
1, 90988, Note_off_c, 0, 76, 59
1, 91044, Note_on_c, 0, 88, 54
1, 91091, Note_off_c, 0, 88, 63
1, 91114, Note_on_c, 0, 76, 63
1, 91141, Note_off_c, 0, 76, 69
1, 91153, Control_c, 0, 67, 121
1, 91168, Control_c, 0, 67, 109
1, 91181, Note_on_c, 0, 88, 58
1, 91183, Control_c, 0, 67, 92
1, 91198, Control_c, 0, 67, 75
1, 91213, Control_c, 0, 67, 56
1, 91227, Control_c, 0, 67, 37
1, 91228, Note_off_c, 0, 88, 62
1, 91242, Control_c, 0, 67, 19
1, 91251, Note_on_c, 0, 76, 71
1, 91257, Control_c, 0, 67, 0
1, 91277, Note_off_c, 0, 76, 69
1, 91301, Control_c, 0, 64, 78
1, 91316, Control_c, 0, 64, 60
1, 91331, Control_c, 0, 64, 35
1, 91346, Control_c, 0, 64, 0
1, 91405, Control_c, 0, 64, 25
1, 91413, Note_on_c, 0, 72, 54
1, 91417, Note_on_c, 0, 64, 47
1, 91420, Control_c, 0, 64, 46
1, 91422, Note_on_c, 0, 49, 68
1, 91425, Note_on_c, 0, 58, 43
1, 91426, Note_on_c, 0, 54, 52
1, 91434, Control_c, 0, 64, 61
1, 91449, Control_c, 0, 64, 70
1, 91455, Note_off_c, 0, 58, 57
1, 91456, Note_off_c, 0, 54, 55
1, 91462, Note_off_c, 0, 72, 0
1, 91462, Note_on_c, 0, 72, 18
1, 91464, Note_off_c, 0, 64, 43
1, 91464, Control_c, 0, 64, 70
1, 91474, Note_off_c, 0, 49, 64
1, 91477, Note_on_c, 0, 73, 77
1, 91479, Control_c, 0, 64, 65
1, 91482, Note_on_c, 0, 42, 64
1, 91494, Note_off_c, 0, 72, 56
1, 91494, Control_c, 0, 64, 57
1, 91506, Note_off_c, 0, 42, 57
1, 91509, Control_c, 0, 64, 41
1, 91524, Control_c, 0, 64, 14
1, 91524, Note_off_c, 0, 73, 63
1, 91539, Control_c, 0, 64, 0
1, 91554, Poly_aftertouch_c, 0, 48, 0
1, 91640, Note_on_c, 0, 59, 72
1, 91643, Note_on_c, 0, 47, 61
1, 91644, Note_on_c, 0, 67, 72
1, 91651, Note_on_c, 0, 63, 51
1, 91670, Note_off_c, 0, 47, 66
1, 91698, Note_off_c, 0, 67, 45
1, 91702, Note_off_c, 0, 59, 47
1, 91709, Note_on_c, 0, 42, 76
1, 91717, Control_c, 0, 64, 31
1, 91717, Control_c, 0, 67, 11
1, 91717, Note_on_c, 0, 68, 72
1, 91732, Control_c, 0, 64, 48
1, 91732, Control_c, 0, 67, 17
1, 91735, Note_on_c, 0, 66, 58
1, 91746, Note_off_c, 0, 42, 60
1, 91747, Control_c, 0, 64, 62
1, 91747, Control_c, 0, 67, 23
1, 91750, Note_off_c, 0, 63, 54
1, 91753, Note_on_c, 0, 39, 21
1, 91759, Note_off_c, 0, 66, 63
1, 91762, Control_c, 0, 64, 79
1, 91762, Control_c, 0, 67, 32
1, 91776, Control_c, 0, 64, 127
1, 91776, Control_c, 0, 67, 47
1, 91778, Note_off_c, 0, 68, 59
1, 91785, Note_on_c, 0, 35, 3
1, 91791, Control_c, 0, 67, 67
1, 91796, Note_off_c, 0, 39, 38
1, 91806, Control_c, 0, 67, 87
1, 91828, Control_c, 0, 67, 110
1, 91834, Note_off_c, 0, 35, 48
1, 91843, Control_c, 0, 67, 127
1, 92080, Control_c, 0, 64, 99
1, 92094, Control_c, 0, 64, 73
1, 92105, Note_on_c, 0, 53, 67
1, 92108, Note_on_c, 0, 55, 58
1, 92109, Control_c, 0, 64, 57
1, 92111, Note_on_c, 0, 59, 62
1, 92112, Note_on_c, 0, 71, 62
1, 92124, Note_on_c, 0, 64, 49
1, 92124, Control_c, 0, 64, 29
1, 92128, Note_off_c, 0, 53, 66
1, 92130, Note_off_c, 0, 55, 61
1, 92131, Note_off_c, 0, 71, 68
1, 92136, Note_off_c, 0, 59, 63
1, 92139, Control_c, 0, 64, 0
1, 92150, Note_off_c, 0, 64, 57
1, 92313, Note_on_c, 0, 32, 59
1, 92317, Control_c, 0, 64, 25
1, 92331, Control_c, 0, 64, 38
1, 92347, Control_c, 0, 64, 47
1, 92362, Control_c, 0, 64, 58
1, 92369, Note_on_c, 0, 54, 22
1, 92377, Control_c, 0, 64, 68
1, 92392, Control_c, 0, 64, 103
1, 92394, Note_on_c, 0, 44, 64
1, 92406, Control_c, 0, 64, 127
1, 92445, Note_off_c, 0, 44, 60
1, 92466, Note_on_c, 0, 56, 65
1, 92470, Note_off_c, 0, 32, 0
1, 92480, Control_c, 0, 67, 112
1, 92484, Note_off_c, 0, 54, 38
1, 92495, Control_c, 0, 67, 88
1, 92510, Poly_aftertouch_c, 0, 32, 0
1, 92510, Control_c, 0, 67, 64
1, 92519, Note_off_c, 0, 56, 62
1, 92525, Control_c, 0, 67, 41
1, 92540, Control_c, 0, 67, 22
1, 92549, Note_on_c, 0, 44, 65
1, 92555, Control_c, 0, 67, 0
1, 92586, Note_off_c, 0, 44, 65
1, 92640, Note_on_c, 0, 68, 59
1, 92677, Note_off_c, 0, 68, 53
1, 92701, Note_on_c, 0, 56, 75
1, 92737, Note_off_c, 0, 56, 62
1, 92770, Note_on_c, 0, 44, 81
1, 92848, Note_on_c, 0, 56, 77
1, 92892, Note_off_c, 0, 56, 67
1, 92916, Note_on_c, 0, 68, 77
1, 92961, Note_off_c, 0, 68, 61
1, 92988, Note_off_c, 0, 44, 34
1, 92993, Note_on_c, 0, 56, 83
1, 93028, Note_off_c, 0, 56, 62
1, 93063, Note_on_c, 0, 80, 91
1, 93125, Note_off_c, 0, 80, 60
1, 93132, Note_on_c, 0, 68, 86
1, 93182, Note_off_c, 0, 68, 59
1, 93211, Note_on_c, 0, 56, 93
1, 93282, Note_on_c, 0, 68, 89
1, 93340, Note_off_c, 0, 68, 60
1, 93341, Note_on_c, 0, 75, 15
1, 93354, Note_on_c, 0, 80, 88
1, 93388, Note_off_c, 0, 75, 48
1, 93393, Note_off_c, 0, 80, 66
1, 93403, Note_off_c, 0, 56, 64
1, 93424, Note_on_c, 0, 68, 89
1, 93443, Note_off_c, 0, 68, 70
1, 93483, Note_on_c, 0, 69, 19
1, 93500, Note_on_c, 0, 92, 100
1, 93522, Note_off_c, 0, 69, 52
1, 93563, Note_on_c, 0, 80, 92
1, 93564, Note_off_c, 0, 92, 65
1, 93593, Control_c, 0, 64, 79
1, 93608, Control_c, 0, 64, 50
1, 93609, Note_off_c, 0, 80, 66
1, 93622, Control_c, 0, 64, 0
1, 93771, Control_c, 0, 64, 37
1, 93786, Control_c, 0, 64, 60
1, 93791, Note_on_c, 0, 87, 102
1, 93793, Note_on_c, 0, 75, 93
1, 93796, Note_on_c, 0, 60, 90
1, 93796, Note_on_c, 0, 82, 83
1, 93801, Control_c, 0, 64, 88
1, 93814, Note_off_c, 0, 82, 74
1, 93816, Control_c, 0, 64, 127
1, 93825, Note_on_c, 0, 69, 49
1, 93825, Note_off_c, 0, 75, 61
1, 93846, Note_on_c, 0, 86, 87
1, 93847, Note_off_c, 0, 69, 0
1, 93847, Note_on_c, 0, 69, 48
1, 93850, Note_on_c, 0, 89, 101
1, 93852, Note_on_c, 0, 74, 102
1, 93854, Note_on_c, 0, 77, 103
1, 93861, Note_off_c, 0, 60, 68
1, 93879, Note_off_c, 0, 74, 71
1, 93886, Note_off_c, 0, 69, 65
1, 93901, Poly_aftertouch_c, 0, 66, 0
1, 93905, Note_off_c, 0, 87, 63
1, 93991, Note_off_c, 0, 89, 62
1, 94012, Note_off_c, 0, 86, 64
1, 94051, Note_off_c, 0, 77, 65
1, 94178, Control_c, 0, 67, 9
1, 94224, Note_on_c, 0, 44, 77
1, 94310, Note_on_c, 0, 56, 58
1, 94326, Control_c, 0, 67, 8
1, 94341, Control_c, 0, 67, 0
1, 94344, Note_off_c, 0, 56, 66
1, 94373, Note_on_c, 0, 68, 64
1, 94409, Note_off_c, 0, 44, 56
1, 94433, Note_on_c, 0, 56, 73
1, 94433, Note_off_c, 0, 68, 56
1, 94460, Note_off_c, 0, 56, 69
1, 94527, Note_on_c, 0, 68, 71
1, 94581, Note_off_c, 0, 68, 58
1, 94588, Note_on_c, 0, 56, 68
1, 94612, Note_off_c, 0, 56, 69
1, 94659, Note_on_c, 0, 56, 94
1, 94700, Poly_aftertouch_c, 0, 58, 0
1, 94708, Note_off_c, 0, 56, 61
1, 94743, Note_on_c, 0, 68, 68
1, 94799, Note_off_c, 0, 68, 57
1, 94806, Note_on_c, 0, 80, 75
1, 94868, Note_off_c, 0, 80, 60
1, 94894, Note_on_c, 0, 68, 69
1, 94919, Note_off_c, 0, 68, 64
1, 94943, Note_on_c, 0, 80, 79
1, 95002, Note_off_c, 0, 80, 57
1, 95008, Note_on_c, 0, 68, 76
1, 95016, Control_c, 0, 64, 86
1, 95031, Control_c, 0, 64, 63
1, 95045, Control_c, 0, 64, 44
1, 95053, Note_off_c, 0, 68, 58
1, 95060, Control_c, 0, 64, 0
1, 95149, Control_c, 0, 64, 20
1, 95164, Control_c, 0, 64, 50
1, 95166, Note_on_c, 0, 74, 72
1, 95169, Note_on_c, 0, 82, 72
1, 95169, Note_on_c, 0, 86, 82
1, 95172, Note_on_c, 0, 70, 79
1, 95177, Note_on_c, 0, 66, 79
1, 95179, Control_c, 0, 64, 65
1, 95187, Note_off_c, 0, 74, 73
1, 95190, Note_off_c, 0, 82, 70
1, 95193, Control_c, 0, 64, 81
1, 95199, Note_off_c, 0, 70, 61
1, 95208, Control_c, 0, 64, 82
1, 95223, Note_on_c, 0, 60, 80
1, 95223, Control_c, 0, 64, 74
1, 95232, Note_on_c, 0, 87, 89
1, 95236, Poly_aftertouch_c, 0, 59, 127
1, 95238, Control_c, 0, 64, 63
1, 95243, Note_on_c, 0, 75, 77
1, 95248, Note_off_c, 0, 66, 65
1, 95253, Note_off_c, 0, 86, 63
1, 95253, Control_c, 0, 64, 47
1, 95256, Poly_aftertouch_c, 0, 76, 127
1, 95268, Control_c, 0, 64, 0
1, 95268, Poly_aftertouch_c, 0, 59, 0
1, 95271, Note_off_c, 0, 60, 66
1, 95274, Note_off_c, 0, 75, 61
1, 95277, Poly_aftertouch_c, 0, 76, 0
1, 95280, Note_off_c, 0, 87, 65
1, 95387, Note_on_c, 0, 65, 77
1, 95387, Note_on_c, 0, 81, 87
1, 95390, Note_on_c, 0, 69, 77
1, 95398, Note_on_c, 0, 61, 69
1, 95401, Control_c, 0, 64, 19
1, 95405, Note_on_c, 0, 77, 54
1, 95405, Note_off_c, 0, 69, 71
1, 95416, Control_c, 0, 64, 39
1, 95430, Note_off_c, 0, 77, 59
1, 95431, Control_c, 0, 64, 52
1, 95445, Control_c, 0, 64, 65
1, 95446, Note_on_c, 0, 56, 82
1, 95448, Note_off_c, 0, 65, 63
1, 95449, Note_on_c, 0, 82, 92
1, 95452, Note_on_c, 0, 70, 91
1, 95460, Control_c, 0, 64, 75
1, 95461, Note_off_c, 0, 61, 67
1, 95469, Note_off_c, 0, 81, 62
1, 95470, Note_off_c, 0, 56, 71
1, 95475, Control_c, 0, 64, 76
1, 95490, Control_c, 0, 64, 70
1, 95498, Note_off_c, 0, 70, 59
1, 95500, Note_off_c, 0, 82, 69
1, 95505, Control_c, 0, 64, 62
1, 95519, Control_c, 0, 64, 48
1, 95534, Control_c, 0, 64, 14
1, 95550, Control_c, 0, 64, 0
1, 95616, Note_on_c, 0, 85, 95
1, 95622, Note_on_c, 0, 60, 76
1, 95625, Note_on_c, 0, 81, 81
1, 95634, Note_on_c, 0, 66, 74
1, 95636, Note_on_c, 0, 69, 62
1, 95649, Note_off_c, 0, 81, 66
1, 95681, Note_on_c, 0, 81, 76
1, 95682, Note_on_c, 0, 89, 109
1, 95685, Note_on_c, 0, 77, 92
1, 95686, Note_on_c, 0, 86, 88
1, 95691, Control_c, 0, 64, 43
1, 95694, Note_on_c, 0, 74, 89
1, 95706, Control_c, 0, 64, 66
1, 95706, Note_off_c, 0, 60, 64
1, 95714, Note_off_c, 0, 74, 69
1, 95718, Note_off_c, 0, 66, 65
1, 95720, Note_off_c, 0, 69, 66
1, 95721, Control_c, 0, 64, 127
1, 95734, Note_off_c, 0, 85, 63
1, 95765, Note_off_c, 0, 89, 69
1, 95783, Note_off_c, 0, 86, 63
1, 95806, Note_off_c, 0, 77, 60
1, 95807, Note_off_c, 0, 81, 48
1, 95954, Note_on_c, 0, 44, 72
1, 96033, Note_on_c, 0, 56, 67
1, 96072, Note_off_c, 0, 56, 63
1, 96100, Note_on_c, 0, 68, 60
1, 96129, Note_off_c, 0, 44, 57
1, 96158, Note_off_c, 0, 68, 56
1, 96160, Note_on_c, 0, 56, 69
1, 96182, Note_off_c, 0, 56, 66
1, 96247, Note_on_c, 0, 68, 78
1, 96308, Note_on_c, 0, 56, 72
1, 96320, Note_off_c, 0, 68, 51
1, 96346, Note_off_c, 0, 56, 69
1, 96385, Note_on_c, 0, 56, 79
1, 96439, Note_on_c, 0, 55, 11
1, 96442, Note_off_c, 0, 56, 63
1, 96469, Note_on_c, 0, 68, 71
1, 96489, Note_off_c, 0, 55, 54
1, 96517, Note_off_c, 0, 68, 57
1, 96533, Note_on_c, 0, 80, 81
1, 96584, Note_off_c, 0, 80, 61
1, 96603, Note_on_c, 0, 68, 68
1, 96622, Note_off_c, 0, 68, 65
1, 96657, Note_on_c, 0, 80, 81
1, 96720, Note_off_c, 0, 80, 61
1, 96730, Note_on_c, 0, 68, 74
1, 96785, Note_off_c, 0, 68, 60
1, 96794, Control_c, 0, 64, 66
1, 96809, Control_c, 0, 64, 46
1, 96824, Control_c, 0, 64, 0
1, 96897, Note_on_c, 0, 74, 68
1, 96898, Note_on_c, 0, 82, 74
1, 96898, Note_on_c, 0, 86, 83
1, 96898, Control_c, 0, 64, 36
1, 96905, Note_on_c, 0, 70, 77
1, 96911, Note_on_c, 0, 66, 73
1, 96913, Control_c, 0, 64, 55
1, 96919, Note_off_c, 0, 74, 72
1, 96921, Note_off_c, 0, 82, 69
1, 96928, Note_on_c, 0, 59, 43
1, 96928, Note_off_c, 0, 70, 68
1, 96928, Control_c, 0, 64, 67
1, 96943, Control_c, 0, 64, 68
1, 96956, Note_on_c, 0, 87, 90
1, 96958, Control_c, 0, 64, 61
1, 96958, Note_on_c, 0, 60, 76
1, 96961, Note_on_c, 0, 75, 92
1, 96966, Note_off_c, 0, 59, 0
1, 96966, Note_on_c, 0, 59, 41
1, 96972, Control_c, 0, 64, 46
1, 96978, Note_off_c, 0, 86, 63
1, 96984, Note_off_c, 0, 66, 65
1, 96987, Control_c, 0, 64, 0
1, 96997, Note_off_c, 0, 59, 63
1, 97000, Note_off_c, 0, 75, 59
1, 97005, Note_off_c, 0, 87, 65
1, 97007, Note_off_c, 0, 60, 65
1, 97120, Note_on_c, 0, 81, 84
1, 97121, Note_on_c, 0, 69, 77
1, 97132, Note_on_c, 0, 65, 64
1, 97138, Note_off_c, 0, 69, 70
1, 97143, Note_on_c, 0, 61, 71
1, 97149, Note_on_c, 0, 71, 37
1, 97150, Note_off_c, 0, 71, 127
1, 97152, Note_on_c, 0, 77, 34
1, 97179, Note_on_c, 0, 82, 91
1, 97186, Note_on_c, 0, 56, 72
1, 97186, Note_on_c, 0, 70, 87
1, 97188, Control_c, 0, 64, 30
1, 97199, Note_off_c, 0, 81, 63
1, 97202, Note_off_c, 0, 77, 0
1, 97202, Note_on_c, 0, 77, 12
1, 97202, Control_c, 0, 64, 49
1, 97217, Control_c, 0, 64, 63
1, 97232, Control_c, 0, 64, 85
1, 97242, Note_off_c, 0, 65, 63
1, 97247, Control_c, 0, 64, 127
1, 97262, Note_off_c, 0, 61, 64
1, 97271, Note_off_c, 0, 70, 60
1, 97273, Note_off_c, 0, 56, 66
1, 97292, Control_c, 0, 67, 11
1, 97307, Control_c, 0, 67, 22
1, 97309, Note_off_c, 0, 82, 64
1, 97318, Note_off_c, 0, 77, 42
1, 97321, Control_c, 0, 67, 41
1, 97336, Control_c, 0, 67, 75
1, 97351, Control_c, 0, 67, 109
1, 97366, Control_c, 0, 67, 127
1, 97476, Poly_aftertouch_c, 0, 61, 127
1, 97525, Poly_aftertouch_c, 0, 61, 0
1, 97560, Note_on_c, 0, 69, 75
1, 97563, Note_on_c, 0, 85, 78
1, 97566, Note_on_c, 0, 67, 65
1, 97568, Note_on_c, 0, 73, 79
1, 97569, Note_on_c, 0, 61, 63
1, 97573, Control_c, 0, 64, 82
1, 97574, Note_on_c, 0, 77, 69
1, 97582, Note_off_c, 0, 69, 71
1, 97585, Note_off_c, 0, 67, 66
1, 97587, Control_c, 0, 64, 60
1, 97594, Note_off_c, 0, 85, 62
1, 97598, Note_off_c, 0, 77, 66
1, 97601, Note_off_c, 0, 61, 68
1, 97602, Control_c, 0, 64, 32
1, 97608, Note_off_c, 0, 73, 64
1, 97617, Control_c, 0, 64, 0
1, 97768, Note_on_c, 0, 34, 78
1, 97821, Note_off_c, 0, 34, 65
1, 97843, Note_on_c, 0, 61, 69
1, 97849, Note_on_c, 0, 46, 62
1, 97849, Note_on_c, 0, 65, 64
1, 97872, Note_off_c, 0, 61, 68
1, 97881, Note_off_c, 0, 46, 67
1, 97917, Note_on_c, 0, 55, 46
1, 97918, Note_on_c, 0, 67, 73
1, 97922, Note_on_c, 0, 64, 71
1, 97950, Note_off_c, 0, 65, 63
1, 97965, Note_on_c, 0, 46, 48
1, 97993, Note_off_c, 0, 46, 55
1, 98012, Note_on_c, 0, 53, 61
1, 98046, Note_off_c, 0, 53, 65
1, 98069, Note_on_c, 0, 46, 64
1, 98100, Note_off_c, 0, 46, 67
1, 98162, Note_on_c, 0, 46, 61
1, 98190, Note_off_c, 0, 46, 67
1, 98223, Note_on_c, 0, 34, 76
1, 98263, Note_off_c, 0, 34, 64
1, 98324, Note_on_c, 0, 46, 22
1, 98356, Note_off_c, 0, 46, 0
1, 98385, Note_on_c, 0, 46, 47
1, 98393, Poly_aftertouch_c, 0, 61, 127
1, 98431, Note_off_c, 0, 46, 66
1, 98468, Note_on_c, 0, 53, 48
1, 98495, Note_off_c, 0, 53, 58
1, 98541, Note_on_c, 0, 46, 42
1, 98594, Note_off_c, 0, 46, 0
1, 98607, Note_on_c, 0, 46, 55
1, 98650, Note_off_c, 0, 46, 66
1, 98690, Note_on_c, 0, 34, 75
1, 98732, Note_off_c, 0, 34, 63
1, 98773, Note_on_c, 0, 46, 48
1, 98801, Note_off_c, 0, 46, 56
1, 98869, Note_on_c, 0, 46, 41
1, 98899, Note_off_c, 0, 46, 52
1, 98916, Note_on_c, 0, 53, 52
1, 98946, Note_off_c, 0, 53, 58
1, 98979, Note_on_c, 0, 46, 57
1, 99007, Note_off_c, 0, 46, 67
1, 99053, Note_on_c, 0, 46, 67
1, 99092, Note_off_c, 0, 46, 64
1, 99132, Note_on_c, 0, 34, 71
1, 99167, Note_off_c, 0, 34, 65
1, 99222, Note_on_c, 0, 46, 35
1, 99255, Note_off_c, 0, 46, 51
1, 99280, Note_on_c, 0, 34, 69
1, 99300, Note_off_c, 0, 67, 56
1, 99301, Note_off_c, 0, 64, 58
1, 99304, Poly_aftertouch_c, 0, 61, 0
1, 99310, Note_off_c, 0, 55, 61
1, 99325, Note_off_c, 0, 34, 63
1, 99438, Poly_aftertouch_c, 0, 46, 0
1, 99440, Note_on_c, 0, 34, 63
1, 99480, Note_off_c, 0, 34, 58
1, 99509, Note_on_c, 0, 32, 66
1, 99572, Note_on_c, 0, 34, 69
1, 99572, Note_off_c, 0, 32, 61
1, 99605, Note_off_c, 0, 34, 65
1, 99632, Note_on_c, 0, 65, 74
1, 99635, Note_on_c, 0, 53, 61
1, 99637, Note_on_c, 0, 61, 68
1, 99658, Note_off_c, 0, 53, 62
1, 99666, Note_off_c, 0, 61, 68
1, 99676, Note_on_c, 0, 46, 3
1, 99694, Note_on_c, 0, 67, 76
1, 99703, Note_on_c, 0, 64, 65
1, 99709, Note_on_c, 0, 55, 59
1, 99713, Note_off_c, 0, 65, 63
1, 99719, Note_off_c, 0, 67, 66
1, 99724, Note_off_c, 0, 46, 58
1, 99728, Note_on_c, 0, 53, 74
1, 99732, Note_off_c, 0, 55, 63
1, 99739, Note_off_c, 0, 64, 62
1, 99775, Note_off_c, 0, 53, 65
1, 99814, Note_on_c, 0, 46, 66
1, 99844, Note_off_c, 0, 46, 67
1, 99888, Note_on_c, 0, 53, 71
1, 99891, Note_on_c, 0, 65, 70
1, 99899, Note_on_c, 0, 61, 71
1, 99906, Note_off_c, 0, 53, 68
1, 99915, Note_off_c, 0, 65, 69
1, 99926, Note_on_c, 0, 46, 16
1, 99938, Note_on_c, 0, 34, 79
1, 99944, Note_on_c, 0, 68, 87
1, 99945, Note_on_c, 0, 64, 75
1, 99961, Note_on_c, 0, 56, 65
1, 99968, Note_off_c, 0, 46, 41
1, 99999, Note_off_c, 0, 34, 59
1, 100006, Note_off_c, 0, 61, 55
1, 100037, Note_on_c, 0, 46, 26
1, 100042, Control_c, 0, 64, 14
1, 100064, Control_c, 0, 64, 22
1, 100079, Control_c, 0, 64, 28
1, 100094, Control_c, 0, 64, 32
1, 100102, Note_off_c, 0, 46, 0
1, 100102, Note_on_c, 0, 46, 3
1, 100109, Control_c, 0, 64, 34
1, 100124, Control_c, 0, 64, 36
1, 100140, Note_off_c, 0, 46, 61
1, 100154, Note_on_c, 0, 53, 66
1, 100185, Note_off_c, 0, 64, 57
1, 100186, Note_off_c, 0, 56, 64
1, 100202, Note_off_c, 0, 68, 59
1, 100203, Note_off_c, 0, 53, 62
1, 100228, Control_c, 0, 64, 36
1, 100237, Note_on_c, 0, 46, 66
1, 100242, Control_c, 0, 64, 37
1, 100257, Control_c, 0, 64, 38
1, 100262, Note_on_c, 0, 65, 73
1, 100270, Note_off_c, 0, 46, 66
1, 100272, Control_c, 0, 64, 38
1, 100285, Note_on_c, 0, 61, 66
1, 100291, Note_on_c, 0, 53, 73
1, 100302, Control_c, 0, 64, 36
1, 100311, Note_off_c, 0, 65, 65
1, 100312, Note_off_c, 0, 61, 67
1, 100316, Control_c, 0, 64, 28
1, 100317, Note_off_c, 0, 53, 68
1, 100330, Note_on_c, 0, 46, 64
1, 100331, Control_c, 0, 64, 0
1, 100371, Note_off_c, 0, 46, 64
1, 100401, Note_on_c, 0, 34, 82
1, 100455, Note_off_c, 0, 34, 58
1, 100470, Note_on_c, 0, 53, 69
1, 100473, Note_on_c, 0, 61, 70
1, 100475, Note_on_c, 0, 65, 71
1, 100489, Note_off_c, 0, 53, 67
1, 100499, Note_off_c, 0, 61, 70
1, 100512, Note_on_c, 0, 46, 12
1, 100513, Note_off_c, 0, 46, 127
1, 100532, Note_on_c, 0, 64, 69
1, 100532, Note_on_c, 0, 67, 74
1, 100540, Note_on_c, 0, 55, 72
1, 100559, Poly_aftertouch_c, 0, 46, 127
1, 100589, Poly_aftertouch_c, 0, 46, 0
1, 100593, Note_off_c, 0, 65, 35
1, 100601, Note_on_c, 0, 53, 57
1, 100647, Note_off_c, 0, 53, 64
1, 100679, Note_on_c, 0, 46, 60
1, 100704, Note_off_c, 0, 46, 62
1, 100752, Note_on_c, 0, 46, 62
1, 100791, Note_off_c, 0, 46, 67
1, 100825, Note_on_c, 0, 34, 77
1, 100871, Note_off_c, 0, 34, 66
1, 100916, Note_on_c, 0, 46, 48
1, 100944, Note_off_c, 0, 46, 56
1, 100982, Note_on_c, 0, 46, 62
1, 101024, Poly_aftertouch_c, 0, 61, 127
1, 101025, Note_off_c, 0, 46, 64
1, 101056, Note_on_c, 0, 53, 60
1, 101091, Note_off_c, 0, 53, 65
1, 101127, Note_on_c, 0, 46, 67
1, 101157, Note_off_c, 0, 46, 67
1, 101197, Note_on_c, 0, 46, 72
1, 101241, Note_off_c, 0, 46, 65
1, 101272, Note_on_c, 0, 34, 80
1, 101311, Note_off_c, 0, 34, 64
1, 101416, Note_on_c, 0, 34, 75
1, 101446, Note_off_c, 0, 34, 66
1, 101512, Poly_aftertouch_c, 0, 61, 0
1, 101518, Note_off_c, 0, 64, 38
1, 101541, Note_off_c, 0, 55, 59
1, 101541, Note_off_c, 0, 67, 52
1, 101575, Note_on_c, 0, 34, 62
1, 101632, Note_off_c, 0, 34, 62
1, 101642, Note_on_c, 0, 32, 62
1, 101706, Note_off_c, 0, 32, 62
1, 101709, Note_on_c, 0, 34, 72
1, 101741, Note_off_c, 0, 34, 66
1, 101762, Note_on_c, 0, 65, 74
1, 101770, Note_on_c, 0, 53, 58
1, 101772, Note_on_c, 0, 61, 64
1, 101787, Note_off_c, 0, 65, 71
1, 101792, Note_on_c, 0, 46, 21
1, 101793, Note_off_c, 0, 46, 127
1, 101795, Note_off_c, 0, 53, 61
1, 101802, Note_off_c, 0, 61, 64
1, 101823, Note_on_c, 0, 56, 75
1, 101823, Note_on_c, 0, 68, 80
1, 101826, Note_on_c, 0, 64, 78
1, 101840, Note_off_c, 0, 56, 68
1, 101849, Note_off_c, 0, 68, 63
1, 101849, Poly_aftertouch_c, 0, 46, 127
1, 101865, Note_on_c, 0, 53, 67
1, 101872, Note_off_c, 0, 64, 60
1, 101886, Poly_aftertouch_c, 0, 46, 0
1, 101900, Note_off_c, 0, 53, 61
1, 101959, Note_on_c, 0, 46, 46
1, 101987, Note_off_c, 0, 46, 54
1, 102011, Note_on_c, 0, 61, 78
1, 102011, Note_on_c, 0, 65, 74
1, 102013, Note_on_c, 0, 53, 70
1, 102030, Note_off_c, 0, 65, 67
1, 102033, Note_off_c, 0, 53, 65
1, 102033, Note_off_c, 0, 61, 73
1, 102034, Note_on_c, 0, 63, 41
1, 102037, Note_on_c, 0, 46, 31
1, 102038, Note_on_c, 0, 64, 38
1, 102061, Note_on_c, 0, 69, 85
1, 102066, Note_off_c, 0, 64, 0
1, 102066, Note_on_c, 0, 64, 33
1, 102070, Note_on_c, 0, 34, 82
1, 102070, Note_off_c, 0, 46, 46
1, 102074, Note_on_c, 0, 57, 84
1, 102108, Note_off_c, 0, 63, 52
1, 102133, Note_off_c, 0, 34, 59
1, 102170, Control_c, 0, 64, 12
1, 102184, Control_c, 0, 64, 19
1, 102199, Control_c, 0, 64, 24
1, 102214, Control_c, 0, 64, 29
1, 102216, Poly_aftertouch_c, 0, 46, 127
1, 102228, Control_c, 0, 64, 35
1, 102243, Control_c, 0, 64, 42
1, 102246, Note_off_c, 0, 69, 63
1, 102252, Poly_aftertouch_c, 0, 46, 0
1, 102257, Note_on_c, 0, 53, 67
1, 102258, Control_c, 0, 64, 48
1, 102261, Note_off_c, 0, 57, 57
1, 102273, Control_c, 0, 64, 53
1, 102276, Note_off_c, 0, 64, 60
1, 102288, Control_c, 0, 64, 55
1, 102300, Note_off_c, 0, 53, 63
1, 102303, Control_c, 0, 64, 56
1, 102351, Note_on_c, 0, 46, 66
1, 102362, Note_on_c, 0, 65, 75
1, 102370, Control_c, 0, 64, 55
1, 102383, Note_off_c, 0, 46, 67
1, 102384, Control_c, 0, 64, 53
1, 102392, Note_on_c, 0, 53, 72
1, 102393, Note_on_c, 0, 61, 69
1, 102399, Control_c, 0, 64, 44
1, 102411, Note_off_c, 0, 53, 65
1, 102414, Control_c, 0, 64, 23
1, 102418, Note_off_c, 0, 65, 66
1, 102420, Note_off_c, 0, 61, 67
1, 102428, Control_c, 0, 64, 0
1, 102438, Note_on_c, 0, 46, 54
1, 102466, Note_off_c, 0, 46, 56
1, 102506, Note_on_c, 0, 39, 83
1, 102552, Note_off_c, 0, 39, 64
1, 102577, Note_on_c, 0, 70, 84
1, 102581, Note_on_c, 0, 58, 73
1, 102589, Note_on_c, 0, 66, 61
1, 102591, Note_on_c, 0, 46, 36
1, 102606, Note_off_c, 0, 58, 69
1, 102610, Note_off_c, 0, 66, 62
1, 102613, Note_off_c, 0, 70, 0
1, 102634, Note_off_c, 0, 46, 0
1, 102634, Note_on_c, 0, 46, 36
1, 102636, Note_on_c, 0, 72, 79
1, 102641, Note_on_c, 0, 69, 69
1, 102649, Note_on_c, 0, 60, 65
1, 102650, Poly_aftertouch_c, 0, 70, 127
1, 102664, Poly_aftertouch_c, 0, 70, 0
1, 102704, Note_on_c, 0, 54, 63
1, 102717, Note_off_c, 0, 46, 63
1, 102739, Note_off_c, 0, 54, 65
1, 102772, Note_off_c, 0, 60, 0
1, 102772, Note_on_c, 0, 60, 3
1, 102836, Note_on_c, 0, 46, 69
1, 102908, Note_off_c, 0, 46, 62
1, 102917, Note_on_c, 0, 39, 77
1, 102985, Note_off_c, 0, 39, 63
1, 103030, Note_on_c, 0, 45, 17
1, 103031, Note_off_c, 0, 45, 127
1, 103046, Poly_aftertouch_c, 0, 70, 127
1, 103098, Note_on_c, 0, 46, 46
1, 103150, Note_on_c, 0, 54, 68
1, 103179, Note_off_c, 0, 46, 61
1, 103200, Note_on_c, 0, 58, 70
1, 103202, Note_off_c, 0, 54, 63
1, 103232, Note_off_c, 0, 58, 62
1, 103281, Note_on_c, 0, 46, 77
1, 103343, Note_off_c, 0, 46, 63
1, 103368, Note_on_c, 0, 39, 74
1, 103424, Note_off_c, 0, 39, 63
1, 103445, Note_on_c, 0, 46, 65
1, 103468, Note_off_c, 0, 46, 61
1, 103534, Note_on_c, 0, 46, 66
1, 103584, Note_on_c, 0, 54, 56
1, 103605, Note_off_c, 0, 46, 64
1, 103619, Note_off_c, 0, 54, 66
1, 103632, Note_on_c, 0, 58, 68
1, 103659, Note_off_c, 0, 58, 66
1, 103727, Note_on_c, 0, 46, 52
1, 103752, Note_off_c, 0, 46, 59
1, 103774, Note_on_c, 0, 39, 77
1, 103823, Control_c, 0, 64, 9
1, 103838, Control_c, 0, 64, 10
1, 103871, Note_on_c, 0, 46, 25
1, 103875, Note_off_c, 0, 39, 0
1, 103885, Note_on_c, 0, 39, 39
1, 103888, Note_off_c, 0, 60, 51
1, 103897, Control_c, 0, 64, 10
1, 103911, Note_off_c, 0, 46, 43
1, 103921, Note_off_c, 0, 69, 56
1, 103936, Note_off_c, 0, 72, 58
1, 103948, Poly_aftertouch_c, 0, 70, 0
1, 103979, Note_off_c, 0, 39, 60
1, 104001, Note_on_c, 0, 51, 67
1, 104052, Note_off_c, 0, 51, 63
1, 104086, Note_on_c, 0, 39, 71
1, 104105, Control_c, 0, 64, 10
1, 104128, Note_off_c, 0, 39, 62
1, 104148, Note_on_c, 0, 37, 63
1, 104179, Control_c, 0, 64, 9
1, 104194, Control_c, 0, 64, 8
1, 104208, Control_c, 0, 64, 0
1, 104216, Note_on_c, 0, 39, 74
1, 104219, Note_off_c, 0, 37, 64
1, 104249, Note_off_c, 0, 39, 67
1, 104276, Note_on_c, 0, 46, 50
1, 104289, Note_on_c, 0, 70, 80
1, 104297, Note_on_c, 0, 58, 68
1, 104300, Note_on_c, 0, 66, 62
1, 104306, Note_off_c, 0, 46, 35
1, 104320, Note_off_c, 0, 66, 66
1, 104324, Note_off_c, 0, 58, 66
1, 104348, Note_on_c, 0, 46, 62
1, 104354, Note_on_c, 0, 69, 73
1, 104358, Note_on_c, 0, 72, 74
1, 104362, Note_on_c, 0, 60, 67
1, 104378, Note_off_c, 0, 60, 68
1, 104378, Note_off_c, 0, 72, 71
1, 104382, Note_on_c, 0, 54, 66
1, 104382, Note_off_c, 0, 70, 60
1, 104383, Poly_aftertouch_c, 0, 68, 127
1, 104399, Note_off_c, 0, 69, 63
1, 104404, Note_off_c, 0, 46, 64
1, 104409, Note_off_c, 0, 54, 67
1, 104421, Poly_aftertouch_c, 0, 68, 0
1, 104440, Note_on_c, 0, 58, 52
1, 104463, Note_off_c, 0, 58, 60
1, 104518, Note_on_c, 0, 70, 89
1, 104522, Note_on_c, 0, 46, 70
1, 104524, Note_on_c, 0, 58, 80
1, 104526, Note_on_c, 0, 66, 81
1, 104554, Note_off_c, 0, 58, 70
1, 104556, Note_off_c, 0, 66, 70
1, 104557, Note_off_c, 0, 70, 57
1, 104568, Note_off_c, 0, 46, 62
1, 104584, Note_on_c, 0, 69, 75
1, 104587, Note_on_c, 0, 73, 89
1, 104602, Note_on_c, 0, 39, 74
1, 104606, Note_on_c, 0, 61, 72
1, 104636, Note_off_c, 0, 39, 66
1, 104660, Control_c, 0, 64, 36
1, 104666, Note_on_c, 0, 46, 71
1, 104675, Control_c, 0, 64, 49
1, 104690, Control_c, 0, 64, 58
1, 104692, Note_off_c, 0, 46, 68
1, 104705, Control_c, 0, 64, 64
1, 104720, Control_c, 0, 64, 68
1, 104735, Control_c, 0, 64, 69
1, 104794, Control_c, 0, 64, 68
1, 104795, Note_off_c, 0, 61, 64
1, 104795, Note_off_c, 0, 73, 60
1, 104801, Note_on_c, 0, 49, 18
1, 104804, Note_on_c, 0, 55, 53
1, 104806, Note_off_c, 0, 69, 59
1, 104824, Control_c, 0, 64, 67
1, 104830, Note_off_c, 0, 55, 59
1, 104838, Control_c, 0, 64, 66
1, 104840, Note_off_c, 0, 49, 55
1, 104853, Control_c, 0, 64, 65
1, 104868, Control_c, 0, 64, 63
1, 104869, Note_on_c, 0, 58, 40
1, 104883, Control_c, 0, 64, 60
1, 104897, Note_on_c, 0, 70, 81
1, 104898, Control_c, 0, 64, 59
1, 104902, Note_off_c, 0, 58, 0
1, 104912, Control_c, 0, 64, 57
1, 104916, Note_on_c, 0, 58, 62
1, 104922, Note_on_c, 0, 66, 71
1, 104927, Control_c, 0, 64, 57
1, 104942, Control_c, 0, 64, 56
1, 104944, Note_off_c, 0, 58, 65
1, 104945, Note_on_c, 0, 47, 60
1, 104945, Note_off_c, 0, 66, 62
1, 104947, Note_off_c, 0, 70, 62
1, 104956, Control_c, 0, 64, 55
1, 104971, Control_c, 0, 64, 52
1, 104976, Note_off_c, 0, 47, 61
1, 104986, Control_c, 0, 64, 45
1, 105001, Control_c, 0, 64, 19
1, 105016, Control_c, 0, 64, 0
1, 105025, Note_on_c, 0, 39, 74
1, 105096, Note_off_c, 0, 39, 64
1, 105100, Note_on_c, 0, 46, 74
1, 105102, Note_on_c, 0, 70, 81
1, 105114, Note_on_c, 0, 58, 63
1, 105123, Note_off_c, 0, 70, 69
1, 105128, Note_off_c, 0, 46, 67
1, 105134, Note_off_c, 0, 58, 63
1, 105145, Note_on_c, 0, 69, 61
1, 105162, Note_on_c, 0, 72, 80
1, 105178, Note_on_c, 0, 60, 70
1, 105185, Note_on_c, 0, 46, 73
1, 105229, Note_on_c, 0, 54, 61
1, 105262, Note_off_c, 0, 46, 63
1, 105270, Note_off_c, 0, 54, 64
1, 105306, Note_on_c, 0, 58, 52
1, 105328, Note_off_c, 0, 58, 59
1, 105379, Note_on_c, 0, 46, 66
1, 105416, Note_off_c, 0, 46, 67
1, 105433, Poly_aftertouch_c, 0, 70, 127
1, 105450, Note_on_c, 0, 39, 76
1, 105509, Note_off_c, 0, 39, 63
1, 105525, Note_on_c, 0, 46, 76
1, 105552, Note_off_c, 0, 46, 67
1, 105558, Poly_aftertouch_c, 0, 66, 127
1, 105609, Note_on_c, 0, 46, 70
1, 105685, Note_on_c, 0, 54, 56
1, 105692, Note_off_c, 0, 46, 65
1, 105716, Note_off_c, 0, 54, 66
1, 105740, Note_on_c, 0, 58, 43
1, 105766, Note_off_c, 0, 58, 55
1, 105806, Note_on_c, 0, 46, 73
1, 105838, Note_off_c, 0, 46, 66
1, 105877, Note_on_c, 0, 39, 80
1, 105938, Note_off_c, 0, 39, 59
1, 105949, Note_on_c, 0, 46, 69
1, 105981, Note_off_c, 0, 60, 44
1, 105997, Note_off_c, 0, 46, 59
1, 106010, Note_off_c, 0, 72, 51
1, 106026, Note_on_c, 0, 39, 78
1, 106041, Poly_aftertouch_c, 0, 66, 0
1, 106041, Note_off_c, 0, 69, 60
1, 106067, Poly_aftertouch_c, 0, 70, 0
1, 106094, Note_off_c, 0, 39, 62
1, 106131, Note_on_c, 0, 51, 50
1, 106159, Note_off_c, 0, 51, 64
1, 106196, Note_on_c, 0, 39, 71
1, 106249, Note_off_c, 0, 39, 46
1, 106266, Note_on_c, 0, 37, 73
1, 106333, Note_on_c, 0, 39, 75
1, 106335, Note_off_c, 0, 37, 64
1, 106363, Note_off_c, 0, 39, 66
1, 106387, Note_on_c, 0, 46, 52
1, 106393, Note_on_c, 0, 70, 77
1, 106398, Note_on_c, 0, 66, 78
1, 106403, Note_on_c, 0, 58, 62
1, 106416, Note_off_c, 0, 46, 36
1, 106420, Note_off_c, 0, 66, 68
1, 106421, Note_off_c, 0, 70, 62
1, 106422, Note_off_c, 0, 58, 65
1, 106425, Control_c, 0, 64, 9
1, 106440, Control_c, 0, 64, 14
1, 106446, Note_on_c, 0, 69, 87
1, 106449, Note_on_c, 0, 73, 92
1, 106455, Control_c, 0, 64, 16
1, 106457, Note_on_c, 0, 70, 48
1, 106458, Note_on_c, 0, 61, 79
1, 106462, Note_on_c, 0, 46, 65
1, 106470, Control_c, 0, 64, 17
1, 106477, Note_off_c, 0, 70, 60
1, 106480, Note_off_c, 0, 61, 70
1, 106490, Note_on_c, 0, 54, 66
1, 106492, Note_off_c, 0, 73, 64
1, 106496, Note_off_c, 0, 69, 65
1, 106504, Note_off_c, 0, 46, 63
1, 106525, Note_off_c, 0, 54, 65
1, 106529, Control_c, 0, 64, 17
1, 106543, Note_on_c, 0, 58, 53
1, 106544, Control_c, 0, 64, 14
1, 106559, Control_c, 0, 64, 9
1, 106565, Note_off_c, 0, 58, 62
1, 106574, Control_c, 0, 64, 0
1, 106631, Note_on_c, 0, 70, 88
1, 106636, Note_on_c, 0, 66, 79
1, 106638, Note_on_c, 0, 58, 62
1, 106639, Note_off_c, 0, 58, 127
1, 106640, Note_on_c, 0, 46, 56
1, 106658, Note_off_c, 0, 66, 70
1, 106661, Note_off_c, 0, 70, 0
1, 106663, Control_c, 0, 67, 116
1, 106670, Note_on_c, 0, 69, 66
1, 106671, Note_off_c, 0, 46, 66
1, 106677, Control_c, 0, 67, 89
1, 106686, Note_on_c, 0, 74, 94
1, 106690, Note_on_c, 0, 62, 88
1, 106692, Control_c, 0, 67, 57
1, 106698, Poly_aftertouch_c, 0, 70, 127
1, 106703, Note_on_c, 0, 39, 78
1, 106707, Control_c, 0, 67, 30
1, 106723, Control_c, 0, 67, 10
1, 106725, Poly_aftertouch_c, 0, 70, 0
1, 106738, Control_c, 0, 67, 0
1, 106748, Note_off_c, 0, 39, 67
1, 106753, Control_c, 0, 64, 28
1, 106768, Control_c, 0, 64, 42
1, 106782, Control_c, 0, 64, 55
1, 106804, Control_c, 0, 64, 64
1, 106819, Control_c, 0, 64, 67
1, 106832, Note_off_c, 0, 74, 59
1, 106859, Note_on_c, 0, 46, 82
1, 106878, Control_c, 0, 64, 67
1, 106893, Control_c, 0, 64, 69
1, 106899, Note_off_c, 0, 69, 37
1, 106907, Note_on_c, 0, 54, 62
1, 106908, Control_c, 0, 64, 74
1, 106913, Note_off_c, 0, 62, 52
1, 106923, Control_c, 0, 64, 80
1, 106931, Note_off_c, 0, 46, 63
1, 106938, Control_c, 0, 64, 83
1, 106947, Note_off_c, 0, 54, 65
1, 106953, Note_on_c, 0, 58, 59
1, 106972, Note_on_c, 0, 70, 82
1, 106985, Note_off_c, 0, 58, 65
1, 107021, Note_off_c, 0, 70, 63
1, 107037, Note_on_c, 0, 66, 51
1, 107041, Control_c, 0, 64, 83
1, 107050, Note_on_c, 0, 46, 55
1, 107054, Note_on_c, 0, 58, 70
1, 107056, Control_c, 0, 64, 84
1, 107063, Note_off_c, 0, 66, 57
1, 107073, Note_off_c, 0, 46, 65
1, 107086, Control_c, 0, 64, 83
1, 107089, Note_off_c, 0, 58, 60
1, 107100, Control_c, 0, 64, 75
1, 107115, Control_c, 0, 64, 60
1, 107130, Control_c, 0, 64, 37
1, 107145, Control_c, 0, 64, 0
1, 107150, Note_on_c, 0, 39, 80
1, 107204, Control_c, 0, 64, 35
1, 107215, Note_off_c, 0, 39, 61
1, 107219, Control_c, 0, 64, 56
1, 107232, Note_on_c, 0, 51, 69
1, 107233, Control_c, 0, 64, 82
1, 107248, Control_c, 0, 64, 127
1, 107282, Note_off_c, 0, 51, 59
1, 107373, Note_on_c, 0, 77, 93
1, 107382, Note_on_c, 0, 54, 62
1, 107391, Note_on_c, 0, 65, 73
1, 107393, Note_on_c, 0, 73, 70
1, 107397, Note_on_c, 0, 69, 59
1, 107426, Note_off_c, 0, 54, 61
1, 107482, Note_on_c, 0, 61, 54
1, 107510, Note_off_c, 0, 61, 66
1, 107580, Note_on_c, 0, 54, 49
1, 107606, Note_off_c, 0, 54, 58
1, 107658, Note_on_c, 0, 51, 52
1, 107689, Note_off_c, 0, 51, 64
1, 107716, Note_on_c, 0, 39, 76
1, 107758, Note_off_c, 0, 39, 57
1, 107793, Note_on_c, 0, 51, 55
1, 107819, Note_off_c, 0, 51, 57
1, 107870, Note_on_c, 0, 54, 70
1, 107883, Note_off_c, 0, 65, 61
1, 107888, Note_off_c, 0, 69, 54
1, 107904, Note_off_c, 0, 77, 54
1, 107906, Note_off_c, 0, 73, 58
1, 107910, Note_off_c, 0, 54, 65
1, 107953, Note_on_c, 0, 61, 72
1, 107988, Note_off_c, 0, 61, 61
1, 108021, Note_on_c, 0, 54, 76
1, 108042, Note_off_c, 0, 54, 71
1, 108100, Note_on_c, 0, 51, 79
1, 108152, Note_off_c, 0, 51, 64
1, 108160, Control_c, 0, 64, 70
1, 108172, Note_on_c, 0, 39, 90
1, 108175, Control_c, 0, 64, 45
1, 108190, Control_c, 0, 64, 0
1, 108228, Note_on_c, 0, 69, 74
1, 108229, Note_on_c, 0, 75, 80
1, 108230, Note_on_c, 0, 63, 65
1, 108235, Note_off_c, 0, 39, 64
1, 108249, Note_off_c, 0, 69, 71
1, 108249, Control_c, 0, 64, 48
1, 108249, Note_off_c, 0, 63, 68
1, 108264, Control_c, 0, 64, 75
1, 108264, Note_on_c, 0, 51, 50
1, 108279, Control_c, 0, 64, 127
1, 108279, Note_on_c, 0, 73, 93
1, 108283, Note_on_c, 0, 65, 92
1, 108283, Note_on_c, 0, 77, 95
1, 108300, Note_off_c, 0, 51, 56
1, 108328, Note_off_c, 0, 75, 63
1, 108330, Note_off_c, 0, 65, 65
1, 108336, Note_off_c, 0, 77, 65
1, 108342, Note_on_c, 0, 54, 80
1, 108353, Note_off_c, 0, 73, 65
1, 108374, Note_off_c, 0, 54, 64
1, 108401, Note_on_c, 0, 61, 75
1, 108434, Note_off_c, 0, 61, 65
1, 108474, Note_on_c, 0, 54, 51
1, 108491, Note_on_c, 0, 72, 90
1, 108493, Note_on_c, 0, 66, 87
1, 108494, Note_on_c, 0, 78, 88
1, 108498, Note_off_c, 0, 54, 60
1, 108510, Note_off_c, 0, 66, 69
1, 108511, Note_off_c, 0, 72, 68
1, 108511, Note_off_c, 0, 78, 77
1, 108545, Note_on_c, 0, 80, 100
1, 108551, Note_on_c, 0, 75, 88
1, 108552, Note_on_c, 0, 68, 104
1, 108554, Control_c, 0, 64, 55
1, 108559, Note_on_c, 0, 72, 91
1, 108563, Note_on_c, 0, 78, 83
1, 108568, Control_c, 0, 64, 0
1, 108582, Note_on_c, 0, 36, 67
1, 108613, Control_c, 0, 64, 14
1, 108625, Note_off_c, 0, 36, 64
1, 108628, Control_c, 0, 64, 61
1, 108643, Control_c, 0, 64, 127
1, 108649, Note_off_c, 0, 80, 61
1, 108652, Note_on_c, 0, 47, 44
1, 108652, Note_off_c, 0, 78, 57
1, 108658, Note_off_c, 0, 68, 61
1, 108688, Note_off_c, 0, 47, 56
1, 108700, Note_off_c, 0, 72, 60
1, 108745, Note_on_c, 0, 51, 50
1, 108775, Note_off_c, 0, 51, 52
1, 108804, Note_on_c, 0, 57, 50
1, 108822, Note_on_c, 0, 56, 17
1, 108846, Note_off_c, 0, 57, 50
1, 108872, Note_off_c, 0, 75, 33
1, 108873, Note_on_c, 0, 51, 53
1, 108875, Note_off_c, 0, 56, 51
1, 108900, Note_on_c, 0, 75, 68
1, 108911, Note_on_c, 0, 63, 83
1, 108925, Note_on_c, 0, 71, 49
1, 108929, Note_off_c, 0, 51, 59
1, 108948, Note_off_c, 0, 71, 62
1, 108977, Note_off_c, 0, 63, 59
1, 108986, Note_on_c, 0, 51, 59
1, 109052, Note_off_c, 0, 51, 63
1, 109078, Control_c, 0, 64, 97
1, 109081, Note_on_c, 0, 39, 89
1, 109093, Control_c, 0, 64, 58
1, 109094, Note_off_c, 0, 75, 26
1, 109108, Control_c, 0, 64, 0
1, 109136, Note_off_c, 0, 39, 62
1, 109153, Control_c, 0, 64, 26
1, 109168, Note_on_c, 0, 51, 69
1, 109168, Control_c, 0, 64, 57
1, 109175, Note_on_c, 0, 77, 93
1, 109182, Control_c, 0, 64, 127
1, 109189, Note_on_c, 0, 65, 71
1, 109194, Note_on_c, 0, 73, 67
1, 109197, Note_on_c, 0, 69, 59
1, 109197, Note_off_c, 0, 51, 67
1, 109259, Note_on_c, 0, 54, 60
1, 109295, Note_off_c, 0, 54, 64
1, 109329, Note_on_c, 0, 61, 71
1, 109361, Note_off_c, 0, 61, 64
1, 109411, Note_off_c, 0, 77, 0
1, 109411, Note_on_c, 0, 77, 10
1, 109413, Note_on_c, 0, 54, 59
1, 109433, Note_off_c, 0, 54, 64
1, 109485, Note_on_c, 0, 51, 70
1, 109519, Note_off_c, 0, 51, 61
1, 109546, Note_on_c, 0, 39, 85
1, 109600, Note_off_c, 0, 39, 62
1, 109640, Note_off_c, 0, 65, 60
1, 109647, Note_on_c, 0, 51, 37
1, 109672, Note_off_c, 0, 69, 58
1, 109686, Note_off_c, 0, 51, 49
1, 109691, Note_off_c, 0, 77, 40
1, 109698, Note_on_c, 0, 54, 77
1, 109700, Note_off_c, 0, 73, 59
1, 109749, Note_off_c, 0, 54, 59
1, 109773, Note_on_c, 0, 61, 75
1, 109775, Note_on_c, 0, 56, 31
1, 109816, Note_off_c, 0, 56, 53
1, 109821, Note_off_c, 0, 61, 62
1, 109853, Note_on_c, 0, 54, 74
1, 109873, Note_off_c, 0, 54, 71
1, 109924, Note_on_c, 0, 51, 75
1, 109973, Note_off_c, 0, 51, 65
1, 109976, Control_c, 0, 64, 87
1, 109990, Note_on_c, 0, 39, 89
1, 109991, Control_c, 0, 64, 55
1, 110006, Control_c, 0, 64, 0
1, 110039, Note_off_c, 0, 39, 62
1, 110050, Control_c, 0, 64, 36
1, 110061, Note_on_c, 0, 75, 77
1, 110062, Note_on_c, 0, 69, 63
1, 110063, Note_on_c, 0, 63, 63
1, 110065, Control_c, 0, 64, 67
1, 110074, Note_on_c, 0, 51, 55
1, 110080, Control_c, 0, 64, 127
1, 110082, Note_off_c, 0, 69, 65
1, 110087, Note_off_c, 0, 63, 42
1, 110101, Note_off_c, 0, 51, 57
1, 110106, Note_on_c, 0, 65, 101
1, 110107, Note_on_c, 0, 73, 94
1, 110110, Note_on_c, 0, 77, 97
1, 110138, Note_on_c, 0, 54, 81
1, 110142, Note_off_c, 0, 65, 68
1, 110152, Note_off_c, 0, 75, 61
1, 110153, Note_off_c, 0, 77, 65
1, 110170, Note_off_c, 0, 73, 65
1, 110182, Note_off_c, 0, 54, 60
1, 110199, Note_on_c, 0, 61, 76
1, 110232, Note_off_c, 0, 61, 62
1, 110274, Note_on_c, 0, 54, 60
1, 110297, Note_off_c, 0, 54, 61
1, 110306, Note_on_c, 0, 66, 100
1, 110311, Note_on_c, 0, 78, 93
1, 110315, Note_on_c, 0, 72, 71
1, 110320, Note_on_c, 0, 71, 68
1, 110324, Note_off_c, 0, 66, 71
1, 110327, Note_off_c, 0, 78, 75
1, 110336, Note_off_c, 0, 71, 69
1, 110336, Note_off_c, 0, 72, 68
1, 110347, Control_c, 0, 64, 91
1, 110362, Note_on_c, 0, 80, 102
1, 110362, Control_c, 0, 64, 50
1, 110363, Note_on_c, 0, 75, 31
1, 110369, Note_on_c, 0, 68, 101
1, 110370, Note_on_c, 0, 78, 98
1, 110376, Control_c, 0, 64, 0
1, 110380, Note_on_c, 0, 35, 80
1, 110387, Note_on_c, 0, 72, 73
1, 110406, Control_c, 0, 64, 14
1, 110420, Note_off_c, 0, 72, 61
1, 110421, Control_c, 0, 64, 62
1, 110428, Note_on_c, 0, 47, 70
1, 110431, Note_off_c, 0, 78, 65
1, 110434, Note_off_c, 0, 35, 65
1, 110436, Control_c, 0, 64, 127
1, 110446, Note_off_c, 0, 68, 60
1, 110455, Note_off_c, 0, 75, 63
1, 110458, Note_off_c, 0, 47, 66
1, 110462, Note_off_c, 0, 80, 61
1, 110526, Note_on_c, 0, 51, 61
1, 110555, Note_off_c, 0, 51, 61
1, 110569, Note_on_c, 0, 57, 72
1, 110578, Note_on_c, 0, 78, 43
1, 110590, Note_on_c, 0, 54, 47
1, 110605, Note_off_c, 0, 78, 59
1, 110614, Note_off_c, 0, 57, 60
1, 110625, Note_off_c, 0, 54, 55
1, 110638, Note_on_c, 0, 51, 74
1, 110658, Note_on_c, 0, 81, 102
1, 110662, Note_on_c, 0, 75, 95
1, 110668, Note_on_c, 0, 69, 76
1, 110668, Note_on_c, 0, 71, 77
1, 110682, Note_off_c, 0, 51, 63
1, 110683, Note_off_c, 0, 71, 72
1, 110684, Note_off_c, 0, 69, 71
1, 110711, Note_off_c, 0, 75, 62
1, 110720, Note_off_c, 0, 81, 64
1, 110727, Note_on_c, 0, 51, 64
1, 110752, Note_off_c, 0, 51, 68
1, 110770, Control_c, 0, 64, 66
1, 110785, Control_c, 0, 64, 27
1, 110799, Control_c, 0, 64, 0
1, 110819, Note_on_c, 0, 33, 103
1, 110837, Note_on_c, 0, 34, 59
1, 110838, Note_off_c, 0, 34, 127
1, 110859, Control_c, 0, 64, 28
1, 110870, Note_off_c, 0, 33, 66
1, 110873, Control_c, 0, 64, 127
1, 110907, Note_on_c, 0, 47, 80
1, 110933, Note_off_c, 0, 47, 68
1, 110973, Poly_aftertouch_c, 0, 45, 127
1, 110991, Note_on_c, 0, 93, 102
1, 110993, Note_on_c, 0, 81, 100
1, 110994, Note_on_c, 0, 88, 101
1, 110995, Note_on_c, 0, 84, 94
1, 111006, Note_on_c, 0, 52, 79
1, 111010, Note_on_c, 0, 90, 76
1, 111015, Poly_aftertouch_c, 0, 45, 0
1, 111019, Note_off_c, 0, 84, 67
1, 111022, Note_off_c, 0, 81, 66
1, 111022, Note_off_c, 0, 93, 69
1, 111026, Note_off_c, 0, 90, 71
1, 111037, Note_off_c, 0, 88, 69
1, 111057, Note_on_c, 0, 50, 17
1, 111067, Note_off_c, 0, 52, 63
1, 111081, Note_off_c, 0, 50, 0
1, 111086, Note_on_c, 0, 60, 63
1, 111110, Poly_aftertouch_c, 0, 50, 0
1, 111114, Note_off_c, 0, 60, 68
1, 111231, Note_on_c, 0, 45, 72
1, 111295, Note_on_c, 0, 43, 11
1, 111308, Note_on_c, 0, 33, 89
1, 111309, Note_off_c, 0, 45, 58
1, 111311, Control_c, 0, 64, 109
1, 111324, Control_c, 0, 64, 65
1, 111335, Note_on_c, 0, 34, 49
1, 111339, Control_c, 0, 64, 56
1, 111347, Note_off_c, 0, 43, 47
1, 111354, Control_c, 0, 64, 58
1, 111367, Note_off_c, 0, 34, 55
1, 111369, Control_c, 0, 64, 73
1, 111379, Note_on_c, 0, 76, 80
1, 111382, Note_off_c, 0, 33, 65
1, 111384, Control_c, 0, 64, 127
1, 111385, Note_on_c, 0, 72, 77
1, 111393, Note_on_c, 0, 64, 60
1, 111402, Note_on_c, 0, 45, 70
1, 111409, Note_off_c, 0, 72, 67
1, 111413, Note_off_c, 0, 64, 63
1, 111413, Note_off_c, 0, 76, 66
1, 111423, Note_off_c, 0, 45, 67
1, 111448, Note_on_c, 0, 66, 98
1, 111450, Note_on_c, 0, 75, 92
1, 111450, Note_on_c, 0, 78, 88
1, 111465, Note_off_c, 0, 66, 72
1, 111466, Note_off_c, 0, 78, 66
1, 111486, Note_off_c, 0, 75, 66
1, 111494, Note_on_c, 0, 50, 42
1, 111502, Note_on_c, 0, 52, 70
1, 111531, Note_off_c, 0, 50, 54
1, 111537, Note_off_c, 0, 52, 49
1, 111540, Note_on_c, 0, 54, 51
1, 111554, Poly_aftertouch_c, 0, 77, 0
1, 111566, Note_on_c, 0, 60, 46
1, 111576, Note_off_c, 0, 54, 65
1, 111591, Note_on_c, 0, 59, 19
1, 111597, Note_off_c, 0, 60, 54
1, 111627, Note_on_c, 0, 52, 54
1, 111630, Note_off_c, 0, 59, 53
1, 111648, Note_off_c, 0, 52, 62
1, 111717, Note_on_c, 0, 45, 56
1, 111784, Note_off_c, 0, 45, 35
1, 111800, Control_c, 0, 64, 72
1, 111802, Note_on_c, 0, 33, 84
1, 111814, Control_c, 0, 64, 59
1, 111829, Control_c, 0, 64, 48
1, 111844, Control_c, 0, 64, 48
1, 111859, Control_c, 0, 64, 58
1, 111863, Note_off_c, 0, 33, 66
1, 111874, Control_c, 0, 64, 77
1, 111876, Note_on_c, 0, 64, 71
1, 111886, Note_on_c, 0, 60, 69
1, 111887, Note_on_c, 0, 52, 71
1, 111888, Control_c, 0, 64, 127
1, 111892, Note_on_c, 0, 45, 60
1, 111899, Note_off_c, 0, 64, 67
1, 111907, Note_off_c, 0, 52, 66
1, 111914, Note_off_c, 0, 45, 62
1, 111927, Note_off_c, 0, 60, 55
1, 111944, Note_on_c, 0, 63, 84
1, 111948, Note_on_c, 0, 66, 91
1, 111973, Note_off_c, 0, 66, 63
1, 111976, Note_on_c, 0, 52, 77
1, 111991, Note_off_c, 0, 63, 67
1, 112047, Note_off_c, 0, 52, 55
1, 112053, Note_on_c, 0, 60, 53
1, 112083, Note_off_c, 0, 60, 68
1, 112120, Note_on_c, 0, 52, 44
1, 112142, Note_off_c, 0, 52, 61
1, 112220, Note_on_c, 0, 45, 53
1, 112269, Note_off_c, 0, 45, 63
1, 112284, Note_on_c, 0, 33, 79
1, 112316, Note_on_c, 0, 37, 40
1, 112337, Note_off_c, 0, 33, 65
1, 112350, Note_off_c, 0, 37, 46
1, 112387, Note_on_c, 0, 47, 36
1, 112427, Note_off_c, 0, 47, 51
1, 112441, Note_on_c, 0, 52, 80
1, 112500, Note_off_c, 0, 52, 65
1, 112510, Poly_aftertouch_c, 0, 54, 127
1, 112529, Note_on_c, 0, 62, 51
1, 112532, Note_on_c, 0, 60, 51
1, 112544, Poly_aftertouch_c, 0, 54, 0
1, 112554, Note_off_c, 0, 60, 63
1, 112556, Note_off_c, 0, 62, 59
1, 112587, Note_on_c, 0, 52, 58
1, 112609, Note_off_c, 0, 52, 61
1, 112664, Note_on_c, 0, 45, 79
1, 112697, Control_c, 0, 64, 68
1, 112711, Control_c, 0, 64, 41
1, 112720, Note_off_c, 0, 45, 63
1, 112726, Control_c, 0, 64, 0
1, 112733, Note_on_c, 0, 33, 91
1, 112765, Note_on_c, 0, 37, 36
1, 112770, Control_c, 0, 64, 51
1, 112792, Control_c, 0, 64, 127
1, 112797, Note_off_c, 0, 33, 66
1, 112809, Note_on_c, 0, 88, 87
1, 112809, Note_off_c, 0, 37, 32
1, 112812, Note_on_c, 0, 84, 81
1, 112813, Note_on_c, 0, 76, 80
1, 112832, Note_off_c, 0, 84, 71
1, 112834, Note_on_c, 0, 45, 55
1, 112834, Note_off_c, 0, 76, 73
1, 112834, Note_off_c, 0, 88, 68
1, 112869, Note_off_c, 0, 45, 52
1, 112879, Note_on_c, 0, 90, 102
1, 112881, Note_on_c, 0, 87, 89
1, 112885, Note_on_c, 0, 78, 107
1, 112898, Note_on_c, 0, 52, 75
1, 112913, Note_on_c, 0, 85, 46
1, 112940, Note_off_c, 0, 85, 57
1, 112954, Note_on_c, 0, 59, 70
1, 112956, Note_on_c, 0, 54, 30
1, 112959, Note_off_c, 0, 52, 66
1, 112974, Note_off_c, 0, 78, 61
1, 112992, Note_off_c, 0, 54, 55
1, 112993, Note_off_c, 0, 90, 63
1, 113007, Note_off_c, 0, 59, 62
1, 113044, Note_on_c, 0, 50, 42
1, 113078, Note_off_c, 0, 50, 53
1, 113082, Poly_aftertouch_c, 0, 51, 127
1, 113092, Note_off_c, 0, 87, 61
1, 113092, Poly_aftertouch_c, 0, 52, 127
1, 113107, Poly_aftertouch_c, 0, 51, 0
1, 113112, Poly_aftertouch_c, 0, 52, 0
1, 113123, Note_on_c, 0, 92, 101
1, 113125, Note_on_c, 0, 80, 97
1, 113127, Note_on_c, 0, 85, 89
1, 113130, Note_on_c, 0, 45, 80
1, 113143, Note_on_c, 0, 43, 68
1, 113150, Control_c, 0, 64, 60
1, 113165, Control_c, 0, 64, 0
1, 113168, Note_off_c, 0, 43, 59
1, 113169, Note_off_c, 0, 85, 63
1, 113169, Note_off_c, 0, 80, 64
1, 113175, Note_off_c, 0, 45, 66
1, 113177, Note_off_c, 0, 92, 67
1, 113194, Note_on_c, 0, 32, 95
1, 113208, Note_on_c, 0, 31, 85
1, 113224, Control_c, 0, 64, 15
1, 113237, Note_off_c, 0, 31, 65
1, 113239, Control_c, 0, 64, 77
1, 113254, Control_c, 0, 64, 127
1, 113263, Note_off_c, 0, 32, 62
1, 113267, Note_on_c, 0, 44, 89
1, 113279, Note_on_c, 0, 87, 97
1, 113283, Note_on_c, 0, 93, 97
1, 113285, Note_on_c, 0, 81, 86
1, 113287, Note_off_c, 0, 44, 68
1, 113296, Note_off_c, 0, 87, 71
1, 113296, Note_off_c, 0, 93, 76
1, 113303, Note_off_c, 0, 81, 73
1, 113352, Note_on_c, 0, 95, 118
1, 113355, Note_on_c, 0, 90, 98
1, 113356, Note_on_c, 0, 83, 104
1, 113363, Note_on_c, 0, 87, 87
1, 113365, Note_on_c, 0, 54, 86
1, 113381, Note_off_c, 0, 87, 70
1, 113393, Note_off_c, 0, 83, 60
1, 113403, Note_off_c, 0, 95, 70
1, 113407, Note_off_c, 0, 54, 66
1, 113407, Note_off_c, 0, 90, 66
1, 113418, Note_on_c, 0, 60, 83
1, 113446, Note_on_c, 0, 57, 5
1, 113447, Note_on_c, 0, 58, 44
1, 113466, Note_off_c, 0, 60, 65
1, 113472, Note_on_c, 0, 54, 87
1, 113478, Note_off_c, 0, 57, 50
1, 113481, Note_off_c, 0, 58, 33
1, 113514, Note_off_c, 0, 54, 66
1, 113599, Note_on_c, 0, 44, 101
1, 113605, Note_on_c, 0, 96, 97
1, 113606, Note_on_c, 0, 84, 101
1, 113615, Note_on_c, 0, 93, 86
1, 113657, Note_off_c, 0, 44, 63
1, 113660, Note_off_c, 0, 84, 57
1, 113662, Note_off_c, 0, 96, 64
1, 113675, Control_c, 0, 64, 73
1, 113679, Note_on_c, 0, 30, 99
1, 113690, Note_on_c, 0, 32, 80
1, 113690, Control_c, 0, 64, 40
1, 113705, Control_c, 0, 64, 0
1, 113727, Note_off_c, 0, 32, 46
1, 113746, Note_off_c, 0, 93, 0
1, 113767, Note_on_c, 0, 93, 60
1, 113767, Note_off_c, 0, 30, 62
1, 113770, Note_on_c, 0, 97, 93
1, 113771, Note_on_c, 0, 85, 106
1, 113773, Note_on_c, 0, 42, 105
1, 113773, Note_on_c, 0, 95, 91
1, 113776, Note_on_c, 0, 90, 87
1, 113779, Control_c, 0, 64, 53
1, 113794, Note_off_c, 0, 90, 73
1, 113794, Control_c, 0, 64, 127
1, 113800, Poly_aftertouch_c, 0, 31, 0
1, 113801, Note_off_c, 0, 42, 64
1, 113803, Note_off_c, 0, 85, 64
1, 113804, Note_off_c, 0, 97, 67
1, 113812, Note_off_c, 0, 95, 66
1, 113815, Note_off_c, 0, 93, 63
1, 113846, Note_on_c, 0, 98, 105
1, 113849, Note_on_c, 0, 90, 96
1, 113852, Note_on_c, 0, 86, 92
1, 113853, Note_on_c, 0, 93, 79
1, 113853, Note_on_c, 0, 96, 90
1, 113855, Note_on_c, 0, 84, 89
1, 113865, Note_on_c, 0, 95, 76
1, 113869, Note_on_c, 0, 88, 72
1, 113874, Note_on_c, 0, 49, 100
1, 113880, Note_on_c, 0, 94, 46
1, 113881, Note_off_c, 0, 94, 127
1, 113886, Note_off_c, 0, 98, 68
1, 113886, Note_off_c, 0, 88, 69
1, 113892, Note_off_c, 0, 95, 52
1, 113895, Note_off_c, 0, 96, 61
1, 113900, Note_off_c, 0, 90, 68
1, 113900, Note_off_c, 0, 93, 64
1, 113907, Note_off_c, 0, 86, 61
1, 113908, Note_off_c, 0, 84, 65
1, 113913, Control_c, 0, 64, 122
1, 113928, Control_c, 0, 64, 101
1, 113943, Control_c, 0, 64, 98
1, 113949, Note_off_c, 0, 49, 60
1, 113958, Control_c, 0, 64, 98
1, 113960, Note_on_c, 0, 58, 81
1, 113988, Control_c, 0, 64, 98
1, 113997, Note_off_c, 0, 58, 59
1, 114003, Control_c, 0, 64, 106
1, 114017, Control_c, 0, 64, 127
1, 114050, Note_on_c, 0, 73, 103
1, 114050, Note_on_c, 0, 85, 92
1, 114073, Note_on_c, 0, 86, 66
1, 114076, Note_off_c, 0, 73, 61
1, 114080, Note_off_c, 0, 85, 58
1, 114091, Note_off_c, 0, 86, 65
1, 114097, Note_on_c, 0, 82, 10
1, 114112, Poly_aftertouch_c, 0, 49, 0
1, 114115, Note_on_c, 0, 86, 95
1, 114118, Note_on_c, 0, 74, 100
1, 114119, Note_on_c, 0, 72, 100
1, 114121, Note_on_c, 0, 78, 84
1, 114124, Note_on_c, 0, 83, 85
1, 114128, Note_on_c, 0, 81, 79
1, 114131, Note_on_c, 0, 30, 93
1, 114135, Control_c, 0, 64, 64
1, 114146, Note_on_c, 0, 42, 11
1, 114148, Note_on_c, 0, 84, 42
1, 114150, Control_c, 0, 64, 34
1, 114150, Control_c, 0, 67, 11
1, 114158, Note_off_c, 0, 84, 41
1, 114165, Note_off_c, 0, 42, 49
1, 114165, Control_c, 0, 64, 0
1, 114165, Control_c, 0, 67, 13
1, 114195, Control_c, 0, 64, 40
1, 114198, Note_on_c, 0, 42, 90
1, 114203, Note_off_c, 0, 30, 62
1, 114205, Note_off_c, 0, 82, 48
1, 114209, Control_c, 0, 64, 71
1, 114211, Note_off_c, 0, 72, 54
1, 114214, Note_off_c, 0, 74, 57
1, 114217, Note_off_c, 0, 86, 60
1, 114224, Control_c, 0, 64, 127
1, 114227, Note_off_c, 0, 42, 64
1, 114235, Note_off_c, 0, 83, 68
1, 114239, Control_c, 0, 67, 12
1, 114254, Control_c, 0, 67, 10
1, 114256, Note_off_c, 0, 81, 63
1, 114259, Poly_aftertouch_c, 0, 29, 0
1, 114269, Control_c, 0, 67, 0
1, 114271, Note_off_c, 0, 78, 63
1, 114301, Note_on_c, 0, 49, 78
1, 114343, Note_on_c, 0, 50, 34
1, 114349, Note_off_c, 0, 49, 64
1, 114384, Note_on_c, 0, 58, 72
1, 114422, Note_off_c, 0, 58, 60
1, 114433, Note_on_c, 0, 49, 78
1, 114467, Note_off_c, 0, 49, 68
1, 114477, Note_off_c, 0, 50, 39
1, 114527, Note_on_c, 0, 42, 77
1, 114583, Note_off_c, 0, 42, 61
1, 114595, Note_on_c, 0, 30, 87
1, 114611, Note_on_c, 0, 32, 62
1, 114632, Control_c, 0, 64, 92
1, 114643, Note_off_c, 0, 32, 52
1, 114646, Control_c, 0, 64, 57
1, 114661, Control_c, 0, 64, 0
1, 114664, Note_off_c, 0, 30, 62
1, 114678, Note_on_c, 0, 42, 84
1, 114683, Note_on_c, 0, 61, 92
1, 114685, Note_on_c, 0, 73, 84
1, 114701, Note_off_c, 0, 42, 65
1, 114706, Control_c, 0, 64, 37
1, 114721, Note_off_c, 0, 61, 64
1, 114721, Control_c, 0, 64, 61
1, 114725, Note_off_c, 0, 73, 63
1, 114736, Control_c, 0, 64, 127
1, 114750, Note_on_c, 0, 66, 21
1, 114751, Note_on_c, 0, 74, 90
1, 114760, Note_on_c, 0, 60, 86
1, 114764, Note_on_c, 0, 69, 73
1, 114772, Note_on_c, 0, 49, 73
1, 114773, Note_on_c, 0, 62, 63
1, 114773, Note_on_c, 0, 72, 48
1, 114781, Note_off_c, 0, 60, 69
1, 114787, Note_on_c, 0, 71, 44
1, 114794, Note_off_c, 0, 62, 64
1, 114795, Note_off_c, 0, 74, 68
1, 114802, Note_off_c, 0, 66, 63
1, 114811, Note_off_c, 0, 71, 61
1, 114813, Note_off_c, 0, 49, 64
1, 114817, Note_off_c, 0, 72, 53
1, 114825, Note_off_c, 0, 69, 64
1, 114840, Note_on_c, 0, 58, 74
1, 114872, Note_off_c, 0, 58, 64
1, 114885, Poly_aftertouch_c, 0, 50, 127
1, 114896, Note_on_c, 0, 49, 66
1, 114914, Control_c, 0, 67, 10
1, 114921, Note_off_c, 0, 49, 71
1, 114922, Poly_aftertouch_c, 0, 50, 0
1, 114929, Control_c, 0, 67, 14
1, 114944, Control_c, 0, 67, 16
1, 114958, Control_c, 0, 67, 16
1, 114973, Control_c, 0, 67, 17
1, 114985, Note_on_c, 0, 61, 50
1, 114988, Control_c, 0, 67, 18
1, 114996, Note_on_c, 0, 42, 64
1, 115003, Control_c, 0, 67, 19
1, 115018, Control_c, 0, 67, 22
1, 115022, Note_off_c, 0, 61, 50
1, 115040, Control_c, 0, 67, 33
1, 115043, Note_off_c, 0, 42, 60
1, 115055, Control_c, 0, 67, 53
1, 115067, Note_on_c, 0, 30, 93
1, 115069, Control_c, 0, 67, 84
1, 115084, Control_c, 0, 64, 86
1, 115084, Control_c, 0, 67, 116
1, 115098, Control_c, 0, 64, 63
1, 115098, Control_c, 0, 67, 127
1, 115113, Control_c, 0, 64, 52
1, 115128, Control_c, 0, 64, 44
1, 115138, Note_on_c, 0, 61, 76
1, 115143, Control_c, 0, 64, 45
1, 115145, Note_on_c, 0, 49, 85
1, 115147, Note_off_c, 0, 30, 62
1, 115158, Control_c, 0, 64, 52
1, 115163, Note_on_c, 0, 37, 65
1, 115168, Note_off_c, 0, 49, 73
1, 115172, Control_c, 0, 64, 62
1, 115184, Note_off_c, 0, 61, 64
1, 115187, Control_c, 0, 64, 70
1, 115195, Note_off_c, 0, 37, 64
1, 115202, Control_c, 0, 64, 68
1, 115213, Note_on_c, 0, 62, 86
1, 115217, Control_c, 0, 64, 59
1, 115218, Note_on_c, 0, 54, 63
1, 115222, Note_on_c, 0, 48, 80
1, 115225, Note_on_c, 0, 60, 68
1, 115225, Note_on_c, 0, 57, 68
1, 115229, Note_on_c, 0, 50, 68
1, 115232, Control_c, 0, 64, 29
1, 115236, Note_on_c, 0, 37, 62
1, 115246, Control_c, 0, 64, 0
1, 115291, Note_off_c, 0, 50, 0
1, 115310, Note_on_c, 0, 50, 50
1, 115312, Note_off_c, 0, 37, 61
1, 115320, Control_c, 0, 64, 14
1, 115324, Note_on_c, 0, 46, 75
1, 115350, Control_c, 0, 64, 13
1, 115358, Note_off_c, 0, 46, 67
1, 115365, Control_c, 0, 64, 9
1, 115380, Control_c, 0, 64, 8
1, 115387, Note_on_c, 0, 37, 64
1, 115419, Note_off_c, 0, 37, 64
1, 115463, Note_on_c, 0, 37, 64
1, 115526, Note_on_c, 0, 30, 75
1, 115526, Note_off_c, 0, 37, 51
1, 115559, Control_c, 0, 64, 9
1, 115574, Control_c, 0, 64, 9
1, 115583, Note_off_c, 0, 30, 61
1, 115610, Note_on_c, 0, 37, 43
1, 115637, Note_off_c, 0, 37, 51
1, 115690, Note_on_c, 0, 37, 60
1, 115692, Control_c, 0, 64, 9
1, 115706, Control_c, 0, 64, 0
1, 115739, Note_off_c, 0, 37, 64
1, 115770, Note_on_c, 0, 46, 65
1, 115809, Note_off_c, 0, 46, 66
1, 115852, Note_on_c, 0, 37, 56
1, 115877, Control_c, 0, 64, 8
1, 115883, Note_off_c, 0, 37, 64
1, 115892, Control_c, 0, 64, 12
1, 115907, Control_c, 0, 64, 14
1, 115919, Note_on_c, 0, 37, 61
1, 115922, Control_c, 0, 64, 15
1, 115937, Control_c, 0, 64, 15
1, 115967, Note_off_c, 0, 37, 65
1, 115967, Control_c, 0, 64, 16
1, 115982, Control_c, 0, 64, 16
1, 115992, Note_on_c, 0, 30, 74
1, 115996, Control_c, 0, 64, 17
1, 116011, Control_c, 0, 64, 18
1, 116026, Control_c, 0, 64, 19
1, 116041, Control_c, 0, 64, 20
1, 116050, Note_off_c, 0, 30, 59
1, 116056, Control_c, 0, 64, 22
1, 116062, Note_on_c, 0, 37, 46
1, 116070, Control_c, 0, 64, 24
1, 116085, Control_c, 0, 64, 27
1, 116088, Note_off_c, 0, 37, 57
1, 116100, Control_c, 0, 64, 29
1, 116129, Control_c, 0, 64, 29
1, 116156, Note_on_c, 0, 37, 58
1, 116201, Note_off_c, 0, 37, 64
1, 116203, Control_c, 0, 64, 30
1, 116205, Note_off_c, 0, 62, 59
1, 116213, Note_off_c, 0, 60, 44
1, 116218, Control_c, 0, 64, 31
1, 116223, Note_off_c, 0, 57, 37
1, 116226, Note_on_c, 0, 46, 64
1, 116233, Control_c, 0, 64, 33
1, 116248, Control_c, 0, 64, 34
1, 116250, Note_off_c, 0, 54, 43
1, 116262, Note_off_c, 0, 46, 68
1, 116262, Control_c, 0, 64, 35
1, 116277, Control_c, 0, 64, 36
1, 116292, Control_c, 0, 64, 37
1, 116297, Note_off_c, 0, 50, 47
1, 116301, Note_on_c, 0, 37, 56
1, 116308, Control_c, 0, 64, 38
1, 116313, Note_off_c, 0, 48, 52
1, 116323, Control_c, 0, 64, 40
1, 116335, Note_off_c, 0, 37, 64
1, 116337, Control_c, 0, 64, 42
1, 116352, Control_c, 0, 64, 43
1, 116367, Control_c, 0, 64, 45
1, 116372, Note_on_c, 0, 37, 58
1, 116382, Control_c, 0, 64, 46
1, 116397, Control_c, 0, 64, 47
1, 116411, Control_c, 0, 64, 47
1, 116419, Note_off_c, 0, 37, 63
1, 116426, Control_c, 0, 64, 48
1, 116449, Note_on_c, 0, 30, 69
1, 116456, Control_c, 0, 64, 47
1, 116471, Control_c, 0, 64, 45
1, 116486, Control_c, 0, 64, 41
1, 116501, Control_c, 0, 64, 34
1, 116502, Note_off_c, 0, 30, 59
1, 116515, Control_c, 0, 64, 23
1, 116521, Note_on_c, 0, 37, 51
1, 116526, Note_on_c, 0, 49, 71
1, 116535, Note_on_c, 0, 46, 62
1, 116537, Control_c, 0, 64, 11
1, 116552, Control_c, 0, 64, 0
1, 116555, Note_off_c, 0, 37, 58
1, 116566, Note_off_c, 0, 46, 67
1, 116577, Note_off_c, 0, 49, 66
1, 116611, Note_on_c, 0, 50, 71
1, 116614, Note_on_c, 0, 48, 68
1, 116635, Note_on_c, 0, 37, 51
1, 116673, Note_off_c, 0, 37, 63
1, 116704, Note_on_c, 0, 46, 44
1, 116732, Note_off_c, 0, 46, 59
1, 116766, Note_on_c, 0, 37, 58
1, 116799, Note_off_c, 0, 37, 64
1, 116839, Note_on_c, 0, 37, 54
1, 116885, Note_off_c, 0, 37, 62
1, 116905, Note_on_c, 0, 30, 71
1, 116955, Note_off_c, 0, 30, 61
1, 116992, Note_on_c, 0, 37, 36
1, 117055, Note_off_c, 0, 37, 0
1, 117066, Note_on_c, 0, 37, 42
1, 117119, Note_off_c, 0, 37, 60
1, 117156, Note_on_c, 0, 46, 49
1, 117181, Note_off_c, 0, 46, 60
1, 117245, Note_on_c, 0, 37, 29
1, 117263, Note_off_c, 0, 37, 0
1, 117294, Note_on_c, 0, 37, 19
1, 117352, Note_off_c, 0, 37, 62
1, 117380, Note_on_c, 0, 30, 67
1, 117428, Note_off_c, 0, 30, 63
1, 117463, Note_on_c, 0, 37, 38
1, 117494, Note_off_c, 0, 37, 45
1, 117548, Note_on_c, 0, 37, 50
1, 117592, Note_off_c, 0, 37, 63
1, 117628, Note_on_c, 0, 46, 50
1, 117656, Note_off_c, 0, 46, 62
1, 117697, Note_on_c, 0, 37, 56
1, 117732, Note_off_c, 0, 37, 63
1, 117779, Note_on_c, 0, 37, 42
1, 117829, Note_off_c, 0, 37, 59
1, 117846, Note_on_c, 0, 30, 66
1, 117894, Control_c, 0, 64, 9
1, 117898, Note_off_c, 0, 30, 61
1, 117910, Control_c, 0, 64, 12
1, 117925, Control_c, 0, 64, 15
1, 117934, Note_on_c, 0, 37, 16
1, 117940, Control_c, 0, 64, 18
1, 117955, Control_c, 0, 64, 20
1, 117970, Control_c, 0, 64, 22
1, 117984, Control_c, 0, 64, 25
1, 117992, Note_off_c, 0, 37, 0
1, 117992, Note_on_c, 0, 37, 29
1, 117999, Control_c, 0, 64, 28
1, 118014, Control_c, 0, 64, 30
1, 118036, Control_c, 0, 64, 32
1, 118051, Control_c, 0, 64, 33
1, 118059, Note_off_c, 0, 37, 62
1, 118066, Control_c, 0, 64, 34
1, 118080, Control_c, 0, 64, 35
1, 118087, Note_on_c, 0, 46, 64
1, 118087, Note_off_c, 0, 48, 61
1, 118095, Control_c, 0, 64, 35
1, 118110, Control_c, 0, 64, 36
1, 118116, Note_off_c, 0, 46, 67
1, 118124, Note_off_c, 0, 50, 63
1, 118140, Control_c, 0, 64, 37
1, 118167, Note_on_c, 0, 37, 53
1, 118191, Note_off_c, 0, 37, 57
1, 118227, Note_on_c, 0, 37, 49
1, 118229, Control_c, 0, 64, 36
1, 118244, Control_c, 0, 64, 35
1, 118258, Control_c, 0, 64, 32
1, 118273, Control_c, 0, 64, 27
1, 118275, Note_off_c, 0, 37, 64
1, 118288, Control_c, 0, 64, 17
1, 118303, Control_c, 0, 64, 0
1, 118313, Note_on_c, 0, 36, 72
1, 118316, Note_on_c, 0, 30, 66
1, 118323, Note_on_c, 0, 38, 64
1, 118357, Note_off_c, 0, 30, 63
1, 118366, Note_off_c, 0, 38, 64
1, 118367, Note_off_c, 0, 36, 63
1, 118397, Note_on_c, 0, 48, 52
1, 118443, Note_off_c, 0, 48, 66
1, 118483, Note_on_c, 0, 50, 43
1, 118532, Note_off_c, 0, 50, 60
1, 118555, Note_on_c, 0, 48, 44
1, 118590, Note_off_c, 0, 48, 58
1, 118626, Note_on_c, 0, 50, 57
1, 118671, Note_off_c, 0, 50, 57
1, 118703, Note_on_c, 0, 48, 35
1, 118735, Note_off_c, 0, 48, 57
1, 118784, Note_on_c, 0, 58, 73
1, 118793, Note_on_c, 0, 42, 60
1, 118806, Note_off_c, 0, 58, 67
1, 118838, Note_off_c, 0, 42, 58
1, 118848, Note_on_c, 0, 58, 76
1, 118850, Note_on_c, 0, 48, 46
1, 118863, Note_off_c, 0, 58, 69
1, 118889, Note_off_c, 0, 48, 63
1, 118913, Note_on_c, 0, 58, 81
1, 118926, Note_on_c, 0, 50, 48
1, 118937, Note_off_c, 0, 58, 65
1, 118963, Note_off_c, 0, 50, 55
1, 118984, Note_on_c, 0, 56, 74
1, 118988, Note_on_c, 0, 48, 51
1, 119022, Note_off_c, 0, 56, 65
1, 119025, Note_off_c, 0, 48, 65
1, 119063, Note_on_c, 0, 58, 84
1, 119083, Note_on_c, 0, 50, 34
1, 119125, Note_off_c, 0, 50, 50
1, 119127, Note_on_c, 0, 48, 52
1, 119196, Note_off_c, 0, 48, 56
1, 119224, Note_on_c, 0, 42, 61
1, 119286, Note_off_c, 0, 42, 54
1, 119294, Note_on_c, 0, 48, 53
1, 119341, Note_off_c, 0, 48, 64
1, 119375, Note_on_c, 0, 50, 45
1, 119410, Note_off_c, 0, 50, 59
1, 119435, Note_on_c, 0, 48, 46
1, 119476, Note_off_c, 0, 48, 65
1, 119520, Note_on_c, 0, 50, 49
1, 119580, Note_off_c, 0, 50, 57
1, 119590, Note_on_c, 0, 48, 52
1, 119626, Note_off_c, 0, 48, 65
1, 119657, Note_on_c, 0, 42, 70
1, 119724, Note_off_c, 0, 42, 54
1, 119747, Note_on_c, 0, 48, 46
1, 119774, Note_off_c, 0, 48, 59
1, 119803, Note_on_c, 0, 50, 55
1, 119846, Note_off_c, 0, 50, 59
1, 119866, Note_on_c, 0, 48, 57
1, 119925, Note_off_c, 0, 48, 63
1, 119950, Note_on_c, 0, 50, 61
1, 120003, Note_off_c, 0, 50, 53
1, 120027, Note_on_c, 0, 48, 50
1, 120063, Note_off_c, 0, 48, 65
1, 120096, Note_on_c, 0, 56, 81
1, 120099, Note_on_c, 0, 42, 58
1, 120106, Note_off_c, 0, 58, 62
1, 120121, Note_off_c, 0, 56, 69
1, 120145, Note_off_c, 0, 42, 59
1, 120155, Note_on_c, 0, 48, 60
1, 120198, Note_off_c, 0, 48, 65
1, 120232, Note_on_c, 0, 50, 58
1, 120248, Note_on_c, 0, 58, 77
1, 120272, Note_off_c, 0, 58, 66
1, 120283, Note_off_c, 0, 50, 63
1, 120306, Note_on_c, 0, 48, 58
1, 120354, Note_off_c, 0, 48, 64
1, 120389, Note_on_c, 0, 50, 51
1, 120397, Note_on_c, 0, 53, 74
1, 120428, Note_off_c, 0, 53, 67
1, 120433, Note_off_c, 0, 50, 54
1, 120450, Note_on_c, 0, 48, 51
1, 120497, Note_off_c, 0, 48, 65
1, 120533, Note_on_c, 0, 42, 57
1, 120546, Note_on_c, 0, 51, 74
1, 120574, Note_off_c, 0, 51, 67
1, 120588, Note_off_c, 0, 42, 57
1, 120604, Note_on_c, 0, 45, 52
1, 120646, Note_off_c, 0, 45, 63
1, 120666, Note_on_c, 0, 47, 58
1, 120692, Note_on_c, 0, 56, 70
1, 120711, Note_off_c, 0, 47, 59
1, 120712, Control_c, 0, 64, 12
1, 120723, Note_off_c, 0, 56, 65
1, 120727, Control_c, 0, 64, 14
1, 120742, Note_on_c, 0, 45, 51
1, 120742, Control_c, 0, 64, 16
1, 120757, Control_c, 0, 64, 17
1, 120772, Control_c, 0, 64, 18
1, 120776, Note_off_c, 0, 45, 65
1, 120786, Control_c, 0, 64, 19
1, 120801, Control_c, 0, 64, 21
1, 120806, Note_on_c, 0, 47, 58
1, 120816, Control_c, 0, 64, 22
1, 120831, Control_c, 0, 64, 24
1, 120844, Note_on_c, 0, 51, 58
1, 120846, Control_c, 0, 64, 24
1, 120847, Note_off_c, 0, 47, 64
1, 120860, Control_c, 0, 64, 25
1, 120862, Note_on_c, 0, 45, 55
1, 120875, Control_c, 0, 64, 26
1, 120879, Note_off_c, 0, 51, 64
1, 120890, Control_c, 0, 64, 28
1, 120894, Note_off_c, 0, 45, 64
1, 120904, Control_c, 0, 64, 29
1, 120919, Control_c, 0, 64, 31
1, 120934, Control_c, 0, 64, 32
1, 120949, Control_c, 0, 64, 34
1, 120989, Note_on_c, 0, 46, 64
1, 120993, Control_c, 0, 64, 31
1, 120996, Note_on_c, 0, 30, 72
1, 121008, Control_c, 0, 64, 24
1, 121030, Control_c, 0, 64, 8
1, 121032, Note_off_c, 0, 30, 54
1, 121045, Control_c, 0, 64, 0
1, 121048, Note_off_c, 0, 46, 54
1, 121076, Note_on_c, 0, 45, 59
1, 121082, Note_on_c, 0, 47, 59
1, 121128, Note_off_c, 0, 45, 61
1, 121130, Note_off_c, 0, 47, 60
1, 121165, Note_on_c, 0, 48, 53
1, 121214, Note_off_c, 0, 48, 64
1, 121230, Note_on_c, 0, 45, 56
1, 121246, Note_on_c, 0, 47, 38
1, 121263, Note_off_c, 0, 45, 60
1, 121276, Note_off_c, 0, 47, 50
1, 121306, Note_on_c, 0, 46, 57
1, 121346, Note_off_c, 0, 46, 67
1, 121375, Note_on_c, 0, 45, 42
1, 121377, Note_on_c, 0, 47, 29
1, 121404, Note_off_c, 0, 45, 59
1, 121415, Note_off_c, 0, 47, 56
1, 121456, Note_on_c, 0, 58, 80
1, 121466, Note_on_c, 0, 42, 72
1, 121477, Note_off_c, 0, 58, 70
1, 121530, Note_on_c, 0, 58, 77
1, 121542, Note_off_c, 0, 42, 59
1, 121550, Note_off_c, 0, 58, 70
1, 121557, Note_on_c, 0, 48, 60
1, 121589, Note_on_c, 0, 58, 78
1, 121604, Note_off_c, 0, 48, 63
1, 121610, Note_off_c, 0, 58, 70
1, 121646, Note_on_c, 0, 50, 54
1, 121660, Note_on_c, 0, 56, 85
1, 121684, Note_off_c, 0, 50, 63
1, 121703, Note_off_c, 0, 56, 64
1, 121729, Note_on_c, 0, 48, 45
1, 121742, Note_on_c, 0, 58, 82
1, 121756, Note_off_c, 0, 48, 63
1, 121797, Note_on_c, 0, 50, 51
1, 121834, Note_off_c, 0, 50, 51
1, 121857, Note_on_c, 0, 48, 53
1, 121899, Note_off_c, 0, 48, 64
1, 121923, Note_on_c, 0, 42, 69
1, 122004, Note_off_c, 0, 42, 55
1, 122012, Note_on_c, 0, 48, 46
1, 122044, Note_off_c, 0, 48, 64
1, 122067, Note_on_c, 0, 50, 53
1, 122105, Control_c, 0, 64, 15
1, 122109, Note_off_c, 0, 50, 61
1, 122120, Control_c, 0, 64, 23
1, 122135, Control_c, 0, 64, 28
1, 122142, Note_on_c, 0, 48, 50
1, 122149, Control_c, 0, 64, 32
1, 122164, Control_c, 0, 64, 35
1, 122179, Control_c, 0, 64, 39
1, 122183, Note_off_c, 0, 48, 65
1, 122194, Control_c, 0, 64, 46
1, 122209, Control_c, 0, 64, 55
1, 122216, Note_off_c, 0, 58, 64
1, 122222, Note_on_c, 0, 50, 46
1, 122223, Control_c, 0, 64, 61
1, 122238, Control_c, 0, 64, 65
1, 122253, Control_c, 0, 64, 68
1, 122268, Control_c, 0, 64, 70
1, 122282, Control_c, 0, 64, 70
1, 122294, Note_on_c, 0, 48, 52
1, 122300, Note_off_c, 0, 50, 39
1, 122390, Note_on_c, 0, 42, 61
1, 122392, Note_off_c, 0, 48, 37
1, 122427, Note_off_c, 0, 42, 62
1, 122468, Note_on_c, 0, 74, 65
1, 122474, Control_c, 0, 64, 70
1, 122477, Note_on_c, 0, 72, 58
1, 122495, Note_off_c, 0, 74, 66
1, 122500, Note_off_c, 0, 72, 65
1, 122527, Control_c, 0, 64, 69
1, 122528, Note_on_c, 0, 62, 62
1, 122561, Note_off_c, 0, 62, 64
1, 122571, Control_c, 0, 64, 69
1, 122586, Control_c, 0, 64, 68
1, 122601, Control_c, 0, 64, 68
1, 122605, Note_on_c, 0, 60, 59
1, 122616, Control_c, 0, 64, 67
1, 122625, Note_off_c, 0, 60, 63
1, 122630, Control_c, 0, 64, 66
1, 122645, Control_c, 0, 64, 66
1, 122654, Note_on_c, 0, 50, 49
1, 122660, Control_c, 0, 64, 65
1, 122674, Control_c, 0, 64, 65
1, 122700, Note_off_c, 0, 50, 47
1, 122727, Note_on_c, 0, 48, 55
1, 122735, Control_c, 0, 64, 64
1, 122789, Note_off_c, 0, 48, 61
1, 122794, Control_c, 0, 64, 64
1, 122796, Note_on_c, 0, 68, 76
1, 122809, Control_c, 0, 64, 59
1, 122820, Note_on_c, 0, 56, 77
1, 122823, Note_on_c, 0, 42, 60
1, 122824, Control_c, 0, 64, 47
1, 122830, Note_off_c, 0, 68, 61
1, 122839, Control_c, 0, 64, 21
1, 122849, Note_off_c, 0, 56, 67
1, 122853, Control_c, 0, 64, 0
1, 122879, Note_off_c, 0, 42, 57
1, 122894, Note_on_c, 0, 48, 57
1, 122942, Note_off_c, 0, 48, 63
1, 122968, Note_on_c, 0, 58, 75
1, 122969, Note_on_c, 0, 50, 55
1, 122991, Note_off_c, 0, 58, 69
1, 123009, Note_off_c, 0, 50, 61
1, 123045, Note_on_c, 0, 48, 53
1, 123091, Note_off_c, 0, 48, 65
1, 123103, Note_on_c, 0, 65, 53
1, 123111, Note_on_c, 0, 50, 54
1, 123112, Note_on_c, 0, 53, 79
1, 123133, Note_off_c, 0, 65, 67
1, 123139, Note_off_c, 0, 53, 69
1, 123165, Note_off_c, 0, 50, 58
1, 123179, Note_on_c, 0, 48, 52
1, 123225, Note_off_c, 0, 48, 62
1, 123252, Note_on_c, 0, 42, 63
1, 123262, Note_on_c, 0, 51, 78
1, 123299, Note_off_c, 0, 51, 66
1, 123342, Note_on_c, 0, 45, 56
1, 123347, Note_off_c, 0, 42, 54
1, 123388, Note_off_c, 0, 45, 63
1, 123407, Note_on_c, 0, 63, 70
1, 123415, Note_on_c, 0, 47, 54
1, 123425, Note_on_c, 0, 56, 67
1, 123441, Note_off_c, 0, 63, 62
1, 123452, Note_off_c, 0, 47, 59
1, 123454, Note_off_c, 0, 56, 68
1, 123494, Note_on_c, 0, 45, 48
1, 123524, Note_off_c, 0, 45, 59
1, 123545, Note_on_c, 0, 47, 56
1, 123575, Note_on_c, 0, 51, 66
1, 123593, Note_off_c, 0, 47, 59
1, 123605, Note_on_c, 0, 45, 57
1, 123605, Note_off_c, 0, 51, 67
1, 123685, Note_off_c, 0, 45, 57
1, 123724, Note_on_c, 0, 42, 55
1, 123764, Note_off_c, 0, 42, 63
1, 123792, Note_on_c, 0, 59, 59
1, 123800, Note_on_c, 0, 57, 49
1, 123829, Note_off_c, 0, 57, 64
1, 123830, Note_off_c, 0, 59, 61
1, 123864, Note_on_c, 0, 47, 61
1, 123902, Note_off_c, 0, 47, 67
1, 123930, Note_on_c, 0, 45, 56
1, 123968, Note_off_c, 0, 45, 64
1, 124008, Note_on_c, 0, 47, 38
1, 124057, Note_off_c, 0, 47, 55
1, 124085, Note_on_c, 0, 45, 51
1, 124126, Note_off_c, 0, 45, 59
1, 124155, Note_on_c, 0, 35, 56
1, 124163, Note_on_c, 0, 39, 66
1, 124200, Note_off_c, 0, 39, 65
1, 124220, Note_off_c, 0, 35, 57
1, 124266, Note_on_c, 0, 45, 35
1, 124299, Note_off_c, 0, 45, 57
1, 124320, Note_on_c, 0, 44, 59
1, 124326, Note_on_c, 0, 47, 53
1, 124361, Note_off_c, 0, 44, 61
1, 124406, Note_off_c, 0, 47, 55
1, 124411, Note_on_c, 0, 45, 31
1, 124448, Note_off_c, 0, 45, 54
1, 124480, Note_on_c, 0, 39, 50
1, 124518, Note_off_c, 0, 39, 64
1, 124556, Note_on_c, 0, 45, 37
1, 124607, Note_off_c, 0, 45, 57
1, 124677, Control_c, 0, 64, 16
1, 124692, Control_c, 0, 64, 30
1, 124707, Control_c, 0, 64, 42
1, 124722, Control_c, 0, 64, 56
1, 124723, Note_on_c, 0, 27, 51
1, 124737, Control_c, 0, 64, 70
1, 124752, Control_c, 0, 64, 127
1, 124758, Note_off_c, 0, 27, 64
1, 125402, Note_on_c, 0, 104, 53
1, 125474, Note_on_c, 0, 99, 43
1, 125474, Note_off_c, 0, 104, 55
1, 125546, Note_on_c, 0, 95, 50
1, 125551, Note_off_c, 0, 99, 60
1, 125595, Note_off_c, 0, 95, 61
1, 125604, Note_on_c, 0, 102, 62
1, 125659, Note_on_c, 0, 97, 55
1, 125660, Note_off_c, 0, 102, 63
1, 125693, Note_off_c, 0, 97, 66
1, 125708, Note_on_c, 0, 93, 58
1, 125734, Note_off_c, 0, 93, 65
1, 125757, Note_on_c, 0, 92, 57
1, 125787, Note_off_c, 0, 92, 67
1, 125821, Note_on_c, 0, 90, 61
1, 125873, Note_off_c, 0, 90, 67
1, 125876, Note_on_c, 0, 85, 54
1, 125900, Note_off_c, 0, 85, 69
1, 125980, Note_on_c, 0, 80, 66
1, 126030, Note_on_c, 0, 75, 55
1, 126047, Note_off_c, 0, 80, 59
1, 126086, Control_c, 0, 67, 105
1, 126090, Note_off_c, 0, 75, 61
1, 126093, Note_on_c, 0, 71, 51
1, 126101, Control_c, 0, 67, 69
1, 126115, Control_c, 0, 67, 26
1, 126130, Control_c, 0, 67, 0
1, 126132, Note_on_c, 0, 78, 62
1, 126138, Note_off_c, 0, 71, 65
1, 126183, Note_on_c, 0, 73, 61
1, 126189, Note_off_c, 0, 78, 65
1, 126237, Note_off_c, 0, 73, 62
1, 126239, Note_on_c, 0, 69, 61
1, 126281, Note_off_c, 0, 69, 64
1, 126296, Note_on_c, 0, 68, 55
1, 126341, Note_off_c, 0, 68, 51
1, 126343, Note_on_c, 0, 66, 67
1, 126393, Note_on_c, 0, 61, 67
1, 126406, Note_off_c, 0, 66, 65
1, 126433, Note_off_c, 0, 61, 67
1, 126436, Note_on_c, 0, 57, 63
1, 126455, Note_off_c, 0, 57, 66
1, 126532, Note_on_c, 0, 57, 44
1, 126559, Note_on_c, 0, 52, 57
1, 126565, Note_off_c, 0, 57, 53
1, 126599, Note_off_c, 0, 52, 61
1, 126601, Note_on_c, 0, 47, 66
1, 126649, Note_on_c, 0, 54, 74
1, 126654, Note_off_c, 0, 47, 65
1, 126657, Poly_aftertouch_c, 0, 51, 0
1, 126695, Note_on_c, 0, 49, 79
1, 126731, Note_off_c, 0, 54, 63
1, 126746, Note_on_c, 0, 45, 76
1, 126763, Note_off_c, 0, 49, 64
1, 126776, Note_off_c, 0, 45, 67
1, 126793, Note_on_c, 0, 44, 68
1, 126823, Note_on_c, 0, 42, 76
1, 126853, Note_off_c, 0, 44, 61
1, 126877, Note_on_c, 0, 37, 74
1, 126913, Note_off_c, 0, 42, 60
1, 126917, Note_on_c, 0, 33, 83
1, 126939, Note_off_c, 0, 37, 64
1, 126959, Note_off_c, 0, 33, 65
1, 126978, Note_on_c, 0, 37, 94
1, 127037, Note_off_c, 0, 37, 63
1, 127047, Note_on_c, 0, 33, 88
1, 127118, Note_off_c, 0, 33, 64
1, 127156, Note_on_c, 0, 27, 108
1, 127184, Control_c, 0, 64, 65
1, 127199, Note_on_c, 0, 26, 42
1, 127199, Control_c, 0, 64, 39
1, 127213, Control_c, 0, 64, 0
1, 127220, Poly_aftertouch_c, 0, 44, 0
1, 127226, Note_on_c, 0, 33, 73
1, 127230, Note_off_c, 0, 26, 41
1, 127256, Poly_aftertouch_c, 0, 44, 0
1, 127258, Control_c, 0, 64, 37
1, 127272, Control_c, 0, 64, 63
1, 127273, Note_off_c, 0, 33, 64
1, 127287, Control_c, 0, 64, 127
1, 127303, Note_on_c, 0, 37, 55
1, 127304, Note_off_c, 0, 27, 63
1, 127345, Note_off_c, 0, 37, 62
1, 127378, Note_on_c, 0, 42, 67
1, 127412, Note_off_c, 0, 42, 62
1, 127448, Note_on_c, 0, 39, 68
1, 127453, Note_on_c, 0, 45, 66
1, 127479, Note_off_c, 0, 45, 65
1, 127492, Note_on_c, 0, 42, 80
1, 127500, Note_on_c, 0, 47, 23
1, 127510, Note_on_c, 0, 49, 79
1, 127515, Note_off_c, 0, 39, 64
1, 127543, Note_off_c, 0, 47, 55
1, 127548, Note_on_c, 0, 44, 82
1, 127569, Note_off_c, 0, 42, 60
1, 127573, Note_on_c, 0, 54, 85
1, 127575, Note_off_c, 0, 49, 64
1, 127599, Note_off_c, 0, 44, 62
1, 127607, Note_on_c, 0, 47, 82
1, 127613, Control_c, 0, 64, 111
1, 127616, Note_off_c, 0, 54, 67
1, 127628, Control_c, 0, 64, 102
1, 127637, Note_off_c, 0, 47, 66
1, 127643, Control_c, 0, 64, 97
1, 127644, Note_on_c, 0, 57, 75
1, 127658, Control_c, 0, 64, 95
1, 127670, Note_off_c, 0, 57, 66
1, 127673, Control_c, 0, 64, 93
1, 127685, Note_on_c, 0, 51, 81
1, 127688, Control_c, 0, 64, 89
1, 127703, Control_c, 0, 64, 84
1, 127703, Note_on_c, 0, 61, 84
1, 127718, Control_c, 0, 64, 78
1, 127725, Note_on_c, 0, 54, 80
1, 127733, Control_c, 0, 64, 73
1, 127748, Control_c, 0, 64, 68
1, 127751, Note_off_c, 0, 51, 64
1, 127756, Note_on_c, 0, 56, 84
1, 127756, Note_on_c, 0, 66, 86
1, 127769, Control_c, 0, 64, 65
1, 127781, Note_off_c, 0, 61, 64
1, 127784, Control_c, 0, 64, 63
1, 127784, Control_c, 0, 67, 9
1, 127785, Note_off_c, 0, 54, 65
1, 127799, Control_c, 0, 64, 62
1, 127799, Control_c, 0, 67, 12
1, 127807, Note_off_c, 0, 56, 66
1, 127812, Note_off_c, 0, 66, 66
1, 127814, Control_c, 0, 64, 60
1, 127814, Control_c, 0, 67, 17
1, 127816, Note_on_c, 0, 59, 81
1, 127828, Control_c, 0, 64, 57
1, 127828, Control_c, 0, 67, 24
1, 127839, Note_on_c, 0, 69, 82
1, 127843, Control_c, 0, 64, 51
1, 127843, Control_c, 0, 67, 35
1, 127844, Note_off_c, 0, 59, 65
1, 127858, Control_c, 0, 64, 45
1, 127858, Control_c, 0, 67, 53
1, 127860, Note_off_c, 0, 69, 68
1, 127873, Control_c, 0, 64, 41
1, 127873, Control_c, 0, 67, 80
1, 127882, Note_on_c, 0, 63, 80
1, 127888, Control_c, 0, 64, 38
1, 127888, Control_c, 0, 67, 102
1, 127898, Note_on_c, 0, 73, 85
1, 127903, Control_c, 0, 64, 37
1, 127903, Control_c, 0, 67, 123
1, 127914, Note_on_c, 0, 66, 79
1, 127917, Control_c, 0, 64, 36
1, 127917, Control_c, 0, 67, 127
1, 127932, Control_c, 0, 64, 31
1, 127944, Note_off_c, 0, 63, 65
1, 127947, Control_c, 0, 64, 26
1, 127948, Note_on_c, 0, 78, 81
1, 127949, Note_on_c, 0, 68, 79
1, 127957, Note_off_c, 0, 73, 62
1, 127959, Note_off_c, 0, 66, 64
1, 127962, Control_c, 0, 64, 20
1, 127972, Note_off_c, 0, 68, 66
1, 127977, Control_c, 0, 64, 13
1, 127991, Note_off_c, 0, 78, 68
1, 127992, Control_c, 0, 64, 0
1, 127997, Note_on_c, 0, 71, 70
1, 128019, Note_on_c, 0, 81, 75
1, 128022, Note_off_c, 0, 71, 70
1, 128042, Note_off_c, 0, 81, 67
1, 128056, Note_on_c, 0, 83, 38
1, 128057, Note_off_c, 0, 83, 127
1, 128066, Note_on_c, 0, 75, 68
1, 128081, Note_on_c, 0, 85, 67
1, 128090, Note_off_c, 0, 75, 65
1, 128092, Note_on_c, 0, 78, 55
1, 128120, Note_off_c, 0, 85, 63
1, 128134, Note_off_c, 0, 78, 67
1, 128137, Note_on_c, 0, 80, 55
1, 128146, Note_on_c, 0, 91, 62
1, 128157, Note_off_c, 0, 80, 61
1, 128165, Note_off_c, 0, 91, 59
1, 128203, Note_on_c, 0, 84, 20
1, 128233, Note_off_c, 0, 84, 32
1, 128308, Note_on_c, 0, 96, 8
1, 128317, Note_on_c, 0, 102, 72
1, 128331, Note_on_c, 0, 93, 12
1, 128356, Note_off_c, 0, 96, 52
1, 128381, Note_off_c, 0, 93, 41
1, 128389, Note_on_c, 0, 105, 78
1, 128391, Note_off_c, 0, 102, 61
1, 128421, Note_on_c, 0, 97, 49
1, 128443, Note_off_c, 0, 97, 59
1, 128469, Note_off_c, 0, 105, 60
1, 129050, Note_on_c, 0, 37, 90
1, 129054, Note_on_c, 0, 65, 84
1, 129073, Note_off_c, 0, 65, 75
1, 129089, Note_off_c, 0, 37, 66
1, 129128, Note_on_c, 0, 65, 81
1, 129149, Note_off_c, 0, 65, 70
1, 129170, Note_on_c, 0, 55, 69
1, 129199, Note_on_c, 0, 65, 62
1, 129199, Note_off_c, 0, 55, 68
1, 129224, Note_off_c, 0, 65, 69
1, 129241, Note_on_c, 0, 57, 55
1, 129268, Note_on_c, 0, 63, 85
1, 129291, Note_off_c, 0, 63, 69
1, 129292, Note_off_c, 0, 57, 56
1, 129301, Note_on_c, 0, 55, 58
1, 129342, Note_off_c, 0, 55, 66
1, 129344, Note_on_c, 0, 65, 86
1, 129386, Note_on_c, 0, 57, 60
1, 129438, Note_off_c, 0, 57, 52
1, 129449, Note_on_c, 0, 55, 56
1, 129490, Note_off_c, 0, 55, 66
1, 129512, Note_on_c, 0, 49, 76
1, 129586, Note_off_c, 0, 49, 60
1, 129589, Note_on_c, 0, 55, 71
1, 129634, Note_off_c, 0, 55, 66
1, 129668, Note_on_c, 0, 57, 48
1, 129721, Note_off_c, 0, 57, 60
1, 129740, Note_on_c, 0, 55, 58
1, 129786, Note_off_c, 0, 55, 66
1, 129827, Note_on_c, 0, 57, 57
1, 129878, Note_off_c, 0, 57, 56
1, 129905, Note_on_c, 0, 55, 40
1, 129935, Note_off_c, 0, 55, 55
1, 129948, Note_on_c, 0, 49, 71
1, 130023, Note_off_c, 0, 49, 56
1, 130024, Note_on_c, 0, 55, 62
1, 130073, Note_off_c, 0, 55, 66
1, 130105, Note_on_c, 0, 57, 55
1, 130149, Note_off_c, 0, 57, 60
1, 130163, Note_on_c, 0, 55, 56
1, 130219, Note_off_c, 0, 55, 64
1, 130262, Note_on_c, 0, 57, 42
1, 130305, Note_off_c, 0, 57, 50
1, 130308, Note_on_c, 0, 55, 45
1, 130353, Note_off_c, 0, 55, 65
1, 130389, Note_on_c, 0, 49, 61
1, 130393, Note_on_c, 0, 63, 82
1, 130396, Note_off_c, 0, 65, 65
1, 130414, Note_off_c, 0, 63, 73
1, 130431, Note_off_c, 0, 49, 64
1, 130457, Note_on_c, 0, 55, 56
1, 130494, Note_off_c, 0, 55, 65
1, 130535, Note_on_c, 0, 57, 53
1, 130535, Note_on_c, 0, 65, 82
1, 130566, Note_off_c, 0, 65, 66
1, 130573, Note_off_c, 0, 57, 60
1, 130594, Note_on_c, 0, 55, 53
1, 130636, Note_off_c, 0, 55, 66
1, 130670, Note_on_c, 0, 60, 72
1, 130672, Note_on_c, 0, 57, 56
1, 130700, Note_off_c, 0, 60, 65
1, 130712, Note_off_c, 0, 57, 58
1, 130742, Note_on_c, 0, 55, 53
1, 130793, Note_off_c, 0, 55, 66
1, 130826, Note_on_c, 0, 58, 76
1, 130827, Note_on_c, 0, 49, 61
1, 130858, Note_off_c, 0, 58, 61
1, 130885, Note_on_c, 0, 52, 59
1, 130901, Note_off_c, 0, 49, 51
1, 130941, Note_off_c, 0, 52, 59
1, 130968, Note_on_c, 0, 54, 52
1, 130969, Note_on_c, 0, 63, 72
1, 130999, Note_off_c, 0, 63, 62
1, 131000, Note_off_c, 0, 54, 59
1, 131055, Note_on_c, 0, 52, 39
1, 131088, Note_off_c, 0, 52, 47
1, 131089, Note_on_c, 0, 54, 60
1, 131110, Note_on_c, 0, 58, 57
1, 131132, Note_off_c, 0, 54, 61
1, 131134, Note_off_c, 0, 58, 60
1, 131170, Note_on_c, 0, 52, 62
1, 131211, Note_off_c, 0, 52, 59
1, 131247, Note_on_c, 0, 46, 73
1, 131250, Note_on_c, 0, 49, 55
1, 131276, Note_off_c, 0, 46, 66
1, 131316, Note_off_c, 0, 49, 52
1, 131330, Note_on_c, 0, 52, 59
1, 131372, Note_off_c, 0, 52, 64
1, 131394, Note_on_c, 0, 51, 75
1, 131410, Note_on_c, 0, 54, 46
1, 131423, Note_off_c, 0, 51, 66
1, 131453, Note_off_c, 0, 54, 65
1, 131544, Note_on_c, 0, 46, 74
1, 131544, Note_on_c, 0, 54, 56
1, 131573, Control_c, 0, 64, 13
1, 131574, Note_off_c, 0, 46, 67
1, 131580, Note_off_c, 0, 54, 65
1, 131588, Control_c, 0, 64, 21
1, 131603, Control_c, 0, 64, 27
1, 131617, Control_c, 0, 64, 32
1, 131620, Note_on_c, 0, 52, 48
1, 131632, Control_c, 0, 64, 37
1, 131646, Note_off_c, 0, 52, 60
1, 131647, Control_c, 0, 64, 42
1, 131661, Control_c, 0, 64, 46
1, 131676, Control_c, 0, 64, 47
1, 131691, Control_c, 0, 64, 46
1, 131706, Control_c, 0, 64, 41
1, 131721, Control_c, 0, 64, 32
1, 131727, Note_on_c, 0, 37, 86
1, 131733, Note_on_c, 0, 69, 81
1, 131736, Control_c, 0, 64, 8
1, 131736, Note_on_c, 0, 77, 81
1, 131751, Control_c, 0, 64, 0
1, 131758, Note_off_c, 0, 69, 67
1, 131760, Note_off_c, 0, 37, 68
1, 131764, Note_off_c, 0, 77, 60
1, 131802, Note_on_c, 0, 65, 78
1, 131835, Note_off_c, 0, 65, 67
1, 131852, Note_on_c, 0, 55, 65
1, 131867, Note_on_c, 0, 65, 59
1, 131894, Note_off_c, 0, 65, 67
1, 131915, Note_off_c, 0, 55, 64
1, 131941, Note_on_c, 0, 63, 58
1, 131942, Note_off_c, 0, 63, 127
1, 131943, Note_on_c, 0, 57, 63
1, 131980, Note_off_c, 0, 57, 55
1, 132001, Note_on_c, 0, 77, 83
1, 132003, Note_on_c, 0, 65, 64
1, 132011, Note_on_c, 0, 55, 68
1, 132019, Note_on_c, 0, 70, 29
1, 132023, Note_on_c, 0, 69, 59
1, 132052, Note_off_c, 0, 55, 64
1, 132052, Note_off_c, 0, 70, 52
1, 132073, Note_off_c, 0, 69, 0
1, 132073, Note_on_c, 0, 69, 37
1, 132086, Note_on_c, 0, 57, 47
1, 132124, Note_off_c, 0, 57, 60
1, 132126, Note_on_c, 0, 55, 45
1, 132156, Note_off_c, 0, 55, 58
1, 132166, Note_on_c, 0, 49, 67
1, 132243, Note_on_c, 0, 55, 59
1, 132243, Note_off_c, 0, 49, 62
1, 132289, Note_off_c, 0, 55, 65
1, 132318, Note_on_c, 0, 57, 57
1, 132322, Control_c, 0, 64, 10
1, 132337, Control_c, 0, 64, 16
1, 132352, Control_c, 0, 64, 25
1, 132358, Note_off_c, 0, 57, 59
1, 132366, Control_c, 0, 64, 34
1, 132381, Control_c, 0, 64, 43
1, 132392, Note_on_c, 0, 55, 52
1, 132396, Control_c, 0, 64, 53
1, 132404, Note_off_c, 0, 65, 64
1, 132410, Control_c, 0, 64, 62
1, 132422, Note_off_c, 0, 69, 64
1, 132425, Control_c, 0, 64, 67
1, 132426, Note_off_c, 0, 55, 66
1, 132437, Note_off_c, 0, 77, 62
1, 132440, Control_c, 0, 64, 71
1, 132455, Note_on_c, 0, 57, 57
1, 132455, Control_c, 0, 64, 72
1, 132499, Control_c, 0, 64, 73
1, 132514, Control_c, 0, 64, 73
1, 132524, Note_on_c, 0, 55, 53
1, 132529, Control_c, 0, 64, 74
1, 132533, Note_off_c, 0, 57, 50
1, 132544, Control_c, 0, 64, 75
1, 132559, Control_c, 0, 64, 75
1, 132597, Note_off_c, 0, 55, 62
1, 132612, Note_on_c, 0, 49, 72
1, 132657, Note_off_c, 0, 49, 62
1, 132687, Note_on_c, 0, 81, 73
1, 132698, Note_on_c, 0, 79, 64
1, 132723, Note_off_c, 0, 81, 58
1, 132726, Note_off_c, 0, 79, 65
1, 132752, Note_on_c, 0, 69, 62
1, 132772, Note_off_c, 0, 69, 66
1, 132796, Control_c, 0, 64, 75
1, 132807, Note_on_c, 0, 67, 75
1, 132810, Control_c, 0, 64, 74
1, 132830, Note_off_c, 0, 67, 66
1, 132876, Note_on_c, 0, 57, 55
1, 132940, Note_off_c, 0, 57, 41
1, 132955, Note_on_c, 0, 55, 56
1, 133000, Note_off_c, 0, 55, 65
1, 133010, Control_c, 0, 64, 71
1, 133025, Control_c, 0, 64, 63
1, 133040, Control_c, 0, 64, 52
1, 133047, Note_on_c, 0, 49, 70
1, 133050, Note_on_c, 0, 75, 88
1, 133052, Note_on_c, 0, 69, 75
1, 133054, Note_on_c, 0, 63, 74
1, 133055, Control_c, 0, 64, 27
1, 133070, Control_c, 0, 64, 0
1, 133074, Note_off_c, 0, 69, 71
1, 133075, Note_off_c, 0, 63, 64
1, 133098, Note_off_c, 0, 49, 62
1, 133102, Note_off_c, 0, 75, 62
1, 133120, Note_on_c, 0, 55, 54
1, 133161, Note_off_c, 0, 55, 66
1, 133193, Note_on_c, 0, 57, 59
1, 133193, Note_on_c, 0, 77, 86
1, 133202, Note_on_c, 0, 65, 71
1, 133228, Note_off_c, 0, 65, 69
1, 133228, Note_off_c, 0, 77, 63
1, 133239, Note_off_c, 0, 57, 58
1, 133260, Note_on_c, 0, 55, 62
1, 133313, Note_off_c, 0, 55, 65
1, 133339, Note_on_c, 0, 72, 75
1, 133340, Note_on_c, 0, 57, 67
1, 133346, Note_on_c, 0, 69, 65
1, 133347, Note_on_c, 0, 60, 69
1, 133370, Note_off_c, 0, 72, 60
1, 133372, Note_off_c, 0, 60, 60
1, 133372, Note_off_c, 0, 69, 69
1, 133383, Note_off_c, 0, 57, 60
1, 133408, Note_on_c, 0, 55, 51
1, 133441, Note_off_c, 0, 55, 60
1, 133480, Note_on_c, 0, 49, 64
1, 133486, Note_on_c, 0, 70, 79
1, 133496, Note_on_c, 0, 58, 66
1, 133514, Note_off_c, 0, 58, 66
1, 133518, Note_off_c, 0, 70, 59
1, 133562, Note_on_c, 0, 52, 63
1, 133593, Note_off_c, 0, 49, 36
1, 133617, Note_off_c, 0, 52, 61
1, 133632, Note_on_c, 0, 75, 76
1, 133640, Note_on_c, 0, 54, 58
1, 133644, Note_on_c, 0, 63, 62
1, 133657, Note_off_c, 0, 75, 66
1, 133665, Note_off_c, 0, 63, 65
1, 133685, Note_off_c, 0, 54, 63
1, 133717, Note_on_c, 0, 52, 52
1, 133758, Note_off_c, 0, 52, 64
1, 133774, Note_on_c, 0, 58, 67
1, 133783, Note_on_c, 0, 70, 66
1, 133788, Note_on_c, 0, 54, 61
1, 133803, Note_off_c, 0, 58, 67
1, 133811, Note_off_c, 0, 70, 66
1, 133832, Note_off_c, 0, 54, 62
1, 133861, Note_on_c, 0, 52, 53
1, 133914, Note_off_c, 0, 52, 57
1, 133937, Note_on_c, 0, 49, 60
1, 133968, Control_c, 0, 64, 33
1, 133982, Control_c, 0, 64, 48
1, 133997, Control_c, 0, 64, 62
1, 133998, Note_on_c, 0, 78, 70
1, 134001, Note_on_c, 0, 76, 69
1, 134012, Control_c, 0, 64, 78
1, 134027, Control_c, 0, 64, 102
1, 134041, Note_off_c, 0, 49, 31
1, 134042, Control_c, 0, 64, 108
1, 134044, Note_off_c, 0, 78, 62
1, 134055, Note_off_c, 0, 76, 66
1, 134062, Note_on_c, 0, 66, 63
1, 134082, Note_off_c, 0, 66, 63
1, 134168, Note_on_c, 0, 62, 34
1, 134175, Control_c, 0, 64, 107
1, 134203, Note_off_c, 0, 62, 53
1, 134203, Poly_aftertouch_c, 0, 64, 127
1, 134213, Note_on_c, 0, 54, 48
1, 134243, Poly_aftertouch_c, 0, 64, 0
1, 134252, Note_off_c, 0, 54, 60
1, 134279, Note_on_c, 0, 52, 57
1, 134309, Control_c, 0, 64, 108
1, 134322, Note_off_c, 0, 52, 59
1, 134338, Control_c, 0, 64, 107
1, 134353, Control_c, 0, 64, 95
1, 134368, Control_c, 0, 64, 77
1, 134377, Note_on_c, 0, 46, 70
1, 134380, Note_on_c, 0, 49, 61
1, 134382, Control_c, 0, 64, 64
1, 134397, Control_c, 0, 64, 53
1, 134407, Note_off_c, 0, 46, 67
1, 134412, Control_c, 0, 64, 30
1, 134427, Control_c, 0, 64, 0
1, 134448, Note_off_c, 0, 49, 50
1, 134454, Note_on_c, 0, 52, 61
1, 134519, Note_off_c, 0, 52, 63
1, 134526, Note_on_c, 0, 51, 75
1, 134550, Note_on_c, 0, 54, 54
1, 134556, Note_off_c, 0, 51, 65
1, 134591, Note_off_c, 0, 54, 65
1, 134644, Note_on_c, 0, 52, 44
1, 134669, Note_on_c, 0, 46, 68
1, 134672, Note_off_c, 0, 52, 55
1, 134684, Note_on_c, 0, 54, 59
1, 134703, Note_off_c, 0, 46, 67
1, 134718, Note_off_c, 0, 54, 66
1, 134740, Note_on_c, 0, 52, 55
1, 134763, Note_off_c, 0, 52, 62
1, 134833, Note_on_c, 0, 34, 71
1, 134878, Note_off_c, 0, 34, 63
1, 134948, Poly_aftertouch_c, 0, 52, 127
1, 134978, Note_on_c, 0, 39, 60
1, 134985, Note_on_c, 0, 54, 49
1, 134995, Poly_aftertouch_c, 0, 52, 0
1, 135027, Note_off_c, 0, 39, 59
1, 135036, Note_off_c, 0, 54, 60
1, 135079, Note_on_c, 0, 52, 44
1, 135128, Note_off_c, 0, 52, 60
1, 135142, Note_on_c, 0, 34, 61
1, 135161, Note_on_c, 0, 54, 47
1, 135184, Note_off_c, 0, 34, 63
1, 135206, Note_off_c, 0, 54, 61
1, 135239, Note_on_c, 0, 52, 41
1, 135310, Note_off_c, 0, 52, 58
1, 135432, Note_on_c, 0, 22, 52
1, 135434, Control_c, 0, 64, 20
1, 135449, Control_c, 0, 64, 32
1, 135464, Control_c, 0, 64, 44
1, 135480, Control_c, 0, 64, 56
1, 135495, Control_c, 0, 64, 71
1, 135498, Note_off_c, 0, 22, 57
1, 135509, Control_c, 0, 64, 99
1, 135524, Control_c, 0, 64, 127
1, 136020, Note_on_c, 0, 99, 54
1, 136095, Note_off_c, 0, 99, 56
1, 136099, Note_on_c, 0, 94, 50
1, 136145, Note_off_c, 0, 94, 62
1, 136172, Note_on_c, 0, 90, 45
1, 136217, Note_on_c, 0, 97, 60
1, 136221, Note_off_c, 0, 90, 56
1, 136259, Note_off_c, 0, 97, 61
1, 136268, Note_on_c, 0, 92, 56
1, 136317, Note_off_c, 0, 92, 58
1, 136330, Note_on_c, 0, 88, 57
1, 136365, Note_off_c, 0, 88, 66
1, 136379, Note_on_c, 0, 87, 55
1, 136421, Note_off_c, 0, 87, 64
1, 136437, Note_on_c, 0, 85, 56
1, 136504, Note_on_c, 0, 80, 57
1, 136505, Note_off_c, 0, 85, 65
1, 136534, Note_off_c, 0, 80, 66
1, 136545, Note_on_c, 0, 76, 55
1, 136568, Note_off_c, 0, 76, 69
1, 136622, Note_on_c, 0, 74, 51
1, 136649, Note_on_c, 0, 70, 65
1, 136655, Note_off_c, 0, 74, 58
1, 136711, Note_on_c, 0, 66, 52
1, 136714, Note_off_c, 0, 70, 62
1, 136774, Note_on_c, 0, 73, 64
1, 136776, Note_off_c, 0, 66, 57
1, 136813, Control_c, 0, 67, 119
1, 136824, Note_on_c, 0, 68, 61
1, 136828, Control_c, 0, 67, 98
1, 136833, Note_off_c, 0, 73, 63
1, 136843, Control_c, 0, 67, 69
1, 136857, Control_c, 0, 67, 43
1, 136872, Control_c, 0, 67, 19
1, 136878, Note_on_c, 0, 64, 63
1, 136887, Control_c, 0, 67, 0
1, 136894, Note_off_c, 0, 68, 59
1, 136918, Note_off_c, 0, 64, 62
1, 136937, Note_on_c, 0, 63, 65
1, 136976, Note_on_c, 0, 61, 68
1, 136992, Note_off_c, 0, 63, 65
1, 137051, Note_on_c, 0, 56, 58
1, 137054, Note_off_c, 0, 61, 68
1, 137073, Note_on_c, 0, 52, 71
1, 137078, Note_off_c, 0, 56, 68
1, 137105, Note_off_c, 0, 52, 70
1, 137127, Note_on_c, 0, 51, 74
1, 137182, Note_on_c, 0, 46, 73
1, 137212, Note_off_c, 0, 51, 61
1, 137235, Note_on_c, 0, 42, 71
1, 137252, Note_off_c, 0, 46, 64
1, 137286, Note_on_c, 0, 49, 80
1, 137290, Note_off_c, 0, 42, 61
1, 137335, Note_on_c, 0, 44, 77
1, 137367, Note_off_c, 0, 49, 64
1, 137378, Note_on_c, 0, 40, 84
1, 137411, Note_off_c, 0, 40, 66
1, 137414, Note_off_c, 0, 44, 60
1, 137424, Note_on_c, 0, 39, 74
1, 137456, Note_on_c, 0, 37, 72
1, 137492, Note_off_c, 0, 39, 63
1, 137521, Note_on_c, 0, 32, 77
1, 137552, Note_off_c, 0, 37, 62
1, 137556, Note_on_c, 0, 28, 84
1, 137576, Note_off_c, 0, 32, 64
1, 137590, Note_off_c, 0, 28, 69
1, 137624, Note_on_c, 0, 31, 87
1, 137635, Note_on_c, 0, 32, 50
1, 137682, Note_off_c, 0, 31, 63
1, 137686, Note_on_c, 0, 28, 86
1, 137687, Note_off_c, 0, 32, 47
1, 137748, Note_off_c, 0, 28, 65
1, 137775, Note_on_c, 0, 22, 116
1, 137799, Control_c, 0, 64, 64
1, 137814, Control_c, 0, 64, 34
1, 137829, Control_c, 0, 64, 0
1, 137859, Note_on_c, 0, 28, 79
1, 137874, Control_c, 0, 64, 33
1, 137889, Control_c, 0, 64, 57
1, 137903, Control_c, 0, 64, 99
1, 137910, Note_off_c, 0, 28, 63
1, 137918, Control_c, 0, 64, 127
1, 137927, Note_on_c, 0, 32, 67
1, 137933, Note_off_c, 0, 22, 60
1, 137981, Note_on_c, 0, 26, 46
1, 137982, Note_off_c, 0, 32, 61
1, 138002, Note_on_c, 0, 37, 68
1, 138018, Note_off_c, 0, 26, 44
1, 138041, Note_off_c, 0, 37, 63
1, 138080, Note_on_c, 0, 40, 79
1, 138081, Note_on_c, 0, 34, 72
1, 138114, Note_off_c, 0, 40, 66
1, 138123, Note_on_c, 0, 37, 77
1, 138143, Note_on_c, 0, 44, 76
1, 138144, Note_off_c, 0, 34, 63
1, 138184, Note_on_c, 0, 39, 90
1, 138200, Control_c, 0, 64, 103
1, 138204, Note_off_c, 0, 37, 62
1, 138208, Note_on_c, 0, 49, 79
1, 138214, Note_off_c, 0, 44, 62
1, 138215, Control_c, 0, 64, 93
1, 138229, Control_c, 0, 64, 88
1, 138237, Note_off_c, 0, 39, 65
1, 138252, Control_c, 0, 64, 84
1, 138255, Note_on_c, 0, 41, 76
1, 138258, Note_off_c, 0, 49, 69
1, 138267, Control_c, 0, 64, 82
1, 138282, Control_c, 0, 64, 80
1, 138286, Note_on_c, 0, 52, 86
1, 138287, Note_off_c, 0, 41, 67
1, 138297, Control_c, 0, 64, 77
1, 138311, Note_off_c, 0, 52, 69
1, 138311, Control_c, 0, 64, 75
1, 138311, Control_c, 0, 67, 8
1, 138326, Control_c, 0, 64, 74
1, 138330, Note_on_c, 0, 46, 79
1, 138341, Control_c, 0, 64, 73
1, 138341, Control_c, 0, 67, 9
1, 138347, Note_on_c, 0, 56, 86
1, 138355, Control_c, 0, 64, 71
1, 138355, Control_c, 0, 67, 11
1, 138367, Note_on_c, 0, 49, 83
1, 138370, Control_c, 0, 64, 68
1, 138370, Control_c, 0, 67, 13
1, 138385, Control_c, 0, 64, 65
1, 138385, Control_c, 0, 67, 18
1, 138398, Note_off_c, 0, 46, 65
1, 138400, Control_c, 0, 64, 62
1, 138400, Control_c, 0, 67, 26
1, 138401, Note_off_c, 0, 56, 67
1, 138405, Note_on_c, 0, 51, 80
1, 138410, Note_on_c, 0, 61, 84
1, 138415, Control_c, 0, 64, 57
1, 138415, Control_c, 0, 67, 39
1, 138423, Note_off_c, 0, 49, 66
1, 138429, Control_c, 0, 64, 52
1, 138429, Control_c, 0, 67, 55
1, 138444, Note_off_c, 0, 51, 65
1, 138444, Control_c, 0, 64, 45
1, 138444, Control_c, 0, 67, 76
1, 138451, Note_off_c, 0, 61, 69
1, 138455, Note_on_c, 0, 53, 80
1, 138459, Control_c, 0, 64, 39
1, 138459, Control_c, 0, 67, 102
1, 138474, Control_c, 0, 64, 36
1, 138474, Control_c, 0, 67, 122
1, 138476, Note_on_c, 0, 64, 81
1, 138489, Control_c, 0, 64, 33
1, 138489, Control_c, 0, 67, 127
1, 138491, Note_off_c, 0, 53, 68
1, 138503, Control_c, 0, 64, 31
1, 138507, Note_off_c, 0, 64, 64
1, 138518, Control_c, 0, 64, 28
1, 138531, Note_on_c, 0, 58, 74
1, 138533, Control_c, 0, 64, 23
1, 138542, Note_on_c, 0, 68, 83
1, 138547, Control_c, 0, 64, 18
1, 138562, Control_c, 0, 64, 11
1, 138563, Note_on_c, 0, 61, 77
1, 138577, Control_c, 0, 64, 0
1, 138586, Note_off_c, 0, 58, 64
1, 138595, Note_on_c, 0, 63, 82
1, 138598, Note_off_c, 0, 68, 62
1, 138598, Note_on_c, 0, 73, 76
1, 138608, Note_off_c, 0, 61, 66
1, 138624, Note_off_c, 0, 63, 68
1, 138638, Note_off_c, 0, 73, 67
1, 138648, Note_on_c, 0, 65, 71
1, 138670, Note_on_c, 0, 76, 80
1, 138673, Note_off_c, 0, 65, 70
1, 138691, Note_off_c, 0, 76, 70
1, 138719, Note_on_c, 0, 70, 69
1, 138727, Note_on_c, 0, 80, 84
1, 138752, Note_off_c, 0, 70, 55
1, 138763, Note_on_c, 0, 73, 58
1, 138789, Note_on_c, 0, 75, 62
1, 138789, Note_off_c, 0, 73, 68
1, 138794, Note_off_c, 0, 80, 62
1, 138797, Note_on_c, 0, 85, 70
1, 138807, Note_off_c, 0, 75, 64
1, 138827, Note_on_c, 0, 77, 68
1, 138830, Note_off_c, 0, 85, 66
1, 138851, Note_off_c, 0, 77, 67
1, 138869, Note_on_c, 0, 88, 68
1, 138894, Note_off_c, 0, 88, 68
1, 138938, Note_on_c, 0, 92, 66
1, 138965, Note_on_c, 0, 86, 51
1, 138971, Note_off_c, 0, 92, 62
1, 138989, Note_on_c, 0, 94, 63
1, 139024, Note_off_c, 0, 86, 42
1, 139048, Note_off_c, 0, 94, 63
1, 139084, Note_on_c, 0, 97, 66
1, 139092, Note_on_c, 0, 92, 61
1, 139111, Note_off_c, 0, 92, 67
1, 139164, Note_off_c, 0, 97, 62
1, 139838, Control_c, 0, 64, 28
1, 139853, Control_c, 0, 64, 43
1, 139868, Control_c, 0, 64, 59
1, 139873, Note_on_c, 0, 44, 60
1, 139883, Control_c, 0, 64, 83
1, 139898, Control_c, 0, 64, 127
1, 139914, Note_off_c, 0, 44, 63
1, 139974, Note_on_c, 0, 63, 52
1, 140017, Note_off_c, 0, 63, 66
1, 140020, Note_on_c, 0, 56, 57
1, 140052, Note_off_c, 0, 56, 66
1, 140068, Note_on_c, 0, 51, 70
1, 140075, Control_c, 0, 64, 104
1, 140090, Control_c, 0, 64, 77
1, 140092, Note_on_c, 0, 60, 60
1, 140101, Note_off_c, 0, 51, 64
1, 140105, Control_c, 0, 64, 63
1, 140119, Control_c, 0, 64, 48
1, 140120, Note_off_c, 0, 60, 66
1, 140134, Note_on_c, 0, 51, 59
1, 140134, Control_c, 0, 64, 0
1, 140172, Note_off_c, 0, 51, 72
1, 140199, Poly_aftertouch_c, 0, 55, 0
1, 140228, Note_on_c, 0, 51, 63
1, 140255, Note_off_c, 0, 51, 70
1, 140297, Note_on_c, 0, 52, 69
1, 140327, Note_off_c, 0, 52, 66
1, 140377, Note_on_c, 0, 54, 70
1, 140377, Note_on_c, 0, 59, 67
1, 140382, Note_on_c, 0, 55, 59
1, 140403, Note_off_c, 0, 54, 67
1, 140404, Note_off_c, 0, 59, 64
1, 140410, Note_off_c, 0, 55, 68
1, 140460, Note_on_c, 0, 54, 60
1, 140485, Note_off_c, 0, 54, 59
1, 140536, Note_on_c, 0, 54, 67
1, 140572, Note_off_c, 0, 54, 64
1, 140606, Note_on_c, 0, 54, 64
1, 140634, Note_off_c, 0, 54, 69
1, 140683, Note_on_c, 0, 54, 69
1, 140694, Note_on_c, 0, 55, 62
1, 140697, Note_on_c, 0, 59, 49
1, 140711, Note_off_c, 0, 54, 67
1, 140714, Note_off_c, 0, 55, 66
1, 140720, Note_off_c, 0, 59, 55
1, 140769, Note_on_c, 0, 52, 66
1, 140792, Note_off_c, 0, 52, 66
1, 140839, Control_c, 0, 64, 32
1, 140854, Control_c, 0, 64, 43
1, 140861, Note_on_c, 0, 44, 71
1, 140861, Note_on_c, 0, 51, 74
1, 140869, Control_c, 0, 64, 54
1, 140884, Control_c, 0, 64, 62
1, 140890, Note_off_c, 0, 51, 70
1, 140898, Control_c, 0, 64, 66
1, 140902, Note_off_c, 0, 44, 56
1, 140913, Control_c, 0, 64, 67
1, 140917, Note_on_c, 0, 63, 59
1, 140959, Note_on_c, 0, 56, 72
1, 140960, Note_off_c, 0, 63, 63
1, 140987, Control_c, 0, 64, 66
1, 140996, Note_off_c, 0, 56, 62
1, 141002, Control_c, 0, 64, 64
1, 141017, Control_c, 0, 64, 60
1, 141031, Control_c, 0, 64, 48
1, 141033, Note_on_c, 0, 51, 60
1, 141046, Note_on_c, 0, 58, 65
1, 141046, Control_c, 0, 64, 27
1, 141051, Note_on_c, 0, 54, 65
1, 141061, Note_off_c, 0, 51, 57
1, 141061, Control_c, 0, 64, 0
1, 141077, Note_off_c, 0, 58, 66
1, 141087, Note_off_c, 0, 54, 65
1, 141100, Note_on_c, 0, 51, 62
1, 141135, Note_off_c, 0, 51, 64
1, 141184, Note_on_c, 0, 51, 68
1, 141215, Note_off_c, 0, 51, 66
1, 141257, Note_on_c, 0, 52, 79
1, 141322, Note_off_c, 0, 52, 63
1, 141335, Note_on_c, 0, 48, 71
1, 141337, Note_on_c, 0, 53, 72
1, 141339, Note_on_c, 0, 57, 65
1, 141358, Note_off_c, 0, 48, 67
1, 141364, Note_off_c, 0, 57, 65
1, 141370, Note_off_c, 0, 53, 68
1, 141412, Note_on_c, 0, 48, 60
1, 141431, Note_off_c, 0, 48, 64
1, 141485, Note_on_c, 0, 48, 70
1, 141512, Note_off_c, 0, 48, 67
1, 141568, Note_on_c, 0, 48, 62
1, 141595, Note_off_c, 0, 48, 66
1, 141618, Control_c, 0, 67, 101
1, 141633, Control_c, 0, 67, 77
1, 141634, Note_on_c, 0, 56, 68
1, 141636, Note_on_c, 0, 52, 64
1, 141645, Note_on_c, 0, 48, 67
1, 141647, Control_c, 0, 67, 61
1, 141656, Note_off_c, 0, 56, 70
1, 141662, Control_c, 0, 67, 51
1, 141674, Note_off_c, 0, 52, 65
1, 141676, Note_off_c, 0, 48, 60
1, 141677, Control_c, 0, 67, 43
1, 141692, Control_c, 0, 67, 38
1, 141706, Control_c, 0, 67, 35
1, 141709, Note_on_c, 0, 49, 77
1, 141721, Control_c, 0, 67, 34
1, 141734, Note_off_c, 0, 49, 70
1, 141751, Control_c, 0, 67, 32
1, 141766, Control_c, 0, 67, 28
1, 141780, Control_c, 0, 64, 36
1, 141780, Control_c, 0, 67, 16
1, 141795, Control_c, 0, 64, 52
1, 141795, Control_c, 0, 67, 0
1, 141810, Control_c, 0, 64, 62
1, 141812, Note_on_c, 0, 44, 69
1, 141815, Note_on_c, 0, 51, 69
1, 141825, Control_c, 0, 64, 69
1, 141840, Control_c, 0, 64, 72
1, 141852, Note_off_c, 0, 51, 60
1, 141870, Control_c, 0, 64, 72
1, 141874, Note_off_c, 0, 44, 55
1, 141882, Note_on_c, 0, 75, 72
1, 141885, Control_c, 0, 64, 71
1, 141895, Note_on_c, 0, 68, 65
1, 141900, Control_c, 0, 64, 71
1, 141915, Control_c, 0, 64, 69
1, 141930, Control_c, 0, 64, 65
1, 141937, Note_off_c, 0, 68, 57
1, 141938, Note_off_c, 0, 75, 60
1, 141944, Control_c, 0, 64, 62
1, 141959, Control_c, 0, 64, 59
1, 141961, Note_on_c, 0, 63, 69
1, 141966, Note_on_c, 0, 60, 70
1, 141974, Control_c, 0, 64, 54
1, 141985, Note_off_c, 0, 63, 64
1, 141996, Control_c, 0, 64, 47
1, 142011, Control_c, 0, 64, 42
1, 142026, Control_c, 0, 64, 35
1, 142034, Note_off_c, 0, 60, 53
1, 142041, Control_c, 0, 64, 26
1, 142047, Note_on_c, 0, 63, 68
1, 142056, Control_c, 0, 64, 13
1, 142070, Control_c, 0, 64, 0
1, 142075, Note_off_c, 0, 63, 67
1, 142110, Note_on_c, 0, 63, 79
1, 142138, Note_off_c, 0, 63, 67
1, 142190, Note_on_c, 0, 64, 78
1, 142239, Note_off_c, 0, 64, 58
1, 142269, Note_on_c, 0, 66, 85
1, 142276, Note_on_c, 0, 55, 66
1, 142279, Note_on_c, 0, 59, 60
1, 142288, Note_off_c, 0, 66, 71
1, 142300, Note_off_c, 0, 59, 61
1, 142313, Note_off_c, 0, 55, 64
1, 142337, Note_on_c, 0, 54, 74
1, 142358, Note_off_c, 0, 54, 69
1, 142412, Note_on_c, 0, 54, 78
1, 142434, Note_off_c, 0, 54, 69
1, 142493, Note_on_c, 0, 53, 47
1, 142522, Note_off_c, 0, 53, 58
1, 142568, Note_on_c, 0, 55, 62
1, 142570, Note_on_c, 0, 66, 74
1, 142577, Note_on_c, 0, 59, 54
1, 142590, Note_off_c, 0, 55, 62
1, 142599, Note_off_c, 0, 59, 59
1, 142601, Note_off_c, 0, 66, 64
1, 142644, Note_on_c, 0, 52, 70
1, 142677, Note_off_c, 0, 52, 69
1, 142723, Control_c, 0, 64, 30
1, 142725, Note_on_c, 0, 44, 68
1, 142727, Note_on_c, 0, 51, 65
1, 142744, Control_c, 0, 64, 50
1, 142759, Control_c, 0, 64, 64
1, 142766, Note_off_c, 0, 51, 68
1, 142769, Note_off_c, 0, 44, 64
1, 142774, Control_c, 0, 64, 75
1, 142789, Control_c, 0, 64, 79
1, 142810, Note_on_c, 0, 75, 62
1, 142819, Control_c, 0, 64, 78
1, 142820, Note_on_c, 0, 68, 64
1, 142834, Control_c, 0, 64, 77
1, 142847, Note_off_c, 0, 75, 61
1, 142849, Control_c, 0, 64, 77
1, 142852, Note_off_c, 0, 68, 65
1, 142864, Control_c, 0, 64, 75
1, 142879, Control_c, 0, 64, 72
1, 142879, Note_on_c, 0, 63, 60
1, 142891, Note_on_c, 0, 54, 67
1, 142893, Control_c, 0, 64, 69
1, 142900, Note_on_c, 0, 58, 73
1, 142903, Note_off_c, 0, 63, 61
1, 142908, Control_c, 0, 64, 66
1, 142912, Note_off_c, 0, 54, 63
1, 142923, Control_c, 0, 64, 64
1, 142938, Control_c, 0, 64, 60
1, 142950, Note_off_c, 0, 58, 61
1, 142952, Control_c, 0, 64, 53
1, 142963, Note_on_c, 0, 63, 83
1, 142967, Control_c, 0, 64, 41
1, 142982, Control_c, 0, 64, 22
1, 142992, Note_off_c, 0, 63, 67
1, 142997, Control_c, 0, 64, 0
1, 143034, Note_on_c, 0, 63, 77
1, 143116, Note_off_c, 0, 63, 65
1, 143134, Note_on_c, 0, 64, 41
1, 143135, Note_on_c, 0, 65, 41
1, 143164, Note_off_c, 0, 64, 53
1, 143165, Note_off_c, 0, 65, 56
1, 143186, Note_on_c, 0, 56, 80
1, 143195, Note_on_c, 0, 60, 57
1, 143200, Note_on_c, 0, 53, 60
1, 143203, Note_off_c, 0, 56, 66
1, 143215, Note_off_c, 0, 60, 62
1, 143221, Note_off_c, 0, 53, 61
1, 143261, Note_on_c, 0, 48, 71
1, 143284, Note_off_c, 0, 48, 68
1, 143336, Note_on_c, 0, 48, 82
1, 143364, Note_off_c, 0, 48, 69
1, 143407, Note_on_c, 0, 48, 59
1, 143446, Note_off_c, 0, 48, 62
1, 143514, Note_on_c, 0, 60, 49
1, 143517, Note_on_c, 0, 56, 57
1, 143529, Note_on_c, 0, 52, 51
1, 143537, Note_off_c, 0, 60, 59
1, 143553, Note_off_c, 0, 56, 66
1, 143562, Note_off_c, 0, 52, 66
1, 143591, Note_on_c, 0, 49, 72
1, 143621, Note_off_c, 0, 49, 68
1, 143628, Control_c, 0, 67, 10
1, 143642, Control_c, 0, 67, 25
1, 143657, Control_c, 0, 67, 50
1, 143672, Control_c, 0, 64, 35
1, 143672, Control_c, 0, 67, 89
1, 143678, Note_on_c, 0, 42, 64
1, 143687, Control_c, 0, 64, 52
1, 143687, Control_c, 0, 67, 127
1, 143702, Control_c, 0, 64, 66
1, 143713, Note_off_c, 0, 42, 63
1, 143716, Control_c, 0, 64, 88
1, 143731, Control_c, 0, 64, 98
1, 143771, Note_on_c, 0, 85, 71
1, 143804, Note_on_c, 0, 78, 71
1, 143821, Control_c, 0, 64, 95
1, 143832, Note_off_c, 0, 85, 63
1, 143835, Control_c, 0, 64, 82
1, 143850, Control_c, 0, 64, 68
1, 143852, Note_off_c, 0, 78, 67
1, 143858, Note_on_c, 0, 73, 61
1, 143865, Control_c, 0, 64, 58
1, 143878, Note_off_c, 0, 73, 63
1, 143880, Control_c, 0, 64, 38
1, 143882, Note_on_c, 0, 58, 45
1, 143894, Control_c, 0, 64, 0
1, 143902, Note_on_c, 0, 64, 7
1, 143907, Note_off_c, 0, 58, 56
1, 143928, Note_on_c, 0, 73, 70
1, 143946, Note_off_c, 0, 73, 70
1, 143953, Note_off_c, 0, 64, 27
1, 143993, Note_on_c, 0, 61, 72
1, 144020, Note_off_c, 0, 61, 69
1, 144047, Note_on_c, 0, 73, 25
1, 144065, Note_on_c, 0, 62, 72
1, 144086, Note_off_c, 0, 73, 46
1, 144095, Note_off_c, 0, 62, 61
1, 144147, Note_on_c, 0, 73, 71
1, 144148, Note_on_c, 0, 66, 70
1, 144151, Note_on_c, 0, 78, 76
1, 144157, Note_on_c, 0, 58, 77
1, 144160, Note_on_c, 0, 67, 63
1, 144162, Note_on_c, 0, 69, 62
1, 144169, Note_off_c, 0, 66, 65
1, 144171, Note_off_c, 0, 73, 67
1, 144177, Note_on_c, 0, 61, 44
1, 144178, Note_off_c, 0, 58, 70
1, 144184, Note_off_c, 0, 67, 39
1, 144184, Note_off_c, 0, 69, 41
1, 144184, Note_off_c, 0, 78, 60
1, 144208, Note_off_c, 0, 61, 34
1, 144216, Note_on_c, 0, 66, 73
1, 144249, Note_off_c, 0, 66, 65
1, 144301, Note_on_c, 0, 66, 73
1, 144324, Note_off_c, 0, 66, 69
1, 144373, Note_on_c, 0, 66, 74
1, 144397, Note_off_c, 0, 66, 68
1, 144454, Note_on_c, 0, 78, 80
1, 144461, Note_on_c, 0, 73, 69
1, 144464, Note_on_c, 0, 58, 64
1, 144481, Note_on_c, 0, 61, 35
1, 144485, Note_off_c, 0, 73, 67
1, 144494, Note_off_c, 0, 58, 65
1, 144496, Note_off_c, 0, 78, 66
1, 144515, Note_off_c, 0, 61, 52
1, 144552, Note_on_c, 0, 62, 54
1, 144574, Note_off_c, 0, 62, 62
1, 144613, Note_on_c, 0, 42, 70
1, 144618, Note_on_c, 0, 62, 59
1, 144628, Control_c, 0, 64, 35
1, 144640, Note_off_c, 0, 62, 63
1, 144643, Control_c, 0, 64, 50
1, 144646, Note_off_c, 0, 42, 64
1, 144658, Control_c, 0, 64, 65
1, 144672, Control_c, 0, 64, 85
1, 144687, Control_c, 0, 64, 127
1, 144748, Note_on_c, 0, 85, 77
1, 144774, Note_on_c, 0, 78, 67
1, 144790, Control_c, 0, 64, 122
1, 144795, Note_off_c, 0, 85, 63
1, 144805, Control_c, 0, 64, 83
1, 144808, Note_on_c, 0, 64, 65
1, 144814, Note_on_c, 0, 73, 69
1, 144820, Control_c, 0, 64, 66
1, 144821, Note_on_c, 0, 58, 58
1, 144821, Note_off_c, 0, 78, 56
1, 144832, Note_on_c, 0, 67, 27
1, 144834, Note_off_c, 0, 73, 66
1, 144835, Control_c, 0, 64, 54
1, 144839, Note_off_c, 0, 64, 65
1, 144843, Note_off_c, 0, 58, 59
1, 144850, Control_c, 0, 64, 18
1, 144864, Control_c, 0, 64, 0
1, 144865, Note_off_c, 0, 67, 46
1, 144882, Note_on_c, 0, 73, 88
1, 144916, Note_off_c, 0, 73, 52
1, 144946, Note_on_c, 0, 61, 80
1, 144980, Note_off_c, 0, 61, 67
1, 145029, Note_on_c, 0, 62, 74
1, 145072, Note_off_c, 0, 62, 59
1, 145106, Note_on_c, 0, 70, 75
1, 145109, Note_on_c, 0, 60, 56
1, 145117, Note_on_c, 0, 65, 57
1, 145121, Note_on_c, 0, 55, 63
1, 145121, Note_on_c, 0, 67, 56
1, 145129, Note_off_c, 0, 60, 62
1, 145143, Note_off_c, 0, 55, 65
1, 145155, Note_off_c, 0, 67, 62
1, 145156, Note_off_c, 0, 70, 61
1, 145162, Note_off_c, 0, 65, 57
1, 145192, Note_on_c, 0, 58, 73
1, 145211, Note_off_c, 0, 58, 64
1, 145263, Note_on_c, 0, 58, 70
1, 145277, Note_on_c, 0, 54, 32
1, 145278, Note_off_c, 0, 54, 127
1, 145290, Note_off_c, 0, 58, 66
1, 145336, Note_on_c, 0, 58, 73
1, 145367, Note_off_c, 0, 58, 65
1, 145410, Note_on_c, 0, 54, 69
1, 145421, Note_on_c, 0, 62, 44
1, 145432, Note_on_c, 0, 70, 47
1, 145447, Note_off_c, 0, 54, 64
1, 145451, Note_off_c, 0, 62, 56
1, 145457, Note_off_c, 0, 70, 57
1, 145481, Poly_aftertouch_c, 0, 65, 127
1, 145494, Note_on_c, 0, 59, 64
1, 145520, Poly_aftertouch_c, 0, 67, 0
1, 145522, Note_off_c, 0, 59, 63
1, 145522, Poly_aftertouch_c, 0, 65, 0
1, 145606, Note_on_c, 0, 35, 27
1, 145613, Control_c, 0, 64, 32
1, 145628, Control_c, 0, 64, 45
1, 145643, Control_c, 0, 64, 58
1, 145657, Control_c, 0, 64, 69
1, 145672, Control_c, 0, 64, 89
1, 145687, Control_c, 0, 64, 115
1, 145693, Note_on_c, 0, 42, 58
1, 145702, Control_c, 0, 64, 127
1, 145740, Note_off_c, 0, 35, 44
1, 145756, Note_off_c, 0, 42, 59
1, 145788, Note_on_c, 0, 47, 55
1, 145796, Note_on_c, 0, 94, 65
1, 145797, Note_on_c, 0, 86, 61
1, 145813, Note_off_c, 0, 47, 60
1, 145825, Note_off_c, 0, 86, 64
1, 145828, Note_off_c, 0, 94, 62
1, 145862, Note_on_c, 0, 82, 69
1, 145885, Note_on_c, 0, 50, 52
1, 145904, Note_off_c, 0, 82, 61
1, 145939, Note_on_c, 0, 82, 57
1, 145941, Note_off_c, 0, 50, 55
1, 145949, Note_on_c, 0, 54, 58
1, 145976, Note_off_c, 0, 82, 65
1, 146014, Note_on_c, 0, 80, 73
1, 146023, Note_on_c, 0, 59, 62
1, 146024, Note_off_c, 0, 54, 60
1, 146035, Note_off_c, 0, 80, 69
1, 146053, Note_off_c, 0, 59, 62
1, 146095, Note_on_c, 0, 94, 72
1, 146095, Note_on_c, 0, 62, 58
1, 146103, Note_on_c, 0, 86, 63
1, 146109, Note_on_c, 0, 82, 57
1, 146124, Note_off_c, 0, 62, 65
1, 146130, Note_off_c, 0, 94, 57
1, 146136, Note_off_c, 0, 86, 60
1, 146143, Note_off_c, 0, 82, 59
1, 146180, Note_on_c, 0, 66, 64
1, 146229, Note_off_c, 0, 66, 59
1, 146247, Note_on_c, 0, 71, 58
1, 146316, Note_off_c, 0, 71, 50
1, 146325, Note_on_c, 0, 74, 55
1, 146407, Note_off_c, 0, 74, 63
1, 146414, Note_on_c, 0, 71, 49
1, 146465, Note_off_c, 0, 71, 64
1, 146503, Note_on_c, 0, 66, 54
1, 146523, Note_off_c, 0, 66, 60
1, 146569, Note_on_c, 0, 62, 58
1, 146605, Note_off_c, 0, 62, 47
1, 146626, Note_on_c, 0, 59, 69
1, 146687, Note_off_c, 0, 59, 59
1, 146715, Note_on_c, 0, 54, 62
1, 146744, Note_off_c, 0, 54, 66
1, 146800, Note_on_c, 0, 52, 35
1, 146813, Note_on_c, 0, 50, 31
1, 146837, Note_off_c, 0, 52, 49
1, 146849, Note_off_c, 0, 50, 51
1, 146852, Note_on_c, 0, 47, 52
1, 146891, Note_off_c, 0, 47, 51
1, 146924, Note_on_c, 0, 42, 53
1, 146983, Note_off_c, 0, 42, 57
1, 147007, Control_c, 0, 64, 92
1, 147020, Note_on_c, 0, 35, 64
1, 147022, Control_c, 0, 64, 64
1, 147037, Control_c, 0, 64, 46
1, 147052, Control_c, 0, 64, 0
1, 147066, Note_on_c, 0, 56, 60
1, 147066, Note_on_c, 0, 68, 66
1, 147067, Note_on_c, 0, 62, 48
1, 147099, Note_off_c, 0, 35, 60
1, 147111, Control_c, 0, 64, 34
1, 147126, Control_c, 0, 64, 52
1, 147137, Note_on_c, 0, 50, 56
1, 147141, Control_c, 0, 64, 74
1, 147147, Note_off_c, 0, 56, 63
1, 147156, Control_c, 0, 64, 127
1, 147160, Note_off_c, 0, 50, 60
1, 147227, Note_on_c, 0, 70, 72
1, 147238, Note_on_c, 0, 42, 43
1, 147244, Note_off_c, 0, 62, 62
1, 147252, Note_on_c, 0, 58, 57
1, 147252, Note_off_c, 0, 68, 56
1, 147269, Note_off_c, 0, 70, 59
1, 147272, Note_off_c, 0, 42, 47
1, 147284, Note_off_c, 0, 58, 65
1, 147375, Note_on_c, 0, 47, 43
1, 147389, Note_on_c, 0, 53, 62
1, 147407, Note_on_c, 0, 62, 49
1, 147407, Note_on_c, 0, 65, 47
1, 147411, Note_off_c, 0, 53, 62
1, 147416, Note_on_c, 0, 64, 45
1, 147426, Note_on_c, 0, 38, 56
1, 147430, Note_off_c, 0, 47, 45
1, 147432, Note_off_c, 0, 65, 65
1, 147433, Note_off_c, 0, 62, 66
1, 147443, Note_off_c, 0, 64, 54
1, 147535, Control_c, 0, 64, 83
1, 147550, Control_c, 0, 64, 60
1, 147551, Note_on_c, 0, 35, 67
1, 147565, Control_c, 0, 64, 31
1, 147572, Note_off_c, 0, 38, 40
1, 147579, Control_c, 0, 64, 0
1, 147639, Control_c, 0, 64, 29
1, 147643, Note_on_c, 0, 42, 63
1, 147653, Note_off_c, 0, 35, 60
1, 147654, Control_c, 0, 64, 49
1, 147669, Control_c, 0, 64, 64
1, 147683, Control_c, 0, 64, 93
1, 147698, Control_c, 0, 64, 127
1, 147699, Note_off_c, 0, 42, 59
1, 147715, Note_on_c, 0, 47, 65
1, 147728, Control_c, 0, 64, 113
1, 147733, Note_on_c, 0, 82, 63
1, 147738, Note_on_c, 0, 74, 53
1, 147742, Control_c, 0, 64, 103
1, 147746, Note_off_c, 0, 47, 66
1, 147757, Control_c, 0, 64, 100
1, 147764, Note_off_c, 0, 82, 64
1, 147765, Note_off_c, 0, 74, 65
1, 147772, Control_c, 0, 64, 98
1, 147787, Control_c, 0, 64, 95
1, 147802, Control_c, 0, 64, 92
1, 147803, Note_on_c, 0, 70, 68
1, 147816, Control_c, 0, 64, 90
1, 147831, Control_c, 0, 64, 89
1, 147833, Note_off_c, 0, 70, 61
1, 147846, Control_c, 0, 64, 88
1, 147852, Note_on_c, 0, 50, 7
1, 147860, Control_c, 0, 64, 86
1, 147875, Control_c, 0, 64, 84
1, 147882, Note_on_c, 0, 54, 61
1, 147888, Note_on_c, 0, 70, 63
1, 147890, Control_c, 0, 64, 83
1, 147901, Note_off_c, 0, 50, 52
1, 147905, Control_c, 0, 64, 83
1, 147907, Note_off_c, 0, 70, 65
1, 147949, Note_on_c, 0, 68, 77
1, 147960, Note_on_c, 0, 59, 66
1, 147960, Note_off_c, 0, 54, 61
1, 147970, Note_off_c, 0, 68, 68
1, 148000, Note_off_c, 0, 59, 61
1, 148037, Note_on_c, 0, 70, 66
1, 148038, Note_on_c, 0, 82, 70
1, 148045, Note_on_c, 0, 74, 66
1, 148047, Note_on_c, 0, 62, 55
1, 148067, Note_off_c, 0, 82, 61
1, 148069, Note_off_c, 0, 74, 69
1, 148072, Note_off_c, 0, 62, 61
1, 148074, Note_off_c, 0, 70, 62
1, 148123, Note_on_c, 0, 66, 62
1, 148187, Note_on_c, 0, 71, 62
1, 148187, Note_off_c, 0, 66, 60
1, 148244, Note_off_c, 0, 71, 61
1, 148260, Note_on_c, 0, 74, 61
1, 148327, Control_c, 0, 64, 83
1, 148340, Note_off_c, 0, 74, 63
1, 148357, Control_c, 0, 64, 84
1, 148364, Note_on_c, 0, 71, 46
1, 148386, Control_c, 0, 64, 84
1, 148392, Note_off_c, 0, 71, 62
1, 148401, Control_c, 0, 64, 85
1, 148421, Note_on_c, 0, 66, 72
1, 148430, Control_c, 0, 64, 85
1, 148447, Note_off_c, 0, 66, 66
1, 148492, Note_on_c, 0, 62, 69
1, 148528, Note_off_c, 0, 62, 61
1, 148595, Note_on_c, 0, 59, 14
1, 148632, Note_off_c, 0, 59, 43
1, 148634, Note_on_c, 0, 54, 74
1, 148653, Control_c, 0, 64, 86
1, 148656, Poly_aftertouch_c, 0, 60, 0
1, 148663, Note_off_c, 0, 54, 68
1, 148668, Control_c, 0, 64, 87
1, 148682, Control_c, 0, 64, 88
1, 148697, Control_c, 0, 64, 88
1, 148712, Control_c, 0, 64, 89
1, 148724, Note_on_c, 0, 50, 54
1, 148734, Control_c, 0, 64, 89
1, 148760, Note_off_c, 0, 50, 56
1, 148778, Control_c, 0, 64, 90
1, 148793, Control_c, 0, 64, 90
1, 148808, Control_c, 0, 64, 91
1, 148823, Poly_aftertouch_c, 0, 48, 127
1, 148823, Control_c, 0, 64, 93
1, 148837, Control_c, 0, 64, 97
1, 148852, Poly_aftertouch_c, 0, 47, 127
1, 148852, Control_c, 0, 64, 105
1, 148867, Control_c, 0, 64, 117
1, 148869, Poly_aftertouch_c, 0, 48, 0
1, 148882, Control_c, 0, 64, 122
1, 148882, Poly_aftertouch_c, 0, 47, 0
1, 148897, Control_c, 0, 64, 99
1, 148912, Control_c, 0, 64, 71
1, 148927, Control_c, 0, 64, 56
1, 148942, Control_c, 0, 64, 17
1, 148951, Note_on_c, 0, 35, 24
1, 148956, Note_on_c, 0, 56, 66
1, 148957, Control_c, 0, 64, 0
1, 148974, Note_on_c, 0, 44, 46
1, 149015, Control_c, 0, 64, 30
1, 149027, Note_off_c, 0, 44, 60
1, 149030, Control_c, 0, 64, 49
1, 149031, Poly_aftertouch_c, 0, 50, 127
1, 149045, Control_c, 0, 64, 65
1, 149052, Note_off_c, 0, 56, 59
1, 149059, Note_on_c, 0, 47, 36
1, 149061, Control_c, 0, 64, 127
1, 149097, Note_off_c, 0, 47, 52
1, 149103, Note_off_c, 0, 35, 40
1, 149103, Note_on_c, 0, 42, 46
1, 149123, Note_on_c, 0, 58, 67
1, 149139, Note_off_c, 0, 42, 60
1, 149143, Note_on_c, 0, 46, 55
1, 149150, Note_off_c, 0, 58, 66
1, 149155, Poly_aftertouch_c, 0, 50, 0
1, 149175, Note_off_c, 0, 46, 66
1, 149279, Note_on_c, 0, 50, 51
1, 149291, Note_on_c, 0, 53, 68
1, 149294, Note_on_c, 0, 41, 44
1, 149309, Note_on_c, 0, 38, 39
1, 149320, Note_on_c, 0, 51, 10
1, 149326, Note_off_c, 0, 41, 53
1, 149337, Note_off_c, 0, 50, 64
1, 149344, Note_off_c, 0, 53, 65
1, 149349, Note_off_c, 0, 38, 51
1, 149368, Note_off_c, 0, 51, 52
1, 149446, Control_c, 0, 64, 88
1, 149460, Control_c, 0, 64, 61
1, 149466, Note_on_c, 0, 23, 68
1, 149483, Control_c, 0, 64, 34
1, 149498, Control_c, 0, 64, 0
1, 149557, Control_c, 0, 64, 32
1, 149572, Control_c, 0, 64, 50
1, 149581, Note_off_c, 0, 23, 59
1, 149586, Control_c, 0, 64, 65
1, 149601, Control_c, 0, 64, 100
1, 149616, Control_c, 0, 64, 127
1, 149639, Note_on_c, 0, 35, 32
1, 149639, Note_on_c, 0, 86, 72
1, 149640, Note_on_c, 0, 74, 47
1, 149664, Note_off_c, 0, 74, 61
1, 149678, Note_off_c, 0, 86, 0
1, 149678, Note_off_c, 0, 35, 53
1, 149681, Poly_aftertouch_c, 0, 82, 0
1, 149696, Note_on_c, 0, 85, 56
1, 149704, Note_on_c, 0, 88, 69
1, 149716, Poly_aftertouch_c, 0, 86, 0
1, 149723, Note_off_c, 0, 88, 70
1, 149733, Note_on_c, 0, 76, 35
1, 149737, Note_off_c, 0, 85, 64
1, 149742, Note_on_c, 0, 41, 35
1, 149764, Note_off_c, 0, 76, 55
1, 149767, Note_on_c, 0, 43, 47
1, 149778, Note_off_c, 0, 41, 52
1, 149810, Note_on_c, 0, 50, 68
1, 149830, Note_off_c, 0, 43, 0
1, 149847, Note_off_c, 0, 50, 61
1, 149850, Note_on_c, 0, 43, 36
1, 149895, Note_on_c, 0, 41, 51
1, 149901, Note_off_c, 0, 43, 57
1, 149931, Note_off_c, 0, 41, 63
1, 149958, Note_on_c, 0, 35, 71
1, 149973, Control_c, 0, 64, 73
1, 149985, Note_off_c, 0, 35, 66
1, 149988, Control_c, 0, 64, 56
1, 150002, Control_c, 0, 64, 0
1, 150128, Note_on_c, 0, 59, 59
1, 150129, Note_off_c, 0, 59, 127
1, 150129, Note_on_c, 0, 55, 59
1, 150138, Note_on_c, 0, 50, 60
1, 150151, Note_off_c, 0, 55, 63
1, 150162, Note_off_c, 0, 50, 60
1, 150223, Note_on_c, 0, 50, 53
1, 150257, Note_off_c, 0, 50, 0
1, 150268, Poly_aftertouch_c, 0, 50, 0
1, 150281, Note_on_c, 0, 50, 52
1, 150335, Note_off_c, 0, 50, 61
1, 150358, Note_on_c, 0, 51, 73
1, 150394, Note_off_c, 0, 51, 67
1, 150421, Note_on_c, 0, 58, 75
1, 150422, Note_off_c, 0, 58, 127
1, 150423, Note_on_c, 0, 54, 71
1, 150438, Note_on_c, 0, 53, 72
1, 150452, Note_off_c, 0, 54, 66
1, 150459, Note_off_c, 0, 53, 69
1, 150511, Note_on_c, 0, 53, 72
1, 150536, Note_off_c, 0, 53, 67
1, 150590, Note_on_c, 0, 53, 69
1, 150609, Note_off_c, 0, 53, 64
1, 150651, Note_on_c, 0, 53, 64
1, 150684, Note_off_c, 0, 53, 65
1, 150733, Note_on_c, 0, 58, 63
1, 150734, Note_on_c, 0, 53, 63
1, 150740, Note_on_c, 0, 54, 66
1, 150752, Note_off_c, 0, 58, 65
1, 150769, Note_off_c, 0, 54, 66
1, 150781, Note_off_c, 0, 53, 58
1, 150803, Note_on_c, 0, 51, 74
1, 150831, Note_off_c, 0, 51, 70
1, 150893, Note_on_c, 0, 35, 65
1, 150919, Note_off_c, 0, 35, 62
1, 151065, Note_on_c, 0, 50, 68
1, 151066, Note_on_c, 0, 53, 72
1, 151071, Note_on_c, 0, 57, 58
1, 151085, Note_off_c, 0, 50, 65
1, 151095, Note_off_c, 0, 53, 68
1, 151098, Note_off_c, 0, 57, 64
1, 151143, Note_on_c, 0, 50, 61
1, 151164, Note_off_c, 0, 50, 62
1, 151220, Note_on_c, 0, 50, 70
1, 151252, Note_off_c, 0, 50, 66
1, 151283, Note_on_c, 0, 51, 66
1, 151327, Note_off_c, 0, 51, 64
1, 151341, Note_on_c, 0, 56, 84
1, 151355, Note_on_c, 0, 52, 78
1, 151358, Note_on_c, 0, 47, 83
1, 151370, Note_off_c, 0, 56, 63
1, 151381, Note_off_c, 0, 52, 70
1, 151393, Note_off_c, 0, 47, 68
1, 151431, Note_on_c, 0, 47, 60
1, 151456, Note_off_c, 0, 47, 61
1, 151513, Note_on_c, 0, 47, 77
1, 151541, Note_off_c, 0, 47, 68
1, 151585, Note_on_c, 0, 47, 72
1, 151623, Note_off_c, 0, 47, 68
1, 151640, Note_on_c, 0, 51, 73
1, 151640, Note_on_c, 0, 55, 68
1, 151657, Note_on_c, 0, 47, 56
1, 151667, Note_off_c, 0, 55, 68
1, 151677, Note_off_c, 0, 51, 67
1, 151702, Note_off_c, 0, 47, 64
1, 151742, Note_on_c, 0, 48, 64
1, 151772, Note_off_c, 0, 48, 66
1, 151813, Note_on_c, 0, 36, 78
1, 151837, Note_off_c, 0, 36, 66
1, 151992, Note_on_c, 0, 62, 71
1, 151998, Note_on_c, 0, 59, 66
1, 151998, Note_on_c, 0, 71, 76
1, 152001, Note_on_c, 0, 67, 68
1, 152014, Note_off_c, 0, 71, 72
1, 152019, Note_off_c, 0, 67, 67
1, 152022, Note_off_c, 0, 62, 64
1, 152026, Note_off_c, 0, 59, 64
1, 152058, Note_on_c, 0, 50, 64
1, 152091, Note_off_c, 0, 50, 64
1, 152151, Note_on_c, 0, 50, 38
1, 152181, Note_off_c, 0, 50, 49
1, 152205, Note_on_c, 0, 51, 25
1, 152249, Note_off_c, 0, 51, 65
1, 152291, Note_on_c, 0, 66, 82
1, 152292, Note_on_c, 0, 65, 62
1, 152293, Note_on_c, 0, 58, 65
1, 152293, Note_on_c, 0, 70, 75
1, 152315, Note_off_c, 0, 70, 69
1, 152317, Note_on_c, 0, 64, 46
1, 152320, Note_off_c, 0, 66, 61
1, 152329, Note_off_c, 0, 65, 53
1, 152332, Note_off_c, 0, 58, 60
1, 152345, Note_off_c, 0, 64, 35
1, 152376, Note_on_c, 0, 53, 63
1, 152411, Note_off_c, 0, 53, 65
1, 152451, Note_on_c, 0, 53, 62
1, 152483, Note_off_c, 0, 53, 62
1, 152534, Note_on_c, 0, 53, 68
1, 152562, Note_off_c, 0, 53, 67
1, 152598, Note_on_c, 0, 66, 83
1, 152598, Note_on_c, 0, 70, 78
1, 152614, Note_on_c, 0, 65, 63
1, 152617, Note_on_c, 0, 58, 64
1, 152619, Note_off_c, 0, 70, 70
1, 152622, Note_off_c, 0, 66, 66
1, 152636, Note_off_c, 0, 65, 64
1, 152648, Note_off_c, 0, 58, 66
1, 152684, Note_on_c, 0, 51, 65
1, 152724, Note_off_c, 0, 51, 61
1, 152760, Note_on_c, 0, 35, 84
1, 152776, Control_c, 0, 64, 8
1, 152782, Note_off_c, 0, 35, 68
1, 152791, Control_c, 0, 64, 20
1, 152805, Control_c, 0, 64, 14
1, 152820, Control_c, 0, 64, 0
1, 152937, Note_on_c, 0, 57, 68
1, 152938, Note_on_c, 0, 69, 66
1, 152940, Note_on_c, 0, 71, 69
1, 152941, Note_on_c, 0, 62, 46
1, 152951, Note_on_c, 0, 67, 59
1, 152956, Note_off_c, 0, 71, 72
1, 152958, Note_off_c, 0, 69, 69
1, 152960, Note_on_c, 0, 65, 40
1, 152967, Note_off_c, 0, 62, 59
1, 152975, Note_off_c, 0, 57, 61
1, 152975, Note_off_c, 0, 67, 60
1, 152988, Note_off_c, 0, 65, 58
1, 153006, Note_on_c, 0, 50, 62
1, 153057, Note_off_c, 0, 50, 0
1, 153071, Note_on_c, 0, 50, 68
1, 153101, Note_off_c, 0, 50, 66
1, 153156, Note_on_c, 0, 51, 82
1, 153202, Note_off_c, 0, 51, 64
1, 153233, Note_on_c, 0, 68, 83
1, 153239, Note_on_c, 0, 64, 71
1, 153241, Note_on_c, 0, 56, 73
1, 153246, Note_on_c, 0, 59, 65
1, 153262, Note_off_c, 0, 68, 58
1, 153275, Note_off_c, 0, 64, 63
1, 153277, Note_off_c, 0, 59, 63
1, 153277, Note_on_c, 0, 66, 11
1, 153278, Note_off_c, 0, 56, 65
1, 153292, Note_off_c, 0, 66, 34
1, 153318, Note_on_c, 0, 47, 70
1, 153365, Note_off_c, 0, 47, 0
1, 153381, Note_on_c, 0, 47, 63
1, 153416, Note_off_c, 0, 47, 67
1, 153466, Note_on_c, 0, 47, 64
1, 153504, Note_off_c, 0, 47, 64
1, 153539, Note_on_c, 0, 67, 75
1, 153540, Note_on_c, 0, 63, 73
1, 153548, Note_on_c, 0, 59, 60
1, 153552, Note_on_c, 0, 55, 58
1, 153561, Note_off_c, 0, 67, 69
1, 153574, Note_off_c, 0, 63, 67
1, 153585, Note_off_c, 0, 59, 61
1, 153590, Note_off_c, 0, 55, 66
1, 153623, Note_on_c, 0, 48, 67
1, 153656, Note_off_c, 0, 48, 66
1, 153687, Control_c, 0, 64, 24
1, 153702, Control_c, 0, 64, 39
1, 153707, Note_on_c, 0, 36, 75
1, 153717, Control_c, 0, 64, 50
1, 153717, Control_c, 0, 67, 114
1, 153732, Control_c, 0, 64, 60
1, 153732, Control_c, 0, 67, 94
1, 153735, Note_off_c, 0, 36, 65
1, 153747, Control_c, 0, 64, 64
1, 153747, Control_c, 0, 67, 73
1, 153761, Control_c, 0, 64, 65
1, 153761, Control_c, 0, 67, 58
1, 153776, Control_c, 0, 64, 66
1, 153776, Control_c, 0, 67, 47
1, 153791, Control_c, 0, 67, 40
1, 153805, Control_c, 0, 67, 31
1, 153820, Control_c, 0, 67, 19
1, 153835, Control_c, 0, 64, 67
1, 153835, Control_c, 0, 67, 0
1, 153851, Control_c, 0, 64, 68
1, 153866, Control_c, 0, 64, 68
1, 153890, Note_on_c, 0, 74, 72
1, 153892, Note_on_c, 0, 62, 64
1, 153894, Note_on_c, 0, 67, 62
1, 153894, Note_on_c, 0, 71, 63
1, 153895, Control_c, 0, 64, 67
1, 153910, Note_off_c, 0, 74, 72
1, 153910, Control_c, 0, 64, 65
1, 153914, Note_off_c, 0, 71, 65
1, 153917, Note_off_c, 0, 67, 63
1, 153925, Control_c, 0, 64, 58
1, 153929, Note_off_c, 0, 62, 61
1, 153940, Control_c, 0, 64, 47
1, 153955, Control_c, 0, 64, 33
1, 153960, Note_on_c, 0, 75, 75
1, 153963, Note_on_c, 0, 70, 66
1, 153977, Control_c, 0, 64, 22
1, 153988, Note_off_c, 0, 70, 62
1, 153992, Control_c, 0, 64, 20
1, 153993, Note_off_c, 0, 75, 64
1, 154007, Control_c, 0, 64, 15
1, 154022, Control_c, 0, 64, 0
1, 154048, Note_on_c, 0, 73, 77
1, 154050, Note_on_c, 0, 78, 76
1, 154073, Note_off_c, 0, 73, 65
1, 154080, Note_off_c, 0, 78, 61
1, 154126, Note_on_c, 0, 70, 58
1, 154133, Note_on_c, 0, 75, 70
1, 154153, Note_off_c, 0, 70, 62
1, 154169, Note_off_c, 0, 75, 60
1, 154198, Note_on_c, 0, 74, 72
1, 154200, Note_on_c, 0, 67, 71
1, 154203, Note_on_c, 0, 71, 65
1, 154219, Note_on_c, 0, 62, 37
1, 154219, Note_off_c, 0, 74, 73
1, 154226, Note_off_c, 0, 71, 59
1, 154235, Note_off_c, 0, 67, 58
1, 154249, Note_off_c, 0, 62, 55
1, 154267, Note_on_c, 0, 70, 64
1, 154273, Note_on_c, 0, 75, 72
1, 154301, Note_off_c, 0, 70, 62
1, 154308, Note_off_c, 0, 75, 59
1, 154344, Note_on_c, 0, 78, 78
1, 154346, Note_on_c, 0, 73, 70
1, 154368, Note_off_c, 0, 73, 68
1, 154383, Note_off_c, 0, 78, 65
1, 154415, Note_on_c, 0, 74, 76
1, 154416, Note_on_c, 0, 79, 82
1, 154428, Note_on_c, 0, 71, 52
1, 154437, Note_off_c, 0, 79, 68
1, 154440, Note_off_c, 0, 74, 61
1, 154450, Note_off_c, 0, 71, 64
1, 154484, Note_on_c, 0, 82, 78
1, 154488, Note_on_c, 0, 75, 69
1, 154505, Note_off_c, 0, 75, 67
1, 154508, Note_off_c, 0, 82, 67
1, 154557, Note_on_c, 0, 83, 78
1, 154559, Note_on_c, 0, 78, 74
1, 154581, Note_off_c, 0, 78, 71
1, 154593, Note_off_c, 0, 83, 66
1, 154636, Note_on_c, 0, 89, 81
1, 154637, Note_on_c, 0, 74, 82
1, 154642, Note_on_c, 0, 77, 78
1, 154643, Note_on_c, 0, 88, 76
1, 154644, Control_c, 0, 64, 15
1, 154647, Note_on_c, 0, 82, 78
1, 154660, Control_c, 0, 64, 48
1, 154666, Note_off_c, 0, 77, 67
1, 154674, Note_off_c, 0, 74, 65
1, 154675, Control_c, 0, 64, 67
1, 154678, Note_on_c, 0, 76, 17
1, 154690, Control_c, 0, 64, 127
1, 154702, Note_on_c, 0, 78, 78
1, 154714, Note_on_c, 0, 87, 86
1, 154716, Note_off_c, 0, 88, 62
1, 154717, Note_off_c, 0, 89, 65
1, 154719, Note_off_c, 0, 82, 59
1, 154720, Control_c, 0, 64, 111
1, 154720, Note_off_c, 0, 76, 54
1, 154735, Note_off_c, 0, 78, 66
1, 154741, Control_c, 0, 64, 79
1, 154756, Control_c, 0, 64, 67
1, 154761, Note_off_c, 0, 87, 67
1, 154770, Control_c, 0, 64, 59
1, 154785, Control_c, 0, 64, 43
1, 154798, Note_on_c, 0, 83, 75
1, 154800, Control_c, 0, 64, 25
1, 154806, Note_on_c, 0, 86, 75
1, 154809, Note_on_c, 0, 84, 69
1, 154813, Note_on_c, 0, 79, 55
1, 154815, Control_c, 0, 64, 0
1, 154822, Note_off_c, 0, 83, 66
1, 154824, Note_off_c, 0, 86, 69
1, 154830, Note_on_c, 0, 81, 32
1, 154831, Note_off_c, 0, 81, 127
1, 154834, Note_off_c, 0, 84, 66
1, 154836, Note_off_c, 0, 79, 61
1, 154870, Note_on_c, 0, 87, 65
1, 154874, Note_on_c, 0, 82, 71
1, 154884, Note_on_c, 0, 86, 66
1, 154889, Note_off_c, 0, 87, 65
1, 154900, Note_off_c, 0, 82, 67
1, 154902, Note_off_c, 0, 86, 67
1, 154945, Note_on_c, 0, 90, 90
1, 154953, Note_on_c, 0, 85, 80
1, 154975, Note_off_c, 0, 85, 68
1, 154994, Note_off_c, 0, 90, 67
1, 155024, Note_on_c, 0, 87, 75
1, 155030, Note_on_c, 0, 82, 64
1, 155054, Note_off_c, 0, 82, 64
1, 155063, Note_off_c, 0, 87, 61
1, 155097, Note_on_c, 0, 86, 86
1, 155103, Note_on_c, 0, 74, 72
1, 155104, Note_on_c, 0, 83, 73
1, 155115, Note_off_c, 0, 86, 72
1, 155118, Note_on_c, 0, 79, 55
1, 155128, Note_off_c, 0, 74, 66
1, 155129, Note_off_c, 0, 83, 66
1, 155138, Note_off_c, 0, 79, 62
1, 155170, Note_on_c, 0, 87, 79
1, 155177, Note_on_c, 0, 82, 60
1, 155197, Note_off_c, 0, 87, 61
1, 155207, Note_off_c, 0, 82, 67
1, 155241, Note_on_c, 0, 85, 82
1, 155243, Note_on_c, 0, 90, 87
1, 155258, Note_off_c, 0, 85, 74
1, 155271, Note_off_c, 0, 90, 67
1, 155315, Note_on_c, 0, 91, 96
1, 155321, Note_on_c, 0, 86, 83
1, 155330, Note_on_c, 0, 83, 67
1, 155348, Note_off_c, 0, 91, 61
1, 155352, Note_off_c, 0, 86, 60
1, 155359, Note_off_c, 0, 83, 68
1, 155382, Note_on_c, 0, 87, 85
1, 155388, Note_on_c, 0, 94, 67
1, 155405, Note_off_c, 0, 94, 67
1, 155413, Note_off_c, 0, 87, 65
1, 155427, Note_on_c, 0, 93, 31
1, 155464, Note_on_c, 0, 90, 76
1, 155465, Note_on_c, 0, 95, 95
1, 155468, Note_off_c, 0, 93, 55
1, 155503, Note_off_c, 0, 90, 68
1, 155514, Note_off_c, 0, 95, 67
1, 155576, Note_on_c, 0, 100, 108
1, 155578, Note_on_c, 0, 95, 87
1, 155580, Note_on_c, 0, 96, 85
1, 155599, Note_on_c, 0, 97, 67
1, 155608, Control_c, 0, 64, 49
1, 155623, Note_on_c, 0, 92, 91
1, 155623, Note_off_c, 0, 96, 62
1, 155623, Control_c, 0, 64, 76
1, 155629, Note_off_c, 0, 97, 62
1, 155638, Control_c, 0, 64, 127
1, 155642, Note_off_c, 0, 95, 65
1, 155656, Note_off_c, 0, 100, 66
1, 155673, Note_on_c, 0, 83, 58
1, 155677, Note_on_c, 0, 88, 62
1, 155678, Note_on_c, 0, 86, 80
1, 155687, Note_off_c, 0, 92, 66
1, 155692, Note_on_c, 0, 76, 63
1, 155703, Note_off_c, 0, 88, 60
1, 155708, Note_off_c, 0, 83, 60
1, 155718, Note_off_c, 0, 86, 64
1, 155756, Note_on_c, 0, 68, 81
1, 155760, Note_off_c, 0, 76, 65
1, 155810, Note_on_c, 0, 84, 89
1, 155810, Note_off_c, 0, 68, 59
1, 155825, Note_on_c, 0, 80, 62
1, 155832, Note_off_c, 0, 84, 67
1, 155844, Note_off_c, 0, 80, 64
1, 155864, Note_on_c, 0, 87, 98
1, 155866, Note_on_c, 0, 76, 91
1, 155879, Note_on_c, 0, 83, 70
1, 155880, Note_on_c, 0, 77, 66
1, 155882, Note_on_c, 0, 74, 71
1, 155882, Note_off_c, 0, 87, 71
1, 155885, Note_off_c, 0, 76, 64
1, 155895, Note_off_c, 0, 83, 70
1, 155899, Note_off_c, 0, 74, 70
1, 155901, Note_off_c, 0, 77, 66
1, 155907, Note_on_c, 0, 73, 76
1, 155910, Note_on_c, 0, 84, 5
1, 155933, Note_off_c, 0, 73, 66
1, 155940, Note_on_c, 0, 68, 68
1, 155966, Note_off_c, 0, 84, 48
1, 155969, Note_off_c, 0, 68, 54
1, 155981, Note_on_c, 0, 67, 60
1, 156005, Note_off_c, 0, 67, 58
1, 156016, Note_on_c, 0, 59, 67
1, 156048, Note_on_c, 0, 77, 81
1, 156061, Note_on_c, 0, 76, 64
1, 156065, Note_off_c, 0, 59, 62
1, 156083, Note_on_c, 0, 72, 68
1, 156100, Note_off_c, 0, 77, 62
1, 156121, Note_on_c, 0, 65, 67
1, 156121, Note_off_c, 0, 76, 65
1, 156143, Note_off_c, 0, 72, 61
1, 156155, Note_off_c, 0, 65, 56
1, 156174, Poly_aftertouch_c, 0, 67, 127
1, 156195, Note_on_c, 0, 62, 58
1, 156197, Note_on_c, 0, 60, 58
1, 156212, Poly_aftertouch_c, 0, 67, 0
1, 156243, Note_on_c, 0, 56, 74
1, 156253, Control_c, 0, 67, 10
1, 156268, Control_c, 0, 67, 14
1, 156270, Note_off_c, 0, 62, 44
1, 156276, Note_off_c, 0, 60, 51
1, 156283, Control_c, 0, 67, 19
1, 156297, Control_c, 0, 67, 29
1, 156312, Note_on_c, 0, 50, 60
1, 156312, Note_off_c, 0, 56, 68
1, 156312, Control_c, 0, 67, 40
1, 156327, Control_c, 0, 67, 51
1, 156342, Control_c, 0, 67, 57
1, 156350, Note_off_c, 0, 50, 67
1, 156357, Control_c, 0, 67, 61
1, 156368, Note_on_c, 0, 56, 59
1, 156372, Control_c, 0, 67, 65
1, 156386, Control_c, 0, 67, 70
1, 156401, Control_c, 0, 67, 77
1, 156416, Control_c, 0, 67, 83
1, 156431, Control_c, 0, 67, 89
1, 156438, Note_on_c, 0, 52, 60
1, 156446, Control_c, 0, 67, 94
1, 156461, Control_c, 0, 67, 101
1, 156464, Note_off_c, 0, 56, 63
1, 156476, Control_c, 0, 67, 108
1, 156490, Control_c, 0, 67, 117
1, 156491, Note_on_c, 0, 44, 58
1, 156496, Note_off_c, 0, 52, 65
1, 156505, Control_c, 0, 67, 127
1, 156522, Note_off_c, 0, 44, 64
1, 156552, Note_on_c, 0, 32, 80
1, 156575, Note_off_c, 0, 32, 67
1, 156594, Control_c, 0, 64, 72
1, 156609, Control_c, 0, 64, 50
1, 156623, Control_c, 0, 64, 0
1, 156649, Poly_aftertouch_c, 0, 34, 0
1, 156746, Note_on_c, 0, 64, 78
1, 156747, Note_on_c, 0, 68, 77
1, 156748, Note_on_c, 0, 59, 64
1, 156763, Note_off_c, 0, 68, 69
1, 156768, Note_off_c, 0, 64, 70
1, 156771, Note_off_c, 0, 59, 65
1, 156772, Note_on_c, 0, 66, 34
1, 156773, Note_off_c, 0, 66, 127
1, 156828, Note_on_c, 0, 59, 60
1, 156849, Note_off_c, 0, 59, 60
1, 156889, Note_on_c, 0, 59, 50
1, 156940, Note_off_c, 0, 59, 54
1, 156952, Note_on_c, 0, 60, 70
1, 156988, Note_off_c, 0, 60, 64
1, 157038, Note_on_c, 0, 62, 79
1, 157038, Note_on_c, 0, 63, 88
1, 157038, Note_on_c, 0, 67, 89
1, 157047, Note_on_c, 0, 66, 66
1, 157048, Note_off_c, 0, 66, 127
1, 157053, Note_off_c, 0, 67, 72
1, 157060, Note_off_c, 0, 63, 69
1, 157064, Note_off_c, 0, 62, 71
1, 157113, Note_on_c, 0, 62, 69
1, 157142, Note_off_c, 0, 62, 67
1, 157192, Note_on_c, 0, 62, 66
1, 157217, Note_off_c, 0, 62, 70
1, 157270, Note_on_c, 0, 62, 50
1, 157286, Note_on_c, 0, 64, 25
1, 157294, Note_off_c, 0, 62, 59
1, 157322, Note_on_c, 0, 67, 73
1, 157325, Note_off_c, 0, 64, 30
1, 157328, Note_on_c, 0, 63, 71
1, 157347, Note_off_c, 0, 67, 68
1, 157355, Note_on_c, 0, 62, 53
1, 157358, Note_off_c, 0, 63, 67
1, 157379, Note_off_c, 0, 62, 58
1, 157409, Note_on_c, 0, 60, 68
1, 157436, Note_off_c, 0, 60, 68
1, 157487, Note_on_c, 0, 42, 78
1, 157506, Control_c, 0, 64, 28
1, 157518, Note_off_c, 0, 42, 64
1, 157520, Control_c, 0, 64, 38
1, 157535, Control_c, 0, 64, 41
1, 157550, Control_c, 0, 64, 40
1, 157565, Control_c, 0, 64, 36
1, 157580, Control_c, 0, 64, 33
1, 157594, Control_c, 0, 64, 31
1, 157609, Control_c, 0, 64, 29
1, 157624, Control_c, 0, 64, 24
1, 157639, Control_c, 0, 64, 14
1, 157652, Note_on_c, 0, 59, 70
1, 157652, Note_on_c, 0, 62, 72
1, 157653, Note_on_c, 0, 66, 63
1, 157653, Control_c, 0, 64, 0
1, 157674, Note_off_c, 0, 59, 67
1, 157678, Note_off_c, 0, 66, 68
1, 157683, Note_off_c, 0, 62, 66
1, 157727, Note_on_c, 0, 59, 78
1, 157754, Note_off_c, 0, 59, 61
1, 157801, Note_on_c, 0, 59, 63
1, 157838, Note_off_c, 0, 59, 62
1, 157877, Note_on_c, 0, 60, 68
1, 157918, Note_off_c, 0, 60, 64
1, 157944, Note_on_c, 0, 61, 79
1, 157945, Note_on_c, 0, 65, 86
1, 157952, Note_on_c, 0, 56, 77
1, 157962, Note_off_c, 0, 65, 71
1, 157970, Note_off_c, 0, 61, 66
1, 157975, Note_off_c, 0, 56, 69
1, 158020, Note_on_c, 0, 56, 81
1, 158042, Note_off_c, 0, 56, 69
1, 158093, Note_on_c, 0, 56, 73
1, 158130, Note_off_c, 0, 56, 68
1, 158171, Note_on_c, 0, 56, 55
1, 158196, Note_off_c, 0, 56, 69
1, 158251, Note_on_c, 0, 60, 76
1, 158252, Note_on_c, 0, 64, 67
1, 158261, Note_on_c, 0, 56, 59
1, 158269, Note_off_c, 0, 64, 67
1, 158272, Note_off_c, 0, 60, 71
1, 158282, Note_off_c, 0, 56, 63
1, 158318, Note_on_c, 0, 57, 64
1, 158361, Note_off_c, 0, 57, 62
1, 158389, Control_c, 0, 64, 31
1, 158404, Note_on_c, 0, 44, 78
1, 158404, Control_c, 0, 64, 37
1, 158419, Control_c, 0, 64, 37
1, 158431, Note_off_c, 0, 44, 66
1, 158434, Control_c, 0, 64, 33
1, 158449, Control_c, 0, 64, 23
1, 158464, Control_c, 0, 64, 0
1, 158583, Note_on_c, 0, 80, 88
1, 158584, Note_off_c, 0, 80, 127
1, 158584, Note_on_c, 0, 76, 81
1, 158595, Note_on_c, 0, 71, 71
1, 158601, Note_off_c, 0, 76, 74
1, 158636, Note_off_c, 0, 71, 57
1, 158660, Note_on_c, 0, 59, 73
1, 158695, Note_off_c, 0, 59, 62
1, 158727, Poly_aftertouch_c, 0, 59, 0
1, 158734, Note_on_c, 0, 59, 67
1, 158768, Note_off_c, 0, 59, 64
1, 158824, Note_on_c, 0, 60, 55
1, 158845, Note_off_c, 0, 60, 61
1, 158879, Note_on_c, 0, 79, 86
1, 158881, Note_on_c, 0, 75, 85
1, 158891, Note_on_c, 0, 74, 74
1, 158892, Note_on_c, 0, 67, 77
1, 158896, Note_on_c, 0, 78, 59
1, 158897, Note_off_c, 0, 78, 127
1, 158901, Note_off_c, 0, 79, 64
1, 158907, Note_off_c, 0, 75, 63
1, 158918, Note_off_c, 0, 67, 64
1, 158931, Note_off_c, 0, 74, 67
1, 158971, Note_on_c, 0, 62, 69
1, 159000, Note_off_c, 0, 62, 66
1, 159033, Note_on_c, 0, 62, 65
1, 159053, Note_off_c, 0, 62, 67
1, 159109, Note_on_c, 0, 62, 77
1, 159135, Note_off_c, 0, 62, 69
1, 159183, Note_on_c, 0, 79, 72
1, 159185, Note_on_c, 0, 75, 72
1, 159197, Note_on_c, 0, 74, 59
1, 159197, Note_on_c, 0, 67, 59
1, 159201, Note_off_c, 0, 79, 68
1, 159204, Note_on_c, 0, 78, 39
1, 159205, Note_off_c, 0, 78, 127
1, 159208, Note_off_c, 0, 75, 68
1, 159223, Note_off_c, 0, 74, 67
1, 159225, Note_off_c, 0, 67, 62
1, 159266, Note_on_c, 0, 60, 67
1, 159318, Note_off_c, 0, 60, 54
1, 159337, Control_c, 0, 64, 18
1, 159343, Note_on_c, 0, 44, 75
1, 159352, Control_c, 0, 64, 35
1, 159362, Note_off_c, 0, 44, 64
1, 159367, Control_c, 0, 64, 39
1, 159382, Control_c, 0, 64, 39
1, 159397, Control_c, 0, 64, 37
1, 159412, Control_c, 0, 64, 35
1, 159426, Control_c, 0, 64, 31
1, 159441, Control_c, 0, 64, 29
1, 159456, Control_c, 0, 64, 28
1, 159471, Control_c, 0, 64, 27
1, 159486, Control_c, 0, 64, 26
1, 159501, Note_on_c, 0, 78, 85
1, 159502, Note_off_c, 0, 78, 127
1, 159502, Control_c, 0, 64, 23
1, 159508, Note_on_c, 0, 74, 76
1, 159515, Poly_aftertouch_c, 0, 78, 0
1, 159516, Note_on_c, 0, 66, 82
1, 159516, Control_c, 0, 64, 19
1, 159525, Note_on_c, 0, 71, 54
1, 159525, Note_off_c, 0, 74, 71
1, 159531, Control_c, 0, 64, 14
1, 159545, Note_off_c, 0, 71, 64
1, 159546, Control_c, 0, 64, 0
1, 159555, Note_off_c, 0, 66, 61
1, 159581, Note_on_c, 0, 59, 70
1, 159613, Note_off_c, 0, 59, 59
1, 159660, Note_on_c, 0, 59, 54
1, 159686, Note_off_c, 0, 59, 56
1, 159727, Note_on_c, 0, 60, 75
1, 159763, Note_off_c, 0, 60, 66
1, 159797, Note_on_c, 0, 77, 77
1, 159799, Note_on_c, 0, 68, 70
1, 159803, Note_on_c, 0, 73, 72
1, 159822, Note_off_c, 0, 77, 65
1, 159832, Note_on_c, 0, 75, 25
1, 159833, Note_off_c, 0, 68, 60
1, 159835, Note_off_c, 0, 73, 62
1, 159839, Note_on_c, 0, 64, 27
1, 159841, Note_on_c, 0, 65, 16
1, 159862, Note_off_c, 0, 75, 45
1, 159872, Note_on_c, 0, 56, 80
1, 159874, Note_off_c, 0, 64, 49
1, 159881, Note_off_c, 0, 65, 43
1, 159910, Note_off_c, 0, 56, 67
1, 159939, Note_on_c, 0, 56, 61
1, 159986, Note_off_c, 0, 56, 69
1, 160023, Note_on_c, 0, 56, 62
1, 160028, Control_c, 0, 67, 115
1, 160042, Control_c, 0, 67, 98
1, 160046, Note_off_c, 0, 56, 69
1, 160057, Control_c, 0, 67, 79
1, 160072, Control_c, 0, 67, 60
1, 160087, Control_c, 0, 67, 46
1, 160100, Note_on_c, 0, 72, 78
1, 160101, Note_on_c, 0, 76, 68
1, 160102, Control_c, 0, 67, 37
1, 160105, Note_on_c, 0, 64, 62
1, 160108, Note_on_c, 0, 67, 58
1, 160116, Control_c, 0, 67, 28
1, 160118, Note_off_c, 0, 76, 70
1, 160118, Note_off_c, 0, 72, 72
1, 160131, Control_c, 0, 67, 21
1, 160144, Note_off_c, 0, 67, 65
1, 160146, Control_c, 0, 67, 19
1, 160148, Note_off_c, 0, 64, 60
1, 160170, Note_on_c, 0, 57, 70
1, 160190, Control_c, 0, 67, 20
1, 160212, Note_off_c, 0, 57, 62
1, 160251, Control_c, 0, 64, 20
1, 160262, Note_on_c, 0, 44, 84
1, 160266, Control_c, 0, 64, 42
1, 160280, Control_c, 0, 64, 54
1, 160280, Control_c, 0, 67, 19
1, 160287, Note_off_c, 0, 44, 68
1, 160295, Control_c, 0, 64, 61
1, 160295, Control_c, 0, 67, 18
1, 160310, Control_c, 0, 64, 63
1, 160310, Control_c, 0, 67, 17
1, 160325, Control_c, 0, 64, 63
1, 160325, Control_c, 0, 67, 17
1, 160340, Control_c, 0, 64, 64
1, 160340, Control_c, 0, 67, 16
1, 160354, Control_c, 0, 67, 16
1, 160369, Control_c, 0, 67, 15
1, 160398, Control_c, 0, 64, 63
1, 160413, Control_c, 0, 64, 62
1, 160428, Control_c, 0, 64, 57
1, 160435, Note_on_c, 0, 68, 71
1, 160436, Note_on_c, 0, 71, 69
1, 160443, Control_c, 0, 64, 46
1, 160452, Note_off_c, 0, 68, 65
1, 160452, Note_off_c, 0, 71, 69
1, 160455, Note_on_c, 0, 59, 48
1, 160458, Control_c, 0, 64, 27
1, 160467, Note_on_c, 0, 64, 10
1, 160473, Control_c, 0, 64, 0
1, 160481, Note_off_c, 0, 59, 55
1, 160488, Control_c, 0, 67, 18
1, 160496, Note_on_c, 0, 72, 83
1, 160503, Control_c, 0, 67, 22
1, 160503, Note_on_c, 0, 67, 71
1, 160513, Note_off_c, 0, 64, 43
1, 160518, Control_c, 0, 67, 29
1, 160530, Note_off_c, 0, 67, 66
1, 160533, Control_c, 0, 67, 41
1, 160541, Note_off_c, 0, 72, 60
1, 160547, Control_c, 0, 67, 61
1, 160562, Control_c, 0, 67, 83
1, 160575, Note_on_c, 0, 75, 77
1, 160577, Control_c, 0, 67, 95
1, 160586, Note_on_c, 0, 70, 57
1, 160591, Control_c, 0, 67, 97
1, 160606, Control_c, 0, 67, 97
1, 160607, Note_off_c, 0, 70, 60
1, 160621, Control_c, 0, 67, 94
1, 160636, Control_c, 0, 67, 91
1, 160643, Note_off_c, 0, 75, 61
1, 160648, Note_on_c, 0, 72, 79
1, 160651, Control_c, 0, 67, 89
1, 160657, Note_on_c, 0, 67, 60
1, 160665, Control_c, 0, 67, 88
1, 160676, Note_off_c, 0, 67, 63
1, 160680, Control_c, 0, 67, 87
1, 160682, Note_off_c, 0, 72, 60
1, 160695, Control_c, 0, 67, 87
1, 160734, Note_on_c, 0, 71, 71
1, 160735, Note_on_c, 0, 68, 74
1, 160740, Note_on_c, 0, 59, 56
1, 160747, Control_c, 0, 67, 87
1, 160748, Note_on_c, 0, 64, 45
1, 160749, Note_off_c, 0, 71, 69
1, 160759, Note_off_c, 0, 68, 68
1, 160762, Note_off_c, 0, 59, 60
1, 160762, Control_c, 0, 67, 88
1, 160775, Note_off_c, 0, 64, 56
1, 160798, Note_on_c, 0, 73, 88
1, 160806, Control_c, 0, 67, 87
1, 160821, Note_on_c, 0, 67, 46
1, 160821, Control_c, 0, 67, 87
1, 160836, Control_c, 0, 67, 86
1, 160837, Note_off_c, 0, 73, 65
1, 160848, Note_off_c, 0, 67, 54
1, 160851, Control_c, 0, 67, 85
1, 160865, Control_c, 0, 67, 82
1, 160875, Note_on_c, 0, 75, 77
1, 160880, Control_c, 0, 67, 77
1, 160881, Note_on_c, 0, 80, 78
1, 160895, Control_c, 0, 67, 65
1, 160896, Note_off_c, 0, 75, 69
1, 160903, Note_off_c, 0, 80, 69
1, 160910, Control_c, 0, 67, 52
1, 160925, Control_c, 0, 67, 44
1, 160940, Control_c, 0, 67, 42
1, 160944, Note_on_c, 0, 76, 80
1, 160954, Note_on_c, 0, 68, 74
1, 160954, Control_c, 0, 67, 41
1, 160964, Note_off_c, 0, 76, 73
1, 160984, Control_c, 0, 67, 40
1, 160986, Note_off_c, 0, 68, 59
1, 161010, Poly_aftertouch_c, 0, 71, 127
1, 161013, Control_c, 0, 67, 40
1, 161016, Note_on_c, 0, 79, 77
1, 161022, Note_on_c, 0, 72, 53
1, 161023, Note_off_c, 0, 72, 127
1, 161036, Poly_aftertouch_c, 0, 71, 0
1, 161040, Note_off_c, 0, 79, 68
1, 161044, Control_c, 0, 67, 40
1, 161078, Note_on_c, 0, 82, 93
1, 161080, Note_on_c, 0, 73, 86
1, 161113, Note_off_c, 0, 73, 62
1, 161118, Control_c, 0, 67, 39
1, 161119, Note_off_c, 0, 82, 67
1, 161133, Control_c, 0, 67, 37
1, 161148, Control_c, 0, 67, 32
1, 161163, Control_c, 0, 67, 28
1, 161171, Note_on_c, 0, 71, 75
1, 161173, Note_on_c, 0, 76, 84
1, 161177, Control_c, 0, 64, 40
1, 161177, Control_c, 0, 67, 26
1, 161181, Note_on_c, 0, 86, 89
1, 161188, Note_on_c, 0, 79, 70
1, 161191, Note_off_c, 0, 76, 73
1, 161192, Control_c, 0, 64, 58
1, 161192, Control_c, 0, 67, 23
1, 161193, Note_off_c, 0, 71, 73
1, 161206, Note_off_c, 0, 79, 66
1, 161207, Control_c, 0, 64, 66
1, 161207, Control_c, 0, 67, 19
1, 161221, Control_c, 0, 64, 68
1, 161221, Control_c, 0, 67, 15
1, 161236, Control_c, 0, 67, 12
1, 161250, Note_on_c, 0, 77, 85
1, 161251, Control_c, 0, 64, 68
1, 161251, Control_c, 0, 67, 11
1, 161253, Note_on_c, 0, 84, 90
1, 161266, Control_c, 0, 64, 66
1, 161266, Control_c, 0, 67, 10
1, 161269, Note_off_c, 0, 86, 63
1, 161277, Note_off_c, 0, 77, 63
1, 161281, Control_c, 0, 64, 62
1, 161281, Control_c, 0, 67, 0
1, 161293, Note_off_c, 0, 84, 65
1, 161296, Control_c, 0, 64, 52
1, 161311, Control_c, 0, 64, 27
1, 161325, Control_c, 0, 64, 0
1, 161336, Note_on_c, 0, 83, 89
1, 161338, Note_on_c, 0, 76, 85
1, 161343, Note_on_c, 0, 80, 71
1, 161352, Note_off_c, 0, 83, 76
1, 161358, Note_off_c, 0, 76, 73
1, 161360, Note_off_c, 0, 80, 68
1, 161400, Note_on_c, 0, 84, 87
1, 161401, Note_on_c, 0, 79, 78
1, 161427, Note_off_c, 0, 84, 64
1, 161429, Note_off_c, 0, 79, 64
1, 161489, Note_on_c, 0, 87, 90
1, 161492, Note_on_c, 0, 82, 80
1, 161516, Note_off_c, 0, 82, 66
1, 161534, Note_off_c, 0, 87, 65
1, 161566, Note_on_c, 0, 84, 87
1, 161567, Note_on_c, 0, 79, 77
1, 161598, Note_off_c, 0, 79, 63
1, 161608, Note_off_c, 0, 84, 65
1, 161643, Note_on_c, 0, 71, 81
1, 161646, Note_on_c, 0, 83, 83
1, 161649, Note_on_c, 0, 80, 80
1, 161651, Note_on_c, 0, 76, 73
1, 161663, Note_off_c, 0, 71, 74
1, 161665, Note_off_c, 0, 83, 74
1, 161669, Note_off_c, 0, 80, 70
1, 161673, Note_off_c, 0, 76, 71
1, 161704, Note_on_c, 0, 79, 83
1, 161707, Note_on_c, 0, 85, 81
1, 161724, Note_off_c, 0, 79, 70
1, 161725, Note_off_c, 0, 85, 64
1, 161725, Note_on_c, 0, 84, 76
1, 161776, Note_on_c, 0, 87, 84
1, 161779, Note_off_c, 0, 84, 61
1, 161784, Note_on_c, 0, 92, 97
1, 161794, Note_off_c, 0, 87, 73
1, 161805, Note_off_c, 0, 92, 64
1, 161867, Note_on_c, 0, 88, 96
1, 161875, Note_on_c, 0, 80, 78
1, 161883, Note_on_c, 0, 83, 55
1, 161887, Note_off_c, 0, 88, 67
1, 161899, Note_off_c, 0, 80, 63
1, 161901, Note_off_c, 0, 83, 66
1, 161922, Note_on_c, 0, 91, 86
1, 161931, Note_on_c, 0, 95, 90
1, 161943, Note_on_c, 0, 92, 81
1, 161958, Note_off_c, 0, 91, 61
1, 161993, Note_off_c, 0, 92, 66
1, 162003, Note_on_c, 0, 100, 95
1, 162014, Note_off_c, 0, 95, 68
1, 162023, Note_on_c, 0, 97, 49
1, 162035, Note_off_c, 0, 100, 69
1, 162049, Note_off_c, 0, 97, 56
1, 162123, Note_on_c, 0, 101, 106
1, 162148, Control_c, 0, 64, 31
1, 162162, Control_c, 0, 64, 59
1, 162177, Control_c, 0, 64, 127
1, 162185, Note_on_c, 0, 100, 76
1, 162187, Note_on_c, 0, 98, 83
1, 162208, Note_off_c, 0, 101, 66
1, 162250, Note_off_c, 0, 100, 65
1, 162251, Note_on_c, 0, 89, 79
1, 162255, Note_off_c, 0, 98, 66
1, 162259, Note_on_c, 0, 86, 74
1, 162293, Note_off_c, 0, 89, 64
1, 162298, Note_on_c, 0, 82, 73
1, 162306, Note_off_c, 0, 86, 61
1, 162325, Note_off_c, 0, 82, 67
1, 162364, Note_on_c, 0, 74, 71
1, 162383, Note_off_c, 0, 74, 69
1, 162390, Note_on_c, 0, 89, 88
1, 162391, Note_on_c, 0, 86, 81
1, 162411, Note_off_c, 0, 89, 64
1, 162414, Note_off_c, 0, 86, 63
1, 162428, Poly_aftertouch_c, 0, 81, 0
1, 162442, Note_on_c, 0, 88, 83
1, 162449, Note_on_c, 0, 89, 83
1, 162454, Note_on_c, 0, 79, 99
1, 162455, Note_on_c, 0, 91, 105
1, 162476, Note_off_c, 0, 89, 65
1, 162486, Note_off_c, 0, 79, 61
1, 162487, Note_off_c, 0, 88, 68
1, 162488, Note_off_c, 0, 91, 63
1, 162523, Note_on_c, 0, 74, 61
1, 162527, Note_on_c, 0, 80, 75
1, 162558, Note_off_c, 0, 80, 64
1, 162592, Note_on_c, 0, 68, 74
1, 162596, Note_off_c, 0, 74, 65
1, 162615, Note_off_c, 0, 68, 68
1, 162629, Control_c, 0, 67, 11
1, 162643, Note_on_c, 0, 67, 38
1, 162645, Control_c, 0, 67, 17
1, 162659, Control_c, 0, 67, 22
1, 162661, Note_on_c, 0, 70, 75
1, 162674, Control_c, 0, 67, 31
1, 162680, Note_off_c, 0, 67, 51
1, 162687, Note_on_c, 0, 71, 51
1, 162689, Control_c, 0, 67, 42
1, 162699, Note_off_c, 0, 70, 0
1, 162699, Note_on_c, 0, 70, 31
1, 162704, Control_c, 0, 67, 51
1, 162709, Note_off_c, 0, 71, 63
1, 162710, Note_on_c, 0, 62, 64
1, 162719, Control_c, 0, 67, 58
1, 162732, Note_off_c, 0, 70, 51
1, 162733, Control_c, 0, 67, 65
1, 162748, Control_c, 0, 67, 75
1, 162755, Note_on_c, 0, 58, 70
1, 162759, Note_off_c, 0, 62, 63
1, 162763, Control_c, 0, 67, 87
1, 162772, Note_off_c, 0, 58, 67
1, 162778, Control_c, 0, 67, 100
1, 162792, Control_c, 0, 67, 116
1, 162807, Control_c, 0, 67, 127
1, 162821, Note_on_c, 0, 56, 69
1, 162829, Note_on_c, 0, 64, 42
1, 162858, Note_off_c, 0, 64, 55
1, 162890, Note_off_c, 0, 56, 56
1, 162897, Note_on_c, 0, 50, 64
1, 162927, Note_off_c, 0, 50, 66
1, 162971, Note_on_c, 0, 58, 43
1, 163000, Note_on_c, 0, 53, 62
1, 163007, Note_off_c, 0, 58, 0
1, 163007, Note_on_c, 0, 58, 9
1, 163020, Poly_aftertouch_c, 0, 52, 0
1, 163039, Note_on_c, 0, 46, 73
1, 163058, Note_on_c, 0, 56, 26
1, 163075, Note_off_c, 0, 46, 66
1, 163092, Note_off_c, 0, 56, 55
1, 163120, Note_on_c, 0, 32, 90
1, 163121, Note_off_c, 0, 53, 64
1, 163134, Note_off_c, 0, 58, 52
1, 163144, Note_off_c, 0, 32, 67
1, 163156, Control_c, 0, 64, 67
1, 163171, Control_c, 0, 64, 47
1, 163186, Control_c, 0, 64, 0
1, 163195, Poly_aftertouch_c, 0, 34, 0
1, 163294, Note_on_c, 0, 70, 84
1, 163300, Note_on_c, 0, 62, 91
1, 163302, Note_on_c, 0, 68, 66
1, 163305, Note_on_c, 0, 53, 73
1, 163319, Note_off_c, 0, 70, 62
1, 163320, Note_off_c, 0, 68, 63
1, 163321, Note_on_c, 0, 77, 32
1, 163321, Note_off_c, 0, 62, 72
1, 163330, Note_on_c, 0, 76, 40
1, 163330, Note_off_c, 0, 53, 68
1, 163331, Note_on_c, 0, 54, 30
1, 163332, Note_off_c, 0, 54, 127
1, 163348, Note_off_c, 0, 77, 54
1, 163358, Note_off_c, 0, 76, 56
1, 163368, Note_on_c, 0, 65, 82
1, 163398, Note_off_c, 0, 65, 69
1, 163439, Note_on_c, 0, 65, 76
1, 163453, Control_c, 0, 67, 107
1, 163462, Note_off_c, 0, 65, 71
1, 163468, Control_c, 0, 67, 78
1, 163482, Control_c, 0, 67, 45
1, 163497, Control_c, 0, 67, 14
1, 163512, Control_c, 0, 67, 0
1, 163517, Note_on_c, 0, 66, 84
1, 163546, Note_off_c, 0, 66, 63
1, 163588, Note_on_c, 0, 63, 89
1, 163589, Note_on_c, 0, 75, 79
1, 163590, Note_on_c, 0, 54, 90
1, 163591, Note_on_c, 0, 73, 82
1, 163598, Note_on_c, 0, 59, 62
1, 163598, Note_on_c, 0, 80, 86
1, 163601, Note_on_c, 0, 57, 56
1, 163610, Note_off_c, 0, 54, 71
1, 163611, Note_off_c, 0, 63, 67
1, 163613, Note_off_c, 0, 73, 67
1, 163618, Note_off_c, 0, 75, 62
1, 163621, Note_off_c, 0, 57, 61
1, 163623, Note_off_c, 0, 59, 65
1, 163645, Note_off_c, 0, 80, 64
1, 163668, Note_on_c, 0, 68, 81
1, 163696, Note_off_c, 0, 68, 64
1, 163749, Note_on_c, 0, 68, 75
1, 163768, Note_off_c, 0, 68, 69
1, 163769, Note_on_c, 0, 80, 57
1, 163790, Note_off_c, 0, 80, 61
1, 163819, Note_on_c, 0, 68, 84
1, 163847, Note_off_c, 0, 68, 62
1, 163887, Note_on_c, 0, 80, 79
1, 163891, Note_on_c, 0, 75, 79
1, 163894, Note_on_c, 0, 63, 83
1, 163894, Note_on_c, 0, 69, 81
1, 163902, Note_on_c, 0, 59, 69
1, 163907, Note_on_c, 0, 73, 51
1, 163908, Note_off_c, 0, 73, 127
1, 163913, Note_off_c, 0, 75, 69
1, 163913, Note_off_c, 0, 69, 72
1, 163914, Note_off_c, 0, 63, 74
1, 163919, Note_on_c, 0, 61, 35
1, 163931, Note_off_c, 0, 59, 66
1, 163938, Note_off_c, 0, 80, 63
1, 163949, Note_off_c, 0, 61, 57
1, 163969, Note_on_c, 0, 66, 83
1, 164012, Note_off_c, 0, 66, 58
1, 164048, Note_on_c, 0, 32, 85
1, 164053, Control_c, 0, 64, 34
1, 164068, Control_c, 0, 64, 57
1, 164078, Note_off_c, 0, 32, 66
1, 164083, Control_c, 0, 64, 70
1, 164112, Control_c, 0, 64, 62
1, 164127, Control_c, 0, 64, 50
1, 164141, Control_c, 0, 64, 23
1, 164156, Control_c, 0, 64, 0
1, 164208, Note_on_c, 0, 70, 72
1, 164210, Note_on_c, 0, 62, 93
1, 164210, Note_on_c, 0, 77, 70
1, 164214, Note_on_c, 0, 53, 76
1, 164217, Note_on_c, 0, 68, 62
1, 164225, Note_on_c, 0, 58, 58
1, 164229, Note_off_c, 0, 62, 72
1, 164234, Note_off_c, 0, 70, 67
1, 164237, Note_off_c, 0, 68, 62
1, 164240, Note_off_c, 0, 53, 69
1, 164244, Note_off_c, 0, 77, 62
1, 164247, Note_off_c, 0, 58, 60
1, 164277, Note_on_c, 0, 65, 81
1, 164314, Note_off_c, 0, 65, 65
1, 164349, Poly_aftertouch_c, 0, 65, 0
1, 164358, Note_on_c, 0, 65, 65
1, 164377, Note_on_c, 0, 64, 43
1, 164384, Note_off_c, 0, 65, 69
1, 164407, Note_off_c, 0, 64, 56
1, 164422, Note_on_c, 0, 66, 84
1, 164443, Note_off_c, 0, 66, 68
1, 164507, Note_on_c, 0, 68, 86
1, 164512, Note_on_c, 0, 60, 92
1, 164512, Note_on_c, 0, 66, 81
1, 164512, Note_on_c, 0, 51, 93
1, 164514, Note_on_c, 0, 56, 76
1, 164517, Note_on_c, 0, 74, 66
1, 164527, Note_off_c, 0, 60, 75
1, 164531, Note_off_c, 0, 56, 70
1, 164532, Note_off_c, 0, 51, 73
1, 164536, Control_c, 0, 64, 24
1, 164544, Note_on_c, 0, 70, 25
1, 164551, Control_c, 0, 64, 22
1, 164553, Note_off_c, 0, 66, 54
1, 164553, Note_off_c, 0, 68, 60
1, 164557, Note_on_c, 0, 54, 10
1, 164561, Note_off_c, 0, 74, 67
1, 164565, Control_c, 0, 64, 0
1, 164581, Note_off_c, 0, 70, 40
1, 164584, Note_on_c, 0, 62, 86
1, 164604, Note_off_c, 0, 54, 28
1, 164628, Note_off_c, 0, 62, 60
1, 164660, Note_on_c, 0, 62, 82
1, 164685, Note_off_c, 0, 62, 70
1, 164718, Note_on_c, 0, 62, 83
1, 164755, Note_off_c, 0, 62, 63
1, 164807, Note_on_c, 0, 68, 73
1, 164807, Note_on_c, 0, 66, 74
1, 164811, Note_on_c, 0, 54, 80
1, 164816, Note_on_c, 0, 60, 64
1, 164821, Note_on_c, 0, 74, 48
1, 164822, Note_off_c, 0, 74, 127
1, 164825, Note_off_c, 0, 68, 67
1, 164832, Note_off_c, 0, 66, 67
1, 164843, Note_off_c, 0, 54, 68
1, 164844, Note_off_c, 0, 60, 66
1, 164884, Note_on_c, 0, 63, 82
1, 164936, Note_off_c, 0, 63, 65
1, 164962, Note_on_c, 0, 32, 93
1, 164965, Control_c, 0, 64, 30
1, 164980, Control_c, 0, 64, 53
1, 164986, Note_off_c, 0, 32, 67
1, 164995, Control_c, 0, 64, 66
1, 165010, Control_c, 0, 64, 82
1, 165025, Control_c, 0, 64, 83
1, 165099, Control_c, 0, 64, 82
1, 165114, Control_c, 0, 64, 75
1, 165129, Control_c, 0, 64, 65
1, 165129, Note_on_c, 0, 61, 77
1, 165132, Note_on_c, 0, 64, 75
1, 165135, Note_on_c, 0, 56, 66
1, 165136, Note_off_c, 0, 56, 127
1, 165144, Control_c, 0, 64, 55
1, 165147, Note_off_c, 0, 61, 71
1, 165152, Note_on_c, 0, 57, 54
1, 165156, Note_off_c, 0, 64, 68
1, 165159, Control_c, 0, 64, 31
1, 165162, Note_on_c, 0, 55, 37
1, 165174, Control_c, 0, 64, 0
1, 165177, Note_off_c, 0, 57, 57
1, 165187, Note_on_c, 0, 70, 80
1, 165189, Note_on_c, 0, 78, 89
1, 165191, Note_on_c, 0, 66, 70
1, 165195, Note_off_c, 0, 55, 54
1, 165219, Note_off_c, 0, 70, 67
1, 165225, Note_off_c, 0, 66, 68
1, 165230, Note_off_c, 0, 78, 62
1, 165276, Note_on_c, 0, 68, 94
1, 165285, Note_on_c, 0, 63, 75
1, 165295, Note_on_c, 0, 59, 61
1, 165311, Note_off_c, 0, 63, 67
1, 165317, Note_off_c, 0, 68, 58
1, 165319, Note_off_c, 0, 59, 64
1, 165345, Note_on_c, 0, 66, 44
1, 165350, Note_on_c, 0, 73, 81
1, 165351, Note_on_c, 0, 78, 76
1, 165374, Note_off_c, 0, 78, 69
1, 165383, Note_off_c, 0, 66, 63
1, 165404, Note_off_c, 0, 73, 60
1, 165424, Note_on_c, 0, 65, 91
1, 165427, Note_on_c, 0, 56, 90
1, 165437, Note_on_c, 0, 58, 71
1, 165441, Note_on_c, 0, 62, 59
1, 165450, Note_off_c, 0, 65, 69
1, 165455, Note_off_c, 0, 58, 67
1, 165463, Note_off_c, 0, 62, 63
1, 165464, Note_off_c, 0, 56, 66
1, 165497, Note_on_c, 0, 78, 88
1, 165499, Note_on_c, 0, 66, 73
1, 165507, Note_on_c, 0, 70, 57
1, 165508, Note_off_c, 0, 70, 127
1, 165516, Note_off_c, 0, 66, 67
1, 165517, Note_off_c, 0, 78, 73
1, 165580, Note_on_c, 0, 81, 95
1, 165584, Note_on_c, 0, 73, 81
1, 165597, Note_on_c, 0, 69, 60
1, 165603, Note_off_c, 0, 73, 71
1, 165618, Note_off_c, 0, 69, 62
1, 165628, Note_off_c, 0, 81, 63
1, 165657, Note_on_c, 0, 68, 82
1, 165660, Note_on_c, 0, 70, 76
1, 165683, Note_off_c, 0, 70, 67
1, 165692, Note_off_c, 0, 68, 56
1, 165730, Note_on_c, 0, 73, 86
1, 165734, Note_on_c, 0, 82, 71
1, 165735, Note_off_c, 0, 82, 127
1, 165735, Note_on_c, 0, 85, 87
1, 165737, Note_on_c, 0, 78, 74
1, 165747, Note_on_c, 0, 81, 67
1, 165749, Note_off_c, 0, 73, 72
1, 165753, Note_off_c, 0, 78, 71
1, 165766, Note_off_c, 0, 81, 68
1, 165770, Note_off_c, 0, 85, 58
1, 165796, Note_on_c, 0, 74, 90
1, 165836, Note_off_c, 0, 74, 68
1, 165892, Control_c, 0, 64, 27
1, 165892, Note_on_c, 0, 80, 97
1, 165892, Note_on_c, 0, 91, 83
1, 165895, Note_on_c, 0, 89, 81
1, 165900, Note_on_c, 0, 79, 74
1, 165907, Control_c, 0, 64, 59
1, 165910, Note_off_c, 0, 91, 69
1, 165913, Note_off_c, 0, 80, 63
1, 165914, Note_off_c, 0, 89, 72
1, 165915, Note_on_c, 0, 87, 35
1, 165922, Note_off_c, 0, 79, 67
1, 165922, Control_c, 0, 64, 127
1, 165947, Note_off_c, 0, 87, 51
1, 165973, Note_on_c, 0, 89, 90
1, 165980, Note_on_c, 0, 77, 77
1, 165982, Note_on_c, 0, 82, 82
1, 165988, Control_c, 0, 64, 84
1, 165998, Note_off_c, 0, 77, 66
1, 166003, Control_c, 0, 64, 65
1, 166006, Note_off_c, 0, 89, 61
1, 166017, Control_c, 0, 64, 52
1, 166020, Note_off_c, 0, 82, 64
1, 166032, Control_c, 0, 64, 24
1, 166047, Control_c, 0, 64, 0
1, 166048, Note_on_c, 0, 77, 98
1, 166059, Note_on_c, 0, 70, 82
1, 166060, Note_on_c, 0, 74, 73
1, 166061, Note_on_c, 0, 68, 79
1, 166075, Note_off_c, 0, 77, 65
1, 166077, Note_off_c, 0, 74, 72
1, 166078, Note_off_c, 0, 70, 71
1, 166082, Note_off_c, 0, 68, 68
1, 166125, Note_on_c, 0, 78, 94
1, 166126, Note_on_c, 0, 82, 87
1, 166131, Note_on_c, 0, 90, 91
1, 166144, Note_off_c, 0, 78, 73
1, 166150, Note_off_c, 0, 82, 69
1, 166160, Note_off_c, 0, 90, 65
1, 166202, Note_on_c, 0, 80, 102
1, 166211, Note_on_c, 0, 71, 81
1, 166211, Note_on_c, 0, 75, 84
1, 166230, Note_off_c, 0, 80, 66
1, 166235, Note_off_c, 0, 75, 64
1, 166250, Note_off_c, 0, 71, 63
1, 166275, Note_on_c, 0, 90, 98
1, 166280, Note_on_c, 0, 85, 86
1, 166280, Note_on_c, 0, 78, 96
1, 166298, Note_off_c, 0, 78, 69
1, 166320, Note_off_c, 0, 85, 59
1, 166324, Note_off_c, 0, 90, 64
1, 166354, Note_on_c, 0, 77, 103
1, 166363, Note_on_c, 0, 68, 91
1, 166364, Note_on_c, 0, 74, 79
1, 166366, Note_on_c, 0, 70, 76
1, 166381, Note_off_c, 0, 74, 76
1, 166386, Note_off_c, 0, 77, 65
1, 166387, Note_off_c, 0, 70, 68
1, 166395, Note_off_c, 0, 68, 58
1, 166431, Note_on_c, 0, 90, 94
1, 166432, Note_on_c, 0, 78, 81
1, 166432, Note_on_c, 0, 82, 87
1, 166446, Note_off_c, 0, 78, 74
1, 166447, Note_off_c, 0, 90, 75
1, 166450, Note_off_c, 0, 82, 74
1, 166506, Note_on_c, 0, 93, 99
1, 166512, Note_on_c, 0, 81, 86
1, 166516, Note_on_c, 0, 85, 77
1, 166531, Note_off_c, 0, 81, 71
1, 166535, Note_off_c, 0, 85, 72
1, 166542, Note_off_c, 0, 93, 71
1, 166582, Note_on_c, 0, 82, 109
1, 166583, Note_on_c, 0, 80, 95
1, 166609, Note_off_c, 0, 80, 63
1, 166617, Note_off_c, 0, 82, 65
1, 166651, Note_on_c, 0, 94, 102
1, 166651, Note_on_c, 0, 97, 105
1, 166652, Note_on_c, 0, 85, 96
1, 166673, Note_off_c, 0, 85, 66
1, 166682, Note_on_c, 0, 92, 30
1, 166683, Note_off_c, 0, 92, 127
1, 166683, Note_on_c, 0, 98, 46
1, 166688, Note_off_c, 0, 94, 68
1, 166690, Note_off_c, 0, 97, 65
1, 166692, Note_on_c, 0, 91, 34
1, 166699, Note_off_c, 0, 91, 41
1, 166717, Note_off_c, 0, 98, 60
1, 166742, Note_on_c, 0, 86, 97
1, 166784, Note_off_c, 0, 86, 66
1, 166860, Note_on_c, 0, 105, 102
1, 166861, Note_on_c, 0, 107, 108
1, 166870, Control_c, 0, 64, 30
1, 166885, Control_c, 0, 64, 60
1, 166886, Note_on_c, 0, 104, 80
1, 166892, Note_on_c, 0, 102, 80
1, 166898, Note_on_c, 0, 103, 73
1, 166899, Note_off_c, 0, 107, 61
1, 166900, Control_c, 0, 64, 127
1, 166927, Note_on_c, 0, 90, 37
1, 166952, Note_on_c, 0, 99, 77
1, 166952, Poly_aftertouch_c, 0, 82, 127
1, 166960, Note_off_c, 0, 90, 54
1, 166963, Note_on_c, 0, 100, 81
1, 166973, Note_on_c, 0, 93, 80
1, 166980, Note_off_c, 0, 104, 50
1, 166985, Note_off_c, 0, 105, 63
1, 166995, Note_off_c, 0, 103, 40
1, 167007, Note_off_c, 0, 100, 63
1, 167009, Note_on_c, 0, 95, 35
1, 167020, Note_off_c, 0, 102, 63
1, 167027, Note_on_c, 0, 94, 85
1, 167033, Note_off_c, 0, 93, 65
1, 167039, Note_off_c, 0, 99, 65
1, 167044, Note_on_c, 0, 90, 75
1, 167048, Note_off_c, 0, 95, 35
1, 167054, Poly_aftertouch_c, 0, 82, 0
1, 167078, Control_c, 0, 67, 9
1, 167082, Note_off_c, 0, 94, 67
1, 167093, Control_c, 0, 67, 14
1, 167106, Note_on_c, 0, 87, 81
1, 167107, Control_c, 0, 67, 21
1, 167122, Control_c, 0, 67, 30
1, 167137, Control_c, 0, 67, 41
1, 167152, Control_c, 0, 67, 55
1, 167157, Note_on_c, 0, 82, 77
1, 167166, Control_c, 0, 67, 71
1, 167173, Note_off_c, 0, 90, 66
1, 167175, Note_off_c, 0, 87, 68
1, 167178, Note_off_c, 0, 82, 72
1, 167181, Control_c, 0, 67, 93
1, 167196, Control_c, 0, 67, 110
1, 167201, Note_on_c, 0, 81, 64
1, 167211, Control_c, 0, 67, 124
1, 167219, Note_off_c, 0, 81, 64
1, 167225, Control_c, 0, 67, 127
1, 167245, Note_on_c, 0, 70, 71
1, 167331, Note_on_c, 0, 66, 56
1, 167371, Note_on_c, 0, 63, 55
1, 167436, Note_off_c, 0, 70, 60
1, 167460, Note_on_c, 0, 58, 44
1, 167476, Note_off_c, 0, 66, 61
1, 167490, Note_off_c, 0, 63, 63
1, 167514, Note_off_c, 0, 58, 49
1, 167556, Note_on_c, 0, 30, 47
1, 167699, Note_on_c, 0, 42, 46
1, 167731, Note_off_c, 0, 30, 40
1, 167830, Note_off_c, 0, 42, 36
1, 167845, Note_on_c, 0, 30, 46
1, 167870, Note_on_c, 0, 45, 62
1, 167954, Note_off_c, 0, 30, 37
1, 167975, Note_on_c, 0, 42, 41
1, 168065, Note_off_c, 0, 42, 53
1, 168114, Note_on_c, 0, 30, 43
1, 168117, Note_on_c, 0, 46, 75
1, 168165, Note_off_c, 0, 45, 62
1, 168179, Note_off_c, 0, 30, 53
1, 168232, Note_on_c, 0, 42, 43
1, 168369, Control_c, 0, 64, 81
1, 168384, Control_c, 0, 64, 62
1, 168399, Control_c, 0, 64, 43
1, 168408, Note_on_c, 0, 53, 73
1, 168408, Note_off_c, 0, 42, 42
1, 168413, Control_c, 0, 64, 0
1, 168441, Note_on_c, 0, 30, 42
1, 168473, Control_c, 0, 64, 10
1, 168480, Note_off_c, 0, 46, 48
1, 168487, Control_c, 0, 64, 38
1, 168502, Control_c, 0, 64, 54
1, 168516, Note_off_c, 0, 30, 57
1, 168517, Control_c, 0, 64, 73
1, 168531, Control_c, 0, 64, 127
1, 168551, Note_on_c, 0, 42, 42
1, 168587, Note_off_c, 0, 42, 50
1, 168722, Note_on_c, 0, 54, 59
1, 168784, Note_off_c, 0, 54, 59
1, 168827, Note_on_c, 0, 51, 69
1, 168855, Note_on_c, 0, 58, 42
1, 168871, Note_off_c, 0, 53, 60
1, 168881, Note_off_c, 0, 58, 54
1, 169005, Note_off_c, 0, 51, 63
1, 169008, Note_on_c, 0, 46, 70
1, 169118, Control_c, 0, 64, 122
1, 169123, Note_on_c, 0, 42, 51
1, 169132, Control_c, 0, 64, 68
1, 169147, Control_c, 0, 64, 51
1, 169162, Control_c, 0, 64, 0
1, 169189, Note_off_c, 0, 42, 50
1, 169225, Note_on_c, 0, 30, 51
1, 169236, Control_c, 0, 64, 31
1, 169251, Control_c, 0, 64, 47
1, 169266, Control_c, 0, 64, 62
1, 169281, Control_c, 0, 64, 85
1, 169296, Control_c, 0, 64, 127
1, 169352, Note_on_c, 0, 42, 41
1, 169374, Note_off_c, 0, 30, 34
1, 169436, Note_off_c, 0, 42, 49
1, 169498, Note_on_c, 0, 30, 45
1, 169505, Note_on_c, 0, 45, 62
1, 169513, Note_off_c, 0, 46, 57
1, 169577, Note_off_c, 0, 30, 53
1, 169632, Note_on_c, 0, 42, 38
1, 169716, Note_off_c, 0, 42, 52
1, 169744, Note_on_c, 0, 46, 74
1, 169764, Note_on_c, 0, 30, 41
1, 169764, Note_off_c, 0, 45, 62
1, 169826, Note_off_c, 0, 30, 54
1, 169876, Note_on_c, 0, 42, 41
1, 169970, Control_c, 0, 64, 92
1, 169984, Control_c, 0, 64, 65
1, 169997, Note_off_c, 0, 42, 34
1, 169999, Control_c, 0, 64, 48
1, 170006, Note_on_c, 0, 30, 42
1, 170014, Control_c, 0, 64, 0
1, 170016, Note_on_c, 0, 51, 68
1, 170028, Note_off_c, 0, 46, 62
1, 170088, Note_off_c, 0, 30, 56
1, 170088, Control_c, 0, 64, 18
1, 170103, Control_c, 0, 64, 37
1, 170113, Note_on_c, 0, 42, 52
1, 170118, Control_c, 0, 64, 51
1, 170132, Control_c, 0, 64, 63
1, 170147, Control_c, 0, 64, 75
1, 170152, Note_off_c, 0, 42, 62
1, 170162, Control_c, 0, 64, 83
1, 170176, Control_c, 0, 64, 85
1, 170250, Control_c, 0, 64, 86
1, 170265, Control_c, 0, 64, 86
1, 170280, Control_c, 0, 64, 88
1, 170295, Control_c, 0, 64, 88
1, 170307, Note_on_c, 0, 53, 44
1, 170340, Control_c, 0, 64, 89
1, 170370, Control_c, 0, 64, 89
1, 170382, Note_off_c, 0, 53, 53
1, 170384, Control_c, 0, 64, 90
1, 170399, Note_on_c, 0, 55, 55
1, 170399, Control_c, 0, 64, 91
1, 170414, Control_c, 0, 64, 91
1, 170429, Control_c, 0, 64, 92
1, 170432, Note_off_c, 0, 55, 66
1, 170444, Control_c, 0, 64, 93
1, 170465, Control_c, 0, 64, 95
1, 170480, Control_c, 0, 64, 97
1, 170495, Control_c, 0, 64, 100
1, 170510, Control_c, 0, 64, 102
1, 170525, Control_c, 0, 64, 106
1, 170539, Control_c, 0, 64, 110
1, 170554, Control_c, 0, 64, 115
1, 170569, Control_c, 0, 64, 119
1, 170584, Control_c, 0, 64, 122
1, 170599, Control_c, 0, 64, 127
1, 170608, Note_on_c, 0, 46, 61
1, 170614, Note_off_c, 0, 51, 53
1, 170692, Note_off_c, 0, 46, 65
1, 170744, Note_on_c, 0, 42, 48
1, 170802, Note_off_c, 0, 42, 49
1, 170837, Control_c, 0, 64, 68
1, 170852, Control_c, 0, 64, 52
1, 170853, Note_on_c, 0, 30, 65
1, 170867, Control_c, 0, 64, 20
1, 170881, Control_c, 0, 64, 0
1, 170911, Control_c, 0, 64, 30
1, 170917, Note_off_c, 0, 30, 57
1, 170925, Control_c, 0, 64, 49
1, 170940, Control_c, 0, 64, 74
1, 170955, Control_c, 0, 64, 127
1, 170972, Note_on_c, 0, 42, 50
1, 171013, Note_off_c, 0, 42, 61
1, 171059, Control_c, 0, 64, 89
1, 171073, Note_on_c, 0, 67, 67
1, 171073, Control_c, 0, 64, 66
1, 171075, Note_on_c, 0, 64, 61
1, 171082, Note_on_c, 0, 42, 58
1, 171088, Control_c, 0, 64, 52
1, 171103, Control_c, 0, 64, 20
1, 171106, Note_off_c, 0, 64, 65
1, 171109, Note_off_c, 0, 67, 62
1, 171118, Note_off_c, 0, 42, 63
1, 171118, Control_c, 0, 64, 0
1, 171150, Note_on_c, 0, 55, 64
1, 171188, Note_off_c, 0, 55, 61
1, 171231, Note_on_c, 0, 55, 57
1, 171242, Note_on_c, 0, 49, 57
1, 171253, Note_off_c, 0, 55, 65
1, 171273, Note_off_c, 0, 49, 59
1, 171313, Note_on_c, 0, 57, 66
1, 171344, Note_off_c, 0, 57, 62
1, 171383, Note_on_c, 0, 70, 71
1, 171398, Note_on_c, 0, 52, 62
1, 171401, Note_on_c, 0, 67, 59
1, 171404, Note_off_c, 0, 70, 66
1, 171422, Note_off_c, 0, 67, 64
1, 171448, Note_off_c, 0, 52, 58
1, 171453, Note_on_c, 0, 58, 72
1, 171481, Note_off_c, 0, 58, 65
1, 171540, Note_on_c, 0, 58, 63
1, 171559, Note_off_c, 0, 58, 62
1, 171618, Note_on_c, 0, 58, 63
1, 171644, Note_off_c, 0, 58, 65
1, 171693, Note_on_c, 0, 70, 66
1, 171704, Note_on_c, 0, 67, 57
1, 171723, Note_off_c, 0, 70, 65
1, 171732, Note_off_c, 0, 67, 63
1, 171770, Note_on_c, 0, 66, 60
1, 171779, Note_on_c, 0, 57, 38
1, 171810, Note_off_c, 0, 57, 50
1, 171814, Note_off_c, 0, 66, 55
1, 171892, Note_on_c, 0, 67, 47
1, 171898, Note_on_c, 0, 64, 33
1, 171917, Note_on_c, 0, 55, 22
1, 172053, Control_c, 0, 64, 12
1, 172068, Control_c, 0, 64, 27
1, 172082, Control_c, 0, 64, 38
1, 172097, Control_c, 0, 64, 48
1, 172112, Note_off_c, 0, 67, 56
1, 172112, Control_c, 0, 64, 57
1, 172127, Control_c, 0, 64, 64
1, 172142, Control_c, 0, 64, 72
1, 172156, Control_c, 0, 64, 76
1, 172163, Note_off_c, 0, 55, 43
1, 172182, Note_off_c, 0, 64, 38
1, 172216, Control_c, 0, 64, 76
1, 172232, Control_c, 0, 64, 75
1, 172247, Control_c, 0, 64, 75
1, 172261, Control_c, 0, 64, 74
1, 172276, Control_c, 0, 64, 74
1, 172291, Control_c, 0, 64, 71
1, 172306, Control_c, 0, 64, 67
1, 172321, Control_c, 0, 64, 63
1, 172335, Control_c, 0, 64, 58
1, 172350, Control_c, 0, 64, 53
1, 172365, Control_c, 0, 64, 45
1, 172379, Control_c, 0, 64, 40
1, 172394, Control_c, 0, 64, 38
1, 172409, Control_c, 0, 64, 37
1, 172424, Control_c, 0, 64, 37
1, 172439, Control_c, 0, 64, 35
1, 172453, Control_c, 0, 64, 33
1, 172468, Control_c, 0, 64, 30
1, 172483, Control_c, 0, 64, 29
1, 172498, Control_c, 0, 64, 27
1, 172513, Control_c, 0, 64, 25
1, 172528, Control_c, 0, 64, 24
1, 172543, Control_c, 0, 64, 22
1, 172557, Control_c, 0, 64, 21
1, 172572, Control_c, 0, 64, 21
1, 172587, Control_c, 0, 64, 20
1, 172605, Note_on_c, 0, 57, 67
1, 172624, Note_on_c, 0, 45, 51
1, 172632, Control_c, 0, 64, 21
1, 172646, Control_c, 0, 64, 23
1, 172661, Control_c, 0, 64, 29
1, 172676, Control_c, 0, 64, 36
1, 172691, Control_c, 0, 64, 45
1, 172712, Control_c, 0, 64, 55
1, 172727, Control_c, 0, 64, 64
1, 172742, Control_c, 0, 64, 76
1, 172757, Control_c, 0, 64, 103
1, 172772, Control_c, 0, 64, 117
1, 172772, Control_c, 0, 67, 119
1, 172787, Control_c, 0, 67, 104
1, 172802, Control_c, 0, 64, 119
1, 172802, Control_c, 0, 67, 87
1, 172817, Control_c, 0, 64, 127
1, 172817, Control_c, 0, 67, 69
1, 172832, Control_c, 0, 67, 49
1, 172846, Control_c, 0, 67, 32
1, 172848, Note_off_c, 0, 45, 60
1, 172861, Control_c, 0, 67, 17
1, 172876, Control_c, 0, 67, 0
1, 173011, Note_on_c, 0, 58, 76
1, 173026, Note_on_c, 0, 46, 59
1, 173057, Note_off_c, 0, 57, 55
1, 173133, Note_off_c, 0, 46, 53
1, 173428, Note_on_c, 0, 63, 81
1, 173454, Note_on_c, 0, 51, 66
1, 173455, Note_on_c, 0, 30, 58
1, 173490, Control_c, 0, 64, 77
1, 173505, Control_c, 0, 64, 62
1, 173519, Control_c, 0, 64, 43
1, 173534, Control_c, 0, 64, 17
1, 173549, Control_c, 0, 64, 0
1, 173555, Note_off_c, 0, 58, 32
1, 173564, Control_c, 0, 64, 15
1, 173579, Control_c, 0, 64, 34
1, 173594, Control_c, 0, 64, 51
1, 173608, Control_c, 0, 64, 72
1, 173623, Control_c, 0, 64, 127
1, 173632, Note_off_c, 0, 30, 45
1, 173653, Note_on_c, 0, 42, 50
1, 173675, Note_off_c, 0, 51, 63
1, 173703, Note_off_c, 0, 42, 60
1, 173799, Note_on_c, 0, 46, 46
1, 173867, Note_off_c, 0, 46, 54
1, 173912, Note_on_c, 0, 55, 57
1, 173982, Note_off_c, 0, 55, 52
1, 174020, Note_on_c, 0, 58, 79
1, 174039, Note_on_c, 0, 46, 47
1, 174066, Note_off_c, 0, 63, 53
1, 174075, Note_off_c, 0, 46, 65
1, 174151, Note_on_c, 0, 42, 56
1, 174209, Control_c, 0, 64, 87
1, 174224, Control_c, 0, 64, 63
1, 174239, Control_c, 0, 64, 46
1, 174245, Note_on_c, 0, 30, 67
1, 174250, Note_off_c, 0, 42, 59
1, 174254, Control_c, 0, 64, 32
1, 174269, Control_c, 0, 64, 36
1, 174283, Control_c, 0, 64, 51
1, 174298, Control_c, 0, 64, 67
1, 174313, Control_c, 0, 64, 127
1, 174334, Note_off_c, 0, 30, 58
1, 174343, Note_on_c, 0, 42, 62
1, 174364, Poly_aftertouch_c, 0, 32, 0
1, 174385, Note_off_c, 0, 42, 58
1, 174467, Note_on_c, 0, 61, 84
1, 174477, Note_on_c, 0, 49, 68
1, 174480, Note_off_c, 0, 58, 59
1, 174487, Note_on_c, 0, 46, 38
1, 174528, Note_off_c, 0, 46, 51
1, 174606, Note_on_c, 0, 55, 36
1, 174638, Note_off_c, 0, 55, 56
1, 174662, Note_on_c, 0, 46, 44
1, 174699, Note_off_c, 0, 46, 65
1, 174779, Note_on_c, 0, 42, 60
1, 174892, Control_c, 0, 64, 75
1, 174892, Control_c, 0, 67, 8
1, 174897, Note_off_c, 0, 42, 58
1, 174906, Control_c, 0, 64, 57
1, 174906, Control_c, 0, 67, 10
1, 174921, Note_on_c, 0, 30, 66
1, 174921, Control_c, 0, 64, 23
1, 174921, Control_c, 0, 67, 12
1, 174944, Control_c, 0, 64, 0
1, 174944, Control_c, 0, 67, 15
1, 174959, Control_c, 0, 67, 18
1, 174973, Control_c, 0, 67, 23
1, 174988, Control_c, 0, 64, 24
1, 174988, Control_c, 0, 67, 31
1, 175003, Control_c, 0, 64, 45
1, 175003, Control_c, 0, 67, 45
1, 175018, Control_c, 0, 64, 62
1, 175018, Control_c, 0, 67, 64
1, 175033, Control_c, 0, 64, 103
1, 175033, Control_c, 0, 67, 89
1, 175038, Note_off_c, 0, 30, 55
1, 175047, Control_c, 0, 64, 127
1, 175047, Control_c, 0, 67, 123
1, 175055, Note_on_c, 0, 42, 54
1, 175062, Control_c, 0, 67, 127
1, 175093, Note_off_c, 0, 61, 65
1, 175113, Note_off_c, 0, 49, 65
1, 175122, Note_off_c, 0, 42, 57
1, 175189, Note_on_c, 0, 42, 53
1, 175247, Note_off_c, 0, 42, 52
1, 175303, Note_on_c, 0, 59, 73
1, 175312, Note_on_c, 0, 50, 49
1, 175332, Note_on_c, 0, 47, 50
1, 175354, Note_off_c, 0, 50, 48
1, 175371, Note_off_c, 0, 47, 48
1, 175478, Control_c, 0, 64, 85
1, 175485, Note_on_c, 0, 54, 75
1, 175488, Note_off_c, 0, 59, 57
1, 175493, Control_c, 0, 64, 63
1, 175508, Control_c, 0, 64, 47
1, 175522, Control_c, 0, 64, 31
1, 175526, Note_on_c, 0, 42, 52
1, 175537, Control_c, 0, 64, 36
1, 175552, Control_c, 0, 64, 47
1, 175567, Control_c, 0, 64, 62
1, 175578, Poly_aftertouch_c, 0, 56, 127
1, 175582, Control_c, 0, 64, 127
1, 175597, Note_off_c, 0, 54, 63
1, 175610, Poly_aftertouch_c, 0, 56, 0
1, 175622, Note_off_c, 0, 42, 59
1, 175668, Note_on_c, 0, 50, 15
1, 175722, Note_off_c, 0, 50, 52
1, 175799, Note_on_c, 0, 50, 29
1, 175872, Note_on_c, 0, 74, 55
1, 175875, Note_on_c, 0, 78, 56
1, 175899, Note_on_c, 0, 54, 58
1, 175902, Note_off_c, 0, 74, 68
1, 175905, Note_off_c, 0, 78, 58
1, 175914, Note_off_c, 0, 50, 41
1, 175938, Note_off_c, 0, 54, 59
1, 175959, Note_on_c, 0, 80, 69
1, 175965, Note_on_c, 0, 77, 59
1, 175977, Note_on_c, 0, 68, 53
1, 176006, Note_off_c, 0, 68, 50
1, 176009, Note_off_c, 0, 80, 51
1, 176014, Note_on_c, 0, 62, 37
1, 176042, Note_off_c, 0, 77, 59
1, 176047, Note_off_c, 0, 62, 52
1, 176091, Note_on_c, 0, 62, 53
1, 176192, Note_off_c, 0, 62, 56
1, 176206, Note_on_c, 0, 66, 51
1, 176234, Note_off_c, 0, 66, 55
1, 176319, Note_on_c, 0, 74, 44
1, 176378, Note_off_c, 0, 74, 65
1, 176456, Control_c, 0, 64, 114
1, 176470, Control_c, 0, 64, 108
1, 176485, Control_c, 0, 64, 104
1, 176500, Control_c, 0, 64, 101
1, 176515, Control_c, 0, 64, 99
1, 176530, Control_c, 0, 64, 97
1, 176544, Control_c, 0, 64, 95
1, 176559, Control_c, 0, 64, 91
1, 176559, Control_c, 0, 67, 121
1, 176574, Control_c, 0, 64, 88
1, 176574, Control_c, 0, 67, 109
1, 176589, Control_c, 0, 64, 85
1, 176589, Control_c, 0, 67, 96
1, 176604, Control_c, 0, 64, 82
1, 176604, Control_c, 0, 67, 80
1, 176618, Control_c, 0, 64, 81
1, 176618, Control_c, 0, 67, 62
1, 176633, Control_c, 0, 64, 80
1, 176633, Control_c, 0, 67, 45
1, 176648, Control_c, 0, 64, 79
1, 176648, Control_c, 0, 67, 30
1, 176662, Control_c, 0, 64, 78
1, 176662, Control_c, 0, 67, 22
1, 176677, Control_c, 0, 64, 77
1, 176677, Control_c, 0, 67, 20
1, 176692, Control_c, 0, 64, 74
1, 176692, Control_c, 0, 67, 20
1, 176707, Control_c, 0, 64, 71
1, 176707, Control_c, 0, 67, 18
1, 176722, Control_c, 0, 64, 69
1, 176722, Control_c, 0, 67, 13
1, 176737, Control_c, 0, 64, 67
1, 176737, Control_c, 0, 67, 9
1, 176752, Control_c, 0, 64, 65
1, 176752, Control_c, 0, 67, 0
1, 176767, Control_c, 0, 64, 64
1, 176781, Control_c, 0, 64, 62
1, 176796, Control_c, 0, 64, 60
1, 176811, Control_c, 0, 64, 58
1, 176826, Control_c, 0, 64, 56
1, 176841, Control_c, 0, 64, 54
1, 176856, Control_c, 0, 64, 52
1, 176870, Control_c, 0, 64, 51
1, 176885, Control_c, 0, 64, 49
1, 176900, Control_c, 0, 64, 46
1, 176915, Control_c, 0, 64, 44
1, 176930, Control_c, 0, 64, 42
1, 176944, Control_c, 0, 64, 40
1, 176959, Control_c, 0, 64, 36
1, 176974, Control_c, 0, 64, 31
1, 176989, Control_c, 0, 64, 26
1, 177004, Control_c, 0, 64, 21
1, 177020, Control_c, 0, 64, 17
1, 177035, Control_c, 0, 64, 11
1, 177049, Control_c, 0, 64, 0
1, 177330, Note_on_c, 0, 65, 92
1, 177339, Note_on_c, 0, 53, 80
1, 177367, Control_c, 0, 64, 33
1, 177382, Control_c, 0, 64, 54
1, 177397, Control_c, 0, 64, 83
1, 177412, Control_c, 0, 64, 127
1, 177532, Note_off_c, 0, 53, 61
1, 177689, Note_on_c, 0, 66, 99
1, 177693, Note_on_c, 0, 54, 103
1, 177708, Control_c, 0, 64, 71
1, 177713, Note_off_c, 0, 65, 67
1, 177723, Control_c, 0, 64, 59
1, 177738, Control_c, 0, 64, 53
1, 177743, Note_off_c, 0, 54, 64
1, 177753, Control_c, 0, 64, 55
1, 177767, Control_c, 0, 64, 67
1, 177782, Control_c, 0, 64, 127
1, 177795, Note_off_c, 0, 66, 65
1, 177819, Note_on_c, 0, 54, 104
1, 177823, Note_on_c, 0, 47, 88
1, 177852, Note_off_c, 0, 47, 67
1, 177852, Note_off_c, 0, 54, 70
1, 178047, Note_on_c, 0, 63, 27
1, 178094, Note_off_c, 0, 63, 0
1, 178094, Note_on_c, 0, 63, 65
1, 178096, Note_on_c, 0, 97, 106
1, 178099, Note_on_c, 0, 73, 103
1, 178101, Note_on_c, 0, 66, 100
1, 178105, Note_on_c, 0, 62, 100
1, 178148, Note_off_c, 0, 73, 63
1, 178171, Note_off_c, 0, 62, 65
1, 178177, Note_off_c, 0, 63, 66
1, 178177, Note_off_c, 0, 66, 60
1, 178207, Note_on_c, 0, 90, 84
1, 178215, Note_on_c, 0, 92, 54
1, 178218, Note_off_c, 0, 97, 64
1, 178239, Note_off_c, 0, 92, 65
1, 178265, Note_off_c, 0, 90, 67
1, 178275, Note_on_c, 0, 86, 75
1, 178276, Poly_aftertouch_c, 0, 94, 0
1, 178302, Note_off_c, 0, 86, 63
1, 178343, Note_on_c, 0, 85, 80
1, 178406, Note_on_c, 0, 78, 74
1, 178435, Note_off_c, 0, 85, 61
1, 178457, Note_on_c, 0, 71, 87
1, 178463, Note_on_c, 0, 59, 67
1, 178475, Note_off_c, 0, 71, 75
1, 178476, Note_off_c, 0, 78, 66
1, 178478, Note_on_c, 0, 74, 72
1, 178482, Note_off_c, 0, 59, 66
1, 178485, Note_on_c, 0, 60, 43
1, 178496, Note_on_c, 0, 63, 24
1, 178513, Note_off_c, 0, 60, 56
1, 178521, Note_off_c, 0, 74, 63
1, 178533, Poly_aftertouch_c, 0, 66, 0
1, 178542, Note_on_c, 0, 66, 69
1, 178542, Note_off_c, 0, 63, 53
1, 178555, Note_on_c, 0, 54, 92
1, 178582, Note_off_c, 0, 54, 68
1, 178583, Note_off_c, 0, 66, 66
1, 178584, Note_on_c, 0, 73, 63
1, 178631, Note_on_c, 0, 66, 66
1, 178700, Note_off_c, 0, 73, 50
1, 178700, Note_off_c, 0, 66, 62
1, 178711, Note_on_c, 0, 62, 68
1, 178752, Note_on_c, 0, 49, 32
1, 178756, Note_on_c, 0, 61, 66
1, 178778, Note_off_c, 0, 62, 62
1, 178790, Note_off_c, 0, 49, 55
1, 178802, Note_on_c, 0, 54, 80
1, 178871, Note_on_c, 0, 50, 63
1, 178883, Note_off_c, 0, 54, 64
1, 178904, Note_off_c, 0, 61, 0
1, 178917, Note_on_c, 0, 61, 62
1, 178942, Note_off_c, 0, 50, 63
1, 178953, Note_on_c, 0, 65, 101
1, 178955, Note_on_c, 0, 53, 91
1, 178958, Note_on_c, 0, 54, 65
1, 178973, Note_off_c, 0, 61, 68
1, 179026, Note_on_c, 0, 50, 69
1, 179030, Note_off_c, 0, 54, 65
1, 179050, Note_off_c, 0, 53, 65
1, 179051, Note_off_c, 0, 50, 70
1, 179127, Note_on_c, 0, 47, 85
1, 179167, Note_on_c, 0, 66, 107
1, 179170, Note_on_c, 0, 54, 108
1, 179176, Note_on_c, 0, 42, 83
1, 179190, Note_off_c, 0, 65, 69
1, 179195, Note_off_c, 0, 47, 61
1, 179229, Note_off_c, 0, 54, 66
1, 179254, Note_on_c, 0, 35, 84
1, 179271, Note_off_c, 0, 42, 61
1, 179288, Note_off_c, 0, 66, 52
1, 179304, Note_off_c, 0, 35, 64
1, 179480, Note_on_c, 0, 71, 97
1, 179485, Note_on_c, 0, 26, 91
1, 179486, Note_on_c, 0, 60, 93
1, 179486, Note_on_c, 0, 63, 91
1, 179488, Note_on_c, 0, 59, 93
1, 179496, Control_c, 0, 64, 64
1, 179511, Control_c, 0, 64, 33
1, 179526, Control_c, 0, 64, 0
1, 179545, Note_on_c, 0, 68, 36
1, 179570, Control_c, 0, 64, 37
1, 179585, Note_off_c, 0, 26, 62
1, 179585, Control_c, 0, 64, 65
1, 179591, Note_on_c, 0, 38, 81
1, 179598, Note_off_c, 0, 63, 62
1, 179600, Control_c, 0, 64, 127
1, 179601, Note_off_c, 0, 68, 59
1, 179619, Note_off_c, 0, 71, 66
1, 179633, Note_off_c, 0, 38, 63
1, 179633, Note_off_c, 0, 60, 57
1, 179640, Note_off_c, 0, 59, 57
1, 179712, Note_on_c, 0, 42, 53
1, 179741, Note_on_c, 0, 48, 65
1, 179747, Note_off_c, 0, 42, 51
1, 179747, Note_on_c, 0, 43, 41
1, 179784, Note_off_c, 0, 43, 50
1, 179786, Note_on_c, 0, 57, 69
1, 179790, Note_on_c, 0, 51, 80
1, 179807, Note_off_c, 0, 48, 64
1, 179828, Note_on_c, 0, 60, 70
1, 179831, Note_off_c, 0, 51, 62
1, 179847, Note_off_c, 0, 57, 60
1, 179870, Note_on_c, 0, 63, 70
1, 179876, Note_off_c, 0, 60, 63
1, 179893, Note_off_c, 0, 63, 73
1, 179951, Note_on_c, 0, 66, 97
1, 179986, Note_on_c, 0, 69, 67
1, 179995, Note_off_c, 0, 66, 58
1, 180035, Note_on_c, 0, 72, 75
1, 180040, Note_off_c, 0, 69, 63
1, 180054, Poly_aftertouch_c, 0, 54, 0
1, 180059, Note_on_c, 0, 75, 67
1, 180059, Note_off_c, 0, 72, 67
1, 180084, Note_on_c, 0, 81, 72
1, 180091, Note_off_c, 0, 75, 63
1, 180109, Note_off_c, 0, 81, 66
1, 180148, Control_c, 0, 67, 15
1, 180162, Note_on_c, 0, 84, 73
1, 180162, Control_c, 0, 67, 22
1, 180177, Control_c, 0, 67, 34
1, 180192, Note_on_c, 0, 62, 47
1, 180200, Note_off_c, 0, 84, 64
1, 180200, Control_c, 0, 67, 52
1, 180215, Control_c, 0, 67, 78
1, 180225, Note_on_c, 0, 90, 68
1, 180230, Control_c, 0, 67, 111
1, 180245, Note_on_c, 0, 96, 71
1, 180245, Control_c, 0, 67, 127
1, 180245, Note_on_c, 0, 95, 57
1, 180246, Note_off_c, 0, 62, 59
1, 180248, Note_on_c, 0, 92, 43
1, 180250, Note_off_c, 0, 90, 70
1, 180254, Note_on_c, 0, 63, 67
1, 180260, Note_off_c, 0, 96, 65
1, 180266, Note_off_c, 0, 95, 64
1, 180278, Note_off_c, 0, 92, 54
1, 180284, Note_on_c, 0, 66, 62
1, 180309, Note_off_c, 0, 63, 62
1, 180316, Note_on_c, 0, 69, 56
1, 180326, Note_off_c, 0, 66, 62
1, 180341, Note_off_c, 0, 69, 63
1, 180378, Note_on_c, 0, 72, 58
1, 180403, Note_off_c, 0, 72, 58
1, 180452, Control_c, 0, 64, 104
1, 180454, Note_on_c, 0, 102, 76
1, 180463, Note_on_c, 0, 99, 64
1, 180466, Control_c, 0, 64, 86
1, 180475, Note_on_c, 0, 75, 58
1, 180481, Control_c, 0, 64, 74
1, 180486, Note_off_c, 0, 102, 60
1, 180493, Note_off_c, 0, 99, 65
1, 180496, Control_c, 0, 64, 66
1, 180511, Control_c, 0, 64, 60
1, 180511, Note_off_c, 0, 75, 58
1, 180512, Note_on_c, 0, 90, 74
1, 180523, Note_on_c, 0, 78, 67
1, 180525, Control_c, 0, 64, 53
1, 180540, Control_c, 0, 64, 45
1, 180545, Note_off_c, 0, 90, 68
1, 180555, Control_c, 0, 64, 38
1, 180563, Note_off_c, 0, 78, 65
1, 180570, Control_c, 0, 64, 34
1, 180585, Control_c, 0, 64, 28
1, 180589, Note_on_c, 0, 81, 63
1, 180590, Note_on_c, 0, 90, 63
1, 180600, Control_c, 0, 64, 22
1, 180615, Control_c, 0, 64, 18
1, 180618, Note_off_c, 0, 81, 65
1, 180630, Control_c, 0, 64, 12
1, 180631, Note_off_c, 0, 90, 66
1, 180644, Control_c, 0, 64, 0
1, 180660, Note_on_c, 0, 89, 69
1, 180665, Note_on_c, 0, 84, 65
1, 180678, Note_off_c, 0, 89, 65
1, 180710, Note_off_c, 0, 84, 58
1, 180753, Note_on_c, 0, 102, 72
1, 180755, Note_on_c, 0, 99, 61
1, 180757, Note_on_c, 0, 87, 56
1, 180758, Note_on_c, 0, 90, 62
1, 180778, Control_c, 0, 64, 29
1, 180789, Note_off_c, 0, 87, 53
1, 180791, Note_off_c, 0, 90, 54
1, 180792, Control_c, 0, 64, 47
1, 180794, Note_off_c, 0, 99, 60
1, 180802, Note_off_c, 0, 102, 61
1, 180807, Control_c, 0, 64, 64
1, 180822, Control_c, 0, 64, 92
1, 180836, Control_c, 0, 64, 106
1, 180866, Control_c, 0, 64, 105
1, 180881, Control_c, 0, 64, 95
1, 180896, Control_c, 0, 64, 83
1, 180910, Control_c, 0, 64, 78
1, 180925, Control_c, 0, 64, 76
1, 180948, Control_c, 0, 64, 74
1, 180963, Control_c, 0, 64, 74
1, 180979, Control_c, 0, 64, 72
1, 180993, Control_c, 0, 64, 68
1, 181008, Control_c, 0, 64, 64
1, 181023, Control_c, 0, 64, 60
1, 181038, Control_c, 0, 64, 55
1, 181053, Control_c, 0, 64, 50
1, 181068, Control_c, 0, 64, 44
1, 181083, Control_c, 0, 64, 39
1, 181098, Control_c, 0, 64, 34
1, 181113, Control_c, 0, 64, 28
1, 181128, Control_c, 0, 64, 23
1, 181142, Control_c, 0, 64, 18
1, 181157, Control_c, 0, 64, 15
1, 181172, Control_c, 0, 64, 11
1, 181187, Control_c, 0, 64, 0
1, 181587, Control_c, 0, 67, 106
1, 181602, Control_c, 0, 67, 73
1, 181616, Control_c, 0, 67, 28
1, 181631, Control_c, 0, 67, 0
1, 181653, Note_on_c, 0, 65, 95
1, 181660, Note_on_c, 0, 53, 82
1, 181742, Control_c, 0, 64, 42
1, 181757, Control_c, 0, 64, 61
1, 181771, Control_c, 0, 64, 127
1, 181792, Note_off_c, 0, 53, 0
1, 181792, Note_on_c, 0, 53, 5
1, 181870, Note_off_c, 0, 53, 56
1, 182011, Note_on_c, 0, 66, 105
1, 182013, Note_on_c, 0, 54, 98
1, 182025, Control_c, 0, 64, 65
1, 182037, Note_off_c, 0, 65, 68
1, 182039, Control_c, 0, 64, 47
1, 182042, Note_on_c, 0, 63, 52
1, 182054, Control_c, 0, 64, 25
1, 182067, Note_off_c, 0, 54, 62
1, 182069, Control_c, 0, 64, 31
1, 182071, Note_off_c, 0, 63, 38
1, 182073, Note_on_c, 0, 33, 11
1, 182083, Control_c, 0, 64, 49
1, 182098, Control_c, 0, 64, 86
1, 182113, Control_c, 0, 64, 127
1, 182119, Note_off_c, 0, 66, 66
1, 182131, Note_off_c, 0, 33, 51
1, 182136, Note_on_c, 0, 38, 97
1, 182144, Note_on_c, 0, 26, 88
1, 182165, Note_off_c, 0, 26, 66
1, 182186, Note_off_c, 0, 38, 65
1, 182404, Note_on_c, 0, 71, 104
1, 182411, Note_on_c, 0, 63, 95
1, 182411, Note_on_c, 0, 95, 93
1, 182419, Note_on_c, 0, 59, 74
1, 182436, Note_on_c, 0, 60, 66
1, 182446, Note_on_c, 0, 57, 37
1, 182462, Note_off_c, 0, 59, 62
1, 182478, Note_off_c, 0, 57, 57
1, 182479, Note_off_c, 0, 60, 62
1, 182490, Note_off_c, 0, 71, 62
1, 182499, Note_off_c, 0, 63, 62
1, 182508, Note_on_c, 0, 92, 56
1, 182509, Note_on_c, 0, 90, 91
1, 182531, Note_off_c, 0, 95, 64
1, 182538, Note_off_c, 0, 92, 67
1, 182577, Note_on_c, 0, 87, 83
1, 182600, Note_off_c, 0, 90, 66
1, 182625, Note_off_c, 0, 87, 63
1, 182628, Note_on_c, 0, 84, 76
1, 182651, Note_off_c, 0, 84, 69
1, 182690, Note_on_c, 0, 83, 77
1, 182744, Note_on_c, 0, 78, 80
1, 182763, Note_off_c, 0, 83, 63
1, 182803, Note_on_c, 0, 75, 80
1, 182830, Note_on_c, 0, 66, 96
1, 182830, Note_on_c, 0, 56, 89
1, 182830, Note_on_c, 0, 68, 96
1, 182835, Note_off_c, 0, 78, 66
1, 182838, Note_on_c, 0, 54, 85
1, 182845, Note_off_c, 0, 68, 74
1, 182848, Note_off_c, 0, 66, 71
1, 182854, Note_off_c, 0, 56, 71
1, 182855, Note_off_c, 0, 54, 68
1, 182862, Note_off_c, 0, 75, 63
1, 182869, Note_on_c, 0, 71, 76
1, 182883, Note_on_c, 0, 67, 21
1, 182931, Note_off_c, 0, 67, 47
1, 183005, Note_on_c, 0, 66, 82
1, 183023, Note_off_c, 0, 71, 62
1, 183055, Note_on_c, 0, 63, 73
1, 183080, Note_off_c, 0, 66, 64
1, 183113, Note_on_c, 0, 59, 82
1, 183130, Note_off_c, 0, 63, 64
1, 183193, Note_off_c, 0, 59, 61
1, 183242, Note_on_c, 0, 60, 79
1, 183259, Note_on_c, 0, 69, 104
1, 183259, Note_on_c, 0, 57, 91
1, 183262, Note_on_c, 0, 59, 96
1, 183275, Note_on_c, 0, 64, 71
1, 183283, Note_off_c, 0, 60, 67
1, 183286, Note_on_c, 0, 61, 43
1, 183287, Note_off_c, 0, 61, 127
1, 183287, Note_on_c, 0, 66, 58
1, 183293, Note_on_c, 0, 54, 64
1, 183303, Note_off_c, 0, 66, 65
1, 183319, Poly_aftertouch_c, 0, 61, 0
1, 183330, Note_on_c, 0, 50, 71
1, 183339, Note_off_c, 0, 54, 64
1, 183363, Note_off_c, 0, 50, 67
1, 183435, Note_on_c, 0, 48, 79
1, 183478, Note_on_c, 0, 43, 79
1, 183501, Note_off_c, 0, 48, 64
1, 183518, Note_off_c, 0, 57, 48
1, 183522, Note_off_c, 0, 59, 46
1, 183534, Note_on_c, 0, 38, 81
1, 183545, Note_off_c, 0, 43, 61
1, 183590, Note_off_c, 0, 38, 64
1, 183714, Note_on_c, 0, 21, 100
1, 183715, Control_c, 0, 67, 8
1, 183729, Control_c, 0, 67, 10
1, 183736, Note_on_c, 0, 59, 69
1, 183739, Note_on_c, 0, 57, 76
1, 183739, Note_on_c, 0, 62, 75
1, 183744, Control_c, 0, 67, 11
1, 183759, Control_c, 0, 64, 75
1, 183759, Control_c, 0, 67, 11
1, 183774, Control_c, 0, 64, 49
1, 183774, Control_c, 0, 67, 12
1, 183789, Control_c, 0, 64, 0
1, 183803, Control_c, 0, 67, 11
1, 183833, Control_c, 0, 67, 10
1, 183848, Control_c, 0, 64, 47
1, 183852, Note_off_c, 0, 21, 63
1, 183858, Note_on_c, 0, 31, 71
1, 183862, Control_c, 0, 64, 71
1, 183877, Control_c, 0, 64, 127
1, 183877, Control_c, 0, 67, 10
1, 183885, Note_off_c, 0, 31, 66
1, 183922, Control_c, 0, 67, 9
1, 183944, Control_c, 0, 67, 9
1, 183959, Control_c, 0, 67, 8
1, 183973, Control_c, 0, 67, 0
1, 183982, Note_on_c, 0, 38, 57
1, 183983, Note_on_c, 0, 40, 66
1, 183996, Note_off_c, 0, 59, 52
1, 184001, Note_off_c, 0, 57, 53
1, 184009, Note_off_c, 0, 69, 57
1, 184038, Note_on_c, 0, 47, 76
1, 184039, Note_off_c, 0, 62, 54
1, 184061, Note_off_c, 0, 38, 62
1, 184067, Note_off_c, 0, 40, 62
1, 184067, Note_off_c, 0, 64, 42
1, 184113, Note_off_c, 0, 47, 63
1, 184120, Note_on_c, 0, 52, 77
1, 184148, Note_on_c, 0, 50, 28
1, 184158, Note_off_c, 0, 52, 65
1, 184185, Note_off_c, 0, 50, 49
1, 184186, Note_on_c, 0, 67, 104
1, 184189, Note_on_c, 0, 55, 89
1, 184210, Note_off_c, 0, 55, 74
1, 184234, Note_on_c, 0, 59, 90
1, 184269, Note_off_c, 0, 67, 61
1, 184298, Note_off_c, 0, 59, 60
1, 184356, Note_on_c, 0, 62, 95
1, 184357, Note_on_c, 0, 58, 89
1, 184374, Control_c, 0, 64, 69
1, 184375, Note_on_c, 0, 50, 72
1, 184389, Control_c, 0, 64, 43
1, 184404, Control_c, 0, 64, 0
1, 184427, Note_off_c, 0, 50, 62
1, 184439, Note_off_c, 0, 58, 63
1, 184448, Control_c, 0, 64, 43
1, 184453, Note_on_c, 0, 74, 72
1, 184457, Note_on_c, 0, 70, 66
1, 184463, Control_c, 0, 64, 68
1, 184463, Control_c, 0, 67, 11
1, 184466, Note_off_c, 0, 62, 64
1, 184475, Note_off_c, 0, 70, 66
1, 184477, Control_c, 0, 64, 127
1, 184477, Control_c, 0, 67, 22
1, 184486, Note_off_c, 0, 74, 63
1, 184492, Control_c, 0, 67, 42
1, 184507, Control_c, 0, 67, 77
1, 184522, Control_c, 0, 67, 127
1, 184530, Note_on_c, 0, 74, 69
1, 184567, Note_off_c, 0, 74, 63
1, 184600, Note_on_c, 0, 70, 62
1, 184600, Note_on_c, 0, 74, 55
1, 184604, Note_on_c, 0, 82, 66
1, 184609, Note_on_c, 0, 62, 55
1, 184618, Note_on_c, 0, 86, 54
1, 184618, Note_off_c, 0, 70, 64
1, 184621, Note_off_c, 0, 74, 65
1, 184621, Note_off_c, 0, 82, 70
1, 184629, Note_off_c, 0, 62, 65
1, 184635, Note_on_c, 0, 84, 27
1, 184640, Note_off_c, 0, 86, 60
1, 184671, Note_off_c, 0, 84, 32
1, 184826, Control_c, 0, 64, 93
1, 184829, Note_on_c, 0, 86, 80
1, 184833, Note_on_c, 0, 74, 72
1, 184836, Note_on_c, 0, 82, 66
1, 184841, Control_c, 0, 64, 66
1, 184849, Note_off_c, 0, 86, 69
1, 184851, Note_off_c, 0, 74, 71
1, 184854, Note_off_c, 0, 82, 68
1, 184856, Control_c, 0, 64, 52
1, 184871, Control_c, 0, 64, 22
1, 184885, Control_c, 0, 64, 0
1, 184898, Note_on_c, 0, 98, 72
1, 184902, Note_on_c, 0, 86, 82
1, 184910, Note_on_c, 0, 94, 58
1, 184919, Note_off_c, 0, 98, 70
1, 184921, Note_off_c, 0, 86, 59
1, 184929, Note_off_c, 0, 94, 62
1, 184978, Note_on_c, 0, 98, 76
1, 184993, Note_on_c, 0, 94, 62
1, 185004, Note_on_c, 0, 86, 29
1, 185011, Note_off_c, 0, 94, 67
1, 185012, Note_off_c, 0, 98, 58
1, 185016, Note_off_c, 0, 86, 41
1, 185043, Note_on_c, 0, 85, 69
1, 185043, Note_on_c, 0, 88, 76
1, 185056, Note_off_c, 0, 88, 71
1, 185059, Note_off_c, 0, 85, 69
1, 185118, Note_on_c, 0, 77, 74
1, 185122, Note_on_c, 0, 89, 73
1, 185128, Note_on_c, 0, 86, 56
1, 185149, Note_off_c, 0, 89, 65
1, 185152, Note_off_c, 0, 86, 58
1, 185155, Note_off_c, 0, 77, 49
1, 185174, Note_on_c, 0, 101, 77
1, 185178, Note_on_c, 0, 98, 67
1, 185179, Note_on_c, 0, 89, 61
1, 185196, Note_off_c, 0, 101, 69
1, 185201, Note_off_c, 0, 89, 62
1, 185201, Note_off_c, 0, 98, 69
1, 185262, Note_on_c, 0, 89, 75
1, 185268, Note_on_c, 0, 98, 71
1, 185269, Note_on_c, 0, 101, 66
1, 185286, Note_off_c, 0, 101, 67
1, 185290, Note_off_c, 0, 98, 70
1, 185294, Note_off_c, 0, 89, 62
1, 185340, Note_on_c, 0, 101, 86
1, 185352, Note_on_c, 0, 98, 74
1, 185354, Note_on_c, 0, 89, 58
1, 185378, Note_off_c, 0, 89, 62
1, 185380, Note_off_c, 0, 98, 59
1, 185387, Note_off_c, 0, 101, 64
1, 185415, Note_on_c, 0, 89, 56
1, 185417, Note_on_c, 0, 86, 68
1, 185432, Note_on_c, 0, 77, 59
1, 185442, Note_off_c, 0, 89, 64
1, 185447, Note_off_c, 0, 86, 66
1, 185454, Note_off_c, 0, 77, 62
1, 185504, Note_on_c, 0, 100, 75
1, 185506, Note_on_c, 0, 88, 68
1, 185530, Note_off_c, 0, 100, 59
1, 185536, Note_off_c, 0, 88, 64
1, 185582, Note_on_c, 0, 94, 72
1, 185587, Note_on_c, 0, 98, 69
1, 185605, Note_on_c, 0, 86, 59
1, 185605, Note_on_c, 0, 74, 60
1, 185605, Note_on_c, 0, 82, 48
1, 185664, Control_c, 0, 64, 19
1, 185665, Note_off_c, 0, 86, 54
1, 185679, Control_c, 0, 64, 39
1, 185687, Note_off_c, 0, 98, 63
1, 185690, Note_off_c, 0, 94, 54
1, 185694, Control_c, 0, 64, 56
1, 185697, Note_off_c, 0, 82, 57
1, 185708, Control_c, 0, 64, 76
1, 185723, Control_c, 0, 64, 127
1, 185764, Note_off_c, 0, 74, 34
1, 185976, Control_c, 0, 67, 108
1, 185991, Control_c, 0, 67, 69
1, 186005, Control_c, 0, 67, 22
1, 186020, Control_c, 0, 67, 0
1, 186067, Note_on_c, 0, 73, 92
1, 186075, Note_on_c, 0, 61, 77
1, 186231, Note_off_c, 0, 61, 63
1, 186323, Note_off_c, 0, 73, 55
1, 186381, Note_on_c, 0, 74, 98
1, 186386, Note_on_c, 0, 62, 95
1, 186445, Note_off_c, 0, 62, 60
1, 186503, Note_off_c, 0, 74, 67
1, 186583, Poly_aftertouch_c, 0, 56, 127
1, 186630, Poly_aftertouch_c, 0, 56, 0
1, 186717, Note_on_c, 0, 81, 99
1, 186723, Note_on_c, 0, 74, 70
1, 186724, Note_on_c, 0, 70, 101
1, 186725, Note_on_c, 0, 69, 91
1, 186754, Control_c, 0, 64, 67
1, 186769, Control_c, 0, 64, 41
1, 186784, Control_c, 0, 64, 0
1, 186828, Control_c, 0, 64, 44
1, 186835, Note_on_c, 0, 62, 77
1, 186835, Note_off_c, 0, 69, 59
1, 186843, Control_c, 0, 64, 74
1, 186858, Control_c, 0, 64, 127
1, 186910, Note_off_c, 0, 62, 65
1, 186911, Note_off_c, 0, 70, 58
1, 186926, Note_on_c, 0, 58, 75
1, 186964, Note_off_c, 0, 58, 66
1, 186975, Note_off_c, 0, 81, 52
1, 186995, Note_on_c, 0, 57, 79
1, 187052, Note_off_c, 0, 57, 42
1, 187072, Note_on_c, 0, 50, 78
1, 187132, Note_off_c, 0, 50, 63
1, 187149, Note_on_c, 0, 46, 82
1, 187152, Note_on_c, 0, 79, 89
1, 187160, Note_on_c, 0, 67, 87
1, 187176, Note_off_c, 0, 74, 49
1, 187189, Note_off_c, 0, 67, 62
1, 187191, Note_off_c, 0, 79, 65
1, 187207, Note_off_c, 0, 46, 63
1, 187232, Note_on_c, 0, 50, 75
1, 187273, Note_on_c, 0, 74, 94
1, 187277, Note_on_c, 0, 62, 91
1, 187293, Note_on_c, 0, 73, 56
1, 187297, Note_on_c, 0, 46, 84
1, 187309, Note_off_c, 0, 50, 61
1, 187314, Note_off_c, 0, 73, 63
1, 187372, Note_off_c, 0, 46, 64
1, 187376, Note_on_c, 0, 38, 65
1, 187381, Note_on_c, 0, 40, 69
1, 187413, Note_off_c, 0, 40, 64
1, 187417, Note_off_c, 0, 38, 64
1, 187487, Control_c, 0, 64, 87
1, 187493, Note_on_c, 0, 31, 97
1, 187501, Control_c, 0, 64, 54
1, 187516, Control_c, 0, 64, 0
1, 187543, Note_off_c, 0, 31, 65
1, 187561, Control_c, 0, 64, 17
1, 187575, Control_c, 0, 64, 56
1, 187581, Note_off_c, 0, 74, 66
1, 187586, Note_off_c, 0, 62, 59
1, 187590, Control_c, 0, 64, 127
1, 187706, Note_on_c, 0, 62, 79
1, 187711, Note_on_c, 0, 58, 70
1, 187719, Note_on_c, 0, 50, 65
1, 187734, Note_off_c, 0, 62, 68
1, 187736, Note_off_c, 0, 58, 68
1, 187753, Note_off_c, 0, 50, 65
1, 187777, Note_on_c, 0, 62, 83
1, 187781, Note_on_c, 0, 58, 82
1, 187791, Control_c, 0, 64, 77
1, 187800, Note_off_c, 0, 58, 67
1, 187806, Control_c, 0, 64, 61
1, 187811, Note_off_c, 0, 62, 65
1, 187820, Control_c, 0, 64, 45
1, 187835, Control_c, 0, 64, 14
1, 187850, Control_c, 0, 64, 0
1, 187855, Note_on_c, 0, 62, 82
1, 187864, Note_on_c, 0, 58, 70
1, 187888, Note_off_c, 0, 58, 67
1, 187894, Note_off_c, 0, 62, 65
1, 187909, Control_c, 0, 67, 9
1, 187924, Control_c, 0, 67, 18
1, 187927, Note_on_c, 0, 64, 70
1, 187933, Note_on_c, 0, 52, 59
1, 187936, Note_on_c, 0, 58, 55
1, 187939, Control_c, 0, 67, 27
1, 187945, Note_off_c, 0, 64, 67
1, 187954, Control_c, 0, 67, 34
1, 187960, Note_off_c, 0, 52, 56
1, 187962, Note_off_c, 0, 58, 58
1, 187969, Control_c, 0, 67, 41
1, 187984, Control_c, 0, 67, 49
1, 187998, Note_on_c, 0, 61, 82
1, 187999, Control_c, 0, 67, 57
1, 188007, Note_on_c, 0, 58, 78
1, 188013, Control_c, 0, 67, 63
1, 188014, Note_on_c, 0, 49, 70
1, 188020, Note_off_c, 0, 61, 68
1, 188028, Control_c, 0, 67, 69
1, 188034, Note_off_c, 0, 58, 65
1, 188043, Control_c, 0, 67, 70
1, 188053, Note_off_c, 0, 49, 68
1, 188058, Control_c, 0, 67, 70
1, 188067, Poly_aftertouch_c, 0, 58, 0
1, 188070, Note_on_c, 0, 58, 80
1, 188070, Note_on_c, 0, 61, 79
1, 188073, Control_c, 0, 67, 66
1, 188088, Note_off_c, 0, 58, 65
1, 188088, Control_c, 0, 67, 62
1, 188093, Note_off_c, 0, 61, 73
1, 188102, Control_c, 0, 67, 57
1, 188117, Control_c, 0, 67, 52
1, 188132, Control_c, 0, 67, 43
1, 188146, Control_c, 0, 67, 34
1, 188155, Note_on_c, 0, 58, 71
1, 188156, Note_on_c, 0, 61, 78
1, 188161, Control_c, 0, 67, 27
1, 188176, Control_c, 0, 67, 20
1, 188180, Note_off_c, 0, 61, 69
1, 188191, Control_c, 0, 67, 14
1, 188201, Note_off_c, 0, 58, 52
1, 188207, Control_c, 0, 67, 0
1, 188230, Note_on_c, 0, 58, 61
1, 188238, Note_on_c, 0, 61, 70
1, 188258, Note_off_c, 0, 58, 65
1, 188266, Note_off_c, 0, 61, 66
1, 188310, Note_on_c, 0, 61, 71
1, 188312, Note_on_c, 0, 58, 75
1, 188319, Note_on_c, 0, 49, 76
1, 188332, Note_off_c, 0, 61, 71
1, 188335, Note_off_c, 0, 58, 67
1, 188351, Note_off_c, 0, 49, 68
1, 188392, Note_on_c, 0, 58, 66
1, 188401, Note_on_c, 0, 62, 67
1, 188427, Note_off_c, 0, 58, 63
1, 188460, Note_off_c, 0, 62, 61
1, 188528, Note_on_c, 0, 31, 75
1, 188540, Control_c, 0, 64, 19
1, 188555, Control_c, 0, 64, 55
1, 188570, Control_c, 0, 64, 127
1, 188652, Note_off_c, 0, 31, 62
1, 188672, Note_on_c, 0, 43, 72
1, 188701, Note_off_c, 0, 43, 64
1, 188774, Note_on_c, 0, 48, 46
1, 188783, Note_on_c, 0, 50, 58
1, 188842, Note_on_c, 0, 55, 73
1, 188854, Note_on_c, 0, 85, 94
1, 188863, Note_on_c, 0, 73, 86
1, 188881, Note_on_c, 0, 82, 63
1, 188891, Note_off_c, 0, 48, 52
1, 188920, Note_on_c, 0, 58, 79
1, 188923, Note_off_c, 0, 73, 63
1, 188930, Note_off_c, 0, 55, 64
1, 188938, Note_off_c, 0, 50, 62
1, 188954, Note_off_c, 0, 85, 57
1, 188970, Note_off_c, 0, 58, 64
1, 188982, Note_on_c, 0, 62, 77
1, 189009, Note_off_c, 0, 62, 68
1, 189063, Note_on_c, 0, 86, 100
1, 189063, Note_on_c, 0, 74, 94
1, 189072, Note_on_c, 0, 66, 87
1, 189081, Note_off_c, 0, 82, 67
1, 189107, Note_off_c, 0, 74, 69
1, 189108, Note_on_c, 0, 70, 87
1, 189131, Note_off_c, 0, 66, 65
1, 189151, Note_off_c, 0, 86, 58
1, 189209, Note_on_c, 0, 74, 85
1, 189239, Note_off_c, 0, 70, 62
1, 189241, Note_on_c, 0, 73, 39
1, 189269, Note_on_c, 0, 86, 14
1, 189270, Note_off_c, 0, 74, 62
1, 189307, Note_on_c, 0, 91, 104
1, 189310, Note_off_c, 0, 86, 0
1, 189310, Note_on_c, 0, 86, 42
1, 189313, Note_off_c, 0, 73, 40
1, 189313, Note_on_c, 0, 82, 95
1, 189323, Note_on_c, 0, 79, 80
1, 189327, Note_on_c, 0, 81, 72
1, 189347, Note_on_c, 0, 74, 70
1, 189353, Note_off_c, 0, 79, 49
1, 189355, Note_off_c, 0, 81, 48
1, 189384, Note_on_c, 0, 88, 37
1, 189402, Note_on_c, 0, 70, 77
1, 189406, Note_off_c, 0, 74, 66
1, 189432, Note_off_c, 0, 91, 53
1, 189444, Note_off_c, 0, 70, 63
1, 189445, Note_off_c, 0, 88, 44
1, 189450, Note_on_c, 0, 69, 76
1, 189480, Note_off_c, 0, 69, 63
1, 189489, Note_off_c, 0, 86, 60
1, 189530, Note_on_c, 0, 62, 81
1, 189542, Note_off_c, 0, 82, 41
1, 189581, Note_off_c, 0, 62, 60
1, 189608, Note_on_c, 0, 58, 80
1, 189649, Note_off_c, 0, 58, 63
1, 189665, Note_on_c, 0, 80, 14
1, 189686, Note_on_c, 0, 55, 74
1, 189716, Note_on_c, 0, 86, 86
1, 189717, Note_off_c, 0, 80, 51
1, 189720, Note_on_c, 0, 82, 75
1, 189726, Note_on_c, 0, 74, 71
1, 189736, Note_off_c, 0, 55, 64
1, 189759, Note_on_c, 0, 52, 60
1, 189781, Note_off_c, 0, 52, 62
1, 189808, Control_c, 0, 67, 8
1, 189838, Control_c, 0, 67, 9
1, 189853, Control_c, 0, 67, 10
1, 189856, Note_off_c, 0, 86, 59
1, 189868, Control_c, 0, 67, 11
1, 189882, Control_c, 0, 67, 12
1, 189890, Note_off_c, 0, 74, 39
1, 189894, Note_off_c, 0, 82, 63
1, 189897, Control_c, 0, 64, 64
1, 189908, Note_on_c, 0, 29, 86
1, 189911, Note_on_c, 0, 41, 87
1, 189912, Control_c, 0, 64, 36
1, 189934, Control_c, 0, 64, 0
1, 189934, Control_c, 0, 67, 10
1, 189946, Note_off_c, 0, 29, 62
1, 189949, Control_c, 0, 67, 8
1, 189957, Note_on_c, 0, 32, 20
1, 189958, Note_off_c, 0, 32, 127
1, 189962, Note_off_c, 0, 41, 63
1, 189964, Control_c, 0, 64, 28
1, 189964, Control_c, 0, 67, 0
1, 189978, Control_c, 0, 64, 56
1, 189993, Control_c, 0, 64, 127
1, 190105, Note_on_c, 0, 62, 77
1, 190119, Note_on_c, 0, 58, 49
1, 190122, Note_off_c, 0, 62, 70
1, 190132, Note_on_c, 0, 54, 38
1, 190136, Note_on_c, 0, 55, 49
1, 190142, Control_c, 0, 64, 79
1, 190146, Note_off_c, 0, 58, 57
1, 190157, Control_c, 0, 64, 59
1, 190160, Note_on_c, 0, 56, 16
1, 190166, Note_on_c, 0, 74, 76
1, 190167, Note_off_c, 0, 54, 52
1, 190170, Note_off_c, 0, 55, 55
1, 190171, Control_c, 0, 64, 30
1, 190175, Note_on_c, 0, 62, 77
1, 190175, Note_on_c, 0, 70, 71
1, 190182, Note_on_c, 0, 68, 60
1, 190186, Control_c, 0, 64, 0
1, 190200, Note_off_c, 0, 56, 32
1, 190200, Note_off_c, 0, 62, 64
1, 190203, Note_off_c, 0, 70, 63
1, 190207, Note_off_c, 0, 68, 59
1, 190213, Note_off_c, 0, 74, 62
1, 190247, Note_on_c, 0, 62, 86
1, 190250, Note_on_c, 0, 58, 71
1, 190257, Note_on_c, 0, 56, 78
1, 190269, Note_off_c, 0, 62, 68
1, 190277, Note_off_c, 0, 58, 66
1, 190282, Note_off_c, 0, 56, 69
1, 190328, Note_on_c, 0, 64, 80
1, 190328, Note_on_c, 0, 76, 80
1, 190334, Note_on_c, 0, 68, 60
1, 190336, Note_on_c, 0, 70, 72
1, 190350, Note_off_c, 0, 76, 68
1, 190354, Note_off_c, 0, 64, 65
1, 190362, Note_off_c, 0, 70, 65
1, 190368, Note_off_c, 0, 68, 63
1, 190405, Note_on_c, 0, 61, 101
1, 190408, Note_on_c, 0, 56, 85
1, 190413, Note_on_c, 0, 58, 79
1, 190431, Note_on_c, 0, 54, 56
1, 190432, Note_off_c, 0, 61, 66
1, 190437, Note_off_c, 0, 58, 68
1, 190443, Note_off_c, 0, 56, 65
1, 190461, Note_off_c, 0, 54, 56
1, 190470, Note_on_c, 0, 73, 78
1, 190470, Note_on_c, 0, 61, 84
1, 190475, Note_on_c, 0, 68, 74
1, 190477, Note_on_c, 0, 70, 71
1, 190488, Note_off_c, 0, 61, 71
1, 190491, Note_off_c, 0, 73, 68
1, 190497, Note_off_c, 0, 70, 65
1, 190500, Note_off_c, 0, 68, 67
1, 190560, Note_on_c, 0, 73, 75
1, 190562, Note_on_c, 0, 61, 84
1, 190565, Note_on_c, 0, 70, 67
1, 190576, Note_off_c, 0, 73, 71
1, 190584, Note_on_c, 0, 68, 46
1, 190589, Note_off_c, 0, 61, 63
1, 190592, Note_off_c, 0, 70, 66
1, 190616, Note_off_c, 0, 68, 51
1, 190642, Note_on_c, 0, 73, 76
1, 190649, Note_on_c, 0, 61, 66
1, 190649, Note_on_c, 0, 70, 68
1, 190659, Note_on_c, 0, 68, 58
1, 190684, Note_off_c, 0, 70, 62
1, 190686, Note_off_c, 0, 73, 50
1, 190689, Note_off_c, 0, 61, 58
1, 190696, Note_off_c, 0, 68, 63
1, 190730, Note_on_c, 0, 56, 82
1, 190737, Note_on_c, 0, 58, 69
1, 190743, Note_on_c, 0, 61, 63
1, 190763, Note_off_c, 0, 61, 64
1, 190765, Note_off_c, 0, 58, 66
1, 190771, Note_off_c, 0, 56, 66
1, 190824, Note_on_c, 0, 68, 61
1, 190828, Note_on_c, 0, 70, 56
1, 190830, Note_on_c, 0, 62, 50
1, 190833, Note_on_c, 0, 74, 51
1, 190854, Note_off_c, 0, 62, 59
1, 190858, Note_off_c, 0, 74, 62
1, 190882, Note_off_c, 0, 70, 52
1, 190889, Note_off_c, 0, 68, 56
1, 190929, Note_on_c, 0, 38, 88
1, 190961, Note_off_c, 0, 38, 67
1, 190964, Control_c, 0, 64, 25
1, 190978, Control_c, 0, 64, 51
1, 190993, Control_c, 0, 64, 74
1, 191008, Control_c, 0, 64, 127
1, 191144, Note_on_c, 0, 65, 91
1, 191153, Note_on_c, 0, 60, 71
1, 191155, Note_on_c, 0, 53, 68
1, 191156, Note_on_c, 0, 56, 67
1, 191231, Note_off_c, 0, 65, 61
1, 191247, Note_on_c, 0, 72, 62
1, 191250, Note_on_c, 0, 68, 47
1, 191259, Note_off_c, 0, 53, 59
1, 191263, Note_on_c, 0, 77, 77
1, 191276, Note_off_c, 0, 72, 66
1, 191278, Note_off_c, 0, 68, 54
1, 191324, Note_off_c, 0, 77, 63
1, 191325, Note_off_c, 0, 60, 60
1, 191338, Note_off_c, 0, 56, 63
1, 191365, Note_on_c, 0, 67, 96
1, 191373, Note_on_c, 0, 77, 93
1, 191404, Poly_aftertouch_c, 0, 55, 127
1, 191445, Note_off_c, 0, 77, 57
1, 191450, Poly_aftertouch_c, 0, 55, 0
1, 191456, Note_off_c, 0, 67, 60
1, 191466, Note_on_c, 0, 91, 97
1, 191507, Note_on_c, 0, 86, 64
1, 191531, Note_off_c, 0, 91, 59
1, 191545, Note_off_c, 0, 86, 62
1, 191580, Control_c, 0, 64, 70
1, 191593, Note_on_c, 0, 70, 108
1, 191593, Note_on_c, 0, 86, 79
1, 191594, Note_on_c, 0, 94, 104
1, 191594, Note_on_c, 0, 64, 93
1, 191594, Control_c, 0, 64, 46
1, 191597, Note_on_c, 0, 88, 87
1, 191597, Note_on_c, 0, 62, 87
1, 191598, Note_on_c, 0, 58, 88
1, 191603, Note_on_c, 0, 59, 76
1, 191609, Control_c, 0, 64, 0
1, 191644, Note_off_c, 0, 70, 68
1, 191654, Note_off_c, 0, 64, 62
1, 191654, Control_c, 0, 64, 41
1, 191665, Note_off_c, 0, 59, 62
1, 191665, Note_off_c, 0, 62, 62
1, 191668, Control_c, 0, 64, 70
1, 191680, Note_off_c, 0, 58, 65
1, 191683, Control_c, 0, 64, 127
1, 191696, Note_off_c, 0, 94, 66
1, 191698, Note_off_c, 0, 88, 64
1, 191715, Note_off_c, 0, 86, 62
1, 191718, Note_on_c, 0, 82, 90
1, 191746, Note_off_c, 0, 82, 63
1, 191822, Note_on_c, 0, 29, 58
1, 191823, Note_on_c, 0, 40, 59
1, 191835, Note_on_c, 0, 28, 43
1, 191835, Note_on_c, 0, 82, 63
1, 191839, Note_on_c, 0, 76, 53
1, 191847, Note_on_c, 0, 74, 49
1, 191853, Note_off_c, 0, 40, 56
1, 191859, Note_off_c, 0, 29, 48
1, 191871, Note_off_c, 0, 76, 57
1, 191874, Note_off_c, 0, 28, 51
1, 191883, Poly_aftertouch_c, 0, 41, 127
1, 191892, Note_off_c, 0, 82, 63
1, 191899, Note_off_c, 0, 74, 42
1, 191906, Note_on_c, 0, 70, 79
1, 191924, Poly_aftertouch_c, 0, 41, 0
1, 191925, Note_off_c, 0, 70, 68
1, 191977, Note_on_c, 0, 64, 78
1, 191979, Note_on_c, 0, 56, 83
1, 191987, Note_on_c, 0, 62, 61
1, 191990, Note_on_c, 0, 68, 96
1, 191997, Note_off_c, 0, 64, 71
1, 192008, Note_off_c, 0, 62, 64
1, 192009, Note_off_c, 0, 56, 68
1, 192035, Note_on_c, 0, 70, 28
1, 192050, Note_on_c, 0, 75, 61
1, 192069, Note_off_c, 0, 68, 57
1, 192070, Note_off_c, 0, 70, 52
1, 192076, Poly_aftertouch_c, 0, 60, 0
1, 192078, Note_on_c, 0, 80, 78
1, 192112, Note_off_c, 0, 75, 62
1, 192128, Control_c, 0, 64, 76
1, 192142, Control_c, 0, 64, 47
1, 192149, Note_off_c, 0, 80, 61
1, 192157, Control_c, 0, 64, 0
1, 192172, Note_on_c, 0, 38, 97
1, 192205, Note_off_c, 0, 38, 68
1, 192211, Control_c, 0, 64, 11
1, 192225, Control_c, 0, 64, 50
1, 192240, Control_c, 0, 64, 127
1, 192349, Note_on_c, 0, 65, 97
1, 192357, Note_on_c, 0, 53, 76
1, 192359, Note_on_c, 0, 60, 69
1, 192363, Note_on_c, 0, 56, 67
1, 192410, Note_off_c, 0, 65, 62
1, 192426, Note_on_c, 0, 72, 59
1, 192440, Note_on_c, 0, 77, 86
1, 192447, Note_on_c, 0, 68, 24
1, 192455, Note_off_c, 0, 72, 65
1, 192459, Note_off_c, 0, 53, 58
1, 192479, Note_off_c, 0, 60, 37
1, 192491, Note_off_c, 0, 68, 49
1, 192491, Note_off_c, 0, 77, 66
1, 192505, Note_off_c, 0, 56, 64
1, 192530, Note_on_c, 0, 67, 100
1, 192537, Note_on_c, 0, 77, 95
1, 192605, Note_off_c, 0, 67, 56
1, 192607, Note_on_c, 0, 91, 100
1, 192622, Note_on_c, 0, 84, 80
1, 192643, Note_off_c, 0, 77, 64
1, 192653, Poly_aftertouch_c, 0, 56, 127
1, 192655, Note_off_c, 0, 91, 64
1, 192670, Note_off_c, 0, 84, 61
1, 192676, Poly_aftertouch_c, 0, 56, 0
1, 192685, Control_c, 0, 64, 113
1, 192693, Poly_aftertouch_c, 0, 56, 0
1, 192699, Control_c, 0, 64, 58
1, 192714, Control_c, 0, 64, 0
1, 192714, Note_on_c, 0, 56, 70
1, 192715, Note_on_c, 0, 61, 100
1, 192716, Note_on_c, 0, 64, 104
1, 192722, Note_on_c, 0, 88, 86
1, 192723, Note_on_c, 0, 85, 86
1, 192724, Note_on_c, 0, 52, 102
1, 192726, Note_on_c, 0, 83, 86
1, 192732, Note_on_c, 0, 82, 78
1, 192735, Note_on_c, 0, 59, 63
1, 192735, Note_on_c, 0, 86, 72
1, 192751, Note_off_c, 0, 59, 66
1, 192759, Note_off_c, 0, 64, 64
1, 192766, Note_off_c, 0, 86, 0
1, 192773, Control_c, 0, 64, 40
1, 192777, Note_off_c, 0, 61, 66
1, 192777, Note_on_c, 0, 86, 50
1, 192788, Control_c, 0, 64, 61
1, 192791, Note_on_c, 0, 84, 53
1, 192796, Note_off_c, 0, 52, 70
1, 192797, Note_off_c, 0, 56, 66
1, 192803, Control_c, 0, 64, 127
1, 192814, Note_off_c, 0, 88, 67
1, 192817, Note_off_c, 0, 84, 57
1, 192821, Note_off_c, 0, 86, 45
1, 192825, Note_on_c, 0, 76, 87
1, 192831, Note_off_c, 0, 85, 60
1, 192831, Note_off_c, 0, 83, 62
1, 192848, Note_off_c, 0, 82, 62
1, 192867, Note_off_c, 0, 76, 68
1, 192923, Note_on_c, 0, 37, 97
1, 192933, Note_on_c, 0, 25, 76
1, 192942, Note_on_c, 0, 76, 79
1, 192946, Note_off_c, 0, 37, 69
1, 192959, Note_on_c, 0, 75, 52
1, 192966, Note_off_c, 0, 25, 63
1, 192983, Note_on_c, 0, 74, 38
1, 192995, Note_off_c, 0, 75, 50
1, 193014, Note_off_c, 0, 74, 56
1, 193026, Poly_aftertouch_c, 0, 72, 127
1, 193028, Note_on_c, 0, 64, 82
1, 193033, Poly_aftertouch_c, 0, 27, 0
1, 193058, Poly_aftertouch_c, 0, 72, 0
1, 193060, Note_off_c, 0, 76, 60
1, 193066, Note_off_c, 0, 64, 64
1, 193111, Note_on_c, 0, 61, 97
1, 193119, Note_on_c, 0, 56, 83
1, 193120, Note_on_c, 0, 53, 87
1, 193124, Note_on_c, 0, 65, 88
1, 193125, Note_on_c, 0, 59, 64
1, 193130, Note_off_c, 0, 61, 68
1, 193141, Note_off_c, 0, 59, 65
1, 193148, Note_off_c, 0, 53, 67
1, 193153, Note_off_c, 0, 56, 65
1, 193194, Note_off_c, 0, 65, 63
1, 193205, Note_on_c, 0, 73, 84
1, 193206, Note_on_c, 0, 71, 71
1, 193206, Note_on_c, 0, 77, 80
1, 193231, Note_off_c, 0, 71, 68
1, 193255, Control_c, 0, 64, 87
1, 193270, Control_c, 0, 64, 57
1, 193281, Note_off_c, 0, 73, 56
1, 193285, Control_c, 0, 64, 0
1, 193307, Note_off_c, 0, 77, 53
1, 193315, Note_on_c, 0, 38, 103
1, 193325, Note_on_c, 0, 40, 82
1, 193345, Note_off_c, 0, 40, 65
1, 193349, Note_off_c, 0, 38, 69
1, 193358, Control_c, 0, 64, 31
1, 193373, Control_c, 0, 64, 64
1, 193388, Control_c, 0, 64, 127
1, 193466, Note_on_c, 0, 65, 88
1, 193492, Note_on_c, 0, 60, 72
1, 193500, Note_on_c, 0, 53, 65
1, 193503, Note_on_c, 0, 56, 59
1, 193504, Note_on_c, 0, 52, 72
1, 193518, Note_off_c, 0, 65, 63
1, 193529, Note_on_c, 0, 68, 58
1, 193536, Note_off_c, 0, 52, 65
1, 193541, Note_on_c, 0, 72, 68
1, 193557, Note_off_c, 0, 68, 63
1, 193561, Note_on_c, 0, 77, 85
1, 193561, Note_off_c, 0, 60, 53
1, 193567, Note_off_c, 0, 72, 65
1, 193597, Note_off_c, 0, 53, 53
1, 193615, Note_off_c, 0, 77, 62
1, 193645, Note_on_c, 0, 77, 89
1, 193652, Note_on_c, 0, 67, 95
1, 193653, Note_off_c, 0, 56, 41
1, 193715, Note_off_c, 0, 67, 62
1, 193717, Note_off_c, 0, 77, 63
1, 193735, Note_on_c, 0, 89, 104
1, 193776, Note_on_c, 0, 86, 43
1, 193791, Note_off_c, 0, 89, 65
1, 193806, Note_off_c, 0, 86, 53
1, 193856, Control_c, 0, 64, 69
1, 193863, Note_on_c, 0, 64, 94
1, 193864, Note_on_c, 0, 70, 108
1, 193866, Note_on_c, 0, 86, 91
1, 193867, Note_on_c, 0, 62, 86
1, 193868, Note_on_c, 0, 58, 94
1, 193868, Note_on_c, 0, 94, 108
1, 193871, Note_on_c, 0, 88, 92
1, 193871, Control_c, 0, 64, 32
1, 193874, Note_on_c, 0, 59, 79
1, 193886, Control_c, 0, 64, 0
1, 193916, Control_c, 0, 64, 14
1, 193923, Note_off_c, 0, 70, 66
1, 193931, Control_c, 0, 64, 50
1, 193937, Note_off_c, 0, 64, 62
1, 193943, Note_off_c, 0, 62, 65
1, 193945, Control_c, 0, 64, 85
1, 193948, Note_off_c, 0, 59, 62
1, 193956, Note_off_c, 0, 58, 62
1, 193960, Control_c, 0, 64, 127
1, 193972, Note_off_c, 0, 94, 64
1, 193976, Note_on_c, 0, 82, 95
1, 193984, Note_off_c, 0, 88, 62
1, 193987, Note_off_c, 0, 86, 62
1, 194023, Note_off_c, 0, 82, 65
1, 194102, Note_on_c, 0, 40, 102
1, 194105, Note_on_c, 0, 28, 92
1, 194115, Note_on_c, 0, 76, 72
1, 194115, Note_on_c, 0, 74, 70
1, 194129, Note_on_c, 0, 82, 53
1, 194131, Note_off_c, 0, 28, 68
1, 194133, Note_off_c, 0, 40, 67
1, 194134, Note_on_c, 0, 30, 36
1, 194161, Note_off_c, 0, 82, 0
1, 194161, Note_on_c, 0, 82, 23
1, 194175, Note_off_c, 0, 30, 45
1, 194186, Note_on_c, 0, 70, 88
1, 194211, Note_off_c, 0, 74, 61
1, 194211, Note_off_c, 0, 76, 50
1, 194255, Note_off_c, 0, 82, 48
1, 194256, Note_off_c, 0, 70, 62
1, 194287, Note_on_c, 0, 68, 108
1, 194291, Note_on_c, 0, 64, 86
1, 194292, Note_on_c, 0, 56, 93
1, 194294, Note_on_c, 0, 62, 82
1, 194318, Note_on_c, 0, 59, 49
1, 194330, Note_on_c, 0, 74, 68
1, 194344, Note_off_c, 0, 68, 60
1, 194351, Note_off_c, 0, 64, 60
1, 194357, Note_off_c, 0, 62, 60
1, 194358, Note_off_c, 0, 59, 60
1, 194365, Note_off_c, 0, 56, 64
1, 194366, Note_on_c, 0, 76, 74
1, 194368, Note_off_c, 0, 74, 66
1, 194386, Note_off_c, 0, 76, 70
1, 194450, Note_on_c, 0, 80, 84
1, 194496, Note_on_c, 0, 86, 80
1, 194552, Note_off_c, 0, 80, 59
1, 194554, Note_on_c, 0, 88, 70
1, 194560, Control_c, 0, 64, 98
1, 194571, Note_on_c, 0, 92, 94
1, 194574, Control_c, 0, 64, 58
1, 194579, Note_off_c, 0, 86, 64
1, 194590, Control_c, 0, 64, 0
1, 194596, Note_off_c, 0, 88, 64
1, 194613, Note_on_c, 0, 38, 104
1, 194619, Note_off_c, 0, 92, 68
1, 194638, Note_off_c, 0, 38, 69
1, 194649, Control_c, 0, 64, 45
1, 194664, Control_c, 0, 64, 75
1, 194679, Control_c, 0, 64, 127
1, 194779, Note_on_c, 0, 60, 86
1, 194783, Note_on_c, 0, 56, 72
1, 194784, Note_on_c, 0, 53, 80
1, 194786, Note_on_c, 0, 65, 84
1, 194789, Note_on_c, 0, 67, 84
1, 194855, Note_off_c, 0, 65, 65
1, 194855, Note_off_c, 0, 67, 64
1, 194857, Note_on_c, 0, 68, 76
1, 194871, Note_on_c, 0, 72, 73
1, 194882, Note_off_c, 0, 68, 65
1, 194896, Note_off_c, 0, 56, 0
1, 194896, Note_on_c, 0, 56, 3
1, 194905, Note_on_c, 0, 79, 80
1, 194906, Note_on_c, 0, 77, 66
1, 194907, Note_off_c, 0, 72, 63
1, 194911, Note_off_c, 0, 53, 58
1, 194914, Note_off_c, 0, 60, 61
1, 194932, Note_off_c, 0, 56, 62
1, 194935, Note_off_c, 0, 77, 66
1, 194937, Note_off_c, 0, 79, 64
1, 194956, Note_on_c, 0, 67, 93
1, 194974, Note_on_c, 0, 77, 90
1, 195018, Note_off_c, 0, 67, 62
1, 195052, Note_on_c, 0, 84, 93
1, 195052, Note_on_c, 0, 91, 86
1, 195058, Note_on_c, 0, 89, 82
1, 195058, Note_off_c, 0, 77, 42
1, 195086, Note_off_c, 0, 91, 63
1, 195087, Note_off_c, 0, 89, 63
1, 195096, Note_off_c, 0, 84, 63
1, 195108, Control_c, 0, 64, 66
1, 195123, Control_c, 0, 64, 39
1, 195132, Note_on_c, 0, 61, 99
1, 195137, Note_on_c, 0, 56, 90
1, 195138, Control_c, 0, 64, 0
1, 195140, Note_on_c, 0, 64, 91
1, 195140, Note_on_c, 0, 65, 91
1, 195142, Note_on_c, 0, 88, 98
1, 195144, Note_on_c, 0, 82, 93
1, 195145, Note_on_c, 0, 85, 89
1, 195146, Note_on_c, 0, 52, 80
1, 195151, Note_on_c, 0, 53, 78
1, 195166, Note_off_c, 0, 65, 73
1, 195168, Note_on_c, 0, 86, 74
1, 195171, Note_on_c, 0, 59, 43
1, 195183, Note_off_c, 0, 64, 63
1, 195190, Control_c, 0, 64, 35
1, 195192, Note_on_c, 0, 60, 15
1, 195197, Note_off_c, 0, 61, 68
1, 195199, Note_off_c, 0, 59, 54
1, 195205, Control_c, 0, 64, 62
1, 195206, Note_off_c, 0, 53, 42
1, 195212, Note_off_c, 0, 56, 67
1, 195218, Note_off_c, 0, 52, 68
1, 195219, Control_c, 0, 64, 127
1, 195233, Note_on_c, 0, 76, 90
1, 195233, Note_off_c, 0, 60, 57
1, 195239, Note_off_c, 0, 88, 64
1, 195245, Note_off_c, 0, 82, 65
1, 195245, Note_off_c, 0, 85, 63
1, 195274, Note_off_c, 0, 86, 23
1, 195277, Note_off_c, 0, 76, 68
1, 195346, Note_on_c, 0, 27, 86
1, 195348, Note_on_c, 0, 37, 78
1, 195348, Note_on_c, 0, 39, 89
1, 195353, Note_on_c, 0, 76, 84
1, 195358, Note_on_c, 0, 73, 76
1, 195369, Note_off_c, 0, 27, 69
1, 195372, Note_off_c, 0, 37, 63
1, 195373, Note_off_c, 0, 39, 66
1, 195411, Note_on_c, 0, 71, 16
1, 195427, Note_on_c, 0, 64, 84
1, 195454, Note_off_c, 0, 73, 36
1, 195455, Note_off_c, 0, 71, 55
1, 195478, Note_off_c, 0, 64, 60
1, 195522, Note_on_c, 0, 65, 105
1, 195528, Note_on_c, 0, 56, 81
1, 195534, Note_on_c, 0, 53, 76
1, 195540, Note_on_c, 0, 62, 70
1, 195549, Note_on_c, 0, 71, 67
1, 195555, Note_off_c, 0, 65, 68
1, 195557, Note_off_c, 0, 62, 68
1, 195563, Note_off_c, 0, 53, 66
1, 195576, Note_on_c, 0, 59, 6
1, 195579, Note_off_c, 0, 56, 63
1, 195585, Note_on_c, 0, 73, 65
1, 195585, Note_off_c, 0, 76, 62
1, 195595, Note_off_c, 0, 71, 66
1, 195597, Note_off_c, 0, 59, 0
1, 195609, Note_off_c, 0, 73, 66
1, 195633, Poly_aftertouch_c, 0, 59, 0
1, 195655, Note_on_c, 0, 77, 82
1, 195724, Note_on_c, 0, 83, 82
1, 195754, Note_off_c, 0, 77, 47
1, 195770, Note_on_c, 0, 85, 75
1, 195802, Note_off_c, 0, 83, 65
1, 195822, Note_on_c, 0, 89, 88
1, 195831, Note_off_c, 0, 85, 65
1, 195870, Note_on_c, 0, 26, 115
1, 195877, Note_off_c, 0, 89, 67
1, 195887, Control_c, 0, 64, 74
1, 195887, Control_c, 0, 67, 8
1, 195895, Note_off_c, 0, 26, 68
1, 195902, Control_c, 0, 64, 50
1, 195902, Control_c, 0, 67, 30
1, 195924, Control_c, 0, 64, 0
1, 195924, Control_c, 0, 67, 69
1, 195939, Control_c, 0, 67, 115
1, 195954, Control_c, 0, 67, 127
1, 196078, Note_on_c, 0, 44, 77
1, 196083, Note_on_c, 0, 53, 75
1, 196094, Note_on_c, 0, 48, 53
1, 196102, Note_off_c, 0, 44, 66
1, 196107, Note_off_c, 0, 53, 68
1, 196119, Note_off_c, 0, 48, 59
1, 196241, Note_on_c, 0, 53, 50
1, 196297, Note_off_c, 0, 53, 43
1, 196315, Poly_aftertouch_c, 0, 57, 0
1, 196321, Note_on_c, 0, 52, 71
1, 196328, Note_on_c, 0, 55, 59
1, 196348, Note_off_c, 0, 52, 69
1, 196363, Note_off_c, 0, 55, 66
1, 196414, Control_c, 0, 64, 31
1, 196415, Note_on_c, 0, 38, 90
1, 196429, Control_c, 0, 64, 55
1, 196443, Control_c, 0, 64, 78
1, 196444, Note_off_c, 0, 38, 65
1, 196458, Control_c, 0, 64, 94
1, 196473, Control_c, 0, 64, 94
1, 196488, Control_c, 0, 64, 90
1, 196503, Control_c, 0, 64, 87
1, 196518, Control_c, 0, 64, 86
1, 196532, Control_c, 0, 64, 84
1, 196547, Control_c, 0, 64, 77
1, 196562, Control_c, 0, 64, 67
1, 196577, Control_c, 0, 64, 57
1, 196591, Control_c, 0, 64, 37
1, 196593, Note_on_c, 0, 53, 67
1, 196606, Control_c, 0, 64, 0
1, 196610, Note_on_c, 0, 43, 62
1, 196612, Note_on_c, 0, 48, 46
1, 196612, Note_off_c, 0, 53, 66
1, 196641, Note_off_c, 0, 43, 64
1, 196643, Note_off_c, 0, 48, 34
1, 196678, Note_on_c, 0, 52, 62
1, 196687, Note_on_c, 0, 55, 70
1, 196715, Note_off_c, 0, 52, 65
1, 196726, Note_off_c, 0, 55, 64
1, 196768, Note_on_c, 0, 37, 87
1, 196772, Note_on_c, 0, 56, 74
1, 196777, Control_c, 0, 64, 20
1, 196786, Note_on_c, 0, 53, 65
1, 196791, Control_c, 0, 64, 38
1, 196806, Note_off_c, 0, 56, 65
1, 196806, Note_off_c, 0, 53, 66
1, 196806, Control_c, 0, 64, 40
1, 196819, Note_off_c, 0, 37, 58
1, 196821, Control_c, 0, 64, 38
1, 196836, Control_c, 0, 64, 36
1, 196855, Note_on_c, 0, 55, 72
1, 196864, Note_on_c, 0, 52, 65
1, 196880, Control_c, 0, 64, 36
1, 196894, Note_off_c, 0, 52, 68
1, 196909, Control_c, 0, 64, 36
1, 196917, Note_off_c, 0, 55, 66
1, 196924, Control_c, 0, 64, 34
1, 196939, Control_c, 0, 64, 31
1, 196944, Note_on_c, 0, 53, 80
1, 196944, Note_on_c, 0, 44, 81
1, 196954, Control_c, 0, 64, 25
1, 196954, Control_c, 0, 67, 115
1, 196957, Note_on_c, 0, 49, 63
1, 196968, Note_off_c, 0, 53, 70
1, 196969, Control_c, 0, 64, 14
1, 196969, Control_c, 0, 67, 96
1, 196977, Note_off_c, 0, 44, 64
1, 196981, Note_off_c, 0, 49, 61
1, 196985, Control_c, 0, 64, 0
1, 196985, Control_c, 0, 67, 72
1, 197000, Control_c, 0, 67, 47
1, 197014, Control_c, 0, 67, 23
1, 197024, Note_on_c, 0, 55, 71
1, 197026, Note_on_c, 0, 52, 59
1, 197029, Control_c, 0, 67, 10
1, 197044, Control_c, 0, 67, 0
1, 197059, Note_off_c, 0, 52, 66
1, 197059, Note_off_c, 0, 55, 65
1, 197110, Note_on_c, 0, 54, 81
1, 197114, Note_on_c, 0, 40, 90
1, 197116, Note_on_c, 0, 47, 76
1, 197117, Note_on_c, 0, 58, 72
1, 197143, Note_off_c, 0, 40, 68
1, 197143, Note_off_c, 0, 47, 68
1, 197147, Note_off_c, 0, 54, 64
1, 197198, Note_on_c, 0, 56, 76
1, 197204, Note_off_c, 0, 58, 55
1, 197248, Note_off_c, 0, 56, 62
1, 197259, Note_on_c, 0, 52, 4
1, 197260, Note_off_c, 0, 52, 127
1, 197281, Control_c, 0, 64, 23
1, 197291, Note_on_c, 0, 38, 91
1, 197296, Control_c, 0, 64, 48
1, 197311, Control_c, 0, 64, 60
1, 197326, Control_c, 0, 64, 69
1, 197328, Note_off_c, 0, 38, 65
1, 197340, Control_c, 0, 64, 77
1, 197355, Control_c, 0, 64, 81
1, 197479, Note_on_c, 0, 65, 80
1, 197480, Note_on_c, 0, 56, 75
1, 197481, Note_on_c, 0, 53, 75
1, 197481, Control_c, 0, 64, 80
1, 197496, Control_c, 0, 64, 71
1, 197500, Note_off_c, 0, 65, 73
1, 197505, Note_off_c, 0, 56, 70
1, 197511, Control_c, 0, 64, 62
1, 197523, Note_off_c, 0, 53, 62
1, 197526, Control_c, 0, 64, 47
1, 197540, Control_c, 0, 64, 0
1, 197553, Note_on_c, 0, 67, 82
1, 197556, Note_on_c, 0, 64, 65
1, 197585, Note_off_c, 0, 64, 66
1, 197593, Note_off_c, 0, 67, 61
1, 197639, Note_on_c, 0, 56, 93
1, 197647, Note_on_c, 0, 68, 71
1, 197652, Note_on_c, 0, 65, 55
1, 197663, Note_off_c, 0, 56, 67
1, 197672, Note_off_c, 0, 68, 67
1, 197682, Note_off_c, 0, 65, 67
1, 197720, Note_on_c, 0, 67, 75
1, 197727, Note_on_c, 0, 64, 68
1, 197756, Note_off_c, 0, 67, 61
1, 197761, Note_off_c, 0, 64, 64
1, 197811, Note_on_c, 0, 38, 93
1, 197837, Control_c, 0, 64, 35
1, 197844, Note_off_c, 0, 38, 67
1, 197852, Control_c, 0, 64, 58
1, 197867, Control_c, 0, 64, 80
1, 197882, Control_c, 0, 64, 127
1, 197970, Control_c, 0, 64, 119
1, 197985, Control_c, 0, 64, 85
1, 197997, Note_on_c, 0, 65, 69
1, 198000, Control_c, 0, 64, 67
1, 198004, Note_on_c, 0, 52, 71
1, 198007, Note_on_c, 0, 53, 64
1, 198014, Note_off_c, 0, 65, 70
1, 198015, Control_c, 0, 64, 54
1, 198017, Note_on_c, 0, 55, 51
1, 198027, Note_on_c, 0, 64, 34
1, 198029, Control_c, 0, 64, 22
1, 198034, Note_off_c, 0, 52, 69
1, 198037, Note_off_c, 0, 53, 66
1, 198041, Note_off_c, 0, 55, 56
1, 198044, Control_c, 0, 64, 0
1, 198061, Note_on_c, 0, 67, 73
1, 198134, Note_off_c, 0, 64, 0
1, 198144, Note_on_c, 0, 56, 81
1, 198162, Note_on_c, 0, 65, 59
1, 198164, Note_on_c, 0, 37, 95
1, 198174, Note_off_c, 0, 67, 61
1, 198176, Note_off_c, 0, 56, 69
1, 198193, Poly_aftertouch_c, 0, 64, 0
1, 198198, Note_on_c, 0, 68, 38
1, 198199, Note_off_c, 0, 37, 66
1, 198201, Control_c, 0, 64, 23
1, 198216, Control_c, 0, 64, 44
1, 198231, Control_c, 0, 64, 56
1, 198245, Control_c, 0, 64, 64
1, 198247, Note_on_c, 0, 64, 67
1, 198255, Note_on_c, 0, 67, 68
1, 198259, Note_off_c, 0, 68, 61
1, 198260, Control_c, 0, 64, 69
1, 198261, Note_off_c, 0, 65, 50
1, 198275, Control_c, 0, 64, 69
1, 198290, Control_c, 0, 64, 69
1, 198305, Control_c, 0, 64, 68
1, 198311, Note_off_c, 0, 64, 53
1, 198316, Note_off_c, 0, 67, 58
1, 198319, Control_c, 0, 64, 67
1, 198334, Control_c, 0, 64, 67
1, 198344, Note_on_c, 0, 56, 84
1, 198345, Note_on_c, 0, 65, 81
1, 198350, Note_on_c, 0, 53, 83
1, 198363, Control_c, 0, 64, 65
1, 198366, Note_off_c, 0, 65, 73
1, 198367, Note_off_c, 0, 56, 69
1, 198378, Control_c, 0, 64, 61
1, 198380, Note_off_c, 0, 53, 68
1, 198393, Control_c, 0, 64, 55
1, 198408, Control_c, 0, 64, 46
1, 198412, Note_on_c, 0, 67, 82
1, 198414, Note_on_c, 0, 64, 75
1, 198423, Control_c, 0, 64, 36
1, 198438, Control_c, 0, 64, 22
1, 198453, Control_c, 0, 64, 0
1, 198468, Note_off_c, 0, 67, 61
1, 198480, Note_off_c, 0, 64, 56
1, 198503, Note_on_c, 0, 66, 78
1, 198509, Note_on_c, 0, 59, 66
1, 198515, Note_on_c, 0, 70, 84
1, 198516, Note_on_c, 0, 40, 97
1, 198517, Note_on_c, 0, 47, 89
1, 198536, Note_off_c, 0, 59, 65
1, 198540, Note_off_c, 0, 47, 70
1, 198555, Note_off_c, 0, 66, 60
1, 198556, Note_off_c, 0, 40, 68
1, 198600, Note_on_c, 0, 64, 76
1, 198607, Note_on_c, 0, 68, 76
1, 198619, Note_off_c, 0, 70, 60
1, 198663, Note_off_c, 0, 64, 61
1, 198699, Note_off_c, 0, 68, 59
1, 198705, Note_on_c, 0, 38, 96
1, 198735, Control_c, 0, 64, 15
1, 198750, Control_c, 0, 64, 47
1, 198757, Note_off_c, 0, 38, 65
1, 198765, Control_c, 0, 64, 65
1, 198779, Control_c, 0, 64, 106
1, 198794, Control_c, 0, 64, 127
1, 198938, Note_on_c, 0, 65, 78
1, 198940, Note_on_c, 0, 53, 75
1, 198975, Note_off_c, 0, 53, 64
1, 198977, Note_on_c, 0, 56, 13
1, 198978, Note_off_c, 0, 65, 63
1, 199018, Note_off_c, 0, 56, 40
1, 199031, Note_on_c, 0, 79, 83
1, 199031, Note_on_c, 0, 67, 80
1, 199047, Note_on_c, 0, 72, 67
1, 199054, Poly_aftertouch_c, 0, 57, 0
1, 199079, Note_off_c, 0, 67, 58
1, 199095, Note_off_c, 0, 79, 60
1, 199117, Note_on_c, 0, 70, 101
1, 199123, Note_on_c, 0, 64, 78
1, 199126, Note_on_c, 0, 58, 80
1, 199153, Note_off_c, 0, 70, 47
1, 199159, Note_off_c, 0, 58, 59
1, 199174, Note_off_c, 0, 64, 62
1, 199194, Note_off_c, 0, 72, 0
1, 199197, Note_on_c, 0, 80, 87
1, 199200, Note_on_c, 0, 77, 82
1, 199204, Note_on_c, 0, 68, 92
1, 199210, Note_on_c, 0, 72, 41
1, 199239, Note_off_c, 0, 72, 57
1, 199276, Note_off_c, 0, 80, 62
1, 199279, Note_off_c, 0, 68, 58
1, 199284, Note_on_c, 0, 65, 93
1, 199287, Note_off_c, 0, 77, 57
1, 199287, Note_on_c, 0, 56, 98
1, 199293, Note_on_c, 0, 53, 89
1, 199313, Note_off_c, 0, 65, 64
1, 199317, Note_off_c, 0, 53, 70
1, 199327, Note_off_c, 0, 56, 64
1, 199380, Note_on_c, 0, 72, 81
1, 199383, Note_on_c, 0, 67, 91
1, 199384, Note_on_c, 0, 79, 88
1, 199418, Note_off_c, 0, 67, 60
1, 199425, Note_off_c, 0, 72, 63
1, 199437, Note_off_c, 0, 79, 64
1, 199469, Control_c, 0, 64, 65
1, 199483, Control_c, 0, 64, 38
1, 199498, Control_c, 0, 64, 0
1, 199528, Note_on_c, 0, 37, 89
1, 199530, Note_on_c, 0, 49, 103
1, 199530, Note_on_c, 0, 82, 102
1, 199532, Note_on_c, 0, 70, 96
1, 199541, Note_on_c, 0, 76, 79
1, 199542, Control_c, 0, 64, 34
1, 199557, Control_c, 0, 64, 64
1, 199562, Note_off_c, 0, 37, 65
1, 199564, Note_off_c, 0, 49, 66
1, 199572, Control_c, 0, 64, 127
1, 199574, Note_off_c, 0, 70, 61
1, 199606, Note_off_c, 0, 76, 64
1, 199660, Note_on_c, 0, 68, 76
1, 199663, Note_on_c, 0, 80, 94
1, 199681, Note_off_c, 0, 68, 68
1, 199701, Note_off_c, 0, 82, 62
1, 199704, Note_off_c, 0, 80, 68
1, 199763, Note_on_c, 0, 65, 82
1, 199764, Note_on_c, 0, 68, 84
1, 199765, Note_on_c, 0, 77, 99
1, 199785, Note_off_c, 0, 65, 71
1, 199803, Note_off_c, 0, 77, 64
1, 199806, Note_off_c, 0, 68, 63
1, 199846, Note_on_c, 0, 79, 87
1, 199848, Note_on_c, 0, 84, 85
1, 199850, Note_on_c, 0, 91, 89
1, 199883, Note_off_c, 0, 79, 60
1, 199895, Note_off_c, 0, 84, 60
1, 199915, Note_off_c, 0, 91, 58
1, 199926, Note_on_c, 0, 82, 96
1, 199928, Note_on_c, 0, 76, 98
1, 199933, Note_on_c, 0, 80, 88
1, 199946, Note_on_c, 0, 70, 63
1, 199947, Note_off_c, 0, 80, 64
1, 199957, Note_off_c, 0, 82, 64
1, 199961, Note_on_c, 0, 69, 51
1, 199971, Note_off_c, 0, 70, 59
1, 199979, Note_off_c, 0, 76, 64
1, 199986, Note_off_c, 0, 69, 61
1, 200001, Note_on_c, 0, 92, 92
1, 200002, Note_on_c, 0, 89, 89
1, 200007, Note_on_c, 0, 80, 89
1, 200026, Note_on_c, 0, 84, 52
1, 200047, Note_off_c, 0, 84, 61
1, 200083, Note_off_c, 0, 92, 64
1, 200084, Note_off_c, 0, 80, 61
1, 200096, Note_on_c, 0, 68, 95
1, 200100, Note_off_c, 0, 89, 59
1, 200103, Note_on_c, 0, 76, 83
1, 200103, Note_on_c, 0, 77, 80
1, 200104, Note_on_c, 0, 65, 71
1, 200112, Note_on_c, 0, 64, 74
1, 200117, Note_off_c, 0, 77, 73
1, 200123, Note_off_c, 0, 76, 72
1, 200125, Note_off_c, 0, 65, 73
1, 200131, Note_off_c, 0, 64, 40
1, 200132, Note_off_c, 0, 68, 61
1, 200169, Note_on_c, 0, 84, 53
1, 200178, Note_on_c, 0, 79, 97
1, 200181, Note_on_c, 0, 91, 97
1, 200199, Note_on_c, 0, 90, 71
1, 200217, Note_off_c, 0, 79, 64
1, 200223, Note_off_c, 0, 90, 65
1, 200226, Note_off_c, 0, 84, 64
1, 200245, Note_off_c, 0, 91, 62
1, 200261, Control_c, 0, 64, 75
1, 200276, Control_c, 0, 64, 48
1, 200291, Control_c, 0, 64, 0
1, 200327, Note_on_c, 0, 40, 100
1, 200328, Note_on_c, 0, 52, 111
1, 200331, Note_on_c, 0, 94, 107
1, 200331, Note_on_c, 0, 82, 100
1, 200338, Note_on_c, 0, 88, 88
1, 200345, Note_on_c, 0, 42, 69
1, 200349, Control_c, 0, 64, 35
1, 200358, Note_off_c, 0, 52, 72
1, 200364, Control_c, 0, 64, 85
1, 200365, Note_off_c, 0, 40, 67
1, 200366, Note_off_c, 0, 42, 59
1, 200369, Note_on_c, 0, 95, 49
1, 200376, Note_off_c, 0, 82, 64
1, 200379, Control_c, 0, 64, 127
1, 200410, Note_off_c, 0, 95, 35
1, 200423, Note_off_c, 0, 88, 66
1, 200460, Note_on_c, 0, 92, 100
1, 200462, Note_on_c, 0, 80, 90
1, 200511, Note_off_c, 0, 94, 61
1, 200520, Note_off_c, 0, 80, 62
1, 200551, Note_on_c, 0, 77, 97
1, 200554, Note_on_c, 0, 74, 89
1, 200554, Note_on_c, 0, 65, 86
1, 200560, Note_off_c, 0, 92, 61
1, 200581, Note_off_c, 0, 65, 65
1, 200585, Note_off_c, 0, 77, 64
1, 200591, Note_off_c, 0, 74, 52
1, 200636, Note_on_c, 0, 67, 98
1, 200636, Note_on_c, 0, 79, 105
1, 200641, Note_on_c, 0, 74, 87
1, 200663, Note_off_c, 0, 79, 69
1, 200674, Note_off_c, 0, 74, 69
1, 200676, Note_off_c, 0, 67, 67
1, 200682, Note_on_c, 0, 70, 30
1, 200719, Note_off_c, 0, 70, 51
1, 200730, Note_on_c, 0, 82, 100
1, 200735, Note_on_c, 0, 86, 96
1, 200735, Note_on_c, 0, 94, 107
1, 200769, Note_off_c, 0, 82, 64
1, 200781, Note_off_c, 0, 86, 63
1, 200826, Note_on_c, 0, 80, 92
1, 200829, Note_on_c, 0, 92, 92
1, 200861, Note_off_c, 0, 94, 64
1, 200902, Note_off_c, 0, 92, 66
1, 200949, Control_c, 0, 64, 65
1, 200964, Control_c, 0, 64, 35
1, 200980, Control_c, 0, 64, 0
1, 200989, Note_off_c, 0, 80, 63
1, 200993, Note_on_c, 0, 38, 103
1, 200995, Note_on_c, 0, 26, 100
1, 201025, Note_off_c, 0, 26, 64
1, 201030, Note_off_c, 0, 38, 66
1, 201040, Control_c, 0, 64, 30
1, 201054, Control_c, 0, 64, 56
1, 201069, Control_c, 0, 64, 80
1, 201084, Control_c, 0, 64, 127
1, 201128, Control_c, 0, 64, 98
1, 201143, Control_c, 0, 64, 88
1, 201165, Control_c, 0, 64, 85
1, 201180, Control_c, 0, 64, 84
1, 201206, Note_on_c, 0, 53, 89
1, 201209, Control_c, 0, 64, 83
1, 201224, Control_c, 0, 64, 81
1, 201228, Note_on_c, 0, 43, 51
1, 201228, Note_off_c, 0, 53, 71
1, 201230, Note_on_c, 0, 44, 46
1, 201239, Control_c, 0, 64, 78
1, 201246, Note_on_c, 0, 48, 32
1, 201253, Control_c, 0, 64, 76
1, 201260, Note_off_c, 0, 43, 52
1, 201261, Note_off_c, 0, 44, 52
1, 201268, Control_c, 0, 64, 75
1, 201285, Note_on_c, 0, 55, 81
1, 201286, Note_off_c, 0, 48, 0
1, 201286, Note_on_c, 0, 48, 25
1, 201296, Note_on_c, 0, 43, 60
1, 201312, Control_c, 0, 64, 74
1, 201314, Note_off_c, 0, 55, 64
1, 201327, Control_c, 0, 64, 74
1, 201331, Note_on_c, 0, 45, 14
1, 201332, Note_off_c, 0, 43, 65
1, 201342, Control_c, 0, 64, 73
1, 201344, Note_off_c, 0, 48, 63
1, 201357, Control_c, 0, 64, 73
1, 201370, Note_on_c, 0, 56, 79
1, 201371, Note_on_c, 0, 68, 86
1, 201384, Note_off_c, 0, 45, 53
1, 201386, Control_c, 0, 64, 72
1, 201395, Note_off_c, 0, 56, 71
1, 201401, Control_c, 0, 64, 71
1, 201416, Control_c, 0, 64, 70
1, 201460, Note_on_c, 0, 67, 63
1, 201463, Note_on_c, 0, 59, 77
1, 201465, Note_on_c, 0, 71, 81
1, 201487, Note_off_c, 0, 59, 68
1, 201505, Note_off_c, 0, 67, 60
1, 201513, Note_off_c, 0, 71, 67
1, 201526, Note_off_c, 0, 68, 34
1, 201546, Note_on_c, 0, 48, 88
1, 201547, Note_on_c, 0, 60, 86
1, 201550, Note_on_c, 0, 56, 84
1, 201550, Control_c, 0, 64, 71
1, 201565, Control_c, 0, 64, 71
1, 201570, Note_off_c, 0, 56, 70
1, 201571, Note_off_c, 0, 60, 67
1, 201574, Note_off_c, 0, 48, 68
1, 201579, Control_c, 0, 64, 72
1, 201594, Control_c, 0, 64, 74
1, 201594, Note_on_c, 0, 59, 16
1, 201595, Note_off_c, 0, 59, 127
1, 201609, Control_c, 0, 64, 79
1, 201624, Control_c, 0, 64, 87
1, 201630, Note_on_c, 0, 64, 74
1, 201631, Note_on_c, 0, 76, 89
1, 201639, Control_c, 0, 64, 92
1, 201642, Poly_aftertouch_c, 0, 59, 0
1, 201644, Note_on_c, 0, 72, 62
1, 201652, Note_off_c, 0, 64, 66
1, 201653, Control_c, 0, 64, 93
1, 201662, Note_off_c, 0, 72, 66
1, 201676, Note_off_c, 0, 76, 67
1, 201683, Control_c, 0, 64, 94
1, 201712, Control_c, 0, 64, 94
1, 201714, Note_on_c, 0, 54, 79
1, 201714, Note_on_c, 0, 65, 98
1, 201727, Control_c, 0, 64, 95
1, 201732, Note_off_c, 0, 54, 67
1, 201743, Note_on_c, 0, 60, 53
1, 201743, Note_off_c, 0, 65, 62
1, 201746, Note_on_c, 0, 61, 21
1, 201758, Note_off_c, 0, 60, 69
1, 201788, Control_c, 0, 64, 96
1, 201791, Note_on_c, 0, 67, 95
1, 201795, Note_on_c, 0, 55, 88
1, 201802, Control_c, 0, 64, 105
1, 201804, Note_on_c, 0, 60, 81
1, 201813, Poly_aftertouch_c, 0, 58, 127
1, 201817, Control_c, 0, 64, 127
1, 201838, Note_off_c, 0, 67, 63
1, 201839, Note_off_c, 0, 55, 66
1, 201848, Note_off_c, 0, 60, 64
1, 201856, Poly_aftertouch_c, 0, 58, 0
1, 201862, Note_off_c, 0, 61, 28
1, 201872, Note_on_c, 0, 80, 107
1, 201873, Note_on_c, 0, 68, 100
1, 201890, Note_off_c, 0, 68, 73
1, 201892, Note_on_c, 0, 70, 62
1, 201919, Note_off_c, 0, 70, 64
1, 201926, Note_off_c, 0, 80, 65
1, 201954, Note_on_c, 0, 81, 91
1, 201955, Note_on_c, 0, 79, 89
1, 201960, Note_on_c, 0, 71, 84
1, 201986, Note_off_c, 0, 71, 66
1, 202003, Note_off_c, 0, 79, 65
1, 202004, Note_off_c, 0, 81, 66
1, 202048, Note_on_c, 0, 72, 99
1, 202049, Note_on_c, 0, 60, 93
1, 202052, Note_on_c, 0, 68, 90
1, 202067, Note_off_c, 0, 68, 75
1, 202070, Note_off_c, 0, 72, 65
1, 202071, Note_off_c, 0, 60, 65
1, 202081, Note_on_c, 0, 63, 39
1, 202082, Note_off_c, 0, 63, 127
1, 202122, Note_on_c, 0, 88, 98
1, 202125, Note_on_c, 0, 76, 98
1, 202128, Note_on_c, 0, 83, 82
1, 202143, Note_on_c, 0, 85, 60
1, 202148, Note_off_c, 0, 76, 66
1, 202148, Note_off_c, 0, 83, 71
1, 202164, Note_off_c, 0, 85, 38
1, 202166, Note_off_c, 0, 88, 70
1, 202208, Note_on_c, 0, 77, 109
1, 202214, Note_on_c, 0, 65, 84
1, 202226, Note_on_c, 0, 72, 67
1, 202235, Note_off_c, 0, 65, 70
1, 202235, Note_off_c, 0, 77, 65
1, 202238, Note_on_c, 0, 70, 45
1, 202241, Note_off_c, 0, 72, 67
1, 202262, Note_off_c, 0, 70, 61
1, 202282, Note_on_c, 0, 67, 85
1, 202285, Note_on_c, 0, 79, 97
1, 202288, Note_on_c, 0, 72, 90
1, 202319, Note_on_c, 0, 68, 50
1, 202331, Note_off_c, 0, 79, 63
1, 202339, Note_off_c, 0, 67, 62
1, 202343, Note_off_c, 0, 68, 59
1, 202347, Note_off_c, 0, 72, 65
1, 202375, Note_on_c, 0, 80, 104
1, 202376, Note_on_c, 0, 92, 101
1, 202396, Note_on_c, 0, 90, 70
1, 202399, Note_off_c, 0, 92, 69
1, 202403, Note_off_c, 0, 80, 68
1, 202414, Note_off_c, 0, 90, 68
1, 202419, Note_on_c, 0, 91, 50
1, 202429, Note_on_c, 0, 79, 21
1, 202446, Note_off_c, 0, 91, 56
1, 202457, Note_on_c, 0, 90, 96
1, 202463, Note_on_c, 0, 83, 96
1, 202465, Note_on_c, 0, 95, 102
1, 202470, Note_off_c, 0, 79, 56
1, 202471, Note_on_c, 0, 91, 84
1, 202474, Note_off_c, 0, 90, 72
1, 202497, Note_off_c, 0, 83, 70
1, 202510, Note_off_c, 0, 95, 65
1, 202511, Note_off_c, 0, 91, 59
1, 202564, Note_on_c, 0, 84, 109
1, 202567, Note_on_c, 0, 72, 100
1, 202569, Note_on_c, 0, 80, 101
1, 202595, Note_off_c, 0, 84, 68
1, 202596, Note_off_c, 0, 80, 60
1, 202601, Note_on_c, 0, 75, 35
1, 202602, Note_off_c, 0, 75, 127
1, 202602, Note_off_c, 0, 72, 67
1, 202666, Note_on_c, 0, 100, 107
1, 202667, Note_on_c, 0, 88, 103
1, 202671, Note_on_c, 0, 95, 92
1, 202686, Note_on_c, 0, 97, 61
1, 202690, Note_off_c, 0, 95, 73
1, 202699, Note_off_c, 0, 88, 69
1, 202705, Note_off_c, 0, 97, 63
1, 202705, Note_off_c, 0, 100, 70
1, 202775, Note_on_c, 0, 89, 113
1, 202781, Note_on_c, 0, 83, 93
1, 202783, Note_on_c, 0, 76, 84
1, 202784, Note_on_c, 0, 77, 88
1, 202784, Note_on_c, 0, 88, 88
1, 202788, Note_on_c, 0, 78, 82
1, 202798, Note_on_c, 0, 80, 62
1, 202799, Note_off_c, 0, 88, 43
1, 202801, Note_off_c, 0, 76, 73
1, 202804, Note_off_c, 0, 78, 73
1, 202811, Note_off_c, 0, 89, 68
1, 202821, Note_off_c, 0, 80, 38
1, 202823, Note_off_c, 0, 77, 62
1, 202838, Note_off_c, 0, 83, 60
1, 202895, Note_on_c, 0, 79, 93
1, 202895, Note_on_c, 0, 91, 116
1, 202898, Note_on_c, 0, 84, 96
1, 202903, Note_on_c, 0, 80, 80
1, 202906, Poly_aftertouch_c, 0, 88, 127
1, 202915, Note_on_c, 0, 82, 67
1, 202919, Note_on_c, 0, 89, 54
1, 202920, Note_off_c, 0, 89, 127
1, 202930, Poly_aftertouch_c, 0, 88, 0
1, 202940, Note_off_c, 0, 82, 56
1, 202942, Note_off_c, 0, 91, 62
1, 202944, Note_on_c, 0, 85, 25
1, 202945, Note_off_c, 0, 85, 127
1, 202948, Note_off_c, 0, 80, 60
1, 202958, Note_off_c, 0, 79, 58
1, 202958, Note_off_c, 0, 84, 61
1, 203052, Note_on_c, 0, 92, 111
1, 203054, Note_on_c, 0, 104, 103
1, 203058, Note_on_c, 0, 100, 98
1, 203088, Note_on_c, 0, 103, 49
1, 203115, Note_off_c, 0, 103, 52
1, 203123, Note_off_c, 0, 100, 60
1, 203126, Note_off_c, 0, 92, 66
1, 203163, Note_off_c, 0, 104, 61
1, 203197, Note_on_c, 0, 103, 96
1, 203200, Note_on_c, 0, 107, 114
1, 203203, Note_on_c, 0, 104, 83
1, 203204, Note_on_c, 0, 95, 105
1, 203218, Note_on_c, 0, 100, 60
1, 203219, Note_off_c, 0, 100, 127
1, 203270, Note_off_c, 0, 104, 52
1, 203307, Note_off_c, 0, 107, 56
1, 203381, Note_off_c, 0, 103, 32
1, 203389, Control_c, 0, 64, 71
1, 203412, Control_c, 0, 64, 43
1, 203427, Control_c, 0, 64, 0
1, 203443, Note_on_c, 0, 36, 115
1, 203448, Note_on_c, 0, 23, 95
1, 203449, Note_on_c, 0, 24, 88
1, 203452, Note_on_c, 0, 35, 84
1, 203456, Control_c, 0, 64, 15
1, 203468, Note_off_c, 0, 23, 67
1, 203469, Note_off_c, 0, 36, 69
1, 203471, Note_off_c, 0, 35, 67
1, 203471, Note_off_c, 0, 95, 63
1, 203471, Control_c, 0, 64, 61
1, 203478, Note_off_c, 0, 24, 68
1, 203480, Note_on_c, 0, 25, 33
1, 203486, Control_c, 0, 64, 127
1, 203514, Note_off_c, 0, 25, 54
1, 203850, Note_on_c, 0, 79, 110
1, 203851, Note_on_c, 0, 67, 106
1, 203851, Note_on_c, 0, 91, 104
1, 203852, Note_on_c, 0, 55, 91
1, 203854, Note_on_c, 0, 60, 85
1, 203856, Note_on_c, 0, 84, 94
1, 203856, Note_on_c, 0, 88, 95
1, 203857, Note_on_c, 0, 64, 88
1, 203881, Note_on_c, 0, 90, 57
1, 203896, Note_off_c, 0, 55, 66
1, 203897, Note_off_c, 0, 67, 67
1, 203901, Note_off_c, 0, 91, 63
1, 203905, Note_off_c, 0, 79, 62
1, 203906, Note_off_c, 0, 90, 62
1, 203923, Note_off_c, 0, 60, 65
1, 203923, Note_off_c, 0, 64, 61
1, 203926, Note_off_c, 0, 84, 64
1, 203937, Note_off_c, 0, 88, 67
1, 203964, Note_on_c, 0, 60, 84
1, 203966, Note_on_c, 0, 68, 112
1, 203969, Note_on_c, 0, 56, 104
1, 203969, Note_on_c, 0, 64, 85
1, 203970, Note_on_c, 0, 92, 109
1, 203971, Note_on_c, 0, 88, 85
1, 203972, Note_on_c, 0, 80, 103
1, 203976, Note_on_c, 0, 84, 93
1, 203977, Note_on_c, 0, 79, 98
1, 203979, Note_on_c, 0, 81, 87
1, 203986, Note_on_c, 0, 90, 66
1, 203989, Control_c, 0, 64, 66
1, 203992, Note_on_c, 0, 78, 68
1, 203994, Note_on_c, 0, 66, 56
1, 204003, Note_on_c, 0, 58, 56
1, 204004, Control_c, 0, 64, 31
1, 204019, Control_c, 0, 64, 0
1, 204020, Note_on_c, 0, 67, 20
1, 204040, Note_off_c, 0, 58, 49
1, 204048, Control_c, 0, 64, 28
1, 204051, Note_off_c, 0, 78, 0
1, 204051, Note_on_c, 0, 78, 30
1, 204059, Note_off_c, 0, 67, 52
1, 204063, Control_c, 0, 64, 66
1, 204078, Control_c, 0, 64, 127
1, 204093, Note_off_c, 0, 56, 69
1, 204098, Note_off_c, 0, 68, 47
1, 204103, Note_off_c, 0, 78, 0
1, 204103, Note_on_c, 0, 78, 13
1, 204158, Note_off_c, 0, 92, 62
1, 204160, Note_off_c, 0, 81, 29
1, 204165, Note_on_c, 0, 58, 18
1, 204167, Note_off_c, 0, 88, 63
1, 204171, Note_off_c, 0, 90, 36
1, 204186, Note_off_c, 0, 64, 59
1, 204188, Note_off_c, 0, 66, 37
1, 204188, Note_off_c, 0, 80, 58
1, 204191, Note_off_c, 0, 84, 57
1, 204197, Note_off_c, 0, 58, 51
1, 204206, Note_off_c, 0, 60, 59
1, 204209, Note_off_c, 0, 79, 53
1, 204214, Note_off_c, 0, 78, 62
1, 204370, Note_on_c, 0, 76, 59
1, 204377, Note_on_c, 0, 72, 42
1, 204381, Note_on_c, 0, 77, 58
1, 204397, Note_on_c, 0, 73, 36
1, 204402, Note_off_c, 0, 77, 59
1, 204420, Note_off_c, 0, 72, 63
1, 204426, Note_off_c, 0, 76, 65
1, 204426, Poly_aftertouch_c, 0, 74, 127
1, 204432, Note_off_c, 0, 73, 56
1, 204445, Note_on_c, 0, 64, 82
1, 204456, Poly_aftertouch_c, 0, 74, 0
1, 204494, Note_off_c, 0, 64, 63
1, 204555, Note_on_c, 0, 65, 67
1, 204557, Note_on_c, 0, 64, 81
1, 204563, Note_on_c, 0, 60, 66
1, 204573, Note_on_c, 0, 62, 38
1, 204591, Note_off_c, 0, 60, 66
1, 204604, Note_off_c, 0, 65, 64
1, 204606, Note_off_c, 0, 62, 54
1, 204615, Note_off_c, 0, 64, 62
1, 204626, Note_on_c, 0, 52, 88
1, 204677, Note_off_c, 0, 52, 67
1, 204706, Note_on_c, 0, 48, 99
1, 204708, Note_on_c, 0, 36, 94
1, 204733, Note_off_c, 0, 48, 66
1, 204747, Note_off_c, 0, 36, 63
1, 204778, Note_on_c, 0, 60, 80
1, 204814, Note_on_c, 0, 48, 69
1, 204824, Note_off_c, 0, 60, 66
1, 204825, Note_on_c, 0, 50, 46
1, 204842, Note_off_c, 0, 48, 64
1, 204856, Note_off_c, 0, 50, 52
1, 204884, Note_on_c, 0, 48, 87
1, 204935, Note_off_c, 0, 48, 66
1, 204981, Note_on_c, 0, 43, 95
1, 205004, Note_off_c, 0, 43, 70
1, 205012, Note_on_c, 0, 31, 35
1, 205036, Note_on_c, 0, 33, 8
1, 205055, Note_off_c, 0, 31, 44
1, 205087, Note_on_c, 0, 52, 103
1, 205089, Note_on_c, 0, 40, 88
1, 205097, Note_off_c, 0, 33, 51
1, 205097, Note_on_c, 0, 50, 64
1, 205108, Note_on_c, 0, 46, 58
1, 205112, Note_off_c, 0, 52, 70
1, 205115, Note_off_c, 0, 40, 68
1, 205118, Note_off_c, 0, 50, 63
1, 205135, Note_off_c, 0, 46, 62
1, 205161, Poly_aftertouch_c, 0, 38, 127
1, 205175, Note_on_c, 0, 67, 92
1, 205176, Note_on_c, 0, 72, 87
1, 205176, Note_on_c, 0, 76, 91
1, 205180, Note_on_c, 0, 79, 82
1, 205184, Note_on_c, 0, 53, 76
1, 205186, Note_on_c, 0, 64, 81
1, 205200, Note_off_c, 0, 79, 70
1, 205202, Note_off_c, 0, 53, 66
1, 205203, Poly_aftertouch_c, 0, 38, 0
1, 205204, Poly_aftertouch_c, 0, 42, 0
1, 205206, Note_off_c, 0, 64, 72
1, 205207, Note_off_c, 0, 67, 63
1, 205209, Note_on_c, 0, 75, 40
1, 205212, Note_on_c, 0, 60, 27
1, 205213, Note_off_c, 0, 60, 127
1, 205213, Note_off_c, 0, 72, 64
1, 205216, Note_off_c, 0, 76, 68
1, 205217, Note_on_c, 0, 69, 29
1, 205218, Note_off_c, 0, 69, 127
1, 205237, Poly_aftertouch_c, 0, 60, 0
1, 205240, Note_off_c, 0, 75, 33
1, 205255, Poly_aftertouch_c, 0, 69, 0
1, 205269, Note_on_c, 0, 70, 108
1, 205270, Note_on_c, 0, 66, 110
1, 205273, Note_on_c, 0, 75, 96
1, 205274, Note_on_c, 0, 58, 97
1, 205276, Note_on_c, 0, 61, 91
1, 205276, Note_on_c, 0, 78, 83
1, 205279, Note_on_c, 0, 82, 91
1, 205279, Control_c, 0, 64, 85
1, 205281, Note_on_c, 0, 63, 84
1, 205288, Note_on_c, 0, 72, 77
1, 205289, Note_off_c, 0, 78, 72
1, 205291, Note_on_c, 0, 80, 67
1, 205294, Control_c, 0, 64, 53
1, 205301, Note_on_c, 0, 77, 70
1, 205309, Control_c, 0, 64, 0
1, 205312, Note_on_c, 0, 81, 59
1, 205335, Note_off_c, 0, 80, 0
1, 205335, Note_on_c, 0, 80, 30
1, 205338, Note_off_c, 0, 81, 36
1, 205339, Note_on_c, 0, 56, 25
1, 205340, Note_off_c, 0, 56, 127
1, 205383, Control_c, 0, 64, 23
1, 205398, Control_c, 0, 64, 59
1, 205413, Control_c, 0, 64, 127
1, 205414, Note_off_c, 0, 80, 34
1, 205465, Note_off_c, 0, 77, 56
1, 205476, Note_off_c, 0, 66, 51
1, 205482, Note_off_c, 0, 82, 53
1, 205521, Note_off_c, 0, 58, 56
1, 205522, Note_off_c, 0, 72, 55
1, 205523, Note_off_c, 0, 61, 55
1, 205536, Note_off_c, 0, 70, 47
1, 205613, Note_off_c, 0, 63, 60
1, 205662, Note_off_c, 0, 75, 56
1, 205672, Control_c, 0, 64, 70
1, 205678, Note_on_c, 0, 55, 95
1, 205678, Note_on_c, 0, 60, 101
1, 205680, Note_on_c, 0, 64, 100
1, 205684, Note_on_c, 0, 67, 99
1, 205685, Note_on_c, 0, 72, 71
1, 205685, Note_on_c, 0, 76, 85
1, 205686, Note_on_c, 0, 79, 92
1, 205687, Control_c, 0, 64, 46
1, 205702, Control_c, 0, 64, 0
1, 205716, Note_off_c, 0, 64, 68
1, 205720, Note_off_c, 0, 60, 69
1, 205732, Control_c, 0, 64, 26
1, 205739, Note_off_c, 0, 55, 69
1, 205747, Note_off_c, 0, 67, 56
1, 205747, Control_c, 0, 64, 54
1, 205761, Control_c, 0, 64, 127
1, 205765, Note_off_c, 0, 72, 60
1, 205793, Note_off_c, 0, 76, 64
1, 205818, Note_off_c, 0, 79, 62
1, 205888, Note_on_c, 0, 36, 115
1, 205890, Note_on_c, 0, 24, 94
1, 205917, Note_off_c, 0, 36, 67
1, 205918, Note_off_c, 0, 24, 67
1, 205926, Note_on_c, 0, 25, 37
1, 205927, Note_off_c, 0, 25, 127
1, 205964, Poly_aftertouch_c, 0, 25, 0
1, 206122, Note_on_c, 0, 91, 100
1, 206125, Note_on_c, 0, 79, 102
1, 206131, Note_on_c, 0, 55, 92
1, 206131, Note_on_c, 0, 67, 93
1, 206131, Note_on_c, 0, 84, 94
1, 206131, Note_on_c, 0, 64, 91
1, 206134, Note_on_c, 0, 88, 88
1, 206135, Note_on_c, 0, 60, 90
1, 206163, Note_on_c, 0, 61, 18
1, 206164, Note_off_c, 0, 61, 127
1, 206167, Note_on_c, 0, 58, 41
1, 206167, Note_on_c, 0, 65, 41
1, 206167, Note_off_c, 0, 55, 68
1, 206170, Note_off_c, 0, 67, 65
1, 206176, Note_off_c, 0, 79, 64
1, 206178, Note_off_c, 0, 91, 62
1, 206191, Note_off_c, 0, 60, 62
1, 206194, Note_off_c, 0, 84, 64
1, 206197, Note_off_c, 0, 58, 54
1, 206198, Note_off_c, 0, 64, 59
1, 206199, Note_off_c, 0, 65, 60
1, 206207, Note_off_c, 0, 88, 67
1, 206232, Note_on_c, 0, 60, 80
1, 206234, Note_on_c, 0, 66, 100
1, 206235, Note_on_c, 0, 64, 82
1, 206236, Note_on_c, 0, 92, 105
1, 206237, Note_on_c, 0, 80, 104
1, 206238, Note_on_c, 0, 68, 93
1, 206239, Note_on_c, 0, 88, 91
1, 206240, Note_on_c, 0, 56, 96
1, 206242, Note_on_c, 0, 78, 106
1, 206242, Note_on_c, 0, 84, 92
1, 206251, Control_c, 0, 64, 81
1, 206262, Note_on_c, 0, 90, 72
1, 206266, Control_c, 0, 64, 54
1, 206280, Control_c, 0, 64, 0
1, 206311, Note_off_c, 0, 90, 53
1, 206325, Control_c, 0, 64, 43
1, 206328, Note_on_c, 0, 55, 7
1, 206340, Control_c, 0, 64, 74
1, 206355, Control_c, 0, 64, 127
1, 206359, Note_off_c, 0, 55, 40
1, 206373, Note_off_c, 0, 68, 56
1, 206381, Note_off_c, 0, 92, 62
1, 206400, Note_off_c, 0, 66, 60
1, 206405, Note_off_c, 0, 88, 64
1, 206411, Note_off_c, 0, 56, 58
1, 206417, Note_off_c, 0, 80, 59
1, 206421, Note_off_c, 0, 64, 60
1, 206424, Note_off_c, 0, 84, 59
1, 206435, Note_off_c, 0, 60, 63
1, 206464, Note_off_c, 0, 78, 63
1, 206599, Note_on_c, 0, 72, 72
1, 206600, Note_on_c, 0, 76, 73
1, 206677, Note_off_c, 0, 76, 65
1, 206683, Note_off_c, 0, 72, 61
1, 206695, Note_on_c, 0, 64, 84
1, 206747, Note_off_c, 0, 64, 64
1, 206800, Note_on_c, 0, 60, 88
1, 206806, Note_on_c, 0, 64, 73
1, 206819, Note_on_c, 0, 62, 68
1, 206844, Note_off_c, 0, 62, 57
1, 206851, Note_off_c, 0, 60, 63
1, 206880, Note_off_c, 0, 64, 62
1, 206886, Note_on_c, 0, 52, 98
1, 206933, Note_off_c, 0, 52, 66
1, 206968, Note_on_c, 0, 48, 95
1, 206970, Note_on_c, 0, 36, 84
1, 206991, Note_off_c, 0, 48, 70
1, 207006, Note_off_c, 0, 36, 66
1, 207055, Note_on_c, 0, 60, 55
1, 207061, Note_on_c, 0, 62, 57
1, 207067, Note_on_c, 0, 48, 68
1, 207079, Note_off_c, 0, 60, 67
1, 207089, Note_off_c, 0, 62, 57
1, 207090, Note_off_c, 0, 48, 67
1, 207148, Note_on_c, 0, 48, 93
1, 207193, Note_off_c, 0, 48, 65
1, 207226, Note_on_c, 0, 43, 91
1, 207251, Note_off_c, 0, 43, 69
1, 207259, Note_on_c, 0, 31, 33
1, 207300, Note_off_c, 0, 31, 45
1, 207309, Poly_aftertouch_c, 0, 33, 0
1, 207325, Note_on_c, 0, 50, 103
1, 207330, Note_on_c, 0, 38, 89
1, 207344, Poly_aftertouch_c, 0, 33, 0
1, 207354, Note_off_c, 0, 50, 69
1, 207356, Note_off_c, 0, 38, 68
1, 207382, Note_on_c, 0, 40, 18
1, 207419, Note_on_c, 0, 67, 97
1, 207420, Note_on_c, 0, 72, 90
1, 207422, Note_on_c, 0, 76, 93
1, 207423, Note_on_c, 0, 79, 87
1, 207425, Note_on_c, 0, 64, 95
1, 207433, Note_off_c, 0, 40, 41
1, 207439, Note_on_c, 0, 53, 56
1, 207440, Note_on_c, 0, 75, 63
1, 207441, Note_on_c, 0, 60, 61
1, 207442, Note_off_c, 0, 60, 127
1, 207443, Note_off_c, 0, 64, 73
1, 207450, Note_off_c, 0, 67, 63
1, 207451, Note_off_c, 0, 79, 65
1, 207457, Note_off_c, 0, 72, 65
1, 207461, Note_off_c, 0, 76, 67
1, 207461, Note_off_c, 0, 75, 62
1, 207465, Note_off_c, 0, 53, 61
1, 207475, Note_on_c, 0, 62, 25
1, 207512, Note_on_c, 0, 66, 107
1, 207514, Note_on_c, 0, 61, 97
1, 207514, Note_on_c, 0, 70, 115
1, 207515, Note_on_c, 0, 58, 91
1, 207518, Note_on_c, 0, 63, 96
1, 207518, Note_on_c, 0, 73, 98
1, 207518, Note_on_c, 0, 75, 101
1, 207519, Note_on_c, 0, 78, 95
1, 207519, Note_on_c, 0, 82, 104
1, 207522, Note_off_c, 0, 62, 58
1, 207526, Control_c, 0, 64, 75
1, 207529, Note_off_c, 0, 66, 67
1, 207541, Control_c, 0, 64, 49
1, 207555, Note_on_c, 0, 65, 54
1, 207556, Control_c, 0, 64, 0
1, 207566, Note_on_c, 0, 64, 60
1, 207595, Note_off_c, 0, 64, 49
1, 207630, Control_c, 0, 64, 30
1, 207645, Control_c, 0, 64, 59
1, 207660, Control_c, 0, 64, 127
1, 207723, Note_off_c, 0, 65, 35
1, 207729, Note_off_c, 0, 82, 56
1, 207738, Note_off_c, 0, 78, 61
1, 207771, Note_off_c, 0, 61, 53
1, 207800, Note_off_c, 0, 70, 52
1, 207821, Note_off_c, 0, 73, 60
1, 207828, Note_off_c, 0, 58, 56
1, 207901, Note_off_c, 0, 63, 62
1, 207926, Note_off_c, 0, 75, 54
1, 207934, Control_c, 0, 64, 105
1, 207947, Note_on_c, 0, 60, 101
1, 207948, Control_c, 0, 64, 58
1, 207949, Note_on_c, 0, 55, 96
1, 207949, Note_on_c, 0, 64, 97
1, 207954, Note_on_c, 0, 79, 98
1, 207955, Note_on_c, 0, 67, 93
1, 207956, Note_on_c, 0, 72, 87
1, 207962, Note_on_c, 0, 76, 79
1, 207963, Control_c, 0, 64, 0
1, 207983, Note_on_c, 0, 58, 31
1, 207986, Note_off_c, 0, 64, 67
1, 207991, Note_off_c, 0, 60, 69
1, 208000, Note_off_c, 0, 67, 61
1, 208008, Control_c, 0, 64, 36
1, 208009, Note_off_c, 0, 55, 69
1, 208010, Note_off_c, 0, 72, 61
1, 208018, Note_off_c, 0, 58, 31
1, 208022, Control_c, 0, 64, 61
1, 208034, Note_off_c, 0, 76, 64
1, 208037, Control_c, 0, 64, 127
1, 208056, Note_off_c, 0, 79, 63
1, 208066, Poly_aftertouch_c, 0, 62, 0
1, 208154, Note_on_c, 0, 24, 102
1, 208281, Note_off_c, 0, 24, 61
1, 208290, Note_on_c, 0, 91, 103
1, 208293, Note_on_c, 0, 79, 99
1, 208298, Note_on_c, 0, 84, 90
1, 208298, Note_on_c, 0, 88, 92
1, 208306, Note_on_c, 0, 36, 75
1, 208323, Note_off_c, 0, 91, 65
1, 208325, Note_off_c, 0, 79, 66
1, 208326, Note_on_c, 0, 90, 33
1, 208327, Note_off_c, 0, 90, 127
1, 208340, Note_off_c, 0, 84, 64
1, 208346, Note_off_c, 0, 36, 63
1, 208349, Note_off_c, 0, 88, 68
1, 208377, Note_on_c, 0, 92, 100
1, 208384, Note_on_c, 0, 88, 82
1, 208385, Note_on_c, 0, 80, 97
1, 208392, Note_on_c, 0, 84, 73
1, 208397, Note_on_c, 0, 78, 74
1, 208411, Note_off_c, 0, 92, 70
1, 208414, Note_off_c, 0, 78, 0
1, 208415, Note_off_c, 0, 84, 67
1, 208419, Note_on_c, 0, 36, 61
1, 208423, Note_off_c, 0, 88, 68
1, 208424, Note_off_c, 0, 80, 43
1, 208433, Note_on_c, 0, 35, 49
1, 208437, Poly_aftertouch_c, 0, 78, 0
1, 208443, Note_on_c, 0, 37, 34
1, 208466, Note_off_c, 0, 35, 52
1, 208480, Note_off_c, 0, 37, 47
1, 208483, Note_on_c, 0, 48, 74
1, 208484, Note_off_c, 0, 36, 55
1, 208531, Note_off_c, 0, 48, 63
1, 208553, Note_on_c, 0, 35, 67
1, 208585, Note_off_c, 0, 35, 62
1, 208633, Note_on_c, 0, 67, 92
1, 208642, Note_on_c, 0, 72, 79
1, 208643, Note_on_c, 0, 79, 90
1, 208644, Note_on_c, 0, 76, 86
1, 208657, Note_on_c, 0, 36, 70
1, 208668, Note_off_c, 0, 67, 64
1, 208668, Note_off_c, 0, 79, 66
1, 208681, Note_off_c, 0, 72, 61
1, 208693, Note_off_c, 0, 76, 68
1, 208717, Note_on_c, 0, 80, 102
1, 208718, Note_off_c, 0, 36, 60
1, 208721, Poly_aftertouch_c, 0, 72, 0
1, 208722, Note_on_c, 0, 68, 98
1, 208725, Note_on_c, 0, 76, 78
1, 208726, Note_on_c, 0, 72, 76
1, 208728, Control_c, 0, 64, 71
1, 208728, Note_on_c, 0, 24, 82
1, 208729, Note_on_c, 0, 66, 94
1, 208743, Control_c, 0, 64, 46
1, 208753, Note_on_c, 0, 78, 60
1, 208758, Control_c, 0, 64, 0
1, 208763, Note_on_c, 0, 25, 38
1, 208790, Note_off_c, 0, 25, 54
1, 208799, Note_off_c, 0, 24, 62
1, 208802, Note_off_c, 0, 78, 56
1, 208802, Control_c, 0, 64, 42
1, 208805, Note_off_c, 0, 80, 64
1, 208816, Note_on_c, 0, 36, 76
1, 208816, Control_c, 0, 64, 63
1, 208829, Note_off_c, 0, 76, 66
1, 208831, Control_c, 0, 64, 127
1, 208838, Note_off_c, 0, 68, 58
1, 208845, Note_off_c, 0, 36, 65
1, 208850, Note_off_c, 0, 72, 61
1, 208874, Note_off_c, 0, 66, 60
1, 208902, Note_on_c, 0, 36, 74
1, 208965, Note_off_c, 0, 36, 59
1, 208966, Note_on_c, 0, 48, 75
1, 208981, Poly_aftertouch_c, 0, 38, 127
1, 208982, Poly_aftertouch_c, 0, 40, 127
1, 209002, Note_off_c, 0, 48, 64
1, 209023, Poly_aftertouch_c, 0, 38, 0
1, 209024, Poly_aftertouch_c, 0, 40, 0
1, 209039, Note_on_c, 0, 36, 76
1, 209074, Note_off_c, 0, 36, 63
1, 209148, Note_on_c, 0, 36, 55
1, 209149, Note_on_c, 0, 35, 63
1, 209193, Note_off_c, 0, 36, 49
1, 209198, Note_off_c, 0, 35, 58
1, 209219, Note_on_c, 0, 24, 85
1, 209232, Control_c, 0, 64, 64
1, 209246, Control_c, 0, 64, 34
1, 209261, Note_on_c, 0, 27, 32
1, 209261, Control_c, 0, 64, 0
1, 209283, Note_off_c, 0, 24, 62
1, 209290, Note_on_c, 0, 67, 82
1, 209291, Control_c, 0, 64, 33
1, 209292, Note_off_c, 0, 27, 50
1, 209297, Note_on_c, 0, 55, 80
1, 209306, Control_c, 0, 64, 56
1, 209307, Note_on_c, 0, 64, 71
1, 209310, Note_on_c, 0, 36, 88
1, 209311, Note_on_c, 0, 60, 66
1, 209321, Control_c, 0, 64, 127
1, 209321, Note_off_c, 0, 55, 72
1, 209327, Note_off_c, 0, 67, 63
1, 209338, Note_off_c, 0, 60, 68
1, 209342, Note_off_c, 0, 36, 66
1, 209353, Note_off_c, 0, 64, 63
1, 209375, Note_on_c, 0, 68, 90
1, 209378, Note_on_c, 0, 56, 91
1, 209378, Note_on_c, 0, 64, 65
1, 209390, Note_on_c, 0, 54, 74
1, 209396, Note_on_c, 0, 60, 75
1, 209404, Note_off_c, 0, 56, 58
1, 209408, Note_off_c, 0, 54, 67
1, 209425, Note_off_c, 0, 68, 55
1, 209439, Note_off_c, 0, 60, 49
1, 209443, Note_off_c, 0, 64, 61
1, 209446, Note_on_c, 0, 36, 14
1, 209471, Note_off_c, 0, 36, 60
1, 209474, Note_on_c, 0, 48, 72
1, 209476, Control_c, 0, 67, 8
1, 209491, Control_c, 0, 67, 10
1, 209495, Poly_aftertouch_c, 0, 38, 127
1, 209504, Note_off_c, 0, 48, 66
1, 209506, Control_c, 0, 67, 15
1, 209520, Control_c, 0, 67, 22
1, 209532, Note_on_c, 0, 36, 77
1, 209533, Poly_aftertouch_c, 0, 38, 0
1, 209535, Control_c, 0, 67, 32
1, 209550, Control_c, 0, 67, 45
1, 209565, Control_c, 0, 67, 58
1, 209567, Note_off_c, 0, 36, 64
1, 209580, Control_c, 0, 67, 69
1, 209594, Control_c, 0, 67, 76
1, 209609, Control_c, 0, 67, 82
1, 209622, Note_on_c, 0, 36, 76
1, 209624, Control_c, 0, 67, 86
1, 209638, Control_c, 0, 67, 91
1, 209653, Control_c, 0, 67, 97
1, 209668, Control_c, 0, 67, 105
1, 209683, Control_c, 0, 67, 118
1, 209694, Note_off_c, 0, 36, 59
1, 209698, Control_c, 0, 67, 127
1, 209710, Note_on_c, 0, 24, 85
1, 209712, Control_c, 0, 64, 119
1, 209727, Control_c, 0, 64, 63
1, 209742, Control_c, 0, 64, 42
1, 209757, Control_c, 0, 64, 14
1, 209773, Control_c, 0, 64, 19
1, 209777, Note_off_c, 0, 24, 63
1, 209788, Control_c, 0, 64, 32
1, 209796, Note_on_c, 0, 55, 79
1, 209803, Note_on_c, 0, 43, 83
1, 209803, Control_c, 0, 64, 50
1, 209804, Note_on_c, 0, 36, 71
1, 209816, Note_off_c, 0, 55, 70
1, 209817, Control_c, 0, 64, 77
1, 209818, Note_on_c, 0, 48, 55
1, 209824, Note_on_c, 0, 52, 58
1, 209829, Note_off_c, 0, 43, 65
1, 209832, Control_c, 0, 64, 127
1, 209838, Note_off_c, 0, 36, 62
1, 209838, Note_off_c, 0, 48, 65
1, 209853, Note_off_c, 0, 52, 68
1, 209875, Note_on_c, 0, 56, 95
1, 209876, Control_c, 0, 64, 108
1, 209887, Note_on_c, 0, 44, 74
1, 209891, Control_c, 0, 64, 65
1, 209896, Note_on_c, 0, 52, 64
1, 209905, Note_on_c, 0, 48, 63
1, 209906, Control_c, 0, 64, 42
1, 209908, Note_on_c, 0, 36, 62
1, 209917, Note_on_c, 0, 42, 48
1, 209921, Control_c, 0, 64, 0
1, 209933, Note_off_c, 0, 44, 0
1, 209943, Note_off_c, 0, 36, 50
1, 209950, Note_on_c, 0, 44, 25
1, 209956, Note_off_c, 0, 42, 0
1, 209956, Note_on_c, 0, 42, 29
1, 209965, Control_c, 0, 64, 21
1, 209980, Control_c, 0, 64, 42
1, 209995, Poly_aftertouch_c, 0, 40, 127
1, 209995, Control_c, 0, 64, 57
1, 210010, Control_c, 0, 64, 69
1, 210024, Control_c, 0, 64, 72
1, 210027, Note_on_c, 0, 36, 68
1, 210037, Poly_aftertouch_c, 0, 40, 0
1, 210039, Control_c, 0, 64, 72
1, 210054, Note_off_c, 0, 36, 66
1, 210054, Control_c, 0, 64, 70
1, 210069, Control_c, 0, 64, 67
1, 210084, Control_c, 0, 64, 64
1, 210099, Control_c, 0, 64, 63
1, 210102, Note_on_c, 0, 36, 71
1, 210179, Note_off_c, 0, 36, 59
1, 210180, Control_c, 0, 64, 64
1, 210185, Note_on_c, 0, 24, 65
1, 210195, Control_c, 0, 64, 65
1, 210210, Control_c, 0, 64, 67
1, 210220, Note_on_c, 0, 26, 43
1, 210224, Control_c, 0, 64, 68
1, 210230, Note_off_c, 0, 24, 58
1, 210239, Control_c, 0, 64, 69
1, 210254, Control_c, 0, 64, 70
1, 210261, Note_off_c, 0, 26, 44
1, 210277, Note_off_c, 0, 42, 40
1, 210291, Note_on_c, 0, 36, 13
1, 210299, Control_c, 0, 64, 69
1, 210304, Note_off_c, 0, 44, 39
1, 210311, Note_on_c, 0, 54, 34
1, 210329, Control_c, 0, 64, 69
1, 210343, Control_c, 0, 64, 68
1, 210347, Note_off_c, 0, 56, 61
1, 210348, Note_off_c, 0, 36, 0
1, 210358, Control_c, 0, 64, 68
1, 210359, Note_off_c, 0, 54, 45
1, 210364, Note_on_c, 0, 36, 36
1, 210364, Note_on_c, 0, 38, 37
1, 210366, Note_off_c, 0, 52, 63
1, 210373, Control_c, 0, 64, 67
1, 210377, Note_off_c, 0, 48, 40
1, 210402, Note_off_c, 0, 36, 56
1, 210403, Control_c, 0, 64, 66
1, 210407, Note_off_c, 0, 38, 47
1, 210416, Note_on_c, 0, 48, 56
1, 210417, Control_c, 0, 64, 65
1, 210432, Control_c, 0, 64, 64
1, 210447, Note_off_c, 0, 48, 65
1, 210447, Control_c, 0, 64, 63
1, 210461, Control_c, 0, 64, 62
1, 210491, Control_c, 0, 64, 62
1, 210492, Note_on_c, 0, 36, 53
1, 210516, Note_off_c, 0, 36, 59
1, 210554, Note_on_c, 0, 36, 56
1, 210596, Control_c, 0, 64, 62
1, 210611, Control_c, 0, 64, 63
1, 210626, Note_off_c, 0, 36, 59
1, 210644, Note_on_c, 0, 24, 71
1, 210655, Control_c, 0, 64, 62
1, 210670, Control_c, 0, 64, 59
1, 210684, Control_c, 0, 64, 51
1, 210699, Control_c, 0, 64, 41
1, 210703, Note_off_c, 0, 24, 63
1, 210714, Control_c, 0, 64, 29
1, 210729, Control_c, 0, 64, 21
1, 210737, Note_on_c, 0, 36, 60
1, 210737, Note_on_c, 0, 43, 80
1, 210744, Control_c, 0, 64, 19
1, 210767, Note_off_c, 0, 36, 63
1, 210810, Note_on_c, 0, 44, 82
1, 210814, Note_on_c, 0, 36, 67
1, 210816, Note_off_c, 0, 43, 60
1, 210817, Note_on_c, 0, 42, 78
1, 210818, Control_c, 0, 64, 20
1, 210832, Control_c, 0, 64, 20
1, 210862, Control_c, 0, 64, 21
1, 210877, Note_off_c, 0, 36, 63
1, 210877, Control_c, 0, 64, 22
1, 210899, Control_c, 0, 64, 23
1, 210904, Note_on_c, 0, 48, 48
1, 210914, Control_c, 0, 64, 23
1, 210934, Note_off_c, 0, 48, 58
1, 210975, Note_on_c, 0, 36, 31
1, 211005, Note_off_c, 0, 36, 48
1, 211033, Control_c, 0, 64, 24
1, 211054, Note_on_c, 0, 36, 31
1, 211095, Note_off_c, 0, 36, 51
1, 211105, Note_on_c, 0, 24, 67
1, 211107, Control_c, 0, 64, 24
1, 211121, Control_c, 0, 64, 25
1, 211136, Control_c, 0, 64, 26
1, 211166, Control_c, 0, 64, 26
1, 211168, Note_off_c, 0, 24, 62
1, 211181, Control_c, 0, 64, 27
1, 211191, Note_on_c, 0, 36, 56
1, 211211, Control_c, 0, 64, 27
1, 211225, Control_c, 0, 64, 28
1, 211240, Control_c, 0, 64, 29
1, 211241, Note_off_c, 0, 36, 62
1, 211255, Control_c, 0, 64, 31
1, 211270, Control_c, 0, 64, 32
1, 211281, Note_on_c, 0, 24, 49
1, 211311, Note_off_c, 0, 24, 52
1, 211348, Note_on_c, 0, 36, 49
1, 211388, Note_off_c, 0, 36, 63
1, 211411, Note_on_c, 0, 24, 53
1, 211449, Control_c, 0, 64, 32
1, 211458, Note_off_c, 0, 24, 64
1, 211492, Note_on_c, 0, 36, 52
1, 211522, Control_c, 0, 64, 33
1, 211542, Note_off_c, 0, 36, 62
1, 211552, Control_c, 0, 64, 33
1, 211567, Control_c, 0, 64, 34
1, 211572, Note_on_c, 0, 24, 58
1, 211581, Control_c, 0, 64, 34
1, 211596, Control_c, 0, 64, 35
1, 211611, Control_c, 0, 64, 35
1, 211617, Note_off_c, 0, 24, 62
1, 211626, Control_c, 0, 64, 36
1, 211648, Control_c, 0, 64, 36
1, 211663, Note_on_c, 0, 36, 53
1, 211663, Control_c, 0, 64, 37
1, 211704, Note_off_c, 0, 36, 63
1, 211723, Control_c, 0, 64, 37
1, 211729, Note_on_c, 0, 24, 55
1, 211738, Control_c, 0, 64, 38
1, 211753, Control_c, 0, 64, 40
1, 211768, Control_c, 0, 64, 41
1, 211775, Note_off_c, 0, 24, 63
1, 211783, Control_c, 0, 64, 43
1, 211797, Control_c, 0, 64, 44
1, 211809, Note_on_c, 0, 36, 50
1, 211812, Control_c, 0, 64, 46
1, 211827, Control_c, 0, 64, 47
1, 211841, Control_c, 0, 64, 48
1, 211853, Note_off_c, 0, 36, 61
1, 211856, Control_c, 0, 64, 50
1, 211871, Control_c, 0, 64, 51
1, 211885, Note_on_c, 0, 24, 56
1, 211886, Control_c, 0, 64, 52
1, 211930, Note_off_c, 0, 24, 62
1, 211977, Note_on_c, 0, 36, 42
1, 212027, Note_off_c, 0, 36, 52
1, 212051, Note_on_c, 0, 24, 52
1, 212054, Note_off_c, 0, 42, 44
1, 212096, Note_off_c, 0, 24, 62
1, 212153, Control_c, 0, 64, 52
1, 212156, Note_on_c, 0, 36, 34
1, 212162, Note_off_c, 0, 44, 57
1, 212186, Note_off_c, 0, 36, 50
1, 212198, Control_c, 0, 64, 53
1, 212206, Note_on_c, 0, 24, 56
1, 212251, Note_off_c, 0, 24, 58
1, 212257, Control_c, 0, 64, 52
1, 212272, Control_c, 0, 64, 51
1, 212280, Note_on_c, 0, 36, 43
1, 212287, Control_c, 0, 64, 50
1, 212302, Control_c, 0, 64, 49
1, 212317, Control_c, 0, 64, 48
1, 212331, Control_c, 0, 64, 47
1, 212341, Note_off_c, 0, 36, 59
1, 212346, Control_c, 0, 64, 46
1, 212361, Control_c, 0, 64, 45
1, 212363, Note_on_c, 0, 24, 51
1, 212376, Control_c, 0, 64, 44
1, 212398, Control_c, 0, 64, 43
1, 212408, Note_off_c, 0, 24, 55
1, 212412, Control_c, 0, 64, 42
1, 212426, Control_c, 0, 64, 41
1, 212441, Control_c, 0, 64, 40
1, 212446, Note_on_c, 0, 36, 29
1, 212456, Control_c, 0, 64, 39
1, 212470, Control_c, 0, 64, 38
1, 212485, Control_c, 0, 64, 36
1, 212490, Note_off_c, 0, 36, 49
1, 212500, Control_c, 0, 64, 34
1, 212515, Control_c, 0, 64, 32
1, 212519, Note_on_c, 0, 24, 52
1, 212530, Control_c, 0, 64, 29
1, 212544, Control_c, 0, 64, 26
1, 212559, Control_c, 0, 64, 20
1, 212570, Note_off_c, 0, 24, 60
1, 212574, Control_c, 0, 64, 14
1, 212589, Control_c, 0, 64, 8
1, 212604, Control_c, 0, 64, 0
1, 212606, Note_on_c, 0, 36, 46
1, 212638, Note_off_c, 0, 36, 54
1, 212676, Note_on_c, 0, 24, 54
1, 212687, Note_on_c, 0, 31, 54
1, 212734, Note_on_c, 0, 36, 55
1, 212741, Note_off_c, 0, 31, 62
1, 212756, Note_off_c, 0, 24, 59
1, 212773, Note_on_c, 0, 40, 73
1, 212814, Note_off_c, 0, 40, 67
1, 212875, Note_on_c, 0, 24, 54
1, 212881, Note_off_c, 0, 36, 51
1, 212977, Note_off_c, 0, 24, 57
1, 213008, Note_on_c, 0, 36, 34
1, 213200, Note_on_c, 0, 24, 46
1, 213221, Note_off_c, 0, 36, 42
1, 213249, Control_c, 0, 64, 8
1, 213264, Control_c, 0, 64, 15
1, 213279, Control_c, 0, 64, 21
1, 213293, Control_c, 0, 64, 27
1, 213308, Control_c, 0, 64, 33
1, 213323, Control_c, 0, 64, 41
1, 213338, Control_c, 0, 64, 51
1, 213353, Control_c, 0, 64, 62
1, 213367, Control_c, 0, 64, 72
1, 213382, Control_c, 0, 64, 90
1, 213397, Control_c, 0, 64, 108
1, 213411, Control_c, 0, 64, 115
1, 213441, Control_c, 0, 64, 119
1, 213456, Control_c, 0, 64, 127
1, 213676, Note_off_c, 0, 24, 37
1, 213691, Note_on_c, 0, 25, 31
1, 213856, Note_off_c, 0, 25, 39
1, 213858, Note_on_c, 0, 24, 35
1, 213972, Note_off_c, 0, 24, 58
1, 214002, Note_on_c, 0, 25, 45
1, 214085, Note_off_c, 0, 25, 52
1, 214125, Note_on_c, 0, 24, 39
1, 214177, Note_off_c, 0, 24, 56
1, 214229, Note_on_c, 0, 25, 47
1, 214281, Note_off_c, 0, 25, 57
1, 214323, Note_on_c, 0, 24, 32
1, 214371, Note_off_c, 0, 24, 60
1, 214409, Note_on_c, 0, 25, 45
1, 214453, Note_off_c, 0, 25, 60
1, 214484, Note_on_c, 0, 24, 45
1, 214487, Control_c, 0, 67, 123
1, 214501, Control_c, 0, 67, 116
1, 214516, Control_c, 0, 67, 105
1, 214531, Control_c, 0, 67, 92
1, 214538, Note_off_c, 0, 24, 59
1, 214546, Control_c, 0, 67, 74
1, 214561, Control_c, 0, 67, 57
1, 214563, Note_on_c, 0, 25, 51
1, 214576, Control_c, 0, 67, 40
1, 214591, Control_c, 0, 67, 25
1, 214606, Control_c, 0, 67, 12
1, 214613, Note_off_c, 0, 25, 60
1, 214628, Control_c, 0, 67, 0
1, 214660, Note_on_c, 0, 24, 46
1, 214699, Note_off_c, 0, 24, 61
1, 214728, Note_on_c, 0, 25, 56
1, 214768, Note_off_c, 0, 25, 61
1, 214794, Note_on_c, 0, 24, 52
1, 214846, Note_off_c, 0, 24, 59
1, 214879, Note_on_c, 0, 25, 49
1, 214915, Note_off_c, 0, 25, 51
1, 214940, Note_on_c, 0, 24, 48
1, 214977, Note_off_c, 0, 24, 61
1, 215000, Note_on_c, 0, 25, 57
1, 215037, Note_off_c, 0, 25, 62
1, 215073, Note_on_c, 0, 24, 53
1, 215119, Note_off_c, 0, 24, 57
1, 215140, Note_on_c, 0, 25, 52
1, 215169, Note_off_c, 0, 25, 55
1, 215187, Note_on_c, 0, 24, 46
1, 215242, Note_off_c, 0, 24, 57
1, 215248, Note_on_c, 0, 25, 58
1, 215287, Note_off_c, 0, 25, 61
1, 215310, Note_on_c, 0, 24, 45
1, 215368, Note_off_c, 0, 24, 60
1, 215396, Note_on_c, 0, 25, 55
1, 215425, Note_off_c, 0, 25, 59
1, 215443, Note_on_c, 0, 24, 45
1, 215502, Note_on_c, 0, 25, 62
1, 215504, Note_off_c, 0, 24, 58
1, 215540, Note_off_c, 0, 25, 61
1, 215572, Note_on_c, 0, 24, 34
1, 215608, Note_on_c, 0, 48, 94
1, 215618, Note_on_c, 0, 36, 76
1, 215629, Note_on_c, 0, 25, 56
1, 215633, Note_off_c, 0, 24, 55
1, 215652, Note_on_c, 0, 46, 44
1, 215675, Note_off_c, 0, 25, 59
1, 215686, Note_off_c, 0, 46, 53
1, 215717, Note_on_c, 0, 24, 34
1, 215760, Note_off_c, 0, 24, 54
1, 215763, Note_on_c, 0, 25, 58
1, 215799, Note_off_c, 0, 25, 62
1, 215825, Note_on_c, 0, 24, 47
1, 215873, Note_off_c, 0, 24, 61
1, 215876, Note_on_c, 0, 25, 61
1, 215915, Note_off_c, 0, 25, 61
1, 215938, Note_on_c, 0, 24, 49
1, 215974, Note_off_c, 0, 24, 60
1, 215980, Note_on_c, 0, 25, 72
1, 216021, Note_off_c, 0, 25, 61
1, 216040, Note_on_c, 0, 24, 62
1, 216076, Note_off_c, 0, 36, 47
1, 216085, Note_off_c, 0, 48, 62
1, 216085, Note_off_c, 0, 24, 63
1, 216085, Note_on_c, 0, 25, 78
1, 216138, Note_off_c, 0, 25, 62
1, 216161, Note_on_c, 0, 24, 55
1, 216195, Note_on_c, 0, 25, 74
1, 216196, Note_off_c, 0, 24, 63
1, 216240, Note_off_c, 0, 25, 61
1, 216266, Note_on_c, 0, 24, 67
1, 216297, Note_on_c, 0, 25, 75
1, 216306, Note_off_c, 0, 24, 63
1, 216356, Note_off_c, 0, 25, 62
1, 216376, Note_on_c, 0, 24, 71
1, 216405, Note_on_c, 0, 49, 98
1, 216408, Note_on_c, 0, 37, 96
1, 216410, Note_on_c, 0, 25, 67
1, 216424, Note_off_c, 0, 24, 60
1, 216470, Note_off_c, 0, 25, 60
1, 216490, Note_on_c, 0, 24, 61
1, 216538, Note_on_c, 0, 26, 81
1, 216544, Note_off_c, 0, 24, 62
1, 216613, Note_off_c, 0, 26, 60
1, 216614, Note_on_c, 0, 24, 67
1, 216626, Note_off_c, 0, 37, 61
1, 216657, Note_off_c, 0, 24, 63
1, 216689, Note_on_c, 0, 37, 64
1, 216717, Note_on_c, 0, 30, 39
1, 216720, Note_off_c, 0, 37, 65
1, 216727, Note_on_c, 0, 24, 78
1, 216737, Note_off_c, 0, 49, 61
1, 216747, Note_off_c, 0, 30, 50
1, 216782, Note_off_c, 0, 24, 62
1, 216794, Note_on_c, 0, 37, 81
1, 216833, Note_off_c, 0, 37, 62
1, 216842, Note_on_c, 0, 24, 78
1, 216845, Note_on_c, 0, 29, 27
1, 216911, Note_off_c, 0, 24, 60
1, 216916, Note_on_c, 0, 37, 81
1, 216960, Note_on_c, 0, 24, 68
1, 216969, Note_off_c, 0, 37, 60
1, 216988, Note_off_c, 0, 29, 0
1, 217022, Note_on_c, 0, 37, 84
1, 217024, Note_off_c, 0, 24, 60
1, 217077, Note_on_c, 0, 24, 79
1, 217080, Note_off_c, 0, 37, 62
1, 217120, Poly_aftertouch_c, 0, 29, 0
1, 217137, Note_off_c, 0, 24, 61
1, 217141, Note_on_c, 0, 37, 85
1, 217171, Note_on_c, 0, 48, 111
1, 217171, Note_on_c, 0, 60, 102
1, 217195, Note_on_c, 0, 24, 79
1, 217196, Note_on_c, 0, 58, 69
1, 217196, Note_off_c, 0, 37, 60
1, 217215, Note_off_c, 0, 58, 60
1, 217250, Note_off_c, 0, 24, 63
1, 217254, Note_on_c, 0, 37, 90
1, 217302, Note_off_c, 0, 37, 63
1, 217316, Note_on_c, 0, 24, 87
1, 217370, Note_off_c, 0, 24, 61
1, 217372, Note_on_c, 0, 37, 95
1, 217426, Note_off_c, 0, 37, 61
1, 217429, Note_on_c, 0, 24, 79
1, 217441, Poly_aftertouch_c, 0, 29, 127
1, 217478, Note_on_c, 0, 37, 95
1, 217482, Note_off_c, 0, 24, 59
1, 217537, Note_off_c, 0, 37, 62
1, 217540, Note_on_c, 0, 24, 84
1, 217579, Poly_aftertouch_c, 0, 29, 0
1, 217587, Note_on_c, 0, 37, 92
1, 217599, Note_on_c, 0, 29, 24
1, 217605, Note_off_c, 0, 24, 59
1, 217647, Note_off_c, 0, 37, 65
1, 217656, Note_on_c, 0, 24, 76
1, 217664, Note_off_c, 0, 29, 51
1, 217710, Note_on_c, 0, 37, 101
1, 217721, Note_off_c, 0, 24, 57
1, 217735, Note_on_c, 0, 29, 48
1, 217759, Note_off_c, 0, 37, 67
1, 217766, Note_on_c, 0, 30, 3
1, 217774, Note_on_c, 0, 24, 76
1, 217775, Note_off_c, 0, 29, 57
1, 217778, Note_off_c, 0, 30, 0
1, 217823, Note_on_c, 0, 37, 99
1, 217829, Poly_aftertouch_c, 0, 30, 0
1, 217833, Note_off_c, 0, 24, 61
1, 217844, Note_on_c, 0, 30, 27
1, 217871, Note_off_c, 0, 37, 65
1, 217885, Note_off_c, 0, 30, 49
1, 217888, Note_on_c, 0, 24, 78
1, 217905, Poly_aftertouch_c, 0, 29, 127
1, 217931, Note_on_c, 0, 37, 103
1, 217941, Poly_aftertouch_c, 0, 29, 0
1, 217949, Note_off_c, 0, 24, 55
1, 217963, Note_on_c, 0, 29, 15
1, 217978, Note_off_c, 0, 37, 68
1, 218007, Note_off_c, 0, 29, 51
1, 218009, Note_on_c, 0, 24, 65
1, 218015, Note_on_c, 0, 23, 57
1, 218046, Note_on_c, 0, 37, 110
1, 218053, Note_off_c, 0, 23, 44
1, 218091, Note_off_c, 0, 37, 71
1, 218129, Note_on_c, 0, 25, 57
1, 218137, Note_off_c, 0, 24, 62
1, 218169, Note_off_c, 0, 25, 51
1, 218291, Note_on_c, 0, 22, 105
1, 218335, Control_c, 0, 64, 89
1, 218349, Control_c, 0, 64, 55
1, 218364, Control_c, 0, 64, 0
1, 218383, Poly_aftertouch_c, 0, 23, 0
1, 218461, Control_c, 0, 64, 60
1, 218475, Control_c, 0, 64, 127
1, 218490, Note_off_c, 0, 60, 60
1, 218494, Note_on_c, 0, 34, 103
1, 218521, Note_off_c, 0, 22, 62
1, 218528, Note_off_c, 0, 48, 58
1, 218541, Note_off_c, 0, 34, 64
1, 218572, Poly_aftertouch_c, 0, 32, 0
1, 218606, Poly_aftertouch_c, 0, 32, 0
1, 218627, Note_on_c, 0, 46, 110
1, 218658, Note_off_c, 0, 46, 64
1, 218712, Note_on_c, 0, 48, 90
1, 218773, Note_on_c, 0, 49, 87
1, 218819, Note_off_c, 0, 48, 62
1, 218830, Note_off_c, 0, 49, 68
1, 218830, Note_on_c, 0, 53, 84
1, 218881, Note_off_c, 0, 53, 68
1, 218897, Note_on_c, 0, 61, 92
1, 218965, Note_on_c, 0, 62, 82
1, 219044, Note_on_c, 0, 65, 92
1, 219075, Note_off_c, 0, 61, 55
1, 219116, Note_on_c, 0, 72, 94
1, 219137, Note_off_c, 0, 62, 63
1, 219246, Note_on_c, 0, 84, 106
1, 219267, Note_off_c, 0, 72, 60
1, 219341, Poly_aftertouch_c, 0, 77, 0
1, 219362, Note_on_c, 0, 77, 49
1, 219364, Note_off_c, 0, 65, 33
1, 219375, Note_off_c, 0, 84, 61
1, 219446, Note_on_c, 0, 73, 69
1, 219446, Note_off_c, 0, 77, 60
1, 219477, Note_on_c, 0, 61, 62
1, 219478, Note_on_c, 0, 53, 59
1, 219478, Note_on_c, 0, 65, 68
1, 219516, Note_off_c, 0, 73, 63
1, 219530, Note_on_c, 0, 72, 77
1, 219607, Note_on_c, 0, 73, 83
1, 219664, Note_off_c, 0, 72, 62
1, 219665, Note_on_c, 0, 82, 98
1, 219670, Control_c, 0, 64, 90
1, 219672, Note_off_c, 0, 53, 60
1, 219676, Note_on_c, 0, 58, 79
1, 219685, Control_c, 0, 64, 55
1, 219686, Note_off_c, 0, 73, 66
1, 219700, Control_c, 0, 64, 0
1, 219729, Control_c, 0, 64, 40
1, 219732, Note_on_c, 0, 77, 81
1, 219744, Control_c, 0, 64, 65
1, 219759, Control_c, 0, 64, 127
1, 219760, Note_off_c, 0, 82, 65
1, 219781, Note_on_c, 0, 73, 86
1, 219820, Note_off_c, 0, 65, 61
1, 219841, Note_on_c, 0, 80, 97
1, 219848, Note_on_c, 0, 56, 77
1, 219849, Note_off_c, 0, 73, 65
1, 219855, Note_off_c, 0, 61, 65
1, 219877, Note_off_c, 0, 58, 63
1, 219894, Note_off_c, 0, 56, 67
1, 219907, Note_on_c, 0, 78, 21
1, 219922, Note_on_c, 0, 73, 74
1, 219945, Note_off_c, 0, 78, 56
1, 219964, Note_off_c, 0, 80, 61
1, 219968, Note_off_c, 0, 77, 45
1, 219984, Note_on_c, 0, 68, 78
1, 219987, Note_off_c, 0, 73, 62
1, 220017, Note_off_c, 0, 68, 57
1, 220064, Note_on_c, 0, 34, 71
1, 220109, Note_on_c, 0, 68, 54
1, 220141, Note_off_c, 0, 34, 63
1, 220151, Note_off_c, 0, 68, 0
1, 220151, Note_on_c, 0, 68, 28
1, 220181, Note_on_c, 0, 63, 57
1, 220267, Note_off_c, 0, 68, 42
1, 220273, Note_on_c, 0, 56, 51
1, 220314, Note_off_c, 0, 56, 67
1, 220339, Note_off_c, 0, 63, 64
1, 220347, Note_on_c, 0, 67, 87
1, 220353, Note_on_c, 0, 55, 66
1, 220450, Note_on_c, 0, 61, 70
1, 220469, Note_off_c, 0, 55, 63
1, 220525, Note_on_c, 0, 56, 51
1, 220547, Note_off_c, 0, 56, 62
1, 220580, Note_off_c, 0, 61, 61
1, 220594, Note_on_c, 0, 44, 50
1, 220597, Note_on_c, 0, 55, 51
1, 220601, Note_on_c, 0, 49, 57
1, 220651, Note_on_c, 0, 56, 54
1, 220661, Note_off_c, 0, 67, 48
1, 220736, Note_off_c, 0, 55, 36
1, 220760, Note_off_c, 0, 56, 65
1, 220765, Note_on_c, 0, 61, 49
1, 220889, Note_on_c, 0, 65, 73
1, 220894, Note_off_c, 0, 61, 65
1, 220899, Control_c, 0, 64, 71
1, 220902, Note_on_c, 0, 53, 55
1, 220914, Control_c, 0, 64, 56
1, 220929, Control_c, 0, 64, 31
1, 220945, Control_c, 0, 64, 0
1, 220960, Control_c, 0, 64, 8
1, 220974, Control_c, 0, 64, 31
1, 220989, Control_c, 0, 64, 52
1, 221004, Note_on_c, 0, 61, 69
1, 221004, Control_c, 0, 64, 83
1, 221013, Note_off_c, 0, 53, 61
1, 221018, Control_c, 0, 64, 127
1, 221041, Note_off_c, 0, 65, 64
1, 221081, Note_off_c, 0, 49, 63
1, 221090, Note_off_c, 0, 61, 65
1, 221098, Note_on_c, 0, 56, 56
1, 221099, Note_off_c, 0, 44, 57
1, 221131, Note_off_c, 0, 56, 66
1, 221175, Note_on_c, 0, 53, 36
1, 221209, Note_off_c, 0, 53, 56
1, 221256, Control_c, 0, 67, 9
1, 221271, Control_c, 0, 67, 11
1, 221286, Control_c, 0, 67, 13
1, 221300, Control_c, 0, 67, 17
1, 221305, Note_on_c, 0, 50, 10
1, 221315, Control_c, 0, 67, 21
1, 221330, Control_c, 0, 67, 25
1, 221345, Control_c, 0, 67, 28
1, 221356, Note_off_c, 0, 50, 51
1, 221360, Control_c, 0, 67, 32
1, 221382, Control_c, 0, 67, 38
1, 221382, Note_on_c, 0, 44, 48
1, 221397, Control_c, 0, 67, 47
1, 221412, Control_c, 0, 67, 60
1, 221426, Control_c, 0, 67, 73
1, 221441, Control_c, 0, 67, 88
1, 221456, Control_c, 0, 67, 102
1, 221471, Control_c, 0, 67, 115
1, 221486, Control_c, 0, 67, 127
1, 221591, Note_off_c, 0, 44, 58
1, 221614, Note_on_c, 0, 60, 75
1, 221648, Note_on_c, 0, 48, 43
1, 221650, Note_on_c, 0, 50, 38
1, 221663, Control_c, 0, 64, 93
1, 221678, Control_c, 0, 64, 71
1, 221692, Control_c, 0, 64, 66
1, 221707, Control_c, 0, 64, 67
1, 221722, Note_off_c, 0, 50, 56
1, 221722, Control_c, 0, 64, 72
1, 221737, Control_c, 0, 64, 93
1, 221753, Control_c, 0, 64, 127
1, 221884, Note_off_c, 0, 60, 64
1, 221893, Note_on_c, 0, 44, 51
1, 221949, Note_off_c, 0, 48, 40
1, 222010, Note_off_c, 0, 44, 59
1, 222024, Note_on_c, 0, 41, 49
1, 222100, Note_off_c, 0, 41, 62
1, 222179, Note_on_c, 0, 36, 44
1, 222249, Note_off_c, 0, 36, 48
1, 222312, Note_on_c, 0, 32, 44
1, 222513, Note_off_c, 0, 32, 40
1, 222521, Note_on_c, 0, 29, 41
1, 222855, Note_off_c, 0, 29, 33
1, 222993, Note_on_c, 0, 31, 53
1, 222998, Control_c, 0, 64, 103
1, 223000, Note_on_c, 0, 21, 47
1, 223013, Control_c, 0, 64, 77
1, 223028, Control_c, 0, 64, 64
1, 223043, Control_c, 0, 64, 53
1, 223058, Control_c, 0, 64, 31
1, 223072, Control_c, 0, 64, 0
1, 223146, Control_c, 0, 64, 26
1, 223161, Control_c, 0, 64, 39
1, 223176, Control_c, 0, 64, 51
1, 223191, Control_c, 0, 64, 62
1, 223206, Control_c, 0, 64, 80
1, 223221, Control_c, 0, 64, 104
1, 223224, Note_off_c, 0, 31, 55
1, 223236, Control_c, 0, 64, 113
1, 223313, Note_off_c, 0, 21, 46
1, 223324, Control_c, 0, 64, 114
1, 223340, Control_c, 0, 64, 117
1, 223355, Control_c, 0, 64, 119
1, 223459, Control_c, 0, 64, 114
1, 223474, Control_c, 0, 64, 100
1, 223488, Control_c, 0, 64, 82
1, 223497, Note_on_c, 0, 32, 49
1, 223503, Control_c, 0, 64, 68
1, 223517, Note_on_c, 0, 22, 48
1, 223518, Control_c, 0, 64, 58
1, 223533, Control_c, 0, 64, 41
1, 223548, Control_c, 0, 64, 0
1, 223607, Control_c, 0, 64, 26
1, 223629, Control_c, 0, 64, 39
1, 223644, Control_c, 0, 64, 51
1, 223658, Control_c, 0, 64, 63
1, 223673, Control_c, 0, 64, 78
1, 223678, Note_off_c, 0, 22, 39
1, 223688, Control_c, 0, 64, 90
1, 223701, Note_off_c, 0, 32, 57
1, 223702, Control_c, 0, 64, 91
1, 223791, Control_c, 0, 64, 90
1, 223806, Control_c, 0, 64, 90
1, 223820, Control_c, 0, 64, 89
1, 223835, Control_c, 0, 64, 88
1, 223850, Control_c, 0, 64, 86
1, 223865, Control_c, 0, 64, 84
1, 223880, Control_c, 0, 64, 83
1, 223895, Control_c, 0, 64, 82
1, 223910, Control_c, 0, 64, 80
1, 223924, Control_c, 0, 64, 79
1, 223939, Control_c, 0, 64, 78
1, 223954, Control_c, 0, 64, 77
1, 223969, Control_c, 0, 64, 76
1, 223984, Control_c, 0, 64, 76
1, 224013, Control_c, 0, 64, 75
1, 224043, Control_c, 0, 64, 75
1, 224058, Control_c, 0, 64, 74
1, 224073, Control_c, 0, 64, 72
1, 224087, Control_c, 0, 64, 69
1, 224100, Note_on_c, 0, 27, 44
1, 224102, Control_c, 0, 64, 64
1, 224103, Note_on_c, 0, 39, 42
1, 224117, Control_c, 0, 64, 58
1, 224132, Control_c, 0, 64, 47
1, 224148, Control_c, 0, 64, 23
1, 224162, Control_c, 0, 64, 0
1, 224237, Control_c, 0, 64, 24
1, 224251, Control_c, 0, 64, 36
1, 224264, Note_off_c, 0, 27, 45
1, 224266, Control_c, 0, 64, 44
1, 224281, Control_c, 0, 64, 53
1, 224296, Control_c, 0, 64, 59
1, 224310, Control_c, 0, 64, 63
1, 224325, Control_c, 0, 64, 64
1, 224339, Note_off_c, 0, 39, 40
1, 224392, Control_c, 0, 64, 64
1, 224407, Control_c, 0, 64, 63
1, 224422, Control_c, 0, 64, 63
1, 224437, Control_c, 0, 64, 62
1, 224451, Control_c, 0, 64, 62
1, 224466, Control_c, 0, 64, 61
1, 224481, Control_c, 0, 64, 60
1, 224496, Control_c, 0, 64, 58
1, 224511, Control_c, 0, 64, 57
1, 224525, Control_c, 0, 64, 55
1, 224540, Control_c, 0, 64, 54
1, 224555, Control_c, 0, 64, 53
1, 224569, Control_c, 0, 64, 51
1, 224584, Control_c, 0, 64, 50
1, 224599, Control_c, 0, 64, 48
1, 224614, Control_c, 0, 64, 47
1, 224629, Control_c, 0, 64, 47
1, 224643, Control_c, 0, 64, 46
1, 224658, Control_c, 0, 64, 45
1, 224673, Control_c, 0, 64, 45
1, 224688, Control_c, 0, 64, 44
1, 224703, Control_c, 0, 64, 43
1, 224717, Control_c, 0, 64, 43
1, 224732, Control_c, 0, 64, 42
1, 224747, Control_c, 0, 64, 41
1, 224762, Control_c, 0, 64, 40
1, 224777, Control_c, 0, 64, 39
1, 224792, Control_c, 0, 64, 37
1, 224807, Control_c, 0, 64, 36
1, 224822, Control_c, 0, 64, 34
1, 224836, Control_c, 0, 64, 32
1, 224851, Control_c, 0, 64, 31
1, 224866, Control_c, 0, 64, 30
1, 224881, Control_c, 0, 64, 29
1, 224895, Control_c, 0, 64, 28
1, 224910, Control_c, 0, 64, 26
1, 224925, Control_c, 0, 64, 24
1, 224941, Control_c, 0, 64, 23
1, 224956, Control_c, 0, 64, 22
1, 224971, Control_c, 0, 64, 20
1, 224985, Control_c, 0, 64, 18
1, 225000, Control_c, 0, 64, 16
1, 225015, Control_c, 0, 64, 10
1, 225030, Control_c, 0, 64, 0
1, 225274, Control_c, 0, 64, 18
1, 225289, Control_c, 0, 64, 27
1, 225304, Control_c, 0, 64, 34
1, 225319, Control_c, 0, 64, 40
1, 225334, Control_c, 0, 64, 46
1, 225348, Control_c, 0, 64, 53
1, 225363, Control_c, 0, 64, 59
1, 225378, Control_c, 0, 64, 64
1, 225392, Control_c, 0, 64, 69
1, 225407, Control_c, 0, 64, 71
1, 225422, Control_c, 0, 64, 71
1, 225452, Control_c, 0, 64, 72
1, 225481, Control_c, 0, 64, 73
1, 225496, Control_c, 0, 64, 74
1, 225510, Control_c, 0, 64, 77
1, 225525, Control_c, 0, 64, 80
1, 225540, Control_c, 0, 64, 82
1, 225555, Control_c, 0, 64, 83
1, 225570, Control_c, 0, 64, 84
1, 225585, Control_c, 0, 64, 85
1, 225600, Control_c, 0, 64, 86
1, 225615, Control_c, 0, 64, 88
1, 225629, Control_c, 0, 64, 90
1, 225644, Control_c, 0, 64, 92
1, 225659, Control_c, 0, 64, 93
1, 225674, Control_c, 0, 64, 94
1, 225689, Control_c, 0, 64, 95
1, 225704, Control_c, 0, 64, 95
1, 225718, Control_c, 0, 64, 96
1, 225734, Control_c, 0, 64, 96
1, 225764, Control_c, 0, 64, 97
1, 225792, Note_on_c, 0, 64, 72
1, 225793, Control_c, 0, 64, 97
1, 225802, Note_on_c, 0, 59, 62
1, 225807, Note_on_c, 0, 50, 53
1, 225807, Note_on_c, 0, 51, 64
1, 225808, Note_on_c, 0, 56, 56
1, 225811, Note_on_c, 0, 52, 61
1, 225838, Control_c, 0, 64, 98
1, 225844, Note_off_c, 0, 51, 65
1, 225903, Note_on_c, 0, 51, 40
1, 225948, Control_c, 0, 64, 98
1, 225952, Note_off_c, 0, 51, 0
1, 225965, Note_on_c, 0, 51, 51
1, 226034, Note_off_c, 0, 51, 0
1, 226055, Note_on_c, 0, 51, 20
1, 226105, Note_off_c, 0, 51, 0
1, 226122, Note_on_c, 0, 51, 41
1, 226173, Note_off_c, 0, 51, 0
1, 226193, Note_on_c, 0, 51, 32
1, 226235, Note_off_c, 0, 51, 61
1, 226275, Note_on_c, 0, 51, 42
1, 226322, Note_off_c, 0, 51, 0
1, 226342, Note_on_c, 0, 51, 36
1, 226390, Note_off_c, 0, 51, 63
1, 226422, Control_c, 0, 64, 98
1, 226435, Note_on_c, 0, 51, 47
1, 226500, Note_off_c, 0, 51, 0
1, 226516, Note_on_c, 0, 51, 39
1, 226556, Control_c, 0, 64, 97
1, 226560, Note_off_c, 0, 51, 0
1, 226585, Note_on_c, 0, 51, 34
1, 226586, Control_c, 0, 64, 97
1, 226660, Note_off_c, 0, 51, 0
1, 226682, Note_on_c, 0, 51, 35
1, 226722, Note_off_c, 0, 51, 0
1, 226741, Control_c, 0, 64, 96
1, 226749, Note_on_c, 0, 51, 37
1, 226812, Note_off_c, 0, 51, 0
1, 226832, Note_on_c, 0, 51, 29
1, 226885, Note_off_c, 0, 51, 0
1, 226901, Note_on_c, 0, 51, 41
1, 226963, Note_off_c, 0, 51, 0
1, 226982, Note_on_c, 0, 51, 31
1, 227033, Note_off_c, 0, 51, 0
1, 227051, Note_on_c, 0, 51, 39
1, 227110, Note_off_c, 0, 51, 0
1, 227126, Note_on_c, 0, 51, 34
1, 227178, Note_off_c, 0, 51, 0
1, 227195, Note_on_c, 0, 51, 38
1, 227246, Note_off_c, 0, 51, 0
1, 227265, Note_on_c, 0, 51, 31
1, 227322, Note_off_c, 0, 51, 0
1, 227340, Note_on_c, 0, 51, 41
1, 227382, Note_off_c, 0, 51, 57
1, 227439, Note_on_c, 0, 51, 25
1, 227466, Note_off_c, 0, 51, 0
1, 227482, Poly_aftertouch_c, 0, 51, 0
1, 227502, Note_on_c, 0, 51, 33
1, 227560, Note_off_c, 0, 51, 0
1, 227579, Note_on_c, 0, 51, 28
1, 227650, Note_off_c, 0, 51, 0
1, 227664, Note_on_c, 0, 51, 32
1, 227727, Note_off_c, 0, 51, 0
1, 227727, Note_on_c, 0, 51, 11
1, 227727, Control_c, 0, 64, 97
1, 227782, Note_off_c, 0, 51, 0
1, 227800, Note_on_c, 0, 51, 39
1, 227858, Note_off_c, 0, 51, 0
1, 227881, Note_on_c, 0, 51, 18
1, 227919, Control_c, 0, 64, 97
1, 227943, Note_off_c, 0, 51, 0
1, 227960, Note_on_c, 0, 51, 34
1, 228010, Note_off_c, 0, 51, 0
1, 228036, Note_on_c, 0, 51, 22
1, 228053, Control_c, 0, 64, 98
1, 228088, Note_off_c, 0, 51, 0
1, 228098, Control_c, 0, 64, 98
1, 228115, Note_on_c, 0, 51, 36
1, 228119, Control_c, 0, 64, 99
1, 228165, Control_c, 0, 64, 99
1, 228190, Note_off_c, 0, 51, 0
1, 228190, Note_on_c, 0, 51, 29
1, 228224, Control_c, 0, 64, 100
1, 228248, Note_off_c, 0, 51, 0
1, 228265, Note_on_c, 0, 51, 38
1, 228269, Control_c, 0, 64, 100
1, 228283, Control_c, 0, 64, 101
1, 228298, Control_c, 0, 64, 101
1, 228306, Note_off_c, 0, 64, 52
1, 228326, Note_off_c, 0, 51, 0
1, 228328, Control_c, 0, 64, 102
1, 228337, Note_off_c, 0, 59, 50
1, 228342, Control_c, 0, 64, 103
1, 228345, Note_on_c, 0, 51, 31
1, 228357, Control_c, 0, 64, 103
1, 228363, Note_off_c, 0, 56, 42
1, 228372, Control_c, 0, 64, 104
1, 228387, Control_c, 0, 64, 105
1, 228399, Note_off_c, 0, 51, 0
1, 228402, Control_c, 0, 64, 105
1, 228416, Note_on_c, 0, 51, 43
1, 228417, Control_c, 0, 64, 106
1, 228432, Control_c, 0, 64, 107
1, 228449, Note_off_c, 0, 52, 36
1, 228461, Control_c, 0, 64, 108
1, 228463, Note_off_c, 0, 50, 20
1, 228491, Control_c, 0, 64, 108
1, 228506, Control_c, 0, 64, 109
1, 228521, Control_c, 0, 64, 110
1, 228535, Control_c, 0, 64, 111
1, 228542, Note_off_c, 0, 51, 0
1, 228550, Control_c, 0, 64, 113
1, 228564, Note_on_c, 0, 51, 39
1, 228580, Control_c, 0, 64, 114
1, 228595, Control_c, 0, 64, 115
1, 228624, Control_c, 0, 64, 117
1, 228639, Control_c, 0, 64, 119
1, 228654, Control_c, 0, 64, 122
1, 228669, Control_c, 0, 64, 127
1, 228682, Note_off_c, 0, 51, 59
1, 228727, Note_on_c, 0, 51, 44
1, 228789, Note_off_c, 0, 51, 0
1, 228809, Note_on_c, 0, 51, 28
1, 228852, Note_off_c, 0, 51, 54
1, 228894, Note_on_c, 0, 59, 52
1, 228906, Note_on_c, 0, 56, 45
1, 228922, Note_on_c, 0, 52, 38
1, 228932, Note_on_c, 0, 50, 26
1, 228998, Poly_aftertouch_c, 0, 51, 127
1, 229039, Poly_aftertouch_c, 0, 51, 0
1, 229076, Poly_aftertouch_c, 0, 51, 127
1, 229078, Note_on_c, 0, 51, 20
1, 229136, Note_off_c, 0, 51, 0
1, 229173, Poly_aftertouch_c, 0, 51, 127
1, 229189, Poly_aftertouch_c, 0, 51, 0
1, 229226, Poly_aftertouch_c, 0, 51, 127
1, 229306, Note_on_c, 0, 51, 12
1, 229347, Note_off_c, 0, 51, 0
1, 229376, Note_on_c, 0, 51, 34
1, 229445, Note_off_c, 0, 51, 0
1, 229466, Note_on_c, 0, 51, 21
1, 229505, Note_off_c, 0, 51, 0
1, 229538, Note_on_c, 0, 51, 29
1, 229598, Note_off_c, 0, 51, 0
1, 229635, Note_on_c, 0, 51, 7
1, 229701, Note_off_c, 0, 51, 0
1, 229701, Note_on_c, 0, 51, 33
1, 230044, Note_off_c, 0, 51, 0
1, 230044, Note_on_c, 0, 51, 15
1, 230128, Note_off_c, 0, 51, 0
1, 230155, Note_on_c, 0, 51, 12
1, 230252, Note_off_c, 0, 51, 0
1, 230252, Note_on_c, 0, 51, 26
1, 230324, Note_off_c, 0, 51, 0
1, 230345, Control_c, 0, 64, 119
1, 230367, Control_c, 0, 64, 113
1, 230369, Poly_aftertouch_c, 0, 51, 127
1, 230369, Note_on_c, 0, 51, 15
1, 230381, Control_c, 0, 64, 108
1, 230396, Control_c, 0, 64, 105
1, 230411, Control_c, 0, 64, 101
1, 230426, Control_c, 0, 64, 98
1, 230441, Control_c, 0, 64, 96
1, 230455, Control_c, 0, 64, 93
1, 230462, Note_off_c, 0, 51, 0
1, 230462, Note_on_c, 0, 51, 6
1, 230470, Control_c, 0, 64, 90
1, 230485, Control_c, 0, 64, 88
1, 230500, Control_c, 0, 64, 85
1, 230514, Control_c, 0, 64, 83
1, 230530, Control_c, 0, 64, 81
1, 230545, Control_c, 0, 64, 79
1, 230560, Control_c, 0, 64, 76
1, 230575, Control_c, 0, 64, 75
1, 230590, Control_c, 0, 64, 73
1, 230604, Control_c, 0, 64, 72
1, 230619, Control_c, 0, 64, 71
1, 230634, Control_c, 0, 64, 70
1, 230649, Control_c, 0, 64, 68
1, 230664, Control_c, 0, 64, 67
1, 230678, Control_c, 0, 64, 66
1, 230693, Control_c, 0, 64, 64
1, 230708, Control_c, 0, 64, 63
1, 230723, Control_c, 0, 64, 62
1, 230737, Control_c, 0, 64, 60
1, 230752, Control_c, 0, 64, 58
1, 230767, Control_c, 0, 64, 57
1, 230782, Control_c, 0, 64, 55
1, 230797, Control_c, 0, 64, 54
1, 230811, Control_c, 0, 64, 53
1, 230816, Note_off_c, 0, 52, 35
1, 230826, Control_c, 0, 64, 53
1, 230841, Control_c, 0, 64, 52
1, 230866, Note_off_c, 0, 51, 34
1, 230871, Control_c, 0, 64, 52
1, 230877, Note_off_c, 0, 50, 26
1, 230879, Note_off_c, 0, 56, 37
1, 230885, Control_c, 0, 64, 51
1, 230900, Control_c, 0, 64, 50
1, 230911, Note_off_c, 0, 59, 28
1, 230915, Control_c, 0, 64, 50
1, 230930, Control_c, 0, 64, 49
1, 230959, Control_c, 0, 64, 49
1, 231019, Control_c, 0, 64, 48
1, 231034, Control_c, 0, 64, 47
1, 231049, Control_c, 0, 64, 46
1, 231064, Control_c, 0, 64, 45
1, 231078, Control_c, 0, 64, 45
1, 231093, Control_c, 0, 64, 44
1, 231115, Control_c, 0, 64, 43
1, 231129, Control_c, 0, 64, 43
1, 231144, Control_c, 0, 64, 42
1, 231159, Control_c, 0, 64, 42
1, 231174, Control_c, 0, 64, 41
1, 231204, Control_c, 0, 64, 41
1, 231219, Control_c, 0, 64, 40
1, 231234, Control_c, 0, 64, 39
1, 231248, Control_c, 0, 64, 38
1, 231263, Control_c, 0, 64, 38
1, 231278, Control_c, 0, 64, 37
1, 231293, Control_c, 0, 64, 36
1, 231308, Control_c, 0, 64, 35
1, 231323, Control_c, 0, 64, 33
1, 231338, Control_c, 0, 64, 31
1, 231353, Control_c, 0, 64, 30
1, 231368, Control_c, 0, 64, 29
1, 231383, Control_c, 0, 64, 28
1, 231412, Control_c, 0, 64, 27
1, 231427, Control_c, 0, 64, 27
1, 231442, Control_c, 0, 64, 26
1, 231472, Control_c, 0, 64, 26
1, 231516, Control_c, 0, 64, 25
1, 231546, Control_c, 0, 64, 25
1, 231560, Control_c, 0, 64, 24
1, 231575, Control_c, 0, 64, 24
1, 231590, Control_c, 0, 64, 23
1, 231605, Control_c, 0, 64, 23
1, 231620, Control_c, 0, 64, 22
1, 231649, Control_c, 0, 64, 22
1, 231679, Control_c, 0, 64, 21
1, 231708, Control_c, 0, 64, 21
1, 231738, Control_c, 0, 64, 20
1, 231767, Control_c, 0, 64, 20
1, 231812, Control_c, 0, 64, 19
1, 232444, Control_c, 0, 64, 20
1, 232458, Control_c, 0, 64, 21
1, 232473, Control_c, 0, 64, 22
1, 232488, Control_c, 0, 64, 23
1, 232502, Control_c, 0, 64, 23
1, 232517, Control_c, 0, 64, 24
1, 232532, Control_c, 0, 64, 25
1, 232547, Control_c, 0, 64, 26
1, 232562, Control_c, 0, 64, 27
1, 232576, Control_c, 0, 64, 28
1, 232591, Control_c, 0, 64, 29
1, 232614, Control_c, 0, 64, 31
1, 232629, Control_c, 0, 64, 33
1, 232644, Control_c, 0, 64, 35
1, 232658, Control_c, 0, 64, 38
1, 232673, Control_c, 0, 64, 41
1, 232688, Control_c, 0, 64, 45
1, 232702, Control_c, 0, 64, 48
1, 232717, Control_c, 0, 64, 51
1, 232732, Control_c, 0, 64, 54
1, 232747, Control_c, 0, 64, 57
1, 232762, Control_c, 0, 64, 60
1, 232777, Control_c, 0, 64, 62
1, 232791, Control_c, 0, 64, 64
1, 232806, Control_c, 0, 64, 66
1, 232821, Control_c, 0, 64, 67
1, 232836, Control_c, 0, 64, 68
1, 232851, Control_c, 0, 64, 70
1, 232865, Control_c, 0, 64, 72
1, 232880, Control_c, 0, 64, 74
1, 232895, Control_c, 0, 64, 79
1, 232909, Control_c, 0, 64, 83
1, 232925, Control_c, 0, 64, 87
1, 232940, Control_c, 0, 64, 91
1, 232955, Control_c, 0, 64, 95
1, 232970, Control_c, 0, 64, 99
1, 232985, Control_c, 0, 64, 104
1, 232999, Control_c, 0, 64, 111
1, 233014, Control_c, 0, 64, 127
1, 233499, Note_on_c, 0, 31, 39
1, 233500, Note_on_c, 0, 21, 39
1, 233723, Note_off_c, 0, 31, 40
1, 233870, Note_off_c, 0, 21, 38
1, 234062, Note_on_c, 0, 32, 38
1, 234074, Control_c, 0, 64, 110
1, 234081, Note_on_c, 0, 22, 39
1, 234089, Control_c, 0, 64, 78
1, 234111, Control_c, 0, 64, 65
1, 234126, Control_c, 0, 64, 54
1, 234140, Control_c, 0, 64, 39
1, 234155, Control_c, 0, 64, 24
1, 234170, Control_c, 0, 64, 22
1, 234185, Control_c, 0, 64, 25
1, 234200, Control_c, 0, 64, 33
1, 234214, Control_c, 0, 64, 41
1, 234229, Control_c, 0, 64, 51
1, 234244, Control_c, 0, 64, 60
1, 234259, Control_c, 0, 64, 69
1, 234269, Note_off_c, 0, 22, 38
1, 234273, Control_c, 0, 64, 86
1, 234288, Control_c, 0, 64, 99
1, 234336, Note_off_c, 0, 32, 38
1, 234422, Control_c, 0, 64, 98
1, 234436, Control_c, 0, 64, 97
1, 234451, Control_c, 0, 64, 95
1, 234466, Control_c, 0, 64, 93
1, 234495, Control_c, 0, 64, 93
1, 234510, Control_c, 0, 64, 92
1, 234526, Control_c, 0, 64, 92
1, 234541, Control_c, 0, 64, 91
1, 234556, Control_c, 0, 64, 91
1, 234585, Control_c, 0, 64, 90
1, 234600, Control_c, 0, 64, 90
1, 234630, Control_c, 0, 64, 89
1, 234644, Control_c, 0, 64, 89
1, 234659, Control_c, 0, 64, 88
1, 234674, Control_c, 0, 64, 87
1, 234689, Control_c, 0, 64, 86
1, 234703, Control_c, 0, 64, 85
1, 234718, Control_c, 0, 64, 82
1, 234733, Control_c, 0, 64, 78
1, 234748, Control_c, 0, 64, 71
1, 234755, Note_on_c, 0, 27, 37
1, 234763, Note_on_c, 0, 39, 32
1, 234763, Control_c, 0, 64, 65
1, 234778, Control_c, 0, 64, 57
1, 234793, Control_c, 0, 64, 44
1, 234808, Control_c, 0, 64, 21
1, 234823, Control_c, 0, 64, 0
1, 234918, Control_c, 0, 64, 18
1, 234933, Control_c, 0, 64, 28
1, 234948, Control_c, 0, 64, 37
1, 234950, Note_off_c, 0, 27, 39
1, 234963, Control_c, 0, 64, 45
1, 234965, Note_off_c, 0, 39, 40
1, 234978, Control_c, 0, 64, 54
1, 234993, Control_c, 0, 64, 62
1, 235007, Control_c, 0, 64, 69
1, 235022, Control_c, 0, 64, 74
1, 235037, Control_c, 0, 64, 75
1, 235067, Control_c, 0, 64, 74
1, 235082, Control_c, 0, 64, 74
1, 235096, Control_c, 0, 64, 73
1, 235111, Control_c, 0, 64, 73
1, 235126, Control_c, 0, 64, 72
1, 235141, Control_c, 0, 64, 71
1, 235156, Control_c, 0, 64, 69
1, 235170, Control_c, 0, 64, 67
1, 235185, Control_c, 0, 64, 65
1, 235200, Control_c, 0, 64, 64
1, 235215, Control_c, 0, 64, 62
1, 235230, Control_c, 0, 64, 60
1, 235244, Control_c, 0, 64, 59
1, 235259, Control_c, 0, 64, 57
1, 235274, Control_c, 0, 64, 56
1, 235289, Control_c, 0, 64, 55
1, 235303, Control_c, 0, 64, 54
1, 235319, Control_c, 0, 64, 53
1, 235334, Control_c, 0, 64, 51
1, 235349, Control_c, 0, 64, 49
1, 235364, Control_c, 0, 64, 47
1, 235379, Control_c, 0, 64, 46
1, 235394, Control_c, 0, 64, 45
1, 235408, Control_c, 0, 64, 43
1, 235423, Control_c, 0, 64, 42
1, 235438, Control_c, 0, 64, 41
1, 235453, Control_c, 0, 64, 40
1, 235468, Control_c, 0, 64, 38
1, 235482, Control_c, 0, 64, 38
1, 235497, Control_c, 0, 64, 37
1, 235556, Control_c, 0, 64, 37
1, 235586, Control_c, 0, 64, 36
1, 235608, Control_c, 0, 64, 36
1, 235623, Control_c, 0, 64, 34
1, 235639, Control_c, 0, 64, 34
1, 235654, Control_c, 0, 64, 32
1, 235669, Control_c, 0, 64, 31
1, 235683, Control_c, 0, 64, 30
1, 235698, Control_c, 0, 64, 29
1, 235713, Control_c, 0, 64, 27
1, 235727, Control_c, 0, 64, 26
1, 235757, Control_c, 0, 64, 26
1, 235772, Control_c, 0, 64, 25
1, 235787, Control_c, 0, 64, 24
1, 235801, Control_c, 0, 64, 23
1, 235816, Control_c, 0, 64, 21
1, 235831, Control_c, 0, 64, 19
1, 235845, Control_c, 0, 64, 16
1, 235860, Control_c, 0, 64, 13
1, 235875, Control_c, 0, 64, 8
1, 235890, Control_c, 0, 64, 0
1, 236402, Control_c, 0, 64, 9
1, 236417, Control_c, 0, 64, 15
1, 236432, Control_c, 0, 64, 20
1, 236447, Control_c, 0, 64, 25
1, 236462, Control_c, 0, 64, 30
1, 236476, Control_c, 0, 64, 36
1, 236491, Control_c, 0, 64, 41
1, 236506, Control_c, 0, 64, 47
1, 236521, Control_c, 0, 64, 53
1, 236536, Control_c, 0, 64, 58
1, 236550, Control_c, 0, 64, 62
1, 236565, Control_c, 0, 64, 64
1, 236580, Control_c, 0, 64, 66
1, 236595, Control_c, 0, 64, 67
1, 236610, Control_c, 0, 64, 68
1, 236624, Control_c, 0, 64, 71
1, 236639, Control_c, 0, 64, 74
1, 236654, Control_c, 0, 64, 78
1, 236668, Control_c, 0, 64, 81
1, 236683, Control_c, 0, 64, 82
1, 236698, Control_c, 0, 64, 83
1, 236713, Control_c, 0, 64, 83
1, 236728, Control_c, 0, 64, 85
1, 236743, Control_c, 0, 64, 86
1, 236757, Control_c, 0, 64, 88
1, 236772, Control_c, 0, 64, 88
1, 236787, Control_c, 0, 64, 89
1, 236802, Control_c, 0, 64, 89
1, 236832, Control_c, 0, 64, 90
1, 236847, Control_c, 0, 64, 91
1, 236862, Control_c, 0, 64, 92
1, 236936, Note_on_c, 0, 52, 71
1, 236951, Note_on_c, 0, 47, 57
1, 236957, Note_on_c, 0, 51, 61
1, 236960, Note_on_c, 0, 44, 44
1, 236962, Note_on_c, 0, 38, 47
1, 236962, Note_on_c, 0, 40, 50
1, 236988, Note_off_c, 0, 51, 66
1, 237119, Note_on_c, 0, 51, 24
1, 237169, Note_off_c, 0, 51, 0
1, 237195, Note_on_c, 0, 51, 21
1, 237261, Note_off_c, 0, 51, 0
1, 237281, Note_on_c, 0, 51, 26
1, 237315, Note_off_c, 0, 51, 0
1, 237342, Poly_aftertouch_c, 0, 51, 0
1, 237379, Poly_aftertouch_c, 0, 51, 127
1, 237380, Note_on_c, 0, 51, 3
1, 237389, Note_off_c, 0, 51, 0
1, 237426, Poly_aftertouch_c, 0, 51, 127
1, 237497, Note_on_c, 0, 51, 12
1, 237540, Note_off_c, 0, 51, 0
1, 237568, Note_on_c, 0, 51, 37
1, 237621, Note_off_c, 0, 51, 0
1, 237651, Note_on_c, 0, 51, 32
1, 237708, Note_off_c, 0, 51, 0
1, 237727, Note_on_c, 0, 51, 33
1, 237787, Note_off_c, 0, 51, 0
1, 237787, Note_on_c, 0, 51, 25
1, 237833, Note_off_c, 0, 51, 61
1, 237878, Note_on_c, 0, 51, 44
1, 237936, Note_off_c, 0, 51, 0
1, 237958, Note_on_c, 0, 51, 35
1, 238006, Note_off_c, 0, 51, 0
1, 238026, Note_on_c, 0, 51, 35
1, 238075, Note_off_c, 0, 51, 0
1, 238099, Note_on_c, 0, 51, 25
1, 238131, Note_off_c, 0, 51, 60
1, 238188, Note_on_c, 0, 51, 30
1, 238260, Note_off_c, 0, 51, 0
1, 238260, Note_on_c, 0, 51, 3
1, 238293, Note_off_c, 0, 51, 0
1, 238304, Poly_aftertouch_c, 0, 51, 0
1, 238326, Note_on_c, 0, 51, 30
1, 238391, Note_off_c, 0, 51, 0
1, 238391, Note_on_c, 0, 51, 27
1, 238432, Note_off_c, 0, 51, 61
1, 238474, Note_on_c, 0, 51, 40
1, 238528, Note_off_c, 0, 51, 0
1, 238549, Note_on_c, 0, 51, 26
1, 238584, Note_off_c, 0, 51, 57
1, 238646, Note_on_c, 0, 51, 17
1, 238748, Note_off_c, 0, 51, 56
1, 238772, Poly_aftertouch_c, 0, 51, 0
1, 238788, Note_on_c, 0, 51, 39
1, 238824, Note_off_c, 0, 51, 0
1, 238862, Note_on_c, 0, 51, 23
1, 238924, Note_off_c, 0, 51, 0
1, 238938, Note_on_c, 0, 51, 45
1, 238996, Note_off_c, 0, 51, 0
1, 239014, Note_on_c, 0, 51, 32
1, 239073, Note_off_c, 0, 51, 0
1, 239092, Note_on_c, 0, 51, 34
1, 239121, Control_c, 0, 64, 92
1, 239136, Control_c, 0, 64, 93
1, 239143, Note_off_c, 0, 51, 0
1, 239151, Control_c, 0, 64, 93
1, 239161, Note_on_c, 0, 51, 36
1, 239181, Control_c, 0, 64, 94
1, 239196, Control_c, 0, 64, 94
1, 239201, Note_off_c, 0, 51, 61
1, 239225, Control_c, 0, 64, 95
1, 239240, Control_c, 0, 64, 95
1, 239254, Note_on_c, 0, 51, 21
1, 239299, Control_c, 0, 64, 96
1, 239304, Note_off_c, 0, 51, 0
1, 239324, Note_on_c, 0, 51, 30
1, 239352, Control_c, 0, 64, 96
1, 239382, Control_c, 0, 64, 97
1, 239391, Note_off_c, 0, 51, 0
1, 239397, Control_c, 0, 64, 97
1, 239410, Note_on_c, 0, 51, 35
1, 239412, Control_c, 0, 64, 98
1, 239413, Note_off_c, 0, 52, 36
1, 239427, Control_c, 0, 64, 98
1, 239439, Note_off_c, 0, 47, 50
1, 239441, Control_c, 0, 64, 99
1, 239446, Note_off_c, 0, 38, 37
1, 239446, Note_off_c, 0, 51, 0
1, 239456, Control_c, 0, 64, 100
1, 239471, Control_c, 0, 64, 101
1, 239482, Note_on_c, 0, 51, 28
1, 239486, Control_c, 0, 64, 102
1, 239500, Control_c, 0, 64, 103
1, 239503, Note_off_c, 0, 40, 38
1, 239515, Control_c, 0, 64, 103
1, 239530, Control_c, 0, 64, 105
1, 239532, Note_off_c, 0, 44, 40
1, 239548, Note_off_c, 0, 51, 0
1, 239560, Control_c, 0, 64, 105
1, 239568, Note_on_c, 0, 51, 27
1, 239574, Control_c, 0, 64, 106
1, 239604, Control_c, 0, 64, 107
1, 239610, Note_off_c, 0, 51, 0
1, 239634, Note_on_c, 0, 51, 28
1, 239634, Control_c, 0, 64, 108
1, 239649, Control_c, 0, 64, 108
1, 239675, Note_off_c, 0, 51, 60
1, 239678, Control_c, 0, 64, 109
1, 239708, Control_c, 0, 64, 110
1, 239728, Note_on_c, 0, 51, 35
1, 239738, Control_c, 0, 64, 111
1, 239780, Note_off_c, 0, 51, 0
1, 239782, Control_c, 0, 64, 113
1, 239800, Note_on_c, 0, 51, 31
1, 239826, Control_c, 0, 64, 114
1, 239840, Note_off_c, 0, 51, 58
1, 239856, Control_c, 0, 64, 115
1, 239885, Control_c, 0, 64, 117
1, 239899, Note_on_c, 0, 51, 5
1, 239915, Control_c, 0, 64, 119
1, 239959, Control_c, 0, 64, 122
1, 240006, Note_off_c, 0, 51, 53
1, 240046, Note_on_c, 0, 47, 47
1, 240063, Control_c, 0, 64, 127
1, 240065, Note_on_c, 0, 44, 38
1, 240069, Note_on_c, 0, 40, 39
1, 240107, Note_on_c, 0, 38, 26
1, 240161, Note_on_c, 0, 51, 18
1, 240216, Note_off_c, 0, 51, 0
1, 240242, Note_on_c, 0, 51, 19
1, 240296, Note_off_c, 0, 51, 0
1, 240322, Note_on_c, 0, 51, 20
1, 240376, Note_off_c, 0, 51, 0
1, 240400, Note_on_c, 0, 51, 22
1, 240471, Note_off_c, 0, 51, 0
1, 240471, Note_on_c, 0, 51, 25
1, 240531, Note_off_c, 0, 51, 0
1, 240553, Note_on_c, 0, 51, 29
1, 240635, Note_off_c, 0, 51, 0
1, 240635, Note_on_c, 0, 51, 30
1, 240680, Note_off_c, 0, 51, 61
1, 240740, Note_on_c, 0, 51, 37
1, 240819, Note_off_c, 0, 51, 0
1, 240844, Note_on_c, 0, 51, 26
1, 240873, Note_off_c, 0, 51, 0
1, 240893, Poly_aftertouch_c, 0, 51, 0
1, 240922, Note_on_c, 0, 51, 13
1, 241006, Note_off_c, 0, 51, 0
1, 241006, Note_on_c, 0, 51, 5
1, 241044, Note_off_c, 0, 51, 0
1, 241080, Poly_aftertouch_c, 0, 51, 127
1, 241086, Note_on_c, 0, 51, 13
1, 241127, Note_off_c, 0, 51, 0
1, 241147, Poly_aftertouch_c, 0, 51, 0
1, 241171, Note_on_c, 0, 51, 25
1, 241247, Note_off_c, 0, 51, 0
1, 241267, Note_on_c, 0, 51, 23
1, 241347, Note_off_c, 0, 51, 0
1, 241370, Note_on_c, 0, 51, 17
1, 241445, Note_off_c, 0, 51, 0
1, 241463, Note_on_c, 0, 51, 30
1, 241501, Control_c, 0, 64, 122
1, 241516, Control_c, 0, 64, 117
1, 241530, Note_off_c, 0, 51, 0
1, 241530, Control_c, 0, 64, 115
1, 241545, Control_c, 0, 64, 113
1, 241552, Note_on_c, 0, 51, 23
1, 241560, Control_c, 0, 64, 110
1, 241575, Control_c, 0, 64, 108
1, 241597, Control_c, 0, 64, 106
1, 241612, Control_c, 0, 64, 104
1, 241627, Control_c, 0, 64, 102
1, 241642, Control_c, 0, 64, 100
1, 241657, Control_c, 0, 64, 99
1, 241667, Note_off_c, 0, 51, 0
1, 241667, Note_on_c, 0, 51, 11
1, 241671, Control_c, 0, 64, 97
1, 241686, Control_c, 0, 64, 96
1, 241701, Control_c, 0, 64, 95
1, 241717, Control_c, 0, 64, 93
1, 241732, Control_c, 0, 64, 92
1, 241747, Control_c, 0, 64, 91
1, 241761, Control_c, 0, 64, 89
1, 241776, Control_c, 0, 64, 88
1, 241791, Control_c, 0, 64, 86
1, 241806, Control_c, 0, 64, 85
1, 241821, Control_c, 0, 64, 84
1, 241836, Control_c, 0, 64, 82
1, 241850, Control_c, 0, 64, 81
1, 241865, Control_c, 0, 64, 80
1, 241880, Control_c, 0, 64, 79
1, 241894, Control_c, 0, 64, 77
1, 241909, Control_c, 0, 64, 75
1, 241924, Control_c, 0, 64, 74
1, 241939, Control_c, 0, 64, 73
1, 241954, Control_c, 0, 64, 72
1, 241968, Control_c, 0, 64, 71
1, 241982, Note_off_c, 0, 51, 51
1, 241983, Control_c, 0, 64, 70
1, 241994, Note_off_c, 0, 38, 31
1, 241998, Control_c, 0, 64, 69
1, 242013, Control_c, 0, 64, 68
1, 242025, Note_off_c, 0, 40, 28
1, 242027, Note_off_c, 0, 47, 34
1, 242027, Control_c, 0, 64, 67
1, 242042, Control_c, 0, 64, 66
1, 242057, Control_c, 0, 64, 65
1, 242065, Note_off_c, 0, 44, 27
1, 242072, Control_c, 0, 64, 65
1, 242087, Control_c, 0, 64, 64
1, 242102, Control_c, 0, 64, 64
1, 242117, Control_c, 0, 64, 63
1, 242132, Control_c, 0, 64, 63
1, 242147, Control_c, 0, 64, 62
1, 242161, Control_c, 0, 64, 61
1, 242176, Control_c, 0, 64, 60
1, 242191, Control_c, 0, 64, 59
1, 242206, Control_c, 0, 64, 58
1, 242220, Control_c, 0, 64, 56
1, 242235, Control_c, 0, 64, 55
1, 242250, Control_c, 0, 64, 54
1, 242265, Control_c, 0, 64, 53
1, 242279, Control_c, 0, 64, 53
1, 242294, Control_c, 0, 64, 52
1, 242309, Control_c, 0, 64, 52
1, 242324, Control_c, 0, 64, 51
1, 242346, Control_c, 0, 64, 50
1, 242361, Control_c, 0, 64, 50
1, 242376, Control_c, 0, 64, 49
1, 242391, Control_c, 0, 64, 48
1, 242406, Control_c, 0, 64, 47
1, 242421, Control_c, 0, 64, 46
1, 242436, Control_c, 0, 64, 45
1, 242451, Control_c, 0, 64, 44
1, 242466, Control_c, 0, 64, 44
1, 242495, Control_c, 0, 64, 43
1, 242525, Control_c, 0, 64, 43
1, 242540, Control_c, 0, 64, 42
1, 242555, Control_c, 0, 64, 41
1, 242570, Control_c, 0, 64, 40
1, 242585, Control_c, 0, 64, 40
1, 242600, Control_c, 0, 64, 39
1, 242615, Control_c, 0, 64, 39
1, 242630, Control_c, 0, 64, 38
1, 242659, Control_c, 0, 64, 37
1, 242689, Control_c, 0, 64, 37
1, 242704, Control_c, 0, 64, 36
1, 242718, Control_c, 0, 64, 35
1, 242733, Control_c, 0, 64, 33
1, 242748, Control_c, 0, 64, 32
1, 242763, Control_c, 0, 64, 30
1, 242778, Control_c, 0, 64, 29
1, 242792, Control_c, 0, 64, 28
1, 242822, Control_c, 0, 64, 27
1, 242836, Control_c, 0, 64, 26
1, 242851, Control_c, 0, 64, 24
1, 242866, Control_c, 0, 64, 22
1, 242881, Control_c, 0, 64, 18
1, 242896, Control_c, 0, 64, 15
1, 242910, Control_c, 0, 64, 12
1, 242925, Control_c, 0, 64, 10
1, 242940, Control_c, 0, 64, 8
1, 242955, Control_c, 0, 64, 0
1, 243630, Control_c, 0, 64, 8
1, 243645, Control_c, 0, 64, 9
1, 243659, Control_c, 0, 64, 11
1, 243674, Control_c, 0, 64, 12
1, 243689, Control_c, 0, 64, 14
1, 243704, Control_c, 0, 64, 14
1, 243719, Control_c, 0, 64, 15
1, 243733, Control_c, 0, 64, 17
1, 243748, Control_c, 0, 64, 18
1, 243763, Control_c, 0, 64, 20
1, 243778, Control_c, 0, 64, 21
1, 243792, Control_c, 0, 64, 22
1, 243807, Control_c, 0, 64, 23
1, 243822, Control_c, 0, 64, 24
1, 243845, Control_c, 0, 64, 25
1, 243860, Control_c, 0, 64, 26
1, 243874, Control_c, 0, 64, 27
1, 243889, Control_c, 0, 64, 28
1, 243904, Control_c, 0, 64, 30
1, 243919, Control_c, 0, 64, 32
1, 243933, Control_c, 0, 64, 34
1, 243948, Control_c, 0, 64, 36
1, 243963, Control_c, 0, 64, 38
1, 243978, Control_c, 0, 64, 41
1, 243992, Control_c, 0, 64, 43
1, 244007, Control_c, 0, 64, 46
1, 244022, Control_c, 0, 64, 48
1, 244037, Control_c, 0, 64, 51
1, 244052, Control_c, 0, 64, 53
1, 244066, Control_c, 0, 64, 55
1, 244081, Control_c, 0, 64, 57
1, 244096, Control_c, 0, 64, 59
1, 244112, Control_c, 0, 64, 60
1, 244127, Control_c, 0, 64, 61
1, 244142, Control_c, 0, 64, 62
1, 244156, Control_c, 0, 64, 63
1, 244171, Control_c, 0, 64, 64
1, 244186, Control_c, 0, 64, 64
1, 244201, Control_c, 0, 64, 65
1, 244216, Control_c, 0, 64, 66
1, 244230, Control_c, 0, 64, 67
1, 244245, Control_c, 0, 64, 68
1, 244260, Control_c, 0, 64, 69
1, 244275, Control_c, 0, 64, 71
1, 244290, Control_c, 0, 64, 72
1, 244305, Control_c, 0, 64, 74
1, 244320, Control_c, 0, 64, 76
1, 244335, Control_c, 0, 64, 78
1, 244350, Control_c, 0, 64, 80
1, 244364, Control_c, 0, 64, 83
1, 244379, Control_c, 0, 64, 85
1, 244394, Control_c, 0, 64, 88
1, 244408, Control_c, 0, 64, 90
1, 244423, Control_c, 0, 64, 92
1, 244438, Control_c, 0, 64, 93
1, 244453, Control_c, 0, 64, 93
1, 244468, Control_c, 0, 64, 94
1, 244482, Control_c, 0, 64, 95
1, 244497, Control_c, 0, 64, 95
1, 244512, Control_c, 0, 64, 96
1, 244527, Control_c, 0, 64, 97
1, 244542, Control_c, 0, 64, 97
1, 244556, Control_c, 0, 64, 98
1, 244571, Control_c, 0, 64, 99
1, 244594, Control_c, 0, 64, 100
1, 244608, Control_c, 0, 64, 100
1, 244622, Control_c, 0, 64, 101
1, 244637, Control_c, 0, 64, 102
1, 244652, Control_c, 0, 64, 103
1, 244682, Control_c, 0, 64, 103
1, 244696, Control_c, 0, 64, 104
1, 244711, Control_c, 0, 64, 105
1, 244741, Control_c, 0, 64, 105
1, 244756, Control_c, 0, 64, 106
1, 244770, Control_c, 0, 64, 107
1, 244785, Control_c, 0, 64, 108
1, 244800, Control_c, 0, 64, 109
1, 244815, Control_c, 0, 64, 110
1, 244829, Control_c, 0, 64, 111
1, 244844, Control_c, 0, 64, 113
1, 244859, Control_c, 0, 64, 114
1, 244874, Control_c, 0, 64, 115
1, 244889, Control_c, 0, 64, 119
1, 244904, Control_c, 0, 64, 122
1, 244919, Control_c, 0, 64, 127
1, 245079, Note_on_c, 0, 31, 36
1, 245086, Note_on_c, 0, 21, 30
1, 245521, Note_off_c, 0, 31, 39
1, 246084, Note_off_c, 0, 21, 39
1, 246092, Note_on_c, 0, 22, 44
1, 246092, Note_on_c, 0, 32, 37
1, 246105, Control_c, 0, 64, 108
1, 246121, Control_c, 0, 64, 95
1, 246135, Control_c, 0, 64, 81
1, 246150, Control_c, 0, 64, 70
1, 246165, Control_c, 0, 64, 63
1, 246180, Control_c, 0, 64, 55
1, 246195, Control_c, 0, 64, 45
1, 246210, Control_c, 0, 64, 37
1, 246225, Control_c, 0, 64, 33
1, 246254, Control_c, 0, 64, 34
1, 246269, Control_c, 0, 64, 38
1, 246284, Control_c, 0, 64, 43
1, 246299, Control_c, 0, 64, 49
1, 246314, Control_c, 0, 64, 55
1, 246328, Control_c, 0, 64, 60
1, 246343, Control_c, 0, 64, 64
1, 246358, Control_c, 0, 64, 66
1, 246373, Control_c, 0, 64, 68
1, 246387, Control_c, 0, 64, 69
1, 246402, Control_c, 0, 64, 70
1, 246417, Control_c, 0, 64, 72
1, 246431, Note_off_c, 0, 22, 34
1, 246432, Control_c, 0, 64, 73
1, 246447, Control_c, 0, 64, 75
1, 246461, Control_c, 0, 64, 77
1, 246472, Note_off_c, 0, 32, 35
1, 246476, Control_c, 0, 64, 79
1, 246491, Control_c, 0, 64, 80
1, 246507, Control_c, 0, 64, 81
1, 246522, Control_c, 0, 64, 81
1, 246552, Control_c, 0, 64, 82
1, 246610, Control_c, 0, 64, 82
1, 246640, Control_c, 0, 64, 83
1, 247092, Control_c, 0, 64, 82
1, 247122, Control_c, 0, 64, 82
1, 247151, Control_c, 0, 64, 81
1, 247181, Control_c, 0, 64, 81
1, 247196, Control_c, 0, 64, 80
1, 247210, Control_c, 0, 64, 80
1, 247225, Control_c, 0, 64, 79
1, 247240, Control_c, 0, 64, 79
1, 247255, Control_c, 0, 64, 78
1, 247270, Control_c, 0, 64, 76
1, 247284, Control_c, 0, 64, 75
1, 247300, Control_c, 0, 64, 72
1, 247315, Control_c, 0, 64, 69
1, 247330, Control_c, 0, 64, 64
1, 247345, Control_c, 0, 64, 57
1, 247345, Note_on_c, 0, 27, 33
1, 247352, Note_on_c, 0, 39, 30
1, 247360, Control_c, 0, 64, 42
1, 247374, Control_c, 0, 64, 25
1, 247389, Control_c, 0, 64, 0
1, 247433, Control_c, 0, 64, 14
1, 247448, Control_c, 0, 64, 27
1, 247463, Control_c, 0, 64, 38
1, 247478, Control_c, 0, 64, 47
1, 247493, Control_c, 0, 64, 57
1, 247507, Control_c, 0, 64, 65
1, 247522, Control_c, 0, 64, 73
1, 247523, Note_off_c, 0, 39, 40
1, 247537, Control_c, 0, 64, 79
1, 247545, Note_off_c, 0, 27, 36
1, 247552, Control_c, 0, 64, 80
1, 247567, Control_c, 0, 64, 79
1, 247589, Control_c, 0, 64, 77
1, 247604, Control_c, 0, 64, 75
1, 247619, Control_c, 0, 64, 74
1, 247633, Control_c, 0, 64, 73
1, 247648, Control_c, 0, 64, 72
1, 247663, Control_c, 0, 64, 70
1, 247678, Control_c, 0, 64, 68
1, 247693, Control_c, 0, 64, 67
1, 247707, Control_c, 0, 64, 65
1, 247722, Control_c, 0, 64, 64
1, 247737, Control_c, 0, 64, 63
1, 247752, Control_c, 0, 64, 61
1, 247767, Control_c, 0, 64, 60
1, 247781, Control_c, 0, 64, 58
1, 247796, Control_c, 0, 64, 57
1, 247811, Control_c, 0, 64, 55
1, 247826, Control_c, 0, 64, 54
1, 247840, Control_c, 0, 64, 53
1, 247855, Control_c, 0, 64, 53
1, 247870, Control_c, 0, 64, 52
1, 247885, Control_c, 0, 64, 51
1, 247900, Control_c, 0, 64, 51
1, 247915, Control_c, 0, 64, 50
1, 247945, Control_c, 0, 64, 49
1, 247959, Control_c, 0, 64, 49
1, 247974, Control_c, 0, 64, 48
1, 247989, Control_c, 0, 64, 46
1, 248004, Control_c, 0, 64, 45
1, 248019, Control_c, 0, 64, 43
1, 248033, Control_c, 0, 64, 42
1, 248048, Control_c, 0, 64, 41
1, 248063, Control_c, 0, 64, 41
1, 248078, Control_c, 0, 64, 40
1, 248093, Control_c, 0, 64, 39
1, 248108, Control_c, 0, 64, 38
1, 248123, Control_c, 0, 64, 37
1, 248138, Control_c, 0, 64, 36
1, 248153, Control_c, 0, 64, 36
1, 248168, Control_c, 0, 64, 35
1, 248183, Control_c, 0, 64, 34
1, 248197, Control_c, 0, 64, 33
1, 248212, Control_c, 0, 64, 32
1, 248227, Control_c, 0, 64, 31
1, 248242, Control_c, 0, 64, 31
1, 248256, Control_c, 0, 64, 30
1, 248271, Control_c, 0, 64, 30
1, 248286, Control_c, 0, 64, 29
1, 248301, Control_c, 0, 64, 28
1, 248316, Control_c, 0, 64, 26
1, 248338, Control_c, 0, 64, 24
1, 248353, Control_c, 0, 64, 23
1, 248368, Control_c, 0, 64, 21
1, 248382, Control_c, 0, 64, 19
1, 248397, Control_c, 0, 64, 17
1, 248412, Control_c, 0, 64, 14
1, 248427, Control_c, 0, 64, 12
1, 248442, Control_c, 0, 64, 10
1, 248456, Control_c, 0, 64, 8
1, 248471, Control_c, 0, 64, 0
1, 249265, Control_c, 0, 64, 11
1, 249279, Control_c, 0, 64, 16
1, 249294, Control_c, 0, 64, 19
1, 249309, Control_c, 0, 64, 22
1, 249324, Control_c, 0, 64, 25
1, 249339, Control_c, 0, 64, 27
1, 249353, Control_c, 0, 64, 29
1, 249368, Control_c, 0, 64, 32
1, 249383, Control_c, 0, 64, 35
1, 249398, Control_c, 0, 64, 39
1, 249412, Control_c, 0, 64, 43
1, 249427, Control_c, 0, 64, 47
1, 249442, Control_c, 0, 64, 52
1, 249457, Control_c, 0, 64, 57
1, 249472, Control_c, 0, 64, 62
1, 249486, Control_c, 0, 64, 65
1, 249501, Control_c, 0, 64, 67
1, 249516, Control_c, 0, 64, 70
1, 249531, Control_c, 0, 64, 72
1, 249546, Control_c, 0, 64, 74
1, 249560, Control_c, 0, 64, 76
1, 249575, Control_c, 0, 64, 78
1, 249590, Control_c, 0, 64, 79
1, 249605, Control_c, 0, 64, 81
1, 249620, Control_c, 0, 64, 83
1, 249635, Control_c, 0, 64, 84
1, 249650, Control_c, 0, 64, 85
1, 249665, Control_c, 0, 64, 86
1, 249679, Control_c, 0, 64, 86
1, 249694, Control_c, 0, 64, 87
1, 249709, Control_c, 0, 64, 87
1, 249724, Control_c, 0, 64, 88
1, 249739, Control_c, 0, 64, 88
1, 249754, Control_c, 0, 64, 89
1, 249769, Control_c, 0, 64, 89
1, 249799, Control_c, 0, 64, 90
1, 250048, Note_on_c, 0, 39, 51
1, 250059, Note_on_c, 0, 38, 46
1, 250060, Note_on_c, 0, 40, 49
1, 250070, Note_on_c, 0, 32, 44
1, 250070, Note_on_c, 0, 35, 49
1, 250100, Note_off_c, 0, 39, 62
1, 250215, Poly_aftertouch_c, 0, 39, 0
1, 250252, Poly_aftertouch_c, 0, 39, 127
1, 250416, Note_on_c, 0, 39, 24
1, 250498, Note_off_c, 0, 39, 0
1, 250514, Note_on_c, 0, 39, 18
1, 250552, Note_off_c, 0, 39, 0
1, 250583, Note_on_c, 0, 39, 33
1, 250648, Note_off_c, 0, 39, 0
1, 250667, Note_on_c, 0, 39, 30
1, 250711, Note_off_c, 0, 39, 63
1, 250757, Note_on_c, 0, 39, 44
1, 250806, Control_c, 0, 64, 90
1, 250830, Note_off_c, 0, 39, 0
1, 250836, Control_c, 0, 64, 91
1, 250844, Note_on_c, 0, 39, 24
1, 250851, Control_c, 0, 64, 91
1, 250866, Control_c, 0, 64, 92
1, 250879, Note_off_c, 0, 39, 0
1, 250896, Control_c, 0, 64, 92
1, 250903, Note_on_c, 0, 39, 30
1, 250911, Control_c, 0, 64, 93
1, 250925, Control_c, 0, 64, 94
1, 250940, Control_c, 0, 64, 95
1, 250955, Control_c, 0, 64, 96
1, 250969, Control_c, 0, 64, 97
1, 250970, Note_off_c, 0, 39, 0
1, 250984, Control_c, 0, 64, 98
1, 250987, Note_on_c, 0, 39, 33
1, 250999, Control_c, 0, 64, 99
1, 251014, Control_c, 0, 64, 100
1, 251029, Control_c, 0, 64, 100
1, 251030, Note_off_c, 0, 39, 63
1, 251043, Control_c, 0, 64, 101
1, 251058, Control_c, 0, 64, 101
1, 251073, Control_c, 0, 64, 102
1, 251079, Note_on_c, 0, 39, 40
1, 251088, Control_c, 0, 64, 103
1, 251103, Control_c, 0, 64, 105
1, 251118, Control_c, 0, 64, 106
1, 251132, Control_c, 0, 64, 108
1, 251147, Control_c, 0, 64, 109
1, 251153, Note_off_c, 0, 39, 0
1, 251162, Control_c, 0, 64, 111
1, 251168, Note_on_c, 0, 39, 24
1, 251176, Control_c, 0, 64, 113
1, 251191, Control_c, 0, 64, 115
1, 251206, Control_c, 0, 64, 117
1, 251218, Note_off_c, 0, 39, 0
1, 251235, Note_on_c, 0, 39, 31
1, 251236, Control_c, 0, 64, 119
1, 251250, Control_c, 0, 64, 122
1, 251265, Control_c, 0, 64, 127
1, 251293, Note_off_c, 0, 39, 0
1, 251312, Note_on_c, 0, 39, 23
1, 251364, Note_off_c, 0, 39, 62
1, 251389, Poly_aftertouch_c, 0, 39, 0
1, 251400, Note_on_c, 0, 39, 37
1, 251477, Note_off_c, 0, 39, 0
1, 251499, Note_on_c, 0, 39, 26
1, 251534, Note_off_c, 0, 39, 0
1, 251562, Note_on_c, 0, 39, 23
1, 251624, Note_off_c, 0, 39, 0
1, 251641, Note_on_c, 0, 39, 25
1, 251686, Note_off_c, 0, 39, 61
1, 251734, Note_on_c, 0, 39, 26
1, 251792, Note_off_c, 0, 39, 0
1, 251808, Note_on_c, 0, 39, 24
1, 251844, Note_off_c, 0, 39, 57
1, 251883, Note_on_c, 0, 39, 37
1, 251937, Note_off_c, 0, 39, 0
1, 251956, Note_on_c, 0, 39, 25
1, 251999, Note_off_c, 0, 39, 63
1, 252039, Note_on_c, 0, 39, 38
1, 252105, Note_off_c, 0, 39, 0
1, 252124, Note_on_c, 0, 39, 20
1, 252187, Note_off_c, 0, 39, 0
1, 252201, Note_on_c, 0, 39, 36
1, 252258, Note_off_c, 0, 39, 0
1, 252274, Note_on_c, 0, 39, 29
1, 252342, Note_off_c, 0, 39, 0
1, 252355, Note_on_c, 0, 39, 36
1, 252417, Note_off_c, 0, 39, 0
1, 252431, Note_on_c, 0, 39, 27
1, 252469, Note_off_c, 0, 39, 61
1, 252514, Note_on_c, 0, 39, 29
1, 252543, Note_off_c, 0, 39, 0
1, 252557, Poly_aftertouch_c, 0, 39, 0
1, 252577, Note_on_c, 0, 39, 25
1, 252623, Note_off_c, 0, 39, 61
1, 252665, Note_on_c, 0, 39, 39
1, 252737, Note_off_c, 0, 39, 0
1, 252751, Note_on_c, 0, 39, 27
1, 252811, Note_off_c, 0, 39, 0
1, 252832, Note_on_c, 0, 39, 34
1, 252892, Note_off_c, 0, 39, 0
1, 252908, Note_on_c, 0, 39, 27
1, 252949, Note_off_c, 0, 39, 63
1, 253052, Poly_aftertouch_c, 0, 39, 127
1, 253129, Poly_aftertouch_c, 0, 39, 0
1, 253157, Note_on_c, 0, 39, 28
1, 253230, Note_off_c, 0, 39, 0
1, 253239, Note_off_c, 0, 38, 38
1, 253246, Note_on_c, 0, 39, 21
1, 253252, Note_off_c, 0, 40, 31
1, 253300, Note_off_c, 0, 35, 39
1, 253300, Note_off_c, 0, 39, 0
1, 253317, Note_on_c, 0, 39, 37
1, 253365, Note_off_c, 0, 32, 39
1, 253387, Note_off_c, 0, 39, 0
1, 253424, Poly_aftertouch_c, 0, 39, 127
1, 253547, Poly_aftertouch_c, 0, 39, 0
1, 253586, Note_on_c, 0, 39, 8
1, 253653, Note_off_c, 0, 39, 0
1, 253669, Note_on_c, 0, 39, 28
1, 253716, Note_off_c, 0, 39, 59
1, 253769, Note_on_c, 0, 39, 21
1, 253829, Note_off_c, 0, 39, 0
1, 253845, Note_on_c, 0, 39, 27
1, 253909, Note_off_c, 0, 39, 0
1, 253924, Note_on_c, 0, 39, 25
1, 253985, Note_off_c, 0, 39, 57
1, 254039, Note_on_c, 0, 35, 44
1, 254049, Note_on_c, 0, 39, 22
1, 254058, Note_on_c, 0, 32, 43
1, 254128, Note_off_c, 0, 39, 0
1, 254145, Note_on_c, 0, 39, 19
1, 254218, Note_off_c, 0, 39, 0
1, 254218, Note_on_c, 0, 39, 24
1, 254276, Note_off_c, 0, 39, 0
1, 254299, Note_on_c, 0, 39, 23
1, 254383, Note_off_c, 0, 39, 0
1, 254401, Note_on_c, 0, 39, 22
1, 254466, Note_off_c, 0, 39, 0
1, 254485, Note_on_c, 0, 39, 19
1, 254535, Note_off_c, 0, 39, 0
1, 254559, Note_on_c, 0, 39, 27
1, 254613, Note_off_c, 0, 39, 0
1, 254650, Poly_aftertouch_c, 0, 39, 127
1, 254707, Poly_aftertouch_c, 0, 39, 0
1, 254734, Note_on_c, 0, 39, 15
1, 254795, Note_off_c, 0, 39, 0
1, 254820, Note_on_c, 0, 39, 24
1, 254882, Note_off_c, 0, 39, 0
1, 254906, Note_on_c, 0, 39, 20
1, 254972, Note_off_c, 0, 39, 0
1, 254991, Note_on_c, 0, 39, 26
1, 255038, Note_off_c, 0, 39, 58
1, 255087, Note_on_c, 0, 39, 32
1, 255150, Note_off_c, 0, 39, 0
1, 255167, Note_on_c, 0, 39, 27
1, 255225, Note_off_c, 0, 39, 0
1, 255263, Poly_aftertouch_c, 0, 39, 127
1, 255315, Poly_aftertouch_c, 0, 39, 0
1, 255331, Note_on_c, 0, 39, 26
1, 255391, Note_off_c, 0, 39, 0
1, 255428, Poly_aftertouch_c, 0, 39, 127
1, 255492, Poly_aftertouch_c, 0, 39, 0
1, 255505, Note_on_c, 0, 39, 25
1, 255565, Note_off_c, 0, 39, 0
1, 255584, Note_on_c, 0, 39, 24
1, 255641, Note_off_c, 0, 39, 0
1, 255674, Note_on_c, 0, 39, 24
1, 255747, Note_off_c, 0, 39, 0
1, 255764, Note_on_c, 0, 39, 24
1, 255845, Note_off_c, 0, 39, 0
1, 255868, Note_on_c, 0, 39, 20
1, 255940, Note_off_c, 0, 39, 0
1, 255940, Note_on_c, 0, 39, 26
1, 255949, Note_off_c, 0, 35, 38
1, 256028, Note_off_c, 0, 39, 0
1, 256032, Note_off_c, 0, 32, 38
1, 256046, Note_on_c, 0, 39, 20
1, 256118, Note_off_c, 0, 39, 0
1, 256133, Note_on_c, 0, 39, 28
1, 256212, Note_off_c, 0, 39, 0
1, 256233, Note_on_c, 0, 39, 12
1, 256313, Note_off_c, 0, 39, 0
1, 256328, Note_on_c, 0, 39, 29
1, 256380, Note_off_c, 0, 39, 58
1, 256429, Note_on_c, 0, 39, 25
1, 256502, Note_off_c, 0, 39, 0
1, 256525, Note_on_c, 0, 39, 30
1, 256589, Note_off_c, 0, 39, 0
1, 256627, Poly_aftertouch_c, 0, 39, 127
1, 256656, Note_on_c, 0, 39, 3
1, 256898, Note_off_c, 0, 39, 41
1, 257059, Note_on_c, 0, 27, 36
1, 257183, Note_off_c, 0, 27, 35
1, 257379, Note_on_c, 0, 27, 29
1, 257494, Note_off_c, 0, 27, 35
1, 257606, Note_on_c, 0, 27, 38
1, 257710, Note_off_c, 0, 27, 51
1, 257793, Note_on_c, 0, 27, 32
1, 257901, Note_off_c, 0, 27, 49
1, 257996, Note_on_c, 0, 27, 29
1, 258109, Note_off_c, 0, 27, 37
1, 258174, Note_on_c, 0, 27, 31
1, 258294, Note_off_c, 0, 27, 37
1, 258371, Note_on_c, 0, 27, 37
1, 258456, Note_off_c, 0, 27, 54
1, 258540, Note_on_c, 0, 27, 29
1, 258658, Note_off_c, 0, 27, 37
1, 258732, Note_on_c, 0, 27, 34
1, 258822, Note_off_c, 0, 27, 52
1, 258908, Note_on_c, 0, 27, 32
1, 258994, Note_off_c, 0, 27, 50
1, 259090, Note_on_c, 0, 27, 34
1, 259165, Note_off_c, 0, 27, 52
1, 259248, Note_on_c, 0, 27, 32
1, 259331, Note_off_c, 0, 27, 54
1, 259436, Note_on_c, 0, 27, 34
1, 259504, Note_off_c, 0, 27, 54
1, 259606, Note_on_c, 0, 27, 38
1, 259673, Note_off_c, 0, 27, 55
1, 259784, Note_on_c, 0, 27, 36
1, 259853, Note_off_c, 0, 27, 54
1, 259940, Note_on_c, 0, 27, 35
1, 260002, Note_off_c, 0, 27, 54
1, 260122, Note_on_c, 0, 27, 35
1, 260194, Note_off_c, 0, 27, 43
1, 260276, Note_on_c, 0, 27, 29
1, 260357, Note_off_c, 0, 27, 52
1, 260441, Note_on_c, 0, 27, 36
1, 260582, Note_off_c, 0, 27, 0
1, 260600, Note_on_c, 0, 27, 28
1, 260758, Note_off_c, 0, 27, 0
1, 260774, Note_on_c, 0, 27, 26
1, 260853, Note_off_c, 0, 27, 55
1, 260946, Note_on_c, 0, 27, 22
1, 261017, Note_off_c, 0, 27, 54
1, 261136, Note_on_c, 0, 27, 39
1, 261214, Note_off_c, 0, 27, 51
1, 261311, Note_on_c, 0, 27, 30
1, 261433, Note_off_c, 0, 27, 36
1, 261550, Note_on_c, 0, 27, 46
1, 261762, Note_on_c, 0, 30, 43
1, 261951, Note_on_c, 0, 28, 38
1, 262125, Note_on_c, 0, 31, 38
1, 262248, Note_off_c, 0, 28, 39
1, 262270, Note_off_c, 0, 30, 25
1, 262272, Note_on_c, 0, 34, 41
1, 262342, Note_off_c, 0, 31, 35
1, 262398, Note_off_c, 0, 27, 33
1, 262418, Note_on_c, 0, 37, 38
1, 262423, Note_off_c, 0, 34, 35
1, 262577, Note_on_c, 0, 34, 42
1, 262593, Note_off_c, 0, 37, 32
1, 262734, Note_on_c, 0, 31, 27
1, 262867, Note_on_c, 0, 28, 28
1, 262900, Note_off_c, 0, 31, 31
1, 262982, Note_off_c, 0, 34, 11
1, 263043, Note_on_c, 0, 27, 51
1, 263050, Note_off_c, 0, 28, 35
1, 263248, Note_on_c, 0, 30, 43
1, 263363, Note_on_c, 0, 28, 35
1, 263435, Note_off_c, 0, 27, 31
1, 263469, Note_off_c, 0, 30, 35
1, 263501, Note_on_c, 0, 31, 34
1, 263609, Note_off_c, 0, 28, 39
1, 263615, Note_on_c, 0, 34, 31
1, 263690, Note_off_c, 0, 34, 57
1, 263698, Note_off_c, 0, 31, 37
1, 263746, Note_on_c, 0, 37, 26
1, 263847, Note_off_c, 0, 37, 37
1, 263853, Note_on_c, 0, 34, 39
1, 263992, Note_on_c, 0, 31, 12
1, 264059, Note_off_c, 0, 31, 43
1, 264095, Note_on_c, 0, 28, 25
1, 264195, Note_off_c, 0, 34, 11
1, 264227, Note_on_c, 0, 27, 52
1, 264238, Note_off_c, 0, 28, 30
1, 264402, Note_on_c, 0, 30, 38
1, 264500, Note_on_c, 0, 28, 28
1, 264515, Note_off_c, 0, 27, 25
1, 264573, Note_off_c, 0, 30, 31
1, 264583, Note_on_c, 0, 31, 34
1, 264687, Note_on_c, 0, 34, 34
1, 264692, Note_off_c, 0, 28, 39
1, 264766, Note_off_c, 0, 34, 58
1, 264791, Note_off_c, 0, 31, 35
1, 264822, Note_on_c, 0, 37, 28
1, 264905, Note_off_c, 0, 37, 51
1, 264940, Note_on_c, 0, 34, 41
1, 265046, Note_on_c, 0, 31, 22
1, 265107, Note_off_c, 0, 31, 44
1, 265132, Note_on_c, 0, 28, 36
1, 265192, Note_off_c, 0, 34, 15
1, 265210, Note_off_c, 0, 28, 44
1, 265273, Note_on_c, 0, 27, 51
1, 265454, Note_on_c, 0, 30, 38
1, 265529, Note_off_c, 0, 27, 26
1, 265569, Note_on_c, 0, 28, 34
1, 265629, Note_off_c, 0, 30, 31
1, 265664, Note_on_c, 0, 31, 39
1, 265769, Note_on_c, 0, 34, 38
1, 265773, Note_off_c, 0, 28, 40
1, 265851, Note_off_c, 0, 31, 41
1, 265851, Note_off_c, 0, 34, 52
1, 265892, Note_on_c, 0, 37, 26
1, 265998, Note_on_c, 0, 34, 28
1, 266004, Note_off_c, 0, 37, 36
1, 266105, Note_on_c, 0, 31, 32
1, 266169, Note_off_c, 0, 31, 51
1, 266193, Note_on_c, 0, 28, 35
1, 266232, Note_off_c, 0, 34, 32
1, 266316, Note_on_c, 0, 27, 54
1, 266368, Note_off_c, 0, 28, 26
1, 266492, Note_on_c, 0, 30, 40
1, 266512, Note_off_c, 0, 27, 41
1, 266576, Note_off_c, 0, 30, 49
1, 266599, Note_on_c, 0, 28, 26
1, 266680, Note_on_c, 0, 31, 39
1, 266767, Note_on_c, 0, 34, 40
1, 266767, Note_off_c, 0, 28, 37
1, 266833, Note_off_c, 0, 34, 58
1, 266840, Note_off_c, 0, 31, 38
1, 266873, Note_on_c, 0, 37, 36
1, 266946, Note_off_c, 0, 37, 50
1, 266978, Note_on_c, 0, 34, 42
1, 267066, Note_off_c, 0, 34, 46
1, 267068, Note_on_c, 0, 31, 34
1, 267130, Note_off_c, 0, 31, 57
1, 267158, Note_on_c, 0, 28, 35
1, 267199, Note_off_c, 0, 28, 57
1, 267262, Note_on_c, 0, 39, 55
1, 267437, Note_on_c, 0, 42, 29
1, 267529, Note_on_c, 0, 40, 38
1, 267636, Note_on_c, 0, 43, 41
1, 267675, Note_off_c, 0, 39, 19
1, 267699, Note_off_c, 0, 40, 42
1, 267724, Note_on_c, 0, 46, 45
1, 267778, Note_off_c, 0, 42, 35
1, 267818, Note_off_c, 0, 46, 59
1, 267821, Note_off_c, 0, 43, 40
1, 267852, Note_on_c, 0, 49, 41
1, 267961, Note_on_c, 0, 46, 52
1, 267962, Note_off_c, 0, 49, 0
1, 267997, Poly_aftertouch_c, 0, 49, 0
1, 268059, Note_on_c, 0, 43, 41
1, 268110, Note_off_c, 0, 46, 37
1, 268128, Note_off_c, 0, 43, 47
1, 268143, Note_on_c, 0, 40, 43
1, 268190, Note_off_c, 0, 40, 64
1, 268258, Note_on_c, 0, 51, 52
1, 268373, Note_on_c, 0, 54, 53
1, 268491, Note_on_c, 0, 52, 45
1, 268590, Note_off_c, 0, 51, 37
1, 268591, Note_on_c, 0, 55, 39
1, 268629, Note_off_c, 0, 54, 39
1, 268654, Note_off_c, 0, 52, 40
1, 268674, Note_on_c, 0, 58, 45
1, 268742, Note_off_c, 0, 55, 36
1, 268755, Note_off_c, 0, 58, 56
1, 268769, Note_on_c, 0, 61, 46
1, 268887, Note_off_c, 0, 61, 53
1, 268901, Note_on_c, 0, 58, 50
1, 269015, Note_on_c, 0, 55, 43
1, 269087, Note_off_c, 0, 58, 30
1, 269094, Note_off_c, 0, 55, 57
1, 269130, Note_on_c, 0, 52, 42
1, 269160, Note_off_c, 0, 52, 60
1, 269335, Note_on_c, 0, 63, 56
1, 269391, Control_c, 0, 64, 114
1, 269406, Control_c, 0, 64, 106
1, 269421, Control_c, 0, 64, 105
1, 269436, Control_c, 0, 64, 104
1, 269495, Control_c, 0, 64, 103
1, 269510, Control_c, 0, 64, 103
1, 269524, Control_c, 0, 64, 102
1, 269532, Note_on_c, 0, 64, 42
1, 269539, Control_c, 0, 64, 101
1, 269554, Control_c, 0, 64, 100
1, 269569, Control_c, 0, 64, 99
1, 269584, Control_c, 0, 64, 98
1, 269598, Control_c, 0, 64, 96
1, 269613, Control_c, 0, 64, 95
1, 269628, Control_c, 0, 64, 93
1, 269643, Control_c, 0, 64, 92
1, 269653, Note_on_c, 0, 66, 50
1, 269657, Control_c, 0, 64, 90
1, 269673, Control_c, 0, 64, 89
1, 269688, Control_c, 0, 64, 87
1, 269703, Control_c, 0, 64, 85
1, 269718, Control_c, 0, 64, 83
1, 269733, Control_c, 0, 64, 80
1, 269747, Control_c, 0, 64, 78
1, 269750, Note_off_c, 0, 64, 37
1, 269762, Control_c, 0, 64, 76
1, 269770, Note_on_c, 0, 67, 57
1, 269771, Note_off_c, 0, 66, 53
1, 269777, Control_c, 0, 64, 74
1, 269792, Control_c, 0, 64, 73
1, 269807, Control_c, 0, 64, 72
1, 269821, Control_c, 0, 64, 70
1, 269836, Control_c, 0, 64, 69
1, 269851, Control_c, 0, 64, 67
1, 269866, Control_c, 0, 64, 66
1, 269881, Control_c, 0, 64, 66
1, 269896, Control_c, 0, 64, 65
1, 269911, Control_c, 0, 64, 65
1, 269927, Note_off_c, 0, 67, 57
1, 269928, Note_off_c, 0, 63, 44
1, 269935, Note_on_c, 0, 70, 53
1, 270059, Note_off_c, 0, 70, 54
1, 270069, Note_on_c, 0, 67, 51
1, 270172, Note_on_c, 0, 66, 54
1, 270178, Note_off_c, 0, 67, 50
1, 270277, Note_off_c, 0, 66, 51
1, 270309, Note_on_c, 0, 64, 41
1, 270386, Note_off_c, 0, 64, 54
1, 270482, Control_c, 0, 64, 64
1, 270496, Control_c, 0, 64, 61
1, 270500, Note_on_c, 0, 63, 55
1, 270511, Control_c, 0, 64, 54
1, 270526, Control_c, 0, 64, 41
1, 270541, Control_c, 0, 64, 20
1, 270556, Control_c, 0, 64, 0
1, 270615, Control_c, 0, 64, 25
1, 270630, Control_c, 0, 64, 35
1, 270644, Control_c, 0, 64, 44
1, 270659, Control_c, 0, 64, 53
1, 270674, Control_c, 0, 64, 62
1, 270689, Control_c, 0, 64, 68
1, 270704, Control_c, 0, 64, 74
1, 270719, Control_c, 0, 64, 79
1, 270731, Note_on_c, 0, 64, 31
1, 270734, Control_c, 0, 64, 82
1, 270748, Control_c, 0, 64, 83
1, 270763, Control_c, 0, 64, 85
1, 270778, Control_c, 0, 64, 87
1, 270782, Note_off_c, 0, 63, 54
1, 270800, Control_c, 0, 64, 90
1, 270815, Control_c, 0, 64, 93
1, 270817, Note_on_c, 0, 66, 38
1, 270829, Control_c, 0, 64, 96
1, 270844, Control_c, 0, 64, 97
1, 270886, Note_off_c, 0, 66, 41
1, 270897, Note_on_c, 0, 67, 44
1, 270901, Note_off_c, 0, 64, 41
1, 270903, Control_c, 0, 64, 98
1, 270939, Note_off_c, 0, 67, 57
1, 270965, Note_on_c, 0, 70, 50
1, 271044, Note_off_c, 0, 70, 54
1, 271067, Note_on_c, 0, 67, 42
1, 271111, Control_c, 0, 64, 97
1, 271126, Control_c, 0, 64, 97
1, 271134, Note_off_c, 0, 67, 41
1, 271140, Note_on_c, 0, 66, 39
1, 271141, Control_c, 0, 64, 96
1, 271156, Control_c, 0, 64, 95
1, 271170, Control_c, 0, 64, 94
1, 271185, Control_c, 0, 64, 93
1, 271205, Note_off_c, 0, 66, 41
1, 271214, Control_c, 0, 64, 93
1, 271226, Note_on_c, 0, 64, 32
1, 271244, Control_c, 0, 64, 92
1, 271288, Note_off_c, 0, 64, 42
1, 271296, Note_on_c, 0, 63, 55
1, 271319, Control_c, 0, 64, 92
1, 271364, Control_c, 0, 64, 91
1, 271388, Note_off_c, 0, 63, 54
1, 271419, Note_on_c, 0, 64, 25
1, 271488, Note_on_c, 0, 66, 38
1, 271518, Note_off_c, 0, 64, 32
1, 271543, Note_off_c, 0, 66, 44
1, 271570, Note_on_c, 0, 67, 38
1, 271611, Note_off_c, 0, 67, 47
1, 271623, Note_on_c, 0, 70, 51
1, 271696, Note_off_c, 0, 70, 54
1, 271717, Note_on_c, 0, 67, 50
1, 271792, Note_off_c, 0, 67, 56
1, 271807, Note_on_c, 0, 66, 34
1, 271842, Note_off_c, 0, 66, 51
1, 271863, Note_on_c, 0, 64, 38
1, 271916, Note_off_c, 0, 64, 42
1, 271954, Note_on_c, 0, 63, 48
1, 272042, Note_off_c, 0, 63, 58
1, 272078, Note_on_c, 0, 64, 25
1, 272156, Note_on_c, 0, 66, 32
1, 272165, Note_off_c, 0, 64, 33
1, 272203, Note_off_c, 0, 66, 45
1, 272215, Note_on_c, 0, 67, 42
1, 272263, Note_off_c, 0, 67, 46
1, 272296, Note_on_c, 0, 70, 42
1, 272386, Note_on_c, 0, 67, 45
1, 272433, Note_off_c, 0, 70, 27
1, 272459, Note_on_c, 0, 66, 43
1, 272469, Note_off_c, 0, 67, 34
1, 272513, Note_off_c, 0, 66, 41
1, 272546, Note_on_c, 0, 64, 32
1, 272634, Note_off_c, 0, 64, 35
1, 272692, Note_on_c, 0, 63, 53
1, 272692, Note_on_c, 0, 75, 66
1, 272850, Note_off_c, 0, 75, 53
1, 272861, Note_off_c, 0, 63, 37
1, 272886, Note_on_c, 0, 66, 39
1, 272891, Control_c, 0, 64, 92
1, 272902, Poly_aftertouch_c, 0, 64, 127
1, 272921, Control_c, 0, 64, 92
1, 272936, Control_c, 0, 64, 93
1, 272943, Note_off_c, 0, 66, 42
1, 272950, Poly_aftertouch_c, 0, 64, 0
1, 272951, Control_c, 0, 64, 93
1, 272955, Note_on_c, 0, 67, 41
1, 272965, Control_c, 0, 64, 94
1, 272980, Control_c, 0, 64, 95
1, 272995, Control_c, 0, 64, 95
1, 273007, Note_off_c, 0, 67, 53
1, 273024, Control_c, 0, 64, 96
1, 273045, Note_on_c, 0, 75, 59
1, 273053, Note_on_c, 0, 70, 39
1, 273062, Control_c, 0, 64, 96
1, 273091, Control_c, 0, 64, 97
1, 273106, Control_c, 0, 64, 97
1, 273115, Note_off_c, 0, 70, 42
1, 273121, Control_c, 0, 64, 98
1, 273128, Note_off_c, 0, 75, 54
1, 273133, Note_on_c, 0, 67, 48
1, 273136, Control_c, 0, 64, 100
1, 273151, Control_c, 0, 64, 101
1, 273166, Control_c, 0, 64, 107
1, 273181, Control_c, 0, 64, 117
1, 273182, Note_off_c, 0, 67, 56
1, 273196, Control_c, 0, 64, 127
1, 273208, Note_on_c, 0, 66, 50
1, 273246, Note_off_c, 0, 66, 51
1, 273279, Note_on_c, 0, 64, 44
1, 273333, Note_off_c, 0, 64, 57
1, 273345, Note_on_c, 0, 75, 56
1, 273351, Note_on_c, 0, 63, 46
1, 273426, Note_off_c, 0, 75, 54
1, 273465, Note_off_c, 0, 63, 45
1, 273467, Note_on_c, 0, 64, 26
1, 273510, Note_on_c, 0, 66, 29
1, 273515, Note_off_c, 0, 64, 45
1, 273550, Note_off_c, 0, 66, 49
1, 273554, Note_on_c, 0, 67, 43
1, 273604, Note_off_c, 0, 67, 49
1, 273616, Note_on_c, 0, 73, 59
1, 273634, Note_on_c, 0, 70, 41
1, 273722, Note_off_c, 0, 70, 38
1, 273729, Note_on_c, 0, 67, 42
1, 273739, Note_off_c, 0, 73, 45
1, 273777, Note_off_c, 0, 67, 44
1, 273799, Note_on_c, 0, 66, 41
1, 273843, Note_off_c, 0, 66, 46
1, 273871, Note_on_c, 0, 64, 36
1, 273929, Control_c, 0, 64, 98
1, 273931, Note_off_c, 0, 64, 41
1, 273943, Note_on_c, 0, 75, 59
1, 273944, Control_c, 0, 64, 81
1, 273956, Note_on_c, 0, 63, 48
1, 273959, Control_c, 0, 64, 71
1, 273974, Control_c, 0, 64, 65
1, 273988, Control_c, 0, 64, 63
1, 274003, Control_c, 0, 64, 62
1, 274018, Control_c, 0, 64, 63
1, 274032, Control_c, 0, 64, 67
1, 274047, Control_c, 0, 64, 78
1, 274062, Control_c, 0, 64, 103
1, 274067, Note_on_c, 0, 64, 30
1, 274077, Control_c, 0, 64, 127
1, 274105, Note_off_c, 0, 63, 60
1, 274119, Note_off_c, 0, 75, 54
1, 274141, Note_on_c, 0, 66, 28
1, 274178, Note_off_c, 0, 64, 33
1, 274191, Note_off_c, 0, 66, 45
1, 274193, Note_on_c, 0, 67, 41
1, 274238, Note_off_c, 0, 67, 50
1, 274269, Note_on_c, 0, 70, 38
1, 274324, Note_off_c, 0, 70, 44
1, 274352, Note_on_c, 0, 67, 42
1, 274397, Note_off_c, 0, 67, 46
1, 274403, Note_on_c, 0, 66, 42
1, 274439, Note_off_c, 0, 66, 51
1, 274477, Note_on_c, 0, 64, 34
1, 274542, Note_off_c, 0, 64, 43
1, 274549, Note_on_c, 0, 63, 52
1, 274621, Note_off_c, 0, 63, 58
1, 274680, Note_on_c, 0, 64, 19
1, 274716, Note_on_c, 0, 66, 24
1, 274728, Note_off_c, 0, 64, 47
1, 274759, Note_off_c, 0, 66, 50
1, 274760, Note_on_c, 0, 67, 44
1, 274799, Note_off_c, 0, 67, 56
1, 274832, Note_on_c, 0, 70, 42
1, 274886, Note_off_c, 0, 70, 43
1, 274914, Note_on_c, 0, 67, 43
1, 274965, Note_off_c, 0, 67, 44
1, 274969, Note_on_c, 0, 66, 46
1, 275007, Note_off_c, 0, 66, 52
1, 275038, Note_on_c, 0, 64, 41
1, 275081, Note_off_c, 0, 64, 49
1, 275107, Note_on_c, 0, 63, 48
1, 275176, Note_off_c, 0, 63, 60
1, 275199, Note_on_c, 0, 64, 32
1, 275275, Note_on_c, 0, 66, 32
1, 275319, Note_off_c, 0, 64, 34
1, 275338, Note_off_c, 0, 66, 43
1, 275339, Note_on_c, 0, 67, 42
1, 275393, Note_off_c, 0, 67, 43
1, 275417, Note_on_c, 0, 70, 43
1, 275474, Note_off_c, 0, 70, 44
1, 275488, Note_on_c, 0, 67, 34
1, 275573, Note_on_c, 0, 66, 48
1, 275600, Note_off_c, 0, 67, 40
1, 275624, Note_off_c, 0, 66, 58
1, 275664, Note_on_c, 0, 64, 33
1, 275765, Note_off_c, 0, 64, 34
1, 275782, Control_c, 0, 64, 92
1, 275789, Note_on_c, 0, 61, 61
1, 275797, Control_c, 0, 64, 74
1, 275811, Control_c, 0, 64, 65
1, 275826, Control_c, 0, 64, 58
1, 275841, Control_c, 0, 64, 48
1, 275856, Control_c, 0, 64, 44
1, 275871, Control_c, 0, 64, 45
1, 275885, Control_c, 0, 64, 49
1, 275900, Control_c, 0, 64, 56
1, 275915, Control_c, 0, 64, 65
1, 275920, Note_on_c, 0, 64, 9
1, 275930, Control_c, 0, 64, 85
1, 275945, Control_c, 0, 64, 122
1, 275959, Control_c, 0, 64, 127
1, 275965, Note_on_c, 0, 66, 37
1, 275989, Note_off_c, 0, 64, 42
1, 276021, Note_off_c, 0, 66, 41
1, 276038, Note_on_c, 0, 67, 44
1, 276070, Note_off_c, 0, 67, 56
1, 276084, Note_on_c, 0, 73, 55
1, 276168, Note_on_c, 0, 67, 56
1, 276177, Note_off_c, 0, 73, 57
1, 276217, Note_off_c, 0, 61, 56
1, 276247, Note_off_c, 0, 67, 55
1, 276260, Note_on_c, 0, 66, 42
1, 276308, Note_off_c, 0, 66, 43
1, 276322, Note_on_c, 0, 64, 37
1, 276364, Note_off_c, 0, 64, 47
1, 276373, Note_on_c, 0, 63, 63
1, 276382, Control_c, 0, 64, 84
1, 276397, Control_c, 0, 64, 69
1, 276412, Control_c, 0, 64, 59
1, 276427, Control_c, 0, 64, 50
1, 276442, Control_c, 0, 64, 45
1, 276457, Control_c, 0, 64, 45
1, 276471, Note_on_c, 0, 64, 40
1, 276472, Control_c, 0, 64, 50
1, 276487, Control_c, 0, 64, 60
1, 276502, Control_c, 0, 64, 72
1, 276516, Control_c, 0, 64, 127
1, 276521, Note_on_c, 0, 66, 41
1, 276533, Note_off_c, 0, 64, 40
1, 276597, Note_on_c, 0, 67, 43
1, 276631, Note_off_c, 0, 67, 55
1, 276634, Note_off_c, 0, 66, 36
1, 276650, Note_on_c, 0, 75, 60
1, 276722, Note_off_c, 0, 75, 60
1, 276727, Note_off_c, 0, 63, 49
1, 276743, Note_on_c, 0, 67, 40
1, 276819, Note_on_c, 0, 66, 60
1, 276844, Note_off_c, 0, 67, 39
1, 276856, Note_off_c, 0, 66, 62
1, 276881, Note_on_c, 0, 64, 48
1, 276934, Note_off_c, 0, 64, 56
1, 276947, Note_on_c, 0, 58, 60
1, 276953, Control_c, 0, 64, 98
1, 276968, Control_c, 0, 64, 77
1, 276983, Control_c, 0, 64, 66
1, 276998, Control_c, 0, 64, 59
1, 277012, Control_c, 0, 64, 54
1, 277027, Control_c, 0, 64, 53
1, 277038, Note_on_c, 0, 64, 37
1, 277042, Control_c, 0, 64, 57
1, 277056, Control_c, 0, 64, 64
1, 277071, Control_c, 0, 64, 83
1, 277086, Control_c, 0, 64, 127
1, 277101, Note_on_c, 0, 66, 46
1, 277151, Note_on_c, 0, 67, 54
1, 277158, Note_off_c, 0, 64, 41
1, 277160, Note_off_c, 0, 58, 51
1, 277164, Note_off_c, 0, 66, 47
1, 277196, Note_off_c, 0, 67, 60
1, 277208, Note_on_c, 0, 70, 58
1, 277283, Note_on_c, 0, 67, 47
1, 277285, Note_off_c, 0, 70, 56
1, 277333, Note_off_c, 0, 67, 61
1, 277360, Note_on_c, 0, 66, 40
1, 277384, Note_off_c, 0, 66, 58
1, 277409, Note_on_c, 0, 64, 42
1, 277454, Note_off_c, 0, 64, 52
1, 277498, Note_on_c, 0, 56, 61
1, 277516, Control_c, 0, 64, 79
1, 277538, Control_c, 0, 64, 64
1, 277553, Control_c, 0, 64, 54
1, 277568, Control_c, 0, 64, 36
1, 277582, Control_c, 0, 64, 25
1, 277602, Note_on_c, 0, 62, 38
1, 277612, Control_c, 0, 64, 31
1, 277627, Control_c, 0, 64, 42
1, 277642, Control_c, 0, 64, 55
1, 277658, Control_c, 0, 64, 69
1, 277672, Note_on_c, 0, 63, 41
1, 277673, Control_c, 0, 64, 101
1, 277687, Control_c, 0, 64, 127
1, 277688, Note_off_c, 0, 62, 48
1, 277701, Note_on_c, 0, 64, 55
1, 277748, Note_off_c, 0, 56, 0
1, 277760, Note_off_c, 0, 64, 60
1, 277765, Note_on_c, 0, 68, 64
1, 277765, Note_off_c, 0, 63, 38
1, 277822, Poly_aftertouch_c, 0, 56, 0
1, 277870, Note_on_c, 0, 64, 41
1, 277888, Note_off_c, 0, 68, 46
1, 277923, Note_on_c, 0, 63, 34
1, 277926, Note_off_c, 0, 64, 49
1, 277959, Note_off_c, 0, 63, 54
1, 277993, Note_on_c, 0, 62, 46
1, 278031, Note_off_c, 0, 62, 52
1, 278040, Note_on_c, 0, 61, 60
1, 278043, Control_c, 0, 64, 95
1, 278058, Control_c, 0, 64, 74
1, 278073, Control_c, 0, 64, 64
1, 278087, Control_c, 0, 64, 56
1, 278102, Control_c, 0, 64, 48
1, 278117, Control_c, 0, 64, 46
1, 278132, Control_c, 0, 64, 49
1, 278147, Control_c, 0, 64, 57
1, 278157, Note_on_c, 0, 64, 41
1, 278161, Control_c, 0, 64, 68
1, 278176, Control_c, 0, 64, 101
1, 278191, Control_c, 0, 64, 127
1, 278213, Note_on_c, 0, 65, 45
1, 278226, Note_off_c, 0, 61, 50
1, 278260, Note_on_c, 0, 68, 59
1, 278265, Note_off_c, 0, 64, 53
1, 278302, Note_off_c, 0, 65, 63
1, 278320, Note_off_c, 0, 68, 59
1, 278326, Note_on_c, 0, 73, 61
1, 278402, Note_on_c, 0, 68, 49
1, 278411, Note_off_c, 0, 73, 59
1, 278463, Note_on_c, 0, 65, 39
1, 278477, Note_off_c, 0, 68, 55
1, 278499, Note_off_c, 0, 65, 59
1, 278536, Note_on_c, 0, 64, 41
1, 278574, Note_off_c, 0, 64, 50
1, 278584, Control_c, 0, 64, 88
1, 278594, Note_on_c, 0, 56, 57
1, 278599, Control_c, 0, 64, 69
1, 278614, Control_c, 0, 64, 58
1, 278628, Control_c, 0, 64, 46
1, 278643, Control_c, 0, 64, 42
1, 278658, Control_c, 0, 64, 44
1, 278673, Control_c, 0, 64, 52
1, 278688, Note_on_c, 0, 62, 45
1, 278688, Control_c, 0, 64, 65
1, 278699, Note_off_c, 0, 56, 66
1, 278702, Control_c, 0, 64, 127
1, 278742, Note_on_c, 0, 63, 51
1, 278797, Note_on_c, 0, 64, 53
1, 278867, Note_on_c, 0, 68, 55
1, 278870, Note_off_c, 0, 63, 38
1, 278880, Note_off_c, 0, 62, 43
1, 278888, Note_off_c, 0, 64, 59
1, 278911, Note_off_c, 0, 68, 61
1, 278954, Note_on_c, 0, 74, 45
1, 279019, Note_on_c, 0, 75, 47
1, 279086, Note_on_c, 0, 76, 60
1, 279089, Note_off_c, 0, 74, 36
1, 279108, Note_off_c, 0, 75, 55
1, 279147, Note_on_c, 0, 80, 57
1, 279164, Note_off_c, 0, 76, 59
1, 279220, Note_on_c, 0, 83, 56
1, 279232, Note_off_c, 0, 80, 59
1, 279292, Note_on_c, 0, 86, 56
1, 279344, Note_off_c, 0, 83, 37
1, 279374, Note_on_c, 0, 87, 63
1, 279460, Note_off_c, 0, 86, 28
1, 279496, Control_c, 0, 64, 106
1, 279501, Note_off_c, 0, 87, 51
1, 279506, Note_on_c, 0, 88, 54
1, 279507, Note_on_c, 0, 83, 45
1, 279511, Control_c, 0, 64, 78
1, 279525, Control_c, 0, 64, 68
1, 279540, Control_c, 0, 64, 64
1, 279555, Control_c, 0, 64, 63
1, 279563, Note_off_c, 0, 83, 61
1, 279569, Control_c, 0, 64, 65
1, 279584, Control_c, 0, 64, 71
1, 279599, Control_c, 0, 64, 86
1, 279614, Control_c, 0, 64, 127
1, 279637, Note_off_c, 0, 88, 51
1, 279674, Note_on_c, 0, 89, 47
1, 279678, Note_on_c, 0, 87, 41
1, 279695, Note_on_c, 0, 82, 37
1, 279696, Note_on_c, 0, 80, 32
1, 279737, Note_off_c, 0, 80, 48
1, 279738, Note_off_c, 0, 87, 60
1, 279746, Note_off_c, 0, 82, 47
1, 279768, Note_off_c, 0, 89, 41
1, 279779, Note_on_c, 0, 88, 51
1, 279807, Note_on_c, 0, 86, 39
1, 279841, Note_off_c, 0, 88, 52
1, 279843, Note_off_c, 0, 86, 49
1, 279848, Poly_aftertouch_c, 0, 83, 127
1, 279871, Note_on_c, 0, 87, 52
1, 279873, Note_on_c, 0, 89, 48
1, 279877, Note_on_c, 0, 80, 24
1, 279879, Note_on_c, 0, 82, 25
1, 279914, Note_off_c, 0, 87, 61
1, 279916, Note_off_c, 0, 89, 47
1, 279919, Note_off_c, 0, 80, 49
1, 279919, Control_c, 0, 64, 115
1, 279926, Note_off_c, 0, 82, 49
1, 279933, Control_c, 0, 64, 109
1, 279934, Note_on_c, 0, 83, 25
1, 279936, Note_on_c, 0, 86, 54
1, 279945, Note_on_c, 0, 88, 52
1, 279948, Control_c, 0, 64, 105
1, 279963, Control_c, 0, 64, 101
1, 279975, Note_off_c, 0, 86, 59
1, 279975, Note_off_c, 0, 88, 58
1, 279977, Control_c, 0, 64, 100
1, 279987, Note_off_c, 0, 83, 49
1, 279992, Control_c, 0, 64, 99
1, 280004, Note_on_c, 0, 89, 50
1, 280011, Note_on_c, 0, 80, 44
1, 280016, Note_on_c, 0, 87, 50
1, 280040, Note_on_c, 0, 82, 21
1, 280048, Note_off_c, 0, 87, 56
1, 280049, Note_off_c, 0, 89, 46
1, 280052, Note_off_c, 0, 80, 48
1, 280070, Note_on_c, 0, 88, 52
1, 280078, Note_on_c, 0, 83, 41
1, 280083, Note_off_c, 0, 82, 53
1, 280088, Note_on_c, 0, 86, 42
1, 280108, Note_off_c, 0, 88, 58
1, 280111, Note_off_c, 0, 83, 53
1, 280114, Note_off_c, 0, 86, 54
1, 280136, Note_on_c, 0, 89, 48
1, 280140, Note_on_c, 0, 87, 53
1, 280154, Note_on_c, 0, 80, 30
1, 280174, Note_off_c, 0, 89, 48
1, 280181, Note_off_c, 0, 87, 61
1, 280189, Note_off_c, 0, 80, 53
1, 280189, Poly_aftertouch_c, 0, 82, 127
1, 280198, Note_on_c, 0, 86, 53
1, 280204, Note_on_c, 0, 88, 49
1, 280216, Note_on_c, 0, 83, 43
1, 280233, Note_off_c, 0, 88, 57
1, 280237, Note_off_c, 0, 86, 55
1, 280242, Note_off_c, 0, 83, 58
1, 280256, Note_on_c, 0, 89, 53
1, 280263, Poly_aftertouch_c, 0, 82, 0
1, 280272, Note_on_c, 0, 87, 58
1, 280280, Note_on_c, 0, 80, 36
1, 280296, Note_off_c, 0, 89, 48
1, 280299, Poly_aftertouch_c, 0, 82, 127
1, 280308, Note_off_c, 0, 87, 61
1, 280312, Note_off_c, 0, 80, 53
1, 280326, Note_on_c, 0, 88, 49
1, 280350, Note_on_c, 0, 86, 23
1, 280357, Poly_aftertouch_c, 0, 82, 0
1, 280357, Note_off_c, 0, 88, 53
1, 280365, Note_on_c, 0, 89, 61
1, 280383, Poly_aftertouch_c, 0, 83, 127
1, 280389, Note_on_c, 0, 80, 51
1, 280391, Note_on_c, 0, 82, 14
1, 280394, Note_on_c, 0, 87, 56
1, 280400, Note_off_c, 0, 86, 42
1, 280404, Note_off_c, 0, 89, 54
1, 280416, Note_off_c, 0, 80, 53
1, 280416, Note_off_c, 0, 87, 62
1, 280433, Note_on_c, 0, 83, 5
1, 280439, Note_on_c, 0, 86, 46
1, 280439, Note_on_c, 0, 88, 61
1, 280440, Note_off_c, 0, 82, 48
1, 280467, Note_off_c, 0, 88, 61
1, 280478, Note_off_c, 0, 86, 59
1, 280482, Control_c, 0, 64, 100
1, 280484, Note_off_c, 0, 83, 52
1, 280491, Note_on_c, 0, 89, 63
1, 280497, Control_c, 0, 64, 101
1, 280498, Note_on_c, 0, 87, 58
1, 280502, Note_on_c, 0, 80, 54
1, 280508, Note_on_c, 0, 82, 45
1, 280512, Control_c, 0, 64, 103
1, 280535, Control_c, 0, 64, 104
1, 280536, Note_off_c, 0, 89, 51
1, 280541, Note_off_c, 0, 80, 52
1, 280547, Note_off_c, 0, 82, 55
1, 280547, Note_off_c, 0, 87, 58
1, 280550, Control_c, 0, 64, 106
1, 280556, Note_on_c, 0, 88, 56
1, 280563, Note_on_c, 0, 83, 47
1, 280563, Control_c, 0, 64, 108
1, 280576, Note_on_c, 0, 86, 49
1, 280578, Control_c, 0, 64, 110
1, 280591, Note_off_c, 0, 88, 58
1, 280593, Control_c, 0, 64, 113
1, 280594, Note_off_c, 0, 83, 58
1, 280600, Note_off_c, 0, 86, 58
1, 280607, Control_c, 0, 64, 115
1, 280613, Note_on_c, 0, 89, 60
1, 280622, Control_c, 0, 64, 117
1, 280624, Note_on_c, 0, 87, 56
1, 280631, Note_on_c, 0, 80, 44
1, 280637, Control_c, 0, 64, 119
1, 280644, Note_off_c, 0, 89, 52
1, 280645, Note_on_c, 0, 82, 39
1, 280652, Control_c, 0, 64, 122
1, 280660, Note_off_c, 0, 80, 54
1, 280664, Note_off_c, 0, 87, 59
1, 280674, Note_on_c, 0, 86, 59
1, 280674, Note_on_c, 0, 88, 60
1, 280678, Note_off_c, 0, 82, 53
1, 280686, Note_on_c, 0, 83, 55
1, 280696, Control_c, 0, 64, 127
1, 280709, Note_off_c, 0, 83, 62
1, 280711, Note_off_c, 0, 88, 62
1, 280714, Note_off_c, 0, 86, 59
1, 280724, Note_on_c, 0, 89, 56
1, 280743, Note_on_c, 0, 87, 57
1, 280749, Note_on_c, 0, 82, 41
1, 280752, Note_on_c, 0, 80, 38
1, 280755, Note_off_c, 0, 89, 51
1, 280773, Note_off_c, 0, 87, 62
1, 280782, Note_off_c, 0, 80, 55
1, 280782, Note_off_c, 0, 82, 53
1, 280790, Note_on_c, 0, 83, 55
1, 280791, Note_on_c, 0, 88, 56
1, 280802, Note_on_c, 0, 86, 49
1, 280817, Note_off_c, 0, 83, 56
1, 280818, Note_off_c, 0, 88, 58
1, 280825, Note_off_c, 0, 86, 59
1, 280833, Note_on_c, 0, 89, 64
1, 280854, Note_on_c, 0, 87, 63
1, 280861, Note_on_c, 0, 82, 46
1, 280866, Note_on_c, 0, 80, 38
1, 280867, Note_off_c, 0, 89, 53
1, 280885, Note_off_c, 0, 87, 65
1, 280888, Note_off_c, 0, 82, 59
1, 280896, Note_off_c, 0, 80, 55
1, 280901, Note_on_c, 0, 88, 54
1, 280908, Note_on_c, 0, 83, 53
1, 280914, Note_on_c, 0, 86, 50
1, 280931, Note_off_c, 0, 88, 57
1, 280933, Note_off_c, 0, 83, 60
1, 280939, Note_off_c, 0, 86, 58
1, 280943, Note_on_c, 0, 89, 70
1, 280959, Note_on_c, 0, 87, 66
1, 280967, Note_on_c, 0, 80, 52
1, 280979, Note_on_c, 0, 82, 45
1, 280983, Note_off_c, 0, 89, 53
1, 280994, Note_off_c, 0, 80, 55
1, 280995, Note_off_c, 0, 87, 57
1, 281007, Note_off_c, 0, 82, 58
1, 281016, Note_on_c, 0, 83, 55
1, 281019, Note_on_c, 0, 86, 51
1, 281019, Note_on_c, 0, 88, 53
1, 281038, Note_off_c, 0, 83, 62
1, 281041, Note_off_c, 0, 88, 62
1, 281042, Note_off_c, 0, 86, 57
1, 281051, Note_on_c, 0, 89, 62
1, 281066, Note_on_c, 0, 80, 58
1, 281068, Note_on_c, 0, 87, 58
1, 281090, Note_on_c, 0, 82, 47
1, 281090, Note_off_c, 0, 89, 49
1, 281099, Note_off_c, 0, 80, 50
1, 281104, Note_off_c, 0, 87, 62
1, 281112, Note_on_c, 0, 88, 66
1, 281113, Note_on_c, 0, 83, 64
1, 281113, Note_on_c, 0, 86, 59
1, 281116, Note_off_c, 0, 82, 58
1, 281142, Note_off_c, 0, 83, 67
1, 281143, Note_off_c, 0, 88, 63
1, 281149, Note_off_c, 0, 86, 64
1, 281152, Note_on_c, 0, 89, 70
1, 281166, Note_on_c, 0, 80, 58
1, 281173, Note_on_c, 0, 87, 69
1, 281203, Note_on_c, 0, 82, 42
1, 281206, Note_off_c, 0, 80, 53
1, 281208, Note_off_c, 0, 89, 59
1, 281216, Note_off_c, 0, 87, 50
1, 281219, Note_on_c, 0, 83, 66
1, 281223, Note_on_c, 0, 88, 63
1, 281226, Note_on_c, 0, 86, 58
1, 281232, Note_off_c, 0, 82, 57
1, 281248, Note_off_c, 0, 83, 66
1, 281251, Note_off_c, 0, 86, 59
1, 281251, Note_off_c, 0, 88, 66
1, 281265, Note_on_c, 0, 89, 63
1, 281280, Note_on_c, 0, 80, 64
1, 281289, Note_on_c, 0, 87, 60
1, 281310, Note_on_c, 0, 82, 52
1, 281320, Note_off_c, 0, 80, 54
1, 281325, Note_off_c, 0, 89, 58
1, 281330, Note_off_c, 0, 87, 56
1, 281333, Note_off_c, 0, 82, 61
1, 281335, Note_on_c, 0, 88, 58
1, 281336, Note_on_c, 0, 83, 58
1, 281340, Note_on_c, 0, 86, 58
1, 281358, Note_off_c, 0, 83, 63
1, 281360, Note_off_c, 0, 88, 60
1, 281361, Note_off_c, 0, 86, 62
1, 281378, Note_on_c, 0, 89, 61
1, 281390, Note_on_c, 0, 80, 53
1, 281393, Note_on_c, 0, 87, 64
1, 281408, Note_on_c, 0, 82, 56
1, 281421, Note_off_c, 0, 80, 51
1, 281428, Note_on_c, 0, 83, 73
1, 281428, Note_off_c, 0, 82, 64
1, 281432, Note_on_c, 0, 88, 72
1, 281434, Note_on_c, 0, 86, 68
1, 281438, Note_off_c, 0, 89, 50
1, 281453, Note_off_c, 0, 87, 60
1, 281463, Note_off_c, 0, 86, 61
1, 281472, Note_off_c, 0, 83, 62
1, 281478, Note_off_c, 0, 88, 61
1, 281487, Note_on_c, 0, 89, 57
1, 281494, Note_on_c, 0, 80, 71
1, 281494, Note_on_c, 0, 87, 52
1, 281511, Note_on_c, 0, 82, 52
1, 281527, Note_off_c, 0, 80, 53
1, 281534, Note_off_c, 0, 82, 63
1, 281539, Note_off_c, 0, 89, 59
1, 281548, Note_on_c, 0, 83, 53
1, 281560, Note_on_c, 0, 86, 40
1, 281560, Note_off_c, 0, 87, 60
1, 281561, Note_on_c, 0, 88, 22
1, 281571, Note_off_c, 0, 83, 66
1, 281589, Note_off_c, 0, 86, 52
1, 281599, Note_off_c, 0, 88, 53
1, 281601, Note_on_c, 0, 87, 49
1, 281613, Note_on_c, 0, 80, 51
1, 281620, Note_on_c, 0, 89, 42
1, 281623, Note_on_c, 0, 82, 45
1, 281641, Note_off_c, 0, 80, 51
1, 281645, Note_on_c, 0, 88, 65
1, 281653, Note_on_c, 0, 83, 64
1, 281653, Note_off_c, 0, 82, 53
1, 281667, Note_off_c, 0, 87, 64
1, 281667, Note_off_c, 0, 89, 49
1, 281669, Note_on_c, 0, 86, 45
1, 281680, Note_on_c, 0, 80, 67
1, 281688, Note_off_c, 0, 88, 64
1, 281697, Note_off_c, 0, 86, 55
1, 281703, Poly_aftertouch_c, 0, 87, 0
1, 281718, Note_off_c, 0, 83, 64
1, 281722, Note_on_c, 0, 82, 55
1, 281739, Poly_aftertouch_c, 0, 87, 127
1, 281741, Note_off_c, 0, 82, 65
1, 281748, Note_off_c, 0, 80, 59
1, 281769, Poly_aftertouch_c, 0, 87, 0
1, 281769, Note_on_c, 0, 88, 76
1, 281807, Note_on_c, 0, 86, 63
1, 281847, Note_off_c, 0, 88, 63
1, 281870, Note_on_c, 0, 83, 42
1, 281886, Note_on_c, 0, 80, 45
1, 281894, Note_off_c, 0, 86, 58
1, 281901, Note_off_c, 0, 83, 53
1, 281916, Note_on_c, 0, 74, 61
1, 281916, Note_on_c, 0, 76, 57
1, 281928, Note_off_c, 0, 80, 63
1, 281932, Note_on_c, 0, 77, 68
1, 281951, Note_off_c, 0, 77, 65
1, 281978, Note_off_c, 0, 74, 53
1, 281979, Note_on_c, 0, 72, 43
1, 282004, Note_off_c, 0, 76, 38
1, 282007, Note_off_c, 0, 72, 55
1, 282028, Note_on_c, 0, 67, 25
1, 282052, Note_on_c, 0, 76, 59
1, 282066, Note_off_c, 0, 67, 51
1, 282132, Note_on_c, 0, 72, 39
1, 282138, Note_off_c, 0, 76, 65
1, 282156, Note_on_c, 0, 71, 47
1, 282165, Note_on_c, 0, 74, 3
1, 282174, Note_off_c, 0, 72, 46
1, 282181, Note_off_c, 0, 71, 61
1, 282191, Note_on_c, 0, 68, 46
1, 282192, Note_on_c, 0, 65, 57
1, 282200, Note_off_c, 0, 74, 57
1, 282213, Note_on_c, 0, 61, 49
1, 282220, Note_on_c, 0, 62, 31
1, 282236, Note_off_c, 0, 68, 46
1, 282255, Poly_aftertouch_c, 0, 64, 127
1, 282267, Note_off_c, 0, 65, 65
1, 282287, Note_on_c, 0, 56, 64
1, 282299, Note_off_c, 0, 62, 40
1, 282300, Poly_aftertouch_c, 0, 64, 0
1, 282317, Note_off_c, 0, 61, 57
1, 282535, Note_on_c, 0, 66, 65
1, 282536, Control_c, 0, 64, 105
1, 282549, Note_on_c, 0, 71, 49
1, 282550, Control_c, 0, 64, 76
1, 282553, Note_on_c, 0, 62, 55
1, 282565, Control_c, 0, 64, 63
1, 282580, Control_c, 0, 64, 49
1, 282595, Control_c, 0, 64, 25
1, 282609, Control_c, 0, 64, 0
1, 282654, Control_c, 0, 64, 32
1, 282669, Control_c, 0, 64, 49
1, 282679, Note_on_c, 0, 68, 25
1, 282683, Note_off_c, 0, 71, 36
1, 282684, Control_c, 0, 64, 64
1, 282699, Control_c, 0, 64, 95
1, 282714, Control_c, 0, 64, 127
1, 282759, Note_off_c, 0, 62, 56
1, 282780, Note_on_c, 0, 64, 32
1, 282820, Note_off_c, 0, 68, 40
1, 282848, Note_on_c, 0, 67, 44
1, 282871, Note_off_c, 0, 66, 62
1, 282884, Note_off_c, 0, 64, 34
1, 282903, Note_off_c, 0, 67, 55
1, 282923, Note_on_c, 0, 71, 46
1, 282991, Note_off_c, 0, 71, 54
1, 283006, Note_on_c, 0, 65, 65
1, 283030, Note_on_c, 0, 61, 51
1, 283047, Note_off_c, 0, 65, 62
1, 283057, Poly_aftertouch_c, 0, 68, 127
1, 283072, Note_on_c, 0, 64, 33
1, 283077, Note_off_c, 0, 61, 59
1, 283101, Poly_aftertouch_c, 0, 68, 0
1, 283119, Note_on_c, 0, 67, 40
1, 283135, Note_off_c, 0, 64, 40
1, 283176, Note_off_c, 0, 67, 43
1, 283180, Control_c, 0, 64, 110
1, 283191, Note_on_c, 0, 66, 69
1, 283194, Control_c, 0, 64, 80
1, 283195, Note_on_c, 0, 62, 50
1, 283203, Note_on_c, 0, 71, 54
1, 283209, Control_c, 0, 64, 66
1, 283210, Note_off_c, 0, 56, 0
1, 283210, Note_on_c, 0, 56, 4
1, 283224, Control_c, 0, 64, 56
1, 283239, Control_c, 0, 64, 41
1, 283255, Control_c, 0, 64, 27
1, 283270, Control_c, 0, 64, 25
1, 283274, Note_off_c, 0, 71, 51
1, 283285, Control_c, 0, 64, 27
1, 283299, Control_c, 0, 64, 40
1, 283307, Note_on_c, 0, 68, 35
1, 283314, Control_c, 0, 64, 52
1, 283329, Control_c, 0, 64, 64
1, 283343, Control_c, 0, 64, 83
1, 283358, Control_c, 0, 64, 127
1, 283387, Note_on_c, 0, 64, 34
1, 283387, Note_off_c, 0, 62, 63
1, 283388, Control_c, 0, 64, 122
1, 283403, Control_c, 0, 64, 115
1, 283417, Control_c, 0, 64, 114
1, 283423, Note_on_c, 0, 67, 50
1, 283426, Note_off_c, 0, 68, 31
1, 283469, Note_off_c, 0, 64, 37
1, 283484, Note_off_c, 0, 67, 52
1, 283491, Note_off_c, 0, 66, 61
1, 283502, Note_on_c, 0, 71, 47
1, 283543, Control_c, 0, 64, 113
1, 283564, Note_off_c, 0, 71, 55
1, 283574, Control_c, 0, 64, 111
1, 283583, Note_on_c, 0, 68, 29
1, 283589, Control_c, 0, 64, 110
1, 283619, Control_c, 0, 64, 109
1, 283623, Note_on_c, 0, 65, 65
1, 283656, Note_on_c, 0, 64, 36
1, 283658, Note_on_c, 0, 61, 42
1, 283672, Note_off_c, 0, 65, 62
1, 283674, Note_off_c, 0, 68, 37
1, 283705, Note_off_c, 0, 61, 46
1, 283714, Note_on_c, 0, 67, 41
1, 283717, Note_off_c, 0, 64, 41
1, 283811, Control_c, 0, 64, 108
1, 283826, Control_c, 0, 64, 106
1, 283841, Control_c, 0, 64, 100
1, 283850, Note_on_c, 0, 71, 46
1, 283855, Control_c, 0, 64, 90
1, 283861, Note_on_c, 0, 66, 60
1, 283870, Control_c, 0, 64, 75
1, 283883, Note_on_c, 0, 62, 51
1, 283885, Control_c, 0, 64, 64
1, 283893, Note_off_c, 0, 67, 42
1, 283900, Control_c, 0, 64, 53
1, 283915, Control_c, 0, 64, 36
1, 283930, Note_off_c, 0, 71, 52
1, 283930, Control_c, 0, 64, 14
1, 283944, Control_c, 0, 64, 0
1, 283960, Note_on_c, 0, 68, 32
1, 283974, Control_c, 0, 64, 18
1, 283989, Control_c, 0, 64, 32
1, 284004, Control_c, 0, 64, 44
1, 284018, Control_c, 0, 64, 56
1, 284033, Control_c, 0, 64, 66
1, 284049, Control_c, 0, 64, 79
1, 284064, Control_c, 0, 64, 92
1, 284084, Note_on_c, 0, 64, 40
1, 284160, Note_on_c, 0, 67, 37
1, 284167, Control_c, 0, 64, 92
1, 284177, Note_off_c, 0, 68, 39
1, 284182, Control_c, 0, 64, 93
1, 284217, Note_off_c, 0, 64, 42
1, 284220, Note_on_c, 0, 71, 46
1, 284256, Control_c, 0, 64, 93
1, 284259, Note_off_c, 0, 67, 36
1, 284276, Note_off_c, 0, 71, 58
1, 284316, Note_on_c, 0, 68, 33
1, 284374, Note_off_c, 0, 68, 41
1, 284374, Note_on_c, 0, 64, 13
1, 284401, Note_on_c, 0, 67, 43
1, 284476, Note_on_c, 0, 71, 48
1, 284477, Note_off_c, 0, 64, 34
1, 284525, Note_off_c, 0, 67, 35
1, 284532, Note_off_c, 0, 71, 55
1, 284550, Note_on_c, 0, 68, 40
1, 284604, Note_on_c, 0, 64, 40
1, 284641, Note_off_c, 0, 68, 38
1, 284653, Note_on_c, 0, 67, 44
1, 284708, Note_off_c, 0, 64, 46
1, 284731, Note_on_c, 0, 71, 51
1, 284733, Note_off_c, 0, 67, 48
1, 284781, Note_off_c, 0, 71, 55
1, 284794, Note_on_c, 0, 68, 39
1, 284852, Note_on_c, 0, 64, 42
1, 284858, Note_off_c, 0, 68, 46
1, 284915, Note_on_c, 0, 67, 42
1, 284980, Note_on_c, 0, 71, 50
1, 284985, Note_off_c, 0, 64, 34
1, 284988, Note_off_c, 0, 67, 49
1, 285044, Note_off_c, 0, 71, 57
1, 285051, Note_on_c, 0, 68, 48
1, 285105, Note_on_c, 0, 64, 50
1, 285118, Note_off_c, 0, 68, 49
1, 285164, Note_on_c, 0, 67, 49
1, 285194, Note_off_c, 0, 64, 52
1, 285214, Note_on_c, 0, 71, 58
1, 285224, Note_off_c, 0, 67, 55
1, 285286, Note_off_c, 0, 71, 61
1, 285299, Note_off_c, 0, 66, 52
1, 285307, Note_on_c, 0, 68, 39
1, 285308, Control_c, 0, 64, 94
1, 285322, Control_c, 0, 64, 95
1, 285334, Note_on_c, 0, 64, 46
1, 285337, Control_c, 0, 64, 96
1, 285352, Control_c, 0, 64, 98
1, 285367, Control_c, 0, 64, 99
1, 285370, Note_off_c, 0, 68, 47
1, 285382, Control_c, 0, 64, 100
1, 285394, Note_on_c, 0, 67, 43
1, 285397, Control_c, 0, 64, 102
1, 285412, Control_c, 0, 64, 104
1, 285426, Control_c, 0, 64, 105
1, 285435, Note_on_c, 0, 71, 51
1, 285441, Control_c, 0, 64, 106
1, 285456, Note_off_c, 0, 64, 36
1, 285456, Control_c, 0, 64, 107
1, 285471, Control_c, 0, 64, 108
1, 285475, Note_off_c, 0, 62, 37
1, 285486, Control_c, 0, 64, 109
1, 285495, Note_on_c, 0, 68, 47
1, 285495, Note_off_c, 0, 67, 36
1, 285501, Control_c, 0, 64, 110
1, 285515, Control_c, 0, 64, 114
1, 285522, Note_off_c, 0, 71, 60
1, 285530, Control_c, 0, 64, 117
1, 285545, Control_c, 0, 64, 119
1, 285547, Note_off_c, 0, 68, 60
1, 285560, Control_c, 0, 64, 122
1, 285563, Note_on_c, 0, 64, 59
1, 285575, Control_c, 0, 64, 127
1, 285590, Note_on_c, 0, 61, 51
1, 285624, Note_on_c, 0, 65, 59
1, 285625, Note_off_c, 0, 64, 61
1, 285638, Note_off_c, 0, 61, 62
1, 285638, Note_off_c, 0, 56, 42
1, 285665, Note_on_c, 0, 62, 56
1, 285685, Note_on_c, 0, 66, 62
1, 285693, Note_off_c, 0, 65, 63
1, 285739, Note_off_c, 0, 66, 63
1, 285764, Note_on_c, 0, 67, 71
1, 285775, Control_c, 0, 64, 122
1, 285780, Note_on_c, 0, 63, 47
1, 285790, Control_c, 0, 64, 119
1, 285797, Note_off_c, 0, 62, 52
1, 285805, Control_c, 0, 64, 117
1, 285820, Control_c, 0, 64, 115
1, 285835, Note_off_c, 0, 67, 62
1, 285837, Note_on_c, 0, 68, 71
1, 285847, Note_off_c, 0, 63, 61
1, 285850, Control_c, 0, 64, 114
1, 285863, Note_on_c, 0, 64, 56
1, 285880, Control_c, 0, 64, 113
1, 285894, Control_c, 0, 64, 111
1, 285906, Note_on_c, 0, 69, 60
1, 285909, Control_c, 0, 64, 109
1, 285910, Note_off_c, 0, 68, 59
1, 285924, Control_c, 0, 64, 108
1, 285939, Control_c, 0, 64, 108
1, 285953, Control_c, 0, 64, 106
1, 285968, Control_c, 0, 64, 104
1, 285983, Control_c, 0, 64, 101
1, 285998, Control_c, 0, 64, 99
1, 286013, Control_c, 0, 64, 97
1, 286018, Note_off_c, 0, 64, 36
1, 286027, Control_c, 0, 64, 94
1, 286042, Control_c, 0, 64, 89
1, 286053, Note_off_c, 0, 69, 61
1, 286057, Control_c, 0, 64, 82
1, 286065, Note_on_c, 0, 65, 68
1, 286072, Control_c, 0, 64, 73
1, 286082, Note_on_c, 0, 61, 50
1, 286086, Control_c, 0, 64, 64
1, 286088, Note_on_c, 0, 70, 54
1, 286101, Control_c, 0, 64, 55
1, 286103, Note_on_c, 0, 55, 41
1, 286116, Control_c, 0, 64, 40
1, 286131, Control_c, 0, 64, 14
1, 286145, Control_c, 0, 64, 0
1, 286219, Control_c, 0, 64, 25
1, 286234, Control_c, 0, 64, 37
1, 286249, Control_c, 0, 64, 49
1, 286264, Control_c, 0, 64, 59
1, 286279, Control_c, 0, 64, 68
1, 286294, Control_c, 0, 64, 81
1, 286309, Control_c, 0, 64, 90
1, 286369, Note_off_c, 0, 65, 49
1, 286413, Note_off_c, 0, 70, 35
1, 286443, Control_c, 0, 64, 89
1, 286449, Note_on_c, 0, 69, 52
1, 286455, Note_on_c, 0, 64, 55
1, 286458, Control_c, 0, 64, 89
1, 286473, Control_c, 0, 64, 88
1, 286503, Control_c, 0, 64, 87
1, 286524, Control_c, 0, 64, 83
1, 286534, Note_off_c, 0, 64, 60
1, 286539, Control_c, 0, 64, 76
1, 286555, Control_c, 0, 64, 64
1, 286561, Note_off_c, 0, 69, 57
1, 286563, Note_on_c, 0, 70, 50
1, 286569, Control_c, 0, 64, 50
1, 286575, Note_on_c, 0, 65, 51
1, 286584, Control_c, 0, 64, 20
1, 286599, Control_c, 0, 64, 0
1, 286620, Note_off_c, 0, 70, 0
1, 286620, Note_on_c, 0, 70, 18
1, 286628, Note_off_c, 0, 65, 0
1, 286628, Note_on_c, 0, 65, 22
1, 286658, Control_c, 0, 64, 28
1, 286673, Control_c, 0, 64, 45
1, 286688, Control_c, 0, 64, 60
1, 286697, Note_off_c, 0, 65, 60
1, 286702, Note_off_c, 0, 55, 40
1, 286703, Control_c, 0, 64, 79
1, 286717, Control_c, 0, 64, 127
1, 286735, Note_off_c, 0, 61, 44
1, 286893, Note_on_c, 0, 66, 50
1, 286959, Note_on_c, 0, 67, 48
1, 286973, Note_off_c, 0, 66, 60
1, 286988, Note_off_c, 0, 67, 65
1, 287036, Note_on_c, 0, 73, 52
1, 287045, Note_off_c, 0, 70, 43
1, 287075, Note_off_c, 0, 73, 62
1, 287123, Note_on_c, 0, 76, 52
1, 287194, Note_on_c, 0, 78, 52
1, 287231, Note_off_c, 0, 76, 34
1, 287251, Note_on_c, 0, 79, 65
1, 287291, Note_off_c, 0, 78, 39
1, 287307, Note_off_c, 0, 79, 60
1, 287323, Note_on_c, 0, 82, 48
1, 287356, Note_on_c, 0, 85, 61
1, 287392, Note_on_c, 0, 88, 49
1, 287449, Note_on_c, 0, 89, 61
1, 287498, Note_off_c, 0, 88, 57
1, 287510, Note_on_c, 0, 91, 54
1, 287520, Note_off_c, 0, 85, 35
1, 287582, Note_off_c, 0, 89, 51
1, 287611, Note_off_c, 0, 91, 53
1, 287656, Note_off_c, 0, 82, 44
1, 287680, Note_on_c, 0, 90, 42
1, 287686, Note_on_c, 0, 87, 40
1, 287686, Note_on_c, 0, 88, 49
1, 287741, Note_off_c, 0, 88, 59
1, 287743, Note_off_c, 0, 87, 51
1, 287779, Note_off_c, 0, 90, 41
1, 287783, Note_on_c, 0, 91, 59
1, 287787, Note_on_c, 0, 82, 48
1, 287810, Note_on_c, 0, 89, 40
1, 287829, Note_on_c, 0, 85, 12
1, 287842, Note_off_c, 0, 82, 47
1, 287845, Note_off_c, 0, 91, 51
1, 287852, Note_off_c, 0, 89, 48
1, 287864, Note_on_c, 0, 87, 48
1, 287866, Note_on_c, 0, 88, 54
1, 287873, Note_on_c, 0, 90, 48
1, 287874, Note_off_c, 0, 85, 52
1, 287908, Note_off_c, 0, 88, 61
1, 287912, Note_off_c, 0, 87, 62
1, 287917, Note_off_c, 0, 90, 50
1, 287951, Note_on_c, 0, 82, 44
1, 287957, Note_on_c, 0, 89, 48
1, 287957, Note_on_c, 0, 91, 50
1, 287982, Note_off_c, 0, 82, 54
1, 287990, Note_off_c, 0, 91, 48
1, 287993, Note_off_c, 0, 89, 51
1, 288016, Poly_aftertouch_c, 0, 85, 127
1, 288023, Note_on_c, 0, 90, 51
1, 288031, Note_on_c, 0, 87, 47
1, 288035, Note_on_c, 0, 88, 42
1, 288063, Note_off_c, 0, 90, 50
1, 288066, Note_off_c, 0, 88, 57
1, 288067, Note_off_c, 0, 87, 50
1, 288075, Note_on_c, 0, 82, 56
1, 288085, Note_on_c, 0, 91, 54
1, 288096, Note_on_c, 0, 89, 42
1, 288109, Note_off_c, 0, 82, 51
1, 288113, Note_off_c, 0, 91, 50
1, 288125, Note_off_c, 0, 89, 56
1, 288141, Poly_aftertouch_c, 0, 85, 0
1, 288156, Note_on_c, 0, 90, 50
1, 288157, Note_on_c, 0, 87, 48
1, 288157, Note_on_c, 0, 88, 45
1, 288187, Note_off_c, 0, 88, 56
1, 288190, Note_off_c, 0, 87, 52
1, 288196, Note_on_c, 0, 82, 52
1, 288200, Note_off_c, 0, 90, 47
1, 288205, Note_on_c, 0, 91, 42
1, 288218, Note_on_c, 0, 85, 33
1, 288225, Note_on_c, 0, 89, 34
1, 288231, Note_off_c, 0, 82, 50
1, 288237, Note_off_c, 0, 91, 48
1, 288249, Note_off_c, 0, 85, 49
1, 288261, Note_off_c, 0, 89, 51
1, 288273, Note_on_c, 0, 88, 51
1, 288281, Note_on_c, 0, 87, 44
1, 288281, Note_on_c, 0, 90, 43
1, 288307, Note_off_c, 0, 88, 51
1, 288308, Note_off_c, 0, 87, 55
1, 288321, Note_on_c, 0, 89, 43
1, 288321, Note_off_c, 0, 90, 51
1, 288324, Note_on_c, 0, 82, 38
1, 288335, Note_on_c, 0, 91, 33
1, 288343, Note_on_c, 0, 85, 26
1, 288354, Note_off_c, 0, 82, 56
1, 288357, Note_off_c, 0, 89, 52
1, 288369, Note_off_c, 0, 91, 49
1, 288380, Note_off_c, 0, 85, 52
1, 288382, Note_on_c, 0, 90, 43
1, 288386, Note_on_c, 0, 87, 51
1, 288389, Note_on_c, 0, 88, 53
1, 288411, Note_off_c, 0, 88, 61
1, 288414, Note_off_c, 0, 87, 54
1, 288416, Note_off_c, 0, 90, 55
1, 288426, Note_on_c, 0, 82, 58
1, 288441, Note_on_c, 0, 89, 49
1, 288443, Note_on_c, 0, 91, 38
1, 288452, Note_on_c, 0, 85, 24
1, 288455, Note_off_c, 0, 82, 54
1, 288471, Note_off_c, 0, 89, 56
1, 288476, Note_off_c, 0, 91, 49
1, 288489, Note_on_c, 0, 88, 62
1, 288490, Note_on_c, 0, 87, 54
1, 288490, Note_off_c, 0, 85, 42
1, 288493, Note_on_c, 0, 90, 59
1, 288521, Note_off_c, 0, 88, 65
1, 288524, Note_off_c, 0, 87, 60
1, 288535, Note_on_c, 0, 82, 56
1, 288550, Note_on_c, 0, 91, 51
1, 288550, Note_on_c, 0, 85, 49
1, 288561, Note_on_c, 0, 89, 51
1, 288565, Note_off_c, 0, 82, 53
1, 288574, Note_off_c, 0, 85, 61
1, 288580, Note_off_c, 0, 91, 51
1, 288584, Note_off_c, 0, 89, 62
1, 288586, Note_off_c, 0, 90, 0
1, 288599, Note_on_c, 0, 87, 56
1, 288601, Note_on_c, 0, 88, 61
1, 288609, Note_on_c, 0, 90, 30
1, 288632, Note_off_c, 0, 88, 62
1, 288637, Note_off_c, 0, 87, 59
1, 288649, Note_off_c, 0, 90, 53
1, 288654, Note_on_c, 0, 82, 59
1, 288655, Note_on_c, 0, 85, 59
1, 288658, Note_on_c, 0, 91, 61
1, 288665, Note_on_c, 0, 89, 58
1, 288688, Note_off_c, 0, 82, 55
1, 288688, Note_off_c, 0, 85, 61
1, 288696, Note_off_c, 0, 91, 46
1, 288696, Note_off_c, 0, 89, 56
1, 288725, Note_on_c, 0, 88, 43
1, 288729, Note_on_c, 0, 87, 29
1, 288732, Note_on_c, 0, 90, 40
1, 288751, Note_off_c, 0, 88, 57
1, 288771, Note_off_c, 0, 87, 45
1, 288772, Note_off_c, 0, 90, 55
1, 288780, Note_on_c, 0, 82, 50
1, 288786, Note_on_c, 0, 91, 48
1, 288786, Note_on_c, 0, 85, 49
1, 288788, Note_on_c, 0, 89, 54
1, 288807, Note_off_c, 0, 82, 55
1, 288810, Note_off_c, 0, 85, 59
1, 288813, Note_off_c, 0, 89, 59
1, 288816, Note_off_c, 0, 91, 49
1, 288818, Note_on_c, 0, 90, 58
1, 288825, Note_on_c, 0, 87, 53
1, 288827, Note_on_c, 0, 88, 66
1, 288854, Note_off_c, 0, 88, 65
1, 288855, Note_off_c, 0, 87, 65
1, 288859, Note_off_c, 0, 90, 63
1, 288884, Note_on_c, 0, 85, 62
1, 288889, Note_on_c, 0, 82, 53
1, 288896, Note_on_c, 0, 89, 59
1, 288896, Note_on_c, 0, 91, 55
1, 288914, Note_off_c, 0, 82, 58
1, 288915, Note_off_c, 0, 85, 62
1, 288918, Note_off_c, 0, 91, 57
1, 288921, Note_off_c, 0, 89, 60
1, 288928, Note_on_c, 0, 87, 65
1, 288937, Note_on_c, 0, 88, 61
1, 288941, Note_on_c, 0, 90, 65
1, 288968, Note_off_c, 0, 88, 65
1, 288971, Note_off_c, 0, 90, 53
1, 288973, Note_off_c, 0, 87, 61
1, 288992, Note_on_c, 0, 91, 63
1, 288994, Note_on_c, 0, 82, 62
1, 288996, Note_on_c, 0, 85, 60
1, 288996, Note_on_c, 0, 89, 65
1, 289020, Note_off_c, 0, 82, 58
1, 289025, Note_off_c, 0, 85, 66
1, 289033, Note_off_c, 0, 91, 60
1, 289033, Note_off_c, 0, 89, 65
1, 289044, Note_on_c, 0, 87, 51
1, 289048, Note_on_c, 0, 88, 64
1, 289056, Note_on_c, 0, 90, 48
1, 289077, Note_off_c, 0, 88, 65
1, 289081, Note_off_c, 0, 90, 62
1, 289083, Note_off_c, 0, 87, 61
1, 289106, Note_on_c, 0, 82, 56
1, 289107, Note_on_c, 0, 91, 59
1, 289111, Note_on_c, 0, 85, 54
1, 289113, Note_on_c, 0, 89, 48
1, 289129, Note_off_c, 0, 82, 60
1, 289131, Note_off_c, 0, 85, 62
1, 289137, Note_off_c, 0, 91, 50
1, 289138, Note_off_c, 0, 89, 60
1, 289147, Note_on_c, 0, 87, 61
1, 289151, Note_on_c, 0, 88, 67
1, 289156, Note_on_c, 0, 90, 62
1, 289180, Note_off_c, 0, 87, 62
1, 289181, Note_off_c, 0, 88, 64
1, 289206, Note_on_c, 0, 82, 61
1, 289211, Note_on_c, 0, 85, 56
1, 289213, Note_on_c, 0, 91, 58
1, 289214, Note_on_c, 0, 89, 63
1, 289220, Note_off_c, 0, 90, 37
1, 289233, Note_off_c, 0, 82, 59
1, 289240, Note_off_c, 0, 91, 53
1, 289241, Note_off_c, 0, 85, 66
1, 289244, Note_off_c, 0, 89, 67
1, 289250, Note_on_c, 0, 88, 70
1, 289252, Note_on_c, 0, 87, 54
1, 289271, Poly_aftertouch_c, 0, 90, 127
1, 289284, Note_off_c, 0, 87, 64
1, 289284, Poly_aftertouch_c, 0, 90, 0
1, 289287, Note_off_c, 0, 88, 62
1, 289316, Note_on_c, 0, 82, 54
1, 289317, Note_on_c, 0, 89, 60
1, 289320, Note_on_c, 0, 85, 60
1, 289322, Note_on_c, 0, 91, 51
1, 289343, Note_off_c, 0, 82, 58
1, 289345, Note_off_c, 0, 85, 65
1, 289346, Note_off_c, 0, 91, 55
1, 289352, Note_off_c, 0, 89, 52
1, 289357, Note_on_c, 0, 87, 64
1, 289358, Note_on_c, 0, 88, 69
1, 289365, Note_on_c, 0, 90, 55
1, 289385, Note_off_c, 0, 88, 64
1, 289388, Note_off_c, 0, 87, 64
1, 289397, Note_off_c, 0, 90, 62
1, 289414, Note_on_c, 0, 82, 68
1, 289418, Note_on_c, 0, 91, 62
1, 289424, Note_on_c, 0, 85, 56
1, 289427, Note_on_c, 0, 89, 61
1, 289452, Note_off_c, 0, 85, 62
1, 289457, Note_off_c, 0, 82, 50
1, 289462, Note_on_c, 0, 87, 69
1, 289462, Note_off_c, 0, 91, 43
1, 289469, Note_off_c, 0, 89, 60
1, 289469, Note_on_c, 0, 88, 61
1, 289472, Note_on_c, 0, 90, 50
1, 289487, Note_off_c, 0, 88, 67
1, 289495, Note_off_c, 0, 90, 63
1, 289502, Note_off_c, 0, 87, 62
1, 289575, Note_on_c, 0, 85, 10
1, 289585, Note_on_c, 0, 91, 82
1, 289622, Note_off_c, 0, 85, 37
1, 289651, Note_on_c, 0, 89, 72
1, 289684, Note_off_c, 0, 91, 63
1, 289702, Note_on_c, 0, 85, 56
1, 289713, Note_on_c, 0, 82, 74
1, 289725, Note_off_c, 0, 89, 65
1, 289731, Note_off_c, 0, 85, 50
1, 289773, Note_on_c, 0, 79, 60
1, 289774, Note_off_c, 0, 82, 63
1, 289777, Note_on_c, 0, 77, 73
1, 289786, Note_on_c, 0, 81, 73
1, 289822, Note_off_c, 0, 79, 49
1, 289844, Note_off_c, 0, 81, 62
1, 289859, Note_off_c, 0, 77, 62
1, 289872, Note_on_c, 0, 73, 60
1, 289892, Note_off_c, 0, 73, 67
1, 289955, Note_on_c, 0, 81, 35
1, 289960, Note_on_c, 0, 79, 46
1, 289982, Note_on_c, 0, 77, 64
1, 289999, Note_off_c, 0, 81, 48
1, 290032, Note_off_c, 0, 77, 60
1, 290034, Note_on_c, 0, 70, 57
1, 290038, Note_off_c, 0, 79, 37
1, 290052, Note_on_c, 0, 67, 39
1, 290059, Note_on_c, 0, 69, 51
1, 290071, Note_off_c, 0, 70, 55
1, 290103, Note_off_c, 0, 69, 51
1, 290109, Note_on_c, 0, 64, 29
1, 290119, Note_on_c, 0, 65, 26
1, 290153, Note_off_c, 0, 65, 53
1, 290154, Note_off_c, 0, 67, 28
1, 290178, Note_on_c, 0, 61, 41
1, 290194, Note_off_c, 0, 64, 37
1, 290250, Note_off_c, 0, 61, 40
1, 290313, Note_on_c, 0, 54, 69
1, 290357, Control_c, 0, 64, 89
1, 290372, Control_c, 0, 64, 64
1, 290386, Control_c, 0, 64, 53
1, 290401, Control_c, 0, 64, 46
1, 290416, Control_c, 0, 64, 48
1, 290431, Control_c, 0, 64, 56
1, 290446, Control_c, 0, 64, 69
1, 290461, Control_c, 0, 64, 127
1, 290500, Note_on_c, 0, 58, 54
1, 290535, Note_off_c, 0, 54, 57
1, 290565, Note_on_c, 0, 61, 46
1, 290589, Note_on_c, 0, 64, 37
1, 290622, Note_off_c, 0, 58, 53
1, 290629, Note_off_c, 0, 64, 48
1, 290634, Note_off_c, 0, 61, 56
1, 290637, Note_on_c, 0, 67, 46
1, 290683, Note_off_c, 0, 67, 47
1, 290688, Note_on_c, 0, 70, 54
1, 290712, Note_off_c, 0, 70, 62
1, 290780, Note_on_c, 0, 76, 53
1, 290812, Note_off_c, 0, 76, 49
1, 290852, Note_on_c, 0, 79, 55
1, 290879, Note_off_c, 0, 79, 59
1, 290890, Note_on_c, 0, 82, 56
1, 290929, Note_off_c, 0, 82, 63
1, 290945, Note_on_c, 0, 75, 72
1, 290953, Note_on_c, 0, 87, 67
1, 290956, Note_on_c, 0, 63, 61
1, 290995, Note_off_c, 0, 63, 67
1, 291042, Note_off_c, 0, 75, 62
1, 291051, Note_off_c, 0, 87, 61
1, 291054, Note_on_c, 0, 82, 57
1, 291126, Note_off_c, 0, 82, 59
1, 291132, Note_on_c, 0, 79, 46
1, 291157, Note_off_c, 0, 79, 58
1, 291194, Note_on_c, 0, 76, 52
1, 291227, Note_off_c, 0, 76, 51
1, 291249, Note_on_c, 0, 87, 76
1, 291262, Note_on_c, 0, 75, 67
1, 291293, Note_off_c, 0, 87, 62
1, 291317, Note_off_c, 0, 75, 60
1, 291344, Note_on_c, 0, 76, 61
1, 291408, Note_off_c, 0, 76, 52
1, 291428, Note_on_c, 0, 79, 43
1, 291474, Note_on_c, 0, 82, 55
1, 291511, Note_off_c, 0, 82, 63
1, 291520, Note_off_c, 0, 79, 36
1, 291525, Note_on_c, 0, 87, 66
1, 291529, Note_on_c, 0, 75, 65
1, 291537, Note_on_c, 0, 63, 57
1, 291560, Note_off_c, 0, 75, 62
1, 291584, Note_off_c, 0, 63, 65
1, 291597, Note_off_c, 0, 87, 60
1, 291603, Note_on_c, 0, 82, 62
1, 291661, Note_off_c, 0, 82, 62
1, 291663, Note_on_c, 0, 79, 51
1, 291686, Note_off_c, 0, 79, 58
1, 291719, Note_on_c, 0, 76, 57
1, 291743, Note_off_c, 0, 76, 65
1, 291794, Note_on_c, 0, 73, 65
1, 291800, Note_on_c, 0, 61, 54
1, 291835, Note_off_c, 0, 73, 58
1, 291874, Note_off_c, 0, 61, 64
1, 291879, Note_on_c, 0, 76, 53
1, 291944, Note_off_c, 0, 76, 54
1, 291960, Note_on_c, 0, 79, 51
1, 292035, Note_on_c, 0, 82, 53
1, 292045, Note_off_c, 0, 79, 37
1, 292077, Control_c, 0, 64, 89
1, 292082, Note_off_c, 0, 82, 63
1, 292084, Note_on_c, 0, 63, 63
1, 292092, Control_c, 0, 64, 68
1, 292098, Note_on_c, 0, 87, 60
1, 292106, Control_c, 0, 64, 59
1, 292121, Control_c, 0, 64, 52
1, 292136, Control_c, 0, 64, 51
1, 292151, Control_c, 0, 64, 57
1, 292166, Control_c, 0, 64, 67
1, 292180, Control_c, 0, 64, 127
1, 292187, Note_on_c, 0, 82, 55
1, 292189, Note_off_c, 0, 87, 55
1, 292233, Note_on_c, 0, 79, 48
1, 292233, Note_off_c, 0, 82, 59
1, 292260, Note_off_c, 0, 79, 58
1, 292297, Note_on_c, 0, 76, 50
1, 292318, Note_off_c, 0, 76, 64
1, 292338, Note_off_c, 0, 63, 37
1, 292355, Note_on_c, 0, 75, 42
1, 292404, Note_on_c, 0, 70, 58
1, 292408, Note_off_c, 0, 75, 46
1, 292453, Note_off_c, 0, 70, 58
1, 292492, Note_on_c, 0, 67, 50
1, 292548, Note_off_c, 0, 67, 62
1, 292581, Note_on_c, 0, 64, 44
1, 292629, Note_off_c, 0, 64, 61
1, 292662, Note_on_c, 0, 63, 54
1, 292706, Note_off_c, 0, 63, 64
1, 292757, Note_on_c, 0, 64, 33
1, 292813, Note_off_c, 0, 64, 43
1, 292818, Note_on_c, 0, 67, 42
1, 292861, Note_on_c, 0, 70, 50
1, 292877, Note_off_c, 0, 67, 45
1, 292894, Note_off_c, 0, 70, 61
1, 292922, Note_on_c, 0, 75, 48
1, 292975, Note_off_c, 0, 75, 56
1, 292986, Note_on_c, 0, 70, 56
1, 293042, Note_off_c, 0, 70, 49
1, 293058, Note_on_c, 0, 67, 35
1, 293101, Note_off_c, 0, 67, 46
1, 293108, Note_on_c, 0, 64, 36
1, 293150, Note_off_c, 0, 64, 48
1, 293186, Note_on_c, 0, 63, 49
1, 293229, Note_off_c, 0, 63, 65
1, 293264, Note_on_c, 0, 64, 42
1, 293334, Note_on_c, 0, 67, 41
1, 293347, Note_off_c, 0, 64, 50
1, 293392, Note_on_c, 0, 70, 42
1, 293399, Note_off_c, 0, 67, 50
1, 293430, Note_off_c, 0, 70, 49
1, 293448, Note_on_c, 0, 75, 41
1, 293519, Note_off_c, 0, 75, 37
1, 293553, Note_on_c, 0, 70, 42
1, 293607, Note_off_c, 0, 70, 41
1, 293626, Note_on_c, 0, 67, 34
1, 293667, Note_off_c, 0, 67, 48
1, 293715, Note_on_c, 0, 64, 26
1, 293761, Note_off_c, 0, 64, 46
1, 293782, Control_c, 0, 64, 122
1, 293797, Control_c, 0, 64, 75
1, 293812, Control_c, 0, 64, 64
1, 293827, Control_c, 0, 64, 55
1, 293828, Note_on_c, 0, 61, 63
1, 293842, Control_c, 0, 64, 44
1, 293856, Control_c, 0, 64, 39
1, 293871, Control_c, 0, 64, 42
1, 293877, Note_on_c, 0, 64, 22
1, 293886, Control_c, 0, 64, 50
1, 293901, Control_c, 0, 64, 65
1, 293916, Control_c, 0, 64, 127
1, 293937, Note_off_c, 0, 61, 65
1, 293955, Note_on_c, 0, 67, 46
1, 293994, Note_off_c, 0, 64, 41
1, 294035, Note_on_c, 0, 70, 43
1, 294041, Note_off_c, 0, 67, 55
1, 294086, Note_off_c, 0, 70, 44
1, 294098, Note_on_c, 0, 76, 50
1, 294139, Note_off_c, 0, 76, 59
1, 294202, Note_on_c, 0, 85, 55
1, 294212, Note_on_c, 0, 73, 41
1, 294241, Note_off_c, 0, 85, 47
1, 294257, Note_off_c, 0, 73, 51
1, 294273, Note_on_c, 0, 76, 20
1, 294312, Note_off_c, 0, 76, 53
1, 294328, Note_on_c, 0, 70, 38
1, 294365, Note_off_c, 0, 70, 48
1, 294393, Note_on_c, 0, 67, 34
1, 294434, Note_off_c, 0, 67, 49
1, 294475, Note_on_c, 0, 64, 42
1, 294477, Note_on_c, 0, 63, 65
1, 294540, Note_off_c, 0, 64, 60
1, 294563, Note_off_c, 0, 63, 65
1, 294564, Note_on_c, 0, 67, 43
1, 294625, Note_on_c, 0, 70, 50
1, 294642, Note_off_c, 0, 67, 57
1, 294676, Note_off_c, 0, 70, 57
1, 294703, Note_on_c, 0, 76, 45
1, 294739, Note_off_c, 0, 76, 53
1, 294776, Note_on_c, 0, 87, 69
1, 294810, Note_on_c, 0, 75, 32
1, 294834, Note_off_c, 0, 87, 64
1, 294858, Note_off_c, 0, 75, 58
1, 294883, Note_on_c, 0, 76, 9
1, 294917, Note_on_c, 0, 70, 44
1, 294933, Note_off_c, 0, 76, 51
1, 294965, Note_off_c, 0, 70, 43
1, 294993, Note_on_c, 0, 67, 36
1, 295028, Note_off_c, 0, 67, 52
1, 295046, Note_on_c, 0, 58, 66
1, 295058, Note_on_c, 0, 64, 45
1, 295124, Note_off_c, 0, 58, 62
1, 295127, Note_on_c, 0, 67, 49
1, 295144, Note_off_c, 0, 64, 58
1, 295201, Note_on_c, 0, 70, 47
1, 295213, Note_off_c, 0, 67, 58
1, 295260, Note_off_c, 0, 70, 55
1, 295274, Note_on_c, 0, 76, 49
1, 295314, Note_off_c, 0, 76, 57
1, 295342, Note_on_c, 0, 82, 62
1, 295353, Note_on_c, 0, 70, 56
1, 295379, Note_off_c, 0, 82, 63
1, 295409, Note_off_c, 0, 70, 60
1, 295439, Note_on_c, 0, 76, 35
1, 295471, Note_off_c, 0, 76, 56
1, 295478, Note_on_c, 0, 70, 29
1, 295535, Note_off_c, 0, 70, 53
1, 295574, Note_on_c, 0, 67, 17
1, 295618, Note_off_c, 0, 67, 52
1, 295642, Control_c, 0, 64, 107
1, 295648, Note_on_c, 0, 56, 66
1, 295657, Control_c, 0, 64, 72
1, 295663, Note_on_c, 0, 52, 55
1, 295672, Control_c, 0, 64, 60
1, 295675, Note_on_c, 0, 62, 47
1, 295687, Control_c, 0, 64, 48
1, 295702, Control_c, 0, 64, 41
1, 295716, Control_c, 0, 64, 43
1, 295731, Control_c, 0, 64, 51
1, 295742, Note_off_c, 0, 52, 65
1, 295746, Control_c, 0, 64, 63
1, 295761, Control_c, 0, 64, 95
1, 295767, Note_on_c, 0, 65, 43
1, 295769, Note_off_c, 0, 56, 65
1, 295776, Control_c, 0, 64, 127
1, 295824, Note_off_c, 0, 62, 39
1, 295826, Note_on_c, 0, 68, 51
1, 295832, Note_off_c, 0, 65, 58
1, 295872, Note_off_c, 0, 68, 59
1, 295893, Note_on_c, 0, 74, 45
1, 295931, Note_off_c, 0, 74, 64
1, 295961, Note_on_c, 0, 80, 72
1, 295985, Note_on_c, 0, 68, 30
1, 295994, Note_off_c, 0, 80, 57
1, 296065, Note_off_c, 0, 68, 0
1, 296071, Note_on_c, 0, 74, 7
1, 296086, Note_on_c, 0, 68, 26
1, 296116, Note_off_c, 0, 74, 54
1, 296119, Note_off_c, 0, 68, 61
1, 296168, Note_on_c, 0, 65, 35
1, 296205, Note_off_c, 0, 65, 53
1, 296256, Note_on_c, 0, 61, 67
1, 296286, Note_on_c, 0, 65, 41
1, 296327, Note_off_c, 0, 61, 63
1, 296365, Note_on_c, 0, 68, 47
1, 296413, Note_off_c, 0, 65, 32
1, 296415, Note_off_c, 0, 68, 59
1, 296449, Note_on_c, 0, 74, 40
1, 296478, Note_on_c, 0, 77, 57
1, 296512, Note_off_c, 0, 74, 44
1, 296527, Note_off_c, 0, 77, 55
1, 296566, Note_on_c, 0, 85, 55
1, 296575, Note_on_c, 0, 73, 47
1, 296602, Note_off_c, 0, 85, 51
1, 296643, Note_off_c, 0, 73, 47
1, 296664, Note_on_c, 0, 74, 53
1, 296721, Note_off_c, 0, 74, 64
1, 296750, Note_on_c, 0, 68, 46
1, 296778, Note_off_c, 0, 68, 55
1, 296843, Note_on_c, 0, 56, 60
1, 296872, Note_on_c, 0, 62, 50
1, 296904, Note_off_c, 0, 56, 61
1, 296965, Note_on_c, 0, 65, 32
1, 296980, Note_off_c, 0, 62, 52
1, 297022, Note_on_c, 0, 68, 39
1, 297037, Note_off_c, 0, 65, 44
1, 297061, Note_off_c, 0, 68, 48
1, 297096, Note_on_c, 0, 74, 36
1, 297137, Note_off_c, 0, 74, 60
1, 297165, Note_on_c, 0, 80, 64
1, 297173, Note_on_c, 0, 68, 46
1, 297237, Note_off_c, 0, 80, 59
1, 297266, Note_on_c, 0, 74, 38
1, 297274, Note_off_c, 0, 68, 59
1, 297354, Note_off_c, 0, 74, 52
1, 297361, Note_on_c, 0, 68, 8
1, 297442, Note_on_c, 0, 65, 46
1, 297456, Note_off_c, 0, 68, 36
1, 297472, Note_off_c, 0, 65, 60
1, 297541, Note_on_c, 0, 59, 36
1, 297593, Note_on_c, 0, 61, 50
1, 297595, Note_off_c, 0, 59, 42
1, 297669, Note_off_c, 0, 61, 62
1, 297687, Note_on_c, 0, 62, 42
1, 297737, Note_on_c, 0, 64, 42
1, 297740, Note_off_c, 0, 62, 44
1, 297803, Note_off_c, 0, 64, 55
1, 297806, Note_on_c, 0, 68, 47
1, 297853, Note_off_c, 0, 68, 57
1, 297869, Note_on_c, 0, 65, 46
1, 297928, Note_on_c, 0, 62, 41
1, 297968, Note_off_c, 0, 65, 49
1, 297988, Note_on_c, 0, 61, 42
1, 298028, Note_off_c, 0, 62, 41
1, 298042, Note_off_c, 0, 61, 46
1, 298083, Note_on_c, 0, 59, 26
1, 298116, Note_on_c, 0, 61, 32
1, 298121, Note_off_c, 0, 59, 49
1, 298185, Note_on_c, 0, 62, 49
1, 298191, Note_off_c, 0, 61, 55
1, 298241, Note_off_c, 0, 62, 60
1, 298256, Note_on_c, 0, 64, 46
1, 298327, Note_on_c, 0, 68, 47
1, 298337, Note_off_c, 0, 64, 49
1, 298385, Note_off_c, 0, 68, 54
1, 298398, Note_on_c, 0, 65, 43
1, 298477, Note_on_c, 0, 62, 37
1, 298500, Note_off_c, 0, 65, 55
1, 298532, Note_on_c, 0, 61, 35
1, 298532, Note_off_c, 0, 62, 46
1, 298586, Note_off_c, 0, 61, 47
1, 298618, Note_on_c, 0, 59, 37
1, 298655, Note_on_c, 0, 61, 38
1, 298658, Note_off_c, 0, 59, 46
1, 298725, Note_off_c, 0, 61, 57
1, 298741, Note_on_c, 0, 62, 41
1, 298788, Note_on_c, 0, 64, 51
1, 298797, Note_off_c, 0, 62, 44
1, 298864, Note_off_c, 0, 64, 55
1, 298880, Note_on_c, 0, 68, 44
1, 298914, Note_on_c, 0, 65, 38
1, 298945, Note_off_c, 0, 68, 54
1, 299020, Note_on_c, 0, 62, 42
1, 299065, Note_on_c, 0, 61, 44
1, 299066, Note_off_c, 0, 65, 38
1, 299116, Note_off_c, 0, 62, 33
1, 299131, Note_off_c, 0, 61, 56
1, 299156, Control_c, 0, 64, 76
1, 299165, Note_on_c, 0, 59, 34
1, 299171, Control_c, 0, 64, 64
1, 299186, Control_c, 0, 64, 54
1, 299191, Note_on_c, 0, 61, 29
1, 299201, Control_c, 0, 64, 45
1, 299217, Note_off_c, 0, 59, 43
1, 299217, Control_c, 0, 64, 43
1, 299232, Control_c, 0, 64, 47
1, 299254, Control_c, 0, 64, 58
1, 299269, Control_c, 0, 64, 68
1, 299283, Control_c, 0, 64, 91
1, 299296, Note_on_c, 0, 62, 41
1, 299297, Control_c, 0, 64, 127
1, 299351, Note_on_c, 0, 64, 42
1, 299374, Note_off_c, 0, 61, 40
1, 299420, Note_off_c, 0, 62, 45
1, 299421, Note_on_c, 0, 68, 48
1, 299435, Note_off_c, 0, 64, 55
1, 299494, Note_on_c, 0, 65, 43
1, 299494, Note_off_c, 0, 68, 48
1, 299558, Note_on_c, 0, 62, 42
1, 299616, Note_on_c, 0, 61, 37
1, 299621, Note_off_c, 0, 65, 35
1, 299660, Note_off_c, 0, 62, 35
1, 299668, Control_c, 0, 64, 108
1, 299683, Control_c, 0, 64, 83
1, 299684, Note_off_c, 0, 61, 57
1, 299697, Control_c, 0, 64, 67
1, 299700, Note_on_c, 0, 59, 35
1, 299712, Control_c, 0, 64, 57
1, 299727, Control_c, 0, 64, 44
1, 299738, Note_on_c, 0, 61, 31
1, 299742, Control_c, 0, 64, 40
1, 299748, Note_off_c, 0, 59, 45
1, 299757, Control_c, 0, 64, 41
1, 299771, Control_c, 0, 64, 47
1, 299786, Control_c, 0, 64, 55
1, 299801, Control_c, 0, 64, 63
1, 299816, Control_c, 0, 64, 72
1, 299830, Control_c, 0, 64, 80
1, 299840, Note_on_c, 0, 62, 43
1, 299845, Control_c, 0, 64, 81
1, 299906, Note_off_c, 0, 61, 51
1, 299914, Note_on_c, 0, 64, 45
1, 299920, Control_c, 0, 64, 80
1, 299934, Control_c, 0, 64, 80
1, 299948, Note_off_c, 0, 62, 47
1, 299949, Control_c, 0, 64, 79
1, 299964, Control_c, 0, 64, 78
1, 299979, Control_c, 0, 64, 77
1, 299979, Note_on_c, 0, 68, 47
1, 299981, Note_off_c, 0, 64, 53
1, 300001, Control_c, 0, 64, 76
1, 300016, Control_c, 0, 64, 75
1, 300053, Note_off_c, 0, 68, 51
1, 300062, Control_c, 0, 64, 75
1, 300083, Note_on_c, 0, 65, 33
1, 300107, Control_c, 0, 64, 74
1, 300128, Note_on_c, 0, 62, 32
1, 300136, Control_c, 0, 64, 73
1, 300151, Control_c, 0, 64, 72
1, 300166, Control_c, 0, 64, 71
1, 300179, Note_off_c, 0, 65, 37
1, 300181, Control_c, 0, 64, 69
1, 300191, Note_on_c, 0, 61, 39
1, 300196, Control_c, 0, 64, 67
1, 300210, Control_c, 0, 64, 65
1, 300215, Note_off_c, 0, 62, 37
1, 300225, Control_c, 0, 64, 63
1, 300239, Control_c, 0, 64, 61
1, 300254, Control_c, 0, 64, 58
1, 300269, Control_c, 0, 64, 53
1, 300277, Note_on_c, 0, 59, 34
1, 300284, Control_c, 0, 64, 49
1, 300299, Note_off_c, 0, 61, 0
1, 300299, Note_on_c, 0, 61, 13
1, 300299, Control_c, 0, 64, 46
1, 300313, Control_c, 0, 64, 46
1, 300328, Control_c, 0, 64, 47
1, 300342, Note_off_c, 0, 59, 38
1, 300343, Control_c, 0, 64, 50
1, 300358, Control_c, 0, 64, 55
1, 300373, Control_c, 0, 64, 58
1, 300388, Control_c, 0, 64, 61
1, 300402, Control_c, 0, 64, 62
1, 300410, Note_on_c, 0, 62, 43
1, 300417, Control_c, 0, 64, 61
1, 300432, Control_c, 0, 64, 60
1, 300447, Control_c, 0, 64, 59
1, 300462, Control_c, 0, 64, 58
1, 300471, Note_on_c, 0, 64, 30
1, 300477, Control_c, 0, 64, 58
1, 300483, Note_off_c, 0, 61, 43
1, 300513, Note_off_c, 0, 62, 36
1, 300521, Note_on_c, 0, 68, 44
1, 300521, Control_c, 0, 64, 57
1, 300536, Control_c, 0, 64, 57
1, 300537, Note_off_c, 0, 64, 41
1, 300551, Control_c, 0, 64, 56
1, 300566, Control_c, 0, 64, 54
1, 300581, Control_c, 0, 64, 52
1, 300595, Note_off_c, 0, 68, 37
1, 300595, Control_c, 0, 64, 51
1, 300607, Note_on_c, 0, 65, 35
1, 300625, Control_c, 0, 64, 50
1, 300639, Control_c, 0, 64, 50
1, 300654, Control_c, 0, 64, 49
1, 300669, Control_c, 0, 64, 49
1, 300674, Note_on_c, 0, 62, 32
1, 300684, Control_c, 0, 64, 48
1, 300728, Control_c, 0, 64, 49
1, 300736, Note_on_c, 0, 61, 42
1, 300751, Control_c, 0, 64, 50
1, 300751, Note_off_c, 0, 65, 39
1, 300766, Control_c, 0, 64, 53
1, 300780, Control_c, 0, 64, 57
1, 300795, Control_c, 0, 64, 60
1, 300810, Control_c, 0, 64, 61
1, 300826, Control_c, 0, 64, 60
1, 300830, Note_off_c, 0, 62, 44
1, 300841, Control_c, 0, 64, 57
1, 300844, Note_on_c, 0, 59, 34
1, 300856, Control_c, 0, 64, 54
1, 300870, Control_c, 0, 64, 49
1, 300885, Control_c, 0, 64, 45
1, 300894, Note_off_c, 0, 59, 42
1, 300900, Control_c, 0, 64, 41
1, 300915, Control_c, 0, 64, 40
1, 300972, Note_on_c, 0, 62, 34
1, 301003, Control_c, 0, 64, 39
1, 301018, Control_c, 0, 64, 38
1, 301056, Note_on_c, 0, 64, 31
1, 301059, Note_off_c, 0, 61, 46
1, 301077, Control_c, 0, 64, 38
1, 301092, Control_c, 0, 64, 40
1, 301107, Control_c, 0, 64, 42
1, 301119, Note_on_c, 0, 68, 40
1, 301122, Control_c, 0, 64, 46
1, 301125, Note_off_c, 0, 64, 41
1, 301136, Control_c, 0, 64, 50
1, 301151, Note_off_c, 0, 62, 38
1, 301151, Control_c, 0, 64, 53
1, 301166, Control_c, 0, 64, 55
1, 301181, Control_c, 0, 64, 56
1, 301198, Note_off_c, 0, 68, 38
1, 301199, Note_on_c, 0, 65, 38
1, 301211, Control_c, 0, 64, 56
1, 301225, Control_c, 0, 64, 55
1, 301240, Control_c, 0, 64, 52
1, 301255, Control_c, 0, 64, 48
1, 301267, Note_on_c, 0, 62, 33
1, 301270, Control_c, 0, 64, 44
1, 301285, Control_c, 0, 64, 40
1, 301300, Control_c, 0, 64, 37
1, 301315, Control_c, 0, 64, 36
1, 301324, Note_off_c, 0, 65, 45
1, 301335, Note_on_c, 0, 61, 31
1, 301344, Control_c, 0, 64, 37
1, 301359, Control_c, 0, 64, 39
1, 301372, Note_off_c, 0, 62, 28
1, 301374, Control_c, 0, 64, 43
1, 301388, Control_c, 0, 64, 47
1, 301392, Note_on_c, 0, 59, 37
1, 301403, Control_c, 0, 64, 51
1, 301418, Control_c, 0, 64, 55
1, 301422, Note_off_c, 0, 61, 0
1, 301422, Note_on_c, 0, 61, 11
1, 301433, Control_c, 0, 64, 57
1, 301448, Control_c, 0, 64, 58
1, 301477, Control_c, 0, 64, 57
1, 301514, Control_c, 0, 64, 57
1, 301529, Note_off_c, 0, 59, 33
1, 301529, Control_c, 0, 64, 56
1, 301546, Note_on_c, 0, 62, 35
1, 301559, Control_c, 0, 64, 57
1, 301603, Control_c, 0, 64, 55
1, 301619, Control_c, 0, 64, 52
1, 301620, Note_on_c, 0, 64, 38
1, 301634, Control_c, 0, 64, 48
1, 301637, Note_off_c, 0, 61, 42
1, 301648, Control_c, 0, 64, 45
1, 301663, Control_c, 0, 64, 43
1, 301678, Control_c, 0, 64, 42
1, 301681, Note_off_c, 0, 62, 42
1, 301693, Note_off_c, 0, 64, 39
1, 301705, Note_on_c, 0, 68, 18
1, 301708, Control_c, 0, 64, 43
1, 301723, Control_c, 0, 64, 44
1, 301755, Note_off_c, 0, 68, 45
1, 301767, Control_c, 0, 64, 43
1, 301777, Note_on_c, 0, 65, 22
1, 301782, Control_c, 0, 64, 41
1, 301797, Control_c, 0, 64, 37
1, 301812, Control_c, 0, 64, 33
1, 301826, Note_on_c, 0, 62, 29
1, 301826, Control_c, 0, 64, 31
1, 301856, Control_c, 0, 64, 33
1, 301871, Control_c, 0, 64, 36
1, 301886, Control_c, 0, 64, 40
1, 301900, Control_c, 0, 64, 44
1, 301909, Note_on_c, 0, 61, 38
1, 301915, Control_c, 0, 64, 47
1, 301926, Note_off_c, 0, 65, 41
1, 301930, Control_c, 0, 64, 51
1, 301945, Control_c, 0, 64, 53
1, 301960, Control_c, 0, 64, 54
1, 301972, Note_off_c, 0, 62, 44
1, 301974, Control_c, 0, 64, 56
1, 301989, Control_c, 0, 64, 57
1, 301995, Note_on_c, 0, 59, 25
1, 302018, Control_c, 0, 64, 58
1, 302036, Note_off_c, 0, 61, 0
1, 302036, Note_on_c, 0, 61, 16
1, 302078, Control_c, 0, 64, 58
1, 302093, Note_off_c, 0, 59, 29
1, 302093, Control_c, 0, 64, 59
1, 302108, Control_c, 0, 64, 59
1, 302146, Note_on_c, 0, 62, 26
1, 302182, Control_c, 0, 64, 60
1, 302197, Control_c, 0, 64, 60
1, 302211, Control_c, 0, 64, 61
1, 302229, Note_on_c, 0, 64, 27
1, 302274, Note_off_c, 0, 62, 44
1, 302304, Note_off_c, 0, 61, 44
1, 302307, Control_c, 0, 64, 61
1, 302322, Control_c, 0, 64, 62
1, 302329, Note_off_c, 0, 64, 37
1, 302331, Note_on_c, 0, 68, 32
1, 302337, Control_c, 0, 64, 62
1, 302367, Control_c, 0, 64, 63
1, 302397, Control_c, 0, 64, 63
1, 302401, Note_off_c, 0, 68, 39
1, 302412, Control_c, 0, 64, 65
1, 302417, Note_on_c, 0, 65, 36
1, 302427, Control_c, 0, 64, 67
1, 302441, Control_c, 0, 64, 70
1, 302456, Control_c, 0, 64, 72
1, 302471, Control_c, 0, 64, 73
1, 302505, Note_on_c, 0, 62, 34
1, 302531, Control_c, 0, 64, 74
1, 302546, Control_c, 0, 64, 75
1, 302561, Control_c, 0, 64, 77
1, 302576, Control_c, 0, 64, 78
1, 302590, Control_c, 0, 64, 79
1, 302605, Control_c, 0, 64, 80
1, 302620, Control_c, 0, 64, 80
1, 302624, Note_on_c, 0, 61, 39
1, 302624, Note_off_c, 0, 65, 41
1, 302635, Control_c, 0, 64, 82
1, 302649, Control_c, 0, 64, 84
1, 302664, Control_c, 0, 64, 86
1, 302679, Control_c, 0, 64, 88
1, 302686, Note_off_c, 0, 62, 43
1, 302694, Control_c, 0, 64, 89
1, 302709, Control_c, 0, 64, 89
1, 302717, Note_off_c, 0, 61, 59
1, 302723, Control_c, 0, 64, 90
1, 302753, Control_c, 0, 64, 91
1, 302783, Control_c, 0, 64, 92
1, 302827, Control_c, 0, 64, 92
1, 302975, Control_c, 0, 64, 92
1, 302997, Control_c, 0, 64, 90
1, 303012, Control_c, 0, 64, 86
1, 303026, Control_c, 0, 64, 81
1, 303031, Note_on_c, 0, 65, 40
1, 303032, Note_on_c, 0, 67, 49
1, 303035, Note_on_c, 0, 50, 38
1, 303040, Control_c, 0, 64, 75
1, 303055, Control_c, 0, 64, 68
1, 303070, Control_c, 0, 64, 61
1, 303085, Control_c, 0, 64, 52
1, 303100, Control_c, 0, 64, 43
1, 303114, Control_c, 0, 64, 37
1, 303129, Control_c, 0, 64, 37
1, 303144, Control_c, 0, 64, 38
1, 303159, Control_c, 0, 64, 42
1, 303173, Control_c, 0, 64, 50
1, 303188, Control_c, 0, 64, 57
1, 303203, Control_c, 0, 64, 64
1, 303219, Control_c, 0, 64, 72
1, 303234, Control_c, 0, 64, 78
1, 303249, Control_c, 0, 64, 79
1, 303356, Note_on_c, 0, 53, 35
1, 303382, Control_c, 0, 64, 79
1, 303426, Control_c, 0, 64, 78
1, 303456, Control_c, 0, 64, 78
1, 303467, Note_off_c, 0, 50, 31
1, 303485, Control_c, 0, 64, 77
1, 303513, Note_on_c, 0, 58, 35
1, 303539, Note_off_c, 0, 53, 41
1, 303677, Note_on_c, 0, 62, 35
1, 303678, Note_off_c, 0, 58, 36
1, 303784, Note_off_c, 0, 62, 37
1, 303872, Note_on_c, 0, 52, 43
1, 303876, Note_on_c, 0, 66, 46
1, 303878, Control_c, 0, 64, 77
1, 303893, Control_c, 0, 64, 76
1, 303896, Note_on_c, 0, 64, 32
1, 303908, Control_c, 0, 64, 73
1, 303923, Control_c, 0, 64, 67
1, 303924, Note_off_c, 0, 67, 39
1, 303938, Control_c, 0, 64, 62
1, 303950, Note_off_c, 0, 65, 33
1, 303953, Control_c, 0, 64, 56
1, 303968, Control_c, 0, 64, 52
1, 303983, Control_c, 0, 64, 52
1, 303997, Control_c, 0, 64, 53
1, 304010, Note_on_c, 0, 57, 36
1, 304012, Control_c, 0, 64, 57
1, 304027, Control_c, 0, 64, 63
1, 304042, Control_c, 0, 64, 66
1, 304055, Note_off_c, 0, 52, 56
1, 304057, Control_c, 0, 64, 73
1, 304072, Control_c, 0, 64, 74
1, 304118, Note_off_c, 0, 57, 60
1, 304206, Poly_aftertouch_c, 0, 61, 127
1, 304207, Note_on_c, 0, 61, 3
1, 304251, Note_off_c, 0, 61, 49
1, 304294, Control_c, 0, 64, 73
1, 304305, Note_on_c, 0, 67, 47
1, 304307, Note_off_c, 0, 64, 38
1, 304307, Note_on_c, 0, 53, 39
1, 304309, Control_c, 0, 64, 71
1, 304322, Note_on_c, 0, 65, 38
1, 304324, Control_c, 0, 64, 68
1, 304339, Control_c, 0, 64, 65
1, 304347, Note_off_c, 0, 66, 31
1, 304354, Control_c, 0, 64, 62
1, 304368, Control_c, 0, 64, 59
1, 304383, Control_c, 0, 64, 56
1, 304398, Control_c, 0, 64, 56
1, 304412, Control_c, 0, 64, 57
1, 304427, Control_c, 0, 64, 59
1, 304442, Control_c, 0, 64, 63
1, 304457, Control_c, 0, 64, 66
1, 304470, Note_off_c, 0, 53, 49
1, 304472, Control_c, 0, 64, 69
1, 304494, Control_c, 0, 64, 70
1, 304510, Poly_aftertouch_c, 0, 58, 127
1, 304548, Poly_aftertouch_c, 0, 58, 0
1, 304551, Note_on_c, 0, 62, 15
1, 304554, Control_c, 0, 64, 71
1, 304618, Note_off_c, 0, 62, 44
1, 304652, Note_on_c, 0, 54, 46
1, 304654, Note_on_c, 0, 68, 44
1, 304657, Control_c, 0, 64, 69
1, 304672, Control_c, 0, 64, 67
1, 304674, Note_on_c, 0, 66, 38
1, 304674, Note_off_c, 0, 65, 44
1, 304686, Control_c, 0, 64, 63
1, 304695, Note_off_c, 0, 67, 36
1, 304701, Control_c, 0, 64, 58
1, 304716, Control_c, 0, 64, 53
1, 304731, Control_c, 0, 64, 50
1, 304755, Note_on_c, 0, 59, 42
1, 304760, Note_off_c, 0, 54, 37
1, 304761, Control_c, 0, 64, 52
1, 304775, Control_c, 0, 64, 55
1, 304790, Control_c, 0, 64, 60
1, 304806, Control_c, 0, 64, 64
1, 304821, Control_c, 0, 64, 66
1, 304835, Note_off_c, 0, 59, 57
1, 304835, Control_c, 0, 64, 68
1, 304850, Control_c, 0, 64, 69
1, 304880, Note_on_c, 0, 63, 31
1, 304925, Control_c, 0, 64, 69
1, 304969, Note_on_c, 0, 69, 50
1, 304969, Control_c, 0, 64, 69
1, 304972, Note_on_c, 0, 55, 44
1, 304984, Control_c, 0, 64, 67
1, 304989, Note_off_c, 0, 63, 38
1, 304990, Note_off_c, 0, 66, 41
1, 304990, Note_off_c, 0, 68, 49
1, 304991, Note_on_c, 0, 67, 43
1, 304999, Control_c, 0, 64, 65
1, 305014, Control_c, 0, 64, 62
1, 305029, Control_c, 0, 64, 57
1, 305043, Control_c, 0, 64, 52
1, 305045, Note_on_c, 0, 60, 39
1, 305058, Control_c, 0, 64, 47
1, 305073, Control_c, 0, 64, 46
1, 305088, Control_c, 0, 64, 46
1, 305103, Control_c, 0, 64, 48
1, 305117, Control_c, 0, 64, 52
1, 305127, Note_off_c, 0, 55, 32
1, 305132, Control_c, 0, 64, 57
1, 305147, Control_c, 0, 64, 60
1, 305162, Control_c, 0, 64, 63
1, 305177, Control_c, 0, 64, 64
1, 305184, Note_off_c, 0, 60, 41
1, 305206, Note_on_c, 0, 64, 26
1, 305282, Note_on_c, 0, 56, 43
1, 305298, Note_off_c, 0, 64, 36
1, 305302, Control_c, 0, 64, 64
1, 305309, Note_on_c, 0, 70, 52
1, 305316, Control_c, 0, 64, 62
1, 305324, Note_off_c, 0, 69, 50
1, 305331, Control_c, 0, 64, 60
1, 305333, Note_on_c, 0, 68, 37
1, 305346, Control_c, 0, 64, 56
1, 305349, Note_off_c, 0, 67, 34
1, 305360, Control_c, 0, 64, 49
1, 305375, Control_c, 0, 64, 44
1, 305386, Note_on_c, 0, 61, 46
1, 305390, Control_c, 0, 64, 43
1, 305419, Note_off_c, 0, 56, 36
1, 305420, Control_c, 0, 64, 45
1, 305434, Control_c, 0, 64, 49
1, 305449, Control_c, 0, 64, 53
1, 305464, Control_c, 0, 64, 57
1, 305479, Control_c, 0, 64, 60
1, 305494, Control_c, 0, 64, 61
1, 305509, Control_c, 0, 64, 62
1, 305518, Note_off_c, 0, 61, 55
1, 305539, Note_on_c, 0, 65, 25
1, 305539, Control_c, 0, 64, 63
1, 305583, Control_c, 0, 64, 63
1, 305592, Note_off_c, 0, 65, 45
1, 305613, Note_on_c, 0, 55, 51
1, 305613, Control_c, 0, 64, 63
1, 305616, Note_on_c, 0, 69, 51
1, 305628, Control_c, 0, 64, 62
1, 305634, Note_off_c, 0, 70, 46
1, 305643, Control_c, 0, 64, 60
1, 305644, Note_on_c, 0, 67, 43
1, 305653, Note_off_c, 0, 68, 38
1, 305658, Control_c, 0, 64, 58
1, 305673, Control_c, 0, 64, 55
1, 305688, Control_c, 0, 64, 53
1, 305711, Note_off_c, 0, 67, 0
1, 305711, Note_on_c, 0, 67, 3
1, 305717, Control_c, 0, 64, 54
1, 305723, Note_on_c, 0, 60, 44
1, 305732, Control_c, 0, 64, 56
1, 305747, Control_c, 0, 64, 59
1, 305757, Note_off_c, 0, 55, 48
1, 305762, Control_c, 0, 64, 61
1, 305776, Control_c, 0, 64, 62
1, 305789, Note_off_c, 0, 60, 61
1, 305834, Note_on_c, 0, 64, 34
1, 305865, Control_c, 0, 64, 62
1, 305880, Control_c, 0, 64, 62
1, 305895, Control_c, 0, 64, 61
1, 305910, Control_c, 0, 64, 59
1, 305916, Note_on_c, 0, 56, 49
1, 305923, Note_on_c, 0, 70, 53
1, 305925, Control_c, 0, 64, 56
1, 305929, Note_off_c, 0, 69, 51
1, 305936, Note_on_c, 0, 68, 44
1, 305939, Control_c, 0, 64, 51
1, 305941, Note_off_c, 0, 64, 35
1, 305944, Note_off_c, 0, 67, 42
1, 305954, Control_c, 0, 64, 48
1, 305969, Control_c, 0, 64, 46
1, 306006, Control_c, 0, 64, 47
1, 306013, Note_off_c, 0, 56, 58
1, 306016, Note_on_c, 0, 61, 49
1, 306021, Control_c, 0, 64, 49
1, 306036, Control_c, 0, 64, 54
1, 306051, Control_c, 0, 64, 58
1, 306065, Control_c, 0, 64, 61
1, 306080, Control_c, 0, 64, 63
1, 306095, Control_c, 0, 64, 64
1, 306114, Note_off_c, 0, 61, 56
1, 306145, Note_on_c, 0, 65, 9
1, 306169, Control_c, 0, 64, 63
1, 306183, Control_c, 0, 64, 62
1, 306194, Note_off_c, 0, 65, 54
1, 306198, Control_c, 0, 64, 58
1, 306200, Note_on_c, 0, 55, 57
1, 306212, Note_on_c, 0, 69, 52
1, 306212, Note_off_c, 0, 70, 58
1, 306213, Control_c, 0, 64, 55
1, 306228, Control_c, 0, 64, 51
1, 306229, Note_on_c, 0, 67, 38
1, 306242, Note_off_c, 0, 68, 41
1, 306243, Control_c, 0, 64, 51
1, 306272, Control_c, 0, 64, 52
1, 306287, Control_c, 0, 64, 55
1, 306301, Note_on_c, 0, 60, 38
1, 306302, Control_c, 0, 64, 58
1, 306309, Note_off_c, 0, 55, 61
1, 306317, Control_c, 0, 64, 61
1, 306329, Note_off_c, 0, 60, 58
1, 306331, Control_c, 0, 64, 62
1, 306346, Control_c, 0, 64, 63
1, 306361, Control_c, 0, 64, 63
1, 306367, Note_on_c, 0, 64, 40
1, 306391, Control_c, 0, 64, 64
1, 306408, Note_off_c, 0, 64, 50
1, 306466, Control_c, 0, 64, 63
1, 306481, Note_on_c, 0, 54, 48
1, 306481, Control_c, 0, 64, 62
1, 306487, Note_off_c, 0, 69, 56
1, 306494, Note_on_c, 0, 68, 49
1, 306495, Control_c, 0, 64, 59
1, 306502, Note_off_c, 0, 67, 36
1, 306510, Note_on_c, 0, 66, 43
1, 306510, Control_c, 0, 64, 55
1, 306525, Control_c, 0, 64, 51
1, 306540, Control_c, 0, 64, 49
1, 306546, Note_on_c, 0, 59, 40
1, 306555, Control_c, 0, 64, 48
1, 306565, Note_off_c, 0, 54, 51
1, 306570, Control_c, 0, 64, 49
1, 306585, Control_c, 0, 64, 52
1, 306600, Control_c, 0, 64, 56
1, 306614, Control_c, 0, 64, 60
1, 306629, Control_c, 0, 64, 63
1, 306644, Control_c, 0, 64, 64
1, 306647, Note_on_c, 0, 63, 41
1, 306656, Note_off_c, 0, 59, 46
1, 306659, Control_c, 0, 64, 64
1, 306718, Control_c, 0, 64, 64
1, 306740, Control_c, 0, 64, 63
1, 306744, Note_off_c, 0, 68, 57
1, 306755, Control_c, 0, 64, 61
1, 306758, Note_on_c, 0, 67, 54
1, 306760, Note_on_c, 0, 53, 52
1, 306770, Note_off_c, 0, 66, 39
1, 306770, Control_c, 0, 64, 59
1, 306782, Note_on_c, 0, 65, 40
1, 306782, Note_off_c, 0, 63, 48
1, 306785, Control_c, 0, 64, 56
1, 306800, Control_c, 0, 64, 54
1, 306814, Control_c, 0, 64, 53
1, 306844, Control_c, 0, 64, 55
1, 306859, Control_c, 0, 64, 57
1, 306870, Note_off_c, 0, 53, 58
1, 306874, Control_c, 0, 64, 61
1, 306882, Note_on_c, 0, 58, 43
1, 306889, Control_c, 0, 64, 64
1, 306904, Control_c, 0, 64, 66
1, 306917, Note_off_c, 0, 58, 54
1, 306919, Control_c, 0, 64, 67
1, 306960, Note_on_c, 0, 62, 32
1, 307049, Note_off_c, 0, 62, 39
1, 307052, Control_c, 0, 64, 67
1, 307064, Note_on_c, 0, 52, 53
1, 307067, Control_c, 0, 64, 66
1, 307078, Note_on_c, 0, 66, 48
1, 307081, Control_c, 0, 64, 63
1, 307094, Note_on_c, 0, 64, 40
1, 307096, Control_c, 0, 64, 58
1, 307098, Note_off_c, 0, 65, 42
1, 307103, Note_off_c, 0, 67, 36
1, 307111, Control_c, 0, 64, 52
1, 307126, Control_c, 0, 64, 47
1, 307140, Control_c, 0, 64, 44
1, 307142, Note_off_c, 0, 52, 61
1, 307149, Note_on_c, 0, 57, 44
1, 307170, Control_c, 0, 64, 46
1, 307185, Control_c, 0, 64, 51
1, 307200, Control_c, 0, 64, 56
1, 307216, Control_c, 0, 64, 61
1, 307230, Control_c, 0, 64, 64
1, 307243, Note_off_c, 0, 57, 61
1, 307245, Control_c, 0, 64, 66
1, 307260, Control_c, 0, 64, 66
1, 307288, Note_on_c, 0, 61, 42
1, 307304, Control_c, 0, 64, 67
1, 307334, Control_c, 0, 64, 68
1, 307349, Control_c, 0, 64, 68
1, 307364, Control_c, 0, 64, 69
1, 307368, Note_off_c, 0, 61, 36
1, 307378, Control_c, 0, 64, 70
1, 307490, Control_c, 0, 64, 69
1, 307505, Control_c, 0, 64, 68
1, 307518, Note_on_c, 0, 50, 55
1, 307518, Note_off_c, 0, 64, 36
1, 307519, Control_c, 0, 64, 67
1, 307520, Note_off_c, 0, 66, 52
1, 307526, Note_on_c, 0, 67, 46
1, 307534, Control_c, 0, 64, 64
1, 307549, Note_on_c, 0, 65, 36
1, 307549, Control_c, 0, 64, 59
1, 307563, Control_c, 0, 64, 50
1, 307578, Control_c, 0, 64, 41
1, 307593, Control_c, 0, 64, 33
1, 307608, Control_c, 0, 64, 28
1, 307623, Control_c, 0, 64, 28
1, 307652, Control_c, 0, 64, 31
1, 307667, Control_c, 0, 64, 37
1, 307682, Control_c, 0, 64, 43
1, 307697, Control_c, 0, 64, 50
1, 307712, Control_c, 0, 64, 56
1, 307727, Control_c, 0, 64, 62
1, 307741, Control_c, 0, 64, 66
1, 307756, Control_c, 0, 64, 70
1, 307759, Note_on_c, 0, 53, 41
1, 307771, Control_c, 0, 64, 70
1, 307848, Note_off_c, 0, 50, 31
1, 307852, Note_on_c, 0, 58, 37
1, 307891, Note_off_c, 0, 53, 32
1, 307921, Note_off_c, 0, 58, 59
1, 307954, Note_on_c, 0, 62, 37
1, 308077, Note_off_c, 0, 62, 44
1, 308105, Note_on_c, 0, 52, 45
1, 308105, Note_on_c, 0, 66, 43
1, 308113, Control_c, 0, 64, 69
1, 308127, Control_c, 0, 64, 66
1, 308128, Note_on_c, 0, 64, 38
1, 308138, Note_off_c, 0, 67, 32
1, 308142, Control_c, 0, 64, 61
1, 308157, Control_c, 0, 64, 54
1, 308172, Control_c, 0, 64, 47
1, 308177, Note_off_c, 0, 65, 45
1, 308186, Control_c, 0, 64, 43
1, 308216, Control_c, 0, 64, 45
1, 308232, Note_on_c, 0, 57, 36
1, 308239, Control_c, 0, 64, 51
1, 308254, Control_c, 0, 64, 58
1, 308260, Note_off_c, 0, 52, 53
1, 308268, Control_c, 0, 64, 63
1, 308283, Control_c, 0, 64, 69
1, 308298, Control_c, 0, 64, 72
1, 308313, Control_c, 0, 64, 73
1, 308339, Note_off_c, 0, 57, 57
1, 308351, Note_on_c, 0, 61, 26
1, 308372, Control_c, 0, 64, 73
1, 308401, Control_c, 0, 64, 74
1, 308454, Note_on_c, 0, 67, 44
1, 308465, Note_on_c, 0, 53, 44
1, 308469, Note_on_c, 0, 65, 34
1, 308475, Control_c, 0, 64, 73
1, 308478, Note_off_c, 0, 61, 36
1, 308480, Note_off_c, 0, 64, 39
1, 308490, Control_c, 0, 64, 72
1, 308505, Control_c, 0, 64, 69
1, 308512, Note_off_c, 0, 66, 33
1, 308520, Control_c, 0, 64, 64
1, 308534, Control_c, 0, 64, 59
1, 308549, Control_c, 0, 64, 53
1, 308564, Control_c, 0, 64, 49
1, 308572, Note_on_c, 0, 58, 44
1, 308579, Control_c, 0, 64, 49
1, 308594, Control_c, 0, 64, 50
1, 308606, Note_off_c, 0, 53, 33
1, 308609, Control_c, 0, 64, 54
1, 308624, Control_c, 0, 64, 58
1, 308627, Note_off_c, 0, 58, 57
1, 308639, Control_c, 0, 64, 62
1, 308653, Control_c, 0, 64, 65
1, 308668, Control_c, 0, 64, 68
1, 308671, Note_on_c, 0, 62, 34
1, 308683, Control_c, 0, 64, 69
1, 308725, Note_off_c, 0, 62, 47
1, 308755, Note_on_c, 0, 68, 49
1, 308763, Note_on_c, 0, 66, 46
1, 308770, Note_on_c, 0, 54, 49
1, 308772, Control_c, 0, 64, 68
1, 308777, Note_off_c, 0, 67, 36
1, 308786, Control_c, 0, 64, 66
1, 308802, Control_c, 0, 64, 63
1, 308803, Note_off_c, 0, 65, 43
1, 308817, Control_c, 0, 64, 59
1, 308832, Control_c, 0, 64, 55
1, 308847, Control_c, 0, 64, 51
1, 308856, Note_on_c, 0, 59, 43
1, 308859, Note_off_c, 0, 54, 54
1, 308862, Control_c, 0, 64, 51
1, 308876, Control_c, 0, 64, 52
1, 308891, Control_c, 0, 64, 55
1, 308904, Note_off_c, 0, 59, 58
1, 308906, Control_c, 0, 64, 59
1, 308921, Control_c, 0, 64, 62
1, 308936, Control_c, 0, 64, 65
1, 308947, Note_on_c, 0, 63, 36
1, 308950, Control_c, 0, 64, 66
1, 308965, Control_c, 0, 64, 67
1, 309030, Note_on_c, 0, 69, 49
1, 309033, Note_on_c, 0, 55, 49
1, 309045, Note_off_c, 0, 63, 39
1, 309047, Control_c, 0, 64, 66
1, 309051, Note_off_c, 0, 66, 41
1, 309053, Note_off_c, 0, 68, 37
1, 309061, Note_on_c, 0, 67, 46
1, 309062, Control_c, 0, 64, 66
1, 309077, Control_c, 0, 64, 64
1, 309091, Control_c, 0, 64, 59
1, 309106, Control_c, 0, 64, 53
1, 309113, Note_on_c, 0, 60, 51
1, 309121, Control_c, 0, 64, 46
1, 309136, Control_c, 0, 64, 41
1, 309151, Control_c, 0, 64, 40
1, 309152, Note_off_c, 0, 55, 58
1, 309165, Control_c, 0, 64, 41
1, 309180, Control_c, 0, 64, 44
1, 309183, Note_off_c, 0, 60, 64
1, 309195, Control_c, 0, 64, 49
1, 309209, Control_c, 0, 64, 55
1, 309224, Control_c, 0, 64, 61
1, 309238, Note_on_c, 0, 64, 32
1, 309239, Control_c, 0, 64, 65
1, 309254, Control_c, 0, 64, 70
1, 309269, Control_c, 0, 64, 72
1, 309280, Note_on_c, 0, 70, 55
1, 309282, Note_off_c, 0, 69, 50
1, 309284, Note_on_c, 0, 56, 55
1, 309296, Note_on_c, 0, 68, 48
1, 309298, Note_off_c, 0, 67, 48
1, 309298, Control_c, 0, 64, 71
1, 309306, Note_off_c, 0, 64, 40
1, 309313, Control_c, 0, 64, 68
1, 309327, Control_c, 0, 64, 66
1, 309342, Control_c, 0, 64, 64
1, 309357, Control_c, 0, 64, 61
1, 309372, Control_c, 0, 64, 60
1, 309378, Note_on_c, 0, 61, 45
1, 309384, Note_off_c, 0, 56, 58
1, 309402, Control_c, 0, 64, 61
1, 309417, Control_c, 0, 64, 62
1, 309432, Control_c, 0, 64, 64
1, 309434, Note_off_c, 0, 61, 55
1, 309447, Control_c, 0, 64, 65
1, 309461, Control_c, 0, 64, 66
1, 309472, Note_on_c, 0, 65, 36
1, 309476, Control_c, 0, 64, 67
1, 309506, Control_c, 0, 64, 66
1, 309521, Control_c, 0, 64, 65
1, 309525, Note_off_c, 0, 65, 46
1, 309535, Control_c, 0, 64, 63
1, 309549, Note_on_c, 0, 57, 55
1, 309550, Control_c, 0, 64, 60
1, 309565, Control_c, 0, 64, 54
1, 309578, Note_on_c, 0, 71, 55
1, 309580, Control_c, 0, 64, 49
1, 309588, Note_on_c, 0, 69, 42
1, 309595, Control_c, 0, 64, 46
1, 309602, Note_off_c, 0, 68, 42
1, 309606, Note_off_c, 0, 70, 37
1, 309610, Control_c, 0, 64, 46
1, 309625, Control_c, 0, 64, 47
1, 309640, Note_off_c, 0, 57, 53
1, 309640, Control_c, 0, 64, 49
1, 309646, Note_on_c, 0, 62, 49
1, 309655, Control_c, 0, 64, 54
1, 309670, Control_c, 0, 64, 59
1, 309685, Control_c, 0, 64, 63
1, 309699, Control_c, 0, 64, 65
1, 309714, Control_c, 0, 64, 67
1, 309721, Note_off_c, 0, 62, 64
1, 309736, Control_c, 0, 64, 67
1, 309741, Note_on_c, 0, 66, 45
1, 309751, Control_c, 0, 64, 68
1, 309806, Note_on_c, 0, 58, 48
1, 309810, Control_c, 0, 64, 67
1, 309825, Control_c, 0, 64, 65
1, 309830, Note_off_c, 0, 69, 53
1, 309831, Note_on_c, 0, 72, 57
1, 309839, Control_c, 0, 64, 61
1, 309843, Note_off_c, 0, 71, 58
1, 309846, Note_on_c, 0, 70, 46
1, 309854, Control_c, 0, 64, 55
1, 309869, Control_c, 0, 64, 50
1, 309884, Note_off_c, 0, 66, 41
1, 309884, Control_c, 0, 64, 47
1, 309899, Note_on_c, 0, 63, 51
1, 309913, Control_c, 0, 64, 48
1, 309928, Control_c, 0, 64, 52
1, 309943, Control_c, 0, 64, 57
1, 309947, Note_off_c, 0, 58, 37
1, 309957, Control_c, 0, 64, 62
1, 309972, Control_c, 0, 64, 65
1, 309985, Note_off_c, 0, 63, 58
1, 309987, Control_c, 0, 64, 68
1, 310001, Note_on_c, 0, 67, 37
1, 310002, Control_c, 0, 64, 69
1, 310064, Note_off_c, 0, 67, 44
1, 310074, Note_on_c, 0, 57, 48
1, 310076, Control_c, 0, 64, 68
1, 310084, Note_off_c, 0, 70, 40
1, 310091, Control_c, 0, 64, 67
1, 310096, Note_on_c, 0, 71, 52
1, 310105, Control_c, 0, 64, 65
1, 310112, Note_on_c, 0, 69, 35
1, 310120, Control_c, 0, 64, 62
1, 310135, Control_c, 0, 64, 56
1, 310141, Note_off_c, 0, 57, 54
1, 310150, Control_c, 0, 64, 52
1, 310160, Note_on_c, 0, 62, 45
1, 310165, Control_c, 0, 64, 49
1, 310195, Control_c, 0, 64, 50
1, 310210, Control_c, 0, 64, 53
1, 310215, Note_on_c, 0, 66, 50
1, 310215, Note_off_c, 0, 72, 26
1, 310218, Note_off_c, 0, 62, 61
1, 310224, Control_c, 0, 64, 57
1, 310239, Control_c, 0, 64, 63
1, 310254, Control_c, 0, 64, 66
1, 310269, Control_c, 0, 64, 69
1, 310315, Note_on_c, 0, 56, 59
1, 310328, Control_c, 0, 64, 69
1, 310343, Control_c, 0, 64, 67
1, 310350, Note_on_c, 0, 70, 50
1, 310357, Note_off_c, 0, 69, 41
1, 310357, Note_off_c, 0, 71, 53
1, 310357, Control_c, 0, 64, 64
1, 310364, Note_on_c, 0, 68, 43
1, 310372, Control_c, 0, 64, 61
1, 310378, Note_off_c, 0, 66, 34
1, 310387, Control_c, 0, 64, 56
1, 310403, Control_c, 0, 64, 52
1, 310411, Note_on_c, 0, 61, 50
1, 310418, Control_c, 0, 64, 50
1, 310433, Control_c, 0, 64, 51
1, 310447, Control_c, 0, 64, 53
1, 310450, Note_off_c, 0, 56, 36
1, 310462, Control_c, 0, 64, 57
1, 310484, Control_c, 0, 64, 61
1, 310499, Control_c, 0, 64, 65
1, 310515, Control_c, 0, 64, 69
1, 310517, Note_off_c, 0, 61, 58
1, 310529, Control_c, 0, 64, 71
1, 310537, Note_on_c, 0, 65, 29
1, 310559, Control_c, 0, 64, 70
1, 310574, Control_c, 0, 64, 69
1, 310588, Control_c, 0, 64, 67
1, 310589, Note_off_c, 0, 68, 59
1, 310592, Note_off_c, 0, 70, 58
1, 310600, Note_off_c, 0, 65, 44
1, 310603, Control_c, 0, 64, 63
1, 310608, Note_on_c, 0, 69, 51
1, 310610, Note_on_c, 0, 55, 45
1, 310618, Control_c, 0, 64, 59
1, 310626, Note_on_c, 0, 67, 38
1, 310633, Control_c, 0, 64, 54
1, 310648, Control_c, 0, 64, 52
1, 310663, Control_c, 0, 64, 51
1, 310678, Control_c, 0, 64, 53
1, 310693, Control_c, 0, 64, 56
1, 310707, Control_c, 0, 64, 60
1, 310719, Note_on_c, 0, 60, 36
1, 310722, Control_c, 0, 64, 65
1, 310737, Control_c, 0, 64, 68
1, 310752, Control_c, 0, 64, 69
1, 310761, Note_off_c, 0, 60, 48
1, 310765, Note_off_c, 0, 55, 35
1, 310811, Control_c, 0, 64, 69
1, 310815, Note_on_c, 0, 64, 16
1, 310826, Control_c, 0, 64, 70
1, 310841, Control_c, 0, 64, 70
1, 310860, Note_off_c, 0, 64, 52
1, 310879, Note_off_c, 0, 69, 54
1, 310881, Note_on_c, 0, 68, 51
1, 310885, Control_c, 0, 64, 70
1, 310886, Note_on_c, 0, 54, 52
1, 310890, Note_on_c, 0, 66, 44
1, 310900, Control_c, 0, 64, 67
1, 310909, Note_off_c, 0, 67, 41
1, 310915, Control_c, 0, 64, 63
1, 310929, Control_c, 0, 64, 58
1, 310944, Control_c, 0, 64, 52
1, 310959, Control_c, 0, 64, 48
1, 310963, Note_off_c, 0, 54, 57
1, 310973, Control_c, 0, 64, 47
1, 310984, Note_on_c, 0, 59, 43
1, 310988, Control_c, 0, 64, 48
1, 311003, Control_c, 0, 64, 53
1, 311018, Control_c, 0, 64, 59
1, 311033, Control_c, 0, 64, 64
1, 311040, Note_off_c, 0, 59, 62
1, 311047, Control_c, 0, 64, 71
1, 311062, Control_c, 0, 64, 76
1, 311077, Note_on_c, 0, 63, 35
1, 311077, Control_c, 0, 64, 77
1, 311196, Note_off_c, 0, 63, 41
1, 311234, Control_c, 0, 64, 76
1, 311249, Control_c, 0, 64, 75
1, 311264, Control_c, 0, 64, 74
1, 311278, Control_c, 0, 64, 71
1, 311293, Control_c, 0, 64, 66
1, 311295, Note_off_c, 0, 68, 55
1, 311300, Note_on_c, 0, 50, 59
1, 311304, Note_off_c, 0, 66, 50
1, 311306, Note_on_c, 0, 67, 51
1, 311308, Control_c, 0, 64, 61
1, 311323, Control_c, 0, 64, 54
1, 311324, Note_on_c, 0, 65, 39
1, 311338, Control_c, 0, 64, 46
1, 311352, Control_c, 0, 64, 39
1, 311367, Control_c, 0, 64, 35
1, 311382, Control_c, 0, 64, 35
1, 311411, Control_c, 0, 64, 37
1, 311426, Control_c, 0, 64, 40
1, 311441, Control_c, 0, 64, 46
1, 311456, Control_c, 0, 64, 52
1, 311471, Control_c, 0, 64, 59
1, 311485, Control_c, 0, 64, 64
1, 311500, Control_c, 0, 64, 68
1, 311515, Control_c, 0, 64, 69
1, 311522, Note_on_c, 0, 53, 40
1, 311598, Note_off_c, 0, 50, 33
1, 311602, Note_on_c, 0, 58, 35
1, 311636, Note_off_c, 0, 53, 36
1, 311644, Note_off_c, 0, 58, 54
1, 311681, Note_on_c, 0, 62, 37
1, 311782, Control_c, 0, 64, 69
1, 311784, Note_off_c, 0, 62, 37
1, 311796, Control_c, 0, 64, 67
1, 311797, Note_on_c, 0, 52, 55
1, 311811, Control_c, 0, 64, 65
1, 311822, Note_on_c, 0, 66, 47
1, 311826, Control_c, 0, 64, 61
1, 311836, Note_on_c, 0, 64, 41
1, 311841, Control_c, 0, 64, 55
1, 311856, Control_c, 0, 64, 48
1, 311864, Note_off_c, 0, 67, 33
1, 311870, Control_c, 0, 64, 44
1, 311872, Note_off_c, 0, 65, 45
1, 311885, Control_c, 0, 64, 43
1, 311900, Control_c, 0, 64, 44
1, 311915, Control_c, 0, 64, 46
1, 311916, Note_on_c, 0, 57, 33
1, 311930, Control_c, 0, 64, 51
1, 311945, Control_c, 0, 64, 57
1, 311952, Note_off_c, 0, 52, 48
1, 311959, Control_c, 0, 64, 62
1, 311982, Control_c, 0, 64, 67
1, 311997, Control_c, 0, 64, 69
1, 312013, Control_c, 0, 64, 70
1, 312035, Note_on_c, 0, 61, 33
1, 312048, Note_off_c, 0, 57, 56
1, 312168, Note_on_c, 0, 53, 44
1, 312175, Control_c, 0, 64, 69
1, 312187, Note_on_c, 0, 67, 49
1, 312190, Control_c, 0, 64, 67
1, 312197, Note_off_c, 0, 61, 44
1, 312205, Control_c, 0, 64, 65
1, 312210, Note_on_c, 0, 65, 38
1, 312219, Control_c, 0, 64, 61
1, 312228, Note_off_c, 0, 64, 40
1, 312234, Control_c, 0, 64, 57
1, 312249, Control_c, 0, 64, 51
1, 312261, Note_off_c, 0, 66, 36
1, 312264, Control_c, 0, 64, 50
1, 312272, Note_on_c, 0, 58, 41
1, 312294, Control_c, 0, 64, 51
1, 312308, Control_c, 0, 64, 53
1, 312321, Note_off_c, 0, 58, 57
1, 312323, Control_c, 0, 64, 57
1, 312329, Note_off_c, 0, 53, 36
1, 312338, Control_c, 0, 64, 62
1, 312353, Control_c, 0, 64, 65
1, 312368, Control_c, 0, 64, 68
1, 312369, Note_on_c, 0, 62, 40
1, 312383, Control_c, 0, 64, 69
1, 312421, Note_off_c, 0, 62, 51
1, 312472, Control_c, 0, 64, 68
1, 312477, Note_off_c, 0, 67, 53
1, 312478, Note_on_c, 0, 68, 52
1, 312479, Note_on_c, 0, 54, 47
1, 312487, Control_c, 0, 64, 66
1, 312489, Note_on_c, 0, 66, 46
1, 312501, Control_c, 0, 64, 64
1, 312516, Control_c, 0, 64, 61
1, 312531, Control_c, 0, 64, 56
1, 312546, Control_c, 0, 64, 53
1, 312553, Note_off_c, 0, 65, 44
1, 312557, Note_off_c, 0, 54, 59
1, 312559, Note_on_c, 0, 59, 44
1, 312560, Control_c, 0, 64, 52
1, 312590, Control_c, 0, 64, 53
1, 312605, Control_c, 0, 64, 56
1, 312616, Note_off_c, 0, 59, 55
1, 312619, Control_c, 0, 64, 61
1, 312634, Control_c, 0, 64, 64
1, 312649, Control_c, 0, 64, 66
1, 312654, Note_on_c, 0, 63, 35
1, 312664, Control_c, 0, 64, 68
1, 312737, Note_on_c, 0, 55, 49
1, 312746, Control_c, 0, 64, 68
1, 312749, Note_on_c, 0, 69, 54
1, 312760, Control_c, 0, 64, 66
1, 312762, Note_off_c, 0, 68, 54
1, 312767, Note_off_c, 0, 66, 36
1, 312770, Note_on_c, 0, 67, 43
1, 312775, Note_off_c, 0, 63, 43
1, 312775, Control_c, 0, 64, 63
1, 312790, Control_c, 0, 64, 59
1, 312804, Note_on_c, 0, 60, 40
1, 312806, Control_c, 0, 64, 55
1, 312821, Control_c, 0, 64, 51
1, 312836, Control_c, 0, 64, 50
1, 312850, Control_c, 0, 64, 51
1, 312857, Note_off_c, 0, 55, 60
1, 312865, Control_c, 0, 64, 52
1, 312880, Control_c, 0, 64, 56
1, 312895, Control_c, 0, 64, 59
1, 312907, Note_off_c, 0, 60, 37
1, 312910, Control_c, 0, 64, 64
1, 312924, Control_c, 0, 64, 67
1, 312933, Note_on_c, 0, 64, 27
1, 312939, Control_c, 0, 64, 69
1, 312979, Note_on_c, 0, 56, 57
1, 312998, Control_c, 0, 64, 68
1, 313001, Note_off_c, 0, 64, 41
1, 313003, Note_off_c, 0, 67, 51
1, 313009, Note_on_c, 0, 70, 55
1, 313013, Control_c, 0, 64, 66
1, 313014, Note_off_c, 0, 69, 57
1, 313023, Note_on_c, 0, 68, 47
1, 313028, Control_c, 0, 64, 62
1, 313043, Control_c, 0, 64, 58
1, 313057, Control_c, 0, 64, 54
1, 313062, Note_on_c, 0, 61, 49
1, 313071, Note_off_c, 0, 56, 57
1, 313072, Control_c, 0, 64, 50
1, 313087, Control_c, 0, 64, 50
1, 313102, Control_c, 0, 64, 51
1, 313117, Control_c, 0, 64, 53
1, 313131, Control_c, 0, 64, 57
1, 313146, Control_c, 0, 64, 61
1, 313161, Control_c, 0, 64, 64
1, 313165, Note_off_c, 0, 61, 59
1, 313176, Control_c, 0, 64, 66
1, 313191, Control_c, 0, 64, 67
1, 313199, Note_on_c, 0, 65, 28
1, 313205, Control_c, 0, 64, 68
1, 313250, Note_off_c, 0, 65, 47
1, 313280, Note_on_c, 0, 55, 51
1, 313280, Control_c, 0, 64, 67
1, 313294, Control_c, 0, 64, 66
1, 313306, Note_off_c, 0, 70, 59
1, 313308, Note_off_c, 0, 68, 48
1, 313309, Control_c, 0, 64, 64
1, 313310, Note_on_c, 0, 69, 51
1, 313324, Control_c, 0, 64, 62
1, 313331, Note_on_c, 0, 67, 39
1, 313339, Control_c, 0, 64, 58
1, 313354, Control_c, 0, 64, 53
1, 313368, Control_c, 0, 64, 50
1, 313382, Note_on_c, 0, 60, 31
1, 313383, Control_c, 0, 64, 49
1, 313392, Note_off_c, 0, 55, 62
1, 313398, Control_c, 0, 64, 50
1, 313413, Control_c, 0, 64, 51
1, 313414, Note_off_c, 0, 60, 52
1, 313428, Control_c, 0, 64, 54
1, 313443, Control_c, 0, 64, 58
1, 313447, Note_on_c, 0, 64, 44
1, 313457, Control_c, 0, 64, 62
1, 313480, Control_c, 0, 64, 66
1, 313495, Control_c, 0, 64, 69
1, 313501, Note_off_c, 0, 64, 46
1, 313509, Control_c, 0, 64, 70
1, 313553, Note_on_c, 0, 54, 49
1, 313576, Note_off_c, 0, 69, 57
1, 313583, Control_c, 0, 64, 69
1, 313584, Note_on_c, 0, 68, 51
1, 313599, Control_c, 0, 64, 68
1, 313605, Note_on_c, 0, 66, 45
1, 313611, Note_off_c, 0, 67, 36
1, 313614, Control_c, 0, 64, 65
1, 313626, Note_on_c, 0, 59, 49
1, 313629, Control_c, 0, 64, 62
1, 313644, Control_c, 0, 64, 59
1, 313653, Note_off_c, 0, 54, 56
1, 313659, Control_c, 0, 64, 55
1, 313673, Control_c, 0, 64, 54
1, 313703, Control_c, 0, 64, 56
1, 313715, Note_off_c, 0, 59, 58
1, 313718, Control_c, 0, 64, 60
1, 313733, Note_on_c, 0, 63, 37
1, 313733, Control_c, 0, 64, 64
1, 313747, Control_c, 0, 64, 67
1, 313762, Control_c, 0, 64, 70
1, 313777, Control_c, 0, 64, 71
1, 313821, Control_c, 0, 64, 70
1, 313836, Note_on_c, 0, 55, 51
1, 313836, Control_c, 0, 64, 68
1, 313843, Note_on_c, 0, 69, 54
1, 313851, Control_c, 0, 64, 65
1, 313857, Note_off_c, 0, 63, 47
1, 313861, Note_off_c, 0, 66, 42
1, 313863, Note_on_c, 0, 67, 44
1, 313866, Control_c, 0, 64, 61
1, 313867, Note_off_c, 0, 68, 49
1, 313880, Control_c, 0, 64, 57
1, 313895, Control_c, 0, 64, 54
1, 313897, Note_on_c, 0, 60, 34
1, 313910, Control_c, 0, 64, 53
1, 313924, Control_c, 0, 64, 54
1, 313939, Note_off_c, 0, 55, 59
1, 313939, Control_c, 0, 64, 56
1, 313954, Control_c, 0, 64, 60
1, 313969, Control_c, 0, 64, 65
1, 313984, Control_c, 0, 64, 69
1, 313998, Control_c, 0, 64, 71
1, 313999, Note_off_c, 0, 60, 41
1, 314019, Note_on_c, 0, 64, 33
1, 314058, Control_c, 0, 64, 70
1, 314072, Note_on_c, 0, 56, 57
1, 314073, Control_c, 0, 64, 67
1, 314088, Control_c, 0, 64, 64
1, 314088, Note_off_c, 0, 67, 55
1, 314091, Note_on_c, 0, 70, 57
1, 314100, Note_off_c, 0, 64, 38
1, 314103, Control_c, 0, 64, 60
1, 314108, Note_off_c, 0, 69, 56
1, 314117, Control_c, 0, 64, 56
1, 314119, Note_on_c, 0, 68, 39
1, 314132, Control_c, 0, 64, 54
1, 314161, Note_on_c, 0, 61, 49
1, 314162, Control_c, 0, 64, 56
1, 314173, Note_off_c, 0, 56, 60
1, 314177, Control_c, 0, 64, 60
1, 314191, Control_c, 0, 64, 64
1, 314206, Control_c, 0, 64, 68
1, 314228, Control_c, 0, 64, 73
1, 314236, Note_off_c, 0, 61, 50
1, 314243, Control_c, 0, 64, 74
1, 314280, Note_on_c, 0, 65, 33
1, 314302, Control_c, 0, 64, 72
1, 314317, Control_c, 0, 64, 69
1, 314332, Control_c, 0, 64, 66
1, 314332, Note_on_c, 0, 71, 60
1, 314338, Note_off_c, 0, 65, 42
1, 314339, Note_on_c, 0, 57, 54
1, 314344, Note_on_c, 0, 69, 43
1, 314347, Control_c, 0, 64, 61
1, 314347, Note_off_c, 0, 68, 42
1, 314362, Control_c, 0, 64, 58
1, 314368, Note_off_c, 0, 70, 56
1, 314377, Control_c, 0, 64, 56
1, 314392, Control_c, 0, 64, 55
1, 314407, Control_c, 0, 64, 56
1, 314417, Note_on_c, 0, 62, 41
1, 314419, Note_off_c, 0, 57, 59
1, 314422, Control_c, 0, 64, 58
1, 314437, Control_c, 0, 64, 61
1, 314451, Control_c, 0, 64, 65
1, 314466, Control_c, 0, 64, 70
1, 314481, Control_c, 0, 64, 73
1, 314496, Control_c, 0, 64, 74
1, 314517, Note_on_c, 0, 66, 43
1, 314521, Note_off_c, 0, 62, 35
1, 314555, Control_c, 0, 64, 73
1, 314570, Control_c, 0, 64, 69
1, 314571, Note_on_c, 0, 58, 51
1, 314585, Control_c, 0, 64, 64
1, 314592, Note_on_c, 0, 72, 60
1, 314592, Note_off_c, 0, 71, 58
1, 314600, Control_c, 0, 64, 58
1, 314608, Note_on_c, 0, 70, 45
1, 314615, Control_c, 0, 64, 52
1, 314624, Note_off_c, 0, 69, 36
1, 314629, Control_c, 0, 64, 47
1, 314642, Note_off_c, 0, 66, 39
1, 314644, Control_c, 0, 64, 46
1, 314659, Control_c, 0, 64, 48
1, 314672, Note_on_c, 0, 63, 43
1, 314674, Control_c, 0, 64, 53
1, 314683, Note_off_c, 0, 58, 56
1, 314689, Control_c, 0, 64, 59
1, 314703, Control_c, 0, 64, 65
1, 314718, Control_c, 0, 64, 74
1, 314733, Note_off_c, 0, 63, 65
1, 314733, Control_c, 0, 64, 81
1, 314747, Control_c, 0, 64, 81
1, 314777, Control_c, 0, 64, 82
1, 314792, Control_c, 0, 64, 82
1, 314807, Control_c, 0, 64, 83
1, 314808, Poly_aftertouch_c, 0, 67, 127
1, 314836, Control_c, 0, 64, 83
1, 314855, Poly_aftertouch_c, 0, 67, 0
1, 314925, Control_c, 0, 64, 83
1, 314940, Control_c, 0, 64, 81
1, 314955, Control_c, 0, 64, 78
1, 314970, Note_on_c, 0, 49, 65
1, 314975, Note_off_c, 0, 72, 53
1, 314976, Note_on_c, 0, 73, 51
1, 314977, Control_c, 0, 64, 72
1, 314989, Note_on_c, 0, 71, 42
1, 314992, Control_c, 0, 64, 66
1, 314996, Note_off_c, 0, 70, 42
1, 315007, Control_c, 0, 64, 60
1, 315021, Control_c, 0, 64, 48
1, 315036, Control_c, 0, 64, 35
1, 315038, Note_off_c, 0, 71, 0
1, 315038, Note_on_c, 0, 71, 8
1, 315051, Control_c, 0, 64, 23
1, 315066, Control_c, 0, 64, 19
1, 315095, Control_c, 0, 64, 23
1, 315110, Control_c, 0, 64, 34
1, 315125, Control_c, 0, 64, 44
1, 315140, Control_c, 0, 64, 56
1, 315155, Control_c, 0, 64, 66
1, 315170, Control_c, 0, 64, 83
1, 315185, Control_c, 0, 64, 100
1, 315200, Control_c, 0, 64, 101
1, 315215, Control_c, 0, 64, 100
1, 315230, Control_c, 0, 64, 99
1, 315261, Note_off_c, 0, 49, 56
1, 315275, Poly_aftertouch_c, 0, 53, 127
1, 315282, Note_on_c, 0, 72, 54
1, 315292, Note_on_c, 0, 70, 48
1, 315316, Note_off_c, 0, 73, 48
1, 315320, Poly_aftertouch_c, 0, 53, 0
1, 315321, Note_off_c, 0, 71, 49
1, 315349, Note_on_c, 0, 59, 38
1, 315395, Note_off_c, 0, 59, 59
1, 315465, Note_on_c, 0, 63, 53
1, 315482, Control_c, 0, 64, 99
1, 315497, Control_c, 0, 64, 100
1, 315507, Note_on_c, 0, 73, 58
1, 315512, Control_c, 0, 64, 101
1, 315515, Note_off_c, 0, 70, 52
1, 315519, Note_off_c, 0, 72, 54
1, 315526, Control_c, 0, 64, 101
1, 315531, Note_on_c, 0, 71, 40
1, 315534, Note_off_c, 0, 63, 65
1, 315541, Control_c, 0, 64, 103
1, 315556, Control_c, 0, 64, 103
1, 315570, Control_c, 0, 64, 104
1, 315584, Note_on_c, 0, 68, 56
1, 315585, Control_c, 0, 64, 105
1, 315597, Note_off_c, 0, 71, 55
1, 315600, Control_c, 0, 64, 105
1, 315623, Note_off_c, 0, 68, 60
1, 315644, Control_c, 0, 64, 106
1, 315689, Control_c, 0, 64, 107
1, 315726, Control_c, 0, 64, 106
1, 315733, Note_on_c, 0, 51, 73
1, 315741, Control_c, 0, 64, 102
1, 315748, Note_on_c, 0, 74, 58
1, 315754, Control_c, 0, 64, 95
1, 315758, Note_off_c, 0, 73, 58
1, 315769, Control_c, 0, 64, 85
1, 315769, Note_on_c, 0, 72, 48
1, 315784, Control_c, 0, 64, 72
1, 315799, Control_c, 0, 64, 64
1, 315814, Control_c, 0, 64, 56
1, 315829, Control_c, 0, 64, 46
1, 315843, Control_c, 0, 64, 37
1, 315858, Control_c, 0, 64, 34
1, 315873, Control_c, 0, 64, 35
1, 315888, Control_c, 0, 64, 39
1, 315902, Control_c, 0, 64, 46
1, 315917, Control_c, 0, 64, 55
1, 315932, Control_c, 0, 64, 63
1, 315947, Control_c, 0, 64, 72
1, 315959, Note_on_c, 0, 75, 59
1, 315962, Control_c, 0, 64, 85
1, 315963, Note_on_c, 0, 58, 55
1, 315966, Note_off_c, 0, 72, 53
1, 315968, Note_off_c, 0, 74, 55
1, 315976, Control_c, 0, 64, 87
1, 315981, Note_on_c, 0, 73, 48
1, 316023, Note_off_c, 0, 51, 57
1, 316052, Control_c, 0, 64, 88
1, 316066, Control_c, 0, 64, 88
1, 316078, Note_on_c, 0, 61, 53
1, 316096, Control_c, 0, 64, 89
1, 316100, Note_off_c, 0, 58, 61
1, 316147, Note_off_c, 0, 61, 64
1, 316159, Note_on_c, 0, 76, 65
1, 316180, Note_off_c, 0, 73, 40
1, 316186, Note_on_c, 0, 74, 47
1, 316186, Note_off_c, 0, 75, 53
1, 316195, Note_on_c, 0, 67, 52
1, 316244, Control_c, 0, 64, 89
1, 316337, Note_off_c, 0, 67, 37
1, 316347, Control_c, 0, 64, 89
1, 316362, Control_c, 0, 64, 85
1, 316370, Note_on_c, 0, 53, 69
1, 316373, Note_on_c, 0, 77, 72
1, 316376, Note_off_c, 0, 76, 61
1, 316377, Control_c, 0, 64, 78
1, 316384, Note_on_c, 0, 75, 57
1, 316392, Control_c, 0, 64, 69
1, 316407, Control_c, 0, 64, 61
1, 316419, Note_off_c, 0, 74, 38
1, 316422, Control_c, 0, 64, 51
1, 316437, Control_c, 0, 64, 37
1, 316452, Control_c, 0, 64, 28
1, 316473, Control_c, 0, 64, 27
1, 316488, Control_c, 0, 64, 28
1, 316503, Control_c, 0, 64, 35
1, 316517, Control_c, 0, 64, 44
1, 316532, Control_c, 0, 64, 56
1, 316547, Control_c, 0, 64, 70
1, 316562, Control_c, 0, 64, 114
1, 316577, Control_c, 0, 64, 127
1, 316586, Note_off_c, 0, 75, 61
1, 316592, Note_on_c, 0, 78, 71
1, 316608, Note_off_c, 0, 53, 64
1, 316618, Note_on_c, 0, 74, 48
1, 316631, Note_on_c, 0, 59, 52
1, 316636, Note_off_c, 0, 77, 59
1, 316715, Note_off_c, 0, 59, 58
1, 316723, Note_on_c, 0, 63, 52
1, 316764, Note_on_c, 0, 77, 69
1, 316781, Note_off_c, 0, 63, 59
1, 316786, Note_on_c, 0, 75, 52
1, 316787, Note_off_c, 0, 78, 62
1, 316806, Note_on_c, 0, 68, 49
1, 316823, Note_off_c, 0, 74, 37
1, 316930, Note_on_c, 0, 56, 74
1, 316935, Note_off_c, 0, 75, 57
1, 316939, Note_off_c, 0, 68, 36
1, 316948, Control_c, 0, 64, 113
1, 316960, Note_on_c, 0, 76, 66
1, 316963, Control_c, 0, 64, 87
1, 316978, Control_c, 0, 64, 71
1, 316981, Note_on_c, 0, 74, 43
1, 316993, Control_c, 0, 64, 61
1, 317008, Control_c, 0, 64, 50
1, 317015, Note_off_c, 0, 77, 55
1, 317022, Control_c, 0, 64, 35
1, 317037, Control_c, 0, 64, 30
1, 317052, Control_c, 0, 64, 30
1, 317067, Control_c, 0, 64, 37
1, 317082, Control_c, 0, 64, 48
1, 317096, Control_c, 0, 64, 61
1, 317107, Note_on_c, 0, 61, 63
1, 317111, Control_c, 0, 64, 86
1, 317125, Note_off_c, 0, 74, 62
1, 317126, Control_c, 0, 64, 127
1, 317135, Note_on_c, 0, 75, 62
1, 317143, Note_off_c, 0, 76, 62
1, 317145, Note_on_c, 0, 73, 50
1, 317146, Poly_aftertouch_c, 0, 58, 127
1, 317150, Note_off_c, 0, 56, 61
1, 317177, Note_on_c, 0, 65, 52
1, 317182, Note_off_c, 0, 61, 64
1, 317187, Poly_aftertouch_c, 0, 58, 0
1, 317249, Note_off_c, 0, 65, 65
1, 317271, Note_on_c, 0, 71, 53
1, 317301, Note_off_c, 0, 71, 67
1, 317328, Note_off_c, 0, 73, 62
1, 317339, Note_on_c, 0, 74, 62
1, 317340, Note_off_c, 0, 75, 59
1, 317354, Note_on_c, 0, 72, 48
1, 317403, Note_off_c, 0, 72, 45
1, 317497, Note_on_c, 0, 49, 67
1, 317519, Control_c, 0, 64, 110
1, 317534, Control_c, 0, 64, 82
1, 317549, Control_c, 0, 64, 67
1, 317549, Note_on_c, 0, 73, 61
1, 317561, Note_on_c, 0, 71, 51
1, 317564, Control_c, 0, 64, 58
1, 317565, Note_off_c, 0, 74, 56
1, 317578, Control_c, 0, 64, 47
1, 317594, Control_c, 0, 64, 37
1, 317609, Control_c, 0, 64, 36
1, 317624, Control_c, 0, 64, 40
1, 317638, Control_c, 0, 64, 50
1, 317653, Control_c, 0, 64, 62
1, 317668, Control_c, 0, 64, 87
1, 317675, Note_on_c, 0, 53, 61
1, 317683, Control_c, 0, 64, 127
1, 317712, Note_on_c, 0, 70, 56
1, 317716, Note_on_c, 0, 72, 62
1, 317716, Note_off_c, 0, 71, 55
1, 317719, Note_off_c, 0, 49, 62
1, 317726, Note_off_c, 0, 73, 61
1, 317727, Note_off_c, 0, 53, 63
1, 317763, Note_on_c, 0, 59, 58
1, 317805, Note_off_c, 0, 59, 58
1, 317862, Note_off_c, 0, 72, 61
1, 317865, Note_on_c, 0, 73, 63
1, 317866, Note_on_c, 0, 71, 49
1, 317877, Note_on_c, 0, 63, 55
1, 317881, Note_off_c, 0, 70, 56
1, 317911, Note_off_c, 0, 63, 68
1, 317912, Note_off_c, 0, 71, 63
1, 317944, Note_on_c, 0, 68, 65
1, 317996, Note_off_c, 0, 68, 55
1, 318046, Note_off_c, 0, 73, 61
1, 318049, Note_on_c, 0, 74, 64
1, 318056, Note_on_c, 0, 51, 72
1, 318060, Note_on_c, 0, 72, 57
1, 318061, Control_c, 0, 64, 102
1, 318076, Control_c, 0, 64, 75
1, 318091, Control_c, 0, 64, 64
1, 318105, Control_c, 0, 64, 54
1, 318120, Control_c, 0, 64, 42
1, 318135, Control_c, 0, 64, 32
1, 318150, Control_c, 0, 64, 30
1, 318165, Control_c, 0, 64, 33
1, 318179, Control_c, 0, 64, 40
1, 318194, Control_c, 0, 64, 50
1, 318207, Note_off_c, 0, 72, 61
1, 318209, Control_c, 0, 64, 61
1, 318211, Note_on_c, 0, 75, 66
1, 318224, Note_off_c, 0, 74, 59
1, 318224, Control_c, 0, 64, 75
1, 318231, Note_on_c, 0, 58, 65
1, 318237, Note_on_c, 0, 73, 47
1, 318238, Control_c, 0, 64, 127
1, 318299, Note_off_c, 0, 51, 62
1, 318315, Note_on_c, 0, 61, 62
1, 318357, Note_off_c, 0, 58, 62
1, 318370, Note_on_c, 0, 76, 72
1, 318379, Note_off_c, 0, 73, 47
1, 318380, Note_on_c, 0, 74, 57
1, 318382, Note_off_c, 0, 75, 58
1, 318387, Note_off_c, 0, 61, 61
1, 318432, Note_on_c, 0, 67, 50
1, 318511, Note_off_c, 0, 67, 48
1, 318535, Control_c, 0, 64, 91
1, 318544, Note_on_c, 0, 77, 74
1, 318550, Note_off_c, 0, 74, 59
1, 318550, Note_on_c, 0, 53, 74
1, 318550, Control_c, 0, 64, 67
1, 318552, Note_off_c, 0, 76, 60
1, 318559, Note_on_c, 0, 75, 62
1, 318565, Control_c, 0, 64, 56
1, 318580, Control_c, 0, 64, 38
1, 318595, Control_c, 0, 64, 8
1, 318610, Control_c, 0, 64, 0
1, 318640, Control_c, 0, 64, 12
1, 318655, Control_c, 0, 64, 32
1, 318669, Control_c, 0, 64, 45
1, 318684, Control_c, 0, 64, 59
1, 318699, Control_c, 0, 64, 75
1, 318700, Note_off_c, 0, 53, 63
1, 318705, Note_on_c, 0, 59, 59
1, 318720, Control_c, 0, 64, 127
1, 318721, Note_on_c, 0, 78, 81
1, 318738, Note_off_c, 0, 75, 61
1, 318744, Note_on_c, 0, 74, 60
1, 318747, Note_off_c, 0, 77, 59
1, 318800, Note_on_c, 0, 63, 62
1, 318821, Note_off_c, 0, 59, 50
1, 318865, Note_on_c, 0, 77, 76
1, 318872, Note_off_c, 0, 74, 55
1, 318876, Note_off_c, 0, 63, 61
1, 318879, Note_on_c, 0, 75, 60
1, 318886, Note_on_c, 0, 68, 60
1, 318890, Note_off_c, 0, 78, 60
1, 318991, Note_off_c, 0, 68, 51
1, 319015, Note_on_c, 0, 56, 76
1, 319015, Note_off_c, 0, 75, 58
1, 319032, Control_c, 0, 64, 122
1, 319036, Note_on_c, 0, 76, 72
1, 319047, Control_c, 0, 64, 73
1, 319055, Note_on_c, 0, 74, 51
1, 319062, Control_c, 0, 64, 59
1, 319076, Control_c, 0, 64, 38
1, 319088, Note_off_c, 0, 77, 54
1, 319091, Control_c, 0, 64, 0
1, 319135, Control_c, 0, 64, 24
1, 319149, Note_on_c, 0, 61, 63
1, 319150, Control_c, 0, 64, 42
1, 319165, Control_c, 0, 64, 58
1, 319170, Note_off_c, 0, 74, 64
1, 319180, Control_c, 0, 64, 80
1, 319182, Note_off_c, 0, 76, 64
1, 319185, Note_on_c, 0, 75, 68
1, 319188, Note_on_c, 0, 73, 57
1, 319196, Control_c, 0, 64, 127
1, 319197, Note_off_c, 0, 56, 64
1, 319207, Note_on_c, 0, 65, 59
1, 319221, Note_off_c, 0, 61, 65
1, 319268, Note_off_c, 0, 65, 65
1, 319275, Note_on_c, 0, 71, 63
1, 319312, Note_off_c, 0, 71, 63
1, 319331, Note_off_c, 0, 73, 62
1, 319343, Note_off_c, 0, 75, 62
1, 319344, Note_on_c, 0, 74, 69
1, 319350, Note_on_c, 0, 72, 57
1, 319397, Note_off_c, 0, 72, 56
1, 319492, Note_on_c, 0, 49, 80
1, 319514, Control_c, 0, 64, 76
1, 319529, Control_c, 0, 64, 60
1, 319532, Note_on_c, 0, 73, 68
1, 319539, Note_on_c, 0, 71, 55
1, 319542, Note_off_c, 0, 74, 58
1, 319543, Control_c, 0, 64, 40
1, 319558, Control_c, 0, 64, 0
1, 319603, Control_c, 0, 64, 22
1, 319617, Control_c, 0, 64, 41
1, 319632, Control_c, 0, 64, 57
1, 319646, Note_on_c, 0, 53, 62
1, 319647, Control_c, 0, 64, 77
1, 319662, Control_c, 0, 64, 127
1, 319665, Note_off_c, 0, 49, 60
1, 319677, Note_off_c, 0, 71, 62
1, 319680, Note_on_c, 0, 70, 59
1, 319685, Note_on_c, 0, 72, 65
1, 319689, Note_off_c, 0, 53, 65
1, 319689, Note_off_c, 0, 73, 55
1, 319722, Note_on_c, 0, 59, 54
1, 319747, Note_off_c, 0, 59, 63
1, 319814, Note_off_c, 0, 72, 61
1, 319818, Note_on_c, 0, 71, 54
1, 319819, Note_on_c, 0, 73, 64
1, 319819, Note_off_c, 0, 70, 57
1, 319823, Note_on_c, 0, 63, 62
1, 319856, Note_off_c, 0, 63, 67
1, 319859, Note_off_c, 0, 71, 64
1, 319880, Note_on_c, 0, 68, 72
1, 319930, Note_off_c, 0, 68, 58
1, 319978, Note_off_c, 0, 73, 62
1, 319979, Note_on_c, 0, 72, 59
1, 319984, Note_on_c, 0, 51, 80
1, 319989, Control_c, 0, 64, 76
1, 319990, Note_on_c, 0, 74, 65
1, 320004, Control_c, 0, 64, 63
1, 320019, Control_c, 0, 64, 51
1, 320033, Control_c, 0, 64, 38
1, 320048, Control_c, 0, 64, 34
1, 320063, Control_c, 0, 64, 39
1, 320078, Control_c, 0, 64, 52
1, 320093, Control_c, 0, 64, 67
1, 320107, Control_c, 0, 64, 127
1, 320125, Note_off_c, 0, 72, 60
1, 320129, Note_on_c, 0, 75, 72
1, 320137, Note_on_c, 0, 73, 56
1, 320142, Note_off_c, 0, 74, 58
1, 320147, Note_on_c, 0, 58, 70
1, 320237, Note_on_c, 0, 61, 64
1, 320246, Note_off_c, 0, 51, 60
1, 320252, Note_off_c, 0, 73, 53
1, 320265, Note_on_c, 0, 74, 64
1, 320272, Note_off_c, 0, 75, 62
1, 320279, Note_on_c, 0, 72, 62
1, 320287, Note_off_c, 0, 58, 58
1, 320310, Note_off_c, 0, 72, 63
1, 320323, Note_off_c, 0, 61, 61
1, 320346, Note_off_c, 0, 74, 64
1, 320357, Note_on_c, 0, 67, 50
1, 320380, Control_c, 0, 67, 121
1, 320395, Control_c, 0, 67, 110
1, 320410, Control_c, 0, 67, 99
1, 320416, Note_off_c, 0, 67, 46
1, 320425, Control_c, 0, 67, 89
1, 320436, Note_on_c, 0, 76, 69
1, 320437, Note_on_c, 0, 74, 74
1, 320440, Control_c, 0, 67, 79
1, 320442, Note_on_c, 0, 53, 80
1, 320443, Note_on_c, 0, 75, 46
1, 320455, Control_c, 0, 67, 71
1, 320470, Control_c, 0, 64, 73
1, 320470, Control_c, 0, 67, 65
1, 320484, Control_c, 0, 64, 55
1, 320484, Control_c, 0, 67, 59
1, 320498, Note_off_c, 0, 75, 56
1, 320499, Control_c, 0, 64, 30
1, 320499, Control_c, 0, 67, 55
1, 320508, Note_off_c, 0, 76, 62
1, 320508, Note_off_c, 0, 74, 61
1, 320514, Control_c, 0, 64, 14
1, 320514, Control_c, 0, 67, 50
1, 320529, Control_c, 0, 64, 20
1, 320529, Control_c, 0, 67, 44
1, 320544, Control_c, 0, 64, 36
1, 320544, Control_c, 0, 67, 38
1, 320558, Control_c, 0, 64, 57
1, 320558, Control_c, 0, 67, 33
1, 320573, Control_c, 0, 64, 102
1, 320573, Control_c, 0, 67, 30
1, 320574, Note_on_c, 0, 75, 75
1, 320578, Note_on_c, 0, 59, 70
1, 320588, Control_c, 0, 64, 127
1, 320588, Control_c, 0, 67, 29
1, 320589, Note_off_c, 0, 53, 64
1, 320595, Note_on_c, 0, 73, 66
1, 320603, Control_c, 0, 67, 28
1, 320642, Note_on_c, 0, 63, 60
1, 320680, Note_off_c, 0, 59, 60
1, 320698, Note_off_c, 0, 75, 52
1, 320714, Note_on_c, 0, 76, 72
1, 320717, Note_on_c, 0, 74, 67
1, 320745, Note_off_c, 0, 73, 35
1, 320748, Note_on_c, 0, 68, 56
1, 320749, Note_off_c, 0, 63, 65
1, 320776, Note_off_c, 0, 74, 61
1, 320777, Note_off_c, 0, 76, 62
1, 320795, Note_off_c, 0, 68, 47
1, 320826, Control_c, 0, 67, 29
1, 320848, Note_on_c, 0, 56, 85
1, 320855, Control_c, 0, 64, 67
1, 320855, Control_c, 0, 67, 29
1, 320869, Note_on_c, 0, 77, 74
1, 320870, Control_c, 0, 64, 51
1, 320885, Control_c, 0, 64, 30
1, 320892, Note_on_c, 0, 76, 45
1, 320900, Control_c, 0, 64, 27
1, 320914, Control_c, 0, 64, 35
1, 320914, Control_c, 0, 67, 30
1, 320919, Note_off_c, 0, 76, 36
1, 320929, Note_off_c, 0, 77, 58
1, 320929, Control_c, 0, 64, 53
1, 320929, Control_c, 0, 67, 31
1, 320936, Note_on_c, 0, 61, 66
1, 320944, Control_c, 0, 64, 77
1, 320944, Control_c, 0, 67, 31
1, 320967, Control_c, 0, 64, 127
1, 320967, Control_c, 0, 67, 32
1, 320976, Note_on_c, 0, 65, 66
1, 320995, Note_off_c, 0, 56, 62
1, 320999, Note_on_c, 0, 78, 73
1, 321024, Note_off_c, 0, 61, 65
1, 321069, Note_on_c, 0, 71, 42
1, 321071, Control_c, 0, 67, 33
1, 321086, Control_c, 0, 67, 35
1, 321097, Note_off_c, 0, 71, 59
1, 321100, Note_off_c, 0, 65, 64
1, 321101, Control_c, 0, 67, 37
1, 321115, Control_c, 0, 67, 39
1, 321126, Note_on_c, 0, 79, 66
1, 321130, Control_c, 0, 67, 41
1, 321144, Note_off_c, 0, 78, 26
1, 321145, Control_c, 0, 67, 43
1, 321160, Control_c, 0, 67, 47
1, 321175, Control_c, 0, 67, 53
1, 321189, Control_c, 0, 67, 61
1, 321201, Note_off_c, 0, 79, 60
1, 321204, Control_c, 0, 67, 68
1, 321219, Control_c, 0, 67, 77
1, 321234, Control_c, 0, 67, 87
1, 321249, Control_c, 0, 67, 98
1, 321263, Control_c, 0, 64, 68
1, 321263, Control_c, 0, 67, 110
1, 321278, Control_c, 0, 64, 49
1, 321278, Control_c, 0, 67, 125
1, 321293, Control_c, 0, 64, 10
1, 321293, Control_c, 0, 67, 127
1, 321296, Note_on_c, 0, 79, 70
1, 321305, Note_on_c, 0, 47, 68
1, 321306, Note_on_c, 0, 77, 61
1, 321308, Control_c, 0, 64, 0
1, 321322, Control_c, 0, 64, 12
1, 321337, Control_c, 0, 64, 35
1, 321352, Control_c, 0, 64, 52
1, 321359, Note_off_c, 0, 47, 62
1, 321367, Control_c, 0, 64, 68
1, 321381, Note_off_c, 0, 77, 38
1, 321382, Control_c, 0, 64, 117
1, 321386, Note_on_c, 0, 78, 72
1, 321388, Note_off_c, 0, 79, 59
1, 321397, Control_c, 0, 64, 127
1, 321397, Note_on_c, 0, 76, 60
1, 321412, Control_c, 0, 64, 110
1, 321427, Control_c, 0, 64, 91
1, 321441, Control_c, 0, 64, 79
1, 321456, Control_c, 0, 64, 72
1, 321462, Note_off_c, 0, 76, 63
1, 321471, Note_off_c, 0, 78, 63
1, 321471, Control_c, 0, 64, 68
1, 321486, Control_c, 0, 64, 66
1, 321495, Note_on_c, 0, 79, 67
1, 321501, Note_on_c, 0, 77, 61
1, 321501, Control_c, 0, 64, 63
1, 321515, Control_c, 0, 64, 60
1, 321530, Control_c, 0, 64, 56
1, 321531, Note_off_c, 0, 77, 58
1, 321545, Control_c, 0, 64, 49
1, 321560, Control_c, 0, 64, 41
1, 321575, Control_c, 0, 64, 34
1, 321591, Control_c, 0, 64, 28
1, 321592, Note_off_c, 0, 79, 57
1, 321598, Note_on_c, 0, 65, 52
1, 321602, Note_on_c, 0, 80, 67
1, 321605, Control_c, 0, 64, 23
1, 321610, Note_on_c, 0, 74, 61
1, 321614, Note_on_c, 0, 78, 60
1, 321620, Control_c, 0, 64, 20
1, 321629, Note_on_c, 0, 68, 46
1, 321629, Note_off_c, 0, 65, 62
1, 321634, Note_off_c, 0, 74, 65
1, 321635, Control_c, 0, 64, 16
1, 321650, Control_c, 0, 64, 8
1, 321657, Note_off_c, 0, 68, 56
1, 321665, Control_c, 0, 64, 0
1, 321687, Note_off_c, 0, 80, 62
1, 321689, Note_off_c, 0, 78, 65
1, 321699, Note_on_c, 0, 81, 66
1, 321700, Note_on_c, 0, 79, 66
1, 321770, Note_off_c, 0, 79, 61
1, 321787, Note_off_c, 0, 81, 60
1, 321799, Note_on_c, 0, 82, 71
1, 321810, Note_on_c, 0, 80, 58
1, 321844, Note_off_c, 0, 80, 64
1, 321859, Note_off_c, 0, 82, 65
1, 321883, Note_on_c, 0, 63, 52
1, 321883, Note_on_c, 0, 69, 47
1, 321894, Control_c, 0, 64, 31
1, 321896, Note_on_c, 0, 83, 67
1, 321898, Note_on_c, 0, 81, 66
1, 321909, Control_c, 0, 64, 44
1, 321910, Note_on_c, 0, 71, 58
1, 321924, Control_c, 0, 64, 56
1, 321927, Note_off_c, 0, 69, 41
1, 321934, Note_off_c, 0, 63, 57
1, 321938, Control_c, 0, 64, 64
1, 321951, Note_off_c, 0, 71, 47
1, 321953, Control_c, 0, 64, 68
1, 321969, Note_off_c, 0, 81, 54
1, 321993, Note_on_c, 0, 87, 76
1, 321998, Control_c, 0, 64, 67
1, 322001, Note_on_c, 0, 85, 66
1, 322007, Note_off_c, 0, 83, 36
1, 322012, Control_c, 0, 64, 67
1, 322027, Control_c, 0, 64, 66
1, 322044, Note_off_c, 0, 85, 51
1, 322063, Note_off_c, 0, 87, 61
1, 322080, Note_on_c, 0, 81, 70
1, 322101, Control_c, 0, 64, 66
1, 322116, Control_c, 0, 64, 65
1, 322124, Note_off_c, 0, 81, 61
1, 322130, Control_c, 0, 64, 63
1, 322140, Note_on_c, 0, 78, 73
1, 322145, Control_c, 0, 64, 59
1, 322151, Note_on_c, 0, 71, 55
1, 322152, Note_on_c, 0, 69, 61
1, 322154, Note_on_c, 0, 82, 72
1, 322158, Note_off_c, 0, 78, 68
1, 322160, Control_c, 0, 64, 52
1, 322161, Note_on_c, 0, 80, 69
1, 322175, Control_c, 0, 64, 40
1, 322176, Note_off_c, 0, 69, 65
1, 322177, Note_off_c, 0, 71, 60
1, 322190, Control_c, 0, 64, 26
1, 322205, Control_c, 0, 64, 0
1, 322217, Note_off_c, 0, 80, 58
1, 322220, Note_off_c, 0, 82, 63
1, 322229, Note_on_c, 0, 81, 72
1, 322253, Note_on_c, 0, 79, 53
1, 322279, Note_off_c, 0, 79, 58
1, 322314, Note_off_c, 0, 81, 62
1, 322327, Note_on_c, 0, 80, 62
1, 322336, Note_on_c, 0, 78, 58
1, 322382, Note_off_c, 0, 78, 56
1, 322390, Note_off_c, 0, 80, 62
1, 322402, Note_on_c, 0, 59, 56
1, 322412, Note_on_c, 0, 65, 47
1, 322412, Note_on_c, 0, 79, 58
1, 322413, Note_on_c, 0, 67, 51
1, 322413, Note_on_c, 0, 77, 63
1, 322413, Control_c, 0, 64, 34
1, 322428, Control_c, 0, 64, 45
1, 322437, Note_off_c, 0, 65, 60
1, 322440, Note_off_c, 0, 59, 61
1, 322440, Note_off_c, 0, 67, 60
1, 322443, Control_c, 0, 64, 56
1, 322449, Note_off_c, 0, 77, 58
1, 322465, Control_c, 0, 64, 61
1, 322480, Control_c, 0, 64, 59
1, 322491, Note_on_c, 0, 78, 67
1, 322494, Note_off_c, 0, 79, 62
1, 322494, Control_c, 0, 64, 50
1, 322497, Note_on_c, 0, 76, 58
1, 322509, Control_c, 0, 64, 35
1, 322524, Control_c, 0, 64, 15
1, 322536, Note_off_c, 0, 76, 58
1, 322539, Control_c, 0, 64, 0
1, 322557, Note_off_c, 0, 78, 64
1, 322574, Note_on_c, 0, 77, 65
1, 322581, Note_on_c, 0, 79, 59
1, 322617, Note_off_c, 0, 77, 61
1, 322634, Note_on_c, 0, 67, 52
1, 322639, Note_on_c, 0, 65, 54
1, 322639, Note_on_c, 0, 74, 62
1, 322641, Note_off_c, 0, 79, 0
1, 322641, Note_on_c, 0, 79, 9
1, 322652, Note_on_c, 0, 80, 71
1, 322659, Note_off_c, 0, 79, 58
1, 322661, Note_off_c, 0, 74, 64
1, 322664, Note_on_c, 0, 78, 65
1, 322671, Note_off_c, 0, 67, 64
1, 322673, Note_off_c, 0, 65, 67
1, 322706, Note_off_c, 0, 78, 63
1, 322715, Note_off_c, 0, 80, 63
1, 322731, Note_on_c, 0, 79, 67
1, 322734, Note_on_c, 0, 81, 65
1, 322789, Note_off_c, 0, 79, 59
1, 322792, Note_off_c, 0, 81, 61
1, 322804, Note_on_c, 0, 82, 74
1, 322819, Note_on_c, 0, 80, 57
1, 322846, Note_off_c, 0, 80, 65
1, 322858, Note_off_c, 0, 82, 64
1, 322884, Note_on_c, 0, 63, 70
1, 322889, Note_on_c, 0, 81, 72
1, 322890, Note_on_c, 0, 83, 66
1, 322894, Control_c, 0, 64, 33
1, 322905, Note_on_c, 0, 71, 52
1, 322909, Control_c, 0, 64, 46
1, 322924, Control_c, 0, 64, 57
1, 322929, Note_off_c, 0, 71, 64
1, 322939, Note_off_c, 0, 63, 59
1, 322939, Control_c, 0, 64, 63
1, 322953, Control_c, 0, 64, 64
1, 322967, Note_off_c, 0, 81, 57
1, 322971, Poly_aftertouch_c, 0, 69, 0
1, 322974, Note_off_c, 0, 83, 55
1, 322980, Note_on_c, 0, 87, 78
1, 322986, Note_on_c, 0, 85, 70
1, 323028, Control_c, 0, 64, 65
1, 323044, Note_off_c, 0, 85, 61
1, 323048, Note_off_c, 0, 87, 62
1, 323063, Note_on_c, 0, 81, 79
1, 323096, Note_off_c, 0, 81, 61
1, 323114, Note_on_c, 0, 78, 74
1, 323117, Control_c, 0, 64, 64
1, 323129, Note_on_c, 0, 71, 60
1, 323132, Note_on_c, 0, 82, 76
1, 323132, Control_c, 0, 64, 63
1, 323132, Control_c, 0, 67, 121
1, 323133, Note_on_c, 0, 69, 60
1, 323136, Note_on_c, 0, 80, 76
1, 323136, Note_off_c, 0, 78, 72
1, 323147, Control_c, 0, 64, 59
1, 323147, Control_c, 0, 67, 112
1, 323153, Note_off_c, 0, 71, 65
1, 323161, Control_c, 0, 64, 51
1, 323161, Control_c, 0, 67, 104
1, 323162, Note_off_c, 0, 69, 67
1, 323177, Control_c, 0, 64, 37
1, 323177, Control_c, 0, 67, 99
1, 323191, Control_c, 0, 64, 15
1, 323191, Control_c, 0, 67, 99
1, 323197, Note_off_c, 0, 82, 62
1, 323197, Note_off_c, 0, 80, 61
1, 323212, Note_on_c, 0, 81, 64
1, 323214, Control_c, 0, 64, 0
1, 323230, Note_on_c, 0, 79, 55
1, 323244, Control_c, 0, 67, 99
1, 323251, Note_off_c, 0, 79, 59
1, 323258, Control_c, 0, 67, 98
1, 323273, Control_c, 0, 67, 98
1, 323281, Note_off_c, 0, 81, 63
1, 323284, Note_on_c, 0, 80, 69
1, 323299, Note_on_c, 0, 78, 57
1, 323317, Control_c, 0, 67, 97
1, 323332, Control_c, 0, 67, 94
1, 323347, Control_c, 0, 67, 89
1, 323348, Note_off_c, 0, 80, 63
1, 323350, Note_off_c, 0, 78, 65
1, 323362, Control_c, 0, 67, 83
1, 323366, Note_on_c, 0, 77, 68
1, 323367, Note_on_c, 0, 47, 74
1, 323375, Note_on_c, 0, 79, 55
1, 323377, Control_c, 0, 64, 35
1, 323377, Control_c, 0, 67, 75
1, 323391, Control_c, 0, 64, 46
1, 323391, Control_c, 0, 67, 69
1, 323393, Note_off_c, 0, 47, 67
1, 323406, Control_c, 0, 64, 56
1, 323406, Control_c, 0, 67, 60
1, 323421, Control_c, 0, 64, 62
1, 323421, Control_c, 0, 67, 50
1, 323436, Control_c, 0, 64, 63
1, 323436, Control_c, 0, 67, 38
1, 323443, Note_off_c, 0, 77, 63
1, 323445, Note_on_c, 0, 78, 74
1, 323451, Control_c, 0, 67, 25
1, 323453, Note_on_c, 0, 76, 61
1, 323466, Control_c, 0, 64, 63
1, 323466, Control_c, 0, 67, 11
1, 323479, Note_off_c, 0, 79, 25
1, 323481, Control_c, 0, 64, 62
1, 323481, Control_c, 0, 67, 0
1, 323484, Note_off_c, 0, 76, 62
1, 323513, Note_off_c, 0, 78, 64
1, 323525, Control_c, 0, 64, 62
1, 323526, Note_on_c, 0, 77, 70
1, 323528, Note_on_c, 0, 79, 65
1, 323540, Control_c, 0, 64, 60
1, 323555, Control_c, 0, 64, 58
1, 323568, Note_off_c, 0, 77, 62
1, 323570, Control_c, 0, 64, 55
1, 323584, Control_c, 0, 64, 50
1, 323593, Note_on_c, 0, 59, 65
1, 323597, Note_on_c, 0, 67, 62
1, 323598, Note_on_c, 0, 65, 54
1, 323599, Control_c, 0, 64, 44
1, 323603, Note_off_c, 0, 79, 64
1, 323606, Note_on_c, 0, 80, 71
1, 323612, Note_on_c, 0, 78, 70
1, 323614, Control_c, 0, 64, 32
1, 323618, Note_off_c, 0, 67, 62
1, 323621, Note_off_c, 0, 65, 63
1, 323627, Note_off_c, 0, 59, 63
1, 323629, Control_c, 0, 64, 18
1, 323643, Control_c, 0, 64, 0
1, 323648, Note_off_c, 0, 78, 61
1, 323661, Note_off_c, 0, 80, 63
1, 323675, Note_on_c, 0, 79, 66
1, 323679, Note_on_c, 0, 81, 70
1, 323725, Note_off_c, 0, 79, 57
1, 323749, Note_on_c, 0, 82, 76
1, 323751, Note_off_c, 0, 81, 64
1, 323761, Note_on_c, 0, 80, 70
1, 323808, Note_off_c, 0, 80, 59
1, 323818, Note_on_c, 0, 47, 78
1, 323820, Note_off_c, 0, 82, 64
1, 323825, Note_on_c, 0, 81, 77
1, 323828, Note_on_c, 0, 79, 72
1, 323835, Control_c, 0, 64, 33
1, 323845, Note_off_c, 0, 47, 69
1, 323850, Control_c, 0, 64, 50
1, 323865, Control_c, 0, 64, 63
1, 323879, Note_off_c, 0, 79, 55
1, 323880, Control_c, 0, 64, 77
1, 323895, Control_c, 0, 64, 83
1, 323904, Note_on_c, 0, 80, 80
1, 323907, Note_off_c, 0, 81, 64
1, 323908, Note_on_c, 0, 78, 77
1, 323910, Control_c, 0, 64, 82
1, 323925, Control_c, 0, 64, 79
1, 323940, Control_c, 0, 64, 77
1, 323962, Control_c, 0, 64, 76
1, 323971, Note_off_c, 0, 80, 60
1, 323974, Note_off_c, 0, 78, 65
1, 323977, Note_on_c, 0, 79, 76
1, 323977, Control_c, 0, 64, 75
1, 323990, Note_on_c, 0, 81, 67
1, 323993, Control_c, 0, 64, 72
1, 324007, Control_c, 0, 64, 70
1, 324022, Control_c, 0, 64, 67
1, 324029, Note_off_c, 0, 79, 62
1, 324037, Control_c, 0, 64, 64
1, 324044, Note_on_c, 0, 63, 78
1, 324050, Note_on_c, 0, 71, 60
1, 324052, Control_c, 0, 64, 62
1, 324056, Note_on_c, 0, 82, 80
1, 324058, Note_on_c, 0, 69, 43
1, 324058, Note_off_c, 0, 81, 62
1, 324067, Control_c, 0, 64, 59
1, 324069, Note_off_c, 0, 71, 66
1, 324077, Note_on_c, 0, 80, 56
1, 324080, Note_off_c, 0, 63, 62
1, 324081, Control_c, 0, 64, 55
1, 324086, Note_off_c, 0, 69, 55
1, 324094, Note_off_c, 0, 80, 64
1, 324096, Control_c, 0, 64, 49
1, 324111, Note_off_c, 0, 82, 64
1, 324111, Control_c, 0, 64, 42
1, 324125, Note_on_c, 0, 81, 77
1, 324125, Note_on_c, 0, 83, 74
1, 324126, Control_c, 0, 64, 37
1, 324140, Control_c, 0, 64, 33
1, 324155, Control_c, 0, 64, 26
1, 324170, Control_c, 0, 64, 10
1, 324185, Control_c, 0, 64, 0
1, 324196, Note_on_c, 0, 84, 79
1, 324203, Note_on_c, 0, 82, 83
1, 324205, Note_off_c, 0, 81, 61
1, 324215, Note_off_c, 0, 83, 58
1, 324235, Note_off_c, 0, 82, 63
1, 324265, Note_on_c, 0, 46, 85
1, 324285, Note_off_c, 0, 84, 64
1, 324288, Control_c, 0, 64, 29
1, 324290, Note_off_c, 0, 46, 69
1, 324291, Note_on_c, 0, 81, 79
1, 324291, Note_on_c, 0, 83, 65
1, 324303, Control_c, 0, 64, 48
1, 324318, Control_c, 0, 64, 63
1, 324333, Control_c, 0, 64, 80
1, 324348, Control_c, 0, 64, 95
1, 324348, Note_on_c, 0, 82, 82
1, 324349, Note_on_c, 0, 80, 86
1, 324354, Note_off_c, 0, 81, 64
1, 324355, Note_off_c, 0, 83, 66
1, 324363, Control_c, 0, 64, 95
1, 324378, Control_c, 0, 64, 90
1, 324393, Control_c, 0, 64, 88
1, 324396, Note_off_c, 0, 82, 62
1, 324407, Control_c, 0, 64, 87
1, 324417, Note_off_c, 0, 80, 60
1, 324417, Note_on_c, 0, 81, 77
1, 324421, Note_on_c, 0, 83, 76
1, 324422, Control_c, 0, 64, 86
1, 324437, Control_c, 0, 64, 85
1, 324451, Control_c, 0, 64, 84
1, 324466, Control_c, 0, 64, 81
1, 324478, Note_off_c, 0, 81, 55
1, 324481, Control_c, 0, 64, 77
1, 324490, Note_off_c, 0, 83, 39
1, 324492, Note_on_c, 0, 72, 72
1, 324493, Note_on_c, 0, 62, 78
1, 324496, Control_c, 0, 64, 74
1, 324497, Note_on_c, 0, 82, 87
1, 324500, Note_on_c, 0, 84, 86
1, 324511, Control_c, 0, 64, 72
1, 324513, Note_off_c, 0, 72, 67
1, 324518, Note_off_c, 0, 82, 69
1, 324521, Note_on_c, 0, 68, 17
1, 324522, Note_off_c, 0, 68, 127
1, 324522, Note_off_c, 0, 84, 68
1, 324526, Control_c, 0, 64, 70
1, 324540, Control_c, 0, 64, 70
1, 324544, Note_off_c, 0, 62, 62
1, 324569, Note_on_c, 0, 86, 85
1, 324576, Note_on_c, 0, 88, 94
1, 324613, Note_off_c, 0, 88, 53
1, 324617, Note_off_c, 0, 86, 56
1, 324629, Control_c, 0, 64, 69
1, 324640, Note_on_c, 0, 94, 92
1, 324644, Control_c, 0, 64, 62
1, 324645, Note_on_c, 0, 90, 86
1, 324658, Control_c, 0, 64, 39
1, 324661, Note_on_c, 0, 97, 54
1, 324673, Control_c, 0, 64, 0
1, 324685, Note_off_c, 0, 97, 65
1, 324706, Note_on_c, 0, 46, 96
1, 324710, Note_off_c, 0, 90, 60
1, 324713, Note_off_c, 0, 94, 63
1, 324730, Note_on_c, 0, 88, 72
1, 324731, Note_on_c, 0, 86, 84
1, 324732, Note_off_c, 0, 46, 69
1, 324755, Control_c, 0, 64, 44
1, 324770, Control_c, 0, 64, 63
1, 324786, Control_c, 0, 64, 127
1, 324803, Note_on_c, 0, 85, 87
1, 324805, Note_on_c, 0, 87, 88
1, 324813, Note_off_c, 0, 88, 60
1, 324814, Note_off_c, 0, 86, 59
1, 324852, Note_off_c, 0, 85, 58
1, 324858, Note_off_c, 0, 87, 61
1, 324886, Note_on_c, 0, 88, 81
1, 324887, Note_on_c, 0, 86, 85
1, 324932, Note_off_c, 0, 86, 59
1, 324944, Note_on_c, 0, 68, 79
1, 324952, Note_on_c, 0, 76, 69
1, 324957, Note_on_c, 0, 74, 52
1, 324964, Note_on_c, 0, 87, 89
1, 324969, Note_on_c, 0, 89, 85
1, 324969, Note_off_c, 0, 76, 70
1, 324969, Note_off_c, 0, 88, 0
1, 324980, Note_off_c, 0, 74, 63
1, 324984, Note_off_c, 0, 68, 57
1, 324986, Note_on_c, 0, 88, 37
1, 325017, Note_off_c, 0, 88, 58
1, 325028, Note_off_c, 0, 89, 63
1, 325049, Note_on_c, 0, 88, 89
1, 325052, Note_on_c, 0, 86, 85
1, 325053, Note_off_c, 0, 87, 63
1, 325129, Note_on_c, 0, 95, 101
1, 325135, Note_on_c, 0, 92, 88
1, 325137, Note_off_c, 0, 86, 42
1, 325159, Note_off_c, 0, 88, 36
1, 325201, Control_c, 0, 64, 70
1, 325216, Control_c, 0, 64, 42
1, 325230, Control_c, 0, 64, 0
1, 325233, Note_off_c, 0, 95, 63
1, 325235, Note_on_c, 0, 90, 94
1, 325239, Note_on_c, 0, 87, 93
1, 325242, Note_on_c, 0, 44, 84
1, 325255, Note_off_c, 0, 92, 66
1, 325274, Control_c, 0, 64, 35
1, 325283, Note_on_c, 0, 46, 32
1, 325284, Note_off_c, 0, 46, 127
1, 325289, Control_c, 0, 64, 58
1, 325304, Control_c, 0, 64, 127
1, 325305, Note_off_c, 0, 90, 65
1, 325317, Note_off_c, 0, 87, 66
1, 325323, Poly_aftertouch_c, 0, 46, 0
1, 325344, Note_on_c, 0, 82, 75
1, 325357, Note_off_c, 0, 82, 71
1, 325359, Note_on_c, 0, 51, 64
1, 325371, Note_off_c, 0, 44, 60
1, 325426, Note_on_c, 0, 54, 70
1, 325427, Note_on_c, 0, 78, 74
1, 325434, Note_off_c, 0, 51, 61
1, 325454, Note_on_c, 0, 75, 61
1, 325481, Note_off_c, 0, 54, 63
1, 325484, Note_off_c, 0, 75, 63
1, 325495, Note_off_c, 0, 78, 65
1, 325513, Note_on_c, 0, 58, 64
1, 325520, Note_on_c, 0, 70, 68
1, 325543, Note_off_c, 0, 58, 66
1, 325561, Note_off_c, 0, 70, 50
1, 325603, Note_on_c, 0, 80, 64
1, 325603, Note_on_c, 0, 61, 62
1, 325612, Note_on_c, 0, 78, 57
1, 325632, Note_off_c, 0, 78, 67
1, 325650, Note_off_c, 0, 61, 59
1, 325666, Note_off_c, 0, 80, 59
1, 325673, Note_on_c, 0, 73, 67
1, 325675, Note_on_c, 0, 63, 58
1, 325704, Note_off_c, 0, 63, 67
1, 325721, Note_off_c, 0, 73, 60
1, 325735, Note_on_c, 0, 66, 63
1, 325743, Note_on_c, 0, 80, 70
1, 325743, Note_on_c, 0, 82, 72
1, 325772, Note_off_c, 0, 80, 61
1, 325776, Note_off_c, 0, 82, 55
1, 325785, Note_on_c, 0, 63, 64
1, 325788, Note_off_c, 0, 66, 55
1, 325818, Note_on_c, 0, 75, 66
1, 325835, Note_off_c, 0, 63, 63
1, 325846, Note_on_c, 0, 61, 62
1, 325859, Note_off_c, 0, 75, 60
1, 325869, Note_on_c, 0, 85, 75
1, 325873, Note_on_c, 0, 82, 65
1, 325874, Note_off_c, 0, 61, 68
1, 325892, Note_off_c, 0, 82, 65
1, 325915, Note_off_c, 0, 85, 63
1, 325916, Note_on_c, 0, 58, 61
1, 325938, Note_on_c, 0, 78, 77
1, 325979, Note_on_c, 0, 54, 70
1, 325981, Note_off_c, 0, 58, 53
1, 325995, Note_off_c, 0, 78, 63
1, 325998, Note_on_c, 0, 87, 74
1, 326017, Note_on_c, 0, 85, 58
1, 326038, Note_off_c, 0, 85, 64
1, 326038, Note_on_c, 0, 51, 72
1, 326044, Note_off_c, 0, 54, 63
1, 326046, Note_off_c, 0, 87, 63
1, 326067, Note_on_c, 0, 80, 74
1, 326101, Note_off_c, 0, 51, 63
1, 326117, Note_off_c, 0, 80, 61
1, 326128, Note_on_c, 0, 44, 82
1, 326130, Note_on_c, 0, 90, 89
1, 326133, Note_on_c, 0, 87, 80
1, 326171, Note_off_c, 0, 87, 59
1, 326184, Note_off_c, 0, 90, 66
1, 326187, Note_on_c, 0, 51, 66
1, 326211, Note_on_c, 0, 82, 77
1, 326219, Note_off_c, 0, 44, 58
1, 326248, Note_on_c, 0, 54, 78
1, 326258, Note_off_c, 0, 82, 63
1, 326259, Note_off_c, 0, 51, 62
1, 326272, Note_on_c, 0, 92, 78
1, 326286, Note_on_c, 0, 90, 66
1, 326298, Note_off_c, 0, 54, 64
1, 326315, Note_off_c, 0, 90, 68
1, 326318, Note_on_c, 0, 58, 73
1, 326321, Note_off_c, 0, 92, 64
1, 326345, Note_on_c, 0, 85, 68
1, 326348, Note_off_c, 0, 58, 64
1, 326394, Note_off_c, 0, 85, 63
1, 326400, Note_on_c, 0, 61, 79
1, 326412, Note_on_c, 0, 94, 78
1, 326414, Note_on_c, 0, 92, 78
1, 326447, Note_off_c, 0, 94, 59
1, 326457, Note_off_c, 0, 92, 62
1, 326467, Note_off_c, 0, 61, 66
1, 326467, Note_on_c, 0, 63, 82
1, 326478, Note_on_c, 0, 87, 80
1, 326524, Note_off_c, 0, 63, 63
1, 326529, Note_off_c, 0, 87, 65
1, 326533, Note_on_c, 0, 70, 84
1, 326540, Note_on_c, 0, 97, 93
1, 326545, Note_on_c, 0, 94, 90
1, 326580, Note_off_c, 0, 70, 60
1, 326586, Note_off_c, 0, 94, 58
1, 326600, Note_off_c, 0, 97, 64
1, 326611, Note_on_c, 0, 73, 83
1, 326615, Note_on_c, 0, 90, 87
1, 326668, Note_off_c, 0, 90, 65
1, 326680, Note_off_c, 0, 73, 66
1, 326682, Note_on_c, 0, 99, 81
1, 326685, Note_on_c, 0, 75, 84
1, 326685, Note_on_c, 0, 97, 79
1, 326704, Note_off_c, 0, 99, 70
1, 326724, Note_off_c, 0, 97, 61
1, 326734, Note_off_c, 0, 75, 60
1, 326736, Note_on_c, 0, 92, 84
1, 326747, Note_on_c, 0, 80, 80
1, 326776, Note_off_c, 0, 80, 59
1, 326789, Note_off_c, 0, 92, 66
1, 326811, Note_on_c, 0, 101, 71
1, 326815, Note_on_c, 0, 84, 77
1, 326821, Note_on_c, 0, 97, 48
1, 326843, Note_off_c, 0, 101, 66
1, 326848, Note_off_c, 0, 97, 37
1, 326862, Note_on_c, 0, 94, 92
1, 326898, Note_off_c, 0, 84, 60
1, 326915, Note_off_c, 0, 94, 66
1, 326920, Control_c, 0, 67, 12
1, 326934, Note_on_c, 0, 102, 96
1, 326935, Note_on_c, 0, 90, 105
1, 326935, Control_c, 0, 67, 31
1, 326936, Note_on_c, 0, 104, 94
1, 326938, Note_on_c, 0, 81, 86
1, 326957, Control_c, 0, 64, 67
1, 326957, Control_c, 0, 67, 63
1, 326972, Control_c, 0, 64, 54
1, 326972, Control_c, 0, 67, 114
1, 326987, Control_c, 0, 64, 29
1, 326987, Control_c, 0, 67, 127
1, 326996, Note_off_c, 0, 90, 67
1, 326997, Note_off_c, 0, 104, 64
1, 326999, Note_off_c, 0, 81, 60
1, 327001, Note_off_c, 0, 102, 64
1, 327001, Control_c, 0, 64, 0
1, 327025, Note_on_c, 0, 95, 62
1, 327043, Note_on_c, 0, 96, 20
1, 327045, Note_off_c, 0, 95, 62
1, 327073, Note_on_c, 0, 85, 71
1, 327079, Note_on_c, 0, 97, 84
1, 327081, Note_on_c, 0, 81, 68
1, 327082, Note_on_c, 0, 99, 86
1, 327085, Note_off_c, 0, 96, 29
1, 327095, Note_off_c, 0, 85, 69
1, 327104, Note_off_c, 0, 81, 66
1, 327120, Note_off_c, 0, 99, 61
1, 327122, Note_off_c, 0, 97, 62
1, 327141, Note_on_c, 0, 91, 76
1, 327163, Note_off_c, 0, 91, 65
1, 327203, Note_on_c, 0, 75, 77
1, 327210, Note_on_c, 0, 92, 81
1, 327213, Note_on_c, 0, 80, 57
1, 327226, Note_on_c, 0, 93, 50
1, 327233, Note_off_c, 0, 80, 62
1, 327254, Note_off_c, 0, 93, 53
1, 327263, Note_off_c, 0, 92, 63
1, 327271, Note_off_c, 0, 75, 49
1, 327290, Note_on_c, 0, 88, 34
1, 327292, Note_on_c, 0, 86, 46
1, 327317, Note_off_c, 0, 86, 55
1, 327323, Note_off_c, 0, 88, 50
1, 327333, Note_on_c, 0, 78, 88
1, 327335, Note_on_c, 0, 90, 86
1, 327336, Note_on_c, 0, 92, 74
1, 327344, Control_c, 0, 64, 10
1, 327345, Note_on_c, 0, 68, 65
1, 327347, Note_on_c, 0, 72, 66
1, 327358, Control_c, 0, 64, 15
1, 327365, Note_off_c, 0, 92, 60
1, 327373, Note_off_c, 0, 72, 68
1, 327373, Control_c, 0, 64, 0
1, 327375, Note_off_c, 0, 68, 63
1, 327379, Note_off_c, 0, 78, 60
1, 327388, Note_off_c, 0, 90, 64
1, 327400, Note_on_c, 0, 84, 64
1, 327419, Note_off_c, 0, 84, 62
1, 327468, Note_on_c, 0, 69, 56
1, 327468, Note_on_c, 0, 85, 78
1, 327472, Note_on_c, 0, 87, 58
1, 327490, Note_off_c, 0, 87, 41
1, 327494, Note_on_c, 0, 71, 29
1, 327497, Note_off_c, 0, 69, 66
1, 327507, Note_on_c, 0, 82, 21
1, 327517, Note_off_c, 0, 85, 61
1, 327522, Note_off_c, 0, 82, 35
1, 327528, Note_off_c, 0, 71, 56
1, 327529, Note_on_c, 0, 79, 68
1, 327545, Note_off_c, 0, 79, 67
1, 327596, Note_on_c, 0, 70, 71
1, 327601, Note_on_c, 0, 65, 63
1, 327604, Note_on_c, 0, 82, 68
1, 327615, Note_off_c, 0, 70, 65
1, 327618, Note_on_c, 0, 80, 34
1, 327619, Note_off_c, 0, 80, 127
1, 327620, Note_on_c, 0, 68, 33
1, 327633, Note_off_c, 0, 65, 63
1, 327654, Note_off_c, 0, 68, 48
1, 327660, Poly_aftertouch_c, 0, 61, 127
1, 327661, Note_off_c, 0, 82, 63
1, 327674, Note_on_c, 0, 74, 42
1, 327685, Poly_aftertouch_c, 0, 61, 0
1, 327706, Note_off_c, 0, 74, 59
1, 327725, Note_on_c, 0, 80, 80
1, 327727, Note_on_c, 0, 78, 83
1, 327735, Note_on_c, 0, 66, 84
1, 327743, Note_on_c, 0, 56, 73
1, 327768, Note_on_c, 0, 60, 37
1, 327784, Note_off_c, 0, 80, 61
1, 327785, Note_off_c, 0, 78, 66
1, 327788, Note_off_c, 0, 66, 58
1, 327791, Note_off_c, 0, 56, 62
1, 327792, Note_on_c, 0, 72, 66
1, 327796, Note_off_c, 0, 60, 56
1, 327825, Note_off_c, 0, 72, 65
1, 327869, Note_on_c, 0, 61, 74
1, 327872, Note_on_c, 0, 57, 68
1, 327874, Note_on_c, 0, 75, 68
1, 327875, Note_on_c, 0, 73, 72
1, 327899, Note_off_c, 0, 61, 66
1, 327901, Note_off_c, 0, 57, 65
1, 327910, Note_off_c, 0, 75, 62
1, 327922, Note_off_c, 0, 73, 63
1, 327996, Note_on_c, 0, 56, 83
1, 328006, Note_on_c, 0, 52, 71
1, 328008, Note_on_c, 0, 70, 69
1, 328009, Note_on_c, 0, 68, 75
1, 328024, Note_on_c, 0, 44, 45
1, 328032, Note_off_c, 0, 56, 67
1, 328048, Note_off_c, 0, 52, 59
1, 328054, Note_off_c, 0, 44, 51
1, 328072, Note_off_c, 0, 68, 59
1, 328077, Note_on_c, 0, 62, 56
1, 328090, Note_off_c, 0, 70, 56
1, 328109, Note_on_c, 0, 64, 8
1, 328118, Note_off_c, 0, 62, 52
1, 328134, Note_on_c, 0, 44, 68
1, 328137, Note_on_c, 0, 54, 84
1, 328149, Note_on_c, 0, 68, 66
1, 328152, Note_on_c, 0, 48, 61
1, 328152, Note_on_c, 0, 66, 68
1, 328159, Note_off_c, 0, 64, 38
1, 328184, Note_off_c, 0, 48, 64
1, 328187, Note_off_c, 0, 54, 60
1, 328190, Note_off_c, 0, 68, 59
1, 328195, Note_off_c, 0, 66, 57
1, 328204, Note_off_c, 0, 44, 61
1, 328218, Note_on_c, 0, 60, 53
1, 328239, Note_off_c, 0, 60, 61
1, 328271, Note_on_c, 0, 45, 69
1, 328273, Note_on_c, 0, 49, 70
1, 328284, Note_on_c, 0, 61, 69
1, 328288, Note_on_c, 0, 63, 61
1, 328298, Note_off_c, 0, 49, 68
1, 328301, Note_off_c, 0, 45, 65
1, 328319, Note_off_c, 0, 63, 68
1, 328320, Note_off_c, 0, 61, 64
1, 328366, Note_on_c, 0, 55, 49
1, 328392, Note_off_c, 0, 55, 59
1, 328407, Note_on_c, 0, 44, 74
1, 328420, Note_on_c, 0, 40, 56
1, 328436, Note_off_c, 0, 44, 65
1, 328468, Note_off_c, 0, 40, 63
1, 328495, Poly_aftertouch_c, 0, 37, 0
1, 328498, Note_on_c, 0, 52, 62
1, 328527, Note_off_c, 0, 52, 59
1, 328554, Note_on_c, 0, 42, 71
1, 328562, Note_on_c, 0, 54, 66
1, 328563, Note_on_c, 0, 56, 60
1, 328565, Note_on_c, 0, 36, 60
1, 328586, Note_off_c, 0, 42, 65
1, 328602, Note_off_c, 0, 36, 62
1, 328602, Note_off_c, 0, 54, 61
1, 328604, Note_off_c, 0, 56, 64
1, 328627, Poly_aftertouch_c, 0, 32, 0
1, 328637, Note_on_c, 0, 48, 60
1, 328660, Note_off_c, 0, 48, 60
1, 328688, Note_on_c, 0, 37, 66
1, 328697, Note_on_c, 0, 33, 52
1, 328706, Note_on_c, 0, 49, 69
1, 328719, Note_off_c, 0, 37, 64
1, 328727, Note_off_c, 0, 33, 58
1, 328741, Poly_aftertouch_c, 0, 50, 127
1, 328748, Note_off_c, 0, 49, 62
1, 328769, Note_on_c, 0, 43, 62
1, 328786, Note_on_c, 0, 45, 44
1, 328786, Poly_aftertouch_c, 0, 50, 0
1, 328806, Note_off_c, 0, 43, 63
1, 328815, Note_off_c, 0, 45, 54
1, 328835, Note_on_c, 0, 39, 64
1, 328837, Note_on_c, 0, 37, 60
1, 328864, Note_off_c, 0, 39, 52
1, 328896, Note_off_c, 0, 37, 57
1, 328901, Note_on_c, 0, 33, 53
1, 328932, Note_on_c, 0, 31, 66
1, 328951, Note_off_c, 0, 33, 60
1, 328977, Note_on_c, 0, 29, 67
1, 329012, Note_off_c, 0, 31, 63
1, 329013, Note_off_c, 0, 29, 60
1, 329045, Note_on_c, 0, 46, 65
1, 329048, Note_on_c, 0, 55, 59
1, 329055, Note_on_c, 0, 52, 60
1, 329067, Note_off_c, 0, 46, 62
1, 329106, Note_on_c, 0, 57, 72
1, 329112, Note_on_c, 0, 54, 67
1, 329117, Note_off_c, 0, 55, 54
1, 329121, Note_on_c, 0, 49, 57
1, 329143, Note_on_c, 0, 46, 59
1, 329174, Note_off_c, 0, 46, 67
1, 329263, Note_on_c, 0, 46, 50
1, 329292, Note_off_c, 0, 46, 35
1, 329330, Note_on_c, 0, 42, 65
1, 329368, Note_off_c, 0, 52, 63
1, 329371, Note_off_c, 0, 54, 57
1, 329376, Note_off_c, 0, 49, 65
1, 329377, Note_off_c, 0, 42, 53
1, 329380, Note_off_c, 0, 57, 55
1, 329386, Note_on_c, 0, 29, 70
1, 329434, Note_off_c, 0, 29, 64
1, 329472, Note_on_c, 0, 42, 57
1, 329527, Note_off_c, 0, 42, 58
1, 329540, Note_on_c, 0, 30, 60
1, 329582, Note_off_c, 0, 30, 62
1, 329652, Note_on_c, 0, 42, 22
1, 329686, Note_on_c, 0, 30, 57
1, 329691, Note_off_c, 0, 42, 39
1, 329723, Note_off_c, 0, 30, 63
1, 329777, Note_on_c, 0, 42, 52
1, 329805, Note_off_c, 0, 42, 57
1, 329824, Note_on_c, 0, 29, 67
1, 329874, Note_off_c, 0, 29, 63
1, 329893, Note_on_c, 0, 42, 60
1, 329957, Note_off_c, 0, 42, 56
1, 329994, Note_on_c, 0, 30, 49
1, 330026, Note_off_c, 0, 30, 56
1, 330067, Note_on_c, 0, 42, 43
1, 330106, Note_off_c, 0, 42, 55
1, 330123, Note_on_c, 0, 30, 58
1, 330162, Note_off_c, 0, 30, 62
1, 330205, Note_on_c, 0, 42, 48
1, 330237, Note_off_c, 0, 42, 57
1, 330284, Note_on_c, 0, 29, 53
1, 330320, Note_off_c, 0, 29, 58
1, 330336, Note_on_c, 0, 42, 52
1, 330408, Note_off_c, 0, 42, 57
1, 330427, Note_on_c, 0, 30, 55
1, 330467, Note_off_c, 0, 30, 62
1, 330526, Note_on_c, 0, 42, 35
1, 330561, Note_off_c, 0, 42, 50
1, 330576, Note_on_c, 0, 30, 56
1, 330615, Note_off_c, 0, 30, 62
1, 330653, Note_on_c, 0, 42, 50
1, 330710, Note_off_c, 0, 42, 61
1, 330739, Note_on_c, 0, 29, 67
1, 330781, Note_off_c, 0, 29, 59
1, 330817, Note_on_c, 0, 42, 52
1, 330857, Note_off_c, 0, 42, 62
1, 330906, Note_on_c, 0, 30, 32
1, 330948, Note_off_c, 0, 30, 31
1, 330957, Note_on_c, 0, 42, 60
1, 331000, Note_off_c, 0, 42, 60
1, 331028, Note_on_c, 0, 30, 59
1, 331067, Note_off_c, 0, 30, 62
1, 331109, Note_on_c, 0, 42, 57
1, 331151, Note_off_c, 0, 42, 61
1, 331196, Note_on_c, 0, 29, 61
1, 331241, Note_off_c, 0, 29, 63
1, 331265, Note_on_c, 0, 55, 64
1, 331266, Note_on_c, 0, 42, 64
1, 331267, Note_on_c, 0, 46, 61
1, 331281, Note_on_c, 0, 52, 51
1, 331291, Note_off_c, 0, 46, 61
1, 331316, Note_off_c, 0, 42, 58
1, 331323, Note_on_c, 0, 57, 76
1, 331325, Note_on_c, 0, 54, 77
1, 331335, Note_off_c, 0, 55, 62
1, 331336, Note_on_c, 0, 49, 52
1, 331338, Note_on_c, 0, 30, 69
1, 331351, Note_off_c, 0, 57, 64
1, 331357, Note_off_c, 0, 52, 61
1, 331363, Note_off_c, 0, 49, 59
1, 331374, Note_off_c, 0, 54, 62
1, 331383, Note_off_c, 0, 30, 64
1, 331422, Note_on_c, 0, 42, 57
1, 331478, Note_off_c, 0, 42, 57
1, 331503, Note_on_c, 0, 30, 63
1, 331550, Note_off_c, 0, 30, 64
1, 331551, Note_on_c, 0, 43, 76
1, 331559, Note_on_c, 0, 52, 71
1, 331572, Note_off_c, 0, 43, 64
1, 331576, Note_on_c, 0, 42, 59
1, 331578, Note_on_c, 0, 48, 29
1, 331590, Note_off_c, 0, 52, 62
1, 331613, Note_on_c, 0, 55, 76
1, 331616, Note_off_c, 0, 42, 59
1, 331618, Note_off_c, 0, 48, 31
1, 331619, Note_on_c, 0, 47, 67
1, 331619, Note_on_c, 0, 50, 71
1, 331642, Note_on_c, 0, 29, 65
1, 331654, Note_off_c, 0, 47, 66
1, 331659, Note_off_c, 0, 55, 65
1, 331668, Note_off_c, 0, 50, 63
1, 331684, Note_off_c, 0, 29, 60
1, 331705, Note_on_c, 0, 42, 67
1, 331750, Note_off_c, 0, 42, 59
1, 331800, Note_on_c, 0, 30, 39
1, 331838, Note_off_c, 0, 30, 41
1, 331850, Note_on_c, 0, 42, 58
1, 331885, Note_off_c, 0, 42, 63
1, 331909, Note_on_c, 0, 30, 70
1, 331946, Note_off_c, 0, 30, 61
1, 331988, Note_on_c, 0, 42, 53
1, 332025, Note_off_c, 0, 42, 63
1, 332062, Note_on_c, 0, 29, 58
1, 332100, Note_off_c, 0, 29, 61
1, 332121, Note_on_c, 0, 42, 60
1, 332129, Note_on_c, 0, 46, 62
1, 332134, Note_on_c, 0, 55, 59
1, 332146, Note_on_c, 0, 52, 48
1, 332151, Note_off_c, 0, 46, 62
1, 332152, Note_off_c, 0, 42, 63
1, 332175, Note_off_c, 0, 55, 47
1, 332199, Note_on_c, 0, 57, 63
1, 332206, Note_on_c, 0, 54, 66
1, 332221, Note_on_c, 0, 49, 53
1, 332230, Note_on_c, 0, 46, 55
1, 332261, Note_off_c, 0, 46, 67
1, 332271, Note_off_c, 0, 52, 0
1, 332271, Note_on_c, 0, 52, 2
1, 332342, Note_on_c, 0, 46, 62
1, 332370, Note_off_c, 0, 46, 66
1, 332405, Control_c, 0, 64, 8
1, 332420, Control_c, 0, 64, 9
1, 332429, Note_on_c, 0, 42, 54
1, 332435, Control_c, 0, 64, 9
1, 332459, Note_off_c, 0, 42, 56
1, 332474, Note_off_c, 0, 57, 59
1, 332477, Note_off_c, 0, 52, 51
1, 332483, Note_on_c, 0, 29, 67
1, 332483, Note_off_c, 0, 54, 56
1, 332487, Note_off_c, 0, 49, 64
1, 332510, Control_c, 0, 64, 8
1, 332525, Control_c, 0, 64, 0
1, 332529, Note_off_c, 0, 29, 62
1, 332549, Note_on_c, 0, 42, 61
1, 332599, Note_off_c, 0, 42, 57
1, 332632, Note_on_c, 0, 30, 59
1, 332668, Note_off_c, 0, 30, 62
1, 332710, Note_on_c, 0, 42, 43
1, 332739, Note_off_c, 0, 42, 55
1, 332774, Note_on_c, 0, 30, 53
1, 332808, Note_off_c, 0, 30, 60
1, 332835, Note_on_c, 0, 42, 52
1, 332886, Note_off_c, 0, 42, 59
1, 332927, Note_on_c, 0, 29, 61
1, 332972, Note_off_c, 0, 29, 60
1, 333006, Note_on_c, 0, 42, 58
1, 333049, Note_off_c, 0, 42, 60
1, 333081, Note_on_c, 0, 30, 57
1, 333115, Note_off_c, 0, 30, 61
1, 333163, Note_on_c, 0, 42, 43
1, 333194, Note_off_c, 0, 42, 55
1, 333227, Note_on_c, 0, 30, 55
1, 333259, Note_off_c, 0, 30, 59
1, 333296, Note_on_c, 0, 42, 44
1, 333338, Note_off_c, 0, 42, 61
1, 333370, Note_on_c, 0, 29, 66
1, 333410, Note_off_c, 0, 29, 59
1, 333454, Note_on_c, 0, 42, 50
1, 333496, Note_off_c, 0, 42, 60
1, 333521, Note_on_c, 0, 30, 54
1, 333555, Note_off_c, 0, 30, 61
1, 333598, Note_on_c, 0, 42, 46
1, 333640, Note_off_c, 0, 42, 59
1, 333670, Note_on_c, 0, 30, 51
1, 333714, Note_off_c, 0, 30, 62
1, 333761, Note_on_c, 0, 42, 46
1, 333800, Note_off_c, 0, 42, 60
1, 333831, Note_on_c, 0, 29, 69
1, 333874, Note_off_c, 0, 29, 60
1, 333911, Note_on_c, 0, 42, 53
1, 333952, Note_off_c, 0, 42, 61
1, 333983, Note_on_c, 0, 30, 62
1, 334020, Note_off_c, 0, 30, 62
1, 334058, Note_on_c, 0, 42, 53
1, 334096, Note_off_c, 0, 42, 62
1, 334113, Note_on_c, 0, 30, 67
1, 334152, Note_off_c, 0, 30, 61
1, 334202, Note_on_c, 0, 42, 50
1, 334241, Note_off_c, 0, 42, 63
1, 334275, Note_on_c, 0, 29, 68
1, 334322, Note_off_c, 0, 29, 64
1, 334356, Note_on_c, 0, 46, 72
1, 334358, Note_on_c, 0, 55, 71
1, 334362, Note_on_c, 0, 42, 61
1, 334364, Note_on_c, 0, 52, 63
1, 334377, Note_off_c, 0, 46, 64
1, 334387, Note_off_c, 0, 52, 67
1, 334400, Note_off_c, 0, 42, 62
1, 334400, Note_off_c, 0, 55, 48
1, 334417, Note_on_c, 0, 57, 80
1, 334418, Note_on_c, 0, 54, 78
1, 334420, Note_on_c, 0, 30, 68
1, 334428, Note_on_c, 0, 49, 64
1, 334447, Note_off_c, 0, 57, 68
1, 334465, Note_off_c, 0, 49, 67
1, 334465, Note_off_c, 0, 30, 59
1, 334468, Note_off_c, 0, 54, 64
1, 334499, Note_on_c, 0, 42, 56
1, 334555, Note_off_c, 0, 42, 56
1, 334576, Note_on_c, 0, 30, 58
1, 334620, Note_off_c, 0, 30, 61
1, 334659, Note_on_c, 0, 52, 71
1, 334668, Note_on_c, 0, 48, 48
1, 334669, Note_on_c, 0, 45, 45
1, 334680, Note_on_c, 0, 42, 33
1, 334689, Note_off_c, 0, 52, 50
1, 334691, Note_on_c, 0, 43, 11
1, 334692, Note_off_c, 0, 43, 127
1, 334698, Note_off_c, 0, 48, 57
1, 334701, Note_off_c, 0, 45, 35
1, 334706, Note_on_c, 0, 55, 80
1, 334708, Note_on_c, 0, 50, 75
1, 334714, Note_on_c, 0, 47, 79
1, 334716, Note_off_c, 0, 42, 42
1, 334722, Note_on_c, 0, 29, 65
1, 334739, Note_off_c, 0, 47, 67
1, 334745, Note_off_c, 0, 55, 68
1, 334757, Note_off_c, 0, 50, 63
1, 334768, Note_off_c, 0, 29, 63
1, 334799, Note_on_c, 0, 42, 63
1, 334843, Note_off_c, 0, 42, 60
1, 334873, Note_on_c, 0, 30, 62
1, 334908, Note_off_c, 0, 30, 63
1, 334942, Note_on_c, 0, 42, 57
1, 334978, Note_off_c, 0, 42, 62
1, 335005, Note_on_c, 0, 30, 68
1, 335045, Note_off_c, 0, 30, 63
1, 335083, Note_on_c, 0, 42, 53
1, 335104, Note_on_c, 0, 55, 68
1, 335106, Note_on_c, 0, 46, 67
1, 335112, Note_on_c, 0, 52, 66
1, 335114, Note_off_c, 0, 42, 59
1, 335128, Note_off_c, 0, 46, 63
1, 335139, Note_on_c, 0, 29, 63
1, 335143, Note_off_c, 0, 52, 60
1, 335161, Note_off_c, 0, 55, 43
1, 335163, Note_on_c, 0, 57, 78
1, 335166, Note_on_c, 0, 54, 74
1, 335170, Note_on_c, 0, 49, 72
1, 335175, Note_off_c, 0, 29, 61
1, 335200, Note_on_c, 0, 42, 67
1, 335209, Control_c, 0, 64, 21
1, 335223, Control_c, 0, 64, 34
1, 335231, Note_off_c, 0, 42, 62
1, 335238, Control_c, 0, 64, 42
1, 335253, Control_c, 0, 64, 47
1, 335268, Control_c, 0, 64, 50
1, 335283, Control_c, 0, 64, 51
1, 335286, Note_on_c, 0, 46, 58
1, 335312, Control_c, 0, 64, 50
1, 335321, Note_off_c, 0, 46, 67
1, 335327, Control_c, 0, 64, 49
1, 335342, Control_c, 0, 64, 48
1, 335351, Note_on_c, 0, 52, 70
1, 335357, Control_c, 0, 64, 46
1, 335371, Control_c, 0, 64, 45
1, 335392, Note_off_c, 0, 52, 63
1, 335410, Note_on_c, 0, 46, 65
1, 335439, Note_off_c, 0, 46, 66
1, 335443, Note_off_c, 0, 57, 62
1, 335451, Note_off_c, 0, 54, 63
1, 335497, Note_on_c, 0, 42, 66
1, 335535, Control_c, 0, 64, 45
1, 335536, Note_off_c, 0, 49, 38
1, 335539, Note_off_c, 0, 42, 59
1, 335550, Control_c, 0, 64, 41
1, 335564, Control_c, 0, 64, 31
1, 335565, Note_on_c, 0, 29, 69
1, 335579, Control_c, 0, 64, 15
1, 335594, Control_c, 0, 64, 0
1, 335611, Note_off_c, 0, 29, 64
1, 335642, Note_on_c, 0, 59, 69
1, 335645, Note_on_c, 0, 42, 67
1, 335646, Note_on_c, 0, 49, 64
1, 335652, Note_on_c, 0, 54, 62
1, 335669, Note_off_c, 0, 49, 63
1, 335679, Note_off_c, 0, 42, 63
1, 335690, Note_off_c, 0, 59, 0
1, 335699, Note_on_c, 0, 61, 85
1, 335705, Note_on_c, 0, 57, 69
1, 335706, Note_on_c, 0, 51, 70
1, 335710, Note_on_c, 0, 30, 70
1, 335720, Note_off_c, 0, 54, 56
1, 335723, Poly_aftertouch_c, 0, 59, 0
1, 335752, Note_off_c, 0, 30, 64
1, 335780, Note_on_c, 0, 42, 64
1, 335825, Note_off_c, 0, 42, 59
1, 335850, Note_on_c, 0, 30, 68
1, 335860, Control_c, 0, 64, 32
1, 335875, Control_c, 0, 64, 47
1, 335890, Control_c, 0, 64, 59
1, 335905, Control_c, 0, 64, 67
1, 335911, Note_off_c, 0, 51, 62
1, 335920, Control_c, 0, 64, 73
1, 335941, Control_c, 0, 64, 74
1, 335949, Note_off_c, 0, 30, 0
1, 335981, Note_on_c, 0, 29, 69
1, 335987, Poly_aftertouch_c, 0, 30, 127
1, 336008, Poly_aftertouch_c, 0, 30, 0
1, 336017, Control_c, 0, 64, 74
1, 336024, Note_off_c, 0, 29, 60
1, 336032, Note_on_c, 0, 42, 67
1, 336032, Control_c, 0, 64, 73
1, 336042, Note_off_c, 0, 57, 30
1, 336046, Control_c, 0, 64, 71
1, 336061, Control_c, 0, 64, 69
1, 336066, Note_off_c, 0, 42, 64
1, 336076, Control_c, 0, 64, 67
1, 336091, Control_c, 0, 64, 66
1, 336106, Control_c, 0, 64, 64
1, 336120, Control_c, 0, 64, 63
1, 336135, Control_c, 0, 64, 61
1, 336150, Control_c, 0, 64, 60
1, 336157, Note_on_c, 0, 50, 42
1, 336164, Control_c, 0, 64, 58
1, 336179, Control_c, 0, 64, 55
1, 336188, Note_off_c, 0, 50, 51
1, 336194, Control_c, 0, 64, 53
1, 336200, Note_on_c, 0, 57, 63
1, 336209, Control_c, 0, 64, 51
1, 336224, Control_c, 0, 64, 49
1, 336231, Note_off_c, 0, 57, 58
1, 336239, Control_c, 0, 64, 48
1, 336269, Control_c, 0, 64, 49
1, 336269, Note_on_c, 0, 51, 57
1, 336297, Note_off_c, 0, 51, 68
1, 336313, Control_c, 0, 64, 48
1, 336339, Note_off_c, 0, 61, 43
1, 336357, Note_on_c, 0, 42, 66
1, 336402, Control_c, 0, 64, 48
1, 336409, Note_off_c, 0, 42, 54
1, 336417, Control_c, 0, 64, 46
1, 336431, Control_c, 0, 64, 44
1, 336434, Note_on_c, 0, 29, 67
1, 336446, Control_c, 0, 64, 39
1, 336461, Control_c, 0, 64, 32
1, 336476, Control_c, 0, 64, 22
1, 336482, Note_off_c, 0, 29, 63
1, 336491, Control_c, 0, 64, 8
1, 336505, Control_c, 0, 64, 0
1, 336514, Note_on_c, 0, 42, 60
1, 336550, Note_off_c, 0, 42, 60
1, 336595, Note_on_c, 0, 30, 55
1, 336632, Note_off_c, 0, 30, 62
1, 336665, Note_on_c, 0, 42, 47
1, 336707, Note_off_c, 0, 42, 54
1, 336741, Note_on_c, 0, 30, 60
1, 336778, Note_off_c, 0, 30, 63
1, 336810, Note_on_c, 0, 42, 51
1, 336862, Note_off_c, 0, 42, 61
1, 336899, Note_on_c, 0, 29, 63
1, 336939, Note_off_c, 0, 29, 59
1, 336975, Note_on_c, 0, 42, 56
1, 337020, Note_off_c, 0, 42, 61
1, 337050, Note_on_c, 0, 30, 57
1, 337088, Note_off_c, 0, 30, 62
1, 337136, Note_on_c, 0, 42, 45
1, 337170, Note_off_c, 0, 42, 56
1, 337204, Note_on_c, 0, 30, 55
1, 337240, Note_off_c, 0, 30, 62
1, 337279, Note_on_c, 0, 42, 50
1, 337328, Note_off_c, 0, 42, 58
1, 337354, Note_on_c, 0, 29, 65
1, 337395, Note_off_c, 0, 29, 59
1, 337441, Note_on_c, 0, 42, 46
1, 337483, Note_off_c, 0, 42, 58
1, 337511, Note_on_c, 0, 30, 61
1, 337547, Note_off_c, 0, 30, 62
1, 337594, Note_on_c, 0, 42, 53
1, 337634, Note_off_c, 0, 42, 62
1, 337658, Note_on_c, 0, 30, 58
1, 337694, Note_off_c, 0, 30, 62
1, 337747, Note_on_c, 0, 42, 47
1, 337785, Note_off_c, 0, 42, 61
1, 337817, Note_on_c, 0, 29, 59
1, 337858, Note_off_c, 0, 29, 60
1, 337884, Note_on_c, 0, 42, 61
1, 337931, Note_off_c, 0, 42, 59
1, 337965, Note_on_c, 0, 30, 59
1, 338001, Note_off_c, 0, 30, 62
1, 338034, Note_on_c, 0, 42, 57
1, 338071, Note_off_c, 0, 42, 63
1, 338097, Note_on_c, 0, 30, 67
1, 338143, Note_off_c, 0, 30, 64
1, 338188, Note_on_c, 0, 42, 49
1, 338228, Note_off_c, 0, 42, 62
1, 338260, Note_on_c, 0, 29, 66
1, 338278, Note_on_c, 0, 30, 32
1, 338308, Note_off_c, 0, 29, 64
1, 338314, Note_off_c, 0, 30, 39
1, 338340, Note_on_c, 0, 42, 60
1, 338352, Note_on_c, 0, 49, 64
1, 338352, Note_on_c, 0, 54, 66
1, 338352, Note_on_c, 0, 59, 68
1, 338375, Note_off_c, 0, 54, 65
1, 338379, Note_off_c, 0, 49, 38
1, 338380, Note_off_c, 0, 42, 62
1, 338383, Note_off_c, 0, 59, 59
1, 338397, Note_on_c, 0, 61, 84
1, 338400, Note_on_c, 0, 30, 64
1, 338405, Note_on_c, 0, 57, 74
1, 338411, Note_on_c, 0, 51, 74
1, 338436, Note_off_c, 0, 51, 69
1, 338443, Note_off_c, 0, 61, 64
1, 338448, Note_off_c, 0, 30, 64
1, 338451, Note_off_c, 0, 57, 62
1, 338476, Note_on_c, 0, 42, 64
1, 338531, Note_off_c, 0, 42, 57
1, 338561, Note_on_c, 0, 30, 62
1, 338609, Note_off_c, 0, 30, 63
1, 338627, Note_on_c, 0, 54, 82
1, 338641, Note_on_c, 0, 47, 58
1, 338645, Note_on_c, 0, 49, 54
1, 338654, Note_on_c, 0, 42, 45
1, 338668, Note_off_c, 0, 47, 59
1, 338672, Note_off_c, 0, 49, 59
1, 338684, Note_off_c, 0, 42, 54
1, 338688, Note_on_c, 0, 52, 82
1, 338689, Note_on_c, 0, 57, 79
1, 338702, Note_on_c, 0, 48, 67
1, 338707, Note_on_c, 0, 29, 71
1, 338711, Note_off_c, 0, 54, 63
1, 338728, Note_off_c, 0, 48, 65
1, 338728, Note_off_c, 0, 57, 64
1, 338732, Note_off_c, 0, 52, 66
1, 338757, Note_off_c, 0, 29, 62
1, 338783, Note_on_c, 0, 42, 63
1, 338840, Note_off_c, 0, 42, 59
1, 338862, Note_on_c, 0, 30, 68
1, 338904, Note_off_c, 0, 30, 64
1, 338963, Note_on_c, 0, 42, 46
1, 338993, Note_off_c, 0, 42, 55
1, 339027, Note_on_c, 0, 30, 57
1, 339062, Note_off_c, 0, 30, 62
1, 339078, Note_on_c, 0, 59, 71
1, 339080, Note_on_c, 0, 49, 73
1, 339083, Note_on_c, 0, 42, 61
1, 339083, Note_on_c, 0, 54, 69
1, 339108, Note_off_c, 0, 49, 69
1, 339110, Note_off_c, 0, 54, 66
1, 339124, Note_off_c, 0, 42, 61
1, 339137, Note_on_c, 0, 57, 78
1, 339139, Note_on_c, 0, 61, 80
1, 339151, Note_on_c, 0, 51, 57
1, 339156, Note_on_c, 0, 29, 77
1, 339160, Note_off_c, 0, 59, 61
1, 339176, Note_off_c, 0, 51, 61
1, 339181, Note_on_c, 0, 30, 25
1, 339184, Note_off_c, 0, 61, 61
1, 339190, Note_off_c, 0, 57, 61
1, 339209, Note_off_c, 0, 29, 60
1, 339220, Note_off_c, 0, 30, 37
1, 339234, Note_on_c, 0, 42, 71
1, 339281, Note_off_c, 0, 42, 60
1, 339302, Note_on_c, 0, 30, 69
1, 339324, Control_c, 0, 64, 8
1, 339338, Control_c, 0, 64, 8
1, 339351, Note_off_c, 0, 30, 63
1, 339368, Control_c, 0, 64, 9
1, 339382, Control_c, 0, 64, 9
1, 339387, Note_on_c, 0, 42, 61
1, 339412, Control_c, 0, 64, 10
1, 339426, Note_off_c, 0, 42, 62
1, 339442, Control_c, 0, 64, 10
1, 339456, Control_c, 0, 64, 11
1, 339464, Note_on_c, 0, 30, 63
1, 339471, Control_c, 0, 64, 11
1, 339486, Control_c, 0, 64, 12
1, 339501, Control_c, 0, 64, 13
1, 339502, Note_off_c, 0, 30, 59
1, 339516, Control_c, 0, 64, 14
1, 339519, Note_on_c, 0, 42, 65
1, 339519, Note_on_c, 0, 57, 73
1, 339519, Note_on_c, 0, 62, 77
1, 339527, Note_on_c, 0, 52, 65
1, 339548, Note_off_c, 0, 57, 64
1, 339548, Note_off_c, 0, 52, 65
1, 339560, Control_c, 0, 64, 0
1, 339563, Note_off_c, 0, 42, 59
1, 339580, Note_on_c, 0, 60, 73
1, 339584, Note_on_c, 0, 64, 83
1, 339593, Note_on_c, 0, 29, 75
1, 339609, Note_on_c, 0, 54, 56
1, 339631, Note_off_c, 0, 62, 0
1, 339631, Note_on_c, 0, 62, 3
1, 339644, Note_off_c, 0, 54, 0
1, 339644, Note_on_c, 0, 54, 32
1, 339664, Note_off_c, 0, 29, 61
1, 339686, Control_c, 0, 64, 12
1, 339689, Note_off_c, 0, 62, 43
1, 339696, Note_on_c, 0, 42, 65
1, 339701, Control_c, 0, 64, 31
1, 339716, Control_c, 0, 64, 42
1, 339730, Control_c, 0, 64, 52
1, 339734, Note_off_c, 0, 42, 62
1, 339745, Control_c, 0, 64, 60
1, 339760, Control_c, 0, 64, 64
1, 339769, Note_on_c, 0, 30, 67
1, 339775, Control_c, 0, 64, 64
1, 339813, Note_off_c, 0, 30, 62
1, 339850, Note_on_c, 0, 42, 60
1, 339887, Note_off_c, 0, 60, 64
1, 339888, Note_off_c, 0, 42, 62
1, 339903, Note_off_c, 0, 54, 54
1, 339911, Note_off_c, 0, 64, 63
1, 339921, Note_on_c, 0, 30, 67
1, 339964, Note_off_c, 0, 30, 61
1, 339995, Note_on_c, 0, 42, 63
1, 340028, Control_c, 0, 64, 64
1, 340034, Note_off_c, 0, 42, 60
1, 340043, Control_c, 0, 64, 58
1, 340057, Control_c, 0, 64, 43
1, 340072, Control_c, 0, 64, 0
1, 340078, Note_on_c, 0, 29, 74
1, 340129, Note_on_c, 0, 66, 81
1, 340129, Note_off_c, 0, 29, 60
1, 340139, Note_on_c, 0, 56, 65
1, 340140, Note_on_c, 0, 61, 66
1, 340154, Note_on_c, 0, 42, 69
1, 340157, Note_off_c, 0, 56, 67
1, 340165, Note_off_c, 0, 61, 69
1, 340195, Note_off_c, 0, 42, 62
1, 340201, Note_on_c, 0, 68, 89
1, 340205, Control_c, 0, 64, 12
1, 340207, Note_on_c, 0, 58, 70
1, 340207, Note_on_c, 0, 64, 77
1, 340220, Control_c, 0, 64, 32
1, 340229, Note_on_c, 0, 30, 64
1, 340235, Control_c, 0, 64, 45
1, 340245, Note_off_c, 0, 66, 61
1, 340250, Control_c, 0, 64, 55
1, 340265, Control_c, 0, 64, 63
1, 340269, Note_off_c, 0, 30, 61
1, 340278, Poly_aftertouch_c, 0, 61, 127
1, 340279, Control_c, 0, 64, 71
1, 340294, Control_c, 0, 64, 78
1, 340305, Note_on_c, 0, 42, 60
1, 340308, Note_off_c, 0, 58, 60
1, 340309, Control_c, 0, 64, 79
1, 340320, Poly_aftertouch_c, 0, 61, 0
1, 340323, Note_off_c, 0, 64, 60
1, 340341, Note_off_c, 0, 68, 61
1, 340348, Note_off_c, 0, 42, 54
1, 340377, Note_on_c, 0, 30, 64
1, 340418, Note_off_c, 0, 30, 61
1, 340465, Control_c, 0, 64, 79
1, 340469, Note_on_c, 0, 42, 53
1, 340508, Note_off_c, 0, 42, 57
1, 340524, Control_c, 0, 64, 78
1, 340531, Note_on_c, 0, 76, 77
1, 340532, Note_on_c, 0, 30, 71
1, 340546, Note_on_c, 0, 73, 63
1, 340565, Note_off_c, 0, 30, 63
1, 340568, Control_c, 0, 64, 78
1, 340579, Note_off_c, 0, 76, 67
1, 340583, Control_c, 0, 64, 77
1, 340598, Control_c, 0, 64, 75
1, 340602, Note_off_c, 0, 73, 62
1, 340611, Note_on_c, 0, 64, 58
1, 340612, Control_c, 0, 64, 73
1, 340627, Control_c, 0, 64, 73
1, 340657, Control_c, 0, 64, 72
1, 340681, Note_off_c, 0, 64, 62
1, 340682, Note_on_c, 0, 52, 57
1, 340683, Note_on_c, 0, 61, 64
1, 340686, Control_c, 0, 64, 72
1, 340701, Control_c, 0, 64, 71
1, 340719, Note_on_c, 0, 49, 67
1, 340719, Note_off_c, 0, 52, 67
1, 340731, Control_c, 0, 64, 70
1, 340746, Control_c, 0, 64, 70
1, 340752, Note_off_c, 0, 49, 68
1, 340761, Control_c, 0, 64, 69
1, 340776, Control_c, 0, 64, 68
1, 340791, Control_c, 0, 64, 68
1, 340806, Control_c, 0, 64, 67
1, 340821, Control_c, 0, 64, 66
1, 340835, Control_c, 0, 64, 65
1, 340850, Control_c, 0, 64, 65
1, 340854, Note_on_c, 0, 37, 64
1, 340865, Control_c, 0, 64, 64
1, 340880, Control_c, 0, 64, 63
1, 340895, Control_c, 0, 64, 62
1, 340901, Note_off_c, 0, 37, 54
1, 340910, Control_c, 0, 64, 61
1, 340925, Control_c, 0, 64, 60
1, 340935, Note_on_c, 0, 29, 63
1, 340940, Control_c, 0, 64, 57
1, 340954, Control_c, 0, 64, 54
1, 340969, Control_c, 0, 64, 51
1, 340973, Note_on_c, 0, 64, 45
1, 340976, Note_off_c, 0, 61, 49
1, 340978, Note_on_c, 0, 68, 47
1, 340984, Control_c, 0, 64, 47
1, 340999, Control_c, 0, 64, 45
1, 341001, Note_off_c, 0, 29, 57
1, 341006, Note_on_c, 0, 58, 8
1, 341014, Control_c, 0, 64, 44
1, 341027, Note_on_c, 0, 42, 54
1, 341028, Control_c, 0, 64, 44
1, 341056, Note_off_c, 0, 42, 53
1, 341073, Control_c, 0, 64, 43
1, 341088, Control_c, 0, 64, 42
1, 341102, Control_c, 0, 64, 41
1, 341105, Note_on_c, 0, 30, 61
1, 341117, Control_c, 0, 64, 40
1, 341132, Control_c, 0, 64, 38
1, 341142, Note_off_c, 0, 30, 63
1, 341146, Control_c, 0, 64, 37
1, 341161, Control_c, 0, 64, 36
1, 341165, Note_on_c, 0, 42, 53
1, 341184, Control_c, 0, 64, 34
1, 341199, Control_c, 0, 64, 33
1, 341214, Control_c, 0, 64, 31
1, 341217, Note_off_c, 0, 42, 59
1, 341229, Control_c, 0, 64, 29
1, 341244, Control_c, 0, 64, 27
1, 341245, Note_on_c, 0, 30, 61
1, 341259, Control_c, 0, 64, 25
1, 341274, Control_c, 0, 64, 22
1, 341283, Note_off_c, 0, 30, 62
1, 341289, Control_c, 0, 64, 18
1, 341303, Control_c, 0, 64, 14
1, 341318, Control_c, 0, 64, 8
1, 341324, Note_on_c, 0, 42, 52
1, 341333, Control_c, 0, 64, 0
1, 341372, Note_off_c, 0, 42, 61
1, 341407, Note_on_c, 0, 29, 67
1, 341454, Note_off_c, 0, 29, 64
1, 341487, Note_on_c, 0, 42, 61
1, 341527, Note_off_c, 0, 42, 61
1, 341558, Note_on_c, 0, 30, 65
1, 341598, Note_off_c, 0, 30, 60
1, 341631, Note_on_c, 0, 42, 56
1, 341669, Note_off_c, 0, 42, 63
1, 341699, Note_on_c, 0, 30, 66
1, 341745, Note_off_c, 0, 30, 64
1, 341782, Note_on_c, 0, 42, 48
1, 341783, Note_off_c, 0, 64, 61
1, 341807, Note_off_c, 0, 58, 45
1, 341825, Note_off_c, 0, 42, 61
1, 341827, Note_off_c, 0, 68, 51
1, 341859, Note_on_c, 0, 29, 72
1, 341912, Note_off_c, 0, 29, 61
1, 341944, Note_on_c, 0, 66, 80
1, 341947, Note_on_c, 0, 61, 71
1, 341948, Note_on_c, 0, 56, 67
1, 341954, Note_on_c, 0, 42, 65
1, 341966, Note_off_c, 0, 56, 67
1, 341971, Note_off_c, 0, 61, 69
1, 341988, Note_off_c, 0, 42, 63
1, 342004, Note_on_c, 0, 64, 78
1, 342006, Note_on_c, 0, 58, 73
1, 342007, Note_on_c, 0, 68, 81
1, 342017, Note_on_c, 0, 30, 71
1, 342031, Note_off_c, 0, 66, 63
1, 342032, Note_off_c, 0, 68, 63
1, 342033, Note_off_c, 0, 58, 66
1, 342050, Note_off_c, 0, 64, 60
1, 342059, Note_off_c, 0, 30, 64
1, 342082, Note_on_c, 0, 42, 70
1, 342147, Note_off_c, 0, 42, 58
1, 342178, Note_on_c, 0, 30, 61
1, 342220, Note_on_c, 0, 61, 82
1, 342222, Note_off_c, 0, 30, 59
1, 342236, Note_on_c, 0, 56, 52
1, 342237, Note_on_c, 0, 53, 50
1, 342263, Note_on_c, 0, 42, 42
1, 342263, Note_off_c, 0, 56, 36
1, 342265, Note_off_c, 0, 53, 57
1, 342273, Note_on_c, 0, 60, 68
1, 342275, Note_off_c, 0, 61, 0
1, 342282, Note_on_c, 0, 64, 82
1, 342283, Note_on_c, 0, 55, 76
1, 342293, Note_on_c, 0, 61, 35
1, 342297, Note_off_c, 0, 42, 46
1, 342306, Note_off_c, 0, 55, 71
1, 342307, Note_on_c, 0, 29, 76
1, 342322, Note_off_c, 0, 61, 58
1, 342326, Note_off_c, 0, 64, 61
1, 342327, Note_off_c, 0, 60, 66
1, 342360, Note_off_c, 0, 29, 60
1, 342381, Note_on_c, 0, 42, 69
1, 342435, Note_off_c, 0, 42, 59
1, 342475, Note_on_c, 0, 30, 61
1, 342511, Note_off_c, 0, 30, 62
1, 342546, Note_on_c, 0, 42, 57
1, 342585, Note_off_c, 0, 42, 63
1, 342607, Note_on_c, 0, 30, 67
1, 342649, Note_off_c, 0, 30, 63
1, 342656, Note_on_c, 0, 66, 82
1, 342662, Note_on_c, 0, 56, 75
1, 342663, Note_on_c, 0, 61, 74
1, 342686, Note_on_c, 0, 42, 65
1, 342686, Note_off_c, 0, 56, 69
1, 342694, Note_off_c, 0, 61, 69
1, 342723, Note_off_c, 0, 42, 63
1, 342728, Note_on_c, 0, 68, 88
1, 342736, Note_on_c, 0, 64, 78
1, 342738, Note_on_c, 0, 58, 81
1, 342751, Note_on_c, 0, 29, 75
1, 342767, Note_off_c, 0, 66, 60
1, 342776, Note_on_c, 0, 61, 17
1, 342785, Control_c, 0, 64, 32
1, 342797, Note_off_c, 0, 29, 63
1, 342799, Control_c, 0, 64, 49
1, 342812, Note_off_c, 0, 58, 56
1, 342814, Control_c, 0, 64, 66
1, 342818, Note_off_c, 0, 61, 28
1, 342829, Control_c, 0, 64, 83
1, 342830, Note_on_c, 0, 42, 70
1, 342842, Note_off_c, 0, 64, 60
1, 342844, Control_c, 0, 64, 86
1, 342859, Control_c, 0, 64, 85
1, 342873, Control_c, 0, 64, 82
1, 342874, Note_off_c, 0, 68, 63
1, 342880, Note_off_c, 0, 42, 57
1, 342888, Control_c, 0, 64, 80
1, 342903, Control_c, 0, 64, 78
1, 342914, Note_on_c, 0, 30, 58
1, 342918, Control_c, 0, 64, 78
1, 342932, Control_c, 0, 64, 77
1, 342947, Control_c, 0, 64, 77
1, 342952, Note_off_c, 0, 30, 63
1, 342962, Control_c, 0, 64, 76
1, 342977, Control_c, 0, 64, 75
1, 342982, Note_on_c, 0, 42, 69
1, 342992, Control_c, 0, 64, 72
1, 343006, Control_c, 0, 64, 70
1, 343021, Control_c, 0, 64, 69
1, 343031, Note_off_c, 0, 42, 59
1, 343051, Control_c, 0, 64, 69
1, 343057, Note_on_c, 0, 30, 55
1, 343066, Control_c, 0, 64, 68
1, 343080, Control_c, 0, 64, 67
1, 343083, Note_off_c, 0, 30, 60
1, 343095, Control_c, 0, 64, 67
1, 343110, Control_c, 0, 64, 66
1, 343125, Note_on_c, 0, 42, 61
1, 343170, Control_c, 0, 64, 67
1, 343171, Note_on_c, 0, 30, 74
1, 343178, Note_on_c, 0, 88, 82
1, 343181, Note_on_c, 0, 85, 75
1, 343185, Control_c, 0, 64, 67
1, 343191, Note_off_c, 0, 42, 56
1, 343200, Control_c, 0, 64, 68
1, 343206, Note_off_c, 0, 30, 63
1, 343226, Note_off_c, 0, 88, 65
1, 343240, Note_off_c, 0, 85, 62
1, 343250, Note_on_c, 0, 76, 65
1, 343318, Note_off_c, 0, 76, 62
1, 343321, Note_on_c, 0, 73, 74
1, 343344, Note_off_c, 0, 73, 66
1, 343348, Note_on_c, 0, 64, 67
1, 343399, Note_on_c, 0, 61, 67
1, 343405, Note_off_c, 0, 64, 60
1, 343429, Control_c, 0, 64, 68
1, 343465, Note_off_c, 0, 61, 67
1, 343476, Note_on_c, 0, 52, 53
1, 343504, Note_off_c, 0, 52, 65
1, 343546, Note_on_c, 0, 49, 81
1, 343587, Note_off_c, 0, 49, 64
1, 343597, Note_on_c, 0, 76, 72
1, 343608, Note_on_c, 0, 73, 64
1, 343608, Control_c, 0, 64, 68
1, 343622, Control_c, 0, 64, 69
1, 343637, Control_c, 0, 64, 73
1, 343642, Note_off_c, 0, 76, 64
1, 343652, Control_c, 0, 64, 80
1, 343661, Note_on_c, 0, 64, 72
1, 343661, Note_off_c, 0, 73, 60
1, 343667, Control_c, 0, 64, 89
1, 343682, Control_c, 0, 64, 103
1, 343696, Control_c, 0, 64, 127
1, 343710, Note_off_c, 0, 64, 62
1, 343718, Note_on_c, 0, 52, 61
1, 343744, Note_on_c, 0, 61, 62
1, 343769, Note_on_c, 0, 49, 69
1, 343772, Note_off_c, 0, 61, 67
1, 343778, Note_off_c, 0, 52, 65
1, 343805, Note_off_c, 0, 49, 59
1, 343844, Control_c, 0, 67, 120
1, 343859, Control_c, 0, 67, 112
1, 343873, Control_c, 0, 67, 98
1, 343879, Poly_aftertouch_c, 0, 41, 127
1, 343888, Note_on_c, 0, 37, 82
1, 343888, Control_c, 0, 67, 81
1, 343903, Control_c, 0, 67, 59
1, 343918, Control_c, 0, 67, 37
1, 343921, Poly_aftertouch_c, 0, 41, 0
1, 343933, Control_c, 0, 67, 19
1, 343949, Control_c, 0, 67, 8
1, 343964, Control_c, 0, 64, 70
1, 343964, Control_c, 0, 67, 0
1, 343968, Note_off_c, 0, 37, 61
1, 343978, Control_c, 0, 64, 47
1, 343993, Control_c, 0, 64, 0
1, 344000, Note_on_c, 0, 27, 86
1, 344051, Note_off_c, 0, 27, 63
1, 344052, Control_c, 0, 64, 26
1, 344067, Control_c, 0, 64, 60
1, 344082, Control_c, 0, 64, 127
1, 344210, Note_on_c, 0, 82, 93
1, 344211, Note_on_c, 0, 70, 84
1, 344217, Note_on_c, 0, 55, 88
1, 344219, Note_on_c, 0, 61, 80
1, 344221, Note_on_c, 0, 77, 68
1, 344229, Note_off_c, 0, 70, 69
1, 344231, Note_on_c, 0, 67, 59
1, 344233, Note_on_c, 0, 64, 60
1, 344239, Note_off_c, 0, 77, 67
1, 344244, Note_off_c, 0, 61, 67
1, 344255, Note_off_c, 0, 64, 63
1, 344255, Note_off_c, 0, 67, 63
1, 344269, Note_on_c, 0, 81, 85
1, 344278, Note_on_c, 0, 84, 97
1, 344279, Note_on_c, 0, 72, 91
1, 344282, Poly_aftertouch_c, 0, 64, 0
1, 344284, Note_on_c, 0, 69, 99
1, 344290, Note_on_c, 0, 64, 72
1, 344291, Note_on_c, 0, 70, 28
1, 344293, Note_on_c, 0, 61, 69
1, 344302, Note_off_c, 0, 55, 61
1, 344308, Note_off_c, 0, 61, 71
1, 344308, Note_off_c, 0, 69, 65
1, 344312, Note_off_c, 0, 64, 68
1, 344315, Note_off_c, 0, 82, 63
1, 344317, Note_off_c, 0, 70, 51
1, 344317, Note_off_c, 0, 72, 63
1, 344332, Note_off_c, 0, 81, 64
1, 344333, Note_off_c, 0, 84, 62
1, 344589, Note_on_c, 0, 62, 48
1, 344594, Note_on_c, 0, 64, 38
1, 344642, Note_off_c, 0, 64, 59
1, 344646, Note_off_c, 0, 62, 63
1, 344667, Note_on_c, 0, 60, 41
1, 344696, Note_off_c, 0, 60, 53
1, 344711, Control_c, 0, 67, 12
1, 344723, Note_on_c, 0, 50, 49
1, 344726, Control_c, 0, 67, 18
1, 344742, Control_c, 0, 67, 26
1, 344755, Note_off_c, 0, 50, 54
1, 344757, Control_c, 0, 67, 38
1, 344772, Control_c, 0, 67, 59
1, 344787, Control_c, 0, 67, 84
1, 344801, Control_c, 0, 67, 116
1, 344816, Control_c, 0, 67, 127
1, 344827, Note_on_c, 0, 48, 28
1, 344866, Note_off_c, 0, 48, 55
1, 344869, Note_on_c, 0, 52, 62
1, 344882, Poly_aftertouch_c, 0, 49, 0
1, 344937, Note_on_c, 0, 49, 61
1, 344950, Note_off_c, 0, 52, 64
1, 344977, Note_off_c, 0, 49, 67
1, 345005, Note_on_c, 0, 40, 63
1, 345048, Note_off_c, 0, 40, 55
1, 345071, Note_on_c, 0, 37, 44
1, 345104, Note_off_c, 0, 37, 55
1, 345138, Note_on_c, 0, 26, 77
1, 345149, Control_c, 0, 64, 95
1, 345164, Control_c, 0, 64, 65
1, 345179, Control_c, 0, 64, 47
1, 345194, Control_c, 0, 64, 0
1, 345198, Note_off_c, 0, 26, 61
1, 345226, Note_on_c, 0, 39, 47
1, 345256, Note_off_c, 0, 39, 56
1, 345301, Note_on_c, 0, 27, 59
1, 345340, Note_off_c, 0, 27, 64
1, 345355, Note_on_c, 0, 39, 54
1, 345408, Note_off_c, 0, 39, 63
1, 345433, Note_on_c, 0, 27, 64
1, 345472, Note_off_c, 0, 27, 63
1, 345517, Note_on_c, 0, 39, 58
1, 345564, Note_off_c, 0, 39, 65
1, 345593, Note_on_c, 0, 26, 75
1, 345635, Note_off_c, 0, 26, 63
1, 345676, Note_on_c, 0, 39, 61
1, 345716, Note_off_c, 0, 39, 64
1, 345753, Note_on_c, 0, 27, 57
1, 345786, Note_off_c, 0, 27, 63
1, 345811, Note_on_c, 0, 39, 61
1, 345855, Note_off_c, 0, 39, 66
1, 345872, Note_on_c, 0, 27, 67
1, 345909, Note_off_c, 0, 27, 64
1, 345955, Note_on_c, 0, 39, 55
1, 345972, Control_c, 0, 67, 125
1, 345987, Control_c, 0, 67, 114
1, 346002, Control_c, 0, 67, 105
1, 346015, Note_on_c, 0, 27, 76
1, 346017, Control_c, 0, 64, 20
1, 346017, Control_c, 0, 67, 95
1, 346031, Control_c, 0, 64, 46
1, 346031, Control_c, 0, 67, 84
1, 346037, Note_off_c, 0, 39, 66
1, 346042, Note_off_c, 0, 27, 66
1, 346046, Control_c, 0, 64, 63
1, 346046, Control_c, 0, 67, 65
1, 346061, Control_c, 0, 64, 86
1, 346061, Control_c, 0, 67, 36
1, 346076, Control_c, 0, 64, 93
1, 346076, Control_c, 0, 67, 0
1, 346136, Control_c, 0, 64, 95
1, 346150, Control_c, 0, 64, 105
1, 346165, Control_c, 0, 64, 110
1, 346186, Note_on_c, 0, 81, 84
1, 346188, Note_on_c, 0, 69, 75
1, 346193, Note_on_c, 0, 77, 75
1, 346196, Note_on_c, 0, 65, 80
1, 346210, Control_c, 0, 64, 105
1, 346211, Note_off_c, 0, 69, 68
1, 346221, Note_off_c, 0, 77, 60
1, 346224, Control_c, 0, 64, 89
1, 346228, Note_on_c, 0, 61, 52
1, 346239, Control_c, 0, 64, 75
1, 346254, Note_on_c, 0, 82, 88
1, 346254, Control_c, 0, 64, 63
1, 346261, Note_off_c, 0, 65, 61
1, 346265, Note_on_c, 0, 55, 67
1, 346267, Note_on_c, 0, 70, 72
1, 346268, Control_c, 0, 64, 51
1, 346272, Note_off_c, 0, 81, 61
1, 346274, Note_off_c, 0, 61, 66
1, 346283, Control_c, 0, 64, 22
1, 346292, Note_off_c, 0, 55, 68
1, 346294, Note_off_c, 0, 70, 58
1, 346296, Note_off_c, 0, 82, 67
1, 346298, Control_c, 0, 64, 0
1, 346403, Control_c, 0, 64, 29
1, 346410, Note_on_c, 0, 65, 73
1, 346412, Note_on_c, 0, 76, 78
1, 346425, Control_c, 0, 64, 46
1, 346435, Note_on_c, 0, 50, 56
1, 346440, Control_c, 0, 64, 60
1, 346450, Note_on_c, 0, 72, 48
1, 346454, Control_c, 0, 64, 68
1, 346460, Note_on_c, 0, 56, 63
1, 346469, Note_on_c, 0, 60, 28
1, 346469, Control_c, 0, 64, 70
1, 346475, Note_off_c, 0, 50, 53
1, 346476, Note_off_c, 0, 65, 60
1, 346482, Note_on_c, 0, 51, 71
1, 346484, Note_off_c, 0, 72, 49
1, 346496, Note_on_c, 0, 77, 85
1, 346496, Note_off_c, 0, 56, 67
1, 346499, Control_c, 0, 64, 67
1, 346501, Note_off_c, 0, 60, 53
1, 346509, Note_off_c, 0, 51, 68
1, 346514, Control_c, 0, 64, 63
1, 346517, Note_off_c, 0, 76, 64
1, 346529, Control_c, 0, 64, 52
1, 346538, Note_off_c, 0, 77, 63
1, 346544, Control_c, 0, 64, 13
1, 346559, Control_c, 0, 64, 0
1, 346633, Note_on_c, 0, 80, 90
1, 346635, Note_on_c, 0, 70, 75
1, 346642, Note_on_c, 0, 76, 71
1, 346647, Note_on_c, 0, 55, 79
1, 346658, Note_on_c, 0, 61, 63
1, 346660, Note_off_c, 0, 70, 66
1, 346662, Control_c, 0, 64, 39
1, 346665, Note_off_c, 0, 76, 70
1, 346675, Note_on_c, 0, 64, 48
1, 346677, Control_c, 0, 64, 60
1, 346691, Control_c, 0, 64, 117
1, 346697, Note_on_c, 0, 81, 94
1, 346705, Note_on_c, 0, 69, 89
1, 346706, Control_c, 0, 64, 127
1, 346710, Note_on_c, 0, 84, 89
1, 346717, Note_off_c, 0, 55, 66
1, 346723, Note_off_c, 0, 69, 74
1, 346724, Note_off_c, 0, 80, 63
1, 346726, Note_off_c, 0, 61, 67
1, 346726, Note_on_c, 0, 72, 63
1, 346735, Note_off_c, 0, 64, 63
1, 346745, Note_off_c, 0, 72, 65
1, 346754, Note_off_c, 0, 81, 64
1, 346776, Note_off_c, 0, 84, 64
1, 346826, Poly_aftertouch_c, 0, 83, 0
1, 346955, Note_on_c, 0, 88, 81
1, 346964, Note_on_c, 0, 85, 68
1, 347009, Note_off_c, 0, 88, 67
1, 347021, Note_off_c, 0, 85, 65
1, 347030, Note_on_c, 0, 76, 70
1, 347079, Note_on_c, 0, 64, 56
1, 347095, Note_off_c, 0, 76, 62
1, 347140, Note_on_c, 0, 72, 15
1, 347151, Note_off_c, 0, 64, 56
1, 347154, Note_on_c, 0, 61, 67
1, 347197, Note_off_c, 0, 72, 52
1, 347200, Note_off_c, 0, 61, 67
1, 347221, Note_on_c, 0, 52, 69
1, 347269, Note_off_c, 0, 52, 63
1, 347365, Note_on_c, 0, 76, 77
1, 347379, Note_on_c, 0, 73, 64
1, 347408, Note_off_c, 0, 76, 64
1, 347414, Note_off_c, 0, 73, 64
1, 347425, Note_on_c, 0, 64, 77
1, 347473, Note_off_c, 0, 64, 61
1, 347486, Note_on_c, 0, 52, 52
1, 347530, Note_on_c, 0, 49, 70
1, 347561, Note_off_c, 0, 52, 59
1, 347582, Note_off_c, 0, 49, 61
1, 347603, Note_on_c, 0, 48, 17
1, 347612, Note_on_c, 0, 41, 33
1, 347649, Note_off_c, 0, 41, 53
1, 347652, Note_off_c, 0, 48, 53
1, 347698, Note_on_c, 0, 37, 70
1, 347721, Control_c, 0, 64, 65
1, 347736, Control_c, 0, 64, 40
1, 347751, Control_c, 0, 64, 0
1, 347761, Note_off_c, 0, 37, 57
1, 347766, Note_on_c, 0, 25, 81
1, 347772, Note_on_c, 0, 27, 68
1, 347781, Control_c, 0, 64, 20
1, 347789, Note_off_c, 0, 25, 65
1, 347796, Control_c, 0, 64, 51
1, 347810, Note_off_c, 0, 27, 69
1, 347811, Control_c, 0, 64, 92
1, 347826, Control_c, 0, 64, 127
1, 347951, Note_on_c, 0, 81, 89
1, 347952, Note_on_c, 0, 69, 75
1, 347959, Note_on_c, 0, 77, 76
1, 347969, Note_on_c, 0, 65, 72
1, 347975, Note_off_c, 0, 69, 70
1, 347983, Note_off_c, 0, 77, 65
1, 347997, Note_on_c, 0, 61, 61
1, 348013, Note_on_c, 0, 82, 91
1, 348025, Note_on_c, 0, 55, 76
1, 348027, Control_c, 0, 64, 69
1, 348030, Note_off_c, 0, 65, 65
1, 348033, Note_off_c, 0, 81, 61
1, 348036, Note_on_c, 0, 70, 71
1, 348042, Control_c, 0, 64, 52
1, 348053, Note_off_c, 0, 55, 68
1, 348053, Note_off_c, 0, 61, 66
1, 348055, Note_off_c, 0, 70, 62
1, 348057, Control_c, 0, 64, 0
1, 348061, Note_off_c, 0, 82, 66
1, 348159, Note_on_c, 0, 76, 81
1, 348170, Note_on_c, 0, 64, 62
1, 348173, Note_on_c, 0, 60, 67
1, 348174, Note_on_c, 0, 48, 64
1, 348175, Control_c, 0, 64, 19
1, 348190, Note_off_c, 0, 64, 62
1, 348190, Control_c, 0, 64, 52
1, 348202, Note_on_c, 0, 56, 42
1, 348205, Control_c, 0, 64, 79
1, 348219, Control_c, 0, 64, 127
1, 348228, Note_on_c, 0, 77, 88
1, 348228, Note_off_c, 0, 60, 64
1, 348230, Note_off_c, 0, 48, 49
1, 348231, Note_on_c, 0, 65, 65
1, 348246, Note_off_c, 0, 56, 66
1, 348255, Note_on_c, 0, 50, 37
1, 348263, Note_off_c, 0, 65, 60
1, 348290, Note_off_c, 0, 50, 46
1, 348297, Note_off_c, 0, 76, 60
1, 348309, Control_c, 0, 67, 8
1, 348311, Note_off_c, 0, 77, 59
1, 348323, Control_c, 0, 67, 17
1, 348338, Control_c, 0, 67, 31
1, 348353, Control_c, 0, 67, 53
1, 348368, Control_c, 0, 67, 80
1, 348383, Control_c, 0, 67, 111
1, 348396, Note_on_c, 0, 49, 72
1, 348398, Control_c, 0, 67, 127
1, 348415, Note_off_c, 0, 49, 67
1, 348418, Note_on_c, 0, 51, 63
1, 348449, Note_off_c, 0, 51, 67
1, 348492, Note_on_c, 0, 56, 74
1, 348548, Note_on_c, 0, 60, 72
1, 348552, Note_off_c, 0, 56, 65
1, 348557, Note_on_c, 0, 80, 84
1, 348560, Note_on_c, 0, 62, 70
1, 348560, Note_on_c, 0, 76, 74
1, 348564, Note_off_c, 0, 60, 70
1, 348567, Note_on_c, 0, 68, 80
1, 348577, Note_on_c, 0, 74, 53
1, 348580, Note_off_c, 0, 62, 68
1, 348584, Note_off_c, 0, 76, 69
1, 348590, Control_c, 0, 64, 67
1, 348595, Note_off_c, 0, 80, 59
1, 348598, Note_off_c, 0, 74, 66
1, 348605, Control_c, 0, 64, 49
1, 348619, Control_c, 0, 64, 0
1, 348620, Note_off_c, 0, 68, 62
1, 348803, Note_on_c, 0, 29, 66
1, 348852, Note_off_c, 0, 29, 62
1, 348875, Note_on_c, 0, 56, 72
1, 348875, Note_on_c, 0, 60, 69
1, 348879, Note_on_c, 0, 41, 57
1, 348891, Note_on_c, 0, 48, 44
1, 348892, Note_off_c, 0, 48, 127
1, 348895, Note_off_c, 0, 56, 69
1, 348905, Note_off_c, 0, 60, 63
1, 348914, Note_off_c, 0, 41, 65
1, 348929, Note_on_c, 0, 62, 70
1, 348946, Note_on_c, 0, 59, 65
1, 348958, Note_on_c, 0, 50, 56
1, 348970, Note_on_c, 0, 41, 53
1, 349006, Note_off_c, 0, 41, 64
1, 349029, Note_on_c, 0, 48, 59
1, 349069, Note_off_c, 0, 48, 65
1, 349087, Note_on_c, 0, 41, 59
1, 349126, Note_off_c, 0, 41, 65
1, 349216, Note_on_c, 0, 41, 19
1, 349254, Note_on_c, 0, 29, 70
1, 349261, Note_off_c, 0, 41, 42
1, 349294, Control_c, 0, 64, 27
1, 349302, Note_off_c, 0, 29, 61
1, 349309, Control_c, 0, 64, 28
1, 349324, Control_c, 0, 64, 22
1, 349339, Control_c, 0, 64, 17
1, 349355, Poly_aftertouch_c, 0, 56, 127
1, 349383, Control_c, 0, 64, 18
1, 349398, Control_c, 0, 64, 20
1, 349400, Note_on_c, 0, 41, 7
1, 349420, Control_c, 0, 64, 21
1, 349435, Control_c, 0, 64, 23
1, 349449, Control_c, 0, 64, 23
1, 349464, Control_c, 0, 64, 24
1, 349475, Note_off_c, 0, 41, 62
1, 349495, Note_on_c, 0, 48, 58
1, 349531, Note_off_c, 0, 48, 62
1, 349554, Control_c, 0, 64, 24
1, 349565, Note_on_c, 0, 41, 54
1, 349584, Control_c, 0, 64, 25
1, 349595, Note_off_c, 0, 41, 65
1, 349598, Control_c, 0, 64, 25
1, 349613, Control_c, 0, 64, 26
1, 349647, Note_on_c, 0, 41, 44
1, 349687, Control_c, 0, 64, 25
1, 349689, Note_off_c, 0, 41, 60
1, 349702, Control_c, 0, 64, 19
1, 349716, Control_c, 0, 64, 0
1, 349719, Note_on_c, 0, 35, 63
1, 349798, Note_on_c, 0, 36, 58
1, 349799, Note_off_c, 0, 35, 61
1, 349818, Note_off_c, 0, 59, 48
1, 349835, Poly_aftertouch_c, 0, 56, 0
1, 349846, Note_off_c, 0, 36, 65
1, 349853, Note_on_c, 0, 37, 65
1, 349910, Note_off_c, 0, 37, 62
1, 349911, Note_off_c, 0, 62, 55
1, 349926, Note_on_c, 0, 38, 61
1, 349978, Note_off_c, 0, 50, 58
1, 349999, Note_on_c, 0, 39, 65
1, 350013, Note_off_c, 0, 38, 59
1, 350057, Note_on_c, 0, 44, 65
1, 350082, Note_off_c, 0, 39, 61
1, 350112, Note_off_c, 0, 44, 61
1, 350132, Note_on_c, 0, 47, 69
1, 350200, Note_on_c, 0, 48, 68
1, 350207, Note_off_c, 0, 47, 62
1, 350273, Note_on_c, 0, 49, 78
1, 350295, Note_off_c, 0, 48, 60
1, 350328, Note_off_c, 0, 49, 67
1, 350338, Note_on_c, 0, 50, 73
1, 350399, Note_off_c, 0, 50, 63
1, 350404, Note_on_c, 0, 51, 79
1, 350468, Note_on_c, 0, 56, 83
1, 350470, Note_off_c, 0, 51, 66
1, 350515, Note_off_c, 0, 56, 64
1, 350547, Note_on_c, 0, 29, 70
1, 350592, Note_on_c, 0, 41, 49
1, 350593, Note_off_c, 0, 29, 63
1, 350629, Note_off_c, 0, 41, 64
1, 350631, Note_on_c, 0, 56, 79
1, 350633, Note_on_c, 0, 48, 70
1, 350634, Note_off_c, 0, 48, 127
1, 350637, Note_on_c, 0, 60, 62
1, 350655, Note_off_c, 0, 56, 68
1, 350655, Note_off_c, 0, 60, 65
1, 350672, Note_on_c, 0, 62, 83
1, 350684, Note_on_c, 0, 59, 79
1, 350702, Note_on_c, 0, 50, 54
1, 350705, Note_on_c, 0, 41, 65
1, 350714, Note_off_c, 0, 62, 63
1, 350729, Note_off_c, 0, 50, 56
1, 350733, Note_on_c, 0, 48, 62
1, 350736, Note_off_c, 0, 59, 60
1, 350741, Note_off_c, 0, 41, 63
1, 350783, Note_off_c, 0, 48, 62
1, 350825, Note_on_c, 0, 41, 50
1, 350854, Note_off_c, 0, 41, 59
1, 350878, Note_on_c, 0, 56, 77
1, 350881, Note_on_c, 0, 48, 61
1, 350890, Note_on_c, 0, 60, 49
1, 350903, Note_off_c, 0, 48, 62
1, 350923, Note_off_c, 0, 60, 39
1, 350929, Note_on_c, 0, 59, 76
1, 350933, Note_on_c, 0, 63, 88
1, 350951, Note_on_c, 0, 29, 77
1, 350953, Note_on_c, 0, 51, 83
1, 350956, Note_off_c, 0, 56, 32
1, 350962, Note_on_c, 0, 41, 3
1, 350991, Control_c, 0, 64, 18
1, 351002, Note_off_c, 0, 29, 61
1, 351006, Control_c, 0, 64, 34
1, 351021, Control_c, 0, 64, 41
1, 351036, Control_c, 0, 64, 50
1, 351047, Note_off_c, 0, 41, 20
1, 351051, Control_c, 0, 64, 57
1, 351065, Control_c, 0, 64, 61
1, 351080, Control_c, 0, 64, 62
1, 351090, Note_on_c, 0, 41, 56
1, 351110, Control_c, 0, 64, 61
1, 351125, Control_c, 0, 64, 60
1, 351128, Note_off_c, 0, 51, 62
1, 351137, Note_off_c, 0, 63, 62
1, 351140, Control_c, 0, 64, 59
1, 351151, Note_off_c, 0, 41, 61
1, 351155, Control_c, 0, 64, 57
1, 351156, Note_off_c, 0, 59, 49
1, 351163, Note_on_c, 0, 48, 70
1, 351170, Control_c, 0, 64, 53
1, 351185, Control_c, 0, 64, 47
1, 351200, Control_c, 0, 64, 42
1, 351201, Note_off_c, 0, 48, 64
1, 351215, Control_c, 0, 64, 40
1, 351244, Control_c, 0, 64, 40
1, 351259, Control_c, 0, 64, 39
1, 351263, Note_on_c, 0, 60, 79
1, 351269, Note_on_c, 0, 41, 41
1, 351274, Control_c, 0, 64, 36
1, 351281, Note_on_c, 0, 56, 61
1, 351285, Note_on_c, 0, 48, 57
1, 351288, Control_c, 0, 64, 28
1, 351298, Note_off_c, 0, 60, 64
1, 351299, Note_off_c, 0, 41, 0
1, 351303, Note_off_c, 0, 56, 63
1, 351303, Control_c, 0, 64, 9
1, 351307, Note_off_c, 0, 48, 43
1, 351318, Control_c, 0, 64, 0
1, 351323, Note_on_c, 0, 41, 45
1, 351377, Note_off_c, 0, 41, 61
1, 351405, Note_on_c, 0, 29, 79
1, 351470, Note_off_c, 0, 29, 62
1, 351474, Note_on_c, 0, 60, 68
1, 351474, Note_on_c, 0, 72, 76
1, 351477, Note_on_c, 0, 68, 68
1, 351489, Note_off_c, 0, 60, 69
1, 351494, Note_off_c, 0, 68, 64
1, 351495, Note_off_c, 0, 72, 67
1, 351496, Note_on_c, 0, 41, 37
1, 351530, Note_on_c, 0, 71, 75
1, 351531, Note_on_c, 0, 74, 76
1, 351544, Note_off_c, 0, 41, 0
1, 351544, Note_on_c, 0, 41, 46
1, 351550, Note_on_c, 0, 62, 69
1, 351612, Note_off_c, 0, 41, 63
1, 351617, Note_on_c, 0, 48, 69
1, 351663, Note_off_c, 0, 48, 64
1, 351708, Note_on_c, 0, 41, 47
1, 351738, Note_off_c, 0, 41, 57
1, 351778, Note_on_c, 0, 41, 43
1, 351825, Note_off_c, 0, 41, 63
1, 351855, Note_on_c, 0, 35, 64
1, 351859, Control_c, 0, 64, 10
1, 351874, Control_c, 0, 64, 15
1, 351889, Control_c, 0, 64, 19
1, 351904, Control_c, 0, 64, 22
1, 351918, Control_c, 0, 64, 24
1, 351926, Note_on_c, 0, 36, 60
1, 351933, Note_off_c, 0, 35, 58
1, 351934, Control_c, 0, 64, 25
1, 351979, Note_off_c, 0, 36, 64
1, 351991, Note_on_c, 0, 37, 66
1, 351993, Control_c, 0, 64, 26
1, 352007, Note_off_c, 0, 74, 63
1, 352008, Control_c, 0, 64, 27
1, 352023, Control_c, 0, 64, 29
1, 352032, Note_off_c, 0, 71, 63
1, 352038, Note_off_c, 0, 37, 65
1, 352038, Control_c, 0, 64, 30
1, 352055, Note_on_c, 0, 38, 61
1, 352092, Note_off_c, 0, 62, 65
1, 352137, Note_on_c, 0, 39, 63
1, 352142, Note_off_c, 0, 38, 53
1, 352186, Control_c, 0, 64, 31
1, 352197, Note_on_c, 0, 44, 68
1, 352201, Control_c, 0, 64, 31
1, 352216, Control_c, 0, 64, 32
1, 352217, Note_off_c, 0, 39, 63
1, 352230, Control_c, 0, 64, 32
1, 352245, Control_c, 0, 64, 33
1, 352264, Note_off_c, 0, 44, 62
1, 352282, Note_on_c, 0, 47, 74
1, 352290, Control_c, 0, 64, 32
1, 352304, Control_c, 0, 64, 29
1, 352319, Control_c, 0, 64, 25
1, 352334, Control_c, 0, 64, 22
1, 352345, Note_on_c, 0, 48, 67
1, 352349, Control_c, 0, 64, 20
1, 352359, Note_off_c, 0, 47, 61
1, 352413, Note_on_c, 0, 49, 82
1, 352440, Note_off_c, 0, 48, 66
1, 352445, Control_c, 0, 64, 21
1, 352460, Control_c, 0, 64, 23
1, 352473, Note_off_c, 0, 49, 67
1, 352475, Control_c, 0, 64, 24
1, 352482, Note_on_c, 0, 50, 74
1, 352490, Control_c, 0, 64, 24
1, 352519, Control_c, 0, 64, 25
1, 352547, Note_on_c, 0, 51, 82
1, 352547, Note_off_c, 0, 50, 61
1, 352607, Note_on_c, 0, 56, 88
1, 352608, Control_c, 0, 64, 24
1, 352616, Note_off_c, 0, 51, 66
1, 352623, Control_c, 0, 64, 18
1, 352637, Control_c, 0, 64, 0
1, 352661, Note_off_c, 0, 56, 65
1, 352679, Note_on_c, 0, 29, 73
1, 352729, Note_on_c, 0, 41, 54
1, 352737, Note_off_c, 0, 29, 60
1, 352762, Note_on_c, 0, 48, 77
1, 352764, Note_on_c, 0, 60, 68
1, 352764, Note_off_c, 0, 41, 66
1, 352765, Note_on_c, 0, 56, 73
1, 352780, Note_off_c, 0, 48, 68
1, 352780, Note_off_c, 0, 60, 69
1, 352781, Note_off_c, 0, 56, 70
1, 352813, Note_on_c, 0, 63, 92
1, 352816, Note_on_c, 0, 59, 91
1, 352825, Note_on_c, 0, 51, 73
1, 352840, Note_on_c, 0, 41, 56
1, 352853, Note_off_c, 0, 51, 70
1, 352856, Note_off_c, 0, 63, 64
1, 352863, Note_off_c, 0, 59, 64
1, 352871, Note_off_c, 0, 41, 65
1, 352874, Note_on_c, 0, 48, 54
1, 352920, Note_off_c, 0, 48, 65
1, 352959, Note_on_c, 0, 41, 54
1, 352988, Note_off_c, 0, 41, 60
1, 353000, Note_on_c, 0, 60, 85
1, 353006, Note_on_c, 0, 56, 76
1, 353006, Note_on_c, 0, 50, 72
1, 353018, Note_off_c, 0, 60, 72
1, 353024, Note_off_c, 0, 50, 68
1, 353024, Note_off_c, 0, 56, 70
1, 353050, Note_on_c, 0, 59, 89
1, 353053, Note_on_c, 0, 64, 91
1, 353063, Note_on_c, 0, 52, 89
1, 353078, Note_on_c, 0, 29, 82
1, 353127, Control_c, 0, 64, 30
1, 353129, Note_off_c, 0, 29, 59
1, 353142, Control_c, 0, 64, 44
1, 353164, Control_c, 0, 64, 53
1, 353179, Control_c, 0, 64, 57
1, 353194, Control_c, 0, 64, 57
1, 353206, Note_off_c, 0, 64, 56
1, 353209, Note_off_c, 0, 59, 49
1, 353218, Note_on_c, 0, 41, 59
1, 353220, Note_off_c, 0, 52, 37
1, 353281, Note_off_c, 0, 41, 64
1, 353297, Control_c, 0, 64, 57
1, 353307, Note_on_c, 0, 48, 59
1, 353312, Control_c, 0, 64, 56
1, 353342, Note_off_c, 0, 48, 67
1, 353376, Note_on_c, 0, 60, 78
1, 353390, Note_on_c, 0, 41, 52
1, 353409, Note_on_c, 0, 56, 64
1, 353412, Note_on_c, 0, 48, 52
1, 353421, Note_off_c, 0, 41, 54
1, 353424, Note_off_c, 0, 60, 66
1, 353430, Note_off_c, 0, 56, 67
1, 353433, Note_off_c, 0, 48, 63
1, 353445, Control_c, 0, 64, 56
1, 353460, Control_c, 0, 64, 51
1, 353461, Note_on_c, 0, 41, 57
1, 353474, Control_c, 0, 64, 35
1, 353489, Control_c, 0, 64, 0
1, 353512, Note_off_c, 0, 41, 58
1, 353540, Note_on_c, 0, 29, 82
1, 353601, Note_off_c, 0, 29, 62
1, 353606, Note_on_c, 0, 53, 73
1, 353606, Note_on_c, 0, 65, 77
1, 353607, Note_on_c, 0, 61, 73
1, 353624, Note_off_c, 0, 53, 67
1, 353627, Note_off_c, 0, 65, 72
1, 353630, Note_off_c, 0, 61, 72
1, 353664, Note_on_c, 0, 64, 78
1, 353666, Note_on_c, 0, 67, 81
1, 353670, Note_on_c, 0, 55, 82
1, 353683, Note_on_c, 0, 46, 75
1, 353729, Note_off_c, 0, 46, 63
1, 353742, Note_on_c, 0, 53, 70
1, 353781, Note_off_c, 0, 53, 66
1, 353820, Note_off_c, 0, 55, 0
1, 353825, Note_on_c, 0, 46, 59
1, 353854, Note_off_c, 0, 46, 67
1, 353857, Poly_aftertouch_c, 0, 55, 127
1, 353866, Note_on_c, 0, 55, 19
1, 353916, Note_on_c, 0, 41, 58
1, 353955, Note_off_c, 0, 41, 64
1, 353978, Note_on_c, 0, 29, 84
1, 354031, Control_c, 0, 64, 18
1, 354043, Note_off_c, 0, 29, 61
1, 354046, Control_c, 0, 64, 16
1, 354061, Control_c, 0, 64, 9
1, 354076, Control_c, 0, 64, 0
1, 354129, Note_on_c, 0, 46, 67
1, 354150, Control_c, 0, 64, 8
1, 354164, Control_c, 0, 64, 9
1, 354179, Control_c, 0, 64, 10
1, 354183, Note_off_c, 0, 46, 63
1, 354187, Note_on_c, 0, 53, 74
1, 354226, Note_off_c, 0, 53, 63
1, 354282, Note_on_c, 0, 46, 55
1, 354297, Control_c, 0, 64, 9
1, 354306, Note_off_c, 0, 46, 60
1, 354312, Control_c, 0, 64, 8
1, 354327, Control_c, 0, 64, 0
1, 354366, Note_on_c, 0, 41, 60
1, 354413, Note_off_c, 0, 41, 49
1, 354430, Note_on_c, 0, 40, 69
1, 354491, Control_c, 0, 64, 22
1, 354501, Note_on_c, 0, 41, 69
1, 354506, Control_c, 0, 64, 35
1, 354521, Control_c, 0, 64, 37
1, 354521, Note_off_c, 0, 40, 60
1, 354536, Control_c, 0, 64, 35
1, 354551, Control_c, 0, 64, 33
1, 354565, Control_c, 0, 64, 32
1, 354575, Note_on_c, 0, 42, 72
1, 354577, Note_off_c, 0, 41, 60
1, 354580, Control_c, 0, 64, 31
1, 354595, Control_c, 0, 64, 30
1, 354604, Note_off_c, 0, 67, 58
1, 354610, Control_c, 0, 64, 29
1, 354629, Note_off_c, 0, 64, 61
1, 354633, Note_off_c, 0, 42, 61
1, 354638, Note_on_c, 0, 43, 66
1, 354640, Control_c, 0, 64, 28
1, 354661, Control_c, 0, 64, 27
1, 354676, Control_c, 0, 64, 26
1, 354691, Control_c, 0, 64, 25
1, 354703, Note_off_c, 0, 55, 59
1, 354706, Control_c, 0, 64, 25
1, 354716, Note_on_c, 0, 44, 69
1, 354735, Control_c, 0, 64, 25
1, 354739, Note_off_c, 0, 43, 61
1, 354750, Control_c, 0, 64, 26
1, 354765, Control_c, 0, 64, 27
1, 354775, Note_on_c, 0, 49, 76
1, 354780, Control_c, 0, 64, 27
1, 354801, Note_off_c, 0, 44, 61
1, 354826, Note_off_c, 0, 49, 66
1, 354839, Control_c, 0, 64, 26
1, 354848, Note_on_c, 0, 52, 72
1, 354854, Control_c, 0, 64, 25
1, 354869, Control_c, 0, 64, 24
1, 354884, Control_c, 0, 64, 25
1, 354899, Control_c, 0, 64, 26
1, 354904, Note_on_c, 0, 53, 74
1, 354913, Control_c, 0, 64, 27
1, 354914, Note_off_c, 0, 52, 64
1, 354943, Control_c, 0, 64, 27
1, 354958, Control_c, 0, 64, 28
1, 354971, Note_on_c, 0, 54, 81
1, 354986, Note_off_c, 0, 53, 66
1, 355025, Note_off_c, 0, 54, 66
1, 355031, Control_c, 0, 64, 27
1, 355033, Note_on_c, 0, 55, 78
1, 355046, Control_c, 0, 64, 24
1, 355061, Control_c, 0, 64, 19
1, 355076, Control_c, 0, 64, 0
1, 355099, Note_on_c, 0, 56, 86
1, 355105, Note_off_c, 0, 55, 60
1, 355163, Note_on_c, 0, 61, 89
1, 355170, Note_off_c, 0, 56, 65
1, 355212, Note_off_c, 0, 61, 64
1, 355234, Note_on_c, 0, 29, 76
1, 355254, Control_c, 0, 64, 32
1, 355269, Control_c, 0, 64, 37
1, 355284, Control_c, 0, 64, 36
1, 355288, Note_on_c, 0, 41, 56
1, 355296, Note_off_c, 0, 29, 60
1, 355299, Control_c, 0, 64, 35
1, 355311, Note_on_c, 0, 53, 87
1, 355314, Note_on_c, 0, 61, 80
1, 355314, Control_c, 0, 64, 34
1, 355315, Note_off_c, 0, 41, 61
1, 355325, Note_on_c, 0, 65, 52
1, 355326, Note_off_c, 0, 53, 71
1, 355329, Note_off_c, 0, 61, 72
1, 355329, Control_c, 0, 64, 30
1, 355336, Note_on_c, 0, 64, 34
1, 355344, Control_c, 0, 64, 24
1, 355358, Control_c, 0, 64, 16
1, 355359, Note_off_c, 0, 64, 0
1, 355359, Note_on_c, 0, 64, 27
1, 355361, Note_on_c, 0, 67, 89
1, 355363, Note_off_c, 0, 65, 46
1, 355370, Note_on_c, 0, 55, 82
1, 355373, Control_c, 0, 64, 9
1, 355386, Note_on_c, 0, 46, 67
1, 355388, Control_c, 0, 64, 0
1, 355395, Note_off_c, 0, 55, 67
1, 355409, Note_off_c, 0, 67, 65
1, 355421, Note_off_c, 0, 46, 67
1, 355433, Note_off_c, 0, 64, 61
1, 355442, Note_on_c, 0, 53, 63
1, 355478, Note_off_c, 0, 53, 65
1, 355510, Note_on_c, 0, 46, 64
1, 355540, Note_off_c, 0, 46, 67
1, 355556, Note_on_c, 0, 65, 81
1, 355559, Note_on_c, 0, 61, 80
1, 355562, Note_on_c, 0, 53, 68
1, 355576, Note_off_c, 0, 65, 74
1, 355580, Note_off_c, 0, 61, 72
1, 355582, Note_off_c, 0, 53, 66
1, 355601, Note_on_c, 0, 64, 77
1, 355608, Note_on_c, 0, 68, 89
1, 355623, Note_on_c, 0, 56, 89
1, 355635, Note_on_c, 0, 29, 78
1, 355661, Control_c, 0, 64, 36
1, 355670, Note_on_c, 0, 58, 30
1, 355672, Note_off_c, 0, 29, 66
1, 355676, Control_c, 0, 64, 53
1, 355691, Control_c, 0, 64, 63
1, 355703, Note_off_c, 0, 58, 57
1, 355706, Control_c, 0, 64, 67
1, 355750, Control_c, 0, 64, 66
1, 355755, Note_on_c, 0, 46, 72
1, 355776, Note_off_c, 0, 56, 63
1, 355779, Note_off_c, 0, 68, 58
1, 355787, Note_off_c, 0, 64, 56
1, 355807, Note_off_c, 0, 46, 62
1, 355817, Note_on_c, 0, 53, 73
1, 355839, Control_c, 0, 64, 66
1, 355853, Control_c, 0, 64, 65
1, 355858, Note_off_c, 0, 53, 61
1, 355883, Control_c, 0, 64, 65
1, 355895, Note_on_c, 0, 46, 72
1, 355906, Note_on_c, 0, 65, 87
1, 355922, Note_on_c, 0, 53, 80
1, 355922, Note_off_c, 0, 46, 69
1, 355929, Note_on_c, 0, 61, 77
1, 355944, Note_off_c, 0, 53, 72
1, 355952, Note_off_c, 0, 61, 70
1, 355961, Note_off_c, 0, 65, 66
1, 355973, Control_c, 0, 64, 62
1, 355987, Note_on_c, 0, 41, 64
1, 355988, Control_c, 0, 64, 50
1, 356003, Control_c, 0, 64, 0
1, 356032, Note_off_c, 0, 41, 59
1, 356059, Note_on_c, 0, 29, 88
1, 356107, Control_c, 0, 64, 21
1, 356117, Note_off_c, 0, 29, 62
1, 356120, Note_on_c, 0, 65, 80
1, 356121, Note_on_c, 0, 77, 90
1, 356122, Control_c, 0, 64, 29
1, 356123, Note_on_c, 0, 73, 82
1, 356136, Control_c, 0, 64, 28
1, 356139, Note_off_c, 0, 65, 74
1, 356141, Note_off_c, 0, 73, 72
1, 356155, Note_off_c, 0, 77, 59
1, 356158, Control_c, 0, 64, 27
1, 356162, Note_on_c, 0, 41, 32
1, 356173, Control_c, 0, 64, 26
1, 356183, Note_on_c, 0, 76, 71
1, 356186, Note_on_c, 0, 79, 84
1, 356188, Control_c, 0, 64, 23
1, 356199, Note_on_c, 0, 67, 81
1, 356203, Note_on_c, 0, 46, 71
1, 356203, Control_c, 0, 64, 0
1, 356211, Note_off_c, 0, 41, 31
1, 356256, Note_off_c, 0, 46, 63
1, 356269, Note_on_c, 0, 53, 70
1, 356291, Control_c, 0, 64, 13
1, 356302, Note_off_c, 0, 53, 67
1, 356303, Note_off_c, 0, 67, 0
1, 356306, Control_c, 0, 64, 29
1, 356321, Control_c, 0, 64, 34
1, 356329, Note_on_c, 0, 67, 28
1, 356336, Control_c, 0, 64, 36
1, 356354, Note_on_c, 0, 46, 48
1, 356377, Note_off_c, 0, 67, 0
1, 356377, Note_on_c, 0, 67, 10
1, 356384, Note_off_c, 0, 46, 51
1, 356410, Control_c, 0, 64, 36
1, 356423, Note_on_c, 0, 41, 62
1, 356425, Control_c, 0, 64, 37
1, 356440, Control_c, 0, 64, 38
1, 356455, Control_c, 0, 64, 39
1, 356470, Control_c, 0, 64, 40
1, 356477, Note_off_c, 0, 41, 45
1, 356497, Note_on_c, 0, 40, 72
1, 356499, Control_c, 0, 64, 39
1, 356529, Control_c, 0, 64, 40
1, 356544, Control_c, 0, 64, 43
1, 356548, Note_on_c, 0, 73, 43
1, 356558, Control_c, 0, 64, 48
1, 356560, Note_off_c, 0, 79, 60
1, 356572, Note_on_c, 0, 41, 60
1, 356573, Control_c, 0, 64, 55
1, 356588, Control_c, 0, 64, 59
1, 356598, Note_off_c, 0, 40, 61
1, 356598, Note_off_c, 0, 76, 64
1, 356598, Note_off_c, 0, 73, 60
1, 356602, Control_c, 0, 64, 59
1, 356634, Note_off_c, 0, 41, 63
1, 356635, Note_on_c, 0, 42, 80
1, 356647, Control_c, 0, 64, 59
1, 356662, Control_c, 0, 64, 58
1, 356667, Note_off_c, 0, 67, 53
1, 356676, Control_c, 0, 64, 58
1, 356676, Control_c, 0, 67, 127
1, 356692, Note_off_c, 0, 42, 60
1, 356704, Note_on_c, 0, 43, 63
1, 356706, Control_c, 0, 67, 126
1, 356722, Control_c, 0, 67, 123
1, 356737, Control_c, 0, 64, 58
1, 356737, Control_c, 0, 67, 116
1, 356752, Control_c, 0, 67, 105
1, 356762, Note_on_c, 0, 44, 76
1, 356767, Control_c, 0, 67, 90
1, 356780, Note_off_c, 0, 43, 60
1, 356781, Control_c, 0, 64, 59
1, 356781, Control_c, 0, 67, 77
1, 356796, Control_c, 0, 67, 64
1, 356811, Control_c, 0, 67, 50
1, 356825, Note_on_c, 0, 49, 83
1, 356825, Control_c, 0, 67, 35
1, 356840, Control_c, 0, 67, 20
1, 356852, Note_off_c, 0, 44, 61
1, 356855, Control_c, 0, 64, 56
1, 356855, Control_c, 0, 67, 0
1, 356870, Control_c, 0, 64, 48
1, 356880, Note_off_c, 0, 49, 66
1, 356885, Control_c, 0, 64, 26
1, 356900, Note_on_c, 0, 52, 75
1, 356907, Control_c, 0, 64, 0
1, 356956, Note_on_c, 0, 53, 76
1, 356981, Control_c, 0, 64, 24
1, 356984, Note_off_c, 0, 52, 58
1, 356996, Control_c, 0, 64, 30
1, 357011, Control_c, 0, 64, 32
1, 357022, Note_on_c, 0, 54, 84
1, 357026, Control_c, 0, 64, 34
1, 357040, Control_c, 0, 64, 36
1, 357046, Note_off_c, 0, 53, 65
1, 357055, Control_c, 0, 64, 39
1, 357070, Control_c, 0, 64, 42
1, 357080, Note_off_c, 0, 54, 65
1, 357084, Note_on_c, 0, 55, 84
1, 357085, Control_c, 0, 64, 46
1, 357100, Control_c, 0, 64, 48
1, 357114, Control_c, 0, 64, 50
1, 357129, Control_c, 0, 64, 51
1, 357147, Note_on_c, 0, 56, 87
1, 357152, Note_off_c, 0, 55, 57
1, 357159, Control_c, 0, 64, 51
1, 357180, Note_on_c, 0, 37, 10
1, 357204, Control_c, 0, 64, 48
1, 357207, Note_on_c, 0, 61, 91
1, 357218, Note_off_c, 0, 56, 66
1, 357218, Control_c, 0, 64, 34
1, 357233, Control_c, 0, 64, 0
1, 357245, Note_off_c, 0, 61, 68
1, 357247, Note_off_c, 0, 37, 40
1, 357262, Note_on_c, 0, 29, 80
1, 357310, Note_on_c, 0, 41, 64
1, 357322, Note_off_c, 0, 29, 62
1, 357337, Control_c, 0, 64, 27
1, 357346, Note_off_c, 0, 41, 66
1, 357352, Control_c, 0, 64, 29
1, 357365, Note_on_c, 0, 53, 77
1, 357369, Note_on_c, 0, 65, 71
1, 357380, Note_on_c, 0, 61, 52
1, 357381, Note_off_c, 0, 61, 127
1, 357382, Note_off_c, 0, 53, 69
1, 357385, Note_off_c, 0, 65, 69
1, 357407, Note_on_c, 0, 68, 97
1, 357409, Note_on_c, 0, 64, 86
1, 357411, Control_c, 0, 64, 29
1, 357415, Note_on_c, 0, 56, 80
1, 357417, Note_on_c, 0, 46, 73
1, 357445, Note_off_c, 0, 46, 66
1, 357452, Note_on_c, 0, 53, 81
1, 357455, Control_c, 0, 64, 29
1, 357460, Note_off_c, 0, 56, 66
1, 357462, Note_off_c, 0, 68, 63
1, 357466, Poly_aftertouch_c, 0, 61, 0
1, 357470, Control_c, 0, 64, 28
1, 357477, Note_off_c, 0, 64, 63
1, 357487, Note_off_c, 0, 53, 62
1, 357496, Note_on_c, 0, 49, 11
1, 357514, Control_c, 0, 64, 28
1, 357530, Control_c, 0, 64, 26
1, 357532, Note_off_c, 0, 49, 26
1, 357545, Control_c, 0, 64, 25
1, 357560, Control_c, 0, 64, 22
1, 357575, Control_c, 0, 64, 0
1, 357585, Note_on_c, 0, 65, 88
1, 357587, Note_on_c, 0, 61, 84
1, 357588, Note_on_c, 0, 55, 89
1, 357603, Note_off_c, 0, 55, 73
1, 357606, Note_off_c, 0, 61, 73
1, 357612, Note_off_c, 0, 65, 67
1, 357635, Note_on_c, 0, 63, 85
1, 357645, Note_on_c, 0, 69, 92
1, 357656, Note_on_c, 0, 57, 97
1, 357658, Note_on_c, 0, 65, 64
1, 357668, Note_on_c, 0, 29, 70
1, 357677, Note_on_c, 0, 31, 71
1, 357678, Note_on_c, 0, 67, 57
1, 357679, Note_off_c, 0, 67, 127
1, 357689, Note_off_c, 0, 65, 65
1, 357713, Note_off_c, 0, 29, 64
1, 357716, Control_c, 0, 64, 36
1, 357720, Note_off_c, 0, 31, 64
1, 357730, Control_c, 0, 64, 53
1, 357745, Note_off_c, 0, 63, 67
1, 357745, Control_c, 0, 64, 63
1, 357760, Control_c, 0, 64, 71
1, 357775, Control_c, 0, 64, 80
1, 357790, Control_c, 0, 64, 82
1, 357791, Note_on_c, 0, 46, 75
1, 357799, Note_off_c, 0, 69, 62
1, 357806, Note_off_c, 0, 57, 54
1, 357824, Note_off_c, 0, 46, 65
1, 357841, Note_on_c, 0, 49, 37
1, 357850, Note_on_c, 0, 53, 66
1, 357882, Note_off_c, 0, 53, 64
1, 357884, Note_off_c, 0, 49, 48
1, 357893, Control_c, 0, 64, 82
1, 357908, Control_c, 0, 64, 85
1, 357923, Control_c, 0, 64, 93
1, 357926, Note_on_c, 0, 46, 61
1, 357927, Note_on_c, 0, 65, 84
1, 357937, Control_c, 0, 64, 110
1, 357952, Control_c, 0, 64, 127
1, 357955, Note_on_c, 0, 53, 85
1, 357957, Note_off_c, 0, 46, 67
1, 357964, Note_on_c, 0, 61, 87
1, 357997, Note_off_c, 0, 65, 65
1, 357999, Note_off_c, 0, 53, 61
1, 358013, Note_on_c, 0, 46, 80
1, 358020, Note_off_c, 0, 61, 64
1, 358041, Control_c, 0, 64, 74
1, 358056, Control_c, 0, 64, 52
1, 358065, Note_off_c, 0, 46, 64
1, 358071, Control_c, 0, 64, 0
1, 358090, Note_on_c, 0, 34, 101
1, 358145, Control_c, 0, 64, 47
1, 358160, Control_c, 0, 64, 90
1, 358169, Note_off_c, 0, 34, 63
1, 358174, Control_c, 0, 64, 127
1, 358178, Note_on_c, 0, 46, 78
1, 358202, Note_off_c, 0, 46, 69
1, 358294, Note_on_c, 0, 84, 98
1, 358301, Note_on_c, 0, 76, 90
1, 358303, Note_on_c, 0, 52, 71
1, 358303, Note_on_c, 0, 72, 91
1, 358306, Note_on_c, 0, 80, 89
1, 358325, Note_off_c, 0, 72, 66
1, 358339, Note_off_c, 0, 76, 63
1, 358344, Note_off_c, 0, 84, 66
1, 358348, Note_on_c, 0, 56, 71
1, 358357, Note_on_c, 0, 64, 68
1, 358363, Note_off_c, 0, 52, 60
1, 358371, Note_off_c, 0, 80, 64
1, 358381, Poly_aftertouch_c, 0, 82, 127
1, 358427, Poly_aftertouch_c, 0, 82, 0
1, 358435, Note_off_c, 0, 64, 60
1, 358476, Note_off_c, 0, 56, 65
1, 358565, Note_on_c, 0, 46, 62
1, 358597, Note_off_c, 0, 46, 67
1, 358672, Control_c, 0, 64, 98
1, 358681, Note_on_c, 0, 46, 78
1, 358687, Control_c, 0, 64, 79
1, 358691, Note_on_c, 0, 34, 72
1, 358702, Control_c, 0, 64, 78
1, 358717, Control_c, 0, 64, 80
1, 358727, Note_off_c, 0, 34, 66
1, 358732, Control_c, 0, 64, 93
1, 358733, Note_off_c, 0, 46, 62
1, 358746, Control_c, 0, 64, 127
1, 358758, Note_on_c, 0, 56, 73
1, 358772, Note_on_c, 0, 52, 60
1, 358775, Note_on_c, 0, 48, 43
1, 358803, Note_off_c, 0, 52, 66
1, 358808, Note_off_c, 0, 48, 0
1, 358819, Note_off_c, 0, 56, 63
1, 358823, Note_on_c, 0, 36, 84
1, 358824, Note_on_c, 0, 48, 72
1, 358831, Note_on_c, 0, 47, 58
1, 358857, Note_off_c, 0, 48, 67
1, 358858, Note_off_c, 0, 47, 61
1, 358859, Note_off_c, 0, 36, 65
1, 358891, Note_on_c, 0, 49, 83
1, 358892, Note_on_c, 0, 56, 73
1, 358900, Note_on_c, 0, 52, 70
1, 358917, Note_off_c, 0, 49, 67
1, 358925, Note_off_c, 0, 52, 70
1, 358953, Note_on_c, 0, 52, 100
1, 358953, Note_off_c, 0, 56, 63
1, 358956, Note_on_c, 0, 40, 93
1, 358992, Note_off_c, 0, 52, 70
1, 359007, Note_off_c, 0, 40, 64
1, 359016, Note_on_c, 0, 56, 88
1, 359020, Note_on_c, 0, 60, 91
1, 359058, Control_c, 0, 64, 66
1, 359064, Note_off_c, 0, 60, 68
1, 359067, Note_off_c, 0, 56, 65
1, 359072, Control_c, 0, 64, 30
1, 359087, Control_c, 0, 64, 0
1, 359111, Note_on_c, 0, 46, 86
1, 359113, Note_on_c, 0, 34, 74
1, 359126, Note_on_c, 0, 44, 57
1, 359140, Note_off_c, 0, 46, 68
1, 359155, Control_c, 0, 64, 48
1, 359156, Note_off_c, 0, 34, 66
1, 359162, Note_off_c, 0, 44, 38
1, 359170, Control_c, 0, 64, 78
1, 359184, Control_c, 0, 64, 127
1, 359205, Note_on_c, 0, 70, 91
1, 359207, Note_on_c, 0, 64, 77
1, 359210, Note_on_c, 0, 59, 71
1, 359225, Note_off_c, 0, 64, 69
1, 359228, Note_off_c, 0, 59, 66
1, 359252, Note_on_c, 0, 72, 96
1, 359255, Note_on_c, 0, 60, 94
1, 359260, Note_on_c, 0, 68, 97
1, 359266, Note_on_c, 0, 52, 79
1, 359268, Note_on_c, 0, 58, 3
1, 359281, Note_on_c, 0, 56, 77
1, 359293, Note_off_c, 0, 60, 67
1, 359309, Note_off_c, 0, 56, 64
1, 359310, Note_off_c, 0, 72, 64
1, 359314, Note_off_c, 0, 70, 58
1, 359327, Note_off_c, 0, 52, 67
1, 359330, Note_off_c, 0, 68, 63
1, 359343, Note_off_c, 0, 58, 38
1, 359439, Note_on_c, 0, 67, 92
1, 359439, Note_on_c, 0, 73, 89
1, 359442, Note_on_c, 0, 61, 91
1, 359459, Note_off_c, 0, 73, 70
1, 359460, Note_off_c, 0, 67, 69
1, 359460, Note_off_c, 0, 61, 74
1, 359481, Control_c, 0, 64, 95
1, 359495, Control_c, 0, 64, 55
1, 359498, Note_on_c, 0, 63, 7
1, 359498, Note_on_c, 0, 75, 100
1, 359499, Note_on_c, 0, 70, 66
1, 359504, Note_on_c, 0, 73, 89
1, 359505, Note_on_c, 0, 67, 90
1, 359510, Control_c, 0, 64, 0
1, 359515, Note_on_c, 0, 32, 73
1, 359532, Note_on_c, 0, 44, 77
1, 359557, Note_off_c, 0, 32, 66
1, 359582, Note_off_c, 0, 44, 61
1, 359584, Control_c, 0, 64, 46
1, 359585, Note_off_c, 0, 75, 66
1, 359590, Note_off_c, 0, 73, 59
1, 359599, Control_c, 0, 64, 65
1, 359614, Control_c, 0, 64, 127
1, 359633, Note_off_c, 0, 63, 48
1, 359657, Note_on_c, 0, 46, 58
1, 359688, Note_off_c, 0, 67, 32
1, 359691, Note_off_c, 0, 46, 66
1, 359699, Note_on_c, 0, 49, 36
1, 359702, Note_on_c, 0, 52, 75
1, 359733, Note_off_c, 0, 70, 58
1, 359738, Note_off_c, 0, 49, 54
1, 359761, Note_off_c, 0, 52, 64
1, 359779, Note_on_c, 0, 46, 73
1, 359797, Note_on_c, 0, 70, 91
1, 359806, Note_on_c, 0, 66, 82
1, 359810, Note_on_c, 0, 58, 72
1, 359819, Note_off_c, 0, 46, 65
1, 359836, Note_off_c, 0, 58, 68
1, 359872, Note_on_c, 0, 46, 75
1, 359877, Note_off_c, 0, 66, 60
1, 359910, Note_off_c, 0, 70, 61
1, 359932, Control_c, 0, 64, 61
1, 359938, Note_off_c, 0, 46, 64
1, 359947, Control_c, 0, 64, 0
1, 359956, Note_on_c, 0, 34, 107
1, 359997, Note_on_c, 0, 33, 46
1, 359998, Note_off_c, 0, 33, 127
1, 360006, Control_c, 0, 64, 29
1, 360021, Control_c, 0, 64, 62
1, 360036, Control_c, 0, 64, 127
1, 360047, Note_on_c, 0, 46, 86
1, 360048, Note_off_c, 0, 34, 63
1, 360054, Note_on_c, 0, 44, 51
1, 360082, Note_off_c, 0, 44, 56
1, 360082, Note_off_c, 0, 46, 65
1, 360185, Note_on_c, 0, 84, 98
1, 360191, Note_on_c, 0, 72, 93
1, 360191, Note_on_c, 0, 76, 88
1, 360193, Note_on_c, 0, 80, 91
1, 360210, Note_off_c, 0, 72, 66
1, 360220, Note_on_c, 0, 52, 61
1, 360225, Note_off_c, 0, 84, 68
1, 360227, Note_off_c, 0, 76, 62
1, 360234, Note_on_c, 0, 62, 69
1, 360247, Note_on_c, 0, 54, 67
1, 360259, Note_off_c, 0, 80, 62
1, 360297, Note_off_c, 0, 62, 61
1, 360332, Note_off_c, 0, 54, 63
1, 360334, Note_off_c, 0, 52, 58
1, 360447, Note_on_c, 0, 46, 43
1, 360471, Note_off_c, 0, 46, 60
1, 360495, Control_c, 0, 64, 74
1, 360510, Control_c, 0, 64, 55
1, 360522, Note_on_c, 0, 34, 79
1, 360524, Note_on_c, 0, 46, 89
1, 360524, Control_c, 0, 64, 35
1, 360539, Control_c, 0, 64, 34
1, 360554, Control_c, 0, 64, 46
1, 360569, Note_off_c, 0, 34, 63
1, 360569, Control_c, 0, 64, 63
1, 360572, Note_off_c, 0, 46, 65
1, 360584, Control_c, 0, 64, 127
1, 360617, Note_on_c, 0, 59, 75
1, 360621, Note_on_c, 0, 68, 75
1, 360635, Note_on_c, 0, 64, 51
1, 360641, Note_off_c, 0, 59, 65
1, 360673, Note_off_c, 0, 64, 64
1, 360685, Note_off_c, 0, 68, 58
1, 360691, Note_on_c, 0, 60, 85
1, 360700, Note_on_c, 0, 48, 66
1, 360727, Note_off_c, 0, 48, 67
1, 360734, Note_off_c, 0, 60, 61
1, 360748, Note_on_c, 0, 61, 91
1, 360756, Note_on_c, 0, 68, 73
1, 360758, Note_on_c, 0, 64, 64
1, 360789, Note_off_c, 0, 61, 60
1, 360790, Note_off_c, 0, 64, 63
1, 360813, Note_on_c, 0, 64, 92
1, 360816, Note_off_c, 0, 68, 56
1, 360822, Note_on_c, 0, 52, 98
1, 360846, Note_off_c, 0, 64, 68
1, 360864, Note_off_c, 0, 52, 69
1, 360894, Note_on_c, 0, 68, 90
1, 360895, Note_on_c, 0, 72, 90
1, 360930, Note_on_c, 0, 70, 33
1, 360933, Control_c, 0, 64, 59
1, 360938, Note_off_c, 0, 72, 64
1, 360948, Control_c, 0, 64, 0
1, 360953, Note_off_c, 0, 70, 34
1, 360958, Note_off_c, 0, 68, 62
1, 360975, Note_on_c, 0, 44, 89
1, 360980, Note_on_c, 0, 34, 77
1, 360996, Note_on_c, 0, 46, 62
1, 361001, Note_off_c, 0, 44, 67
1, 361007, Control_c, 0, 64, 37
1, 361014, Note_off_c, 0, 34, 66
1, 361022, Control_c, 0, 64, 63
1, 361023, Note_off_c, 0, 46, 39
1, 361037, Control_c, 0, 64, 127
1, 361043, Note_on_c, 0, 70, 85
1, 361055, Note_on_c, 0, 64, 69
1, 361067, Note_on_c, 0, 59, 58
1, 361068, Note_off_c, 0, 59, 127
1, 361073, Note_off_c, 0, 64, 66
1, 361074, Note_on_c, 0, 65, 35
1, 361100, Note_on_c, 0, 72, 92
1, 361103, Note_on_c, 0, 60, 101
1, 361108, Note_on_c, 0, 68, 100
1, 361108, Note_off_c, 0, 65, 56
1, 361123, Note_on_c, 0, 52, 75
1, 361139, Note_on_c, 0, 56, 75
1, 361144, Note_off_c, 0, 60, 60
1, 361151, Note_off_c, 0, 70, 61
1, 361153, Note_off_c, 0, 72, 66
1, 361165, Note_off_c, 0, 56, 70
1, 361178, Note_off_c, 0, 52, 66
1, 361188, Note_off_c, 0, 68, 60
1, 361222, Poly_aftertouch_c, 0, 64, 0
1, 361282, Note_on_c, 0, 67, 94
1, 361284, Note_on_c, 0, 61, 97
1, 361284, Note_on_c, 0, 73, 89
1, 361302, Note_off_c, 0, 61, 71
1, 361310, Note_off_c, 0, 73, 66
1, 361317, Note_off_c, 0, 67, 61
1, 361347, Poly_aftertouch_c, 0, 73, 0
1, 361348, Note_on_c, 0, 63, 105
1, 361350, Note_on_c, 0, 70, 84
1, 361350, Note_on_c, 0, 75, 105
1, 361353, Note_on_c, 0, 73, 87
1, 361355, Note_on_c, 0, 67, 82
1, 361361, Note_on_c, 0, 30, 86
1, 361362, Control_c, 0, 64, 65
1, 361367, Note_on_c, 0, 28, 79
1, 361377, Note_on_c, 0, 29, 72
1, 361377, Control_c, 0, 64, 27
1, 361399, Control_c, 0, 64, 0
1, 361430, Control_c, 0, 67, 8
1, 361435, Note_off_c, 0, 29, 55
1, 361440, Note_off_c, 0, 28, 65
1, 361441, Note_on_c, 0, 39, 76
1, 361445, Control_c, 0, 64, 17
1, 361445, Control_c, 0, 67, 9
1, 361447, Note_off_c, 0, 73, 59
1, 361452, Note_off_c, 0, 75, 61
1, 361460, Control_c, 0, 64, 55
1, 361460, Control_c, 0, 67, 10
1, 361461, Note_off_c, 0, 30, 61
1, 361463, Note_off_c, 0, 39, 65
1, 361474, Control_c, 0, 64, 127
1, 361476, Note_off_c, 0, 63, 52
1, 361488, Note_on_c, 0, 41, 22
1, 361489, Control_c, 0, 67, 9
1, 361504, Control_c, 0, 67, 0
1, 361527, Note_off_c, 0, 67, 47
1, 361528, Note_off_c, 0, 41, 51
1, 361543, Note_on_c, 0, 46, 75
1, 361577, Note_on_c, 0, 48, 38
1, 361603, Note_off_c, 0, 70, 53
1, 361608, Note_off_c, 0, 46, 63
1, 361624, Note_off_c, 0, 48, 47
1, 361626, Note_on_c, 0, 53, 47
1, 361654, Note_off_c, 0, 53, 57
1, 361674, Note_on_c, 0, 70, 103
1, 361684, Note_on_c, 0, 66, 81
1, 361687, Note_on_c, 0, 52, 5
1, 361692, Note_on_c, 0, 58, 59
1, 361710, Note_off_c, 0, 66, 62
1, 361712, Note_off_c, 0, 58, 63
1, 361719, Note_off_c, 0, 52, 51
1, 361746, Note_off_c, 0, 70, 62
1, 361764, Note_on_c, 0, 46, 78
1, 361812, Note_off_c, 0, 46, 65
1, 361816, Control_c, 0, 64, 93
1, 361830, Control_c, 0, 64, 50
1, 361845, Control_c, 0, 64, 0
1, 361851, Note_on_c, 0, 33, 99
1, 361869, Note_on_c, 0, 34, 59
1, 361896, Note_on_c, 0, 93, 47
1, 361905, Note_off_c, 0, 34, 65
1, 361919, Control_c, 0, 64, 45
1, 361931, Note_off_c, 0, 33, 64
1, 361933, Note_off_c, 0, 93, 48
1, 361934, Control_c, 0, 64, 127
1, 361941, Note_on_c, 0, 45, 87
1, 361982, Note_off_c, 0, 45, 62
1, 362073, Note_on_c, 0, 93, 105
1, 362076, Note_on_c, 0, 81, 106
1, 362078, Note_on_c, 0, 84, 97
1, 362078, Note_on_c, 0, 88, 97
1, 362084, Note_on_c, 0, 52, 76
1, 362089, Note_on_c, 0, 90, 79
1, 362102, Note_off_c, 0, 81, 63
1, 362107, Note_off_c, 0, 93, 68
1, 362109, Note_off_c, 0, 90, 71
1, 362110, Note_on_c, 0, 57, 59
1, 362114, Note_off_c, 0, 84, 68
1, 362124, Note_on_c, 0, 60, 50
1, 362134, Note_off_c, 0, 88, 67
1, 362153, Note_off_c, 0, 52, 65
1, 362173, Note_on_c, 0, 64, 70
1, 362202, Note_off_c, 0, 64, 66
1, 362226, Note_off_c, 0, 60, 64
1, 362239, Note_on_c, 0, 52, 80
1, 362243, Note_off_c, 0, 57, 62
1, 362263, Note_off_c, 0, 52, 72
1, 362334, Note_on_c, 0, 45, 78
1, 362400, Note_off_c, 0, 45, 60
1, 362417, Note_on_c, 0, 33, 94
1, 362456, Note_on_c, 0, 34, 37
1, 362478, Note_on_c, 0, 76, 81
1, 362480, Note_off_c, 0, 33, 65
1, 362480, Note_on_c, 0, 72, 83
1, 362485, Note_on_c, 0, 64, 79
1, 362496, Note_off_c, 0, 34, 41
1, 362506, Note_off_c, 0, 76, 68
1, 362508, Note_off_c, 0, 64, 69
1, 362512, Note_off_c, 0, 72, 61
1, 362523, Note_on_c, 0, 45, 27
1, 362524, Note_off_c, 0, 45, 127
1, 362541, Note_on_c, 0, 78, 101
1, 362542, Note_on_c, 0, 75, 87
1, 362543, Note_on_c, 0, 66, 98
1, 362554, Poly_aftertouch_c, 0, 72, 0
1, 362557, Poly_aftertouch_c, 0, 45, 0
1, 362559, Note_on_c, 0, 72, 46
1, 362561, Note_off_c, 0, 66, 69
1, 362563, Note_off_c, 0, 78, 65
1, 362563, Poly_aftertouch_c, 0, 47, 127
1, 362573, Note_on_c, 0, 77, 35
1, 362578, Note_off_c, 0, 72, 65
1, 362584, Note_on_c, 0, 52, 75
1, 362588, Note_off_c, 0, 75, 65
1, 362605, Note_off_c, 0, 77, 56
1, 362606, Poly_aftertouch_c, 0, 47, 0
1, 362638, Note_on_c, 0, 60, 76
1, 362668, Note_off_c, 0, 52, 0
1, 362671, Note_off_c, 0, 60, 60
1, 362689, Note_on_c, 0, 52, 44
1, 362718, Note_off_c, 0, 52, 68
1, 362791, Note_on_c, 0, 45, 70
1, 362861, Note_off_c, 0, 45, 60
1, 362880, Note_on_c, 0, 33, 87
1, 362952, Note_off_c, 0, 33, 63
1, 362957, Note_on_c, 0, 64, 70
1, 362965, Note_on_c, 0, 60, 77
1, 362970, Note_on_c, 0, 52, 71
1, 362984, Note_off_c, 0, 64, 65
1, 362986, Note_off_c, 0, 52, 69
1, 362999, Note_on_c, 0, 47, 43
1, 363003, Note_on_c, 0, 45, 18
1, 363026, Note_off_c, 0, 45, 63
1, 363031, Note_on_c, 0, 63, 86
1, 363035, Note_off_c, 0, 47, 54
1, 363037, Note_on_c, 0, 66, 76
1, 363048, Note_off_c, 0, 60, 62
1, 363052, Note_off_c, 0, 66, 68
1, 363061, Note_on_c, 0, 67, 54
1, 363062, Note_on_c, 0, 52, 65
1, 363070, Note_off_c, 0, 63, 68
1, 363084, Note_off_c, 0, 67, 63
1, 363109, Poly_aftertouch_c, 0, 65, 127
1, 363140, Note_on_c, 0, 60, 68
1, 363140, Note_off_c, 0, 52, 61
1, 363142, Poly_aftertouch_c, 0, 65, 0
1, 363162, Note_off_c, 0, 60, 69
1, 363173, Poly_aftertouch_c, 0, 50, 0
1, 363193, Note_on_c, 0, 52, 47
1, 363221, Note_off_c, 0, 52, 67
1, 363306, Note_on_c, 0, 53, 65
1, 363338, Note_off_c, 0, 53, 66
1, 363387, Control_c, 0, 64, 77
1, 363402, Control_c, 0, 64, 55
1, 363417, Control_c, 0, 64, 12
1, 363425, Note_on_c, 0, 40, 66
1, 363432, Control_c, 0, 64, 0
1, 363437, Note_on_c, 0, 28, 63
1, 363447, Control_c, 0, 67, 8
1, 363461, Control_c, 0, 64, 15
1, 363461, Control_c, 0, 67, 9
1, 363476, Control_c, 0, 64, 42
1, 363476, Control_c, 0, 67, 11
1, 363491, Control_c, 0, 64, 60
1, 363491, Control_c, 0, 67, 13
1, 363497, Note_off_c, 0, 40, 63
1, 363506, Control_c, 0, 64, 88
1, 363506, Control_c, 0, 67, 14
1, 363507, Note_on_c, 0, 53, 72
1, 363508, Note_on_c, 0, 45, 57
1, 363508, Note_off_c, 0, 28, 64
1, 363514, Note_on_c, 0, 41, 58
1, 363516, Note_on_c, 0, 48, 57
1, 363521, Control_c, 0, 64, 127
1, 363521, Control_c, 0, 67, 16
1, 363536, Control_c, 0, 67, 17
1, 363541, Note_off_c, 0, 45, 62
1, 363545, Note_off_c, 0, 48, 65
1, 363550, Note_off_c, 0, 41, 63
1, 363550, Control_c, 0, 67, 19
1, 363558, Note_off_c, 0, 53, 54
1, 363565, Control_c, 0, 64, 105
1, 363565, Control_c, 0, 67, 20
1, 363580, Control_c, 0, 64, 95
1, 363580, Control_c, 0, 67, 22
1, 363592, Note_on_c, 0, 42, 73
1, 363595, Note_on_c, 0, 30, 67
1, 363595, Control_c, 0, 64, 95
1, 363595, Control_c, 0, 67, 24
1, 363610, Control_c, 0, 67, 25
1, 363624, Control_c, 0, 67, 26
1, 363626, Note_off_c, 0, 42, 63
1, 363633, Note_off_c, 0, 30, 62
1, 363647, Control_c, 0, 67, 27
1, 363662, Control_c, 0, 67, 29
1, 363670, Note_on_c, 0, 43, 65
1, 363670, Note_on_c, 0, 55, 73
1, 363675, Control_c, 0, 67, 30
1, 363690, Control_c, 0, 64, 95
1, 363699, Note_on_c, 0, 52, 26
1, 363701, Note_off_c, 0, 43, 65
1, 363705, Control_c, 0, 64, 96
1, 363720, Note_off_c, 0, 55, 65
1, 363720, Control_c, 0, 64, 97
1, 363735, Note_off_c, 0, 52, 48
1, 363735, Control_c, 0, 64, 101
1, 363744, Note_on_c, 0, 32, 64
1, 363747, Note_on_c, 0, 44, 82
1, 363750, Control_c, 0, 64, 114
1, 363750, Control_c, 0, 67, 29
1, 363752, Note_on_c, 0, 40, 73
1, 363765, Control_c, 0, 64, 127
1, 363765, Control_c, 0, 67, 28
1, 363776, Note_off_c, 0, 32, 65
1, 363779, Control_c, 0, 67, 27
1, 363785, Note_off_c, 0, 44, 58
1, 363790, Note_off_c, 0, 40, 65
1, 363794, Control_c, 0, 67, 26
1, 363809, Control_c, 0, 67, 25
1, 363823, Note_on_c, 0, 52, 70
1, 363823, Note_on_c, 0, 60, 69
1, 363824, Note_on_c, 0, 64, 79
1, 363824, Control_c, 0, 67, 25
1, 363839, Control_c, 0, 67, 24
1, 363854, Control_c, 0, 64, 95
1, 363854, Control_c, 0, 67, 22
1, 363855, Note_off_c, 0, 52, 64
1, 363868, Control_c, 0, 64, 67
1, 363868, Control_c, 0, 67, 21
1, 363875, Note_off_c, 0, 64, 60
1, 363883, Control_c, 0, 64, 55
1, 363883, Control_c, 0, 67, 19
1, 363891, Note_off_c, 0, 60, 63
1, 363895, Note_on_c, 0, 52, 94
1, 363897, Note_on_c, 0, 40, 91
1, 363898, Control_c, 0, 64, 42
1, 363898, Control_c, 0, 67, 17
1, 363912, Poly_aftertouch_c, 0, 61, 0
1, 363913, Control_c, 0, 64, 42
1, 363913, Control_c, 0, 67, 16
1, 363929, Control_c, 0, 64, 52
1, 363929, Control_c, 0, 67, 16
1, 363942, Note_off_c, 0, 40, 67
1, 363943, Control_c, 0, 64, 64
1, 363949, Note_off_c, 0, 52, 66
1, 363958, Control_c, 0, 64, 113
1, 363958, Control_c, 0, 67, 16
1, 363968, Note_on_c, 0, 65, 88
1, 363970, Note_on_c, 0, 53, 86
1, 363970, Note_on_c, 0, 57, 80
1, 363973, Control_c, 0, 64, 127
1, 363988, Note_on_c, 0, 62, 65
1, 363997, Note_off_c, 0, 53, 66
1, 364003, Note_off_c, 0, 57, 61
1, 364017, Control_c, 0, 67, 15
1, 364022, Note_off_c, 0, 62, 64
1, 364022, Note_off_c, 0, 65, 65
1, 364039, Note_on_c, 0, 54, 97
1, 364042, Note_on_c, 0, 44, 86
1, 364047, Control_c, 0, 67, 15
1, 364085, Note_off_c, 0, 44, 57
1, 364087, Note_off_c, 0, 54, 65
1, 364106, Control_c, 0, 67, 13
1, 364110, Note_on_c, 0, 55, 92
1, 364110, Note_on_c, 0, 64, 89
1, 364110, Note_on_c, 0, 67, 93
1, 364121, Control_c, 0, 67, 11
1, 364136, Control_c, 0, 67, 9
1, 364143, Note_off_c, 0, 55, 63
1, 364151, Control_c, 0, 67, 0
1, 364152, Note_off_c, 0, 64, 64
1, 364165, Note_off_c, 0, 67, 64
1, 364176, Note_on_c, 0, 56, 102
1, 364179, Note_on_c, 0, 52, 90
1, 364182, Note_on_c, 0, 44, 87
1, 364209, Note_on_c, 0, 54, 42
1, 364212, Note_off_c, 0, 56, 70
1, 364219, Note_off_c, 0, 52, 66
1, 364226, Note_off_c, 0, 54, 68
1, 364236, Note_off_c, 0, 44, 64
1, 364258, Note_on_c, 0, 76, 94
1, 364263, Note_on_c, 0, 64, 95
1, 364263, Note_on_c, 0, 72, 89
1, 364280, Note_on_c, 0, 73, 56
1, 364291, Note_off_c, 0, 76, 72
1, 364294, Note_off_c, 0, 64, 62
1, 364298, Note_on_c, 0, 74, 34
1, 364301, Note_off_c, 0, 73, 63
1, 364316, Note_off_c, 0, 72, 63
1, 364328, Control_c, 0, 64, 110
1, 364333, Note_off_c, 0, 74, 59
1, 364343, Control_c, 0, 64, 75
1, 364358, Control_c, 0, 64, 65
1, 364373, Control_c, 0, 64, 59
1, 364395, Control_c, 0, 64, 51
1, 364410, Control_c, 0, 64, 41
1, 364424, Control_c, 0, 64, 34
1, 364439, Control_c, 0, 64, 22
1, 364454, Control_c, 0, 64, 0
1, 364456, Note_on_c, 0, 33, 82
1, 364469, Control_c, 0, 67, 11
1, 364484, Control_c, 0, 67, 15
1, 364498, Control_c, 0, 67, 19
1, 364513, Control_c, 0, 67, 24
1, 364528, Control_c, 0, 67, 33
1, 364543, Control_c, 0, 67, 45
1, 364557, Control_c, 0, 67, 63
1, 364560, Note_on_c, 0, 64, 75
1, 364563, Note_on_c, 0, 52, 75
1, 364564, Note_on_c, 0, 60, 66
1, 364572, Control_c, 0, 64, 31
1, 364572, Control_c, 0, 67, 87
1, 364584, Note_off_c, 0, 52, 67
1, 364585, Note_off_c, 0, 64, 67
1, 364587, Control_c, 0, 64, 48
1, 364587, Control_c, 0, 67, 111
1, 364593, Note_off_c, 0, 60, 67
1, 364602, Control_c, 0, 64, 63
1, 364602, Control_c, 0, 67, 127
1, 364608, Note_off_c, 0, 33, 64
1, 364617, Control_c, 0, 64, 76
1, 364622, Note_on_c, 0, 41, 61
1, 364632, Control_c, 0, 64, 95
1, 364644, Note_on_c, 0, 63, 78
1, 364644, Note_on_c, 0, 66, 87
1, 364647, Control_c, 0, 64, 98
1, 364655, Note_on_c, 0, 54, 70
1, 364662, Control_c, 0, 64, 98
1, 364677, Control_c, 0, 64, 95
1, 364710, Note_on_c, 0, 42, 74
1, 364715, Note_off_c, 0, 41, 60
1, 364721, Control_c, 0, 64, 97
1, 364736, Control_c, 0, 64, 97
1, 364781, Note_on_c, 0, 43, 62
1, 364796, Note_off_c, 0, 66, 58
1, 364805, Note_off_c, 0, 54, 41
1, 364807, Note_off_c, 0, 42, 55
1, 364840, Control_c, 0, 64, 96
1, 364855, Control_c, 0, 64, 96
1, 364865, Note_on_c, 0, 50, 56
1, 364870, Control_c, 0, 64, 95
1, 364870, Control_c, 0, 67, 124
1, 364882, Note_off_c, 0, 43, 59
1, 364885, Control_c, 0, 67, 111
1, 364888, Note_off_c, 0, 50, 60
1, 364900, Control_c, 0, 67, 98
1, 364914, Control_c, 0, 67, 87
1, 364929, Control_c, 0, 67, 72
1, 364932, Note_off_c, 0, 63, 61
1, 364944, Control_c, 0, 67, 59
1, 364948, Note_on_c, 0, 56, 72
1, 364948, Note_on_c, 0, 68, 80
1, 364948, Note_on_c, 0, 61, 74
1, 364958, Control_c, 0, 67, 47
1, 364973, Control_c, 0, 64, 92
1, 364973, Control_c, 0, 67, 36
1, 364988, Control_c, 0, 64, 77
1, 364988, Control_c, 0, 67, 28
1, 364990, Note_off_c, 0, 56, 64
1, 365003, Control_c, 0, 64, 62
1, 365003, Control_c, 0, 67, 24
1, 365004, Note_off_c, 0, 61, 64
1, 365011, Note_off_c, 0, 68, 61
1, 365018, Control_c, 0, 64, 44
1, 365018, Control_c, 0, 67, 23
1, 365031, Note_on_c, 0, 32, 91
1, 365032, Control_c, 0, 64, 0
1, 365032, Control_c, 0, 67, 22
1, 365077, Control_c, 0, 67, 23
1, 365092, Control_c, 0, 64, 14
1, 365106, Control_c, 0, 64, 43
1, 365106, Control_c, 0, 67, 23
1, 365112, Note_on_c, 0, 57, 82
1, 365114, Note_on_c, 0, 63, 86
1, 365115, Note_on_c, 0, 69, 88
1, 365121, Control_c, 0, 64, 60
1, 365144, Note_off_c, 0, 57, 64
1, 365144, Control_c, 0, 64, 101
1, 365145, Note_off_c, 0, 63, 68
1, 365151, Note_off_c, 0, 69, 64
1, 365159, Control_c, 0, 64, 127
1, 365159, Control_c, 0, 67, 23
1, 365174, Control_c, 0, 67, 22
1, 365175, Note_on_c, 0, 42, 74
1, 365189, Control_c, 0, 67, 22
1, 365198, Note_on_c, 0, 66, 98
1, 365201, Note_off_c, 0, 32, 61
1, 365202, Note_on_c, 0, 59, 88
1, 365204, Note_on_c, 0, 71, 81
1, 365204, Control_c, 0, 67, 21
1, 365219, Control_c, 0, 67, 20
1, 365222, Note_off_c, 0, 42, 61
1, 365222, Note_on_c, 0, 63, 57
1, 365234, Control_c, 0, 67, 20
1, 365242, Note_off_c, 0, 63, 67
1, 365248, Control_c, 0, 67, 18
1, 365252, Note_on_c, 0, 43, 59
1, 365263, Note_off_c, 0, 59, 56
1, 365263, Control_c, 0, 67, 15
1, 365278, Control_c, 0, 67, 8
1, 365279, Note_off_c, 0, 43, 61
1, 365293, Control_c, 0, 67, 0
1, 365296, Note_off_c, 0, 71, 67
1, 365303, Note_on_c, 0, 44, 81
1, 365373, Note_on_c, 0, 45, 66
1, 365387, Note_off_c, 0, 44, 58
1, 365418, Note_off_c, 0, 66, 61
1, 365429, Note_on_c, 0, 54, 75
1, 365433, Note_on_c, 0, 46, 20
1, 365451, Note_off_c, 0, 54, 67
1, 365455, Note_off_c, 0, 45, 64
1, 365478, Note_off_c, 0, 46, 54
1, 365479, Note_on_c, 0, 72, 95
1, 365482, Note_on_c, 0, 60, 94
1, 365485, Note_on_c, 0, 69, 81
1, 365520, Note_off_c, 0, 60, 68
1, 365531, Control_c, 0, 64, 69
1, 365534, Note_off_c, 0, 69, 60
1, 365535, Note_off_c, 0, 72, 62
1, 365545, Control_c, 0, 64, 46
1, 365560, Control_c, 0, 64, 0
1, 365572, Note_on_c, 0, 30, 103
1, 365601, Note_on_c, 0, 29, 60
1, 365604, Control_c, 0, 64, 24
1, 365619, Control_c, 0, 64, 58
1, 365634, Control_c, 0, 64, 127
1, 365643, Note_on_c, 0, 66, 98
1, 365643, Note_off_c, 0, 29, 46
1, 365648, Note_on_c, 0, 61, 84
1, 365666, Note_off_c, 0, 61, 72
1, 365674, Note_off_c, 0, 30, 61
1, 365677, Note_off_c, 0, 66, 64
1, 365680, Note_on_c, 0, 73, 41
1, 365684, Note_on_c, 0, 42, 81
1, 365707, Note_off_c, 0, 42, 66
1, 365719, Note_on_c, 0, 63, 98
1, 365721, Note_on_c, 0, 75, 79
1, 365723, Note_on_c, 0, 68, 71
1, 365730, Note_on_c, 0, 69, 92
1, 365742, Note_off_c, 0, 73, 0
1, 365742, Note_on_c, 0, 73, 47
1, 365772, Note_on_c, 0, 47, 84
1, 365778, Note_off_c, 0, 73, 52
1, 365780, Note_on_c, 0, 74, 10
1, 365807, Note_off_c, 0, 69, 66
1, 365819, Note_off_c, 0, 75, 64
1, 365824, Note_off_c, 0, 63, 59
1, 365827, Note_off_c, 0, 74, 56
1, 365830, Note_off_c, 0, 68, 44
1, 365842, Poly_aftertouch_c, 0, 66, 0
1, 365845, Note_on_c, 0, 48, 75
1, 365909, Note_on_c, 0, 49, 87
1, 365917, Note_off_c, 0, 47, 64
1, 365955, Note_on_c, 0, 57, 72
1, 365957, Note_off_c, 0, 48, 45
1, 365961, Note_on_c, 0, 55, 54
1, 365974, Note_off_c, 0, 57, 66
1, 365985, Note_off_c, 0, 55, 61
1, 365988, Note_off_c, 0, 49, 66
1, 366038, Note_on_c, 0, 76, 102
1, 366040, Note_on_c, 0, 64, 98
1, 366045, Note_on_c, 0, 73, 94
1, 366093, Note_off_c, 0, 64, 60
1, 366101, Control_c, 0, 64, 65
1, 366107, Note_off_c, 0, 76, 65
1, 366115, Control_c, 0, 64, 32
1, 366129, Note_on_c, 0, 29, 93
1, 366130, Control_c, 0, 64, 0
1, 366134, Note_off_c, 0, 73, 62
1, 366135, Note_on_c, 0, 41, 107
1, 366146, Note_on_c, 0, 32, 76
1, 366174, Note_off_c, 0, 32, 55
1, 366175, Control_c, 0, 64, 24
1, 366183, Note_off_c, 0, 29, 61
1, 366189, Control_c, 0, 64, 63
1, 366204, Control_c, 0, 64, 127
1, 366209, Note_on_c, 0, 65, 97
1, 366211, Note_on_c, 0, 72, 90
1, 366212, Note_on_c, 0, 77, 96
1, 366231, Note_off_c, 0, 72, 69
1, 366240, Note_off_c, 0, 77, 68
1, 366243, Note_off_c, 0, 65, 68
1, 366246, Note_off_c, 0, 41, 0
1, 366268, Note_on_c, 0, 41, 30
1, 366290, Note_on_c, 0, 79, 100
1, 366292, Note_on_c, 0, 67, 101
1, 366293, Note_on_c, 0, 75, 100
1, 366298, Note_on_c, 0, 73, 87
1, 366308, Note_on_c, 0, 42, 42
1, 366324, Note_off_c, 0, 73, 63
1, 366330, Note_off_c, 0, 41, 59
1, 366348, Note_off_c, 0, 42, 46
1, 366356, Note_on_c, 0, 44, 80
1, 366361, Note_off_c, 0, 75, 63
1, 366361, Note_off_c, 0, 79, 60
1, 366382, Note_off_c, 0, 67, 53
1, 366419, Note_on_c, 0, 45, 80
1, 366474, Note_off_c, 0, 44, 49
1, 366483, Note_on_c, 0, 51, 95
1, 366526, Note_off_c, 0, 51, 64
1, 366529, Note_off_c, 0, 45, 64
1, 366595, Note_on_c, 0, 81, 106
1, 366598, Note_on_c, 0, 69, 105
1, 366601, Note_on_c, 0, 78, 95
1, 366642, Control_c, 0, 64, 62
1, 366647, Note_off_c, 0, 69, 62
1, 366657, Control_c, 0, 64, 0
1, 366658, Note_off_c, 0, 81, 61
1, 366693, Note_on_c, 0, 39, 116
1, 366702, Note_on_c, 0, 28, 79
1, 366703, Note_on_c, 0, 30, 86
1, 366710, Note_on_c, 0, 40, 85
1, 366716, Note_on_c, 0, 41, 74
1, 366716, Control_c, 0, 64, 45
1, 366720, Note_off_c, 0, 78, 64
1, 366725, Note_off_c, 0, 39, 68
1, 366730, Note_off_c, 0, 40, 67
1, 366731, Control_c, 0, 64, 127
1, 366735, Note_off_c, 0, 28, 66
1, 366738, Note_off_c, 0, 41, 64
1, 366738, Note_off_c, 0, 30, 62
1, 366767, Note_on_c, 0, 82, 104
1, 366769, Note_on_c, 0, 70, 97
1, 366772, Note_on_c, 0, 75, 98
1, 366799, Note_off_c, 0, 70, 66
1, 366802, Note_off_c, 0, 82, 68
1, 366806, Note_off_c, 0, 75, 59
1, 366840, Note_on_c, 0, 45, 92
1, 366853, Note_on_c, 0, 72, 104
1, 366854, Note_on_c, 0, 84, 100
1, 366857, Note_on_c, 0, 79, 98
1, 366868, Note_on_c, 0, 80, 66
1, 366886, Note_off_c, 0, 80, 39
1, 366900, Note_on_c, 0, 46, 84
1, 366910, Note_off_c, 0, 45, 63
1, 366915, Note_off_c, 0, 72, 60
1, 366935, Note_off_c, 0, 79, 65
1, 366943, Note_off_c, 0, 84, 60
1, 366953, Note_off_c, 0, 46, 63
1, 366954, Note_on_c, 0, 48, 71
1, 366981, Note_off_c, 0, 48, 67
1, 367018, Note_on_c, 0, 48, 90
1, 367053, Note_on_c, 0, 82, 45
1, 367082, Note_off_c, 0, 82, 57
1, 367083, Note_on_c, 0, 55, 89
1, 367121, Note_off_c, 0, 55, 65
1, 367123, Note_off_c, 0, 48, 68
1, 367185, Note_on_c, 0, 86, 102
1, 367189, Note_on_c, 0, 72, 95
1, 367189, Note_on_c, 0, 82, 92
1, 367191, Note_on_c, 0, 74, 93
1, 367221, Control_c, 0, 64, 78
1, 367235, Control_c, 0, 64, 47
1, 367237, Note_off_c, 0, 72, 58
1, 367245, Note_off_c, 0, 74, 61
1, 367250, Control_c, 0, 64, 0
1, 367253, Note_off_c, 0, 86, 64
1, 367282, Note_on_c, 0, 38, 116
1, 367284, Note_on_c, 0, 26, 99
1, 367308, Note_on_c, 0, 27, 58
1, 367309, Note_off_c, 0, 27, 127
1, 367309, Note_off_c, 0, 82, 63
1, 367309, Control_c, 0, 64, 14
1, 367313, Note_off_c, 0, 26, 65
1, 367323, Note_off_c, 0, 38, 64
1, 367324, Control_c, 0, 64, 60
1, 367339, Control_c, 0, 64, 127
1, 367354, Note_on_c, 0, 75, 102
1, 367354, Note_on_c, 0, 87, 102
1, 367356, Note_on_c, 0, 81, 97
1, 367402, Note_on_c, 0, 88, 32
1, 367402, Note_off_c, 0, 81, 64
1, 367404, Note_off_c, 0, 87, 64
1, 367404, Note_off_c, 0, 75, 62
1, 367433, Note_off_c, 0, 88, 59
1, 367446, Note_on_c, 0, 41, 87
1, 367452, Note_on_c, 0, 77, 103
1, 367453, Note_on_c, 0, 89, 105
1, 367457, Note_on_c, 0, 84, 95
1, 367461, Note_on_c, 0, 81, 81
1, 367478, Note_off_c, 0, 81, 70
1, 367492, Note_on_c, 0, 54, 84
1, 367502, Note_off_c, 0, 41, 63
1, 367519, Note_off_c, 0, 77, 60
1, 367531, Note_off_c, 0, 89, 63
1, 367550, Note_off_c, 0, 84, 61
1, 367556, Note_off_c, 0, 54, 64
1, 367571, Note_on_c, 0, 43, 96
1, 367607, Note_on_c, 0, 44, 54
1, 367634, Note_off_c, 0, 44, 53
1, 367652, Note_off_c, 0, 43, 44
1, 367652, Note_on_c, 0, 52, 82
1, 367664, Note_on_c, 0, 57, 89
1, 367692, Note_on_c, 0, 45, 68
1, 367720, Note_off_c, 0, 57, 63
1, 367730, Note_off_c, 0, 52, 63
1, 367747, Note_off_c, 0, 45, 64
1, 367785, Note_on_c, 0, 78, 109
1, 367786, Note_on_c, 0, 90, 111
1, 367787, Note_on_c, 0, 87, 95
1, 367805, Note_on_c, 0, 84, 56
1, 367825, Note_off_c, 0, 84, 64
1, 367848, Control_c, 0, 64, 89
1, 367863, Control_c, 0, 64, 52
1, 367878, Control_c, 0, 64, 0
1, 367896, Note_off_c, 0, 90, 63
1, 367898, Note_off_c, 0, 78, 59
1, 367902, Note_on_c, 0, 36, 111
1, 367908, Note_on_c, 0, 24, 100
1, 367925, Note_off_c, 0, 87, 59
1, 367934, Note_off_c, 0, 24, 69
1, 367938, Control_c, 0, 64, 12
1, 367941, Note_off_c, 0, 36, 66
1, 367953, Control_c, 0, 64, 54
1, 367968, Control_c, 0, 64, 100
1, 367983, Control_c, 0, 64, 127
1, 368019, Note_on_c, 0, 84, 91
1, 368021, Note_on_c, 0, 79, 99
1, 368022, Note_on_c, 0, 91, 104
1, 368066, Note_on_c, 0, 87, 13
1, 368067, Note_off_c, 0, 87, 127
1, 368077, Note_on_c, 0, 42, 93
1, 368086, Note_off_c, 0, 79, 58
1, 368090, Note_off_c, 0, 84, 61
1, 368094, Note_off_c, 0, 91, 57
1, 368170, Note_on_c, 0, 81, 117
1, 368171, Note_on_c, 0, 93, 105
1, 368172, Note_on_c, 0, 88, 93
1, 368176, Poly_aftertouch_c, 0, 44, 127
1, 368179, Note_off_c, 0, 42, 60
1, 368181, Note_on_c, 0, 57, 94
1, 368182, Note_on_c, 0, 55, 87
1, 368182, Note_on_c, 0, 90, 83
1, 368183, Note_on_c, 0, 85, 78
1, 368194, Note_on_c, 0, 89, 43
1, 368195, Note_off_c, 0, 89, 127
1, 368197, Note_off_c, 0, 90, 71
1, 368206, Note_off_c, 0, 85, 67
1, 368227, Poly_aftertouch_c, 0, 44, 0
1, 368227, Note_off_c, 0, 57, 49
1, 368232, Note_off_c, 0, 55, 55
1, 368250, Note_off_c, 0, 81, 57
1, 368250, Note_off_c, 0, 93, 62
1, 368262, Note_off_c, 0, 88, 63
1, 368264, Note_on_c, 0, 44, 85
1, 368275, Note_on_c, 0, 46, 74
1, 368326, Note_off_c, 0, 44, 62
1, 368342, Note_on_c, 0, 59, 87
1, 368343, Note_on_c, 0, 57, 78
1, 368348, Note_on_c, 0, 49, 20
1, 368361, Note_off_c, 0, 46, 65
1, 368385, Note_off_c, 0, 49, 56
1, 368403, Note_off_c, 0, 57, 62
1, 368403, Note_off_c, 0, 59, 59
1, 368424, Note_on_c, 0, 48, 91
1, 368502, Note_on_c, 0, 49, 3
1, 368507, Note_on_c, 0, 52, 96
1, 368508, Note_on_c, 0, 60, 112
1, 368513, Note_on_c, 0, 94, 112
1, 368516, Note_on_c, 0, 82, 107
1, 368518, Note_on_c, 0, 91, 97
1, 368533, Note_on_c, 0, 59, 46
1, 368534, Note_off_c, 0, 59, 127
1, 368535, Note_off_c, 0, 48, 67
1, 368540, Note_on_c, 0, 89, 65
1, 368540, Note_off_c, 0, 49, 53
1, 368543, Note_off_c, 0, 60, 70
1, 368549, Note_on_c, 0, 88, 40
1, 368552, Note_on_c, 0, 51, 37
1, 368556, Note_off_c, 0, 52, 71
1, 368562, Note_off_c, 0, 89, 63
1, 368575, Note_off_c, 0, 82, 72
1, 368576, Note_off_c, 0, 88, 61
1, 368579, Note_on_c, 0, 92, 3
1, 368580, Note_off_c, 0, 92, 127
1, 368584, Note_off_c, 0, 51, 52
1, 368623, Note_off_c, 0, 91, 58
1, 368652, Note_off_c, 0, 94, 62
1, 368687, Control_c, 0, 64, 64
1, 368703, Control_c, 0, 64, 16
1, 368718, Control_c, 0, 64, 0
1, 368833, Poly_aftertouch_c, 0, 90, 0
1, 368875, Note_on_c, 0, 23, 101
1, 368875, Note_on_c, 0, 35, 115
1, 368888, Control_c, 0, 64, 34
1, 368903, Control_c, 0, 64, 127
1, 368912, Note_off_c, 0, 23, 67
1, 368914, Note_off_c, 0, 35, 69
1, 369246, Note_on_c, 0, 102, 108
1, 369247, Note_on_c, 0, 90, 113
1, 369248, Note_on_c, 0, 99, 108
1, 369249, Note_on_c, 0, 66, 121
1, 369253, Note_on_c, 0, 63, 102
1, 369253, Note_on_c, 0, 95, 100
1, 369255, Note_on_c, 0, 59, 86
1, 369257, Note_on_c, 0, 54, 106
1, 369276, Note_on_c, 0, 56, 69
1, 369299, Note_off_c, 0, 56, 66
1, 369312, Note_off_c, 0, 66, 58
1, 369317, Note_off_c, 0, 54, 65
1, 369321, Note_off_c, 0, 102, 66
1, 369324, Note_off_c, 0, 63, 64
1, 369330, Note_off_c, 0, 90, 63
1, 369336, Note_off_c, 0, 59, 62
1, 369345, Note_off_c, 0, 95, 62
1, 369360, Note_off_c, 0, 99, 0
1, 369370, Note_on_c, 0, 95, 84
1, 369374, Note_on_c, 0, 89, 115
1, 369374, Note_on_c, 0, 91, 108
1, 369374, Note_on_c, 0, 101, 100
1, 369374, Note_on_c, 0, 103, 114
1, 369377, Note_on_c, 0, 53, 87
1, 369381, Note_on_c, 0, 59, 82
1, 369383, Note_on_c, 0, 63, 104
1, 369384, Note_on_c, 0, 65, 115
1, 369386, Note_on_c, 0, 67, 106
1, 369387, Note_on_c, 0, 55, 86
1, 369397, Poly_aftertouch_c, 0, 99, 127
1, 369430, Note_off_c, 0, 67, 65
1, 369431, Note_off_c, 0, 65, 66
1, 369445, Note_off_c, 0, 63, 69
1, 369449, Note_off_c, 0, 53, 67
1, 369458, Note_off_c, 0, 55, 66
1, 369460, Note_off_c, 0, 59, 66
1, 369467, Poly_aftertouch_c, 0, 99, 0
1, 369468, Note_off_c, 0, 103, 66
1, 369485, Note_off_c, 0, 101, 66
1, 369490, Note_off_c, 0, 91, 48
1, 369498, Note_off_c, 0, 95, 67
1, 369522, Note_off_c, 0, 89, 62
1, 369752, Note_on_c, 0, 70, 21
1, 369775, Note_on_c, 0, 78, 85
1, 369783, Note_on_c, 0, 75, 73
1, 369843, Note_on_c, 0, 71, 53
1, 369864, Note_off_c, 0, 70, 34
1, 369891, Note_on_c, 0, 66, 79
1, 369895, Note_off_c, 0, 78, 62
1, 369909, Note_off_c, 0, 71, 64
1, 369911, Note_off_c, 0, 75, 59
1, 369935, Note_off_c, 0, 66, 63
1, 370001, Note_on_c, 0, 35, 78
1, 370013, Note_on_c, 0, 23, 65
1, 370041, Note_off_c, 0, 23, 61
1, 370042, Note_off_c, 0, 35, 63
1, 370097, Note_on_c, 0, 42, 75
1, 370099, Note_on_c, 0, 46, 68
1, 370099, Note_on_c, 0, 54, 67
1, 370125, Note_off_c, 0, 42, 64
1, 370130, Note_off_c, 0, 46, 65
1, 370136, Note_off_c, 0, 54, 60
1, 370170, Note_on_c, 0, 43, 77
1, 370176, Note_on_c, 0, 39, 69
1, 370200, Note_on_c, 0, 31, 41
1, 370204, Note_off_c, 0, 43, 63
1, 370212, Note_off_c, 0, 39, 63
1, 370216, Note_on_c, 0, 29, 6
1, 370237, Note_on_c, 0, 44, 62
1, 370239, Note_off_c, 0, 31, 44
1, 370242, Note_on_c, 0, 51, 71
1, 370245, Note_on_c, 0, 56, 73
1, 370266, Note_off_c, 0, 29, 36
1, 370271, Note_off_c, 0, 44, 64
1, 370274, Note_off_c, 0, 51, 66
1, 370289, Note_off_c, 0, 56, 64
1, 370308, Note_on_c, 0, 47, 86
1, 370313, Note_on_c, 0, 35, 68
1, 370315, Note_on_c, 0, 42, 75
1, 370343, Note_off_c, 0, 35, 62
1, 370350, Note_off_c, 0, 42, 54
1, 370355, Note_off_c, 0, 47, 61
1, 370385, Note_on_c, 0, 51, 79
1, 370389, Note_on_c, 0, 63, 78
1, 370392, Note_on_c, 0, 59, 71
1, 370411, Note_off_c, 0, 51, 67
1, 370426, Note_off_c, 0, 59, 59
1, 370429, Note_off_c, 0, 63, 56
1, 370461, Note_on_c, 0, 47, 89
1, 370461, Note_on_c, 0, 53, 88
1, 370461, Poly_aftertouch_c, 0, 61, 127
1, 370465, Note_on_c, 0, 41, 71
1, 370483, Poly_aftertouch_c, 0, 61, 0
1, 370497, Note_off_c, 0, 41, 66
1, 370504, Note_off_c, 0, 53, 62
1, 370510, Note_off_c, 0, 47, 60
1, 370531, Note_on_c, 0, 54, 78
1, 370535, Note_on_c, 0, 66, 81
1, 370552, Note_on_c, 0, 60, 51
1, 370558, Note_off_c, 0, 54, 67
1, 370561, Note_off_c, 0, 66, 65
1, 370564, Note_on_c, 0, 59, 31
1, 370576, Note_off_c, 0, 60, 59
1, 370591, Note_off_c, 0, 59, 54
1, 370593, Note_on_c, 0, 55, 93
1, 370596, Note_on_c, 0, 43, 85
1, 370602, Note_on_c, 0, 51, 83
1, 370633, Note_off_c, 0, 43, 62
1, 370638, Note_off_c, 0, 55, 62
1, 370644, Note_off_c, 0, 51, 62
1, 370659, Note_on_c, 0, 56, 81
1, 370660, Note_on_c, 0, 63, 88
1, 370662, Note_on_c, 0, 68, 87
1, 370680, Note_off_c, 0, 56, 73
1, 370701, Note_off_c, 0, 63, 55
1, 370709, Note_off_c, 0, 68, 59
1, 370724, Note_on_c, 0, 59, 89
1, 370729, Note_on_c, 0, 47, 88
1, 370732, Note_on_c, 0, 54, 92
1, 370755, Note_off_c, 0, 47, 68
1, 370760, Note_off_c, 0, 54, 62
1, 370764, Note_off_c, 0, 59, 65
1, 370790, Note_on_c, 0, 63, 101
1, 370794, Note_on_c, 0, 75, 91
1, 370802, Note_on_c, 0, 71, 72
1, 370825, Note_off_c, 0, 63, 59
1, 370827, Note_off_c, 0, 71, 68
1, 370830, Note_off_c, 0, 75, 58
1, 370859, Note_on_c, 0, 65, 98
1, 370863, Note_on_c, 0, 53, 94
1, 370867, Note_on_c, 0, 59, 95
1, 370896, Note_off_c, 0, 65, 70
1, 370897, Note_off_c, 0, 53, 68
1, 370897, Note_off_c, 0, 59, 65
1, 370922, Note_on_c, 0, 66, 97
1, 370925, Note_on_c, 0, 78, 98
1, 370928, Note_on_c, 0, 71, 83
1, 370955, Note_off_c, 0, 71, 68
1, 370957, Note_off_c, 0, 66, 60
1, 370961, Note_off_c, 0, 78, 68
1, 370986, Note_on_c, 0, 67, 103
1, 370989, Note_on_c, 0, 55, 94
1, 370992, Note_on_c, 0, 63, 97
1, 371011, Note_off_c, 0, 55, 70
1, 371019, Note_off_c, 0, 67, 67
1, 371020, Note_on_c, 0, 58, 38
1, 371039, Note_off_c, 0, 63, 66
1, 371046, Note_on_c, 0, 68, 98
1, 371047, Note_on_c, 0, 80, 98
1, 371048, Note_off_c, 0, 58, 54
1, 371061, Note_on_c, 0, 74, 74
1, 371065, Note_off_c, 0, 68, 68
1, 371081, Note_off_c, 0, 74, 73
1, 371083, Note_on_c, 0, 78, 36
1, 371084, Note_off_c, 0, 78, 127
1, 371095, Note_off_c, 0, 80, 66
1, 371115, Note_on_c, 0, 71, 106
1, 371120, Note_on_c, 0, 59, 103
1, 371120, Note_on_c, 0, 66, 97
1, 371150, Note_off_c, 0, 71, 73
1, 371158, Note_on_c, 0, 61, 39
1, 371159, Note_off_c, 0, 61, 127
1, 371159, Note_off_c, 0, 66, 60
1, 371170, Note_off_c, 0, 59, 64
1, 371190, Note_on_c, 0, 75, 108
1, 371191, Note_on_c, 0, 87, 100
1, 371195, Note_on_c, 0, 83, 88
1, 371214, Note_on_c, 0, 82, 26
1, 371215, Note_off_c, 0, 82, 127
1, 371235, Note_off_c, 0, 75, 57
1, 371238, Control_c, 0, 64, 82
1, 371250, Note_off_c, 0, 87, 61
1, 371253, Control_c, 0, 64, 50
1, 371261, Note_off_c, 0, 83, 65
1, 371267, Control_c, 0, 64, 0
1, 371300, Note_on_c, 0, 47, 115
1, 371303, Note_on_c, 0, 35, 100
1, 371319, Note_on_c, 0, 37, 69
1, 371321, Note_on_c, 0, 36, 72
1, 371330, Note_off_c, 0, 47, 72
1, 371331, Note_off_c, 0, 35, 70
1, 371341, Control_c, 0, 64, 36
1, 371342, Note_off_c, 0, 37, 41
1, 371346, Note_off_c, 0, 36, 39
1, 371348, Note_on_c, 0, 44, 21
1, 371349, Note_off_c, 0, 44, 127
1, 371356, Control_c, 0, 64, 127
1, 371388, Note_on_c, 0, 78, 39
1, 371388, Poly_aftertouch_c, 0, 44, 0
1, 371434, Note_off_c, 0, 78, 51
1, 371541, Note_on_c, 0, 78, 107
1, 371544, Note_on_c, 0, 90, 105
1, 371545, Note_on_c, 0, 66, 115
1, 371549, Note_on_c, 0, 87, 100
1, 371551, Note_on_c, 0, 83, 92
1, 371554, Note_on_c, 0, 63, 89
1, 371567, Note_off_c, 0, 83, 76
1, 371569, Note_off_c, 0, 66, 62
1, 371574, Note_off_c, 0, 63, 70
1, 371574, Note_off_c, 0, 78, 70
1, 371575, Note_off_c, 0, 90, 70
1, 371578, Note_on_c, 0, 55, 43
1, 371581, Note_on_c, 0, 80, 27
1, 371586, Note_off_c, 0, 87, 65
1, 371604, Note_off_c, 0, 55, 60
1, 371607, Control_c, 0, 64, 68
1, 371613, Note_off_c, 0, 80, 38
1, 371616, Note_on_c, 0, 57, 54
1, 371621, Note_on_c, 0, 67, 113
1, 371621, Note_on_c, 0, 81, 112
1, 371621, Note_on_c, 0, 93, 106
1, 371621, Note_on_c, 0, 60, 32
1, 371622, Note_on_c, 0, 83, 98
1, 371622, Note_on_c, 0, 85, 96
1, 371622, Control_c, 0, 64, 37
1, 371624, Note_on_c, 0, 59, 7
1, 371624, Note_on_c, 0, 89, 98
1, 371625, Note_on_c, 0, 69, 97
1, 371627, Note_on_c, 0, 61, 85
1, 371627, Note_on_c, 0, 88, 72
1, 371628, Note_on_c, 0, 65, 92
1, 371629, Note_on_c, 0, 90, 85
1, 371637, Control_c, 0, 64, 0
1, 371642, Note_off_c, 0, 60, 42
1, 371646, Note_on_c, 0, 64, 69
1, 371670, Note_off_c, 0, 64, 61
1, 371671, Note_on_c, 0, 84, 56
1, 371712, Control_c, 0, 64, 13
1, 371718, Note_off_c, 0, 90, 54
1, 371726, Control_c, 0, 64, 63
1, 371733, Note_off_c, 0, 59, 0
1, 371733, Note_on_c, 0, 59, 5
1, 371741, Control_c, 0, 64, 127
1, 371757, Note_off_c, 0, 84, 36
1, 371848, Note_off_c, 0, 57, 60
1, 371852, Note_off_c, 0, 69, 51
1, 371855, Note_off_c, 0, 67, 49
1, 371858, Note_off_c, 0, 83, 51
1, 371864, Note_off_c, 0, 81, 52
1, 371881, Note_off_c, 0, 93, 61
1, 371886, Note_off_c, 0, 65, 63
1, 371888, Note_off_c, 0, 59, 51
1, 371920, Note_off_c, 0, 61, 63
1, 371923, Note_off_c, 0, 89, 63
1, 371932, Note_off_c, 0, 85, 60
1, 371939, Note_off_c, 0, 88, 45
1, 372061, Control_c, 0, 64, 57
1, 372075, Note_on_c, 0, 66, 106
1, 372076, Control_c, 0, 64, 0
1, 372078, Note_on_c, 0, 90, 101
1, 372079, Note_on_c, 0, 63, 102
1, 372080, Note_on_c, 0, 54, 98
1, 372080, Note_on_c, 0, 59, 69
1, 372081, Note_on_c, 0, 87, 97
1, 372082, Note_on_c, 0, 78, 104
1, 372082, Note_on_c, 0, 83, 92
1, 372105, Note_off_c, 0, 66, 69
1, 372109, Note_on_c, 0, 56, 45
1, 372110, Note_off_c, 0, 56, 47
1, 372117, Note_off_c, 0, 63, 68
1, 372120, Control_c, 0, 64, 49
1, 372127, Note_off_c, 0, 78, 63
1, 372128, Note_off_c, 0, 83, 63
1, 372129, Note_off_c, 0, 59, 64
1, 372133, Note_off_c, 0, 54, 66
1, 372135, Control_c, 0, 64, 127
1, 372147, Note_on_c, 0, 80, 3
1, 372175, Note_off_c, 0, 87, 65
1, 372183, Note_off_c, 0, 90, 66
1, 372192, Note_off_c, 0, 80, 33
1, 372312, Note_on_c, 0, 35, 117
1, 372320, Note_on_c, 0, 23, 98
1, 372321, Note_on_c, 0, 21, 92
1, 372333, Note_on_c, 0, 33, 70
1, 372334, Note_off_c, 0, 33, 127
1, 372337, Note_on_c, 0, 94, 23
1, 372342, Note_off_c, 0, 21, 67
1, 372343, Note_off_c, 0, 35, 70
1, 372349, Note_off_c, 0, 23, 64
1, 372361, Poly_aftertouch_c, 0, 33, 0
1, 372366, Note_off_c, 0, 94, 55
1, 372380, Note_on_c, 0, 25, 20
1, 372431, Note_off_c, 0, 25, 30
1, 372568, Note_on_c, 0, 58, 96
1, 372568, Note_on_c, 0, 90, 108
1, 372568, Note_on_c, 0, 102, 107
1, 372572, Note_on_c, 0, 66, 102
1, 372572, Note_on_c, 0, 99, 106
1, 372576, Note_on_c, 0, 95, 96
1, 372577, Note_on_c, 0, 54, 85
1, 372580, Note_on_c, 0, 62, 88
1, 372588, Note_on_c, 0, 65, 74
1, 372593, Note_on_c, 0, 53, 76
1, 372594, Note_on_c, 0, 64, 63
1, 372603, Note_on_c, 0, 94, 41
1, 372604, Note_off_c, 0, 94, 127
1, 372604, Note_off_c, 0, 62, 69
1, 372604, Note_off_c, 0, 65, 73
1, 372613, Note_off_c, 0, 53, 67
1, 372614, Note_off_c, 0, 64, 65
1, 372643, Note_off_c, 0, 54, 63
1, 372646, Note_off_c, 0, 66, 59
1, 372658, Note_off_c, 0, 90, 65
1, 372661, Note_off_c, 0, 102, 64
1, 372665, Note_off_c, 0, 58, 63
1, 372668, Note_off_c, 0, 95, 60
1, 372688, Note_off_c, 0, 99, 62
1, 372708, Control_c, 0, 64, 59
1, 372722, Note_on_c, 0, 95, 102
1, 372723, Note_on_c, 0, 91, 114
1, 372723, Note_on_c, 0, 101, 97
1, 372723, Control_c, 0, 64, 0
1, 372723, Note_on_c, 0, 103, 103
1, 372724, Note_on_c, 0, 89, 109
1, 372725, Note_on_c, 0, 56, 83
1, 372725, Note_on_c, 0, 59, 90
1, 372726, Note_on_c, 0, 53, 83
1, 372726, Note_on_c, 0, 99, 87
1, 372727, Note_on_c, 0, 63, 102
1, 372728, Note_on_c, 0, 65, 98
1, 372729, Note_on_c, 0, 67, 103
1, 372765, Note_on_c, 0, 55, 61
1, 372782, Control_c, 0, 64, 33
1, 372791, Note_off_c, 0, 67, 59
1, 372792, Note_off_c, 0, 65, 63
1, 372796, Note_off_c, 0, 56, 60
1, 372797, Control_c, 0, 64, 87
1, 372812, Control_c, 0, 64, 127
1, 372816, Note_off_c, 0, 103, 65
1, 372829, Note_off_c, 0, 53, 65
1, 372831, Note_off_c, 0, 63, 61
1, 372834, Note_off_c, 0, 101, 68
1, 372850, Note_off_c, 0, 99, 63
1, 372855, Note_off_c, 0, 95, 67
1, 372857, Note_off_c, 0, 55, 64
1, 372860, Note_off_c, 0, 91, 53
1, 372862, Note_off_c, 0, 59, 62
1, 372874, Note_off_c, 0, 89, 66
1, 373037, Note_on_c, 0, 78, 78
1, 373047, Note_on_c, 0, 75, 54
1, 373099, Note_off_c, 0, 75, 0
1, 373105, Poly_aftertouch_c, 0, 72, 127
1, 373135, Poly_aftertouch_c, 0, 71, 127
1, 373136, Poly_aftertouch_c, 0, 75, 127
1, 373156, Note_on_c, 0, 66, 80
1, 373162, Note_off_c, 0, 78, 61
1, 373184, Poly_aftertouch_c, 0, 71, 0
1, 373184, Poly_aftertouch_c, 0, 75, 0
1, 373187, Poly_aftertouch_c, 0, 72, 0
1, 373205, Note_off_c, 0, 66, 63
1, 373264, Note_on_c, 0, 35, 75
1, 373272, Note_on_c, 0, 23, 62
1, 373293, Note_off_c, 0, 35, 65
1, 373303, Note_off_c, 0, 23, 51
1, 373310, Note_on_c, 0, 24, 27
1, 373352, Note_on_c, 0, 42, 78
1, 373353, Note_on_c, 0, 54, 66
1, 373357, Note_off_c, 0, 24, 37
1, 373387, Note_on_c, 0, 47, 40
1, 373388, Note_off_c, 0, 42, 63
1, 373406, Note_off_c, 0, 54, 58
1, 373423, Note_off_c, 0, 47, 54
1, 373428, Note_on_c, 0, 43, 73
1, 373433, Note_on_c, 0, 39, 69
1, 373433, Note_on_c, 0, 31, 66
1, 373460, Note_off_c, 0, 43, 61
1, 373467, Note_off_c, 0, 39, 64
1, 373471, Note_off_c, 0, 31, 60
1, 373492, Note_on_c, 0, 44, 68
1, 373505, Note_on_c, 0, 51, 71
1, 373509, Note_on_c, 0, 56, 72
1, 373524, Note_off_c, 0, 44, 65
1, 373538, Note_off_c, 0, 51, 67
1, 373549, Note_off_c, 0, 56, 66
1, 373556, Note_on_c, 0, 47, 79
1, 373565, Note_on_c, 0, 42, 77
1, 373581, Note_on_c, 0, 35, 49
1, 373594, Note_off_c, 0, 42, 60
1, 373600, Note_off_c, 0, 35, 65
1, 373602, Note_off_c, 0, 47, 63
1, 373631, Note_on_c, 0, 63, 82
1, 373633, Note_on_c, 0, 51, 80
1, 373645, Note_on_c, 0, 59, 59
1, 373661, Note_off_c, 0, 51, 67
1, 373672, Note_off_c, 0, 63, 57
1, 373674, Note_off_c, 0, 59, 60
1, 373696, Note_on_c, 0, 53, 88
1, 373701, Note_on_c, 0, 41, 75
1, 373703, Note_on_c, 0, 47, 76
1, 373724, Poly_aftertouch_c, 0, 61, 0
1, 373739, Note_off_c, 0, 41, 63
1, 373740, Note_off_c, 0, 53, 64
1, 373746, Note_off_c, 0, 47, 61
1, 373766, Note_on_c, 0, 54, 86
1, 373770, Note_on_c, 0, 66, 80
1, 373772, Note_on_c, 0, 59, 67
1, 373794, Note_off_c, 0, 54, 66
1, 373799, Note_off_c, 0, 66, 58
1, 373801, Note_off_c, 0, 59, 64
1, 373825, Note_on_c, 0, 55, 90
1, 373830, Note_on_c, 0, 51, 87
1, 373835, Note_on_c, 0, 43, 71
1, 373864, Note_off_c, 0, 43, 66
1, 373873, Note_off_c, 0, 55, 64
1, 373875, Note_off_c, 0, 51, 65
1, 373895, Note_on_c, 0, 56, 73
1, 373897, Note_on_c, 0, 63, 83
1, 373898, Note_on_c, 0, 68, 88
1, 373915, Note_off_c, 0, 56, 68
1, 373932, Note_off_c, 0, 63, 62
1, 373934, Note_off_c, 0, 68, 50
1, 373941, Poly_aftertouch_c, 0, 41, 0
1, 373960, Note_on_c, 0, 59, 96
1, 373963, Note_on_c, 0, 47, 86
1, 373965, Note_on_c, 0, 54, 88
1, 373987, Note_off_c, 0, 47, 71
1, 373990, Note_off_c, 0, 54, 63
1, 373997, Note_off_c, 0, 59, 66
1, 374018, Note_on_c, 0, 63, 97
1, 374021, Note_on_c, 0, 70, 88
1, 374025, Note_on_c, 0, 75, 82
1, 374048, Note_off_c, 0, 63, 66
1, 374050, Note_off_c, 0, 75, 63
1, 374068, Note_off_c, 0, 70, 62
1, 374088, Note_on_c, 0, 65, 99
1, 374091, Note_on_c, 0, 53, 94
1, 374098, Note_on_c, 0, 59, 85
1, 374135, Note_off_c, 0, 65, 68
1, 374139, Note_off_c, 0, 59, 62
1, 374140, Note_off_c, 0, 53, 66
1, 374155, Note_on_c, 0, 66, 103
1, 374161, Note_on_c, 0, 78, 101
1, 374169, Note_on_c, 0, 71, 79
1, 374189, Note_off_c, 0, 71, 72
1, 374190, Note_off_c, 0, 66, 62
1, 374204, Note_off_c, 0, 78, 64
1, 374224, Note_on_c, 0, 67, 99
1, 374227, Note_on_c, 0, 55, 95
1, 374231, Note_on_c, 0, 63, 86
1, 374246, Note_off_c, 0, 63, 72
1, 374246, Note_on_c, 0, 64, 77
1, 374250, Note_on_c, 0, 61, 58
1, 374255, Note_on_c, 0, 58, 45
1, 374257, Poly_aftertouch_c, 0, 73, 0
1, 374258, Note_off_c, 0, 55, 65
1, 374258, Note_off_c, 0, 67, 65
1, 374270, Note_off_c, 0, 64, 68
1, 374273, Note_off_c, 0, 61, 63
1, 374279, Note_off_c, 0, 58, 59
1, 374285, Note_on_c, 0, 68, 96
1, 374288, Note_on_c, 0, 80, 96
1, 374294, Note_on_c, 0, 75, 67
1, 374295, Note_off_c, 0, 75, 127
1, 374305, Note_off_c, 0, 68, 69
1, 374309, Note_on_c, 0, 74, 68
1, 374327, Note_off_c, 0, 74, 69
1, 374336, Note_off_c, 0, 80, 65
1, 374353, Note_on_c, 0, 71, 107
1, 374363, Note_on_c, 0, 59, 82
1, 374365, Note_on_c, 0, 67, 88
1, 374367, Note_on_c, 0, 60, 78
1, 374378, Note_off_c, 0, 71, 74
1, 374379, Note_off_c, 0, 67, 77
1, 374392, Note_off_c, 0, 60, 67
1, 374401, Note_on_c, 0, 66, 21
1, 374402, Note_off_c, 0, 66, 127
1, 374406, Note_off_c, 0, 59, 61
1, 374417, Note_on_c, 0, 75, 93
1, 374419, Note_on_c, 0, 87, 99
1, 374423, Note_on_c, 0, 83, 89
1, 374438, Note_on_c, 0, 85, 59
1, 374458, Control_c, 0, 64, 70
1, 374459, Note_off_c, 0, 85, 61
1, 374460, Note_off_c, 0, 75, 61
1, 374473, Control_c, 0, 64, 39
1, 374483, Note_off_c, 0, 83, 64
1, 374484, Note_off_c, 0, 87, 61
1, 374488, Control_c, 0, 64, 0
1, 374521, Note_on_c, 0, 47, 117
1, 374529, Note_on_c, 0, 35, 89
1, 374531, Note_on_c, 0, 36, 90
1, 374538, Note_on_c, 0, 37, 73
1, 374550, Note_off_c, 0, 47, 71
1, 374553, Note_off_c, 0, 35, 68
1, 374556, Note_off_c, 0, 37, 62
1, 374557, Note_off_c, 0, 36, 64
1, 374561, Control_c, 0, 64, 54
1, 374576, Control_c, 0, 64, 127
1, 374580, Note_on_c, 0, 78, 66
1, 374607, Note_off_c, 0, 78, 57
1, 374613, Note_on_c, 0, 90, 39
1, 374647, Note_off_c, 0, 90, 54
1, 374664, Poly_aftertouch_c, 0, 83, 127
1, 374692, Poly_aftertouch_c, 0, 83, 0
1, 374745, Note_on_c, 0, 90, 94
1, 374747, Note_on_c, 0, 78, 110
1, 374750, Note_on_c, 0, 87, 93
1, 374756, Note_on_c, 0, 66, 107
1, 374761, Note_on_c, 0, 83, 72
1, 374762, Note_on_c, 0, 63, 85
1, 374771, Note_off_c, 0, 66, 70
1, 374776, Note_on_c, 0, 80, 42
1, 374776, Note_off_c, 0, 83, 70
1, 374777, Note_off_c, 0, 78, 68
1, 374779, Note_off_c, 0, 90, 69
1, 374783, Note_on_c, 0, 59, 41
1, 374783, Note_off_c, 0, 63, 74
1, 374789, Note_off_c, 0, 87, 65
1, 374801, Note_off_c, 0, 80, 59
1, 374809, Note_off_c, 0, 59, 58
1, 374813, Control_c, 0, 64, 77
1, 374821, Note_on_c, 0, 93, 100
1, 374822, Note_on_c, 0, 83, 106
1, 374824, Note_on_c, 0, 67, 113
1, 374825, Note_on_c, 0, 81, 104
1, 374825, Note_on_c, 0, 85, 93
1, 374825, Note_on_c, 0, 89, 96
1, 374825, Note_on_c, 0, 57, 85
1, 374828, Note_on_c, 0, 69, 99
1, 374828, Control_c, 0, 64, 47
1, 374829, Note_on_c, 0, 59, 71
1, 374831, Note_on_c, 0, 65, 86
1, 374832, Note_on_c, 0, 61, 87
1, 374834, Note_on_c, 0, 90, 71
1, 374837, Note_on_c, 0, 60, 6
1, 374838, Note_off_c, 0, 60, 61
1, 374843, Note_on_c, 0, 64, 70
1, 374843, Control_c, 0, 64, 0
1, 374858, Note_off_c, 0, 90, 59
1, 374860, Note_off_c, 0, 64, 66
1, 374884, Note_on_c, 0, 91, 49
1, 374885, Note_off_c, 0, 91, 127
1, 374940, Control_c, 0, 64, 53
1, 374954, Control_c, 0, 64, 127
1, 375142, Note_off_c, 0, 93, 58
1, 375157, Note_off_c, 0, 59, 60
1, 375171, Note_off_c, 0, 83, 56
1, 375172, Note_off_c, 0, 81, 50
1, 375175, Note_off_c, 0, 57, 58
1, 375185, Note_off_c, 0, 89, 63
1, 375186, Note_off_c, 0, 65, 40
1, 375192, Note_off_c, 0, 61, 63
1, 375225, Note_off_c, 0, 69, 50
1, 375231, Note_off_c, 0, 85, 59
1, 375237, Note_off_c, 0, 67, 55
1, 375340, Control_c, 0, 64, 81
1, 375355, Control_c, 0, 64, 51
1, 375370, Control_c, 0, 64, 0
1, 375373, Note_on_c, 0, 90, 103
1, 375373, Note_on_c, 0, 78, 108
1, 375375, Note_on_c, 0, 66, 104
1, 375376, Note_on_c, 0, 54, 98
1, 375376, Note_on_c, 0, 63, 99
1, 375379, Note_on_c, 0, 59, 92
1, 375380, Note_on_c, 0, 83, 91
1, 375380, Note_on_c, 0, 87, 95
1, 375385, Control_c, 0, 64, 38
1, 375400, Control_c, 0, 64, 127
1, 375403, Note_on_c, 0, 56, 59
1, 375412, Note_off_c, 0, 66, 66
1, 375415, Note_on_c, 0, 65, 34
1, 375416, Note_off_c, 0, 65, 127
1, 375421, Note_off_c, 0, 63, 67
1, 375421, Note_off_c, 0, 78, 62
1, 375425, Note_off_c, 0, 56, 65
1, 375430, Note_off_c, 0, 54, 67
1, 375430, Note_off_c, 0, 59, 65
1, 375434, Note_off_c, 0, 83, 67
1, 375444, Poly_aftertouch_c, 0, 65, 0
1, 375460, Note_off_c, 0, 90, 67
1, 375464, Note_off_c, 0, 87, 68
1, 375548, Control_c, 0, 64, 99
1, 375563, Control_c, 0, 64, 67
1, 375577, Control_c, 0, 64, 51
1, 375592, Control_c, 0, 64, 0
1, 375638, Poly_aftertouch_c, 0, 94, 127
1, 375665, Poly_aftertouch_c, 0, 94, 0
1, 375806, Note_on_c, 0, 64, 107
1, 375807, Note_on_c, 0, 95, 103
1, 375807, Control_c, 0, 64, 14
1, 375808, Note_on_c, 0, 52, 94
1, 375809, Note_on_c, 0, 56, 95
1, 375809, Note_on_c, 0, 83, 100
1, 375809, Note_on_c, 0, 88, 105
1, 375809, Note_on_c, 0, 92, 106
1, 375814, Note_on_c, 0, 59, 88
1, 375822, Control_c, 0, 64, 64
1, 375837, Control_c, 0, 64, 127
1, 375862, Note_off_c, 0, 64, 56
1, 375878, Note_off_c, 0, 59, 47
1, 375880, Note_off_c, 0, 52, 61
1, 375883, Note_off_c, 0, 83, 58
1, 375890, Note_off_c, 0, 56, 63
1, 375903, Note_off_c, 0, 92, 64
1, 375905, Note_off_c, 0, 95, 62
1, 375929, Note_off_c, 0, 88, 63
1, 375941, Control_c, 0, 64, 122
1, 375956, Control_c, 0, 64, 54
1, 375969, Note_on_c, 0, 88, 100
1, 375970, Note_on_c, 0, 84, 109
1, 375970, Note_on_c, 0, 96, 113
1, 375971, Control_c, 0, 64, 0
1, 375972, Note_on_c, 0, 64, 117
1, 375972, Note_on_c, 0, 90, 97
1, 375974, Note_on_c, 0, 52, 117
1, 375974, Note_on_c, 0, 94, 110
1, 375976, Note_on_c, 0, 60, 94
1, 375980, Note_on_c, 0, 54, 93
1, 375981, Note_on_c, 0, 58, 91
1, 376018, Note_on_c, 0, 87, 19
1, 376019, Note_off_c, 0, 87, 127
1, 376030, Control_c, 0, 64, 62
1, 376036, Note_off_c, 0, 64, 64
1, 376037, Note_on_c, 0, 59, 13
1, 376038, Note_off_c, 0, 59, 127
1, 376038, Note_on_c, 0, 57, 45
1, 376044, Note_off_c, 0, 52, 71
1, 376045, Control_c, 0, 64, 127
1, 376051, Note_off_c, 0, 60, 67
1, 376053, Note_off_c, 0, 58, 65
1, 376060, Note_off_c, 0, 54, 65
1, 376062, Note_off_c, 0, 57, 60
1, 376169, Note_off_c, 0, 96, 56
1, 376186, Note_off_c, 0, 94, 60
1, 376208, Note_off_c, 0, 88, 62
1, 376209, Note_off_c, 0, 90, 62
1, 376243, Note_off_c, 0, 84, 57
1, 376253, Control_c, 0, 64, 107
1, 376267, Control_c, 0, 64, 106
1, 376297, Control_c, 0, 64, 108
1, 376312, Control_c, 0, 64, 127
1, 376556, Control_c, 0, 64, 93
1, 376567, Note_on_c, 0, 40, 88
1, 376571, Note_on_c, 0, 28, 85
1, 376571, Control_c, 0, 64, 93
1, 376586, Control_c, 0, 64, 127
1, 376599, Note_on_c, 0, 30, 46
1, 376632, Note_off_c, 0, 40, 63
1, 376633, Note_off_c, 0, 28, 65
1, 376635, Note_off_c, 0, 30, 45
1, 376653, Note_on_c, 0, 47, 72
1, 376655, Note_on_c, 0, 59, 68
1, 376667, Note_on_c, 0, 52, 62
1, 376684, Note_off_c, 0, 47, 67
1, 376688, Note_off_c, 0, 59, 61
1, 376706, Note_off_c, 0, 52, 66
1, 376748, Note_on_c, 0, 48, 87
1, 376750, Note_on_c, 0, 44, 76
1, 376753, Note_on_c, 0, 36, 74
1, 376783, Note_off_c, 0, 48, 62
1, 376788, Note_off_c, 0, 44, 61
1, 376798, Note_off_c, 0, 36, 63
1, 376804, Note_on_c, 0, 49, 64
1, 376804, Note_on_c, 0, 56, 70
1, 376811, Note_on_c, 0, 61, 67
1, 376826, Note_off_c, 0, 49, 65
1, 376835, Note_off_c, 0, 56, 67
1, 376839, Note_off_c, 0, 61, 68
1, 376869, Note_on_c, 0, 52, 87
1, 376873, Note_on_c, 0, 38, 67
1, 376889, Note_on_c, 0, 45, 57
1, 376897, Note_off_c, 0, 38, 58
1, 376902, Note_off_c, 0, 52, 66
1, 376903, Note_on_c, 0, 46, 34
1, 376914, Note_off_c, 0, 45, 58
1, 376941, Note_on_c, 0, 68, 81
1, 376944, Note_on_c, 0, 56, 79
1, 376946, Note_off_c, 0, 46, 53
1, 376961, Note_on_c, 0, 64, 54
1, 376965, Note_off_c, 0, 56, 70
1, 376987, Note_off_c, 0, 64, 60
1, 376988, Note_off_c, 0, 68, 56
1, 377011, Note_on_c, 0, 58, 99
1, 377015, Note_on_c, 0, 46, 90
1, 377021, Note_on_c, 0, 52, 80
1, 377048, Note_on_c, 0, 49, 39
1, 377066, Note_off_c, 0, 46, 64
1, 377068, Note_off_c, 0, 58, 60
1, 377076, Note_on_c, 0, 59, 81
1, 377078, Note_on_c, 0, 64, 73
1, 377081, Note_off_c, 0, 52, 62
1, 377082, Note_on_c, 0, 71, 79
1, 377085, Note_off_c, 0, 49, 53
1, 377102, Note_off_c, 0, 59, 66
1, 377117, Note_off_c, 0, 71, 65
1, 377132, Note_off_c, 0, 64, 60
1, 377147, Note_on_c, 0, 48, 79
1, 377148, Note_on_c, 0, 56, 81
1, 377151, Note_on_c, 0, 60, 85
1, 377181, Note_off_c, 0, 48, 64
1, 377185, Note_off_c, 0, 60, 62
1, 377196, Note_off_c, 0, 56, 67
1, 377205, Note_on_c, 0, 73, 82
1, 377209, Note_on_c, 0, 68, 81
1, 377209, Note_on_c, 0, 61, 77
1, 377231, Note_off_c, 0, 68, 61
1, 377233, Note_off_c, 0, 61, 70
1, 377247, Note_off_c, 0, 73, 64
1, 377282, Note_on_c, 0, 64, 75
1, 377287, Note_on_c, 0, 65, 76
1, 377289, Note_on_c, 0, 53, 67
1, 377294, Note_on_c, 0, 60, 62
1, 377298, Note_on_c, 0, 59, 52
1, 377304, Note_on_c, 0, 52, 42
1, 377305, Note_off_c, 0, 64, 67
1, 377310, Note_off_c, 0, 53, 64
1, 377310, Note_off_c, 0, 65, 71
1, 377311, Note_off_c, 0, 60, 70
1, 377314, Note_off_c, 0, 59, 66
1, 377326, Note_off_c, 0, 52, 64
1, 377344, Note_on_c, 0, 68, 80
1, 377348, Note_on_c, 0, 76, 82
1, 377358, Note_on_c, 0, 81, 69
1, 377362, Note_off_c, 0, 68, 67
1, 377370, Note_on_c, 0, 80, 32
1, 377377, Note_off_c, 0, 81, 67
1, 377394, Note_off_c, 0, 76, 64
1, 377403, Note_on_c, 0, 70, 104
1, 377408, Note_on_c, 0, 58, 94
1, 377409, Note_off_c, 0, 80, 52
1, 377414, Note_on_c, 0, 64, 79
1, 377445, Note_on_c, 0, 61, 29
1, 377451, Note_off_c, 0, 58, 63
1, 377461, Note_off_c, 0, 70, 58
1, 377469, Note_off_c, 0, 64, 58
1, 377472, Note_off_c, 0, 61, 60
1, 377475, Note_on_c, 0, 83, 92
1, 377478, Note_on_c, 0, 71, 76
1, 377479, Note_on_c, 0, 76, 84
1, 377502, Note_off_c, 0, 71, 72
1, 377518, Note_off_c, 0, 83, 65
1, 377521, Note_off_c, 0, 76, 62
1, 377543, Note_on_c, 0, 60, 82
1, 377546, Note_on_c, 0, 72, 88
1, 377548, Note_on_c, 0, 68, 85
1, 377577, Note_off_c, 0, 60, 64
1, 377582, Note_off_c, 0, 72, 65
1, 377588, Note_on_c, 0, 85, 82
1, 377589, Note_on_c, 0, 80, 84
1, 377592, Note_on_c, 0, 73, 80
1, 377593, Note_off_c, 0, 68, 61
1, 377603, Note_on_c, 0, 78, 21
1, 377604, Note_off_c, 0, 78, 127
1, 377610, Note_off_c, 0, 73, 71
1, 377629, Note_off_c, 0, 85, 64
1, 377633, Note_off_c, 0, 80, 59
1, 377659, Note_on_c, 0, 76, 97
1, 377663, Note_on_c, 0, 64, 83
1, 377665, Note_on_c, 0, 71, 88
1, 377683, Note_off_c, 0, 64, 72
1, 377689, Note_off_c, 0, 71, 68
1, 377692, Note_off_c, 0, 76, 69
1, 377716, Note_on_c, 0, 80, 100
1, 377717, Note_on_c, 0, 92, 96
1, 377725, Note_on_c, 0, 88, 82
1, 377745, Note_off_c, 0, 80, 67
1, 377751, Note_off_c, 0, 92, 71
1, 377767, Note_off_c, 0, 88, 62
1, 377787, Note_on_c, 0, 82, 103
1, 377788, Note_on_c, 0, 75, 96
1, 377791, Note_on_c, 0, 80, 91
1, 377800, Note_on_c, 0, 69, 84
1, 377801, Note_on_c, 0, 70, 59
1, 377807, Note_off_c, 0, 80, 70
1, 377815, Note_on_c, 0, 78, 52
1, 377820, Note_off_c, 0, 69, 72
1, 377829, Note_off_c, 0, 70, 57
1, 377838, Note_off_c, 0, 78, 64
1, 377842, Note_off_c, 0, 82, 65
1, 377847, Note_on_c, 0, 83, 94
1, 377850, Note_off_c, 0, 75, 60
1, 377856, Note_on_c, 0, 88, 90
1, 377856, Note_on_c, 0, 95, 83
1, 377874, Note_on_c, 0, 96, 81
1, 377883, Note_off_c, 0, 83, 70
1, 377889, Note_off_c, 0, 96, 67
1, 377898, Poly_aftertouch_c, 0, 73, 0
1, 377901, Note_off_c, 0, 95, 67
1, 377903, Note_off_c, 0, 88, 67
1, 377928, Note_on_c, 0, 84, 100
1, 377935, Note_on_c, 0, 72, 88
1, 377937, Note_on_c, 0, 80, 64
1, 377943, Note_on_c, 0, 79, 84
1, 377954, Note_on_c, 0, 73, 25
1, 377955, Note_off_c, 0, 72, 69
1, 377967, Note_off_c, 0, 84, 66
1, 377968, Note_off_c, 0, 79, 64
1, 377981, Note_on_c, 0, 94, 94
1, 377984, Note_on_c, 0, 87, 93
1, 377984, Note_on_c, 0, 98, 97
1, 377988, Note_off_c, 0, 80, 39
1, 377993, Note_off_c, 0, 73, 56
1, 378004, Note_off_c, 0, 87, 67
1, 378018, Note_off_c, 0, 98, 67
1, 378024, Note_off_c, 0, 94, 65
1, 378049, Note_on_c, 0, 88, 110
1, 378053, Note_on_c, 0, 76, 97
1, 378060, Note_on_c, 0, 83, 77
1, 378062, Note_on_c, 0, 84, 78
1, 378076, Note_off_c, 0, 88, 63
1, 378078, Note_off_c, 0, 84, 70
1, 378081, Note_off_c, 0, 83, 71
1, 378094, Note_off_c, 0, 76, 67
1, 378110, Note_on_c, 0, 104, 101
1, 378113, Note_on_c, 0, 92, 104
1, 378115, Note_on_c, 0, 100, 92
1, 378151, Note_off_c, 0, 104, 64
1, 378155, Note_off_c, 0, 100, 65
1, 378157, Control_c, 0, 64, 97
1, 378172, Control_c, 0, 64, 54
1, 378182, Note_off_c, 0, 92, 64
1, 378187, Control_c, 0, 64, 0
1, 378246, Control_c, 0, 64, 11
1, 378251, Note_on_c, 0, 38, 101
1, 378252, Note_on_c, 0, 50, 110
1, 378261, Control_c, 0, 64, 63
1, 378276, Control_c, 0, 64, 127
1, 378280, Note_off_c, 0, 50, 71
1, 378289, Note_off_c, 0, 38, 61
1, 378299, Note_on_c, 0, 40, 31
1, 378300, Note_off_c, 0, 40, 127
1, 378336, Note_on_c, 0, 72, 52
1, 378336, Note_on_c, 0, 77, 37
1, 378336, Poly_aftertouch_c, 0, 40, 0
1, 378360, Note_off_c, 0, 72, 60
1, 378377, Note_off_c, 0, 77, 51
1, 378472, Note_on_c, 0, 64, 90
1, 378473, Note_on_c, 0, 56, 89
1, 378473, Note_on_c, 0, 83, 96
1, 378474, Note_on_c, 0, 71, 89
1, 378476, Note_on_c, 0, 80, 97
1, 378477, Note_on_c, 0, 52, 83
1, 378482, Note_on_c, 0, 59, 65
1, 378482, Note_on_c, 0, 77, 63
1, 378487, Note_on_c, 0, 76, 69
1, 378491, Note_off_c, 0, 64, 71
1, 378494, Note_off_c, 0, 71, 70
1, 378495, Note_off_c, 0, 56, 72
1, 378496, Note_off_c, 0, 52, 68
1, 378500, Note_off_c, 0, 59, 67
1, 378503, Note_off_c, 0, 76, 70
1, 378504, Note_off_c, 0, 83, 70
1, 378506, Note_on_c, 0, 62, 40
1, 378506, Note_off_c, 0, 77, 66
1, 378515, Note_off_c, 0, 80, 65
1, 378536, Note_off_c, 0, 62, 57
1, 378543, Control_c, 0, 64, 71
1, 378549, Note_on_c, 0, 67, 106
1, 378551, Note_on_c, 0, 82, 103
1, 378551, Note_on_c, 0, 86, 102
1, 378551, Note_on_c, 0, 74, 101
1, 378554, Note_on_c, 0, 62, 88
1, 378554, Note_on_c, 0, 79, 84
1, 378554, Note_on_c, 0, 58, 102
1, 378557, Note_on_c, 0, 55, 86
1, 378558, Control_c, 0, 64, 39
1, 378563, Note_on_c, 0, 57, 83
1, 378565, Note_on_c, 0, 63, 47
1, 378573, Control_c, 0, 64, 0
1, 378589, Note_off_c, 0, 63, 36
1, 378625, Note_on_c, 0, 78, 3
1, 378626, Note_off_c, 0, 78, 127
1, 378666, Note_off_c, 0, 57, 52
1, 378684, Control_c, 0, 64, 58
1, 378699, Control_c, 0, 64, 127
1, 378822, Note_off_c, 0, 67, 41
1, 378913, Note_off_c, 0, 62, 58
1, 378966, Note_off_c, 0, 79, 56
1, 378980, Note_off_c, 0, 86, 54
1, 379000, Note_off_c, 0, 55, 36
1, 379010, Note_off_c, 0, 58, 60
1, 379022, Note_off_c, 0, 82, 61
1, 379065, Note_off_c, 0, 74, 58
1, 379322, Control_c, 0, 64, 88
1, 379332, Note_on_c, 0, 71, 101
1, 379333, Note_on_c, 0, 83, 100
1, 379335, Note_on_c, 0, 80, 98
1, 379335, Note_on_c, 0, 76, 97
1, 379337, Control_c, 0, 64, 51
1, 379338, Note_on_c, 0, 52, 101
1, 379338, Note_on_c, 0, 64, 108
1, 379341, Note_on_c, 0, 59, 104
1, 379341, Note_on_c, 0, 56, 93
1, 379351, Control_c, 0, 64, 0
1, 379368, Note_on_c, 0, 75, 50
1, 379369, Note_off_c, 0, 75, 127
1, 379374, Control_c, 0, 64, 22
1, 379388, Note_on_c, 0, 54, 39
1, 379388, Control_c, 0, 64, 60
1, 379393, Note_on_c, 0, 81, 36
1, 379401, Note_off_c, 0, 64, 64
1, 379403, Control_c, 0, 64, 127
1, 379418, Note_off_c, 0, 59, 66
1, 379421, Note_off_c, 0, 54, 55
1, 379424, Note_off_c, 0, 52, 68
1, 379426, Note_off_c, 0, 81, 55
1, 379432, Note_off_c, 0, 56, 69
1, 379449, Note_off_c, 0, 71, 63
1, 379478, Note_off_c, 0, 83, 59
1, 379483, Note_off_c, 0, 76, 64
1, 379504, Note_off_c, 0, 80, 61
1, 379522, Control_c, 0, 64, 111
1, 379537, Control_c, 0, 64, 90
1, 379551, Control_c, 0, 64, 73
1, 379566, Control_c, 0, 64, 61
1, 379581, Control_c, 0, 64, 48
1, 379596, Control_c, 0, 64, 28
1, 379611, Control_c, 0, 64, 21
1, 379625, Control_c, 0, 64, 18
1, 379640, Control_c, 0, 64, 17
1, 379655, Control_c, 0, 64, 14
1, 379669, Control_c, 0, 64, 11
1, 379684, Control_c, 0, 64, 0
1, 380330, Control_c, 0, 64, 44
1, 380345, Control_c, 0, 64, 65
1, 380360, Control_c, 0, 64, 127
1, 380593, Note_on_c, 0, 63, 98
1, 380605, Note_on_c, 0, 25, 72
1, 380606, Note_on_c, 0, 51, 85
1, 380641, Note_on_c, 0, 24, 43
1, 380657, Note_off_c, 0, 51, 56
1, 380784, Note_off_c, 0, 24, 35
1, 380803, Note_off_c, 0, 63, 61
1, 380813, Note_off_c, 0, 25, 52
1, 380830, Note_on_c, 0, 37, 74
1, 380861, Note_off_c, 0, 37, 65
1, 380957, Note_on_c, 0, 44, 85
1, 381061, Note_on_c, 0, 64, 96
1, 381061, Note_on_c, 0, 76, 94
1, 381064, Note_off_c, 0, 44, 61
1, 381076, Note_on_c, 0, 52, 83
1, 381081, Note_on_c, 0, 77, 60
1, 381082, Note_off_c, 0, 77, 127
1, 381097, Note_off_c, 0, 64, 66
1, 381126, Note_off_c, 0, 52, 66
1, 381132, Note_off_c, 0, 76, 69
1, 381162, Note_on_c, 0, 56, 90
1, 381245, Note_on_c, 0, 59, 93
1, 381273, Note_off_c, 0, 56, 63
1, 381338, Note_off_c, 0, 59, 64
1, 381359, Control_c, 0, 64, 90
1, 381362, Note_on_c, 0, 87, 110
1, 381364, Note_on_c, 0, 75, 105
1, 381368, Note_on_c, 0, 56, 90
1, 381369, Note_on_c, 0, 65, 94
1, 381372, Note_on_c, 0, 53, 84
1, 381374, Control_c, 0, 64, 56
1, 381374, Note_on_c, 0, 64, 81
1, 381388, Control_c, 0, 64, 0
1, 381391, Note_on_c, 0, 85, 49
1, 381418, Control_c, 0, 64, 24
1, 381418, Note_off_c, 0, 85, 35
1, 381433, Control_c, 0, 64, 54
1, 381447, Control_c, 0, 64, 127
1, 381472, Note_off_c, 0, 64, 46
1, 381482, Note_off_c, 0, 87, 62
1, 381487, Note_off_c, 0, 65, 62
1, 381504, Note_on_c, 0, 63, 81
1, 381504, Note_off_c, 0, 53, 48
1, 381519, Note_off_c, 0, 75, 61
1, 381538, Note_off_c, 0, 56, 62
1, 381594, Note_on_c, 0, 71, 75
1, 381603, Note_on_c, 0, 75, 44
1, 381636, Note_off_c, 0, 63, 64
1, 381643, Note_off_c, 0, 75, 54
1, 381666, Note_on_c, 0, 68, 85
1, 381710, Note_off_c, 0, 68, 62
1, 381714, Note_off_c, 0, 71, 62
1, 381726, Note_on_c, 0, 80, 81
1, 381748, Note_on_c, 0, 75, 40
1, 381749, Note_off_c, 0, 80, 67
1, 381776, Note_off_c, 0, 75, 56
1, 381827, Note_on_c, 0, 87, 67
1, 381844, Note_off_c, 0, 87, 66
1, 381863, Note_on_c, 0, 77, 101
1, 381867, Note_on_c, 0, 71, 84
1, 381867, Note_on_c, 0, 99, 99
1, 381869, Note_on_c, 0, 92, 90
1, 381870, Note_on_c, 0, 68, 80
1, 381881, Note_on_c, 0, 65, 71
1, 381893, Note_off_c, 0, 77, 68
1, 381901, Note_off_c, 0, 71, 65
1, 381907, Note_off_c, 0, 65, 68
1, 381907, Note_off_c, 0, 68, 61
1, 381920, Note_off_c, 0, 99, 67
1, 381935, Note_on_c, 0, 87, 88
1, 381937, Note_off_c, 0, 92, 66
1, 381958, Note_off_c, 0, 87, 67
1, 382024, Note_on_c, 0, 85, 84
1, 382027, Note_on_c, 0, 78, 94
1, 382073, Note_off_c, 0, 78, 65
1, 382073, Note_off_c, 0, 85, 64
1, 382077, Note_on_c, 0, 65, 98
1, 382082, Note_on_c, 0, 56, 88
1, 382084, Note_on_c, 0, 59, 76
1, 382089, Note_on_c, 0, 53, 79
1, 382090, Note_on_c, 0, 73, 89
1, 382101, Note_off_c, 0, 65, 67
1, 382109, Note_off_c, 0, 73, 71
1, 382110, Note_off_c, 0, 59, 68
1, 382122, Note_off_c, 0, 53, 67
1, 382128, Note_off_c, 0, 56, 64
1, 382176, Note_on_c, 0, 68, 82
1, 382182, Note_on_c, 0, 75, 64
1, 382192, Note_on_c, 0, 70, 53
1, 382214, Note_off_c, 0, 70, 59
1, 382238, Note_on_c, 0, 63, 87
1, 382249, Note_off_c, 0, 68, 39
1, 382283, Note_off_c, 0, 63, 63
1, 382285, Note_on_c, 0, 37, 84
1, 382286, Note_on_c, 0, 49, 116
1, 382304, Note_on_c, 0, 70, 46
1, 382313, Note_off_c, 0, 75, 28
1, 382319, Note_off_c, 0, 49, 67
1, 382328, Note_off_c, 0, 37, 62
1, 382348, Note_on_c, 0, 63, 86
1, 382405, Note_off_c, 0, 63, 68
1, 382413, Note_on_c, 0, 75, 85
1, 382417, Poly_aftertouch_c, 0, 36, 0
1, 382430, Note_off_c, 0, 70, 60
1, 382452, Note_off_c, 0, 75, 65
1, 382489, Note_on_c, 0, 75, 98
1, 382504, Note_on_c, 0, 67, 54
1, 382505, Note_on_c, 0, 65, 56
1, 382507, Note_on_c, 0, 60, 63
1, 382539, Note_off_c, 0, 60, 64
1, 382551, Note_on_c, 0, 63, 64
1, 382560, Note_on_c, 0, 80, 89
1, 382566, Note_off_c, 0, 67, 49
1, 382566, Note_off_c, 0, 65, 55
1, 382569, Note_off_c, 0, 75, 63
1, 382635, Note_on_c, 0, 85, 94
1, 382639, Note_off_c, 0, 80, 65
1, 382641, Note_on_c, 0, 73, 114
1, 382650, Note_on_c, 0, 61, 91
1, 382654, Note_off_c, 0, 63, 39
1, 382676, Note_off_c, 0, 85, 71
1, 382679, Note_off_c, 0, 73, 65
1, 382748, Note_on_c, 0, 71, 107
1, 382751, Note_on_c, 0, 83, 101
1, 382752, Note_on_c, 0, 68, 106
1, 382760, Note_on_c, 0, 82, 77
1, 382761, Note_on_c, 0, 59, 76
1, 382775, Note_off_c, 0, 61, 58
1, 382778, Note_off_c, 0, 82, 73
1, 382793, Note_off_c, 0, 71, 68
1, 382814, Note_off_c, 0, 83, 61
1, 382837, Note_on_c, 0, 63, 82
1, 382851, Note_off_c, 0, 59, 63
1, 382861, Note_off_c, 0, 68, 55
1, 382864, Poly_aftertouch_c, 0, 69, 0
1, 382875, Note_on_c, 0, 61, 29
1, 382905, Note_off_c, 0, 61, 57
1, 382924, Note_on_c, 0, 56, 79
1, 382929, Note_off_c, 0, 63, 64
1, 382977, Note_off_c, 0, 56, 66
1, 383093, Note_on_c, 0, 82, 99
1, 383094, Note_on_c, 0, 70, 105
1, 383097, Note_on_c, 0, 75, 98
1, 383105, Note_on_c, 0, 65, 88
1, 383132, Control_c, 0, 64, 93
1, 383147, Control_c, 0, 64, 52
1, 383162, Control_c, 0, 64, 0
1, 383191, Control_c, 0, 64, 16
1, 383206, Control_c, 0, 64, 51
1, 383221, Control_c, 0, 64, 127
1, 383232, Note_on_c, 0, 58, 68
1, 383234, Note_off_c, 0, 65, 60
1, 383247, Note_off_c, 0, 82, 63
1, 383293, Note_off_c, 0, 75, 57
1, 383298, Note_off_c, 0, 70, 61
1, 383313, Note_on_c, 0, 56, 73
1, 383336, Note_off_c, 0, 58, 61
1, 383403, Note_off_c, 0, 56, 65
1, 383416, Note_on_c, 0, 51, 62
1, 383436, Note_off_c, 0, 51, 63
1, 383458, Note_on_c, 0, 68, 89
1, 383467, Note_on_c, 0, 56, 76
1, 383478, Note_on_c, 0, 69, 70
1, 383495, Note_off_c, 0, 69, 68
1, 383505, Note_on_c, 0, 64, 12
1, 383514, Note_on_c, 0, 53, 57
1, 383517, Note_off_c, 0, 56, 63
1, 383536, Poly_aftertouch_c, 0, 58, 127
1, 383542, Note_off_c, 0, 68, 59
1, 383548, Note_off_c, 0, 53, 49
1, 383556, Note_off_c, 0, 64, 51
1, 383570, Poly_aftertouch_c, 0, 58, 0
1, 383581, Note_on_c, 0, 50, 62
1, 383623, Note_on_c, 0, 61, 43
1, 383628, Note_off_c, 0, 50, 61
1, 383629, Note_on_c, 0, 47, 72
1, 383673, Note_on_c, 0, 44, 70
1, 383675, Note_off_c, 0, 61, 63
1, 383687, Note_off_c, 0, 47, 64
1, 383703, Note_on_c, 0, 63, 89
1, 383710, Note_on_c, 0, 56, 76
1, 383715, Note_on_c, 0, 51, 77
1, 383717, Note_off_c, 0, 44, 60
1, 383772, Note_on_c, 0, 47, 53
1, 383800, Poly_aftertouch_c, 0, 64, 127
1, 383806, Note_off_c, 0, 47, 60
1, 383830, Poly_aftertouch_c, 0, 64, 0
1, 383845, Note_on_c, 0, 42, 72
1, 383930, Note_off_c, 0, 42, 61
1, 384010, Note_on_c, 0, 32, 96
1, 384059, Control_c, 0, 64, 80
1, 384073, Control_c, 0, 64, 52
1, 384088, Control_c, 0, 64, 0
1, 384094, Note_off_c, 0, 56, 58
1, 384133, Control_c, 0, 64, 24
1, 384147, Control_c, 0, 64, 52
1, 384162, Control_c, 0, 64, 92
1, 384177, Control_c, 0, 64, 127
1, 384188, Note_off_c, 0, 63, 62
1, 384214, Note_off_c, 0, 51, 63
1, 384228, Note_on_c, 0, 39, 63
1, 384265, Note_off_c, 0, 32, 61
1, 384301, Note_on_c, 0, 46, 71
1, 384321, Note_off_c, 0, 39, 62
1, 384334, Note_off_c, 0, 46, 66
1, 384358, Note_on_c, 0, 48, 71
1, 384413, Note_on_c, 0, 54, 76
1, 384442, Note_off_c, 0, 48, 56
1, 384466, Note_on_c, 0, 58, 79
1, 384492, Note_off_c, 0, 54, 62
1, 384536, Note_on_c, 0, 63, 99
1, 384565, Note_off_c, 0, 58, 61
1, 384575, Note_off_c, 0, 63, 63
1, 384658, Note_on_c, 0, 58, 70
1, 384720, Note_on_c, 0, 54, 76
1, 384729, Note_off_c, 0, 58, 62
1, 384772, Note_on_c, 0, 48, 69
1, 384784, Note_off_c, 0, 54, 65
1, 384804, Note_off_c, 0, 48, 66
1, 384813, Note_on_c, 0, 46, 75
1, 384874, Note_on_c, 0, 39, 74
1, 384905, Note_off_c, 0, 46, 63
1, 384956, Note_on_c, 0, 32, 94
1, 384969, Note_off_c, 0, 39, 63
1, 385002, Note_on_c, 0, 34, 12
1, 385014, Control_c, 0, 64, 65
1, 385029, Control_c, 0, 64, 38
1, 385043, Control_c, 0, 64, 0
1, 385049, Note_off_c, 0, 34, 38
1, 385057, Note_on_c, 0, 70, 88
1, 385059, Note_on_c, 0, 58, 86
1, 385067, Note_on_c, 0, 66, 71
1, 385079, Note_off_c, 0, 58, 71
1, 385085, Note_off_c, 0, 66, 68
1, 385103, Control_c, 0, 64, 34
1, 385104, Note_on_c, 0, 39, 67
1, 385115, Note_on_c, 0, 69, 79
1, 385118, Control_c, 0, 64, 51
1, 385121, Note_on_c, 0, 72, 91
1, 385130, Note_on_c, 0, 60, 79
1, 385133, Control_c, 0, 64, 65
1, 385136, Note_off_c, 0, 32, 48
1, 385148, Control_c, 0, 64, 94
1, 385162, Control_c, 0, 64, 106
1, 385181, Note_on_c, 0, 42, 73
1, 385192, Control_c, 0, 64, 101
1, 385202, Note_off_c, 0, 39, 63
1, 385206, Control_c, 0, 64, 100
1, 385216, Note_off_c, 0, 42, 61
1, 385251, Control_c, 0, 64, 100
1, 385255, Note_on_c, 0, 48, 58
1, 385265, Note_off_c, 0, 60, 53
1, 385279, Note_on_c, 0, 47, 5
1, 385292, Note_off_c, 0, 70, 0
1, 385295, Note_off_c, 0, 48, 56
1, 385295, Control_c, 0, 64, 102
1, 385303, Note_off_c, 0, 72, 58
1, 385310, Control_c, 0, 64, 104
1, 385325, Control_c, 0, 64, 105
1, 385330, Poly_aftertouch_c, 0, 70, 127
1, 385334, Note_on_c, 0, 51, 66
1, 385339, Note_off_c, 0, 47, 50
1, 385362, Control_c, 0, 64, 106
1, 385378, Note_off_c, 0, 69, 58
1, 385384, Poly_aftertouch_c, 0, 70, 0
1, 385386, Note_on_c, 0, 54, 79
1, 385408, Note_off_c, 0, 51, 60
1, 385440, Note_off_c, 0, 54, 63
1, 385450, Note_on_c, 0, 57, 73
1, 385467, Control_c, 0, 64, 107
1, 385514, Note_off_c, 0, 57, 58
1, 385525, Poly_aftertouch_c, 0, 49, 127
1, 385526, Note_on_c, 0, 54, 70
1, 385526, Control_c, 0, 64, 108
1, 385541, Control_c, 0, 64, 111
1, 385556, Control_c, 0, 64, 127
1, 385557, Poly_aftertouch_c, 0, 49, 0
1, 385571, Note_on_c, 0, 51, 78
1, 385578, Note_off_c, 0, 54, 62
1, 385612, Note_off_c, 0, 51, 64
1, 385645, Note_on_c, 0, 47, 79
1, 385678, Note_off_c, 0, 47, 61
1, 385717, Note_on_c, 0, 42, 77
1, 385791, Note_on_c, 0, 39, 67
1, 385798, Note_off_c, 0, 42, 56
1, 385846, Note_on_c, 0, 32, 88
1, 385848, Note_off_c, 0, 39, 63
1, 385867, Control_c, 0, 64, 97
1, 385882, Control_c, 0, 64, 63
1, 385897, Control_c, 0, 64, 39
1, 385911, Control_c, 0, 64, 0
1, 385964, Note_on_c, 0, 39, 64
1, 385971, Control_c, 0, 64, 24
1, 385985, Control_c, 0, 64, 42
1, 386000, Control_c, 0, 64, 58
1, 386015, Control_c, 0, 64, 69
1, 386020, Note_off_c, 0, 32, 58
1, 386030, Control_c, 0, 64, 91
1, 386045, Control_c, 0, 64, 103
1, 386051, Note_on_c, 0, 42, 67
1, 386075, Control_c, 0, 64, 102
1, 386090, Control_c, 0, 64, 101
1, 386099, Note_off_c, 0, 39, 59
1, 386115, Note_off_c, 0, 42, 57
1, 386122, Note_on_c, 0, 45, 63
1, 386176, Note_on_c, 0, 48, 71
1, 386209, Note_off_c, 0, 45, 60
1, 386236, Note_on_c, 0, 51, 76
1, 386259, Control_c, 0, 64, 101
1, 386272, Note_off_c, 0, 48, 64
1, 386290, Control_c, 0, 64, 100
1, 386297, Note_on_c, 0, 54, 78
1, 386305, Note_off_c, 0, 51, 65
1, 386320, Control_c, 0, 64, 100
1, 386334, Control_c, 0, 64, 99
1, 386336, Poly_aftertouch_c, 0, 51, 0
1, 386345, Note_on_c, 0, 51, 60
1, 386349, Control_c, 0, 64, 98
1, 386364, Control_c, 0, 64, 98
1, 386373, Note_off_c, 0, 54, 62
1, 386379, Control_c, 0, 64, 97
1, 386394, Control_c, 0, 64, 95
1, 386407, Note_on_c, 0, 48, 69
1, 386409, Control_c, 0, 64, 94
1, 386423, Control_c, 0, 64, 93
1, 386426, Note_off_c, 0, 51, 62
1, 386453, Control_c, 0, 64, 93
1, 386464, Note_off_c, 0, 48, 64
1, 386468, Control_c, 0, 64, 92
1, 386473, Note_on_c, 0, 45, 55
1, 386483, Control_c, 0, 64, 92
1, 386514, Note_on_c, 0, 42, 45
1, 386534, Note_off_c, 0, 45, 56
1, 386539, Note_on_c, 0, 39, 68
1, 386564, Note_off_c, 0, 42, 53
1, 386587, Control_c, 0, 64, 93
1, 386602, Control_c, 0, 64, 95
1, 386614, Note_on_c, 0, 36, 70
1, 386617, Control_c, 0, 64, 100
1, 386632, Control_c, 0, 64, 111
1, 386647, Control_c, 0, 64, 127
1, 386685, Note_on_c, 0, 32, 82
1, 386687, Note_off_c, 0, 39, 36
1, 386703, Note_off_c, 0, 36, 62
1, 386706, Control_c, 0, 64, 83
1, 386721, Control_c, 0, 64, 64
1, 386735, Control_c, 0, 64, 47
1, 386750, Control_c, 0, 64, 0
1, 386775, Note_on_c, 0, 36, 59
1, 386809, Control_c, 0, 64, 34
1, 386824, Control_c, 0, 64, 52
1, 386839, Control_c, 0, 64, 70
1, 386861, Control_c, 0, 64, 127
1, 386888, Note_on_c, 0, 39, 65
1, 386923, Note_off_c, 0, 32, 56
1, 386939, Note_on_c, 0, 42, 63
1, 386948, Note_off_c, 0, 36, 59
1, 386961, Note_off_c, 0, 39, 61
1, 387000, Note_on_c, 0, 45, 61
1, 387032, Note_off_c, 0, 42, 59
1, 387061, Note_on_c, 0, 48, 66
1, 387103, Note_off_c, 0, 45, 60
1, 387123, Note_off_c, 0, 48, 63
1, 387124, Note_on_c, 0, 51, 74
1, 387184, Note_on_c, 0, 48, 62
1, 387204, Note_off_c, 0, 51, 63
1, 387239, Note_on_c, 0, 45, 65
1, 387260, Note_off_c, 0, 48, 61
1, 387311, Note_off_c, 0, 45, 62
1, 387319, Note_on_c, 0, 42, 61
1, 387328, Note_on_c, 0, 39, 60
1, 387416, Note_off_c, 0, 42, 60
1, 387428, Note_on_c, 0, 36, 65
1, 387436, Note_off_c, 0, 39, 61
1, 387526, Note_off_c, 0, 36, 62
1, 387553, Note_on_c, 0, 30, 89
1, 387558, Control_c, 0, 64, 86
1, 387565, Note_on_c, 0, 32, 71
1, 387573, Control_c, 0, 64, 61
1, 387588, Control_c, 0, 64, 31
1, 387610, Control_c, 0, 64, 0
1, 387610, Note_on_c, 0, 31, 37
1, 387636, Note_off_c, 0, 32, 58
1, 387653, Note_off_c, 0, 31, 32
1, 387669, Control_c, 0, 64, 11
1, 387684, Control_c, 0, 64, 47
1, 387699, Control_c, 0, 64, 67
1, 387714, Control_c, 0, 64, 127
1, 387860, Note_off_c, 0, 30, 61
1, 387899, Note_on_c, 0, 40, 50
1, 387959, Note_off_c, 0, 40, 62
1, 387971, Note_on_c, 0, 43, 59
1, 388038, Note_off_c, 0, 43, 59
1, 388050, Note_on_c, 0, 46, 55
1, 388102, Note_off_c, 0, 46, 64
1, 388160, Note_on_c, 0, 52, 60
1, 388217, Note_off_c, 0, 52, 49
1, 388245, Note_on_c, 0, 55, 51
1, 388296, Note_off_c, 0, 55, 62
1, 388318, Note_on_c, 0, 58, 59
1, 388430, Note_on_c, 0, 63, 84
1, 388432, Note_on_c, 0, 51, 77
1, 388563, Note_off_c, 0, 63, 55
1, 388574, Note_on_c, 0, 55, 54
1, 388594, Note_off_c, 0, 58, 51
1, 388599, Note_off_c, 0, 51, 38
1, 388637, Note_off_c, 0, 55, 64
1, 388659, Note_on_c, 0, 52, 70
1, 388761, Note_off_c, 0, 52, 59
1, 388763, Note_on_c, 0, 63, 90
1, 388774, Note_on_c, 0, 51, 71
1, 388890, Note_on_c, 0, 46, 60
1, 388907, Note_off_c, 0, 63, 56
1, 388920, Note_off_c, 0, 51, 49
1, 388978, Note_on_c, 0, 43, 62
1, 388989, Note_off_c, 0, 46, 56
1, 389083, Note_on_c, 0, 63, 91
1, 389091, Note_on_c, 0, 51, 73
1, 389157, Note_off_c, 0, 43, 33
1, 389159, Note_on_c, 0, 40, 55
1, 389214, Note_off_c, 0, 51, 61
1, 389215, Note_off_c, 0, 63, 56
1, 389240, Note_off_c, 0, 40, 60
1, 389259, Note_on_c, 0, 43, 58
1, 389330, Note_off_c, 0, 43, 60
1, 389340, Note_on_c, 0, 46, 65
1, 389379, Note_on_c, 0, 49, 82
1, 389380, Note_on_c, 0, 61, 90
1, 389460, Note_off_c, 0, 49, 62
1, 389485, Note_off_c, 0, 46, 63
1, 389501, Note_off_c, 0, 61, 59
1, 389532, Note_on_c, 0, 52, 62
1, 389628, Note_off_c, 0, 52, 59
1, 389632, Note_on_c, 0, 55, 58
1, 389712, Note_on_c, 0, 63, 94
1, 389726, Note_on_c, 0, 51, 75
1, 389750, Note_on_c, 0, 54, 42
1, 389781, Note_on_c, 0, 58, 51
1, 389804, Note_off_c, 0, 63, 63
1, 389806, Note_off_c, 0, 55, 35
1, 389859, Note_off_c, 0, 54, 27
1, 389866, Note_off_c, 0, 51, 64
1, 389892, Note_off_c, 0, 58, 62
1, 389893, Note_on_c, 0, 55, 49
1, 389920, Note_off_c, 0, 55, 64
1, 389956, Note_on_c, 0, 52, 62
1, 389990, Note_off_c, 0, 52, 65
1, 390036, Note_on_c, 0, 51, 62
1, 390094, Note_off_c, 0, 51, 58
1, 390107, Note_on_c, 0, 46, 62
1, 390148, Note_off_c, 0, 46, 64
1, 390176, Note_on_c, 0, 43, 54
1, 390219, Note_off_c, 0, 43, 60
1, 390233, Note_on_c, 0, 30, 74
1, 390262, Note_on_c, 0, 40, 55
1, 390284, Note_off_c, 0, 30, 63
1, 390337, Note_on_c, 0, 43, 54
1, 390341, Note_off_c, 0, 40, 58
1, 390391, Control_c, 0, 67, 8
1, 390401, Note_off_c, 0, 43, 56
1, 390406, Control_c, 0, 67, 8
1, 390415, Note_on_c, 0, 46, 55
1, 390421, Control_c, 0, 67, 9
1, 390450, Control_c, 0, 67, 9
1, 390455, Note_off_c, 0, 46, 64
1, 390480, Control_c, 0, 67, 10
1, 390480, Note_on_c, 0, 51, 49
1, 390509, Control_c, 0, 67, 10
1, 390510, Note_off_c, 0, 51, 62
1, 390556, Note_on_c, 0, 52, 64
1, 390606, Control_c, 0, 67, 11
1, 390612, Note_off_c, 0, 52, 57
1, 390626, Note_on_c, 0, 55, 57
1, 390635, Control_c, 0, 67, 12
1, 390665, Note_off_c, 0, 55, 65
1, 390691, Note_on_c, 0, 58, 60
1, 390752, Note_off_c, 0, 58, 62
1, 390761, Note_on_c, 0, 55, 57
1, 390781, Note_off_c, 0, 55, 67
1, 390813, Control_c, 0, 67, 12
1, 390817, Note_on_c, 0, 52, 61
1, 390851, Note_off_c, 0, 52, 56
1, 390857, Control_c, 0, 67, 13
1, 390872, Control_c, 0, 67, 14
1, 390887, Control_c, 0, 67, 14
1, 390895, Note_on_c, 0, 51, 61
1, 390901, Control_c, 0, 67, 16
1, 390916, Control_c, 0, 67, 20
1, 390931, Control_c, 0, 67, 23
1, 390945, Note_off_c, 0, 51, 50
1, 390946, Control_c, 0, 67, 27
1, 390960, Control_c, 0, 67, 32
1, 390965, Note_on_c, 0, 46, 63
1, 390975, Control_c, 0, 67, 37
1, 390990, Control_c, 0, 67, 43
1, 391005, Control_c, 0, 67, 49
1, 391020, Control_c, 0, 67, 55
1, 391024, Note_off_c, 0, 46, 62
1, 391035, Control_c, 0, 67, 61
1, 391042, Note_on_c, 0, 43, 47
1, 391050, Control_c, 0, 67, 65
1, 391065, Control_c, 0, 67, 67
1, 391080, Control_c, 0, 67, 68
1, 391085, Note_off_c, 0, 43, 57
1, 391095, Control_c, 0, 67, 69
1, 391108, Note_on_c, 0, 40, 58
1, 391110, Control_c, 0, 67, 69
1, 391154, Control_c, 0, 67, 66
1, 391169, Control_c, 0, 67, 62
1, 391170, Note_off_c, 0, 40, 61
1, 391181, Note_on_c, 0, 43, 49
1, 391184, Control_c, 0, 67, 58
1, 391199, Control_c, 0, 67, 54
1, 391214, Control_c, 0, 67, 48
1, 391220, Note_off_c, 0, 43, 59
1, 391229, Control_c, 0, 67, 37
1, 391234, Note_on_c, 0, 46, 57
1, 391243, Control_c, 0, 67, 18
1, 391258, Control_c, 0, 67, 0
1, 391269, Note_off_c, 0, 46, 61
1, 391282, Note_on_c, 0, 51, 53
1, 391315, Note_off_c, 0, 51, 66
1, 391373, Note_on_c, 0, 52, 58
1, 391416, Note_off_c, 0, 52, 52
1, 391449, Note_on_c, 0, 55, 52
1, 391496, Note_off_c, 0, 55, 61
1, 391528, Note_on_c, 0, 49, 84
1, 391530, Note_on_c, 0, 58, 56
1, 391609, Note_off_c, 0, 58, 61
1, 391625, Note_on_c, 0, 55, 47
1, 391657, Note_off_c, 0, 55, 66
1, 391670, Note_off_c, 0, 49, 61
1, 391708, Note_on_c, 0, 52, 55
1, 391747, Note_off_c, 0, 52, 56
1, 391797, Note_on_c, 0, 51, 56
1, 391861, Note_off_c, 0, 51, 56
1, 391879, Note_on_c, 0, 46, 53
1, 391952, Note_off_c, 0, 46, 55
1, 391954, Note_on_c, 0, 43, 56
1, 392103, Note_on_c, 0, 51, 77
1, 392111, Note_on_c, 0, 40, 55
1, 392116, Note_off_c, 0, 43, 34
1, 392201, Note_off_c, 0, 40, 53
1, 392214, Note_on_c, 0, 43, 51
1, 392260, Note_off_c, 0, 51, 57
1, 392290, Note_on_c, 0, 46, 53
1, 392331, Note_off_c, 0, 43, 37
1, 392346, Note_off_c, 0, 46, 61
1, 392376, Note_on_c, 0, 51, 45
1, 392406, Note_off_c, 0, 51, 52
1, 392491, Note_on_c, 0, 52, 22
1, 392526, Note_off_c, 0, 52, 57
1, 392543, Note_on_c, 0, 55, 52
1, 392591, Note_off_c, 0, 55, 60
1, 392639, Note_on_c, 0, 58, 43
1, 392667, Control_c, 0, 67, 8
1, 392683, Control_c, 0, 67, 8
1, 392687, Note_on_c, 0, 46, 70
1, 392697, Control_c, 0, 67, 9
1, 392712, Control_c, 0, 67, 10
1, 392727, Note_off_c, 0, 58, 51
1, 392727, Control_c, 0, 67, 13
1, 392733, Note_on_c, 0, 55, 37
1, 392742, Control_c, 0, 67, 16
1, 392757, Control_c, 0, 67, 20
1, 392767, Note_off_c, 0, 55, 56
1, 392771, Control_c, 0, 67, 26
1, 392786, Control_c, 0, 67, 34
1, 392798, Note_off_c, 0, 46, 64
1, 392801, Control_c, 0, 67, 45
1, 392811, Note_on_c, 0, 52, 60
1, 392816, Control_c, 0, 67, 59
1, 392830, Control_c, 0, 67, 76
1, 392853, Control_c, 0, 67, 98
1, 392856, Note_off_c, 0, 52, 62
1, 392868, Control_c, 0, 67, 119
1, 392882, Control_c, 0, 67, 127
1, 392944, Note_on_c, 0, 48, 46
1, 392996, Note_off_c, 0, 48, 55
1, 393053, Note_on_c, 0, 43, 41
1, 393094, Note_off_c, 0, 43, 59
1, 393187, Poly_aftertouch_c, 0, 40, 127
1, 393229, Poly_aftertouch_c, 0, 40, 0
1, 393297, Note_on_c, 0, 30, 73
1, 393326, Control_c, 0, 64, 67
1, 393341, Control_c, 0, 64, 49
1, 393355, Control_c, 0, 64, 0
1, 393408, Note_on_c, 0, 55, 61
1, 393408, Note_on_c, 0, 67, 67
1, 393415, Control_c, 0, 64, 24
1, 393424, Note_on_c, 0, 64, 40
1, 393429, Note_on_c, 0, 36, 60
1, 393429, Control_c, 0, 64, 36
1, 393430, Note_off_c, 0, 55, 62
1, 393444, Control_c, 0, 64, 39
1, 393456, Note_off_c, 0, 64, 51
1, 393459, Control_c, 0, 64, 38
1, 393470, Note_off_c, 0, 30, 61
1, 393475, Note_on_c, 0, 66, 69
1, 393475, Control_c, 0, 64, 36
1, 393481, Note_on_c, 0, 69, 69
1, 393488, Note_off_c, 0, 67, 59
1, 393490, Control_c, 0, 64, 35
1, 393491, Note_off_c, 0, 36, 62
1, 393492, Note_on_c, 0, 57, 51
1, 393518, Note_on_c, 0, 43, 63
1, 393519, Control_c, 0, 64, 38
1, 393534, Control_c, 0, 64, 42
1, 393549, Control_c, 0, 64, 49
1, 393564, Control_c, 0, 64, 56
1, 393567, Note_off_c, 0, 43, 59
1, 393579, Control_c, 0, 64, 61
1, 393601, Control_c, 0, 64, 63
1, 393619, Note_on_c, 0, 46, 59
1, 393630, Control_c, 0, 64, 61
1, 393645, Control_c, 0, 64, 57
1, 393659, Control_c, 0, 64, 53
1, 393670, Note_on_c, 0, 48, 53
1, 393671, Note_off_c, 0, 46, 57
1, 393674, Control_c, 0, 64, 49
1, 393689, Control_c, 0, 64, 45
1, 393704, Control_c, 0, 64, 42
1, 393719, Control_c, 0, 64, 41
1, 393724, Note_on_c, 0, 52, 66
1, 393728, Note_off_c, 0, 48, 58
1, 393748, Control_c, 0, 64, 41
1, 393759, Note_off_c, 0, 52, 65
1, 393763, Control_c, 0, 64, 40
1, 393777, Control_c, 0, 64, 38
1, 393787, Note_on_c, 0, 55, 62
1, 393792, Control_c, 0, 64, 34
1, 393807, Control_c, 0, 64, 28
1, 393822, Control_c, 0, 64, 18
1, 393837, Control_c, 0, 64, 0
1, 393844, Note_off_c, 0, 55, 62
1, 393853, Note_on_c, 0, 52, 67
1, 393897, Control_c, 0, 64, 14
1, 393911, Control_c, 0, 64, 27
1, 393914, Note_on_c, 0, 48, 33
1, 393917, Note_off_c, 0, 52, 63
1, 393926, Control_c, 0, 64, 36
1, 393941, Control_c, 0, 64, 45
1, 393941, Note_on_c, 0, 46, 61
1, 393949, Note_off_c, 0, 48, 52
1, 393956, Control_c, 0, 64, 52
1, 393970, Note_off_c, 0, 46, 67
1, 393970, Control_c, 0, 64, 58
1, 393974, Poly_aftertouch_c, 0, 63, 127
1, 393985, Control_c, 0, 64, 61
1, 394000, Control_c, 0, 64, 61
1, 394015, Control_c, 0, 64, 60
1, 394028, Note_on_c, 0, 43, 44
1, 394030, Control_c, 0, 64, 57
1, 394044, Control_c, 0, 64, 54
1, 394059, Control_c, 0, 64, 52
1, 394062, Note_off_c, 0, 43, 52
1, 394062, Note_off_c, 0, 69, 59
1, 394074, Note_on_c, 0, 40, 61
1, 394074, Control_c, 0, 64, 52
1, 394099, Note_off_c, 0, 66, 57
1, 394108, Note_off_c, 0, 40, 63
1, 394132, Note_on_c, 0, 36, 53
1, 394134, Poly_aftertouch_c, 0, 63, 0
1, 394177, Note_off_c, 0, 57, 62
1, 394177, Control_c, 0, 64, 53
1, 394190, Note_off_c, 0, 36, 63
1, 394192, Control_c, 0, 64, 54
1, 394207, Control_c, 0, 64, 55
1, 394209, Note_on_c, 0, 30, 67
1, 394222, Control_c, 0, 64, 55
1, 394237, Control_c, 0, 64, 51
1, 394251, Control_c, 0, 64, 42
1, 394267, Control_c, 0, 64, 24
1, 394282, Control_c, 0, 64, 0
1, 394295, Note_on_c, 0, 36, 55
1, 394313, Note_off_c, 0, 30, 56
1, 394349, Control_c, 0, 64, 17
1, 394364, Control_c, 0, 64, 29
1, 394379, Control_c, 0, 64, 36
1, 394385, Note_on_c, 0, 40, 60
1, 394385, Note_off_c, 0, 36, 59
1, 394394, Control_c, 0, 64, 40
1, 394408, Control_c, 0, 64, 45
1, 394423, Control_c, 0, 64, 48
1, 394438, Control_c, 0, 64, 51
1, 394453, Control_c, 0, 64, 54
1, 394458, Note_off_c, 0, 40, 61
1, 394468, Control_c, 0, 64, 57
1, 394470, Note_on_c, 0, 43, 57
1, 394482, Control_c, 0, 64, 59
1, 394497, Control_c, 0, 64, 61
1, 394512, Control_c, 0, 64, 62
1, 394521, Note_on_c, 0, 46, 59
1, 394527, Control_c, 0, 64, 63
1, 394542, Control_c, 0, 64, 62
1, 394546, Note_off_c, 0, 43, 56
1, 394556, Control_c, 0, 64, 61
1, 394571, Control_c, 0, 64, 58
1, 394586, Control_c, 0, 64, 51
1, 394590, Note_on_c, 0, 48, 56
1, 394600, Control_c, 0, 64, 41
1, 394607, Note_off_c, 0, 46, 63
1, 394615, Control_c, 0, 64, 34
1, 394630, Control_c, 0, 64, 31
1, 394641, Note_off_c, 0, 48, 63
1, 394645, Note_on_c, 0, 52, 71
1, 394689, Control_c, 0, 64, 28
1, 394696, Note_on_c, 0, 48, 53
1, 394700, Note_off_c, 0, 52, 64
1, 394704, Control_c, 0, 64, 19
1, 394719, Control_c, 0, 64, 14
1, 394734, Control_c, 0, 64, 15
1, 394749, Control_c, 0, 64, 20
1, 394752, Note_on_c, 0, 46, 64
1, 394756, Note_off_c, 0, 48, 64
1, 394764, Control_c, 0, 64, 29
1, 394779, Control_c, 0, 64, 36
1, 394791, Note_off_c, 0, 46, 66
1, 394793, Control_c, 0, 64, 43
1, 394808, Control_c, 0, 64, 46
1, 394818, Note_on_c, 0, 43, 52
1, 394823, Control_c, 0, 64, 47
1, 394857, Note_on_c, 0, 40, 56
1, 394858, Note_off_c, 0, 43, 61
1, 394867, Control_c, 0, 64, 48
1, 394882, Control_c, 0, 64, 49
1, 394897, Control_c, 0, 64, 51
1, 394909, Note_off_c, 0, 40, 59
1, 394912, Control_c, 0, 64, 53
1, 394920, Note_on_c, 0, 36, 49
1, 394927, Control_c, 0, 64, 56
1, 394941, Control_c, 0, 64, 58
1, 394956, Control_c, 0, 64, 60
1, 394966, Note_off_c, 0, 36, 64
1, 394971, Control_c, 0, 64, 59
1, 394986, Control_c, 0, 64, 55
1, 394992, Note_on_c, 0, 30, 63
1, 395000, Control_c, 0, 64, 42
1, 395015, Control_c, 0, 64, 15
1, 395030, Control_c, 0, 64, 0
1, 395098, Control_c, 0, 64, 12
1, 395104, Note_on_c, 0, 34, 47
1, 395108, Note_off_c, 0, 30, 60
1, 395113, Control_c, 0, 64, 25
1, 395127, Control_c, 0, 64, 29
1, 395142, Control_c, 0, 64, 31
1, 395151, Note_off_c, 0, 34, 63
1, 395157, Control_c, 0, 64, 33
1, 395171, Control_c, 0, 64, 35
1, 395176, Note_on_c, 0, 36, 51
1, 395186, Control_c, 0, 64, 38
1, 395201, Control_c, 0, 64, 40
1, 395216, Control_c, 0, 64, 41
1, 395217, Note_off_c, 0, 36, 64
1, 395230, Control_c, 0, 64, 42
1, 395232, Note_on_c, 0, 40, 55
1, 395245, Control_c, 0, 64, 43
1, 395260, Control_c, 0, 64, 44
1, 395275, Control_c, 0, 64, 46
1, 395283, Note_off_c, 0, 40, 57
1, 395289, Note_on_c, 0, 43, 51
1, 395290, Control_c, 0, 64, 48
1, 395304, Control_c, 0, 64, 49
1, 395319, Control_c, 0, 64, 48
1, 395333, Note_on_c, 0, 46, 65
1, 395334, Control_c, 0, 64, 45
1, 395349, Control_c, 0, 64, 39
1, 395356, Note_off_c, 0, 43, 56
1, 395364, Control_c, 0, 64, 32
1, 395378, Control_c, 0, 64, 29
1, 395393, Note_off_c, 0, 46, 64
1, 395393, Control_c, 0, 64, 29
1, 395399, Note_on_c, 0, 48, 65
1, 395408, Control_c, 0, 64, 33
1, 395423, Control_c, 0, 64, 38
1, 395438, Control_c, 0, 64, 44
1, 395448, Note_on_c, 0, 46, 49
1, 395453, Control_c, 0, 64, 47
1, 395459, Note_off_c, 0, 48, 63
1, 395467, Control_c, 0, 64, 45
1, 395482, Control_c, 0, 64, 42
1, 395497, Control_c, 0, 64, 39
1, 395498, Note_off_c, 0, 46, 65
1, 395500, Note_on_c, 0, 43, 64
1, 395512, Control_c, 0, 64, 38
1, 395534, Note_off_c, 0, 43, 63
1, 395541, Control_c, 0, 64, 39
1, 395556, Control_c, 0, 64, 39
1, 395560, Note_on_c, 0, 40, 54
1, 395601, Control_c, 0, 64, 40
1, 395605, Note_off_c, 0, 40, 61
1, 395607, Note_on_c, 0, 34, 62
1, 395609, Note_on_c, 0, 36, 10
1, 395615, Control_c, 0, 64, 40
1, 395630, Control_c, 0, 64, 41
1, 395659, Note_off_c, 0, 36, 36
1, 395668, Note_on_c, 0, 31, 49
1, 395668, Note_off_c, 0, 34, 59
1, 395675, Control_c, 0, 64, 38
1, 395689, Control_c, 0, 64, 30
1, 395704, Control_c, 0, 64, 9
1, 395719, Control_c, 0, 64, 0
1, 395723, Note_on_c, 0, 30, 57
1, 395793, Control_c, 0, 64, 18
1, 395808, Note_off_c, 0, 30, 50
1, 395808, Control_c, 0, 64, 27
1, 395821, Note_on_c, 0, 34, 54
1, 395822, Control_c, 0, 64, 31
1, 395843, Note_off_c, 0, 31, 62
1, 395845, Control_c, 0, 64, 33
1, 395860, Control_c, 0, 64, 36
1, 395876, Control_c, 0, 64, 38
1, 395891, Control_c, 0, 64, 42
1, 395906, Control_c, 0, 64, 46
1, 395915, Note_off_c, 0, 34, 59
1, 395916, Note_on_c, 0, 36, 41
1, 395921, Control_c, 0, 64, 49
1, 395935, Control_c, 0, 64, 52
1, 395950, Control_c, 0, 64, 53
1, 395953, Note_off_c, 0, 36, 55
1, 395965, Control_c, 0, 64, 54
1, 395977, Note_on_c, 0, 40, 52
1, 395995, Control_c, 0, 64, 53
1, 396010, Control_c, 0, 64, 51
1, 396013, Note_on_c, 0, 43, 61
1, 396025, Control_c, 0, 64, 43
1, 396034, Note_off_c, 0, 40, 62
1, 396040, Control_c, 0, 64, 26
1, 396054, Control_c, 0, 64, 0
1, 396061, Note_off_c, 0, 43, 59
1, 396072, Note_on_c, 0, 46, 62
1, 396114, Control_c, 0, 64, 20
1, 396128, Control_c, 0, 64, 32
1, 396132, Note_off_c, 0, 46, 61
1, 396133, Note_on_c, 0, 43, 23
1, 396143, Control_c, 0, 64, 38
1, 396158, Control_c, 0, 64, 43
1, 396162, Note_on_c, 0, 40, 52
1, 396172, Control_c, 0, 64, 47
1, 396177, Note_off_c, 0, 43, 47
1, 396187, Control_c, 0, 64, 50
1, 396201, Note_off_c, 0, 40, 64
1, 396202, Control_c, 0, 64, 52
1, 396217, Control_c, 0, 64, 54
1, 396224, Note_on_c, 0, 36, 55
1, 396232, Control_c, 0, 64, 55
1, 396246, Control_c, 0, 64, 56
1, 396261, Control_c, 0, 64, 56
1, 396274, Note_on_c, 0, 34, 57
1, 396276, Control_c, 0, 64, 57
1, 396280, Note_off_c, 0, 36, 56
1, 396306, Control_c, 0, 64, 56
1, 396320, Control_c, 0, 64, 53
1, 396322, Note_off_c, 0, 34, 63
1, 396335, Control_c, 0, 64, 45
1, 396350, Note_on_c, 0, 31, 34
1, 396350, Control_c, 0, 64, 30
1, 396365, Control_c, 0, 64, 0
1, 396367, Note_on_c, 0, 30, 60
1, 396425, Note_on_c, 0, 34, 61
1, 396439, Control_c, 0, 64, 25
1, 396448, Note_off_c, 0, 30, 56
1, 396454, Control_c, 0, 64, 33
1, 396469, Control_c, 0, 64, 39
1, 396476, Note_off_c, 0, 31, 38
1, 396484, Control_c, 0, 64, 45
1, 396497, Note_off_c, 0, 34, 61
1, 396499, Control_c, 0, 64, 49
1, 396511, Note_on_c, 0, 36, 61
1, 396513, Control_c, 0, 64, 53
1, 396528, Control_c, 0, 64, 56
1, 396543, Control_c, 0, 64, 58
1, 396547, Note_off_c, 0, 36, 64
1, 396558, Control_c, 0, 64, 59
1, 396594, Control_c, 0, 64, 58
1, 396601, Note_on_c, 0, 36, 48
1, 396609, Control_c, 0, 64, 52
1, 396624, Control_c, 0, 64, 39
1, 396639, Control_c, 0, 64, 10
1, 396644, Note_off_c, 0, 36, 64
1, 396650, Note_on_c, 0, 40, 60
1, 396654, Control_c, 0, 64, 0
1, 396691, Note_off_c, 0, 40, 65
1, 396704, Note_on_c, 0, 43, 70
1, 396729, Control_c, 0, 64, 24
1, 396743, Control_c, 0, 64, 28
1, 396758, Control_c, 0, 64, 29
1, 396763, Note_on_c, 0, 40, 65
1, 396764, Note_off_c, 0, 43, 62
1, 396797, Note_off_c, 0, 40, 65
1, 396825, Note_on_c, 0, 36, 55
1, 396854, Note_off_c, 0, 36, 54
1, 396860, Note_on_c, 0, 34, 52
1, 396863, Control_c, 0, 64, 26
1, 396877, Control_c, 0, 64, 22
1, 396892, Control_c, 0, 64, 11
1, 396902, Note_off_c, 0, 34, 65
1, 396907, Control_c, 0, 64, 0
1, 396914, Note_on_c, 0, 36, 56
1, 396955, Note_off_c, 0, 36, 61
1, 396960, Note_on_c, 0, 40, 69
1, 396981, Control_c, 0, 64, 12
1, 396992, Note_off_c, 0, 40, 65
1, 396995, Control_c, 0, 64, 25
1, 397010, Control_c, 0, 64, 29
1, 397025, Control_c, 0, 64, 31
1, 397032, Note_on_c, 0, 40, 71
1, 397085, Note_on_c, 0, 36, 63
1, 397089, Note_off_c, 0, 40, 62
1, 397121, Note_off_c, 0, 36, 63
1, 397129, Control_c, 0, 64, 30
1, 397143, Note_on_c, 0, 34, 68
1, 397143, Control_c, 0, 64, 28
1, 397158, Control_c, 0, 64, 26
1, 397173, Control_c, 0, 64, 22
1, 397179, Note_off_c, 0, 34, 65
1, 397187, Control_c, 0, 64, 8
1, 397190, Note_on_c, 0, 31, 66
1, 397202, Control_c, 0, 64, 0
1, 397242, Note_off_c, 0, 31, 63
1, 397246, Note_on_c, 0, 34, 56
1, 397280, Note_off_c, 0, 34, 66
1, 397301, Note_on_c, 0, 36, 61
1, 397330, Note_off_c, 0, 36, 65
1, 397372, Note_on_c, 0, 36, 57
1, 397373, Control_c, 0, 64, 10
1, 397388, Control_c, 0, 64, 11
1, 397417, Note_off_c, 0, 36, 66
1, 397430, Note_on_c, 0, 34, 72
1, 397467, Note_off_c, 0, 34, 63
1, 397478, Control_c, 0, 64, 10
1, 397492, Control_c, 0, 64, 0
1, 397507, Note_on_c, 0, 31, 50
1, 397536, Note_on_c, 0, 28, 53
1, 397558, Note_off_c, 0, 31, 0
1, 397565, Note_off_c, 0, 28, 59
1, 397571, Note_on_c, 0, 31, 50
1, 397624, Note_off_c, 0, 31, 64
1, 397636, Note_on_c, 0, 34, 59
1, 397691, Note_off_c, 0, 34, 0
1, 397707, Note_on_c, 0, 34, 50
1, 397762, Note_off_c, 0, 34, 63
1, 397769, Note_on_c, 0, 31, 61
1, 397819, Note_off_c, 0, 31, 66
1, 397846, Note_on_c, 0, 28, 51
1, 397888, Note_off_c, 0, 28, 63
1, 397896, Note_on_c, 0, 24, 44
1, 397986, Note_on_c, 0, 27, 57
1, 397992, Note_off_c, 0, 24, 57
1, 398151, Note_off_c, 0, 27, 45
1, 398153, Note_on_c, 0, 24, 41
1, 398472, Note_on_c, 0, 23, 44
1, 398508, Note_off_c, 0, 24, 38
1, 399065, Control_c, 0, 64, 11
1, 399080, Control_c, 0, 64, 15
1, 399095, Control_c, 0, 64, 20
1, 399110, Control_c, 0, 64, 25
1, 399125, Control_c, 0, 64, 29
1, 399139, Control_c, 0, 64, 34
1, 399154, Control_c, 0, 64, 39
1, 399169, Control_c, 0, 64, 45
1, 399184, Control_c, 0, 64, 52
1, 399198, Control_c, 0, 64, 59
1, 399213, Control_c, 0, 64, 63
1, 399228, Control_c, 0, 64, 67
1, 399243, Control_c, 0, 64, 71
1, 399258, Control_c, 0, 64, 75
1, 399272, Control_c, 0, 64, 79
1, 399287, Control_c, 0, 64, 83
1, 399302, Control_c, 0, 64, 90
1, 399317, Control_c, 0, 64, 102
1, 399332, Control_c, 0, 64, 127
1, 399679, Note_on_c, 0, 86, 48
1, 399681, Note_on_c, 0, 78, 49
1, 399715, Note_off_c, 0, 23, 33
1, 399936, Note_off_c, 0, 86, 59
1, 399949, Note_off_c, 0, 78, 44
1, 399981, Note_on_c, 0, 87, 47
1, 399995, Note_on_c, 0, 90, 48
1, 400118, Note_off_c, 0, 90, 51
1, 400148, Note_off_c, 0, 87, 35
1, 400160, Note_on_c, 0, 86, 48
1, 400176, Note_on_c, 0, 78, 36
1, 400265, Note_off_c, 0, 86, 56
1, 400280, Note_off_c, 0, 78, 40
1, 400286, Note_on_c, 0, 87, 40
1, 400291, Note_on_c, 0, 90, 48
1, 400364, Note_off_c, 0, 90, 61
1, 400389, Note_off_c, 0, 87, 48
1, 400404, Note_on_c, 0, 78, 48
1, 400408, Note_on_c, 0, 86, 47
1, 400460, Note_off_c, 0, 78, 52
1, 400467, Note_off_c, 0, 86, 58
1, 400499, Note_on_c, 0, 90, 47
1, 400504, Note_on_c, 0, 87, 33
1, 400547, Note_off_c, 0, 90, 61
1, 400583, Note_off_c, 0, 87, 38
1, 400585, Note_on_c, 0, 78, 42
1, 400604, Note_on_c, 0, 86, 38
1, 400627, Note_off_c, 0, 78, 49
1, 400639, Note_off_c, 0, 86, 49
1, 400663, Note_on_c, 0, 87, 40
1, 400666, Note_on_c, 0, 90, 50
1, 400717, Note_off_c, 0, 90, 61
1, 400723, Note_off_c, 0, 87, 54
1, 400748, Note_on_c, 0, 78, 48
1, 400753, Note_on_c, 0, 86, 43
1, 400759, Note_on_c, 0, 53, 59
1, 400773, Note_on_c, 0, 41, 47
1, 400791, Note_off_c, 0, 78, 51
1, 400801, Note_off_c, 0, 86, 46
1, 400837, Note_on_c, 0, 87, 38
1, 400855, Note_on_c, 0, 90, 32
1, 400892, Note_off_c, 0, 87, 50
1, 400892, Note_off_c, 0, 90, 54
1, 400903, Note_on_c, 0, 78, 48
1, 400918, Note_on_c, 0, 86, 48
1, 400947, Note_off_c, 0, 78, 49
1, 400952, Note_off_c, 0, 86, 52
1, 400988, Note_on_c, 0, 90, 44
1, 400991, Note_on_c, 0, 87, 45
1, 401032, Note_off_c, 0, 90, 46
1, 401033, Note_off_c, 0, 87, 55
1, 401036, Note_off_c, 0, 53, 63
1, 401036, Control_c, 0, 67, 121
1, 401042, Note_on_c, 0, 78, 57
1, 401051, Control_c, 0, 67, 110
1, 401063, Note_on_c, 0, 86, 47
1, 401066, Control_c, 0, 67, 98
1, 401088, Control_c, 0, 67, 84
1, 401089, Note_off_c, 0, 78, 55
1, 401098, Note_off_c, 0, 86, 54
1, 401103, Control_c, 0, 67, 70
1, 401117, Control_c, 0, 67, 57
1, 401132, Control_c, 0, 67, 49
1, 401137, Note_on_c, 0, 90, 48
1, 401142, Note_on_c, 0, 87, 40
1, 401147, Control_c, 0, 67, 42
1, 401161, Control_c, 0, 67, 40
1, 401173, Note_off_c, 0, 41, 36
1, 401183, Note_on_c, 0, 78, 60
1, 401188, Note_off_c, 0, 87, 45
1, 401191, Note_on_c, 0, 86, 54
1, 401191, Note_off_c, 0, 90, 46
1, 401221, Control_c, 0, 67, 40
1, 401226, Note_off_c, 0, 78, 55
1, 401230, Note_off_c, 0, 86, 57
1, 401259, Note_on_c, 0, 87, 46
1, 401286, Note_on_c, 0, 90, 39
1, 401333, Note_on_c, 0, 54, 75
1, 401335, Note_off_c, 0, 87, 56
1, 401342, Note_on_c, 0, 78, 50
1, 401342, Note_on_c, 0, 86, 47
1, 401344, Note_off_c, 0, 90, 45
1, 401355, Note_on_c, 0, 42, 55
1, 401369, Control_c, 0, 67, 40
1, 401396, Note_off_c, 0, 86, 57
1, 401399, Control_c, 0, 67, 39
1, 401406, Note_off_c, 0, 78, 61
1, 401414, Control_c, 0, 67, 39
1, 401424, Note_on_c, 0, 87, 45
1, 401450, Note_off_c, 0, 42, 56
1, 401459, Control_c, 0, 67, 38
1, 401462, Note_on_c, 0, 90, 37
1, 401474, Control_c, 0, 67, 38
1, 401480, Note_off_c, 0, 87, 58
1, 401495, Note_on_c, 0, 78, 57
1, 401500, Note_off_c, 0, 90, 55
1, 401503, Note_on_c, 0, 86, 47
1, 401504, Control_c, 0, 67, 37
1, 401531, Note_off_c, 0, 54, 38
1, 401540, Note_off_c, 0, 78, 61
1, 401541, Note_off_c, 0, 86, 54
1, 401548, Control_c, 0, 67, 38
1, 401561, Note_on_c, 0, 87, 55
1, 401596, Note_on_c, 0, 90, 47
1, 401619, Note_off_c, 0, 87, 58
1, 401626, Note_off_c, 0, 90, 57
1, 401637, Control_c, 0, 67, 37
1, 401638, Note_on_c, 0, 78, 68
1, 401641, Note_on_c, 0, 86, 51
1, 401652, Control_c, 0, 67, 36
1, 401666, Control_c, 0, 67, 35
1, 401681, Note_off_c, 0, 86, 56
1, 401681, Control_c, 0, 67, 33
1, 401690, Note_off_c, 0, 78, 63
1, 401696, Control_c, 0, 67, 29
1, 401706, Note_on_c, 0, 90, 54
1, 401711, Control_c, 0, 67, 27
1, 401712, Note_on_c, 0, 87, 60
1, 401726, Control_c, 0, 67, 26
1, 401754, Note_off_c, 0, 87, 60
1, 401756, Note_off_c, 0, 90, 63
1, 401770, Control_c, 0, 67, 27
1, 401779, Note_on_c, 0, 86, 54
1, 401787, Note_on_c, 0, 78, 52
1, 401799, Control_c, 0, 67, 28
1, 401814, Control_c, 0, 67, 29
1, 401833, Note_off_c, 0, 86, 58
1, 401834, Note_off_c, 0, 78, 51
1, 401858, Note_on_c, 0, 87, 58
1, 401866, Control_c, 0, 67, 29
1, 401887, Note_on_c, 0, 90, 54
1, 401896, Control_c, 0, 67, 30
1, 401970, Control_c, 0, 67, 29
1, 401984, Control_c, 0, 67, 29
1, 402026, Note_on_c, 0, 61, 79
1, 402035, Note_on_c, 0, 54, 67
1, 402046, Note_on_c, 0, 51, 59
1, 402053, Note_on_c, 0, 49, 56
1, 402056, Note_off_c, 0, 90, 62
1, 402058, Note_off_c, 0, 87, 58
1, 402081, Note_on_c, 0, 86, 50
1, 402082, Note_on_c, 0, 78, 47
1, 402103, Control_c, 0, 67, 28
1, 402133, Control_c, 0, 67, 28
1, 402163, Control_c, 0, 67, 27
1, 402171, Note_off_c, 0, 86, 56
1, 402192, Note_off_c, 0, 78, 46
1, 402198, Note_on_c, 0, 87, 49
1, 402208, Note_on_c, 0, 90, 51
1, 402222, Control_c, 0, 67, 27
1, 402259, Note_off_c, 0, 90, 60
1, 402277, Note_off_c, 0, 87, 54
1, 402289, Note_on_c, 0, 78, 58
1, 402298, Note_on_c, 0, 86, 44
1, 402306, Note_off_c, 0, 49, 61
1, 402321, Note_off_c, 0, 51, 60
1, 402326, Note_off_c, 0, 78, 53
1, 402332, Note_off_c, 0, 54, 59
1, 402332, Note_off_c, 0, 86, 52
1, 402341, Control_c, 0, 67, 27
1, 402359, Note_on_c, 0, 87, 34
1, 402371, Control_c, 0, 67, 28
1, 402376, Note_off_c, 0, 61, 59
1, 402382, Note_on_c, 0, 90, 43
1, 402386, Control_c, 0, 67, 29
1, 402401, Control_c, 0, 67, 31
1, 402415, Control_c, 0, 67, 33
1, 402419, Note_off_c, 0, 90, 52
1, 402423, Note_on_c, 0, 78, 55
1, 402430, Note_on_c, 0, 86, 51
1, 402430, Control_c, 0, 67, 34
1, 402440, Note_off_c, 0, 87, 37
1, 402445, Control_c, 0, 67, 35
1, 402460, Control_c, 0, 67, 37
1, 402464, Note_off_c, 0, 86, 56
1, 402466, Note_off_c, 0, 78, 55
1, 402475, Control_c, 0, 67, 40
1, 402489, Control_c, 0, 67, 43
1, 402496, Note_on_c, 0, 87, 34
1, 402504, Control_c, 0, 67, 50
1, 402519, Control_c, 0, 67, 62
1, 402526, Note_on_c, 0, 90, 37
1, 402533, Control_c, 0, 67, 73
1, 402548, Control_c, 0, 67, 85
1, 402559, Note_off_c, 0, 87, 48
1, 402562, Note_off_c, 0, 90, 56
1, 402563, Control_c, 0, 67, 98
1, 402573, Note_on_c, 0, 78, 48
1, 402573, Note_on_c, 0, 86, 49
1, 402578, Control_c, 0, 67, 112
1, 402601, Control_c, 0, 67, 127
1, 402611, Note_off_c, 0, 86, 54
1, 402617, Note_off_c, 0, 78, 51
1, 402638, Note_on_c, 0, 87, 43
1, 402666, Note_on_c, 0, 90, 48
1, 402712, Note_off_c, 0, 90, 50
1, 402720, Note_off_c, 0, 87, 54
1, 402729, Note_on_c, 0, 78, 49
1, 402729, Note_on_c, 0, 86, 40
1, 402745, Note_on_c, 0, 66, 54
1, 402755, Note_on_c, 0, 63, 54
1, 402786, Note_off_c, 0, 78, 53
1, 402814, Note_off_c, 0, 86, 36
1, 402815, Note_on_c, 0, 87, 39
1, 402823, Note_off_c, 0, 66, 61
1, 402838, Note_off_c, 0, 63, 60
1, 402870, Note_off_c, 0, 87, 56
1, 402876, Poly_aftertouch_c, 0, 90, 127
1, 402890, Note_on_c, 0, 86, 36
1, 402899, Note_on_c, 0, 78, 47
1, 402926, Note_off_c, 0, 78, 58
1, 402937, Note_off_c, 0, 86, 44
1, 402956, Poly_aftertouch_c, 0, 90, 0
1, 402958, Note_on_c, 0, 87, 45
1, 402988, Note_on_c, 0, 90, 10
1, 403007, Note_off_c, 0, 87, 56
1, 403012, Note_on_c, 0, 78, 51
1, 403033, Note_on_c, 0, 86, 47
1, 403061, Note_off_c, 0, 78, 55
1, 403066, Note_off_c, 0, 86, 52
1, 403073, Note_off_c, 0, 90, 0
1, 403097, Note_on_c, 0, 87, 42
1, 403102, Note_on_c, 0, 90, 26
1, 403147, Note_off_c, 0, 87, 58
1, 403172, Note_on_c, 0, 78, 46
1, 403176, Note_on_c, 0, 86, 42
1, 403182, Note_off_c, 0, 90, 40
1, 403199, Note_off_c, 0, 78, 58
1, 403205, Note_off_c, 0, 86, 53
1, 403228, Note_on_c, 0, 87, 44
1, 403243, Note_on_c, 0, 90, 29
1, 403284, Note_off_c, 0, 87, 56
1, 403289, Note_on_c, 0, 78, 52
1, 403295, Note_off_c, 0, 90, 48
1, 403307, Note_on_c, 0, 86, 40
1, 403345, Note_off_c, 0, 86, 54
1, 403349, Note_off_c, 0, 78, 56
1, 403368, Note_on_c, 0, 87, 47
1, 403406, Note_on_c, 0, 90, 15
1, 403420, Note_off_c, 0, 87, 58
1, 403436, Note_on_c, 0, 86, 49
1, 403456, Note_on_c, 0, 78, 46
1, 403480, Note_off_c, 0, 86, 53
1, 403480, Note_off_c, 0, 90, 40
1, 403483, Note_off_c, 0, 78, 58
1, 403507, Note_on_c, 0, 87, 55
1, 403557, Note_off_c, 0, 87, 54
1, 403558, Poly_aftertouch_c, 0, 90, 127
1, 403570, Note_on_c, 0, 78, 48
1, 403617, Note_off_c, 0, 78, 48
1, 403636, Poly_aftertouch_c, 0, 86, 127
1, 403642, Note_on_c, 0, 87, 44
1, 403645, Note_on_c, 0, 90, 12
1, 403695, Note_off_c, 0, 87, 59
1, 403726, Note_on_c, 0, 78, 40
1, 403726, Note_off_c, 0, 90, 43
1, 403760, Note_off_c, 0, 78, 52
1, 403778, Poly_aftertouch_c, 0, 86, 0
1, 403798, Note_on_c, 0, 87, 44
1, 403802, Note_on_c, 0, 90, 36
1, 403898, Control_c, 0, 64, 80
1, 403913, Control_c, 0, 64, 66
1, 403927, Note_on_c, 0, 54, 55
1, 403927, Control_c, 0, 64, 61
1, 403933, Note_on_c, 0, 47, 52
1, 403933, Note_on_c, 0, 78, 53
1, 403942, Note_off_c, 0, 90, 40
1, 403942, Control_c, 0, 64, 60
1, 403951, Note_on_c, 0, 86, 39
1, 403957, Control_c, 0, 64, 63
1, 403958, Note_off_c, 0, 87, 41
1, 403972, Control_c, 0, 64, 74
1, 403987, Control_c, 0, 64, 127
1, 404000, Note_off_c, 0, 78, 44
1, 404007, Note_off_c, 0, 86, 42
1, 404009, Note_off_c, 0, 47, 64
1, 404012, Note_off_c, 0, 54, 64
1, 404015, Note_on_c, 0, 87, 41
1, 404033, Note_on_c, 0, 90, 51
1, 404067, Note_off_c, 0, 90, 66
1, 404073, Note_off_c, 0, 87, 60
1, 404114, Note_on_c, 0, 78, 54
1, 404127, Note_on_c, 0, 86, 41
1, 404145, Note_off_c, 0, 78, 55
1, 404158, Note_off_c, 0, 86, 53
1, 404177, Note_on_c, 0, 87, 56
1, 404193, Note_on_c, 0, 90, 41
1, 404220, Note_off_c, 0, 87, 59
1, 404250, Note_on_c, 0, 78, 49
1, 404258, Note_on_c, 0, 86, 45
1, 404282, Note_off_c, 0, 78, 56
1, 404284, Note_off_c, 0, 86, 57
1, 404290, Note_off_c, 0, 90, 0
1, 404301, Note_on_c, 0, 87, 55
1, 404323, Note_on_c, 0, 90, 6
1, 404354, Note_off_c, 0, 87, 55
1, 404374, Note_on_c, 0, 86, 47
1, 404379, Note_on_c, 0, 78, 53
1, 404410, Note_off_c, 0, 86, 50
1, 404422, Note_off_c, 0, 78, 56
1, 404428, Note_on_c, 0, 87, 50
1, 404439, Note_on_c, 0, 98, 67
1, 404458, Note_on_c, 0, 102, 83
1, 404468, Note_on_c, 0, 99, 68
1, 404473, Note_off_c, 0, 98, 65
1, 404479, Note_off_c, 0, 102, 70
1, 404489, Note_off_c, 0, 87, 61
1, 404494, Note_on_c, 0, 86, 64
1, 404494, Note_off_c, 0, 99, 68
1, 404520, Note_off_c, 0, 90, 0
1, 404542, Control_c, 0, 64, 114
1, 404544, Note_on_c, 0, 90, 37
1, 404546, Note_on_c, 0, 87, 58
1, 404547, Note_off_c, 0, 86, 59
1, 404557, Control_c, 0, 64, 95
1, 404572, Control_c, 0, 64, 84
1, 404586, Control_c, 0, 64, 76
1, 404587, Note_off_c, 0, 90, 61
1, 404593, Note_off_c, 0, 87, 62
1, 404601, Control_c, 0, 64, 69
1, 404609, Note_on_c, 0, 86, 41
1, 404616, Control_c, 0, 64, 65
1, 404631, Control_c, 0, 64, 61
1, 404638, Note_on_c, 0, 90, 74
1, 404639, Note_off_c, 0, 86, 56
1, 404646, Control_c, 0, 64, 57
1, 404647, Note_on_c, 0, 87, 59
1, 404662, Control_c, 0, 64, 53
1, 404676, Control_c, 0, 64, 48
1, 404691, Note_off_c, 0, 90, 66
1, 404691, Control_c, 0, 64, 44
1, 404693, Note_off_c, 0, 87, 62
1, 404703, Note_on_c, 0, 78, 71
1, 404706, Control_c, 0, 64, 42
1, 404709, Note_on_c, 0, 86, 68
1, 404720, Note_off_c, 0, 78, 70
1, 404721, Control_c, 0, 64, 41
1, 404735, Control_c, 0, 64, 40
1, 404738, Note_off_c, 0, 86, 63
1, 404752, Note_on_c, 0, 87, 62
1, 404753, Note_on_c, 0, 90, 55
1, 404765, Control_c, 0, 64, 39
1, 404791, Note_off_c, 0, 90, 65
1, 404793, Note_off_c, 0, 87, 60
1, 404810, Note_on_c, 0, 78, 56
1, 404832, Control_c, 0, 64, 40
1, 404836, Note_on_c, 0, 86, 40
1, 404847, Control_c, 0, 64, 40
1, 404852, Note_off_c, 0, 78, 57
1, 404862, Control_c, 0, 64, 41
1, 404865, Note_off_c, 0, 86, 55
1, 404869, Note_on_c, 0, 90, 56
1, 404877, Control_c, 0, 64, 42
1, 404879, Note_on_c, 0, 87, 47
1, 404890, Note_off_c, 0, 90, 66
1, 404902, Note_off_c, 0, 87, 62
1, 404904, Note_on_c, 0, 74, 64
1, 404907, Note_on_c, 0, 66, 60
1, 404944, Note_off_c, 0, 66, 63
1, 404950, Control_c, 0, 64, 42
1, 404965, Control_c, 0, 64, 43
1, 404966, Note_off_c, 0, 74, 64
1, 404971, Note_on_c, 0, 75, 75
1, 404980, Control_c, 0, 64, 44
1, 405026, Note_on_c, 0, 74, 58
1, 405034, Note_on_c, 0, 66, 57
1, 405044, Note_off_c, 0, 75, 59
1, 405054, Control_c, 0, 64, 44
1, 405069, Control_c, 0, 64, 46
1, 405076, Note_off_c, 0, 74, 62
1, 405084, Control_c, 0, 64, 48
1, 405088, Note_off_c, 0, 66, 59
1, 405099, Control_c, 0, 64, 49
1, 405114, Control_c, 0, 64, 49
1, 405148, Note_on_c, 0, 54, 75
1, 405158, Note_on_c, 0, 62, 53
1, 405166, Note_off_c, 0, 54, 68
1, 405188, Control_c, 0, 64, 49
1, 405202, Control_c, 0, 64, 48
1, 405206, Note_on_c, 0, 63, 63
1, 405209, Note_on_c, 0, 66, 56
1, 405217, Control_c, 0, 64, 48
1, 405234, Note_off_c, 0, 62, 0
1, 405247, Control_c, 0, 64, 47
1, 405248, Note_on_c, 0, 62, 44
1, 405249, Note_off_c, 0, 66, 59
1, 405254, Note_off_c, 0, 63, 60
1, 405264, Note_on_c, 0, 54, 46
1, 405276, Control_c, 0, 64, 46
1, 405291, Control_c, 0, 64, 46
1, 405293, Note_off_c, 0, 62, 62
1, 405297, Note_on_c, 0, 66, 55
1, 405298, Note_off_c, 0, 54, 53
1, 405306, Control_c, 0, 64, 45
1, 405307, Note_on_c, 0, 63, 51
1, 405336, Note_off_c, 0, 66, 56
1, 405356, Note_off_c, 0, 63, 65
1, 405373, Note_on_c, 0, 50, 58
1, 405379, Note_on_c, 0, 42, 59
1, 405421, Note_off_c, 0, 42, 60
1, 405439, Control_c, 0, 64, 45
1, 405443, Note_on_c, 0, 51, 68
1, 405443, Note_off_c, 0, 50, 63
1, 405455, Control_c, 0, 64, 44
1, 405470, Control_c, 0, 64, 44
1, 405485, Control_c, 0, 64, 43
1, 405497, Note_on_c, 0, 50, 44
1, 405499, Control_c, 0, 64, 42
1, 405504, Note_off_c, 0, 51, 53
1, 405511, Note_on_c, 0, 42, 60
1, 405514, Control_c, 0, 64, 41
1, 405529, Control_c, 0, 64, 41
1, 405544, Control_c, 0, 64, 40
1, 405553, Note_on_c, 0, 51, 34
1, 405567, Note_off_c, 0, 50, 63
1, 405581, Control_c, 0, 64, 40
1, 405594, Note_off_c, 0, 51, 57
1, 405596, Control_c, 0, 64, 39
1, 405603, Note_off_c, 0, 42, 47
1, 405611, Control_c, 0, 64, 38
1, 405626, Control_c, 0, 64, 37
1, 405641, Control_c, 0, 64, 34
1, 405650, Note_on_c, 0, 38, 52
1, 405656, Control_c, 0, 64, 26
1, 405671, Control_c, 0, 64, 10
1, 405686, Control_c, 0, 64, 0
1, 405689, Note_on_c, 0, 30, 23
1, 405698, Note_on_c, 0, 39, 52
1, 405703, Note_off_c, 0, 38, 52
1, 405747, Note_off_c, 0, 39, 61
1, 405766, Note_on_c, 0, 38, 31
1, 405814, Note_on_c, 0, 39, 43
1, 405814, Note_off_c, 0, 38, 53
1, 405817, Note_off_c, 0, 30, 42
1, 405830, Note_on_c, 0, 42, 29
1, 405896, Note_off_c, 0, 39, 60
1, 405925, Note_off_c, 0, 42, 56
1, 405929, Note_on_c, 0, 23, 50
1, 405966, Control_c, 0, 64, 18
1, 405981, Control_c, 0, 64, 39
1, 405996, Control_c, 0, 64, 50
1, 405998, Note_off_c, 0, 23, 64
1, 406011, Control_c, 0, 64, 58
1, 406026, Control_c, 0, 64, 63
1, 406041, Control_c, 0, 64, 64
1, 406056, Control_c, 0, 64, 62
1, 406071, Control_c, 0, 64, 52
1, 406085, Control_c, 0, 64, 36
1, 406100, Control_c, 0, 64, 18
1, 406115, Control_c, 0, 64, 0
1, 406416, Note_on_c, 0, 54, 42
1, 406459, Note_on_c, 0, 59, 35
1, 406467, Note_on_c, 0, 62, 49
1, 406490, Note_off_c, 0, 54, 39
1, 406506, Control_c, 0, 64, 23
1, 406518, Note_on_c, 0, 66, 51
1, 406518, Note_off_c, 0, 59, 52
1, 406521, Control_c, 0, 64, 37
1, 406522, Note_on_c, 0, 70, 49
1, 406534, Note_off_c, 0, 62, 62
1, 406536, Control_c, 0, 64, 48
1, 406551, Control_c, 0, 64, 54
1, 406553, Note_on_c, 0, 74, 53
1, 406562, Note_off_c, 0, 70, 58
1, 406566, Control_c, 0, 64, 57
1, 406568, Note_off_c, 0, 66, 62
1, 406580, Control_c, 0, 64, 56
1, 406595, Control_c, 0, 64, 55
1, 406602, Note_on_c, 0, 78, 62
1, 406610, Note_off_c, 0, 74, 60
1, 406610, Control_c, 0, 64, 53
1, 406625, Control_c, 0, 64, 49
1, 406640, Control_c, 0, 64, 46
1, 406655, Control_c, 0, 64, 44
1, 406658, Note_on_c, 0, 82, 48
1, 406670, Control_c, 0, 64, 41
1, 406685, Control_c, 0, 64, 39
1, 406699, Control_c, 0, 64, 35
1, 406714, Control_c, 0, 64, 29
1, 406729, Control_c, 0, 64, 15
1, 406735, Note_on_c, 0, 75, 46
1, 406744, Control_c, 0, 64, 0
1, 406771, Note_on_c, 0, 77, 32
1, 406833, Control_c, 0, 64, 29
1, 406847, Control_c, 0, 64, 40
1, 406862, Control_c, 0, 64, 49
1, 406877, Control_c, 0, 64, 55
1, 406892, Control_c, 0, 64, 58
1, 406905, Note_off_c, 0, 75, 59
1, 406906, Control_c, 0, 64, 58
1, 406914, Note_off_c, 0, 77, 39
1, 406921, Control_c, 0, 64, 57
1, 406936, Control_c, 0, 64, 57
1, 406951, Control_c, 0, 64, 55
1, 406966, Control_c, 0, 64, 54
1, 406980, Control_c, 0, 64, 53
1, 406995, Control_c, 0, 64, 52
1, 407010, Control_c, 0, 64, 49
1, 407025, Control_c, 0, 64, 47
1, 407041, Control_c, 0, 64, 44
1, 407056, Control_c, 0, 64, 40
1, 407078, Control_c, 0, 64, 36
1, 407093, Control_c, 0, 64, 32
1, 407108, Control_c, 0, 64, 28
1, 407123, Control_c, 0, 64, 22
1, 407137, Control_c, 0, 64, 16
1, 407152, Control_c, 0, 64, 0
1, 407359, Control_c, 0, 64, 25
1, 407374, Control_c, 0, 64, 37
1, 407389, Control_c, 0, 64, 47
1, 407403, Control_c, 0, 64, 58
1, 407418, Control_c, 0, 64, 63
1, 407433, Control_c, 0, 64, 64
1, 407454, Note_off_c, 0, 82, 64
1, 407463, Control_c, 0, 64, 64
1, 407478, Control_c, 0, 64, 63
1, 407486, Note_off_c, 0, 78, 57
1, 407492, Control_c, 0, 64, 62
1, 407507, Control_c, 0, 64, 59
1, 407522, Control_c, 0, 64, 57
1, 407537, Control_c, 0, 64, 56
1, 407552, Control_c, 0, 64, 55
1, 407567, Control_c, 0, 64, 53
1, 407582, Control_c, 0, 64, 51
1, 407596, Control_c, 0, 64, 49
1, 407611, Control_c, 0, 64, 46
1, 407626, Control_c, 0, 64, 43
1, 407641, Control_c, 0, 64, 41
1, 407655, Control_c, 0, 64, 38
1, 407670, Control_c, 0, 64, 35
1, 407685, Control_c, 0, 64, 33
1, 407700, Control_c, 0, 64, 31
1, 407715, Control_c, 0, 64, 29
1, 407729, Control_c, 0, 64, 27
1, 407744, Control_c, 0, 64, 26
1, 407759, Control_c, 0, 64, 25
1, 407774, Control_c, 0, 64, 24
1, 407789, Control_c, 0, 64, 22
1, 407803, Control_c, 0, 64, 20
1, 407826, Control_c, 0, 64, 18
1, 407841, Control_c, 0, 64, 15
1, 407856, Control_c, 0, 64, 8
1, 407871, Control_c, 0, 64, 0
1, 410384, Control_c, 0, 67, 127
1, 410399, Control_c, 0, 67, 113
1, 410414, Control_c, 0, 67, 101
1, 410429, Control_c, 0, 67, 88
1, 410444, Control_c, 0, 67, 76
1, 410458, Control_c, 0, 67, 63
1, 410473, Control_c, 0, 67, 50
1, 410488, Control_c, 0, 67, 40
1, 410503, Control_c, 0, 67, 35
1, 410518, Control_c, 0, 67, 33
1, 410533, Control_c, 0, 67, 31
1, 410547, Control_c, 0, 67, 29
1, 410562, Control_c, 0, 67, 27
1, 410577, Control_c, 0, 67, 26
1, 410592, Control_c, 0, 67, 26
1, 410636, Control_c, 0, 67, 25
1, 410651, Control_c, 0, 67, 25
1, 410665, Control_c, 0, 67, 24
1, 410680, Control_c, 0, 67, 22
1, 410695, Control_c, 0, 67, 21
1, 410836, Control_c, 0, 67, 21
1, 411014, Control_c, 0, 67, 20
1, 411089, Control_c, 0, 67, 20
1, 411103, Control_c, 0, 67, 18
1, 411118, Control_c, 0, 67, 15
1, 411133, Control_c, 0, 67, 11
1, 411148, Control_c, 0, 67, 9
1, 411163, Control_c, 0, 67, 0
1, 411238, End_track
0, 0, End_of_file
