0, 0, Header, 0, 1, 384
1, 0, Start_track
1, 0, Title_t, "Sonata K. 281--Han-Chien Lee    "
1, 0, Text_t, "2009 Piano-e-Competition audition round"
1, 0, Text_t, "captured January 2009"
1, 0, Text_t, "http://www.piano-e-competition.com/"
1, 0, Text_t, "File processed for distribution by software from Zenph Studios, Inc., http://www.zenph.com"
1, 0, Instrument_name_t, "Yamaha Disklavier Pro Mark IV concert grand piano, model DCFIIISM4PRO"
1, 0, Sequencer_specific, 39, 67, 113, 0, 1, 0, 1, 0, 83, 111, 110, 97, 116, 97, 32, 75, 46, 32, 50, 56, 49, 32, 32, 32, 72, 97, 110, 45, 67, 104, 105, 101, 110, 32, 76, 101, 101, 32, 32, 32
1, 0, Sequencer_specific, 6, 67, 113, 0, 0, 0, 69
1, 0, System_exclusive, 21, 67, 113, 126, 21, 0, 2, 2, 0, 3, 14, 1, 4, 1, 13, 13, 10, 11, 9, 2, 7, 247
1, 0, Sequencer_specific, 5, 67, 123, 12, 2, 1
1, 0, Tempo, 512820
1, 0, Time_signature, 4, 2, 24, 8
1, 0, System_exclusive, 5, 126, 127, 9, 1, 247
1, 1, System_exclusive, 8, 67, 16, 76, 0, 0, 126, 0, 247
1, 2, System_exclusive, 8, 67, 16, 76, 8, 9, 7, 1, 247
1, 3, Control_c, 0, 0, 0
1, 3, Control_c, 1, 0, 0
1, 3, Control_c, 2, 0, 0
1, 3, Control_c, 3, 0, 0
1, 3, Control_c, 4, 0, 0
1, 3, Control_c, 5, 0, 0
1, 3, Control_c, 6, 0, 0
1, 3, Control_c, 7, 0, 0
1, 3, Control_c, 8, 0, 0
1, 3, Control_c, 9, 0, 127
1, 3, Control_c, 10, 0, 0
1, 3, Control_c, 11, 0, 0
1, 3, Control_c, 12, 0, 0
1, 3, Control_c, 13, 0, 0
1, 3, Control_c, 14, 0, 0
1, 3, Control_c, 15, 0, 0
1, 4, Control_c, 0, 32, 0
1, 4, Control_c, 1, 32, 0
1, 4, Control_c, 2, 32, 0
1, 4, Control_c, 3, 32, 0
1, 4, Control_c, 4, 32, 0
1, 4, Control_c, 5, 32, 0
1, 4, Control_c, 6, 32, 0
1, 4, Control_c, 7, 32, 0
1, 4, Control_c, 8, 32, 0
1, 4, Control_c, 9, 32, 0
1, 4, Control_c, 10, 32, 0
1, 4, Control_c, 11, 32, 0
1, 4, Control_c, 12, 32, 0
1, 4, Control_c, 13, 32, 0
1, 4, Control_c, 14, 32, 0
1, 4, Control_c, 15, 32, 0
1, 5, Program_c, 0, 0
1, 5, Program_c, 1, 0
1, 5, Program_c, 2, 0
1, 5, Program_c, 3, 0
1, 5, Program_c, 4, 0
1, 5, Program_c, 5, 0
1, 5, Program_c, 6, 0
1, 5, Program_c, 7, 0
1, 5, Program_c, 8, 0
1, 5, Program_c, 9, 0
1, 5, Program_c, 10, 0
1, 5, Program_c, 11, 0
1, 5, Program_c, 12, 0
1, 5, Program_c, 13, 0
1, 5, Program_c, 14, 0
1, 5, Program_c, 15, 0
1, 6, Control_c, 0, 7, 100
1, 6, Control_c, 1, 7, 100
1, 6, Control_c, 2, 7, 100
1, 6, Control_c, 3, 7, 100
1, 6, Control_c, 4, 7, 100
1, 6, Control_c, 5, 7, 100
1, 6, Control_c, 6, 7, 100
1, 6, Control_c, 7, 7, 100
1, 6, Control_c, 8, 7, 100
1, 6, Control_c, 9, 7, 100
1, 6, Control_c, 10, 7, 100
1, 6, Control_c, 11, 7, 100
1, 6, Control_c, 12, 7, 100
1, 6, Control_c, 13, 7, 100
1, 6, Control_c, 14, 7, 100
1, 6, Control_c, 15, 7, 100
1, 117, Control_c, 0, 64, 8
1, 117, Control_c, 0, 67, 6
1, 229, Control_c, 0, 64, 16
1, 229, Control_c, 0, 67, 13
1, 341, Control_c, 0, 64, 24
1, 341, Control_c, 0, 67, 19
1, 452, Control_c, 0, 64, 32
1, 452, Control_c, 0, 67, 26
1, 564, Control_c, 0, 64, 40
1, 564, Control_c, 0, 67, 32
1, 676, Control_c, 0, 64, 48
1, 676, Control_c, 0, 67, 39
1, 787, Control_c, 0, 64, 56
1, 787, Control_c, 0, 67, 45
1, 899, Control_c, 0, 64, 64
1, 899, Control_c, 0, 67, 52
1, 1136, Note_on_c, 0, 58, 38
1, 1136, Control_c, 0, 64, 62
1, 1136, Control_c, 0, 67, 52
1, 1147, Note_on_c, 0, 70, 54
1, 1155, Note_on_c, 0, 62, 42
1, 1166, Control_c, 0, 64, 63
1, 1180, Control_c, 0, 64, 64
1, 1180, Control_c, 0, 67, 51
1, 1195, Control_c, 0, 64, 68
1, 1210, Control_c, 0, 64, 74
1, 1225, Control_c, 0, 64, 79
1, 1233, Note_off_c, 0, 70, 59
1, 1239, Control_c, 0, 64, 82
1, 1239, Control_c, 0, 67, 51
1, 1254, Control_c, 0, 64, 84
1, 1258, Note_on_c, 0, 72, 56
1, 1269, Control_c, 0, 64, 86
1, 1269, Control_c, 0, 67, 50
1, 1285, Control_c, 0, 64, 87
1, 1285, Control_c, 0, 67, 50
1, 1307, Note_off_c, 0, 72, 64
1, 1307, Control_c, 0, 67, 49
1, 1319, Note_on_c, 0, 70, 65
1, 1337, Control_c, 0, 67, 49
1, 1352, Control_c, 0, 67, 48
1, 1359, Note_off_c, 0, 70, 61
1, 1367, Control_c, 0, 67, 47
1, 1368, Note_on_c, 0, 72, 65
1, 1381, Control_c, 0, 67, 47
1, 1396, Control_c, 0, 67, 46
1, 1399, Note_off_c, 0, 72, 65
1, 1406, Note_on_c, 0, 70, 66
1, 1410, Note_off_c, 0, 58, 37
1, 1411, Control_c, 0, 67, 44
1, 1426, Control_c, 0, 67, 41
1, 1429, Note_off_c, 0, 62, 0
1, 1441, Control_c, 0, 67, 32
1, 1456, Note_off_c, 0, 70, 62
1, 1456, Control_c, 0, 67, 19
1, 1459, Note_on_c, 0, 62, 6
1, 1463, Note_on_c, 0, 72, 65
1, 1471, Control_c, 0, 67, 0
1, 1483, Poly_aftertouch_c, 0, 58, 127
1, 1495, Note_off_c, 0, 72, 57
1, 1513, Note_on_c, 0, 70, 67
1, 1519, Note_off_c, 0, 62, 44
1, 1559, Control_c, 0, 64, 86
1, 1566, Note_off_c, 0, 70, 63
1, 1570, Note_on_c, 0, 72, 70
1, 1589, Control_c, 0, 64, 86
1, 1614, Note_off_c, 0, 72, 65
1, 1623, Note_on_c, 0, 74, 72
1, 1633, Control_c, 0, 64, 85
1, 1648, Control_c, 0, 64, 85
1, 1662, Control_c, 0, 64, 84
1, 1677, Control_c, 0, 64, 82
1, 1683, Poly_aftertouch_c, 0, 58, 0
1, 1692, Control_c, 0, 64, 79
1, 1700, Note_on_c, 0, 70, 72
1, 1707, Control_c, 0, 64, 75
1, 1712, Note_on_c, 0, 63, 50
1, 1721, Note_off_c, 0, 74, 60
1, 1722, Control_c, 0, 64, 70
1, 1734, Note_on_c, 0, 60, 43
1, 1736, Control_c, 0, 64, 64
1, 1751, Control_c, 0, 64, 56
1, 1766, Control_c, 0, 64, 38
1, 1781, Control_c, 0, 64, 0
1, 1810, Note_off_c, 0, 70, 61
1, 1813, Note_on_c, 0, 69, 76
1, 1909, Note_on_c, 0, 72, 79
1, 1925, Note_off_c, 0, 69, 65
1, 1997, Note_on_c, 0, 70, 79
1, 2016, Note_off_c, 0, 72, 60
1, 2069, Control_c, 0, 64, 9
1, 2084, Note_off_c, 0, 70, 62
1, 2100, Note_on_c, 0, 69, 72
1, 2179, Note_off_c, 0, 69, 64
1, 2187, Note_on_c, 0, 75, 69
1, 2233, Control_c, 0, 64, 0
1, 2237, Note_off_c, 0, 60, 38
1, 2286, Note_on_c, 0, 72, 64
1, 2293, Note_on_c, 0, 65, 43
1, 2294, Note_off_c, 0, 75, 58
1, 2297, Note_on_c, 0, 62, 38
1, 2304, Note_off_c, 0, 63, 43
1, 2364, Note_off_c, 0, 72, 63
1, 2386, Note_on_c, 0, 70, 70
1, 2466, Note_off_c, 0, 70, 61
1, 2477, Note_on_c, 0, 74, 68
1, 2570, Note_on_c, 0, 72, 64
1, 2571, Note_off_c, 0, 74, 62
1, 2645, Note_off_c, 0, 72, 60
1, 2669, Note_on_c, 0, 70, 61
1, 2746, Note_off_c, 0, 70, 60
1, 2765, Note_on_c, 0, 77, 52
1, 2847, Control_c, 0, 64, 22
1, 2862, Control_c, 0, 64, 35
1, 2865, Note_off_c, 0, 77, 62
1, 2877, Control_c, 0, 64, 47
1, 2886, Note_on_c, 0, 74, 50
1, 2893, Control_c, 0, 64, 55
1, 2907, Control_c, 0, 64, 59
1, 2922, Control_c, 0, 64, 63
1, 2937, Control_c, 0, 64, 67
1, 2952, Control_c, 0, 64, 72
1, 2967, Control_c, 0, 64, 79
1, 2971, Note_off_c, 0, 74, 63
1, 2981, Control_c, 0, 64, 85
1, 2996, Control_c, 0, 64, 90
1, 3011, Control_c, 0, 64, 101
1, 3026, Control_c, 0, 64, 120
1, 3041, Control_c, 0, 64, 127
1, 3053, Note_off_c, 0, 62, 39
1, 3077, Note_off_c, 0, 65, 40
1, 3188, Control_c, 0, 64, 122
1, 3203, Control_c, 0, 64, 106
1, 3218, Control_c, 0, 64, 97
1, 3233, Control_c, 0, 64, 89
1, 3248, Control_c, 0, 64, 81
1, 3262, Control_c, 0, 64, 72
1, 3277, Control_c, 0, 64, 63
1, 3292, Control_c, 0, 64, 34
1, 3307, Control_c, 0, 64, 0
1, 3441, Control_c, 0, 64, 12
1, 3456, Control_c, 0, 64, 51
1, 3471, Control_c, 0, 64, 65
1, 3477, Note_on_c, 0, 70, 63
1, 3480, Note_on_c, 0, 63, 73
1, 3480, Note_on_c, 0, 75, 67
1, 3486, Control_c, 0, 64, 77
1, 3486, Note_on_c, 0, 51, 66
1, 3488, Note_on_c, 0, 79, 74
1, 3500, Control_c, 0, 64, 88
1, 3506, Note_off_c, 0, 70, 67
1, 3508, Note_off_c, 0, 63, 67
1, 3513, Note_off_c, 0, 51, 66
1, 3515, Control_c, 0, 64, 95
1, 3519, Note_off_c, 0, 75, 62
1, 3524, Note_off_c, 0, 79, 53
1, 3530, Control_c, 0, 64, 97
1, 3581, Control_c, 0, 64, 94
1, 3596, Control_c, 0, 64, 87
1, 3611, Control_c, 0, 64, 78
1, 3626, Control_c, 0, 64, 65
1, 3641, Control_c, 0, 64, 13
1, 3656, Control_c, 0, 64, 0
1, 3814, Note_on_c, 0, 70, 57
1, 3817, Note_on_c, 0, 74, 55
1, 3821, Note_on_c, 0, 77, 75
1, 3831, Note_on_c, 0, 46, 69
1, 3836, Note_on_c, 0, 58, 63
1, 3839, Note_off_c, 0, 70, 63
1, 3849, Note_off_c, 0, 74, 66
1, 3850, Control_c, 0, 64, 61
1, 3852, Note_off_c, 0, 77, 65
1, 3859, Note_off_c, 0, 46, 67
1, 3864, Control_c, 0, 64, 72
1, 3867, Note_off_c, 0, 58, 66
1, 3879, Control_c, 0, 64, 84
1, 3894, Control_c, 0, 64, 96
1, 3909, Control_c, 0, 64, 105
1, 3923, Control_c, 0, 64, 109
1, 4071, Control_c, 0, 64, 108
1, 4086, Control_c, 0, 64, 106
1, 4101, Control_c, 0, 64, 103
1, 4116, Control_c, 0, 64, 101
1, 4130, Control_c, 0, 64, 99
1, 4145, Control_c, 0, 64, 96
1, 4145, Control_c, 0, 67, 9
1, 4160, Control_c, 0, 64, 94
1, 4160, Control_c, 0, 67, 13
1, 4172, Note_on_c, 0, 77, 63
1, 4175, Control_c, 0, 64, 91
1, 4175, Control_c, 0, 67, 18
1, 4190, Control_c, 0, 64, 88
1, 4190, Control_c, 0, 67, 23
1, 4204, Control_c, 0, 64, 84
1, 4204, Control_c, 0, 67, 28
1, 4219, Control_c, 0, 64, 79
1, 4219, Control_c, 0, 67, 32
1, 4228, Note_off_c, 0, 77, 57
1, 4233, Note_on_c, 0, 82, 75
1, 4234, Control_c, 0, 64, 71
1, 4234, Control_c, 0, 67, 35
1, 4249, Control_c, 0, 64, 64
1, 4249, Control_c, 0, 67, 38
1, 4264, Control_c, 0, 64, 55
1, 4264, Control_c, 0, 67, 40
1, 4279, Control_c, 0, 64, 44
1, 4279, Control_c, 0, 67, 42
1, 4301, Control_c, 0, 64, 37
1, 4301, Control_c, 0, 67, 43
1, 4303, Note_on_c, 0, 81, 74
1, 4306, Note_off_c, 0, 82, 64
1, 4316, Control_c, 0, 64, 35
1, 4316, Control_c, 0, 67, 44
1, 4330, Control_c, 0, 67, 45
1, 4345, Control_c, 0, 67, 46
1, 4360, Control_c, 0, 64, 35
1, 4371, Note_on_c, 0, 82, 83
1, 4375, Control_c, 0, 64, 36
1, 4385, Note_off_c, 0, 81, 64
1, 4390, Control_c, 0, 64, 36
1, 4390, Control_c, 0, 67, 46
1, 4404, Control_c, 0, 67, 47
1, 4435, Note_off_c, 0, 82, 64
1, 4443, Note_on_c, 0, 86, 84
1, 4494, Control_c, 0, 67, 46
1, 4509, Control_c, 0, 67, 46
1, 4512, Note_on_c, 0, 82, 75
1, 4516, Note_off_c, 0, 86, 61
1, 4524, Control_c, 0, 67, 45
1, 4539, Control_c, 0, 67, 44
1, 4553, Control_c, 0, 64, 37
1, 4553, Control_c, 0, 67, 43
1, 4568, Control_c, 0, 67, 42
1, 4580, Note_off_c, 0, 82, 65
1, 4583, Control_c, 0, 67, 40
1, 4584, Note_on_c, 0, 81, 69
1, 4598, Control_c, 0, 64, 37
1, 4598, Control_c, 0, 67, 37
1, 4613, Control_c, 0, 64, 38
1, 4613, Control_c, 0, 67, 34
1, 4628, Note_off_c, 0, 81, 66
1, 4628, Control_c, 0, 64, 41
1, 4628, Control_c, 0, 67, 29
1, 4643, Note_on_c, 0, 82, 81
1, 4643, Control_c, 0, 64, 43
1, 4643, Control_c, 0, 67, 22
1, 4657, Control_c, 0, 64, 47
1, 4657, Control_c, 0, 67, 12
1, 4670, Note_off_c, 0, 82, 66
1, 4672, Control_c, 0, 64, 52
1, 4672, Control_c, 0, 67, 0
1, 4687, Control_c, 0, 64, 58
1, 4702, Control_c, 0, 64, 63
1, 4717, Control_c, 0, 64, 67
1, 4732, Control_c, 0, 64, 71
1, 4747, Control_c, 0, 64, 75
1, 4759, Note_on_c, 0, 53, 48
1, 4762, Control_c, 0, 64, 79
1, 4766, Note_on_c, 0, 41, 42
1, 4767, Note_on_c, 0, 77, 73
1, 4776, Note_on_c, 0, 74, 55
1, 4777, Control_c, 0, 64, 83
1, 4792, Control_c, 0, 64, 85
1, 4795, Note_off_c, 0, 53, 66
1, 4802, Note_off_c, 0, 41, 50
1, 4836, Control_c, 0, 64, 84
1, 4851, Control_c, 0, 64, 83
1, 4866, Control_c, 0, 64, 82
1, 4872, Note_off_c, 0, 74, 60
1, 4880, Control_c, 0, 64, 78
1, 4884, Note_off_c, 0, 77, 47
1, 4895, Control_c, 0, 64, 73
1, 4907, Note_on_c, 0, 75, 58
1, 4910, Control_c, 0, 64, 66
1, 4911, Note_on_c, 0, 72, 58
1, 4925, Control_c, 0, 64, 59
1, 4940, Control_c, 0, 64, 45
1, 4944, Note_off_c, 0, 75, 59
1, 4954, Control_c, 0, 64, 20
1, 4954, Control_c, 0, 67, 9
1, 4967, Note_off_c, 0, 72, 56
1, 4969, Control_c, 0, 64, 0
1, 4969, Control_c, 0, 67, 11
1, 4984, Control_c, 0, 67, 13
1, 4999, Control_c, 0, 67, 15
1, 5014, Control_c, 0, 67, 17
1, 5028, Control_c, 0, 67, 19
1, 5051, Control_c, 0, 67, 22
1, 5066, Control_c, 0, 67, 25
1, 5080, Control_c, 0, 67, 28
1, 5095, Control_c, 0, 67, 31
1, 5099, Note_on_c, 0, 74, 55
1, 5102, Note_on_c, 0, 70, 46
1, 5110, Control_c, 0, 64, 23
1, 5110, Control_c, 0, 67, 33
1, 5116, Note_on_c, 0, 46, 42
1, 5125, Control_c, 0, 64, 39
1, 5125, Control_c, 0, 67, 35
1, 5128, Note_on_c, 0, 58, 26
1, 5140, Control_c, 0, 64, 52
1, 5140, Control_c, 0, 67, 39
1, 5154, Control_c, 0, 64, 60
1, 5154, Control_c, 0, 67, 43
1, 5169, Control_c, 0, 64, 66
1, 5169, Control_c, 0, 67, 47
1, 5184, Control_c, 0, 64, 70
1, 5184, Control_c, 0, 67, 51
1, 5198, Control_c, 0, 64, 75
1, 5198, Control_c, 0, 67, 54
1, 5203, Note_off_c, 0, 74, 56
1, 5213, Control_c, 0, 64, 77
1, 5213, Control_c, 0, 67, 58
1, 5228, Control_c, 0, 64, 79
1, 5228, Control_c, 0, 67, 65
1, 5233, Note_off_c, 0, 58, 37
1, 5237, Note_off_c, 0, 46, 37
1, 5243, Control_c, 0, 67, 72
1, 5249, Note_off_c, 0, 70, 37
1, 5258, Control_c, 0, 67, 76
1, 5274, Control_c, 0, 67, 79
1, 5289, Control_c, 0, 67, 82
1, 5303, Control_c, 0, 67, 84
1, 5318, Control_c, 0, 64, 78
1, 5318, Control_c, 0, 67, 85
1, 5333, Control_c, 0, 64, 78
1, 5333, Control_c, 0, 67, 86
1, 5348, Control_c, 0, 64, 77
1, 5348, Control_c, 0, 67, 87
1, 5363, Control_c, 0, 64, 77
1, 5363, Control_c, 0, 67, 88
1, 5377, Control_c, 0, 64, 76
1, 5377, Control_c, 0, 67, 89
1, 5392, Control_c, 0, 64, 75
1, 5392, Control_c, 0, 67, 89
1, 5407, Control_c, 0, 64, 74
1, 5407, Control_c, 0, 67, 90
1, 5422, Control_c, 0, 64, 74
1, 5422, Control_c, 0, 67, 92
1, 5437, Control_c, 0, 64, 73
1, 5437, Control_c, 0, 67, 95
1, 5451, Control_c, 0, 64, 72
1, 5451, Control_c, 0, 67, 98
1, 5466, Control_c, 0, 64, 70
1, 5466, Control_c, 0, 67, 100
1, 5481, Control_c, 0, 64, 69
1, 5481, Control_c, 0, 67, 101
1, 5495, Control_c, 0, 64, 67
1, 5495, Control_c, 0, 67, 103
1, 5510, Control_c, 0, 64, 66
1, 5510, Control_c, 0, 67, 105
1, 5525, Control_c, 0, 64, 65
1, 5525, Control_c, 0, 67, 107
1, 5540, Control_c, 0, 64, 64
1, 5540, Control_c, 0, 67, 109
1, 5555, Control_c, 0, 64, 62
1, 5555, Control_c, 0, 67, 111
1, 5570, Control_c, 0, 64, 59
1, 5570, Control_c, 0, 67, 113
1, 5585, Control_c, 0, 64, 57
1, 5585, Control_c, 0, 67, 115
1, 5599, Control_c, 0, 64, 56
1, 5599, Control_c, 0, 67, 117
1, 5614, Control_c, 0, 64, 54
1, 5614, Control_c, 0, 67, 120
1, 5629, Control_c, 0, 64, 52
1, 5629, Control_c, 0, 67, 121
1, 5644, Control_c, 0, 64, 50
1, 5644, Control_c, 0, 67, 123
1, 5659, Control_c, 0, 64, 47
1, 5659, Control_c, 0, 67, 124
1, 5674, Control_c, 0, 64, 42
1, 5674, Control_c, 0, 67, 126
1, 5689, Control_c, 0, 64, 36
1, 5689, Control_c, 0, 67, 127
1, 5703, Control_c, 0, 64, 28
1, 5718, Control_c, 0, 64, 18
1, 5733, Control_c, 0, 64, 0
1, 5977, Control_c, 0, 64, 31
1, 5992, Control_c, 0, 64, 44
1, 6007, Control_c, 0, 64, 50
1, 6021, Control_c, 0, 64, 52
1, 6036, Control_c, 0, 64, 54
1, 6051, Control_c, 0, 64, 58
1, 6066, Control_c, 0, 64, 61
1, 6082, Control_c, 0, 64, 62
1, 6097, Control_c, 0, 64, 63
1, 6112, Control_c, 0, 64, 65
1, 6126, Control_c, 0, 64, 68
1, 6141, Control_c, 0, 64, 73
1, 6156, Control_c, 0, 64, 78
1, 6168, Note_on_c, 0, 46, 33
1, 6171, Control_c, 0, 64, 80
1, 6177, Note_on_c, 0, 58, 41
1, 6180, Note_on_c, 0, 50, 43
1, 6186, Control_c, 0, 64, 82
1, 6200, Control_c, 0, 64, 82
1, 6215, Control_c, 0, 64, 83
1, 6272, Note_off_c, 0, 58, 60
1, 6300, Note_on_c, 0, 60, 54
1, 6348, Note_off_c, 0, 60, 62
1, 6375, Note_on_c, 0, 58, 51
1, 6392, Control_c, 0, 64, 82
1, 6401, Note_off_c, 0, 58, 57
1, 6405, Note_on_c, 0, 60, 56
1, 6437, Note_off_c, 0, 60, 65
1, 6437, Control_c, 0, 64, 82
1, 6453, Note_on_c, 0, 58, 64
1, 6487, Note_off_c, 0, 58, 64
1, 6497, Control_c, 0, 64, 81
1, 6509, Note_on_c, 0, 60, 52
1, 6526, Control_c, 0, 64, 81
1, 6535, Note_off_c, 0, 60, 57
1, 6548, Control_c, 0, 64, 80
1, 6557, Note_on_c, 0, 58, 59
1, 6563, Control_c, 0, 64, 80
1, 6578, Control_c, 0, 64, 79
1, 6592, Note_off_c, 0, 58, 61
1, 6593, Control_c, 0, 64, 79
1, 6607, Control_c, 0, 64, 78
1, 6608, Note_on_c, 0, 60, 64
1, 6622, Control_c, 0, 64, 77
1, 6637, Control_c, 0, 64, 76
1, 6645, Note_off_c, 0, 60, 62
1, 6652, Control_c, 0, 64, 75
1, 6657, Note_on_c, 0, 62, 54
1, 6663, Note_off_c, 0, 50, 52
1, 6667, Control_c, 0, 64, 74
1, 6682, Control_c, 0, 64, 71
1, 6696, Control_c, 0, 64, 68
1, 6711, Control_c, 0, 64, 65
1, 6726, Control_c, 0, 64, 58
1, 6741, Control_c, 0, 64, 32
1, 6746, Note_on_c, 0, 51, 47
1, 6747, Note_on_c, 0, 58, 65
1, 6754, Note_off_c, 0, 62, 61
1, 6756, Control_c, 0, 64, 0
1, 6763, Note_on_c, 0, 48, 46
1, 6783, Note_off_c, 0, 46, 43
1, 6845, Note_off_c, 0, 58, 60
1, 6859, Note_on_c, 0, 57, 70
1, 6859, Control_c, 0, 64, 32
1, 6875, Control_c, 0, 64, 45
1, 6890, Control_c, 0, 64, 50
1, 6905, Control_c, 0, 64, 52
1, 6920, Control_c, 0, 64, 51
1, 6949, Note_on_c, 0, 60, 70
1, 6961, Note_off_c, 0, 57, 62
1, 6964, Control_c, 0, 64, 53
1, 6979, Control_c, 0, 64, 54
1, 7023, Control_c, 0, 64, 53
1, 7038, Note_on_c, 0, 58, 77
1, 7038, Control_c, 0, 64, 53
1, 7053, Control_c, 0, 64, 52
1, 7067, Control_c, 0, 64, 50
1, 7072, Note_off_c, 0, 60, 63
1, 7082, Control_c, 0, 64, 47
1, 7097, Control_c, 0, 64, 46
1, 7112, Control_c, 0, 64, 47
1, 7126, Note_off_c, 0, 58, 59
1, 7127, Control_c, 0, 64, 48
1, 7135, Note_on_c, 0, 57, 73
1, 7141, Control_c, 0, 64, 49
1, 7186, Control_c, 0, 64, 48
1, 7201, Control_c, 0, 64, 48
1, 7214, Note_off_c, 0, 57, 62
1, 7215, Control_c, 0, 64, 46
1, 7227, Note_on_c, 0, 63, 68
1, 7230, Control_c, 0, 64, 45
1, 7245, Control_c, 0, 64, 40
1, 7260, Control_c, 0, 64, 29
1, 7275, Control_c, 0, 64, 0
1, 7322, Note_off_c, 0, 48, 34
1, 7335, Note_on_c, 0, 53, 41
1, 7337, Note_on_c, 0, 60, 59
1, 7341, Note_on_c, 0, 50, 44
1, 7346, Note_off_c, 0, 63, 61
1, 7369, Note_off_c, 0, 51, 32
1, 7420, Note_off_c, 0, 60, 62
1, 7436, Note_on_c, 0, 58, 62
1, 7512, Note_off_c, 0, 58, 62
1, 7532, Note_on_c, 0, 62, 58
1, 7608, Control_c, 0, 64, 9
1, 7608, Control_c, 0, 67, 127
1, 7622, Note_on_c, 0, 60, 59
1, 7623, Control_c, 0, 64, 22
1, 7623, Control_c, 0, 67, 126
1, 7627, Note_off_c, 0, 62, 59
1, 7638, Control_c, 0, 64, 26
1, 7638, Control_c, 0, 67, 126
1, 7653, Control_c, 0, 64, 27
1, 7653, Control_c, 0, 67, 125
1, 7668, Control_c, 0, 64, 30
1, 7668, Control_c, 0, 67, 125
1, 7683, Control_c, 0, 64, 35
1, 7698, Control_c, 0, 64, 38
1, 7708, Note_off_c, 0, 60, 59
1, 7713, Control_c, 0, 64, 39
1, 7713, Control_c, 0, 67, 124
1, 7721, Note_on_c, 0, 58, 55
1, 7728, Control_c, 0, 67, 124
1, 7743, Control_c, 0, 64, 39
1, 7758, Control_c, 0, 67, 123
1, 7772, Control_c, 0, 64, 39
1, 7772, Control_c, 0, 67, 123
1, 7787, Control_c, 0, 67, 122
1, 7802, Note_off_c, 0, 58, 58
1, 7802, Control_c, 0, 67, 122
1, 7817, Control_c, 0, 67, 121
1, 7827, Note_on_c, 0, 65, 50
1, 7832, Control_c, 0, 67, 119
1, 7846, Control_c, 0, 67, 117
1, 7861, Control_c, 0, 64, 40
1, 7861, Control_c, 0, 67, 116
1, 7876, Control_c, 0, 67, 114
1, 7890, Control_c, 0, 67, 112
1, 7905, Control_c, 0, 64, 41
1, 7905, Control_c, 0, 67, 108
1, 7920, Control_c, 0, 64, 45
1, 7920, Control_c, 0, 67, 103
1, 7923, Note_off_c, 0, 65, 60
1, 7935, Control_c, 0, 64, 49
1, 7935, Control_c, 0, 67, 97
1, 7937, Note_on_c, 0, 62, 49
1, 7950, Control_c, 0, 64, 54
1, 7950, Control_c, 0, 67, 90
1, 7964, Control_c, 0, 64, 56
1, 7964, Control_c, 0, 67, 84
1, 7979, Control_c, 0, 64, 59
1, 7979, Control_c, 0, 67, 79
1, 7994, Control_c, 0, 64, 61
1, 7994, Control_c, 0, 67, 73
1, 8009, Control_c, 0, 64, 64
1, 8009, Control_c, 0, 67, 66
1, 8023, Control_c, 0, 64, 65
1, 8023, Control_c, 0, 67, 60
1, 8046, Control_c, 0, 64, 68
1, 8046, Control_c, 0, 67, 56
1, 8050, Note_off_c, 0, 62, 60
1, 8061, Control_c, 0, 64, 70
1, 8061, Control_c, 0, 67, 52
1, 8063, Note_off_c, 0, 50, 42
1, 8076, Control_c, 0, 64, 72
1, 8076, Control_c, 0, 67, 47
1, 8091, Control_c, 0, 64, 74
1, 8091, Control_c, 0, 67, 41
1, 8105, Control_c, 0, 64, 75
1, 8105, Control_c, 0, 67, 32
1, 8120, Control_c, 0, 67, 22
1, 8125, Note_off_c, 0, 53, 36
1, 8135, Control_c, 0, 64, 75
1, 8135, Control_c, 0, 67, 12
1, 8150, Control_c, 0, 67, 0
1, 8268, Control_c, 0, 64, 75
1, 8283, Control_c, 0, 64, 74
1, 8297, Control_c, 0, 64, 74
1, 8312, Control_c, 0, 64, 73
1, 8327, Control_c, 0, 64, 72
1, 8342, Control_c, 0, 64, 72
1, 8357, Control_c, 0, 64, 71
1, 8372, Control_c, 0, 64, 69
1, 8387, Control_c, 0, 64, 66
1, 8401, Control_c, 0, 64, 64
1, 8416, Control_c, 0, 64, 61
1, 8431, Control_c, 0, 64, 57
1, 8446, Control_c, 0, 64, 52
1, 8461, Control_c, 0, 64, 41
1, 8476, Control_c, 0, 64, 17
1, 8491, Control_c, 0, 64, 0
1, 8549, Note_on_c, 0, 51, 45
1, 8580, Control_c, 0, 64, 13
1, 8591, Note_on_c, 0, 55, 49
1, 8595, Control_c, 0, 64, 45
1, 8610, Control_c, 0, 64, 62
1, 8621, Note_on_c, 0, 67, 78
1, 8622, Note_on_c, 0, 60, 58
1, 8625, Control_c, 0, 64, 67
1, 8640, Control_c, 0, 64, 72
1, 8654, Control_c, 0, 64, 78
1, 8669, Control_c, 0, 64, 84
1, 8684, Control_c, 0, 64, 92
1, 8699, Control_c, 0, 64, 97
1, 8713, Control_c, 0, 64, 97
1, 8714, Note_on_c, 0, 72, 77
1, 8719, Note_off_c, 0, 67, 60
1, 8801, Note_off_c, 0, 51, 0
1, 8816, Note_on_c, 0, 75, 82
1, 8817, Note_off_c, 0, 72, 64
1, 8838, Poly_aftertouch_c, 0, 51, 127
1, 8855, Note_off_c, 0, 60, 0
1, 8855, Note_on_c, 0, 60, 2
1, 8910, Note_off_c, 0, 75, 61
1, 8913, Note_on_c, 0, 72, 87
1, 8914, Control_c, 0, 64, 97
1, 8943, Control_c, 0, 64, 96
1, 8953, Note_off_c, 0, 55, 38
1, 8988, Control_c, 0, 64, 96
1, 9002, Control_c, 0, 64, 95
1, 9006, Poly_aftertouch_c, 0, 51, 0
1, 9013, Note_on_c, 0, 75, 79
1, 9017, Control_c, 0, 64, 94
1, 9032, Control_c, 0, 64, 94
1, 9040, Note_off_c, 0, 72, 60
1, 9046, Control_c, 0, 64, 93
1, 9061, Control_c, 0, 64, 93
1, 9076, Control_c, 0, 64, 92
1, 9077, Note_off_c, 0, 60, 43
1, 9091, Control_c, 0, 64, 90
1, 9106, Control_c, 0, 64, 89
1, 9110, Note_off_c, 0, 75, 63
1, 9111, Note_on_c, 0, 79, 82
1, 9120, Control_c, 0, 64, 89
1, 9135, Control_c, 0, 64, 88
1, 9150, Control_c, 0, 64, 85
1, 9151, Note_off_c, 0, 79, 58
1, 9165, Control_c, 0, 64, 80
1, 9180, Control_c, 0, 64, 72
1, 9194, Control_c, 0, 64, 61
1, 9209, Control_c, 0, 64, 39
1, 9210, Note_on_c, 0, 53, 55
1, 9210, Note_on_c, 0, 79, 79
1, 9218, Note_on_c, 0, 62, 51
1, 9224, Control_c, 0, 64, 0
1, 9254, Control_c, 0, 64, 19
1, 9269, Control_c, 0, 64, 33
1, 9284, Control_c, 0, 64, 45
1, 9299, Control_c, 0, 64, 54
1, 9300, Note_on_c, 0, 77, 70
1, 9308, Note_off_c, 0, 79, 57
1, 9314, Control_c, 0, 64, 59
1, 9329, Control_c, 0, 64, 62
1, 9343, Control_c, 0, 64, 63
1, 9358, Control_c, 0, 64, 65
1, 9359, Note_on_c, 0, 75, 70
1, 9359, Note_off_c, 0, 62, 36
1, 9373, Control_c, 0, 64, 67
1, 9388, Control_c, 0, 64, 67
1, 9391, Note_off_c, 0, 77, 62
1, 9403, Control_c, 0, 64, 68
1, 9415, Note_off_c, 0, 75, 65
1, 9418, Control_c, 0, 64, 67
1, 9420, Note_on_c, 0, 74, 73
1, 9433, Control_c, 0, 64, 66
1, 9441, Note_off_c, 0, 74, 71
1, 9448, Control_c, 0, 64, 64
1, 9462, Control_c, 0, 64, 62
1, 9477, Control_c, 0, 64, 58
1, 9492, Control_c, 0, 64, 57
1, 9501, Note_on_c, 0, 63, 66
1, 9501, Note_on_c, 0, 74, 76
1, 9507, Control_c, 0, 64, 59
1, 9522, Control_c, 0, 64, 61
1, 9537, Control_c, 0, 64, 63
1, 9558, Control_c, 0, 64, 64
1, 9562, Note_off_c, 0, 63, 60
1, 9573, Control_c, 0, 64, 66
1, 9584, Note_on_c, 0, 72, 68
1, 9588, Control_c, 0, 64, 68
1, 9594, Note_off_c, 0, 74, 60
1, 9603, Control_c, 0, 64, 69
1, 9650, Note_off_c, 0, 72, 63
1, 9660, Note_on_c, 0, 70, 67
1, 9704, Note_off_c, 0, 70, 58
1, 9717, Note_on_c, 0, 69, 60
1, 9737, Control_c, 0, 64, 68
1, 9751, Control_c, 0, 64, 67
1, 9766, Control_c, 0, 64, 64
1, 9771, Note_off_c, 0, 69, 60
1, 9777, Note_off_c, 0, 53, 46
1, 9781, Control_c, 0, 64, 48
1, 9791, Note_on_c, 0, 62, 57
1, 9794, Note_on_c, 0, 58, 57
1, 9795, Control_c, 0, 64, 0
1, 9800, Note_on_c, 0, 70, 67
1, 9815, Note_off_c, 0, 62, 60
1, 9817, Note_off_c, 0, 58, 61
1, 9940, Note_on_c, 0, 58, 52
1, 9948, Note_on_c, 0, 62, 49
1, 9977, Note_off_c, 0, 58, 64
1, 9978, Note_off_c, 0, 62, 62
1, 10094, Note_on_c, 0, 58, 53
1, 10098, Note_on_c, 0, 62, 47
1, 10120, Note_off_c, 0, 58, 60
1, 10125, Note_off_c, 0, 62, 57
1, 10238, Note_off_c, 0, 70, 58
1, 10240, Note_on_c, 0, 62, 43
1, 10244, Note_on_c, 0, 58, 41
1, 10270, Note_off_c, 0, 62, 59
1, 10274, Note_off_c, 0, 58, 58
1, 10386, Note_on_c, 0, 58, 52
1, 10393, Note_on_c, 0, 62, 51
1, 10420, Note_off_c, 0, 62, 61
1, 10423, Note_off_c, 0, 58, 64
1, 10536, Note_on_c, 0, 70, 64
1, 10545, Note_on_c, 0, 58, 44
1, 10548, Note_on_c, 0, 62, 36
1, 10575, Note_off_c, 0, 58, 57
1, 10580, Note_off_c, 0, 62, 51
1, 10667, Note_off_c, 0, 70, 58
1, 10675, Note_on_c, 0, 62, 46
1, 10678, Note_on_c, 0, 58, 48
1, 10679, Note_on_c, 0, 69, 62
1, 10706, Note_off_c, 0, 62, 57
1, 10716, Note_off_c, 0, 58, 63
1, 10802, Note_off_c, 0, 69, 59
1, 10815, Note_on_c, 0, 68, 61
1, 10822, Note_on_c, 0, 58, 55
1, 10826, Note_on_c, 0, 62, 35
1, 10853, Note_off_c, 0, 58, 63
1, 10863, Note_off_c, 0, 62, 53
1, 10903, Note_off_c, 0, 68, 61
1, 10945, Control_c, 0, 64, 24
1, 10960, Control_c, 0, 64, 52
1, 10966, Note_on_c, 0, 58, 49
1, 10966, Note_on_c, 0, 67, 63
1, 10972, Note_on_c, 0, 63, 56
1, 10975, Control_c, 0, 64, 63
1, 10989, Control_c, 0, 64, 69
1, 10995, Note_off_c, 0, 63, 61
1, 10996, Note_off_c, 0, 67, 66
1, 10999, Note_off_c, 0, 58, 65
1, 11004, Control_c, 0, 64, 71
1, 11101, Control_c, 0, 64, 70
1, 11115, Control_c, 0, 64, 69
1, 11122, Note_on_c, 0, 63, 44
1, 11126, Note_on_c, 0, 58, 50
1, 11130, Control_c, 0, 64, 68
1, 11141, Note_on_c, 0, 69, 56
1, 11145, Control_c, 0, 64, 67
1, 11155, Note_off_c, 0, 58, 63
1, 11155, Note_off_c, 0, 63, 62
1, 11160, Control_c, 0, 64, 66
1, 11175, Control_c, 0, 64, 64
1, 11179, Note_off_c, 0, 69, 66
1, 11189, Control_c, 0, 64, 62
1, 11197, Note_on_c, 0, 70, 62
1, 11204, Control_c, 0, 64, 59
1, 11219, Control_c, 0, 64, 55
1, 11226, Note_off_c, 0, 70, 66
1, 11234, Control_c, 0, 64, 51
1, 11248, Control_c, 0, 64, 45
1, 11251, Note_on_c, 0, 63, 61
1, 11255, Note_on_c, 0, 58, 51
1, 11263, Control_c, 0, 64, 37
1, 11273, Note_on_c, 0, 72, 71
1, 11278, Control_c, 0, 64, 26
1, 11284, Note_off_c, 0, 63, 66
1, 11288, Note_off_c, 0, 58, 63
1, 11293, Control_c, 0, 64, 15
1, 11308, Control_c, 0, 64, 9
1, 11322, Note_off_c, 0, 72, 60
1, 11323, Control_c, 0, 64, 0
1, 11341, Note_on_c, 0, 74, 74
1, 11397, Note_off_c, 0, 74, 62
1, 11405, Note_on_c, 0, 63, 58
1, 11407, Note_on_c, 0, 58, 52
1, 11409, Note_on_c, 0, 75, 73
1, 11427, Control_c, 0, 67, 8
1, 11435, Note_off_c, 0, 63, 64
1, 11441, Note_off_c, 0, 58, 65
1, 11441, Control_c, 0, 67, 9
1, 11442, Note_off_c, 0, 75, 62
1, 11474, Note_on_c, 0, 77, 78
1, 11486, Control_c, 0, 67, 9
1, 11518, Note_off_c, 0, 77, 66
1, 11530, Control_c, 0, 67, 9
1, 11549, Note_on_c, 0, 79, 82
1, 11554, Note_on_c, 0, 63, 57
1, 11559, Note_on_c, 0, 58, 50
1, 11560, Control_c, 0, 67, 10
1, 11574, Control_c, 0, 67, 10
1, 11587, Note_off_c, 0, 63, 65
1, 11588, Note_off_c, 0, 58, 61
1, 11604, Control_c, 0, 67, 11
1, 11619, Control_c, 0, 67, 12
1, 11620, Note_on_c, 0, 81, 79
1, 11620, Note_off_c, 0, 79, 61
1, 11633, Control_c, 0, 67, 14
1, 11648, Control_c, 0, 67, 15
1, 11682, Note_off_c, 0, 81, 65
1, 11691, Note_on_c, 0, 82, 82
1, 11694, Control_c, 0, 67, 15
1, 11697, Note_on_c, 0, 63, 60
1, 11699, Note_on_c, 0, 58, 51
1, 11709, Control_c, 0, 67, 14
1, 11724, Control_c, 0, 67, 14
1, 11727, Note_off_c, 0, 63, 64
1, 11731, Note_off_c, 0, 58, 64
1, 11738, Control_c, 0, 67, 13
1, 11753, Control_c, 0, 67, 12
1, 11755, Note_on_c, 0, 81, 75
1, 11762, Note_off_c, 0, 82, 63
1, 11791, Control_c, 0, 67, 12
1, 11824, Note_off_c, 0, 81, 66
1, 11835, Control_c, 0, 67, 11
1, 11835, Note_on_c, 0, 82, 82
1, 11836, Note_on_c, 0, 63, 62
1, 11838, Note_on_c, 0, 58, 54
1, 11868, Note_off_c, 0, 63, 66
1, 11873, Note_off_c, 0, 58, 65
1, 11879, Control_c, 0, 67, 12
1, 11905, Note_off_c, 0, 82, 63
1, 11914, Note_on_c, 0, 81, 66
1, 11964, Note_off_c, 0, 81, 66
1, 11971, Note_on_c, 0, 82, 76
1, 11992, Note_on_c, 0, 63, 53
1, 12011, Note_on_c, 0, 58, 29
1, 12017, Note_off_c, 0, 63, 62
1, 12038, Note_off_c, 0, 82, 64
1, 12043, Note_off_c, 0, 58, 49
1, 12053, Note_on_c, 0, 79, 66
1, 12057, Control_c, 0, 67, 12
1, 12086, Control_c, 0, 67, 13
1, 12098, Note_off_c, 0, 79, 64
1, 12101, Control_c, 0, 67, 15
1, 12116, Control_c, 0, 67, 16
1, 12128, Note_on_c, 0, 58, 59
1, 12131, Note_on_c, 0, 77, 59
1, 12131, Control_c, 0, 67, 16
1, 12140, Note_on_c, 0, 62, 55
1, 12146, Control_c, 0, 67, 18
1, 12157, Note_off_c, 0, 58, 66
1, 12160, Control_c, 0, 67, 22
1, 12165, Note_off_c, 0, 62, 58
1, 12175, Control_c, 0, 67, 31
1, 12190, Control_c, 0, 67, 45
1, 12205, Control_c, 0, 67, 57
1, 12220, Control_c, 0, 67, 65
1, 12235, Control_c, 0, 67, 72
1, 12250, Control_c, 0, 67, 78
1, 12264, Control_c, 0, 67, 86
1, 12279, Control_c, 0, 67, 90
1, 12284, Note_on_c, 0, 62, 52
1, 12294, Control_c, 0, 67, 91
1, 12298, Note_on_c, 0, 58, 43
1, 12312, Note_off_c, 0, 62, 62
1, 12327, Note_off_c, 0, 58, 54
1, 12353, Control_c, 0, 67, 89
1, 12368, Control_c, 0, 67, 88
1, 12383, Control_c, 0, 67, 87
1, 12397, Control_c, 0, 67, 86
1, 12412, Control_c, 0, 67, 85
1, 12427, Control_c, 0, 67, 85
1, 12438, Note_on_c, 0, 58, 47
1, 12442, Control_c, 0, 67, 84
1, 12446, Note_on_c, 0, 62, 46
1, 12467, Note_off_c, 0, 58, 57
1, 12473, Note_off_c, 0, 62, 57
1, 12598, Note_on_c, 0, 62, 43
1, 12599, Note_on_c, 0, 58, 46
1, 12604, Note_off_c, 0, 77, 60
1, 12625, Note_off_c, 0, 62, 58
1, 12630, Note_off_c, 0, 58, 59
1, 12751, Note_on_c, 0, 58, 57
1, 12755, Note_on_c, 0, 62, 50
1, 12780, Note_off_c, 0, 62, 58
1, 12783, Note_off_c, 0, 58, 65
1, 12903, Note_on_c, 0, 70, 64
1, 12904, Note_on_c, 0, 58, 54
1, 12906, Note_on_c, 0, 62, 44
1, 12933, Note_off_c, 0, 58, 64
1, 12933, Note_off_c, 0, 62, 58
1, 13040, Note_off_c, 0, 70, 57
1, 13041, Note_on_c, 0, 62, 48
1, 13047, Note_on_c, 0, 58, 52
1, 13052, Note_on_c, 0, 69, 62
1, 13073, Note_off_c, 0, 62, 62
1, 13073, Control_c, 0, 67, 84
1, 13082, Note_off_c, 0, 58, 65
1, 13117, Control_c, 0, 67, 83
1, 13162, Control_c, 0, 67, 83
1, 13180, Note_off_c, 0, 69, 59
1, 13188, Note_on_c, 0, 62, 53
1, 13188, Note_on_c, 0, 68, 62
1, 13192, Note_on_c, 0, 58, 52
1, 13207, Control_c, 0, 67, 82
1, 13222, Note_off_c, 0, 58, 60
1, 13222, Note_off_c, 0, 62, 64
1, 13236, Control_c, 0, 67, 82
1, 13266, Control_c, 0, 67, 81
1, 13269, Note_off_c, 0, 68, 58
1, 13281, Control_c, 0, 64, 15
1, 13281, Control_c, 0, 67, 80
1, 13304, Control_c, 0, 64, 42
1, 13304, Control_c, 0, 67, 79
1, 13318, Control_c, 0, 64, 57
1, 13318, Control_c, 0, 67, 76
1, 13333, Control_c, 0, 64, 62
1, 13333, Control_c, 0, 67, 72
1, 13344, Note_on_c, 0, 67, 61
1, 13348, Control_c, 0, 64, 65
1, 13348, Control_c, 0, 67, 65
1, 13350, Note_on_c, 0, 63, 63
1, 13361, Note_on_c, 0, 58, 46
1, 13363, Control_c, 0, 64, 67
1, 13363, Control_c, 0, 67, 50
1, 13378, Control_c, 0, 64, 68
1, 13378, Control_c, 0, 67, 36
1, 13383, Note_off_c, 0, 63, 66
1, 13384, Note_off_c, 0, 67, 60
1, 13389, Note_off_c, 0, 58, 57
1, 13392, Control_c, 0, 64, 70
1, 13392, Control_c, 0, 67, 24
1, 13407, Control_c, 0, 64, 71
1, 13407, Control_c, 0, 67, 15
1, 13422, Control_c, 0, 67, 8
1, 13436, Control_c, 0, 67, 0
1, 13481, Control_c, 0, 64, 71
1, 13499, Note_on_c, 0, 58, 51
1, 13506, Note_on_c, 0, 63, 55
1, 13511, Note_on_c, 0, 69, 55
1, 13511, Control_c, 0, 64, 70
1, 13526, Control_c, 0, 64, 69
1, 13537, Note_off_c, 0, 63, 64
1, 13538, Note_off_c, 0, 58, 64
1, 13541, Control_c, 0, 64, 69
1, 13548, Note_off_c, 0, 69, 65
1, 13555, Control_c, 0, 64, 67
1, 13564, Note_on_c, 0, 70, 64
1, 13570, Control_c, 0, 64, 66
1, 13585, Control_c, 0, 64, 65
1, 13588, Note_off_c, 0, 70, 68
1, 13600, Control_c, 0, 64, 63
1, 13615, Control_c, 0, 64, 61
1, 13630, Control_c, 0, 64, 59
1, 13642, Note_on_c, 0, 72, 69
1, 13644, Control_c, 0, 64, 56
1, 13648, Note_on_c, 0, 63, 53
1, 13653, Note_on_c, 0, 58, 52
1, 13659, Control_c, 0, 64, 52
1, 13674, Control_c, 0, 64, 47
1, 13682, Note_off_c, 0, 63, 65
1, 13684, Note_off_c, 0, 58, 62
1, 13688, Note_off_c, 0, 72, 60
1, 13689, Control_c, 0, 64, 44
1, 13704, Control_c, 0, 64, 39
1, 13709, Note_on_c, 0, 74, 70
1, 13718, Control_c, 0, 64, 33
1, 13733, Control_c, 0, 64, 24
1, 13748, Control_c, 0, 64, 0
1, 13770, Note_off_c, 0, 74, 64
1, 13782, Note_on_c, 0, 75, 75
1, 13791, Note_on_c, 0, 63, 61
1, 13797, Note_on_c, 0, 58, 49
1, 13818, Note_off_c, 0, 75, 64
1, 13824, Note_off_c, 0, 63, 65
1, 13833, Note_off_c, 0, 58, 65
1, 13851, Note_on_c, 0, 77, 75
1, 13899, Note_off_c, 0, 77, 64
1, 13926, Note_on_c, 0, 79, 79
1, 13932, Note_on_c, 0, 63, 61
1, 13937, Note_on_c, 0, 58, 58
1, 13964, Note_off_c, 0, 63, 65
1, 13972, Note_off_c, 0, 58, 65
1, 13997, Note_off_c, 0, 79, 60
1, 14000, Note_on_c, 0, 81, 73
1, 14072, Note_off_c, 0, 81, 65
1, 14086, Note_on_c, 0, 82, 76
1, 14097, Note_on_c, 0, 63, 56
1, 14103, Note_on_c, 0, 58, 47
1, 14125, Note_off_c, 0, 63, 63
1, 14132, Note_off_c, 0, 58, 57
1, 14156, Note_off_c, 0, 82, 63
1, 14159, Note_on_c, 0, 81, 65
1, 14215, Note_off_c, 0, 81, 64
1, 14230, Note_on_c, 0, 58, 50
1, 14232, Note_on_c, 0, 82, 77
1, 14235, Note_on_c, 0, 63, 53
1, 14265, Note_off_c, 0, 63, 65
1, 14268, Note_off_c, 0, 58, 64
1, 14295, Note_off_c, 0, 82, 63
1, 14304, Note_on_c, 0, 81, 63
1, 14359, Note_off_c, 0, 81, 63
1, 14379, Note_on_c, 0, 82, 65
1, 14388, Note_on_c, 0, 63, 49
1, 14394, Note_on_c, 0, 58, 42
1, 14414, Note_off_c, 0, 63, 60
1, 14420, Note_off_c, 0, 58, 58
1, 14441, Note_off_c, 0, 82, 61
1, 14447, Note_on_c, 0, 79, 54
1, 14499, Note_off_c, 0, 79, 62
1, 14527, Note_on_c, 0, 58, 39
1, 14535, Note_on_c, 0, 62, 54
1, 14536, Note_on_c, 0, 77, 53
1, 14555, Note_off_c, 0, 58, 58
1, 14563, Note_off_c, 0, 62, 62
1, 14670, Note_on_c, 0, 58, 57
1, 14708, Note_off_c, 0, 58, 64
1, 14740, Note_off_c, 0, 77, 57
1, 14821, Note_on_c, 0, 62, 60
1, 14864, Note_off_c, 0, 62, 60
1, 14898, Note_on_c, 0, 82, 61
1, 14943, Note_off_c, 0, 82, 62
1, 14965, Note_on_c, 0, 65, 41
1, 14967, Note_on_c, 0, 84, 68
1, 15015, Note_off_c, 0, 65, 60
1, 15047, Note_off_c, 0, 84, 60
1, 15049, Note_on_c, 0, 82, 68
1, 15067, Control_c, 0, 64, 13
1, 15081, Control_c, 0, 64, 38
1, 15096, Control_c, 0, 64, 51
1, 15098, Note_off_c, 0, 82, 65
1, 15111, Note_on_c, 0, 58, 57
1, 15111, Note_on_c, 0, 86, 74
1, 15111, Control_c, 0, 64, 61
1, 15126, Control_c, 0, 64, 67
1, 15141, Control_c, 0, 64, 71
1, 15156, Control_c, 0, 64, 73
1, 15185, Control_c, 0, 64, 74
1, 15193, Note_on_c, 0, 84, 75
1, 15195, Note_off_c, 0, 58, 56
1, 15214, Control_c, 0, 64, 75
1, 15216, Note_off_c, 0, 86, 61
1, 15264, Note_on_c, 0, 82, 82
1, 15274, Control_c, 0, 64, 74
1, 15288, Control_c, 0, 64, 74
1, 15290, Note_off_c, 0, 84, 63
1, 15303, Control_c, 0, 64, 73
1, 15318, Control_c, 0, 64, 73
1, 15333, Note_on_c, 0, 81, 77
1, 15333, Control_c, 0, 64, 72
1, 15345, Note_off_c, 0, 82, 65
1, 15348, Control_c, 0, 64, 72
1, 15362, Control_c, 0, 64, 71
1, 15362, Control_c, 0, 67, 9
1, 15377, Control_c, 0, 64, 69
1, 15377, Control_c, 0, 67, 11
1, 15381, Note_off_c, 0, 81, 67
1, 15392, Control_c, 0, 64, 68
1, 15392, Control_c, 0, 67, 13
1, 15407, Control_c, 0, 64, 67
1, 15407, Control_c, 0, 67, 14
1, 15407, Note_on_c, 0, 79, 73
1, 15422, Control_c, 0, 64, 67
1, 15422, Control_c, 0, 67, 15
1, 15436, Control_c, 0, 64, 66
1, 15436, Control_c, 0, 67, 19
1, 15451, Control_c, 0, 64, 64
1, 15451, Control_c, 0, 67, 28
1, 15465, Note_off_c, 0, 79, 61
1, 15466, Control_c, 0, 64, 61
1, 15466, Control_c, 0, 67, 40
1, 15476, Note_on_c, 0, 77, 70
1, 15481, Control_c, 0, 64, 58
1, 15481, Control_c, 0, 67, 53
1, 15496, Control_c, 0, 64, 52
1, 15496, Control_c, 0, 67, 65
1, 15511, Control_c, 0, 64, 42
1, 15511, Control_c, 0, 67, 74
1, 15532, Control_c, 0, 64, 19
1, 15532, Control_c, 0, 67, 82
1, 15547, Control_c, 0, 64, 0
1, 15547, Control_c, 0, 67, 86
1, 15553, Note_off_c, 0, 77, 63
1, 15562, Control_c, 0, 67, 86
1, 15564, Note_on_c, 0, 75, 69
1, 15612, Note_off_c, 0, 75, 62
1, 15636, Note_on_c, 0, 74, 64
1, 15673, Note_off_c, 0, 74, 61
1, 15682, Control_c, 0, 67, 87
1, 15697, Control_c, 0, 67, 87
1, 15716, Note_on_c, 0, 75, 57
1, 15726, Control_c, 0, 64, 15
1, 15741, Control_c, 0, 64, 38
1, 15756, Control_c, 0, 64, 53
1, 15771, Control_c, 0, 64, 58
1, 15785, Control_c, 0, 64, 60
1, 15800, Control_c, 0, 64, 62
1, 15815, Control_c, 0, 64, 62
1, 15833, Note_off_c, 0, 75, 50
1, 15860, Control_c, 0, 64, 62
1, 15861, Note_on_c, 0, 53, 51
1, 15875, Control_c, 0, 64, 60
1, 15890, Control_c, 0, 64, 58
1, 15890, Control_c, 0, 67, 88
1, 15893, Note_off_c, 0, 53, 66
1, 15904, Control_c, 0, 64, 55
1, 15904, Control_c, 0, 67, 89
1, 15919, Control_c, 0, 64, 50
1, 15919, Control_c, 0, 67, 91
1, 15934, Control_c, 0, 64, 40
1, 15934, Control_c, 0, 67, 95
1, 15949, Control_c, 0, 64, 12
1, 15949, Control_c, 0, 67, 96
1, 15964, Control_c, 0, 64, 0
1, 15964, Control_c, 0, 67, 97
1, 16006, Note_on_c, 0, 57, 64
1, 16039, Note_off_c, 0, 57, 65
1, 16075, Note_on_c, 0, 81, 54
1, 16112, Note_off_c, 0, 81, 64
1, 16140, Note_on_c, 0, 82, 67
1, 16145, Note_on_c, 0, 60, 54
1, 16170, Control_c, 0, 67, 96
1, 16178, Note_off_c, 0, 60, 65
1, 16206, Note_on_c, 0, 81, 60
1, 16217, Note_off_c, 0, 82, 58
1, 16229, Control_c, 0, 64, 24
1, 16244, Control_c, 0, 64, 37
1, 16259, Control_c, 0, 64, 47
1, 16282, Control_c, 0, 64, 55
1, 16297, Control_c, 0, 64, 59
1, 16299, Note_off_c, 0, 81, 65
1, 16311, Control_c, 0, 64, 62
1, 16316, Note_on_c, 0, 53, 45
1, 16321, Note_on_c, 0, 84, 58
1, 16326, Control_c, 0, 64, 64
1, 16341, Control_c, 0, 64, 66
1, 16356, Control_c, 0, 64, 69
1, 16368, Note_off_c, 0, 53, 60
1, 16370, Control_c, 0, 64, 71
1, 16385, Control_c, 0, 64, 72
1, 16394, Note_on_c, 0, 82, 54
1, 16400, Control_c, 0, 64, 73
1, 16404, Note_off_c, 0, 84, 52
1, 16429, Control_c, 0, 67, 96
1, 16460, Control_c, 0, 67, 95
1, 16471, Note_on_c, 0, 81, 55
1, 16471, Note_off_c, 0, 82, 58
1, 16527, Note_off_c, 0, 81, 65
1, 16537, Note_on_c, 0, 79, 64
1, 16564, Control_c, 0, 64, 73
1, 16566, Note_off_c, 0, 79, 66
1, 16594, Control_c, 0, 64, 72
1, 16608, Control_c, 0, 64, 71
1, 16610, Note_on_c, 0, 77, 62
1, 16623, Control_c, 0, 64, 69
1, 16638, Control_c, 0, 64, 63
1, 16650, Note_off_c, 0, 77, 58
1, 16653, Control_c, 0, 64, 41
1, 16668, Control_c, 0, 64, 0
1, 16682, Note_on_c, 0, 75, 58
1, 16748, Note_off_c, 0, 75, 61
1, 16755, Note_on_c, 0, 74, 63
1, 16801, Control_c, 0, 67, 95
1, 16803, Note_off_c, 0, 74, 63
1, 16829, Note_on_c, 0, 72, 64
1, 16860, Control_c, 0, 67, 94
1, 16868, Note_off_c, 0, 72, 58
1, 16906, Control_c, 0, 67, 94
1, 16924, Note_on_c, 0, 74, 60
1, 16935, Control_c, 0, 67, 93
1, 16950, Control_c, 0, 64, 47
1, 16950, Control_c, 0, 67, 93
1, 16965, Control_c, 0, 64, 54
1, 16979, Control_c, 0, 64, 61
1, 16994, Control_c, 0, 64, 65
1, 17009, Control_c, 0, 64, 67
1, 17009, Control_c, 0, 67, 92
1, 17018, Note_off_c, 0, 74, 63
1, 17024, Control_c, 0, 64, 70
1, 17046, Control_c, 0, 64, 71
1, 17046, Control_c, 0, 67, 92
1, 17061, Control_c, 0, 64, 73
1, 17061, Control_c, 0, 67, 91
1, 17076, Control_c, 0, 64, 73
1, 17076, Control_c, 0, 67, 90
1, 17091, Control_c, 0, 67, 88
1, 17093, Note_on_c, 0, 46, 71
1, 17100, Note_on_c, 0, 34, 58
1, 17106, Control_c, 0, 67, 85
1, 17118, Note_off_c, 0, 46, 67
1, 17121, Control_c, 0, 67, 79
1, 17135, Note_off_c, 0, 34, 63
1, 17135, Control_c, 0, 67, 66
1, 17150, Control_c, 0, 64, 72
1, 17150, Control_c, 0, 67, 48
1, 17165, Control_c, 0, 64, 70
1, 17165, Control_c, 0, 67, 26
1, 17180, Control_c, 0, 64, 66
1, 17180, Control_c, 0, 67, 0
1, 17194, Control_c, 0, 64, 59
1, 17209, Control_c, 0, 64, 23
1, 17224, Control_c, 0, 64, 0
1, 17239, Note_on_c, 0, 50, 85
1, 17249, Note_on_c, 0, 38, 66
1, 17264, Note_off_c, 0, 50, 72
1, 17275, Note_off_c, 0, 38, 55
1, 17312, Note_on_c, 0, 77, 70
1, 17372, Note_off_c, 0, 77, 58
1, 17390, Note_on_c, 0, 79, 77
1, 17394, Note_on_c, 0, 53, 73
1, 17401, Note_on_c, 0, 41, 63
1, 17420, Note_off_c, 0, 53, 69
1, 17427, Note_off_c, 0, 41, 57
1, 17452, Note_off_c, 0, 79, 63
1, 17469, Note_on_c, 0, 77, 69
1, 17537, Note_off_c, 0, 77, 59
1, 17548, Note_on_c, 0, 82, 81
1, 17550, Note_on_c, 0, 50, 73
1, 17559, Note_on_c, 0, 38, 61
1, 17566, Control_c, 0, 64, 50
1, 17575, Note_off_c, 0, 50, 69
1, 17581, Control_c, 0, 64, 61
1, 17586, Note_off_c, 0, 38, 55
1, 17596, Control_c, 0, 64, 66
1, 17610, Control_c, 0, 64, 72
1, 17622, Note_on_c, 0, 81, 74
1, 17625, Control_c, 0, 64, 75
1, 17640, Note_off_c, 0, 82, 57
1, 17640, Control_c, 0, 64, 76
1, 17654, Control_c, 0, 64, 76
1, 17699, Note_off_c, 0, 81, 67
1, 17705, Note_on_c, 0, 79, 76
1, 17747, Note_off_c, 0, 79, 63
1, 17771, Note_on_c, 0, 77, 72
1, 17773, Control_c, 0, 64, 76
1, 17795, Control_c, 0, 64, 75
1, 17809, Control_c, 0, 64, 74
1, 17824, Control_c, 0, 64, 72
1, 17838, Note_off_c, 0, 77, 64
1, 17839, Control_c, 0, 64, 70
1, 17851, Note_on_c, 0, 75, 71
1, 17854, Control_c, 0, 64, 67
1, 17869, Control_c, 0, 64, 63
1, 17884, Control_c, 0, 64, 59
1, 17899, Control_c, 0, 64, 51
1, 17914, Control_c, 0, 64, 37
1, 17928, Control_c, 0, 64, 0
1, 17934, Note_off_c, 0, 75, 62
1, 17937, Note_on_c, 0, 74, 51
1, 17958, Note_on_c, 0, 72, 39
1, 17969, Note_off_c, 0, 74, 66
1, 17988, Note_off_c, 0, 72, 0
1, 17988, Note_on_c, 0, 72, 23
1, 18032, Note_on_c, 0, 65, 49
1, 18036, Note_on_c, 0, 62, 41
1, 18040, Note_off_c, 0, 72, 66
1, 18078, Note_on_c, 0, 71, 69
1, 18110, Note_off_c, 0, 62, 56
1, 18126, Note_off_c, 0, 65, 55
1, 18131, Note_off_c, 0, 71, 64
1, 18137, Control_c, 0, 64, 25
1, 18152, Control_c, 0, 64, 41
1, 18158, Note_on_c, 0, 74, 67
1, 18161, Note_on_c, 0, 63, 51
1, 18162, Note_on_c, 0, 67, 55
1, 18167, Control_c, 0, 64, 53
1, 18181, Control_c, 0, 64, 59
1, 18196, Control_c, 0, 64, 61
1, 18208, Note_off_c, 0, 74, 65
1, 18211, Control_c, 0, 64, 63
1, 18225, Control_c, 0, 64, 65
1, 18234, Note_on_c, 0, 72, 72
1, 18240, Control_c, 0, 64, 67
1, 18255, Control_c, 0, 64, 68
1, 18270, Control_c, 0, 64, 69
1, 18274, Note_off_c, 0, 67, 49
1, 18285, Control_c, 0, 64, 70
1, 18299, Control_c, 0, 64, 71
1, 18306, Note_off_c, 0, 72, 61
1, 18309, Note_on_c, 0, 75, 66
1, 18310, Note_off_c, 0, 63, 52
1, 18314, Control_c, 0, 64, 72
1, 18329, Control_c, 0, 64, 74
1, 18373, Note_off_c, 0, 75, 62
1, 18373, Control_c, 0, 64, 73
1, 18375, Note_on_c, 0, 74, 71
1, 18388, Control_c, 0, 64, 73
1, 18403, Control_c, 0, 64, 72
1, 18418, Control_c, 0, 64, 70
1, 18432, Control_c, 0, 64, 69
1, 18436, Note_off_c, 0, 74, 65
1, 18447, Control_c, 0, 64, 69
1, 18455, Note_on_c, 0, 77, 74
1, 18462, Control_c, 0, 64, 68
1, 18477, Control_c, 0, 64, 67
1, 18492, Control_c, 0, 64, 66
1, 18507, Control_c, 0, 64, 64
1, 18507, Control_c, 0, 67, 8
1, 18529, Control_c, 0, 64, 62
1, 18529, Control_c, 0, 67, 10
1, 18544, Control_c, 0, 64, 60
1, 18544, Control_c, 0, 67, 14
1, 18545, Note_on_c, 0, 75, 74
1, 18548, Note_off_c, 0, 77, 63
1, 18558, Control_c, 0, 64, 59
1, 18558, Control_c, 0, 67, 18
1, 18573, Control_c, 0, 64, 57
1, 18573, Control_c, 0, 67, 22
1, 18588, Control_c, 0, 64, 53
1, 18588, Control_c, 0, 67, 26
1, 18596, Note_off_c, 0, 75, 63
1, 18603, Control_c, 0, 64, 46
1, 18603, Control_c, 0, 67, 30
1, 18605, Note_on_c, 0, 79, 72
1, 18618, Control_c, 0, 64, 37
1, 18618, Control_c, 0, 67, 34
1, 18632, Control_c, 0, 64, 19
1, 18632, Control_c, 0, 67, 39
1, 18647, Control_c, 0, 64, 0
1, 18647, Control_c, 0, 67, 44
1, 18662, Control_c, 0, 67, 48
1, 18677, Note_off_c, 0, 79, 60
1, 18677, Control_c, 0, 67, 50
1, 18680, Note_on_c, 0, 78, 78
1, 18692, Control_c, 0, 67, 51
1, 18706, Control_c, 0, 67, 52
1, 18721, Control_c, 0, 67, 53
1, 18736, Control_c, 0, 67, 55
1, 18751, Control_c, 0, 67, 59
1, 18753, Note_off_c, 0, 78, 65
1, 18759, Note_on_c, 0, 79, 72
1, 18766, Control_c, 0, 67, 65
1, 18781, Control_c, 0, 67, 70
1, 18796, Control_c, 0, 67, 73
1, 18811, Control_c, 0, 67, 76
1, 18824, Note_on_c, 0, 77, 71
1, 18826, Note_off_c, 0, 79, 58
1, 18826, Control_c, 0, 67, 77
1, 18840, Control_c, 0, 67, 78
1, 18856, Control_c, 0, 67, 79
1, 18870, Control_c, 0, 67, 81
1, 18885, Control_c, 0, 67, 81
1, 18900, Note_on_c, 0, 75, 69
1, 18900, Control_c, 0, 67, 82
1, 18901, Note_off_c, 0, 77, 62
1, 18930, Control_c, 0, 67, 82
1, 18960, Control_c, 0, 67, 83
1, 18968, Note_off_c, 0, 75, 63
1, 18972, Note_on_c, 0, 74, 66
1, 18989, Control_c, 0, 67, 83
1, 19004, Control_c, 0, 67, 84
1, 19005, Note_off_c, 0, 74, 67
1, 19019, Control_c, 0, 67, 86
1, 19034, Control_c, 0, 67, 87
1, 19043, Note_on_c, 0, 72, 67
1, 19078, Control_c, 0, 67, 88
1, 19091, Note_off_c, 0, 72, 64
1, 19112, Note_on_c, 0, 70, 67
1, 19177, Note_off_c, 0, 70, 63
1, 19186, Note_on_c, 0, 69, 64
1, 19195, Note_on_c, 0, 67, 48
1, 19200, Note_on_c, 0, 64, 48
1, 19226, Control_c, 0, 67, 87
1, 19241, Control_c, 0, 67, 87
1, 19245, Note_off_c, 0, 69, 63
1, 19255, Control_c, 0, 67, 86
1, 19262, Note_on_c, 0, 70, 60
1, 19267, Note_off_c, 0, 64, 45
1, 19278, Control_c, 0, 67, 85
1, 19293, Control_c, 0, 67, 85
1, 19302, Note_off_c, 0, 67, 33
1, 19323, Control_c, 0, 67, 84
1, 19335, Note_off_c, 0, 70, 63
1, 19337, Control_c, 0, 67, 84
1, 19352, Control_c, 0, 67, 83
1, 19357, Note_on_c, 0, 69, 61
1, 19360, Note_on_c, 0, 65, 47
1, 19367, Control_c, 0, 64, 29
1, 19367, Control_c, 0, 67, 82
1, 19381, Control_c, 0, 64, 48
1, 19381, Control_c, 0, 67, 81
1, 19396, Control_c, 0, 64, 58
1, 19396, Control_c, 0, 67, 80
1, 19401, Note_off_c, 0, 69, 63
1, 19411, Control_c, 0, 64, 62
1, 19411, Control_c, 0, 67, 79
1, 19421, Note_on_c, 0, 70, 58
1, 19426, Control_c, 0, 64, 63
1, 19426, Control_c, 0, 67, 78
1, 19441, Control_c, 0, 64, 64
1, 19441, Control_c, 0, 67, 77
1, 19455, Control_c, 0, 64, 65
1, 19455, Control_c, 0, 67, 75
1, 19461, Note_off_c, 0, 70, 64
1, 19470, Control_c, 0, 64, 65
1, 19470, Control_c, 0, 67, 71
1, 19471, Note_off_c, 0, 65, 53
1, 19485, Control_c, 0, 67, 63
1, 19496, Note_on_c, 0, 72, 70
1, 19500, Control_c, 0, 64, 65
1, 19500, Control_c, 0, 67, 50
1, 19515, Control_c, 0, 67, 32
1, 19529, Control_c, 0, 64, 64
1, 19529, Control_c, 0, 67, 0
1, 19535, Note_off_c, 0, 72, 56
1, 19544, Control_c, 0, 64, 63
1, 19559, Control_c, 0, 64, 62
1, 19569, Note_on_c, 0, 74, 63
1, 19574, Control_c, 0, 64, 60
1, 19589, Control_c, 0, 64, 57
1, 19604, Control_c, 0, 64, 55
1, 19619, Control_c, 0, 64, 52
1, 19625, Note_off_c, 0, 74, 62
1, 19634, Control_c, 0, 64, 51
1, 19643, Note_on_c, 0, 76, 63
1, 19649, Control_c, 0, 64, 48
1, 19664, Control_c, 0, 64, 44
1, 19678, Control_c, 0, 64, 36
1, 19693, Control_c, 0, 64, 23
1, 19698, Note_off_c, 0, 76, 52
1, 19708, Control_c, 0, 64, 0
1, 19720, Note_on_c, 0, 77, 62
1, 19767, Note_off_c, 0, 77, 60
1, 19802, Note_on_c, 0, 76, 63
1, 19836, Note_off_c, 0, 76, 64
1, 19857, Control_c, 0, 64, 19
1, 19862, Note_on_c, 0, 77, 57
1, 19872, Control_c, 0, 64, 33
1, 19881, Note_off_c, 0, 77, 64
1, 19886, Control_c, 0, 64, 43
1, 19902, Control_c, 0, 64, 50
1, 19917, Control_c, 0, 64, 54
1, 19932, Control_c, 0, 64, 58
1, 19944, Note_on_c, 0, 65, 63
1, 19946, Control_c, 0, 64, 62
1, 19958, Note_on_c, 0, 45, 51
1, 19961, Control_c, 0, 64, 66
1, 19976, Control_c, 0, 64, 69
1, 19991, Control_c, 0, 64, 71
1, 20042, Control_c, 0, 67, 10
1, 20050, Note_on_c, 0, 46, 63
1, 20065, Note_off_c, 0, 45, 62
1, 20072, Control_c, 0, 64, 70
1, 20084, Note_off_c, 0, 65, 57
1, 20087, Control_c, 0, 64, 70
1, 20087, Control_c, 0, 67, 11
1, 20102, Control_c, 0, 64, 69
1, 20102, Control_c, 0, 67, 11
1, 20116, Control_c, 0, 64, 68
1, 20116, Control_c, 0, 67, 13
1, 20119, Note_on_c, 0, 48, 61
1, 20128, Note_off_c, 0, 46, 64
1, 20131, Control_c, 0, 64, 67
1, 20131, Control_c, 0, 67, 18
1, 20146, Control_c, 0, 64, 66
1, 20146, Control_c, 0, 67, 24
1, 20161, Control_c, 0, 64, 65
1, 20161, Control_c, 0, 67, 30
1, 20164, Note_off_c, 0, 48, 62
1, 20176, Control_c, 0, 64, 64
1, 20176, Control_c, 0, 67, 35
1, 20182, Note_on_c, 0, 50, 66
1, 20191, Control_c, 0, 64, 63
1, 20191, Control_c, 0, 67, 41
1, 20205, Control_c, 0, 64, 61
1, 20205, Control_c, 0, 67, 47
1, 20218, Note_off_c, 0, 50, 66
1, 20220, Control_c, 0, 64, 60
1, 20220, Control_c, 0, 67, 53
1, 20235, Control_c, 0, 64, 59
1, 20235, Control_c, 0, 67, 59
1, 20250, Control_c, 0, 64, 57
1, 20250, Control_c, 0, 67, 63
1, 20259, Note_on_c, 0, 52, 64
1, 20265, Control_c, 0, 64, 55
1, 20265, Control_c, 0, 67, 67
1, 20279, Control_c, 0, 64, 50
1, 20279, Control_c, 0, 67, 71
1, 20294, Control_c, 0, 64, 45
1, 20294, Control_c, 0, 67, 75
1, 20309, Control_c, 0, 64, 36
1, 20309, Control_c, 0, 67, 77
1, 20315, Note_off_c, 0, 52, 63
1, 20323, Control_c, 0, 64, 22
1, 20323, Control_c, 0, 67, 79
1, 20338, Control_c, 0, 64, 0
1, 20338, Control_c, 0, 67, 82
1, 20346, Note_on_c, 0, 53, 61
1, 20353, Control_c, 0, 67, 85
1, 20368, Control_c, 0, 67, 89
1, 20383, Control_c, 0, 67, 91
1, 20384, Note_off_c, 0, 53, 65
1, 20397, Control_c, 0, 67, 94
1, 20412, Control_c, 0, 67, 97
1, 20420, Note_on_c, 0, 52, 51
1, 20427, Control_c, 0, 67, 100
1, 20467, Note_off_c, 0, 52, 64
1, 20498, Note_on_c, 0, 53, 51
1, 20545, Note_off_c, 0, 53, 59
1, 20606, Control_c, 0, 64, 23
1, 20621, Control_c, 0, 64, 37
1, 20635, Control_c, 0, 64, 47
1, 20639, Note_on_c, 0, 41, 43
1, 20650, Control_c, 0, 64, 55
1, 20665, Control_c, 0, 64, 59
1, 20680, Control_c, 0, 64, 61
1, 20695, Control_c, 0, 64, 64
1, 20710, Control_c, 0, 64, 66
1, 20725, Control_c, 0, 64, 69
1, 20739, Control_c, 0, 64, 72
1, 20754, Control_c, 0, 64, 72
1, 20792, Note_off_c, 0, 41, 55
1, 20850, Control_c, 0, 67, 99
1, 20865, Control_c, 0, 67, 99
1, 20909, Control_c, 0, 64, 72
1, 20924, Control_c, 0, 67, 98
1, 20939, Control_c, 0, 64, 71
1, 20969, Control_c, 0, 64, 71
1, 20984, Control_c, 0, 64, 70
1, 20999, Control_c, 0, 64, 68
1, 21014, Control_c, 0, 64, 67
1, 21028, Control_c, 0, 64, 66
1, 21043, Control_c, 0, 64, 66
1, 21073, Control_c, 0, 64, 65
1, 21088, Control_c, 0, 64, 64
1, 21102, Control_c, 0, 64, 63
1, 21117, Control_c, 0, 64, 60
1, 21132, Control_c, 0, 64, 57
1, 21146, Control_c, 0, 64, 52
1, 21161, Control_c, 0, 64, 44
1, 21176, Control_c, 0, 64, 33
1, 21191, Control_c, 0, 64, 17
1, 21206, Control_c, 0, 64, 0
1, 21306, Note_on_c, 0, 84, 46
1, 21335, Note_off_c, 0, 84, 62
1, 21448, Note_on_c, 0, 84, 66
1, 21485, Note_off_c, 0, 84, 64
1, 21554, Control_c, 0, 67, 98
1, 21583, Control_c, 0, 67, 97
1, 21598, Note_on_c, 0, 84, 78
1, 21613, Control_c, 0, 67, 97
1, 21628, Control_c, 0, 67, 96
1, 21640, Note_off_c, 0, 84, 65
1, 21643, Control_c, 0, 67, 96
1, 21658, Control_c, 0, 67, 95
1, 21687, Control_c, 0, 67, 95
1, 21717, Control_c, 0, 67, 94
1, 21732, Control_c, 0, 67, 94
1, 21742, Note_on_c, 0, 84, 81
1, 21747, Control_c, 0, 67, 93
1, 21762, Control_c, 0, 67, 92
1, 21777, Note_off_c, 0, 84, 61
1, 21791, Control_c, 0, 67, 92
1, 21806, Control_c, 0, 67, 91
1, 21836, Control_c, 0, 67, 91
1, 21895, Note_on_c, 0, 84, 79
1, 21910, Control_c, 0, 67, 90
1, 21932, Note_off_c, 0, 84, 66
1, 21939, Control_c, 0, 67, 90
1, 21969, Control_c, 0, 67, 89
1, 21998, Control_c, 0, 67, 89
1, 22028, Control_c, 0, 64, 21
1, 22028, Control_c, 0, 67, 88
1, 22044, Control_c, 0, 64, 32
1, 22044, Control_c, 0, 67, 87
1, 22059, Control_c, 0, 64, 41
1, 22059, Control_c, 0, 67, 85
1, 22064, Note_on_c, 0, 84, 73
1, 22068, Note_on_c, 0, 65, 32
1, 22073, Control_c, 0, 64, 49
1, 22073, Control_c, 0, 67, 85
1, 22088, Control_c, 0, 64, 55
1, 22088, Control_c, 0, 67, 84
1, 22103, Control_c, 0, 64, 60
1, 22118, Control_c, 0, 64, 62
1, 22118, Control_c, 0, 67, 84
1, 22133, Control_c, 0, 64, 64
1, 22133, Control_c, 0, 67, 83
1, 22147, Control_c, 0, 64, 65
1, 22147, Control_c, 0, 67, 82
1, 22162, Control_c, 0, 64, 66
1, 22162, Control_c, 0, 67, 80
1, 22177, Control_c, 0, 64, 68
1, 22177, Control_c, 0, 67, 78
1, 22191, Control_c, 0, 64, 70
1, 22191, Control_c, 0, 67, 76
1, 22206, Control_c, 0, 64, 71
1, 22206, Control_c, 0, 67, 74
1, 22221, Control_c, 0, 64, 71
1, 22221, Control_c, 0, 67, 71
1, 22236, Note_on_c, 0, 72, 41
1, 22236, Control_c, 0, 64, 72
1, 22236, Control_c, 0, 67, 69
1, 22251, Control_c, 0, 67, 67
1, 22273, Control_c, 0, 67, 64
1, 22288, Control_c, 0, 64, 71
1, 22288, Control_c, 0, 67, 62
1, 22303, Control_c, 0, 67, 58
1, 22318, Control_c, 0, 67, 56
1, 22333, Control_c, 0, 64, 71
1, 22333, Control_c, 0, 67, 54
1, 22342, Note_off_c, 0, 72, 52
1, 22347, Control_c, 0, 67, 51
1, 22362, Control_c, 0, 64, 70
1, 22362, Control_c, 0, 67, 48
1, 22377, Control_c, 0, 64, 70
1, 22377, Control_c, 0, 67, 44
1, 22390, Note_off_c, 0, 84, 42
1, 22392, Note_on_c, 0, 69, 41
1, 22392, Control_c, 0, 64, 69
1, 22392, Control_c, 0, 67, 42
1, 22406, Control_c, 0, 64, 68
1, 22406, Control_c, 0, 67, 39
1, 22421, Control_c, 0, 64, 68
1, 22421, Control_c, 0, 67, 34
1, 22436, Control_c, 0, 64, 67
1, 22436, Control_c, 0, 67, 30
1, 22448, Note_off_c, 0, 65, 34
1, 22451, Control_c, 0, 64, 67
1, 22451, Control_c, 0, 67, 26
1, 22466, Control_c, 0, 64, 66
1, 22466, Control_c, 0, 67, 23
1, 22480, Control_c, 0, 64, 66
1, 22480, Control_c, 0, 67, 20
1, 22495, Control_c, 0, 64, 65
1, 22495, Control_c, 0, 67, 18
1, 22510, Control_c, 0, 67, 16
1, 22525, Control_c, 0, 64, 64
1, 22525, Control_c, 0, 67, 13
1, 22537, Note_on_c, 0, 72, 31
1, 22540, Control_c, 0, 64, 64
1, 22540, Control_c, 0, 67, 11
1, 22544, Note_on_c, 0, 82, 66
1, 22555, Control_c, 0, 64, 63
1, 22555, Control_c, 0, 67, 9
1, 22570, Control_c, 0, 64, 63
1, 22570, Control_c, 0, 67, 0
1, 22578, Note_off_c, 0, 82, 64
1, 22585, Control_c, 0, 64, 62
1, 22597, Note_on_c, 0, 81, 64
1, 22599, Control_c, 0, 64, 61
1, 22603, Note_off_c, 0, 69, 39
1, 22614, Control_c, 0, 64, 60
1, 22629, Control_c, 0, 64, 57
1, 22644, Control_c, 0, 64, 52
1, 22654, Note_off_c, 0, 72, 45
1, 22655, Note_off_c, 0, 81, 64
1, 22659, Control_c, 0, 64, 44
1, 22662, Note_on_c, 0, 79, 67
1, 22673, Control_c, 0, 64, 32
1, 22677, Note_on_c, 0, 67, 35
1, 22688, Control_c, 0, 64, 10
1, 22692, Note_off_c, 0, 79, 65
1, 22703, Control_c, 0, 64, 0
1, 22808, Note_on_c, 0, 77, 65
1, 22820, Note_on_c, 0, 72, 45
1, 22844, Note_off_c, 0, 77, 62
1, 22948, Note_off_c, 0, 72, 46
1, 22952, Note_on_c, 0, 76, 67
1, 22966, Note_on_c, 0, 70, 44
1, 22983, Note_off_c, 0, 76, 63
1, 23091, Note_off_c, 0, 67, 40
1, 23108, Note_on_c, 0, 79, 56
1, 23109, Note_on_c, 0, 72, 37
1, 23134, Note_off_c, 0, 70, 46
1, 23142, Note_off_c, 0, 79, 61
1, 23260, Control_c, 0, 64, 15
1, 23262, Note_on_c, 0, 77, 52
1, 23264, Note_off_c, 0, 72, 45
1, 23270, Note_on_c, 0, 69, 44
1, 23275, Control_c, 0, 64, 28
1, 23290, Control_c, 0, 64, 37
1, 23304, Control_c, 0, 64, 45
1, 23319, Control_c, 0, 64, 52
1, 23334, Control_c, 0, 64, 57
1, 23348, Control_c, 0, 64, 60
1, 23363, Control_c, 0, 64, 62
1, 23378, Control_c, 0, 64, 63
1, 23393, Control_c, 0, 64, 64
1, 23408, Control_c, 0, 64, 65
1, 23422, Control_c, 0, 64, 65
1, 23426, Note_on_c, 0, 65, 39
1, 23437, Control_c, 0, 64, 66
1, 23467, Control_c, 0, 64, 66
1, 23482, Control_c, 0, 64, 68
1, 23497, Control_c, 0, 64, 70
1, 23512, Control_c, 0, 64, 71
1, 23527, Control_c, 0, 64, 72
1, 23576, Note_off_c, 0, 65, 34
1, 23583, Note_on_c, 0, 72, 47
1, 23586, Control_c, 0, 64, 71
1, 23607, Note_off_c, 0, 69, 43
1, 23616, Control_c, 0, 64, 71
1, 23623, Note_off_c, 0, 77, 36
1, 23631, Note_off_c, 0, 72, 60
1, 23646, Control_c, 0, 64, 70
1, 23661, Control_c, 0, 64, 69
1, 23676, Control_c, 0, 64, 69
1, 23691, Control_c, 0, 64, 68
1, 23705, Control_c, 0, 64, 67
1, 23720, Control_c, 0, 64, 66
1, 23732, Note_on_c, 0, 84, 52
1, 23735, Control_c, 0, 64, 65
1, 23750, Control_c, 0, 64, 64
1, 23755, Note_off_c, 0, 84, 64
1, 23771, Control_c, 0, 64, 63
1, 23786, Control_c, 0, 64, 61
1, 23801, Control_c, 0, 64, 59
1, 23816, Control_c, 0, 64, 57
1, 23831, Control_c, 0, 64, 54
1, 23846, Control_c, 0, 64, 50
1, 23860, Control_c, 0, 64, 46
1, 23875, Control_c, 0, 64, 38
1, 23876, Note_on_c, 0, 84, 63
1, 23890, Control_c, 0, 64, 28
1, 23905, Note_off_c, 0, 84, 67
1, 23905, Control_c, 0, 64, 0
1, 24012, Note_on_c, 0, 84, 73
1, 24050, Note_off_c, 0, 84, 66
1, 24157, Note_on_c, 0, 84, 76
1, 24188, Note_off_c, 0, 84, 60
1, 24299, Note_on_c, 0, 84, 77
1, 24305, Control_c, 0, 64, 13
1, 24320, Control_c, 0, 64, 20
1, 24334, Control_c, 0, 64, 26
1, 24340, Note_off_c, 0, 84, 64
1, 24349, Control_c, 0, 64, 30
1, 24364, Control_c, 0, 64, 33
1, 24379, Control_c, 0, 64, 36
1, 24394, Control_c, 0, 64, 41
1, 24409, Control_c, 0, 64, 45
1, 24424, Control_c, 0, 64, 49
1, 24439, Control_c, 0, 64, 51
1, 24454, Control_c, 0, 64, 54
1, 24466, Note_on_c, 0, 84, 63
1, 24469, Control_c, 0, 64, 57
1, 24483, Control_c, 0, 64, 60
1, 24487, Note_on_c, 0, 65, 35
1, 24498, Control_c, 0, 64, 62
1, 24513, Control_c, 0, 64, 63
1, 24536, Control_c, 0, 64, 64
1, 24550, Control_c, 0, 64, 65
1, 24565, Control_c, 0, 64, 67
1, 24580, Control_c, 0, 64, 68
1, 24594, Control_c, 0, 64, 69
1, 24609, Control_c, 0, 64, 69
1, 24644, Note_on_c, 0, 72, 36
1, 24646, Note_off_c, 0, 84, 36
1, 24730, Note_off_c, 0, 72, 38
1, 24758, Control_c, 0, 64, 69
1, 24758, Control_c, 0, 67, 9
1, 24773, Control_c, 0, 64, 68
1, 24773, Control_c, 0, 67, 11
1, 24788, Control_c, 0, 64, 68
1, 24788, Control_c, 0, 67, 12
1, 24793, Note_on_c, 0, 69, 37
1, 24802, Control_c, 0, 64, 67
1, 24823, Note_off_c, 0, 65, 38
1, 24832, Control_c, 0, 67, 12
1, 24847, Control_c, 0, 67, 13
1, 24862, Control_c, 0, 67, 14
1, 24877, Control_c, 0, 64, 67
1, 24877, Control_c, 0, 67, 16
1, 24892, Control_c, 0, 67, 18
1, 24907, Control_c, 0, 67, 21
1, 24922, Control_c, 0, 67, 24
1, 24937, Control_c, 0, 64, 66
1, 24937, Control_c, 0, 67, 27
1, 24943, Note_on_c, 0, 72, 40
1, 24946, Note_on_c, 0, 82, 62
1, 24951, Control_c, 0, 64, 66
1, 24951, Control_c, 0, 67, 30
1, 24966, Control_c, 0, 64, 65
1, 24966, Control_c, 0, 67, 32
1, 24981, Control_c, 0, 64, 64
1, 24981, Control_c, 0, 67, 35
1, 24995, Control_c, 0, 64, 64
1, 24995, Control_c, 0, 67, 38
1, 25005, Note_off_c, 0, 82, 61
1, 25008, Note_on_c, 0, 81, 58
1, 25010, Control_c, 0, 64, 63
1, 25010, Control_c, 0, 67, 41
1, 25013, Note_off_c, 0, 69, 36
1, 25023, Note_off_c, 0, 72, 39
1, 25025, Control_c, 0, 64, 62
1, 25025, Control_c, 0, 67, 42
1, 25040, Control_c, 0, 64, 61
1, 25051, Note_off_c, 0, 81, 66
1, 25055, Control_c, 0, 64, 60
1, 25069, Control_c, 0, 64, 58
1, 25073, Note_on_c, 0, 79, 63
1, 25084, Control_c, 0, 64, 56
1, 25091, Note_on_c, 0, 64, 38
1, 25099, Control_c, 0, 64, 55
1, 25101, Note_off_c, 0, 79, 66
1, 25113, Control_c, 0, 64, 54
1, 25128, Control_c, 0, 64, 52
1, 25128, Control_c, 0, 67, 41
1, 25143, Control_c, 0, 64, 51
1, 25158, Control_c, 0, 64, 50
1, 25173, Control_c, 0, 64, 50
1, 25187, Control_c, 0, 64, 49
1, 25202, Control_c, 0, 64, 48
1, 25202, Control_c, 0, 67, 41
1, 25210, Note_on_c, 0, 81, 64
1, 25217, Control_c, 0, 64, 46
1, 25217, Control_c, 0, 67, 40
1, 25226, Note_on_c, 0, 72, 45
1, 25232, Control_c, 0, 64, 44
1, 25241, Note_off_c, 0, 81, 66
1, 25248, Control_c, 0, 64, 41
1, 25248, Control_c, 0, 67, 40
1, 25263, Control_c, 0, 64, 38
1, 25285, Control_c, 0, 64, 36
1, 25300, Control_c, 0, 64, 35
1, 25315, Control_c, 0, 64, 34
1, 25315, Control_c, 0, 67, 39
1, 25321, Note_off_c, 0, 72, 49
1, 25330, Control_c, 0, 64, 34
1, 25345, Control_c, 0, 67, 38
1, 25359, Note_on_c, 0, 82, 68
1, 25360, Control_c, 0, 67, 38
1, 25374, Control_c, 0, 67, 37
1, 25386, Note_on_c, 0, 67, 29
1, 25389, Control_c, 0, 67, 37
1, 25390, Note_off_c, 0, 82, 61
1, 25404, Control_c, 0, 67, 36
1, 25419, Control_c, 0, 64, 34
1, 25419, Control_c, 0, 67, 36
1, 25433, Control_c, 0, 67, 35
1, 25467, Note_off_c, 0, 64, 43
1, 25478, Control_c, 0, 67, 36
1, 25492, Note_on_c, 0, 72, 43
1, 25500, Note_on_c, 0, 79, 60
1, 25512, Note_off_c, 0, 67, 35
1, 25522, Control_c, 0, 67, 36
1, 25533, Note_off_c, 0, 79, 62
1, 25537, Control_c, 0, 64, 33
1, 25537, Control_c, 0, 67, 37
1, 25551, Control_c, 0, 64, 28
1, 25551, Control_c, 0, 67, 38
1, 25566, Control_c, 0, 64, 19
1, 25581, Control_c, 0, 64, 0
1, 25581, Control_c, 0, 67, 38
1, 25611, Control_c, 0, 67, 39
1, 25654, Note_on_c, 0, 81, 51
1, 25655, Note_on_c, 0, 65, 40
1, 25655, Control_c, 0, 67, 39
1, 25706, Note_off_c, 0, 72, 38
1, 25759, Control_c, 0, 67, 39
1, 25774, Control_c, 0, 64, 27
1, 25789, Control_c, 0, 64, 40
1, 25789, Control_c, 0, 67, 38
1, 25804, Control_c, 0, 64, 47
1, 25804, Control_c, 0, 67, 38
1, 25818, Control_c, 0, 64, 52
1, 25818, Control_c, 0, 67, 37
1, 25823, Note_on_c, 0, 69, 37
1, 25833, Control_c, 0, 64, 55
1, 25848, Control_c, 0, 64, 57
1, 25848, Control_c, 0, 67, 37
1, 25863, Control_c, 0, 64, 60
1, 25863, Control_c, 0, 67, 36
1, 25878, Control_c, 0, 64, 62
1, 25892, Control_c, 0, 64, 64
1, 25892, Control_c, 0, 67, 36
1, 25907, Control_c, 0, 64, 66
1, 25907, Control_c, 0, 67, 35
1, 25922, Control_c, 0, 64, 68
1, 25923, Note_off_c, 0, 81, 55
1, 25936, Control_c, 0, 64, 70
1, 25936, Control_c, 0, 67, 35
1, 25951, Control_c, 0, 64, 72
1, 25951, Control_c, 0, 67, 34
1, 25966, Control_c, 0, 64, 72
1, 25966, Control_c, 0, 67, 33
1, 25974, Note_on_c, 0, 72, 40
1, 25981, Control_c, 0, 67, 33
1, 26018, Control_c, 0, 67, 31
1, 26033, Control_c, 0, 64, 72
1, 26033, Control_c, 0, 67, 30
1, 26048, Control_c, 0, 67, 26
1, 26058, Note_off_c, 0, 72, 35
1, 26063, Control_c, 0, 64, 71
1, 26063, Control_c, 0, 67, 22
1, 26078, Control_c, 0, 64, 70
1, 26078, Control_c, 0, 67, 18
1, 26093, Control_c, 0, 64, 68
1, 26093, Control_c, 0, 67, 16
1, 26108, Control_c, 0, 64, 66
1, 26108, Control_c, 0, 67, 13
1, 26111, Note_off_c, 0, 65, 42
1, 26116, Note_off_c, 0, 69, 46
1, 26122, Note_on_c, 0, 84, 60
1, 26123, Control_c, 0, 64, 65
1, 26123, Control_c, 0, 67, 9
1, 26138, Control_c, 0, 64, 64
1, 26138, Control_c, 0, 67, 0
1, 26153, Control_c, 0, 64, 62
1, 26158, Note_off_c, 0, 84, 61
1, 26167, Control_c, 0, 64, 59
1, 26182, Control_c, 0, 64, 55
1, 26197, Control_c, 0, 64, 49
1, 26212, Control_c, 0, 64, 37
1, 26227, Control_c, 0, 64, 10
1, 26242, Control_c, 0, 64, 0
1, 26272, Note_on_c, 0, 84, 69
1, 26316, Note_off_c, 0, 84, 62
1, 26389, Control_c, 0, 64, 9
1, 26404, Control_c, 0, 64, 23
1, 26415, Note_on_c, 0, 84, 81
1, 26419, Control_c, 0, 64, 33
1, 26434, Control_c, 0, 64, 44
1, 26448, Control_c, 0, 64, 51
1, 26453, Note_off_c, 0, 84, 64
1, 26463, Control_c, 0, 64, 56
1, 26478, Control_c, 0, 64, 58
1, 26493, Control_c, 0, 64, 59
1, 26508, Control_c, 0, 64, 61
1, 26522, Control_c, 0, 64, 63
1, 26537, Control_c, 0, 64, 65
1, 26552, Control_c, 0, 64, 66
1, 26557, Note_on_c, 0, 84, 75
1, 26567, Control_c, 0, 64, 66
1, 26582, Control_c, 0, 64, 67
1, 26597, Control_c, 0, 64, 67
1, 26606, Note_off_c, 0, 84, 62
1, 26612, Control_c, 0, 64, 68
1, 26627, Control_c, 0, 64, 68
1, 26671, Control_c, 0, 64, 68
1, 26685, Control_c, 0, 64, 67
1, 26703, Note_on_c, 0, 85, 68
1, 26745, Control_c, 0, 64, 67
1, 26767, Control_c, 0, 64, 66
1, 26782, Control_c, 0, 64, 65
1, 26789, Note_off_c, 0, 85, 55
1, 26797, Control_c, 0, 64, 63
1, 26812, Control_c, 0, 64, 60
1, 26826, Control_c, 0, 64, 56
1, 26842, Control_c, 0, 64, 49
1, 26857, Control_c, 0, 64, 44
1, 26865, Note_on_c, 0, 46, 35
1, 26880, Note_on_c, 0, 86, 61
1, 26883, Note_on_c, 0, 58, 25
1, 26886, Control_c, 0, 64, 48
1, 26901, Control_c, 0, 64, 54
1, 26916, Control_c, 0, 64, 59
1, 26931, Control_c, 0, 64, 61
1, 26933, Note_off_c, 0, 86, 62
1, 26946, Control_c, 0, 64, 64
1, 26961, Control_c, 0, 64, 68
1, 26976, Control_c, 0, 64, 74
1, 26990, Control_c, 0, 64, 77
1, 26994, Note_on_c, 0, 74, 52
1, 27005, Control_c, 0, 64, 78
1, 27049, Note_off_c, 0, 74, 55
1, 27077, Note_on_c, 0, 73, 59
1, 27079, Control_c, 0, 67, 11
1, 27094, Control_c, 0, 67, 16
1, 27109, Control_c, 0, 64, 77
1, 27109, Control_c, 0, 67, 21
1, 27110, Note_off_c, 0, 58, 43
1, 27116, Note_off_c, 0, 73, 63
1, 27124, Control_c, 0, 64, 77
1, 27124, Control_c, 0, 67, 26
1, 27139, Control_c, 0, 64, 76
1, 27139, Control_c, 0, 67, 34
1, 27152, Note_off_c, 0, 46, 44
1, 27153, Note_on_c, 0, 74, 60
1, 27153, Control_c, 0, 64, 76
1, 27153, Control_c, 0, 67, 38
1, 27168, Control_c, 0, 64, 75
1, 27168, Control_c, 0, 67, 39
1, 27183, Note_off_c, 0, 74, 64
1, 27183, Control_c, 0, 64, 74
1, 27183, Control_c, 0, 67, 39
1, 27197, Control_c, 0, 64, 73
1, 27197, Control_c, 0, 67, 40
1, 27210, Note_on_c, 0, 75, 63
1, 27212, Control_c, 0, 64, 72
1, 27212, Control_c, 0, 67, 41
1, 27227, Control_c, 0, 64, 71
1, 27227, Control_c, 0, 67, 42
1, 27240, Note_off_c, 0, 75, 66
1, 27242, Control_c, 0, 64, 71
1, 27257, Control_c, 0, 64, 70
1, 27257, Control_c, 0, 67, 43
1, 27268, Note_on_c, 0, 74, 62
1, 27271, Control_c, 0, 64, 70
1, 27271, Control_c, 0, 67, 48
1, 27286, Control_c, 0, 64, 69
1, 27286, Control_c, 0, 67, 55
1, 27301, Control_c, 0, 64, 67
1, 27301, Control_c, 0, 67, 58
1, 27315, Control_c, 0, 64, 65
1, 27315, Control_c, 0, 67, 61
1, 27317, Note_off_c, 0, 74, 60
1, 27330, Control_c, 0, 64, 64
1, 27330, Control_c, 0, 67, 65
1, 27333, Note_on_c, 0, 76, 74
1, 27345, Control_c, 0, 64, 62
1, 27345, Control_c, 0, 67, 67
1, 27360, Control_c, 0, 64, 60
1, 27360, Control_c, 0, 67, 68
1, 27375, Control_c, 0, 64, 59
1, 27375, Control_c, 0, 67, 68
1, 27381, Note_off_c, 0, 76, 63
1, 27389, Control_c, 0, 64, 57
1, 27389, Control_c, 0, 67, 70
1, 27404, Control_c, 0, 64, 53
1, 27404, Control_c, 0, 67, 73
1, 27414, Note_on_c, 0, 74, 62
1, 27419, Control_c, 0, 64, 47
1, 27419, Control_c, 0, 67, 77
1, 27434, Control_c, 0, 64, 31
1, 27434, Control_c, 0, 67, 82
1, 27449, Note_off_c, 0, 74, 61
1, 27449, Control_c, 0, 64, 0
1, 27449, Control_c, 0, 67, 85
1, 27468, Note_on_c, 0, 77, 65
1, 27509, Note_off_c, 0, 77, 62
1, 27554, Note_on_c, 0, 74, 65
1, 27575, Control_c, 0, 67, 84
1, 27586, Note_off_c, 0, 74, 62
1, 27590, Control_c, 0, 67, 84
1, 27612, Note_on_c, 0, 78, 66
1, 27619, Control_c, 0, 67, 83
1, 27646, Note_off_c, 0, 78, 63
1, 27664, Control_c, 0, 64, 20
1, 27679, Control_c, 0, 64, 30
1, 27680, Note_on_c, 0, 74, 61
1, 27694, Control_c, 0, 64, 37
1, 27709, Control_c, 0, 64, 40
1, 27709, Control_c, 0, 67, 83
1, 27714, Note_off_c, 0, 74, 62
1, 27724, Control_c, 0, 64, 45
1, 27738, Control_c, 0, 64, 51
1, 27748, Note_on_c, 0, 79, 64
1, 27753, Control_c, 0, 64, 54
1, 27768, Control_c, 0, 64, 55
1, 27782, Note_off_c, 0, 79, 60
1, 27822, Note_on_c, 0, 74, 51
1, 27827, Control_c, 0, 64, 54
1, 27842, Control_c, 0, 64, 54
1, 27857, Control_c, 0, 64, 53
1, 27866, Note_off_c, 0, 74, 59
1, 27872, Control_c, 0, 64, 51
1, 27872, Control_c, 0, 67, 82
1, 27884, Note_on_c, 0, 81, 58
1, 27886, Control_c, 0, 64, 50
1, 27886, Control_c, 0, 67, 82
1, 27901, Control_c, 0, 64, 49
1, 27916, Control_c, 0, 67, 81
1, 27917, Note_off_c, 0, 81, 66
1, 27931, Control_c, 0, 64, 50
1, 27945, Control_c, 0, 64, 51
1, 27960, Control_c, 0, 64, 52
1, 27960, Control_c, 0, 67, 81
1, 27966, Note_on_c, 0, 74, 47
1, 27975, Control_c, 0, 64, 55
1, 27975, Control_c, 0, 67, 80
1, 27990, Control_c, 0, 64, 56
1, 27990, Control_c, 0, 67, 80
1, 27994, Note_off_c, 0, 74, 54
1, 28005, Control_c, 0, 64, 58
1, 28005, Control_c, 0, 67, 79
1, 28019, Control_c, 0, 64, 60
1, 28019, Control_c, 0, 67, 78
1, 28029, Note_on_c, 0, 67, 44
1, 28034, Control_c, 0, 64, 62
1, 28034, Control_c, 0, 67, 77
1, 28043, Note_on_c, 0, 82, 61
1, 28049, Control_c, 0, 64, 64
1, 28049, Control_c, 0, 67, 77
1, 28064, Control_c, 0, 64, 65
1, 28064, Control_c, 0, 67, 76
1, 28079, Control_c, 0, 64, 67
1, 28079, Control_c, 0, 67, 76
1, 28080, Note_off_c, 0, 67, 58
1, 28093, Control_c, 0, 64, 68
1, 28093, Control_c, 0, 67, 75
1, 28096, Note_on_c, 0, 69, 56
1, 28108, Control_c, 0, 64, 69
1, 28108, Control_c, 0, 67, 74
1, 28123, Control_c, 0, 67, 72
1, 28134, Note_off_c, 0, 69, 66
1, 28137, Control_c, 0, 64, 70
1, 28137, Control_c, 0, 67, 70
1, 28152, Control_c, 0, 67, 68
1, 28165, Note_on_c, 0, 70, 60
1, 28167, Control_c, 0, 67, 66
1, 28182, Control_c, 0, 67, 65
1, 28197, Control_c, 0, 67, 63
1, 28211, Control_c, 0, 67, 60
1, 28214, Note_off_c, 0, 70, 61
1, 28226, Control_c, 0, 64, 69
1, 28226, Control_c, 0, 67, 57
1, 28237, Note_off_c, 0, 82, 62
1, 28241, Control_c, 0, 67, 55
1, 28246, Note_on_c, 0, 69, 54
1, 28256, Control_c, 0, 67, 52
1, 28278, Control_c, 0, 64, 69
1, 28278, Control_c, 0, 67, 51
1, 28293, Control_c, 0, 67, 51
1, 28299, Note_off_c, 0, 69, 61
1, 28305, Note_on_c, 0, 67, 61
1, 28308, Control_c, 0, 64, 68
1, 28308, Control_c, 0, 67, 50
1, 28323, Control_c, 0, 64, 67
1, 28337, Control_c, 0, 64, 65
1, 28337, Control_c, 0, 67, 50
1, 28352, Control_c, 0, 64, 64
1, 28352, Control_c, 0, 67, 49
1, 28362, Note_on_c, 0, 69, 50
1, 28364, Note_off_c, 0, 67, 63
1, 28367, Control_c, 0, 64, 61
1, 28367, Control_c, 0, 67, 48
1, 28382, Control_c, 0, 64, 58
1, 28382, Control_c, 0, 67, 46
1, 28397, Control_c, 0, 64, 53
1, 28397, Control_c, 0, 67, 43
1, 28412, Control_c, 0, 64, 49
1, 28412, Control_c, 0, 67, 41
1, 28415, Note_off_c, 0, 69, 62
1, 28426, Control_c, 0, 64, 45
1, 28426, Control_c, 0, 67, 37
1, 28430, Note_on_c, 0, 65, 70
1, 28442, Control_c, 0, 64, 42
1, 28442, Control_c, 0, 67, 32
1, 28457, Control_c, 0, 64, 39
1, 28457, Control_c, 0, 67, 25
1, 28468, Note_off_c, 0, 65, 56
1, 28472, Control_c, 0, 64, 38
1, 28472, Control_c, 0, 67, 20
1, 28487, Control_c, 0, 64, 38
1, 28487, Control_c, 0, 67, 18
1, 28502, Control_c, 0, 67, 17
1, 28507, Note_on_c, 0, 67, 69
1, 28516, Control_c, 0, 64, 37
1, 28516, Control_c, 0, 67, 14
1, 28531, Control_c, 0, 67, 0
1, 28539, Note_off_c, 0, 67, 59
1, 28564, Note_on_c, 0, 64, 69
1, 28605, Control_c, 0, 64, 38
1, 28620, Control_c, 0, 64, 40
1, 28624, Note_off_c, 0, 64, 63
1, 28634, Control_c, 0, 64, 41
1, 28646, Note_on_c, 0, 65, 53
1, 28649, Control_c, 0, 64, 42
1, 28664, Control_c, 0, 64, 43
1, 28679, Control_c, 0, 64, 45
1, 28680, Note_off_c, 0, 65, 51
1, 28690, Note_on_c, 0, 62, 63
1, 28694, Control_c, 0, 64, 48
1, 28708, Control_c, 0, 64, 50
1, 28723, Control_c, 0, 64, 51
1, 28726, Note_off_c, 0, 62, 63
1, 28738, Control_c, 0, 64, 52
1, 28753, Control_c, 0, 64, 55
1, 28767, Control_c, 0, 64, 60
1, 28776, Note_on_c, 0, 82, 65
1, 28779, Note_on_c, 0, 64, 60
1, 28782, Control_c, 0, 64, 63
1, 28797, Control_c, 0, 64, 64
1, 28803, Note_off_c, 0, 64, 59
1, 28808, Note_off_c, 0, 82, 66
1, 28812, Control_c, 0, 64, 65
1, 28821, Note_on_c, 0, 60, 65
1, 28824, Note_on_c, 0, 84, 73
1, 28827, Control_c, 0, 64, 68
1, 28827, Control_c, 0, 67, 9
1, 28842, Control_c, 0, 64, 72
1, 28842, Control_c, 0, 67, 10
1, 28853, Note_off_c, 0, 60, 65
1, 28856, Control_c, 0, 64, 75
1, 28856, Control_c, 0, 67, 11
1, 28871, Control_c, 0, 67, 13
1, 28874, Note_off_c, 0, 84, 61
1, 28886, Control_c, 0, 67, 16
1, 28892, Note_on_c, 0, 82, 60
1, 28898, Note_on_c, 0, 62, 65
1, 28901, Control_c, 0, 67, 20
1, 28910, Note_off_c, 0, 82, 61
1, 28916, Control_c, 0, 67, 23
1, 28931, Control_c, 0, 67, 25
1, 28933, Note_on_c, 0, 84, 57
1, 28933, Note_off_c, 0, 62, 63
1, 28946, Control_c, 0, 64, 74
1, 28946, Control_c, 0, 67, 27
1, 28949, Note_on_c, 0, 58, 66
1, 28960, Control_c, 0, 64, 73
1, 28960, Control_c, 0, 67, 29
1, 28964, Note_off_c, 0, 84, 54
1, 28975, Note_on_c, 0, 82, 69
1, 28975, Control_c, 0, 67, 31
1, 28990, Note_off_c, 0, 58, 63
1, 28990, Control_c, 0, 64, 73
1, 28990, Control_c, 0, 67, 34
1, 29012, Control_c, 0, 67, 36
1, 29020, Note_on_c, 0, 81, 75
1, 29024, Note_off_c, 0, 82, 64
1, 29037, Note_on_c, 0, 60, 39
1, 29041, Control_c, 0, 64, 72
1, 29056, Control_c, 0, 64, 71
1, 29066, Note_off_c, 0, 60, 34
1, 29071, Control_c, 0, 64, 70
1, 29079, Note_off_c, 0, 81, 63
1, 29086, Control_c, 0, 64, 68
1, 29098, Note_on_c, 0, 82, 74
1, 29101, Control_c, 0, 64, 64
1, 29116, Control_c, 0, 64, 57
1, 29131, Control_c, 0, 64, 42
1, 29131, Control_c, 0, 67, 35
1, 29146, Control_c, 0, 64, 0
1, 29146, Control_c, 0, 67, 34
1, 29159, Note_on_c, 0, 57, 56
1, 29161, Control_c, 0, 67, 34
1, 29163, Note_on_c, 0, 45, 55
1, 29173, Note_off_c, 0, 82, 61
1, 29175, Control_c, 0, 64, 23
1, 29175, Control_c, 0, 67, 33
1, 29179, Note_on_c, 0, 84, 73
1, 29190, Control_c, 0, 64, 40
1, 29190, Control_c, 0, 67, 32
1, 29205, Control_c, 0, 64, 51
1, 29205, Control_c, 0, 67, 31
1, 29213, Note_off_c, 0, 84, 61
1, 29220, Control_c, 0, 64, 60
1, 29220, Control_c, 0, 67, 31
1, 29235, Control_c, 0, 64, 63
1, 29235, Control_c, 0, 67, 30
1, 29250, Control_c, 0, 64, 67
1, 29250, Control_c, 0, 67, 29
1, 29265, Control_c, 0, 64, 69
1, 29265, Control_c, 0, 67, 28
1, 29280, Control_c, 0, 64, 70
1, 29280, Control_c, 0, 67, 27
1, 29295, Control_c, 0, 64, 70
1, 29295, Control_c, 0, 67, 26
1, 29310, Control_c, 0, 67, 23
1, 29313, Note_on_c, 0, 72, 63
1, 29318, Note_off_c, 0, 57, 36
1, 29324, Control_c, 0, 67, 19
1, 29339, Control_c, 0, 67, 15
1, 29344, Note_off_c, 0, 72, 66
1, 29351, Note_off_c, 0, 45, 58
1, 29354, Control_c, 0, 67, 11
1, 29369, Control_c, 0, 67, 0
1, 29383, Control_c, 0, 64, 70
1, 29395, Note_on_c, 0, 71, 56
1, 29398, Control_c, 0, 64, 69
1, 29428, Control_c, 0, 64, 69
1, 29437, Note_off_c, 0, 71, 62
1, 29441, Note_on_c, 0, 72, 64
1, 29443, Control_c, 0, 64, 68
1, 29457, Control_c, 0, 64, 67
1, 29472, Control_c, 0, 64, 67
1, 29487, Control_c, 0, 64, 66
1, 29499, Note_off_c, 0, 72, 63
1, 29502, Control_c, 0, 64, 65
1, 29512, Note_on_c, 0, 73, 64
1, 29516, Control_c, 0, 64, 65
1, 29531, Control_c, 0, 64, 64
1, 29546, Control_c, 0, 64, 64
1, 29550, Note_off_c, 0, 73, 64
1, 29561, Control_c, 0, 64, 63
1, 29566, Note_on_c, 0, 72, 61
1, 29576, Control_c, 0, 64, 63
1, 29605, Control_c, 0, 64, 62
1, 29620, Control_c, 0, 64, 62
1, 29623, Note_off_c, 0, 72, 58
1, 29634, Note_on_c, 0, 74, 70
1, 29636, Control_c, 0, 64, 61
1, 29651, Control_c, 0, 64, 60
1, 29665, Control_c, 0, 64, 59
1, 29680, Note_off_c, 0, 74, 65
1, 29680, Control_c, 0, 64, 58
1, 29695, Control_c, 0, 64, 57
1, 29708, Note_on_c, 0, 72, 64
1, 29709, Control_c, 0, 64, 57
1, 29724, Control_c, 0, 64, 56
1, 29739, Control_c, 0, 64, 56
1, 29747, Note_off_c, 0, 72, 57
1, 29762, Control_c, 0, 64, 55
1, 29777, Control_c, 0, 64, 53
1, 29784, Note_on_c, 0, 75, 68
1, 29791, Control_c, 0, 64, 51
1, 29806, Control_c, 0, 64, 49
1, 29821, Control_c, 0, 64, 47
1, 29824, Note_off_c, 0, 75, 55
1, 29836, Control_c, 0, 64, 46
1, 29851, Control_c, 0, 64, 43
1, 29858, Note_on_c, 0, 72, 63
1, 29865, Control_c, 0, 64, 41
1, 29880, Control_c, 0, 64, 39
1, 29895, Control_c, 0, 64, 37
1, 29897, Note_off_c, 0, 72, 59
1, 29917, Note_on_c, 0, 76, 72
1, 29963, Note_off_c, 0, 76, 59
1, 30004, Note_on_c, 0, 72, 58
1, 30049, Note_off_c, 0, 72, 59
1, 30063, Note_on_c, 0, 77, 66
1, 30113, Note_off_c, 0, 77, 63
1, 30145, Note_on_c, 0, 72, 52
1, 30189, Note_off_c, 0, 72, 64
1, 30207, Control_c, 0, 64, 38
1, 30210, Note_on_c, 0, 79, 47
1, 30243, Note_off_c, 0, 79, 55
1, 30287, Note_on_c, 0, 72, 61
1, 30296, Control_c, 0, 64, 38
1, 30311, Control_c, 0, 64, 40
1, 30326, Control_c, 0, 64, 43
1, 30340, Control_c, 0, 64, 45
1, 30350, Note_off_c, 0, 72, 52
1, 30355, Control_c, 0, 64, 48
1, 30366, Note_on_c, 0, 65, 50
1, 30370, Control_c, 0, 64, 51
1, 30373, Note_on_c, 0, 81, 56
1, 30385, Control_c, 0, 64, 56
1, 30400, Control_c, 0, 64, 60
1, 30414, Control_c, 0, 64, 63
1, 30418, Note_off_c, 0, 65, 58
1, 30429, Control_c, 0, 64, 65
1, 30439, Note_on_c, 0, 67, 52
1, 30444, Control_c, 0, 64, 65
1, 30470, Note_off_c, 0, 67, 63
1, 30499, Note_on_c, 0, 69, 51
1, 30511, Control_c, 0, 64, 65
1, 30526, Control_c, 0, 64, 64
1, 30555, Control_c, 0, 64, 64
1, 30559, Note_off_c, 0, 69, 60
1, 30569, Note_on_c, 0, 67, 57
1, 30570, Note_off_c, 0, 81, 58
1, 30585, Control_c, 0, 64, 63
1, 30600, Control_c, 0, 64, 62
1, 30614, Control_c, 0, 64, 62
1, 30629, Control_c, 0, 64, 60
1, 30636, Note_off_c, 0, 67, 57
1, 30644, Control_c, 0, 64, 59
1, 30645, Note_on_c, 0, 65, 49
1, 30659, Control_c, 0, 64, 58
1, 30674, Control_c, 0, 64, 57
1, 30688, Control_c, 0, 64, 56
1, 30689, Note_on_c, 0, 67, 56
1, 30700, Note_off_c, 0, 65, 56
1, 30703, Control_c, 0, 64, 55
1, 30718, Control_c, 0, 64, 54
1, 30732, Control_c, 0, 64, 54
1, 30746, Note_off_c, 0, 67, 61
1, 30747, Control_c, 0, 64, 55
1, 30755, Note_on_c, 0, 64, 71
1, 30762, Control_c, 0, 64, 59
1, 30777, Control_c, 0, 64, 62
1, 30792, Control_c, 0, 64, 63
1, 30807, Control_c, 0, 64, 63
1, 30812, Note_off_c, 0, 64, 64
1, 30821, Control_c, 0, 64, 64
1, 30837, Note_on_c, 0, 65, 71
1, 30867, Control_c, 0, 64, 63
1, 30880, Note_off_c, 0, 65, 59
1, 30882, Control_c, 0, 64, 63
1, 30897, Control_c, 0, 64, 62
1, 30903, Note_on_c, 0, 62, 64
1, 30911, Control_c, 0, 64, 60
1, 30926, Control_c, 0, 64, 57
1, 30941, Control_c, 0, 64, 54
1, 30956, Control_c, 0, 64, 49
1, 30968, Note_off_c, 0, 62, 61
1, 30970, Control_c, 0, 64, 44
1, 30985, Control_c, 0, 64, 40
1, 31000, Control_c, 0, 64, 38
1, 31015, Control_c, 0, 64, 33
1, 31029, Note_on_c, 0, 60, 53
1, 31030, Control_c, 0, 64, 23
1, 31044, Control_c, 0, 64, 0
1, 31071, Note_off_c, 0, 60, 54
1, 31074, Control_c, 0, 64, 15
1, 31083, Note_on_c, 0, 81, 65
1, 31089, Control_c, 0, 64, 25
1, 31091, Note_on_c, 0, 62, 43
1, 31104, Control_c, 0, 64, 36
1, 31113, Note_off_c, 0, 81, 65
1, 31119, Control_c, 0, 64, 46
1, 31134, Control_c, 0, 64, 54
1, 31140, Note_on_c, 0, 82, 71
1, 31149, Control_c, 0, 64, 60
1, 31154, Note_off_c, 0, 62, 61
1, 31163, Control_c, 0, 64, 62
1, 31176, Note_on_c, 0, 58, 63
1, 31178, Control_c, 0, 64, 63
1, 31188, Note_off_c, 0, 82, 61
1, 31192, Note_on_c, 0, 81, 67
1, 31193, Control_c, 0, 64, 65
1, 31208, Control_c, 0, 64, 68
1, 31223, Control_c, 0, 64, 72
1, 31227, Note_off_c, 0, 81, 59
1, 31235, Note_on_c, 0, 82, 68
1, 31237, Control_c, 0, 64, 74
1, 31252, Control_c, 0, 64, 75
1, 31254, Note_on_c, 0, 60, 61
1, 31268, Note_off_c, 0, 58, 61
1, 31304, Control_c, 0, 64, 74
1, 31307, Note_on_c, 0, 81, 59
1, 31312, Note_on_c, 0, 57, 51
1, 31318, Note_off_c, 0, 60, 51
1, 31318, Note_off_c, 0, 82, 61
1, 31319, Control_c, 0, 64, 74
1, 31334, Control_c, 0, 64, 73
1, 31348, Control_c, 0, 64, 71
1, 31351, Note_off_c, 0, 81, 66
1, 31353, Note_on_c, 0, 79, 67
1, 31363, Control_c, 0, 64, 69
1, 31363, Note_off_c, 0, 57, 62
1, 31378, Control_c, 0, 64, 67
1, 31385, Note_on_c, 0, 58, 53
1, 31393, Control_c, 0, 64, 64
1, 31407, Note_off_c, 0, 58, 61
1, 31408, Control_c, 0, 64, 61
1, 31410, Note_on_c, 0, 81, 70
1, 31411, Note_off_c, 0, 79, 62
1, 31423, Control_c, 0, 64, 57
1, 31437, Control_c, 0, 64, 50
1, 31452, Control_c, 0, 64, 42
1, 31467, Control_c, 0, 64, 38
1, 31481, Control_c, 0, 64, 44
1, 31496, Note_off_c, 0, 81, 62
1, 31496, Control_c, 0, 64, 51
1, 31511, Control_c, 0, 64, 55
1, 31518, Note_on_c, 0, 55, 60
1, 31518, Note_on_c, 0, 82, 75
1, 31524, Note_on_c, 0, 43, 59
1, 31526, Control_c, 0, 64, 59
1, 31541, Control_c, 0, 64, 62
1, 31542, Note_off_c, 0, 82, 69
1, 31555, Control_c, 0, 64, 65
1, 31570, Control_c, 0, 64, 70
1, 31585, Control_c, 0, 64, 73
1, 31600, Control_c, 0, 64, 75
1, 31615, Control_c, 0, 64, 75
1, 31646, Control_c, 0, 64, 75
1, 31659, Note_on_c, 0, 70, 59
1, 31692, Note_off_c, 0, 70, 66
1, 31705, Control_c, 0, 64, 74
1, 31718, Note_on_c, 0, 69, 60
1, 31718, Note_off_c, 0, 43, 38
1, 31734, Control_c, 0, 64, 74
1, 31735, Poly_aftertouch_c, 0, 46, 127
1, 31741, Note_off_c, 0, 55, 31
1, 31749, Control_c, 0, 64, 73
1, 31766, Poly_aftertouch_c, 0, 46, 0
1, 31777, Note_on_c, 0, 70, 71
1, 31778, Note_off_c, 0, 69, 57
1, 31779, Control_c, 0, 64, 73
1, 31793, Control_c, 0, 64, 72
1, 31808, Control_c, 0, 64, 71
1, 31823, Control_c, 0, 64, 70
1, 31828, Note_on_c, 0, 72, 70
1, 31828, Note_off_c, 0, 70, 62
1, 31838, Control_c, 0, 64, 69
1, 31853, Control_c, 0, 64, 68
1, 31867, Control_c, 0, 64, 67
1, 31877, Note_off_c, 0, 72, 62
1, 31882, Control_c, 0, 64, 66
1, 31897, Control_c, 0, 64, 65
1, 31905, Note_on_c, 0, 70, 73
1, 31911, Control_c, 0, 64, 64
1, 31926, Control_c, 0, 64, 64
1, 31956, Control_c, 0, 64, 63
1, 31963, Note_off_c, 0, 70, 61
1, 31971, Control_c, 0, 64, 62
1, 31981, Note_on_c, 0, 73, 72
1, 31985, Control_c, 0, 64, 61
1, 32000, Control_c, 0, 64, 60
1, 32022, Control_c, 0, 64, 59
1, 32033, Note_off_c, 0, 73, 63
1, 32037, Control_c, 0, 64, 57
1, 32052, Control_c, 0, 64, 55
1, 32056, Note_on_c, 0, 70, 67
1, 32067, Control_c, 0, 64, 52
1, 32082, Control_c, 0, 64, 51
1, 32097, Control_c, 0, 64, 50
1, 32111, Control_c, 0, 64, 48
1, 32115, Note_off_c, 0, 70, 59
1, 32126, Control_c, 0, 64, 47
1, 32130, Note_on_c, 0, 74, 51
1, 32141, Control_c, 0, 64, 45
1, 32156, Control_c, 0, 64, 43
1, 32171, Control_c, 0, 64, 41
1, 32171, Note_off_c, 0, 74, 66
1, 32185, Control_c, 0, 64, 37
1, 32200, Control_c, 0, 64, 33
1, 32204, Note_on_c, 0, 70, 61
1, 32215, Control_c, 0, 64, 29
1, 32230, Control_c, 0, 64, 25
1, 32245, Control_c, 0, 64, 13
1, 32255, Note_off_c, 0, 70, 51
1, 32260, Control_c, 0, 64, 0
1, 32274, Control_c, 0, 67, 8
1, 32288, Note_on_c, 0, 76, 58
1, 32289, Control_c, 0, 67, 10
1, 32303, Control_c, 0, 67, 11
1, 32318, Control_c, 0, 67, 12
1, 32324, Note_off_c, 0, 76, 64
1, 32333, Control_c, 0, 67, 14
1, 32348, Control_c, 0, 67, 15
1, 32362, Note_on_c, 0, 70, 55
1, 32363, Control_c, 0, 67, 18
1, 32377, Control_c, 0, 67, 22
1, 32392, Note_off_c, 0, 70, 57
1, 32392, Control_c, 0, 67, 28
1, 32407, Control_c, 0, 67, 33
1, 32415, Note_on_c, 0, 77, 57
1, 32422, Control_c, 0, 67, 39
1, 32438, Control_c, 0, 67, 43
1, 32453, Control_c, 0, 67, 47
1, 32454, Note_off_c, 0, 77, 63
1, 32468, Control_c, 0, 67, 50
1, 32482, Control_c, 0, 67, 52
1, 32488, Note_on_c, 0, 70, 58
1, 32497, Control_c, 0, 67, 55
1, 32512, Control_c, 0, 67, 58
1, 32526, Control_c, 0, 67, 60
1, 32538, Note_off_c, 0, 70, 56
1, 32541, Control_c, 0, 67, 63
1, 32554, Note_on_c, 0, 78, 58
1, 32601, Note_off_c, 0, 78, 60
1, 32652, Note_on_c, 0, 70, 40
1, 32675, Control_c, 0, 67, 62
1, 32689, Note_off_c, 0, 70, 62
1, 32690, Control_c, 0, 64, 21
1, 32690, Control_c, 0, 67, 62
1, 32705, Control_c, 0, 64, 40
1, 32705, Control_c, 0, 67, 61
1, 32717, Note_on_c, 0, 79, 56
1, 32720, Control_c, 0, 64, 54
1, 32720, Control_c, 0, 67, 60
1, 32725, Note_on_c, 0, 60, 38
1, 32735, Control_c, 0, 64, 59
1, 32735, Control_c, 0, 67, 60
1, 32750, Control_c, 0, 64, 61
1, 32750, Control_c, 0, 67, 59
1, 32772, Control_c, 0, 64, 62
1, 32772, Control_c, 0, 67, 59
1, 32785, Note_off_c, 0, 60, 59
1, 32787, Control_c, 0, 64, 63
1, 32787, Control_c, 0, 67, 58
1, 32802, Control_c, 0, 64, 65
1, 32802, Control_c, 0, 67, 58
1, 32816, Control_c, 0, 64, 66
1, 32833, Note_on_c, 0, 64, 41
1, 32860, Note_off_c, 0, 64, 59
1, 32891, Note_on_c, 0, 67, 55
1, 32905, Control_c, 0, 64, 65
1, 32906, Note_off_c, 0, 79, 61
1, 32920, Control_c, 0, 64, 65
1, 32934, Note_off_c, 0, 67, 61
1, 32949, Note_on_c, 0, 64, 59
1, 32964, Control_c, 0, 64, 64
1, 32979, Control_c, 0, 64, 64
1, 32991, Note_off_c, 0, 64, 62
1, 32994, Control_c, 0, 64, 63
1, 33009, Control_c, 0, 64, 62
1, 33009, Control_c, 0, 67, 58
1, 33024, Control_c, 0, 64, 61
1, 33025, Note_on_c, 0, 60, 59
1, 33039, Control_c, 0, 64, 61
1, 33039, Control_c, 0, 67, 59
1, 33054, Control_c, 0, 64, 60
1, 33068, Control_c, 0, 64, 59
1, 33083, Note_off_c, 0, 60, 59
1, 33083, Control_c, 0, 64, 57
1, 33083, Control_c, 0, 67, 59
1, 33098, Control_c, 0, 64, 54
1, 33098, Control_c, 0, 67, 60
1, 33105, Note_on_c, 0, 64, 49
1, 33113, Control_c, 0, 64, 50
1, 33113, Control_c, 0, 67, 60
1, 33128, Control_c, 0, 64, 46
1, 33128, Control_c, 0, 67, 61
1, 33131, Note_off_c, 0, 64, 61
1, 33142, Control_c, 0, 64, 45
1, 33153, Note_on_c, 0, 82, 70
1, 33157, Control_c, 0, 64, 45
1, 33172, Control_c, 0, 64, 45
1, 33180, Note_on_c, 0, 67, 47
1, 33182, Note_off_c, 0, 82, 66
1, 33202, Control_c, 0, 64, 47
1, 33216, Control_c, 0, 64, 49
1, 33221, Note_off_c, 0, 67, 64
1, 33232, Note_on_c, 0, 64, 50
1, 33232, Control_c, 0, 64, 50
1, 33247, Control_c, 0, 64, 52
1, 33262, Control_c, 0, 64, 52
1, 33277, Control_c, 0, 64, 53
1, 33289, Note_off_c, 0, 64, 56
1, 33292, Control_c, 0, 64, 54
1, 33306, Control_c, 0, 64, 55
1, 33312, Note_on_c, 0, 81, 72
1, 33321, Control_c, 0, 64, 56
1, 33322, Note_on_c, 0, 60, 44
1, 33336, Control_c, 0, 64, 57
1, 33376, Note_off_c, 0, 60, 63
1, 33395, Control_c, 0, 64, 57
1, 33399, Note_on_c, 0, 67, 44
1, 33439, Note_off_c, 0, 67, 63
1, 33439, Control_c, 0, 64, 56
1, 33439, Control_c, 0, 67, 61
1, 33454, Control_c, 0, 64, 53
1, 33454, Control_c, 0, 67, 62
1, 33462, Note_on_c, 0, 70, 54
1, 33469, Control_c, 0, 64, 47
1, 33471, Note_on_c, 0, 79, 72
1, 33484, Control_c, 0, 64, 28
1, 33492, Note_off_c, 0, 81, 62
1, 33506, Control_c, 0, 64, 0
1, 33506, Control_c, 0, 67, 62
1, 33522, Note_off_c, 0, 70, 57
1, 33527, Note_off_c, 0, 79, 62
1, 33551, Note_on_c, 0, 67, 54
1, 33602, Note_off_c, 0, 67, 61
1, 33626, Note_on_c, 0, 77, 73
1, 33639, Control_c, 0, 67, 62
1, 33654, Control_c, 0, 64, 25
1, 33661, Note_on_c, 0, 60, 26
1, 33669, Control_c, 0, 64, 33
1, 33669, Control_c, 0, 67, 61
1, 33683, Control_c, 0, 64, 35
1, 33683, Control_c, 0, 67, 61
1, 33698, Control_c, 0, 64, 35
1, 33700, Note_off_c, 0, 60, 52
1, 33710, Note_on_c, 0, 67, 44
1, 33713, Control_c, 0, 64, 33
1, 33728, Control_c, 0, 64, 30
1, 33743, Control_c, 0, 64, 28
1, 33751, Note_off_c, 0, 67, 63
1, 33757, Control_c, 0, 64, 24
1, 33770, Note_off_c, 0, 77, 60
1, 33772, Control_c, 0, 64, 19
1, 33782, Note_on_c, 0, 70, 48
1, 33787, Control_c, 0, 64, 14
1, 33789, Note_on_c, 0, 76, 67
1, 33802, Control_c, 0, 64, 9
1, 33817, Control_c, 0, 64, 0
1, 33817, Control_c, 0, 67, 61
1, 33826, Note_off_c, 0, 76, 62
1, 33832, Control_c, 0, 67, 62
1, 33833, Note_off_c, 0, 70, 62
1, 33869, Note_on_c, 0, 67, 42
1, 33876, Control_c, 0, 67, 62
1, 33909, Note_off_c, 0, 67, 62
1, 33941, Note_on_c, 0, 60, 36
1, 33950, Note_on_c, 0, 79, 55
1, 33980, Control_c, 0, 67, 62
1, 33995, Control_c, 0, 67, 61
1, 34010, Control_c, 0, 67, 60
1, 34014, Note_off_c, 0, 60, 52
1, 34025, Control_c, 0, 67, 60
1, 34037, Note_on_c, 0, 65, 48
1, 34040, Control_c, 0, 64, 19
1, 34040, Control_c, 0, 67, 59
1, 34055, Control_c, 0, 64, 37
1, 34055, Control_c, 0, 67, 59
1, 34070, Control_c, 0, 64, 47
1, 34070, Control_c, 0, 67, 58
1, 34077, Note_off_c, 0, 79, 50
1, 34079, Note_off_c, 0, 65, 58
1, 34085, Control_c, 0, 64, 52
1, 34100, Control_c, 0, 64, 55
1, 34106, Note_on_c, 0, 69, 46
1, 34115, Control_c, 0, 64, 57
1, 34115, Note_on_c, 0, 77, 54
1, 34129, Control_c, 0, 64, 58
1, 34144, Control_c, 0, 64, 60
1, 34144, Control_c, 0, 67, 58
1, 34145, Note_off_c, 0, 69, 50
1, 34154, Note_off_c, 0, 77, 63
1, 34159, Control_c, 0, 64, 62
1, 34173, Control_c, 0, 64, 64
1, 34184, Note_on_c, 0, 65, 51
1, 34188, Control_c, 0, 64, 64
1, 34188, Control_c, 0, 67, 57
1, 34203, Control_c, 0, 64, 65
1, 34228, Note_off_c, 0, 65, 60
1, 34255, Control_c, 0, 67, 57
1, 34269, Note_on_c, 0, 60, 54
1, 34270, Control_c, 0, 64, 64
1, 34285, Control_c, 0, 64, 64
1, 34300, Control_c, 0, 64, 63
1, 34312, Note_off_c, 0, 60, 63
1, 34314, Control_c, 0, 64, 62
1, 34329, Control_c, 0, 64, 61
1, 34344, Control_c, 0, 64, 60
1, 34346, Note_on_c, 0, 65, 52
1, 34359, Control_c, 0, 64, 59
1, 34359, Control_c, 0, 67, 57
1, 34374, Control_c, 0, 64, 57
1, 34384, Note_off_c, 0, 65, 63
1, 34388, Control_c, 0, 64, 56
1, 34388, Control_c, 0, 67, 58
1, 34403, Control_c, 0, 64, 56
1, 34406, Note_on_c, 0, 69, 50
1, 34415, Note_on_c, 0, 84, 72
1, 34418, Control_c, 0, 64, 55
1, 34448, Control_c, 0, 67, 58
1, 34459, Note_off_c, 0, 84, 61
1, 34461, Note_off_c, 0, 69, 59
1, 34477, Control_c, 0, 64, 55
1, 34482, Note_on_c, 0, 65, 54
1, 34492, Control_c, 0, 64, 54
1, 34519, Note_off_c, 0, 65, 63
1, 34536, Control_c, 0, 64, 55
1, 34556, Note_on_c, 0, 60, 57
1, 34566, Control_c, 0, 64, 55
1, 34574, Note_on_c, 0, 82, 77
1, 34580, Control_c, 0, 64, 56
1, 34625, Control_c, 0, 64, 56
1, 34640, Control_c, 0, 67, 59
1, 34645, Note_on_c, 0, 63, 50
1, 34649, Note_off_c, 0, 60, 61
1, 34654, Control_c, 0, 64, 57
1, 34684, Control_c, 0, 67, 59
1, 34699, Note_off_c, 0, 63, 61
1, 34699, Control_c, 0, 64, 56
1, 34714, Control_c, 0, 64, 56
1, 34714, Control_c, 0, 67, 60
1, 34721, Note_on_c, 0, 66, 51
1, 34723, Note_on_c, 0, 81, 76
1, 34729, Control_c, 0, 64, 55
1, 34744, Control_c, 0, 64, 54
1, 34747, Note_off_c, 0, 82, 63
1, 34759, Control_c, 0, 64, 54
1, 34759, Control_c, 0, 67, 60
1, 34764, Note_off_c, 0, 81, 64
1, 34774, Control_c, 0, 64, 53
1, 34786, Note_off_c, 0, 66, 61
1, 34788, Control_c, 0, 64, 52
1, 34788, Control_c, 0, 67, 61
1, 34803, Control_c, 0, 64, 52
1, 34818, Control_c, 0, 64, 51
1, 34818, Control_c, 0, 67, 61
1, 34830, Note_on_c, 0, 63, 41
1, 34833, Control_c, 0, 64, 50
1, 34833, Control_c, 0, 67, 62
1, 34848, Control_c, 0, 64, 50
1, 34863, Note_off_c, 0, 63, 59
1, 34863, Control_c, 0, 64, 49
1, 34878, Control_c, 0, 64, 48
1, 34883, Note_on_c, 0, 60, 49
1, 34889, Note_on_c, 0, 79, 65
1, 34893, Control_c, 0, 64, 47
1, 34908, Control_c, 0, 64, 47
1, 34937, Control_c, 0, 64, 48
1, 34943, Note_off_c, 0, 60, 59
1, 34952, Control_c, 0, 64, 49
1, 34961, Note_on_c, 0, 63, 50
1, 34967, Control_c, 0, 64, 50
1, 34982, Control_c, 0, 64, 51
1, 34982, Control_c, 0, 67, 61
1, 35003, Control_c, 0, 64, 53
1, 35009, Note_off_c, 0, 63, 63
1, 35018, Control_c, 0, 64, 54
1, 35018, Control_c, 0, 67, 61
1, 35033, Control_c, 0, 64, 55
1, 35035, Note_off_c, 0, 79, 59
1, 35048, Control_c, 0, 64, 54
1, 35051, Note_on_c, 0, 78, 69
1, 35053, Note_on_c, 0, 69, 47
1, 35078, Control_c, 0, 64, 54
1, 35093, Control_c, 0, 64, 53
1, 35107, Control_c, 0, 64, 53
1, 35108, Note_off_c, 0, 78, 59
1, 35110, Note_off_c, 0, 69, 56
1, 35111, Note_on_c, 0, 63, 55
1, 35122, Control_c, 0, 64, 52
1, 35137, Control_c, 0, 64, 51
1, 35152, Control_c, 0, 64, 49
1, 35161, Note_off_c, 0, 63, 59
1, 35167, Control_c, 0, 64, 48
1, 35182, Control_c, 0, 64, 46
1, 35197, Control_c, 0, 64, 45
1, 35212, Note_on_c, 0, 58, 39
1, 35226, Control_c, 0, 64, 46
1, 35228, Note_on_c, 0, 79, 65
1, 35241, Control_c, 0, 64, 49
1, 35256, Control_c, 0, 64, 51
1, 35271, Control_c, 0, 64, 53
1, 35271, Control_c, 0, 67, 60
1, 35285, Control_c, 0, 64, 55
1, 35285, Control_c, 0, 67, 60
1, 35295, Note_off_c, 0, 58, 50
1, 35298, Note_on_c, 0, 62, 44
1, 35300, Control_c, 0, 64, 57
1, 35300, Control_c, 0, 67, 59
1, 35315, Control_c, 0, 64, 59
1, 35315, Control_c, 0, 67, 59
1, 35329, Control_c, 0, 64, 62
1, 35329, Control_c, 0, 67, 58
1, 35337, Note_off_c, 0, 62, 58
1, 35344, Control_c, 0, 64, 63
1, 35344, Control_c, 0, 67, 57
1, 35359, Control_c, 0, 67, 57
1, 35366, Note_off_c, 0, 79, 52
1, 35374, Control_c, 0, 67, 56
1, 35379, Note_on_c, 0, 67, 44
1, 35389, Control_c, 0, 64, 64
1, 35418, Control_c, 0, 64, 64
1, 35430, Note_off_c, 0, 67, 56
1, 35433, Control_c, 0, 64, 64
1, 35442, Note_on_c, 0, 62, 54
1, 35448, Control_c, 0, 67, 57
1, 35462, Note_on_c, 0, 81, 70
1, 35463, Control_c, 0, 67, 57
1, 35477, Control_c, 0, 64, 63
1, 35477, Control_c, 0, 67, 58
1, 35492, Control_c, 0, 64, 62
1, 35492, Control_c, 0, 67, 58
1, 35494, Note_off_c, 0, 62, 55
1, 35507, Control_c, 0, 64, 60
1, 35507, Control_c, 0, 67, 59
1, 35515, Note_off_c, 0, 81, 60
1, 35522, Control_c, 0, 64, 58
1, 35528, Note_on_c, 0, 58, 56
1, 35537, Control_c, 0, 64, 55
1, 35540, Note_on_c, 0, 84, 72
1, 35552, Control_c, 0, 64, 54
1, 35566, Control_c, 0, 64, 54
1, 35581, Control_c, 0, 64, 56
1, 35596, Control_c, 0, 64, 57
1, 35605, Note_on_c, 0, 62, 55
1, 35611, Note_off_c, 0, 58, 53
1, 35611, Control_c, 0, 64, 59
1, 35613, Note_on_c, 0, 82, 77
1, 35623, Note_off_c, 0, 84, 60
1, 35626, Control_c, 0, 64, 60
1, 35641, Control_c, 0, 64, 61
1, 35646, Note_off_c, 0, 62, 62
1, 35656, Control_c, 0, 64, 62
1, 35671, Control_c, 0, 67, 58
1, 35684, Note_on_c, 0, 81, 68
1, 35686, Control_c, 0, 64, 61
1, 35689, Note_on_c, 0, 67, 51
1, 35697, Note_off_c, 0, 82, 64
1, 35701, Control_c, 0, 64, 61
1, 35701, Control_c, 0, 67, 58
1, 35716, Control_c, 0, 64, 60
1, 35721, Note_off_c, 0, 81, 68
1, 35739, Note_off_c, 0, 67, 56
1, 35745, Note_on_c, 0, 62, 49
1, 35745, Control_c, 0, 64, 60
1, 35756, Note_on_c, 0, 79, 72
1, 35767, Control_c, 0, 64, 59
1, 35782, Control_c, 0, 64, 57
1, 35797, Control_c, 0, 64, 56
1, 35812, Control_c, 0, 64, 53
1, 35816, Note_off_c, 0, 79, 63
1, 35826, Control_c, 0, 64, 51
1, 35829, Note_off_c, 0, 62, 59
1, 35835, Note_on_c, 0, 77, 66
1, 35841, Control_c, 0, 64, 48
1, 35856, Note_on_c, 0, 60, 45
1, 35856, Control_c, 0, 64, 46
1, 35871, Control_c, 0, 64, 45
1, 35901, Note_off_c, 0, 60, 59
1, 35901, Control_c, 0, 64, 45
1, 35915, Control_c, 0, 67, 57
1, 35925, Note_on_c, 0, 65, 47
1, 35960, Control_c, 0, 67, 57
1, 35967, Note_off_c, 0, 65, 60
1, 35990, Note_on_c, 0, 69, 57
1, 36015, Note_off_c, 0, 77, 0
1, 36015, Note_on_c, 0, 77, 5
1, 36020, Control_c, 0, 64, 45
1, 36020, Control_c, 0, 67, 56
1, 36034, Control_c, 0, 67, 56
1, 36049, Note_off_c, 0, 69, 54
1, 36068, Note_on_c, 0, 65, 54
1, 36078, Control_c, 0, 67, 55
1, 36093, Control_c, 0, 64, 45
1, 36093, Control_c, 0, 67, 55
1, 36112, Note_off_c, 0, 65, 62
1, 36123, Control_c, 0, 64, 46
1, 36129, Note_on_c, 0, 60, 59
1, 36138, Control_c, 0, 64, 47
1, 36138, Control_c, 0, 67, 54
1, 36143, Note_off_c, 0, 77, 58
1, 36152, Control_c, 0, 64, 49
1, 36152, Control_c, 0, 67, 54
1, 36162, Note_on_c, 0, 76, 61
1, 36167, Control_c, 0, 64, 50
1, 36167, Control_c, 0, 67, 53
1, 36182, Control_c, 0, 64, 51
1, 36193, Note_off_c, 0, 60, 59
1, 36197, Control_c, 0, 64, 53
1, 36197, Control_c, 0, 67, 52
1, 36212, Control_c, 0, 64, 55
1, 36212, Control_c, 0, 67, 50
1, 36226, Control_c, 0, 64, 57
1, 36226, Control_c, 0, 67, 47
1, 36229, Note_on_c, 0, 67, 48
1, 36241, Control_c, 0, 64, 59
1, 36241, Control_c, 0, 67, 44
1, 36256, Control_c, 0, 64, 59
1, 36256, Control_c, 0, 67, 41
1, 36270, Control_c, 0, 64, 60
1, 36270, Control_c, 0, 67, 39
1, 36283, Note_off_c, 0, 67, 60
1, 36285, Control_c, 0, 64, 61
1, 36285, Control_c, 0, 67, 36
1, 36290, Note_off_c, 0, 76, 54
1, 36297, Note_on_c, 0, 70, 54
1, 36300, Control_c, 0, 64, 62
1, 36300, Control_c, 0, 67, 31
1, 36315, Control_c, 0, 64, 63
1, 36315, Control_c, 0, 67, 25
1, 36330, Control_c, 0, 64, 64
1, 36330, Control_c, 0, 67, 18
1, 36344, Note_off_c, 0, 70, 64
1, 36345, Control_c, 0, 67, 11
1, 36359, Control_c, 0, 64, 63
1, 36359, Control_c, 0, 67, 0
1, 36361, Note_on_c, 0, 67, 59
1, 36374, Control_c, 0, 64, 59
1, 36388, Note_off_c, 0, 67, 66
1, 36389, Control_c, 0, 64, 53
1, 36404, Control_c, 0, 64, 48
1, 36419, Control_c, 0, 64, 49
1, 36435, Control_c, 0, 64, 54
1, 36449, Control_c, 0, 64, 58
1, 36464, Control_c, 0, 64, 61
1, 36467, Note_on_c, 0, 65, 78
1, 36468, Note_on_c, 0, 53, 73
1, 36479, Control_c, 0, 64, 64
1, 36491, Note_off_c, 0, 65, 66
1, 36494, Control_c, 0, 64, 66
1, 36496, Note_off_c, 0, 53, 69
1, 36516, Control_c, 0, 64, 69
1, 36531, Control_c, 0, 64, 71
1, 36553, Note_on_c, 0, 77, 55
1, 36605, Control_c, 0, 64, 72
1, 36620, Note_off_c, 0, 77, 63
1, 36629, Note_on_c, 0, 76, 62
1, 36664, Control_c, 0, 64, 70
1, 36679, Control_c, 0, 64, 65
1, 36690, Note_off_c, 0, 76, 59
1, 36694, Control_c, 0, 64, 57
1, 36702, Note_on_c, 0, 77, 60
1, 36708, Control_c, 0, 64, 39
1, 36723, Control_c, 0, 64, 0
1, 36744, Note_off_c, 0, 77, 60
1, 36768, Control_c, 0, 64, 26
1, 36783, Control_c, 0, 64, 49
1, 36796, Note_on_c, 0, 60, 78
1, 36798, Control_c, 0, 64, 60
1, 36801, Note_on_c, 0, 48, 70
1, 36812, Control_c, 0, 64, 65
1, 36820, Note_off_c, 0, 60, 70
1, 36827, Control_c, 0, 64, 69
1, 36835, Note_off_c, 0, 48, 65
1, 36842, Control_c, 0, 64, 74
1, 36872, Control_c, 0, 64, 74
1, 36892, Note_on_c, 0, 72, 67
1, 36953, Note_off_c, 0, 72, 60
1, 36961, Control_c, 0, 64, 74
1, 36974, Note_on_c, 0, 71, 55
1, 36975, Control_c, 0, 64, 73
1, 36990, Control_c, 0, 64, 72
1, 37005, Control_c, 0, 64, 70
1, 37018, Note_off_c, 0, 71, 62
1, 37020, Control_c, 0, 64, 65
1, 37035, Control_c, 0, 64, 56
1, 37040, Note_on_c, 0, 72, 56
1, 37049, Control_c, 0, 64, 20
1, 37049, Control_c, 0, 67, 8
1, 37064, Control_c, 0, 64, 0
1, 37064, Control_c, 0, 67, 9
1, 37075, Note_off_c, 0, 72, 59
1, 37079, Control_c, 0, 67, 10
1, 37093, Control_c, 0, 67, 11
1, 37108, Control_c, 0, 67, 12
1, 37123, Control_c, 0, 67, 14
1, 37132, Note_on_c, 0, 57, 70
1, 37138, Control_c, 0, 64, 35
1, 37138, Control_c, 0, 67, 16
1, 37140, Note_on_c, 0, 45, 63
1, 37153, Control_c, 0, 64, 54
1, 37153, Control_c, 0, 67, 17
1, 37161, Note_off_c, 0, 57, 67
1, 37167, Control_c, 0, 64, 63
1, 37167, Control_c, 0, 67, 19
1, 37174, Note_off_c, 0, 45, 64
1, 37182, Control_c, 0, 64, 67
1, 37182, Control_c, 0, 67, 19
1, 37197, Control_c, 0, 64, 71
1, 37197, Control_c, 0, 67, 20
1, 37212, Control_c, 0, 64, 74
1, 37212, Control_c, 0, 67, 22
1, 37224, Note_on_c, 0, 69, 57
1, 37228, Control_c, 0, 64, 76
1, 37228, Control_c, 0, 67, 25
1, 37251, Control_c, 0, 64, 76
1, 37251, Control_c, 0, 67, 28
1, 37266, Control_c, 0, 67, 31
1, 37280, Control_c, 0, 67, 34
1, 37283, Note_off_c, 0, 69, 61
1, 37295, Control_c, 0, 67, 36
1, 37301, Note_on_c, 0, 68, 54
1, 37310, Control_c, 0, 67, 39
1, 37324, Control_c, 0, 64, 76
1, 37324, Control_c, 0, 67, 41
1, 37339, Control_c, 0, 64, 74
1, 37339, Control_c, 0, 67, 43
1, 37354, Control_c, 0, 64, 72
1, 37354, Control_c, 0, 67, 44
1, 37368, Note_off_c, 0, 68, 58
1, 37369, Control_c, 0, 64, 69
1, 37369, Control_c, 0, 67, 44
1, 37384, Control_c, 0, 64, 64
1, 37392, Note_on_c, 0, 69, 50
1, 37399, Control_c, 0, 64, 57
1, 37399, Control_c, 0, 67, 45
1, 37413, Control_c, 0, 64, 39
1, 37427, Note_off_c, 0, 69, 62
1, 37428, Control_c, 0, 64, 0
1, 37475, Note_on_c, 0, 53, 51
1, 37476, Note_on_c, 0, 41, 58
1, 37487, Control_c, 0, 64, 25
1, 37500, Note_off_c, 0, 53, 60
1, 37502, Control_c, 0, 64, 43
1, 37509, Note_off_c, 0, 41, 63
1, 37517, Control_c, 0, 64, 55
1, 37531, Control_c, 0, 64, 63
1, 37546, Control_c, 0, 64, 66
1, 37561, Control_c, 0, 64, 67
1, 37561, Control_c, 0, 67, 46
1, 37576, Control_c, 0, 64, 69
1, 37576, Control_c, 0, 67, 47
1, 37581, Note_on_c, 0, 65, 53
1, 37591, Control_c, 0, 64, 70
1, 37591, Control_c, 0, 67, 49
1, 37605, Control_c, 0, 64, 71
1, 37605, Control_c, 0, 67, 50
1, 37618, Note_off_c, 0, 65, 62
1, 37620, Control_c, 0, 64, 71
1, 37620, Control_c, 0, 67, 50
1, 37635, Control_c, 0, 64, 71
1, 37640, Note_on_c, 0, 64, 48
1, 37665, Control_c, 0, 64, 70
1, 37680, Control_c, 0, 67, 51
1, 37685, Note_off_c, 0, 64, 60
1, 37710, Control_c, 0, 64, 70
1, 37717, Note_on_c, 0, 65, 50
1, 37724, Control_c, 0, 64, 69
1, 37754, Control_c, 0, 64, 69
1, 37760, Note_off_c, 0, 65, 61
1, 37798, Control_c, 0, 64, 68
1, 37813, Control_c, 0, 64, 66
1, 37813, Control_c, 0, 67, 51
1, 37828, Control_c, 0, 64, 64
1, 37828, Control_c, 0, 67, 52
1, 37843, Control_c, 0, 64, 60
1, 37843, Control_c, 0, 67, 54
1, 37857, Control_c, 0, 64, 52
1, 37872, Control_c, 0, 64, 27
1, 37887, Control_c, 0, 64, 0
1, 37905, Note_on_c, 0, 67, 46
1, 37945, Note_on_c, 0, 60, 35
1, 37954, Note_off_c, 0, 67, 60
1, 37963, Note_on_c, 0, 72, 52
1, 37976, Control_c, 0, 64, 45
1, 37982, Note_on_c, 0, 76, 61
1, 37991, Control_c, 0, 64, 61
1, 38013, Control_c, 0, 64, 66
1, 38015, Note_off_c, 0, 60, 49
1, 38029, Control_c, 0, 64, 70
1, 38034, Note_off_c, 0, 72, 53
1, 38044, Control_c, 0, 64, 73
1, 38044, Control_c, 0, 67, 54
1, 38058, Note_on_c, 0, 67, 43
1, 38059, Control_c, 0, 64, 74
1, 38072, Note_off_c, 0, 76, 60
1, 38073, Control_c, 0, 64, 75
1, 38073, Control_c, 0, 67, 53
1, 38088, Control_c, 0, 67, 53
1, 38097, Note_off_c, 0, 67, 63
1, 38121, Note_on_c, 0, 70, 49
1, 38147, Control_c, 0, 64, 74
1, 38175, Note_off_c, 0, 70, 55
1, 38192, Control_c, 0, 64, 74
1, 38192, Control_c, 0, 67, 52
1, 38222, Note_on_c, 0, 67, 44
1, 38222, Control_c, 0, 64, 73
1, 38222, Control_c, 0, 67, 52
1, 38236, Control_c, 0, 64, 73
1, 38251, Control_c, 0, 64, 72
1, 38258, Note_off_c, 0, 67, 63
1, 38266, Control_c, 0, 64, 72
1, 38279, Note_on_c, 0, 60, 50
1, 38281, Control_c, 0, 64, 71
1, 38281, Control_c, 0, 67, 51
1, 38295, Control_c, 0, 64, 70
1, 38310, Control_c, 0, 64, 70
1, 38325, Control_c, 0, 64, 69
1, 38340, Control_c, 0, 64, 68
1, 38354, Control_c, 0, 64, 68
1, 38357, Note_on_c, 0, 67, 55
1, 38362, Note_off_c, 0, 60, 59
1, 38369, Control_c, 0, 64, 67
1, 38369, Control_c, 0, 67, 51
1, 38384, Control_c, 0, 64, 66
1, 38399, Control_c, 0, 64, 64
1, 38402, Note_off_c, 0, 67, 59
1, 38414, Control_c, 0, 64, 63
1, 38428, Control_c, 0, 64, 62
1, 38440, Note_on_c, 0, 82, 68
1, 38443, Control_c, 0, 64, 60
1, 38444, Note_on_c, 0, 70, 47
1, 38458, Control_c, 0, 64, 58
1, 38470, Note_off_c, 0, 82, 65
1, 38473, Control_c, 0, 64, 56
1, 38488, Control_c, 0, 64, 55
1, 38503, Control_c, 0, 64, 55
1, 38513, Note_off_c, 0, 70, 61
1, 38535, Note_on_c, 0, 67, 52
1, 38562, Control_c, 0, 64, 55
1, 38576, Note_off_c, 0, 67, 63
1, 38592, Control_c, 0, 64, 56
1, 38592, Control_c, 0, 67, 51
1, 38606, Note_on_c, 0, 81, 72
1, 38607, Control_c, 0, 64, 55
1, 38607, Control_c, 0, 67, 52
1, 38610, Note_on_c, 0, 60, 46
1, 38636, Control_c, 0, 64, 55
1, 38651, Control_c, 0, 64, 54
1, 38666, Control_c, 0, 64, 48
1, 38673, Note_off_c, 0, 60, 55
1, 38680, Control_c, 0, 64, 23
1, 38680, Control_c, 0, 67, 52
1, 38682, Note_on_c, 0, 67, 48
1, 38695, Control_c, 0, 64, 0
1, 38732, Note_off_c, 0, 67, 59
1, 38757, Note_on_c, 0, 79, 75
1, 38764, Note_on_c, 0, 70, 55
1, 38783, Note_off_c, 0, 81, 64
1, 38792, Control_c, 0, 64, 37
1, 38807, Control_c, 0, 64, 47
1, 38809, Note_off_c, 0, 79, 63
1, 38813, Note_off_c, 0, 70, 58
1, 38822, Control_c, 0, 64, 50
1, 38837, Control_c, 0, 64, 49
1, 38851, Note_on_c, 0, 67, 49
1, 38851, Control_c, 0, 64, 46
1, 38866, Control_c, 0, 64, 42
1, 38881, Control_c, 0, 64, 39
1, 38890, Note_off_c, 0, 67, 64
1, 38896, Control_c, 0, 64, 38
1, 38915, Note_on_c, 0, 60, 52
1, 38923, Note_on_c, 0, 77, 65
1, 38926, Control_c, 0, 64, 40
1, 38941, Control_c, 0, 64, 43
1, 38956, Control_c, 0, 64, 46
1, 38970, Control_c, 0, 64, 48
1, 38980, Note_off_c, 0, 60, 53
1, 38985, Control_c, 0, 64, 49
1, 39000, Control_c, 0, 64, 50
1, 39030, Control_c, 0, 64, 51
1, 39044, Control_c, 0, 64, 51
1, 39056, Note_on_c, 0, 70, 50
1, 39059, Control_c, 0, 64, 52
1, 39066, Note_off_c, 0, 77, 56
1, 39074, Control_c, 0, 64, 53
1, 39078, Note_on_c, 0, 76, 68
1, 39089, Control_c, 0, 64, 53
1, 39103, Control_c, 0, 64, 52
1, 39115, Note_off_c, 0, 76, 63
1, 39118, Control_c, 0, 64, 49
1, 39121, Note_off_c, 0, 70, 53
1, 39133, Control_c, 0, 64, 32
1, 39144, Note_on_c, 0, 67, 28
1, 39148, Control_c, 0, 64, 0
1, 39205, Note_off_c, 0, 67, 52
1, 39234, Note_on_c, 0, 60, 43
1, 39234, Note_on_c, 0, 79, 60
1, 39237, Control_c, 0, 64, 24
1, 39251, Control_c, 0, 64, 45
1, 39266, Control_c, 0, 64, 55
1, 39281, Control_c, 0, 64, 59
1, 39281, Control_c, 0, 67, 52
1, 39293, Note_off_c, 0, 60, 56
1, 39296, Control_c, 0, 64, 61
1, 39310, Control_c, 0, 64, 61
1, 39322, Note_on_c, 0, 65, 45
1, 39355, Control_c, 0, 67, 51
1, 39367, Note_off_c, 0, 65, 61
1, 39390, Note_on_c, 0, 69, 53
1, 39394, Note_off_c, 0, 79, 36
1, 39400, Note_on_c, 0, 77, 53
1, 39433, Note_off_c, 0, 77, 66
1, 39443, Control_c, 0, 64, 61
1, 39445, Note_off_c, 0, 69, 57
1, 39458, Control_c, 0, 64, 60
1, 39473, Control_c, 0, 64, 60
1, 39482, Note_on_c, 0, 65, 42
1, 39488, Control_c, 0, 64, 58
1, 39510, Control_c, 0, 64, 55
1, 39520, Note_off_c, 0, 65, 55
1, 39525, Control_c, 0, 64, 51
1, 39540, Control_c, 0, 64, 49
1, 39579, Note_on_c, 0, 60, 31
1, 39628, Note_on_c, 0, 65, 45
1, 39629, Note_off_c, 0, 60, 56
1, 39629, Control_c, 0, 64, 49
1, 39644, Control_c, 0, 64, 50
1, 39659, Control_c, 0, 64, 50
1, 39692, Note_off_c, 0, 65, 60
1, 39694, Note_on_c, 0, 84, 68
1, 39715, Note_on_c, 0, 69, 49
1, 39728, Note_off_c, 0, 84, 60
1, 39748, Control_c, 0, 64, 51
1, 39768, Note_off_c, 0, 69, 62
1, 39778, Control_c, 0, 64, 51
1, 39784, Note_on_c, 0, 65, 51
1, 39807, Control_c, 0, 64, 52
1, 39823, Note_off_c, 0, 65, 63
1, 39837, Control_c, 0, 64, 52
1, 39858, Note_on_c, 0, 82, 72
1, 39878, Note_on_c, 0, 60, 56
1, 39933, Note_off_c, 0, 60, 62
1, 39952, Note_on_c, 0, 63, 54
1, 39985, Control_c, 0, 64, 52
1, 39985, Control_c, 0, 67, 52
1, 39991, Note_off_c, 0, 63, 64
1, 39999, Control_c, 0, 64, 50
1, 40013, Note_on_c, 0, 81, 69
1, 40014, Note_on_c, 0, 66, 61
1, 40014, Control_c, 0, 64, 46
1, 40014, Control_c, 0, 67, 52
1, 40021, Note_off_c, 0, 82, 61
1, 40029, Control_c, 0, 64, 36
1, 40029, Control_c, 0, 67, 53
1, 40042, Note_off_c, 0, 81, 64
1, 40044, Control_c, 0, 64, 17
1, 40059, Control_c, 0, 64, 0
1, 40062, Note_off_c, 0, 66, 56
1, 40100, Note_on_c, 0, 63, 48
1, 40148, Note_off_c, 0, 63, 62
1, 40170, Note_on_c, 0, 79, 66
1, 40172, Note_on_c, 0, 60, 50
1, 40249, Note_off_c, 0, 60, 58
1, 40258, Control_c, 0, 67, 53
1, 40286, Note_on_c, 0, 63, 42
1, 40312, Note_off_c, 0, 79, 60
1, 40315, Note_off_c, 0, 63, 57
1, 40324, Note_on_c, 0, 69, 53
1, 40324, Note_on_c, 0, 78, 64
1, 40348, Control_c, 0, 64, 19
1, 40362, Note_off_c, 0, 78, 59
1, 40363, Control_c, 0, 64, 33
1, 40378, Control_c, 0, 64, 45
1, 40393, Note_off_c, 0, 69, 51
1, 40393, Control_c, 0, 64, 50
1, 40400, Note_on_c, 0, 63, 53
1, 40407, Control_c, 0, 64, 52
1, 40422, Control_c, 0, 64, 53
1, 40437, Control_c, 0, 64, 54
1, 40452, Control_c, 0, 64, 57
1, 40467, Control_c, 0, 64, 58
1, 40474, Note_off_c, 0, 63, 58
1, 40482, Control_c, 0, 64, 59
1, 40494, Note_on_c, 0, 58, 52
1, 40497, Control_c, 0, 64, 59
1, 40507, Note_on_c, 0, 79, 58
1, 40512, Control_c, 0, 64, 60
1, 40527, Control_c, 0, 64, 61
1, 40542, Control_c, 0, 64, 62
1, 40556, Control_c, 0, 64, 62
1, 40571, Control_c, 0, 64, 63
1, 40586, Control_c, 0, 64, 64
1, 40598, Note_on_c, 0, 62, 50
1, 40601, Control_c, 0, 64, 65
1, 40604, Note_off_c, 0, 58, 46
1, 40615, Control_c, 0, 64, 66
1, 40636, Note_off_c, 0, 79, 59
1, 40643, Note_off_c, 0, 62, 59
1, 40645, Control_c, 0, 64, 66
1, 40676, Note_on_c, 0, 67, 51
1, 40727, Note_off_c, 0, 67, 58
1, 40728, Note_on_c, 0, 81, 74
1, 40746, Note_on_c, 0, 62, 53
1, 40748, Note_off_c, 0, 81, 72
1, 40778, Control_c, 0, 67, 54
1, 40783, Note_off_c, 0, 62, 63
1, 40793, Control_c, 0, 64, 66
1, 40809, Note_on_c, 0, 58, 58
1, 40810, Note_on_c, 0, 81, 74
1, 40843, Note_off_c, 0, 81, 56
1, 40867, Control_c, 0, 64, 65
1, 40878, Note_off_c, 0, 58, 59
1, 40881, Note_on_c, 0, 62, 52
1, 40887, Note_on_c, 0, 82, 71
1, 40896, Control_c, 0, 64, 65
1, 40926, Note_off_c, 0, 62, 61
1, 40941, Control_c, 0, 64, 64
1, 40947, Note_off_c, 0, 82, 64
1, 40953, Note_on_c, 0, 84, 68
1, 40956, Control_c, 0, 64, 64
1, 40971, Control_c, 0, 64, 63
1, 40973, Note_on_c, 0, 67, 52
1, 41022, Control_c, 0, 64, 62
1, 41027, Note_off_c, 0, 84, 65
1, 41031, Note_off_c, 0, 67, 55
1, 41033, Note_on_c, 0, 86, 77
1, 41037, Control_c, 0, 64, 59
1, 41043, Note_on_c, 0, 62, 53
1, 41052, Control_c, 0, 64, 56
1, 41058, Note_off_c, 0, 86, 67
1, 41066, Control_c, 0, 64, 51
1, 41081, Control_c, 0, 64, 45
1, 41093, Note_off_c, 0, 62, 58
1, 41096, Control_c, 0, 64, 35
1, 41096, Control_c, 0, 67, 54
1, 41111, Control_c, 0, 64, 25
1, 41126, Control_c, 0, 64, 21
1, 41138, Note_on_c, 0, 60, 49
1, 41139, Note_on_c, 0, 86, 65
1, 41141, Control_c, 0, 64, 24
1, 41156, Control_c, 0, 64, 34
1, 41171, Control_c, 0, 64, 42
1, 41176, Note_off_c, 0, 86, 60
1, 41185, Control_c, 0, 64, 47
1, 41185, Control_c, 0, 67, 54
1, 41187, Note_on_c, 0, 77, 56
1, 41200, Control_c, 0, 64, 52
1, 41206, Note_off_c, 0, 60, 60
1, 41215, Control_c, 0, 64, 56
1, 41215, Control_c, 0, 67, 53
1, 41227, Note_on_c, 0, 65, 52
1, 41231, Control_c, 0, 64, 60
1, 41245, Control_c, 0, 64, 63
1, 41245, Control_c, 0, 67, 53
1, 41260, Control_c, 0, 64, 63
1, 41266, Note_off_c, 0, 65, 63
1, 41299, Note_on_c, 0, 69, 51
1, 41320, Control_c, 0, 67, 52
1, 41361, Note_off_c, 0, 69, 54
1, 41379, Control_c, 0, 64, 63
1, 41385, Note_on_c, 0, 65, 46
1, 41394, Control_c, 0, 67, 52
1, 41409, Control_c, 0, 64, 61
1, 41409, Note_off_c, 0, 77, 52
1, 41424, Control_c, 0, 64, 58
1, 41438, Control_c, 0, 64, 53
1, 41439, Note_on_c, 0, 81, 66
1, 41446, Note_off_c, 0, 65, 58
1, 41453, Control_c, 0, 64, 48
1, 41460, Note_on_c, 0, 60, 60
1, 41468, Control_c, 0, 64, 47
1, 41468, Control_c, 0, 67, 51
1, 41475, Note_off_c, 0, 81, 63
1, 41480, Note_on_c, 0, 79, 63
1, 41483, Control_c, 0, 64, 49
1, 41497, Control_c, 0, 64, 51
1, 41512, Control_c, 0, 64, 53
1, 41512, Control_c, 0, 67, 51
1, 41525, Note_off_c, 0, 79, 60
1, 41525, Note_off_c, 0, 60, 61
1, 41527, Control_c, 0, 64, 57
1, 41538, Note_on_c, 0, 64, 50
1, 41539, Note_on_c, 0, 81, 59
1, 41542, Control_c, 0, 64, 60
1, 41557, Control_c, 0, 64, 61
1, 41571, Control_c, 0, 64, 62
1, 41571, Control_c, 0, 67, 50
1, 41572, Note_off_c, 0, 81, 67
1, 41578, Note_on_c, 0, 79, 61
1, 41582, Note_off_c, 0, 64, 62
1, 41601, Control_c, 0, 64, 62
1, 41608, Note_on_c, 0, 70, 54
1, 41614, Note_off_c, 0, 79, 63
1, 41630, Note_on_c, 0, 77, 53
1, 41645, Control_c, 0, 64, 61
1, 41665, Note_off_c, 0, 70, 50
1, 41675, Control_c, 0, 64, 61
1, 41683, Note_off_c, 0, 77, 57
1, 41689, Control_c, 0, 64, 60
1, 41696, Note_on_c, 0, 79, 57
1, 41704, Note_on_c, 0, 64, 42
1, 41704, Control_c, 0, 64, 60
1, 41719, Control_c, 0, 64, 59
1, 41742, Control_c, 0, 64, 58
1, 41743, Note_off_c, 0, 79, 62
1, 41757, Control_c, 0, 64, 56
1, 41771, Control_c, 0, 64, 53
1, 41782, Note_off_c, 0, 64, 53
1, 41786, Control_c, 0, 64, 44
1, 41801, Control_c, 0, 64, 13
1, 41801, Control_c, 0, 67, 50
1, 41816, Control_c, 0, 64, 0
1, 41816, Control_c, 0, 67, 49
1, 41822, Note_on_c, 0, 69, 51
1, 41831, Control_c, 0, 67, 49
1, 41832, Note_on_c, 0, 65, 47
1, 41845, Control_c, 0, 67, 48
1, 41860, Control_c, 0, 67, 47
1, 41875, Control_c, 0, 67, 46
1, 41889, Control_c, 0, 67, 46
1, 41904, Control_c, 0, 67, 45
1, 41919, Control_c, 0, 67, 45
1, 41934, Control_c, 0, 67, 43
1, 41949, Control_c, 0, 67, 42
1, 41963, Control_c, 0, 64, 23
1, 41963, Control_c, 0, 67, 40
1, 41978, Control_c, 0, 64, 41
1, 41978, Control_c, 0, 67, 36
1, 41993, Control_c, 0, 64, 53
1, 41993, Control_c, 0, 67, 31
1, 42008, Control_c, 0, 64, 58
1, 42008, Control_c, 0, 67, 23
1, 42024, Control_c, 0, 64, 61
1, 42024, Control_c, 0, 67, 14
1, 42039, Note_on_c, 0, 84, 72
1, 42039, Control_c, 0, 64, 64
1, 42039, Control_c, 0, 67, 0
1, 42054, Control_c, 0, 64, 67
1, 42061, Note_off_c, 0, 69, 30
1, 42068, Control_c, 0, 64, 70
1, 42074, Note_off_c, 0, 65, 48
1, 42083, Control_c, 0, 64, 73
1, 42098, Control_c, 0, 64, 75
1, 42109, Note_off_c, 0, 84, 62
1, 42113, Note_on_c, 0, 81, 71
1, 42113, Control_c, 0, 64, 78
1, 42127, Control_c, 0, 64, 81
1, 42142, Control_c, 0, 64, 82
1, 42157, Control_c, 0, 64, 82
1, 42172, Control_c, 0, 64, 83
1, 42180, Note_off_c, 0, 81, 65
1, 42181, Note_on_c, 0, 77, 71
1, 42187, Control_c, 0, 64, 83
1, 42219, Note_off_c, 0, 77, 64
1, 42232, Control_c, 0, 64, 84
1, 42253, Note_on_c, 0, 72, 71
1, 42285, Note_off_c, 0, 72, 64
1, 42333, Note_on_c, 0, 69, 79
1, 42402, Note_off_c, 0, 69, 65
1, 42405, Note_on_c, 0, 65, 76
1, 42409, Control_c, 0, 64, 83
1, 42429, Note_off_c, 0, 65, 68
1, 42453, Control_c, 0, 64, 83
1, 42468, Control_c, 0, 64, 82
1, 42483, Control_c, 0, 64, 79
1, 42503, Note_on_c, 0, 63, 86
1, 42506, Control_c, 0, 64, 74
1, 42512, Note_on_c, 0, 60, 70
1, 42520, Control_c, 0, 64, 64
1, 42535, Control_c, 0, 64, 13
1, 42550, Control_c, 0, 64, 0
1, 42665, Note_on_c, 0, 53, 80
1, 42672, Note_on_c, 0, 41, 64
1, 42691, Note_off_c, 0, 53, 70
1, 42697, Note_off_c, 0, 41, 56
1, 42820, Note_on_c, 0, 57, 83
1, 42826, Note_on_c, 0, 45, 72
1, 42844, Note_off_c, 0, 57, 70
1, 42856, Note_off_c, 0, 45, 64
1, 42977, Note_on_c, 0, 53, 80
1, 42988, Note_on_c, 0, 41, 57
1, 43001, Note_off_c, 0, 53, 71
1, 43015, Note_off_c, 0, 41, 54
1, 43069, Control_c, 0, 67, 13
1, 43084, Control_c, 0, 67, 20
1, 43099, Control_c, 0, 67, 28
1, 43114, Control_c, 0, 67, 35
1, 43129, Control_c, 0, 64, 34
1, 43129, Control_c, 0, 67, 39
1, 43136, Note_off_c, 0, 60, 55
1, 43140, Note_on_c, 0, 58, 86
1, 43143, Control_c, 0, 64, 61
1, 43143, Control_c, 0, 67, 41
1, 43144, Note_on_c, 0, 46, 78
1, 43158, Control_c, 0, 64, 67
1, 43158, Control_c, 0, 67, 44
1, 43162, Note_off_c, 0, 58, 69
1, 43171, Note_off_c, 0, 46, 68
1, 43173, Control_c, 0, 64, 75
1, 43173, Control_c, 0, 67, 45
1, 43188, Control_c, 0, 64, 79
1, 43188, Control_c, 0, 67, 47
1, 43203, Control_c, 0, 64, 80
1, 43203, Control_c, 0, 67, 49
1, 43217, Control_c, 0, 67, 52
1, 43232, Control_c, 0, 64, 81
1, 43232, Control_c, 0, 67, 57
1, 43254, Control_c, 0, 67, 64
1, 43269, Control_c, 0, 67, 73
1, 43281, Note_off_c, 0, 63, 60
1, 43284, Control_c, 0, 67, 78
1, 43299, Control_c, 0, 64, 80
1, 43299, Control_c, 0, 67, 79
1, 43314, Control_c, 0, 64, 79
1, 43329, Note_on_c, 0, 62, 49
1, 43329, Control_c, 0, 64, 75
1, 43343, Control_c, 0, 64, 71
1, 43343, Control_c, 0, 67, 79
1, 43358, Control_c, 0, 64, 65
1, 43358, Control_c, 0, 67, 80
1, 43373, Control_c, 0, 64, 56
1, 43373, Control_c, 0, 67, 82
1, 43388, Control_c, 0, 64, 37
1, 43388, Control_c, 0, 67, 85
1, 43403, Control_c, 0, 64, 0
1, 43403, Control_c, 0, 67, 86
1, 43404, Note_off_c, 0, 62, 57
1, 43417, Control_c, 0, 67, 87
1, 43432, Control_c, 0, 67, 88
1, 43447, Control_c, 0, 67, 88
1, 43462, Control_c, 0, 67, 89
1, 43476, Control_c, 0, 67, 91
1, 43491, Control_c, 0, 67, 93
1, 43506, Control_c, 0, 67, 94
1, 43514, Note_on_c, 0, 55, 42
1, 43673, Note_off_c, 0, 55, 34
1, 43679, Note_on_c, 0, 74, 52
1, 43684, Control_c, 0, 67, 93
1, 43697, Note_on_c, 0, 70, 38
1, 43699, Control_c, 0, 67, 93
1, 43712, Note_off_c, 0, 74, 65
1, 43714, Control_c, 0, 67, 92
1, 43729, Note_off_c, 0, 70, 54
1, 43729, Control_c, 0, 67, 92
1, 43744, Control_c, 0, 67, 91
1, 43773, Control_c, 0, 67, 91
1, 43818, Control_c, 0, 67, 90
1, 43862, Note_on_c, 0, 60, 44
1, 43981, Control_c, 0, 67, 90
1, 44008, Note_off_c, 0, 60, 49
1, 44014, Note_on_c, 0, 69, 36
1, 44014, Note_on_c, 0, 72, 53
1, 44053, Note_off_c, 0, 72, 64
1, 44062, Note_off_c, 0, 69, 57
1, 44166, Control_c, 0, 67, 89
1, 44168, Note_on_c, 0, 48, 45
1, 44196, Control_c, 0, 67, 89
1, 44240, Control_c, 0, 67, 88
1, 44299, Control_c, 0, 67, 88
1, 44321, Note_off_c, 0, 48, 33
1, 44327, Note_on_c, 0, 64, 47
1, 44333, Note_on_c, 0, 58, 46
1, 44359, Note_off_c, 0, 58, 57
1, 44369, Note_off_c, 0, 64, 64
1, 44419, Control_c, 0, 67, 87
1, 44463, Control_c, 0, 67, 86
1, 44478, Control_c, 0, 67, 86
1, 44493, Control_c, 0, 64, 26
1, 44493, Control_c, 0, 67, 85
1, 44500, Note_on_c, 0, 57, 53
1, 44502, Note_on_c, 0, 53, 53
1, 44508, Control_c, 0, 64, 49
1, 44522, Control_c, 0, 64, 59
1, 44522, Control_c, 0, 67, 84
1, 44537, Control_c, 0, 64, 64
1, 44537, Control_c, 0, 67, 83
1, 44552, Control_c, 0, 64, 69
1, 44552, Control_c, 0, 67, 82
1, 44567, Control_c, 0, 64, 78
1, 44567, Control_c, 0, 67, 80
1, 44581, Control_c, 0, 64, 89
1, 44581, Control_c, 0, 67, 76
1, 44596, Control_c, 0, 64, 97
1, 44596, Control_c, 0, 67, 72
1, 44611, Control_c, 0, 64, 102
1, 44611, Control_c, 0, 67, 63
1, 44626, Control_c, 0, 64, 106
1, 44626, Control_c, 0, 67, 51
1, 44641, Control_c, 0, 64, 112
1, 44641, Control_c, 0, 67, 39
1, 44655, Control_c, 0, 64, 116
1, 44655, Control_c, 0, 67, 26
1, 44670, Control_c, 0, 67, 14
1, 44683, Note_on_c, 0, 84, 80
1, 44685, Control_c, 0, 67, 0
1, 44708, Note_off_c, 0, 53, 58
1, 44728, Note_off_c, 0, 57, 63
1, 44730, Control_c, 0, 64, 117
1, 44752, Control_c, 0, 64, 118
1, 44757, Note_off_c, 0, 84, 61
1, 44767, Control_c, 0, 64, 120
1, 44772, Note_on_c, 0, 81, 71
1, 44782, Control_c, 0, 64, 120
1, 44837, Note_on_c, 0, 77, 75
1, 44837, Note_off_c, 0, 81, 64
1, 44870, Note_off_c, 0, 77, 61
1, 44909, Note_on_c, 0, 72, 75
1, 44944, Control_c, 0, 64, 120
1, 44950, Note_off_c, 0, 72, 63
1, 44989, Control_c, 0, 64, 118
1, 44990, Note_on_c, 0, 69, 81
1, 45004, Control_c, 0, 64, 115
1, 45019, Control_c, 0, 64, 114
1, 45034, Control_c, 0, 64, 113
1, 45048, Control_c, 0, 64, 112
1, 45060, Note_on_c, 0, 65, 81
1, 45060, Note_off_c, 0, 69, 64
1, 45063, Control_c, 0, 64, 111
1, 45078, Control_c, 0, 64, 110
1, 45084, Note_off_c, 0, 65, 68
1, 45093, Control_c, 0, 64, 108
1, 45108, Control_c, 0, 64, 104
1, 45122, Control_c, 0, 64, 98
1, 45137, Control_c, 0, 64, 90
1, 45152, Control_c, 0, 64, 80
1, 45159, Note_on_c, 0, 63, 83
1, 45167, Control_c, 0, 64, 69
1, 45168, Note_on_c, 0, 60, 68
1, 45182, Control_c, 0, 64, 54
1, 45196, Control_c, 0, 64, 0
1, 45322, Note_on_c, 0, 53, 81
1, 45329, Note_on_c, 0, 41, 61
1, 45345, Note_off_c, 0, 53, 70
1, 45353, Note_off_c, 0, 41, 57
1, 45490, Note_on_c, 0, 57, 76
1, 45500, Note_on_c, 0, 45, 68
1, 45517, Note_off_c, 0, 57, 68
1, 45531, Note_off_c, 0, 45, 64
1, 45648, Note_on_c, 0, 53, 83
1, 45660, Note_on_c, 0, 41, 60
1, 45670, Note_off_c, 0, 53, 72
1, 45686, Note_off_c, 0, 41, 56
1, 45797, Note_off_c, 0, 60, 54
1, 45798, Control_c, 0, 64, 44
1, 45812, Control_c, 0, 64, 59
1, 45818, Note_on_c, 0, 58, 86
1, 45821, Note_on_c, 0, 46, 79
1, 45827, Control_c, 0, 64, 66
1, 45842, Control_c, 0, 64, 72
1, 45852, Note_off_c, 0, 46, 67
1, 45853, Note_off_c, 0, 58, 61
1, 45857, Control_c, 0, 64, 78
1, 45871, Control_c, 0, 64, 78
1, 45901, Control_c, 0, 64, 79
1, 45916, Note_off_c, 0, 63, 39
1, 45916, Control_c, 0, 64, 80
1, 45931, Control_c, 0, 64, 80
1, 45976, Control_c, 0, 64, 80
1, 45991, Note_on_c, 0, 62, 60
1, 45991, Control_c, 0, 64, 78
1, 46006, Control_c, 0, 64, 76
1, 46021, Control_c, 0, 64, 73
1, 46035, Control_c, 0, 64, 68
1, 46037, Note_off_c, 0, 62, 54
1, 46050, Control_c, 0, 64, 63
1, 46065, Control_c, 0, 64, 53
1, 46080, Control_c, 0, 64, 29
1, 46095, Control_c, 0, 64, 0
1, 46155, Control_c, 0, 67, 8
1, 46169, Control_c, 0, 67, 8
1, 46172, Note_on_c, 0, 55, 49
1, 46214, Control_c, 0, 67, 9
1, 46235, Control_c, 0, 67, 9
1, 46280, Control_c, 0, 67, 10
1, 46295, Control_c, 0, 67, 11
1, 46310, Control_c, 0, 67, 11
1, 46325, Control_c, 0, 67, 12
1, 46332, Note_on_c, 0, 74, 54
1, 46339, Control_c, 0, 67, 12
1, 46344, Note_on_c, 0, 70, 46
1, 46354, Control_c, 0, 67, 13
1, 46365, Note_off_c, 0, 74, 64
1, 46369, Control_c, 0, 67, 14
1, 46372, Note_off_c, 0, 55, 42
1, 46380, Note_off_c, 0, 70, 59
1, 46384, Control_c, 0, 67, 14
1, 46399, Control_c, 0, 67, 15
1, 46414, Control_c, 0, 67, 17
1, 46429, Control_c, 0, 67, 21
1, 46443, Control_c, 0, 67, 25
1, 46458, Control_c, 0, 67, 31
1, 46473, Control_c, 0, 67, 37
1, 46487, Control_c, 0, 67, 43
1, 46502, Control_c, 0, 67, 49
1, 46506, Note_on_c, 0, 60, 41
1, 46517, Control_c, 0, 67, 55
1, 46532, Control_c, 0, 67, 60
1, 46547, Control_c, 0, 67, 66
1, 46561, Control_c, 0, 67, 71
1, 46576, Control_c, 0, 67, 72
1, 46648, Note_off_c, 0, 60, 38
1, 46650, Control_c, 0, 67, 73
1, 46662, Note_on_c, 0, 69, 40
1, 46666, Note_on_c, 0, 72, 47
1, 46694, Control_c, 0, 67, 73
1, 46695, Note_off_c, 0, 69, 54
1, 46698, Note_off_c, 0, 72, 61
1, 46842, Note_on_c, 0, 48, 36
1, 46989, Note_off_c, 0, 48, 51
1, 47008, Note_on_c, 0, 64, 34
1, 47009, Note_on_c, 0, 58, 40
1, 47059, Note_off_c, 0, 64, 45
1, 47064, Note_off_c, 0, 58, 59
1, 47103, Control_c, 0, 67, 73
1, 47117, Control_c, 0, 67, 72
1, 47132, Control_c, 0, 67, 72
1, 47147, Control_c, 0, 64, 23
1, 47147, Control_c, 0, 67, 71
1, 47162, Control_c, 0, 64, 47
1, 47162, Control_c, 0, 67, 71
1, 47177, Control_c, 0, 64, 57
1, 47177, Control_c, 0, 67, 70
1, 47191, Control_c, 0, 64, 62
1, 47191, Control_c, 0, 67, 69
1, 47206, Control_c, 0, 64, 64
1, 47206, Control_c, 0, 67, 69
1, 47213, Note_on_c, 0, 41, 39
1, 47213, Note_on_c, 0, 65, 47
1, 47219, Note_on_c, 0, 57, 42
1, 47221, Control_c, 0, 64, 68
1, 47235, Control_c, 0, 64, 71
1, 47248, Note_off_c, 0, 57, 56
1, 47250, Control_c, 0, 64, 72
1, 47262, Note_off_c, 0, 65, 58
1, 47265, Note_off_c, 0, 41, 54
1, 47280, Control_c, 0, 64, 73
1, 47306, Note_on_c, 0, 53, 46
1, 47309, Control_c, 0, 64, 74
1, 47309, Control_c, 0, 67, 68
1, 47324, Control_c, 0, 67, 68
1, 47339, Control_c, 0, 64, 74
1, 47350, Note_off_c, 0, 53, 63
1, 47369, Control_c, 0, 64, 74
1, 47396, Note_on_c, 0, 52, 49
1, 47413, Control_c, 0, 64, 73
1, 47413, Control_c, 0, 67, 67
1, 47427, Control_c, 0, 64, 73
1, 47436, Note_off_c, 0, 52, 64
1, 47442, Control_c, 0, 64, 72
1, 47457, Control_c, 0, 64, 71
1, 47461, Note_on_c, 0, 53, 50
1, 47472, Control_c, 0, 64, 70
1, 47487, Control_c, 0, 64, 69
1, 47491, Note_off_c, 0, 53, 65
1, 47502, Control_c, 0, 64, 67
1, 47517, Control_c, 0, 64, 64
1, 47521, Note_on_c, 0, 41, 58
1, 47532, Control_c, 0, 64, 61
1, 47547, Control_c, 0, 64, 57
1, 47548, Note_off_c, 0, 41, 57
1, 47562, Control_c, 0, 64, 55
1, 47581, Note_on_c, 0, 53, 52
1, 47591, Control_c, 0, 64, 56
1, 47606, Control_c, 0, 64, 55
1, 47621, Control_c, 0, 64, 53
1, 47625, Note_off_c, 0, 53, 62
1, 47636, Control_c, 0, 64, 50
1, 47651, Control_c, 0, 64, 44
1, 47666, Control_c, 0, 64, 37
1, 47679, Note_on_c, 0, 52, 54
1, 47681, Control_c, 0, 64, 29
1, 47681, Note_on_c, 0, 69, 64
1, 47682, Note_on_c, 0, 65, 63
1, 47696, Control_c, 0, 64, 17
1, 47711, Control_c, 0, 64, 0
1, 47723, Note_off_c, 0, 52, 65
1, 47776, Note_on_c, 0, 53, 38
1, 47787, Note_off_c, 0, 69, 61
1, 47809, Note_off_c, 0, 53, 54
1, 47841, Note_on_c, 0, 41, 59
1, 47849, Note_off_c, 0, 65, 51
1, 47851, Note_on_c, 0, 67, 60
1, 47857, Note_on_c, 0, 64, 49
1, 47881, Note_off_c, 0, 41, 61
1, 47882, Note_off_c, 0, 64, 58
1, 47884, Note_off_c, 0, 67, 66
1, 47917, Note_on_c, 0, 53, 43
1, 47966, Note_off_c, 0, 53, 59
1, 48023, Note_on_c, 0, 64, 46
1, 48025, Note_on_c, 0, 52, 44
1, 48030, Note_on_c, 0, 67, 46
1, 48050, Note_off_c, 0, 64, 60
1, 48062, Note_off_c, 0, 52, 64
1, 48064, Note_off_c, 0, 67, 64
1, 48100, Note_on_c, 0, 53, 45
1, 48103, Control_c, 0, 67, 67
1, 48131, Note_off_c, 0, 53, 57
1, 48164, Note_on_c, 0, 41, 68
1, 48207, Note_off_c, 0, 41, 63
1, 48241, Note_on_c, 0, 53, 53
1, 48289, Note_off_c, 0, 53, 61
1, 48331, Note_on_c, 0, 70, 77
1, 48334, Note_on_c, 0, 52, 55
1, 48337, Note_on_c, 0, 67, 65
1, 48369, Control_c, 0, 67, 66
1, 48379, Note_off_c, 0, 52, 65
1, 48384, Control_c, 0, 67, 66
1, 48399, Control_c, 0, 67, 65
1, 48405, Note_on_c, 0, 53, 59
1, 48429, Control_c, 0, 67, 65
1, 48444, Note_off_c, 0, 53, 65
1, 48489, Note_off_c, 0, 70, 54
1, 48490, Note_on_c, 0, 41, 67
1, 48492, Note_on_c, 0, 69, 70
1, 48495, Note_on_c, 0, 65, 65
1, 48511, Control_c, 0, 67, 65
1, 48519, Note_off_c, 0, 67, 42
1, 48520, Note_off_c, 0, 69, 67
1, 48523, Note_off_c, 0, 65, 66
1, 48533, Note_off_c, 0, 41, 61
1, 48575, Note_on_c, 0, 53, 52
1, 48617, Note_off_c, 0, 53, 62
1, 48659, Note_on_c, 0, 69, 68
1, 48660, Note_on_c, 0, 52, 51
1, 48675, Note_on_c, 0, 65, 54
1, 48688, Control_c, 0, 67, 65
1, 48690, Note_off_c, 0, 69, 64
1, 48697, Note_off_c, 0, 65, 60
1, 48702, Note_off_c, 0, 52, 63
1, 48718, Control_c, 0, 67, 64
1, 48724, Note_on_c, 0, 53, 52
1, 48733, Control_c, 0, 67, 64
1, 48759, Note_off_c, 0, 53, 66
1, 48763, Control_c, 0, 67, 63
1, 48799, Note_on_c, 0, 41, 72
1, 48808, Control_c, 0, 67, 63
1, 48837, Control_c, 0, 64, 9
1, 48837, Control_c, 0, 67, 62
1, 48839, Note_off_c, 0, 41, 63
1, 48852, Control_c, 0, 64, 10
1, 48852, Control_c, 0, 67, 61
1, 48867, Control_c, 0, 67, 60
1, 48879, Note_on_c, 0, 53, 53
1, 48881, Control_c, 0, 67, 59
1, 48896, Control_c, 0, 67, 57
1, 48911, Control_c, 0, 67, 56
1, 48920, Note_off_c, 0, 53, 62
1, 48926, Control_c, 0, 64, 12
1, 48926, Control_c, 0, 67, 54
1, 48941, Control_c, 0, 64, 13
1, 48941, Control_c, 0, 67, 51
1, 48955, Control_c, 0, 67, 50
1, 48960, Note_on_c, 0, 52, 60
1, 48963, Note_on_c, 0, 81, 83
1, 48966, Note_on_c, 0, 77, 78
1, 48970, Control_c, 0, 64, 14
1, 48970, Control_c, 0, 67, 48
1, 48985, Control_c, 0, 64, 15
1, 48985, Control_c, 0, 67, 47
1, 49000, Control_c, 0, 67, 45
1, 49004, Note_off_c, 0, 52, 65
1, 49014, Control_c, 0, 67, 42
1, 49029, Control_c, 0, 67, 39
1, 49038, Note_on_c, 0, 53, 57
1, 49044, Control_c, 0, 67, 34
1, 49059, Control_c, 0, 64, 16
1, 49059, Control_c, 0, 67, 28
1, 49074, Control_c, 0, 67, 21
1, 49077, Note_off_c, 0, 53, 63
1, 49088, Control_c, 0, 64, 17
1, 49088, Control_c, 0, 67, 14
1, 49104, Control_c, 0, 64, 18
1, 49104, Control_c, 0, 67, 0
1, 49116, Note_on_c, 0, 41, 66
1, 49121, Note_off_c, 0, 77, 60
1, 49125, Note_on_c, 0, 79, 73
1, 49127, Note_on_c, 0, 76, 71
1, 49136, Note_off_c, 0, 81, 34
1, 49151, Note_off_c, 0, 76, 67
1, 49153, Note_off_c, 0, 79, 63
1, 49157, Note_off_c, 0, 41, 62
1, 49193, Control_c, 0, 64, 19
1, 49195, Note_on_c, 0, 53, 55
1, 49257, Note_off_c, 0, 53, 59
1, 49291, Control_c, 0, 64, 19
1, 49293, Note_on_c, 0, 52, 56
1, 49302, Note_on_c, 0, 79, 68
1, 49305, Control_c, 0, 64, 20
1, 49306, Note_on_c, 0, 76, 68
1, 49320, Control_c, 0, 64, 21
1, 49335, Control_c, 0, 64, 22
1, 49337, Note_off_c, 0, 76, 66
1, 49341, Note_off_c, 0, 52, 63
1, 49341, Note_off_c, 0, 79, 56
1, 49377, Note_on_c, 0, 53, 51
1, 49413, Note_off_c, 0, 53, 63
1, 49458, Note_on_c, 0, 41, 56
1, 49487, Note_off_c, 0, 41, 56
1, 49541, Note_on_c, 0, 53, 41
1, 49580, Note_off_c, 0, 53, 57
1, 49601, Control_c, 0, 64, 23
1, 49621, Note_on_c, 0, 82, 70
1, 49625, Note_on_c, 0, 52, 52
1, 49626, Note_on_c, 0, 76, 56
1, 49629, Note_on_c, 0, 79, 50
1, 49645, Control_c, 0, 64, 23
1, 49648, Note_off_c, 0, 76, 62
1, 49653, Note_off_c, 0, 79, 59
1, 49657, Note_off_c, 0, 82, 58
1, 49670, Note_off_c, 0, 52, 62
1, 49675, Control_c, 0, 64, 24
1, 49690, Control_c, 0, 64, 24
1, 49705, Control_c, 0, 64, 25
1, 49720, Control_c, 0, 64, 27
1, 49726, Note_on_c, 0, 53, 27
1, 49735, Control_c, 0, 64, 28
1, 49750, Control_c, 0, 64, 29
1, 49765, Control_c, 0, 64, 31
1, 49779, Control_c, 0, 64, 33
1, 49794, Control_c, 0, 64, 35
1, 49809, Control_c, 0, 64, 36
1, 49824, Control_c, 0, 64, 38
1, 49838, Control_c, 0, 64, 41
1, 49853, Control_c, 0, 64, 43
1, 49868, Control_c, 0, 64, 45
1, 49868, Control_c, 0, 67, 8
1, 49883, Control_c, 0, 64, 47
1, 49883, Control_c, 0, 67, 9
1, 49898, Control_c, 0, 64, 49
1, 49898, Control_c, 0, 67, 12
1, 49899, Note_on_c, 0, 41, 32
1, 49902, Note_on_c, 0, 79, 42
1, 49904, Note_on_c, 0, 82, 62
1, 49907, Note_on_c, 0, 76, 46
1, 49912, Control_c, 0, 64, 52
1, 49912, Control_c, 0, 67, 16
1, 49927, Control_c, 0, 64, 55
1, 49927, Control_c, 0, 67, 22
1, 49942, Control_c, 0, 64, 57
1, 49942, Control_c, 0, 67, 29
1, 49957, Control_c, 0, 64, 59
1, 49957, Control_c, 0, 67, 34
1, 49972, Control_c, 0, 64, 62
1, 49972, Control_c, 0, 67, 38
1, 49994, Control_c, 0, 64, 64
1, 49994, Control_c, 0, 67, 43
1, 50009, Control_c, 0, 64, 67
1, 50009, Control_c, 0, 67, 51
1, 50024, Control_c, 0, 64, 71
1, 50024, Control_c, 0, 67, 59
1, 50039, Control_c, 0, 64, 73
1, 50039, Control_c, 0, 67, 66
1, 50054, Control_c, 0, 64, 74
1, 50054, Control_c, 0, 67, 68
1, 50069, Control_c, 0, 64, 75
1, 50069, Control_c, 0, 67, 71
1, 50083, Control_c, 0, 64, 76
1, 50083, Control_c, 0, 67, 75
1, 50098, Control_c, 0, 64, 77
1, 50098, Control_c, 0, 67, 78
1, 50113, Control_c, 0, 64, 78
1, 50113, Control_c, 0, 67, 81
1, 50128, Control_c, 0, 67, 82
1, 50143, Control_c, 0, 67, 86
1, 50158, Control_c, 0, 67, 90
1, 50173, Control_c, 0, 67, 94
1, 50188, Control_c, 0, 67, 97
1, 50202, Control_c, 0, 67, 99
1, 50217, Control_c, 0, 67, 100
1, 50232, Control_c, 0, 67, 102
1, 50247, Control_c, 0, 67, 103
1, 50261, Control_c, 0, 67, 104
1, 50276, Control_c, 0, 67, 105
1, 50291, Control_c, 0, 67, 106
1, 50306, Control_c, 0, 67, 107
1, 50321, Control_c, 0, 67, 107
1, 50335, Control_c, 0, 67, 108
1, 50350, Control_c, 0, 67, 109
1, 50365, Control_c, 0, 64, 78
1, 50365, Control_c, 0, 67, 111
1, 50380, Control_c, 0, 67, 111
1, 50424, Control_c, 0, 64, 77
1, 50468, Control_c, 0, 64, 77
1, 50483, Control_c, 0, 64, 76
1, 50498, Control_c, 0, 67, 111
1, 50513, Control_c, 0, 67, 110
1, 50528, Control_c, 0, 64, 76
1, 50528, Control_c, 0, 67, 109
1, 50543, Control_c, 0, 67, 107
1, 50557, Control_c, 0, 64, 75
1, 50557, Control_c, 0, 67, 107
1, 50601, Control_c, 0, 64, 75
1, 50616, Control_c, 0, 64, 74
1, 50646, Control_c, 0, 64, 74
1, 50660, Control_c, 0, 64, 73
1, 50675, Control_c, 0, 64, 72
1, 50675, Control_c, 0, 67, 106
1, 50690, Control_c, 0, 64, 71
1, 50705, Control_c, 0, 64, 71
1, 50720, Control_c, 0, 64, 70
1, 50742, Control_c, 0, 64, 69
1, 50757, Control_c, 0, 64, 69
1, 50772, Control_c, 0, 64, 68
1, 50786, Control_c, 0, 64, 68
1, 50801, Control_c, 0, 64, 67
1, 50817, Control_c, 0, 64, 66
1, 50824, Note_off_c, 0, 79, 24
1, 50832, Control_c, 0, 64, 65
1, 50847, Control_c, 0, 64, 64
1, 50861, Control_c, 0, 64, 62
1, 50876, Control_c, 0, 64, 60
1, 50891, Control_c, 0, 64, 57
1, 50906, Control_c, 0, 64, 54
1, 50919, Note_on_c, 0, 81, 40
1, 50921, Control_c, 0, 64, 49
1, 50936, Control_c, 0, 64, 43
1, 50936, Control_c, 0, 67, 106
1, 50949, Note_on_c, 0, 77, 30
1, 50950, Control_c, 0, 64, 37
1, 50965, Control_c, 0, 64, 32
1, 50980, Control_c, 0, 64, 31
1, 50984, Note_off_c, 0, 82, 36
1, 50995, Control_c, 0, 64, 32
1, 50995, Control_c, 0, 67, 105
1, 51010, Control_c, 0, 64, 38
1, 51024, Control_c, 0, 64, 45
1, 51031, Note_off_c, 0, 76, 41
1, 51039, Control_c, 0, 64, 51
1, 51039, Control_c, 0, 67, 105
1, 51054, Control_c, 0, 64, 57
1, 51069, Control_c, 0, 64, 62
1, 51083, Control_c, 0, 64, 64
1, 51098, Control_c, 0, 64, 66
1, 51113, Control_c, 0, 64, 69
1, 51113, Control_c, 0, 67, 104
1, 51128, Control_c, 0, 64, 72
1, 51143, Control_c, 0, 64, 74
1, 51157, Control_c, 0, 64, 77
1, 51172, Control_c, 0, 64, 79
1, 51187, Note_off_c, 0, 41, 40
1, 51187, Control_c, 0, 64, 80
1, 51201, Control_c, 0, 64, 81
1, 51216, Control_c, 0, 64, 81
1, 51216, Control_c, 0, 67, 104
1, 51231, Control_c, 0, 64, 82
1, 51235, Note_off_c, 0, 81, 36
1, 51243, Note_off_c, 0, 77, 44
1, 51256, Note_off_c, 0, 53, 1
1, 51276, Control_c, 0, 67, 103
1, 51321, Control_c, 0, 64, 81
1, 51350, Control_c, 0, 64, 81
1, 51350, Control_c, 0, 67, 103
1, 51365, Control_c, 0, 64, 80
1, 51380, Control_c, 0, 64, 80
1, 51395, Control_c, 0, 64, 79
1, 51409, Control_c, 0, 64, 78
1, 51424, Control_c, 0, 64, 78
1, 51424, Control_c, 0, 67, 102
1, 51439, Control_c, 0, 64, 77
1, 51454, Control_c, 0, 64, 76
1, 51469, Control_c, 0, 64, 76
1, 51490, Control_c, 0, 64, 75
1, 51505, Control_c, 0, 64, 74
1, 51505, Control_c, 0, 67, 102
1, 51520, Control_c, 0, 64, 73
1, 51535, Control_c, 0, 64, 72
1, 51535, Control_c, 0, 67, 101
1, 51550, Control_c, 0, 64, 71
1, 51565, Control_c, 0, 64, 71
1, 51580, Control_c, 0, 64, 70
1, 51595, Control_c, 0, 64, 69
1, 51595, Control_c, 0, 67, 101
1, 51610, Control_c, 0, 64, 68
1, 51625, Control_c, 0, 64, 67
1, 51640, Control_c, 0, 64, 66
1, 51654, Control_c, 0, 64, 66
1, 51654, Control_c, 0, 67, 100
1, 51669, Control_c, 0, 64, 65
1, 51684, Control_c, 0, 64, 64
1, 51699, Control_c, 0, 64, 64
1, 51714, Control_c, 0, 67, 100
1, 51729, Control_c, 0, 64, 63
1, 51744, Control_c, 0, 64, 62
1, 51759, Control_c, 0, 64, 62
1, 51774, Control_c, 0, 64, 61
1, 51774, Control_c, 0, 67, 99
1, 51788, Control_c, 0, 64, 60
1, 51803, Control_c, 0, 64, 59
1, 51818, Control_c, 0, 64, 58
1, 51818, Control_c, 0, 67, 99
1, 51832, Control_c, 0, 64, 57
1, 51847, Control_c, 0, 64, 56
1, 51862, Control_c, 0, 64, 55
1, 51877, Control_c, 0, 64, 54
1, 51892, Control_c, 0, 64, 53
1, 51906, Control_c, 0, 64, 52
1, 51921, Control_c, 0, 64, 51
1, 51936, Control_c, 0, 64, 50
1, 51951, Control_c, 0, 64, 49
1, 51966, Control_c, 0, 64, 48
1, 51980, Control_c, 0, 64, 48
1, 51995, Control_c, 0, 64, 47
1, 52010, Control_c, 0, 64, 46
1, 52010, Control_c, 0, 67, 98
1, 52024, Control_c, 0, 64, 45
1, 52039, Control_c, 0, 64, 45
1, 52099, Control_c, 0, 64, 45
1, 52113, Control_c, 0, 64, 47
1, 52128, Control_c, 0, 64, 49
1, 52143, Control_c, 0, 64, 51
1, 52158, Control_c, 0, 64, 52
1, 52173, Control_c, 0, 64, 52
1, 52188, Control_c, 0, 64, 53
1, 52203, Control_c, 0, 64, 53
1, 52254, Control_c, 0, 67, 98
1, 52263, Note_on_c, 0, 71, 39
1, 52298, Note_on_c, 0, 65, 36
1, 52299, Note_off_c, 0, 71, 49
1, 52302, Note_on_c, 0, 72, 48
1, 52313, Control_c, 0, 64, 53
1, 52328, Control_c, 0, 64, 52
1, 52343, Control_c, 0, 64, 52
1, 52350, Note_on_c, 0, 74, 48
1, 52358, Control_c, 0, 64, 51
1, 52368, Note_off_c, 0, 65, 50
1, 52370, Note_on_c, 0, 69, 43
1, 52373, Control_c, 0, 64, 51
1, 52388, Control_c, 0, 64, 50
1, 52403, Note_off_c, 0, 74, 58
1, 52403, Control_c, 0, 64, 49
1, 52412, Note_off_c, 0, 69, 60
1, 52444, Note_on_c, 0, 68, 45
1, 52485, Note_off_c, 0, 68, 65
1, 52516, Note_on_c, 0, 69, 47
1, 52552, Note_off_c, 0, 69, 58
1, 52593, Note_on_c, 0, 65, 43
1, 52641, Note_off_c, 0, 65, 61
1, 52651, Note_on_c, 0, 69, 48
1, 52701, Note_off_c, 0, 69, 62
1, 52715, Control_c, 0, 64, 50
1, 52722, Note_on_c, 0, 68, 51
1, 52763, Note_off_c, 0, 68, 64
1, 52789, Control_c, 0, 64, 50
1, 52809, Note_on_c, 0, 69, 47
1, 52818, Control_c, 0, 64, 51
1, 52833, Control_c, 0, 64, 52
1, 52844, Note_off_c, 0, 69, 51
1, 52847, Control_c, 0, 64, 52
1, 52862, Control_c, 0, 64, 53
1, 52877, Control_c, 0, 64, 54
1, 52878, Note_on_c, 0, 65, 45
1, 52891, Control_c, 0, 64, 55
1, 52906, Control_c, 0, 64, 56
1, 52921, Control_c, 0, 64, 57
1, 52936, Control_c, 0, 64, 58
1, 52949, Note_on_c, 0, 69, 42
1, 52951, Control_c, 0, 64, 59
1, 52973, Control_c, 0, 64, 61
1, 52988, Control_c, 0, 64, 63
1, 52993, Note_off_c, 0, 65, 33
1, 53002, Control_c, 0, 64, 63
1, 53013, Note_off_c, 0, 69, 61
1, 53017, Control_c, 0, 64, 64
1, 53032, Control_c, 0, 64, 64
1, 53036, Note_on_c, 0, 77, 59
1, 53045, Note_on_c, 0, 68, 46
1, 53047, Control_c, 0, 64, 65
1, 53061, Control_c, 0, 64, 66
1, 53076, Control_c, 0, 64, 67
1, 53089, Note_off_c, 0, 68, 61
1, 53091, Control_c, 0, 64, 68
1, 53121, Control_c, 0, 64, 68
1, 53125, Note_on_c, 0, 69, 46
1, 53136, Control_c, 0, 67, 97
1, 53157, Note_off_c, 0, 72, 37
1, 53173, Note_off_c, 0, 69, 62
1, 53180, Control_c, 0, 67, 97
1, 53193, Note_on_c, 0, 65, 53
1, 53211, Control_c, 0, 67, 96
1, 53216, Note_on_c, 0, 76, 69
1, 53225, Control_c, 0, 67, 94
1, 53240, Control_c, 0, 67, 91
1, 53255, Control_c, 0, 67, 87
1, 53270, Control_c, 0, 67, 81
1, 53285, Control_c, 0, 67, 73
1, 53289, Note_on_c, 0, 69, 50
1, 53300, Note_off_c, 0, 77, 54
1, 53300, Control_c, 0, 64, 68
1, 53300, Control_c, 0, 67, 65
1, 53315, Control_c, 0, 67, 57
1, 53330, Control_c, 0, 67, 49
1, 53336, Note_off_c, 0, 69, 62
1, 53345, Control_c, 0, 64, 67
1, 53345, Control_c, 0, 67, 42
1, 53351, Note_off_c, 0, 76, 63
1, 53359, Control_c, 0, 67, 38
1, 53361, Note_on_c, 0, 74, 65
1, 53362, Note_on_c, 0, 68, 50
1, 53362, Note_off_c, 0, 65, 53
1, 53374, Control_c, 0, 67, 34
1, 53389, Control_c, 0, 67, 32
1, 53390, Note_off_c, 0, 74, 67
1, 53404, Control_c, 0, 67, 31
1, 53416, Note_off_c, 0, 68, 59
1, 53419, Control_c, 0, 67, 30
1, 53433, Control_c, 0, 64, 67
1, 53433, Control_c, 0, 67, 28
1, 53439, Note_on_c, 0, 69, 49
1, 53448, Control_c, 0, 64, 66
1, 53463, Control_c, 0, 64, 65
1, 53471, Note_on_c, 0, 76, 60
1, 53477, Control_c, 0, 64, 64
1, 53486, Note_off_c, 0, 69, 61
1, 53492, Control_c, 0, 64, 61
1, 53492, Control_c, 0, 67, 28
1, 53495, Note_off_c, 0, 76, 64
1, 53507, Control_c, 0, 64, 59
1, 53511, Note_on_c, 0, 74, 59
1, 53522, Control_c, 0, 64, 56
1, 53532, Note_on_c, 0, 64, 43
1, 53537, Control_c, 0, 64, 54
1, 53537, Control_c, 0, 67, 27
1, 53544, Note_off_c, 0, 74, 63
1, 53551, Control_c, 0, 64, 53
1, 53567, Note_on_c, 0, 76, 62
1, 53592, Note_off_c, 0, 76, 61
1, 53595, Control_c, 0, 64, 52
1, 53610, Control_c, 0, 64, 51
1, 53613, Note_on_c, 0, 74, 57
1, 53625, Control_c, 0, 64, 49
1, 53635, Note_off_c, 0, 64, 42
1, 53639, Note_on_c, 0, 67, 43
1, 53640, Control_c, 0, 64, 47
1, 53640, Control_c, 0, 67, 27
1, 53646, Note_off_c, 0, 74, 67
1, 53655, Control_c, 0, 64, 44
1, 53669, Control_c, 0, 64, 38
1, 53669, Control_c, 0, 67, 26
1, 53675, Note_off_c, 0, 67, 57
1, 53684, Note_on_c, 0, 72, 48
1, 53684, Control_c, 0, 64, 31
1, 53684, Control_c, 0, 67, 25
1, 53699, Control_c, 0, 64, 23
1, 53699, Control_c, 0, 67, 25
1, 53711, Note_on_c, 0, 66, 50
1, 53722, Control_c, 0, 64, 20
1, 53722, Control_c, 0, 67, 24
1, 53751, Control_c, 0, 64, 21
1, 53751, Control_c, 0, 67, 24
1, 53761, Note_off_c, 0, 66, 60
1, 53766, Control_c, 0, 64, 22
1, 53771, Note_off_c, 0, 72, 59
1, 53781, Control_c, 0, 64, 26
1, 53789, Note_on_c, 0, 67, 50
1, 53795, Control_c, 0, 64, 31
1, 53810, Control_c, 0, 64, 36
1, 53810, Control_c, 0, 67, 23
1, 53825, Control_c, 0, 64, 39
1, 53833, Note_off_c, 0, 67, 59
1, 53840, Control_c, 0, 64, 42
1, 53855, Control_c, 0, 64, 44
1, 53855, Control_c, 0, 67, 22
1, 53869, Note_on_c, 0, 64, 52
1, 53869, Control_c, 0, 64, 46
1, 53869, Control_c, 0, 67, 17
1, 53884, Control_c, 0, 64, 48
1, 53884, Control_c, 0, 67, 9
1, 53899, Control_c, 0, 64, 49
1, 53899, Control_c, 0, 67, 0
1, 53914, Control_c, 0, 64, 50
1, 53929, Control_c, 0, 64, 51
1, 53944, Control_c, 0, 64, 52
1, 53947, Note_on_c, 0, 67, 52
1, 53968, Note_off_c, 0, 64, 50
1, 53974, Control_c, 0, 64, 51
1, 53985, Note_on_c, 0, 72, 66
1, 53991, Note_off_c, 0, 67, 61
1, 54018, Note_on_c, 0, 66, 52
1, 54033, Control_c, 0, 64, 52
1, 54048, Control_c, 0, 64, 52
1, 54061, Note_off_c, 0, 66, 61
1, 54063, Control_c, 0, 64, 53
1, 54078, Control_c, 0, 64, 53
1, 54093, Control_c, 0, 64, 54
1, 54098, Note_on_c, 0, 67, 47
1, 54123, Control_c, 0, 64, 55
1, 54128, Note_off_c, 0, 67, 55
1, 54152, Note_on_c, 0, 64, 52
1, 54155, Note_off_c, 0, 72, 57
1, 54155, Note_on_c, 0, 71, 66
1, 54212, Control_c, 0, 64, 54
1, 54222, Note_on_c, 0, 67, 51
1, 54241, Control_c, 0, 64, 54
1, 54256, Control_c, 0, 64, 53
1, 54258, Note_off_c, 0, 64, 36
1, 54271, Control_c, 0, 64, 52
1, 54275, Note_off_c, 0, 67, 58
1, 54300, Control_c, 0, 64, 51
1, 54306, Note_on_c, 0, 66, 49
1, 54313, Note_on_c, 0, 72, 67
1, 54315, Control_c, 0, 64, 52
1, 54315, Control_c, 0, 67, 10
1, 54330, Control_c, 0, 64, 52
1, 54330, Control_c, 0, 67, 12
1, 54343, Note_off_c, 0, 71, 56
1, 54345, Control_c, 0, 67, 13
1, 54355, Note_off_c, 0, 66, 58
1, 54360, Control_c, 0, 67, 14
1, 54374, Control_c, 0, 67, 14
1, 54389, Control_c, 0, 64, 53
1, 54389, Control_c, 0, 67, 15
1, 54399, Note_on_c, 0, 67, 44
1, 54404, Control_c, 0, 64, 55
1, 54404, Control_c, 0, 67, 17
1, 54418, Control_c, 0, 64, 57
1, 54418, Control_c, 0, 67, 20
1, 54432, Note_off_c, 0, 67, 52
1, 54433, Control_c, 0, 64, 58
1, 54433, Control_c, 0, 67, 22
1, 54448, Control_c, 0, 64, 60
1, 54448, Control_c, 0, 67, 24
1, 54452, Note_on_c, 0, 64, 49
1, 54463, Control_c, 0, 64, 62
1, 54463, Control_c, 0, 67, 26
1, 54477, Note_off_c, 0, 72, 60
1, 54480, Note_on_c, 0, 74, 66
1, 54486, Control_c, 0, 64, 63
1, 54486, Control_c, 0, 67, 27
1, 54500, Control_c, 0, 64, 64
1, 54515, Control_c, 0, 64, 64
1, 54532, Note_on_c, 0, 67, 52
1, 54560, Control_c, 0, 67, 27
1, 54578, Note_off_c, 0, 67, 60
1, 54604, Control_c, 0, 64, 64
1, 54616, Note_on_c, 0, 66, 50
1, 54618, Note_off_c, 0, 74, 61
1, 54633, Control_c, 0, 67, 28
1, 54635, Note_off_c, 0, 64, 47
1, 54646, Note_on_c, 0, 72, 59
1, 54648, Control_c, 0, 67, 29
1, 54663, Control_c, 0, 67, 30
1, 54676, Note_off_c, 0, 72, 64
1, 54684, Note_off_c, 0, 66, 51
1, 54688, Note_on_c, 0, 67, 53
1, 54692, Control_c, 0, 64, 63
1, 54707, Control_c, 0, 67, 31
1, 54722, Control_c, 0, 64, 63
1, 54722, Control_c, 0, 67, 32
1, 54734, Note_off_c, 0, 67, 57
1, 54737, Control_c, 0, 64, 62
1, 54737, Control_c, 0, 67, 33
1, 54752, Control_c, 0, 64, 60
1, 54752, Control_c, 0, 67, 34
1, 54763, Note_on_c, 0, 74, 51
1, 54767, Control_c, 0, 64, 52
1, 54767, Control_c, 0, 67, 36
1, 54781, Control_c, 0, 64, 9
1, 54781, Control_c, 0, 67, 37
1, 54783, Note_off_c, 0, 74, 62
1, 54788, Note_on_c, 0, 72, 67
1, 54790, Note_on_c, 0, 62, 47
1, 54797, Control_c, 0, 64, 0
1, 54797, Control_c, 0, 67, 39
1, 54812, Control_c, 0, 67, 41
1, 54827, Control_c, 0, 67, 42
1, 54829, Note_off_c, 0, 72, 61
1, 54853, Note_on_c, 0, 74, 66
1, 54871, Note_off_c, 0, 62, 56
1, 54876, Note_on_c, 0, 65, 46
1, 54881, Note_off_c, 0, 74, 68
1, 54886, Note_on_c, 0, 72, 60
1, 54886, Control_c, 0, 67, 42
1, 54901, Control_c, 0, 64, 38
1, 54916, Control_c, 0, 64, 56
1, 54917, Note_off_c, 0, 65, 48
1, 54918, Note_off_c, 0, 72, 65
1, 54930, Control_c, 0, 64, 60
1, 54945, Note_on_c, 0, 64, 44
1, 54945, Control_c, 0, 64, 60
1, 54945, Control_c, 0, 67, 41
1, 54948, Note_on_c, 0, 70, 56
1, 54960, Control_c, 0, 64, 59
1, 54960, Control_c, 0, 67, 40
1, 54975, Control_c, 0, 64, 58
1, 54978, Note_off_c, 0, 64, 61
1, 54990, Control_c, 0, 64, 57
1, 54995, Note_off_c, 0, 70, 61
1, 55005, Control_c, 0, 64, 55
1, 55014, Note_on_c, 0, 65, 54
1, 55020, Control_c, 0, 64, 51
1, 55035, Control_c, 0, 64, 44
1, 55049, Control_c, 0, 64, 20
1, 55062, Note_off_c, 0, 65, 57
1, 55064, Control_c, 0, 64, 0
1, 55064, Control_c, 0, 67, 41
1, 55079, Control_c, 0, 67, 41
1, 55091, Note_on_c, 0, 62, 50
1, 55094, Control_c, 0, 67, 42
1, 55109, Control_c, 0, 67, 42
1, 55139, Control_c, 0, 67, 43
1, 55169, Note_on_c, 0, 65, 46
1, 55184, Control_c, 0, 67, 43
1, 55198, Control_c, 0, 64, 31
1, 55205, Note_off_c, 0, 65, 59
1, 55213, Control_c, 0, 64, 45
1, 55229, Note_on_c, 0, 70, 71
1, 55234, Note_off_c, 0, 62, 31
1, 55235, Control_c, 0, 64, 50
1, 55237, Note_on_c, 0, 64, 49
1, 55249, Control_c, 0, 64, 51
1, 55253, Note_off_c, 0, 70, 68
1, 55264, Control_c, 0, 64, 52
1, 55264, Control_c, 0, 67, 43
1, 55279, Control_c, 0, 64, 54
1, 55279, Control_c, 0, 67, 42
1, 55284, Note_off_c, 0, 64, 62
1, 55294, Control_c, 0, 64, 55
1, 55294, Control_c, 0, 67, 42
1, 55309, Control_c, 0, 64, 56
1, 55309, Control_c, 0, 67, 41
1, 55312, Note_on_c, 0, 65, 52
1, 55324, Control_c, 0, 64, 59
1, 55339, Control_c, 0, 64, 62
1, 55339, Control_c, 0, 67, 41
1, 55354, Control_c, 0, 64, 63
1, 55363, Note_off_c, 0, 65, 57
1, 55363, Note_on_c, 0, 72, 67
1, 55369, Control_c, 0, 64, 64
1, 55369, Control_c, 0, 67, 40
1, 55383, Control_c, 0, 64, 65
1, 55391, Note_off_c, 0, 72, 66
1, 55398, Control_c, 0, 64, 66
1, 55398, Note_on_c, 0, 60, 50
1, 55404, Note_on_c, 0, 70, 64
1, 55413, Control_c, 0, 64, 68
1, 55428, Control_c, 0, 64, 69
1, 55436, Note_off_c, 0, 70, 63
1, 55443, Control_c, 0, 64, 69
1, 55443, Control_c, 0, 67, 41
1, 55449, Note_on_c, 0, 72, 67
1, 55457, Control_c, 0, 67, 42
1, 55472, Control_c, 0, 64, 69
1, 55472, Control_c, 0, 67, 42
1, 55479, Note_on_c, 0, 70, 59
1, 55479, Note_off_c, 0, 72, 64
1, 55487, Control_c, 0, 64, 67
1, 55487, Control_c, 0, 67, 43
1, 55490, Note_on_c, 0, 64, 49
1, 55494, Note_off_c, 0, 60, 53
1, 55502, Control_c, 0, 64, 65
1, 55502, Control_c, 0, 67, 43
1, 55517, Control_c, 0, 64, 62
1, 55517, Control_c, 0, 67, 44
1, 55522, Note_off_c, 0, 70, 64
1, 55523, Note_off_c, 0, 64, 59
1, 55531, Control_c, 0, 64, 57
1, 55546, Control_c, 0, 64, 52
1, 55546, Control_c, 0, 67, 44
1, 55550, Note_on_c, 0, 69, 58
1, 55557, Note_on_c, 0, 62, 47
1, 55561, Control_c, 0, 64, 49
1, 55561, Control_c, 0, 67, 46
1, 55575, Control_c, 0, 64, 48
1, 55575, Control_c, 0, 67, 47
1, 55592, Control_c, 0, 64, 47
1, 55592, Control_c, 0, 67, 48
1, 55599, Note_off_c, 0, 62, 61
1, 55607, Control_c, 0, 64, 46
1, 55607, Control_c, 0, 67, 48
1, 55612, Note_off_c, 0, 69, 57
1, 55621, Note_on_c, 0, 64, 54
1, 55621, Control_c, 0, 64, 47
1, 55636, Control_c, 0, 64, 49
1, 55651, Control_c, 0, 64, 52
1, 55651, Control_c, 0, 67, 49
1, 55665, Control_c, 0, 64, 55
1, 55665, Control_c, 0, 67, 49
1, 55667, Note_off_c, 0, 64, 57
1, 55680, Control_c, 0, 64, 57
1, 55680, Control_c, 0, 67, 50
1, 55692, Note_on_c, 0, 60, 50
1, 55695, Control_c, 0, 64, 58
1, 55710, Control_c, 0, 64, 59
1, 55725, Control_c, 0, 64, 60
1, 55725, Control_c, 0, 67, 49
1, 55768, Note_off_c, 0, 60, 64
1, 55789, Note_on_c, 0, 64, 46
1, 55813, Control_c, 0, 64, 59
1, 55826, Note_off_c, 0, 64, 56
1, 55828, Control_c, 0, 64, 59
1, 55831, Note_on_c, 0, 69, 61
1, 55843, Control_c, 0, 64, 58
1, 55844, Note_on_c, 0, 62, 49
1, 55858, Control_c, 0, 64, 58
1, 55858, Control_c, 0, 67, 49
1, 55863, Note_off_c, 0, 69, 67
1, 55872, Control_c, 0, 64, 57
1, 55887, Control_c, 0, 64, 56
1, 55890, Note_off_c, 0, 62, 63
1, 55902, Control_c, 0, 64, 55
1, 55917, Control_c, 0, 64, 54
1, 55917, Control_c, 0, 67, 50
1, 55932, Control_c, 0, 67, 50
1, 55939, Note_on_c, 0, 64, 47
1, 55947, Control_c, 0, 64, 55
1, 55962, Control_c, 0, 64, 56
1, 55974, Note_off_c, 0, 64, 58
1, 55984, Control_c, 0, 64, 56
1, 55997, Note_on_c, 0, 70, 59
1, 55998, Control_c, 0, 64, 57
1, 56009, Note_on_c, 0, 58, 48
1, 56013, Control_c, 0, 64, 58
1, 56028, Control_c, 0, 64, 59
1, 56028, Control_c, 0, 67, 51
1, 56033, Note_off_c, 0, 70, 63
1, 56043, Control_c, 0, 64, 61
1, 56048, Note_on_c, 0, 69, 66
1, 56053, Note_off_c, 0, 58, 64
1, 56058, Control_c, 0, 64, 62
1, 56072, Control_c, 0, 64, 62
1, 56099, Note_on_c, 0, 70, 67
1, 56102, Note_on_c, 0, 62, 41
1, 56102, Control_c, 0, 67, 51
1, 56103, Note_off_c, 0, 69, 62
1, 56117, Control_c, 0, 67, 52
1, 56132, Control_c, 0, 64, 62
1, 56132, Control_c, 0, 67, 52
1, 56142, Note_off_c, 0, 62, 55
1, 56147, Control_c, 0, 67, 53
1, 56153, Note_off_c, 0, 70, 62
1, 56156, Note_on_c, 0, 60, 45
1, 56162, Control_c, 0, 64, 61
1, 56162, Control_c, 0, 67, 54
1, 56165, Note_on_c, 0, 67, 58
1, 56176, Control_c, 0, 64, 61
1, 56176, Control_c, 0, 67, 56
1, 56191, Control_c, 0, 64, 60
1, 56191, Control_c, 0, 67, 59
1, 56196, Note_off_c, 0, 60, 63
1, 56206, Control_c, 0, 64, 59
1, 56206, Control_c, 0, 67, 63
1, 56221, Control_c, 0, 64, 59
1, 56221, Control_c, 0, 67, 67
1, 56236, Control_c, 0, 64, 58
1, 56236, Control_c, 0, 67, 70
1, 56242, Note_on_c, 0, 62, 51
1, 56251, Control_c, 0, 67, 72
1, 56266, Control_c, 0, 67, 72
1, 56291, Note_off_c, 0, 62, 60
1, 56295, Control_c, 0, 64, 57
1, 56295, Control_c, 0, 67, 73
1, 56317, Note_on_c, 0, 58, 44
1, 56324, Note_on_c, 0, 70, 65
1, 56324, Note_off_c, 0, 67, 59
1, 56340, Control_c, 0, 64, 57
1, 56340, Control_c, 0, 67, 73
1, 56354, Control_c, 0, 64, 57
1, 56375, Note_off_c, 0, 58, 43
1, 56384, Control_c, 0, 67, 74
1, 56400, Control_c, 0, 64, 57
1, 56410, Note_on_c, 0, 62, 26
1, 56449, Note_off_c, 0, 62, 45
1, 56454, Note_on_c, 0, 60, 48
1, 56474, Control_c, 0, 64, 56
1, 56479, Note_on_c, 0, 67, 57
1, 56485, Note_off_c, 0, 70, 55
1, 56488, Control_c, 0, 64, 55
1, 56501, Note_off_c, 0, 60, 59
1, 56503, Control_c, 0, 64, 54
1, 56518, Control_c, 0, 64, 52
1, 56529, Note_on_c, 0, 62, 45
1, 56533, Control_c, 0, 64, 50
1, 56548, Control_c, 0, 64, 48
1, 56562, Control_c, 0, 64, 47
1, 56577, Control_c, 0, 64, 47
1, 56585, Note_off_c, 0, 67, 59
1, 56592, Note_off_c, 0, 62, 56
1, 56592, Control_c, 0, 64, 46
1, 56607, Control_c, 0, 64, 44
1, 56621, Control_c, 0, 64, 42
1, 56631, Note_on_c, 0, 57, 40
1, 56633, Note_on_c, 0, 64, 54
1, 56636, Control_c, 0, 64, 40
1, 56651, Control_c, 0, 64, 39
1, 56666, Control_c, 0, 64, 37
1, 56681, Control_c, 0, 64, 35
1, 56695, Control_c, 0, 64, 34
1, 56695, Control_c, 0, 67, 74
1, 56718, Control_c, 0, 64, 35
1, 56733, Control_c, 0, 64, 38
1, 56748, Control_c, 0, 64, 43
1, 56751, Note_off_c, 0, 57, 45
1, 56758, Note_on_c, 0, 60, 43
1, 56763, Control_c, 0, 64, 48
1, 56777, Control_c, 0, 64, 53
1, 56777, Control_c, 0, 67, 74
1, 56782, Note_off_c, 0, 64, 61
1, 56792, Control_c, 0, 64, 57
1, 56807, Control_c, 0, 64, 59
1, 56807, Control_c, 0, 67, 73
1, 56811, Note_off_c, 0, 60, 60
1, 56813, Note_on_c, 0, 65, 41
1, 56821, Control_c, 0, 64, 61
1, 56821, Control_c, 0, 67, 72
1, 56836, Control_c, 0, 64, 62
1, 56836, Control_c, 0, 67, 71
1, 56844, Note_on_c, 0, 58, 40
1, 56851, Control_c, 0, 64, 63
1, 56851, Control_c, 0, 67, 70
1, 56866, Control_c, 0, 64, 64
1, 56881, Control_c, 0, 64, 64
1, 56888, Note_off_c, 0, 58, 50
1, 56895, Control_c, 0, 64, 65
1, 56910, Control_c, 0, 64, 66
1, 56922, Note_on_c, 0, 60, 48
1, 56925, Control_c, 0, 64, 66
1, 56931, Note_off_c, 0, 65, 51
1, 56963, Note_off_c, 0, 60, 63
1, 56969, Control_c, 0, 64, 66
1, 56969, Control_c, 0, 67, 71
1, 56984, Control_c, 0, 67, 72
1, 56985, Note_on_c, 0, 57, 48
1, 57014, Control_c, 0, 64, 65
1, 57014, Control_c, 0, 67, 72
1, 57029, Control_c, 0, 64, 65
1, 57029, Control_c, 0, 67, 74
1, 57034, Note_off_c, 0, 57, 59
1, 57044, Control_c, 0, 67, 76
1, 57058, Note_on_c, 0, 60, 54
1, 57059, Control_c, 0, 67, 82
1, 57074, Control_c, 0, 67, 84
1, 57089, Control_c, 0, 64, 64
1, 57117, Note_off_c, 0, 60, 57
1, 57118, Control_c, 0, 64, 64
1, 57151, Note_on_c, 0, 58, 51
1, 57162, Control_c, 0, 67, 84
1, 57193, Control_c, 0, 64, 63
1, 57196, Note_off_c, 0, 58, 60
1, 57208, Control_c, 0, 64, 63
1, 57233, Note_on_c, 0, 60, 42
1, 57282, Control_c, 0, 64, 62
1, 57312, Control_c, 0, 64, 62
1, 57318, Note_on_c, 0, 57, 39
1, 57326, Control_c, 0, 64, 61
1, 57340, Control_c, 0, 64, 58
1, 57355, Control_c, 0, 64, 52
1, 57370, Control_c, 0, 64, 42
1, 57385, Control_c, 0, 64, 27
1, 57396, Note_on_c, 0, 67, 51
1, 57399, Control_c, 0, 64, 18
1, 57414, Control_c, 0, 64, 19
1, 57429, Control_c, 0, 64, 26
1, 57429, Control_c, 0, 67, 84
1, 57443, Control_c, 0, 64, 33
1, 57466, Control_c, 0, 64, 41
1, 57466, Control_c, 0, 67, 83
1, 57481, Control_c, 0, 64, 48
1, 57481, Control_c, 0, 67, 83
1, 57496, Control_c, 0, 64, 55
1, 57510, Note_off_c, 0, 67, 62
1, 57511, Control_c, 0, 64, 59
1, 57511, Control_c, 0, 67, 82
1, 57525, Control_c, 0, 64, 61
1, 57536, Note_on_c, 0, 65, 54
1, 57540, Control_c, 0, 64, 63
1, 57555, Control_c, 0, 64, 65
1, 57570, Control_c, 0, 64, 66
1, 57577, Note_off_c, 0, 65, 63
1, 57585, Control_c, 0, 64, 66
1, 57600, Note_on_c, 0, 67, 55
1, 57614, Control_c, 0, 64, 67
1, 57629, Control_c, 0, 64, 67
1, 57643, Note_off_c, 0, 67, 62
1, 57643, Control_c, 0, 64, 68
1, 57661, Note_on_c, 0, 65, 60
1, 57688, Control_c, 0, 64, 67
1, 57699, Note_off_c, 0, 65, 62
1, 57714, Note_on_c, 0, 67, 56
1, 57747, Control_c, 0, 64, 67
1, 57756, Note_off_c, 0, 67, 60
1, 57762, Note_on_c, 0, 65, 54
1, 57792, Control_c, 0, 64, 66
1, 57819, Note_on_c, 0, 67, 60
1, 57837, Control_c, 0, 64, 66
1, 57851, Note_off_c, 0, 60, 45
1, 57852, Note_off_c, 0, 65, 59
1, 57866, Control_c, 0, 64, 65
1, 57866, Control_c, 0, 67, 82
1, 57896, Control_c, 0, 64, 65
1, 57898, Note_on_c, 0, 69, 67
1, 57904, Note_off_c, 0, 67, 58
1, 57955, Control_c, 0, 64, 64
1, 57955, Control_c, 0, 67, 81
1, 57984, Control_c, 0, 64, 64
1, 58001, Control_c, 0, 64, 63
1, 58001, Note_on_c, 0, 65, 58
1, 58010, Note_off_c, 0, 57, 47
1, 58012, Note_off_c, 0, 69, 56
1, 58015, Control_c, 0, 64, 61
1, 58030, Control_c, 0, 64, 58
1, 58030, Control_c, 0, 67, 82
1, 58044, Note_on_c, 0, 60, 25
1, 58045, Control_c, 0, 64, 50
1, 58046, Note_on_c, 0, 58, 32
1, 58060, Control_c, 0, 64, 39
1, 58074, Control_c, 0, 64, 23
1, 58090, Control_c, 0, 64, 0
1, 58128, Note_off_c, 0, 65, 59
1, 58130, Note_on_c, 0, 64, 67
1, 58149, Control_c, 0, 67, 82
1, 58164, Control_c, 0, 64, 10
1, 58164, Control_c, 0, 67, 83
1, 58179, Control_c, 0, 64, 17
1, 58179, Control_c, 0, 67, 83
1, 58193, Control_c, 0, 64, 21
1, 58208, Control_c, 0, 64, 24
1, 58208, Control_c, 0, 67, 84
1, 58230, Control_c, 0, 64, 26
1, 58242, Note_on_c, 0, 67, 68
1, 58245, Control_c, 0, 64, 29
1, 58260, Note_off_c, 0, 64, 64
1, 58260, Control_c, 0, 64, 30
1, 58275, Control_c, 0, 64, 32
1, 58290, Control_c, 0, 64, 34
1, 58305, Control_c, 0, 64, 35
1, 58320, Control_c, 0, 64, 35
1, 58334, Note_on_c, 0, 65, 71
1, 58366, Note_off_c, 0, 67, 59
1, 58379, Control_c, 0, 64, 36
1, 58393, Control_c, 0, 64, 37
1, 58418, Note_off_c, 0, 65, 61
1, 58423, Control_c, 0, 64, 37
1, 58436, Note_on_c, 0, 64, 63
1, 58467, Control_c, 0, 67, 83
1, 58492, Note_off_c, 0, 60, 43
1, 58512, Control_c, 0, 67, 83
1, 58519, Note_off_c, 0, 64, 61
1, 58532, Note_on_c, 0, 70, 66
1, 58571, Control_c, 0, 67, 82
1, 58627, Note_on_c, 0, 60, 31
1, 58630, Note_on_c, 0, 67, 60
1, 58648, Note_on_c, 0, 57, 39
1, 58648, Note_off_c, 0, 70, 53
1, 58657, Note_off_c, 0, 58, 39
1, 58723, Note_off_c, 0, 67, 59
1, 58734, Control_c, 0, 67, 82
1, 58742, Note_on_c, 0, 65, 55
1, 58764, Control_c, 0, 64, 37
1, 58779, Control_c, 0, 64, 36
1, 58794, Control_c, 0, 64, 36
1, 58809, Control_c, 0, 64, 35
1, 58809, Control_c, 0, 67, 81
1, 58827, Note_off_c, 0, 65, 58
1, 58834, Note_on_c, 0, 69, 57
1, 58838, Control_c, 0, 64, 34
1, 58868, Control_c, 0, 67, 81
1, 58883, Control_c, 0, 64, 34
1, 58898, Control_c, 0, 64, 33
1, 58913, Control_c, 0, 67, 80
1, 58928, Control_c, 0, 64, 32
1, 58931, Note_off_c, 0, 69, 58
1, 58941, Note_on_c, 0, 67, 52
1, 58979, Control_c, 0, 64, 32
1, 58994, Control_c, 0, 64, 31
1, 58994, Control_c, 0, 67, 80
1, 59009, Control_c, 0, 64, 29
1, 59023, Control_c, 0, 64, 28
1, 59031, Note_off_c, 0, 67, 59
1, 59038, Control_c, 0, 64, 27
1, 59053, Control_c, 0, 64, 26
1, 59053, Control_c, 0, 67, 79
1, 59056, Note_on_c, 0, 65, 51
1, 59068, Control_c, 0, 64, 26
1, 59083, Control_c, 0, 64, 25
1, 59083, Control_c, 0, 67, 79
1, 59098, Control_c, 0, 64, 24
1, 59113, Control_c, 0, 64, 23
1, 59113, Control_c, 0, 67, 78
1, 59154, Note_off_c, 0, 65, 53
1, 59167, Note_on_c, 0, 72, 41
1, 59187, Control_c, 0, 67, 78
1, 59216, Control_c, 0, 64, 24
1, 59216, Control_c, 0, 67, 77
1, 59231, Control_c, 0, 64, 26
1, 59246, Control_c, 0, 64, 29
1, 59251, Note_off_c, 0, 72, 50
1, 59261, Control_c, 0, 64, 33
1, 59261, Control_c, 0, 67, 77
1, 59270, Note_on_c, 0, 69, 40
1, 59276, Control_c, 0, 64, 37
1, 59290, Control_c, 0, 64, 43
1, 59290, Control_c, 0, 67, 76
1, 59305, Control_c, 0, 64, 49
1, 59305, Control_c, 0, 67, 75
1, 59320, Control_c, 0, 64, 55
1, 59335, Control_c, 0, 64, 60
1, 59335, Control_c, 0, 67, 75
1, 59350, Control_c, 0, 64, 63
1, 59364, Control_c, 0, 64, 64
1, 59379, Control_c, 0, 64, 66
1, 59379, Control_c, 0, 67, 74
1, 59394, Control_c, 0, 64, 68
1, 59408, Control_c, 0, 64, 71
1, 59408, Control_c, 0, 67, 74
1, 59409, Note_off_c, 0, 69, 58
1, 59423, Control_c, 0, 64, 72
1, 59423, Control_c, 0, 67, 73
1, 59438, Control_c, 0, 64, 73
1, 59438, Control_c, 0, 67, 72
1, 59453, Control_c, 0, 67, 67
1, 59468, Control_c, 0, 64, 74
1, 59468, Control_c, 0, 67, 60
1, 59482, Control_c, 0, 64, 74
1, 59482, Control_c, 0, 67, 50
1, 59497, Control_c, 0, 64, 75
1, 59497, Control_c, 0, 67, 39
1, 59508, Note_off_c, 0, 57, 47
1, 59512, Note_off_c, 0, 60, 50
1, 59512, Control_c, 0, 64, 75
1, 59512, Control_c, 0, 67, 26
1, 59527, Control_c, 0, 67, 15
1, 59542, Control_c, 0, 67, 0
1, 59557, Control_c, 0, 64, 75
1, 59572, Control_c, 0, 64, 74
1, 59587, Control_c, 0, 64, 73
1, 59602, Control_c, 0, 64, 72
1, 59617, Control_c, 0, 64, 69
1, 59632, Control_c, 0, 64, 67
1, 59646, Control_c, 0, 64, 64
1, 59661, Control_c, 0, 64, 59
1, 59676, Control_c, 0, 64, 45
1, 59691, Control_c, 0, 64, 0
1, 59817, Control_c, 0, 64, 28
1, 59832, Control_c, 0, 64, 40
1, 59846, Control_c, 0, 64, 49
1, 59849, Note_on_c, 0, 46, 57
1, 59861, Control_c, 0, 64, 56
1, 59876, Control_c, 0, 64, 58
1, 59891, Control_c, 0, 64, 60
1, 59906, Control_c, 0, 64, 62
1, 59920, Control_c, 0, 64, 65
1, 59925, Note_on_c, 0, 50, 62
1, 59926, Note_on_c, 0, 67, 77
1, 59935, Control_c, 0, 64, 71
1, 59940, Note_on_c, 0, 55, 67
1, 59950, Control_c, 0, 64, 79
1, 59965, Control_c, 0, 64, 90
1, 59980, Control_c, 0, 64, 93
1, 60025, Control_c, 0, 64, 94
1, 60040, Note_on_c, 0, 70, 81
1, 60049, Note_off_c, 0, 67, 59
1, 60128, Control_c, 0, 64, 93
1, 60135, Note_off_c, 0, 70, 65
1, 60143, Control_c, 0, 64, 93
1, 60144, Note_on_c, 0, 74, 82
1, 60158, Control_c, 0, 64, 92
1, 60167, Note_off_c, 0, 74, 68
1, 60172, Control_c, 0, 64, 92
1, 60202, Control_c, 0, 64, 91
1, 60247, Note_on_c, 0, 79, 91
1, 60261, Control_c, 0, 64, 91
1, 60306, Control_c, 0, 64, 90
1, 60335, Control_c, 0, 64, 90
1, 60346, Note_on_c, 0, 82, 82
1, 60363, Note_off_c, 0, 79, 60
1, 60365, Control_c, 0, 64, 89
1, 60374, Note_off_c, 0, 46, 43
1, 60384, Note_off_c, 0, 50, 37
1, 60415, Note_off_c, 0, 55, 56
1, 60425, Control_c, 0, 64, 89
1, 60445, Note_on_c, 0, 86, 84
1, 60453, Note_off_c, 0, 82, 63
1, 60455, Control_c, 0, 64, 88
1, 60477, Control_c, 0, 64, 86
1, 60492, Control_c, 0, 64, 85
1, 60495, Note_off_c, 0, 86, 62
1, 60507, Control_c, 0, 64, 83
1, 60522, Control_c, 0, 64, 81
1, 60536, Control_c, 0, 64, 78
1, 60549, Note_on_c, 0, 57, 67
1, 60551, Control_c, 0, 64, 74
1, 60555, Note_on_c, 0, 48, 58
1, 60558, Note_on_c, 0, 86, 78
1, 60566, Control_c, 0, 64, 69
1, 60581, Control_c, 0, 64, 63
1, 60595, Control_c, 0, 64, 56
1, 60610, Control_c, 0, 64, 47
1, 60625, Control_c, 0, 64, 45
1, 60640, Control_c, 0, 64, 48
1, 60645, Note_on_c, 0, 84, 75
1, 60655, Control_c, 0, 64, 53
1, 60666, Note_off_c, 0, 86, 60
1, 60669, Control_c, 0, 64, 57
1, 60684, Control_c, 0, 64, 60
1, 60699, Control_c, 0, 64, 63
1, 60707, Note_off_c, 0, 57, 61
1, 60712, Note_on_c, 0, 82, 82
1, 60714, Control_c, 0, 64, 65
1, 60729, Control_c, 0, 64, 66
1, 60743, Control_c, 0, 64, 67
1, 60744, Note_off_c, 0, 84, 63
1, 60773, Control_c, 0, 64, 67
1, 60775, Note_off_c, 0, 82, 66
1, 60779, Note_on_c, 0, 81, 75
1, 60788, Control_c, 0, 64, 65
1, 60799, Note_off_c, 0, 81, 71
1, 60803, Control_c, 0, 64, 63
1, 60818, Control_c, 0, 64, 60
1, 60833, Control_c, 0, 64, 55
1, 60846, Note_on_c, 0, 58, 69
1, 60848, Control_c, 0, 64, 48
1, 60862, Control_c, 0, 64, 42
1, 60863, Note_on_c, 0, 81, 77
1, 60877, Control_c, 0, 64, 41
1, 60892, Control_c, 0, 64, 42
1, 60907, Control_c, 0, 64, 43
1, 60922, Control_c, 0, 64, 45
1, 60936, Control_c, 0, 64, 51
1, 60946, Note_on_c, 0, 79, 72
1, 60951, Control_c, 0, 64, 57
1, 60966, Control_c, 0, 64, 60
1, 60967, Note_off_c, 0, 81, 60
1, 60972, Note_off_c, 0, 48, 62
1, 60981, Control_c, 0, 64, 63
1, 60995, Control_c, 0, 64, 65
1, 61010, Control_c, 0, 64, 67
1, 61016, Note_off_c, 0, 79, 62
1, 61020, Note_on_c, 0, 77, 68
1, 61025, Control_c, 0, 64, 68
1, 61065, Note_off_c, 0, 77, 65
1, 61069, Control_c, 0, 64, 67
1, 61087, Note_on_c, 0, 76, 71
1, 61120, Note_off_c, 0, 58, 61
1, 61143, Control_c, 0, 64, 67
1, 61157, Note_off_c, 0, 76, 55
1, 61158, Control_c, 0, 64, 66
1, 61172, Control_c, 0, 64, 65
1, 61182, Note_on_c, 0, 77, 66
1, 61188, Control_c, 0, 64, 63
1, 61210, Control_c, 0, 64, 59
1, 61225, Control_c, 0, 64, 52
1, 61226, Note_on_c, 0, 53, 52
1, 61240, Control_c, 0, 64, 42
1, 61255, Control_c, 0, 64, 31
1, 61270, Control_c, 0, 64, 21
1, 61284, Control_c, 0, 64, 19
1, 61299, Control_c, 0, 64, 23
1, 61314, Control_c, 0, 64, 30
1, 61329, Control_c, 0, 64, 39
1, 61340, Note_on_c, 0, 55, 67
1, 61344, Control_c, 0, 64, 45
1, 61345, Note_off_c, 0, 53, 61
1, 61358, Control_c, 0, 64, 49
1, 61373, Control_c, 0, 64, 52
1, 61388, Control_c, 0, 64, 56
1, 61403, Control_c, 0, 64, 60
1, 61417, Control_c, 0, 64, 64
1, 61417, Control_c, 0, 67, 9
1, 61432, Control_c, 0, 64, 66
1, 61432, Control_c, 0, 67, 10
1, 61444, Note_on_c, 0, 57, 75
1, 61447, Control_c, 0, 64, 67
1, 61462, Control_c, 0, 64, 67
1, 61462, Control_c, 0, 67, 11
1, 61468, Note_off_c, 0, 55, 57
1, 61477, Control_c, 0, 67, 12
1, 61491, Control_c, 0, 67, 17
1, 61506, Control_c, 0, 64, 67
1, 61506, Control_c, 0, 67, 24
1, 61521, Control_c, 0, 67, 30
1, 61536, Control_c, 0, 67, 34
1, 61549, Note_on_c, 0, 58, 79
1, 61551, Control_c, 0, 64, 66
1, 61551, Control_c, 0, 67, 37
1, 61562, Note_off_c, 0, 77, 54
1, 61566, Note_off_c, 0, 57, 63
1, 61566, Control_c, 0, 64, 65
1, 61566, Control_c, 0, 67, 40
1, 61581, Control_c, 0, 64, 65
1, 61581, Control_c, 0, 67, 44
1, 61596, Control_c, 0, 64, 64
1, 61596, Control_c, 0, 67, 47
1, 61610, Control_c, 0, 67, 50
1, 61625, Control_c, 0, 67, 52
1, 61640, Control_c, 0, 64, 64
1, 61640, Control_c, 0, 67, 54
1, 61655, Note_off_c, 0, 58, 64
1, 61655, Control_c, 0, 64, 63
1, 61655, Control_c, 0, 67, 56
1, 61666, Note_on_c, 0, 60, 68
1, 61670, Control_c, 0, 67, 60
1, 61684, Control_c, 0, 67, 65
1, 61699, Control_c, 0, 67, 71
1, 61714, Control_c, 0, 64, 63
1, 61714, Control_c, 0, 67, 73
1, 61729, Control_c, 0, 64, 62
1, 61729, Control_c, 0, 67, 75
1, 61743, Control_c, 0, 64, 62
1, 61743, Control_c, 0, 67, 76
1, 61758, Control_c, 0, 64, 61
1, 61758, Control_c, 0, 67, 77
1, 61763, Note_on_c, 0, 62, 72
1, 61773, Control_c, 0, 67, 77
1, 61778, Note_off_c, 0, 60, 62
1, 61788, Control_c, 0, 64, 60
1, 61788, Control_c, 0, 67, 78
1, 61803, Control_c, 0, 64, 59
1, 61817, Control_c, 0, 64, 58
1, 61817, Control_c, 0, 67, 79
1, 61833, Control_c, 0, 64, 57
1, 61848, Control_c, 0, 64, 56
1, 61863, Control_c, 0, 64, 56
1, 61874, Note_on_c, 0, 63, 74
1, 61878, Control_c, 0, 64, 55
1, 61888, Note_off_c, 0, 62, 51
1, 61892, Control_c, 0, 64, 55
1, 61907, Control_c, 0, 64, 54
1, 61936, Control_c, 0, 64, 54
1, 61951, Control_c, 0, 64, 51
1, 61974, Control_c, 0, 64, 46
1, 61984, Note_off_c, 0, 63, 62
1, 61989, Control_c, 0, 64, 36
1, 61994, Note_on_c, 0, 62, 73
1, 62004, Control_c, 0, 64, 0
1, 62034, Control_c, 0, 67, 78
1, 62099, Note_on_c, 0, 60, 72
1, 62102, Note_off_c, 0, 62, 60
1, 62108, Control_c, 0, 67, 77
1, 62138, Control_c, 0, 64, 24
1, 62153, Control_c, 0, 64, 38
1, 62168, Control_c, 0, 64, 42
1, 62168, Control_c, 0, 67, 77
1, 62182, Control_c, 0, 64, 42
1, 62197, Control_c, 0, 64, 38
1, 62204, Note_off_c, 0, 60, 63
1, 62205, Note_on_c, 0, 58, 70
1, 62212, Control_c, 0, 64, 30
1, 62227, Control_c, 0, 64, 17
1, 62241, Control_c, 0, 64, 0
1, 62286, Control_c, 0, 67, 76
1, 62303, Note_off_c, 0, 58, 62
1, 62324, Note_on_c, 0, 57, 67
1, 62330, Control_c, 0, 67, 76
1, 62359, Control_c, 0, 67, 75
1, 62402, Note_off_c, 0, 57, 59
1, 62404, Control_c, 0, 67, 75
1, 62419, Control_c, 0, 67, 74
1, 62420, Note_on_c, 0, 55, 59
1, 62433, Control_c, 0, 67, 74
1, 62448, Control_c, 0, 67, 73
1, 62463, Control_c, 0, 64, 17
1, 62463, Control_c, 0, 67, 72
1, 62478, Control_c, 0, 64, 27
1, 62478, Control_c, 0, 67, 71
1, 62493, Control_c, 0, 64, 36
1, 62493, Control_c, 0, 67, 68
1, 62508, Control_c, 0, 64, 42
1, 62508, Control_c, 0, 67, 61
1, 62517, Note_off_c, 0, 55, 60
1, 62523, Control_c, 0, 64, 47
1, 62523, Control_c, 0, 67, 46
1, 62537, Note_on_c, 0, 54, 58
1, 62538, Control_c, 0, 64, 50
1, 62538, Control_c, 0, 67, 28
1, 62553, Control_c, 0, 64, 53
1, 62553, Control_c, 0, 67, 14
1, 62567, Control_c, 0, 64, 54
1, 62567, Control_c, 0, 67, 0
1, 62582, Control_c, 0, 64, 56
1, 62597, Control_c, 0, 64, 56
1, 62641, Note_on_c, 0, 81, 52
1, 62656, Control_c, 0, 64, 57
1, 62671, Control_c, 0, 64, 59
1, 62686, Control_c, 0, 64, 60
1, 62701, Control_c, 0, 64, 61
1, 62723, Control_c, 0, 64, 61
1, 62737, Control_c, 0, 64, 62
1, 62752, Control_c, 0, 64, 62
1, 62761, Note_on_c, 0, 82, 69
1, 62761, Note_off_c, 0, 81, 63
1, 62767, Control_c, 0, 64, 63
1, 62842, Control_c, 0, 64, 64
1, 62857, Control_c, 0, 64, 64
1, 62867, Note_on_c, 0, 84, 71
1, 62870, Note_off_c, 0, 82, 62
1, 62872, Control_c, 0, 64, 65
1, 62886, Control_c, 0, 64, 65
1, 62901, Control_c, 0, 64, 66
1, 62916, Control_c, 0, 64, 67
1, 62931, Control_c, 0, 64, 67
1, 62946, Control_c, 0, 64, 68
1, 62950, Note_off_c, 0, 54, 51
1, 62961, Control_c, 0, 64, 69
1, 62976, Control_c, 0, 64, 71
1, 62976, Note_on_c, 0, 78, 83
1, 62982, Note_off_c, 0, 84, 60
1, 62990, Control_c, 0, 64, 73
1, 63005, Control_c, 0, 64, 75
1, 63063, Note_on_c, 0, 79, 76
1, 63064, Control_c, 0, 64, 74
1, 63109, Control_c, 0, 64, 74
1, 63138, Control_c, 0, 64, 73
1, 63153, Control_c, 0, 64, 73
1, 63167, Note_on_c, 0, 81, 78
1, 63168, Control_c, 0, 64, 72
1, 63180, Note_off_c, 0, 78, 23
1, 63182, Control_c, 0, 64, 71
1, 63185, Note_off_c, 0, 79, 58
1, 63197, Control_c, 0, 64, 69
1, 63212, Control_c, 0, 64, 67
1, 63227, Control_c, 0, 64, 65
1, 63231, Note_off_c, 0, 81, 64
1, 63242, Control_c, 0, 64, 63
1, 63256, Control_c, 0, 64, 61
1, 63270, Note_on_c, 0, 72, 77
1, 63271, Control_c, 0, 64, 58
1, 63286, Control_c, 0, 64, 55
1, 63301, Control_c, 0, 64, 52
1, 63316, Control_c, 0, 64, 49
1, 63331, Control_c, 0, 64, 49
1, 63373, Note_on_c, 0, 74, 73
1, 63387, Note_off_c, 0, 72, 56
1, 63405, Control_c, 0, 64, 49
1, 63420, Control_c, 0, 64, 50
1, 63435, Control_c, 0, 64, 51
1, 63450, Control_c, 0, 64, 52
1, 63471, Control_c, 0, 64, 54
1, 63481, Note_off_c, 0, 74, 62
1, 63482, Note_on_c, 0, 75, 76
1, 63486, Control_c, 0, 64, 56
1, 63486, Control_c, 0, 67, 8
1, 63501, Control_c, 0, 64, 58
1, 63501, Control_c, 0, 67, 9
1, 63515, Control_c, 0, 64, 60
1, 63515, Control_c, 0, 67, 11
1, 63530, Control_c, 0, 64, 60
1, 63530, Control_c, 0, 67, 14
1, 63545, Control_c, 0, 64, 61
1, 63545, Control_c, 0, 67, 17
1, 63558, Note_off_c, 0, 75, 60
1, 63560, Control_c, 0, 64, 61
1, 63560, Control_c, 0, 67, 21
1, 63575, Control_c, 0, 64, 62
1, 63575, Control_c, 0, 67, 24
1, 63587, Note_on_c, 0, 69, 70
1, 63591, Control_c, 0, 67, 26
1, 63606, Control_c, 0, 67, 30
1, 63620, Control_c, 0, 67, 33
1, 63635, Control_c, 0, 67, 36
1, 63650, Control_c, 0, 64, 61
1, 63650, Control_c, 0, 67, 40
1, 63665, Control_c, 0, 67, 43
1, 63680, Control_c, 0, 67, 46
1, 63682, Note_off_c, 0, 69, 62
1, 63683, Note_on_c, 0, 72, 63
1, 63694, Control_c, 0, 64, 61
1, 63694, Control_c, 0, 67, 48
1, 63709, Control_c, 0, 64, 60
1, 63709, Control_c, 0, 67, 49
1, 63724, Control_c, 0, 64, 59
1, 63739, Control_c, 0, 64, 57
1, 63754, Control_c, 0, 64, 54
1, 63754, Control_c, 0, 67, 49
1, 63769, Control_c, 0, 64, 51
1, 63781, Note_off_c, 0, 72, 61
1, 63784, Control_c, 0, 64, 48
1, 63784, Control_c, 0, 67, 50
1, 63793, Note_on_c, 0, 70, 66
1, 63796, Note_on_c, 0, 55, 56
1, 63799, Control_c, 0, 64, 46
1, 63813, Control_c, 0, 64, 46
1, 63828, Control_c, 0, 64, 46
1, 63843, Control_c, 0, 64, 48
1, 63858, Control_c, 0, 64, 51
1, 63873, Control_c, 0, 64, 53
1, 63887, Control_c, 0, 64, 55
1, 63901, Note_on_c, 0, 58, 70
1, 63902, Control_c, 0, 64, 56
1, 63909, Note_off_c, 0, 55, 60
1, 63917, Control_c, 0, 64, 59
1, 63932, Control_c, 0, 64, 61
1, 63947, Control_c, 0, 64, 63
1, 63947, Control_c, 0, 67, 49
1, 63961, Control_c, 0, 64, 64
1, 63961, Control_c, 0, 67, 49
1, 63976, Control_c, 0, 64, 65
1, 63976, Control_c, 0, 67, 48
1, 63991, Control_c, 0, 64, 66
1, 63991, Control_c, 0, 67, 48
1, 63999, Note_on_c, 0, 60, 72
1, 64005, Control_c, 0, 64, 69
1, 64016, Note_off_c, 0, 58, 60
1, 64020, Control_c, 0, 64, 72
1, 64020, Control_c, 0, 67, 47
1, 64035, Control_c, 0, 64, 73
1, 64035, Control_c, 0, 67, 46
1, 64079, Control_c, 0, 64, 73
1, 64098, Note_on_c, 0, 62, 67
1, 64099, Note_off_c, 0, 60, 62
1, 64109, Control_c, 0, 64, 72
1, 64109, Control_c, 0, 67, 46
1, 64124, Control_c, 0, 64, 71
1, 64138, Control_c, 0, 64, 71
1, 64147, Note_off_c, 0, 70, 23
1, 64153, Control_c, 0, 64, 70
1, 64180, Note_off_c, 0, 62, 60
1, 64205, Control_c, 0, 64, 70
1, 64216, Note_on_c, 0, 65, 76
1, 64220, Control_c, 0, 64, 69
1, 64235, Control_c, 0, 64, 68
1, 64250, Control_c, 0, 64, 67
1, 64265, Control_c, 0, 64, 66
1, 64280, Control_c, 0, 64, 65
1, 64294, Control_c, 0, 64, 64
1, 64309, Note_on_c, 0, 67, 75
1, 64309, Control_c, 0, 64, 64
1, 64338, Note_off_c, 0, 65, 60
1, 64353, Control_c, 0, 64, 63
1, 64368, Control_c, 0, 64, 63
1, 64384, Control_c, 0, 64, 62
1, 64399, Control_c, 0, 64, 61
1, 64414, Control_c, 0, 64, 60
1, 64419, Note_on_c, 0, 68, 74
1, 64425, Note_off_c, 0, 67, 58
1, 64429, Control_c, 0, 64, 58
1, 64443, Control_c, 0, 64, 56
1, 64443, Control_c, 0, 67, 45
1, 64458, Control_c, 0, 64, 55
1, 64473, Control_c, 0, 64, 53
1, 64488, Control_c, 0, 64, 52
1, 64488, Control_c, 0, 67, 45
1, 64503, Control_c, 0, 64, 51
1, 64517, Control_c, 0, 64, 50
1, 64524, Note_on_c, 0, 67, 78
1, 64532, Control_c, 0, 64, 48
1, 64545, Note_off_c, 0, 68, 63
1, 64547, Control_c, 0, 64, 47
1, 64562, Control_c, 0, 64, 46
1, 64577, Control_c, 0, 64, 46
1, 64592, Control_c, 0, 64, 45
1, 64595, Note_off_c, 0, 67, 62
1, 64606, Control_c, 0, 64, 45
1, 64626, Note_on_c, 0, 65, 70
1, 64636, Control_c, 0, 64, 44
1, 64696, Control_c, 0, 67, 44
1, 64726, Note_on_c, 0, 63, 65
1, 64727, Note_off_c, 0, 65, 61
1, 64784, Control_c, 0, 64, 45
1, 64814, Control_c, 0, 64, 45
1, 64830, Note_off_c, 0, 63, 62
1, 64842, Control_c, 0, 67, 44
1, 64852, Note_on_c, 0, 62, 58
1, 64887, Control_c, 0, 64, 46
1, 64931, Control_c, 0, 67, 43
1, 64944, Note_on_c, 0, 60, 62
1, 64944, Note_off_c, 0, 62, 58
1, 64983, Control_c, 0, 64, 46
1, 64983, Control_c, 0, 67, 43
1, 64998, Control_c, 0, 67, 42
1, 65013, Control_c, 0, 64, 47
1, 65027, Control_c, 0, 67, 42
1, 65039, Note_off_c, 0, 60, 61
1, 65042, Control_c, 0, 64, 47
1, 65042, Control_c, 0, 67, 41
1, 65066, Note_on_c, 0, 59, 56
1, 65072, Control_c, 0, 64, 48
1, 65072, Control_c, 0, 67, 41
1, 65087, Control_c, 0, 64, 49
1, 65087, Control_c, 0, 67, 40
1, 65101, Control_c, 0, 64, 50
1, 65101, Control_c, 0, 67, 40
1, 65116, Control_c, 0, 64, 51
1, 65116, Control_c, 0, 67, 39
1, 65131, Control_c, 0, 64, 51
1, 65131, Control_c, 0, 67, 39
1, 65146, Control_c, 0, 64, 52
1, 65146, Control_c, 0, 67, 38
1, 65161, Control_c, 0, 64, 52
1, 65161, Control_c, 0, 67, 36
1, 65176, Control_c, 0, 64, 53
1, 65176, Control_c, 0, 67, 34
1, 65180, Note_on_c, 0, 74, 56
1, 65191, Control_c, 0, 64, 55
1, 65191, Control_c, 0, 67, 30
1, 65206, Control_c, 0, 64, 56
1, 65206, Control_c, 0, 67, 28
1, 65221, Control_c, 0, 64, 56
1, 65221, Control_c, 0, 67, 25
1, 65236, Control_c, 0, 67, 22
1, 65251, Control_c, 0, 64, 57
1, 65251, Control_c, 0, 67, 18
1, 65265, Control_c, 0, 67, 14
1, 65280, Control_c, 0, 64, 57
1, 65280, Control_c, 0, 67, 10
1, 65284, Note_on_c, 0, 75, 62
1, 65286, Note_off_c, 0, 74, 57
1, 65295, Control_c, 0, 64, 58
1, 65295, Control_c, 0, 67, 0
1, 65310, Control_c, 0, 64, 58
1, 65370, Control_c, 0, 64, 59
1, 65384, Control_c, 0, 64, 59
1, 65390, Note_on_c, 0, 77, 67
1, 65394, Note_off_c, 0, 75, 61
1, 65473, Control_c, 0, 64, 60
1, 65501, Note_on_c, 0, 71, 79
1, 65503, Control_c, 0, 64, 61
1, 65513, Note_off_c, 0, 77, 54
1, 65518, Control_c, 0, 64, 61
1, 65532, Control_c, 0, 64, 62
1, 65547, Control_c, 0, 64, 63
1, 65562, Control_c, 0, 64, 63
1, 65593, Note_off_c, 0, 59, 55
1, 65598, Note_on_c, 0, 72, 78
1, 65606, Control_c, 0, 64, 63
1, 65617, Note_off_c, 0, 71, 62
1, 65621, Control_c, 0, 64, 62
1, 65636, Control_c, 0, 64, 61
1, 65650, Control_c, 0, 64, 60
1, 65665, Control_c, 0, 64, 59
1, 65680, Control_c, 0, 64, 59
1, 65695, Control_c, 0, 64, 58
1, 65710, Note_on_c, 0, 74, 79
1, 65720, Note_off_c, 0, 72, 60
1, 65747, Control_c, 0, 64, 59
1, 65762, Control_c, 0, 64, 61
1, 65777, Control_c, 0, 64, 61
1, 65781, Note_off_c, 0, 74, 62
1, 65791, Control_c, 0, 64, 62
1, 65809, Note_on_c, 0, 65, 73
1, 65821, Control_c, 0, 64, 62
1, 65905, Note_on_c, 0, 67, 75
1, 65916, Note_off_c, 0, 65, 56
1, 65939, Control_c, 0, 64, 63
1, 66004, Note_off_c, 0, 67, 61
1, 66004, Note_on_c, 0, 68, 77
1, 66059, Control_c, 0, 64, 62
1, 66088, Note_off_c, 0, 68, 63
1, 66100, Note_on_c, 0, 62, 70
1, 66103, Control_c, 0, 64, 62
1, 66192, Control_c, 0, 64, 61
1, 66201, Note_on_c, 0, 65, 73
1, 66206, Note_off_c, 0, 62, 60
1, 66222, Control_c, 0, 64, 61
1, 66237, Control_c, 0, 64, 60
1, 66252, Control_c, 0, 64, 60
1, 66267, Control_c, 0, 64, 58
1, 66281, Control_c, 0, 64, 56
1, 66296, Control_c, 0, 64, 54
1, 66297, Note_off_c, 0, 65, 58
1, 66310, Note_on_c, 0, 48, 52
1, 66310, Note_on_c, 0, 64, 65
1, 66311, Control_c, 0, 64, 51
1, 66326, Control_c, 0, 64, 48
1, 66341, Control_c, 0, 64, 45
1, 66355, Control_c, 0, 64, 45
1, 66415, Note_on_c, 0, 50, 71
1, 66429, Control_c, 0, 64, 47
1, 66435, Note_off_c, 0, 48, 59
1, 66444, Control_c, 0, 64, 51
1, 66467, Control_c, 0, 64, 53
1, 66481, Control_c, 0, 64, 55
1, 66496, Control_c, 0, 64, 56
1, 66511, Control_c, 0, 64, 58
1, 66526, Control_c, 0, 64, 60
1, 66531, Note_on_c, 0, 52, 70
1, 66540, Control_c, 0, 64, 60
1, 66555, Control_c, 0, 64, 61
1, 66560, Note_off_c, 0, 50, 66
1, 66623, Note_on_c, 0, 53, 74
1, 66638, Note_off_c, 0, 52, 63
1, 66656, Note_off_c, 0, 64, 57
1, 66674, Control_c, 0, 64, 60
1, 66688, Control_c, 0, 64, 60
1, 66703, Control_c, 0, 64, 59
1, 66711, Note_off_c, 0, 53, 62
1, 66718, Control_c, 0, 64, 59
1, 66729, Note_on_c, 0, 55, 73
1, 66732, Control_c, 0, 64, 58
1, 66747, Control_c, 0, 64, 58
1, 66793, Control_c, 0, 64, 57
1, 66808, Control_c, 0, 64, 57
1, 66826, Note_on_c, 0, 57, 78
1, 66833, Note_off_c, 0, 55, 57
1, 66837, Control_c, 0, 64, 56
1, 66852, Control_c, 0, 64, 56
1, 66882, Control_c, 0, 64, 55
1, 66923, Note_on_c, 0, 58, 73
1, 66935, Note_off_c, 0, 57, 56
1, 66941, Control_c, 0, 64, 55
1, 66955, Control_c, 0, 64, 54
1, 66970, Control_c, 0, 64, 54
1, 66985, Control_c, 0, 64, 53
1, 67000, Control_c, 0, 64, 53
1, 67010, Note_off_c, 0, 58, 62
1, 67015, Control_c, 0, 64, 52
1, 67028, Note_on_c, 0, 57, 70
1, 67030, Control_c, 0, 64, 52
1, 67045, Control_c, 0, 64, 50
1, 67060, Control_c, 0, 64, 49
1, 67075, Control_c, 0, 64, 49
1, 67090, Control_c, 0, 64, 47
1, 67104, Control_c, 0, 64, 46
1, 67108, Note_off_c, 0, 57, 57
1, 67119, Control_c, 0, 64, 42
1, 67134, Control_c, 0, 64, 34
1, 67135, Note_on_c, 0, 55, 55
1, 67148, Control_c, 0, 64, 19
1, 67163, Control_c, 0, 64, 0
1, 67233, Note_off_c, 0, 55, 60
1, 67245, Note_on_c, 0, 53, 55
1, 67310, Note_off_c, 0, 53, 63
1, 67350, Note_on_c, 0, 52, 52
1, 67441, Note_off_c, 0, 52, 59
1, 67462, Note_on_c, 0, 50, 55
1, 67540, Note_off_c, 0, 50, 61
1, 67565, Note_on_c, 0, 49, 49
1, 67570, Control_c, 0, 67, 8
1, 67586, Control_c, 0, 64, 21
1, 67586, Control_c, 0, 67, 12
1, 67601, Control_c, 0, 64, 40
1, 67601, Control_c, 0, 67, 18
1, 67616, Control_c, 0, 64, 50
1, 67616, Control_c, 0, 67, 25
1, 67631, Control_c, 0, 64, 55
1, 67631, Control_c, 0, 67, 33
1, 67646, Control_c, 0, 64, 60
1, 67646, Control_c, 0, 67, 41
1, 67660, Control_c, 0, 64, 64
1, 67660, Control_c, 0, 67, 47
1, 67675, Control_c, 0, 64, 66
1, 67675, Control_c, 0, 67, 52
1, 67690, Note_on_c, 0, 82, 53
1, 67690, Control_c, 0, 64, 67
1, 67690, Control_c, 0, 67, 59
1, 67702, Note_on_c, 0, 79, 43
1, 67705, Control_c, 0, 64, 67
1, 67705, Control_c, 0, 67, 62
1, 67716, Note_off_c, 0, 49, 56
1, 67719, Control_c, 0, 67, 63
1, 67734, Control_c, 0, 64, 68
1, 67734, Control_c, 0, 67, 65
1, 67749, Control_c, 0, 64, 69
1, 67749, Control_c, 0, 67, 67
1, 67764, Control_c, 0, 64, 70
1, 67764, Control_c, 0, 67, 69
1, 67776, Note_off_c, 0, 79, 56
1, 67778, Note_on_c, 0, 78, 64
1, 67778, Control_c, 0, 67, 70
1, 67780, Note_on_c, 0, 81, 63
1, 67780, Note_off_c, 0, 82, 53
1, 67793, Control_c, 0, 64, 70
1, 67809, Note_off_c, 0, 78, 64
1, 67838, Control_c, 0, 64, 69
1, 67838, Control_c, 0, 67, 71
1, 67853, Control_c, 0, 64, 68
1, 67868, Control_c, 0, 64, 67
1, 67869, Note_off_c, 0, 81, 63
1, 67882, Control_c, 0, 64, 66
1, 67884, Note_on_c, 0, 79, 53
1, 67891, Note_on_c, 0, 82, 71
1, 67897, Control_c, 0, 64, 65
1, 67912, Control_c, 0, 64, 62
1, 67927, Control_c, 0, 64, 57
1, 67949, Control_c, 0, 64, 45
1, 67960, Note_off_c, 0, 79, 53
1, 67964, Control_c, 0, 64, 29
1, 67972, Note_off_c, 0, 82, 61
1, 67978, Note_on_c, 0, 78, 56
1, 67978, Control_c, 0, 64, 0
1, 67978, Control_c, 0, 67, 71
1, 68000, Note_on_c, 0, 81, 53
1, 68005, Note_off_c, 0, 78, 61
1, 68071, Note_off_c, 0, 81, 60
1, 68083, Note_on_c, 0, 79, 52
1, 68101, Note_on_c, 0, 82, 57
1, 68134, Note_off_c, 0, 79, 59
1, 68141, Note_off_c, 0, 82, 63
1, 68186, Control_c, 0, 64, 30
1, 68201, Control_c, 0, 64, 42
1, 68201, Control_c, 0, 67, 70
1, 68216, Control_c, 0, 64, 50
1, 68216, Control_c, 0, 67, 69
1, 68231, Control_c, 0, 64, 58
1, 68231, Control_c, 0, 67, 69
1, 68231, Note_on_c, 0, 61, 43
1, 68246, Control_c, 0, 64, 62
1, 68246, Control_c, 0, 67, 68
1, 68260, Control_c, 0, 64, 64
1, 68275, Control_c, 0, 64, 65
1, 68290, Control_c, 0, 64, 66
1, 68290, Control_c, 0, 67, 68
1, 68293, Note_off_c, 0, 61, 51
1, 68326, Note_on_c, 0, 67, 50
1, 68327, Note_on_c, 0, 70, 59
1, 68334, Control_c, 0, 64, 65
1, 68334, Control_c, 0, 67, 67
1, 68370, Note_off_c, 0, 67, 61
1, 68395, Control_c, 0, 64, 65
1, 68397, Note_off_c, 0, 70, 56
1, 68409, Control_c, 0, 64, 64
1, 68415, Note_on_c, 0, 66, 51
1, 68419, Note_on_c, 0, 69, 62
1, 68424, Control_c, 0, 64, 63
1, 68439, Control_c, 0, 64, 63
1, 68454, Control_c, 0, 64, 61
1, 68457, Note_off_c, 0, 66, 61
1, 68469, Control_c, 0, 64, 60
1, 68483, Control_c, 0, 64, 58
1, 68498, Control_c, 0, 64, 55
1, 68513, Control_c, 0, 64, 51
1, 68515, Note_off_c, 0, 69, 62
1, 68517, Note_on_c, 0, 70, 61
1, 68526, Note_on_c, 0, 67, 53
1, 68528, Control_c, 0, 64, 46
1, 68543, Control_c, 0, 64, 38
1, 68557, Control_c, 0, 64, 27
1, 68572, Control_c, 0, 64, 0
1, 68572, Control_c, 0, 67, 68
1, 68604, Note_off_c, 0, 67, 63
1, 68606, Note_off_c, 0, 70, 58
1, 68637, Note_on_c, 0, 69, 59
1, 68640, Note_on_c, 0, 66, 44
1, 68669, Note_off_c, 0, 66, 56
1, 68716, Note_off_c, 0, 69, 58
1, 68742, Control_c, 0, 67, 67
1, 68750, Note_on_c, 0, 70, 46
1, 68764, Note_on_c, 0, 67, 35
1, 68787, Control_c, 0, 67, 67
1, 68800, Note_off_c, 0, 67, 52
1, 68801, Control_c, 0, 64, 17
1, 68801, Control_c, 0, 67, 66
1, 68803, Note_off_c, 0, 70, 60
1, 68816, Control_c, 0, 64, 37
1, 68816, Control_c, 0, 67, 66
1, 68831, Control_c, 0, 64, 53
1, 68831, Control_c, 0, 67, 65
1, 68846, Control_c, 0, 64, 63
1, 68846, Control_c, 0, 67, 64
1, 68861, Control_c, 0, 64, 67
1, 68861, Control_c, 0, 67, 62
1, 68866, Note_on_c, 0, 69, 65
1, 68867, Note_on_c, 0, 50, 70
1, 68869, Note_on_c, 0, 62, 59
1, 68876, Control_c, 0, 64, 72
1, 68876, Control_c, 0, 67, 59
1, 68876, Note_on_c, 0, 66, 58
1, 68890, Note_off_c, 0, 62, 60
1, 68890, Control_c, 0, 64, 76
1, 68890, Control_c, 0, 67, 49
1, 68898, Note_off_c, 0, 50, 68
1, 68900, Note_off_c, 0, 66, 65
1, 68902, Note_off_c, 0, 69, 66
1, 68905, Control_c, 0, 64, 79
1, 68905, Control_c, 0, 67, 27
1, 68920, Control_c, 0, 64, 81
1, 68920, Control_c, 0, 67, 0
1, 68935, Control_c, 0, 64, 82
1, 68965, Control_c, 0, 64, 82
1, 68979, Control_c, 0, 64, 79
1, 68994, Control_c, 0, 64, 73
1, 69009, Control_c, 0, 64, 68
1, 69024, Control_c, 0, 64, 65
1, 69039, Control_c, 0, 64, 62
1, 69054, Control_c, 0, 64, 59
1, 69069, Control_c, 0, 64, 54
1, 69083, Control_c, 0, 64, 41
1, 69098, Control_c, 0, 64, 12
1, 69113, Control_c, 0, 64, 0
1, 69275, Note_on_c, 0, 66, 51
1, 69275, Note_on_c, 0, 69, 59
1, 69277, Control_c, 0, 64, 47
1, 69287, Note_on_c, 0, 48, 54
1, 69292, Control_c, 0, 64, 63
1, 69295, Note_on_c, 0, 72, 68
1, 69295, Note_on_c, 0, 75, 77
1, 69306, Control_c, 0, 64, 72
1, 69310, Note_off_c, 0, 66, 66
1, 69316, Note_on_c, 0, 60, 60
1, 69318, Note_off_c, 0, 69, 67
1, 69319, Note_off_c, 0, 72, 68
1, 69320, Note_off_c, 0, 48, 64
1, 69321, Note_off_c, 0, 75, 66
1, 69321, Control_c, 0, 64, 84
1, 69336, Control_c, 0, 64, 95
1, 69350, Control_c, 0, 64, 102
1, 69358, Note_off_c, 0, 60, 62
1, 69365, Control_c, 0, 64, 105
1, 69380, Control_c, 0, 64, 108
1, 69395, Control_c, 0, 64, 114
1, 69410, Control_c, 0, 64, 127
1, 69610, Control_c, 0, 64, 125
1, 69624, Control_c, 0, 64, 116
1, 69639, Control_c, 0, 64, 113
1, 69654, Control_c, 0, 64, 110
1, 69669, Control_c, 0, 64, 107
1, 69684, Control_c, 0, 64, 104
1, 69698, Control_c, 0, 64, 100
1, 69713, Control_c, 0, 64, 97
1, 69728, Control_c, 0, 64, 93
1, 69743, Control_c, 0, 64, 89
1, 69757, Control_c, 0, 64, 85
1, 69772, Control_c, 0, 64, 81
1, 69787, Control_c, 0, 64, 77
1, 69802, Control_c, 0, 64, 74
1, 69817, Control_c, 0, 64, 71
1, 69832, Control_c, 0, 64, 68
1, 69847, Control_c, 0, 64, 65
1, 69862, Control_c, 0, 64, 63
1, 69877, Control_c, 0, 64, 60
1, 69892, Control_c, 0, 64, 57
1, 69906, Control_c, 0, 64, 53
1, 69921, Control_c, 0, 64, 45
1, 69936, Control_c, 0, 64, 0
1, 70329, Control_c, 0, 64, 42
1, 70335, Note_on_c, 0, 58, 80
1, 70339, Note_on_c, 0, 46, 66
1, 70344, Control_c, 0, 64, 61
1, 70348, Note_on_c, 0, 74, 74
1, 70359, Note_off_c, 0, 58, 69
1, 70359, Control_c, 0, 64, 66
1, 70370, Note_off_c, 0, 46, 66
1, 70373, Control_c, 0, 64, 71
1, 70388, Control_c, 0, 64, 76
1, 70403, Control_c, 0, 64, 81
1, 70418, Control_c, 0, 64, 83
1, 70425, Note_off_c, 0, 74, 55
1, 70433, Control_c, 0, 64, 83
1, 70434, Note_on_c, 0, 79, 61
1, 70447, Control_c, 0, 64, 84
1, 70462, Control_c, 0, 64, 85
1, 70477, Control_c, 0, 64, 85
1, 70490, Note_off_c, 0, 79, 51
1, 70519, Note_on_c, 0, 78, 57
1, 70595, Control_c, 0, 64, 84
1, 70599, Note_on_c, 0, 79, 72
1, 70601, Note_off_c, 0, 78, 60
1, 70610, Control_c, 0, 64, 84
1, 70625, Control_c, 0, 64, 83
1, 70640, Control_c, 0, 64, 82
1, 70655, Control_c, 0, 64, 82
1, 70670, Control_c, 0, 64, 81
1, 70670, Note_off_c, 0, 79, 60
1, 70682, Note_on_c, 0, 81, 64
1, 70684, Control_c, 0, 64, 81
1, 70699, Control_c, 0, 64, 80
1, 70714, Control_c, 0, 64, 79
1, 70729, Control_c, 0, 64, 78
1, 70744, Control_c, 0, 64, 77
1, 70757, Note_on_c, 0, 79, 69
1, 70759, Control_c, 0, 64, 76
1, 70766, Note_off_c, 0, 81, 61
1, 70774, Control_c, 0, 64, 75
1, 70789, Control_c, 0, 64, 74
1, 70804, Control_c, 0, 64, 73
1, 70819, Control_c, 0, 64, 71
1, 70825, Note_off_c, 0, 79, 60
1, 70827, Note_on_c, 0, 78, 73
1, 70834, Control_c, 0, 64, 70
1, 70848, Control_c, 0, 64, 68
1, 70863, Control_c, 0, 64, 67
1, 70878, Control_c, 0, 64, 64
1, 70893, Control_c, 0, 64, 61
1, 70905, Note_on_c, 0, 79, 68
1, 70908, Control_c, 0, 64, 57
1, 70915, Note_off_c, 0, 78, 56
1, 70923, Control_c, 0, 64, 49
1, 70938, Control_c, 0, 64, 37
1, 70959, Control_c, 0, 64, 10
1, 70974, Control_c, 0, 64, 0
1, 70983, Note_off_c, 0, 79, 62
1, 70984, Note_on_c, 0, 82, 77
1, 71065, Note_on_c, 0, 79, 60
1, 71068, Note_off_c, 0, 82, 53
1, 71123, Note_off_c, 0, 79, 60
1, 71135, Note_on_c, 0, 78, 61
1, 71211, Control_c, 0, 64, 32
1, 71214, Note_off_c, 0, 78, 61
1, 71221, Note_on_c, 0, 79, 60
1, 71226, Control_c, 0, 64, 48
1, 71241, Control_c, 0, 64, 59
1, 71256, Control_c, 0, 64, 63
1, 71270, Control_c, 0, 64, 66
1, 71278, Note_on_c, 0, 60, 70
1, 71281, Note_off_c, 0, 79, 61
1, 71284, Note_on_c, 0, 48, 62
1, 71285, Control_c, 0, 64, 70
1, 71287, Note_on_c, 0, 75, 74
1, 71300, Control_c, 0, 64, 74
1, 71302, Note_off_c, 0, 60, 66
1, 71309, Note_off_c, 0, 48, 62
1, 71315, Control_c, 0, 64, 76
1, 71329, Control_c, 0, 64, 77
1, 71358, Note_off_c, 0, 75, 55
1, 71362, Note_on_c, 0, 79, 57
1, 71374, Control_c, 0, 64, 76
1, 71389, Control_c, 0, 64, 76
1, 71389, Control_c, 0, 67, 8
1, 71403, Control_c, 0, 64, 75
1, 71403, Control_c, 0, 67, 9
1, 71418, Control_c, 0, 64, 74
1, 71418, Control_c, 0, 67, 11
1, 71431, Note_off_c, 0, 79, 61
1, 71433, Control_c, 0, 64, 73
1, 71433, Control_c, 0, 67, 13
1, 71439, Note_on_c, 0, 78, 63
1, 71448, Control_c, 0, 64, 71
1, 71448, Control_c, 0, 67, 15
1, 71463, Control_c, 0, 64, 68
1, 71463, Control_c, 0, 67, 16
1, 71477, Control_c, 0, 64, 64
1, 71477, Control_c, 0, 67, 18
1, 71492, Control_c, 0, 64, 56
1, 71492, Control_c, 0, 67, 19
1, 71507, Control_c, 0, 64, 31
1, 71507, Control_c, 0, 67, 19
1, 71522, Note_on_c, 0, 79, 56
1, 71522, Control_c, 0, 64, 0
1, 71522, Control_c, 0, 67, 20
1, 71522, Note_off_c, 0, 78, 55
1, 71582, Control_c, 0, 67, 19
1, 71597, Control_c, 0, 67, 18
1, 71606, Note_off_c, 0, 79, 60
1, 71612, Control_c, 0, 64, 39
1, 71612, Control_c, 0, 67, 18
1, 71620, Note_on_c, 0, 74, 71
1, 71626, Control_c, 0, 64, 57
1, 71636, Note_on_c, 0, 58, 64
1, 71639, Note_on_c, 0, 46, 53
1, 71641, Control_c, 0, 64, 66
1, 71641, Control_c, 0, 67, 17
1, 71656, Control_c, 0, 64, 72
1, 71656, Control_c, 0, 67, 17
1, 71657, Note_off_c, 0, 58, 62
1, 71667, Note_off_c, 0, 46, 57
1, 71671, Control_c, 0, 64, 79
1, 71671, Control_c, 0, 67, 16
1, 71686, Control_c, 0, 64, 82
1, 71686, Control_c, 0, 67, 16
1, 71708, Control_c, 0, 64, 83
1, 71717, Note_on_c, 0, 79, 65
1, 71718, Note_off_c, 0, 74, 62
1, 71738, Control_c, 0, 64, 84
1, 71752, Control_c, 0, 64, 85
1, 71767, Control_c, 0, 64, 85
1, 71779, Note_off_c, 0, 79, 60
1, 71782, Control_c, 0, 64, 86
1, 71797, Note_on_c, 0, 78, 65
1, 71812, Control_c, 0, 67, 15
1, 71871, Control_c, 0, 67, 15
1, 71877, Note_on_c, 0, 79, 72
1, 71891, Note_off_c, 0, 78, 53
1, 71901, Control_c, 0, 64, 85
1, 71901, Control_c, 0, 67, 14
1, 71916, Control_c, 0, 64, 84
1, 71916, Control_c, 0, 67, 14
1, 71931, Control_c, 0, 64, 84
1, 71945, Control_c, 0, 64, 83
1, 71945, Control_c, 0, 67, 13
1, 71957, Note_off_c, 0, 79, 61
1, 71960, Control_c, 0, 64, 83
1, 71960, Note_on_c, 0, 81, 69
1, 71975, Control_c, 0, 64, 82
1, 71975, Control_c, 0, 67, 13
1, 71990, Control_c, 0, 64, 82
1, 71990, Control_c, 0, 67, 12
1, 72005, Control_c, 0, 64, 81
1, 72005, Control_c, 0, 67, 12
1, 72019, Control_c, 0, 64, 80
1, 72019, Control_c, 0, 67, 11
1, 72034, Control_c, 0, 64, 79
1, 72034, Control_c, 0, 67, 10
1, 72044, Note_on_c, 0, 79, 70
1, 72049, Control_c, 0, 64, 78
1, 72049, Control_c, 0, 67, 10
1, 72059, Note_off_c, 0, 81, 61
1, 72064, Control_c, 0, 64, 78
1, 72064, Control_c, 0, 67, 9
1, 72079, Control_c, 0, 64, 76
1, 72079, Control_c, 0, 67, 0
1, 72093, Control_c, 0, 64, 75
1, 72104, Note_off_c, 0, 79, 62
1, 72106, Note_on_c, 0, 78, 68
1, 72108, Control_c, 0, 64, 74
1, 72123, Control_c, 0, 64, 73
1, 72138, Control_c, 0, 64, 72
1, 72152, Control_c, 0, 64, 71
1, 72167, Control_c, 0, 64, 71
1, 72182, Control_c, 0, 64, 70
1, 72184, Note_on_c, 0, 79, 71
1, 72190, Note_off_c, 0, 78, 61
1, 72197, Control_c, 0, 64, 68
1, 72212, Control_c, 0, 64, 65
1, 72226, Control_c, 0, 64, 60
1, 72241, Control_c, 0, 64, 53
1, 72249, Note_off_c, 0, 79, 62
1, 72253, Note_on_c, 0, 82, 77
1, 72256, Control_c, 0, 64, 45
1, 72271, Control_c, 0, 64, 38
1, 72286, Control_c, 0, 64, 36
1, 72300, Control_c, 0, 64, 32
1, 72315, Control_c, 0, 64, 14
1, 72327, Note_on_c, 0, 79, 63
1, 72330, Control_c, 0, 64, 0
1, 72333, Note_off_c, 0, 82, 55
1, 72398, Note_off_c, 0, 79, 61
1, 72408, Note_on_c, 0, 78, 60
1, 72491, Note_off_c, 0, 78, 60
1, 72495, Note_on_c, 0, 79, 65
1, 72502, Control_c, 0, 64, 28
1, 72502, Control_c, 0, 67, 9
1, 72516, Control_c, 0, 64, 53
1, 72516, Control_c, 0, 67, 10
1, 72531, Control_c, 0, 64, 63
1, 72531, Control_c, 0, 67, 10
1, 72546, Control_c, 0, 64, 69
1, 72546, Control_c, 0, 67, 11
1, 72547, Note_off_c, 0, 79, 60
1, 72561, Control_c, 0, 64, 75
1, 72561, Control_c, 0, 67, 11
1, 72575, Control_c, 0, 64, 78
1, 72575, Control_c, 0, 67, 10
1, 72586, Note_on_c, 0, 72, 59
1, 72588, Note_on_c, 0, 63, 52
1, 72590, Control_c, 0, 64, 79
1, 72590, Control_c, 0, 67, 9
1, 72592, Note_on_c, 0, 51, 47
1, 72605, Control_c, 0, 64, 80
1, 72605, Control_c, 0, 67, 8
1, 72611, Note_off_c, 0, 63, 60
1, 72620, Control_c, 0, 67, 0
1, 72621, Note_off_c, 0, 51, 55
1, 72649, Control_c, 0, 67, 8
1, 72662, Note_off_c, 0, 72, 61
1, 72664, Control_c, 0, 64, 79
1, 72664, Control_c, 0, 67, 8
1, 72670, Note_on_c, 0, 79, 60
1, 72679, Control_c, 0, 64, 78
1, 72679, Control_c, 0, 67, 9
1, 72694, Control_c, 0, 64, 77
1, 72709, Control_c, 0, 64, 76
1, 72709, Control_c, 0, 67, 9
1, 72723, Note_off_c, 0, 79, 56
1, 72723, Control_c, 0, 64, 75
1, 72738, Control_c, 0, 64, 74
1, 72738, Control_c, 0, 67, 10
1, 72746, Note_on_c, 0, 78, 58
1, 72753, Control_c, 0, 64, 74
1, 72753, Control_c, 0, 67, 11
1, 72768, Control_c, 0, 67, 12
1, 72783, Control_c, 0, 67, 13
1, 72798, Control_c, 0, 67, 16
1, 72807, Note_off_c, 0, 78, 60
1, 72813, Control_c, 0, 64, 72
1, 72813, Control_c, 0, 67, 21
1, 72828, Control_c, 0, 64, 71
1, 72828, Control_c, 0, 67, 26
1, 72842, Control_c, 0, 64, 70
1, 72842, Control_c, 0, 67, 28
1, 72850, Note_on_c, 0, 79, 40
1, 72857, Control_c, 0, 64, 69
1, 72857, Control_c, 0, 67, 29
1, 72872, Control_c, 0, 64, 67
1, 72872, Control_c, 0, 67, 31
1, 72887, Control_c, 0, 64, 65
1, 72887, Control_c, 0, 67, 33
1, 72901, Control_c, 0, 64, 62
1, 72901, Control_c, 0, 67, 35
1, 72911, Note_off_c, 0, 79, 42
1, 72916, Control_c, 0, 64, 57
1, 72916, Control_c, 0, 67, 36
1, 72931, Control_c, 0, 64, 50
1, 72931, Control_c, 0, 67, 38
1, 72946, Control_c, 0, 64, 44
1, 72946, Control_c, 0, 67, 39
1, 72952, Note_on_c, 0, 62, 27
1, 72954, Note_on_c, 0, 70, 52
1, 72961, Control_c, 0, 64, 41
1, 72961, Control_c, 0, 67, 42
1, 72975, Control_c, 0, 64, 42
1, 72975, Control_c, 0, 67, 44
1, 72990, Control_c, 0, 64, 44
1, 72990, Control_c, 0, 67, 45
1, 73005, Control_c, 0, 64, 45
1, 73005, Control_c, 0, 67, 46
1, 73020, Control_c, 0, 64, 49
1, 73020, Control_c, 0, 67, 47
1, 73035, Control_c, 0, 64, 52
1, 73035, Control_c, 0, 67, 48
1, 73049, Control_c, 0, 64, 56
1, 73049, Control_c, 0, 67, 49
1, 73055, Note_on_c, 0, 67, 31
1, 73064, Control_c, 0, 64, 59
1, 73064, Control_c, 0, 67, 51
1, 73079, Control_c, 0, 64, 62
1, 73079, Control_c, 0, 67, 51
1, 73093, Control_c, 0, 64, 63
1, 73093, Control_c, 0, 67, 52
1, 73108, Control_c, 0, 64, 65
1, 73110, Note_off_c, 0, 67, 46
1, 73123, Control_c, 0, 64, 66
1, 73124, Note_off_c, 0, 62, 41
1, 73135, Note_on_c, 0, 66, 47
1, 73137, Note_on_c, 0, 79, 62
1, 73138, Control_c, 0, 64, 67
1, 73138, Control_c, 0, 67, 52
1, 73153, Control_c, 0, 64, 68
1, 73165, Note_off_c, 0, 70, 54
1, 73169, Control_c, 0, 64, 69
1, 73180, Note_off_c, 0, 66, 61
1, 73184, Control_c, 0, 67, 53
1, 73206, Control_c, 0, 64, 68
1, 73218, Note_on_c, 0, 67, 52
1, 73236, Control_c, 0, 64, 67
1, 73251, Note_off_c, 0, 67, 60
1, 73251, Control_c, 0, 64, 66
1, 73266, Control_c, 0, 64, 64
1, 73280, Control_c, 0, 64, 62
1, 73286, Note_off_c, 0, 79, 58
1, 73294, Note_on_c, 0, 71, 70
1, 73295, Control_c, 0, 64, 59
1, 73305, Note_on_c, 0, 62, 39
1, 73310, Control_c, 0, 64, 58
1, 73325, Control_c, 0, 64, 59
1, 73339, Control_c, 0, 64, 60
1, 73354, Control_c, 0, 64, 62
1, 73369, Note_on_c, 0, 67, 42
1, 73369, Control_c, 0, 64, 63
1, 73384, Control_c, 0, 64, 64
1, 73398, Control_c, 0, 64, 64
1, 73413, Control_c, 0, 64, 65
1, 73418, Note_off_c, 0, 67, 61
1, 73442, Note_on_c, 0, 66, 50
1, 73447, Note_off_c, 0, 71, 61
1, 73451, Note_on_c, 0, 77, 62
1, 73458, Control_c, 0, 64, 64
1, 73467, Note_off_c, 0, 62, 41
1, 73494, Note_off_c, 0, 66, 56
1, 73502, Control_c, 0, 64, 64
1, 73531, Control_c, 0, 64, 63
1, 73546, Note_on_c, 0, 67, 36
1, 73546, Control_c, 0, 64, 61
1, 73561, Control_c, 0, 64, 59
1, 73574, Note_off_c, 0, 77, 56
1, 73576, Control_c, 0, 64, 56
1, 73578, Note_off_c, 0, 67, 53
1, 73591, Control_c, 0, 64, 51
1, 73598, Note_on_c, 0, 60, 52
1, 73600, Note_on_c, 0, 72, 60
1, 73606, Control_c, 0, 64, 45
1, 73621, Control_c, 0, 64, 42
1, 73636, Control_c, 0, 64, 43
1, 73650, Control_c, 0, 64, 45
1, 73665, Control_c, 0, 64, 47
1, 73680, Control_c, 0, 64, 52
1, 73687, Note_on_c, 0, 67, 39
1, 73695, Control_c, 0, 64, 56
1, 73710, Control_c, 0, 64, 59
1, 73724, Control_c, 0, 64, 61
1, 73764, Note_off_c, 0, 67, 57
1, 73769, Control_c, 0, 64, 62
1, 73791, Note_on_c, 0, 75, 66
1, 73801, Note_off_c, 0, 72, 56
1, 73808, Note_on_c, 0, 66, 46
1, 73813, Control_c, 0, 64, 61
1, 73828, Control_c, 0, 64, 60
1, 73835, Note_off_c, 0, 60, 58
1, 73843, Control_c, 0, 64, 59
1, 73858, Control_c, 0, 64, 58
1, 73868, Note_off_c, 0, 66, 57
1, 73872, Control_c, 0, 64, 58
1, 73902, Control_c, 0, 64, 58
1, 73913, Note_on_c, 0, 67, 34
1, 73916, Control_c, 0, 64, 60
1, 73931, Control_c, 0, 64, 62
1, 73952, Note_off_c, 0, 67, 54
1, 73954, Control_c, 0, 64, 63
1, 73969, Control_c, 0, 64, 64
1, 73969, Control_c, 0, 67, 52
1, 73973, Note_on_c, 0, 59, 55
1, 73984, Control_c, 0, 64, 65
1, 73999, Control_c, 0, 64, 66
1, 74020, Note_off_c, 0, 59, 54
1, 74029, Control_c, 0, 64, 67
1, 74041, Note_on_c, 0, 67, 54
1, 74059, Control_c, 0, 64, 67
1, 74074, Control_c, 0, 67, 52
1, 74084, Note_off_c, 0, 67, 61
1, 74103, Control_c, 0, 64, 68
1, 74103, Control_c, 0, 67, 51
1, 74108, Note_on_c, 0, 74, 62
1, 74115, Note_off_c, 0, 75, 57
1, 74118, Control_c, 0, 64, 68
1, 74121, Note_on_c, 0, 66, 48
1, 74133, Control_c, 0, 67, 51
1, 74161, Note_off_c, 0, 66, 62
1, 74177, Control_c, 0, 64, 68
1, 74177, Control_c, 0, 67, 50
1, 74192, Note_on_c, 0, 67, 54
1, 74192, Control_c, 0, 64, 67
1, 74207, Control_c, 0, 64, 65
1, 74221, Control_c, 0, 64, 62
1, 74236, Control_c, 0, 64, 58
1, 74236, Control_c, 0, 67, 50
1, 74239, Note_off_c, 0, 74, 59
1, 74251, Control_c, 0, 64, 57
1, 74266, Control_c, 0, 64, 57
1, 74266, Control_c, 0, 67, 49
1, 74274, Note_on_c, 0, 60, 52
1, 74281, Control_c, 0, 64, 58
1, 74289, Note_on_c, 0, 77, 54
1, 74295, Control_c, 0, 64, 59
1, 74295, Control_c, 0, 67, 49
1, 74309, Note_off_c, 0, 67, 51
1, 74310, Control_c, 0, 64, 61
1, 74325, Control_c, 0, 64, 62
1, 74339, Control_c, 0, 64, 64
1, 74339, Control_c, 0, 67, 48
1, 74346, Note_off_c, 0, 77, 56
1, 74354, Control_c, 0, 64, 65
1, 74357, Note_off_c, 0, 60, 59
1, 74369, Control_c, 0, 64, 66
1, 74375, Note_on_c, 0, 75, 56
1, 74376, Note_on_c, 0, 66, 47
1, 74384, Control_c, 0, 64, 68
1, 74399, Control_c, 0, 64, 69
1, 74412, Note_off_c, 0, 75, 60
1, 74414, Control_c, 0, 64, 70
1, 74414, Control_c, 0, 67, 48
1, 74429, Note_off_c, 0, 66, 60
1, 74429, Control_c, 0, 64, 71
1, 74438, Note_on_c, 0, 77, 68
1, 74443, Control_c, 0, 67, 47
1, 74445, Note_on_c, 0, 67, 51
1, 74473, Control_c, 0, 67, 47
1, 74488, Control_c, 0, 67, 46
1, 74491, Note_off_c, 0, 77, 60
1, 74500, Note_on_c, 0, 75, 69
1, 74503, Control_c, 0, 64, 70
1, 74503, Control_c, 0, 67, 46
1, 74518, Control_c, 0, 67, 45
1, 74526, Note_off_c, 0, 67, 61
1, 74529, Note_on_c, 0, 60, 51
1, 74540, Note_off_c, 0, 75, 62
1, 74547, Control_c, 0, 64, 70
1, 74548, Note_on_c, 0, 77, 63
1, 74578, Control_c, 0, 67, 46
1, 74592, Control_c, 0, 64, 69
1, 74592, Control_c, 0, 67, 46
1, 74604, Note_off_c, 0, 77, 61
1, 74607, Note_off_c, 0, 60, 64
1, 74607, Control_c, 0, 67, 47
1, 74611, Note_on_c, 0, 75, 54
1, 74622, Control_c, 0, 64, 69
1, 74622, Control_c, 0, 67, 47
1, 74631, Note_on_c, 0, 69, 47
1, 74637, Control_c, 0, 67, 48
1, 74643, Note_off_c, 0, 75, 62
1, 74644, Note_on_c, 0, 77, 57
1, 74652, Control_c, 0, 67, 49
1, 74666, Control_c, 0, 64, 68
1, 74666, Control_c, 0, 67, 49
1, 74677, Note_off_c, 0, 69, 65
1, 74702, Note_on_c, 0, 70, 65
1, 74703, Control_c, 0, 64, 68
1, 74718, Note_on_c, 0, 75, 68
1, 74724, Note_off_c, 0, 77, 60
1, 74733, Control_c, 0, 64, 67
1, 74747, Control_c, 0, 64, 66
1, 74748, Note_off_c, 0, 70, 59
1, 74757, Note_on_c, 0, 74, 70
1, 74771, Note_off_c, 0, 75, 61
1, 74778, Control_c, 0, 64, 66
1, 74789, Note_on_c, 0, 69, 44
1, 74793, Control_c, 0, 64, 65
1, 74797, Note_off_c, 0, 74, 67
1, 74808, Control_c, 0, 64, 64
1, 74813, Note_off_c, 0, 69, 58
1, 74823, Control_c, 0, 64, 62
1, 74838, Control_c, 0, 64, 59
1, 74841, Note_on_c, 0, 72, 59
1, 74852, Control_c, 0, 64, 54
1, 74867, Control_c, 0, 64, 44
1, 74882, Control_c, 0, 64, 27
1, 74896, Note_on_c, 0, 62, 41
1, 74897, Control_c, 0, 64, 14
1, 74903, Note_off_c, 0, 72, 63
1, 74909, Note_on_c, 0, 70, 64
1, 74912, Control_c, 0, 64, 15
1, 74926, Control_c, 0, 64, 20
1, 74941, Control_c, 0, 64, 25
1, 74956, Control_c, 0, 64, 31
1, 74956, Control_c, 0, 67, 49
1, 74959, Note_off_c, 0, 62, 54
1, 74971, Control_c, 0, 64, 40
1, 74971, Control_c, 0, 67, 48
1, 74986, Control_c, 0, 64, 52
1, 75001, Control_c, 0, 64, 59
1, 75015, Note_on_c, 0, 67, 39
1, 75016, Control_c, 0, 64, 62
1, 75016, Control_c, 0, 67, 48
1, 75031, Control_c, 0, 64, 63
1, 75045, Control_c, 0, 64, 64
1, 75045, Control_c, 0, 67, 47
1, 75050, Note_off_c, 0, 67, 49
1, 75060, Control_c, 0, 64, 64
1, 75063, Note_on_c, 0, 66, 47
1, 75111, Note_off_c, 0, 66, 59
1, 75112, Note_off_c, 0, 70, 38
1, 75119, Control_c, 0, 64, 64
1, 75134, Control_c, 0, 64, 63
1, 75134, Control_c, 0, 67, 48
1, 75139, Note_on_c, 0, 67, 59
1, 75149, Control_c, 0, 64, 62
1, 75163, Control_c, 0, 64, 59
1, 75167, Note_off_c, 0, 67, 61
1, 75178, Control_c, 0, 64, 57
1, 75193, Control_c, 0, 64, 58
1, 75208, Control_c, 0, 64, 59
1, 75208, Control_c, 0, 67, 48
1, 75219, Note_on_c, 0, 62, 51
1, 75223, Control_c, 0, 64, 61
1, 75224, Note_on_c, 0, 69, 41
1, 75237, Control_c, 0, 64, 63
1, 75237, Control_c, 0, 67, 49
1, 75252, Control_c, 0, 64, 64
1, 75252, Control_c, 0, 67, 49
1, 75253, Note_off_c, 0, 69, 55
1, 75265, Note_on_c, 0, 70, 58
1, 75267, Control_c, 0, 64, 67
1, 75267, Control_c, 0, 67, 50
1, 75281, Note_off_c, 0, 62, 55
1, 75281, Control_c, 0, 64, 68
1, 75281, Control_c, 0, 67, 50
1, 75296, Control_c, 0, 64, 69
1, 75304, Note_off_c, 0, 70, 60
1, 75308, Note_on_c, 0, 66, 53
1, 75325, Note_on_c, 0, 69, 56
1, 75343, Note_off_c, 0, 66, 63
1, 75364, Note_on_c, 0, 64, 43
1, 75364, Note_off_c, 0, 69, 61
1, 75373, Note_on_c, 0, 67, 54
1, 75385, Control_c, 0, 64, 68
1, 75415, Note_off_c, 0, 64, 64
1, 75420, Note_off_c, 0, 67, 60
1, 75437, Control_c, 0, 64, 68
1, 75460, Note_on_c, 0, 69, 60
1, 75467, Control_c, 0, 64, 67
1, 75482, Control_c, 0, 64, 67
1, 75487, Note_on_c, 0, 66, 25
1, 75511, Control_c, 0, 64, 66
1, 75519, Note_off_c, 0, 66, 46
1, 75526, Control_c, 0, 64, 66
1, 75540, Note_off_c, 0, 69, 60
1, 75541, Control_c, 0, 64, 65
1, 75556, Control_c, 0, 64, 62
1, 75572, Control_c, 0, 64, 58
1, 75587, Control_c, 0, 64, 53
1, 75591, Note_on_c, 0, 55, 39
1, 75593, Note_on_c, 0, 70, 57
1, 75601, Control_c, 0, 64, 48
1, 75616, Control_c, 0, 64, 45
1, 75616, Control_c, 0, 67, 50
1, 75646, Control_c, 0, 64, 47
1, 75661, Control_c, 0, 64, 50
1, 75661, Control_c, 0, 67, 49
1, 75675, Control_c, 0, 64, 54
1, 75690, Control_c, 0, 64, 57
1, 75702, Note_off_c, 0, 55, 58
1, 75705, Control_c, 0, 64, 60
1, 75705, Control_c, 0, 67, 49
1, 75719, Control_c, 0, 64, 62
1, 75734, Control_c, 0, 64, 64
1, 75740, Note_on_c, 0, 67, 51
1, 75749, Control_c, 0, 64, 66
1, 75764, Control_c, 0, 64, 67
1, 75764, Control_c, 0, 67, 48
1, 75779, Control_c, 0, 64, 68
1, 75785, Note_off_c, 0, 67, 60
1, 75808, Note_on_c, 0, 79, 65
1, 75811, Note_on_c, 0, 66, 53
1, 75821, Note_off_c, 0, 70, 57
1, 75850, Note_off_c, 0, 66, 64
1, 75868, Control_c, 0, 64, 67
1, 75883, Control_c, 0, 64, 67
1, 75886, Note_on_c, 0, 67, 51
1, 75912, Control_c, 0, 64, 66
1, 75927, Control_c, 0, 64, 65
1, 75932, Note_off_c, 0, 67, 55
1, 75942, Control_c, 0, 64, 64
1, 75946, Note_on_c, 0, 71, 72
1, 75957, Control_c, 0, 64, 62
1, 75959, Note_on_c, 0, 62, 55
1, 75972, Control_c, 0, 64, 58
1, 75986, Control_c, 0, 64, 56
1, 76001, Control_c, 0, 67, 48
1, 76016, Control_c, 0, 64, 58
1, 76031, Control_c, 0, 64, 60
1, 76035, Note_on_c, 0, 67, 50
1, 76046, Control_c, 0, 64, 62
1, 76059, Control_c, 0, 64, 64
1, 76074, Control_c, 0, 64, 65
1, 76077, Note_off_c, 0, 79, 19
1, 76080, Note_off_c, 0, 67, 60
1, 76089, Control_c, 0, 64, 66
1, 76097, Note_on_c, 0, 66, 54
1, 76104, Control_c, 0, 64, 67
1, 76113, Note_on_c, 0, 77, 65
1, 76115, Note_off_c, 0, 71, 61
1, 76125, Note_off_c, 0, 62, 36
1, 76134, Control_c, 0, 64, 66
1, 76139, Note_off_c, 0, 66, 61
1, 76163, Control_c, 0, 64, 66
1, 76178, Control_c, 0, 64, 65
1, 76194, Note_on_c, 0, 67, 46
1, 76200, Control_c, 0, 64, 65
1, 76215, Control_c, 0, 64, 64
1, 76230, Control_c, 0, 64, 63
1, 76238, Note_off_c, 0, 67, 56
1, 76245, Control_c, 0, 64, 61
1, 76259, Control_c, 0, 64, 56
1, 76271, Note_on_c, 0, 60, 49
1, 76274, Control_c, 0, 64, 49
1, 76278, Note_off_c, 0, 77, 59
1, 76286, Note_on_c, 0, 72, 62
1, 76289, Control_c, 0, 64, 41
1, 76304, Control_c, 0, 64, 31
1, 76318, Control_c, 0, 64, 28
1, 76348, Control_c, 0, 64, 33
1, 76355, Note_on_c, 0, 67, 39
1, 76364, Control_c, 0, 64, 39
1, 76379, Control_c, 0, 64, 45
1, 76394, Control_c, 0, 64, 49
1, 76405, Note_off_c, 0, 67, 60
1, 76409, Control_c, 0, 64, 54
1, 76409, Control_c, 0, 67, 47
1, 76423, Control_c, 0, 64, 58
1, 76429, Note_on_c, 0, 66, 48
1, 76432, Note_off_c, 0, 72, 57
1, 76438, Control_c, 0, 64, 61
1, 76446, Note_on_c, 0, 75, 60
1, 76453, Control_c, 0, 64, 62
1, 76468, Control_c, 0, 64, 63
1, 76484, Note_off_c, 0, 60, 45
1, 76494, Note_off_c, 0, 66, 53
1, 76497, Control_c, 0, 64, 62
1, 76512, Control_c, 0, 64, 60
1, 76524, Note_on_c, 0, 67, 50
1, 76527, Control_c, 0, 64, 58
1, 76527, Control_c, 0, 67, 48
1, 76542, Control_c, 0, 64, 55
1, 76557, Control_c, 0, 64, 52
1, 76557, Control_c, 0, 67, 48
1, 76576, Note_off_c, 0, 67, 56
1, 76587, Control_c, 0, 64, 54
1, 76587, Control_c, 0, 67, 49
1, 76602, Control_c, 0, 64, 56
1, 76605, Note_on_c, 0, 59, 54
1, 76616, Control_c, 0, 64, 58
1, 76616, Control_c, 0, 67, 49
1, 76631, Control_c, 0, 64, 59
1, 76646, Control_c, 0, 64, 60
1, 76661, Control_c, 0, 64, 61
1, 76664, Note_off_c, 0, 59, 55
1, 76676, Control_c, 0, 67, 50
1, 76690, Control_c, 0, 64, 60
1, 76698, Note_on_c, 0, 67, 33
1, 76705, Control_c, 0, 64, 59
1, 76705, Control_c, 0, 67, 50
1, 76720, Control_c, 0, 64, 58
1, 76720, Control_c, 0, 67, 51
1, 76734, Control_c, 0, 64, 56
1, 76735, Note_off_c, 0, 67, 52
1, 76737, Note_off_c, 0, 75, 50
1, 76749, Control_c, 0, 64, 54
1, 76757, Note_on_c, 0, 66, 52
1, 76760, Note_on_c, 0, 74, 53
1, 76764, Control_c, 0, 64, 52
1, 76764, Control_c, 0, 67, 51
1, 76779, Control_c, 0, 64, 49
1, 76794, Control_c, 0, 64, 44
1, 76796, Note_off_c, 0, 66, 63
1, 76807, Control_c, 0, 64, 38
1, 76807, Control_c, 0, 67, 52
1, 76822, Control_c, 0, 64, 34
1, 76830, Note_on_c, 0, 67, 52
1, 76837, Control_c, 0, 64, 35
1, 76852, Control_c, 0, 64, 36
1, 76867, Control_c, 0, 64, 39
1, 76880, Note_off_c, 0, 67, 56
1, 76882, Control_c, 0, 64, 44
1, 76894, Note_off_c, 0, 74, 55
1, 76897, Control_c, 0, 64, 49
1, 76912, Control_c, 0, 64, 54
1, 76915, Note_on_c, 0, 60, 53
1, 76927, Control_c, 0, 64, 58
1, 76948, Control_c, 0, 64, 60
1, 76950, Note_on_c, 0, 77, 50
1, 76963, Control_c, 0, 64, 62
1, 76978, Control_c, 0, 64, 63
1, 76978, Control_c, 0, 67, 51
1, 76993, Control_c, 0, 64, 64
1, 77006, Note_off_c, 0, 60, 45
1, 77008, Control_c, 0, 64, 64
1, 77011, Note_on_c, 0, 67, 44
1, 77022, Control_c, 0, 64, 65
1, 77023, Note_off_c, 0, 77, 60
1, 77038, Note_on_c, 0, 75, 55
1, 77062, Note_off_c, 0, 67, 59
1, 77067, Control_c, 0, 64, 65
1, 77080, Note_off_c, 0, 75, 60
1, 77087, Note_on_c, 0, 66, 51
1, 77096, Control_c, 0, 64, 66
1, 77108, Note_on_c, 0, 77, 53
1, 77132, Note_off_c, 0, 66, 61
1, 77156, Control_c, 0, 67, 52
1, 77161, Note_off_c, 0, 77, 61
1, 77171, Note_on_c, 0, 75, 61
1, 77175, Note_on_c, 0, 67, 48
1, 77186, Control_c, 0, 67, 52
1, 77200, Note_off_c, 0, 67, 58
1, 77201, Control_c, 0, 64, 65
1, 77204, Note_off_c, 0, 75, 62
1, 77214, Note_on_c, 0, 77, 60
1, 77216, Control_c, 0, 67, 52
1, 77225, Note_on_c, 0, 60, 56
1, 77266, Note_off_c, 0, 60, 62
1, 77269, Note_off_c, 0, 77, 63
1, 77275, Control_c, 0, 67, 52
1, 77281, Note_on_c, 0, 75, 58
1, 77290, Control_c, 0, 67, 54
1, 77300, Note_on_c, 0, 69, 56
1, 77305, Control_c, 0, 67, 56
1, 77313, Note_off_c, 0, 75, 53
1, 77320, Control_c, 0, 67, 61
1, 77322, Note_on_c, 0, 77, 58
1, 77335, Control_c, 0, 67, 63
1, 77339, Note_off_c, 0, 69, 63
1, 77350, Control_c, 0, 64, 65
1, 77350, Control_c, 0, 67, 64
1, 77364, Control_c, 0, 64, 64
1, 77371, Note_on_c, 0, 75, 67
1, 77382, Note_on_c, 0, 70, 57
1, 77382, Note_off_c, 0, 77, 60
1, 77394, Control_c, 0, 67, 64
1, 77409, Control_c, 0, 67, 65
1, 77416, Note_on_c, 0, 74, 68
1, 77420, Note_off_c, 0, 70, 64
1, 77424, Control_c, 0, 64, 64
1, 77424, Control_c, 0, 67, 65
1, 77424, Note_off_c, 0, 75, 63
1, 77436, Note_on_c, 0, 69, 48
1, 77438, Control_c, 0, 64, 63
1, 77438, Control_c, 0, 67, 66
1, 77448, Note_off_c, 0, 74, 65
1, 77453, Control_c, 0, 64, 62
1, 77453, Control_c, 0, 67, 67
1, 77468, Control_c, 0, 64, 61
1, 77468, Control_c, 0, 67, 69
1, 77471, Note_off_c, 0, 69, 61
1, 77482, Control_c, 0, 64, 58
1, 77482, Control_c, 0, 67, 70
1, 77487, Note_on_c, 0, 72, 59
1, 77497, Control_c, 0, 64, 53
1, 77497, Control_c, 0, 67, 71
1, 77512, Control_c, 0, 64, 45
1, 77512, Control_c, 0, 67, 72
1, 77527, Control_c, 0, 64, 33
1, 77527, Control_c, 0, 67, 72
1, 77541, Note_on_c, 0, 70, 69
1, 77541, Note_off_c, 0, 72, 63
1, 77542, Control_c, 0, 64, 12
1, 77542, Control_c, 0, 67, 73
1, 77545, Note_on_c, 0, 62, 43
1, 77557, Control_c, 0, 64, 0
1, 77557, Control_c, 0, 67, 73
1, 77572, Control_c, 0, 67, 74
1, 77587, Control_c, 0, 64, 19
1, 77602, Control_c, 0, 64, 32
1, 77617, Control_c, 0, 64, 44
1, 77622, Note_off_c, 0, 62, 51
1, 77631, Control_c, 0, 64, 52
1, 77641, Note_on_c, 0, 67, 52
1, 77646, Control_c, 0, 64, 57
1, 77646, Control_c, 0, 67, 74
1, 77661, Control_c, 0, 64, 59
1, 77661, Control_c, 0, 67, 75
1, 77676, Control_c, 0, 64, 60
1, 77676, Control_c, 0, 67, 76
1, 77692, Note_off_c, 0, 67, 60
1, 77698, Control_c, 0, 64, 60
1, 77698, Control_c, 0, 67, 77
1, 77713, Control_c, 0, 64, 61
1, 77713, Control_c, 0, 67, 77
1, 77722, Note_on_c, 0, 66, 45
1, 77728, Control_c, 0, 64, 62
1, 77728, Control_c, 0, 67, 78
1, 77743, Control_c, 0, 64, 61
1, 77743, Control_c, 0, 67, 80
1, 77757, Note_off_c, 0, 70, 34
1, 77758, Control_c, 0, 64, 61
1, 77758, Control_c, 0, 67, 81
1, 77765, Note_off_c, 0, 66, 61
1, 77772, Control_c, 0, 64, 60
1, 77772, Control_c, 0, 67, 83
1, 77785, Note_on_c, 0, 67, 60
1, 77787, Control_c, 0, 64, 59
1, 77787, Control_c, 0, 67, 84
1, 77802, Control_c, 0, 64, 58
1, 77802, Control_c, 0, 67, 85
1, 77817, Control_c, 0, 64, 55
1, 77817, Control_c, 0, 67, 87
1, 77821, Note_off_c, 0, 67, 64
1, 77832, Control_c, 0, 64, 52
1, 77832, Control_c, 0, 67, 89
1, 77846, Control_c, 0, 64, 50
1, 77846, Control_c, 0, 67, 91
1, 77861, Control_c, 0, 67, 94
1, 77871, Note_on_c, 0, 69, 50
1, 77873, Note_on_c, 0, 62, 46
1, 77876, Control_c, 0, 64, 52
1, 77876, Control_c, 0, 67, 96
1, 77890, Control_c, 0, 64, 54
1, 77890, Control_c, 0, 67, 97
1, 77899, Note_off_c, 0, 69, 65
1, 77905, Control_c, 0, 64, 57
1, 77905, Control_c, 0, 67, 98
1, 77907, Note_on_c, 0, 70, 62
1, 77920, Control_c, 0, 64, 60
1, 77920, Control_c, 0, 67, 100
1, 77923, Note_off_c, 0, 62, 60
1, 77935, Control_c, 0, 64, 62
1, 77935, Control_c, 0, 67, 101
1, 77948, Note_off_c, 0, 70, 59
1, 77950, Control_c, 0, 64, 63
1, 77950, Control_c, 0, 67, 102
1, 77965, Note_on_c, 0, 66, 47
1, 77966, Control_c, 0, 64, 64
1, 77966, Control_c, 0, 67, 103
1, 77979, Note_on_c, 0, 69, 62
1, 77980, Control_c, 0, 64, 65
1, 77995, Control_c, 0, 64, 66
1, 78001, Note_off_c, 0, 66, 59
1, 78008, Note_on_c, 0, 64, 48
1, 78012, Note_off_c, 0, 69, 65
1, 78040, Control_c, 0, 64, 65
1, 78046, Note_on_c, 0, 67, 52
1, 78054, Note_off_c, 0, 64, 60
1, 78095, Note_off_c, 0, 67, 56
1, 78113, Control_c, 0, 64, 64
1, 78128, Control_c, 0, 64, 63
1, 78131, Note_on_c, 0, 69, 42
1, 78133, Note_on_c, 0, 66, 31
1, 78143, Control_c, 0, 64, 62
1, 78158, Control_c, 0, 64, 60
1, 78173, Control_c, 0, 64, 57
1, 78178, Note_off_c, 0, 69, 60
1, 78180, Note_off_c, 0, 66, 47
1, 78187, Control_c, 0, 64, 52
1, 78202, Control_c, 0, 64, 38
1, 78217, Control_c, 0, 64, 14
1, 78223, Note_on_c, 0, 67, 47
1, 78232, Control_c, 0, 64, 0
1, 78335, Control_c, 0, 64, 20
1, 78350, Control_c, 0, 64, 29
1, 78365, Control_c, 0, 64, 36
1, 78365, Control_c, 0, 67, 102
1, 78379, Control_c, 0, 64, 43
1, 78394, Control_c, 0, 64, 51
1, 78395, Note_on_c, 0, 55, 31
1, 78405, Note_on_c, 0, 58, 43
1, 78409, Control_c, 0, 64, 58
1, 78409, Control_c, 0, 67, 102
1, 78424, Control_c, 0, 64, 62
1, 78447, Control_c, 0, 64, 64
1, 78461, Control_c, 0, 64, 66
1, 78464, Note_off_c, 0, 58, 58
1, 78466, Note_off_c, 0, 55, 55
1, 78476, Control_c, 0, 64, 68
1, 78491, Control_c, 0, 64, 71
1, 78506, Control_c, 0, 64, 72
1, 78506, Control_c, 0, 67, 101
1, 78532, Note_off_c, 0, 67, 52
1, 78580, Control_c, 0, 64, 72
1, 78580, Control_c, 0, 67, 101
1, 78590, Note_on_c, 0, 62, 43
1, 78607, Note_on_c, 0, 58, 39
1, 78609, Control_c, 0, 64, 71
1, 78609, Control_c, 0, 67, 100
1, 78624, Control_c, 0, 64, 70
1, 78654, Control_c, 0, 64, 70
1, 78661, Note_off_c, 0, 58, 43
1, 78665, Note_off_c, 0, 62, 57
1, 78668, Control_c, 0, 64, 69
1, 78683, Control_c, 0, 64, 67
1, 78698, Control_c, 0, 64, 64
1, 78712, Control_c, 0, 64, 61
1, 78727, Control_c, 0, 64, 56
1, 78742, Control_c, 0, 64, 48
1, 78745, Note_on_c, 0, 67, 54
1, 78758, Control_c, 0, 64, 36
1, 78773, Control_c, 0, 64, 19
1, 78788, Control_c, 0, 64, 0
1, 78817, Control_c, 0, 67, 101
1, 78877, Control_c, 0, 64, 10
1, 78883, Note_off_c, 0, 67, 55
1, 78892, Control_c, 0, 64, 17
1, 78907, Control_c, 0, 64, 21
1, 78908, Note_on_c, 0, 70, 43
1, 78922, Control_c, 0, 64, 25
1, 78936, Control_c, 0, 64, 28
1, 78951, Control_c, 0, 64, 31
1, 78966, Control_c, 0, 64, 35
1, 78981, Control_c, 0, 64, 40
1, 78996, Control_c, 0, 64, 44
1, 79010, Control_c, 0, 64, 48
1, 79025, Control_c, 0, 64, 51
1, 79040, Control_c, 0, 64, 55
1, 79055, Control_c, 0, 64, 59
1, 79055, Control_c, 0, 67, 100
1, 79070, Control_c, 0, 64, 63
1, 79075, Note_on_c, 0, 55, 41
1, 79082, Note_on_c, 0, 58, 49
1, 79085, Control_c, 0, 64, 65
1, 79100, Control_c, 0, 64, 67
1, 79100, Control_c, 0, 67, 100
1, 79114, Control_c, 0, 64, 68
1, 79129, Control_c, 0, 64, 69
1, 79129, Control_c, 0, 67, 99
1, 79133, Note_off_c, 0, 58, 57
1, 79144, Control_c, 0, 64, 70
1, 79159, Control_c, 0, 64, 71
1, 79159, Control_c, 0, 67, 99
1, 79192, Note_off_c, 0, 55, 36
1, 79196, Control_c, 0, 67, 98
1, 79210, Control_c, 0, 64, 70
1, 79210, Control_c, 0, 67, 98
1, 79212, Note_off_c, 0, 70, 59
1, 79225, Control_c, 0, 67, 97
1, 79240, Control_c, 0, 67, 97
1, 79255, Control_c, 0, 67, 96
1, 79264, Note_on_c, 0, 58, 54
1, 79264, Note_on_c, 0, 62, 56
1, 79269, Control_c, 0, 64, 70
1, 79269, Control_c, 0, 67, 95
1, 79284, Control_c, 0, 64, 69
1, 79284, Control_c, 0, 67, 93
1, 79299, Control_c, 0, 64, 69
1, 79299, Control_c, 0, 67, 92
1, 79314, Control_c, 0, 64, 68
1, 79314, Control_c, 0, 67, 90
1, 79329, Control_c, 0, 64, 67
1, 79329, Control_c, 0, 67, 88
1, 79344, Control_c, 0, 64, 67
1, 79344, Control_c, 0, 67, 87
1, 79349, Note_off_c, 0, 62, 59
1, 79359, Control_c, 0, 64, 65
1, 79359, Control_c, 0, 67, 85
1, 79359, Note_off_c, 0, 58, 34
1, 79374, Control_c, 0, 64, 64
1, 79374, Control_c, 0, 67, 83
1, 79389, Control_c, 0, 64, 63
1, 79389, Control_c, 0, 67, 81
1, 79404, Control_c, 0, 64, 61
1, 79404, Control_c, 0, 67, 79
1, 79416, Note_on_c, 0, 70, 70
1, 79418, Control_c, 0, 64, 60
1, 79418, Control_c, 0, 67, 77
1, 79433, Control_c, 0, 64, 58
1, 79433, Control_c, 0, 67, 75
1, 79448, Control_c, 0, 64, 56
1, 79448, Control_c, 0, 67, 73
1, 79462, Control_c, 0, 64, 52
1, 79462, Control_c, 0, 67, 70
1, 79477, Control_c, 0, 64, 47
1, 79477, Control_c, 0, 67, 67
1, 79492, Control_c, 0, 64, 39
1, 79492, Control_c, 0, 67, 64
1, 79507, Control_c, 0, 64, 31
1, 79507, Control_c, 0, 67, 61
1, 79522, Control_c, 0, 64, 25
1, 79522, Control_c, 0, 67, 57
1, 79536, Control_c, 0, 64, 24
1, 79536, Control_c, 0, 67, 53
1, 79551, Control_c, 0, 67, 48
1, 79567, Control_c, 0, 67, 43
1, 79582, Control_c, 0, 64, 24
1, 79582, Control_c, 0, 67, 39
1, 79597, Control_c, 0, 64, 25
1, 79597, Control_c, 0, 67, 34
1, 79597, Note_on_c, 0, 75, 63
1, 79607, Note_off_c, 0, 70, 58
1, 79612, Control_c, 0, 64, 27
1, 79612, Control_c, 0, 67, 30
1, 79627, Control_c, 0, 64, 30
1, 79627, Control_c, 0, 67, 26
1, 79641, Control_c, 0, 64, 33
1, 79641, Control_c, 0, 67, 21
1, 79656, Control_c, 0, 64, 35
1, 79656, Control_c, 0, 67, 13
1, 79671, Control_c, 0, 64, 38
1, 79671, Control_c, 0, 67, 0
1, 79686, Control_c, 0, 64, 43
1, 79701, Control_c, 0, 64, 48
1, 79715, Control_c, 0, 64, 51
1, 79730, Control_c, 0, 64, 54
1, 79745, Control_c, 0, 64, 56
1, 79749, Note_on_c, 0, 58, 55
1, 79754, Note_on_c, 0, 55, 48
1, 79759, Control_c, 0, 64, 59
1, 79774, Control_c, 0, 64, 63
1, 79789, Control_c, 0, 64, 66
1, 79804, Control_c, 0, 64, 68
1, 79819, Control_c, 0, 64, 69
1, 79845, Note_off_c, 0, 58, 59
1, 79854, Note_off_c, 0, 75, 53
1, 79862, Note_off_c, 0, 55, 48
1, 79878, Control_c, 0, 64, 69
1, 79893, Control_c, 0, 64, 68
1, 79907, Control_c, 0, 64, 67
1, 79930, Control_c, 0, 64, 67
1, 79937, Note_on_c, 0, 63, 67
1, 79941, Note_on_c, 0, 58, 63
1, 79974, Control_c, 0, 64, 66
1, 79989, Control_c, 0, 64, 66
1, 80004, Control_c, 0, 64, 65
1, 80019, Control_c, 0, 64, 64
1, 80033, Control_c, 0, 64, 63
1, 80040, Note_off_c, 0, 63, 59
1, 80048, Control_c, 0, 64, 62
1, 80063, Control_c, 0, 64, 61
1, 80077, Note_off_c, 0, 58, 36
1, 80078, Control_c, 0, 64, 59
1, 80092, Control_c, 0, 64, 55
1, 80095, Note_on_c, 0, 75, 76
1, 80107, Control_c, 0, 64, 50
1, 80122, Control_c, 0, 64, 45
1, 80137, Control_c, 0, 64, 40
1, 80152, Control_c, 0, 64, 35
1, 80167, Control_c, 0, 64, 31
1, 80182, Control_c, 0, 64, 29
1, 80197, Control_c, 0, 64, 26
1, 80211, Control_c, 0, 64, 24
1, 80226, Control_c, 0, 64, 23
1, 80278, Note_on_c, 0, 79, 80
1, 80300, Control_c, 0, 64, 25
1, 80315, Control_c, 0, 64, 27
1, 80328, Note_off_c, 0, 75, 61
1, 80330, Control_c, 0, 64, 30
1, 80345, Control_c, 0, 64, 32
1, 80361, Control_c, 0, 64, 35
1, 80375, Control_c, 0, 64, 37
1, 80390, Control_c, 0, 64, 39
1, 80405, Control_c, 0, 64, 40
1, 80420, Control_c, 0, 64, 42
1, 80435, Control_c, 0, 64, 43
1, 80445, Note_on_c, 0, 58, 65
1, 80447, Note_on_c, 0, 55, 60
1, 80450, Control_c, 0, 64, 46
1, 80464, Control_c, 0, 64, 49
1, 80479, Control_c, 0, 64, 51
1, 80494, Control_c, 0, 64, 54
1, 80508, Control_c, 0, 64, 58
1, 80518, Note_off_c, 0, 55, 55
1, 80523, Control_c, 0, 64, 63
1, 80536, Note_off_c, 0, 79, 59
1, 80538, Control_c, 0, 64, 66
1, 80541, Note_off_c, 0, 58, 62
1, 80554, Control_c, 0, 64, 68
1, 80569, Control_c, 0, 64, 70
1, 80583, Control_c, 0, 64, 71
1, 80605, Note_on_c, 0, 63, 81
1, 80611, Note_on_c, 0, 58, 66
1, 80643, Control_c, 0, 64, 70
1, 80657, Control_c, 0, 64, 70
1, 80672, Control_c, 0, 64, 69
1, 80694, Control_c, 0, 64, 69
1, 80709, Control_c, 0, 64, 68
1, 80724, Control_c, 0, 64, 68
1, 80739, Control_c, 0, 64, 67
1, 80754, Control_c, 0, 64, 66
1, 80775, Note_off_c, 0, 58, 53
1, 80783, Control_c, 0, 64, 66
1, 80790, Note_on_c, 0, 79, 91
1, 80813, Control_c, 0, 64, 65
1, 80874, Note_off_c, 0, 63, 58
1, 80936, Note_on_c, 0, 53, 56
1, 80961, Control_c, 0, 64, 64
1, 80975, Control_c, 0, 64, 63
1, 80990, Control_c, 0, 64, 58
1, 80998, Note_on_c, 0, 58, 65
1, 80999, Note_on_c, 0, 56, 61
1, 81005, Control_c, 0, 64, 41
1, 81016, Note_on_c, 0, 62, 66
1, 81020, Control_c, 0, 64, 0
1, 81030, Note_on_c, 0, 80, 84
1, 81059, Note_off_c, 0, 79, 62
1, 81109, Control_c, 0, 64, 20
1, 81124, Control_c, 0, 64, 45
1, 81139, Control_c, 0, 64, 55
1, 81150, Note_on_c, 0, 82, 87
1, 81154, Control_c, 0, 64, 58
1, 81155, Note_off_c, 0, 80, 65
1, 81169, Control_c, 0, 64, 59
1, 81199, Control_c, 0, 64, 59
1, 81213, Control_c, 0, 64, 60
1, 81228, Control_c, 0, 64, 60
1, 81233, Note_on_c, 0, 80, 84
1, 81258, Control_c, 0, 64, 61
1, 81273, Control_c, 0, 64, 61
1, 81280, Note_off_c, 0, 82, 62
1, 81288, Control_c, 0, 64, 62
1, 81302, Note_on_c, 0, 79, 84
1, 81302, Control_c, 0, 64, 64
1, 81315, Note_off_c, 0, 80, 66
1, 81317, Control_c, 0, 64, 66
1, 81332, Control_c, 0, 64, 69
1, 81347, Control_c, 0, 64, 70
1, 81353, Note_off_c, 0, 79, 64
1, 81385, Note_on_c, 0, 77, 73
1, 81452, Note_off_c, 0, 77, 65
1, 81456, Note_on_c, 0, 79, 77
1, 81487, Control_c, 0, 64, 70
1, 81502, Control_c, 0, 64, 69
1, 81517, Control_c, 0, 64, 66
1, 81532, Control_c, 0, 64, 63
1, 81535, Note_on_c, 0, 77, 76
1, 81547, Control_c, 0, 64, 60
1, 81550, Note_off_c, 0, 79, 55
1, 81562, Control_c, 0, 64, 56
1, 81577, Control_c, 0, 64, 54
1, 81592, Control_c, 0, 64, 55
1, 81606, Control_c, 0, 64, 58
1, 81607, Note_on_c, 0, 75, 75
1, 81615, Note_off_c, 0, 77, 63
1, 81621, Control_c, 0, 64, 59
1, 81636, Control_c, 0, 64, 58
1, 81657, Note_off_c, 0, 75, 62
1, 81665, Control_c, 0, 64, 58
1, 81677, Note_on_c, 0, 74, 73
1, 81725, Control_c, 0, 64, 57
1, 81739, Control_c, 0, 67, 11
1, 81744, Note_off_c, 0, 74, 61
1, 81754, Control_c, 0, 64, 58
1, 81754, Control_c, 0, 67, 14
1, 81755, Note_on_c, 0, 75, 73
1, 81769, Control_c, 0, 64, 58
1, 81769, Control_c, 0, 67, 18
1, 81784, Control_c, 0, 64, 59
1, 81784, Control_c, 0, 67, 20
1, 81799, Control_c, 0, 64, 60
1, 81799, Control_c, 0, 67, 23
1, 81813, Control_c, 0, 64, 60
1, 81813, Control_c, 0, 67, 27
1, 81822, Note_on_c, 0, 74, 67
1, 81828, Control_c, 0, 64, 61
1, 81828, Control_c, 0, 67, 35
1, 81835, Note_off_c, 0, 75, 53
1, 81843, Control_c, 0, 64, 62
1, 81843, Control_c, 0, 67, 48
1, 81857, Control_c, 0, 64, 63
1, 81857, Control_c, 0, 67, 60
1, 81872, Control_c, 0, 64, 64
1, 81872, Control_c, 0, 67, 72
1, 81887, Control_c, 0, 64, 65
1, 81887, Control_c, 0, 67, 83
1, 81894, Note_on_c, 0, 72, 73
1, 81894, Note_off_c, 0, 74, 64
1, 81902, Control_c, 0, 64, 66
1, 81902, Control_c, 0, 67, 95
1, 81917, Control_c, 0, 64, 68
1, 81917, Control_c, 0, 67, 101
1, 81928, Note_off_c, 0, 72, 66
1, 81931, Control_c, 0, 64, 69
1, 81931, Control_c, 0, 67, 105
1, 81946, Control_c, 0, 67, 106
1, 81955, Note_on_c, 0, 70, 63
1, 81962, Control_c, 0, 67, 106
1, 81985, Note_off_c, 0, 70, 67
1, 81992, Control_c, 0, 64, 69
1, 82022, Control_c, 0, 64, 68
1, 82027, Note_on_c, 0, 72, 72
1, 82036, Control_c, 0, 64, 67
1, 82041, Note_off_c, 0, 62, 43
1, 82051, Control_c, 0, 64, 67
1, 82051, Control_c, 0, 67, 106
1, 82057, Note_off_c, 0, 53, 62
1, 82066, Control_c, 0, 64, 66
1, 82066, Control_c, 0, 67, 105
1, 82080, Control_c, 0, 64, 65
1, 82080, Control_c, 0, 67, 104
1, 82089, Note_off_c, 0, 72, 62
1, 82095, Control_c, 0, 64, 64
1, 82095, Control_c, 0, 67, 103
1, 82095, Note_on_c, 0, 70, 64
1, 82110, Control_c, 0, 64, 64
1, 82110, Control_c, 0, 67, 103
1, 82125, Control_c, 0, 64, 63
1, 82140, Control_c, 0, 64, 62
1, 82140, Control_c, 0, 67, 102
1, 82152, Note_on_c, 0, 68, 62
1, 82153, Note_off_c, 0, 70, 62
1, 82154, Control_c, 0, 64, 59
1, 82164, Note_off_c, 0, 56, 56
1, 82169, Control_c, 0, 64, 49
1, 82191, Control_c, 0, 64, 0
1, 82200, Note_off_c, 0, 58, 37
1, 82203, Note_off_c, 0, 68, 65
1, 82267, Note_on_c, 0, 51, 47
1, 82295, Control_c, 0, 67, 102
1, 82310, Control_c, 0, 67, 101
1, 82325, Control_c, 0, 67, 101
1, 82340, Control_c, 0, 67, 100
1, 82343, Note_on_c, 0, 67, 53
1, 82379, Note_off_c, 0, 67, 64
1, 82393, Note_off_c, 0, 51, 47
1, 82406, Note_on_c, 0, 68, 53
1, 82442, Note_off_c, 0, 68, 67
1, 82481, Note_on_c, 0, 67, 47
1, 82521, Note_off_c, 0, 67, 46
1, 82556, Note_on_c, 0, 55, 41
1, 82637, Note_off_c, 0, 55, 50
1, 82641, Note_on_c, 0, 70, 54
1, 82678, Note_off_c, 0, 70, 65
1, 82706, Note_on_c, 0, 72, 51
1, 82739, Control_c, 0, 67, 101
1, 82754, Note_off_c, 0, 72, 59
1, 82755, Control_c, 0, 67, 101
1, 82784, Note_on_c, 0, 70, 50
1, 82817, Note_off_c, 0, 70, 65
1, 82850, Note_on_c, 0, 58, 53
1, 82963, Note_on_c, 0, 75, 58
1, 83006, Note_off_c, 0, 75, 62
1, 83030, Note_off_c, 0, 58, 41
1, 83045, Note_on_c, 0, 77, 52
1, 83095, Note_off_c, 0, 77, 61
1, 83115, Note_on_c, 0, 75, 59
1, 83136, Note_off_c, 0, 75, 64
1, 83196, Note_on_c, 0, 63, 62
1, 83282, Note_on_c, 0, 79, 66
1, 83296, Control_c, 0, 67, 100
1, 83310, Control_c, 0, 67, 100
1, 83325, Control_c, 0, 67, 99
1, 83335, Note_off_c, 0, 79, 60
1, 83340, Control_c, 0, 67, 99
1, 83355, Note_on_c, 0, 80, 71
1, 83355, Control_c, 0, 67, 98
1, 83399, Control_c, 0, 67, 97
1, 83414, Control_c, 0, 67, 97
1, 83415, Note_off_c, 0, 63, 56
1, 83425, Note_off_c, 0, 80, 63
1, 83428, Note_on_c, 0, 79, 78
1, 83428, Control_c, 0, 67, 96
1, 83443, Control_c, 0, 67, 95
1, 83458, Control_c, 0, 67, 94
1, 83473, Control_c, 0, 67, 91
1, 83474, Note_on_c, 0, 53, 49
1, 83488, Control_c, 0, 64, 15
1, 83488, Control_c, 0, 67, 85
1, 83502, Control_c, 0, 64, 34
1, 83502, Control_c, 0, 67, 75
1, 83517, Control_c, 0, 64, 45
1, 83517, Control_c, 0, 67, 62
1, 83528, Note_on_c, 0, 56, 66
1, 83528, Note_on_c, 0, 58, 70
1, 83529, Note_off_c, 0, 79, 52
1, 83532, Control_c, 0, 64, 56
1, 83532, Control_c, 0, 67, 45
1, 83533, Note_on_c, 0, 62, 73
1, 83542, Note_on_c, 0, 80, 83
1, 83548, Control_c, 0, 64, 63
1, 83548, Control_c, 0, 67, 33
1, 83563, Control_c, 0, 64, 68
1, 83563, Control_c, 0, 67, 24
1, 83578, Control_c, 0, 64, 74
1, 83578, Control_c, 0, 67, 17
1, 83592, Control_c, 0, 64, 76
1, 83592, Control_c, 0, 67, 11
1, 83607, Control_c, 0, 67, 0
1, 83622, Control_c, 0, 64, 76
1, 83637, Control_c, 0, 64, 78
1, 83652, Control_c, 0, 64, 82
1, 83666, Note_on_c, 0, 82, 87
1, 83667, Control_c, 0, 64, 84
1, 83676, Note_off_c, 0, 80, 64
1, 83689, Control_c, 0, 64, 86
1, 83704, Control_c, 0, 64, 86
1, 83759, Note_on_c, 0, 80, 88
1, 83802, Note_off_c, 0, 82, 61
1, 83807, Control_c, 0, 64, 86
1, 83822, Control_c, 0, 64, 85
1, 83823, Note_on_c, 0, 79, 79
1, 83837, Control_c, 0, 64, 85
1, 83847, Note_off_c, 0, 80, 65
1, 83852, Control_c, 0, 64, 84
1, 83867, Control_c, 0, 64, 84
1, 83875, Note_off_c, 0, 79, 65
1, 83881, Control_c, 0, 64, 83
1, 83896, Control_c, 0, 64, 83
1, 83902, Note_on_c, 0, 77, 76
1, 83911, Control_c, 0, 64, 82
1, 83926, Control_c, 0, 64, 81
1, 83941, Control_c, 0, 64, 80
1, 83955, Control_c, 0, 64, 78
1, 83970, Control_c, 0, 64, 76
1, 83975, Note_on_c, 0, 79, 77
1, 83977, Note_off_c, 0, 77, 62
1, 83985, Control_c, 0, 64, 74
1, 84000, Control_c, 0, 64, 70
1, 84015, Control_c, 0, 64, 65
1, 84030, Control_c, 0, 64, 60
1, 84045, Control_c, 0, 64, 54
1, 84054, Note_on_c, 0, 77, 68
1, 84059, Control_c, 0, 64, 48
1, 84067, Note_off_c, 0, 79, 56
1, 84074, Control_c, 0, 64, 47
1, 84089, Control_c, 0, 64, 47
1, 84104, Control_c, 0, 64, 48
1, 84119, Control_c, 0, 64, 47
1, 84131, Note_on_c, 0, 75, 74
1, 84133, Control_c, 0, 64, 46
1, 84142, Note_off_c, 0, 77, 63
1, 84148, Control_c, 0, 64, 44
1, 84163, Control_c, 0, 64, 42
1, 84178, Control_c, 0, 64, 42
1, 84187, Note_off_c, 0, 75, 62
1, 84193, Control_c, 0, 64, 42
1, 84200, Note_on_c, 0, 74, 70
1, 84207, Control_c, 0, 64, 43
1, 84222, Control_c, 0, 64, 44
1, 84237, Control_c, 0, 64, 46
1, 84251, Control_c, 0, 64, 48
1, 84266, Control_c, 0, 64, 49
1, 84268, Note_off_c, 0, 74, 59
1, 84277, Note_on_c, 0, 75, 73
1, 84281, Control_c, 0, 64, 50
1, 84297, Control_c, 0, 64, 52
1, 84312, Control_c, 0, 64, 53
1, 84326, Control_c, 0, 64, 55
1, 84341, Control_c, 0, 64, 55
1, 84356, Note_on_c, 0, 74, 73
1, 84357, Control_c, 0, 64, 56
1, 84362, Note_off_c, 0, 75, 57
1, 84372, Control_c, 0, 64, 58
1, 84387, Control_c, 0, 64, 62
1, 84402, Control_c, 0, 64, 65
1, 84417, Control_c, 0, 64, 67
1, 84431, Note_on_c, 0, 72, 74
1, 84438, Note_off_c, 0, 74, 64
1, 84438, Control_c, 0, 64, 69
1, 84453, Control_c, 0, 64, 70
1, 84468, Control_c, 0, 64, 70
1, 84471, Note_off_c, 0, 72, 65
1, 84483, Control_c, 0, 64, 71
1, 84498, Control_c, 0, 64, 71
1, 84502, Note_on_c, 0, 70, 66
1, 84529, Note_off_c, 0, 70, 67
1, 84572, Note_on_c, 0, 72, 72
1, 84572, Control_c, 0, 64, 71
1, 84587, Control_c, 0, 64, 70
1, 84593, Note_off_c, 0, 53, 58
1, 84602, Control_c, 0, 64, 69
1, 84608, Note_off_c, 0, 62, 51
1, 84617, Control_c, 0, 64, 68
1, 84635, Note_off_c, 0, 58, 56
1, 84641, Note_off_c, 0, 72, 61
1, 84642, Note_on_c, 0, 70, 69
1, 84646, Control_c, 0, 64, 68
1, 84661, Control_c, 0, 64, 67
1, 84663, Note_off_c, 0, 56, 63
1, 84675, Control_c, 0, 64, 67
1, 84690, Control_c, 0, 64, 66
1, 84705, Control_c, 0, 64, 65
1, 84710, Note_on_c, 0, 68, 66
1, 84720, Control_c, 0, 64, 63
1, 84726, Note_off_c, 0, 70, 60
1, 84735, Control_c, 0, 64, 59
1, 84749, Control_c, 0, 64, 50
1, 84755, Note_on_c, 0, 55, 34
1, 84764, Control_c, 0, 64, 31
1, 84766, Note_off_c, 0, 68, 65
1, 84772, Note_on_c, 0, 63, 66
1, 84779, Note_on_c, 0, 58, 51
1, 84779, Control_c, 0, 64, 0
1, 84779, Control_c, 0, 67, 8
1, 84788, Note_on_c, 0, 51, 51
1, 84794, Control_c, 0, 67, 10
1, 84800, Note_on_c, 0, 67, 66
1, 84809, Control_c, 0, 67, 11
1, 84823, Control_c, 0, 64, 19
1, 84823, Control_c, 0, 67, 14
1, 84838, Control_c, 0, 64, 30
1, 84838, Control_c, 0, 67, 16
1, 84845, Note_off_c, 0, 67, 50
1, 84853, Control_c, 0, 64, 40
1, 84853, Control_c, 0, 67, 19
1, 84868, Control_c, 0, 64, 50
1, 84868, Control_c, 0, 67, 24
1, 84872, Note_on_c, 0, 69, 70
1, 84883, Control_c, 0, 64, 57
1, 84883, Control_c, 0, 67, 28
1, 84897, Control_c, 0, 64, 61
1, 84897, Control_c, 0, 67, 31
1, 84912, Control_c, 0, 64, 62
1, 84912, Control_c, 0, 67, 32
1, 84927, Control_c, 0, 64, 63
1, 84933, Note_off_c, 0, 69, 65
1, 84942, Control_c, 0, 64, 64
1, 84942, Control_c, 0, 67, 32
1, 84945, Note_on_c, 0, 70, 74
1, 84957, Control_c, 0, 64, 65
1, 84972, Control_c, 0, 64, 66
1, 85002, Control_c, 0, 67, 31
1, 85009, Note_off_c, 0, 70, 65
1, 85017, Control_c, 0, 67, 28
1, 85019, Note_on_c, 0, 69, 74
1, 85029, Note_off_c, 0, 63, 54
1, 85031, Control_c, 0, 67, 27
1, 85046, Control_c, 0, 67, 27
1, 85061, Control_c, 0, 67, 26
1, 85075, Control_c, 0, 67, 24
1, 85082, Note_off_c, 0, 69, 64
1, 85089, Note_on_c, 0, 70, 72
1, 85090, Control_c, 0, 67, 23
1, 85105, Control_c, 0, 64, 66
1, 85105, Control_c, 0, 67, 22
1, 85120, Control_c, 0, 67, 21
1, 85135, Control_c, 0, 64, 65
1, 85135, Control_c, 0, 67, 20
1, 85136, Note_off_c, 0, 70, 64
1, 85151, Control_c, 0, 64, 65
1, 85151, Control_c, 0, 67, 18
1, 85166, Note_on_c, 0, 71, 73
1, 85166, Control_c, 0, 64, 64
1, 85166, Control_c, 0, 67, 18
1, 85187, Control_c, 0, 64, 62
1, 85202, Control_c, 0, 64, 60
1, 85202, Control_c, 0, 67, 18
1, 85216, Note_off_c, 0, 71, 62
1, 85217, Control_c, 0, 64, 59
1, 85217, Control_c, 0, 67, 19
1, 85232, Control_c, 0, 64, 57
1, 85232, Control_c, 0, 67, 18
1, 85243, Note_on_c, 0, 72, 73
1, 85247, Control_c, 0, 64, 55
1, 85247, Control_c, 0, 67, 17
1, 85261, Control_c, 0, 64, 54
1, 85261, Control_c, 0, 67, 15
1, 85276, Control_c, 0, 64, 53
1, 85276, Control_c, 0, 67, 12
1, 85291, Control_c, 0, 64, 52
1, 85291, Control_c, 0, 67, 0
1, 85297, Note_off_c, 0, 72, 62
1, 85311, Note_off_c, 0, 58, 51
1, 85314, Note_off_c, 0, 55, 36
1, 85320, Note_off_c, 0, 51, 60
1, 85321, Note_on_c, 0, 71, 72
1, 85321, Control_c, 0, 64, 51
1, 85336, Control_c, 0, 64, 49
1, 85351, Control_c, 0, 64, 44
1, 85365, Control_c, 0, 64, 38
1, 85380, Control_c, 0, 64, 34
1, 85380, Note_off_c, 0, 71, 62
1, 85382, Note_on_c, 0, 72, 74
1, 85395, Control_c, 0, 64, 33
1, 85410, Control_c, 0, 64, 35
1, 85425, Control_c, 0, 64, 37
1, 85440, Control_c, 0, 64, 38
1, 85454, Control_c, 0, 64, 38
1, 85457, Note_off_c, 0, 72, 60
1, 85466, Note_on_c, 0, 74, 62
1, 85484, Control_c, 0, 64, 39
1, 85512, Note_off_c, 0, 74, 61
1, 85524, Note_on_c, 0, 75, 69
1, 85543, Control_c, 0, 64, 39
1, 85558, Control_c, 0, 64, 40
1, 85602, Control_c, 0, 64, 40
1, 85607, Note_on_c, 0, 74, 73
1, 85607, Note_off_c, 0, 75, 54
1, 85631, Note_off_c, 0, 74, 70
1, 85632, Control_c, 0, 67, 8
1, 85646, Control_c, 0, 67, 11
1, 85661, Control_c, 0, 67, 13
1, 85676, Control_c, 0, 67, 13
1, 85691, Control_c, 0, 67, 14
1, 85693, Note_on_c, 0, 75, 77
1, 85720, Control_c, 0, 64, 40
1, 85726, Note_off_c, 0, 75, 60
1, 85735, Control_c, 0, 67, 15
1, 85750, Control_c, 0, 64, 39
1, 85750, Control_c, 0, 67, 17
1, 85765, Note_on_c, 0, 78, 72
1, 85765, Control_c, 0, 64, 39
1, 85765, Control_c, 0, 67, 18
1, 85780, Control_c, 0, 67, 19
1, 85795, Control_c, 0, 64, 38
1, 85795, Control_c, 0, 67, 19
1, 85810, Control_c, 0, 64, 38
1, 85810, Control_c, 0, 67, 21
1, 85821, Note_off_c, 0, 78, 63
1, 85824, Control_c, 0, 67, 23
1, 85833, Note_on_c, 0, 79, 67
1, 85839, Control_c, 0, 64, 37
1, 85839, Control_c, 0, 67, 25
1, 85854, Control_c, 0, 64, 36
1, 85854, Control_c, 0, 67, 27
1, 85869, Control_c, 0, 64, 36
1, 85869, Control_c, 0, 67, 28
1, 85884, Control_c, 0, 64, 35
1, 85884, Control_c, 0, 67, 30
1, 85898, Control_c, 0, 67, 33
1, 85902, Note_off_c, 0, 79, 62
1, 85913, Control_c, 0, 64, 35
1, 85913, Control_c, 0, 67, 36
1, 85924, Note_on_c, 0, 78, 68
1, 85935, Control_c, 0, 64, 34
1, 85935, Control_c, 0, 67, 41
1, 85951, Control_c, 0, 64, 34
1, 85951, Control_c, 0, 67, 44
1, 85965, Note_off_c, 0, 78, 66
1, 85966, Control_c, 0, 64, 33
1, 85966, Control_c, 0, 67, 48
1, 85981, Control_c, 0, 64, 32
1, 85981, Control_c, 0, 67, 51
1, 85992, Note_on_c, 0, 79, 61
1, 85996, Control_c, 0, 64, 29
1, 85996, Control_c, 0, 67, 55
1, 86010, Control_c, 0, 64, 23
1, 86010, Control_c, 0, 67, 59
1, 86025, Control_c, 0, 64, 0
1, 86025, Control_c, 0, 67, 63
1, 86040, Control_c, 0, 67, 67
1, 86056, Note_off_c, 0, 79, 59
1, 86070, Note_on_c, 0, 81, 64
1, 86135, Note_off_c, 0, 81, 64
1, 86149, Note_on_c, 0, 82, 68
1, 86218, Note_off_c, 0, 82, 63
1, 86233, Note_on_c, 0, 81, 58
1, 86289, Note_off_c, 0, 81, 60
1, 86308, Note_on_c, 0, 82, 65
1, 86376, Note_off_c, 0, 82, 61
1, 86398, Note_on_c, 0, 81, 52
1, 86442, Note_off_c, 0, 81, 52
1, 86473, Note_on_c, 0, 82, 58
1, 86499, Control_c, 0, 67, 66
1, 86528, Control_c, 0, 67, 66
1, 86541, Note_off_c, 0, 82, 56
1, 86555, Note_on_c, 0, 81, 46
1, 86573, Control_c, 0, 67, 65
1, 86617, Control_c, 0, 67, 65
1, 86620, Note_off_c, 0, 81, 56
1, 86632, Control_c, 0, 67, 64
1, 86646, Control_c, 0, 64, 27
1, 86653, Note_on_c, 0, 82, 52
1, 86661, Control_c, 0, 64, 51
1, 86661, Control_c, 0, 67, 64
1, 86683, Control_c, 0, 64, 60
1, 86683, Control_c, 0, 67, 63
1, 86698, Control_c, 0, 64, 63
1, 86698, Control_c, 0, 67, 62
1, 86713, Control_c, 0, 64, 66
1, 86713, Control_c, 0, 67, 61
1, 86728, Control_c, 0, 64, 69
1, 86728, Control_c, 0, 67, 59
1, 86743, Control_c, 0, 64, 73
1, 86743, Control_c, 0, 67, 58
1, 86747, Note_off_c, 0, 82, 63
1, 86758, Control_c, 0, 64, 76
1, 86758, Control_c, 0, 67, 58
1, 86773, Control_c, 0, 64, 78
1, 86773, Control_c, 0, 67, 56
1, 86788, Control_c, 0, 64, 78
1, 86788, Control_c, 0, 67, 54
1, 86803, Control_c, 0, 67, 51
1, 86818, Control_c, 0, 67, 46
1, 86832, Control_c, 0, 67, 40
1, 86847, Control_c, 0, 67, 35
1, 86862, Control_c, 0, 64, 78
1, 86862, Control_c, 0, 67, 28
1, 86877, Control_c, 0, 64, 76
1, 86877, Control_c, 0, 67, 21
1, 86892, Control_c, 0, 64, 74
1, 86892, Control_c, 0, 67, 13
1, 86907, Control_c, 0, 64, 70
1, 86907, Control_c, 0, 67, 0
1, 86921, Control_c, 0, 64, 67
1, 86936, Control_c, 0, 64, 63
1, 86951, Control_c, 0, 64, 58
1, 86966, Control_c, 0, 64, 52
1, 86981, Control_c, 0, 64, 48
1, 86996, Control_c, 0, 64, 47
1, 87011, Control_c, 0, 64, 49
1, 87020, Note_on_c, 0, 67, 43
1, 87025, Control_c, 0, 64, 52
1, 87038, Note_on_c, 0, 70, 58
1, 87040, Control_c, 0, 64, 57
1, 87044, Note_on_c, 0, 72, 64
1, 87046, Note_on_c, 0, 55, 73
1, 87052, Note_on_c, 0, 43, 70
1, 87055, Control_c, 0, 64, 63
1, 87056, Note_on_c, 0, 76, 88
1, 87069, Control_c, 0, 64, 68
1, 87074, Note_off_c, 0, 55, 66
1, 87083, Note_off_c, 0, 43, 63
1, 87084, Control_c, 0, 64, 75
1, 87099, Control_c, 0, 64, 83
1, 87108, Note_off_c, 0, 67, 56
1, 87114, Control_c, 0, 64, 87
1, 87129, Control_c, 0, 64, 89
1, 87143, Control_c, 0, 64, 90
1, 87167, Note_off_c, 0, 76, 62
1, 87183, Note_off_c, 0, 72, 32
1, 87217, Note_off_c, 0, 70, 24
1, 87217, Control_c, 0, 64, 89
1, 87232, Control_c, 0, 64, 87
1, 87247, Control_c, 0, 64, 84
1, 87262, Control_c, 0, 64, 79
1, 87276, Control_c, 0, 64, 74
1, 87292, Control_c, 0, 64, 69
1, 87307, Control_c, 0, 64, 63
1, 87322, Control_c, 0, 64, 50
1, 87337, Control_c, 0, 64, 0
1, 87425, Note_on_c, 0, 69, 52
1, 87440, Note_on_c, 0, 72, 65
1, 87448, Control_c, 0, 64, 42
1, 87455, Note_on_c, 0, 41, 58
1, 87463, Control_c, 0, 64, 61
1, 87464, Note_on_c, 0, 77, 76
1, 87469, Note_on_c, 0, 53, 30
1, 87477, Control_c, 0, 64, 67
1, 87479, Note_off_c, 0, 69, 65
1, 87492, Note_off_c, 0, 72, 64
1, 87492, Control_c, 0, 64, 72
1, 87493, Note_off_c, 0, 77, 63
1, 87495, Note_off_c, 0, 41, 61
1, 87506, Note_off_c, 0, 53, 47
1, 87507, Control_c, 0, 64, 76
1, 87522, Control_c, 0, 64, 79
1, 87537, Control_c, 0, 64, 81
1, 87553, Control_c, 0, 64, 82
1, 87568, Control_c, 0, 64, 82
1, 87627, Control_c, 0, 67, 10
1, 87642, Control_c, 0, 67, 15
1, 87656, Control_c, 0, 67, 21
1, 87671, Control_c, 0, 67, 24
1, 87686, Control_c, 0, 67, 27
1, 87700, Control_c, 0, 67, 32
1, 87715, Control_c, 0, 67, 36
1, 87730, Control_c, 0, 64, 82
1, 87730, Control_c, 0, 67, 39
1, 87745, Control_c, 0, 64, 81
1, 87745, Control_c, 0, 67, 42
1, 87760, Control_c, 0, 64, 81
1, 87760, Control_c, 0, 67, 46
1, 87774, Control_c, 0, 64, 79
1, 87774, Control_c, 0, 67, 50
1, 87789, Control_c, 0, 64, 78
1, 87789, Control_c, 0, 67, 54
1, 87804, Control_c, 0, 64, 76
1, 87804, Control_c, 0, 67, 57
1, 87819, Control_c, 0, 64, 73
1, 87819, Control_c, 0, 67, 59
1, 87834, Control_c, 0, 64, 69
1, 87834, Control_c, 0, 67, 61
1, 87849, Control_c, 0, 64, 65
1, 87849, Control_c, 0, 67, 64
1, 87863, Control_c, 0, 64, 59
1, 87863, Control_c, 0, 67, 67
1, 87878, Control_c, 0, 64, 50
1, 87878, Control_c, 0, 67, 70
1, 87893, Control_c, 0, 64, 42
1, 87893, Control_c, 0, 67, 71
1, 87908, Control_c, 0, 64, 34
1, 87908, Control_c, 0, 67, 73
1, 87923, Control_c, 0, 64, 0
1, 87923, Control_c, 0, 67, 74
1, 87938, Control_c, 0, 67, 74
1, 88071, Control_c, 0, 67, 74
1, 88086, Control_c, 0, 67, 73
1, 88087, Note_on_c, 0, 82, 67
1, 88100, Control_c, 0, 67, 72
1, 88102, Note_on_c, 0, 72, 43
1, 88105, Note_on_c, 0, 70, 46
1, 88115, Control_c, 0, 67, 71
1, 88130, Control_c, 0, 67, 70
1, 88137, Note_off_c, 0, 72, 51
1, 88139, Note_off_c, 0, 82, 64
1, 88145, Control_c, 0, 67, 68
1, 88151, Note_off_c, 0, 70, 63
1, 88159, Note_on_c, 0, 79, 59
1, 88160, Control_c, 0, 67, 68
1, 88182, Control_c, 0, 67, 67
1, 88208, Note_off_c, 0, 79, 59
1, 88216, Note_on_c, 0, 76, 51
1, 88226, Control_c, 0, 67, 67
1, 88241, Control_c, 0, 67, 65
1, 88256, Control_c, 0, 67, 64
1, 88260, Note_off_c, 0, 76, 47
1, 88271, Control_c, 0, 67, 62
1, 88286, Control_c, 0, 67, 60
1, 88299, Note_on_c, 0, 77, 54
1, 88300, Control_c, 0, 67, 58
1, 88315, Control_c, 0, 64, 26
1, 88315, Control_c, 0, 67, 56
1, 88317, Note_on_c, 0, 69, 37
1, 88317, Note_on_c, 0, 72, 35
1, 88330, Control_c, 0, 64, 50
1, 88330, Control_c, 0, 67, 55
1, 88346, Control_c, 0, 64, 59
1, 88346, Control_c, 0, 67, 54
1, 88361, Control_c, 0, 64, 62
1, 88376, Control_c, 0, 64, 66
1, 88376, Control_c, 0, 67, 53
1, 88388, Note_off_c, 0, 77, 58
1, 88391, Control_c, 0, 64, 70
1, 88405, Control_c, 0, 64, 74
1, 88420, Control_c, 0, 64, 75
1, 88435, Control_c, 0, 67, 54
1, 88436, Note_off_c, 0, 69, 37
1, 88450, Control_c, 0, 67, 55
1, 88452, Note_off_c, 0, 72, 43
1, 88465, Control_c, 0, 67, 56
1, 88479, Control_c, 0, 67, 56
1, 88494, Control_c, 0, 67, 57
1, 88509, Control_c, 0, 64, 74
1, 88509, Control_c, 0, 67, 57
1, 88523, Control_c, 0, 64, 74
1, 88523, Control_c, 0, 67, 58
1, 88538, Control_c, 0, 64, 73
1, 88538, Control_c, 0, 67, 59
1, 88553, Control_c, 0, 64, 72
1, 88553, Control_c, 0, 67, 60
1, 88568, Control_c, 0, 64, 71
1, 88568, Control_c, 0, 67, 62
1, 88583, Control_c, 0, 64, 69
1, 88597, Control_c, 0, 64, 67
1, 88597, Control_c, 0, 67, 62
1, 88612, Control_c, 0, 64, 65
1, 88612, Control_c, 0, 67, 63
1, 88627, Control_c, 0, 64, 63
1, 88627, Control_c, 0, 67, 63
1, 88641, Control_c, 0, 64, 59
1, 88656, Control_c, 0, 64, 54
1, 88671, Control_c, 0, 64, 44
1, 88671, Control_c, 0, 67, 64
1, 88686, Control_c, 0, 64, 33
1, 88701, Control_c, 0, 64, 20
1, 88716, Control_c, 0, 64, 0
1, 88946, Control_c, 0, 64, 10
1, 88952, Note_on_c, 0, 82, 49
1, 88960, Control_c, 0, 64, 12
1, 88975, Control_c, 0, 67, 63
1, 88977, Note_on_c, 0, 70, 38
1, 88986, Note_on_c, 0, 72, 39
1, 89018, Note_off_c, 0, 82, 59
1, 89028, Note_off_c, 0, 72, 50
1, 89029, Note_off_c, 0, 70, 60
1, 89043, Note_on_c, 0, 79, 44
1, 89079, Control_c, 0, 67, 63
1, 89104, Note_off_c, 0, 79, 56
1, 89107, Note_on_c, 0, 76, 38
1, 89123, Control_c, 0, 67, 62
1, 89154, Control_c, 0, 64, 14
1, 89162, Note_off_c, 0, 76, 45
1, 89169, Control_c, 0, 64, 21
1, 89184, Control_c, 0, 64, 27
1, 89196, Note_on_c, 0, 77, 44
1, 89199, Control_c, 0, 64, 33
1, 89213, Control_c, 0, 64, 40
1, 89218, Note_on_c, 0, 72, 24
1, 89228, Control_c, 0, 64, 46
1, 89228, Control_c, 0, 67, 62
1, 89229, Note_on_c, 0, 69, 26
1, 89243, Control_c, 0, 64, 52
1, 89258, Control_c, 0, 64, 57
1, 89272, Control_c, 0, 64, 60
1, 89287, Control_c, 0, 64, 63
1, 89287, Control_c, 0, 67, 61
1, 89302, Control_c, 0, 64, 65
1, 89317, Control_c, 0, 64, 68
1, 89323, Note_off_c, 0, 77, 54
1, 89332, Control_c, 0, 64, 71
1, 89346, Control_c, 0, 64, 72
1, 89346, Control_c, 0, 67, 61
1, 89406, Control_c, 0, 64, 71
1, 89421, Note_off_c, 0, 72, 40
1, 89433, Note_off_c, 0, 69, 46
1, 89435, Control_c, 0, 64, 70
1, 89450, Control_c, 0, 64, 70
1, 89464, Control_c, 0, 64, 69
1, 89479, Control_c, 0, 64, 68
1, 89494, Control_c, 0, 64, 68
1, 89509, Control_c, 0, 64, 67
1, 89524, Control_c, 0, 64, 66
1, 89537, Control_c, 0, 64, 65
1, 89552, Control_c, 0, 64, 64
1, 89567, Control_c, 0, 64, 63
1, 89582, Control_c, 0, 64, 62
1, 89597, Control_c, 0, 64, 61
1, 89611, Control_c, 0, 64, 59
1, 89626, Control_c, 0, 64, 58
1, 89641, Control_c, 0, 64, 57
1, 89678, Control_c, 0, 64, 57
1, 89693, Control_c, 0, 64, 56
1, 89708, Control_c, 0, 64, 55
1, 89723, Control_c, 0, 64, 53
1, 89738, Control_c, 0, 64, 51
1, 89752, Control_c, 0, 64, 48
1, 89767, Control_c, 0, 64, 45
1, 89782, Control_c, 0, 64, 42
1, 89797, Control_c, 0, 64, 39
1, 89812, Control_c, 0, 64, 38
1, 89900, Control_c, 0, 64, 40
1, 89915, Control_c, 0, 64, 42
1, 89930, Control_c, 0, 64, 44
1, 89946, Control_c, 0, 64, 45
1, 89961, Control_c, 0, 64, 46
1, 89975, Control_c, 0, 64, 48
1, 89975, Control_c, 0, 67, 60
1, 89990, Control_c, 0, 64, 50
1, 90005, Control_c, 0, 64, 52
1, 90009, Note_on_c, 0, 78, 31
1, 90020, Control_c, 0, 64, 53
1, 90035, Control_c, 0, 64, 54
1, 90049, Control_c, 0, 64, 55
1, 90064, Control_c, 0, 64, 56
1, 90079, Control_c, 0, 64, 58
1, 90093, Control_c, 0, 64, 60
1, 90108, Control_c, 0, 64, 62
1, 90123, Control_c, 0, 64, 63
1, 90131, Note_off_c, 0, 78, 51
1, 90137, Note_on_c, 0, 79, 45
1, 90138, Control_c, 0, 64, 64
1, 90153, Control_c, 0, 64, 65
1, 90168, Control_c, 0, 64, 66
1, 90168, Control_c, 0, 67, 60
1, 90183, Control_c, 0, 64, 68
1, 90197, Control_c, 0, 64, 69
1, 90212, Control_c, 0, 64, 71
1, 90227, Control_c, 0, 64, 72
1, 90242, Control_c, 0, 64, 72
1, 90257, Control_c, 0, 67, 59
1, 90258, Note_on_c, 0, 76, 58
1, 90313, Note_off_c, 0, 79, 43
1, 90317, Control_c, 0, 67, 59
1, 90354, Note_off_c, 0, 76, 59
1, 90361, Control_c, 0, 67, 58
1, 90366, Note_on_c, 0, 77, 50
1, 90376, Control_c, 0, 67, 57
1, 90391, Control_c, 0, 67, 56
1, 90406, Control_c, 0, 67, 55
1, 90427, Control_c, 0, 67, 53
1, 90442, Control_c, 0, 67, 52
1, 90455, Note_on_c, 0, 74, 58
1, 90457, Control_c, 0, 67, 47
1, 90460, Note_off_c, 0, 77, 62
1, 90472, Control_c, 0, 67, 40
1, 90487, Control_c, 0, 67, 29
1, 90502, Control_c, 0, 64, 72
1, 90502, Control_c, 0, 67, 16
1, 90516, Control_c, 0, 67, 0
1, 90533, Note_off_c, 0, 74, 63
1, 90546, Control_c, 0, 64, 71
1, 90551, Note_on_c, 0, 75, 57
1, 90580, Note_off_c, 0, 75, 64
1, 90599, Note_on_c, 0, 73, 57
1, 90635, Control_c, 0, 64, 71
1, 90665, Note_off_c, 0, 73, 62
1, 90702, Note_on_c, 0, 74, 56
1, 90733, Note_off_c, 0, 74, 67
1, 90755, Control_c, 0, 64, 70
1, 90763, Note_on_c, 0, 71, 63
1, 90770, Control_c, 0, 64, 70
1, 90825, Note_off_c, 0, 71, 44
1, 90843, Control_c, 0, 64, 69
1, 90844, Note_on_c, 0, 72, 62
1, 90873, Control_c, 0, 64, 69
1, 90888, Control_c, 0, 64, 68
1, 90903, Control_c, 0, 64, 68
1, 90917, Control_c, 0, 64, 67
1, 90932, Control_c, 0, 64, 66
1, 90947, Control_c, 0, 64, 64
1, 90951, Note_on_c, 0, 58, 48
1, 90962, Control_c, 0, 64, 64
1, 90977, Control_c, 0, 64, 62
1, 90991, Control_c, 0, 64, 58
1, 90993, Note_on_c, 0, 62, 35
1, 91006, Note_off_c, 0, 72, 59
1, 91006, Control_c, 0, 64, 50
1, 91021, Control_c, 0, 64, 36
1, 91029, Note_on_c, 0, 70, 52
1, 91035, Control_c, 0, 64, 0
1, 91080, Control_c, 0, 64, 21
1, 91095, Control_c, 0, 64, 35
1, 91110, Control_c, 0, 64, 45
1, 91122, Note_off_c, 0, 70, 61
1, 91125, Control_c, 0, 64, 51
1, 91134, Note_on_c, 0, 72, 60
1, 91139, Control_c, 0, 64, 57
1, 91162, Control_c, 0, 64, 60
1, 91177, Control_c, 0, 64, 63
1, 91191, Control_c, 0, 64, 65
1, 91198, Note_off_c, 0, 72, 63
1, 91206, Control_c, 0, 64, 66
1, 91221, Control_c, 0, 64, 68
1, 91231, Note_on_c, 0, 70, 55
1, 91235, Control_c, 0, 64, 69
1, 91260, Note_off_c, 0, 70, 64
1, 91271, Note_on_c, 0, 72, 62
1, 91306, Note_off_c, 0, 72, 65
1, 91310, Control_c, 0, 64, 69
1, 91321, Note_on_c, 0, 70, 70
1, 91350, Note_off_c, 0, 70, 66
1, 91373, Note_on_c, 0, 72, 64
1, 91405, Note_off_c, 0, 72, 65
1, 91426, Note_on_c, 0, 70, 72
1, 91473, Note_off_c, 0, 62, 43
1, 91473, Control_c, 0, 64, 69
1, 91474, Note_off_c, 0, 70, 59
1, 91482, Note_on_c, 0, 72, 63
1, 91503, Control_c, 0, 64, 68
1, 91517, Control_c, 0, 64, 68
1, 91528, Note_off_c, 0, 72, 62
1, 91532, Control_c, 0, 64, 67
1, 91545, Note_on_c, 0, 74, 58
1, 91563, Control_c, 0, 64, 66
1, 91578, Control_c, 0, 64, 65
1, 91584, Note_off_c, 0, 58, 42
1, 91593, Control_c, 0, 64, 64
1, 91596, Note_on_c, 0, 63, 46
1, 91601, Note_off_c, 0, 74, 61
1, 91607, Control_c, 0, 64, 62
1, 91609, Note_on_c, 0, 70, 66
1, 91622, Control_c, 0, 64, 59
1, 91624, Note_on_c, 0, 60, 42
1, 91637, Control_c, 0, 64, 54
1, 91652, Control_c, 0, 64, 48
1, 91666, Control_c, 0, 64, 42
1, 91681, Control_c, 0, 64, 37
1, 91696, Control_c, 0, 64, 35
1, 91711, Control_c, 0, 64, 39
1, 91712, Note_off_c, 0, 70, 61
1, 91724, Note_on_c, 0, 69, 72
1, 91726, Control_c, 0, 64, 46
1, 91740, Control_c, 0, 64, 51
1, 91755, Control_c, 0, 64, 53
1, 91770, Control_c, 0, 64, 54
1, 91785, Control_c, 0, 64, 56
1, 91800, Control_c, 0, 64, 58
1, 91814, Control_c, 0, 64, 58
1, 91822, Note_on_c, 0, 72, 73
1, 91836, Note_off_c, 0, 69, 64
1, 91858, Control_c, 0, 64, 58
1, 91873, Control_c, 0, 64, 57
1, 91888, Control_c, 0, 64, 57
1, 91916, Note_on_c, 0, 70, 75
1, 91940, Control_c, 0, 64, 56
1, 91941, Note_off_c, 0, 72, 59
1, 91955, Control_c, 0, 64, 56
1, 91970, Control_c, 0, 64, 55
1, 91985, Control_c, 0, 64, 54
1, 92000, Control_c, 0, 64, 52
1, 92010, Note_off_c, 0, 70, 62
1, 92014, Control_c, 0, 64, 47
1, 92023, Note_on_c, 0, 69, 70
1, 92029, Control_c, 0, 64, 30
1, 92044, Control_c, 0, 64, 0
1, 92103, Note_off_c, 0, 69, 64
1, 92115, Note_on_c, 0, 75, 68
1, 92163, Note_off_c, 0, 60, 45
1, 92195, Note_on_c, 0, 65, 40
1, 92215, Note_on_c, 0, 62, 32
1, 92220, Note_on_c, 0, 72, 62
1, 92228, Note_off_c, 0, 63, 40
1, 92228, Note_off_c, 0, 75, 56
1, 92293, Note_off_c, 0, 72, 63
1, 92314, Note_on_c, 0, 70, 65
1, 92388, Note_off_c, 0, 70, 61
1, 92410, Note_on_c, 0, 74, 60
1, 92484, Note_off_c, 0, 74, 61
1, 92499, Note_on_c, 0, 72, 59
1, 92557, Note_off_c, 0, 72, 59
1, 92585, Note_on_c, 0, 70, 53
1, 92672, Note_off_c, 0, 70, 58
1, 92688, Control_c, 0, 64, 19
1, 92695, Note_on_c, 0, 77, 49
1, 92703, Control_c, 0, 64, 29
1, 92718, Control_c, 0, 64, 35
1, 92733, Control_c, 0, 64, 41
1, 92748, Control_c, 0, 64, 45
1, 92762, Control_c, 0, 64, 49
1, 92770, Note_off_c, 0, 77, 58
1, 92777, Control_c, 0, 64, 53
1, 92792, Control_c, 0, 64, 57
1, 92796, Note_on_c, 0, 74, 47
1, 92806, Control_c, 0, 64, 61
1, 92821, Control_c, 0, 64, 64
1, 92836, Control_c, 0, 64, 66
1, 92851, Control_c, 0, 64, 69
1, 92866, Control_c, 0, 64, 72
1, 92881, Control_c, 0, 64, 75
1, 92895, Control_c, 0, 64, 76
1, 92925, Control_c, 0, 64, 77
1, 92933, Note_off_c, 0, 74, 36
1, 92968, Note_off_c, 0, 65, 41
1, 92982, Note_off_c, 0, 62, 55
1, 93044, Control_c, 0, 64, 76
1, 93059, Control_c, 0, 64, 76
1, 93074, Control_c, 0, 64, 75
1, 93088, Control_c, 0, 64, 73
1, 93103, Control_c, 0, 64, 69
1, 93118, Control_c, 0, 64, 64
1, 93134, Control_c, 0, 64, 55
1, 93149, Control_c, 0, 64, 42
1, 93163, Control_c, 0, 64, 26
1, 93178, Control_c, 0, 64, 18
1, 93267, Control_c, 0, 64, 19
1, 93283, Control_c, 0, 64, 21
1, 93298, Control_c, 0, 64, 22
1, 93312, Control_c, 0, 64, 23
1, 93327, Control_c, 0, 64, 25
1, 93342, Control_c, 0, 64, 29
1, 93357, Control_c, 0, 64, 37
1, 93372, Control_c, 0, 64, 45
1, 93386, Control_c, 0, 64, 53
1, 93399, Note_on_c, 0, 70, 58
1, 93401, Control_c, 0, 64, 61
1, 93414, Note_on_c, 0, 75, 69
1, 93422, Note_on_c, 0, 79, 80
1, 93423, Control_c, 0, 64, 67
1, 93438, Control_c, 0, 64, 72
1, 93438, Note_off_c, 0, 70, 66
1, 93444, Note_on_c, 0, 51, 33
1, 93453, Control_c, 0, 64, 75
1, 93453, Note_off_c, 0, 75, 59
1, 93455, Note_off_c, 0, 79, 61
1, 93468, Control_c, 0, 64, 76
1, 93483, Note_off_c, 0, 51, 51
1, 93497, Control_c, 0, 64, 75
1, 93512, Control_c, 0, 64, 74
1, 93527, Control_c, 0, 64, 72
1, 93542, Control_c, 0, 64, 70
1, 93557, Control_c, 0, 64, 67
1, 93572, Control_c, 0, 64, 64
1, 93586, Control_c, 0, 64, 62
1, 93601, Control_c, 0, 64, 57
1, 93616, Control_c, 0, 64, 47
1, 93631, Control_c, 0, 64, 27
1, 93645, Control_c, 0, 64, 0
1, 93734, Control_c, 0, 64, 14
1, 93746, Note_on_c, 0, 70, 53
1, 93749, Control_c, 0, 64, 41
1, 93751, Note_on_c, 0, 74, 56
1, 93757, Note_on_c, 0, 77, 76
1, 93764, Control_c, 0, 64, 55
1, 93778, Note_off_c, 0, 70, 65
1, 93779, Control_c, 0, 64, 62
1, 93783, Note_on_c, 0, 58, 61
1, 93785, Note_off_c, 0, 74, 66
1, 93787, Note_on_c, 0, 46, 51
1, 93793, Control_c, 0, 64, 66
1, 93795, Note_off_c, 0, 77, 63
1, 93808, Control_c, 0, 64, 70
1, 93818, Note_off_c, 0, 46, 61
1, 93818, Note_off_c, 0, 58, 65
1, 93823, Control_c, 0, 64, 72
1, 93837, Control_c, 0, 64, 73
1, 93852, Control_c, 0, 64, 74
1, 93912, Control_c, 0, 64, 73
1, 93957, Control_c, 0, 64, 73
1, 94001, Control_c, 0, 64, 72
1, 94016, Control_c, 0, 64, 71
1, 94031, Control_c, 0, 64, 71
1, 94046, Control_c, 0, 64, 70
1, 94061, Control_c, 0, 64, 69
1, 94076, Control_c, 0, 64, 68
1, 94091, Control_c, 0, 64, 67
1, 94105, Control_c, 0, 64, 66
1, 94111, Note_on_c, 0, 77, 57
1, 94120, Control_c, 0, 64, 65
1, 94135, Control_c, 0, 64, 64
1, 94150, Control_c, 0, 64, 62
1, 94172, Control_c, 0, 64, 57
1, 94176, Note_off_c, 0, 77, 58
1, 94183, Note_on_c, 0, 82, 70
1, 94187, Control_c, 0, 64, 48
1, 94202, Control_c, 0, 64, 38
1, 94216, Control_c, 0, 64, 32
1, 94231, Control_c, 0, 64, 30
1, 94246, Control_c, 0, 64, 29
1, 94248, Note_on_c, 0, 81, 77
1, 94252, Note_off_c, 0, 82, 64
1, 94260, Control_c, 0, 64, 27
1, 94275, Control_c, 0, 64, 26
1, 94290, Control_c, 0, 67, 8
1, 94305, Control_c, 0, 67, 12
1, 94317, Note_on_c, 0, 82, 83
1, 94320, Control_c, 0, 67, 18
1, 94332, Note_off_c, 0, 81, 64
1, 94335, Control_c, 0, 67, 27
1, 94350, Control_c, 0, 67, 36
1, 94365, Control_c, 0, 67, 42
1, 94380, Control_c, 0, 67, 46
1, 94394, Note_off_c, 0, 82, 63
1, 94394, Control_c, 0, 67, 47
1, 94397, Note_on_c, 0, 86, 80
1, 94424, Control_c, 0, 67, 47
1, 94454, Control_c, 0, 67, 46
1, 94467, Note_on_c, 0, 82, 71
1, 94468, Control_c, 0, 67, 44
1, 94472, Note_off_c, 0, 86, 59
1, 94483, Control_c, 0, 67, 43
1, 94498, Control_c, 0, 67, 42
1, 94513, Control_c, 0, 67, 42
1, 94528, Control_c, 0, 64, 26
1, 94535, Note_on_c, 0, 81, 69
1, 94542, Note_off_c, 0, 82, 63
1, 94542, Control_c, 0, 64, 28
1, 94557, Control_c, 0, 64, 30
1, 94572, Control_c, 0, 64, 33
1, 94572, Control_c, 0, 67, 41
1, 94586, Control_c, 0, 64, 37
1, 94586, Control_c, 0, 67, 40
1, 94587, Note_off_c, 0, 81, 65
1, 94601, Control_c, 0, 64, 39
1, 94601, Control_c, 0, 67, 38
1, 94607, Note_on_c, 0, 82, 67
1, 94616, Control_c, 0, 64, 42
1, 94616, Control_c, 0, 67, 35
1, 94631, Control_c, 0, 64, 45
1, 94631, Control_c, 0, 67, 33
1, 94633, Note_off_c, 0, 82, 68
1, 94646, Control_c, 0, 64, 51
1, 94646, Control_c, 0, 67, 30
1, 94660, Control_c, 0, 64, 57
1, 94660, Control_c, 0, 67, 27
1, 94675, Control_c, 0, 64, 61
1, 94675, Control_c, 0, 67, 23
1, 94690, Control_c, 0, 64, 64
1, 94690, Control_c, 0, 67, 19
1, 94705, Control_c, 0, 64, 65
1, 94705, Control_c, 0, 67, 16
1, 94720, Control_c, 0, 64, 67
1, 94720, Control_c, 0, 67, 15
1, 94728, Note_on_c, 0, 41, 38
1, 94730, Note_on_c, 0, 53, 38
1, 94736, Control_c, 0, 64, 70
1, 94736, Control_c, 0, 67, 16
1, 94742, Note_on_c, 0, 77, 58
1, 94745, Note_on_c, 0, 74, 48
1, 94750, Control_c, 0, 64, 73
1, 94765, Control_c, 0, 64, 73
1, 94780, Note_off_c, 0, 41, 45
1, 94780, Control_c, 0, 67, 16
1, 94795, Control_c, 0, 64, 72
1, 94795, Control_c, 0, 67, 18
1, 94802, Note_off_c, 0, 53, 61
1, 94810, Control_c, 0, 64, 71
1, 94810, Control_c, 0, 67, 20
1, 94824, Control_c, 0, 64, 69
1, 94824, Control_c, 0, 67, 20
1, 94829, Note_off_c, 0, 74, 49
1, 94832, Note_off_c, 0, 77, 53
1, 94839, Control_c, 0, 64, 67
1, 94839, Control_c, 0, 67, 22
1, 94854, Control_c, 0, 64, 64
1, 94854, Control_c, 0, 67, 22
1, 94869, Control_c, 0, 64, 59
1, 94869, Control_c, 0, 67, 23
1, 94882, Note_on_c, 0, 75, 53
1, 94883, Control_c, 0, 64, 51
1, 94883, Control_c, 0, 67, 24
1, 94884, Note_on_c, 0, 72, 54
1, 94906, Control_c, 0, 64, 40
1, 94906, Control_c, 0, 67, 25
1, 94921, Control_c, 0, 64, 25
1, 94921, Control_c, 0, 67, 27
1, 94925, Note_off_c, 0, 75, 63
1, 94934, Note_off_c, 0, 72, 61
1, 94936, Control_c, 0, 64, 0
1, 94936, Control_c, 0, 67, 29
1, 94951, Control_c, 0, 67, 31
1, 94965, Control_c, 0, 67, 33
1, 94980, Control_c, 0, 67, 35
1, 94995, Control_c, 0, 67, 38
1, 95009, Control_c, 0, 67, 43
1, 95024, Control_c, 0, 67, 46
1, 95039, Control_c, 0, 67, 48
1, 95054, Control_c, 0, 64, 10
1, 95054, Control_c, 0, 67, 50
1, 95069, Control_c, 0, 64, 33
1, 95069, Control_c, 0, 67, 53
1, 95080, Note_on_c, 0, 74, 43
1, 95083, Control_c, 0, 64, 46
1, 95083, Control_c, 0, 67, 55
1, 95089, Note_on_c, 0, 70, 38
1, 95098, Control_c, 0, 64, 56
1, 95098, Control_c, 0, 67, 57
1, 95113, Control_c, 0, 64, 62
1, 95113, Control_c, 0, 67, 59
1, 95116, Note_on_c, 0, 46, 33
1, 95116, Note_on_c, 0, 58, 24
1, 95128, Control_c, 0, 64, 66
1, 95128, Control_c, 0, 67, 61
1, 95143, Control_c, 0, 64, 69
1, 95143, Control_c, 0, 67, 63
1, 95158, Control_c, 0, 64, 72
1, 95158, Control_c, 0, 67, 65
1, 95173, Control_c, 0, 64, 73
1, 95173, Control_c, 0, 67, 68
1, 95176, Note_off_c, 0, 74, 55
1, 95188, Control_c, 0, 64, 74
1, 95188, Control_c, 0, 67, 71
1, 95202, Control_c, 0, 67, 73
1, 95214, Note_off_c, 0, 46, 35
1, 95217, Control_c, 0, 67, 75
1, 95232, Control_c, 0, 67, 78
1, 95236, Note_off_c, 0, 58, 46
1, 95242, Note_off_c, 0, 70, 41
1, 95247, Control_c, 0, 67, 81
1, 95262, Control_c, 0, 67, 84
1, 95277, Control_c, 0, 64, 73
1, 95277, Control_c, 0, 67, 88
1, 95291, Control_c, 0, 64, 73
1, 95291, Control_c, 0, 67, 91
1, 95306, Control_c, 0, 64, 72
1, 95306, Control_c, 0, 67, 96
1, 95321, Control_c, 0, 64, 72
1, 95321, Control_c, 0, 67, 99
1, 95336, Control_c, 0, 67, 103
1, 95351, Control_c, 0, 64, 71
1, 95351, Control_c, 0, 67, 107
1, 95365, Control_c, 0, 64, 71
1, 95365, Control_c, 0, 67, 111
1, 95380, Control_c, 0, 64, 70
1, 95380, Control_c, 0, 67, 115
1, 95395, Control_c, 0, 64, 69
1, 95395, Control_c, 0, 67, 120
1, 95409, Control_c, 0, 64, 68
1, 95409, Control_c, 0, 67, 122
1, 95424, Control_c, 0, 64, 67
1, 95424, Control_c, 0, 67, 124
1, 95439, Control_c, 0, 64, 66
1, 95439, Control_c, 0, 67, 125
1, 95454, Control_c, 0, 64, 65
1, 95454, Control_c, 0, 67, 126
1, 95469, Control_c, 0, 64, 64
1, 95469, Control_c, 0, 67, 127
1, 95483, Control_c, 0, 64, 62
1, 95498, Control_c, 0, 64, 61
1, 95513, Control_c, 0, 64, 60
1, 95529, Control_c, 0, 64, 59
1, 95544, Control_c, 0, 64, 58
1, 95559, Control_c, 0, 64, 56
1, 95574, Control_c, 0, 64, 55
1, 95588, Control_c, 0, 64, 53
1, 95603, Control_c, 0, 64, 50
1, 95618, Control_c, 0, 64, 47
1, 95632, Control_c, 0, 64, 43
1, 95647, Control_c, 0, 64, 39
1, 95670, Control_c, 0, 64, 34
1, 95685, Control_c, 0, 64, 29
1, 95700, Control_c, 0, 64, 23
1, 95714, Control_c, 0, 64, 16
1, 95729, Control_c, 0, 64, 0
1, 95951, Control_c, 0, 64, 17
1, 95966, Control_c, 0, 64, 24
1, 95980, Control_c, 0, 64, 29
1, 95995, Control_c, 0, 64, 34
1, 96010, Control_c, 0, 64, 40
1, 96025, Control_c, 0, 64, 47
1, 96040, Control_c, 0, 64, 52
1, 96055, Control_c, 0, 64, 55
1, 96070, Control_c, 0, 64, 56
1, 96085, Control_c, 0, 64, 57
1, 96100, Control_c, 0, 64, 59
1, 96114, Control_c, 0, 64, 60
1, 96129, Control_c, 0, 64, 62
1, 96143, Note_on_c, 0, 46, 26
1, 96144, Control_c, 0, 64, 63
1, 96148, Note_on_c, 0, 58, 32
1, 96154, Note_on_c, 0, 50, 30
1, 96159, Control_c, 0, 64, 64
1, 96174, Control_c, 0, 64, 65
1, 96188, Control_c, 0, 64, 68
1, 96203, Control_c, 0, 64, 71
1, 96218, Control_c, 0, 64, 73
1, 96232, Control_c, 0, 64, 75
1, 96247, Control_c, 0, 64, 76
1, 96256, Note_off_c, 0, 58, 45
1, 96262, Control_c, 0, 64, 76
1, 96267, Note_on_c, 0, 60, 46
1, 96328, Note_off_c, 0, 60, 61
1, 96352, Control_c, 0, 64, 76
1, 96358, Note_on_c, 0, 58, 55
1, 96394, Note_off_c, 0, 58, 63
1, 96408, Note_on_c, 0, 60, 50
1, 96419, Control_c, 0, 64, 75
1, 96448, Note_off_c, 0, 60, 60
1, 96457, Note_on_c, 0, 58, 56
1, 96463, Control_c, 0, 64, 75
1, 96491, Note_off_c, 0, 58, 64
1, 96493, Control_c, 0, 64, 74
1, 96503, Note_on_c, 0, 60, 58
1, 96508, Control_c, 0, 64, 74
1, 96523, Control_c, 0, 64, 73
1, 96536, Note_off_c, 0, 60, 63
1, 96552, Control_c, 0, 64, 73
1, 96561, Note_on_c, 0, 58, 57
1, 96597, Control_c, 0, 64, 72
1, 96608, Note_off_c, 0, 58, 52
1, 96610, Note_on_c, 0, 60, 54
1, 96677, Note_off_c, 0, 60, 61
1, 96679, Note_on_c, 0, 62, 61
1, 96685, Control_c, 0, 64, 72
1, 96689, Note_off_c, 0, 50, 49
1, 96700, Control_c, 0, 64, 70
1, 96715, Control_c, 0, 64, 67
1, 96729, Control_c, 0, 64, 64
1, 96730, Note_on_c, 0, 51, 51
1, 96744, Control_c, 0, 64, 56
1, 96750, Note_on_c, 0, 48, 42
1, 96756, Note_off_c, 0, 46, 44
1, 96759, Control_c, 0, 64, 38
1, 96770, Note_on_c, 0, 58, 63
1, 96774, Control_c, 0, 64, 0
1, 96812, Note_off_c, 0, 62, 56
1, 96879, Note_off_c, 0, 58, 60
1, 96884, Note_on_c, 0, 57, 71
1, 96893, Control_c, 0, 64, 25
1, 96908, Control_c, 0, 64, 35
1, 96922, Control_c, 0, 64, 42
1, 96937, Control_c, 0, 64, 44
1, 96952, Control_c, 0, 64, 45
1, 96967, Control_c, 0, 64, 45
1, 96974, Note_on_c, 0, 60, 72
1, 96981, Control_c, 0, 64, 49
1, 96991, Note_off_c, 0, 57, 63
1, 96996, Control_c, 0, 64, 53
1, 97011, Control_c, 0, 64, 55
1, 97026, Control_c, 0, 64, 57
1, 97065, Note_on_c, 0, 58, 73
1, 97070, Control_c, 0, 64, 57
1, 97085, Control_c, 0, 64, 58
1, 97086, Note_off_c, 0, 60, 60
1, 97100, Control_c, 0, 64, 59
1, 97131, Control_c, 0, 64, 58
1, 97159, Note_off_c, 0, 58, 61
1, 97173, Note_on_c, 0, 57, 68
1, 97197, Control_c, 0, 64, 58
1, 97212, Control_c, 0, 64, 57
1, 97227, Control_c, 0, 64, 57
1, 97248, Note_off_c, 0, 57, 63
1, 97264, Note_on_c, 0, 63, 61
1, 97301, Control_c, 0, 64, 56
1, 97303, Note_off_c, 0, 48, 53
1, 97331, Control_c, 0, 64, 56
1, 97346, Control_c, 0, 64, 55
1, 97355, Note_on_c, 0, 53, 39
1, 97360, Control_c, 0, 64, 54
1, 97366, Note_on_c, 0, 50, 41
1, 97367, Note_off_c, 0, 51, 35
1, 97370, Note_on_c, 0, 60, 52
1, 97375, Control_c, 0, 64, 53
1, 97384, Note_off_c, 0, 63, 57
1, 97390, Control_c, 0, 64, 52
1, 97404, Control_c, 0, 64, 51
1, 97419, Control_c, 0, 64, 50
1, 97434, Control_c, 0, 64, 49
1, 97449, Control_c, 0, 64, 47
1, 97452, Note_off_c, 0, 60, 60
1, 97464, Control_c, 0, 64, 46
1, 97468, Note_on_c, 0, 58, 58
1, 97478, Control_c, 0, 64, 45
1, 97493, Control_c, 0, 64, 44
1, 97552, Control_c, 0, 64, 45
1, 97555, Note_off_c, 0, 58, 60
1, 97569, Note_on_c, 0, 62, 59
1, 97597, Control_c, 0, 64, 45
1, 97597, Control_c, 0, 67, 127
1, 97611, Control_c, 0, 67, 126
1, 97641, Control_c, 0, 67, 125
1, 97656, Control_c, 0, 64, 46
1, 97656, Control_c, 0, 67, 124
1, 97661, Note_off_c, 0, 62, 59
1, 97665, Note_on_c, 0, 60, 58
1, 97671, Control_c, 0, 64, 46
1, 97671, Control_c, 0, 67, 123
1, 97686, Control_c, 0, 67, 121
1, 97700, Control_c, 0, 64, 47
1, 97700, Control_c, 0, 67, 119
1, 97715, Control_c, 0, 67, 117
1, 97730, Control_c, 0, 64, 47
1, 97730, Control_c, 0, 67, 115
1, 97745, Control_c, 0, 67, 113
1, 97750, Note_off_c, 0, 60, 59
1, 97760, Control_c, 0, 67, 109
1, 97766, Note_on_c, 0, 58, 57
1, 97775, Control_c, 0, 64, 48
1, 97775, Control_c, 0, 67, 105
1, 97790, Control_c, 0, 67, 99
1, 97804, Control_c, 0, 67, 93
1, 97819, Control_c, 0, 64, 48
1, 97819, Control_c, 0, 67, 87
1, 97834, Control_c, 0, 67, 80
1, 97849, Control_c, 0, 67, 73
1, 97860, Note_off_c, 0, 58, 57
1, 97864, Control_c, 0, 67, 66
1, 97877, Note_on_c, 0, 65, 47
1, 97878, Control_c, 0, 67, 58
1, 97893, Control_c, 0, 67, 50
1, 97915, Control_c, 0, 64, 49
1, 97915, Control_c, 0, 67, 43
1, 97931, Control_c, 0, 67, 39
1, 97946, Control_c, 0, 64, 49
1, 97946, Control_c, 0, 67, 34
1, 97961, Control_c, 0, 64, 50
1, 97961, Control_c, 0, 67, 30
1, 97976, Control_c, 0, 64, 51
1, 97976, Control_c, 0, 67, 26
1, 97987, Note_off_c, 0, 65, 52
1, 97990, Control_c, 0, 64, 52
1, 97990, Control_c, 0, 67, 22
1, 98002, Note_on_c, 0, 62, 39
1, 98005, Control_c, 0, 64, 53
1, 98005, Control_c, 0, 67, 18
1, 98020, Control_c, 0, 64, 55
1, 98020, Control_c, 0, 67, 15
1, 98034, Control_c, 0, 64, 57
1, 98034, Control_c, 0, 67, 12
1, 98049, Control_c, 0, 64, 59
1, 98049, Control_c, 0, 67, 10
1, 98064, Control_c, 0, 64, 61
1, 98064, Control_c, 0, 67, 8
1, 98079, Control_c, 0, 64, 63
1, 98079, Control_c, 0, 67, 0
1, 98094, Control_c, 0, 64, 63
1, 98109, Control_c, 0, 64, 64
1, 98124, Control_c, 0, 64, 64
1, 98154, Control_c, 0, 64, 65
1, 98190, Note_off_c, 0, 50, 42
1, 98198, Control_c, 0, 64, 65
1, 98200, Note_off_c, 0, 62, 42
1, 98213, Control_c, 0, 64, 66
1, 98215, Note_off_c, 0, 53, 40
1, 98287, Control_c, 0, 64, 65
1, 98301, Control_c, 0, 64, 64
1, 98316, Control_c, 0, 64, 63
1, 98331, Control_c, 0, 64, 61
1, 98346, Control_c, 0, 64, 56
1, 98361, Control_c, 0, 64, 46
1, 98375, Control_c, 0, 64, 29
1, 98390, Control_c, 0, 64, 0
1, 98568, Control_c, 0, 64, 36
1, 98583, Control_c, 0, 64, 53
1, 98598, Control_c, 0, 64, 60
1, 98604, Note_on_c, 0, 51, 47
1, 98613, Control_c, 0, 64, 62
1, 98627, Control_c, 0, 64, 63
1, 98636, Note_on_c, 0, 55, 54
1, 98642, Control_c, 0, 64, 67
1, 98657, Note_on_c, 0, 67, 75
1, 98658, Note_on_c, 0, 60, 64
1, 98664, Control_c, 0, 64, 73
1, 98679, Control_c, 0, 64, 79
1, 98694, Control_c, 0, 64, 84
1, 98708, Note_off_c, 0, 60, 0
1, 98708, Control_c, 0, 64, 86
1, 98723, Control_c, 0, 64, 88
1, 98739, Control_c, 0, 64, 90
1, 98746, Poly_aftertouch_c, 0, 60, 127
1, 98750, Note_off_c, 0, 67, 62
1, 98752, Note_on_c, 0, 72, 78
1, 98754, Control_c, 0, 64, 92
1, 98762, Note_on_c, 0, 60, 13
1, 98847, Note_off_c, 0, 72, 61
1, 98854, Note_on_c, 0, 75, 82
1, 98942, Note_off_c, 0, 75, 61
1, 98946, Note_on_c, 0, 72, 86
1, 98946, Control_c, 0, 64, 92
1, 98961, Control_c, 0, 64, 91
1, 98976, Control_c, 0, 64, 91
1, 99015, Note_off_c, 0, 55, 38
1, 99030, Note_off_c, 0, 51, 40
1, 99036, Control_c, 0, 64, 90
1, 99050, Note_on_c, 0, 75, 78
1, 99050, Control_c, 0, 64, 89
1, 99065, Control_c, 0, 64, 89
1, 99077, Note_off_c, 0, 72, 52
1, 99080, Control_c, 0, 64, 88
1, 99095, Control_c, 0, 64, 87
1, 99110, Control_c, 0, 64, 87
1, 99122, Note_off_c, 0, 60, 44
1, 99124, Control_c, 0, 64, 86
1, 99139, Control_c, 0, 64, 86
1, 99146, Note_on_c, 0, 79, 81
1, 99150, Note_off_c, 0, 75, 63
1, 99169, Control_c, 0, 64, 85
1, 99182, Note_off_c, 0, 79, 60
1, 99183, Control_c, 0, 64, 84
1, 99198, Control_c, 0, 64, 81
1, 99213, Control_c, 0, 64, 74
1, 99228, Control_c, 0, 64, 65
1, 99243, Control_c, 0, 64, 47
1, 99250, Note_on_c, 0, 79, 74
1, 99251, Note_on_c, 0, 53, 53
1, 99257, Control_c, 0, 64, 0
1, 99259, Note_on_c, 0, 62, 50
1, 99331, Control_c, 0, 64, 37
1, 99334, Note_off_c, 0, 79, 59
1, 99338, Note_on_c, 0, 77, 69
1, 99346, Control_c, 0, 64, 52
1, 99361, Control_c, 0, 64, 60
1, 99376, Control_c, 0, 64, 63
1, 99391, Control_c, 0, 64, 65
1, 99408, Note_on_c, 0, 75, 69
1, 99413, Control_c, 0, 64, 67
1, 99416, Note_off_c, 0, 62, 62
1, 99428, Control_c, 0, 64, 68
1, 99439, Note_off_c, 0, 77, 61
1, 99443, Control_c, 0, 64, 69
1, 99471, Note_on_c, 0, 74, 70
1, 99472, Note_off_c, 0, 75, 65
1, 99487, Control_c, 0, 64, 68
1, 99498, Note_off_c, 0, 74, 67
1, 99502, Control_c, 0, 64, 64
1, 99517, Control_c, 0, 64, 53
1, 99533, Control_c, 0, 64, 0
1, 99533, Control_c, 0, 67, 8
1, 99548, Control_c, 0, 67, 9
1, 99553, Note_on_c, 0, 63, 66
1, 99562, Control_c, 0, 67, 10
1, 99567, Note_on_c, 0, 74, 76
1, 99577, Control_c, 0, 67, 10
1, 99592, Control_c, 0, 67, 12
1, 99606, Control_c, 0, 67, 15
1, 99613, Note_off_c, 0, 63, 47
1, 99621, Control_c, 0, 64, 39
1, 99621, Control_c, 0, 67, 18
1, 99636, Control_c, 0, 64, 53
1, 99636, Control_c, 0, 67, 19
1, 99641, Note_on_c, 0, 72, 68
1, 99642, Note_off_c, 0, 74, 60
1, 99651, Control_c, 0, 64, 59
1, 99666, Control_c, 0, 64, 62
1, 99680, Control_c, 0, 64, 64
1, 99695, Control_c, 0, 64, 67
1, 99710, Note_off_c, 0, 72, 63
1, 99710, Note_on_c, 0, 70, 66
1, 99710, Control_c, 0, 64, 70
1, 99725, Control_c, 0, 64, 73
1, 99725, Control_c, 0, 67, 19
1, 99740, Control_c, 0, 64, 74
1, 99740, Control_c, 0, 67, 18
1, 99754, Control_c, 0, 64, 75
1, 99754, Control_c, 0, 67, 17
1, 99763, Note_off_c, 0, 70, 61
1, 99769, Control_c, 0, 64, 74
1, 99769, Control_c, 0, 67, 16
1, 99778, Note_on_c, 0, 69, 61
1, 99784, Control_c, 0, 67, 16
1, 99799, Control_c, 0, 67, 15
1, 99814, Control_c, 0, 64, 74
1, 99814, Control_c, 0, 67, 14
1, 99823, Note_off_c, 0, 69, 62
1, 99829, Control_c, 0, 64, 73
1, 99829, Control_c, 0, 67, 14
1, 99844, Control_c, 0, 64, 70
1, 99844, Control_c, 0, 67, 13
1, 99844, Note_off_c, 0, 53, 43
1, 99857, Note_on_c, 0, 62, 52
1, 99859, Control_c, 0, 64, 64
1, 99859, Note_on_c, 0, 70, 62
1, 99862, Note_on_c, 0, 58, 52
1, 99873, Control_c, 0, 64, 50
1, 99881, Note_off_c, 0, 62, 57
1, 99886, Note_off_c, 0, 58, 58
1, 99888, Control_c, 0, 64, 0
1, 99888, Control_c, 0, 67, 14
1, 99918, Control_c, 0, 67, 14
1, 99947, Control_c, 0, 67, 14
1, 99962, Control_c, 0, 67, 12
1, 99977, Control_c, 0, 67, 11
1, 99992, Control_c, 0, 67, 9
1, 100006, Control_c, 0, 67, 0
1, 100034, Note_on_c, 0, 58, 32
1, 100066, Note_off_c, 0, 58, 49
1, 100170, Note_on_c, 0, 58, 49
1, 100203, Note_off_c, 0, 58, 65
1, 100320, Note_on_c, 0, 58, 52
1, 100331, Note_off_c, 0, 70, 53
1, 100333, Note_on_c, 0, 62, 46
1, 100347, Note_off_c, 0, 58, 60
1, 100360, Note_off_c, 0, 62, 58
1, 100463, Note_on_c, 0, 62, 60
1, 100473, Note_on_c, 0, 58, 47
1, 100494, Note_off_c, 0, 62, 64
1, 100499, Note_off_c, 0, 58, 58
1, 100564, Control_c, 0, 67, 8
1, 100578, Control_c, 0, 67, 10
1, 100593, Control_c, 0, 67, 11
1, 100604, Note_on_c, 0, 62, 58
1, 100605, Note_on_c, 0, 70, 63
1, 100608, Control_c, 0, 67, 12
1, 100609, Note_on_c, 0, 58, 50
1, 100622, Control_c, 0, 67, 13
1, 100637, Control_c, 0, 67, 14
1, 100640, Note_off_c, 0, 62, 63
1, 100645, Note_off_c, 0, 58, 64
1, 100652, Control_c, 0, 67, 14
1, 100711, Control_c, 0, 67, 15
1, 100726, Control_c, 0, 67, 16
1, 100727, Note_off_c, 0, 70, 57
1, 100741, Control_c, 0, 67, 20
1, 100746, Note_on_c, 0, 62, 51
1, 100751, Note_on_c, 0, 58, 54
1, 100753, Note_on_c, 0, 69, 59
1, 100756, Control_c, 0, 67, 25
1, 100770, Control_c, 0, 67, 30
1, 100777, Note_off_c, 0, 62, 63
1, 100782, Note_off_c, 0, 58, 65
1, 100785, Control_c, 0, 67, 32
1, 100800, Control_c, 0, 67, 33
1, 100815, Control_c, 0, 67, 33
1, 100829, Control_c, 0, 67, 34
1, 100844, Control_c, 0, 67, 35
1, 100859, Note_off_c, 0, 69, 57
1, 100859, Control_c, 0, 67, 36
1, 100874, Control_c, 0, 67, 38
1, 100883, Note_on_c, 0, 68, 60
1, 100889, Control_c, 0, 67, 39
1, 100905, Note_on_c, 0, 58, 45
1, 100911, Control_c, 0, 67, 40
1, 100913, Note_on_c, 0, 62, 37
1, 100926, Control_c, 0, 67, 41
1, 100932, Note_off_c, 0, 58, 58
1, 100943, Note_off_c, 0, 62, 54
1, 100965, Note_off_c, 0, 68, 62
1, 101015, Control_c, 0, 64, 31
1, 101029, Control_c, 0, 64, 56
1, 101029, Control_c, 0, 67, 40
1, 101039, Note_on_c, 0, 67, 59
1, 101040, Note_on_c, 0, 58, 40
1, 101044, Control_c, 0, 64, 64
1, 101053, Note_on_c, 0, 63, 48
1, 101059, Control_c, 0, 64, 66
1, 101072, Note_off_c, 0, 67, 65
1, 101074, Control_c, 0, 64, 68
1, 101074, Control_c, 0, 67, 40
1, 101079, Note_off_c, 0, 58, 59
1, 101079, Note_off_c, 0, 63, 58
1, 101089, Control_c, 0, 64, 68
1, 101134, Control_c, 0, 67, 39
1, 101149, Control_c, 0, 64, 68
1, 101179, Control_c, 0, 64, 67
1, 101185, Note_on_c, 0, 63, 45
1, 101191, Note_on_c, 0, 58, 48
1, 101194, Note_on_c, 0, 69, 57
1, 101194, Control_c, 0, 64, 67
1, 101208, Control_c, 0, 64, 66
1, 101208, Control_c, 0, 67, 39
1, 101223, Control_c, 0, 64, 64
1, 101224, Note_off_c, 0, 63, 65
1, 101227, Note_off_c, 0, 58, 63
1, 101229, Note_off_c, 0, 69, 66
1, 101238, Control_c, 0, 64, 63
1, 101252, Control_c, 0, 64, 60
1, 101259, Note_on_c, 0, 70, 66
1, 101267, Control_c, 0, 64, 56
1, 101267, Control_c, 0, 67, 38
1, 101282, Control_c, 0, 64, 52
1, 101285, Note_off_c, 0, 70, 65
1, 101297, Control_c, 0, 64, 47
1, 101312, Control_c, 0, 64, 43
1, 101312, Control_c, 0, 67, 38
1, 101326, Control_c, 0, 64, 40
1, 101329, Note_on_c, 0, 72, 68
1, 101331, Note_on_c, 0, 58, 50
1, 101332, Note_on_c, 0, 63, 51
1, 101341, Control_c, 0, 64, 38
1, 101356, Note_off_c, 0, 63, 60
1, 101356, Control_c, 0, 64, 35
1, 101356, Control_c, 0, 67, 37
1, 101359, Note_off_c, 0, 58, 58
1, 101371, Note_off_c, 0, 72, 55
1, 101371, Control_c, 0, 64, 32
1, 101386, Control_c, 0, 64, 28
1, 101400, Control_c, 0, 64, 25
1, 101400, Control_c, 0, 67, 37
1, 101403, Note_on_c, 0, 74, 70
1, 101415, Control_c, 0, 64, 22
1, 101415, Control_c, 0, 67, 36
1, 101430, Control_c, 0, 64, 19
1, 101444, Control_c, 0, 64, 12
1, 101455, Note_off_c, 0, 74, 65
1, 101459, Control_c, 0, 64, 0
1, 101462, Note_on_c, 0, 63, 52
1, 101473, Note_on_c, 0, 58, 45
1, 101478, Note_on_c, 0, 75, 67
1, 101501, Note_off_c, 0, 63, 65
1, 101502, Note_off_c, 0, 75, 67
1, 101504, Note_off_c, 0, 58, 58
1, 101534, Control_c, 0, 67, 36
1, 101550, Note_on_c, 0, 77, 69
1, 101589, Note_off_c, 0, 77, 58
1, 101608, Control_c, 0, 67, 35
1, 101615, Note_on_c, 0, 58, 49
1, 101617, Note_on_c, 0, 63, 55
1, 101624, Note_on_c, 0, 79, 74
1, 101647, Note_off_c, 0, 63, 62
1, 101656, Note_off_c, 0, 58, 64
1, 101693, Note_off_c, 0, 79, 61
1, 101704, Note_on_c, 0, 81, 73
1, 101763, Note_off_c, 0, 81, 64
1, 101768, Note_on_c, 0, 58, 54
1, 101776, Note_on_c, 0, 63, 43
1, 101778, Note_on_c, 0, 82, 78
1, 101802, Note_off_c, 0, 58, 65
1, 101804, Note_off_c, 0, 63, 58
1, 101845, Note_off_c, 0, 82, 63
1, 101847, Note_on_c, 0, 81, 69
1, 101898, Note_on_c, 0, 63, 57
1, 101907, Note_off_c, 0, 81, 66
1, 101909, Note_on_c, 0, 58, 48
1, 101921, Note_on_c, 0, 82, 77
1, 101927, Control_c, 0, 67, 36
1, 101937, Note_off_c, 0, 63, 65
1, 101942, Note_off_c, 0, 58, 62
1, 101972, Control_c, 0, 67, 36
1, 101982, Note_off_c, 0, 82, 64
1, 101990, Note_on_c, 0, 81, 69
1, 102050, Note_off_c, 0, 81, 64
1, 102061, Note_on_c, 0, 63, 54
1, 102064, Note_on_c, 0, 82, 76
1, 102070, Note_on_c, 0, 58, 36
1, 102090, Note_off_c, 0, 63, 64
1, 102100, Note_off_c, 0, 58, 58
1, 102122, Note_off_c, 0, 82, 65
1, 102136, Note_on_c, 0, 79, 68
1, 102178, Note_off_c, 0, 79, 64
1, 102208, Note_on_c, 0, 58, 46
1, 102216, Note_on_c, 0, 62, 55
1, 102220, Note_on_c, 0, 77, 66
1, 102240, Note_off_c, 0, 62, 62
1, 102240, Note_off_c, 0, 58, 63
1, 102365, Note_on_c, 0, 62, 43
1, 102366, Note_on_c, 0, 58, 47
1, 102398, Note_off_c, 0, 62, 57
1, 102401, Note_off_c, 0, 58, 58
1, 102524, Note_on_c, 0, 58, 42
1, 102532, Note_on_c, 0, 62, 37
1, 102552, Note_off_c, 0, 58, 58
1, 102562, Note_off_c, 0, 62, 53
1, 102617, Note_off_c, 0, 77, 57
1, 102666, Note_on_c, 0, 62, 47
1, 102668, Note_on_c, 0, 58, 44
1, 102697, Note_off_c, 0, 62, 63
1, 102702, Note_off_c, 0, 58, 60
1, 102816, Note_on_c, 0, 58, 47
1, 102820, Note_on_c, 0, 62, 43
1, 102841, Note_off_c, 0, 58, 58
1, 102850, Note_off_c, 0, 62, 55
1, 102966, Note_on_c, 0, 58, 42
1, 102966, Note_on_c, 0, 70, 59
1, 102967, Note_on_c, 0, 62, 37
1, 102996, Note_off_c, 0, 58, 58
1, 102999, Note_off_c, 0, 62, 54
1, 103087, Note_off_c, 0, 70, 58
1, 103106, Note_on_c, 0, 69, 61
1, 103111, Note_on_c, 0, 58, 43
1, 103111, Note_on_c, 0, 62, 36
1, 103150, Note_off_c, 0, 58, 58
1, 103152, Note_off_c, 0, 62, 52
1, 103236, Note_off_c, 0, 69, 55
1, 103259, Note_on_c, 0, 58, 48
1, 103260, Note_on_c, 0, 68, 61
1, 103265, Note_on_c, 0, 62, 37
1, 103291, Note_off_c, 0, 58, 59
1, 103296, Note_off_c, 0, 62, 55
1, 103344, Note_off_c, 0, 68, 57
1, 103364, Control_c, 0, 64, 30
1, 103379, Control_c, 0, 64, 53
1, 103394, Control_c, 0, 64, 61
1, 103407, Note_on_c, 0, 58, 43
1, 103409, Control_c, 0, 64, 65
1, 103410, Note_on_c, 0, 67, 58
1, 103412, Note_on_c, 0, 63, 51
1, 103423, Control_c, 0, 64, 65
1, 103438, Note_off_c, 0, 63, 61
1, 103442, Note_off_c, 0, 67, 65
1, 103445, Note_off_c, 0, 58, 59
1, 103453, Control_c, 0, 64, 66
1, 103468, Control_c, 0, 64, 66
1, 103512, Control_c, 0, 64, 66
1, 103528, Control_c, 0, 64, 65
1, 103564, Note_on_c, 0, 69, 57
1, 103565, Note_on_c, 0, 63, 50
1, 103573, Control_c, 0, 64, 65
1, 103576, Note_on_c, 0, 58, 42
1, 103588, Control_c, 0, 64, 64
1, 103596, Note_off_c, 0, 63, 67
1, 103602, Note_off_c, 0, 69, 65
1, 103602, Control_c, 0, 64, 64
1, 103606, Note_off_c, 0, 58, 58
1, 103617, Control_c, 0, 64, 62
1, 103617, Control_c, 0, 67, 37
1, 103626, Note_on_c, 0, 70, 66
1, 103632, Control_c, 0, 64, 60
1, 103646, Control_c, 0, 64, 56
1, 103654, Note_off_c, 0, 70, 66
1, 103661, Control_c, 0, 64, 49
1, 103661, Control_c, 0, 67, 37
1, 103676, Control_c, 0, 64, 38
1, 103691, Control_c, 0, 64, 19
1, 103697, Note_on_c, 0, 63, 60
1, 103698, Note_on_c, 0, 58, 53
1, 103700, Note_on_c, 0, 72, 70
1, 103706, Control_c, 0, 64, 0
1, 103731, Note_off_c, 0, 63, 66
1, 103737, Note_off_c, 0, 58, 63
1, 103740, Note_off_c, 0, 72, 57
1, 103777, Note_on_c, 0, 74, 67
1, 103834, Note_off_c, 0, 74, 63
1, 103846, Note_on_c, 0, 63, 62
1, 103853, Control_c, 0, 67, 37
1, 103855, Note_on_c, 0, 75, 73
1, 103856, Note_on_c, 0, 58, 53
1, 103879, Note_off_c, 0, 63, 66
1, 103883, Control_c, 0, 67, 36
1, 103886, Note_off_c, 0, 75, 64
1, 103897, Note_off_c, 0, 58, 65
1, 103936, Note_on_c, 0, 77, 75
1, 103950, Control_c, 0, 67, 36
1, 103978, Note_off_c, 0, 77, 64
1, 103999, Note_on_c, 0, 63, 67
1, 104008, Note_on_c, 0, 58, 50
1, 104008, Note_on_c, 0, 79, 78
1, 104029, Note_off_c, 0, 63, 67
1, 104034, Note_off_c, 0, 58, 60
1, 104071, Note_off_c, 0, 79, 55
1, 104082, Note_on_c, 0, 81, 78
1, 104142, Note_on_c, 0, 63, 63
1, 104149, Note_off_c, 0, 81, 66
1, 104150, Note_on_c, 0, 58, 48
1, 104158, Note_on_c, 0, 82, 81
1, 104174, Note_off_c, 0, 63, 66
1, 104184, Note_off_c, 0, 58, 65
1, 104227, Note_on_c, 0, 81, 73
1, 104229, Note_off_c, 0, 82, 63
1, 104285, Note_on_c, 0, 63, 60
1, 104287, Note_off_c, 0, 81, 65
1, 104290, Note_on_c, 0, 58, 50
1, 104306, Note_on_c, 0, 82, 74
1, 104318, Note_off_c, 0, 58, 60
1, 104318, Note_off_c, 0, 63, 65
1, 104321, Control_c, 0, 67, 35
1, 104368, Note_off_c, 0, 82, 61
1, 104372, Note_on_c, 0, 81, 66
1, 104434, Note_off_c, 0, 81, 63
1, 104442, Note_on_c, 0, 58, 39
1, 104443, Note_on_c, 0, 63, 52
1, 104452, Note_on_c, 0, 82, 69
1, 104471, Note_off_c, 0, 63, 63
1, 104473, Note_off_c, 0, 58, 57
1, 104499, Control_c, 0, 67, 36
1, 104504, Note_off_c, 0, 82, 64
1, 104525, Note_on_c, 0, 79, 59
1, 104529, Control_c, 0, 67, 36
1, 104572, Note_off_c, 0, 79, 63
1, 104573, Control_c, 0, 67, 37
1, 104587, Control_c, 0, 67, 37
1, 104593, Note_on_c, 0, 58, 47
1, 104604, Note_on_c, 0, 62, 53
1, 104613, Note_on_c, 0, 77, 53
1, 104622, Note_off_c, 0, 58, 60
1, 104630, Note_off_c, 0, 62, 59
1, 104750, Note_on_c, 0, 58, 55
1, 104783, Note_off_c, 0, 58, 66
1, 104840, Note_off_c, 0, 77, 45
1, 104862, Control_c, 0, 67, 36
1, 104891, Control_c, 0, 67, 36
1, 104907, Note_on_c, 0, 62, 57
1, 104921, Control_c, 0, 67, 35
1, 104945, Note_off_c, 0, 62, 62
1, 104980, Control_c, 0, 67, 36
1, 104994, Note_on_c, 0, 82, 61
1, 104995, Control_c, 0, 67, 36
1, 105010, Control_c, 0, 67, 37
1, 105025, Control_c, 0, 67, 38
1, 105033, Note_off_c, 0, 82, 63
1, 105036, Note_on_c, 0, 65, 38
1, 105039, Control_c, 0, 67, 38
1, 105063, Note_on_c, 0, 84, 61
1, 105089, Note_off_c, 0, 65, 50
1, 105134, Note_off_c, 0, 84, 63
1, 105140, Note_on_c, 0, 82, 68
1, 105188, Control_c, 0, 67, 38
1, 105191, Note_off_c, 0, 82, 63
1, 105203, Control_c, 0, 67, 37
1, 105209, Note_on_c, 0, 58, 38
1, 105209, Note_on_c, 0, 86, 68
1, 105218, Control_c, 0, 64, 34
1, 105218, Control_c, 0, 67, 36
1, 105233, Control_c, 0, 64, 52
1, 105233, Control_c, 0, 67, 36
1, 105248, Control_c, 0, 64, 61
1, 105248, Control_c, 0, 67, 35
1, 105248, Note_off_c, 0, 58, 62
1, 105263, Control_c, 0, 64, 66
1, 105278, Control_c, 0, 64, 70
1, 105292, Control_c, 0, 64, 74
1, 105293, Note_on_c, 0, 84, 65
1, 105296, Note_off_c, 0, 86, 59
1, 105322, Control_c, 0, 64, 75
1, 105322, Control_c, 0, 67, 36
1, 105337, Control_c, 0, 64, 75
1, 105352, Control_c, 0, 64, 76
1, 105352, Control_c, 0, 67, 36
1, 105367, Note_on_c, 0, 82, 70
1, 105381, Control_c, 0, 67, 37
1, 105392, Note_off_c, 0, 84, 60
1, 105403, Control_c, 0, 67, 38
1, 105418, Control_c, 0, 64, 75
1, 105433, Control_c, 0, 64, 75
1, 105433, Control_c, 0, 67, 38
1, 105437, Note_on_c, 0, 81, 72
1, 105443, Note_off_c, 0, 82, 66
1, 105448, Control_c, 0, 64, 73
1, 105463, Control_c, 0, 64, 71
1, 105463, Control_c, 0, 67, 39
1, 105478, Control_c, 0, 64, 67
1, 105478, Control_c, 0, 67, 39
1, 105480, Note_off_c, 0, 81, 66
1, 105492, Control_c, 0, 64, 63
1, 105507, Control_c, 0, 64, 59
1, 105507, Control_c, 0, 67, 40
1, 105514, Note_on_c, 0, 79, 71
1, 105522, Control_c, 0, 64, 54
1, 105537, Control_c, 0, 64, 51
1, 105537, Control_c, 0, 67, 40
1, 105552, Control_c, 0, 64, 46
1, 105566, Note_off_c, 0, 79, 61
1, 105566, Control_c, 0, 64, 40
1, 105566, Control_c, 0, 67, 41
1, 105581, Control_c, 0, 64, 30
1, 105581, Control_c, 0, 67, 42
1, 105589, Note_on_c, 0, 77, 62
1, 105596, Control_c, 0, 64, 0
1, 105596, Control_c, 0, 67, 42
1, 105611, Control_c, 0, 67, 43
1, 105625, Control_c, 0, 67, 43
1, 105640, Control_c, 0, 67, 44
1, 105650, Note_off_c, 0, 77, 63
1, 105658, Note_on_c, 0, 75, 69
1, 105670, Control_c, 0, 67, 44
1, 105699, Control_c, 0, 67, 45
1, 105706, Note_off_c, 0, 75, 62
1, 105735, Note_on_c, 0, 74, 54
1, 105773, Note_off_c, 0, 74, 62
1, 105773, Control_c, 0, 67, 44
1, 105803, Control_c, 0, 67, 44
1, 105812, Note_on_c, 0, 75, 46
1, 105817, Control_c, 0, 64, 30
1, 105832, Control_c, 0, 64, 51
1, 105832, Control_c, 0, 67, 43
1, 105847, Control_c, 0, 64, 60
1, 105847, Control_c, 0, 67, 43
1, 105862, Control_c, 0, 64, 63
1, 105862, Control_c, 0, 67, 41
1, 105877, Control_c, 0, 64, 64
1, 105877, Control_c, 0, 67, 40
1, 105907, Control_c, 0, 64, 64
1, 105922, Control_c, 0, 64, 65
1, 105922, Control_c, 0, 67, 39
1, 105925, Note_off_c, 0, 75, 54
1, 105937, Control_c, 0, 67, 39
1, 105952, Control_c, 0, 64, 64
1, 105958, Note_on_c, 0, 53, 52
1, 105967, Control_c, 0, 64, 63
1, 105982, Control_c, 0, 64, 62
1, 105986, Note_off_c, 0, 53, 64
1, 105996, Control_c, 0, 64, 60
1, 106011, Control_c, 0, 64, 59
1, 106011, Control_c, 0, 67, 39
1, 106026, Control_c, 0, 64, 56
1, 106041, Control_c, 0, 64, 52
1, 106041, Control_c, 0, 67, 40
1, 106056, Control_c, 0, 64, 40
1, 106071, Control_c, 0, 64, 0
1, 106071, Control_c, 0, 67, 40
1, 106086, Control_c, 0, 67, 41
1, 106101, Control_c, 0, 67, 41
1, 106106, Note_on_c, 0, 57, 51
1, 106115, Control_c, 0, 67, 42
1, 106139, Note_off_c, 0, 57, 57
1, 106152, Control_c, 0, 67, 42
1, 106166, Control_c, 0, 67, 43
1, 106181, Control_c, 0, 67, 43
1, 106191, Note_on_c, 0, 81, 48
1, 106211, Control_c, 0, 67, 44
1, 106233, Note_off_c, 0, 81, 65
1, 106241, Control_c, 0, 67, 44
1, 106249, Note_on_c, 0, 60, 35
1, 106265, Note_on_c, 0, 82, 55
1, 106281, Note_off_c, 0, 60, 51
1, 106315, Control_c, 0, 64, 28
1, 106318, Note_off_c, 0, 82, 57
1, 106330, Control_c, 0, 64, 45
1, 106330, Control_c, 0, 67, 45
1, 106332, Note_on_c, 0, 81, 54
1, 106345, Control_c, 0, 64, 57
1, 106345, Control_c, 0, 67, 45
1, 106360, Control_c, 0, 64, 61
1, 106374, Control_c, 0, 64, 63
1, 106389, Control_c, 0, 64, 65
1, 106396, Note_off_c, 0, 81, 65
1, 106398, Note_on_c, 0, 53, 38
1, 106404, Control_c, 0, 64, 66
1, 106419, Control_c, 0, 64, 67
1, 106420, Note_on_c, 0, 84, 60
1, 106434, Control_c, 0, 64, 67
1, 106459, Note_off_c, 0, 53, 55
1, 106478, Control_c, 0, 67, 45
1, 106486, Note_off_c, 0, 84, 57
1, 106499, Note_on_c, 0, 82, 61
1, 106508, Control_c, 0, 64, 67
1, 106552, Control_c, 0, 64, 66
1, 106566, Control_c, 0, 64, 66
1, 106570, Note_on_c, 0, 81, 61
1, 106571, Note_off_c, 0, 82, 57
1, 106581, Control_c, 0, 64, 65
1, 106596, Control_c, 0, 64, 64
1, 106611, Control_c, 0, 64, 63
1, 106626, Control_c, 0, 64, 62
1, 106629, Note_off_c, 0, 81, 65
1, 106637, Note_on_c, 0, 79, 65
1, 106640, Control_c, 0, 64, 59
1, 106655, Control_c, 0, 64, 55
1, 106670, Control_c, 0, 64, 44
1, 106681, Note_off_c, 0, 79, 61
1, 106685, Control_c, 0, 64, 0
1, 106713, Note_on_c, 0, 77, 61
1, 106765, Note_off_c, 0, 77, 63
1, 106783, Note_on_c, 0, 75, 62
1, 106820, Control_c, 0, 67, 45
1, 106855, Note_off_c, 0, 75, 60
1, 106864, Note_on_c, 0, 74, 56
1, 106864, Control_c, 0, 67, 46
1, 106914, Note_off_c, 0, 74, 64
1, 106938, Note_on_c, 0, 72, 62
1, 106961, Control_c, 0, 67, 45
1, 106976, Control_c, 0, 67, 44
1, 106981, Note_off_c, 0, 72, 59
1, 106990, Control_c, 0, 67, 43
1, 107005, Control_c, 0, 67, 41
1, 107020, Control_c, 0, 64, 23
1, 107020, Control_c, 0, 67, 38
1, 107025, Note_on_c, 0, 74, 65
1, 107035, Control_c, 0, 64, 55
1, 107035, Control_c, 0, 67, 33
1, 107050, Control_c, 0, 64, 57
1, 107050, Control_c, 0, 67, 25
1, 107064, Control_c, 0, 64, 59
1, 107064, Control_c, 0, 67, 0
1, 107079, Control_c, 0, 64, 62
1, 107094, Control_c, 0, 64, 64
1, 107109, Control_c, 0, 64, 65
1, 107124, Control_c, 0, 64, 66
1, 107127, Note_off_c, 0, 74, 62
1, 107138, Control_c, 0, 64, 67
1, 107153, Control_c, 0, 64, 69
1, 107168, Control_c, 0, 64, 69
1, 107184, Note_on_c, 0, 46, 79
1, 107190, Note_on_c, 0, 34, 65
1, 107207, Note_off_c, 0, 46, 68
1, 107212, Control_c, 0, 64, 69
1, 107216, Note_off_c, 0, 34, 58
1, 107227, Control_c, 0, 64, 68
1, 107242, Control_c, 0, 64, 67
1, 107257, Control_c, 0, 64, 66
1, 107272, Control_c, 0, 64, 64
1, 107287, Control_c, 0, 64, 62
1, 107302, Control_c, 0, 64, 58
1, 107317, Control_c, 0, 64, 48
1, 107326, Note_on_c, 0, 50, 90
1, 107332, Control_c, 0, 64, 12
1, 107334, Note_on_c, 0, 38, 73
1, 107346, Control_c, 0, 64, 0
1, 107350, Note_off_c, 0, 50, 72
1, 107356, Note_off_c, 0, 38, 58
1, 107415, Note_on_c, 0, 77, 74
1, 107475, Note_off_c, 0, 77, 61
1, 107487, Note_on_c, 0, 79, 77
1, 107493, Note_on_c, 0, 53, 81
1, 107499, Note_on_c, 0, 41, 72
1, 107515, Note_off_c, 0, 53, 71
1, 107531, Note_off_c, 0, 41, 62
1, 107554, Note_off_c, 0, 79, 62
1, 107562, Note_on_c, 0, 77, 78
1, 107654, Note_on_c, 0, 50, 85
1, 107660, Note_on_c, 0, 82, 80
1, 107660, Note_off_c, 0, 77, 59
1, 107665, Control_c, 0, 64, 54
1, 107667, Note_on_c, 0, 38, 63
1, 107678, Note_off_c, 0, 50, 72
1, 107680, Control_c, 0, 64, 62
1, 107693, Note_off_c, 0, 38, 55
1, 107694, Control_c, 0, 64, 65
1, 107709, Control_c, 0, 64, 68
1, 107724, Control_c, 0, 64, 71
1, 107739, Control_c, 0, 64, 73
1, 107740, Note_on_c, 0, 81, 75
1, 107754, Control_c, 0, 64, 74
1, 107768, Control_c, 0, 64, 76
1, 107770, Note_off_c, 0, 82, 55
1, 107783, Control_c, 0, 64, 76
1, 107818, Note_on_c, 0, 79, 75
1, 107819, Note_off_c, 0, 81, 67
1, 107868, Note_off_c, 0, 79, 63
1, 107886, Control_c, 0, 64, 75
1, 107895, Note_on_c, 0, 77, 70
1, 107901, Control_c, 0, 64, 75
1, 107916, Control_c, 0, 64, 73
1, 107931, Control_c, 0, 64, 72
1, 107946, Control_c, 0, 64, 70
1, 107946, Note_off_c, 0, 77, 62
1, 107961, Control_c, 0, 64, 68
1, 107962, Note_on_c, 0, 75, 75
1, 107976, Control_c, 0, 64, 65
1, 107991, Control_c, 0, 64, 61
1, 108005, Control_c, 0, 64, 53
1, 108020, Control_c, 0, 64, 32
1, 108034, Note_on_c, 0, 74, 72
1, 108035, Control_c, 0, 64, 0
1, 108038, Note_off_c, 0, 75, 63
1, 108079, Note_off_c, 0, 74, 67
1, 108107, Note_on_c, 0, 72, 72
1, 108136, Note_on_c, 0, 65, 58
1, 108144, Note_on_c, 0, 62, 49
1, 108162, Note_off_c, 0, 72, 62
1, 108177, Note_on_c, 0, 71, 67
1, 108211, Note_off_c, 0, 62, 54
1, 108225, Note_off_c, 0, 71, 62
1, 108232, Note_off_c, 0, 65, 49
1, 108259, Note_on_c, 0, 74, 66
1, 108276, Note_on_c, 0, 67, 59
1, 108277, Note_on_c, 0, 63, 51
1, 108286, Control_c, 0, 64, 23
1, 108301, Control_c, 0, 64, 42
1, 108317, Note_off_c, 0, 74, 61
1, 108317, Control_c, 0, 64, 54
1, 108332, Control_c, 0, 64, 60
1, 108347, Control_c, 0, 64, 63
1, 108348, Note_on_c, 0, 72, 67
1, 108361, Control_c, 0, 64, 65
1, 108376, Control_c, 0, 64, 66
1, 108399, Control_c, 0, 64, 67
1, 108414, Control_c, 0, 64, 67
1, 108424, Note_off_c, 0, 72, 61
1, 108426, Note_on_c, 0, 75, 72
1, 108429, Control_c, 0, 64, 68
1, 108443, Control_c, 0, 64, 69
1, 108453, Note_off_c, 0, 67, 55
1, 108458, Control_c, 0, 64, 69
1, 108459, Note_off_c, 0, 63, 61
1, 108492, Note_off_c, 0, 75, 62
1, 108496, Note_on_c, 0, 74, 70
1, 108532, Control_c, 0, 64, 69
1, 108547, Control_c, 0, 64, 68
1, 108554, Note_off_c, 0, 74, 65
1, 108561, Control_c, 0, 64, 68
1, 108565, Note_on_c, 0, 77, 73
1, 108576, Control_c, 0, 64, 67
1, 108591, Control_c, 0, 64, 65
1, 108606, Control_c, 0, 64, 64
1, 108621, Control_c, 0, 64, 63
1, 108635, Control_c, 0, 64, 60
1, 108648, Note_off_c, 0, 77, 64
1, 108650, Control_c, 0, 64, 58
1, 108652, Note_on_c, 0, 75, 69
1, 108665, Control_c, 0, 64, 56
1, 108680, Control_c, 0, 64, 53
1, 108695, Control_c, 0, 64, 51
1, 108703, Note_off_c, 0, 75, 61
1, 108709, Control_c, 0, 64, 49
1, 108718, Note_on_c, 0, 79, 64
1, 108724, Control_c, 0, 64, 46
1, 108739, Control_c, 0, 64, 45
1, 108754, Control_c, 0, 64, 40
1, 108769, Control_c, 0, 64, 30
1, 108776, Note_off_c, 0, 79, 60
1, 108780, Note_on_c, 0, 78, 75
1, 108783, Control_c, 0, 64, 0
1, 108856, Note_off_c, 0, 78, 64
1, 108867, Note_on_c, 0, 79, 72
1, 108931, Note_off_c, 0, 79, 59
1, 108932, Note_on_c, 0, 77, 67
1, 109013, Note_on_c, 0, 75, 65
1, 109014, Note_off_c, 0, 77, 60
1, 109085, Note_on_c, 0, 74, 61
1, 109086, Note_off_c, 0, 75, 63
1, 109122, Note_off_c, 0, 74, 64
1, 109172, Note_on_c, 0, 72, 64
1, 109219, Note_off_c, 0, 72, 64
1, 109241, Note_on_c, 0, 70, 65
1, 109306, Note_off_c, 0, 70, 63
1, 109323, Note_on_c, 0, 69, 59
1, 109338, Note_on_c, 0, 67, 43
1, 109349, Note_on_c, 0, 64, 37
1, 109387, Note_off_c, 0, 69, 64
1, 109410, Note_on_c, 0, 70, 57
1, 109414, Control_c, 0, 64, 15
1, 109415, Note_off_c, 0, 67, 50
1, 109429, Control_c, 0, 64, 25
1, 109444, Control_c, 0, 64, 35
1, 109455, Note_off_c, 0, 70, 61
1, 109458, Control_c, 0, 64, 45
1, 109473, Control_c, 0, 64, 54
1, 109480, Note_off_c, 0, 64, 41
1, 109484, Note_on_c, 0, 65, 51
1, 109484, Note_on_c, 0, 69, 60
1, 109488, Control_c, 0, 64, 60
1, 109503, Control_c, 0, 64, 63
1, 109518, Control_c, 0, 64, 64
1, 109529, Note_off_c, 0, 69, 61
1, 109532, Control_c, 0, 64, 66
1, 109547, Control_c, 0, 64, 69
1, 109562, Control_c, 0, 64, 71
1, 109565, Note_on_c, 0, 70, 60
1, 109577, Control_c, 0, 64, 71
1, 109585, Note_off_c, 0, 70, 63
1, 109601, Note_off_c, 0, 65, 57
1, 109621, Control_c, 0, 64, 71
1, 109625, Note_on_c, 0, 72, 69
1, 109651, Control_c, 0, 64, 70
1, 109659, Note_off_c, 0, 72, 61
1, 109666, Control_c, 0, 64, 69
1, 109681, Control_c, 0, 64, 67
1, 109694, Note_on_c, 0, 74, 66
1, 109696, Control_c, 0, 64, 65
1, 109710, Control_c, 0, 64, 63
1, 109725, Control_c, 0, 64, 61
1, 109740, Control_c, 0, 64, 57
1, 109754, Note_off_c, 0, 74, 62
1, 109755, Control_c, 0, 64, 47
1, 109755, Control_c, 0, 67, 9
1, 109767, Note_on_c, 0, 76, 71
1, 109770, Control_c, 0, 64, 12
1, 109770, Control_c, 0, 67, 11
1, 109785, Control_c, 0, 64, 0
1, 109785, Control_c, 0, 67, 12
1, 109818, Note_off_c, 0, 76, 62
1, 109845, Note_on_c, 0, 77, 62
1, 109874, Control_c, 0, 67, 12
1, 109896, Control_c, 0, 67, 11
1, 109898, Note_off_c, 0, 77, 58
1, 109912, Control_c, 0, 67, 9
1, 109927, Control_c, 0, 67, 8
1, 109940, Note_on_c, 0, 76, 51
1, 109942, Control_c, 0, 67, 0
1, 109969, Note_off_c, 0, 76, 58
1, 109991, Note_on_c, 0, 77, 63
1, 110019, Note_off_c, 0, 77, 67
1, 110045, Control_c, 0, 64, 29
1, 110060, Control_c, 0, 64, 44
1, 110073, Note_on_c, 0, 45, 45
1, 110074, Note_on_c, 0, 65, 62
1, 110075, Control_c, 0, 64, 52
1, 110089, Control_c, 0, 64, 59
1, 110104, Control_c, 0, 64, 63
1, 110119, Control_c, 0, 64, 66
1, 110134, Control_c, 0, 64, 68
1, 110146, Note_off_c, 0, 45, 58
1, 110149, Control_c, 0, 64, 70
1, 110155, Note_on_c, 0, 46, 64
1, 110164, Control_c, 0, 64, 71
1, 110178, Control_c, 0, 64, 71
1, 110208, Note_off_c, 0, 65, 61
1, 110229, Note_on_c, 0, 48, 52
1, 110239, Note_off_c, 0, 46, 62
1, 110253, Control_c, 0, 64, 71
1, 110268, Control_c, 0, 64, 70
1, 110274, Note_off_c, 0, 48, 64
1, 110282, Control_c, 0, 64, 70
1, 110290, Note_on_c, 0, 50, 64
1, 110297, Control_c, 0, 64, 68
1, 110312, Control_c, 0, 64, 66
1, 110327, Control_c, 0, 64, 64
1, 110328, Note_off_c, 0, 50, 66
1, 110341, Control_c, 0, 64, 61
1, 110356, Control_c, 0, 64, 58
1, 110356, Control_c, 0, 67, 8
1, 110369, Note_on_c, 0, 52, 67
1, 110371, Control_c, 0, 64, 54
1, 110371, Control_c, 0, 67, 9
1, 110386, Control_c, 0, 64, 49
1, 110386, Control_c, 0, 67, 10
1, 110401, Control_c, 0, 64, 41
1, 110401, Control_c, 0, 67, 12
1, 110415, Control_c, 0, 64, 29
1, 110429, Note_off_c, 0, 52, 62
1, 110430, Control_c, 0, 64, 0
1, 110430, Control_c, 0, 67, 12
1, 110445, Control_c, 0, 67, 13
1, 110459, Note_on_c, 0, 53, 63
1, 110460, Control_c, 0, 67, 15
1, 110475, Control_c, 0, 67, 18
1, 110489, Control_c, 0, 67, 20
1, 110494, Note_off_c, 0, 53, 64
1, 110504, Control_c, 0, 67, 22
1, 110519, Control_c, 0, 67, 25
1, 110524, Note_on_c, 0, 52, 49
1, 110533, Control_c, 0, 67, 28
1, 110548, Control_c, 0, 67, 32
1, 110563, Control_c, 0, 67, 36
1, 110567, Note_off_c, 0, 52, 64
1, 110578, Control_c, 0, 67, 40
1, 110593, Control_c, 0, 67, 45
1, 110602, Note_on_c, 0, 53, 48
1, 110608, Control_c, 0, 67, 50
1, 110623, Control_c, 0, 67, 56
1, 110645, Control_c, 0, 67, 63
1, 110655, Note_off_c, 0, 53, 59
1, 110660, Control_c, 0, 67, 69
1, 110675, Control_c, 0, 67, 72
1, 110720, Control_c, 0, 67, 72
1, 110741, Note_on_c, 0, 41, 40
1, 110779, Control_c, 0, 64, 15
1, 110794, Control_c, 0, 64, 34
1, 110809, Control_c, 0, 64, 48
1, 110824, Control_c, 0, 64, 57
1, 110838, Control_c, 0, 64, 61
1, 110853, Control_c, 0, 64, 64
1, 110868, Control_c, 0, 64, 69
1, 110883, Control_c, 0, 64, 73
1, 110898, Control_c, 0, 64, 77
1, 110912, Control_c, 0, 64, 79
1, 110915, Note_off_c, 0, 41, 53
1, 111061, Control_c, 0, 64, 79
1, 111076, Control_c, 0, 64, 78
1, 111091, Control_c, 0, 64, 77
1, 111105, Control_c, 0, 64, 76
1, 111120, Control_c, 0, 64, 76
1, 111120, Control_c, 0, 67, 73
1, 111135, Control_c, 0, 64, 75
1, 111135, Control_c, 0, 67, 73
1, 111150, Control_c, 0, 64, 75
1, 111150, Control_c, 0, 67, 74
1, 111164, Control_c, 0, 64, 73
1, 111164, Control_c, 0, 67, 76
1, 111179, Control_c, 0, 64, 72
1, 111179, Control_c, 0, 67, 79
1, 111194, Control_c, 0, 64, 70
1, 111194, Control_c, 0, 67, 79
1, 111209, Control_c, 0, 64, 68
1, 111209, Control_c, 0, 67, 80
1, 111224, Control_c, 0, 64, 67
1, 111224, Control_c, 0, 67, 80
1, 111238, Control_c, 0, 64, 65
1, 111238, Control_c, 0, 67, 81
1, 111253, Control_c, 0, 64, 63
1, 111253, Control_c, 0, 67, 83
1, 111267, Control_c, 0, 64, 61
1, 111267, Control_c, 0, 67, 83
1, 111282, Control_c, 0, 64, 59
1, 111282, Control_c, 0, 67, 84
1, 111297, Control_c, 0, 64, 56
1, 111297, Control_c, 0, 67, 84
1, 111311, Control_c, 0, 64, 54
1, 111311, Control_c, 0, 67, 85
1, 111326, Control_c, 0, 64, 52
1, 111326, Control_c, 0, 67, 85
1, 111341, Control_c, 0, 64, 49
1, 111356, Control_c, 0, 64, 45
1, 111356, Control_c, 0, 67, 86
1, 111371, Control_c, 0, 64, 37
1, 111393, Control_c, 0, 64, 21
1, 111408, Control_c, 0, 64, 0
1, 111451, Note_on_c, 0, 77, 45
1, 111486, Note_off_c, 0, 77, 55
1, 111597, Note_on_c, 0, 77, 60
1, 111630, Note_off_c, 0, 77, 66
1, 111646, Control_c, 0, 67, 85
1, 111660, Control_c, 0, 67, 85
1, 111705, Control_c, 0, 67, 84
1, 111720, Control_c, 0, 67, 84
1, 111747, Note_on_c, 0, 77, 70
1, 111749, Control_c, 0, 67, 83
1, 111764, Control_c, 0, 67, 83
1, 111775, Note_off_c, 0, 77, 66
1, 111779, Control_c, 0, 67, 82
1, 111794, Control_c, 0, 67, 82
1, 111839, Control_c, 0, 67, 81
1, 111854, Control_c, 0, 67, 81
1, 111886, Note_on_c, 0, 77, 74
1, 111915, Note_off_c, 0, 77, 64
1, 112027, Note_on_c, 0, 77, 77
1, 112059, Note_off_c, 0, 77, 62
1, 112060, Control_c, 0, 67, 80
1, 112104, Control_c, 0, 67, 80
1, 112172, Control_c, 0, 67, 79
1, 112186, Control_c, 0, 64, 10
1, 112201, Control_c, 0, 64, 30
1, 112206, Note_on_c, 0, 77, 75
1, 112212, Note_on_c, 0, 58, 32
1, 112216, Control_c, 0, 64, 44
1, 112216, Control_c, 0, 67, 79
1, 112231, Control_c, 0, 64, 52
1, 112246, Control_c, 0, 64, 59
1, 112260, Control_c, 0, 64, 61
1, 112275, Control_c, 0, 64, 63
1, 112290, Control_c, 0, 64, 65
1, 112306, Control_c, 0, 64, 68
1, 112321, Control_c, 0, 64, 71
1, 112336, Control_c, 0, 64, 73
1, 112351, Control_c, 0, 64, 75
1, 112365, Control_c, 0, 64, 76
1, 112380, Control_c, 0, 64, 77
1, 112395, Control_c, 0, 64, 79
1, 112403, Note_on_c, 0, 65, 35
1, 112407, Note_off_c, 0, 77, 39
1, 112409, Control_c, 0, 64, 80
1, 112424, Control_c, 0, 64, 81
1, 112439, Control_c, 0, 67, 79
1, 112469, Control_c, 0, 67, 80
1, 112496, Note_off_c, 0, 65, 48
1, 112513, Control_c, 0, 67, 80
1, 112527, Control_c, 0, 64, 80
1, 112536, Note_on_c, 0, 62, 41
1, 112542, Control_c, 0, 64, 80
1, 112557, Control_c, 0, 64, 79
1, 112575, Note_off_c, 0, 58, 36
1, 112587, Control_c, 0, 64, 79
1, 112587, Control_c, 0, 67, 81
1, 112602, Control_c, 0, 64, 78
1, 112617, Control_c, 0, 64, 78
1, 112632, Control_c, 0, 64, 77
1, 112647, Control_c, 0, 64, 76
1, 112661, Note_on_c, 0, 65, 39
1, 112662, Control_c, 0, 64, 76
1, 112676, Control_c, 0, 64, 75
1, 112678, Note_off_c, 0, 62, 35
1, 112691, Control_c, 0, 64, 75
1, 112692, Note_on_c, 0, 75, 58
1, 112706, Control_c, 0, 64, 74
1, 112721, Control_c, 0, 64, 73
1, 112735, Control_c, 0, 64, 72
1, 112742, Note_on_c, 0, 74, 64
1, 112751, Control_c, 0, 64, 71
1, 112752, Note_off_c, 0, 75, 61
1, 112766, Control_c, 0, 64, 70
1, 112769, Note_off_c, 0, 65, 48
1, 112777, Note_off_c, 0, 74, 67
1, 112781, Control_c, 0, 64, 69
1, 112796, Control_c, 0, 64, 67
1, 112796, Control_c, 0, 67, 81
1, 112810, Control_c, 0, 64, 64
1, 112811, Note_on_c, 0, 72, 65
1, 112823, Note_on_c, 0, 60, 43
1, 112825, Control_c, 0, 64, 61
1, 112825, Control_c, 0, 67, 82
1, 112840, Control_c, 0, 64, 55
1, 112841, Note_off_c, 0, 72, 66
1, 112855, Control_c, 0, 64, 46
1, 112870, Control_c, 0, 64, 32
1, 112891, Control_c, 0, 64, 0
1, 112969, Note_on_c, 0, 70, 63
1, 112992, Note_on_c, 0, 65, 36
1, 113009, Note_off_c, 0, 70, 58
1, 113070, Note_off_c, 0, 65, 40
1, 113114, Note_on_c, 0, 69, 54
1, 113132, Note_on_c, 0, 63, 32
1, 113140, Note_off_c, 0, 69, 64
1, 113193, Note_off_c, 0, 60, 37
1, 113255, Note_on_c, 0, 72, 59
1, 113258, Note_off_c, 0, 63, 49
1, 113277, Note_on_c, 0, 65, 35
1, 113291, Note_off_c, 0, 72, 64
1, 113375, Note_off_c, 0, 65, 31
1, 113396, Control_c, 0, 67, 81
1, 113409, Note_on_c, 0, 70, 51
1, 113428, Note_on_c, 0, 62, 36
1, 113440, Control_c, 0, 67, 81
1, 113455, Control_c, 0, 64, 34
1, 113455, Control_c, 0, 67, 80
1, 113470, Control_c, 0, 64, 48
1, 113470, Control_c, 0, 67, 80
1, 113485, Control_c, 0, 64, 54
1, 113485, Control_c, 0, 67, 79
1, 113499, Control_c, 0, 64, 58
1, 113514, Control_c, 0, 64, 61
1, 113514, Control_c, 0, 67, 79
1, 113529, Control_c, 0, 64, 63
1, 113529, Control_c, 0, 67, 78
1, 113544, Control_c, 0, 64, 65
1, 113544, Control_c, 0, 67, 77
1, 113559, Control_c, 0, 64, 67
1, 113574, Control_c, 0, 64, 68
1, 113574, Control_c, 0, 67, 77
1, 113580, Note_on_c, 0, 65, 31
1, 113589, Control_c, 0, 64, 69
1, 113589, Control_c, 0, 67, 76
1, 113598, Note_off_c, 0, 70, 61
1, 113604, Control_c, 0, 64, 70
1, 113604, Control_c, 0, 67, 76
1, 113618, Control_c, 0, 64, 71
1, 113640, Control_c, 0, 64, 72
1, 113640, Control_c, 0, 67, 75
1, 113655, Control_c, 0, 64, 72
1, 113655, Control_c, 0, 67, 74
1, 113670, Control_c, 0, 67, 73
1, 113685, Control_c, 0, 67, 70
1, 113700, Control_c, 0, 67, 66
1, 113714, Control_c, 0, 67, 62
1, 113729, Control_c, 0, 67, 55
1, 113733, Note_on_c, 0, 70, 51
1, 113744, Control_c, 0, 67, 41
1, 113759, Control_c, 0, 67, 25
1, 113773, Control_c, 0, 64, 72
1, 113773, Control_c, 0, 67, 11
1, 113784, Note_off_c, 0, 62, 43
1, 113788, Note_off_c, 0, 70, 56
1, 113788, Control_c, 0, 67, 0
1, 113803, Control_c, 0, 64, 71
1, 113810, Note_off_c, 0, 65, 43
1, 113818, Control_c, 0, 64, 70
1, 113833, Control_c, 0, 64, 69
1, 113848, Control_c, 0, 64, 68
1, 113863, Control_c, 0, 64, 67
1, 113877, Control_c, 0, 64, 66
1, 113878, Note_on_c, 0, 77, 50
1, 113892, Control_c, 0, 64, 65
1, 113908, Control_c, 0, 64, 64
1, 113915, Note_off_c, 0, 77, 65
1, 113923, Control_c, 0, 64, 63
1, 113937, Control_c, 0, 64, 61
1, 113952, Control_c, 0, 64, 57
1, 113967, Control_c, 0, 64, 54
1, 113982, Control_c, 0, 64, 49
1, 113997, Control_c, 0, 64, 44
1, 114012, Control_c, 0, 64, 36
1, 114027, Control_c, 0, 64, 27
1, 114027, Note_on_c, 0, 77, 59
1, 114042, Control_c, 0, 64, 15
1, 114056, Control_c, 0, 64, 0
1, 114060, Note_off_c, 0, 77, 66
1, 114164, Note_on_c, 0, 77, 72
1, 114200, Note_off_c, 0, 77, 62
1, 114310, Note_on_c, 0, 77, 75
1, 114344, Note_off_c, 0, 77, 62
1, 114463, Control_c, 0, 64, 14
1, 114464, Note_on_c, 0, 77, 79
1, 114478, Control_c, 0, 64, 19
1, 114493, Control_c, 0, 64, 22
1, 114505, Note_off_c, 0, 77, 65
1, 114507, Control_c, 0, 64, 24
1, 114522, Control_c, 0, 64, 27
1, 114537, Control_c, 0, 64, 29
1, 114552, Control_c, 0, 64, 32
1, 114567, Control_c, 0, 64, 35
1, 114581, Control_c, 0, 64, 37
1, 114596, Control_c, 0, 64, 40
1, 114611, Control_c, 0, 64, 45
1, 114626, Control_c, 0, 64, 50
1, 114627, Note_on_c, 0, 77, 67
1, 114631, Note_on_c, 0, 58, 24
1, 114641, Control_c, 0, 64, 54
1, 114656, Control_c, 0, 64, 58
1, 114671, Control_c, 0, 64, 61
1, 114686, Control_c, 0, 64, 64
1, 114701, Control_c, 0, 64, 66
1, 114716, Control_c, 0, 64, 69
1, 114731, Control_c, 0, 64, 71
1, 114746, Control_c, 0, 64, 72
1, 114760, Control_c, 0, 64, 73
1, 114775, Control_c, 0, 64, 75
1, 114790, Control_c, 0, 64, 77
1, 114796, Note_on_c, 0, 65, 36
1, 114803, Note_off_c, 0, 77, 37
1, 114805, Control_c, 0, 64, 78
1, 114820, Control_c, 0, 64, 79
1, 114918, Note_off_c, 0, 65, 36
1, 114938, Control_c, 0, 64, 78
1, 114944, Note_on_c, 0, 62, 36
1, 114953, Control_c, 0, 64, 78
1, 114983, Control_c, 0, 64, 77
1, 114997, Control_c, 0, 64, 76
1, 115011, Control_c, 0, 64, 76
1, 115025, Control_c, 0, 64, 75
1, 115040, Control_c, 0, 64, 75
1, 115049, Note_off_c, 0, 58, 39
1, 115055, Control_c, 0, 64, 74
1, 115070, Control_c, 0, 64, 73
1, 115074, Note_on_c, 0, 65, 38
1, 115085, Control_c, 0, 64, 72
1, 115100, Control_c, 0, 64, 70
1, 115115, Control_c, 0, 64, 69
1, 115115, Note_on_c, 0, 75, 50
1, 115136, Control_c, 0, 64, 69
1, 115151, Control_c, 0, 64, 68
1, 115166, Control_c, 0, 64, 68
1, 115172, Note_off_c, 0, 75, 56
1, 115181, Control_c, 0, 64, 67
1, 115182, Note_off_c, 0, 62, 37
1, 115184, Note_on_c, 0, 74, 55
1, 115196, Control_c, 0, 64, 66
1, 115210, Control_c, 0, 64, 65
1, 115225, Control_c, 0, 64, 64
1, 115226, Note_off_c, 0, 74, 65
1, 115234, Note_off_c, 0, 65, 27
1, 115240, Control_c, 0, 64, 61
1, 115255, Control_c, 0, 64, 55
1, 115257, Note_on_c, 0, 72, 54
1, 115264, Note_on_c, 0, 57, 36
1, 115270, Control_c, 0, 64, 46
1, 115279, Note_off_c, 0, 72, 63
1, 115285, Control_c, 0, 64, 32
1, 115300, Control_c, 0, 64, 19
1, 115315, Control_c, 0, 64, 0
1, 115344, Control_c, 0, 67, 8
1, 115359, Control_c, 0, 67, 9
1, 115397, Note_on_c, 0, 74, 49
1, 115403, Control_c, 0, 67, 8
1, 115418, Control_c, 0, 67, 0
1, 115422, Note_on_c, 0, 65, 38
1, 115426, Note_off_c, 0, 74, 61
1, 115514, Note_off_c, 0, 65, 47
1, 115532, Note_on_c, 0, 75, 59
1, 115564, Note_on_c, 0, 60, 33
1, 115566, Note_off_c, 0, 75, 61
1, 115660, Note_off_c, 0, 57, 43
1, 115660, Note_off_c, 0, 60, 51
1, 115677, Note_on_c, 0, 72, 53
1, 115690, Note_on_c, 0, 65, 36
1, 115713, Note_off_c, 0, 72, 63
1, 115775, Control_c, 0, 64, 9
1, 115790, Control_c, 0, 64, 20
1, 115805, Control_c, 0, 64, 28
1, 115819, Control_c, 0, 64, 36
1, 115833, Note_off_c, 0, 65, 27
1, 115834, Control_c, 0, 64, 42
1, 115840, Note_on_c, 0, 74, 49
1, 115849, Control_c, 0, 64, 49
1, 115864, Control_c, 0, 64, 54
1, 115866, Note_on_c, 0, 58, 32
1, 115887, Control_c, 0, 64, 58
1, 115901, Control_c, 0, 64, 61
1, 115916, Control_c, 0, 64, 63
1, 115931, Control_c, 0, 64, 64
1, 115946, Control_c, 0, 64, 66
1, 115960, Control_c, 0, 64, 68
1, 115975, Control_c, 0, 64, 70
1, 115990, Control_c, 0, 64, 72
1, 116005, Control_c, 0, 64, 73
1, 116020, Control_c, 0, 64, 74
1, 116026, Note_on_c, 0, 62, 35
1, 116113, Note_off_c, 0, 74, 24
1, 116171, Note_on_c, 0, 65, 51
1, 116182, Control_c, 0, 64, 73
1, 116212, Control_c, 0, 64, 73
1, 116227, Control_c, 0, 64, 72
1, 116242, Control_c, 0, 64, 71
1, 116257, Control_c, 0, 64, 70
1, 116271, Note_off_c, 0, 58, 49
1, 116271, Control_c, 0, 64, 70
1, 116286, Control_c, 0, 64, 69
1, 116295, Note_off_c, 0, 65, 28
1, 116302, Control_c, 0, 64, 68
1, 116317, Control_c, 0, 64, 66
1, 116319, Note_off_c, 0, 62, 53
1, 116325, Note_on_c, 0, 77, 65
1, 116331, Control_c, 0, 64, 64
1, 116346, Control_c, 0, 64, 61
1, 116354, Note_off_c, 0, 77, 66
1, 116361, Control_c, 0, 64, 57
1, 116376, Control_c, 0, 64, 54
1, 116391, Control_c, 0, 64, 52
1, 116406, Control_c, 0, 64, 49
1, 116420, Control_c, 0, 64, 40
1, 116435, Control_c, 0, 64, 23
1, 116450, Control_c, 0, 64, 0
1, 116462, Note_on_c, 0, 77, 74
1, 116500, Note_off_c, 0, 77, 59
1, 116596, Note_on_c, 0, 77, 84
1, 116613, Control_c, 0, 64, 16
1, 116635, Control_c, 0, 64, 24
1, 116644, Note_off_c, 0, 77, 64
1, 116650, Control_c, 0, 64, 30
1, 116665, Control_c, 0, 64, 36
1, 116680, Control_c, 0, 64, 41
1, 116695, Control_c, 0, 64, 46
1, 116709, Control_c, 0, 64, 52
1, 116724, Control_c, 0, 64, 57
1, 116739, Control_c, 0, 64, 62
1, 116742, Note_on_c, 0, 77, 86
1, 116754, Control_c, 0, 64, 66
1, 116769, Control_c, 0, 64, 70
1, 116783, Control_c, 0, 64, 75
1, 116792, Note_off_c, 0, 77, 60
1, 116798, Control_c, 0, 64, 80
1, 116813, Control_c, 0, 64, 85
1, 116828, Control_c, 0, 64, 87
1, 116843, Control_c, 0, 64, 88
1, 116887, Note_on_c, 0, 78, 75
1, 116916, Control_c, 0, 64, 87
1, 116931, Control_c, 0, 64, 84
1, 116946, Control_c, 0, 64, 81
1, 116954, Note_off_c, 0, 78, 62
1, 116961, Control_c, 0, 64, 77
1, 116975, Control_c, 0, 64, 73
1, 116990, Control_c, 0, 64, 67
1, 117005, Control_c, 0, 64, 62
1, 117020, Control_c, 0, 64, 53
1, 117035, Control_c, 0, 64, 44
1, 117049, Control_c, 0, 64, 43
1, 117052, Note_on_c, 0, 79, 70
1, 117058, Note_on_c, 0, 51, 46
1, 117064, Control_c, 0, 64, 50
1, 117065, Note_on_c, 0, 63, 38
1, 117079, Control_c, 0, 64, 57
1, 117092, Note_off_c, 0, 79, 61
1, 117094, Control_c, 0, 64, 61
1, 117110, Control_c, 0, 64, 63
1, 117124, Control_c, 0, 64, 66
1, 117139, Control_c, 0, 64, 68
1, 117154, Control_c, 0, 64, 71
1, 117157, Note_on_c, 0, 67, 54
1, 117169, Control_c, 0, 64, 73
1, 117201, Note_off_c, 0, 67, 61
1, 117243, Note_on_c, 0, 66, 48
1, 117243, Control_c, 0, 64, 72
1, 117273, Control_c, 0, 64, 72
1, 117280, Note_off_c, 0, 66, 65
1, 117300, Note_off_c, 0, 63, 45
1, 117303, Control_c, 0, 64, 71
1, 117303, Note_on_c, 0, 67, 65
1, 117317, Control_c, 0, 64, 71
1, 117346, Note_off_c, 0, 67, 57
1, 117347, Control_c, 0, 64, 70
1, 117362, Control_c, 0, 64, 70
1, 117381, Note_on_c, 0, 68, 63
1, 117384, Control_c, 0, 64, 69
1, 117413, Control_c, 0, 64, 68
1, 117417, Note_off_c, 0, 68, 63
1, 117443, Control_c, 0, 64, 67
1, 117449, Note_on_c, 0, 67, 66
1, 117473, Control_c, 0, 64, 67
1, 117488, Control_c, 0, 64, 66
1, 117489, Note_off_c, 0, 67, 52
1, 117503, Control_c, 0, 64, 66
1, 117510, Note_on_c, 0, 69, 75
1, 117540, Note_off_c, 0, 51, 43
1, 117547, Control_c, 0, 64, 65
1, 117559, Note_off_c, 0, 69, 65
1, 117562, Control_c, 0, 64, 65
1, 117577, Control_c, 0, 64, 64
1, 117589, Note_on_c, 0, 67, 68
1, 117592, Control_c, 0, 64, 62
1, 117606, Control_c, 0, 64, 60
1, 117621, Control_c, 0, 64, 54
1, 117632, Note_off_c, 0, 67, 58
1, 117636, Control_c, 0, 64, 45
1, 117651, Note_on_c, 0, 70, 74
1, 117651, Control_c, 0, 64, 27
1, 117666, Control_c, 0, 64, 0
1, 117690, Note_off_c, 0, 70, 57
1, 117729, Note_on_c, 0, 67, 66
1, 117771, Note_off_c, 0, 67, 56
1, 117794, Note_on_c, 0, 71, 67
1, 117826, Note_off_c, 0, 71, 63
1, 117877, Note_on_c, 0, 67, 58
1, 117917, Note_off_c, 0, 67, 63
1, 117934, Note_on_c, 0, 72, 61
1, 117964, Note_off_c, 0, 72, 67
1, 118009, Note_on_c, 0, 67, 50
1, 118046, Note_off_c, 0, 67, 54
1, 118069, Note_on_c, 0, 74, 60
1, 118100, Note_off_c, 0, 74, 66
1, 118152, Note_on_c, 0, 67, 51
1, 118209, Note_off_c, 0, 67, 56
1, 118226, Note_on_c, 0, 75, 59
1, 118236, Note_on_c, 0, 60, 50
1, 118281, Control_c, 0, 67, 8
1, 118295, Control_c, 0, 67, 9
1, 118297, Note_off_c, 0, 60, 61
1, 118310, Control_c, 0, 67, 12
1, 118315, Note_on_c, 0, 62, 55
1, 118325, Control_c, 0, 64, 19
1, 118325, Control_c, 0, 67, 18
1, 118340, Control_c, 0, 64, 42
1, 118340, Control_c, 0, 67, 30
1, 118349, Note_off_c, 0, 62, 64
1, 118354, Control_c, 0, 64, 53
1, 118354, Control_c, 0, 67, 40
1, 118369, Control_c, 0, 64, 53
1, 118369, Control_c, 0, 67, 55
1, 118376, Note_on_c, 0, 63, 58
1, 118384, Control_c, 0, 64, 46
1, 118384, Control_c, 0, 67, 70
1, 118399, Control_c, 0, 64, 17
1, 118399, Control_c, 0, 67, 72
1, 118414, Control_c, 0, 64, 0
1, 118414, Control_c, 0, 67, 71
1, 118421, Note_off_c, 0, 63, 60
1, 118436, Note_on_c, 0, 62, 54
1, 118458, Control_c, 0, 67, 72
1, 118480, Note_off_c, 0, 62, 62
1, 118490, Note_on_c, 0, 60, 55
1, 118502, Control_c, 0, 64, 26
1, 118517, Control_c, 0, 64, 47
1, 118529, Note_off_c, 0, 60, 64
1, 118532, Control_c, 0, 64, 54
1, 118546, Control_c, 0, 64, 55
1, 118561, Note_off_c, 0, 75, 53
1, 118561, Control_c, 0, 64, 55
1, 118570, Note_on_c, 0, 62, 46
1, 118576, Control_c, 0, 64, 54
1, 118591, Control_c, 0, 64, 53
1, 118591, Control_c, 0, 67, 72
1, 118606, Note_off_c, 0, 62, 58
1, 118606, Control_c, 0, 64, 53
1, 118606, Control_c, 0, 67, 71
1, 118620, Control_c, 0, 64, 52
1, 118620, Control_c, 0, 67, 71
1, 118629, Note_on_c, 0, 58, 66
1, 118635, Control_c, 0, 64, 50
1, 118635, Control_c, 0, 67, 70
1, 118650, Control_c, 0, 64, 49
1, 118650, Control_c, 0, 67, 70
1, 118665, Control_c, 0, 64, 47
1, 118665, Control_c, 0, 67, 69
1, 118680, Control_c, 0, 64, 41
1, 118680, Control_c, 0, 67, 69
1, 118696, Control_c, 0, 64, 24
1, 118711, Control_c, 0, 64, 0
1, 118716, Note_off_c, 0, 58, 59
1, 118725, Note_on_c, 0, 60, 57
1, 118755, Control_c, 0, 67, 68
1, 118764, Note_off_c, 0, 60, 64
1, 118772, Note_on_c, 0, 57, 62
1, 118799, Control_c, 0, 67, 68
1, 118819, Note_off_c, 0, 57, 64
1, 118826, Note_on_c, 0, 58, 66
1, 118829, Control_c, 0, 67, 67
1, 118859, Control_c, 0, 67, 67
1, 118906, Note_off_c, 0, 58, 63
1, 118911, Control_c, 0, 67, 66
1, 118917, Note_on_c, 0, 55, 63
1, 118940, Control_c, 0, 64, 14
1, 118954, Note_off_c, 0, 55, 62
1, 118955, Control_c, 0, 64, 26
1, 118969, Control_c, 0, 64, 32
1, 118969, Control_c, 0, 67, 66
1, 118972, Note_on_c, 0, 57, 65
1, 118978, Note_on_c, 0, 75, 55
1, 118984, Control_c, 0, 64, 37
1, 118999, Control_c, 0, 64, 46
1, 119008, Note_off_c, 0, 75, 63
1, 119014, Control_c, 0, 64, 55
1, 119022, Note_on_c, 0, 77, 69
1, 119023, Note_off_c, 0, 57, 57
1, 119029, Control_c, 0, 64, 60
1, 119037, Note_on_c, 0, 53, 68
1, 119044, Control_c, 0, 64, 63
1, 119059, Control_c, 0, 64, 65
1, 119074, Control_c, 0, 64, 67
1, 119074, Note_off_c, 0, 77, 62
1, 119079, Note_on_c, 0, 75, 73
1, 119082, Note_off_c, 0, 53, 62
1, 119088, Control_c, 0, 64, 69
1, 119103, Control_c, 0, 64, 70
1, 119115, Note_on_c, 0, 55, 66
1, 119118, Control_c, 0, 64, 71
1, 119121, Note_off_c, 0, 75, 62
1, 119130, Note_on_c, 0, 77, 58
1, 119133, Control_c, 0, 64, 71
1, 119160, Note_off_c, 0, 55, 53
1, 119177, Note_on_c, 0, 51, 65
1, 119178, Note_on_c, 0, 75, 66
1, 119193, Note_off_c, 0, 77, 64
1, 119207, Control_c, 0, 64, 71
1, 119220, Note_on_c, 0, 74, 68
1, 119223, Note_off_c, 0, 51, 58
1, 119233, Note_off_c, 0, 75, 62
1, 119237, Control_c, 0, 64, 70
1, 119243, Note_on_c, 0, 53, 65
1, 119251, Control_c, 0, 64, 70
1, 119266, Control_c, 0, 64, 68
1, 119273, Note_off_c, 0, 53, 66
1, 119281, Control_c, 0, 64, 64
1, 119287, Note_off_c, 0, 74, 64
1, 119293, Note_on_c, 0, 75, 64
1, 119295, Control_c, 0, 64, 56
1, 119310, Control_c, 0, 64, 38
1, 119325, Control_c, 0, 64, 0
1, 119363, Note_off_c, 0, 75, 63
1, 119366, Note_on_c, 0, 77, 76
1, 119372, Note_on_c, 0, 50, 67
1, 119381, Note_on_c, 0, 38, 61
1, 119384, Control_c, 0, 64, 34
1, 119396, Note_off_c, 0, 77, 62
1, 119399, Control_c, 0, 64, 50
1, 119414, Control_c, 0, 64, 60
1, 119429, Control_c, 0, 64, 64
1, 119429, Control_c, 0, 67, 65
1, 119443, Control_c, 0, 64, 67
1, 119443, Control_c, 0, 67, 65
1, 119458, Control_c, 0, 64, 70
1, 119473, Control_c, 0, 64, 71
1, 119473, Control_c, 0, 67, 64
1, 119489, Control_c, 0, 64, 72
1, 119497, Note_on_c, 0, 65, 62
1, 119505, Control_c, 0, 64, 72
1, 119536, Note_off_c, 0, 65, 62
1, 119564, Note_on_c, 0, 64, 67
1, 119579, Control_c, 0, 67, 64
1, 119608, Control_c, 0, 64, 72
1, 119628, Note_off_c, 0, 38, 36
1, 119634, Note_off_c, 0, 64, 61
1, 119637, Note_on_c, 0, 65, 71
1, 119646, Control_c, 0, 64, 71
1, 119646, Control_c, 0, 67, 64
1, 119661, Control_c, 0, 64, 71
1, 119675, Control_c, 0, 64, 70
1, 119679, Note_off_c, 0, 50, 60
1, 119690, Control_c, 0, 64, 70
1, 119701, Note_off_c, 0, 65, 61
1, 119705, Control_c, 0, 64, 69
1, 119707, Note_on_c, 0, 67, 73
1, 119719, Control_c, 0, 64, 69
1, 119734, Control_c, 0, 64, 68
1, 119749, Control_c, 0, 64, 67
1, 119762, Note_off_c, 0, 67, 62
1, 119764, Control_c, 0, 64, 66
1, 119772, Note_on_c, 0, 65, 67
1, 119779, Control_c, 0, 64, 65
1, 119793, Control_c, 0, 64, 65
1, 119808, Control_c, 0, 64, 64
1, 119823, Control_c, 0, 64, 64
1, 119823, Control_c, 0, 67, 65
1, 119838, Control_c, 0, 64, 63
1, 119840, Note_off_c, 0, 65, 60
1, 119853, Note_on_c, 0, 68, 69
1, 119853, Control_c, 0, 64, 61
1, 119867, Control_c, 0, 64, 59
1, 119882, Control_c, 0, 64, 56
1, 119897, Control_c, 0, 64, 53
1, 119899, Note_off_c, 0, 68, 60
1, 119912, Control_c, 0, 64, 49
1, 119920, Note_on_c, 0, 65, 60
1, 119926, Control_c, 0, 64, 45
1, 119941, Control_c, 0, 64, 39
1, 119956, Control_c, 0, 64, 33
1, 119971, Control_c, 0, 64, 27
1, 119979, Note_off_c, 0, 65, 59
1, 119986, Control_c, 0, 64, 18
1, 119991, Note_on_c, 0, 69, 66
1, 120001, Control_c, 0, 64, 0
1, 120031, Note_off_c, 0, 69, 63
1, 120078, Note_on_c, 0, 65, 58
1, 120120, Note_off_c, 0, 65, 60
1, 120147, Note_on_c, 0, 70, 59
1, 120187, Note_off_c, 0, 70, 63
1, 120229, Note_on_c, 0, 65, 53
1, 120284, Note_off_c, 0, 65, 59
1, 120292, Note_on_c, 0, 72, 62
1, 120325, Note_off_c, 0, 72, 64
1, 120393, Note_on_c, 0, 65, 47
1, 120431, Note_off_c, 0, 65, 49
1, 120439, Control_c, 0, 67, 64
1, 120450, Note_on_c, 0, 73, 60
1, 120485, Note_off_c, 0, 73, 63
1, 120518, Note_on_c, 0, 65, 60
1, 120573, Note_off_c, 0, 65, 54
1, 120601, Note_on_c, 0, 58, 44
1, 120606, Note_on_c, 0, 74, 56
1, 120660, Note_off_c, 0, 58, 59
1, 120683, Note_on_c, 0, 60, 45
1, 120711, Note_off_c, 0, 60, 61
1, 120740, Note_on_c, 0, 62, 55
1, 120806, Note_off_c, 0, 62, 58
1, 120811, Note_on_c, 0, 60, 53
1, 120823, Control_c, 0, 67, 64
1, 120835, Note_off_c, 0, 74, 56
1, 120838, Control_c, 0, 67, 62
1, 120853, Control_c, 0, 67, 61
1, 120862, Note_on_c, 0, 58, 60
1, 120868, Control_c, 0, 67, 58
1, 120870, Note_off_c, 0, 60, 55
1, 120883, Control_c, 0, 67, 55
1, 120898, Control_c, 0, 67, 52
1, 120913, Control_c, 0, 67, 46
1, 120928, Control_c, 0, 67, 34
1, 120937, Note_on_c, 0, 60, 57
1, 120937, Note_off_c, 0, 58, 60
1, 120942, Control_c, 0, 67, 22
1, 120957, Control_c, 0, 67, 11
1, 120972, Control_c, 0, 67, 0
1, 121004, Note_off_c, 0, 60, 64
1, 121008, Note_on_c, 0, 57, 66
1, 121056, Note_off_c, 0, 57, 64
1, 121063, Note_on_c, 0, 58, 68
1, 121143, Note_off_c, 0, 58, 63
1, 121157, Note_on_c, 0, 55, 67
1, 121201, Note_off_c, 0, 55, 61
1, 121211, Note_on_c, 0, 57, 65
1, 121247, Control_c, 0, 64, 9
1, 121261, Control_c, 0, 64, 13
1, 121273, Note_off_c, 0, 57, 63
1, 121276, Control_c, 0, 64, 14
1, 121290, Note_on_c, 0, 53, 43
1, 121291, Control_c, 0, 64, 16
1, 121306, Control_c, 0, 64, 19
1, 121321, Control_c, 0, 64, 21
1, 121325, Note_on_c, 0, 55, 16
1, 121333, Note_off_c, 0, 53, 67
1, 121336, Control_c, 0, 64, 23
1, 121351, Control_c, 0, 64, 25
1, 121365, Control_c, 0, 64, 28
1, 121380, Control_c, 0, 64, 32
1, 121385, Note_on_c, 0, 86, 76
1, 121395, Control_c, 0, 64, 37
1, 121410, Control_c, 0, 64, 45
1, 121413, Note_off_c, 0, 55, 55
1, 121425, Note_off_c, 0, 86, 64
1, 121425, Control_c, 0, 64, 55
1, 121430, Note_on_c, 0, 51, 65
1, 121439, Control_c, 0, 64, 61
1, 121446, Note_on_c, 0, 87, 79
1, 121454, Control_c, 0, 64, 65
1, 121469, Control_c, 0, 64, 68
1, 121484, Control_c, 0, 64, 72
1, 121491, Note_off_c, 0, 51, 62
1, 121498, Control_c, 0, 64, 76
1, 121500, Note_on_c, 0, 86, 64
1, 121500, Note_off_c, 0, 87, 63
1, 121504, Note_on_c, 0, 53, 68
1, 121513, Control_c, 0, 64, 78
1, 121528, Control_c, 0, 64, 79
1, 121548, Note_off_c, 0, 86, 63
1, 121550, Note_on_c, 0, 87, 73
1, 121553, Note_on_c, 0, 50, 67
1, 121564, Note_off_c, 0, 53, 57
1, 121601, Note_on_c, 0, 86, 63
1, 121622, Note_off_c, 0, 87, 63
1, 121631, Note_on_c, 0, 51, 70
1, 121631, Note_off_c, 0, 50, 66
1, 121644, Note_on_c, 0, 84, 68
1, 121653, Note_off_c, 0, 86, 66
1, 121656, Note_off_c, 0, 51, 66
1, 121661, Control_c, 0, 64, 79
1, 121676, Control_c, 0, 64, 78
1, 121691, Control_c, 0, 64, 76
1, 121706, Control_c, 0, 64, 74
1, 121709, Note_on_c, 0, 86, 79
1, 121721, Control_c, 0, 64, 71
1, 121729, Note_off_c, 0, 84, 64
1, 121735, Control_c, 0, 64, 66
1, 121750, Control_c, 0, 64, 55
1, 121764, Control_c, 0, 64, 35
1, 121779, Control_c, 0, 64, 0
1, 121789, Note_on_c, 0, 48, 58
1, 121794, Control_c, 0, 64, 20
1, 121799, Note_on_c, 0, 36, 57
1, 121809, Control_c, 0, 64, 37
1, 121824, Note_on_c, 0, 47, 41
1, 121824, Control_c, 0, 64, 46
1, 121829, Note_on_c, 0, 87, 87
1, 121829, Note_off_c, 0, 86, 65
1, 121833, Note_off_c, 0, 47, 41
1, 121838, Control_c, 0, 64, 56
1, 121853, Control_c, 0, 64, 63
1, 121873, Note_off_c, 0, 87, 62
1, 121876, Control_c, 0, 64, 69
1, 121891, Control_c, 0, 64, 74
1, 121906, Control_c, 0, 64, 78
1, 121920, Control_c, 0, 64, 78
1, 121977, Note_on_c, 0, 75, 68
1, 121980, Control_c, 0, 64, 77
1, 121995, Control_c, 0, 64, 76
1, 122010, Control_c, 0, 64, 76
1, 122012, Note_off_c, 0, 75, 64
1, 122025, Control_c, 0, 64, 75
1, 122040, Control_c, 0, 64, 75
1, 122046, Note_on_c, 0, 74, 66
1, 122054, Control_c, 0, 64, 74
1, 122062, Note_off_c, 0, 36, 51
1, 122069, Control_c, 0, 64, 74
1, 122084, Control_c, 0, 64, 73
1, 122099, Control_c, 0, 64, 72
1, 122105, Note_off_c, 0, 74, 62
1, 122106, Note_on_c, 0, 75, 67
1, 122114, Control_c, 0, 64, 71
1, 122128, Control_c, 0, 64, 71
1, 122143, Control_c, 0, 64, 70
1, 122157, Note_off_c, 0, 48, 44
1, 122158, Control_c, 0, 64, 70
1, 122159, Note_on_c, 0, 77, 76
1, 122164, Note_off_c, 0, 75, 62
1, 122173, Control_c, 0, 64, 69
1, 122173, Control_c, 0, 67, 8
1, 122187, Control_c, 0, 64, 68
1, 122187, Control_c, 0, 67, 9
1, 122202, Control_c, 0, 64, 68
1, 122202, Control_c, 0, 67, 11
1, 122216, Note_off_c, 0, 77, 62
1, 122217, Control_c, 0, 64, 67
1, 122217, Control_c, 0, 67, 14
1, 122230, Note_on_c, 0, 75, 73
1, 122232, Control_c, 0, 64, 65
1, 122232, Control_c, 0, 67, 15
1, 122247, Control_c, 0, 64, 64
1, 122247, Control_c, 0, 67, 17
1, 122261, Control_c, 0, 64, 63
1, 122261, Control_c, 0, 67, 21
1, 122276, Control_c, 0, 64, 61
1, 122276, Control_c, 0, 67, 26
1, 122291, Note_off_c, 0, 75, 58
1, 122291, Control_c, 0, 64, 59
1, 122291, Control_c, 0, 67, 31
1, 122306, Control_c, 0, 64, 58
1, 122306, Control_c, 0, 67, 34
1, 122308, Note_on_c, 0, 78, 76
1, 122320, Control_c, 0, 64, 56
1, 122320, Control_c, 0, 67, 36
1, 122335, Control_c, 0, 64, 55
1, 122335, Control_c, 0, 67, 39
1, 122350, Control_c, 0, 64, 54
1, 122350, Control_c, 0, 67, 41
1, 122357, Note_off_c, 0, 78, 64
1, 122365, Note_on_c, 0, 75, 67
1, 122365, Control_c, 0, 64, 53
1, 122365, Control_c, 0, 67, 45
1, 122380, Control_c, 0, 64, 52
1, 122380, Control_c, 0, 67, 48
1, 122394, Control_c, 0, 64, 52
1, 122394, Control_c, 0, 67, 50
1, 122409, Control_c, 0, 64, 50
1, 122409, Control_c, 0, 67, 51
1, 122424, Control_c, 0, 64, 49
1, 122424, Control_c, 0, 67, 53
1, 122431, Note_off_c, 0, 75, 60
1, 122434, Note_on_c, 0, 79, 69
1, 122439, Control_c, 0, 64, 47
1, 122439, Control_c, 0, 67, 55
1, 122454, Control_c, 0, 64, 46
1, 122454, Control_c, 0, 67, 58
1, 122469, Control_c, 0, 64, 45
1, 122469, Control_c, 0, 67, 62
1, 122483, Note_off_c, 0, 79, 61
1, 122484, Control_c, 0, 64, 44
1, 122484, Control_c, 0, 67, 65
1, 122499, Control_c, 0, 64, 43
1, 122499, Control_c, 0, 67, 66
1, 122513, Note_on_c, 0, 75, 56
1, 122513, Control_c, 0, 64, 43
1, 122513, Control_c, 0, 67, 68
1, 122528, Control_c, 0, 64, 42
1, 122528, Control_c, 0, 67, 70
1, 122543, Control_c, 0, 64, 42
1, 122543, Control_c, 0, 67, 71
1, 122558, Control_c, 0, 64, 41
1, 122558, Control_c, 0, 67, 72
1, 122560, Note_off_c, 0, 75, 54
1, 122573, Control_c, 0, 64, 40
1, 122573, Control_c, 0, 67, 73
1, 122574, Note_on_c, 0, 81, 68
1, 122588, Control_c, 0, 64, 39
1, 122588, Control_c, 0, 67, 73
1, 122603, Control_c, 0, 64, 37
1, 122603, Control_c, 0, 67, 74
1, 122624, Note_off_c, 0, 81, 63
1, 122625, Control_c, 0, 64, 32
1, 122639, Control_c, 0, 64, 0
1, 122669, Note_on_c, 0, 75, 55
1, 122669, Control_c, 0, 67, 74
1, 122684, Control_c, 0, 67, 75
1, 122718, Note_off_c, 0, 75, 57
1, 122723, Note_on_c, 0, 82, 69
1, 122767, Note_off_c, 0, 82, 55
1, 122806, Note_on_c, 0, 75, 51
1, 122851, Note_off_c, 0, 75, 59
1, 122863, Control_c, 0, 67, 75
1, 122874, Note_on_c, 0, 83, 56
1, 122923, Note_off_c, 0, 83, 57
1, 122952, Note_on_c, 0, 75, 52
1, 123005, Note_off_c, 0, 75, 60
1, 123011, Control_c, 0, 67, 74
1, 123026, Control_c, 0, 67, 73
1, 123038, Note_on_c, 0, 84, 59
1, 123041, Control_c, 0, 64, 31
1, 123041, Control_c, 0, 67, 73
1, 123056, Control_c, 0, 64, 47
1, 123056, Control_c, 0, 67, 72
1, 123058, Note_on_c, 0, 65, 19
1, 123070, Control_c, 0, 64, 56
1, 123085, Control_c, 0, 64, 60
1, 123085, Control_c, 0, 67, 72
1, 123100, Note_off_c, 0, 65, 42
1, 123100, Control_c, 0, 64, 62
1, 123115, Control_c, 0, 64, 64
1, 123123, Note_on_c, 0, 69, 41
1, 123130, Control_c, 0, 64, 65
1, 123144, Control_c, 0, 64, 65
1, 123154, Note_off_c, 0, 69, 55
1, 123159, Control_c, 0, 64, 66
1, 123181, Note_on_c, 0, 72, 53
1, 123189, Control_c, 0, 64, 65
1, 123227, Note_off_c, 0, 72, 59
1, 123241, Note_off_c, 0, 84, 64
1, 123247, Note_on_c, 0, 69, 51
1, 123262, Control_c, 0, 64, 65
1, 123277, Control_c, 0, 64, 64
1, 123292, Control_c, 0, 64, 64
1, 123303, Note_off_c, 0, 69, 63
1, 123307, Control_c, 0, 64, 62
1, 123321, Note_on_c, 0, 65, 56
1, 123322, Control_c, 0, 64, 60
1, 123336, Control_c, 0, 64, 57
1, 123351, Control_c, 0, 64, 52
1, 123374, Control_c, 0, 64, 44
1, 123383, Note_off_c, 0, 65, 54
1, 123389, Control_c, 0, 64, 38
1, 123389, Control_c, 0, 67, 71
1, 123404, Control_c, 0, 64, 33
1, 123418, Control_c, 0, 64, 31
1, 123423, Note_on_c, 0, 69, 44
1, 123433, Control_c, 0, 64, 31
1, 123448, Control_c, 0, 64, 30
1, 123459, Note_off_c, 0, 69, 53
1, 123462, Control_c, 0, 64, 30
1, 123477, Control_c, 0, 64, 29
1, 123492, Note_on_c, 0, 87, 64
1, 123498, Note_on_c, 0, 72, 43
1, 123509, Control_c, 0, 64, 29
1, 123525, Note_off_c, 0, 87, 64
1, 123538, Control_c, 0, 64, 28
1, 123548, Note_off_c, 0, 72, 59
1, 123554, Note_on_c, 0, 69, 53
1, 123567, Control_c, 0, 64, 32
1, 123582, Control_c, 0, 64, 37
1, 123597, Control_c, 0, 64, 40
1, 123612, Control_c, 0, 64, 42
1, 123627, Control_c, 0, 64, 44
1, 123641, Control_c, 0, 64, 46
1, 123641, Control_c, 0, 67, 72
1, 123650, Note_off_c, 0, 69, 57
1, 123656, Control_c, 0, 64, 47
1, 123671, Note_on_c, 0, 86, 72
1, 123671, Control_c, 0, 67, 72
1, 123694, Note_on_c, 0, 65, 40
1, 123700, Control_c, 0, 67, 73
1, 123715, Control_c, 0, 64, 47
1, 123730, Control_c, 0, 67, 73
1, 123745, Control_c, 0, 64, 46
1, 123755, Note_off_c, 0, 65, 49
1, 123758, Note_on_c, 0, 72, 47
1, 123759, Control_c, 0, 64, 45
1, 123774, Control_c, 0, 64, 42
1, 123789, Control_c, 0, 64, 38
1, 123803, Note_off_c, 0, 86, 61
1, 123804, Note_off_c, 0, 72, 62
1, 123804, Control_c, 0, 64, 32
1, 123804, Control_c, 0, 67, 74
1, 123816, Note_on_c, 0, 84, 72
1, 123819, Control_c, 0, 64, 14
1, 123825, Note_on_c, 0, 75, 54
1, 123834, Control_c, 0, 64, 0
1, 123849, Control_c, 0, 67, 74
1, 123851, Note_off_c, 0, 84, 61
1, 123865, Note_off_c, 0, 75, 58
1, 123879, Control_c, 0, 67, 75
1, 123908, Control_c, 0, 67, 75
1, 123909, Note_on_c, 0, 72, 56
1, 123947, Note_off_c, 0, 72, 65
1, 123967, Note_on_c, 0, 82, 73
1, 123981, Note_on_c, 0, 65, 44
1, 124039, Note_off_c, 0, 65, 53
1, 124041, Control_c, 0, 67, 75
1, 124061, Note_on_c, 0, 72, 42
1, 124087, Note_off_c, 0, 72, 57
1, 124119, Note_on_c, 0, 75, 55
1, 124125, Note_on_c, 0, 81, 68
1, 124126, Note_off_c, 0, 82, 62
1, 124156, Note_off_c, 0, 81, 66
1, 124165, Note_off_c, 0, 75, 55
1, 124189, Note_on_c, 0, 72, 53
1, 124234, Note_off_c, 0, 72, 64
1, 124256, Control_c, 0, 67, 74
1, 124271, Control_c, 0, 67, 74
1, 124286, Note_on_c, 0, 84, 60
1, 124287, Note_on_c, 0, 65, 46
1, 124287, Control_c, 0, 67, 73
1, 124316, Control_c, 0, 64, 29
1, 124316, Control_c, 0, 67, 73
1, 124331, Control_c, 0, 64, 40
1, 124331, Control_c, 0, 67, 72
1, 124346, Control_c, 0, 64, 48
1, 124361, Control_c, 0, 64, 54
1, 124369, Note_off_c, 0, 65, 51
1, 124376, Control_c, 0, 64, 58
1, 124390, Control_c, 0, 64, 60
1, 124393, Note_on_c, 0, 70, 46
1, 124405, Control_c, 0, 64, 61
1, 124407, Note_off_c, 0, 84, 54
1, 124419, Note_off_c, 0, 70, 57
1, 124420, Control_c, 0, 64, 61
1, 124432, Note_on_c, 0, 82, 58
1, 124454, Note_on_c, 0, 74, 45
1, 124464, Control_c, 0, 67, 72
1, 124488, Note_off_c, 0, 82, 60
1, 124508, Note_off_c, 0, 74, 58
1, 124512, Note_on_c, 0, 70, 47
1, 124523, Control_c, 0, 64, 61
1, 124538, Control_c, 0, 67, 71
1, 124553, Control_c, 0, 64, 60
1, 124568, Control_c, 0, 64, 59
1, 124570, Note_off_c, 0, 70, 61
1, 124582, Control_c, 0, 64, 58
1, 124588, Note_on_c, 0, 65, 56
1, 124597, Control_c, 0, 64, 55
1, 124612, Control_c, 0, 64, 52
1, 124627, Control_c, 0, 64, 48
1, 124642, Control_c, 0, 64, 44
1, 124657, Control_c, 0, 64, 42
1, 124662, Note_off_c, 0, 65, 59
1, 124695, Note_on_c, 0, 70, 11
1, 124725, Note_on_c, 0, 89, 74
1, 124731, Control_c, 0, 64, 42
1, 124740, Note_on_c, 0, 74, 47
1, 124746, Note_off_c, 0, 70, 36
1, 124752, Note_off_c, 0, 89, 65
1, 124761, Control_c, 0, 64, 43
1, 124776, Control_c, 0, 64, 43
1, 124790, Control_c, 0, 64, 44
1, 124794, Note_off_c, 0, 74, 58
1, 124805, Control_c, 0, 64, 44
1, 124812, Note_on_c, 0, 70, 37
1, 124834, Control_c, 0, 64, 45
1, 124849, Control_c, 0, 64, 45
1, 124850, Note_off_c, 0, 70, 56
1, 124871, Control_c, 0, 64, 47
1, 124886, Control_c, 0, 64, 49
1, 124893, Note_on_c, 0, 65, 52
1, 124901, Control_c, 0, 64, 51
1, 124911, Note_on_c, 0, 87, 70
1, 124916, Control_c, 0, 64, 52
1, 124931, Control_c, 0, 64, 52
1, 124959, Note_off_c, 0, 65, 54
1, 124961, Control_c, 0, 64, 53
1, 124976, Control_c, 0, 64, 54
1, 124988, Note_on_c, 0, 68, 49
1, 125031, Note_off_c, 0, 68, 64
1, 125035, Control_c, 0, 64, 53
1, 125056, Note_on_c, 0, 71, 53
1, 125060, Note_on_c, 0, 86, 65
1, 125060, Note_off_c, 0, 87, 59
1, 125064, Control_c, 0, 64, 53
1, 125079, Control_c, 0, 64, 52
1, 125095, Control_c, 0, 64, 51
1, 125098, Note_off_c, 0, 86, 63
1, 125110, Control_c, 0, 64, 51
1, 125118, Note_off_c, 0, 71, 54
1, 125125, Control_c, 0, 64, 50
1, 125139, Control_c, 0, 64, 49
1, 125141, Note_on_c, 0, 68, 50
1, 125154, Control_c, 0, 64, 48
1, 125169, Control_c, 0, 64, 47
1, 125183, Note_off_c, 0, 68, 65
1, 125184, Control_c, 0, 64, 46
1, 125206, Note_on_c, 0, 84, 61
1, 125213, Control_c, 0, 67, 72
1, 125222, Note_on_c, 0, 65, 47
1, 125273, Control_c, 0, 64, 47
1, 125287, Control_c, 0, 64, 47
1, 125287, Control_c, 0, 67, 72
1, 125288, Note_off_c, 0, 65, 54
1, 125302, Control_c, 0, 67, 73
1, 125310, Note_on_c, 0, 68, 45
1, 125317, Control_c, 0, 64, 47
1, 125317, Control_c, 0, 67, 74
1, 125331, Control_c, 0, 64, 44
1, 125331, Control_c, 0, 67, 74
1, 125341, Note_off_c, 0, 84, 59
1, 125346, Control_c, 0, 64, 33
1, 125346, Control_c, 0, 67, 75
1, 125348, Note_off_c, 0, 68, 66
1, 125358, Note_on_c, 0, 83, 63
1, 125361, Control_c, 0, 64, 0
1, 125387, Note_on_c, 0, 74, 41
1, 125391, Control_c, 0, 67, 75
1, 125420, Control_c, 0, 67, 76
1, 125436, Note_off_c, 0, 83, 54
1, 125442, Note_off_c, 0, 74, 55
1, 125467, Note_on_c, 0, 68, 43
1, 125509, Note_off_c, 0, 68, 58
1, 125548, Note_on_c, 0, 84, 54
1, 125560, Note_on_c, 0, 63, 38
1, 125569, Control_c, 0, 64, 19
1, 125569, Control_c, 0, 67, 75
1, 125584, Control_c, 0, 64, 34
1, 125584, Control_c, 0, 67, 74
1, 125599, Control_c, 0, 64, 45
1, 125599, Control_c, 0, 67, 74
1, 125621, Control_c, 0, 64, 51
1, 125621, Control_c, 0, 67, 73
1, 125636, Control_c, 0, 64, 53
1, 125636, Control_c, 0, 67, 73
1, 125643, Note_off_c, 0, 63, 44
1, 125651, Control_c, 0, 64, 56
1, 125651, Control_c, 0, 67, 72
1, 125665, Control_c, 0, 64, 59
1, 125665, Control_c, 0, 67, 72
1, 125673, Note_on_c, 0, 67, 33
1, 125680, Control_c, 0, 64, 62
1, 125680, Control_c, 0, 67, 71
1, 125695, Control_c, 0, 64, 65
1, 125695, Control_c, 0, 67, 71
1, 125706, Note_off_c, 0, 67, 53
1, 125710, Control_c, 0, 64, 66
1, 125710, Control_c, 0, 67, 70
1, 125725, Control_c, 0, 67, 70
1, 125730, Note_on_c, 0, 72, 52
1, 125754, Control_c, 0, 64, 66
1, 125754, Control_c, 0, 67, 69
1, 125781, Note_off_c, 0, 72, 56
1, 125787, Note_off_c, 0, 84, 35
1, 125797, Note_on_c, 0, 67, 48
1, 125798, Note_on_c, 0, 86, 70
1, 125799, Control_c, 0, 67, 70
1, 125813, Control_c, 0, 64, 65
1, 125813, Control_c, 0, 67, 70
1, 125828, Control_c, 0, 64, 64
1, 125828, Control_c, 0, 67, 71
1, 125842, Note_off_c, 0, 67, 61
1, 125843, Control_c, 0, 64, 62
1, 125843, Control_c, 0, 67, 71
1, 125858, Note_off_c, 0, 86, 63
1, 125858, Control_c, 0, 64, 60
1, 125858, Control_c, 0, 67, 72
1, 125873, Control_c, 0, 64, 55
1, 125873, Control_c, 0, 67, 72
1, 125877, Note_on_c, 0, 63, 53
1, 125879, Note_on_c, 0, 89, 75
1, 125889, Control_c, 0, 64, 48
1, 125889, Control_c, 0, 67, 73
1, 125904, Control_c, 0, 64, 42
1, 125918, Control_c, 0, 64, 37
1, 125933, Control_c, 0, 64, 29
1, 125948, Control_c, 0, 64, 25
1, 125953, Note_on_c, 0, 87, 77
1, 125962, Note_off_c, 0, 89, 61
1, 125962, Control_c, 0, 64, 21
1, 125965, Note_on_c, 0, 67, 54
1, 125973, Note_off_c, 0, 63, 55
1, 125977, Control_c, 0, 64, 0
1, 126004, Note_off_c, 0, 67, 63
1, 126025, Note_on_c, 0, 86, 70
1, 126032, Note_off_c, 0, 87, 64
1, 126047, Note_on_c, 0, 72, 46
1, 126064, Note_off_c, 0, 86, 66
1, 126091, Note_off_c, 0, 72, 58
1, 126095, Note_on_c, 0, 84, 71
1, 126096, Control_c, 0, 67, 72
1, 126102, Note_on_c, 0, 67, 52
1, 126111, Control_c, 0, 64, 31
1, 126126, Control_c, 0, 64, 44
1, 126126, Control_c, 0, 67, 72
1, 126141, Control_c, 0, 64, 48
1, 126153, Note_off_c, 0, 84, 62
1, 126155, Control_c, 0, 64, 50
1, 126169, Note_on_c, 0, 82, 72
1, 126170, Control_c, 0, 64, 51
1, 126171, Note_off_c, 0, 67, 58
1, 126185, Control_c, 0, 64, 53
1, 126188, Note_on_c, 0, 65, 51
1, 126200, Control_c, 0, 64, 54
1, 126215, Control_c, 0, 64, 55
1, 126229, Control_c, 0, 64, 55
1, 126237, Note_off_c, 0, 65, 61
1, 126243, Control_c, 0, 64, 54
1, 126258, Control_c, 0, 64, 54
1, 126262, Note_on_c, 0, 70, 50
1, 126273, Control_c, 0, 64, 52
1, 126287, Control_c, 0, 64, 51
1, 126302, Control_c, 0, 64, 49
1, 126305, Note_off_c, 0, 70, 64
1, 126317, Control_c, 0, 64, 47
1, 126332, Control_c, 0, 64, 45
1, 126338, Note_on_c, 0, 74, 50
1, 126347, Control_c, 0, 64, 42
1, 126369, Control_c, 0, 64, 40
1, 126384, Control_c, 0, 64, 39
1, 126399, Control_c, 0, 64, 38
1, 126401, Note_off_c, 0, 74, 49
1, 126414, Control_c, 0, 67, 71
1, 126421, Note_on_c, 0, 70, 57
1, 126429, Control_c, 0, 64, 39
1, 126443, Control_c, 0, 64, 39
1, 126443, Control_c, 0, 67, 71
1, 126458, Control_c, 0, 64, 40
1, 126458, Control_c, 0, 67, 70
1, 126467, Note_off_c, 0, 70, 60
1, 126473, Control_c, 0, 64, 41
1, 126473, Control_c, 0, 67, 70
1, 126483, Note_on_c, 0, 65, 55
1, 126487, Note_off_c, 0, 82, 52
1, 126487, Control_c, 0, 64, 44
1, 126487, Control_c, 0, 67, 69
1, 126502, Control_c, 0, 64, 48
1, 126502, Control_c, 0, 67, 68
1, 126504, Note_on_c, 0, 81, 60
1, 126517, Control_c, 0, 64, 51
1, 126517, Control_c, 0, 67, 67
1, 126528, Note_off_c, 0, 65, 60
1, 126532, Control_c, 0, 64, 53
1, 126532, Control_c, 0, 67, 65
1, 126547, Control_c, 0, 64, 55
1, 126547, Control_c, 0, 67, 61
1, 126562, Control_c, 0, 64, 57
1, 126562, Control_c, 0, 67, 54
1, 126573, Note_on_c, 0, 72, 53
1, 126576, Control_c, 0, 64, 60
1, 126576, Control_c, 0, 67, 42
1, 126591, Control_c, 0, 64, 61
1, 126591, Control_c, 0, 67, 24
1, 126606, Control_c, 0, 64, 62
1, 126606, Control_c, 0, 67, 0
1, 126621, Note_off_c, 0, 72, 60
1, 126621, Control_c, 0, 64, 63
1, 126642, Note_off_c, 0, 81, 52
1, 126660, Note_on_c, 0, 75, 51
1, 126666, Control_c, 0, 64, 64
1, 126696, Note_off_c, 0, 75, 65
1, 126696, Control_c, 0, 64, 63
1, 126708, Note_on_c, 0, 72, 61
1, 126711, Control_c, 0, 64, 63
1, 126725, Control_c, 0, 64, 60
1, 126737, Note_off_c, 0, 72, 66
1, 126740, Control_c, 0, 64, 55
1, 126755, Control_c, 0, 64, 49
1, 126770, Control_c, 0, 64, 49
1, 126785, Control_c, 0, 64, 55
1, 126800, Control_c, 0, 64, 60
1, 126803, Note_on_c, 0, 70, 76
1, 126808, Note_on_c, 0, 58, 78
1, 126815, Control_c, 0, 64, 64
1, 126826, Note_off_c, 0, 70, 70
1, 126830, Control_c, 0, 64, 68
1, 126832, Note_off_c, 0, 58, 69
1, 126845, Control_c, 0, 64, 70
1, 126859, Control_c, 0, 64, 71
1, 126874, Control_c, 0, 64, 71
1, 126906, Note_on_c, 0, 82, 59
1, 126963, Control_c, 0, 64, 72
1, 126965, Note_off_c, 0, 82, 62
1, 126970, Note_on_c, 0, 81, 63
1, 126991, Control_c, 0, 64, 71
1, 127006, Control_c, 0, 64, 71
1, 127021, Control_c, 0, 64, 69
1, 127026, Note_off_c, 0, 81, 63
1, 127036, Control_c, 0, 64, 64
1, 127045, Note_on_c, 0, 82, 69
1, 127050, Control_c, 0, 64, 52
1, 127065, Control_c, 0, 64, 0
1, 127083, Note_off_c, 0, 82, 62
1, 127132, Control_c, 0, 64, 35
1, 127145, Note_on_c, 0, 65, 88
1, 127147, Control_c, 0, 64, 55
1, 127153, Note_on_c, 0, 53, 73
1, 127162, Control_c, 0, 64, 64
1, 127167, Note_off_c, 0, 65, 69
1, 127177, Control_c, 0, 64, 70
1, 127179, Note_off_c, 0, 53, 69
1, 127191, Control_c, 0, 64, 74
1, 127245, Note_on_c, 0, 77, 52
1, 127292, Note_off_c, 0, 77, 58
1, 127310, Control_c, 0, 64, 73
1, 127314, Note_on_c, 0, 76, 55
1, 127340, Control_c, 0, 64, 72
1, 127354, Control_c, 0, 64, 68
1, 127362, Note_off_c, 0, 76, 60
1, 127369, Control_c, 0, 64, 63
1, 127384, Control_c, 0, 64, 51
1, 127393, Note_on_c, 0, 77, 58
1, 127399, Control_c, 0, 64, 0
1, 127427, Note_off_c, 0, 77, 64
1, 127473, Note_on_c, 0, 62, 72
1, 127473, Control_c, 0, 64, 39
1, 127477, Note_on_c, 0, 50, 72
1, 127489, Control_c, 0, 64, 57
1, 127502, Note_off_c, 0, 62, 66
1, 127503, Control_c, 0, 64, 64
1, 127509, Note_off_c, 0, 50, 68
1, 127518, Control_c, 0, 64, 68
1, 127533, Control_c, 0, 64, 71
1, 127548, Control_c, 0, 64, 72
1, 127570, Note_on_c, 0, 74, 56
1, 127578, Control_c, 0, 64, 73
1, 127593, Control_c, 0, 64, 73
1, 127614, Note_off_c, 0, 74, 63
1, 127641, Note_on_c, 0, 73, 56
1, 127652, Control_c, 0, 64, 73
1, 127666, Control_c, 0, 64, 72
1, 127681, Control_c, 0, 64, 68
1, 127696, Control_c, 0, 64, 63
1, 127697, Note_off_c, 0, 73, 57
1, 127711, Control_c, 0, 64, 53
1, 127726, Control_c, 0, 64, 32
1, 127727, Note_on_c, 0, 74, 49
1, 127740, Control_c, 0, 64, 0
1, 127758, Note_off_c, 0, 74, 65
1, 127800, Control_c, 0, 64, 20
1, 127806, Note_on_c, 0, 46, 67
1, 127806, Note_on_c, 0, 58, 64
1, 127814, Control_c, 0, 64, 41
1, 127829, Control_c, 0, 64, 55
1, 127837, Note_off_c, 0, 58, 65
1, 127837, Note_off_c, 0, 46, 65
1, 127844, Control_c, 0, 64, 63
1, 127866, Control_c, 0, 64, 67
1, 127881, Control_c, 0, 64, 71
1, 127896, Control_c, 0, 64, 74
1, 127911, Control_c, 0, 64, 74
1, 127921, Note_on_c, 0, 70, 54
1, 127954, Note_off_c, 0, 70, 65
1, 127974, Note_on_c, 0, 69, 50
1, 128000, Control_c, 0, 64, 74
1, 128014, Control_c, 0, 64, 73
1, 128019, Note_off_c, 0, 69, 63
1, 128029, Control_c, 0, 64, 71
1, 128044, Note_on_c, 0, 70, 55
1, 128044, Control_c, 0, 64, 69
1, 128058, Control_c, 0, 64, 66
1, 128073, Control_c, 0, 64, 64
1, 128083, Note_off_c, 0, 70, 64
1, 128088, Control_c, 0, 64, 61
1, 128103, Control_c, 0, 64, 56
1, 128118, Control_c, 0, 64, 47
1, 128132, Control_c, 0, 64, 37
1, 128147, Control_c, 0, 64, 26
1, 128162, Control_c, 0, 64, 14
1, 128177, Control_c, 0, 64, 0
1, 128222, Note_on_c, 0, 63, 46
1, 128239, Note_on_c, 0, 53, 35
1, 128251, Control_c, 0, 64, 33
1, 128260, Note_on_c, 0, 65, 40
1, 128266, Control_c, 0, 64, 45
1, 128277, Note_on_c, 0, 69, 54
1, 128282, Control_c, 0, 64, 54
1, 128296, Control_c, 0, 64, 60
1, 128299, Note_off_c, 0, 53, 50
1, 128311, Control_c, 0, 64, 65
1, 128326, Control_c, 0, 64, 67
1, 128329, Note_off_c, 0, 63, 53
1, 128335, Note_off_c, 0, 65, 56
1, 128341, Control_c, 0, 64, 69
1, 128350, Note_on_c, 0, 60, 31
1, 128356, Control_c, 0, 64, 70
1, 128371, Control_c, 0, 64, 71
1, 128377, Note_off_c, 0, 69, 60
1, 128384, Note_off_c, 0, 60, 53
1, 128401, Control_c, 0, 64, 71
1, 128406, Note_on_c, 0, 63, 33
1, 128459, Note_off_c, 0, 63, 58
1, 128460, Control_c, 0, 64, 70
1, 128474, Control_c, 0, 64, 69
1, 128484, Note_on_c, 0, 60, 50
1, 128488, Control_c, 0, 64, 68
1, 128503, Control_c, 0, 64, 66
1, 128518, Control_c, 0, 64, 65
1, 128521, Note_off_c, 0, 60, 65
1, 128533, Control_c, 0, 64, 64
1, 128548, Control_c, 0, 64, 64
1, 128548, Control_c, 0, 67, 8
1, 128556, Note_on_c, 0, 53, 43
1, 128562, Control_c, 0, 64, 63
1, 128577, Control_c, 0, 64, 63
1, 128592, Control_c, 0, 64, 62
1, 128592, Control_c, 0, 67, 0
1, 128630, Note_on_c, 0, 60, 45
1, 128636, Note_off_c, 0, 53, 52
1, 128698, Note_off_c, 0, 60, 60
1, 128703, Control_c, 0, 64, 61
1, 128715, Note_on_c, 0, 63, 48
1, 128718, Note_on_c, 0, 75, 61
1, 128718, Control_c, 0, 64, 60
1, 128733, Control_c, 0, 64, 58
1, 128748, Control_c, 0, 64, 56
1, 128758, Note_off_c, 0, 75, 58
1, 128762, Control_c, 0, 64, 53
1, 128777, Control_c, 0, 64, 48
1, 128783, Note_off_c, 0, 63, 54
1, 128792, Control_c, 0, 64, 43
1, 128807, Control_c, 0, 64, 38
1, 128818, Note_on_c, 0, 60, 39
1, 128822, Control_c, 0, 64, 34
1, 128836, Control_c, 0, 64, 33
1, 128853, Note_off_c, 0, 60, 62
1, 128884, Note_on_c, 0, 74, 64
1, 128889, Note_on_c, 0, 53, 45
1, 128896, Control_c, 0, 64, 33
1, 128910, Control_c, 0, 64, 35
1, 128925, Control_c, 0, 64, 36
1, 128940, Control_c, 0, 64, 37
1, 128955, Control_c, 0, 64, 37
1, 128958, Note_on_c, 0, 60, 50
1, 128970, Control_c, 0, 64, 38
1, 128982, Note_off_c, 0, 53, 55
1, 128985, Control_c, 0, 64, 39
1, 129000, Control_c, 0, 64, 40
1, 129015, Control_c, 0, 64, 41
1, 129019, Note_off_c, 0, 60, 60
1, 129027, Note_off_c, 0, 74, 62
1, 129029, Control_c, 0, 64, 42
1, 129044, Control_c, 0, 64, 44
1, 129045, Note_on_c, 0, 72, 67
1, 129048, Note_on_c, 0, 63, 49
1, 129059, Control_c, 0, 64, 45
1, 129074, Control_c, 0, 64, 45
1, 129089, Control_c, 0, 64, 46
1, 129098, Note_off_c, 0, 63, 60
1, 129104, Note_off_c, 0, 72, 61
1, 129140, Note_on_c, 0, 60, 40
1, 129175, Note_off_c, 0, 60, 62
1, 129193, Control_c, 0, 64, 45
1, 129206, Note_on_c, 0, 70, 68
1, 129215, Note_on_c, 0, 53, 43
1, 129223, Control_c, 0, 64, 44
1, 129238, Control_c, 0, 64, 44
1, 129253, Control_c, 0, 64, 42
1, 129268, Control_c, 0, 64, 41
1, 129283, Note_on_c, 0, 60, 49
1, 129283, Control_c, 0, 64, 39
1, 129287, Note_off_c, 0, 53, 54
1, 129297, Control_c, 0, 64, 34
1, 129312, Control_c, 0, 64, 25
1, 129312, Control_c, 0, 67, 9
1, 129322, Note_off_c, 0, 60, 63
1, 129327, Control_c, 0, 64, 0
1, 129327, Control_c, 0, 67, 13
1, 129342, Control_c, 0, 67, 18
1, 129346, Note_off_c, 0, 70, 55
1, 129364, Control_c, 0, 67, 24
1, 129367, Note_on_c, 0, 63, 44
1, 129369, Note_on_c, 0, 69, 65
1, 129378, Control_c, 0, 67, 30
1, 129393, Control_c, 0, 67, 35
1, 129408, Control_c, 0, 67, 42
1, 129418, Note_off_c, 0, 69, 63
1, 129420, Note_off_c, 0, 63, 61
1, 129423, Control_c, 0, 67, 47
1, 129430, Note_on_c, 0, 60, 46
1, 129438, Control_c, 0, 67, 49
1, 129453, Control_c, 0, 67, 50
1, 129463, Note_off_c, 0, 60, 65
1, 129468, Control_c, 0, 67, 50
1, 129483, Control_c, 0, 67, 51
1, 129498, Control_c, 0, 67, 52
1, 129512, Control_c, 0, 67, 53
1, 129526, Note_on_c, 0, 53, 40
1, 129527, Control_c, 0, 67, 53
1, 129531, Note_on_c, 0, 72, 55
1, 129542, Control_c, 0, 67, 54
1, 129557, Control_c, 0, 67, 55
1, 129572, Control_c, 0, 67, 56
1, 129586, Control_c, 0, 67, 59
1, 129593, Note_off_c, 0, 53, 52
1, 129601, Control_c, 0, 67, 62
1, 129616, Control_c, 0, 67, 65
1, 129620, Note_on_c, 0, 58, 41
1, 129630, Control_c, 0, 67, 68
1, 129645, Control_c, 0, 67, 68
1, 129647, Note_off_c, 0, 58, 58
1, 129660, Control_c, 0, 64, 28
1, 129675, Control_c, 0, 64, 45
1, 129680, Note_off_c, 0, 72, 53
1, 129690, Control_c, 0, 64, 53
1, 129699, Note_on_c, 0, 62, 37
1, 129700, Note_on_c, 0, 70, 48
1, 129704, Control_c, 0, 64, 56
1, 129719, Control_c, 0, 64, 57
1, 129734, Control_c, 0, 64, 57
1, 129740, Note_off_c, 0, 70, 65
1, 129745, Note_on_c, 0, 58, 44
1, 129747, Note_off_c, 0, 62, 51
1, 129749, Control_c, 0, 64, 58
1, 129764, Control_c, 0, 64, 58
1, 129793, Control_c, 0, 64, 58
1, 129805, Note_off_c, 0, 58, 60
1, 129808, Control_c, 0, 64, 57
1, 129808, Control_c, 0, 67, 68
1, 129823, Control_c, 0, 64, 57
1, 129823, Control_c, 0, 67, 67
1, 129838, Control_c, 0, 64, 56
1, 129840, Note_on_c, 0, 53, 45
1, 129852, Control_c, 0, 64, 56
1, 129852, Control_c, 0, 67, 67
1, 129867, Control_c, 0, 64, 55
1, 129906, Note_off_c, 0, 53, 56
1, 129927, Control_c, 0, 64, 55
1, 129947, Note_on_c, 0, 58, 8
1, 129972, Control_c, 0, 67, 67
1, 129985, Note_on_c, 0, 62, 47
1, 129987, Note_on_c, 0, 77, 59
1, 129987, Control_c, 0, 67, 68
1, 129990, Note_off_c, 0, 58, 39
1, 130016, Control_c, 0, 67, 68
1, 130018, Note_off_c, 0, 77, 66
1, 130039, Note_off_c, 0, 62, 57
1, 130061, Control_c, 0, 64, 54
1, 130061, Control_c, 0, 67, 69
1, 130074, Note_on_c, 0, 58, 33
1, 130076, Control_c, 0, 64, 54
1, 130091, Control_c, 0, 64, 53
1, 130119, Note_off_c, 0, 58, 54
1, 130142, Control_c, 0, 64, 54
1, 130148, Note_on_c, 0, 75, 66
1, 130150, Note_on_c, 0, 53, 46
1, 130157, Control_c, 0, 64, 55
1, 130172, Control_c, 0, 64, 56
1, 130187, Control_c, 0, 64, 56
1, 130201, Control_c, 0, 64, 57
1, 130216, Control_c, 0, 64, 58
1, 130231, Control_c, 0, 64, 59
1, 130234, Note_off_c, 0, 53, 60
1, 130243, Note_on_c, 0, 56, 48
1, 130246, Control_c, 0, 64, 59
1, 130276, Control_c, 0, 67, 70
1, 130286, Note_off_c, 0, 56, 65
1, 130301, Note_on_c, 0, 74, 66
1, 130306, Control_c, 0, 67, 70
1, 130312, Note_off_c, 0, 75, 57
1, 130315, Note_on_c, 0, 59, 51
1, 130320, Control_c, 0, 64, 59
1, 130320, Control_c, 0, 67, 71
1, 130335, Control_c, 0, 64, 58
1, 130335, Control_c, 0, 67, 72
1, 130346, Note_off_c, 0, 74, 61
1, 130350, Control_c, 0, 64, 58
1, 130350, Control_c, 0, 67, 73
1, 130365, Control_c, 0, 64, 57
1, 130374, Note_off_c, 0, 59, 52
1, 130380, Control_c, 0, 64, 56
1, 130380, Control_c, 0, 67, 73
1, 130395, Control_c, 0, 64, 55
1, 130395, Control_c, 0, 67, 74
1, 130401, Note_on_c, 0, 56, 51
1, 130409, Control_c, 0, 64, 53
1, 130424, Control_c, 0, 64, 51
1, 130439, Control_c, 0, 64, 49
1, 130443, Note_off_c, 0, 56, 62
1, 130449, Note_on_c, 0, 72, 60
1, 130453, Control_c, 0, 64, 49
1, 130468, Control_c, 0, 64, 49
1, 130478, Note_on_c, 0, 53, 47
1, 130483, Control_c, 0, 64, 50
1, 130498, Control_c, 0, 64, 52
1, 130513, Control_c, 0, 64, 53
1, 130527, Control_c, 0, 64, 54
1, 130542, Control_c, 0, 64, 57
1, 130555, Note_on_c, 0, 56, 43
1, 130556, Note_off_c, 0, 53, 56
1, 130557, Control_c, 0, 64, 59
1, 130572, Control_c, 0, 64, 61
1, 130587, Control_c, 0, 64, 62
1, 130598, Note_off_c, 0, 56, 64
1, 130608, Note_off_c, 0, 72, 59
1, 130612, Note_on_c, 0, 71, 62
1, 130634, Note_on_c, 0, 62, 48
1, 130664, Note_off_c, 0, 71, 54
1, 130687, Note_off_c, 0, 62, 55
1, 130691, Control_c, 0, 64, 61
1, 130710, Note_on_c, 0, 56, 51
1, 130736, Control_c, 0, 64, 61
1, 130750, Control_c, 0, 64, 60
1, 130754, Note_off_c, 0, 56, 63
1, 130765, Control_c, 0, 64, 58
1, 130780, Control_c, 0, 64, 55
1, 130795, Control_c, 0, 64, 52
1, 130800, Note_on_c, 0, 51, 48
1, 130809, Note_on_c, 0, 72, 59
1, 130810, Control_c, 0, 64, 49
1, 130824, Control_c, 0, 64, 47
1, 130862, Control_c, 0, 64, 48
1, 130876, Control_c, 0, 64, 52
1, 130891, Control_c, 0, 64, 55
1, 130895, Note_off_c, 0, 51, 58
1, 130903, Note_on_c, 0, 55, 46
1, 130906, Control_c, 0, 64, 59
1, 130906, Control_c, 0, 67, 73
1, 130921, Control_c, 0, 64, 61
1, 130936, Control_c, 0, 64, 63
1, 130936, Control_c, 0, 67, 73
1, 130949, Note_off_c, 0, 72, 55
1, 130950, Control_c, 0, 64, 65
1, 130950, Control_c, 0, 67, 72
1, 130960, Note_off_c, 0, 55, 58
1, 130965, Control_c, 0, 64, 66
1, 130965, Control_c, 0, 67, 72
1, 130980, Control_c, 0, 64, 67
1, 130991, Note_on_c, 0, 60, 47
1, 131024, Control_c, 0, 64, 67
1, 131039, Control_c, 0, 64, 65
1, 131043, Note_off_c, 0, 60, 60
1, 131054, Control_c, 0, 64, 64
1, 131066, Note_on_c, 0, 74, 55
1, 131069, Control_c, 0, 64, 63
1, 131086, Note_off_c, 0, 74, 62
1, 131088, Note_on_c, 0, 55, 34
1, 131113, Control_c, 0, 64, 63
1, 131123, Note_off_c, 0, 55, 47
1, 131128, Control_c, 0, 67, 71
1, 131133, Note_on_c, 0, 51, 56
1, 131143, Note_on_c, 0, 74, 66
1, 131143, Control_c, 0, 64, 64
1, 131158, Control_c, 0, 64, 64
1, 131173, Control_c, 0, 64, 65
1, 131203, Note_off_c, 0, 74, 62
1, 131209, Note_on_c, 0, 55, 56
1, 131215, Note_on_c, 0, 75, 68
1, 131221, Note_off_c, 0, 51, 54
1, 131232, Control_c, 0, 64, 64
1, 131262, Control_c, 0, 64, 64
1, 131279, Note_off_c, 0, 55, 61
1, 131281, Note_off_c, 0, 75, 64
1, 131291, Control_c, 0, 64, 63
1, 131294, Note_on_c, 0, 77, 67
1, 131309, Note_on_c, 0, 60, 53
1, 131336, Control_c, 0, 64, 63
1, 131355, Note_off_c, 0, 77, 64
1, 131361, Note_off_c, 0, 60, 56
1, 131365, Control_c, 0, 64, 62
1, 131366, Note_on_c, 0, 79, 65
1, 131380, Control_c, 0, 64, 62
1, 131385, Note_off_c, 0, 79, 65
1, 131392, Note_on_c, 0, 55, 46
1, 131395, Control_c, 0, 64, 61
1, 131409, Control_c, 0, 64, 58
1, 131424, Control_c, 0, 64, 54
1, 131439, Control_c, 0, 64, 46
1, 131443, Note_off_c, 0, 55, 59
1, 131445, Note_on_c, 0, 79, 81
1, 131454, Control_c, 0, 64, 39
1, 131468, Note_on_c, 0, 53, 51
1, 131470, Control_c, 0, 64, 37
1, 131485, Control_c, 0, 64, 40
1, 131499, Control_c, 0, 64, 46
1, 131514, Control_c, 0, 64, 50
1, 131522, Note_on_c, 0, 70, 64
1, 131524, Note_off_c, 0, 79, 62
1, 131529, Control_c, 0, 64, 54
1, 131531, Note_off_c, 0, 53, 59
1, 131541, Note_on_c, 0, 58, 60
1, 131544, Control_c, 0, 64, 58
1, 131559, Control_c, 0, 64, 60
1, 131573, Control_c, 0, 64, 62
1, 131581, Note_off_c, 0, 58, 62
1, 131588, Control_c, 0, 64, 62
1, 131626, Control_c, 0, 64, 63
1, 131628, Note_on_c, 0, 62, 55
1, 131655, Control_c, 0, 67, 71
1, 131683, Note_off_c, 0, 70, 0
1, 131699, Control_c, 0, 64, 62
1, 131699, Control_c, 0, 67, 70
1, 131714, Control_c, 0, 64, 61
1, 131714, Control_c, 0, 67, 70
1, 131719, Note_off_c, 0, 62, 55
1, 131719, Poly_aftertouch_c, 0, 70, 127
1, 131722, Note_on_c, 0, 58, 53
1, 131729, Control_c, 0, 64, 59
1, 131744, Control_c, 0, 64, 56
1, 131759, Control_c, 0, 64, 53
1, 131759, Control_c, 0, 67, 69
1, 131767, Poly_aftertouch_c, 0, 70, 0
1, 131773, Control_c, 0, 64, 52
1, 131773, Control_c, 0, 67, 69
1, 131782, Note_on_c, 0, 74, 71
1, 131788, Control_c, 0, 64, 55
1, 131788, Control_c, 0, 67, 67
1, 131790, Note_on_c, 0, 53, 50
1, 131803, Control_c, 0, 64, 58
1, 131803, Control_c, 0, 67, 65
1, 131808, Note_off_c, 0, 58, 56
1, 131818, Control_c, 0, 64, 60
1, 131818, Control_c, 0, 67, 64
1, 131827, Note_off_c, 0, 74, 65
1, 131829, Note_on_c, 0, 72, 68
1, 131832, Control_c, 0, 64, 62
1, 131832, Control_c, 0, 67, 63
1, 131847, Control_c, 0, 64, 63
1, 131847, Control_c, 0, 67, 62
1, 131862, Control_c, 0, 64, 64
1, 131862, Control_c, 0, 67, 60
1, 131877, Note_off_c, 0, 72, 63
1, 131877, Control_c, 0, 64, 64
1, 131877, Control_c, 0, 67, 56
1, 131880, Note_on_c, 0, 57, 50
1, 131882, Note_off_c, 0, 53, 55
1, 131884, Note_on_c, 0, 74, 61
1, 131892, Control_c, 0, 67, 49
1, 131906, Control_c, 0, 67, 42
1, 131921, Note_off_c, 0, 74, 63
1, 131921, Control_c, 0, 67, 35
1, 131923, Note_on_c, 0, 72, 51
1, 131936, Control_c, 0, 67, 30
1, 131944, Note_off_c, 0, 57, 58
1, 131951, Control_c, 0, 67, 26
1, 131961, Note_on_c, 0, 63, 44
1, 131966, Control_c, 0, 67, 21
1, 131969, Note_off_c, 0, 72, 64
1, 131981, Control_c, 0, 64, 64
1, 131981, Control_c, 0, 67, 14
1, 131984, Note_on_c, 0, 70, 59
1, 131996, Control_c, 0, 67, 0
1, 132011, Control_c, 0, 64, 63
1, 132029, Note_off_c, 0, 70, 63
1, 132040, Control_c, 0, 64, 63
1, 132046, Note_off_c, 0, 63, 56
1, 132049, Note_on_c, 0, 72, 57
1, 132055, Control_c, 0, 64, 62
1, 132069, Note_on_c, 0, 57, 48
1, 132070, Control_c, 0, 64, 61
1, 132085, Control_c, 0, 64, 60
1, 132091, Note_off_c, 0, 72, 64
1, 132099, Control_c, 0, 64, 58
1, 132114, Control_c, 0, 64, 52
1, 132129, Control_c, 0, 64, 32
1, 132136, Note_off_c, 0, 57, 57
1, 132144, Control_c, 0, 64, 0
1, 132157, Note_on_c, 0, 62, 56
1, 132169, Note_on_c, 0, 58, 54
1, 132322, Control_c, 0, 64, 17
1, 132337, Control_c, 0, 64, 35
1, 132359, Control_c, 0, 64, 48
1, 132367, Note_on_c, 0, 89, 81
1, 132374, Control_c, 0, 64, 57
1, 132389, Control_c, 0, 64, 61
1, 132404, Control_c, 0, 64, 64
1, 132419, Control_c, 0, 64, 68
1, 132434, Control_c, 0, 64, 72
1, 132440, Note_off_c, 0, 89, 61
1, 132447, Note_on_c, 0, 86, 75
1, 132448, Control_c, 0, 64, 77
1, 132463, Control_c, 0, 64, 82
1, 132478, Control_c, 0, 64, 85
1, 132493, Control_c, 0, 64, 88
1, 132508, Control_c, 0, 64, 91
1, 132517, Note_on_c, 0, 82, 80
1, 132522, Control_c, 0, 64, 94
1, 132523, Note_off_c, 0, 86, 63
1, 132537, Control_c, 0, 64, 98
1, 132552, Control_c, 0, 64, 100
1, 132570, Note_off_c, 0, 82, 64
1, 132595, Note_on_c, 0, 77, 70
1, 132622, Note_off_c, 0, 77, 68
1, 132672, Note_on_c, 0, 74, 79
1, 132712, Note_off_c, 0, 62, 41
1, 132728, Note_off_c, 0, 74, 61
1, 132732, Note_on_c, 0, 70, 74
1, 132757, Note_off_c, 0, 70, 68
1, 132784, Note_off_c, 0, 58, 43
1, 132789, Control_c, 0, 64, 99
1, 132804, Control_c, 0, 64, 97
1, 132818, Control_c, 0, 64, 90
1, 132824, Note_on_c, 0, 68, 84
1, 132833, Control_c, 0, 64, 77
1, 132844, Note_on_c, 0, 65, 60
1, 132848, Control_c, 0, 64, 61
1, 132863, Control_c, 0, 64, 0
1, 132994, Note_on_c, 0, 58, 70
1, 132997, Note_on_c, 0, 46, 62
1, 133020, Note_off_c, 0, 58, 67
1, 133027, Note_off_c, 0, 46, 64
1, 133157, Note_on_c, 0, 62, 73
1, 133158, Note_on_c, 0, 50, 72
1, 133185, Note_off_c, 0, 50, 68
1, 133186, Note_off_c, 0, 62, 65
1, 133304, Note_on_c, 0, 58, 78
1, 133319, Note_on_c, 0, 46, 55
1, 133328, Note_off_c, 0, 58, 68
1, 133345, Note_off_c, 0, 46, 60
1, 133409, Note_off_c, 0, 65, 51
1, 133464, Control_c, 0, 64, 38
1, 133478, Control_c, 0, 64, 56
1, 133480, Note_on_c, 0, 51, 63
1, 133483, Note_on_c, 0, 63, 75
1, 133493, Control_c, 0, 64, 64
1, 133493, Control_c, 0, 67, 8
1, 133506, Note_off_c, 0, 51, 65
1, 133508, Control_c, 0, 64, 67
1, 133508, Control_c, 0, 67, 9
1, 133520, Note_off_c, 0, 63, 58
1, 133523, Control_c, 0, 64, 71
1, 133523, Control_c, 0, 67, 9
1, 133538, Control_c, 0, 64, 75
1, 133552, Control_c, 0, 64, 77
1, 133567, Control_c, 0, 64, 79
1, 133567, Control_c, 0, 67, 9
1, 133581, Note_off_c, 0, 68, 57
1, 133582, Control_c, 0, 64, 79
1, 133596, Control_c, 0, 67, 8
1, 133611, Control_c, 0, 67, 8
1, 133626, Control_c, 0, 64, 78
1, 133641, Control_c, 0, 64, 77
1, 133649, Note_on_c, 0, 67, 53
1, 133656, Control_c, 0, 64, 74
1, 133671, Control_c, 0, 64, 70
1, 133671, Control_c, 0, 67, 8
1, 133686, Control_c, 0, 64, 65
1, 133686, Control_c, 0, 67, 9
1, 133701, Control_c, 0, 64, 58
1, 133701, Control_c, 0, 67, 10
1, 133705, Note_off_c, 0, 67, 59
1, 133716, Control_c, 0, 64, 42
1, 133716, Control_c, 0, 67, 11
1, 133731, Control_c, 0, 64, 0
1, 133731, Control_c, 0, 67, 12
1, 133745, Control_c, 0, 67, 16
1, 133760, Control_c, 0, 67, 20
1, 133775, Control_c, 0, 67, 27
1, 133789, Control_c, 0, 67, 35
1, 133804, Control_c, 0, 67, 44
1, 133819, Note_on_c, 0, 60, 36
1, 133819, Control_c, 0, 67, 54
1, 133834, Control_c, 0, 67, 63
1, 133856, Control_c, 0, 67, 70
1, 133872, Control_c, 0, 67, 72
1, 133887, Control_c, 0, 67, 73
1, 133901, Control_c, 0, 67, 76
1, 133916, Control_c, 0, 67, 79
1, 133931, Control_c, 0, 67, 81
1, 133946, Control_c, 0, 67, 83
1, 133961, Control_c, 0, 67, 83
1, 133975, Control_c, 0, 67, 84
1, 133990, Control_c, 0, 67, 84
1, 133993, Note_off_c, 0, 60, 28
1, 133999, Note_on_c, 0, 79, 50
1, 134002, Note_on_c, 0, 75, 42
1, 134005, Control_c, 0, 67, 85
1, 134020, Control_c, 0, 67, 86
1, 134031, Note_off_c, 0, 79, 57
1, 134035, Control_c, 0, 67, 87
1, 134046, Note_off_c, 0, 75, 62
1, 134175, Note_on_c, 0, 65, 43
1, 134213, Control_c, 0, 67, 86
1, 134257, Control_c, 0, 67, 86
1, 134272, Control_c, 0, 67, 85
1, 134332, Note_on_c, 0, 74, 40
1, 134338, Note_on_c, 0, 77, 46
1, 134366, Note_off_c, 0, 65, 31
1, 134367, Note_off_c, 0, 74, 55
1, 134369, Note_off_c, 0, 77, 58
1, 134496, Note_on_c, 0, 53, 41
1, 134583, Control_c, 0, 67, 85
1, 134629, Note_off_c, 0, 53, 57
1, 134646, Note_on_c, 0, 69, 46
1, 134663, Note_on_c, 0, 63, 44
1, 134680, Control_c, 0, 67, 84
1, 134696, Note_off_c, 0, 63, 59
1, 134711, Note_off_c, 0, 69, 64
1, 134724, Control_c, 0, 67, 84
1, 134754, Control_c, 0, 67, 83
1, 134784, Control_c, 0, 67, 83
1, 134798, Control_c, 0, 67, 82
1, 134813, Control_c, 0, 67, 81
1, 134825, Note_on_c, 0, 62, 55
1, 134828, Control_c, 0, 67, 81
1, 134831, Note_on_c, 0, 58, 55
1, 134842, Control_c, 0, 67, 79
1, 134857, Control_c, 0, 64, 51
1, 134857, Control_c, 0, 67, 78
1, 134872, Control_c, 0, 64, 59
1, 134872, Control_c, 0, 67, 78
1, 134887, Control_c, 0, 64, 63
1, 134887, Control_c, 0, 67, 77
1, 134902, Control_c, 0, 64, 67
1, 134902, Control_c, 0, 67, 75
1, 134917, Control_c, 0, 64, 73
1, 134917, Control_c, 0, 67, 72
1, 134932, Control_c, 0, 64, 79
1, 134932, Control_c, 0, 67, 65
1, 134947, Control_c, 0, 64, 84
1, 134947, Control_c, 0, 67, 54
1, 134962, Control_c, 0, 64, 88
1, 134962, Control_c, 0, 67, 38
1, 134977, Control_c, 0, 64, 94
1, 134977, Control_c, 0, 67, 11
1, 134992, Control_c, 0, 64, 99
1, 134992, Control_c, 0, 67, 0
1, 134993, Note_on_c, 0, 77, 74
1, 135006, Control_c, 0, 64, 104
1, 135021, Control_c, 0, 64, 110
1, 135036, Control_c, 0, 64, 113
1, 135045, Note_off_c, 0, 62, 62
1, 135047, Note_off_c, 0, 58, 63
1, 135050, Control_c, 0, 64, 114
1, 135061, Note_off_c, 0, 77, 62
1, 135065, Control_c, 0, 64, 115
1, 135067, Note_on_c, 0, 74, 75
1, 135124, Control_c, 0, 64, 118
1, 135133, Note_on_c, 0, 70, 80
1, 135138, Note_off_c, 0, 74, 64
1, 135139, Control_c, 0, 64, 127
1, 135183, Note_off_c, 0, 70, 64
1, 135212, Note_on_c, 0, 65, 71
1, 135243, Note_off_c, 0, 65, 65
1, 135294, Note_on_c, 0, 62, 77
1, 135364, Note_off_c, 0, 62, 60
1, 135370, Note_on_c, 0, 58, 79
1, 135403, Note_off_c, 0, 58, 61
1, 135429, Control_c, 0, 64, 115
1, 135444, Control_c, 0, 64, 100
1, 135458, Control_c, 0, 64, 85
1, 135465, Note_on_c, 0, 56, 85
1, 135474, Control_c, 0, 64, 69
1, 135479, Note_on_c, 0, 53, 70
1, 135489, Control_c, 0, 64, 49
1, 135504, Control_c, 0, 64, 0
1, 135626, Note_on_c, 0, 46, 85
1, 135641, Note_on_c, 0, 34, 56
1, 135652, Note_off_c, 0, 46, 68
1, 135668, Note_off_c, 0, 34, 56
1, 135775, Note_on_c, 0, 50, 90
1, 135784, Note_on_c, 0, 38, 73
1, 135797, Note_off_c, 0, 50, 73
1, 135817, Note_off_c, 0, 38, 63
1, 135904, Control_c, 0, 67, 8
1, 135919, Control_c, 0, 67, 15
1, 135933, Control_c, 0, 67, 23
1, 135937, Note_on_c, 0, 46, 84
1, 135942, Note_on_c, 0, 34, 69
1, 135948, Control_c, 0, 67, 29
1, 135960, Note_off_c, 0, 46, 67
1, 135963, Control_c, 0, 67, 31
1, 135971, Note_off_c, 0, 34, 60
1, 136037, Control_c, 0, 67, 32
1, 136052, Control_c, 0, 67, 32
1, 136058, Note_off_c, 0, 53, 53
1, 136066, Control_c, 0, 67, 33
1, 136081, Control_c, 0, 67, 35
1, 136103, Control_c, 0, 64, 47
1, 136103, Control_c, 0, 67, 38
1, 136109, Note_on_c, 0, 51, 80
1, 136115, Note_on_c, 0, 39, 69
1, 136118, Control_c, 0, 64, 62
1, 136118, Control_c, 0, 67, 43
1, 136133, Note_off_c, 0, 51, 67
1, 136133, Control_c, 0, 64, 70
1, 136133, Control_c, 0, 67, 50
1, 136138, Note_off_c, 0, 39, 60
1, 136148, Control_c, 0, 64, 78
1, 136148, Control_c, 0, 67, 57
1, 136163, Control_c, 0, 64, 84
1, 136163, Control_c, 0, 67, 64
1, 136178, Control_c, 0, 64, 87
1, 136178, Control_c, 0, 67, 74
1, 136193, Control_c, 0, 64, 88
1, 136193, Control_c, 0, 67, 85
1, 136207, Control_c, 0, 67, 91
1, 136222, Control_c, 0, 67, 91
1, 136238, Note_off_c, 0, 56, 58
1, 136267, Control_c, 0, 64, 87
1, 136280, Note_on_c, 0, 55, 63
1, 136282, Control_c, 0, 64, 85
1, 136297, Control_c, 0, 64, 79
1, 136312, Control_c, 0, 64, 72
1, 136313, Note_off_c, 0, 55, 63
1, 136327, Control_c, 0, 64, 64
1, 136342, Control_c, 0, 64, 44
1, 136357, Control_c, 0, 64, 0
1, 136440, Note_on_c, 0, 48, 35
1, 136504, Control_c, 0, 67, 91
1, 136616, Note_off_c, 0, 48, 46
1, 136622, Note_on_c, 0, 63, 57
1, 136661, Note_off_c, 0, 63, 65
1, 136792, Note_on_c, 0, 53, 32
1, 136954, Note_on_c, 0, 65, 49
1, 136962, Note_on_c, 0, 62, 44
1, 136974, Note_off_c, 0, 53, 44
1, 136985, Control_c, 0, 67, 90
1, 136988, Note_off_c, 0, 62, 56
1, 136992, Note_off_c, 0, 65, 64
1, 137121, Note_on_c, 0, 41, 44
1, 137252, Control_c, 0, 67, 90
1, 137262, Note_off_c, 0, 41, 59
1, 137294, Note_on_c, 0, 63, 48
1, 137296, Note_on_c, 0, 69, 45
1, 137331, Note_off_c, 0, 69, 52
1, 137335, Note_off_c, 0, 63, 47
1, 137356, Control_c, 0, 67, 89
1, 137385, Control_c, 0, 67, 89
1, 137400, Control_c, 0, 67, 88
1, 137415, Control_c, 0, 67, 88
1, 137445, Control_c, 0, 64, 13
1, 137445, Control_c, 0, 67, 87
1, 137460, Control_c, 0, 64, 41
1, 137460, Control_c, 0, 67, 87
1, 137469, Note_on_c, 0, 46, 47
1, 137475, Control_c, 0, 64, 54
1, 137476, Note_on_c, 0, 70, 58
1, 137484, Note_on_c, 0, 62, 46
1, 137490, Control_c, 0, 64, 61
1, 137490, Control_c, 0, 67, 86
1, 137504, Control_c, 0, 64, 64
1, 137512, Note_off_c, 0, 62, 57
1, 137515, Note_off_c, 0, 70, 61
1, 137519, Control_c, 0, 64, 68
1, 137528, Note_off_c, 0, 46, 58
1, 137534, Control_c, 0, 64, 72
1, 137549, Control_c, 0, 64, 74
1, 137549, Control_c, 0, 67, 86
1, 137564, Control_c, 0, 64, 76
1, 137564, Control_c, 0, 67, 85
1, 137577, Note_on_c, 0, 58, 49
1, 137579, Control_c, 0, 64, 77
1, 137600, Control_c, 0, 64, 77
1, 137615, Control_c, 0, 64, 78
1, 137634, Note_off_c, 0, 58, 59
1, 137679, Note_on_c, 0, 57, 44
1, 137711, Note_off_c, 0, 57, 65
1, 137719, Control_c, 0, 64, 77
1, 137734, Control_c, 0, 64, 76
1, 137734, Control_c, 0, 67, 85
1, 137737, Note_on_c, 0, 58, 59
1, 137749, Control_c, 0, 64, 74
1, 137763, Control_c, 0, 64, 70
1, 137765, Note_off_c, 0, 58, 63
1, 137778, Control_c, 0, 64, 66
1, 137778, Control_c, 0, 67, 84
1, 137793, Control_c, 0, 64, 60
1, 137798, Note_on_c, 0, 46, 64
1, 137808, Control_c, 0, 64, 48
1, 137823, Control_c, 0, 64, 32
1, 137823, Control_c, 0, 67, 84
1, 137837, Control_c, 0, 64, 19
1, 137840, Note_off_c, 0, 46, 63
1, 137864, Note_on_c, 0, 58, 53
1, 137868, Control_c, 0, 64, 21
1, 137883, Control_c, 0, 64, 23
1, 137898, Control_c, 0, 64, 23
1, 137935, Note_off_c, 0, 58, 56
1, 137959, Note_on_c, 0, 70, 63
1, 137961, Note_on_c, 0, 74, 63
1, 137972, Control_c, 0, 64, 23
1, 137975, Note_on_c, 0, 57, 52
1, 137987, Control_c, 0, 64, 22
1, 138015, Note_off_c, 0, 57, 64
1, 138031, Control_c, 0, 64, 21
1, 138046, Control_c, 0, 64, 19
1, 138057, Note_on_c, 0, 58, 52
1, 138060, Control_c, 0, 64, 12
1, 138075, Control_c, 0, 64, 0
1, 138082, Note_off_c, 0, 58, 60
1, 138083, Note_off_c, 0, 74, 52
1, 138095, Note_off_c, 0, 70, 48
1, 138113, Note_on_c, 0, 72, 64
1, 138115, Note_on_c, 0, 69, 60
1, 138124, Note_on_c, 0, 46, 61
1, 138136, Note_off_c, 0, 69, 65
1, 138141, Note_off_c, 0, 72, 68
1, 138162, Note_off_c, 0, 46, 65
1, 138202, Note_on_c, 0, 58, 48
1, 138239, Control_c, 0, 67, 83
1, 138268, Note_off_c, 0, 58, 59
1, 138282, Note_on_c, 0, 69, 54
1, 138288, Note_on_c, 0, 72, 51
1, 138291, Note_on_c, 0, 57, 53
1, 138298, Control_c, 0, 67, 83
1, 138315, Note_off_c, 0, 69, 67
1, 138321, Note_off_c, 0, 72, 65
1, 138328, Control_c, 0, 67, 82
1, 138350, Note_off_c, 0, 57, 63
1, 138365, Control_c, 0, 67, 82
1, 138394, Control_c, 0, 67, 81
1, 138409, Control_c, 0, 67, 81
1, 138424, Control_c, 0, 67, 80
1, 138439, Control_c, 0, 67, 77
1, 138443, Note_on_c, 0, 46, 64
1, 138454, Control_c, 0, 67, 72
1, 138468, Control_c, 0, 67, 63
1, 138479, Note_off_c, 0, 46, 65
1, 138483, Control_c, 0, 67, 52
1, 138498, Control_c, 0, 67, 42
1, 138513, Control_c, 0, 67, 32
1, 138524, Note_on_c, 0, 58, 56
1, 138528, Control_c, 0, 67, 23
1, 138542, Control_c, 0, 67, 16
1, 138557, Control_c, 0, 67, 0
1, 138572, Note_off_c, 0, 58, 57
1, 138596, Note_on_c, 0, 75, 73
1, 138602, Note_on_c, 0, 72, 67
1, 138609, Note_on_c, 0, 57, 61
1, 138652, Note_off_c, 0, 57, 65
1, 138685, Note_on_c, 0, 58, 64
1, 138725, Note_off_c, 0, 58, 62
1, 138754, Note_off_c, 0, 72, 60
1, 138760, Note_off_c, 0, 75, 58
1, 138762, Note_on_c, 0, 74, 68
1, 138763, Note_on_c, 0, 70, 64
1, 138769, Note_on_c, 0, 46, 62
1, 138791, Note_off_c, 0, 70, 68
1, 138792, Note_off_c, 0, 74, 64
1, 138810, Note_off_c, 0, 46, 66
1, 138841, Note_on_c, 0, 58, 60
1, 138894, Note_off_c, 0, 58, 56
1, 138930, Note_on_c, 0, 74, 64
1, 138933, Note_on_c, 0, 57, 56
1, 138947, Note_on_c, 0, 70, 62
1, 138965, Note_off_c, 0, 74, 64
1, 138977, Note_off_c, 0, 57, 65
1, 138979, Note_off_c, 0, 70, 64
1, 139009, Note_on_c, 0, 58, 61
1, 139049, Note_off_c, 0, 58, 63
1, 139101, Note_on_c, 0, 46, 67
1, 139129, Control_c, 0, 67, 8
1, 139144, Control_c, 0, 67, 10
1, 139146, Note_off_c, 0, 46, 66
1, 139159, Control_c, 0, 67, 12
1, 139173, Control_c, 0, 67, 14
1, 139174, Note_on_c, 0, 58, 61
1, 139188, Control_c, 0, 67, 15
1, 139203, Control_c, 0, 67, 17
1, 139217, Control_c, 0, 67, 20
1, 139225, Note_off_c, 0, 58, 54
1, 139232, Control_c, 0, 67, 22
1, 139247, Control_c, 0, 67, 24
1, 139262, Note_on_c, 0, 80, 71
1, 139262, Control_c, 0, 67, 25
1, 139265, Note_on_c, 0, 74, 62
1, 139268, Note_on_c, 0, 77, 58
1, 139276, Note_on_c, 0, 57, 49
1, 139306, Control_c, 0, 67, 25
1, 139315, Note_off_c, 0, 57, 64
1, 139353, Note_on_c, 0, 58, 55
1, 139380, Control_c, 0, 67, 26
1, 139391, Note_off_c, 0, 58, 65
1, 139395, Control_c, 0, 67, 26
1, 139409, Control_c, 0, 67, 27
1, 139410, Note_off_c, 0, 77, 57
1, 139421, Note_off_c, 0, 80, 62
1, 139424, Note_off_c, 0, 74, 40
1, 139424, Control_c, 0, 67, 28
1, 139433, Note_on_c, 0, 75, 56
1, 139433, Note_on_c, 0, 79, 60
1, 139439, Note_on_c, 0, 46, 51
1, 139439, Control_c, 0, 67, 31
1, 139454, Control_c, 0, 67, 35
1, 139464, Note_off_c, 0, 79, 65
1, 139466, Note_off_c, 0, 75, 64
1, 139470, Control_c, 0, 67, 41
1, 139481, Note_off_c, 0, 46, 65
1, 139485, Control_c, 0, 67, 46
1, 139500, Control_c, 0, 67, 50
1, 139514, Control_c, 0, 67, 54
1, 139520, Note_on_c, 0, 58, 49
1, 139529, Control_c, 0, 67, 57
1, 139544, Control_c, 0, 67, 60
1, 139559, Control_c, 0, 67, 65
1, 139568, Note_off_c, 0, 58, 58
1, 139574, Control_c, 0, 67, 72
1, 139588, Control_c, 0, 67, 76
1, 139603, Control_c, 0, 67, 79
1, 139618, Control_c, 0, 67, 82
1, 139630, Note_on_c, 0, 79, 60
1, 139630, Note_on_c, 0, 57, 46
1, 139633, Note_on_c, 0, 75, 50
1, 139633, Control_c, 0, 67, 84
1, 139648, Control_c, 0, 67, 86
1, 139657, Note_off_c, 0, 75, 59
1, 139659, Note_off_c, 0, 79, 65
1, 139663, Control_c, 0, 67, 88
1, 139666, Note_off_c, 0, 57, 65
1, 139678, Control_c, 0, 67, 89
1, 139692, Control_c, 0, 67, 90
1, 139706, Note_on_c, 0, 58, 52
1, 139707, Control_c, 0, 67, 90
1, 139758, Note_off_c, 0, 58, 59
1, 139794, Control_c, 0, 64, 10
1, 139809, Control_c, 0, 64, 17
1, 139815, Note_on_c, 0, 46, 43
1, 139824, Control_c, 0, 64, 19
1, 139846, Control_c, 0, 64, 21
1, 139861, Control_c, 0, 64, 22
1, 139861, Control_c, 0, 67, 90
1, 139866, Note_off_c, 0, 46, 56
1, 139876, Control_c, 0, 64, 23
1, 139891, Control_c, 0, 64, 23
1, 139901, Note_on_c, 0, 58, 48
1, 139920, Control_c, 0, 64, 24
1, 139920, Control_c, 0, 67, 89
1, 139935, Control_c, 0, 64, 24
1, 139950, Control_c, 0, 64, 25
1, 139965, Control_c, 0, 64, 27
1, 139978, Note_off_c, 0, 58, 52
1, 139980, Control_c, 0, 64, 28
1, 139994, Control_c, 0, 64, 29
1, 140009, Control_c, 0, 64, 30
1, 140022, Note_on_c, 0, 75, 54
1, 140022, Note_on_c, 0, 81, 60
1, 140024, Control_c, 0, 64, 31
1, 140029, Note_on_c, 0, 72, 42
1, 140030, Note_on_c, 0, 57, 47
1, 140038, Control_c, 0, 64, 32
1, 140038, Control_c, 0, 67, 89
1, 140053, Note_off_c, 0, 81, 65
1, 140053, Control_c, 0, 64, 33
1, 140054, Note_off_c, 0, 75, 52
1, 140059, Note_off_c, 0, 72, 53
1, 140068, Control_c, 0, 64, 34
1, 140072, Note_off_c, 0, 57, 64
1, 140083, Control_c, 0, 64, 35
1, 140098, Control_c, 0, 64, 35
1, 140113, Control_c, 0, 64, 36
1, 140124, Note_on_c, 0, 58, 46
1, 140143, Control_c, 0, 64, 36
1, 140157, Control_c, 0, 64, 37
1, 140172, Control_c, 0, 64, 37
1, 140187, Control_c, 0, 64, 38
1, 140202, Control_c, 0, 64, 38
1, 140217, Control_c, 0, 64, 39
1, 140231, Control_c, 0, 64, 40
1, 140246, Control_c, 0, 64, 41
1, 140262, Control_c, 0, 64, 41
1, 140277, Control_c, 0, 64, 42
1, 140292, Control_c, 0, 64, 43
1, 140306, Control_c, 0, 64, 44
1, 140321, Control_c, 0, 64, 45
1, 140336, Control_c, 0, 64, 46
1, 140351, Control_c, 0, 64, 48
1, 140356, Note_on_c, 0, 81, 62
1, 140363, Note_on_c, 0, 75, 48
1, 140366, Control_c, 0, 64, 49
1, 140372, Note_on_c, 0, 72, 43
1, 140375, Note_on_c, 0, 46, 34
1, 140381, Control_c, 0, 64, 50
1, 140381, Control_c, 0, 67, 88
1, 140396, Control_c, 0, 64, 52
1, 140410, Control_c, 0, 64, 53
1, 140425, Control_c, 0, 64, 54
1, 140440, Control_c, 0, 64, 55
1, 140454, Control_c, 0, 64, 56
1, 140469, Control_c, 0, 64, 57
1, 140484, Control_c, 0, 64, 59
1, 140499, Control_c, 0, 64, 61
1, 140514, Control_c, 0, 64, 63
1, 140528, Control_c, 0, 64, 65
1, 140543, Control_c, 0, 64, 67
1, 140558, Control_c, 0, 64, 69
1, 140558, Control_c, 0, 67, 88
1, 140573, Control_c, 0, 64, 72
1, 140596, Control_c, 0, 64, 74
1, 140610, Control_c, 0, 64, 76
1, 140625, Control_c, 0, 64, 77
1, 140640, Control_c, 0, 64, 78
1, 140655, Control_c, 0, 64, 79
1, 140669, Control_c, 0, 64, 80
1, 140684, Control_c, 0, 64, 81
1, 140699, Control_c, 0, 64, 82
1, 140714, Control_c, 0, 64, 82
1, 140743, Control_c, 0, 64, 83
1, 140743, Control_c, 0, 67, 87
1, 140802, Control_c, 0, 67, 87
1, 140861, Control_c, 0, 67, 86
1, 140906, Control_c, 0, 67, 86
1, 140935, Control_c, 0, 67, 85
1, 140950, Control_c, 0, 64, 82
1, 140995, Control_c, 0, 64, 82
1, 141025, Control_c, 0, 64, 81
1, 141055, Control_c, 0, 64, 81
1, 141070, Control_c, 0, 64, 80
1, 141074, Note_off_c, 0, 72, 35
1, 141084, Control_c, 0, 64, 80
1, 141099, Control_c, 0, 64, 79
1, 141114, Control_c, 0, 64, 79
1, 141129, Control_c, 0, 64, 78
1, 141159, Control_c, 0, 64, 77
1, 141174, Control_c, 0, 64, 77
1, 141203, Control_c, 0, 64, 76
1, 141214, Note_off_c, 0, 81, 47
1, 141218, Control_c, 0, 64, 76
1, 141233, Control_c, 0, 64, 75
1, 141263, Control_c, 0, 64, 75
1, 141277, Control_c, 0, 64, 74
1, 141292, Note_off_c, 0, 75, 43
1, 141292, Control_c, 0, 64, 74
1, 141307, Control_c, 0, 64, 73
1, 141322, Control_c, 0, 64, 73
1, 141344, Control_c, 0, 64, 72
1, 141359, Control_c, 0, 64, 71
1, 141359, Control_c, 0, 67, 85
1, 141374, Control_c, 0, 64, 71
1, 141389, Control_c, 0, 64, 70
1, 141403, Control_c, 0, 64, 70
1, 141418, Control_c, 0, 64, 69
1, 141433, Control_c, 0, 64, 68
1, 141448, Control_c, 0, 64, 68
1, 141463, Control_c, 0, 64, 67
1, 141478, Control_c, 0, 64, 66
1, 141492, Control_c, 0, 64, 64
1, 141507, Control_c, 0, 64, 62
1, 141511, Note_on_c, 0, 74, 35
1, 141515, Note_on_c, 0, 82, 44
1, 141522, Control_c, 0, 64, 56
1, 141537, Control_c, 0, 64, 50
1, 141552, Control_c, 0, 64, 44
1, 141566, Control_c, 0, 64, 43
1, 141581, Control_c, 0, 64, 45
1, 141596, Control_c, 0, 64, 47
1, 141610, Control_c, 0, 64, 50
1, 141610, Control_c, 0, 67, 84
1, 141625, Control_c, 0, 64, 54
1, 141640, Control_c, 0, 64, 58
1, 141640, Control_c, 0, 67, 84
1, 141655, Control_c, 0, 64, 62
1, 141670, Control_c, 0, 64, 64
1, 141684, Control_c, 0, 64, 67
1, 141699, Control_c, 0, 64, 69
1, 141699, Control_c, 0, 67, 83
1, 141714, Control_c, 0, 64, 72
1, 141729, Control_c, 0, 64, 74
1, 141744, Control_c, 0, 64, 75
1, 141770, Note_off_c, 0, 74, 44
1, 141777, Note_off_c, 0, 82, 38
1, 141788, Control_c, 0, 67, 83
1, 141808, Note_off_c, 0, 46, 40
1, 141830, Note_off_c, 0, 58, 39
1, 141952, Control_c, 0, 64, 75
1, 141982, Control_c, 0, 67, 82
1, 142012, Control_c, 0, 64, 74
1, 142056, Control_c, 0, 64, 74
1, 142094, Control_c, 0, 64, 73
1, 142094, Control_c, 0, 67, 82
1, 142138, Control_c, 0, 64, 73
1, 142168, Control_c, 0, 64, 72
1, 142212, Control_c, 0, 64, 72
1, 142241, Control_c, 0, 64, 71
1, 142286, Control_c, 0, 64, 71
1, 142331, Control_c, 0, 64, 70
1, 142360, Control_c, 0, 64, 70
1, 142390, Control_c, 0, 64, 69
1, 142420, Control_c, 0, 64, 69
1, 142434, Control_c, 0, 64, 68
1, 142449, Control_c, 0, 64, 68
1, 142494, Control_c, 0, 64, 67
1, 142523, Control_c, 0, 64, 67
1, 142552, Control_c, 0, 64, 66
1, 142582, Control_c, 0, 64, 66
1, 142597, Control_c, 0, 64, 65
1, 142597, Control_c, 0, 67, 81
1, 142612, Control_c, 0, 64, 65
1, 142641, Control_c, 0, 64, 64
1, 142657, Control_c, 0, 64, 64
1, 142672, Control_c, 0, 64, 63
1, 142687, Control_c, 0, 64, 63
1, 142702, Control_c, 0, 64, 62
1, 142716, Control_c, 0, 64, 62
1, 142745, Control_c, 0, 64, 61
1, 142760, Control_c, 0, 64, 60
1, 142775, Control_c, 0, 64, 60
1, 142790, Control_c, 0, 64, 59
1, 142819, Control_c, 0, 64, 58
1, 142819, Control_c, 0, 67, 81
1, 142842, Control_c, 0, 64, 58
1, 142856, Control_c, 0, 64, 57
1, 142871, Control_c, 0, 64, 56
1, 142886, Control_c, 0, 64, 56
1, 142901, Control_c, 0, 64, 55
1, 142916, Control_c, 0, 64, 54
1, 142930, Control_c, 0, 64, 53
1, 142945, Control_c, 0, 64, 52
1, 142960, Control_c, 0, 64, 50
1, 142975, Control_c, 0, 64, 49
1, 142989, Control_c, 0, 64, 47
1, 143004, Control_c, 0, 64, 46
1, 143004, Control_c, 0, 67, 80
1, 143019, Control_c, 0, 64, 45
1, 143034, Control_c, 0, 64, 44
1, 143049, Control_c, 0, 64, 43
1, 143064, Control_c, 0, 64, 41
1, 143079, Control_c, 0, 64, 39
1, 143094, Control_c, 0, 64, 37
1, 143109, Control_c, 0, 64, 33
1, 143109, Control_c, 0, 67, 80
1, 143123, Control_c, 0, 64, 31
1, 143138, Control_c, 0, 64, 29
1, 143153, Control_c, 0, 64, 28
1, 143168, Control_c, 0, 64, 26
1, 143182, Control_c, 0, 64, 24
1, 143182, Control_c, 0, 67, 79
1, 143197, Control_c, 0, 64, 20
1, 143212, Control_c, 0, 64, 16
1, 143227, Control_c, 0, 64, 12
1, 143242, Control_c, 0, 64, 0
1, 143256, Control_c, 0, 67, 79
1, 143316, Control_c, 0, 67, 78
1, 143330, Control_c, 0, 67, 76
1, 143345, Control_c, 0, 67, 74
1, 143360, Control_c, 0, 67, 72
1, 143374, Control_c, 0, 67, 70
1, 143389, Control_c, 0, 67, 69
1, 143404, Control_c, 0, 67, 68
1, 143419, Control_c, 0, 67, 66
1, 143434, Control_c, 0, 67, 65
1, 143449, Control_c, 0, 67, 64
1, 143465, Control_c, 0, 67, 63
1, 143479, Control_c, 0, 67, 61
1, 143494, Control_c, 0, 67, 60
1, 143509, Control_c, 0, 67, 58
1, 143524, Control_c, 0, 67, 57
1, 143539, Control_c, 0, 67, 56
1, 143553, Control_c, 0, 67, 54
1, 143568, Control_c, 0, 67, 52
1, 143591, Control_c, 0, 67, 51
1, 143606, Control_c, 0, 67, 50
1, 143620, Control_c, 0, 67, 48
1, 143635, Control_c, 0, 67, 47
1, 143650, Control_c, 0, 67, 46
1, 143665, Control_c, 0, 67, 44
1, 143679, Control_c, 0, 67, 43
1, 143694, Control_c, 0, 67, 41
1, 143709, Control_c, 0, 67, 40
1, 143724, Control_c, 0, 67, 38
1, 143739, Control_c, 0, 67, 36
1, 143753, Control_c, 0, 67, 33
1, 143768, Control_c, 0, 67, 31
1, 143783, Control_c, 0, 67, 29
1, 143798, Control_c, 0, 67, 28
1, 143812, Control_c, 0, 67, 26
1, 143827, Control_c, 0, 67, 25
1, 143842, Control_c, 0, 67, 23
1, 143857, Control_c, 0, 67, 21
1, 143872, Control_c, 0, 67, 19
1, 143887, Control_c, 0, 67, 18
1, 143901, Control_c, 0, 67, 16
1, 143916, Control_c, 0, 67, 14
1, 143931, Control_c, 0, 67, 12
1, 143946, Control_c, 0, 67, 11
1, 143961, Control_c, 0, 67, 10
1, 143976, Control_c, 0, 67, 8
1, 143991, Control_c, 0, 67, 0
1, 144066, End_track
0, 0, End_of_file
