0, 0, Header, 0, 1, 384
1, 0, Start_track
1, 0, Title_t, "Sonata in bb, Op.36--Lee        "
1, 0, Text_t, "2009 International Piano-e-Competition finals"
1, 0, Text_t, "captured June-July 2009"
1, 0, Text_t, "http://www.piano-e-competition.com/"
1, 0, Text_t, "standard-resolution version"
1, 0, Text_t, "File processed for distribution by software from Zenph Studios, Inc., http://www.zenph.com"
1, 0, Instrument_name_t, "Yamaha Disklavier Pro Mark IV concert grand piano, model DCFIIISM4PRO"
1, 0, Sequencer_specific, 39, 67, 113, 0, 1, 0, 1, 0, 83, 111, 110, 97, 116, 97, 32, 66, 98, 109, 32, 79, 112, 46, 51, 54, 72, 97, 110, 67, 104, 105, 101, 110, 32, 76, 101, 101, 32, 32, 32, 32
1, 0, Sequencer_specific, 6, 67, 113, 0, 0, 0, 69
1, 0, System_exclusive, 21, 67, 113, 126, 21, 0, 2, 2, 2, 3, 12, 8, 4, 10, 4, 10, 8, 15, 14, 10, 3, 247
1, 0, Sequencer_specific, 5, 67, 123, 12, 2, 1
1, 0, Tempo, 512820
1, 0, Time_signature, 4, 2, 24, 8
1, 0, System_exclusive, 5, 126, 127, 9, 1, 247
1, 1, System_exclusive, 8, 67, 16, 76, 0, 0, 126, 0, 247
1, 2, System_exclusive, 8, 67, 16, 76, 8, 9, 7, 1, 247
1, 3, Control_c, 0, 0, 0
1, 3, Control_c, 1, 0, 0
1, 3, Control_c, 2, 0, 0
1, 3, Control_c, 3, 0, 0
1, 3, Control_c, 4, 0, 0
1, 3, Control_c, 5, 0, 0
1, 3, Control_c, 6, 0, 0
1, 3, Control_c, 7, 0, 0
1, 3, Control_c, 8, 0, 0
1, 3, Control_c, 9, 0, 127
1, 3, Control_c, 10, 0, 0
1, 3, Control_c, 11, 0, 0
1, 3, Control_c, 12, 0, 0
1, 3, Control_c, 13, 0, 0
1, 3, Control_c, 14, 0, 0
1, 3, Control_c, 15, 0, 0
1, 4, Control_c, 0, 32, 0
1, 4, Control_c, 1, 32, 0
1, 4, Control_c, 2, 32, 0
1, 4, Control_c, 3, 32, 0
1, 4, Control_c, 4, 32, 0
1, 4, Control_c, 5, 32, 0
1, 4, Control_c, 6, 32, 0
1, 4, Control_c, 7, 32, 0
1, 4, Control_c, 8, 32, 0
1, 4, Control_c, 9, 32, 0
1, 4, Control_c, 10, 32, 0
1, 4, Control_c, 11, 32, 0
1, 4, Control_c, 12, 32, 0
1, 4, Control_c, 13, 32, 0
1, 4, Control_c, 14, 32, 0
1, 4, Control_c, 15, 32, 0
1, 5, Program_c, 0, 0
1, 5, Program_c, 1, 0
1, 5, Program_c, 2, 0
1, 5, Program_c, 3, 0
1, 5, Program_c, 4, 0
1, 5, Program_c, 5, 0
1, 5, Program_c, 6, 0
1, 5, Program_c, 7, 0
1, 5, Program_c, 8, 0
1, 5, Program_c, 9, 0
1, 5, Program_c, 10, 0
1, 5, Program_c, 11, 0
1, 5, Program_c, 12, 0
1, 5, Program_c, 13, 0
1, 5, Program_c, 14, 0
1, 5, Program_c, 15, 0
1, 6, Control_c, 0, 7, 100
1, 6, Control_c, 1, 7, 100
1, 6, Control_c, 2, 7, 100
1, 6, Control_c, 3, 7, 100
1, 6, Control_c, 4, 7, 100
1, 6, Control_c, 5, 7, 100
1, 6, Control_c, 6, 7, 100
1, 6, Control_c, 7, 7, 100
1, 6, Control_c, 8, 7, 100
1, 6, Control_c, 9, 7, 100
1, 6, Control_c, 10, 7, 100
1, 6, Control_c, 11, 7, 100
1, 6, Control_c, 12, 7, 100
1, 6, Control_c, 13, 7, 100
1, 6, Control_c, 14, 7, 100
1, 6, Control_c, 15, 7, 100
1, 117, Control_c, 0, 64, 15
1, 229, Control_c, 0, 64, 31
1, 341, Control_c, 0, 64, 46
1, 452, Control_c, 0, 64, 63
1, 564, Control_c, 0, 64, 77
1, 676, Control_c, 0, 64, 94
1, 787, Control_c, 0, 64, 108
1, 899, Control_c, 0, 64, 127
1, 1128, Note_on_c, 0, 65, 97
1, 1242, Note_on_c, 0, 63, 94
1, 1270, Note_off_c, 0, 65, 59
1, 1328, Note_on_c, 0, 61, 94
1, 1333, Note_off_c, 0, 63, 64
1, 1406, Note_on_c, 0, 58, 85
1, 1444, Note_off_c, 0, 61, 63
1, 1470, Note_on_c, 0, 53, 89
1, 1488, Note_off_c, 0, 58, 66
1, 1502, Note_off_c, 0, 53, 67
1, 1543, Note_on_c, 0, 49, 90
1, 1582, Note_off_c, 0, 49, 66
1, 1597, Note_on_c, 0, 46, 86
1, 1630, Note_off_c, 0, 46, 66
1, 1670, Note_on_c, 0, 41, 88
1, 1722, Note_on_c, 0, 39, 91
1, 1750, Note_off_c, 0, 41, 61
1, 1794, Note_on_c, 0, 27, 59
1, 1804, Note_on_c, 0, 38, 86
1, 1812, Note_off_c, 0, 39, 64
1, 1817, Note_on_c, 0, 30, 19
1, 1832, Note_off_c, 0, 27, 60
1, 1835, Control_c, 0, 64, 115
1, 1844, Note_off_c, 0, 38, 65
1, 1847, Note_on_c, 0, 34, 98
1, 1850, Control_c, 0, 64, 74
1, 1852, Poly_aftertouch_c, 0, 27, 0
1, 1853, Note_on_c, 0, 22, 97
1, 1855, Note_on_c, 0, 32, 93
1, 1856, Note_on_c, 0, 25, 44
1, 1860, Note_off_c, 0, 30, 64
1, 1865, Control_c, 0, 64, 57
1, 1874, Note_on_c, 0, 27, 36
1, 1875, Note_off_c, 0, 27, 127
1, 1879, Control_c, 0, 64, 75
1, 1894, Control_c, 0, 64, 127
1, 1907, Note_on_c, 0, 21, 16
1, 1910, Note_off_c, 0, 32, 60
1, 1924, Note_off_c, 0, 22, 64
1, 1933, Poly_aftertouch_c, 0, 27, 0
1, 1939, Poly_aftertouch_c, 0, 29, 127
1, 1943, Note_off_c, 0, 34, 64
1, 1956, Note_off_c, 0, 21, 43
1, 1970, Note_off_c, 0, 25, 34
1, 1984, Poly_aftertouch_c, 0, 29, 0
1, 2383, Note_on_c, 0, 82, 102
1, 2384, Note_on_c, 0, 77, 106
1, 2387, Note_on_c, 0, 65, 106
1, 2387, Note_on_c, 0, 89, 108
1, 2393, Note_on_c, 0, 58, 96
1, 2395, Note_on_c, 0, 61, 92
1, 2399, Note_on_c, 0, 53, 81
1, 2414, Note_off_c, 0, 77, 71
1, 2415, Note_off_c, 0, 58, 66
1, 2417, Note_off_c, 0, 65, 69
1, 2417, Note_off_c, 0, 82, 68
1, 2419, Note_off_c, 0, 53, 72
1, 2420, Note_off_c, 0, 89, 62
1, 2437, Note_off_c, 0, 61, 50
1, 2524, Note_on_c, 0, 65, 109
1, 2524, Note_on_c, 0, 53, 29
1, 2524, Note_on_c, 0, 73, 118
1, 2526, Note_on_c, 0, 82, 106
1, 2526, Note_on_c, 0, 85, 104
1, 2526, Note_on_c, 0, 58, 101
1, 2529, Note_on_c, 0, 61, 98
1, 2538, Note_on_c, 0, 72, 89
1, 2565, Note_on_c, 0, 84, 58
1, 2580, Note_off_c, 0, 72, 40
1, 2604, Note_on_c, 0, 83, 14
1, 2642, Note_off_c, 0, 83, 50
1, 2780, Note_off_c, 0, 85, 39
1, 2798, Note_off_c, 0, 53, 53
1, 2802, Note_off_c, 0, 84, 45
1, 2971, Note_off_c, 0, 82, 53
1, 2995, Note_off_c, 0, 65, 0
1, 3032, Poly_aftertouch_c, 0, 65, 127
1, 3181, Poly_aftertouch_c, 0, 65, 0
1, 3212, Note_off_c, 0, 73, 50
1, 3357, Note_on_c, 0, 77, 90
1, 3359, Note_on_c, 0, 73, 82
1, 3412, Note_off_c, 0, 61, 43
1, 3692, Note_on_c, 0, 70, 67
1, 3693, Note_on_c, 0, 61, 64
1, 3719, Note_off_c, 0, 58, 40
1, 3775, Note_off_c, 0, 73, 57
1, 3779, Note_off_c, 0, 77, 48
1, 3830, Note_on_c, 0, 65, 76
1, 3895, Note_off_c, 0, 70, 59
1, 3909, Note_on_c, 0, 73, 72
1, 3910, Note_off_c, 0, 61, 58
1, 3914, Note_on_c, 0, 77, 78
1, 4016, Note_off_c, 0, 65, 50
1, 4030, Note_on_c, 0, 61, 72
1, 4031, Note_on_c, 0, 70, 76
1, 4059, Note_off_c, 0, 73, 61
1, 4065, Note_off_c, 0, 77, 55
1, 4116, Note_on_c, 0, 65, 82
1, 4177, Note_on_c, 0, 77, 83
1, 4178, Note_off_c, 0, 61, 58
1, 4178, Note_off_c, 0, 70, 60
1, 4179, Note_on_c, 0, 73, 80
1, 4241, Note_off_c, 0, 65, 64
1, 4277, Note_on_c, 0, 61, 80
1, 4277, Note_off_c, 0, 77, 60
1, 4278, Note_on_c, 0, 70, 80
1, 4282, Note_off_c, 0, 73, 60
1, 4329, Note_on_c, 0, 65, 79
1, 4359, Note_off_c, 0, 61, 57
1, 4364, Note_off_c, 0, 70, 59
1, 4386, Note_on_c, 0, 77, 87
1, 4387, Note_on_c, 0, 73, 84
1, 4434, Note_off_c, 0, 65, 63
1, 4471, Note_on_c, 0, 70, 81
1, 4473, Note_on_c, 0, 61, 76
1, 4476, Note_off_c, 0, 77, 58
1, 4480, Note_off_c, 0, 73, 58
1, 4506, Note_on_c, 0, 65, 83
1, 4536, Note_off_c, 0, 70, 58
1, 4540, Note_off_c, 0, 61, 60
1, 4567, Note_on_c, 0, 77, 86
1, 4572, Note_on_c, 0, 73, 86
1, 4603, Note_off_c, 0, 65, 62
1, 4633, Note_off_c, 0, 77, 62
1, 4636, Note_off_c, 0, 73, 59
1, 4649, Note_on_c, 0, 61, 82
1, 4650, Note_on_c, 0, 70, 83
1, 4675, Note_on_c, 0, 65, 81
1, 4738, Note_on_c, 0, 73, 85
1, 4741, Note_off_c, 0, 70, 64
1, 4741, Control_c, 0, 64, 112
1, 4748, Note_on_c, 0, 77, 88
1, 4756, Control_c, 0, 64, 86
1, 4767, Note_off_c, 0, 65, 64
1, 4771, Control_c, 0, 64, 75
1, 4786, Control_c, 0, 64, 76
1, 4801, Control_c, 0, 64, 90
1, 4815, Control_c, 0, 64, 127
1, 4816, Note_on_c, 0, 65, 79
1, 4819, Note_off_c, 0, 73, 55
1, 4889, Note_on_c, 0, 73, 84
1, 4890, Note_on_c, 0, 70, 81
1, 4896, Note_off_c, 0, 77, 64
1, 4914, Note_off_c, 0, 65, 64
1, 4948, Note_off_c, 0, 70, 63
1, 4957, Note_off_c, 0, 73, 62
1, 5019, Note_on_c, 0, 65, 103
1, 5159, Note_off_c, 0, 65, 63
1, 5177, Note_off_c, 0, 61, 62
1, 5334, Note_on_c, 0, 64, 102
1, 5392, Note_off_c, 0, 64, 61
1, 5442, Note_on_c, 0, 65, 76
1, 5504, Note_on_c, 0, 70, 64
1, 5508, Note_on_c, 0, 73, 73
1, 5533, Note_on_c, 0, 63, 104
1, 5547, Note_off_c, 0, 65, 55
1, 5564, Note_on_c, 0, 77, 79
1, 5577, Note_off_c, 0, 63, 65
1, 5585, Note_off_c, 0, 70, 61
1, 5603, Note_off_c, 0, 73, 61
1, 5627, Note_on_c, 0, 65, 81
1, 5700, Note_on_c, 0, 73, 79
1, 5704, Note_on_c, 0, 70, 65
1, 5710, Note_off_c, 0, 77, 60
1, 5725, Note_off_c, 0, 65, 62
1, 5759, Note_off_c, 0, 70, 59
1, 5765, Note_off_c, 0, 73, 61
1, 5776, Note_on_c, 0, 61, 113
1, 5814, Control_c, 0, 64, 112
1, 5829, Control_c, 0, 64, 74
1, 5844, Control_c, 0, 64, 0
1, 5874, Control_c, 0, 64, 52
1, 5877, Note_on_c, 0, 65, 81
1, 5889, Control_c, 0, 64, 76
1, 5904, Control_c, 0, 64, 127
1, 5961, Note_on_c, 0, 70, 70
1, 5964, Note_on_c, 0, 73, 76
1, 6023, Note_off_c, 0, 65, 62
1, 6039, Note_on_c, 0, 77, 79
1, 6065, Note_off_c, 0, 70, 62
1, 6090, Note_off_c, 0, 73, 58
1, 6116, Note_on_c, 0, 65, 85
1, 6146, Poly_aftertouch_c, 0, 74, 127
1, 6196, Note_on_c, 0, 73, 75
1, 6197, Note_on_c, 0, 70, 64
1, 6264, Note_on_c, 0, 58, 96
1, 6279, Note_off_c, 0, 65, 59
1, 6288, Note_off_c, 0, 61, 64
1, 6365, Note_off_c, 0, 58, 64
1, 6378, Note_on_c, 0, 53, 92
1, 6407, Note_off_c, 0, 70, 36
1, 6426, Note_off_c, 0, 77, 25
1, 6456, Poly_aftertouch_c, 0, 74, 0
1, 6459, Note_off_c, 0, 73, 36
1, 6523, Note_on_c, 0, 65, 77
1, 6596, Note_on_c, 0, 70, 72
1, 6598, Note_on_c, 0, 73, 77
1, 6655, Note_off_c, 0, 65, 60
1, 6682, Note_on_c, 0, 77, 84
1, 6708, Note_off_c, 0, 70, 61
1, 6719, Note_off_c, 0, 73, 60
1, 6759, Note_on_c, 0, 65, 79
1, 6820, Note_on_c, 0, 73, 84
1, 6828, Note_off_c, 0, 77, 61
1, 6829, Note_on_c, 0, 70, 70
1, 6855, Note_off_c, 0, 65, 57
1, 6888, Note_off_c, 0, 73, 60
1, 6891, Note_off_c, 0, 70, 61
1, 7062, Note_on_c, 0, 54, 65
1, 7144, Note_on_c, 0, 61, 52
1, 7147, Note_on_c, 0, 58, 44
1, 7208, Note_off_c, 0, 54, 51
1, 7245, Note_off_c, 0, 58, 38
1, 7245, Note_on_c, 0, 65, 53
1, 7272, Note_off_c, 0, 61, 55
1, 7275, Note_on_c, 0, 52, 81
1, 7341, Note_off_c, 0, 53, 56
1, 7367, Note_on_c, 0, 54, 39
1, 7387, Control_c, 0, 64, 91
1, 7402, Control_c, 0, 64, 76
1, 7424, Control_c, 0, 64, 65
1, 7439, Control_c, 0, 64, 50
1, 7454, Control_c, 0, 64, 35
1, 7469, Control_c, 0, 64, 52
1, 7481, Note_on_c, 0, 58, 27
1, 7484, Note_on_c, 0, 61, 45
1, 7484, Control_c, 0, 64, 64
1, 7485, Note_off_c, 0, 54, 55
1, 7498, Control_c, 0, 64, 69
1, 7513, Control_c, 0, 64, 74
1, 7528, Control_c, 0, 64, 82
1, 7531, Note_off_c, 0, 58, 47
1, 7543, Control_c, 0, 64, 92
1, 7543, Poly_aftertouch_c, 0, 62, 127
1, 7558, Control_c, 0, 64, 103
1, 7572, Control_c, 0, 64, 111
1, 7587, Control_c, 0, 64, 114
1, 7603, Control_c, 0, 64, 114
1, 7621, Note_on_c, 0, 54, 52
1, 7639, Note_off_c, 0, 61, 36
1, 7662, Control_c, 0, 64, 115
1, 7677, Control_c, 0, 64, 116
1, 7692, Control_c, 0, 64, 117
1, 7707, Control_c, 0, 64, 118
1, 7721, Control_c, 0, 64, 118
1, 7751, Control_c, 0, 64, 119
1, 7761, Note_on_c, 0, 58, 48
1, 7810, Control_c, 0, 64, 119
1, 7839, Control_c, 0, 64, 120
1, 7890, Note_on_c, 0, 61, 46
1, 7973, Control_c, 0, 64, 119
1, 8035, Note_on_c, 0, 51, 61
1, 8046, Note_off_c, 0, 52, 57
1, 8140, Note_off_c, 0, 51, 57
1, 8143, Note_off_c, 0, 58, 34
1, 8168, Note_off_c, 0, 54, 37
1, 8229, Note_off_c, 0, 61, 39
1, 8263, Note_off_c, 0, 65, 0
1, 8301, Poly_aftertouch_c, 0, 65, 127
1, 8306, Poly_aftertouch_c, 0, 64, 127
1, 8363, Note_on_c, 0, 61, 44
1, 8364, Poly_aftertouch_c, 0, 62, 0
1, 8365, Control_c, 0, 67, 8
1, 8380, Control_c, 0, 64, 120
1, 8380, Control_c, 0, 67, 9
1, 8396, Poly_aftertouch_c, 0, 65, 0
1, 8396, Control_c, 0, 67, 11
1, 8408, Note_on_c, 0, 53, 32
1, 8411, Control_c, 0, 67, 14
1, 8426, Control_c, 0, 64, 117
1, 8426, Control_c, 0, 67, 18
1, 8441, Control_c, 0, 64, 103
1, 8441, Control_c, 0, 67, 21
1, 8456, Control_c, 0, 64, 89
1, 8456, Control_c, 0, 67, 23
1, 8459, Poly_aftertouch_c, 0, 64, 0
1, 8470, Control_c, 0, 64, 74
1, 8485, Control_c, 0, 64, 53
1, 8500, Control_c, 0, 64, 0
1, 8567, Note_on_c, 0, 49, 40
1, 8574, Control_c, 0, 67, 22
1, 8581, Note_on_c, 0, 41, 31
1, 8589, Control_c, 0, 64, 64
1, 8604, Control_c, 0, 64, 78
1, 8613, Note_off_c, 0, 49, 62
1, 8618, Control_c, 0, 64, 100
1, 8618, Control_c, 0, 67, 21
1, 8633, Control_c, 0, 64, 127
1, 8633, Control_c, 0, 67, 20
1, 8648, Control_c, 0, 67, 20
1, 8662, Control_c, 0, 67, 19
1, 8677, Control_c, 0, 67, 17
1, 8692, Control_c, 0, 67, 15
1, 8707, Note_off_c, 0, 61, 56
1, 8707, Control_c, 0, 67, 11
1, 8722, Control_c, 0, 67, 0
1, 8723, Note_off_c, 0, 53, 43
1, 8724, Note_on_c, 0, 34, 44
1, 8753, Note_off_c, 0, 41, 40
1, 8762, Note_off_c, 0, 34, 59
1, 8818, Note_on_c, 0, 65, 56
1, 8829, Note_on_c, 0, 53, 31
1, 8829, Note_on_c, 0, 61, 37
1, 8857, Note_off_c, 0, 65, 59
1, 8871, Note_off_c, 0, 61, 60
1, 8890, Note_off_c, 0, 53, 0
1, 8890, Note_on_c, 0, 53, 31
1, 8912, Note_on_c, 0, 49, 54
1, 8956, Note_off_c, 0, 53, 57
1, 8980, Note_off_c, 0, 49, 60
1, 8988, Note_on_c, 0, 41, 55
1, 9019, Note_off_c, 0, 41, 62
1, 9040, Control_c, 0, 64, 115
1, 9055, Control_c, 0, 64, 70
1, 9069, Control_c, 0, 64, 0
1, 9071, Note_on_c, 0, 60, 71
1, 9077, Note_on_c, 0, 53, 54
1, 9165, Note_on_c, 0, 48, 70
1, 9180, Note_on_c, 0, 41, 46
1, 9189, Control_c, 0, 64, 85
1, 9198, Note_off_c, 0, 48, 63
1, 9204, Control_c, 0, 64, 127
1, 9237, Note_off_c, 0, 41, 56
1, 9246, Note_off_c, 0, 53, 63
1, 9263, Note_off_c, 0, 60, 63
1, 9284, Note_on_c, 0, 34, 64
1, 9319, Note_off_c, 0, 34, 62
1, 9332, Note_on_c, 0, 65, 74
1, 9334, Note_on_c, 0, 60, 76
1, 9342, Note_on_c, 0, 53, 46
1, 9358, Note_off_c, 0, 65, 67
1, 9359, Note_off_c, 0, 60, 68
1, 9363, Note_off_c, 0, 53, 64
1, 9412, Note_on_c, 0, 48, 62
1, 9426, Note_on_c, 0, 53, 75
1, 9458, Note_off_c, 0, 53, 65
1, 9482, Note_on_c, 0, 41, 70
1, 9489, Note_off_c, 0, 48, 63
1, 9508, Note_off_c, 0, 41, 64
1, 9545, Control_c, 0, 64, 73
1, 9550, Note_on_c, 0, 58, 91
1, 9551, Note_on_c, 0, 53, 79
1, 9559, Control_c, 0, 64, 0
1, 9633, Control_c, 0, 64, 68
1, 9642, Note_on_c, 0, 46, 91
1, 9648, Control_c, 0, 64, 127
1, 9656, Note_on_c, 0, 41, 57
1, 9690, Note_off_c, 0, 46, 59
1, 9710, Note_off_c, 0, 53, 62
1, 9728, Note_off_c, 0, 41, 39
1, 9739, Note_off_c, 0, 58, 63
1, 9743, Note_on_c, 0, 34, 82
1, 9788, Note_off_c, 0, 34, 61
1, 9803, Note_on_c, 0, 58, 86
1, 9807, Note_on_c, 0, 65, 81
1, 9809, Note_on_c, 0, 53, 81
1, 9828, Note_off_c, 0, 53, 74
1, 9842, Note_off_c, 0, 58, 61
1, 9848, Note_off_c, 0, 65, 58
1, 9868, Note_on_c, 0, 53, 94
1, 9880, Note_on_c, 0, 46, 85
1, 9923, Note_off_c, 0, 53, 65
1, 9946, Note_on_c, 0, 43, 85
1, 9970, Note_off_c, 0, 46, 61
1, 9995, Note_off_c, 0, 43, 66
1, 10012, Control_c, 0, 64, 90
1, 10018, Note_on_c, 0, 56, 105
1, 10023, Note_on_c, 0, 53, 92
1, 10027, Control_c, 0, 64, 0
1, 10086, Control_c, 0, 64, 66
1, 10101, Control_c, 0, 64, 97
1, 10116, Control_c, 0, 64, 127
1, 10120, Note_on_c, 0, 44, 98
1, 10136, Note_on_c, 0, 41, 71
1, 10158, Note_off_c, 0, 53, 63
1, 10168, Note_off_c, 0, 44, 63
1, 10187, Note_off_c, 0, 56, 63
1, 10194, Note_off_c, 0, 41, 56
1, 10229, Note_on_c, 0, 34, 92
1, 10249, Note_on_c, 0, 56, 92
1, 10250, Note_on_c, 0, 53, 88
1, 10251, Note_on_c, 0, 65, 89
1, 10272, Note_off_c, 0, 53, 71
1, 10274, Note_off_c, 0, 34, 64
1, 10280, Note_off_c, 0, 65, 63
1, 10283, Note_off_c, 0, 56, 65
1, 10336, Note_on_c, 0, 53, 90
1, 10348, Note_on_c, 0, 44, 85
1, 10378, Note_off_c, 0, 53, 68
1, 10417, Note_on_c, 0, 41, 88
1, 10445, Note_off_c, 0, 41, 68
1, 10445, Note_off_c, 0, 44, 65
1, 10459, Poly_aftertouch_c, 0, 50, 0
1, 10596, Note_on_c, 0, 42, 103
1, 10597, Control_c, 0, 64, 111
1, 10602, Note_on_c, 0, 54, 94
1, 10604, Note_on_c, 0, 22, 36
1, 10612, Control_c, 0, 64, 65
1, 10626, Note_on_c, 0, 51, 53
1, 10627, Control_c, 0, 64, 0
1, 10629, Note_on_c, 0, 49, 41
1, 10630, Note_off_c, 0, 49, 127
1, 10645, Note_off_c, 0, 22, 43
1, 10659, Note_off_c, 0, 51, 33
1, 10746, Note_on_c, 0, 34, 110
1, 10750, Note_on_c, 0, 30, 95
1, 10751, Note_off_c, 0, 42, 64
1, 10756, Note_on_c, 0, 22, 67
1, 10757, Note_on_c, 0, 35, 85
1, 10757, Note_on_c, 0, 26, 25
1, 10760, Control_c, 0, 64, 74
1, 10763, Note_on_c, 0, 25, 47
1, 10766, Note_on_c, 0, 23, 70
1, 10769, Note_off_c, 0, 30, 64
1, 10775, Control_c, 0, 64, 127
1, 10784, Note_on_c, 0, 33, 34
1, 10795, Note_off_c, 0, 22, 62
1, 10799, Note_on_c, 0, 27, 15
1, 10806, Note_off_c, 0, 26, 39
1, 10817, Note_off_c, 0, 23, 59
1, 10820, Note_off_c, 0, 33, 46
1, 10824, Note_off_c, 0, 35, 62
1, 10829, Note_off_c, 0, 54, 60
1, 10831, Note_on_c, 0, 24, 3
1, 10836, Poly_aftertouch_c, 0, 21, 127
1, 10850, Note_off_c, 0, 34, 60
1, 10852, Poly_aftertouch_c, 0, 29, 0
1, 10866, Note_off_c, 0, 27, 40
1, 10873, Note_off_c, 0, 24, 50
1, 10881, Poly_aftertouch_c, 0, 21, 0
1, 10884, Note_off_c, 0, 25, 31
1, 11136, Note_on_c, 0, 65, 101
1, 11141, Note_on_c, 0, 58, 87
1, 11144, Note_on_c, 0, 61, 82
1, 11160, Note_on_c, 0, 54, 75
1, 11177, Note_off_c, 0, 65, 68
1, 11180, Note_off_c, 0, 54, 73
1, 11181, Note_off_c, 0, 61, 65
1, 11183, Note_off_c, 0, 58, 56
1, 11234, Note_on_c, 0, 65, 105
1, 11237, Note_on_c, 0, 54, 78
1, 11237, Note_on_c, 0, 58, 88
1, 11240, Note_on_c, 0, 61, 85
1, 11265, Note_off_c, 0, 65, 70
1, 11273, Note_off_c, 0, 54, 64
1, 11290, Note_off_c, 0, 58, 65
1, 11292, Note_off_c, 0, 61, 64
1, 11402, Note_on_c, 0, 82, 102
1, 11402, Note_on_c, 0, 89, 109
1, 11403, Note_on_c, 0, 77, 99
1, 11404, Note_on_c, 0, 65, 100
1, 11407, Note_on_c, 0, 58, 83
1, 11411, Note_on_c, 0, 61, 86
1, 11413, Note_on_c, 0, 54, 85
1, 11434, Note_off_c, 0, 77, 67
1, 11435, Note_off_c, 0, 89, 66
1, 11439, Note_off_c, 0, 65, 65
1, 11448, Note_off_c, 0, 82, 62
1, 11454, Note_off_c, 0, 54, 64
1, 11461, Note_off_c, 0, 58, 59
1, 11469, Note_off_c, 0, 61, 60
1, 11574, Note_on_c, 0, 65, 103
1, 11577, Note_on_c, 0, 73, 114
1, 11578, Note_on_c, 0, 58, 76
1, 11580, Note_on_c, 0, 85, 103
1, 11582, Note_on_c, 0, 61, 84
1, 11582, Note_on_c, 0, 82, 94
1, 11583, Note_on_c, 0, 54, 86
1, 11616, Note_off_c, 0, 65, 61
1, 11633, Note_off_c, 0, 54, 60
1, 11642, Note_off_c, 0, 61, 62
1, 11646, Note_off_c, 0, 58, 62
1, 11653, Note_on_c, 0, 56, 3
1, 11682, Poly_aftertouch_c, 0, 64, 0
1, 11690, Note_off_c, 0, 56, 55
1, 11859, Note_on_c, 0, 65, 98
1, 11865, Note_on_c, 0, 58, 77
1, 11870, Note_on_c, 0, 54, 74
1, 11870, Note_on_c, 0, 61, 74
1, 11878, Note_off_c, 0, 85, 59
1, 11898, Note_off_c, 0, 65, 59
1, 11910, Note_off_c, 0, 82, 61
1, 11914, Note_off_c, 0, 54, 60
1, 11935, Note_off_c, 0, 58, 57
1, 11943, Note_off_c, 0, 61, 59
1, 11954, Note_off_c, 0, 73, 56
1, 12039, Note_on_c, 0, 65, 93
1, 12048, Note_on_c, 0, 58, 64
1, 12051, Note_on_c, 0, 54, 65
1, 12053, Note_on_c, 0, 61, 65
1, 12059, Note_on_c, 0, 77, 97
1, 12062, Note_on_c, 0, 73, 85
1, 12072, Note_off_c, 0, 54, 72
1, 12084, Note_off_c, 0, 65, 57
1, 12093, Note_off_c, 0, 58, 47
1, 12100, Note_off_c, 0, 61, 48
1, 12260, Note_on_c, 0, 61, 76
1, 12272, Note_on_c, 0, 70, 80
1, 12322, Note_off_c, 0, 73, 60
1, 12345, Note_off_c, 0, 61, 61
1, 12351, Note_off_c, 0, 77, 46
1, 12379, Note_off_c, 0, 70, 57
1, 12403, Note_on_c, 0, 66, 80
1, 12475, Note_on_c, 0, 77, 86
1, 12479, Note_on_c, 0, 73, 81
1, 12518, Note_off_c, 0, 66, 60
1, 12576, Note_on_c, 0, 70, 89
1, 12581, Note_off_c, 0, 73, 58
1, 12582, Note_off_c, 0, 77, 59
1, 12584, Note_on_c, 0, 61, 82
1, 12645, Note_on_c, 0, 66, 86
1, 12645, Note_off_c, 0, 70, 60
1, 12661, Note_off_c, 0, 61, 60
1, 12699, Note_on_c, 0, 77, 82
1, 12701, Note_on_c, 0, 73, 77
1, 12740, Note_off_c, 0, 66, 62
1, 12782, Note_off_c, 0, 77, 61
1, 12787, Note_on_c, 0, 61, 83
1, 12790, Note_on_c, 0, 70, 79
1, 12790, Note_off_c, 0, 73, 62
1, 12833, Note_on_c, 0, 66, 82
1, 12845, Note_off_c, 0, 61, 57
1, 12849, Note_off_c, 0, 70, 59
1, 12882, Note_on_c, 0, 77, 86
1, 12887, Note_on_c, 0, 73, 85
1, 12924, Note_off_c, 0, 66, 61
1, 12952, Note_on_c, 0, 61, 82
1, 12957, Note_on_c, 0, 70, 76
1, 12960, Note_off_c, 0, 73, 60
1, 12961, Note_off_c, 0, 77, 61
1, 13010, Note_on_c, 0, 66, 79
1, 13016, Note_off_c, 0, 61, 59
1, 13017, Note_off_c, 0, 70, 63
1, 13060, Note_on_c, 0, 73, 75
1, 13061, Note_on_c, 0, 77, 83
1, 13088, Note_off_c, 0, 66, 60
1, 13121, Note_off_c, 0, 73, 61
1, 13122, Note_on_c, 0, 70, 80
1, 13124, Note_off_c, 0, 77, 62
1, 13125, Note_on_c, 0, 61, 74
1, 13168, Control_c, 0, 64, 99
1, 13179, Note_on_c, 0, 66, 83
1, 13185, Control_c, 0, 64, 74
1, 13200, Control_c, 0, 64, 68
1, 13201, Note_off_c, 0, 70, 63
1, 13214, Control_c, 0, 64, 76
1, 13228, Note_on_c, 0, 73, 80
1, 13229, Control_c, 0, 64, 91
1, 13232, Note_on_c, 0, 77, 80
1, 13244, Control_c, 0, 64, 127
1, 13251, Note_off_c, 0, 66, 62
1, 13288, Note_off_c, 0, 73, 60
1, 13311, Note_on_c, 0, 66, 82
1, 13368, Note_on_c, 0, 73, 83
1, 13370, Note_on_c, 0, 70, 77
1, 13381, Note_off_c, 0, 66, 62
1, 13393, Note_off_c, 0, 77, 60
1, 13447, Note_off_c, 0, 70, 61
1, 13462, Note_off_c, 0, 73, 59
1, 13490, Note_on_c, 0, 65, 101
1, 13726, Note_off_c, 0, 65, 58
1, 13762, Note_on_c, 0, 64, 104
1, 13795, Note_off_c, 0, 61, 61
1, 13867, Note_on_c, 0, 66, 74
1, 13914, Note_on_c, 0, 73, 76
1, 13919, Note_on_c, 0, 70, 70
1, 13943, Note_off_c, 0, 66, 58
1, 13968, Note_on_c, 0, 63, 99
1, 13983, Note_on_c, 0, 77, 74
1, 13988, Note_off_c, 0, 64, 70
1, 13997, Note_off_c, 0, 70, 60
1, 14031, Note_off_c, 0, 73, 58
1, 14038, Note_on_c, 0, 66, 82
1, 14105, Note_on_c, 0, 73, 73
1, 14110, Note_on_c, 0, 70, 67
1, 14119, Note_off_c, 0, 66, 59
1, 14138, Note_off_c, 0, 77, 52
1, 14164, Note_off_c, 0, 63, 60
1, 14174, Note_on_c, 0, 61, 102
1, 14197, Note_off_c, 0, 70, 59
1, 14212, Note_off_c, 0, 73, 54
1, 14223, Control_c, 0, 64, 89
1, 14238, Control_c, 0, 64, 65
1, 14253, Control_c, 0, 64, 28
1, 14268, Control_c, 0, 64, 57
1, 14274, Note_on_c, 0, 66, 73
1, 14282, Control_c, 0, 64, 70
1, 14297, Control_c, 0, 64, 85
1, 14312, Control_c, 0, 64, 127
1, 14343, Note_on_c, 0, 73, 73
1, 14343, Note_on_c, 0, 70, 69
1, 14391, Note_off_c, 0, 66, 57
1, 14420, Note_on_c, 0, 77, 78
1, 14457, Note_off_c, 0, 70, 57
1, 14488, Note_on_c, 0, 66, 82
1, 14489, Note_off_c, 0, 73, 61
1, 14506, Poly_aftertouch_c, 0, 74, 127
1, 14566, Note_on_c, 0, 70, 71
1, 14569, Note_on_c, 0, 73, 77
1, 14647, Note_on_c, 0, 58, 86
1, 14670, Note_off_c, 0, 61, 60
1, 14708, Note_off_c, 0, 66, 55
1, 14751, Note_off_c, 0, 70, 52
1, 14755, Note_on_c, 0, 54, 92
1, 14766, Note_off_c, 0, 58, 62
1, 14799, Note_off_c, 0, 73, 51
1, 14839, Poly_aftertouch_c, 0, 74, 0
1, 14867, Note_off_c, 0, 77, 24
1, 14886, Note_on_c, 0, 66, 71
1, 14955, Note_on_c, 0, 73, 69
1, 14959, Note_on_c, 0, 70, 66
1, 14998, Note_off_c, 0, 66, 59
1, 15032, Note_on_c, 0, 77, 77
1, 15057, Note_off_c, 0, 70, 61
1, 15084, Note_off_c, 0, 73, 56
1, 15104, Note_on_c, 0, 66, 68
1, 15114, Note_on_c, 0, 74, 26
1, 15162, Note_off_c, 0, 54, 65
1, 15172, Note_off_c, 0, 77, 61
1, 15182, Note_on_c, 0, 73, 72
1, 15184, Note_on_c, 0, 70, 57
1, 15199, Note_off_c, 0, 74, 51
1, 15216, Note_off_c, 0, 70, 61
1, 15219, Note_off_c, 0, 66, 59
1, 15225, Note_off_c, 0, 73, 61
1, 15378, Note_on_c, 0, 54, 60
1, 15455, Note_on_c, 0, 61, 54
1, 15485, Note_on_c, 0, 58, 34
1, 15485, Note_off_c, 0, 54, 56
1, 15516, Note_on_c, 0, 65, 54
1, 15528, Note_off_c, 0, 58, 59
1, 15573, Note_off_c, 0, 61, 52
1, 15594, Note_on_c, 0, 53, 83
1, 15693, Note_on_c, 0, 54, 48
1, 15759, Note_off_c, 0, 54, 40
1, 15768, Note_on_c, 0, 61, 48
1, 15788, Note_on_c, 0, 58, 24
1, 15827, Note_off_c, 0, 58, 51
1, 15863, Note_off_c, 0, 61, 52
1, 15872, Note_on_c, 0, 62, 4
1, 15884, Control_c, 0, 64, 124
1, 15899, Control_c, 0, 64, 116
1, 15914, Control_c, 0, 64, 112
1, 15923, Note_on_c, 0, 54, 47
1, 15928, Control_c, 0, 64, 109
1, 15943, Control_c, 0, 64, 107
1, 15958, Control_c, 0, 64, 104
1, 15958, Control_c, 0, 67, 8
1, 15973, Control_c, 0, 64, 102
1, 15973, Control_c, 0, 67, 11
1, 15987, Control_c, 0, 64, 99
1, 15987, Control_c, 0, 67, 13
1, 16002, Control_c, 0, 64, 96
1, 16002, Control_c, 0, 67, 16
1, 16017, Control_c, 0, 64, 93
1, 16017, Control_c, 0, 67, 17
1, 16027, Note_on_c, 0, 52, 70
1, 16032, Control_c, 0, 64, 89
1, 16032, Control_c, 0, 67, 20
1, 16047, Control_c, 0, 64, 85
1, 16047, Control_c, 0, 67, 25
1, 16061, Control_c, 0, 64, 82
1, 16061, Control_c, 0, 67, 29
1, 16074, Note_on_c, 0, 58, 34
1, 16076, Control_c, 0, 64, 78
1, 16076, Control_c, 0, 67, 34
1, 16091, Control_c, 0, 64, 75
1, 16091, Control_c, 0, 67, 38
1, 16103, Note_off_c, 0, 53, 58
1, 16106, Control_c, 0, 64, 71
1, 16106, Control_c, 0, 67, 43
1, 16121, Control_c, 0, 64, 66
1, 16121, Control_c, 0, 67, 49
1, 16135, Control_c, 0, 64, 61
1, 16135, Control_c, 0, 67, 52
1, 16150, Control_c, 0, 64, 55
1, 16150, Control_c, 0, 67, 54
1, 16165, Control_c, 0, 64, 50
1, 16165, Control_c, 0, 67, 56
1, 16179, Control_c, 0, 64, 47
1, 16179, Control_c, 0, 67, 57
1, 16194, Control_c, 0, 64, 46
1, 16194, Control_c, 0, 67, 58
1, 16209, Control_c, 0, 64, 46
1, 16209, Control_c, 0, 67, 59
1, 16224, Control_c, 0, 64, 45
1, 16224, Control_c, 0, 67, 60
1, 16239, Control_c, 0, 64, 46
1, 16239, Control_c, 0, 67, 61
1, 16242, Note_on_c, 0, 61, 47
1, 16254, Control_c, 0, 64, 47
1, 16268, Control_c, 0, 64, 51
1, 16284, Control_c, 0, 64, 56
1, 16299, Control_c, 0, 64, 60
1, 16314, Control_c, 0, 64, 63
1, 16328, Control_c, 0, 64, 64
1, 16343, Control_c, 0, 64, 66
1, 16358, Control_c, 0, 64, 68
1, 16374, Control_c, 0, 64, 72
1, 16374, Control_c, 0, 67, 60
1, 16389, Control_c, 0, 64, 77
1, 16411, Control_c, 0, 64, 82
1, 16411, Control_c, 0, 67, 60
1, 16426, Control_c, 0, 64, 86
1, 16426, Control_c, 0, 67, 59
1, 16441, Control_c, 0, 64, 88
1, 16456, Control_c, 0, 64, 91
1, 16456, Control_c, 0, 67, 59
1, 16462, Note_on_c, 0, 51, 66
1, 16471, Control_c, 0, 64, 96
1, 16471, Control_c, 0, 67, 58
1, 16485, Control_c, 0, 64, 104
1, 16500, Control_c, 0, 64, 115
1, 16500, Control_c, 0, 67, 58
1, 16515, Control_c, 0, 64, 127
1, 16534, Note_off_c, 0, 54, 34
1, 16545, Control_c, 0, 67, 57
1, 16559, Control_c, 0, 67, 57
1, 16573, Note_off_c, 0, 52, 27
1, 16574, Control_c, 0, 67, 56
1, 16595, Note_off_c, 0, 58, 31
1, 16603, Control_c, 0, 67, 55
1, 16618, Control_c, 0, 67, 54
1, 16633, Control_c, 0, 67, 53
1, 16642, Note_off_c, 0, 51, 62
1, 16648, Control_c, 0, 67, 52
1, 16672, Note_off_c, 0, 61, 38
1, 16677, Control_c, 0, 67, 51
1, 16692, Control_c, 0, 67, 50
1, 16707, Control_c, 0, 67, 49
1, 16722, Control_c, 0, 67, 48
1, 16737, Control_c, 0, 67, 44
1, 16751, Control_c, 0, 67, 38
1, 16766, Control_c, 0, 67, 32
1, 16781, Control_c, 0, 67, 26
1, 16796, Control_c, 0, 67, 19
1, 16796, Note_on_c, 0, 61, 50
1, 16811, Control_c, 0, 67, 14
1, 16826, Control_c, 0, 67, 10
1, 16829, Note_on_c, 0, 54, 30
1, 16841, Control_c, 0, 64, 122
1, 16841, Control_c, 0, 67, 0
1, 16856, Control_c, 0, 64, 112
1, 16870, Control_c, 0, 64, 103
1, 16885, Control_c, 0, 64, 89
1, 16900, Control_c, 0, 64, 68
1, 16915, Control_c, 0, 64, 0
1, 17005, Note_on_c, 0, 41, 39
1, 17010, Note_on_c, 0, 49, 40
1, 17032, Control_c, 0, 64, 60
1, 17047, Control_c, 0, 64, 85
1, 17048, Note_off_c, 0, 49, 61
1, 17062, Control_c, 0, 64, 127
1, 17165, Note_off_c, 0, 61, 60
1, 17171, Note_off_c, 0, 65, 32
1, 17178, Note_off_c, 0, 54, 51
1, 17181, Note_on_c, 0, 34, 48
1, 17216, Note_off_c, 0, 62, 39
1, 17232, Note_off_c, 0, 41, 35
1, 17233, Note_off_c, 0, 34, 59
1, 17289, Note_on_c, 0, 65, 60
1, 17297, Note_on_c, 0, 53, 37
1, 17306, Note_on_c, 0, 61, 42
1, 17319, Note_off_c, 0, 65, 64
1, 17343, Note_off_c, 0, 61, 57
1, 17356, Note_off_c, 0, 53, 0
1, 17371, Note_on_c, 0, 53, 45
1, 17392, Note_on_c, 0, 49, 51
1, 17413, Note_off_c, 0, 53, 57
1, 17450, Note_on_c, 0, 43, 63
1, 17477, Note_off_c, 0, 49, 35
1, 17485, Control_c, 0, 64, 83
1, 17488, Note_off_c, 0, 43, 64
1, 17496, Poly_aftertouch_c, 0, 65, 127
1, 17500, Control_c, 0, 64, 0
1, 17532, Note_on_c, 0, 60, 71
1, 17545, Note_on_c, 0, 54, 59
1, 17547, Poly_aftertouch_c, 0, 65, 0
1, 17589, Control_c, 0, 64, 72
1, 17604, Control_c, 0, 64, 127
1, 17617, Note_on_c, 0, 48, 69
1, 17641, Note_on_c, 0, 41, 44
1, 17652, Note_off_c, 0, 48, 61
1, 17662, Note_on_c, 0, 62, 31
1, 17710, Note_off_c, 0, 54, 65
1, 17714, Note_off_c, 0, 62, 53
1, 17734, Note_off_c, 0, 60, 62
1, 17738, Note_on_c, 0, 34, 64
1, 17773, Note_off_c, 0, 34, 62
1, 17781, Note_off_c, 0, 41, 35
1, 17806, Note_on_c, 0, 65, 67
1, 17809, Note_on_c, 0, 53, 68
1, 17815, Note_on_c, 0, 60, 59
1, 17831, Note_off_c, 0, 65, 67
1, 17836, Note_off_c, 0, 53, 67
1, 17842, Note_off_c, 0, 60, 66
1, 17884, Note_on_c, 0, 48, 67
1, 17888, Note_on_c, 0, 53, 79
1, 17940, Note_off_c, 0, 53, 59
1, 17953, Note_on_c, 0, 41, 82
1, 17967, Note_off_c, 0, 48, 63
1, 17988, Note_off_c, 0, 41, 65
1, 18012, Control_c, 0, 64, 81
1, 18027, Control_c, 0, 64, 0
1, 18034, Note_on_c, 0, 58, 91
1, 18036, Note_on_c, 0, 54, 90
1, 18101, Control_c, 0, 64, 87
1, 18116, Control_c, 0, 64, 127
1, 18135, Note_on_c, 0, 46, 74
1, 18141, Note_on_c, 0, 42, 57
1, 18142, Note_off_c, 0, 42, 127
1, 18162, Note_on_c, 0, 43, 64
1, 18167, Note_off_c, 0, 54, 63
1, 18171, Poly_aftertouch_c, 0, 42, 0
1, 18173, Note_off_c, 0, 46, 59
1, 18197, Note_off_c, 0, 58, 61
1, 18199, Note_off_c, 0, 43, 61
1, 18218, Note_on_c, 0, 34, 78
1, 18248, Note_on_c, 0, 37, 22
1, 18248, Note_off_c, 0, 34, 64
1, 18281, Note_on_c, 0, 65, 82
1, 18282, Note_on_c, 0, 53, 77
1, 18284, Note_on_c, 0, 58, 82
1, 18297, Note_off_c, 0, 37, 50
1, 18304, Note_off_c, 0, 53, 69
1, 18320, Note_off_c, 0, 65, 56
1, 18328, Note_off_c, 0, 58, 56
1, 18346, Note_on_c, 0, 53, 91
1, 18350, Note_on_c, 0, 46, 81
1, 18408, Note_off_c, 0, 53, 53
1, 18421, Note_on_c, 0, 43, 83
1, 18445, Note_off_c, 0, 46, 63
1, 18463, Note_off_c, 0, 43, 65
1, 18471, Control_c, 0, 64, 100
1, 18486, Control_c, 0, 64, 67
1, 18496, Note_on_c, 0, 57, 100
1, 18498, Note_on_c, 0, 54, 100
1, 18501, Control_c, 0, 64, 0
1, 18544, Control_c, 0, 64, 68
1, 18559, Control_c, 0, 64, 90
1, 18573, Control_c, 0, 64, 127
1, 18589, Note_on_c, 0, 45, 82
1, 18593, Note_on_c, 0, 42, 65
1, 18618, Note_on_c, 0, 43, 59
1, 18626, Note_on_c, 0, 47, 38
1, 18638, Note_off_c, 0, 54, 58
1, 18641, Note_off_c, 0, 45, 65
1, 18662, Note_off_c, 0, 43, 55
1, 18666, Note_off_c, 0, 42, 0
1, 18670, Note_off_c, 0, 47, 54
1, 18674, Note_off_c, 0, 57, 47
1, 18701, Note_on_c, 0, 34, 84
1, 18726, Poly_aftertouch_c, 0, 42, 0
1, 18728, Note_off_c, 0, 34, 67
1, 18749, Note_on_c, 0, 53, 96
1, 18750, Note_on_c, 0, 57, 78
1, 18751, Note_on_c, 0, 65, 94
1, 18775, Note_off_c, 0, 57, 65
1, 18776, Note_off_c, 0, 53, 67
1, 18786, Note_off_c, 0, 65, 67
1, 18821, Note_on_c, 0, 44, 83
1, 18821, Note_on_c, 0, 53, 85
1, 18844, Note_on_c, 0, 52, 57
1, 18859, Note_off_c, 0, 44, 62
1, 18865, Note_off_c, 0, 53, 66
1, 18871, Note_off_c, 0, 52, 59
1, 18879, Note_on_c, 0, 46, 37
1, 18880, Note_on_c, 0, 43, 66
1, 18901, Note_on_c, 0, 40, 88
1, 18921, Note_off_c, 0, 46, 59
1, 18927, Note_off_c, 0, 43, 63
1, 18930, Note_off_c, 0, 40, 67
1, 19095, Note_on_c, 0, 27, 42
1, 19096, Note_on_c, 0, 44, 104
1, 19098, Note_on_c, 0, 56, 97
1, 19100, Control_c, 0, 64, 92
1, 19115, Control_c, 0, 64, 0
1, 19129, Note_on_c, 0, 22, 2
1, 19132, Note_on_c, 0, 54, 43
1, 19133, Note_off_c, 0, 54, 127
1, 19141, Note_off_c, 0, 22, 43
1, 19149, Note_off_c, 0, 27, 60
1, 19194, Note_on_c, 0, 29, 24
1, 19227, Note_on_c, 0, 26, 21
1, 19242, Note_on_c, 0, 22, 88
1, 19243, Note_on_c, 0, 34, 105
1, 19266, Note_on_c, 0, 30, 61
1, 19267, Note_off_c, 0, 30, 127
1, 19267, Note_on_c, 0, 27, 53
1, 19268, Note_off_c, 0, 27, 127
1, 19272, Note_off_c, 0, 29, 61
1, 19274, Note_off_c, 0, 44, 67
1, 19277, Note_off_c, 0, 26, 60
1, 19278, Control_c, 0, 64, 79
1, 19293, Control_c, 0, 64, 127
1, 19327, Note_off_c, 0, 22, 63
1, 19339, Note_off_c, 0, 56, 63
1, 19351, Note_off_c, 0, 34, 62
1, 19660, Note_on_c, 0, 65, 101
1, 19664, Note_on_c, 0, 62, 84
1, 19670, Note_on_c, 0, 56, 81
1, 19670, Note_on_c, 0, 53, 82
1, 19670, Note_on_c, 0, 58, 83
1, 19685, Note_on_c, 0, 64, 61
1, 19691, Note_off_c, 0, 65, 70
1, 19693, Note_off_c, 0, 58, 69
1, 19695, Note_off_c, 0, 53, 69
1, 19696, Note_off_c, 0, 56, 67
1, 19705, Note_off_c, 0, 62, 58
1, 19707, Note_off_c, 0, 64, 66
1, 19750, Note_on_c, 0, 65, 111
1, 19750, Note_on_c, 0, 62, 75
1, 19753, Note_on_c, 0, 56, 87
1, 19754, Note_on_c, 0, 53, 81
1, 19760, Note_on_c, 0, 58, 84
1, 19795, Note_off_c, 0, 53, 66
1, 19800, Note_off_c, 0, 65, 63
1, 19813, Note_off_c, 0, 56, 61
1, 19820, Note_off_c, 0, 58, 61
1, 19830, Note_off_c, 0, 62, 56
1, 19931, Note_on_c, 0, 82, 99
1, 19932, Note_on_c, 0, 65, 103
1, 19932, Note_on_c, 0, 77, 100
1, 19932, Note_on_c, 0, 89, 101
1, 19933, Note_on_c, 0, 86, 91
1, 19935, Note_on_c, 0, 62, 86
1, 19939, Note_on_c, 0, 58, 80
1, 19940, Note_on_c, 0, 56, 81
1, 19948, Note_on_c, 0, 53, 75
1, 19968, Note_off_c, 0, 65, 60
1, 19975, Note_off_c, 0, 53, 66
1, 19998, Note_off_c, 0, 86, 64
1, 19998, Note_off_c, 0, 89, 61
1, 20005, Note_off_c, 0, 56, 60
1, 20010, Note_off_c, 0, 77, 63
1, 20011, Note_off_c, 0, 82, 62
1, 20020, Note_off_c, 0, 58, 59
1, 20027, Note_off_c, 0, 62, 57
1, 20100, Note_on_c, 0, 65, 105
1, 20101, Note_on_c, 0, 74, 109
1, 20102, Note_on_c, 0, 86, 99
1, 20104, Note_on_c, 0, 82, 103
1, 20108, Note_on_c, 0, 62, 83
1, 20108, Note_on_c, 0, 56, 81
1, 20111, Note_on_c, 0, 53, 84
1, 20112, Note_on_c, 0, 58, 80
1, 20203, Note_off_c, 0, 53, 62
1, 20220, Note_off_c, 0, 65, 57
1, 20241, Note_off_c, 0, 56, 61
1, 20250, Note_off_c, 0, 58, 58
1, 20259, Note_off_c, 0, 86, 57
1, 20261, Note_off_c, 0, 62, 54
1, 20300, Note_off_c, 0, 82, 59
1, 20344, Note_off_c, 0, 74, 60
1, 20352, Note_on_c, 0, 65, 96
1, 20358, Note_on_c, 0, 56, 72
1, 20359, Note_on_c, 0, 58, 71
1, 20361, Note_on_c, 0, 62, 75
1, 20379, Note_on_c, 0, 53, 55
1, 20394, Note_off_c, 0, 65, 66
1, 20399, Note_off_c, 0, 53, 65
1, 20418, Note_off_c, 0, 56, 59
1, 20433, Note_off_c, 0, 58, 59
1, 20443, Note_off_c, 0, 62, 52
1, 20501, Note_on_c, 0, 65, 91
1, 20503, Note_on_c, 0, 62, 53
1, 20510, Note_on_c, 0, 53, 54
1, 20519, Note_on_c, 0, 58, 59
1, 20522, Note_on_c, 0, 77, 88
1, 20525, Note_on_c, 0, 56, 63
1, 20528, Note_on_c, 0, 74, 78
1, 20549, Note_off_c, 0, 65, 60
1, 20562, Note_off_c, 0, 53, 64
1, 20585, Note_off_c, 0, 56, 55
1, 20596, Note_off_c, 0, 58, 58
1, 20597, Note_off_c, 0, 62, 53
1, 20622, Note_off_c, 0, 74, 60
1, 20656, Note_on_c, 0, 65, 81
1, 20719, Note_off_c, 0, 77, 51
1, 20736, Note_on_c, 0, 70, 78
1, 20736, Note_on_c, 0, 74, 83
1, 20739, Note_off_c, 0, 65, 64
1, 20805, Note_on_c, 0, 77, 91
1, 20805, Note_off_c, 0, 70, 62
1, 20825, Note_off_c, 0, 74, 65
1, 20859, Note_on_c, 0, 65, 82
1, 20880, Note_on_c, 0, 76, 30
1, 20905, Note_off_c, 0, 65, 67
1, 20915, Note_off_c, 0, 77, 64
1, 20919, Note_on_c, 0, 70, 84
1, 20925, Note_off_c, 0, 76, 50
1, 20928, Note_on_c, 0, 74, 81
1, 20949, Note_off_c, 0, 74, 71
1, 20957, Note_off_c, 0, 70, 58
1, 20981, Note_on_c, 0, 65, 108
1, 21030, Note_off_c, 0, 65, 65
1, 21063, Note_on_c, 0, 74, 83
1, 21066, Note_on_c, 0, 70, 73
1, 21095, Poly_aftertouch_c, 0, 61, 0
1, 21138, Note_on_c, 0, 77, 85
1, 21147, Note_off_c, 0, 70, 60
1, 21158, Note_off_c, 0, 74, 61
1, 21202, Note_on_c, 0, 64, 108
1, 21229, Note_on_c, 0, 65, 78
1, 21252, Note_off_c, 0, 64, 61
1, 21308, Note_on_c, 0, 74, 78
1, 21312, Note_on_c, 0, 70, 67
1, 21316, Note_off_c, 0, 65, 62
1, 21321, Note_off_c, 0, 77, 57
1, 21344, Note_off_c, 0, 70, 64
1, 21352, Note_off_c, 0, 74, 61
1, 21355, Note_on_c, 0, 63, 103
1, 21402, Note_on_c, 0, 65, 89
1, 21451, Control_c, 0, 64, 98
1, 21465, Note_on_c, 0, 70, 75
1, 21465, Control_c, 0, 64, 73
1, 21470, Note_on_c, 0, 74, 78
1, 21480, Control_c, 0, 64, 66
1, 21495, Control_c, 0, 64, 71
1, 21510, Control_c, 0, 64, 84
1, 21512, Note_off_c, 0, 65, 58
1, 21524, Control_c, 0, 64, 114
1, 21539, Control_c, 0, 64, 127
1, 21542, Note_off_c, 0, 63, 67
1, 21553, Note_on_c, 0, 62, 108
1, 21569, Note_on_c, 0, 77, 93
1, 21570, Note_off_c, 0, 70, 60
1, 21601, Note_off_c, 0, 74, 61
1, 21661, Note_on_c, 0, 65, 83
1, 21673, Note_off_c, 0, 62, 0
1, 21711, Poly_aftertouch_c, 0, 62, 127
1, 21718, Note_on_c, 0, 62, 15
1, 21735, Note_on_c, 0, 70, 80
1, 21738, Note_on_c, 0, 74, 84
1, 21749, Note_off_c, 0, 65, 65
1, 21753, Note_off_c, 0, 77, 56
1, 21784, Note_off_c, 0, 70, 63
1, 21785, Note_off_c, 0, 62, 54
1, 21825, Note_off_c, 0, 74, 57
1, 21825, Note_on_c, 0, 65, 90
1, 21905, Note_on_c, 0, 58, 101
1, 21910, Note_on_c, 0, 70, 80
1, 21917, Note_on_c, 0, 74, 85
1, 22013, Note_off_c, 0, 58, 65
1, 22016, Note_on_c, 0, 53, 98
1, 22031, Note_off_c, 0, 65, 47
1, 22049, Note_on_c, 0, 77, 93
1, 22063, Note_off_c, 0, 70, 61
1, 22079, Note_off_c, 0, 53, 66
1, 22080, Note_off_c, 0, 74, 64
1, 22161, Note_on_c, 0, 65, 90
1, 22248, Note_on_c, 0, 74, 82
1, 22248, Note_on_c, 0, 70, 80
1, 22271, Note_off_c, 0, 77, 58
1, 22302, Note_off_c, 0, 65, 56
1, 22359, Note_on_c, 0, 34, 93
1, 22361, Note_on_c, 0, 41, 97
1, 22383, Note_off_c, 0, 70, 59
1, 22383, Note_off_c, 0, 74, 61
1, 22414, Control_c, 0, 64, 95
1, 22429, Control_c, 0, 64, 68
1, 22444, Control_c, 0, 64, 0
1, 22459, Control_c, 0, 64, 63
1, 22474, Control_c, 0, 64, 79
1, 22489, Control_c, 0, 64, 127
1, 22587, Note_off_c, 0, 34, 53
1, 22621, Note_on_c, 0, 46, 102
1, 22633, Poly_aftertouch_c, 0, 38, 127
1, 22636, Note_on_c, 0, 38, 2
1, 22651, Note_off_c, 0, 41, 64
1, 22678, Note_off_c, 0, 46, 61
1, 22683, Note_off_c, 0, 38, 44
1, 22867, Note_on_c, 0, 50, 85
1, 22948, Note_on_c, 0, 74, 72
1, 22951, Note_on_c, 0, 71, 104
1, 22952, Note_on_c, 0, 83, 99
1, 22956, Note_on_c, 0, 80, 89
1, 23196, Note_on_c, 0, 53, 83
1, 23291, Note_off_c, 0, 50, 56
1, 23355, Note_on_c, 0, 56, 94
1, 23383, Note_off_c, 0, 53, 62
1, 23422, Note_off_c, 0, 83, 55
1, 23446, Note_off_c, 0, 71, 55
1, 23449, Note_off_c, 0, 56, 68
1, 23452, Note_off_c, 0, 80, 53
1, 23476, Note_on_c, 0, 62, 94
1, 23608, Note_on_c, 0, 82, 102
1, 23612, Note_on_c, 0, 70, 99
1, 23618, Note_on_c, 0, 78, 87
1, 23634, Note_off_c, 0, 62, 59
1, 23744, Note_on_c, 0, 65, 93
1, 23830, Note_off_c, 0, 82, 61
1, 23848, Note_off_c, 0, 78, 63
1, 23900, Note_off_c, 0, 70, 54
1, 23922, Note_on_c, 0, 62, 88
1, 23923, Note_on_c, 0, 71, 97
1, 23950, Note_off_c, 0, 65, 54
1, 23993, Note_on_c, 0, 77, 75
1, 23995, Note_on_c, 0, 68, 100
1, 23995, Note_on_c, 0, 80, 100
1, 24102, Note_off_c, 0, 71, 59
1, 24102, Note_off_c, 0, 68, 62
1, 24166, Poly_aftertouch_c, 0, 76, 127
1, 24225, Note_off_c, 0, 74, 61
1, 24242, Note_on_c, 0, 70, 102
1, 24250, Poly_aftertouch_c, 0, 76, 0
1, 24263, Note_off_c, 0, 77, 36
1, 24390, Note_off_c, 0, 62, 60
1, 24485, Note_off_c, 0, 80, 58
1, 24508, Note_off_c, 0, 70, 59
1, 24603, Note_on_c, 0, 69, 94
1, 24606, Note_on_c, 0, 61, 86
1, 24624, Control_c, 0, 64, 109
1, 24626, Note_on_c, 0, 80, 96
1, 24630, Note_on_c, 0, 68, 94
1, 24632, Note_on_c, 0, 77, 75
1, 24646, Control_c, 0, 64, 73
1, 24657, Note_on_c, 0, 73, 67
1, 24661, Control_c, 0, 64, 0
1, 24720, Control_c, 0, 64, 65
1, 24735, Control_c, 0, 64, 90
1, 24749, Control_c, 0, 64, 127
1, 24821, Note_off_c, 0, 69, 47
1, 24881, Poly_aftertouch_c, 0, 75, 127
1, 24949, Note_off_c, 0, 61, 57
1, 25107, Note_on_c, 0, 42, 83
1, 25426, Note_on_c, 0, 49, 88
1, 25454, Note_off_c, 0, 42, 61
1, 25492, Note_off_c, 0, 49, 64
1, 25620, Note_on_c, 0, 57, 79
1, 25760, Note_on_c, 0, 61, 81
1, 25798, Poly_aftertouch_c, 0, 75, 0
1, 25801, Note_off_c, 0, 68, 55
1, 25814, Note_off_c, 0, 80, 56
1, 25815, Note_off_c, 0, 77, 58
1, 25816, Note_off_c, 0, 73, 56
1, 25843, Note_off_c, 0, 57, 0
1, 25881, Poly_aftertouch_c, 0, 57, 127
1, 25882, Note_on_c, 0, 69, 73
1, 25926, Note_on_c, 0, 78, 90
1, 25939, Note_off_c, 0, 69, 58
1, 25949, Poly_aftertouch_c, 0, 57, 0
1, 25950, Note_on_c, 0, 73, 59
1, 25997, Note_off_c, 0, 61, 59
1, 26062, Note_on_c, 0, 66, 67
1, 26101, Note_off_c, 0, 73, 57
1, 26102, Note_off_c, 0, 66, 59
1, 26115, Note_off_c, 0, 78, 61
1, 26198, Note_on_c, 0, 77, 90
1, 26211, Note_on_c, 0, 73, 70
1, 26322, Control_c, 0, 64, 89
1, 26327, Note_on_c, 0, 65, 64
1, 26337, Control_c, 0, 64, 66
1, 26352, Control_c, 0, 64, 0
1, 26452, Note_on_c, 0, 43, 69
1, 26456, Control_c, 0, 64, 67
1, 26470, Control_c, 0, 64, 80
1, 26485, Control_c, 0, 64, 103
1, 26500, Control_c, 0, 64, 127
1, 26540, Note_off_c, 0, 43, 61
1, 26585, Note_on_c, 0, 53, 70
1, 26621, Note_off_c, 0, 53, 68
1, 26692, Note_off_c, 0, 77, 56
1, 26734, Note_off_c, 0, 73, 61
1, 26735, Note_on_c, 0, 61, 66
1, 26799, Note_off_c, 0, 61, 57
1, 26839, Note_on_c, 0, 76, 88
1, 26859, Note_on_c, 0, 73, 68
1, 26952, Note_off_c, 0, 65, 39
1, 27014, Note_on_c, 0, 60, 55
1, 27058, Note_off_c, 0, 60, 60
1, 27107, Note_on_c, 0, 64, 63
1, 27159, Note_off_c, 0, 64, 64
1, 27170, Note_off_c, 0, 76, 52
1, 27195, Note_off_c, 0, 73, 63
1, 27217, Note_on_c, 0, 53, 59
1, 27292, Note_on_c, 0, 63, 75
1, 27429, Note_on_c, 0, 45, 39
1, 27512, Note_on_c, 0, 75, 75
1, 27526, Note_on_c, 0, 72, 59
1, 27648, Note_off_c, 0, 53, 44
1, 27739, Note_off_c, 0, 45, 42
1, 27742, Note_off_c, 0, 63, 53
1, 27753, Note_on_c, 0, 46, 51
1, 27772, Note_off_c, 0, 75, 62
1, 27781, Note_off_c, 0, 72, 60
1, 27805, Control_c, 0, 67, 8
1, 27819, Control_c, 0, 67, 8
1, 27879, Control_c, 0, 67, 9
1, 27881, Note_on_c, 0, 75, 66
1, 27889, Note_on_c, 0, 72, 51
1, 27894, Control_c, 0, 67, 9
1, 27908, Control_c, 0, 67, 10
1, 27923, Control_c, 0, 64, 88
1, 27938, Control_c, 0, 64, 69
1, 27952, Control_c, 0, 64, 0
1, 27952, Control_c, 0, 67, 10
1, 28026, Control_c, 0, 67, 10
1, 28056, Control_c, 0, 67, 9
1, 28071, Control_c, 0, 64, 68
1, 28085, Control_c, 0, 64, 85
1, 28085, Control_c, 0, 67, 9
1, 28100, Control_c, 0, 64, 127
1, 28100, Control_c, 0, 67, 8
1, 28130, Control_c, 0, 67, 8
1, 28145, Control_c, 0, 67, 0
1, 28148, Note_off_c, 0, 46, 61
1, 28171, Note_on_c, 0, 54, 55
1, 28182, Note_on_c, 0, 63, 49
1, 28256, Note_off_c, 0, 63, 58
1, 28264, Note_off_c, 0, 75, 55
1, 28360, Note_on_c, 0, 66, 71
1, 28434, Poly_aftertouch_c, 0, 56, 127
1, 28442, Note_on_c, 0, 70, 55
1, 28448, Note_on_c, 0, 74, 59
1, 28498, Poly_aftertouch_c, 0, 56, 0
1, 28529, Note_off_c, 0, 54, 47
1, 28574, Note_off_c, 0, 66, 63
1, 28624, Note_on_c, 0, 54, 56
1, 28631, Note_on_c, 0, 62, 49
1, 28752, Note_off_c, 0, 54, 62
1, 28760, Note_off_c, 0, 70, 61
1, 28799, Note_off_c, 0, 74, 54
1, 28811, Note_on_c, 0, 45, 55
1, 28850, Control_c, 0, 64, 96
1, 28857, Note_on_c, 0, 66, 69
1, 28864, Control_c, 0, 64, 70
1, 28879, Control_c, 0, 64, 0
1, 28899, Note_off_c, 0, 62, 61
1, 28915, Note_off_c, 0, 72, 49
1, 28938, Control_c, 0, 64, 68
1, 28953, Control_c, 0, 64, 89
1, 28968, Control_c, 0, 64, 127
1, 29011, Note_off_c, 0, 45, 37
1, 29045, Note_on_c, 0, 53, 52
1, 29071, Note_off_c, 0, 66, 61
1, 29075, Note_on_c, 0, 63, 60
1, 29089, Note_off_c, 0, 53, 58
1, 29117, Note_off_c, 0, 63, 59
1, 29197, Note_on_c, 0, 65, 70
1, 29205, Note_on_c, 0, 75, 71
1, 29208, Note_on_c, 0, 72, 69
1, 29241, Note_off_c, 0, 65, 56
1, 29349, Note_on_c, 0, 63, 73
1, 29390, Poly_aftertouch_c, 0, 53, 127
1, 29396, Note_off_c, 0, 72, 61
1, 29399, Note_off_c, 0, 75, 60
1, 29425, Poly_aftertouch_c, 0, 53, 0
1, 29462, Note_on_c, 0, 46, 75
1, 29515, Note_on_c, 0, 75, 76
1, 29516, Note_on_c, 0, 71, 72
1, 29525, Control_c, 0, 64, 90
1, 29539, Control_c, 0, 64, 67
1, 29554, Note_off_c, 0, 63, 57
1, 29554, Control_c, 0, 64, 0
1, 29584, Control_c, 0, 64, 50
1, 29599, Control_c, 0, 64, 73
1, 29614, Control_c, 0, 64, 101
1, 29629, Control_c, 0, 64, 127
1, 29683, Note_on_c, 0, 63, 62
1, 29686, Note_off_c, 0, 46, 38
1, 29706, Note_on_c, 0, 55, 47
1, 29713, Note_off_c, 0, 63, 65
1, 29728, Note_off_c, 0, 75, 59
1, 29742, Note_off_c, 0, 55, 63
1, 29820, Note_on_c, 0, 66, 76
1, 29832, Note_on_c, 0, 74, 73
1, 29833, Note_off_c, 0, 71, 58
1, 29834, Note_on_c, 0, 70, 64
1, 29868, Note_off_c, 0, 66, 61
1, 29944, Note_on_c, 0, 54, 72
1, 29947, Note_off_c, 0, 70, 59
1, 29971, Note_on_c, 0, 62, 62
1, 30037, Note_off_c, 0, 54, 64
1, 30079, Note_on_c, 0, 44, 76
1, 30082, Control_c, 0, 64, 114
1, 30092, Note_on_c, 0, 66, 81
1, 30097, Control_c, 0, 64, 84
1, 30099, Note_off_c, 0, 62, 59
1, 30111, Control_c, 0, 64, 64
1, 30119, Note_off_c, 0, 74, 54
1, 30126, Control_c, 0, 64, 46
1, 30141, Control_c, 0, 64, 63
1, 30155, Control_c, 0, 64, 74
1, 30166, Note_off_c, 0, 44, 63
1, 30170, Control_c, 0, 64, 94
1, 30185, Control_c, 0, 64, 127
1, 30214, Note_on_c, 0, 53, 62
1, 30216, Note_on_c, 0, 62, 70
1, 30243, Note_off_c, 0, 62, 65
1, 30250, Note_off_c, 0, 66, 59
1, 30266, Note_off_c, 0, 53, 62
1, 30329, Note_on_c, 0, 65, 87
1, 30333, Note_on_c, 0, 71, 80
1, 30338, Note_on_c, 0, 74, 87
1, 30377, Note_off_c, 0, 65, 60
1, 30451, Note_on_c, 0, 53, 74
1, 30470, Note_on_c, 0, 62, 75
1, 30505, Note_off_c, 0, 71, 60
1, 30511, Note_off_c, 0, 74, 50
1, 30597, Note_on_c, 0, 45, 71
1, 30615, Control_c, 0, 64, 99
1, 30631, Note_off_c, 0, 53, 59
1, 30636, Control_c, 0, 64, 76
1, 30651, Note_on_c, 0, 74, 79
1, 30651, Control_c, 0, 64, 57
1, 30655, Note_on_c, 0, 70, 74
1, 30666, Control_c, 0, 64, 0
1, 30681, Control_c, 0, 64, 24
1, 30693, Note_off_c, 0, 62, 52
1, 30696, Control_c, 0, 64, 71
1, 30711, Control_c, 0, 64, 92
1, 30726, Control_c, 0, 64, 127
1, 30737, Note_off_c, 0, 45, 61
1, 30784, Note_on_c, 0, 53, 59
1, 30790, Note_off_c, 0, 74, 58
1, 30805, Note_on_c, 0, 62, 68
1, 30830, Note_off_c, 0, 62, 67
1, 30838, Note_off_c, 0, 53, 63
1, 30843, Note_off_c, 0, 70, 63
1, 30908, Note_on_c, 0, 65, 81
1, 30918, Note_on_c, 0, 73, 85
1, 30922, Note_on_c, 0, 69, 71
1, 30952, Note_off_c, 0, 65, 63
1, 31021, Note_on_c, 0, 53, 74
1, 31034, Note_on_c, 0, 61, 73
1, 31052, Note_off_c, 0, 53, 68
1, 31069, Note_off_c, 0, 61, 61
1, 31141, Control_c, 0, 64, 110
1, 31150, Note_on_c, 0, 44, 76
1, 31156, Control_c, 0, 64, 74
1, 31160, Note_off_c, 0, 69, 38
1, 31167, Note_on_c, 0, 65, 83
1, 31171, Control_c, 0, 64, 0
1, 31178, Note_off_c, 0, 73, 55
1, 31215, Control_c, 0, 64, 53
1, 31230, Control_c, 0, 64, 69
1, 31233, Note_off_c, 0, 44, 64
1, 31245, Control_c, 0, 64, 92
1, 31258, Control_c, 0, 64, 127
1, 31294, Note_off_c, 0, 65, 62
1, 31295, Note_on_c, 0, 62, 70
1, 31320, Note_off_c, 0, 62, 64
1, 31333, Note_on_c, 0, 52, 60
1, 31364, Note_off_c, 0, 52, 62
1, 31429, Note_on_c, 0, 64, 75
1, 31433, Note_on_c, 0, 74, 65
1, 31437, Note_on_c, 0, 76, 58
1, 31447, Note_on_c, 0, 70, 28
1, 31466, Note_off_c, 0, 76, 49
1, 31476, Note_on_c, 0, 71, 30
1, 31480, Note_off_c, 0, 64, 62
1, 31517, Note_off_c, 0, 71, 49
1, 31541, Note_off_c, 0, 70, 39
1, 31546, Note_on_c, 0, 52, 68
1, 31546, Note_on_c, 0, 62, 61
1, 31547, Note_off_c, 0, 74, 39
1, 31667, Control_c, 0, 64, 108
1, 31678, Note_off_c, 0, 52, 54
1, 31681, Control_c, 0, 64, 79
1, 31683, Note_on_c, 0, 45, 67
1, 31696, Control_c, 0, 64, 54
1, 31697, Note_on_c, 0, 74, 68
1, 31707, Note_on_c, 0, 70, 64
1, 31707, Note_off_c, 0, 62, 36
1, 31711, Control_c, 0, 64, 0
1, 31761, Note_off_c, 0, 45, 62
1, 31770, Control_c, 0, 64, 63
1, 31785, Control_c, 0, 64, 74
1, 31799, Control_c, 0, 64, 94
1, 31814, Control_c, 0, 64, 127
1, 31827, Note_off_c, 0, 74, 57
1, 31835, Note_on_c, 0, 62, 63
1, 31836, Note_on_c, 0, 52, 52
1, 31863, Note_off_c, 0, 62, 64
1, 31873, Note_off_c, 0, 70, 64
1, 31882, Note_off_c, 0, 52, 63
1, 31958, Note_on_c, 0, 64, 68
1, 31978, Note_on_c, 0, 73, 71
1, 31993, Note_on_c, 0, 69, 53
1, 32005, Note_off_c, 0, 64, 60
1, 32103, Note_on_c, 0, 52, 51
1, 32116, Note_off_c, 0, 69, 39
1, 32132, Note_on_c, 0, 61, 58
1, 32135, Note_off_c, 0, 52, 61
1, 32187, Note_off_c, 0, 61, 56
1, 32252, Control_c, 0, 64, 110
1, 32267, Control_c, 0, 64, 87
1, 32277, Note_on_c, 0, 42, 50
1, 32282, Control_c, 0, 64, 70
1, 32297, Control_c, 0, 64, 0
1, 32316, Note_on_c, 0, 64, 61
1, 32355, Note_off_c, 0, 73, 53
1, 32356, Control_c, 0, 64, 27
1, 32371, Control_c, 0, 64, 64
1, 32386, Control_c, 0, 64, 74
1, 32397, Note_off_c, 0, 42, 60
1, 32401, Control_c, 0, 64, 86
1, 32416, Control_c, 0, 64, 102
1, 32431, Control_c, 0, 64, 127
1, 32463, Note_off_c, 0, 64, 55
1, 32479, Note_on_c, 0, 61, 47
1, 32507, Note_off_c, 0, 61, 58
1, 32553, Note_on_c, 0, 51, 43
1, 32629, Note_off_c, 0, 51, 57
1, 32645, Note_on_c, 0, 69, 54
1, 32693, Note_on_c, 0, 63, 57
1, 32763, Note_off_c, 0, 63, 56
1, 32801, Note_off_c, 0, 69, 37
1, 32801, Control_c, 0, 67, 8
1, 32816, Control_c, 0, 67, 12
1, 32830, Control_c, 0, 67, 17
1, 32845, Control_c, 0, 67, 22
1, 32851, Note_on_c, 0, 61, 47
1, 32860, Control_c, 0, 67, 27
1, 32882, Control_c, 0, 67, 32
1, 32897, Control_c, 0, 67, 37
1, 32912, Control_c, 0, 67, 43
1, 32923, Note_on_c, 0, 51, 39
1, 32927, Control_c, 0, 67, 48
1, 32942, Control_c, 0, 67, 52
1, 32956, Control_c, 0, 67, 56
1, 32971, Control_c, 0, 67, 57
1, 32986, Control_c, 0, 67, 59
1, 33001, Control_c, 0, 67, 61
1, 33016, Control_c, 0, 67, 63
1, 33024, Note_off_c, 0, 61, 38
1, 33030, Control_c, 0, 67, 63
1, 33036, Note_on_c, 0, 73, 55
1, 33045, Control_c, 0, 67, 64
1, 33060, Control_c, 0, 67, 64
1, 33075, Control_c, 0, 67, 65
1, 33084, Note_off_c, 0, 51, 37
1, 33090, Control_c, 0, 67, 66
1, 33105, Control_c, 0, 67, 68
1, 33120, Control_c, 0, 67, 69
1, 33134, Control_c, 0, 67, 69
1, 33150, Control_c, 0, 67, 70
1, 33165, Control_c, 0, 67, 70
1, 33179, Control_c, 0, 67, 71
1, 33194, Control_c, 0, 67, 71
1, 33209, Control_c, 0, 67, 72
1, 33224, Control_c, 0, 67, 72
1, 33239, Control_c, 0, 67, 73
1, 33254, Control_c, 0, 67, 73
1, 33269, Control_c, 0, 64, 105
1, 33269, Control_c, 0, 67, 74
1, 33283, Control_c, 0, 64, 91
1, 33283, Control_c, 0, 67, 74
1, 33294, Note_on_c, 0, 39, 32
1, 33298, Control_c, 0, 64, 77
1, 33298, Control_c, 0, 67, 76
1, 33313, Control_c, 0, 64, 63
1, 33313, Control_c, 0, 67, 77
1, 33322, Note_on_c, 0, 69, 46
1, 33328, Control_c, 0, 64, 0
1, 33328, Control_c, 0, 67, 78
1, 33334, Note_off_c, 0, 73, 51
1, 33343, Control_c, 0, 67, 78
1, 33432, Control_c, 0, 64, 68
1, 33446, Control_c, 0, 64, 84
1, 33461, Control_c, 0, 64, 124
1, 33461, Control_c, 0, 67, 78
1, 33476, Control_c, 0, 64, 127
1, 33534, Control_c, 0, 67, 77
1, 33559, Note_off_c, 0, 39, 38
1, 33593, Control_c, 0, 67, 77
1, 33597, Note_off_c, 0, 69, 35
1, 33608, Control_c, 0, 67, 76
1, 33645, Control_c, 0, 67, 75
1, 33660, Control_c, 0, 67, 73
1, 33675, Control_c, 0, 67, 72
1, 33690, Control_c, 0, 67, 71
1, 33704, Control_c, 0, 67, 69
1, 33713, Note_on_c, 0, 66, 40
1, 33719, Control_c, 0, 67, 68
1, 33734, Control_c, 0, 67, 66
1, 33749, Control_c, 0, 67, 66
1, 33764, Control_c, 0, 67, 64
1, 33778, Control_c, 0, 67, 61
1, 33793, Control_c, 0, 67, 55
1, 33797, Note_off_c, 0, 66, 49
1, 33808, Control_c, 0, 67, 46
1, 33823, Control_c, 0, 67, 38
1, 33827, Note_on_c, 0, 57, 43
1, 33838, Note_on_c, 0, 61, 54
1, 33838, Control_c, 0, 67, 30
1, 33847, Poly_aftertouch_c, 0, 49, 127
1, 33853, Control_c, 0, 67, 25
1, 33868, Control_c, 0, 67, 22
1, 33872, Note_off_c, 0, 57, 62
1, 33883, Control_c, 0, 67, 20
1, 33886, Note_off_c, 0, 61, 58
1, 33889, Poly_aftertouch_c, 0, 49, 0
1, 33897, Control_c, 0, 67, 20
1, 33927, Control_c, 0, 67, 23
1, 33942, Control_c, 0, 67, 27
1, 33957, Control_c, 0, 67, 30
1, 33972, Control_c, 0, 67, 33
1, 33987, Control_c, 0, 67, 37
1, 34002, Control_c, 0, 67, 46
1, 34017, Control_c, 0, 67, 55
1, 34032, Control_c, 0, 67, 64
1, 34047, Control_c, 0, 67, 71
1, 34061, Control_c, 0, 67, 75
1, 34076, Control_c, 0, 67, 78
1, 34091, Control_c, 0, 67, 79
1, 34092, Note_on_c, 0, 48, 48
1, 34094, Note_on_c, 0, 72, 57
1, 34106, Control_c, 0, 67, 80
1, 34120, Control_c, 0, 67, 82
1, 34135, Control_c, 0, 67, 82
1, 34148, Note_off_c, 0, 48, 59
1, 34150, Control_c, 0, 64, 87
1, 34165, Control_c, 0, 64, 65
1, 34165, Control_c, 0, 67, 83
1, 34180, Control_c, 0, 64, 0
1, 34184, Note_off_c, 0, 72, 56
1, 34190, Note_on_c, 0, 69, 54
1, 34194, Note_on_c, 0, 41, 38
1, 34224, Control_c, 0, 67, 82
1, 34239, Control_c, 0, 64, 65
1, 34239, Control_c, 0, 67, 81
1, 34254, Control_c, 0, 64, 84
1, 34254, Control_c, 0, 67, 80
1, 34268, Control_c, 0, 64, 127
1, 34268, Control_c, 0, 67, 78
1, 34270, Note_off_c, 0, 41, 61
1, 34283, Control_c, 0, 67, 77
1, 34294, Note_off_c, 0, 69, 60
1, 34298, Control_c, 0, 67, 76
1, 34313, Control_c, 0, 67, 75
1, 34327, Control_c, 0, 67, 74
1, 34342, Control_c, 0, 67, 73
1, 34357, Control_c, 0, 67, 72
1, 34380, Control_c, 0, 67, 71
1, 34395, Control_c, 0, 67, 70
1, 34409, Control_c, 0, 67, 67
1, 34412, Note_on_c, 0, 49, 60
1, 34424, Note_on_c, 0, 65, 57
1, 34424, Control_c, 0, 67, 63
1, 34439, Control_c, 0, 67, 55
1, 34453, Control_c, 0, 67, 44
1, 34468, Control_c, 0, 67, 30
1, 34476, Note_off_c, 0, 65, 62
1, 34483, Control_c, 0, 67, 16
1, 34498, Control_c, 0, 67, 0
1, 34505, Note_on_c, 0, 57, 62
1, 34512, Note_on_c, 0, 61, 58
1, 34533, Note_off_c, 0, 57, 63
1, 34540, Note_off_c, 0, 49, 60
1, 34543, Note_off_c, 0, 61, 64
1, 34668, Note_on_c, 0, 48, 59
1, 34676, Control_c, 0, 67, 11
1, 34690, Control_c, 0, 67, 15
1, 34691, Note_on_c, 0, 72, 76
1, 34705, Control_c, 0, 67, 20
1, 34720, Control_c, 0, 64, 103
1, 34720, Control_c, 0, 67, 25
1, 34735, Control_c, 0, 64, 79
1, 34735, Control_c, 0, 67, 29
1, 34750, Control_c, 0, 64, 61
1, 34750, Control_c, 0, 67, 31
1, 34765, Note_on_c, 0, 42, 65
1, 34765, Control_c, 0, 64, 0
1, 34777, Note_on_c, 0, 68, 71
1, 34781, Note_off_c, 0, 48, 53
1, 34801, Note_off_c, 0, 72, 61
1, 34810, Control_c, 0, 64, 65
1, 34825, Control_c, 0, 64, 76
1, 34825, Control_c, 0, 67, 30
1, 34837, Note_off_c, 0, 42, 63
1, 34839, Control_c, 0, 64, 93
1, 34839, Control_c, 0, 67, 30
1, 34854, Control_c, 0, 64, 127
1, 34854, Control_c, 0, 67, 29
1, 34869, Control_c, 0, 67, 29
1, 34884, Control_c, 0, 67, 28
1, 34899, Control_c, 0, 67, 28
1, 34914, Control_c, 0, 67, 27
1, 34929, Control_c, 0, 67, 27
1, 34943, Control_c, 0, 67, 26
1, 34956, Note_off_c, 0, 68, 57
1, 34958, Note_on_c, 0, 49, 65
1, 34958, Control_c, 0, 67, 25
1, 34963, Note_on_c, 0, 64, 64
1, 34973, Control_c, 0, 67, 25
1, 35003, Control_c, 0, 67, 24
1, 35017, Control_c, 0, 67, 23
1, 35042, Note_on_c, 0, 58, 68
1, 35058, Note_on_c, 0, 61, 62
1, 35062, Control_c, 0, 67, 23
1, 35073, Note_off_c, 0, 58, 64
1, 35089, Note_off_c, 0, 61, 63
1, 35091, Control_c, 0, 67, 23
1, 35106, Note_off_c, 0, 49, 61
1, 35106, Control_c, 0, 67, 24
1, 35129, Control_c, 0, 67, 26
1, 35144, Control_c, 0, 67, 27
1, 35158, Control_c, 0, 67, 28
1, 35173, Control_c, 0, 67, 28
1, 35188, Control_c, 0, 67, 29
1, 35197, Note_off_c, 0, 64, 42
1, 35203, Control_c, 0, 67, 30
1, 35218, Control_c, 0, 67, 31
1, 35232, Control_c, 0, 67, 32
1, 35245, Note_on_c, 0, 48, 53
1, 35247, Control_c, 0, 67, 33
1, 35258, Note_on_c, 0, 72, 68
1, 35262, Control_c, 0, 64, 111
1, 35262, Control_c, 0, 67, 34
1, 35276, Control_c, 0, 64, 95
1, 35276, Control_c, 0, 67, 38
1, 35291, Control_c, 0, 64, 78
1, 35291, Control_c, 0, 67, 42
1, 35306, Control_c, 0, 64, 63
1, 35306, Control_c, 0, 67, 46
1, 35319, Note_off_c, 0, 48, 58
1, 35321, Control_c, 0, 64, 0
1, 35321, Control_c, 0, 67, 49
1, 35336, Control_c, 0, 67, 53
1, 35350, Control_c, 0, 67, 56
1, 35355, Note_on_c, 0, 69, 65
1, 35365, Control_c, 0, 67, 60
1, 35370, Note_on_c, 0, 41, 46
1, 35373, Note_off_c, 0, 72, 53
1, 35380, Control_c, 0, 67, 65
1, 35395, Control_c, 0, 64, 45
1, 35395, Control_c, 0, 67, 69
1, 35410, Control_c, 0, 64, 65
1, 35410, Control_c, 0, 67, 72
1, 35424, Control_c, 0, 64, 71
1, 35424, Control_c, 0, 67, 74
1, 35439, Control_c, 0, 64, 79
1, 35439, Control_c, 0, 67, 75
1, 35454, Note_off_c, 0, 41, 57
1, 35454, Control_c, 0, 64, 87
1, 35468, Control_c, 0, 64, 94
1, 35476, Note_off_c, 0, 69, 58
1, 35483, Control_c, 0, 64, 101
1, 35498, Control_c, 0, 64, 106
1, 35513, Control_c, 0, 64, 110
1, 35528, Control_c, 0, 64, 114
1, 35544, Control_c, 0, 64, 118
1, 35559, Control_c, 0, 64, 120
1, 35583, Note_on_c, 0, 65, 52
1, 35591, Note_on_c, 0, 49, 54
1, 35603, Control_c, 0, 64, 121
1, 35655, Note_off_c, 0, 65, 59
1, 35662, Control_c, 0, 67, 75
1, 35677, Control_c, 0, 67, 76
1, 35692, Control_c, 0, 67, 76
1, 35698, Note_off_c, 0, 49, 0
1, 35698, Note_on_c, 0, 57, 52
1, 35704, Note_on_c, 0, 61, 46
1, 35707, Control_c, 0, 67, 77
1, 35722, Control_c, 0, 67, 77
1, 35724, Note_off_c, 0, 57, 61
1, 35737, Control_c, 0, 67, 79
1, 35743, Poly_aftertouch_c, 0, 49, 0
1, 35746, Note_off_c, 0, 61, 62
1, 35752, Control_c, 0, 67, 82
1, 35767, Control_c, 0, 67, 85
1, 35781, Control_c, 0, 67, 88
1, 35796, Control_c, 0, 67, 94
1, 35811, Control_c, 0, 67, 98
1, 35826, Control_c, 0, 64, 120
1, 35826, Control_c, 0, 67, 102
1, 35841, Control_c, 0, 67, 104
1, 35856, Control_c, 0, 64, 119
1, 35856, Control_c, 0, 67, 105
1, 35878, Control_c, 0, 64, 118
1, 35878, Control_c, 0, 67, 106
1, 35893, Control_c, 0, 64, 117
1, 35893, Control_c, 0, 67, 108
1, 35907, Control_c, 0, 67, 109
1, 35922, Control_c, 0, 64, 116
1, 35922, Control_c, 0, 67, 110
1, 35937, Control_c, 0, 64, 116
1, 35941, Note_on_c, 0, 77, 63
1, 35946, Note_on_c, 0, 48, 45
1, 35952, Control_c, 0, 64, 115
1, 35952, Control_c, 0, 67, 110
1, 35967, Control_c, 0, 64, 115
1, 35967, Control_c, 0, 67, 111
1, 35981, Control_c, 0, 64, 114
1, 35981, Control_c, 0, 67, 112
1, 35996, Control_c, 0, 64, 113
1, 35996, Control_c, 0, 67, 113
1, 36010, Note_off_c, 0, 48, 48
1, 36011, Control_c, 0, 64, 110
1, 36011, Control_c, 0, 67, 114
1, 36026, Control_c, 0, 64, 108
1, 36026, Control_c, 0, 67, 114
1, 36041, Control_c, 0, 64, 105
1, 36041, Control_c, 0, 67, 115
1, 36056, Control_c, 0, 64, 102
1, 36056, Control_c, 0, 67, 115
1, 36071, Control_c, 0, 64, 100
1, 36086, Control_c, 0, 64, 97
1, 36086, Control_c, 0, 67, 116
1, 36100, Control_c, 0, 64, 92
1, 36115, Control_c, 0, 64, 86
1, 36115, Control_c, 0, 67, 117
1, 36130, Control_c, 0, 64, 76
1, 36130, Control_c, 0, 67, 117
1, 36145, Control_c, 0, 64, 65
1, 36145, Control_c, 0, 67, 118
1, 36160, Control_c, 0, 64, 0
1, 36160, Control_c, 0, 67, 118
1, 36169, Note_on_c, 0, 39, 37
1, 36173, Note_on_c, 0, 73, 52
1, 36173, Note_off_c, 0, 77, 52
1, 36263, Control_c, 0, 64, 64
1, 36278, Control_c, 0, 64, 73
1, 36278, Control_c, 0, 67, 118
1, 36292, Control_c, 0, 64, 84
1, 36292, Control_c, 0, 67, 117
1, 36307, Control_c, 0, 64, 100
1, 36307, Control_c, 0, 67, 116
1, 36322, Control_c, 0, 64, 127
1, 36322, Control_c, 0, 67, 115
1, 36338, Control_c, 0, 67, 115
1, 36344, Note_off_c, 0, 39, 41
1, 36345, Note_off_c, 0, 73, 60
1, 36353, Control_c, 0, 67, 114
1, 36368, Control_c, 0, 67, 114
1, 36383, Control_c, 0, 67, 113
1, 36397, Control_c, 0, 67, 112
1, 36412, Control_c, 0, 67, 111
1, 36427, Control_c, 0, 67, 111
1, 36442, Control_c, 0, 67, 110
1, 36457, Control_c, 0, 67, 110
1, 36471, Control_c, 0, 67, 109
1, 36486, Control_c, 0, 67, 108
1, 36501, Control_c, 0, 67, 108
1, 36509, Note_on_c, 0, 66, 45
1, 36515, Note_on_c, 0, 49, 48
1, 36515, Control_c, 0, 67, 107
1, 36546, Note_off_c, 0, 66, 58
1, 36590, Control_c, 0, 67, 108
1, 36601, Note_on_c, 0, 57, 45
1, 36604, Control_c, 0, 67, 110
1, 36627, Control_c, 0, 67, 111
1, 36631, Note_on_c, 0, 61, 45
1, 36642, Control_c, 0, 67, 111
1, 36644, Note_off_c, 0, 57, 53
1, 36656, Control_c, 0, 67, 112
1, 36662, Note_off_c, 0, 61, 63
1, 36667, Note_off_c, 0, 49, 56
1, 36671, Control_c, 0, 67, 113
1, 36686, Control_c, 0, 67, 114
1, 36775, Control_c, 0, 67, 113
1, 36790, Control_c, 0, 64, 111
1, 36790, Control_c, 0, 67, 113
1, 36804, Note_on_c, 0, 72, 64
1, 36804, Control_c, 0, 64, 100
1, 36804, Control_c, 0, 67, 112
1, 36813, Note_on_c, 0, 48, 54
1, 36819, Control_c, 0, 64, 87
1, 36834, Control_c, 0, 64, 75
1, 36834, Control_c, 0, 67, 111
1, 36849, Control_c, 0, 64, 63
1, 36864, Control_c, 0, 64, 34
1, 36864, Control_c, 0, 67, 111
1, 36872, Note_off_c, 0, 48, 61
1, 36878, Control_c, 0, 64, 58
1, 36878, Control_c, 0, 67, 110
1, 36885, Note_on_c, 0, 69, 64
1, 36893, Note_off_c, 0, 72, 58
1, 36893, Control_c, 0, 64, 68
1, 36893, Control_c, 0, 67, 110
1, 36902, Note_on_c, 0, 41, 50
1, 36908, Control_c, 0, 64, 76
1, 36908, Control_c, 0, 67, 109
1, 36923, Control_c, 0, 64, 86
1, 36923, Control_c, 0, 67, 108
1, 36938, Control_c, 0, 64, 98
1, 36938, Control_c, 0, 67, 107
1, 36953, Control_c, 0, 64, 127
1, 36953, Control_c, 0, 67, 106
1, 36955, Note_off_c, 0, 41, 62
1, 36959, Note_off_c, 0, 69, 58
1, 36968, Control_c, 0, 67, 102
1, 36983, Control_c, 0, 67, 93
1, 36997, Control_c, 0, 67, 72
1, 37012, Control_c, 0, 67, 43
1, 37027, Control_c, 0, 67, 14
1, 37041, Control_c, 0, 67, 0
1, 37070, Note_on_c, 0, 65, 65
1, 37076, Note_on_c, 0, 49, 67
1, 37114, Note_off_c, 0, 65, 60
1, 37148, Note_on_c, 0, 57, 67
1, 37159, Note_on_c, 0, 61, 69
1, 37176, Note_off_c, 0, 57, 64
1, 37176, Control_c, 0, 67, 8
1, 37190, Note_off_c, 0, 61, 65
1, 37191, Control_c, 0, 67, 15
1, 37194, Note_off_c, 0, 49, 61
1, 37206, Control_c, 0, 67, 24
1, 37220, Control_c, 0, 67, 30
1, 37235, Control_c, 0, 67, 31
1, 37279, Control_c, 0, 67, 32
1, 37300, Note_on_c, 0, 48, 58
1, 37309, Control_c, 0, 67, 32
1, 37337, Note_on_c, 0, 72, 75
1, 37338, Control_c, 0, 64, 90
1, 37353, Control_c, 0, 64, 72
1, 37376, Control_c, 0, 64, 0
1, 37406, Control_c, 0, 67, 32
1, 37406, Note_on_c, 0, 42, 66
1, 37428, Note_on_c, 0, 68, 71
1, 37435, Control_c, 0, 64, 51
1, 37435, Control_c, 0, 67, 31
1, 37442, Note_off_c, 0, 72, 59
1, 37445, Note_off_c, 0, 48, 47
1, 37450, Control_c, 0, 64, 68
1, 37450, Control_c, 0, 67, 30
1, 37465, Control_c, 0, 64, 78
1, 37465, Control_c, 0, 67, 29
1, 37475, Note_off_c, 0, 42, 62
1, 37479, Control_c, 0, 64, 90
1, 37479, Control_c, 0, 67, 29
1, 37494, Control_c, 0, 64, 101
1, 37494, Control_c, 0, 67, 28
1, 37509, Control_c, 0, 64, 105
1, 37509, Control_c, 0, 67, 27
1, 37524, Control_c, 0, 64, 107
1, 37524, Control_c, 0, 67, 27
1, 37539, Control_c, 0, 64, 109
1, 37539, Control_c, 0, 67, 26
1, 37553, Control_c, 0, 64, 110
1, 37553, Control_c, 0, 67, 25
1, 37568, Control_c, 0, 64, 111
1, 37568, Control_c, 0, 67, 25
1, 37574, Note_off_c, 0, 68, 44
1, 37583, Control_c, 0, 67, 24
1, 37598, Control_c, 0, 64, 112
1, 37610, Note_on_c, 0, 49, 58
1, 37613, Note_on_c, 0, 64, 60
1, 37613, Control_c, 0, 64, 113
1, 37613, Control_c, 0, 67, 24
1, 37627, Control_c, 0, 64, 114
1, 37642, Control_c, 0, 64, 114
1, 37687, Note_on_c, 0, 58, 67
1, 37701, Control_c, 0, 67, 23
1, 37704, Note_on_c, 0, 61, 61
1, 37729, Note_off_c, 0, 58, 60
1, 37735, Note_off_c, 0, 61, 65
1, 37735, Note_off_c, 0, 64, 37
1, 37738, Note_off_c, 0, 49, 56
1, 37756, Poly_aftertouch_c, 0, 51, 0
1, 37805, Control_c, 0, 64, 114
1, 37820, Control_c, 0, 64, 113
1, 37820, Control_c, 0, 67, 24
1, 37835, Control_c, 0, 64, 113
1, 37835, Control_c, 0, 67, 24
1, 37850, Control_c, 0, 67, 25
1, 37864, Control_c, 0, 67, 25
1, 37879, Control_c, 0, 64, 112
1, 37879, Control_c, 0, 67, 26
1, 37884, Note_on_c, 0, 48, 52
1, 37894, Control_c, 0, 64, 105
1, 37894, Control_c, 0, 67, 27
1, 37907, Note_on_c, 0, 72, 65
1, 37909, Control_c, 0, 64, 92
1, 37909, Control_c, 0, 67, 27
1, 37924, Control_c, 0, 64, 80
1, 37940, Control_c, 0, 64, 66
1, 37940, Control_c, 0, 67, 28
1, 37955, Control_c, 0, 64, 0
1, 37958, Note_off_c, 0, 48, 64
1, 37969, Control_c, 0, 67, 27
1, 37997, Note_off_c, 0, 72, 56
1, 37998, Note_on_c, 0, 69, 59
1, 37998, Control_c, 0, 67, 27
1, 38011, Note_on_c, 0, 41, 39
1, 38013, Control_c, 0, 67, 26
1, 38028, Control_c, 0, 67, 26
1, 38042, Control_c, 0, 64, 33
1, 38042, Control_c, 0, 67, 25
1, 38057, Control_c, 0, 64, 69
1, 38072, Control_c, 0, 64, 80
1, 38086, Control_c, 0, 64, 103
1, 38086, Control_c, 0, 67, 25
1, 38091, Note_off_c, 0, 69, 58
1, 38101, Control_c, 0, 64, 127
1, 38101, Control_c, 0, 67, 24
1, 38124, Control_c, 0, 67, 24
1, 38131, Note_off_c, 0, 41, 36
1, 38154, Control_c, 0, 67, 23
1, 38183, Control_c, 0, 67, 23
1, 38228, Control_c, 0, 67, 22
1, 38238, Note_on_c, 0, 49, 47
1, 38238, Note_on_c, 0, 65, 50
1, 38243, Control_c, 0, 67, 22
1, 38272, Control_c, 0, 67, 21
1, 38279, Note_off_c, 0, 65, 62
1, 38301, Control_c, 0, 67, 21
1, 38316, Control_c, 0, 67, 20
1, 38320, Note_off_c, 0, 49, 0
1, 38331, Control_c, 0, 67, 18
1, 38342, Note_on_c, 0, 57, 51
1, 38346, Note_on_c, 0, 61, 47
1, 38346, Control_c, 0, 67, 15
1, 38357, Poly_aftertouch_c, 0, 49, 127
1, 38361, Control_c, 0, 67, 13
1, 38370, Poly_aftertouch_c, 0, 49, 0
1, 38375, Note_off_c, 0, 57, 62
1, 38375, Control_c, 0, 67, 11
1, 38377, Note_off_c, 0, 61, 63
1, 38390, Control_c, 0, 67, 10
1, 38449, Control_c, 0, 67, 10
1, 38464, Control_c, 0, 67, 11
1, 38509, Control_c, 0, 67, 11
1, 38518, Note_on_c, 0, 70, 62
1, 38540, Note_on_c, 0, 48, 39
1, 38598, Control_c, 0, 64, 114
1, 38598, Control_c, 0, 67, 12
1, 38603, Note_off_c, 0, 48, 55
1, 38612, Control_c, 0, 64, 99
1, 38627, Control_c, 0, 64, 85
1, 38627, Control_c, 0, 67, 12
1, 38642, Control_c, 0, 64, 69
1, 38657, Control_c, 0, 64, 0
1, 38709, Note_on_c, 0, 39, 38
1, 38782, Note_on_c, 0, 73, 63
1, 38783, Note_off_c, 0, 70, 61
1, 38792, Control_c, 0, 64, 50
1, 38807, Control_c, 0, 64, 63
1, 38822, Control_c, 0, 64, 67
1, 38822, Control_c, 0, 67, 12
1, 38836, Control_c, 0, 64, 72
1, 38851, Control_c, 0, 64, 80
1, 38851, Control_c, 0, 67, 11
1, 38873, Control_c, 0, 64, 90
1, 38888, Control_c, 0, 64, 103
1, 38888, Control_c, 0, 67, 11
1, 38903, Control_c, 0, 64, 127
1, 38917, Note_off_c, 0, 39, 39
1, 38917, Control_c, 0, 67, 10
1, 38932, Control_c, 0, 67, 9
1, 38947, Control_c, 0, 67, 8
1, 38962, Control_c, 0, 67, 0
1, 38974, Note_on_c, 0, 66, 40
1, 39039, Note_on_c, 0, 49, 50
1, 39055, Note_on_c, 0, 65, 45
1, 39090, Note_off_c, 0, 66, 25
1, 39101, Note_off_c, 0, 65, 60
1, 39152, Note_on_c, 0, 64, 45
1, 39155, Note_on_c, 0, 58, 43
1, 39162, Note_off_c, 0, 49, 60
1, 39180, Note_off_c, 0, 73, 43
1, 39198, Note_off_c, 0, 58, 62
1, 39230, Note_on_c, 0, 63, 54
1, 39275, Note_on_c, 0, 48, 58
1, 39317, Note_off_c, 0, 64, 38
1, 39317, Control_c, 0, 64, 116
1, 39330, Note_off_c, 0, 63, 58
1, 39332, Control_c, 0, 64, 89
1, 39344, Note_on_c, 0, 69, 62
1, 39347, Control_c, 0, 64, 74
1, 39356, Note_off_c, 0, 48, 58
1, 39362, Control_c, 0, 64, 63
1, 39377, Control_c, 0, 64, 47
1, 39385, Note_on_c, 0, 41, 49
1, 39391, Control_c, 0, 64, 56
1, 39406, Control_c, 0, 64, 66
1, 39421, Control_c, 0, 64, 77
1, 39436, Control_c, 0, 64, 90
1, 39451, Control_c, 0, 64, 109
1, 39466, Control_c, 0, 64, 127
1, 39474, Note_on_c, 0, 72, 65
1, 39492, Note_off_c, 0, 69, 59
1, 39513, Note_off_c, 0, 72, 64
1, 39575, Note_off_c, 0, 41, 35
1, 39598, Note_on_c, 0, 57, 53
1, 39628, Note_off_c, 0, 57, 61
1, 39637, Note_on_c, 0, 49, 55
1, 39674, Note_on_c, 0, 63, 59
1, 39701, Note_off_c, 0, 63, 65
1, 39724, Note_on_c, 0, 57, 50
1, 39762, Note_on_c, 0, 66, 57
1, 39788, Note_off_c, 0, 66, 65
1, 39808, Note_off_c, 0, 57, 55
1, 39813, Note_off_c, 0, 49, 56
1, 39818, Note_on_c, 0, 51, 58
1, 39842, Note_on_c, 0, 69, 65
1, 39923, Note_on_c, 0, 73, 77
1, 39931, Note_off_c, 0, 69, 57
1, 39947, Note_on_c, 0, 43, 59
1, 39948, Control_c, 0, 64, 96
1, 39963, Control_c, 0, 64, 71
1, 39978, Control_c, 0, 64, 0
1, 40015, Note_off_c, 0, 51, 52
1, 40022, Control_c, 0, 64, 23
1, 40029, Note_on_c, 0, 77, 79
1, 40034, Note_off_c, 0, 73, 63
1, 40037, Control_c, 0, 64, 68
1, 40052, Control_c, 0, 64, 84
1, 40053, Note_off_c, 0, 43, 64
1, 40066, Control_c, 0, 64, 127
1, 40124, Note_on_c, 0, 72, 69
1, 40154, Note_on_c, 0, 53, 70
1, 40200, Note_off_c, 0, 77, 34
1, 40214, Note_on_c, 0, 71, 70
1, 40242, Note_off_c, 0, 72, 42
1, 40253, Note_off_c, 0, 53, 63
1, 40259, Note_on_c, 0, 61, 71
1, 40283, Note_on_c, 0, 70, 76
1, 40304, Note_off_c, 0, 71, 61
1, 40306, Note_off_c, 0, 61, 61
1, 40350, Note_off_c, 0, 70, 62
1, 40357, Note_on_c, 0, 65, 77
1, 40361, Note_on_c, 0, 51, 75
1, 40439, Note_on_c, 0, 72, 71
1, 40445, Control_c, 0, 64, 82
1, 40460, Control_c, 0, 64, 58
1, 40463, Note_off_c, 0, 65, 61
1, 40474, Note_on_c, 0, 44, 76
1, 40475, Control_c, 0, 64, 0
1, 40504, Control_c, 0, 64, 63
1, 40510, Note_off_c, 0, 51, 58
1, 40519, Control_c, 0, 64, 85
1, 40532, Note_on_c, 0, 75, 87
1, 40534, Control_c, 0, 64, 127
1, 40536, Note_off_c, 0, 72, 65
1, 40574, Note_off_c, 0, 44, 61
1, 40591, Note_off_c, 0, 75, 64
1, 40632, Note_on_c, 0, 60, 64
1, 40662, Note_on_c, 0, 53, 66
1, 40664, Note_off_c, 0, 60, 63
1, 40705, Note_on_c, 0, 66, 69
1, 40770, Note_on_c, 0, 60, 68
1, 40772, Note_off_c, 0, 66, 63
1, 40778, Note_on_c, 0, 70, 73
1, 40803, Note_off_c, 0, 53, 63
1, 40819, Note_off_c, 0, 70, 65
1, 40828, Note_off_c, 0, 60, 61
1, 40875, Note_on_c, 0, 54, 75
1, 40879, Note_on_c, 0, 72, 74
1, 40948, Note_on_c, 0, 77, 77
1, 40968, Note_off_c, 0, 72, 64
1, 40978, Control_c, 0, 64, 111
1, 40993, Control_c, 0, 64, 74
1, 41000, Note_on_c, 0, 46, 76
1, 41007, Control_c, 0, 64, 0
1, 41028, Note_off_c, 0, 54, 51
1, 41052, Control_c, 0, 64, 67
1, 41064, Note_on_c, 0, 80, 91
1, 41067, Control_c, 0, 64, 104
1, 41072, Note_off_c, 0, 77, 65
1, 41082, Control_c, 0, 64, 127
1, 41102, Note_off_c, 0, 46, 60
1, 41169, Note_on_c, 0, 76, 78
1, 41189, Note_on_c, 0, 56, 72
1, 41210, Note_off_c, 0, 80, 55
1, 41255, Note_on_c, 0, 75, 76
1, 41281, Note_off_c, 0, 56, 63
1, 41293, Note_on_c, 0, 65, 71
1, 41304, Note_off_c, 0, 76, 56
1, 41321, Note_on_c, 0, 73, 81
1, 41324, Note_off_c, 0, 65, 56
1, 41382, Note_off_c, 0, 75, 56
1, 41389, Note_on_c, 0, 54, 77
1, 41407, Note_on_c, 0, 68, 81
1, 41431, Note_off_c, 0, 73, 60
1, 41475, Control_c, 0, 64, 95
1, 41490, Control_c, 0, 64, 73
1, 41494, Note_on_c, 0, 48, 71
1, 41499, Note_on_c, 0, 75, 80
1, 41501, Poly_aftertouch_c, 0, 67, 0
1, 41505, Control_c, 0, 64, 46
1, 41513, Note_off_c, 0, 54, 54
1, 41520, Control_c, 0, 64, 0
1, 41527, Note_off_c, 0, 68, 60
1, 41535, Control_c, 0, 64, 37
1, 41550, Control_c, 0, 64, 67
1, 41564, Control_c, 0, 64, 81
1, 41579, Control_c, 0, 64, 105
1, 41582, Note_on_c, 0, 78, 89
1, 41593, Note_off_c, 0, 48, 61
1, 41593, Note_off_c, 0, 75, 57
1, 41594, Control_c, 0, 64, 127
1, 41641, Note_off_c, 0, 78, 65
1, 41703, Note_on_c, 0, 63, 60
1, 41713, Note_on_c, 0, 56, 64
1, 41724, Note_off_c, 0, 63, 62
1, 41776, Note_on_c, 0, 70, 64
1, 41814, Note_off_c, 0, 70, 61
1, 41820, Note_on_c, 0, 63, 49
1, 41885, Note_on_c, 0, 72, 64
1, 41919, Note_off_c, 0, 72, 59
1, 41970, Note_on_c, 0, 75, 65
1, 41997, Note_off_c, 0, 63, 57
1, 42003, Note_off_c, 0, 56, 55
1, 42004, Note_off_c, 0, 75, 58
1, 42042, Note_on_c, 0, 58, 45
1, 42104, Note_on_c, 0, 78, 68
1, 42229, Note_on_c, 0, 50, 36
1, 42268, Control_c, 0, 64, 92
1, 42283, Control_c, 0, 64, 66
1, 42298, Control_c, 0, 64, 0
1, 42362, Note_on_c, 0, 82, 67
1, 42387, Control_c, 0, 64, 73
1, 42402, Control_c, 0, 64, 103
1, 42407, Note_off_c, 0, 58, 54
1, 42414, Note_off_c, 0, 50, 58
1, 42417, Control_c, 0, 64, 127
1, 42452, Note_off_c, 0, 78, 57
1, 42472, Note_off_c, 0, 82, 56
1, 42536, Note_on_c, 0, 50, 53
1, 42542, Note_on_c, 0, 58, 47
1, 42569, Note_off_c, 0, 50, 65
1, 42584, Note_off_c, 0, 58, 59
1, 42641, Note_on_c, 0, 78, 66
1, 42652, Note_on_c, 0, 66, 40
1, 42666, Note_off_c, 0, 78, 68
1, 42680, Note_off_c, 0, 66, 55
1, 42722, Note_on_c, 0, 58, 59
1, 42739, Note_on_c, 0, 68, 47
1, 42760, Note_off_c, 0, 58, 60
1, 42763, Note_off_c, 0, 68, 57
1, 42824, Note_on_c, 0, 56, 55
1, 42827, Note_on_c, 0, 68, 52
1, 42847, Note_on_c, 0, 58, 45
1, 42849, Note_off_c, 0, 68, 62
1, 42860, Note_off_c, 0, 56, 63
1, 42870, Note_off_c, 0, 58, 64
1, 42884, Note_on_c, 0, 78, 67
1, 42894, Note_on_c, 0, 66, 41
1, 42920, Note_off_c, 0, 66, 58
1, 42936, Note_off_c, 0, 78, 0
1, 42955, Note_on_c, 0, 78, 33
1, 42973, Control_c, 0, 64, 122
1, 42988, Control_c, 0, 64, 82
1, 43003, Control_c, 0, 64, 64
1, 43004, Note_on_c, 0, 46, 59
1, 43013, Note_on_c, 0, 82, 75
1, 43018, Note_on_c, 0, 56, 45
1, 43018, Control_c, 0, 64, 64
1, 43022, Note_on_c, 0, 70, 62
1, 43032, Control_c, 0, 64, 73
1, 43046, Note_off_c, 0, 56, 63
1, 43046, Note_off_c, 0, 78, 41
1, 43047, Control_c, 0, 64, 89
1, 43051, Note_off_c, 0, 46, 58
1, 43058, Note_off_c, 0, 70, 57
1, 43062, Control_c, 0, 64, 127
1, 43076, Note_off_c, 0, 82, 62
1, 43123, Note_on_c, 0, 56, 63
1, 43141, Note_on_c, 0, 46, 55
1, 43153, Note_off_c, 0, 56, 68
1, 43169, Note_off_c, 0, 46, 63
1, 43222, Note_on_c, 0, 77, 77
1, 43227, Note_on_c, 0, 65, 57
1, 43232, Note_on_c, 0, 70, 56
1, 43243, Note_off_c, 0, 77, 71
1, 43249, Note_off_c, 0, 65, 62
1, 43253, Note_off_c, 0, 70, 61
1, 43279, Note_on_c, 0, 58, 70
1, 43287, Note_on_c, 0, 68, 58
1, 43308, Note_off_c, 0, 68, 62
1, 43308, Note_off_c, 0, 58, 63
1, 43382, Note_on_c, 0, 68, 54
1, 43385, Note_on_c, 0, 56, 67
1, 43389, Note_on_c, 0, 58, 70
1, 43401, Note_off_c, 0, 68, 66
1, 43413, Note_off_c, 0, 56, 67
1, 43415, Note_off_c, 0, 58, 67
1, 43442, Note_on_c, 0, 77, 84
1, 43445, Note_on_c, 0, 65, 74
1, 43447, Note_on_c, 0, 70, 78
1, 43462, Note_off_c, 0, 65, 70
1, 43469, Note_off_c, 0, 70, 70
1, 43469, Control_c, 0, 64, 111
1, 43474, Note_off_c, 0, 77, 61
1, 43484, Control_c, 0, 64, 76
1, 43499, Control_c, 0, 64, 50
1, 43514, Control_c, 0, 64, 62
1, 43529, Control_c, 0, 64, 82
1, 43540, Note_on_c, 0, 49, 79
1, 43544, Note_on_c, 0, 42, 78
1, 43544, Control_c, 0, 64, 127
1, 43558, Note_on_c, 0, 82, 89
1, 43560, Note_on_c, 0, 70, 86
1, 43569, Note_off_c, 0, 49, 65
1, 43574, Note_off_c, 0, 42, 63
1, 43577, Note_off_c, 0, 82, 69
1, 43579, Note_off_c, 0, 70, 72
1, 43641, Note_on_c, 0, 42, 73
1, 43642, Note_on_c, 0, 49, 80
1, 43674, Note_off_c, 0, 42, 64
1, 43678, Note_off_c, 0, 49, 65
1, 43731, Note_on_c, 0, 64, 81
1, 43732, Note_on_c, 0, 76, 83
1, 43740, Note_on_c, 0, 70, 68
1, 43751, Note_off_c, 0, 64, 73
1, 43752, Note_off_c, 0, 76, 69
1, 43761, Note_off_c, 0, 70, 71
1, 43809, Note_on_c, 0, 61, 72
1, 43810, Note_on_c, 0, 58, 71
1, 43818, Note_on_c, 0, 68, 67
1, 43834, Note_off_c, 0, 61, 66
1, 43836, Note_off_c, 0, 58, 66
1, 43836, Note_off_c, 0, 68, 65
1, 43887, Note_on_c, 0, 58, 85
1, 43891, Note_on_c, 0, 68, 81
1, 43892, Note_off_c, 0, 68, 127
1, 43892, Note_on_c, 0, 61, 71
1, 43917, Note_off_c, 0, 61, 66
1, 43926, Note_off_c, 0, 58, 64
1, 43965, Note_on_c, 0, 75, 91
1, 43967, Note_on_c, 0, 63, 84
1, 43983, Note_off_c, 0, 63, 71
1, 43991, Note_off_c, 0, 75, 57
1, 44017, Control_c, 0, 64, 95
1, 44031, Control_c, 0, 64, 68
1, 44046, Control_c, 0, 64, 53
1, 44053, Note_on_c, 0, 51, 91
1, 44061, Control_c, 0, 64, 68
1, 44065, Note_on_c, 0, 43, 71
1, 44071, Note_on_c, 0, 70, 98
1, 44071, Note_on_c, 0, 82, 98
1, 44076, Control_c, 0, 64, 84
1, 44083, Note_off_c, 0, 51, 62
1, 44091, Control_c, 0, 64, 127
1, 44092, Note_off_c, 0, 70, 67
1, 44095, Note_off_c, 0, 43, 65
1, 44107, Note_off_c, 0, 82, 60
1, 44192, Note_on_c, 0, 51, 75
1, 44212, Note_on_c, 0, 43, 12
1, 44214, Note_off_c, 0, 51, 69
1, 44250, Note_on_c, 0, 62, 91
1, 44250, Note_off_c, 0, 43, 50
1, 44253, Note_on_c, 0, 74, 94
1, 44259, Note_on_c, 0, 70, 79
1, 44268, Note_off_c, 0, 62, 72
1, 44273, Note_off_c, 0, 74, 71
1, 44275, Note_off_c, 0, 70, 73
1, 44313, Poly_aftertouch_c, 0, 51, 127
1, 44315, Note_on_c, 0, 64, 84
1, 44318, Note_on_c, 0, 58, 79
1, 44322, Note_on_c, 0, 52, 66
1, 44336, Note_off_c, 0, 64, 73
1, 44341, Note_off_c, 0, 58, 69
1, 44353, Note_off_c, 0, 52, 63
1, 44356, Poly_aftertouch_c, 0, 51, 0
1, 44396, Note_on_c, 0, 64, 86
1, 44401, Note_on_c, 0, 58, 83
1, 44411, Note_off_c, 0, 64, 77
1, 44415, Note_on_c, 0, 52, 64
1, 44423, Note_off_c, 0, 58, 67
1, 44446, Note_off_c, 0, 52, 63
1, 44472, Note_on_c, 0, 61, 91
1, 44474, Note_on_c, 0, 73, 94
1, 44489, Note_off_c, 0, 61, 73
1, 44499, Control_c, 0, 64, 100
1, 44501, Note_off_c, 0, 73, 61
1, 44514, Control_c, 0, 64, 68
1, 44528, Control_c, 0, 64, 0
1, 44558, Note_on_c, 0, 44, 91
1, 44558, Note_on_c, 0, 53, 96
1, 44558, Control_c, 0, 64, 74
1, 44573, Control_c, 0, 64, 127
1, 44580, Note_off_c, 0, 53, 73
1, 44586, Note_on_c, 0, 70, 98
1, 44587, Note_on_c, 0, 82, 98
1, 44587, Note_off_c, 0, 44, 63
1, 44601, Note_off_c, 0, 70, 74
1, 44601, Note_off_c, 0, 82, 75
1, 44612, Note_on_c, 0, 46, 7
1, 44668, Note_on_c, 0, 44, 80
1, 44671, Note_on_c, 0, 53, 87
1, 44676, Note_off_c, 0, 46, 30
1, 44693, Note_off_c, 0, 53, 68
1, 44700, Note_off_c, 0, 44, 67
1, 44760, Note_on_c, 0, 73, 90
1, 44763, Note_on_c, 0, 61, 76
1, 44764, Note_off_c, 0, 61, 127
1, 44778, Note_on_c, 0, 69, 53
1, 44781, Note_on_c, 0, 63, 57
1, 44782, Note_off_c, 0, 63, 127
1, 44802, Note_on_c, 0, 74, 35
1, 44811, Note_on_c, 0, 62, 18
1, 44812, Note_on_c, 0, 56, 72
1, 44812, Note_on_c, 0, 65, 81
1, 44830, Note_off_c, 0, 73, 58
1, 44832, Note_off_c, 0, 65, 71
1, 44836, Note_off_c, 0, 74, 58
1, 44837, Note_off_c, 0, 56, 68
1, 44856, Poly_aftertouch_c, 0, 68, 127
1, 44859, Note_off_c, 0, 69, 59
1, 44861, Note_off_c, 0, 62, 40
1, 44896, Poly_aftertouch_c, 0, 61, 0
1, 44900, Note_on_c, 0, 65, 92
1, 44906, Note_on_c, 0, 56, 82
1, 44917, Note_off_c, 0, 65, 74
1, 44920, Note_on_c, 0, 53, 68
1, 44926, Poly_aftertouch_c, 0, 61, 0
1, 44931, Note_off_c, 0, 56, 67
1, 44945, Note_off_c, 0, 53, 66
1, 44963, Note_on_c, 0, 60, 94
1, 44968, Note_on_c, 0, 72, 89
1, 44971, Poly_aftertouch_c, 0, 68, 0
1, 44985, Note_off_c, 0, 60, 67
1, 44991, Note_on_c, 0, 68, 12
1, 45006, Note_off_c, 0, 72, 67
1, 45039, Note_off_c, 0, 68, 50
1, 45040, Control_c, 0, 64, 76
1, 45055, Control_c, 0, 64, 19
1, 45069, Note_on_c, 0, 45, 94
1, 45070, Control_c, 0, 64, 54
1, 45076, Note_on_c, 0, 33, 83
1, 45085, Control_c, 0, 64, 72
1, 45090, Note_on_c, 0, 70, 110
1, 45091, Note_on_c, 0, 37, 51
1, 45091, Note_on_c, 0, 82, 101
1, 45097, Note_off_c, 0, 45, 67
1, 45100, Control_c, 0, 64, 96
1, 45106, Note_off_c, 0, 33, 65
1, 45114, Note_off_c, 0, 70, 65
1, 45115, Control_c, 0, 64, 127
1, 45118, Note_off_c, 0, 82, 63
1, 45126, Note_off_c, 0, 37, 53
1, 45183, Note_on_c, 0, 33, 69
1, 45184, Note_on_c, 0, 45, 89
1, 45213, Note_off_c, 0, 45, 66
1, 45227, Note_off_c, 0, 33, 47
1, 45262, Note_on_c, 0, 59, 96
1, 45262, Note_on_c, 0, 71, 95
1, 45264, Poly_aftertouch_c, 0, 37, 127
1, 45270, Note_on_c, 0, 66, 79
1, 45282, Note_off_c, 0, 59, 67
1, 45297, Note_off_c, 0, 66, 60
1, 45302, Note_off_c, 0, 71, 63
1, 45307, Poly_aftertouch_c, 0, 37, 0
1, 45336, Note_on_c, 0, 54, 69
1, 45337, Note_on_c, 0, 63, 77
1, 45346, Note_on_c, 0, 61, 55
1, 45347, Note_off_c, 0, 61, 127
1, 45353, Note_off_c, 0, 63, 69
1, 45360, Note_off_c, 0, 54, 62
1, 45401, Note_on_c, 0, 63, 95
1, 45416, Note_on_c, 0, 51, 60
1, 45419, Note_on_c, 0, 54, 74
1, 45429, Note_off_c, 0, 63, 64
1, 45446, Note_off_c, 0, 54, 65
1, 45462, Note_off_c, 0, 51, 65
1, 45480, Note_on_c, 0, 58, 99
1, 45483, Note_on_c, 0, 70, 87
1, 45494, Note_on_c, 0, 68, 71
1, 45496, Note_off_c, 0, 58, 75
1, 45511, Note_off_c, 0, 68, 67
1, 45523, Note_off_c, 0, 70, 63
1, 45559, Control_c, 0, 64, 101
1, 45574, Control_c, 0, 64, 45
1, 45589, Control_c, 0, 64, 0
1, 45653, Note_on_c, 0, 34, 105
1, 45656, Control_c, 0, 64, 74
1, 45661, Note_on_c, 0, 70, 109
1, 45661, Note_on_c, 0, 82, 103
1, 45666, Note_on_c, 0, 22, 85
1, 45671, Control_c, 0, 64, 127
1, 45675, Note_on_c, 0, 27, 59
1, 45676, Note_off_c, 0, 27, 127
1, 45678, Note_on_c, 0, 32, 61
1, 45679, Note_off_c, 0, 32, 127
1, 45681, Note_off_c, 0, 70, 66
1, 45690, Note_off_c, 0, 82, 63
1, 45693, Note_on_c, 0, 25, 34
1, 45694, Note_off_c, 0, 25, 127
1, 45695, Note_off_c, 0, 34, 60
1, 45696, Note_off_c, 0, 22, 64
1, 45708, Poly_aftertouch_c, 0, 27, 0
1, 45710, Poly_aftertouch_c, 0, 32, 0
1, 45740, Poly_aftertouch_c, 0, 30, 0
1, 45741, Poly_aftertouch_c, 0, 25, 0
1, 45761, Note_on_c, 0, 22, 86
1, 45763, Note_on_c, 0, 34, 97
1, 45794, Poly_aftertouch_c, 0, 30, 0
1, 45801, Note_off_c, 0, 34, 65
1, 45806, Note_off_c, 0, 22, 63
1, 45881, Note_on_c, 0, 58, 103
1, 45884, Note_on_c, 0, 65, 78
1, 45884, Note_on_c, 0, 70, 94
1, 45920, Note_off_c, 0, 58, 69
1, 45964, Note_off_c, 0, 70, 63
1, 45973, Note_on_c, 0, 53, 79
1, 45977, Note_on_c, 0, 61, 91
1, 45994, Poly_aftertouch_c, 0, 68, 0
1, 45995, Note_off_c, 0, 61, 70
1, 46003, Note_on_c, 0, 54, 33
1, 46004, Note_off_c, 0, 54, 127
1, 46043, Note_on_c, 0, 61, 95
1, 46057, Note_on_c, 0, 49, 74
1, 46074, Note_off_c, 0, 61, 66
1, 46087, Note_off_c, 0, 53, 62
1, 46098, Note_off_c, 0, 49, 63
1, 46105, Note_on_c, 0, 59, 103
1, 46107, Note_on_c, 0, 71, 92
1, 46110, Poly_aftertouch_c, 0, 51, 127
1, 46125, Note_off_c, 0, 65, 65
1, 46127, Note_off_c, 0, 59, 65
1, 46131, Poly_aftertouch_c, 0, 54, 127
1, 46131, Control_c, 0, 64, 89
1, 46135, Note_on_c, 0, 67, 50
1, 46140, Note_on_c, 0, 60, 41
1, 46141, Note_off_c, 0, 60, 127
1, 46144, Poly_aftertouch_c, 0, 54, 0
1, 46146, Control_c, 0, 64, 0
1, 46147, Poly_aftertouch_c, 0, 51, 0
1, 46149, Note_off_c, 0, 71, 69
1, 46162, Note_off_c, 0, 67, 53
1, 46220, Control_c, 0, 64, 35
1, 46227, Note_on_c, 0, 37, 98
1, 46234, Control_c, 0, 64, 127
1, 46237, Note_on_c, 0, 70, 115
1, 46238, Note_on_c, 0, 82, 101
1, 46241, Note_on_c, 0, 27, 70
1, 46242, Note_off_c, 0, 27, 127
1, 46244, Note_on_c, 0, 32, 68
1, 46245, Note_off_c, 0, 32, 127
1, 46247, Note_on_c, 0, 30, 70
1, 46248, Note_on_c, 0, 39, 59
1, 46252, Note_on_c, 0, 25, 61
1, 46257, Note_on_c, 0, 80, 77
1, 46258, Note_off_c, 0, 80, 127
1, 46259, Note_off_c, 0, 37, 66
1, 46266, Note_off_c, 0, 70, 67
1, 46268, Note_off_c, 0, 82, 65
1, 46272, Note_on_c, 0, 78, 48
1, 46273, Note_off_c, 0, 78, 127
1, 46276, Note_off_c, 0, 39, 60
1, 46281, Note_off_c, 0, 30, 51
1, 46288, Note_off_c, 0, 25, 52
1, 46339, Note_on_c, 0, 37, 96
1, 46354, Note_on_c, 0, 25, 74
1, 46382, Note_off_c, 0, 25, 63
1, 46386, Note_off_c, 0, 37, 66
1, 46444, Note_on_c, 0, 59, 110
1, 46445, Note_on_c, 0, 71, 95
1, 46454, Poly_aftertouch_c, 0, 27, 0
1, 46474, Note_off_c, 0, 59, 64
1, 46490, Note_off_c, 0, 71, 64
1, 46495, Note_on_c, 0, 69, 12
1, 46496, Note_off_c, 0, 69, 127
1, 46520, Note_on_c, 0, 68, 2
1, 46520, Note_on_c, 0, 53, 83
1, 46528, Note_on_c, 0, 56, 77
1, 46529, Note_on_c, 0, 62, 86
1, 46549, Note_off_c, 0, 62, 69
1, 46557, Note_off_c, 0, 56, 68
1, 46558, Note_off_c, 0, 68, 37
1, 46569, Note_off_c, 0, 53, 57
1, 46597, Note_on_c, 0, 62, 92
1, 46600, Note_on_c, 0, 53, 66
1, 46612, Note_on_c, 0, 56, 82
1, 46618, Note_off_c, 0, 62, 66
1, 46637, Note_off_c, 0, 56, 65
1, 46654, Note_off_c, 0, 53, 65
1, 46667, Note_on_c, 0, 60, 96
1, 46672, Note_on_c, 0, 72, 85
1, 46672, Note_on_c, 0, 70, 88
1, 46674, Note_on_c, 0, 66, 81
1, 46685, Note_off_c, 0, 60, 72
1, 46701, Note_off_c, 0, 66, 62
1, 46712, Note_off_c, 0, 72, 60
1, 46713, Note_off_c, 0, 70, 67
1, 46732, Control_c, 0, 64, 92
1, 46747, Control_c, 0, 64, 0
1, 46789, Note_on_c, 0, 39, 93
1, 46800, Note_on_c, 0, 27, 87
1, 46801, Note_on_c, 0, 70, 114
1, 46804, Note_on_c, 0, 82, 96
1, 46806, Control_c, 0, 64, 102
1, 46808, Note_on_c, 0, 80, 87
1, 46810, Note_on_c, 0, 30, 60
1, 46811, Note_off_c, 0, 30, 127
1, 46811, Note_on_c, 0, 32, 61
1, 46812, Note_off_c, 0, 32, 127
1, 46812, Note_on_c, 0, 34, 59
1, 46813, Note_off_c, 0, 34, 127
1, 46821, Note_on_c, 0, 75, 70
1, 46822, Note_off_c, 0, 75, 127
1, 46822, Note_off_c, 0, 70, 64
1, 46822, Control_c, 0, 64, 127
1, 46822, Note_on_c, 0, 68, 68
1, 46823, Note_off_c, 0, 68, 127
1, 46825, Note_off_c, 0, 82, 66
1, 46827, Note_off_c, 0, 39, 58
1, 46827, Note_off_c, 0, 80, 66
1, 46830, Note_off_c, 0, 27, 67
1, 46839, Note_on_c, 0, 78, 47
1, 46841, Poly_aftertouch_c, 0, 30, 0
1, 46842, Poly_aftertouch_c, 0, 75, 0
1, 46848, Note_on_c, 0, 69, 47
1, 46874, Note_off_c, 0, 78, 54
1, 46879, Note_off_c, 0, 69, 53
1, 46908, Note_on_c, 0, 39, 95
1, 46913, Note_on_c, 0, 27, 88
1, 46922, Note_on_c, 0, 30, 65
1, 46946, Note_off_c, 0, 27, 63
1, 46949, Note_off_c, 0, 39, 62
1, 46955, Note_off_c, 0, 30, 61
1, 47003, Note_on_c, 0, 60, 104
1, 47007, Note_on_c, 0, 72, 90
1, 47013, Note_on_c, 0, 70, 84
1, 47017, Note_on_c, 0, 66, 76
1, 47057, Note_off_c, 0, 60, 57
1, 47122, Note_on_c, 0, 58, 87
1, 47125, Note_on_c, 0, 63, 98
1, 47129, Note_off_c, 0, 72, 51
1, 47146, Note_on_c, 0, 54, 41
1, 47146, Note_off_c, 0, 63, 65
1, 47154, Note_on_c, 0, 61, 35
1, 47154, Note_off_c, 0, 66, 48
1, 47161, Note_off_c, 0, 58, 61
1, 47178, Note_off_c, 0, 54, 59
1, 47192, Note_off_c, 0, 61, 49
1, 47204, Note_on_c, 0, 63, 105
1, 47205, Note_on_c, 0, 58, 75
1, 47222, Note_on_c, 0, 54, 65
1, 47233, Note_on_c, 0, 56, 38
1, 47238, Note_off_c, 0, 63, 65
1, 47259, Note_off_c, 0, 58, 61
1, 47261, Note_off_c, 0, 70, 55
1, 47268, Note_off_c, 0, 56, 58
1, 47273, Note_off_c, 0, 54, 63
1, 47294, Note_on_c, 0, 61, 97
1, 47296, Note_on_c, 0, 73, 99
1, 47310, Note_on_c, 0, 63, 68
1, 47326, Note_off_c, 0, 61, 68
1, 47335, Note_off_c, 0, 63, 60
1, 47351, Note_off_c, 0, 73, 60
1, 47379, Poly_aftertouch_c, 0, 74, 127
1, 47399, Poly_aftertouch_c, 0, 74, 0
1, 47416, Poly_aftertouch_c, 0, 74, 0
1, 47480, Control_c, 0, 64, 82
1, 47495, Control_c, 0, 64, 0
1, 47530, Note_on_c, 0, 41, 108
1, 47536, Note_on_c, 0, 29, 87
1, 47536, Note_on_c, 0, 69, 102
1, 47540, Note_on_c, 0, 81, 102
1, 47555, Control_c, 0, 64, 82
1, 47566, Note_on_c, 0, 78, 55
1, 47569, Note_off_c, 0, 81, 69
1, 47570, Note_on_c, 0, 30, 30
1, 47571, Note_off_c, 0, 30, 127
1, 47571, Note_off_c, 0, 69, 67
1, 47571, Control_c, 0, 64, 127
1, 47589, Note_off_c, 0, 78, 63
1, 47602, Note_off_c, 0, 29, 61
1, 47604, Note_off_c, 0, 41, 61
1, 47624, Poly_aftertouch_c, 0, 30, 0
1, 47679, Note_on_c, 0, 41, 107
1, 47682, Poly_aftertouch_c, 0, 34, 127
1, 47690, Note_on_c, 0, 29, 85
1, 47715, Poly_aftertouch_c, 0, 34, 0
1, 47718, Note_on_c, 0, 37, 24
1, 47720, Note_off_c, 0, 29, 66
1, 47732, Note_on_c, 0, 32, 12
1, 47746, Note_off_c, 0, 41, 63
1, 47760, Note_off_c, 0, 37, 52
1, 47767, Poly_aftertouch_c, 0, 34, 0
1, 47783, Note_off_c, 0, 32, 42
1, 47794, Note_on_c, 0, 69, 31
1, 47804, Note_on_c, 0, 61, 108
1, 47805, Note_on_c, 0, 73, 101
1, 47855, Note_off_c, 0, 61, 67
1, 47925, Note_off_c, 0, 69, 56
1, 48034, Note_on_c, 0, 65, 109
1, 48040, Note_on_c, 0, 57, 89
1, 48042, Note_on_c, 0, 63, 87
1, 48063, Note_on_c, 0, 53, 54
1, 48064, Note_off_c, 0, 57, 66
1, 48064, Note_off_c, 0, 65, 70
1, 48076, Note_on_c, 0, 59, 34
1, 48085, Note_off_c, 0, 63, 58
1, 48090, Note_off_c, 0, 53, 60
1, 48117, Note_on_c, 0, 65, 106
1, 48121, Note_on_c, 0, 53, 76
1, 48122, Note_off_c, 0, 59, 42
1, 48123, Note_on_c, 0, 63, 78
1, 48126, Note_on_c, 0, 57, 85
1, 48159, Note_on_c, 0, 59, 39
1, 48165, Note_on_c, 0, 64, 27
1, 48204, Note_off_c, 0, 59, 60
1, 48213, Note_off_c, 0, 64, 0
1, 48213, Note_on_c, 0, 64, 28
1, 48213, Note_off_c, 0, 65, 62
1, 48246, Note_off_c, 0, 73, 49
1, 48259, Note_off_c, 0, 53, 60
1, 48261, Note_off_c, 0, 64, 64
1, 48262, Note_off_c, 0, 57, 36
1, 48277, Note_off_c, 0, 63, 36
1, 48770, Control_c, 0, 64, 100
1, 48785, Control_c, 0, 64, 68
1, 48800, Control_c, 0, 64, 0
1, 48940, Note_on_c, 0, 46, 99
1, 48943, Note_on_c, 0, 34, 103
1, 48947, Note_on_c, 0, 58, 89
1, 48948, Control_c, 0, 64, 71
1, 48951, Note_on_c, 0, 22, 85
1, 48963, Control_c, 0, 64, 127
1, 48966, Note_on_c, 0, 54, 72
1, 48968, Note_on_c, 0, 32, 54
1, 48973, Note_on_c, 0, 30, 56
1, 48974, Note_off_c, 0, 30, 127
1, 48977, Note_off_c, 0, 46, 67
1, 48980, Note_on_c, 0, 25, 36
1, 48989, Note_off_c, 0, 54, 63
1, 48999, Note_off_c, 0, 32, 57
1, 49018, Note_off_c, 0, 58, 64
1, 49036, Note_off_c, 0, 25, 44
1, 49046, Note_off_c, 0, 22, 62
1, 49078, Note_off_c, 0, 34, 61
1, 49310, Note_on_c, 0, 58, 67
1, 49316, Note_on_c, 0, 65, 56
1, 49319, Note_on_c, 0, 61, 57
1, 49320, Note_on_c, 0, 53, 70
1, 49328, Note_on_c, 0, 46, 55
1, 49333, Note_on_c, 0, 49, 59
1, 49351, Note_on_c, 0, 41, 41
1, 49508, Note_off_c, 0, 58, 35
1, 49540, Note_off_c, 0, 65, 33
1, 49629, Note_off_c, 0, 61, 34
1, 49683, Note_off_c, 0, 53, 57
1, 49686, Note_off_c, 0, 49, 48
1, 49697, Note_off_c, 0, 41, 39
1, 49706, Note_off_c, 0, 46, 34
1, 49766, Note_on_c, 0, 65, 84
1, 49772, Note_on_c, 0, 58, 72
1, 49774, Note_on_c, 0, 61, 67
1, 49777, Note_on_c, 0, 53, 89
1, 49784, Note_on_c, 0, 46, 67
1, 49788, Note_on_c, 0, 49, 75
1, 49790, Note_on_c, 0, 41, 66
1, 49894, Note_off_c, 0, 58, 53
1, 49900, Note_off_c, 0, 41, 58
1, 49906, Note_off_c, 0, 53, 60
1, 49926, Note_off_c, 0, 61, 49
1, 49949, Note_off_c, 0, 46, 61
1, 49959, Note_off_c, 0, 65, 47
1, 49964, Note_off_c, 0, 49, 62
1, 50031, Note_on_c, 0, 53, 97
1, 50036, Note_on_c, 0, 65, 91
1, 50037, Note_on_c, 0, 46, 80
1, 50040, Note_on_c, 0, 58, 97
1, 50043, Note_on_c, 0, 61, 75
1, 50045, Note_on_c, 0, 49, 75
1, 50061, Note_on_c, 0, 41, 63
1, 50067, Note_off_c, 0, 53, 68
1, 50077, Note_off_c, 0, 49, 64
1, 50085, Note_off_c, 0, 41, 64
1, 50103, Note_off_c, 0, 46, 62
1, 50120, Note_off_c, 0, 58, 64
1, 50141, Note_off_c, 0, 61, 58
1, 50165, Control_c, 0, 64, 96
1, 50180, Control_c, 0, 64, 49
1, 50189, Note_on_c, 0, 56, 105
1, 50193, Note_on_c, 0, 44, 98
1, 50194, Note_on_c, 0, 61, 71
1, 50194, Note_on_c, 0, 68, 93
1, 50195, Control_c, 0, 64, 0
1, 50202, Note_on_c, 0, 32, 81
1, 50209, Control_c, 0, 64, 47
1, 50215, Note_on_c, 0, 45, 64
1, 50216, Note_on_c, 0, 66, 65
1, 50223, Note_on_c, 0, 39, 43
1, 50224, Note_off_c, 0, 39, 127
1, 50224, Control_c, 0, 64, 75
1, 50231, Note_on_c, 0, 34, 32
1, 50236, Note_off_c, 0, 66, 42
1, 50238, Note_off_c, 0, 45, 61
1, 50239, Control_c, 0, 64, 127
1, 50260, Poly_aftertouch_c, 0, 37, 0
1, 50264, Note_off_c, 0, 65, 55
1, 50265, Note_off_c, 0, 56, 67
1, 50273, Poly_aftertouch_c, 0, 39, 0
1, 50281, Note_off_c, 0, 34, 45
1, 50296, Poly_aftertouch_c, 0, 37, 127
1, 50297, Note_off_c, 0, 32, 61
1, 50311, Poly_aftertouch_c, 0, 39, 127
1, 50314, Note_off_c, 0, 61, 60
1, 50338, Note_off_c, 0, 68, 61
1, 50344, Note_off_c, 0, 44, 64
1, 50349, Poly_aftertouch_c, 0, 37, 0
1, 50372, Poly_aftertouch_c, 0, 39, 0
1, 50571, Note_on_c, 0, 70, 93
1, 50572, Note_on_c, 0, 77, 92
1, 50574, Note_on_c, 0, 65, 103
1, 50577, Note_on_c, 0, 73, 85
1, 50579, Note_on_c, 0, 58, 85
1, 50584, Note_on_c, 0, 61, 82
1, 50587, Note_on_c, 0, 53, 81
1, 50914, Note_off_c, 0, 77, 47
1, 50927, Note_off_c, 0, 61, 31
1, 50930, Note_off_c, 0, 53, 20
1, 50940, Note_off_c, 0, 65, 52
1, 50952, Note_off_c, 0, 58, 49
1, 50979, Note_off_c, 0, 70, 39
1, 50994, Note_off_c, 0, 73, 22
1, 51042, Note_on_c, 0, 77, 99
1, 51044, Note_on_c, 0, 70, 91
1, 51045, Note_on_c, 0, 65, 94
1, 51045, Note_on_c, 0, 73, 78
1, 51052, Note_on_c, 0, 61, 78
1, 51054, Note_on_c, 0, 58, 80
1, 51066, Note_on_c, 0, 53, 62
1, 51265, Note_off_c, 0, 53, 63
1, 51268, Note_off_c, 0, 65, 60
1, 51286, Note_off_c, 0, 70, 61
1, 51296, Note_off_c, 0, 73, 61
1, 51297, Note_off_c, 0, 77, 60
1, 51298, Note_off_c, 0, 58, 60
1, 51298, Note_off_c, 0, 61, 58
1, 51354, Note_on_c, 0, 70, 98
1, 51355, Note_on_c, 0, 65, 98
1, 51356, Note_on_c, 0, 73, 81
1, 51357, Note_on_c, 0, 77, 93
1, 51358, Note_on_c, 0, 58, 82
1, 51363, Note_on_c, 0, 61, 79
1, 51370, Note_off_c, 0, 65, 74
1, 51375, Note_on_c, 0, 53, 74
1, 51387, Note_off_c, 0, 77, 62
1, 51391, Note_off_c, 0, 70, 63
1, 51393, Note_off_c, 0, 61, 65
1, 51397, Note_off_c, 0, 73, 56
1, 51402, Note_off_c, 0, 58, 64
1, 51404, Note_off_c, 0, 53, 68
1, 51619, Control_c, 0, 64, 81
1, 51634, Control_c, 0, 64, 0
1, 51653, Note_on_c, 0, 34, 99
1, 51654, Note_on_c, 0, 46, 112
1, 51663, Note_on_c, 0, 22, 88
1, 51697, Note_off_c, 0, 46, 65
1, 51708, Control_c, 0, 64, 64
1, 51715, Note_off_c, 0, 22, 64
1, 51722, Control_c, 0, 64, 127
1, 51739, Note_off_c, 0, 34, 61
1, 51917, Note_on_c, 0, 53, 81
1, 52061, Note_on_c, 0, 65, 89
1, 52063, Note_on_c, 0, 61, 80
1, 52066, Note_on_c, 0, 89, 97
1, 52069, Note_on_c, 0, 85, 101
1, 52118, Note_off_c, 0, 89, 63
1, 52120, Note_off_c, 0, 85, 62
1, 52124, Note_off_c, 0, 65, 55
1, 52153, Note_off_c, 0, 53, 40
1, 52162, Note_off_c, 0, 61, 61
1, 52166, Note_on_c, 0, 87, 100
1, 52177, Note_on_c, 0, 89, 52
1, 52198, Note_off_c, 0, 89, 59
1, 52228, Note_on_c, 0, 53, 72
1, 52256, Note_on_c, 0, 86, 95
1, 52261, Note_off_c, 0, 87, 63
1, 52300, Note_off_c, 0, 86, 66
1, 52318, Note_off_c, 0, 53, 63
1, 52323, Note_on_c, 0, 64, 84
1, 52326, Note_on_c, 0, 60, 71
1, 52328, Note_on_c, 0, 65, 88
1, 52332, Note_on_c, 0, 85, 93
1, 52360, Note_off_c, 0, 65, 61
1, 52380, Note_off_c, 0, 64, 65
1, 52401, Note_off_c, 0, 60, 63
1, 52412, Note_on_c, 0, 82, 86
1, 52451, Note_on_c, 0, 53, 77
1, 52461, Note_off_c, 0, 85, 60
1, 52473, Note_on_c, 0, 78, 89
1, 52485, Control_c, 0, 64, 80
1, 52500, Control_c, 0, 64, 0
1, 52508, Note_off_c, 0, 82, 65
1, 52523, Note_off_c, 0, 53, 62
1, 52534, Note_on_c, 0, 59, 70
1, 52535, Note_on_c, 0, 63, 83
1, 52535, Note_on_c, 0, 65, 88
1, 52540, Note_on_c, 0, 77, 85
1, 52544, Note_off_c, 0, 78, 60
1, 52544, Control_c, 0, 64, 14
1, 52559, Control_c, 0, 64, 80
1, 52565, Note_off_c, 0, 65, 64
1, 52574, Control_c, 0, 64, 127
1, 52586, Note_off_c, 0, 77, 63
1, 52589, Note_off_c, 0, 63, 62
1, 52589, Note_off_c, 0, 59, 61
1, 52613, Note_on_c, 0, 75, 81
1, 52643, Note_on_c, 0, 53, 76
1, 52648, Control_c, 0, 64, 104
1, 52663, Control_c, 0, 64, 65
1, 52673, Note_off_c, 0, 75, 64
1, 52678, Control_c, 0, 64, 0
1, 52684, Note_on_c, 0, 74, 84
1, 52708, Note_off_c, 0, 74, 67
1, 52720, Note_on_c, 0, 65, 92
1, 52721, Note_off_c, 0, 53, 61
1, 52722, Note_on_c, 0, 58, 83
1, 52723, Control_c, 0, 64, 49
1, 52726, Note_on_c, 0, 61, 75
1, 52737, Note_off_c, 0, 65, 73
1, 52738, Control_c, 0, 64, 108
1, 52741, Note_on_c, 0, 73, 92
1, 52751, Note_off_c, 0, 61, 67
1, 52752, Control_c, 0, 64, 127
1, 52757, Note_off_c, 0, 58, 61
1, 52801, Note_on_c, 0, 70, 81
1, 52830, Note_off_c, 0, 73, 61
1, 52856, Note_on_c, 0, 66, 80
1, 52886, Note_off_c, 0, 70, 64
1, 52911, Note_off_c, 0, 66, 60
1, 52919, Note_on_c, 0, 65, 82
1, 52920, Note_on_c, 0, 53, 80
1, 52961, Note_off_c, 0, 65, 63
1, 52970, Note_off_c, 0, 53, 64
1, 52982, Note_on_c, 0, 63, 82
1, 52997, Note_on_c, 0, 51, 72
1, 53003, Control_c, 0, 64, 98
1, 53018, Control_c, 0, 64, 60
1, 53033, Control_c, 0, 64, 0
1, 53034, Note_off_c, 0, 51, 63
1, 53045, Note_off_c, 0, 63, 64
1, 53051, Note_on_c, 0, 62, 76
1, 53075, Note_on_c, 0, 50, 77
1, 53077, Note_off_c, 0, 62, 66
1, 53115, Note_on_c, 0, 61, 82
1, 53134, Note_off_c, 0, 50, 52
1, 53137, Note_on_c, 0, 49, 84
1, 53175, Note_on_c, 0, 58, 79
1, 53185, Note_on_c, 0, 46, 61
1, 53204, Note_off_c, 0, 49, 62
1, 53207, Note_off_c, 0, 61, 63
1, 53234, Note_on_c, 0, 54, 82
1, 53234, Note_off_c, 0, 46, 63
1, 53241, Note_on_c, 0, 42, 67
1, 53257, Note_off_c, 0, 58, 61
1, 53283, Note_off_c, 0, 42, 64
1, 53285, Note_off_c, 0, 54, 67
1, 53303, Note_on_c, 0, 41, 75
1, 53308, Note_on_c, 0, 53, 80
1, 53332, Note_off_c, 0, 41, 64
1, 53344, Note_off_c, 0, 53, 64
1, 53369, Note_on_c, 0, 51, 82
1, 53371, Note_on_c, 0, 40, 77
1, 53400, Note_off_c, 0, 40, 65
1, 53428, Note_off_c, 0, 51, 64
1, 53434, Note_on_c, 0, 50, 83
1, 53501, Note_on_c, 0, 49, 99
1, 53507, Note_on_c, 0, 37, 100
1, 53508, Note_off_c, 0, 50, 69
1, 53519, Note_on_c, 0, 25, 79
1, 53531, Control_c, 0, 64, 127
1, 53534, Note_on_c, 0, 32, 62
1, 53535, Note_off_c, 0, 32, 127
1, 53540, Note_off_c, 0, 49, 67
1, 53542, Note_off_c, 0, 25, 62
1, 53552, Note_off_c, 0, 37, 65
1, 53553, Note_on_c, 0, 27, 32
1, 53567, Poly_aftertouch_c, 0, 32, 0
1, 53614, Note_off_c, 0, 27, 47
1, 53830, Note_on_c, 0, 65, 80
1, 53833, Note_on_c, 0, 58, 67
1, 53843, Note_on_c, 0, 61, 63
1, 53846, Note_on_c, 0, 53, 74
1, 53862, Note_on_c, 0, 46, 54
1, 53864, Note_on_c, 0, 41, 50
1, 53865, Note_on_c, 0, 49, 58
1, 53882, Note_off_c, 0, 53, 62
1, 53901, Note_off_c, 0, 41, 51
1, 53902, Note_off_c, 0, 49, 57
1, 53911, Note_off_c, 0, 46, 58
1, 54026, Note_off_c, 0, 58, 37
1, 54041, Note_off_c, 0, 65, 46
1, 54103, Note_off_c, 0, 61, 26
1, 54320, Note_on_c, 0, 65, 81
1, 54324, Note_on_c, 0, 58, 76
1, 54327, Note_on_c, 0, 53, 89
1, 54328, Note_on_c, 0, 61, 65
1, 54336, Note_on_c, 0, 49, 75
1, 54339, Note_on_c, 0, 46, 70
1, 54343, Note_on_c, 0, 41, 70
1, 54479, Note_off_c, 0, 58, 56
1, 54483, Note_off_c, 0, 41, 58
1, 54499, Note_off_c, 0, 53, 57
1, 54517, Note_off_c, 0, 61, 56
1, 54523, Note_off_c, 0, 46, 62
1, 54529, Note_off_c, 0, 65, 55
1, 54535, Note_off_c, 0, 49, 62
1, 54596, Note_on_c, 0, 53, 96
1, 54596, Note_on_c, 0, 65, 87
1, 54601, Note_on_c, 0, 58, 88
1, 54605, Note_on_c, 0, 46, 72
1, 54608, Note_on_c, 0, 49, 74
1, 54612, Note_on_c, 0, 61, 74
1, 54623, Note_on_c, 0, 41, 62
1, 54624, Note_off_c, 0, 53, 69
1, 54638, Note_off_c, 0, 46, 60
1, 54642, Note_off_c, 0, 49, 67
1, 54653, Note_off_c, 0, 41, 61
1, 54663, Note_off_c, 0, 58, 64
1, 54684, Note_off_c, 0, 61, 62
1, 54702, Control_c, 0, 64, 82
1, 54718, Control_c, 0, 64, 0
1, 54735, Note_on_c, 0, 56, 102
1, 54739, Note_on_c, 0, 68, 97
1, 54742, Note_on_c, 0, 61, 72
1, 54746, Note_on_c, 0, 44, 101
1, 54753, Note_on_c, 0, 32, 82
1, 54767, Note_on_c, 0, 66, 57
1, 54768, Note_off_c, 0, 66, 127
1, 54777, Note_off_c, 0, 65, 64
1, 54777, Control_c, 0, 64, 84
1, 54792, Control_c, 0, 64, 127
1, 54792, Note_off_c, 0, 56, 67
1, 54820, Note_off_c, 0, 32, 60
1, 54839, Note_off_c, 0, 44, 59
1, 54847, Note_off_c, 0, 61, 57
1, 54871, Note_off_c, 0, 68, 57
1, 55091, Note_on_c, 0, 77, 86
1, 55092, Note_on_c, 0, 70, 82
1, 55093, Note_on_c, 0, 65, 90
1, 55096, Note_on_c, 0, 73, 77
1, 55099, Note_on_c, 0, 58, 74
1, 55105, Note_on_c, 0, 61, 75
1, 55108, Note_on_c, 0, 53, 65
1, 55471, Note_off_c, 0, 53, 33
1, 55476, Note_off_c, 0, 61, 50
1, 55480, Note_off_c, 0, 58, 54
1, 55483, Note_off_c, 0, 77, 52
1, 55484, Note_off_c, 0, 65, 57
1, 55488, Note_off_c, 0, 70, 56
1, 55493, Note_off_c, 0, 73, 52
1, 55565, Note_on_c, 0, 77, 92
1, 55567, Note_on_c, 0, 70, 88
1, 55568, Note_on_c, 0, 65, 99
1, 55570, Note_on_c, 0, 73, 82
1, 55575, Note_on_c, 0, 58, 85
1, 55579, Note_on_c, 0, 61, 85
1, 55583, Note_on_c, 0, 53, 71
1, 55725, Note_on_c, 0, 75, 21
1, 55816, Note_off_c, 0, 53, 60
1, 55820, Note_off_c, 0, 65, 63
1, 55831, Note_off_c, 0, 61, 58
1, 55839, Note_off_c, 0, 58, 58
1, 55839, Note_off_c, 0, 73, 60
1, 55841, Note_off_c, 0, 70, 59
1, 55854, Note_off_c, 0, 77, 58
1, 55860, Note_off_c, 0, 75, 43
1, 55900, Note_on_c, 0, 77, 90
1, 55901, Note_on_c, 0, 70, 88
1, 55902, Note_on_c, 0, 65, 101
1, 55904, Note_on_c, 0, 73, 84
1, 55905, Note_on_c, 0, 58, 83
1, 55911, Note_on_c, 0, 61, 80
1, 55916, Note_on_c, 0, 53, 78
1, 55916, Note_off_c, 0, 65, 73
1, 55936, Note_off_c, 0, 70, 59
1, 55936, Note_off_c, 0, 61, 66
1, 55936, Note_off_c, 0, 77, 65
1, 55944, Note_off_c, 0, 58, 65
1, 55954, Note_off_c, 0, 53, 67
1, 55954, Note_off_c, 0, 73, 62
1, 56141, Control_c, 0, 64, 104
1, 56155, Control_c, 0, 64, 68
1, 56170, Control_c, 0, 64, 0
1, 56184, Note_on_c, 0, 37, 99
1, 56187, Note_on_c, 0, 49, 110
1, 56193, Note_on_c, 0, 25, 85
1, 56213, Note_on_c, 0, 32, 52
1, 56214, Note_off_c, 0, 32, 127
1, 56228, Note_off_c, 0, 49, 65
1, 56244, Control_c, 0, 64, 100
1, 56246, Note_off_c, 0, 25, 60
1, 56259, Control_c, 0, 64, 127
1, 56272, Note_off_c, 0, 37, 64
1, 56317, Poly_aftertouch_c, 0, 27, 0
1, 56467, Note_on_c, 0, 53, 72
1, 56526, Note_on_c, 0, 77, 95
1, 56577, Note_off_c, 0, 77, 61
1, 56649, Note_on_c, 0, 89, 94
1, 56651, Note_on_c, 0, 85, 93
1, 56657, Note_on_c, 0, 65, 84
1, 56658, Note_on_c, 0, 61, 81
1, 56684, Note_off_c, 0, 53, 51
1, 56687, Note_off_c, 0, 65, 59
1, 56699, Note_off_c, 0, 89, 64
1, 56699, Note_off_c, 0, 85, 64
1, 56719, Note_off_c, 0, 61, 60
1, 56750, Note_on_c, 0, 87, 92
1, 56792, Note_on_c, 0, 53, 71
1, 56822, Control_c, 0, 64, 98
1, 56837, Note_off_c, 0, 87, 64
1, 56841, Note_on_c, 0, 86, 87
1, 56843, Control_c, 0, 64, 65
1, 56858, Control_c, 0, 64, 0
1, 56866, Note_off_c, 0, 53, 64
1, 56878, Note_on_c, 0, 64, 81
1, 56883, Note_on_c, 0, 60, 55
1, 56885, Note_on_c, 0, 65, 79
1, 56888, Control_c, 0, 64, 59
1, 56898, Note_off_c, 0, 86, 47
1, 56903, Note_on_c, 0, 85, 88
1, 56903, Control_c, 0, 64, 68
1, 56907, Note_off_c, 0, 65, 70
1, 56917, Control_c, 0, 64, 79
1, 56928, Note_off_c, 0, 64, 65
1, 56932, Control_c, 0, 64, 107
1, 56947, Control_c, 0, 64, 127
1, 56956, Note_off_c, 0, 60, 57
1, 56971, Note_on_c, 0, 82, 84
1, 56994, Note_on_c, 0, 53, 73
1, 57001, Note_off_c, 0, 85, 62
1, 57021, Control_c, 0, 64, 91
1, 57027, Note_on_c, 0, 78, 82
1, 57036, Control_c, 0, 64, 64
1, 57051, Control_c, 0, 64, 0
1, 57057, Note_off_c, 0, 82, 63
1, 57066, Note_off_c, 0, 53, 66
1, 57078, Note_on_c, 0, 65, 87
1, 57080, Note_on_c, 0, 63, 79
1, 57081, Control_c, 0, 64, 56
1, 57084, Note_on_c, 0, 59, 67
1, 57084, Note_on_c, 0, 77, 83
1, 57087, Poly_aftertouch_c, 0, 57, 0
1, 57087, Note_off_c, 0, 78, 62
1, 57095, Control_c, 0, 64, 82
1, 57100, Note_off_c, 0, 65, 68
1, 57111, Control_c, 0, 64, 127
1, 57128, Note_off_c, 0, 63, 58
1, 57129, Note_off_c, 0, 77, 64
1, 57138, Note_off_c, 0, 59, 53
1, 57155, Note_on_c, 0, 75, 82
1, 57185, Note_on_c, 0, 53, 78
1, 57185, Control_c, 0, 64, 84
1, 57200, Control_c, 0, 64, 29
1, 57215, Control_c, 0, 64, 0
1, 57215, Note_off_c, 0, 75, 62
1, 57220, Note_on_c, 0, 74, 84
1, 57256, Note_off_c, 0, 74, 67
1, 57259, Control_c, 0, 64, 51
1, 57270, Note_on_c, 0, 65, 90
1, 57273, Note_off_c, 0, 53, 65
1, 57274, Control_c, 0, 64, 102
1, 57275, Note_on_c, 0, 58, 80
1, 57278, Note_on_c, 0, 73, 95
1, 57280, Note_on_c, 0, 61, 80
1, 57287, Note_off_c, 0, 65, 74
1, 57289, Control_c, 0, 64, 127
1, 57305, Note_off_c, 0, 61, 66
1, 57312, Note_off_c, 0, 58, 63
1, 57334, Note_on_c, 0, 70, 82
1, 57372, Note_off_c, 0, 73, 64
1, 57403, Note_on_c, 0, 66, 81
1, 57429, Note_off_c, 0, 70, 65
1, 57459, Note_off_c, 0, 66, 58
1, 57463, Note_on_c, 0, 65, 80
1, 57477, Note_on_c, 0, 53, 83
1, 57513, Note_off_c, 0, 65, 64
1, 57525, Note_off_c, 0, 53, 63
1, 57532, Note_on_c, 0, 63, 82
1, 57540, Control_c, 0, 64, 106
1, 57555, Control_c, 0, 64, 79
1, 57557, Note_on_c, 0, 51, 72
1, 57570, Control_c, 0, 64, 43
1, 57592, Control_c, 0, 64, 0
1, 57601, Note_on_c, 0, 62, 78
1, 57602, Note_off_c, 0, 63, 61
1, 57617, Note_off_c, 0, 51, 63
1, 57647, Note_off_c, 0, 62, 61
1, 57650, Note_on_c, 0, 50, 70
1, 57667, Note_on_c, 0, 61, 85
1, 57699, Note_off_c, 0, 50, 56
1, 57704, Note_on_c, 0, 49, 76
1, 57710, Control_c, 0, 64, 70
1, 57725, Control_c, 0, 64, 94
1, 57729, Note_on_c, 0, 58, 81
1, 57740, Control_c, 0, 64, 127
1, 57758, Note_on_c, 0, 46, 61
1, 57762, Note_off_c, 0, 61, 63
1, 57770, Control_c, 0, 64, 95
1, 57782, Note_off_c, 0, 49, 62
1, 57785, Control_c, 0, 64, 66
1, 57799, Control_c, 0, 64, 0
1, 57802, Note_off_c, 0, 46, 64
1, 57804, Note_on_c, 0, 54, 77
1, 57826, Note_off_c, 0, 58, 62
1, 57829, Note_on_c, 0, 42, 65
1, 57859, Note_off_c, 0, 54, 66
1, 57874, Control_c, 0, 64, 72
1, 57877, Note_off_c, 0, 42, 63
1, 57882, Note_on_c, 0, 53, 75
1, 57889, Control_c, 0, 64, 102
1, 57904, Control_c, 0, 64, 127
1, 57919, Note_on_c, 0, 41, 35
1, 57958, Note_off_c, 0, 41, 46
1, 57959, Note_on_c, 0, 51, 81
1, 57963, Note_off_c, 0, 53, 64
1, 57973, Note_on_c, 0, 40, 61
1, 58009, Note_off_c, 0, 40, 64
1, 58049, Note_off_c, 0, 51, 58
1, 58056, Note_on_c, 0, 50, 74
1, 58112, Control_c, 0, 64, 97
1, 58127, Control_c, 0, 64, 79
1, 58141, Control_c, 0, 64, 61
1, 58156, Control_c, 0, 64, 0
1, 58217, Note_on_c, 0, 42, 52
1, 58219, Note_on_c, 0, 30, 54
1, 58225, Note_off_c, 0, 50, 39
1, 58228, Note_on_c, 0, 49, 68
1, 58320, Control_c, 0, 64, 66
1, 58342, Control_c, 0, 64, 95
1, 58357, Control_c, 0, 64, 127
1, 58375, Note_off_c, 0, 30, 33
1, 58387, Note_off_c, 0, 49, 63
1, 58436, Note_off_c, 0, 42, 44
1, 58626, Note_on_c, 0, 49, 55
1, 58678, Note_off_c, 0, 49, 55
1, 58725, Note_on_c, 0, 78, 62
1, 58894, Note_on_c, 0, 58, 51
1, 58896, Note_on_c, 0, 77, 59
1, 58920, Note_off_c, 0, 78, 37
1, 58932, Note_on_c, 0, 73, 30
1, 58975, Note_off_c, 0, 73, 48
1, 59000, Note_off_c, 0, 77, 59
1, 59006, Note_on_c, 0, 70, 49
1, 59062, Note_off_c, 0, 70, 56
1, 59069, Note_off_c, 0, 58, 50
1, 59108, Note_on_c, 0, 78, 63
1, 59108, Note_on_c, 0, 51, 61
1, 59204, Note_on_c, 0, 75, 63
1, 59206, Note_on_c, 0, 60, 78
1, 59217, Note_on_c, 0, 72, 47
1, 59220, Note_off_c, 0, 78, 52
1, 59221, Note_off_c, 0, 51, 63
1, 59284, Note_off_c, 0, 60, 60
1, 59301, Note_off_c, 0, 72, 57
1, 59305, Note_on_c, 0, 68, 62
1, 59308, Note_off_c, 0, 75, 60
1, 59342, Note_on_c, 0, 53, 66
1, 59367, Note_off_c, 0, 68, 61
1, 59389, Note_on_c, 0, 78, 76
1, 59454, Note_on_c, 0, 61, 80
1, 59456, Note_on_c, 0, 73, 75
1, 59464, Note_on_c, 0, 70, 65
1, 59485, Note_off_c, 0, 53, 60
1, 59501, Note_off_c, 0, 61, 58
1, 59511, Note_off_c, 0, 78, 56
1, 59560, Note_on_c, 0, 66, 70
1, 59594, Note_on_c, 0, 44, 73
1, 59624, Note_off_c, 0, 73, 62
1, 59642, Note_off_c, 0, 70, 62
1, 59654, Note_on_c, 0, 78, 71
1, 59728, Control_c, 0, 64, 102
1, 59741, Note_off_c, 0, 44, 62
1, 59743, Control_c, 0, 64, 80
1, 59757, Note_on_c, 0, 54, 55
1, 59758, Control_c, 0, 64, 63
1, 59763, Note_off_c, 0, 66, 37
1, 59773, Control_c, 0, 64, 0
1, 59776, Note_on_c, 0, 72, 71
1, 59779, Note_on_c, 0, 68, 69
1, 59802, Note_off_c, 0, 78, 61
1, 59817, Control_c, 0, 64, 38
1, 59839, Control_c, 0, 64, 64
1, 59854, Control_c, 0, 64, 75
1, 59868, Control_c, 0, 64, 94
1, 59883, Control_c, 0, 64, 127
1, 59909, Note_on_c, 0, 63, 78
1, 59917, Note_off_c, 0, 54, 56
1, 59923, Note_off_c, 0, 68, 60
1, 59936, Note_off_c, 0, 72, 61
1, 59961, Note_off_c, 0, 63, 60
1, 60018, Note_on_c, 0, 51, 77
1, 60036, Note_on_c, 0, 80, 76
1, 60112, Note_on_c, 0, 78, 68
1, 60113, Note_on_c, 0, 60, 78
1, 60133, Note_off_c, 0, 51, 62
1, 60134, Note_on_c, 0, 75, 62
1, 60145, Note_off_c, 0, 80, 58
1, 60169, Note_off_c, 0, 60, 63
1, 60206, Note_on_c, 0, 72, 67
1, 60214, Note_off_c, 0, 75, 62
1, 60240, Note_off_c, 0, 78, 54
1, 60250, Note_off_c, 0, 72, 54
1, 60262, Note_on_c, 0, 53, 75
1, 60272, Note_on_c, 0, 80, 71
1, 60339, Note_off_c, 0, 53, 66
1, 60347, Note_on_c, 0, 77, 72
1, 60351, Note_on_c, 0, 61, 91
1, 60357, Note_on_c, 0, 73, 75
1, 60369, Note_off_c, 0, 80, 60
1, 60405, Note_off_c, 0, 61, 60
1, 60425, Note_on_c, 0, 70, 78
1, 60438, Note_off_c, 0, 77, 61
1, 60440, Note_off_c, 0, 73, 59
1, 60476, Note_on_c, 0, 54, 77
1, 60490, Note_off_c, 0, 70, 56
1, 60496, Note_on_c, 0, 80, 82
1, 60557, Note_on_c, 0, 63, 83
1, 60560, Note_on_c, 0, 75, 81
1, 60567, Note_on_c, 0, 72, 71
1, 60599, Note_off_c, 0, 63, 59
1, 60602, Note_off_c, 0, 54, 65
1, 60602, Note_off_c, 0, 80, 60
1, 60656, Note_on_c, 0, 68, 75
1, 60681, Note_on_c, 0, 46, 80
1, 60685, Note_off_c, 0, 72, 60
1, 60711, Note_off_c, 0, 68, 62
1, 60721, Control_c, 0, 64, 124
1, 60722, Note_on_c, 0, 80, 82
1, 60736, Control_c, 0, 64, 77
1, 60751, Control_c, 0, 64, 36
1, 60765, Control_c, 0, 64, 0
1, 60799, Note_on_c, 0, 73, 78
1, 60801, Note_on_c, 0, 70, 77
1, 60804, Note_on_c, 0, 56, 80
1, 60810, Control_c, 0, 64, 71
1, 60810, Note_off_c, 0, 75, 29
1, 60816, Note_off_c, 0, 80, 62
1, 60822, Note_off_c, 0, 46, 61
1, 60825, Control_c, 0, 64, 97
1, 60840, Control_c, 0, 64, 127
1, 60866, Note_off_c, 0, 56, 62
1, 60879, Note_on_c, 0, 65, 77
1, 60895, Note_off_c, 0, 70, 62
1, 60900, Note_off_c, 0, 73, 63
1, 60906, Note_off_c, 0, 65, 63
1, 60959, Note_on_c, 0, 53, 74
1, 60992, Note_on_c, 0, 82, 83
1, 61058, Note_on_c, 0, 80, 71
1, 61060, Note_on_c, 0, 77, 64
1, 61061, Note_on_c, 0, 61, 86
1, 61072, Note_off_c, 0, 53, 63
1, 61087, Note_off_c, 0, 82, 62
1, 61119, Note_off_c, 0, 61, 60
1, 61140, Note_on_c, 0, 73, 68
1, 61141, Note_off_c, 0, 77, 58
1, 61199, Note_on_c, 0, 54, 80
1, 61200, Note_off_c, 0, 73, 62
1, 61207, Note_on_c, 0, 82, 77
1, 61209, Note_off_c, 0, 80, 56
1, 61226, Control_c, 0, 64, 108
1, 61241, Control_c, 0, 64, 89
1, 61256, Control_c, 0, 64, 82
1, 61271, Control_c, 0, 64, 84
1, 61281, Note_on_c, 0, 78, 68
1, 61286, Control_c, 0, 64, 91
1, 61288, Note_on_c, 0, 63, 82
1, 61292, Note_on_c, 0, 75, 59
1, 61300, Control_c, 0, 64, 99
1, 61315, Control_c, 0, 64, 110
1, 61316, Note_off_c, 0, 54, 64
1, 61338, Control_c, 0, 64, 127
1, 61343, Note_off_c, 0, 82, 56
1, 61362, Note_on_c, 0, 72, 65
1, 61384, Note_off_c, 0, 63, 55
1, 61400, Note_off_c, 0, 78, 61
1, 61403, Note_off_c, 0, 75, 60
1, 61419, Note_on_c, 0, 56, 73
1, 61426, Note_off_c, 0, 72, 60
1, 61427, Control_c, 0, 64, 119
1, 61441, Control_c, 0, 64, 90
1, 61445, Note_on_c, 0, 82, 82
1, 61456, Control_c, 0, 64, 74
1, 61471, Control_c, 0, 64, 66
1, 61486, Control_c, 0, 64, 73
1, 61501, Control_c, 0, 64, 83
1, 61515, Control_c, 0, 64, 97
1, 61520, Note_on_c, 0, 77, 75
1, 61529, Note_on_c, 0, 65, 74
1, 61530, Control_c, 0, 64, 127
1, 61534, Note_on_c, 0, 73, 75
1, 61547, Note_off_c, 0, 56, 57
1, 61563, Note_off_c, 0, 82, 59
1, 61574, Note_off_c, 0, 65, 62
1, 61615, Note_on_c, 0, 70, 70
1, 61675, Note_on_c, 0, 48, 64
1, 61680, Note_off_c, 0, 73, 60
1, 61701, Note_on_c, 0, 82, 77
1, 61707, Note_off_c, 0, 77, 61
1, 61719, Note_off_c, 0, 70, 61
1, 61737, Control_c, 0, 64, 120
1, 61752, Control_c, 0, 64, 89
1, 61767, Control_c, 0, 64, 70
1, 61782, Control_c, 0, 64, 49
1, 61797, Control_c, 0, 64, 0
1, 61810, Note_on_c, 0, 58, 67
1, 61812, Control_c, 0, 64, 36
1, 61822, Note_on_c, 0, 72, 61
1, 61825, Note_on_c, 0, 75, 74
1, 61826, Control_c, 0, 64, 65
1, 61836, Note_off_c, 0, 82, 60
1, 61841, Control_c, 0, 64, 76
1, 61847, Note_off_c, 0, 48, 38
1, 61856, Control_c, 0, 64, 95
1, 61871, Control_c, 0, 64, 127
1, 61918, Note_off_c, 0, 72, 61
1, 61939, Note_off_c, 0, 58, 59
1, 61949, Note_on_c, 0, 65, 77
1, 61953, Note_off_c, 0, 75, 53
1, 61972, Note_off_c, 0, 65, 70
1, 62079, Note_on_c, 0, 60, 65
1, 62113, Note_on_c, 0, 84, 71
1, 62187, Note_off_c, 0, 60, 51
1, 62206, Note_off_c, 0, 84, 64
1, 62212, Note_on_c, 0, 82, 78
1, 62220, Note_on_c, 0, 68, 72
1, 62222, Note_on_c, 0, 78, 64
1, 62244, Note_off_c, 0, 68, 68
1, 62312, Note_off_c, 0, 78, 39
1, 62324, Note_on_c, 0, 72, 64
1, 62342, Note_off_c, 0, 72, 66
1, 62362, Note_on_c, 0, 51, 60
1, 62367, Note_on_c, 0, 61, 63
1, 62388, Note_off_c, 0, 51, 66
1, 62391, Poly_aftertouch_c, 0, 73, 0
1, 62406, Note_off_c, 0, 61, 60
1, 62407, Note_on_c, 0, 84, 79
1, 62427, Control_c, 0, 64, 113
1, 62442, Control_c, 0, 64, 87
1, 62456, Control_c, 0, 64, 76
1, 62471, Control_c, 0, 64, 72
1, 62486, Control_c, 0, 64, 74
1, 62497, Note_on_c, 0, 70, 75
1, 62498, Note_on_c, 0, 80, 69
1, 62501, Control_c, 0, 64, 78
1, 62508, Note_on_c, 0, 77, 56
1, 62508, Note_off_c, 0, 84, 60
1, 62514, Note_off_c, 0, 82, 27
1, 62515, Control_c, 0, 64, 84
1, 62530, Control_c, 0, 64, 91
1, 62545, Control_c, 0, 64, 98
1, 62560, Control_c, 0, 64, 104
1, 62575, Control_c, 0, 64, 110
1, 62590, Control_c, 0, 64, 114
1, 62593, Note_off_c, 0, 77, 59
1, 62605, Control_c, 0, 64, 115
1, 62608, Note_on_c, 0, 73, 61
1, 62664, Note_off_c, 0, 80, 51
1, 62673, Note_off_c, 0, 70, 40
1, 62674, Note_off_c, 0, 73, 61
1, 62688, Note_on_c, 0, 63, 65
1, 62694, Note_on_c, 0, 84, 74
1, 62694, Control_c, 0, 64, 114
1, 62694, Control_c, 0, 67, 9
1, 62709, Control_c, 0, 64, 110
1, 62709, Control_c, 0, 67, 12
1, 62723, Control_c, 0, 64, 97
1, 62723, Control_c, 0, 67, 16
1, 62738, Control_c, 0, 64, 86
1, 62738, Control_c, 0, 67, 19
1, 62753, Control_c, 0, 64, 75
1, 62753, Control_c, 0, 67, 21
1, 62768, Control_c, 0, 64, 66
1, 62768, Control_c, 0, 67, 24
1, 62783, Control_c, 0, 64, 56
1, 62783, Control_c, 0, 67, 25
1, 62797, Control_c, 0, 64, 45
1, 62797, Control_c, 0, 67, 27
1, 62812, Control_c, 0, 64, 56
1, 62812, Control_c, 0, 67, 28
1, 62834, Control_c, 0, 64, 63
1, 62834, Control_c, 0, 67, 28
1, 62840, Note_on_c, 0, 78, 69
1, 62847, Note_on_c, 0, 72, 69
1, 62849, Control_c, 0, 64, 65
1, 62849, Control_c, 0, 67, 30
1, 62864, Control_c, 0, 64, 66
1, 62864, Control_c, 0, 67, 32
1, 62879, Control_c, 0, 64, 69
1, 62879, Control_c, 0, 67, 34
1, 62888, Note_off_c, 0, 84, 58
1, 62894, Control_c, 0, 64, 73
1, 62894, Control_c, 0, 67, 37
1, 62909, Control_c, 0, 64, 79
1, 62909, Control_c, 0, 67, 39
1, 62924, Control_c, 0, 64, 84
1, 62924, Control_c, 0, 67, 41
1, 62938, Control_c, 0, 64, 89
1, 62938, Control_c, 0, 67, 42
1, 62943, Note_off_c, 0, 72, 59
1, 62953, Control_c, 0, 64, 92
1, 62953, Control_c, 0, 67, 44
1, 62968, Control_c, 0, 64, 95
1, 62968, Control_c, 0, 67, 46
1, 62978, Note_off_c, 0, 63, 61
1, 62983, Control_c, 0, 64, 96
1, 62983, Control_c, 0, 67, 49
1, 62998, Control_c, 0, 67, 53
1, 62998, Note_on_c, 0, 75, 65
1, 63012, Control_c, 0, 67, 56
1, 63027, Control_c, 0, 67, 58
1, 63042, Control_c, 0, 67, 61
1, 63057, Control_c, 0, 67, 64
1, 63072, Control_c, 0, 64, 96
1, 63072, Control_c, 0, 67, 65
1, 63086, Control_c, 0, 67, 68
1, 63101, Control_c, 0, 67, 70
1, 63116, Note_on_c, 0, 53, 54
1, 63116, Control_c, 0, 64, 97
1, 63116, Control_c, 0, 67, 72
1, 63117, Note_on_c, 0, 60, 38
1, 63130, Control_c, 0, 67, 75
1, 63145, Control_c, 0, 67, 78
1, 63160, Control_c, 0, 67, 81
1, 63171, Note_off_c, 0, 60, 62
1, 63172, Note_off_c, 0, 53, 61
1, 63175, Control_c, 0, 67, 85
1, 63190, Control_c, 0, 67, 88
1, 63204, Control_c, 0, 67, 91
1, 63207, Note_on_c, 0, 84, 71
1, 63219, Control_c, 0, 67, 94
1, 63234, Control_c, 0, 67, 97
1, 63242, Note_off_c, 0, 75, 57
1, 63249, Control_c, 0, 67, 101
1, 63264, Control_c, 0, 67, 104
1, 63278, Control_c, 0, 67, 107
1, 63293, Control_c, 0, 67, 109
1, 63296, Note_off_c, 0, 78, 38
1, 63308, Control_c, 0, 67, 110
1, 63323, Control_c, 0, 67, 112
1, 63338, Control_c, 0, 67, 114
1, 63353, Control_c, 0, 67, 116
1, 63368, Control_c, 0, 67, 118
1, 63383, Control_c, 0, 67, 119
1, 63397, Control_c, 0, 67, 121
1, 63412, Control_c, 0, 67, 122
1, 63424, Note_on_c, 0, 69, 54
1, 63427, Control_c, 0, 64, 97
1, 63427, Control_c, 0, 67, 125
1, 63442, Control_c, 0, 67, 127
1, 63456, Control_c, 0, 64, 96
1, 63471, Control_c, 0, 64, 88
1, 63486, Control_c, 0, 64, 76
1, 63501, Note_on_c, 0, 77, 67
1, 63502, Control_c, 0, 64, 61
1, 63517, Control_c, 0, 64, 0
1, 63548, Note_off_c, 0, 84, 54
1, 63613, Control_c, 0, 64, 65
1, 63627, Control_c, 0, 64, 72
1, 63642, Control_c, 0, 64, 84
1, 63657, Control_c, 0, 64, 103
1, 63672, Control_c, 0, 64, 127
1, 63713, Note_on_c, 0, 72, 50
1, 63735, Note_off_c, 0, 77, 63
1, 63805, Note_off_c, 0, 69, 49
1, 63807, Note_off_c, 0, 72, 60
1, 63821, Note_on_c, 0, 77, 54
1, 63855, Note_off_c, 0, 77, 63
1, 63885, Note_on_c, 0, 80, 65
1, 63928, Note_off_c, 0, 80, 60
1, 63973, Note_on_c, 0, 81, 66
1, 64009, Note_off_c, 0, 81, 54
1, 64026, Note_on_c, 0, 84, 68
1, 64123, Note_on_c, 0, 89, 73
1, 64183, Note_off_c, 0, 84, 28
1, 64199, Note_on_c, 0, 65, 46
1, 64206, Control_c, 0, 64, 126
1, 64220, Control_c, 0, 64, 120
1, 64235, Control_c, 0, 64, 117
1, 64238, Note_on_c, 0, 96, 78
1, 64250, Control_c, 0, 64, 114
1, 64265, Control_c, 0, 64, 111
1, 64280, Control_c, 0, 64, 110
1, 64295, Control_c, 0, 64, 108
1, 64310, Control_c, 0, 64, 107
1, 64333, Control_c, 0, 64, 106
1, 64344, Note_off_c, 0, 89, 37
1, 64348, Control_c, 0, 64, 105
1, 64363, Control_c, 0, 64, 103
1, 64377, Control_c, 0, 64, 102
1, 64392, Control_c, 0, 64, 101
1, 64407, Control_c, 0, 64, 101
1, 64414, Note_off_c, 0, 65, 41
1, 64422, Control_c, 0, 64, 100
1, 64437, Control_c, 0, 64, 100
1, 64451, Control_c, 0, 64, 99
1, 64453, Note_on_c, 0, 66, 44
1, 64466, Control_c, 0, 64, 99
1, 64481, Control_c, 0, 64, 98
1, 64496, Control_c, 0, 64, 94
1, 64510, Control_c, 0, 64, 90
1, 64525, Control_c, 0, 64, 85
1, 64540, Control_c, 0, 64, 80
1, 64555, Control_c, 0, 64, 73
1, 64570, Note_on_c, 0, 90, 67
1, 64570, Control_c, 0, 64, 66
1, 64579, Note_off_c, 0, 96, 56
1, 64584, Control_c, 0, 64, 47
1, 64599, Control_c, 0, 64, 0
1, 64703, Control_c, 0, 64, 34
1, 64718, Control_c, 0, 64, 63
1, 64733, Control_c, 0, 64, 69
1, 64748, Control_c, 0, 64, 74
1, 64750, Note_on_c, 0, 70, 31
1, 64763, Control_c, 0, 64, 79
1, 64777, Control_c, 0, 64, 83
1, 64792, Control_c, 0, 64, 86
1, 64802, Note_on_c, 0, 75, 46
1, 64807, Control_c, 0, 64, 89
1, 64822, Control_c, 0, 64, 92
1, 64823, Note_off_c, 0, 70, 39
1, 64837, Control_c, 0, 64, 93
1, 64851, Control_c, 0, 64, 94
1, 64866, Control_c, 0, 64, 95
1, 64870, Note_off_c, 0, 75, 53
1, 64873, Note_on_c, 0, 77, 44
1, 64873, Note_on_c, 0, 78, 56
1, 64879, Note_off_c, 0, 90, 44
1, 64881, Control_c, 0, 64, 97
1, 64882, Note_off_c, 0, 66, 40
1, 64895, Control_c, 0, 64, 99
1, 64904, Note_off_c, 0, 77, 61
1, 64906, Note_off_c, 0, 78, 65
1, 64910, Control_c, 0, 64, 101
1, 64912, Note_on_c, 0, 82, 63
1, 64971, Note_on_c, 0, 87, 65
1, 64971, Note_off_c, 0, 82, 63
1, 65001, Note_on_c, 0, 63, 52
1, 65016, Note_off_c, 0, 87, 65
1, 65034, Note_on_c, 0, 94, 84
1, 65058, Control_c, 0, 64, 98
1, 65073, Note_off_c, 0, 63, 59
1, 65081, Control_c, 0, 64, 92
1, 65096, Control_c, 0, 64, 82
1, 65110, Note_on_c, 0, 65, 60
1, 65112, Control_c, 0, 64, 73
1, 65126, Control_c, 0, 64, 65
1, 65141, Control_c, 0, 64, 56
1, 65141, Note_on_c, 0, 89, 78
1, 65165, Note_off_c, 0, 94, 63
1, 65171, Control_c, 0, 64, 63
1, 65186, Control_c, 0, 64, 66
1, 65200, Control_c, 0, 64, 70
1, 65215, Control_c, 0, 64, 75
1, 65229, Note_on_c, 0, 70, 58
1, 65230, Control_c, 0, 64, 81
1, 65245, Control_c, 0, 64, 86
1, 65260, Control_c, 0, 64, 90
1, 65271, Note_on_c, 0, 73, 62
1, 65275, Control_c, 0, 64, 93
1, 65289, Control_c, 0, 64, 97
1, 65304, Control_c, 0, 64, 99
1, 65319, Control_c, 0, 64, 101
1, 65335, Note_on_c, 0, 75, 52
1, 65346, Note_off_c, 0, 65, 53
1, 65352, Note_on_c, 0, 77, 41
1, 65364, Note_off_c, 0, 70, 38
1, 65380, Note_off_c, 0, 77, 57
1, 65383, Note_off_c, 0, 73, 55
1, 65394, Note_on_c, 0, 82, 71
1, 65416, Note_off_c, 0, 75, 62
1, 65437, Poly_aftertouch_c, 0, 79, 127
1, 65463, Poly_aftertouch_c, 0, 79, 0
1, 65465, Note_on_c, 0, 85, 70
1, 65465, Note_off_c, 0, 89, 56
1, 65467, Note_off_c, 0, 82, 64
1, 65514, Note_off_c, 0, 85, 65
1, 65517, Note_on_c, 0, 61, 57
1, 65526, Control_c, 0, 64, 100
1, 65540, Note_on_c, 0, 94, 71
1, 65541, Control_c, 0, 64, 98
1, 65556, Control_c, 0, 64, 96
1, 65571, Control_c, 0, 64, 92
1, 65586, Control_c, 0, 64, 87
1, 65600, Control_c, 0, 64, 80
1, 65615, Control_c, 0, 64, 72
1, 65626, Note_on_c, 0, 63, 56
1, 65630, Note_off_c, 0, 61, 52
1, 65630, Control_c, 0, 64, 63
1, 65633, Note_off_c, 0, 94, 64
1, 65636, Note_on_c, 0, 87, 71
1, 65645, Control_c, 0, 64, 0
1, 65704, Control_c, 0, 64, 41
1, 65718, Control_c, 0, 64, 59
1, 65733, Control_c, 0, 64, 65
1, 65745, Note_on_c, 0, 66, 37
1, 65748, Control_c, 0, 64, 72
1, 65763, Control_c, 0, 64, 78
1, 65778, Note_on_c, 0, 70, 49
1, 65778, Control_c, 0, 64, 83
1, 65778, Control_c, 0, 67, 127
1, 65792, Control_c, 0, 64, 87
1, 65807, Control_c, 0, 64, 88
1, 65807, Control_c, 0, 67, 126
1, 65830, Control_c, 0, 64, 89
1, 65845, Control_c, 0, 64, 90
1, 65845, Control_c, 0, 67, 126
1, 65859, Control_c, 0, 64, 91
1, 65862, Note_on_c, 0, 73, 47
1, 65863, Note_off_c, 0, 87, 48
1, 65889, Control_c, 0, 67, 125
1, 65899, Note_off_c, 0, 66, 36
1, 65904, Control_c, 0, 67, 125
1, 65910, Note_on_c, 0, 75, 32
1, 65916, Note_off_c, 0, 70, 58
1, 65919, Control_c, 0, 67, 124
1, 65934, Control_c, 0, 67, 122
1, 65942, Note_off_c, 0, 75, 54
1, 65946, Note_on_c, 0, 78, 52
1, 65949, Control_c, 0, 67, 121
1, 65964, Control_c, 0, 67, 120
1, 65979, Control_c, 0, 67, 119
1, 65994, Control_c, 0, 67, 117
1, 66000, Note_off_c, 0, 73, 53
1, 66006, Note_off_c, 0, 78, 59
1, 66008, Note_on_c, 0, 82, 53
1, 66009, Control_c, 0, 67, 114
1, 66023, Control_c, 0, 67, 112
1, 66038, Control_c, 0, 64, 91
1, 66038, Control_c, 0, 67, 110
1, 66053, Control_c, 0, 64, 90
1, 66053, Control_c, 0, 67, 108
1, 66068, Control_c, 0, 67, 107
1, 66080, Note_off_c, 0, 63, 38
1, 66082, Note_on_c, 0, 89, 65
1, 66083, Control_c, 0, 64, 90
1, 66083, Control_c, 0, 67, 106
1, 66089, Note_off_c, 0, 82, 59
1, 66097, Control_c, 0, 67, 105
1, 66103, Note_on_c, 0, 65, 41
1, 66112, Control_c, 0, 64, 89
1, 66112, Control_c, 0, 67, 104
1, 66127, Control_c, 0, 67, 104
1, 66142, Control_c, 0, 64, 89
1, 66156, Control_c, 0, 64, 88
1, 66171, Control_c, 0, 64, 88
1, 66186, Control_c, 0, 64, 87
1, 66201, Control_c, 0, 64, 85
1, 66216, Control_c, 0, 64, 81
1, 66228, Note_off_c, 0, 65, 30
1, 66230, Control_c, 0, 64, 74
1, 66230, Control_c, 0, 67, 104
1, 66242, Note_off_c, 0, 89, 54
1, 66245, Control_c, 0, 64, 65
1, 66258, Note_on_c, 0, 82, 49
1, 66260, Control_c, 0, 64, 42
1, 66265, Note_on_c, 0, 58, 42
1, 66274, Control_c, 0, 64, 0
1, 66319, Control_c, 0, 64, 35
1, 66334, Control_c, 0, 64, 59
1, 66349, Control_c, 0, 64, 65
1, 66364, Control_c, 0, 64, 70
1, 66373, Note_off_c, 0, 58, 59
1, 66378, Control_c, 0, 64, 75
1, 66393, Control_c, 0, 64, 81
1, 66393, Control_c, 0, 67, 105
1, 66398, Note_on_c, 0, 65, 36
1, 66408, Control_c, 0, 64, 85
1, 66423, Control_c, 0, 64, 90
1, 66438, Control_c, 0, 64, 92
1, 66453, Control_c, 0, 64, 94
1, 66467, Control_c, 0, 64, 96
1, 66467, Control_c, 0, 67, 105
1, 66471, Note_off_c, 0, 65, 50
1, 66482, Control_c, 0, 64, 97
1, 66488, Note_on_c, 0, 70, 52
1, 66499, Note_off_c, 0, 82, 58
1, 66527, Control_c, 0, 67, 106
1, 66541, Note_on_c, 0, 73, 41
1, 66565, Note_on_c, 0, 77, 46
1, 66612, Note_off_c, 0, 77, 55
1, 66632, Note_on_c, 0, 82, 58
1, 66682, Control_c, 0, 64, 96
1, 66691, Note_off_c, 0, 82, 55
1, 66692, Note_off_c, 0, 70, 18
1, 66715, Note_on_c, 0, 85, 48
1, 66718, Note_off_c, 0, 73, 40
1, 66727, Control_c, 0, 64, 96
1, 66727, Control_c, 0, 67, 106
1, 66757, Control_c, 0, 64, 95
1, 66766, Note_off_c, 0, 85, 52
1, 66779, Note_on_c, 0, 63, 38
1, 66787, Control_c, 0, 64, 95
1, 66787, Control_c, 0, 67, 107
1, 66790, Note_on_c, 0, 92, 63
1, 66832, Control_c, 0, 64, 94
1, 66832, Control_c, 0, 67, 107
1, 66846, Control_c, 0, 64, 94
1, 66861, Control_c, 0, 67, 108
1, 66876, Control_c, 0, 67, 108
1, 66891, Control_c, 0, 67, 109
1, 66905, Control_c, 0, 67, 109
1, 66920, Control_c, 0, 64, 92
1, 66931, Note_on_c, 0, 65, 52
1, 66935, Control_c, 0, 64, 86
1, 66935, Control_c, 0, 67, 110
1, 66939, Note_on_c, 0, 89, 61
1, 66947, Note_off_c, 0, 63, 37
1, 66950, Control_c, 0, 64, 75
1, 66950, Control_c, 0, 67, 110
1, 66965, Control_c, 0, 64, 61
1, 66979, Control_c, 0, 64, 0
1, 67001, Note_off_c, 0, 92, 49
1, 67068, Control_c, 0, 64, 65
1, 67083, Control_c, 0, 64, 73
1, 67083, Control_c, 0, 67, 110
1, 67088, Note_on_c, 0, 68, 51
1, 67097, Control_c, 0, 64, 88
1, 67112, Control_c, 0, 64, 104
1, 67115, Note_off_c, 0, 65, 36
1, 67127, Note_off_c, 0, 89, 55
1, 67127, Control_c, 0, 64, 123
1, 67142, Control_c, 0, 64, 127
1, 67142, Control_c, 0, 67, 109
1, 67160, Note_on_c, 0, 73, 54
1, 67186, Control_c, 0, 67, 109
1, 67199, Note_on_c, 0, 75, 52
1, 67208, Note_on_c, 0, 77, 54
1, 67246, Control_c, 0, 67, 108
1, 67248, Note_off_c, 0, 77, 62
1, 67257, Note_on_c, 0, 80, 65
1, 67261, Note_off_c, 0, 68, 44
1, 67268, Note_off_c, 0, 73, 58
1, 67294, Note_off_c, 0, 75, 60
1, 67295, Note_off_c, 0, 80, 61
1, 67301, Note_on_c, 0, 85, 73
1, 67352, Note_off_c, 0, 85, 61
1, 67372, Note_on_c, 0, 61, 68
1, 67375, Note_on_c, 0, 92, 85
1, 67416, Control_c, 0, 64, 106
1, 67431, Control_c, 0, 64, 91
1, 67431, Control_c, 0, 67, 108
1, 67446, Control_c, 0, 64, 77
1, 67461, Control_c, 0, 64, 65
1, 67463, Note_on_c, 0, 87, 88
1, 67470, Note_on_c, 0, 63, 67
1, 67475, Note_off_c, 0, 92, 66
1, 67475, Control_c, 0, 64, 0
1, 67475, Control_c, 0, 67, 107
1, 67502, Note_off_c, 0, 61, 57
1, 67506, Control_c, 0, 64, 34
1, 67520, Control_c, 0, 64, 64
1, 67535, Control_c, 0, 64, 70
1, 67549, Note_on_c, 0, 68, 69
1, 67550, Control_c, 0, 64, 76
1, 67565, Control_c, 0, 64, 85
1, 67580, Control_c, 0, 64, 92
1, 67583, Note_off_c, 0, 63, 62
1, 67595, Control_c, 0, 64, 96
1, 67610, Control_c, 0, 64, 97
1, 67614, Note_on_c, 0, 73, 67
1, 67624, Control_c, 0, 64, 97
1, 67654, Control_c, 0, 64, 98
1, 67669, Control_c, 0, 64, 98
1, 67678, Note_on_c, 0, 74, 62
1, 67694, Note_on_c, 0, 75, 67
1, 67699, Note_off_c, 0, 73, 60
1, 67712, Note_off_c, 0, 68, 54
1, 67720, Note_off_c, 0, 87, 57
1, 67721, Note_off_c, 0, 75, 65
1, 67736, Note_on_c, 0, 80, 67
1, 67753, Note_off_c, 0, 74, 64
1, 67789, Note_on_c, 0, 84, 63
1, 67793, Note_off_c, 0, 80, 62
1, 67839, Note_off_c, 0, 84, 66
1, 67860, Note_on_c, 0, 60, 57
1, 67871, Note_on_c, 0, 92, 80
1, 67891, Control_c, 0, 64, 99
1, 67891, Control_c, 0, 67, 108
1, 67906, Control_c, 0, 64, 100
1, 67906, Control_c, 0, 67, 108
1, 67920, Control_c, 0, 67, 109
1, 67935, Control_c, 0, 64, 99
1, 67950, Control_c, 0, 64, 91
1, 67950, Control_c, 0, 67, 110
1, 67958, Note_off_c, 0, 60, 56
1, 67965, Note_off_c, 0, 92, 64
1, 67965, Control_c, 0, 64, 79
1, 67970, Note_on_c, 0, 85, 73
1, 67980, Control_c, 0, 64, 64
1, 67986, Note_on_c, 0, 61, 53
1, 67994, Control_c, 0, 64, 0
1, 67994, Control_c, 0, 67, 110
1, 68076, Control_c, 0, 64, 32
1, 68084, Note_on_c, 0, 65, 52
1, 68091, Control_c, 0, 64, 67
1, 68106, Control_c, 0, 64, 78
1, 68120, Control_c, 0, 64, 93
1, 68135, Control_c, 0, 64, 113
1, 68150, Control_c, 0, 64, 115
1, 68152, Note_on_c, 0, 68, 52
1, 68209, Control_c, 0, 64, 115
1, 68210, Note_off_c, 0, 65, 38
1, 68224, Control_c, 0, 64, 116
1, 68225, Note_on_c, 0, 72, 49
1, 68241, Note_off_c, 0, 85, 55
1, 68242, Note_on_c, 0, 73, 44
1, 68259, Note_off_c, 0, 68, 46
1, 68276, Note_off_c, 0, 72, 53
1, 68284, Note_on_c, 0, 77, 58
1, 68288, Note_off_c, 0, 73, 45
1, 68329, Control_c, 0, 67, 110
1, 68343, Control_c, 0, 64, 115
1, 68359, Note_off_c, 0, 77, 58
1, 68373, Note_on_c, 0, 80, 54
1, 68382, Note_off_c, 0, 61, 41
1, 68403, Note_on_c, 0, 63, 49
1, 68414, Note_off_c, 0, 80, 59
1, 68426, Note_on_c, 0, 87, 67
1, 68492, Control_c, 0, 64, 115
1, 68492, Control_c, 0, 67, 110
1, 68507, Control_c, 0, 67, 111
1, 68522, Control_c, 0, 67, 111
1, 68537, Control_c, 0, 64, 114
1, 68537, Control_c, 0, 67, 112
1, 68551, Control_c, 0, 64, 106
1, 68566, Control_c, 0, 64, 94
1, 68567, Note_on_c, 0, 80, 59
1, 68569, Note_on_c, 0, 56, 50
1, 68581, Control_c, 0, 64, 81
1, 68584, Note_off_c, 0, 87, 53
1, 68589, Note_off_c, 0, 63, 42
1, 68596, Control_c, 0, 64, 65
1, 68611, Control_c, 0, 64, 0
1, 68611, Control_c, 0, 67, 113
1, 68667, Note_off_c, 0, 56, 62
1, 68684, Control_c, 0, 64, 64
1, 68690, Note_on_c, 0, 63, 53
1, 68699, Control_c, 0, 64, 74
1, 68714, Control_c, 0, 64, 87
1, 68714, Control_c, 0, 67, 112
1, 68729, Control_c, 0, 64, 100
1, 68743, Control_c, 0, 64, 104
1, 68743, Control_c, 0, 67, 111
1, 68772, Note_off_c, 0, 63, 58
1, 68772, Note_on_c, 0, 68, 53
1, 68772, Note_off_c, 0, 80, 60
1, 68788, Control_c, 0, 67, 111
1, 68820, Note_on_c, 0, 72, 48
1, 68859, Note_on_c, 0, 75, 43
1, 68869, Control_c, 0, 67, 110
1, 68875, Note_off_c, 0, 72, 47
1, 68884, Note_off_c, 0, 75, 58
1, 68905, Note_on_c, 0, 80, 57
1, 68960, Note_off_c, 0, 80, 53
1, 68979, Note_on_c, 0, 84, 53
1, 69017, Control_c, 0, 64, 104
1, 69031, Note_off_c, 0, 68, 41
1, 69032, Control_c, 0, 64, 103
1, 69047, Control_c, 0, 64, 103
1, 69063, Note_off_c, 0, 84, 63
1, 69064, Note_on_c, 0, 60, 38
1, 69073, Note_on_c, 0, 90, 64
1, 69076, Control_c, 0, 64, 102
1, 69091, Control_c, 0, 64, 101
1, 69107, Control_c, 0, 64, 101
1, 69122, Control_c, 0, 64, 100
1, 69137, Control_c, 0, 64, 100
1, 69152, Control_c, 0, 64, 99
1, 69166, Control_c, 0, 64, 98
1, 69175, Note_off_c, 0, 60, 56
1, 69181, Control_c, 0, 64, 96
1, 69196, Control_c, 0, 64, 92
1, 69207, Note_off_c, 0, 90, 57
1, 69211, Control_c, 0, 64, 85
1, 69226, Control_c, 0, 64, 75
1, 69229, Note_on_c, 0, 61, 46
1, 69229, Note_on_c, 0, 85, 54
1, 69240, Control_c, 0, 64, 65
1, 69255, Control_c, 0, 64, 0
1, 69300, Control_c, 0, 64, 45
1, 69315, Control_c, 0, 64, 61
1, 69330, Control_c, 0, 64, 67
1, 69344, Control_c, 0, 64, 73
1, 69359, Control_c, 0, 64, 79
1, 69374, Control_c, 0, 64, 87
1, 69389, Control_c, 0, 64, 93
1, 69389, Note_on_c, 0, 66, 40
1, 69404, Control_c, 0, 64, 96
1, 69419, Control_c, 0, 64, 99
1, 69420, Note_on_c, 0, 70, 49
1, 69434, Control_c, 0, 64, 101
1, 69446, Control_c, 0, 64, 102
1, 69459, Note_off_c, 0, 66, 49
1, 69480, Note_off_c, 0, 85, 47
1, 69491, Note_off_c, 0, 70, 61
1, 69496, Note_on_c, 0, 72, 40
1, 69497, Note_on_c, 0, 73, 51
1, 69504, Note_off_c, 0, 61, 53
1, 69505, Control_c, 0, 67, 110
1, 69520, Note_off_c, 0, 73, 59
1, 69526, Note_on_c, 0, 78, 61
1, 69531, Note_off_c, 0, 72, 64
1, 69574, Note_on_c, 0, 82, 61
1, 69594, Note_off_c, 0, 78, 60
1, 69622, Note_on_c, 0, 58, 59
1, 69632, Control_c, 0, 64, 101
1, 69643, Note_on_c, 0, 89, 75
1, 69646, Control_c, 0, 64, 99
1, 69647, Note_off_c, 0, 82, 62
1, 69661, Control_c, 0, 64, 93
1, 69661, Control_c, 0, 67, 109
1, 69676, Control_c, 0, 64, 86
1, 69690, Control_c, 0, 64, 79
1, 69705, Control_c, 0, 64, 71
1, 69710, Note_on_c, 0, 60, 54
1, 69720, Note_off_c, 0, 89, 52
1, 69720, Control_c, 0, 64, 64
1, 69720, Control_c, 0, 67, 109
1, 69735, Control_c, 0, 64, 54
1, 69744, Note_on_c, 0, 84, 75
1, 69750, Note_off_c, 0, 58, 35
1, 69750, Control_c, 0, 64, 55
1, 69750, Control_c, 0, 67, 108
1, 69765, Control_c, 0, 64, 64
1, 69780, Control_c, 0, 64, 68
1, 69795, Control_c, 0, 64, 74
1, 69795, Control_c, 0, 67, 108
1, 69809, Control_c, 0, 64, 81
1, 69811, Note_on_c, 0, 65, 64
1, 69822, Note_off_c, 0, 60, 64
1, 69824, Control_c, 0, 64, 86
1, 69824, Control_c, 0, 67, 107
1, 69839, Control_c, 0, 64, 90
1, 69854, Control_c, 0, 64, 92
1, 69869, Control_c, 0, 64, 93
1, 69873, Note_off_c, 0, 84, 53
1, 69878, Note_on_c, 0, 68, 52
1, 69884, Control_c, 0, 64, 94
1, 69899, Control_c, 0, 64, 94
1, 69914, Control_c, 0, 67, 107
1, 69929, Control_c, 0, 64, 95
1, 69932, Note_on_c, 0, 70, 54
1, 69947, Note_on_c, 0, 72, 59
1, 69973, Control_c, 0, 67, 106
1, 69997, Note_on_c, 0, 77, 66
1, 70000, Note_off_c, 0, 68, 38
1, 70001, Note_off_c, 0, 65, 31
1, 70004, Note_off_c, 0, 72, 57
1, 70032, Note_off_c, 0, 70, 59
1, 70050, Note_on_c, 0, 80, 74
1, 70059, Note_off_c, 0, 77, 63
1, 70131, Note_on_c, 0, 56, 68
1, 70136, Control_c, 0, 64, 94
1, 70147, Note_on_c, 0, 87, 87
1, 70151, Control_c, 0, 67, 106
1, 70166, Note_off_c, 0, 80, 61
1, 70166, Control_c, 0, 64, 94
1, 70181, Control_c, 0, 64, 92
1, 70196, Control_c, 0, 64, 88
1, 70211, Control_c, 0, 64, 82
1, 70226, Control_c, 0, 64, 73
1, 70234, Note_on_c, 0, 58, 70
1, 70240, Control_c, 0, 64, 65
1, 70255, Note_on_c, 0, 82, 86
1, 70255, Control_c, 0, 64, 45
1, 70260, Note_off_c, 0, 56, 50
1, 70266, Note_off_c, 0, 87, 60
1, 70270, Control_c, 0, 64, 27
1, 70270, Control_c, 0, 67, 105
1, 70285, Control_c, 0, 64, 51
1, 70300, Control_c, 0, 64, 62
1, 70300, Control_c, 0, 67, 105
1, 70322, Control_c, 0, 64, 66
1, 70334, Note_on_c, 0, 80, 14
1, 70334, Note_on_c, 0, 63, 71
1, 70337, Control_c, 0, 64, 70
1, 70348, Note_off_c, 0, 58, 64
1, 70352, Control_c, 0, 64, 75
1, 70367, Control_c, 0, 64, 81
1, 70367, Control_c, 0, 67, 104
1, 70379, Note_on_c, 0, 66, 62
1, 70382, Control_c, 0, 64, 87
1, 70382, Control_c, 0, 67, 103
1, 70397, Control_c, 0, 64, 91
1, 70397, Control_c, 0, 67, 102
1, 70411, Control_c, 0, 64, 95
1, 70411, Control_c, 0, 67, 101
1, 70419, Note_off_c, 0, 80, 33
1, 70426, Control_c, 0, 64, 99
1, 70426, Control_c, 0, 67, 98
1, 70440, Note_on_c, 0, 68, 66
1, 70440, Control_c, 0, 64, 102
1, 70440, Control_c, 0, 67, 94
1, 70455, Control_c, 0, 64, 103
1, 70455, Control_c, 0, 67, 88
1, 70470, Control_c, 0, 67, 79
1, 70485, Control_c, 0, 67, 68
1, 70487, Note_on_c, 0, 70, 62
1, 70500, Control_c, 0, 67, 57
1, 70503, Note_off_c, 0, 66, 55
1, 70505, Note_off_c, 0, 63, 55
1, 70514, Control_c, 0, 67, 48
1, 70529, Control_c, 0, 64, 104
1, 70529, Control_c, 0, 67, 39
1, 70537, Note_off_c, 0, 70, 56
1, 70537, Note_off_c, 0, 82, 37
1, 70541, Note_on_c, 0, 75, 65
1, 70544, Control_c, 0, 67, 31
1, 70548, Note_off_c, 0, 68, 60
1, 70559, Control_c, 0, 67, 22
1, 70574, Control_c, 0, 67, 12
1, 70588, Control_c, 0, 67, 0
1, 70591, Note_on_c, 0, 78, 74
1, 70631, Note_off_c, 0, 75, 58
1, 70647, Control_c, 0, 64, 103
1, 70649, Note_on_c, 0, 54, 63
1, 70677, Control_c, 0, 64, 102
1, 70680, Note_on_c, 0, 85, 85
1, 70688, Note_off_c, 0, 78, 63
1, 70693, Control_c, 0, 64, 99
1, 70708, Control_c, 0, 64, 93
1, 70723, Control_c, 0, 64, 84
1, 70737, Control_c, 0, 64, 74
1, 70750, Note_on_c, 0, 56, 69
1, 70752, Control_c, 0, 64, 64
1, 70766, Note_off_c, 0, 54, 50
1, 70767, Control_c, 0, 64, 38
1, 70775, Note_on_c, 0, 80, 78
1, 70782, Control_c, 0, 64, 30
1, 70789, Note_off_c, 0, 85, 60
1, 70797, Control_c, 0, 64, 60
1, 70811, Control_c, 0, 64, 66
1, 70826, Control_c, 0, 64, 70
1, 70841, Control_c, 0, 64, 76
1, 70853, Note_on_c, 0, 61, 63
1, 70856, Control_c, 0, 64, 84
1, 70862, Note_off_c, 0, 56, 53
1, 70871, Control_c, 0, 64, 92
1, 70886, Control_c, 0, 64, 98
1, 70895, Note_on_c, 0, 65, 64
1, 70900, Control_c, 0, 64, 102
1, 70915, Control_c, 0, 64, 103
1, 70933, Note_off_c, 0, 80, 58
1, 70945, Control_c, 0, 64, 104
1, 70955, Note_on_c, 0, 66, 67
1, 70963, Note_on_c, 0, 68, 68
1, 70971, Note_off_c, 0, 65, 62
1, 70980, Note_off_c, 0, 61, 58
1, 71009, Note_off_c, 0, 68, 60
1, 71019, Control_c, 0, 64, 104
1, 71020, Note_on_c, 0, 73, 66
1, 71034, Control_c, 0, 64, 105
1, 71046, Note_off_c, 0, 66, 60
1, 71049, Control_c, 0, 64, 105
1, 71070, Control_c, 0, 64, 106
1, 71075, Note_on_c, 0, 77, 72
1, 71085, Control_c, 0, 64, 107
1, 71100, Control_c, 0, 64, 108
1, 71112, Note_off_c, 0, 73, 62
1, 71115, Control_c, 0, 64, 110
1, 71124, Note_on_c, 0, 54, 65
1, 71130, Control_c, 0, 64, 110
1, 71145, Control_c, 0, 64, 111
1, 71164, Note_on_c, 0, 84, 83
1, 71180, Note_off_c, 0, 77, 62
1, 71190, Control_c, 0, 64, 113
1, 71205, Control_c, 0, 64, 121
1, 71219, Control_c, 0, 64, 127
1, 71236, Note_on_c, 0, 55, 53
1, 71236, Note_off_c, 0, 54, 65
1, 71268, Note_on_c, 0, 79, 84
1, 71276, Note_off_c, 0, 84, 59
1, 71278, Control_c, 0, 64, 108
1, 71293, Control_c, 0, 64, 85
1, 71308, Control_c, 0, 64, 64
1, 71323, Control_c, 0, 64, 0
1, 71382, Control_c, 0, 64, 62
1, 71397, Control_c, 0, 64, 73
1, 71411, Control_c, 0, 64, 89
1, 71423, Note_on_c, 0, 60, 4
1, 71424, Note_on_c, 0, 59, 11
1, 71426, Control_c, 0, 64, 127
1, 71431, Note_on_c, 0, 64, 60
1, 71468, Note_off_c, 0, 60, 48
1, 71482, Note_off_c, 0, 59, 50
1, 71485, Note_on_c, 0, 67, 61
1, 71497, Note_off_c, 0, 79, 44
1, 71506, Note_on_c, 0, 65, 49
1, 71509, Note_off_c, 0, 55, 62
1, 71516, Note_off_c, 0, 64, 59
1, 71536, Note_on_c, 0, 72, 59
1, 71562, Note_off_c, 0, 67, 58
1, 71583, Note_off_c, 0, 65, 57
1, 71596, Note_on_c, 0, 76, 69
1, 71610, Note_off_c, 0, 72, 59
1, 71676, Note_on_c, 0, 53, 57
1, 71684, Note_off_c, 0, 76, 63
1, 71688, Note_on_c, 0, 83, 77
1, 71708, Control_c, 0, 64, 108
1, 71723, Control_c, 0, 64, 90
1, 71738, Control_c, 0, 64, 76
1, 71753, Control_c, 0, 64, 62
1, 71768, Control_c, 0, 64, 0
1, 71783, Note_on_c, 0, 78, 73
1, 71785, Note_off_c, 0, 53, 62
1, 71792, Note_off_c, 0, 83, 60
1, 71798, Control_c, 0, 64, 27
1, 71799, Note_on_c, 0, 54, 59
1, 71820, Control_c, 0, 64, 57
1, 71835, Control_c, 0, 64, 64
1, 71849, Control_c, 0, 64, 70
1, 71864, Control_c, 0, 64, 76
1, 71879, Control_c, 0, 64, 82
1, 71893, Note_on_c, 0, 59, 50
1, 71893, Control_c, 0, 64, 88
1, 71908, Control_c, 0, 64, 93
1, 71923, Control_c, 0, 64, 97
1, 71938, Control_c, 0, 64, 99
1, 71951, Note_on_c, 0, 63, 60
1, 71953, Control_c, 0, 64, 102
1, 71968, Control_c, 0, 64, 103
1, 72011, Note_on_c, 0, 65, 51
1, 72015, Note_on_c, 0, 66, 51
1, 72021, Note_off_c, 0, 59, 38
1, 72055, Note_off_c, 0, 63, 39
1, 72060, Note_off_c, 0, 65, 60
1, 72080, Note_on_c, 0, 71, 53
1, 72090, Note_off_c, 0, 78, 33
1, 72096, Note_off_c, 0, 54, 50
1, 72101, Note_off_c, 0, 66, 58
1, 72149, Note_on_c, 0, 75, 65
1, 72150, Note_off_c, 0, 71, 60
1, 72237, Note_on_c, 0, 49, 53
1, 72264, Note_off_c, 0, 75, 58
1, 72265, Note_on_c, 0, 82, 74
1, 72322, Note_off_c, 0, 49, 58
1, 72369, Control_c, 0, 64, 102
1, 72383, Control_c, 0, 64, 99
1, 72398, Control_c, 0, 64, 92
1, 72413, Control_c, 0, 64, 83
1, 72428, Control_c, 0, 64, 68
1, 72439, Note_on_c, 0, 78, 63
1, 72443, Control_c, 0, 64, 0
1, 72443, Control_c, 0, 67, 9
1, 72448, Note_on_c, 0, 50, 50
1, 72457, Control_c, 0, 67, 11
1, 72472, Control_c, 0, 67, 13
1, 72487, Control_c, 0, 67, 15
1, 72494, Note_off_c, 0, 82, 56
1, 72502, Control_c, 0, 67, 18
1, 72516, Control_c, 0, 67, 21
1, 72531, Control_c, 0, 64, 57
1, 72531, Control_c, 0, 67, 25
1, 72546, Control_c, 0, 64, 70
1, 72546, Control_c, 0, 67, 31
1, 72569, Control_c, 0, 64, 81
1, 72569, Control_c, 0, 67, 35
1, 72584, Control_c, 0, 64, 98
1, 72584, Control_c, 0, 67, 37
1, 72594, Note_off_c, 0, 50, 57
1, 72598, Control_c, 0, 64, 120
1, 72598, Control_c, 0, 67, 38
1, 72613, Note_on_c, 0, 57, 52
1, 72613, Control_c, 0, 64, 126
1, 72613, Control_c, 0, 67, 40
1, 72628, Control_c, 0, 67, 42
1, 72642, Control_c, 0, 67, 44
1, 72657, Control_c, 0, 67, 46
1, 72672, Control_c, 0, 67, 48
1, 72682, Note_on_c, 0, 60, 46
1, 72687, Control_c, 0, 67, 50
1, 72702, Control_c, 0, 67, 52
1, 72711, Note_off_c, 0, 78, 57
1, 72716, Control_c, 0, 67, 55
1, 72731, Control_c, 0, 67, 58
1, 72746, Control_c, 0, 67, 61
1, 72751, Note_on_c, 0, 65, 49
1, 72761, Control_c, 0, 67, 64
1, 72776, Control_c, 0, 67, 66
1, 72790, Control_c, 0, 67, 66
1, 72804, Note_off_c, 0, 65, 53
1, 72820, Control_c, 0, 67, 67
1, 72826, Note_on_c, 0, 66, 49
1, 72835, Control_c, 0, 67, 67
1, 72858, Note_off_c, 0, 60, 46
1, 72875, Note_off_c, 0, 66, 57
1, 72880, Note_off_c, 0, 57, 38
1, 72880, Control_c, 0, 64, 124
1, 72910, Control_c, 0, 67, 67
1, 72924, Control_c, 0, 64, 123
1, 72924, Control_c, 0, 67, 66
1, 72925, Note_on_c, 0, 71, 48
1, 72954, Control_c, 0, 67, 66
1, 72969, Control_c, 0, 67, 65
1, 72984, Control_c, 0, 67, 64
1, 72998, Control_c, 0, 67, 63
1, 73013, Control_c, 0, 67, 60
1, 73028, Control_c, 0, 67, 58
1, 73042, Control_c, 0, 67, 57
1, 73053, Note_off_c, 0, 71, 52
1, 73054, Note_on_c, 0, 72, 57
1, 73057, Control_c, 0, 67, 56
1, 73072, Control_c, 0, 67, 54
1, 73088, Control_c, 0, 64, 122
1, 73088, Control_c, 0, 67, 53
1, 73103, Control_c, 0, 67, 52
1, 73106, Note_off_c, 0, 72, 59
1, 73118, Control_c, 0, 67, 51
1, 73132, Control_c, 0, 64, 121
1, 73147, Control_c, 0, 64, 119
1, 73147, Control_c, 0, 67, 52
1, 73162, Control_c, 0, 64, 118
1, 73162, Control_c, 0, 67, 52
1, 73177, Control_c, 0, 64, 116
1, 73191, Control_c, 0, 64, 115
1, 73205, Control_c, 0, 64, 114
1, 73213, Note_on_c, 0, 41, 39
1, 73220, Control_c, 0, 64, 111
1, 73220, Control_c, 0, 67, 53
1, 73232, Note_on_c, 0, 81, 61
1, 73235, Control_c, 0, 64, 108
1, 73235, Control_c, 0, 67, 54
1, 73250, Control_c, 0, 64, 105
1, 73250, Control_c, 0, 67, 55
1, 73264, Control_c, 0, 64, 103
1, 73264, Control_c, 0, 67, 56
1, 73279, Control_c, 0, 64, 101
1, 73279, Control_c, 0, 67, 57
1, 73294, Control_c, 0, 64, 99
1, 73294, Control_c, 0, 67, 59
1, 73317, Control_c, 0, 64, 96
1, 73317, Control_c, 0, 67, 61
1, 73332, Control_c, 0, 64, 92
1, 73332, Control_c, 0, 67, 61
1, 73346, Control_c, 0, 64, 89
1, 73361, Control_c, 0, 64, 87
1, 73376, Control_c, 0, 64, 84
1, 73376, Control_c, 0, 67, 62
1, 73391, Control_c, 0, 64, 82
1, 73391, Control_c, 0, 67, 63
1, 73406, Control_c, 0, 64, 80
1, 73406, Control_c, 0, 67, 65
1, 73420, Control_c, 0, 64, 79
1, 73420, Control_c, 0, 67, 68
1, 73435, Control_c, 0, 64, 78
1, 73435, Control_c, 0, 67, 68
1, 73450, Control_c, 0, 64, 76
1, 73450, Control_c, 0, 67, 69
1, 73464, Control_c, 0, 64, 73
1, 73464, Control_c, 0, 67, 71
1, 73475, Note_on_c, 0, 51, 35
1, 73479, Control_c, 0, 64, 70
1, 73479, Control_c, 0, 67, 76
1, 73494, Control_c, 0, 64, 67
1, 73494, Control_c, 0, 67, 82
1, 73509, Control_c, 0, 64, 63
1, 73509, Control_c, 0, 67, 90
1, 73524, Control_c, 0, 64, 51
1, 73524, Control_c, 0, 67, 96
1, 73539, Control_c, 0, 64, 0
1, 73539, Control_c, 0, 67, 102
1, 73553, Control_c, 0, 67, 106
1, 73562, Note_on_c, 0, 77, 50
1, 73568, Control_c, 0, 67, 110
1, 73583, Control_c, 0, 67, 111
1, 73628, Control_c, 0, 67, 112
1, 73636, Note_off_c, 0, 81, 55
1, 73657, Control_c, 0, 64, 66
1, 73672, Control_c, 0, 64, 75
1, 73687, Control_c, 0, 64, 82
1, 73702, Control_c, 0, 64, 90
1, 73708, Note_off_c, 0, 41, 40
1, 73717, Control_c, 0, 64, 92
1, 73761, Control_c, 0, 64, 93
1, 73761, Control_c, 0, 67, 111
1, 73791, Control_c, 0, 64, 94
1, 73800, Note_off_c, 0, 51, 42
1, 73805, Control_c, 0, 64, 96
1, 73805, Control_c, 0, 67, 111
1, 73820, Control_c, 0, 64, 98
1, 73820, Control_c, 0, 67, 110
1, 73835, Control_c, 0, 64, 100
1, 73850, Control_c, 0, 64, 101
1, 73864, Control_c, 0, 64, 101
1, 73880, Control_c, 0, 64, 102
1, 73895, Control_c, 0, 64, 103
1, 73910, Control_c, 0, 64, 104
1, 73925, Control_c, 0, 64, 105
1, 73941, Control_c, 0, 64, 106
1, 73941, Control_c, 0, 67, 110
1, 73955, Control_c, 0, 64, 107
1, 73970, Control_c, 0, 64, 108
1, 73971, Note_on_c, 0, 57, 35
1, 73985, Control_c, 0, 64, 109
1, 74000, Control_c, 0, 64, 110
1, 74015, Control_c, 0, 64, 110
1, 74029, Control_c, 0, 64, 111
1, 74066, Control_c, 0, 64, 112
1, 74120, Note_off_c, 0, 57, 38
1, 74132, Note_on_c, 0, 60, 39
1, 74179, Note_off_c, 0, 60, 51
1, 74200, Control_c, 0, 64, 111
1, 74200, Control_c, 0, 67, 110
1, 74230, Control_c, 0, 64, 110
1, 74231, Note_on_c, 0, 63, 38
1, 74244, Control_c, 0, 64, 109
1, 74259, Control_c, 0, 64, 108
1, 74274, Control_c, 0, 64, 107
1, 74288, Control_c, 0, 64, 106
1, 74296, Note_off_c, 0, 63, 39
1, 74303, Control_c, 0, 64, 106
1, 74318, Control_c, 0, 64, 104
1, 74326, Note_on_c, 0, 69, 47
1, 74333, Control_c, 0, 64, 103
1, 74348, Control_c, 0, 64, 102
1, 74362, Control_c, 0, 64, 101
1, 74377, Control_c, 0, 64, 100
1, 74377, Control_c, 0, 67, 111
1, 74392, Control_c, 0, 64, 99
1, 74398, Note_off_c, 0, 69, 49
1, 74406, Control_c, 0, 64, 98
1, 74421, Control_c, 0, 64, 96
1, 74436, Control_c, 0, 64, 96
1, 74441, Note_on_c, 0, 70, 42
1, 74451, Control_c, 0, 64, 95
1, 74466, Control_c, 0, 64, 93
1, 74481, Control_c, 0, 64, 90
1, 74495, Control_c, 0, 64, 86
1, 74510, Control_c, 0, 64, 83
1, 74525, Control_c, 0, 64, 79
1, 74526, Note_off_c, 0, 77, 60
1, 74540, Control_c, 0, 64, 77
1, 74541, Note_on_c, 0, 78, 57
1, 74555, Control_c, 0, 64, 74
1, 74570, Control_c, 0, 64, 71
1, 74585, Control_c, 0, 64, 68
1, 74600, Control_c, 0, 64, 66
1, 74647, Note_off_c, 0, 70, 33
1, 74674, Control_c, 0, 64, 66
1, 74689, Control_c, 0, 64, 64
1, 74704, Control_c, 0, 64, 62
1, 74713, Note_on_c, 0, 71, 38
1, 74719, Control_c, 0, 64, 57
1, 74734, Control_c, 0, 64, 47
1, 74749, Control_c, 0, 64, 29
1, 74764, Control_c, 0, 64, 0
1, 74773, Note_on_c, 0, 75, 47
1, 74789, Note_off_c, 0, 78, 38
1, 74830, Control_c, 0, 64, 17
1, 74845, Control_c, 0, 64, 39
1, 74859, Control_c, 0, 64, 50
1, 74874, Control_c, 0, 64, 56
1, 74889, Control_c, 0, 64, 62
1, 74904, Control_c, 0, 64, 65
1, 74918, Note_off_c, 0, 71, 38
1, 74919, Control_c, 0, 64, 67
1, 74934, Control_c, 0, 64, 70
1, 74949, Control_c, 0, 64, 72
1, 74951, Note_on_c, 0, 72, 38
1, 74963, Control_c, 0, 64, 74
1, 74978, Control_c, 0, 64, 76
1, 74993, Control_c, 0, 64, 79
1, 75008, Control_c, 0, 64, 81
1, 75023, Control_c, 0, 64, 83
1, 75037, Control_c, 0, 64, 86
1, 75052, Control_c, 0, 64, 88
1, 75053, Note_on_c, 0, 68, 35
1, 75067, Control_c, 0, 64, 90
1, 75082, Control_c, 0, 64, 91
1, 75103, Note_on_c, 0, 69, 40
1, 75154, Note_off_c, 0, 69, 51
1, 75176, Note_on_c, 0, 63, 36
1, 75215, Control_c, 0, 64, 91
1, 75229, Control_c, 0, 64, 89
1, 75230, Note_off_c, 0, 75, 57
1, 75238, Note_off_c, 0, 63, 58
1, 75244, Control_c, 0, 64, 86
1, 75245, Note_off_c, 0, 72, 42
1, 75248, Note_on_c, 0, 77, 63
1, 75253, Note_on_c, 0, 60, 41
1, 75259, Control_c, 0, 64, 82
1, 75273, Note_off_c, 0, 68, 51
1, 75274, Control_c, 0, 64, 75
1, 75289, Control_c, 0, 64, 68
1, 75301, Note_off_c, 0, 60, 58
1, 75303, Control_c, 0, 64, 60
1, 75318, Control_c, 0, 64, 30
1, 75333, Control_c, 0, 64, 0
1, 75344, Note_on_c, 0, 73, 65
1, 75348, Control_c, 0, 64, 38
1, 75363, Control_c, 0, 64, 54
1, 75375, Note_off_c, 0, 77, 54
1, 75378, Control_c, 0, 64, 59
1, 75393, Control_c, 0, 64, 63
1, 75408, Control_c, 0, 64, 66
1, 75423, Control_c, 0, 64, 70
1, 75426, Note_on_c, 0, 70, 57
1, 75437, Control_c, 0, 64, 73
1, 75452, Control_c, 0, 64, 78
1, 75467, Control_c, 0, 64, 81
1, 75482, Control_c, 0, 64, 83
1, 75497, Control_c, 0, 64, 85
1, 75512, Control_c, 0, 64, 86
1, 75516, Note_on_c, 0, 66, 44
1, 75518, Note_on_c, 0, 67, 49
1, 75527, Control_c, 0, 64, 87
1, 75577, Note_off_c, 0, 67, 52
1, 75582, Note_on_c, 0, 61, 53
1, 75616, Note_off_c, 0, 73, 53
1, 75646, Note_off_c, 0, 61, 48
1, 75663, Note_on_c, 0, 58, 50
1, 75682, Control_c, 0, 64, 86
1, 75697, Note_on_c, 0, 75, 73
1, 75697, Control_c, 0, 64, 85
1, 75709, Note_off_c, 0, 70, 55
1, 75712, Control_c, 0, 64, 82
1, 75727, Control_c, 0, 64, 78
1, 75730, Note_off_c, 0, 66, 58
1, 75732, Note_off_c, 0, 58, 46
1, 75741, Control_c, 0, 64, 70
1, 75756, Control_c, 0, 64, 63
1, 75771, Control_c, 0, 64, 23
1, 75786, Control_c, 0, 64, 0
1, 75792, Note_on_c, 0, 72, 67
1, 75816, Control_c, 0, 64, 48
1, 75831, Control_c, 0, 64, 59
1, 75831, Control_c, 0, 67, 111
1, 75846, Control_c, 0, 64, 64
1, 75850, Note_on_c, 0, 69, 61
1, 75860, Control_c, 0, 64, 68
1, 75867, Note_off_c, 0, 75, 57
1, 75875, Control_c, 0, 64, 72
1, 75890, Control_c, 0, 64, 76
1, 75905, Control_c, 0, 64, 81
1, 75920, Control_c, 0, 64, 85
1, 75929, Note_off_c, 0, 72, 62
1, 75934, Control_c, 0, 64, 89
1, 75939, Note_off_c, 0, 69, 61
1, 75946, Note_on_c, 0, 65, 61
1, 75949, Control_c, 0, 64, 91
1, 75956, Note_on_c, 0, 66, 60
1, 75964, Control_c, 0, 64, 92
1, 75979, Control_c, 0, 64, 93
1, 76014, Note_on_c, 0, 60, 52
1, 76015, Note_off_c, 0, 65, 49
1, 76016, Note_off_c, 0, 66, 61
1, 76038, Control_c, 0, 64, 92
1, 76063, Note_on_c, 0, 57, 57
1, 76082, Control_c, 0, 64, 92
1, 76090, Note_off_c, 0, 60, 62
1, 76097, Control_c, 0, 64, 91
1, 76126, Control_c, 0, 64, 90
1, 76129, Note_on_c, 0, 69, 77
1, 76141, Control_c, 0, 64, 89
1, 76156, Control_c, 0, 64, 87
1, 76171, Control_c, 0, 64, 84
1, 76186, Control_c, 0, 64, 82
1, 76189, Note_off_c, 0, 57, 53
1, 76201, Control_c, 0, 64, 78
1, 76210, Note_on_c, 0, 66, 74
1, 76213, Note_off_c, 0, 69, 61
1, 76215, Control_c, 0, 64, 70
1, 76230, Control_c, 0, 64, 62
1, 76245, Control_c, 0, 64, 0
1, 76317, Note_on_c, 0, 63, 73
1, 76328, Control_c, 0, 64, 28
1, 76343, Control_c, 0, 64, 52
1, 76343, Control_c, 0, 67, 111
1, 76357, Control_c, 0, 64, 63
1, 76372, Control_c, 0, 64, 67
1, 76387, Control_c, 0, 64, 70
1, 76387, Control_c, 0, 67, 110
1, 76389, Note_on_c, 0, 59, 58
1, 76391, Note_on_c, 0, 58, 56
1, 76402, Control_c, 0, 64, 73
1, 76417, Control_c, 0, 64, 76
1, 76427, Note_off_c, 0, 59, 59
1, 76432, Control_c, 0, 64, 79
1, 76446, Control_c, 0, 64, 81
1, 76461, Control_c, 0, 64, 84
1, 76468, Note_on_c, 0, 51, 63
1, 76476, Control_c, 0, 64, 86
1, 76490, Control_c, 0, 64, 88
1, 76505, Control_c, 0, 64, 89
1, 76508, Note_off_c, 0, 51, 62
1, 76520, Control_c, 0, 64, 89
1, 76534, Note_on_c, 0, 41, 62
1, 76535, Control_c, 0, 64, 90
1, 76539, Note_off_c, 0, 66, 59
1, 76550, Control_c, 0, 64, 91
1, 76564, Control_c, 0, 64, 91
1, 76579, Control_c, 0, 64, 92
1, 76586, Note_off_c, 0, 41, 57
1, 76589, Note_on_c, 0, 68, 79
1, 76599, Note_off_c, 0, 58, 58
1, 76609, Control_c, 0, 64, 93
1, 76611, Note_off_c, 0, 63, 61
1, 76624, Control_c, 0, 64, 94
1, 76669, Control_c, 0, 64, 92
1, 76677, Note_on_c, 0, 65, 73
1, 76683, Control_c, 0, 64, 87
1, 76683, Control_c, 0, 67, 111
1, 76698, Control_c, 0, 64, 76
1, 76698, Control_c, 0, 67, 111
1, 76713, Control_c, 0, 64, 64
1, 76713, Control_c, 0, 67, 112
1, 76724, Note_off_c, 0, 68, 59
1, 76728, Control_c, 0, 64, 0
1, 76728, Control_c, 0, 67, 112
1, 76779, Note_on_c, 0, 61, 64
1, 76831, Control_c, 0, 64, 60
1, 76838, Note_on_c, 0, 57, 58
1, 76846, Control_c, 0, 64, 69
1, 76861, Control_c, 0, 64, 78
1, 76875, Control_c, 0, 64, 88
1, 76887, Note_on_c, 0, 58, 66
1, 76890, Control_c, 0, 64, 96
1, 76902, Note_off_c, 0, 57, 54
1, 76905, Control_c, 0, 64, 98
1, 76919, Note_off_c, 0, 58, 64
1, 76968, Note_on_c, 0, 51, 58
1, 76996, Note_off_c, 0, 65, 59
1, 77002, Note_off_c, 0, 51, 64
1, 77049, Note_on_c, 0, 41, 50
1, 77105, Note_on_c, 0, 66, 72
1, 77107, Control_c, 0, 64, 97
1, 77122, Control_c, 0, 64, 96
1, 77137, Control_c, 0, 64, 95
1, 77147, Note_off_c, 0, 61, 62
1, 77151, Control_c, 0, 64, 92
1, 77166, Control_c, 0, 64, 86
1, 77181, Control_c, 0, 64, 78
1, 77181, Control_c, 0, 67, 113
1, 77196, Control_c, 0, 64, 68
1, 77196, Control_c, 0, 67, 113
1, 77211, Control_c, 0, 64, 21
1, 77211, Control_c, 0, 67, 114
1, 77220, Note_on_c, 0, 63, 69
1, 77226, Control_c, 0, 64, 0
1, 77226, Control_c, 0, 67, 114
1, 77240, Control_c, 0, 67, 115
1, 77255, Control_c, 0, 67, 119
1, 77270, Control_c, 0, 67, 120
1, 77285, Control_c, 0, 67, 121
1, 77286, Note_off_c, 0, 66, 53
1, 77300, Control_c, 0, 67, 122
1, 77307, Note_off_c, 0, 41, 25
1, 77314, Control_c, 0, 67, 122
1, 77341, Note_on_c, 0, 60, 57
1, 77403, Control_c, 0, 64, 58
1, 77418, Control_c, 0, 64, 74
1, 77432, Control_c, 0, 64, 90
1, 77447, Control_c, 0, 64, 127
1, 77447, Control_c, 0, 67, 122
1, 77459, Note_on_c, 0, 56, 58
1, 77492, Control_c, 0, 67, 121
1, 77522, Note_on_c, 0, 57, 52
1, 77610, Control_c, 0, 67, 121
1, 77613, Note_off_c, 0, 60, 58
1, 77620, Note_off_c, 0, 56, 56
1, 77623, Note_off_c, 0, 63, 55
1, 77625, Control_c, 0, 67, 120
1, 77663, Note_off_c, 0, 57, 50
1, 77668, Note_on_c, 0, 51, 60
1, 77684, Control_c, 0, 67, 119
1, 77699, Control_c, 0, 67, 119
1, 77713, Control_c, 0, 67, 118
1, 77728, Control_c, 0, 67, 117
1, 77743, Control_c, 0, 67, 117
1, 77758, Control_c, 0, 67, 116
1, 77772, Control_c, 0, 67, 114
1, 77787, Control_c, 0, 67, 112
1, 77810, Control_c, 0, 67, 107
1, 77825, Control_c, 0, 67, 101
1, 77834, Note_on_c, 0, 41, 64
1, 77839, Control_c, 0, 67, 92
1, 77854, Control_c, 0, 67, 84
1, 77869, Control_c, 0, 67, 74
1, 77885, Control_c, 0, 67, 61
1, 77900, Control_c, 0, 67, 44
1, 77915, Control_c, 0, 67, 25
1, 77929, Control_c, 0, 67, 13
1, 77944, Control_c, 0, 67, 0
1, 78111, Note_on_c, 0, 29, 83
1, 78115, Note_off_c, 0, 41, 54
1, 78202, Note_off_c, 0, 29, 63
1, 78202, Note_off_c, 0, 51, 57
1, 78493, Note_on_c, 0, 51, 62
1, 78573, Note_on_c, 0, 54, 68
1, 78639, Note_on_c, 0, 57, 71
1, 78676, Note_on_c, 0, 60, 71
1, 78681, Note_off_c, 0, 57, 60
1, 78683, Note_off_c, 0, 51, 62
1, 78693, Note_off_c, 0, 54, 61
1, 78733, Note_on_c, 0, 63, 79
1, 78773, Note_off_c, 0, 60, 62
1, 78791, Note_on_c, 0, 69, 78
1, 78811, Note_off_c, 0, 63, 63
1, 78859, Note_on_c, 0, 72, 90
1, 78879, Note_off_c, 0, 69, 67
1, 78933, Note_off_c, 0, 72, 62
1, 78992, Note_on_c, 0, 78, 93
1, 79000, Note_on_c, 0, 75, 72
1, 79042, Note_off_c, 0, 78, 64
1, 79058, Note_off_c, 0, 75, 60
1, 79230, Note_on_c, 0, 75, 62
1, 79472, Note_off_c, 0, 75, 58
1, 79489, Note_on_c, 0, 77, 55
1, 79638, Note_on_c, 0, 73, 58
1, 79745, Note_on_c, 0, 76, 59
1, 79747, Note_off_c, 0, 73, 59
1, 79760, Note_off_c, 0, 77, 35
1, 79790, Note_off_c, 0, 76, 60
1, 79816, Note_on_c, 0, 72, 61
1, 79862, Note_off_c, 0, 72, 57
1, 79882, Note_on_c, 0, 75, 69
1, 79966, Note_on_c, 0, 69, 66
1, 79968, Note_off_c, 0, 75, 62
1, 80005, Control_c, 0, 64, 118
1, 80019, Control_c, 0, 64, 109
1, 80034, Control_c, 0, 64, 102
1, 80057, Control_c, 0, 64, 96
1, 80057, Control_c, 0, 67, 8
1, 80072, Control_c, 0, 64, 91
1, 80072, Control_c, 0, 67, 9
1, 80087, Control_c, 0, 64, 88
1, 80087, Control_c, 0, 67, 11
1, 80102, Control_c, 0, 64, 85
1, 80102, Control_c, 0, 67, 13
1, 80105, Note_on_c, 0, 78, 86
1, 80116, Control_c, 0, 64, 82
1, 80116, Control_c, 0, 67, 14
1, 80131, Control_c, 0, 64, 82
1, 80131, Control_c, 0, 67, 16
1, 80146, Control_c, 0, 64, 83
1, 80146, Control_c, 0, 67, 18
1, 80161, Control_c, 0, 64, 86
1, 80161, Control_c, 0, 67, 20
1, 80175, Control_c, 0, 64, 90
1, 80175, Control_c, 0, 67, 23
1, 80190, Control_c, 0, 64, 95
1, 80190, Control_c, 0, 67, 25
1, 80205, Control_c, 0, 64, 99
1, 80205, Control_c, 0, 67, 27
1, 80220, Control_c, 0, 64, 103
1, 80220, Control_c, 0, 67, 28
1, 80234, Control_c, 0, 64, 103
1, 80234, Control_c, 0, 67, 29
1, 80245, Note_off_c, 0, 69, 51
1, 80249, Control_c, 0, 64, 103
1, 80249, Control_c, 0, 67, 31
1, 80264, Control_c, 0, 67, 33
1, 80272, Note_on_c, 0, 75, 59
1, 80280, Control_c, 0, 67, 34
1, 80295, Control_c, 0, 67, 36
1, 80310, Control_c, 0, 67, 37
1, 80325, Control_c, 0, 67, 38
1, 80339, Control_c, 0, 67, 38
1, 80354, Control_c, 0, 67, 39
1, 80369, Control_c, 0, 67, 40
1, 80382, Note_on_c, 0, 77, 66
1, 80382, Note_off_c, 0, 75, 53
1, 80384, Control_c, 0, 67, 41
1, 80399, Control_c, 0, 67, 42
1, 80413, Control_c, 0, 67, 43
1, 80428, Control_c, 0, 67, 44
1, 80436, Note_off_c, 0, 78, 36
1, 80443, Control_c, 0, 67, 45
1, 80457, Control_c, 0, 67, 46
1, 80467, Note_on_c, 0, 73, 62
1, 80472, Control_c, 0, 67, 47
1, 80487, Control_c, 0, 67, 47
1, 80502, Control_c, 0, 67, 48
1, 80514, Note_on_c, 0, 76, 71
1, 80532, Control_c, 0, 67, 48
1, 80535, Note_off_c, 0, 73, 60
1, 80541, Note_off_c, 0, 77, 60
1, 80555, Note_off_c, 0, 76, 60
1, 80562, Control_c, 0, 67, 49
1, 80574, Note_on_c, 0, 72, 72
1, 80591, Control_c, 0, 67, 49
1, 80609, Note_off_c, 0, 72, 59
1, 80621, Control_c, 0, 64, 103
1, 80621, Control_c, 0, 67, 50
1, 80636, Control_c, 0, 64, 104
1, 80639, Note_on_c, 0, 75, 71
1, 80650, Control_c, 0, 64, 105
1, 80665, Control_c, 0, 64, 107
1, 80680, Control_c, 0, 64, 112
1, 80680, Control_c, 0, 67, 50
1, 80695, Control_c, 0, 64, 127
1, 80700, Note_off_c, 0, 75, 61
1, 80702, Note_on_c, 0, 69, 68
1, 80724, Control_c, 0, 67, 51
1, 80739, Control_c, 0, 67, 52
1, 80753, Note_on_c, 0, 78, 95
1, 80754, Control_c, 0, 64, 112
1, 80754, Control_c, 0, 67, 54
1, 80769, Control_c, 0, 64, 74
1, 80769, Control_c, 0, 67, 55
1, 80784, Control_c, 0, 64, 0
1, 80784, Control_c, 0, 67, 56
1, 80789, Note_off_c, 0, 69, 53
1, 80836, Control_c, 0, 64, 68
1, 80836, Control_c, 0, 67, 55
1, 80846, Note_on_c, 0, 75, 70
1, 80850, Control_c, 0, 64, 84
1, 80850, Control_c, 0, 67, 54
1, 80865, Control_c, 0, 64, 109
1, 80865, Control_c, 0, 67, 53
1, 80880, Control_c, 0, 64, 127
1, 80880, Control_c, 0, 67, 52
1, 80895, Control_c, 0, 67, 51
1, 80910, Control_c, 0, 67, 51
1, 80924, Control_c, 0, 67, 50
1, 80938, Note_on_c, 0, 77, 73
1, 80948, Note_off_c, 0, 75, 63
1, 80969, Control_c, 0, 67, 50
1, 80974, Note_off_c, 0, 78, 49
1, 80995, Note_on_c, 0, 73, 68
1, 81038, Note_on_c, 0, 76, 75
1, 81060, Note_off_c, 0, 73, 61
1, 81083, Note_off_c, 0, 77, 61
1, 81090, Note_off_c, 0, 76, 63
1, 81098, Note_on_c, 0, 72, 68
1, 81131, Note_off_c, 0, 72, 62
1, 81162, Note_on_c, 0, 75, 78
1, 81222, Control_c, 0, 67, 50
1, 81225, Note_off_c, 0, 75, 60
1, 81226, Note_on_c, 0, 69, 71
1, 81251, Control_c, 0, 64, 114
1, 81266, Control_c, 0, 64, 97
1, 81266, Control_c, 0, 67, 51
1, 81273, Note_on_c, 0, 78, 88
1, 81280, Control_c, 0, 64, 85
1, 81294, Note_off_c, 0, 69, 56
1, 81295, Control_c, 0, 64, 74
1, 81295, Control_c, 0, 67, 51
1, 81310, Control_c, 0, 64, 63
1, 81325, Control_c, 0, 64, 51
1, 81340, Control_c, 0, 64, 63
1, 81342, Note_on_c, 0, 75, 73
1, 81355, Control_c, 0, 64, 77
1, 81355, Control_c, 0, 67, 51
1, 81369, Control_c, 0, 64, 91
1, 81384, Control_c, 0, 64, 102
1, 81384, Control_c, 0, 67, 50
1, 81399, Control_c, 0, 64, 103
1, 81440, Note_on_c, 0, 77, 72
1, 81457, Note_off_c, 0, 78, 52
1, 81458, Control_c, 0, 67, 50
1, 81459, Note_off_c, 0, 75, 61
1, 81511, Note_on_c, 0, 73, 58
1, 81556, Note_on_c, 0, 76, 75
1, 81563, Note_off_c, 0, 73, 57
1, 81584, Control_c, 0, 64, 102
1, 81598, Control_c, 0, 64, 102
1, 81613, Control_c, 0, 67, 50
1, 81617, Note_off_c, 0, 76, 62
1, 81628, Control_c, 0, 64, 101
1, 81637, Note_on_c, 0, 72, 58
1, 81643, Control_c, 0, 64, 100
1, 81647, Note_off_c, 0, 77, 60
1, 81658, Control_c, 0, 64, 100
1, 81672, Control_c, 0, 64, 99
1, 81685, Note_off_c, 0, 72, 56
1, 81687, Control_c, 0, 64, 99
1, 81696, Note_on_c, 0, 75, 75
1, 81702, Control_c, 0, 64, 98
1, 81717, Control_c, 0, 64, 97
1, 81732, Control_c, 0, 64, 97
1, 81746, Control_c, 0, 64, 96
1, 81746, Control_c, 0, 67, 51
1, 81761, Control_c, 0, 64, 96
1, 81776, Control_c, 0, 64, 95
1, 81776, Control_c, 0, 67, 51
1, 81788, Note_on_c, 0, 69, 59
1, 81791, Control_c, 0, 64, 94
1, 81805, Control_c, 0, 64, 93
1, 81820, Control_c, 0, 64, 92
1, 81835, Control_c, 0, 64, 88
1, 81850, Control_c, 0, 64, 81
1, 81865, Control_c, 0, 64, 73
1, 81881, Control_c, 0, 64, 65
1, 81895, Control_c, 0, 64, 38
1, 81910, Control_c, 0, 64, 0
1, 81914, Note_on_c, 0, 77, 78
1, 81927, Note_off_c, 0, 69, 41
1, 81984, Control_c, 0, 64, 36
1, 81987, Note_off_c, 0, 75, 58
1, 81999, Control_c, 0, 64, 56
1, 82014, Control_c, 0, 64, 65
1, 82028, Control_c, 0, 64, 70
1, 82043, Control_c, 0, 64, 74
1, 82058, Control_c, 0, 64, 78
1, 82073, Control_c, 0, 64, 84
1, 82088, Control_c, 0, 64, 89
1, 82097, Note_on_c, 0, 73, 59
1, 82103, Control_c, 0, 64, 94
1, 82118, Control_c, 0, 64, 97
1, 82133, Control_c, 0, 64, 99
1, 82147, Control_c, 0, 64, 101
1, 82162, Control_c, 0, 64, 102
1, 82176, Control_c, 0, 64, 103
1, 82204, Note_off_c, 0, 73, 61
1, 82213, Note_on_c, 0, 76, 65
1, 82220, Control_c, 0, 64, 103
1, 82279, Note_off_c, 0, 76, 62
1, 82326, Note_on_c, 0, 72, 52
1, 82386, Note_off_c, 0, 72, 60
1, 82397, Note_on_c, 0, 75, 67
1, 82492, Note_off_c, 0, 77, 57
1, 82495, Control_c, 0, 67, 52
1, 82509, Control_c, 0, 64, 103
1, 82524, Note_on_c, 0, 69, 49
1, 82539, Control_c, 0, 64, 102
1, 82553, Control_c, 0, 64, 101
1, 82568, Control_c, 0, 64, 101
1, 82583, Control_c, 0, 64, 100
1, 82598, Control_c, 0, 64, 100
1, 82613, Control_c, 0, 64, 99
1, 82627, Control_c, 0, 64, 98
1, 82642, Control_c, 0, 64, 97
1, 82657, Control_c, 0, 64, 97
1, 82672, Note_off_c, 0, 69, 32
1, 82688, Control_c, 0, 64, 96
1, 82703, Control_c, 0, 64, 95
1, 82709, Note_on_c, 0, 65, 79
1, 82717, Control_c, 0, 64, 94
1, 82730, Note_on_c, 0, 77, 54
1, 82732, Control_c, 0, 64, 92
1, 82747, Control_c, 0, 64, 90
1, 82747, Control_c, 0, 67, 52
1, 82762, Control_c, 0, 64, 87
1, 82777, Control_c, 0, 64, 82
1, 82791, Note_off_c, 0, 75, 50
1, 82792, Control_c, 0, 64, 75
1, 82806, Control_c, 0, 64, 67
1, 82821, Control_c, 0, 64, 59
1, 82836, Control_c, 0, 64, 45
1, 82851, Control_c, 0, 64, 50
1, 82866, Control_c, 0, 64, 58
1, 82866, Control_c, 0, 67, 52
1, 82881, Control_c, 0, 64, 62
1, 82896, Control_c, 0, 64, 64
1, 82911, Control_c, 0, 64, 66
1, 82925, Control_c, 0, 64, 71
1, 82937, Note_on_c, 0, 73, 52
1, 82940, Control_c, 0, 64, 75
1, 82955, Control_c, 0, 64, 80
1, 82970, Control_c, 0, 64, 84
1, 82985, Control_c, 0, 64, 87
1, 82999, Control_c, 0, 64, 89
1, 83014, Control_c, 0, 64, 90
1, 83019, Note_off_c, 0, 73, 61
1, 83029, Control_c, 0, 64, 91
1, 83051, Control_c, 0, 67, 52
1, 83052, Note_on_c, 0, 76, 59
1, 83095, Note_off_c, 0, 76, 61
1, 83095, Control_c, 0, 67, 53
1, 83137, Note_on_c, 0, 72, 51
1, 83155, Control_c, 0, 67, 54
1, 83174, Note_off_c, 0, 72, 47
1, 83199, Control_c, 0, 67, 54
1, 83214, Control_c, 0, 64, 90
1, 83214, Control_c, 0, 67, 55
1, 83216, Note_on_c, 0, 75, 60
1, 83229, Control_c, 0, 64, 90
1, 83229, Control_c, 0, 67, 55
1, 83244, Control_c, 0, 64, 88
1, 83244, Control_c, 0, 67, 56
1, 83253, Note_off_c, 0, 77, 56
1, 83258, Control_c, 0, 64, 84
1, 83273, Control_c, 0, 64, 80
1, 83288, Control_c, 0, 64, 75
1, 83303, Control_c, 0, 64, 71
1, 83307, Note_on_c, 0, 69, 45
1, 83318, Control_c, 0, 64, 68
1, 83332, Control_c, 0, 64, 69
1, 83347, Control_c, 0, 64, 72
1, 83362, Control_c, 0, 64, 75
1, 83367, Note_off_c, 0, 69, 51
1, 83377, Control_c, 0, 64, 77
1, 83387, Note_on_c, 0, 77, 63
1, 83392, Control_c, 0, 64, 79
1, 83407, Control_c, 0, 64, 79
1, 83407, Control_c, 0, 67, 56
1, 83420, Note_off_c, 0, 75, 56
1, 83422, Control_c, 0, 64, 78
1, 83437, Control_c, 0, 64, 74
1, 83451, Control_c, 0, 64, 65
1, 83451, Control_c, 0, 67, 57
1, 83467, Control_c, 0, 64, 49
1, 83482, Control_c, 0, 64, 32
1, 83482, Control_c, 0, 67, 57
1, 83497, Control_c, 0, 64, 51
1, 83507, Note_on_c, 0, 73, 54
1, 83512, Control_c, 0, 64, 63
1, 83527, Control_c, 0, 64, 68
1, 83541, Control_c, 0, 64, 76
1, 83556, Control_c, 0, 64, 83
1, 83571, Control_c, 0, 64, 89
1, 83571, Control_c, 0, 67, 58
1, 83586, Control_c, 0, 64, 92
1, 83593, Note_off_c, 0, 73, 58
1, 83600, Control_c, 0, 67, 58
1, 83613, Note_on_c, 0, 76, 58
1, 83615, Control_c, 0, 64, 89
1, 83615, Control_c, 0, 67, 61
1, 83630, Control_c, 0, 64, 81
1, 83630, Control_c, 0, 67, 65
1, 83645, Control_c, 0, 64, 73
1, 83645, Control_c, 0, 67, 68
1, 83654, Note_off_c, 0, 77, 54
1, 83660, Control_c, 0, 64, 66
1, 83660, Control_c, 0, 67, 72
1, 83674, Control_c, 0, 64, 64
1, 83674, Control_c, 0, 67, 75
1, 83689, Control_c, 0, 64, 67
1, 83689, Control_c, 0, 67, 77
1, 83704, Control_c, 0, 64, 73
1, 83704, Control_c, 0, 67, 78
1, 83711, Note_off_c, 0, 76, 60
1, 83719, Control_c, 0, 64, 81
1, 83719, Control_c, 0, 67, 78
1, 83734, Control_c, 0, 64, 91
1, 83734, Control_c, 0, 67, 79
1, 83739, Note_on_c, 0, 72, 44
1, 83748, Control_c, 0, 64, 97
1, 83763, Control_c, 0, 64, 99
1, 83763, Control_c, 0, 67, 79
1, 83778, Control_c, 0, 67, 80
1, 83815, Control_c, 0, 64, 97
1, 83820, Note_off_c, 0, 72, 59
1, 83830, Control_c, 0, 64, 91
1, 83830, Control_c, 0, 67, 80
1, 83841, Note_on_c, 0, 75, 53
1, 83845, Control_c, 0, 64, 83
1, 83860, Control_c, 0, 64, 74
1, 83874, Control_c, 0, 64, 67
1, 83889, Control_c, 0, 64, 68
1, 83904, Control_c, 0, 64, 73
1, 83919, Control_c, 0, 64, 78
1, 83934, Control_c, 0, 64, 82
1, 83948, Control_c, 0, 64, 86
1, 83963, Control_c, 0, 64, 92
1, 83973, Note_on_c, 0, 69, 39
1, 83978, Control_c, 0, 64, 97
1, 83993, Control_c, 0, 64, 98
1, 84022, Control_c, 0, 64, 96
1, 84022, Control_c, 0, 67, 81
1, 84037, Control_c, 0, 64, 92
1, 84052, Control_c, 0, 64, 86
1, 84053, Note_off_c, 0, 69, 32
1, 84067, Control_c, 0, 64, 77
1, 84082, Control_c, 0, 64, 67
1, 84097, Control_c, 0, 64, 64
1, 84098, Note_on_c, 0, 77, 48
1, 84109, Note_off_c, 0, 75, 50
1, 84112, Control_c, 0, 64, 67
1, 84127, Control_c, 0, 64, 71
1, 84142, Control_c, 0, 64, 73
1, 84156, Control_c, 0, 64, 77
1, 84171, Control_c, 0, 64, 84
1, 84186, Control_c, 0, 64, 92
1, 84200, Control_c, 0, 64, 96
1, 84260, Control_c, 0, 64, 96
1, 84278, Note_on_c, 0, 73, 37
1, 84290, Control_c, 0, 64, 97
1, 84350, Control_c, 0, 64, 96
1, 84364, Control_c, 0, 64, 94
1, 84379, Control_c, 0, 64, 91
1, 84394, Control_c, 0, 64, 84
1, 84409, Control_c, 0, 64, 78
1, 84423, Control_c, 0, 64, 72
1, 84426, Note_on_c, 0, 64, 47
1, 84438, Control_c, 0, 64, 66
1, 84453, Control_c, 0, 64, 64
1, 84461, Note_off_c, 0, 73, 46
1, 84462, Note_on_c, 0, 76, 39
1, 84468, Control_c, 0, 64, 65
1, 84483, Control_c, 0, 64, 68
1, 84497, Control_c, 0, 64, 70
1, 84512, Control_c, 0, 64, 73
1, 84527, Control_c, 0, 64, 77
1, 84550, Control_c, 0, 64, 82
1, 84565, Control_c, 0, 64, 85
1, 84579, Control_c, 0, 64, 88
1, 84594, Control_c, 0, 64, 89
1, 84601, Note_off_c, 0, 76, 56
1, 84609, Control_c, 0, 64, 89
1, 84651, Note_on_c, 0, 72, 37
1, 84655, Note_off_c, 0, 77, 13
1, 84666, Note_off_c, 0, 65, 36
1, 84742, Control_c, 0, 64, 89
1, 84757, Control_c, 0, 64, 88
1, 84771, Control_c, 0, 64, 88
1, 84786, Control_c, 0, 64, 86
1, 84801, Control_c, 0, 64, 85
1, 84815, Control_c, 0, 64, 83
1, 84830, Control_c, 0, 64, 81
1, 84830, Control_c, 0, 67, 81
1, 84845, Control_c, 0, 64, 78
1, 84855, Note_on_c, 0, 75, 40
1, 84860, Control_c, 0, 64, 73
1, 84875, Control_c, 0, 64, 66
1, 84880, Note_on_c, 0, 63, 42
1, 84890, Control_c, 0, 64, 61
1, 84905, Control_c, 0, 64, 54
1, 84914, Note_off_c, 0, 72, 28
1, 84920, Control_c, 0, 64, 50
1, 84949, Control_c, 0, 64, 51
1, 84964, Control_c, 0, 64, 54
1, 84979, Control_c, 0, 64, 57
1, 84994, Control_c, 0, 64, 60
1, 85009, Control_c, 0, 64, 63
1, 85023, Control_c, 0, 64, 64
1, 85038, Control_c, 0, 64, 65
1, 85052, Note_off_c, 0, 64, 32
1, 85053, Control_c, 0, 64, 66
1, 85069, Control_c, 0, 64, 68
1, 85084, Control_c, 0, 64, 70
1, 85099, Control_c, 0, 64, 71
1, 85113, Control_c, 0, 64, 73
1, 85128, Control_c, 0, 64, 74
1, 85143, Control_c, 0, 64, 76
1, 85158, Control_c, 0, 64, 78
1, 85173, Control_c, 0, 64, 80
1, 85188, Control_c, 0, 64, 82
1, 85202, Control_c, 0, 64, 83
1, 85215, Note_on_c, 0, 69, 29
1, 85217, Control_c, 0, 64, 84
1, 85232, Control_c, 0, 64, 85
1, 85246, Control_c, 0, 64, 87
1, 85261, Control_c, 0, 64, 89
1, 85276, Control_c, 0, 64, 90
1, 85298, Control_c, 0, 64, 91
1, 85313, Control_c, 0, 64, 91
1, 85328, Control_c, 0, 64, 92
1, 85343, Control_c, 0, 64, 94
1, 85358, Control_c, 0, 64, 96
1, 85372, Control_c, 0, 64, 98
1, 85387, Control_c, 0, 64, 98
1, 85402, Control_c, 0, 64, 99
1, 85417, Control_c, 0, 64, 100
1, 85432, Control_c, 0, 64, 102
1, 85446, Control_c, 0, 64, 103
1, 85506, Control_c, 0, 67, 82
1, 85535, Control_c, 0, 67, 82
1, 85594, Control_c, 0, 67, 83
1, 85609, Control_c, 0, 67, 83
1, 85624, Control_c, 0, 67, 86
1, 85638, Control_c, 0, 67, 91
1, 85653, Control_c, 0, 67, 96
1, 85668, Control_c, 0, 67, 101
1, 85683, Control_c, 0, 67, 106
1, 85698, Control_c, 0, 67, 109
1, 85713, Control_c, 0, 67, 110
1, 85742, Control_c, 0, 67, 110
1, 85877, Control_c, 0, 64, 103
1, 85892, Note_off_c, 0, 69, 12
1, 85906, Control_c, 0, 67, 110
1, 85936, Control_c, 0, 67, 109
1, 85951, Control_c, 0, 64, 102
1, 85951, Control_c, 0, 67, 109
1, 85981, Control_c, 0, 64, 102
1, 85981, Control_c, 0, 67, 108
1, 86010, Control_c, 0, 64, 101
1, 86010, Control_c, 0, 67, 108
1, 86025, Control_c, 0, 67, 107
1, 86047, Control_c, 0, 64, 101
1, 86047, Control_c, 0, 67, 107
1, 86062, Control_c, 0, 64, 100
1, 86136, Control_c, 0, 64, 100
1, 86151, Control_c, 0, 64, 99
1, 86166, Control_c, 0, 64, 99
1, 86166, Control_c, 0, 67, 106
1, 86181, Control_c, 0, 64, 98
1, 86190, Note_off_c, 0, 63, 40
1, 86195, Control_c, 0, 64, 98
1, 86210, Control_c, 0, 64, 97
1, 86210, Control_c, 0, 67, 106
1, 86225, Control_c, 0, 64, 96
1, 86240, Control_c, 0, 64, 94
1, 86255, Control_c, 0, 64, 92
1, 86267, Note_on_c, 0, 77, 75
1, 86269, Control_c, 0, 64, 87
1, 86284, Control_c, 0, 64, 81
1, 86284, Control_c, 0, 67, 105
1, 86299, Note_on_c, 0, 73, 47
1, 86299, Control_c, 0, 64, 72
1, 86312, Note_on_c, 0, 68, 22
1, 86314, Control_c, 0, 64, 63
1, 86314, Control_c, 0, 67, 105
1, 86328, Note_on_c, 0, 65, 23
1, 86329, Control_c, 0, 64, 0
1, 86330, Note_on_c, 0, 61, 11
1, 86343, Control_c, 0, 67, 104
1, 86347, Note_off_c, 0, 75, 37
1, 86373, Control_c, 0, 67, 104
1, 86387, Control_c, 0, 67, 103
1, 86402, Control_c, 0, 67, 102
1, 86417, Control_c, 0, 67, 101
1, 86432, Control_c, 0, 67, 100
1, 86447, Control_c, 0, 67, 99
1, 86461, Control_c, 0, 64, 61
1, 86461, Control_c, 0, 67, 98
1, 86476, Control_c, 0, 64, 68
1, 86476, Control_c, 0, 67, 97
1, 86491, Control_c, 0, 64, 75
1, 86491, Control_c, 0, 67, 96
1, 86506, Control_c, 0, 64, 81
1, 86506, Control_c, 0, 67, 95
1, 86521, Control_c, 0, 64, 89
1, 86521, Control_c, 0, 67, 91
1, 86535, Control_c, 0, 64, 98
1, 86535, Control_c, 0, 67, 87
1, 86550, Control_c, 0, 64, 108
1, 86550, Control_c, 0, 67, 81
1, 86565, Control_c, 0, 64, 117
1, 86565, Control_c, 0, 67, 75
1, 86580, Control_c, 0, 64, 127
1, 86580, Control_c, 0, 67, 68
1, 86595, Control_c, 0, 67, 62
1, 86610, Control_c, 0, 67, 57
1, 86625, Control_c, 0, 67, 52
1, 86640, Control_c, 0, 67, 48
1, 86655, Control_c, 0, 67, 46
1, 86671, Control_c, 0, 67, 43
1, 86685, Control_c, 0, 67, 40
1, 86699, Note_off_c, 0, 73, 57
1, 86700, Control_c, 0, 67, 37
1, 86715, Control_c, 0, 67, 33
1, 86730, Control_c, 0, 67, 30
1, 86745, Control_c, 0, 67, 28
1, 86760, Control_c, 0, 67, 25
1, 86774, Control_c, 0, 67, 21
1, 86797, Control_c, 0, 67, 18
1, 86812, Control_c, 0, 67, 15
1, 86826, Control_c, 0, 67, 12
1, 86835, Note_off_c, 0, 68, 37
1, 86841, Control_c, 0, 67, 8
1, 86842, Note_off_c, 0, 65, 38
1, 86856, Control_c, 0, 67, 0
1, 86928, Note_off_c, 0, 77, 38
1, 87065, Note_off_c, 0, 61, 39
1, 87127, Note_on_c, 0, 76, 70
1, 87133, Note_on_c, 0, 60, 41
1, 87140, Note_on_c, 0, 72, 52
1, 87169, Note_on_c, 0, 64, 17
1, 87174, Note_on_c, 0, 67, 23
1, 87221, Note_off_c, 0, 67, 47
1, 87270, Note_off_c, 0, 60, 54
1, 87284, Note_on_c, 0, 75, 72
1, 87299, Note_off_c, 0, 72, 50
1, 87300, Note_on_c, 0, 70, 48
1, 87310, Note_on_c, 0, 58, 35
1, 87311, Note_on_c, 0, 66, 39
1, 87312, Note_off_c, 0, 64, 41
1, 87315, Control_c, 0, 64, 124
1, 87319, Note_on_c, 0, 63, 41
1, 87330, Control_c, 0, 64, 114
1, 87344, Control_c, 0, 64, 110
1, 87348, Note_off_c, 0, 76, 55
1, 87359, Control_c, 0, 64, 108
1, 87374, Control_c, 0, 64, 107
1, 87389, Control_c, 0, 64, 104
1, 87404, Control_c, 0, 64, 101
1, 87418, Control_c, 0, 64, 98
1, 87433, Control_c, 0, 64, 97
1, 87471, Note_off_c, 0, 70, 56
1, 87488, Note_off_c, 0, 66, 40
1, 87605, Control_c, 0, 64, 97
1, 87620, Control_c, 0, 64, 96
1, 87635, Control_c, 0, 64, 95
1, 87649, Control_c, 0, 64, 93
1, 87664, Control_c, 0, 64, 90
1, 87678, Note_off_c, 0, 58, 42
1, 87679, Control_c, 0, 64, 87
1, 87683, Note_on_c, 0, 68, 31
1, 87689, Note_on_c, 0, 77, 63
1, 87694, Control_c, 0, 64, 84
1, 87696, Note_on_c, 0, 65, 30
1, 87705, Note_off_c, 0, 63, 25
1, 87706, Note_on_c, 0, 61, 40
1, 87708, Note_on_c, 0, 73, 42
1, 87709, Control_c, 0, 64, 80
1, 87723, Control_c, 0, 64, 76
1, 87738, Control_c, 0, 64, 72
1, 87753, Control_c, 0, 64, 68
1, 87767, Control_c, 0, 64, 64
1, 87782, Control_c, 0, 64, 61
1, 87786, Note_off_c, 0, 75, 38
1, 87797, Control_c, 0, 64, 56
1, 87812, Control_c, 0, 64, 53
1, 87827, Control_c, 0, 64, 46
1, 87841, Control_c, 0, 64, 30
1, 87856, Control_c, 0, 64, 0
1, 88457, Control_c, 0, 64, 14
1, 88471, Control_c, 0, 64, 35
1, 88486, Control_c, 0, 64, 49
1, 88501, Control_c, 0, 64, 57
1, 88516, Control_c, 0, 64, 62
1, 88531, Control_c, 0, 64, 64
1, 88545, Control_c, 0, 64, 64
1, 88560, Control_c, 0, 64, 65
1, 88575, Control_c, 0, 64, 66
1, 88589, Control_c, 0, 64, 68
1, 88604, Control_c, 0, 64, 69
1, 88619, Control_c, 0, 64, 70
1, 88634, Control_c, 0, 64, 71
1, 88649, Control_c, 0, 64, 72
1, 88664, Control_c, 0, 64, 74
1, 88679, Control_c, 0, 64, 77
1, 88693, Control_c, 0, 64, 80
1, 88708, Control_c, 0, 64, 82
1, 88723, Control_c, 0, 64, 84
1, 88738, Control_c, 0, 64, 86
1, 88753, Control_c, 0, 64, 90
1, 88768, Control_c, 0, 64, 95
1, 88783, Control_c, 0, 64, 98
1, 88797, Control_c, 0, 64, 100
1, 88812, Control_c, 0, 64, 101
1, 88827, Control_c, 0, 64, 102
1, 88842, Control_c, 0, 64, 104
1, 88857, Control_c, 0, 64, 105
1, 88871, Control_c, 0, 64, 106
1, 88987, Note_off_c, 0, 73, 36
1, 89427, Control_c, 0, 64, 105
1, 89472, Control_c, 0, 64, 105
1, 89486, Control_c, 0, 64, 104
1, 89492, Note_off_c, 0, 61, 38
1, 89531, Control_c, 0, 64, 104
1, 89561, Control_c, 0, 64, 103
1, 89576, Control_c, 0, 64, 103
1, 89602, Note_on_c, 0, 60, 43
1, 89602, Note_on_c, 0, 75, 65
1, 89612, Note_off_c, 0, 65, 39
1, 89620, Control_c, 0, 64, 102
1, 89635, Control_c, 0, 64, 101
1, 89650, Control_c, 0, 64, 101
1, 89650, Note_off_c, 0, 68, 42
1, 89680, Control_c, 0, 64, 100
1, 89695, Control_c, 0, 64, 100
1, 89710, Control_c, 0, 64, 99
1, 89725, Control_c, 0, 64, 99
1, 89739, Control_c, 0, 64, 98
1, 89743, Note_off_c, 0, 60, 38
1, 89769, Control_c, 0, 64, 98
1, 89791, Control_c, 0, 64, 97
1, 89800, Note_on_c, 0, 73, 77
1, 89826, Note_on_c, 0, 70, 44
1, 89827, Note_on_c, 0, 58, 39
1, 89832, Note_on_c, 0, 61, 43
1, 89838, Note_on_c, 0, 65, 49
1, 89984, Note_off_c, 0, 65, 35
1, 89997, Note_off_c, 0, 77, 27
1, 90000, Note_off_c, 0, 61, 40
1, 90086, Note_off_c, 0, 70, 40
1, 90089, Control_c, 0, 64, 97
1, 90118, Note_off_c, 0, 75, 31
1, 90162, Control_c, 0, 64, 96
1, 90172, Note_off_c, 0, 73, 56
1, 90177, Control_c, 0, 64, 96
1, 90192, Control_c, 0, 64, 95
1, 90207, Control_c, 0, 64, 94
1, 90222, Control_c, 0, 64, 93
1, 90236, Control_c, 0, 64, 92
1, 90251, Control_c, 0, 64, 91
1, 90266, Control_c, 0, 64, 89
1, 90281, Control_c, 0, 64, 88
1, 90294, Note_on_c, 0, 65, 36
1, 90296, Control_c, 0, 64, 86
1, 90301, Note_on_c, 0, 77, 71
1, 90302, Note_on_c, 0, 68, 41
1, 90310, Control_c, 0, 64, 83
1, 90323, Note_on_c, 0, 73, 45
1, 90325, Control_c, 0, 64, 78
1, 90326, Note_on_c, 0, 61, 38
1, 90340, Control_c, 0, 64, 70
1, 90354, Control_c, 0, 64, 62
1, 90369, Note_off_c, 0, 58, 39
1, 90369, Control_c, 0, 64, 0
1, 90473, Control_c, 0, 64, 32
1, 90488, Control_c, 0, 64, 52
1, 90503, Control_c, 0, 64, 62
1, 90518, Control_c, 0, 64, 67
1, 90540, Control_c, 0, 64, 71
1, 90555, Control_c, 0, 64, 76
1, 90569, Control_c, 0, 64, 81
1, 90584, Control_c, 0, 64, 83
1, 90597, Note_off_c, 0, 65, 53
1, 90599, Control_c, 0, 64, 85
1, 90614, Control_c, 0, 64, 86
1, 90629, Control_c, 0, 64, 88
1, 90643, Control_c, 0, 64, 89
1, 90733, Note_off_c, 0, 61, 54
1, 90753, Note_on_c, 0, 75, 70
1, 90764, Note_on_c, 0, 60, 47
1, 90773, Note_off_c, 0, 73, 58
1, 90776, Note_off_c, 0, 68, 38
1, 90852, Control_c, 0, 64, 89
1, 90867, Control_c, 0, 64, 88
1, 90871, Note_off_c, 0, 77, 54
1, 90896, Control_c, 0, 64, 88
1, 90899, Note_off_c, 0, 60, 55
1, 90911, Note_on_c, 0, 73, 78
1, 90914, Note_on_c, 0, 58, 55
1, 90941, Control_c, 0, 64, 87
1, 90971, Control_c, 0, 64, 87
1, 90985, Control_c, 0, 64, 86
1, 91000, Control_c, 0, 64, 86
1, 91013, Note_off_c, 0, 75, 55
1, 91015, Control_c, 0, 64, 85
1, 91030, Control_c, 0, 64, 84
1, 91045, Control_c, 0, 64, 82
1, 91054, Note_off_c, 0, 58, 39
1, 91059, Control_c, 0, 64, 78
1, 91074, Control_c, 0, 64, 70
1, 91075, Note_on_c, 0, 72, 70
1, 91089, Control_c, 0, 64, 57
1, 91096, Note_on_c, 0, 56, 46
1, 91101, Note_on_c, 0, 60, 35
1, 91104, Control_c, 0, 64, 0
1, 91107, Note_on_c, 0, 65, 36
1, 91114, Note_off_c, 0, 73, 59
1, 91115, Note_on_c, 0, 68, 23
1, 91177, Control_c, 0, 64, 24
1, 91192, Control_c, 0, 64, 63
1, 91207, Control_c, 0, 64, 70
1, 91222, Control_c, 0, 64, 77
1, 91237, Control_c, 0, 64, 83
1, 91251, Control_c, 0, 64, 87
1, 91266, Control_c, 0, 64, 90
1, 91269, Note_off_c, 0, 60, 57
1, 91289, Control_c, 0, 64, 92
1, 91304, Control_c, 0, 64, 93
1, 91310, Note_off_c, 0, 65, 46
1, 91318, Control_c, 0, 64, 94
1, 91363, Control_c, 0, 64, 94
1, 91368, Note_off_c, 0, 68, 43
1, 91396, Note_off_c, 0, 56, 38
1, 91464, Note_off_c, 0, 72, 56
1, 91497, Control_c, 0, 64, 94
1, 91512, Control_c, 0, 64, 93
1, 91527, Control_c, 0, 64, 93
1, 91542, Control_c, 0, 64, 92
1, 91571, Control_c, 0, 64, 92
1, 91586, Control_c, 0, 64, 91
1, 91600, Poly_aftertouch_c, 0, 80, 127
1, 91601, Control_c, 0, 64, 89
1, 91603, Note_on_c, 0, 65, 33
1, 91609, Note_on_c, 0, 77, 69
1, 91612, Note_on_c, 0, 68, 38
1, 91615, Control_c, 0, 64, 87
1, 91622, Note_on_c, 0, 61, 37
1, 91630, Control_c, 0, 64, 84
1, 91643, Note_on_c, 0, 73, 37
1, 91645, Control_c, 0, 64, 80
1, 91647, Poly_aftertouch_c, 0, 80, 0
1, 91660, Control_c, 0, 64, 76
1, 91675, Control_c, 0, 64, 69
1, 91689, Control_c, 0, 64, 60
1, 91704, Control_c, 0, 64, 0
1, 91868, Control_c, 0, 64, 31
1, 91882, Control_c, 0, 64, 47
1, 91897, Control_c, 0, 64, 57
1, 91911, Control_c, 0, 64, 63
1, 91925, Control_c, 0, 64, 65
1, 91940, Control_c, 0, 64, 67
1, 91955, Control_c, 0, 64, 69
1, 91970, Control_c, 0, 64, 71
1, 91985, Control_c, 0, 64, 74
1, 91999, Control_c, 0, 64, 76
1, 92014, Control_c, 0, 64, 79
1, 92037, Control_c, 0, 64, 80
1, 92051, Note_off_c, 0, 73, 43
1, 92052, Control_c, 0, 64, 82
1, 92067, Control_c, 0, 64, 83
1, 92081, Control_c, 0, 64, 84
1, 92096, Control_c, 0, 64, 86
1, 92111, Control_c, 0, 64, 87
1, 92126, Control_c, 0, 64, 87
1, 92247, Note_off_c, 0, 65, 21
1, 92280, Note_off_c, 0, 68, 38
1, 92334, Control_c, 0, 64, 87
1, 92349, Control_c, 0, 64, 86
1, 92378, Control_c, 0, 64, 86
1, 92423, Control_c, 0, 64, 85
1, 92467, Control_c, 0, 64, 85
1, 92497, Control_c, 0, 64, 84
1, 92542, Control_c, 0, 64, 84
1, 92556, Control_c, 0, 64, 83
1, 92568, Note_off_c, 0, 61, 40
1, 92571, Control_c, 0, 64, 82
1, 92586, Control_c, 0, 64, 80
1, 92587, Note_on_c, 0, 80, 63
1, 92594, Note_on_c, 0, 66, 34
1, 92598, Note_on_c, 0, 70, 34
1, 92601, Control_c, 0, 64, 79
1, 92601, Note_off_c, 0, 77, 49
1, 92607, Note_on_c, 0, 75, 51
1, 92608, Note_on_c, 0, 60, 30
1, 92616, Control_c, 0, 64, 79
1, 92668, Note_off_c, 0, 66, 55
1, 92668, Note_off_c, 0, 70, 54
1, 92786, Control_c, 0, 64, 78
1, 92791, Note_off_c, 0, 60, 43
1, 92801, Control_c, 0, 64, 78
1, 92816, Control_c, 0, 64, 76
1, 92827, Note_off_c, 0, 75, 55
1, 92831, Control_c, 0, 64, 73
1, 92834, Note_on_c, 0, 77, 57
1, 92846, Control_c, 0, 64, 68
1, 92849, Note_on_c, 0, 73, 44
1, 92859, Note_on_c, 0, 68, 35
1, 92860, Note_on_c, 0, 61, 38
1, 92861, Control_c, 0, 64, 61
1, 92876, Note_off_c, 0, 80, 52
1, 92876, Control_c, 0, 64, 42
1, 92891, Control_c, 0, 64, 0
1, 92897, Note_on_c, 0, 65, 14
1, 92950, Control_c, 0, 64, 38
1, 92964, Control_c, 0, 64, 53
1, 92979, Control_c, 0, 64, 60
1, 92979, Control_c, 0, 67, 8
1, 92994, Control_c, 0, 64, 64
1, 92994, Control_c, 0, 67, 9
1, 93009, Control_c, 0, 64, 67
1, 93009, Control_c, 0, 67, 10
1, 93024, Control_c, 0, 64, 71
1, 93024, Control_c, 0, 67, 11
1, 93038, Control_c, 0, 64, 74
1, 93038, Control_c, 0, 67, 12
1, 93054, Control_c, 0, 64, 78
1, 93054, Control_c, 0, 67, 12
1, 93069, Control_c, 0, 64, 81
1, 93069, Control_c, 0, 67, 14
1, 93084, Control_c, 0, 64, 82
1, 93084, Control_c, 0, 67, 15
1, 93099, Control_c, 0, 64, 83
1, 93099, Control_c, 0, 67, 17
1, 93109, Note_off_c, 0, 77, 36
1, 93114, Control_c, 0, 64, 84
1, 93114, Control_c, 0, 67, 19
1, 93128, Control_c, 0, 67, 22
1, 93143, Control_c, 0, 67, 24
1, 93151, Note_off_c, 0, 73, 30
1, 93158, Control_c, 0, 67, 24
1, 93160, Note_off_c, 0, 65, 38
1, 93169, Note_off_c, 0, 61, 38
1, 93173, Control_c, 0, 67, 25
1, 93175, Note_off_c, 0, 68, 27
1, 93187, Control_c, 0, 67, 26
1, 93202, Control_c, 0, 67, 26
1, 93217, Control_c, 0, 64, 84
1, 93217, Control_c, 0, 67, 27
1, 93232, Control_c, 0, 64, 83
1, 93232, Control_c, 0, 67, 28
1, 93247, Control_c, 0, 64, 83
1, 93247, Control_c, 0, 67, 30
1, 93261, Control_c, 0, 64, 82
1, 93261, Control_c, 0, 67, 32
1, 93276, Control_c, 0, 64, 82
1, 93276, Control_c, 0, 67, 33
1, 93291, Control_c, 0, 64, 81
1, 93291, Control_c, 0, 67, 33
1, 93306, Control_c, 0, 64, 80
1, 93306, Control_c, 0, 67, 34
1, 93321, Control_c, 0, 64, 80
1, 93321, Control_c, 0, 67, 35
1, 93335, Control_c, 0, 64, 79
1, 93335, Control_c, 0, 67, 35
1, 93350, Control_c, 0, 64, 77
1, 93350, Control_c, 0, 67, 36
1, 93365, Control_c, 0, 64, 76
1, 93365, Control_c, 0, 67, 36
1, 93379, Control_c, 0, 64, 75
1, 93379, Control_c, 0, 67, 37
1, 93394, Control_c, 0, 64, 74
1, 93409, Control_c, 0, 64, 73
1, 93409, Control_c, 0, 67, 37
1, 93424, Control_c, 0, 64, 71
1, 93424, Control_c, 0, 67, 38
1, 93439, Control_c, 0, 64, 70
1, 93439, Control_c, 0, 67, 38
1, 93454, Control_c, 0, 64, 68
1, 93454, Control_c, 0, 67, 39
1, 93460, Note_on_c, 0, 77, 45
1, 93467, Note_on_c, 0, 73, 36
1, 93469, Control_c, 0, 64, 67
1, 93469, Control_c, 0, 67, 40
1, 93484, Control_c, 0, 64, 67
1, 93484, Control_c, 0, 67, 41
1, 93485, Note_on_c, 0, 68, 19
1, 93490, Note_on_c, 0, 65, 23
1, 93496, Note_on_c, 0, 61, 13
1, 93499, Control_c, 0, 64, 66
1, 93499, Control_c, 0, 67, 43
1, 93513, Control_c, 0, 64, 65
1, 93513, Control_c, 0, 67, 44
1, 93535, Control_c, 0, 64, 64
1, 93535, Control_c, 0, 67, 44
1, 93550, Control_c, 0, 64, 63
1, 93565, Control_c, 0, 64, 63
1, 93565, Control_c, 0, 67, 45
1, 93579, Control_c, 0, 64, 62
1, 93594, Control_c, 0, 64, 62
1, 93609, Control_c, 0, 64, 61
1, 93609, Control_c, 0, 67, 45
1, 93624, Control_c, 0, 64, 59
1, 93639, Control_c, 0, 64, 57
1, 93639, Control_c, 0, 67, 46
1, 93654, Control_c, 0, 64, 54
1, 93654, Control_c, 0, 67, 46
1, 93669, Control_c, 0, 64, 50
1, 93669, Control_c, 0, 67, 47
1, 93684, Control_c, 0, 64, 48
1, 93684, Control_c, 0, 67, 48
1, 93698, Control_c, 0, 64, 47
1, 93698, Control_c, 0, 67, 49
1, 93713, Control_c, 0, 64, 45
1, 93713, Control_c, 0, 67, 49
1, 93728, Control_c, 0, 64, 40
1, 93728, Control_c, 0, 67, 50
1, 93743, Control_c, 0, 64, 30
1, 93758, Control_c, 0, 64, 17
1, 93773, Control_c, 0, 64, 0
1, 93787, Control_c, 0, 67, 50
1, 93847, Control_c, 0, 67, 51
1, 93862, Control_c, 0, 67, 51
1, 93892, Control_c, 0, 67, 52
1, 93907, Control_c, 0, 67, 52
1, 93922, Control_c, 0, 67, 53
1, 93937, Control_c, 0, 67, 53
1, 93966, Control_c, 0, 67, 54
1, 94099, Control_c, 0, 67, 53
1, 94143, Control_c, 0, 67, 53
1, 94158, Control_c, 0, 64, 21
1, 94158, Control_c, 0, 67, 52
1, 94173, Control_c, 0, 64, 38
1, 94188, Control_c, 0, 64, 50
1, 94202, Control_c, 0, 64, 58
1, 94202, Control_c, 0, 67, 52
1, 94217, Control_c, 0, 64, 62
1, 94232, Control_c, 0, 64, 65
1, 94247, Control_c, 0, 64, 67
1, 94247, Control_c, 0, 67, 51
1, 94262, Control_c, 0, 64, 69
1, 94284, Control_c, 0, 64, 72
1, 94299, Control_c, 0, 64, 73
1, 94314, Control_c, 0, 64, 75
1, 94329, Control_c, 0, 64, 76
1, 94329, Control_c, 0, 67, 51
1, 94343, Control_c, 0, 64, 77
1, 94358, Control_c, 0, 64, 78
1, 94358, Control_c, 0, 67, 50
1, 94373, Control_c, 0, 64, 79
1, 94388, Control_c, 0, 64, 80
1, 94403, Control_c, 0, 64, 81
1, 94403, Control_c, 0, 67, 50
1, 94417, Control_c, 0, 64, 82
1, 94432, Control_c, 0, 64, 82
1, 94447, Control_c, 0, 64, 83
1, 94447, Control_c, 0, 67, 49
1, 94462, Control_c, 0, 64, 84
1, 94477, Control_c, 0, 64, 85
1, 94491, Control_c, 0, 64, 86
1, 94506, Control_c, 0, 67, 49
1, 94521, Control_c, 0, 64, 86
1, 94536, Control_c, 0, 64, 87
1, 94551, Control_c, 0, 64, 88
1, 94566, Control_c, 0, 64, 89
1, 94569, Note_off_c, 0, 77, 34
1, 94581, Control_c, 0, 67, 48
1, 94610, Note_off_c, 0, 73, 34
1, 94610, Control_c, 0, 67, 48
1, 94655, Control_c, 0, 67, 47
1, 94670, Control_c, 0, 67, 47
1, 94685, Control_c, 0, 67, 46
1, 94715, Control_c, 0, 67, 46
1, 94759, Control_c, 0, 67, 45
1, 94789, Control_c, 0, 67, 45
1, 94863, Control_c, 0, 67, 44
1, 94906, Control_c, 0, 64, 88
1, 94921, Control_c, 0, 67, 44
1, 94936, Control_c, 0, 64, 88
1, 94950, Control_c, 0, 67, 43
1, 94965, Note_off_c, 0, 65, 8
1, 94965, Control_c, 0, 64, 87
1, 94995, Control_c, 0, 64, 87
1, 95010, Control_c, 0, 64, 86
1, 95010, Control_c, 0, 67, 43
1, 95046, Control_c, 0, 64, 86
1, 95046, Control_c, 0, 67, 42
1, 95061, Control_c, 0, 64, 85
1, 95071, Note_off_c, 0, 68, 9
1, 95076, Control_c, 0, 64, 85
1, 95091, Control_c, 0, 64, 84
1, 95091, Control_c, 0, 67, 42
1, 95105, Control_c, 0, 67, 41
1, 95120, Control_c, 0, 64, 84
1, 95120, Control_c, 0, 67, 41
1, 95150, Control_c, 0, 64, 83
1, 95150, Control_c, 0, 67, 40
1, 95180, Control_c, 0, 64, 83
1, 95180, Control_c, 0, 67, 40
1, 95195, Control_c, 0, 64, 82
1, 95210, Control_c, 0, 64, 82
1, 95210, Control_c, 0, 67, 39
1, 95225, Control_c, 0, 64, 81
1, 95225, Control_c, 0, 67, 37
1, 95239, Control_c, 0, 64, 81
1, 95239, Control_c, 0, 67, 35
1, 95254, Control_c, 0, 67, 33
1, 95269, Control_c, 0, 64, 80
1, 95269, Control_c, 0, 67, 30
1, 95283, Control_c, 0, 64, 80
1, 95283, Control_c, 0, 67, 26
1, 95298, Control_c, 0, 64, 79
1, 95298, Control_c, 0, 67, 20
1, 95313, Control_c, 0, 64, 78
1, 95313, Control_c, 0, 67, 14
1, 95328, Control_c, 0, 64, 78
1, 95328, Control_c, 0, 67, 9
1, 95343, Control_c, 0, 64, 77
1, 95343, Control_c, 0, 67, 0
1, 95357, Control_c, 0, 64, 76
1, 95372, Control_c, 0, 64, 76
1, 95387, Control_c, 0, 64, 75
1, 95402, Control_c, 0, 64, 75
1, 95417, Control_c, 0, 64, 74
1, 95431, Control_c, 0, 64, 73
1, 95462, Control_c, 0, 64, 72
1, 95492, Control_c, 0, 64, 72
1, 95507, Control_c, 0, 64, 71
1, 95521, Control_c, 0, 64, 70
1, 95536, Control_c, 0, 64, 69
1, 95551, Control_c, 0, 64, 69
1, 95566, Control_c, 0, 64, 68
1, 95580, Control_c, 0, 64, 68
1, 95595, Control_c, 0, 64, 67
1, 95598, Note_on_c, 0, 75, 51
1, 95610, Control_c, 0, 64, 66
1, 95640, Control_c, 0, 64, 65
1, 95654, Control_c, 0, 64, 65
1, 95669, Control_c, 0, 64, 63
1, 95684, Control_c, 0, 64, 60
1, 95699, Control_c, 0, 64, 51
1, 95714, Control_c, 0, 64, 41
1, 95728, Control_c, 0, 64, 36
1, 95743, Control_c, 0, 64, 35
1, 95758, Control_c, 0, 64, 36
1, 95780, Control_c, 0, 64, 43
1, 95795, Control_c, 0, 64, 50
1, 95810, Control_c, 0, 64, 58
1, 95825, Control_c, 0, 64, 63
1, 95840, Control_c, 0, 64, 65
1, 95854, Control_c, 0, 64, 66
1, 95869, Control_c, 0, 64, 68
1, 95884, Control_c, 0, 64, 70
1, 95898, Control_c, 0, 64, 73
1, 95913, Control_c, 0, 64, 76
1, 95928, Control_c, 0, 64, 79
1, 95943, Control_c, 0, 64, 81
1, 95958, Control_c, 0, 64, 85
1, 95973, Control_c, 0, 64, 90
1, 95988, Control_c, 0, 64, 95
1, 96001, Note_off_c, 0, 61, 1
1, 96003, Control_c, 0, 64, 97
1, 96018, Control_c, 0, 64, 100
1, 96032, Control_c, 0, 64, 103
1, 96047, Control_c, 0, 64, 109
1, 96062, Control_c, 0, 64, 114
1, 96077, Control_c, 0, 64, 117
1, 96078, Note_on_c, 0, 77, 69
1, 96092, Control_c, 0, 64, 119
1, 96106, Control_c, 0, 64, 121
1, 96121, Control_c, 0, 64, 127
1, 96387, Note_off_c, 0, 75, 47
1, 96425, Note_on_c, 0, 78, 81
1, 96483, Note_off_c, 0, 77, 56
1, 96708, Note_on_c, 0, 77, 88
1, 96757, Note_off_c, 0, 78, 63
1, 96974, Control_c, 0, 64, 111
1, 96989, Control_c, 0, 64, 105
1, 97004, Control_c, 0, 64, 102
1, 97019, Control_c, 0, 64, 102
1, 97025, Note_on_c, 0, 80, 86
1, 97049, Control_c, 0, 64, 103
1, 97064, Control_c, 0, 64, 106
1, 97079, Control_c, 0, 64, 110
1, 97093, Note_off_c, 0, 77, 59
1, 97094, Control_c, 0, 64, 115
1, 97109, Control_c, 0, 64, 120
1, 97123, Control_c, 0, 64, 124
1, 97138, Control_c, 0, 64, 127
1, 97198, Control_c, 0, 64, 124
1, 97213, Control_c, 0, 64, 112
1, 97227, Control_c, 0, 64, 101
1, 97235, Note_on_c, 0, 68, 51
1, 97242, Control_c, 0, 64, 92
1, 97257, Control_c, 0, 64, 85
1, 97260, Note_on_c, 0, 75, 57
1, 97279, Control_c, 0, 64, 81
1, 97308, Control_c, 0, 64, 84
1, 97323, Control_c, 0, 64, 90
1, 97338, Control_c, 0, 64, 96
1, 97353, Control_c, 0, 64, 102
1, 97368, Control_c, 0, 64, 106
1, 97383, Control_c, 0, 64, 110
1, 97398, Control_c, 0, 64, 111
1, 97531, Note_on_c, 0, 73, 52
1, 97536, Note_on_c, 0, 77, 61
1, 97553, Note_on_c, 0, 67, 42
1, 97651, Note_off_c, 0, 68, 50
1, 97681, Note_off_c, 0, 73, 58
1, 97684, Note_off_c, 0, 75, 58
1, 97684, Note_off_c, 0, 67, 45
1, 97699, Note_off_c, 0, 77, 59
1, 97711, Note_on_c, 0, 66, 46
1, 97758, Note_off_c, 0, 66, 43
1, 97818, Note_on_c, 0, 77, 73
1, 97827, Note_on_c, 0, 65, 58
1, 97847, Note_on_c, 0, 68, 46
1, 97848, Note_on_c, 0, 73, 52
1, 97877, Note_off_c, 0, 65, 52
1, 97916, Note_off_c, 0, 80, 58
1, 97935, Note_on_c, 0, 56, 67
1, 97955, Note_off_c, 0, 68, 51
1, 97991, Control_c, 0, 64, 115
1, 98006, Control_c, 0, 64, 127
1, 98060, Note_on_c, 0, 82, 97
1, 98086, Poly_aftertouch_c, 0, 75, 127
1, 98087, Control_c, 0, 64, 79
1, 98101, Control_c, 0, 64, 50
1, 98106, Poly_aftertouch_c, 0, 75, 0
1, 98116, Control_c, 0, 64, 0
1, 98122, Note_off_c, 0, 77, 61
1, 98161, Control_c, 0, 64, 51
1, 98173, Note_off_c, 0, 56, 62
1, 98176, Control_c, 0, 64, 70
1, 98191, Control_c, 0, 64, 83
1, 98196, Note_on_c, 0, 55, 57
1, 98200, Note_on_c, 0, 75, 64
1, 98201, Note_on_c, 0, 70, 47
1, 98206, Control_c, 0, 64, 107
1, 98206, Note_off_c, 0, 73, 58
1, 98220, Control_c, 0, 64, 127
1, 98261, Note_off_c, 0, 55, 50
1, 98310, Note_on_c, 0, 77, 63
1, 98313, Note_on_c, 0, 54, 57
1, 98330, Note_on_c, 0, 73, 60
1, 98373, Note_off_c, 0, 54, 61
1, 98388, Note_off_c, 0, 70, 53
1, 98396, Note_off_c, 0, 75, 56
1, 98414, Note_on_c, 0, 53, 61
1, 98417, Note_off_c, 0, 73, 60
1, 98441, Note_off_c, 0, 77, 61
1, 98441, Note_off_c, 0, 53, 66
1, 98522, Note_on_c, 0, 44, 57
1, 98567, Note_on_c, 0, 77, 67
1, 98582, Note_on_c, 0, 73, 59
1, 98588, Note_on_c, 0, 70, 45
1, 98648, Note_off_c, 0, 44, 37
1, 98703, Note_on_c, 0, 37, 40
1, 98712, Note_off_c, 0, 82, 61
1, 98776, Control_c, 0, 64, 124
1, 98791, Control_c, 0, 64, 111
1, 98805, Control_c, 0, 64, 106
1, 98820, Control_c, 0, 64, 104
1, 98835, Control_c, 0, 64, 102
1, 98850, Control_c, 0, 64, 99
1, 98865, Control_c, 0, 64, 96
1, 98879, Control_c, 0, 64, 91
1, 98894, Control_c, 0, 64, 86
1, 98909, Control_c, 0, 64, 80
1, 98916, Note_on_c, 0, 80, 77
1, 98924, Control_c, 0, 64, 72
1, 98939, Control_c, 0, 64, 64
1, 98954, Control_c, 0, 64, 57
1, 98969, Control_c, 0, 64, 57
1, 98984, Control_c, 0, 64, 59
1, 98998, Control_c, 0, 64, 61
1, 99013, Control_c, 0, 64, 63
1, 99028, Control_c, 0, 64, 64
1, 99036, Note_off_c, 0, 70, 45
1, 99042, Note_off_c, 0, 77, 54
1, 99043, Control_c, 0, 64, 66
1, 99058, Control_c, 0, 64, 70
1, 99072, Control_c, 0, 64, 73
1, 99087, Control_c, 0, 64, 75
1, 99102, Control_c, 0, 64, 77
1, 99117, Control_c, 0, 64, 78
1, 99123, Note_on_c, 0, 44, 47
1, 99125, Note_off_c, 0, 37, 43
1, 99131, Control_c, 0, 64, 80
1, 99146, Control_c, 0, 64, 82
1, 99161, Control_c, 0, 64, 83
1, 99176, Control_c, 0, 64, 84
1, 99191, Control_c, 0, 64, 84
1, 99205, Control_c, 0, 64, 85
1, 99207, Note_on_c, 0, 75, 54
1, 99220, Control_c, 0, 64, 86
1, 99222, Note_on_c, 0, 68, 45
1, 99235, Control_c, 0, 64, 87
1, 99240, Note_off_c, 0, 73, 56
1, 99294, Control_c, 0, 64, 87
1, 99323, Control_c, 0, 64, 88
1, 99377, Note_on_c, 0, 53, 48
1, 99388, Note_off_c, 0, 44, 41
1, 99457, Note_on_c, 0, 77, 59
1, 99458, Note_on_c, 0, 73, 46
1, 99488, Control_c, 0, 64, 88
1, 99539, Note_off_c, 0, 53, 64
1, 99543, Note_off_c, 0, 68, 60
1, 99558, Note_on_c, 0, 54, 61
1, 99570, Note_off_c, 0, 75, 60
1, 99581, Note_off_c, 0, 73, 60
1, 99612, Note_off_c, 0, 77, 61
1, 99689, Control_c, 0, 64, 88
1, 99695, Note_off_c, 0, 54, 62
1, 99703, Note_on_c, 0, 77, 61
1, 99707, Note_on_c, 0, 55, 60
1, 99717, Note_on_c, 0, 73, 41
1, 99718, Control_c, 0, 64, 87
1, 99726, Note_on_c, 0, 68, 15
1, 99733, Control_c, 0, 64, 87
1, 99762, Control_c, 0, 64, 86
1, 99792, Control_c, 0, 64, 86
1, 99803, Note_off_c, 0, 55, 53
1, 99807, Control_c, 0, 64, 85
1, 99821, Control_c, 0, 64, 85
1, 99822, Note_on_c, 0, 56, 69
1, 99836, Control_c, 0, 67, 8
1, 99851, Control_c, 0, 67, 9
1, 99863, Note_off_c, 0, 56, 61
1, 99866, Control_c, 0, 67, 11
1, 99881, Control_c, 0, 64, 84
1, 99881, Control_c, 0, 67, 12
1, 99896, Control_c, 0, 67, 13
1, 99911, Control_c, 0, 67, 15
1, 99926, Control_c, 0, 67, 16
1, 99940, Control_c, 0, 64, 84
1, 99940, Control_c, 0, 67, 18
1, 99955, Control_c, 0, 64, 82
1, 99955, Control_c, 0, 67, 20
1, 99970, Control_c, 0, 64, 79
1, 99970, Control_c, 0, 67, 23
1, 99983, Note_on_c, 0, 65, 67
1, 99985, Control_c, 0, 64, 73
1, 99985, Control_c, 0, 67, 24
1, 100000, Control_c, 0, 64, 67
1, 100000, Control_c, 0, 67, 26
1, 100015, Control_c, 0, 64, 61
1, 100015, Control_c, 0, 67, 28
1, 100029, Control_c, 0, 64, 56
1, 100029, Control_c, 0, 67, 29
1, 100044, Control_c, 0, 64, 58
1, 100044, Control_c, 0, 67, 30
1, 100059, Control_c, 0, 64, 62
1, 100059, Control_c, 0, 67, 31
1, 100073, Control_c, 0, 64, 64
1, 100073, Control_c, 0, 67, 32
1, 100088, Control_c, 0, 64, 67
1, 100088, Control_c, 0, 67, 33
1, 100103, Control_c, 0, 64, 71
1, 100103, Control_c, 0, 67, 35
1, 100118, Control_c, 0, 64, 75
1, 100118, Control_c, 0, 67, 36
1, 100133, Control_c, 0, 64, 78
1, 100133, Control_c, 0, 67, 37
1, 100147, Control_c, 0, 64, 80
1, 100147, Control_c, 0, 67, 38
1, 100162, Control_c, 0, 64, 82
1, 100162, Control_c, 0, 67, 40
1, 100177, Control_c, 0, 64, 83
1, 100177, Control_c, 0, 67, 41
1, 100179, Note_off_c, 0, 65, 57
1, 100182, Note_on_c, 0, 66, 71
1, 100192, Control_c, 0, 64, 84
1, 100192, Control_c, 0, 67, 42
1, 100207, Control_c, 0, 64, 84
1, 100207, Control_c, 0, 67, 44
1, 100221, Control_c, 0, 64, 85
1, 100221, Control_c, 0, 67, 45
1, 100237, Control_c, 0, 64, 85
1, 100237, Control_c, 0, 67, 45
1, 100252, Control_c, 0, 67, 46
1, 100274, Control_c, 0, 67, 47
1, 100289, Control_c, 0, 67, 48
1, 100304, Control_c, 0, 64, 86
1, 100304, Control_c, 0, 67, 49
1, 100319, Control_c, 0, 67, 50
1, 100334, Control_c, 0, 67, 52
1, 100349, Control_c, 0, 67, 54
1, 100353, Note_off_c, 0, 80, 54
1, 100361, Note_on_c, 0, 67, 67
1, 100364, Control_c, 0, 64, 86
1, 100364, Control_c, 0, 67, 55
1, 100366, Note_off_c, 0, 66, 59
1, 100378, Control_c, 0, 64, 87
1, 100378, Control_c, 0, 67, 57
1, 100393, Control_c, 0, 67, 60
1, 100402, Note_off_c, 0, 68, 45
1, 100408, Control_c, 0, 67, 62
1, 100414, Note_off_c, 0, 73, 35
1, 100423, Control_c, 0, 67, 63
1, 100438, Control_c, 0, 67, 64
1, 100452, Control_c, 0, 67, 66
1, 100467, Control_c, 0, 67, 67
1, 100482, Control_c, 0, 67, 68
1, 100496, Control_c, 0, 67, 69
1, 100511, Control_c, 0, 67, 70
1, 100516, Note_off_c, 0, 67, 53
1, 100526, Control_c, 0, 64, 86
1, 100526, Control_c, 0, 67, 72
1, 100531, Note_on_c, 0, 65, 43
1, 100541, Control_c, 0, 64, 86
1, 100541, Control_c, 0, 67, 74
1, 100556, Control_c, 0, 64, 85
1, 100556, Control_c, 0, 67, 76
1, 100570, Control_c, 0, 64, 85
1, 100570, Control_c, 0, 67, 78
1, 100585, Control_c, 0, 67, 80
1, 100600, Control_c, 0, 67, 82
1, 100615, Control_c, 0, 64, 84
1, 100615, Control_c, 0, 67, 84
1, 100630, Control_c, 0, 64, 84
1, 100630, Control_c, 0, 67, 87
1, 100644, Control_c, 0, 64, 83
1, 100644, Control_c, 0, 67, 90
1, 100659, Control_c, 0, 64, 81
1, 100659, Control_c, 0, 67, 93
1, 100663, Note_on_c, 0, 80, 69
1, 100674, Control_c, 0, 64, 80
1, 100674, Control_c, 0, 67, 97
1, 100689, Control_c, 0, 64, 80
1, 100689, Control_c, 0, 67, 100
1, 100701, Note_on_c, 0, 68, 19
1, 100704, Control_c, 0, 67, 102
1, 100718, Control_c, 0, 67, 104
1, 100733, Control_c, 0, 67, 106
1, 100747, Note_off_c, 0, 77, 59
1, 100748, Control_c, 0, 67, 107
1, 100763, Control_c, 0, 67, 109
1, 100778, Control_c, 0, 67, 110
1, 100793, Control_c, 0, 67, 111
1, 100794, Note_off_c, 0, 68, 54
1, 100808, Control_c, 0, 67, 111
1, 100823, Control_c, 0, 67, 112
1, 100844, Note_off_c, 0, 65, 19
1, 100852, Control_c, 0, 67, 113
1, 100879, Note_on_c, 0, 63, 36
1, 100882, Note_on_c, 0, 66, 39
1, 100911, Control_c, 0, 64, 79
1, 100941, Control_c, 0, 64, 79
1, 100953, Note_on_c, 0, 78, 76
1, 100956, Control_c, 0, 64, 78
1, 100969, Note_on_c, 0, 70, 39
1, 100970, Control_c, 0, 64, 77
1, 100985, Control_c, 0, 64, 76
1, 101000, Control_c, 0, 64, 75
1, 101021, Note_off_c, 0, 80, 62
1, 101023, Control_c, 0, 64, 72
1, 101037, Control_c, 0, 64, 66
1, 101053, Control_c, 0, 64, 61
1, 101068, Control_c, 0, 64, 17
1, 101082, Control_c, 0, 64, 0
1, 101165, Note_on_c, 0, 56, 29
1, 101192, Note_on_c, 0, 72, 50
1, 101201, Control_c, 0, 64, 53
1, 101216, Control_c, 0, 64, 65
1, 101216, Control_c, 0, 67, 112
1, 101231, Control_c, 0, 64, 70
1, 101231, Control_c, 0, 67, 112
1, 101246, Control_c, 0, 64, 72
1, 101246, Control_c, 0, 67, 111
1, 101261, Control_c, 0, 64, 73
1, 101261, Control_c, 0, 67, 110
1, 101275, Control_c, 0, 64, 74
1, 101290, Control_c, 0, 64, 75
1, 101290, Control_c, 0, 67, 110
1, 101303, Note_off_c, 0, 70, 55
1, 101305, Control_c, 0, 64, 76
1, 101319, Control_c, 0, 64, 77
1, 101319, Control_c, 0, 67, 109
1, 101330, Note_off_c, 0, 66, 42
1, 101334, Control_c, 0, 64, 77
1, 101349, Control_c, 0, 64, 79
1, 101349, Control_c, 0, 67, 109
1, 101364, Control_c, 0, 64, 80
1, 101379, Control_c, 0, 64, 81
1, 101393, Control_c, 0, 67, 108
1, 101467, Control_c, 0, 67, 108
1, 101492, Note_off_c, 0, 56, 41
1, 101511, Control_c, 0, 67, 107
1, 101526, Control_c, 0, 64, 81
1, 101548, Note_off_c, 0, 63, 36
1, 101556, Control_c, 0, 64, 80
1, 101586, Control_c, 0, 64, 80
1, 101591, Note_off_c, 0, 72, 60
1, 101601, Control_c, 0, 64, 79
1, 101606, Note_on_c, 0, 65, 30
1, 101607, Note_on_c, 0, 68, 34
1, 101609, Note_on_c, 0, 77, 53
1, 101614, Note_on_c, 0, 61, 35
1, 101614, Note_on_c, 0, 73, 43
1, 101616, Control_c, 0, 64, 78
1, 101631, Control_c, 0, 64, 76
1, 101646, Control_c, 0, 64, 74
1, 101660, Control_c, 0, 64, 71
1, 101675, Control_c, 0, 64, 67
1, 101690, Control_c, 0, 64, 63
1, 101705, Control_c, 0, 64, 59
1, 101714, Note_off_c, 0, 78, 51
1, 101719, Control_c, 0, 64, 54
1, 101734, Control_c, 0, 64, 50
1, 101749, Control_c, 0, 64, 47
1, 101771, Control_c, 0, 64, 42
1, 101786, Control_c, 0, 64, 31
1, 101801, Control_c, 0, 64, 0
1, 101846, Control_c, 0, 67, 107
1, 101920, Control_c, 0, 67, 106
1, 101964, Control_c, 0, 67, 106
1, 101994, Control_c, 0, 67, 105
1, 102024, Control_c, 0, 64, 34
1, 102024, Control_c, 0, 67, 105
1, 102039, Control_c, 0, 64, 46
1, 102054, Control_c, 0, 64, 54
1, 102054, Control_c, 0, 67, 104
1, 102069, Control_c, 0, 64, 58
1, 102084, Control_c, 0, 64, 62
1, 102098, Control_c, 0, 64, 64
1, 102098, Control_c, 0, 67, 104
1, 102113, Control_c, 0, 64, 65
1, 102128, Control_c, 0, 64, 66
1, 102142, Control_c, 0, 64, 67
1, 102142, Control_c, 0, 67, 103
1, 102157, Control_c, 0, 64, 68
1, 102157, Control_c, 0, 67, 103
1, 102172, Control_c, 0, 64, 70
1, 102187, Control_c, 0, 64, 71
1, 102202, Control_c, 0, 64, 73
1, 102202, Control_c, 0, 67, 102
1, 102216, Control_c, 0, 64, 74
1, 102216, Control_c, 0, 67, 102
1, 102231, Control_c, 0, 64, 77
1, 102231, Control_c, 0, 67, 101
1, 102246, Control_c, 0, 64, 79
1, 102246, Control_c, 0, 67, 101
1, 102260, Control_c, 0, 64, 82
1, 102260, Control_c, 0, 67, 100
1, 102275, Control_c, 0, 64, 85
1, 102290, Control_c, 0, 64, 88
1, 102290, Control_c, 0, 67, 99
1, 102305, Control_c, 0, 64, 90
1, 102305, Control_c, 0, 67, 97
1, 102320, Control_c, 0, 64, 92
1, 102320, Control_c, 0, 67, 92
1, 102334, Control_c, 0, 64, 92
1, 102334, Control_c, 0, 67, 87
1, 102349, Control_c, 0, 64, 94
1, 102349, Control_c, 0, 67, 82
1, 102364, Control_c, 0, 64, 95
1, 102364, Control_c, 0, 67, 78
1, 102379, Control_c, 0, 64, 96
1, 102379, Control_c, 0, 67, 74
1, 102394, Control_c, 0, 64, 97
1, 102394, Control_c, 0, 67, 69
1, 102409, Control_c, 0, 64, 98
1, 102409, Control_c, 0, 67, 64
1, 102424, Control_c, 0, 64, 98
1, 102424, Control_c, 0, 67, 59
1, 102437, Note_off_c, 0, 73, 29
1, 102438, Control_c, 0, 64, 99
1, 102438, Control_c, 0, 67, 53
1, 102441, Note_off_c, 0, 77, 33
1, 102453, Control_c, 0, 67, 49
1, 102468, Control_c, 0, 67, 45
1, 102483, Control_c, 0, 67, 41
1, 102498, Control_c, 0, 67, 37
1, 102520, Control_c, 0, 67, 33
1, 102535, Control_c, 0, 67, 29
1, 102549, Control_c, 0, 67, 24
1, 102564, Control_c, 0, 67, 20
1, 102579, Control_c, 0, 67, 17
1, 102594, Control_c, 0, 67, 15
1, 102609, Control_c, 0, 67, 12
1, 102623, Control_c, 0, 67, 10
1, 102638, Control_c, 0, 67, 0
1, 102713, Control_c, 0, 64, 98
1, 102743, Control_c, 0, 64, 98
1, 102758, Control_c, 0, 64, 97
1, 102787, Control_c, 0, 64, 97
1, 102817, Control_c, 0, 64, 96
1, 102832, Control_c, 0, 64, 96
1, 102847, Control_c, 0, 64, 95
1, 102877, Control_c, 0, 64, 95
1, 102906, Control_c, 0, 64, 94
1, 102921, Control_c, 0, 64, 94
1, 102951, Control_c, 0, 64, 93
1, 102965, Control_c, 0, 64, 92
1, 102980, Control_c, 0, 64, 91
1, 102995, Control_c, 0, 64, 89
1, 103010, Control_c, 0, 64, 88
1, 103025, Control_c, 0, 64, 87
1, 103027, Note_off_c, 0, 68, 41
1, 103039, Control_c, 0, 64, 86
1, 103054, Control_c, 0, 64, 86
1, 103069, Control_c, 0, 64, 85
1, 103113, Control_c, 0, 64, 85
1, 103128, Control_c, 0, 64, 84
1, 103143, Control_c, 0, 64, 84
1, 103154, Note_on_c, 0, 75, 67
1, 103157, Control_c, 0, 64, 83
1, 103172, Control_c, 0, 64, 80
1, 103187, Control_c, 0, 64, 76
1, 103202, Control_c, 0, 64, 69
1, 103217, Control_c, 0, 64, 54
1, 103231, Control_c, 0, 64, 0
1, 103298, Control_c, 0, 64, 52
1, 103313, Control_c, 0, 64, 64
1, 103328, Control_c, 0, 64, 71
1, 103343, Control_c, 0, 64, 79
1, 103358, Control_c, 0, 64, 88
1, 103372, Control_c, 0, 64, 95
1, 103379, Note_off_c, 0, 61, 40
1, 103387, Control_c, 0, 64, 98
1, 103402, Control_c, 0, 64, 101
1, 103407, Note_off_c, 0, 65, 16
1, 103417, Control_c, 0, 64, 102
1, 103432, Control_c, 0, 64, 102
1, 103477, Control_c, 0, 64, 102
1, 103482, Note_off_c, 0, 75, 38
1, 103521, Control_c, 0, 64, 101
1, 103528, Note_on_c, 0, 73, 65
1, 103536, Control_c, 0, 64, 100
1, 103551, Control_c, 0, 64, 98
1, 103566, Control_c, 0, 64, 97
1, 103573, Note_off_c, 0, 73, 59
1, 103581, Control_c, 0, 64, 95
1, 103583, Note_on_c, 0, 75, 75
1, 103595, Control_c, 0, 64, 93
1, 103610, Control_c, 0, 64, 89
1, 103625, Control_c, 0, 64, 85
1, 103640, Control_c, 0, 64, 79
1, 103645, Note_on_c, 0, 73, 81
1, 103655, Control_c, 0, 64, 72
1, 103670, Control_c, 0, 64, 64
1, 103676, Note_off_c, 0, 75, 64
1, 103684, Control_c, 0, 64, 29
1, 103699, Control_c, 0, 64, 0
1, 103744, Control_c, 0, 64, 48
1, 103759, Control_c, 0, 64, 60
1, 103774, Control_c, 0, 64, 65
1, 103788, Control_c, 0, 64, 72
1, 103803, Control_c, 0, 64, 80
1, 103818, Control_c, 0, 64, 90
1, 103833, Control_c, 0, 64, 99
1, 103847, Control_c, 0, 64, 106
1, 103862, Control_c, 0, 64, 109
1, 103877, Control_c, 0, 64, 111
1, 103892, Control_c, 0, 64, 113
1, 103907, Control_c, 0, 64, 114
1, 104027, Note_on_c, 0, 72, 82
1, 104047, Control_c, 0, 64, 113
1, 104054, Note_off_c, 0, 73, 65
1, 104062, Control_c, 0, 64, 112
1, 104077, Control_c, 0, 64, 110
1, 104092, Control_c, 0, 64, 108
1, 104107, Control_c, 0, 64, 107
1, 104121, Control_c, 0, 64, 106
1, 104136, Control_c, 0, 64, 104
1, 104151, Control_c, 0, 64, 103
1, 104166, Control_c, 0, 64, 101
1, 104181, Control_c, 0, 64, 100
1, 104195, Control_c, 0, 64, 100
1, 104210, Control_c, 0, 64, 99
1, 104225, Control_c, 0, 64, 97
1, 104241, Control_c, 0, 64, 96
1, 104256, Control_c, 0, 64, 95
1, 104271, Control_c, 0, 64, 93
1, 104285, Control_c, 0, 64, 91
1, 104288, Note_on_c, 0, 65, 53
1, 104300, Control_c, 0, 64, 87
1, 104301, Note_on_c, 0, 70, 77
1, 104307, Note_on_c, 0, 54, 47
1, 104307, Note_on_c, 0, 58, 48
1, 104315, Control_c, 0, 64, 83
1, 104330, Control_c, 0, 64, 77
1, 104344, Control_c, 0, 64, 69
1, 104359, Control_c, 0, 64, 56
1, 104374, Control_c, 0, 64, 0
1, 104433, Control_c, 0, 64, 36
1, 104447, Note_off_c, 0, 72, 59
1, 104448, Control_c, 0, 64, 58
1, 104462, Control_c, 0, 64, 64
1, 104477, Control_c, 0, 64, 69
1, 104492, Control_c, 0, 64, 73
1, 104507, Control_c, 0, 64, 77
1, 104522, Control_c, 0, 64, 82
1, 104537, Control_c, 0, 64, 88
1, 104552, Control_c, 0, 64, 96
1, 104567, Control_c, 0, 64, 102
1, 104582, Control_c, 0, 64, 106
1, 104597, Control_c, 0, 64, 109
1, 104611, Control_c, 0, 64, 113
1, 104626, Control_c, 0, 64, 122
1, 104641, Control_c, 0, 64, 127
1, 104691, Note_off_c, 0, 58, 0
1, 104728, Poly_aftertouch_c, 0, 58, 127
1, 104852, Note_on_c, 0, 73, 77
1, 104868, Note_off_c, 0, 54, 29
1, 104870, Note_off_c, 0, 65, 55
1, 104872, Note_on_c, 0, 55, 47
1, 104874, Note_on_c, 0, 64, 55
1, 104915, Control_c, 0, 64, 126
1, 104919, Poly_aftertouch_c, 0, 58, 0
1, 104919, Note_off_c, 0, 70, 60
1, 104930, Control_c, 0, 64, 122
1, 104944, Control_c, 0, 64, 119
1, 104959, Control_c, 0, 64, 117
1, 104974, Control_c, 0, 64, 115
1, 104989, Control_c, 0, 64, 114
1, 105004, Control_c, 0, 64, 112
1, 105013, Note_off_c, 0, 55, 53
1, 105018, Control_c, 0, 64, 111
1, 105034, Control_c, 0, 64, 109
1, 105040, Note_off_c, 0, 64, 33
1, 105049, Control_c, 0, 64, 108
1, 105064, Control_c, 0, 64, 106
1, 105079, Control_c, 0, 64, 105
1, 105093, Control_c, 0, 64, 103
1, 105108, Control_c, 0, 64, 102
1, 105123, Control_c, 0, 64, 100
1, 105138, Control_c, 0, 64, 99
1, 105153, Control_c, 0, 64, 98
1, 105167, Control_c, 0, 64, 96
1, 105182, Control_c, 0, 64, 93
1, 105197, Control_c, 0, 64, 91
1, 105212, Control_c, 0, 64, 87
1, 105227, Note_on_c, 0, 44, 42
1, 105227, Control_c, 0, 64, 85
1, 105233, Note_on_c, 0, 54, 37
1, 105238, Note_on_c, 0, 51, 39
1, 105239, Note_on_c, 0, 63, 64
1, 105241, Control_c, 0, 64, 83
1, 105256, Control_c, 0, 64, 81
1, 105256, Control_c, 0, 67, 8
1, 105271, Control_c, 0, 64, 79
1, 105271, Control_c, 0, 67, 9
1, 105279, Note_on_c, 0, 61, 43
1, 105285, Control_c, 0, 64, 76
1, 105285, Control_c, 0, 67, 10
1, 105300, Control_c, 0, 64, 72
1, 105300, Control_c, 0, 67, 10
1, 105315, Control_c, 0, 64, 69
1, 105315, Control_c, 0, 67, 11
1, 105330, Control_c, 0, 64, 66
1, 105330, Control_c, 0, 67, 11
1, 105345, Control_c, 0, 64, 65
1, 105345, Control_c, 0, 67, 12
1, 105360, Control_c, 0, 64, 64
1, 105360, Control_c, 0, 67, 12
1, 105375, Control_c, 0, 64, 63
1, 105375, Control_c, 0, 67, 13
1, 105390, Control_c, 0, 64, 63
1, 105405, Control_c, 0, 64, 61
1, 105405, Control_c, 0, 67, 14
1, 105420, Control_c, 0, 64, 60
1, 105420, Control_c, 0, 67, 14
1, 105427, Note_off_c, 0, 73, 56
1, 105434, Control_c, 0, 64, 57
1, 105434, Control_c, 0, 67, 15
1, 105449, Control_c, 0, 64, 55
1, 105449, Control_c, 0, 67, 16
1, 105464, Control_c, 0, 64, 52
1, 105464, Control_c, 0, 67, 17
1, 105479, Control_c, 0, 64, 49
1, 105479, Control_c, 0, 67, 17
1, 105494, Control_c, 0, 64, 38
1, 105494, Control_c, 0, 67, 19
1, 105516, Control_c, 0, 64, 19
1, 105516, Control_c, 0, 67, 20
1, 105531, Control_c, 0, 64, 0
1, 105531, Control_c, 0, 67, 21
1, 105546, Control_c, 0, 67, 23
1, 105561, Control_c, 0, 67, 23
1, 105575, Control_c, 0, 67, 24
1, 105635, Control_c, 0, 67, 24
1, 105664, Control_c, 0, 67, 25
1, 105679, Control_c, 0, 67, 25
1, 105694, Control_c, 0, 67, 26
1, 105708, Control_c, 0, 67, 28
1, 105723, Control_c, 0, 67, 28
1, 105753, Control_c, 0, 64, 38
1, 105768, Control_c, 0, 64, 61
1, 105783, Control_c, 0, 64, 66
1, 105798, Control_c, 0, 64, 69
1, 105812, Control_c, 0, 64, 72
1, 105812, Control_c, 0, 67, 28
1, 105827, Control_c, 0, 64, 76
1, 105843, Control_c, 0, 64, 80
1, 105858, Control_c, 0, 64, 84
1, 105872, Control_c, 0, 64, 89
1, 105872, Control_c, 0, 67, 27
1, 105887, Control_c, 0, 64, 95
1, 105902, Control_c, 0, 64, 101
1, 105917, Control_c, 0, 64, 111
1, 105918, Note_off_c, 0, 44, 44
1, 105932, Control_c, 0, 64, 127
1, 106010, Note_off_c, 0, 54, 45
1, 106103, Note_off_c, 0, 61, 41
1, 106324, Control_c, 0, 67, 27
1, 106369, Control_c, 0, 67, 26
1, 106384, Control_c, 0, 67, 26
1, 106442, Control_c, 0, 67, 25
1, 106531, Control_c, 0, 64, 115
1, 106546, Control_c, 0, 64, 100
1, 106550, Note_on_c, 0, 72, 75
1, 106561, Control_c, 0, 64, 88
1, 106571, Poly_aftertouch_c, 0, 66, 127
1, 106573, Note_on_c, 0, 64, 50
1, 106576, Note_on_c, 0, 55, 48
1, 106576, Control_c, 0, 64, 77
1, 106581, Note_on_c, 0, 58, 49
1, 106591, Control_c, 0, 64, 68
1, 106596, Note_off_c, 0, 63, 58
1, 106606, Control_c, 0, 64, 62
1, 106612, Note_off_c, 0, 51, 39
1, 106617, Poly_aftertouch_c, 0, 66, 0
1, 106621, Control_c, 0, 64, 64
1, 106636, Control_c, 0, 64, 69
1, 106636, Control_c, 0, 67, 25
1, 106651, Control_c, 0, 64, 75
1, 106664, Note_on_c, 0, 71, 24
1, 106666, Control_c, 0, 64, 82
1, 106666, Control_c, 0, 67, 24
1, 106681, Control_c, 0, 64, 89
1, 106695, Control_c, 0, 64, 94
1, 106701, Note_off_c, 0, 71, 57
1, 106710, Control_c, 0, 64, 97
1, 106725, Control_c, 0, 64, 98
1, 106740, Control_c, 0, 64, 99
1, 106757, Note_off_c, 0, 58, 50
1, 106783, Note_off_c, 0, 55, 63
1, 106800, Control_c, 0, 67, 24
1, 106917, Control_c, 0, 67, 24
1, 106919, Note_on_c, 0, 63, 65
1, 106925, Note_on_c, 0, 44, 52
1, 106941, Note_on_c, 0, 61, 52
1, 106941, Poly_aftertouch_c, 0, 71, 127
1, 106946, Control_c, 0, 64, 98
1, 106953, Note_on_c, 0, 51, 36
1, 106957, Note_on_c, 0, 54, 41
1, 106961, Control_c, 0, 64, 95
1, 106976, Control_c, 0, 64, 90
1, 106976, Control_c, 0, 67, 25
1, 106984, Note_off_c, 0, 64, 47
1, 106991, Control_c, 0, 64, 83
1, 107013, Control_c, 0, 64, 73
1, 107013, Control_c, 0, 67, 25
1, 107021, Note_off_c, 0, 72, 47
1, 107027, Poly_aftertouch_c, 0, 71, 0
1, 107028, Control_c, 0, 64, 53
1, 107043, Control_c, 0, 64, 0
1, 107043, Control_c, 0, 67, 26
1, 107131, Control_c, 0, 64, 53
1, 107146, Control_c, 0, 64, 67
1, 107161, Control_c, 0, 64, 78
1, 107176, Control_c, 0, 64, 90
1, 107182, Note_off_c, 0, 54, 47
1, 107191, Control_c, 0, 64, 102
1, 107206, Control_c, 0, 64, 110
1, 107279, Control_c, 0, 67, 26
1, 107294, Control_c, 0, 67, 27
1, 107354, Control_c, 0, 64, 110
1, 107354, Control_c, 0, 67, 27
1, 107366, Note_off_c, 0, 44, 40
1, 107369, Control_c, 0, 64, 109
1, 107384, Control_c, 0, 64, 109
1, 107399, Control_c, 0, 64, 108
1, 107399, Control_c, 0, 67, 28
1, 107413, Control_c, 0, 64, 107
1, 107413, Control_c, 0, 67, 28
1, 107428, Control_c, 0, 64, 104
1, 107428, Control_c, 0, 67, 29
1, 107443, Control_c, 0, 64, 96
1, 107443, Control_c, 0, 67, 29
1, 107458, Control_c, 0, 64, 85
1, 107458, Control_c, 0, 67, 30
1, 107464, Note_on_c, 0, 71, 74
1, 107469, Note_off_c, 0, 63, 47
1, 107473, Control_c, 0, 64, 74
1, 107476, Note_on_c, 0, 62, 55
1, 107482, Note_off_c, 0, 61, 42
1, 107482, Note_on_c, 0, 53, 38
1, 107486, Note_on_c, 0, 56, 46
1, 107488, Control_c, 0, 64, 63
1, 107488, Control_c, 0, 67, 30
1, 107490, Note_off_c, 0, 51, 44
1, 107503, Control_c, 0, 64, 0
1, 107503, Control_c, 0, 67, 31
1, 107518, Control_c, 0, 67, 32
1, 107533, Control_c, 0, 64, 53
1, 107533, Control_c, 0, 67, 33
1, 107548, Control_c, 0, 64, 63
1, 107562, Control_c, 0, 64, 68
1, 107562, Control_c, 0, 67, 33
1, 107577, Control_c, 0, 64, 72
1, 107592, Control_c, 0, 64, 77
1, 107592, Control_c, 0, 67, 34
1, 107607, Control_c, 0, 64, 81
1, 107607, Control_c, 0, 67, 36
1, 107622, Control_c, 0, 64, 83
1, 107622, Control_c, 0, 67, 38
1, 107635, Control_c, 0, 67, 40
1, 107650, Control_c, 0, 67, 41
1, 107665, Control_c, 0, 67, 43
1, 107673, Note_off_c, 0, 56, 57
1, 107679, Control_c, 0, 67, 45
1, 107694, Control_c, 0, 67, 47
1, 107709, Control_c, 0, 67, 49
1, 107724, Control_c, 0, 64, 82
1, 107724, Control_c, 0, 67, 50
1, 107739, Control_c, 0, 64, 82
1, 107739, Control_c, 0, 67, 52
1, 107761, Control_c, 0, 67, 53
1, 107776, Control_c, 0, 64, 81
1, 107776, Control_c, 0, 67, 54
1, 107791, Control_c, 0, 64, 80
1, 107791, Control_c, 0, 67, 57
1, 107806, Control_c, 0, 64, 78
1, 107806, Control_c, 0, 67, 58
1, 107821, Control_c, 0, 64, 76
1, 107821, Control_c, 0, 67, 60
1, 107828, Note_off_c, 0, 53, 40
1, 107833, Note_on_c, 0, 61, 40
1, 107833, Note_on_c, 0, 63, 55
1, 107835, Control_c, 0, 64, 73
1, 107835, Control_c, 0, 67, 62
1, 107837, Note_on_c, 0, 44, 40
1, 107850, Control_c, 0, 64, 69
1, 107850, Control_c, 0, 67, 64
1, 107861, Note_off_c, 0, 62, 56
1, 107863, Note_on_c, 0, 54, 24
1, 107865, Control_c, 0, 64, 65
1, 107865, Control_c, 0, 67, 66
1, 107870, Note_on_c, 0, 51, 29
1, 107879, Control_c, 0, 64, 56
1, 107879, Control_c, 0, 67, 68
1, 107894, Control_c, 0, 64, 30
1, 107894, Control_c, 0, 67, 69
1, 107909, Control_c, 0, 64, 0
1, 107909, Control_c, 0, 67, 70
1, 107924, Control_c, 0, 67, 72
1, 107929, Note_off_c, 0, 71, 47
1, 107939, Control_c, 0, 67, 74
1, 107953, Control_c, 0, 67, 77
1, 107968, Control_c, 0, 67, 79
1, 107983, Control_c, 0, 67, 81
1, 107998, Control_c, 0, 67, 83
1, 108013, Control_c, 0, 67, 84
1, 108028, Control_c, 0, 67, 86
1, 108043, Control_c, 0, 67, 87
1, 108057, Control_c, 0, 64, 28
1, 108057, Control_c, 0, 67, 88
1, 108072, Control_c, 0, 64, 49
1, 108072, Control_c, 0, 67, 89
1, 108087, Control_c, 0, 64, 58
1, 108087, Control_c, 0, 67, 91
1, 108102, Control_c, 0, 64, 64
1, 108102, Control_c, 0, 67, 92
1, 108117, Control_c, 0, 64, 66
1, 108117, Control_c, 0, 67, 94
1, 108132, Control_c, 0, 64, 69
1, 108132, Control_c, 0, 67, 97
1, 108147, Control_c, 0, 64, 71
1, 108147, Control_c, 0, 67, 99
1, 108161, Control_c, 0, 64, 74
1, 108161, Control_c, 0, 67, 101
1, 108176, Control_c, 0, 64, 75
1, 108176, Control_c, 0, 67, 104
1, 108191, Control_c, 0, 64, 77
1, 108191, Control_c, 0, 67, 106
1, 108205, Control_c, 0, 64, 80
1, 108205, Control_c, 0, 67, 108
1, 108220, Control_c, 0, 64, 81
1, 108220, Control_c, 0, 67, 110
1, 108236, Control_c, 0, 64, 83
1, 108236, Control_c, 0, 67, 112
1, 108251, Control_c, 0, 64, 83
1, 108251, Control_c, 0, 67, 113
1, 108266, Control_c, 0, 67, 114
1, 108281, Control_c, 0, 64, 84
1, 108281, Control_c, 0, 67, 115
1, 108296, Control_c, 0, 64, 84
1, 108296, Control_c, 0, 67, 117
1, 108310, Control_c, 0, 67, 119
1, 108325, Control_c, 0, 67, 122
1, 108340, Control_c, 0, 67, 125
1, 108355, Control_c, 0, 67, 127
1, 108370, Control_c, 0, 64, 85
1, 108370, Control_c, 0, 67, 127
1, 108384, Control_c, 0, 64, 85
1, 108532, Note_off_c, 0, 54, 33
1, 108570, Control_c, 0, 64, 85
1, 108599, Control_c, 0, 64, 84
1, 108629, Control_c, 0, 64, 84
1, 108643, Control_c, 0, 64, 83
1, 108673, Control_c, 0, 64, 83
1, 108702, Control_c, 0, 64, 82
1, 108717, Control_c, 0, 64, 81
1, 108721, Note_off_c, 0, 51, 33
1, 108732, Control_c, 0, 64, 79
1, 108747, Note_on_c, 0, 70, 51
1, 108747, Control_c, 0, 64, 77
1, 108759, Note_on_c, 0, 55, 34
1, 108762, Control_c, 0, 64, 73
1, 108763, Note_on_c, 0, 52, 30
1, 108768, Note_on_c, 0, 60, 29
1, 108776, Control_c, 0, 64, 68
1, 108791, Control_c, 0, 64, 63
1, 108804, Note_off_c, 0, 61, 41
1, 108806, Control_c, 0, 64, 55
1, 108821, Control_c, 0, 64, 44
1, 108827, Note_off_c, 0, 63, 43
1, 108835, Control_c, 0, 64, 40
1, 108850, Control_c, 0, 64, 38
1, 108880, Control_c, 0, 64, 39
1, 108895, Control_c, 0, 64, 45
1, 108910, Control_c, 0, 64, 54
1, 108925, Control_c, 0, 64, 60
1, 108940, Control_c, 0, 64, 63
1, 108955, Control_c, 0, 64, 66
1, 108970, Control_c, 0, 64, 69
1, 108984, Control_c, 0, 64, 72
1, 108999, Control_c, 0, 64, 75
1, 109014, Control_c, 0, 64, 77
1, 109029, Control_c, 0, 64, 79
1, 109044, Control_c, 0, 64, 80
1, 109059, Control_c, 0, 64, 81
1, 109071, Note_off_c, 0, 44, 4
1, 109074, Control_c, 0, 64, 82
1, 109097, Note_off_c, 0, 55, 38
1, 109178, Control_c, 0, 64, 81
1, 109207, Control_c, 0, 64, 81
1, 109222, Control_c, 0, 64, 80
1, 109259, Control_c, 0, 64, 80
1, 109274, Control_c, 0, 64, 79
1, 109289, Control_c, 0, 64, 79
1, 109303, Note_on_c, 0, 63, 42
1, 109303, Note_off_c, 0, 52, 35
1, 109303, Control_c, 0, 64, 78
1, 109318, Control_c, 0, 64, 76
1, 109319, Note_on_c, 0, 61, 29
1, 109328, Note_on_c, 0, 54, 20
1, 109331, Note_on_c, 0, 44, 25
1, 109333, Control_c, 0, 64, 73
1, 109343, Note_on_c, 0, 51, 32
1, 109348, Control_c, 0, 64, 70
1, 109363, Control_c, 0, 64, 66
1, 109368, Note_off_c, 0, 60, 45
1, 109378, Control_c, 0, 64, 64
1, 109393, Control_c, 0, 64, 62
1, 109407, Control_c, 0, 64, 60
1, 109422, Control_c, 0, 64, 58
1, 109427, Note_off_c, 0, 70, 34
1, 109437, Control_c, 0, 64, 55
1, 109451, Control_c, 0, 64, 51
1, 109466, Control_c, 0, 64, 48
1, 109481, Control_c, 0, 64, 45
1, 109496, Control_c, 0, 64, 40
1, 109511, Control_c, 0, 64, 32
1, 109526, Control_c, 0, 64, 21
1, 109540, Control_c, 0, 64, 0
1, 109807, Control_c, 0, 64, 21
1, 109822, Control_c, 0, 64, 30
1, 109837, Control_c, 0, 64, 35
1, 109852, Control_c, 0, 64, 40
1, 109867, Control_c, 0, 64, 45
1, 109882, Control_c, 0, 64, 49
1, 109897, Control_c, 0, 64, 51
1, 109912, Control_c, 0, 64, 53
1, 109926, Control_c, 0, 64, 53
1, 109941, Control_c, 0, 64, 55
1, 109956, Control_c, 0, 64, 59
1, 109971, Control_c, 0, 64, 62
1, 109986, Control_c, 0, 64, 63
1, 110023, Control_c, 0, 64, 64
1, 110037, Control_c, 0, 64, 64
1, 110052, Control_c, 0, 64, 65
1, 110067, Control_c, 0, 64, 66
1, 110081, Control_c, 0, 64, 66
1, 110096, Control_c, 0, 64, 67
1, 110111, Control_c, 0, 64, 67
1, 110126, Control_c, 0, 64, 68
1, 110141, Control_c, 0, 64, 69
1, 110156, Control_c, 0, 64, 70
1, 110171, Control_c, 0, 64, 71
1, 110171, Control_c, 0, 67, 127
1, 110201, Control_c, 0, 64, 71
1, 110201, Control_c, 0, 67, 126
1, 110216, Control_c, 0, 64, 72
1, 110230, Control_c, 0, 67, 126
1, 110245, Control_c, 0, 64, 73
1, 110245, Control_c, 0, 67, 125
1, 110260, Control_c, 0, 64, 74
1, 110260, Control_c, 0, 67, 125
1, 110275, Control_c, 0, 64, 75
1, 110275, Control_c, 0, 67, 124
1, 110289, Control_c, 0, 64, 76
1, 110289, Control_c, 0, 67, 124
1, 110304, Control_c, 0, 64, 76
1, 110304, Control_c, 0, 67, 123
1, 110319, Control_c, 0, 64, 77
1, 110319, Control_c, 0, 67, 123
1, 110334, Control_c, 0, 64, 77
1, 110334, Control_c, 0, 67, 122
1, 110349, Control_c, 0, 67, 122
1, 110378, Control_c, 0, 64, 78
1, 110378, Control_c, 0, 67, 121
1, 110408, Control_c, 0, 64, 78
1, 110408, Control_c, 0, 67, 121
1, 110423, Control_c, 0, 64, 79
1, 110423, Control_c, 0, 67, 120
1, 110452, Control_c, 0, 64, 80
1, 110452, Control_c, 0, 67, 120
1, 110455, Note_on_c, 0, 58, 40
1, 110467, Control_c, 0, 64, 80
1, 110467, Control_c, 0, 67, 119
1, 110481, Control_c, 0, 64, 81
1, 110496, Control_c, 0, 64, 81
1, 110496, Control_c, 0, 67, 119
1, 110511, Control_c, 0, 64, 82
1, 110511, Control_c, 0, 67, 118
1, 110541, Control_c, 0, 64, 83
1, 110555, Control_c, 0, 64, 83
1, 110555, Control_c, 0, 67, 118
1, 110570, Control_c, 0, 64, 84
1, 110585, Control_c, 0, 64, 84
1, 110585, Control_c, 0, 67, 117
1, 110600, Control_c, 0, 64, 85
1, 110615, Control_c, 0, 64, 85
1, 110615, Control_c, 0, 67, 117
1, 110631, Control_c, 0, 64, 86
1, 110645, Control_c, 0, 64, 87
1, 110645, Control_c, 0, 67, 115
1, 110660, Control_c, 0, 64, 88
1, 110660, Control_c, 0, 67, 112
1, 110675, Control_c, 0, 64, 88
1, 110675, Control_c, 0, 67, 109
1, 110690, Control_c, 0, 64, 89
1, 110690, Control_c, 0, 67, 106
1, 110704, Control_c, 0, 67, 102
1, 110719, Control_c, 0, 67, 98
1, 110734, Control_c, 0, 67, 94
1, 110757, Control_c, 0, 67, 89
1, 110772, Control_c, 0, 67, 84
1, 110786, Control_c, 0, 67, 80
1, 110801, Control_c, 0, 67, 75
1, 110816, Control_c, 0, 67, 72
1, 110831, Control_c, 0, 67, 67
1, 110846, Control_c, 0, 67, 64
1, 110860, Control_c, 0, 67, 62
1, 110863, Note_on_c, 0, 60, 50
1, 110875, Control_c, 0, 67, 59
1, 110890, Control_c, 0, 67, 57
1, 110893, Note_off_c, 0, 58, 55
1, 110904, Control_c, 0, 67, 54
1, 110919, Control_c, 0, 67, 51
1, 110933, Note_off_c, 0, 61, 43
1, 110934, Control_c, 0, 67, 48
1, 110949, Control_c, 0, 67, 45
1, 110961, Note_off_c, 0, 63, 55
1, 110964, Control_c, 0, 67, 43
1, 110979, Control_c, 0, 67, 41
1, 110994, Control_c, 0, 67, 39
1, 111009, Control_c, 0, 64, 88
1, 111009, Control_c, 0, 67, 37
1, 111023, Control_c, 0, 67, 34
1, 111038, Control_c, 0, 64, 88
1, 111038, Control_c, 0, 67, 30
1, 111053, Control_c, 0, 67, 27
1, 111055, Note_on_c, 0, 61, 56
1, 111068, Control_c, 0, 64, 87
1, 111068, Control_c, 0, 67, 23
1, 111075, Note_off_c, 0, 60, 57
1, 111083, Control_c, 0, 67, 18
1, 111098, Control_c, 0, 64, 87
1, 111098, Control_c, 0, 67, 12
1, 111112, Control_c, 0, 67, 0
1, 111157, Control_c, 0, 64, 86
1, 111185, Note_off_c, 0, 61, 61
1, 111186, Control_c, 0, 64, 86
1, 111194, Note_on_c, 0, 62, 59
1, 111201, Control_c, 0, 64, 85
1, 111216, Control_c, 0, 64, 85
1, 111230, Control_c, 0, 64, 84
1, 111245, Control_c, 0, 64, 83
1, 111260, Control_c, 0, 64, 82
1, 111275, Control_c, 0, 64, 81
1, 111290, Control_c, 0, 64, 79
1, 111295, Note_off_c, 0, 54, 43
1, 111298, Note_off_c, 0, 51, 40
1, 111304, Control_c, 0, 64, 77
1, 111305, Note_off_c, 0, 44, 31
1, 111319, Control_c, 0, 64, 76
1, 111326, Note_on_c, 0, 65, 49
1, 111330, Note_off_c, 0, 62, 52
1, 111334, Control_c, 0, 64, 74
1, 111349, Control_c, 0, 64, 72
1, 111364, Control_c, 0, 64, 70
1, 111378, Control_c, 0, 64, 67
1, 111393, Control_c, 0, 64, 65
1, 111408, Control_c, 0, 64, 64
1, 111424, Control_c, 0, 64, 63
1, 111439, Control_c, 0, 64, 62
1, 111453, Control_c, 0, 64, 62
1, 111468, Control_c, 0, 64, 61
1, 111480, Note_off_c, 0, 65, 50
1, 111483, Control_c, 0, 64, 58
1, 111491, Note_on_c, 0, 66, 41
1, 111506, Control_c, 0, 64, 54
1, 111506, Control_c, 0, 67, 8
1, 111521, Control_c, 0, 64, 48
1, 111521, Control_c, 0, 67, 9
1, 111535, Control_c, 0, 64, 44
1, 111535, Control_c, 0, 67, 11
1, 111550, Control_c, 0, 64, 43
1, 111550, Control_c, 0, 67, 12
1, 111565, Control_c, 0, 64, 43
1, 111565, Control_c, 0, 67, 14
1, 111580, Control_c, 0, 64, 45
1, 111580, Control_c, 0, 67, 18
1, 111595, Control_c, 0, 64, 48
1, 111595, Control_c, 0, 67, 23
1, 111609, Control_c, 0, 64, 52
1, 111609, Control_c, 0, 67, 27
1, 111624, Control_c, 0, 64, 56
1, 111624, Control_c, 0, 67, 31
1, 111639, Control_c, 0, 64, 60
1, 111639, Control_c, 0, 67, 34
1, 111653, Control_c, 0, 64, 62
1, 111653, Control_c, 0, 67, 37
1, 111668, Control_c, 0, 64, 63
1, 111668, Control_c, 0, 67, 39
1, 111683, Control_c, 0, 64, 64
1, 111683, Control_c, 0, 67, 41
1, 111698, Control_c, 0, 64, 66
1, 111698, Control_c, 0, 67, 42
1, 111703, Note_on_c, 0, 63, 40
1, 111713, Note_off_c, 0, 66, 49
1, 111713, Control_c, 0, 64, 68
1, 111713, Control_c, 0, 67, 45
1, 111727, Control_c, 0, 64, 71
1, 111727, Control_c, 0, 67, 49
1, 111742, Control_c, 0, 64, 73
1, 111742, Control_c, 0, 67, 53
1, 111757, Control_c, 0, 64, 75
1, 111757, Control_c, 0, 67, 56
1, 111772, Control_c, 0, 64, 77
1, 111772, Control_c, 0, 67, 58
1, 111784, Note_off_c, 0, 63, 61
1, 111787, Control_c, 0, 64, 79
1, 111787, Control_c, 0, 67, 61
1, 111801, Control_c, 0, 64, 80
1, 111801, Control_c, 0, 67, 64
1, 111816, Note_on_c, 0, 65, 46
1, 111816, Control_c, 0, 64, 81
1, 111816, Control_c, 0, 67, 67
1, 111831, Control_c, 0, 64, 82
1, 111831, Control_c, 0, 67, 69
1, 111846, Control_c, 0, 64, 83
1, 111846, Control_c, 0, 67, 71
1, 111861, Control_c, 0, 64, 86
1, 111861, Control_c, 0, 67, 74
1, 111876, Control_c, 0, 64, 88
1, 111876, Control_c, 0, 67, 77
1, 111882, Note_off_c, 0, 65, 52
1, 111891, Control_c, 0, 64, 89
1, 111891, Control_c, 0, 67, 80
1, 111895, Note_on_c, 0, 66, 48
1, 111906, Control_c, 0, 67, 82
1, 111921, Control_c, 0, 67, 86
1, 111935, Control_c, 0, 67, 89
1, 111942, Note_off_c, 0, 66, 57
1, 111950, Control_c, 0, 67, 93
1, 111965, Control_c, 0, 67, 95
1, 111969, Note_on_c, 0, 68, 45
1, 111980, Control_c, 0, 67, 98
1, 111995, Control_c, 0, 67, 101
1, 112004, Note_off_c, 0, 68, 63
1, 112009, Control_c, 0, 64, 89
1, 112009, Control_c, 0, 67, 104
1, 112014, Note_on_c, 0, 70, 55
1, 112024, Control_c, 0, 64, 88
1, 112024, Control_c, 0, 67, 107
1, 112039, Control_c, 0, 64, 88
1, 112039, Control_c, 0, 67, 110
1, 112047, Note_off_c, 0, 70, 65
1, 112053, Control_c, 0, 64, 87
1, 112053, Control_c, 0, 67, 112
1, 112068, Control_c, 0, 64, 87
1, 112068, Control_c, 0, 67, 114
1, 112083, Control_c, 0, 64, 86
1, 112083, Control_c, 0, 67, 116
1, 112088, Note_on_c, 0, 72, 60
1, 112098, Control_c, 0, 64, 86
1, 112098, Control_c, 0, 67, 117
1, 112113, Control_c, 0, 64, 85
1, 112113, Control_c, 0, 67, 118
1, 112128, Control_c, 0, 64, 85
1, 112128, Control_c, 0, 67, 119
1, 112143, Control_c, 0, 64, 84
1, 112158, Control_c, 0, 64, 84
1, 112172, Control_c, 0, 64, 83
1, 112184, Note_on_c, 0, 73, 56
1, 112187, Control_c, 0, 64, 83
1, 112217, Control_c, 0, 64, 82
1, 112227, Note_off_c, 0, 72, 34
1, 112233, Control_c, 0, 64, 81
1, 112255, Control_c, 0, 64, 81
1, 112270, Control_c, 0, 64, 80
1, 112282, Note_off_c, 0, 73, 57
1, 112284, Control_c, 0, 64, 80
1, 112290, Note_on_c, 0, 75, 57
1, 112299, Control_c, 0, 64, 79
1, 112314, Control_c, 0, 64, 79
1, 112329, Control_c, 0, 64, 78
1, 112344, Control_c, 0, 64, 78
1, 112359, Control_c, 0, 64, 77
1, 112374, Control_c, 0, 64, 77
1, 112389, Control_c, 0, 64, 76
1, 112404, Control_c, 0, 64, 75
1, 112419, Control_c, 0, 64, 75
1, 112433, Control_c, 0, 64, 74
1, 112448, Control_c, 0, 64, 73
1, 112463, Control_c, 0, 64, 72
1, 112477, Control_c, 0, 64, 71
1, 112492, Control_c, 0, 64, 70
1, 112492, Control_c, 0, 67, 118
1, 112507, Control_c, 0, 64, 69
1, 112522, Control_c, 0, 64, 69
1, 112522, Control_c, 0, 67, 118
1, 112537, Control_c, 0, 64, 68
1, 112551, Control_c, 0, 64, 68
1, 112566, Control_c, 0, 64, 67
1, 112581, Control_c, 0, 64, 67
1, 112596, Control_c, 0, 64, 66
1, 112596, Control_c, 0, 67, 117
1, 112611, Control_c, 0, 64, 65
1, 112613, Note_on_c, 0, 61, 18
1, 112618, Note_on_c, 0, 65, 15
1, 112625, Control_c, 0, 64, 64
1, 112639, Note_on_c, 0, 68, 3
1, 112640, Control_c, 0, 64, 63
1, 112640, Control_c, 0, 67, 117
1, 112644, Note_on_c, 0, 77, 60
1, 112655, Control_c, 0, 64, 60
1, 112669, Control_c, 0, 64, 53
1, 112676, Note_on_c, 0, 73, 42
1, 112684, Note_off_c, 0, 75, 52
1, 112684, Control_c, 0, 64, 37
1, 112699, Control_c, 0, 64, 0
1, 112891, Control_c, 0, 67, 116
1, 112906, Control_c, 0, 64, 54
1, 112906, Control_c, 0, 67, 115
1, 112921, Control_c, 0, 64, 61
1, 112921, Control_c, 0, 67, 115
1, 112936, Control_c, 0, 64, 63
1, 112936, Control_c, 0, 67, 114
1, 112950, Control_c, 0, 64, 65
1, 112950, Control_c, 0, 67, 114
1, 112965, Control_c, 0, 64, 67
1, 112980, Control_c, 0, 64, 70
1, 113002, Control_c, 0, 64, 71
1, 113002, Control_c, 0, 67, 113
1, 113017, Control_c, 0, 64, 73
1, 113017, Control_c, 0, 67, 113
1, 113033, Control_c, 0, 64, 75
1, 113048, Control_c, 0, 64, 77
1, 113062, Control_c, 0, 64, 79
1, 113062, Control_c, 0, 67, 112
1, 113077, Control_c, 0, 64, 80
1, 113092, Control_c, 0, 64, 81
1, 113092, Control_c, 0, 67, 112
1, 113107, Control_c, 0, 64, 81
1, 113107, Control_c, 0, 67, 111
1, 113122, Control_c, 0, 64, 82
1, 113122, Control_c, 0, 67, 111
1, 113130, Note_off_c, 0, 73, 42
1, 113137, Control_c, 0, 64, 83
1, 113152, Control_c, 0, 64, 84
1, 113152, Control_c, 0, 67, 110
1, 113181, Control_c, 0, 64, 85
1, 113181, Control_c, 0, 67, 110
1, 113196, Control_c, 0, 64, 85
1, 113200, Note_off_c, 0, 65, 41
1, 113211, Control_c, 0, 64, 87
1, 113211, Control_c, 0, 67, 109
1, 113225, Control_c, 0, 64, 88
1, 113240, Control_c, 0, 64, 88
1, 113240, Control_c, 0, 67, 109
1, 113247, Note_off_c, 0, 68, 41
1, 113270, Control_c, 0, 64, 89
1, 113271, Note_off_c, 0, 77, 43
1, 113285, Control_c, 0, 64, 90
1, 113299, Control_c, 0, 64, 92
1, 113314, Control_c, 0, 64, 92
1, 113329, Control_c, 0, 64, 93
1, 113344, Control_c, 0, 64, 93
1, 113357, Note_off_c, 0, 61, 52
1, 113359, Control_c, 0, 64, 94
1, 113373, Control_c, 0, 64, 95
1, 113388, Control_c, 0, 64, 95
1, 113431, Note_on_c, 0, 72, 40
1, 113431, Note_on_c, 0, 76, 59
1, 113435, Note_on_c, 0, 64, 36
1, 113446, Note_on_c, 0, 60, 33
1, 113462, Control_c, 0, 67, 108
1, 113507, Note_off_c, 0, 60, 39
1, 113524, Poly_aftertouch_c, 0, 67, 127
1, 113583, Poly_aftertouch_c, 0, 67, 0
1, 113593, Note_on_c, 0, 75, 59
1, 113593, Note_off_c, 0, 64, 41
1, 113602, Note_on_c, 0, 70, 44
1, 113605, Note_off_c, 0, 72, 43
1, 113606, Note_on_c, 0, 58, 35
1, 113609, Note_on_c, 0, 63, 39
1, 113617, Note_on_c, 0, 66, 38
1, 113623, Note_off_c, 0, 76, 39
1, 113655, Control_c, 0, 64, 95
1, 113685, Control_c, 0, 64, 94
1, 113699, Control_c, 0, 64, 94
1, 113714, Control_c, 0, 64, 93
1, 113729, Control_c, 0, 64, 93
1, 113751, Control_c, 0, 64, 92
1, 113766, Control_c, 0, 64, 92
1, 113781, Control_c, 0, 64, 91
1, 113790, Note_off_c, 0, 70, 43
1, 113793, Note_off_c, 0, 66, 37
1, 113796, Control_c, 0, 64, 89
1, 113811, Control_c, 0, 64, 88
1, 113826, Control_c, 0, 64, 87
1, 113841, Control_c, 0, 64, 86
1, 113855, Control_c, 0, 64, 84
1, 113870, Control_c, 0, 64, 82
1, 113885, Control_c, 0, 64, 80
1, 113900, Control_c, 0, 64, 78
1, 113915, Control_c, 0, 64, 76
1, 113930, Control_c, 0, 64, 75
1, 113930, Control_c, 0, 67, 108
1, 113933, Note_off_c, 0, 63, 39
1, 113945, Control_c, 0, 64, 73
1, 113960, Control_c, 0, 64, 72
1, 113960, Note_off_c, 0, 58, 42
1, 113975, Control_c, 0, 64, 71
1, 113989, Control_c, 0, 64, 69
1, 113989, Control_c, 0, 67, 107
1, 114004, Control_c, 0, 64, 68
1, 114010, Note_on_c, 0, 77, 56
1, 114015, Note_on_c, 0, 68, 24
1, 114019, Control_c, 0, 64, 66
1, 114022, Note_on_c, 0, 61, 28
1, 114034, Note_on_c, 0, 65, 23
1, 114034, Control_c, 0, 64, 64
1, 114036, Note_on_c, 0, 73, 39
1, 114048, Control_c, 0, 64, 61
1, 114052, Note_off_c, 0, 75, 49
1, 114063, Control_c, 0, 64, 58
1, 114078, Control_c, 0, 64, 53
1, 114093, Control_c, 0, 64, 45
1, 114108, Control_c, 0, 64, 17
1, 114122, Control_c, 0, 64, 0
1, 114255, Control_c, 0, 67, 107
1, 114285, Control_c, 0, 67, 106
1, 114314, Control_c, 0, 64, 21
1, 114314, Control_c, 0, 67, 106
1, 114329, Control_c, 0, 64, 41
1, 114329, Control_c, 0, 67, 105
1, 114344, Control_c, 0, 64, 53
1, 114359, Control_c, 0, 64, 59
1, 114374, Control_c, 0, 64, 62
1, 114374, Control_c, 0, 67, 105
1, 114389, Control_c, 0, 64, 63
1, 114389, Control_c, 0, 67, 104
1, 114404, Control_c, 0, 64, 64
1, 114404, Control_c, 0, 67, 104
1, 114419, Control_c, 0, 64, 66
1, 114419, Control_c, 0, 67, 103
1, 114434, Control_c, 0, 64, 67
1, 114434, Control_c, 0, 67, 102
1, 114448, Control_c, 0, 64, 68
1, 114448, Control_c, 0, 67, 102
1, 114463, Control_c, 0, 64, 68
1, 114463, Control_c, 0, 67, 101
1, 114478, Control_c, 0, 64, 69
1, 114478, Control_c, 0, 67, 100
1, 114500, Control_c, 0, 64, 70
1, 114500, Control_c, 0, 67, 99
1, 114515, Control_c, 0, 64, 70
1, 114515, Control_c, 0, 67, 98
1, 114529, Control_c, 0, 64, 71
1, 114529, Control_c, 0, 67, 97
1, 114544, Control_c, 0, 64, 72
1, 114544, Control_c, 0, 67, 96
1, 114559, Control_c, 0, 64, 74
1, 114559, Control_c, 0, 67, 94
1, 114574, Control_c, 0, 64, 75
1, 114574, Control_c, 0, 67, 91
1, 114589, Control_c, 0, 64, 76
1, 114589, Control_c, 0, 67, 87
1, 114604, Control_c, 0, 64, 77
1, 114604, Control_c, 0, 67, 83
1, 114618, Control_c, 0, 64, 78
1, 114618, Control_c, 0, 67, 78
1, 114634, Control_c, 0, 64, 80
1, 114634, Control_c, 0, 67, 75
1, 114649, Control_c, 0, 64, 82
1, 114649, Control_c, 0, 67, 71
1, 114664, Control_c, 0, 64, 83
1, 114664, Control_c, 0, 67, 65
1, 114678, Control_c, 0, 64, 83
1, 114678, Control_c, 0, 67, 59
1, 114693, Control_c, 0, 64, 84
1, 114693, Control_c, 0, 67, 53
1, 114708, Control_c, 0, 64, 86
1, 114708, Control_c, 0, 67, 47
1, 114723, Control_c, 0, 64, 89
1, 114723, Control_c, 0, 67, 43
1, 114738, Control_c, 0, 64, 91
1, 114738, Control_c, 0, 67, 38
1, 114753, Control_c, 0, 64, 92
1, 114753, Control_c, 0, 67, 34
1, 114767, Control_c, 0, 64, 93
1, 114767, Control_c, 0, 67, 29
1, 114782, Control_c, 0, 64, 94
1, 114782, Control_c, 0, 67, 24
1, 114797, Control_c, 0, 64, 96
1, 114797, Control_c, 0, 67, 20
1, 114812, Control_c, 0, 64, 97
1, 114812, Control_c, 0, 67, 17
1, 114827, Control_c, 0, 67, 13
1, 114842, Control_c, 0, 64, 97
1, 114842, Control_c, 0, 67, 8
1, 114857, Control_c, 0, 67, 0
1, 114886, Control_c, 0, 64, 98
1, 114926, Note_off_c, 0, 73, 32
1, 115469, Note_off_c, 0, 61, 51
1, 115606, Control_c, 0, 64, 97
1, 115626, Note_on_c, 0, 75, 58
1, 115627, Note_off_c, 0, 68, 39
1, 115628, Note_on_c, 0, 60, 38
1, 115650, Note_off_c, 0, 65, 40
1, 115650, Control_c, 0, 64, 97
1, 115680, Control_c, 0, 64, 96
1, 115709, Control_c, 0, 64, 96
1, 115754, Control_c, 0, 64, 95
1, 115755, Note_off_c, 0, 60, 34
1, 115795, Note_on_c, 0, 73, 68
1, 115799, Control_c, 0, 64, 95
1, 115814, Control_c, 0, 64, 94
1, 115823, Note_on_c, 0, 61, 36
1, 115823, Note_on_c, 0, 65, 37
1, 115828, Control_c, 0, 64, 94
1, 115833, Note_on_c, 0, 58, 40
1, 115835, Note_on_c, 0, 70, 44
1, 115843, Control_c, 0, 64, 93
1, 115858, Control_c, 0, 64, 93
1, 115904, Note_off_c, 0, 65, 49
1, 115917, Control_c, 0, 64, 92
1, 115922, Note_off_c, 0, 77, 34
1, 115932, Control_c, 0, 64, 92
1, 115947, Control_c, 0, 64, 91
1, 115948, Note_off_c, 0, 70, 49
1, 115974, Note_off_c, 0, 61, 39
1, 115999, Control_c, 0, 64, 91
1, 116013, Control_c, 0, 64, 90
1, 116028, Control_c, 0, 64, 90
1, 116040, Note_off_c, 0, 75, 48
1, 116074, Note_off_c, 0, 73, 59
1, 116112, Note_on_c, 0, 65, 30
1, 116117, Control_c, 0, 64, 89
1, 116132, Control_c, 0, 64, 88
1, 116144, Note_on_c, 0, 68, 44
1, 116146, Control_c, 0, 64, 83
1, 116149, Note_on_c, 0, 61, 44
1, 116151, Note_on_c, 0, 77, 71
1, 116161, Control_c, 0, 64, 75
1, 116165, Note_off_c, 0, 58, 40
1, 116176, Control_c, 0, 64, 65
1, 116179, Note_on_c, 0, 73, 49
1, 116191, Control_c, 0, 64, 32
1, 116206, Control_c, 0, 64, 0
1, 116251, Control_c, 0, 64, 28
1, 116266, Control_c, 0, 64, 60
1, 116281, Control_c, 0, 64, 66
1, 116296, Control_c, 0, 64, 72
1, 116311, Control_c, 0, 64, 78
1, 116325, Control_c, 0, 64, 82
1, 116340, Control_c, 0, 64, 87
1, 116355, Control_c, 0, 64, 91
1, 116356, Note_off_c, 0, 65, 55
1, 116370, Control_c, 0, 64, 94
1, 116385, Control_c, 0, 64, 95
1, 116388, Note_off_c, 0, 68, 61
1, 116443, Control_c, 0, 64, 95
1, 116444, Note_off_c, 0, 61, 54
1, 116473, Control_c, 0, 64, 94
1, 116477, Note_on_c, 0, 75, 70
1, 116488, Control_c, 0, 64, 93
1, 116490, Note_on_c, 0, 60, 49
1, 116502, Note_off_c, 0, 73, 60
1, 116503, Control_c, 0, 64, 93
1, 116517, Control_c, 0, 64, 92
1, 116532, Control_c, 0, 64, 92
1, 116547, Control_c, 0, 64, 91
1, 116562, Control_c, 0, 64, 90
1, 116577, Control_c, 0, 64, 90
1, 116592, Control_c, 0, 64, 89
1, 116617, Note_on_c, 0, 73, 74
1, 116622, Control_c, 0, 64, 89
1, 116628, Note_off_c, 0, 60, 50
1, 116636, Control_c, 0, 64, 88
1, 116639, Note_on_c, 0, 58, 55
1, 116651, Control_c, 0, 64, 88
1, 116681, Control_c, 0, 64, 87
1, 116711, Control_c, 0, 64, 87
1, 116723, Note_off_c, 0, 77, 37
1, 116725, Control_c, 0, 64, 86
1, 116777, Control_c, 0, 64, 86
1, 116791, Control_c, 0, 64, 85
1, 116797, Note_off_c, 0, 58, 39
1, 116806, Control_c, 0, 64, 85
1, 116821, Control_c, 0, 64, 84
1, 116836, Control_c, 0, 64, 82
1, 116842, Note_on_c, 0, 72, 61
1, 116850, Note_on_c, 0, 56, 40
1, 116851, Control_c, 0, 64, 78
1, 116857, Note_on_c, 0, 60, 34
1, 116866, Note_off_c, 0, 75, 39
1, 116866, Control_c, 0, 64, 71
1, 116866, Note_on_c, 0, 65, 39
1, 116881, Control_c, 0, 64, 64
1, 116884, Note_on_c, 0, 68, 28
1, 116890, Note_off_c, 0, 73, 56
1, 116896, Control_c, 0, 64, 27
1, 116911, Control_c, 0, 64, 0
1, 116969, Control_c, 0, 64, 35
1, 116984, Control_c, 0, 64, 60
1, 116999, Control_c, 0, 64, 68
1, 117015, Control_c, 0, 64, 74
1, 117030, Control_c, 0, 64, 80
1, 117045, Control_c, 0, 64, 84
1, 117060, Control_c, 0, 64, 87
1, 117073, Note_off_c, 0, 68, 58
1, 117074, Control_c, 0, 64, 90
1, 117089, Control_c, 0, 64, 92
1, 117104, Control_c, 0, 64, 92
1, 117107, Note_off_c, 0, 60, 35
1, 117127, Note_off_c, 0, 65, 35
1, 117164, Note_off_c, 0, 56, 35
1, 117247, Note_off_c, 0, 72, 61
1, 117252, Control_c, 0, 64, 92
1, 117281, Control_c, 0, 64, 91
1, 117296, Control_c, 0, 64, 90
1, 117311, Control_c, 0, 64, 89
1, 117326, Control_c, 0, 64, 88
1, 117340, Control_c, 0, 64, 88
1, 117355, Control_c, 0, 64, 86
1, 117370, Control_c, 0, 64, 85
1, 117373, Note_on_c, 0, 77, 63
1, 117381, Note_on_c, 0, 65, 28
1, 117385, Control_c, 0, 64, 82
1, 117385, Note_on_c, 0, 68, 37
1, 117389, Note_on_c, 0, 61, 36
1, 117389, Note_on_c, 0, 73, 53
1, 117399, Control_c, 0, 64, 80
1, 117414, Control_c, 0, 64, 77
1, 117429, Control_c, 0, 64, 73
1, 117444, Control_c, 0, 64, 68
1, 117459, Control_c, 0, 64, 60
1, 117473, Control_c, 0, 64, 0
1, 117644, Control_c, 0, 64, 29
1, 117659, Control_c, 0, 64, 47
1, 117673, Control_c, 0, 64, 57
1, 117688, Control_c, 0, 64, 63
1, 117703, Control_c, 0, 64, 65
1, 117718, Control_c, 0, 64, 68
1, 117733, Control_c, 0, 64, 70
1, 117747, Control_c, 0, 64, 73
1, 117762, Control_c, 0, 64, 76
1, 117777, Control_c, 0, 64, 79
1, 117791, Control_c, 0, 64, 81
1, 117800, Note_off_c, 0, 65, 33
1, 117806, Control_c, 0, 64, 83
1, 117822, Control_c, 0, 64, 84
1, 117837, Control_c, 0, 64, 86
1, 117852, Control_c, 0, 64, 88
1, 117867, Control_c, 0, 64, 90
1, 117882, Control_c, 0, 64, 90
1, 117987, Note_off_c, 0, 68, 33
1, 118109, Note_off_c, 0, 73, 24
1, 118119, Control_c, 0, 64, 90
1, 118149, Control_c, 0, 64, 89
1, 118178, Control_c, 0, 64, 89
1, 118187, Note_off_c, 0, 61, 36
1, 118207, Control_c, 0, 64, 88
1, 118222, Control_c, 0, 64, 88
1, 118254, Note_off_c, 0, 77, 18
1, 118260, Control_c, 0, 64, 87
1, 118275, Control_c, 0, 64, 87
1, 118282, Note_on_c, 0, 80, 54
1, 118289, Note_on_c, 0, 66, 37
1, 118294, Note_on_c, 0, 75, 45
1, 118297, Note_on_c, 0, 70, 40
1, 118304, Control_c, 0, 64, 86
1, 118319, Control_c, 0, 64, 86
1, 118327, Note_on_c, 0, 60, 23
1, 118346, Note_off_c, 0, 70, 56
1, 118349, Note_off_c, 0, 66, 52
1, 118349, Control_c, 0, 64, 85
1, 118364, Control_c, 0, 64, 85
1, 118378, Control_c, 0, 64, 84
1, 118393, Control_c, 0, 64, 84
1, 118422, Control_c, 0, 64, 83
1, 118437, Control_c, 0, 64, 83
1, 118452, Control_c, 0, 64, 81
1, 118467, Control_c, 0, 64, 80
1, 118482, Control_c, 0, 64, 79
1, 118493, Note_off_c, 0, 60, 25
1, 118497, Control_c, 0, 64, 78
1, 118511, Control_c, 0, 64, 75
1, 118517, Note_on_c, 0, 77, 54
1, 118526, Control_c, 0, 64, 70
1, 118529, Note_on_c, 0, 73, 38
1, 118536, Note_off_c, 0, 75, 39
1, 118538, Note_on_c, 0, 65, 26
1, 118541, Control_c, 0, 64, 64
1, 118547, Note_on_c, 0, 68, 32
1, 118548, Note_on_c, 0, 61, 32
1, 118556, Control_c, 0, 64, 55
1, 118571, Control_c, 0, 64, 28
1, 118575, Note_off_c, 0, 80, 38
1, 118586, Control_c, 0, 64, 0
1, 118646, Control_c, 0, 64, 30
1, 118661, Control_c, 0, 64, 46
1, 118675, Control_c, 0, 64, 57
1, 118690, Control_c, 0, 64, 63
1, 118705, Control_c, 0, 64, 66
1, 118720, Control_c, 0, 64, 70
1, 118735, Control_c, 0, 64, 74
1, 118750, Control_c, 0, 64, 77
1, 118758, Note_off_c, 0, 77, 45
1, 118765, Control_c, 0, 64, 79
1, 118780, Control_c, 0, 64, 81
1, 118783, Note_off_c, 0, 65, 39
1, 118803, Note_off_c, 0, 61, 38
1, 118809, Control_c, 0, 64, 81
1, 118811, Note_off_c, 0, 73, 43
1, 118820, Note_off_c, 0, 68, 31
1, 118824, Control_c, 0, 64, 82
1, 118927, Control_c, 0, 64, 81
1, 118957, Control_c, 0, 64, 81
1, 118972, Control_c, 0, 64, 80
1, 118994, Control_c, 0, 64, 80
1, 119009, Control_c, 0, 64, 79
1, 119024, Control_c, 0, 64, 78
1, 119038, Control_c, 0, 64, 77
1, 119053, Control_c, 0, 64, 76
1, 119068, Control_c, 0, 64, 75
1, 119083, Control_c, 0, 64, 74
1, 119098, Control_c, 0, 64, 72
1, 119112, Control_c, 0, 64, 71
1, 119127, Control_c, 0, 64, 70
1, 119129, Note_on_c, 0, 77, 36
1, 119142, Control_c, 0, 64, 68
1, 119149, Note_on_c, 0, 73, 16
1, 119150, Note_on_c, 0, 68, 11
1, 119157, Control_c, 0, 64, 66
1, 119167, Note_on_c, 0, 65, 6
1, 119171, Control_c, 0, 64, 65
1, 119186, Poly_aftertouch_c, 0, 61, 127
1, 119186, Control_c, 0, 64, 64
1, 119201, Control_c, 0, 64, 64
1, 119216, Control_c, 0, 64, 63
1, 119231, Control_c, 0, 64, 62
1, 119245, Control_c, 0, 64, 60
1, 119260, Control_c, 0, 64, 57
1, 119275, Control_c, 0, 64, 53
1, 119290, Control_c, 0, 64, 49
1, 119305, Control_c, 0, 64, 46
1, 119319, Control_c, 0, 64, 44
1, 119334, Control_c, 0, 64, 41
1, 119349, Control_c, 0, 64, 38
1, 119364, Control_c, 0, 64, 35
1, 119379, Control_c, 0, 64, 31
1, 119394, Control_c, 0, 64, 28
1, 119409, Control_c, 0, 64, 24
1, 119424, Control_c, 0, 64, 14
1, 119439, Control_c, 0, 64, 0
1, 120068, Control_c, 0, 64, 33
1, 120083, Control_c, 0, 64, 55
1, 120098, Control_c, 0, 64, 62
1, 120113, Control_c, 0, 64, 64
1, 120128, Control_c, 0, 64, 66
1, 120142, Control_c, 0, 64, 68
1, 120157, Control_c, 0, 64, 71
1, 120172, Control_c, 0, 64, 73
1, 120187, Control_c, 0, 64, 76
1, 120202, Control_c, 0, 64, 77
1, 120217, Control_c, 0, 64, 78
1, 120232, Control_c, 0, 64, 79
1, 120247, Control_c, 0, 64, 80
1, 120262, Control_c, 0, 64, 81
1, 120277, Control_c, 0, 64, 81
1, 120306, Control_c, 0, 64, 82
1, 120321, Control_c, 0, 64, 84
1, 120336, Control_c, 0, 64, 85
1, 120348, Note_off_c, 0, 73, 42
1, 120351, Control_c, 0, 64, 87
1, 120364, Control_c, 0, 64, 87
1, 120379, Note_off_c, 0, 77, 41
1, 120379, Control_c, 0, 64, 88
1, 120394, Control_c, 0, 64, 89
1, 120408, Control_c, 0, 64, 90
1, 120423, Control_c, 0, 64, 92
1, 120438, Control_c, 0, 64, 93
1, 120453, Control_c, 0, 64, 94
1, 120468, Control_c, 0, 64, 94
1, 120505, Control_c, 0, 64, 95
1, 120520, Control_c, 0, 64, 95
1, 120638, Control_c, 0, 64, 95
1, 120653, Control_c, 0, 64, 94
1, 120668, Control_c, 0, 64, 93
1, 120683, Control_c, 0, 64, 92
1, 120697, Control_c, 0, 64, 91
1, 120712, Control_c, 0, 64, 90
1, 120727, Control_c, 0, 64, 89
1, 120742, Control_c, 0, 64, 88
1, 120786, Control_c, 0, 64, 88
1, 120801, Control_c, 0, 64, 87
1, 120816, Control_c, 0, 64, 87
1, 120831, Control_c, 0, 64, 86
1, 120875, Control_c, 0, 64, 86
1, 120875, Control_c, 0, 67, 9
1, 120890, Control_c, 0, 67, 11
1, 120905, Control_c, 0, 64, 85
1, 120905, Control_c, 0, 67, 13
1, 120920, Control_c, 0, 64, 85
1, 120920, Control_c, 0, 67, 15
1, 120934, Control_c, 0, 64, 84
1, 120934, Control_c, 0, 67, 17
1, 120949, Control_c, 0, 64, 83
1, 120949, Control_c, 0, 67, 19
1, 120964, Note_off_c, 0, 68, 40
1, 120964, Control_c, 0, 64, 83
1, 120964, Control_c, 0, 67, 22
1, 120979, Control_c, 0, 64, 82
1, 120979, Control_c, 0, 67, 24
1, 120994, Control_c, 0, 64, 81
1, 120994, Control_c, 0, 67, 26
1, 121009, Control_c, 0, 64, 81
1, 121009, Control_c, 0, 67, 27
1, 121024, Control_c, 0, 67, 27
1, 121039, Control_c, 0, 64, 80
1, 121054, Control_c, 0, 64, 80
1, 121069, Control_c, 0, 64, 79
1, 121069, Control_c, 0, 67, 28
1, 121084, Control_c, 0, 64, 79
1, 121084, Control_c, 0, 67, 28
1, 121099, Note_on_c, 0, 75, 55
1, 121113, Control_c, 0, 67, 29
1, 121128, Control_c, 0, 67, 30
1, 121143, Control_c, 0, 67, 30
1, 121158, Control_c, 0, 64, 78
1, 121158, Control_c, 0, 67, 31
1, 121173, Control_c, 0, 64, 78
1, 121173, Control_c, 0, 67, 31
1, 121187, Control_c, 0, 64, 75
1, 121202, Control_c, 0, 64, 72
1, 121202, Control_c, 0, 67, 32
1, 121217, Control_c, 0, 64, 67
1, 121224, Poly_aftertouch_c, 0, 61, 0
1, 121239, Control_c, 0, 64, 64
1, 121254, Control_c, 0, 64, 63
1, 121254, Control_c, 0, 67, 32
1, 121269, Control_c, 0, 64, 64
1, 121284, Control_c, 0, 64, 64
1, 121313, Control_c, 0, 64, 65
1, 121328, Control_c, 0, 64, 66
1, 121343, Control_c, 0, 64, 68
1, 121358, Control_c, 0, 64, 70
1, 121372, Control_c, 0, 64, 72
1, 121372, Control_c, 0, 67, 33
1, 121387, Control_c, 0, 64, 72
1, 121394, Note_off_c, 0, 65, 39
1, 121402, Control_c, 0, 64, 73
1, 121417, Control_c, 0, 67, 33
1, 121432, Control_c, 0, 64, 73
1, 121446, Control_c, 0, 64, 74
1, 121491, Control_c, 0, 64, 73
1, 121491, Control_c, 0, 67, 33
1, 121506, Control_c, 0, 67, 32
1, 121522, Poly_aftertouch_c, 0, 80, 127
1, 121535, Control_c, 0, 64, 73
1, 121550, Control_c, 0, 64, 71
1, 121562, Note_on_c, 0, 77, 75
1, 121564, Control_c, 0, 64, 69
1, 121564, Control_c, 0, 67, 32
1, 121579, Control_c, 0, 64, 67
1, 121594, Control_c, 0, 64, 66
1, 121609, Control_c, 0, 64, 65
1, 121609, Control_c, 0, 67, 31
1, 121610, Poly_aftertouch_c, 0, 80, 0
1, 121624, Control_c, 0, 64, 65
1, 121653, Control_c, 0, 64, 66
1, 121653, Control_c, 0, 67, 31
1, 121668, Control_c, 0, 64, 67
1, 121668, Control_c, 0, 67, 30
1, 121683, Control_c, 0, 64, 69
1, 121698, Control_c, 0, 64, 70
1, 121698, Control_c, 0, 67, 30
1, 121713, Control_c, 0, 64, 72
1, 121713, Control_c, 0, 67, 29
1, 121728, Control_c, 0, 64, 74
1, 121743, Control_c, 0, 64, 76
1, 121743, Control_c, 0, 67, 28
1, 121757, Control_c, 0, 64, 78
1, 121757, Control_c, 0, 67, 28
1, 121769, Note_off_c, 0, 75, 38
1, 121772, Control_c, 0, 64, 80
1, 121772, Control_c, 0, 67, 25
1, 121787, Control_c, 0, 64, 80
1, 121787, Control_c, 0, 67, 22
1, 121802, Control_c, 0, 64, 81
1, 121802, Control_c, 0, 67, 16
1, 121817, Control_c, 0, 64, 83
1, 121817, Control_c, 0, 67, 9
1, 121832, Control_c, 0, 64, 84
1, 121832, Control_c, 0, 67, 0
1, 121847, Control_c, 0, 64, 85
1, 121866, Note_on_c, 0, 80, 73
1, 121877, Control_c, 0, 64, 88
1, 121892, Control_c, 0, 64, 92
1, 121907, Control_c, 0, 64, 95
1, 121918, Note_on_c, 0, 78, 79
1, 121922, Control_c, 0, 64, 96
1, 121937, Control_c, 0, 64, 97
1, 121943, Note_off_c, 0, 77, 56
1, 121951, Control_c, 0, 64, 97
1, 121966, Control_c, 0, 64, 98
1, 121988, Control_c, 0, 64, 100
1, 121999, Note_off_c, 0, 80, 59
1, 122077, Control_c, 0, 64, 99
1, 122092, Control_c, 0, 64, 98
1, 122107, Control_c, 0, 64, 96
1, 122122, Control_c, 0, 64, 94
1, 122136, Control_c, 0, 64, 91
1, 122151, Note_on_c, 0, 77, 89
1, 122151, Control_c, 0, 64, 87
1, 122166, Control_c, 0, 64, 82
1, 122181, Control_c, 0, 64, 76
1, 122196, Control_c, 0, 64, 71
1, 122211, Control_c, 0, 64, 67
1, 122235, Note_off_c, 0, 78, 49
1, 122241, Control_c, 0, 64, 70
1, 122255, Control_c, 0, 64, 72
1, 122270, Control_c, 0, 64, 73
1, 122285, Control_c, 0, 64, 74
1, 122300, Control_c, 0, 64, 76
1, 122315, Control_c, 0, 64, 79
1, 122330, Control_c, 0, 64, 82
1, 122359, Control_c, 0, 64, 81
1, 122374, Control_c, 0, 64, 80
1, 122388, Control_c, 0, 64, 79
1, 122403, Control_c, 0, 64, 76
1, 122408, Note_on_c, 0, 80, 89
1, 122418, Control_c, 0, 64, 73
1, 122433, Control_c, 0, 64, 69
1, 122448, Control_c, 0, 64, 66
1, 122449, Note_off_c, 0, 77, 55
1, 122462, Control_c, 0, 64, 63
1, 122477, Control_c, 0, 64, 62
1, 122492, Control_c, 0, 64, 63
1, 122507, Control_c, 0, 64, 64
1, 122522, Control_c, 0, 64, 67
1, 122536, Control_c, 0, 64, 72
1, 122551, Control_c, 0, 64, 80
1, 122558, Note_on_c, 0, 37, 63
1, 122566, Control_c, 0, 64, 90
1, 122580, Control_c, 0, 64, 99
1, 122595, Control_c, 0, 64, 106
1, 122611, Control_c, 0, 64, 119
1, 122626, Control_c, 0, 64, 127
1, 122698, Note_on_c, 0, 44, 58
1, 122723, Note_off_c, 0, 37, 59
1, 122751, Note_off_c, 0, 44, 64
1, 122826, Note_on_c, 0, 85, 89
1, 122840, Note_on_c, 0, 75, 69
1, 122855, Note_on_c, 0, 73, 51
1, 122878, Note_off_c, 0, 73, 59
1, 122890, Note_off_c, 0, 75, 54
1, 122950, Note_on_c, 0, 56, 60
1, 122971, Note_on_c, 0, 73, 71
1, 122974, Note_on_c, 0, 77, 78
1, 123019, Note_on_c, 0, 63, 66
1, 123080, Note_off_c, 0, 73, 55
1, 123096, Note_on_c, 0, 64, 66
1, 123121, Note_off_c, 0, 77, 56
1, 123142, Note_off_c, 0, 56, 58
1, 123153, Note_off_c, 0, 64, 64
1, 123176, Note_off_c, 0, 63, 56
1, 123220, Note_on_c, 0, 65, 79
1, 123234, Note_on_c, 0, 61, 63
1, 123247, Note_off_c, 0, 65, 65
1, 123252, Note_on_c, 0, 77, 73
1, 123257, Note_on_c, 0, 73, 78
1, 123271, Note_off_c, 0, 61, 64
1, 123288, Note_off_c, 0, 85, 62
1, 123294, Note_off_c, 0, 80, 57
1, 123331, Note_off_c, 0, 73, 61
1, 123499, Poly_aftertouch_c, 0, 76, 127
1, 123534, Poly_aftertouch_c, 0, 76, 0
1, 123573, Note_on_c, 0, 37, 73
1, 123633, Control_c, 0, 64, 94
1, 123648, Control_c, 0, 64, 69
1, 123663, Control_c, 0, 64, 0
1, 123698, Note_on_c, 0, 44, 62
1, 123707, Control_c, 0, 64, 54
1, 123710, Note_on_c, 0, 84, 88
1, 123722, Control_c, 0, 64, 72
1, 123731, Note_on_c, 0, 75, 72
1, 123732, Note_on_c, 0, 72, 54
1, 123737, Control_c, 0, 64, 94
1, 123740, Note_off_c, 0, 37, 63
1, 123742, Note_on_c, 0, 79, 39
1, 123752, Control_c, 0, 64, 127
1, 123755, Note_off_c, 0, 72, 58
1, 123762, Note_on_c, 0, 80, 28
1, 123764, Note_off_c, 0, 44, 63
1, 123792, Note_off_c, 0, 77, 57
1, 123797, Note_off_c, 0, 80, 52
1, 123802, Note_off_c, 0, 79, 42
1, 123878, Note_on_c, 0, 55, 59
1, 123880, Note_on_c, 0, 77, 80
1, 123884, Note_on_c, 0, 73, 68
1, 123914, Note_off_c, 0, 55, 62
1, 123932, Note_on_c, 0, 79, 33
1, 123956, Note_on_c, 0, 61, 68
1, 123999, Note_off_c, 0, 61, 61
1, 124005, Note_off_c, 0, 73, 57
1, 124032, Note_off_c, 0, 77, 55
1, 124038, Note_on_c, 0, 63, 73
1, 124062, Note_off_c, 0, 75, 57
1, 124072, Note_off_c, 0, 63, 61
1, 124145, Note_on_c, 0, 65, 65
1, 124148, Note_on_c, 0, 77, 76
1, 124148, Note_on_c, 0, 60, 55
1, 124160, Note_on_c, 0, 73, 73
1, 124169, Note_off_c, 0, 84, 56
1, 124174, Note_off_c, 0, 65, 66
1, 124193, Note_off_c, 0, 60, 63
1, 124334, Note_off_c, 0, 79, 40
1, 124419, Note_off_c, 0, 77, 59
1, 124477, Note_on_c, 0, 37, 66
1, 124533, Note_off_c, 0, 73, 60
1, 124575, Control_c, 0, 64, 114
1, 124590, Control_c, 0, 64, 90
1, 124604, Control_c, 0, 64, 71
1, 124616, Note_on_c, 0, 44, 52
1, 124619, Control_c, 0, 64, 52
1, 124634, Control_c, 0, 64, 0
1, 124645, Note_on_c, 0, 82, 86
1, 124655, Note_on_c, 0, 75, 68
1, 124664, Control_c, 0, 64, 59
1, 124670, Note_on_c, 0, 70, 52
1, 124679, Control_c, 0, 64, 66
1, 124694, Control_c, 0, 64, 72
1, 124697, Note_off_c, 0, 37, 63
1, 124709, Control_c, 0, 64, 81
1, 124716, Note_off_c, 0, 44, 61
1, 124723, Control_c, 0, 64, 88
1, 124738, Control_c, 0, 64, 94
1, 124753, Control_c, 0, 64, 97
1, 124768, Control_c, 0, 64, 98
1, 124835, Note_on_c, 0, 54, 64
1, 124838, Note_on_c, 0, 73, 64
1, 124852, Note_on_c, 0, 77, 68
1, 124912, Note_off_c, 0, 54, 55
1, 124953, Note_on_c, 0, 60, 58
1, 124987, Note_off_c, 0, 75, 53
1, 125005, Note_off_c, 0, 73, 59
1, 125052, Note_off_c, 0, 77, 60
1, 125054, Note_on_c, 0, 63, 66
1, 125058, Control_c, 0, 64, 98
1, 125080, Note_off_c, 0, 60, 59
1, 125084, Note_off_c, 0, 63, 64
1, 125087, Control_c, 0, 64, 97
1, 125102, Control_c, 0, 64, 97
1, 125132, Control_c, 0, 64, 96
1, 125147, Control_c, 0, 64, 96
1, 125177, Control_c, 0, 64, 95
1, 125192, Note_on_c, 0, 65, 62
1, 125192, Control_c, 0, 64, 95
1, 125198, Note_on_c, 0, 61, 56
1, 125198, Note_on_c, 0, 77, 64
1, 125207, Note_on_c, 0, 58, 53
1, 125215, Note_on_c, 0, 73, 53
1, 125221, Control_c, 0, 64, 94
1, 125230, Note_off_c, 0, 65, 57
1, 125247, Note_off_c, 0, 61, 54
1, 125251, Control_c, 0, 64, 94
1, 125257, Note_off_c, 0, 58, 52
1, 125280, Control_c, 0, 64, 93
1, 125295, Control_c, 0, 64, 93
1, 125325, Control_c, 0, 64, 92
1, 125340, Control_c, 0, 64, 92
1, 125369, Control_c, 0, 64, 91
1, 125384, Control_c, 0, 64, 91
1, 125413, Control_c, 0, 64, 90
1, 125413, Control_c, 0, 67, 8
1, 125428, Control_c, 0, 64, 90
1, 125428, Control_c, 0, 67, 9
1, 125443, Control_c, 0, 64, 89
1, 125443, Control_c, 0, 67, 11
1, 125458, Control_c, 0, 64, 88
1, 125458, Control_c, 0, 67, 15
1, 125473, Control_c, 0, 64, 88
1, 125473, Control_c, 0, 67, 17
1, 125487, Control_c, 0, 64, 87
1, 125487, Control_c, 0, 67, 20
1, 125502, Control_c, 0, 67, 22
1, 125508, Note_off_c, 0, 82, 51
1, 125517, Control_c, 0, 64, 87
1, 125517, Control_c, 0, 67, 24
1, 125531, Control_c, 0, 64, 86
1, 125531, Control_c, 0, 67, 26
1, 125544, Note_off_c, 0, 73, 53
1, 125546, Control_c, 0, 64, 86
1, 125546, Control_c, 0, 67, 27
1, 125561, Control_c, 0, 64, 85
1, 125561, Control_c, 0, 67, 28
1, 125576, Control_c, 0, 64, 85
1, 125576, Control_c, 0, 67, 29
1, 125591, Control_c, 0, 64, 84
1, 125591, Control_c, 0, 67, 30
1, 125606, Control_c, 0, 64, 83
1, 125606, Control_c, 0, 67, 31
1, 125621, Control_c, 0, 67, 32
1, 125633, Note_on_c, 0, 37, 57
1, 125636, Control_c, 0, 64, 83
1, 125636, Control_c, 0, 67, 33
1, 125651, Control_c, 0, 67, 36
1, 125654, Note_off_c, 0, 70, 55
1, 125666, Control_c, 0, 64, 82
1, 125666, Control_c, 0, 67, 37
1, 125680, Control_c, 0, 64, 82
1, 125680, Control_c, 0, 67, 39
1, 125695, Control_c, 0, 67, 41
1, 125710, Control_c, 0, 64, 81
1, 125710, Control_c, 0, 67, 43
1, 125731, Control_c, 0, 64, 80
1, 125731, Control_c, 0, 67, 44
1, 125746, Control_c, 0, 64, 78
1, 125746, Control_c, 0, 67, 46
1, 125761, Control_c, 0, 64, 77
1, 125761, Control_c, 0, 67, 48
1, 125776, Control_c, 0, 64, 74
1, 125776, Control_c, 0, 67, 50
1, 125785, Note_on_c, 0, 44, 50
1, 125791, Control_c, 0, 64, 69
1, 125791, Control_c, 0, 67, 52
1, 125807, Control_c, 0, 64, 63
1, 125807, Control_c, 0, 67, 53
1, 125822, Control_c, 0, 64, 42
1, 125822, Control_c, 0, 67, 56
1, 125833, Note_on_c, 0, 80, 69
1, 125836, Control_c, 0, 64, 0
1, 125836, Control_c, 0, 67, 58
1, 125849, Note_on_c, 0, 75, 54
1, 125851, Control_c, 0, 67, 60
1, 125866, Control_c, 0, 67, 61
1, 125869, Note_on_c, 0, 72, 30
1, 125880, Note_on_c, 0, 68, 37
1, 125881, Control_c, 0, 67, 62
1, 125896, Control_c, 0, 64, 36
1, 125910, Control_c, 0, 64, 56
1, 125923, Note_off_c, 0, 37, 56
1, 125924, Note_off_c, 0, 72, 44
1, 125925, Control_c, 0, 64, 64
1, 125940, Control_c, 0, 64, 70
1, 125955, Control_c, 0, 64, 75
1, 125956, Note_off_c, 0, 77, 38
1, 125963, Note_off_c, 0, 44, 63
1, 125970, Control_c, 0, 64, 79
1, 125985, Control_c, 0, 64, 80
1, 126000, Control_c, 0, 64, 81
1, 126059, Control_c, 0, 64, 80
1, 126074, Control_c, 0, 64, 78
1, 126089, Control_c, 0, 64, 75
1, 126099, Note_on_c, 0, 53, 53
1, 126103, Control_c, 0, 64, 71
1, 126118, Control_c, 0, 64, 66
1, 126133, Control_c, 0, 64, 63
1, 126133, Control_c, 0, 67, 61
1, 126135, Note_on_c, 0, 77, 57
1, 126142, Note_on_c, 0, 73, 45
1, 126162, Control_c, 0, 64, 65
1, 126177, Control_c, 0, 64, 67
1, 126177, Control_c, 0, 67, 61
1, 126192, Control_c, 0, 64, 70
1, 126207, Control_c, 0, 64, 72
1, 126222, Control_c, 0, 64, 75
1, 126236, Control_c, 0, 64, 78
1, 126251, Control_c, 0, 64, 79
1, 126266, Control_c, 0, 64, 81
1, 126281, Control_c, 0, 64, 82
1, 126282, Note_off_c, 0, 53, 51
1, 126283, Note_on_c, 0, 58, 56
1, 126295, Control_c, 0, 64, 82
1, 126340, Control_c, 0, 67, 60
1, 126369, Note_off_c, 0, 73, 52
1, 126373, Note_off_c, 0, 75, 36
1, 126408, Note_off_c, 0, 77, 55
1, 126428, Note_on_c, 0, 63, 59
1, 126510, Control_c, 0, 64, 82
1, 126540, Control_c, 0, 64, 81
1, 126542, Note_off_c, 0, 63, 30
1, 126554, Control_c, 0, 64, 81
1, 126554, Control_c, 0, 67, 60
1, 126584, Control_c, 0, 64, 80
1, 126593, Note_off_c, 0, 58, 20
1, 126600, Control_c, 0, 64, 79
1, 126615, Control_c, 0, 64, 79
1, 126630, Control_c, 0, 64, 78
1, 126645, Control_c, 0, 64, 77
1, 126659, Control_c, 0, 64, 76
1, 126674, Control_c, 0, 64, 76
1, 126689, Control_c, 0, 64, 75
1, 126704, Control_c, 0, 64, 74
1, 126719, Control_c, 0, 64, 73
1, 126730, Note_on_c, 0, 65, 37
1, 126732, Note_on_c, 0, 61, 39
1, 126733, Control_c, 0, 64, 72
1, 126744, Note_on_c, 0, 77, 52
1, 126745, Note_on_c, 0, 73, 35
1, 126748, Control_c, 0, 64, 71
1, 126757, Note_on_c, 0, 56, 38
1, 126763, Control_c, 0, 64, 70
1, 126778, Control_c, 0, 64, 68
1, 126792, Control_c, 0, 64, 67
1, 126807, Control_c, 0, 64, 66
1, 126822, Control_c, 0, 64, 65
1, 126837, Control_c, 0, 64, 64
1, 126852, Control_c, 0, 64, 63
1, 126867, Control_c, 0, 64, 63
1, 126882, Control_c, 0, 64, 62
1, 126897, Control_c, 0, 64, 62
1, 126912, Control_c, 0, 64, 61
1, 126926, Control_c, 0, 64, 59
1, 126926, Control_c, 0, 67, 60
1, 126941, Control_c, 0, 64, 57
1, 126956, Control_c, 0, 64, 56
1, 126971, Control_c, 0, 64, 54
1, 126985, Control_c, 0, 64, 51
1, 127000, Control_c, 0, 64, 47
1, 127015, Control_c, 0, 64, 41
1, 127030, Control_c, 0, 64, 35
1, 127045, Control_c, 0, 64, 29
1, 127059, Control_c, 0, 64, 23
1, 127074, Control_c, 0, 64, 0
1, 127074, Control_c, 0, 67, 61
1, 127133, Control_c, 0, 67, 61
1, 127192, Control_c, 0, 67, 62
1, 127423, Control_c, 0, 67, 61
1, 127438, Control_c, 0, 64, 24
1, 127453, Control_c, 0, 64, 58
1, 127453, Control_c, 0, 67, 61
1, 127468, Control_c, 0, 64, 64
1, 127468, Control_c, 0, 67, 60
1, 127482, Control_c, 0, 64, 66
1, 127497, Control_c, 0, 64, 68
1, 127497, Control_c, 0, 67, 60
1, 127512, Control_c, 0, 64, 70
1, 127512, Control_c, 0, 67, 59
1, 127527, Control_c, 0, 64, 72
1, 127542, Control_c, 0, 64, 74
1, 127542, Control_c, 0, 67, 59
1, 127556, Control_c, 0, 64, 76
1, 127556, Control_c, 0, 67, 58
1, 127571, Control_c, 0, 64, 77
1, 127586, Control_c, 0, 64, 78
1, 127600, Control_c, 0, 64, 79
1, 127615, Control_c, 0, 64, 81
1, 127615, Control_c, 0, 67, 58
1, 127630, Control_c, 0, 64, 82
1, 127645, Control_c, 0, 64, 83
1, 127660, Control_c, 0, 64, 84
1, 127675, Control_c, 0, 64, 86
1, 127675, Control_c, 0, 67, 57
1, 127675, Note_off_c, 0, 68, 37
1, 127690, Control_c, 0, 64, 88
1, 127705, Control_c, 0, 64, 88
1, 127749, Control_c, 0, 67, 57
1, 127779, Control_c, 0, 64, 89
1, 127779, Control_c, 0, 67, 56
1, 127779, Note_off_c, 0, 80, 36
1, 127790, Note_off_c, 0, 73, 41
1, 127821, Note_off_c, 0, 77, 38
1, 127853, Control_c, 0, 67, 56
1, 127897, Control_c, 0, 67, 55
1, 127926, Control_c, 0, 67, 55
1, 127941, Control_c, 0, 67, 54
1, 127994, Control_c, 0, 67, 54
1, 128004, Note_off_c, 0, 65, 35
1, 128008, Control_c, 0, 64, 88
1, 128038, Control_c, 0, 64, 88
1, 128038, Control_c, 0, 67, 53
1, 128068, Control_c, 0, 67, 53
1, 128082, Control_c, 0, 64, 87
1, 128082, Control_c, 0, 67, 52
1, 128097, Control_c, 0, 67, 52
1, 128112, Control_c, 0, 64, 87
1, 128126, Control_c, 0, 64, 86
1, 128141, Control_c, 0, 64, 85
1, 128156, Control_c, 0, 67, 51
1, 128171, Control_c, 0, 64, 85
1, 128171, Control_c, 0, 67, 50
1, 128175, Note_off_c, 0, 56, 34
1, 128202, Control_c, 0, 67, 50
1, 128217, Control_c, 0, 64, 84
1, 128231, Control_c, 0, 64, 83
1, 128246, Control_c, 0, 64, 79
1, 128257, Note_on_c, 0, 78, 68
1, 128261, Control_c, 0, 64, 73
1, 128261, Control_c, 0, 67, 49
1, 128276, Control_c, 0, 64, 67
1, 128291, Control_c, 0, 64, 59
1, 128291, Control_c, 0, 67, 49
1, 128305, Control_c, 0, 64, 43
1, 128305, Control_c, 0, 67, 48
1, 128310, Note_off_c, 0, 61, 41
1, 128320, Control_c, 0, 64, 39
1, 128320, Control_c, 0, 67, 44
1, 128335, Control_c, 0, 64, 50
1, 128335, Control_c, 0, 67, 39
1, 128349, Control_c, 0, 64, 59
1, 128349, Control_c, 0, 67, 34
1, 128364, Control_c, 0, 64, 64
1, 128364, Control_c, 0, 67, 29
1, 128379, Control_c, 0, 64, 67
1, 128379, Control_c, 0, 67, 22
1, 128394, Control_c, 0, 64, 72
1, 128394, Control_c, 0, 67, 14
1, 128409, Control_c, 0, 64, 78
1, 128409, Control_c, 0, 67, 0
1, 128423, Control_c, 0, 64, 83
1, 128438, Control_c, 0, 64, 88
1, 128453, Control_c, 0, 64, 91
1, 128468, Control_c, 0, 64, 94
1, 128483, Control_c, 0, 64, 96
1, 128497, Control_c, 0, 64, 97
1, 128512, Control_c, 0, 64, 97
1, 128524, Note_off_c, 0, 78, 52
1, 128566, Note_on_c, 0, 77, 53
1, 128587, Control_c, 0, 64, 96
1, 128598, Note_off_c, 0, 77, 66
1, 128602, Control_c, 0, 64, 89
1, 128617, Control_c, 0, 64, 81
1, 128621, Note_on_c, 0, 78, 71
1, 128631, Control_c, 0, 64, 73
1, 128646, Control_c, 0, 64, 69
1, 128661, Control_c, 0, 64, 69
1, 128665, Note_on_c, 0, 77, 76
1, 128676, Control_c, 0, 64, 72
1, 128691, Control_c, 0, 64, 76
1, 128705, Control_c, 0, 64, 81
1, 128727, Control_c, 0, 64, 87
1, 128742, Control_c, 0, 64, 93
1, 128751, Note_off_c, 0, 78, 36
1, 128757, Control_c, 0, 64, 100
1, 128772, Control_c, 0, 64, 107
1, 128787, Control_c, 0, 64, 114
1, 128802, Control_c, 0, 64, 127
1, 128936, Note_on_c, 0, 75, 85
1, 129141, Note_on_c, 0, 73, 88
1, 129145, Note_off_c, 0, 77, 28
1, 129173, Note_off_c, 0, 75, 62
1, 129194, Note_off_c, 0, 73, 64
1, 129336, Note_on_c, 0, 54, 54
1, 129365, Control_c, 0, 64, 104
1, 129366, Note_on_c, 0, 58, 46
1, 129370, Note_on_c, 0, 70, 78
1, 129380, Control_c, 0, 64, 85
1, 129395, Control_c, 0, 64, 72
1, 129408, Note_on_c, 0, 65, 44
1, 129410, Control_c, 0, 64, 61
1, 129425, Control_c, 0, 64, 49
1, 129439, Control_c, 0, 64, 61
1, 129454, Control_c, 0, 64, 69
1, 129476, Control_c, 0, 64, 77
1, 129491, Control_c, 0, 64, 89
1, 129505, Control_c, 0, 64, 112
1, 129520, Control_c, 0, 64, 127
1, 129758, Note_off_c, 0, 65, 40
1, 129875, Note_on_c, 0, 72, 77
1, 129881, Note_on_c, 0, 57, 56
1, 129950, Note_off_c, 0, 70, 63
1, 129999, Note_off_c, 0, 58, 52
1, 130059, Note_off_c, 0, 57, 59
1, 130185, Note_on_c, 0, 56, 42
1, 130188, Note_on_c, 0, 49, 46
1, 130188, Control_c, 0, 64, 118
1, 130200, Note_off_c, 0, 54, 32
1, 130203, Control_c, 0, 64, 107
1, 130211, Note_on_c, 0, 68, 64
1, 130225, Control_c, 0, 64, 100
1, 130229, Note_on_c, 0, 65, 42
1, 130240, Control_c, 0, 64, 95
1, 130255, Control_c, 0, 64, 90
1, 130269, Control_c, 0, 64, 84
1, 130284, Control_c, 0, 64, 77
1, 130299, Control_c, 0, 64, 70
1, 130314, Control_c, 0, 64, 60
1, 130328, Control_c, 0, 64, 0
1, 130403, Note_off_c, 0, 72, 53
1, 130551, Control_c, 0, 64, 36
1, 130566, Control_c, 0, 64, 48
1, 130581, Control_c, 0, 64, 58
1, 130596, Control_c, 0, 64, 64
1, 130611, Control_c, 0, 64, 67
1, 130626, Control_c, 0, 64, 70
1, 130641, Control_c, 0, 64, 71
1, 130656, Control_c, 0, 64, 72
1, 130671, Control_c, 0, 64, 72
1, 130744, Control_c, 0, 64, 72
1, 130774, Control_c, 0, 64, 71
1, 130789, Control_c, 0, 64, 71
1, 130804, Control_c, 0, 64, 70
1, 130818, Control_c, 0, 64, 69
1, 130821, Note_on_c, 0, 73, 72
1, 130833, Control_c, 0, 64, 67
1, 130848, Control_c, 0, 64, 65
1, 130863, Control_c, 0, 64, 64
1, 130878, Control_c, 0, 64, 63
1, 130892, Control_c, 0, 64, 63
1, 130907, Control_c, 0, 64, 61
1, 130922, Control_c, 0, 64, 57
1, 130937, Control_c, 0, 64, 48
1, 130951, Control_c, 0, 64, 46
1, 130974, Control_c, 0, 64, 52
1, 130989, Control_c, 0, 64, 57
1, 131004, Control_c, 0, 64, 60
1, 131019, Control_c, 0, 64, 62
1, 131033, Control_c, 0, 64, 64
1, 131048, Control_c, 0, 64, 66
1, 131063, Control_c, 0, 64, 67
1, 131078, Control_c, 0, 64, 69
1, 131093, Control_c, 0, 64, 70
1, 131107, Control_c, 0, 64, 71
1, 131122, Control_c, 0, 64, 73
1, 131137, Control_c, 0, 64, 75
1, 131151, Control_c, 0, 64, 77
1, 131166, Control_c, 0, 64, 80
1, 131181, Control_c, 0, 64, 83
1, 131196, Control_c, 0, 64, 85
1, 131211, Control_c, 0, 64, 88
1, 131225, Control_c, 0, 64, 90
1, 131240, Control_c, 0, 64, 92
1, 131255, Control_c, 0, 64, 93
1, 131270, Control_c, 0, 64, 95
1, 131285, Control_c, 0, 64, 97
1, 131300, Control_c, 0, 64, 100
1, 131314, Control_c, 0, 64, 104
1, 131329, Control_c, 0, 64, 107
1, 131344, Control_c, 0, 64, 110
1, 131359, Control_c, 0, 64, 114
1, 131374, Control_c, 0, 64, 121
1, 131389, Control_c, 0, 64, 127
1, 131471, Note_off_c, 0, 73, 43
1, 131622, Note_on_c, 0, 72, 60
1, 131686, Control_c, 0, 64, 124
1, 131694, Note_off_c, 0, 65, 56
1, 131701, Control_c, 0, 64, 118
1, 131723, Control_c, 0, 64, 115
1, 131738, Control_c, 0, 64, 111
1, 131753, Control_c, 0, 64, 109
1, 131768, Control_c, 0, 64, 107
1, 131782, Control_c, 0, 64, 105
1, 131797, Control_c, 0, 64, 102
1, 131806, Note_off_c, 0, 68, 55
1, 131812, Control_c, 0, 64, 100
1, 131827, Control_c, 0, 64, 98
1, 131842, Control_c, 0, 64, 97
1, 131856, Control_c, 0, 64, 96
1, 131871, Control_c, 0, 64, 95
1, 131886, Control_c, 0, 64, 93
1, 131900, Control_c, 0, 64, 91
1, 131914, Note_on_c, 0, 54, 42
1, 131915, Control_c, 0, 64, 89
1, 131928, Note_off_c, 0, 72, 60
1, 131930, Control_c, 0, 64, 86
1, 131945, Control_c, 0, 64, 81
1, 131950, Note_on_c, 0, 70, 57
1, 131952, Note_on_c, 0, 63, 45
1, 131960, Control_c, 0, 64, 75
1, 131974, Control_c, 0, 64, 68
1, 131989, Control_c, 0, 64, 61
1, 131991, Note_off_c, 0, 56, 37
1, 132004, Control_c, 0, 64, 40
1, 132005, Note_off_c, 0, 70, 62
1, 132019, Control_c, 0, 64, 19
1, 132027, Note_on_c, 0, 72, 61
1, 132034, Control_c, 0, 64, 24
1, 132048, Control_c, 0, 64, 43
1, 132063, Control_c, 0, 64, 55
1, 132073, Note_on_c, 0, 70, 63
1, 132078, Control_c, 0, 64, 61
1, 132088, Note_off_c, 0, 72, 54
1, 132092, Control_c, 0, 64, 63
1, 132107, Control_c, 0, 64, 64
1, 132122, Control_c, 0, 64, 66
1, 132137, Control_c, 0, 64, 70
1, 132152, Control_c, 0, 64, 73
1, 132167, Control_c, 0, 64, 77
1, 132182, Control_c, 0, 64, 80
1, 132197, Control_c, 0, 64, 83
1, 132212, Control_c, 0, 64, 85
1, 132227, Control_c, 0, 64, 87
1, 132242, Control_c, 0, 64, 88
1, 132257, Control_c, 0, 64, 89
1, 132331, Note_on_c, 0, 68, 71
1, 132387, Note_off_c, 0, 70, 62
1, 132423, Note_off_c, 0, 63, 52
1, 132450, Control_c, 0, 64, 88
1, 132456, Note_off_c, 0, 68, 60
1, 132471, Control_c, 0, 64, 88
1, 132486, Control_c, 0, 64, 87
1, 132501, Control_c, 0, 64, 86
1, 132516, Control_c, 0, 64, 86
1, 132536, Note_off_c, 0, 54, 43
1, 132546, Control_c, 0, 64, 85
1, 132548, Note_on_c, 0, 53, 42
1, 132558, Note_on_c, 0, 66, 69
1, 132560, Control_c, 0, 64, 84
1, 132574, Note_on_c, 0, 61, 53
1, 132575, Control_c, 0, 64, 83
1, 132590, Control_c, 0, 64, 82
1, 132605, Control_c, 0, 64, 82
1, 132620, Control_c, 0, 64, 81
1, 132635, Control_c, 0, 64, 80
1, 132650, Control_c, 0, 64, 79
1, 132665, Control_c, 0, 64, 78
1, 132679, Control_c, 0, 64, 76
1, 132694, Control_c, 0, 64, 75
1, 132709, Control_c, 0, 64, 74
1, 132710, Note_off_c, 0, 61, 55
1, 132723, Control_c, 0, 64, 73
1, 132723, Control_c, 0, 67, 8
1, 132738, Control_c, 0, 64, 71
1, 132753, Control_c, 0, 64, 68
1, 132753, Control_c, 0, 67, 8
1, 132768, Control_c, 0, 64, 66
1, 132772, Note_off_c, 0, 53, 40
1, 132783, Control_c, 0, 64, 63
1, 132797, Control_c, 0, 64, 57
1, 132802, Note_on_c, 0, 51, 46
1, 132812, Control_c, 0, 64, 49
1, 132813, Note_on_c, 0, 60, 51
1, 132827, Control_c, 0, 64, 40
1, 132827, Control_c, 0, 67, 9
1, 132842, Control_c, 0, 64, 33
1, 132842, Control_c, 0, 67, 9
1, 132857, Control_c, 0, 64, 31
1, 132871, Control_c, 0, 67, 10
1, 132886, Control_c, 0, 64, 33
1, 132901, Control_c, 0, 64, 39
1, 132901, Control_c, 0, 67, 10
1, 132915, Control_c, 0, 64, 46
1, 132915, Control_c, 0, 67, 11
1, 132930, Control_c, 0, 64, 54
1, 132930, Control_c, 0, 67, 11
1, 132945, Control_c, 0, 64, 61
1, 132945, Control_c, 0, 67, 12
1, 132960, Control_c, 0, 64, 64
1, 132960, Control_c, 0, 67, 13
1, 132975, Control_c, 0, 64, 68
1, 132975, Control_c, 0, 67, 15
1, 132991, Control_c, 0, 64, 71
1, 132991, Control_c, 0, 67, 16
1, 133006, Control_c, 0, 64, 74
1, 133006, Control_c, 0, 67, 17
1, 133020, Note_off_c, 0, 66, 59
1, 133020, Control_c, 0, 64, 77
1, 133020, Control_c, 0, 67, 18
1, 133035, Control_c, 0, 64, 78
1, 133035, Control_c, 0, 67, 19
1, 133050, Control_c, 0, 64, 80
1, 133050, Control_c, 0, 67, 21
1, 133065, Control_c, 0, 64, 81
1, 133065, Control_c, 0, 67, 22
1, 133080, Control_c, 0, 64, 83
1, 133080, Control_c, 0, 67, 24
1, 133094, Control_c, 0, 64, 84
1, 133094, Control_c, 0, 67, 25
1, 133109, Control_c, 0, 64, 85
1, 133109, Control_c, 0, 67, 26
1, 133119, Note_on_c, 0, 68, 67
1, 133124, Control_c, 0, 67, 27
1, 133138, Control_c, 0, 67, 28
1, 133153, Control_c, 0, 67, 29
1, 133168, Control_c, 0, 67, 29
1, 133183, Control_c, 0, 67, 30
1, 133198, Control_c, 0, 67, 31
1, 133219, Control_c, 0, 67, 31
1, 133234, Control_c, 0, 64, 84
1, 133234, Control_c, 0, 67, 32
1, 133249, Control_c, 0, 67, 32
1, 133279, Control_c, 0, 67, 33
1, 133294, Control_c, 0, 67, 33
1, 133309, Control_c, 0, 67, 34
1, 133324, Control_c, 0, 67, 34
1, 133338, Control_c, 0, 67, 36
1, 133353, Control_c, 0, 67, 37
1, 133368, Control_c, 0, 67, 39
1, 133383, Control_c, 0, 67, 40
1, 133398, Control_c, 0, 64, 84
1, 133398, Control_c, 0, 67, 41
1, 133413, Control_c, 0, 67, 42
1, 133427, Control_c, 0, 67, 42
1, 133442, Control_c, 0, 67, 43
1, 133457, Control_c, 0, 67, 44
1, 133466, Note_on_c, 0, 69, 66
1, 133472, Control_c, 0, 67, 45
1, 133487, Control_c, 0, 64, 83
1, 133487, Control_c, 0, 67, 45
1, 133501, Control_c, 0, 67, 46
1, 133516, Control_c, 0, 64, 83
1, 133516, Control_c, 0, 67, 46
1, 133545, Control_c, 0, 67, 47
1, 133547, Note_off_c, 0, 49, 0
1, 133560, Control_c, 0, 64, 82
1, 133560, Control_c, 0, 67, 48
1, 133575, Control_c, 0, 64, 82
1, 133575, Control_c, 0, 67, 49
1, 133590, Control_c, 0, 67, 51
1, 133605, Control_c, 0, 64, 81
1, 133605, Control_c, 0, 67, 53
1, 133615, Note_off_c, 0, 68, 36
1, 133619, Control_c, 0, 67, 55
1, 133634, Poly_aftertouch_c, 0, 49, 0
1, 133634, Control_c, 0, 64, 81
1, 133634, Control_c, 0, 67, 56
1, 133649, Control_c, 0, 67, 58
1, 133663, Control_c, 0, 64, 80
1, 133663, Control_c, 0, 67, 60
1, 133678, Control_c, 0, 67, 62
1, 133693, Control_c, 0, 64, 80
1, 133693, Control_c, 0, 67, 65
1, 133704, Note_off_c, 0, 60, 56
1, 133708, Control_c, 0, 67, 66
1, 133723, Control_c, 0, 64, 79
1, 133738, Control_c, 0, 64, 79
1, 133738, Control_c, 0, 67, 67
1, 133768, Control_c, 0, 64, 78
1, 133768, Control_c, 0, 67, 67
1, 133798, Control_c, 0, 64, 78
1, 133813, Control_c, 0, 64, 77
1, 133828, Control_c, 0, 64, 76
1, 133865, Note_on_c, 0, 46, 27
1, 133865, Note_off_c, 0, 51, 43
1, 133872, Control_c, 0, 64, 76
1, 133887, Note_on_c, 0, 53, 29
1, 133887, Control_c, 0, 64, 75
1, 133902, Control_c, 0, 64, 74
1, 133902, Control_c, 0, 67, 68
1, 133916, Control_c, 0, 64, 73
1, 133922, Note_on_c, 0, 65, 57
1, 133931, Control_c, 0, 64, 70
1, 133931, Control_c, 0, 67, 68
1, 133946, Control_c, 0, 64, 67
1, 133946, Control_c, 0, 67, 69
1, 133954, Note_on_c, 0, 61, 33
1, 133967, Control_c, 0, 64, 64
1, 133967, Control_c, 0, 67, 71
1, 133979, Note_off_c, 0, 69, 54
1, 133982, Control_c, 0, 64, 53
1, 133982, Control_c, 0, 67, 72
1, 133997, Control_c, 0, 64, 0
1, 133997, Control_c, 0, 67, 73
1, 134042, Control_c, 0, 67, 73
1, 134131, Control_c, 0, 64, 51
1, 134131, Control_c, 0, 67, 73
1, 134146, Control_c, 0, 64, 65
1, 134160, Control_c, 0, 64, 71
1, 134160, Control_c, 0, 67, 72
1, 134175, Control_c, 0, 64, 78
1, 134190, Control_c, 0, 64, 84
1, 134205, Control_c, 0, 64, 89
1, 134205, Control_c, 0, 67, 72
1, 134220, Control_c, 0, 64, 89
1, 134235, Control_c, 0, 67, 71
1, 134264, Control_c, 0, 67, 71
1, 134277, Note_off_c, 0, 46, 41
1, 134303, Note_off_c, 0, 53, 44
1, 134308, Control_c, 0, 64, 90
1, 134321, Note_off_c, 0, 61, 41
1, 134323, Control_c, 0, 64, 90
1, 134338, Control_c, 0, 64, 91
1, 134353, Control_c, 0, 64, 91
1, 134361, Note_off_c, 0, 65, 54
1, 134367, Control_c, 0, 64, 92
1, 134382, Control_c, 0, 64, 93
1, 134397, Control_c, 0, 64, 95
1, 134412, Control_c, 0, 64, 96
1, 134412, Control_c, 0, 67, 71
1, 134427, Control_c, 0, 64, 97
1, 134427, Control_c, 0, 67, 72
1, 134441, Control_c, 0, 64, 98
1, 134456, Control_c, 0, 64, 98
1, 134456, Control_c, 0, 67, 73
1, 134471, Control_c, 0, 67, 74
1, 134591, Control_c, 0, 64, 97
1, 134606, Control_c, 0, 64, 97
1, 134636, Control_c, 0, 64, 96
1, 134651, Control_c, 0, 64, 95
1, 134665, Control_c, 0, 64, 94
1, 134680, Control_c, 0, 64, 93
1, 134695, Control_c, 0, 64, 92
1, 134717, Control_c, 0, 64, 90
1, 134732, Control_c, 0, 64, 89
1, 134747, Control_c, 0, 64, 88
1, 134747, Control_c, 0, 67, 74
1, 134762, Control_c, 0, 64, 87
1, 134763, Note_on_c, 0, 60, 25
1, 134785, Note_on_c, 0, 77, 49
1, 134790, Note_on_c, 0, 68, 42
1, 134791, Control_c, 0, 64, 87
1, 134806, Control_c, 0, 64, 86
1, 134806, Control_c, 0, 67, 75
1, 134819, Note_off_c, 0, 68, 54
1, 134821, Control_c, 0, 64, 86
1, 134828, Note_on_c, 0, 63, 28
1, 134836, Control_c, 0, 64, 85
1, 134851, Control_c, 0, 67, 75
1, 134856, Note_on_c, 0, 69, 40
1, 134865, Control_c, 0, 64, 85
1, 134865, Control_c, 0, 67, 76
1, 134880, Control_c, 0, 64, 84
1, 134880, Control_c, 0, 67, 78
1, 134895, Control_c, 0, 64, 83
1, 134895, Control_c, 0, 67, 81
1, 134909, Control_c, 0, 64, 81
1, 134909, Control_c, 0, 67, 86
1, 134924, Control_c, 0, 64, 79
1, 134924, Control_c, 0, 67, 90
1, 134939, Control_c, 0, 64, 75
1, 134939, Control_c, 0, 67, 94
1, 134951, Note_on_c, 0, 75, 53
1, 134954, Control_c, 0, 64, 70
1, 134954, Control_c, 0, 67, 96
1, 134961, Note_on_c, 0, 66, 42
1, 134966, Note_off_c, 0, 77, 38
1, 134969, Control_c, 0, 64, 64
1, 134969, Control_c, 0, 67, 97
1, 134984, Control_c, 0, 64, 55
1, 134984, Control_c, 0, 67, 98
1, 134999, Control_c, 0, 64, 31
1, 134999, Control_c, 0, 67, 99
1, 135014, Control_c, 0, 64, 0
1, 135014, Control_c, 0, 67, 100
1, 135029, Control_c, 0, 64, 14
1, 135029, Control_c, 0, 67, 101
1, 135044, Control_c, 0, 64, 36
1, 135044, Control_c, 0, 67, 102
1, 135058, Control_c, 0, 64, 50
1, 135058, Control_c, 0, 67, 102
1, 135073, Control_c, 0, 64, 60
1, 135088, Control_c, 0, 64, 64
1, 135088, Control_c, 0, 67, 103
1, 135102, Note_off_c, 0, 69, 29
1, 135103, Control_c, 0, 64, 68
1, 135117, Control_c, 0, 64, 72
1, 135132, Control_c, 0, 64, 76
1, 135147, Control_c, 0, 64, 80
1, 135162, Control_c, 0, 64, 84
1, 135177, Control_c, 0, 64, 87
1, 135191, Control_c, 0, 64, 90
1, 135206, Control_c, 0, 64, 94
1, 135209, Note_off_c, 0, 60, 43
1, 135221, Control_c, 0, 64, 96
1, 135221, Control_c, 0, 67, 102
1, 135236, Control_c, 0, 64, 98
1, 135251, Control_c, 0, 64, 99
1, 135265, Control_c, 0, 64, 102
1, 135280, Control_c, 0, 64, 104
1, 135283, Note_off_c, 0, 63, 37
1, 135294, Note_off_c, 0, 75, 29
1, 135295, Control_c, 0, 64, 105
1, 135309, Control_c, 0, 64, 106
1, 135324, Control_c, 0, 64, 108
1, 135339, Control_c, 0, 64, 110
1, 135354, Control_c, 0, 64, 112
1, 135369, Control_c, 0, 64, 113
1, 135369, Control_c, 0, 67, 102
1, 135385, Control_c, 0, 64, 114
1, 135393, Note_off_c, 0, 66, 32
1, 135400, Control_c, 0, 64, 114
1, 135429, Control_c, 0, 64, 115
1, 135570, Control_c, 0, 67, 101
1, 135614, Control_c, 0, 64, 114
1, 135644, Control_c, 0, 64, 113
1, 135659, Control_c, 0, 64, 113
1, 135674, Control_c, 0, 64, 112
1, 135688, Control_c, 0, 64, 111
1, 135703, Control_c, 0, 64, 110
1, 135718, Control_c, 0, 64, 110
1, 135733, Control_c, 0, 64, 109
1, 135747, Control_c, 0, 64, 108
1, 135762, Control_c, 0, 64, 108
1, 135762, Control_c, 0, 67, 101
1, 135777, Control_c, 0, 64, 107
1, 135792, Control_c, 0, 64, 106
1, 135807, Control_c, 0, 64, 106
1, 135822, Control_c, 0, 64, 105
1, 135836, Control_c, 0, 64, 105
1, 135851, Control_c, 0, 64, 104
1, 135866, Control_c, 0, 64, 103
1, 135881, Control_c, 0, 64, 103
1, 135896, Control_c, 0, 64, 102
1, 135911, Control_c, 0, 64, 101
1, 135926, Control_c, 0, 64, 99
1, 135940, Control_c, 0, 64, 95
1, 135955, Note_on_c, 0, 65, 43
1, 135955, Control_c, 0, 64, 91
1, 135959, Note_on_c, 0, 46, 30
1, 135961, Note_on_c, 0, 53, 30
1, 135970, Control_c, 0, 64, 89
1, 135985, Control_c, 0, 64, 88
1, 135990, Note_on_c, 0, 61, 30
1, 136000, Control_c, 0, 64, 88
1, 136014, Control_c, 0, 64, 86
1, 136029, Control_c, 0, 64, 84
1, 136044, Control_c, 0, 64, 81
1, 136058, Control_c, 0, 64, 77
1, 136073, Control_c, 0, 64, 73
1, 136088, Control_c, 0, 64, 68
1, 136103, Control_c, 0, 64, 63
1, 136118, Control_c, 0, 64, 57
1, 136132, Control_c, 0, 64, 53
1, 136260, Control_c, 0, 64, 54
1, 136275, Control_c, 0, 64, 56
1, 136290, Control_c, 0, 64, 59
1, 136290, Control_c, 0, 67, 100
1, 136304, Control_c, 0, 64, 62
1, 136319, Control_c, 0, 64, 63
1, 136334, Control_c, 0, 64, 64
1, 136334, Control_c, 0, 67, 100
1, 136349, Control_c, 0, 64, 65
1, 136363, Control_c, 0, 64, 66
1, 136363, Control_c, 0, 67, 99
1, 136378, Control_c, 0, 64, 69
1, 136378, Control_c, 0, 67, 99
1, 136393, Control_c, 0, 64, 71
1, 136408, Control_c, 0, 64, 73
1, 136408, Control_c, 0, 67, 98
1, 136423, Control_c, 0, 64, 75
1, 136423, Control_c, 0, 67, 98
1, 136437, Control_c, 0, 64, 77
1, 136452, Control_c, 0, 64, 79
1, 136452, Control_c, 0, 67, 97
1, 136467, Control_c, 0, 64, 81
1, 136467, Control_c, 0, 67, 97
1, 136482, Control_c, 0, 64, 84
1, 136496, Control_c, 0, 64, 87
1, 136496, Control_c, 0, 67, 96
1, 136511, Control_c, 0, 64, 90
1, 136511, Control_c, 0, 67, 96
1, 136526, Control_c, 0, 64, 92
1, 136541, Control_c, 0, 64, 95
1, 136541, Control_c, 0, 67, 95
1, 136556, Control_c, 0, 64, 98
1, 136570, Control_c, 0, 64, 103
1, 136570, Control_c, 0, 67, 94
1, 136585, Control_c, 0, 64, 109
1, 136600, Control_c, 0, 64, 115
1, 136600, Control_c, 0, 67, 94
1, 136615, Control_c, 0, 64, 127
1, 136615, Control_c, 0, 67, 93
1, 136630, Control_c, 0, 67, 93
1, 136674, Control_c, 0, 67, 92
1, 136689, Control_c, 0, 67, 91
1, 136704, Control_c, 0, 67, 90
1, 136719, Control_c, 0, 67, 90
1, 136734, Control_c, 0, 67, 89
1, 136749, Control_c, 0, 67, 88
1, 136763, Control_c, 0, 67, 83
1, 136778, Control_c, 0, 67, 76
1, 136793, Control_c, 0, 67, 65
1, 136808, Control_c, 0, 67, 56
1, 136823, Control_c, 0, 67, 48
1, 136837, Control_c, 0, 67, 41
1, 136842, Note_off_c, 0, 65, 50
1, 136852, Control_c, 0, 67, 30
1, 136867, Control_c, 0, 67, 16
1, 136881, Control_c, 0, 67, 0
1, 137306, Note_on_c, 0, 65, 75
1, 137717, Note_on_c, 0, 64, 84
1, 137830, Note_off_c, 0, 65, 51
1, 137875, Note_off_c, 0, 61, 41
1, 137957, Note_on_c, 0, 63, 87
1, 137966, Note_off_c, 0, 64, 60
1, 138126, Note_off_c, 0, 63, 61
1, 138130, Note_on_c, 0, 73, 91
1, 138138, Note_on_c, 0, 61, 74
1, 138188, Note_off_c, 0, 61, 0
1, 138225, Poly_aftertouch_c, 0, 61, 127
1, 138227, Note_on_c, 0, 61, 17
1, 138301, Note_on_c, 0, 58, 81
1, 138325, Note_on_c, 0, 69, 17
1, 138355, Note_on_c, 0, 67, 17
1, 138370, Note_off_c, 0, 61, 37
1, 138391, Note_off_c, 0, 53, 42
1, 138425, Note_off_c, 0, 46, 41
1, 138428, Note_off_c, 0, 58, 62
1, 138471, Note_off_c, 0, 67, 44
1, 138477, Note_off_c, 0, 73, 60
1, 138488, Note_on_c, 0, 49, 72
1, 138542, Note_off_c, 0, 69, 37
1, 138606, Note_on_c, 0, 63, 78
1, 138615, Note_on_c, 0, 58, 61
1, 138625, Control_c, 0, 64, 108
1, 138639, Control_c, 0, 64, 97
1, 138654, Control_c, 0, 64, 95
1, 138669, Control_c, 0, 64, 96
1, 138683, Control_c, 0, 64, 102
1, 138698, Control_c, 0, 64, 120
1, 138713, Control_c, 0, 64, 127
1, 138817, Note_off_c, 0, 58, 57
1, 138870, Note_on_c, 0, 42, 70
1, 138912, Note_off_c, 0, 49, 61
1, 138944, Note_off_c, 0, 42, 62
1, 138960, Note_off_c, 0, 63, 61
1, 139091, Note_on_c, 0, 49, 65
1, 139153, Note_off_c, 0, 49, 62
1, 139214, Note_on_c, 0, 58, 70
1, 139318, Note_on_c, 0, 63, 71
1, 139451, Note_on_c, 0, 70, 80
1, 139563, Note_off_c, 0, 70, 60
1, 139589, Note_off_c, 0, 63, 48
1, 139696, Note_off_c, 0, 58, 62
1, 139747, Note_on_c, 0, 63, 74
1, 139920, Note_on_c, 0, 58, 58
1, 139956, Note_off_c, 0, 63, 52
1, 140008, Note_off_c, 0, 58, 59
1, 140034, Note_on_c, 0, 97, 96
1, 140213, Note_on_c, 0, 49, 68
1, 140418, Control_c, 0, 64, 97
1, 140433, Control_c, 0, 64, 81
1, 140442, Note_on_c, 0, 42, 57
1, 140448, Control_c, 0, 64, 71
1, 140463, Control_c, 0, 64, 72
1, 140478, Control_c, 0, 64, 83
1, 140493, Control_c, 0, 64, 107
1, 140508, Control_c, 0, 64, 127
1, 140698, Note_off_c, 0, 42, 42
1, 140767, Note_off_c, 0, 49, 51
1, 140898, Note_on_c, 0, 96, 89
1, 140943, Note_off_c, 0, 97, 25
1, 141107, Note_on_c, 0, 49, 57
1, 141205, Note_off_c, 0, 49, 58
1, 141288, Note_on_c, 0, 58, 55
1, 141365, Note_on_c, 0, 87, 68
1, 141473, Note_on_c, 0, 63, 56
1, 141499, Note_off_c, 0, 96, 55
1, 141599, Note_off_c, 0, 58, 0
1, 141599, Note_on_c, 0, 58, 3
1, 141605, Note_on_c, 0, 70, 62
1, 141673, Note_off_c, 0, 70, 59
1, 141679, Note_on_c, 0, 95, 96
1, 141727, Note_off_c, 0, 87, 63
1, 141739, Note_off_c, 0, 63, 38
1, 141849, Note_off_c, 0, 58, 43
1, 141905, Note_on_c, 0, 86, 80
1, 141948, Note_on_c, 0, 63, 58
1, 141955, Note_off_c, 0, 86, 65
1, 142054, Note_off_c, 0, 63, 61
1, 142066, Note_on_c, 0, 58, 55
1, 142093, Note_off_c, 0, 58, 65
1, 142103, Note_on_c, 0, 94, 89
1, 142114, Note_on_c, 0, 85, 78
1, 142123, Note_off_c, 0, 95, 64
1, 142166, Note_off_c, 0, 94, 66
1, 142189, Note_on_c, 0, 49, 60
1, 142207, Note_off_c, 0, 85, 43
1, 142306, Note_on_c, 0, 42, 69
1, 142397, Control_c, 0, 64, 121
1, 142408, Note_on_c, 0, 87, 95
1, 142408, Note_off_c, 0, 49, 34
1, 142412, Control_c, 0, 64, 93
1, 142415, Note_on_c, 0, 84, 79
1, 142427, Control_c, 0, 64, 78
1, 142442, Control_c, 0, 64, 69
1, 142457, Control_c, 0, 64, 67
1, 142472, Control_c, 0, 64, 72
1, 142487, Control_c, 0, 64, 82
1, 142501, Control_c, 0, 64, 101
1, 142516, Control_c, 0, 64, 127
1, 142518, Note_off_c, 0, 42, 0
1, 142555, Poly_aftertouch_c, 0, 42, 127
1, 142664, Poly_aftertouch_c, 0, 42, 0
1, 142666, Note_off_c, 0, 84, 51
1, 142699, Note_on_c, 0, 83, 77
1, 142786, Note_on_c, 0, 49, 55
1, 142796, Note_off_c, 0, 87, 62
1, 142898, Note_on_c, 0, 86, 79
1, 142901, Note_off_c, 0, 83, 62
1, 142907, Note_on_c, 0, 82, 75
1, 142912, Note_on_c, 0, 58, 56
1, 142959, Note_off_c, 0, 49, 60
1, 142993, Note_off_c, 0, 58, 58
1, 143081, Note_off_c, 0, 82, 59
1, 143096, Note_on_c, 0, 85, 82
1, 143117, Note_off_c, 0, 86, 62
1, 143138, Note_on_c, 0, 63, 52
1, 143187, Note_off_c, 0, 85, 62
1, 143268, Note_on_c, 0, 70, 64
1, 143275, Note_on_c, 0, 84, 81
1, 143280, Control_c, 0, 64, 106
1, 143286, Note_on_c, 0, 75, 70
1, 143295, Control_c, 0, 64, 96
1, 143310, Control_c, 0, 64, 95
1, 143324, Control_c, 0, 64, 98
1, 143339, Control_c, 0, 64, 112
1, 143354, Control_c, 0, 64, 127
1, 143389, Note_off_c, 0, 70, 38
1, 143424, Note_off_c, 0, 75, 61
1, 143481, Note_on_c, 0, 83, 81
1, 143495, Note_off_c, 0, 63, 57
1, 143496, Note_on_c, 0, 74, 68
1, 143521, Note_off_c, 0, 84, 56
1, 143556, Note_off_c, 0, 74, 64
1, 143596, Note_on_c, 0, 63, 54
1, 143623, Note_off_c, 0, 63, 58
1, 143676, Note_on_c, 0, 58, 57
1, 143682, Note_on_c, 0, 82, 81
1, 143702, Note_on_c, 0, 73, 75
1, 143709, Note_off_c, 0, 83, 63
1, 143736, Note_off_c, 0, 73, 58
1, 143754, Note_off_c, 0, 82, 63
1, 143934, Note_on_c, 0, 75, 81
1, 143940, Control_c, 0, 64, 116
1, 143948, Note_on_c, 0, 72, 65
1, 143954, Control_c, 0, 64, 93
1, 143969, Control_c, 0, 64, 79
1, 143984, Control_c, 0, 64, 71
1, 143999, Control_c, 0, 64, 72
1, 144014, Control_c, 0, 64, 77
1, 144028, Control_c, 0, 64, 85
1, 144043, Control_c, 0, 64, 95
1, 144058, Control_c, 0, 64, 115
1, 144073, Control_c, 0, 64, 127
1, 144268, Note_on_c, 0, 71, 68
1, 144269, Note_off_c, 0, 72, 58
1, 144442, Note_off_c, 0, 75, 61
1, 144469, Note_off_c, 0, 71, 64
1, 144472, Note_on_c, 0, 74, 72
1, 144481, Note_off_c, 0, 58, 38
1, 144490, Note_on_c, 0, 70, 56
1, 144505, Note_on_c, 0, 63, 47
1, 144600, Note_off_c, 0, 63, 59
1, 144610, Note_on_c, 0, 58, 51
1, 144643, Note_off_c, 0, 58, 63
1, 144673, Note_on_c, 0, 73, 76
1, 144702, Note_off_c, 0, 70, 61
1, 144705, Note_off_c, 0, 74, 63
1, 144731, Note_on_c, 0, 49, 66
1, 144837, Control_c, 0, 64, 110
1, 144852, Control_c, 0, 64, 88
1, 144862, Note_on_c, 0, 72, 75
1, 144867, Control_c, 0, 64, 77
1, 144870, Note_on_c, 0, 69, 59
1, 144870, Note_off_c, 0, 73, 62
1, 144882, Control_c, 0, 64, 72
1, 144896, Control_c, 0, 64, 73
1, 144911, Control_c, 0, 64, 78
1, 144926, Control_c, 0, 64, 87
1, 144941, Control_c, 0, 64, 100
1, 144956, Control_c, 0, 64, 127
1, 145066, Note_on_c, 0, 63, 66
1, 145132, Note_off_c, 0, 69, 40
1, 145165, Note_off_c, 0, 63, 60
1, 145212, Note_off_c, 0, 49, 47
1, 145271, Note_off_c, 0, 72, 60
1, 145272, Note_on_c, 0, 62, 60
1, 145279, Note_on_c, 0, 71, 65
1, 145290, Note_on_c, 0, 42, 44
1, 145340, Note_off_c, 0, 62, 61
1, 145411, Note_off_c, 0, 42, 48
1, 145423, Note_off_c, 0, 71, 57
1, 145440, Note_on_c, 0, 49, 58
1, 145530, Note_on_c, 0, 70, 71
1, 145551, Note_on_c, 0, 61, 58
1, 145580, Note_off_c, 0, 61, 64
1, 145602, Note_off_c, 0, 70, 60
1, 145645, Note_on_c, 0, 58, 73
1, 145673, Note_off_c, 0, 49, 33
1, 145697, Note_off_c, 0, 58, 62
1, 145889, Note_on_c, 0, 70, 73
1, 145921, Note_on_c, 0, 63, 71
1, 145924, Note_off_c, 0, 70, 56
1, 145957, Note_on_c, 0, 60, 44
1, 146148, Note_off_c, 0, 63, 59
1, 146171, Control_c, 0, 67, 9
1, 146186, Control_c, 0, 67, 11
1, 146201, Control_c, 0, 67, 14
1, 146215, Control_c, 0, 67, 17
1, 146219, Poly_aftertouch_c, 0, 66, 127
1, 146230, Control_c, 0, 67, 20
1, 146245, Control_c, 0, 67, 24
1, 146260, Control_c, 0, 67, 26
1, 146274, Control_c, 0, 67, 29
1, 146276, Poly_aftertouch_c, 0, 66, 0
1, 146289, Control_c, 0, 67, 31
1, 146304, Control_c, 0, 67, 33
1, 146319, Control_c, 0, 67, 34
1, 146334, Control_c, 0, 67, 36
1, 146348, Control_c, 0, 67, 38
1, 146354, Note_on_c, 0, 63, 55
1, 146363, Control_c, 0, 67, 40
1, 146378, Control_c, 0, 67, 41
1, 146392, Control_c, 0, 67, 43
1, 146407, Control_c, 0, 67, 44
1, 146422, Control_c, 0, 67, 45
1, 146425, Note_off_c, 0, 63, 54
1, 146437, Control_c, 0, 67, 47
1, 146452, Control_c, 0, 67, 49
1, 146456, Note_on_c, 0, 58, 55
1, 146466, Control_c, 0, 67, 50
1, 146481, Control_c, 0, 67, 52
1, 146485, Note_off_c, 0, 58, 65
1, 146496, Control_c, 0, 67, 53
1, 146511, Control_c, 0, 67, 54
1, 146526, Control_c, 0, 67, 55
1, 146541, Control_c, 0, 67, 56
1, 146556, Control_c, 0, 67, 57
1, 146571, Control_c, 0, 67, 58
1, 146586, Control_c, 0, 67, 59
1, 146598, Note_on_c, 0, 49, 56
1, 146601, Control_c, 0, 67, 60
1, 146616, Control_c, 0, 67, 61
1, 146631, Control_c, 0, 67, 62
1, 146645, Control_c, 0, 67, 63
1, 146660, Control_c, 0, 67, 65
1, 146675, Control_c, 0, 67, 66
1, 146697, Control_c, 0, 67, 68
1, 146712, Control_c, 0, 67, 69
1, 146727, Control_c, 0, 67, 71
1, 146742, Control_c, 0, 67, 73
1, 146757, Control_c, 0, 67, 74
1, 146761, Note_on_c, 0, 42, 50
1, 146771, Control_c, 0, 67, 77
1, 146781, Note_off_c, 0, 49, 33
1, 146786, Control_c, 0, 67, 80
1, 146801, Control_c, 0, 67, 81
1, 146816, Control_c, 0, 67, 81
1, 146831, Control_c, 0, 67, 82
1, 146842, Note_on_c, 0, 63, 60
1, 146845, Control_c, 0, 67, 82
1, 146860, Control_c, 0, 67, 84
1, 146875, Control_c, 0, 64, 122
1, 146875, Control_c, 0, 67, 85
1, 146890, Control_c, 0, 64, 95
1, 146890, Control_c, 0, 67, 86
1, 146905, Control_c, 0, 64, 75
1, 146905, Control_c, 0, 67, 87
1, 146919, Control_c, 0, 64, 45
1, 146919, Control_c, 0, 67, 88
1, 146934, Control_c, 0, 64, 0
1, 146949, Control_c, 0, 67, 88
1, 146994, Control_c, 0, 64, 60
1, 147009, Control_c, 0, 64, 69
1, 147023, Control_c, 0, 64, 79
1, 147038, Control_c, 0, 64, 90
1, 147053, Control_c, 0, 64, 102
1, 147068, Control_c, 0, 64, 111
1, 147083, Control_c, 0, 64, 116
1, 147171, Control_c, 0, 64, 117
1, 147179, Note_off_c, 0, 42, 12
1, 147186, Control_c, 0, 64, 122
1, 147201, Control_c, 0, 64, 127
1, 147222, Note_on_c, 0, 49, 49
1, 147400, Note_on_c, 0, 58, 49
1, 147410, Control_c, 0, 67, 89
1, 147447, Note_on_c, 0, 70, 57
1, 147462, Control_c, 0, 67, 89
1, 147492, Control_c, 0, 67, 90
1, 147507, Control_c, 0, 64, 126
1, 147507, Control_c, 0, 67, 90
1, 147521, Control_c, 0, 67, 91
1, 147536, Control_c, 0, 67, 94
1, 147551, Control_c, 0, 67, 97
1, 147566, Control_c, 0, 67, 100
1, 147581, Control_c, 0, 67, 104
1, 147595, Control_c, 0, 67, 108
1, 147610, Control_c, 0, 67, 111
1, 147625, Control_c, 0, 67, 115
1, 147629, Note_off_c, 0, 60, 54
1, 147640, Control_c, 0, 67, 118
1, 147654, Control_c, 0, 64, 124
1, 147654, Control_c, 0, 67, 120
1, 147669, Control_c, 0, 67, 121
1, 147684, Control_c, 0, 64, 123
1, 147684, Control_c, 0, 67, 123
1, 147699, Control_c, 0, 64, 120
1, 147699, Control_c, 0, 67, 125
1, 147714, Control_c, 0, 64, 117
1, 147714, Control_c, 0, 67, 127
1, 147728, Control_c, 0, 64, 114
1, 147728, Control_c, 0, 67, 127
1, 147743, Control_c, 0, 64, 111
1, 147758, Control_c, 0, 64, 108
1, 147773, Control_c, 0, 64, 104
1, 147775, Note_on_c, 0, 64, 61
1, 147788, Control_c, 0, 64, 100
1, 147802, Control_c, 0, 64, 95
1, 147808, Note_on_c, 0, 60, 35
1, 147817, Control_c, 0, 64, 89
1, 147832, Control_c, 0, 64, 83
1, 147847, Control_c, 0, 64, 76
1, 147858, Note_off_c, 0, 63, 52
1, 147861, Control_c, 0, 64, 69
1, 147876, Control_c, 0, 64, 63
1, 147891, Control_c, 0, 64, 58
1, 147906, Control_c, 0, 64, 59
1, 147921, Control_c, 0, 64, 62
1, 147936, Control_c, 0, 64, 64
1, 147951, Control_c, 0, 64, 65
1, 147966, Control_c, 0, 64, 67
1, 147981, Control_c, 0, 64, 71
1, 147995, Control_c, 0, 64, 78
1, 148010, Control_c, 0, 64, 83
1, 148025, Control_c, 0, 64, 87
1, 148039, Control_c, 0, 64, 90
1, 148054, Control_c, 0, 64, 92
1, 148069, Control_c, 0, 64, 94
1, 148084, Control_c, 0, 64, 98
1, 148087, Note_off_c, 0, 58, 48
1, 148095, Note_off_c, 0, 70, 33
1, 148099, Control_c, 0, 64, 100
1, 148113, Control_c, 0, 64, 103
1, 148128, Control_c, 0, 64, 107
1, 148143, Control_c, 0, 64, 110
1, 148158, Control_c, 0, 64, 113
1, 148174, Control_c, 0, 64, 116
1, 148180, Note_on_c, 0, 57, 45
1, 148196, Control_c, 0, 64, 118
1, 148211, Control_c, 0, 64, 121
1, 148225, Control_c, 0, 64, 126
1, 148228, Note_off_c, 0, 49, 44
1, 148240, Control_c, 0, 64, 127
1, 148317, Note_off_c, 0, 57, 36
1, 148416, Note_on_c, 0, 49, 46
1, 148640, Control_c, 0, 67, 126
1, 148655, Control_c, 0, 67, 124
1, 148669, Control_c, 0, 67, 121
1, 148684, Control_c, 0, 67, 118
1, 148699, Control_c, 0, 67, 115
1, 148714, Control_c, 0, 67, 114
1, 148729, Control_c, 0, 67, 112
1, 148744, Note_off_c, 0, 49, 39
1, 148744, Control_c, 0, 67, 108
1, 148747, Note_on_c, 0, 42, 36
1, 148751, Note_on_c, 0, 69, 50
1, 148759, Control_c, 0, 67, 103
1, 148774, Control_c, 0, 67, 99
1, 148788, Control_c, 0, 67, 94
1, 148803, Control_c, 0, 67, 91
1, 148817, Control_c, 0, 67, 86
1, 148818, Note_off_c, 0, 64, 37
1, 148827, Note_off_c, 0, 42, 40
1, 148832, Control_c, 0, 67, 79
1, 148847, Control_c, 0, 67, 73
1, 148854, Note_off_c, 0, 60, 31
1, 148861, Control_c, 0, 67, 68
1, 148876, Control_c, 0, 67, 64
1, 148886, Note_off_c, 0, 69, 52
1, 148891, Control_c, 0, 67, 60
1, 148906, Control_c, 0, 67, 54
1, 148921, Control_c, 0, 67, 48
1, 148943, Control_c, 0, 67, 41
1, 148958, Control_c, 0, 67, 37
1, 148973, Control_c, 0, 67, 33
1, 148988, Control_c, 0, 67, 28
1, 149003, Control_c, 0, 67, 19
1, 149018, Control_c, 0, 67, 10
1, 149033, Control_c, 0, 67, 0
1, 149477, Control_c, 0, 64, 126
1, 149492, Control_c, 0, 64, 122
1, 149507, Control_c, 0, 64, 120
1, 149522, Control_c, 0, 64, 119
1, 149537, Control_c, 0, 64, 117
1, 149552, Control_c, 0, 64, 116
1, 149566, Control_c, 0, 64, 115
1, 149670, Control_c, 0, 64, 115
1, 149692, Control_c, 0, 64, 112
1, 149707, Control_c, 0, 64, 97
1, 149722, Control_c, 0, 64, 80
1, 149736, Note_on_c, 0, 61, 44
1, 149736, Control_c, 0, 64, 63
1, 149748, Note_on_c, 0, 53, 36
1, 149749, Note_on_c, 0, 56, 31
1, 149751, Control_c, 0, 64, 0
1, 149758, Note_on_c, 0, 25, 40
1, 149762, Note_on_c, 0, 37, 31
1, 149767, Note_on_c, 0, 32, 29
1, 149767, Note_on_c, 0, 49, 33
1, 149796, Control_c, 0, 64, 56
1, 149811, Control_c, 0, 64, 70
1, 149826, Control_c, 0, 64, 86
1, 149841, Control_c, 0, 64, 127
1, 149859, Note_off_c, 0, 32, 38
1, 149862, Note_off_c, 0, 49, 44
1, 149897, Note_off_c, 0, 25, 29
1, 149919, Note_off_c, 0, 37, 31
1, 149927, Note_off_c, 0, 53, 42
1, 149971, Note_off_c, 0, 56, 39
1, 150034, Note_off_c, 0, 61, 36
1, 150476, Note_on_c, 0, 85, 67
1, 150480, Note_on_c, 0, 80, 48
1, 150494, Note_on_c, 0, 65, 46
1, 150505, Note_on_c, 0, 61, 41
1, 150514, Note_on_c, 0, 73, 34
1, 150517, Note_on_c, 0, 56, 37
1, 150528, Note_on_c, 0, 77, 21
1, 150971, Note_off_c, 0, 56, 37
1, 150971, Note_off_c, 0, 77, 35
1, 150982, Note_off_c, 0, 85, 49
1, 150985, Note_off_c, 0, 65, 38
1, 150998, Note_off_c, 0, 80, 37
1, 151030, Note_off_c, 0, 73, 44
1, 151049, Note_off_c, 0, 61, 41
1, 151239, Note_on_c, 0, 84, 63
1, 151257, Note_on_c, 0, 72, 46
1, 151262, Note_on_c, 0, 60, 38
1, 151262, Note_on_c, 0, 77, 37
1, 151263, Note_on_c, 0, 80, 41
1, 151265, Note_on_c, 0, 65, 34
1, 151268, Note_on_c, 0, 63, 45
1, 151284, Note_on_c, 0, 54, 41
1, 151504, Note_off_c, 0, 54, 63
1, 151544, Note_off_c, 0, 63, 57
1, 151556, Note_off_c, 0, 60, 54
1, 151617, Note_off_c, 0, 65, 38
1, 151648, Note_off_c, 0, 84, 55
1, 151677, Note_off_c, 0, 72, 61
1, 151677, Note_off_c, 0, 77, 54
1, 151730, Note_off_c, 0, 80, 57
1, 151796, Note_on_c, 0, 77, 59
1, 151796, Note_on_c, 0, 83, 77
1, 151802, Note_on_c, 0, 65, 54
1, 151809, Note_on_c, 0, 59, 51
1, 151809, Note_on_c, 0, 62, 50
1, 151810, Note_on_c, 0, 71, 55
1, 151811, Note_on_c, 0, 80, 48
1, 151813, Note_on_c, 0, 53, 55
1, 151823, Note_off_c, 0, 65, 62
1, 151838, Note_off_c, 0, 77, 55
1, 151844, Note_off_c, 0, 83, 64
1, 151850, Note_off_c, 0, 62, 61
1, 151853, Note_off_c, 0, 80, 62
1, 151854, Note_off_c, 0, 59, 60
1, 151871, Note_off_c, 0, 53, 63
1, 151871, Note_off_c, 0, 71, 41
1, 152087, Control_c, 0, 64, 112
1, 152102, Control_c, 0, 64, 80
1, 152110, Note_on_c, 0, 72, 84
1, 152115, Note_on_c, 0, 69, 72
1, 152115, Note_on_c, 0, 60, 75
1, 152116, Note_on_c, 0, 48, 78
1, 152117, Control_c, 0, 64, 61
1, 152118, Note_on_c, 0, 36, 66
1, 152120, Note_on_c, 0, 65, 63
1, 152122, Note_on_c, 0, 45, 67
1, 152125, Note_on_c, 0, 41, 61
1, 152132, Control_c, 0, 64, 28
1, 152147, Control_c, 0, 64, 59
1, 152163, Control_c, 0, 64, 69
1, 152178, Control_c, 0, 64, 88
1, 152192, Control_c, 0, 64, 127
1, 152251, Note_off_c, 0, 60, 61
1, 152268, Note_off_c, 0, 65, 61
1, 152270, Note_off_c, 0, 36, 60
1, 152279, Note_off_c, 0, 69, 61
1, 152285, Note_off_c, 0, 41, 62
1, 152306, Note_off_c, 0, 45, 64
1, 152312, Note_off_c, 0, 72, 63
1, 152327, Note_off_c, 0, 48, 61
1, 152468, Note_on_c, 0, 77, 90
1, 152470, Note_on_c, 0, 69, 68
1, 152470, Note_on_c, 0, 72, 71
1, 152476, Note_on_c, 0, 53, 65
1, 152477, Note_on_c, 0, 65, 73
1, 152481, Note_on_c, 0, 60, 68
1, 152488, Note_on_c, 0, 57, 59
1, 152846, Note_off_c, 0, 69, 49
1, 152871, Note_off_c, 0, 77, 56
1, 152938, Note_off_c, 0, 65, 54
1, 152980, Note_off_c, 0, 60, 62
1, 153072, Note_on_c, 0, 76, 89
1, 153086, Note_on_c, 0, 68, 72
1, 153087, Note_on_c, 0, 64, 74
1, 153093, Note_off_c, 0, 53, 62
1, 153099, Note_on_c, 0, 60, 64
1, 153114, Note_on_c, 0, 56, 63
1, 153125, Note_on_c, 0, 52, 59
1, 153132, Control_c, 0, 64, 97
1, 153144, Note_off_c, 0, 57, 59
1, 153147, Control_c, 0, 64, 79
1, 153162, Control_c, 0, 64, 67
1, 153177, Control_c, 0, 64, 55
1, 153191, Control_c, 0, 64, 58
1, 153206, Control_c, 0, 64, 66
1, 153221, Control_c, 0, 64, 75
1, 153236, Control_c, 0, 64, 88
1, 153251, Control_c, 0, 64, 127
1, 153530, Note_off_c, 0, 52, 58
1, 153579, Note_off_c, 0, 68, 56
1, 153597, Note_off_c, 0, 64, 62
1, 153608, Note_off_c, 0, 76, 58
1, 153618, Note_off_c, 0, 56, 61
1, 153632, Note_off_c, 0, 60, 39
1, 153724, Note_off_c, 0, 72, 0
1, 153740, Note_on_c, 0, 72, 35
1, 153742, Note_on_c, 0, 60, 57
1, 153746, Note_on_c, 0, 75, 65
1, 153768, Note_on_c, 0, 54, 34
1, 153769, Note_on_c, 0, 51, 49
1, 153769, Note_on_c, 0, 69, 39
1, 153777, Note_on_c, 0, 63, 34
1, 153785, Note_off_c, 0, 60, 55
1, 153785, Note_on_c, 0, 57, 31
1, 153796, Note_off_c, 0, 69, 57
1, 153816, Note_off_c, 0, 75, 61
1, 153817, Note_off_c, 0, 51, 55
1, 153823, Note_off_c, 0, 57, 53
1, 153824, Note_off_c, 0, 72, 56
1, 153886, Note_off_c, 0, 54, 35
1, 153886, Note_off_c, 0, 63, 38
1, 153912, Control_c, 0, 67, 11
1, 153927, Control_c, 0, 67, 16
1, 153942, Control_c, 0, 67, 21
1, 153956, Control_c, 0, 67, 29
1, 153971, Control_c, 0, 67, 36
1, 153986, Control_c, 0, 67, 44
1, 154001, Control_c, 0, 67, 52
1, 154015, Control_c, 0, 67, 60
1, 154030, Control_c, 0, 67, 68
1, 154045, Control_c, 0, 67, 72
1, 154060, Control_c, 0, 67, 74
1, 154075, Control_c, 0, 67, 76
1, 154089, Control_c, 0, 67, 79
1, 154104, Control_c, 0, 67, 81
1, 154119, Control_c, 0, 67, 82
1, 154134, Control_c, 0, 67, 83
1, 154149, Control_c, 0, 67, 84
1, 154163, Control_c, 0, 67, 86
1, 154186, Control_c, 0, 67, 88
1, 154201, Control_c, 0, 67, 89
1, 154215, Control_c, 0, 64, 86
1, 154230, Note_on_c, 0, 61, 58
1, 154230, Control_c, 0, 64, 63
1, 154230, Control_c, 0, 67, 89
1, 154233, Note_on_c, 0, 25, 44
1, 154233, Note_on_c, 0, 32, 36
1, 154234, Note_on_c, 0, 56, 35
1, 154235, Note_on_c, 0, 37, 39
1, 154245, Control_c, 0, 64, 0
1, 154247, Note_on_c, 0, 53, 35
1, 154261, Note_on_c, 0, 49, 32
1, 154289, Control_c, 0, 67, 89
1, 154304, Control_c, 0, 67, 88
1, 154315, Note_off_c, 0, 49, 44
1, 154319, Control_c, 0, 67, 88
1, 154334, Control_c, 0, 64, 73
1, 154334, Control_c, 0, 67, 87
1, 154349, Control_c, 0, 64, 93
1, 154349, Control_c, 0, 67, 87
1, 154363, Control_c, 0, 64, 127
1, 154378, Control_c, 0, 67, 86
1, 154398, Note_off_c, 0, 25, 36
1, 154405, Note_off_c, 0, 53, 52
1, 154407, Note_off_c, 0, 32, 41
1, 154408, Control_c, 0, 67, 86
1, 154422, Control_c, 0, 67, 85
1, 154427, Note_off_c, 0, 56, 41
1, 154437, Control_c, 0, 67, 84
1, 154446, Note_off_c, 0, 61, 61
1, 154452, Note_off_c, 0, 37, 40
1, 154452, Control_c, 0, 67, 84
1, 154467, Control_c, 0, 67, 83
1, 154482, Control_c, 0, 67, 83
1, 154497, Control_c, 0, 67, 82
1, 154527, Control_c, 0, 67, 82
1, 154541, Control_c, 0, 67, 81
1, 154557, Control_c, 0, 67, 81
1, 154572, Control_c, 0, 67, 80
1, 154586, Control_c, 0, 67, 80
1, 154631, Control_c, 0, 67, 79
1, 154659, Note_on_c, 0, 53, 46
1, 154659, Note_on_c, 0, 73, 64
1, 154664, Note_on_c, 0, 56, 48
1, 154673, Note_on_c, 0, 68, 43
1, 154679, Note_on_c, 0, 44, 31
1, 154682, Note_on_c, 0, 65, 34
1, 154683, Note_on_c, 0, 61, 43
1, 154691, Control_c, 0, 67, 79
1, 154898, Control_c, 0, 67, 78
1, 154950, Control_c, 0, 67, 78
1, 154964, Control_c, 0, 67, 77
1, 154994, Control_c, 0, 67, 77
1, 155019, Note_off_c, 0, 73, 47
1, 155024, Control_c, 0, 67, 76
1, 155053, Control_c, 0, 67, 76
1, 155068, Control_c, 0, 67, 74
1, 155079, Note_off_c, 0, 61, 42
1, 155083, Control_c, 0, 67, 73
1, 155087, Note_off_c, 0, 68, 37
1, 155098, Control_c, 0, 67, 72
1, 155112, Control_c, 0, 67, 70
1, 155127, Control_c, 0, 67, 68
1, 155142, Control_c, 0, 67, 66
1, 155156, Control_c, 0, 67, 64
1, 155169, Note_off_c, 0, 53, 56
1, 155171, Control_c, 0, 67, 61
1, 155186, Control_c, 0, 67, 58
1, 155188, Note_off_c, 0, 65, 32
1, 155201, Control_c, 0, 67, 54
1, 155216, Control_c, 0, 67, 49
1, 155222, Note_off_c, 0, 44, 38
1, 155222, Note_off_c, 0, 56, 59
1, 155230, Control_c, 0, 67, 44
1, 155245, Control_c, 0, 67, 39
1, 155260, Control_c, 0, 67, 35
1, 155275, Control_c, 0, 67, 31
1, 155290, Control_c, 0, 67, 28
1, 155305, Control_c, 0, 67, 25
1, 155320, Control_c, 0, 67, 21
1, 155335, Control_c, 0, 67, 18
1, 155350, Control_c, 0, 67, 13
1, 155352, Note_on_c, 0, 72, 61
1, 155359, Note_on_c, 0, 54, 53
1, 155363, Note_on_c, 0, 44, 45
1, 155364, Note_on_c, 0, 65, 37
1, 155365, Control_c, 0, 67, 9
1, 155371, Note_on_c, 0, 51, 51
1, 155374, Note_on_c, 0, 68, 47
1, 155379, Note_on_c, 0, 60, 38
1, 155379, Control_c, 0, 67, 0
1, 155709, Note_off_c, 0, 72, 38
1, 155800, Note_off_c, 0, 60, 59
1, 155803, Note_off_c, 0, 65, 37
1, 155823, Note_off_c, 0, 44, 51
1, 155832, Note_off_c, 0, 54, 54
1, 155853, Note_off_c, 0, 68, 56
1, 155923, Note_on_c, 0, 71, 80
1, 155932, Note_on_c, 0, 50, 65
1, 155932, Note_on_c, 0, 65, 54
1, 155933, Note_on_c, 0, 53, 71
1, 155933, Note_on_c, 0, 68, 51
1, 155938, Note_on_c, 0, 44, 66
1, 155947, Note_on_c, 0, 59, 43
1, 155975, Note_off_c, 0, 59, 54
1, 155975, Note_off_c, 0, 65, 61
1, 156004, Note_off_c, 0, 68, 61
1, 156016, Note_off_c, 0, 71, 63
1, 156026, Note_off_c, 0, 51, 58
1, 156050, Note_off_c, 0, 44, 63
1, 156050, Note_off_c, 0, 50, 64
1, 156100, Note_off_c, 0, 53, 63
1, 156336, Control_c, 0, 64, 91
1, 156351, Control_c, 0, 64, 0
1, 156366, Note_on_c, 0, 60, 58
1, 156366, Note_on_c, 0, 84, 94
1, 156378, Note_on_c, 0, 53, 50
1, 156382, Note_on_c, 0, 72, 63
1, 156383, Note_on_c, 0, 57, 46
1, 156384, Note_on_c, 0, 81, 57
1, 156385, Note_on_c, 0, 48, 48
1, 156391, Note_on_c, 0, 77, 46
1, 156401, Note_off_c, 0, 72, 61
1, 156410, Control_c, 0, 64, 68
1, 156411, Note_off_c, 0, 81, 50
1, 156432, Control_c, 0, 64, 105
1, 156447, Control_c, 0, 64, 127
1, 156484, Note_off_c, 0, 77, 0
1, 156484, Note_on_c, 0, 77, 3
1, 156502, Note_off_c, 0, 84, 61
1, 156526, Note_on_c, 0, 81, 9
1, 156558, Note_off_c, 0, 60, 55
1, 156561, Note_off_c, 0, 77, 52
1, 156562, Note_off_c, 0, 57, 61
1, 156563, Note_off_c, 0, 53, 58
1, 156569, Note_off_c, 0, 81, 39
1, 156634, Note_off_c, 0, 48, 62
1, 156921, Note_on_c, 0, 65, 75
1, 156933, Note_on_c, 0, 48, 46
1, 156933, Note_on_c, 0, 53, 38
1, 156938, Note_on_c, 0, 41, 38
1, 156941, Note_on_c, 0, 60, 45
1, 156941, Note_on_c, 0, 57, 50
1, 157512, Note_off_c, 0, 57, 59
1, 157549, Note_off_c, 0, 53, 35
1, 157557, Note_off_c, 0, 41, 39
1, 157561, Note_off_c, 0, 48, 30
1, 157611, Control_c, 0, 67, 8
1, 157626, Control_c, 0, 67, 11
1, 157640, Control_c, 0, 67, 13
1, 157655, Control_c, 0, 67, 16
1, 157670, Control_c, 0, 67, 17
1, 157685, Control_c, 0, 67, 18
1, 157699, Control_c, 0, 67, 19
1, 157714, Control_c, 0, 67, 20
1, 157729, Control_c, 0, 67, 22
1, 157744, Control_c, 0, 67, 24
1, 157758, Note_on_c, 0, 64, 55
1, 157760, Control_c, 0, 67, 26
1, 157761, Note_on_c, 0, 48, 34
1, 157767, Note_on_c, 0, 40, 40
1, 157768, Note_on_c, 0, 56, 41
1, 157774, Note_on_c, 0, 52, 40
1, 157774, Control_c, 0, 67, 27
1, 157789, Control_c, 0, 64, 109
1, 157789, Control_c, 0, 67, 29
1, 157804, Control_c, 0, 64, 97
1, 157804, Control_c, 0, 67, 30
1, 157819, Control_c, 0, 64, 89
1, 157819, Control_c, 0, 67, 33
1, 157834, Control_c, 0, 64, 83
1, 157834, Control_c, 0, 67, 36
1, 157848, Control_c, 0, 64, 78
1, 157848, Control_c, 0, 67, 40
1, 157857, Note_off_c, 0, 65, 54
1, 157863, Control_c, 0, 64, 74
1, 157863, Control_c, 0, 67, 44
1, 157878, Control_c, 0, 64, 69
1, 157878, Control_c, 0, 67, 48
1, 157893, Control_c, 0, 64, 66
1, 157893, Control_c, 0, 67, 52
1, 157908, Control_c, 0, 64, 64
1, 157908, Control_c, 0, 67, 56
1, 157930, Control_c, 0, 64, 63
1, 157930, Control_c, 0, 67, 58
1, 157945, Control_c, 0, 64, 62
1, 157945, Control_c, 0, 67, 59
1, 157960, Control_c, 0, 67, 61
1, 157975, Control_c, 0, 64, 62
1, 157975, Control_c, 0, 67, 62
1, 157989, Control_c, 0, 64, 61
1, 157989, Control_c, 0, 67, 64
1, 158004, Control_c, 0, 64, 59
1, 158004, Control_c, 0, 67, 65
1, 158019, Control_c, 0, 64, 57
1, 158019, Control_c, 0, 67, 68
1, 158034, Control_c, 0, 67, 70
1, 158049, Control_c, 0, 64, 57
1, 158049, Control_c, 0, 67, 72
1, 158063, Control_c, 0, 64, 59
1, 158063, Control_c, 0, 67, 75
1, 158078, Control_c, 0, 64, 61
1, 158078, Control_c, 0, 67, 78
1, 158093, Control_c, 0, 64, 62
1, 158093, Control_c, 0, 67, 82
1, 158108, Control_c, 0, 64, 64
1, 158108, Control_c, 0, 67, 86
1, 158123, Control_c, 0, 64, 66
1, 158123, Control_c, 0, 67, 92
1, 158137, Control_c, 0, 64, 68
1, 158137, Control_c, 0, 67, 96
1, 158152, Control_c, 0, 64, 70
1, 158152, Control_c, 0, 67, 100
1, 158167, Control_c, 0, 64, 71
1, 158167, Control_c, 0, 67, 104
1, 158181, Control_c, 0, 64, 75
1, 158181, Control_c, 0, 67, 108
1, 158196, Control_c, 0, 64, 80
1, 158196, Control_c, 0, 67, 111
1, 158211, Control_c, 0, 64, 84
1, 158211, Control_c, 0, 67, 115
1, 158226, Control_c, 0, 64, 88
1, 158226, Control_c, 0, 67, 118
1, 158241, Control_c, 0, 64, 91
1, 158241, Control_c, 0, 67, 122
1, 158256, Control_c, 0, 64, 94
1, 158256, Control_c, 0, 67, 126
1, 158271, Control_c, 0, 64, 99
1, 158271, Control_c, 0, 67, 127
1, 158286, Control_c, 0, 64, 103
1, 158301, Control_c, 0, 64, 106
1, 158315, Control_c, 0, 64, 107
1, 158330, Control_c, 0, 64, 108
1, 158392, Note_off_c, 0, 52, 40
1, 158420, Note_off_c, 0, 56, 42
1, 158421, Note_off_c, 0, 40, 39
1, 158463, Control_c, 0, 64, 107
1, 158478, Control_c, 0, 64, 107
1, 158493, Control_c, 0, 64, 106
1, 158508, Control_c, 0, 64, 105
1, 158522, Control_c, 0, 64, 104
1, 158537, Control_c, 0, 64, 103
1, 158547, Note_off_c, 0, 48, 31
1, 158552, Control_c, 0, 64, 102
1, 158567, Control_c, 0, 64, 101
1, 158582, Control_c, 0, 64, 100
1, 158596, Control_c, 0, 64, 99
1, 158611, Control_c, 0, 64, 98
1, 158626, Control_c, 0, 64, 97
1, 158641, Control_c, 0, 64, 95
1, 158656, Control_c, 0, 64, 94
1, 158678, Control_c, 0, 64, 92
1, 158691, Note_on_c, 0, 63, 41
1, 158693, Control_c, 0, 64, 89
1, 158695, Note_on_c, 0, 48, 17
1, 158708, Note_off_c, 0, 64, 38
1, 158708, Control_c, 0, 64, 86
1, 158717, Note_on_c, 0, 57, 31
1, 158720, Note_on_c, 0, 51, 29
1, 158721, Note_on_c, 0, 39, 29
1, 158723, Control_c, 0, 64, 83
1, 158738, Control_c, 0, 64, 77
1, 158752, Control_c, 0, 64, 71
1, 158767, Control_c, 0, 64, 64
1, 158782, Control_c, 0, 64, 56
1, 158797, Control_c, 0, 64, 46
1, 158826, Control_c, 0, 64, 54
1, 158841, Control_c, 0, 64, 60
1, 158856, Control_c, 0, 64, 63
1, 158871, Control_c, 0, 64, 64
1, 158885, Control_c, 0, 64, 67
1, 158900, Control_c, 0, 64, 70
1, 158915, Control_c, 0, 64, 74
1, 158930, Control_c, 0, 64, 79
1, 158941, Note_off_c, 0, 51, 45
1, 158945, Control_c, 0, 64, 83
1, 158948, Note_off_c, 0, 48, 40
1, 158959, Control_c, 0, 64, 85
1, 158974, Control_c, 0, 64, 88
1, 158989, Control_c, 0, 64, 90
1, 159004, Control_c, 0, 64, 92
1, 159019, Control_c, 0, 64, 94
1, 159034, Control_c, 0, 64, 95
1, 159044, Note_off_c, 0, 39, 33
1, 159049, Control_c, 0, 64, 95
1, 159064, Control_c, 0, 64, 96
1, 159078, Control_c, 0, 64, 97
1, 159089, Note_off_c, 0, 60, 38
1, 159093, Control_c, 0, 64, 98
1, 159121, Note_off_c, 0, 63, 37
1, 159226, Control_c, 0, 64, 98
1, 159241, Control_c, 0, 64, 97
1, 159256, Control_c, 0, 64, 97
1, 159285, Control_c, 0, 64, 96
1, 159299, Control_c, 0, 64, 96
1, 159314, Control_c, 0, 64, 95
1, 159322, Note_off_c, 0, 57, 39
1, 159329, Control_c, 0, 64, 95
1, 159345, Control_c, 0, 64, 94
1, 159360, Control_c, 0, 64, 94
1, 159374, Control_c, 0, 64, 93
1, 159389, Control_c, 0, 64, 93
1, 159404, Control_c, 0, 64, 92
1, 159426, Control_c, 0, 64, 91
1, 159441, Control_c, 0, 64, 90
1, 159456, Control_c, 0, 64, 89
1, 159471, Control_c, 0, 64, 88
1, 159474, Note_on_c, 0, 25, 40
1, 159485, Note_on_c, 0, 37, 36
1, 159486, Control_c, 0, 64, 86
1, 159500, Control_c, 0, 64, 84
1, 159515, Control_c, 0, 64, 82
1, 159530, Control_c, 0, 64, 80
1, 159545, Control_c, 0, 64, 76
1, 159560, Control_c, 0, 64, 70
1, 159574, Control_c, 0, 64, 65
1, 159589, Control_c, 0, 64, 59
1, 159604, Control_c, 0, 64, 48
1, 159619, Control_c, 0, 64, 44
1, 159678, Control_c, 0, 64, 44
1, 159693, Control_c, 0, 64, 47
1, 159708, Control_c, 0, 64, 50
1, 159722, Control_c, 0, 64, 53
1, 159737, Control_c, 0, 64, 56
1, 159752, Control_c, 0, 64, 60
1, 159767, Control_c, 0, 64, 63
1, 159782, Control_c, 0, 64, 65
1, 159785, Note_on_c, 0, 61, 37
1, 159797, Note_on_c, 0, 53, 34
1, 159797, Control_c, 0, 64, 66
1, 159808, Note_on_c, 0, 56, 20
1, 159812, Control_c, 0, 64, 67
1, 159826, Control_c, 0, 64, 69
1, 159841, Control_c, 0, 64, 72
1, 159856, Control_c, 0, 64, 75
1, 159871, Control_c, 0, 64, 79
1, 159886, Control_c, 0, 64, 83
1, 159900, Control_c, 0, 64, 85
1, 159915, Control_c, 0, 64, 87
1, 159922, Note_off_c, 0, 25, 41
1, 159930, Control_c, 0, 64, 89
1, 159944, Control_c, 0, 64, 91
1, 159959, Control_c, 0, 64, 94
1, 159974, Control_c, 0, 64, 96
1, 160130, Note_off_c, 0, 53, 44
1, 160245, Note_off_c, 0, 56, 0
1, 160282, Poly_aftertouch_c, 0, 56, 127
1, 160283, Note_on_c, 0, 60, 45
1, 160292, Note_on_c, 0, 52, 45
1, 160328, Note_off_c, 0, 60, 59
1, 160339, Control_c, 0, 64, 95
1, 160340, Poly_aftertouch_c, 0, 56, 0
1, 160340, Note_off_c, 0, 61, 34
1, 160354, Control_c, 0, 64, 95
1, 160362, Note_off_c, 0, 52, 51
1, 160398, Note_off_c, 0, 37, 35
1, 160413, Control_c, 0, 64, 94
1, 160414, Note_on_c, 0, 48, 46
1, 160443, Control_c, 0, 64, 94
1, 160487, Control_c, 0, 64, 93
1, 160502, Control_c, 0, 64, 92
1, 160517, Control_c, 0, 64, 90
1, 160531, Control_c, 0, 64, 86
1, 160546, Control_c, 0, 64, 81
1, 160551, Note_on_c, 0, 53, 38
1, 160554, Note_on_c, 0, 49, 51
1, 160561, Control_c, 0, 64, 76
1, 160575, Control_c, 0, 64, 68
1, 160590, Control_c, 0, 64, 49
1, 160605, Control_c, 0, 64, 0
1, 160638, Note_off_c, 0, 49, 53
1, 160649, Note_off_c, 0, 48, 42
1, 160675, Note_on_c, 0, 37, 49
1, 160698, Note_off_c, 0, 53, 35
1, 160724, Control_c, 0, 64, 53
1, 160739, Control_c, 0, 64, 64
1, 160754, Control_c, 0, 64, 67
1, 160768, Control_c, 0, 64, 72
1, 160783, Control_c, 0, 64, 75
1, 160798, Control_c, 0, 64, 80
1, 160799, Note_on_c, 0, 61, 56
1, 160809, Note_on_c, 0, 56, 36
1, 160813, Control_c, 0, 64, 85
1, 160822, Note_on_c, 0, 53, 48
1, 160828, Control_c, 0, 64, 93
1, 160842, Control_c, 0, 64, 98
1, 160857, Control_c, 0, 64, 99
1, 160978, Note_off_c, 0, 53, 63
1, 160995, Note_off_c, 0, 61, 31
1, 161067, Note_off_c, 0, 56, 0
1, 161090, Note_on_c, 0, 60, 52
1, 161092, Note_on_c, 0, 56, 10
1, 161099, Note_on_c, 0, 52, 53
1, 161132, Note_off_c, 0, 52, 63
1, 161162, Control_c, 0, 64, 98
1, 161175, Note_off_c, 0, 37, 33
1, 161188, Note_on_c, 0, 48, 64
1, 161189, Note_off_c, 0, 60, 38
1, 161206, Control_c, 0, 64, 98
1, 161243, Note_off_c, 0, 56, 43
1, 161283, Note_on_c, 0, 53, 59
1, 161290, Note_off_c, 0, 48, 59
1, 161293, Note_on_c, 0, 49, 54
1, 161295, Control_c, 0, 64, 97
1, 161310, Control_c, 0, 64, 96
1, 161325, Control_c, 0, 64, 94
1, 161340, Control_c, 0, 64, 91
1, 161350, Note_off_c, 0, 49, 61
1, 161354, Control_c, 0, 64, 84
1, 161369, Control_c, 0, 64, 73
1, 161384, Control_c, 0, 64, 50
1, 161387, Note_off_c, 0, 53, 62
1, 161392, Note_on_c, 0, 37, 63
1, 161398, Control_c, 0, 64, 0
1, 161489, Note_on_c, 0, 60, 56
1, 161490, Note_on_c, 0, 56, 40
1, 161523, Note_on_c, 0, 53, 51
1, 161532, Control_c, 0, 64, 34
1, 161547, Control_c, 0, 64, 65
1, 161562, Control_c, 0, 64, 67
1, 161577, Control_c, 0, 64, 70
1, 161591, Control_c, 0, 64, 74
1, 161602, Note_off_c, 0, 60, 59
1, 161606, Control_c, 0, 64, 77
1, 161614, Note_off_c, 0, 53, 64
1, 161621, Control_c, 0, 64, 80
1, 161636, Control_c, 0, 64, 82
1, 161651, Control_c, 0, 64, 83
1, 161672, Control_c, 0, 64, 83
1, 161679, Note_off_c, 0, 56, 0
1, 161717, Poly_aftertouch_c, 0, 56, 127
1, 161724, Note_on_c, 0, 59, 62
1, 161725, Note_on_c, 0, 56, 6
1, 161727, Note_on_c, 0, 52, 64
1, 161755, Note_off_c, 0, 52, 64
1, 161761, Note_off_c, 0, 59, 60
1, 161807, Control_c, 0, 64, 83
1, 161812, Note_off_c, 0, 56, 41
1, 161821, Control_c, 0, 64, 82
1, 161822, Note_on_c, 0, 47, 60
1, 161836, Control_c, 0, 64, 81
1, 161842, Note_off_c, 0, 37, 35
1, 161851, Control_c, 0, 64, 80
1, 161866, Control_c, 0, 64, 79
1, 161873, Note_off_c, 0, 47, 57
1, 161881, Control_c, 0, 64, 78
1, 161896, Control_c, 0, 64, 78
1, 161910, Control_c, 0, 64, 76
1, 161925, Control_c, 0, 64, 71
1, 161928, Note_on_c, 0, 53, 58
1, 161939, Note_on_c, 0, 49, 57
1, 161940, Control_c, 0, 64, 64
1, 161955, Control_c, 0, 64, 0
1, 161969, Note_off_c, 0, 49, 64
1, 162012, Note_on_c, 0, 37, 56
1, 162018, Note_off_c, 0, 53, 61
1, 162122, Note_on_c, 0, 60, 57
1, 162131, Note_on_c, 0, 56, 41
1, 162133, Control_c, 0, 64, 69
1, 162140, Note_on_c, 0, 53, 47
1, 162147, Control_c, 0, 64, 75
1, 162162, Control_c, 0, 64, 77
1, 162177, Control_c, 0, 64, 77
1, 162192, Control_c, 0, 64, 78
1, 162207, Control_c, 0, 64, 79
1, 162221, Control_c, 0, 64, 80
1, 162232, Note_off_c, 0, 60, 59
1, 162236, Control_c, 0, 64, 81
1, 162241, Note_off_c, 0, 53, 60
1, 162322, Note_off_c, 0, 56, 0
1, 162346, Note_on_c, 0, 56, 17
1, 162352, Note_on_c, 0, 59, 56
1, 162364, Note_on_c, 0, 52, 48
1, 162400, Note_off_c, 0, 52, 63
1, 162429, Note_off_c, 0, 59, 59
1, 162456, Note_on_c, 0, 47, 59
1, 162467, Note_off_c, 0, 37, 22
1, 162467, Note_off_c, 0, 56, 38
1, 162504, Note_off_c, 0, 47, 60
1, 162539, Note_on_c, 0, 53, 54
1, 162540, Control_c, 0, 64, 80
1, 162556, Control_c, 0, 64, 78
1, 162569, Note_on_c, 0, 49, 50
1, 162570, Control_c, 0, 64, 71
1, 162585, Control_c, 0, 64, 51
1, 162600, Control_c, 0, 64, 0
1, 162604, Note_off_c, 0, 49, 64
1, 162641, Note_off_c, 0, 53, 53
1, 162645, Note_on_c, 0, 37, 53
1, 162770, Note_on_c, 0, 59, 50
1, 162772, Note_on_c, 0, 53, 51
1, 162772, Note_on_c, 0, 56, 43
1, 162793, Control_c, 0, 64, 57
1, 162808, Control_c, 0, 64, 68
1, 162823, Control_c, 0, 64, 72
1, 162838, Control_c, 0, 64, 77
1, 162852, Control_c, 0, 64, 83
1, 162867, Control_c, 0, 64, 86
1, 162871, Note_off_c, 0, 59, 58
1, 162882, Control_c, 0, 64, 88
1, 162885, Note_off_c, 0, 56, 55
1, 162885, Note_off_c, 0, 53, 61
1, 162897, Control_c, 0, 64, 89
1, 162912, Control_c, 0, 64, 90
1, 162926, Control_c, 0, 64, 90
1, 162998, Note_on_c, 0, 58, 49
1, 163004, Note_on_c, 0, 55, 41
1, 163036, Note_on_c, 0, 52, 22
1, 163072, Note_on_c, 0, 46, 51
1, 163088, Note_off_c, 0, 37, 42
1, 163091, Note_off_c, 0, 52, 55
1, 163093, Note_off_c, 0, 58, 52
1, 163103, Control_c, 0, 64, 90
1, 163143, Note_off_c, 0, 46, 42
1, 163163, Control_c, 0, 64, 89
1, 163171, Note_off_c, 0, 55, 34
1, 163198, Note_on_c, 0, 53, 55
1, 163200, Control_c, 0, 64, 88
1, 163215, Control_c, 0, 64, 88
1, 163223, Note_on_c, 0, 49, 53
1, 163230, Control_c, 0, 64, 86
1, 163244, Control_c, 0, 64, 84
1, 163248, Note_off_c, 0, 49, 59
1, 163259, Control_c, 0, 64, 77
1, 163262, Note_off_c, 0, 53, 56
1, 163274, Control_c, 0, 64, 68
1, 163289, Control_c, 0, 64, 0
1, 163299, Note_on_c, 0, 37, 53
1, 163416, Note_on_c, 0, 59, 51
1, 163425, Note_on_c, 0, 53, 40
1, 163433, Note_on_c, 0, 56, 42
1, 163438, Control_c, 0, 64, 54
1, 163453, Control_c, 0, 64, 67
1, 163467, Control_c, 0, 64, 75
1, 163482, Control_c, 0, 64, 88
1, 163497, Control_c, 0, 64, 94
1, 163527, Note_off_c, 0, 56, 57
1, 163535, Note_off_c, 0, 53, 60
1, 163539, Note_off_c, 0, 59, 48
1, 163656, Note_on_c, 0, 58, 59
1, 163671, Note_on_c, 0, 55, 42
1, 163675, Note_on_c, 0, 52, 46
1, 163720, Note_off_c, 0, 52, 62
1, 163734, Control_c, 0, 64, 93
1, 163749, Note_off_c, 0, 55, 49
1, 163749, Control_c, 0, 64, 93
1, 163764, Control_c, 0, 64, 91
1, 163769, Note_on_c, 0, 46, 54
1, 163779, Control_c, 0, 64, 89
1, 163787, Note_off_c, 0, 37, 37
1, 163793, Control_c, 0, 64, 88
1, 163808, Control_c, 0, 64, 87
1, 163815, Note_off_c, 0, 58, 40
1, 163823, Control_c, 0, 64, 85
1, 163838, Control_c, 0, 64, 83
1, 163842, Note_off_c, 0, 46, 49
1, 163853, Control_c, 0, 64, 80
1, 163867, Control_c, 0, 64, 77
1, 163871, Note_on_c, 0, 53, 51
1, 163882, Note_on_c, 0, 49, 48
1, 163882, Control_c, 0, 64, 76
1, 163897, Control_c, 0, 64, 73
1, 163919, Control_c, 0, 64, 69
1, 163921, Note_off_c, 0, 49, 64
1, 163934, Control_c, 0, 64, 64
1, 163949, Control_c, 0, 64, 50
1, 163955, Note_off_c, 0, 53, 56
1, 163964, Control_c, 0, 64, 0
1, 164000, Note_on_c, 0, 37, 45
1, 164104, Note_on_c, 0, 58, 52
1, 164116, Note_on_c, 0, 53, 40
1, 164130, Note_on_c, 0, 56, 33
1, 164143, Control_c, 0, 64, 39
1, 164158, Control_c, 0, 64, 66
1, 164172, Control_c, 0, 64, 71
1, 164187, Control_c, 0, 64, 75
1, 164202, Control_c, 0, 64, 78
1, 164216, Control_c, 0, 64, 82
1, 164231, Control_c, 0, 64, 87
1, 164246, Control_c, 0, 64, 93
1, 164261, Control_c, 0, 64, 93
1, 164265, Note_off_c, 0, 53, 61
1, 164274, Note_off_c, 0, 58, 58
1, 164306, Note_off_c, 0, 56, 45
1, 164382, Note_on_c, 0, 57, 43
1, 164387, Note_on_c, 0, 52, 47
1, 164397, Note_on_c, 0, 55, 30
1, 164429, Note_off_c, 0, 52, 59
1, 164468, Control_c, 0, 64, 93
1, 164483, Control_c, 0, 64, 92
1, 164492, Note_off_c, 0, 55, 37
1, 164498, Control_c, 0, 64, 92
1, 164505, Note_on_c, 0, 45, 47
1, 164510, Note_off_c, 0, 57, 32
1, 164513, Control_c, 0, 64, 91
1, 164519, Note_off_c, 0, 37, 31
1, 164528, Control_c, 0, 64, 91
1, 164542, Control_c, 0, 64, 89
1, 164557, Control_c, 0, 64, 88
1, 164572, Control_c, 0, 64, 86
1, 164585, Note_off_c, 0, 45, 52
1, 164587, Control_c, 0, 64, 83
1, 164602, Control_c, 0, 64, 80
1, 164612, Note_on_c, 0, 53, 47
1, 164616, Control_c, 0, 64, 76
1, 164629, Note_on_c, 0, 49, 37
1, 164631, Control_c, 0, 64, 69
1, 164646, Control_c, 0, 64, 62
1, 164668, Control_c, 0, 64, 33
1, 164677, Note_off_c, 0, 49, 62
1, 164683, Control_c, 0, 64, 0
1, 164723, Note_off_c, 0, 53, 57
1, 164752, Note_on_c, 0, 37, 35
1, 164862, Note_on_c, 0, 58, 46
1, 164868, Note_on_c, 0, 53, 36
1, 164876, Control_c, 0, 64, 44
1, 164881, Note_on_c, 0, 56, 35
1, 164890, Control_c, 0, 64, 63
1, 164905, Control_c, 0, 64, 66
1, 164920, Control_c, 0, 64, 68
1, 164935, Control_c, 0, 64, 70
1, 164951, Control_c, 0, 64, 73
1, 164965, Control_c, 0, 64, 75
1, 164980, Control_c, 0, 64, 77
1, 164995, Control_c, 0, 64, 77
1, 165010, Control_c, 0, 64, 78
1, 165025, Control_c, 0, 64, 80
1, 165039, Control_c, 0, 64, 82
1, 165053, Note_off_c, 0, 53, 51
1, 165054, Control_c, 0, 64, 83
1, 165058, Note_off_c, 0, 58, 58
1, 165076, Note_off_c, 0, 56, 50
1, 165172, Note_on_c, 0, 57, 43
1, 165172, Control_c, 0, 64, 82
1, 165187, Control_c, 0, 64, 79
1, 165188, Note_on_c, 0, 52, 36
1, 165193, Note_on_c, 0, 55, 36
1, 165202, Control_c, 0, 64, 73
1, 165217, Control_c, 0, 64, 66
1, 165232, Control_c, 0, 64, 53
1, 165246, Control_c, 0, 64, 0
1, 165276, Control_c, 0, 64, 42
1, 165291, Control_c, 0, 64, 63
1, 165306, Control_c, 0, 64, 68
1, 165321, Control_c, 0, 64, 72
1, 165336, Control_c, 0, 64, 77
1, 165344, Note_on_c, 0, 45, 36
1, 165350, Control_c, 0, 64, 81
1, 165358, Note_off_c, 0, 52, 52
1, 165365, Control_c, 0, 64, 84
1, 165380, Control_c, 0, 64, 85
1, 165395, Control_c, 0, 64, 86
1, 165396, Note_off_c, 0, 45, 56
1, 165432, Control_c, 0, 64, 86
1, 165440, Note_off_c, 0, 37, 42
1, 165446, Control_c, 0, 64, 87
1, 165460, Note_off_c, 0, 55, 33
1, 165461, Control_c, 0, 64, 88
1, 165506, Control_c, 0, 64, 88
1, 165520, Control_c, 0, 64, 89
1, 165535, Control_c, 0, 64, 90
1, 165575, Note_on_c, 0, 53, 37
1, 165580, Control_c, 0, 64, 90
1, 165582, Note_on_c, 0, 49, 38
1, 165642, Note_off_c, 0, 49, 49
1, 165698, Control_c, 0, 67, 119
1, 165713, Control_c, 0, 67, 108
1, 165728, Control_c, 0, 67, 95
1, 165744, Control_c, 0, 67, 84
1, 165759, Control_c, 0, 67, 73
1, 165774, Control_c, 0, 67, 63
1, 165788, Control_c, 0, 67, 52
1, 165803, Control_c, 0, 67, 39
1, 165818, Control_c, 0, 67, 27
1, 165827, Note_off_c, 0, 53, 40
1, 165833, Control_c, 0, 64, 90
1, 165833, Control_c, 0, 67, 17
1, 165848, Control_c, 0, 67, 0
1, 165848, Note_off_c, 0, 57, 4
1, 165877, Control_c, 0, 64, 89
1, 165937, Control_c, 0, 64, 89
1, 165966, Control_c, 0, 64, 88
1, 166010, Control_c, 0, 64, 88
1, 166040, Control_c, 0, 64, 87
1, 166055, Control_c, 0, 64, 86
1, 166181, Control_c, 0, 64, 85
1, 166195, Control_c, 0, 64, 83
1, 166210, Control_c, 0, 64, 78
1, 166225, Control_c, 0, 64, 72
1, 166240, Control_c, 0, 64, 67
1, 166255, Control_c, 0, 64, 63
1, 166269, Control_c, 0, 64, 64
1, 166284, Control_c, 0, 64, 67
1, 166299, Control_c, 0, 64, 71
1, 166313, Control_c, 0, 64, 75
1, 166316, Note_on_c, 0, 69, 80
1, 166328, Control_c, 0, 64, 80
1, 166343, Control_c, 0, 64, 87
1, 166358, Control_c, 0, 64, 93
1, 166373, Control_c, 0, 64, 102
1, 166388, Control_c, 0, 64, 113
1, 166403, Control_c, 0, 64, 127
1, 166627, Note_on_c, 0, 68, 89
1, 166629, Note_off_c, 0, 69, 53
1, 166739, Note_off_c, 0, 68, 59
1, 166832, Note_on_c, 0, 67, 91
1, 166877, Note_on_c, 0, 58, 7
1, 166892, Note_on_c, 0, 50, 45
1, 166997, Note_on_c, 0, 57, 50
1, 167055, Note_off_c, 0, 58, 43
1, 167058, Note_on_c, 0, 55, 33
1, 167059, Note_off_c, 0, 50, 37
1, 167129, Note_off_c, 0, 55, 62
1, 167197, Control_c, 0, 64, 112
1, 167199, Note_on_c, 0, 65, 90
1, 167200, Note_off_c, 0, 67, 53
1, 167211, Control_c, 0, 64, 98
1, 167226, Control_c, 0, 64, 86
1, 167241, Control_c, 0, 64, 77
1, 167256, Control_c, 0, 64, 69
1, 167270, Control_c, 0, 64, 63
1, 167300, Control_c, 0, 64, 66
1, 167315, Control_c, 0, 64, 69
1, 167330, Control_c, 0, 64, 75
1, 167346, Control_c, 0, 64, 83
1, 167360, Control_c, 0, 64, 93
1, 167375, Control_c, 0, 64, 103
1, 167390, Control_c, 0, 64, 114
1, 167405, Control_c, 0, 64, 126
1, 167420, Control_c, 0, 64, 127
1, 167562, Note_on_c, 0, 81, 85
1, 167650, Note_off_c, 0, 57, 37
1, 167848, Note_on_c, 0, 62, 72
1, 167867, Note_on_c, 0, 80, 85
1, 167883, Note_off_c, 0, 65, 58
1, 167885, Note_off_c, 0, 81, 57
1, 168054, Note_on_c, 0, 57, 69
1, 168055, Note_off_c, 0, 62, 61
1, 168072, Note_on_c, 0, 79, 85
1, 168087, Note_off_c, 0, 80, 65
1, 168093, Note_off_c, 0, 57, 61
1, 168244, Note_on_c, 0, 38, 61
1, 168253, Note_on_c, 0, 78, 82
1, 168254, Note_on_c, 0, 69, 67
1, 168274, Note_off_c, 0, 79, 57
1, 168283, Note_off_c, 0, 69, 64
1, 168355, Note_off_c, 0, 78, 62
1, 168418, Note_on_c, 0, 76, 76
1, 168422, Note_on_c, 0, 45, 65
1, 168427, Note_on_c, 0, 68, 68
1, 168455, Note_off_c, 0, 68, 63
1, 168472, Note_off_c, 0, 76, 60
1, 168498, Note_off_c, 0, 38, 28
1, 168576, Note_on_c, 0, 50, 68
1, 168584, Note_on_c, 0, 67, 70
1, 168584, Note_off_c, 0, 45, 60
1, 168590, Note_on_c, 0, 74, 63
1, 168600, Note_on_c, 0, 72, 68
1, 168738, Control_c, 0, 64, 123
1, 168744, Note_on_c, 0, 45, 63
1, 168753, Control_c, 0, 64, 116
1, 168758, Note_off_c, 0, 50, 37
1, 168762, Note_on_c, 0, 66, 77
1, 168768, Control_c, 0, 64, 112
1, 168782, Control_c, 0, 64, 109
1, 168797, Control_c, 0, 64, 105
1, 168800, Poly_aftertouch_c, 0, 71, 127
1, 168812, Control_c, 0, 64, 101
1, 168827, Control_c, 0, 64, 98
1, 168835, Note_off_c, 0, 67, 55
1, 168842, Control_c, 0, 64, 95
1, 168856, Control_c, 0, 64, 93
1, 168871, Control_c, 0, 64, 92
1, 168886, Control_c, 0, 64, 91
1, 168901, Control_c, 0, 64, 90
1, 168916, Control_c, 0, 64, 89
1, 168931, Control_c, 0, 64, 88
1, 168946, Control_c, 0, 64, 88
1, 168961, Control_c, 0, 64, 87
1, 168976, Control_c, 0, 64, 85
1, 168979, Note_on_c, 0, 57, 68
1, 168983, Note_off_c, 0, 72, 12
1, 168984, Note_on_c, 0, 69, 75
1, 168989, Note_on_c, 0, 65, 56
1, 168991, Control_c, 0, 64, 83
1, 169005, Control_c, 0, 64, 82
1, 169010, Note_off_c, 0, 74, 58
1, 169020, Control_c, 0, 64, 81
1, 169035, Poly_aftertouch_c, 0, 71, 0
1, 169035, Control_c, 0, 64, 80
1, 169050, Control_c, 0, 64, 78
1, 169065, Control_c, 0, 64, 77
1, 169080, Note_off_c, 0, 66, 55
1, 169080, Control_c, 0, 64, 75
1, 169094, Control_c, 0, 64, 74
1, 169109, Control_c, 0, 64, 73
1, 169124, Control_c, 0, 64, 72
1, 169139, Control_c, 0, 64, 72
1, 169161, Control_c, 0, 64, 71
1, 169176, Control_c, 0, 64, 71
1, 169191, Control_c, 0, 64, 70
1, 169206, Control_c, 0, 64, 69
1, 169220, Control_c, 0, 64, 68
1, 169235, Control_c, 0, 64, 68
1, 169250, Control_c, 0, 64, 67
1, 169264, Note_on_c, 0, 56, 80
1, 169265, Control_c, 0, 64, 66
1, 169280, Control_c, 0, 64, 66
1, 169294, Control_c, 0, 64, 65
1, 169309, Control_c, 0, 64, 65
1, 169324, Control_c, 0, 64, 64
1, 169354, Control_c, 0, 64, 64
1, 169369, Control_c, 0, 64, 63
1, 169384, Control_c, 0, 64, 63
1, 169398, Control_c, 0, 64, 62
1, 169413, Control_c, 0, 64, 62
1, 169428, Control_c, 0, 64, 61
1, 169443, Control_c, 0, 64, 61
1, 169458, Control_c, 0, 64, 60
1, 169473, Control_c, 0, 64, 60
1, 169487, Control_c, 0, 64, 59
1, 169502, Control_c, 0, 64, 58
1, 169517, Control_c, 0, 64, 58
1, 169532, Control_c, 0, 64, 57
1, 169532, Control_c, 0, 67, 8
1, 169539, Note_on_c, 0, 64, 60
1, 169546, Control_c, 0, 64, 56
1, 169546, Control_c, 0, 67, 11
1, 169561, Control_c, 0, 64, 56
1, 169561, Control_c, 0, 67, 13
1, 169572, Note_off_c, 0, 65, 58
1, 169576, Control_c, 0, 64, 55
1, 169576, Control_c, 0, 67, 16
1, 169578, Note_off_c, 0, 57, 41
1, 169591, Control_c, 0, 64, 55
1, 169591, Control_c, 0, 67, 20
1, 169606, Control_c, 0, 64, 54
1, 169606, Control_c, 0, 67, 26
1, 169620, Control_c, 0, 67, 32
1, 169635, Control_c, 0, 64, 53
1, 169635, Control_c, 0, 67, 37
1, 169650, Control_c, 0, 64, 53
1, 169650, Control_c, 0, 67, 43
1, 169664, Control_c, 0, 64, 52
1, 169664, Control_c, 0, 67, 48
1, 169679, Control_c, 0, 64, 52
1, 169679, Control_c, 0, 67, 54
1, 169694, Control_c, 0, 64, 51
1, 169694, Control_c, 0, 67, 59
1, 169709, Control_c, 0, 64, 50
1, 169709, Control_c, 0, 67, 65
1, 169724, Control_c, 0, 64, 49
1, 169724, Control_c, 0, 67, 70
1, 169740, Control_c, 0, 64, 48
1, 169740, Control_c, 0, 67, 74
1, 169754, Control_c, 0, 64, 46
1, 169754, Control_c, 0, 67, 78
1, 169769, Control_c, 0, 64, 44
1, 169769, Control_c, 0, 67, 81
1, 169785, Control_c, 0, 64, 43
1, 169785, Control_c, 0, 67, 82
1, 169800, Control_c, 0, 64, 40
1, 169800, Control_c, 0, 67, 84
1, 169815, Control_c, 0, 64, 38
1, 169815, Control_c, 0, 67, 85
1, 169829, Control_c, 0, 64, 36
1, 169829, Control_c, 0, 67, 88
1, 169844, Control_c, 0, 64, 36
1, 169844, Control_c, 0, 67, 90
1, 169859, Control_c, 0, 64, 35
1, 169859, Control_c, 0, 67, 92
1, 169874, Control_c, 0, 67, 93
1, 169889, Control_c, 0, 64, 33
1, 169889, Control_c, 0, 67, 94
1, 169911, Control_c, 0, 67, 96
1, 169917, Note_on_c, 0, 55, 45
1, 169917, Note_off_c, 0, 64, 60
1, 169918, Note_on_c, 0, 63, 45
1, 169926, Control_c, 0, 64, 32
1, 169926, Control_c, 0, 67, 98
1, 169941, Control_c, 0, 67, 99
1, 169944, Note_off_c, 0, 56, 44
1, 169956, Control_c, 0, 64, 24
1, 169956, Control_c, 0, 67, 99
1, 169970, Control_c, 0, 64, 0
1, 169970, Control_c, 0, 67, 100
1, 169985, Control_c, 0, 67, 101
1, 170000, Control_c, 0, 67, 102
1, 170015, Control_c, 0, 67, 103
1, 170030, Control_c, 0, 67, 105
1, 170044, Control_c, 0, 67, 107
1, 170059, Control_c, 0, 67, 108
1, 170074, Control_c, 0, 67, 108
1, 170088, Control_c, 0, 64, 60
1, 170103, Control_c, 0, 64, 67
1, 170118, Control_c, 0, 64, 71
1, 170133, Control_c, 0, 64, 74
1, 170148, Control_c, 0, 64, 79
1, 170162, Control_c, 0, 64, 83
1, 170177, Control_c, 0, 64, 86
1, 170192, Control_c, 0, 64, 89
1, 170192, Control_c, 0, 67, 109
1, 170207, Control_c, 0, 64, 91
1, 170207, Control_c, 0, 67, 107
1, 170209, Note_off_c, 0, 45, 42
1, 170221, Note_off_c, 0, 55, 36
1, 170222, Control_c, 0, 64, 93
1, 170222, Control_c, 0, 67, 107
1, 170236, Control_c, 0, 64, 94
1, 170236, Control_c, 0, 67, 108
1, 170251, Control_c, 0, 67, 109
1, 170274, Note_off_c, 0, 69, 57
1, 170296, Control_c, 0, 67, 109
1, 170311, Note_off_c, 0, 63, 55
1, 170311, Control_c, 0, 64, 94
1, 170326, Control_c, 0, 64, 93
1, 170340, Control_c, 0, 64, 92
1, 170340, Control_c, 0, 67, 110
1, 170355, Control_c, 0, 64, 91
1, 170370, Control_c, 0, 64, 90
1, 170370, Control_c, 0, 67, 111
1, 170385, Control_c, 0, 64, 89
1, 170385, Control_c, 0, 67, 114
1, 170400, Control_c, 0, 64, 87
1, 170400, Control_c, 0, 67, 116
1, 170415, Control_c, 0, 64, 85
1, 170415, Control_c, 0, 67, 118
1, 170429, Control_c, 0, 64, 82
1, 170429, Control_c, 0, 67, 120
1, 170443, Note_on_c, 0, 38, 49
1, 170444, Control_c, 0, 64, 80
1, 170444, Control_c, 0, 67, 122
1, 170459, Control_c, 0, 64, 77
1, 170459, Control_c, 0, 67, 125
1, 170474, Control_c, 0, 64, 74
1, 170474, Control_c, 0, 67, 127
1, 170488, Control_c, 0, 64, 70
1, 170503, Control_c, 0, 64, 66
1, 170518, Control_c, 0, 64, 65
1, 170593, Control_c, 0, 64, 65
1, 170623, Control_c, 0, 64, 65
1, 170689, Control_c, 0, 64, 65
1, 170704, Control_c, 0, 64, 64
1, 170712, Note_on_c, 0, 62, 54
1, 170719, Note_on_c, 0, 57, 34
1, 170719, Control_c, 0, 64, 63
1, 170734, Control_c, 0, 64, 57
1, 170744, Note_on_c, 0, 55, 37
1, 170749, Control_c, 0, 64, 34
1, 170764, Control_c, 0, 64, 0
1, 170867, Control_c, 0, 64, 60
1, 170882, Control_c, 0, 64, 67
1, 170897, Control_c, 0, 64, 72
1, 170911, Control_c, 0, 64, 77
1, 170926, Control_c, 0, 64, 80
1, 170941, Control_c, 0, 64, 81
1, 170956, Control_c, 0, 64, 82
1, 171009, Note_off_c, 0, 55, 57
1, 171148, Control_c, 0, 64, 82
1, 171163, Note_off_c, 0, 62, 53
1, 171178, Control_c, 0, 64, 83
1, 171180, Note_on_c, 0, 61, 45
1, 171193, Control_c, 0, 64, 83
1, 171217, Note_on_c, 0, 54, 29
1, 171260, Note_off_c, 0, 57, 54
1, 171279, Note_off_c, 0, 54, 45
1, 171310, Note_on_c, 0, 49, 44
1, 171365, Note_off_c, 0, 61, 40
1, 171373, Note_off_c, 0, 38, 40
1, 171424, Note_on_c, 0, 56, 47
1, 171440, Note_on_c, 0, 53, 45
1, 171481, Control_c, 0, 64, 83
1, 171485, Note_off_c, 0, 53, 58
1, 171496, Control_c, 0, 64, 82
1, 171511, Control_c, 0, 64, 81
1, 171519, Note_off_c, 0, 56, 53
1, 171522, Note_on_c, 0, 38, 55
1, 171526, Control_c, 0, 64, 79
1, 171540, Control_c, 0, 64, 75
1, 171554, Note_off_c, 0, 49, 41
1, 171555, Control_c, 0, 64, 69
1, 171570, Control_c, 0, 64, 53
1, 171585, Control_c, 0, 64, 0
1, 171637, Note_on_c, 0, 62, 59
1, 171643, Note_on_c, 0, 57, 45
1, 171647, Note_on_c, 0, 55, 48
1, 171688, Control_c, 0, 64, 61
1, 171703, Control_c, 0, 64, 69
1, 171718, Control_c, 0, 64, 73
1, 171733, Control_c, 0, 64, 78
1, 171745, Note_off_c, 0, 55, 62
1, 171747, Control_c, 0, 64, 81
1, 171762, Control_c, 0, 64, 83
1, 171913, Note_on_c, 0, 61, 60
1, 171929, Note_on_c, 0, 54, 48
1, 171978, Note_off_c, 0, 57, 53
1, 171990, Note_off_c, 0, 54, 56
1, 172016, Note_off_c, 0, 62, 24
1, 172025, Note_on_c, 0, 49, 68
1, 172051, Note_off_c, 0, 61, 60
1, 172088, Control_c, 0, 67, 126
1, 172103, Control_c, 0, 64, 83
1, 172103, Control_c, 0, 67, 123
1, 172110, Note_off_c, 0, 38, 36
1, 172118, Control_c, 0, 67, 123
1, 172120, Note_on_c, 0, 56, 58
1, 172126, Note_on_c, 0, 53, 49
1, 172156, Control_c, 0, 64, 82
1, 172156, Control_c, 0, 67, 124
1, 172170, Note_off_c, 0, 53, 65
1, 172171, Control_c, 0, 64, 82
1, 172171, Control_c, 0, 67, 126
1, 172186, Control_c, 0, 67, 127
1, 172196, Note_off_c, 0, 49, 63
1, 172201, Control_c, 0, 64, 81
1, 172214, Note_off_c, 0, 56, 49
1, 172215, Control_c, 0, 64, 80
1, 172230, Control_c, 0, 64, 75
1, 172239, Note_on_c, 0, 38, 63
1, 172245, Control_c, 0, 64, 66
1, 172260, Control_c, 0, 64, 35
1, 172275, Control_c, 0, 64, 0
1, 172325, Note_on_c, 0, 61, 70
1, 172328, Note_on_c, 0, 57, 50
1, 172348, Note_on_c, 0, 54, 49
1, 172378, Control_c, 0, 64, 48
1, 172393, Control_c, 0, 64, 63
1, 172408, Control_c, 0, 64, 68
1, 172423, Control_c, 0, 64, 71
1, 172437, Control_c, 0, 64, 74
1, 172452, Control_c, 0, 64, 76
1, 172463, Note_off_c, 0, 57, 60
1, 172465, Note_off_c, 0, 54, 56
1, 172467, Control_c, 0, 64, 78
1, 172481, Control_c, 0, 64, 80
1, 172496, Control_c, 0, 64, 80
1, 172511, Note_off_c, 0, 61, 58
1, 172576, Note_on_c, 0, 60, 67
1, 172582, Poly_aftertouch_c, 0, 40, 0
1, 172595, Note_on_c, 0, 56, 46
1, 172596, Note_on_c, 0, 53, 53
1, 172630, Note_off_c, 0, 53, 64
1, 172658, Note_off_c, 0, 60, 60
1, 172670, Note_off_c, 0, 56, 40
1, 172674, Control_c, 0, 64, 80
1, 172679, Note_on_c, 0, 48, 68
1, 172689, Control_c, 0, 64, 79
1, 172702, Note_off_c, 0, 38, 60
1, 172704, Control_c, 0, 64, 78
1, 172719, Control_c, 0, 64, 78
1, 172720, Note_off_c, 0, 48, 59
1, 172734, Control_c, 0, 64, 77
1, 172748, Control_c, 0, 64, 76
1, 172763, Control_c, 0, 64, 75
1, 172764, Note_on_c, 0, 52, 50
1, 172764, Note_on_c, 0, 55, 60
1, 172779, Control_c, 0, 64, 73
1, 172792, Note_off_c, 0, 52, 57
1, 172794, Control_c, 0, 64, 72
1, 172809, Control_c, 0, 64, 70
1, 172823, Control_c, 0, 64, 68
1, 172838, Control_c, 0, 64, 65
1, 172841, Note_on_c, 0, 38, 57
1, 172853, Control_c, 0, 64, 59
1, 172868, Control_c, 0, 64, 28
1, 172876, Note_off_c, 0, 55, 36
1, 172882, Control_c, 0, 64, 0
1, 172959, Note_on_c, 0, 57, 45
1, 172971, Note_on_c, 0, 61, 60
1, 172981, Note_on_c, 0, 54, 48
1, 172994, Control_c, 0, 64, 55
1, 173009, Control_c, 0, 64, 66
1, 173024, Control_c, 0, 64, 73
1, 173039, Control_c, 0, 64, 81
1, 173053, Control_c, 0, 64, 86
1, 173098, Note_off_c, 0, 54, 58
1, 173098, Note_off_c, 0, 57, 60
1, 173113, Control_c, 0, 64, 86
1, 173113, Note_off_c, 0, 61, 56
1, 173206, Note_on_c, 0, 60, 58
1, 173216, Note_on_c, 0, 56, 49
1, 173219, Note_on_c, 0, 53, 52
1, 173263, Note_off_c, 0, 53, 58
1, 173315, Note_on_c, 0, 48, 57
1, 173320, Control_c, 0, 64, 86
1, 173330, Note_off_c, 0, 60, 48
1, 173335, Control_c, 0, 64, 85
1, 173350, Control_c, 0, 64, 85
1, 173354, Note_off_c, 0, 56, 48
1, 173355, Note_off_c, 0, 38, 36
1, 173365, Control_c, 0, 64, 84
1, 173379, Control_c, 0, 64, 83
1, 173380, Note_off_c, 0, 48, 56
1, 173394, Control_c, 0, 64, 80
1, 173409, Control_c, 0, 64, 77
1, 173417, Note_on_c, 0, 55, 56
1, 173420, Note_on_c, 0, 52, 46
1, 173424, Control_c, 0, 64, 73
1, 173439, Control_c, 0, 64, 69
1, 173453, Control_c, 0, 64, 64
1, 173464, Note_off_c, 0, 52, 59
1, 173468, Control_c, 0, 64, 55
1, 173483, Control_c, 0, 64, 37
1, 173497, Control_c, 0, 64, 26
1, 173502, Note_on_c, 0, 38, 49
1, 173517, Note_off_c, 0, 55, 50
1, 173527, Control_c, 0, 64, 24
1, 173557, Control_c, 0, 64, 23
1, 173616, Control_c, 0, 64, 24
1, 173621, Note_on_c, 0, 60, 53
1, 173629, Note_on_c, 0, 56, 36
1, 173630, Control_c, 0, 64, 30
1, 173640, Note_on_c, 0, 53, 41
1, 173652, Control_c, 0, 64, 45
1, 173667, Control_c, 0, 64, 55
1, 173682, Control_c, 0, 64, 63
1, 173697, Control_c, 0, 64, 66
1, 173712, Control_c, 0, 64, 69
1, 173727, Control_c, 0, 64, 72
1, 173742, Control_c, 0, 64, 74
1, 173757, Note_off_c, 0, 60, 57
1, 173757, Control_c, 0, 64, 76
1, 173764, Note_off_c, 0, 53, 63
1, 173772, Control_c, 0, 64, 77
1, 173782, Note_off_c, 0, 56, 54
1, 173880, Note_on_c, 0, 59, 60
1, 173896, Note_on_c, 0, 56, 30
1, 173904, Note_on_c, 0, 52, 31
1, 173924, Note_off_c, 0, 59, 52
1, 173935, Control_c, 0, 64, 77
1, 173945, Note_off_c, 0, 52, 50
1, 173980, Control_c, 0, 64, 76
1, 173995, Control_c, 0, 64, 76
1, 174005, Note_on_c, 0, 47, 45
1, 174005, Note_off_c, 0, 56, 47
1, 174009, Control_c, 0, 64, 75
1, 174024, Control_c, 0, 64, 74
1, 174032, Note_off_c, 0, 38, 43
1, 174039, Control_c, 0, 64, 73
1, 174054, Control_c, 0, 64, 71
1, 174067, Note_off_c, 0, 47, 54
1, 174069, Control_c, 0, 64, 70
1, 174083, Control_c, 0, 64, 69
1, 174098, Control_c, 0, 64, 67
1, 174113, Note_on_c, 0, 55, 43
1, 174113, Control_c, 0, 64, 65
1, 174123, Note_on_c, 0, 51, 34
1, 174127, Control_c, 0, 64, 64
1, 174142, Control_c, 0, 64, 64
1, 174157, Control_c, 0, 64, 63
1, 174172, Control_c, 0, 64, 61
1, 174177, Note_off_c, 0, 51, 47
1, 174187, Control_c, 0, 64, 57
1, 174201, Control_c, 0, 64, 45
1, 174216, Control_c, 0, 64, 11
1, 174222, Note_on_c, 0, 38, 40
1, 174231, Control_c, 0, 64, 0
1, 174250, Note_off_c, 0, 55, 56
1, 174345, Note_on_c, 0, 60, 42
1, 174347, Note_on_c, 0, 56, 14
1, 174350, Control_c, 0, 64, 27
1, 174360, Note_on_c, 0, 53, 36
1, 174365, Control_c, 0, 64, 38
1, 174380, Control_c, 0, 64, 47
1, 174401, Control_c, 0, 64, 58
1, 174416, Control_c, 0, 64, 66
1, 174431, Control_c, 0, 64, 70
1, 174446, Control_c, 0, 64, 72
1, 174460, Control_c, 0, 64, 74
1, 174475, Control_c, 0, 64, 76
1, 174490, Control_c, 0, 64, 77
1, 174491, Note_off_c, 0, 60, 56
1, 174505, Control_c, 0, 64, 78
1, 174538, Note_off_c, 0, 53, 47
1, 174610, Control_c, 0, 64, 77
1, 174624, Control_c, 0, 64, 76
1, 174639, Control_c, 0, 64, 74
1, 174654, Control_c, 0, 64, 71
1, 174669, Control_c, 0, 64, 67
1, 174674, Note_on_c, 0, 59, 42
1, 174684, Control_c, 0, 64, 64
1, 174696, Note_on_c, 0, 52, 18
1, 174699, Control_c, 0, 64, 63
1, 174713, Control_c, 0, 64, 65
1, 174728, Control_c, 0, 64, 67
1, 174743, Control_c, 0, 64, 69
1, 174758, Control_c, 0, 64, 71
1, 174773, Control_c, 0, 64, 74
1, 174788, Control_c, 0, 64, 77
1, 174803, Control_c, 0, 64, 80
1, 174818, Control_c, 0, 64, 82
1, 174832, Control_c, 0, 64, 84
1, 174836, Note_off_c, 0, 52, 52
1, 174847, Control_c, 0, 64, 86
1, 174862, Control_c, 0, 64, 88
1, 174865, Note_on_c, 0, 47, 35
1, 174876, Control_c, 0, 64, 88
1, 174891, Control_c, 0, 64, 89
1, 174906, Control_c, 0, 64, 91
1, 174921, Control_c, 0, 64, 93
1, 174928, Note_off_c, 0, 47, 51
1, 174936, Control_c, 0, 64, 94
1, 174937, Note_off_c, 0, 38, 40
1, 174950, Control_c, 0, 64, 95
1, 174995, Control_c, 0, 64, 95
1, 175010, Control_c, 0, 64, 96
1, 175022, Note_off_c, 0, 56, 39
1, 175024, Control_c, 0, 64, 97
1, 175054, Control_c, 0, 64, 97
1, 175101, Note_on_c, 0, 51, 25
1, 175107, Note_on_c, 0, 55, 36
1, 175113, Control_c, 0, 64, 98
1, 175236, Note_off_c, 0, 51, 46
1, 175415, Note_off_c, 0, 59, 36
1, 175441, Note_off_c, 0, 55, 39
1, 175447, Control_c, 0, 67, 124
1, 175462, Control_c, 0, 67, 120
1, 175477, Control_c, 0, 67, 114
1, 175492, Control_c, 0, 67, 105
1, 175506, Control_c, 0, 64, 97
1, 175506, Control_c, 0, 67, 96
1, 175521, Control_c, 0, 67, 86
1, 175536, Control_c, 0, 67, 77
1, 175551, Control_c, 0, 67, 70
1, 175566, Control_c, 0, 67, 61
1, 175581, Control_c, 0, 64, 97
1, 175581, Control_c, 0, 67, 51
1, 175596, Control_c, 0, 67, 39
1, 175611, Control_c, 0, 67, 28
1, 175626, Control_c, 0, 67, 19
1, 175640, Control_c, 0, 67, 8
1, 175655, Control_c, 0, 67, 0
1, 175744, Control_c, 0, 64, 96
1, 175759, Control_c, 0, 64, 95
1, 175774, Control_c, 0, 64, 92
1, 175789, Control_c, 0, 64, 89
1, 175804, Control_c, 0, 64, 86
1, 175819, Control_c, 0, 64, 83
1, 175822, Note_on_c, 0, 71, 77
1, 175834, Control_c, 0, 64, 79
1, 175848, Control_c, 0, 64, 77
1, 175863, Control_c, 0, 64, 78
1, 175878, Control_c, 0, 64, 84
1, 175900, Control_c, 0, 64, 94
1, 175915, Control_c, 0, 64, 111
1, 175930, Control_c, 0, 64, 127
1, 176144, Note_on_c, 0, 70, 91
1, 176161, Note_off_c, 0, 71, 63
1, 176228, Note_off_c, 0, 70, 66
1, 176329, Note_on_c, 0, 69, 93
1, 176359, Note_on_c, 0, 51, 62
1, 176424, Note_off_c, 0, 51, 64
1, 176433, Poly_aftertouch_c, 0, 71, 0
1, 176436, Note_on_c, 0, 59, 56
1, 176513, Note_on_c, 0, 63, 51
1, 176568, Control_c, 0, 64, 102
1, 176582, Control_c, 0, 64, 77
1, 176597, Control_c, 0, 64, 66
1, 176612, Control_c, 0, 64, 70
1, 176620, Note_off_c, 0, 69, 59
1, 176622, Note_on_c, 0, 68, 85
1, 176627, Control_c, 0, 64, 83
1, 176648, Control_c, 0, 64, 127
1, 176946, Note_on_c, 0, 87, 83
1, 176958, Note_off_c, 0, 59, 36
1, 176963, Note_on_c, 0, 83, 62
1, 177072, Note_off_c, 0, 63, 58
1, 177152, Note_off_c, 0, 83, 61
1, 177179, Note_off_c, 0, 87, 64
1, 177232, Note_on_c, 0, 86, 69
1, 177237, Note_on_c, 0, 82, 67
1, 177238, Note_on_c, 0, 63, 82
1, 177287, Note_off_c, 0, 68, 55
1, 177450, Note_off_c, 0, 82, 59
1, 177453, Note_on_c, 0, 59, 85
1, 177462, Note_on_c, 0, 81, 68
1, 177465, Note_off_c, 0, 63, 58
1, 177468, Note_on_c, 0, 85, 68
1, 177475, Note_off_c, 0, 86, 64
1, 177506, Note_off_c, 0, 59, 58
1, 177521, Note_off_c, 0, 85, 60
1, 177560, Note_off_c, 0, 81, 57
1, 177635, Note_on_c, 0, 83, 73
1, 177642, Note_on_c, 0, 39, 75
1, 177653, Note_on_c, 0, 80, 56
1, 177738, Note_off_c, 0, 39, 51
1, 177780, Note_off_c, 0, 80, 58
1, 177792, Note_on_c, 0, 82, 80
1, 177797, Note_off_c, 0, 83, 59
1, 177802, Note_on_c, 0, 47, 66
1, 177808, Note_on_c, 0, 74, 76
1, 177844, Note_off_c, 0, 82, 63
1, 177940, Note_on_c, 0, 51, 73
1, 177942, Note_off_c, 0, 47, 61
1, 177958, Note_on_c, 0, 75, 80
1, 177960, Note_off_c, 0, 74, 66
1, 177962, Note_on_c, 0, 73, 78
1, 178088, Note_off_c, 0, 51, 61
1, 178094, Note_on_c, 0, 56, 74
1, 178108, Note_on_c, 0, 71, 83
1, 178121, Note_off_c, 0, 73, 60
1, 178123, Note_off_c, 0, 56, 65
1, 178162, Note_on_c, 0, 57, 29
1, 178191, Note_off_c, 0, 71, 63
1, 178201, Note_off_c, 0, 57, 47
1, 178294, Note_on_c, 0, 65, 30
1, 178311, Note_on_c, 0, 71, 90
1, 178331, Note_off_c, 0, 65, 49
1, 178335, Note_on_c, 0, 68, 52
1, 178357, Note_on_c, 0, 67, 67
1, 178448, Note_off_c, 0, 68, 24
1, 178460, Note_off_c, 0, 67, 53
1, 178500, Note_on_c, 0, 57, 79
1, 178567, Note_on_c, 0, 67, 79
1, 178577, Control_c, 0, 64, 93
1, 178591, Control_c, 0, 64, 69
1, 178606, Control_c, 0, 64, 0
1, 178651, Control_c, 0, 64, 47
1, 178665, Control_c, 0, 64, 71
1, 178669, Note_off_c, 0, 71, 55
1, 178680, Control_c, 0, 64, 91
1, 178695, Control_c, 0, 64, 127
1, 178776, Note_on_c, 0, 70, 86
1, 178910, Control_c, 0, 67, 8
1, 178917, Note_off_c, 0, 70, 59
1, 178920, Note_off_c, 0, 67, 44
1, 178926, Note_off_c, 0, 57, 54
1, 178939, Control_c, 0, 67, 8
1, 178954, Control_c, 0, 67, 9
1, 178969, Control_c, 0, 67, 11
1, 178984, Control_c, 0, 67, 12
1, 178998, Control_c, 0, 67, 13
1, 179028, Control_c, 0, 67, 14
1, 179030, Note_on_c, 0, 69, 71
1, 179042, Control_c, 0, 67, 14
1, 179044, Note_on_c, 0, 58, 63
1, 179057, Control_c, 0, 67, 15
1, 179070, Note_off_c, 0, 69, 54
1, 179072, Control_c, 0, 67, 16
1, 179087, Control_c, 0, 67, 18
1, 179088, Note_on_c, 0, 66, 70
1, 179098, Note_off_c, 0, 75, 62
1, 179102, Control_c, 0, 67, 21
1, 179116, Control_c, 0, 67, 25
1, 179117, Note_off_c, 0, 58, 60
1, 179131, Control_c, 0, 67, 30
1, 179146, Control_c, 0, 67, 34
1, 179161, Control_c, 0, 67, 39
1, 179168, Note_off_c, 0, 66, 63
1, 179176, Control_c, 0, 67, 43
1, 179191, Control_c, 0, 67, 47
1, 179206, Control_c, 0, 67, 50
1, 179221, Control_c, 0, 67, 53
1, 179235, Control_c, 0, 67, 56
1, 179250, Control_c, 0, 67, 59
1, 179265, Control_c, 0, 67, 61
1, 179280, Control_c, 0, 67, 63
1, 179295, Control_c, 0, 67, 64
1, 179310, Control_c, 0, 67, 66
1, 179317, Note_on_c, 0, 40, 44
1, 179325, Control_c, 0, 67, 67
1, 179340, Control_c, 0, 67, 69
1, 179355, Control_c, 0, 67, 72
1, 179370, Control_c, 0, 67, 74
1, 179382, Note_on_c, 0, 47, 54
1, 179385, Control_c, 0, 67, 77
1, 179399, Control_c, 0, 67, 81
1, 179414, Control_c, 0, 67, 85
1, 179429, Control_c, 0, 67, 88
1, 179434, Note_on_c, 0, 55, 49
1, 179444, Control_c, 0, 67, 92
1, 179459, Control_c, 0, 67, 97
1, 179473, Control_c, 0, 67, 101
1, 179488, Control_c, 0, 67, 105
1, 179503, Control_c, 0, 67, 110
1, 179519, Control_c, 0, 67, 115
1, 179519, Note_on_c, 0, 59, 55
1, 179522, Note_on_c, 0, 52, 48
1, 179534, Control_c, 0, 67, 119
1, 179548, Control_c, 0, 67, 124
1, 179563, Control_c, 0, 67, 127
1, 179622, Control_c, 0, 64, 123
1, 179637, Control_c, 0, 64, 117
1, 179649, Note_on_c, 0, 64, 61
1, 179659, Control_c, 0, 64, 111
1, 179674, Control_c, 0, 64, 105
1, 179689, Control_c, 0, 64, 98
1, 179703, Control_c, 0, 64, 88
1, 179718, Control_c, 0, 64, 76
1, 179733, Control_c, 0, 64, 64
1, 179748, Control_c, 0, 64, 0
1, 179852, Control_c, 0, 64, 30
1, 179866, Note_on_c, 0, 67, 63
1, 179867, Control_c, 0, 64, 66
1, 179881, Control_c, 0, 64, 78
1, 179891, Note_off_c, 0, 55, 53
1, 179896, Control_c, 0, 64, 95
1, 179911, Control_c, 0, 64, 127
1, 179931, Note_off_c, 0, 40, 40
1, 179944, Note_off_c, 0, 59, 43
1, 180005, Note_off_c, 0, 67, 54
1, 180028, Note_off_c, 0, 64, 38
1, 180064, Note_off_c, 0, 47, 35
1, 180090, Note_off_c, 0, 52, 33
1, 180417, Note_on_c, 0, 95, 69
1, 180420, Note_on_c, 0, 91, 53
1, 180765, Note_off_c, 0, 95, 52
1, 180768, Note_on_c, 0, 64, 67
1, 180777, Note_on_c, 0, 94, 55
1, 180784, Note_on_c, 0, 90, 47
1, 180848, Note_off_c, 0, 91, 49
1, 180857, Note_off_c, 0, 94, 64
1, 180862, Note_off_c, 0, 90, 52
1, 181024, Note_on_c, 0, 93, 61
1, 181026, Note_on_c, 0, 59, 68
1, 181042, Note_on_c, 0, 89, 42
1, 181043, Note_off_c, 0, 64, 59
1, 181096, Note_off_c, 0, 59, 60
1, 181227, Note_off_c, 0, 93, 38
1, 181236, Note_on_c, 0, 91, 61
1, 181240, Note_off_c, 0, 89, 17
1, 181256, Note_on_c, 0, 83, 51
1, 181268, Note_on_c, 0, 28, 53
1, 181268, Note_off_c, 0, 91, 64
1, 181327, Note_off_c, 0, 83, 60
1, 181363, Note_off_c, 0, 28, 29
1, 181409, Note_on_c, 0, 40, 63
1, 181420, Note_on_c, 0, 83, 60
1, 181420, Note_on_c, 0, 82, 53
1, 181440, Note_off_c, 0, 40, 64
1, 181516, Note_off_c, 0, 82, 50
1, 181573, Note_on_c, 0, 81, 60
1, 181582, Note_on_c, 0, 47, 53
1, 181601, Control_c, 0, 67, 125
1, 181616, Control_c, 0, 67, 117
1, 181631, Control_c, 0, 67, 111
1, 181644, Note_off_c, 0, 81, 52
1, 181645, Control_c, 0, 67, 105
1, 181660, Control_c, 0, 67, 97
1, 181673, Note_off_c, 0, 47, 51
1, 181675, Control_c, 0, 67, 89
1, 181690, Control_c, 0, 67, 80
1, 181705, Control_c, 0, 67, 73
1, 181721, Control_c, 0, 67, 68
1, 181724, Note_on_c, 0, 79, 60
1, 181729, Note_off_c, 0, 83, 58
1, 181735, Control_c, 0, 67, 63
1, 181739, Note_on_c, 0, 52, 56
1, 181750, Control_c, 0, 67, 55
1, 181764, Control_c, 0, 67, 47
1, 181779, Control_c, 0, 67, 40
1, 181794, Control_c, 0, 67, 34
1, 181808, Control_c, 0, 67, 30
1, 181822, Note_off_c, 0, 79, 58
1, 181823, Control_c, 0, 67, 23
1, 181838, Control_c, 0, 67, 15
1, 181853, Control_c, 0, 67, 0
1, 181863, Note_on_c, 0, 82, 59
1, 181874, Note_on_c, 0, 78, 53
1, 181890, Note_on_c, 0, 59, 50
1, 181902, Note_off_c, 0, 78, 62
1, 181917, Note_off_c, 0, 82, 60
1, 182030, Note_on_c, 0, 81, 59
1, 182043, Note_on_c, 0, 77, 53
1, 182047, Note_off_c, 0, 59, 31
1, 182113, Note_off_c, 0, 77, 57
1, 182135, Note_off_c, 0, 81, 57
1, 182157, Control_c, 0, 64, 121
1, 182159, Note_on_c, 0, 79, 56
1, 182166, Note_on_c, 0, 47, 49
1, 182167, Note_off_c, 0, 52, 34
1, 182172, Control_c, 0, 64, 118
1, 182178, Note_on_c, 0, 71, 52
1, 182183, Note_off_c, 0, 79, 61
1, 182187, Control_c, 0, 64, 116
1, 182201, Control_c, 0, 64, 114
1, 182216, Control_c, 0, 64, 112
1, 182227, Note_off_c, 0, 71, 56
1, 182231, Control_c, 0, 64, 110
1, 182246, Control_c, 0, 64, 109
1, 182260, Control_c, 0, 64, 107
1, 182275, Control_c, 0, 64, 106
1, 182290, Control_c, 0, 64, 103
1, 182293, Note_off_c, 0, 47, 0
1, 182305, Control_c, 0, 64, 101
1, 182320, Control_c, 0, 64, 98
1, 182327, Poly_aftertouch_c, 0, 47, 0
1, 182334, Control_c, 0, 64, 96
1, 182335, Note_on_c, 0, 52, 41
1, 182342, Note_on_c, 0, 70, 45
1, 182349, Note_on_c, 0, 71, 51
1, 182349, Control_c, 0, 64, 94
1, 182364, Control_c, 0, 64, 92
1, 182379, Control_c, 0, 64, 90
1, 182393, Control_c, 0, 64, 87
1, 182408, Control_c, 0, 64, 85
1, 182423, Control_c, 0, 64, 83
1, 182438, Control_c, 0, 64, 82
1, 182453, Control_c, 0, 64, 80
1, 182467, Control_c, 0, 64, 78
1, 182481, Note_off_c, 0, 70, 56
1, 182482, Control_c, 0, 64, 76
1, 182497, Control_c, 0, 64, 74
1, 182508, Note_on_c, 0, 69, 48
1, 182514, Control_c, 0, 64, 72
1, 182529, Control_c, 0, 64, 71
1, 182544, Control_c, 0, 64, 70
1, 182558, Control_c, 0, 64, 69
1, 182573, Control_c, 0, 64, 69
1, 182618, Control_c, 0, 67, 8
1, 182640, Control_c, 0, 67, 10
1, 182655, Control_c, 0, 67, 11
1, 182669, Control_c, 0, 64, 68
1, 182669, Control_c, 0, 67, 13
1, 182672, Note_off_c, 0, 69, 53
1, 182684, Control_c, 0, 67, 15
1, 182691, Note_on_c, 0, 58, 57
1, 182696, Note_on_c, 0, 68, 49
1, 182699, Control_c, 0, 67, 17
1, 182714, Control_c, 0, 67, 19
1, 182729, Control_c, 0, 67, 21
1, 182744, Control_c, 0, 67, 24
1, 182759, Control_c, 0, 64, 68
1, 182759, Control_c, 0, 67, 26
1, 182773, Control_c, 0, 67, 28
1, 182788, Control_c, 0, 67, 30
1, 182803, Control_c, 0, 67, 32
1, 182818, Control_c, 0, 67, 35
1, 182833, Control_c, 0, 67, 37
1, 182847, Control_c, 0, 64, 67
1, 182847, Control_c, 0, 67, 39
1, 182862, Control_c, 0, 67, 41
1, 182877, Control_c, 0, 67, 44
1, 182891, Control_c, 0, 67, 46
1, 182898, Note_on_c, 0, 59, 56
1, 182906, Control_c, 0, 67, 49
1, 182921, Control_c, 0, 67, 51
1, 182936, Control_c, 0, 67, 53
1, 182941, Note_off_c, 0, 58, 47
1, 182951, Control_c, 0, 67, 55
1, 182965, Control_c, 0, 67, 57
1, 182974, Note_off_c, 0, 68, 58
1, 182980, Control_c, 0, 67, 59
1, 182995, Control_c, 0, 67, 61
1, 183003, Note_on_c, 0, 67, 51
1, 183009, Control_c, 0, 67, 62
1, 183024, Control_c, 0, 67, 64
1, 183039, Control_c, 0, 64, 67
1, 183039, Control_c, 0, 67, 65
1, 183054, Control_c, 0, 67, 67
1, 183069, Control_c, 0, 67, 69
1, 183084, Control_c, 0, 67, 70
1, 183099, Control_c, 0, 67, 72
1, 183114, Control_c, 0, 67, 73
1, 183129, Control_c, 0, 67, 74
1, 183143, Control_c, 0, 67, 76
1, 183158, Control_c, 0, 64, 66
1, 183158, Control_c, 0, 67, 77
1, 183173, Control_c, 0, 67, 79
1, 183188, Control_c, 0, 67, 82
1, 183203, Control_c, 0, 64, 66
1, 183203, Control_c, 0, 67, 84
1, 183208, Note_on_c, 0, 61, 42
1, 183217, Control_c, 0, 67, 86
1, 183232, Control_c, 0, 67, 88
1, 183234, Note_off_c, 0, 59, 51
1, 183247, Control_c, 0, 67, 89
1, 183262, Control_c, 0, 67, 91
1, 183277, Control_c, 0, 64, 65
1, 183277, Control_c, 0, 67, 92
1, 183291, Control_c, 0, 67, 94
1, 183307, Control_c, 0, 67, 95
1, 183322, Control_c, 0, 67, 96
1, 183337, Control_c, 0, 67, 97
1, 183352, Control_c, 0, 64, 65
1, 183352, Control_c, 0, 67, 99
1, 183367, Control_c, 0, 67, 101
1, 183388, Control_c, 0, 64, 64
1, 183388, Control_c, 0, 67, 102
1, 183403, Control_c, 0, 67, 103
1, 183418, Control_c, 0, 64, 64
1, 183418, Control_c, 0, 67, 104
1, 183433, Control_c, 0, 64, 63
1, 183433, Control_c, 0, 67, 106
1, 183447, Control_c, 0, 64, 62
1, 183447, Control_c, 0, 67, 108
1, 183462, Control_c, 0, 64, 60
1, 183462, Control_c, 0, 67, 110
1, 183468, Note_on_c, 0, 70, 45
1, 183470, Note_on_c, 0, 66, 29
1, 183477, Control_c, 0, 64, 59
1, 183477, Control_c, 0, 67, 111
1, 183491, Note_on_c, 0, 62, 35
1, 183492, Control_c, 0, 64, 56
1, 183492, Control_c, 0, 67, 112
1, 183507, Control_c, 0, 64, 51
1, 183507, Control_c, 0, 67, 113
1, 183522, Control_c, 0, 64, 36
1, 183522, Control_c, 0, 67, 115
1, 183537, Control_c, 0, 64, 0
1, 183537, Control_c, 0, 67, 115
1, 183542, Note_off_c, 0, 67, 37
1, 183552, Control_c, 0, 67, 116
1, 183581, Note_off_c, 0, 61, 41
1, 183590, Note_off_c, 0, 71, 54
1, 183640, Control_c, 0, 64, 46
1, 183655, Control_c, 0, 64, 64
1, 183670, Control_c, 0, 64, 67
1, 183685, Control_c, 0, 64, 69
1, 183700, Control_c, 0, 64, 70
1, 183714, Control_c, 0, 67, 116
1, 183729, Control_c, 0, 67, 115
1, 183759, Control_c, 0, 67, 115
1, 183809, Note_on_c, 0, 69, 48
1, 183818, Control_c, 0, 64, 71
1, 183818, Control_c, 0, 67, 114
1, 183830, Note_on_c, 0, 63, 39
1, 183832, Note_off_c, 0, 70, 51
1, 183832, Control_c, 0, 64, 72
1, 183835, Note_on_c, 0, 65, 33
1, 183838, Note_off_c, 0, 66, 42
1, 183847, Control_c, 0, 64, 74
1, 183862, Control_c, 0, 64, 75
1, 183877, Control_c, 0, 64, 76
1, 183877, Control_c, 0, 67, 114
1, 183884, Note_off_c, 0, 62, 37
1, 183892, Control_c, 0, 64, 78
1, 183907, Control_c, 0, 64, 80
1, 183915, Note_off_c, 0, 52, 37
1, 183921, Control_c, 0, 64, 83
1, 183921, Control_c, 0, 67, 113
1, 183936, Control_c, 0, 64, 85
1, 183951, Control_c, 0, 64, 86
1, 183951, Control_c, 0, 67, 113
1, 183966, Control_c, 0, 64, 86
1, 183981, Control_c, 0, 64, 87
1, 183981, Control_c, 0, 67, 112
1, 183996, Control_c, 0, 64, 88
1, 184027, Note_off_c, 0, 69, 59
1, 184068, Control_c, 0, 67, 112
1, 184136, Control_c, 0, 67, 111
1, 184210, Control_c, 0, 67, 111
1, 184225, Control_c, 0, 64, 88
1, 184240, Control_c, 0, 64, 87
1, 184240, Control_c, 0, 67, 110
1, 184255, Control_c, 0, 64, 87
1, 184260, Note_off_c, 0, 65, 41
1, 184269, Control_c, 0, 67, 110
1, 184284, Control_c, 0, 67, 109
1, 184299, Control_c, 0, 67, 109
1, 184314, Control_c, 0, 67, 108
1, 184329, Control_c, 0, 64, 86
1, 184329, Control_c, 0, 67, 107
1, 184343, Control_c, 0, 64, 86
1, 184343, Control_c, 0, 67, 106
1, 184358, Control_c, 0, 64, 85
1, 184358, Control_c, 0, 67, 106
1, 184373, Control_c, 0, 64, 85
1, 184373, Control_c, 0, 67, 104
1, 184388, Control_c, 0, 64, 84
1, 184388, Control_c, 0, 67, 101
1, 184403, Control_c, 0, 64, 83
1, 184403, Control_c, 0, 67, 96
1, 184417, Control_c, 0, 64, 81
1, 184417, Control_c, 0, 67, 89
1, 184426, Note_on_c, 0, 64, 28
1, 184428, Note_on_c, 0, 60, 27
1, 184429, Note_on_c, 0, 76, 71
1, 184432, Control_c, 0, 64, 77
1, 184432, Control_c, 0, 67, 81
1, 184437, Note_off_c, 0, 63, 27
1, 184440, Note_on_c, 0, 72, 43
1, 184447, Control_c, 0, 64, 71
1, 184447, Control_c, 0, 67, 73
1, 184461, Control_c, 0, 64, 64
1, 184461, Control_c, 0, 67, 66
1, 184476, Control_c, 0, 64, 43
1, 184476, Control_c, 0, 67, 57
1, 184485, Note_on_c, 0, 67, 12
1, 184491, Control_c, 0, 64, 0
1, 184491, Control_c, 0, 67, 48
1, 184506, Control_c, 0, 67, 39
1, 184521, Control_c, 0, 67, 32
1, 184536, Control_c, 0, 67, 26
1, 184550, Control_c, 0, 67, 20
1, 184565, Control_c, 0, 67, 15
1, 184580, Control_c, 0, 67, 10
1, 184595, Control_c, 0, 67, 0
1, 184610, Control_c, 0, 64, 33
1, 184625, Control_c, 0, 64, 57
1, 184640, Control_c, 0, 64, 65
1, 184654, Control_c, 0, 64, 70
1, 184669, Control_c, 0, 64, 74
1, 184684, Control_c, 0, 64, 78
1, 184699, Control_c, 0, 64, 81
1, 184714, Control_c, 0, 64, 82
1, 184728, Control_c, 0, 64, 83
1, 184743, Control_c, 0, 64, 84
1, 184758, Control_c, 0, 64, 85
1, 184764, Note_off_c, 0, 76, 58
1, 184766, Note_off_c, 0, 67, 39
1, 184773, Control_c, 0, 64, 85
1, 184802, Control_c, 0, 64, 86
1, 184809, Note_off_c, 0, 72, 55
1, 184817, Control_c, 0, 64, 86
1, 184832, Control_c, 0, 64, 87
1, 184847, Control_c, 0, 64, 88
1, 184899, Control_c, 0, 64, 88
1, 184914, Control_c, 0, 64, 89
1, 184929, Control_c, 0, 64, 90
1, 184944, Control_c, 0, 64, 90
1, 184959, Control_c, 0, 64, 91
1, 184974, Control_c, 0, 64, 91
1, 185004, Control_c, 0, 64, 92
1, 185017, Note_on_c, 0, 75, 68
1, 185018, Control_c, 0, 64, 92
1, 185021, Note_on_c, 0, 71, 49
1, 185026, Note_off_c, 0, 64, 17
1, 185029, Note_off_c, 0, 60, 38
1, 185033, Control_c, 0, 64, 93
1, 185051, Note_on_c, 0, 59, 37
1, 185057, Note_on_c, 0, 66, 38
1, 185059, Note_on_c, 0, 63, 29
1, 185085, Note_off_c, 0, 66, 52
1, 185122, Control_c, 0, 64, 92
1, 185123, Note_off_c, 0, 75, 57
1, 185137, Control_c, 0, 64, 92
1, 185166, Control_c, 0, 64, 91
1, 185179, Note_off_c, 0, 63, 31
1, 185181, Control_c, 0, 64, 90
1, 185184, Note_off_c, 0, 59, 27
1, 185189, Note_on_c, 0, 74, 70
1, 185196, Control_c, 0, 64, 90
1, 185200, Note_on_c, 0, 69, 42
1, 185206, Note_on_c, 0, 65, 45
1, 185210, Control_c, 0, 64, 89
1, 185215, Note_off_c, 0, 71, 41
1, 185216, Note_on_c, 0, 57, 36
1, 185225, Control_c, 0, 64, 88
1, 185226, Note_on_c, 0, 62, 36
1, 185240, Control_c, 0, 64, 83
1, 185255, Control_c, 0, 64, 72
1, 185270, Control_c, 0, 64, 62
1, 185284, Control_c, 0, 64, 0
1, 185329, Control_c, 0, 64, 36
1, 185344, Control_c, 0, 64, 62
1, 185358, Control_c, 0, 64, 68
1, 185373, Control_c, 0, 64, 73
1, 185388, Control_c, 0, 64, 79
1, 185403, Control_c, 0, 64, 84
1, 185418, Control_c, 0, 64, 88
1, 185433, Control_c, 0, 64, 89
1, 185439, Note_off_c, 0, 62, 46
1, 185448, Control_c, 0, 64, 89
1, 185460, Note_off_c, 0, 65, 45
1, 185463, Control_c, 0, 64, 90
1, 185486, Note_off_c, 0, 74, 57
1, 185597, Control_c, 0, 64, 89
1, 185600, Note_off_c, 0, 69, 58
1, 185605, Note_off_c, 0, 57, 33
1, 185611, Control_c, 0, 64, 86
1, 185633, Control_c, 0, 64, 77
1, 185635, Note_on_c, 0, 76, 65
1, 185637, Note_on_c, 0, 64, 27
1, 185638, Note_on_c, 0, 60, 34
1, 185648, Control_c, 0, 64, 68
1, 185658, Note_on_c, 0, 72, 40
1, 185663, Control_c, 0, 64, 56
1, 185674, Note_on_c, 0, 67, 28
1, 185678, Control_c, 0, 64, 0
1, 185738, Control_c, 0, 64, 50
1, 185753, Control_c, 0, 64, 63
1, 185768, Control_c, 0, 64, 68
1, 185782, Control_c, 0, 64, 74
1, 185797, Control_c, 0, 64, 81
1, 185799, Note_off_c, 0, 64, 44
1, 185812, Control_c, 0, 64, 89
1, 185827, Control_c, 0, 64, 99
1, 185841, Control_c, 0, 64, 105
1, 185856, Control_c, 0, 64, 111
1, 185871, Control_c, 0, 64, 121
1, 185880, Note_off_c, 0, 60, 42
1, 185886, Control_c, 0, 64, 127
1, 185892, Note_off_c, 0, 67, 42
1, 185951, Note_off_c, 0, 76, 59
1, 185954, Note_off_c, 0, 72, 38
1, 186199, Note_on_c, 0, 83, 47
1, 186201, Note_on_c, 0, 36, 40
1, 186210, Note_on_c, 0, 79, 42
1, 186429, Note_off_c, 0, 83, 52
1, 186437, Note_off_c, 0, 36, 41
1, 186463, Note_on_c, 0, 82, 53
1, 186473, Note_off_c, 0, 79, 40
1, 186481, Note_on_c, 0, 43, 33
1, 186487, Note_on_c, 0, 78, 42
1, 186515, Note_off_c, 0, 82, 56
1, 186526, Note_off_c, 0, 78, 49
1, 186574, Note_off_c, 0, 43, 30
1, 186654, Note_on_c, 0, 52, 50
1, 186671, Note_on_c, 0, 79, 50
1, 186681, Note_on_c, 0, 76, 47
1, 186733, Note_off_c, 0, 52, 46
1, 186753, Control_c, 0, 67, 8
1, 186754, Note_off_c, 0, 76, 51
1, 186768, Control_c, 0, 67, 11
1, 186783, Note_off_c, 0, 79, 50
1, 186783, Control_c, 0, 67, 13
1, 186798, Control_c, 0, 67, 17
1, 186813, Control_c, 0, 67, 22
1, 186819, Note_on_c, 0, 78, 52
1, 186828, Control_c, 0, 67, 27
1, 186829, Note_on_c, 0, 43, 47
1, 186831, Note_on_c, 0, 70, 50
1, 186843, Control_c, 0, 67, 33
1, 186851, Note_off_c, 0, 78, 58
1, 186857, Control_c, 0, 67, 37
1, 186858, Note_off_c, 0, 70, 64
1, 186872, Control_c, 0, 67, 42
1, 186887, Control_c, 0, 67, 45
1, 186902, Control_c, 0, 67, 48
1, 186917, Control_c, 0, 67, 50
1, 186931, Control_c, 0, 67, 52
1, 186946, Control_c, 0, 67, 53
1, 186961, Control_c, 0, 67, 55
1, 186975, Control_c, 0, 67, 56
1, 186988, Note_off_c, 0, 43, 43
1, 186990, Control_c, 0, 67, 57
1, 186992, Note_on_c, 0, 52, 51
1, 186996, Note_on_c, 0, 71, 51
1, 187005, Control_c, 0, 67, 58
1, 187020, Control_c, 0, 67, 60
1, 187023, Note_on_c, 0, 67, 35
1, 187035, Control_c, 0, 67, 61
1, 187049, Control_c, 0, 67, 64
1, 187064, Control_c, 0, 67, 66
1, 187079, Control_c, 0, 67, 68
1, 187094, Control_c, 0, 67, 70
1, 187109, Control_c, 0, 67, 72
1, 187131, Control_c, 0, 67, 74
1, 187146, Control_c, 0, 67, 77
1, 187161, Control_c, 0, 64, 110
1, 187161, Control_c, 0, 67, 80
1, 187176, Control_c, 0, 64, 103
1, 187176, Control_c, 0, 67, 82
1, 187186, Note_on_c, 0, 66, 48
1, 187189, Note_on_c, 0, 70, 53
1, 187190, Control_c, 0, 64, 100
1, 187190, Control_c, 0, 67, 84
1, 187193, Note_off_c, 0, 71, 39
1, 187196, Note_off_c, 0, 67, 41
1, 187205, Control_c, 0, 64, 98
1, 187205, Control_c, 0, 67, 86
1, 187220, Control_c, 0, 64, 98
1, 187220, Control_c, 0, 67, 88
1, 187235, Control_c, 0, 67, 89
1, 187242, Note_off_c, 0, 70, 57
1, 187246, Note_off_c, 0, 66, 50
1, 187250, Control_c, 0, 64, 97
1, 187250, Control_c, 0, 67, 91
1, 187264, Control_c, 0, 64, 97
1, 187264, Control_c, 0, 67, 92
1, 187279, Control_c, 0, 67, 93
1, 187294, Control_c, 0, 64, 96
1, 187294, Control_c, 0, 67, 94
1, 187310, Control_c, 0, 64, 96
1, 187310, Control_c, 0, 67, 95
1, 187325, Control_c, 0, 67, 96
1, 187340, Control_c, 0, 64, 95
1, 187340, Control_c, 0, 67, 97
1, 187354, Control_c, 0, 67, 98
1, 187369, Control_c, 0, 64, 95
1, 187369, Control_c, 0, 67, 99
1, 187384, Control_c, 0, 67, 100
1, 187396, Note_on_c, 0, 67, 49
1, 187399, Control_c, 0, 64, 94
1, 187399, Control_c, 0, 67, 101
1, 187400, Note_on_c, 0, 59, 43
1, 187408, Note_on_c, 0, 64, 43
1, 187413, Control_c, 0, 67, 102
1, 187428, Control_c, 0, 67, 103
1, 187443, Control_c, 0, 64, 94
1, 187443, Control_c, 0, 67, 105
1, 187458, Control_c, 0, 67, 106
1, 187473, Control_c, 0, 64, 93
1, 187473, Control_c, 0, 67, 107
1, 187487, Control_c, 0, 64, 93
1, 187487, Control_c, 0, 67, 109
1, 187502, Control_c, 0, 67, 110
1, 187517, Control_c, 0, 67, 111
1, 187532, Control_c, 0, 64, 92
1, 187532, Control_c, 0, 67, 113
1, 187547, Control_c, 0, 67, 115
1, 187561, Control_c, 0, 67, 117
1, 187576, Control_c, 0, 64, 92
1, 187576, Control_c, 0, 67, 118
1, 187591, Control_c, 0, 67, 119
1, 187606, Control_c, 0, 67, 122
1, 187621, Control_c, 0, 64, 91
1, 187621, Control_c, 0, 67, 124
1, 187635, Note_on_c, 0, 66, 47
1, 187636, Control_c, 0, 67, 126
1, 187640, Note_off_c, 0, 59, 36
1, 187646, Note_off_c, 0, 67, 34
1, 187651, Control_c, 0, 67, 127
1, 187658, Note_on_c, 0, 58, 48
1, 187692, Note_off_c, 0, 64, 42
1, 187708, Note_off_c, 0, 66, 56
1, 187716, Note_off_c, 0, 58, 50
1, 187725, Control_c, 0, 64, 91
1, 187828, Control_c, 0, 64, 90
1, 187838, Note_off_c, 0, 52, 39
1, 187895, Control_c, 0, 64, 90
1, 187925, Control_c, 0, 64, 89
1, 187954, Control_c, 0, 64, 89
1, 187969, Control_c, 0, 64, 88
1, 187984, Control_c, 0, 64, 88
1, 187999, Control_c, 0, 64, 87
1, 188013, Control_c, 0, 64, 86
1, 188028, Control_c, 0, 64, 84
1, 188043, Control_c, 0, 64, 82
1, 188058, Control_c, 0, 64, 80
1, 188065, Note_on_c, 0, 52, 31
1, 188073, Control_c, 0, 64, 77
1, 188077, Note_on_c, 0, 48, 26
1, 188081, Note_on_c, 0, 64, 56
1, 188087, Control_c, 0, 64, 74
1, 188097, Note_on_c, 0, 60, 30
1, 188103, Control_c, 0, 64, 69
1, 188115, Note_on_c, 0, 55, 27
1, 188118, Control_c, 0, 64, 64
1, 188133, Control_c, 0, 64, 55
1, 188148, Control_c, 0, 64, 0
1, 188399, Control_c, 0, 64, 14
1, 188414, Control_c, 0, 64, 61
1, 188429, Control_c, 0, 64, 67
1, 188443, Control_c, 0, 64, 72
1, 188458, Control_c, 0, 64, 75
1, 188461, Note_off_c, 0, 60, 43
1, 188473, Control_c, 0, 64, 77
1, 188488, Control_c, 0, 64, 80
1, 188503, Control_c, 0, 64, 82
1, 188518, Control_c, 0, 64, 84
1, 188533, Control_c, 0, 64, 84
1, 188569, Note_off_c, 0, 48, 35
1, 188667, Note_on_c, 0, 63, 49
1, 188671, Note_on_c, 0, 47, 39
1, 188673, Note_off_c, 0, 64, 53
1, 188676, Note_on_c, 0, 54, 40
1, 188693, Note_off_c, 0, 52, 35
1, 188698, Note_on_c, 0, 59, 27
1, 188703, Control_c, 0, 64, 84
1, 188710, Note_off_c, 0, 47, 62
1, 188715, Note_off_c, 0, 55, 32
1, 188718, Control_c, 0, 64, 83
1, 188740, Note_off_c, 0, 54, 48
1, 188762, Control_c, 0, 64, 83
1, 188777, Control_c, 0, 64, 82
1, 188792, Control_c, 0, 64, 81
1, 188807, Control_c, 0, 64, 81
1, 188822, Control_c, 0, 64, 80
1, 188836, Control_c, 0, 64, 79
1, 188851, Control_c, 0, 64, 78
1, 188859, Note_on_c, 0, 62, 49
1, 188866, Control_c, 0, 64, 74
1, 188879, Note_on_c, 0, 53, 37
1, 188881, Control_c, 0, 64, 70
1, 188885, Note_off_c, 0, 59, 41
1, 188887, Note_on_c, 0, 45, 35
1, 188897, Control_c, 0, 64, 65
1, 188898, Note_off_c, 0, 63, 47
1, 188911, Control_c, 0, 64, 59
1, 188926, Control_c, 0, 64, 43
1, 188941, Control_c, 0, 64, 29
1, 188956, Control_c, 0, 64, 28
1, 188971, Control_c, 0, 64, 30
1, 188986, Control_c, 0, 64, 33
1, 189001, Control_c, 0, 64, 38
1, 189015, Control_c, 0, 64, 45
1, 189030, Control_c, 0, 64, 54
1, 189045, Control_c, 0, 64, 60
1, 189059, Control_c, 0, 64, 63
1, 189074, Control_c, 0, 64, 64
1, 189089, Control_c, 0, 64, 67
1, 189104, Control_c, 0, 64, 71
1, 189119, Control_c, 0, 64, 75
1, 189133, Control_c, 0, 64, 79
1, 189148, Control_c, 0, 64, 81
1, 189163, Control_c, 0, 64, 82
1, 189178, Control_c, 0, 64, 82
1, 189193, Control_c, 0, 64, 83
1, 189251, Control_c, 0, 64, 82
1, 189266, Control_c, 0, 64, 82
1, 189281, Control_c, 0, 64, 81
1, 189296, Control_c, 0, 64, 81
1, 189326, Control_c, 0, 64, 80
1, 189341, Control_c, 0, 64, 79
1, 189356, Control_c, 0, 64, 77
1, 189356, Note_off_c, 0, 45, 43
1, 189356, Note_off_c, 0, 53, 42
1, 189360, Note_off_c, 0, 62, 52
1, 189377, Control_c, 0, 64, 73
1, 189382, Note_on_c, 0, 64, 49
1, 189392, Control_c, 0, 64, 68
1, 189395, Note_on_c, 0, 48, 35
1, 189399, Note_on_c, 0, 52, 32
1, 189407, Control_c, 0, 64, 62
1, 189409, Note_on_c, 0, 55, 22
1, 189418, Note_on_c, 0, 60, 15
1, 189422, Control_c, 0, 64, 38
1, 189437, Control_c, 0, 64, 0
1, 189510, Note_off_c, 0, 60, 0
1, 189540, Control_c, 0, 64, 45
1, 189546, Poly_aftertouch_c, 0, 60, 127
1, 189555, Control_c, 0, 64, 57
1, 189570, Control_c, 0, 64, 64
1, 189585, Control_c, 0, 64, 67
1, 189600, Control_c, 0, 64, 71
1, 189615, Control_c, 0, 64, 74
1, 189630, Control_c, 0, 64, 77
1, 189645, Control_c, 0, 64, 79
1, 189659, Control_c, 0, 64, 82
1, 189669, Note_off_c, 0, 52, 41
1, 189674, Control_c, 0, 64, 84
1, 189689, Control_c, 0, 64, 87
1, 189704, Control_c, 0, 64, 89
1, 189719, Control_c, 0, 64, 90
1, 189721, Poly_aftertouch_c, 0, 60, 0
1, 189732, Note_off_c, 0, 48, 40
1, 189734, Control_c, 0, 64, 91
1, 189749, Control_c, 0, 64, 92
1, 189755, Note_off_c, 0, 64, 35
1, 189764, Control_c, 0, 64, 94
1, 189779, Control_c, 0, 64, 95
1, 189808, Control_c, 0, 64, 96
1, 189853, Control_c, 0, 64, 96
1, 189875, Note_off_c, 0, 55, 40
1, 189942, Control_c, 0, 64, 96
1, 189998, Note_on_c, 0, 55, 42
1, 190002, Note_on_c, 0, 36, 35
1, 190012, Note_on_c, 0, 59, 47
1, 190015, Control_c, 0, 64, 95
1, 190030, Control_c, 0, 64, 95
1, 190045, Control_c, 0, 64, 94
1, 190060, Control_c, 0, 64, 94
1, 190074, Control_c, 0, 64, 93
1, 190089, Control_c, 0, 64, 93
1, 190119, Control_c, 0, 64, 92
1, 190142, Control_c, 0, 64, 92
1, 190156, Control_c, 0, 64, 91
1, 190171, Control_c, 0, 64, 90
1, 190186, Control_c, 0, 64, 89
1, 190200, Control_c, 0, 64, 88
1, 190210, Note_off_c, 0, 55, 33
1, 190215, Control_c, 0, 64, 87
1, 190230, Control_c, 0, 64, 85
1, 190245, Control_c, 0, 64, 83
1, 190260, Control_c, 0, 64, 80
1, 190273, Note_on_c, 0, 54, 32
1, 190274, Control_c, 0, 64, 78
1, 190282, Note_on_c, 0, 43, 36
1, 190282, Note_on_c, 0, 58, 50
1, 190333, Note_off_c, 0, 59, 25
1, 190363, Control_c, 0, 64, 79
1, 190378, Control_c, 0, 64, 79
1, 190402, Note_off_c, 0, 54, 32
1, 190438, Control_c, 0, 64, 78
1, 190481, Note_on_c, 0, 55, 46
1, 190487, Note_on_c, 0, 47, 36
1, 190497, Control_c, 0, 64, 79
1, 190512, Control_c, 0, 64, 80
1, 190527, Control_c, 0, 64, 80
1, 190542, Control_c, 0, 64, 81
1, 190587, Control_c, 0, 67, 126
1, 190602, Control_c, 0, 67, 125
1, 190617, Control_c, 0, 67, 123
1, 190631, Control_c, 0, 67, 119
1, 190644, Note_off_c, 0, 58, 31
1, 190646, Control_c, 0, 67, 114
1, 190652, Note_off_c, 0, 47, 45
1, 190661, Control_c, 0, 64, 81
1, 190661, Control_c, 0, 67, 109
1, 190676, Control_c, 0, 64, 82
1, 190676, Control_c, 0, 67, 104
1, 190676, Note_off_c, 0, 55, 54
1, 190682, Note_on_c, 0, 54, 44
1, 190691, Control_c, 0, 67, 98
1, 190693, Note_off_c, 0, 43, 20
1, 190703, Note_on_c, 0, 46, 26
1, 190705, Control_c, 0, 64, 82
1, 190705, Control_c, 0, 67, 92
1, 190720, Control_c, 0, 67, 84
1, 190734, Note_off_c, 0, 54, 54
1, 190735, Control_c, 0, 67, 74
1, 190749, Note_off_c, 0, 36, 0
1, 190750, Control_c, 0, 67, 66
1, 190765, Control_c, 0, 67, 60
1, 190779, Control_c, 0, 67, 56
1, 190786, Poly_aftertouch_c, 0, 36, 127
1, 190794, Control_c, 0, 64, 83
1, 190794, Control_c, 0, 67, 51
1, 190809, Control_c, 0, 67, 46
1, 190823, Control_c, 0, 67, 39
1, 190838, Control_c, 0, 67, 31
1, 190853, Control_c, 0, 67, 26
1, 190876, Control_c, 0, 67, 22
1, 190890, Note_on_c, 0, 43, 31
1, 190891, Note_off_c, 0, 46, 37
1, 190891, Control_c, 0, 67, 17
1, 190905, Control_c, 0, 67, 11
1, 190920, Control_c, 0, 67, 0
1, 190974, Note_on_c, 0, 47, 57
1, 191024, Control_c, 0, 64, 82
1, 191053, Control_c, 0, 64, 82
1, 191083, Control_c, 0, 64, 81
1, 191127, Control_c, 0, 64, 81
1, 191186, Control_c, 0, 64, 80
1, 191251, Note_on_c, 0, 42, 41
1, 191278, Poly_aftertouch_c, 0, 49, 127
1, 191290, Control_c, 0, 64, 80
1, 191306, Poly_aftertouch_c, 0, 51, 127
1, 191329, Note_off_c, 0, 43, 39
1, 191331, Poly_aftertouch_c, 0, 49, 0
1, 191335, Control_c, 0, 64, 79
1, 191365, Control_c, 0, 64, 79
1, 191380, Control_c, 0, 64, 78
1, 191382, Poly_aftertouch_c, 0, 51, 0
1, 191409, Control_c, 0, 64, 78
1, 191424, Control_c, 0, 64, 77
1, 191439, Control_c, 0, 64, 77
1, 191454, Control_c, 0, 64, 76
1, 191469, Control_c, 0, 64, 76
1, 191484, Control_c, 0, 64, 75
1, 191495, Poly_aftertouch_c, 0, 36, 0
1, 191499, Control_c, 0, 64, 75
1, 191514, Control_c, 0, 64, 74
1, 191528, Note_on_c, 0, 39, 36
1, 191528, Control_c, 0, 64, 73
1, 191662, Note_off_c, 0, 42, 43
1, 191669, Control_c, 0, 64, 73
1, 191684, Control_c, 0, 64, 72
1, 191699, Control_c, 0, 64, 71
1, 191714, Control_c, 0, 64, 70
1, 191725, Note_on_c, 0, 46, 60
1, 191728, Control_c, 0, 64, 69
1, 191743, Control_c, 0, 64, 68
1, 191758, Control_c, 0, 64, 67
1, 191760, Poly_aftertouch_c, 0, 50, 127
1, 191772, Control_c, 0, 64, 66
1, 191787, Control_c, 0, 64, 65
1, 191787, Control_c, 0, 67, 8
1, 191802, Control_c, 0, 64, 64
1, 191802, Control_c, 0, 67, 10
1, 191817, Control_c, 0, 64, 63
1, 191817, Control_c, 0, 67, 11
1, 191832, Control_c, 0, 64, 63
1, 191832, Control_c, 0, 67, 13
1, 191846, Control_c, 0, 64, 62
1, 191846, Control_c, 0, 67, 15
1, 191861, Control_c, 0, 64, 61
1, 191861, Control_c, 0, 67, 18
1, 191876, Control_c, 0, 64, 57
1, 191876, Control_c, 0, 67, 21
1, 191891, Control_c, 0, 64, 53
1, 191891, Control_c, 0, 67, 24
1, 191906, Control_c, 0, 64, 49
1, 191906, Control_c, 0, 67, 28
1, 191919, Note_off_c, 0, 47, 39
1, 191921, Control_c, 0, 64, 49
1, 191921, Control_c, 0, 67, 31
1, 191935, Control_c, 0, 67, 36
1, 191950, Control_c, 0, 64, 48
1, 191950, Control_c, 0, 67, 39
1, 191965, Control_c, 0, 64, 48
1, 191965, Control_c, 0, 67, 42
1, 191979, Control_c, 0, 67, 46
1, 191994, Control_c, 0, 67, 49
1, 192009, Control_c, 0, 67, 52
1, 192024, Control_c, 0, 67, 55
1, 192039, Control_c, 0, 64, 48
1, 192039, Control_c, 0, 67, 58
1, 192053, Control_c, 0, 64, 49
1, 192053, Control_c, 0, 67, 61
1, 192068, Control_c, 0, 67, 64
1, 192083, Control_c, 0, 64, 50
1, 192083, Control_c, 0, 67, 67
1, 192099, Control_c, 0, 64, 51
1, 192099, Control_c, 0, 67, 70
1, 192114, Control_c, 0, 64, 53
1, 192114, Control_c, 0, 67, 73
1, 192129, Control_c, 0, 64, 54
1, 192129, Control_c, 0, 67, 77
1, 192137, Note_off_c, 0, 39, 45
1, 192143, Control_c, 0, 64, 57
1, 192143, Control_c, 0, 67, 80
1, 192149, Note_on_c, 0, 40, 42
1, 192158, Control_c, 0, 64, 59
1, 192158, Control_c, 0, 67, 83
1, 192173, Control_c, 0, 64, 61
1, 192173, Control_c, 0, 67, 86
1, 192188, Control_c, 0, 64, 62
1, 192188, Control_c, 0, 67, 90
1, 192202, Control_c, 0, 64, 63
1, 192202, Control_c, 0, 67, 93
1, 192217, Control_c, 0, 64, 64
1, 192217, Control_c, 0, 67, 97
1, 192232, Control_c, 0, 64, 64
1, 192232, Control_c, 0, 67, 100
1, 192247, Control_c, 0, 64, 65
1, 192247, Control_c, 0, 67, 101
1, 192262, Control_c, 0, 64, 66
1, 192262, Control_c, 0, 67, 103
1, 192277, Control_c, 0, 64, 66
1, 192277, Control_c, 0, 67, 105
1, 192292, Control_c, 0, 64, 68
1, 192292, Control_c, 0, 67, 107
1, 192307, Control_c, 0, 64, 68
1, 192307, Control_c, 0, 67, 109
1, 192322, Control_c, 0, 64, 70
1, 192322, Control_c, 0, 67, 110
1, 192337, Control_c, 0, 64, 72
1, 192337, Control_c, 0, 67, 112
1, 192351, Control_c, 0, 64, 74
1, 192351, Control_c, 0, 67, 113
1, 192373, Control_c, 0, 64, 77
1, 192373, Control_c, 0, 67, 115
1, 192388, Control_c, 0, 64, 80
1, 192388, Control_c, 0, 67, 117
1, 192402, Control_c, 0, 64, 83
1, 192402, Control_c, 0, 67, 118
1, 192417, Control_c, 0, 64, 86
1, 192417, Control_c, 0, 67, 120
1, 192432, Control_c, 0, 64, 88
1, 192432, Control_c, 0, 67, 121
1, 192447, Control_c, 0, 64, 90
1, 192447, Control_c, 0, 67, 123
1, 192462, Control_c, 0, 64, 91
1, 192462, Control_c, 0, 67, 125
1, 192477, Control_c, 0, 64, 91
1, 192477, Control_c, 0, 67, 126
1, 192492, Control_c, 0, 67, 127
1, 192551, Control_c, 0, 64, 92
1, 192699, Control_c, 0, 64, 91
1, 192728, Control_c, 0, 64, 91
1, 192743, Control_c, 0, 64, 90
1, 192758, Control_c, 0, 64, 90
1, 192773, Control_c, 0, 64, 89
1, 192788, Control_c, 0, 64, 89
1, 192802, Control_c, 0, 64, 88
1, 192817, Control_c, 0, 64, 87
1, 192832, Control_c, 0, 64, 86
1, 192847, Control_c, 0, 64, 85
1, 192861, Note_on_c, 0, 30, 54
1, 192862, Control_c, 0, 64, 83
1, 192869, Note_off_c, 0, 40, 40
1, 192876, Control_c, 0, 64, 79
1, 192892, Control_c, 0, 64, 76
1, 192907, Control_c, 0, 64, 72
1, 192922, Control_c, 0, 64, 68
1, 192937, Control_c, 0, 64, 65
1, 192952, Control_c, 0, 64, 58
1, 192966, Control_c, 0, 64, 38
1, 192981, Control_c, 0, 64, 0
1, 193085, Control_c, 0, 64, 45
1, 193100, Control_c, 0, 64, 59
1, 193122, Control_c, 0, 64, 65
1, 193137, Control_c, 0, 64, 70
1, 193152, Control_c, 0, 64, 77
1, 193167, Control_c, 0, 64, 85
1, 193181, Control_c, 0, 64, 94
1, 193196, Control_c, 0, 64, 105
1, 193211, Control_c, 0, 64, 127
1, 193216, Note_off_c, 0, 46, 33
1, 193226, Note_off_c, 0, 30, 41
1, 193332, Poly_aftertouch_c, 0, 50, 0
1, 193461, Note_on_c, 0, 42, 47
1, 193500, Note_off_c, 0, 42, 58
1, 193771, Note_on_c, 0, 52, 32
1, 193989, Control_c, 0, 67, 126
1, 194004, Control_c, 0, 67, 123
1, 194011, Note_on_c, 0, 58, 42
1, 194019, Control_c, 0, 67, 119
1, 194034, Control_c, 0, 67, 116
1, 194048, Control_c, 0, 67, 113
1, 194063, Control_c, 0, 67, 109
1, 194078, Control_c, 0, 67, 105
1, 194093, Control_c, 0, 67, 102
1, 194101, Note_on_c, 0, 76, 81
1, 194108, Control_c, 0, 67, 99
1, 194122, Control_c, 0, 67, 95
1, 194137, Control_c, 0, 67, 92
1, 194152, Control_c, 0, 67, 89
1, 194167, Control_c, 0, 67, 85
1, 194182, Control_c, 0, 67, 81
1, 194197, Control_c, 0, 67, 76
1, 194212, Control_c, 0, 67, 70
1, 194226, Control_c, 0, 67, 63
1, 194241, Control_c, 0, 67, 57
1, 194256, Control_c, 0, 67, 51
1, 194271, Control_c, 0, 67, 44
1, 194286, Control_c, 0, 67, 35
1, 194301, Control_c, 0, 67, 25
1, 194315, Control_c, 0, 67, 14
1, 194330, Control_c, 0, 67, 0
1, 194334, Note_off_c, 0, 52, 39
1, 194389, Note_off_c, 0, 58, 38
1, 194390, Note_on_c, 0, 59, 36
1, 194542, Note_off_c, 0, 59, 50
1, 194565, Note_on_c, 0, 60, 48
1, 194706, Note_off_c, 0, 60, 38
1, 194724, Note_on_c, 0, 61, 47
1, 194791, Note_off_c, 0, 61, 53
1, 194826, Note_on_c, 0, 58, 51
1, 194942, Note_on_c, 0, 64, 34
1, 194942, Note_off_c, 0, 58, 52
1, 195031, Note_on_c, 0, 74, 85
1, 195037, Note_off_c, 0, 64, 41
1, 195136, Note_off_c, 0, 76, 50
1, 195204, Note_on_c, 0, 66, 42
1, 195234, Note_off_c, 0, 66, 53
1, 195462, Note_on_c, 0, 76, 74
1, 195496, Note_on_c, 0, 67, 35
1, 195498, Note_off_c, 0, 74, 63
1, 195666, Control_c, 0, 64, 95
1, 195681, Control_c, 0, 64, 79
1, 195695, Control_c, 0, 64, 64
1, 195710, Control_c, 0, 64, 0
1, 195729, Note_on_c, 0, 66, 42
1, 195799, Control_c, 0, 64, 66
1, 195813, Control_c, 0, 64, 74
1, 195828, Control_c, 0, 64, 88
1, 195843, Control_c, 0, 64, 106
1, 195858, Control_c, 0, 64, 127
1, 195967, Note_on_c, 0, 64, 45
1, 195974, Note_off_c, 0, 66, 57
1, 195996, Note_on_c, 0, 73, 70
1, 196036, Note_off_c, 0, 67, 61
1, 196075, Note_off_c, 0, 76, 60
1, 196130, Note_off_c, 0, 64, 55
1, 196164, Note_on_c, 0, 58, 39
1, 196226, Note_off_c, 0, 58, 59
1, 196251, Note_on_c, 0, 66, 51
1, 196344, Note_on_c, 0, 55, 55
1, 196371, Note_off_c, 0, 66, 61
1, 196384, Note_off_c, 0, 55, 60
1, 196441, Note_on_c, 0, 64, 60
1, 196442, Note_on_c, 0, 49, 52
1, 196456, Note_off_c, 0, 73, 60
1, 196507, Note_off_c, 0, 49, 54
1, 196522, Note_on_c, 0, 42, 58
1, 196559, Note_off_c, 0, 42, 60
1, 196578, Note_on_c, 0, 58, 65
1, 196621, Poly_aftertouch_c, 0, 66, 127
1, 196637, Note_off_c, 0, 58, 63
1, 196692, Note_on_c, 0, 52, 51
1, 196733, Note_on_c, 0, 71, 78
1, 196805, Note_off_c, 0, 64, 59
1, 196811, Note_on_c, 0, 59, 50
1, 196826, Poly_aftertouch_c, 0, 66, 0
1, 196857, Note_on_c, 0, 62, 60
1, 196910, Note_off_c, 0, 71, 63
1, 196948, Note_off_c, 0, 59, 29
1, 196969, Note_off_c, 0, 52, 0
1, 196988, Note_on_c, 0, 63, 51
1, 197034, Poly_aftertouch_c, 0, 52, 0
1, 197043, Control_c, 0, 64, 120
1, 197045, Note_off_c, 0, 62, 37
1, 197058, Control_c, 0, 64, 110
1, 197073, Control_c, 0, 64, 101
1, 197088, Control_c, 0, 64, 92
1, 197103, Control_c, 0, 64, 82
1, 197115, Note_on_c, 0, 73, 74
1, 197118, Control_c, 0, 64, 72
1, 197133, Control_c, 0, 64, 61
1, 197147, Control_c, 0, 64, 26
1, 197162, Control_c, 0, 64, 0
1, 197177, Control_c, 0, 64, 28
1, 197191, Control_c, 0, 64, 44
1, 197206, Control_c, 0, 64, 55
1, 197221, Control_c, 0, 64, 61
1, 197236, Control_c, 0, 64, 64
1, 197251, Control_c, 0, 64, 67
1, 197265, Control_c, 0, 64, 71
1, 197280, Control_c, 0, 64, 74
1, 197286, Note_off_c, 0, 63, 60
1, 197295, Control_c, 0, 64, 79
1, 197304, Note_on_c, 0, 64, 50
1, 197310, Control_c, 0, 64, 84
1, 197325, Control_c, 0, 64, 88
1, 197339, Control_c, 0, 64, 89
1, 197354, Control_c, 0, 64, 90
1, 197369, Control_c, 0, 64, 90
1, 197390, Note_off_c, 0, 64, 50
1, 197427, Note_on_c, 0, 61, 44
1, 197431, Note_on_c, 0, 70, 68
1, 197526, Note_off_c, 0, 61, 0
1, 197543, Note_on_c, 0, 54, 48
1, 197595, Poly_aftertouch_c, 0, 61, 0
1, 197653, Note_off_c, 0, 54, 57
1, 197658, Control_c, 0, 64, 90
1, 197678, Note_off_c, 0, 73, 35
1, 197687, Control_c, 0, 64, 89
1, 197708, Note_on_c, 0, 67, 48
1, 197718, Control_c, 0, 64, 89
1, 197733, Control_c, 0, 64, 88
1, 197747, Control_c, 0, 64, 88
1, 197777, Control_c, 0, 64, 87
1, 197792, Control_c, 0, 64, 87
1, 197807, Control_c, 0, 64, 86
1, 197821, Control_c, 0, 64, 85
1, 197836, Control_c, 0, 64, 85
1, 197840, Note_on_c, 0, 64, 56
1, 197851, Control_c, 0, 64, 84
1, 197851, Control_c, 0, 67, 8
1, 197858, Note_off_c, 0, 67, 35
1, 197866, Control_c, 0, 64, 84
1, 197866, Control_c, 0, 67, 10
1, 197881, Control_c, 0, 64, 83
1, 197881, Control_c, 0, 67, 12
1, 197896, Control_c, 0, 64, 83
1, 197896, Control_c, 0, 67, 14
1, 197911, Control_c, 0, 64, 82
1, 197911, Control_c, 0, 67, 16
1, 197926, Control_c, 0, 64, 81
1, 197926, Control_c, 0, 67, 19
1, 197940, Control_c, 0, 64, 80
1, 197940, Control_c, 0, 67, 23
1, 197955, Control_c, 0, 64, 79
1, 197955, Control_c, 0, 67, 26
1, 197970, Control_c, 0, 64, 79
1, 197970, Control_c, 0, 67, 28
1, 197985, Control_c, 0, 64, 78
1, 197985, Control_c, 0, 67, 31
1, 198000, Control_c, 0, 64, 77
1, 198000, Control_c, 0, 67, 33
1, 198015, Control_c, 0, 64, 76
1, 198015, Control_c, 0, 67, 37
1, 198029, Control_c, 0, 64, 75
1, 198029, Control_c, 0, 67, 40
1, 198044, Control_c, 0, 64, 73
1, 198044, Control_c, 0, 67, 42
1, 198059, Control_c, 0, 64, 71
1, 198059, Control_c, 0, 67, 45
1, 198074, Control_c, 0, 64, 69
1, 198074, Control_c, 0, 67, 48
1, 198088, Control_c, 0, 64, 68
1, 198088, Control_c, 0, 67, 51
1, 198092, Note_on_c, 0, 65, 66
1, 198103, Control_c, 0, 64, 68
1, 198103, Control_c, 0, 67, 54
1, 198118, Control_c, 0, 67, 57
1, 198132, Control_c, 0, 64, 67
1, 198132, Control_c, 0, 67, 59
1, 198147, Control_c, 0, 64, 67
1, 198147, Control_c, 0, 67, 61
1, 198162, Control_c, 0, 64, 66
1, 198162, Control_c, 0, 67, 63
1, 198177, Control_c, 0, 64, 65
1, 198177, Control_c, 0, 67, 65
1, 198192, Control_c, 0, 64, 64
1, 198192, Control_c, 0, 67, 68
1, 198206, Control_c, 0, 64, 63
1, 198206, Control_c, 0, 67, 70
1, 198213, Note_off_c, 0, 70, 58
1, 198221, Control_c, 0, 67, 73
1, 198237, Control_c, 0, 67, 74
1, 198252, Control_c, 0, 67, 77
1, 198267, Control_c, 0, 64, 62
1, 198267, Control_c, 0, 67, 79
1, 198281, Control_c, 0, 67, 81
1, 198296, Control_c, 0, 67, 83
1, 198311, Control_c, 0, 67, 84
1, 198326, Control_c, 0, 67, 85
1, 198340, Control_c, 0, 67, 86
1, 198363, Control_c, 0, 67, 87
1, 198378, Control_c, 0, 67, 88
1, 198393, Control_c, 0, 67, 89
1, 198408, Control_c, 0, 64, 63
1, 198408, Control_c, 0, 67, 90
1, 198422, Control_c, 0, 64, 63
1, 198422, Control_c, 0, 67, 91
1, 198432, Note_on_c, 0, 73, 40
1, 198437, Control_c, 0, 64, 64
1, 198437, Control_c, 0, 67, 91
1, 198452, Control_c, 0, 64, 64
1, 198452, Control_c, 0, 67, 92
1, 198467, Control_c, 0, 64, 65
1, 198467, Control_c, 0, 67, 92
1, 198482, Control_c, 0, 64, 65
1, 198482, Control_c, 0, 67, 93
1, 198498, Control_c, 0, 64, 67
1, 198498, Control_c, 0, 67, 93
1, 198507, Note_on_c, 0, 70, 42
1, 198512, Control_c, 0, 64, 68
1, 198527, Control_c, 0, 64, 70
1, 198542, Control_c, 0, 64, 72
1, 198557, Control_c, 0, 64, 73
1, 198571, Control_c, 0, 64, 76
1, 198586, Control_c, 0, 64, 79
1, 198601, Control_c, 0, 64, 82
1, 198616, Control_c, 0, 64, 84
1, 198631, Control_c, 0, 64, 84
1, 198634, Note_on_c, 0, 66, 45
1, 198638, Note_off_c, 0, 64, 34
1, 198645, Control_c, 0, 64, 85
1, 198660, Control_c, 0, 64, 87
1, 198675, Control_c, 0, 64, 88
1, 198708, Note_on_c, 0, 67, 42
1, 198734, Note_off_c, 0, 65, 48
1, 198749, Control_c, 0, 67, 94
1, 198762, Note_off_c, 0, 67, 56
1, 198778, Control_c, 0, 64, 87
1, 198793, Note_on_c, 0, 63, 56
1, 198793, Control_c, 0, 67, 94
1, 198808, Control_c, 0, 64, 87
1, 198823, Control_c, 0, 64, 86
1, 198823, Control_c, 0, 67, 95
1, 198838, Control_c, 0, 64, 85
1, 198853, Control_c, 0, 64, 84
1, 198868, Note_off_c, 0, 63, 0
1, 198868, Control_c, 0, 64, 83
1, 198868, Control_c, 0, 67, 95
1, 198883, Control_c, 0, 64, 81
1, 198883, Control_c, 0, 67, 97
1, 198893, Note_off_c, 0, 73, 44
1, 198897, Control_c, 0, 64, 78
1, 198897, Control_c, 0, 67, 99
1, 198901, Note_off_c, 0, 70, 53
1, 198903, Note_on_c, 0, 64, 59
1, 198905, Poly_aftertouch_c, 0, 63, 127
1, 198912, Control_c, 0, 64, 74
1, 198912, Control_c, 0, 67, 102
1, 198927, Control_c, 0, 64, 69
1, 198927, Control_c, 0, 67, 105
1, 198942, Control_c, 0, 64, 63
1, 198942, Control_c, 0, 67, 107
1, 198956, Control_c, 0, 64, 57
1, 198956, Control_c, 0, 67, 110
1, 198966, Note_off_c, 0, 66, 50
1, 198971, Control_c, 0, 64, 53
1, 198971, Control_c, 0, 67, 113
1, 198985, Control_c, 0, 64, 53
1, 198985, Control_c, 0, 67, 115
1, 199000, Control_c, 0, 64, 53
1, 199000, Control_c, 0, 67, 117
1, 199015, Control_c, 0, 67, 119
1, 199024, Note_on_c, 0, 73, 42
1, 199025, Poly_aftertouch_c, 0, 63, 0
1, 199029, Control_c, 0, 64, 54
1, 199029, Control_c, 0, 67, 121
1, 199044, Control_c, 0, 67, 122
1, 199059, Control_c, 0, 64, 55
1, 199059, Control_c, 0, 67, 123
1, 199074, Control_c, 0, 64, 56
1, 199074, Control_c, 0, 67, 124
1, 199088, Control_c, 0, 64, 57
1, 199088, Control_c, 0, 67, 125
1, 199111, Control_c, 0, 64, 60
1, 199126, Control_c, 0, 64, 62
1, 199126, Control_c, 0, 67, 125
1, 199141, Control_c, 0, 64, 63
1, 199142, Note_on_c, 0, 70, 44
1, 199156, Control_c, 0, 64, 64
1, 199170, Control_c, 0, 64, 65
1, 199185, Control_c, 0, 64, 67
1, 199200, Control_c, 0, 64, 69
1, 199215, Control_c, 0, 64, 71
1, 199227, Note_on_c, 0, 66, 37
1, 199230, Control_c, 0, 64, 73
1, 199244, Control_c, 0, 64, 74
1, 199259, Control_c, 0, 64, 76
1, 199274, Control_c, 0, 64, 77
1, 199290, Control_c, 0, 64, 79
1, 199305, Control_c, 0, 64, 80
1, 199320, Note_off_c, 0, 64, 54
1, 199320, Control_c, 0, 64, 81
1, 199335, Note_on_c, 0, 67, 42
1, 199379, Control_c, 0, 67, 126
1, 199387, Note_off_c, 0, 67, 55
1, 199408, Control_c, 0, 64, 81
1, 199423, Control_c, 0, 64, 80
1, 199423, Control_c, 0, 67, 126
1, 199436, Note_on_c, 0, 62, 37
1, 199453, Control_c, 0, 64, 80
1, 199453, Control_c, 0, 67, 127
1, 199467, Control_c, 0, 64, 79
1, 199482, Control_c, 0, 64, 79
1, 199497, Control_c, 0, 64, 78
1, 199512, Control_c, 0, 64, 77
1, 199512, Control_c, 0, 67, 127
1, 199527, Control_c, 0, 64, 75
1, 199532, Note_off_c, 0, 73, 8
1, 199541, Control_c, 0, 64, 73
1, 199547, Note_on_c, 0, 63, 53
1, 199556, Control_c, 0, 64, 72
1, 199571, Control_c, 0, 64, 70
1, 199586, Control_c, 0, 64, 68
1, 199594, Note_off_c, 0, 70, 46
1, 199601, Control_c, 0, 64, 66
1, 199607, Note_off_c, 0, 66, 37
1, 199616, Control_c, 0, 64, 65
1, 199631, Control_c, 0, 64, 63
1, 199646, Control_c, 0, 64, 62
1, 199660, Control_c, 0, 64, 59
1, 199675, Control_c, 0, 64, 56
1, 199690, Control_c, 0, 64, 52
1, 199701, Note_on_c, 0, 73, 57
1, 199704, Control_c, 0, 64, 47
1, 199719, Control_c, 0, 64, 45
1, 199734, Control_c, 0, 64, 45
1, 199749, Control_c, 0, 64, 44
1, 199778, Control_c, 0, 64, 45
1, 199793, Control_c, 0, 64, 47
1, 199798, Note_off_c, 0, 62, 31
1, 199808, Control_c, 0, 64, 50
1, 199821, Note_on_c, 0, 70, 44
1, 199823, Control_c, 0, 64, 53
1, 199838, Control_c, 0, 64, 57
1, 199860, Control_c, 0, 64, 60
1, 199875, Control_c, 0, 64, 62
1, 199890, Control_c, 0, 64, 63
1, 199905, Control_c, 0, 64, 64
1, 199913, Note_off_c, 0, 73, 38
1, 199919, Control_c, 0, 64, 64
1, 199934, Control_c, 0, 64, 66
1, 199949, Control_c, 0, 64, 67
1, 199961, Note_on_c, 0, 66, 35
1, 199964, Control_c, 0, 64, 68
1, 199979, Control_c, 0, 64, 69
1, 199993, Control_c, 0, 64, 71
1, 200008, Control_c, 0, 64, 73
1, 200023, Control_c, 0, 64, 75
1, 200038, Control_c, 0, 64, 77
1, 200053, Control_c, 0, 64, 79
1, 200066, Note_on_c, 0, 67, 38
1, 200067, Control_c, 0, 64, 80
1, 200083, Control_c, 0, 64, 82
1, 200098, Control_c, 0, 64, 83
1, 200113, Control_c, 0, 64, 84
1, 200157, Control_c, 0, 64, 85
1, 200172, Control_c, 0, 64, 85
1, 200187, Control_c, 0, 64, 86
1, 200196, Note_off_c, 0, 67, 27
1, 200202, Control_c, 0, 64, 87
1, 200233, Note_on_c, 0, 61, 33
1, 200364, Control_c, 0, 64, 86
1, 200379, Control_c, 0, 64, 85
1, 200394, Control_c, 0, 64, 85
1, 200396, Note_off_c, 0, 61, 40
1, 200409, Control_c, 0, 64, 84
1, 200412, Note_off_c, 0, 63, 36
1, 200424, Control_c, 0, 64, 84
1, 200439, Control_c, 0, 64, 83
1, 200454, Control_c, 0, 64, 82
1, 200468, Control_c, 0, 64, 81
1, 200471, Note_on_c, 0, 62, 42
1, 200483, Control_c, 0, 64, 80
1, 200498, Control_c, 0, 64, 79
1, 200513, Control_c, 0, 64, 78
1, 200527, Control_c, 0, 64, 77
1, 200542, Control_c, 0, 64, 76
1, 200557, Control_c, 0, 64, 74
1, 200572, Control_c, 0, 64, 73
1, 200587, Control_c, 0, 64, 73
1, 200596, Note_off_c, 0, 66, 41
1, 200609, Control_c, 0, 64, 72
1, 200623, Control_c, 0, 64, 72
1, 200638, Control_c, 0, 64, 71
1, 200653, Control_c, 0, 64, 71
1, 200668, Control_c, 0, 64, 70
1, 200683, Control_c, 0, 64, 69
1, 200689, Note_off_c, 0, 70, 33
1, 200698, Control_c, 0, 64, 67
1, 200713, Control_c, 0, 64, 65
1, 200728, Control_c, 0, 64, 64
1, 200742, Control_c, 0, 64, 62
1, 200757, Control_c, 0, 64, 57
1, 200761, Note_on_c, 0, 42, 32
1, 200772, Control_c, 0, 64, 50
1, 200787, Control_c, 0, 64, 42
1, 200802, Control_c, 0, 64, 34
1, 200816, Control_c, 0, 64, 33
1, 200846, Control_c, 0, 64, 38
1, 200861, Control_c, 0, 64, 47
1, 200876, Control_c, 0, 64, 56
1, 200892, Control_c, 0, 64, 62
1, 200906, Control_c, 0, 64, 64
1, 200921, Control_c, 0, 64, 66
1, 200936, Control_c, 0, 64, 69
1, 200951, Control_c, 0, 64, 73
1, 200965, Control_c, 0, 64, 76
1, 200980, Control_c, 0, 64, 80
1, 200995, Control_c, 0, 64, 83
1, 201010, Control_c, 0, 64, 85
1, 201019, Note_on_c, 0, 50, 41
1, 201025, Control_c, 0, 64, 87
1, 201028, Note_off_c, 0, 42, 52
1, 201039, Control_c, 0, 64, 90
1, 201054, Control_c, 0, 64, 93
1, 201069, Control_c, 0, 64, 96
1, 201084, Control_c, 0, 64, 99
1, 201099, Control_c, 0, 64, 102
1, 201101, Note_off_c, 0, 50, 48
1, 201113, Control_c, 0, 64, 105
1, 201128, Control_c, 0, 64, 109
1, 201143, Control_c, 0, 64, 113
1, 201157, Control_c, 0, 64, 119
1, 201172, Control_c, 0, 64, 127
1, 201227, Note_on_c, 0, 59, 41
1, 201285, Note_off_c, 0, 59, 51
1, 201334, Note_off_c, 0, 62, 34
1, 201360, Note_on_c, 0, 74, 47
1, 201382, Note_on_c, 0, 71, 37
1, 201398, Note_off_c, 0, 74, 52
1, 201451, Note_off_c, 0, 71, 48
1, 201527, Note_on_c, 0, 69, 49
1, 201539, Note_on_c, 0, 66, 35
1, 201642, Note_on_c, 0, 50, 35
1, 201685, Control_c, 0, 64, 104
1, 201700, Control_c, 0, 64, 81
1, 201715, Control_c, 0, 64, 59
1, 201729, Control_c, 0, 64, 0
1, 201777, Note_on_c, 0, 59, 36
1, 201804, Control_c, 0, 64, 60
1, 201818, Note_off_c, 0, 69, 57
1, 201819, Control_c, 0, 64, 70
1, 201834, Control_c, 0, 64, 82
1, 201849, Control_c, 0, 64, 97
1, 201863, Control_c, 0, 64, 115
1, 201878, Control_c, 0, 64, 127
1, 201882, Note_on_c, 0, 62, 49
1, 201893, Note_off_c, 0, 59, 37
1, 201920, Note_off_c, 0, 50, 0
1, 201923, Note_on_c, 0, 73, 59
1, 201926, Note_off_c, 0, 62, 56
1, 201932, Note_off_c, 0, 66, 50
1, 201953, Note_on_c, 0, 69, 51
1, 201957, Poly_aftertouch_c, 0, 50, 127
1, 202010, Note_off_c, 0, 73, 57
1, 202026, Control_c, 0, 64, 124
1, 202041, Control_c, 0, 64, 113
1, 202055, Control_c, 0, 64, 104
1, 202060, Note_on_c, 0, 67, 57
1, 202068, Note_on_c, 0, 64, 51
1, 202070, Control_c, 0, 64, 95
1, 202075, Note_off_c, 0, 69, 31
1, 202085, Control_c, 0, 64, 85
1, 202100, Control_c, 0, 64, 78
1, 202122, Control_c, 0, 64, 73
1, 202130, Poly_aftertouch_c, 0, 50, 0
1, 202137, Control_c, 0, 64, 71
1, 202152, Control_c, 0, 64, 73
1, 202167, Control_c, 0, 64, 75
1, 202181, Control_c, 0, 64, 80
1, 202187, Note_on_c, 0, 59, 29
1, 202196, Control_c, 0, 64, 85
1, 202211, Control_c, 0, 64, 91
1, 202225, Note_off_c, 0, 59, 45
1, 202226, Control_c, 0, 64, 95
1, 202226, Control_c, 0, 67, 125
1, 202241, Control_c, 0, 64, 100
1, 202241, Control_c, 0, 67, 119
1, 202256, Control_c, 0, 64, 104
1, 202256, Control_c, 0, 67, 112
1, 202260, Note_off_c, 0, 67, 60
1, 202260, Note_on_c, 0, 50, 48
1, 202270, Control_c, 0, 64, 108
1, 202270, Control_c, 0, 67, 103
1, 202285, Control_c, 0, 64, 109
1, 202285, Control_c, 0, 67, 88
1, 202300, Control_c, 0, 67, 70
1, 202314, Control_c, 0, 67, 49
1, 202329, Control_c, 0, 67, 37
1, 202330, Note_off_c, 0, 64, 58
1, 202334, Note_off_c, 0, 50, 56
1, 202344, Control_c, 0, 67, 31
1, 202359, Control_c, 0, 67, 29
1, 202374, Control_c, 0, 67, 28
1, 202388, Note_on_c, 0, 42, 52
1, 202388, Control_c, 0, 67, 27
1, 202391, Note_on_c, 0, 71, 66
1, 202393, Note_on_c, 0, 67, 53
1, 202425, Note_off_c, 0, 67, 65
1, 202463, Note_off_c, 0, 71, 59
1, 202463, Control_c, 0, 64, 108
1, 202478, Control_c, 0, 64, 107
1, 202493, Control_c, 0, 64, 106
1, 202507, Note_on_c, 0, 66, 57
1, 202508, Control_c, 0, 64, 104
1, 202516, Note_off_c, 0, 42, 33
1, 202517, Note_on_c, 0, 62, 47
1, 202523, Control_c, 0, 64, 104
1, 202534, Note_off_c, 0, 66, 65
1, 202537, Control_c, 0, 64, 103
1, 202552, Control_c, 0, 64, 102
1, 202567, Control_c, 0, 64, 100
1, 202580, Note_off_c, 0, 62, 46
1, 202582, Control_c, 0, 64, 100
1, 202597, Control_c, 0, 64, 99
1, 202600, Note_on_c, 0, 50, 46
1, 202612, Control_c, 0, 64, 98
1, 202617, Note_on_c, 0, 66, 57
1, 202627, Control_c, 0, 64, 96
1, 202632, Note_on_c, 0, 69, 59
1, 202642, Control_c, 0, 64, 92
1, 202642, Control_c, 0, 67, 27
1, 202656, Control_c, 0, 64, 87
1, 202671, Control_c, 0, 64, 82
1, 202686, Control_c, 0, 64, 76
1, 202701, Control_c, 0, 64, 70
1, 202716, Control_c, 0, 64, 65
1, 202729, Control_c, 0, 64, 63
1, 202740, Note_off_c, 0, 66, 36
1, 202744, Control_c, 0, 64, 64
1, 202759, Control_c, 0, 64, 66
1, 202774, Control_c, 0, 64, 67
1, 202784, Note_off_c, 0, 69, 57
1, 202789, Control_c, 0, 64, 69
1, 202802, Note_on_c, 0, 64, 57
1, 202803, Control_c, 0, 64, 70
1, 202811, Note_on_c, 0, 58, 51
1, 202818, Control_c, 0, 64, 73
1, 202820, Note_on_c, 0, 61, 51
1, 202820, Note_off_c, 0, 50, 54
1, 202833, Control_c, 0, 64, 75
1, 202856, Control_c, 0, 64, 79
1, 202871, Control_c, 0, 64, 82
1, 202885, Control_c, 0, 64, 84
1, 202885, Control_c, 0, 67, 26
1, 202900, Control_c, 0, 64, 87
1, 202915, Control_c, 0, 64, 90
1, 202929, Control_c, 0, 64, 92
1, 202929, Control_c, 0, 67, 26
1, 202934, Note_off_c, 0, 58, 60
1, 202944, Control_c, 0, 64, 94
1, 202944, Control_c, 0, 67, 25
1, 202955, Note_on_c, 0, 50, 51
1, 202959, Control_c, 0, 64, 94
1, 202959, Control_c, 0, 67, 24
1, 202974, Control_c, 0, 67, 21
1, 202989, Control_c, 0, 67, 19
1, 203003, Control_c, 0, 67, 17
1, 203008, Note_off_c, 0, 64, 64
1, 203008, Note_off_c, 0, 61, 61
1, 203018, Control_c, 0, 67, 15
1, 203020, Note_off_c, 0, 50, 54
1, 203033, Control_c, 0, 67, 12
1, 203045, Note_on_c, 0, 42, 57
1, 203048, Control_c, 0, 67, 11
1, 203063, Control_c, 0, 67, 10
1, 203092, Control_c, 0, 67, 9
1, 203094, Note_off_c, 0, 42, 59
1, 203122, Control_c, 0, 67, 8
1, 203130, Note_on_c, 0, 50, 62
1, 203136, Control_c, 0, 64, 94
1, 203136, Control_c, 0, 67, 0
1, 203139, Note_on_c, 0, 64, 59
1, 203145, Note_on_c, 0, 67, 61
1, 203151, Control_c, 0, 64, 92
1, 203166, Control_c, 0, 64, 90
1, 203181, Control_c, 0, 64, 86
1, 203184, Note_off_c, 0, 64, 56
1, 203196, Control_c, 0, 64, 78
1, 203204, Note_off_c, 0, 50, 59
1, 203211, Control_c, 0, 64, 69
1, 203226, Note_on_c, 0, 57, 58
1, 203226, Control_c, 0, 64, 46
1, 203236, Note_off_c, 0, 67, 50
1, 203238, Note_on_c, 0, 62, 64
1, 203241, Control_c, 0, 64, 0
1, 203246, Note_on_c, 0, 59, 62
1, 203270, Control_c, 0, 64, 47
1, 203286, Control_c, 0, 64, 61
1, 203289, Note_off_c, 0, 57, 56
1, 203300, Control_c, 0, 64, 66
1, 203315, Control_c, 0, 64, 73
1, 203318, Note_on_c, 0, 50, 58
1, 203330, Control_c, 0, 64, 81
1, 203345, Control_c, 0, 64, 88
1, 203360, Control_c, 0, 64, 94
1, 203375, Control_c, 0, 64, 97
1, 203376, Note_off_c, 0, 59, 60
1, 203384, Note_off_c, 0, 62, 61
1, 203390, Control_c, 0, 64, 100
1, 203404, Note_off_c, 0, 50, 58
1, 203405, Note_on_c, 0, 42, 69
1, 203405, Control_c, 0, 64, 103
1, 203420, Control_c, 0, 64, 106
1, 203434, Control_c, 0, 64, 108
1, 203464, Control_c, 0, 64, 105
1, 203476, Note_off_c, 0, 42, 62
1, 203479, Control_c, 0, 64, 96
1, 203491, Note_on_c, 0, 66, 69
1, 203494, Control_c, 0, 64, 83
1, 203497, Note_on_c, 0, 50, 66
1, 203503, Note_on_c, 0, 62, 55
1, 203508, Control_c, 0, 64, 71
1, 203523, Control_c, 0, 64, 66
1, 203538, Control_c, 0, 64, 69
1, 203552, Control_c, 0, 64, 75
1, 203567, Control_c, 0, 64, 86
1, 203575, Note_on_c, 0, 61, 72
1, 203575, Note_on_c, 0, 55, 70
1, 203575, Note_off_c, 0, 50, 61
1, 203582, Note_off_c, 0, 66, 51
1, 203582, Control_c, 0, 64, 103
1, 203583, Note_on_c, 0, 58, 67
1, 203604, Note_off_c, 0, 62, 58
1, 203604, Control_c, 0, 64, 127
1, 203619, Note_off_c, 0, 58, 66
1, 203644, Note_off_c, 0, 55, 58
1, 203652, Note_off_c, 0, 61, 59
1, 203671, Note_on_c, 0, 50, 62
1, 203683, Note_on_c, 0, 64, 68
1, 203712, Note_off_c, 0, 50, 60
1, 203752, Control_c, 0, 64, 110
1, 203767, Control_c, 0, 64, 86
1, 203780, Note_off_c, 0, 64, 57
1, 203782, Control_c, 0, 64, 67
1, 203786, Note_on_c, 0, 43, 52
1, 203797, Control_c, 0, 64, 0
1, 203829, Note_on_c, 0, 53, 60
1, 203829, Note_on_c, 0, 59, 61
1, 203841, Control_c, 0, 67, 8
1, 203856, Control_c, 0, 67, 9
1, 203859, Note_off_c, 0, 53, 67
1, 203871, Control_c, 0, 64, 63
1, 203871, Control_c, 0, 67, 10
1, 203885, Control_c, 0, 64, 77
1, 203885, Control_c, 0, 67, 11
1, 203900, Control_c, 0, 64, 93
1, 203900, Control_c, 0, 67, 12
1, 203906, Note_off_c, 0, 59, 62
1, 203908, Note_on_c, 0, 50, 57
1, 203915, Control_c, 0, 64, 118
1, 203921, Note_off_c, 0, 43, 62
1, 203930, Control_c, 0, 64, 127
1, 203930, Control_c, 0, 67, 12
1, 203945, Control_c, 0, 67, 13
1, 203953, Note_off_c, 0, 50, 64
1, 203959, Control_c, 0, 67, 15
1, 203960, Note_on_c, 0, 53, 50
1, 203974, Control_c, 0, 67, 17
1, 203989, Control_c, 0, 67, 20
1, 203993, Note_off_c, 0, 53, 63
1, 204004, Control_c, 0, 67, 24
1, 204019, Control_c, 0, 67, 27
1, 204034, Control_c, 0, 67, 29
1, 204048, Control_c, 0, 67, 29
1, 204085, Note_on_c, 0, 59, 51
1, 204110, Note_on_c, 0, 62, 70
1, 204115, Note_off_c, 0, 59, 55
1, 204124, Control_c, 0, 67, 29
1, 204138, Control_c, 0, 67, 28
1, 204153, Control_c, 0, 67, 28
1, 204168, Control_c, 0, 67, 27
1, 204171, Note_on_c, 0, 64, 46
1, 204174, Note_off_c, 0, 62, 58
1, 204198, Note_off_c, 0, 64, 60
1, 204202, Note_on_c, 0, 65, 59
1, 204212, Control_c, 0, 64, 100
1, 204223, Note_off_c, 0, 65, 63
1, 204227, Control_c, 0, 64, 68
1, 204239, Note_on_c, 0, 67, 69
1, 204242, Note_on_c, 0, 89, 83
1, 204242, Control_c, 0, 64, 0
1, 204242, Control_c, 0, 67, 27
1, 204254, Note_on_c, 0, 81, 66
1, 204257, Control_c, 0, 67, 27
1, 204267, Note_off_c, 0, 67, 61
1, 204272, Note_off_c, 0, 81, 62
1, 204296, Note_on_c, 0, 88, 74
1, 204306, Note_off_c, 0, 89, 60
1, 204343, Note_on_c, 0, 87, 77
1, 204359, Note_off_c, 0, 88, 63
1, 204368, Control_c, 0, 67, 28
1, 204372, Note_off_c, 0, 87, 71
1, 204397, Control_c, 0, 67, 27
1, 204412, Control_c, 0, 67, 28
1, 204415, Note_on_c, 0, 69, 68
1, 204421, Note_on_c, 0, 65, 57
1, 204427, Note_on_c, 0, 86, 80
1, 204427, Control_c, 0, 67, 28
1, 204442, Note_off_c, 0, 69, 66
1, 204442, Control_c, 0, 67, 29
1, 204444, Note_on_c, 0, 77, 48
1, 204454, Note_off_c, 0, 65, 66
1, 204457, Control_c, 0, 67, 29
1, 204468, Note_off_c, 0, 77, 58
1, 204487, Control_c, 0, 67, 30
1, 204495, Note_on_c, 0, 81, 71
1, 204500, Note_off_c, 0, 86, 65
1, 204501, Control_c, 0, 67, 31
1, 204516, Control_c, 0, 64, 11
1, 204516, Control_c, 0, 67, 31
1, 204522, Note_off_c, 0, 81, 62
1, 204531, Control_c, 0, 64, 78
1, 204531, Control_c, 0, 67, 33
1, 204546, Control_c, 0, 64, 97
1, 204546, Control_c, 0, 67, 34
1, 204548, Note_on_c, 0, 77, 68
1, 204561, Control_c, 0, 64, 127
1, 204561, Control_c, 0, 67, 36
1, 204575, Control_c, 0, 67, 40
1, 204576, Note_off_c, 0, 77, 65
1, 204590, Control_c, 0, 67, 43
1, 204605, Control_c, 0, 67, 46
1, 204620, Control_c, 0, 64, 92
1, 204620, Control_c, 0, 67, 48
1, 204625, Note_on_c, 0, 74, 83
1, 204635, Control_c, 0, 64, 60
1, 204635, Control_c, 0, 67, 52
1, 204649, Control_c, 0, 64, 0
1, 204649, Control_c, 0, 67, 56
1, 204664, Control_c, 0, 67, 59
1, 204679, Note_on_c, 0, 73, 72
1, 204679, Control_c, 0, 67, 61
1, 204687, Note_off_c, 0, 74, 64
1, 204694, Control_c, 0, 67, 61
1, 204699, Note_on_c, 0, 65, 54
1, 204708, Control_c, 0, 67, 62
1, 204730, Note_on_c, 0, 72, 75
1, 204733, Note_off_c, 0, 73, 64
1, 204738, Control_c, 0, 67, 61
1, 204740, Note_off_c, 0, 65, 61
1, 204753, Control_c, 0, 67, 61
1, 204767, Note_on_c, 0, 62, 51
1, 204768, Control_c, 0, 67, 59
1, 204769, Note_off_c, 0, 72, 65
1, 204782, Control_c, 0, 67, 58
1, 204795, Note_on_c, 0, 71, 67
1, 204797, Control_c, 0, 67, 56
1, 204800, Note_on_c, 0, 77, 73
1, 204810, Note_off_c, 0, 62, 58
1, 204812, Control_c, 0, 67, 55
1, 204820, Note_off_c, 0, 71, 59
1, 204826, Note_on_c, 0, 61, 62
1, 204827, Control_c, 0, 67, 54
1, 204842, Control_c, 0, 64, 66
1, 204842, Control_c, 0, 67, 53
1, 204856, Control_c, 0, 64, 77
1, 204856, Control_c, 0, 67, 52
1, 204859, Note_on_c, 0, 70, 72
1, 204869, Note_off_c, 0, 61, 61
1, 204872, Control_c, 0, 64, 84
1, 204872, Control_c, 0, 67, 51
1, 204887, Control_c, 0, 67, 50
1, 204896, Note_on_c, 0, 60, 45
1, 204896, Note_off_c, 0, 70, 63
1, 204902, Control_c, 0, 64, 78
1, 204902, Control_c, 0, 67, 48
1, 204916, Note_on_c, 0, 69, 75
1, 204917, Control_c, 0, 64, 66
1, 204917, Control_c, 0, 67, 46
1, 204928, Note_off_c, 0, 60, 66
1, 204930, Note_on_c, 0, 59, 64
1, 204931, Control_c, 0, 64, 0
1, 204931, Control_c, 0, 67, 43
1, 204932, Note_off_c, 0, 77, 56
1, 204946, Control_c, 0, 67, 39
1, 204952, Note_off_c, 0, 59, 60
1, 204961, Control_c, 0, 67, 30
1, 204969, Note_off_c, 0, 69, 56
1, 204970, Note_on_c, 0, 74, 81
1, 204977, Control_c, 0, 67, 19
1, 204982, Note_on_c, 0, 68, 67
1, 204992, Control_c, 0, 67, 0
1, 205006, Control_c, 0, 64, 57
1, 205007, Note_off_c, 0, 68, 66
1, 205021, Control_c, 0, 64, 75
1, 205036, Control_c, 0, 64, 82
1, 205039, Note_on_c, 0, 67, 74
1, 205041, Note_off_c, 0, 74, 63
1, 205066, Control_c, 0, 64, 77
1, 205074, Note_off_c, 0, 67, 62
1, 205080, Control_c, 0, 64, 67
1, 205103, Control_c, 0, 64, 0
1, 205113, Note_on_c, 0, 76, 73
1, 205166, Note_off_c, 0, 76, 62
1, 205175, Note_on_c, 0, 77, 78
1, 205187, Note_on_c, 0, 68, 61
1, 205236, Note_on_c, 0, 76, 72
1, 205236, Note_off_c, 0, 77, 64
1, 205268, Note_off_c, 0, 68, 53
1, 205280, Control_c, 0, 64, 56
1, 205286, Note_on_c, 0, 75, 73
1, 205286, Note_off_c, 0, 76, 63
1, 205295, Control_c, 0, 64, 66
1, 205308, Note_on_c, 0, 65, 40
1, 205310, Control_c, 0, 64, 70
1, 205324, Control_c, 0, 64, 71
1, 205339, Control_c, 0, 64, 73
1, 205342, Note_off_c, 0, 75, 64
1, 205348, Note_off_c, 0, 65, 63
1, 205351, Note_on_c, 0, 80, 83
1, 205354, Control_c, 0, 64, 77
1, 205359, Note_on_c, 0, 63, 59
1, 205365, Note_on_c, 0, 74, 53
1, 205369, Control_c, 0, 64, 81
1, 205369, Control_c, 0, 67, 8
1, 205384, Control_c, 0, 64, 81
1, 205384, Control_c, 0, 67, 9
1, 205387, Note_off_c, 0, 74, 62
1, 205391, Note_off_c, 0, 63, 66
1, 205399, Control_c, 0, 67, 11
1, 205414, Control_c, 0, 67, 15
1, 205423, Note_on_c, 0, 73, 74
1, 205429, Control_c, 0, 67, 20
1, 205434, Note_off_c, 0, 80, 61
1, 205444, Control_c, 0, 64, 81
1, 205444, Control_c, 0, 67, 26
1, 205458, Control_c, 0, 64, 79
1, 205458, Control_c, 0, 67, 33
1, 205461, Note_off_c, 0, 73, 64
1, 205473, Note_on_c, 0, 72, 59
1, 205473, Control_c, 0, 64, 76
1, 205473, Control_c, 0, 67, 39
1, 205488, Control_c, 0, 64, 72
1, 205488, Control_c, 0, 67, 46
1, 205503, Control_c, 0, 64, 68
1, 205503, Control_c, 0, 67, 52
1, 205518, Control_c, 0, 64, 65
1, 205518, Control_c, 0, 67, 57
1, 205521, Note_off_c, 0, 72, 48
1, 205530, Note_on_c, 0, 71, 66
1, 205532, Control_c, 0, 64, 62
1, 205532, Control_c, 0, 67, 62
1, 205547, Control_c, 0, 64, 54
1, 205547, Control_c, 0, 67, 68
1, 205557, Note_on_c, 0, 77, 38
1, 205562, Note_on_c, 0, 79, 29
1, 205562, Control_c, 0, 64, 36
1, 205562, Control_c, 0, 67, 73
1, 205577, Control_c, 0, 64, 0
1, 205577, Control_c, 0, 67, 80
1, 205583, Note_on_c, 0, 64, 53
1, 205586, Note_off_c, 0, 77, 57
1, 205591, Note_on_c, 0, 70, 72
1, 205592, Note_off_c, 0, 71, 64
1, 205592, Control_c, 0, 67, 86
1, 205596, Note_off_c, 0, 79, 48
1, 205606, Control_c, 0, 67, 92
1, 205621, Control_c, 0, 67, 96
1, 205625, Note_off_c, 0, 64, 44
1, 205635, Note_off_c, 0, 70, 63
1, 205636, Control_c, 0, 67, 99
1, 205650, Control_c, 0, 67, 102
1, 205664, Note_on_c, 0, 69, 67
1, 205665, Control_c, 0, 64, 14
1, 205665, Control_c, 0, 67, 105
1, 205682, Control_c, 0, 64, 39
1, 205682, Control_c, 0, 67, 108
1, 205686, Note_on_c, 0, 59, 47
1, 205689, Note_off_c, 0, 69, 66
1, 205696, Control_c, 0, 64, 50
1, 205696, Control_c, 0, 67, 112
1, 205711, Control_c, 0, 64, 58
1, 205711, Control_c, 0, 67, 115
1, 205726, Control_c, 0, 64, 65
1, 205726, Control_c, 0, 67, 119
1, 205740, Note_on_c, 0, 68, 67
1, 205741, Control_c, 0, 64, 69
1, 205741, Control_c, 0, 67, 121
1, 205755, Control_c, 0, 64, 72
1, 205755, Control_c, 0, 67, 123
1, 205768, Note_off_c, 0, 59, 60
1, 205770, Note_on_c, 0, 56, 53
1, 205770, Control_c, 0, 64, 73
1, 205770, Control_c, 0, 67, 124
1, 205785, Control_c, 0, 64, 73
1, 205785, Control_c, 0, 67, 125
1, 205800, Control_c, 0, 64, 75
1, 205800, Control_c, 0, 67, 126
1, 205804, Note_off_c, 0, 56, 66
1, 205814, Note_on_c, 0, 63, 60
1, 205815, Control_c, 0, 64, 76
1, 205815, Control_c, 0, 67, 127
1, 205829, Control_c, 0, 64, 77
1, 205829, Control_c, 0, 67, 127
1, 205882, Note_off_c, 0, 63, 60
1, 205897, Note_on_c, 0, 62, 57
1, 205926, Control_c, 0, 64, 77
1, 205941, Control_c, 0, 64, 76
1, 205943, Note_on_c, 0, 52, 48
1, 205955, Control_c, 0, 64, 76
1, 205970, Control_c, 0, 64, 75
1, 205985, Control_c, 0, 64, 75
1, 205995, Note_off_c, 0, 62, 54
1, 205996, Note_on_c, 0, 61, 59
1, 206000, Control_c, 0, 64, 74
1, 206015, Control_c, 0, 64, 73
1, 206029, Control_c, 0, 64, 71
1, 206044, Control_c, 0, 64, 71
1, 206059, Control_c, 0, 64, 70
1, 206067, Note_off_c, 0, 52, 54
1, 206082, Note_on_c, 0, 51, 46
1, 206088, Control_c, 0, 64, 69
1, 206096, Note_on_c, 0, 60, 62
1, 206103, Control_c, 0, 64, 68
1, 206118, Control_c, 0, 64, 67
1, 206133, Control_c, 0, 64, 67
1, 206147, Control_c, 0, 64, 66
1, 206171, Note_off_c, 0, 61, 44
1, 206177, Control_c, 0, 64, 66
1, 206192, Control_c, 0, 64, 65
1, 206207, Control_c, 0, 64, 65
1, 206231, Note_on_c, 0, 59, 58
1, 206236, Control_c, 0, 64, 64
1, 206261, Note_off_c, 0, 60, 58
1, 206281, Control_c, 0, 64, 64
1, 206341, Control_c, 0, 64, 63
1, 206353, Poly_aftertouch_c, 0, 50, 127
1, 206355, Control_c, 0, 64, 62
1, 206370, Control_c, 0, 64, 61
1, 206385, Control_c, 0, 64, 59
1, 206391, Note_off_c, 0, 51, 46
1, 206400, Control_c, 0, 64, 54
1, 206415, Control_c, 0, 64, 44
1, 206429, Control_c, 0, 64, 23
1, 206444, Control_c, 0, 64, 0
1, 206460, Note_on_c, 0, 65, 54
1, 206564, Control_c, 0, 64, 23
1, 206578, Control_c, 0, 64, 44
1, 206600, Control_c, 0, 64, 55
1, 206615, Control_c, 0, 64, 62
1, 206630, Control_c, 0, 64, 66
1, 206645, Control_c, 0, 64, 69
1, 206660, Control_c, 0, 64, 72
1, 206675, Control_c, 0, 64, 74
1, 206683, Note_on_c, 0, 43, 37
1, 206690, Control_c, 0, 64, 77
1, 206704, Control_c, 0, 64, 81
1, 206707, Poly_aftertouch_c, 0, 50, 0
1, 206713, Note_off_c, 0, 59, 54
1, 206719, Control_c, 0, 64, 86
1, 206734, Control_c, 0, 64, 91
1, 206749, Control_c, 0, 64, 97
1, 206755, Note_off_c, 0, 43, 57
1, 206764, Control_c, 0, 64, 104
1, 206778, Control_c, 0, 64, 113
1, 206793, Control_c, 0, 64, 127
1, 206800, Note_off_c, 0, 65, 47
1, 206810, Note_off_c, 0, 68, 48
1, 206935, Note_on_c, 0, 50, 42
1, 206956, Control_c, 0, 67, 127
1, 206971, Control_c, 0, 67, 125
1, 206985, Control_c, 0, 67, 122
1, 207000, Control_c, 0, 67, 119
1, 207015, Control_c, 0, 67, 114
1, 207030, Control_c, 0, 67, 108
1, 207044, Control_c, 0, 67, 99
1, 207059, Control_c, 0, 67, 88
1, 207074, Control_c, 0, 67, 75
1, 207075, Note_on_c, 0, 59, 51
1, 207089, Control_c, 0, 67, 64
1, 207104, Control_c, 0, 67, 55
1, 207119, Control_c, 0, 67, 48
1, 207130, Note_off_c, 0, 59, 0
1, 207134, Control_c, 0, 67, 43
1, 207149, Control_c, 0, 67, 37
1, 207164, Note_off_c, 0, 50, 43
1, 207164, Control_c, 0, 67, 30
1, 207167, Poly_aftertouch_c, 0, 59, 127
1, 207175, Note_on_c, 0, 80, 71
1, 207178, Control_c, 0, 67, 24
1, 207193, Control_c, 0, 67, 17
1, 207208, Control_c, 0, 67, 10
1, 207222, Control_c, 0, 67, 0
1, 207333, Poly_aftertouch_c, 0, 59, 0
1, 207351, Note_off_c, 0, 80, 32
1, 207369, Note_on_c, 0, 62, 35
1, 207430, Note_off_c, 0, 62, 58
1, 207437, Note_on_c, 0, 66, 44
1, 207481, Note_off_c, 0, 66, 59
1, 207591, Note_on_c, 0, 67, 58
1, 207668, Note_off_c, 0, 67, 56
1, 207752, Note_on_c, 0, 62, 49
1, 207843, Note_on_c, 0, 66, 66
1, 207944, Note_on_c, 0, 59, 48
1, 207962, Note_off_c, 0, 66, 50
1, 207962, Note_off_c, 0, 62, 0
1, 208000, Poly_aftertouch_c, 0, 62, 127
1, 208001, Note_on_c, 0, 60, 12
1, 208013, Note_on_c, 0, 79, 81
1, 208119, Note_on_c, 0, 67, 61
1, 208138, Poly_aftertouch_c, 0, 62, 0
1, 208147, Note_off_c, 0, 67, 64
1, 208172, Control_c, 0, 64, 103
1, 208187, Control_c, 0, 64, 90
1, 208202, Control_c, 0, 64, 79
1, 208217, Control_c, 0, 64, 70
1, 208225, Poly_aftertouch_c, 0, 76, 127
1, 208228, Note_on_c, 0, 68, 75
1, 208231, Control_c, 0, 64, 63
1, 208246, Control_c, 0, 64, 58
1, 208261, Control_c, 0, 64, 62
1, 208275, Control_c, 0, 64, 66
1, 208290, Control_c, 0, 64, 70
1, 208305, Control_c, 0, 64, 76
1, 208320, Note_off_c, 0, 59, 36
1, 208320, Control_c, 0, 64, 83
1, 208335, Control_c, 0, 64, 90
1, 208350, Control_c, 0, 64, 96
1, 208363, Note_on_c, 0, 62, 65
1, 208365, Control_c, 0, 64, 100
1, 208367, Note_off_c, 0, 60, 42
1, 208380, Control_c, 0, 64, 102
1, 208395, Control_c, 0, 64, 102
1, 208410, Control_c, 0, 64, 103
1, 208413, Poly_aftertouch_c, 0, 74, 127
1, 208424, Control_c, 0, 64, 102
1, 208428, Note_off_c, 0, 79, 45
1, 208445, Note_off_c, 0, 68, 38
1, 208469, Note_off_c, 0, 62, 60
1, 208487, Note_on_c, 0, 67, 78
1, 208513, Poly_aftertouch_c, 0, 76, 0
1, 208552, Poly_aftertouch_c, 0, 74, 0
1, 208580, Note_on_c, 0, 58, 69
1, 208596, Note_off_c, 0, 67, 58
1, 208602, Control_c, 0, 64, 102
1, 208631, Control_c, 0, 64, 101
1, 208646, Control_c, 0, 64, 100
1, 208660, Note_on_c, 0, 78, 83
1, 208661, Control_c, 0, 64, 99
1, 208675, Control_c, 0, 64, 98
1, 208690, Control_c, 0, 64, 95
1, 208705, Control_c, 0, 64, 94
1, 208720, Control_c, 0, 64, 92
1, 208735, Control_c, 0, 64, 91
1, 208749, Control_c, 0, 64, 90
1, 208760, Note_on_c, 0, 68, 58
1, 208764, Control_c, 0, 64, 89
1, 208779, Control_c, 0, 64, 89
1, 208794, Control_c, 0, 64, 88
1, 208809, Control_c, 0, 64, 88
1, 208824, Control_c, 0, 64, 85
1, 208839, Control_c, 0, 64, 81
1, 208839, Note_off_c, 0, 68, 36
1, 208861, Control_c, 0, 64, 76
1, 208875, Note_on_c, 0, 69, 66
1, 208877, Control_c, 0, 64, 69
1, 208892, Control_c, 0, 64, 62
1, 208892, Note_off_c, 0, 58, 45
1, 208906, Control_c, 0, 64, 35
1, 208921, Control_c, 0, 64, 0
1, 208936, Control_c, 0, 64, 47
1, 208951, Control_c, 0, 64, 59
1, 208966, Control_c, 0, 64, 63
1, 208980, Control_c, 0, 64, 66
1, 208995, Control_c, 0, 64, 71
1, 209010, Control_c, 0, 64, 77
1, 209015, Note_off_c, 0, 69, 59
1, 209025, Control_c, 0, 64, 84
1, 209028, Note_on_c, 0, 62, 46
1, 209040, Control_c, 0, 64, 88
1, 209054, Control_c, 0, 64, 90
1, 209069, Control_c, 0, 64, 91
1, 209098, Control_c, 0, 67, 8
1, 209113, Control_c, 0, 67, 11
1, 209128, Control_c, 0, 67, 14
1, 209143, Control_c, 0, 67, 17
1, 209156, Note_on_c, 0, 68, 58
1, 209158, Control_c, 0, 67, 20
1, 209173, Control_c, 0, 67, 23
1, 209188, Control_c, 0, 67, 26
1, 209198, Note_off_c, 0, 78, 38
1, 209202, Control_c, 0, 64, 90
1, 209202, Control_c, 0, 67, 29
1, 209217, Control_c, 0, 64, 90
1, 209217, Control_c, 0, 67, 32
1, 209232, Control_c, 0, 64, 89
1, 209232, Control_c, 0, 67, 34
1, 209247, Control_c, 0, 64, 89
1, 209247, Control_c, 0, 67, 36
1, 209249, Note_off_c, 0, 68, 49
1, 209262, Control_c, 0, 64, 88
1, 209262, Control_c, 0, 67, 38
1, 209277, Control_c, 0, 67, 41
1, 209283, Note_on_c, 0, 59, 41
1, 209291, Control_c, 0, 64, 88
1, 209291, Control_c, 0, 67, 42
1, 209306, Control_c, 0, 64, 87
1, 209306, Control_c, 0, 67, 43
1, 209321, Control_c, 0, 64, 86
1, 209321, Control_c, 0, 67, 45
1, 209336, Control_c, 0, 67, 46
1, 209340, Note_off_c, 0, 62, 23
1, 209351, Control_c, 0, 64, 86
1, 209351, Control_c, 0, 67, 49
1, 209365, Control_c, 0, 67, 51
1, 209380, Control_c, 0, 67, 53
1, 209395, Control_c, 0, 64, 85
1, 209395, Control_c, 0, 67, 56
1, 209410, Control_c, 0, 64, 85
1, 209410, Control_c, 0, 67, 58
1, 209425, Control_c, 0, 64, 84
1, 209425, Control_c, 0, 67, 60
1, 209426, Note_on_c, 0, 77, 64
1, 209439, Control_c, 0, 67, 62
1, 209454, Control_c, 0, 64, 83
1, 209454, Control_c, 0, 67, 65
1, 209468, Control_c, 0, 67, 68
1, 209483, Control_c, 0, 64, 82
1, 209483, Control_c, 0, 67, 72
1, 209497, Control_c, 0, 64, 81
1, 209497, Control_c, 0, 67, 76
1, 209504, Note_off_c, 0, 59, 21
1, 209512, Control_c, 0, 64, 81
1, 209512, Control_c, 0, 67, 79
1, 209527, Control_c, 0, 64, 79
1, 209527, Control_c, 0, 67, 82
1, 209542, Control_c, 0, 64, 79
1, 209542, Control_c, 0, 67, 85
1, 209557, Control_c, 0, 64, 78
1, 209557, Control_c, 0, 67, 88
1, 209571, Control_c, 0, 64, 77
1, 209571, Control_c, 0, 67, 92
1, 209593, Control_c, 0, 64, 77
1, 209593, Control_c, 0, 67, 96
1, 209608, Control_c, 0, 64, 76
1, 209608, Control_c, 0, 67, 99
1, 209623, Control_c, 0, 64, 76
1, 209623, Control_c, 0, 67, 102
1, 209635, Note_on_c, 0, 67, 39
1, 209638, Control_c, 0, 64, 75
1, 209638, Control_c, 0, 67, 106
1, 209653, Control_c, 0, 67, 109
1, 209668, Control_c, 0, 64, 75
1, 209668, Control_c, 0, 67, 112
1, 209683, Control_c, 0, 64, 74
1, 209683, Control_c, 0, 67, 114
1, 209698, Control_c, 0, 64, 74
1, 209698, Control_c, 0, 67, 116
1, 209713, Control_c, 0, 64, 73
1, 209713, Control_c, 0, 67, 118
1, 209727, Control_c, 0, 64, 73
1, 209727, Control_c, 0, 67, 119
1, 209742, Control_c, 0, 64, 72
1, 209742, Control_c, 0, 67, 121
1, 209757, Control_c, 0, 64, 71
1, 209757, Control_c, 0, 67, 122
1, 209772, Control_c, 0, 64, 70
1, 209772, Control_c, 0, 67, 123
1, 209787, Control_c, 0, 64, 67
1, 209787, Control_c, 0, 67, 125
1, 209802, Control_c, 0, 64, 64
1, 209802, Control_c, 0, 67, 126
1, 209817, Control_c, 0, 64, 56
1, 209817, Control_c, 0, 67, 127
1, 209831, Control_c, 0, 64, 27
1, 209845, Note_on_c, 0, 43, 34
1, 209846, Control_c, 0, 64, 0
1, 209920, Control_c, 0, 64, 39
1, 209935, Control_c, 0, 64, 55
1, 209950, Control_c, 0, 64, 62
1, 209965, Control_c, 0, 64, 65
1, 209980, Control_c, 0, 64, 69
1, 209994, Control_c, 0, 64, 73
1, 209998, Note_off_c, 0, 43, 42
1, 210009, Control_c, 0, 64, 76
1, 210024, Control_c, 0, 64, 79
1, 210039, Control_c, 0, 64, 81
1, 210054, Control_c, 0, 64, 83
1, 210055, Note_on_c, 0, 51, 37
1, 210056, Note_off_c, 0, 77, 49
1, 210068, Control_c, 0, 64, 84
1, 210083, Control_c, 0, 64, 86
1, 210098, Control_c, 0, 67, 127
1, 210112, Control_c, 0, 64, 86
1, 210127, Control_c, 0, 67, 126
1, 210157, Control_c, 0, 64, 87
1, 210157, Control_c, 0, 67, 126
1, 210172, Control_c, 0, 67, 125
1, 210186, Control_c, 0, 64, 87
1, 210186, Control_c, 0, 67, 124
1, 210201, Note_off_c, 0, 51, 35
1, 210201, Control_c, 0, 64, 88
1, 210201, Control_c, 0, 67, 123
1, 210204, Note_on_c, 0, 55, 48
1, 210216, Control_c, 0, 67, 122
1, 210231, Control_c, 0, 67, 121
1, 210246, Control_c, 0, 67, 120
1, 210253, Note_off_c, 0, 55, 58
1, 210256, Note_off_c, 0, 67, 29
1, 210261, Control_c, 0, 67, 119
1, 210276, Control_c, 0, 67, 119
1, 210291, Control_c, 0, 64, 88
1, 210291, Control_c, 0, 67, 118
1, 210305, Control_c, 0, 67, 117
1, 210320, Control_c, 0, 67, 116
1, 210342, Control_c, 0, 67, 116
1, 210351, Note_on_c, 0, 75, 54
1, 210352, Note_on_c, 0, 60, 27
1, 210357, Control_c, 0, 67, 115
1, 210358, Note_on_c, 0, 72, 39
1, 210372, Control_c, 0, 67, 115
1, 210387, Control_c, 0, 64, 88
1, 210389, Note_off_c, 0, 60, 52
1, 210401, Control_c, 0, 67, 114
1, 210411, Note_off_c, 0, 72, 40
1, 210416, Control_c, 0, 67, 114
1, 210431, Control_c, 0, 67, 113
1, 210487, Note_off_c, 0, 75, 37
1, 210506, Note_on_c, 0, 70, 51
1, 210506, Control_c, 0, 64, 87
1, 210517, Note_on_c, 0, 67, 46
1, 210521, Control_c, 0, 64, 86
1, 210536, Control_c, 0, 64, 85
1, 210550, Control_c, 0, 64, 84
1, 210565, Control_c, 0, 64, 81
1, 210580, Control_c, 0, 64, 76
1, 210595, Control_c, 0, 64, 69
1, 210610, Control_c, 0, 64, 61
1, 210624, Control_c, 0, 64, 21
1, 210639, Control_c, 0, 64, 0
1, 210654, Control_c, 0, 64, 14
1, 210654, Control_c, 0, 67, 112
1, 210665, Note_on_c, 0, 63, 46
1, 210669, Control_c, 0, 64, 40
1, 210669, Control_c, 0, 67, 111
1, 210684, Control_c, 0, 64, 56
1, 210684, Control_c, 0, 67, 108
1, 210699, Control_c, 0, 64, 65
1, 210699, Control_c, 0, 67, 103
1, 210714, Control_c, 0, 64, 71
1, 210714, Control_c, 0, 67, 95
1, 210729, Control_c, 0, 64, 80
1, 210729, Control_c, 0, 67, 84
1, 210743, Control_c, 0, 64, 91
1, 210743, Control_c, 0, 67, 70
1, 210758, Control_c, 0, 64, 102
1, 210758, Control_c, 0, 67, 56
1, 210764, Note_off_c, 0, 63, 55
1, 210773, Control_c, 0, 64, 123
1, 210773, Control_c, 0, 67, 46
1, 210774, Note_on_c, 0, 60, 49
1, 210788, Control_c, 0, 64, 127
1, 210788, Control_c, 0, 67, 38
1, 210802, Note_off_c, 0, 67, 54
1, 210803, Control_c, 0, 67, 30
1, 210811, Note_off_c, 0, 70, 59
1, 210817, Control_c, 0, 67, 19
1, 210832, Control_c, 0, 67, 0
1, 210872, Note_off_c, 0, 60, 57
1, 210893, Note_on_c, 0, 51, 45
1, 210912, Note_on_c, 0, 74, 59
1, 210916, Note_on_c, 0, 70, 44
1, 210954, Note_off_c, 0, 70, 58
1, 210961, Note_off_c, 0, 74, 53
1, 211025, Note_on_c, 0, 68, 52
1, 211030, Note_on_c, 0, 65, 48
1, 211107, Control_c, 0, 64, 105
1, 211122, Control_c, 0, 64, 94
1, 211137, Control_c, 0, 64, 89
1, 211151, Control_c, 0, 64, 88
1, 211161, Note_on_c, 0, 60, 44
1, 211164, Note_off_c, 0, 51, 42
1, 211166, Control_c, 0, 64, 90
1, 211181, Control_c, 0, 64, 98
1, 211196, Control_c, 0, 64, 112
1, 211211, Control_c, 0, 64, 127
1, 211212, Note_off_c, 0, 60, 60
1, 211257, Note_on_c, 0, 51, 59
1, 211258, Note_off_c, 0, 68, 59
1, 211274, Note_off_c, 0, 65, 55
1, 211364, Note_on_c, 0, 43, 50
1, 211369, Note_off_c, 0, 51, 58
1, 211372, Note_on_c, 0, 72, 54
1, 211374, Note_on_c, 0, 68, 61
1, 211402, Note_off_c, 0, 68, 65
1, 211407, Note_off_c, 0, 72, 63
1, 211474, Note_on_c, 0, 67, 53
1, 211481, Note_on_c, 0, 63, 58
1, 211496, Note_off_c, 0, 67, 60
1, 211517, Note_off_c, 0, 63, 58
1, 211551, Note_off_c, 0, 43, 33
1, 211575, Note_on_c, 0, 51, 47
1, 211579, Note_on_c, 0, 67, 57
1, 211617, Note_on_c, 0, 70, 58
1, 211700, Control_c, 0, 64, 110
1, 211715, Control_c, 0, 64, 93
1, 211730, Control_c, 0, 64, 79
1, 211733, Note_off_c, 0, 67, 53
1, 211745, Control_c, 0, 64, 66
1, 211759, Control_c, 0, 64, 0
1, 211769, Note_on_c, 0, 65, 56
1, 211770, Note_on_c, 0, 59, 50
1, 211777, Note_on_c, 0, 62, 49
1, 211795, Note_off_c, 0, 51, 48
1, 211846, Note_off_c, 0, 70, 54
1, 211870, Control_c, 0, 64, 62
1, 211885, Control_c, 0, 64, 71
1, 211891, Note_off_c, 0, 59, 46
1, 211900, Control_c, 0, 64, 83
1, 211915, Control_c, 0, 64, 101
1, 211918, Note_on_c, 0, 51, 47
1, 211930, Control_c, 0, 64, 127
1, 212027, Note_off_c, 0, 65, 62
1, 212028, Note_off_c, 0, 51, 56
1, 212042, Note_on_c, 0, 43, 55
1, 212052, Note_off_c, 0, 62, 58
1, 212106, Note_off_c, 0, 43, 57
1, 212148, Note_on_c, 0, 51, 58
1, 212156, Note_on_c, 0, 65, 55
1, 212157, Note_on_c, 0, 68, 59
1, 212212, Control_c, 0, 64, 118
1, 212227, Control_c, 0, 64, 90
1, 212242, Control_c, 0, 64, 75
1, 212257, Control_c, 0, 64, 63
1, 212271, Control_c, 0, 64, 54
1, 212272, Note_on_c, 0, 63, 66
1, 212282, Note_on_c, 0, 60, 62
1, 212285, Note_on_c, 0, 58, 64
1, 212286, Control_c, 0, 64, 62
1, 212288, Note_off_c, 0, 51, 54
1, 212298, Note_off_c, 0, 68, 51
1, 212301, Control_c, 0, 64, 71
1, 212315, Control_c, 0, 64, 82
1, 212322, Note_off_c, 0, 65, 34
1, 212330, Control_c, 0, 64, 102
1, 212345, Control_c, 0, 64, 127
1, 212388, Note_off_c, 0, 58, 62
1, 212413, Note_on_c, 0, 51, 66
1, 212458, Note_off_c, 0, 51, 63
1, 212470, Note_off_c, 0, 60, 59
1, 212471, Note_off_c, 0, 63, 60
1, 212502, Note_on_c, 0, 43, 62
1, 212550, Note_off_c, 0, 43, 62
1, 212568, Note_on_c, 0, 51, 60
1, 212571, Note_on_c, 0, 63, 72
1, 212575, Note_on_c, 0, 67, 71
1, 212619, Control_c, 0, 64, 90
1, 212634, Control_c, 0, 64, 73
1, 212639, Note_off_c, 0, 51, 61
1, 212645, Note_off_c, 0, 63, 60
1, 212648, Control_c, 0, 64, 69
1, 212663, Note_off_c, 0, 67, 56
1, 212663, Control_c, 0, 64, 73
1, 212672, Note_on_c, 0, 56, 73
1, 212678, Control_c, 0, 64, 81
1, 212684, Note_on_c, 0, 62, 62
1, 212688, Note_on_c, 0, 59, 68
1, 212693, Control_c, 0, 64, 94
1, 212708, Control_c, 0, 64, 127
1, 212720, Note_off_c, 0, 62, 61
1, 212728, Note_off_c, 0, 59, 51
1, 212741, Note_off_c, 0, 56, 60
1, 212781, Note_on_c, 0, 50, 63
1, 212797, Note_on_c, 0, 65, 72
1, 212804, Note_off_c, 0, 50, 69
1, 212808, Note_on_c, 0, 62, 65
1, 212913, Note_on_c, 0, 32, 65
1, 212913, Note_off_c, 0, 65, 55
1, 212932, Control_c, 0, 64, 120
1, 212946, Control_c, 0, 64, 79
1, 212961, Control_c, 0, 64, 42
1, 212976, Control_c, 0, 64, 0
1, 212977, Note_on_c, 0, 60, 65
1, 212978, Note_on_c, 0, 54, 64
1, 212988, Note_off_c, 0, 62, 51
1, 213020, Control_c, 0, 64, 33
1, 213035, Control_c, 0, 64, 76
1, 213050, Control_c, 0, 64, 116
1, 213064, Control_c, 0, 64, 127
1, 213087, Note_off_c, 0, 32, 59
1, 213087, Note_off_c, 0, 54, 65
1, 213108, Note_on_c, 0, 44, 68
1, 213131, Note_off_c, 0, 60, 63
1, 213137, Note_off_c, 0, 44, 64
1, 213240, Note_on_c, 0, 51, 68
1, 213248, Note_on_c, 0, 54, 61
1, 213327, Note_off_c, 0, 54, 62
1, 213345, Note_on_c, 0, 60, 63
1, 213364, Note_on_c, 0, 81, 83
1, 213370, Note_on_c, 0, 78, 74
1, 213373, Note_off_c, 0, 60, 66
1, 213388, Note_off_c, 0, 51, 63
1, 213527, Note_on_c, 0, 57, 52
1, 213531, Note_on_c, 0, 61, 68
1, 213537, Note_on_c, 0, 54, 61
1, 213560, Control_c, 0, 64, 106
1, 213575, Control_c, 0, 64, 81
1, 213583, Note_on_c, 0, 69, 76
1, 213585, Note_on_c, 0, 76, 70
1, 213590, Control_c, 0, 64, 14
1, 213592, Note_on_c, 0, 73, 67
1, 213605, Note_off_c, 0, 81, 53
1, 213605, Control_c, 0, 64, 0
1, 213647, Note_off_c, 0, 78, 59
1, 213680, Control_c, 0, 64, 64
1, 213694, Control_c, 0, 64, 75
1, 213709, Control_c, 0, 64, 93
1, 213724, Control_c, 0, 64, 127
1, 213768, Note_on_c, 0, 52, 71
1, 213780, Note_off_c, 0, 61, 62
1, 213790, Note_off_c, 0, 76, 58
1, 213792, Note_off_c, 0, 57, 58
1, 213818, Note_off_c, 0, 54, 63
1, 213844, Note_off_c, 0, 52, 63
1, 213847, Note_off_c, 0, 73, 58
1, 213897, Note_off_c, 0, 69, 58
1, 213924, Note_on_c, 0, 44, 77
1, 213954, Note_on_c, 0, 80, 77
1, 213960, Note_off_c, 0, 44, 65
1, 213961, Note_on_c, 0, 76, 76
1, 214063, Note_on_c, 0, 63, 77
1, 214065, Control_c, 0, 64, 91
1, 214068, Note_on_c, 0, 60, 53
1, 214070, Note_on_c, 0, 56, 70
1, 214073, Note_off_c, 0, 80, 60
1, 214079, Note_on_c, 0, 68, 86
1, 214080, Control_c, 0, 64, 70
1, 214088, Note_on_c, 0, 75, 75
1, 214091, Note_on_c, 0, 72, 66
1, 214102, Control_c, 0, 64, 0
1, 214109, Note_off_c, 0, 76, 57
1, 214147, Control_c, 0, 64, 50
1, 214161, Control_c, 0, 64, 70
1, 214176, Control_c, 0, 64, 85
1, 214191, Control_c, 0, 64, 127
1, 214234, Note_on_c, 0, 54, 76
1, 214237, Note_off_c, 0, 63, 60
1, 214243, Note_off_c, 0, 60, 63
1, 214276, Note_off_c, 0, 56, 64
1, 214286, Note_off_c, 0, 54, 66
1, 214299, Note_off_c, 0, 72, 59
1, 214314, Note_off_c, 0, 75, 60
1, 214337, Note_off_c, 0, 68, 59
1, 214358, Note_on_c, 0, 44, 74
1, 214386, Note_on_c, 0, 78, 82
1, 214389, Note_off_c, 0, 44, 64
1, 214395, Note_on_c, 0, 75, 72
1, 214470, Note_off_c, 0, 78, 64
1, 214488, Control_c, 0, 64, 93
1, 214503, Control_c, 0, 64, 72
1, 214504, Note_on_c, 0, 67, 84
1, 214508, Note_on_c, 0, 64, 63
1, 214509, Note_on_c, 0, 73, 77
1, 214510, Note_on_c, 0, 61, 59
1, 214517, Note_on_c, 0, 57, 52
1, 214517, Control_c, 0, 64, 49
1, 214522, Note_on_c, 0, 69, 64
1, 214532, Control_c, 0, 64, 21
1, 214547, Control_c, 0, 64, 62
1, 214548, Note_off_c, 0, 75, 52
1, 214562, Control_c, 0, 64, 71
1, 214577, Control_c, 0, 64, 86
1, 214592, Control_c, 0, 64, 127
1, 214594, Note_off_c, 0, 64, 60
1, 214619, Note_on_c, 0, 55, 74
1, 214631, Note_off_c, 0, 57, 60
1, 214632, Note_off_c, 0, 61, 62
1, 214635, Note_on_c, 0, 77, 81
1, 214644, Note_on_c, 0, 74, 71
1, 214649, Note_off_c, 0, 73, 63
1, 214650, Note_off_c, 0, 55, 67
1, 214666, Note_off_c, 0, 69, 56
1, 214669, Note_off_c, 0, 67, 60
1, 214777, Note_on_c, 0, 57, 60
1, 214798, Note_on_c, 0, 53, 59
1, 214814, Control_c, 0, 64, 106
1, 214816, Note_on_c, 0, 65, 81
1, 214816, Note_on_c, 0, 69, 52
1, 214824, Note_on_c, 0, 72, 68
1, 214836, Control_c, 0, 64, 80
1, 214851, Control_c, 0, 64, 63
1, 214852, Note_off_c, 0, 77, 38
1, 214866, Note_off_c, 0, 57, 55
1, 214866, Control_c, 0, 64, 0
1, 214877, Note_off_c, 0, 74, 58
1, 214910, Control_c, 0, 64, 65
1, 214925, Control_c, 0, 64, 80
1, 214940, Control_c, 0, 64, 112
1, 214949, Note_off_c, 0, 53, 64
1, 214955, Control_c, 0, 64, 127
1, 214962, Note_on_c, 0, 45, 70
1, 215008, Note_off_c, 0, 45, 64
1, 215069, Note_on_c, 0, 45, 69
1, 215078, Note_off_c, 0, 69, 58
1, 215093, Note_off_c, 0, 72, 37
1, 215119, Note_off_c, 0, 45, 65
1, 215143, Note_on_c, 0, 33, 80
1, 215178, Note_off_c, 0, 33, 64
1, 215185, Note_on_c, 0, 76, 83
1, 215194, Note_on_c, 0, 72, 78
1, 215216, Note_off_c, 0, 65, 61
1, 215307, Note_on_c, 0, 54, 74
1, 215311, Control_c, 0, 64, 88
1, 215312, Note_off_c, 0, 76, 50
1, 215313, Note_on_c, 0, 64, 84
1, 215318, Note_on_c, 0, 58, 75
1, 215322, Note_on_c, 0, 67, 66
1, 215322, Note_on_c, 0, 70, 75
1, 215326, Control_c, 0, 64, 70
1, 215340, Control_c, 0, 64, 53
1, 215343, Note_off_c, 0, 54, 60
1, 215355, Note_on_c, 0, 55, 50
1, 215370, Control_c, 0, 64, 66
1, 215379, Note_off_c, 0, 72, 54
1, 215385, Control_c, 0, 64, 77
1, 215395, Note_off_c, 0, 55, 64
1, 215400, Control_c, 0, 64, 98
1, 215415, Control_c, 0, 64, 127
1, 215430, Note_off_c, 0, 58, 62
1, 215488, Note_off_c, 0, 67, 58
1, 215501, Note_off_c, 0, 70, 59
1, 215519, Note_on_c, 0, 45, 77
1, 215557, Note_off_c, 0, 64, 58
1, 215602, Note_off_c, 0, 45, 65
1, 215608, Note_on_c, 0, 74, 80
1, 215610, Note_on_c, 0, 70, 78
1, 215617, Note_on_c, 0, 55, 67
1, 215644, Note_off_c, 0, 55, 66
1, 215658, Note_off_c, 0, 74, 64
1, 215659, Control_c, 0, 64, 100
1, 215674, Control_c, 0, 64, 95
1, 215689, Control_c, 0, 64, 100
1, 215704, Control_c, 0, 64, 119
1, 215716, Note_on_c, 0, 69, 75
1, 215718, Note_off_c, 0, 70, 40
1, 215719, Note_on_c, 0, 63, 93
1, 215719, Control_c, 0, 64, 127
1, 215728, Note_on_c, 0, 60, 81
1, 215735, Note_on_c, 0, 53, 61
1, 215735, Note_on_c, 0, 65, 71
1, 215761, Note_off_c, 0, 60, 59
1, 215826, Note_on_c, 0, 47, 82
1, 215832, Note_on_c, 0, 72, 85
1, 215834, Note_off_c, 0, 53, 64
1, 215847, Note_off_c, 0, 69, 53
1, 215848, Note_off_c, 0, 63, 56
1, 215870, Note_off_c, 0, 47, 67
1, 215874, Note_off_c, 0, 65, 58
1, 215957, Note_on_c, 0, 34, 89
1, 215995, Note_on_c, 0, 62, 93
1, 216000, Control_c, 0, 64, 78
1, 216001, Note_on_c, 0, 65, 75
1, 216001, Note_on_c, 0, 68, 85
1, 216006, Note_off_c, 0, 72, 60
1, 216014, Control_c, 0, 64, 0
1, 216075, Control_c, 0, 64, 76
1, 216089, Control_c, 0, 64, 127
1, 216121, Note_off_c, 0, 62, 61
1, 216128, Note_off_c, 0, 34, 59
1, 216128, Note_off_c, 0, 65, 59
1, 216145, Note_on_c, 0, 46, 84
1, 216162, Note_off_c, 0, 68, 62
1, 216166, Note_off_c, 0, 46, 66
1, 216258, Note_on_c, 0, 53, 87
1, 216273, Note_on_c, 0, 56, 76
1, 216369, Note_on_c, 0, 62, 84
1, 216373, Note_on_c, 0, 83, 97
1, 216380, Note_on_c, 0, 80, 95
1, 216383, Note_off_c, 0, 56, 63
1, 216391, Note_off_c, 0, 53, 63
1, 216418, Note_off_c, 0, 62, 62
1, 216541, Note_on_c, 0, 63, 97
1, 216549, Note_on_c, 0, 59, 74
1, 216550, Note_on_c, 0, 56, 81
1, 216571, Control_c, 0, 64, 90
1, 216571, Note_on_c, 0, 78, 90
1, 216571, Note_off_c, 0, 83, 38
1, 216573, Note_on_c, 0, 71, 91
1, 216577, Note_on_c, 0, 75, 86
1, 216586, Control_c, 0, 64, 69
1, 216601, Control_c, 0, 64, 0
1, 216630, Control_c, 0, 64, 57
1, 216633, Note_off_c, 0, 80, 62
1, 216645, Control_c, 0, 64, 73
1, 216660, Control_c, 0, 64, 98
1, 216675, Control_c, 0, 64, 127
1, 216712, Note_off_c, 0, 63, 53
1, 216725, Note_on_c, 0, 54, 94
1, 216740, Note_off_c, 0, 59, 61
1, 216743, Note_off_c, 0, 78, 63
1, 216752, Note_off_c, 0, 75, 56
1, 216789, Note_off_c, 0, 56, 63
1, 216840, Note_off_c, 0, 54, 67
1, 216842, Note_off_c, 0, 71, 56
1, 216919, Note_on_c, 0, 46, 85
1, 216929, Note_on_c, 0, 82, 92
1, 216929, Note_on_c, 0, 44, 73
1, 216929, Note_on_c, 0, 78, 83
1, 216953, Note_off_c, 0, 44, 66
1, 216965, Note_off_c, 0, 46, 58
1, 217006, Note_off_c, 0, 82, 60
1, 217016, Control_c, 0, 64, 110
1, 217030, Control_c, 0, 64, 74
1, 217037, Note_on_c, 0, 70, 102
1, 217039, Note_on_c, 0, 74, 62
1, 217039, Note_on_c, 0, 77, 86
1, 217044, Note_on_c, 0, 65, 92
1, 217045, Control_c, 0, 64, 0
1, 217048, Note_on_c, 0, 58, 87
1, 217056, Note_off_c, 0, 78, 60
1, 217069, Note_on_c, 0, 63, 45
1, 217072, Note_on_c, 0, 62, 52
1, 217098, Control_c, 0, 64, 67
1, 217105, Note_off_c, 0, 63, 56
1, 217112, Control_c, 0, 64, 95
1, 217121, Note_off_c, 0, 65, 50
1, 217127, Control_c, 0, 64, 127
1, 217139, Note_off_c, 0, 62, 49
1, 217160, Note_off_c, 0, 74, 62
1, 217167, Note_on_c, 0, 56, 88
1, 217173, Note_off_c, 0, 58, 63
1, 217227, Note_off_c, 0, 56, 63
1, 217255, Note_off_c, 0, 77, 48
1, 217302, Note_off_c, 0, 70, 58
1, 217310, Note_on_c, 0, 46, 86
1, 217335, Note_on_c, 0, 80, 89
1, 217342, Note_on_c, 0, 77, 90
1, 217355, Note_off_c, 0, 46, 61
1, 217414, Poly_aftertouch_c, 0, 44, 0
1, 217424, Note_off_c, 0, 77, 55
1, 217424, Control_c, 0, 64, 89
1, 217428, Note_off_c, 0, 80, 62
1, 217438, Control_c, 0, 64, 81
1, 217450, Note_on_c, 0, 66, 95
1, 217451, Note_on_c, 0, 69, 91
1, 217453, Control_c, 0, 64, 84
1, 217454, Note_on_c, 0, 75, 82
1, 217463, Note_on_c, 0, 59, 69
1, 217465, Note_on_c, 0, 63, 73
1, 217465, Note_on_c, 0, 71, 68
1, 217468, Control_c, 0, 64, 99
1, 217483, Control_c, 0, 64, 127
1, 217495, Note_off_c, 0, 66, 59
1, 217555, Poly_aftertouch_c, 0, 61, 127
1, 217560, Note_on_c, 0, 61, 18
1, 217563, Note_on_c, 0, 57, 83
1, 217567, Note_on_c, 0, 79, 91
1, 217567, Note_off_c, 0, 63, 58
1, 217568, Note_on_c, 0, 76, 75
1, 217585, Note_off_c, 0, 69, 60
1, 217587, Note_off_c, 0, 59, 60
1, 217591, Note_off_c, 0, 71, 62
1, 217595, Note_off_c, 0, 75, 57
1, 217598, Note_off_c, 0, 61, 44
1, 217599, Note_off_c, 0, 57, 62
1, 217717, Note_on_c, 0, 59, 86
1, 217721, Control_c, 0, 64, 112
1, 217725, Note_on_c, 0, 55, 76
1, 217729, Note_on_c, 0, 67, 97
1, 217733, Note_on_c, 0, 71, 76
1, 217735, Control_c, 0, 64, 82
1, 217740, Note_on_c, 0, 74, 83
1, 217750, Control_c, 0, 64, 65
1, 217765, Control_c, 0, 64, 0
1, 217780, Control_c, 0, 64, 42
1, 217795, Control_c, 0, 64, 70
1, 217799, Note_off_c, 0, 79, 42
1, 217808, Note_off_c, 0, 59, 52
1, 217809, Control_c, 0, 64, 92
1, 217818, Note_off_c, 0, 76, 55
1, 217832, Control_c, 0, 64, 127
1, 217850, Note_on_c, 0, 47, 81
1, 217856, Note_off_c, 0, 55, 64
1, 217859, Note_off_c, 0, 74, 64
1, 217863, Note_off_c, 0, 71, 63
1, 217893, Note_off_c, 0, 47, 66
1, 217952, Note_on_c, 0, 47, 87
1, 218004, Note_off_c, 0, 67, 60
1, 218008, Note_off_c, 0, 47, 66
1, 218032, Note_on_c, 0, 35, 83
1, 218048, Note_on_c, 0, 78, 84
1, 218050, Note_on_c, 0, 74, 85
1, 218059, Note_off_c, 0, 35, 69
1, 218128, Control_c, 0, 64, 93
1, 218131, Note_off_c, 0, 78, 61
1, 218142, Note_off_c, 0, 74, 52
1, 218142, Control_c, 0, 64, 69
1, 218143, Poly_aftertouch_c, 0, 69, 0
1, 218157, Control_c, 0, 64, 65
1, 218158, Note_on_c, 0, 66, 103
1, 218160, Note_on_c, 0, 72, 82
1, 218162, Note_on_c, 0, 69, 11
1, 218167, Note_on_c, 0, 60, 87
1, 218172, Control_c, 0, 64, 73
1, 218177, Note_on_c, 0, 57, 71
1, 218187, Control_c, 0, 64, 88
1, 218202, Control_c, 0, 64, 127
1, 218203, Note_off_c, 0, 57, 67
1, 218205, Note_off_c, 0, 60, 62
1, 218272, Note_off_c, 0, 66, 57
1, 218282, Note_off_c, 0, 72, 52
1, 218291, Note_off_c, 0, 69, 36
1, 218318, Note_on_c, 0, 47, 83
1, 218418, Note_on_c, 0, 57, 85
1, 218427, Note_off_c, 0, 47, 64
1, 218434, Note_on_c, 0, 76, 91
1, 218434, Note_on_c, 0, 72, 83
1, 218458, Note_off_c, 0, 57, 64
1, 218541, Note_on_c, 0, 62, 89
1, 218542, Note_on_c, 0, 55, 82
1, 218544, Note_off_c, 0, 76, 57
1, 218553, Note_on_c, 0, 65, 96
1, 218554, Note_on_c, 0, 71, 83
1, 218557, Note_on_c, 0, 67, 86
1, 218590, Note_off_c, 0, 62, 64
1, 218607, Note_off_c, 0, 72, 52
1, 218664, Note_off_c, 0, 55, 62
1, 218666, Note_on_c, 0, 48, 91
1, 218683, Note_on_c, 0, 51, 50
1, 218684, Note_on_c, 0, 74, 93
1, 218695, Note_off_c, 0, 71, 63
1, 218700, Note_off_c, 0, 48, 66
1, 218714, Note_off_c, 0, 51, 57
1, 218721, Note_off_c, 0, 65, 59
1, 218725, Note_off_c, 0, 67, 56
1, 218800, Note_on_c, 0, 39, 48
1, 218802, Poly_aftertouch_c, 0, 72, 0
1, 218837, Note_off_c, 0, 39, 59
1, 218847, Control_c, 0, 64, 97
1, 218862, Control_c, 0, 64, 61
1, 218870, Note_off_c, 0, 74, 59
1, 218873, Note_on_c, 0, 36, 100
1, 218877, Control_c, 0, 64, 0
1, 218884, Note_on_c, 0, 70, 90
1, 218887, Note_on_c, 0, 64, 96
1, 218888, Note_on_c, 0, 67, 77
1, 218951, Control_c, 0, 64, 67
1, 218965, Control_c, 0, 64, 127
1, 218995, Note_off_c, 0, 64, 62
1, 219007, Note_off_c, 0, 67, 55
1, 219050, Note_off_c, 0, 70, 63
1, 219080, Note_off_c, 0, 36, 60
1, 219089, Note_on_c, 0, 48, 84
1, 219122, Note_off_c, 0, 48, 65
1, 219216, Note_on_c, 0, 55, 88
1, 219218, Note_on_c, 0, 58, 86
1, 219308, Note_on_c, 0, 85, 97
1, 219315, Note_on_c, 0, 82, 91
1, 219317, Note_on_c, 0, 64, 90
1, 219355, Note_off_c, 0, 55, 62
1, 219368, Note_off_c, 0, 58, 63
1, 219370, Note_off_c, 0, 64, 67
1, 219418, Note_off_c, 0, 85, 54
1, 219448, Control_c, 0, 64, 93
1, 219449, Note_on_c, 0, 65, 103
1, 219449, Note_on_c, 0, 80, 93
1, 219451, Note_on_c, 0, 73, 99
1, 219452, Note_on_c, 0, 61, 97
1, 219454, Note_on_c, 0, 58, 95
1, 219454, Note_on_c, 0, 77, 82
1, 219463, Control_c, 0, 64, 58
1, 219478, Control_c, 0, 64, 0
1, 219493, Control_c, 0, 64, 38
1, 219507, Control_c, 0, 64, 73
1, 219522, Note_off_c, 0, 82, 60
1, 219522, Control_c, 0, 64, 116
1, 219522, Note_off_c, 0, 65, 55
1, 219537, Control_c, 0, 64, 127
1, 219582, Note_on_c, 0, 56, 100
1, 219588, Note_off_c, 0, 61, 62
1, 219657, Note_off_c, 0, 58, 59
1, 219691, Note_off_c, 0, 56, 64
1, 219696, Note_off_c, 0, 77, 26
1, 219708, Note_off_c, 0, 80, 28
1, 219709, Note_off_c, 0, 73, 58
1, 219776, Note_on_c, 0, 48, 100
1, 219785, Note_on_c, 0, 84, 93
1, 219793, Note_on_c, 0, 80, 90
1, 219819, Note_off_c, 0, 48, 64
1, 219850, Note_off_c, 0, 84, 61
1, 219892, Control_c, 0, 64, 80
1, 219897, Note_on_c, 0, 79, 93
1, 219899, Note_on_c, 0, 72, 100
1, 219902, Note_on_c, 0, 76, 90
1, 219907, Control_c, 0, 64, 60
1, 219910, Note_on_c, 0, 67, 94
1, 219910, Note_on_c, 0, 64, 82
1, 219913, Note_on_c, 0, 61, 57
1, 219914, Note_off_c, 0, 61, 127
1, 219917, Note_on_c, 0, 60, 82
1, 219922, Control_c, 0, 64, 65
1, 219937, Control_c, 0, 64, 82
1, 219940, Poly_aftertouch_c, 0, 61, 0
1, 219952, Control_c, 0, 64, 127
1, 219956, Note_off_c, 0, 67, 59
1, 219975, Note_off_c, 0, 80, 61
1, 219985, Note_off_c, 0, 79, 65
1, 220004, Note_off_c, 0, 76, 62
1, 220014, Note_on_c, 0, 58, 90
1, 220014, Note_off_c, 0, 64, 62
1, 220038, Note_off_c, 0, 60, 63
1, 220086, Note_off_c, 0, 58, 63
1, 220122, Note_off_c, 0, 72, 55
1, 220175, Note_on_c, 0, 48, 99
1, 220194, Note_on_c, 0, 82, 97
1, 220202, Note_on_c, 0, 79, 77
1, 220220, Note_off_c, 0, 48, 63
1, 220252, Note_off_c, 0, 79, 61
1, 220291, Note_off_c, 0, 82, 48
1, 220300, Note_on_c, 0, 77, 83
1, 220301, Note_on_c, 0, 73, 98
1, 220303, Note_on_c, 0, 70, 98
1, 220309, Note_on_c, 0, 68, 104
1, 220318, Note_on_c, 0, 61, 82
1, 220327, Note_on_c, 0, 65, 61
1, 220345, Note_off_c, 0, 68, 60
1, 220347, Note_off_c, 0, 70, 65
1, 220357, Note_off_c, 0, 65, 67
1, 220372, Note_off_c, 0, 77, 65
1, 220380, Note_off_c, 0, 61, 55
1, 220392, Poly_aftertouch_c, 0, 63, 127
1, 220393, Note_off_c, 0, 73, 58
1, 220417, Note_on_c, 0, 58, 94
1, 220417, Note_on_c, 0, 80, 87
1, 220428, Poly_aftertouch_c, 0, 63, 0
1, 220470, Note_off_c, 0, 80, 66
1, 220470, Note_on_c, 0, 64, 17
1, 220480, Note_off_c, 0, 58, 58
1, 220493, Control_c, 0, 64, 94
1, 220508, Control_c, 0, 64, 55
1, 220513, Note_off_c, 0, 64, 0
1, 220522, Control_c, 0, 64, 0
1, 220539, Note_on_c, 0, 67, 101
1, 220541, Note_on_c, 0, 64, 30
1, 220542, Note_on_c, 0, 70, 97
1, 220543, Note_on_c, 0, 72, 87
1, 220543, Note_on_c, 0, 76, 85
1, 220549, Note_on_c, 0, 75, 79
1, 220557, Note_on_c, 0, 60, 78
1, 220562, Note_on_c, 0, 61, 65
1, 220567, Control_c, 0, 64, 78
1, 220572, Note_on_c, 0, 69, 42
1, 220573, Note_off_c, 0, 69, 127
1, 220575, Note_on_c, 0, 62, 52
1, 220581, Control_c, 0, 64, 127
1, 220588, Note_off_c, 0, 70, 67
1, 220591, Note_off_c, 0, 61, 62
1, 220604, Note_off_c, 0, 62, 61
1, 220610, Note_off_c, 0, 64, 61
1, 220630, Note_off_c, 0, 60, 62
1, 220682, Note_on_c, 0, 57, 81
1, 220697, Note_off_c, 0, 72, 0
1, 220697, Note_on_c, 0, 72, 4
1, 220714, Note_off_c, 0, 57, 62
1, 220794, Note_on_c, 0, 58, 96
1, 220829, Note_on_c, 0, 59, 62
1, 220831, Note_off_c, 0, 76, 38
1, 220832, Note_on_c, 0, 60, 59
1, 220837, Note_off_c, 0, 67, 31
1, 220839, Note_off_c, 0, 58, 66
1, 220851, Note_off_c, 0, 75, 47
1, 220853, Note_off_c, 0, 60, 66
1, 220857, Note_off_c, 0, 59, 65
1, 220870, Note_off_c, 0, 72, 36
1, 220902, Note_on_c, 0, 48, 90
1, 220903, Note_on_c, 0, 79, 89
1, 220941, Note_off_c, 0, 48, 62
1, 220959, Note_off_c, 0, 79, 59
1, 221021, Control_c, 0, 64, 88
1, 221025, Note_on_c, 0, 73, 107
1, 221028, Note_on_c, 0, 65, 99
1, 221028, Note_on_c, 0, 71, 101
1, 221035, Control_c, 0, 64, 67
1, 221040, Note_on_c, 0, 61, 89
1, 221050, Control_c, 0, 64, 65
1, 221052, Note_on_c, 0, 66, 67
1, 221053, Note_off_c, 0, 66, 127
1, 221057, Note_on_c, 0, 63, 59
1, 221065, Control_c, 0, 64, 76
1, 221071, Note_on_c, 0, 67, 33
1, 221078, Note_off_c, 0, 71, 62
1, 221079, Control_c, 0, 64, 97
1, 221081, Note_off_c, 0, 63, 59
1, 221094, Control_c, 0, 64, 127
1, 221097, Note_off_c, 0, 67, 36
1, 221165, Note_on_c, 0, 56, 88
1, 221173, Note_off_c, 0, 61, 61
1, 221212, Note_off_c, 0, 56, 65
1, 221296, Note_on_c, 0, 59, 96
1, 221344, Note_off_c, 0, 59, 62
1, 221365, Note_off_c, 0, 65, 47
1, 221416, Poly_aftertouch_c, 0, 57, 0
1, 221421, Note_on_c, 0, 47, 92
1, 221426, Note_on_c, 0, 77, 96
1, 221441, Note_off_c, 0, 73, 59
1, 221458, Note_off_c, 0, 47, 68
1, 221531, Note_off_c, 0, 77, 53
1, 221591, Note_on_c, 0, 67, 101
1, 221593, Note_on_c, 0, 72, 83
1, 221594, Note_on_c, 0, 70, 100
1, 221600, Note_on_c, 0, 71, 90
1, 221601, Note_on_c, 0, 64, 76
1, 221603, Note_on_c, 0, 60, 75
1, 221604, Note_on_c, 0, 68, 74
1, 221608, Note_on_c, 0, 61, 62
1, 221621, Note_off_c, 0, 68, 68
1, 221633, Note_off_c, 0, 70, 66
1, 221633, Note_off_c, 0, 61, 60
1, 221673, Note_off_c, 0, 71, 60
1, 221731, Note_off_c, 0, 67, 0
1, 221759, Note_on_c, 0, 55, 105
1, 221763, Note_on_c, 0, 76, 102
1, 221769, Poly_aftertouch_c, 0, 67, 127
1, 221779, Note_off_c, 0, 60, 68
1, 221785, Note_off_c, 0, 72, 62
1, 221791, Note_off_c, 0, 55, 69
1, 221795, Poly_aftertouch_c, 0, 67, 0
1, 221809, Note_off_c, 0, 64, 33
1, 221995, Note_off_c, 0, 76, 54
1, 222020, Control_c, 0, 64, 80
1, 222035, Control_c, 0, 64, 0
1, 222039, Note_on_c, 0, 40, 115
1, 222044, Note_on_c, 0, 28, 87
1, 222044, Note_on_c, 0, 64, 98
1, 222046, Note_on_c, 0, 71, 93
1, 222047, Note_on_c, 0, 67, 86
1, 222057, Poly_aftertouch_c, 0, 34, 0
1, 222064, Note_on_c, 0, 32, 51
1, 222078, Note_on_c, 0, 33, 36
1, 222080, Control_c, 0, 64, 61
1, 222086, Note_on_c, 0, 35, 22
1, 222087, Note_off_c, 0, 35, 127
1, 222095, Control_c, 0, 64, 80
1, 222101, Note_on_c, 0, 31, 20
1, 222101, Note_off_c, 0, 32, 35
1, 222109, Control_c, 0, 64, 127
1, 222122, Note_off_c, 0, 33, 52
1, 222124, Note_off_c, 0, 64, 64
1, 222146, Poly_aftertouch_c, 0, 35, 0
1, 222161, Note_off_c, 0, 31, 43
1, 222164, Note_off_c, 0, 67, 62
1, 222181, Note_off_c, 0, 71, 63
1, 222333, Note_off_c, 0, 28, 55
1, 222394, Note_off_c, 0, 40, 62
1, 222432, Note_on_c, 0, 85, 105
1, 222434, Note_on_c, 0, 76, 98
1, 222637, Note_on_c, 0, 40, 88
1, 222637, Note_on_c, 0, 47, 96
1, 222645, Note_on_c, 0, 79, 90
1, 222649, Note_on_c, 0, 75, 92
1, 222661, Note_on_c, 0, 41, 64
1, 222670, Note_off_c, 0, 76, 59
1, 222673, Note_off_c, 0, 85, 63
1, 222688, Note_off_c, 0, 41, 57
1, 222725, Poly_aftertouch_c, 0, 44, 127
1, 222728, Note_off_c, 0, 40, 56
1, 222760, Note_off_c, 0, 79, 51
1, 222767, Poly_aftertouch_c, 0, 44, 0
1, 222789, Note_off_c, 0, 47, 49
1, 222810, Note_on_c, 0, 52, 93
1, 222813, Note_on_c, 0, 74, 103
1, 222813, Note_on_c, 0, 83, 97
1, 222844, Note_off_c, 0, 75, 60
1, 222858, Note_off_c, 0, 52, 63
1, 222966, Note_on_c, 0, 59, 96
1, 222968, Note_on_c, 0, 52, 77
1, 222969, Note_on_c, 0, 75, 90
1, 222969, Note_on_c, 0, 78, 93
1, 222983, Note_on_c, 0, 47, 64
1, 222993, Note_off_c, 0, 83, 59
1, 222996, Note_off_c, 0, 74, 67
1, 223001, Note_off_c, 0, 47, 66
1, 223010, Note_off_c, 0, 59, 65
1, 223011, Note_on_c, 0, 51, 16
1, 223017, Note_off_c, 0, 52, 56
1, 223057, Note_off_c, 0, 51, 56
1, 223081, Note_off_c, 0, 78, 66
1, 223091, Note_off_c, 0, 75, 60
1, 223108, Note_on_c, 0, 74, 102
1, 223109, Note_on_c, 0, 81, 92
1, 223212, Note_off_c, 0, 81, 60
1, 223215, Note_on_c, 0, 76, 81
1, 223216, Note_on_c, 0, 73, 94
1, 223234, Note_off_c, 0, 74, 67
1, 223274, Note_off_c, 0, 76, 63
1, 223296, Note_off_c, 0, 73, 62
1, 223315, Note_on_c, 0, 72, 105
1, 223319, Note_on_c, 0, 79, 92
1, 223359, Note_off_c, 0, 72, 67
1, 223366, Note_off_c, 0, 79, 62
1, 223410, Note_on_c, 0, 71, 102
1, 223424, Note_on_c, 0, 64, 70
1, 223427, Note_on_c, 0, 59, 74
1, 223444, Note_on_c, 0, 65, 60
1, 223445, Note_off_c, 0, 59, 64
1, 223450, Note_off_c, 0, 64, 69
1, 223456, Note_off_c, 0, 71, 69
1, 223465, Note_off_c, 0, 65, 63
1, 223519, Note_on_c, 0, 70, 105
1, 223524, Note_on_c, 0, 78, 94
1, 223576, Note_off_c, 0, 70, 58
1, 223584, Note_off_c, 0, 78, 56
1, 223612, Note_on_c, 0, 69, 85
1, 223618, Note_on_c, 0, 73, 85
1, 223637, Note_off_c, 0, 73, 71
1, 223652, Note_on_c, 0, 72, 64
1, 223679, Note_off_c, 0, 69, 0
1, 223697, Note_on_c, 0, 68, 94
1, 223707, Note_on_c, 0, 76, 81
1, 223719, Poly_aftertouch_c, 0, 69, 0
1, 223730, Note_off_c, 0, 72, 60
1, 223784, Control_c, 0, 64, 68
1, 223798, Control_c, 0, 64, 0
1, 223803, Note_on_c, 0, 59, 101
1, 223803, Note_on_c, 0, 71, 94
1, 223807, Note_on_c, 0, 67, 95
1, 223808, Note_on_c, 0, 52, 82
1, 223824, Note_on_c, 0, 47, 81
1, 223824, Note_off_c, 0, 76, 0
1, 223834, Note_off_c, 0, 68, 31
1, 223851, Control_c, 0, 64, 47
1, 223857, Poly_aftertouch_c, 0, 76, 0
1, 223860, Note_off_c, 0, 59, 61
1, 223866, Control_c, 0, 64, 127
1, 223867, Note_off_c, 0, 67, 63
1, 223869, Note_on_c, 0, 72, 45
1, 223884, Note_off_c, 0, 47, 62
1, 223886, Note_off_c, 0, 71, 64
1, 223894, Note_off_c, 0, 72, 58
1, 223895, Note_off_c, 0, 52, 59
1, 224006, Note_on_c, 0, 76, 91
1, 224007, Note_on_c, 0, 85, 97
1, 224046, Note_off_c, 0, 76, 60
1, 224053, Note_off_c, 0, 85, 64
1, 224101, Note_on_c, 0, 52, 98
1, 224108, Note_on_c, 0, 47, 77
1, 224109, Note_on_c, 0, 79, 83
1, 224111, Note_on_c, 0, 75, 86
1, 224112, Note_on_c, 0, 40, 78
1, 224132, Note_off_c, 0, 52, 69
1, 224146, Note_off_c, 0, 40, 66
1, 224153, Note_off_c, 0, 47, 64
1, 224156, Note_off_c, 0, 79, 63
1, 224188, Note_off_c, 0, 75, 60
1, 224203, Note_on_c, 0, 74, 95
1, 224204, Note_on_c, 0, 83, 87
1, 224267, Note_off_c, 0, 83, 61
1, 224268, Note_off_c, 0, 74, 51
1, 224271, Note_on_c, 0, 78, 83
1, 224279, Note_on_c, 0, 75, 80
1, 224320, Note_off_c, 0, 78, 66
1, 224345, Note_off_c, 0, 75, 60
1, 224348, Note_on_c, 0, 74, 92
1, 224353, Note_on_c, 0, 32, 33
1, 224354, Note_on_c, 0, 81, 82
1, 224398, Note_off_c, 0, 32, 52
1, 224408, Note_off_c, 0, 81, 61
1, 224414, Note_on_c, 0, 76, 83
1, 224417, Note_off_c, 0, 74, 63
1, 224420, Note_on_c, 0, 73, 88
1, 224424, Note_on_c, 0, 40, 98
1, 224430, Note_on_c, 0, 28, 90
1, 224455, Note_off_c, 0, 28, 63
1, 224470, Note_off_c, 0, 40, 67
1, 224470, Note_off_c, 0, 76, 57
1, 224480, Note_off_c, 0, 73, 65
1, 224485, Note_on_c, 0, 72, 84
1, 224490, Note_on_c, 0, 79, 78
1, 224511, Note_off_c, 0, 79, 68
1, 224518, Note_off_c, 0, 72, 59
1, 224519, Poly_aftertouch_c, 0, 30, 0
1, 224557, Note_on_c, 0, 71, 75
1, 224557, Poly_aftertouch_c, 0, 30, 0
1, 224629, Note_on_c, 0, 70, 93
1, 224635, Note_off_c, 0, 71, 60
1, 224636, Note_on_c, 0, 78, 79
1, 224668, Note_off_c, 0, 70, 62
1, 224682, Note_off_c, 0, 78, 60
1, 224709, Note_on_c, 0, 47, 85
1, 224715, Note_on_c, 0, 40, 76
1, 224718, Note_on_c, 0, 72, 61
1, 224745, Note_off_c, 0, 72, 65
1, 224759, Note_on_c, 0, 69, 24
1, 224769, Note_off_c, 0, 47, 61
1, 224780, Note_on_c, 0, 76, 82
1, 224798, Note_on_c, 0, 52, 90
1, 224806, Note_off_c, 0, 40, 56
1, 224816, Note_off_c, 0, 69, 63
1, 224822, Note_off_c, 0, 52, 65
1, 224826, Note_on_c, 0, 67, 63
1, 224833, Note_off_c, 0, 76, 61
1, 224852, Note_off_c, 0, 67, 63
1, 224876, Note_on_c, 0, 71, 57
1, 224896, Note_on_c, 0, 59, 103
1, 224899, Poly_aftertouch_c, 0, 68, 0
1, 224903, Note_on_c, 0, 70, 6
1, 224907, Note_on_c, 0, 47, 65
1, 224917, Note_on_c, 0, 65, 78
1, 224922, Note_on_c, 0, 76, 65
1, 224923, Note_off_c, 0, 47, 69
1, 224923, Note_off_c, 0, 59, 70
1, 224925, Note_on_c, 0, 74, 71
1, 224930, Note_off_c, 0, 71, 65
1, 224944, Note_on_c, 0, 48, 28
1, 224946, Note_off_c, 0, 76, 67
1, 224954, Note_off_c, 0, 70, 49
1, 224968, Note_off_c, 0, 74, 63
1, 224973, Note_off_c, 0, 65, 64
1, 224982, Note_off_c, 0, 48, 45
1, 224984, Note_on_c, 0, 66, 67
1, 225055, Note_on_c, 0, 68, 59
1, 225064, Note_on_c, 0, 73, 87
1, 225088, Note_off_c, 0, 68, 64
1, 225123, Note_on_c, 0, 64, 67
1, 225171, Note_off_c, 0, 64, 56
1, 225173, Note_off_c, 0, 73, 61
1, 225176, Note_on_c, 0, 67, 81
1, 225202, Note_off_c, 0, 66, 61
1, 225217, Poly_aftertouch_c, 0, 34, 127
1, 225222, Control_c, 0, 64, 72
1, 225237, Control_c, 0, 64, 0
1, 225240, Note_on_c, 0, 43, 100
1, 225248, Note_on_c, 0, 31, 91
1, 225253, Poly_aftertouch_c, 0, 34, 0
1, 225257, Note_on_c, 0, 64, 99
1, 225279, Note_off_c, 0, 67, 65
1, 225293, Note_off_c, 0, 64, 67
1, 225296, Note_on_c, 0, 74, 41
1, 225296, Control_c, 0, 64, 83
1, 225318, Control_c, 0, 64, 127
1, 225332, Note_off_c, 0, 74, 34
1, 225342, Poly_aftertouch_c, 0, 35, 127
1, 225373, Note_off_c, 0, 31, 61
1, 225379, Poly_aftertouch_c, 0, 35, 0
1, 225389, Poly_aftertouch_c, 0, 39, 127
1, 225422, Note_off_c, 0, 43, 58
1, 225443, Poly_aftertouch_c, 0, 39, 0
1, 225499, Note_on_c, 0, 78, 101
1, 225501, Note_on_c, 0, 88, 104
1, 225612, Note_off_c, 0, 78, 59
1, 225642, Note_on_c, 0, 50, 95
1, 225647, Note_on_c, 0, 83, 93
1, 225648, Note_on_c, 0, 43, 87
1, 225654, Note_on_c, 0, 79, 95
1, 225669, Note_off_c, 0, 88, 63
1, 225696, Note_off_c, 0, 83, 66
1, 225700, Note_off_c, 0, 79, 66
1, 225746, Note_off_c, 0, 50, 64
1, 225770, Note_on_c, 0, 86, 99
1, 225773, Note_on_c, 0, 78, 97
1, 225774, Note_on_c, 0, 55, 98
1, 225792, Note_off_c, 0, 43, 59
1, 225812, Note_off_c, 0, 55, 68
1, 225853, Note_off_c, 0, 78, 60
1, 225885, Note_off_c, 0, 86, 65
1, 225887, Note_on_c, 0, 81, 80
1, 225889, Note_on_c, 0, 76, 89
1, 225907, Note_on_c, 0, 62, 106
1, 225917, Note_on_c, 0, 55, 80
1, 225921, Note_on_c, 0, 50, 69
1, 225928, Note_off_c, 0, 76, 66
1, 225930, Note_off_c, 0, 81, 65
1, 225936, Note_off_c, 0, 55, 73
1, 225938, Note_off_c, 0, 62, 68
1, 225942, Note_off_c, 0, 50, 64
1, 226003, Note_on_c, 0, 78, 84
1, 226003, Note_on_c, 0, 85, 83
1, 226051, Note_on_c, 0, 80, 4
1, 226091, Note_off_c, 0, 85, 64
1, 226092, Note_off_c, 0, 78, 58
1, 226096, Note_on_c, 0, 76, 89
1, 226098, Note_on_c, 0, 79, 76
1, 226099, Poly_aftertouch_c, 0, 77, 127
1, 226116, Note_off_c, 0, 80, 51
1, 226125, Note_off_c, 0, 79, 62
1, 226137, Note_off_c, 0, 76, 66
1, 226137, Poly_aftertouch_c, 0, 77, 0
1, 226197, Note_on_c, 0, 75, 88
1, 226201, Note_on_c, 0, 83, 84
1, 226262, Note_on_c, 0, 74, 110
1, 226265, Note_on_c, 0, 78, 92
1, 226269, Note_on_c, 0, 67, 76
1, 226276, Note_on_c, 0, 62, 71
1, 226277, Note_off_c, 0, 75, 58
1, 226281, Note_off_c, 0, 83, 62
1, 226292, Note_off_c, 0, 62, 68
1, 226295, Note_off_c, 0, 67, 66
1, 226298, Note_off_c, 0, 74, 71
1, 226310, Note_off_c, 0, 78, 66
1, 226363, Note_on_c, 0, 81, 92
1, 226364, Note_on_c, 0, 73, 92
1, 226376, Poly_aftertouch_c, 0, 76, 0
1, 226440, Note_off_c, 0, 73, 63
1, 226445, Note_on_c, 0, 76, 85
1, 226447, Note_off_c, 0, 81, 59
1, 226452, Note_on_c, 0, 72, 86
1, 226473, Note_off_c, 0, 76, 62
1, 226487, Note_off_c, 0, 72, 67
1, 226542, Note_on_c, 0, 70, 93
1, 226549, Note_on_c, 0, 79, 87
1, 226557, Control_c, 0, 64, 101
1, 226572, Control_c, 0, 64, 61
1, 226587, Control_c, 0, 64, 0
1, 226602, Note_off_c, 0, 70, 56
1, 226632, Note_on_c, 0, 74, 87
1, 226635, Note_on_c, 0, 71, 90
1, 226636, Note_on_c, 0, 62, 96
1, 226639, Note_on_c, 0, 55, 81
1, 226640, Note_off_c, 0, 79, 61
1, 226647, Note_on_c, 0, 50, 77
1, 226657, Note_off_c, 0, 71, 67
1, 226663, Note_off_c, 0, 62, 64
1, 226666, Note_off_c, 0, 55, 69
1, 226672, Note_off_c, 0, 74, 67
1, 226674, Note_off_c, 0, 50, 70
1, 226676, Control_c, 0, 64, 127
1, 226789, Note_on_c, 0, 89, 74
1, 226793, Note_on_c, 0, 79, 73
1, 226796, Note_on_c, 0, 88, 74
1, 226820, Note_off_c, 0, 79, 70
1, 226826, Note_off_c, 0, 89, 62
1, 226856, Note_off_c, 0, 88, 52
1, 226874, Note_on_c, 0, 83, 86
1, 226887, Note_on_c, 0, 79, 89
1, 226890, Note_on_c, 0, 55, 98
1, 226899, Note_on_c, 0, 50, 76
1, 226901, Note_on_c, 0, 43, 80
1, 226908, Note_off_c, 0, 55, 72
1, 226908, Note_off_c, 0, 83, 61
1, 226911, Note_off_c, 0, 79, 62
1, 226932, Note_off_c, 0, 50, 67
1, 226934, Note_off_c, 0, 43, 65
1, 226975, Note_on_c, 0, 86, 77
1, 226978, Note_on_c, 0, 78, 72
1, 227027, Note_off_c, 0, 86, 63
1, 227038, Note_on_c, 0, 81, 78
1, 227045, Note_off_c, 0, 78, 63
1, 227060, Note_on_c, 0, 76, 72
1, 227063, Note_off_c, 0, 81, 64
1, 227086, Note_off_c, 0, 76, 63
1, 227127, Note_on_c, 0, 85, 86
1, 227133, Note_on_c, 0, 78, 76
1, 227187, Note_on_c, 0, 80, 62
1, 227198, Note_on_c, 0, 43, 95
1, 227200, Note_off_c, 0, 85, 64
1, 227205, Note_on_c, 0, 31, 76
1, 227205, Note_on_c, 0, 79, 82
1, 227207, Note_off_c, 0, 80, 63
1, 227213, Note_on_c, 0, 76, 80
1, 227223, Note_off_c, 0, 79, 70
1, 227226, Note_off_c, 0, 78, 58
1, 227237, Note_off_c, 0, 31, 59
1, 227240, Note_off_c, 0, 43, 67
1, 227242, Note_off_c, 0, 76, 65
1, 227291, Note_on_c, 0, 75, 89
1, 227295, Note_on_c, 0, 83, 84
1, 227347, Note_on_c, 0, 78, 72
1, 227356, Note_off_c, 0, 83, 63
1, 227368, Note_off_c, 0, 75, 66
1, 227375, Note_on_c, 0, 74, 87
1, 227396, Note_off_c, 0, 78, 64
1, 227401, Note_off_c, 0, 74, 66
1, 227455, Note_on_c, 0, 73, 86
1, 227456, Note_on_c, 0, 81, 85
1, 227499, Note_on_c, 0, 76, 72
1, 227501, Note_on_c, 0, 50, 79
1, 227504, Note_on_c, 0, 43, 77
1, 227529, Note_off_c, 0, 73, 61
1, 227538, Note_off_c, 0, 81, 60
1, 227541, Note_on_c, 0, 72, 88
1, 227570, Note_off_c, 0, 76, 63
1, 227581, Note_off_c, 0, 72, 67
1, 227584, Note_off_c, 0, 50, 58
1, 227596, Note_off_c, 0, 43, 61
1, 227603, Note_on_c, 0, 55, 71
1, 227630, Note_off_c, 0, 55, 66
1, 227636, Note_on_c, 0, 70, 92
1, 227640, Note_on_c, 0, 79, 86
1, 227684, Note_on_c, 0, 60, 94
1, 227690, Note_on_c, 0, 50, 76
1, 227710, Note_on_c, 0, 74, 69
1, 227711, Note_off_c, 0, 60, 66
1, 227712, Note_off_c, 0, 50, 68
1, 227717, Note_off_c, 0, 79, 64
1, 227717, Poly_aftertouch_c, 0, 77, 127
1, 227727, Note_off_c, 0, 70, 64
1, 227730, Note_on_c, 0, 71, 78
1, 227737, Note_on_c, 0, 73, 49
1, 227755, Poly_aftertouch_c, 0, 77, 0
1, 227759, Note_off_c, 0, 74, 65
1, 227760, Note_off_c, 0, 73, 37
1, 227765, Note_off_c, 0, 71, 63
1, 227819, Note_on_c, 0, 70, 95
1, 227820, Note_on_c, 0, 78, 94
1, 227899, Note_on_c, 0, 73, 81
1, 227910, Note_off_c, 0, 78, 62
1, 227911, Note_on_c, 0, 69, 83
1, 227912, Note_off_c, 0, 70, 61
1, 227946, Note_off_c, 0, 69, 64
1, 227960, Note_off_c, 0, 73, 64
1, 228002, Note_on_c, 0, 68, 91
1, 228007, Note_on_c, 0, 76, 90
1, 228100, Control_c, 0, 64, 121
1, 228104, Note_off_c, 0, 68, 59
1, 228115, Control_c, 0, 64, 63
1, 228127, Note_on_c, 0, 47, 103
1, 228130, Control_c, 0, 64, 0
1, 228133, Note_on_c, 0, 40, 69
1, 228136, Note_on_c, 0, 35, 81
1, 228138, Note_on_c, 0, 67, 92
1, 228140, Note_on_c, 0, 71, 85
1, 228172, Note_off_c, 0, 76, 55
1, 228174, Control_c, 0, 64, 72
1, 228188, Control_c, 0, 64, 127
1, 228199, Note_off_c, 0, 67, 63
1, 228230, Note_off_c, 0, 71, 67
1, 228483, Note_on_c, 0, 91, 98
1, 228484, Note_on_c, 0, 83, 85
1, 228486, Note_on_c, 0, 79, 94
1, 228486, Note_on_c, 0, 86, 85
1, 228566, Note_on_c, 0, 88, 20
1, 228623, Note_off_c, 0, 91, 62
1, 228625, Note_off_c, 0, 88, 45
1, 228638, Note_off_c, 0, 79, 52
1, 228643, Note_off_c, 0, 35, 37
1, 228643, Note_off_c, 0, 86, 63
1, 228651, Note_off_c, 0, 83, 62
1, 228654, Note_off_c, 0, 40, 60
1, 228701, Note_off_c, 0, 47, 61
1, 228790, Note_on_c, 0, 78, 98
1, 228792, Note_on_c, 0, 90, 93
1, 228793, Note_on_c, 0, 85, 80
1, 228799, Note_on_c, 0, 81, 79
1, 228909, Note_off_c, 0, 90, 64
1, 228912, Note_off_c, 0, 81, 61
1, 228914, Note_off_c, 0, 78, 60
1, 228921, Note_off_c, 0, 85, 62
1, 228941, Note_on_c, 0, 64, 97
1, 228947, Note_on_c, 0, 59, 78
1, 228964, Note_on_c, 0, 52, 67
1, 228972, Note_off_c, 0, 64, 66
1, 228985, Note_off_c, 0, 59, 61
1, 228993, Note_off_c, 0, 52, 65
1, 229017, Note_on_c, 0, 76, 98
1, 229019, Note_on_c, 0, 83, 82
1, 229020, Note_on_c, 0, 88, 85
1, 229025, Note_on_c, 0, 79, 79
1, 229031, Note_on_c, 0, 86, 82
1, 229126, Note_off_c, 0, 79, 59
1, 229143, Note_off_c, 0, 86, 48
1, 229148, Note_off_c, 0, 88, 59
1, 229157, Note_off_c, 0, 76, 55
1, 229171, Note_off_c, 0, 83, 63
1, 229225, Note_on_c, 0, 50, 100
1, 229235, Note_on_c, 0, 43, 83
1, 229240, Note_on_c, 0, 38, 79
1, 229252, Note_on_c, 0, 86, 94
1, 229253, Note_on_c, 0, 78, 87
1, 229255, Note_on_c, 0, 74, 95
1, 229255, Control_c, 0, 64, 92
1, 229260, Note_on_c, 0, 83, 84
1, 229270, Control_c, 0, 64, 71
1, 229285, Control_c, 0, 64, 70
1, 229298, Note_on_c, 0, 81, 29
1, 229299, Note_off_c, 0, 81, 127
1, 229300, Control_c, 0, 64, 79
1, 229315, Control_c, 0, 64, 97
1, 229330, Control_c, 0, 64, 127
1, 229330, Note_off_c, 0, 38, 55
1, 229353, Note_off_c, 0, 86, 62
1, 229364, Note_off_c, 0, 43, 63
1, 229364, Note_off_c, 0, 74, 60
1, 229369, Note_off_c, 0, 83, 65
1, 229380, Note_off_c, 0, 50, 64
1, 229394, Note_off_c, 0, 78, 60
1, 229456, Note_on_c, 0, 84, 85
1, 229458, Note_on_c, 0, 76, 86
1, 229458, Note_on_c, 0, 81, 80
1, 229461, Note_on_c, 0, 72, 82
1, 229481, Note_off_c, 0, 72, 66
1, 229487, Note_off_c, 0, 84, 59
1, 229512, Note_off_c, 0, 76, 61
1, 229520, Note_off_c, 0, 81, 61
1, 229637, Note_on_c, 0, 71, 92
1, 229638, Note_on_c, 0, 83, 93
1, 229640, Note_on_c, 0, 74, 85
1, 229642, Note_on_c, 0, 79, 78
1, 229666, Note_on_c, 0, 81, 56
1, 229695, Note_off_c, 0, 81, 50
1, 229705, Note_off_c, 0, 83, 60
1, 229720, Note_off_c, 0, 71, 61
1, 229731, Note_on_c, 0, 67, 89
1, 229732, Note_on_c, 0, 62, 71
1, 229732, Note_on_c, 0, 69, 82
1, 229732, Note_off_c, 0, 79, 60
1, 229740, Note_off_c, 0, 74, 62
1, 229744, Note_on_c, 0, 55, 69
1, 229749, Note_off_c, 0, 69, 73
1, 229761, Note_off_c, 0, 67, 63
1, 229781, Note_off_c, 0, 62, 63
1, 229787, Note_off_c, 0, 55, 65
1, 229833, Note_on_c, 0, 77, 84
1, 229833, Note_on_c, 0, 81, 86
1, 229833, Poly_aftertouch_c, 0, 57, 127
1, 229834, Note_on_c, 0, 72, 82
1, 229835, Note_on_c, 0, 67, 89
1, 229835, Note_on_c, 0, 69, 80
1, 229852, Note_on_c, 0, 71, 62
1, 229855, Note_on_c, 0, 79, 63
1, 229857, Poly_aftertouch_c, 0, 57, 0
1, 229876, Note_off_c, 0, 79, 60
1, 229887, Note_off_c, 0, 71, 46
1, 229925, Poly_aftertouch_c, 0, 75, 127
1, 229926, Note_off_c, 0, 81, 59
1, 229928, Note_off_c, 0, 69, 53
1, 229929, Note_off_c, 0, 67, 55
1, 229938, Note_on_c, 0, 39, 42
1, 229947, Note_off_c, 0, 72, 61
1, 229963, Note_off_c, 0, 77, 60
1, 229969, Poly_aftertouch_c, 0, 75, 0
1, 229973, Note_off_c, 0, 39, 53
1, 230004, Control_c, 0, 64, 81
1, 230009, Note_on_c, 0, 47, 97
1, 230017, Note_on_c, 0, 40, 78
1, 230019, Note_on_c, 0, 35, 78
1, 230019, Control_c, 0, 64, 0
1, 230020, Note_on_c, 0, 67, 100
1, 230021, Note_on_c, 0, 76, 93
1, 230026, Note_on_c, 0, 79, 92
1, 230027, Note_on_c, 0, 71, 91
1, 230037, Note_on_c, 0, 37, 47
1, 230048, Control_c, 0, 64, 68
1, 230060, Note_off_c, 0, 67, 65
1, 230063, Control_c, 0, 64, 92
1, 230064, Note_off_c, 0, 71, 64
1, 230070, Note_off_c, 0, 37, 54
1, 230073, Note_off_c, 0, 35, 63
1, 230078, Note_off_c, 0, 76, 63
1, 230078, Control_c, 0, 64, 127
1, 230093, Note_off_c, 0, 79, 64
1, 230128, Note_off_c, 0, 40, 59
1, 230142, Note_off_c, 0, 47, 63
1, 230211, Note_on_c, 0, 91, 103
1, 230212, Note_on_c, 0, 79, 100
1, 230214, Note_on_c, 0, 83, 90
1, 230214, Note_on_c, 0, 86, 92
1, 230247, Note_on_c, 0, 89, 48
1, 230248, Note_off_c, 0, 89, 127
1, 230277, Note_off_c, 0, 79, 42
1, 230289, Note_off_c, 0, 91, 63
1, 230304, Note_off_c, 0, 86, 65
1, 230309, Note_off_c, 0, 83, 62
1, 230387, Note_on_c, 0, 90, 100
1, 230388, Note_on_c, 0, 85, 91
1, 230390, Note_on_c, 0, 78, 99
1, 230395, Note_on_c, 0, 81, 84
1, 230432, Note_on_c, 0, 82, 8
1, 230433, Note_off_c, 0, 82, 127
1, 230462, Note_on_c, 0, 64, 99
1, 230470, Note_on_c, 0, 59, 80
1, 230480, Note_on_c, 0, 52, 75
1, 230482, Note_off_c, 0, 90, 64
1, 230482, Note_off_c, 0, 78, 62
1, 230482, Note_off_c, 0, 81, 59
1, 230492, Note_off_c, 0, 64, 69
1, 230504, Note_off_c, 0, 59, 62
1, 230506, Note_off_c, 0, 85, 61
1, 230516, Note_off_c, 0, 52, 64
1, 230579, Note_on_c, 0, 88, 103
1, 230581, Note_on_c, 0, 83, 93
1, 230582, Note_on_c, 0, 76, 100
1, 230587, Note_on_c, 0, 79, 81
1, 230683, Note_off_c, 0, 88, 57
1, 230686, Poly_aftertouch_c, 0, 81, 0
1, 230689, Note_off_c, 0, 76, 54
1, 230716, Note_off_c, 0, 83, 61
1, 230721, Note_off_c, 0, 79, 58
1, 230731, Note_on_c, 0, 50, 105
1, 230736, Note_on_c, 0, 43, 87
1, 230739, Control_c, 0, 64, 112
1, 230740, Note_on_c, 0, 38, 86
1, 230754, Control_c, 0, 64, 78
1, 230760, Note_on_c, 0, 44, 47
1, 230761, Note_off_c, 0, 44, 127
1, 230769, Control_c, 0, 64, 60
1, 230776, Note_on_c, 0, 81, 91
1, 230776, Note_on_c, 0, 86, 99
1, 230778, Note_on_c, 0, 74, 104
1, 230782, Note_on_c, 0, 77, 83
1, 230783, Control_c, 0, 64, 65
1, 230798, Control_c, 0, 64, 86
1, 230808, Note_off_c, 0, 38, 60
1, 230813, Control_c, 0, 64, 127
1, 230838, Note_on_c, 0, 83, 33
1, 230840, Note_off_c, 0, 50, 64
1, 230844, Note_off_c, 0, 43, 62
1, 230882, Note_off_c, 0, 83, 45
1, 230890, Note_off_c, 0, 86, 60
1, 230907, Note_off_c, 0, 74, 58
1, 230918, Note_off_c, 0, 81, 59
1, 230936, Note_off_c, 0, 77, 61
1, 230987, Note_on_c, 0, 72, 100
1, 230987, Note_on_c, 0, 84, 95
1, 230991, Note_on_c, 0, 77, 81
1, 230992, Note_on_c, 0, 81, 94
1, 231085, Note_off_c, 0, 84, 58
1, 231097, Note_off_c, 0, 72, 57
1, 231112, Note_off_c, 0, 81, 59
1, 231119, Note_off_c, 0, 77, 62
1, 231172, Note_on_c, 0, 83, 97
1, 231173, Note_on_c, 0, 71, 101
1, 231175, Note_on_c, 0, 79, 96
1, 231175, Note_on_c, 0, 76, 97
1, 231270, Note_on_c, 0, 67, 102
1, 231270, Note_on_c, 0, 62, 69
1, 231281, Note_on_c, 0, 55, 80
1, 231285, Poly_aftertouch_c, 0, 72, 0
1, 231293, Note_off_c, 0, 83, 58
1, 231298, Note_off_c, 0, 67, 69
1, 231315, Note_off_c, 0, 55, 67
1, 231318, Note_off_c, 0, 71, 58
1, 231327, Note_off_c, 0, 62, 64
1, 231336, Note_off_c, 0, 79, 56
1, 231342, Note_off_c, 0, 76, 60
1, 231399, Poly_aftertouch_c, 0, 57, 0
1, 231408, Note_on_c, 0, 69, 104
1, 231408, Note_on_c, 0, 81, 102
1, 231410, Note_on_c, 0, 77, 94
1, 231411, Note_on_c, 0, 74, 94
1, 231554, Note_off_c, 0, 77, 61
1, 231558, Note_off_c, 0, 81, 54
1, 231568, Note_off_c, 0, 74, 60
1, 231595, Note_off_c, 0, 69, 52
1, 231712, Note_on_c, 0, 48, 107
1, 231717, Note_on_c, 0, 43, 80
1, 231718, Note_on_c, 0, 67, 102
1, 231720, Note_on_c, 0, 79, 99
1, 231721, Note_on_c, 0, 36, 88
1, 231722, Note_on_c, 0, 72, 84
1, 231724, Note_on_c, 0, 75, 97
1, 231725, Control_c, 0, 64, 79
1, 231739, Control_c, 0, 64, 0
1, 231784, Control_c, 0, 64, 71
1, 231799, Control_c, 0, 64, 100
1, 231813, Control_c, 0, 64, 127
1, 231840, Note_off_c, 0, 67, 60
1, 231875, Note_off_c, 0, 72, 62
1, 231887, Note_off_c, 0, 79, 62
1, 231892, Note_off_c, 0, 75, 61
1, 232129, Note_on_c, 0, 91, 95
1, 232130, Note_on_c, 0, 82, 107
1, 232130, Note_on_c, 0, 94, 97
1, 232144, Note_off_c, 0, 36, 53
1, 232172, Note_on_c, 0, 83, 37
1, 232184, Note_off_c, 0, 43, 59
1, 232201, Note_off_c, 0, 83, 58
1, 232225, Note_off_c, 0, 48, 61
1, 232312, Note_on_c, 0, 87, 84
1, 232334, Note_off_c, 0, 82, 60
1, 232336, Note_off_c, 0, 91, 60
1, 232340, Note_off_c, 0, 94, 63
1, 232371, Note_off_c, 0, 87, 66
1, 232419, Note_on_c, 0, 81, 107
1, 232421, Note_on_c, 0, 93, 96
1, 232423, Note_on_c, 0, 89, 96
1, 232528, Note_on_c, 0, 67, 101
1, 232531, Note_on_c, 0, 60, 76
1, 232544, Note_on_c, 0, 86, 73
1, 232546, Note_on_c, 0, 55, 76
1, 232559, Note_off_c, 0, 67, 68
1, 232571, Note_off_c, 0, 81, 57
1, 232572, Note_off_c, 0, 93, 60
1, 232578, Note_off_c, 0, 89, 61
1, 232583, Note_off_c, 0, 60, 64
1, 232599, Note_off_c, 0, 55, 62
1, 232600, Note_off_c, 0, 86, 66
1, 232656, Poly_aftertouch_c, 0, 59, 0
1, 232657, Note_on_c, 0, 91, 98
1, 232659, Note_on_c, 0, 79, 102
1, 232662, Note_on_c, 0, 87, 93
1, 232698, Note_on_c, 0, 89, 36
1, 232699, Note_off_c, 0, 89, 127
1, 232701, Note_on_c, 0, 81, 32
1, 232731, Note_off_c, 0, 81, 51
1, 232759, Note_on_c, 0, 84, 65
1, 232775, Note_off_c, 0, 91, 58
1, 232796, Note_off_c, 0, 79, 58
1, 232840, Note_off_c, 0, 84, 65
1, 232841, Note_off_c, 0, 87, 63
1, 232849, Note_on_c, 0, 43, 101
1, 232852, Note_on_c, 0, 36, 88
1, 232857, Note_on_c, 0, 31, 85
1, 232866, Control_c, 0, 64, 99
1, 232881, Control_c, 0, 64, 72
1, 232886, Note_on_c, 0, 89, 102
1, 232887, Note_on_c, 0, 77, 101
1, 232892, Note_on_c, 0, 86, 93
1, 232896, Control_c, 0, 64, 70
1, 232911, Control_c, 0, 64, 82
1, 232926, Control_c, 0, 64, 107
1, 232940, Control_c, 0, 64, 127
1, 232957, Note_off_c, 0, 31, 59
1, 232993, Note_off_c, 0, 43, 63
1, 232996, Note_on_c, 0, 82, 77
1, 232996, Note_off_c, 0, 36, 61
1, 232996, Note_off_c, 0, 89, 60
1, 233006, Note_off_c, 0, 77, 53
1, 233027, Note_off_c, 0, 86, 61
1, 233045, Poly_aftertouch_c, 0, 35, 0
1, 233068, Note_off_c, 0, 82, 64
1, 233115, Note_on_c, 0, 75, 98
1, 233115, Note_on_c, 0, 87, 99
1, 233150, Note_on_c, 0, 85, 45
1, 233176, Note_off_c, 0, 85, 61
1, 233184, Note_off_c, 0, 75, 57
1, 233190, Note_off_c, 0, 87, 65
1, 233208, Note_on_c, 0, 82, 81
1, 233210, Note_on_c, 0, 79, 70
1, 233255, Note_on_c, 0, 58, 100
1, 233255, Note_off_c, 0, 79, 58
1, 233260, Note_off_c, 0, 82, 62
1, 233261, Note_on_c, 0, 51, 84
1, 233264, Note_on_c, 0, 46, 86
1, 233278, Note_off_c, 0, 58, 65
1, 233285, Note_off_c, 0, 51, 69
1, 233291, Note_off_c, 0, 46, 66
1, 233305, Note_on_c, 0, 74, 102
1, 233305, Note_on_c, 0, 86, 96
1, 233335, Note_on_c, 0, 79, 18
1, 233364, Note_on_c, 0, 82, 82
1, 233383, Note_off_c, 0, 86, 63
1, 233390, Note_off_c, 0, 79, 44
1, 233394, Note_off_c, 0, 74, 63
1, 233419, Note_off_c, 0, 82, 64
1, 233443, Note_on_c, 0, 51, 97
1, 233445, Control_c, 0, 64, 103
1, 233448, Note_on_c, 0, 39, 89
1, 233452, Note_on_c, 0, 49, 81
1, 233459, Control_c, 0, 64, 78
1, 233467, Note_on_c, 0, 72, 96
1, 233470, Note_off_c, 0, 49, 68
1, 233474, Control_c, 0, 64, 69
1, 233477, Note_on_c, 0, 84, 78
1, 233481, Note_on_c, 0, 83, 82
1, 233489, Control_c, 0, 64, 75
1, 233503, Control_c, 0, 64, 90
1, 233518, Control_c, 0, 64, 127
1, 233523, Note_off_c, 0, 84, 64
1, 233524, Note_on_c, 0, 75, 82
1, 233531, Note_off_c, 0, 83, 62
1, 233535, Note_off_c, 0, 72, 63
1, 233565, Note_off_c, 0, 39, 58
1, 233569, Note_off_c, 0, 51, 65
1, 233584, Note_off_c, 0, 75, 63
1, 233635, Note_on_c, 0, 79, 78
1, 233637, Note_on_c, 0, 70, 92
1, 233640, Note_on_c, 0, 82, 89
1, 233691, Note_off_c, 0, 70, 65
1, 233696, Note_off_c, 0, 82, 64
1, 233703, Note_on_c, 0, 75, 77
1, 233723, Note_off_c, 0, 79, 59
1, 233746, Note_off_c, 0, 75, 59
1, 233777, Note_on_c, 0, 81, 92
1, 233779, Note_on_c, 0, 69, 96
1, 233822, Note_on_c, 0, 77, 39
1, 233857, Note_on_c, 0, 74, 75
1, 233858, Note_off_c, 0, 69, 59
1, 233864, Note_off_c, 0, 81, 58
1, 233878, Note_on_c, 0, 60, 98
1, 233884, Note_on_c, 0, 75, 34
1, 233886, Note_on_c, 0, 55, 76
1, 233894, Note_on_c, 0, 48, 80
1, 233895, Note_off_c, 0, 74, 65
1, 233896, Note_off_c, 0, 77, 37
1, 233899, Note_off_c, 0, 60, 70
1, 233919, Note_off_c, 0, 75, 53
1, 233922, Note_off_c, 0, 55, 64
1, 233925, Note_off_c, 0, 48, 66
1, 233953, Note_on_c, 0, 67, 98
1, 233954, Poly_aftertouch_c, 0, 54, 127
1, 233958, Note_on_c, 0, 79, 96
1, 233960, Note_on_c, 0, 75, 86
1, 233998, Poly_aftertouch_c, 0, 54, 0
1, 234031, Note_on_c, 0, 72, 62
1, 234054, Note_off_c, 0, 79, 60
1, 234068, Note_off_c, 0, 67, 59
1, 234089, Note_off_c, 0, 72, 66
1, 234095, Note_off_c, 0, 75, 62
1, 234120, Control_c, 0, 64, 107
1, 234121, Note_on_c, 0, 43, 104
1, 234126, Note_on_c, 0, 36, 81
1, 234130, Note_on_c, 0, 31, 84
1, 234134, Control_c, 0, 64, 73
1, 234141, Note_on_c, 0, 65, 103
1, 234143, Note_on_c, 0, 77, 89
1, 234149, Control_c, 0, 64, 0
1, 234151, Note_on_c, 0, 74, 86
1, 234154, Note_on_c, 0, 70, 75
1, 234179, Control_c, 0, 64, 66
1, 234194, Control_c, 0, 64, 82
1, 234208, Control_c, 0, 64, 127
1, 234224, Note_off_c, 0, 77, 62
1, 234232, Note_off_c, 0, 65, 56
1, 234252, Note_off_c, 0, 74, 63
1, 234269, Note_off_c, 0, 31, 53
1, 234284, Note_off_c, 0, 70, 59
1, 234309, Note_off_c, 0, 43, 60
1, 234337, Note_off_c, 0, 36, 57
1, 234356, Note_on_c, 0, 63, 105
1, 234358, Note_on_c, 0, 75, 93
1, 234369, Note_on_c, 0, 70, 75
1, 234378, Note_on_c, 0, 67, 63
1, 234390, Note_on_c, 0, 73, 47
1, 234417, Note_off_c, 0, 73, 61
1, 234447, Note_off_c, 0, 63, 61
1, 234449, Note_off_c, 0, 75, 62
1, 234486, Note_off_c, 0, 67, 56
1, 234493, Note_off_c, 0, 70, 58
1, 234528, Note_on_c, 0, 62, 96
1, 234531, Note_on_c, 0, 74, 101
1, 234531, Note_on_c, 0, 70, 54
1, 234535, Note_on_c, 0, 67, 53
1, 234648, Note_off_c, 0, 74, 59
1, 234657, Note_on_c, 0, 51, 104
1, 234662, Note_off_c, 0, 62, 56
1, 234667, Note_on_c, 0, 39, 85
1, 234672, Note_off_c, 0, 70, 60
1, 234673, Note_on_c, 0, 46, 68
1, 234674, Note_off_c, 0, 46, 127
1, 234689, Note_off_c, 0, 67, 35
1, 234690, Note_off_c, 0, 51, 67
1, 234728, Note_off_c, 0, 39, 57
1, 234745, Poly_aftertouch_c, 0, 42, 127
1, 234757, Note_on_c, 0, 60, 104
1, 234760, Note_on_c, 0, 72, 100
1, 234776, Poly_aftertouch_c, 0, 44, 0
1, 234782, Poly_aftertouch_c, 0, 42, 0
1, 234847, Note_off_c, 0, 72, 60
1, 234862, Note_off_c, 0, 60, 61
1, 235067, Control_c, 0, 64, 86
1, 235070, Note_on_c, 0, 58, 102
1, 235071, Note_on_c, 0, 36, 113
1, 235077, Note_on_c, 0, 24, 89
1, 235077, Note_on_c, 0, 67, 77
1, 235077, Note_on_c, 0, 70, 86
1, 235082, Control_c, 0, 64, 49
1, 235087, Note_on_c, 0, 63, 70
1, 235097, Control_c, 0, 64, 0
1, 235100, Note_on_c, 0, 66, 41
1, 235106, Poly_aftertouch_c, 0, 31, 127
1, 235109, Note_on_c, 0, 30, 37
1, 235110, Note_off_c, 0, 30, 127
1, 235110, Note_on_c, 0, 68, 47
1, 235111, Note_off_c, 0, 68, 127
1, 235111, Note_on_c, 0, 31, 3
1, 235112, Control_c, 0, 64, 57
1, 235122, Note_off_c, 0, 66, 36
1, 235127, Control_c, 0, 64, 75
1, 235142, Control_c, 0, 64, 113
1, 235155, Note_off_c, 0, 58, 66
1, 235156, Control_c, 0, 64, 127
1, 235200, Note_off_c, 0, 67, 55
1, 235200, Note_off_c, 0, 63, 55
1, 235239, Note_off_c, 0, 31, 0
1, 235241, Note_off_c, 0, 70, 61
1, 235276, Poly_aftertouch_c, 0, 31, 127
1, 235366, Note_off_c, 0, 24, 54
1, 235416, Poly_aftertouch_c, 0, 31, 0
1, 235507, Note_off_c, 0, 36, 55
1, 235511, Note_on_c, 0, 82, 103
1, 235511, Note_on_c, 0, 94, 97
1, 235512, Note_on_c, 0, 91, 93
1, 235526, Note_on_c, 0, 90, 45
1, 235688, Note_on_c, 0, 87, 79
1, 235708, Note_off_c, 0, 82, 63
1, 235712, Note_off_c, 0, 91, 56
1, 235717, Note_off_c, 0, 94, 63
1, 235739, Note_off_c, 0, 90, 26
1, 235750, Note_off_c, 0, 87, 65
1, 235807, Note_on_c, 0, 93, 97
1, 235808, Note_on_c, 0, 81, 101
1, 235814, Note_on_c, 0, 89, 89
1, 235840, Note_on_c, 0, 83, 48
1, 235844, Note_on_c, 0, 67, 100
1, 235846, Note_on_c, 0, 60, 76
1, 235860, Note_on_c, 0, 55, 78
1, 235866, Note_off_c, 0, 83, 52
1, 235878, Note_off_c, 0, 67, 67
1, 235900, Note_on_c, 0, 59, 25
1, 235924, Note_on_c, 0, 86, 73
1, 235927, Note_off_c, 0, 55, 61
1, 235929, Note_off_c, 0, 60, 62
1, 235936, Note_off_c, 0, 93, 59
1, 235942, Note_off_c, 0, 59, 51
1, 235948, Note_off_c, 0, 81, 59
1, 235956, Note_off_c, 0, 89, 61
1, 235980, Note_off_c, 0, 86, 66
1, 236032, Note_on_c, 0, 91, 103
1, 236035, Note_on_c, 0, 79, 101
1, 236039, Note_on_c, 0, 87, 92
1, 236133, Note_on_c, 0, 84, 77
1, 236156, Note_off_c, 0, 91, 61
1, 236163, Note_off_c, 0, 79, 59
1, 236186, Poly_aftertouch_c, 0, 34, 127
1, 236193, Note_off_c, 0, 84, 63
1, 236198, Note_off_c, 0, 87, 63
1, 236219, Note_on_c, 0, 43, 98
1, 236221, Note_on_c, 0, 36, 87
1, 236226, Poly_aftertouch_c, 0, 34, 0
1, 236231, Note_on_c, 0, 31, 80
1, 236232, Control_c, 0, 64, 77
1, 236247, Control_c, 0, 64, 45
1, 236249, Note_on_c, 0, 89, 97
1, 236250, Note_on_c, 0, 77, 101
1, 236259, Note_on_c, 0, 86, 88
1, 236262, Control_c, 0, 64, 0
1, 236276, Control_c, 0, 64, 63
1, 236291, Control_c, 0, 64, 92
1, 236297, Note_on_c, 0, 82, 50
1, 236306, Control_c, 0, 64, 127
1, 236335, Note_off_c, 0, 89, 62
1, 236336, Note_off_c, 0, 31, 59
1, 236343, Note_off_c, 0, 77, 59
1, 236361, Note_off_c, 0, 86, 63
1, 236372, Note_off_c, 0, 36, 61
1, 236377, Note_off_c, 0, 43, 62
1, 236396, Note_off_c, 0, 82, 61
1, 236458, Note_on_c, 0, 75, 105
1, 236460, Note_on_c, 0, 87, 92
1, 236475, Note_on_c, 0, 85, 74
1, 236490, Note_off_c, 0, 85, 70
1, 236526, Note_off_c, 0, 75, 56
1, 236531, Note_off_c, 0, 87, 66
1, 236556, Note_on_c, 0, 79, 54
1, 236558, Note_on_c, 0, 82, 81
1, 236598, Note_on_c, 0, 58, 103
1, 236606, Note_on_c, 0, 46, 81
1, 236611, Note_on_c, 0, 51, 69
1, 236616, Note_off_c, 0, 79, 55
1, 236619, Note_off_c, 0, 82, 62
1, 236621, Note_on_c, 0, 49, 53
1, 236625, Note_off_c, 0, 58, 65
1, 236630, Note_off_c, 0, 46, 63
1, 236637, Note_off_c, 0, 51, 67
1, 236648, Note_off_c, 0, 49, 58
1, 236670, Note_on_c, 0, 74, 100
1, 236670, Note_on_c, 0, 86, 95
1, 236730, Note_on_c, 0, 82, 72
1, 236741, Note_off_c, 0, 86, 63
1, 236749, Note_off_c, 0, 74, 60
1, 236755, Poly_aftertouch_c, 0, 79, 0
1, 236780, Note_off_c, 0, 82, 64
1, 236816, Note_on_c, 0, 51, 104
1, 236818, Control_c, 0, 64, 110
1, 236825, Note_on_c, 0, 39, 80
1, 236833, Control_c, 0, 64, 84
1, 236842, Note_on_c, 0, 84, 94
1, 236843, Note_on_c, 0, 72, 94
1, 236848, Control_c, 0, 64, 73
1, 236850, Note_on_c, 0, 38, 61
1, 236856, Note_on_c, 0, 42, 28
1, 236857, Note_on_c, 0, 46, 31
1, 236858, Note_off_c, 0, 46, 127
1, 236860, Note_on_c, 0, 44, 25
1, 236861, Note_off_c, 0, 44, 127
1, 236863, Control_c, 0, 64, 76
1, 236878, Control_c, 0, 64, 97
1, 236886, Poly_aftertouch_c, 0, 46, 0
1, 236893, Control_c, 0, 64, 127
1, 236902, Note_on_c, 0, 75, 75
1, 236902, Note_off_c, 0, 38, 59
1, 236908, Poly_aftertouch_c, 0, 44, 0
1, 236912, Note_off_c, 0, 84, 63
1, 236915, Note_off_c, 0, 42, 42
1, 236923, Note_off_c, 0, 72, 64
1, 236929, Poly_aftertouch_c, 0, 79, 127
1, 236961, Note_off_c, 0, 75, 65
1, 236962, Note_off_c, 0, 39, 60
1, 236968, Poly_aftertouch_c, 0, 79, 0
1, 236992, Note_off_c, 0, 51, 61
1, 237001, Note_on_c, 0, 79, 67
1, 237007, Note_on_c, 0, 70, 95
1, 237009, Note_on_c, 0, 82, 85
1, 237030, Note_on_c, 0, 80, 63
1, 237048, Note_off_c, 0, 80, 65
1, 237069, Note_off_c, 0, 70, 65
1, 237072, Note_off_c, 0, 82, 64
1, 237072, Note_on_c, 0, 75, 74
1, 237096, Note_off_c, 0, 79, 60
1, 237105, Note_off_c, 0, 75, 53
1, 237149, Note_on_c, 0, 81, 94
1, 237149, Note_on_c, 0, 69, 92
1, 237172, Note_on_c, 0, 78, 55
1, 237219, Note_on_c, 0, 74, 80
1, 237221, Note_off_c, 0, 78, 0
1, 237221, Note_on_c, 0, 78, 36
1, 237237, Note_off_c, 0, 81, 60
1, 237238, Note_on_c, 0, 60, 100
1, 237240, Note_off_c, 0, 69, 59
1, 237244, Note_on_c, 0, 55, 72
1, 237251, Note_on_c, 0, 48, 85
1, 237257, Note_off_c, 0, 78, 65
1, 237263, Note_off_c, 0, 74, 67
1, 237267, Note_off_c, 0, 60, 67
1, 237291, Note_off_c, 0, 55, 63
1, 237314, Note_off_c, 0, 48, 63
1, 237328, Note_on_c, 0, 79, 97
1, 237331, Note_on_c, 0, 67, 95
1, 237336, Note_on_c, 0, 75, 90
1, 237358, Note_on_c, 0, 72, 57
1, 237442, Note_off_c, 0, 79, 56
1, 237454, Note_off_c, 0, 67, 55
1, 237474, Note_off_c, 0, 72, 64
1, 237479, Note_off_c, 0, 75, 60
1, 237514, Note_on_c, 0, 43, 100
1, 237522, Control_c, 0, 64, 78
1, 237524, Note_on_c, 0, 36, 79
1, 237528, Note_on_c, 0, 31, 80
1, 237531, Note_on_c, 0, 65, 100
1, 237533, Note_on_c, 0, 77, 93
1, 237537, Note_on_c, 0, 74, 91
1, 237537, Control_c, 0, 64, 0
1, 237539, Note_on_c, 0, 70, 83
1, 237546, Note_on_c, 0, 37, 45
1, 237550, Note_on_c, 0, 39, 37
1, 237582, Control_c, 0, 64, 63
1, 237588, Note_off_c, 0, 37, 30
1, 237591, Note_off_c, 0, 39, 34
1, 237597, Control_c, 0, 64, 78
1, 237611, Control_c, 0, 64, 127
1, 237617, Note_off_c, 0, 77, 61
1, 237629, Note_off_c, 0, 65, 58
1, 237645, Note_off_c, 0, 74, 63
1, 237666, Note_off_c, 0, 70, 56
1, 237696, Note_on_c, 0, 35, 23
1, 237701, Note_off_c, 0, 31, 49
1, 237734, Note_off_c, 0, 43, 58
1, 237740, Note_off_c, 0, 35, 58
1, 237749, Note_off_c, 0, 36, 57
1, 237753, Note_on_c, 0, 63, 98
1, 237754, Note_on_c, 0, 75, 92
1, 237758, Note_on_c, 0, 70, 79
1, 237763, Note_on_c, 0, 67, 78
1, 237838, Note_off_c, 0, 63, 63
1, 237841, Note_off_c, 0, 75, 64
1, 237862, Note_off_c, 0, 67, 58
1, 237874, Note_off_c, 0, 70, 59
1, 237917, Note_on_c, 0, 62, 101
1, 237917, Note_on_c, 0, 74, 96
1, 237930, Note_on_c, 0, 67, 57
1, 237949, Note_on_c, 0, 70, 37
1, 237968, Note_on_c, 0, 71, 38
1, 237999, Note_off_c, 0, 71, 53
1, 238009, Note_off_c, 0, 62, 55
1, 238009, Note_off_c, 0, 74, 58
1, 238013, Note_off_c, 0, 70, 51
1, 238015, Note_off_c, 0, 67, 30
1, 238048, Note_on_c, 0, 51, 101
1, 238056, Note_on_c, 0, 39, 89
1, 238071, Note_on_c, 0, 46, 55
1, 238079, Note_off_c, 0, 51, 68
1, 238080, Note_off_c, 0, 39, 68
1, 238096, Note_off_c, 0, 46, 59
1, 238136, Poly_aftertouch_c, 0, 44, 0
1, 238140, Note_on_c, 0, 60, 99
1, 238140, Note_on_c, 0, 72, 94
1, 238180, Note_off_c, 0, 72, 67
1, 238184, Note_off_c, 0, 60, 65
1, 238301, Note_on_c, 0, 58, 100
1, 238303, Note_on_c, 0, 70, 93
1, 238345, Note_off_c, 0, 58, 64
1, 238374, Note_off_c, 0, 70, 66
1, 238527, Note_on_c, 0, 69, 92
1, 238529, Note_on_c, 0, 66, 86
1, 238535, Note_on_c, 0, 57, 102
1, 238539, Control_c, 0, 64, 83
1, 238541, Note_on_c, 0, 55, 82
1, 238553, Control_c, 0, 64, 63
1, 238568, Control_c, 0, 64, 21
1, 238583, Control_c, 0, 64, 58
1, 238598, Control_c, 0, 64, 69
1, 238613, Control_c, 0, 64, 81
1, 238628, Control_c, 0, 64, 111
1, 238640, Note_off_c, 0, 69, 55
1, 238643, Control_c, 0, 64, 127
1, 238649, Note_off_c, 0, 55, 62
1, 238688, Note_off_c, 0, 57, 56
1, 238708, Note_off_c, 0, 66, 59
1, 238744, Note_on_c, 0, 55, 97
1, 238745, Note_on_c, 0, 63, 96
1, 238747, Note_on_c, 0, 67, 89
1, 238750, Note_on_c, 0, 51, 86
1, 238783, Note_off_c, 0, 55, 68
1, 238807, Note_off_c, 0, 51, 64
1, 238808, Note_off_c, 0, 67, 63
1, 238813, Note_off_c, 0, 63, 61
1, 238921, Note_on_c, 0, 53, 107
1, 238921, Note_on_c, 0, 65, 93
1, 238921, Note_on_c, 0, 61, 97
1, 238928, Note_on_c, 0, 49, 87
1, 238959, Note_off_c, 0, 53, 62
1, 238962, Note_off_c, 0, 65, 62
1, 238967, Note_off_c, 0, 61, 61
1, 238977, Note_off_c, 0, 49, 62
1, 239072, Note_on_c, 0, 51, 120
1, 239072, Note_on_c, 0, 58, 94
1, 239073, Note_on_c, 0, 63, 92
1, 239079, Note_on_c, 0, 46, 86
1, 239111, Note_off_c, 0, 51, 66
1, 239117, Note_off_c, 0, 58, 59
1, 239130, Note_off_c, 0, 46, 56
1, 239135, Note_off_c, 0, 63, 62
1, 239216, Note_on_c, 0, 50, 106
1, 239218, Note_on_c, 0, 55, 98
1, 239218, Note_on_c, 0, 62, 91
1, 239227, Note_on_c, 0, 43, 81
1, 239248, Note_on_c, 0, 48, 45
1, 239249, Note_off_c, 0, 48, 127
1, 239255, Note_off_c, 0, 55, 63
1, 239258, Note_off_c, 0, 50, 66
1, 239269, Note_off_c, 0, 62, 62
1, 239276, Note_off_c, 0, 43, 63
1, 239279, Poly_aftertouch_c, 0, 48, 0
1, 239364, Note_on_c, 0, 49, 108
1, 239368, Note_on_c, 0, 54, 103
1, 239371, Note_on_c, 0, 42, 92
1, 239371, Note_on_c, 0, 61, 88
1, 239402, Note_off_c, 0, 49, 65
1, 239412, Note_off_c, 0, 54, 60
1, 239419, Note_off_c, 0, 42, 59
1, 239430, Note_off_c, 0, 61, 59
1, 239509, Control_c, 0, 64, 93
1, 239524, Control_c, 0, 64, 65
1, 239532, Note_on_c, 0, 45, 119
1, 239537, Note_on_c, 0, 57, 93
1, 239538, Note_on_c, 0, 51, 98
1, 239539, Control_c, 0, 64, 0
1, 239540, Note_on_c, 0, 39, 85
1, 239561, Control_c, 0, 64, 55
1, 239576, Control_c, 0, 64, 73
1, 239584, Note_off_c, 0, 45, 58
1, 239591, Control_c, 0, 64, 95
1, 239606, Control_c, 0, 64, 127
1, 239615, Note_off_c, 0, 57, 58
1, 239621, Note_off_c, 0, 39, 59
1, 239621, Note_off_c, 0, 51, 61
1, 239660, Poly_aftertouch_c, 0, 42, 0
1, 239709, Control_c, 0, 64, 84
1, 239724, Control_c, 0, 64, 56
1, 239728, Note_on_c, 0, 43, 120
1, 239731, Note_on_c, 0, 49, 101
1, 239731, Note_on_c, 0, 55, 95
1, 239733, Note_on_c, 0, 37, 93
1, 239739, Control_c, 0, 64, 63
1, 239743, Note_on_c, 0, 41, 67
1, 239753, Control_c, 0, 64, 76
1, 239767, Note_off_c, 0, 41, 57
1, 239768, Control_c, 0, 64, 97
1, 239780, Note_off_c, 0, 43, 51
1, 239783, Control_c, 0, 64, 127
1, 239803, Note_off_c, 0, 55, 61
1, 239812, Note_off_c, 0, 37, 62
1, 239816, Poly_aftertouch_c, 0, 39, 0
1, 239817, Note_off_c, 0, 49, 60
1, 239866, Poly_aftertouch_c, 0, 39, 0
1, 239901, Control_c, 0, 64, 90
1, 239916, Control_c, 0, 64, 63
1, 239931, Control_c, 0, 64, 53
1, 239933, Note_on_c, 0, 48, 107
1, 239934, Note_on_c, 0, 53, 97
1, 239935, Note_on_c, 0, 41, 112
1, 239940, Note_on_c, 0, 36, 88
1, 239946, Control_c, 0, 64, 69
1, 239952, Note_on_c, 0, 43, 72
1, 239960, Control_c, 0, 64, 85
1, 239974, Note_on_c, 0, 39, 27
1, 239975, Note_off_c, 0, 39, 127
1, 239975, Control_c, 0, 64, 127
1, 239984, Note_off_c, 0, 43, 57
1, 239993, Note_off_c, 0, 41, 44
1, 240014, Note_off_c, 0, 36, 61
1, 240015, Poly_aftertouch_c, 0, 39, 0
1, 240031, Note_off_c, 0, 53, 59
1, 240035, Note_off_c, 0, 48, 57
1, 240124, Control_c, 0, 64, 95
1, 240139, Control_c, 0, 64, 68
1, 240154, Control_c, 0, 64, 0
1, 240169, Control_c, 0, 64, 47
1, 240172, Note_on_c, 0, 51, 98
1, 240175, Note_on_c, 0, 46, 99
1, 240176, Note_on_c, 0, 39, 110
1, 240183, Note_on_c, 0, 34, 92
1, 240184, Control_c, 0, 64, 73
1, 240199, Control_c, 0, 64, 110
1, 240214, Control_c, 0, 64, 127
1, 240251, Note_off_c, 0, 39, 53
1, 240279, Note_off_c, 0, 34, 56
1, 240308, Note_off_c, 0, 51, 59
1, 240376, Note_off_c, 0, 46, 25
1, 240384, Control_c, 0, 64, 103
1, 240399, Control_c, 0, 64, 66
1, 240414, Control_c, 0, 64, 0
1, 240429, Control_c, 0, 64, 62
1, 240443, Note_on_c, 0, 32, 80
1, 240444, Control_c, 0, 64, 79
1, 240449, Note_on_c, 0, 37, 110
1, 240451, Note_on_c, 0, 49, 99
1, 240454, Note_on_c, 0, 45, 97
1, 240458, Control_c, 0, 64, 127
1, 240464, Note_on_c, 0, 31, 75
1, 240495, Note_off_c, 0, 31, 64
1, 240495, Note_off_c, 0, 37, 68
1, 240503, Note_off_c, 0, 45, 61
1, 240557, Note_off_c, 0, 32, 24
1, 240583, Note_off_c, 0, 49, 60
1, 240607, Poly_aftertouch_c, 0, 36, 0
1, 240860, Control_c, 0, 64, 100
1, 240874, Control_c, 0, 64, 54
1, 240889, Control_c, 0, 64, 0
1, 241006, Note_on_c, 0, 34, 105
1, 241007, Note_on_c, 0, 46, 105
1, 241012, Note_on_c, 0, 58, 89
1, 241017, Note_on_c, 0, 22, 86
1, 241028, Note_on_c, 0, 30, 65
1, 241029, Note_off_c, 0, 30, 127
1, 241035, Note_on_c, 0, 25, 51
1, 241036, Note_on_c, 0, 54, 72
1, 241045, Control_c, 0, 64, 83
1, 241047, Note_on_c, 0, 26, 24
1, 241050, Note_on_c, 0, 32, 44
1, 241051, Note_off_c, 0, 32, 127
1, 241057, Note_on_c, 0, 56, 21
1, 241058, Note_off_c, 0, 56, 127
1, 241060, Control_c, 0, 64, 127
1, 241060, Poly_aftertouch_c, 0, 29, 0
1, 241069, Note_off_c, 0, 46, 68
1, 241069, Note_off_c, 0, 54, 66
1, 241074, Note_on_c, 0, 27, 4
1, 241075, Note_off_c, 0, 27, 127
1, 241080, Note_off_c, 0, 22, 64
1, 241087, Poly_aftertouch_c, 0, 32, 0
1, 241103, Note_off_c, 0, 26, 47
1, 241105, Note_on_c, 0, 35, 32
1, 241108, Poly_aftertouch_c, 0, 29, 0
1, 241137, Note_off_c, 0, 58, 61
1, 241149, Note_off_c, 0, 35, 52
1, 241150, Poly_aftertouch_c, 0, 23, 127
1, 241171, Note_off_c, 0, 25, 35
1, 241193, Poly_aftertouch_c, 0, 23, 0
1, 241198, Note_off_c, 0, 34, 32
1, 241454, Note_on_c, 0, 53, 102
1, 241457, Note_on_c, 0, 58, 89
1, 241457, Note_on_c, 0, 65, 90
1, 241463, Note_on_c, 0, 61, 75
1, 241463, Note_on_c, 0, 49, 80
1, 241465, Note_on_c, 0, 41, 78
1, 241467, Note_on_c, 0, 46, 80
1, 241480, Note_on_c, 0, 44, 62
1, 241496, Note_off_c, 0, 41, 66
1, 241498, Note_off_c, 0, 58, 63
1, 241499, Note_off_c, 0, 53, 62
1, 241508, Note_off_c, 0, 44, 65
1, 241522, Note_off_c, 0, 65, 62
1, 241525, Note_off_c, 0, 61, 60
1, 241528, Note_off_c, 0, 46, 58
1, 241528, Note_off_c, 0, 49, 63
1, 241877, Note_on_c, 0, 77, 95
1, 241877, Note_on_c, 0, 70, 95
1, 241880, Note_on_c, 0, 65, 108
1, 241886, Note_on_c, 0, 58, 94
1, 241886, Note_on_c, 0, 73, 83
1, 241888, Note_on_c, 0, 61, 86
1, 241896, Note_on_c, 0, 53, 77
1, 241907, Note_off_c, 0, 70, 61
1, 241909, Note_off_c, 0, 65, 70
1, 241910, Note_off_c, 0, 58, 57
1, 241912, Note_off_c, 0, 73, 62
1, 241915, Note_off_c, 0, 53, 75
1, 241918, Note_off_c, 0, 61, 62
1, 241925, Note_off_c, 0, 77, 66
1, 242074, Control_c, 0, 64, 116
1, 242089, Control_c, 0, 64, 74
1, 242103, Note_on_c, 0, 80, 107
1, 242104, Note_on_c, 0, 65, 83
1, 242104, Control_c, 0, 64, 0
1, 242105, Note_on_c, 0, 68, 102
1, 242105, Note_on_c, 0, 92, 102
1, 242108, Note_on_c, 0, 89, 95
1, 242109, Note_on_c, 0, 61, 82
1, 242112, Note_on_c, 0, 85, 89
1, 242115, Note_on_c, 0, 56, 86
1, 242131, Note_on_c, 0, 63, 59
1, 242132, Note_off_c, 0, 63, 127
1, 242134, Control_c, 0, 64, 63
1, 242148, Control_c, 0, 64, 127
1, 242167, Note_off_c, 0, 92, 67
1, 242168, Note_off_c, 0, 89, 61
1, 242169, Note_off_c, 0, 68, 67
1, 242183, Note_off_c, 0, 65, 56
1, 242184, Note_off_c, 0, 80, 62
1, 242188, Note_off_c, 0, 85, 63
1, 242192, Note_off_c, 0, 61, 60
1, 242216, Poly_aftertouch_c, 0, 58, 0
1, 242219, Note_off_c, 0, 56, 60
1, 242359, Note_on_c, 0, 65, 110
1, 242364, Note_on_c, 0, 70, 94
1, 242366, Note_on_c, 0, 77, 90
1, 242367, Note_on_c, 0, 58, 86
1, 242368, Note_on_c, 0, 61, 84
1, 242370, Note_on_c, 0, 53, 80
1, 242371, Note_on_c, 0, 73, 81
1, 242390, Note_off_c, 0, 65, 67
1, 242398, Note_off_c, 0, 53, 69
1, 242409, Note_off_c, 0, 58, 65
1, 242417, Note_off_c, 0, 61, 63
1, 242434, Note_off_c, 0, 77, 61
1, 242435, Note_off_c, 0, 70, 54
1, 242460, Note_off_c, 0, 73, 54
1, 242659, Note_on_c, 0, 46, 37
1, 242685, Note_off_c, 0, 46, 59
1, 242754, Note_on_c, 0, 53, 107
1, 242756, Note_on_c, 0, 46, 87
1, 242763, Note_on_c, 0, 58, 99
1, 242767, Note_on_c, 0, 49, 84
1, 242767, Note_on_c, 0, 65, 79
1, 242773, Note_on_c, 0, 61, 79
1, 242774, Note_on_c, 0, 41, 73
1, 242780, Note_off_c, 0, 53, 68
1, 242782, Note_on_c, 0, 64, 72
1, 242796, Note_off_c, 0, 49, 68
1, 242802, Note_off_c, 0, 64, 62
1, 242803, Note_off_c, 0, 46, 64
1, 242806, Note_off_c, 0, 58, 63
1, 242807, Note_off_c, 0, 65, 66
1, 242809, Note_off_c, 0, 41, 66
1, 242824, Note_off_c, 0, 61, 61
1, 243031, Control_c, 0, 64, 66
1, 243045, Control_c, 0, 64, 0
1, 243049, Note_on_c, 0, 34, 111
1, 243051, Note_on_c, 0, 46, 100
1, 243057, Note_on_c, 0, 22, 87
1, 243059, Note_on_c, 0, 58, 90
1, 243065, Note_on_c, 0, 30, 76
1, 243066, Note_off_c, 0, 30, 127
1, 243084, Note_off_c, 0, 46, 67
1, 243089, Control_c, 0, 64, 14
1, 243092, Note_on_c, 0, 54, 41
1, 243104, Control_c, 0, 64, 127
1, 243107, Note_off_c, 0, 22, 63
1, 243129, Note_off_c, 0, 54, 58
1, 243134, Note_off_c, 0, 58, 63
1, 243135, Note_off_c, 0, 34, 62
1, 243162, Poly_aftertouch_c, 0, 25, 0
1, 243401, Note_on_c, 0, 77, 100
1, 243402, Note_on_c, 0, 82, 95
1, 243403, Note_on_c, 0, 61, 97
1, 243403, Note_on_c, 0, 89, 98
1, 243407, Note_on_c, 0, 58, 92
1, 243416, Note_on_c, 0, 53, 74
1, 243424, Note_on_c, 0, 52, 58
1, 243435, Note_off_c, 0, 89, 66
1, 243436, Note_off_c, 0, 77, 68
1, 243449, Note_off_c, 0, 82, 64
1, 243451, Note_off_c, 0, 52, 60
1, 243605, Note_on_c, 0, 73, 109
1, 243608, Note_on_c, 0, 65, 100
1, 243608, Note_on_c, 0, 85, 102
1, 243635, Note_off_c, 0, 73, 68
1, 243641, Note_off_c, 0, 85, 61
1, 243836, Note_off_c, 0, 61, 41
1, 243853, Note_off_c, 0, 53, 38
1, 243877, Note_off_c, 0, 58, 57
1, 243890, Note_off_c, 0, 65, 55
1, 243987, Note_on_c, 0, 64, 107
1, 244069, Note_off_c, 0, 64, 60
1, 244155, Note_on_c, 0, 70, 78
1, 244243, Note_on_c, 0, 73, 79
1, 244287, Note_on_c, 0, 62, 94
1, 244304, Note_on_c, 0, 61, 67
1, 244311, Note_off_c, 0, 70, 54
1, 244331, Note_on_c, 0, 77, 77
1, 244333, Note_off_c, 0, 61, 64
1, 244342, Note_off_c, 0, 62, 61
1, 244384, Note_off_c, 0, 73, 53
1, 244404, Note_on_c, 0, 66, 76
1, 244423, Poly_aftertouch_c, 0, 74, 127
1, 244473, Note_on_c, 0, 70, 78
1, 244473, Note_off_c, 0, 66, 62
1, 244502, Note_off_c, 0, 77, 56
1, 244514, Poly_aftertouch_c, 0, 74, 0
1, 244545, Note_on_c, 0, 61, 103
1, 244545, Note_on_c, 0, 73, 90
1, 244573, Control_c, 0, 64, 95
1, 244577, Note_off_c, 0, 70, 64
1, 244588, Control_c, 0, 64, 72
1, 244590, Note_on_c, 0, 56, 28
1, 244603, Control_c, 0, 64, 62
1, 244608, Note_on_c, 0, 74, 25
1, 244617, Control_c, 0, 64, 67
1, 244632, Control_c, 0, 64, 78
1, 244639, Note_on_c, 0, 65, 73
1, 244647, Control_c, 0, 64, 102
1, 244661, Control_c, 0, 64, 127
1, 244730, Note_on_c, 0, 70, 73
1, 244752, Note_off_c, 0, 65, 54
1, 244817, Note_on_c, 0, 77, 82
1, 244851, Note_off_c, 0, 73, 56
1, 244861, Note_off_c, 0, 74, 34
1, 244907, Note_off_c, 0, 70, 57
1, 244909, Note_on_c, 0, 66, 73
1, 244950, Note_on_c, 0, 58, 91
1, 244961, Poly_aftertouch_c, 0, 74, 127
1, 244965, Note_off_c, 0, 61, 64
1, 244967, Note_off_c, 0, 56, 0
1, 245007, Poly_aftertouch_c, 0, 73, 127
1, 245022, Note_on_c, 0, 70, 68
1, 245023, Poly_aftertouch_c, 0, 56, 0
1, 245037, Note_off_c, 0, 58, 58
1, 245081, Poly_aftertouch_c, 0, 73, 0
1, 245141, Note_on_c, 0, 73, 45
1, 245143, Note_on_c, 0, 53, 89
1, 245145, Note_off_c, 0, 66, 40
1, 245156, Note_off_c, 0, 70, 62
1, 245212, Note_on_c, 0, 65, 54
1, 245225, Note_off_c, 0, 77, 37
1, 245290, Poly_aftertouch_c, 0, 74, 0
1, 245311, Note_off_c, 0, 73, 59
1, 245317, Note_off_c, 0, 65, 61
1, 245329, Note_on_c, 0, 52, 81
1, 245334, Note_on_c, 0, 70, 31
1, 245342, Note_off_c, 0, 53, 60
1, 245365, Note_off_c, 0, 70, 51
1, 245448, Note_on_c, 0, 51, 81
1, 245476, Note_off_c, 0, 52, 59
1, 245558, Note_on_c, 0, 50, 80
1, 245568, Note_off_c, 0, 51, 64
1, 245630, Note_off_c, 0, 50, 66
1, 245743, Note_on_c, 0, 61, 55
1, 245750, Note_on_c, 0, 53, 50
1, 245760, Control_c, 0, 64, 92
1, 245775, Control_c, 0, 64, 67
1, 245789, Control_c, 0, 64, 0
1, 245925, Note_on_c, 0, 49, 53
1, 245937, Control_c, 0, 64, 72
1, 245952, Control_c, 0, 64, 83
1, 245953, Note_on_c, 0, 41, 34
1, 245960, Note_off_c, 0, 49, 63
1, 245967, Control_c, 0, 64, 94
1, 245982, Control_c, 0, 64, 103
1, 245997, Control_c, 0, 64, 113
1, 246006, Note_off_c, 0, 61, 57
1, 246007, Note_off_c, 0, 53, 59
1, 246012, Control_c, 0, 64, 121
1, 246027, Control_c, 0, 64, 127
1, 246040, Note_off_c, 0, 41, 32
1, 246074, Note_on_c, 0, 34, 48
1, 246109, Note_off_c, 0, 34, 61
1, 246125, Note_on_c, 0, 65, 57
1, 246128, Note_on_c, 0, 61, 45
1, 246156, Note_on_c, 0, 53, 16
1, 246204, Note_off_c, 0, 53, 0
1, 246207, Note_off_c, 0, 61, 49
1, 246222, Note_on_c, 0, 53, 47
1, 246239, Note_on_c, 0, 49, 61
1, 246292, Note_off_c, 0, 53, 61
1, 246328, Note_on_c, 0, 41, 60
1, 246331, Control_c, 0, 64, 97
1, 246331, Note_off_c, 0, 49, 62
1, 246346, Control_c, 0, 64, 70
1, 246360, Note_off_c, 0, 41, 63
1, 246360, Control_c, 0, 64, 0
1, 246387, Note_on_c, 0, 60, 71
1, 246420, Note_on_c, 0, 53, 48
1, 246468, Note_off_c, 0, 65, 28
1, 246486, Note_on_c, 0, 42, 65
1, 246489, Note_on_c, 0, 48, 65
1, 246509, Control_c, 0, 64, 69
1, 246524, Control_c, 0, 64, 100
1, 246525, Note_off_c, 0, 48, 60
1, 246537, Note_off_c, 0, 42, 62
1, 246539, Control_c, 0, 64, 127
1, 246554, Note_off_c, 0, 53, 63
1, 246585, Note_off_c, 0, 60, 62
1, 246605, Note_on_c, 0, 34, 67
1, 246640, Note_off_c, 0, 34, 65
1, 246662, Note_on_c, 0, 65, 65
1, 246666, Note_on_c, 0, 60, 59
1, 246670, Note_on_c, 0, 53, 54
1, 246691, Note_off_c, 0, 65, 64
1, 246694, Note_off_c, 0, 60, 66
1, 246697, Note_off_c, 0, 53, 60
1, 246745, Note_on_c, 0, 48, 62
1, 246754, Note_on_c, 0, 53, 65
1, 246793, Note_off_c, 0, 53, 60
1, 246812, Note_on_c, 0, 41, 78
1, 246824, Note_off_c, 0, 48, 63
1, 246850, Note_off_c, 0, 41, 63
1, 246864, Control_c, 0, 64, 87
1, 246879, Control_c, 0, 64, 0
1, 246893, Note_on_c, 0, 58, 87
1, 246897, Note_on_c, 0, 53, 74
1, 246977, Note_on_c, 0, 46, 83
1, 246983, Control_c, 0, 64, 71
1, 246990, Note_on_c, 0, 41, 62
1, 246998, Control_c, 0, 64, 127
1, 247025, Note_off_c, 0, 46, 60
1, 247059, Note_off_c, 0, 53, 63
1, 247080, Note_on_c, 0, 34, 79
1, 247080, Note_off_c, 0, 58, 62
1, 247081, Note_off_c, 0, 41, 38
1, 247118, Note_off_c, 0, 34, 63
1, 247142, Note_on_c, 0, 58, 72
1, 247147, Note_on_c, 0, 65, 74
1, 247161, Note_on_c, 0, 53, 49
1, 247174, Note_on_c, 0, 61, 35
1, 247180, Note_off_c, 0, 53, 0
1, 247184, Note_off_c, 0, 65, 56
1, 247199, Note_on_c, 0, 53, 63
1, 247201, Note_off_c, 0, 58, 61
1, 247210, Note_on_c, 0, 46, 79
1, 247210, Note_off_c, 0, 61, 51
1, 247265, Note_off_c, 0, 53, 60
1, 247283, Note_on_c, 0, 43, 81
1, 247305, Note_off_c, 0, 46, 62
1, 247323, Note_off_c, 0, 43, 64
1, 247347, Control_c, 0, 64, 90
1, 247361, Control_c, 0, 64, 33
1, 247375, Note_on_c, 0, 53, 82
1, 247375, Note_on_c, 0, 57, 86
1, 247376, Control_c, 0, 64, 0
1, 247415, Note_on_c, 0, 58, 46
1, 247435, Control_c, 0, 64, 71
1, 247445, Note_on_c, 0, 45, 87
1, 247450, Control_c, 0, 64, 98
1, 247454, Note_on_c, 0, 41, 74
1, 247454, Note_off_c, 0, 58, 48
1, 247465, Control_c, 0, 64, 127
1, 247493, Note_off_c, 0, 45, 64
1, 247514, Note_off_c, 0, 53, 62
1, 247538, Note_off_c, 0, 57, 60
1, 247568, Note_on_c, 0, 34, 85
1, 247572, Note_off_c, 0, 41, 64
1, 247606, Note_on_c, 0, 57, 84
1, 247607, Note_on_c, 0, 53, 91
1, 247609, Note_on_c, 0, 65, 86
1, 247618, Note_off_c, 0, 34, 60
1, 247626, Note_off_c, 0, 53, 74
1, 247645, Note_off_c, 0, 57, 64
1, 247648, Note_off_c, 0, 65, 60
1, 247699, Note_on_c, 0, 53, 89
1, 247710, Note_on_c, 0, 45, 73
1, 247750, Note_off_c, 0, 53, 63
1, 247801, Note_on_c, 0, 41, 87
1, 247813, Note_off_c, 0, 45, 64
1, 247839, Note_off_c, 0, 41, 64
1, 247971, Note_on_c, 0, 44, 93
1, 247973, Note_on_c, 0, 56, 92
1, 248051, Control_c, 0, 64, 95
1, 248065, Control_c, 0, 64, 67
1, 248069, Poly_aftertouch_c, 0, 46, 0
1, 248080, Control_c, 0, 64, 0
1, 248104, Note_on_c, 0, 34, 101
1, 248109, Note_on_c, 0, 22, 84
1, 248109, Control_c, 0, 64, 64
1, 248113, Note_on_c, 0, 32, 83
1, 248117, Note_on_c, 0, 26, 60
1, 248118, Note_on_c, 0, 30, 72
1, 248119, Note_off_c, 0, 30, 127
1, 248124, Control_c, 0, 64, 83
1, 248134, Note_off_c, 0, 44, 67
1, 248139, Control_c, 0, 64, 127
1, 248158, Note_off_c, 0, 26, 51
1, 248165, Note_off_c, 0, 32, 52
1, 248179, Note_off_c, 0, 22, 63
1, 248181, Poly_aftertouch_c, 0, 29, 127
1, 248208, Note_off_c, 0, 56, 60
1, 248223, Poly_aftertouch_c, 0, 29, 0
1, 248227, Note_off_c, 0, 34, 60
1, 248247, Poly_aftertouch_c, 0, 23, 0
1, 248471, Note_on_c, 0, 58, 103
1, 248473, Note_on_c, 0, 65, 95
1, 248474, Note_on_c, 0, 53, 104
1, 248482, Note_on_c, 0, 46, 81
1, 248483, Note_on_c, 0, 62, 73
1, 248492, Note_on_c, 0, 41, 60
1, 248511, Note_off_c, 0, 53, 68
1, 248513, Note_off_c, 0, 46, 62
1, 248513, Note_off_c, 0, 58, 64
1, 248516, Note_off_c, 0, 41, 59
1, 248520, Note_off_c, 0, 62, 56
1, 248539, Note_off_c, 0, 65, 65
1, 248602, Poly_aftertouch_c, 0, 49, 0
1, 248876, Note_on_c, 0, 70, 103
1, 248876, Note_on_c, 0, 77, 95
1, 248882, Note_on_c, 0, 65, 105
1, 248885, Note_on_c, 0, 53, 83
1, 248885, Note_on_c, 0, 58, 84
1, 248885, Note_on_c, 0, 74, 78
1, 248890, Note_on_c, 0, 62, 76
1, 248910, Note_off_c, 0, 53, 67
1, 248912, Note_off_c, 0, 74, 66
1, 248912, Note_off_c, 0, 70, 66
1, 248916, Note_off_c, 0, 58, 57
1, 248916, Note_off_c, 0, 62, 65
1, 248921, Note_off_c, 0, 65, 66
1, 248934, Note_off_c, 0, 77, 64
1, 249095, Control_c, 0, 64, 86
1, 249110, Control_c, 0, 64, 0
1, 249134, Note_on_c, 0, 71, 113
1, 249134, Note_on_c, 0, 83, 103
1, 249136, Note_on_c, 0, 92, 84
1, 249136, Note_on_c, 0, 95, 98
1, 249137, Note_on_c, 0, 88, 84
1, 249142, Note_on_c, 0, 68, 93
1, 249144, Note_on_c, 0, 64, 83
1, 249152, Note_on_c, 0, 59, 73
1, 249163, Note_on_c, 0, 90, 47
1, 249184, Control_c, 0, 64, 98
1, 249186, Note_off_c, 0, 90, 60
1, 249195, Note_on_c, 0, 61, 6
1, 249196, Note_off_c, 0, 61, 127
1, 249199, Control_c, 0, 64, 127
1, 249204, Note_off_c, 0, 95, 66
1, 249208, Note_off_c, 0, 71, 60
1, 249219, Note_off_c, 0, 88, 64
1, 249222, Note_off_c, 0, 59, 51
1, 249228, Note_off_c, 0, 64, 61
1, 249231, Note_off_c, 0, 83, 62
1, 249238, Note_off_c, 0, 68, 60
1, 249238, Note_off_c, 0, 92, 66
1, 249243, Poly_aftertouch_c, 0, 61, 0
1, 249417, Poly_aftertouch_c, 0, 59, 127
1, 249419, Note_on_c, 0, 59, 20
1, 249428, Note_on_c, 0, 63, 95
1, 249428, Note_on_c, 0, 71, 82
1, 249430, Note_on_c, 0, 80, 94
1, 249431, Note_on_c, 0, 68, 100
1, 249436, Note_on_c, 0, 56, 86
1, 249437, Note_on_c, 0, 75, 78
1, 249464, Note_on_c, 0, 60, 49
1, 249477, Note_on_c, 0, 78, 22
1, 249490, Note_off_c, 0, 60, 63
1, 249493, Note_off_c, 0, 63, 61
1, 249496, Note_off_c, 0, 59, 61
1, 249500, Note_off_c, 0, 56, 64
1, 249514, Note_off_c, 0, 78, 57
1, 249534, Note_off_c, 0, 80, 60
1, 249580, Note_off_c, 0, 71, 57
1, 249583, Note_off_c, 0, 75, 57
1, 249591, Note_off_c, 0, 68, 54
1, 249876, Note_on_c, 0, 52, 102
1, 249882, Note_on_c, 0, 47, 76
1, 249882, Note_on_c, 0, 56, 102
1, 249886, Note_on_c, 0, 68, 88
1, 249888, Note_on_c, 0, 63, 81
1, 249890, Note_on_c, 0, 40, 77
1, 249909, Note_off_c, 0, 52, 65
1, 249926, Note_off_c, 0, 56, 67
1, 249929, Note_off_c, 0, 68, 61
1, 249931, Note_off_c, 0, 47, 62
1, 249943, Note_off_c, 0, 63, 57
1, 249945, Note_off_c, 0, 40, 62
1, 250222, Control_c, 0, 64, 72
1, 250237, Control_c, 0, 64, 0
1, 250248, Note_on_c, 0, 46, 101
1, 250253, Note_on_c, 0, 34, 101
1, 250256, Note_on_c, 0, 58, 85
1, 250259, Note_on_c, 0, 22, 83
1, 250277, Note_on_c, 0, 30, 53
1, 250278, Note_off_c, 0, 30, 127
1, 250281, Control_c, 0, 64, 71
1, 250284, Note_on_c, 0, 52, 34
1, 250286, Note_off_c, 0, 46, 66
1, 250289, Note_on_c, 0, 32, 35
1, 250290, Note_off_c, 0, 32, 127
1, 250296, Control_c, 0, 64, 127
1, 250307, Note_off_c, 0, 22, 63
1, 250327, Note_on_c, 0, 45, 9
1, 250328, Note_off_c, 0, 58, 67
1, 250330, Poly_aftertouch_c, 0, 32, 0
1, 250331, Note_off_c, 0, 52, 50
1, 250337, Note_off_c, 0, 34, 60
1, 250343, Poly_aftertouch_c, 0, 33, 127
1, 250364, Note_off_c, 0, 45, 48
1, 250384, Poly_aftertouch_c, 0, 33, 0
1, 250670, Note_on_c, 0, 62, 93
1, 250671, Note_on_c, 0, 53, 89
1, 250674, Note_on_c, 0, 77, 103
1, 250674, Note_on_c, 0, 82, 88
1, 250676, Note_on_c, 0, 89, 96
1, 250677, Note_on_c, 0, 86, 89
1, 250677, Note_on_c, 0, 58, 84
1, 250752, Note_off_c, 0, 89, 61
1, 250766, Note_off_c, 0, 86, 62
1, 250771, Note_off_c, 0, 77, 59
1, 250789, Note_off_c, 0, 82, 63
1, 250894, Note_on_c, 0, 86, 97
1, 250894, Note_on_c, 0, 74, 108
1, 250899, Note_on_c, 0, 82, 97
1, 250901, Note_on_c, 0, 65, 104
1, 250939, Note_off_c, 0, 74, 62
1, 250957, Note_off_c, 0, 86, 58
1, 251000, Note_off_c, 0, 82, 56
1, 251011, Note_off_c, 0, 62, 55
1, 251030, Note_off_c, 0, 53, 51
1, 251040, Note_off_c, 0, 58, 57
1, 251226, Note_off_c, 0, 65, 53
1, 251260, Note_on_c, 0, 64, 100
1, 251388, Note_on_c, 0, 70, 77
1, 251470, Note_on_c, 0, 74, 82
1, 251552, Note_off_c, 0, 70, 58
1, 251561, Note_on_c, 0, 63, 98
1, 251567, Note_on_c, 0, 77, 81
1, 251584, Note_off_c, 0, 64, 68
1, 251658, Note_on_c, 0, 66, 78
1, 251720, Note_off_c, 0, 66, 62
1, 251727, Note_on_c, 0, 70, 74
1, 251734, Note_off_c, 0, 74, 54
1, 251740, Note_off_c, 0, 77, 61
1, 251792, Note_on_c, 0, 62, 100
1, 251795, Control_c, 0, 64, 114
1, 251799, Note_on_c, 0, 74, 89
1, 251810, Control_c, 0, 64, 83
1, 251813, Note_off_c, 0, 63, 54
1, 251824, Control_c, 0, 64, 65
1, 251828, Note_off_c, 0, 70, 61
1, 251839, Control_c, 0, 64, 60
1, 251854, Control_c, 0, 64, 68
1, 251869, Control_c, 0, 64, 79
1, 251884, Control_c, 0, 64, 101
1, 251899, Note_on_c, 0, 65, 73
1, 251899, Control_c, 0, 64, 127
1, 251902, Poly_aftertouch_c, 0, 72, 127
1, 251974, Note_on_c, 0, 70, 74
1, 251978, Note_off_c, 0, 65, 60
1, 252030, Note_off_c, 0, 74, 57
1, 252045, Note_on_c, 0, 78, 83
1, 252138, Note_off_c, 0, 70, 41
1, 252140, Note_on_c, 0, 77, 53
1, 252141, Note_off_c, 0, 78, 61
1, 252143, Note_on_c, 0, 66, 70
1, 252184, Note_on_c, 0, 58, 85
1, 252199, Note_off_c, 0, 62, 59
1, 252208, Poly_aftertouch_c, 0, 72, 0
1, 252229, Note_off_c, 0, 66, 58
1, 252235, Note_on_c, 0, 70, 63
1, 252240, Note_off_c, 0, 58, 66
1, 252343, Note_on_c, 0, 74, 62
1, 252363, Note_off_c, 0, 70, 58
1, 252363, Note_off_c, 0, 77, 16
1, 252380, Note_on_c, 0, 53, 83
1, 252426, Control_c, 0, 64, 112
1, 252440, Control_c, 0, 64, 85
1, 252441, Note_on_c, 0, 65, 55
1, 252455, Control_c, 0, 64, 71
1, 252470, Control_c, 0, 64, 68
1, 252484, Control_c, 0, 64, 72
1, 252499, Control_c, 0, 64, 79
1, 252514, Control_c, 0, 64, 95
1, 252529, Control_c, 0, 64, 127
1, 252572, Note_on_c, 0, 70, 58
1, 252587, Note_off_c, 0, 65, 53
1, 252588, Note_off_c, 0, 74, 61
1, 252606, Note_on_c, 0, 52, 69
1, 252633, Note_off_c, 0, 53, 60
1, 252636, Note_off_c, 0, 70, 50
1, 252743, Note_on_c, 0, 51, 69
1, 252758, Note_off_c, 0, 52, 50
1, 252838, Note_on_c, 0, 50, 69
1, 252861, Note_off_c, 0, 51, 61
1, 252913, Note_off_c, 0, 50, 64
1, 253007, Note_on_c, 0, 68, 56
1, 253009, Note_on_c, 0, 62, 43
1, 253010, Note_on_c, 0, 56, 46
1, 253026, Control_c, 0, 64, 108
1, 253041, Control_c, 0, 64, 72
1, 253056, Control_c, 0, 64, 0
1, 253145, Control_c, 0, 64, 68
1, 253160, Control_c, 0, 64, 90
1, 253175, Control_c, 0, 64, 127
1, 253184, Note_on_c, 0, 50, 51
1, 253187, Note_off_c, 0, 62, 58
1, 253192, Note_on_c, 0, 44, 50
1, 253208, Note_off_c, 0, 56, 53
1, 253220, Note_off_c, 0, 50, 66
1, 253250, Note_off_c, 0, 68, 53
1, 253261, Note_off_c, 0, 44, 57
1, 253320, Note_on_c, 0, 34, 55
1, 253352, Note_off_c, 0, 34, 55
1, 253375, Note_on_c, 0, 62, 20
1, 253403, Note_on_c, 0, 68, 53
1, 253404, Note_on_c, 0, 59, 56
1, 253406, Note_on_c, 0, 71, 58
1, 253458, Note_off_c, 0, 71, 57
1, 253470, Note_off_c, 0, 68, 59
1, 253476, Note_off_c, 0, 62, 47
1, 253476, Note_off_c, 0, 59, 53
1, 253512, Note_on_c, 0, 56, 60
1, 253513, Note_on_c, 0, 50, 47
1, 253568, Note_off_c, 0, 56, 64
1, 253596, Note_on_c, 0, 44, 60
1, 253604, Control_c, 0, 64, 103
1, 253618, Note_off_c, 0, 50, 63
1, 253619, Control_c, 0, 64, 70
1, 253634, Control_c, 0, 64, 0
1, 253665, Note_on_c, 0, 62, 57
1, 253666, Note_off_c, 0, 44, 64
1, 253672, Note_on_c, 0, 67, 66
1, 253676, Note_on_c, 0, 55, 59
1, 253708, Control_c, 0, 64, 86
1, 253723, Control_c, 0, 64, 127
1, 253774, Note_on_c, 0, 50, 58
1, 253783, Note_off_c, 0, 55, 64
1, 253783, Note_off_c, 0, 62, 60
1, 253795, Note_on_c, 0, 43, 52
1, 253804, Note_off_c, 0, 50, 67
1, 253806, Note_off_c, 0, 67, 62
1, 253826, Note_off_c, 0, 43, 63
1, 253903, Note_on_c, 0, 34, 62
1, 253935, Note_off_c, 0, 34, 62
1, 253938, Note_on_c, 0, 62, 34
1, 253958, Note_on_c, 0, 67, 64
1, 253963, Note_on_c, 0, 70, 74
1, 253968, Note_on_c, 0, 58, 66
1, 253983, Control_c, 0, 64, 101
1, 253997, Control_c, 0, 64, 84
1, 254012, Control_c, 0, 64, 86
1, 254027, Control_c, 0, 64, 102
1, 254042, Control_c, 0, 64, 127
1, 254048, Note_off_c, 0, 67, 60
1, 254050, Note_on_c, 0, 55, 68
1, 254062, Note_off_c, 0, 62, 50
1, 254066, Note_on_c, 0, 50, 53
1, 254066, Note_off_c, 0, 70, 61
1, 254086, Note_off_c, 0, 55, 57
1, 254089, Note_off_c, 0, 58, 59
1, 254132, Note_on_c, 0, 43, 69
1, 254147, Note_off_c, 0, 50, 65
1, 254159, Note_off_c, 0, 43, 65
1, 254190, Control_c, 0, 64, 79
1, 254204, Control_c, 0, 64, 0
1, 254206, Note_on_c, 0, 62, 59
1, 254212, Note_on_c, 0, 54, 87
1, 254213, Note_on_c, 0, 66, 83
1, 254278, Control_c, 0, 64, 11
1, 254281, Note_on_c, 0, 50, 73
1, 254291, Note_on_c, 0, 42, 64
1, 254293, Control_c, 0, 64, 95
1, 254308, Note_on_c, 0, 63, 19
1, 254308, Note_off_c, 0, 50, 68
1, 254308, Control_c, 0, 64, 127
1, 254342, Note_off_c, 0, 62, 60
1, 254346, Note_off_c, 0, 54, 65
1, 254349, Note_off_c, 0, 42, 62
1, 254360, Note_off_c, 0, 63, 45
1, 254368, Note_off_c, 0, 66, 62
1, 254386, Note_on_c, 0, 34, 76
1, 254424, Note_off_c, 0, 34, 63
1, 254471, Note_on_c, 0, 63, 17
1, 254480, Note_on_c, 0, 57, 82
1, 254481, Note_on_c, 0, 69, 84
1, 254483, Note_on_c, 0, 66, 73
1, 254490, Note_on_c, 0, 62, 51
1, 254512, Note_off_c, 0, 63, 50
1, 254517, Note_off_c, 0, 62, 58
1, 254534, Note_on_c, 0, 50, 65
1, 254534, Note_on_c, 0, 54, 84
1, 254543, Note_off_c, 0, 57, 55
1, 254545, Note_off_c, 0, 69, 57
1, 254553, Note_off_c, 0, 66, 60
1, 254594, Note_off_c, 0, 54, 63
1, 254626, Note_on_c, 0, 42, 81
1, 254638, Note_off_c, 0, 50, 66
1, 254664, Note_on_c, 0, 44, 33
1, 254672, Note_off_c, 0, 42, 61
1, 254680, Note_on_c, 0, 41, 32
1, 254686, Control_c, 0, 64, 104
1, 254701, Note_off_c, 0, 44, 51
1, 254701, Control_c, 0, 64, 69
1, 254711, Note_on_c, 0, 62, 72
1, 254713, Note_on_c, 0, 53, 97
1, 254715, Note_off_c, 0, 41, 46
1, 254716, Control_c, 0, 64, 0
1, 254719, Note_on_c, 0, 65, 89
1, 254741, Note_on_c, 0, 63, 62
1, 254761, Control_c, 0, 64, 69
1, 254773, Note_on_c, 0, 50, 89
1, 254776, Control_c, 0, 64, 99
1, 254790, Control_c, 0, 64, 127
1, 254799, Note_off_c, 0, 53, 63
1, 254805, Note_on_c, 0, 40, 54
1, 254811, Note_on_c, 0, 44, 20
1, 254812, Note_on_c, 0, 41, 39
1, 254814, Note_off_c, 0, 50, 66
1, 254817, Note_off_c, 0, 62, 61
1, 254828, Note_off_c, 0, 65, 61
1, 254833, Note_off_c, 0, 63, 50
1, 254846, Note_off_c, 0, 41, 57
1, 254854, Note_off_c, 0, 44, 54
1, 254889, Note_on_c, 0, 34, 87
1, 254904, Note_off_c, 0, 40, 64
1, 254931, Note_off_c, 0, 34, 60
1, 254954, Note_on_c, 0, 62, 34
1, 254975, Note_on_c, 0, 65, 83
1, 254976, Note_on_c, 0, 56, 101
1, 254981, Note_on_c, 0, 68, 88
1, 255003, Note_off_c, 0, 62, 59
1, 255015, Note_on_c, 0, 53, 98
1, 255018, Note_off_c, 0, 65, 63
1, 255021, Note_on_c, 0, 50, 74
1, 255030, Note_off_c, 0, 56, 67
1, 255033, Note_off_c, 0, 68, 62
1, 255064, Note_off_c, 0, 53, 64
1, 255109, Note_on_c, 0, 41, 88
1, 255117, Note_on_c, 0, 44, 72
1, 255124, Note_off_c, 0, 50, 67
1, 255149, Note_off_c, 0, 44, 64
1, 255155, Note_off_c, 0, 41, 63
1, 255288, Note_on_c, 0, 50, 102
1, 255294, Note_on_c, 0, 62, 93
1, 255308, Note_on_c, 0, 57, 47
1, 255351, Note_off_c, 0, 57, 42
1, 255362, Control_c, 0, 64, 90
1, 255369, Note_on_c, 0, 59, 14
1, 255376, Control_c, 0, 64, 24
1, 255391, Control_c, 0, 64, 0
1, 255432, Poly_aftertouch_c, 0, 55, 0
1, 255434, Note_on_c, 0, 38, 103
1, 255441, Note_on_c, 0, 26, 88
1, 255450, Note_on_c, 0, 34, 72
1, 255465, Control_c, 0, 64, 100
1, 255469, Poly_aftertouch_c, 0, 57, 0
1, 255479, Note_off_c, 0, 50, 59
1, 255480, Control_c, 0, 64, 127
1, 255502, Note_on_c, 0, 32, 2
1, 255523, Note_off_c, 0, 59, 38
1, 255533, Note_off_c, 0, 62, 60
1, 255545, Note_off_c, 0, 32, 49
1, 255545, Note_off_c, 0, 26, 60
1, 255583, Note_off_c, 0, 34, 46
1, 255595, Note_off_c, 0, 38, 64
1, 255799, Note_on_c, 0, 57, 102
1, 255802, Note_on_c, 0, 69, 89
1, 255805, Note_on_c, 0, 62, 69
1, 255806, Note_on_c, 0, 45, 111
1, 255807, Note_on_c, 0, 66, 83
1, 255815, Note_on_c, 0, 38, 83
1, 255873, Note_off_c, 0, 57, 57
1, 255893, Note_off_c, 0, 38, 55
1, 255897, Note_off_c, 0, 45, 61
1, 255899, Note_off_c, 0, 62, 59
1, 255919, Note_off_c, 0, 69, 59
1, 255932, Note_off_c, 0, 66, 58
1, 256118, Note_on_c, 0, 66, 104
1, 256119, Note_on_c, 0, 57, 106
1, 256120, Note_on_c, 0, 45, 82
1, 256120, Note_on_c, 0, 50, 59
1, 256123, Note_on_c, 0, 78, 96
1, 256126, Note_on_c, 0, 54, 84
1, 256126, Note_on_c, 0, 74, 83
1, 256135, Note_on_c, 0, 71, 66
1, 256153, Note_off_c, 0, 45, 62
1, 256159, Note_off_c, 0, 50, 68
1, 256160, Note_off_c, 0, 71, 69
1, 256170, Note_off_c, 0, 66, 67
1, 256171, Note_on_c, 0, 55, 11
1, 256172, Note_off_c, 0, 55, 127
1, 256175, Note_off_c, 0, 74, 66
1, 256182, Note_off_c, 0, 54, 66
1, 256196, Note_off_c, 0, 57, 58
1, 256211, Note_off_c, 0, 78, 64
1, 256367, Note_on_c, 0, 74, 104
1, 256369, Note_on_c, 0, 62, 105
1, 256372, Note_on_c, 0, 78, 93
1, 256372, Note_on_c, 0, 81, 94
1, 256373, Note_on_c, 0, 54, 92
1, 256375, Note_on_c, 0, 86, 99
1, 256376, Note_on_c, 0, 50, 89
1, 256377, Note_on_c, 0, 57, 78
1, 256398, Note_off_c, 0, 50, 72
1, 256404, Note_off_c, 0, 57, 59
1, 256410, Note_on_c, 0, 83, 46
1, 256421, Note_off_c, 0, 74, 61
1, 256424, Note_off_c, 0, 54, 67
1, 256428, Note_off_c, 0, 81, 54
1, 256434, Note_off_c, 0, 83, 58
1, 256438, Note_off_c, 0, 78, 62
1, 256442, Note_off_c, 0, 62, 55
1, 256474, Note_off_c, 0, 86, 65
1, 256689, Control_c, 0, 64, 73
1, 256704, Control_c, 0, 64, 0
1, 256707, Note_on_c, 0, 73, 114
1, 256707, Note_on_c, 0, 85, 117
1, 256709, Note_on_c, 0, 97, 106
1, 256713, Note_on_c, 0, 70, 90
1, 256713, Note_on_c, 0, 66, 85
1, 256714, Note_on_c, 0, 90, 92
1, 256714, Note_on_c, 0, 94, 92
1, 256719, Note_on_c, 0, 61, 87
1, 256756, Note_on_c, 0, 92, 18
1, 256757, Note_off_c, 0, 92, 127
1, 256785, Control_c, 0, 64, 79
1, 256801, Control_c, 0, 64, 127
1, 256814, Poly_aftertouch_c, 0, 92, 127
1, 256826, Note_on_c, 0, 92, 16
1, 256834, Note_off_c, 0, 97, 64
1, 256842, Note_off_c, 0, 73, 61
1, 256863, Note_off_c, 0, 92, 42
1, 256870, Note_off_c, 0, 94, 62
1, 256873, Note_off_c, 0, 90, 62
1, 256874, Note_off_c, 0, 66, 56
1, 256883, Note_off_c, 0, 70, 61
1, 256884, Note_off_c, 0, 85, 59
1, 256910, Note_off_c, 0, 61, 59
1, 257107, Note_on_c, 0, 64, 100
1, 257111, Note_on_c, 0, 70, 102
1, 257112, Note_on_c, 0, 82, 99
1, 257115, Note_on_c, 0, 52, 88
1, 257116, Note_on_c, 0, 58, 87
1, 257116, Note_on_c, 0, 61, 91
1, 257116, Note_on_c, 0, 73, 89
1, 257118, Note_on_c, 0, 76, 77
1, 257136, Note_on_c, 0, 80, 61
1, 257145, Note_on_c, 0, 56, 33
1, 257155, Note_off_c, 0, 80, 41
1, 257186, Note_off_c, 0, 56, 51
1, 257192, Note_off_c, 0, 52, 50
1, 257239, Note_off_c, 0, 82, 60
1, 257244, Note_off_c, 0, 64, 49
1, 257256, Note_off_c, 0, 58, 40
1, 257257, Note_off_c, 0, 61, 59
1, 257274, Note_off_c, 0, 76, 38
1, 257306, Note_off_c, 0, 73, 55
1, 257336, Note_off_c, 0, 70, 57
1, 257652, Note_on_c, 0, 58, 99
1, 257664, Note_on_c, 0, 64, 78
1, 257664, Note_on_c, 0, 49, 113
1, 257666, Note_on_c, 0, 65, 76
1, 257671, Note_on_c, 0, 42, 93
1, 257691, Note_off_c, 0, 65, 65
1, 257700, Note_off_c, 0, 49, 64
1, 257702, Note_off_c, 0, 58, 60
1, 257705, Note_off_c, 0, 42, 57
1, 257715, Note_off_c, 0, 64, 64
1, 258052, Control_c, 0, 64, 84
1, 258067, Control_c, 0, 64, 0
1, 258068, Note_on_c, 0, 50, 95
1, 258071, Note_on_c, 0, 38, 104
1, 258072, Note_on_c, 0, 62, 88
1, 258075, Note_on_c, 0, 26, 87
1, 258111, Note_off_c, 0, 26, 56
1, 258111, Control_c, 0, 64, 64
1, 258124, Note_off_c, 0, 50, 65
1, 258125, Note_on_c, 0, 59, 17
1, 258126, Control_c, 0, 64, 81
1, 258141, Control_c, 0, 64, 127
1, 258152, Note_on_c, 0, 28, 2
1, 258158, Note_off_c, 0, 38, 64
1, 258164, Note_off_c, 0, 59, 51
1, 258186, Poly_aftertouch_c, 0, 30, 0
1, 258191, Poly_aftertouch_c, 0, 34, 0
1, 258195, Note_off_c, 0, 62, 60
1, 258197, Note_off_c, 0, 28, 40
1, 258453, Note_on_c, 0, 69, 96
1, 258454, Note_on_c, 0, 45, 78
1, 258454, Note_on_c, 0, 54, 91
1, 258456, Note_on_c, 0, 81, 96
1, 258462, Note_on_c, 0, 50, 73
1, 258484, Note_off_c, 0, 69, 68
1, 258488, Note_off_c, 0, 81, 66
1, 258511, Note_on_c, 0, 78, 9
1, 258561, Note_off_c, 0, 78, 52
1, 258583, Note_on_c, 0, 66, 97
1, 258585, Note_on_c, 0, 78, 87
1, 258591, Note_on_c, 0, 57, 101
1, 258615, Note_off_c, 0, 66, 66
1, 258620, Note_off_c, 0, 78, 63
1, 258734, Note_off_c, 0, 54, 50
1, 258762, Note_off_c, 0, 45, 44
1, 258797, Note_off_c, 0, 50, 45
1, 258958, Note_on_c, 0, 56, 99
1, 258979, Note_off_c, 0, 57, 60
1, 259075, Poly_aftertouch_c, 0, 54, 127
1, 259116, Note_on_c, 0, 62, 68
1, 259174, Poly_aftertouch_c, 0, 54, 0
1, 259189, Note_on_c, 0, 66, 71
1, 259235, Note_off_c, 0, 62, 57
1, 259248, Note_on_c, 0, 55, 99
1, 259275, Note_on_c, 0, 69, 76
1, 259293, Note_off_c, 0, 56, 54
1, 259343, Note_off_c, 0, 66, 39
1, 259351, Note_on_c, 0, 58, 70
1, 259417, Note_off_c, 0, 58, 62
1, 259429, Note_on_c, 0, 62, 67
1, 259444, Note_off_c, 0, 69, 50
1, 259467, Note_off_c, 0, 55, 59
1, 259501, Note_on_c, 0, 54, 98
1, 259506, Control_c, 0, 64, 106
1, 259507, Note_on_c, 0, 66, 78
1, 259521, Control_c, 0, 64, 80
1, 259531, Note_off_c, 0, 62, 59
1, 259536, Control_c, 0, 64, 64
1, 259551, Control_c, 0, 64, 21
1, 259566, Control_c, 0, 64, 23
1, 259581, Control_c, 0, 64, 62
1, 259595, Control_c, 0, 64, 73
1, 259597, Note_on_c, 0, 57, 57
1, 259610, Control_c, 0, 64, 90
1, 259625, Control_c, 0, 64, 127
1, 259685, Note_on_c, 0, 62, 61
1, 259705, Note_off_c, 0, 57, 47
1, 259786, Note_on_c, 0, 69, 73
1, 259885, Note_off_c, 0, 62, 58
1, 259897, Note_on_c, 0, 58, 67
1, 259936, Note_on_c, 0, 50, 82
1, 259947, Note_off_c, 0, 66, 20
1, 259948, Note_off_c, 0, 54, 66
1, 260018, Note_on_c, 0, 62, 56
1, 260018, Note_off_c, 0, 50, 64
1, 260046, Note_off_c, 0, 58, 38
1, 260156, Note_on_c, 0, 45, 73
1, 260169, Note_on_c, 0, 66, 58
1, 260174, Note_off_c, 0, 62, 53
1, 260180, Control_c, 0, 64, 101
1, 260195, Control_c, 0, 64, 84
1, 260210, Control_c, 0, 64, 72
1, 260224, Control_c, 0, 64, 63
1, 260239, Control_c, 0, 64, 53
1, 260254, Control_c, 0, 64, 58
1, 260269, Control_c, 0, 64, 65
1, 260278, Note_on_c, 0, 57, 45
1, 260284, Control_c, 0, 64, 71
1, 260298, Control_c, 0, 64, 80
1, 260313, Control_c, 0, 64, 97
1, 260328, Control_c, 0, 64, 127
1, 260406, Note_on_c, 0, 44, 75
1, 260434, Note_on_c, 0, 62, 50
1, 260435, Note_off_c, 0, 57, 57
1, 260438, Note_off_c, 0, 45, 62
1, 260479, Note_off_c, 0, 66, 56
1, 260515, Note_off_c, 0, 62, 59
1, 260517, Note_off_c, 0, 69, 9
1, 260532, Note_off_c, 0, 44, 52
1, 260576, Note_on_c, 0, 43, 65
1, 260690, Note_off_c, 0, 43, 51
1, 260770, Note_on_c, 0, 42, 60
1, 260890, Note_on_c, 0, 69, 75
1, 261072, Note_off_c, 0, 42, 32
1, 261125, Note_on_c, 0, 39, 46
1, 261210, Control_c, 0, 64, 111
1, 261225, Control_c, 0, 64, 86
1, 261239, Control_c, 0, 64, 67
1, 261254, Control_c, 0, 64, 0
1, 261280, Note_on_c, 0, 73, 63
1, 261288, Note_off_c, 0, 69, 50
1, 261380, Control_c, 0, 64, 57
1, 261395, Control_c, 0, 64, 76
1, 261410, Control_c, 0, 64, 99
1, 261425, Control_c, 0, 64, 127
1, 261515, Note_off_c, 0, 39, 40
1, 261591, Note_off_c, 0, 73, 55
1, 261667, Note_on_c, 0, 49, 50
1, 261673, Note_on_c, 0, 66, 47
1, 261721, Note_off_c, 0, 66, 58
1, 261766, Note_on_c, 0, 57, 45
1, 261795, Note_on_c, 0, 61, 50
1, 261830, Note_off_c, 0, 57, 54
1, 261831, Note_off_c, 0, 49, 0
1, 261831, Note_on_c, 0, 49, 3
1, 261849, Note_off_c, 0, 61, 61
1, 261879, Note_off_c, 0, 49, 53
1, 262051, Note_on_c, 0, 48, 51
1, 262066, Note_on_c, 0, 72, 61
1, 262100, Control_c, 0, 64, 114
1, 262115, Control_c, 0, 64, 93
1, 262129, Control_c, 0, 64, 78
1, 262144, Control_c, 0, 64, 64
1, 262154, Note_off_c, 0, 48, 57
1, 262159, Control_c, 0, 64, 0
1, 262173, Note_on_c, 0, 69, 57
1, 262188, Note_on_c, 0, 41, 37
1, 262198, Note_off_c, 0, 72, 53
1, 262203, Control_c, 0, 64, 63
1, 262218, Control_c, 0, 64, 76
1, 262233, Control_c, 0, 64, 96
1, 262248, Control_c, 0, 64, 127
1, 262290, Note_off_c, 0, 69, 60
1, 262304, Note_off_c, 0, 41, 51
1, 262410, Note_on_c, 0, 65, 58
1, 262430, Note_on_c, 0, 49, 48
1, 262473, Note_off_c, 0, 65, 61
1, 262485, Note_on_c, 0, 57, 64
1, 262487, Note_on_c, 0, 51, 48
1, 262493, Note_on_c, 0, 61, 59
1, 262517, Note_off_c, 0, 57, 61
1, 262523, Note_off_c, 0, 51, 53
1, 262551, Note_off_c, 0, 61, 63
1, 262553, Note_off_c, 0, 49, 63
1, 262661, Note_on_c, 0, 48, 61
1, 262689, Note_on_c, 0, 72, 77
1, 262708, Control_c, 0, 64, 90
1, 262723, Control_c, 0, 64, 69
1, 262738, Control_c, 0, 64, 0
1, 262747, Note_on_c, 0, 42, 63
1, 262778, Note_on_c, 0, 68, 74
1, 262790, Note_off_c, 0, 48, 50
1, 262805, Control_c, 0, 64, 62
1, 262813, Note_off_c, 0, 72, 61
1, 262819, Control_c, 0, 64, 72
1, 262834, Control_c, 0, 64, 86
1, 262845, Note_off_c, 0, 42, 61
1, 262849, Control_c, 0, 64, 100
1, 262864, Control_c, 0, 64, 105
1, 262879, Control_c, 0, 64, 108
1, 262893, Control_c, 0, 64, 110
1, 262908, Control_c, 0, 64, 111
1, 262923, Control_c, 0, 64, 112
1, 262940, Note_off_c, 0, 68, 61
1, 262964, Note_on_c, 0, 64, 66
1, 262969, Note_on_c, 0, 49, 64
1, 263052, Note_on_c, 0, 58, 60
1, 263071, Note_on_c, 0, 61, 60
1, 263080, Note_off_c, 0, 58, 66
1, 263086, Control_c, 0, 64, 111
1, 263104, Note_off_c, 0, 61, 64
1, 263110, Note_off_c, 0, 49, 55
1, 263175, Control_c, 0, 64, 111
1, 263191, Control_c, 0, 64, 110
1, 263206, Control_c, 0, 64, 110
1, 263220, Control_c, 0, 64, 108
1, 263225, Note_off_c, 0, 64, 42
1, 263235, Control_c, 0, 64, 104
1, 263244, Note_on_c, 0, 48, 54
1, 263250, Note_on_c, 0, 72, 62
1, 263250, Control_c, 0, 64, 92
1, 263265, Control_c, 0, 64, 77
1, 263280, Control_c, 0, 64, 63
1, 263292, Note_off_c, 0, 48, 61
1, 263295, Control_c, 0, 64, 0
1, 263334, Note_on_c, 0, 41, 43
1, 263351, Note_on_c, 0, 69, 60
1, 263369, Control_c, 0, 64, 61
1, 263375, Note_off_c, 0, 72, 56
1, 263383, Control_c, 0, 64, 71
1, 263397, Control_c, 0, 64, 82
1, 263409, Note_off_c, 0, 41, 58
1, 263412, Control_c, 0, 64, 94
1, 263427, Control_c, 0, 64, 105
1, 263435, Note_off_c, 0, 69, 60
1, 263441, Control_c, 0, 64, 119
1, 263456, Control_c, 0, 64, 127
1, 263560, Note_on_c, 0, 65, 52
1, 263569, Note_on_c, 0, 49, 48
1, 263620, Note_off_c, 0, 65, 60
1, 263650, Note_on_c, 0, 57, 59
1, 263672, Note_on_c, 0, 61, 51
1, 263680, Note_off_c, 0, 57, 65
1, 263701, Note_off_c, 0, 61, 64
1, 263702, Note_off_c, 0, 49, 62
1, 263859, Note_on_c, 0, 48, 41
1, 263891, Note_on_c, 0, 77, 66
1, 264007, Note_off_c, 0, 48, 32
1, 264060, Note_on_c, 0, 39, 48
1, 264087, Control_c, 0, 64, 101
1, 264102, Control_c, 0, 64, 83
1, 264114, Note_on_c, 0, 73, 59
1, 264117, Control_c, 0, 64, 67
1, 264131, Control_c, 0, 64, 0
1, 264140, Note_off_c, 0, 77, 49
1, 264235, Control_c, 0, 64, 69
1, 264257, Control_c, 0, 64, 96
1, 264272, Control_c, 0, 64, 127
1, 264291, Note_off_c, 0, 73, 60
1, 264299, Note_off_c, 0, 39, 40
1, 264413, Note_on_c, 0, 66, 57
1, 264422, Note_on_c, 0, 49, 53
1, 264472, Note_off_c, 0, 66, 59
1, 264499, Note_on_c, 0, 57, 58
1, 264520, Note_on_c, 0, 61, 57
1, 264545, Note_off_c, 0, 57, 59
1, 264556, Note_off_c, 0, 61, 64
1, 264560, Note_off_c, 0, 49, 60
1, 264690, Note_on_c, 0, 48, 59
1, 264690, Note_on_c, 0, 72, 71
1, 264702, Control_c, 0, 64, 114
1, 264717, Control_c, 0, 64, 86
1, 264723, Note_off_c, 0, 48, 60
1, 264731, Control_c, 0, 64, 65
1, 264746, Control_c, 0, 64, 0
1, 264763, Note_on_c, 0, 69, 73
1, 264765, Note_on_c, 0, 41, 62
1, 264776, Control_c, 0, 64, 24
1, 264791, Control_c, 0, 64, 66
1, 264793, Note_off_c, 0, 72, 62
1, 264806, Control_c, 0, 64, 77
1, 264821, Control_c, 0, 64, 98
1, 264831, Note_off_c, 0, 41, 62
1, 264836, Control_c, 0, 64, 127
1, 264854, Note_off_c, 0, 69, 59
1, 264944, Note_on_c, 0, 49, 73
1, 264951, Note_on_c, 0, 65, 67
1, 265015, Note_on_c, 0, 51, 41
1, 265028, Note_on_c, 0, 61, 69
1, 265028, Note_off_c, 0, 65, 63
1, 265033, Note_on_c, 0, 57, 73
1, 265053, Note_off_c, 0, 51, 53
1, 265072, Note_off_c, 0, 61, 63
1, 265079, Note_off_c, 0, 49, 63
1, 265088, Note_off_c, 0, 57, 59
1, 265201, Note_on_c, 0, 48, 49
1, 265234, Note_on_c, 0, 72, 72
1, 265258, Control_c, 0, 64, 91
1, 265273, Control_c, 0, 64, 68
1, 265283, Note_on_c, 0, 42, 49
1, 265287, Control_c, 0, 64, 0
1, 265312, Note_on_c, 0, 68, 67
1, 265331, Note_off_c, 0, 48, 38
1, 265331, Note_off_c, 0, 72, 60
1, 265358, Note_off_c, 0, 42, 59
1, 265376, Control_c, 0, 64, 48
1, 265391, Control_c, 0, 64, 77
1, 265405, Control_c, 0, 64, 100
1, 265420, Control_c, 0, 64, 127
1, 265502, Note_off_c, 0, 68, 59
1, 265517, Note_on_c, 0, 49, 48
1, 265522, Note_on_c, 0, 64, 56
1, 265599, Note_on_c, 0, 58, 56
1, 265625, Note_on_c, 0, 61, 54
1, 265638, Note_off_c, 0, 58, 62
1, 265650, Note_off_c, 0, 64, 49
1, 265664, Note_off_c, 0, 61, 61
1, 265671, Note_off_c, 0, 49, 59
1, 265826, Note_on_c, 0, 48, 51
1, 265827, Note_on_c, 0, 72, 59
1, 265868, Note_off_c, 0, 48, 61
1, 265874, Control_c, 0, 64, 94
1, 265889, Control_c, 0, 64, 75
1, 265904, Control_c, 0, 64, 52
1, 265918, Control_c, 0, 64, 0
1, 265920, Note_on_c, 0, 41, 42
1, 265927, Note_off_c, 0, 72, 54
1, 265927, Note_on_c, 0, 69, 57
1, 265963, Control_c, 0, 64, 38
1, 265978, Control_c, 0, 64, 66
1, 265983, Note_off_c, 0, 41, 59
1, 265993, Control_c, 0, 64, 78
1, 266008, Control_c, 0, 64, 93
1, 266022, Control_c, 0, 64, 117
1, 266037, Control_c, 0, 64, 127
1, 266040, Note_off_c, 0, 69, 59
1, 266082, Control_c, 0, 67, 8
1, 266097, Control_c, 0, 67, 9
1, 266111, Control_c, 0, 67, 10
1, 266126, Control_c, 0, 67, 13
1, 266141, Control_c, 0, 67, 15
1, 266145, Note_on_c, 0, 49, 40
1, 266155, Control_c, 0, 67, 19
1, 266166, Note_on_c, 0, 65, 39
1, 266170, Control_c, 0, 67, 24
1, 266185, Control_c, 0, 67, 28
1, 266200, Control_c, 0, 67, 31
1, 266207, Note_off_c, 0, 65, 60
1, 266215, Control_c, 0, 67, 34
1, 266229, Control_c, 0, 67, 37
1, 266244, Control_c, 0, 67, 40
1, 266259, Control_c, 0, 67, 44
1, 266262, Note_on_c, 0, 57, 50
1, 266274, Control_c, 0, 67, 48
1, 266275, Note_on_c, 0, 61, 36
1, 266289, Control_c, 0, 67, 51
1, 266297, Note_off_c, 0, 57, 58
1, 266303, Control_c, 0, 67, 54
1, 266308, Note_off_c, 0, 61, 57
1, 266309, Note_off_c, 0, 49, 42
1, 266318, Control_c, 0, 67, 56
1, 266333, Control_c, 0, 67, 57
1, 266348, Control_c, 0, 67, 60
1, 266362, Control_c, 0, 67, 62
1, 266378, Control_c, 0, 67, 63
1, 266393, Control_c, 0, 67, 64
1, 266423, Control_c, 0, 67, 64
1, 266455, Note_on_c, 0, 70, 58
1, 266471, Note_on_c, 0, 48, 42
1, 266482, Control_c, 0, 67, 65
1, 266564, Control_c, 0, 67, 65
1, 266583, Note_off_c, 0, 48, 36
1, 266593, Control_c, 0, 64, 110
1, 266608, Control_c, 0, 64, 92
1, 266608, Control_c, 0, 67, 66
1, 266623, Control_c, 0, 64, 76
1, 266638, Control_c, 0, 64, 43
1, 266653, Control_c, 0, 64, 0
1, 266656, Note_on_c, 0, 39, 41
1, 266702, Note_off_c, 0, 70, 60
1, 266708, Note_on_c, 0, 73, 56
1, 266712, Control_c, 0, 67, 65
1, 266741, Control_c, 0, 64, 48
1, 266741, Control_c, 0, 67, 64
1, 266756, Control_c, 0, 64, 73
1, 266771, Control_c, 0, 64, 95
1, 266771, Control_c, 0, 67, 63
1, 266786, Control_c, 0, 64, 127
1, 266786, Control_c, 0, 67, 62
1, 266801, Control_c, 0, 67, 61
1, 266815, Control_c, 0, 67, 60
1, 266830, Control_c, 0, 67, 59
1, 266831, Note_off_c, 0, 39, 40
1, 266845, Control_c, 0, 67, 59
1, 266860, Control_c, 0, 67, 58
1, 266884, Note_on_c, 0, 66, 34
1, 266890, Control_c, 0, 67, 57
1, 266905, Control_c, 0, 67, 56
1, 266920, Control_c, 0, 67, 55
1, 266934, Control_c, 0, 67, 54
1, 266949, Control_c, 0, 67, 52
1, 266954, Note_on_c, 0, 65, 45
1, 266964, Note_on_c, 0, 49, 55
1, 266964, Control_c, 0, 67, 48
1, 266978, Control_c, 0, 67, 41
1, 266993, Control_c, 0, 67, 28
1, 267003, Note_off_c, 0, 65, 60
1, 267008, Control_c, 0, 67, 12
1, 267021, Note_off_c, 0, 66, 38
1, 267023, Control_c, 0, 67, 0
1, 267037, Note_off_c, 0, 73, 59
1, 267049, Note_on_c, 0, 64, 59
1, 267073, Note_on_c, 0, 58, 54
1, 267132, Note_on_c, 0, 63, 60
1, 267138, Note_off_c, 0, 49, 36
1, 267138, Note_off_c, 0, 58, 60
1, 267179, Note_off_c, 0, 64, 57
1, 267202, Note_on_c, 0, 48, 54
1, 267216, Control_c, 0, 64, 96
1, 267227, Note_off_c, 0, 63, 62
1, 267230, Note_on_c, 0, 69, 66
1, 267231, Control_c, 0, 64, 73
1, 267246, Control_c, 0, 64, 0
1, 267298, Note_on_c, 0, 41, 58
1, 267298, Control_c, 0, 64, 50
1, 267299, Note_off_c, 0, 48, 59
1, 267313, Control_c, 0, 64, 66
1, 267328, Control_c, 0, 64, 77
1, 267343, Control_c, 0, 64, 96
1, 267352, Note_on_c, 0, 72, 69
1, 267357, Control_c, 0, 64, 127
1, 267380, Note_off_c, 0, 69, 55
1, 267397, Note_off_c, 0, 72, 64
1, 267454, Note_off_c, 0, 41, 56
1, 267532, Note_on_c, 0, 49, 60
1, 267541, Note_on_c, 0, 63, 64
1, 267563, Poly_aftertouch_c, 0, 57, 0
1, 267571, Note_off_c, 0, 63, 64
1, 267636, Note_on_c, 0, 57, 54
1, 267656, Note_on_c, 0, 66, 44
1, 267684, Note_off_c, 0, 66, 55
1, 267705, Note_off_c, 0, 57, 57
1, 267722, Note_on_c, 0, 51, 64
1, 267724, Note_off_c, 0, 49, 58
1, 267726, Note_on_c, 0, 69, 65
1, 267827, Note_on_c, 0, 73, 79
1, 267838, Note_on_c, 0, 43, 58
1, 267859, Note_off_c, 0, 69, 57
1, 267861, Control_c, 0, 64, 106
1, 267874, Control_c, 0, 64, 75
1, 267889, Control_c, 0, 64, 0
1, 267942, Note_on_c, 0, 77, 81
1, 267945, Note_off_c, 0, 51, 53
1, 267948, Control_c, 0, 64, 63
1, 267959, Note_off_c, 0, 73, 63
1, 267963, Control_c, 0, 64, 84
1, 267979, Note_off_c, 0, 43, 63
1, 267979, Control_c, 0, 64, 127
1, 268047, Note_on_c, 0, 72, 68
1, 268109, Note_on_c, 0, 53, 58
1, 268150, Note_on_c, 0, 71, 71
1, 268177, Note_off_c, 0, 77, 46
1, 268201, Note_off_c, 0, 53, 63
1, 268204, Note_on_c, 0, 61, 67
1, 268214, Note_off_c, 0, 72, 61
1, 268224, Note_on_c, 0, 70, 74
1, 268247, Note_off_c, 0, 61, 61
1, 268249, Note_off_c, 0, 71, 62
1, 268294, Note_on_c, 0, 65, 73
1, 268294, Note_off_c, 0, 70, 63
1, 268309, Note_on_c, 0, 51, 73
1, 268357, Control_c, 0, 64, 113
1, 268371, Note_on_c, 0, 72, 78
1, 268371, Control_c, 0, 64, 83
1, 268386, Control_c, 0, 64, 64
1, 268401, Control_c, 0, 64, 0
1, 268404, Note_off_c, 0, 65, 62
1, 268421, Note_on_c, 0, 44, 68
1, 268431, Control_c, 0, 64, 53
1, 268446, Control_c, 0, 64, 80
1, 268461, Control_c, 0, 64, 127
1, 268471, Note_on_c, 0, 75, 85
1, 268476, Note_off_c, 0, 51, 63
1, 268480, Note_off_c, 0, 72, 62
1, 268537, Note_off_c, 0, 75, 65
1, 268562, Note_off_c, 0, 44, 62
1, 268584, Note_on_c, 0, 60, 65
1, 268608, Note_off_c, 0, 60, 60
1, 268630, Note_on_c, 0, 52, 58
1, 268653, Note_on_c, 0, 66, 67
1, 268726, Note_on_c, 0, 70, 72
1, 268727, Note_off_c, 0, 66, 62
1, 268730, Note_on_c, 0, 60, 57
1, 268741, Note_off_c, 0, 52, 59
1, 268780, Note_off_c, 0, 70, 65
1, 268795, Poly_aftertouch_c, 0, 68, 0
1, 268824, Note_off_c, 0, 60, 56
1, 268838, Note_on_c, 0, 72, 77
1, 268845, Note_on_c, 0, 54, 72
1, 268914, Note_on_c, 0, 77, 83
1, 268938, Note_off_c, 0, 72, 61
1, 268973, Control_c, 0, 64, 96
1, 268988, Control_c, 0, 64, 70
1, 269001, Note_on_c, 0, 46, 66
1, 269003, Control_c, 0, 64, 0
1, 269051, Note_on_c, 0, 80, 82
1, 269054, Note_off_c, 0, 77, 63
1, 269077, Control_c, 0, 64, 51
1, 269078, Note_off_c, 0, 54, 55
1, 269092, Control_c, 0, 64, 66
1, 269107, Control_c, 0, 64, 79
1, 269120, Note_off_c, 0, 46, 62
1, 269122, Control_c, 0, 64, 93
1, 269136, Control_c, 0, 64, 115
1, 269150, Note_on_c, 0, 76, 73
1, 269151, Control_c, 0, 64, 127
1, 269212, Note_on_c, 0, 56, 61
1, 269214, Note_off_c, 0, 80, 50
1, 269241, Note_on_c, 0, 75, 68
1, 269295, Note_off_c, 0, 56, 62
1, 269299, Note_off_c, 0, 76, 53
1, 269306, Note_on_c, 0, 73, 78
1, 269320, Note_on_c, 0, 65, 67
1, 269364, Note_off_c, 0, 65, 54
1, 269377, Note_off_c, 0, 75, 59
1, 269397, Note_on_c, 0, 68, 78
1, 269428, Note_off_c, 0, 73, 60
1, 269433, Note_on_c, 0, 54, 64
1, 269462, Control_c, 0, 64, 118
1, 269477, Control_c, 0, 64, 93
1, 269492, Control_c, 0, 64, 77
1, 269494, Note_on_c, 0, 75, 73
1, 269513, Control_c, 0, 64, 64
1, 269528, Control_c, 0, 64, 0
1, 269539, Note_on_c, 0, 48, 62
1, 269564, Note_off_c, 0, 68, 57
1, 269589, Control_c, 0, 64, 48
1, 269603, Control_c, 0, 64, 62
1, 269618, Control_c, 0, 64, 69
1, 269619, Note_on_c, 0, 78, 86
1, 269633, Control_c, 0, 64, 77
1, 269636, Note_off_c, 0, 54, 36
1, 269648, Control_c, 0, 64, 87
1, 269656, Note_off_c, 0, 75, 62
1, 269663, Control_c, 0, 64, 98
1, 269677, Control_c, 0, 64, 109
1, 269692, Control_c, 0, 64, 118
1, 269695, Note_off_c, 0, 48, 58
1, 269707, Control_c, 0, 64, 127
1, 269710, Note_off_c, 0, 78, 63
1, 269761, Note_on_c, 0, 63, 50
1, 269787, Note_off_c, 0, 63, 60
1, 269838, Note_on_c, 0, 56, 55
1, 269841, Note_on_c, 0, 70, 67
1, 269907, Note_off_c, 0, 70, 60
1, 269966, Note_on_c, 0, 63, 48
1, 269968, Note_on_c, 0, 72, 73
1, 270003, Control_c, 0, 64, 120
1, 270018, Control_c, 0, 64, 117
1, 270033, Control_c, 0, 64, 114
1, 270048, Control_c, 0, 64, 112
1, 270063, Control_c, 0, 64, 110
1, 270077, Control_c, 0, 64, 107
1, 270092, Control_c, 0, 64, 105
1, 270102, Note_on_c, 0, 75, 79
1, 270107, Control_c, 0, 64, 103
1, 270121, Control_c, 0, 64, 102
1, 270136, Control_c, 0, 64, 101
1, 270151, Control_c, 0, 64, 100
1, 270166, Control_c, 0, 64, 98
1, 270181, Control_c, 0, 64, 97
1, 270193, Note_off_c, 0, 72, 49
1, 270196, Control_c, 0, 64, 95
1, 270205, Note_on_c, 0, 58, 42
1, 270211, Control_c, 0, 64, 94
1, 270211, Control_c, 0, 67, 8
1, 270226, Control_c, 0, 64, 93
1, 270226, Control_c, 0, 67, 10
1, 270233, Note_off_c, 0, 63, 36
1, 270240, Control_c, 0, 64, 92
1, 270240, Control_c, 0, 67, 13
1, 270243, Note_off_c, 0, 56, 37
1, 270263, Control_c, 0, 64, 91
1, 270263, Control_c, 0, 67, 16
1, 270277, Control_c, 0, 64, 90
1, 270277, Control_c, 0, 67, 19
1, 270282, Note_on_c, 0, 78, 81
1, 270292, Control_c, 0, 64, 89
1, 270292, Control_c, 0, 67, 22
1, 270307, Control_c, 0, 64, 88
1, 270307, Control_c, 0, 67, 25
1, 270322, Control_c, 0, 64, 86
1, 270322, Control_c, 0, 67, 28
1, 270336, Note_off_c, 0, 75, 62
1, 270336, Control_c, 0, 64, 85
1, 270336, Control_c, 0, 67, 30
1, 270351, Control_c, 0, 64, 83
1, 270351, Control_c, 0, 67, 32
1, 270366, Control_c, 0, 64, 81
1, 270366, Control_c, 0, 67, 34
1, 270382, Control_c, 0, 64, 78
1, 270382, Control_c, 0, 67, 36
1, 270397, Control_c, 0, 64, 76
1, 270397, Control_c, 0, 67, 38
1, 270412, Control_c, 0, 64, 74
1, 270412, Control_c, 0, 67, 39
1, 270426, Control_c, 0, 64, 72
1, 270426, Control_c, 0, 67, 40
1, 270441, Control_c, 0, 64, 70
1, 270441, Control_c, 0, 67, 40
1, 270456, Control_c, 0, 64, 68
1, 270456, Control_c, 0, 67, 42
1, 270468, Note_on_c, 0, 50, 40
1, 270471, Control_c, 0, 64, 68
1, 270471, Control_c, 0, 67, 43
1, 270486, Control_c, 0, 67, 44
1, 270500, Control_c, 0, 64, 67
1, 270500, Control_c, 0, 67, 44
1, 270515, Control_c, 0, 64, 64
1, 270530, Control_c, 0, 64, 54
1, 270530, Control_c, 0, 67, 45
1, 270545, Control_c, 0, 64, 0
1, 270545, Control_c, 0, 67, 45
1, 270574, Control_c, 0, 67, 46
1, 270589, Control_c, 0, 67, 46
1, 270604, Control_c, 0, 67, 47
1, 270612, Note_on_c, 0, 82, 72
1, 270619, Control_c, 0, 67, 48
1, 270644, Note_off_c, 0, 78, 61
1, 270649, Control_c, 0, 67, 48
1, 270679, Control_c, 0, 64, 39
1, 270694, Control_c, 0, 64, 65
1, 270708, Control_c, 0, 64, 74
1, 270723, Control_c, 0, 64, 88
1, 270738, Control_c, 0, 64, 101
1, 270752, Control_c, 0, 64, 105
1, 270767, Control_c, 0, 64, 104
1, 270767, Control_c, 0, 67, 48
1, 270797, Control_c, 0, 64, 105
1, 270797, Control_c, 0, 67, 47
1, 270812, Control_c, 0, 64, 106
1, 270820, Note_off_c, 0, 50, 41
1, 270826, Control_c, 0, 64, 107
1, 270838, Note_on_c, 0, 70, 38
1, 270841, Control_c, 0, 64, 108
1, 270856, Control_c, 0, 64, 108
1, 270856, Control_c, 0, 67, 47
1, 270862, Note_off_c, 0, 58, 43
1, 270871, Control_c, 0, 64, 109
1, 270871, Control_c, 0, 67, 46
1, 270900, Control_c, 0, 67, 46
1, 270959, Control_c, 0, 67, 45
1, 270969, Note_on_c, 0, 58, 53
1, 270969, Note_on_c, 0, 78, 47
1, 270983, Note_off_c, 0, 70, 43
1, 270987, Note_off_c, 0, 82, 57
1, 271012, Control_c, 0, 67, 45
1, 271054, Note_off_c, 0, 78, 53
1, 271101, Note_on_c, 0, 68, 53
1, 271130, Control_c, 0, 64, 108
1, 271145, Control_c, 0, 64, 108
1, 271162, Note_off_c, 0, 68, 60
1, 271175, Control_c, 0, 64, 107
1, 271178, Note_off_c, 0, 58, 52
1, 271179, Note_on_c, 0, 77, 71
1, 271190, Control_c, 0, 64, 107
1, 271205, Control_c, 0, 64, 106
1, 271220, Control_c, 0, 64, 106
1, 271222, Note_on_c, 0, 59, 55
1, 271249, Control_c, 0, 64, 105
1, 271264, Control_c, 0, 64, 105
1, 271279, Control_c, 0, 64, 104
1, 271279, Control_c, 0, 67, 45
1, 271287, Note_on_c, 0, 68, 60
1, 271294, Control_c, 0, 64, 103
1, 271309, Control_c, 0, 64, 103
1, 271323, Control_c, 0, 64, 102
1, 271338, Control_c, 0, 64, 99
1, 271353, Control_c, 0, 64, 93
1, 271363, Note_off_c, 0, 68, 54
1, 271368, Control_c, 0, 64, 84
1, 271382, Control_c, 0, 64, 71
1, 271386, Note_on_c, 0, 51, 46
1, 271397, Control_c, 0, 64, 53
1, 271412, Control_c, 0, 64, 0
1, 271432, Note_on_c, 0, 80, 69
1, 271432, Note_off_c, 0, 59, 25
1, 271461, Note_off_c, 0, 77, 52
1, 271486, Control_c, 0, 64, 62
1, 271497, Note_off_c, 0, 51, 63
1, 271501, Control_c, 0, 64, 70
1, 271516, Control_c, 0, 64, 77
1, 271531, Control_c, 0, 64, 83
1, 271546, Control_c, 0, 64, 87
1, 271555, Note_on_c, 0, 68, 53
1, 271561, Control_c, 0, 64, 90
1, 271575, Control_c, 0, 64, 91
1, 271612, Note_off_c, 0, 68, 50
1, 271649, Control_c, 0, 67, 46
1, 271658, Note_on_c, 0, 60, 44
1, 271675, Note_on_c, 0, 77, 52
1, 271679, Control_c, 0, 67, 46
1, 271698, Note_off_c, 0, 80, 55
1, 271708, Control_c, 0, 67, 47
1, 271723, Control_c, 0, 67, 47
1, 271726, Note_off_c, 0, 77, 57
1, 271761, Control_c, 0, 67, 48
1, 271775, Control_c, 0, 67, 50
1, 271790, Control_c, 0, 67, 54
1, 271805, Control_c, 0, 67, 58
1, 271820, Control_c, 0, 67, 60
1, 271823, Note_on_c, 0, 70, 50
1, 271835, Control_c, 0, 67, 62
1, 271849, Control_c, 0, 67, 64
1, 271864, Control_c, 0, 67, 65
1, 271879, Control_c, 0, 67, 66
1, 271890, Note_off_c, 0, 70, 54
1, 271908, Control_c, 0, 67, 67
1, 271923, Control_c, 0, 67, 67
1, 271953, Control_c, 0, 67, 68
1, 271960, Note_on_c, 0, 75, 67
1, 271968, Control_c, 0, 67, 69
1, 271984, Control_c, 0, 67, 70
1, 272013, Control_c, 0, 67, 71
1, 272020, Note_off_c, 0, 60, 25
1, 272028, Control_c, 0, 64, 90
1, 272028, Control_c, 0, 67, 71
1, 272043, Control_c, 0, 67, 72
1, 272058, Control_c, 0, 64, 90
1, 272072, Control_c, 0, 64, 89
1, 272072, Control_c, 0, 67, 72
1, 272084, Note_on_c, 0, 61, 47
1, 272087, Control_c, 0, 67, 73
1, 272102, Control_c, 0, 64, 89
1, 272117, Control_c, 0, 67, 73
1, 272131, Control_c, 0, 64, 88
1, 272131, Control_c, 0, 67, 74
1, 272137, Note_off_c, 0, 61, 54
1, 272146, Control_c, 0, 64, 88
1, 272146, Control_c, 0, 67, 77
1, 272161, Control_c, 0, 67, 79
1, 272176, Control_c, 0, 64, 87
1, 272176, Control_c, 0, 67, 82
1, 272191, Control_c, 0, 64, 87
1, 272191, Control_c, 0, 67, 85
1, 272205, Note_on_c, 0, 66, 51
1, 272205, Control_c, 0, 67, 89
1, 272220, Control_c, 0, 64, 86
1, 272220, Control_c, 0, 67, 93
1, 272235, Control_c, 0, 67, 96
1, 272250, Control_c, 0, 67, 99
1, 272265, Control_c, 0, 67, 102
1, 272279, Control_c, 0, 64, 86
1, 272279, Control_c, 0, 67, 103
1, 272294, Control_c, 0, 67, 103
1, 272309, Control_c, 0, 64, 85
1, 272324, Control_c, 0, 67, 104
1, 272354, Control_c, 0, 64, 85
1, 272383, Control_c, 0, 64, 84
1, 272412, Control_c, 0, 67, 104
1, 272442, Control_c, 0, 64, 84
1, 272442, Control_c, 0, 67, 105
1, 272457, Control_c, 0, 64, 83
1, 272471, Control_c, 0, 64, 82
1, 272471, Control_c, 0, 67, 105
1, 272486, Control_c, 0, 64, 80
1, 272486, Control_c, 0, 67, 106
1, 272503, Note_on_c, 0, 41, 35
1, 272509, Control_c, 0, 64, 77
1, 272509, Control_c, 0, 67, 107
1, 272514, Note_off_c, 0, 66, 28
1, 272523, Control_c, 0, 64, 70
1, 272523, Control_c, 0, 67, 108
1, 272533, Note_on_c, 0, 78, 56
1, 272538, Control_c, 0, 64, 62
1, 272538, Control_c, 0, 67, 109
1, 272553, Control_c, 0, 64, 0
1, 272553, Control_c, 0, 67, 110
1, 272558, Note_off_c, 0, 75, 47
1, 272568, Control_c, 0, 67, 110
1, 272583, Control_c, 0, 67, 111
1, 272657, Control_c, 0, 64, 63
1, 272671, Control_c, 0, 64, 71
1, 272686, Control_c, 0, 64, 77
1, 272701, Control_c, 0, 64, 84
1, 272713, Note_off_c, 0, 41, 54
1, 272716, Control_c, 0, 64, 92
1, 272730, Control_c, 0, 64, 97
1, 272745, Control_c, 0, 64, 98
1, 272745, Control_c, 0, 67, 110
1, 272760, Control_c, 0, 67, 110
1, 272776, Control_c, 0, 67, 109
1, 272820, Control_c, 0, 67, 109
1, 272878, Note_on_c, 0, 66, 41
1, 272894, Control_c, 0, 67, 108
1, 272926, Note_off_c, 0, 66, 44
1, 272939, Control_c, 0, 67, 108
1, 272943, Poly_aftertouch_c, 0, 57, 127
1, 272953, Control_c, 0, 67, 107
1, 272983, Control_c, 0, 67, 107
1, 272998, Control_c, 0, 67, 106
1, 273036, Poly_aftertouch_c, 0, 57, 0
1, 273043, Control_c, 0, 67, 106
1, 273069, Note_on_c, 0, 63, 40
1, 273070, Note_on_c, 0, 75, 50
1, 273087, Note_off_c, 0, 78, 37
1, 273102, Control_c, 0, 67, 105
1, 273114, Note_off_c, 0, 75, 58
1, 273117, Control_c, 0, 67, 105
1, 273132, Control_c, 0, 67, 104
1, 273146, Control_c, 0, 67, 103
1, 273161, Control_c, 0, 67, 103
1, 273176, Control_c, 0, 67, 102
1, 273186, Note_off_c, 0, 63, 50
1, 273191, Control_c, 0, 67, 102
1, 273206, Note_on_c, 0, 66, 48
1, 273206, Control_c, 0, 64, 98
1, 273206, Control_c, 0, 67, 101
1, 273220, Control_c, 0, 67, 101
1, 273235, Control_c, 0, 67, 100
1, 273257, Control_c, 0, 64, 97
1, 273257, Control_c, 0, 67, 99
1, 273264, Note_off_c, 0, 66, 53
1, 273272, Control_c, 0, 64, 97
1, 273272, Control_c, 0, 67, 99
1, 273287, Control_c, 0, 67, 98
1, 273302, Control_c, 0, 67, 97
1, 273311, Note_on_c, 0, 73, 57
1, 273317, Control_c, 0, 67, 95
1, 273328, Note_on_c, 0, 68, 41
1, 273332, Control_c, 0, 64, 96
1, 273332, Control_c, 0, 67, 92
1, 273346, Control_c, 0, 67, 87
1, 273361, Control_c, 0, 67, 80
1, 273366, Note_off_c, 0, 68, 64
1, 273376, Control_c, 0, 67, 72
1, 273386, Note_off_c, 0, 73, 60
1, 273391, Control_c, 0, 67, 64
1, 273406, Control_c, 0, 64, 96
1, 273406, Control_c, 0, 67, 57
1, 273414, Note_on_c, 0, 69, 59
1, 273414, Note_on_c, 0, 77, 59
1, 273420, Control_c, 0, 67, 50
1, 273435, Control_c, 0, 67, 41
1, 273441, Note_off_c, 0, 69, 66
1, 273450, Control_c, 0, 67, 34
1, 273465, Control_c, 0, 67, 29
1, 273479, Control_c, 0, 64, 95
1, 273479, Control_c, 0, 67, 27
1, 273494, Control_c, 0, 67, 25
1, 273506, Note_on_c, 0, 73, 63
1, 273509, Control_c, 0, 64, 95
1, 273509, Control_c, 0, 67, 24
1, 273524, Control_c, 0, 64, 94
1, 273524, Control_c, 0, 67, 23
1, 273539, Control_c, 0, 64, 91
1, 273539, Control_c, 0, 67, 22
1, 273553, Control_c, 0, 64, 85
1, 273569, Control_c, 0, 64, 75
1, 273569, Control_c, 0, 67, 24
1, 273578, Note_off_c, 0, 73, 62
1, 273584, Control_c, 0, 64, 65
1, 273584, Control_c, 0, 67, 27
1, 273585, Note_off_c, 0, 77, 0
1, 273591, Note_on_c, 0, 65, 54
1, 273594, Note_on_c, 0, 56, 48
1, 273599, Control_c, 0, 64, 50
1, 273599, Control_c, 0, 67, 28
1, 273614, Control_c, 0, 64, 48
1, 273614, Control_c, 0, 67, 31
1, 273622, Poly_aftertouch_c, 0, 77, 127
1, 273629, Control_c, 0, 64, 58
1, 273629, Control_c, 0, 67, 32
1, 273643, Control_c, 0, 64, 63
1, 273643, Control_c, 0, 67, 34
1, 273658, Control_c, 0, 64, 67
1, 273658, Control_c, 0, 67, 37
1, 273673, Control_c, 0, 64, 72
1, 273673, Control_c, 0, 67, 40
1, 273679, Note_off_c, 0, 65, 58
1, 273685, Note_on_c, 0, 73, 62
1, 273688, Control_c, 0, 64, 77
1, 273688, Control_c, 0, 67, 42
1, 273689, Poly_aftertouch_c, 0, 77, 0
1, 273690, Note_on_c, 0, 61, 53
1, 273700, Note_off_c, 0, 56, 57
1, 273703, Control_c, 0, 64, 81
1, 273703, Control_c, 0, 67, 44
1, 273717, Control_c, 0, 64, 81
1, 273717, Control_c, 0, 67, 45
1, 273738, Note_off_c, 0, 73, 51
1, 273756, Note_off_c, 0, 61, 59
1, 273778, Note_on_c, 0, 65, 55
1, 273819, Note_off_c, 0, 65, 54
1, 273821, Control_c, 0, 67, 45
1, 273850, Control_c, 0, 64, 81
1, 273865, Note_on_c, 0, 66, 55
1, 273868, Note_on_c, 0, 72, 61
1, 273880, Control_c, 0, 64, 80
1, 273895, Control_c, 0, 67, 46
1, 273910, Control_c, 0, 64, 80
1, 273910, Control_c, 0, 67, 47
1, 273924, Control_c, 0, 64, 79
1, 273924, Control_c, 0, 67, 49
1, 273925, Note_off_c, 0, 72, 63
1, 273933, Note_on_c, 0, 68, 66
1, 273934, Note_on_c, 0, 75, 64
1, 273936, Note_off_c, 0, 66, 59
1, 273939, Control_c, 0, 64, 79
1, 273939, Control_c, 0, 67, 54
1, 273954, Control_c, 0, 67, 58
1, 273962, Note_off_c, 0, 68, 66
1, 273968, Control_c, 0, 67, 60
1, 273983, Control_c, 0, 64, 78
1, 273983, Control_c, 0, 67, 62
1, 274005, Control_c, 0, 64, 78
1, 274005, Control_c, 0, 67, 64
1, 274020, Control_c, 0, 64, 77
1, 274020, Control_c, 0, 67, 65
1, 274028, Note_on_c, 0, 72, 66
1, 274035, Control_c, 0, 64, 76
1, 274035, Control_c, 0, 67, 68
1, 274050, Control_c, 0, 64, 73
1, 274050, Control_c, 0, 67, 69
1, 274065, Control_c, 0, 64, 69
1, 274065, Control_c, 0, 67, 70
1, 274075, Note_off_c, 0, 72, 59
1, 274080, Control_c, 0, 64, 65
1, 274080, Control_c, 0, 67, 71
1, 274094, Control_c, 0, 64, 59
1, 274094, Control_c, 0, 67, 74
1, 274100, Note_on_c, 0, 63, 64
1, 274109, Control_c, 0, 64, 47
1, 274109, Control_c, 0, 67, 78
1, 274118, Note_on_c, 0, 55, 54
1, 274124, Control_c, 0, 64, 36
1, 274124, Control_c, 0, 67, 81
1, 274139, Control_c, 0, 64, 36
1, 274139, Control_c, 0, 67, 84
1, 274154, Control_c, 0, 64, 49
1, 274154, Control_c, 0, 67, 84
1, 274167, Note_off_c, 0, 75, 58
1, 274168, Control_c, 0, 64, 58
1, 274173, Note_off_c, 0, 63, 61
1, 274183, Control_c, 0, 64, 63
1, 274184, Note_off_c, 0, 55, 58
1, 274187, Note_on_c, 0, 72, 64
1, 274198, Control_c, 0, 64, 65
1, 274202, Note_on_c, 0, 60, 62
1, 274213, Control_c, 0, 64, 68
1, 274220, Note_off_c, 0, 72, 58
1, 274228, Control_c, 0, 64, 71
1, 274242, Control_c, 0, 64, 73
1, 274257, Control_c, 0, 64, 75
1, 274257, Control_c, 0, 67, 84
1, 274266, Note_off_c, 0, 60, 60
1, 274272, Control_c, 0, 64, 75
1, 274272, Control_c, 0, 67, 83
1, 274278, Note_on_c, 0, 63, 61
1, 274287, Control_c, 0, 67, 82
1, 274301, Control_c, 0, 67, 82
1, 274309, Note_off_c, 0, 63, 63
1, 274316, Control_c, 0, 67, 81
1, 274331, Control_c, 0, 67, 80
1, 274345, Note_on_c, 0, 64, 57
1, 274346, Control_c, 0, 67, 80
1, 274358, Note_on_c, 0, 70, 62
1, 274362, Control_c, 0, 67, 79
1, 274377, Control_c, 0, 67, 79
1, 274379, Note_off_c, 0, 64, 66
1, 274391, Control_c, 0, 67, 78
1, 274406, Control_c, 0, 64, 76
1, 274421, Control_c, 0, 67, 78
1, 274423, Note_off_c, 0, 70, 62
1, 274432, Note_on_c, 0, 65, 62
1, 274435, Note_on_c, 0, 73, 68
1, 274436, Control_c, 0, 67, 77
1, 274462, Note_off_c, 0, 65, 66
1, 274480, Control_c, 0, 64, 75
1, 274495, Control_c, 0, 64, 74
1, 274495, Control_c, 0, 67, 78
1, 274509, Control_c, 0, 64, 72
1, 274509, Control_c, 0, 67, 79
1, 274520, Note_on_c, 0, 70, 62
1, 274524, Control_c, 0, 64, 67
1, 274524, Control_c, 0, 67, 79
1, 274535, Note_on_c, 0, 58, 20
1, 274539, Control_c, 0, 64, 63
1, 274539, Control_c, 0, 67, 80
1, 274540, Note_off_c, 0, 73, 0
1, 274554, Control_c, 0, 64, 52
1, 274554, Control_c, 0, 67, 81
1, 274569, Control_c, 0, 64, 32
1, 274569, Control_c, 0, 67, 81
1, 274576, Note_off_c, 0, 58, 44
1, 274578, Poly_aftertouch_c, 0, 73, 127
1, 274584, Control_c, 0, 64, 40
1, 274584, Control_c, 0, 67, 82
1, 274587, Note_off_c, 0, 70, 61
1, 274590, Note_on_c, 0, 73, 21
1, 274593, Note_on_c, 0, 61, 57
1, 274599, Control_c, 0, 64, 55
1, 274613, Control_c, 0, 64, 62
1, 274613, Control_c, 0, 67, 82
1, 274628, Control_c, 0, 64, 65
1, 274629, Note_on_c, 0, 54, 57
1, 274643, Note_off_c, 0, 61, 61
1, 274643, Control_c, 0, 64, 68
1, 274658, Control_c, 0, 64, 72
1, 274673, Control_c, 0, 64, 75
1, 274679, Note_on_c, 0, 58, 48
1, 274685, Note_off_c, 0, 73, 53
1, 274685, Note_on_c, 0, 70, 56
1, 274688, Control_c, 0, 64, 77
1, 274717, Note_off_c, 0, 54, 56
1, 274718, Note_off_c, 0, 70, 65
1, 274777, Note_on_c, 0, 61, 57
1, 274784, Control_c, 0, 64, 77
1, 274798, Control_c, 0, 64, 76
1, 274813, Control_c, 0, 64, 76
1, 274813, Control_c, 0, 67, 83
1, 274816, Note_off_c, 0, 58, 51
1, 274828, Control_c, 0, 64, 75
1, 274843, Note_on_c, 0, 69, 59
1, 274851, Note_on_c, 0, 63, 55
1, 274858, Note_off_c, 0, 61, 44
1, 274858, Control_c, 0, 64, 75
1, 274873, Control_c, 0, 64, 74
1, 274888, Control_c, 0, 64, 74
1, 274901, Note_off_c, 0, 63, 60
1, 274903, Control_c, 0, 64, 73
1, 274904, Note_off_c, 0, 69, 60
1, 274917, Control_c, 0, 64, 71
1, 274917, Control_c, 0, 67, 83
1, 274925, Note_on_c, 0, 72, 56
1, 274932, Control_c, 0, 64, 69
1, 274947, Control_c, 0, 64, 66
1, 274947, Control_c, 0, 67, 84
1, 274954, Note_on_c, 0, 64, 37
1, 274962, Control_c, 0, 64, 63
1, 274977, Control_c, 0, 64, 57
1, 274985, Note_off_c, 0, 64, 50
1, 274991, Control_c, 0, 64, 42
1, 275006, Control_c, 0, 64, 21
1, 275020, Note_on_c, 0, 69, 59
1, 275021, Control_c, 0, 64, 14
1, 275021, Control_c, 0, 67, 84
1, 275036, Control_c, 0, 64, 27
1, 275036, Control_c, 0, 67, 85
1, 275051, Control_c, 0, 64, 43
1, 275051, Control_c, 0, 67, 85
1, 275064, Note_off_c, 0, 69, 55
1, 275065, Control_c, 0, 64, 53
1, 275065, Control_c, 0, 67, 86
1, 275080, Control_c, 0, 64, 58
1, 275080, Control_c, 0, 67, 88
1, 275091, Note_on_c, 0, 53, 46
1, 275093, Note_on_c, 0, 60, 50
1, 275095, Control_c, 0, 64, 61
1, 275095, Control_c, 0, 67, 91
1, 275110, Control_c, 0, 64, 64
1, 275110, Control_c, 0, 67, 95
1, 275113, Note_off_c, 0, 72, 0
1, 275124, Control_c, 0, 64, 66
1, 275124, Control_c, 0, 67, 99
1, 275139, Control_c, 0, 64, 70
1, 275139, Control_c, 0, 67, 104
1, 275150, Poly_aftertouch_c, 0, 72, 127
1, 275154, Control_c, 0, 64, 74
1, 275154, Control_c, 0, 67, 107
1, 275170, Control_c, 0, 64, 76
1, 275170, Control_c, 0, 67, 112
1, 275172, Note_off_c, 0, 60, 56
1, 275178, Note_on_c, 0, 69, 58
1, 275180, Note_off_c, 0, 53, 61
1, 275185, Control_c, 0, 64, 78
1, 275185, Control_c, 0, 67, 115
1, 275194, Poly_aftertouch_c, 0, 72, 0
1, 275200, Control_c, 0, 64, 78
1, 275200, Control_c, 0, 67, 115
1, 275206, Note_on_c, 0, 57, 46
1, 275214, Note_off_c, 0, 69, 57
1, 275214, Control_c, 0, 64, 79
1, 275214, Control_c, 0, 67, 116
1, 275229, Control_c, 0, 67, 117
1, 275244, Control_c, 0, 67, 117
1, 275274, Control_c, 0, 67, 118
1, 275280, Note_off_c, 0, 57, 59
1, 275295, Note_on_c, 0, 61, 52
1, 275318, Control_c, 0, 64, 78
1, 275333, Control_c, 0, 64, 78
1, 275358, Note_off_c, 0, 61, 58
1, 275393, Note_on_c, 0, 62, 48
1, 275437, Control_c, 0, 64, 77
1, 275454, Note_on_c, 0, 71, 58
1, 275467, Control_c, 0, 64, 76
1, 275489, Control_c, 0, 64, 76
1, 275495, Note_off_c, 0, 62, 38
1, 275501, Note_on_c, 0, 63, 50
1, 275504, Control_c, 0, 64, 75
1, 275532, Note_off_c, 0, 63, 64
1, 275534, Control_c, 0, 64, 75
1, 275548, Control_c, 0, 64, 74
1, 275563, Control_c, 0, 64, 74
1, 275578, Control_c, 0, 64, 73
1, 275584, Note_on_c, 0, 68, 53
1, 275593, Control_c, 0, 64, 73
1, 275608, Note_off_c, 0, 71, 58
1, 275608, Control_c, 0, 67, 118
1, 275622, Control_c, 0, 64, 71
1, 275637, Control_c, 0, 64, 68
1, 275652, Control_c, 0, 64, 64
1, 275652, Control_c, 0, 67, 119
1, 275667, Control_c, 0, 64, 21
1, 275682, Control_c, 0, 64, 0
1, 275690, Note_on_c, 0, 59, 47
1, 275717, Note_on_c, 0, 41, 52
1, 275741, Control_c, 0, 64, 45
1, 275755, Control_c, 0, 64, 62
1, 275770, Control_c, 0, 64, 66
1, 275785, Control_c, 0, 64, 70
1, 275785, Control_c, 0, 67, 118
1, 275800, Note_off_c, 0, 59, 52
1, 275800, Control_c, 0, 64, 73
1, 275800, Control_c, 0, 67, 118
1, 275803, Note_off_c, 0, 41, 59
1, 275815, Control_c, 0, 64, 75
1, 275818, Note_on_c, 0, 49, 62
1, 275830, Control_c, 0, 64, 77
1, 275830, Control_c, 0, 67, 117
1, 275845, Control_c, 0, 64, 78
1, 275850, Note_off_c, 0, 49, 65
1, 275874, Control_c, 0, 67, 117
1, 275919, Control_c, 0, 64, 77
1, 275948, Note_on_c, 0, 59, 65
1, 275948, Control_c, 0, 64, 77
1, 275964, Control_c, 0, 67, 116
1, 275979, Control_c, 0, 67, 116
1, 275994, Control_c, 0, 67, 115
1, 276023, Control_c, 0, 64, 76
1, 276053, Control_c, 0, 64, 76
1, 276053, Control_c, 0, 67, 115
1, 276057, Note_off_c, 0, 59, 59
1, 276061, Note_on_c, 0, 60, 68
1, 276099, Note_off_c, 0, 68, 26
1, 276142, Control_c, 0, 64, 75
1, 276142, Control_c, 0, 67, 114
1, 276159, Note_off_c, 0, 60, 62
1, 276171, Note_on_c, 0, 61, 76
1, 276178, Note_on_c, 0, 70, 61
1, 276186, Control_c, 0, 67, 114
1, 276215, Note_off_c, 0, 61, 58
1, 276283, Control_c, 0, 64, 75
1, 276304, Note_on_c, 0, 66, 62
1, 276316, Note_off_c, 0, 70, 59
1, 276327, Control_c, 0, 64, 74
1, 276342, Control_c, 0, 64, 74
1, 276356, Note_off_c, 0, 66, 63
1, 276357, Control_c, 0, 64, 73
1, 276371, Control_c, 0, 64, 73
1, 276386, Control_c, 0, 64, 72
1, 276401, Control_c, 0, 64, 71
1, 276411, Note_on_c, 0, 58, 62
1, 276416, Control_c, 0, 64, 68
1, 276431, Control_c, 0, 64, 64
1, 276442, Note_on_c, 0, 61, 60
1, 276445, Control_c, 0, 64, 60
1, 276460, Control_c, 0, 64, 50
1, 276475, Control_c, 0, 64, 47
1, 276489, Control_c, 0, 64, 49
1, 276504, Control_c, 0, 64, 52
1, 276519, Control_c, 0, 64, 56
1, 276530, Note_on_c, 0, 66, 57
1, 276534, Control_c, 0, 64, 60
1, 276542, Note_off_c, 0, 61, 53
1, 276549, Control_c, 0, 64, 63
1, 276563, Control_c, 0, 64, 64
1, 276578, Control_c, 0, 64, 65
1, 276593, Control_c, 0, 64, 66
1, 276593, Control_c, 0, 67, 113
1, 276608, Control_c, 0, 64, 68
1, 276623, Control_c, 0, 64, 69
1, 276637, Control_c, 0, 64, 71
1, 276645, Note_on_c, 0, 69, 62
1, 276652, Control_c, 0, 64, 72
1, 276653, Note_off_c, 0, 66, 61
1, 276667, Control_c, 0, 64, 72
1, 276697, Control_c, 0, 67, 113
1, 276726, Note_off_c, 0, 69, 52
1, 276727, Control_c, 0, 64, 72
1, 276757, Control_c, 0, 64, 71
1, 276771, Note_on_c, 0, 70, 61
1, 276816, Control_c, 0, 64, 71
1, 276861, Control_c, 0, 64, 70
1, 276887, Note_on_c, 0, 68, 55
1, 276897, Note_on_c, 0, 71, 56
1, 276906, Control_c, 0, 67, 113
1, 276906, Note_off_c, 0, 70, 38
1, 276934, Note_off_c, 0, 71, 59
1, 276935, Control_c, 0, 64, 70
1, 276935, Control_c, 0, 67, 114
1, 276965, Control_c, 0, 64, 69
1, 276965, Control_c, 0, 67, 114
1, 276980, Control_c, 0, 64, 69
1, 277001, Control_c, 0, 64, 68
1, 277001, Control_c, 0, 67, 115
1, 277016, Control_c, 0, 67, 115
1, 277024, Note_off_c, 0, 58, 42
1, 277061, Control_c, 0, 67, 116
1, 277063, Note_on_c, 0, 65, 43
1, 277076, Control_c, 0, 64, 68
1, 277076, Control_c, 0, 67, 116
1, 277091, Control_c, 0, 64, 67
1, 277105, Control_c, 0, 64, 67
1, 277105, Control_c, 0, 67, 117
1, 277120, Control_c, 0, 64, 66
1, 277134, Note_off_c, 0, 68, 36
1, 277135, Control_c, 0, 64, 66
1, 277135, Control_c, 0, 67, 117
1, 277180, Control_c, 0, 64, 65
1, 277209, Control_c, 0, 64, 65
1, 277209, Control_c, 0, 67, 118
1, 277212, Note_on_c, 0, 70, 42
1, 277224, Control_c, 0, 64, 64
1, 277228, Note_on_c, 0, 56, 41
1, 277239, Control_c, 0, 64, 64
1, 277254, Control_c, 0, 64, 63
1, 277254, Control_c, 0, 67, 118
1, 277268, Control_c, 0, 64, 60
1, 277268, Control_c, 0, 67, 119
1, 277283, Control_c, 0, 64, 50
1, 277298, Control_c, 0, 64, 36
1, 277298, Control_c, 0, 67, 119
1, 277312, Control_c, 0, 64, 14
1, 277327, Control_c, 0, 64, 0
1, 277342, Control_c, 0, 67, 120
1, 277357, Control_c, 0, 67, 121
1, 277372, Control_c, 0, 67, 123
1, 277386, Control_c, 0, 67, 126
1, 277389, Note_on_c, 0, 74, 51
1, 277401, Control_c, 0, 67, 127
1, 277430, Control_c, 0, 64, 17
1, 277445, Control_c, 0, 64, 24
1, 277457, Note_off_c, 0, 70, 33
1, 277460, Control_c, 0, 64, 38
1, 277475, Control_c, 0, 64, 49
1, 277490, Control_c, 0, 64, 55
1, 277505, Control_c, 0, 64, 58
1, 277520, Control_c, 0, 64, 61
1, 277535, Control_c, 0, 64, 64
1, 277550, Control_c, 0, 64, 67
1, 277565, Control_c, 0, 64, 70
1, 277580, Control_c, 0, 64, 73
1, 277581, Note_on_c, 0, 80, 51
1, 277595, Control_c, 0, 64, 74
1, 277609, Control_c, 0, 64, 75
1, 277624, Control_c, 0, 64, 75
1, 277628, Note_off_c, 0, 74, 37
1, 277639, Control_c, 0, 64, 76
1, 277654, Control_c, 0, 64, 77
1, 277699, Control_c, 0, 64, 77
1, 277714, Control_c, 0, 64, 78
1, 277728, Control_c, 0, 64, 79
1, 277750, Control_c, 0, 64, 80
1, 277765, Control_c, 0, 64, 81
1, 277795, Control_c, 0, 64, 82
1, 277810, Control_c, 0, 64, 83
1, 277824, Control_c, 0, 64, 84
1, 277834, Note_on_c, 0, 81, 43
1, 277839, Control_c, 0, 64, 85
1, 277847, Note_off_c, 0, 80, 47
1, 277854, Control_c, 0, 64, 86
1, 277869, Control_c, 0, 64, 87
1, 277884, Control_c, 0, 64, 89
1, 277898, Control_c, 0, 64, 90
1, 277913, Control_c, 0, 64, 91
1, 277958, Control_c, 0, 64, 91
1, 277973, Control_c, 0, 64, 92
1, 277988, Control_c, 0, 64, 94
1, 278003, Control_c, 0, 64, 94
1, 278017, Control_c, 0, 64, 95
1, 278032, Control_c, 0, 64, 95
1, 278047, Control_c, 0, 64, 96
1, 278061, Control_c, 0, 64, 97
1, 278076, Control_c, 0, 64, 97
1, 278106, Control_c, 0, 64, 98
1, 278111, Note_off_c, 0, 81, 41
1, 278135, Control_c, 0, 64, 98
1, 278165, Control_c, 0, 64, 99
1, 278167, Note_on_c, 0, 82, 47
1, 278228, Note_off_c, 0, 82, 56
1, 278245, Note_off_c, 0, 56, 7
1, 278514, Control_c, 0, 67, 125
1, 278529, Control_c, 0, 67, 122
1, 278544, Control_c, 0, 67, 119
1, 278559, Control_c, 0, 67, 116
1, 278573, Control_c, 0, 67, 112
1, 278588, Control_c, 0, 67, 106
1, 278603, Control_c, 0, 67, 97
1, 278618, Control_c, 0, 67, 86
1, 278633, Control_c, 0, 67, 74
1, 278647, Control_c, 0, 67, 66
1, 278662, Control_c, 0, 67, 58
1, 278677, Control_c, 0, 67, 49
1, 278691, Note_off_c, 0, 65, 1
1, 278691, Control_c, 0, 67, 39
1, 278706, Control_c, 0, 67, 29
1, 278721, Control_c, 0, 67, 22
1, 278736, Control_c, 0, 67, 14
1, 278751, Control_c, 0, 67, 8
1, 278766, Control_c, 0, 67, 0
1, 278840, Control_c, 0, 64, 99
1, 278870, Control_c, 0, 64, 100
1, 278899, Control_c, 0, 64, 101
1, 278914, Control_c, 0, 64, 101
1, 278929, Control_c, 0, 64, 102
1, 278944, Control_c, 0, 64, 103
1, 278958, Control_c, 0, 64, 105
1, 278973, Control_c, 0, 64, 107
1, 278988, Control_c, 0, 64, 109
1, 279121, Control_c, 0, 64, 108
1, 279152, Control_c, 0, 64, 108
1, 279167, Control_c, 0, 64, 107
1, 279181, Control_c, 0, 64, 105
1, 279196, Control_c, 0, 64, 103
1, 279211, Control_c, 0, 64, 102
1, 279234, Control_c, 0, 64, 100
1, 279249, Control_c, 0, 64, 98
1, 279260, Note_on_c, 0, 70, 71
1, 279263, Control_c, 0, 64, 96
1, 279278, Control_c, 0, 64, 93
1, 279286, Note_on_c, 0, 61, 48
1, 279293, Control_c, 0, 64, 90
1, 279296, Note_on_c, 0, 42, 41
1, 279305, Note_on_c, 0, 49, 40
1, 279308, Control_c, 0, 64, 87
1, 279322, Control_c, 0, 64, 83
1, 279337, Control_c, 0, 64, 79
1, 279352, Control_c, 0, 64, 74
1, 279367, Control_c, 0, 64, 68
1, 279382, Control_c, 0, 64, 63
1, 279396, Control_c, 0, 64, 51
1, 279411, Control_c, 0, 64, 0
1, 279559, Control_c, 0, 64, 54
1, 279574, Control_c, 0, 64, 64
1, 279589, Control_c, 0, 64, 67
1, 279603, Control_c, 0, 64, 71
1, 279618, Control_c, 0, 64, 76
1, 279633, Control_c, 0, 64, 81
1, 279648, Control_c, 0, 64, 88
1, 279663, Control_c, 0, 64, 96
1, 279678, Control_c, 0, 64, 108
1, 279693, Control_c, 0, 64, 127
1, 279835, Note_off_c, 0, 61, 58
1, 279934, Note_on_c, 0, 69, 66
1, 279940, Note_on_c, 0, 60, 60
1, 279943, Note_on_c, 0, 50, 45
1, 279952, Note_off_c, 0, 49, 44
1, 280003, Note_off_c, 0, 60, 60
1, 280042, Note_off_c, 0, 70, 36
1, 280112, Note_on_c, 0, 59, 59
1, 280112, Note_on_c, 0, 68, 68
1, 280116, Control_c, 0, 64, 107
1, 280131, Control_c, 0, 64, 90
1, 280136, Note_off_c, 0, 69, 49
1, 280140, Note_on_c, 0, 51, 44
1, 280143, Note_off_c, 0, 50, 39
1, 280145, Control_c, 0, 64, 80
1, 280160, Control_c, 0, 64, 71
1, 280175, Control_c, 0, 64, 64
1, 280190, Control_c, 0, 64, 61
1, 280205, Control_c, 0, 64, 61
1, 280219, Control_c, 0, 64, 63
1, 280234, Control_c, 0, 64, 65
1, 280249, Control_c, 0, 64, 70
1, 280263, Control_c, 0, 64, 76
1, 280278, Control_c, 0, 64, 84
1, 280293, Control_c, 0, 64, 91
1, 280308, Control_c, 0, 64, 95
1, 280323, Control_c, 0, 64, 96
1, 280383, Note_off_c, 0, 59, 43
1, 280392, Note_off_c, 0, 42, 42
1, 280397, Control_c, 0, 67, 8
1, 280411, Control_c, 0, 67, 9
1, 280426, Control_c, 0, 67, 9
1, 280441, Control_c, 0, 64, 96
1, 280456, Control_c, 0, 64, 95
1, 280456, Control_c, 0, 67, 11
1, 280471, Control_c, 0, 64, 94
1, 280471, Control_c, 0, 67, 12
1, 280486, Control_c, 0, 64, 93
1, 280486, Control_c, 0, 67, 15
1, 280501, Control_c, 0, 64, 93
1, 280501, Control_c, 0, 67, 18
1, 280516, Control_c, 0, 64, 92
1, 280516, Control_c, 0, 67, 21
1, 280530, Control_c, 0, 64, 90
1, 280530, Control_c, 0, 67, 24
1, 280545, Control_c, 0, 64, 88
1, 280545, Control_c, 0, 67, 27
1, 280560, Control_c, 0, 64, 87
1, 280560, Control_c, 0, 67, 31
1, 280565, Note_off_c, 0, 51, 43
1, 280575, Control_c, 0, 64, 85
1, 280575, Control_c, 0, 67, 35
1, 280590, Control_c, 0, 64, 84
1, 280590, Control_c, 0, 67, 38
1, 280604, Control_c, 0, 64, 82
1, 280604, Control_c, 0, 67, 41
1, 280619, Control_c, 0, 64, 80
1, 280619, Control_c, 0, 67, 44
1, 280634, Control_c, 0, 64, 78
1, 280634, Control_c, 0, 67, 46
1, 280649, Control_c, 0, 64, 77
1, 280649, Control_c, 0, 67, 49
1, 280656, Note_on_c, 0, 49, 32
1, 280662, Note_on_c, 0, 42, 38
1, 280663, Control_c, 0, 64, 75
1, 280663, Control_c, 0, 67, 51
1, 280664, Note_on_c, 0, 70, 56
1, 280674, Note_on_c, 0, 61, 32
1, 280678, Note_on_c, 0, 58, 34
1, 280678, Control_c, 0, 64, 73
1, 280678, Control_c, 0, 67, 53
1, 280693, Control_c, 0, 64, 70
1, 280693, Control_c, 0, 67, 55
1, 280708, Control_c, 0, 64, 68
1, 280708, Control_c, 0, 67, 56
1, 280723, Control_c, 0, 64, 65
1, 280723, Control_c, 0, 67, 58
1, 280745, Control_c, 0, 64, 63
1, 280745, Control_c, 0, 67, 60
1, 280760, Control_c, 0, 64, 61
1, 280760, Control_c, 0, 67, 62
1, 280775, Control_c, 0, 64, 57
1, 280775, Control_c, 0, 67, 64
1, 280790, Control_c, 0, 64, 53
1, 280790, Control_c, 0, 67, 65
1, 280805, Control_c, 0, 64, 48
1, 280805, Control_c, 0, 67, 68
1, 280820, Control_c, 0, 64, 44
1, 280820, Control_c, 0, 67, 69
1, 280827, Note_off_c, 0, 68, 50
1, 280835, Control_c, 0, 64, 39
1, 280835, Control_c, 0, 67, 71
1, 280849, Control_c, 0, 64, 34
1, 280849, Control_c, 0, 67, 73
1, 280864, Control_c, 0, 64, 28
1, 280864, Control_c, 0, 67, 76
1, 280879, Control_c, 0, 64, 19
1, 280879, Control_c, 0, 67, 78
1, 280894, Control_c, 0, 64, 0
1, 280894, Control_c, 0, 67, 81
1, 280909, Control_c, 0, 67, 83
1, 280924, Control_c, 0, 67, 85
1, 280939, Control_c, 0, 67, 87
1, 280954, Control_c, 0, 67, 88
1, 280983, Control_c, 0, 67, 88
1, 281042, Control_c, 0, 67, 89
1, 281057, Control_c, 0, 67, 89
1, 281072, Control_c, 0, 67, 90
1, 281086, Control_c, 0, 67, 90
1, 281101, Control_c, 0, 67, 91
1, 281131, Control_c, 0, 67, 92
1, 281146, Control_c, 0, 67, 92
1, 281160, Control_c, 0, 67, 93
1, 281175, Control_c, 0, 67, 93
1, 281190, Control_c, 0, 67, 94
1, 281205, Control_c, 0, 67, 94
1, 281249, Control_c, 0, 67, 95
1, 281279, Control_c, 0, 67, 95
1, 281294, Control_c, 0, 67, 96
1, 281494, Control_c, 0, 64, 43
1, 281509, Control_c, 0, 64, 56
1, 281524, Control_c, 0, 64, 62
1, 281524, Control_c, 0, 67, 95
1, 281539, Control_c, 0, 64, 64
1, 281554, Control_c, 0, 64, 67
1, 281570, Control_c, 0, 64, 69
1, 281584, Control_c, 0, 64, 71
1, 281599, Control_c, 0, 64, 73
1, 281614, Control_c, 0, 64, 74
1, 281629, Control_c, 0, 64, 75
1, 281629, Control_c, 0, 67, 95
1, 281644, Control_c, 0, 64, 76
1, 281658, Control_c, 0, 64, 78
1, 281673, Control_c, 0, 64, 79
1, 281688, Control_c, 0, 64, 79
1, 281777, Control_c, 0, 64, 80
1, 281791, Control_c, 0, 64, 80
1, 281795, Note_off_c, 0, 61, 42
1, 281881, Control_c, 0, 64, 81
1, 281999, Control_c, 0, 64, 80
1, 281999, Control_c, 0, 67, 94
1, 282058, Control_c, 0, 67, 94
1, 282102, Control_c, 0, 64, 80
1, 282116, Control_c, 0, 64, 79
1, 282127, Note_on_c, 0, 61, 34
1, 282131, Control_c, 0, 64, 78
1, 282146, Control_c, 0, 64, 77
1, 282161, Control_c, 0, 67, 93
1, 282198, Note_off_c, 0, 58, 44
1, 282270, Note_off_c, 0, 49, 38
1, 282316, Control_c, 0, 67, 93
1, 282346, Control_c, 0, 67, 92
1, 282388, Note_off_c, 0, 42, 32
1, 282421, Control_c, 0, 67, 92
1, 282444, Note_off_c, 0, 61, 41
1, 282480, Note_on_c, 0, 63, 35
1, 282495, Control_c, 0, 67, 91
1, 282505, Note_off_c, 0, 70, 36
1, 282584, Control_c, 0, 67, 91
1, 282599, Control_c, 0, 64, 76
1, 282614, Control_c, 0, 64, 75
1, 282616, Note_off_c, 0, 63, 58
1, 282629, Control_c, 0, 64, 73
1, 282644, Control_c, 0, 64, 71
1, 282651, Note_on_c, 0, 65, 48
1, 282658, Control_c, 0, 64, 71
1, 282673, Control_c, 0, 64, 70
1, 282688, Control_c, 0, 67, 90
1, 282703, Control_c, 0, 64, 71
1, 282718, Control_c, 0, 64, 71
1, 282747, Control_c, 0, 64, 72
1, 282777, Control_c, 0, 64, 71
1, 282780, Note_on_c, 0, 66, 44
1, 282792, Control_c, 0, 64, 70
1, 282797, Note_off_c, 0, 65, 50
1, 282806, Control_c, 0, 64, 69
1, 282821, Control_c, 0, 64, 68
1, 282821, Control_c, 0, 67, 90
1, 282836, Control_c, 0, 64, 66
1, 282850, Control_c, 0, 64, 65
1, 282871, Note_on_c, 0, 68, 48
1, 282874, Note_off_c, 0, 66, 56
1, 282895, Control_c, 0, 64, 66
1, 282895, Control_c, 0, 67, 89
1, 282910, Control_c, 0, 64, 66
1, 282924, Control_c, 0, 67, 89
1, 282925, Note_off_c, 0, 68, 56
1, 282938, Note_on_c, 0, 70, 53
1, 282954, Control_c, 0, 64, 68
1, 282954, Control_c, 0, 67, 88
1, 282977, Control_c, 0, 64, 70
1, 282977, Control_c, 0, 67, 88
1, 282978, Note_off_c, 0, 70, 65
1, 282992, Control_c, 0, 64, 72
1, 282992, Control_c, 0, 67, 87
1, 283006, Control_c, 0, 64, 73
1, 283006, Control_c, 0, 67, 87
1, 283018, Note_on_c, 0, 71, 54
1, 283021, Control_c, 0, 64, 73
1, 283036, Control_c, 0, 64, 74
1, 283050, Control_c, 0, 64, 75
1, 283065, Control_c, 0, 64, 78
1, 283065, Control_c, 0, 67, 86
1, 283070, Note_off_c, 0, 71, 57
1, 283080, Control_c, 0, 64, 83
1, 283094, Note_on_c, 0, 73, 59
1, 283095, Control_c, 0, 64, 87
1, 283110, Control_c, 0, 64, 89
1, 283125, Control_c, 0, 64, 90
1, 283139, Control_c, 0, 67, 86
1, 283157, Note_off_c, 0, 73, 61
1, 283175, Note_on_c, 0, 75, 57
1, 283204, Note_off_c, 0, 75, 67
1, 283244, Control_c, 0, 64, 89
1, 283261, Note_on_c, 0, 77, 61
1, 283274, Control_c, 0, 64, 89
1, 283288, Control_c, 0, 64, 88
1, 283318, Control_c, 0, 64, 88
1, 283333, Control_c, 0, 64, 87
1, 283348, Control_c, 0, 64, 87
1, 283357, Note_on_c, 0, 78, 61
1, 283362, Control_c, 0, 64, 86
1, 283392, Control_c, 0, 64, 86
1, 283407, Control_c, 0, 64, 85
1, 283422, Control_c, 0, 64, 85
1, 283434, Note_off_c, 0, 77, 39
1, 283437, Control_c, 0, 64, 84
1, 283452, Control_c, 0, 64, 84
1, 283481, Control_c, 0, 64, 83
1, 283497, Note_on_c, 0, 80, 63
1, 283511, Control_c, 0, 64, 83
1, 283555, Control_c, 0, 64, 82
1, 283587, Note_off_c, 0, 78, 45
1, 283600, Control_c, 0, 64, 82
1, 283644, Control_c, 0, 64, 81
1, 283673, Control_c, 0, 64, 81
1, 283703, Control_c, 0, 64, 80
1, 283718, Control_c, 0, 64, 80
1, 283741, Control_c, 0, 64, 79
1, 283755, Control_c, 0, 64, 79
1, 283770, Control_c, 0, 64, 78
1, 283785, Control_c, 0, 64, 78
1, 283800, Control_c, 0, 64, 76
1, 283807, Note_on_c, 0, 70, 26
1, 283815, Control_c, 0, 64, 75
1, 283822, Note_on_c, 0, 73, 36
1, 283828, Note_on_c, 0, 66, 36
1, 283829, Control_c, 0, 64, 74
1, 283829, Control_c, 0, 67, 86
1, 283844, Control_c, 0, 64, 72
1, 283850, Note_on_c, 0, 82, 75
1, 283859, Control_c, 0, 64, 71
1, 283859, Control_c, 0, 67, 87
1, 283874, Control_c, 0, 64, 70
1, 283888, Control_c, 0, 64, 67
1, 283888, Control_c, 0, 67, 87
1, 283895, Note_on_c, 0, 78, 25
1, 283903, Control_c, 0, 64, 65
1, 283903, Control_c, 0, 67, 88
1, 283911, Note_off_c, 0, 80, 50
1, 283918, Control_c, 0, 64, 62
1, 283918, Control_c, 0, 67, 88
1, 283933, Control_c, 0, 64, 47
1, 283949, Control_c, 0, 64, 0
1, 283979, Note_off_c, 0, 78, 0
1, 283979, Note_on_c, 0, 78, 3
1, 284067, Control_c, 0, 64, 48
1, 284082, Control_c, 0, 64, 66
1, 284097, Control_c, 0, 64, 73
1, 284097, Control_c, 0, 67, 88
1, 284111, Control_c, 0, 64, 80
1, 284126, Control_c, 0, 64, 86
1, 284126, Control_c, 0, 67, 87
1, 284141, Control_c, 0, 64, 89
1, 284141, Control_c, 0, 67, 87
1, 284171, Control_c, 0, 64, 89
1, 284177, Note_off_c, 0, 78, 50
1, 284185, Control_c, 0, 67, 86
1, 284215, Control_c, 0, 64, 90
1, 284230, Control_c, 0, 64, 90
1, 284246, Note_off_c, 0, 82, 61
1, 284274, Note_off_c, 0, 70, 39
1, 284289, Control_c, 0, 64, 91
1, 284289, Control_c, 0, 67, 86
1, 284292, Note_off_c, 0, 73, 44
1, 284304, Control_c, 0, 64, 92
1, 284319, Control_c, 0, 64, 93
1, 284319, Control_c, 0, 67, 85
1, 284334, Control_c, 0, 64, 94
1, 284349, Control_c, 0, 64, 94
1, 284364, Control_c, 0, 64, 96
1, 284379, Control_c, 0, 64, 97
1, 284383, Note_off_c, 0, 66, 55
1, 284394, Control_c, 0, 64, 99
1, 284394, Control_c, 0, 67, 85
1, 284409, Control_c, 0, 64, 100
1, 284423, Control_c, 0, 64, 100
1, 284455, Note_on_c, 0, 69, 49
1, 284456, Note_on_c, 0, 81, 73
1, 284479, Note_on_c, 0, 77, 54
1, 284492, Note_on_c, 0, 65, 39
1, 284504, Note_on_c, 0, 72, 41
1, 284552, Note_off_c, 0, 72, 43
1, 284564, Control_c, 0, 64, 100
1, 284579, Control_c, 0, 64, 99
1, 284594, Control_c, 0, 64, 98
1, 284606, Note_off_c, 0, 69, 23
1, 284608, Control_c, 0, 64, 95
1, 284615, Note_off_c, 0, 65, 37
1, 284623, Control_c, 0, 64, 90
1, 284625, Note_on_c, 0, 80, 73
1, 284633, Note_on_c, 0, 63, 39
1, 284636, Note_off_c, 0, 77, 55
1, 284638, Control_c, 0, 64, 83
1, 284647, Note_on_c, 0, 71, 42
1, 284648, Note_on_c, 0, 75, 45
1, 284653, Control_c, 0, 64, 76
1, 284662, Note_on_c, 0, 68, 31
1, 284666, Note_off_c, 0, 81, 57
1, 284668, Control_c, 0, 64, 69
1, 284668, Control_c, 0, 67, 85
1, 284683, Control_c, 0, 64, 65
1, 284712, Control_c, 0, 64, 67
1, 284727, Control_c, 0, 64, 70
1, 284742, Control_c, 0, 64, 73
1, 284757, Control_c, 0, 64, 76
1, 284772, Control_c, 0, 64, 78
1, 284777, Note_off_c, 0, 71, 59
1, 284787, Control_c, 0, 64, 79
1, 284802, Control_c, 0, 64, 79
1, 284808, Note_off_c, 0, 75, 54
1, 284876, Control_c, 0, 64, 79
1, 284891, Control_c, 0, 64, 78
1, 284921, Control_c, 0, 64, 78
1, 284935, Control_c, 0, 64, 77
1, 284936, Note_off_c, 0, 68, 49
1, 284950, Control_c, 0, 64, 77
1, 284965, Control_c, 0, 64, 76
1, 284970, Note_off_c, 0, 63, 38
1, 284980, Control_c, 0, 64, 75
1, 284995, Control_c, 0, 64, 73
1, 285006, Note_on_c, 0, 82, 64
1, 285008, Note_on_c, 0, 70, 33
1, 285009, Control_c, 0, 64, 71
1, 285012, Note_on_c, 0, 73, 40
1, 285021, Note_on_c, 0, 78, 45
1, 285024, Control_c, 0, 64, 68
1, 285032, Note_on_c, 0, 66, 36
1, 285039, Control_c, 0, 64, 66
1, 285053, Control_c, 0, 64, 64
1, 285055, Note_off_c, 0, 80, 47
1, 285068, Control_c, 0, 64, 60
1, 285083, Control_c, 0, 64, 56
1, 285098, Control_c, 0, 64, 49
1, 285112, Control_c, 0, 64, 40
1, 285126, Control_c, 0, 64, 29
1, 285141, Control_c, 0, 64, 17
1, 285156, Control_c, 0, 64, 0
1, 285297, Control_c, 0, 64, 14
1, 285312, Control_c, 0, 64, 27
1, 285326, Control_c, 0, 64, 33
1, 285341, Control_c, 0, 64, 38
1, 285356, Control_c, 0, 64, 46
1, 285371, Control_c, 0, 64, 52
1, 285386, Control_c, 0, 64, 56
1, 285386, Control_c, 0, 67, 85
1, 285400, Control_c, 0, 64, 58
1, 285415, Control_c, 0, 64, 59
1, 285430, Control_c, 0, 64, 60
1, 285445, Control_c, 0, 64, 62
1, 285459, Control_c, 0, 64, 63
1, 285474, Control_c, 0, 64, 64
1, 285489, Control_c, 0, 64, 65
1, 285504, Control_c, 0, 64, 66
1, 285504, Control_c, 0, 67, 84
1, 285519, Control_c, 0, 64, 67
1, 285533, Control_c, 0, 64, 68
1, 285549, Control_c, 0, 64, 69
1, 285564, Control_c, 0, 64, 70
1, 285579, Control_c, 0, 64, 71
1, 285579, Control_c, 0, 67, 84
1, 285594, Control_c, 0, 64, 72
1, 285609, Control_c, 0, 64, 73
1, 285623, Control_c, 0, 64, 74
1, 285638, Control_c, 0, 64, 76
1, 285638, Control_c, 0, 67, 83
1, 285653, Control_c, 0, 64, 77
1, 285653, Control_c, 0, 67, 83
1, 285667, Control_c, 0, 64, 79
1, 285667, Control_c, 0, 67, 82
1, 285682, Control_c, 0, 64, 80
1, 285682, Control_c, 0, 67, 82
1, 285697, Control_c, 0, 64, 81
1, 285697, Control_c, 0, 67, 81
1, 285712, Control_c, 0, 64, 82
1, 285712, Control_c, 0, 67, 79
1, 285727, Control_c, 0, 64, 83
1, 285727, Control_c, 0, 67, 77
1, 285741, Control_c, 0, 64, 83
1, 285741, Control_c, 0, 67, 75
1, 285756, Control_c, 0, 64, 84
1, 285756, Control_c, 0, 67, 73
1, 285771, Control_c, 0, 64, 85
1, 285771, Control_c, 0, 67, 70
1, 285786, Control_c, 0, 64, 86
1, 285786, Control_c, 0, 67, 68
1, 285801, Control_c, 0, 64, 87
1, 285801, Control_c, 0, 67, 64
1, 285816, Control_c, 0, 64, 87
1, 285816, Control_c, 0, 67, 60
1, 285831, Control_c, 0, 67, 57
1, 285845, Control_c, 0, 67, 54
1, 285860, Control_c, 0, 67, 51
1, 285875, Control_c, 0, 67, 48
1, 285890, Control_c, 0, 67, 44
1, 285905, Control_c, 0, 64, 88
1, 285905, Control_c, 0, 67, 37
1, 285920, Control_c, 0, 67, 30
1, 285935, Control_c, 0, 67, 24
1, 285949, Control_c, 0, 67, 20
1, 285964, Control_c, 0, 67, 15
1, 285986, Control_c, 0, 67, 11
1, 286001, Control_c, 0, 67, 0
1, 286525, Note_off_c, 0, 73, 40
1, 286743, Note_off_c, 0, 70, 33
1, 286767, Note_off_c, 0, 78, 50
1, 286770, Note_on_c, 0, 80, 53
1, 286784, Note_on_c, 0, 61, 24
1, 286790, Note_on_c, 0, 77, 34
1, 286792, Note_off_c, 0, 66, 55
1, 286855, Note_off_c, 0, 82, 52
1, 286883, Control_c, 0, 64, 87
1, 286936, Note_off_c, 0, 77, 43
1, 286954, Note_on_c, 0, 78, 67
1, 286955, Note_off_c, 0, 61, 40
1, 286957, Control_c, 0, 64, 87
1, 286963, Note_on_c, 0, 63, 44
1, 286963, Note_on_c, 0, 75, 46
1, 286970, Note_on_c, 0, 66, 26
1, 286975, Note_on_c, 0, 70, 30
1, 287110, Note_off_c, 0, 80, 38
1, 287120, Control_c, 0, 64, 86
1, 287130, Note_off_c, 0, 75, 41
1, 287154, Note_off_c, 0, 66, 42
1, 287210, Control_c, 0, 64, 86
1, 287239, Note_off_c, 0, 70, 41
1, 287269, Control_c, 0, 64, 85
1, 287291, Note_off_c, 0, 78, 32
1, 287314, Control_c, 0, 64, 85
1, 287358, Control_c, 0, 64, 84
1, 287373, Control_c, 0, 64, 84
1, 287388, Control_c, 0, 64, 83
1, 287402, Control_c, 0, 64, 82
1, 287417, Control_c, 0, 64, 80
1, 287422, Note_on_c, 0, 73, 42
1, 287425, Note_on_c, 0, 82, 77
1, 287431, Note_on_c, 0, 66, 46
1, 287431, Note_off_c, 0, 63, 37
1, 287432, Control_c, 0, 64, 77
1, 287434, Note_on_c, 0, 70, 34
1, 287439, Note_on_c, 0, 78, 47
1, 287447, Control_c, 0, 64, 70
1, 287462, Control_c, 0, 64, 63
1, 287485, Control_c, 0, 64, 35
1, 287500, Control_c, 0, 64, 0
1, 287544, Control_c, 0, 64, 43
1, 287559, Control_c, 0, 64, 59
1, 287574, Control_c, 0, 64, 66
1, 287589, Control_c, 0, 64, 72
1, 287603, Control_c, 0, 64, 78
1, 287618, Control_c, 0, 64, 83
1, 287633, Control_c, 0, 64, 88
1, 287647, Control_c, 0, 64, 90
1, 287658, Note_off_c, 0, 73, 54
1, 287662, Control_c, 0, 64, 91
1, 287677, Control_c, 0, 64, 92
1, 287695, Note_off_c, 0, 78, 59
1, 287705, Note_off_c, 0, 70, 53
1, 287740, Note_off_c, 0, 66, 62
1, 287747, Note_off_c, 0, 82, 54
1, 287846, Note_on_c, 0, 58, 49
1, 287857, Note_on_c, 0, 80, 66
1, 287865, Note_on_c, 0, 77, 52
1, 287899, Control_c, 0, 64, 92
1, 287906, Note_off_c, 0, 58, 47
1, 287914, Control_c, 0, 64, 91
1, 287929, Control_c, 0, 64, 91
1, 287944, Control_c, 0, 64, 90
1, 287974, Control_c, 0, 64, 90
1, 287985, Note_off_c, 0, 77, 56
1, 287992, Note_on_c, 0, 59, 53
1, 287998, Note_on_c, 0, 78, 73
1, 288004, Control_c, 0, 64, 89
1, 288005, Note_on_c, 0, 75, 61
1, 288019, Control_c, 0, 64, 89
1, 288033, Control_c, 0, 64, 88
1, 288056, Note_off_c, 0, 80, 52
1, 288063, Control_c, 0, 64, 88
1, 288078, Control_c, 0, 64, 87
1, 288093, Control_c, 0, 64, 87
1, 288108, Control_c, 0, 64, 86
1, 288123, Control_c, 0, 64, 86
1, 288138, Control_c, 0, 64, 84
1, 288153, Control_c, 0, 64, 82
1, 288168, Control_c, 0, 64, 77
1, 288183, Control_c, 0, 64, 71
1, 288185, Note_on_c, 0, 65, 39
1, 288185, Note_on_c, 0, 77, 67
1, 288194, Note_on_c, 0, 73, 53
1, 288197, Control_c, 0, 64, 65
1, 288201, Note_off_c, 0, 75, 58
1, 288206, Note_on_c, 0, 70, 37
1, 288212, Note_on_c, 0, 61, 48
1, 288212, Control_c, 0, 64, 49
1, 288228, Note_off_c, 0, 59, 43
1, 288234, Control_c, 0, 64, 21
1, 288249, Control_c, 0, 64, 23
1, 288251, Note_off_c, 0, 78, 49
1, 288264, Control_c, 0, 64, 37
1, 288278, Control_c, 0, 64, 47
1, 288293, Control_c, 0, 64, 56
1, 288308, Control_c, 0, 64, 63
1, 288323, Control_c, 0, 64, 67
1, 288338, Note_off_c, 0, 65, 52
1, 288338, Control_c, 0, 64, 71
1, 288352, Control_c, 0, 64, 74
1, 288367, Control_c, 0, 64, 77
1, 288382, Control_c, 0, 64, 81
1, 288397, Control_c, 0, 64, 84
1, 288407, Note_off_c, 0, 77, 62
1, 288412, Control_c, 0, 64, 88
1, 288412, Control_c, 0, 67, 8
1, 288427, Control_c, 0, 64, 90
1, 288427, Control_c, 0, 67, 9
1, 288442, Control_c, 0, 64, 90
1, 288442, Control_c, 0, 67, 10
1, 288457, Control_c, 0, 67, 11
1, 288471, Control_c, 0, 67, 12
1, 288486, Control_c, 0, 67, 12
1, 288501, Control_c, 0, 67, 13
1, 288516, Control_c, 0, 67, 15
1, 288531, Control_c, 0, 67, 17
1, 288545, Control_c, 0, 67, 20
1, 288552, Note_off_c, 0, 70, 34
1, 288560, Control_c, 0, 67, 22
1, 288575, Control_c, 0, 67, 24
1, 288590, Control_c, 0, 67, 26
1, 288604, Control_c, 0, 67, 28
1, 288612, Note_off_c, 0, 73, 33
1, 288619, Control_c, 0, 64, 90
1, 288619, Control_c, 0, 67, 30
1, 288634, Control_c, 0, 64, 89
1, 288634, Control_c, 0, 67, 30
1, 288649, Control_c, 0, 64, 89
1, 288649, Control_c, 0, 67, 31
1, 288664, Control_c, 0, 64, 88
1, 288664, Control_c, 0, 67, 32
1, 288678, Control_c, 0, 64, 87
1, 288678, Control_c, 0, 67, 32
1, 288693, Control_c, 0, 64, 87
1, 288708, Control_c, 0, 64, 86
1, 288708, Control_c, 0, 67, 33
1, 288723, Control_c, 0, 64, 85
1, 288724, Note_on_c, 0, 82, 71
1, 288734, Note_off_c, 0, 61, 37
1, 288738, Control_c, 0, 64, 83
1, 288738, Control_c, 0, 67, 33
1, 288741, Note_on_c, 0, 73, 45
1, 288746, Note_on_c, 0, 66, 40
1, 288749, Note_on_c, 0, 70, 28
1, 288749, Note_on_c, 0, 78, 45
1, 288754, Control_c, 0, 64, 79
1, 288754, Control_c, 0, 67, 34
1, 288768, Control_c, 0, 64, 74
1, 288768, Control_c, 0, 67, 34
1, 288783, Control_c, 0, 64, 68
1, 288783, Control_c, 0, 67, 35
1, 288798, Control_c, 0, 64, 58
1, 288798, Control_c, 0, 67, 36
1, 288813, Control_c, 0, 64, 0
1, 288813, Control_c, 0, 67, 37
1, 288828, Control_c, 0, 67, 37
1, 288856, Control_c, 0, 67, 38
1, 288886, Control_c, 0, 67, 39
1, 288901, Control_c, 0, 67, 40
1, 288931, Control_c, 0, 67, 40
1, 288946, Control_c, 0, 67, 41
1, 288961, Control_c, 0, 67, 42
1, 288982, Control_c, 0, 67, 42
1, 288997, Control_c, 0, 64, 17
1, 288997, Control_c, 0, 67, 43
1, 289012, Control_c, 0, 64, 35
1, 289012, Control_c, 0, 67, 44
1, 289026, Control_c, 0, 64, 46
1, 289026, Control_c, 0, 67, 45
1, 289041, Control_c, 0, 64, 53
1, 289041, Control_c, 0, 67, 46
1, 289056, Control_c, 0, 64, 57
1, 289056, Control_c, 0, 67, 46
1, 289071, Control_c, 0, 64, 61
1, 289071, Control_c, 0, 67, 47
1, 289086, Control_c, 0, 64, 64
1, 289086, Control_c, 0, 67, 48
1, 289101, Control_c, 0, 64, 66
1, 289101, Control_c, 0, 67, 49
1, 289116, Control_c, 0, 64, 69
1, 289116, Control_c, 0, 67, 49
1, 289130, Control_c, 0, 64, 71
1, 289130, Control_c, 0, 67, 50
1, 289145, Control_c, 0, 64, 74
1, 289145, Control_c, 0, 67, 51
1, 289160, Control_c, 0, 64, 76
1, 289160, Control_c, 0, 67, 52
1, 289175, Control_c, 0, 64, 79
1, 289175, Control_c, 0, 67, 52
1, 289190, Control_c, 0, 64, 80
1, 289190, Control_c, 0, 67, 53
1, 289205, Control_c, 0, 64, 81
1, 289205, Control_c, 0, 67, 55
1, 289219, Control_c, 0, 64, 83
1, 289219, Control_c, 0, 67, 56
1, 289234, Control_c, 0, 64, 83
1, 289234, Control_c, 0, 67, 57
1, 289249, Control_c, 0, 64, 84
1, 289249, Control_c, 0, 67, 58
1, 289264, Control_c, 0, 64, 84
1, 289264, Control_c, 0, 67, 60
1, 289279, Control_c, 0, 67, 61
1, 289293, Control_c, 0, 67, 62
1, 289308, Control_c, 0, 67, 63
1, 289323, Control_c, 0, 67, 64
1, 289338, Control_c, 0, 67, 65
1, 289353, Control_c, 0, 67, 65
1, 289367, Control_c, 0, 67, 66
1, 289369, Note_off_c, 0, 78, 31
1, 289375, Note_off_c, 0, 70, 26
1, 289382, Control_c, 0, 67, 67
1, 289397, Control_c, 0, 67, 68
1, 289400, Note_off_c, 0, 73, 39
1, 289412, Control_c, 0, 67, 68
1, 289426, Control_c, 0, 67, 69
1, 289441, Control_c, 0, 67, 69
1, 289456, Control_c, 0, 67, 70
1, 289471, Control_c, 0, 67, 71
1, 289486, Control_c, 0, 67, 72
1, 289500, Control_c, 0, 67, 73
1, 289515, Control_c, 0, 64, 84
1, 289515, Control_c, 0, 67, 74
1, 289530, Control_c, 0, 67, 74
1, 289546, Control_c, 0, 64, 83
1, 289546, Control_c, 0, 67, 76
1, 289561, Control_c, 0, 64, 83
1, 289561, Control_c, 0, 67, 77
1, 289576, Control_c, 0, 67, 78
1, 289590, Control_c, 0, 67, 78
1, 289605, Control_c, 0, 64, 82
1, 289605, Control_c, 0, 67, 79
1, 289620, Control_c, 0, 67, 80
1, 289635, Control_c, 0, 64, 82
1, 289649, Control_c, 0, 64, 81
1, 289649, Control_c, 0, 67, 80
1, 289664, Control_c, 0, 64, 81
1, 289679, Note_off_c, 0, 66, 33
1, 289679, Control_c, 0, 64, 80
1, 289697, Note_on_c, 0, 85, 61
1, 289704, Note_on_c, 0, 71, 38
1, 289707, Note_on_c, 0, 80, 43
1, 289709, Control_c, 0, 64, 80
1, 289710, Note_on_c, 0, 63, 33
1, 289730, Note_on_c, 0, 75, 38
1, 289731, Control_c, 0, 67, 81
1, 289745, Note_off_c, 0, 82, 38
1, 289746, Control_c, 0, 67, 81
1, 289761, Control_c, 0, 67, 82
1, 289773, Note_off_c, 0, 71, 57
1, 289776, Control_c, 0, 67, 82
1, 289791, Control_c, 0, 67, 83
1, 289800, Note_off_c, 0, 75, 52
1, 289805, Control_c, 0, 67, 83
1, 289820, Control_c, 0, 67, 84
1, 289835, Control_c, 0, 67, 85
1, 289849, Control_c, 0, 67, 86
1, 289864, Control_c, 0, 67, 86
1, 289879, Control_c, 0, 67, 87
1, 289909, Control_c, 0, 64, 79
1, 289909, Control_c, 0, 67, 87
1, 289923, Control_c, 0, 64, 79
1, 289938, Control_c, 0, 64, 77
1, 289938, Control_c, 0, 67, 88
1, 289943, Note_on_c, 0, 82, 55
1, 289953, Control_c, 0, 64, 75
1, 289957, Note_on_c, 0, 73, 44
1, 289964, Note_off_c, 0, 63, 42
1, 289967, Note_on_c, 0, 78, 34
1, 289968, Note_off_c, 0, 80, 38
1, 289968, Control_c, 0, 64, 71
1, 289971, Note_on_c, 0, 70, 29
1, 289974, Note_on_c, 0, 66, 35
1, 289976, Note_off_c, 0, 85, 51
1, 289983, Control_c, 0, 64, 65
1, 289998, Control_c, 0, 64, 57
1, 290013, Control_c, 0, 64, 26
1, 290028, Control_c, 0, 64, 0
1, 290072, Control_c, 0, 64, 33
1, 290087, Control_c, 0, 64, 51
1, 290102, Control_c, 0, 64, 61
1, 290116, Control_c, 0, 64, 65
1, 290131, Control_c, 0, 64, 68
1, 290146, Control_c, 0, 64, 71
1, 290161, Control_c, 0, 64, 74
1, 290176, Control_c, 0, 64, 77
1, 290190, Control_c, 0, 64, 79
1, 290205, Control_c, 0, 64, 81
1, 290217, Note_off_c, 0, 73, 31
1, 290220, Control_c, 0, 64, 81
1, 290222, Note_off_c, 0, 82, 32
1, 290235, Control_c, 0, 64, 82
1, 290240, Note_off_c, 0, 70, 34
1, 290247, Note_off_c, 0, 66, 36
1, 290264, Note_off_c, 0, 78, 38
1, 290279, Control_c, 0, 64, 81
1, 290339, Control_c, 0, 64, 81
1, 290369, Control_c, 0, 64, 80
1, 290399, Control_c, 0, 64, 80
1, 290428, Control_c, 0, 64, 79
1, 290443, Control_c, 0, 64, 78
1, 290458, Control_c, 0, 64, 78
1, 290480, Control_c, 0, 64, 77
1, 290495, Control_c, 0, 64, 76
1, 290510, Control_c, 0, 64, 75
1, 290525, Control_c, 0, 64, 74
1, 290540, Control_c, 0, 64, 73
1, 290543, Note_on_c, 0, 82, 51
1, 290554, Control_c, 0, 64, 72
1, 290564, Note_on_c, 0, 73, 26
1, 290568, Note_on_c, 0, 78, 25
1, 290569, Control_c, 0, 64, 71
1, 290578, Note_on_c, 0, 70, 25
1, 290584, Control_c, 0, 64, 70
1, 290586, Note_on_c, 0, 66, 18
1, 290599, Control_c, 0, 64, 68
1, 290614, Control_c, 0, 64, 67
1, 290628, Control_c, 0, 64, 65
1, 290643, Control_c, 0, 64, 63
1, 290658, Control_c, 0, 64, 63
1, 290672, Control_c, 0, 64, 62
1, 290687, Control_c, 0, 64, 61
1, 290702, Control_c, 0, 64, 59
1, 290717, Control_c, 0, 64, 57
1, 290732, Control_c, 0, 64, 53
1, 290746, Control_c, 0, 64, 49
1, 290761, Control_c, 0, 64, 46
1, 290776, Control_c, 0, 64, 43
1, 290791, Control_c, 0, 64, 40
1, 290806, Control_c, 0, 64, 37
1, 290821, Control_c, 0, 64, 32
1, 290836, Control_c, 0, 64, 26
1, 290850, Control_c, 0, 64, 19
1, 290850, Control_c, 0, 67, 87
1, 290865, Control_c, 0, 64, 0
1, 291230, Control_c, 0, 67, 88
1, 291496, Control_c, 0, 67, 87
1, 291526, Control_c, 0, 67, 87
1, 291541, Control_c, 0, 64, 38
1, 291556, Control_c, 0, 64, 54
1, 291570, Control_c, 0, 64, 62
1, 291585, Control_c, 0, 64, 65
1, 291600, Control_c, 0, 64, 67
1, 291614, Control_c, 0, 64, 69
1, 291614, Control_c, 0, 67, 86
1, 291629, Control_c, 0, 64, 71
1, 291644, Control_c, 0, 64, 73
1, 291659, Control_c, 0, 64, 75
1, 291674, Control_c, 0, 64, 77
1, 291674, Control_c, 0, 67, 86
1, 291703, Control_c, 0, 64, 77
1, 291718, Control_c, 0, 64, 78
1, 291718, Control_c, 0, 67, 85
1, 291748, Control_c, 0, 64, 78
1, 291777, Control_c, 0, 64, 79
1, 291777, Control_c, 0, 67, 85
1, 291792, Control_c, 0, 64, 81
1, 291807, Control_c, 0, 64, 83
1, 291822, Control_c, 0, 64, 86
1, 291822, Control_c, 0, 67, 84
1, 291837, Control_c, 0, 64, 90
1, 291843, Note_off_c, 0, 78, 37
1, 291852, Control_c, 0, 64, 93
1, 291867, Control_c, 0, 64, 95
1, 291867, Control_c, 0, 67, 84
1, 291882, Control_c, 0, 64, 95
1, 291896, Control_c, 0, 64, 96
1, 291896, Control_c, 0, 67, 83
1, 291911, Control_c, 0, 64, 96
1, 291911, Control_c, 0, 67, 83
1, 291926, Control_c, 0, 64, 97
1, 291941, Control_c, 0, 64, 98
1, 291956, Control_c, 0, 64, 99
1, 291979, Control_c, 0, 64, 101
1, 291993, Control_c, 0, 64, 103
1, 291993, Control_c, 0, 67, 82
1, 292008, Control_c, 0, 64, 104
1, 292023, Control_c, 0, 64, 104
1, 292038, Control_c, 0, 64, 105
1, 292038, Control_c, 0, 67, 82
1, 292052, Control_c, 0, 64, 106
1, 292054, Note_off_c, 0, 82, 31
1, 292082, Control_c, 0, 67, 81
1, 292126, Control_c, 0, 67, 81
1, 292156, Control_c, 0, 67, 80
1, 292171, Control_c, 0, 67, 80
1, 292182, Note_off_c, 0, 73, 42
1, 292186, Control_c, 0, 64, 105
1, 292186, Control_c, 0, 67, 79
1, 292201, Control_c, 0, 67, 79
1, 292216, Control_c, 0, 64, 104
1, 292216, Control_c, 0, 67, 78
1, 292231, Control_c, 0, 64, 104
1, 292231, Control_c, 0, 67, 78
1, 292245, Control_c, 0, 64, 103
1, 292245, Control_c, 0, 67, 77
1, 292260, Control_c, 0, 64, 102
1, 292275, Control_c, 0, 64, 101
1, 292275, Control_c, 0, 67, 77
1, 292290, Control_c, 0, 64, 101
1, 292290, Control_c, 0, 67, 75
1, 292305, Control_c, 0, 64, 100
1, 292305, Control_c, 0, 67, 75
1, 292319, Control_c, 0, 64, 100
1, 292319, Control_c, 0, 67, 74
1, 292334, Control_c, 0, 64, 99
1, 292334, Control_c, 0, 67, 74
1, 292349, Control_c, 0, 64, 98
1, 292349, Control_c, 0, 67, 72
1, 292364, Control_c, 0, 64, 98
1, 292364, Control_c, 0, 67, 69
1, 292379, Control_c, 0, 64, 97
1, 292379, Control_c, 0, 67, 65
1, 292393, Control_c, 0, 64, 96
1, 292393, Control_c, 0, 67, 59
1, 292408, Control_c, 0, 64, 95
1, 292408, Control_c, 0, 67, 54
1, 292423, Control_c, 0, 64, 95
1, 292423, Control_c, 0, 67, 49
1, 292437, Control_c, 0, 64, 94
1, 292437, Control_c, 0, 67, 44
1, 292452, Control_c, 0, 64, 94
1, 292452, Control_c, 0, 67, 38
1, 292467, Control_c, 0, 64, 93
1, 292467, Control_c, 0, 67, 32
1, 292482, Control_c, 0, 64, 93
1, 292482, Control_c, 0, 67, 27
1, 292497, Control_c, 0, 64, 92
1, 292497, Control_c, 0, 67, 23
1, 292511, Control_c, 0, 64, 92
1, 292511, Control_c, 0, 67, 19
1, 292526, Control_c, 0, 64, 90
1, 292526, Control_c, 0, 67, 14
1, 292527, Note_off_c, 0, 70, 19
1, 292541, Control_c, 0, 64, 88
1, 292541, Control_c, 0, 67, 9
1, 292556, Control_c, 0, 64, 86
1, 292556, Control_c, 0, 67, 0
1, 292561, Note_off_c, 0, 66, 40
1, 292570, Control_c, 0, 64, 85
1, 292585, Control_c, 0, 64, 84
1, 292600, Control_c, 0, 64, 82
1, 292615, Control_c, 0, 64, 82
1, 292630, Control_c, 0, 64, 81
1, 292659, Control_c, 0, 64, 80
1, 292689, Control_c, 0, 64, 79
1, 292704, Control_c, 0, 64, 78
1, 292725, Control_c, 0, 64, 77
1, 292741, Control_c, 0, 64, 76
1, 292756, Control_c, 0, 64, 74
1, 292766, Note_on_c, 0, 80, 49
1, 292771, Control_c, 0, 64, 73
1, 292786, Control_c, 0, 64, 72
1, 292801, Control_c, 0, 64, 71
1, 292815, Control_c, 0, 64, 70
1, 292830, Control_c, 0, 64, 69
1, 292845, Control_c, 0, 64, 68
1, 292860, Control_c, 0, 64, 67
1, 292874, Control_c, 0, 64, 66
1, 292889, Control_c, 0, 64, 65
1, 292904, Control_c, 0, 64, 64
1, 292919, Control_c, 0, 64, 63
1, 292934, Control_c, 0, 64, 61
1, 292949, Control_c, 0, 64, 58
1, 292964, Control_c, 0, 64, 55
1, 292979, Control_c, 0, 64, 50
1, 292993, Control_c, 0, 64, 46
1, 293008, Control_c, 0, 64, 44
1, 293053, Control_c, 0, 64, 45
1, 293067, Control_c, 0, 64, 48
1, 293082, Control_c, 0, 64, 52
1, 293097, Control_c, 0, 64, 54
1, 293112, Control_c, 0, 64, 56
1, 293127, Control_c, 0, 64, 57
1, 293141, Control_c, 0, 64, 59
1, 293156, Control_c, 0, 64, 61
1, 293171, Control_c, 0, 64, 64
1, 293185, Control_c, 0, 64, 66
1, 293200, Control_c, 0, 64, 67
1, 293215, Control_c, 0, 64, 68
1, 293219, Note_on_c, 0, 82, 77
1, 293230, Control_c, 0, 64, 68
1, 293245, Control_c, 0, 64, 69
1, 293259, Control_c, 0, 64, 70
1, 293274, Control_c, 0, 64, 70
1, 293289, Control_c, 0, 64, 71
1, 293319, Control_c, 0, 64, 71
1, 293334, Control_c, 0, 64, 73
1, 293348, Control_c, 0, 64, 76
1, 293363, Control_c, 0, 64, 78
1, 293378, Control_c, 0, 64, 80
1, 293393, Control_c, 0, 64, 82
1, 293408, Control_c, 0, 64, 84
1, 293423, Control_c, 0, 64, 86
1, 293438, Control_c, 0, 64, 87
1, 293453, Control_c, 0, 64, 88
1, 293474, Control_c, 0, 64, 89
1, 293489, Control_c, 0, 64, 91
1, 293504, Control_c, 0, 64, 94
1, 293519, Control_c, 0, 64, 96
1, 293534, Control_c, 0, 64, 97
1, 293550, Note_on_c, 0, 85, 77
1, 293588, Note_on_c, 0, 83, 78
1, 293620, Note_off_c, 0, 80, 43
1, 293662, Note_off_c, 0, 85, 59
1, 293757, Control_c, 0, 64, 96
1, 293769, Note_off_c, 0, 82, 20
1, 293772, Control_c, 0, 64, 95
1, 293787, Control_c, 0, 64, 95
1, 293802, Control_c, 0, 64, 94
1, 293816, Control_c, 0, 64, 94
1, 293831, Control_c, 0, 64, 93
1, 293834, Note_on_c, 0, 82, 89
1, 293846, Control_c, 0, 64, 92
1, 293861, Note_off_c, 0, 83, 64
1, 293861, Control_c, 0, 64, 91
1, 293876, Control_c, 0, 64, 90
1, 293890, Control_c, 0, 64, 89
1, 293905, Control_c, 0, 64, 88
1, 293920, Control_c, 0, 64, 87
1, 293935, Control_c, 0, 64, 87
1, 293950, Control_c, 0, 64, 86
1, 293979, Control_c, 0, 64, 86
1, 294008, Control_c, 0, 64, 85
1, 294023, Control_c, 0, 64, 85
1, 294038, Control_c, 0, 64, 84
1, 294053, Control_c, 0, 64, 83
1, 294068, Control_c, 0, 64, 83
1, 294082, Control_c, 0, 64, 82
1, 294091, Note_on_c, 0, 85, 90
1, 294098, Control_c, 0, 64, 81
1, 294113, Control_c, 0, 64, 80
1, 294128, Control_c, 0, 64, 77
1, 294143, Control_c, 0, 64, 73
1, 294157, Control_c, 0, 64, 69
1, 294172, Control_c, 0, 64, 65
1, 294187, Control_c, 0, 64, 61
1, 294202, Control_c, 0, 64, 53
1, 294202, Control_c, 0, 67, 8
1, 294204, Note_off_c, 0, 82, 57
1, 294224, Control_c, 0, 64, 54
1, 294239, Control_c, 0, 64, 62
1, 294254, Control_c, 0, 64, 66
1, 294269, Control_c, 0, 64, 69
1, 294269, Control_c, 0, 67, 8
1, 294284, Control_c, 0, 64, 72
1, 294298, Control_c, 0, 64, 76
1, 294298, Control_c, 0, 67, 9
1, 294308, Note_on_c, 0, 42, 52
1, 294313, Control_c, 0, 64, 84
1, 294313, Control_c, 0, 67, 10
1, 294328, Control_c, 0, 64, 90
1, 294328, Control_c, 0, 67, 12
1, 294344, Control_c, 0, 64, 95
1, 294344, Control_c, 0, 67, 15
1, 294353, Poly_aftertouch_c, 0, 84, 127
1, 294359, Control_c, 0, 64, 98
1, 294359, Control_c, 0, 67, 18
1, 294374, Control_c, 0, 64, 103
1, 294374, Control_c, 0, 67, 21
1, 294388, Control_c, 0, 64, 109
1, 294388, Control_c, 0, 67, 24
1, 294403, Control_c, 0, 64, 120
1, 294403, Control_c, 0, 67, 25
1, 294418, Control_c, 0, 64, 127
1, 294418, Control_c, 0, 67, 26
1, 294433, Control_c, 0, 67, 28
1, 294447, Control_c, 0, 67, 29
1, 294462, Control_c, 0, 67, 31
1, 294477, Note_on_c, 0, 49, 46
1, 294477, Control_c, 0, 67, 33
1, 294492, Control_c, 0, 67, 34
1, 294517, Note_off_c, 0, 42, 60
1, 294545, Note_off_c, 0, 49, 63
1, 294571, Note_on_c, 0, 90, 81
1, 294581, Note_on_c, 0, 80, 54
1, 294604, Note_off_c, 0, 80, 61
1, 294627, Poly_aftertouch_c, 0, 84, 0
1, 294684, Control_c, 0, 67, 33
1, 294721, Note_on_c, 0, 82, 74
1, 294722, Note_on_c, 0, 61, 62
1, 294725, Note_on_c, 0, 78, 73
1, 294804, Note_on_c, 0, 68, 58
1, 294806, Note_off_c, 0, 78, 40
1, 294866, Note_off_c, 0, 61, 55
1, 294870, Note_on_c, 0, 69, 69
1, 294879, Note_off_c, 0, 82, 57
1, 294892, Control_c, 0, 67, 33
1, 294897, Note_off_c, 0, 69, 65
1, 294906, Control_c, 0, 67, 32
1, 294910, Note_off_c, 0, 68, 60
1, 294921, Control_c, 0, 67, 32
1, 294936, Control_c, 0, 67, 31
1, 294951, Control_c, 0, 67, 30
1, 294973, Control_c, 0, 67, 30
1, 294988, Control_c, 0, 67, 29
1, 295003, Control_c, 0, 67, 28
1, 295018, Control_c, 0, 67, 26
1, 295033, Note_on_c, 0, 70, 73
1, 295033, Control_c, 0, 67, 24
1, 295047, Control_c, 0, 67, 22
1, 295048, Note_on_c, 0, 66, 56
1, 295059, Note_off_c, 0, 70, 64
1, 295062, Control_c, 0, 67, 19
1, 295069, Note_on_c, 0, 82, 64
1, 295077, Control_c, 0, 67, 15
1, 295085, Note_off_c, 0, 66, 62
1, 295087, Note_on_c, 0, 78, 63
1, 295092, Control_c, 0, 67, 9
1, 295107, Control_c, 0, 67, 0
1, 295173, Note_off_c, 0, 90, 58
1, 295202, Note_off_c, 0, 78, 56
1, 295280, Note_off_c, 0, 85, 42
1, 295426, Note_on_c, 0, 42, 58
1, 295477, Control_c, 0, 64, 99
1, 295492, Control_c, 0, 64, 83
1, 295507, Control_c, 0, 64, 70
1, 295522, Control_c, 0, 64, 62
1, 295536, Control_c, 0, 64, 63
1, 295551, Control_c, 0, 64, 70
1, 295560, Note_on_c, 0, 49, 60
1, 295566, Control_c, 0, 64, 81
1, 295572, Note_on_c, 0, 89, 88
1, 295581, Control_c, 0, 64, 100
1, 295581, Note_on_c, 0, 80, 74
1, 295596, Note_off_c, 0, 42, 63
1, 295596, Control_c, 0, 64, 127
1, 295599, Note_on_c, 0, 77, 48
1, 295618, Note_off_c, 0, 82, 61
1, 295620, Note_off_c, 0, 49, 61
1, 295623, Note_off_c, 0, 77, 59
1, 295638, Note_on_c, 0, 84, 21
1, 295650, Poly_aftertouch_c, 0, 85, 127
1, 295672, Poly_aftertouch_c, 0, 85, 0
1, 295682, Note_off_c, 0, 84, 40
1, 295746, Note_on_c, 0, 82, 73
1, 295747, Note_on_c, 0, 60, 64
1, 295763, Note_on_c, 0, 78, 50
1, 295792, Note_off_c, 0, 60, 59
1, 295825, Note_on_c, 0, 66, 56
1, 295875, Note_off_c, 0, 66, 48
1, 295885, Note_off_c, 0, 78, 37
1, 295906, Poly_aftertouch_c, 0, 84, 127
1, 295913, Note_on_c, 0, 68, 71
1, 295920, Note_off_c, 0, 82, 61
1, 295951, Note_off_c, 0, 68, 60
1, 296011, Note_on_c, 0, 82, 74
1, 296016, Note_on_c, 0, 70, 65
1, 296019, Note_on_c, 0, 65, 60
1, 296024, Note_on_c, 0, 78, 47
1, 296033, Note_off_c, 0, 89, 39
1, 296048, Note_off_c, 0, 70, 62
1, 296073, Note_off_c, 0, 65, 59
1, 296168, Note_off_c, 0, 80, 34
1, 296201, Poly_aftertouch_c, 0, 84, 0
1, 296241, Control_c, 0, 67, 8
1, 296256, Control_c, 0, 67, 10
1, 296271, Control_c, 0, 67, 12
1, 296285, Control_c, 0, 67, 13
1, 296300, Control_c, 0, 67, 16
1, 296315, Control_c, 0, 67, 19
1, 296330, Control_c, 0, 67, 22
1, 296335, Note_on_c, 0, 42, 65
1, 296345, Control_c, 0, 67, 25
1, 296359, Control_c, 0, 67, 28
1, 296365, Note_off_c, 0, 82, 61
1, 296374, Control_c, 0, 67, 31
1, 296389, Control_c, 0, 64, 102
1, 296389, Control_c, 0, 67, 33
1, 296396, Note_off_c, 0, 78, 57
1, 296404, Control_c, 0, 64, 84
1, 296404, Control_c, 0, 67, 35
1, 296419, Control_c, 0, 64, 70
1, 296419, Control_c, 0, 67, 36
1, 296434, Control_c, 0, 64, 56
1, 296434, Control_c, 0, 67, 37
1, 296449, Note_on_c, 0, 87, 83
1, 296449, Control_c, 0, 64, 46
1, 296449, Control_c, 0, 67, 38
1, 296451, Note_on_c, 0, 49, 53
1, 296469, Note_on_c, 0, 77, 58
1, 296471, Control_c, 0, 64, 61
1, 296471, Control_c, 0, 67, 38
1, 296483, Note_off_c, 0, 42, 62
1, 296484, Note_on_c, 0, 75, 55
1, 296485, Note_on_c, 0, 80, 59
1, 296485, Control_c, 0, 64, 66
1, 296485, Control_c, 0, 67, 39
1, 296498, Note_off_c, 0, 77, 58
1, 296500, Control_c, 0, 64, 72
1, 296500, Control_c, 0, 67, 39
1, 296513, Note_off_c, 0, 49, 64
1, 296515, Control_c, 0, 64, 79
1, 296530, Control_c, 0, 64, 85
1, 296545, Control_c, 0, 64, 90
1, 296559, Control_c, 0, 64, 93
1, 296574, Control_c, 0, 64, 93
1, 296623, Note_on_c, 0, 59, 69
1, 296633, Control_c, 0, 64, 92
1, 296640, Note_on_c, 0, 82, 69
1, 296648, Control_c, 0, 64, 89
1, 296653, Note_on_c, 0, 78, 55
1, 296663, Control_c, 0, 64, 83
1, 296678, Control_c, 0, 64, 75
1, 296683, Note_off_c, 0, 59, 0
1, 296693, Control_c, 0, 64, 71
1, 296708, Control_c, 0, 67, 40
1, 296723, Control_c, 0, 64, 75
1, 296738, Control_c, 0, 64, 80
1, 296750, Note_on_c, 0, 65, 61
1, 296753, Control_c, 0, 64, 85
1, 296766, Poly_aftertouch_c, 0, 59, 0
1, 296768, Control_c, 0, 64, 89
1, 296768, Control_c, 0, 67, 40
1, 296782, Control_c, 0, 64, 92
1, 296796, Note_off_c, 0, 80, 56
1, 296797, Control_c, 0, 64, 93
1, 296797, Control_c, 0, 67, 41
1, 296810, Note_off_c, 0, 78, 58
1, 296827, Control_c, 0, 67, 41
1, 296842, Note_on_c, 0, 68, 62
1, 296847, Note_off_c, 0, 82, 57
1, 296857, Control_c, 0, 67, 42
1, 296872, Control_c, 0, 67, 43
1, 296887, Control_c, 0, 67, 45
1, 296902, Note_off_c, 0, 68, 61
1, 296902, Control_c, 0, 67, 46
1, 296905, Note_off_c, 0, 65, 39
1, 296916, Control_c, 0, 67, 48
1, 296931, Control_c, 0, 67, 49
1, 296946, Control_c, 0, 67, 50
1, 296961, Control_c, 0, 67, 51
1, 296967, Note_on_c, 0, 82, 61
1, 296976, Control_c, 0, 64, 93
1, 296976, Control_c, 0, 67, 52
1, 296990, Control_c, 0, 64, 92
1, 296990, Control_c, 0, 67, 54
1, 297000, Note_on_c, 0, 78, 43
1, 297004, Note_on_c, 0, 70, 55
1, 297005, Control_c, 0, 64, 92
1, 297005, Control_c, 0, 67, 55
1, 297012, Note_on_c, 0, 63, 54
1, 297012, Note_on_c, 0, 66, 56
1, 297020, Control_c, 0, 67, 56
1, 297034, Control_c, 0, 67, 57
1, 297042, Note_off_c, 0, 70, 46
1, 297049, Control_c, 0, 64, 91
1, 297049, Control_c, 0, 67, 59
1, 297064, Control_c, 0, 67, 60
1, 297079, Control_c, 0, 64, 91
1, 297079, Control_c, 0, 67, 62
1, 297091, Note_off_c, 0, 63, 38
1, 297094, Control_c, 0, 64, 90
1, 297094, Control_c, 0, 67, 64
1, 297107, Note_off_c, 0, 66, 34
1, 297108, Control_c, 0, 64, 90
1, 297108, Control_c, 0, 67, 67
1, 297119, Note_off_c, 0, 87, 50
1, 297123, Control_c, 0, 64, 89
1, 297123, Control_c, 0, 67, 69
1, 297138, Control_c, 0, 64, 89
1, 297138, Control_c, 0, 67, 72
1, 297152, Control_c, 0, 67, 75
1, 297167, Control_c, 0, 64, 88
1, 297167, Control_c, 0, 67, 78
1, 297182, Control_c, 0, 64, 88
1, 297182, Control_c, 0, 67, 82
1, 297197, Control_c, 0, 64, 87
1, 297197, Control_c, 0, 67, 85
1, 297220, Control_c, 0, 64, 87
1, 297220, Control_c, 0, 67, 88
1, 297234, Control_c, 0, 64, 86
1, 297234, Control_c, 0, 67, 91
1, 297249, Control_c, 0, 64, 85
1, 297249, Control_c, 0, 67, 93
1, 297264, Control_c, 0, 64, 85
1, 297264, Control_c, 0, 67, 95
1, 297267, Note_off_c, 0, 78, 37
1, 297279, Control_c, 0, 64, 84
1, 297279, Control_c, 0, 67, 97
1, 297294, Control_c, 0, 64, 84
1, 297294, Control_c, 0, 67, 100
1, 297308, Control_c, 0, 64, 83
1, 297308, Control_c, 0, 67, 103
1, 297323, Control_c, 0, 67, 105
1, 297338, Control_c, 0, 64, 83
1, 297338, Control_c, 0, 67, 108
1, 297353, Control_c, 0, 67, 110
1, 297367, Control_c, 0, 64, 82
1, 297367, Control_c, 0, 67, 111
1, 297382, Control_c, 0, 64, 81
1, 297382, Control_c, 0, 67, 112
1, 297397, Control_c, 0, 67, 113
1, 297412, Note_off_c, 0, 75, 58
1, 297412, Control_c, 0, 64, 81
1, 297412, Control_c, 0, 67, 114
1, 297427, Control_c, 0, 67, 115
1, 297441, Control_c, 0, 64, 80
1, 297441, Control_c, 0, 67, 116
1, 297456, Control_c, 0, 67, 117
1, 297465, Note_on_c, 0, 42, 48
1, 297471, Control_c, 0, 67, 117
1, 297486, Control_c, 0, 64, 80
1, 297486, Control_c, 0, 67, 118
1, 297501, Control_c, 0, 64, 79
1, 297501, Control_c, 0, 67, 119
1, 297516, Control_c, 0, 64, 77
1, 297516, Control_c, 0, 67, 119
1, 297531, Control_c, 0, 64, 74
1, 297531, Control_c, 0, 67, 121
1, 297546, Control_c, 0, 64, 67
1, 297546, Control_c, 0, 67, 122
1, 297561, Control_c, 0, 64, 50
1, 297561, Control_c, 0, 67, 123
1, 297576, Control_c, 0, 64, 0
1, 297576, Control_c, 0, 67, 123
1, 297592, Note_on_c, 0, 49, 47
1, 297612, Note_on_c, 0, 85, 69
1, 297621, Note_on_c, 0, 80, 51
1, 297635, Note_on_c, 0, 73, 40
1, 297635, Control_c, 0, 67, 124
1, 297665, Control_c, 0, 64, 53
1, 297665, Control_c, 0, 67, 124
1, 297680, Control_c, 0, 64, 66
1, 297692, Note_off_c, 0, 42, 57
1, 297695, Control_c, 0, 64, 74
1, 297701, Note_off_c, 0, 49, 61
1, 297709, Control_c, 0, 64, 80
1, 297724, Control_c, 0, 64, 86
1, 297730, Note_off_c, 0, 82, 39
1, 297739, Control_c, 0, 64, 89
1, 297754, Control_c, 0, 64, 89
1, 297813, Control_c, 0, 64, 89
1, 297828, Control_c, 0, 64, 88
1, 297842, Control_c, 0, 64, 88
1, 297849, Note_on_c, 0, 58, 53
1, 297856, Control_c, 0, 64, 87
1, 297856, Control_c, 0, 67, 124
1, 297863, Note_on_c, 0, 78, 44
1, 297871, Control_c, 0, 64, 85
1, 297873, Note_on_c, 0, 82, 53
1, 297886, Control_c, 0, 64, 83
1, 297886, Control_c, 0, 67, 123
1, 297901, Control_c, 0, 64, 79
1, 297916, Control_c, 0, 64, 74
1, 297930, Control_c, 0, 64, 72
1, 297945, Control_c, 0, 64, 73
1, 297968, Control_c, 0, 64, 76
1, 297982, Control_c, 0, 64, 79
1, 297997, Control_c, 0, 64, 83
1, 298008, Note_on_c, 0, 63, 50
1, 298012, Control_c, 0, 64, 85
1, 298042, Control_c, 0, 64, 86
1, 298057, Note_off_c, 0, 58, 36
1, 298141, Note_off_c, 0, 80, 35
1, 298160, Note_on_c, 0, 68, 50
1, 298160, Note_off_c, 0, 78, 37
1, 298175, Note_off_c, 0, 82, 36
1, 298225, Note_off_c, 0, 68, 51
1, 298249, Control_c, 0, 64, 85
1, 298294, Control_c, 0, 64, 85
1, 298324, Control_c, 0, 64, 84
1, 298339, Control_c, 0, 64, 84
1, 298350, Note_off_c, 0, 63, 19
1, 298353, Control_c, 0, 64, 83
1, 298368, Control_c, 0, 64, 83
1, 298383, Control_c, 0, 64, 82
1, 298398, Control_c, 0, 64, 81
1, 298413, Control_c, 0, 64, 80
1, 298428, Control_c, 0, 64, 79
1, 298443, Control_c, 0, 64, 78
1, 298458, Control_c, 0, 64, 78
1, 298465, Note_on_c, 0, 70, 42
1, 298473, Control_c, 0, 64, 77
1, 298474, Note_on_c, 0, 82, 52
1, 298482, Note_on_c, 0, 61, 38
1, 298487, Control_c, 0, 64, 76
1, 298496, Note_on_c, 0, 78, 29
1, 298496, Note_on_c, 0, 66, 24
1, 298502, Control_c, 0, 64, 75
1, 298517, Control_c, 0, 64, 73
1, 298532, Control_c, 0, 64, 70
1, 298547, Control_c, 0, 64, 67
1, 298561, Control_c, 0, 64, 64
1, 298576, Control_c, 0, 64, 62
1, 298591, Control_c, 0, 64, 59
1, 298605, Control_c, 0, 64, 56
1, 298620, Control_c, 0, 64, 52
1, 298635, Control_c, 0, 64, 49
1, 298650, Control_c, 0, 64, 45
1, 298665, Control_c, 0, 64, 42
1, 298679, Control_c, 0, 64, 36
1, 298694, Control_c, 0, 64, 11
1, 298717, Control_c, 0, 64, 0
1, 298924, Control_c, 0, 64, 29
1, 298924, Control_c, 0, 67, 123
1, 298938, Control_c, 0, 64, 42
1, 298953, Control_c, 0, 64, 49
1, 298968, Control_c, 0, 64, 55
1, 298968, Control_c, 0, 67, 122
1, 298983, Control_c, 0, 64, 60
1, 298998, Control_c, 0, 64, 63
1, 299012, Control_c, 0, 64, 65
1, 299027, Control_c, 0, 64, 66
1, 299042, Control_c, 0, 64, 68
1, 299057, Control_c, 0, 64, 70
1, 299072, Control_c, 0, 64, 71
1, 299087, Control_c, 0, 64, 73
1, 299087, Control_c, 0, 67, 122
1, 299102, Control_c, 0, 64, 76
1, 299116, Note_off_c, 0, 73, 34
1, 299116, Control_c, 0, 64, 78
1, 299132, Control_c, 0, 64, 79
1, 299147, Control_c, 0, 64, 81
1, 299147, Control_c, 0, 67, 121
1, 299162, Control_c, 0, 64, 84
1, 299176, Control_c, 0, 64, 87
1, 299191, Control_c, 0, 64, 89
1, 299191, Control_c, 0, 67, 121
1, 299200, Note_off_c, 0, 85, 27
1, 299206, Control_c, 0, 64, 91
1, 299221, Control_c, 0, 64, 94
1, 299236, Control_c, 0, 64, 97
1, 299236, Control_c, 0, 67, 120
1, 299251, Control_c, 0, 64, 100
1, 299259, Note_off_c, 0, 78, 41
1, 299266, Control_c, 0, 64, 101
1, 299266, Control_c, 0, 67, 120
1, 299280, Control_c, 0, 64, 102
1, 299280, Control_c, 0, 67, 119
1, 299295, Control_c, 0, 64, 102
1, 299310, Control_c, 0, 64, 103
1, 299325, Control_c, 0, 64, 103
1, 299325, Control_c, 0, 67, 119
1, 299354, Control_c, 0, 67, 118
1, 299363, Note_off_c, 0, 82, 35
1, 299369, Control_c, 0, 67, 118
1, 299398, Control_c, 0, 67, 117
1, 299413, Control_c, 0, 67, 117
1, 299427, Control_c, 0, 67, 116
1, 299442, Control_c, 0, 67, 115
1, 299480, Control_c, 0, 64, 103
1, 299480, Control_c, 0, 67, 114
1, 299495, Control_c, 0, 67, 114
1, 299509, Control_c, 0, 64, 102
1, 299509, Control_c, 0, 67, 112
1, 299524, Control_c, 0, 64, 102
1, 299524, Control_c, 0, 67, 111
1, 299539, Control_c, 0, 64, 101
1, 299539, Control_c, 0, 67, 110
1, 299553, Control_c, 0, 64, 101
1, 299553, Control_c, 0, 67, 109
1, 299568, Control_c, 0, 64, 100
1, 299568, Control_c, 0, 67, 106
1, 299583, Control_c, 0, 64, 100
1, 299583, Control_c, 0, 67, 98
1, 299598, Control_c, 0, 64, 99
1, 299598, Control_c, 0, 67, 86
1, 299613, Control_c, 0, 67, 73
1, 299627, Control_c, 0, 67, 61
1, 299642, Control_c, 0, 67, 53
1, 299657, Control_c, 0, 64, 99
1, 299657, Control_c, 0, 67, 45
1, 299672, Control_c, 0, 67, 35
1, 299687, Control_c, 0, 64, 98
1, 299687, Control_c, 0, 67, 22
1, 299701, Control_c, 0, 67, 11
1, 299716, Control_c, 0, 64, 97
1, 299716, Control_c, 0, 67, 0
1, 299725, Note_off_c, 0, 70, 41
1, 299731, Control_c, 0, 64, 97
1, 299746, Control_c, 0, 64, 96
1, 299775, Control_c, 0, 64, 95
1, 299790, Control_c, 0, 64, 95
1, 299805, Control_c, 0, 64, 94
1, 299820, Control_c, 0, 64, 94
1, 299835, Control_c, 0, 64, 93
1, 299842, Note_off_c, 0, 61, 38
1, 299850, Control_c, 0, 64, 92
1, 299865, Control_c, 0, 64, 92
1, 299880, Control_c, 0, 64, 91
1, 299894, Control_c, 0, 64, 91
1, 299909, Control_c, 0, 64, 90
1, 299921, Note_off_c, 0, 66, 38
1, 299924, Control_c, 0, 64, 89
1, 299939, Control_c, 0, 64, 88
1, 299954, Control_c, 0, 64, 88
1, 299969, Control_c, 0, 64, 87
1, 299984, Control_c, 0, 64, 85
1, 299997, Note_on_c, 0, 83, 55
1, 299999, Control_c, 0, 64, 83
1, 300014, Control_c, 0, 64, 78
1, 300029, Control_c, 0, 64, 72
1, 300044, Control_c, 0, 64, 67
1, 300058, Control_c, 0, 64, 62
1, 300073, Control_c, 0, 64, 55
1, 300088, Control_c, 0, 64, 50
1, 300103, Control_c, 0, 64, 50
1, 300118, Control_c, 0, 64, 51
1, 300132, Control_c, 0, 64, 53
1, 300147, Control_c, 0, 64, 58
1, 300162, Control_c, 0, 64, 63
1, 300176, Control_c, 0, 64, 66
1, 300191, Control_c, 0, 64, 69
1, 300213, Control_c, 0, 64, 72
1, 300228, Control_c, 0, 64, 76
1, 300243, Control_c, 0, 64, 81
1, 300258, Control_c, 0, 64, 86
1, 300273, Control_c, 0, 64, 90
1, 300288, Control_c, 0, 64, 93
1, 300303, Control_c, 0, 64, 95
1, 300318, Control_c, 0, 64, 96
1, 300332, Control_c, 0, 64, 97
1, 300372, Note_off_c, 0, 83, 62
1, 300404, Note_on_c, 0, 82, 52
1, 300421, Control_c, 0, 64, 96
1, 300436, Control_c, 0, 64, 96
1, 300448, Note_off_c, 0, 82, 64
1, 300450, Control_c, 0, 64, 95
1, 300465, Control_c, 0, 64, 94
1, 300469, Note_on_c, 0, 83, 70
1, 300480, Control_c, 0, 64, 91
1, 300495, Control_c, 0, 64, 86
1, 300510, Control_c, 0, 64, 81
1, 300524, Control_c, 0, 64, 76
1, 300532, Note_on_c, 0, 82, 79
1, 300539, Control_c, 0, 64, 74
1, 300554, Control_c, 0, 64, 75
1, 300556, Note_off_c, 0, 83, 52
1, 300569, Control_c, 0, 64, 77
1, 300583, Control_c, 0, 64, 81
1, 300598, Control_c, 0, 64, 85
1, 300613, Control_c, 0, 64, 88
1, 300628, Control_c, 0, 64, 91
1, 300643, Control_c, 0, 64, 93
1, 300658, Control_c, 0, 64, 96
1, 300673, Control_c, 0, 64, 98
1, 300687, Control_c, 0, 64, 99
1, 300702, Control_c, 0, 64, 100
1, 300717, Control_c, 0, 64, 100
1, 300733, Control_c, 0, 64, 101
1, 300789, Note_on_c, 0, 80, 88
1, 300822, Control_c, 0, 64, 101
1, 300938, Note_off_c, 0, 82, 62
1, 300990, Note_on_c, 0, 78, 92
1, 301039, Note_off_c, 0, 80, 62
1, 301052, Control_c, 0, 64, 101
1, 301064, Note_off_c, 0, 78, 65
1, 301111, Control_c, 0, 64, 100
1, 301141, Control_c, 0, 64, 100
1, 301151, Note_on_c, 0, 59, 44
1, 301155, Control_c, 0, 64, 99
1, 301170, Control_c, 0, 64, 97
1, 301177, Note_on_c, 0, 63, 33
1, 301185, Control_c, 0, 64, 93
1, 301200, Control_c, 0, 64, 88
1, 301215, Control_c, 0, 64, 80
1, 301217, Note_on_c, 0, 75, 76
1, 301230, Control_c, 0, 64, 73
1, 301230, Note_on_c, 0, 70, 61
1, 301245, Control_c, 0, 64, 65
1, 301260, Control_c, 0, 64, 64
1, 301274, Control_c, 0, 64, 66
1, 301289, Control_c, 0, 64, 68
1, 301304, Control_c, 0, 64, 71
1, 301319, Control_c, 0, 64, 75
1, 301333, Control_c, 0, 64, 78
1, 301348, Control_c, 0, 64, 83
1, 301363, Control_c, 0, 64, 87
1, 301378, Control_c, 0, 64, 90
1, 301393, Control_c, 0, 64, 92
1, 301407, Control_c, 0, 64, 93
1, 301422, Control_c, 0, 64, 93
1, 301476, Note_on_c, 0, 71, 78
1, 301481, Control_c, 0, 64, 94
1, 301486, Note_on_c, 0, 58, 49
1, 301488, Note_on_c, 0, 68, 62
1, 301496, Control_c, 0, 64, 95
1, 301500, Note_off_c, 0, 70, 63
1, 301561, Note_off_c, 0, 68, 60
1, 301593, Note_off_c, 0, 59, 36
1, 301631, Note_off_c, 0, 63, 36
1, 301650, Note_off_c, 0, 75, 38
1, 301660, Control_c, 0, 64, 94
1, 301675, Control_c, 0, 64, 94
1, 301690, Control_c, 0, 64, 93
1, 301712, Control_c, 0, 64, 92
1, 301727, Note_on_c, 0, 73, 85
1, 301727, Control_c, 0, 64, 91
1, 301729, Note_on_c, 0, 59, 51
1, 301735, Note_on_c, 0, 56, 47
1, 301742, Control_c, 0, 64, 90
1, 301743, Note_on_c, 0, 65, 59
1, 301756, Control_c, 0, 64, 90
1, 301767, Note_off_c, 0, 71, 58
1, 301771, Control_c, 0, 64, 89
1, 301786, Control_c, 0, 64, 88
1, 301801, Control_c, 0, 64, 87
1, 301808, Note_off_c, 0, 58, 34
1, 301816, Control_c, 0, 64, 86
1, 301830, Control_c, 0, 64, 85
1, 301845, Control_c, 0, 64, 85
1, 301860, Control_c, 0, 64, 84
1, 301875, Control_c, 0, 64, 84
1, 301890, Note_off_c, 0, 65, 59
1, 301890, Control_c, 0, 64, 83
1, 301904, Control_c, 0, 64, 83
1, 301934, Control_c, 0, 64, 82
1, 301948, Control_c, 0, 64, 81
1, 301963, Control_c, 0, 64, 81
1, 301978, Control_c, 0, 64, 80
1, 301993, Control_c, 0, 64, 80
1, 302007, Note_off_c, 0, 59, 33
1, 302014, Note_off_c, 0, 56, 60
1, 302023, Control_c, 0, 64, 79
1, 302038, Control_c, 0, 64, 78
1, 302053, Control_c, 0, 64, 78
1, 302068, Control_c, 0, 64, 77
1, 302082, Control_c, 0, 64, 77
1, 302097, Control_c, 0, 64, 75
1, 302104, Note_on_c, 0, 58, 50
1, 302107, Note_on_c, 0, 55, 46
1, 302112, Control_c, 0, 64, 73
1, 302127, Control_c, 0, 64, 70
1, 302134, Note_on_c, 0, 63, 54
1, 302139, Note_on_c, 0, 70, 63
1, 302142, Control_c, 0, 64, 65
1, 302156, Control_c, 0, 64, 53
1, 302171, Control_c, 0, 64, 0
1, 302242, Note_off_c, 0, 73, 61
1, 302290, Control_c, 0, 64, 56
1, 302304, Control_c, 0, 64, 65
1, 302320, Control_c, 0, 64, 71
1, 302335, Control_c, 0, 64, 81
1, 302350, Control_c, 0, 64, 94
1, 302365, Note_off_c, 0, 55, 29
1, 302365, Control_c, 0, 64, 118
1, 302379, Control_c, 0, 64, 127
1, 302405, Note_off_c, 0, 58, 47
1, 302487, Note_off_c, 0, 63, 55
1, 302578, Note_off_c, 0, 70, 63
1, 302717, Note_on_c, 0, 39, 46
1, 302810, Note_on_c, 0, 46, 53
1, 302818, Note_on_c, 0, 87, 92
1, 302840, Note_on_c, 0, 77, 54
1, 302851, Note_off_c, 0, 46, 60
1, 302860, Note_off_c, 0, 77, 62
1, 302880, Note_off_c, 0, 39, 33
1, 302977, Note_on_c, 0, 79, 69
1, 302990, Note_on_c, 0, 75, 67
1, 302999, Note_on_c, 0, 58, 48
1, 303054, Note_off_c, 0, 75, 36
1, 303063, Note_on_c, 0, 65, 63
1, 303099, Note_off_c, 0, 79, 54
1, 303151, Note_on_c, 0, 66, 69
1, 303191, Note_off_c, 0, 65, 57
1, 303210, Note_off_c, 0, 66, 59
1, 303215, Note_off_c, 0, 58, 54
1, 303278, Note_on_c, 0, 67, 64
1, 303284, Note_on_c, 0, 79, 66
1, 303290, Note_on_c, 0, 63, 55
1, 303293, Note_on_c, 0, 75, 62
1, 303313, Note_off_c, 0, 67, 57
1, 303315, Note_off_c, 0, 87, 63
1, 303331, Note_off_c, 0, 63, 59
1, 303380, Note_off_c, 0, 75, 61
1, 303620, Note_on_c, 0, 39, 68
1, 303683, Control_c, 0, 64, 126
1, 303698, Control_c, 0, 64, 85
1, 303713, Control_c, 0, 64, 61
1, 303727, Control_c, 0, 64, 0
1, 303749, Note_on_c, 0, 86, 89
1, 303752, Note_on_c, 0, 46, 63
1, 303757, Control_c, 0, 64, 50
1, 303763, Note_on_c, 0, 77, 63
1, 303769, Note_on_c, 0, 74, 54
1, 303772, Control_c, 0, 64, 70
1, 303780, Note_off_c, 0, 39, 60
1, 303787, Control_c, 0, 64, 89
1, 303788, Note_off_c, 0, 79, 60
1, 303791, Note_off_c, 0, 74, 61
1, 303795, Note_off_c, 0, 46, 62
1, 303801, Control_c, 0, 64, 127
1, 303923, Note_on_c, 0, 57, 64
1, 303926, Note_on_c, 0, 79, 71
1, 303954, Note_on_c, 0, 75, 63
1, 304015, Note_on_c, 0, 63, 63
1, 304026, Poly_aftertouch_c, 0, 81, 127
1, 304033, Note_off_c, 0, 77, 39
1, 304076, Note_off_c, 0, 75, 36
1, 304086, Note_on_c, 0, 65, 65
1, 304101, Note_off_c, 0, 79, 58
1, 304115, Note_off_c, 0, 57, 53
1, 304124, Note_off_c, 0, 65, 60
1, 304166, Note_off_c, 0, 63, 59
1, 304208, Note_on_c, 0, 67, 64
1, 304221, Note_on_c, 0, 79, 67
1, 304224, Note_on_c, 0, 62, 50
1, 304237, Note_on_c, 0, 75, 50
1, 304251, Note_off_c, 0, 67, 52
1, 304257, Note_off_c, 0, 86, 53
1, 304272, Note_off_c, 0, 62, 57
1, 304314, Control_c, 0, 67, 9
1, 304329, Control_c, 0, 67, 11
1, 304343, Control_c, 0, 67, 15
1, 304350, Note_off_c, 0, 79, 57
1, 304353, Poly_aftertouch_c, 0, 81, 0
1, 304358, Control_c, 0, 67, 19
1, 304373, Control_c, 0, 67, 23
1, 304388, Control_c, 0, 67, 27
1, 304403, Control_c, 0, 67, 32
1, 304417, Control_c, 0, 67, 37
1, 304432, Control_c, 0, 67, 42
1, 304436, Note_off_c, 0, 75, 55
1, 304447, Control_c, 0, 64, 119
1, 304447, Control_c, 0, 67, 47
1, 304462, Control_c, 0, 64, 113
1, 304462, Control_c, 0, 67, 53
1, 304477, Control_c, 0, 64, 108
1, 304477, Control_c, 0, 67, 57
1, 304491, Control_c, 0, 64, 106
1, 304491, Control_c, 0, 67, 59
1, 304506, Control_c, 0, 64, 105
1, 304506, Control_c, 0, 67, 61
1, 304521, Control_c, 0, 64, 104
1, 304521, Control_c, 0, 67, 63
1, 304536, Control_c, 0, 64, 103
1, 304536, Control_c, 0, 67, 65
1, 304551, Control_c, 0, 64, 101
1, 304551, Control_c, 0, 67, 66
1, 304566, Control_c, 0, 64, 100
1, 304566, Control_c, 0, 67, 67
1, 304579, Note_on_c, 0, 39, 55
1, 304580, Control_c, 0, 64, 98
1, 304580, Control_c, 0, 67, 68
1, 304595, Control_c, 0, 64, 97
1, 304595, Control_c, 0, 67, 70
1, 304610, Control_c, 0, 64, 96
1, 304610, Control_c, 0, 67, 72
1, 304625, Control_c, 0, 64, 94
1, 304625, Control_c, 0, 67, 73
1, 304640, Control_c, 0, 64, 93
1, 304640, Control_c, 0, 67, 75
1, 304655, Control_c, 0, 64, 88
1, 304655, Control_c, 0, 67, 77
1, 304670, Control_c, 0, 64, 78
1, 304670, Control_c, 0, 67, 78
1, 304685, Control_c, 0, 64, 68
1, 304685, Control_c, 0, 67, 80
1, 304706, Control_c, 0, 64, 52
1, 304706, Control_c, 0, 67, 82
1, 304715, Note_on_c, 0, 46, 50
1, 304722, Control_c, 0, 64, 0
1, 304722, Control_c, 0, 67, 84
1, 304724, Note_on_c, 0, 84, 79
1, 304733, Note_on_c, 0, 77, 62
1, 304737, Control_c, 0, 64, 35
1, 304737, Control_c, 0, 67, 85
1, 304752, Control_c, 0, 64, 60
1, 304752, Control_c, 0, 67, 86
1, 304753, Note_on_c, 0, 72, 43
1, 304767, Control_c, 0, 64, 67
1, 304781, Control_c, 0, 64, 71
1, 304781, Control_c, 0, 67, 86
1, 304782, Note_off_c, 0, 39, 62
1, 304796, Control_c, 0, 64, 75
1, 304809, Note_off_c, 0, 46, 61
1, 304811, Control_c, 0, 64, 79
1, 304826, Control_c, 0, 64, 81
1, 304841, Control_c, 0, 64, 81
1, 304915, Control_c, 0, 64, 81
1, 304917, Note_on_c, 0, 75, 49
1, 304920, Note_on_c, 0, 79, 63
1, 304929, Control_c, 0, 64, 79
1, 304944, Control_c, 0, 64, 75
1, 304944, Control_c, 0, 67, 87
1, 304947, Note_on_c, 0, 56, 52
1, 304959, Control_c, 0, 64, 71
1, 304971, Note_off_c, 0, 77, 36
1, 304974, Control_c, 0, 64, 67
1, 304974, Control_c, 0, 67, 87
1, 304989, Control_c, 0, 64, 65
1, 305019, Control_c, 0, 64, 66
1, 305034, Control_c, 0, 64, 71
1, 305048, Control_c, 0, 64, 77
1, 305048, Control_c, 0, 67, 88
1, 305057, Note_on_c, 0, 62, 52
1, 305063, Control_c, 0, 64, 82
1, 305078, Control_c, 0, 64, 87
1, 305082, Note_off_c, 0, 75, 53
1, 305093, Control_c, 0, 64, 88
1, 305129, Note_off_c, 0, 79, 54
1, 305137, Control_c, 0, 64, 87
1, 305152, Control_c, 0, 64, 86
1, 305159, Note_on_c, 0, 65, 54
1, 305159, Note_off_c, 0, 56, 59
1, 305166, Control_c, 0, 64, 86
1, 305181, Control_c, 0, 64, 85
1, 305192, Note_off_c, 0, 65, 64
1, 305196, Control_c, 0, 64, 83
1, 305201, Note_off_c, 0, 62, 48
1, 305211, Control_c, 0, 64, 82
1, 305226, Control_c, 0, 64, 81
1, 305226, Control_c, 0, 67, 88
1, 305240, Control_c, 0, 64, 80
1, 305255, Control_c, 0, 64, 80
1, 305283, Note_on_c, 0, 79, 52
1, 305285, Note_on_c, 0, 67, 60
1, 305294, Note_on_c, 0, 63, 45
1, 305303, Note_on_c, 0, 75, 44
1, 305314, Control_c, 0, 67, 89
1, 305321, Note_on_c, 0, 60, 28
1, 305324, Note_off_c, 0, 67, 58
1, 305329, Control_c, 0, 67, 89
1, 305344, Control_c, 0, 67, 91
1, 305351, Note_off_c, 0, 63, 50
1, 305359, Control_c, 0, 67, 94
1, 305373, Control_c, 0, 67, 96
1, 305388, Control_c, 0, 67, 98
1, 305403, Control_c, 0, 67, 101
1, 305418, Control_c, 0, 67, 103
1, 305433, Control_c, 0, 67, 106
1, 305434, Note_off_c, 0, 60, 28
1, 305455, Control_c, 0, 67, 108
1, 305460, Note_off_c, 0, 84, 38
1, 305470, Control_c, 0, 67, 111
1, 305485, Control_c, 0, 67, 114
1, 305499, Control_c, 0, 67, 116
1, 305514, Control_c, 0, 67, 118
1, 305531, Control_c, 0, 67, 121
1, 305545, Control_c, 0, 67, 122
1, 305560, Control_c, 0, 67, 124
1, 305573, Note_off_c, 0, 72, 49
1, 305575, Control_c, 0, 67, 125
1, 305590, Control_c, 0, 67, 126
1, 305604, Control_c, 0, 64, 79
1, 305604, Control_c, 0, 67, 127
1, 305619, Control_c, 0, 67, 127
1, 305634, Control_c, 0, 64, 79
1, 305649, Control_c, 0, 64, 78
1, 305664, Control_c, 0, 64, 78
1, 305671, Note_off_c, 0, 75, 53
1, 305678, Control_c, 0, 64, 77
1, 305708, Control_c, 0, 64, 77
1, 305723, Control_c, 0, 64, 76
1, 305738, Control_c, 0, 64, 76
1, 305752, Control_c, 0, 64, 75
1, 305767, Control_c, 0, 64, 74
1, 305782, Control_c, 0, 64, 73
1, 305797, Control_c, 0, 64, 72
1, 305812, Control_c, 0, 64, 71
1, 305815, Note_on_c, 0, 39, 40
1, 305826, Control_c, 0, 64, 71
1, 305841, Control_c, 0, 64, 70
1, 305856, Control_c, 0, 64, 70
1, 305871, Control_c, 0, 64, 69
1, 305886, Control_c, 0, 64, 68
1, 305901, Control_c, 0, 64, 66
1, 305915, Control_c, 0, 64, 63
1, 305927, Note_on_c, 0, 46, 39
1, 305930, Control_c, 0, 64, 54
1, 305942, Note_on_c, 0, 82, 63
1, 305945, Control_c, 0, 64, 0
1, 305958, Note_on_c, 0, 70, 41
1, 305959, Note_on_c, 0, 77, 44
1, 305963, Note_on_c, 0, 74, 33
1, 306019, Note_off_c, 0, 79, 34
1, 306049, Control_c, 0, 64, 57
1, 306063, Control_c, 0, 64, 68
1, 306078, Control_c, 0, 64, 75
1, 306085, Note_off_c, 0, 39, 55
1, 306092, Note_off_c, 0, 74, 42
1, 306093, Control_c, 0, 64, 83
1, 306108, Control_c, 0, 64, 89
1, 306122, Control_c, 0, 64, 92
1, 306134, Note_off_c, 0, 46, 51
1, 306291, Note_on_c, 0, 75, 35
1, 306293, Control_c, 0, 64, 91
1, 306301, Note_on_c, 0, 55, 47
1, 306302, Note_on_c, 0, 79, 47
1, 306308, Control_c, 0, 64, 90
1, 306324, Control_c, 0, 64, 90
1, 306339, Control_c, 0, 64, 89
1, 306368, Control_c, 0, 64, 89
1, 306383, Control_c, 0, 64, 88
1, 306398, Control_c, 0, 64, 88
1, 306408, Note_off_c, 0, 77, 23
1, 306427, Control_c, 0, 64, 87
1, 306447, Note_on_c, 0, 60, 46
1, 306457, Control_c, 0, 64, 87
1, 306472, Control_c, 0, 64, 86
1, 306478, Note_off_c, 0, 75, 42
1, 306497, Note_off_c, 0, 79, 38
1, 306501, Control_c, 0, 64, 86
1, 306516, Control_c, 0, 64, 85
1, 306531, Control_c, 0, 64, 84
1, 306545, Control_c, 0, 64, 84
1, 306560, Control_c, 0, 64, 83
1, 306613, Note_on_c, 0, 65, 51
1, 306617, Note_off_c, 0, 55, 33
1, 306664, Control_c, 0, 64, 83
1, 306677, Note_off_c, 0, 65, 52
1, 306709, Control_c, 0, 64, 82
1, 306738, Note_off_c, 0, 60, 31
1, 306768, Control_c, 0, 64, 82
1, 306798, Control_c, 0, 64, 81
1, 306828, Control_c, 0, 64, 80
1, 306843, Control_c, 0, 64, 80
1, 306858, Control_c, 0, 64, 79
1, 306873, Control_c, 0, 64, 78
1, 306887, Control_c, 0, 64, 77
1, 306902, Control_c, 0, 64, 75
1, 306910, Note_on_c, 0, 79, 40
1, 306917, Control_c, 0, 64, 74
1, 306925, Note_on_c, 0, 75, 32
1, 306932, Control_c, 0, 64, 73
1, 306945, Note_on_c, 0, 67, 35
1, 306948, Note_on_c, 0, 58, 33
1, 306953, Control_c, 0, 64, 71
1, 306955, Note_on_c, 0, 63, 29
1, 306968, Control_c, 0, 64, 69
1, 306983, Control_c, 0, 64, 68
1, 306998, Control_c, 0, 64, 66
1, 307013, Control_c, 0, 64, 64
1, 307028, Control_c, 0, 64, 64
1, 307043, Control_c, 0, 64, 62
1, 307058, Control_c, 0, 64, 60
1, 307073, Control_c, 0, 64, 56
1, 307087, Control_c, 0, 64, 50
1, 307102, Control_c, 0, 64, 38
1, 307117, Control_c, 0, 64, 23
1, 307132, Control_c, 0, 64, 0
1, 307384, Control_c, 0, 64, 11
1, 307399, Control_c, 0, 64, 37
1, 307414, Control_c, 0, 64, 47
1, 307429, Control_c, 0, 64, 53
1, 307443, Control_c, 0, 64, 57
1, 307458, Control_c, 0, 64, 61
1, 307473, Control_c, 0, 64, 63
1, 307488, Control_c, 0, 64, 65
1, 307503, Control_c, 0, 64, 66
1, 307517, Control_c, 0, 64, 67
1, 307532, Control_c, 0, 64, 68
1, 307547, Control_c, 0, 64, 69
1, 307561, Control_c, 0, 64, 71
1, 307576, Control_c, 0, 64, 73
1, 307591, Control_c, 0, 64, 75
1, 307606, Control_c, 0, 64, 77
1, 307621, Control_c, 0, 64, 78
1, 307635, Control_c, 0, 64, 80
1, 307650, Control_c, 0, 64, 83
1, 307665, Control_c, 0, 64, 84
1, 307676, Note_off_c, 0, 70, 30
1, 307680, Control_c, 0, 64, 86
1, 307701, Control_c, 0, 64, 87
1, 307716, Control_c, 0, 64, 88
1, 307731, Control_c, 0, 64, 90
1, 307746, Control_c, 0, 64, 91
1, 307757, Note_off_c, 0, 82, 31
1, 307761, Control_c, 0, 64, 92
1, 307776, Control_c, 0, 64, 93
1, 307791, Control_c, 0, 64, 93
1, 307806, Control_c, 0, 64, 96
1, 307815, Note_off_c, 0, 75, 34
1, 307821, Control_c, 0, 64, 99
1, 307827, Note_off_c, 0, 79, 28
1, 307836, Control_c, 0, 64, 102
1, 307850, Control_c, 0, 64, 104
1, 307865, Control_c, 0, 64, 105
1, 307880, Control_c, 0, 64, 106
1, 307894, Control_c, 0, 64, 106
1, 307909, Control_c, 0, 64, 107
1, 308103, Control_c, 0, 64, 106
1, 308117, Control_c, 0, 64, 106
1, 308147, Control_c, 0, 64, 105
1, 308162, Control_c, 0, 64, 104
1, 308177, Control_c, 0, 64, 103
1, 308191, Control_c, 0, 64, 103
1, 308206, Control_c, 0, 64, 102
1, 308221, Control_c, 0, 64, 102
1, 308236, Control_c, 0, 64, 101
1, 308251, Control_c, 0, 64, 101
1, 308265, Control_c, 0, 64, 100
1, 308280, Control_c, 0, 64, 99
1, 308295, Control_c, 0, 64, 98
1, 308310, Control_c, 0, 64, 98
1, 308324, Control_c, 0, 64, 97
1, 308339, Control_c, 0, 64, 97
1, 308354, Control_c, 0, 64, 96
1, 308369, Control_c, 0, 64, 95
1, 308384, Control_c, 0, 64, 94
1, 308399, Control_c, 0, 64, 94
1, 308414, Control_c, 0, 64, 93
1, 308429, Control_c, 0, 64, 93
1, 308451, Control_c, 0, 64, 92
1, 308465, Control_c, 0, 64, 92
1, 308480, Control_c, 0, 64, 91
1, 308495, Control_c, 0, 64, 91
1, 308510, Control_c, 0, 64, 90
1, 308513, Note_off_c, 0, 67, 32
1, 308524, Control_c, 0, 64, 90
1, 308539, Control_c, 0, 64, 89
1, 308554, Control_c, 0, 64, 89
1, 308554, Control_c, 0, 67, 127
1, 308569, Control_c, 0, 64, 88
1, 308569, Control_c, 0, 67, 126
1, 308584, Control_c, 0, 64, 88
1, 308584, Control_c, 0, 67, 125
1, 308599, Control_c, 0, 64, 87
1, 308599, Control_c, 0, 67, 123
1, 308614, Control_c, 0, 67, 122
1, 308629, Control_c, 0, 64, 87
1, 308629, Control_c, 0, 67, 119
1, 308643, Control_c, 0, 67, 115
1, 308650, Note_on_c, 0, 80, 55
1, 308658, Control_c, 0, 67, 110
1, 308673, Control_c, 0, 64, 85
1, 308673, Control_c, 0, 67, 105
1, 308676, Note_off_c, 0, 58, 38
1, 308688, Control_c, 0, 64, 83
1, 308688, Control_c, 0, 67, 100
1, 308703, Control_c, 0, 64, 77
1, 308703, Control_c, 0, 67, 95
1, 308718, Control_c, 0, 64, 69
1, 308718, Control_c, 0, 67, 89
1, 308733, Control_c, 0, 64, 62
1, 308733, Control_c, 0, 67, 82
1, 308748, Control_c, 0, 64, 35
1, 308748, Control_c, 0, 67, 73
1, 308763, Control_c, 0, 64, 21
1, 308763, Control_c, 0, 67, 64
1, 308769, Note_off_c, 0, 63, 38
1, 308778, Control_c, 0, 64, 34
1, 308778, Control_c, 0, 67, 56
1, 308792, Control_c, 0, 64, 51
1, 308792, Control_c, 0, 67, 49
1, 308807, Control_c, 0, 64, 63
1, 308807, Control_c, 0, 67, 40
1, 308822, Control_c, 0, 64, 67
1, 308822, Control_c, 0, 67, 30
1, 308837, Control_c, 0, 64, 74
1, 308837, Control_c, 0, 67, 21
1, 308852, Control_c, 0, 64, 84
1, 308852, Control_c, 0, 67, 12
1, 308867, Control_c, 0, 64, 95
1, 308867, Control_c, 0, 67, 0
1, 308882, Control_c, 0, 64, 106
1, 308896, Control_c, 0, 64, 123
1, 308911, Control_c, 0, 64, 127
1, 309049, Note_off_c, 0, 80, 59
1, 309073, Note_on_c, 0, 79, 52
1, 309122, Note_off_c, 0, 79, 58
1, 309145, Note_on_c, 0, 80, 62
1, 309215, Note_on_c, 0, 79, 70
1, 309266, Note_off_c, 0, 80, 37
1, 309516, Note_on_c, 0, 77, 79
1, 309746, Note_on_c, 0, 75, 83
1, 309766, Note_off_c, 0, 79, 54
1, 309813, Note_off_c, 0, 77, 61
1, 309861, Note_off_c, 0, 75, 63
1, 309909, Note_on_c, 0, 63, 53
1, 309990, Note_on_c, 0, 72, 80
1, 310010, Note_on_c, 0, 67, 61
1, 310262, Note_on_c, 0, 62, 64
1, 310264, Note_on_c, 0, 70, 87
1, 310277, Note_off_c, 0, 67, 58
1, 310292, Note_off_c, 0, 63, 46
1, 310501, Note_off_c, 0, 72, 40
1, 310535, Note_off_c, 0, 62, 52
1, 310537, Note_on_c, 0, 61, 63
1, 310558, Note_on_c, 0, 67, 82
1, 310583, Note_on_c, 0, 63, 53
1, 310587, Note_off_c, 0, 61, 52
1, 310672, Note_off_c, 0, 70, 54
1, 310754, Note_off_c, 0, 67, 60
1, 310845, Note_off_c, 0, 63, 40
1, 310898, Note_on_c, 0, 39, 49
1, 311033, Note_on_c, 0, 60, 68
1, 311062, Note_on_c, 0, 55, 39
1, 311076, Note_on_c, 0, 58, 33
1, 311171, Control_c, 0, 64, 96
1, 311186, Control_c, 0, 64, 76
1, 311201, Control_c, 0, 64, 46
1, 311216, Control_c, 0, 64, 0
1, 311290, Control_c, 0, 64, 66
1, 311305, Control_c, 0, 64, 85
1, 311320, Control_c, 0, 64, 127
1, 311421, Note_off_c, 0, 39, 51
1, 311436, Note_off_c, 0, 55, 56
1, 311472, Note_off_c, 0, 58, 50
1, 311480, Note_on_c, 0, 48, 52
1, 311523, Note_off_c, 0, 48, 57
1, 311550, Note_off_c, 0, 60, 59
1, 311688, Note_on_c, 0, 58, 58
1, 311840, Note_on_c, 0, 60, 57
1, 311988, Note_on_c, 0, 67, 62
1, 312033, Note_off_c, 0, 60, 37
1, 312069, Note_on_c, 0, 94, 81
1, 312069, Note_off_c, 0, 67, 56
1, 312307, Note_on_c, 0, 92, 21
1, 312353, Note_off_c, 0, 92, 48
1, 312370, Note_off_c, 0, 94, 64
1, 312421, Note_on_c, 0, 93, 88
1, 312441, Note_on_c, 0, 84, 59
1, 312492, Note_off_c, 0, 58, 59
1, 312515, Note_on_c, 0, 60, 56
1, 312566, Note_off_c, 0, 84, 62
1, 312579, Note_off_c, 0, 60, 61
1, 312608, Note_on_c, 0, 58, 50
1, 312632, Note_off_c, 0, 58, 60
1, 312649, Note_on_c, 0, 92, 91
1, 312665, Note_on_c, 0, 83, 64
1, 312689, Note_off_c, 0, 93, 63
1, 312697, Note_off_c, 0, 83, 60
1, 312730, Note_on_c, 0, 48, 63
1, 312775, Note_off_c, 0, 48, 55
1, 312799, Note_off_c, 0, 92, 60
1, 312832, Control_c, 0, 64, 126
1, 312835, Note_on_c, 0, 91, 94
1, 312837, Note_on_c, 0, 39, 63
1, 312847, Note_on_c, 0, 83, 70
1, 312847, Control_c, 0, 64, 88
1, 312861, Control_c, 0, 64, 75
1, 312876, Control_c, 0, 64, 73
1, 312891, Control_c, 0, 64, 78
1, 312906, Control_c, 0, 64, 85
1, 312921, Control_c, 0, 64, 94
1, 312943, Control_c, 0, 64, 111
1, 312958, Control_c, 0, 64, 127
1, 313050, Note_off_c, 0, 91, 61
1, 313062, Note_on_c, 0, 84, 83
1, 313063, Note_on_c, 0, 82, 77
1, 313076, Note_off_c, 0, 83, 58
1, 313124, Note_off_c, 0, 39, 36
1, 313141, Note_off_c, 0, 82, 63
1, 313155, Note_on_c, 0, 48, 60
1, 313184, Note_off_c, 0, 48, 63
1, 313306, Note_on_c, 0, 79, 76
1, 313339, Note_on_c, 0, 58, 59
1, 313422, Note_off_c, 0, 84, 58
1, 313439, Note_on_c, 0, 60, 58
1, 313536, Control_c, 0, 64, 102
1, 313551, Control_c, 0, 64, 89
1, 313554, Note_on_c, 0, 67, 53
1, 313559, Note_off_c, 0, 60, 52
1, 313566, Control_c, 0, 64, 78
1, 313568, Note_on_c, 0, 83, 74
1, 313581, Control_c, 0, 64, 71
1, 313589, Note_on_c, 0, 72, 43
1, 313595, Control_c, 0, 64, 69
1, 313596, Note_off_c, 0, 67, 56
1, 313607, Note_off_c, 0, 79, 57
1, 313610, Control_c, 0, 64, 73
1, 313625, Control_c, 0, 64, 78
1, 313640, Control_c, 0, 64, 86
1, 313655, Control_c, 0, 64, 95
1, 313670, Control_c, 0, 64, 104
1, 313692, Control_c, 0, 64, 114
1, 313707, Control_c, 0, 64, 127
1, 313820, Note_on_c, 0, 82, 80
1, 313862, Note_off_c, 0, 58, 47
1, 313870, Control_c, 0, 67, 8
1, 313874, Note_off_c, 0, 83, 61
1, 313884, Note_off_c, 0, 72, 53
1, 313884, Control_c, 0, 67, 9
1, 313899, Control_c, 0, 67, 10
1, 313914, Control_c, 0, 67, 12
1, 313929, Control_c, 0, 67, 13
1, 313932, Note_on_c, 0, 60, 55
1, 313934, Note_off_c, 0, 82, 65
1, 313943, Control_c, 0, 67, 15
1, 313958, Control_c, 0, 67, 16
1, 313973, Control_c, 0, 67, 17
1, 313988, Control_c, 0, 67, 18
1, 314001, Note_off_c, 0, 60, 50
1, 314003, Control_c, 0, 67, 19
1, 314018, Control_c, 0, 67, 20
1, 314033, Control_c, 0, 67, 21
1, 314048, Control_c, 0, 67, 22
1, 314048, Note_on_c, 0, 81, 61
1, 314054, Note_on_c, 0, 71, 53
1, 314058, Note_on_c, 0, 58, 47
1, 314062, Control_c, 0, 67, 23
1, 314067, Note_on_c, 0, 79, 60
1, 314077, Control_c, 0, 67, 24
1, 314083, Note_off_c, 0, 81, 0
1, 314083, Note_on_c, 0, 81, 30
1, 314087, Note_off_c, 0, 58, 59
1, 314092, Control_c, 0, 67, 25
1, 314104, Note_off_c, 0, 79, 0
1, 314104, Note_on_c, 0, 79, 39
1, 314107, Control_c, 0, 67, 25
1, 314107, Note_off_c, 0, 81, 51
1, 314122, Control_c, 0, 67, 26
1, 314136, Control_c, 0, 67, 26
1, 314151, Control_c, 0, 67, 27
1, 314166, Control_c, 0, 67, 27
1, 314181, Control_c, 0, 67, 28
1, 314196, Control_c, 0, 67, 28
1, 314210, Control_c, 0, 67, 29
1, 314225, Control_c, 0, 67, 31
1, 314234, Note_on_c, 0, 48, 44
1, 314240, Control_c, 0, 67, 33
1, 314254, Control_c, 0, 67, 34
1, 314269, Control_c, 0, 67, 34
1, 314300, Control_c, 0, 67, 35
1, 314316, Note_on_c, 0, 40, 54
1, 314389, Control_c, 0, 67, 35
1, 314403, Note_on_c, 0, 72, 60
1, 314404, Control_c, 0, 67, 36
1, 314417, Note_off_c, 0, 79, 37
1, 314417, Note_on_c, 0, 70, 52
1, 314419, Control_c, 0, 64, 113
1, 314419, Control_c, 0, 67, 37
1, 314441, Control_c, 0, 64, 92
1, 314441, Control_c, 0, 67, 40
1, 314456, Control_c, 0, 64, 69
1, 314456, Control_c, 0, 67, 41
1, 314471, Control_c, 0, 64, 0
1, 314471, Control_c, 0, 67, 42
1, 314485, Control_c, 0, 67, 42
1, 314508, Note_off_c, 0, 71, 54
1, 314545, Control_c, 0, 64, 70
1, 314545, Control_c, 0, 67, 42
1, 314559, Control_c, 0, 64, 97
1, 314559, Control_c, 0, 67, 41
1, 314574, Control_c, 0, 64, 127
1, 314574, Control_c, 0, 67, 41
1, 314575, Note_off_c, 0, 48, 35
1, 314589, Control_c, 0, 67, 40
1, 314604, Control_c, 0, 67, 39
1, 314619, Control_c, 0, 67, 39
1, 314624, Note_off_c, 0, 70, 63
1, 314633, Control_c, 0, 67, 38
1, 314648, Control_c, 0, 67, 38
1, 314677, Control_c, 0, 67, 37
1, 314707, Control_c, 0, 67, 37
1, 314764, Note_on_c, 0, 67, 65
1, 314766, Note_off_c, 0, 72, 54
1, 314770, Note_on_c, 0, 60, 51
1, 314781, Control_c, 0, 67, 36
1, 314803, Note_off_c, 0, 60, 65
1, 314811, Control_c, 0, 67, 36
1, 314834, Note_off_c, 0, 67, 56
1, 314871, Control_c, 0, 67, 35
1, 314906, Note_off_c, 0, 40, 41
1, 314930, Control_c, 0, 67, 35
1, 314948, Note_on_c, 0, 48, 56
1, 314989, Control_c, 0, 67, 34
1, 314999, Note_off_c, 0, 48, 60
1, 315019, Control_c, 0, 67, 34
1, 315033, Control_c, 0, 67, 33
1, 315048, Control_c, 0, 67, 33
1, 315077, Control_c, 0, 67, 32
1, 315108, Control_c, 0, 67, 31
1, 315123, Control_c, 0, 67, 30
1, 315138, Control_c, 0, 67, 29
1, 315152, Note_on_c, 0, 55, 52
1, 315153, Control_c, 0, 67, 25
1, 315168, Control_c, 0, 67, 17
1, 315190, Control_c, 0, 67, 8
1, 315204, Control_c, 0, 67, 0
1, 315238, Note_on_c, 0, 94, 86
1, 315396, Note_on_c, 0, 60, 62
1, 315443, Note_off_c, 0, 94, 63
1, 315489, Note_off_c, 0, 55, 0
1, 315524, Note_on_c, 0, 67, 68
1, 315526, Poly_aftertouch_c, 0, 55, 127
1, 315535, Note_on_c, 0, 93, 92
1, 315548, Note_off_c, 0, 60, 55
1, 315550, Note_on_c, 0, 84, 67
1, 315580, Note_off_c, 0, 67, 60
1, 315580, Note_off_c, 0, 84, 62
1, 315664, Poly_aftertouch_c, 0, 55, 0
1, 315718, Note_on_c, 0, 92, 95
1, 315728, Note_on_c, 0, 83, 72
1, 315750, Note_off_c, 0, 83, 70
1, 315769, Note_off_c, 0, 93, 60
1, 315808, Note_on_c, 0, 60, 61
1, 315884, Note_off_c, 0, 60, 60
1, 315901, Note_on_c, 0, 55, 60
1, 315903, Note_on_c, 0, 91, 93
1, 315917, Note_on_c, 0, 82, 77
1, 315927, Note_off_c, 0, 92, 66
1, 315948, Note_off_c, 0, 91, 67
1, 315959, Note_off_c, 0, 55, 61
1, 315969, Note_off_c, 0, 82, 62
1, 316030, Note_on_c, 0, 48, 64
1, 316033, Note_on_c, 0, 49, 29
1, 316072, Note_off_c, 0, 49, 53
1, 316140, Note_on_c, 0, 84, 84
1, 316141, Note_on_c, 0, 40, 69
1, 316148, Note_off_c, 0, 48, 63
1, 316152, Note_on_c, 0, 79, 63
1, 316161, Control_c, 0, 64, 106
1, 316176, Control_c, 0, 64, 82
1, 316191, Control_c, 0, 64, 68
1, 316205, Control_c, 0, 64, 60
1, 316220, Control_c, 0, 64, 63
1, 316235, Control_c, 0, 64, 72
1, 316249, Control_c, 0, 64, 87
1, 316264, Control_c, 0, 64, 127
1, 316434, Note_off_c, 0, 40, 0
1, 316468, Note_on_c, 0, 72, 81
1, 316471, Poly_aftertouch_c, 0, 40, 0
1, 316532, Poly_aftertouch_c, 0, 80, 127
1, 316548, Note_on_c, 0, 48, 67
1, 316582, Note_off_c, 0, 48, 62
1, 316610, Note_off_c, 0, 79, 47
1, 316610, Poly_aftertouch_c, 0, 80, 0
1, 316705, Note_on_c, 0, 55, 66
1, 316730, Note_off_c, 0, 72, 38
1, 316796, Note_on_c, 0, 83, 85
1, 316808, Note_off_c, 0, 84, 55
1, 316819, Note_on_c, 0, 72, 40
1, 316875, Note_off_c, 0, 72, 0
1, 316875, Note_on_c, 0, 72, 10
1, 316911, Note_on_c, 0, 60, 63
1, 317023, Note_off_c, 0, 55, 0
1, 317038, Note_off_c, 0, 60, 58
1, 317038, Note_on_c, 0, 67, 65
1, 317060, Poly_aftertouch_c, 0, 55, 127
1, 317065, Note_on_c, 0, 82, 87
1, 317067, Note_off_c, 0, 72, 41
1, 317071, Note_off_c, 0, 67, 60
1, 317098, Note_off_c, 0, 83, 61
1, 317154, Poly_aftertouch_c, 0, 55, 0
1, 317159, Note_off_c, 0, 82, 65
1, 317255, Note_on_c, 0, 79, 79
1, 317268, Note_on_c, 0, 71, 59
1, 317350, Note_on_c, 0, 60, 54
1, 317395, Note_off_c, 0, 60, 54
1, 317466, Note_off_c, 0, 79, 53
1, 317468, Note_on_c, 0, 55, 57
1, 317486, Note_on_c, 0, 72, 77
1, 317494, Note_on_c, 0, 70, 67
1, 317499, Note_off_c, 0, 55, 62
1, 317502, Note_off_c, 0, 71, 63
1, 317558, Note_off_c, 0, 72, 61
1, 317561, Note_off_c, 0, 70, 57
1, 317600, Note_on_c, 0, 48, 56
1, 317707, Note_off_c, 0, 48, 57
1, 317746, Note_on_c, 0, 40, 43
1, 317758, Note_on_c, 0, 41, 37
1, 317796, Note_off_c, 0, 41, 45
1, 317818, Note_off_c, 0, 40, 44
1, 317822, Note_on_c, 0, 70, 75
1, 317823, Note_on_c, 0, 60, 68
1, 317912, Note_off_c, 0, 70, 64
1, 318023, Note_on_c, 0, 59, 80
1, 318067, Note_off_c, 0, 60, 56
1, 318260, Note_off_c, 0, 59, 63
1, 318273, Note_on_c, 0, 29, 59
1, 318298, Note_on_c, 0, 65, 41
1, 318398, Note_off_c, 0, 65, 29
1, 318399, Note_on_c, 0, 60, 59
1, 318404, Note_on_c, 0, 58, 61
1, 318405, Note_on_c, 0, 55, 49
1, 318452, Control_c, 0, 64, 103
1, 318467, Control_c, 0, 64, 82
1, 318481, Control_c, 0, 64, 65
1, 318496, Control_c, 0, 64, 0
1, 318659, Control_c, 0, 64, 61
1, 318674, Control_c, 0, 64, 79
1, 318689, Control_c, 0, 64, 107
1, 318704, Control_c, 0, 64, 127
1, 318810, Note_off_c, 0, 29, 36
1, 318820, Note_on_c, 0, 41, 61
1, 318823, Note_off_c, 0, 55, 57
1, 318854, Note_off_c, 0, 41, 62
1, 318912, Note_off_c, 0, 58, 59
1, 318947, Note_off_c, 0, 60, 33
1, 319023, Note_on_c, 0, 48, 62
1, 319174, Note_on_c, 0, 58, 65
1, 319332, Note_on_c, 0, 60, 59
1, 319431, Note_on_c, 0, 82, 93
1, 319496, Note_off_c, 0, 60, 39
1, 319586, Note_on_c, 0, 80, 35
1, 319673, Note_off_c, 0, 58, 38
1, 319807, Note_off_c, 0, 80, 43
1, 319811, Note_off_c, 0, 82, 61
1, 319856, Note_on_c, 0, 81, 86
1, 319873, Note_on_c, 0, 72, 61
1, 319988, Note_off_c, 0, 48, 35
1, 320053, Note_on_c, 0, 60, 55
1, 320220, Note_off_c, 0, 60, 38
1, 320221, Note_on_c, 0, 58, 56
1, 320225, Note_on_c, 0, 80, 81
1, 320278, Note_off_c, 0, 81, 59
1, 320307, Note_off_c, 0, 58, 58
1, 320319, Note_off_c, 0, 72, 55
1, 320352, Note_on_c, 0, 48, 53
1, 320421, Note_off_c, 0, 48, 61
1, 320471, Note_on_c, 0, 79, 86
1, 320475, Note_off_c, 0, 80, 64
1, 320490, Note_on_c, 0, 71, 62
1, 320564, Note_on_c, 0, 48, 54
1, 320639, Note_off_c, 0, 48, 59
1, 320666, Note_on_c, 0, 41, 58
1, 320699, Control_c, 0, 64, 120
1, 320714, Control_c, 0, 64, 98
1, 320728, Control_c, 0, 64, 83
1, 320737, Note_on_c, 0, 72, 71
1, 320743, Control_c, 0, 64, 68
1, 320749, Note_on_c, 0, 70, 60
1, 320758, Control_c, 0, 64, 51
1, 320770, Note_off_c, 0, 71, 59
1, 320773, Control_c, 0, 64, 0
1, 320788, Control_c, 0, 64, 45
1, 320803, Control_c, 0, 64, 64
1, 320817, Control_c, 0, 64, 73
1, 320832, Control_c, 0, 64, 84
1, 320838, Note_off_c, 0, 79, 37
1, 320841, Note_off_c, 0, 41, 60
1, 320847, Control_c, 0, 64, 97
1, 320857, Note_on_c, 0, 48, 62
1, 320862, Control_c, 0, 64, 109
1, 320877, Control_c, 0, 64, 126
1, 320885, Note_off_c, 0, 48, 65
1, 320892, Control_c, 0, 64, 127
1, 320959, Note_on_c, 0, 48, 67
1, 320975, Note_off_c, 0, 72, 64
1, 321058, Note_on_c, 0, 58, 64
1, 321175, Poly_aftertouch_c, 0, 50, 127
1, 321225, Note_on_c, 0, 60, 52
1, 321285, Note_off_c, 0, 60, 54
1, 321306, Note_on_c, 0, 79, 83
1, 321485, Note_off_c, 0, 58, 22
1, 321563, Poly_aftertouch_c, 0, 50, 0
1, 321650, Note_off_c, 0, 48, 26
1, 321721, Note_on_c, 0, 78, 75
1, 321774, Note_off_c, 0, 79, 57
1, 321829, Note_on_c, 0, 60, 51
1, 321832, Control_c, 0, 64, 124
1, 321847, Control_c, 0, 64, 123
1, 321861, Control_c, 0, 64, 120
1, 321876, Note_off_c, 0, 78, 63
1, 321876, Control_c, 0, 64, 118
1, 321891, Control_c, 0, 64, 117
1, 321906, Control_c, 0, 64, 116
1, 321929, Control_c, 0, 64, 114
1, 321943, Control_c, 0, 64, 113
1, 321944, Note_on_c, 0, 77, 78
1, 321955, Note_off_c, 0, 60, 53
1, 321958, Control_c, 0, 64, 113
1, 321965, Note_on_c, 0, 69, 56
1, 321973, Control_c, 0, 64, 112
1, 321977, Note_on_c, 0, 58, 52
1, 321988, Control_c, 0, 64, 111
1, 322007, Note_off_c, 0, 69, 57
1, 322017, Control_c, 0, 64, 110
1, 322028, Note_off_c, 0, 58, 49
1, 322032, Control_c, 0, 64, 110
1, 322047, Control_c, 0, 64, 109
1, 322073, Note_on_c, 0, 48, 50
1, 322076, Control_c, 0, 64, 109
1, 322091, Control_c, 0, 64, 108
1, 322106, Control_c, 0, 64, 108
1, 322136, Control_c, 0, 64, 107
1, 322142, Note_off_c, 0, 70, 52
1, 322150, Control_c, 0, 64, 107
1, 322154, Note_off_c, 0, 48, 59
1, 322161, Note_on_c, 0, 76, 79
1, 322172, Note_on_c, 0, 68, 71
1, 322180, Control_c, 0, 67, 8
1, 322195, Control_c, 0, 64, 106
1, 322195, Control_c, 0, 67, 8
1, 322210, Control_c, 0, 67, 9
1, 322224, Control_c, 0, 64, 106
1, 322228, Note_off_c, 0, 77, 37
1, 322239, Control_c, 0, 67, 10
1, 322254, Control_c, 0, 64, 105
1, 322269, Control_c, 0, 64, 104
1, 322284, Control_c, 0, 64, 104
1, 322299, Control_c, 0, 64, 103
1, 322314, Control_c, 0, 64, 102
1, 322327, Note_off_c, 0, 68, 60
1, 322329, Control_c, 0, 64, 101
1, 322329, Control_c, 0, 67, 10
1, 322344, Control_c, 0, 64, 99
1, 322359, Control_c, 0, 64, 98
1, 322359, Control_c, 0, 67, 11
1, 322365, Poly_aftertouch_c, 0, 48, 127
1, 322373, Control_c, 0, 64, 97
1, 322376, Note_on_c, 0, 41, 58
1, 322388, Control_c, 0, 64, 94
1, 322395, Poly_aftertouch_c, 0, 48, 0
1, 322403, Control_c, 0, 64, 87
1, 322418, Control_c, 0, 64, 75
1, 322433, Note_on_c, 0, 70, 65
1, 322433, Control_c, 0, 64, 62
1, 322439, Note_on_c, 0, 67, 60
1, 322448, Control_c, 0, 64, 0
1, 322466, Note_off_c, 0, 76, 58
1, 322520, Poly_aftertouch_c, 0, 75, 0
1, 322522, Control_c, 0, 64, 51
1, 322522, Control_c, 0, 67, 11
1, 322537, Control_c, 0, 64, 66
1, 322552, Control_c, 0, 64, 73
1, 322566, Control_c, 0, 64, 80
1, 322578, Note_on_c, 0, 48, 55
1, 322578, Note_off_c, 0, 41, 51
1, 322581, Control_c, 0, 64, 87
1, 322581, Control_c, 0, 67, 11
1, 322596, Control_c, 0, 64, 91
1, 322610, Note_off_c, 0, 48, 64
1, 322610, Control_c, 0, 64, 93
1, 322625, Control_c, 0, 64, 94
1, 322625, Control_c, 0, 67, 10
1, 322707, Control_c, 0, 67, 10
1, 322716, Note_on_c, 0, 48, 53
1, 322722, Control_c, 0, 64, 93
1, 322737, Control_c, 0, 64, 92
1, 322752, Control_c, 0, 64, 90
1, 322766, Control_c, 0, 64, 89
1, 322781, Control_c, 0, 64, 89
1, 322793, Note_off_c, 0, 67, 53
1, 322796, Control_c, 0, 64, 87
1, 322796, Control_c, 0, 67, 10
1, 322811, Control_c, 0, 64, 86
1, 322825, Control_c, 0, 64, 85
1, 322840, Control_c, 0, 64, 84
1, 322840, Control_c, 0, 67, 11
1, 322842, Note_on_c, 0, 58, 60
1, 322870, Control_c, 0, 64, 83
1, 322885, Control_c, 0, 64, 83
1, 322914, Control_c, 0, 64, 82
1, 322929, Control_c, 0, 67, 11
1, 322959, Control_c, 0, 64, 82
1, 323003, Control_c, 0, 64, 81
1, 323015, Note_on_c, 0, 60, 51
1, 323017, Control_c, 0, 64, 81
1, 323032, Control_c, 0, 64, 79
1, 323047, Control_c, 0, 64, 78
1, 323062, Control_c, 0, 64, 75
1, 323071, Note_on_c, 0, 75, 65
1, 323077, Control_c, 0, 64, 71
1, 323080, Note_on_c, 0, 66, 59
1, 323093, Control_c, 0, 64, 66
1, 323108, Control_c, 0, 64, 56
1, 323122, Control_c, 0, 64, 31
1, 323137, Control_c, 0, 64, 30
1, 323152, Control_c, 0, 64, 43
1, 323167, Control_c, 0, 64, 50
1, 323182, Control_c, 0, 64, 57
1, 323182, Control_c, 0, 67, 12
1, 323196, Control_c, 0, 64, 63
1, 323211, Control_c, 0, 64, 65
1, 323226, Control_c, 0, 64, 69
1, 323241, Control_c, 0, 64, 72
1, 323256, Control_c, 0, 64, 75
1, 323271, Control_c, 0, 64, 78
1, 323286, Control_c, 0, 64, 81
1, 323301, Control_c, 0, 64, 84
1, 323315, Control_c, 0, 64, 85
1, 323315, Control_c, 0, 67, 12
1, 323330, Control_c, 0, 64, 86
1, 323360, Control_c, 0, 67, 13
1, 323397, Note_off_c, 0, 60, 36
1, 323404, Control_c, 0, 67, 14
1, 323426, Control_c, 0, 67, 17
1, 323441, Control_c, 0, 67, 21
1, 323456, Control_c, 0, 67, 24
1, 323461, Note_on_c, 0, 74, 66
1, 323470, Control_c, 0, 67, 28
1, 323485, Control_c, 0, 67, 32
1, 323500, Control_c, 0, 64, 87
1, 323500, Control_c, 0, 67, 36
1, 323515, Control_c, 0, 67, 40
1, 323530, Control_c, 0, 67, 43
1, 323532, Note_off_c, 0, 48, 35
1, 323545, Control_c, 0, 67, 45
1, 323554, Note_off_c, 0, 58, 52
1, 323560, Control_c, 0, 64, 87
1, 323560, Control_c, 0, 67, 47
1, 323575, Control_c, 0, 64, 88
1, 323575, Control_c, 0, 67, 48
1, 323589, Control_c, 0, 67, 49
1, 323591, Note_on_c, 0, 60, 51
1, 323603, Note_off_c, 0, 66, 58
1, 323604, Control_c, 0, 67, 50
1, 323619, Control_c, 0, 67, 52
1, 323634, Control_c, 0, 67, 53
1, 323648, Control_c, 0, 67, 54
1, 323650, Note_off_c, 0, 75, 33
1, 323663, Control_c, 0, 67, 55
1, 323674, Note_off_c, 0, 60, 56
1, 323677, Note_on_c, 0, 73, 69
1, 323678, Control_c, 0, 67, 56
1, 323689, Note_on_c, 0, 58, 49
1, 323693, Control_c, 0, 67, 56
1, 323694, Note_on_c, 0, 65, 52
1, 323708, Control_c, 0, 67, 57
1, 323722, Control_c, 0, 67, 57
1, 323735, Note_off_c, 0, 74, 57
1, 323737, Control_c, 0, 67, 58
1, 323740, Note_off_c, 0, 58, 56
1, 323752, Control_c, 0, 67, 58
1, 323755, Note_off_c, 0, 70, 46
1, 323771, Note_off_c, 0, 65, 59
1, 323782, Control_c, 0, 67, 59
1, 323786, Note_on_c, 0, 48, 40
1, 323796, Control_c, 0, 67, 59
1, 323819, Note_off_c, 0, 48, 52
1, 323870, Control_c, 0, 64, 87
1, 323870, Control_c, 0, 67, 60
1, 323890, Note_on_c, 0, 72, 68
1, 323892, Note_on_c, 0, 64, 61
1, 323900, Note_off_c, 0, 73, 62
1, 323901, Note_on_c, 0, 48, 58
1, 323916, Control_c, 0, 64, 87
1, 323931, Control_c, 0, 67, 60
1, 323959, Note_off_c, 0, 48, 48
1, 323960, Control_c, 0, 67, 61
1, 323997, Note_on_c, 0, 41, 54
1, 324005, Control_c, 0, 67, 61
1, 324028, Note_off_c, 0, 41, 62
1, 324029, Note_off_c, 0, 64, 63
1, 324049, Control_c, 0, 67, 62
1, 324063, Control_c, 0, 67, 62
1, 324078, Control_c, 0, 67, 63
1, 324093, Control_c, 0, 67, 65
1, 324108, Control_c, 0, 67, 66
1, 324123, Control_c, 0, 67, 69
1, 324137, Control_c, 0, 67, 70
1, 324152, Control_c, 0, 67, 70
1, 324171, Note_on_c, 0, 29, 53
1, 324189, Control_c, 0, 64, 86
1, 324204, Control_c, 0, 64, 84
1, 324207, Note_off_c, 0, 72, 32
1, 324219, Control_c, 0, 64, 79
1, 324222, Note_on_c, 0, 69, 22
1, 324228, Poly_aftertouch_c, 0, 71, 127
1, 324231, Note_on_c, 0, 66, 64
1, 324233, Note_on_c, 0, 63, 52
1, 324234, Control_c, 0, 64, 69
1, 324234, Note_on_c, 0, 59, 53
1, 324248, Control_c, 0, 64, 0
1, 324257, Note_off_c, 0, 69, 31
1, 324275, Poly_aftertouch_c, 0, 71, 0
1, 324331, Note_off_c, 0, 29, 53
1, 324352, Control_c, 0, 64, 64
1, 324367, Control_c, 0, 64, 76
1, 324370, Note_on_c, 0, 41, 49
1, 324382, Control_c, 0, 64, 96
1, 324396, Control_c, 0, 64, 127
1, 324396, Control_c, 0, 67, 70
1, 324399, Note_off_c, 0, 41, 59
1, 324426, Control_c, 0, 64, 121
1, 324441, Control_c, 0, 64, 117
1, 324441, Control_c, 0, 67, 69
1, 324450, Note_off_c, 0, 63, 50
1, 324456, Control_c, 0, 64, 117
1, 324485, Control_c, 0, 64, 116
1, 324500, Control_c, 0, 67, 69
1, 324522, Note_on_c, 0, 51, 58
1, 324530, Control_c, 0, 64, 116
1, 324544, Control_c, 0, 64, 115
1, 324559, Control_c, 0, 64, 114
1, 324603, Control_c, 0, 64, 113
1, 324618, Control_c, 0, 64, 113
1, 324633, Control_c, 0, 64, 112
1, 324633, Control_c, 0, 67, 69
1, 324639, Note_on_c, 0, 54, 64
1, 324648, Control_c, 0, 64, 112
1, 324663, Control_c, 0, 64, 111
1, 324663, Control_c, 0, 67, 70
1, 324678, Control_c, 0, 64, 111
1, 324678, Control_c, 0, 67, 70
1, 324693, Control_c, 0, 64, 110
1, 324708, Control_c, 0, 64, 109
1, 324723, Control_c, 0, 64, 108
1, 324738, Control_c, 0, 64, 107
1, 324738, Control_c, 0, 67, 71
1, 324753, Control_c, 0, 64, 107
1, 324767, Control_c, 0, 64, 106
1, 324782, Control_c, 0, 64, 106
1, 324782, Control_c, 0, 67, 71
1, 324797, Control_c, 0, 64, 105
1, 324812, Control_c, 0, 64, 102
1, 324812, Control_c, 0, 67, 72
1, 324827, Control_c, 0, 64, 98
1, 324842, Control_c, 0, 64, 94
1, 324842, Control_c, 0, 67, 72
1, 324857, Control_c, 0, 64, 92
1, 324871, Control_c, 0, 64, 88
1, 324871, Control_c, 0, 67, 73
1, 324886, Control_c, 0, 64, 85
1, 324886, Control_c, 0, 67, 74
1, 324901, Control_c, 0, 64, 79
1, 324901, Control_c, 0, 67, 76
1, 324923, Control_c, 0, 64, 71
1, 324923, Control_c, 0, 67, 77
1, 324938, Control_c, 0, 64, 63
1, 324938, Control_c, 0, 67, 78
1, 324944, Note_on_c, 0, 71, 58
1, 324949, Note_on_c, 0, 63, 71
1, 324953, Control_c, 0, 64, 26
1, 324953, Control_c, 0, 67, 79
1, 324967, Control_c, 0, 64, 0
1, 324967, Control_c, 0, 67, 80
1, 324982, Control_c, 0, 67, 81
1, 325012, Control_c, 0, 67, 81
1, 325026, Control_c, 0, 67, 82
1, 325056, Control_c, 0, 64, 26
1, 325071, Control_c, 0, 64, 47
1, 325086, Control_c, 0, 64, 56
1, 325101, Control_c, 0, 64, 63
1, 325116, Control_c, 0, 64, 67
1, 325131, Control_c, 0, 64, 72
1, 325146, Control_c, 0, 64, 77
1, 325160, Control_c, 0, 64, 82
1, 325165, Note_off_c, 0, 66, 54
1, 325175, Control_c, 0, 64, 85
1, 325190, Control_c, 0, 64, 88
1, 325205, Control_c, 0, 64, 92
1, 325219, Control_c, 0, 64, 95
1, 325234, Control_c, 0, 64, 97
1, 325249, Control_c, 0, 64, 97
1, 325264, Control_c, 0, 64, 98
1, 325293, Control_c, 0, 64, 98
1, 325303, Note_off_c, 0, 59, 39
1, 325308, Control_c, 0, 64, 99
1, 325333, Note_off_c, 0, 54, 28
1, 325420, Note_on_c, 0, 70, 65
1, 325447, Note_off_c, 0, 51, 60
1, 325527, Note_on_c, 0, 54, 58
1, 325553, Note_off_c, 0, 71, 39
1, 325605, Note_off_c, 0, 54, 63
1, 325635, Control_c, 0, 64, 98
1, 325638, Note_on_c, 0, 62, 61
1, 325649, Note_on_c, 0, 51, 48
1, 325664, Poly_aftertouch_c, 0, 68, 127
1, 325672, Control_c, 0, 64, 98
1, 325702, Control_c, 0, 64, 97
1, 325715, Poly_aftertouch_c, 0, 68, 0
1, 325716, Control_c, 0, 64, 97
1, 325726, Note_off_c, 0, 51, 62
1, 325728, Note_off_c, 0, 70, 56
1, 325746, Control_c, 0, 64, 96
1, 325760, Note_on_c, 0, 41, 51
1, 325761, Control_c, 0, 64, 96
1, 325790, Control_c, 0, 64, 95
1, 325802, Note_off_c, 0, 41, 60
1, 325805, Control_c, 0, 64, 95
1, 325805, Control_c, 0, 67, 82
1, 325820, Control_c, 0, 67, 83
1, 325834, Control_c, 0, 64, 94
1, 325849, Control_c, 0, 64, 94
1, 325856, Note_on_c, 0, 69, 67
1, 325864, Control_c, 0, 64, 93
1, 325879, Control_c, 0, 64, 93
1, 325879, Control_c, 0, 67, 83
1, 325900, Note_on_c, 0, 41, 58
1, 325907, Note_off_c, 0, 62, 57
1, 325909, Control_c, 0, 64, 92
1, 325924, Control_c, 0, 64, 92
1, 325939, Control_c, 0, 64, 91
1, 325939, Control_c, 0, 67, 84
1, 325954, Control_c, 0, 64, 91
1, 325954, Control_c, 0, 67, 84
1, 325968, Control_c, 0, 64, 90
1, 325968, Control_c, 0, 67, 86
1, 325983, Control_c, 0, 64, 90
1, 325983, Control_c, 0, 67, 89
1, 325985, Note_off_c, 0, 41, 39
1, 325998, Control_c, 0, 64, 89
1, 325998, Control_c, 0, 67, 92
1, 326013, Control_c, 0, 67, 96
1, 326028, Control_c, 0, 64, 89
1, 326028, Control_c, 0, 67, 100
1, 326042, Control_c, 0, 67, 104
1, 326047, Note_on_c, 0, 29, 53
1, 326057, Control_c, 0, 64, 88
1, 326057, Control_c, 0, 67, 107
1, 326072, Control_c, 0, 64, 87
1, 326072, Control_c, 0, 67, 112
1, 326087, Control_c, 0, 64, 86
1, 326087, Control_c, 0, 67, 118
1, 326102, Control_c, 0, 64, 85
1, 326102, Control_c, 0, 67, 122
1, 326116, Control_c, 0, 64, 81
1, 326116, Control_c, 0, 67, 123
1, 326131, Control_c, 0, 64, 75
1, 326131, Control_c, 0, 67, 124
1, 326146, Control_c, 0, 64, 65
1, 326146, Control_c, 0, 67, 124
1, 326155, Note_on_c, 0, 66, 60
1, 326160, Control_c, 0, 64, 36
1, 326160, Control_c, 0, 67, 125
1, 326164, Poly_aftertouch_c, 0, 68, 127
1, 326174, Note_on_c, 0, 58, 60
1, 326175, Control_c, 0, 64, 0
1, 326175, Control_c, 0, 67, 125
1, 326190, Control_c, 0, 67, 126
1, 326193, Note_off_c, 0, 69, 55
1, 326205, Poly_aftertouch_c, 0, 68, 0
1, 326205, Control_c, 0, 67, 126
1, 326234, Control_c, 0, 67, 127
1, 326237, Note_off_c, 0, 29, 48
1, 326271, Note_on_c, 0, 41, 45
1, 326280, Control_c, 0, 64, 59
1, 326296, Control_c, 0, 64, 70
1, 326307, Note_off_c, 0, 41, 63
1, 326311, Control_c, 0, 64, 77
1, 326326, Control_c, 0, 64, 85
1, 326340, Control_c, 0, 64, 95
1, 326355, Control_c, 0, 64, 96
1, 326370, Control_c, 0, 64, 95
1, 326385, Control_c, 0, 64, 95
1, 326400, Control_c, 0, 64, 94
1, 326428, Note_off_c, 0, 58, 60
1, 326451, Note_on_c, 0, 51, 53
1, 326511, Control_c, 0, 64, 94
1, 326540, Control_c, 0, 64, 93
1, 326570, Note_on_c, 0, 54, 54
1, 326570, Control_c, 0, 64, 93
1, 326585, Control_c, 0, 64, 92
1, 326600, Control_c, 0, 64, 92
1, 326614, Control_c, 0, 64, 91
1, 326629, Control_c, 0, 64, 91
1, 326644, Control_c, 0, 64, 90
1, 326658, Control_c, 0, 64, 89
1, 326673, Control_c, 0, 64, 88
1, 326688, Control_c, 0, 64, 88
1, 326703, Control_c, 0, 64, 87
1, 326718, Control_c, 0, 64, 87
1, 326732, Control_c, 0, 64, 86
1, 326762, Control_c, 0, 64, 86
1, 326806, Control_c, 0, 64, 85
1, 326821, Control_c, 0, 64, 84
1, 326836, Control_c, 0, 64, 81
1, 326839, Note_on_c, 0, 62, 56
1, 326839, Note_on_c, 0, 70, 60
1, 326851, Control_c, 0, 64, 76
1, 326866, Control_c, 0, 64, 71
1, 326881, Control_c, 0, 64, 66
1, 326896, Control_c, 0, 64, 64
1, 326910, Control_c, 0, 64, 59
1, 326925, Control_c, 0, 64, 51
1, 326940, Control_c, 0, 64, 42
1, 326955, Control_c, 0, 64, 40
1, 326970, Control_c, 0, 64, 44
1, 326984, Control_c, 0, 64, 56
1, 326999, Control_c, 0, 64, 65
1, 327014, Control_c, 0, 64, 70
1, 327029, Control_c, 0, 64, 76
1, 327044, Control_c, 0, 64, 83
1, 327058, Control_c, 0, 64, 89
1, 327073, Control_c, 0, 64, 91
1, 327258, Note_on_c, 0, 69, 57
1, 327301, Note_off_c, 0, 54, 27
1, 327307, Note_off_c, 0, 62, 55
1, 327349, Note_off_c, 0, 51, 60
1, 327388, Note_off_c, 0, 63, 54
1, 327402, Note_off_c, 0, 66, 39
1, 327405, Note_on_c, 0, 54, 61
1, 327482, Note_off_c, 0, 54, 56
1, 327513, Note_on_c, 0, 61, 60
1, 327520, Note_on_c, 0, 51, 48
1, 327541, Control_c, 0, 64, 91
1, 327570, Control_c, 0, 64, 90
1, 327589, Note_off_c, 0, 51, 61
1, 327614, Control_c, 0, 64, 90
1, 327618, Note_on_c, 0, 41, 47
1, 327633, Note_off_c, 0, 61, 55
1, 327641, Note_off_c, 0, 70, 20
1, 327644, Control_c, 0, 64, 89
1, 327652, Note_off_c, 0, 41, 54
1, 327674, Control_c, 0, 64, 89
1, 327703, Control_c, 0, 64, 88
1, 327718, Control_c, 0, 64, 88
1, 327729, Note_on_c, 0, 68, 63
1, 327733, Control_c, 0, 64, 86
1, 327737, Note_on_c, 0, 60, 50
1, 327739, Note_on_c, 0, 41, 55
1, 327748, Control_c, 0, 64, 86
1, 327751, Note_off_c, 0, 69, 59
1, 327763, Control_c, 0, 64, 85
1, 327778, Control_c, 0, 64, 84
1, 327793, Control_c, 0, 64, 84
1, 327807, Note_off_c, 0, 60, 60
1, 327807, Control_c, 0, 64, 83
1, 327822, Control_c, 0, 64, 83
1, 327829, Note_off_c, 0, 41, 44
1, 327837, Control_c, 0, 64, 82
1, 327852, Control_c, 0, 64, 81
1, 327867, Control_c, 0, 64, 80
1, 327882, Control_c, 0, 64, 80
1, 327897, Control_c, 0, 64, 79
1, 327907, Note_on_c, 0, 29, 46
1, 327919, Control_c, 0, 64, 78
1, 327934, Control_c, 0, 64, 77
1, 327949, Control_c, 0, 64, 76
1, 327964, Control_c, 0, 64, 73
1, 327979, Control_c, 0, 64, 68
1, 327993, Control_c, 0, 64, 63
1, 328008, Control_c, 0, 64, 42
1, 328023, Control_c, 0, 64, 0
1, 328044, Note_on_c, 0, 63, 57
1, 328045, Note_on_c, 0, 57, 43
1, 328055, Note_on_c, 0, 61, 46
1, 328073, Note_off_c, 0, 29, 57
1, 328115, Note_on_c, 0, 41, 33
1, 328127, Control_c, 0, 64, 52
1, 328128, Note_off_c, 0, 68, 51
1, 328142, Control_c, 0, 64, 64
1, 328147, Note_off_c, 0, 41, 53
1, 328156, Control_c, 0, 64, 68
1, 328171, Control_c, 0, 64, 71
1, 328186, Control_c, 0, 64, 74
1, 328201, Control_c, 0, 64, 77
1, 328216, Control_c, 0, 64, 79
1, 328230, Control_c, 0, 64, 81
1, 328245, Control_c, 0, 64, 81
1, 328288, Note_on_c, 0, 51, 53
1, 328305, Note_off_c, 0, 61, 37
1, 328364, Control_c, 0, 64, 81
1, 328393, Control_c, 0, 64, 80
1, 328408, Control_c, 0, 64, 80
1, 328423, Control_c, 0, 64, 79
1, 328429, Note_on_c, 0, 54, 53
1, 328437, Control_c, 0, 64, 78
1, 328452, Control_c, 0, 64, 78
1, 328467, Control_c, 0, 64, 77
1, 328482, Control_c, 0, 64, 77
1, 328497, Control_c, 0, 64, 76
1, 328511, Control_c, 0, 64, 76
1, 328526, Control_c, 0, 64, 75
1, 328555, Control_c, 0, 64, 75
1, 328585, Control_c, 0, 64, 74
1, 328600, Control_c, 0, 64, 74
1, 328615, Control_c, 0, 64, 72
1, 328629, Control_c, 0, 64, 71
1, 328644, Control_c, 0, 64, 70
1, 328666, Control_c, 0, 64, 68
1, 328682, Control_c, 0, 64, 67
1, 328697, Control_c, 0, 64, 65
1, 328712, Control_c, 0, 64, 63
1, 328715, Note_on_c, 0, 61, 57
1, 328723, Note_on_c, 0, 69, 55
1, 328727, Control_c, 0, 64, 60
1, 328741, Control_c, 0, 64, 56
1, 328756, Control_c, 0, 64, 46
1, 328771, Control_c, 0, 64, 29
1, 328786, Control_c, 0, 64, 0
1, 328843, Note_off_c, 0, 63, 51
1, 328845, Control_c, 0, 64, 37
1, 328860, Control_c, 0, 64, 54
1, 328875, Control_c, 0, 64, 63
1, 328890, Control_c, 0, 64, 68
1, 328905, Control_c, 0, 64, 71
1, 328920, Control_c, 0, 64, 73
1, 328934, Control_c, 0, 64, 75
1, 328949, Control_c, 0, 64, 77
1, 328949, Note_off_c, 0, 57, 26
1, 328964, Control_c, 0, 64, 78
1, 328979, Control_c, 0, 64, 79
1, 329002, Note_off_c, 0, 54, 0
1, 329008, Control_c, 0, 64, 80
1, 329023, Control_c, 0, 64, 80
1, 329038, Control_c, 0, 64, 81
1, 329039, Poly_aftertouch_c, 0, 54, 127
1, 329113, Poly_aftertouch_c, 0, 54, 0
1, 329132, Note_on_c, 0, 68, 55
1, 329174, Note_off_c, 0, 69, 56
1, 329215, Control_c, 0, 64, 80
1, 329218, Note_off_c, 0, 51, 48
1, 329245, Control_c, 0, 64, 80
1, 329274, Control_c, 0, 64, 79
1, 329290, Control_c, 0, 64, 79
1, 329316, Note_on_c, 0, 54, 44
1, 329320, Control_c, 0, 64, 78
1, 329334, Control_c, 0, 64, 78
1, 329364, Control_c, 0, 64, 77
1, 329394, Control_c, 0, 64, 77
1, 329431, Control_c, 0, 64, 76
1, 329446, Control_c, 0, 64, 76
1, 329475, Control_c, 0, 64, 75
1, 329480, Note_off_c, 0, 54, 35
1, 329491, Control_c, 0, 64, 75
1, 329506, Control_c, 0, 64, 74
1, 329521, Control_c, 0, 64, 73
1, 329531, Note_on_c, 0, 67, 50
1, 329536, Control_c, 0, 64, 73
1, 329539, Note_on_c, 0, 51, 37
1, 329565, Control_c, 0, 64, 72
1, 329591, Note_off_c, 0, 68, 35
1, 329595, Control_c, 0, 64, 72
1, 329609, Control_c, 0, 64, 71
1, 329624, Control_c, 0, 64, 71
1, 329639, Control_c, 0, 64, 70
1, 329713, Control_c, 0, 64, 70
1, 329789, Note_on_c, 0, 60, 36
1, 329793, Note_on_c, 0, 41, 36
1, 329802, Control_c, 0, 64, 69
1, 329832, Control_c, 0, 64, 69
1, 329862, Control_c, 0, 64, 68
1, 329912, Note_off_c, 0, 61, 32
1, 329936, Control_c, 0, 64, 68
1, 330024, Control_c, 0, 64, 67
1, 330083, Control_c, 0, 64, 67
1, 330128, Control_c, 0, 64, 66
1, 330165, Control_c, 0, 64, 66
1, 330180, Control_c, 0, 64, 65
1, 330195, Control_c, 0, 64, 65
1, 330209, Control_c, 0, 64, 64
1, 330224, Control_c, 0, 64, 63
1, 330238, Note_on_c, 0, 66, 37
1, 330239, Control_c, 0, 64, 61
1, 330254, Control_c, 0, 64, 55
1, 330258, Note_on_c, 0, 61, 28
1, 330259, Note_on_c, 0, 57, 41
1, 330269, Control_c, 0, 64, 40
1, 330285, Control_c, 0, 64, 0
1, 330344, Note_off_c, 0, 60, 38
1, 330370, Note_off_c, 0, 67, 29
1, 330403, Control_c, 0, 64, 24
1, 330418, Control_c, 0, 64, 50
1, 330432, Control_c, 0, 64, 63
1, 330447, Control_c, 0, 64, 67
1, 330462, Control_c, 0, 64, 70
1, 330477, Control_c, 0, 64, 73
1, 330492, Control_c, 0, 64, 76
1, 330506, Control_c, 0, 64, 78
1, 330521, Control_c, 0, 64, 80
1, 330533, Note_off_c, 0, 57, 36
1, 330536, Control_c, 0, 64, 81
1, 330551, Control_c, 0, 64, 82
1, 330566, Control_c, 0, 64, 84
1, 330580, Control_c, 0, 64, 86
1, 330595, Control_c, 0, 64, 88
1, 330610, Control_c, 0, 64, 90
1, 330625, Control_c, 0, 64, 91
1, 330640, Control_c, 0, 64, 94
1, 330643, Note_off_c, 0, 51, 30
1, 330654, Control_c, 0, 64, 97
1, 330669, Control_c, 0, 64, 100
1, 330684, Control_c, 0, 64, 102
1, 330699, Control_c, 0, 64, 102
1, 330714, Control_c, 0, 64, 103
1, 330741, Note_off_c, 0, 61, 41
1, 330744, Control_c, 0, 64, 103
1, 330747, Note_off_c, 0, 66, 35
1, 330839, Note_off_c, 0, 41, 39
1, 331003, Control_c, 0, 64, 103
1, 331018, Control_c, 0, 64, 102
1, 331032, Control_c, 0, 64, 102
1, 331047, Control_c, 0, 64, 101
1, 331062, Control_c, 0, 64, 101
1, 331108, Control_c, 0, 64, 100
1, 331122, Control_c, 0, 64, 100
1, 331167, Control_c, 0, 64, 99
1, 331197, Control_c, 0, 64, 99
1, 331211, Control_c, 0, 64, 98
1, 331241, Control_c, 0, 64, 98
1, 331255, Control_c, 0, 64, 97
1, 331270, Control_c, 0, 64, 97
1, 331285, Control_c, 0, 64, 96
1, 331300, Control_c, 0, 64, 95
1, 331315, Control_c, 0, 64, 95
1, 331329, Control_c, 0, 64, 94
1, 331344, Control_c, 0, 64, 94
1, 331359, Control_c, 0, 64, 93
1, 331373, Control_c, 0, 64, 92
1, 331388, Control_c, 0, 64, 91
1, 331403, Control_c, 0, 64, 91
1, 331418, Control_c, 0, 64, 90
1, 331433, Control_c, 0, 64, 89
1, 331447, Control_c, 0, 64, 86
1, 331462, Control_c, 0, 64, 82
1, 331477, Control_c, 0, 64, 75
1, 331480, Note_on_c, 0, 58, 37
1, 331491, Note_on_c, 0, 53, 27
1, 331492, Control_c, 0, 64, 68
1, 331495, Note_on_c, 0, 22, 32
1, 331496, Note_on_c, 0, 29, 31
1, 331502, Note_on_c, 0, 46, 19
1, 331507, Control_c, 0, 64, 61
1, 331509, Note_on_c, 0, 34, 25
1, 331522, Control_c, 0, 64, 49
1, 331537, Control_c, 0, 64, 50
1, 331552, Control_c, 0, 64, 60
1, 331567, Control_c, 0, 64, 65
1, 331581, Control_c, 0, 64, 69
1, 331596, Control_c, 0, 64, 74
1, 331611, Note_off_c, 0, 29, 37
1, 331611, Control_c, 0, 64, 81
1, 331626, Control_c, 0, 64, 89
1, 331627, Note_off_c, 0, 58, 0
1, 331632, Note_off_c, 0, 34, 36
1, 331641, Control_c, 0, 64, 97
1, 331662, Control_c, 0, 64, 107
1, 331677, Control_c, 0, 64, 121
1, 331683, Note_off_c, 0, 22, 39
1, 331692, Control_c, 0, 64, 127
1, 331710, Note_off_c, 0, 46, 39
1, 331755, Note_off_c, 0, 53, 39
1, 331902, Poly_aftertouch_c, 0, 58, 0
1, 331990, Control_c, 0, 67, 123
1, 332004, Control_c, 0, 67, 118
1, 332019, Control_c, 0, 67, 113
1, 332034, Control_c, 0, 67, 107
1, 332049, Control_c, 0, 67, 101
1, 332064, Control_c, 0, 67, 95
1, 332078, Control_c, 0, 67, 88
1, 332093, Control_c, 0, 67, 82
1, 332108, Control_c, 0, 67, 76
1, 332123, Control_c, 0, 67, 70
1, 332138, Control_c, 0, 67, 66
1, 332152, Control_c, 0, 67, 61
1, 332167, Control_c, 0, 67, 56
1, 332182, Control_c, 0, 67, 51
1, 332196, Control_c, 0, 67, 45
1, 332211, Control_c, 0, 67, 40
1, 332226, Control_c, 0, 67, 36
1, 332241, Control_c, 0, 67, 32
1, 332256, Control_c, 0, 67, 28
1, 332270, Control_c, 0, 67, 23
1, 332285, Control_c, 0, 67, 18
1, 332300, Control_c, 0, 67, 13
1, 332315, Control_c, 0, 67, 10
1, 332330, Control_c, 0, 67, 8
1, 332345, Note_on_c, 0, 65, 32
1, 332345, Control_c, 0, 67, 0
1, 332348, Note_on_c, 0, 54, 25
1, 332354, Note_on_c, 0, 42, 32
1, 332356, Note_on_c, 0, 58, 24
1, 332362, Note_on_c, 0, 53, 21
1, 332374, Note_on_c, 0, 62, 20
1, 332380, Note_on_c, 0, 50, 21
1, 332389, Note_on_c, 0, 46, 20
1, 332804, Note_off_c, 0, 50, 37
1, 332813, Note_off_c, 0, 65, 34
1, 332819, Note_off_c, 0, 54, 38
1, 332877, Note_off_c, 0, 58, 31
1, 332877, Note_off_c, 0, 53, 30
1, 332883, Note_off_c, 0, 46, 33
1, 332884, Note_off_c, 0, 42, 37
1, 333008, Note_off_c, 0, 62, 23
1, 333301, Note_on_c, 0, 62, 6
1, 333305, Note_on_c, 0, 65, 44
1, 333313, Note_on_c, 0, 53, 34
1, 333319, Note_on_c, 0, 55, 34
1, 333322, Note_on_c, 0, 58, 32
1, 333336, Note_on_c, 0, 50, 36
1, 333338, Note_on_c, 0, 43, 27
1, 333338, Note_on_c, 0, 46, 41
1, 333770, Note_off_c, 0, 55, 51
1, 333792, Note_off_c, 0, 65, 38
1, 333814, Note_off_c, 0, 53, 42
1, 333815, Note_off_c, 0, 50, 56
1, 333828, Note_off_c, 0, 58, 44
1, 333840, Note_off_c, 0, 46, 40
1, 333936, Note_on_c, 0, 65, 59
1, 333945, Note_on_c, 0, 58, 51
1, 333946, Note_on_c, 0, 50, 57
1, 333948, Note_on_c, 0, 56, 58
1, 333951, Note_on_c, 0, 53, 58
1, 333961, Note_on_c, 0, 44, 58
1, 333997, Note_off_c, 0, 58, 51
1, 334005, Note_off_c, 0, 43, 41
1, 334034, Note_off_c, 0, 56, 36
1, 334066, Note_off_c, 0, 65, 57
1, 334075, Note_off_c, 0, 62, 46
1, 334105, Note_off_c, 0, 53, 40
1, 334113, Note_off_c, 0, 50, 64
1, 334174, Note_off_c, 0, 44, 63
1, 334384, Note_on_c, 0, 45, 80
1, 334386, Note_on_c, 0, 69, 80
1, 334387, Note_on_c, 0, 42, 72
1, 334388, Note_on_c, 0, 62, 61
1, 334389, Note_on_c, 0, 38, 65
1, 334391, Note_on_c, 0, 57, 70
1, 334392, Note_on_c, 0, 33, 64
1, 334394, Note_on_c, 0, 66, 67
1, 334413, Control_c, 0, 64, 99
1, 334428, Control_c, 0, 64, 73
1, 334443, Control_c, 0, 64, 50
1, 334458, Control_c, 0, 64, 0
1, 334488, Control_c, 0, 64, 55
1, 334503, Control_c, 0, 64, 70
1, 334518, Control_c, 0, 64, 93
1, 334533, Control_c, 0, 64, 127
1, 334609, Note_off_c, 0, 33, 55
1, 334613, Note_off_c, 0, 62, 57
1, 334622, Note_off_c, 0, 57, 59
1, 334650, Note_off_c, 0, 38, 60
1, 334679, Note_off_c, 0, 66, 58
1, 334688, Note_off_c, 0, 42, 62
1, 334697, Note_off_c, 0, 45, 63
1, 334697, Note_off_c, 0, 69, 58
1, 334908, Note_on_c, 0, 64, 71
1, 334911, Note_on_c, 0, 70, 68
1, 334915, Note_on_c, 0, 50, 58
1, 334915, Note_on_c, 0, 74, 78
1, 334922, Note_on_c, 0, 62, 59
1, 334944, Note_on_c, 0, 58, 56
1, 334955, Note_on_c, 0, 52, 32
1, 334981, Note_on_c, 0, 53, 35
1, 335016, Note_off_c, 0, 53, 56
1, 335087, Poly_aftertouch_c, 0, 56, 127
1, 335370, Control_c, 0, 64, 117
1, 335385, Control_c, 0, 64, 87
1, 335407, Control_c, 0, 64, 73
1, 335421, Control_c, 0, 64, 69
1, 335436, Control_c, 0, 64, 75
1, 335451, Control_c, 0, 64, 87
1, 335466, Control_c, 0, 64, 127
1, 335469, Poly_aftertouch_c, 0, 56, 0
1, 335626, Note_off_c, 0, 64, 62
1, 335660, Note_off_c, 0, 62, 52
1, 335662, Note_off_c, 0, 50, 54
1, 335663, Note_off_c, 0, 74, 43
1, 335676, Note_off_c, 0, 58, 58
1, 335682, Note_off_c, 0, 70, 49
1, 335759, Note_on_c, 0, 70, 40
1, 335767, Note_on_c, 0, 65, 46
1, 335773, Note_on_c, 0, 74, 63
1, 335776, Note_on_c, 0, 53, 48
1, 335777, Note_on_c, 0, 58, 34
1, 335782, Note_on_c, 0, 62, 32
1, 335798, Note_on_c, 0, 50, 44
1, 335807, Control_c, 0, 64, 100
1, 335821, Control_c, 0, 64, 83
1, 335836, Control_c, 0, 64, 71
1, 335851, Control_c, 0, 64, 63
1, 335867, Control_c, 0, 64, 61
1, 335882, Control_c, 0, 64, 66
1, 335897, Control_c, 0, 64, 74
1, 335912, Control_c, 0, 64, 89
1, 335920, Note_off_c, 0, 52, 36
1, 335926, Control_c, 0, 64, 127
1, 336392, Control_c, 0, 67, 9
1, 336407, Note_off_c, 0, 50, 43
1, 336407, Control_c, 0, 67, 11
1, 336414, Note_off_c, 0, 65, 55
1, 336417, Note_off_c, 0, 74, 30
1, 336422, Control_c, 0, 67, 13
1, 336437, Control_c, 0, 67, 15
1, 336451, Control_c, 0, 67, 17
1, 336466, Control_c, 0, 67, 19
1, 336480, Note_off_c, 0, 58, 41
1, 336481, Control_c, 0, 67, 22
1, 336496, Control_c, 0, 67, 25
1, 336511, Control_c, 0, 67, 29
1, 336520, Note_off_c, 0, 62, 40
1, 336525, Control_c, 0, 67, 32
1, 336540, Control_c, 0, 67, 34
1, 336545, Note_off_c, 0, 70, 41
1, 336555, Control_c, 0, 67, 36
1, 336569, Control_c, 0, 67, 38
1, 336584, Control_c, 0, 67, 41
1, 336598, Note_off_c, 0, 53, 57
1, 336599, Control_c, 0, 67, 43
1, 336614, Control_c, 0, 67, 45
1, 336629, Control_c, 0, 67, 46
1, 336643, Control_c, 0, 67, 49
1, 336647, Note_on_c, 0, 74, 49
1, 336649, Note_on_c, 0, 50, 39
1, 336651, Note_on_c, 0, 54, 43
1, 336652, Note_on_c, 0, 58, 40
1, 336658, Note_on_c, 0, 66, 32
1, 336658, Control_c, 0, 67, 52
1, 336674, Control_c, 0, 67, 56
1, 336675, Note_on_c, 0, 62, 15
1, 336679, Note_on_c, 0, 70, 30
1, 336689, Control_c, 0, 67, 60
1, 336701, Note_off_c, 0, 74, 57
1, 336704, Control_c, 0, 67, 63
1, 336710, Note_off_c, 0, 50, 55
1, 336719, Note_off_c, 0, 58, 54
1, 336719, Control_c, 0, 67, 66
1, 336730, Note_off_c, 0, 70, 44
1, 336734, Control_c, 0, 67, 69
1, 336739, Note_off_c, 0, 54, 48
1, 336748, Control_c, 0, 67, 71
1, 336763, Control_c, 0, 67, 73
1, 336778, Control_c, 0, 67, 76
1, 336785, Note_off_c, 0, 62, 29
1, 336785, Note_off_c, 0, 66, 37
1, 336792, Control_c, 0, 67, 80
1, 336807, Control_c, 0, 67, 85
1, 336822, Control_c, 0, 67, 90
1, 336837, Control_c, 0, 67, 96
1, 336852, Control_c, 0, 67, 101
1, 336867, Control_c, 0, 67, 107
1, 336882, Control_c, 0, 67, 114
1, 336904, Control_c, 0, 67, 119
1, 336919, Control_c, 0, 67, 124
1, 336934, Control_c, 0, 67, 127
1, 337333, Control_c, 0, 64, 98
1, 337348, Control_c, 0, 64, 77
1, 337353, Note_on_c, 0, 46, 44
1, 337353, Note_on_c, 0, 58, 47
1, 337356, Note_on_c, 0, 53, 30
1, 337363, Control_c, 0, 64, 38
1, 337370, Note_on_c, 0, 22, 37
1, 337373, Note_on_c, 0, 29, 32
1, 337378, Control_c, 0, 64, 0
1, 337384, Note_on_c, 0, 34, 25
1, 337437, Control_c, 0, 64, 54
1, 337452, Control_c, 0, 64, 77
1, 337457, Note_off_c, 0, 46, 47
1, 337468, Control_c, 0, 64, 127
1, 337501, Note_off_c, 0, 29, 37
1, 337520, Note_off_c, 0, 22, 38
1, 337536, Note_off_c, 0, 53, 39
1, 337545, Note_off_c, 0, 34, 43
1, 337612, Note_off_c, 0, 58, 41
1, 338042, Note_on_c, 0, 73, 50
1, 338053, Note_on_c, 0, 71, 42
1, 338058, Note_on_c, 0, 77, 48
1, 338063, Note_on_c, 0, 53, 39
1, 338074, Note_on_c, 0, 59, 43
1, 338075, Note_on_c, 0, 65, 36
1, 338080, Note_on_c, 0, 61, 38
1, 338627, Note_off_c, 0, 53, 40
1, 338688, Note_off_c, 0, 71, 45
1, 338706, Note_off_c, 0, 73, 49
1, 338712, Note_off_c, 0, 59, 30
1, 338750, Note_off_c, 0, 77, 37
1, 338764, Note_off_c, 0, 61, 40
1, 338778, Note_off_c, 0, 65, 38
1, 338801, Control_c, 0, 67, 127
1, 338816, Control_c, 0, 67, 125
1, 338831, Control_c, 0, 67, 123
1, 338846, Control_c, 0, 67, 121
1, 338861, Control_c, 0, 67, 118
1, 338876, Control_c, 0, 67, 115
1, 338891, Control_c, 0, 67, 110
1, 338906, Control_c, 0, 67, 106
1, 338920, Control_c, 0, 67, 102
1, 338935, Control_c, 0, 67, 97
1, 338950, Control_c, 0, 67, 92
1, 338964, Control_c, 0, 67, 86
1, 338971, Note_on_c, 0, 72, 49
1, 338972, Note_on_c, 0, 73, 50
1, 338974, Note_on_c, 0, 65, 44
1, 338974, Note_on_c, 0, 77, 55
1, 338977, Note_on_c, 0, 61, 46
1, 338979, Control_c, 0, 67, 80
1, 338982, Note_on_c, 0, 53, 47
1, 338987, Note_on_c, 0, 60, 47
1, 338994, Control_c, 0, 67, 76
1, 339009, Control_c, 0, 67, 72
1, 339024, Control_c, 0, 67, 69
1, 339038, Control_c, 0, 67, 65
1, 339053, Control_c, 0, 67, 61
1, 339069, Control_c, 0, 67, 58
1, 339084, Control_c, 0, 67, 55
1, 339099, Control_c, 0, 67, 52
1, 339114, Control_c, 0, 67, 49
1, 339129, Control_c, 0, 67, 46
1, 339150, Control_c, 0, 67, 43
1, 339165, Control_c, 0, 67, 41
1, 339180, Control_c, 0, 67, 38
1, 339195, Control_c, 0, 67, 36
1, 339210, Control_c, 0, 67, 33
1, 339225, Control_c, 0, 67, 30
1, 339239, Control_c, 0, 67, 27
1, 339254, Control_c, 0, 67, 23
1, 339269, Control_c, 0, 67, 20
1, 339284, Control_c, 0, 67, 14
1, 339299, Control_c, 0, 67, 8
1, 339314, Control_c, 0, 67, 0
1, 339362, Note_off_c, 0, 73, 37
1, 339439, Note_off_c, 0, 61, 36
1, 339460, Note_off_c, 0, 77, 53
1, 339478, Note_off_c, 0, 53, 29
1, 339511, Note_off_c, 0, 65, 43
1, 339618, Note_on_c, 0, 73, 71
1, 339619, Note_on_c, 0, 65, 61
1, 339621, Note_on_c, 0, 77, 70
1, 339621, Note_on_c, 0, 53, 61
1, 339621, Note_on_c, 0, 61, 80
1, 339686, Note_off_c, 0, 72, 47
1, 339694, Note_off_c, 0, 65, 59
1, 339701, Note_off_c, 0, 60, 38
1, 339728, Note_off_c, 0, 77, 60
1, 339763, Note_off_c, 0, 73, 61
1, 339797, Note_off_c, 0, 53, 64
1, 339850, Note_off_c, 0, 61, 61
1, 340017, Control_c, 0, 64, 87
1, 340018, Note_on_c, 0, 53, 67
1, 340023, Note_on_c, 0, 80, 88
1, 340027, Note_on_c, 0, 44, 74
1, 340027, Note_on_c, 0, 49, 69
1, 340028, Note_on_c, 0, 77, 73
1, 340031, Note_on_c, 0, 56, 70
1, 340032, Note_on_c, 0, 68, 75
1, 340032, Control_c, 0, 64, 61
1, 340041, Note_on_c, 0, 73, 64
1, 340047, Control_c, 0, 64, 0
1, 340092, Control_c, 0, 64, 48
1, 340107, Control_c, 0, 64, 70
1, 340122, Control_c, 0, 64, 97
1, 340136, Control_c, 0, 64, 127
1, 340195, Note_off_c, 0, 68, 59
1, 340244, Note_off_c, 0, 77, 59
1, 340256, Note_off_c, 0, 73, 58
1, 340267, Note_off_c, 0, 80, 61
1, 340268, Note_off_c, 0, 44, 62
1, 340339, Note_off_c, 0, 49, 59
1, 340350, Note_off_c, 0, 53, 57
1, 340390, Note_off_c, 0, 56, 62
1, 340620, Note_on_c, 0, 85, 89
1, 340623, Note_on_c, 0, 82, 82
1, 340626, Note_on_c, 0, 75, 75
1, 340629, Note_on_c, 0, 73, 74
1, 340649, Note_on_c, 0, 63, 62
1, 340653, Note_on_c, 0, 70, 70
1, 340660, Note_on_c, 0, 61, 63
1, 340989, Control_c, 0, 64, 101
1, 341004, Control_c, 0, 64, 92
1, 341019, Control_c, 0, 64, 90
1, 341033, Control_c, 0, 64, 92
1, 341048, Control_c, 0, 64, 99
1, 341063, Control_c, 0, 64, 117
1, 341078, Control_c, 0, 64, 127
1, 341311, Note_off_c, 0, 73, 44
1, 341350, Note_off_c, 0, 85, 39
1, 341365, Note_off_c, 0, 75, 54
1, 341453, Note_off_c, 0, 82, 32
1, 341468, Note_off_c, 0, 70, 57
1, 341481, Note_off_c, 0, 61, 35
1, 341497, Note_off_c, 0, 63, 60
1, 341571, Note_on_c, 0, 85, 70
1, 341576, Note_on_c, 0, 82, 64
1, 341583, Note_on_c, 0, 70, 51
1, 341585, Note_on_c, 0, 76, 57
1, 341588, Note_on_c, 0, 73, 54
1, 341598, Note_on_c, 0, 61, 49
1, 341598, Note_on_c, 0, 64, 51
1, 341619, Control_c, 0, 64, 123
1, 341634, Control_c, 0, 64, 113
1, 341649, Control_c, 0, 64, 106
1, 341663, Control_c, 0, 64, 103
1, 341678, Control_c, 0, 64, 101
1, 341693, Control_c, 0, 64, 101
1, 341723, Control_c, 0, 64, 100
1, 341767, Control_c, 0, 64, 100
1, 341797, Control_c, 0, 64, 99
1, 341812, Control_c, 0, 64, 99
1, 341827, Control_c, 0, 64, 98
1, 341871, Control_c, 0, 64, 98
1, 341886, Control_c, 0, 64, 97
1, 341901, Control_c, 0, 64, 97
1, 341915, Control_c, 0, 64, 96
1, 341945, Control_c, 0, 64, 96
1, 341960, Control_c, 0, 64, 95
1, 341975, Control_c, 0, 64, 93
1, 341989, Control_c, 0, 64, 91
1, 342004, Control_c, 0, 64, 90
1, 342020, Control_c, 0, 64, 89
1, 342035, Control_c, 0, 64, 88
1, 342050, Control_c, 0, 64, 87
1, 342064, Control_c, 0, 64, 86
1, 342079, Control_c, 0, 64, 85
1, 342094, Control_c, 0, 64, 84
1, 342108, Control_c, 0, 64, 83
1, 342123, Control_c, 0, 64, 81
1, 342146, Control_c, 0, 64, 81
1, 342220, Control_c, 0, 64, 82
1, 342235, Control_c, 0, 64, 83
1, 342250, Control_c, 0, 64, 86
1, 342265, Control_c, 0, 64, 88
1, 342280, Control_c, 0, 64, 89
1, 342280, Control_c, 0, 67, 9
1, 342295, Control_c, 0, 64, 90
1, 342295, Control_c, 0, 67, 12
1, 342310, Control_c, 0, 64, 91
1, 342310, Control_c, 0, 67, 16
1, 342325, Control_c, 0, 64, 92
1, 342325, Control_c, 0, 67, 20
1, 342339, Control_c, 0, 64, 93
1, 342339, Control_c, 0, 67, 24
1, 342354, Control_c, 0, 64, 94
1, 342354, Control_c, 0, 67, 28
1, 342369, Control_c, 0, 64, 94
1, 342369, Control_c, 0, 67, 33
1, 342384, Control_c, 0, 67, 37
1, 342399, Control_c, 0, 67, 41
1, 342413, Control_c, 0, 64, 95
1, 342413, Control_c, 0, 67, 46
1, 342428, Control_c, 0, 67, 51
1, 342443, Control_c, 0, 67, 55
1, 342458, Control_c, 0, 67, 58
1, 342473, Control_c, 0, 67, 61
1, 342487, Control_c, 0, 67, 64
1, 342502, Control_c, 0, 67, 67
1, 342517, Control_c, 0, 67, 70
1, 342531, Control_c, 0, 67, 74
1, 342546, Control_c, 0, 67, 77
1, 342561, Control_c, 0, 67, 79
1, 342576, Control_c, 0, 67, 81
1, 342591, Control_c, 0, 67, 82
1, 342605, Control_c, 0, 67, 85
1, 342620, Control_c, 0, 67, 86
1, 342635, Control_c, 0, 67, 88
1, 342650, Control_c, 0, 67, 90
1, 342665, Control_c, 0, 67, 91
1, 342675, Note_off_c, 0, 85, 30
1, 342680, Control_c, 0, 64, 94
1, 342680, Control_c, 0, 67, 93
1, 342694, Control_c, 0, 64, 94
1, 342694, Control_c, 0, 67, 95
1, 342709, Control_c, 0, 67, 96
1, 342724, Control_c, 0, 64, 93
1, 342724, Control_c, 0, 67, 98
1, 342739, Control_c, 0, 64, 93
1, 342739, Control_c, 0, 67, 100
1, 342745, Note_off_c, 0, 70, 30
1, 342754, Control_c, 0, 67, 103
1, 342756, Note_off_c, 0, 76, 31
1, 342757, Note_off_c, 0, 61, 36
1, 342768, Control_c, 0, 64, 92
1, 342768, Control_c, 0, 67, 105
1, 342783, Control_c, 0, 67, 106
1, 342796, Note_off_c, 0, 73, 28
1, 342798, Control_c, 0, 64, 92
1, 342798, Control_c, 0, 67, 109
1, 342812, Control_c, 0, 67, 111
1, 342827, Control_c, 0, 67, 111
1, 342842, Control_c, 0, 64, 91
1, 342842, Control_c, 0, 67, 112
1, 342857, Control_c, 0, 64, 91
1, 342857, Control_c, 0, 67, 113
1, 342872, Control_c, 0, 67, 116
1, 342894, Control_c, 0, 64, 90
1, 342894, Control_c, 0, 67, 118
1, 342909, Control_c, 0, 64, 90
1, 342909, Control_c, 0, 67, 120
1, 342909, Note_off_c, 0, 82, 17
1, 342924, Control_c, 0, 64, 89
1, 342924, Control_c, 0, 67, 121
1, 342938, Control_c, 0, 64, 89
1, 342938, Control_c, 0, 67, 122
1, 342953, Control_c, 0, 64, 88
1, 342953, Control_c, 0, 67, 123
1, 342968, Control_c, 0, 64, 87
1, 342968, Control_c, 0, 67, 125
1, 342983, Control_c, 0, 64, 86
1, 342983, Control_c, 0, 67, 127
1, 342998, Control_c, 0, 64, 85
1, 342998, Control_c, 0, 67, 127
1, 343011, Note_off_c, 0, 64, 30
1, 343012, Control_c, 0, 64, 84
1, 343027, Control_c, 0, 64, 84
1, 343042, Control_c, 0, 64, 83
1, 343053, Note_on_c, 0, 82, 14
1, 343058, Control_c, 0, 64, 82
1, 343060, Note_on_c, 0, 85, 48
1, 343067, Note_on_c, 0, 61, 36
1, 343067, Note_on_c, 0, 77, 36
1, 343073, Control_c, 0, 64, 79
1, 343078, Note_on_c, 0, 73, 37
1, 343088, Control_c, 0, 64, 76
1, 343089, Note_on_c, 0, 70, 30
1, 343092, Note_on_c, 0, 65, 32
1, 343103, Control_c, 0, 64, 72
1, 343117, Control_c, 0, 64, 67
1, 343132, Control_c, 0, 64, 63
1, 343147, Control_c, 0, 64, 58
1, 343161, Control_c, 0, 64, 53
1, 343176, Control_c, 0, 64, 52
1, 343221, Control_c, 0, 64, 54
1, 343235, Control_c, 0, 64, 56
1, 343250, Control_c, 0, 64, 58
1, 343265, Control_c, 0, 64, 61
1, 343280, Control_c, 0, 64, 62
1, 343295, Control_c, 0, 64, 63
1, 343309, Control_c, 0, 64, 64
1, 343428, Control_c, 0, 64, 64
1, 343443, Control_c, 0, 64, 65
1, 343457, Control_c, 0, 64, 67
1, 343472, Control_c, 0, 64, 68
1, 343487, Control_c, 0, 64, 70
1, 343502, Control_c, 0, 64, 72
1, 343517, Control_c, 0, 64, 75
1, 343532, Control_c, 0, 64, 78
1, 343538, Note_off_c, 0, 70, 39
1, 343547, Control_c, 0, 64, 81
1, 343561, Control_c, 0, 64, 83
1, 343566, Note_off_c, 0, 65, 36
1, 343576, Control_c, 0, 64, 84
1, 343591, Control_c, 0, 64, 85
1, 343606, Control_c, 0, 64, 86
1, 343621, Control_c, 0, 64, 86
1, 343652, Note_off_c, 0, 85, 34
1, 343692, Note_off_c, 0, 61, 36
1, 343696, Note_off_c, 0, 77, 29
1, 343713, Note_off_c, 0, 82, 35
1, 343723, Note_off_c, 0, 73, 37
1, 343806, Control_c, 0, 64, 86
1, 343866, Control_c, 0, 64, 85
1, 343896, Control_c, 0, 64, 85
1, 343925, Control_c, 0, 64, 84
1, 343955, Control_c, 0, 64, 84
1, 343970, Control_c, 0, 64, 83
1, 344044, Control_c, 0, 64, 83
1, 344073, Control_c, 0, 64, 82
1, 344162, Control_c, 0, 64, 82
1, 344191, Control_c, 0, 64, 81
1, 344206, Control_c, 0, 64, 81
1, 344236, Control_c, 0, 64, 80
1, 344250, Control_c, 0, 64, 79
1, 344265, Control_c, 0, 64, 79
1, 344280, Control_c, 0, 64, 78
1, 344295, Control_c, 0, 64, 78
1, 344325, Control_c, 0, 64, 77
1, 344370, Control_c, 0, 64, 77
1, 344406, Control_c, 0, 64, 76
1, 344436, Control_c, 0, 64, 76
1, 344525, Control_c, 0, 64, 75
1, 344539, Control_c, 0, 64, 75
1, 344554, Control_c, 0, 64, 73
1, 344569, Control_c, 0, 64, 71
1, 344576, Note_on_c, 0, 34, 35
1, 344579, Note_on_c, 0, 46, 34
1, 344584, Control_c, 0, 64, 69
1, 344599, Control_c, 0, 64, 68
1, 344614, Control_c, 0, 64, 68
1, 344629, Control_c, 0, 64, 67
1, 344644, Control_c, 0, 64, 65
1, 344659, Control_c, 0, 64, 64
1, 344674, Control_c, 0, 64, 62
1, 344689, Control_c, 0, 64, 56
1, 344703, Control_c, 0, 64, 48
1, 344718, Control_c, 0, 64, 40
1, 344733, Control_c, 0, 64, 38
1, 344807, Control_c, 0, 64, 40
1, 344822, Control_c, 0, 64, 46
1, 344837, Control_c, 0, 64, 50
1, 344852, Control_c, 0, 64, 53
1, 344867, Control_c, 0, 64, 55
1, 344881, Control_c, 0, 64, 58
1, 344896, Control_c, 0, 64, 61
1, 344911, Control_c, 0, 64, 63
1, 344925, Control_c, 0, 64, 64
1, 344940, Control_c, 0, 64, 64
1, 344955, Control_c, 0, 64, 65
1, 344970, Control_c, 0, 64, 65
1, 344985, Control_c, 0, 64, 66
1, 344999, Control_c, 0, 64, 68
1, 345015, Control_c, 0, 64, 68
1, 345030, Control_c, 0, 64, 70
1, 345045, Control_c, 0, 64, 71
1, 345060, Control_c, 0, 64, 72
1, 345074, Control_c, 0, 64, 73
1, 345089, Control_c, 0, 64, 74
1, 345104, Control_c, 0, 64, 75
1, 345119, Control_c, 0, 64, 76
1, 345120, Note_on_c, 0, 58, 25
1, 345141, Control_c, 0, 64, 77
1, 345156, Control_c, 0, 64, 78
1, 345171, Control_c, 0, 64, 79
1, 345186, Control_c, 0, 64, 80
1, 345201, Control_c, 0, 64, 81
1, 345215, Control_c, 0, 64, 82
1, 345230, Control_c, 0, 64, 82
1, 345295, Note_on_c, 0, 49, 28
1, 345304, Control_c, 0, 64, 83
1, 345321, Note_off_c, 0, 58, 42
1, 345378, Control_c, 0, 64, 83
1, 345392, Note_on_c, 0, 53, 23
1, 345396, Note_off_c, 0, 34, 51
1, 345401, Note_off_c, 0, 46, 40
1, 345430, Note_off_c, 0, 49, 34
1, 345477, Note_off_c, 0, 53, 39
1, 345496, Note_on_c, 0, 58, 40
1, 345498, Note_on_c, 0, 45, 45
1, 345498, Control_c, 0, 67, 126
1, 345504, Note_on_c, 0, 33, 39
1, 345512, Control_c, 0, 67, 121
1, 345527, Control_c, 0, 67, 115
1, 345542, Control_c, 0, 67, 108
1, 345554, Note_off_c, 0, 58, 53
1, 345556, Control_c, 0, 67, 100
1, 345571, Control_c, 0, 67, 90
1, 345586, Control_c, 0, 67, 81
1, 345601, Control_c, 0, 67, 73
1, 345604, Note_on_c, 0, 48, 28
1, 345616, Control_c, 0, 67, 66
1, 345630, Control_c, 0, 67, 60
1, 345645, Control_c, 0, 67, 52
1, 345660, Control_c, 0, 67, 40
1, 345665, Note_off_c, 0, 45, 56
1, 345675, Control_c, 0, 67, 30
1, 345686, Note_on_c, 0, 52, 33
1, 345690, Note_off_c, 0, 33, 50
1, 345690, Control_c, 0, 67, 18
1, 345705, Control_c, 0, 67, 0
1, 345720, Note_off_c, 0, 48, 34
1, 345739, Note_off_c, 0, 52, 57
1, 345767, Note_on_c, 0, 58, 49
1, 345794, Control_c, 0, 64, 83
1, 345799, Note_on_c, 0, 42, 59
1, 345809, Control_c, 0, 64, 82
1, 345812, Note_on_c, 0, 30, 48
1, 345823, Control_c, 0, 64, 81
1, 345838, Control_c, 0, 64, 77
1, 345853, Control_c, 0, 64, 72
1, 345868, Control_c, 0, 64, 65
1, 345890, Control_c, 0, 64, 59
1, 345901, Note_off_c, 0, 58, 25
1, 345905, Control_c, 0, 64, 53
1, 345907, Note_on_c, 0, 47, 33
1, 345935, Control_c, 0, 64, 55
1, 345949, Control_c, 0, 64, 57
1, 345964, Control_c, 0, 64, 60
1, 345979, Control_c, 0, 64, 64
1, 345983, Note_on_c, 0, 51, 45
1, 345994, Control_c, 0, 64, 67
1, 346009, Control_c, 0, 64, 70
1, 346009, Control_c, 0, 67, 11
1, 346018, Note_off_c, 0, 47, 37
1, 346024, Control_c, 0, 64, 73
1, 346024, Control_c, 0, 67, 15
1, 346038, Control_c, 0, 64, 75
1, 346038, Control_c, 0, 67, 21
1, 346053, Control_c, 0, 64, 76
1, 346053, Control_c, 0, 67, 27
1, 346068, Control_c, 0, 64, 78
1, 346068, Control_c, 0, 67, 34
1, 346070, Note_on_c, 0, 58, 44
1, 346082, Control_c, 0, 64, 78
1, 346082, Control_c, 0, 67, 43
1, 346096, Note_off_c, 0, 51, 55
1, 346097, Control_c, 0, 67, 51
1, 346112, Control_c, 0, 67, 57
1, 346127, Control_c, 0, 67, 62
1, 346142, Control_c, 0, 67, 68
1, 346156, Control_c, 0, 64, 78
1, 346156, Control_c, 0, 67, 73
1, 346171, Control_c, 0, 67, 78
1, 346183, Note_on_c, 0, 48, 39
1, 346186, Control_c, 0, 67, 84
1, 346201, Control_c, 0, 67, 89
1, 346206, Note_off_c, 0, 58, 53
1, 346216, Control_c, 0, 64, 77
1, 346216, Control_c, 0, 67, 95
1, 346228, Note_off_c, 0, 48, 58
1, 346230, Control_c, 0, 67, 100
1, 346244, Note_off_c, 0, 30, 49
1, 346245, Control_c, 0, 64, 77
1, 346245, Control_c, 0, 67, 104
1, 346250, Note_on_c, 0, 52, 46
1, 346261, Control_c, 0, 67, 109
1, 346276, Control_c, 0, 64, 76
1, 346276, Control_c, 0, 67, 113
1, 346291, Control_c, 0, 64, 76
1, 346291, Control_c, 0, 67, 118
1, 346292, Note_off_c, 0, 42, 63
1, 346305, Control_c, 0, 64, 75
1, 346305, Control_c, 0, 67, 123
1, 346320, Control_c, 0, 67, 127
1, 346326, Note_off_c, 0, 52, 55
1, 346346, Note_on_c, 0, 58, 41
1, 346382, Note_on_c, 0, 43, 50
1, 346386, Note_on_c, 0, 31, 44
1, 346394, Control_c, 0, 64, 75
1, 346409, Control_c, 0, 64, 74
1, 346424, Control_c, 0, 64, 74
1, 346439, Control_c, 0, 64, 73
1, 346453, Control_c, 0, 64, 72
1, 346465, Note_off_c, 0, 31, 42
1, 346468, Control_c, 0, 64, 71
1, 346482, Note_on_c, 0, 49, 19
1, 346492, Note_off_c, 0, 43, 61
1, 346498, Control_c, 0, 64, 71
1, 346527, Note_off_c, 0, 58, 43
1, 346558, Control_c, 0, 64, 70
1, 346562, Note_on_c, 0, 53, 37
1, 346587, Control_c, 0, 64, 70
1, 346602, Control_c, 0, 64, 69
1, 346602, Note_off_c, 0, 49, 32
1, 346617, Control_c, 0, 64, 69
1, 346631, Note_off_c, 0, 53, 56
1, 346639, Control_c, 0, 64, 68
1, 346683, Control_c, 0, 64, 68
1, 346698, Control_c, 0, 64, 67
1, 346713, Control_c, 0, 64, 67
1, 346727, Control_c, 0, 64, 66
1, 346742, Control_c, 0, 64, 65
1, 346757, Note_on_c, 0, 46, 43
1, 346757, Control_c, 0, 64, 64
1, 346762, Note_on_c, 0, 34, 40
1, 346772, Control_c, 0, 64, 63
1, 346787, Control_c, 0, 64, 60
1, 346802, Control_c, 0, 64, 54
1, 346817, Control_c, 0, 64, 44
1, 346832, Control_c, 0, 64, 0
1, 347009, Control_c, 0, 64, 45
1, 347024, Control_c, 0, 64, 59
1, 347039, Control_c, 0, 64, 62
1, 347055, Control_c, 0, 64, 64
1, 347070, Control_c, 0, 64, 66
1, 347084, Control_c, 0, 64, 68
1, 347099, Control_c, 0, 64, 71
1, 347114, Control_c, 0, 64, 74
1, 347121, Note_on_c, 0, 58, 36
1, 347128, Control_c, 0, 64, 76
1, 347143, Control_c, 0, 64, 77
1, 347158, Control_c, 0, 64, 80
1, 347173, Control_c, 0, 64, 82
1, 347188, Control_c, 0, 64, 83
1, 347232, Control_c, 0, 64, 84
1, 347240, Note_on_c, 0, 48, 34
1, 347247, Control_c, 0, 64, 84
1, 347261, Control_c, 0, 64, 85
1, 347276, Control_c, 0, 64, 86
1, 347287, Note_off_c, 0, 58, 37
1, 347299, Note_off_c, 0, 46, 48
1, 347314, Note_on_c, 0, 52, 42
1, 347335, Note_off_c, 0, 48, 38
1, 347345, Note_off_c, 0, 34, 52
1, 347365, Note_off_c, 0, 52, 59
1, 347403, Note_on_c, 0, 58, 55
1, 347417, Note_on_c, 0, 45, 57
1, 347423, Note_on_c, 0, 33, 57
1, 347446, Control_c, 0, 67, 123
1, 347461, Control_c, 0, 67, 115
1, 347476, Control_c, 0, 67, 107
1, 347491, Control_c, 0, 67, 96
1, 347505, Control_c, 0, 67, 82
1, 347520, Control_c, 0, 67, 69
1, 347523, Note_on_c, 0, 47, 32
1, 347535, Control_c, 0, 67, 59
1, 347550, Note_off_c, 0, 45, 55
1, 347550, Control_c, 0, 64, 85
1, 347550, Control_c, 0, 67, 52
1, 347565, Control_c, 0, 67, 43
1, 347575, Note_off_c, 0, 33, 60
1, 347580, Control_c, 0, 67, 36
1, 347582, Note_off_c, 0, 58, 35
1, 347594, Note_on_c, 0, 51, 56
1, 347595, Control_c, 0, 67, 27
1, 347609, Control_c, 0, 67, 17
1, 347616, Note_off_c, 0, 47, 46
1, 347624, Control_c, 0, 67, 9
1, 347639, Control_c, 0, 67, 0
1, 347669, Control_c, 0, 64, 85
1, 347683, Control_c, 0, 64, 84
1, 347684, Note_on_c, 0, 41, 67
1, 347685, Note_off_c, 0, 51, 58
1, 347690, Note_on_c, 0, 58, 58
1, 347693, Note_on_c, 0, 29, 57
1, 347698, Control_c, 0, 64, 82
1, 347713, Control_c, 0, 64, 80
1, 347727, Control_c, 0, 64, 76
1, 347742, Control_c, 0, 64, 70
1, 347757, Control_c, 0, 64, 65
1, 347772, Control_c, 0, 64, 55
1, 347787, Control_c, 0, 64, 42
1, 347801, Control_c, 0, 64, 49
1, 347816, Control_c, 0, 64, 59
1, 347831, Note_on_c, 0, 46, 43
1, 347831, Control_c, 0, 64, 63
1, 347847, Control_c, 0, 64, 65
1, 347862, Control_c, 0, 64, 67
1, 347864, Note_off_c, 0, 58, 55
1, 347877, Control_c, 0, 64, 71
1, 347887, Note_on_c, 0, 50, 51
1, 347892, Control_c, 0, 64, 75
1, 347906, Control_c, 0, 64, 78
1, 347921, Control_c, 0, 64, 80
1, 347936, Control_c, 0, 64, 80
1, 347947, Note_off_c, 0, 46, 46
1, 347950, Control_c, 0, 64, 81
1, 347965, Control_c, 0, 64, 82
1, 347965, Control_c, 0, 67, 11
1, 347976, Note_off_c, 0, 50, 64
1, 347980, Control_c, 0, 67, 16
1, 347989, Note_on_c, 0, 58, 60
1, 347995, Control_c, 0, 67, 22
1, 348010, Control_c, 0, 67, 28
1, 348024, Control_c, 0, 67, 34
1, 348039, Control_c, 0, 67, 40
1, 348054, Note_off_c, 0, 41, 61
1, 348054, Control_c, 0, 67, 48
1, 348069, Control_c, 0, 67, 56
1, 348077, Note_off_c, 0, 29, 36
1, 348084, Control_c, 0, 67, 64
1, 348099, Control_c, 0, 67, 70
1, 348108, Note_on_c, 0, 47, 42
1, 348114, Control_c, 0, 64, 81
1, 348114, Control_c, 0, 67, 73
1, 348115, Note_off_c, 0, 58, 38
1, 348136, Control_c, 0, 64, 81
1, 348136, Control_c, 0, 67, 77
1, 348150, Note_on_c, 0, 51, 50
1, 348151, Control_c, 0, 67, 80
1, 348158, Note_off_c, 0, 47, 48
1, 348165, Control_c, 0, 64, 80
1, 348165, Control_c, 0, 67, 86
1, 348180, Control_c, 0, 64, 79
1, 348180, Control_c, 0, 67, 93
1, 348195, Control_c, 0, 64, 79
1, 348195, Control_c, 0, 67, 98
1, 348210, Control_c, 0, 64, 78
1, 348210, Control_c, 0, 67, 102
1, 348220, Note_off_c, 0, 51, 57
1, 348225, Control_c, 0, 64, 76
1, 348225, Control_c, 0, 67, 105
1, 348233, Note_on_c, 0, 58, 54
1, 348239, Control_c, 0, 64, 74
1, 348239, Control_c, 0, 67, 109
1, 348247, Note_on_c, 0, 42, 55
1, 348254, Control_c, 0, 64, 72
1, 348254, Control_c, 0, 67, 115
1, 348263, Note_on_c, 0, 30, 39
1, 348269, Control_c, 0, 64, 69
1, 348269, Control_c, 0, 67, 122
1, 348284, Control_c, 0, 64, 65
1, 348284, Control_c, 0, 67, 127
1, 348298, Control_c, 0, 64, 64
1, 348349, Note_on_c, 0, 48, 25
1, 348358, Control_c, 0, 64, 65
1, 348386, Note_off_c, 0, 58, 43
1, 348392, Note_off_c, 0, 30, 43
1, 348403, Control_c, 0, 64, 65
1, 348418, Control_c, 0, 64, 66
1, 348425, Note_on_c, 0, 52, 36
1, 348432, Control_c, 0, 64, 66
1, 348462, Control_c, 0, 64, 67
1, 348476, Control_c, 0, 64, 69
1, 348491, Control_c, 0, 64, 70
1, 348506, Control_c, 0, 64, 71
1, 348565, Control_c, 0, 64, 70
1, 348570, Note_off_c, 0, 48, 42
1, 348582, Note_off_c, 0, 42, 35
1, 348595, Control_c, 0, 64, 70
1, 348610, Control_c, 0, 64, 69
1, 348624, Control_c, 0, 64, 68
1, 348631, Note_on_c, 0, 34, 40
1, 348639, Control_c, 0, 64, 67
1, 348647, Note_off_c, 0, 52, 40
1, 348655, Control_c, 0, 64, 65
1, 348670, Control_c, 0, 64, 63
1, 348685, Control_c, 0, 64, 56
1, 348699, Control_c, 0, 64, 44
1, 348714, Control_c, 0, 64, 29
1, 348729, Control_c, 0, 64, 17
1, 348744, Control_c, 0, 64, 11
1, 348769, Note_on_c, 0, 46, 41
1, 348803, Control_c, 0, 64, 24
1, 348818, Control_c, 0, 64, 38
1, 348828, Note_on_c, 0, 48, 16
1, 348833, Control_c, 0, 64, 48
1, 348847, Control_c, 0, 64, 54
1, 348862, Control_c, 0, 64, 60
1, 348885, Control_c, 0, 64, 63
1, 348899, Control_c, 0, 64, 65
1, 348914, Control_c, 0, 64, 66
1, 348929, Control_c, 0, 64, 68
1, 348944, Control_c, 0, 64, 70
1, 348959, Control_c, 0, 64, 71
1, 348973, Control_c, 0, 64, 72
1, 348976, Note_on_c, 0, 52, 39
1, 348988, Control_c, 0, 64, 74
1, 349003, Control_c, 0, 64, 75
1, 349005, Note_off_c, 0, 48, 50
1, 349018, Control_c, 0, 64, 76
1, 349033, Control_c, 0, 64, 77
1, 349047, Control_c, 0, 64, 78
1, 349062, Control_c, 0, 64, 79
1, 349076, Note_off_c, 0, 52, 53
1, 349077, Control_c, 0, 64, 80
1, 349092, Control_c, 0, 64, 81
1, 349106, Control_c, 0, 64, 82
1, 349107, Note_on_c, 0, 58, 41
1, 349121, Control_c, 0, 64, 82
1, 349151, Control_c, 0, 64, 83
1, 349166, Control_c, 0, 64, 84
1, 349181, Control_c, 0, 64, 85
1, 349196, Control_c, 0, 64, 86
1, 349211, Control_c, 0, 64, 86
1, 349212, Note_off_c, 0, 46, 41
1, 349224, Note_on_c, 0, 49, 36
1, 349240, Control_c, 0, 64, 87
1, 349270, Control_c, 0, 64, 87
1, 349273, Note_off_c, 0, 58, 42
1, 349276, Note_off_c, 0, 34, 40
1, 349285, Note_off_c, 0, 49, 56
1, 349301, Note_on_c, 0, 53, 38
1, 349349, Note_on_c, 0, 45, 42
1, 349374, Note_on_c, 0, 33, 43
1, 349407, Note_off_c, 0, 53, 49
1, 349410, Note_on_c, 0, 59, 54
1, 349461, Note_off_c, 0, 45, 45
1, 349493, Control_c, 0, 64, 87
1, 349498, Note_on_c, 0, 50, 42
1, 349500, Note_off_c, 0, 33, 55
1, 349516, Note_off_c, 0, 59, 52
1, 349536, Control_c, 0, 64, 86
1, 349547, Note_off_c, 0, 50, 63
1, 349577, Note_on_c, 0, 54, 50
1, 349581, Control_c, 0, 64, 86
1, 349633, Control_c, 0, 64, 85
1, 349648, Control_c, 0, 64, 84
1, 349663, Control_c, 0, 64, 83
1, 349677, Control_c, 0, 64, 81
1, 349679, Note_on_c, 0, 40, 52
1, 349682, Note_on_c, 0, 28, 47
1, 349692, Control_c, 0, 64, 78
1, 349706, Note_on_c, 0, 58, 55
1, 349707, Control_c, 0, 64, 73
1, 349721, Control_c, 0, 64, 68
1, 349736, Control_c, 0, 64, 62
1, 349751, Control_c, 0, 64, 60
1, 349760, Note_off_c, 0, 54, 36
1, 349766, Control_c, 0, 64, 63
1, 349781, Control_c, 0, 64, 65
1, 349795, Control_c, 0, 64, 67
1, 349810, Control_c, 0, 64, 70
1, 349814, Note_on_c, 0, 49, 54
1, 349825, Control_c, 0, 64, 73
1, 349825, Control_c, 0, 67, 126
1, 349840, Control_c, 0, 64, 76
1, 349840, Control_c, 0, 67, 121
1, 349855, Control_c, 0, 64, 79
1, 349855, Control_c, 0, 67, 116
1, 349869, Control_c, 0, 64, 80
1, 349869, Control_c, 0, 67, 111
1, 349878, Note_off_c, 0, 58, 38
1, 349884, Control_c, 0, 64, 80
1, 349884, Control_c, 0, 67, 106
1, 349899, Control_c, 0, 67, 102
1, 349902, Note_on_c, 0, 53, 45
1, 349914, Control_c, 0, 67, 98
1, 349917, Note_off_c, 0, 49, 60
1, 349929, Control_c, 0, 64, 81
1, 349929, Control_c, 0, 67, 93
1, 349944, Control_c, 0, 67, 86
1, 349959, Control_c, 0, 67, 80
1, 349964, Note_on_c, 0, 57, 60
1, 349974, Control_c, 0, 64, 81
1, 349974, Control_c, 0, 67, 74
1, 349984, Note_off_c, 0, 53, 54
1, 349989, Control_c, 0, 67, 69
1, 350003, Control_c, 0, 67, 61
1, 350011, Note_off_c, 0, 28, 40
1, 350018, Control_c, 0, 67, 51
1, 350033, Control_c, 0, 67, 38
1, 350047, Control_c, 0, 67, 24
1, 350048, Note_off_c, 0, 40, 63
1, 350049, Note_on_c, 0, 48, 48
1, 350060, Note_off_c, 0, 57, 58
1, 350062, Control_c, 0, 64, 82
1, 350062, Control_c, 0, 67, 8
1, 350077, Control_c, 0, 67, 0
1, 350092, Control_c, 0, 64, 82
1, 350102, Note_off_c, 0, 48, 58
1, 350105, Note_on_c, 0, 52, 47
1, 350108, Poly_aftertouch_c, 0, 32, 127
1, 350184, Note_off_c, 0, 52, 57
1, 350199, Note_on_c, 0, 56, 60
1, 350206, Note_on_c, 0, 29, 59
1, 350207, Note_on_c, 0, 41, 63
1, 350310, Note_on_c, 0, 47, 39
1, 350311, Note_off_c, 0, 29, 55
1, 350315, Control_c, 0, 64, 82
1, 350335, Poly_aftertouch_c, 0, 32, 0
1, 350348, Note_off_c, 0, 41, 62
1, 350359, Note_off_c, 0, 47, 55
1, 350379, Note_on_c, 0, 51, 49
1, 350385, Note_off_c, 0, 56, 38
1, 350426, Control_c, 0, 64, 81
1, 350441, Control_c, 0, 64, 81
1, 350456, Control_c, 0, 64, 79
1, 350471, Control_c, 0, 64, 77
1, 350483, Note_on_c, 0, 57, 63
1, 350485, Control_c, 0, 64, 73
1, 350493, Note_off_c, 0, 51, 54
1, 350497, Note_on_c, 0, 34, 54
1, 350500, Control_c, 0, 64, 68
1, 350505, Note_on_c, 0, 46, 54
1, 350515, Control_c, 0, 64, 64
1, 350530, Control_c, 0, 64, 56
1, 350544, Control_c, 0, 64, 42
1, 350559, Control_c, 0, 64, 37
1, 350574, Control_c, 0, 64, 41
1, 350583, Note_on_c, 0, 48, 44
1, 350589, Control_c, 0, 64, 54
1, 350604, Control_c, 0, 64, 61
1, 350618, Control_c, 0, 64, 64
1, 350633, Control_c, 0, 64, 65
1, 350648, Control_c, 0, 64, 67
1, 350656, Note_off_c, 0, 48, 61
1, 350662, Note_off_c, 0, 57, 61
1, 350663, Control_c, 0, 64, 70
1, 350677, Control_c, 0, 64, 73
1, 350680, Note_on_c, 0, 52, 50
1, 350692, Control_c, 0, 64, 76
1, 350695, Note_on_c, 0, 55, 3
1, 350707, Control_c, 0, 64, 78
1, 350722, Control_c, 0, 64, 78
1, 350749, Note_off_c, 0, 55, 40
1, 350752, Control_c, 0, 64, 79
1, 350760, Note_off_c, 0, 52, 60
1, 350770, Note_on_c, 0, 58, 64
1, 350811, Control_c, 0, 67, 9
1, 350826, Control_c, 0, 67, 11
1, 350841, Control_c, 0, 67, 12
1, 350856, Control_c, 0, 67, 13
1, 350860, Note_off_c, 0, 46, 34
1, 350870, Control_c, 0, 67, 16
1, 350871, Note_on_c, 0, 49, 56
1, 350882, Note_off_c, 0, 34, 53
1, 350885, Control_c, 0, 67, 19
1, 350900, Control_c, 0, 64, 78
1, 350900, Control_c, 0, 67, 24
1, 350909, Note_off_c, 0, 49, 59
1, 350913, Note_off_c, 0, 58, 53
1, 350915, Control_c, 0, 67, 29
1, 350929, Note_on_c, 0, 53, 52
1, 350930, Control_c, 0, 67, 32
1, 350944, Control_c, 0, 67, 36
1, 350959, Control_c, 0, 67, 37
1, 350974, Control_c, 0, 64, 78
1, 350974, Control_c, 0, 67, 39
1, 350989, Control_c, 0, 67, 39
1, 350997, Note_on_c, 0, 45, 49
1, 351004, Control_c, 0, 64, 77
1, 351004, Control_c, 0, 67, 40
1, 351011, Note_on_c, 0, 33, 43
1, 351018, Control_c, 0, 67, 41
1, 351033, Control_c, 0, 67, 43
1, 351036, Note_on_c, 0, 59, 60
1, 351036, Note_off_c, 0, 53, 61
1, 351049, Control_c, 0, 67, 45
1, 351057, Note_off_c, 0, 45, 55
1, 351064, Control_c, 0, 64, 77
1, 351064, Control_c, 0, 67, 48
1, 351079, Control_c, 0, 67, 50
1, 351093, Control_c, 0, 64, 76
1, 351093, Control_c, 0, 67, 52
1, 351108, Control_c, 0, 67, 54
1, 351118, Note_on_c, 0, 50, 38
1, 351130, Control_c, 0, 67, 55
1, 351133, Note_off_c, 0, 33, 56
1, 351145, Control_c, 0, 67, 57
1, 351160, Control_c, 0, 64, 76
1, 351160, Control_c, 0, 67, 60
1, 351171, Note_off_c, 0, 59, 60
1, 351172, Note_off_c, 0, 50, 64
1, 351175, Control_c, 0, 67, 63
1, 351190, Control_c, 0, 67, 66
1, 351193, Note_on_c, 0, 54, 51
1, 351205, Control_c, 0, 67, 69
1, 351220, Control_c, 0, 67, 71
1, 351235, Control_c, 0, 64, 75
1, 351235, Control_c, 0, 67, 73
1, 351249, Control_c, 0, 67, 74
1, 351264, Control_c, 0, 64, 75
1, 351264, Control_c, 0, 67, 76
1, 351279, Control_c, 0, 64, 74
1, 351279, Control_c, 0, 67, 77
1, 351293, Control_c, 0, 64, 72
1, 351293, Control_c, 0, 67, 78
1, 351308, Control_c, 0, 64, 69
1, 351308, Control_c, 0, 67, 79
1, 351309, Note_on_c, 0, 28, 39
1, 351309, Note_on_c, 0, 40, 43
1, 351323, Control_c, 0, 64, 65
1, 351323, Control_c, 0, 67, 80
1, 351327, Note_on_c, 0, 58, 56
1, 351338, Control_c, 0, 64, 60
1, 351338, Control_c, 0, 67, 81
1, 351353, Control_c, 0, 64, 52
1, 351353, Control_c, 0, 67, 83
1, 351363, Note_off_c, 0, 54, 58
1, 351367, Control_c, 0, 64, 50
1, 351367, Control_c, 0, 67, 85
1, 351382, Control_c, 0, 64, 52
1, 351382, Control_c, 0, 67, 87
1, 351397, Control_c, 0, 64, 55
1, 351397, Control_c, 0, 67, 89
1, 351412, Control_c, 0, 64, 59
1, 351412, Control_c, 0, 67, 91
1, 351427, Control_c, 0, 64, 62
1, 351427, Control_c, 0, 67, 93
1, 351441, Control_c, 0, 64, 65
1, 351441, Control_c, 0, 67, 95
1, 351442, Note_on_c, 0, 49, 45
1, 351456, Control_c, 0, 64, 66
1, 351456, Control_c, 0, 67, 97
1, 351471, Control_c, 0, 64, 68
1, 351471, Control_c, 0, 67, 100
1, 351486, Control_c, 0, 64, 70
1, 351486, Control_c, 0, 67, 104
1, 351500, Control_c, 0, 64, 72
1, 351500, Control_c, 0, 67, 109
1, 351515, Control_c, 0, 64, 74
1, 351515, Control_c, 0, 67, 112
1, 351516, Note_off_c, 0, 58, 38
1, 351530, Control_c, 0, 64, 75
1, 351530, Control_c, 0, 67, 114
1, 351531, Note_on_c, 0, 53, 39
1, 351545, Control_c, 0, 64, 76
1, 351545, Control_c, 0, 67, 117
1, 351560, Control_c, 0, 67, 121
1, 351562, Note_off_c, 0, 49, 56
1, 351574, Control_c, 0, 67, 124
1, 351589, Control_c, 0, 67, 127
1, 351604, Control_c, 0, 64, 76
1, 351608, Note_off_c, 0, 28, 41
1, 351611, Note_on_c, 0, 57, 52
1, 351645, Note_off_c, 0, 53, 38
1, 351669, Note_off_c, 0, 40, 43
1, 351709, Note_on_c, 0, 48, 33
1, 351723, Control_c, 0, 64, 76
1, 351769, Note_off_c, 0, 57, 38
1, 351771, Note_off_c, 0, 48, 45
1, 351798, Note_on_c, 0, 52, 38
1, 351812, Control_c, 0, 64, 75
1, 351843, Control_c, 0, 64, 75
1, 351858, Control_c, 0, 64, 74
1, 351875, Note_off_c, 0, 52, 48
1, 351880, Control_c, 0, 64, 74
1, 351895, Control_c, 0, 64, 73
1, 351910, Control_c, 0, 64, 72
1, 351925, Note_on_c, 0, 56, 47
1, 351926, Note_on_c, 0, 29, 35
1, 351927, Note_on_c, 0, 41, 39
1, 352013, Control_c, 0, 64, 73
1, 352041, Note_off_c, 0, 29, 39
1, 352068, Note_on_c, 0, 47, 16
1, 352072, Control_c, 0, 64, 73
1, 352087, Control_c, 0, 64, 74
1, 352102, Control_c, 0, 64, 75
1, 352147, Control_c, 0, 64, 75
1, 352156, Note_off_c, 0, 41, 55
1, 352177, Control_c, 0, 64, 76
1, 352188, Note_off_c, 0, 56, 54
1, 352213, Note_on_c, 0, 51, 36
1, 352295, Control_c, 0, 64, 75
1, 352339, Control_c, 0, 64, 75
1, 352369, Control_c, 0, 64, 74
1, 352415, Note_on_c, 0, 34, 34
1, 352418, Note_on_c, 0, 42, 43
1, 352428, Control_c, 0, 64, 73
1, 352431, Note_off_c, 0, 47, 34
1, 352442, Control_c, 0, 64, 72
1, 352455, Note_on_c, 0, 57, 45
1, 352457, Control_c, 0, 64, 70
1, 352472, Control_c, 0, 64, 67
1, 352484, Note_off_c, 0, 51, 48
1, 352487, Control_c, 0, 64, 63
1, 352502, Control_c, 0, 64, 57
1, 352516, Control_c, 0, 64, 32
1, 352531, Control_c, 0, 64, 0
1, 352733, Control_c, 0, 64, 40
1, 352745, Note_on_c, 0, 51, 31
1, 352747, Control_c, 0, 64, 53
1, 352762, Control_c, 0, 64, 58
1, 352777, Control_c, 0, 64, 62
1, 352792, Control_c, 0, 64, 64
1, 352807, Control_c, 0, 64, 66
1, 352821, Control_c, 0, 64, 68
1, 352836, Control_c, 0, 64, 69
1, 352851, Control_c, 0, 64, 70
1, 352865, Control_c, 0, 64, 71
1, 352880, Control_c, 0, 64, 72
1, 352895, Control_c, 0, 64, 74
1, 352910, Control_c, 0, 64, 76
1, 352911, Note_on_c, 0, 50, 38
1, 352911, Note_off_c, 0, 57, 33
1, 352925, Control_c, 0, 64, 77
1, 352937, Note_off_c, 0, 51, 47
1, 352940, Control_c, 0, 64, 78
1, 352955, Control_c, 0, 64, 79
1, 352962, Note_off_c, 0, 42, 55
1, 352969, Control_c, 0, 64, 81
1, 352984, Control_c, 0, 64, 83
1, 352996, Note_off_c, 0, 50, 63
1, 352999, Control_c, 0, 64, 83
1, 353014, Control_c, 0, 64, 84
1, 353029, Control_c, 0, 64, 84
1, 353044, Control_c, 0, 64, 85
1, 353045, Note_on_c, 0, 41, 45
1, 353053, Note_on_c, 0, 49, 49
1, 353122, Note_off_c, 0, 49, 47
1, 353175, Note_on_c, 0, 53, 40
1, 353177, Control_c, 0, 64, 84
1, 353207, Control_c, 0, 64, 84
1, 353233, Note_off_c, 0, 53, 57
1, 353236, Control_c, 0, 64, 83
1, 353250, Control_c, 0, 64, 83
1, 353259, Note_on_c, 0, 58, 52
1, 353265, Control_c, 0, 64, 81
1, 353279, Control_c, 0, 64, 79
1, 353294, Control_c, 0, 64, 75
1, 353309, Control_c, 0, 64, 71
1, 353324, Control_c, 0, 64, 68
1, 353339, Control_c, 0, 64, 69
1, 353342, Note_on_c, 0, 40, 46
1, 353351, Note_off_c, 0, 58, 55
1, 353354, Control_c, 0, 64, 70
1, 353354, Note_on_c, 0, 59, 55
1, 353376, Control_c, 0, 64, 71
1, 353391, Control_c, 0, 64, 72
1, 353406, Control_c, 0, 64, 74
1, 353417, Note_off_c, 0, 59, 59
1, 353420, Control_c, 0, 64, 76
1, 353425, Note_off_c, 0, 41, 44
1, 353435, Control_c, 0, 64, 77
1, 353444, Note_on_c, 0, 50, 32
1, 353451, Control_c, 0, 64, 78
1, 353486, Note_off_c, 0, 50, 55
1, 353495, Control_c, 0, 64, 78
1, 353513, Note_on_c, 0, 49, 48
1, 353540, Control_c, 0, 64, 78
1, 353546, Note_off_c, 0, 49, 64
1, 353555, Control_c, 0, 64, 77
1, 353569, Control_c, 0, 64, 75
1, 353584, Control_c, 0, 64, 72
1, 353588, Note_on_c, 0, 39, 58
1, 353588, Note_on_c, 0, 48, 45
1, 353599, Control_c, 0, 64, 68
1, 353613, Note_off_c, 0, 40, 53
1, 353614, Control_c, 0, 64, 67
1, 353625, Note_off_c, 0, 48, 50
1, 353629, Control_c, 0, 64, 68
1, 353643, Control_c, 0, 64, 69
1, 353658, Control_c, 0, 64, 70
1, 353673, Control_c, 0, 64, 71
1, 353675, Note_on_c, 0, 54, 46
1, 353688, Control_c, 0, 64, 73
1, 353703, Control_c, 0, 64, 75
1, 353718, Control_c, 0, 64, 77
1, 353729, Note_off_c, 0, 54, 61
1, 353733, Control_c, 0, 64, 77
1, 353749, Note_on_c, 0, 59, 44
1, 353798, Note_off_c, 0, 59, 59
1, 353806, Note_on_c, 0, 60, 62
1, 353810, Note_on_c, 0, 38, 59
1, 353834, Note_off_c, 0, 39, 58
1, 353837, Control_c, 0, 64, 78
1, 353847, Note_off_c, 0, 60, 61
1, 353881, Control_c, 0, 64, 78
1, 353895, Control_c, 0, 64, 79
1, 353901, Note_on_c, 0, 56, 41
1, 353910, Control_c, 0, 64, 79
1, 353938, Note_off_c, 0, 56, 64
1, 353977, Note_on_c, 0, 54, 51
1, 354011, Note_off_c, 0, 54, 68
1, 354027, Note_off_c, 0, 38, 61
1, 354031, Note_on_c, 0, 37, 66
1, 354052, Note_on_c, 0, 53, 46
1, 354053, Note_off_c, 0, 34, 52
1, 354120, Note_on_c, 0, 58, 53
1, 354125, Control_c, 0, 64, 79
1, 354140, Control_c, 0, 64, 78
1, 354170, Note_off_c, 0, 37, 37
1, 354170, Note_off_c, 0, 53, 38
1, 354173, Note_on_c, 0, 34, 62
1, 354191, Note_on_c, 0, 61, 51
1, 354199, Control_c, 0, 64, 78
1, 354207, Note_off_c, 0, 58, 33
1, 354228, Control_c, 0, 64, 77
1, 354260, Control_c, 0, 64, 77
1, 354269, Note_off_c, 0, 34, 62
1, 354274, Control_c, 0, 64, 75
1, 354289, Control_c, 0, 64, 73
1, 354304, Control_c, 0, 64, 69
1, 354318, Control_c, 0, 64, 65
1, 354323, Note_off_c, 0, 61, 52
1, 354333, Control_c, 0, 64, 62
1, 354338, Note_on_c, 0, 63, 54
1, 354341, Note_on_c, 0, 49, 80
1, 354348, Control_c, 0, 64, 59
1, 354363, Control_c, 0, 64, 60
1, 354378, Control_c, 0, 64, 64
1, 354392, Control_c, 0, 64, 66
1, 354407, Control_c, 0, 64, 68
1, 354422, Control_c, 0, 64, 71
1, 354437, Control_c, 0, 64, 73
1, 354451, Note_on_c, 0, 58, 47
1, 354452, Note_off_c, 0, 63, 49
1, 354452, Control_c, 0, 64, 76
1, 354466, Control_c, 0, 64, 78
1, 354481, Control_c, 0, 64, 81
1, 354496, Control_c, 0, 64, 81
1, 354509, Note_off_c, 0, 58, 54
1, 354511, Control_c, 0, 64, 82
1, 354547, Note_on_c, 0, 56, 44
1, 354572, Note_off_c, 0, 49, 64
1, 354578, Note_off_c, 0, 56, 55
1, 354613, Note_on_c, 0, 55, 49
1, 354636, Note_on_c, 0, 48, 78
1, 354694, Note_on_c, 0, 58, 43
1, 354733, Control_c, 0, 64, 81
1, 354749, Note_on_c, 0, 63, 55
1, 354752, Note_off_c, 0, 55, 59
1, 354755, Note_off_c, 0, 58, 49
1, 354831, Note_on_c, 0, 64, 55
1, 354833, Note_off_c, 0, 63, 59
1, 354837, Control_c, 0, 64, 81
1, 354852, Note_on_c, 0, 47, 76
1, 354874, Control_c, 0, 64, 80
1, 354900, Note_off_c, 0, 48, 61
1, 354907, Note_on_c, 0, 61, 60
1, 354911, Note_off_c, 0, 64, 60
1, 354960, Note_off_c, 0, 61, 55
1, 354983, Note_on_c, 0, 57, 51
1, 355008, Control_c, 0, 64, 80
1, 355038, Control_c, 0, 64, 79
1, 355053, Control_c, 0, 64, 76
1, 355068, Note_on_c, 0, 46, 81
1, 355068, Control_c, 0, 64, 73
1, 355075, Note_on_c, 0, 56, 56
1, 355076, Note_off_c, 0, 57, 50
1, 355083, Control_c, 0, 64, 70
1, 355098, Control_c, 0, 64, 68
1, 355110, Note_off_c, 0, 47, 62
1, 355113, Control_c, 0, 64, 69
1, 355128, Control_c, 0, 64, 71
1, 355138, Note_on_c, 0, 62, 58
1, 355142, Control_c, 0, 64, 72
1, 355145, Note_off_c, 0, 56, 62
1, 355157, Control_c, 0, 64, 73
1, 355172, Control_c, 0, 64, 75
1, 355187, Control_c, 0, 64, 76
1, 355200, Note_off_c, 0, 62, 64
1, 355202, Control_c, 0, 64, 78
1, 355212, Note_on_c, 0, 64, 54
1, 355216, Control_c, 0, 64, 79
1, 355231, Control_c, 0, 64, 79
1, 355236, Note_off_c, 0, 64, 61
1, 355246, Control_c, 0, 67, 126
1, 355260, Control_c, 0, 64, 80
1, 355260, Control_c, 0, 67, 122
1, 355275, Control_c, 0, 67, 117
1, 355286, Note_on_c, 0, 45, 78
1, 355290, Control_c, 0, 64, 80
1, 355290, Control_c, 0, 67, 110
1, 355299, Note_on_c, 0, 66, 70
1, 355305, Control_c, 0, 64, 81
1, 355305, Control_c, 0, 67, 101
1, 355309, Note_off_c, 0, 46, 61
1, 355320, Control_c, 0, 64, 82
1, 355320, Control_c, 0, 67, 93
1, 355334, Control_c, 0, 64, 83
1, 355334, Control_c, 0, 67, 84
1, 355349, Control_c, 0, 64, 84
1, 355349, Control_c, 0, 67, 72
1, 355361, Note_off_c, 0, 66, 61
1, 355364, Control_c, 0, 64, 84
1, 355364, Control_c, 0, 67, 61
1, 355372, Note_on_c, 0, 61, 51
1, 355379, Control_c, 0, 67, 51
1, 355394, Control_c, 0, 67, 42
1, 355406, Note_off_c, 0, 61, 51
1, 355408, Control_c, 0, 67, 33
1, 355413, Note_on_c, 0, 60, 67
1, 355423, Control_c, 0, 67, 23
1, 355438, Control_c, 0, 64, 85
1, 355438, Control_c, 0, 67, 0
1, 355482, Note_off_c, 0, 60, 55
1, 355487, Note_on_c, 0, 44, 82
1, 355494, Note_off_c, 0, 45, 65
1, 355496, Note_on_c, 0, 59, 59
1, 355538, Note_off_c, 0, 44, 62
1, 355551, Note_off_c, 0, 59, 60
1, 355557, Note_on_c, 0, 63, 67
1, 355618, Note_off_c, 0, 63, 63
1, 355624, Note_on_c, 0, 34, 73
1, 355651, Note_on_c, 0, 67, 59
1, 355664, Note_off_c, 0, 34, 61
1, 355727, Control_c, 0, 64, 84
1, 355728, Note_off_c, 0, 67, 62
1, 355739, Note_on_c, 0, 68, 68
1, 355742, Control_c, 0, 64, 83
1, 355757, Control_c, 0, 64, 80
1, 355771, Note_on_c, 0, 54, 90
1, 355772, Control_c, 0, 64, 75
1, 355786, Control_c, 0, 64, 69
1, 355801, Control_c, 0, 64, 65
1, 355831, Control_c, 0, 64, 67
1, 355846, Control_c, 0, 64, 68
1, 355858, Note_on_c, 0, 63, 60
1, 355859, Note_off_c, 0, 68, 57
1, 355861, Control_c, 0, 64, 71
1, 355876, Control_c, 0, 64, 73
1, 355891, Control_c, 0, 64, 77
1, 355906, Control_c, 0, 64, 81
1, 355921, Control_c, 0, 64, 84
1, 355935, Control_c, 0, 64, 86
1, 355943, Note_off_c, 0, 63, 56
1, 355950, Note_on_c, 0, 61, 63
1, 355950, Control_c, 0, 64, 88
1, 355965, Control_c, 0, 64, 89
1, 355980, Control_c, 0, 64, 90
1, 356010, Note_off_c, 0, 61, 64
1, 356014, Note_off_c, 0, 54, 64
1, 356040, Note_on_c, 0, 60, 59
1, 356050, Note_on_c, 0, 53, 88
1, 356110, Note_on_c, 0, 63, 58
1, 356162, Note_off_c, 0, 60, 56
1, 356190, Note_on_c, 0, 68, 67
1, 356212, Note_off_c, 0, 63, 55
1, 356258, Note_on_c, 0, 52, 81
1, 356262, Note_on_c, 0, 69, 71
1, 356266, Note_off_c, 0, 68, 59
1, 356292, Note_off_c, 0, 53, 64
1, 356320, Control_c, 0, 64, 90
1, 356330, Note_on_c, 0, 66, 66
1, 356335, Control_c, 0, 64, 89
1, 356344, Note_off_c, 0, 69, 58
1, 356350, Control_c, 0, 64, 89
1, 356387, Control_c, 0, 64, 88
1, 356403, Note_off_c, 0, 66, 60
1, 356412, Note_on_c, 0, 62, 62
1, 356431, Control_c, 0, 64, 88
1, 356446, Control_c, 0, 64, 87
1, 356451, Note_on_c, 0, 51, 84
1, 356461, Control_c, 0, 64, 85
1, 356463, Note_on_c, 0, 46, 78
1, 356476, Control_c, 0, 64, 80
1, 356490, Note_off_c, 0, 52, 61
1, 356490, Control_c, 0, 64, 74
1, 356505, Note_on_c, 0, 61, 54
1, 356505, Control_c, 0, 64, 68
1, 356520, Note_off_c, 0, 62, 39
1, 356520, Control_c, 0, 64, 65
1, 356535, Control_c, 0, 64, 65
1, 356550, Control_c, 0, 64, 67
1, 356558, Note_on_c, 0, 67, 62
1, 356564, Control_c, 0, 64, 70
1, 356571, Note_off_c, 0, 61, 62
1, 356579, Control_c, 0, 64, 74
1, 356594, Control_c, 0, 64, 79
1, 356609, Control_c, 0, 64, 84
1, 356613, Note_off_c, 0, 67, 63
1, 356624, Control_c, 0, 64, 87
1, 356624, Note_on_c, 0, 69, 59
1, 356640, Control_c, 0, 64, 88
1, 356655, Control_c, 0, 64, 88
1, 356662, Note_off_c, 0, 69, 54
1, 356669, Note_on_c, 0, 50, 81
1, 356681, Note_off_c, 0, 51, 66
1, 356700, Note_on_c, 0, 70, 77
1, 356771, Note_on_c, 0, 66, 77
1, 356787, Note_off_c, 0, 70, 62
1, 356826, Note_off_c, 0, 66, 61
1, 356839, Note_on_c, 0, 64, 69
1, 356863, Note_off_c, 0, 46, 61
1, 356867, Note_on_c, 0, 49, 83
1, 356871, Note_off_c, 0, 50, 65
1, 356896, Note_off_c, 0, 49, 68
1, 356913, Note_on_c, 0, 63, 72
1, 356931, Note_off_c, 0, 64, 50
1, 356976, Note_on_c, 0, 67, 68
1, 357007, Note_on_c, 0, 34, 77
1, 357011, Note_off_c, 0, 63, 60
1, 357050, Note_off_c, 0, 34, 59
1, 357067, Note_off_c, 0, 67, 63
1, 357068, Note_on_c, 0, 71, 82
1, 357121, Control_c, 0, 64, 88
1, 357128, Note_off_c, 0, 71, 65
1, 357136, Control_c, 0, 64, 87
1, 357151, Control_c, 0, 64, 87
1, 357166, Control_c, 0, 64, 86
1, 357181, Control_c, 0, 64, 86
1, 357195, Control_c, 0, 64, 84
1, 357202, Note_on_c, 0, 58, 82
1, 357210, Control_c, 0, 64, 81
1, 357225, Control_c, 0, 64, 75
1, 357230, Note_on_c, 0, 72, 80
1, 357239, Control_c, 0, 64, 66
1, 357254, Control_c, 0, 64, 56
1, 357269, Control_c, 0, 64, 53
1, 357284, Control_c, 0, 64, 61
1, 357299, Control_c, 0, 64, 65
1, 357313, Control_c, 0, 64, 68
1, 357328, Control_c, 0, 64, 73
1, 357343, Control_c, 0, 64, 77
1, 357348, Note_on_c, 0, 68, 70
1, 357358, Control_c, 0, 64, 80
1, 357368, Note_off_c, 0, 72, 63
1, 357373, Control_c, 0, 64, 83
1, 357387, Control_c, 0, 64, 84
1, 357402, Control_c, 0, 64, 84
1, 357414, Note_off_c, 0, 68, 61
1, 357417, Control_c, 0, 64, 85
1, 357429, Note_on_c, 0, 66, 77
1, 357456, Note_off_c, 0, 58, 62
1, 357498, Note_on_c, 0, 57, 71
1, 357509, Note_off_c, 0, 66, 61
1, 357517, Note_on_c, 0, 65, 78
1, 357551, Control_c, 0, 64, 84
1, 357584, Note_on_c, 0, 69, 73
1, 357658, Note_on_c, 0, 73, 83
1, 357675, Note_off_c, 0, 65, 58
1, 357677, Note_off_c, 0, 69, 61
1, 357716, Note_on_c, 0, 56, 68
1, 357735, Note_off_c, 0, 57, 56
1, 357738, Note_on_c, 0, 74, 79
1, 357780, Note_off_c, 0, 73, 62
1, 357804, Control_c, 0, 64, 84
1, 357807, Note_on_c, 0, 66, 67
1, 357848, Control_c, 0, 64, 83
1, 357902, Note_on_c, 0, 64, 68
1, 357906, Note_off_c, 0, 74, 62
1, 357912, Note_off_c, 0, 66, 61
1, 357915, Control_c, 0, 64, 83
1, 357931, Note_off_c, 0, 64, 68
1, 357956, Note_on_c, 0, 55, 59
1, 357959, Control_c, 0, 64, 82
1, 357968, Note_on_c, 0, 46, 52
1, 357974, Control_c, 0, 64, 82
1, 357989, Control_c, 0, 64, 80
1, 358004, Control_c, 0, 64, 76
1, 358018, Control_c, 0, 64, 71
1, 358023, Note_on_c, 0, 63, 74
1, 358033, Control_c, 0, 64, 65
1, 358048, Control_c, 0, 64, 59
1, 358055, Note_off_c, 0, 56, 56
1, 358062, Control_c, 0, 64, 48
1, 358077, Control_c, 0, 64, 48
1, 358092, Control_c, 0, 64, 59
1, 358107, Control_c, 0, 64, 63
1, 358122, Control_c, 0, 64, 65
1, 358123, Note_on_c, 0, 71, 63
1, 358136, Control_c, 0, 64, 68
1, 358151, Control_c, 0, 64, 71
1, 358166, Control_c, 0, 64, 74
1, 358180, Control_c, 0, 64, 78
1, 358195, Control_c, 0, 64, 82
1, 358210, Control_c, 0, 64, 83
1, 358225, Control_c, 0, 64, 84
1, 358236, Note_on_c, 0, 75, 74
1, 358241, Control_c, 0, 64, 85
1, 358243, Note_off_c, 0, 63, 60
1, 358251, Note_on_c, 0, 54, 57
1, 358254, Note_off_c, 0, 71, 62
1, 358256, Control_c, 0, 64, 85
1, 358271, Control_c, 0, 64, 86
1, 358290, Note_off_c, 0, 75, 64
1, 358347, Note_on_c, 0, 76, 77
1, 358349, Note_off_c, 0, 55, 52
1, 358404, Control_c, 0, 64, 85
1, 358448, Control_c, 0, 64, 85
1, 358464, Note_on_c, 0, 70, 68
1, 358489, Note_off_c, 0, 76, 39
1, 358508, Control_c, 0, 64, 84
1, 358556, Note_on_c, 0, 62, 62
1, 358579, Note_off_c, 0, 70, 62
1, 358582, Control_c, 0, 64, 84
1, 358586, Note_off_c, 0, 62, 65
1, 358633, Control_c, 0, 64, 83
1, 358666, Note_on_c, 0, 53, 49
1, 358669, Note_off_c, 0, 54, 51
1, 358693, Control_c, 0, 64, 83
1, 358699, Note_on_c, 0, 61, 70
1, 358708, Control_c, 0, 67, 10
1, 358723, Control_c, 0, 64, 82
1, 358723, Control_c, 0, 67, 12
1, 358738, Control_c, 0, 67, 16
1, 358752, Control_c, 0, 64, 82
1, 358752, Control_c, 0, 67, 19
1, 358766, Note_off_c, 0, 61, 60
1, 358767, Control_c, 0, 67, 24
1, 358782, Control_c, 0, 64, 81
1, 358782, Control_c, 0, 67, 29
1, 358797, Control_c, 0, 64, 81
1, 358797, Control_c, 0, 67, 34
1, 358811, Control_c, 0, 64, 80
1, 358811, Control_c, 0, 67, 38
1, 358826, Control_c, 0, 64, 80
1, 358826, Control_c, 0, 67, 41
1, 358829, Note_on_c, 0, 69, 63
1, 358841, Control_c, 0, 67, 45
1, 358856, Control_c, 0, 64, 79
1, 358856, Control_c, 0, 67, 48
1, 358871, Control_c, 0, 64, 79
1, 358871, Control_c, 0, 67, 50
1, 358885, Control_c, 0, 67, 54
1, 358900, Control_c, 0, 64, 78
1, 358900, Control_c, 0, 67, 57
1, 358915, Control_c, 0, 64, 78
1, 358915, Control_c, 0, 67, 61
1, 358930, Control_c, 0, 67, 64
1, 358945, Control_c, 0, 64, 77
1, 358945, Control_c, 0, 67, 68
1, 358959, Control_c, 0, 67, 72
1, 358974, Control_c, 0, 64, 77
1, 358974, Control_c, 0, 67, 75
1, 358989, Control_c, 0, 64, 76
1, 358989, Control_c, 0, 67, 78
1, 359000, Note_on_c, 0, 77, 69
1, 359003, Control_c, 0, 64, 76
1, 359003, Control_c, 0, 67, 82
1, 359018, Control_c, 0, 64, 75
1, 359018, Control_c, 0, 67, 86
1, 359024, Note_off_c, 0, 69, 57
1, 359035, Control_c, 0, 67, 90
1, 359050, Control_c, 0, 67, 93
1, 359064, Control_c, 0, 64, 75
1, 359064, Control_c, 0, 67, 97
1, 359079, Control_c, 0, 67, 101
1, 359094, Control_c, 0, 67, 104
1, 359108, Control_c, 0, 67, 107
1, 359123, Control_c, 0, 67, 110
1, 359138, Control_c, 0, 67, 113
1, 359153, Control_c, 0, 64, 74
1, 359153, Control_c, 0, 67, 115
1, 359168, Control_c, 0, 67, 118
1, 359182, Control_c, 0, 67, 121
1, 359197, Control_c, 0, 67, 123
1, 359212, Control_c, 0, 64, 74
1, 359212, Control_c, 0, 67, 125
1, 359226, Control_c, 0, 64, 73
1, 359226, Control_c, 0, 67, 126
1, 359241, Control_c, 0, 64, 73
1, 359241, Control_c, 0, 67, 127
1, 359256, Control_c, 0, 64, 72
1, 359301, Control_c, 0, 64, 72
1, 359309, Note_on_c, 0, 61, 9
1, 359316, Control_c, 0, 64, 71
1, 359331, Control_c, 0, 64, 70
1, 359346, Control_c, 0, 64, 68
1, 359349, Note_on_c, 0, 76, 66
1, 359368, Control_c, 0, 64, 66
1, 359382, Control_c, 0, 64, 64
1, 359397, Control_c, 0, 64, 57
1, 359412, Control_c, 0, 64, 0
1, 359434, Note_off_c, 0, 77, 52
1, 359530, Control_c, 0, 64, 46
1, 359545, Control_c, 0, 64, 61
1, 359560, Control_c, 0, 64, 65
1, 359575, Control_c, 0, 64, 67
1, 359590, Control_c, 0, 64, 70
1, 359605, Control_c, 0, 64, 72
1, 359620, Control_c, 0, 64, 74
1, 359634, Control_c, 0, 64, 76
1, 359649, Control_c, 0, 64, 78
1, 359653, Note_off_c, 0, 46, 41
1, 359664, Control_c, 0, 64, 80
1, 359679, Control_c, 0, 64, 82
1, 359694, Control_c, 0, 64, 83
1, 359702, Note_on_c, 0, 72, 37
1, 359731, Note_off_c, 0, 53, 62
1, 359738, Control_c, 0, 64, 83
1, 359753, Control_c, 0, 64, 84
1, 359768, Control_c, 0, 64, 84
1, 359789, Note_off_c, 0, 61, 41
1, 359844, Note_off_c, 0, 72, 53
1, 359857, Note_on_c, 0, 71, 42
1, 359872, Control_c, 0, 64, 85
1, 359999, Note_off_c, 0, 76, 35
1, 360033, Note_on_c, 0, 82, 66
1, 360051, Note_on_c, 0, 70, 39
1, 360161, Control_c, 0, 64, 84
1, 360193, Note_off_c, 0, 70, 31
1, 360202, Note_on_c, 0, 73, 35
1, 360250, Control_c, 0, 64, 84
1, 360279, Note_off_c, 0, 73, 39
1, 360291, Note_on_c, 0, 77, 43
1, 360302, Note_off_c, 0, 71, 17
1, 360324, Control_c, 0, 64, 83
1, 360338, Control_c, 0, 64, 83
1, 360353, Control_c, 0, 64, 82
1, 360368, Control_c, 0, 64, 81
1, 360383, Control_c, 0, 64, 81
1, 360398, Note_off_c, 0, 77, 52
1, 360411, Note_on_c, 0, 81, 63
1, 360427, Note_on_c, 0, 76, 41
1, 360472, Control_c, 0, 64, 81
1, 360480, Note_off_c, 0, 82, 58
1, 360487, Control_c, 0, 64, 82
1, 360519, Note_off_c, 0, 76, 50
1, 360530, Note_on_c, 0, 72, 39
1, 360561, Control_c, 0, 64, 82
1, 360568, Note_off_c, 0, 72, 64
1, 360590, Control_c, 0, 64, 83
1, 360603, Note_on_c, 0, 71, 43
1, 360651, Note_off_c, 0, 71, 55
1, 360663, Note_on_c, 0, 80, 61
1, 360666, Note_off_c, 0, 81, 59
1, 360685, Note_on_c, 0, 70, 45
1, 360723, Note_off_c, 0, 80, 64
1, 360731, Note_off_c, 0, 70, 58
1, 360747, Note_on_c, 0, 73, 40
1, 360791, Note_off_c, 0, 73, 47
1, 360817, Note_on_c, 0, 77, 49
1, 360866, Control_c, 0, 64, 82
1, 360872, Note_off_c, 0, 77, 53
1, 360880, Control_c, 0, 64, 82
1, 360894, Note_on_c, 0, 76, 48
1, 360895, Control_c, 0, 64, 81
1, 360903, Note_on_c, 0, 69, 69
1, 360910, Control_c, 0, 64, 80
1, 360925, Control_c, 0, 64, 79
1, 360940, Control_c, 0, 64, 78
1, 360948, Note_on_c, 0, 72, 46
1, 360952, Note_off_c, 0, 76, 56
1, 360954, Control_c, 0, 64, 78
1, 360985, Note_off_c, 0, 72, 64
1, 361030, Note_on_c, 0, 71, 54
1, 361043, Control_c, 0, 64, 78
1, 361087, Control_c, 0, 64, 78
1, 361107, Note_on_c, 0, 70, 53
1, 361107, Note_off_c, 0, 71, 54
1, 361117, Control_c, 0, 64, 77
1, 361132, Control_c, 0, 64, 76
1, 361143, Note_on_c, 0, 68, 76
1, 361147, Control_c, 0, 64, 74
1, 361161, Control_c, 0, 64, 74
1, 361179, Note_on_c, 0, 73, 54
1, 361182, Note_off_c, 0, 70, 59
1, 361191, Control_c, 0, 64, 74
1, 361221, Control_c, 0, 64, 75
1, 361236, Control_c, 0, 64, 75
1, 361244, Note_off_c, 0, 69, 53
1, 361250, Note_off_c, 0, 73, 61
1, 361250, Control_c, 0, 64, 76
1, 361256, Note_on_c, 0, 77, 63
1, 361265, Control_c, 0, 64, 77
1, 361280, Control_c, 0, 64, 77
1, 361295, Control_c, 0, 64, 78
1, 361325, Control_c, 0, 64, 79
1, 361340, Control_c, 0, 64, 82
1, 361341, Note_on_c, 0, 76, 59
1, 361343, Note_on_c, 0, 67, 74
1, 361343, Note_off_c, 0, 77, 51
1, 361352, Note_off_c, 0, 68, 57
1, 361354, Control_c, 0, 64, 85
1, 361369, Control_c, 0, 64, 87
1, 361382, Note_off_c, 0, 67, 62
1, 361384, Control_c, 0, 64, 87
1, 361399, Note_on_c, 0, 72, 53
1, 361409, Note_off_c, 0, 76, 60
1, 361438, Note_off_c, 0, 72, 63
1, 361444, Control_c, 0, 64, 87
1, 361459, Control_c, 0, 64, 86
1, 361471, Note_on_c, 0, 71, 57
1, 361474, Control_c, 0, 64, 85
1, 361488, Control_c, 0, 64, 84
1, 361502, Control_c, 0, 64, 83
1, 361517, Control_c, 0, 64, 82
1, 361532, Control_c, 0, 64, 81
1, 361534, Note_on_c, 0, 56, 68
1, 361546, Note_on_c, 0, 70, 58
1, 361546, Note_off_c, 0, 71, 50
1, 361547, Control_c, 0, 64, 80
1, 361562, Control_c, 0, 64, 77
1, 361576, Control_c, 0, 64, 75
1, 361591, Control_c, 0, 64, 72
1, 361592, Note_off_c, 0, 70, 53
1, 361611, Note_on_c, 0, 73, 53
1, 361614, Control_c, 0, 64, 69
1, 361629, Control_c, 0, 64, 67
1, 361643, Control_c, 0, 64, 65
1, 361651, Note_off_c, 0, 73, 63
1, 361658, Control_c, 0, 64, 63
1, 361666, Note_on_c, 0, 77, 62
1, 361673, Control_c, 0, 64, 62
1, 361703, Control_c, 0, 64, 63
1, 361732, Control_c, 0, 64, 64
1, 361740, Note_on_c, 0, 76, 57
1, 361747, Control_c, 0, 64, 65
1, 361754, Note_off_c, 0, 56, 59
1, 361754, Note_off_c, 0, 77, 49
1, 361762, Control_c, 0, 64, 66
1, 361763, Note_on_c, 0, 55, 57
1, 361776, Control_c, 0, 64, 68
1, 361791, Control_c, 0, 64, 68
1, 361806, Control_c, 0, 64, 69
1, 361807, Note_on_c, 0, 72, 54
1, 361818, Note_off_c, 0, 76, 60
1, 361821, Control_c, 0, 64, 70
1, 361835, Control_c, 0, 64, 71
1, 361850, Note_off_c, 0, 72, 62
1, 361850, Control_c, 0, 64, 72
1, 361865, Control_c, 0, 64, 73
1, 361880, Control_c, 0, 64, 73
1, 361892, Note_on_c, 0, 71, 52
1, 361895, Control_c, 0, 64, 74
1, 361909, Control_c, 0, 64, 74
1, 361924, Control_c, 0, 64, 75
1, 361951, Note_off_c, 0, 55, 59
1, 361959, Note_on_c, 0, 54, 57
1, 361964, Note_off_c, 0, 71, 55
1, 361972, Note_on_c, 0, 70, 53
1, 361996, Note_off_c, 0, 54, 67
1, 361999, Control_c, 0, 64, 76
1, 362014, Control_c, 0, 64, 76
1, 362028, Control_c, 0, 64, 77
1, 362048, Note_on_c, 0, 73, 48
1, 362051, Note_off_c, 0, 70, 53
1, 362100, Note_off_c, 0, 73, 59
1, 362102, Control_c, 0, 64, 76
1, 362117, Note_on_c, 0, 77, 55
1, 362132, Control_c, 0, 64, 76
1, 362146, Control_c, 0, 64, 75
1, 362161, Control_c, 0, 64, 74
1, 362176, Control_c, 0, 64, 73
1, 362191, Control_c, 0, 64, 72
1, 362206, Control_c, 0, 64, 70
1, 362210, Note_on_c, 0, 43, 43
1, 362221, Control_c, 0, 64, 67
1, 362237, Control_c, 0, 64, 65
1, 362249, Note_off_c, 0, 77, 57
1, 362251, Control_c, 0, 64, 64
1, 362272, Note_on_c, 0, 72, 5
1, 362281, Control_c, 0, 64, 65
1, 362285, Note_on_c, 0, 76, 55
1, 362296, Control_c, 0, 64, 65
1, 362311, Control_c, 0, 64, 66
1, 362314, Note_off_c, 0, 72, 40
1, 362325, Control_c, 0, 64, 67
1, 362340, Control_c, 0, 64, 68
1, 362362, Control_c, 0, 64, 70
1, 362377, Control_c, 0, 64, 71
1, 362392, Control_c, 0, 64, 73
1, 362407, Control_c, 0, 64, 75
1, 362422, Control_c, 0, 64, 76
1, 362425, Note_on_c, 0, 72, 50
1, 362437, Control_c, 0, 64, 78
1, 362441, Note_off_c, 0, 76, 58
1, 362452, Control_c, 0, 64, 80
1, 362466, Control_c, 0, 64, 80
1, 362485, Note_off_c, 0, 72, 63
1, 362496, Control_c, 0, 64, 81
1, 362501, Note_on_c, 0, 69, 31
1, 362589, Note_off_c, 0, 69, 57
1, 362601, Note_on_c, 0, 70, 44
1, 362607, Note_on_c, 0, 42, 37
1, 362613, Note_off_c, 0, 43, 41
1, 362710, Note_on_c, 0, 73, 42
1, 362732, Note_off_c, 0, 70, 35
1, 362777, Control_c, 0, 64, 80
1, 362814, Note_off_c, 0, 73, 61
1, 362836, Note_on_c, 0, 77, 38
1, 362836, Control_c, 0, 64, 80
1, 362885, Note_off_c, 0, 77, 49
1, 362896, Control_c, 0, 64, 79
1, 362925, Control_c, 0, 64, 79
1, 362940, Control_c, 0, 64, 78
1, 362955, Control_c, 0, 64, 78
1, 362973, Note_off_c, 0, 42, 42
1, 362984, Control_c, 0, 64, 77
1, 362985, Note_on_c, 0, 34, 32
1, 362999, Control_c, 0, 64, 77
1, 363014, Control_c, 0, 64, 76
1, 363026, Note_on_c, 0, 41, 38
1, 363030, Control_c, 0, 64, 75
1, 363045, Control_c, 0, 64, 75
1, 363074, Control_c, 0, 64, 74
1, 363089, Control_c, 0, 64, 73
1, 363111, Control_c, 0, 64, 72
1, 363126, Control_c, 0, 64, 70
1, 363132, Note_on_c, 0, 81, 65
1, 363141, Control_c, 0, 64, 67
1, 363155, Control_c, 0, 64, 64
1, 363170, Control_c, 0, 64, 59
1, 363185, Control_c, 0, 64, 47
1, 363200, Control_c, 0, 64, 35
1, 363215, Control_c, 0, 64, 31
1, 363230, Control_c, 0, 64, 32
1, 363245, Control_c, 0, 64, 38
1, 363260, Control_c, 0, 64, 47
1, 363274, Control_c, 0, 64, 54
1, 363289, Control_c, 0, 64, 58
1, 363304, Control_c, 0, 64, 61
1, 363319, Control_c, 0, 64, 63
1, 363334, Control_c, 0, 64, 65
1, 363349, Control_c, 0, 64, 67
1, 363363, Note_on_c, 0, 76, 29
1, 363363, Control_c, 0, 64, 68
1, 363378, Control_c, 0, 64, 70
1, 363393, Control_c, 0, 64, 72
1, 363407, Control_c, 0, 64, 74
1, 363408, Note_off_c, 0, 76, 59
1, 363422, Control_c, 0, 64, 77
1, 363437, Control_c, 0, 64, 78
1, 363452, Control_c, 0, 64, 78
1, 363470, Note_on_c, 0, 72, 43
1, 363531, Note_off_c, 0, 81, 55
1, 363533, Note_off_c, 0, 72, 52
1, 363549, Note_on_c, 0, 73, 56
1, 363610, Note_off_c, 0, 73, 63
1, 363635, Note_on_c, 0, 77, 56
1, 363659, Control_c, 0, 64, 78
1, 363674, Control_c, 0, 64, 77
1, 363689, Control_c, 0, 64, 77
1, 363695, Note_off_c, 0, 77, 63
1, 363704, Control_c, 0, 64, 76
1, 363706, Note_on_c, 0, 82, 75
1, 363719, Control_c, 0, 64, 76
1, 363784, Note_on_c, 0, 84, 76
1, 363785, Note_off_c, 0, 82, 62
1, 363806, Control_c, 0, 64, 75
1, 363822, Control_c, 0, 64, 75
1, 363837, Control_c, 0, 64, 74
1, 363859, Control_c, 0, 64, 73
1, 363881, Note_on_c, 0, 81, 72
1, 363947, Note_off_c, 0, 81, 59
1, 363948, Control_c, 0, 64, 73
1, 363963, Control_c, 0, 64, 74
1, 363966, Note_on_c, 0, 76, 70
1, 363997, Note_off_c, 0, 84, 54
1, 364029, Note_on_c, 0, 77, 66
1, 364037, Control_c, 0, 64, 73
1, 364049, Note_off_c, 0, 76, 55
1, 364067, Control_c, 0, 64, 73
1, 364082, Control_c, 0, 64, 72
1, 364099, Note_on_c, 0, 82, 73
1, 364102, Note_off_c, 0, 77, 62
1, 364156, Control_c, 0, 64, 72
1, 364171, Control_c, 0, 64, 71
1, 364193, Note_on_c, 0, 85, 67
1, 364196, Note_off_c, 0, 82, 64
1, 364200, Control_c, 0, 64, 70
1, 364215, Control_c, 0, 64, 69
1, 364229, Control_c, 0, 64, 67
1, 364244, Control_c, 0, 64, 64
1, 364259, Note_on_c, 0, 88, 69
1, 364259, Control_c, 0, 64, 62
1, 364269, Note_off_c, 0, 85, 55
1, 364274, Control_c, 0, 64, 60
1, 364289, Control_c, 0, 64, 58
1, 364303, Control_c, 0, 64, 56
1, 364318, Control_c, 0, 64, 55
1, 364333, Control_c, 0, 64, 55
1, 364348, Control_c, 0, 64, 56
1, 364355, Note_on_c, 0, 84, 55
1, 364363, Control_c, 0, 64, 58
1, 364377, Control_c, 0, 64, 60
1, 364392, Control_c, 0, 64, 62
1, 364407, Control_c, 0, 64, 64
1, 364408, Note_off_c, 0, 84, 63
1, 364422, Control_c, 0, 64, 65
1, 364437, Control_c, 0, 64, 67
1, 364451, Note_on_c, 0, 81, 50
1, 364452, Control_c, 0, 64, 69
1, 364467, Control_c, 0, 64, 70
1, 364482, Control_c, 0, 64, 72
1, 364497, Control_c, 0, 64, 75
1, 364511, Note_off_c, 0, 88, 60
1, 364512, Control_c, 0, 64, 76
1, 364526, Control_c, 0, 64, 78
1, 364538, Note_on_c, 0, 82, 51
1, 364541, Control_c, 0, 64, 78
1, 364556, Note_off_c, 0, 81, 38
1, 364641, Note_off_c, 0, 82, 50
1, 364648, Note_on_c, 0, 85, 44
1, 364723, Note_off_c, 0, 85, 63
1, 364757, Control_c, 0, 64, 78
1, 364762, Note_off_c, 0, 34, 24
1, 364771, Note_on_c, 0, 89, 41
1, 364822, Note_off_c, 0, 89, 44
1, 364823, Note_off_c, 0, 41, 29
1, 364875, Control_c, 0, 64, 77
1, 364905, Control_c, 0, 64, 77
1, 364905, Control_c, 0, 67, 126
1, 364920, Control_c, 0, 64, 76
1, 364920, Control_c, 0, 67, 125
1, 364935, Control_c, 0, 64, 76
1, 364935, Control_c, 0, 67, 124
1, 364950, Control_c, 0, 64, 75
1, 364950, Control_c, 0, 67, 123
1, 364980, Control_c, 0, 64, 75
1, 364980, Control_c, 0, 67, 123
1, 365000, Note_on_c, 0, 94, 48
1, 365009, Control_c, 0, 64, 74
1, 365024, Control_c, 0, 64, 74
1, 365039, Control_c, 0, 64, 73
1, 365068, Control_c, 0, 64, 72
1, 365068, Control_c, 0, 67, 122
1, 365083, Control_c, 0, 64, 72
1, 365098, Control_c, 0, 64, 71
1, 365142, Control_c, 0, 64, 71
1, 365171, Control_c, 0, 64, 70
1, 365216, Control_c, 0, 64, 70
1, 365245, Control_c, 0, 67, 122
1, 365260, Control_c, 0, 64, 69
1, 365416, Control_c, 0, 64, 69
1, 365462, Control_c, 0, 64, 68
1, 365536, Control_c, 0, 64, 68
1, 365550, Control_c, 0, 67, 121
1, 365594, Control_c, 0, 64, 67
1, 365624, Control_c, 0, 64, 67
1, 365651, Note_off_c, 0, 94, 28
1, 365654, Control_c, 0, 64, 66
1, 365654, Control_c, 0, 67, 121
1, 365728, Control_c, 0, 64, 66
1, 365802, Control_c, 0, 67, 120
1, 365817, Control_c, 0, 64, 65
1, 365862, Control_c, 0, 67, 120
1, 365891, Control_c, 0, 67, 119
1, 365906, Control_c, 0, 67, 116
1, 365921, Control_c, 0, 67, 114
1, 365936, Control_c, 0, 67, 112
1, 365950, Control_c, 0, 64, 65
1, 365950, Control_c, 0, 67, 110
1, 365965, Control_c, 0, 67, 109
1, 365980, Control_c, 0, 67, 108
1, 365994, Control_c, 0, 67, 107
1, 366009, Control_c, 0, 67, 106
1, 366024, Control_c, 0, 67, 105
1, 366039, Control_c, 0, 64, 64
1, 366039, Control_c, 0, 67, 104
1, 366054, Control_c, 0, 67, 104
1, 366068, Control_c, 0, 67, 103
1, 366083, Control_c, 0, 67, 102
1, 366106, Control_c, 0, 67, 101
1, 366121, Control_c, 0, 67, 101
1, 366136, Control_c, 0, 67, 100
1, 366150, Control_c, 0, 67, 99
1, 366165, Control_c, 0, 67, 98
1, 366180, Control_c, 0, 67, 98
1, 366195, Control_c, 0, 67, 97
1, 366209, Control_c, 0, 67, 96
1, 366225, Control_c, 0, 64, 65
1, 366225, Control_c, 0, 67, 96
1, 366240, Control_c, 0, 67, 95
1, 366255, Control_c, 0, 67, 94
1, 366270, Control_c, 0, 64, 65
1, 366270, Control_c, 0, 67, 93
1, 366285, Control_c, 0, 67, 92
1, 366299, Control_c, 0, 67, 91
1, 366314, Control_c, 0, 67, 90
1, 366329, Control_c, 0, 64, 66
1, 366329, Control_c, 0, 67, 89
1, 366344, Control_c, 0, 67, 88
1, 366359, Control_c, 0, 67, 86
1, 366373, Control_c, 0, 64, 66
1, 366373, Control_c, 0, 67, 85
1, 366388, Control_c, 0, 67, 84
1, 366403, Control_c, 0, 67, 83
1, 366417, Control_c, 0, 64, 67
1, 366417, Control_c, 0, 67, 82
1, 366432, Control_c, 0, 67, 81
1, 366447, Control_c, 0, 67, 80
1, 366462, Control_c, 0, 64, 67
1, 366462, Control_c, 0, 67, 79
1, 366477, Control_c, 0, 67, 78
1, 366491, Control_c, 0, 64, 68
1, 366491, Control_c, 0, 67, 77
1, 366506, Control_c, 0, 67, 76
1, 366521, Control_c, 0, 67, 74
1, 366536, Control_c, 0, 64, 68
1, 366536, Control_c, 0, 67, 73
1, 366551, Control_c, 0, 67, 72
1, 366565, Control_c, 0, 64, 69
1, 366565, Control_c, 0, 67, 70
1, 366580, Control_c, 0, 67, 69
1, 366595, Control_c, 0, 67, 67
1, 366610, Control_c, 0, 64, 69
1, 366610, Control_c, 0, 67, 66
1, 366625, Control_c, 0, 67, 64
1, 366640, Control_c, 0, 64, 70
1, 366640, Control_c, 0, 67, 62
1, 366655, Control_c, 0, 64, 70
1, 366655, Control_c, 0, 67, 60
1, 366670, Control_c, 0, 64, 71
1, 366670, Control_c, 0, 67, 57
1, 366685, Control_c, 0, 67, 55
1, 366699, Control_c, 0, 64, 71
1, 366699, Control_c, 0, 67, 53
1, 366714, Control_c, 0, 67, 50
1, 366729, Control_c, 0, 64, 72
1, 366729, Control_c, 0, 67, 48
1, 366744, Control_c, 0, 64, 72
1, 366744, Control_c, 0, 67, 44
1, 366759, Control_c, 0, 67, 41
1, 366773, Control_c, 0, 64, 73
1, 366773, Control_c, 0, 67, 37
1, 366788, Control_c, 0, 67, 33
1, 366803, Control_c, 0, 64, 73
1, 366803, Control_c, 0, 67, 30
1, 366817, Control_c, 0, 64, 74
1, 366817, Control_c, 0, 67, 26
1, 366832, Control_c, 0, 67, 23
1, 366855, Control_c, 0, 64, 74
1, 366855, Control_c, 0, 67, 20
1, 366869, Control_c, 0, 67, 16
1, 366884, Control_c, 0, 64, 75
1, 366884, Control_c, 0, 67, 12
1, 366899, Control_c, 0, 64, 76
1, 366899, Control_c, 0, 67, 0
1, 366914, Control_c, 0, 64, 77
1, 366929, Control_c, 0, 64, 78
1, 366944, Control_c, 0, 64, 78
1, 366958, Control_c, 0, 64, 79
1, 366973, Control_c, 0, 64, 80
1, 366988, Control_c, 0, 64, 81
1, 367003, Control_c, 0, 64, 82
1, 367018, Control_c, 0, 64, 82
1, 367033, Control_c, 0, 64, 84
1, 367048, Control_c, 0, 64, 85
1, 367063, Control_c, 0, 64, 87
1, 367078, Control_c, 0, 64, 89
1, 367093, Control_c, 0, 64, 91
1, 367108, Control_c, 0, 64, 93
1, 367122, Control_c, 0, 64, 95
1, 367137, Control_c, 0, 64, 98
1, 367152, Control_c, 0, 64, 101
1, 367166, Control_c, 0, 64, 104
1, 367181, Control_c, 0, 64, 108
1, 367196, Control_c, 0, 64, 113
1, 367211, Control_c, 0, 64, 127
1, 367404, Note_on_c, 0, 44, 50
1, 367616, Note_on_c, 0, 53, 67
1, 367697, Note_on_c, 0, 56, 71
1, 367785, Note_on_c, 0, 61, 71
1, 367864, Note_on_c, 0, 65, 76
1, 367933, Note_off_c, 0, 61, 56
1, 367979, Note_on_c, 0, 68, 82
1, 368027, Note_off_c, 0, 65, 61
1, 368137, Note_off_c, 0, 68, 62
1, 368349, Note_on_c, 0, 77, 91
1, 368372, Note_on_c, 0, 73, 65
1, 369440, Note_off_c, 0, 73, 57
1, 370885, Note_on_c, 0, 76, 77
1, 370926, Note_on_c, 0, 72, 44
1, 370996, Note_off_c, 0, 56, 55
1, 371147, Note_off_c, 0, 53, 54
1, 371158, Note_off_c, 0, 77, 39
1, 371177, Control_c, 0, 67, 8
1, 371192, Control_c, 0, 67, 10
1, 371207, Control_c, 0, 67, 12
1, 371222, Control_c, 0, 67, 14
1, 371237, Control_c, 0, 67, 16
1, 371252, Control_c, 0, 67, 19
1, 371267, Control_c, 0, 67, 22
1, 371281, Control_c, 0, 67, 25
1, 371296, Control_c, 0, 67, 28
1, 371311, Control_c, 0, 67, 32
1, 371326, Control_c, 0, 67, 35
1, 371348, Control_c, 0, 67, 37
1, 371363, Control_c, 0, 67, 40
1, 371378, Control_c, 0, 67, 43
1, 371393, Control_c, 0, 67, 45
1, 371408, Control_c, 0, 67, 48
1, 371422, Control_c, 0, 67, 50
1, 371437, Control_c, 0, 67, 53
1, 371452, Control_c, 0, 67, 55
1, 371467, Control_c, 0, 67, 57
1, 371482, Control_c, 0, 67, 59
1, 371494, Note_off_c, 0, 44, 36
1, 371496, Control_c, 0, 67, 61
1, 371511, Control_c, 0, 67, 63
1, 371526, Control_c, 0, 67, 66
1, 371541, Control_c, 0, 67, 68
1, 371555, Control_c, 0, 67, 71
1, 371570, Control_c, 0, 67, 73
1, 371578, Note_on_c, 0, 75, 73
1, 371585, Note_off_c, 0, 72, 60
1, 371585, Control_c, 0, 67, 76
1, 371590, Note_on_c, 0, 71, 46
1, 371600, Control_c, 0, 67, 78
1, 371615, Control_c, 0, 67, 81
1, 371630, Control_c, 0, 67, 83
1, 371645, Control_c, 0, 67, 85
1, 371660, Control_c, 0, 67, 88
1, 371675, Control_c, 0, 67, 91
1, 371685, Note_off_c, 0, 76, 61
1, 371689, Control_c, 0, 67, 94
1, 371704, Control_c, 0, 67, 97
1, 371719, Control_c, 0, 67, 100
1, 371733, Note_on_c, 0, 34, 53
1, 371734, Control_c, 0, 67, 102
1, 371748, Control_c, 0, 67, 106
1, 371763, Control_c, 0, 64, 115
1, 371763, Control_c, 0, 67, 109
1, 371778, Control_c, 0, 64, 99
1, 371778, Control_c, 0, 67, 113
1, 371793, Control_c, 0, 64, 84
1, 371793, Control_c, 0, 67, 115
1, 371809, Control_c, 0, 64, 67
1, 371809, Control_c, 0, 67, 118
1, 371824, Control_c, 0, 64, 0
1, 371824, Control_c, 0, 67, 121
1, 371838, Control_c, 0, 67, 123
1, 371853, Control_c, 0, 67, 126
1, 371868, Control_c, 0, 67, 127
1, 371892, Note_on_c, 0, 41, 57
1, 371898, Control_c, 0, 64, 58
1, 371912, Control_c, 0, 64, 69
1, 371927, Control_c, 0, 64, 80
1, 371942, Control_c, 0, 64, 97
1, 371957, Control_c, 0, 64, 127
1, 371996, Note_off_c, 0, 34, 60
1, 372017, Note_off_c, 0, 41, 62
1, 372027, Note_on_c, 0, 46, 60
1, 372053, Note_off_c, 0, 46, 64
1, 372176, Note_on_c, 0, 49, 54
1, 372185, Control_c, 0, 64, 118
1, 372200, Control_c, 0, 64, 110
1, 372215, Control_c, 0, 64, 105
1, 372226, Note_on_c, 0, 53, 58
1, 372230, Control_c, 0, 64, 101
1, 372244, Control_c, 0, 64, 96
1, 372259, Control_c, 0, 64, 89
1, 372274, Control_c, 0, 64, 83
1, 372289, Control_c, 0, 64, 79
1, 372304, Control_c, 0, 64, 77
1, 372319, Control_c, 0, 64, 76
1, 372363, Control_c, 0, 64, 77
1, 372378, Control_c, 0, 64, 77
1, 372384, Note_on_c, 0, 58, 62
1, 372437, Control_c, 0, 64, 77
1, 372452, Control_c, 0, 64, 75
1, 372467, Control_c, 0, 64, 72
1, 372482, Control_c, 0, 64, 68
1, 372497, Control_c, 0, 64, 66
1, 372526, Control_c, 0, 64, 66
1, 372541, Control_c, 0, 64, 67
1, 372585, Control_c, 0, 64, 67
1, 372600, Control_c, 0, 64, 68
1, 372616, Control_c, 0, 64, 71
1, 372631, Control_c, 0, 64, 76
1, 372646, Control_c, 0, 64, 79
1, 372660, Control_c, 0, 64, 81
1, 372667, Note_on_c, 0, 73, 64
1, 372675, Control_c, 0, 64, 82
1, 372682, Note_on_c, 0, 70, 45
1, 372705, Control_c, 0, 64, 82
1, 372705, Control_c, 0, 67, 127
1, 372736, Note_on_c, 0, 61, 48
1, 372779, Control_c, 0, 64, 83
1, 372823, Control_c, 0, 64, 83
1, 372846, Control_c, 0, 64, 84
1, 372861, Control_c, 0, 64, 85
1, 372876, Note_off_c, 0, 71, 40
1, 372878, Note_off_c, 0, 75, 38
1, 372949, Control_c, 0, 64, 85
1, 373053, Control_c, 0, 64, 86
1, 373082, Control_c, 0, 64, 87
1, 373097, Control_c, 0, 64, 87
1, 373111, Control_c, 0, 64, 89
1, 373126, Control_c, 0, 64, 89
1, 373141, Control_c, 0, 64, 90
1, 373156, Control_c, 0, 64, 91
1, 373171, Control_c, 0, 64, 91
1, 373186, Control_c, 0, 64, 92
1, 373201, Control_c, 0, 64, 93
1, 373216, Control_c, 0, 64, 93
1, 373260, Control_c, 0, 64, 94
1, 373275, Control_c, 0, 64, 94
1, 373290, Control_c, 0, 64, 95
1, 373304, Control_c, 0, 64, 96
1, 373319, Control_c, 0, 64, 97
1, 373334, Control_c, 0, 64, 98
1, 373349, Control_c, 0, 64, 100
1, 373364, Control_c, 0, 64, 102
1, 373379, Control_c, 0, 64, 103
1, 373393, Control_c, 0, 64, 105
1, 373409, Control_c, 0, 64, 106
1, 373424, Control_c, 0, 64, 106
1, 373439, Control_c, 0, 64, 107
1, 373483, Control_c, 0, 64, 107
1, 373528, Control_c, 0, 64, 108
1, 373572, Control_c, 0, 64, 108
1, 373624, Control_c, 0, 64, 109
1, 373654, Control_c, 0, 64, 109
1, 373654, Control_c, 0, 67, 127
1, 373728, Control_c, 0, 64, 110
1, 374039, Control_c, 0, 64, 109
1, 374103, Note_off_c, 0, 70, 35
1, 375555, Note_on_c, 0, 70, 54
1, 375654, Control_c, 0, 64, 109
1, 375757, Note_off_c, 0, 73, 45
1, 375818, Control_c, 0, 64, 108
1, 375870, Control_c, 0, 64, 108
1, 375914, Control_c, 0, 64, 107
1, 375944, Control_c, 0, 64, 107
1, 375973, Control_c, 0, 64, 106
1, 376003, Control_c, 0, 64, 106
1, 376048, Control_c, 0, 64, 105
1, 376077, Control_c, 0, 64, 105
1, 376092, Control_c, 0, 64, 104
1, 376132, Note_on_c, 0, 65, 56
1, 376136, Control_c, 0, 64, 104
1, 376151, Control_c, 0, 64, 103
1, 376166, Control_c, 0, 64, 103
1, 376196, Control_c, 0, 64, 102
1, 376225, Control_c, 0, 64, 102
1, 376255, Control_c, 0, 64, 101
1, 376284, Control_c, 0, 64, 101
1, 376328, Control_c, 0, 64, 100
1, 376358, Control_c, 0, 64, 100
1, 376373, Control_c, 0, 64, 99
1, 376417, Control_c, 0, 64, 99
1, 376447, Control_c, 0, 64, 98
1, 376522, Control_c, 0, 64, 98
1, 376603, Control_c, 0, 64, 97
1, 376707, Control_c, 0, 64, 97
1, 376870, Control_c, 0, 64, 96
1, 376974, Control_c, 0, 64, 96
1, 377151, Control_c, 0, 64, 95
1, 377226, Control_c, 0, 64, 95
1, 377300, Control_c, 0, 64, 94
1, 377367, Control_c, 0, 64, 94
1, 377443, Control_c, 0, 64, 93
1, 377487, Control_c, 0, 64, 93
1, 377546, Control_c, 0, 64, 92
1, 377649, Control_c, 0, 64, 92
1, 377738, Control_c, 0, 64, 91
1, 377797, Control_c, 0, 64, 91
1, 377842, Control_c, 0, 64, 90
1, 377916, Control_c, 0, 64, 90
1, 377975, Control_c, 0, 64, 89
1, 378087, Control_c, 0, 64, 89
1, 378146, Control_c, 0, 64, 88
1, 378206, Control_c, 0, 64, 88
1, 378280, Control_c, 0, 64, 87
1, 378339, Control_c, 0, 64, 87
1, 378384, Control_c, 0, 64, 86
1, 378458, Control_c, 0, 64, 86
1, 378546, Control_c, 0, 64, 85
1, 378620, Control_c, 0, 64, 85
1, 378680, Control_c, 0, 64, 84
1, 378768, Control_c, 0, 64, 84
1, 378879, Control_c, 0, 64, 83
1, 378938, Control_c, 0, 64, 83
1, 378983, Control_c, 0, 64, 82
1, 379028, Control_c, 0, 64, 82
1, 379073, Control_c, 0, 64, 81
1, 379102, Control_c, 0, 64, 81
1, 379147, Control_c, 0, 64, 80
1, 379206, Control_c, 0, 64, 80
1, 379235, Control_c, 0, 64, 79
1, 379295, Control_c, 0, 64, 79
1, 379339, Control_c, 0, 64, 78
1, 379413, Control_c, 0, 64, 78
1, 379458, Control_c, 0, 64, 77
1, 379487, Control_c, 0, 64, 77
1, 379517, Control_c, 0, 64, 76
1, 379546, Control_c, 0, 64, 76
1, 379583, Control_c, 0, 64, 75
1, 379643, Control_c, 0, 64, 75
1, 379702, Control_c, 0, 64, 74
1, 379761, Control_c, 0, 64, 74
1, 379821, Control_c, 0, 64, 73
1, 379851, Control_c, 0, 64, 73
1, 379896, Control_c, 0, 64, 72
1, 379925, Control_c, 0, 64, 72
1, 379958, Note_off_c, 0, 70, 1
1, 379970, Control_c, 0, 64, 71
1, 380029, Control_c, 0, 64, 71
1, 380055, Note_off_c, 0, 53, 16
1, 380058, Control_c, 0, 64, 70
1, 380073, Control_c, 0, 64, 70
1, 380074, Note_off_c, 0, 65, 7
1, 380102, Control_c, 0, 64, 69
1, 380222, Control_c, 0, 64, 69
1, 380281, Control_c, 0, 64, 68
1, 380392, Control_c, 0, 64, 68
1, 380451, Control_c, 0, 64, 67
1, 380525, Control_c, 0, 64, 67
1, 380600, Control_c, 0, 64, 66
1, 380630, Control_c, 0, 64, 66
1, 380689, Control_c, 0, 64, 65
1, 380734, Control_c, 0, 64, 65
1, 380798, Note_off_c, 0, 49, 1
1, 380808, Control_c, 0, 64, 64
1, 380912, Control_c, 0, 64, 64
1, 380986, Control_c, 0, 64, 63
1, 381015, Note_off_c, 0, 61, 1
1, 381097, Control_c, 0, 64, 63
1, 381102, Note_off_c, 0, 58, 1
1, 381186, Control_c, 0, 64, 62
1, 381230, Control_c, 0, 64, 62
1, 381274, Control_c, 0, 64, 61
1, 381319, Control_c, 0, 64, 61
1, 381363, Control_c, 0, 64, 60
1, 381423, Control_c, 0, 64, 60
1, 381468, Control_c, 0, 64, 59
1, 381512, Control_c, 0, 64, 59
1, 381586, Control_c, 0, 64, 58
1, 381676, Control_c, 0, 64, 58
1, 381720, Control_c, 0, 64, 57
1, 381831, Control_c, 0, 64, 57
1, 381890, Control_c, 0, 64, 56
1, 382394, Control_c, 0, 64, 57
1, 382453, Control_c, 0, 67, 126
1, 382468, Control_c, 0, 67, 124
1, 382483, Control_c, 0, 67, 123
1, 382497, Control_c, 0, 64, 57
1, 382497, Control_c, 0, 67, 122
1, 382512, Control_c, 0, 67, 121
1, 382527, Control_c, 0, 67, 121
1, 382542, Control_c, 0, 67, 119
1, 382557, Control_c, 0, 67, 118
1, 382579, Control_c, 0, 67, 116
1, 382594, Control_c, 0, 64, 58
1, 382594, Control_c, 0, 67, 113
1, 382609, Control_c, 0, 67, 110
1, 382624, Control_c, 0, 67, 107
1, 382638, Control_c, 0, 64, 58
1, 382638, Control_c, 0, 67, 104
1, 382653, Control_c, 0, 67, 100
1, 382668, Control_c, 0, 67, 97
1, 382683, Control_c, 0, 67, 93
1, 382697, Control_c, 0, 67, 90
1, 382712, Control_c, 0, 67, 87
1, 382727, Control_c, 0, 67, 84
1, 382742, Control_c, 0, 67, 81
1, 382757, Control_c, 0, 67, 78
1, 382771, Control_c, 0, 64, 59
1, 382771, Control_c, 0, 67, 76
1, 382786, Control_c, 0, 67, 74
1, 382801, Control_c, 0, 67, 72
1, 382816, Control_c, 0, 67, 70
1, 382831, Control_c, 0, 64, 59
1, 382831, Control_c, 0, 67, 68
1, 382845, Control_c, 0, 67, 66
1, 382860, Control_c, 0, 67, 64
1, 382875, Control_c, 0, 67, 61
1, 382890, Control_c, 0, 64, 60
1, 382890, Control_c, 0, 67, 60
1, 382904, Control_c, 0, 67, 57
1, 382919, Control_c, 0, 64, 60
1, 382919, Control_c, 0, 67, 55
1, 382934, Control_c, 0, 67, 53
1, 382949, Control_c, 0, 67, 51
1, 382964, Control_c, 0, 67, 50
1, 382978, Control_c, 0, 64, 61
1, 382978, Control_c, 0, 67, 49
1, 383024, Control_c, 0, 64, 61
1, 383068, Control_c, 0, 67, 49
1, 383083, Control_c, 0, 64, 62
1, 383127, Control_c, 0, 64, 62
1, 383187, Control_c, 0, 64, 63
1, 383247, Control_c, 0, 64, 63
1, 383306, Control_c, 0, 64, 64
1, 383372, Control_c, 0, 64, 64
1, 383446, Control_c, 0, 64, 65
1, 383520, Control_c, 0, 64, 65
1, 383565, Control_c, 0, 64, 66
1, 383609, Control_c, 0, 64, 66
1, 383639, Control_c, 0, 64, 67
1, 383653, Control_c, 0, 64, 67
1, 383698, Control_c, 0, 64, 68
1, 383713, Control_c, 0, 64, 68
1, 383727, Control_c, 0, 64, 69
1, 383742, Control_c, 0, 64, 69
1, 383757, Control_c, 0, 64, 70
1, 383772, Control_c, 0, 64, 70
1, 383787, Control_c, 0, 64, 71
1, 383817, Control_c, 0, 64, 71
1, 383832, Control_c, 0, 64, 72
1, 383847, Control_c, 0, 64, 72
1, 383877, Control_c, 0, 64, 73
1, 383891, Control_c, 0, 64, 73
1, 383906, Control_c, 0, 64, 74
1, 383921, Control_c, 0, 64, 74
1, 383936, Control_c, 0, 64, 75
1, 383951, Control_c, 0, 64, 76
1, 383966, Control_c, 0, 64, 77
1, 383981, Control_c, 0, 64, 78
1, 383996, Control_c, 0, 64, 79
1, 384011, Control_c, 0, 64, 80
1, 384025, Control_c, 0, 64, 81
1, 384040, Control_c, 0, 64, 82
1, 384055, Control_c, 0, 64, 83
1, 384078, Control_c, 0, 64, 84
1, 384093, Control_c, 0, 64, 86
1, 384107, Control_c, 0, 64, 87
1, 384122, Control_c, 0, 64, 88
1, 384137, Control_c, 0, 64, 90
1, 384151, Control_c, 0, 64, 92
1, 384166, Control_c, 0, 64, 94
1, 384181, Control_c, 0, 64, 96
1, 384196, Control_c, 0, 64, 98
1, 384211, Control_c, 0, 64, 100
1, 384225, Control_c, 0, 64, 103
1, 384240, Control_c, 0, 64, 106
1, 384255, Control_c, 0, 64, 109
1, 384269, Control_c, 0, 64, 112
1, 384284, Control_c, 0, 64, 115
1, 384299, Control_c, 0, 64, 124
1, 384299, Control_c, 0, 67, 48
1, 384314, Control_c, 0, 64, 127
1, 384314, Control_c, 0, 67, 47
1, 384329, Control_c, 0, 67, 46
1, 384343, Control_c, 0, 67, 40
1, 384358, Control_c, 0, 67, 35
1, 384373, Control_c, 0, 67, 30
1, 384388, Control_c, 0, 67, 25
1, 384403, Control_c, 0, 67, 20
1, 384418, Control_c, 0, 67, 15
1, 384433, Control_c, 0, 67, 9
1, 384448, Control_c, 0, 67, 0
1, 385076, Note_on_c, 0, 78, 80
1, 385091, Note_on_c, 0, 54, 41
1, 385092, Note_on_c, 0, 70, 57
1, 385100, Note_on_c, 0, 64, 35
1, 385104, Note_on_c, 0, 61, 42
1, 385538, Control_c, 0, 64, 126
1, 385553, Control_c, 0, 64, 122
1, 385575, Control_c, 0, 64, 119
1, 385590, Control_c, 0, 64, 117
1, 385604, Control_c, 0, 64, 114
1, 385619, Control_c, 0, 64, 113
1, 385634, Control_c, 0, 64, 112
1, 385664, Control_c, 0, 64, 111
1, 385679, Control_c, 0, 64, 110
1, 385694, Control_c, 0, 64, 109
1, 385709, Control_c, 0, 64, 108
1, 385723, Control_c, 0, 64, 107
1, 385738, Control_c, 0, 64, 107
1, 385753, Control_c, 0, 64, 106
1, 385768, Control_c, 0, 64, 106
1, 385842, Control_c, 0, 64, 105
1, 385871, Control_c, 0, 64, 105
1, 385886, Control_c, 0, 64, 104
1, 385915, Control_c, 0, 64, 104
1, 385917, Note_on_c, 0, 79, 86
1, 385930, Control_c, 0, 64, 103
1, 385945, Control_c, 0, 64, 103
1, 385957, Note_off_c, 0, 78, 62
1, 385960, Control_c, 0, 64, 102
1, 385975, Control_c, 0, 64, 102
1, 385989, Control_c, 0, 64, 100
1, 386004, Control_c, 0, 64, 98
1, 386019, Control_c, 0, 64, 97
1, 386034, Control_c, 0, 64, 95
1, 386049, Control_c, 0, 64, 93
1, 386063, Control_c, 0, 64, 89
1, 386078, Control_c, 0, 64, 85
1, 386093, Control_c, 0, 64, 80
1, 386108, Control_c, 0, 64, 76
1, 386123, Control_c, 0, 64, 72
1, 386138, Control_c, 0, 64, 68
1, 386153, Control_c, 0, 64, 66
1, 386168, Control_c, 0, 64, 66
1, 386398, Control_c, 0, 64, 66
1, 386427, Control_c, 0, 64, 67
1, 386457, Control_c, 0, 64, 67
1, 386487, Control_c, 0, 64, 68
1, 386517, Control_c, 0, 64, 68
1, 386531, Control_c, 0, 64, 69
1, 386546, Control_c, 0, 64, 70
1, 386561, Control_c, 0, 64, 71
1, 386576, Control_c, 0, 64, 71
1, 386591, Control_c, 0, 64, 72
1, 386606, Control_c, 0, 64, 73
1, 386620, Control_c, 0, 64, 75
1, 386635, Control_c, 0, 64, 77
1, 386650, Control_c, 0, 64, 79
1, 386664, Control_c, 0, 64, 80
1, 386679, Control_c, 0, 64, 80
1, 386694, Control_c, 0, 64, 81
1, 386709, Control_c, 0, 64, 83
1, 386724, Control_c, 0, 64, 85
1, 386738, Control_c, 0, 64, 88
1, 386753, Control_c, 0, 64, 89
1, 386768, Control_c, 0, 64, 91
1, 386783, Control_c, 0, 64, 93
1, 386798, Control_c, 0, 64, 97
1, 386812, Control_c, 0, 64, 100
1, 386827, Control_c, 0, 64, 101
1, 386842, Control_c, 0, 64, 103
1, 386857, Control_c, 0, 64, 104
1, 386871, Control_c, 0, 64, 106
1, 386886, Control_c, 0, 64, 108
1, 386901, Control_c, 0, 64, 110
1, 386916, Control_c, 0, 64, 113
1, 386931, Control_c, 0, 64, 118
1, 386945, Control_c, 0, 64, 127
1, 387667, Note_on_c, 0, 78, 59
1, 387768, Control_c, 0, 64, 114
1, 387783, Control_c, 0, 64, 108
1, 387792, Note_off_c, 0, 79, 55
1, 387798, Control_c, 0, 64, 102
1, 387821, Control_c, 0, 64, 97
1, 387836, Control_c, 0, 64, 92
1, 387851, Control_c, 0, 64, 87
1, 387865, Control_c, 0, 64, 84
1, 387880, Control_c, 0, 64, 81
1, 387895, Control_c, 0, 64, 78
1, 387909, Control_c, 0, 64, 74
1, 387924, Control_c, 0, 64, 71
1, 387939, Control_c, 0, 64, 68
1, 387954, Control_c, 0, 64, 67
1, 387983, Control_c, 0, 64, 67
1, 388013, Control_c, 0, 64, 66
1, 388028, Control_c, 0, 64, 65
1, 388043, Control_c, 0, 64, 64
1, 388058, Control_c, 0, 64, 63
1, 388073, Control_c, 0, 64, 62
1, 388088, Control_c, 0, 64, 59
1, 388102, Control_c, 0, 64, 54
1, 388117, Control_c, 0, 64, 43
1, 388132, Control_c, 0, 64, 0
1, 388179, Note_on_c, 0, 75, 62
1, 388309, Control_c, 0, 64, 19
1, 388324, Control_c, 0, 64, 42
1, 388339, Control_c, 0, 64, 56
1, 388354, Control_c, 0, 64, 63
1, 388369, Control_c, 0, 64, 67
1, 388383, Control_c, 0, 64, 68
1, 388398, Control_c, 0, 64, 69
1, 388413, Control_c, 0, 64, 71
1, 388428, Control_c, 0, 64, 74
1, 388442, Control_c, 0, 64, 76
1, 388457, Control_c, 0, 64, 78
1, 388472, Control_c, 0, 64, 79
1, 388487, Control_c, 0, 64, 81
1, 388502, Control_c, 0, 64, 84
1, 388517, Control_c, 0, 64, 87
1, 388520, Note_on_c, 0, 76, 75
1, 388532, Control_c, 0, 64, 90
1, 388547, Control_c, 0, 64, 96
1, 388569, Control_c, 0, 64, 104
1, 388584, Control_c, 0, 64, 116
1, 388600, Control_c, 0, 64, 127
1, 388605, Note_off_c, 0, 78, 54
1, 388692, Note_off_c, 0, 64, 42
1, 388714, Note_off_c, 0, 70, 61
1, 388755, Note_off_c, 0, 75, 38
1, 388772, Note_off_c, 0, 76, 60
1, 388792, Control_c, 0, 64, 119
1, 388807, Control_c, 0, 64, 107
1, 388821, Control_c, 0, 64, 101
1, 388836, Control_c, 0, 64, 96
1, 388846, Note_off_c, 0, 54, 46
1, 388851, Control_c, 0, 64, 93
1, 388853, Note_on_c, 0, 64, 29
1, 388866, Control_c, 0, 64, 90
1, 388871, Note_on_c, 0, 76, 69
1, 388880, Control_c, 0, 64, 88
1, 388883, Note_on_c, 0, 60, 30
1, 388892, Note_on_c, 0, 69, 41
1, 388895, Control_c, 0, 64, 85
1, 388910, Control_c, 0, 64, 80
1, 388925, Control_c, 0, 64, 74
1, 388940, Control_c, 0, 64, 68
1, 388949, Note_off_c, 0, 61, 39
1, 388955, Control_c, 0, 64, 63
1, 388970, Control_c, 0, 64, 51
1, 388985, Control_c, 0, 64, 30
1, 389000, Control_c, 0, 64, 19
1, 389014, Control_c, 0, 64, 14
1, 389029, Control_c, 0, 64, 0
1, 389103, Control_c, 0, 64, 27
1, 389118, Control_c, 0, 64, 43
1, 389132, Control_c, 0, 64, 54
1, 389147, Control_c, 0, 64, 62
1, 389162, Control_c, 0, 64, 66
1, 389177, Control_c, 0, 64, 70
1, 389191, Control_c, 0, 64, 73
1, 389205, Control_c, 0, 64, 76
1, 389220, Control_c, 0, 64, 79
1, 389235, Control_c, 0, 64, 83
1, 389250, Control_c, 0, 64, 85
1, 389265, Control_c, 0, 64, 88
1, 389280, Control_c, 0, 64, 90
1, 389295, Control_c, 0, 64, 92
1, 389317, Control_c, 0, 64, 94
1, 389332, Control_c, 0, 64, 95
1, 389346, Control_c, 0, 64, 95
1, 389406, Note_off_c, 0, 69, 56
1, 389437, Control_c, 0, 64, 95
1, 389451, Control_c, 0, 64, 94
1, 389466, Control_c, 0, 64, 93
1, 389481, Control_c, 0, 64, 92
1, 389495, Control_c, 0, 64, 91
1, 389510, Control_c, 0, 64, 90
1, 389525, Control_c, 0, 64, 90
1, 389540, Control_c, 0, 64, 89
1, 389555, Control_c, 0, 64, 88
1, 389569, Control_c, 0, 64, 87
1, 389584, Control_c, 0, 64, 86
1, 389599, Control_c, 0, 64, 85
1, 389614, Control_c, 0, 64, 84
1, 389619, Note_on_c, 0, 69, 47
1, 389629, Control_c, 0, 64, 83
1, 389644, Control_c, 0, 64, 82
1, 389655, Poly_aftertouch_c, 0, 72, 127
1, 389658, Control_c, 0, 64, 81
1, 389673, Control_c, 0, 64, 79
1, 389688, Control_c, 0, 64, 78
1, 389703, Control_c, 0, 64, 77
1, 389718, Control_c, 0, 64, 75
1, 389733, Control_c, 0, 64, 73
1, 389748, Control_c, 0, 64, 70
1, 389762, Control_c, 0, 64, 68
1, 389777, Control_c, 0, 64, 67
1, 389807, Control_c, 0, 64, 68
1, 389866, Control_c, 0, 64, 68
1, 389895, Control_c, 0, 64, 69
1, 389941, Control_c, 0, 64, 69
1, 389955, Control_c, 0, 64, 70
1, 389970, Control_c, 0, 64, 70
1, 389985, Control_c, 0, 64, 71
1, 389999, Control_c, 0, 64, 71
1, 390014, Control_c, 0, 64, 72
1, 390029, Control_c, 0, 64, 72
1, 390044, Control_c, 0, 64, 73
1, 390067, Control_c, 0, 64, 74
1, 390082, Control_c, 0, 64, 76
1, 390096, Control_c, 0, 64, 77
1, 390111, Control_c, 0, 64, 78
1, 390126, Control_c, 0, 64, 79
1, 390141, Control_c, 0, 64, 80
1, 390156, Control_c, 0, 64, 81
1, 390170, Control_c, 0, 64, 83
1, 390186, Control_c, 0, 64, 85
1, 390201, Control_c, 0, 64, 86
1, 390216, Control_c, 0, 64, 88
1, 390231, Control_c, 0, 64, 90
1, 390246, Control_c, 0, 64, 92
1, 390260, Control_c, 0, 64, 94
1, 390275, Control_c, 0, 64, 95
1, 390290, Control_c, 0, 64, 97
1, 390305, Control_c, 0, 64, 98
1, 390319, Control_c, 0, 64, 99
1, 390334, Control_c, 0, 64, 101
1, 390349, Control_c, 0, 64, 103
1, 390364, Control_c, 0, 64, 104
1, 390379, Control_c, 0, 64, 106
1, 390393, Control_c, 0, 64, 106
1, 390408, Control_c, 0, 64, 107
1, 390438, Control_c, 0, 64, 107
1, 390467, Control_c, 0, 64, 108
1, 390734, Control_c, 0, 64, 107
1, 390830, Control_c, 0, 64, 107
1, 390884, Note_on_c, 0, 67, 45
1, 390894, Note_on_c, 0, 59, 41
1, 390912, Note_on_c, 0, 62, 39
1, 390939, Note_off_c, 0, 64, 40
1, 390979, Control_c, 0, 64, 106
1, 391039, Control_c, 0, 64, 106
1, 391042, Note_off_c, 0, 60, 40
1, 391050, Poly_aftertouch_c, 0, 72, 0
1, 391098, Control_c, 0, 64, 105
1, 391128, Control_c, 0, 64, 105
1, 391142, Control_c, 0, 64, 104
1, 391238, Note_on_c, 0, 71, 73
1, 391286, Note_off_c, 0, 76, 53
1, 391349, Control_c, 0, 64, 104
1, 391358, Note_off_c, 0, 67, 58
1, 391394, Control_c, 0, 64, 103
1, 391423, Control_c, 0, 64, 103
1, 391468, Control_c, 0, 64, 102
1, 391498, Control_c, 0, 64, 102
1, 391542, Control_c, 0, 64, 101
1, 391564, Control_c, 0, 64, 101
1, 391579, Control_c, 0, 64, 100
1, 391593, Note_off_c, 0, 62, 28
1, 391594, Control_c, 0, 64, 99
1, 391608, Control_c, 0, 64, 98
1, 391623, Control_c, 0, 64, 98
1, 391638, Control_c, 0, 64, 97
1, 391644, Note_off_c, 0, 59, 40
1, 391650, Note_on_c, 0, 57, 43
1, 391650, Note_on_c, 0, 60, 36
1, 391653, Note_on_c, 0, 72, 73
1, 391653, Control_c, 0, 64, 96
1, 391668, Control_c, 0, 64, 95
1, 391669, Note_on_c, 0, 66, 52
1, 391680, Note_off_c, 0, 69, 55
1, 391682, Control_c, 0, 64, 94
1, 391696, Note_off_c, 0, 71, 55
1, 391697, Control_c, 0, 64, 92
1, 391712, Control_c, 0, 64, 90
1, 391727, Control_c, 0, 64, 88
1, 391742, Control_c, 0, 64, 84
1, 391757, Control_c, 0, 64, 81
1, 391772, Control_c, 0, 64, 78
1, 391787, Control_c, 0, 64, 73
1, 391802, Control_c, 0, 64, 68
1, 391817, Control_c, 0, 64, 63
1, 391832, Control_c, 0, 64, 55
1, 391846, Control_c, 0, 64, 42
1, 391861, Control_c, 0, 64, 34
1, 391876, Control_c, 0, 64, 31
1, 391891, Control_c, 0, 64, 26
1, 391906, Control_c, 0, 64, 0
1, 392054, Control_c, 0, 64, 11
1, 392069, Control_c, 0, 64, 27
1, 392083, Control_c, 0, 64, 42
1, 392098, Control_c, 0, 64, 51
1, 392113, Control_c, 0, 64, 56
1, 392128, Control_c, 0, 64, 60
1, 392143, Control_c, 0, 64, 62
1, 392157, Control_c, 0, 64, 63
1, 392172, Control_c, 0, 64, 64
1, 392187, Control_c, 0, 64, 66
1, 392202, Control_c, 0, 64, 67
1, 392217, Control_c, 0, 64, 69
1, 392231, Control_c, 0, 64, 71
1, 392246, Control_c, 0, 64, 71
1, 392261, Control_c, 0, 64, 72
1, 392276, Control_c, 0, 64, 74
1, 392291, Control_c, 0, 64, 75
1, 392313, Control_c, 0, 64, 76
1, 392328, Control_c, 0, 64, 76
1, 392387, Control_c, 0, 64, 76
1, 392402, Control_c, 0, 64, 75
1, 392416, Control_c, 0, 64, 74
1, 392431, Control_c, 0, 64, 74
1, 392446, Control_c, 0, 64, 73
1, 392461, Control_c, 0, 64, 72
1, 392464, Note_on_c, 0, 76, 68
1, 392476, Control_c, 0, 64, 71
1, 392490, Control_c, 0, 64, 70
1, 392505, Control_c, 0, 64, 69
1, 392520, Control_c, 0, 64, 68
1, 392535, Control_c, 0, 64, 67
1, 392550, Control_c, 0, 64, 67
1, 392565, Control_c, 0, 64, 66
1, 392580, Control_c, 0, 64, 66
1, 392625, Control_c, 0, 64, 66
1, 392654, Control_c, 0, 64, 67
1, 392669, Control_c, 0, 64, 68
1, 392684, Control_c, 0, 64, 68
1, 392699, Control_c, 0, 64, 69
1, 392744, Control_c, 0, 64, 70
1, 392759, Control_c, 0, 64, 70
1, 392773, Control_c, 0, 64, 71
1, 392788, Control_c, 0, 64, 72
1, 392803, Control_c, 0, 64, 72
1, 392847, Control_c, 0, 64, 73
1, 392877, Control_c, 0, 64, 73
1, 392892, Control_c, 0, 64, 74
1, 392936, Control_c, 0, 64, 75
1, 392951, Control_c, 0, 64, 76
1, 392966, Control_c, 0, 64, 78
1, 392980, Control_c, 0, 64, 80
1, 392995, Control_c, 0, 64, 81
1, 393010, Control_c, 0, 64, 83
1, 393024, Control_c, 0, 64, 85
1, 393039, Control_c, 0, 64, 88
1, 393062, Control_c, 0, 64, 90
1, 393077, Control_c, 0, 64, 92
1, 393092, Control_c, 0, 64, 94
1, 393106, Control_c, 0, 64, 96
1, 393121, Control_c, 0, 64, 98
1, 393136, Control_c, 0, 64, 100
1, 393151, Control_c, 0, 64, 102
1, 393166, Control_c, 0, 64, 104
1, 393180, Control_c, 0, 64, 106
1, 393195, Control_c, 0, 64, 108
1, 393210, Control_c, 0, 64, 110
1, 393225, Control_c, 0, 64, 111
1, 393239, Control_c, 0, 64, 111
1, 393254, Control_c, 0, 64, 112
1, 393265, Note_off_c, 0, 72, 57
1, 393269, Control_c, 0, 64, 112
1, 393537, Control_c, 0, 64, 112
1, 393566, Control_c, 0, 64, 111
1, 393581, Control_c, 0, 64, 111
1, 393596, Control_c, 0, 64, 110
1, 393611, Control_c, 0, 64, 110
1, 393641, Control_c, 0, 64, 109
1, 393642, Note_on_c, 0, 75, 19
1, 393685, Control_c, 0, 64, 109
1, 393763, Note_on_c, 0, 74, 67
1, 393774, Control_c, 0, 64, 108
1, 393826, Control_c, 0, 64, 108
1, 393855, Control_c, 0, 64, 107
1, 393870, Control_c, 0, 64, 107
1, 393880, Note_off_c, 0, 76, 36
1, 393885, Note_off_c, 0, 75, 36
1, 393900, Control_c, 0, 64, 106
1, 393929, Control_c, 0, 64, 106
1, 393959, Control_c, 0, 64, 105
1, 393989, Control_c, 0, 64, 105
1, 393992, Note_off_c, 0, 66, 61
1, 394003, Control_c, 0, 64, 104
1, 394033, Control_c, 0, 64, 104
1, 394048, Note_off_c, 0, 57, 37
1, 394062, Control_c, 0, 64, 103
1, 394077, Control_c, 0, 64, 103
1, 394092, Control_c, 0, 64, 102
1, 394107, Control_c, 0, 64, 101
1, 394122, Control_c, 0, 64, 100
1, 394136, Control_c, 0, 64, 97
1, 394151, Control_c, 0, 64, 94
1, 394166, Control_c, 0, 64, 91
1, 394171, Note_on_c, 0, 56, 45
1, 394177, Note_on_c, 0, 71, 69
1, 394182, Control_c, 0, 64, 87
1, 394193, Note_off_c, 0, 60, 34
1, 394197, Control_c, 0, 64, 84
1, 394200, Note_on_c, 0, 65, 34
1, 394212, Control_c, 0, 64, 83
1, 394226, Control_c, 0, 64, 82
1, 394237, Note_off_c, 0, 74, 57
1, 394256, Control_c, 0, 64, 83
1, 394271, Control_c, 0, 64, 84
1, 394285, Control_c, 0, 64, 86
1, 394300, Control_c, 0, 64, 88
1, 394315, Control_c, 0, 64, 91
1, 394330, Control_c, 0, 64, 92
1, 394345, Control_c, 0, 64, 94
1, 394359, Control_c, 0, 64, 95
1, 394374, Control_c, 0, 64, 96
1, 394389, Control_c, 0, 64, 97
1, 394488, Note_on_c, 0, 72, 75
1, 394648, Control_c, 0, 64, 96
1, 394652, Note_off_c, 0, 71, 40
1, 394666, Note_off_c, 0, 65, 38
1, 394678, Control_c, 0, 64, 96
1, 394708, Control_c, 0, 64, 95
1, 394717, Note_off_c, 0, 72, 60
1, 394723, Control_c, 0, 64, 95
1, 394729, Note_off_c, 0, 56, 0
1, 394738, Control_c, 0, 64, 94
1, 394752, Control_c, 0, 64, 94
1, 394767, Control_c, 0, 64, 93
1, 394782, Control_c, 0, 64, 92
1, 394785, Note_on_c, 0, 55, 39
1, 394786, Note_on_c, 0, 48, 37
1, 394797, Control_c, 0, 64, 91
1, 394811, Control_c, 0, 64, 90
1, 394818, Note_on_c, 0, 72, 75
1, 394818, Poly_aftertouch_c, 0, 56, 0
1, 394826, Control_c, 0, 64, 90
1, 394837, Note_on_c, 0, 64, 43
1, 394841, Control_c, 0, 64, 89
1, 394856, Control_c, 0, 64, 87
1, 394871, Control_c, 0, 64, 86
1, 394885, Control_c, 0, 64, 84
1, 394900, Control_c, 0, 64, 83
1, 394915, Control_c, 0, 64, 82
1, 394930, Control_c, 0, 64, 80
1, 394945, Control_c, 0, 64, 77
1, 394959, Control_c, 0, 64, 73
1, 394975, Control_c, 0, 64, 69
1, 394990, Control_c, 0, 64, 67
1, 395005, Control_c, 0, 64, 66
1, 395020, Control_c, 0, 64, 64
1, 395034, Control_c, 0, 64, 61
1, 395049, Control_c, 0, 64, 47
1, 395064, Control_c, 0, 64, 0
1, 395197, Control_c, 0, 64, 46
1, 395212, Control_c, 0, 64, 63
1, 395227, Control_c, 0, 64, 66
1, 395242, Control_c, 0, 64, 69
1, 395257, Control_c, 0, 64, 71
1, 395271, Control_c, 0, 64, 73
1, 395286, Control_c, 0, 64, 75
1, 395308, Control_c, 0, 64, 75
1, 395323, Control_c, 0, 64, 76
1, 395382, Control_c, 0, 64, 77
1, 395397, Control_c, 0, 64, 77
1, 395412, Control_c, 0, 64, 78
1, 395449, Note_on_c, 0, 67, 67
1, 395546, Control_c, 0, 64, 79
1, 395561, Control_c, 0, 64, 80
1, 395575, Control_c, 0, 64, 82
1, 395590, Control_c, 0, 64, 84
1, 395605, Control_c, 0, 64, 86
1, 395619, Control_c, 0, 64, 88
1, 395634, Control_c, 0, 64, 89
1, 395649, Control_c, 0, 64, 89
1, 395664, Control_c, 0, 64, 90
1, 395668, Note_off_c, 0, 64, 53
1, 395694, Control_c, 0, 64, 91
1, 395697, Poly_aftertouch_c, 0, 70, 127
1, 395748, Poly_aftertouch_c, 0, 70, 0
1, 395828, Control_c, 0, 64, 90
1, 395857, Control_c, 0, 64, 90
1, 395872, Control_c, 0, 64, 89
1, 395887, Control_c, 0, 64, 89
1, 395902, Control_c, 0, 64, 88
1, 395917, Control_c, 0, 64, 88
1, 395931, Control_c, 0, 64, 87
1, 395946, Control_c, 0, 64, 86
1, 395949, Note_on_c, 0, 63, 55
1, 395958, Note_on_c, 0, 54, 48
1, 395961, Control_c, 0, 64, 84
1, 395976, Control_c, 0, 64, 82
1, 395991, Control_c, 0, 64, 79
1, 396005, Control_c, 0, 64, 76
1, 396020, Control_c, 0, 64, 71
1, 396035, Control_c, 0, 64, 66
1, 396037, Note_off_c, 0, 55, 40
1, 396057, Control_c, 0, 64, 63
1, 396072, Control_c, 0, 64, 61
1, 396102, Control_c, 0, 64, 62
1, 396117, Control_c, 0, 64, 63
1, 396131, Control_c, 0, 64, 64
1, 396146, Control_c, 0, 64, 65
1, 396161, Control_c, 0, 64, 66
1, 396176, Control_c, 0, 64, 68
1, 396191, Control_c, 0, 64, 70
1, 396205, Control_c, 0, 64, 72
1, 396220, Control_c, 0, 64, 74
1, 396235, Control_c, 0, 64, 76
1, 396249, Control_c, 0, 64, 77
1, 396264, Control_c, 0, 64, 79
1, 396279, Control_c, 0, 64, 81
1, 396294, Control_c, 0, 64, 82
1, 396309, Control_c, 0, 64, 84
1, 396324, Control_c, 0, 64, 85
1, 396339, Control_c, 0, 64, 85
1, 396425, Note_on_c, 0, 69, 64
1, 396547, Note_off_c, 0, 72, 61
1, 396561, Control_c, 0, 64, 85
1, 396621, Control_c, 0, 64, 84
1, 396651, Control_c, 0, 64, 84
1, 396657, Note_off_c, 0, 63, 57
1, 396666, Control_c, 0, 64, 83
1, 396681, Control_c, 0, 64, 82
1, 396696, Control_c, 0, 64, 79
1, 396711, Control_c, 0, 64, 77
1, 396720, Note_on_c, 0, 62, 51
1, 396720, Note_off_c, 0, 54, 43
1, 396726, Control_c, 0, 64, 76
1, 396726, Note_on_c, 0, 53, 43
1, 396741, Control_c, 0, 64, 75
1, 396785, Control_c, 0, 64, 76
1, 396807, Control_c, 0, 64, 78
1, 396822, Control_c, 0, 64, 79
1, 396836, Control_c, 0, 64, 80
1, 396851, Control_c, 0, 64, 81
1, 396866, Control_c, 0, 64, 81
1, 396881, Control_c, 0, 64, 82
1, 396970, Control_c, 0, 67, 8
1, 396985, Control_c, 0, 67, 8
1, 396999, Control_c, 0, 67, 9
1, 397000, Note_off_c, 0, 67, 39
1, 397009, Note_on_c, 0, 71, 62
1, 397029, Control_c, 0, 67, 9
1, 397044, Control_c, 0, 67, 10
1, 397059, Control_c, 0, 67, 11
1, 397073, Control_c, 0, 67, 12
1, 397088, Control_c, 0, 67, 13
1, 397103, Control_c, 0, 67, 15
1, 397118, Control_c, 0, 67, 16
1, 397133, Control_c, 0, 67, 19
1, 397147, Control_c, 0, 67, 21
1, 397162, Control_c, 0, 67, 24
1, 397177, Control_c, 0, 67, 26
1, 397192, Control_c, 0, 64, 81
1, 397192, Control_c, 0, 67, 28
1, 397200, Note_off_c, 0, 62, 60
1, 397206, Control_c, 0, 67, 30
1, 397221, Control_c, 0, 67, 32
1, 397236, Control_c, 0, 67, 34
1, 397251, Control_c, 0, 67, 36
1, 397266, Note_off_c, 0, 53, 40
1, 397266, Note_off_c, 0, 69, 39
1, 397266, Control_c, 0, 67, 38
1, 397281, Control_c, 0, 64, 81
1, 397281, Control_c, 0, 67, 39
1, 397296, Control_c, 0, 67, 41
1, 397310, Control_c, 0, 67, 42
1, 397325, Control_c, 0, 64, 80
1, 397325, Control_c, 0, 67, 43
1, 397340, Control_c, 0, 67, 44
1, 397355, Control_c, 0, 67, 44
1, 397370, Control_c, 0, 64, 80
1, 397370, Control_c, 0, 67, 45
1, 397385, Control_c, 0, 64, 79
1, 397385, Control_c, 0, 67, 46
1, 397400, Control_c, 0, 67, 47
1, 397415, Control_c, 0, 64, 79
1, 397415, Control_c, 0, 67, 48
1, 397429, Control_c, 0, 67, 49
1, 397444, Control_c, 0, 64, 78
1, 397444, Control_c, 0, 67, 49
1, 397459, Control_c, 0, 64, 77
1, 397459, Control_c, 0, 67, 50
1, 397466, Note_off_c, 0, 48, 37
1, 397473, Note_on_c, 0, 69, 53
1, 397474, Control_c, 0, 64, 75
1, 397478, Note_on_c, 0, 45, 33
1, 397480, Note_on_c, 0, 61, 40
1, 397483, Note_on_c, 0, 52, 35
1, 397489, Control_c, 0, 64, 74
1, 397503, Control_c, 0, 64, 72
1, 397518, Control_c, 0, 64, 70
1, 397518, Control_c, 0, 67, 50
1, 397533, Control_c, 0, 64, 68
1, 397555, Control_c, 0, 64, 65
1, 397570, Control_c, 0, 64, 64
1, 397585, Control_c, 0, 64, 61
1, 397585, Control_c, 0, 67, 51
1, 397594, Note_off_c, 0, 71, 61
1, 397600, Control_c, 0, 64, 56
1, 397614, Control_c, 0, 64, 50
1, 397629, Control_c, 0, 64, 41
1, 397644, Control_c, 0, 64, 30
1, 397644, Control_c, 0, 67, 51
1, 397659, Control_c, 0, 64, 23
1, 397674, Control_c, 0, 64, 19
1, 397689, Control_c, 0, 64, 17
1, 397703, Control_c, 0, 64, 14
1, 397718, Control_c, 0, 64, 11
1, 397733, Control_c, 0, 64, 0
1, 397866, Control_c, 0, 67, 52
1, 397881, Control_c, 0, 64, 11
1, 397925, Control_c, 0, 64, 14
1, 397969, Control_c, 0, 64, 17
1, 397984, Control_c, 0, 67, 52
1, 398014, Control_c, 0, 64, 19
1, 398029, Control_c, 0, 64, 21
1, 398044, Control_c, 0, 64, 23
1, 398059, Control_c, 0, 64, 24
1, 398059, Control_c, 0, 67, 53
1, 398074, Control_c, 0, 64, 26
1, 398074, Control_c, 0, 67, 53
1, 398088, Control_c, 0, 64, 27
1, 398088, Control_c, 0, 67, 56
1, 398103, Control_c, 0, 64, 28
1, 398103, Control_c, 0, 67, 58
1, 398118, Control_c, 0, 64, 30
1, 398118, Control_c, 0, 67, 59
1, 398133, Control_c, 0, 64, 32
1, 398133, Control_c, 0, 67, 59
1, 398147, Control_c, 0, 64, 34
1, 398147, Control_c, 0, 67, 60
1, 398163, Control_c, 0, 64, 36
1, 398163, Control_c, 0, 67, 60
1, 398167, Note_on_c, 0, 64, 58
1, 398178, Control_c, 0, 64, 38
1, 398178, Control_c, 0, 67, 61
1, 398193, Control_c, 0, 64, 40
1, 398193, Control_c, 0, 67, 62
1, 398208, Control_c, 0, 64, 41
1, 398208, Control_c, 0, 67, 62
1, 398223, Control_c, 0, 64, 43
1, 398223, Control_c, 0, 67, 63
1, 398237, Control_c, 0, 64, 47
1, 398252, Control_c, 0, 64, 49
1, 398252, Control_c, 0, 67, 64
1, 398267, Control_c, 0, 64, 51
1, 398282, Control_c, 0, 64, 53
1, 398304, Control_c, 0, 64, 55
1, 398304, Control_c, 0, 67, 64
1, 398318, Control_c, 0, 64, 57
1, 398333, Control_c, 0, 64, 61
1, 398333, Control_c, 0, 67, 65
1, 398348, Control_c, 0, 64, 63
1, 398348, Control_c, 0, 67, 65
1, 398363, Control_c, 0, 64, 64
1, 398378, Control_c, 0, 64, 65
1, 398378, Control_c, 0, 67, 66
1, 398392, Control_c, 0, 64, 66
1, 398407, Control_c, 0, 64, 68
1, 398407, Control_c, 0, 67, 66
1, 398422, Control_c, 0, 64, 70
1, 398437, Control_c, 0, 64, 71
1, 398437, Control_c, 0, 67, 67
1, 398452, Control_c, 0, 64, 72
1, 398467, Control_c, 0, 64, 74
1, 398467, Control_c, 0, 67, 68
1, 398482, Control_c, 0, 64, 76
1, 398497, Control_c, 0, 64, 79
1, 398512, Control_c, 0, 64, 81
1, 398512, Control_c, 0, 67, 68
1, 398526, Control_c, 0, 64, 81
1, 398541, Control_c, 0, 64, 82
1, 398556, Control_c, 0, 64, 82
1, 398571, Control_c, 0, 64, 83
1, 398586, Control_c, 0, 64, 83
1, 398586, Control_c, 0, 67, 69
1, 398704, Control_c, 0, 64, 83
1, 398704, Control_c, 0, 67, 69
1, 398748, Control_c, 0, 64, 82
1, 398756, Note_off_c, 0, 61, 40
1, 398763, Control_c, 0, 64, 82
1, 398777, Control_c, 0, 64, 81
1, 398792, Control_c, 0, 64, 80
1, 398807, Control_c, 0, 64, 79
1, 398822, Note_on_c, 0, 60, 42
1, 398822, Control_c, 0, 64, 78
1, 398837, Control_c, 0, 64, 77
1, 398843, Note_on_c, 0, 51, 35
1, 398852, Control_c, 0, 64, 74
1, 398864, Note_off_c, 0, 52, 35
1, 398866, Control_c, 0, 64, 70
1, 398881, Control_c, 0, 64, 67
1, 398896, Control_c, 0, 64, 64
1, 398911, Control_c, 0, 64, 62
1, 398926, Control_c, 0, 64, 61
1, 398941, Control_c, 0, 64, 61
1, 398941, Control_c, 0, 67, 70
1, 399001, Control_c, 0, 64, 62
1, 399015, Control_c, 0, 64, 63
1, 399030, Control_c, 0, 64, 63
1, 399053, Control_c, 0, 64, 64
1, 399068, Control_c, 0, 64, 65
1, 399082, Control_c, 0, 64, 65
1, 399097, Control_c, 0, 64, 66
1, 399112, Control_c, 0, 64, 67
1, 399127, Control_c, 0, 64, 68
1, 399141, Control_c, 0, 64, 69
1, 399156, Control_c, 0, 64, 70
1, 399171, Control_c, 0, 64, 71
1, 399186, Control_c, 0, 64, 73
1, 399200, Control_c, 0, 64, 74
1, 399215, Control_c, 0, 64, 75
1, 399245, Control_c, 0, 64, 76
1, 399275, Control_c, 0, 64, 76
1, 399290, Control_c, 0, 64, 77
1, 399305, Control_c, 0, 64, 77
1, 399320, Note_on_c, 0, 66, 55
1, 399320, Control_c, 0, 64, 78
1, 399320, Control_c, 0, 67, 70
1, 399334, Control_c, 0, 64, 78
1, 399349, Control_c, 0, 64, 80
1, 399364, Control_c, 0, 64, 81
1, 399379, Control_c, 0, 64, 82
1, 399393, Control_c, 0, 64, 82
1, 399424, Note_off_c, 0, 64, 54
1, 399438, Control_c, 0, 67, 71
1, 399443, Note_off_c, 0, 69, 44
1, 399495, Note_off_c, 0, 60, 57
1, 399497, Control_c, 0, 67, 73
1, 399502, Note_off_c, 0, 45, 42
1, 399512, Control_c, 0, 67, 76
1, 399527, Control_c, 0, 64, 82
1, 399527, Control_c, 0, 67, 78
1, 399541, Control_c, 0, 64, 81
1, 399541, Control_c, 0, 67, 81
1, 399556, Control_c, 0, 67, 84
1, 399571, Control_c, 0, 64, 81
1, 399571, Control_c, 0, 67, 85
1, 399586, Control_c, 0, 64, 80
1, 399586, Control_c, 0, 67, 86
1, 399600, Control_c, 0, 64, 80
1, 399600, Control_c, 0, 67, 87
1, 399615, Control_c, 0, 64, 79
1, 399615, Control_c, 0, 67, 88
1, 399630, Control_c, 0, 64, 77
1, 399630, Control_c, 0, 67, 88
1, 399645, Control_c, 0, 64, 76
1, 399645, Control_c, 0, 67, 89
1, 399660, Control_c, 0, 64, 75
1, 399660, Control_c, 0, 67, 89
1, 399674, Control_c, 0, 64, 74
1, 399674, Control_c, 0, 67, 90
1, 399687, Note_on_c, 0, 59, 37
1, 399689, Control_c, 0, 64, 73
1, 399689, Control_c, 0, 67, 90
1, 399695, Note_on_c, 0, 50, 31
1, 399704, Control_c, 0, 64, 72
1, 399704, Control_c, 0, 67, 91
1, 399712, Note_off_c, 0, 51, 39
1, 399717, Note_on_c, 0, 43, 27
1, 399719, Control_c, 0, 64, 70
1, 399719, Control_c, 0, 67, 91
1, 399734, Control_c, 0, 64, 67
1, 399734, Control_c, 0, 67, 92
1, 399748, Control_c, 0, 64, 64
1, 399748, Control_c, 0, 67, 93
1, 399764, Control_c, 0, 64, 62
1, 399764, Control_c, 0, 67, 94
1, 399779, Control_c, 0, 64, 60
1, 399779, Control_c, 0, 67, 95
1, 399801, Control_c, 0, 64, 57
1, 399801, Control_c, 0, 67, 96
1, 399816, Control_c, 0, 64, 55
1, 399816, Control_c, 0, 67, 97
1, 399830, Control_c, 0, 64, 54
1, 399830, Control_c, 0, 67, 98
1, 399845, Control_c, 0, 64, 54
1, 399845, Control_c, 0, 67, 99
1, 399860, Control_c, 0, 67, 101
1, 399875, Control_c, 0, 67, 102
1, 399890, Control_c, 0, 67, 104
1, 399904, Control_c, 0, 67, 105
1, 399934, Control_c, 0, 64, 54
1, 399949, Control_c, 0, 64, 55
1, 399964, Control_c, 0, 64, 55
1, 399964, Control_c, 0, 67, 105
1, 399993, Control_c, 0, 64, 56
1, 400083, Control_c, 0, 64, 56
1, 400097, Control_c, 0, 64, 57
1, 400112, Control_c, 0, 64, 57
1, 400127, Note_on_c, 0, 67, 59
1, 400127, Control_c, 0, 64, 59
1, 400142, Control_c, 0, 64, 60
1, 400142, Control_c, 0, 67, 106
1, 400157, Control_c, 0, 64, 61
1, 400163, Note_on_c, 0, 49, 35
1, 400168, Note_off_c, 0, 50, 43
1, 400171, Control_c, 0, 64, 62
1, 400186, Control_c, 0, 64, 63
1, 400201, Control_c, 0, 64, 64
1, 400201, Control_c, 0, 67, 106
1, 400215, Control_c, 0, 64, 65
1, 400230, Control_c, 0, 64, 67
1, 400245, Control_c, 0, 64, 69
1, 400260, Control_c, 0, 64, 71
1, 400275, Control_c, 0, 64, 72
1, 400289, Control_c, 0, 64, 75
1, 400304, Control_c, 0, 64, 77
1, 400319, Control_c, 0, 64, 79
1, 400319, Control_c, 0, 67, 107
1, 400334, Control_c, 0, 64, 80
1, 400334, Control_c, 0, 67, 108
1, 400349, Control_c, 0, 64, 81
1, 400349, Control_c, 0, 67, 109
1, 400363, Control_c, 0, 64, 83
1, 400363, Control_c, 0, 67, 110
1, 400367, Note_off_c, 0, 43, 38
1, 400378, Control_c, 0, 64, 84
1, 400378, Control_c, 0, 67, 112
1, 400393, Control_c, 0, 64, 85
1, 400393, Control_c, 0, 67, 113
1, 400408, Control_c, 0, 64, 86
1, 400408, Control_c, 0, 67, 114
1, 400422, Control_c, 0, 67, 115
1, 400437, Control_c, 0, 64, 86
1, 400437, Control_c, 0, 67, 117
1, 400439, Note_off_c, 0, 66, 29
1, 400452, Control_c, 0, 67, 118
1, 400467, Control_c, 0, 64, 87
1, 400467, Control_c, 0, 67, 119
1, 400482, Control_c, 0, 64, 87
1, 400482, Control_c, 0, 67, 120
1, 400488, Note_off_c, 0, 59, 33
1, 400497, Control_c, 0, 67, 121
1, 400512, Control_c, 0, 67, 122
1, 400527, Control_c, 0, 67, 123
1, 400528, Note_off_c, 0, 49, 37
1, 400563, Control_c, 0, 67, 123
1, 400639, Control_c, 0, 67, 124
1, 400713, Control_c, 0, 67, 124
1, 400742, Control_c, 0, 64, 87
1, 400772, Control_c, 0, 64, 86
1, 400801, Control_c, 0, 64, 86
1, 400831, Control_c, 0, 64, 85
1, 400846, Control_c, 0, 64, 84
1, 400861, Control_c, 0, 64, 83
1, 400869, Note_on_c, 0, 66, 44
1, 400874, Note_on_c, 0, 57, 25
1, 400876, Control_c, 0, 64, 83
1, 400876, Note_on_c, 0, 62, 31
1, 400890, Control_c, 0, 64, 82
1, 400903, Note_on_c, 0, 50, 13
1, 400905, Control_c, 0, 64, 82
1, 400909, Note_on_c, 0, 38, 27
1, 400920, Control_c, 0, 64, 81
1, 400935, Control_c, 0, 64, 79
1, 400935, Control_c, 0, 67, 125
1, 400950, Control_c, 0, 64, 77
1, 400961, Note_off_c, 0, 67, 30
1, 400965, Control_c, 0, 64, 73
1, 400980, Control_c, 0, 64, 69
1, 400994, Control_c, 0, 64, 65
1, 401009, Control_c, 0, 64, 63
1, 401024, Control_c, 0, 64, 61
1, 401038, Control_c, 0, 64, 59
1, 401053, Control_c, 0, 64, 57
1, 401068, Control_c, 0, 64, 53
1, 401083, Control_c, 0, 64, 47
1, 401098, Control_c, 0, 64, 41
1, 401112, Control_c, 0, 64, 36
1, 401127, Control_c, 0, 64, 34
1, 401156, Control_c, 0, 64, 33
1, 401260, Control_c, 0, 64, 34
1, 401275, Control_c, 0, 64, 36
1, 401298, Control_c, 0, 64, 39
1, 401313, Control_c, 0, 64, 43
1, 401327, Control_c, 0, 64, 45
1, 401342, Control_c, 0, 64, 48
1, 401357, Control_c, 0, 64, 51
1, 401373, Control_c, 0, 64, 54
1, 401388, Control_c, 0, 64, 56
1, 401403, Control_c, 0, 64, 58
1, 401417, Control_c, 0, 64, 59
1, 401432, Control_c, 0, 64, 60
1, 401447, Control_c, 0, 64, 62
1, 401462, Control_c, 0, 64, 63
1, 401476, Control_c, 0, 64, 63
1, 401491, Control_c, 0, 64, 64
1, 401506, Control_c, 0, 64, 65
1, 401521, Control_c, 0, 64, 66
1, 401536, Control_c, 0, 64, 67
1, 401550, Control_c, 0, 64, 68
1, 401565, Control_c, 0, 64, 70
1, 401580, Control_c, 0, 64, 71
1, 401594, Control_c, 0, 64, 72
1, 401609, Control_c, 0, 64, 74
1, 401624, Control_c, 0, 64, 75
1, 401639, Control_c, 0, 64, 77
1, 401654, Control_c, 0, 64, 79
1, 401669, Control_c, 0, 64, 80
1, 401683, Control_c, 0, 64, 82
1, 401698, Control_c, 0, 64, 83
1, 401713, Control_c, 0, 64, 85
1, 401728, Control_c, 0, 64, 86
1, 401743, Control_c, 0, 64, 87
1, 401758, Control_c, 0, 64, 88
1, 401773, Control_c, 0, 64, 89
1, 401787, Control_c, 0, 64, 90
1, 401802, Control_c, 0, 64, 91
1, 401817, Control_c, 0, 64, 92
1, 401832, Control_c, 0, 64, 92
1, 401876, Control_c, 0, 64, 93
1, 401934, Note_off_c, 0, 62, 37
1, 401951, Note_off_c, 0, 50, 21
1, 402047, Control_c, 0, 67, 125
1, 402106, Control_c, 0, 67, 126
1, 402110, Note_off_c, 0, 38, 39
1, 402127, Note_off_c, 0, 57, 38
1, 402150, Control_c, 0, 64, 92
1, 402150, Control_c, 0, 67, 126
1, 402181, Control_c, 0, 67, 127
1, 402211, Control_c, 0, 64, 92
1, 402255, Control_c, 0, 64, 91
1, 402299, Control_c, 0, 64, 91
1, 402344, Control_c, 0, 64, 90
1, 402432, Control_c, 0, 64, 90
1, 402477, Control_c, 0, 64, 89
1, 402491, Control_c, 0, 64, 89
1, 402506, Control_c, 0, 64, 88
1, 402521, Control_c, 0, 64, 87
1, 402536, Control_c, 0, 64, 86
1, 402551, Control_c, 0, 64, 85
1, 402566, Control_c, 0, 64, 84
1, 402581, Control_c, 0, 64, 83
1, 402592, Note_on_c, 0, 64, 42
1, 402596, Control_c, 0, 64, 81
1, 402608, Note_on_c, 0, 62, 26
1, 402610, Control_c, 0, 64, 80
1, 402616, Note_on_c, 0, 55, 11
1, 402625, Control_c, 0, 64, 79
1, 402625, Note_on_c, 0, 50, 7
1, 402640, Control_c, 0, 64, 78
1, 402645, Note_on_c, 0, 35, 25
1, 402655, Control_c, 0, 64, 76
1, 402670, Control_c, 0, 64, 73
1, 402685, Control_c, 0, 64, 70
1, 402700, Control_c, 0, 64, 67
1, 402712, Note_off_c, 0, 66, 33
1, 402715, Control_c, 0, 64, 65
1, 402730, Control_c, 0, 64, 63
1, 402745, Control_c, 0, 64, 61
1, 402759, Control_c, 0, 64, 58
1, 402774, Control_c, 0, 64, 54
1, 402796, Control_c, 0, 64, 50
1, 402811, Control_c, 0, 64, 47
1, 402825, Control_c, 0, 64, 46
1, 402840, Control_c, 0, 64, 45
1, 402855, Control_c, 0, 64, 44
1, 402870, Control_c, 0, 64, 44
1, 402960, Control_c, 0, 64, 44
1, 402975, Control_c, 0, 64, 45
1, 402989, Control_c, 0, 64, 47
1, 403004, Control_c, 0, 64, 49
1, 403019, Control_c, 0, 64, 50
1, 403034, Control_c, 0, 64, 51
1, 403049, Control_c, 0, 64, 53
1, 403064, Control_c, 0, 64, 55
1, 403078, Control_c, 0, 64, 57
1, 403093, Control_c, 0, 64, 59
1, 403108, Control_c, 0, 64, 59
1, 403123, Control_c, 0, 64, 60
1, 403138, Control_c, 0, 64, 61
1, 403153, Control_c, 0, 64, 62
1, 403168, Control_c, 0, 64, 63
1, 403183, Control_c, 0, 64, 63
1, 403212, Control_c, 0, 64, 64
1, 403241, Control_c, 0, 64, 64
1, 403256, Control_c, 0, 64, 65
1, 403271, Control_c, 0, 64, 66
1, 403286, Control_c, 0, 64, 67
1, 403301, Control_c, 0, 64, 67
1, 403315, Control_c, 0, 64, 68
1, 403330, Control_c, 0, 64, 69
1, 403345, Control_c, 0, 64, 70
1, 403359, Control_c, 0, 64, 71
1, 403374, Control_c, 0, 64, 73
1, 403389, Control_c, 0, 64, 74
1, 403404, Control_c, 0, 64, 76
1, 403418, Control_c, 0, 64, 77
1, 403433, Control_c, 0, 64, 79
1, 403448, Control_c, 0, 64, 81
1, 403463, Control_c, 0, 64, 83
1, 403478, Control_c, 0, 64, 84
1, 403493, Control_c, 0, 64, 86
1, 403507, Control_c, 0, 64, 87
1, 403522, Control_c, 0, 64, 89
1, 403544, Control_c, 0, 64, 89
1, 403559, Control_c, 0, 64, 90
1, 403618, Control_c, 0, 64, 90
1, 403633, Control_c, 0, 64, 91
1, 403648, Control_c, 0, 64, 91
1, 403663, Control_c, 0, 64, 92
1, 403678, Control_c, 0, 64, 92
1, 403693, Control_c, 0, 64, 93
1, 403699, Note_off_c, 0, 35, 29
1, 403707, Control_c, 0, 64, 94
1, 403722, Control_c, 0, 64, 95
1, 403725, Note_off_c, 0, 50, 34
1, 403737, Control_c, 0, 64, 95
1, 403776, Note_off_c, 0, 62, 31
1, 403782, Control_c, 0, 64, 96
1, 403794, Note_off_c, 0, 55, 29
1, 404004, Control_c, 0, 64, 95
1, 404019, Control_c, 0, 64, 95
1, 404049, Control_c, 0, 64, 94
1, 404078, Control_c, 0, 64, 94
1, 404093, Control_c, 0, 64, 93
1, 404108, Control_c, 0, 64, 93
1, 404123, Control_c, 0, 64, 92
1, 404137, Control_c, 0, 64, 92
1, 404152, Control_c, 0, 64, 91
1, 404167, Control_c, 0, 64, 91
1, 404181, Control_c, 0, 64, 90
1, 404196, Control_c, 0, 64, 89
1, 404211, Control_c, 0, 64, 89
1, 404226, Control_c, 0, 64, 88
1, 404241, Control_c, 0, 64, 87
1, 404256, Control_c, 0, 64, 87
1, 404271, Control_c, 0, 64, 86
1, 404293, Control_c, 0, 64, 86
1, 404308, Control_c, 0, 64, 85
1, 404323, Control_c, 0, 64, 85
1, 404337, Control_c, 0, 64, 84
1, 404352, Control_c, 0, 64, 84
1, 404367, Control_c, 0, 64, 83
1, 404396, Control_c, 0, 64, 83
1, 404411, Control_c, 0, 64, 82
1, 404441, Control_c, 0, 64, 82
1, 404456, Control_c, 0, 64, 81
1, 404485, Control_c, 0, 64, 81
1, 404530, Control_c, 0, 64, 80
1, 404560, Control_c, 0, 64, 80
1, 404590, Control_c, 0, 64, 79
1, 404620, Control_c, 0, 64, 79
1, 404649, Control_c, 0, 64, 78
1, 404664, Control_c, 0, 64, 78
1, 404679, Control_c, 0, 64, 77
1, 404694, Control_c, 0, 64, 76
1, 404704, Note_on_c, 0, 62, 21
1, 404709, Control_c, 0, 64, 75
1, 404722, Note_on_c, 0, 57, 21
1, 404724, Control_c, 0, 64, 75
1, 404725, Note_on_c, 0, 66, 33
1, 404735, Note_on_c, 0, 50, 21
1, 404739, Control_c, 0, 64, 73
1, 404744, Note_on_c, 0, 38, 19
1, 404753, Control_c, 0, 64, 72
1, 404768, Control_c, 0, 64, 69
1, 404783, Control_c, 0, 64, 67
1, 404798, Control_c, 0, 64, 65
1, 404812, Control_c, 0, 64, 63
1, 404827, Control_c, 0, 64, 61
1, 404842, Control_c, 0, 64, 59
1, 404857, Control_c, 0, 64, 55
1, 404872, Control_c, 0, 64, 50
1, 404886, Control_c, 0, 64, 46
1, 404901, Control_c, 0, 64, 43
1, 404916, Control_c, 0, 64, 42
1, 404923, Note_off_c, 0, 64, 36
1, 404931, Control_c, 0, 64, 42
1, 404946, Control_c, 0, 64, 41
1, 404960, Control_c, 0, 64, 40
1, 404990, Control_c, 0, 64, 40
1, 405019, Control_c, 0, 64, 39
1, 405042, Control_c, 0, 64, 38
1, 405072, Control_c, 0, 64, 37
1, 405131, Control_c, 0, 64, 38
1, 405145, Control_c, 0, 64, 38
1, 405160, Control_c, 0, 64, 40
1, 405175, Control_c, 0, 64, 42
1, 405190, Control_c, 0, 64, 44
1, 405205, Control_c, 0, 64, 45
1, 405219, Control_c, 0, 64, 47
1, 405234, Control_c, 0, 64, 49
1, 405249, Control_c, 0, 64, 51
1, 405264, Control_c, 0, 64, 52
1, 405279, Control_c, 0, 64, 53
1, 405293, Control_c, 0, 64, 54
1, 405308, Control_c, 0, 64, 56
1, 405323, Control_c, 0, 64, 57
1, 405338, Control_c, 0, 64, 59
1, 405353, Control_c, 0, 64, 60
1, 405369, Control_c, 0, 64, 61
1, 405383, Control_c, 0, 64, 61
1, 405398, Control_c, 0, 64, 62
1, 405413, Control_c, 0, 64, 62
1, 405428, Control_c, 0, 64, 63
1, 405457, Control_c, 0, 64, 64
1, 405472, Control_c, 0, 64, 64
1, 405487, Control_c, 0, 64, 65
1, 405502, Control_c, 0, 64, 65
1, 405517, Control_c, 0, 64, 66
1, 405532, Control_c, 0, 64, 67
1, 405547, Control_c, 0, 64, 68
1, 405562, Control_c, 0, 64, 69
1, 405576, Control_c, 0, 64, 70
1, 405591, Control_c, 0, 64, 70
1, 405621, Control_c, 0, 64, 71
1, 405635, Control_c, 0, 64, 72
1, 405650, Control_c, 0, 64, 73
1, 405665, Control_c, 0, 64, 74
1, 405680, Control_c, 0, 64, 75
1, 405695, Control_c, 0, 64, 76
1, 405709, Control_c, 0, 64, 77
1, 405724, Control_c, 0, 64, 79
1, 405739, Control_c, 0, 64, 80
1, 405753, Control_c, 0, 64, 82
1, 405768, Control_c, 0, 64, 83
1, 405791, Control_c, 0, 64, 84
1, 405806, Control_c, 0, 64, 85
1, 405821, Control_c, 0, 64, 86
1, 405835, Control_c, 0, 64, 87
1, 405850, Control_c, 0, 64, 87
1, 405865, Control_c, 0, 64, 88
1, 405880, Control_c, 0, 64, 88
1, 405909, Control_c, 0, 64, 89
1, 405924, Control_c, 0, 64, 89
1, 405954, Control_c, 0, 64, 90
1, 405983, Control_c, 0, 64, 90
1, 406087, Control_c, 0, 67, 127
1, 406116, Control_c, 0, 67, 126
1, 406131, Control_c, 0, 67, 126
1, 406146, Control_c, 0, 67, 125
1, 406162, Control_c, 0, 67, 123
1, 406177, Control_c, 0, 67, 121
1, 406191, Control_c, 0, 64, 90
1, 406191, Control_c, 0, 67, 119
1, 406206, Control_c, 0, 64, 89
1, 406206, Control_c, 0, 67, 118
1, 406221, Control_c, 0, 67, 115
1, 406236, Control_c, 0, 67, 111
1, 406251, Control_c, 0, 64, 89
1, 406251, Control_c, 0, 67, 106
1, 406265, Control_c, 0, 67, 102
1, 406280, Control_c, 0, 64, 88
1, 406280, Control_c, 0, 67, 99
1, 406295, Control_c, 0, 67, 96
1, 406310, Control_c, 0, 64, 88
1, 406310, Control_c, 0, 67, 94
1, 406325, Control_c, 0, 67, 93
1, 406340, Control_c, 0, 67, 92
1, 406354, Control_c, 0, 64, 87
1, 406354, Control_c, 0, 67, 92
1, 406369, Control_c, 0, 67, 91
1, 406384, Control_c, 0, 67, 91
1, 406399, Control_c, 0, 64, 87
1, 406399, Control_c, 0, 67, 90
1, 406414, Control_c, 0, 67, 88
1, 406429, Control_c, 0, 67, 85
1, 406444, Control_c, 0, 67, 82
1, 406459, Control_c, 0, 67, 79
1, 406474, Control_c, 0, 64, 86
1, 406474, Control_c, 0, 67, 78
1, 406489, Control_c, 0, 67, 77
1, 406504, Control_c, 0, 67, 77
1, 406570, Control_c, 0, 64, 86
1, 406614, Control_c, 0, 64, 85
1, 406644, Control_c, 0, 64, 85
1, 406673, Control_c, 0, 67, 77
1, 406688, Control_c, 0, 64, 84
1, 406733, Control_c, 0, 64, 84
1, 406763, Control_c, 0, 64, 83
1, 406777, Control_c, 0, 67, 78
1, 406783, Note_off_c, 0, 57, 4
1, 406792, Control_c, 0, 64, 83
1, 406807, Control_c, 0, 64, 82
1, 406822, Control_c, 0, 64, 82
1, 406866, Control_c, 0, 64, 81
1, 406881, Control_c, 0, 67, 78
1, 406910, Control_c, 0, 64, 81
1, 406956, Control_c, 0, 64, 80
1, 407001, Control_c, 0, 64, 80
1, 407030, Control_c, 0, 64, 79
1, 407030, Control_c, 0, 67, 79
1, 407037, Note_off_c, 0, 50, 1
1, 407060, Control_c, 0, 64, 79
1, 407075, Control_c, 0, 64, 78
1, 407104, Control_c, 0, 64, 78
1, 407134, Control_c, 0, 64, 77
1, 407149, Control_c, 0, 64, 77
1, 407182, Note_off_c, 0, 38, 7
1, 407193, Control_c, 0, 64, 76
1, 407207, Control_c, 0, 64, 76
1, 407237, Control_c, 0, 64, 75
1, 407237, Control_c, 0, 67, 79
1, 407289, Control_c, 0, 64, 75
1, 407308, Note_off_c, 0, 62, 1
1, 407319, Control_c, 0, 64, 74
1, 407319, Control_c, 0, 67, 80
1, 407321, Note_off_c, 0, 66, 3
1, 407363, Control_c, 0, 64, 74
1, 407393, Control_c, 0, 64, 73
1, 407407, Control_c, 0, 64, 73
1, 407422, Control_c, 0, 64, 72
1, 407422, Control_c, 0, 67, 80
1, 407437, Control_c, 0, 64, 72
1, 407452, Control_c, 0, 64, 71
1, 407467, Control_c, 0, 64, 71
1, 407467, Control_c, 0, 67, 81
1, 407481, Control_c, 0, 64, 70
1, 407511, Control_c, 0, 67, 81
1, 407526, Control_c, 0, 64, 70
1, 407556, Control_c, 0, 67, 82
1, 407586, Control_c, 0, 64, 69
1, 407601, Control_c, 0, 67, 82
1, 407615, Control_c, 0, 64, 69
1, 407630, Control_c, 0, 64, 68
1, 407630, Control_c, 0, 67, 83
1, 407660, Control_c, 0, 64, 68
1, 407660, Control_c, 0, 67, 83
1, 407674, Control_c, 0, 64, 67
1, 407689, Control_c, 0, 64, 67
1, 407689, Control_c, 0, 67, 84
1, 407704, Control_c, 0, 64, 66
1, 407719, Control_c, 0, 64, 66
1, 407733, Control_c, 0, 64, 65
1, 407733, Control_c, 0, 67, 84
1, 407779, Control_c, 0, 67, 85
1, 407794, Control_c, 0, 64, 65
1, 407809, Control_c, 0, 64, 64
1, 407809, Control_c, 0, 67, 85
1, 407853, Control_c, 0, 64, 63
1, 407853, Control_c, 0, 67, 86
1, 407883, Control_c, 0, 67, 86
1, 407911, Control_c, 0, 67, 87
1, 407926, Control_c, 0, 67, 87
1, 407941, Control_c, 0, 67, 88
1, 407955, Control_c, 0, 64, 63
1, 407985, Control_c, 0, 67, 88
1, 408000, Control_c, 0, 67, 89
1, 408015, Control_c, 0, 67, 89
1, 408037, Control_c, 0, 67, 90
1, 408052, Control_c, 0, 64, 63
1, 408052, Control_c, 0, 67, 90
1, 408067, Control_c, 0, 64, 64
1, 408082, Control_c, 0, 64, 64
1, 408082, Control_c, 0, 67, 91
1, 408097, Control_c, 0, 67, 91
1, 408111, Control_c, 0, 64, 65
1, 408111, Control_c, 0, 67, 92
1, 408126, Control_c, 0, 64, 65
1, 408126, Control_c, 0, 67, 92
1, 408141, Control_c, 0, 64, 66
1, 408141, Control_c, 0, 67, 93
1, 408155, Control_c, 0, 64, 67
1, 408170, Control_c, 0, 64, 67
1, 408185, Control_c, 0, 64, 68
1, 408185, Control_c, 0, 67, 93
1, 408200, Control_c, 0, 64, 69
1, 408215, Control_c, 0, 64, 70
1, 408215, Control_c, 0, 67, 94
1, 408229, Control_c, 0, 64, 70
1, 408229, Control_c, 0, 67, 94
1, 408244, Control_c, 0, 64, 71
1, 408244, Control_c, 0, 67, 95
1, 408259, Control_c, 0, 64, 72
1, 408259, Control_c, 0, 67, 96
1, 408274, Control_c, 0, 64, 74
1, 408274, Control_c, 0, 67, 96
1, 408289, Control_c, 0, 64, 75
1, 408289, Control_c, 0, 67, 97
1, 408304, Control_c, 0, 64, 77
1, 408304, Control_c, 0, 67, 99
1, 408319, Control_c, 0, 64, 79
1, 408319, Control_c, 0, 67, 102
1, 408334, Control_c, 0, 64, 80
1, 408334, Control_c, 0, 67, 105
1, 408349, Control_c, 0, 64, 82
1, 408349, Control_c, 0, 67, 106
1, 408363, Control_c, 0, 64, 83
1, 408363, Control_c, 0, 67, 109
1, 408378, Control_c, 0, 64, 85
1, 408378, Control_c, 0, 67, 111
1, 408393, Control_c, 0, 64, 87
1, 408393, Control_c, 0, 67, 114
1, 408408, Control_c, 0, 64, 89
1, 408408, Control_c, 0, 67, 117
1, 408423, Control_c, 0, 64, 92
1, 408423, Control_c, 0, 67, 119
1, 408437, Control_c, 0, 64, 94
1, 408437, Control_c, 0, 67, 121
1, 408452, Control_c, 0, 64, 98
1, 408452, Control_c, 0, 67, 123
1, 408467, Control_c, 0, 64, 102
1, 408467, Control_c, 0, 67, 125
1, 408482, Control_c, 0, 64, 105
1, 408482, Control_c, 0, 67, 127
1, 408497, Control_c, 0, 64, 109
1, 408511, Control_c, 0, 64, 115
1, 408526, Control_c, 0, 64, 127
1, 408706, Note_on_c, 0, 67, 48
1, 408722, Note_on_c, 0, 59, 21
1, 408724, Note_on_c, 0, 40, 33
1, 408725, Note_on_c, 0, 64, 35
1, 408727, Note_on_c, 0, 52, 22
1, 409070, Note_off_c, 0, 52, 34
1, 409468, Note_on_c, 0, 69, 54
1, 409499, Note_off_c, 0, 40, 0
1, 409544, Poly_aftertouch_c, 0, 40, 127
1, 409551, Note_off_c, 0, 59, 38
1, 409578, Note_off_c, 0, 67, 33
1, 409604, Note_off_c, 0, 64, 32
1, 409716, Note_on_c, 0, 33, 37
1, 409773, Control_c, 0, 64, 123
1, 409788, Control_c, 0, 64, 120
1, 409803, Control_c, 0, 64, 116
1, 409803, Note_on_c, 0, 45, 27
1, 409812, Note_on_c, 0, 60, 36
1, 409817, Control_c, 0, 64, 113
1, 409832, Control_c, 0, 64, 110
1, 409847, Control_c, 0, 64, 109
1, 409862, Control_c, 0, 64, 107
1, 409872, Note_on_c, 0, 66, 44
1, 409872, Poly_aftertouch_c, 0, 40, 0
1, 409876, Control_c, 0, 64, 106
1, 409891, Control_c, 0, 64, 103
1, 409906, Control_c, 0, 64, 101
1, 409921, Control_c, 0, 64, 98
1, 409935, Control_c, 0, 64, 96
1, 409950, Note_on_c, 0, 67, 54
1, 409950, Control_c, 0, 64, 94
1, 409965, Control_c, 0, 64, 91
1, 409980, Control_c, 0, 64, 87
1, 409985, Note_off_c, 0, 69, 46
1, 409995, Control_c, 0, 64, 81
1, 410009, Control_c, 0, 64, 75
1, 410024, Control_c, 0, 64, 68
1, 410039, Control_c, 0, 64, 61
1, 410054, Control_c, 0, 64, 28
1, 410069, Control_c, 0, 64, 0
1, 410173, Control_c, 0, 64, 38
1, 410188, Control_c, 0, 64, 64
1, 410203, Control_c, 0, 64, 70
1, 410218, Control_c, 0, 64, 76
1, 410233, Control_c, 0, 64, 83
1, 410248, Control_c, 0, 64, 92
1, 410262, Control_c, 0, 64, 104
1, 410285, Control_c, 0, 64, 127
1, 410393, Note_off_c, 0, 33, 39
1, 411063, Note_on_c, 0, 52, 36
1, 412008, Note_on_c, 0, 71, 44
1, 412163, Note_off_c, 0, 67, 29
1, 412173, Note_off_c, 0, 60, 42
1, 412227, Note_off_c, 0, 66, 41
1, 412300, Control_c, 0, 64, 123
1, 412314, Control_c, 0, 64, 122
1, 412329, Control_c, 0, 64, 121
1, 412344, Control_c, 0, 64, 119
1, 412359, Control_c, 0, 64, 118
1, 412374, Control_c, 0, 64, 116
1, 412388, Note_on_c, 0, 67, 54
1, 412389, Control_c, 0, 64, 113
1, 412403, Control_c, 0, 64, 110
1, 412411, Note_on_c, 0, 64, 42
1, 412418, Control_c, 0, 64, 107
1, 412422, Note_on_c, 0, 60, 32
1, 412433, Control_c, 0, 64, 104
1, 412448, Control_c, 0, 64, 101
1, 412457, Note_off_c, 0, 71, 48
1, 412463, Control_c, 0, 64, 98
1, 412477, Control_c, 0, 64, 97
1, 412492, Control_c, 0, 64, 97
1, 412507, Control_c, 0, 64, 96
1, 412767, Control_c, 0, 64, 97
1, 413009, Note_on_c, 0, 69, 67
1, 413079, Note_off_c, 0, 67, 46
1, 413088, Note_off_c, 0, 64, 32
1, 413149, Note_off_c, 0, 60, 63
1, 413167, Control_c, 0, 64, 96
1, 413241, Control_c, 0, 64, 96
1, 413278, Control_c, 0, 64, 95
1, 413293, Control_c, 0, 64, 95
1, 413308, Control_c, 0, 64, 94
1, 413312, Note_on_c, 0, 50, 39
1, 413323, Control_c, 0, 64, 93
1, 413338, Control_c, 0, 64, 92
1, 413354, Control_c, 0, 64, 89
1, 413369, Note_on_c, 0, 66, 66
1, 413369, Control_c, 0, 64, 85
1, 413370, Note_on_c, 0, 64, 40
1, 413383, Control_c, 0, 64, 79
1, 413398, Control_c, 0, 64, 72
1, 413400, Note_on_c, 0, 59, 32
1, 413404, Note_off_c, 0, 52, 42
1, 413407, Note_off_c, 0, 69, 55
1, 413413, Control_c, 0, 64, 64
1, 413428, Control_c, 0, 64, 56
1, 413443, Control_c, 0, 64, 48
1, 413472, Control_c, 0, 64, 52
1, 413487, Control_c, 0, 64, 57
1, 413502, Control_c, 0, 64, 61
1, 413517, Control_c, 0, 64, 65
1, 413531, Control_c, 0, 64, 69
1, 413546, Control_c, 0, 64, 75
1, 413561, Control_c, 0, 64, 83
1, 413575, Control_c, 0, 64, 92
1, 413590, Control_c, 0, 64, 101
1, 413605, Control_c, 0, 64, 114
1, 413620, Control_c, 0, 64, 127
1, 413649, Note_off_c, 0, 64, 52
1, 413789, Note_off_c, 0, 59, 61
1, 413976, Note_on_c, 0, 54, 42
1, 413977, Note_off_c, 0, 66, 55
1, 414024, Note_off_c, 0, 54, 59
1, 414041, Note_on_c, 0, 60, 47
1, 414075, Note_on_c, 0, 62, 50
1, 414098, Note_off_c, 0, 50, 47
1, 414160, Note_off_c, 0, 45, 44
1, 414192, Note_off_c, 0, 60, 50
1, 414215, Note_on_c, 0, 69, 65
1, 414241, Note_off_c, 0, 62, 59
1, 414457, Control_c, 0, 64, 115
1, 414471, Control_c, 0, 64, 111
1, 414486, Control_c, 0, 64, 108
1, 414495, Note_on_c, 0, 31, 38
1, 414501, Control_c, 0, 64, 104
1, 414516, Control_c, 0, 64, 101
1, 414531, Control_c, 0, 64, 98
1, 414546, Control_c, 0, 64, 95
1, 414561, Control_c, 0, 64, 91
1, 414576, Control_c, 0, 64, 90
1, 414582, Note_on_c, 0, 43, 28
1, 414586, Note_on_c, 0, 59, 34
1, 414590, Control_c, 0, 64, 89
1, 414605, Control_c, 0, 64, 88
1, 414620, Control_c, 0, 64, 87
1, 414635, Control_c, 0, 64, 86
1, 414650, Control_c, 0, 64, 85
1, 414659, Note_on_c, 0, 64, 42
1, 414664, Control_c, 0, 64, 84
1, 414679, Control_c, 0, 64, 83
1, 414709, Control_c, 0, 64, 83
1, 414723, Control_c, 0, 64, 82
1, 414738, Control_c, 0, 64, 81
1, 414753, Control_c, 0, 64, 79
1, 414776, Control_c, 0, 64, 78
1, 414790, Control_c, 0, 64, 76
1, 414793, Note_on_c, 0, 66, 53
1, 414805, Control_c, 0, 64, 74
1, 414820, Control_c, 0, 64, 73
1, 414835, Control_c, 0, 64, 71
1, 414850, Control_c, 0, 64, 69
1, 414865, Control_c, 0, 64, 67
1, 414879, Control_c, 0, 64, 64
1, 414894, Control_c, 0, 64, 62
1, 414897, Note_off_c, 0, 69, 46
1, 414909, Control_c, 0, 64, 53
1, 414923, Control_c, 0, 64, 23
1, 414938, Control_c, 0, 64, 0
1, 415073, Control_c, 0, 64, 54
1, 415087, Control_c, 0, 64, 65
1, 415102, Control_c, 0, 64, 69
1, 415117, Control_c, 0, 64, 72
1, 415132, Control_c, 0, 64, 75
1, 415146, Control_c, 0, 64, 78
1, 415161, Control_c, 0, 64, 81
1, 415176, Control_c, 0, 64, 83
1, 415191, Control_c, 0, 64, 85
1, 415206, Control_c, 0, 64, 86
1, 415220, Control_c, 0, 64, 87
1, 415221, Note_off_c, 0, 31, 41
1, 415265, Control_c, 0, 64, 88
1, 415280, Control_c, 0, 64, 89
1, 415294, Control_c, 0, 64, 90
1, 415309, Control_c, 0, 64, 91
1, 415324, Control_c, 0, 64, 92
1, 415339, Control_c, 0, 64, 93
1, 415354, Control_c, 0, 64, 95
1, 415369, Control_c, 0, 64, 97
1, 415384, Control_c, 0, 64, 98
1, 415399, Control_c, 0, 64, 99
1, 415413, Control_c, 0, 64, 101
1, 415428, Control_c, 0, 64, 103
1, 415443, Control_c, 0, 64, 106
1, 415458, Control_c, 0, 64, 109
1, 415473, Control_c, 0, 64, 114
1, 415488, Control_c, 0, 64, 124
1, 415503, Control_c, 0, 64, 127
1, 415958, Note_on_c, 0, 50, 36
1, 416882, Control_c, 0, 64, 124
1, 416897, Control_c, 0, 64, 123
1, 416911, Control_c, 0, 64, 122
1, 416926, Control_c, 0, 64, 121
1, 416940, Note_on_c, 0, 69, 46
1, 416956, Control_c, 0, 64, 120
1, 416985, Control_c, 0, 64, 119
1, 417038, Control_c, 0, 64, 119
1, 417080, Note_off_c, 0, 64, 35
1, 417087, Note_off_c, 0, 66, 23
1, 417104, Note_off_c, 0, 59, 41
1, 417329, Note_on_c, 0, 66, 61
1, 417331, Note_off_c, 0, 69, 50
1, 417363, Note_on_c, 0, 60, 40
1, 417363, Note_on_c, 0, 64, 39
1, 417861, Control_c, 0, 64, 118
1, 417890, Control_c, 0, 64, 118
1, 417905, Control_c, 0, 64, 117
1, 417920, Control_c, 0, 64, 117
1, 417935, Control_c, 0, 64, 115
1, 417949, Control_c, 0, 64, 114
1, 417953, Note_on_c, 0, 67, 67
1, 417964, Control_c, 0, 64, 112
1, 417979, Control_c, 0, 64, 111
1, 417994, Control_c, 0, 64, 110
1, 418008, Control_c, 0, 64, 109
1, 418023, Control_c, 0, 64, 109
1, 418028, Note_off_c, 0, 64, 51
1, 418035, Note_off_c, 0, 66, 61
1, 418038, Control_c, 0, 64, 108
1, 418053, Control_c, 0, 64, 107
1, 418067, Control_c, 0, 64, 107
1, 418082, Control_c, 0, 64, 106
1, 418097, Control_c, 0, 64, 105
1, 418112, Control_c, 0, 64, 104
1, 418127, Control_c, 0, 64, 104
1, 418143, Control_c, 0, 64, 103
1, 418158, Control_c, 0, 64, 102
1, 418172, Control_c, 0, 64, 100
1, 418174, Note_off_c, 0, 60, 60
1, 418187, Control_c, 0, 64, 99
1, 418201, Note_on_c, 0, 48, 46
1, 418202, Control_c, 0, 64, 97
1, 418217, Control_c, 0, 64, 95
1, 418226, Note_off_c, 0, 50, 44
1, 418232, Control_c, 0, 64, 92
1, 418246, Control_c, 0, 64, 90
1, 418261, Control_c, 0, 64, 88
1, 418276, Control_c, 0, 64, 85
1, 418290, Control_c, 0, 64, 83
1, 418305, Control_c, 0, 64, 79
1, 418320, Control_c, 0, 64, 72
1, 418323, Note_on_c, 0, 64, 64
1, 418335, Control_c, 0, 64, 65
1, 418338, Note_on_c, 0, 62, 39
1, 418349, Note_on_c, 0, 59, 38
1, 418350, Control_c, 0, 64, 28
1, 418365, Control_c, 0, 64, 0
1, 418424, Control_c, 0, 64, 47
1, 418439, Control_c, 0, 64, 60
1, 418454, Control_c, 0, 64, 66
1, 418456, Note_off_c, 0, 67, 34
1, 418469, Control_c, 0, 64, 72
1, 418483, Control_c, 0, 64, 78
1, 418498, Control_c, 0, 64, 87
1, 418520, Control_c, 0, 64, 96
1, 418535, Control_c, 0, 64, 106
1, 418550, Control_c, 0, 64, 127
1, 418675, Note_off_c, 0, 59, 56
1, 418694, Note_off_c, 0, 62, 58
1, 418841, Note_on_c, 0, 55, 51
1, 418890, Note_off_c, 0, 55, 59
1, 418902, Note_on_c, 0, 59, 41
1, 418903, Note_off_c, 0, 64, 53
1, 418973, Note_on_c, 0, 60, 53
1, 419023, Note_off_c, 0, 59, 38
1, 419049, Note_on_c, 0, 64, 52
1, 419053, Note_off_c, 0, 60, 60
1, 419063, Note_off_c, 0, 48, 39
1, 419085, Note_off_c, 0, 43, 40
1, 419120, Note_off_c, 0, 64, 58
1, 419179, Note_on_c, 0, 71, 59
1, 419521, Note_on_c, 0, 30, 37
1, 419581, Control_c, 0, 64, 119
1, 419595, Control_c, 0, 64, 113
1, 419610, Control_c, 0, 64, 109
1, 419623, Note_on_c, 0, 59, 40
1, 419625, Control_c, 0, 64, 106
1, 419629, Note_on_c, 0, 42, 32
1, 419639, Control_c, 0, 64, 102
1, 419654, Control_c, 0, 64, 98
1, 419669, Control_c, 0, 64, 95
1, 419684, Control_c, 0, 64, 93
1, 419699, Control_c, 0, 64, 91
1, 419706, Note_on_c, 0, 62, 41
1, 419713, Control_c, 0, 64, 88
1, 419729, Control_c, 0, 64, 85
1, 419744, Control_c, 0, 64, 83
1, 419759, Control_c, 0, 64, 80
1, 419774, Control_c, 0, 64, 77
1, 419789, Control_c, 0, 64, 73
1, 419803, Control_c, 0, 64, 67
1, 419805, Note_on_c, 0, 64, 46
1, 419818, Control_c, 0, 64, 62
1, 419833, Control_c, 0, 64, 42
1, 419848, Control_c, 0, 64, 0
1, 419894, Note_off_c, 0, 71, 48
1, 419981, Control_c, 0, 64, 14
1, 419996, Control_c, 0, 64, 57
1, 420018, Control_c, 0, 64, 65
1, 420033, Control_c, 0, 64, 68
1, 420048, Control_c, 0, 64, 72
1, 420063, Control_c, 0, 64, 78
1, 420078, Control_c, 0, 64, 87
1, 420092, Control_c, 0, 64, 95
1, 420107, Control_c, 0, 64, 106
1, 420122, Control_c, 0, 64, 127
1, 420199, Note_off_c, 0, 30, 43
1, 420948, Note_on_c, 0, 48, 39
1, 421167, Control_c, 0, 67, 126
1, 421181, Control_c, 0, 67, 125
1, 421196, Control_c, 0, 67, 123
1, 421211, Control_c, 0, 67, 120
1, 421226, Control_c, 0, 67, 118
1, 421241, Control_c, 0, 67, 115
1, 421256, Control_c, 0, 67, 113
1, 421271, Control_c, 0, 67, 109
1, 421285, Control_c, 0, 67, 104
1, 421300, Control_c, 0, 67, 100
1, 421315, Control_c, 0, 67, 96
1, 421331, Control_c, 0, 67, 92
1, 421345, Control_c, 0, 67, 88
1, 421360, Control_c, 0, 67, 84
1, 421375, Control_c, 0, 67, 79
1, 421390, Control_c, 0, 67, 74
1, 421405, Control_c, 0, 67, 70
1, 421420, Control_c, 0, 67, 66
1, 421435, Control_c, 0, 67, 62
1, 421450, Control_c, 0, 67, 57
1, 421464, Control_c, 0, 67, 53
1, 421479, Control_c, 0, 67, 48
1, 421494, Control_c, 0, 67, 45
1, 421515, Control_c, 0, 67, 41
1, 421530, Control_c, 0, 67, 36
1, 421545, Control_c, 0, 67, 31
1, 421560, Control_c, 0, 67, 26
1, 421575, Control_c, 0, 67, 22
1, 421590, Control_c, 0, 67, 17
1, 421605, Control_c, 0, 67, 13
1, 421620, Control_c, 0, 67, 8
1, 421635, Control_c, 0, 67, 0
1, 421748, Note_off_c, 0, 62, 28
1, 421757, Note_on_c, 0, 67, 53
1, 421787, Note_off_c, 0, 64, 58
1, 421871, Note_off_c, 0, 59, 41
1, 422088, Note_on_c, 0, 64, 58
1, 422100, Note_on_c, 0, 62, 42
1, 422121, Note_on_c, 0, 57, 36
1, 422189, Note_off_c, 0, 67, 33
1, 422659, Note_on_c, 0, 66, 71
1, 422846, Note_off_c, 0, 64, 45
1, 422851, Note_off_c, 0, 57, 53
1, 422858, Note_off_c, 0, 62, 57
1, 422896, Note_on_c, 0, 47, 44
1, 422959, Note_off_c, 0, 48, 39
1, 422961, Control_c, 0, 64, 126
1, 422976, Control_c, 0, 64, 115
1, 422991, Control_c, 0, 64, 110
1, 423011, Note_on_c, 0, 60, 46
1, 423013, Note_on_c, 0, 63, 68
1, 423014, Control_c, 0, 64, 104
1, 423029, Control_c, 0, 64, 98
1, 423043, Control_c, 0, 64, 91
1, 423047, Note_on_c, 0, 57, 38
1, 423058, Control_c, 0, 64, 84
1, 423073, Control_c, 0, 64, 77
1, 423087, Control_c, 0, 64, 70
1, 423102, Control_c, 0, 64, 64
1, 423117, Control_c, 0, 64, 56
1, 423124, Note_off_c, 0, 66, 61
1, 423132, Control_c, 0, 64, 54
1, 423147, Control_c, 0, 64, 57
1, 423161, Control_c, 0, 64, 61
1, 423176, Control_c, 0, 64, 64
1, 423191, Control_c, 0, 64, 66
1, 423206, Control_c, 0, 64, 70
1, 423221, Control_c, 0, 64, 74
1, 423235, Control_c, 0, 64, 79
1, 423250, Control_c, 0, 64, 84
1, 423265, Control_c, 0, 64, 90
1, 423280, Control_c, 0, 64, 97
1, 423295, Control_c, 0, 64, 104
1, 423310, Control_c, 0, 64, 114
1, 423325, Control_c, 0, 64, 127
1, 423482, Note_off_c, 0, 57, 60
1, 423509, Note_off_c, 0, 60, 60
1, 423530, Note_off_c, 0, 42, 43
1, 423626, Note_on_c, 0, 48, 53
1, 423638, Note_on_c, 0, 64, 73
1, 423649, Note_on_c, 0, 59, 57
1, 423672, Note_on_c, 0, 56, 54
1, 423875, Note_on_c, 0, 40, 51
1, 423881, Note_off_c, 0, 47, 42
1, 423881, Note_off_c, 0, 64, 59
1, 423903, Note_off_c, 0, 59, 54
1, 423906, Note_off_c, 0, 56, 38
1, 423918, Note_off_c, 0, 48, 62
1, 423933, Note_off_c, 0, 63, 52
1, 424044, Control_c, 0, 64, 118
1, 424054, Note_on_c, 0, 49, 64
1, 424058, Control_c, 0, 64, 110
1, 424073, Control_c, 0, 64, 103
1, 424085, Note_on_c, 0, 66, 71
1, 424088, Control_c, 0, 64, 95
1, 424095, Note_on_c, 0, 63, 63
1, 424099, Note_on_c, 0, 58, 57
1, 424100, Note_on_c, 0, 55, 57
1, 424103, Control_c, 0, 64, 84
1, 424118, Control_c, 0, 64, 71
1, 424133, Control_c, 0, 64, 50
1, 424147, Control_c, 0, 64, 0
1, 424192, Control_c, 0, 64, 52
1, 424207, Control_c, 0, 64, 68
1, 424214, Note_off_c, 0, 40, 58
1, 424222, Control_c, 0, 64, 83
1, 424236, Control_c, 0, 64, 110
1, 424251, Control_c, 0, 64, 127
1, 424258, Note_off_c, 0, 55, 57
1, 424327, Note_off_c, 0, 49, 60
1, 424359, Note_off_c, 0, 58, 60
1, 424407, Note_off_c, 0, 63, 58
1, 424410, Note_off_c, 0, 66, 56
1, 424585, Note_on_c, 0, 67, 78
1, 424706, Poly_aftertouch_c, 0, 75, 127
1, 424720, Note_on_c, 0, 55, 57
1, 424760, Poly_aftertouch_c, 0, 75, 0
1, 424870, Note_off_c, 0, 67, 33
1, 424900, Note_on_c, 0, 70, 83
1, 425026, Note_on_c, 0, 61, 61
1, 425104, Control_c, 0, 64, 119
1, 425119, Control_c, 0, 64, 117
1, 425132, Control_c, 0, 64, 114
1, 425147, Control_c, 0, 64, 112
1, 425150, Note_on_c, 0, 75, 76
1, 425162, Control_c, 0, 64, 110
1, 425177, Control_c, 0, 64, 108
1, 425192, Control_c, 0, 64, 106
1, 425206, Control_c, 0, 64, 104
1, 425221, Control_c, 0, 64, 103
1, 425236, Control_c, 0, 64, 102
1, 425258, Control_c, 0, 64, 101
1, 425273, Control_c, 0, 64, 100
1, 425288, Control_c, 0, 64, 99
1, 425292, Note_off_c, 0, 55, 26
1, 425303, Control_c, 0, 64, 98
1, 425318, Control_c, 0, 64, 97
1, 425334, Control_c, 0, 64, 96
1, 425348, Note_on_c, 0, 76, 82
1, 425349, Control_c, 0, 64, 96
1, 425363, Control_c, 0, 64, 95
1, 425378, Control_c, 0, 64, 95
1, 425393, Control_c, 0, 64, 94
1, 425408, Control_c, 0, 64, 94
1, 425418, Note_off_c, 0, 75, 62
1, 425423, Control_c, 0, 64, 93
1, 425437, Control_c, 0, 64, 93
1, 425452, Control_c, 0, 64, 92
1, 425467, Control_c, 0, 64, 92
1, 425496, Control_c, 0, 64, 91
1, 425511, Control_c, 0, 64, 90
1, 425513, Note_on_c, 0, 59, 44
1, 425526, Control_c, 0, 64, 89
1, 425538, Note_on_c, 0, 64, 43
1, 425541, Control_c, 0, 64, 88
1, 425555, Control_c, 0, 64, 87
1, 425570, Control_c, 0, 64, 86
1, 425585, Control_c, 0, 64, 84
1, 425600, Control_c, 0, 64, 83
1, 425615, Control_c, 0, 64, 81
1, 425629, Control_c, 0, 64, 79
1, 425629, Control_c, 0, 67, 8
1, 425644, Control_c, 0, 64, 77
1, 425644, Control_c, 0, 67, 9
1, 425659, Control_c, 0, 64, 75
1, 425659, Control_c, 0, 67, 11
1, 425674, Control_c, 0, 64, 73
1, 425674, Control_c, 0, 67, 13
1, 425689, Control_c, 0, 64, 70
1, 425689, Control_c, 0, 67, 16
1, 425704, Control_c, 0, 64, 69
1, 425704, Control_c, 0, 67, 18
1, 425718, Control_c, 0, 64, 68
1, 425718, Control_c, 0, 67, 21
1, 425733, Control_c, 0, 64, 67
1, 425733, Control_c, 0, 67, 23
1, 425748, Control_c, 0, 67, 25
1, 425763, Control_c, 0, 67, 28
1, 425778, Control_c, 0, 64, 67
1, 425778, Control_c, 0, 67, 31
1, 425786, Note_on_c, 0, 78, 66
1, 425793, Control_c, 0, 67, 34
1, 425808, Control_c, 0, 67, 36
1, 425822, Control_c, 0, 64, 66
1, 425822, Control_c, 0, 67, 39
1, 425837, Control_c, 0, 67, 41
1, 425852, Control_c, 0, 67, 44
1, 425857, Note_off_c, 0, 76, 52
1, 425867, Control_c, 0, 64, 66
1, 425867, Control_c, 0, 67, 46
1, 425881, Control_c, 0, 67, 48
1, 425896, Control_c, 0, 67, 50
1, 425911, Control_c, 0, 64, 65
1, 425911, Control_c, 0, 67, 53
1, 425926, Control_c, 0, 67, 54
1, 425941, Control_c, 0, 64, 65
1, 425941, Control_c, 0, 67, 56
1, 425955, Control_c, 0, 67, 57
1, 425970, Control_c, 0, 64, 64
1, 425970, Control_c, 0, 67, 59
1, 425985, Control_c, 0, 67, 60
1, 426007, Control_c, 0, 64, 64
1, 426007, Control_c, 0, 67, 61
1, 426022, Control_c, 0, 64, 63
1, 426022, Control_c, 0, 67, 61
1, 426037, Control_c, 0, 67, 62
1, 426052, Control_c, 0, 64, 63
1, 426052, Control_c, 0, 67, 63
1, 426067, Control_c, 0, 64, 62
1, 426067, Control_c, 0, 67, 64
1, 426081, Control_c, 0, 64, 62
1, 426081, Control_c, 0, 67, 64
1, 426096, Control_c, 0, 67, 65
1, 426111, Control_c, 0, 64, 61
1, 426111, Control_c, 0, 67, 66
1, 426127, Control_c, 0, 64, 61
1, 426127, Control_c, 0, 67, 66
1, 426142, Control_c, 0, 67, 67
1, 426157, Control_c, 0, 64, 60
1, 426157, Control_c, 0, 67, 68
1, 426172, Control_c, 0, 64, 60
1, 426172, Control_c, 0, 67, 69
1, 426186, Control_c, 0, 64, 59
1, 426186, Control_c, 0, 67, 70
1, 426201, Control_c, 0, 64, 58
1, 426201, Control_c, 0, 67, 70
1, 426216, Control_c, 0, 64, 57
1, 426216, Control_c, 0, 67, 72
1, 426231, Control_c, 0, 64, 56
1, 426231, Control_c, 0, 67, 72
1, 426245, Control_c, 0, 64, 55
1, 426245, Control_c, 0, 67, 73
1, 426260, Control_c, 0, 64, 54
1, 426260, Control_c, 0, 67, 74
1, 426275, Control_c, 0, 64, 53
1, 426275, Control_c, 0, 67, 76
1, 426290, Control_c, 0, 64, 52
1, 426290, Control_c, 0, 67, 78
1, 426304, Control_c, 0, 64, 50
1, 426304, Control_c, 0, 67, 80
1, 426319, Control_c, 0, 64, 49
1, 426319, Control_c, 0, 67, 81
1, 426334, Control_c, 0, 64, 47
1, 426334, Control_c, 0, 67, 83
1, 426349, Control_c, 0, 64, 45
1, 426349, Control_c, 0, 67, 84
1, 426364, Control_c, 0, 64, 44
1, 426364, Control_c, 0, 67, 86
1, 426378, Control_c, 0, 64, 43
1, 426378, Control_c, 0, 67, 88
1, 426393, Control_c, 0, 64, 42
1, 426393, Control_c, 0, 67, 90
1, 426408, Control_c, 0, 64, 40
1, 426408, Control_c, 0, 67, 92
1, 426422, Control_c, 0, 64, 38
1, 426422, Control_c, 0, 67, 93
1, 426437, Control_c, 0, 64, 36
1, 426437, Control_c, 0, 67, 95
1, 426452, Control_c, 0, 64, 34
1, 426452, Control_c, 0, 67, 96
1, 426467, Control_c, 0, 64, 31
1, 426467, Control_c, 0, 67, 97
1, 426482, Control_c, 0, 64, 29
1, 426482, Control_c, 0, 67, 99
1, 426496, Control_c, 0, 64, 26
1, 426496, Control_c, 0, 67, 100
1, 426511, Control_c, 0, 64, 23
1, 426511, Control_c, 0, 67, 101
1, 426526, Control_c, 0, 64, 17
1, 426526, Control_c, 0, 67, 101
1, 426541, Control_c, 0, 64, 0
1, 426541, Control_c, 0, 67, 102
1, 426556, Control_c, 0, 67, 103
1, 426571, Control_c, 0, 67, 104
1, 426586, Control_c, 0, 67, 104
1, 426601, Control_c, 0, 67, 105
1, 426630, Control_c, 0, 67, 105
1, 426675, Control_c, 0, 67, 106
1, 426700, Note_on_c, 0, 63, 30
1, 426703, Note_off_c, 0, 70, 38
1, 426710, Note_on_c, 0, 71, 26
1, 426742, Note_off_c, 0, 64, 37
1, 426859, Note_off_c, 0, 61, 41
1, 427187, Control_c, 0, 64, 19
1, 427201, Control_c, 0, 64, 36
1, 427216, Control_c, 0, 64, 43
1, 427231, Control_c, 0, 64, 47
1, 427245, Control_c, 0, 64, 53
1, 427260, Control_c, 0, 64, 59
1, 427275, Control_c, 0, 64, 63
1, 427275, Control_c, 0, 67, 105
1, 427290, Control_c, 0, 64, 65
1, 427305, Control_c, 0, 64, 68
1, 427319, Control_c, 0, 64, 70
1, 427334, Control_c, 0, 64, 73
1, 427334, Control_c, 0, 67, 105
1, 427349, Control_c, 0, 64, 75
1, 427364, Control_c, 0, 64, 78
1, 427379, Control_c, 0, 64, 80
1, 427379, Control_c, 0, 67, 104
1, 427394, Control_c, 0, 64, 84
1, 427409, Control_c, 0, 64, 86
1, 427424, Control_c, 0, 64, 88
1, 427424, Control_c, 0, 67, 104
1, 427438, Control_c, 0, 64, 89
1, 427453, Control_c, 0, 64, 89
1, 427468, Control_c, 0, 67, 103
1, 427505, Control_c, 0, 67, 103
1, 427544, Note_off_c, 0, 59, 27
1, 427555, Note_off_c, 0, 78, 29
1, 427570, Note_off_c, 0, 63, 23
1, 427580, Note_off_c, 0, 71, 36
1, 427594, Control_c, 0, 64, 89
1, 427608, Control_c, 0, 67, 102
1, 427623, Control_c, 0, 64, 88
1, 427653, Control_c, 0, 64, 88
1, 427668, Control_c, 0, 64, 87
1, 427683, Control_c, 0, 64, 87
1, 427698, Control_c, 0, 64, 86
1, 427713, Control_c, 0, 64, 85
1, 427728, Control_c, 0, 64, 84
1, 427743, Control_c, 0, 64, 83
1, 427757, Control_c, 0, 64, 82
1, 427772, Control_c, 0, 64, 81
1, 427787, Control_c, 0, 64, 80
1, 427802, Control_c, 0, 64, 80
1, 427817, Control_c, 0, 64, 79
1, 427817, Control_c, 0, 67, 102
1, 427832, Control_c, 0, 64, 79
1, 427847, Control_c, 0, 64, 78
1, 427862, Control_c, 0, 64, 77
1, 427876, Control_c, 0, 64, 77
1, 427891, Control_c, 0, 64, 76
1, 427906, Control_c, 0, 64, 75
1, 427921, Control_c, 0, 64, 75
1, 427936, Control_c, 0, 64, 74
1, 427950, Control_c, 0, 64, 74
1, 427965, Control_c, 0, 64, 73
1, 427965, Control_c, 0, 67, 101
1, 427980, Control_c, 0, 64, 73
1, 427995, Control_c, 0, 64, 72
1, 428010, Control_c, 0, 64, 71
1, 428024, Control_c, 0, 64, 70
1, 428039, Control_c, 0, 64, 70
1, 428068, Control_c, 0, 64, 69
1, 428098, Control_c, 0, 67, 101
1, 428129, Control_c, 0, 64, 69
1, 428158, Control_c, 0, 64, 68
1, 428173, Control_c, 0, 67, 100
1, 428188, Control_c, 0, 64, 68
1, 428203, Control_c, 0, 64, 67
1, 428232, Control_c, 0, 64, 67
1, 428255, Control_c, 0, 64, 66
1, 428255, Control_c, 0, 67, 100
1, 428284, Control_c, 0, 64, 66
1, 428299, Control_c, 0, 67, 99
1, 428329, Control_c, 0, 64, 65
1, 428329, Control_c, 0, 67, 99
1, 428358, Control_c, 0, 64, 65
1, 428373, Control_c, 0, 64, 64
1, 428402, Control_c, 0, 64, 64
1, 428417, Control_c, 0, 64, 63
1, 428432, Control_c, 0, 64, 63
1, 428432, Control_c, 0, 67, 98
1, 428491, Control_c, 0, 67, 98
1, 428522, Control_c, 0, 64, 63
1, 428537, Control_c, 0, 64, 64
1, 428537, Control_c, 0, 67, 97
1, 428552, Control_c, 0, 67, 97
1, 428567, Control_c, 0, 64, 65
1, 428581, Control_c, 0, 64, 65
1, 428581, Control_c, 0, 67, 96
1, 428596, Control_c, 0, 64, 66
1, 428611, Control_c, 0, 64, 67
1, 428611, Control_c, 0, 67, 96
1, 428626, Control_c, 0, 64, 68
1, 428626, Control_c, 0, 67, 95
1, 428641, Control_c, 0, 64, 69
1, 428641, Control_c, 0, 67, 94
1, 428655, Control_c, 0, 64, 70
1, 428670, Control_c, 0, 64, 71
1, 428670, Control_c, 0, 67, 94
1, 428685, Control_c, 0, 64, 73
1, 428685, Control_c, 0, 67, 93
1, 428699, Control_c, 0, 64, 75
1, 428699, Control_c, 0, 67, 93
1, 428714, Control_c, 0, 64, 78
1, 428714, Control_c, 0, 67, 92
1, 428729, Control_c, 0, 64, 80
1, 428729, Control_c, 0, 67, 91
1, 428744, Control_c, 0, 64, 83
1, 428744, Control_c, 0, 67, 90
1, 428759, Control_c, 0, 64, 86
1, 428759, Control_c, 0, 67, 89
1, 428774, Control_c, 0, 64, 89
1, 428774, Control_c, 0, 67, 86
1, 428786, Note_on_c, 0, 52, 46
1, 428789, Control_c, 0, 64, 92
1, 428789, Control_c, 0, 67, 84
1, 428804, Control_c, 0, 64, 95
1, 428804, Control_c, 0, 67, 81
1, 428818, Control_c, 0, 64, 99
1, 428818, Control_c, 0, 67, 78
1, 428833, Control_c, 0, 64, 103
1, 428833, Control_c, 0, 67, 75
1, 428842, Note_on_c, 0, 67, 57
1, 428848, Control_c, 0, 64, 109
1, 428848, Control_c, 0, 67, 70
1, 428863, Note_on_c, 0, 59, 39
1, 428863, Note_on_c, 0, 64, 47
1, 428863, Control_c, 0, 64, 119
1, 428863, Control_c, 0, 67, 63
1, 428877, Control_c, 0, 64, 127
1, 428877, Control_c, 0, 67, 59
1, 428891, Control_c, 0, 67, 56
1, 428906, Control_c, 0, 67, 53
1, 428921, Control_c, 0, 67, 49
1, 428936, Control_c, 0, 67, 43
1, 428951, Control_c, 0, 67, 35
1, 428965, Control_c, 0, 67, 27
1, 428980, Control_c, 0, 67, 23
1, 429003, Control_c, 0, 67, 18
1, 429018, Control_c, 0, 67, 10
1, 429032, Control_c, 0, 67, 0
1, 429172, Note_off_c, 0, 52, 37
1, 429228, Note_off_c, 0, 64, 37
1, 429252, Note_off_c, 0, 59, 41
1, 429383, Note_on_c, 0, 40, 42
1, 429427, Note_on_c, 0, 60, 65
1, 429427, Note_on_c, 0, 69, 67
1, 429449, Note_on_c, 0, 64, 44
1, 429504, Note_off_c, 0, 67, 48
1, 429686, Note_off_c, 0, 60, 63
1, 429799, Note_on_c, 0, 33, 38
1, 429802, Note_on_c, 0, 45, 41
1, 429832, Note_off_c, 0, 40, 39
1, 429837, Note_on_c, 0, 67, 56
1, 429839, Note_on_c, 0, 62, 60
1, 429855, Control_c, 0, 64, 115
1, 429869, Note_off_c, 0, 69, 53
1, 429870, Control_c, 0, 64, 88
1, 429885, Control_c, 0, 64, 71
1, 429900, Control_c, 0, 64, 0
1, 429989, Control_c, 0, 64, 36
1, 430003, Control_c, 0, 64, 66
1, 430018, Control_c, 0, 64, 79
1, 430033, Control_c, 0, 64, 98
1, 430047, Control_c, 0, 64, 127
1, 430071, Note_off_c, 0, 33, 39
1, 430145, Note_off_c, 0, 45, 47
1, 430184, Note_off_c, 0, 64, 40
1, 430221, Note_off_c, 0, 67, 59
1, 430266, Note_off_c, 0, 62, 45
1, 430506, Note_on_c, 0, 52, 36
1, 430544, Note_on_c, 0, 79, 53
1, 430883, Note_on_c, 0, 76, 43
1, 430892, Note_off_c, 0, 79, 37
1, 430896, Note_on_c, 0, 64, 33
1, 430941, Note_off_c, 0, 76, 50
1, 431037, Note_off_c, 0, 64, 42
1, 431624, Note_on_c, 0, 55, 42
1, 431674, Note_on_c, 0, 60, 57
1, 431679, Note_on_c, 0, 71, 60
1, 431722, Note_on_c, 0, 64, 27
1, 431833, Note_off_c, 0, 52, 43
1, 431896, Note_off_c, 0, 60, 63
1, 431928, Note_off_c, 0, 64, 38
1, 432002, Note_on_c, 0, 52, 48
1, 432005, Note_on_c, 0, 67, 71
1, 432013, Note_on_c, 0, 62, 66
1, 432017, Note_on_c, 0, 64, 43
1, 432039, Note_off_c, 0, 71, 61
1, 432058, Control_c, 0, 64, 112
1, 432073, Control_c, 0, 64, 98
1, 432088, Control_c, 0, 64, 90
1, 432103, Control_c, 0, 64, 88
1, 432117, Control_c, 0, 64, 88
1, 432132, Control_c, 0, 64, 90
1, 432147, Control_c, 0, 64, 95
1, 432162, Control_c, 0, 64, 103
1, 432177, Control_c, 0, 64, 118
1, 432178, Note_off_c, 0, 55, 33
1, 432191, Control_c, 0, 64, 127
1, 432319, Note_off_c, 0, 64, 37
1, 432426, Note_off_c, 0, 62, 58
1, 432535, Note_on_c, 0, 45, 48
1, 432555, Note_on_c, 0, 60, 71
1, 432556, Note_on_c, 0, 69, 76
1, 432574, Note_on_c, 0, 64, 49
1, 432592, Control_c, 0, 64, 103
1, 432607, Control_c, 0, 64, 88
1, 432621, Control_c, 0, 64, 78
1, 432636, Control_c, 0, 64, 73
1, 432651, Control_c, 0, 64, 74
1, 432665, Control_c, 0, 64, 81
1, 432680, Control_c, 0, 64, 95
1, 432695, Control_c, 0, 64, 127
1, 432697, Note_off_c, 0, 67, 37
1, 432754, Note_off_c, 0, 64, 41
1, 432815, Note_off_c, 0, 60, 59
1, 432896, Note_off_c, 0, 52, 53
1, 432902, Note_on_c, 0, 50, 55
1, 432922, Note_on_c, 0, 59, 70
1, 432924, Note_on_c, 0, 64, 51
1, 432925, Control_c, 0, 64, 108
1, 432930, Note_on_c, 0, 66, 70
1, 432939, Control_c, 0, 64, 89
1, 432954, Control_c, 0, 64, 75
1, 432960, Note_off_c, 0, 69, 56
1, 432969, Control_c, 0, 64, 63
1, 432984, Control_c, 0, 64, 33
1, 432998, Control_c, 0, 64, 49
1, 433013, Control_c, 0, 64, 63
1, 433028, Control_c, 0, 64, 68
1, 433043, Control_c, 0, 64, 73
1, 433058, Control_c, 0, 64, 80
1, 433072, Control_c, 0, 64, 88
1, 433087, Control_c, 0, 64, 101
1, 433102, Control_c, 0, 64, 119
1, 433117, Control_c, 0, 64, 127
1, 433149, Note_off_c, 0, 45, 33
1, 433181, Note_off_c, 0, 64, 61
1, 433442, Note_off_c, 0, 59, 56
1, 433531, Note_on_c, 0, 54, 38
1, 433585, Note_off_c, 0, 50, 41
1, 433599, Note_on_c, 0, 57, 62
1, 433643, Note_on_c, 0, 60, 55
1, 433678, Note_off_c, 0, 66, 59
1, 433702, Note_on_c, 0, 62, 55
1, 433746, Note_off_c, 0, 54, 53
1, 433810, Note_off_c, 0, 60, 48
1, 433820, Note_on_c, 0, 69, 63
1, 433823, Note_off_c, 0, 57, 38
1, 433854, Note_off_c, 0, 62, 55
1, 434059, Control_c, 0, 67, 12
1, 434074, Control_c, 0, 67, 15
1, 434088, Control_c, 0, 67, 18
1, 434103, Control_c, 0, 67, 20
1, 434119, Control_c, 0, 67, 22
1, 434134, Control_c, 0, 67, 23
1, 434148, Control_c, 0, 67, 25
1, 434153, Note_on_c, 0, 31, 43
1, 434163, Control_c, 0, 67, 27
1, 434173, Note_on_c, 0, 43, 34
1, 434178, Control_c, 0, 67, 28
1, 434193, Control_c, 0, 67, 29
1, 434208, Control_c, 0, 67, 29
1, 434232, Note_on_c, 0, 60, 53
1, 434244, Control_c, 0, 67, 30
1, 434254, Note_on_c, 0, 66, 55
1, 434274, Control_c, 0, 64, 110
1, 434276, Note_on_c, 0, 64, 35
1, 434283, Note_off_c, 0, 69, 48
1, 434289, Control_c, 0, 64, 95
1, 434304, Control_c, 0, 64, 81
1, 434318, Control_c, 0, 64, 66
1, 434333, Control_c, 0, 64, 0
1, 434333, Control_c, 0, 67, 29
1, 434393, Control_c, 0, 67, 29
1, 434423, Control_c, 0, 64, 51
1, 434437, Control_c, 0, 64, 68
1, 434452, Control_c, 0, 64, 80
1, 434467, Control_c, 0, 64, 98
1, 434467, Control_c, 0, 67, 28
1, 434482, Control_c, 0, 64, 127
1, 434497, Control_c, 0, 67, 28
1, 434503, Note_off_c, 0, 31, 40
1, 434526, Control_c, 0, 67, 27
1, 434541, Control_c, 0, 67, 27
1, 434585, Control_c, 0, 67, 26
1, 434615, Control_c, 0, 67, 26
1, 434622, Note_off_c, 0, 43, 40
1, 434659, Control_c, 0, 67, 25
1, 434715, Note_off_c, 0, 60, 61
1, 434755, Note_off_c, 0, 64, 40
1, 434762, Control_c, 0, 67, 25
1, 434786, Note_off_c, 0, 66, 58
1, 434807, Control_c, 0, 67, 24
1, 434897, Control_c, 0, 67, 24
1, 434995, Control_c, 0, 67, 23
1, 435083, Control_c, 0, 67, 23
1, 435094, Note_on_c, 0, 50, 35
1, 435119, Note_on_c, 0, 78, 46
1, 435473, Note_on_c, 0, 62, 36
1, 435478, Note_on_c, 0, 74, 45
1, 435509, Note_off_c, 0, 78, 35
1, 435530, Note_off_c, 0, 74, 58
1, 435653, Note_off_c, 0, 62, 38
1, 435862, Control_c, 0, 67, 23
1, 436083, Control_c, 0, 67, 23
1, 436158, Control_c, 0, 67, 22
1, 436187, Control_c, 0, 67, 22
1, 436321, Control_c, 0, 67, 21
1, 436333, Note_on_c, 0, 54, 40
1, 436336, Control_c, 0, 67, 21
1, 436351, Control_c, 0, 67, 20
1, 436352, Note_on_c, 0, 59, 57
1, 436357, Note_on_c, 0, 69, 60
1, 436365, Control_c, 0, 67, 20
1, 436375, Note_on_c, 0, 62, 40
1, 436394, Note_off_c, 0, 50, 40
1, 436395, Control_c, 0, 67, 19
1, 436409, Control_c, 0, 67, 18
1, 436424, Control_c, 0, 67, 15
1, 436439, Control_c, 0, 67, 11
1, 436454, Control_c, 0, 67, 0
1, 436618, Note_off_c, 0, 59, 61
1, 436661, Note_off_c, 0, 62, 52
1, 436724, Note_on_c, 0, 66, 67
1, 436730, Note_on_c, 0, 60, 62
1, 436739, Note_on_c, 0, 64, 52
1, 436744, Note_on_c, 0, 50, 52
1, 436759, Control_c, 0, 64, 118
1, 436764, Note_off_c, 0, 69, 59
1, 436774, Control_c, 0, 64, 101
1, 436788, Control_c, 0, 64, 90
1, 436803, Control_c, 0, 64, 80
1, 436818, Control_c, 0, 64, 74
1, 436832, Control_c, 0, 64, 70
1, 436847, Control_c, 0, 64, 68
1, 436862, Control_c, 0, 64, 69
1, 436877, Control_c, 0, 64, 70
1, 436892, Control_c, 0, 64, 73
1, 436906, Control_c, 0, 64, 78
1, 436921, Control_c, 0, 64, 83
1, 436936, Control_c, 0, 64, 87
1, 436951, Control_c, 0, 64, 93
1, 436965, Control_c, 0, 64, 99
1, 436971, Note_off_c, 0, 54, 36
1, 436980, Control_c, 0, 64, 106
1, 436995, Control_c, 0, 64, 117
1, 437010, Control_c, 0, 64, 127
1, 437169, Note_off_c, 0, 60, 58
1, 437309, Note_on_c, 0, 67, 75
1, 437314, Note_on_c, 0, 59, 64
1, 437321, Note_on_c, 0, 62, 46
1, 437338, Note_on_c, 0, 43, 50
1, 437339, Note_off_c, 0, 64, 52
1, 437350, Note_off_c, 0, 66, 62
1, 437356, Note_off_c, 0, 62, 62
1, 437447, Note_off_c, 0, 50, 61
1, 437532, Note_off_c, 0, 59, 61
1, 437645, Note_on_c, 0, 48, 59
1, 437655, Control_c, 0, 64, 111
1, 437660, Note_on_c, 0, 64, 73
1, 437666, Note_on_c, 0, 57, 65
1, 437669, Control_c, 0, 64, 95
1, 437672, Note_on_c, 0, 62, 53
1, 437684, Control_c, 0, 64, 82
1, 437699, Control_c, 0, 64, 70
1, 437714, Control_c, 0, 64, 60
1, 437728, Control_c, 0, 64, 40
1, 437729, Note_off_c, 0, 43, 37
1, 437743, Control_c, 0, 64, 39
1, 437747, Note_off_c, 0, 67, 41
1, 437758, Control_c, 0, 64, 47
1, 437773, Control_c, 0, 64, 57
1, 437788, Control_c, 0, 64, 64
1, 437803, Control_c, 0, 64, 67
1, 437818, Control_c, 0, 64, 72
1, 437833, Control_c, 0, 64, 79
1, 437848, Control_c, 0, 64, 89
1, 437862, Control_c, 0, 64, 99
1, 437877, Control_c, 0, 64, 114
1, 437892, Control_c, 0, 64, 127
1, 438179, Note_off_c, 0, 57, 60
1, 438197, Note_off_c, 0, 48, 57
1, 438224, Note_on_c, 0, 40, 53
1, 438299, Note_on_c, 0, 55, 64
1, 438307, Note_off_c, 0, 62, 55
1, 438340, Note_on_c, 0, 60, 64
1, 438378, Note_off_c, 0, 64, 53
1, 438423, Note_on_c, 0, 67, 72
1, 438428, Note_off_c, 0, 55, 63
1, 438645, Note_off_c, 0, 40, 41
1, 438806, Note_on_c, 0, 42, 43
1, 438815, Note_on_c, 0, 30, 42
1, 438846, Note_on_c, 0, 59, 54
1, 438852, Note_on_c, 0, 62, 46
1, 438852, Note_on_c, 0, 64, 55
1, 438855, Control_c, 0, 64, 114
1, 438858, Note_off_c, 0, 60, 56
1, 438870, Control_c, 0, 64, 107
1, 438885, Control_c, 0, 64, 99
1, 438900, Control_c, 0, 64, 87
1, 438915, Control_c, 0, 64, 74
1, 438918, Note_off_c, 0, 67, 49
1, 438930, Control_c, 0, 64, 60
1, 438945, Control_c, 0, 64, 0
1, 439034, Control_c, 0, 64, 45
1, 439049, Control_c, 0, 64, 64
1, 439064, Control_c, 0, 64, 70
1, 439079, Control_c, 0, 64, 79
1, 439094, Control_c, 0, 64, 90
1, 439108, Control_c, 0, 64, 101
1, 439123, Control_c, 0, 64, 121
1, 439138, Note_off_c, 0, 30, 41
1, 439138, Control_c, 0, 64, 127
1, 439232, Note_off_c, 0, 62, 49
1, 439273, Note_off_c, 0, 42, 41
1, 439273, Note_off_c, 0, 64, 61
1, 439318, Note_off_c, 0, 59, 53
1, 439604, Note_on_c, 0, 48, 20
1, 439624, Note_on_c, 0, 76, 53
1, 439922, Note_off_c, 0, 76, 54
1, 439952, Note_on_c, 0, 72, 42
1, 439959, Note_on_c, 0, 60, 35
1, 440021, Note_off_c, 0, 72, 60
1, 440211, Note_off_c, 0, 60, 42
1, 440779, Note_on_c, 0, 52, 48
1, 440820, Note_on_c, 0, 57, 56
1, 440823, Note_on_c, 0, 67, 63
1, 440851, Note_on_c, 0, 60, 33
1, 440987, Note_off_c, 0, 48, 41
1, 441067, Note_off_c, 0, 57, 61
1, 441159, Note_off_c, 0, 60, 45
1, 441188, Note_on_c, 0, 64, 76
1, 441191, Note_on_c, 0, 48, 61
1, 441192, Note_on_c, 0, 62, 60
1, 441198, Note_on_c, 0, 59, 65
1, 441226, Note_off_c, 0, 67, 53
1, 441246, Note_off_c, 0, 52, 48
1, 441250, Control_c, 0, 64, 116
1, 441265, Control_c, 0, 64, 91
1, 441279, Control_c, 0, 64, 79
1, 441294, Control_c, 0, 64, 71
1, 441310, Control_c, 0, 64, 69
1, 441325, Control_c, 0, 64, 73
1, 441340, Control_c, 0, 64, 79
1, 441355, Control_c, 0, 64, 88
1, 441370, Control_c, 0, 64, 104
1, 441384, Control_c, 0, 64, 127
1, 441543, Note_off_c, 0, 59, 56
1, 441705, Note_on_c, 0, 42, 68
1, 441733, Note_on_c, 0, 66, 78
1, 441737, Note_on_c, 0, 60, 60
1, 441740, Note_on_c, 0, 57, 68
1, 441857, Note_off_c, 0, 64, 52
1, 441860, Note_off_c, 0, 62, 48
1, 441861, Note_off_c, 0, 48, 54
1, 441905, Note_off_c, 0, 60, 59
1, 441923, Note_off_c, 0, 57, 56
1, 442000, Note_off_c, 0, 42, 61
1, 442012, Note_on_c, 0, 47, 69
1, 442043, Control_c, 0, 64, 90
1, 442052, Note_on_c, 0, 63, 78
1, 442056, Note_on_c, 0, 57, 61
1, 442058, Control_c, 0, 64, 70
1, 442061, Note_on_c, 0, 59, 60
1, 442073, Control_c, 0, 64, 32
1, 442088, Control_c, 0, 64, 0
1, 442118, Control_c, 0, 64, 19
1, 442133, Control_c, 0, 64, 65
1, 442148, Control_c, 0, 64, 81
1, 442163, Control_c, 0, 64, 127
1, 442187, Note_off_c, 0, 66, 55
1, 442209, Poly_aftertouch_c, 0, 61, 127
1, 442252, Note_off_c, 0, 59, 50
1, 442287, Note_off_c, 0, 57, 61
1, 442319, Poly_aftertouch_c, 0, 61, 0
1, 442331, Note_off_c, 0, 63, 61
1, 442490, Note_on_c, 0, 71, 87
1, 442582, Note_off_c, 0, 47, 57
1, 442614, Note_on_c, 0, 56, 77
1, 442629, Note_on_c, 0, 48, 53
1, 442672, Note_off_c, 0, 56, 65
1, 442754, Note_on_c, 0, 64, 83
1, 442770, Note_on_c, 0, 40, 69
1, 442835, Note_off_c, 0, 48, 29
1, 442878, Note_off_c, 0, 40, 62
1, 442882, Note_on_c, 0, 49, 80
1, 443023, Note_on_c, 0, 55, 78
1, 443118, Control_c, 0, 64, 110
1, 443133, Control_c, 0, 64, 74
1, 443143, Note_on_c, 0, 70, 79
1, 443148, Control_c, 0, 64, 0
1, 443154, Note_on_c, 0, 66, 74
1, 443184, Note_off_c, 0, 64, 60
1, 443207, Control_c, 0, 64, 72
1, 443209, Note_off_c, 0, 71, 55
1, 443229, Control_c, 0, 64, 110
1, 443244, Control_c, 0, 64, 127
1, 443320, Note_off_c, 0, 49, 59
1, 443321, Note_off_c, 0, 55, 61
1, 443544, Note_off_c, 0, 66, 57
1, 443550, Note_off_c, 0, 70, 59
1, 443559, Note_on_c, 0, 67, 77
1, 443670, Note_on_c, 0, 61, 70
1, 443773, Note_on_c, 0, 70, 88
1, 443830, Note_off_c, 0, 67, 55
1, 443921, Note_on_c, 0, 64, 74
1, 443979, Note_on_c, 0, 75, 86
1, 444127, Note_on_c, 0, 76, 85
1, 444216, Note_off_c, 0, 75, 60
1, 444313, Note_off_c, 0, 61, 57
1, 444328, Note_on_c, 0, 59, 50
1, 444343, Note_on_c, 0, 63, 58
1, 444363, Note_off_c, 0, 64, 48
1, 444497, Note_on_c, 0, 78, 77
1, 444505, Note_on_c, 0, 69, 54
1, 444513, Control_c, 0, 64, 112
1, 444516, Note_off_c, 0, 70, 51
1, 444527, Control_c, 0, 64, 103
1, 444542, Control_c, 0, 64, 94
1, 444557, Control_c, 0, 64, 84
1, 444571, Control_c, 0, 64, 72
1, 444580, Note_off_c, 0, 76, 58
1, 444586, Control_c, 0, 64, 57
1, 444602, Control_c, 0, 64, 0
1, 444832, Control_c, 0, 64, 36
1, 444846, Control_c, 0, 64, 68
1, 444861, Control_c, 0, 64, 77
1, 444876, Control_c, 0, 64, 90
1, 444891, Control_c, 0, 64, 112
1, 444906, Control_c, 0, 64, 120
1, 444920, Control_c, 0, 64, 127
1, 445037, Note_on_c, 0, 71, 71
1, 445044, Note_off_c, 0, 59, 60
1, 445050, Note_on_c, 0, 68, 62
1, 445070, Note_on_c, 0, 58, 68
1, 445092, Note_off_c, 0, 69, 54
1, 445320, Note_on_c, 0, 57, 69
1, 445345, Note_off_c, 0, 58, 55
1, 445351, Control_c, 0, 64, 108
1, 445366, Control_c, 0, 64, 84
1, 445380, Control_c, 0, 64, 66
1, 445385, Note_on_c, 0, 67, 72
1, 445395, Control_c, 0, 64, 0
1, 445425, Control_c, 0, 64, 57
1, 445427, Note_off_c, 0, 68, 59
1, 445440, Control_c, 0, 64, 69
1, 445449, Note_off_c, 0, 71, 61
1, 445455, Control_c, 0, 64, 87
1, 445476, Control_c, 0, 64, 127
1, 445538, Note_off_c, 0, 78, 61
1, 445658, Note_on_c, 0, 72, 77
1, 445678, Note_off_c, 0, 67, 59
1, 445889, Note_on_c, 0, 75, 86
1, 445992, Note_off_c, 0, 57, 36
1, 446042, Note_on_c, 0, 67, 81
1, 446106, Note_off_c, 0, 63, 55
1, 446134, Note_on_c, 0, 78, 82
1, 446181, Note_off_c, 0, 67, 58
1, 446296, Note_on_c, 0, 79, 88
1, 446302, Note_on_c, 0, 50, 64
1, 446320, Note_off_c, 0, 72, 61
1, 446342, Note_off_c, 0, 75, 54
1, 446355, Note_off_c, 0, 78, 62
1, 446410, Note_on_c, 0, 60, 68
1, 446413, Note_off_c, 0, 50, 61
1, 446513, Note_off_c, 0, 79, 55
1, 446672, Note_on_c, 0, 66, 83
1, 446732, Note_on_c, 0, 74, 56
1, 446743, Note_on_c, 0, 81, 81
1, 446754, Note_on_c, 0, 69, 64
1, 446758, Control_c, 0, 64, 107
1, 446773, Control_c, 0, 64, 78
1, 446788, Control_c, 0, 64, 0
1, 446847, Control_c, 0, 64, 65
1, 446862, Control_c, 0, 64, 83
1, 446877, Control_c, 0, 64, 127
1, 447026, Note_off_c, 0, 69, 56
1, 447052, Note_off_c, 0, 81, 60
1, 447075, Note_off_c, 0, 74, 64
1, 447118, Poly_aftertouch_c, 0, 56, 127
1, 447205, Note_on_c, 0, 83, 78
1, 447214, Note_on_c, 0, 71, 69
1, 447323, Poly_aftertouch_c, 0, 56, 0
1, 447330, Note_off_c, 0, 66, 63
1, 447431, Note_on_c, 0, 64, 75
1, 447438, Note_on_c, 0, 76, 53
1, 447440, Note_on_c, 0, 55, 62
1, 447440, Note_off_c, 0, 60, 39
1, 447584, Note_off_c, 0, 64, 62
1, 447606, Note_off_c, 0, 55, 58
1, 447700, Note_on_c, 0, 62, 60
1, 447700, Note_on_c, 0, 54, 61
1, 447738, Note_off_c, 0, 71, 58
1, 447762, Note_off_c, 0, 76, 57
1, 447774, Note_off_c, 0, 83, 59
1, 447857, Note_off_c, 0, 62, 57
1, 447901, Control_c, 0, 67, 8
1, 447907, Note_on_c, 0, 84, 84
1, 447915, Control_c, 0, 67, 10
1, 447920, Note_off_c, 0, 54, 63
1, 447926, Note_on_c, 0, 72, 55
1, 447930, Control_c, 0, 67, 14
1, 447931, Note_on_c, 0, 78, 55
1, 447945, Control_c, 0, 67, 19
1, 447960, Control_c, 0, 67, 25
1, 447975, Control_c, 0, 67, 31
1, 447989, Control_c, 0, 67, 36
1, 448004, Control_c, 0, 67, 40
1, 448019, Control_c, 0, 67, 45
1, 448034, Control_c, 0, 67, 49
1, 448049, Control_c, 0, 67, 53
1, 448063, Control_c, 0, 67, 58
1, 448078, Control_c, 0, 67, 64
1, 448093, Control_c, 0, 67, 71
1, 448108, Control_c, 0, 67, 76
1, 448123, Control_c, 0, 67, 79
1, 448138, Control_c, 0, 67, 80
1, 448147, Note_on_c, 0, 43, 63
1, 448153, Control_c, 0, 67, 82
1, 448168, Control_c, 0, 67, 84
1, 448183, Control_c, 0, 64, 85
1, 448183, Control_c, 0, 67, 86
1, 448197, Control_c, 0, 64, 63
1, 448197, Control_c, 0, 67, 87
1, 448212, Control_c, 0, 64, 0
1, 448212, Control_c, 0, 67, 88
1, 448227, Control_c, 0, 67, 89
1, 448242, Control_c, 0, 67, 92
1, 448257, Control_c, 0, 64, 60
1, 448257, Control_c, 0, 67, 95
1, 448271, Control_c, 0, 64, 78
1, 448271, Control_c, 0, 67, 97
1, 448286, Control_c, 0, 64, 114
1, 448286, Control_c, 0, 67, 98
1, 448301, Control_c, 0, 64, 127
1, 448301, Control_c, 0, 67, 100
1, 448314, Note_off_c, 0, 43, 39
1, 448315, Control_c, 0, 67, 101
1, 448330, Control_c, 0, 67, 101
1, 448342, Note_on_c, 0, 50, 42
1, 448345, Control_c, 0, 67, 102
1, 448360, Control_c, 0, 67, 103
1, 448361, Note_off_c, 0, 72, 60
1, 448375, Control_c, 0, 67, 103
1, 448389, Control_c, 0, 67, 104
1, 448404, Control_c, 0, 67, 105
1, 448419, Control_c, 0, 67, 106
1, 448434, Note_off_c, 0, 78, 55
1, 448434, Control_c, 0, 67, 107
1, 448436, Note_off_c, 0, 50, 58
1, 448449, Control_c, 0, 67, 108
1, 448471, Control_c, 0, 67, 109
1, 448479, Note_on_c, 0, 59, 52
1, 448501, Control_c, 0, 67, 109
1, 448534, Note_on_c, 0, 74, 57
1, 448535, Note_off_c, 0, 59, 52
1, 448653, Note_on_c, 0, 79, 63
1, 448731, Note_on_c, 0, 62, 46
1, 448794, Note_off_c, 0, 84, 60
1, 448835, Note_on_c, 0, 67, 52
1, 448842, Control_c, 0, 64, 122
1, 448857, Control_c, 0, 64, 94
1, 448872, Note_on_c, 0, 71, 50
1, 448872, Control_c, 0, 64, 78
1, 448886, Control_c, 0, 64, 69
1, 448901, Control_c, 0, 64, 64
1, 448916, Control_c, 0, 64, 66
1, 448931, Control_c, 0, 64, 71
1, 448946, Control_c, 0, 64, 81
1, 448961, Control_c, 0, 64, 95
1, 448975, Control_c, 0, 64, 127
1, 449084, Note_on_c, 0, 86, 77
1, 449150, Note_off_c, 0, 74, 49
1, 449225, Note_off_c, 0, 62, 38
1, 449279, Note_off_c, 0, 86, 58
1, 449284, Note_off_c, 0, 79, 53
1, 449310, Control_c, 0, 67, 109
1, 449324, Control_c, 0, 67, 108
1, 449387, Note_off_c, 0, 71, 44
1, 449399, Control_c, 0, 67, 108
1, 449429, Control_c, 0, 67, 107
1, 449458, Control_c, 0, 67, 107
1, 449517, Control_c, 0, 67, 106
1, 449547, Control_c, 0, 67, 106
1, 449650, Control_c, 0, 67, 105
1, 449667, Note_on_c, 0, 72, 39
1, 449679, Note_on_c, 0, 64, 14
1, 449754, Control_c, 0, 67, 105
1, 449813, Note_off_c, 0, 72, 49
1, 449823, Note_off_c, 0, 64, 41
1, 450009, Note_on_c, 0, 71, 40
1, 450028, Note_on_c, 0, 62, 29
1, 450067, Note_off_c, 0, 67, 41
1, 450084, Note_off_c, 0, 71, 54
1, 450281, Note_on_c, 0, 74, 36
1, 450284, Note_on_c, 0, 71, 39
1, 450291, Note_on_c, 0, 67, 40
1, 450308, Note_off_c, 0, 62, 40
1, 450357, Note_off_c, 0, 67, 44
1, 450376, Note_off_c, 0, 71, 38
1, 450465, Note_off_c, 0, 74, 42
1, 450524, Note_on_c, 0, 60, 39
1, 450526, Note_on_c, 0, 69, 47
1, 450527, Note_on_c, 0, 66, 46
1, 450585, Note_off_c, 0, 69, 53
1, 450645, Note_off_c, 0, 60, 49
1, 450680, Control_c, 0, 67, 105
1, 450761, Control_c, 0, 67, 106
1, 450763, Note_on_c, 0, 71, 52
1, 450776, Note_on_c, 0, 62, 39
1, 450797, Note_off_c, 0, 71, 65
1, 450818, Note_off_c, 0, 62, 57
1, 450821, Control_c, 0, 67, 106
1, 450880, Control_c, 0, 67, 107
1, 450955, Control_c, 0, 67, 107
1, 450993, Note_on_c, 0, 69, 47
1, 450996, Note_on_c, 0, 60, 37
1, 450999, Control_c, 0, 67, 108
1, 451009, Note_off_c, 0, 66, 52
1, 451029, Control_c, 0, 67, 108
1, 451095, Note_off_c, 0, 69, 37
1, 451103, Control_c, 0, 67, 109
1, 451219, Note_on_c, 0, 74, 40
1, 451220, Note_on_c, 0, 71, 42
1, 451221, Control_c, 0, 67, 109
1, 451224, Note_on_c, 0, 66, 40
1, 451246, Note_off_c, 0, 60, 36
1, 451300, Note_off_c, 0, 66, 41
1, 451399, Control_c, 0, 64, 108
1, 451399, Control_c, 0, 67, 110
1, 451414, Control_c, 0, 64, 99
1, 451429, Control_c, 0, 64, 96
1, 451440, Note_on_c, 0, 67, 47
1, 451441, Note_on_c, 0, 59, 36
1, 451441, Note_off_c, 0, 71, 40
1, 451443, Note_on_c, 0, 64, 46
1, 451481, Control_c, 0, 64, 97
1, 451495, Control_c, 0, 64, 100
1, 451510, Control_c, 0, 64, 104
1, 451525, Control_c, 0, 64, 108
1, 451533, Note_off_c, 0, 67, 51
1, 451539, Control_c, 0, 64, 112
1, 451554, Control_c, 0, 64, 114
1, 451569, Control_c, 0, 64, 115
1, 451569, Control_c, 0, 67, 109
1, 451572, Note_off_c, 0, 59, 40
1, 451584, Control_c, 0, 64, 115
1, 451596, Note_off_c, 0, 74, 27
1, 451599, Control_c, 0, 64, 116
1, 451614, Control_c, 0, 64, 117
1, 451628, Control_c, 0, 64, 118
1, 451658, Control_c, 0, 64, 118
1, 451685, Note_on_c, 0, 69, 50
1, 451689, Control_c, 0, 67, 109
1, 451700, Note_on_c, 0, 60, 38
1, 451728, Note_off_c, 0, 69, 56
1, 451755, Note_off_c, 0, 60, 46
1, 451927, Note_on_c, 0, 59, 43
1, 451933, Note_on_c, 0, 67, 27
1, 451970, Note_off_c, 0, 67, 46
1, 452008, Note_off_c, 0, 64, 39
1, 452073, Note_off_c, 0, 59, 34
1, 452147, Note_on_c, 0, 74, 51
1, 452148, Control_c, 0, 64, 119
1, 452153, Note_on_c, 0, 64, 43
1, 452162, Control_c, 0, 64, 119
1, 452173, Note_on_c, 0, 71, 39
1, 452177, Control_c, 0, 64, 120
1, 452192, Control_c, 0, 64, 122
1, 452213, Note_off_c, 0, 64, 44
1, 452215, Control_c, 0, 64, 123
1, 452230, Control_c, 0, 64, 124
1, 452236, Note_off_c, 0, 71, 42
1, 452244, Control_c, 0, 64, 126
1, 452257, Note_off_c, 0, 74, 55
1, 452259, Control_c, 0, 64, 127
1, 452452, Note_on_c, 0, 60, 32
1, 452490, Note_on_c, 0, 64, 30
1, 452571, Note_on_c, 0, 81, 85
1, 452626, Note_on_c, 0, 69, 18
1, 452630, Control_c, 0, 64, 113
1, 452630, Control_c, 0, 67, 109
1, 452645, Control_c, 0, 64, 98
1, 452660, Control_c, 0, 64, 81
1, 452660, Control_c, 0, 67, 110
1, 452675, Control_c, 0, 64, 61
1, 452690, Control_c, 0, 64, 0
1, 452764, Control_c, 0, 64, 65
1, 452778, Control_c, 0, 64, 75
1, 452778, Control_c, 0, 67, 109
1, 452793, Control_c, 0, 64, 85
1, 452793, Control_c, 0, 67, 109
1, 452808, Control_c, 0, 64, 95
1, 452808, Control_c, 0, 67, 108
1, 452823, Control_c, 0, 64, 103
1, 452838, Control_c, 0, 64, 105
1, 452838, Control_c, 0, 67, 108
1, 452852, Control_c, 0, 67, 107
1, 452867, Control_c, 0, 67, 107
1, 452874, Note_off_c, 0, 69, 42
1, 452881, Note_on_c, 0, 66, 49
1, 452892, Note_off_c, 0, 64, 42
1, 452894, Note_on_c, 0, 71, 50
1, 452897, Control_c, 0, 64, 106
1, 452900, Note_on_c, 0, 62, 41
1, 452906, Note_off_c, 0, 60, 46
1, 452911, Control_c, 0, 64, 108
1, 452911, Control_c, 0, 67, 106
1, 452926, Control_c, 0, 64, 110
1, 452941, Control_c, 0, 64, 113
1, 452964, Control_c, 0, 64, 117
1, 452979, Control_c, 0, 64, 121
1, 452993, Control_c, 0, 64, 127
1, 453011, Note_off_c, 0, 71, 57
1, 453021, Note_off_c, 0, 62, 29
1, 453053, Note_off_c, 0, 66, 28
1, 453098, Note_on_c, 0, 60, 35
1, 453122, Note_on_c, 0, 69, 54
1, 453128, Note_on_c, 0, 64, 36
1, 453161, Note_off_c, 0, 69, 61
1, 453174, Note_off_c, 0, 64, 46
1, 453245, Control_c, 0, 67, 107
1, 453317, Note_on_c, 0, 66, 43
1, 453319, Note_on_c, 0, 69, 36
1, 453373, Note_off_c, 0, 69, 60
1, 453390, Note_off_c, 0, 66, 56
1, 453397, Note_off_c, 0, 60, 45
1, 453459, Note_on_c, 0, 74, 65
1, 453497, Control_c, 0, 67, 107
1, 453527, Control_c, 0, 67, 108
1, 453587, Control_c, 0, 67, 108
1, 453652, Note_on_c, 0, 79, 78
1, 453691, Note_off_c, 0, 81, 58
1, 453697, Note_on_c, 0, 43, 46
1, 453712, Control_c, 0, 64, 108
1, 453727, Control_c, 0, 64, 88
1, 453742, Control_c, 0, 64, 75
1, 453757, Control_c, 0, 64, 65
1, 453772, Control_c, 0, 64, 62
1, 453787, Control_c, 0, 64, 68
1, 453802, Control_c, 0, 64, 78
1, 453805, Note_off_c, 0, 43, 60
1, 453816, Control_c, 0, 64, 98
1, 453831, Control_c, 0, 64, 127
1, 453849, Note_on_c, 0, 50, 51
1, 453875, Control_c, 0, 67, 108
1, 453920, Control_c, 0, 67, 107
1, 453929, Note_off_c, 0, 50, 63
1, 453936, Note_on_c, 0, 59, 42
1, 453939, Note_off_c, 0, 74, 54
1, 454005, Note_off_c, 0, 59, 59
1, 454033, Note_on_c, 0, 67, 49
1, 454036, Note_off_c, 0, 79, 39
1, 454038, Control_c, 0, 67, 107
1, 454067, Control_c, 0, 67, 106
1, 454068, Note_off_c, 0, 67, 63
1, 454099, Control_c, 0, 67, 106
1, 454109, Note_on_c, 0, 74, 54
1, 454113, Control_c, 0, 67, 105
1, 454128, Control_c, 0, 67, 105
1, 454143, Control_c, 0, 67, 104
1, 454157, Control_c, 0, 67, 104
1, 454172, Control_c, 0, 67, 102
1, 454183, Note_off_c, 0, 74, 63
1, 454187, Control_c, 0, 67, 102
1, 454202, Note_on_c, 0, 79, 65
1, 454202, Control_c, 0, 67, 101
1, 454217, Control_c, 0, 67, 99
1, 454219, Note_on_c, 0, 62, 38
1, 454225, Note_off_c, 0, 79, 66
1, 454231, Control_c, 0, 67, 98
1, 454246, Control_c, 0, 67, 97
1, 454261, Control_c, 0, 67, 96
1, 454275, Control_c, 0, 67, 95
1, 454290, Control_c, 0, 67, 92
1, 454293, Note_on_c, 0, 71, 47
1, 454303, Note_on_c, 0, 67, 29
1, 454305, Control_c, 0, 67, 86
1, 454320, Control_c, 0, 67, 80
1, 454335, Control_c, 0, 67, 73
1, 454350, Control_c, 0, 67, 66
1, 454365, Control_c, 0, 67, 59
1, 454380, Control_c, 0, 67, 53
1, 454395, Control_c, 0, 67, 48
1, 454403, Note_off_c, 0, 62, 39
1, 454410, Control_c, 0, 67, 42
1, 454425, Control_c, 0, 67, 37
1, 454439, Control_c, 0, 67, 33
1, 454461, Control_c, 0, 67, 29
1, 454476, Control_c, 0, 67, 27
1, 454479, Note_on_c, 0, 86, 79
1, 454490, Control_c, 0, 67, 24
1, 454505, Control_c, 0, 67, 21
1, 454520, Control_c, 0, 67, 16
1, 454535, Control_c, 0, 67, 12
1, 454550, Control_c, 0, 67, 8
1, 454565, Control_c, 0, 67, 0
1, 454624, Note_off_c, 0, 86, 53
1, 454632, Note_off_c, 0, 71, 45
1, 454912, Note_on_c, 0, 64, 41
1, 454931, Note_on_c, 0, 72, 40
1, 454994, Note_off_c, 0, 64, 51
1, 455003, Note_off_c, 0, 72, 48
1, 455208, Note_on_c, 0, 71, 44
1, 455247, Note_off_c, 0, 71, 61
1, 455253, Note_on_c, 0, 62, 3
1, 455255, Note_off_c, 0, 67, 40
1, 455469, Note_off_c, 0, 62, 38
1, 455487, Note_on_c, 0, 74, 42
1, 455492, Note_on_c, 0, 67, 10
1, 455497, Note_on_c, 0, 71, 30
1, 455553, Note_off_c, 0, 67, 45
1, 455643, Note_off_c, 0, 71, 27
1, 455700, Control_c, 0, 64, 108
1, 455707, Note_on_c, 0, 69, 40
1, 455712, Note_on_c, 0, 66, 43
1, 455715, Control_c, 0, 64, 103
1, 455723, Note_on_c, 0, 60, 37
1, 455729, Control_c, 0, 64, 102
1, 455759, Control_c, 0, 64, 103
1, 455774, Control_c, 0, 64, 106
1, 455782, Note_off_c, 0, 69, 59
1, 455789, Control_c, 0, 64, 114
1, 455795, Note_off_c, 0, 60, 55
1, 455803, Control_c, 0, 64, 127
1, 455855, Note_off_c, 0, 74, 43
1, 455953, Note_on_c, 0, 71, 45
1, 455958, Note_on_c, 0, 62, 37
1, 455959, Control_c, 0, 67, 8
1, 455974, Control_c, 0, 67, 9
1, 455989, Control_c, 0, 67, 10
1, 456001, Note_off_c, 0, 71, 57
1, 456004, Note_off_c, 0, 62, 46
1, 456018, Control_c, 0, 67, 11
1, 456048, Control_c, 0, 67, 11
1, 456077, Control_c, 0, 67, 12
1, 456107, Control_c, 0, 67, 12
1, 456136, Control_c, 0, 67, 13
1, 456166, Control_c, 0, 67, 13
1, 456171, Note_on_c, 0, 69, 45
1, 456173, Note_on_c, 0, 60, 38
1, 456181, Control_c, 0, 67, 14
1, 456196, Control_c, 0, 67, 15
1, 456210, Control_c, 0, 67, 16
1, 456213, Note_off_c, 0, 66, 36
1, 456225, Control_c, 0, 67, 17
1, 456227, Note_off_c, 0, 69, 54
1, 456240, Control_c, 0, 67, 19
1, 456255, Control_c, 0, 67, 20
1, 456270, Control_c, 0, 67, 22
1, 456285, Control_c, 0, 67, 24
1, 456300, Control_c, 0, 67, 27
1, 456314, Control_c, 0, 67, 29
1, 456329, Control_c, 0, 67, 31
1, 456344, Control_c, 0, 67, 33
1, 456359, Control_c, 0, 67, 34
1, 456374, Control_c, 0, 67, 36
1, 456389, Note_on_c, 0, 71, 38
1, 456389, Control_c, 0, 67, 37
1, 456398, Note_on_c, 0, 74, 43
1, 456403, Note_on_c, 0, 66, 37
1, 456403, Control_c, 0, 67, 38
1, 456413, Note_off_c, 0, 60, 43
1, 456418, Control_c, 0, 67, 39
1, 456433, Control_c, 0, 67, 40
1, 456447, Control_c, 0, 67, 41
1, 456462, Control_c, 0, 67, 42
1, 456478, Control_c, 0, 67, 42
1, 456493, Control_c, 0, 67, 44
1, 456508, Control_c, 0, 67, 45
1, 456523, Control_c, 0, 67, 46
1, 456538, Control_c, 0, 67, 47
1, 456552, Control_c, 0, 67, 49
1, 456559, Note_off_c, 0, 66, 39
1, 456567, Control_c, 0, 67, 50
1, 456582, Control_c, 0, 67, 52
1, 456597, Control_c, 0, 64, 109
1, 456597, Control_c, 0, 67, 54
1, 456612, Control_c, 0, 64, 98
1, 456612, Control_c, 0, 67, 54
1, 456626, Control_c, 0, 64, 90
1, 456626, Control_c, 0, 67, 55
1, 456628, Note_on_c, 0, 59, 35
1, 456634, Note_off_c, 0, 71, 37
1, 456635, Note_on_c, 0, 67, 38
1, 456639, Note_on_c, 0, 64, 35
1, 456641, Control_c, 0, 64, 84
1, 456641, Control_c, 0, 67, 56
1, 456656, Control_c, 0, 64, 80
1, 456656, Control_c, 0, 67, 57
1, 456670, Control_c, 0, 64, 79
1, 456670, Control_c, 0, 67, 58
1, 456685, Control_c, 0, 64, 81
1, 456685, Control_c, 0, 67, 60
1, 456708, Control_c, 0, 64, 86
1, 456708, Control_c, 0, 67, 62
1, 456720, Note_off_c, 0, 59, 39
1, 456723, Control_c, 0, 64, 92
1, 456723, Control_c, 0, 67, 63
1, 456726, Note_off_c, 0, 67, 54
1, 456738, Control_c, 0, 64, 99
1, 456738, Control_c, 0, 67, 65
1, 456752, Control_c, 0, 64, 105
1, 456752, Control_c, 0, 67, 66
1, 456767, Control_c, 0, 64, 111
1, 456767, Control_c, 0, 67, 68
1, 456782, Control_c, 0, 64, 117
1, 456782, Control_c, 0, 67, 69
1, 456797, Control_c, 0, 64, 122
1, 456797, Control_c, 0, 67, 70
1, 456812, Control_c, 0, 64, 126
1, 456812, Control_c, 0, 67, 72
1, 456826, Control_c, 0, 67, 74
1, 456841, Control_c, 0, 64, 127
1, 456841, Control_c, 0, 67, 76
1, 456856, Control_c, 0, 67, 78
1, 456871, Control_c, 0, 67, 79
1, 456875, Note_on_c, 0, 60, 43
1, 456878, Note_on_c, 0, 69, 45
1, 456885, Control_c, 0, 67, 81
1, 456900, Control_c, 0, 67, 82
1, 456915, Control_c, 0, 67, 84
1, 456930, Control_c, 0, 67, 85
1, 456941, Note_off_c, 0, 69, 53
1, 456945, Control_c, 0, 67, 87
1, 456959, Control_c, 0, 67, 89
1, 456960, Note_off_c, 0, 60, 56
1, 456974, Control_c, 0, 67, 91
1, 456989, Control_c, 0, 67, 92
1, 457004, Control_c, 0, 67, 94
1, 457019, Control_c, 0, 67, 96
1, 457027, Note_off_c, 0, 74, 37
1, 457033, Control_c, 0, 67, 98
1, 457048, Control_c, 0, 67, 100
1, 457063, Control_c, 0, 67, 101
1, 457078, Control_c, 0, 67, 103
1, 457092, Control_c, 0, 67, 104
1, 457107, Note_on_c, 0, 67, 50
1, 457107, Control_c, 0, 67, 106
1, 457122, Note_off_c, 0, 64, 43
1, 457122, Control_c, 0, 67, 108
1, 457133, Note_on_c, 0, 59, 34
1, 457137, Control_c, 0, 67, 109
1, 457146, Note_off_c, 0, 67, 58
1, 457152, Control_c, 0, 67, 110
1, 457167, Control_c, 0, 67, 112
1, 457182, Control_c, 0, 67, 114
1, 457197, Control_c, 0, 67, 116
1, 457212, Control_c, 0, 67, 117
1, 457226, Control_c, 0, 67, 119
1, 457241, Control_c, 0, 67, 119
1, 457256, Control_c, 0, 67, 120
1, 457271, Control_c, 0, 67, 121
1, 457286, Control_c, 0, 67, 122
1, 457301, Control_c, 0, 67, 122
1, 457316, Control_c, 0, 67, 123
1, 457331, Control_c, 0, 64, 126
1, 457331, Control_c, 0, 67, 124
1, 457346, Control_c, 0, 67, 126
1, 457361, Control_c, 0, 64, 124
1, 457361, Control_c, 0, 67, 127
1, 457376, Control_c, 0, 64, 123
1, 457376, Control_c, 0, 67, 127
1, 457383, Note_on_c, 0, 74, 54
1, 457386, Note_on_c, 0, 71, 47
1, 457391, Control_c, 0, 64, 122
1, 457394, Note_on_c, 0, 64, 40
1, 457395, Note_off_c, 0, 59, 40
1, 457420, Control_c, 0, 64, 121
1, 457435, Control_c, 0, 64, 119
1, 457457, Control_c, 0, 64, 119
1, 457465, Note_off_c, 0, 64, 46
1, 457472, Control_c, 0, 64, 118
1, 457487, Control_c, 0, 64, 118
1, 457509, Note_off_c, 0, 74, 38
1, 457516, Control_c, 0, 64, 117
1, 457529, Note_off_c, 0, 71, 37
1, 457531, Control_c, 0, 64, 117
1, 457546, Control_c, 0, 64, 116
1, 457561, Control_c, 0, 64, 116
1, 457605, Control_c, 0, 64, 115
1, 457620, Control_c, 0, 64, 115
1, 457635, Control_c, 0, 64, 114
1, 457680, Note_on_c, 0, 57, 34
1, 457686, Note_on_c, 0, 60, 31
1, 457692, Poly_aftertouch_c, 0, 64, 127
1, 457695, Control_c, 0, 64, 114
1, 457709, Control_c, 0, 64, 113
1, 457739, Control_c, 0, 64, 113
1, 457769, Control_c, 0, 64, 112
1, 457783, Control_c, 0, 64, 110
1, 457794, Note_on_c, 0, 79, 71
1, 457798, Control_c, 0, 64, 109
1, 457813, Control_c, 0, 64, 104
1, 457820, Note_on_c, 0, 67, 39
1, 457828, Control_c, 0, 64, 98
1, 457843, Control_c, 0, 64, 88
1, 457857, Control_c, 0, 64, 77
1, 457872, Control_c, 0, 64, 65
1, 457887, Control_c, 0, 64, 0
1, 457975, Control_c, 0, 64, 60
1, 457990, Control_c, 0, 64, 69
1, 458005, Control_c, 0, 64, 77
1, 458020, Control_c, 0, 64, 84
1, 458034, Control_c, 0, 64, 93
1, 458049, Control_c, 0, 64, 101
1, 458064, Control_c, 0, 64, 103
1, 458082, Note_off_c, 0, 60, 38
1, 458106, Note_off_c, 0, 67, 37
1, 458115, Note_off_c, 0, 57, 36
1, 458118, Note_on_c, 0, 59, 39
1, 458124, Control_c, 0, 64, 103
1, 458127, Note_on_c, 0, 69, 38
1, 458130, Note_on_c, 0, 62, 34
1, 458139, Control_c, 0, 64, 104
1, 458139, Poly_aftertouch_c, 0, 64, 0
1, 458154, Control_c, 0, 64, 105
1, 458169, Control_c, 0, 64, 106
1, 458183, Control_c, 0, 64, 108
1, 458205, Control_c, 0, 64, 110
1, 458220, Control_c, 0, 64, 113
1, 458235, Control_c, 0, 64, 115
1, 458250, Control_c, 0, 64, 118
1, 458265, Control_c, 0, 64, 119
1, 458279, Control_c, 0, 64, 122
1, 458294, Control_c, 0, 64, 127
1, 458335, Note_off_c, 0, 79, 51
1, 458340, Note_off_c, 0, 59, 40
1, 458369, Note_on_c, 0, 57, 30
1, 458374, Note_on_c, 0, 67, 44
1, 458383, Note_on_c, 0, 60, 35
1, 458386, Note_off_c, 0, 69, 41
1, 458392, Note_off_c, 0, 62, 28
1, 458472, Note_off_c, 0, 67, 54
1, 458474, Note_off_c, 0, 60, 55
1, 458608, Note_off_c, 0, 57, 42
1, 458624, Note_on_c, 0, 67, 44
1, 458661, Note_on_c, 0, 59, 33
1, 458669, Note_on_c, 0, 62, 20
1, 458729, Note_off_c, 0, 67, 51
1, 458772, Note_off_c, 0, 62, 34
1, 458793, Note_on_c, 0, 78, 57
1, 458806, Note_off_c, 0, 59, 34
1, 458815, Note_on_c, 0, 66, 36
1, 458818, Note_on_c, 0, 74, 36
1, 458932, Control_c, 0, 64, 123
1, 458954, Control_c, 0, 64, 119
1, 458969, Control_c, 0, 64, 118
1, 458984, Control_c, 0, 64, 116
1, 458999, Control_c, 0, 64, 114
1, 459014, Control_c, 0, 64, 112
1, 459028, Control_c, 0, 64, 110
1, 459043, Control_c, 0, 64, 108
1, 459058, Control_c, 0, 64, 105
1, 459073, Control_c, 0, 64, 99
1, 459087, Control_c, 0, 64, 93
1, 459097, Note_on_c, 0, 40, 32
1, 459102, Control_c, 0, 64, 85
1, 459117, Control_c, 0, 64, 77
1, 459132, Control_c, 0, 64, 68
1, 459146, Control_c, 0, 64, 58
1, 459161, Control_c, 0, 64, 38
1, 459165, Note_off_c, 0, 40, 0
1, 459165, Note_on_c, 0, 40, 7
1, 459176, Control_c, 0, 64, 31
1, 459191, Control_c, 0, 64, 33
1, 459206, Control_c, 0, 64, 44
1, 459221, Control_c, 0, 64, 54
1, 459236, Control_c, 0, 64, 64
1, 459251, Control_c, 0, 64, 69
1, 459266, Control_c, 0, 64, 74
1, 459280, Control_c, 0, 64, 80
1, 459295, Control_c, 0, 64, 87
1, 459310, Control_c, 0, 64, 94
1, 459325, Control_c, 0, 64, 100
1, 459338, Note_off_c, 0, 40, 40
1, 459340, Control_c, 0, 64, 106
1, 459343, Note_on_c, 0, 47, 30
1, 459354, Control_c, 0, 64, 111
1, 459369, Control_c, 0, 64, 117
1, 459384, Control_c, 0, 64, 127
1, 459465, Note_off_c, 0, 78, 36
1, 459487, Note_on_c, 0, 55, 37
1, 459490, Note_off_c, 0, 47, 42
1, 459494, Note_off_c, 0, 74, 39
1, 459510, Note_off_c, 0, 66, 42
1, 459531, Note_off_c, 0, 55, 61
1, 459615, Note_on_c, 0, 64, 29
1, 459659, Note_off_c, 0, 64, 58
1, 459707, Note_on_c, 0, 71, 49
1, 459754, Note_off_c, 0, 71, 56
1, 459826, Note_on_c, 0, 76, 38
1, 459856, Note_off_c, 0, 76, 52
1, 459857, Note_on_c, 0, 62, 3
1, 459911, Note_on_c, 0, 67, 39
1, 459912, Note_on_c, 0, 71, 37
1, 460119, Note_on_c, 0, 86, 59
1, 460145, Note_off_c, 0, 62, 33
1, 460187, Note_off_c, 0, 86, 58
1, 460310, Note_off_c, 0, 71, 46
1, 460535, Note_on_c, 0, 64, 20
1, 460537, Note_on_c, 0, 72, 38
1, 460637, Note_off_c, 0, 72, 48
1, 460647, Note_off_c, 0, 64, 43
1, 460811, Note_on_c, 0, 71, 42
1, 460831, Note_on_c, 0, 62, 27
1, 460849, Note_off_c, 0, 71, 48
1, 460878, Note_off_c, 0, 67, 40
1, 461038, Note_on_c, 0, 67, 38
1, 461057, Note_on_c, 0, 74, 43
1, 461068, Note_on_c, 0, 71, 33
1, 461085, Note_off_c, 0, 67, 61
1, 461118, Note_off_c, 0, 62, 39
1, 461176, Note_off_c, 0, 71, 40
1, 461254, Note_off_c, 0, 74, 35
1, 461260, Control_c, 0, 64, 120
1, 461272, Note_on_c, 0, 66, 44
1, 461275, Control_c, 0, 64, 110
1, 461278, Note_on_c, 0, 69, 43
1, 461286, Note_on_c, 0, 60, 44
1, 461290, Control_c, 0, 64, 109
1, 461335, Control_c, 0, 64, 110
1, 461335, Control_c, 0, 67, 127
1, 461349, Control_c, 0, 64, 114
1, 461349, Control_c, 0, 67, 124
1, 461353, Note_off_c, 0, 69, 52
1, 461364, Control_c, 0, 64, 127
1, 461364, Control_c, 0, 67, 121
1, 461379, Control_c, 0, 67, 117
1, 461394, Control_c, 0, 67, 111
1, 461406, Note_off_c, 0, 60, 54
1, 461409, Control_c, 0, 67, 105
1, 461424, Control_c, 0, 67, 98
1, 461439, Control_c, 0, 67, 92
1, 461454, Control_c, 0, 67, 86
1, 461468, Control_c, 0, 67, 81
1, 461483, Control_c, 0, 67, 76
1, 461498, Control_c, 0, 67, 72
1, 461513, Control_c, 0, 67, 68
1, 461528, Control_c, 0, 67, 65
1, 461537, Note_on_c, 0, 71, 43
1, 461538, Note_on_c, 0, 62, 36
1, 461542, Control_c, 0, 67, 63
1, 461557, Control_c, 0, 67, 60
1, 461572, Control_c, 0, 67, 57
1, 461574, Note_off_c, 0, 71, 60
1, 461581, Note_off_c, 0, 62, 50
1, 461587, Control_c, 0, 67, 52
1, 461602, Control_c, 0, 67, 49
1, 461616, Control_c, 0, 67, 45
1, 461631, Control_c, 0, 67, 42
1, 461646, Control_c, 0, 67, 38
1, 461661, Control_c, 0, 67, 35
1, 461675, Control_c, 0, 67, 32
1, 461690, Control_c, 0, 67, 28
1, 461705, Control_c, 0, 67, 26
1, 461720, Control_c, 0, 67, 23
1, 461735, Control_c, 0, 67, 20
1, 461737, Note_on_c, 0, 60, 37
1, 461746, Note_off_c, 0, 66, 60
1, 461749, Control_c, 0, 67, 18
1, 461752, Note_on_c, 0, 69, 47
1, 461764, Control_c, 0, 67, 15
1, 461779, Control_c, 0, 67, 12
1, 461794, Control_c, 0, 67, 9
1, 461809, Control_c, 0, 67, 0
1, 461884, Note_off_c, 0, 69, 27
1, 461972, Note_on_c, 0, 74, 50
1, 461978, Note_on_c, 0, 71, 44
1, 461986, Note_off_c, 0, 60, 55
1, 461997, Note_on_c, 0, 66, 32
1, 462038, Note_off_c, 0, 66, 47
1, 462142, Control_c, 0, 64, 121
1, 462157, Control_c, 0, 64, 102
1, 462172, Control_c, 0, 64, 91
1, 462174, Note_off_c, 0, 71, 34
1, 462187, Control_c, 0, 64, 82
1, 462192, Note_on_c, 0, 59, 42
1, 462198, Note_on_c, 0, 64, 41
1, 462202, Note_on_c, 0, 67, 39
1, 462202, Control_c, 0, 64, 75
1, 462217, Control_c, 0, 64, 72
1, 462232, Control_c, 0, 64, 76
1, 462246, Control_c, 0, 64, 84
1, 462261, Control_c, 0, 64, 92
1, 462265, Note_off_c, 0, 59, 47
1, 462276, Control_c, 0, 64, 103
1, 462290, Control_c, 0, 64, 115
1, 462295, Note_off_c, 0, 67, 58
1, 462305, Control_c, 0, 64, 127
1, 462428, Note_on_c, 0, 60, 41
1, 462438, Note_on_c, 0, 69, 44
1, 462458, Note_off_c, 0, 74, 42
1, 462506, Note_off_c, 0, 60, 60
1, 462507, Note_off_c, 0, 69, 60
1, 462668, Note_on_c, 0, 67, 42
1, 462679, Note_off_c, 0, 64, 41
1, 462683, Note_on_c, 0, 59, 38
1, 462716, Note_off_c, 0, 67, 57
1, 462951, Note_on_c, 0, 74, 46
1, 462962, Note_on_c, 0, 71, 41
1, 462972, Note_on_c, 0, 64, 35
1, 463035, Note_off_c, 0, 59, 40
1, 463037, Note_off_c, 0, 64, 41
1, 463066, Note_off_c, 0, 74, 59
1, 463082, Note_off_c, 0, 71, 56
1, 463208, Note_on_c, 0, 64, 28
1, 463212, Note_on_c, 0, 57, 31
1, 463215, Note_on_c, 0, 60, 30
1, 463320, Control_c, 0, 64, 121
1, 463335, Control_c, 0, 64, 102
1, 463337, Note_on_c, 0, 78, 71
1, 463350, Control_c, 0, 64, 88
1, 463352, Note_on_c, 0, 66, 48
1, 463365, Control_c, 0, 64, 75
1, 463380, Control_c, 0, 64, 65
1, 463394, Control_c, 0, 64, 49
1, 463409, Control_c, 0, 64, 17
1, 463424, Control_c, 0, 64, 33
1, 463446, Control_c, 0, 64, 59
1, 463461, Control_c, 0, 64, 68
1, 463476, Control_c, 0, 64, 76
1, 463491, Control_c, 0, 64, 89
1, 463506, Control_c, 0, 64, 110
1, 463520, Control_c, 0, 64, 127
1, 463614, Note_off_c, 0, 78, 61
1, 463630, Note_off_c, 0, 57, 49
1, 463639, Note_off_c, 0, 60, 44
1, 463646, Note_on_c, 0, 59, 40
1, 463668, Note_on_c, 0, 62, 41
1, 463674, Note_off_c, 0, 64, 39
1, 463716, Note_on_c, 0, 67, 57
1, 463731, Note_off_c, 0, 66, 49
1, 463845, Note_off_c, 0, 67, 57
1, 463848, Note_off_c, 0, 59, 29
1, 463873, Note_on_c, 0, 60, 41
1, 463874, Note_on_c, 0, 57, 40
1, 463886, Note_off_c, 0, 62, 35
1, 463925, Note_on_c, 0, 66, 53
1, 463951, Control_c, 0, 67, 8
1, 463953, Note_off_c, 0, 60, 60
1, 463966, Control_c, 0, 67, 9
1, 463981, Control_c, 0, 67, 10
1, 463996, Control_c, 0, 67, 11
1, 464010, Control_c, 0, 67, 12
1, 464019, Note_off_c, 0, 66, 48
1, 464025, Control_c, 0, 67, 15
1, 464040, Control_c, 0, 67, 17
1, 464047, Note_off_c, 0, 57, 51
1, 464052, Note_on_c, 0, 67, 50
1, 464055, Control_c, 0, 67, 19
1, 464062, Note_on_c, 0, 62, 38
1, 464068, Control_c, 0, 67, 21
1, 464075, Note_on_c, 0, 59, 48
1, 464083, Control_c, 0, 67, 23
1, 464095, Note_off_c, 0, 67, 59
1, 464098, Control_c, 0, 67, 25
1, 464113, Control_c, 0, 67, 28
1, 464128, Control_c, 0, 67, 30
1, 464142, Control_c, 0, 67, 33
1, 464157, Control_c, 0, 67, 35
1, 464172, Control_c, 0, 67, 36
1, 464173, Note_off_c, 0, 62, 51
1, 464195, Control_c, 0, 67, 38
1, 464198, Note_on_c, 0, 76, 64
1, 464206, Note_on_c, 0, 64, 55
1, 464206, Note_off_c, 0, 59, 38
1, 464210, Control_c, 0, 67, 40
1, 464216, Note_on_c, 0, 74, 49
1, 464224, Control_c, 0, 67, 42
1, 464239, Control_c, 0, 67, 43
1, 464254, Control_c, 0, 67, 45
1, 464268, Control_c, 0, 67, 47
1, 464269, Note_off_c, 0, 64, 60
1, 464283, Control_c, 0, 67, 50
1, 464298, Control_c, 0, 67, 53
1, 464313, Control_c, 0, 67, 56
1, 464328, Control_c, 0, 67, 60
1, 464342, Control_c, 0, 67, 62
1, 464357, Control_c, 0, 67, 65
1, 464360, Note_off_c, 0, 74, 31
1, 464372, Control_c, 0, 67, 68
1, 464373, Note_on_c, 0, 64, 59
1, 464387, Control_c, 0, 67, 72
1, 464402, Control_c, 0, 67, 76
1, 464417, Control_c, 0, 67, 79
1, 464431, Control_c, 0, 67, 81
1, 464446, Control_c, 0, 67, 85
1, 464462, Control_c, 0, 67, 88
1, 464477, Control_c, 0, 67, 91
1, 464491, Control_c, 0, 67, 96
1, 464495, Note_on_c, 0, 40, 50
1, 464506, Control_c, 0, 67, 100
1, 464521, Control_c, 0, 67, 106
1, 464536, Control_c, 0, 67, 114
1, 464551, Control_c, 0, 67, 119
1, 464566, Control_c, 0, 64, 99
1, 464566, Control_c, 0, 67, 122
1, 464580, Control_c, 0, 64, 79
1, 464580, Control_c, 0, 67, 126
1, 464595, Control_c, 0, 64, 62
1, 464595, Control_c, 0, 67, 127
1, 464610, Control_c, 0, 64, 0
1, 464670, Control_c, 0, 64, 58
1, 464685, Control_c, 0, 64, 73
1, 464699, Control_c, 0, 64, 97
1, 464706, Note_off_c, 0, 40, 57
1, 464707, Note_on_c, 0, 47, 36
1, 464714, Control_c, 0, 64, 127
1, 464851, Note_on_c, 0, 55, 45
1, 464862, Note_off_c, 0, 47, 41
1, 464863, Note_off_c, 0, 76, 54
1, 464876, Note_off_c, 0, 64, 57
1, 464895, Note_off_c, 0, 55, 61
1, 464919, Note_on_c, 0, 71, 48
1, 464976, Note_off_c, 0, 71, 61
1, 465008, Note_on_c, 0, 76, 56
1, 465047, Note_off_c, 0, 76, 63
1, 465102, Note_on_c, 0, 74, 51
1, 465183, Note_off_c, 0, 74, 57
1, 465186, Note_on_c, 0, 76, 56
1, 465192, Note_on_c, 0, 62, 17
1, 465223, Note_off_c, 0, 76, 61
1, 465254, Note_on_c, 0, 71, 41
1, 465260, Note_on_c, 0, 67, 39
1, 465373, Note_off_c, 0, 62, 38
1, 465448, Note_on_c, 0, 86, 67
1, 465532, Note_off_c, 0, 86, 59
1, 465534, Note_off_c, 0, 71, 37
1, 465842, Note_on_c, 0, 64, 32
1, 465848, Note_on_c, 0, 72, 40
1, 465942, Note_off_c, 0, 72, 56
1, 465965, Note_off_c, 0, 64, 42
1, 466110, Note_on_c, 0, 71, 44
1, 466128, Note_on_c, 0, 62, 29
1, 466139, Note_off_c, 0, 71, 59
1, 466157, Note_off_c, 0, 67, 41
1, 466342, Note_on_c, 0, 74, 46
1, 466350, Note_on_c, 0, 67, 32
1, 466374, Note_off_c, 0, 62, 40
1, 466381, Note_on_c, 0, 71, 33
1, 466413, Note_off_c, 0, 67, 42
1, 466530, Note_off_c, 0, 71, 26
1, 466583, Note_on_c, 0, 66, 51
1, 466595, Note_on_c, 0, 69, 45
1, 466602, Note_on_c, 0, 60, 41
1, 466604, Control_c, 0, 64, 97
1, 466613, Note_off_c, 0, 74, 24
1, 466619, Control_c, 0, 64, 85
1, 466634, Control_c, 0, 64, 84
1, 466649, Control_c, 0, 64, 88
1, 466663, Control_c, 0, 64, 95
1, 466678, Control_c, 0, 64, 106
1, 466693, Control_c, 0, 64, 127
1, 466721, Note_off_c, 0, 69, 45
1, 466817, Note_off_c, 0, 60, 52
1, 466826, Control_c, 0, 67, 127
1, 466857, Control_c, 0, 67, 126
1, 466886, Control_c, 0, 67, 126
1, 466888, Note_on_c, 0, 71, 50
1, 466894, Note_on_c, 0, 62, 35
1, 466916, Control_c, 0, 67, 125
1, 466929, Note_off_c, 0, 71, 61
1, 466938, Note_off_c, 0, 62, 54
1, 467004, Control_c, 0, 67, 125
1, 467079, Control_c, 0, 67, 124
1, 467105, Note_on_c, 0, 69, 46
1, 467107, Note_on_c, 0, 60, 37
1, 467114, Note_off_c, 0, 66, 58
1, 467139, Control_c, 0, 67, 124
1, 467153, Control_c, 0, 67, 123
1, 467191, Control_c, 0, 67, 122
1, 467206, Control_c, 0, 67, 120
1, 467220, Control_c, 0, 67, 118
1, 467235, Control_c, 0, 67, 117
1, 467250, Control_c, 0, 67, 115
1, 467255, Note_off_c, 0, 69, 30
1, 467265, Control_c, 0, 67, 114
1, 467280, Control_c, 0, 67, 112
1, 467294, Control_c, 0, 67, 110
1, 467309, Control_c, 0, 67, 107
1, 467319, Note_on_c, 0, 74, 50
1, 467324, Control_c, 0, 67, 105
1, 467329, Note_on_c, 0, 66, 39
1, 467334, Note_on_c, 0, 71, 39
1, 467339, Control_c, 0, 67, 102
1, 467354, Control_c, 0, 67, 100
1, 467368, Control_c, 0, 67, 97
1, 467378, Note_off_c, 0, 60, 43
1, 467381, Note_off_c, 0, 66, 44
1, 467383, Control_c, 0, 67, 93
1, 467398, Control_c, 0, 67, 90
1, 467412, Control_c, 0, 67, 87
1, 467427, Control_c, 0, 67, 84
1, 467442, Control_c, 0, 67, 81
1, 467457, Control_c, 0, 67, 78
1, 467472, Control_c, 0, 67, 74
1, 467487, Control_c, 0, 67, 72
1, 467502, Control_c, 0, 67, 70
1, 467517, Control_c, 0, 67, 68
1, 467517, Note_off_c, 0, 71, 40
1, 467532, Control_c, 0, 67, 66
1, 467546, Control_c, 0, 64, 110
1, 467546, Control_c, 0, 67, 64
1, 467552, Note_on_c, 0, 59, 51
1, 467558, Note_on_c, 0, 64, 54
1, 467558, Note_on_c, 0, 67, 48
1, 467561, Control_c, 0, 64, 95
1, 467561, Control_c, 0, 67, 62
1, 467576, Control_c, 0, 64, 85
1, 467576, Control_c, 0, 67, 61
1, 467591, Control_c, 0, 64, 81
1, 467591, Control_c, 0, 67, 59
1, 467606, Control_c, 0, 64, 83
1, 467606, Control_c, 0, 67, 57
1, 467620, Control_c, 0, 64, 91
1, 467620, Control_c, 0, 67, 54
1, 467635, Control_c, 0, 64, 105
1, 467635, Control_c, 0, 67, 51
1, 467650, Control_c, 0, 64, 127
1, 467650, Control_c, 0, 67, 48
1, 467666, Control_c, 0, 67, 44
1, 467681, Control_c, 0, 67, 41
1, 467696, Control_c, 0, 67, 39
1, 467709, Note_off_c, 0, 59, 56
1, 467710, Control_c, 0, 67, 37
1, 467710, Note_off_c, 0, 67, 57
1, 467725, Control_c, 0, 67, 36
1, 467740, Control_c, 0, 67, 33
1, 467755, Control_c, 0, 67, 31
1, 467770, Control_c, 0, 67, 29
1, 467784, Control_c, 0, 67, 27
1, 467799, Control_c, 0, 67, 25
1, 467814, Control_c, 0, 67, 23
1, 467828, Control_c, 0, 67, 21
1, 467843, Control_c, 0, 67, 19
1, 467854, Note_on_c, 0, 69, 54
1, 467858, Control_c, 0, 67, 16
1, 467864, Note_on_c, 0, 60, 46
1, 467869, Note_off_c, 0, 74, 5
1, 467873, Control_c, 0, 67, 14
1, 467888, Control_c, 0, 67, 12
1, 467902, Control_c, 0, 67, 11
1, 467917, Control_c, 0, 67, 9
1, 467937, Note_off_c, 0, 69, 59
1, 467940, Control_c, 0, 67, 0
1, 467949, Note_off_c, 0, 60, 60
1, 468081, Note_off_c, 0, 64, 57
1, 468086, Note_on_c, 0, 67, 58
1, 468094, Note_on_c, 0, 59, 46
1, 468153, Note_off_c, 0, 67, 54
1, 468284, Note_off_c, 0, 59, 38
1, 468310, Note_on_c, 0, 74, 70
1, 468317, Note_on_c, 0, 71, 55
1, 468333, Note_on_c, 0, 64, 45
1, 468406, Note_off_c, 0, 64, 0
1, 468406, Note_on_c, 0, 64, 17
1, 468488, Note_on_c, 0, 45, 48
1, 468539, Note_on_c, 0, 52, 55
1, 468544, Note_off_c, 0, 74, 58
1, 468611, Note_off_c, 0, 64, 42
1, 468703, Control_c, 0, 64, 106
1, 468714, Note_on_c, 0, 59, 53
1, 468718, Control_c, 0, 64, 92
1, 468732, Control_c, 0, 64, 81
1, 468747, Control_c, 0, 64, 70
1, 468750, Note_on_c, 0, 76, 80
1, 468761, Note_on_c, 0, 67, 59
1, 468762, Control_c, 0, 64, 65
1, 468775, Note_on_c, 0, 64, 37
1, 468777, Control_c, 0, 64, 64
1, 468792, Control_c, 0, 64, 67
1, 468806, Control_c, 0, 64, 74
1, 468821, Control_c, 0, 64, 84
1, 468836, Control_c, 0, 64, 115
1, 468851, Control_c, 0, 64, 127
1, 468936, Note_off_c, 0, 59, 58
1, 468940, Note_off_c, 0, 45, 44
1, 469003, Note_off_c, 0, 64, 40
1, 469108, Note_on_c, 0, 69, 61
1, 469114, Note_on_c, 0, 61, 70
1, 469120, Note_on_c, 0, 64, 49
1, 469174, Note_off_c, 0, 67, 55
1, 469218, Note_off_c, 0, 61, 58
1, 469251, Note_off_c, 0, 64, 59
1, 469359, Note_on_c, 0, 59, 77
1, 469362, Note_off_c, 0, 52, 61
1, 469381, Note_on_c, 0, 64, 62
1, 469382, Note_on_c, 0, 67, 60
1, 469410, Note_off_c, 0, 59, 62
1, 469431, Note_off_c, 0, 76, 46
1, 469508, Note_off_c, 0, 71, 39
1, 469571, Note_off_c, 0, 64, 56
1, 469591, Note_on_c, 0, 62, 46
1, 469595, Note_on_c, 0, 66, 63
1, 469639, Note_on_c, 0, 57, 61
1, 469668, Note_off_c, 0, 62, 46
1, 469677, Note_off_c, 0, 66, 60
1, 469701, Note_on_c, 0, 74, 85
1, 469714, Note_on_c, 0, 64, 61
1, 469716, Note_off_c, 0, 57, 59
1, 469744, Note_on_c, 0, 71, 41
1, 469749, Note_off_c, 0, 64, 62
1, 469761, Note_off_c, 0, 67, 48
1, 469788, Note_off_c, 0, 69, 35
1, 469848, Note_on_c, 0, 62, 71
1, 469988, Note_on_c, 0, 38, 72
1, 470029, Control_c, 0, 64, 98
1, 470044, Control_c, 0, 64, 71
1, 470060, Control_c, 0, 64, 0
1, 470075, Control_c, 0, 64, 29
1, 470090, Control_c, 0, 64, 67
1, 470104, Control_c, 0, 64, 86
1, 470119, Control_c, 0, 64, 127
1, 470197, Note_off_c, 0, 38, 61
1, 470208, Note_on_c, 0, 45, 68
1, 470303, Note_on_c, 0, 54, 71
1, 470323, Note_off_c, 0, 45, 54
1, 470340, Note_off_c, 0, 74, 49
1, 470349, Note_off_c, 0, 62, 62
1, 470369, Note_on_c, 0, 69, 72
1, 470375, Note_off_c, 0, 54, 65
1, 470406, Note_off_c, 0, 71, 23
1, 470462, Note_off_c, 0, 69, 62
1, 470474, Note_on_c, 0, 74, 82
1, 470513, Note_off_c, 0, 74, 67
1, 470578, Note_on_c, 0, 74, 79
1, 470599, Note_on_c, 0, 76, 57
1, 470675, Note_on_c, 0, 81, 80
1, 470730, Note_off_c, 0, 76, 21
1, 470780, Note_on_c, 0, 69, 64
1, 470798, Note_on_c, 0, 66, 55
1, 470801, Note_on_c, 0, 62, 52
1, 470939, Note_on_c, 0, 86, 90
1, 470983, Note_off_c, 0, 69, 53
1, 470996, Note_off_c, 0, 81, 51
1, 471058, Note_off_c, 0, 66, 53
1, 471311, Note_off_c, 0, 62, 59
1, 471356, Note_on_c, 0, 61, 69
1, 471356, Note_on_c, 0, 71, 72
1, 471359, Note_on_c, 0, 66, 62
1, 471371, Note_on_c, 0, 76, 58
1, 471440, Note_off_c, 0, 74, 39
1, 471606, Note_on_c, 0, 81, 4
1, 471621, Note_off_c, 0, 71, 52
1, 471785, Note_on_c, 0, 69, 64
1, 471791, Note_on_c, 0, 62, 61
1, 471801, Note_off_c, 0, 86, 57
1, 471818, Note_off_c, 0, 61, 52
1, 471821, Note_on_c, 0, 74, 67
1, 471911, Note_off_c, 0, 76, 55
1, 472083, Control_c, 0, 64, 101
1, 472098, Control_c, 0, 64, 85
1, 472113, Control_c, 0, 64, 80
1, 472115, Note_off_c, 0, 81, 43
1, 472128, Control_c, 0, 64, 80
1, 472143, Control_c, 0, 64, 83
1, 472147, Note_on_c, 0, 83, 82
1, 472158, Control_c, 0, 64, 90
1, 472164, Note_on_c, 0, 76, 59
1, 472173, Control_c, 0, 64, 103
1, 472188, Control_c, 0, 64, 127
1, 472265, Note_off_c, 0, 74, 53
1, 472345, Note_off_c, 0, 69, 51
1, 472356, Note_off_c, 0, 66, 56
1, 472474, Note_off_c, 0, 76, 58
1, 472476, Note_off_c, 0, 62, 53
1, 472480, Note_on_c, 0, 74, 63
1, 472483, Note_on_c, 0, 60, 59
1, 472484, Note_on_c, 0, 71, 65
1, 472489, Note_on_c, 0, 66, 59
1, 472572, Note_off_c, 0, 71, 58
1, 472641, Note_off_c, 0, 60, 55
1, 472713, Note_on_c, 0, 62, 64
1, 472715, Note_on_c, 0, 81, 82
1, 472721, Note_on_c, 0, 69, 62
1, 472727, Note_on_c, 0, 76, 53
1, 472753, Note_off_c, 0, 74, 60
1, 472768, Note_off_c, 0, 83, 63
1, 472805, Note_off_c, 0, 76, 54
1, 472936, Control_c, 0, 64, 99
1, 472950, Control_c, 0, 64, 82
1, 472965, Control_c, 0, 64, 70
1, 472966, Note_on_c, 0, 86, 88
1, 472980, Control_c, 0, 64, 65
1, 472984, Note_on_c, 0, 79, 48
1, 472987, Note_on_c, 0, 74, 69
1, 472993, Note_off_c, 0, 66, 34
1, 472995, Control_c, 0, 64, 67
1, 473010, Control_c, 0, 64, 76
1, 473024, Control_c, 0, 64, 90
1, 473025, Note_off_c, 0, 79, 58
1, 473039, Control_c, 0, 64, 127
1, 473066, Note_off_c, 0, 69, 51
1, 473085, Note_off_c, 0, 81, 31
1, 473143, Note_off_c, 0, 74, 62
1, 473153, Note_off_c, 0, 62, 59
1, 473209, Note_on_c, 0, 59, 55
1, 473214, Note_on_c, 0, 66, 53
1, 473219, Note_on_c, 0, 71, 54
1, 473227, Note_on_c, 0, 76, 48
1, 473307, Note_off_c, 0, 71, 59
1, 473434, Note_on_c, 0, 62, 59
1, 473435, Note_on_c, 0, 69, 64
1, 473447, Note_on_c, 0, 74, 65
1, 473484, Note_off_c, 0, 86, 52
1, 473491, Note_off_c, 0, 76, 37
1, 473636, Note_off_c, 0, 62, 59
1, 473654, Note_off_c, 0, 59, 43
1, 473655, Control_c, 0, 64, 123
1, 473670, Control_c, 0, 64, 99
1, 473675, Note_on_c, 0, 79, 85
1, 473685, Control_c, 0, 64, 87
1, 473694, Note_on_c, 0, 76, 60
1, 473694, Note_off_c, 0, 69, 37
1, 473700, Control_c, 0, 64, 82
1, 473713, Note_off_c, 0, 74, 62
1, 473715, Control_c, 0, 64, 80
1, 473729, Control_c, 0, 64, 82
1, 473744, Control_c, 0, 64, 87
1, 473759, Control_c, 0, 64, 96
1, 473774, Control_c, 0, 64, 110
1, 473780, Note_off_c, 0, 66, 51
1, 473784, Note_off_c, 0, 76, 0
1, 473784, Note_on_c, 0, 76, 23
1, 473788, Control_c, 0, 64, 127
1, 473903, Note_on_c, 0, 71, 63
1, 473911, Note_off_c, 0, 76, 46
1, 473915, Note_on_c, 0, 62, 45
1, 473925, Note_on_c, 0, 74, 67
1, 473926, Note_on_c, 0, 57, 45
1, 474003, Control_c, 0, 67, 8
1, 474015, Note_off_c, 0, 71, 57
1, 474018, Control_c, 0, 67, 11
1, 474033, Control_c, 0, 67, 14
1, 474049, Control_c, 0, 67, 16
1, 474064, Control_c, 0, 67, 17
1, 474138, Control_c, 0, 67, 17
1, 474182, Control_c, 0, 67, 18
1, 474185, Note_off_c, 0, 74, 57
1, 474189, Note_on_c, 0, 66, 61
1, 474191, Note_on_c, 0, 78, 78
1, 474200, Note_on_c, 0, 69, 60
1, 474212, Control_c, 0, 67, 17
1, 474239, Note_off_c, 0, 79, 62
1, 474256, Control_c, 0, 67, 17
1, 474278, Poly_aftertouch_c, 0, 76, 0
1, 474286, Control_c, 0, 67, 16
1, 474316, Control_c, 0, 67, 16
1, 474331, Control_c, 0, 67, 15
1, 474360, Control_c, 0, 67, 15
1, 474386, Note_off_c, 0, 78, 63
1, 474404, Control_c, 0, 67, 14
1, 474464, Control_c, 0, 67, 15
1, 474478, Control_c, 0, 67, 15
1, 474508, Control_c, 0, 64, 86
1, 474510, Note_on_c, 0, 86, 81
1, 474523, Control_c, 0, 64, 63
1, 474523, Control_c, 0, 67, 16
1, 474533, Note_on_c, 0, 74, 44
1, 474538, Control_c, 0, 64, 0
1, 474567, Control_c, 0, 67, 15
1, 474582, Control_c, 0, 64, 70
1, 474582, Control_c, 0, 67, 15
1, 474596, Control_c, 0, 64, 99
1, 474596, Control_c, 0, 67, 14
1, 474601, Note_off_c, 0, 74, 0
1, 474611, Control_c, 0, 64, 127
1, 474611, Control_c, 0, 67, 14
1, 474628, Note_off_c, 0, 69, 56
1, 474631, Note_on_c, 0, 74, 15
1, 474641, Control_c, 0, 67, 13
1, 474650, Note_off_c, 0, 62, 22
1, 474656, Control_c, 0, 67, 13
1, 474678, Control_c, 0, 67, 12
1, 474689, Note_off_c, 0, 86, 63
1, 474692, Note_off_c, 0, 74, 0
1, 474692, Note_on_c, 0, 74, 5
1, 474693, Control_c, 0, 67, 11
1, 474699, Note_off_c, 0, 66, 61
1, 474708, Control_c, 0, 67, 11
1, 474722, Control_c, 0, 67, 10
1, 474730, Note_off_c, 0, 74, 62
1, 474737, Control_c, 0, 67, 9
1, 474752, Control_c, 0, 67, 8
1, 474762, Note_off_c, 0, 57, 62
1, 474767, Control_c, 0, 67, 0
1, 474874, Note_on_c, 0, 59, 54
1, 474901, Note_on_c, 0, 54, 46
1, 474924, Note_on_c, 0, 67, 63
1, 474947, Note_on_c, 0, 64, 44
1, 475144, Note_off_c, 0, 59, 49
1, 475174, Note_off_c, 0, 64, 39
1, 475243, Note_on_c, 0, 66, 62
1, 475255, Note_on_c, 0, 62, 39
1, 475272, Note_off_c, 0, 67, 54
1, 475274, Note_on_c, 0, 57, 60
1, 475319, Note_off_c, 0, 62, 58
1, 475334, Note_off_c, 0, 66, 62
1, 475514, Note_on_c, 0, 76, 76
1, 475538, Note_on_c, 0, 59, 67
1, 475583, Note_off_c, 0, 76, 61
1, 475601, Note_off_c, 0, 57, 59
1, 475777, Note_on_c, 0, 67, 62
1, 475798, Note_on_c, 0, 57, 60
1, 475807, Note_on_c, 0, 64, 23
1, 475814, Note_on_c, 0, 50, 58
1, 475845, Note_off_c, 0, 59, 37
1, 475848, Note_off_c, 0, 64, 51
1, 475899, Note_off_c, 0, 67, 60
1, 476006, Control_c, 0, 64, 101
1, 476021, Control_c, 0, 64, 87
1, 476022, Note_off_c, 0, 54, 47
1, 476033, Note_on_c, 0, 74, 80
1, 476036, Control_c, 0, 64, 77
1, 476049, Control_c, 0, 64, 71
1, 476052, Note_on_c, 0, 66, 50
1, 476063, Note_on_c, 0, 59, 52
1, 476064, Note_on_c, 0, 62, 27
1, 476064, Control_c, 0, 64, 70
1, 476079, Control_c, 0, 64, 73
1, 476094, Control_c, 0, 64, 77
1, 476099, Note_off_c, 0, 62, 53
1, 476109, Control_c, 0, 64, 85
1, 476123, Control_c, 0, 64, 95
1, 476138, Control_c, 0, 64, 110
1, 476153, Note_off_c, 0, 66, 63
1, 476153, Control_c, 0, 64, 127
1, 476175, Control_c, 0, 67, 9
1, 476190, Control_c, 0, 67, 11
1, 476205, Control_c, 0, 67, 14
1, 476209, Note_off_c, 0, 74, 64
1, 476213, Note_off_c, 0, 57, 62
1, 476220, Control_c, 0, 67, 17
1, 476235, Control_c, 0, 67, 20
1, 476249, Control_c, 0, 67, 23
1, 476264, Control_c, 0, 67, 26
1, 476279, Control_c, 0, 67, 29
1, 476294, Control_c, 0, 67, 32
1, 476309, Control_c, 0, 67, 35
1, 476323, Control_c, 0, 67, 38
1, 476338, Control_c, 0, 67, 40
1, 476353, Control_c, 0, 64, 106
1, 476353, Control_c, 0, 67, 43
1, 476367, Control_c, 0, 64, 92
1, 476367, Control_c, 0, 67, 45
1, 476382, Note_on_c, 0, 57, 59
1, 476382, Control_c, 0, 64, 82
1, 476382, Control_c, 0, 67, 47
1, 476397, Control_c, 0, 64, 73
1, 476397, Control_c, 0, 67, 48
1, 476412, Control_c, 0, 64, 69
1, 476412, Control_c, 0, 67, 49
1, 476416, Note_on_c, 0, 86, 78
1, 476427, Control_c, 0, 64, 69
1, 476427, Control_c, 0, 67, 50
1, 476443, Control_c, 0, 64, 73
1, 476443, Control_c, 0, 67, 51
1, 476458, Control_c, 0, 64, 78
1, 476458, Control_c, 0, 67, 52
1, 476472, Control_c, 0, 64, 84
1, 476472, Control_c, 0, 67, 54
1, 476480, Note_off_c, 0, 59, 38
1, 476487, Control_c, 0, 64, 90
1, 476487, Control_c, 0, 67, 56
1, 476502, Control_c, 0, 64, 97
1, 476502, Control_c, 0, 67, 58
1, 476517, Control_c, 0, 64, 102
1, 476517, Control_c, 0, 67, 61
1, 476532, Control_c, 0, 64, 104
1, 476532, Control_c, 0, 67, 64
1, 476546, Control_c, 0, 64, 104
1, 476546, Control_c, 0, 67, 66
1, 476561, Control_c, 0, 64, 105
1, 476561, Control_c, 0, 67, 69
1, 476575, Note_off_c, 0, 86, 64
1, 476576, Control_c, 0, 64, 106
1, 476576, Control_c, 0, 67, 72
1, 476590, Note_off_c, 0, 50, 37
1, 476591, Control_c, 0, 64, 107
1, 476591, Control_c, 0, 67, 74
1, 476605, Control_c, 0, 64, 107
1, 476605, Control_c, 0, 67, 76
1, 476617, Note_off_c, 0, 57, 63
1, 476620, Control_c, 0, 67, 78
1, 476635, Control_c, 0, 67, 80
1, 476650, Control_c, 0, 67, 82
1, 476665, Control_c, 0, 67, 84
1, 476680, Control_c, 0, 67, 86
1, 476695, Control_c, 0, 67, 88
1, 476710, Control_c, 0, 67, 90
1, 476725, Control_c, 0, 64, 107
1, 476725, Control_c, 0, 67, 91
1, 476740, Control_c, 0, 64, 106
1, 476740, Control_c, 0, 67, 92
1, 476754, Control_c, 0, 64, 105
1, 476754, Control_c, 0, 67, 94
1, 476755, Note_on_c, 0, 59, 56
1, 476764, Note_on_c, 0, 45, 46
1, 476768, Note_on_c, 0, 50, 46
1, 476769, Control_c, 0, 64, 103
1, 476769, Control_c, 0, 67, 95
1, 476784, Control_c, 0, 64, 100
1, 476784, Control_c, 0, 67, 96
1, 476798, Control_c, 0, 64, 95
1, 476798, Control_c, 0, 67, 97
1, 476813, Control_c, 0, 64, 87
1, 476813, Control_c, 0, 67, 98
1, 476828, Note_on_c, 0, 67, 57
1, 476828, Control_c, 0, 64, 80
1, 476828, Control_c, 0, 67, 98
1, 476843, Control_c, 0, 64, 77
1, 476843, Control_c, 0, 67, 99
1, 476858, Control_c, 0, 64, 77
1, 476860, Note_on_c, 0, 64, 38
1, 476872, Control_c, 0, 64, 79
1, 476872, Control_c, 0, 67, 99
1, 476887, Control_c, 0, 64, 82
1, 476887, Control_c, 0, 67, 100
1, 476902, Control_c, 0, 64, 84
1, 476924, Control_c, 0, 64, 88
1, 476924, Control_c, 0, 67, 100
1, 476939, Control_c, 0, 64, 91
1, 476954, Control_c, 0, 64, 92
1, 476954, Control_c, 0, 67, 101
1, 476969, Control_c, 0, 67, 101
1, 476998, Control_c, 0, 67, 102
1, 477013, Control_c, 0, 67, 102
1, 477016, Note_off_c, 0, 59, 59
1, 477028, Control_c, 0, 67, 103
1, 477043, Control_c, 0, 67, 104
1, 477058, Control_c, 0, 67, 104
1, 477072, Control_c, 0, 67, 105
1, 477087, Control_c, 0, 64, 91
1, 477087, Control_c, 0, 67, 106
1, 477102, Control_c, 0, 64, 87
1, 477102, Control_c, 0, 67, 106
1, 477117, Control_c, 0, 64, 81
1, 477117, Control_c, 0, 67, 107
1, 477131, Control_c, 0, 64, 75
1, 477131, Control_c, 0, 67, 107
1, 477136, Note_off_c, 0, 64, 54
1, 477146, Control_c, 0, 64, 72
1, 477146, Control_c, 0, 67, 108
1, 477150, Note_on_c, 0, 57, 55
1, 477157, Note_on_c, 0, 66, 54
1, 477161, Control_c, 0, 64, 73
1, 477161, Control_c, 0, 67, 109
1, 477175, Note_on_c, 0, 62, 38
1, 477176, Control_c, 0, 64, 75
1, 477176, Control_c, 0, 67, 110
1, 477190, Control_c, 0, 64, 78
1, 477190, Control_c, 0, 67, 110
1, 477205, Control_c, 0, 64, 82
1, 477205, Control_c, 0, 67, 111
1, 477220, Control_c, 0, 64, 85
1, 477220, Control_c, 0, 67, 112
1, 477235, Control_c, 0, 64, 88
1, 477235, Control_c, 0, 67, 113
1, 477251, Control_c, 0, 64, 90
1, 477251, Control_c, 0, 67, 114
1, 477266, Control_c, 0, 64, 91
1, 477266, Control_c, 0, 67, 115
1, 477281, Control_c, 0, 67, 117
1, 477295, Control_c, 0, 64, 91
1, 477295, Control_c, 0, 67, 118
1, 477310, Control_c, 0, 67, 119
1, 477325, Control_c, 0, 67, 121
1, 477340, Control_c, 0, 67, 122
1, 477355, Control_c, 0, 67, 124
1, 477369, Control_c, 0, 67, 125
1, 477384, Control_c, 0, 64, 91
1, 477384, Control_c, 0, 67, 127
1, 477399, Control_c, 0, 67, 127
1, 477424, Note_off_c, 0, 62, 41
1, 477428, Control_c, 0, 64, 90
1, 477437, Note_off_c, 0, 45, 44
1, 477443, Control_c, 0, 64, 89
1, 477462, Note_off_c, 0, 67, 25
1, 477488, Control_c, 0, 64, 89
1, 477503, Control_c, 0, 64, 88
1, 477518, Control_c, 0, 64, 88
1, 477532, Control_c, 0, 64, 87
1, 477562, Control_c, 0, 64, 87
1, 477577, Control_c, 0, 64, 86
1, 477581, Note_off_c, 0, 57, 34
1, 477592, Control_c, 0, 64, 85
1, 477603, Note_on_c, 0, 72, 59
1, 477607, Control_c, 0, 64, 85
1, 477621, Control_c, 0, 64, 84
1, 477628, Note_on_c, 0, 60, 38
1, 477651, Control_c, 0, 64, 83
1, 477672, Note_off_c, 0, 66, 48
1, 477673, Control_c, 0, 64, 82
1, 477688, Control_c, 0, 64, 80
1, 477702, Note_off_c, 0, 50, 38
1, 477702, Control_c, 0, 64, 80
1, 477728, Note_on_c, 0, 43, 38
1, 477762, Control_c, 0, 64, 79
1, 477777, Control_c, 0, 64, 79
1, 477792, Control_c, 0, 64, 78
1, 477807, Control_c, 0, 64, 78
1, 477836, Control_c, 0, 64, 77
1, 477851, Control_c, 0, 64, 77
1, 477866, Control_c, 0, 64, 76
1, 477881, Control_c, 0, 64, 75
1, 477888, Note_on_c, 0, 50, 50
1, 477895, Control_c, 0, 64, 75
1, 477910, Control_c, 0, 64, 74
1, 477925, Control_c, 0, 64, 73
1, 477940, Control_c, 0, 64, 72
1, 477954, Control_c, 0, 64, 71
1, 477969, Control_c, 0, 64, 70
1, 477984, Control_c, 0, 64, 68
1, 477999, Control_c, 0, 64, 67
1, 478013, Control_c, 0, 64, 66
1, 478028, Control_c, 0, 64, 65
1, 478044, Control_c, 0, 64, 65
1, 478059, Control_c, 0, 64, 64
1, 478074, Control_c, 0, 64, 64
1, 478133, Control_c, 0, 64, 61
1, 478148, Control_c, 0, 64, 49
1, 478162, Control_c, 0, 64, 0
1, 478193, Note_on_c, 0, 58, 57
1, 478213, Note_on_c, 0, 64, 30
1, 478221, Note_on_c, 0, 67, 42
1, 478400, Control_c, 0, 64, 58
1, 478422, Control_c, 0, 64, 66
1, 478437, Control_c, 0, 64, 71
1, 478451, Control_c, 0, 64, 74
1, 478466, Control_c, 0, 64, 79
1, 478481, Control_c, 0, 64, 84
1, 478496, Control_c, 0, 64, 90
1, 478511, Control_c, 0, 64, 97
1, 478525, Control_c, 0, 64, 103
1, 478540, Control_c, 0, 64, 109
1, 478547, Poly_aftertouch_c, 0, 45, 127
1, 478555, Control_c, 0, 64, 117
1, 478570, Control_c, 0, 64, 127
1, 478603, Note_off_c, 0, 72, 46
1, 478618, Note_off_c, 0, 60, 49
1, 478693, Note_off_c, 0, 58, 42
1, 478712, Note_off_c, 0, 64, 38
1, 478721, Note_on_c, 0, 52, 42
1, 478798, Note_off_c, 0, 67, 40
1, 478802, Note_on_c, 0, 70, 55
1, 478811, Note_off_c, 0, 50, 32
1, 478820, Note_on_c, 0, 66, 25
1, 478839, Note_on_c, 0, 62, 30
1, 478864, Note_off_c, 0, 66, 48
1, 478874, Poly_aftertouch_c, 0, 45, 0
1, 478926, Note_off_c, 0, 52, 29
1, 479048, Note_off_c, 0, 43, 38
1, 479168, Note_off_c, 0, 70, 32
1, 479391, Note_off_c, 0, 62, 7
1, 479484, Note_on_c, 0, 26, 45
1, 479555, Control_c, 0, 64, 118
1, 479570, Control_c, 0, 64, 110
1, 479585, Control_c, 0, 64, 104
1, 479599, Control_c, 0, 64, 99
1, 479605, Note_on_c, 0, 57, 41
1, 479614, Control_c, 0, 64, 93
1, 479629, Control_c, 0, 64, 86
1, 479645, Control_c, 0, 64, 78
1, 479660, Control_c, 0, 64, 69
1, 479675, Control_c, 0, 64, 59
1, 479689, Control_c, 0, 64, 0
1, 479794, Control_c, 0, 64, 59
1, 479808, Control_c, 0, 64, 68
1, 479823, Control_c, 0, 64, 75
1, 479838, Control_c, 0, 64, 84
1, 479853, Control_c, 0, 64, 95
1, 479868, Control_c, 0, 64, 112
1, 479882, Control_c, 0, 64, 127
1, 479905, Note_on_c, 0, 62, 36
1, 479928, Note_off_c, 0, 57, 37
1, 480005, Note_off_c, 0, 62, 55
1, 480036, Note_on_c, 0, 66, 48
1, 480067, Note_off_c, 0, 66, 64
1, 480071, Note_off_c, 0, 26, 41
1, 480139, Note_on_c, 0, 38, 42
1, 480141, Note_on_c, 0, 69, 50
1, 480181, Note_off_c, 0, 69, 45
1, 480201, Note_off_c, 0, 38, 54
1, 480239, Note_on_c, 0, 74, 52
1, 480290, Note_off_c, 0, 74, 59
1, 480333, Note_on_c, 0, 78, 51
1, 480365, Note_off_c, 0, 78, 59
1, 480540, Note_on_c, 0, 86, 51
1, 480803, Note_on_c, 0, 45, 32
1, 480876, Control_c, 0, 64, 124
1, 480891, Control_c, 0, 64, 120
1, 480896, Note_on_c, 0, 88, 54
1, 480905, Note_off_c, 0, 86, 46
1, 480906, Control_c, 0, 64, 118
1, 480920, Control_c, 0, 64, 117
1, 480935, Control_c, 0, 64, 116
1, 480950, Control_c, 0, 64, 115
1, 480964, Control_c, 0, 64, 115
1, 480979, Control_c, 0, 64, 114
1, 480994, Control_c, 0, 64, 114
1, 481009, Control_c, 0, 64, 113
1, 481062, Note_off_c, 0, 45, 41
1, 481081, Note_off_c, 0, 88, 38
1, 481083, Control_c, 0, 64, 113
1, 481142, Note_on_c, 0, 79, 48
1, 481148, Note_on_c, 0, 52, 33
1, 481168, Note_on_c, 0, 86, 42
1, 481178, Note_on_c, 0, 74, 25
1, 481206, Note_off_c, 0, 79, 0
1, 481206, Note_on_c, 0, 79, 18
1, 481333, Note_off_c, 0, 79, 51
1, 481342, Note_on_c, 0, 45, 41
1, 481369, Note_on_c, 0, 88, 55
1, 481376, Note_off_c, 0, 74, 41
1, 481381, Note_off_c, 0, 52, 39
1, 481399, Note_off_c, 0, 86, 44
1, 481525, Note_off_c, 0, 45, 28
1, 481538, Note_on_c, 0, 54, 52
1, 481548, Note_on_c, 0, 81, 54
1, 481554, Note_on_c, 0, 74, 49
1, 481557, Note_off_c, 0, 88, 39
1, 481569, Note_on_c, 0, 86, 50
1, 481618, Note_off_c, 0, 54, 52
1, 481655, Note_off_c, 0, 74, 49
1, 481664, Note_off_c, 0, 81, 56
1, 481678, Note_on_c, 0, 50, 46
1, 481682, Note_on_c, 0, 88, 65
1, 481703, Note_off_c, 0, 86, 46
1, 481762, Note_off_c, 0, 50, 57
1, 481810, Note_on_c, 0, 81, 56
1, 481817, Note_on_c, 0, 57, 50
1, 481818, Note_on_c, 0, 74, 54
1, 481825, Note_off_c, 0, 88, 60
1, 481837, Note_on_c, 0, 86, 47
1, 481894, Note_off_c, 0, 74, 60
1, 481911, Note_off_c, 0, 57, 38
1, 481926, Note_off_c, 0, 81, 59
1, 481932, Note_on_c, 0, 88, 72
1, 481941, Note_on_c, 0, 54, 48
1, 481968, Note_off_c, 0, 86, 46
1, 481992, Note_off_c, 0, 54, 58
1, 482026, Note_on_c, 0, 83, 67
1, 482032, Note_off_c, 0, 88, 53
1, 482038, Note_on_c, 0, 74, 56
1, 482040, Note_on_c, 0, 59, 49
1, 482045, Note_on_c, 0, 86, 61
1, 482070, Control_c, 0, 64, 112
1, 482085, Note_off_c, 0, 74, 44
1, 482087, Note_off_c, 0, 59, 53
1, 482114, Control_c, 0, 64, 112
1, 482123, Note_on_c, 0, 52, 49
1, 482124, Note_off_c, 0, 83, 62
1, 482133, Note_on_c, 0, 88, 72
1, 482165, Note_off_c, 0, 86, 61
1, 482166, Control_c, 0, 64, 111
1, 482183, Note_off_c, 0, 52, 56
1, 482210, Control_c, 0, 64, 111
1, 482215, Note_on_c, 0, 57, 48
1, 482225, Control_c, 0, 64, 110
1, 482241, Note_on_c, 0, 81, 67
1, 482244, Note_off_c, 0, 88, 60
1, 482254, Note_on_c, 0, 86, 62
1, 482255, Note_on_c, 0, 74, 61
1, 482274, Note_off_c, 0, 57, 51
1, 482299, Note_off_c, 0, 74, 58
1, 482323, Note_on_c, 0, 54, 53
1, 482328, Note_off_c, 0, 81, 59
1, 482329, Control_c, 0, 64, 110
1, 482339, Note_off_c, 0, 86, 60
1, 482347, Note_on_c, 0, 88, 69
1, 482359, Control_c, 0, 64, 109
1, 482373, Control_c, 0, 64, 108
1, 482388, Control_c, 0, 64, 105
1, 482403, Control_c, 0, 64, 101
1, 482404, Note_off_c, 0, 54, 58
1, 482418, Control_c, 0, 64, 96
1, 482430, Note_on_c, 0, 62, 47
1, 482432, Note_off_c, 0, 88, 56
1, 482433, Control_c, 0, 64, 91
1, 482439, Note_on_c, 0, 81, 68
1, 482448, Control_c, 0, 64, 89
1, 482456, Note_on_c, 0, 74, 46
1, 482456, Note_on_c, 0, 86, 60
1, 482478, Note_off_c, 0, 62, 59
1, 482497, Note_off_c, 0, 74, 47
1, 482505, Note_off_c, 0, 81, 61
1, 482523, Note_on_c, 0, 54, 57
1, 482536, Note_off_c, 0, 86, 47
1, 482538, Note_on_c, 0, 88, 69
1, 482570, Note_off_c, 0, 54, 59
1, 482611, Note_on_c, 0, 64, 57
1, 482619, Note_on_c, 0, 79, 66
1, 482630, Note_off_c, 0, 88, 44
1, 482641, Note_off_c, 0, 64, 66
1, 482648, Note_on_c, 0, 74, 39
1, 482655, Note_on_c, 0, 86, 37
1, 482682, Note_off_c, 0, 74, 52
1, 482684, Control_c, 0, 64, 90
1, 482689, Note_off_c, 0, 79, 60
1, 482702, Note_on_c, 0, 57, 53
1, 482714, Control_c, 0, 64, 91
1, 482733, Note_on_c, 0, 88, 69
1, 482743, Control_c, 0, 64, 91
1, 482756, Note_off_c, 0, 86, 29
1, 482773, Control_c, 0, 64, 91
1, 482794, Note_on_c, 0, 66, 59
1, 482803, Control_c, 0, 64, 89
1, 482818, Control_c, 0, 64, 86
1, 482827, Note_on_c, 0, 81, 62
1, 482831, Note_off_c, 0, 88, 56
1, 482833, Control_c, 0, 64, 85
1, 482844, Note_on_c, 0, 74, 43
1, 482863, Control_c, 0, 64, 86
1, 482878, Control_c, 0, 64, 87
1, 482886, Note_on_c, 0, 86, 21
1, 482893, Control_c, 0, 64, 88
1, 482908, Note_off_c, 0, 66, 44
1, 482920, Note_off_c, 0, 74, 39
1, 482923, Note_on_c, 0, 62, 49
1, 482928, Note_off_c, 0, 57, 42
1, 482931, Note_off_c, 0, 81, 58
1, 482945, Control_c, 0, 64, 87
1, 482950, Note_on_c, 0, 88, 67
1, 482952, Note_off_c, 0, 86, 44
1, 482959, Control_c, 0, 64, 84
1, 482974, Control_c, 0, 64, 80
1, 482988, Note_off_c, 0, 62, 51
1, 482989, Control_c, 0, 64, 76
1, 483004, Control_c, 0, 64, 75
1, 483019, Control_c, 0, 64, 78
1, 483034, Control_c, 0, 64, 81
1, 483039, Note_on_c, 0, 74, 52
1, 483044, Note_off_c, 0, 88, 57
1, 483047, Note_on_c, 0, 69, 44
1, 483049, Control_c, 0, 64, 85
1, 483050, Note_on_c, 0, 81, 58
1, 483064, Control_c, 0, 64, 89
1, 483079, Control_c, 0, 64, 90
1, 483083, Note_off_c, 0, 69, 46
1, 483092, Note_on_c, 0, 86, 19
1, 483094, Control_c, 0, 64, 90
1, 483108, Control_c, 0, 64, 89
1, 483121, Note_off_c, 0, 74, 38
1, 483123, Control_c, 0, 64, 87
1, 483138, Control_c, 0, 64, 83
1, 483153, Control_c, 0, 64, 77
1, 483157, Note_off_c, 0, 81, 48
1, 483161, Note_on_c, 0, 66, 45
1, 483163, Note_on_c, 0, 88, 62
1, 483167, Control_c, 0, 64, 74
1, 483182, Control_c, 0, 64, 75
1, 483184, Note_off_c, 0, 86, 32
1, 483197, Control_c, 0, 64, 78
1, 483212, Control_c, 0, 64, 81
1, 483227, Control_c, 0, 64, 84
1, 483234, Note_off_c, 0, 66, 38
1, 483241, Control_c, 0, 64, 87
1, 483255, Note_off_c, 0, 88, 55
1, 483256, Control_c, 0, 64, 88
1, 483271, Control_c, 0, 64, 89
1, 483272, Note_on_c, 0, 83, 57
1, 483278, Note_on_c, 0, 71, 46
1, 483280, Note_on_c, 0, 74, 33
1, 483286, Control_c, 0, 64, 87
1, 483290, Note_on_c, 0, 86, 41
1, 483301, Control_c, 0, 64, 84
1, 483315, Control_c, 0, 64, 81
1, 483330, Control_c, 0, 64, 80
1, 483339, Note_off_c, 0, 74, 42
1, 483360, Control_c, 0, 64, 82
1, 483360, Note_off_c, 0, 71, 39
1, 483375, Control_c, 0, 64, 83
1, 483381, Note_off_c, 0, 83, 59
1, 483390, Control_c, 0, 64, 84
1, 483399, Note_on_c, 0, 88, 56
1, 483413, Note_on_c, 0, 64, 36
1, 483420, Control_c, 0, 64, 80
1, 483433, Note_off_c, 0, 86, 47
1, 483434, Control_c, 0, 64, 74
1, 483449, Control_c, 0, 64, 69
1, 483464, Control_c, 0, 64, 69
1, 483466, Note_off_c, 0, 64, 44
1, 483479, Control_c, 0, 64, 72
1, 483493, Control_c, 0, 64, 76
1, 483508, Control_c, 0, 64, 80
1, 483523, Control_c, 0, 64, 85
1, 483538, Control_c, 0, 64, 88
1, 483542, Note_on_c, 0, 74, 58
1, 483551, Note_on_c, 0, 86, 46
1, 483552, Control_c, 0, 64, 90
1, 483566, Note_on_c, 0, 81, 42
1, 483582, Control_c, 0, 64, 86
1, 483590, Note_off_c, 0, 88, 31
1, 483597, Control_c, 0, 64, 81
1, 483612, Control_c, 0, 64, 80
1, 483628, Control_c, 0, 64, 81
1, 483643, Control_c, 0, 64, 84
1, 483664, Control_c, 0, 64, 88
1, 483679, Control_c, 0, 64, 92
1, 483694, Control_c, 0, 64, 96
1, 483709, Control_c, 0, 64, 97
1, 483747, Note_on_c, 0, 66, 42
1, 483754, Control_c, 0, 64, 97
1, 483767, Note_on_c, 0, 88, 50
1, 483769, Control_c, 0, 64, 96
1, 483783, Note_off_c, 0, 74, 25
1, 483798, Note_off_c, 0, 86, 38
1, 483856, Note_off_c, 0, 81, 37
1, 483857, Control_c, 0, 64, 95
1, 483887, Control_c, 0, 64, 95
1, 483902, Control_c, 0, 64, 94
1, 483916, Control_c, 0, 64, 93
1, 483931, Control_c, 0, 64, 93
1, 483946, Control_c, 0, 64, 92
1, 483976, Control_c, 0, 64, 91
1, 483990, Control_c, 0, 64, 91
1, 484005, Control_c, 0, 64, 90
1, 484020, Control_c, 0, 64, 89
1, 484035, Control_c, 0, 64, 88
1, 484040, Note_on_c, 0, 78, 52
1, 484050, Control_c, 0, 64, 86
1, 484064, Control_c, 0, 64, 84
1, 484079, Control_c, 0, 64, 80
1, 484094, Control_c, 0, 64, 75
1, 484108, Control_c, 0, 64, 68
1, 484123, Control_c, 0, 64, 59
1, 484138, Control_c, 0, 64, 0
1, 484144, Note_off_c, 0, 66, 0
1, 484160, Note_on_c, 0, 86, 50
1, 484173, Note_on_c, 0, 81, 38
1, 484181, Poly_aftertouch_c, 0, 66, 127
1, 484183, Note_on_c, 0, 74, 24
1, 484225, Note_off_c, 0, 88, 36
1, 484243, Control_c, 0, 64, 49
1, 484257, Control_c, 0, 64, 67
1, 484272, Control_c, 0, 64, 77
1, 484287, Control_c, 0, 64, 88
1, 484302, Control_c, 0, 64, 96
1, 484412, Control_c, 0, 64, 97
1, 484427, Control_c, 0, 64, 99
1, 484474, Note_on_c, 0, 88, 45
1, 484478, Note_off_c, 0, 86, 38
1, 484487, Control_c, 0, 64, 100
1, 484495, Note_off_c, 0, 78, 38
1, 484502, Control_c, 0, 64, 100
1, 484532, Control_c, 0, 64, 101
1, 484546, Note_off_c, 0, 74, 42
1, 484547, Control_c, 0, 64, 102
1, 484561, Control_c, 0, 64, 103
1, 484576, Control_c, 0, 64, 104
1, 484591, Control_c, 0, 64, 104
1, 484606, Control_c, 0, 64, 105
1, 484621, Control_c, 0, 64, 105
1, 484635, Note_on_c, 0, 86, 36
1, 484666, Control_c, 0, 64, 106
1, 484678, Poly_aftertouch_c, 0, 66, 0
1, 484695, Control_c, 0, 64, 106
1, 484710, Control_c, 0, 64, 107
1, 484725, Control_c, 0, 64, 108
1, 484754, Control_c, 0, 64, 108
1, 484758, Note_on_c, 0, 69, 35
1, 484769, Control_c, 0, 64, 109
1, 484784, Control_c, 0, 64, 110
1, 484793, Note_off_c, 0, 88, 34
1, 484799, Control_c, 0, 64, 110
1, 484813, Control_c, 0, 64, 111
1, 484828, Control_c, 0, 64, 111
1, 484843, Control_c, 0, 64, 112
1, 484858, Control_c, 0, 64, 113
1, 484873, Control_c, 0, 64, 115
1, 484887, Control_c, 0, 64, 118
1, 484902, Control_c, 0, 64, 121
1, 484917, Control_c, 0, 64, 126
1, 484931, Control_c, 0, 64, 127
1, 485081, Note_on_c, 0, 62, 36
1, 485561, Note_on_c, 0, 74, 43
1, 485724, Note_off_c, 0, 74, 36
1, 485911, Control_c, 0, 67, 126
1, 485926, Control_c, 0, 67, 124
1, 485941, Control_c, 0, 67, 121
1, 485956, Control_c, 0, 67, 118
1, 485970, Control_c, 0, 67, 116
1, 485985, Control_c, 0, 67, 113
1, 486000, Control_c, 0, 67, 110
1, 486015, Control_c, 0, 67, 108
1, 486031, Control_c, 0, 67, 105
1, 486046, Control_c, 0, 67, 103
1, 486060, Control_c, 0, 67, 100
1, 486075, Control_c, 0, 67, 98
1, 486090, Control_c, 0, 67, 95
1, 486105, Control_c, 0, 67, 93
1, 486119, Control_c, 0, 67, 91
1, 486134, Control_c, 0, 67, 89
1, 486149, Control_c, 0, 67, 87
1, 486164, Control_c, 0, 67, 86
1, 486174, Note_off_c, 0, 69, 24
1, 486179, Control_c, 0, 67, 84
1, 486193, Control_c, 0, 67, 83
1, 486208, Control_c, 0, 67, 82
1, 486223, Control_c, 0, 67, 80
1, 486238, Control_c, 0, 67, 78
1, 486252, Control_c, 0, 67, 77
1, 486267, Control_c, 0, 67, 76
1, 486282, Control_c, 0, 67, 75
1, 486297, Control_c, 0, 67, 74
1, 486311, Control_c, 0, 67, 73
1, 486326, Control_c, 0, 67, 72
1, 486341, Control_c, 0, 67, 72
1, 486356, Control_c, 0, 67, 71
1, 486371, Control_c, 0, 67, 71
1, 486386, Control_c, 0, 67, 70
1, 486401, Control_c, 0, 67, 69
1, 486416, Control_c, 0, 67, 67
1, 486430, Control_c, 0, 67, 64
1, 486445, Control_c, 0, 67, 61
1, 486460, Control_c, 0, 67, 59
1, 486475, Control_c, 0, 67, 56
1, 486490, Control_c, 0, 67, 54
1, 486504, Control_c, 0, 67, 52
1, 486519, Control_c, 0, 67, 50
1, 486534, Control_c, 0, 67, 47
1, 486549, Control_c, 0, 67, 45
1, 486564, Control_c, 0, 67, 43
1, 486578, Control_c, 0, 67, 41
1, 486593, Control_c, 0, 67, 38
1, 486608, Control_c, 0, 67, 35
1, 486623, Control_c, 0, 67, 31
1, 486638, Control_c, 0, 67, 27
1, 486660, Control_c, 0, 67, 23
1, 486675, Control_c, 0, 67, 20
1, 486690, Control_c, 0, 67, 18
1, 486704, Note_off_c, 0, 62, 35
1, 486704, Control_c, 0, 67, 15
1, 486719, Control_c, 0, 67, 13
1, 486734, Control_c, 0, 67, 10
1, 486749, Control_c, 0, 67, 9
1, 486764, Control_c, 0, 67, 8
1, 486778, Control_c, 0, 67, 0
1, 486823, Note_off_c, 0, 86, 39
1, 486851, Note_off_c, 0, 81, 35
1, 486928, Control_c, 0, 64, 126
1, 486942, Control_c, 0, 64, 123
1, 486957, Control_c, 0, 64, 122
1, 486972, Control_c, 0, 64, 120
1, 486987, Control_c, 0, 64, 119
1, 487002, Control_c, 0, 64, 118
1, 487016, Control_c, 0, 64, 117
1, 487031, Control_c, 0, 64, 116
1, 487046, Control_c, 0, 64, 114
1, 487061, Control_c, 0, 64, 109
1, 487076, Control_c, 0, 64, 103
1, 487090, Control_c, 0, 64, 100
1, 487105, Control_c, 0, 64, 97
1, 487120, Control_c, 0, 64, 95
1, 487134, Control_c, 0, 64, 94
1, 487149, Control_c, 0, 64, 93
1, 487164, Control_c, 0, 64, 92
1, 487179, Control_c, 0, 64, 91
1, 487194, Control_c, 0, 64, 90
1, 487223, Control_c, 0, 64, 89
1, 487238, Control_c, 0, 64, 89
1, 487253, Control_c, 0, 64, 88
1, 487268, Control_c, 0, 64, 88
1, 487297, Control_c, 0, 64, 87
1, 487312, Control_c, 0, 64, 87
1, 487326, Control_c, 0, 64, 86
1, 487341, Control_c, 0, 64, 85
1, 487356, Control_c, 0, 64, 84
1, 487371, Control_c, 0, 64, 83
1, 487386, Control_c, 0, 64, 83
1, 487408, Control_c, 0, 64, 82
1, 487423, Control_c, 0, 64, 81
1, 487438, Control_c, 0, 64, 79
1, 487453, Control_c, 0, 64, 78
1, 487468, Control_c, 0, 64, 76
1, 487482, Control_c, 0, 64, 74
1, 487497, Control_c, 0, 64, 73
1, 487512, Control_c, 0, 64, 72
1, 487526, Control_c, 0, 64, 71
1, 487541, Control_c, 0, 64, 71
1, 487556, Control_c, 0, 64, 70
1, 487571, Control_c, 0, 64, 70
1, 487586, Control_c, 0, 64, 69
1, 487600, Control_c, 0, 64, 69
1, 487615, Control_c, 0, 64, 68
1, 487631, Control_c, 0, 64, 67
1, 487661, Control_c, 0, 64, 66
1, 487676, Control_c, 0, 64, 65
1, 487691, Control_c, 0, 64, 64
1, 487705, Control_c, 0, 64, 63
1, 487720, Control_c, 0, 64, 62
1, 487735, Control_c, 0, 64, 59
1, 487749, Control_c, 0, 64, 51
1, 487764, Control_c, 0, 64, 41
1, 487779, Control_c, 0, 64, 32
1, 487794, Control_c, 0, 64, 31
1, 487809, Control_c, 0, 64, 37
1, 487823, Control_c, 0, 64, 52
1, 487838, Control_c, 0, 64, 62
1, 487853, Control_c, 0, 64, 67
1, 487868, Control_c, 0, 64, 73
1, 487883, Control_c, 0, 64, 82
1, 487898, Control_c, 0, 64, 96
1, 487912, Control_c, 0, 64, 127
1, 487983, Note_on_c, 0, 52, 38
1, 487995, Note_on_c, 0, 67, 76
1, 488018, Note_on_c, 0, 64, 56
1, 488028, Note_on_c, 0, 59, 39
1, 488426, Note_off_c, 0, 52, 41
1, 488431, Note_off_c, 0, 64, 58
1, 488471, Note_off_c, 0, 59, 36
1, 488518, Note_on_c, 0, 40, 52
1, 488558, Note_on_c, 0, 69, 85
1, 488575, Note_on_c, 0, 60, 67
1, 488576, Note_on_c, 0, 64, 51
1, 488651, Note_off_c, 0, 67, 39
1, 488810, Note_off_c, 0, 60, 61
1, 488916, Note_on_c, 0, 33, 57
1, 488919, Note_off_c, 0, 40, 41
1, 488920, Note_on_c, 0, 45, 62
1, 488955, Note_on_c, 0, 67, 81
1, 488965, Control_c, 0, 64, 100
1, 488976, Note_on_c, 0, 62, 64
1, 488979, Control_c, 0, 64, 76
1, 488988, Note_off_c, 0, 69, 55
1, 488994, Control_c, 0, 64, 51
1, 489009, Control_c, 0, 64, 0
1, 489024, Control_c, 0, 64, 43
1, 489039, Control_c, 0, 64, 67
1, 489054, Control_c, 0, 64, 85
1, 489069, Control_c, 0, 64, 127
1, 489095, Note_off_c, 0, 33, 53
1, 489108, Note_off_c, 0, 62, 57
1, 489124, Note_off_c, 0, 64, 60
1, 489149, Note_off_c, 0, 67, 59
1, 489243, Note_off_c, 0, 45, 61
1, 489367, Note_on_c, 0, 88, 63
1, 489609, Note_off_c, 0, 88, 59
1, 489610, Note_on_c, 0, 59, 57
1, 489638, Note_on_c, 0, 76, 67
1, 489709, Note_off_c, 0, 76, 57
1, 489836, Note_off_c, 0, 59, 37
1, 489854, Note_on_c, 0, 64, 64
1, 489867, Note_on_c, 0, 76, 70
1, 490089, Note_on_c, 0, 83, 77
1, 490190, Note_off_c, 0, 64, 55
1, 490330, Note_off_c, 0, 83, 54
1, 490341, Note_off_c, 0, 76, 56
1, 490359, Poly_aftertouch_c, 0, 79, 127
1, 490389, Note_on_c, 0, 71, 81
1, 490406, Note_on_c, 0, 60, 62
1, 490406, Note_on_c, 0, 64, 67
1, 490407, Poly_aftertouch_c, 0, 79, 0
1, 490583, Note_off_c, 0, 71, 57
1, 490616, Note_off_c, 0, 64, 60
1, 490699, Note_on_c, 0, 67, 86
1, 490705, Note_on_c, 0, 71, 66
1, 490713, Note_on_c, 0, 62, 68
1, 490713, Note_on_c, 0, 64, 69
1, 490715, Note_off_c, 0, 60, 60
1, 490797, Note_off_c, 0, 67, 61
1, 490878, Note_off_c, 0, 64, 38
1, 490893, Note_off_c, 0, 62, 58
1, 490937, Note_on_c, 0, 76, 78
1, 490940, Note_off_c, 0, 71, 63
1, 490973, Note_off_c, 0, 76, 61
1, 491170, Note_on_c, 0, 69, 85
1, 491176, Note_on_c, 0, 64, 56
1, 491180, Note_on_c, 0, 60, 64
1, 491314, Note_off_c, 0, 60, 60
1, 491373, Note_on_c, 0, 50, 65
1, 491477, Control_c, 0, 64, 94
1, 491483, Note_on_c, 0, 66, 82
1, 491492, Control_c, 0, 64, 74
1, 491492, Note_on_c, 0, 59, 68
1, 491507, Control_c, 0, 64, 55
1, 491515, Note_off_c, 0, 69, 55
1, 491522, Control_c, 0, 64, 0
1, 491567, Control_c, 0, 64, 53
1, 491581, Control_c, 0, 64, 69
1, 491596, Control_c, 0, 64, 86
1, 491611, Control_c, 0, 64, 127
1, 491766, Note_on_c, 0, 71, 79
1, 491770, Note_off_c, 0, 59, 53
1, 491823, Note_off_c, 0, 50, 58
1, 491921, Note_on_c, 0, 54, 53
1, 491942, Note_off_c, 0, 71, 56
1, 491986, Note_on_c, 0, 60, 56
1, 491986, Note_off_c, 0, 54, 36
1, 492043, Note_on_c, 0, 62, 61
1, 492123, Note_on_c, 0, 69, 81
1, 492226, Note_off_c, 0, 64, 38
1, 492265, Note_off_c, 0, 66, 33
1, 492389, Note_off_c, 0, 60, 57
1, 492511, Note_on_c, 0, 31, 59
1, 492526, Note_on_c, 0, 43, 50
1, 492568, Note_on_c, 0, 66, 80
1, 492571, Note_on_c, 0, 64, 56
1, 492577, Note_off_c, 0, 62, 58
1, 492583, Control_c, 0, 64, 87
1, 492591, Note_on_c, 0, 59, 44
1, 492598, Control_c, 0, 64, 64
1, 492613, Control_c, 0, 64, 0
1, 492621, Note_off_c, 0, 69, 53
1, 492679, Control_c, 0, 64, 51
1, 492694, Control_c, 0, 64, 70
1, 492709, Control_c, 0, 64, 96
1, 492724, Control_c, 0, 64, 127
1, 492737, Note_off_c, 0, 31, 35
1, 492787, Note_off_c, 0, 59, 58
1, 492829, Note_off_c, 0, 64, 62
1, 492836, Note_off_c, 0, 43, 52
1, 492857, Note_off_c, 0, 66, 63
1, 493029, Note_on_c, 0, 88, 76
1, 493264, Poly_aftertouch_c, 0, 85, 127
1, 493310, Note_on_c, 0, 59, 51
1, 493331, Note_on_c, 0, 76, 70
1, 493341, Note_off_c, 0, 88, 60
1, 493357, Poly_aftertouch_c, 0, 85, 0
1, 493393, Poly_aftertouch_c, 0, 86, 0
1, 493439, Poly_aftertouch_c, 0, 60, 127
1, 493463, Note_off_c, 0, 76, 59
1, 493541, Poly_aftertouch_c, 0, 60, 0
1, 493574, Note_on_c, 0, 64, 54
1, 493577, Note_on_c, 0, 76, 74
1, 493655, Note_off_c, 0, 59, 37
1, 493802, Note_on_c, 0, 83, 71
1, 494030, Note_off_c, 0, 83, 56
1, 494064, Note_off_c, 0, 76, 60
1, 494066, Note_on_c, 0, 69, 78
1, 494072, Note_off_c, 0, 64, 55
1, 494074, Note_on_c, 0, 62, 61
1, 494077, Note_on_c, 0, 59, 65
1, 494097, Note_on_c, 0, 71, 58
1, 494265, Note_off_c, 0, 69, 59
1, 494278, Note_off_c, 0, 71, 60
1, 494279, Note_off_c, 0, 59, 59
1, 494325, Note_off_c, 0, 62, 61
1, 494386, Note_on_c, 0, 66, 94
1, 494387, Note_on_c, 0, 60, 70
1, 494392, Note_on_c, 0, 71, 66
1, 494421, Note_on_c, 0, 64, 28
1, 494476, Note_off_c, 0, 60, 63
1, 494478, Note_off_c, 0, 66, 55
1, 494485, Note_off_c, 0, 64, 42
1, 494623, Note_on_c, 0, 76, 78
1, 494625, Note_off_c, 0, 71, 64
1, 494661, Note_off_c, 0, 76, 62
1, 494859, Note_on_c, 0, 67, 88
1, 494868, Note_on_c, 0, 60, 50
1, 494872, Note_on_c, 0, 57, 62
1, 494893, Note_on_c, 0, 64, 39
1, 494937, Note_off_c, 0, 64, 47
1, 495051, Note_off_c, 0, 57, 57
1, 495122, Note_on_c, 0, 48, 68
1, 495169, Poly_aftertouch_c, 0, 62, 127
1, 495175, Note_on_c, 0, 64, 80
1, 495177, Control_c, 0, 64, 94
1, 495192, Note_off_c, 0, 60, 35
1, 495192, Control_c, 0, 64, 75
1, 495197, Note_on_c, 0, 59, 64
1, 495203, Note_off_c, 0, 67, 60
1, 495207, Control_c, 0, 64, 63
1, 495221, Control_c, 0, 64, 42
1, 495236, Control_c, 0, 64, 47
1, 495251, Control_c, 0, 64, 65
1, 495266, Control_c, 0, 64, 78
1, 495278, Poly_aftertouch_c, 0, 40, 0
1, 495281, Control_c, 0, 64, 105
1, 495296, Control_c, 0, 64, 127
1, 495381, Note_off_c, 0, 59, 53
1, 495439, Note_on_c, 0, 71, 82
1, 495525, Note_off_c, 0, 71, 59
1, 495561, Note_off_c, 0, 48, 50
1, 495584, Note_on_c, 0, 40, 70
1, 495674, Note_off_c, 0, 40, 50
1, 495686, Note_on_c, 0, 55, 65
1, 495715, Note_on_c, 0, 60, 64
1, 495776, Note_on_c, 0, 67, 85
1, 495811, Poly_aftertouch_c, 0, 62, 0
1, 495814, Note_off_c, 0, 64, 59
1, 495920, Note_off_c, 0, 55, 55
1, 496068, Note_on_c, 0, 42, 67
1, 496082, Note_on_c, 0, 30, 61
1, 496130, Note_on_c, 0, 64, 82
1, 496139, Note_on_c, 0, 62, 67
1, 496147, Note_on_c, 0, 59, 54
1, 496149, Control_c, 0, 64, 90
1, 496163, Control_c, 0, 64, 65
1, 496167, Note_off_c, 0, 60, 61
1, 496175, Note_off_c, 0, 67, 56
1, 496178, Control_c, 0, 64, 0
1, 496228, Note_off_c, 0, 62, 51
1, 496238, Control_c, 0, 64, 71
1, 496253, Control_c, 0, 64, 122
1, 496267, Control_c, 0, 64, 127
1, 496282, Note_off_c, 0, 30, 58
1, 496322, Note_off_c, 0, 59, 58
1, 496374, Note_off_c, 0, 64, 64
1, 496408, Note_off_c, 0, 42, 58
1, 496562, Note_on_c, 0, 88, 74
1, 496747, Note_on_c, 0, 85, 12
1, 496861, Note_off_c, 0, 88, 59
1, 496864, Note_on_c, 0, 59, 64
1, 496892, Note_on_c, 0, 76, 69
1, 496897, Note_off_c, 0, 85, 44
1, 496969, Note_off_c, 0, 76, 56
1, 497111, Note_on_c, 0, 64, 69
1, 497113, Note_on_c, 0, 76, 70
1, 497198, Note_off_c, 0, 59, 35
1, 497339, Note_on_c, 0, 83, 75
1, 497522, Note_off_c, 0, 83, 50
1, 497542, Note_off_c, 0, 76, 60
1, 497571, Note_on_c, 0, 60, 69
1, 497571, Note_on_c, 0, 67, 85
1, 497579, Note_on_c, 0, 57, 67
1, 497592, Note_on_c, 0, 71, 59
1, 497607, Note_off_c, 0, 64, 58
1, 497617, Control_c, 0, 64, 94
1, 497632, Control_c, 0, 64, 84
1, 497647, Control_c, 0, 64, 84
1, 497661, Control_c, 0, 64, 93
1, 497676, Control_c, 0, 64, 113
1, 497691, Control_c, 0, 64, 127
1, 497733, Note_off_c, 0, 67, 60
1, 497738, Note_off_c, 0, 60, 60
1, 497783, Note_off_c, 0, 71, 60
1, 497841, Note_on_c, 0, 59, 71
1, 497842, Note_on_c, 0, 64, 80
1, 497845, Note_on_c, 0, 71, 63
1, 497845, Note_off_c, 0, 57, 47
1, 497847, Note_on_c, 0, 62, 64
1, 497955, Note_off_c, 0, 64, 63
1, 498023, Note_off_c, 0, 62, 52
1, 498031, Note_off_c, 0, 59, 55
1, 498084, Note_on_c, 0, 77, 71
1, 498089, Note_off_c, 0, 71, 64
1, 498100, Note_off_c, 0, 77, 69
1, 498130, Note_on_c, 0, 76, 12
1, 498177, Note_off_c, 0, 76, 50
1, 498313, Note_on_c, 0, 66, 86
1, 498315, Note_on_c, 0, 64, 61
1, 498327, Note_on_c, 0, 60, 62
1, 498331, Note_on_c, 0, 57, 63
1, 498500, Note_on_c, 0, 47, 71
1, 498507, Note_off_c, 0, 57, 54
1, 498558, Note_off_c, 0, 60, 61
1, 498573, Control_c, 0, 64, 91
1, 498588, Control_c, 0, 64, 67
1, 498601, Note_on_c, 0, 63, 81
1, 498603, Control_c, 0, 64, 0
1, 498617, Note_on_c, 0, 57, 65
1, 498625, Note_off_c, 0, 64, 60
1, 498640, Control_c, 0, 64, 30
1, 498652, Note_off_c, 0, 66, 56
1, 498655, Control_c, 0, 64, 66
1, 498670, Control_c, 0, 64, 80
1, 498684, Control_c, 0, 64, 127
1, 498793, Note_off_c, 0, 57, 58
1, 498922, Note_on_c, 0, 71, 87
1, 498931, Note_off_c, 0, 63, 61
1, 499016, Note_off_c, 0, 47, 65
1, 499073, Note_on_c, 0, 56, 86
1, 499085, Note_on_c, 0, 48, 64
1, 499135, Note_off_c, 0, 56, 64
1, 499153, Poly_aftertouch_c, 0, 49, 127
1, 499171, Note_on_c, 0, 64, 84
1, 499171, Note_off_c, 0, 71, 59
1, 499178, Note_on_c, 0, 59, 89
1, 499182, Poly_aftertouch_c, 0, 49, 0
1, 499205, Note_off_c, 0, 48, 63
1, 499272, Note_off_c, 0, 64, 63
1, 499291, Note_on_c, 0, 40, 78
1, 499325, Note_off_c, 0, 59, 50
1, 499439, Note_on_c, 0, 49, 90
1, 499522, Note_on_c, 0, 55, 82
1, 499522, Note_on_c, 0, 66, 86
1, 499522, Control_c, 0, 64, 92
1, 499523, Note_on_c, 0, 58, 79
1, 499528, Note_on_c, 0, 63, 77
1, 499537, Control_c, 0, 64, 66
1, 499552, Control_c, 0, 64, 0
1, 499596, Control_c, 0, 64, 76
1, 499612, Control_c, 0, 64, 127
1, 499628, Poly_aftertouch_c, 0, 42, 127
1, 499631, Note_off_c, 0, 55, 60
1, 499642, Note_off_c, 0, 40, 57
1, 499657, Poly_aftertouch_c, 0, 42, 0
1, 499676, Note_off_c, 0, 58, 59
1, 499699, Note_off_c, 0, 63, 59
1, 499704, Note_off_c, 0, 66, 61
1, 499740, Note_off_c, 0, 49, 63
1, 499854, Note_on_c, 0, 67, 80
1, 499857, Note_on_c, 0, 64, 79
1, 499925, Note_off_c, 0, 64, 60
1, 499961, Note_off_c, 0, 67, 57
1, 499982, Note_on_c, 0, 55, 83
1, 500049, Note_on_c, 0, 70, 83
1, 500050, Note_on_c, 0, 66, 80
1, 500096, Note_off_c, 0, 66, 59
1, 500112, Note_off_c, 0, 70, 64
1, 500172, Note_on_c, 0, 61, 87
1, 500222, Note_on_c, 0, 75, 94
1, 500229, Note_on_c, 0, 67, 86
1, 500284, Note_off_c, 0, 67, 60
1, 500339, Note_off_c, 0, 55, 50
1, 500388, Note_on_c, 0, 76, 93
1, 500393, Note_on_c, 0, 70, 88
1, 500395, Note_on_c, 0, 64, 89
1, 500435, Note_off_c, 0, 75, 58
1, 500572, Note_off_c, 0, 61, 56
1, 500614, Note_on_c, 0, 59, 83
1, 500746, Control_c, 0, 64, 97
1, 500760, Control_c, 0, 64, 74
1, 500766, Note_on_c, 0, 78, 93
1, 500775, Control_c, 0, 64, 0
1, 500790, Note_off_c, 0, 76, 59
1, 500864, Control_c, 0, 64, 63
1, 500886, Control_c, 0, 64, 93
1, 500901, Control_c, 0, 64, 127
1, 501083, Note_on_c, 0, 61, 81
1, 501158, Note_off_c, 0, 70, 43
1, 501159, Note_off_c, 0, 64, 58
1, 501311, Note_on_c, 0, 71, 78
1, 501313, Note_on_c, 0, 63, 81
1, 501323, Note_on_c, 0, 66, 76
1, 501413, Note_off_c, 0, 66, 54
1, 501542, Note_on_c, 0, 64, 93
1, 501542, Note_on_c, 0, 67, 84
1, 501553, Control_c, 0, 64, 105
1, 501568, Control_c, 0, 64, 83
1, 501582, Control_c, 0, 64, 68
1, 501597, Control_c, 0, 64, 65
1, 501606, Note_off_c, 0, 78, 47
1, 501609, Note_off_c, 0, 61, 56
1, 501612, Control_c, 0, 64, 72
1, 501633, Control_c, 0, 64, 93
1, 501648, Control_c, 0, 64, 127
1, 501678, Note_off_c, 0, 63, 59
1, 501769, Note_on_c, 0, 65, 89
1, 501770, Note_on_c, 0, 69, 85
1, 501800, Note_off_c, 0, 64, 63
1, 501808, Note_off_c, 0, 67, 58
1, 501848, Note_off_c, 0, 71, 56
1, 501877, Note_off_c, 0, 69, 59
1, 501997, Note_on_c, 0, 78, 95
1, 501999, Note_on_c, 0, 70, 92
1, 502001, Note_on_c, 0, 66, 92
1, 502013, Note_off_c, 0, 65, 62
1, 502085, Note_off_c, 0, 70, 60
1, 502134, Note_off_c, 0, 78, 62
1, 502272, Control_c, 0, 64, 113
1, 502283, Note_on_c, 0, 79, 99
1, 502286, Note_on_c, 0, 64, 84
1, 502287, Note_on_c, 0, 67, 91
1, 502287, Control_c, 0, 64, 81
1, 502289, Note_on_c, 0, 71, 92
1, 502302, Control_c, 0, 64, 54
1, 502307, Note_off_c, 0, 66, 64
1, 502317, Control_c, 0, 64, 0
1, 502331, Control_c, 0, 64, 30
1, 502346, Control_c, 0, 64, 68
1, 502361, Control_c, 0, 64, 86
1, 502384, Control_c, 0, 64, 127
1, 502481, Note_off_c, 0, 71, 60
1, 502593, Note_on_c, 0, 72, 92
1, 502596, Note_on_c, 0, 81, 97
1, 502598, Note_on_c, 0, 69, 91
1, 502667, Note_off_c, 0, 67, 59
1, 502724, Note_off_c, 0, 59, 23
1, 502743, Note_off_c, 0, 79, 54
1, 502761, Note_off_c, 0, 64, 45
1, 502816, Note_off_c, 0, 81, 55
1, 502843, Note_off_c, 0, 69, 58
1, 502927, Note_on_c, 0, 79, 98
1, 502930, Note_on_c, 0, 67, 94
1, 502931, Note_on_c, 0, 74, 89
1, 503168, Note_off_c, 0, 72, 42
1, 503328, Note_off_c, 0, 79, 56
1, 503332, Note_off_c, 0, 67, 55
1, 503357, Note_on_c, 0, 45, 86
1, 503387, Poly_aftertouch_c, 0, 72, 127
1, 503418, Note_on_c, 0, 79, 95
1, 503420, Note_on_c, 0, 76, 81
1, 503422, Note_on_c, 0, 67, 89
1, 503423, Poly_aftertouch_c, 0, 72, 0
1, 503447, Note_off_c, 0, 74, 61
1, 503458, Control_c, 0, 64, 87
1, 503472, Control_c, 0, 64, 66
1, 503487, Control_c, 0, 64, 0
1, 503532, Control_c, 0, 64, 72
1, 503547, Control_c, 0, 64, 109
1, 503562, Control_c, 0, 64, 127
1, 503774, Note_off_c, 0, 67, 57
1, 503806, Note_off_c, 0, 45, 45
1, 503815, Note_off_c, 0, 79, 56
1, 503820, Note_off_c, 0, 76, 59
1, 503835, Note_on_c, 0, 52, 71
1, 503928, Note_on_c, 0, 83, 92
1, 503933, Note_on_c, 0, 71, 86
1, 504079, Note_off_c, 0, 83, 60
1, 504128, Note_off_c, 0, 71, 61
1, 504226, Note_on_c, 0, 60, 87
1, 504280, Note_on_c, 0, 78, 83
1, 504280, Note_on_c, 0, 74, 67
1, 504282, Note_on_c, 0, 66, 81
1, 504420, Note_off_c, 0, 52, 57
1, 504436, Note_off_c, 0, 66, 58
1, 504446, Note_off_c, 0, 60, 56
1, 504477, Note_off_c, 0, 74, 52
1, 504477, Note_off_c, 0, 78, 60
1, 504549, Note_on_c, 0, 71, 99
1, 504557, Note_on_c, 0, 66, 78
1, 504558, Note_on_c, 0, 74, 59
1, 504558, Note_on_c, 0, 78, 84
1, 504629, Note_off_c, 0, 66, 60
1, 504665, Note_off_c, 0, 74, 58
1, 504712, Note_off_c, 0, 78, 61
1, 504724, Note_off_c, 0, 71, 57
1, 504835, Note_on_c, 0, 62, 70
1, 504841, Note_on_c, 0, 83, 85
1, 504845, Note_on_c, 0, 71, 74
1, 504862, Note_on_c, 0, 60, 34
1, 504885, Note_off_c, 0, 83, 65
1, 504893, Note_off_c, 0, 71, 56
1, 504912, Note_off_c, 0, 60, 0
1, 504912, Note_on_c, 0, 60, 19
1, 504913, Note_off_c, 0, 62, 61
1, 505028, Note_on_c, 0, 52, 78
1, 505045, Note_on_c, 0, 76, 84
1, 505049, Note_on_c, 0, 64, 83
1, 505050, Note_on_c, 0, 72, 77
1, 505073, Note_off_c, 0, 60, 36
1, 505100, Note_on_c, 0, 74, 13
1, 505144, Note_off_c, 0, 74, 52
1, 505155, Note_off_c, 0, 64, 59
1, 505174, Note_off_c, 0, 76, 58
1, 505179, Note_off_c, 0, 72, 59
1, 505254, Note_on_c, 0, 64, 85
1, 505261, Note_on_c, 0, 76, 83
1, 505261, Note_on_c, 0, 72, 73
1, 505281, Note_off_c, 0, 64, 61
1, 505291, Note_off_c, 0, 72, 58
1, 505318, Note_off_c, 0, 76, 63
1, 505326, Poly_aftertouch_c, 0, 54, 127
1, 505333, Poly_aftertouch_c, 0, 60, 127
1, 505355, Poly_aftertouch_c, 0, 54, 0
1, 505363, Poly_aftertouch_c, 0, 60, 0
1, 505451, Note_on_c, 0, 60, 82
1, 505456, Note_on_c, 0, 58, 45
1, 505464, Note_on_c, 0, 83, 91
1, 505474, Note_on_c, 0, 71, 78
1, 505479, Note_off_c, 0, 52, 63
1, 505496, Note_off_c, 0, 71, 67
1, 505503, Note_off_c, 0, 83, 61
1, 505508, Note_off_c, 0, 58, 44
1, 505670, Note_on_c, 0, 69, 106
1, 505687, Note_on_c, 0, 74, 88
1, 505693, Note_on_c, 0, 62, 74
1, 505729, Note_on_c, 0, 64, 40
1, 505767, Note_off_c, 0, 64, 47
1, 505842, Note_off_c, 0, 62, 50
1, 505848, Note_off_c, 0, 69, 57
1, 505863, Note_off_c, 0, 74, 60
1, 505865, Poly_aftertouch_c, 0, 61, 127
1, 505935, Poly_aftertouch_c, 0, 61, 0
1, 505940, Note_on_c, 0, 67, 111
1, 505942, Control_c, 0, 64, 90
1, 505956, Control_c, 0, 64, 80
1, 505961, Note_on_c, 0, 64, 78
1, 505962, Note_on_c, 0, 61, 18
1, 505964, Note_on_c, 0, 76, 83
1, 505964, Note_on_c, 0, 72, 61
1, 505971, Control_c, 0, 64, 84
1, 505986, Control_c, 0, 64, 101
1, 506002, Control_c, 0, 64, 127
1, 506019, Note_off_c, 0, 64, 64
1, 506023, Note_off_c, 0, 72, 61
1, 506045, Note_off_c, 0, 67, 56
1, 506067, Note_off_c, 0, 60, 0
1, 506079, Note_off_c, 0, 76, 63
1, 506104, Poly_aftertouch_c, 0, 60, 127
1, 506105, Note_off_c, 0, 61, 41
1, 506155, Poly_aftertouch_c, 0, 60, 0
1, 506206, Note_on_c, 0, 50, 89
1, 506221, Note_on_c, 0, 81, 86
1, 506224, Note_on_c, 0, 69, 82
1, 506265, Note_off_c, 0, 50, 65
1, 506308, Poly_aftertouch_c, 0, 74, 0
1, 506360, Poly_aftertouch_c, 0, 78, 0
1, 506456, Note_on_c, 0, 66, 105
1, 506462, Note_on_c, 0, 57, 75
1, 506483, Note_on_c, 0, 78, 79
1, 506491, Note_on_c, 0, 74, 65
1, 506495, Note_on_c, 0, 61, 35
1, 506516, Note_on_c, 0, 60, 8
1, 506532, Note_off_c, 0, 66, 58
1, 506558, Note_off_c, 0, 81, 60
1, 506565, Note_off_c, 0, 61, 37
1, 506572, Note_off_c, 0, 60, 48
1, 506584, Note_off_c, 0, 69, 44
1, 506604, Note_off_c, 0, 57, 54
1, 506614, Note_off_c, 0, 74, 58
1, 506634, Note_off_c, 0, 78, 64
1, 506758, Note_on_c, 0, 43, 87
1, 506813, Note_on_c, 0, 74, 39
1, 506825, Note_on_c, 0, 78, 87
1, 506825, Control_c, 0, 64, 94
1, 506830, Note_on_c, 0, 66, 85
1, 506839, Control_c, 0, 64, 69
1, 506854, Control_c, 0, 64, 0
1, 506906, Control_c, 0, 64, 65
1, 506921, Control_c, 0, 64, 80
1, 506936, Control_c, 0, 64, 127
1, 507049, Note_off_c, 0, 74, 63
1, 507058, Note_off_c, 0, 66, 61
1, 507113, Note_off_c, 0, 78, 62
1, 507135, Note_on_c, 0, 50, 66
1, 507146, Note_off_c, 0, 43, 34
1, 507215, Note_on_c, 0, 83, 94
1, 507222, Note_on_c, 0, 71, 77
1, 507274, Note_off_c, 0, 83, 61
1, 507294, Note_off_c, 0, 71, 41
1, 507300, Note_off_c, 0, 50, 0
1, 507300, Note_on_c, 0, 50, 3
1, 507431, Note_on_c, 0, 59, 85
1, 507465, Note_on_c, 0, 76, 83
1, 507468, Note_on_c, 0, 64, 79
1, 507469, Note_on_c, 0, 72, 77
1, 507546, Note_off_c, 0, 59, 57
1, 507560, Note_off_c, 0, 50, 47
1, 507625, Note_off_c, 0, 64, 59
1, 507640, Note_off_c, 0, 72, 57
1, 507648, Note_off_c, 0, 76, 58
1, 507705, Note_on_c, 0, 69, 96
1, 507728, Note_on_c, 0, 64, 68
1, 507729, Note_on_c, 0, 76, 75
1, 507736, Note_on_c, 0, 72, 72
1, 507760, Note_off_c, 0, 64, 64
1, 507822, Note_off_c, 0, 72, 59
1, 507828, Note_off_c, 0, 69, 54
1, 507832, Note_off_c, 0, 76, 57
1, 507959, Note_on_c, 0, 59, 72
1, 507969, Note_on_c, 0, 83, 85
1, 507977, Note_on_c, 0, 71, 71
1, 508000, Note_off_c, 0, 71, 70
1, 508004, Note_off_c, 0, 83, 60
1, 508162, Note_on_c, 0, 50, 76
1, 508170, Note_on_c, 0, 62, 76
1, 508170, Note_on_c, 0, 74, 83
1, 508173, Note_on_c, 0, 71, 79
1, 508189, Note_off_c, 0, 59, 53
1, 508273, Note_off_c, 0, 62, 56
1, 508307, Note_off_c, 0, 74, 62
1, 508307, Note_off_c, 0, 71, 60
1, 508381, Note_off_c, 0, 50, 61
1, 508385, Note_on_c, 0, 62, 80
1, 508388, Note_on_c, 0, 74, 85
1, 508394, Note_on_c, 0, 71, 78
1, 508412, Note_off_c, 0, 62, 64
1, 508437, Note_off_c, 0, 71, 59
1, 508455, Note_off_c, 0, 74, 66
1, 508540, Note_on_c, 0, 59, 81
1, 508581, Note_on_c, 0, 83, 84
1, 508600, Note_off_c, 0, 83, 66
1, 508605, Note_on_c, 0, 69, 46
1, 508605, Note_on_c, 0, 81, 58
1, 508606, Note_off_c, 0, 81, 127
1, 508626, Note_on_c, 0, 71, 14
1, 508626, Note_off_c, 0, 69, 60
1, 508671, Note_off_c, 0, 71, 46
1, 508751, Note_on_c, 0, 67, 98
1, 508772, Note_on_c, 0, 72, 82
1, 508774, Note_on_c, 0, 60, 62
1, 508816, Note_on_c, 0, 58, 17
1, 508855, Note_off_c, 0, 67, 58
1, 508871, Note_off_c, 0, 58, 47
1, 508871, Note_off_c, 0, 59, 58
1, 508889, Note_off_c, 0, 60, 59
1, 508889, Poly_aftertouch_c, 0, 70, 127
1, 508913, Note_off_c, 0, 72, 58
1, 508942, Poly_aftertouch_c, 0, 70, 0
1, 508984, Note_on_c, 0, 66, 98
1, 508996, Control_c, 0, 64, 99
1, 509002, Note_on_c, 0, 74, 86
1, 509006, Note_on_c, 0, 62, 74
1, 509007, Note_on_c, 0, 71, 66
1, 509011, Control_c, 0, 64, 80
1, 509026, Control_c, 0, 64, 78
1, 509041, Control_c, 0, 64, 90
1, 509056, Control_c, 0, 64, 113
1, 509070, Control_c, 0, 64, 127
1, 509073, Note_off_c, 0, 62, 57
1, 509106, Note_off_c, 0, 71, 61
1, 509135, Note_off_c, 0, 74, 64
1, 509230, Note_on_c, 0, 60, 84
1, 509236, Note_on_c, 0, 81, 87
1, 509237, Note_on_c, 0, 69, 81
1, 509320, Poly_aftertouch_c, 0, 75, 127
1, 509356, Note_off_c, 0, 66, 58
1, 509357, Poly_aftertouch_c, 0, 75, 0
1, 509450, Note_on_c, 0, 64, 94
1, 509474, Note_on_c, 0, 76, 82
1, 509486, Note_on_c, 0, 72, 67
1, 509507, Note_off_c, 0, 81, 52
1, 509541, Note_off_c, 0, 64, 65
1, 509563, Note_off_c, 0, 60, 62
1, 509583, Note_off_c, 0, 69, 58
1, 509634, Note_off_c, 0, 76, 58
1, 509654, Note_off_c, 0, 72, 56
1, 509686, Note_on_c, 0, 42, 80
1, 509748, Note_on_c, 0, 76, 86
1, 509752, Note_on_c, 0, 64, 80
1, 509752, Note_on_c, 0, 72, 83
1, 509759, Control_c, 0, 64, 91
1, 509774, Control_c, 0, 64, 67
1, 509789, Control_c, 0, 64, 0
1, 509819, Control_c, 0, 64, 54
1, 509834, Control_c, 0, 64, 71
1, 509848, Control_c, 0, 64, 93
1, 509871, Control_c, 0, 64, 127
1, 509916, Note_off_c, 0, 64, 61
1, 509950, Note_off_c, 0, 72, 63
1, 509962, Note_off_c, 0, 76, 62
1, 510006, Note_off_c, 0, 42, 61
1, 510040, Note_on_c, 0, 48, 68
1, 510071, Note_on_c, 0, 83, 91
1, 510079, Note_on_c, 0, 71, 79
1, 510117, Note_off_c, 0, 83, 65
1, 510118, Note_off_c, 0, 71, 50
1, 510266, Note_on_c, 0, 57, 81
1, 510305, Note_on_c, 0, 74, 88
1, 510309, Note_on_c, 0, 71, 81
1, 510310, Note_on_c, 0, 62, 78
1, 510354, Note_off_c, 0, 48, 59
1, 510373, Note_off_c, 0, 57, 59
1, 510454, Note_off_c, 0, 62, 57
1, 510471, Note_off_c, 0, 74, 58
1, 510486, Note_off_c, 0, 71, 62
1, 510525, Note_on_c, 0, 67, 90
1, 510562, Note_on_c, 0, 62, 64
1, 510562, Note_on_c, 0, 74, 83
1, 510567, Note_on_c, 0, 71, 71
1, 510584, Note_off_c, 0, 62, 65
1, 510638, Note_off_c, 0, 71, 61
1, 510659, Note_off_c, 0, 74, 63
1, 510672, Note_off_c, 0, 67, 60
1, 510787, Note_on_c, 0, 83, 84
1, 510795, Note_on_c, 0, 71, 67
1, 510800, Note_on_c, 0, 57, 71
1, 510820, Note_off_c, 0, 83, 61
1, 510820, Note_off_c, 0, 71, 67
1, 510990, Note_on_c, 0, 72, 79
1, 510993, Note_on_c, 0, 69, 79
1, 510994, Note_on_c, 0, 60, 71
1, 510999, Note_on_c, 0, 48, 70
1, 511043, Note_off_c, 0, 57, 53
1, 511127, Note_off_c, 0, 60, 61
1, 511135, Note_off_c, 0, 72, 61
1, 511141, Note_off_c, 0, 69, 59
1, 511199, Control_c, 0, 64, 109
1, 511208, Note_on_c, 0, 72, 83
1, 511210, Note_on_c, 0, 69, 75
1, 511211, Note_on_c, 0, 60, 79
1, 511213, Control_c, 0, 64, 89
1, 511228, Control_c, 0, 64, 84
1, 511244, Control_c, 0, 64, 92
1, 511258, Control_c, 0, 64, 114
1, 511273, Control_c, 0, 64, 127
1, 511318, Note_off_c, 0, 60, 62
1, 511354, Note_off_c, 0, 69, 61
1, 511369, Note_off_c, 0, 48, 59
1, 511370, Note_off_c, 0, 72, 62
1, 511419, Note_on_c, 0, 57, 78
1, 511465, Note_on_c, 0, 76, 83
1, 511471, Note_on_c, 0, 64, 72
1, 511493, Poly_aftertouch_c, 0, 55, 0
1, 511517, Note_off_c, 0, 76, 61
1, 511529, Note_off_c, 0, 64, 48
1, 511670, Note_on_c, 0, 66, 90
1, 511692, Note_on_c, 0, 71, 77
1, 511705, Note_on_c, 0, 59, 54
1, 511727, Note_off_c, 0, 59, 61
1, 511761, Note_off_c, 0, 71, 59
1, 511805, Note_off_c, 0, 66, 61
1, 511829, Note_off_c, 0, 57, 40
1, 511954, Note_on_c, 0, 64, 78
1, 511970, Note_on_c, 0, 73, 75
1, 511982, Note_on_c, 0, 61, 57
1, 511982, Note_on_c, 0, 70, 60
1, 511992, Control_c, 0, 64, 86
1, 512007, Control_c, 0, 64, 63
1, 512022, Control_c, 0, 64, 0
1, 512066, Control_c, 0, 64, 65
1, 512081, Control_c, 0, 64, 94
1, 512096, Control_c, 0, 64, 127
1, 512133, Note_off_c, 0, 61, 60
1, 512141, Note_off_c, 0, 64, 62
1, 512179, Note_off_c, 0, 70, 61
1, 512186, Note_off_c, 0, 73, 61
1, 512254, Note_on_c, 0, 47, 58
1, 512291, Note_on_c, 0, 78, 69
1, 512310, Note_on_c, 0, 66, 52
1, 512322, Note_off_c, 0, 47, 60
1, 512358, Note_off_c, 0, 66, 48
1, 512441, Note_off_c, 0, 78, 59
1, 512513, Note_on_c, 0, 63, 67
1, 512516, Note_on_c, 0, 57, 52
1, 512522, Note_on_c, 0, 54, 65
1, 512525, Note_on_c, 0, 75, 67
1, 512531, Note_on_c, 0, 69, 58
1, 512624, Note_off_c, 0, 69, 58
1, 512639, Note_off_c, 0, 75, 58
1, 512671, Note_off_c, 0, 63, 60
1, 512677, Note_off_c, 0, 54, 62
1, 512681, Note_off_c, 0, 57, 58
1, 512740, Note_on_c, 0, 69, 65
1, 512743, Note_on_c, 0, 75, 76
1, 512750, Note_on_c, 0, 63, 76
1, 512755, Note_on_c, 0, 57, 51
1, 512769, Note_on_c, 0, 54, 65
1, 512770, Control_c, 0, 64, 88
1, 512785, Control_c, 0, 64, 68
1, 512800, Control_c, 0, 64, 67
1, 512814, Control_c, 0, 64, 77
1, 512829, Control_c, 0, 64, 93
1, 512844, Control_c, 0, 64, 127
1, 512898, Note_off_c, 0, 63, 61
1, 512915, Note_off_c, 0, 69, 58
1, 512923, Note_off_c, 0, 57, 62
1, 512940, Note_off_c, 0, 54, 65
1, 513002, Note_off_c, 0, 75, 61
1, 513027, Note_on_c, 0, 48, 80
1, 513053, Note_on_c, 0, 79, 84
1, 513060, Note_on_c, 0, 67, 71
1, 513165, Note_off_c, 0, 48, 63
1, 513211, Note_off_c, 0, 67, 54
1, 513275, Note_on_c, 0, 64, 86
1, 513282, Note_on_c, 0, 59, 70
1, 513282, Note_on_c, 0, 76, 81
1, 513283, Note_on_c, 0, 55, 76
1, 513287, Note_on_c, 0, 71, 76
1, 513312, Note_off_c, 0, 79, 61
1, 513374, Note_off_c, 0, 64, 60
1, 513397, Note_off_c, 0, 76, 59
1, 513409, Note_off_c, 0, 55, 63
1, 513412, Note_off_c, 0, 71, 61
1, 513491, Note_on_c, 0, 57, 76
1, 513492, Note_on_c, 0, 63, 93
1, 513497, Note_on_c, 0, 78, 91
1, 513503, Note_on_c, 0, 75, 79
1, 513504, Note_on_c, 0, 66, 93
1, 513504, Control_c, 0, 64, 96
1, 513507, Note_on_c, 0, 54, 81
1, 513519, Control_c, 0, 64, 81
1, 513533, Control_c, 0, 64, 78
1, 513548, Control_c, 0, 64, 85
1, 513563, Control_c, 0, 64, 105
1, 513577, Note_off_c, 0, 59, 35
1, 513578, Control_c, 0, 64, 127
1, 513587, Note_off_c, 0, 66, 62
1, 513589, Note_off_c, 0, 63, 60
1, 513616, Note_off_c, 0, 57, 64
1, 513623, Note_off_c, 0, 75, 63
1, 513631, Note_off_c, 0, 54, 64
1, 513643, Note_off_c, 0, 78, 63
1, 513710, Note_on_c, 0, 47, 93
1, 513724, Note_on_c, 0, 71, 97
1, 513724, Note_on_c, 0, 83, 96
1, 513808, Note_off_c, 0, 47, 65
1, 513824, Note_off_c, 0, 83, 60
1, 513838, Note_off_c, 0, 71, 61
1, 513925, Note_on_c, 0, 58, 86
1, 513933, Note_on_c, 0, 64, 92
1, 513934, Note_on_c, 0, 67, 102
1, 513934, Note_on_c, 0, 79, 98
1, 513940, Note_on_c, 0, 76, 94
1, 513941, Note_on_c, 0, 55, 80
1, 514022, Note_off_c, 0, 58, 67
1, 514060, Note_off_c, 0, 64, 63
1, 514064, Note_off_c, 0, 55, 61
1, 514079, Note_off_c, 0, 67, 53
1, 514102, Note_off_c, 0, 76, 59
1, 514105, Note_off_c, 0, 79, 57
1, 514164, Control_c, 0, 64, 104
1, 514174, Note_on_c, 0, 62, 68
1, 514176, Note_on_c, 0, 66, 97
1, 514179, Control_c, 0, 64, 72
1, 514181, Note_on_c, 0, 69, 99
1, 514181, Note_on_c, 0, 81, 100
1, 514183, Note_on_c, 0, 57, 79
1, 514189, Note_on_c, 0, 78, 89
1, 514194, Control_c, 0, 64, 64
1, 514209, Control_c, 0, 64, 71
1, 514224, Control_c, 0, 64, 87
1, 514237, Control_c, 0, 64, 127
1, 514253, Note_off_c, 0, 66, 68
1, 514294, Note_off_c, 0, 69, 61
1, 514301, Note_off_c, 0, 62, 62
1, 514312, Note_off_c, 0, 57, 61
1, 514329, Note_off_c, 0, 81, 63
1, 514335, Note_off_c, 0, 78, 62
1, 514426, Note_on_c, 0, 50, 97
1, 514433, Note_on_c, 0, 43, 90
1, 514434, Note_on_c, 0, 86, 100
1, 514436, Note_on_c, 0, 74, 99
1, 514481, Note_off_c, 0, 50, 60
1, 514497, Note_off_c, 0, 43, 61
1, 514500, Note_off_c, 0, 86, 56
1, 514523, Note_off_c, 0, 74, 59
1, 514689, Note_on_c, 0, 71, 104
1, 514689, Note_on_c, 0, 83, 102
1, 514692, Note_on_c, 0, 79, 95
1, 514693, Note_on_c, 0, 67, 106
1, 514696, Note_on_c, 0, 62, 78
1, 514702, Note_on_c, 0, 59, 86
1, 514836, Note_off_c, 0, 59, 56
1, 514851, Note_off_c, 0, 83, 56
1, 514864, Note_off_c, 0, 67, 58
1, 514871, Note_off_c, 0, 71, 54
1, 514883, Note_off_c, 0, 79, 55
1, 514958, Control_c, 0, 64, 90
1, 514961, Note_on_c, 0, 64, 77
1, 514961, Note_on_c, 0, 66, 107
1, 514967, Note_on_c, 0, 69, 103
1, 514967, Note_on_c, 0, 81, 99
1, 514970, Note_on_c, 0, 57, 79
1, 514970, Note_on_c, 0, 78, 99
1, 514973, Control_c, 0, 64, 66
1, 514987, Control_c, 0, 64, 47
1, 515002, Control_c, 0, 64, 67
1, 515017, Control_c, 0, 64, 97
1, 515032, Control_c, 0, 64, 127
1, 515043, Note_on_c, 0, 75, 5
1, 515056, Note_off_c, 0, 66, 63
1, 515064, Note_off_c, 0, 69, 60
1, 515073, Note_off_c, 0, 75, 29
1, 515077, Note_off_c, 0, 64, 62
1, 515094, Note_off_c, 0, 62, 35
1, 515096, Note_off_c, 0, 57, 60
1, 515117, Note_off_c, 0, 81, 59
1, 515123, Note_off_c, 0, 78, 60
1, 515250, Note_on_c, 0, 88, 100
1, 515251, Note_on_c, 0, 76, 104
1, 515254, Note_on_c, 0, 52, 103
1, 515263, Note_on_c, 0, 40, 84
1, 515280, Note_on_c, 0, 42, 59
1, 515292, Note_on_c, 0, 85, 35
1, 515307, Note_off_c, 0, 42, 57
1, 515321, Note_off_c, 0, 85, 57
1, 515325, Note_off_c, 0, 88, 58
1, 515337, Note_off_c, 0, 40, 62
1, 515372, Note_off_c, 0, 76, 55
1, 515381, Note_off_c, 0, 52, 65
1, 515577, Note_on_c, 0, 83, 105
1, 515578, Note_on_c, 0, 67, 97
1, 515578, Note_on_c, 0, 71, 103
1, 515581, Note_on_c, 0, 79, 93
1, 515584, Note_on_c, 0, 59, 84
1, 515584, Note_on_c, 0, 64, 82
1, 515649, Note_off_c, 0, 67, 55
1, 515664, Note_off_c, 0, 83, 60
1, 515670, Note_off_c, 0, 59, 55
1, 515680, Note_off_c, 0, 64, 59
1, 515686, Note_off_c, 0, 79, 56
1, 515726, Note_off_c, 0, 71, 55
1, 516093, Note_on_c, 0, 55, 106
1, 516095, Note_on_c, 0, 60, 87
1, 516097, Note_on_c, 0, 64, 86
1, 516097, Note_on_c, 0, 67, 95
1, 516101, Note_on_c, 0, 45, 104
1, 516108, Note_on_c, 0, 33, 85
1, 516114, Control_c, 0, 64, 79
1, 516129, Control_c, 0, 64, 0
1, 516129, Note_on_c, 0, 34, 54
1, 516158, Control_c, 0, 64, 38
1, 516161, Note_off_c, 0, 34, 56
1, 516173, Control_c, 0, 64, 74
1, 516188, Control_c, 0, 64, 109
1, 516203, Control_c, 0, 64, 127
1, 516286, Note_off_c, 0, 33, 56
1, 516338, Note_off_c, 0, 45, 63
1, 516368, Note_off_c, 0, 55, 58
1, 516415, Note_off_c, 0, 60, 56
1, 516443, Note_off_c, 0, 64, 53
1, 516450, Note_off_c, 0, 67, 57
1, 516660, Note_on_c, 0, 72, 95
1, 516669, Note_on_c, 0, 60, 83
1, 516820, Note_off_c, 0, 72, 59
1, 516850, Note_off_c, 0, 60, 63
1, 517001, Note_on_c, 0, 61, 42
1, 517017, Note_on_c, 0, 66, 96
1, 517023, Note_on_c, 0, 64, 68
1, 517030, Note_on_c, 0, 60, 72
1, 517031, Note_off_c, 0, 61, 54
1, 517041, Note_on_c, 0, 54, 65
1, 517052, Note_on_c, 0, 63, 42
1, 517080, Note_on_c, 0, 72, 96
1, 517080, Note_on_c, 0, 81, 94
1, 517080, Note_on_c, 0, 84, 93
1, 517085, Note_off_c, 0, 63, 53
1, 517155, Note_off_c, 0, 54, 56
1, 517185, Note_off_c, 0, 66, 56
1, 517218, Note_off_c, 0, 64, 56
1, 517239, Note_off_c, 0, 60, 39
1, 517346, Note_on_c, 0, 60, 70
1, 517346, Note_on_c, 0, 64, 78
1, 517348, Note_on_c, 0, 66, 99
1, 517364, Note_on_c, 0, 54, 75
1, 517404, Note_off_c, 0, 72, 57
1, 517420, Note_off_c, 0, 54, 65
1, 517432, Poly_aftertouch_c, 0, 63, 127
1, 517445, Note_off_c, 0, 60, 62
1, 517450, Note_off_c, 0, 84, 53
1, 517460, Note_off_c, 0, 66, 61
1, 517464, Note_off_c, 0, 81, 54
1, 517471, Poly_aftertouch_c, 0, 63, 0
1, 517471, Note_off_c, 0, 64, 61
1, 517567, Note_on_c, 0, 72, 96
1, 517573, Note_on_c, 0, 60, 80
1, 517605, Note_off_c, 0, 72, 69
1, 517626, Note_off_c, 0, 60, 62
1, 517749, Note_on_c, 0, 64, 96
1, 517753, Note_on_c, 0, 57, 79
1, 517756, Note_on_c, 0, 60, 71
1, 517761, Note_on_c, 0, 52, 75
1, 517781, Note_on_c, 0, 74, 108
1, 517781, Note_on_c, 0, 86, 95
1, 517783, Note_on_c, 0, 83, 95
1, 517819, Control_c, 0, 64, 115
1, 517834, Control_c, 0, 64, 98
1, 517849, Control_c, 0, 64, 104
1, 517863, Control_c, 0, 64, 127
1, 517893, Note_off_c, 0, 52, 62
1, 517893, Note_off_c, 0, 64, 60
1, 517907, Note_off_c, 0, 57, 57
1, 517918, Note_off_c, 0, 60, 58
1, 517959, Note_off_c, 0, 74, 63
1, 517977, Note_off_c, 0, 86, 63
1, 517979, Note_on_c, 0, 64, 106
1, 517980, Note_on_c, 0, 60, 66
1, 517983, Note_off_c, 0, 83, 61
1, 517988, Note_on_c, 0, 57, 71
1, 517994, Note_on_c, 0, 52, 81
1, 518054, Note_on_c, 0, 76, 108
1, 518055, Note_on_c, 0, 88, 96
1, 518056, Note_on_c, 0, 84, 94
1, 518071, Note_off_c, 0, 52, 62
1, 518086, Note_off_c, 0, 57, 62
1, 518094, Note_off_c, 0, 64, 65
1, 518095, Note_off_c, 0, 60, 64
1, 518171, Note_off_c, 0, 76, 58
1, 518180, Note_off_c, 0, 84, 61
1, 518197, Note_off_c, 0, 88, 60
1, 518223, Note_on_c, 0, 72, 97
1, 518230, Note_on_c, 0, 60, 79
1, 518256, Note_on_c, 0, 62, 49
1, 518258, Note_off_c, 0, 72, 67
1, 518275, Note_off_c, 0, 60, 64
1, 518280, Note_off_c, 0, 62, 61
1, 518321, Note_on_c, 0, 86, 67
1, 518325, Note_on_c, 0, 78, 107
1, 518325, Note_on_c, 0, 90, 102
1, 518412, Note_off_c, 0, 86, 63
1, 518431, Note_on_c, 0, 62, 98
1, 518436, Note_on_c, 0, 50, 89
1, 518438, Note_off_c, 0, 78, 61
1, 518463, Note_off_c, 0, 62, 64
1, 518466, Note_off_c, 0, 90, 63
1, 518481, Note_off_c, 0, 50, 65
1, 518544, Note_on_c, 0, 91, 97
1, 518545, Note_on_c, 0, 79, 107
1, 518551, Note_on_c, 0, 88, 91
1, 518613, Note_on_c, 0, 36, 101
1, 518662, Note_on_c, 0, 43, 12
1, 518674, Note_off_c, 0, 36, 62
1, 518691, Note_off_c, 0, 43, 0
1, 518709, Poly_aftertouch_c, 0, 43, 0
1, 518715, Note_off_c, 0, 88, 57
1, 518726, Note_off_c, 0, 79, 52
1, 518751, Note_off_c, 0, 91, 59
1, 518828, Note_on_c, 0, 62, 101
1, 518832, Note_on_c, 0, 50, 82
1, 518835, Control_c, 0, 64, 101
1, 518857, Control_c, 0, 64, 66
1, 518864, Note_on_c, 0, 81, 110
1, 518865, Note_on_c, 0, 93, 99
1, 518868, Note_on_c, 0, 90, 96
1, 518869, Note_on_c, 0, 52, 49
1, 518870, Note_off_c, 0, 52, 127
1, 518872, Control_c, 0, 64, 0
1, 518887, Control_c, 0, 64, 55
1, 518902, Control_c, 0, 64, 72
1, 518916, Control_c, 0, 64, 96
1, 518930, Note_off_c, 0, 50, 63
1, 518931, Control_c, 0, 64, 127
1, 518934, Poly_aftertouch_c, 0, 54, 127
1, 518973, Poly_aftertouch_c, 0, 54, 0
1, 518982, Note_off_c, 0, 62, 64
1, 519061, Note_off_c, 0, 81, 54
1, 519064, Note_off_c, 0, 93, 60
1, 519098, Note_off_c, 0, 90, 64
1, 519134, Note_on_c, 0, 64, 56
1, 519137, Note_on_c, 0, 72, 103
1, 519141, Note_on_c, 0, 95, 101
1, 519142, Note_on_c, 0, 83, 107
1, 519143, Note_on_c, 0, 67, 70
1, 519144, Note_on_c, 0, 91, 96
1, 519148, Note_on_c, 0, 60, 84
1, 519174, Note_off_c, 0, 60, 64
1, 519174, Note_off_c, 0, 72, 65
1, 519186, Note_on_c, 0, 65, 37
1, 519197, Note_off_c, 0, 95, 66
1, 519203, Note_off_c, 0, 64, 63
1, 519211, Note_off_c, 0, 67, 60
1, 519217, Note_off_c, 0, 65, 53
1, 519220, Note_off_c, 0, 91, 61
1, 519241, Note_off_c, 0, 83, 62
1, 519249, Poly_aftertouch_c, 0, 87, 0
1, 519462, Note_on_c, 0, 74, 73
1, 519464, Note_on_c, 0, 69, 101
1, 519467, Note_on_c, 0, 66, 108
1, 519467, Note_on_c, 0, 81, 96
1, 519469, Note_on_c, 0, 78, 92
1, 519473, Note_on_c, 0, 54, 92
1, 519495, Note_off_c, 0, 66, 69
1, 519498, Note_off_c, 0, 54, 68
1, 519506, Note_on_c, 0, 56, 31
1, 519507, Note_off_c, 0, 56, 127
1, 519507, Note_on_c, 0, 61, 33
1, 519508, Note_off_c, 0, 61, 127
1, 519542, Poly_aftertouch_c, 0, 56, 0
1, 519542, Poly_aftertouch_c, 0, 61, 0
1, 519548, Note_off_c, 0, 81, 58
1, 519551, Note_off_c, 0, 74, 65
1, 519590, Note_off_c, 0, 78, 62
1, 519626, Note_off_c, 0, 69, 46
1, 519932, Note_on_c, 0, 43, 98
1, 519934, Note_on_c, 0, 54, 102
1, 519939, Note_on_c, 0, 66, 90
1, 519941, Note_on_c, 0, 59, 65
1, 519941, Note_on_c, 0, 62, 69
1, 519942, Note_on_c, 0, 31, 79
1, 519947, Control_c, 0, 64, 79
1, 519962, Control_c, 0, 64, 0
1, 520036, Control_c, 0, 64, 74
1, 520048, Poly_aftertouch_c, 0, 60, 127
1, 520050, Control_c, 0, 64, 127
1, 520070, Note_off_c, 0, 31, 58
1, 520075, Poly_aftertouch_c, 0, 34, 0
1, 520122, Note_off_c, 0, 43, 65
1, 520152, Note_off_c, 0, 54, 64
1, 520181, Note_off_c, 0, 62, 57
1, 520194, Note_off_c, 0, 59, 56
1, 520214, Poly_aftertouch_c, 0, 60, 0
1, 520214, Note_off_c, 0, 66, 57
1, 520410, Note_on_c, 0, 71, 96
1, 520418, Note_on_c, 0, 59, 75
1, 520560, Note_off_c, 0, 71, 56
1, 520607, Note_off_c, 0, 59, 59
1, 520721, Note_on_c, 0, 59, 65
1, 520721, Note_on_c, 0, 64, 90
1, 520725, Note_on_c, 0, 62, 84
1, 520735, Note_on_c, 0, 52, 75
1, 520763, Note_on_c, 0, 56, 26
1, 520783, Note_on_c, 0, 71, 98
1, 520784, Note_on_c, 0, 83, 95
1, 520788, Note_on_c, 0, 79, 81
1, 520807, Note_off_c, 0, 56, 55
1, 520905, Note_off_c, 0, 62, 52
1, 520907, Note_off_c, 0, 64, 59
1, 520908, Note_off_c, 0, 52, 55
1, 520926, Note_off_c, 0, 59, 53
1, 521029, Note_on_c, 0, 62, 88
1, 521030, Note_on_c, 0, 64, 87
1, 521032, Note_on_c, 0, 52, 78
1, 521033, Note_on_c, 0, 59, 72
1, 521122, Note_off_c, 0, 52, 58
1, 521138, Note_off_c, 0, 59, 60
1, 521146, Note_off_c, 0, 62, 55
1, 521149, Note_off_c, 0, 64, 59
1, 521178, Note_off_c, 0, 71, 58
1, 521233, Note_off_c, 0, 79, 58
1, 521253, Note_off_c, 0, 83, 60
1, 521268, Note_on_c, 0, 71, 99
1, 521277, Note_on_c, 0, 59, 83
1, 521310, Note_off_c, 0, 71, 64
1, 521332, Note_off_c, 0, 59, 58
1, 521439, Note_on_c, 0, 59, 64
1, 521441, Note_on_c, 0, 62, 88
1, 521446, Note_on_c, 0, 55, 75
1, 521457, Note_on_c, 0, 50, 76
1, 521499, Note_on_c, 0, 72, 101
1, 521499, Note_on_c, 0, 84, 91
1, 521500, Note_on_c, 0, 81, 89
1, 521563, Note_off_c, 0, 50, 64
1, 521572, Note_off_c, 0, 62, 58
1, 521584, Note_off_c, 0, 55, 62
1, 521600, Note_off_c, 0, 59, 59
1, 521668, Note_off_c, 0, 72, 59
1, 521683, Note_on_c, 0, 62, 99
1, 521689, Note_off_c, 0, 81, 57
1, 521689, Note_off_c, 0, 84, 59
1, 521695, Note_on_c, 0, 55, 75
1, 521695, Note_on_c, 0, 59, 76
1, 521697, Note_on_c, 0, 50, 74
1, 521756, Control_c, 0, 64, 83
1, 521767, Note_on_c, 0, 74, 101
1, 521769, Note_on_c, 0, 86, 92
1, 521771, Note_on_c, 0, 83, 93
1, 521771, Control_c, 0, 64, 65
1, 521786, Control_c, 0, 64, 67
1, 521801, Control_c, 0, 64, 80
1, 521816, Control_c, 0, 64, 112
1, 521830, Control_c, 0, 64, 127
1, 521851, Note_off_c, 0, 50, 63
1, 521869, Note_off_c, 0, 55, 62
1, 521882, Note_off_c, 0, 62, 64
1, 521887, Note_off_c, 0, 59, 56
1, 521966, Note_off_c, 0, 74, 61
1, 521986, Note_off_c, 0, 86, 62
1, 521990, Note_off_c, 0, 83, 61
1, 521994, Note_on_c, 0, 71, 95
1, 521997, Note_on_c, 0, 59, 81
1, 522031, Note_off_c, 0, 71, 67
1, 522054, Note_off_c, 0, 59, 59
1, 522082, Note_on_c, 0, 76, 99
1, 522083, Note_on_c, 0, 88, 94
1, 522085, Note_on_c, 0, 84, 92
1, 522155, Note_off_c, 0, 76, 57
1, 522168, Note_off_c, 0, 84, 65
1, 522184, Note_off_c, 0, 88, 63
1, 522187, Note_on_c, 0, 60, 95
1, 522193, Note_on_c, 0, 48, 86
1, 522216, Note_off_c, 0, 60, 66
1, 522247, Note_off_c, 0, 48, 61
1, 522265, Poly_aftertouch_c, 0, 51, 127
1, 522303, Note_on_c, 0, 90, 102
1, 522306, Note_on_c, 0, 78, 102
1, 522306, Poly_aftertouch_c, 0, 51, 0
1, 522309, Note_on_c, 0, 86, 77
1, 522365, Note_on_c, 0, 36, 96
1, 522383, Note_off_c, 0, 86, 62
1, 522428, Note_off_c, 0, 36, 63
1, 522440, Note_off_c, 0, 78, 57
1, 522440, Note_off_c, 0, 90, 63
1, 522553, Note_on_c, 0, 60, 96
1, 522556, Note_on_c, 0, 48, 85
1, 522564, Control_c, 0, 64, 104
1, 522578, Control_c, 0, 64, 76
1, 522585, Note_on_c, 0, 79, 102
1, 522586, Note_on_c, 0, 91, 99
1, 522586, Note_on_c, 0, 88, 84
1, 522601, Control_c, 0, 64, 68
1, 522616, Control_c, 0, 64, 78
1, 522631, Control_c, 0, 64, 96
1, 522645, Control_c, 0, 64, 127
1, 522657, Note_off_c, 0, 48, 60
1, 522701, Note_off_c, 0, 60, 63
1, 522779, Note_off_c, 0, 79, 60
1, 522796, Note_off_c, 0, 88, 62
1, 522799, Note_off_c, 0, 91, 64
1, 522866, Note_on_c, 0, 71, 103
1, 522872, Note_on_c, 0, 81, 104
1, 522872, Note_on_c, 0, 90, 95
1, 522872, Note_on_c, 0, 93, 97
1, 522874, Note_on_c, 0, 67, 76
1, 522878, Note_on_c, 0, 64, 79
1, 522884, Note_on_c, 0, 59, 77
1, 522922, Note_off_c, 0, 93, 62
1, 522941, Note_off_c, 0, 90, 67
1, 522946, Poly_aftertouch_c, 0, 63, 127
1, 522965, Note_off_c, 0, 81, 60
1, 522975, Note_off_c, 0, 71, 59
1, 522992, Poly_aftertouch_c, 0, 63, 0
1, 523011, Note_off_c, 0, 67, 60
1, 523016, Note_off_c, 0, 64, 61
1, 523041, Note_off_c, 0, 59, 57
1, 523188, Note_on_c, 0, 67, 102
1, 523188, Note_on_c, 0, 76, 96
1, 523191, Note_on_c, 0, 64, 104
1, 523191, Note_on_c, 0, 79, 100
1, 523192, Note_on_c, 0, 72, 82
1, 523195, Note_on_c, 0, 52, 85
1, 523295, Note_off_c, 0, 64, 55
1, 523306, Note_off_c, 0, 79, 55
1, 523315, Note_off_c, 0, 72, 52
1, 523349, Note_off_c, 0, 76, 58
1, 523399, Note_off_c, 0, 52, 55
1, 523401, Note_off_c, 0, 67, 54
1, 523677, Control_c, 0, 64, 100
1, 523678, Note_on_c, 0, 42, 101
1, 523678, Note_on_c, 0, 52, 99
1, 523682, Note_on_c, 0, 64, 93
1, 523683, Note_on_c, 0, 57, 76
1, 523683, Note_on_c, 0, 60, 87
1, 523685, Note_on_c, 0, 30, 91
1, 523691, Control_c, 0, 64, 56
1, 523706, Control_c, 0, 64, 0
1, 523713, Note_on_c, 0, 37, 40
1, 523714, Note_off_c, 0, 37, 127
1, 523750, Control_c, 0, 64, 62
1, 523757, Poly_aftertouch_c, 0, 37, 0
1, 523765, Control_c, 0, 64, 80
1, 523780, Control_c, 0, 64, 127
1, 523862, Note_off_c, 0, 30, 61
1, 523901, Note_off_c, 0, 42, 58
1, 523924, Note_off_c, 0, 52, 59
1, 523994, Note_off_c, 0, 57, 56
1, 524002, Note_off_c, 0, 60, 55
1, 524004, Note_off_c, 0, 64, 57
1, 524225, Note_on_c, 0, 69, 93
1, 524232, Note_on_c, 0, 57, 75
1, 524397, Note_off_c, 0, 69, 57
1, 524446, Note_off_c, 0, 57, 60
1, 524550, Note_on_c, 0, 60, 88
1, 524552, Note_on_c, 0, 62, 86
1, 524554, Note_on_c, 0, 57, 65
1, 524560, Note_on_c, 0, 50, 76
1, 524593, Note_on_c, 0, 81, 95
1, 524594, Note_on_c, 0, 69, 98
1, 524595, Note_on_c, 0, 78, 88
1, 524696, Note_off_c, 0, 60, 54
1, 524698, Note_off_c, 0, 50, 54
1, 524701, Note_off_c, 0, 62, 57
1, 524733, Note_off_c, 0, 57, 55
1, 524848, Control_c, 0, 64, 114
1, 524855, Note_on_c, 0, 60, 88
1, 524856, Note_on_c, 0, 50, 77
1, 524856, Note_on_c, 0, 62, 88
1, 524857, Note_on_c, 0, 57, 68
1, 524863, Control_c, 0, 64, 87
1, 524878, Control_c, 0, 64, 74
1, 524892, Control_c, 0, 64, 72
1, 524907, Control_c, 0, 64, 79
1, 524922, Control_c, 0, 64, 97
1, 524937, Control_c, 0, 64, 127
1, 524953, Note_off_c, 0, 50, 63
1, 524966, Note_off_c, 0, 69, 57
1, 524970, Note_off_c, 0, 57, 60
1, 524973, Note_off_c, 0, 60, 60
1, 524977, Note_off_c, 0, 62, 58
1, 525033, Note_off_c, 0, 81, 54
1, 525054, Note_off_c, 0, 78, 61
1, 525087, Note_on_c, 0, 69, 91
1, 525095, Note_on_c, 0, 57, 75
1, 525129, Note_off_c, 0, 69, 66
1, 525149, Note_off_c, 0, 57, 59
1, 525272, Note_on_c, 0, 60, 87
1, 525278, Note_on_c, 0, 52, 75
1, 525288, Note_on_c, 0, 83, 88
1, 525290, Note_on_c, 0, 71, 91
1, 525291, Note_on_c, 0, 79, 85
1, 525295, Note_on_c, 0, 48, 59
1, 525324, Note_on_c, 0, 72, 41
1, 525340, Note_on_c, 0, 50, 20
1, 525352, Note_off_c, 0, 72, 55
1, 525373, Note_off_c, 0, 50, 57
1, 525382, Note_off_c, 0, 60, 62
1, 525384, Note_off_c, 0, 48, 62
1, 525396, Note_off_c, 0, 52, 58
1, 525456, Note_off_c, 0, 71, 59
1, 525475, Note_off_c, 0, 83, 60
1, 525479, Note_on_c, 0, 60, 93
1, 525486, Note_off_c, 0, 79, 57
1, 525489, Note_on_c, 0, 52, 79
1, 525494, Note_on_c, 0, 48, 78
1, 525545, Control_c, 0, 64, 95
1, 525560, Control_c, 0, 64, 74
1, 525563, Note_on_c, 0, 72, 95
1, 525564, Note_on_c, 0, 84, 86
1, 525566, Note_on_c, 0, 81, 84
1, 525575, Control_c, 0, 64, 62
1, 525597, Control_c, 0, 64, 61
1, 525611, Control_c, 0, 64, 71
1, 525626, Note_off_c, 0, 48, 61
1, 525626, Control_c, 0, 64, 91
1, 525641, Control_c, 0, 64, 127
1, 525657, Note_off_c, 0, 60, 59
1, 525665, Note_off_c, 0, 52, 58
1, 525746, Note_off_c, 0, 72, 60
1, 525772, Note_off_c, 0, 81, 60
1, 525772, Note_off_c, 0, 84, 61
1, 525777, Note_on_c, 0, 69, 93
1, 525785, Note_on_c, 0, 57, 79
1, 525814, Note_off_c, 0, 69, 62
1, 525839, Note_off_c, 0, 57, 60
1, 525867, Note_on_c, 0, 74, 100
1, 525868, Note_on_c, 0, 86, 94
1, 525870, Note_on_c, 0, 83, 89
1, 525988, Note_on_c, 0, 59, 95
1, 525993, Note_on_c, 0, 47, 82
1, 526006, Note_off_c, 0, 74, 60
1, 526023, Note_off_c, 0, 59, 66
1, 526031, Note_off_c, 0, 83, 61
1, 526033, Note_off_c, 0, 86, 62
1, 526052, Note_off_c, 0, 47, 63
1, 526071, Poly_aftertouch_c, 0, 49, 127
1, 526104, Poly_aftertouch_c, 0, 49, 0
1, 526112, Note_on_c, 0, 88, 97
1, 526113, Note_on_c, 0, 76, 104
1, 526117, Note_on_c, 0, 84, 87
1, 526230, Note_on_c, 0, 35, 94
1, 526264, Note_off_c, 0, 76, 53
1, 526295, Note_off_c, 0, 35, 62
1, 526302, Note_off_c, 0, 88, 61
1, 526305, Note_off_c, 0, 84, 59
1, 526543, Note_on_c, 0, 59, 102
1, 526551, Note_on_c, 0, 47, 82
1, 526583, Control_c, 0, 64, 89
1, 526598, Control_c, 0, 64, 28
1, 526613, Control_c, 0, 64, 0
1, 526617, Note_on_c, 0, 78, 104
1, 526617, Note_on_c, 0, 90, 100
1, 526622, Note_on_c, 0, 87, 90
1, 526686, Control_c, 0, 64, 80
1, 526701, Control_c, 0, 64, 127
1, 526779, Note_off_c, 0, 47, 54
1, 526779, Poly_aftertouch_c, 0, 85, 127
1, 526785, Note_on_c, 0, 85, 15
1, 526846, Note_off_c, 0, 59, 54
1, 527006, Note_off_c, 0, 78, 52
1, 527013, Note_off_c, 0, 87, 60
1, 527041, Note_off_c, 0, 90, 62
1, 527064, Note_on_c, 0, 69, 92
1, 527069, Note_on_c, 0, 60, 63
1, 527074, Note_on_c, 0, 64, 76
1, 527075, Note_on_c, 0, 57, 75
1, 527128, Note_off_c, 0, 57, 59
1, 527135, Note_off_c, 0, 85, 17
1, 527141, Note_off_c, 0, 69, 54
1, 527150, Note_off_c, 0, 60, 62
1, 527161, Note_on_c, 0, 79, 97
1, 527162, Note_on_c, 0, 88, 88
1, 527162, Note_on_c, 0, 91, 99
1, 527165, Note_off_c, 0, 64, 61
1, 527552, Note_off_c, 0, 91, 50
1, 527618, Note_off_c, 0, 88, 58
1, 527671, Note_on_c, 0, 57, 86
1, 527677, Note_off_c, 0, 79, 56
1, 527680, Note_on_c, 0, 45, 77
1, 527895, Note_off_c, 0, 57, 58
1, 527922, Note_off_c, 0, 45, 64
1, 527957, Note_on_c, 0, 83, 91
1, 527962, Note_on_c, 0, 71, 85
1, 528035, Note_on_c, 0, 40, 70
1, 528114, Note_on_c, 0, 47, 80
1, 528118, Note_off_c, 0, 40, 61
1, 528205, Note_off_c, 0, 71, 50
1, 528214, Note_off_c, 0, 83, 53
1, 528272, Note_on_c, 0, 57, 89
1, 528316, Control_c, 0, 64, 88
1, 528331, Control_c, 0, 64, 69
1, 528346, Control_c, 0, 64, 41
1, 528348, Note_on_c, 0, 83, 87
1, 528349, Note_on_c, 0, 71, 85
1, 528349, Note_on_c, 0, 76, 75
1, 528362, Control_c, 0, 64, 54
1, 528377, Control_c, 0, 64, 69
1, 528392, Control_c, 0, 64, 83
1, 528407, Control_c, 0, 64, 127
1, 528437, Note_off_c, 0, 47, 63
1, 528466, Note_off_c, 0, 57, 60
1, 528683, Note_off_c, 0, 71, 58
1, 528687, Note_off_c, 0, 76, 57
1, 528771, Note_on_c, 0, 64, 87
1, 528869, Note_off_c, 0, 64, 61
1, 529040, Note_on_c, 0, 55, 79
1, 529050, Note_on_c, 0, 45, 67
1, 529091, Note_off_c, 0, 55, 60
1, 529096, Note_off_c, 0, 83, 0
1, 529109, Note_on_c, 0, 83, 56
1, 529120, Note_on_c, 0, 88, 92
1, 529123, Note_on_c, 0, 76, 90
1, 529199, Note_off_c, 0, 45, 61
1, 529207, Note_on_c, 0, 40, 62
1, 529275, Note_off_c, 0, 40, 57
1, 529321, Note_on_c, 0, 47, 60
1, 529399, Control_c, 0, 64, 92
1, 529414, Control_c, 0, 64, 71
1, 529421, Note_on_c, 0, 55, 80
1, 529429, Control_c, 0, 64, 50
1, 529443, Control_c, 0, 64, 49
1, 529458, Control_c, 0, 64, 64
1, 529473, Control_c, 0, 64, 71
1, 529487, Control_c, 0, 64, 84
1, 529502, Control_c, 0, 64, 107
1, 529517, Control_c, 0, 64, 127
1, 529558, Note_off_c, 0, 88, 58
1, 529565, Note_off_c, 0, 55, 62
1, 529582, Note_off_c, 0, 47, 37
1, 529606, Note_off_c, 0, 83, 61
1, 529687, Note_on_c, 0, 59, 74
1, 529749, Note_off_c, 0, 59, 59
1, 529919, Note_on_c, 0, 54, 63
1, 529919, Note_off_c, 0, 76, 0
1, 529922, Note_on_c, 0, 45, 59
1, 529946, Note_on_c, 0, 76, 17
1, 529968, Note_on_c, 0, 83, 81
1, 529973, Note_on_c, 0, 71, 71
1, 530001, Note_off_c, 0, 54, 64
1, 530164, Note_on_c, 0, 40, 55
1, 530223, Note_off_c, 0, 40, 61
1, 530272, Note_on_c, 0, 47, 50
1, 530294, Note_off_c, 0, 45, 30
1, 530355, Control_c, 0, 64, 97
1, 530370, Control_c, 0, 64, 79
1, 530384, Control_c, 0, 64, 65
1, 530389, Note_on_c, 0, 54, 71
1, 530399, Control_c, 0, 64, 0
1, 530458, Control_c, 0, 64, 56
1, 530473, Control_c, 0, 64, 67
1, 530488, Control_c, 0, 64, 76
1, 530503, Control_c, 0, 64, 90
1, 530518, Control_c, 0, 64, 114
1, 530533, Control_c, 0, 64, 127
1, 530634, Note_off_c, 0, 54, 59
1, 530643, Note_off_c, 0, 47, 63
1, 530649, Note_off_c, 0, 83, 40
1, 530687, Note_off_c, 0, 76, 52
1, 530792, Note_on_c, 0, 59, 56
1, 530902, Note_off_c, 0, 59, 48
1, 531094, Note_off_c, 0, 71, 0
1, 531115, Note_on_c, 0, 71, 28
1, 531132, Note_on_c, 0, 52, 45
1, 531132, Note_on_c, 0, 47, 40
1, 531133, Note_on_c, 0, 76, 62
1, 531143, Note_on_c, 0, 64, 49
1, 531325, Note_off_c, 0, 52, 36
1, 531345, Note_off_c, 0, 47, 41
1, 531415, Control_c, 0, 67, 8
1, 531430, Control_c, 0, 67, 11
1, 531445, Control_c, 0, 67, 12
1, 531458, Note_on_c, 0, 52, 49
1, 531460, Control_c, 0, 64, 112
1, 531460, Control_c, 0, 67, 14
1, 531473, Note_on_c, 0, 47, 45
1, 531475, Control_c, 0, 64, 92
1, 531475, Control_c, 0, 67, 16
1, 531480, Note_on_c, 0, 40, 38
1, 531490, Control_c, 0, 64, 76
1, 531490, Control_c, 0, 67, 19
1, 531505, Control_c, 0, 64, 56
1, 531505, Control_c, 0, 67, 22
1, 531520, Control_c, 0, 64, 0
1, 531520, Control_c, 0, 67, 25
1, 531534, Control_c, 0, 67, 28
1, 531549, Control_c, 0, 67, 30
1, 531564, Control_c, 0, 67, 30
1, 531587, Control_c, 0, 64, 64
1, 531602, Control_c, 0, 64, 73
1, 531617, Control_c, 0, 64, 85
1, 531632, Control_c, 0, 64, 101
1, 531632, Control_c, 0, 67, 30
1, 531646, Control_c, 0, 64, 127
1, 531661, Control_c, 0, 67, 29
1, 531676, Control_c, 0, 67, 29
1, 531690, Control_c, 0, 67, 28
1, 531705, Control_c, 0, 67, 28
1, 531720, Control_c, 0, 67, 27
1, 531735, Control_c, 0, 67, 26
1, 531750, Control_c, 0, 67, 25
1, 531764, Control_c, 0, 67, 24
1, 531779, Control_c, 0, 67, 24
1, 531794, Control_c, 0, 67, 23
1, 531809, Note_off_c, 0, 40, 36
1, 531809, Control_c, 0, 67, 23
1, 531821, Note_off_c, 0, 52, 53
1, 531824, Control_c, 0, 67, 21
1, 531839, Control_c, 0, 67, 20
1, 531854, Control_c, 0, 67, 19
1, 531868, Control_c, 0, 67, 19
1, 531883, Control_c, 0, 67, 17
1, 531898, Control_c, 0, 67, 13
1, 531913, Control_c, 0, 67, 0
1, 531968, Note_off_c, 0, 47, 42
1, 532023, Note_on_c, 0, 55, 48
1, 532071, Poly_aftertouch_c, 0, 72, 127
1, 532380, Control_c, 0, 67, 8
1, 532395, Control_c, 0, 67, 9
1, 532410, Control_c, 0, 67, 10
1, 532425, Control_c, 0, 64, 123
1, 532425, Control_c, 0, 67, 12
1, 532427, Note_on_c, 0, 47, 40
1, 532440, Control_c, 0, 64, 120
1, 532440, Control_c, 0, 67, 14
1, 532454, Control_c, 0, 64, 118
1, 532454, Control_c, 0, 67, 16
1, 532469, Control_c, 0, 64, 117
1, 532469, Control_c, 0, 67, 17
1, 532484, Control_c, 0, 64, 115
1, 532484, Control_c, 0, 67, 19
1, 532499, Control_c, 0, 64, 114
1, 532499, Control_c, 0, 67, 21
1, 532513, Control_c, 0, 64, 114
1, 532513, Control_c, 0, 67, 24
1, 532528, Control_c, 0, 64, 113
1, 532528, Control_c, 0, 67, 27
1, 532543, Control_c, 0, 64, 113
1, 532543, Control_c, 0, 67, 30
1, 532558, Control_c, 0, 67, 32
1, 532573, Control_c, 0, 67, 34
1, 532581, Note_off_c, 0, 55, 28
1, 532587, Control_c, 0, 64, 112
1, 532587, Control_c, 0, 67, 37
1, 532602, Control_c, 0, 64, 112
1, 532602, Control_c, 0, 67, 40
1, 532617, Control_c, 0, 64, 111
1, 532617, Control_c, 0, 67, 43
1, 532632, Control_c, 0, 64, 110
1, 532632, Control_c, 0, 67, 46
1, 532646, Control_c, 0, 64, 109
1, 532646, Control_c, 0, 67, 48
1, 532661, Control_c, 0, 64, 108
1, 532661, Control_c, 0, 67, 49
1, 532676, Control_c, 0, 64, 107
1, 532676, Control_c, 0, 67, 50
1, 532691, Control_c, 0, 64, 107
1, 532691, Control_c, 0, 67, 52
1, 532706, Control_c, 0, 64, 106
1, 532706, Control_c, 0, 67, 54
1, 532721, Control_c, 0, 64, 105
1, 532721, Control_c, 0, 67, 57
1, 532736, Control_c, 0, 64, 105
1, 532736, Control_c, 0, 67, 60
1, 532751, Control_c, 0, 64, 104
1, 532751, Control_c, 0, 67, 62
1, 532766, Control_c, 0, 64, 104
1, 532766, Control_c, 0, 67, 65
1, 532780, Control_c, 0, 64, 103
1, 532780, Control_c, 0, 67, 66
1, 532795, Control_c, 0, 64, 103
1, 532795, Control_c, 0, 67, 68
1, 532810, Control_c, 0, 67, 70
1, 532825, Control_c, 0, 64, 102
1, 532825, Control_c, 0, 67, 71
1, 532839, Control_c, 0, 64, 101
1, 532839, Control_c, 0, 67, 73
1, 532854, Control_c, 0, 64, 101
1, 532854, Control_c, 0, 67, 74
1, 532869, Control_c, 0, 64, 100
1, 532869, Control_c, 0, 67, 76
1, 532884, Control_c, 0, 64, 100
1, 532884, Control_c, 0, 67, 79
1, 532899, Control_c, 0, 64, 99
1, 532899, Control_c, 0, 67, 82
1, 532913, Control_c, 0, 64, 98
1, 532913, Control_c, 0, 67, 85
1, 532928, Control_c, 0, 64, 98
1, 532928, Control_c, 0, 67, 87
1, 532943, Control_c, 0, 64, 97
1, 532943, Control_c, 0, 67, 90
1, 532957, Control_c, 0, 64, 97
1, 532957, Control_c, 0, 67, 92
1, 532972, Control_c, 0, 64, 96
1, 532972, Control_c, 0, 67, 95
1, 532986, Control_c, 0, 64, 95
1, 532986, Control_c, 0, 67, 97
1, 533001, Control_c, 0, 64, 94
1, 533001, Control_c, 0, 67, 100
1, 533016, Control_c, 0, 64, 93
1, 533016, Control_c, 0, 67, 101
1, 533031, Control_c, 0, 64, 92
1, 533031, Control_c, 0, 67, 101
1, 533046, Control_c, 0, 64, 91
1, 533046, Control_c, 0, 67, 102
1, 533061, Control_c, 0, 64, 90
1, 533083, Control_c, 0, 64, 89
1, 533083, Control_c, 0, 67, 102
1, 533098, Control_c, 0, 64, 88
1, 533112, Control_c, 0, 64, 87
1, 533112, Control_c, 0, 67, 103
1, 533127, Control_c, 0, 64, 86
1, 533142, Control_c, 0, 64, 84
1, 533142, Control_c, 0, 67, 103
1, 533156, Note_on_c, 0, 40, 36
1, 533158, Control_c, 0, 64, 81
1, 533173, Control_c, 0, 64, 78
1, 533173, Control_c, 0, 67, 104
1, 533188, Control_c, 0, 64, 73
1, 533202, Control_c, 0, 64, 68
1, 533202, Control_c, 0, 67, 104
1, 533217, Control_c, 0, 64, 67
1, 533232, Control_c, 0, 64, 68
1, 533247, Control_c, 0, 64, 68
1, 533261, Control_c, 0, 64, 69
1, 533276, Control_c, 0, 64, 70
1, 533291, Control_c, 0, 64, 72
1, 533306, Control_c, 0, 64, 75
1, 533306, Control_c, 0, 67, 105
1, 533321, Control_c, 0, 64, 78
1, 533335, Control_c, 0, 64, 80
1, 533350, Control_c, 0, 64, 83
1, 533365, Control_c, 0, 64, 86
1, 533380, Control_c, 0, 64, 88
1, 533395, Control_c, 0, 64, 90
1, 533410, Control_c, 0, 64, 92
1, 533410, Note_off_c, 0, 40, 38
1, 533424, Control_c, 0, 64, 94
1, 533439, Control_c, 0, 64, 96
1, 533454, Control_c, 0, 64, 98
1, 533469, Control_c, 0, 64, 101
1, 533484, Control_c, 0, 64, 103
1, 533487, Note_off_c, 0, 47, 37
1, 533499, Control_c, 0, 64, 105
1, 533514, Control_c, 0, 64, 105
1, 533528, Control_c, 0, 64, 106
1, 533602, Control_c, 0, 67, 105
1, 533722, Control_c, 0, 67, 106
1, 533810, Control_c, 0, 64, 106
1, 533848, Control_c, 0, 64, 107
1, 533877, Control_c, 0, 64, 107
1, 533892, Control_c, 0, 64, 108
1, 533907, Control_c, 0, 64, 109
1, 533922, Control_c, 0, 64, 109
1, 533936, Control_c, 0, 64, 110
1, 533967, Control_c, 0, 64, 110
1, 533982, Control_c, 0, 64, 111
1, 533997, Control_c, 0, 64, 112
1, 534012, Control_c, 0, 64, 113
1, 534027, Control_c, 0, 64, 114
1, 534041, Control_c, 0, 64, 115
1, 534056, Control_c, 0, 64, 117
1, 534071, Control_c, 0, 64, 120
1, 534085, Control_c, 0, 64, 127
1, 534114, Note_on_c, 0, 59, 39
1, 534151, Note_off_c, 0, 59, 53
1, 534598, Note_on_c, 0, 58, 41
1, 534702, Note_off_c, 0, 64, 1
1, 534835, Note_off_c, 0, 76, 30
1, 534857, Poly_aftertouch_c, 0, 72, 0
1, 534869, Note_off_c, 0, 58, 39
1, 534871, Note_on_c, 0, 57, 46
1, 534947, Note_off_c, 0, 71, 44
1, 534968, Control_c, 0, 67, 106
1, 534997, Control_c, 0, 67, 107
1, 535034, Note_off_c, 0, 57, 49
1, 535041, Control_c, 0, 64, 126
1, 535056, Control_c, 0, 64, 121
1, 535056, Control_c, 0, 67, 107
1, 535063, Note_on_c, 0, 55, 45
1, 535071, Control_c, 0, 64, 118
1, 535086, Control_c, 0, 64, 115
1, 535086, Control_c, 0, 67, 111
1, 535100, Control_c, 0, 64, 113
1, 535100, Control_c, 0, 67, 117
1, 535115, Control_c, 0, 64, 112
1, 535115, Control_c, 0, 67, 125
1, 535130, Control_c, 0, 64, 111
1, 535130, Control_c, 0, 67, 127
1, 535145, Control_c, 0, 64, 110
1, 535160, Control_c, 0, 64, 109
1, 535174, Control_c, 0, 64, 108
1, 535189, Control_c, 0, 64, 107
1, 535204, Control_c, 0, 64, 106
1, 535219, Control_c, 0, 64, 106
1, 535234, Control_c, 0, 64, 105
1, 535249, Control_c, 0, 64, 104
1, 535264, Control_c, 0, 64, 103
1, 535277, Note_on_c, 0, 47, 43
1, 535279, Control_c, 0, 64, 102
1, 535293, Control_c, 0, 64, 101
1, 535308, Control_c, 0, 64, 99
1, 535330, Control_c, 0, 64, 98
1, 535345, Control_c, 0, 64, 96
1, 535360, Control_c, 0, 64, 96
1, 535375, Control_c, 0, 64, 94
1, 535389, Control_c, 0, 64, 92
1, 535404, Control_c, 0, 64, 89
1, 535419, Control_c, 0, 64, 85
1, 535434, Control_c, 0, 64, 83
1, 535448, Control_c, 0, 64, 80
1, 535463, Control_c, 0, 64, 77
1, 535478, Control_c, 0, 64, 74
1, 535493, Control_c, 0, 64, 73
1, 535553, Control_c, 0, 64, 74
1, 535568, Control_c, 0, 64, 75
1, 535583, Control_c, 0, 64, 76
1, 535598, Control_c, 0, 64, 78
1, 535612, Control_c, 0, 64, 79
1, 535627, Control_c, 0, 64, 81
1, 535642, Control_c, 0, 64, 82
1, 535657, Control_c, 0, 64, 83
1, 535672, Control_c, 0, 64, 84
1, 535687, Control_c, 0, 64, 85
1, 535702, Control_c, 0, 64, 85
1, 535717, Control_c, 0, 64, 86
1, 535731, Control_c, 0, 64, 86
1, 535746, Control_c, 0, 64, 87
1, 535761, Control_c, 0, 64, 88
1, 535776, Control_c, 0, 64, 90
1, 535791, Control_c, 0, 64, 90
1, 535817, Note_on_c, 0, 67, 39
1, 535820, Control_c, 0, 64, 91
1, 535835, Control_c, 0, 64, 92
1, 535849, Control_c, 0, 64, 93
1, 535864, Control_c, 0, 64, 94
1, 535909, Control_c, 0, 64, 94
1, 535923, Control_c, 0, 64, 95
1, 535938, Control_c, 0, 64, 97
1, 535953, Control_c, 0, 64, 98
1, 535968, Control_c, 0, 64, 99
1, 535983, Control_c, 0, 64, 99
1, 535997, Control_c, 0, 64, 101
1, 536012, Control_c, 0, 64, 104
1, 536017, Note_off_c, 0, 47, 40
1, 536027, Control_c, 0, 64, 107
1, 536042, Control_c, 0, 64, 111
1, 536057, Control_c, 0, 64, 115
1, 536079, Control_c, 0, 64, 123
1, 536094, Control_c, 0, 64, 127
1, 536098, Note_off_c, 0, 55, 34
1, 536140, Note_off_c, 0, 67, 51
1, 536140, Note_on_c, 0, 66, 47
1, 536263, Note_off_c, 0, 66, 56
1, 536318, Note_on_c, 0, 65, 48
1, 536467, Note_on_c, 0, 64, 53
1, 536492, Note_off_c, 0, 65, 36
1, 536581, Note_off_c, 0, 64, 58
1, 536596, Note_on_c, 0, 55, 49
1, 536648, Note_off_c, 0, 55, 58
1, 536687, Control_c, 0, 67, 125
1, 536703, Control_c, 0, 67, 121
1, 536718, Control_c, 0, 67, 115
1, 536721, Note_on_c, 0, 71, 53
1, 536733, Control_c, 0, 67, 109
1, 536747, Control_c, 0, 67, 101
1, 536762, Control_c, 0, 67, 93
1, 536777, Control_c, 0, 67, 83
1, 536792, Control_c, 0, 67, 71
1, 536806, Control_c, 0, 67, 55
1, 536829, Control_c, 0, 67, 41
1, 536844, Control_c, 0, 67, 29
1, 536855, Note_on_c, 0, 70, 64
1, 536858, Control_c, 0, 67, 20
1, 536873, Control_c, 0, 67, 13
1, 536885, Note_off_c, 0, 71, 54
1, 536888, Control_c, 0, 67, 8
1, 536903, Control_c, 0, 67, 0
1, 536936, Note_off_c, 0, 70, 62
1, 536948, Note_on_c, 0, 69, 72
1, 536989, Note_off_c, 0, 69, 63
1, 537065, Note_on_c, 0, 67, 73
1, 537169, Note_on_c, 0, 64, 72
1, 537180, Note_off_c, 0, 67, 39
1, 537288, Note_off_c, 0, 64, 65
1, 537291, Note_on_c, 0, 55, 70
1, 537326, Note_off_c, 0, 55, 66
1, 537470, Note_on_c, 0, 40, 50
1, 537565, Note_on_c, 0, 47, 55
1, 537594, Note_on_c, 0, 56, 65
1, 537657, Note_on_c, 0, 62, 69
1, 537666, Control_c, 0, 64, 113
1, 537681, Control_c, 0, 64, 95
1, 537696, Control_c, 0, 64, 82
1, 537710, Control_c, 0, 64, 70
1, 537725, Control_c, 0, 64, 54
1, 537740, Control_c, 0, 64, 0
1, 537754, Note_on_c, 0, 65, 76
1, 537770, Control_c, 0, 64, 44
1, 537784, Control_c, 0, 64, 64
1, 537799, Control_c, 0, 64, 72
1, 537814, Control_c, 0, 64, 87
1, 537828, Control_c, 0, 64, 127
1, 537882, Note_off_c, 0, 56, 62
1, 537895, Note_off_c, 0, 62, 56
1, 537911, Note_off_c, 0, 65, 62
1, 538094, Note_on_c, 0, 74, 71
1, 538282, Note_on_c, 0, 73, 67
1, 538295, Note_off_c, 0, 74, 54
1, 538374, Note_off_c, 0, 73, 62
1, 538432, Note_on_c, 0, 72, 61
1, 538550, Note_off_c, 0, 72, 49
1, 538574, Note_on_c, 0, 71, 52
1, 538670, Note_off_c, 0, 71, 60
1, 538681, Control_c, 0, 67, 11
1, 538696, Control_c, 0, 67, 13
1, 538711, Control_c, 0, 67, 15
1, 538722, Note_on_c, 0, 62, 48
1, 538725, Control_c, 0, 67, 18
1, 538741, Control_c, 0, 67, 23
1, 538756, Control_c, 0, 67, 29
1, 538767, Note_off_c, 0, 62, 56
1, 538771, Control_c, 0, 67, 35
1, 538782, Note_off_c, 0, 40, 57
1, 538786, Control_c, 0, 67, 41
1, 538801, Control_c, 0, 67, 48
1, 538802, Note_off_c, 0, 47, 35
1, 538815, Control_c, 0, 67, 59
1, 538830, Control_c, 0, 67, 71
1, 538845, Control_c, 0, 67, 84
1, 538860, Control_c, 0, 67, 96
1, 538874, Control_c, 0, 64, 122
1, 538874, Control_c, 0, 67, 107
1, 538889, Control_c, 0, 64, 116
1, 538889, Control_c, 0, 67, 118
1, 538904, Control_c, 0, 64, 111
1, 538904, Control_c, 0, 67, 127
1, 538919, Control_c, 0, 64, 108
1, 538934, Control_c, 0, 64, 105
1, 538941, Note_on_c, 0, 34, 46
1, 538948, Control_c, 0, 64, 103
1, 538963, Control_c, 0, 64, 101
1, 538978, Control_c, 0, 64, 98
1, 538993, Control_c, 0, 64, 94
1, 539008, Control_c, 0, 64, 90
1, 539023, Control_c, 0, 64, 87
1, 539037, Control_c, 0, 64, 82
1, 539047, Note_on_c, 0, 41, 39
1, 539052, Control_c, 0, 64, 78
1, 539068, Note_off_c, 0, 34, 54
1, 539074, Control_c, 0, 64, 73
1, 539089, Control_c, 0, 64, 68
1, 539104, Control_c, 0, 64, 65
1, 539119, Control_c, 0, 64, 64
1, 539133, Note_on_c, 0, 53, 38
1, 539134, Control_c, 0, 64, 63
1, 539165, Note_on_c, 0, 58, 53
1, 539193, Control_c, 0, 64, 63
1, 539199, Note_on_c, 0, 49, 37
1, 539207, Control_c, 0, 64, 62
1, 539237, Control_c, 0, 64, 62
1, 539265, Note_on_c, 0, 61, 46
1, 539282, Control_c, 0, 64, 62
1, 539297, Control_c, 0, 64, 64
1, 539312, Control_c, 0, 64, 66
1, 539327, Control_c, 0, 64, 68
1, 539342, Control_c, 0, 64, 70
1, 539356, Control_c, 0, 64, 73
1, 539371, Control_c, 0, 64, 78
1, 539386, Control_c, 0, 64, 84
1, 539400, Control_c, 0, 64, 89
1, 539415, Control_c, 0, 64, 93
1, 539430, Control_c, 0, 64, 96
1, 539431, Note_off_c, 0, 53, 44
1, 539442, Note_on_c, 0, 65, 49
1, 539445, Control_c, 0, 64, 101
1, 539460, Control_c, 0, 64, 109
1, 539474, Control_c, 0, 64, 127
1, 539496, Note_off_c, 0, 58, 27
1, 539497, Note_off_c, 0, 61, 55
1, 539544, Note_off_c, 0, 65, 55
1, 539785, Control_c, 0, 67, 127
1, 539800, Control_c, 0, 67, 123
1, 539821, Control_c, 0, 67, 119
1, 539836, Control_c, 0, 67, 114
1, 539842, Note_on_c, 0, 77, 67
1, 539851, Control_c, 0, 67, 108
1, 539866, Control_c, 0, 67, 100
1, 539881, Control_c, 0, 67, 92
1, 539896, Control_c, 0, 67, 82
1, 539911, Control_c, 0, 67, 70
1, 539926, Control_c, 0, 67, 60
1, 539926, Note_off_c, 0, 77, 61
1, 539941, Control_c, 0, 67, 48
1, 539949, Note_on_c, 0, 76, 72
1, 539956, Control_c, 0, 67, 33
1, 539970, Control_c, 0, 67, 10
1, 539982, Note_off_c, 0, 76, 58
1, 539985, Control_c, 0, 67, 0
1, 540020, Note_on_c, 0, 75, 81
1, 540045, Note_on_c, 0, 40, 26
1, 540071, Note_on_c, 0, 73, 77
1, 540099, Note_off_c, 0, 75, 64
1, 540123, Note_on_c, 0, 70, 65
1, 540129, Note_off_c, 0, 73, 64
1, 540152, Note_off_c, 0, 70, 66
1, 540161, Note_on_c, 0, 65, 72
1, 540183, Note_off_c, 0, 65, 66
1, 540192, Control_c, 0, 67, 13
1, 540206, Note_off_c, 0, 40, 38
1, 540207, Control_c, 0, 67, 32
1, 540221, Control_c, 0, 67, 55
1, 540236, Control_c, 0, 67, 78
1, 540251, Note_on_c, 0, 64, 74
1, 540251, Control_c, 0, 67, 97
1, 540256, Note_off_c, 0, 49, 42
1, 540266, Control_c, 0, 67, 109
1, 540281, Control_c, 0, 67, 114
1, 540295, Control_c, 0, 67, 122
1, 540301, Note_on_c, 0, 63, 65
1, 540307, Note_off_c, 0, 64, 56
1, 540310, Control_c, 0, 67, 127
1, 540363, Note_on_c, 0, 61, 61
1, 540367, Note_off_c, 0, 63, 61
1, 540371, Note_off_c, 0, 41, 38
1, 540402, Note_on_c, 0, 58, 61
1, 540409, Note_off_c, 0, 61, 60
1, 540415, Control_c, 0, 64, 102
1, 540430, Control_c, 0, 64, 84
1, 540444, Note_off_c, 0, 58, 56
1, 540445, Control_c, 0, 64, 68
1, 540460, Control_c, 0, 64, 0
1, 540537, Poly_aftertouch_c, 0, 55, 127
1, 540571, Note_on_c, 0, 49, 54
1, 540587, Control_c, 0, 64, 53
1, 540601, Control_c, 0, 64, 70
1, 540611, Note_off_c, 0, 49, 64
1, 540616, Control_c, 0, 64, 88
1, 540620, Note_on_c, 0, 41, 30
1, 540620, Poly_aftertouch_c, 0, 55, 0
1, 540631, Control_c, 0, 64, 127
1, 540683, Note_off_c, 0, 41, 45
1, 540709, Note_on_c, 0, 34, 44
1, 540743, Note_off_c, 0, 34, 53
1, 540797, Note_on_c, 0, 65, 57
1, 540815, Note_on_c, 0, 61, 43
1, 540821, Note_on_c, 0, 58, 39
1, 540823, Control_c, 0, 64, 105
1, 540838, Control_c, 0, 64, 84
1, 540853, Control_c, 0, 64, 68
1, 540868, Control_c, 0, 64, 23
1, 540883, Control_c, 0, 64, 0
1, 540892, Note_off_c, 0, 58, 0
1, 540912, Control_c, 0, 64, 62
1, 540924, Note_on_c, 0, 57, 58
1, 540927, Control_c, 0, 64, 70
1, 540928, Note_on_c, 0, 49, 65
1, 540940, Poly_aftertouch_c, 0, 58, 0
1, 540942, Control_c, 0, 64, 79
1, 540946, Note_off_c, 0, 57, 60
1, 540951, Note_off_c, 0, 61, 25
1, 540957, Control_c, 0, 64, 90
1, 540971, Control_c, 0, 64, 101
1, 540986, Control_c, 0, 64, 127
1, 540995, Note_off_c, 0, 49, 44
1, 541014, Note_on_c, 0, 41, 54
1, 541037, Note_off_c, 0, 65, 0
1, 541042, Note_off_c, 0, 41, 56
1, 541073, Poly_aftertouch_c, 0, 65, 127
1, 541080, Note_on_c, 0, 61, 51
1, 541085, Note_on_c, 0, 69, 65
1, 541090, Control_c, 0, 64, 120
1, 541093, Note_on_c, 0, 60, 52
1, 541105, Control_c, 0, 64, 86
1, 541119, Control_c, 0, 64, 64
1, 541134, Control_c, 0, 64, 0
1, 541178, Note_on_c, 0, 49, 78
1, 541190, Note_off_c, 0, 60, 53
1, 541191, Note_off_c, 0, 69, 58
1, 541203, Note_off_c, 0, 49, 66
1, 541209, Control_c, 0, 64, 58
1, 541210, Note_on_c, 0, 40, 17
1, 541224, Control_c, 0, 64, 80
1, 541237, Note_off_c, 0, 61, 31
1, 541239, Control_c, 0, 64, 127
1, 541258, Note_on_c, 0, 34, 70
1, 541258, Poly_aftertouch_c, 0, 65, 0
1, 541274, Poly_aftertouch_c, 0, 41, 127
1, 541288, Note_off_c, 0, 34, 62
1, 541300, Poly_aftertouch_c, 0, 41, 0
1, 541303, Note_off_c, 0, 40, 43
1, 541342, Note_on_c, 0, 65, 70
1, 541358, Note_on_c, 0, 58, 59
1, 541364, Note_on_c, 0, 61, 53
1, 541380, Control_c, 0, 64, 89
1, 541394, Control_c, 0, 64, 65
1, 541409, Control_c, 0, 64, 0
1, 541440, Note_on_c, 0, 56, 83
1, 541451, Note_off_c, 0, 58, 58
1, 541452, Note_on_c, 0, 49, 64
1, 541454, Control_c, 0, 64, 57
1, 541467, Note_off_c, 0, 61, 49
1, 541468, Note_off_c, 0, 56, 67
1, 541468, Control_c, 0, 64, 77
1, 541483, Control_c, 0, 64, 99
1, 541498, Control_c, 0, 64, 127
1, 541535, Note_on_c, 0, 41, 62
1, 541536, Note_off_c, 0, 49, 58
1, 541564, Note_off_c, 0, 41, 64
1, 541591, Note_off_c, 0, 65, 0
1, 541598, Note_on_c, 0, 68, 71
1, 541608, Note_on_c, 0, 60, 59
1, 541609, Note_on_c, 0, 61, 48
1, 541616, Note_on_c, 0, 65, 13
1, 541631, Control_c, 0, 64, 110
1, 541646, Control_c, 0, 64, 80
1, 541661, Control_c, 0, 64, 60
1, 541676, Control_c, 0, 64, 0
1, 541680, Note_on_c, 0, 49, 76
1, 541696, Note_off_c, 0, 60, 57
1, 541710, Note_on_c, 0, 40, 38
1, 541715, Note_off_c, 0, 49, 66
1, 541720, Control_c, 0, 64, 53
1, 541732, Note_off_c, 0, 61, 35
1, 541735, Control_c, 0, 64, 71
1, 541738, Note_off_c, 0, 68, 50
1, 541750, Control_c, 0, 64, 84
1, 541762, Note_off_c, 0, 65, 33
1, 541765, Control_c, 0, 64, 97
1, 541775, Note_on_c, 0, 34, 68
1, 541780, Control_c, 0, 64, 108
1, 541794, Control_c, 0, 64, 112
1, 541805, Note_off_c, 0, 34, 63
1, 541809, Control_c, 0, 64, 113
1, 541817, Note_off_c, 0, 40, 37
1, 541824, Control_c, 0, 64, 113
1, 541839, Control_c, 0, 64, 114
1, 541850, Note_on_c, 0, 65, 69
1, 541854, Control_c, 0, 64, 113
1, 541864, Note_on_c, 0, 61, 45
1, 541866, Note_on_c, 0, 58, 59
1, 541868, Control_c, 0, 64, 106
1, 541883, Control_c, 0, 64, 95
1, 541898, Control_c, 0, 64, 81
1, 541913, Control_c, 0, 64, 67
1, 541928, Control_c, 0, 64, 19
1, 541944, Control_c, 0, 64, 0
1, 541951, Note_off_c, 0, 58, 56
1, 541967, Note_on_c, 0, 55, 58
1, 541973, Control_c, 0, 64, 58
1, 541980, Note_on_c, 0, 49, 55
1, 541988, Control_c, 0, 64, 67
1, 542003, Control_c, 0, 64, 74
1, 542011, Note_off_c, 0, 55, 56
1, 542014, Note_off_c, 0, 61, 31
1, 542017, Control_c, 0, 64, 82
1, 542032, Control_c, 0, 64, 93
1, 542047, Note_off_c, 0, 65, 49
1, 542047, Control_c, 0, 64, 102
1, 542069, Control_c, 0, 64, 109
1, 542075, Note_on_c, 0, 41, 51
1, 542084, Note_off_c, 0, 49, 58
1, 542084, Control_c, 0, 64, 113
1, 542099, Control_c, 0, 64, 116
1, 542108, Note_off_c, 0, 41, 54
1, 542114, Control_c, 0, 64, 117
1, 542135, Note_on_c, 0, 67, 63
1, 542144, Control_c, 0, 64, 110
1, 542145, Note_on_c, 0, 60, 49
1, 542158, Control_c, 0, 64, 99
1, 542166, Note_on_c, 0, 61, 41
1, 542173, Control_c, 0, 64, 83
1, 542188, Control_c, 0, 64, 65
1, 542191, Poly_aftertouch_c, 0, 65, 127
1, 542192, Note_on_c, 0, 65, 3
1, 542203, Control_c, 0, 64, 0
1, 542234, Note_on_c, 0, 49, 63
1, 542244, Note_on_c, 0, 41, 41
1, 542277, Control_c, 0, 64, 62
1, 542278, Note_off_c, 0, 60, 50
1, 542281, Note_off_c, 0, 49, 62
1, 542291, Control_c, 0, 64, 75
1, 542306, Control_c, 0, 64, 89
1, 542321, Control_c, 0, 64, 108
1, 542336, Control_c, 0, 64, 110
1, 542347, Note_off_c, 0, 61, 38
1, 542347, Note_off_c, 0, 65, 36
1, 542365, Note_on_c, 0, 34, 54
1, 542365, Control_c, 0, 64, 110
1, 542380, Control_c, 0, 64, 111
1, 542395, Note_off_c, 0, 41, 43
1, 542395, Control_c, 0, 64, 114
1, 542406, Note_off_c, 0, 34, 60
1, 542407, Note_off_c, 0, 67, 54
1, 542410, Control_c, 0, 64, 115
1, 542424, Control_c, 0, 64, 115
1, 542439, Control_c, 0, 64, 112
1, 542451, Note_on_c, 0, 65, 59
1, 542454, Control_c, 0, 64, 101
1, 542464, Note_on_c, 0, 58, 46
1, 542469, Control_c, 0, 64, 86
1, 542483, Note_on_c, 0, 61, 27
1, 542484, Control_c, 0, 64, 71
1, 542498, Control_c, 0, 64, 43
1, 542513, Control_c, 0, 64, 0
1, 542543, Control_c, 0, 64, 63
1, 542558, Control_c, 0, 64, 72
1, 542573, Control_c, 0, 64, 81
1, 542582, Note_on_c, 0, 54, 55
1, 542588, Control_c, 0, 64, 93
1, 542595, Note_on_c, 0, 49, 45
1, 542603, Control_c, 0, 64, 105
1, 542617, Control_c, 0, 64, 113
1, 542632, Note_off_c, 0, 54, 55
1, 542632, Control_c, 0, 64, 115
1, 542638, Note_off_c, 0, 65, 52
1, 542647, Control_c, 0, 64, 116
1, 542647, Note_off_c, 0, 49, 0
1, 542647, Note_on_c, 0, 49, 14
1, 542656, Note_off_c, 0, 58, 43
1, 542662, Note_off_c, 0, 61, 33
1, 542737, Control_c, 0, 64, 115
1, 542741, Note_on_c, 0, 42, 46
1, 542781, Control_c, 0, 64, 115
1, 542787, Note_off_c, 0, 49, 36
1, 542796, Control_c, 0, 64, 114
1, 542818, Note_off_c, 0, 42, 55
1, 542818, Control_c, 0, 64, 113
1, 542833, Control_c, 0, 64, 112
1, 542838, Note_on_c, 0, 61, 37
1, 542839, Note_on_c, 0, 66, 54
1, 542846, Note_on_c, 0, 54, 37
1, 542854, Note_on_c, 0, 58, 23
1, 542922, Control_c, 0, 64, 111
1, 542937, Control_c, 0, 64, 110
1, 542951, Control_c, 0, 64, 105
1, 542966, Control_c, 0, 64, 96
1, 542981, Control_c, 0, 64, 84
1, 542993, Note_on_c, 0, 34, 51
1, 542996, Control_c, 0, 64, 67
1, 543011, Control_c, 0, 64, 0
1, 543085, Control_c, 0, 64, 61
1, 543100, Control_c, 0, 64, 74
1, 543114, Control_c, 0, 64, 89
1, 543118, Note_on_c, 0, 42, 45
1, 543129, Control_c, 0, 64, 114
1, 543144, Control_c, 0, 64, 127
1, 543182, Note_off_c, 0, 34, 52
1, 543206, Note_off_c, 0, 42, 55
1, 543354, Note_on_c, 0, 53, 63
1, 543425, Control_c, 0, 67, 124
1, 543440, Control_c, 0, 67, 119
1, 543454, Note_off_c, 0, 53, 62
1, 543455, Control_c, 0, 67, 112
1, 543470, Control_c, 0, 67, 102
1, 543485, Control_c, 0, 67, 92
1, 543500, Control_c, 0, 67, 81
1, 543514, Control_c, 0, 67, 72
1, 543530, Control_c, 0, 67, 63
1, 543545, Control_c, 0, 67, 55
1, 543567, Control_c, 0, 67, 46
1, 543582, Control_c, 0, 67, 38
1, 543597, Control_c, 0, 67, 30
1, 543612, Control_c, 0, 67, 24
1, 543626, Control_c, 0, 67, 18
1, 543634, Note_on_c, 0, 52, 58
1, 543641, Control_c, 0, 67, 10
1, 543656, Control_c, 0, 67, 0
1, 543765, Note_off_c, 0, 52, 61
1, 543786, Note_on_c, 0, 51, 57
1, 543834, Control_c, 0, 64, 122
1, 543849, Control_c, 0, 64, 119
1, 543863, Control_c, 0, 64, 117
1, 543878, Control_c, 0, 64, 115
1, 543893, Control_c, 0, 64, 114
1, 543896, Note_off_c, 0, 51, 53
1, 543908, Control_c, 0, 64, 113
1, 543923, Control_c, 0, 64, 111
1, 543937, Control_c, 0, 64, 105
1, 543942, Note_on_c, 0, 49, 61
1, 543952, Control_c, 0, 64, 99
1, 543967, Control_c, 0, 64, 95
1, 543982, Control_c, 0, 64, 92
1, 543996, Control_c, 0, 64, 90
1, 544011, Control_c, 0, 64, 88
1, 544026, Control_c, 0, 64, 87
1, 544041, Control_c, 0, 64, 85
1, 544056, Control_c, 0, 64, 84
1, 544070, Control_c, 0, 64, 82
1, 544085, Control_c, 0, 64, 81
1, 544108, Note_on_c, 0, 46, 56
1, 544174, Control_c, 0, 64, 81
1, 544194, Note_off_c, 0, 66, 31
1, 544203, Control_c, 0, 64, 80
1, 544218, Control_c, 0, 64, 79
1, 544233, Control_c, 0, 64, 79
1, 544248, Control_c, 0, 64, 78
1, 544263, Control_c, 0, 64, 77
1, 544278, Control_c, 0, 64, 77
1, 544293, Control_c, 0, 64, 76
1, 544315, Control_c, 0, 64, 75
1, 544330, Control_c, 0, 64, 74
1, 544333, Note_off_c, 0, 61, 44
1, 544346, Control_c, 0, 64, 73
1, 544359, Note_on_c, 0, 42, 59
1, 544360, Control_c, 0, 64, 73
1, 544375, Control_c, 0, 64, 72
1, 544390, Control_c, 0, 64, 71
1, 544400, Note_off_c, 0, 46, 58
1, 544405, Control_c, 0, 64, 70
1, 544419, Control_c, 0, 64, 69
1, 544434, Control_c, 0, 64, 68
1, 544449, Control_c, 0, 64, 68
1, 544464, Control_c, 0, 64, 67
1, 544479, Control_c, 0, 64, 66
1, 544493, Control_c, 0, 64, 66
1, 544508, Control_c, 0, 64, 64
1, 544523, Control_c, 0, 64, 63
1, 544538, Control_c, 0, 64, 62
1, 544553, Control_c, 0, 64, 61
1, 544567, Control_c, 0, 64, 60
1, 544582, Control_c, 0, 64, 59
1, 544597, Control_c, 0, 64, 56
1, 544612, Control_c, 0, 64, 52
1, 544627, Control_c, 0, 64, 47
1, 544656, Control_c, 0, 64, 52
1, 544671, Control_c, 0, 64, 56
1, 544686, Control_c, 0, 64, 59
1, 544701, Control_c, 0, 64, 62
1, 544716, Control_c, 0, 64, 64
1, 544731, Control_c, 0, 64, 66
1, 544746, Control_c, 0, 64, 69
1, 544760, Control_c, 0, 64, 71
1, 544775, Control_c, 0, 64, 72
1, 544790, Control_c, 0, 64, 75
1, 544805, Control_c, 0, 64, 78
1, 544813, Note_on_c, 0, 60, 43
1, 544819, Control_c, 0, 64, 82
1, 544834, Control_c, 0, 64, 86
1, 544849, Control_c, 0, 64, 89
1, 544864, Control_c, 0, 64, 93
1, 544879, Control_c, 0, 64, 98
1, 544893, Control_c, 0, 64, 103
1, 544908, Control_c, 0, 64, 110
1, 544923, Control_c, 0, 64, 127
1, 544972, Note_off_c, 0, 49, 37
1, 545011, Note_off_c, 0, 58, 42
1, 545101, Note_on_c, 0, 59, 55
1, 545156, Note_off_c, 0, 54, 39
1, 545218, Note_off_c, 0, 42, 61
1, 545258, Note_on_c, 0, 58, 64
1, 545355, Note_off_c, 0, 60, 33
1, 545376, Note_off_c, 0, 59, 56
1, 545379, Note_on_c, 0, 54, 66
1, 545401, Note_off_c, 0, 58, 62
1, 545502, Note_off_c, 0, 54, 65
1, 545506, Note_on_c, 0, 49, 74
1, 545571, Note_off_c, 0, 49, 64
1, 545648, Note_on_c, 0, 65, 70
1, 545772, Note_on_c, 0, 64, 77
1, 545811, Note_off_c, 0, 65, 63
1, 545888, Note_on_c, 0, 63, 84
1, 545903, Note_off_c, 0, 64, 65
1, 545974, Note_off_c, 0, 63, 64
1, 545989, Note_on_c, 0, 61, 90
1, 546075, Note_on_c, 0, 58, 83
1, 546097, Note_off_c, 0, 61, 59
1, 546166, Note_on_c, 0, 56, 82
1, 546183, Note_off_c, 0, 58, 61
1, 546221, Note_off_c, 0, 56, 65
1, 546305, Note_on_c, 0, 39, 76
1, 546390, Note_on_c, 0, 46, 80
1, 546400, Note_on_c, 0, 55, 80
1, 546436, Control_c, 0, 64, 92
1, 546451, Control_c, 0, 64, 70
1, 546463, Note_on_c, 0, 61, 78
1, 546466, Control_c, 0, 64, 0
1, 546511, Control_c, 0, 64, 32
1, 546526, Control_c, 0, 64, 70
1, 546540, Note_on_c, 0, 64, 86
1, 546540, Control_c, 0, 64, 101
1, 546562, Control_c, 0, 64, 127
1, 546575, Note_off_c, 0, 55, 63
1, 546597, Note_off_c, 0, 61, 61
1, 546613, Note_off_c, 0, 64, 67
1, 546762, Note_on_c, 0, 73, 93
1, 546871, Note_off_c, 0, 73, 57
1, 546963, Note_on_c, 0, 72, 87
1, 547074, Note_off_c, 0, 72, 65
1, 547079, Note_on_c, 0, 71, 91
1, 547191, Note_on_c, 0, 70, 84
1, 547200, Note_off_c, 0, 71, 60
1, 547262, Note_off_c, 0, 70, 64
1, 547279, Note_off_c, 0, 46, 63
1, 547283, Note_on_c, 0, 61, 93
1, 547331, Note_off_c, 0, 61, 65
1, 547363, Note_on_c, 0, 33, 80
1, 547412, Note_off_c, 0, 39, 29
1, 547459, Note_on_c, 0, 40, 73
1, 547459, Note_off_c, 0, 33, 57
1, 547545, Poly_aftertouch_c, 0, 61, 0
1, 547554, Note_on_c, 0, 52, 80
1, 547576, Note_on_c, 0, 48, 89
1, 547596, Note_on_c, 0, 57, 69
1, 547606, Note_off_c, 0, 52, 65
1, 547608, Control_c, 0, 64, 83
1, 547623, Note_on_c, 0, 60, 72
1, 547623, Control_c, 0, 64, 0
1, 547648, Note_on_c, 0, 58, 50
1, 547669, Note_on_c, 0, 64, 93
1, 547676, Note_off_c, 0, 58, 57
1, 547680, Note_off_c, 0, 57, 63
1, 547689, Note_off_c, 0, 60, 68
1, 547697, Control_c, 0, 64, 77
1, 547712, Control_c, 0, 64, 127
1, 547714, Note_off_c, 0, 64, 68
1, 547911, Note_off_c, 0, 40, 38
1, 547917, Note_off_c, 0, 48, 61
1, 547927, Note_on_c, 0, 88, 94
1, 548180, Note_on_c, 0, 87, 67
1, 548213, Note_on_c, 0, 76, 107
1, 548217, Note_off_c, 0, 88, 52
1, 548267, Note_off_c, 0, 87, 64
1, 548356, Note_on_c, 0, 86, 77
1, 548401, Note_off_c, 0, 76, 58
1, 548437, Note_on_c, 0, 75, 100
1, 548467, Note_on_c, 0, 85, 68
1, 548473, Note_off_c, 0, 86, 60
1, 548494, Note_off_c, 0, 85, 68
1, 548551, Note_on_c, 0, 84, 78
1, 548609, Note_on_c, 0, 74, 105
1, 548622, Note_off_c, 0, 75, 50
1, 548624, Note_on_c, 0, 81, 70
1, 548633, Note_off_c, 0, 84, 59
1, 548669, Note_off_c, 0, 81, 63
1, 548706, Note_on_c, 0, 76, 69
1, 548722, Note_off_c, 0, 74, 52
1, 548764, Note_on_c, 0, 72, 101
1, 548768, Note_off_c, 0, 76, 61
1, 548856, Note_on_c, 0, 75, 71
1, 548909, Note_off_c, 0, 75, 62
1, 548953, Note_on_c, 0, 76, 59
1, 548971, Note_on_c, 0, 74, 62
1, 548987, Note_off_c, 0, 76, 0
1, 548987, Note_on_c, 0, 76, 21
1, 548999, Note_off_c, 0, 74, 51
1, 549028, Note_off_c, 0, 76, 49
1, 549036, Note_on_c, 0, 73, 68
1, 549065, Note_on_c, 0, 69, 88
1, 549085, Note_off_c, 0, 72, 60
1, 549089, Note_off_c, 0, 73, 63
1, 549180, Note_on_c, 0, 64, 84
1, 549185, Note_off_c, 0, 69, 60
1, 549193, Note_on_c, 0, 72, 68
1, 549261, Note_off_c, 0, 64, 66
1, 549270, Note_off_c, 0, 72, 60
1, 549289, Note_on_c, 0, 69, 70
1, 549321, Note_off_c, 0, 69, 66
1, 549363, Note_on_c, 0, 64, 68
1, 549405, Note_off_c, 0, 64, 62
1, 549441, Note_on_c, 0, 63, 70
1, 549493, Note_off_c, 0, 63, 61
1, 549561, Note_on_c, 0, 62, 64
1, 549662, Note_on_c, 0, 60, 63
1, 549677, Note_off_c, 0, 62, 58
1, 549795, Note_on_c, 0, 57, 66
1, 549824, Control_c, 0, 64, 108
1, 549839, Control_c, 0, 64, 94
1, 549854, Control_c, 0, 64, 84
1, 549869, Control_c, 0, 64, 80
1, 549883, Control_c, 0, 64, 80
1, 549898, Control_c, 0, 67, 9
1, 549913, Control_c, 0, 64, 80
1, 549913, Control_c, 0, 67, 11
1, 549929, Control_c, 0, 64, 81
1, 549929, Control_c, 0, 67, 13
1, 549933, Note_off_c, 0, 57, 59
1, 549939, Note_off_c, 0, 60, 25
1, 549942, Note_on_c, 0, 52, 64
1, 549944, Control_c, 0, 64, 81
1, 549944, Control_c, 0, 67, 16
1, 549958, Control_c, 0, 64, 82
1, 549958, Control_c, 0, 67, 20
1, 549973, Control_c, 0, 67, 24
1, 549988, Control_c, 0, 64, 81
1, 549988, Control_c, 0, 67, 27
1, 550003, Control_c, 0, 67, 30
1, 550018, Control_c, 0, 67, 33
1, 550032, Control_c, 0, 67, 36
1, 550047, Control_c, 0, 67, 39
1, 550062, Control_c, 0, 67, 42
1, 550077, Control_c, 0, 67, 47
1, 550092, Control_c, 0, 67, 50
1, 550106, Control_c, 0, 64, 81
1, 550106, Control_c, 0, 67, 55
1, 550121, Control_c, 0, 64, 80
1, 550121, Control_c, 0, 67, 60
1, 550136, Control_c, 0, 64, 80
1, 550136, Control_c, 0, 67, 64
1, 550150, Control_c, 0, 67, 69
1, 550165, Control_c, 0, 64, 79
1, 550165, Control_c, 0, 67, 73
1, 550180, Control_c, 0, 67, 78
1, 550195, Control_c, 0, 64, 79
1, 550195, Control_c, 0, 67, 80
1, 550210, Control_c, 0, 64, 78
1, 550210, Control_c, 0, 67, 81
1, 550225, Control_c, 0, 67, 82
1, 550240, Control_c, 0, 67, 84
1, 550255, Control_c, 0, 64, 77
1, 550255, Control_c, 0, 67, 85
1, 550270, Control_c, 0, 64, 76
1, 550270, Control_c, 0, 67, 87
1, 550282, Note_on_c, 0, 51, 64
1, 550284, Control_c, 0, 64, 74
1, 550284, Control_c, 0, 67, 91
1, 550306, Control_c, 0, 64, 73
1, 550306, Control_c, 0, 67, 96
1, 550321, Control_c, 0, 64, 72
1, 550321, Control_c, 0, 67, 102
1, 550332, Note_off_c, 0, 52, 56
1, 550336, Control_c, 0, 64, 71
1, 550336, Control_c, 0, 67, 108
1, 550351, Control_c, 0, 67, 114
1, 550365, Control_c, 0, 67, 118
1, 550380, Control_c, 0, 67, 121
1, 550395, Control_c, 0, 67, 122
1, 550410, Control_c, 0, 67, 123
1, 550425, Note_on_c, 0, 52, 65
1, 550425, Control_c, 0, 67, 124
1, 550439, Control_c, 0, 67, 124
1, 550454, Control_c, 0, 67, 125
1, 550455, Note_off_c, 0, 51, 55
1, 550469, Control_c, 0, 67, 125
1, 550484, Control_c, 0, 67, 126
1, 550529, Control_c, 0, 67, 126
1, 550541, Note_on_c, 0, 53, 62
1, 550573, Control_c, 0, 67, 127
1, 550577, Note_off_c, 0, 52, 61
1, 550588, Control_c, 0, 67, 127
1, 550612, Note_on_c, 0, 38, 36
1, 550706, Control_c, 0, 64, 71
1, 550724, Note_on_c, 0, 45, 44
1, 550761, Note_off_c, 0, 53, 66
1, 550767, Control_c, 0, 64, 70
1, 550781, Control_c, 0, 64, 69
1, 550796, Control_c, 0, 64, 66
1, 550798, Note_on_c, 0, 54, 62
1, 550811, Control_c, 0, 64, 61
1, 550826, Control_c, 0, 64, 0
1, 550900, Control_c, 0, 64, 38
1, 550915, Control_c, 0, 64, 68
1, 550929, Control_c, 0, 64, 78
1, 550944, Control_c, 0, 64, 92
1, 550949, Note_on_c, 0, 60, 49
1, 550959, Control_c, 0, 64, 111
1, 550973, Control_c, 0, 64, 127
1, 551111, Note_off_c, 0, 54, 62
1, 551113, Note_on_c, 0, 63, 50
1, 551134, Note_off_c, 0, 60, 56
1, 551155, Note_off_c, 0, 63, 58
1, 551262, Control_c, 0, 67, 127
1, 551277, Control_c, 0, 67, 126
1, 551292, Control_c, 0, 67, 126
1, 551322, Control_c, 0, 67, 125
1, 551337, Note_on_c, 0, 72, 58
1, 551352, Control_c, 0, 67, 125
1, 551381, Control_c, 0, 67, 124
1, 551396, Control_c, 0, 67, 124
1, 551411, Control_c, 0, 67, 123
1, 551426, Control_c, 0, 67, 123
1, 551441, Control_c, 0, 67, 122
1, 551470, Control_c, 0, 67, 122
1, 551514, Control_c, 0, 67, 121
1, 551530, Control_c, 0, 67, 121
1, 551545, Control_c, 0, 67, 120
1, 551575, Control_c, 0, 67, 120
1, 551590, Note_on_c, 0, 71, 52
1, 551597, Note_off_c, 0, 72, 38
1, 551604, Control_c, 0, 67, 119
1, 551634, Control_c, 0, 67, 119
1, 551649, Control_c, 0, 67, 118
1, 551677, Control_c, 0, 67, 118
1, 551691, Control_c, 0, 67, 117
1, 551706, Control_c, 0, 67, 115
1, 551721, Control_c, 0, 67, 113
1, 551733, Note_on_c, 0, 70, 57
1, 551736, Control_c, 0, 67, 112
1, 551737, Note_off_c, 0, 71, 50
1, 551751, Control_c, 0, 67, 111
1, 551766, Control_c, 0, 67, 110
1, 551781, Control_c, 0, 67, 109
1, 551802, Control_c, 0, 67, 107
1, 551817, Control_c, 0, 67, 105
1, 551832, Control_c, 0, 67, 103
1, 551847, Control_c, 0, 67, 101
1, 551862, Control_c, 0, 67, 100
1, 551872, Note_off_c, 0, 70, 33
1, 551876, Control_c, 0, 67, 98
1, 551891, Note_on_c, 0, 69, 43
1, 551891, Control_c, 0, 67, 96
1, 551906, Control_c, 0, 67, 94
1, 551913, Note_off_c, 0, 69, 59
1, 551921, Control_c, 0, 67, 93
1, 551936, Control_c, 0, 67, 93
1, 551951, Control_c, 0, 67, 91
1, 551966, Control_c, 0, 67, 88
1, 551981, Note_off_c, 0, 38, 41
1, 551981, Control_c, 0, 67, 85
1, 551995, Control_c, 0, 67, 82
1, 552010, Control_c, 0, 67, 80
1, 552025, Control_c, 0, 67, 77
1, 552040, Control_c, 0, 67, 70
1, 552051, Note_on_c, 0, 60, 43
1, 552055, Control_c, 0, 67, 61
1, 552070, Control_c, 0, 67, 53
1, 552084, Control_c, 0, 67, 49
1, 552097, Note_off_c, 0, 45, 31
1, 552099, Control_c, 0, 67, 46
1, 552114, Note_off_c, 0, 60, 55
1, 552114, Control_c, 0, 67, 42
1, 552128, Control_c, 0, 67, 37
1, 552143, Control_c, 0, 67, 32
1, 552158, Control_c, 0, 67, 28
1, 552173, Control_c, 0, 67, 25
1, 552188, Control_c, 0, 67, 24
1, 552202, Control_c, 0, 67, 20
1, 552217, Control_c, 0, 67, 15
1, 552232, Control_c, 0, 67, 11
1, 552247, Control_c, 0, 67, 8
1, 552262, Control_c, 0, 67, 0
1, 552279, Note_on_c, 0, 30, 31
1, 552365, Note_on_c, 0, 42, 39
1, 552396, Control_c, 0, 64, 118
1, 552411, Control_c, 0, 64, 110
1, 552424, Note_on_c, 0, 51, 35
1, 552425, Control_c, 0, 64, 105
1, 552440, Control_c, 0, 64, 100
1, 552455, Control_c, 0, 64, 94
1, 552466, Note_on_c, 0, 54, 44
1, 552470, Control_c, 0, 64, 86
1, 552485, Control_c, 0, 64, 76
1, 552499, Control_c, 0, 64, 66
1, 552514, Control_c, 0, 64, 42
1, 552529, Control_c, 0, 64, 0
1, 552580, Note_on_c, 0, 59, 42
1, 552581, Control_c, 0, 64, 46
1, 552596, Control_c, 0, 64, 64
1, 552611, Control_c, 0, 64, 71
1, 552625, Control_c, 0, 64, 79
1, 552640, Control_c, 0, 64, 92
1, 552655, Control_c, 0, 64, 117
1, 552670, Control_c, 0, 64, 127
1, 552720, Note_off_c, 0, 51, 45
1, 552723, Note_off_c, 0, 30, 41
1, 552743, Note_on_c, 0, 63, 49
1, 552748, Note_off_c, 0, 54, 52
1, 552773, Note_off_c, 0, 42, 38
1, 552797, Note_off_c, 0, 59, 45
1, 552860, Note_off_c, 0, 63, 54
1, 553029, Note_on_c, 0, 62, 51
1, 553102, Note_off_c, 0, 62, 0
1, 553140, Poly_aftertouch_c, 0, 62, 127
1, 553175, Note_on_c, 0, 75, 60
1, 553244, Poly_aftertouch_c, 0, 62, 0
1, 553286, Note_on_c, 0, 61, 45
1, 553434, Note_off_c, 0, 61, 33
1, 553447, Note_on_c, 0, 59, 57
1, 553450, Note_off_c, 0, 75, 36
1, 553475, Note_on_c, 0, 74, 68
1, 553530, Note_off_c, 0, 59, 38
1, 553620, Note_on_c, 0, 51, 58
1, 553686, Note_on_c, 0, 73, 69
1, 553708, Note_off_c, 0, 74, 60
1, 553748, Note_off_c, 0, 73, 62
1, 553764, Note_on_c, 0, 42, 63
1, 553867, Note_on_c, 0, 71, 71
1, 553871, Note_off_c, 0, 42, 58
1, 553898, Note_off_c, 0, 51, 56
1, 553990, Note_on_c, 0, 68, 71
1, 553999, Note_on_c, 0, 59, 63
1, 554025, Note_off_c, 0, 71, 58
1, 554055, Note_off_c, 0, 59, 56
1, 554130, Note_on_c, 0, 69, 78
1, 554143, Note_on_c, 0, 60, 75
1, 554149, Note_off_c, 0, 68, 54
1, 554198, Note_off_c, 0, 60, 63
1, 554250, Note_off_c, 0, 69, 59
1, 554316, Control_c, 0, 64, 87
1, 554321, Note_on_c, 0, 70, 80
1, 554329, Note_on_c, 0, 64, 58
1, 554329, Note_on_c, 0, 66, 80
1, 554330, Control_c, 0, 64, 68
1, 554333, Note_on_c, 0, 61, 65
1, 554345, Control_c, 0, 64, 58
1, 554360, Control_c, 0, 64, 64
1, 554369, Note_off_c, 0, 61, 61
1, 554375, Control_c, 0, 64, 76
1, 554390, Control_c, 0, 64, 110
1, 554404, Control_c, 0, 64, 127
1, 554448, Note_off_c, 0, 64, 62
1, 554489, Note_off_c, 0, 70, 64
1, 554550, Note_off_c, 0, 66, 58
1, 554552, Note_on_c, 0, 67, 71
1, 554557, Note_on_c, 0, 65, 68
1, 554626, Note_off_c, 0, 65, 49
1, 554637, Note_off_c, 0, 67, 59
1, 554678, Note_on_c, 0, 64, 82
1, 554696, Note_on_c, 0, 78, 93
1, 554733, Note_off_c, 0, 64, 66
1, 554834, Note_on_c, 0, 58, 89
1, 554909, Note_off_c, 0, 58, 61
1, 554944, Note_on_c, 0, 52, 81
1, 554973, Note_on_c, 0, 51, 44
1, 554976, Note_off_c, 0, 78, 60
1, 555029, Note_off_c, 0, 51, 41
1, 555053, Note_on_c, 0, 42, 87
1, 555087, Note_on_c, 0, 77, 92
1, 555143, Note_off_c, 0, 42, 62
1, 555152, Note_off_c, 0, 77, 57
1, 555173, Note_off_c, 0, 52, 58
1, 555209, Note_on_c, 0, 76, 93
1, 555285, Note_off_c, 0, 76, 59
1, 555317, Note_on_c, 0, 71, 85
1, 555340, Note_on_c, 0, 67, 76
1, 555362, Note_off_c, 0, 67, 69
1, 555370, Note_off_c, 0, 71, 67
1, 555434, Note_on_c, 0, 72, 92
1, 555438, Note_on_c, 0, 68, 84
1, 555469, Note_on_c, 0, 57, 71
1, 555483, Note_off_c, 0, 68, 57
1, 555495, Note_off_c, 0, 72, 63
1, 555553, Note_on_c, 0, 63, 76
1, 555562, Control_c, 0, 64, 115
1, 555576, Control_c, 0, 64, 78
1, 555577, Poly_aftertouch_c, 0, 60, 127
1, 555581, Note_on_c, 0, 68, 92
1, 555587, Note_on_c, 0, 73, 94
1, 555591, Control_c, 0, 64, 45
1, 555606, Control_c, 0, 64, 0
1, 555636, Control_c, 0, 64, 84
1, 555637, Poly_aftertouch_c, 0, 60, 0
1, 555643, Note_off_c, 0, 68, 62
1, 555650, Control_c, 0, 64, 127
1, 555703, Note_on_c, 0, 66, 91
1, 555710, Note_on_c, 0, 69, 83
1, 555775, Note_off_c, 0, 69, 56
1, 555814, Note_off_c, 0, 73, 61
1, 555827, Note_off_c, 0, 66, 59
1, 555833, Note_on_c, 0, 62, 76
1, 555843, Note_on_c, 0, 81, 98
1, 555861, Note_on_c, 0, 72, 64
1, 555862, Note_off_c, 0, 63, 58
1, 555878, Note_off_c, 0, 72, 66
1, 555911, Poly_aftertouch_c, 0, 60, 127
1, 555916, Note_off_c, 0, 62, 62
1, 555921, Note_off_c, 0, 57, 42
1, 555953, Poly_aftertouch_c, 0, 60, 0
1, 555998, Note_on_c, 0, 57, 87
1, 556022, Note_on_c, 0, 73, 92
1, 556068, Note_off_c, 0, 57, 57
1, 556079, Note_off_c, 0, 73, 60
1, 556119, Note_on_c, 0, 47, 82
1, 556130, Note_on_c, 0, 80, 92
1, 556159, Note_off_c, 0, 81, 58
1, 556164, Note_off_c, 0, 47, 66
1, 556240, Note_on_c, 0, 78, 102
1, 556249, Note_on_c, 0, 72, 81
1, 556261, Note_off_c, 0, 80, 62
1, 556268, Note_off_c, 0, 72, 71
1, 556312, Note_off_c, 0, 78, 65
1, 556362, Note_on_c, 0, 72, 92
1, 556371, Control_c, 0, 64, 97
1, 556373, Note_on_c, 0, 65, 74
1, 556374, Note_on_c, 0, 77, 97
1, 556379, Note_on_c, 0, 61, 83
1, 556386, Control_c, 0, 64, 66
1, 556400, Control_c, 0, 64, 44
1, 556401, Note_on_c, 0, 66, 47
1, 556402, Note_off_c, 0, 66, 127
1, 556402, Note_on_c, 0, 76, 48
1, 556403, Note_off_c, 0, 76, 127
1, 556410, Note_off_c, 0, 72, 57
1, 556415, Control_c, 0, 64, 64
1, 556430, Control_c, 0, 64, 77
1, 556445, Control_c, 0, 64, 107
1, 556460, Control_c, 0, 64, 127
1, 556502, Note_off_c, 0, 77, 63
1, 556510, Note_on_c, 0, 70, 99
1, 556532, Note_on_c, 0, 73, 94
1, 556681, Note_on_c, 0, 68, 89
1, 556690, Note_off_c, 0, 70, 63
1, 556772, Note_off_c, 0, 65, 35
1, 556777, Note_on_c, 0, 85, 103
1, 556783, Note_on_c, 0, 76, 84
1, 556787, Note_off_c, 0, 68, 60
1, 556804, Note_off_c, 0, 61, 59
1, 556904, Note_on_c, 0, 81, 10
1, 556967, Note_on_c, 0, 61, 97
1, 557017, Note_off_c, 0, 61, 63
1, 557066, Note_off_c, 0, 81, 32
1, 557081, Note_off_c, 0, 85, 56
1, 557096, Note_off_c, 0, 73, 60
1, 557146, Note_on_c, 0, 53, 91
1, 557209, Note_on_c, 0, 84, 97
1, 557211, Note_on_c, 0, 72, 97
1, 557289, Poly_aftertouch_c, 0, 78, 127
1, 557308, Note_off_c, 0, 53, 56
1, 557348, Note_on_c, 0, 44, 87
1, 557357, Poly_aftertouch_c, 0, 81, 127
1, 557378, Note_off_c, 0, 84, 56
1, 557382, Note_off_c, 0, 72, 60
1, 557394, Poly_aftertouch_c, 0, 81, 0
1, 557424, Note_off_c, 0, 76, 57
1, 557437, Poly_aftertouch_c, 0, 46, 127
1, 557439, Poly_aftertouch_c, 0, 78, 0
1, 557467, Note_on_c, 0, 71, 105
1, 557467, Note_on_c, 0, 83, 101
1, 557474, Poly_aftertouch_c, 0, 46, 0
1, 557495, Note_on_c, 0, 76, 22
1, 557574, Note_off_c, 0, 44, 29
1, 557601, Note_off_c, 0, 76, 0
1, 557638, Poly_aftertouch_c, 0, 76, 127
1, 557712, Note_off_c, 0, 83, 57
1, 557713, Note_off_c, 0, 71, 57
1, 557753, Note_on_c, 0, 43, 98
1, 557767, Poly_aftertouch_c, 0, 76, 0
1, 557838, Control_c, 0, 64, 72
1, 557850, Note_on_c, 0, 70, 98
1, 557851, Note_on_c, 0, 82, 102
1, 557853, Control_c, 0, 64, 0
1, 557859, Note_on_c, 0, 75, 84
1, 557897, Control_c, 0, 64, 62
1, 557912, Control_c, 0, 64, 87
1, 557927, Control_c, 0, 64, 127
1, 557961, Poly_aftertouch_c, 0, 78, 127
1, 558112, Note_off_c, 0, 70, 58
1, 558127, Note_off_c, 0, 43, 30
1, 558145, Note_off_c, 0, 75, 52
1, 558169, Poly_aftertouch_c, 0, 78, 0
1, 558169, Note_off_c, 0, 82, 58
1, 558210, Note_on_c, 0, 51, 91
1, 558367, Note_on_c, 0, 87, 100
1, 558368, Note_on_c, 0, 75, 98
1, 558368, Note_on_c, 0, 85, 79
1, 558476, Note_off_c, 0, 51, 62
1, 558479, Note_on_c, 0, 58, 96
1, 558562, Note_off_c, 0, 58, 59
1, 558608, Note_off_c, 0, 87, 60
1, 558609, Note_off_c, 0, 75, 60
1, 558613, Note_off_c, 0, 85, 63
1, 558673, Note_on_c, 0, 62, 81
1, 558682, Note_on_c, 0, 74, 101
1, 558682, Note_on_c, 0, 83, 91
1, 558682, Note_on_c, 0, 86, 93
1, 558822, Note_off_c, 0, 83, 60
1, 558826, Note_off_c, 0, 86, 59
1, 558831, Note_off_c, 0, 74, 59
1, 558837, Note_on_c, 0, 82, 16
1, 558847, Note_on_c, 0, 63, 91
1, 558861, Note_off_c, 0, 62, 59
1, 558879, Note_off_c, 0, 82, 41
1, 558930, Note_on_c, 0, 73, 98
1, 558931, Note_on_c, 0, 85, 96
1, 558968, Note_off_c, 0, 73, 65
1, 558980, Note_off_c, 0, 85, 65
1, 559020, Note_on_c, 0, 73, 100
1, 559057, Note_off_c, 0, 63, 65
1, 559066, Note_off_c, 0, 73, 56
1, 559110, Note_on_c, 0, 74, 98
1, 559114, Note_on_c, 0, 75, 88
1, 559232, Note_on_c, 0, 61, 93
1, 559262, Note_on_c, 0, 73, 95
1, 559313, Note_off_c, 0, 61, 60
1, 559381, Note_on_c, 0, 51, 86
1, 559388, Note_on_c, 0, 72, 95
1, 559422, Note_off_c, 0, 74, 58
1, 559495, Note_off_c, 0, 73, 59
1, 559507, Note_off_c, 0, 75, 56
1, 559528, Note_on_c, 0, 43, 77
1, 559532, Note_off_c, 0, 72, 63
1, 559548, Note_off_c, 0, 51, 59
1, 559609, Note_on_c, 0, 74, 93
1, 559615, Note_on_c, 0, 72, 84
1, 559618, Control_c, 0, 64, 77
1, 559633, Control_c, 0, 64, 0
1, 559781, Control_c, 0, 64, 85
1, 559796, Control_c, 0, 64, 127
1, 559831, Note_off_c, 0, 43, 61
1, 559847, Note_on_c, 0, 50, 76
1, 559952, Note_on_c, 0, 71, 92
1, 560077, Note_on_c, 0, 62, 90
1, 560198, Note_on_c, 0, 70, 89
1, 560223, Note_off_c, 0, 71, 64
1, 560245, Note_off_c, 0, 74, 57
1, 560273, Note_off_c, 0, 72, 51
1, 560300, Note_on_c, 0, 61, 89
1, 560327, Note_off_c, 0, 62, 60
1, 560378, Note_off_c, 0, 70, 57
1, 560380, Note_on_c, 0, 67, 86
1, 560423, Note_off_c, 0, 67, 65
1, 560455, Note_on_c, 0, 60, 92
1, 560461, Note_off_c, 0, 61, 60
1, 560493, Note_off_c, 0, 60, 69
1, 560525, Note_off_c, 0, 50, 65
1, 560598, Note_on_c, 0, 60, 82
1, 560600, Note_on_c, 0, 62, 88
1, 560616, Note_on_c, 0, 50, 94
1, 560686, Note_off_c, 0, 50, 51
1, 560770, Note_on_c, 0, 43, 91
1, 560792, Note_on_c, 0, 59, 97
1, 560828, Note_off_c, 0, 60, 61
1, 560907, Note_on_c, 0, 58, 98
1, 560909, Note_on_c, 0, 42, 92
1, 560942, Note_off_c, 0, 62, 59
1, 560953, Note_off_c, 0, 59, 62
1, 560954, Note_off_c, 0, 43, 61
1, 561115, Control_c, 0, 64, 106
1, 561129, Note_on_c, 0, 49, 98
1, 561130, Control_c, 0, 64, 58
1, 561132, Note_on_c, 0, 41, 87
1, 561142, Note_off_c, 0, 42, 49
1, 561143, Note_on_c, 0, 61, 96
1, 561145, Control_c, 0, 64, 0
1, 561249, Control_c, 0, 64, 78
1, 561251, Note_off_c, 0, 58, 55
1, 561263, Control_c, 0, 64, 127
1, 561275, Note_off_c, 0, 41, 61
1, 561308, Note_off_c, 0, 49, 61
1, 561341, Note_off_c, 0, 61, 59
1, 561503, Note_on_c, 0, 70, 94
1, 561507, Note_on_c, 0, 66, 84
1, 561654, Note_on_c, 0, 85, 105
1, 561657, Note_on_c, 0, 73, 96
1, 561698, Note_off_c, 0, 70, 58
1, 561741, Poly_aftertouch_c, 0, 82, 127
1, 561779, Note_on_c, 0, 61, 86
1, 561783, Note_on_c, 0, 69, 87
1, 561818, Note_off_c, 0, 66, 51
1, 561863, Note_off_c, 0, 69, 60
1, 561867, Note_off_c, 0, 85, 54
1, 561898, Note_off_c, 0, 61, 57
1, 561898, Poly_aftertouch_c, 0, 82, 0
1, 561953, Note_on_c, 0, 84, 99
1, 561956, Note_on_c, 0, 68, 96
1, 561958, Note_on_c, 0, 65, 74
1, 562035, Note_off_c, 0, 68, 61
1, 562054, Note_off_c, 0, 65, 60
1, 562104, Note_on_c, 0, 58, 90
1, 562105, Note_on_c, 0, 67, 91
1, 562147, Note_off_c, 0, 67, 65
1, 562149, Note_off_c, 0, 84, 55
1, 562159, Note_off_c, 0, 58, 60
1, 562184, Note_on_c, 0, 83, 94
1, 562221, Note_on_c, 0, 84, 16
1, 562241, Note_on_c, 0, 66, 95
1, 562259, Note_on_c, 0, 63, 63
1, 562262, Note_off_c, 0, 73, 55
1, 562268, Note_off_c, 0, 84, 53
1, 562289, Note_off_c, 0, 63, 64
1, 562289, Note_off_c, 0, 66, 64
1, 562327, Poly_aftertouch_c, 0, 61, 127
1, 562358, Poly_aftertouch_c, 0, 61, 0
1, 562406, Note_on_c, 0, 65, 89
1, 562414, Note_on_c, 0, 53, 82
1, 562420, Control_c, 0, 64, 88
1, 562432, Note_on_c, 0, 64, 58
1, 562433, Note_off_c, 0, 64, 127
1, 562435, Control_c, 0, 64, 66
1, 562449, Note_off_c, 0, 65, 63
1, 562449, Note_on_c, 0, 82, 92
1, 562449, Control_c, 0, 64, 53
1, 562455, Note_on_c, 0, 73, 99
1, 562464, Control_c, 0, 64, 64
1, 562478, Note_off_c, 0, 53, 62
1, 562479, Control_c, 0, 64, 74
1, 562485, Note_off_c, 0, 83, 59
1, 562494, Control_c, 0, 64, 88
1, 562509, Control_c, 0, 64, 127
1, 562578, Note_off_c, 0, 73, 61
1, 562581, Note_on_c, 0, 52, 82
1, 562586, Note_off_c, 0, 82, 63
1, 562655, Note_on_c, 0, 72, 86
1, 562805, Note_on_c, 0, 71, 81
1, 562810, Note_on_c, 0, 73, 87
1, 562824, Note_on_c, 0, 51, 71
1, 562828, Note_off_c, 0, 72, 0
1, 562828, Note_on_c, 0, 72, 11
1, 562849, Note_off_c, 0, 72, 55
1, 562866, Note_off_c, 0, 52, 60
1, 562968, Note_off_c, 0, 73, 64
1, 562982, Note_on_c, 0, 42, 72
1, 562995, Note_off_c, 0, 71, 62
1, 563084, Note_on_c, 0, 73, 85
1, 563093, Note_on_c, 0, 71, 85
1, 563114, Note_off_c, 0, 51, 58
1, 563124, Control_c, 0, 64, 103
1, 563139, Control_c, 0, 64, 77
1, 563154, Control_c, 0, 64, 60
1, 563168, Control_c, 0, 64, 0
1, 563272, Control_c, 0, 64, 56
1, 563287, Control_c, 0, 64, 66
1, 563302, Control_c, 0, 64, 74
1, 563317, Control_c, 0, 64, 85
1, 563326, Note_off_c, 0, 42, 63
1, 563332, Control_c, 0, 64, 104
1, 563341, Note_on_c, 0, 49, 64
1, 563347, Control_c, 0, 64, 127
1, 563451, Note_on_c, 0, 70, 85
1, 563574, Note_off_c, 0, 71, 38
1, 563586, Note_on_c, 0, 61, 59
1, 563614, Control_c, 0, 64, 118
1, 563629, Control_c, 0, 64, 110
1, 563644, Control_c, 0, 64, 104
1, 563658, Control_c, 0, 64, 99
1, 563673, Control_c, 0, 64, 94
1, 563688, Control_c, 0, 64, 90
1, 563702, Control_c, 0, 64, 88
1, 563717, Control_c, 0, 64, 88
1, 563719, Note_on_c, 0, 69, 74
1, 563732, Control_c, 0, 64, 87
1, 563773, Note_off_c, 0, 70, 60
1, 563827, Note_off_c, 0, 61, 38
1, 563889, Note_on_c, 0, 60, 49
1, 563973, Note_on_c, 0, 68, 76
1, 564069, Note_off_c, 0, 69, 51
1, 564080, Control_c, 0, 64, 87
1, 564086, Note_off_c, 0, 60, 37
1, 564101, Note_on_c, 0, 59, 53
1, 564115, Note_off_c, 0, 49, 41
1, 564125, Control_c, 0, 64, 86
1, 564155, Control_c, 0, 64, 86
1, 564169, Control_c, 0, 64, 85
1, 564184, Control_c, 0, 64, 84
1, 564199, Control_c, 0, 64, 83
1, 564214, Control_c, 0, 64, 83
1, 564229, Control_c, 0, 64, 82
1, 564243, Control_c, 0, 64, 81
1, 564243, Control_c, 0, 67, 9
1, 564258, Control_c, 0, 64, 81
1, 564258, Control_c, 0, 67, 11
1, 564273, Control_c, 0, 64, 80
1, 564273, Control_c, 0, 67, 12
1, 564274, Note_off_c, 0, 59, 56
1, 564288, Control_c, 0, 64, 78
1, 564288, Control_c, 0, 67, 15
1, 564304, Control_c, 0, 64, 76
1, 564304, Control_c, 0, 67, 17
1, 564309, Note_on_c, 0, 58, 52
1, 564315, Note_on_c, 0, 61, 52
1, 564319, Control_c, 0, 64, 72
1, 564319, Control_c, 0, 67, 19
1, 564333, Control_c, 0, 64, 68
1, 564333, Control_c, 0, 67, 22
1, 564348, Control_c, 0, 64, 64
1, 564348, Control_c, 0, 67, 25
1, 564363, Control_c, 0, 64, 60
1, 564363, Control_c, 0, 67, 29
1, 564378, Control_c, 0, 64, 55
1, 564378, Control_c, 0, 67, 33
1, 564393, Control_c, 0, 64, 55
1, 564393, Control_c, 0, 67, 36
1, 564399, Note_on_c, 0, 66, 65
1, 564405, Control_c, 0, 64, 55
1, 564405, Control_c, 0, 67, 40
1, 564414, Note_off_c, 0, 68, 57
1, 564420, Control_c, 0, 64, 58
1, 564420, Control_c, 0, 67, 43
1, 564435, Control_c, 0, 64, 62
1, 564435, Control_c, 0, 67, 46
1, 564450, Control_c, 0, 64, 65
1, 564450, Control_c, 0, 67, 49
1, 564465, Control_c, 0, 64, 68
1, 564465, Control_c, 0, 67, 52
1, 564479, Control_c, 0, 64, 72
1, 564479, Control_c, 0, 67, 55
1, 564494, Control_c, 0, 64, 75
1, 564494, Control_c, 0, 67, 58
1, 564509, Control_c, 0, 64, 79
1, 564509, Control_c, 0, 67, 61
1, 564515, Note_off_c, 0, 61, 60
1, 564527, Note_off_c, 0, 73, 59
1, 564531, Control_c, 0, 64, 83
1, 564531, Control_c, 0, 67, 63
1, 564534, Note_off_c, 0, 58, 58
1, 564546, Control_c, 0, 64, 87
1, 564546, Control_c, 0, 67, 66
1, 564561, Control_c, 0, 64, 89
1, 564561, Control_c, 0, 67, 69
1, 564567, Note_off_c, 0, 66, 62
1, 564576, Control_c, 0, 64, 90
1, 564576, Control_c, 0, 67, 72
1, 564591, Control_c, 0, 64, 91
1, 564591, Control_c, 0, 67, 75
1, 564605, Control_c, 0, 64, 95
1, 564605, Control_c, 0, 67, 79
1, 564620, Control_c, 0, 64, 99
1, 564620, Control_c, 0, 67, 82
1, 564635, Control_c, 0, 64, 103
1, 564635, Control_c, 0, 67, 86
1, 564650, Control_c, 0, 64, 106
1, 564650, Control_c, 0, 67, 91
1, 564664, Control_c, 0, 64, 106
1, 564664, Control_c, 0, 67, 95
1, 564679, Control_c, 0, 67, 99
1, 564694, Control_c, 0, 67, 102
1, 564709, Control_c, 0, 67, 104
1, 564724, Control_c, 0, 67, 106
1, 564735, Note_on_c, 0, 61, 54
1, 564739, Control_c, 0, 67, 108
1, 564742, Note_on_c, 0, 42, 46
1, 564754, Note_on_c, 0, 57, 40
1, 564754, Control_c, 0, 67, 110
1, 564763, Note_on_c, 0, 49, 29
1, 564769, Control_c, 0, 67, 111
1, 564772, Note_off_c, 0, 61, 47
1, 564784, Control_c, 0, 67, 113
1, 564798, Control_c, 0, 67, 114
1, 564813, Control_c, 0, 67, 115
1, 564828, Control_c, 0, 67, 115
1, 564843, Control_c, 0, 64, 106
1, 564843, Control_c, 0, 67, 116
1, 564887, Control_c, 0, 64, 106
1, 564902, Control_c, 0, 64, 107
1, 564902, Control_c, 0, 67, 116
1, 564917, Control_c, 0, 64, 108
1, 564917, Control_c, 0, 67, 115
1, 564931, Control_c, 0, 64, 110
1, 564931, Control_c, 0, 67, 113
1, 564946, Control_c, 0, 64, 120
1, 564946, Control_c, 0, 67, 110
1, 564961, Control_c, 0, 64, 127
1, 564961, Control_c, 0, 67, 105
1, 564976, Control_c, 0, 67, 97
1, 564991, Control_c, 0, 67, 85
1, 565005, Control_c, 0, 67, 79
1, 565020, Control_c, 0, 67, 78
1, 565035, Control_c, 0, 67, 79
1, 565049, Control_c, 0, 67, 80
1, 565064, Control_c, 0, 67, 82
1, 565067, Note_on_c, 0, 56, 47
1, 565079, Control_c, 0, 67, 82
1, 565093, Note_on_c, 0, 41, 38
1, 565094, Control_c, 0, 67, 83
1, 565110, Control_c, 0, 67, 85
1, 565125, Control_c, 0, 67, 89
1, 565140, Control_c, 0, 67, 92
1, 565154, Control_c, 0, 67, 97
1, 565169, Control_c, 0, 67, 102
1, 565184, Control_c, 0, 67, 105
1, 565195, Note_off_c, 0, 49, 37
1, 565199, Control_c, 0, 67, 107
1, 565214, Control_c, 0, 67, 109
1, 565228, Control_c, 0, 67, 112
1, 565234, Note_off_c, 0, 57, 32
1, 565243, Control_c, 0, 67, 116
1, 565258, Control_c, 0, 67, 120
1, 565280, Control_c, 0, 67, 124
1, 565295, Control_c, 0, 67, 127
1, 565532, Control_c, 0, 64, 115
1, 565533, Note_off_c, 0, 42, 33
1, 565547, Control_c, 0, 64, 105
1, 565553, Note_on_c, 0, 60, 46
1, 565562, Control_c, 0, 64, 95
1, 565569, Note_on_c, 0, 40, 42
1, 565573, Note_on_c, 0, 48, 36
1, 565576, Control_c, 0, 64, 85
1, 565577, Note_on_c, 0, 55, 30
1, 565577, Note_off_c, 0, 56, 38
1, 565591, Control_c, 0, 64, 74
1, 565594, Note_off_c, 0, 41, 37
1, 565606, Control_c, 0, 64, 58
1, 565621, Control_c, 0, 64, 0
1, 565769, Control_c, 0, 64, 54
1, 565784, Control_c, 0, 64, 65
1, 565798, Control_c, 0, 64, 68
1, 565813, Control_c, 0, 64, 72
1, 565828, Control_c, 0, 64, 78
1, 565843, Control_c, 0, 64, 86
1, 565858, Control_c, 0, 64, 95
1, 565872, Control_c, 0, 64, 107
1, 565887, Control_c, 0, 64, 127
1, 566053, Note_on_c, 0, 59, 36
1, 566084, Note_off_c, 0, 55, 31
1, 566110, Note_off_c, 0, 48, 39
1, 566247, Note_off_c, 0, 40, 41
1, 566337, Note_on_c, 0, 57, 25
1, 566486, Note_on_c, 0, 28, 39
1, 566489, Note_on_c, 0, 40, 19
1, 566528, Note_off_c, 0, 60, 14
1, 566528, Note_off_c, 0, 28, 48
1, 566530, Note_off_c, 0, 40, 53
1, 566566, Note_on_c, 0, 55, 34
1, 566568, Note_off_c, 0, 59, 22
1, 566699, Note_off_c, 0, 57, 41
1, 566719, Note_off_c, 0, 55, 46
1, 566779, Note_on_c, 0, 52, 38
1, 566877, Note_off_c, 0, 52, 56
1, 566972, Note_on_c, 0, 47, 39
1, 567004, Note_off_c, 0, 47, 62
1, 567075, Control_c, 0, 67, 127
1, 567090, Control_c, 0, 67, 124
1, 567105, Control_c, 0, 67, 120
1, 567120, Control_c, 0, 67, 115
1, 567134, Control_c, 0, 67, 110
1, 567144, Note_on_c, 0, 48, 62
1, 567149, Control_c, 0, 67, 104
1, 567164, Control_c, 0, 67, 98
1, 567172, Note_off_c, 0, 48, 65
1, 567179, Control_c, 0, 67, 92
1, 567194, Control_c, 0, 67, 84
1, 567208, Control_c, 0, 67, 77
1, 567223, Control_c, 0, 67, 71
1, 567238, Control_c, 0, 67, 64
1, 567252, Control_c, 0, 67, 57
1, 567267, Control_c, 0, 67, 50
1, 567282, Control_c, 0, 67, 44
1, 567297, Control_c, 0, 67, 37
1, 567312, Control_c, 0, 67, 31
1, 567326, Control_c, 0, 67, 26
1, 567341, Control_c, 0, 67, 18
1, 567356, Control_c, 0, 67, 11
1, 567371, Control_c, 0, 67, 0
1, 567378, Note_on_c, 0, 59, 39
1, 567500, Note_off_c, 0, 59, 0
1, 567528, Note_on_c, 0, 57, 39
1, 567564, Poly_aftertouch_c, 0, 59, 0
1, 567660, Note_off_c, 0, 57, 37
1, 567705, Note_on_c, 0, 40, 46
1, 567713, Note_on_c, 0, 28, 50
1, 567737, Note_on_c, 0, 55, 3
1, 567742, Note_off_c, 0, 40, 54
1, 567749, Note_off_c, 0, 28, 59
1, 567866, Note_off_c, 0, 55, 39
1, 567892, Note_on_c, 0, 52, 43
1, 568006, Note_off_c, 0, 52, 36
1, 568038, Note_on_c, 0, 47, 44
1, 568070, Note_off_c, 0, 47, 59
1, 568271, Note_on_c, 0, 48, 65
1, 568298, Note_off_c, 0, 48, 63
1, 568453, Note_on_c, 0, 59, 37
1, 568555, Note_on_c, 0, 57, 45
1, 568627, Note_off_c, 0, 59, 27
1, 568673, Note_on_c, 0, 56, 53
1, 568674, Note_off_c, 0, 57, 55
1, 568775, Note_on_c, 0, 40, 39
1, 568777, Note_on_c, 0, 28, 42
1, 568784, Note_off_c, 0, 56, 58
1, 568823, Note_off_c, 0, 28, 59
1, 568829, Note_off_c, 0, 40, 48
1, 568868, Note_on_c, 0, 55, 37
1, 569076, Note_on_c, 0, 52, 53
1, 569118, Note_off_c, 0, 55, 41
1, 569222, Note_off_c, 0, 52, 52
1, 569228, Note_on_c, 0, 46, 60
1, 569277, Note_off_c, 0, 46, 60
1, 569395, Control_c, 0, 64, 108
1, 569410, Control_c, 0, 64, 95
1, 569413, Note_on_c, 0, 47, 76
1, 569440, Control_c, 0, 64, 103
1, 569455, Control_c, 0, 64, 127
1, 569643, Note_on_c, 0, 61, 51
1, 569657, Note_off_c, 0, 47, 61
1, 569789, Note_on_c, 0, 57, 55
1, 569896, Note_on_c, 0, 40, 53
1, 569905, Note_on_c, 0, 28, 49
1, 569926, Note_off_c, 0, 40, 56
1, 569938, Note_off_c, 0, 28, 58
1, 569985, Note_on_c, 0, 55, 61
1, 570031, Note_off_c, 0, 61, 31
1, 570124, Note_on_c, 0, 52, 61
1, 570144, Note_off_c, 0, 57, 33
1, 570230, Note_off_c, 0, 55, 35
1, 570265, Note_off_c, 0, 52, 54
1, 570269, Note_on_c, 0, 46, 69
1, 570328, Note_off_c, 0, 46, 59
1, 570396, Control_c, 0, 64, 95
1, 570411, Control_c, 0, 64, 79
1, 570426, Control_c, 0, 64, 68
1, 570427, Note_on_c, 0, 47, 82
1, 570441, Control_c, 0, 64, 66
1, 570456, Control_c, 0, 64, 74
1, 570470, Control_c, 0, 64, 87
1, 570485, Control_c, 0, 64, 119
1, 570500, Control_c, 0, 64, 127
1, 570588, Note_on_c, 0, 61, 58
1, 570650, Note_off_c, 0, 47, 52
1, 570692, Note_on_c, 0, 57, 54
1, 570757, Note_off_c, 0, 61, 34
1, 570800, Note_on_c, 0, 56, 54
1, 570823, Note_off_c, 0, 57, 54
1, 570891, Note_off_c, 0, 56, 59
1, 570908, Control_c, 0, 64, 100
1, 570909, Note_on_c, 0, 28, 57
1, 570909, Note_on_c, 0, 40, 61
1, 570923, Control_c, 0, 64, 87
1, 570938, Control_c, 0, 64, 77
1, 570953, Control_c, 0, 64, 75
1, 570953, Control_c, 0, 67, 9
1, 570967, Control_c, 0, 64, 79
1, 570967, Control_c, 0, 67, 12
1, 570982, Control_c, 0, 64, 91
1, 570982, Control_c, 0, 67, 15
1, 570997, Control_c, 0, 64, 113
1, 570997, Control_c, 0, 67, 20
1, 571002, Note_on_c, 0, 55, 60
1, 571012, Control_c, 0, 64, 127
1, 571012, Control_c, 0, 67, 26
1, 571026, Control_c, 0, 67, 31
1, 571041, Control_c, 0, 67, 37
1, 571049, Note_off_c, 0, 28, 52
1, 571056, Control_c, 0, 67, 42
1, 571060, Note_off_c, 0, 40, 51
1, 571071, Control_c, 0, 67, 49
1, 571086, Control_c, 0, 67, 60
1, 571099, Note_off_c, 0, 55, 58
1, 571100, Control_c, 0, 67, 72
1, 571115, Control_c, 0, 67, 82
1, 571130, Control_c, 0, 67, 92
1, 571145, Control_c, 0, 67, 101
1, 571148, Note_on_c, 0, 52, 57
1, 571160, Control_c, 0, 67, 113
1, 571175, Control_c, 0, 67, 126
1, 571186, Note_off_c, 0, 52, 61
1, 571190, Control_c, 0, 67, 127
1, 571303, Note_on_c, 0, 45, 59
1, 571339, Note_off_c, 0, 45, 61
1, 571553, Control_c, 0, 64, 94
1, 571568, Control_c, 0, 64, 73
1, 571583, Control_c, 0, 64, 0
1, 571588, Note_on_c, 0, 46, 75
1, 571637, Note_on_c, 0, 62, 38
1, 571657, Control_c, 0, 64, 58
1, 571672, Control_c, 0, 64, 73
1, 571687, Control_c, 0, 64, 94
1, 571702, Control_c, 0, 64, 127
1, 571745, Note_off_c, 0, 46, 59
1, 571860, Note_on_c, 0, 60, 46
1, 572020, Note_on_c, 0, 79, 76
1, 572047, Note_off_c, 0, 79, 59
1, 572084, Note_on_c, 0, 58, 45
1, 572217, Note_on_c, 0, 55, 47
1, 572254, Note_off_c, 0, 58, 32
1, 572278, Note_off_c, 0, 60, 23
1, 572283, Note_off_c, 0, 62, 17
1, 572345, Note_off_c, 0, 55, 58
1, 572352, Note_on_c, 0, 40, 52
1, 572355, Note_on_c, 0, 28, 58
1, 572387, Note_off_c, 0, 40, 62
1, 572388, Note_off_c, 0, 28, 60
1, 572402, Note_on_c, 0, 50, 44
1, 572591, Note_on_c, 0, 62, 44
1, 572643, Note_off_c, 0, 50, 37
1, 572725, Note_on_c, 0, 60, 40
1, 572797, Note_off_c, 0, 62, 27
1, 572804, Note_on_c, 0, 58, 49
1, 572895, Note_on_c, 0, 46, 79
1, 572911, Note_off_c, 0, 60, 35
1, 572929, Note_off_c, 0, 46, 63
1, 572942, Note_on_c, 0, 55, 49
1, 572949, Note_off_c, 0, 58, 55
1, 572990, Control_c, 0, 67, 126
1, 573005, Control_c, 0, 67, 119
1, 573020, Control_c, 0, 67, 107
1, 573035, Control_c, 0, 67, 96
1, 573050, Control_c, 0, 67, 85
1, 573064, Control_c, 0, 67, 74
1, 573079, Control_c, 0, 67, 65
1, 573082, Note_on_c, 0, 50, 54
1, 573095, Control_c, 0, 67, 57
1, 573098, Note_off_c, 0, 55, 35
1, 573110, Control_c, 0, 67, 51
1, 573125, Control_c, 0, 67, 44
1, 573140, Control_c, 0, 67, 38
1, 573155, Control_c, 0, 67, 33
1, 573169, Control_c, 0, 67, 28
1, 573184, Control_c, 0, 67, 24
1, 573199, Control_c, 0, 67, 19
1, 573214, Control_c, 0, 67, 13
1, 573222, Note_on_c, 0, 76, 80
1, 573228, Control_c, 0, 67, 0
1, 573263, Note_off_c, 0, 76, 65
1, 573279, Note_on_c, 0, 55, 29
1, 573408, Note_on_c, 0, 62, 59
1, 573480, Note_off_c, 0, 50, 39
1, 573559, Note_off_c, 0, 55, 34
1, 573588, Note_on_c, 0, 26, 35
1, 573604, Note_on_c, 0, 28, 20
1, 573604, Note_on_c, 0, 40, 14
1, 573617, Note_on_c, 0, 60, 59
1, 573631, Note_off_c, 0, 26, 49
1, 573643, Note_off_c, 0, 28, 52
1, 573651, Note_off_c, 0, 40, 52
1, 573752, Note_on_c, 0, 58, 62
1, 573898, Note_on_c, 0, 55, 65
1, 573941, Note_off_c, 0, 62, 18
1, 574029, Note_off_c, 0, 60, 38
1, 574033, Note_on_c, 0, 46, 88
1, 574064, Note_off_c, 0, 46, 63
1, 574088, Note_on_c, 0, 50, 54
1, 574105, Note_off_c, 0, 58, 33
1, 574177, Note_off_c, 0, 50, 59
1, 574220, Note_on_c, 0, 62, 66
1, 574333, Note_on_c, 0, 72, 93
1, 574355, Note_off_c, 0, 55, 38
1, 574377, Note_off_c, 0, 72, 67
1, 574421, Note_on_c, 0, 60, 66
1, 574538, Note_on_c, 0, 58, 73
1, 574563, Note_off_c, 0, 62, 43
1, 574653, Note_off_c, 0, 60, 55
1, 574656, Note_on_c, 0, 40, 85
1, 574662, Note_on_c, 0, 28, 76
1, 574701, Note_off_c, 0, 28, 61
1, 574718, Note_off_c, 0, 40, 63
1, 574740, Note_on_c, 0, 55, 73
1, 574851, Note_off_c, 0, 58, 61
1, 574886, Note_on_c, 0, 50, 81
1, 574949, Note_off_c, 0, 50, 64
1, 575014, Note_on_c, 0, 64, 81
1, 575052, Note_off_c, 0, 55, 62
1, 575077, Note_off_c, 0, 64, 62
1, 575119, Control_c, 0, 64, 113
1, 575122, Note_on_c, 0, 45, 104
1, 575134, Control_c, 0, 64, 89
1, 575148, Control_c, 0, 64, 82
1, 575163, Control_c, 0, 64, 88
1, 575177, Note_on_c, 0, 62, 81
1, 575178, Control_c, 0, 64, 115
1, 575193, Control_c, 0, 64, 127
1, 575204, Note_off_c, 0, 45, 56
1, 575276, Note_on_c, 0, 60, 77
1, 575309, Note_off_c, 0, 62, 58
1, 575421, Note_on_c, 0, 69, 107
1, 575430, Note_on_c, 0, 55, 65
1, 575461, Note_off_c, 0, 69, 68
1, 575528, Note_off_c, 0, 60, 53
1, 575580, Note_on_c, 0, 52, 87
1, 575755, Note_on_c, 0, 40, 82
1, 575764, Note_on_c, 0, 38, 83
1, 575768, Note_on_c, 0, 28, 78
1, 575797, Note_on_c, 0, 30, 37
1, 575820, Note_off_c, 0, 28, 60
1, 575835, Note_off_c, 0, 52, 59
1, 575838, Note_off_c, 0, 38, 62
1, 575840, Note_off_c, 0, 40, 62
1, 575843, Note_off_c, 0, 30, 51
1, 575874, Note_off_c, 0, 55, 0
1, 575880, Note_on_c, 0, 64, 86
1, 575935, Note_off_c, 0, 64, 64
1, 575958, Poly_aftertouch_c, 0, 55, 0
1, 576020, Note_on_c, 0, 62, 82
1, 576109, Note_on_c, 0, 60, 86
1, 576136, Note_off_c, 0, 62, 60
1, 576177, Note_on_c, 0, 45, 99
1, 576218, Note_off_c, 0, 45, 64
1, 576222, Note_on_c, 0, 55, 81
1, 576233, Note_off_c, 0, 60, 61
1, 576281, Note_off_c, 0, 55, 66
1, 576311, Note_on_c, 0, 52, 91
1, 576338, Note_off_c, 0, 52, 67
1, 576433, Note_on_c, 0, 67, 101
1, 576443, Note_on_c, 0, 65, 86
1, 576464, Note_off_c, 0, 65, 60
1, 576470, Note_off_c, 0, 67, 67
1, 576655, Note_on_c, 0, 34, 52
1, 576685, Note_on_c, 0, 92, 48
1, 576698, Note_off_c, 0, 34, 59
1, 576720, Note_on_c, 0, 40, 102
1, 576722, Poly_aftertouch_c, 0, 37, 127
1, 576731, Note_on_c, 0, 28, 89
1, 576731, Note_off_c, 0, 92, 45
1, 576754, Note_on_c, 0, 32, 36
1, 576755, Note_off_c, 0, 32, 127
1, 576760, Poly_aftertouch_c, 0, 37, 0
1, 576761, Note_on_c, 0, 29, 39
1, 576809, Poly_aftertouch_c, 0, 32, 0
1, 576820, Note_off_c, 0, 29, 42
1, 576839, Poly_aftertouch_c, 0, 35, 127
1, 576841, Note_on_c, 0, 95, 96
1, 576846, Note_off_c, 0, 28, 56
1, 576871, Poly_aftertouch_c, 0, 35, 0
1, 576896, Note_off_c, 0, 40, 64
1, 576916, Note_on_c, 0, 93, 88
1, 576940, Note_off_c, 0, 95, 57
1, 576981, Note_on_c, 0, 92, 87
1, 576994, Note_off_c, 0, 93, 64
1, 577041, Note_on_c, 0, 91, 90
1, 577044, Note_off_c, 0, 92, 67
1, 577105, Note_on_c, 0, 88, 81
1, 577132, Note_off_c, 0, 91, 66
1, 577135, Control_c, 0, 64, 69
1, 577150, Note_on_c, 0, 83, 99
1, 577150, Control_c, 0, 64, 0
1, 577154, Note_on_c, 0, 86, 14
1, 577155, Note_off_c, 0, 86, 127
1, 577163, Note_on_c, 0, 45, 101
1, 577166, Note_on_c, 0, 40, 108
1, 577183, Note_off_c, 0, 88, 65
1, 577201, Note_off_c, 0, 45, 68
1, 577209, Control_c, 0, 64, 127
1, 577223, Note_off_c, 0, 40, 58
1, 577271, Note_off_c, 0, 83, 59
1, 577277, Note_on_c, 0, 91, 85
1, 577349, Note_on_c, 0, 90, 81
1, 577367, Note_off_c, 0, 91, 63
1, 577417, Note_off_c, 0, 90, 66
1, 577438, Note_on_c, 0, 64, 106
1, 577440, Note_on_c, 0, 89, 98
1, 577441, Note_on_c, 0, 55, 88
1, 577446, Note_on_c, 0, 60, 81
1, 577479, Note_off_c, 0, 64, 69
1, 577484, Note_on_c, 0, 57, 39
1, 577500, Note_off_c, 0, 55, 67
1, 577500, Note_off_c, 0, 60, 61
1, 577514, Note_off_c, 0, 57, 55
1, 577521, Note_on_c, 0, 88, 85
1, 577564, Note_off_c, 0, 89, 58
1, 577598, Note_on_c, 0, 84, 71
1, 577663, Note_off_c, 0, 88, 60
1, 577690, Note_off_c, 0, 84, 64
1, 577706, Note_on_c, 0, 79, 85
1, 577715, Note_on_c, 0, 40, 102
1, 577720, Note_on_c, 0, 33, 91
1, 577757, Note_off_c, 0, 40, 65
1, 577759, Note_off_c, 0, 33, 59
1, 577801, Poly_aftertouch_c, 0, 81, 0
1, 577817, Note_on_c, 0, 83, 88
1, 577832, Note_off_c, 0, 79, 64
1, 577884, Note_on_c, 0, 81, 72
1, 577911, Note_off_c, 0, 83, 62
1, 577947, Note_on_c, 0, 80, 77
1, 577953, Note_off_c, 0, 81, 63
1, 578022, Note_on_c, 0, 79, 88
1, 578023, Note_off_c, 0, 80, 63
1, 578083, Note_on_c, 0, 76, 80
1, 578114, Control_c, 0, 64, 98
1, 578122, Note_off_c, 0, 79, 62
1, 578129, Control_c, 0, 64, 66
1, 578129, Note_on_c, 0, 28, 107
1, 578129, Note_on_c, 0, 33, 97
1, 578139, Note_on_c, 0, 71, 104
1, 578144, Control_c, 0, 64, 0
1, 578159, Control_c, 0, 64, 58
1, 578171, Note_off_c, 0, 76, 61
1, 578173, Control_c, 0, 64, 79
1, 578181, Note_off_c, 0, 33, 61
1, 578188, Note_off_c, 0, 28, 60
1, 578188, Control_c, 0, 64, 127
1, 578251, Note_off_c, 0, 71, 55
1, 578264, Note_on_c, 0, 79, 80
1, 578325, Note_on_c, 0, 78, 75
1, 578340, Note_off_c, 0, 79, 61
1, 578379, Note_off_c, 0, 78, 67
1, 578382, Note_on_c, 0, 60, 101
1, 578392, Note_on_c, 0, 55, 51
1, 578394, Note_on_c, 0, 52, 75
1, 578407, Note_on_c, 0, 79, 79
1, 578411, Note_on_c, 0, 77, 79
1, 578413, Note_off_c, 0, 60, 70
1, 578430, Note_on_c, 0, 53, 50
1, 578433, Note_off_c, 0, 55, 66
1, 578439, Note_off_c, 0, 52, 62
1, 578460, Note_off_c, 0, 53, 56
1, 578479, Note_on_c, 0, 76, 85
1, 578487, Note_off_c, 0, 79, 51
1, 578496, Note_off_c, 0, 77, 55
1, 578540, Note_on_c, 0, 72, 69
1, 578566, Note_off_c, 0, 76, 60
1, 578624, Note_on_c, 0, 40, 106
1, 578630, Note_on_c, 0, 67, 93
1, 578633, Note_on_c, 0, 33, 87
1, 578653, Note_off_c, 0, 72, 59
1, 578660, Note_off_c, 0, 67, 62
1, 578704, Note_off_c, 0, 33, 62
1, 578721, Note_off_c, 0, 40, 62
1, 578750, Poly_aftertouch_c, 0, 38, 0
1, 578801, Note_on_c, 0, 95, 91
1, 578850, Note_on_c, 0, 93, 80
1, 578878, Note_off_c, 0, 95, 63
1, 578894, Note_on_c, 0, 92, 85
1, 578910, Note_off_c, 0, 93, 63
1, 578967, Note_on_c, 0, 91, 92
1, 578967, Note_off_c, 0, 92, 66
1, 579014, Note_on_c, 0, 88, 79
1, 579056, Control_c, 0, 64, 108
1, 579064, Note_on_c, 0, 45, 103
1, 579067, Note_on_c, 0, 83, 103
1, 579068, Note_on_c, 0, 40, 103
1, 579071, Control_c, 0, 64, 69
1, 579071, Note_on_c, 0, 39, 75
1, 579086, Control_c, 0, 64, 0
1, 579089, Note_off_c, 0, 91, 56
1, 579093, Note_off_c, 0, 39, 63
1, 579098, Note_off_c, 0, 88, 66
1, 579101, Control_c, 0, 64, 46
1, 579115, Control_c, 0, 64, 82
1, 579126, Note_off_c, 0, 45, 61
1, 579130, Control_c, 0, 64, 127
1, 579137, Note_off_c, 0, 40, 58
1, 579152, Note_off_c, 0, 83, 44
1, 579208, Note_on_c, 0, 91, 80
1, 579271, Note_on_c, 0, 90, 83
1, 579277, Note_off_c, 0, 91, 65
1, 579308, Note_on_c, 0, 64, 101
1, 579314, Note_on_c, 0, 60, 63
1, 579318, Note_on_c, 0, 55, 86
1, 579333, Note_off_c, 0, 90, 67
1, 579345, Note_off_c, 0, 64, 69
1, 579348, Note_on_c, 0, 89, 86
1, 579363, Note_off_c, 0, 60, 63
1, 579366, Note_on_c, 0, 57, 19
1, 579372, Note_off_c, 0, 55, 65
1, 579407, Note_off_c, 0, 57, 49
1, 579420, Poly_aftertouch_c, 0, 61, 0
1, 579423, Note_on_c, 0, 88, 83
1, 579452, Note_off_c, 0, 89, 61
1, 579475, Note_on_c, 0, 84, 75
1, 579537, Note_off_c, 0, 88, 62
1, 579538, Note_on_c, 0, 87, 28
1, 579559, Note_on_c, 0, 40, 101
1, 579559, Note_off_c, 0, 84, 66
1, 579565, Note_on_c, 0, 33, 93
1, 579565, Note_on_c, 0, 79, 99
1, 579570, Note_on_c, 0, 41, 71
1, 579572, Note_on_c, 0, 81, 62
1, 579575, Note_off_c, 0, 87, 45
1, 579588, Note_off_c, 0, 81, 67
1, 579593, Note_off_c, 0, 41, 63
1, 579596, Note_off_c, 0, 33, 64
1, 579601, Note_off_c, 0, 40, 65
1, 579649, Poly_aftertouch_c, 0, 39, 127
1, 579677, Poly_aftertouch_c, 0, 37, 0
1, 579682, Note_on_c, 0, 83, 85
1, 579686, Note_off_c, 0, 79, 58
1, 579697, Poly_aftertouch_c, 0, 39, 0
1, 579733, Note_on_c, 0, 81, 68
1, 579761, Note_off_c, 0, 83, 63
1, 579786, Note_on_c, 0, 80, 79
1, 579791, Note_off_c, 0, 81, 61
1, 579855, Note_on_c, 0, 79, 86
1, 579855, Note_off_c, 0, 80, 63
1, 579912, Note_on_c, 0, 76, 83
1, 579923, Control_c, 0, 64, 121
1, 579937, Control_c, 0, 64, 75
1, 579952, Control_c, 0, 64, 0
1, 579956, Note_on_c, 0, 33, 105
1, 579959, Note_on_c, 0, 28, 100
1, 579963, Note_on_c, 0, 71, 99
1, 579963, Note_off_c, 0, 79, 59
1, 579981, Control_c, 0, 64, 69
1, 579989, Note_off_c, 0, 76, 63
1, 579993, Note_off_c, 0, 33, 62
1, 579996, Control_c, 0, 64, 96
1, 580001, Note_off_c, 0, 28, 58
1, 580011, Control_c, 0, 64, 127
1, 580052, Note_off_c, 0, 71, 44
1, 580084, Note_on_c, 0, 79, 88
1, 580153, Note_on_c, 0, 78, 78
1, 580153, Note_off_c, 0, 79, 62
1, 580188, Note_off_c, 0, 78, 67
1, 580200, Note_on_c, 0, 55, 64
1, 580201, Note_on_c, 0, 60, 100
1, 580207, Note_on_c, 0, 52, 78
1, 580225, Note_on_c, 0, 77, 82
1, 580232, Note_off_c, 0, 60, 70
1, 580245, Note_off_c, 0, 55, 64
1, 580258, Note_on_c, 0, 53, 31
1, 580264, Note_off_c, 0, 52, 64
1, 580293, Note_off_c, 0, 53, 53
1, 580303, Note_on_c, 0, 76, 82
1, 580343, Note_off_c, 0, 77, 56
1, 580359, Note_on_c, 0, 72, 63
1, 580395, Note_off_c, 0, 76, 60
1, 580442, Note_on_c, 0, 40, 102
1, 580449, Note_on_c, 0, 67, 84
1, 580460, Note_off_c, 0, 72, 63
1, 580461, Note_on_c, 0, 33, 74
1, 580462, Note_on_c, 0, 31, 62
1, 580474, Note_on_c, 0, 38, 34
1, 580475, Note_off_c, 0, 67, 64
1, 580498, Note_off_c, 0, 31, 61
1, 580515, Note_off_c, 0, 38, 47
1, 580532, Note_off_c, 0, 33, 59
1, 580540, Note_off_c, 0, 40, 63
1, 580551, Note_on_c, 0, 83, 89
1, 580612, Note_on_c, 0, 81, 78
1, 580639, Note_off_c, 0, 83, 62
1, 580645, Note_on_c, 0, 80, 85
1, 580657, Note_off_c, 0, 81, 61
1, 580694, Note_off_c, 0, 80, 66
1, 580721, Note_on_c, 0, 79, 87
1, 580771, Note_on_c, 0, 76, 81
1, 580790, Control_c, 0, 64, 101
1, 580804, Control_c, 0, 64, 65
1, 580818, Note_on_c, 0, 71, 96
1, 580819, Note_on_c, 0, 45, 109
1, 580819, Control_c, 0, 64, 0
1, 580829, Note_on_c, 0, 39, 76
1, 580829, Note_on_c, 0, 40, 96
1, 580845, Note_off_c, 0, 79, 62
1, 580849, Note_off_c, 0, 76, 65
1, 580849, Control_c, 0, 64, 86
1, 580851, Note_on_c, 0, 43, 42
1, 580851, Note_off_c, 0, 39, 62
1, 580864, Control_c, 0, 64, 127
1, 580866, Note_off_c, 0, 71, 64
1, 580886, Note_off_c, 0, 43, 37
1, 580891, Note_on_c, 0, 41, 2
1, 580903, Note_off_c, 0, 45, 62
1, 580922, Note_off_c, 0, 40, 60
1, 580936, Note_off_c, 0, 41, 38
1, 581009, Note_on_c, 0, 91, 95
1, 581085, Note_on_c, 0, 90, 92
1, 581098, Note_off_c, 0, 91, 62
1, 581134, Note_off_c, 0, 90, 69
1, 581170, Note_on_c, 0, 65, 104
1, 581171, Note_on_c, 0, 89, 93
1, 581184, Note_on_c, 0, 57, 80
1, 581198, Note_on_c, 0, 62, 54
1, 581208, Note_on_c, 0, 58, 41
1, 581217, Note_on_c, 0, 64, 28
1, 581218, Note_off_c, 0, 64, 127
1, 581220, Note_off_c, 0, 65, 63
1, 581222, Note_off_c, 0, 62, 59
1, 581229, Note_on_c, 0, 88, 81
1, 581244, Note_off_c, 0, 58, 57
1, 581247, Note_off_c, 0, 57, 61
1, 581264, Note_off_c, 0, 89, 60
1, 581295, Note_on_c, 0, 84, 64
1, 581297, Note_on_c, 0, 83, 70
1, 581337, Note_off_c, 0, 88, 59
1, 581354, Note_off_c, 0, 84, 62
1, 581355, Note_on_c, 0, 79, 94
1, 581365, Note_on_c, 0, 60, 96
1, 581367, Note_off_c, 0, 83, 57
1, 581373, Note_on_c, 0, 52, 89
1, 581378, Note_on_c, 0, 53, 76
1, 581381, Note_on_c, 0, 55, 78
1, 581417, Note_on_c, 0, 57, 36
1, 581417, Note_off_c, 0, 60, 71
1, 581419, Note_off_c, 0, 79, 61
1, 581434, Note_off_c, 0, 53, 64
1, 581440, Note_off_c, 0, 55, 62
1, 581442, Note_off_c, 0, 57, 58
1, 581448, Note_off_c, 0, 52, 63
1, 581453, Note_on_c, 0, 83, 87
1, 581513, Note_on_c, 0, 79, 72
1, 581517, Note_on_c, 0, 81, 58
1, 581539, Note_off_c, 0, 83, 62
1, 581548, Note_off_c, 0, 81, 65
1, 581575, Note_on_c, 0, 78, 68
1, 581622, Note_off_c, 0, 78, 0
1, 581622, Note_on_c, 0, 78, 26
1, 581650, Note_on_c, 0, 76, 66
1, 581673, Note_on_c, 0, 32, 24
1, 581690, Note_on_c, 0, 69, 92
1, 581716, Note_off_c, 0, 79, 61
1, 581719, Note_off_c, 0, 32, 52
1, 581726, Note_off_c, 0, 78, 43
1, 581730, Note_on_c, 0, 71, 22
1, 581732, Note_off_c, 0, 76, 62
1, 581741, Note_off_c, 0, 69, 61
1, 581769, Note_on_c, 0, 33, 97
1, 581769, Control_c, 0, 64, 97
1, 581769, Note_on_c, 0, 28, 109
1, 581772, Note_off_c, 0, 71, 34
1, 581783, Note_on_c, 0, 31, 71
1, 581784, Control_c, 0, 64, 59
1, 581799, Control_c, 0, 64, 0
1, 581801, Note_on_c, 0, 27, 36
1, 581802, Note_off_c, 0, 27, 127
1, 581813, Note_off_c, 0, 31, 37
1, 581828, Control_c, 0, 64, 66
1, 581843, Control_c, 0, 64, 94
1, 581858, Control_c, 0, 64, 127
1, 581918, Note_off_c, 0, 33, 58
1, 581926, Note_off_c, 0, 28, 56
1, 581946, Note_on_c, 0, 95, 104
1, 582011, Note_off_c, 0, 95, 64
1, 582054, Note_on_c, 0, 93, 105
1, 582094, Note_on_c, 0, 95, 5
1, 582149, Note_off_c, 0, 95, 25
1, 582171, Note_on_c, 0, 92, 101
1, 582172, Note_on_c, 0, 64, 105
1, 582175, Note_on_c, 0, 60, 77
1, 582183, Note_on_c, 0, 55, 76
1, 582213, Note_off_c, 0, 93, 62
1, 582214, Note_on_c, 0, 61, 33
1, 582215, Note_off_c, 0, 61, 127
1, 582238, Note_off_c, 0, 92, 69
1, 582243, Note_on_c, 0, 57, 5
1, 582281, Note_on_c, 0, 91, 94
1, 582309, Note_off_c, 0, 57, 46
1, 582347, Note_on_c, 0, 88, 71
1, 582376, Note_on_c, 0, 86, 61
1, 582377, Note_off_c, 0, 91, 66
1, 582395, Note_off_c, 0, 64, 58
1, 582398, Note_off_c, 0, 86, 64
1, 582398, Note_off_c, 0, 88, 62
1, 582408, Note_off_c, 0, 55, 62
1, 582410, Note_off_c, 0, 60, 61
1, 582413, Note_on_c, 0, 77, 83
1, 582416, Note_on_c, 0, 79, 57
1, 582503, Note_off_c, 0, 77, 61
1, 582514, Note_off_c, 0, 79, 62
1, 582516, Note_on_c, 0, 84, 63
1, 582518, Note_on_c, 0, 83, 72
1, 582561, Note_on_c, 0, 81, 78
1, 582562, Note_off_c, 0, 84, 61
1, 582579, Note_off_c, 0, 83, 59
1, 582584, Note_on_c, 0, 60, 94
1, 582585, Note_on_c, 0, 52, 82
1, 582601, Note_on_c, 0, 55, 53
1, 582603, Note_on_c, 0, 80, 76
1, 582608, Note_on_c, 0, 57, 56
1, 582618, Note_off_c, 0, 81, 61
1, 582643, Note_off_c, 0, 57, 57
1, 582647, Note_off_c, 0, 55, 58
1, 582649, Note_off_c, 0, 52, 57
1, 582659, Note_off_c, 0, 80, 66
1, 582691, Poly_aftertouch_c, 0, 53, 0
1, 582693, Note_on_c, 0, 79, 87
1, 582695, Note_off_c, 0, 60, 54
1, 582732, Note_on_c, 0, 64, 101
1, 582732, Note_on_c, 0, 60, 70
1, 582734, Note_on_c, 0, 55, 85
1, 582749, Note_on_c, 0, 52, 80
1, 582764, Note_off_c, 0, 64, 69
1, 582769, Note_on_c, 0, 76, 73
1, 582787, Note_on_c, 0, 78, 64
1, 582801, Note_off_c, 0, 55, 62
1, 582801, Note_off_c, 0, 60, 64
1, 582806, Note_off_c, 0, 52, 62
1, 582812, Poly_aftertouch_c, 0, 61, 127
1, 582812, Note_on_c, 0, 61, 16
1, 582812, Note_on_c, 0, 71, 89
1, 582833, Note_off_c, 0, 79, 58
1, 582851, Note_off_c, 0, 61, 44
1, 582855, Note_off_c, 0, 78, 62
1, 582856, Note_off_c, 0, 76, 64
1, 582880, Note_off_c, 0, 71, 62
1, 582898, Note_on_c, 0, 83, 93
1, 582948, Note_on_c, 0, 81, 81
1, 582994, Note_on_c, 0, 80, 86
1, 583007, Note_off_c, 0, 83, 63
1, 583034, Note_off_c, 0, 81, 64
1, 583048, Note_on_c, 0, 79, 81
1, 583053, Note_off_c, 0, 80, 67
1, 583092, Note_on_c, 0, 76, 89
1, 583107, Note_off_c, 0, 79, 60
1, 583126, Note_on_c, 0, 33, 94
1, 583128, Note_off_c, 0, 76, 66
1, 583133, Note_on_c, 0, 28, 96
1, 583145, Note_on_c, 0, 26, 52
1, 583155, Control_c, 0, 64, 114
1, 583170, Control_c, 0, 64, 77
1, 583173, Note_off_c, 0, 26, 60
1, 583185, Control_c, 0, 64, 54
1, 583200, Control_c, 0, 64, 64
1, 583208, Note_on_c, 0, 71, 97
1, 583214, Control_c, 0, 64, 77
1, 583226, Note_off_c, 0, 33, 61
1, 583229, Control_c, 0, 64, 102
1, 583232, Note_off_c, 0, 28, 59
1, 583252, Control_c, 0, 64, 127
1, 583305, Note_on_c, 0, 69, 85
1, 583351, Note_off_c, 0, 71, 59
1, 583382, Note_on_c, 0, 68, 99
1, 583388, Note_off_c, 0, 69, 57
1, 583424, Note_off_c, 0, 68, 64
1, 583458, Note_on_c, 0, 67, 85
1, 583499, Note_on_c, 0, 64, 73
1, 583520, Note_off_c, 0, 67, 58
1, 583566, Note_on_c, 0, 60, 79
1, 583584, Note_off_c, 0, 64, 65
1, 583591, Note_on_c, 0, 62, 37
1, 583613, Note_on_c, 0, 59, 86
1, 583621, Note_off_c, 0, 62, 62
1, 583662, Note_on_c, 0, 57, 79
1, 583697, Note_off_c, 0, 60, 62
1, 583721, Note_off_c, 0, 57, 63
1, 583724, Note_off_c, 0, 59, 60
1, 583726, Note_on_c, 0, 56, 91
1, 583767, Note_off_c, 0, 56, 66
1, 583776, Note_on_c, 0, 55, 91
1, 583825, Note_off_c, 0, 55, 64
1, 583835, Note_on_c, 0, 52, 82
1, 583899, Note_on_c, 0, 48, 84
1, 583917, Note_off_c, 0, 52, 63
1, 583936, Note_on_c, 0, 47, 71
1, 583963, Note_on_c, 0, 50, 40
1, 583975, Note_off_c, 0, 48, 64
1, 584007, Note_off_c, 0, 50, 57
1, 584016, Note_on_c, 0, 45, 82
1, 584041, Note_off_c, 0, 47, 66
1, 584088, Note_on_c, 0, 44, 91
1, 584093, Note_off_c, 0, 45, 65
1, 584162, Note_on_c, 0, 43, 94
1, 584165, Note_off_c, 0, 44, 64
1, 584210, Note_off_c, 0, 43, 65
1, 584258, Note_on_c, 0, 40, 93
1, 584349, Note_on_c, 0, 36, 96
1, 584350, Note_off_c, 0, 40, 63
1, 584396, Note_off_c, 0, 36, 64
1, 584579, Control_c, 0, 64, 82
1, 584586, Note_on_c, 0, 33, 96
1, 584590, Note_on_c, 0, 21, 96
1, 584594, Control_c, 0, 64, 0
1, 584617, Note_on_c, 0, 31, 49
1, 584618, Note_off_c, 0, 31, 127
1, 584620, Note_on_c, 0, 27, 43
1, 584624, Note_on_c, 0, 26, 17
1, 584633, Note_on_c, 0, 23, 25
1, 584665, Note_off_c, 0, 27, 53
1, 584666, Note_off_c, 0, 21, 57
1, 584666, Note_off_c, 0, 26, 52
1, 584675, Note_off_c, 0, 23, 0
1, 584675, Note_on_c, 0, 23, 37
1, 584684, Control_c, 0, 64, 40
1, 584699, Control_c, 0, 64, 92
1, 584714, Control_c, 0, 64, 127
1, 584774, Note_off_c, 0, 23, 51
1, 584810, Note_off_c, 0, 33, 60
1, 584940, Note_on_c, 0, 40, 98
1, 585128, Note_off_c, 0, 40, 62
1, 585158, Note_on_c, 0, 45, 99
1, 585209, Note_off_c, 0, 45, 63
1, 585296, Note_on_c, 0, 48, 94
1, 585413, Note_on_c, 0, 51, 92
1, 585426, Note_off_c, 0, 48, 59
1, 585526, Note_off_c, 0, 51, 52
1, 585535, Note_on_c, 0, 52, 97
1, 585606, Note_off_c, 0, 52, 59
1, 585644, Poly_aftertouch_c, 0, 68, 127
1, 585647, Control_c, 0, 64, 100
1, 585662, Note_on_c, 0, 53, 90
1, 585662, Control_c, 0, 64, 74
1, 585674, Note_on_c, 0, 60, 82
1, 585677, Control_c, 0, 64, 65
1, 585686, Poly_aftertouch_c, 0, 68, 0
1, 585692, Control_c, 0, 64, 70
1, 585707, Control_c, 0, 64, 79
1, 585721, Control_c, 0, 64, 90
1, 585736, Control_c, 0, 64, 117
1, 585751, Control_c, 0, 64, 127
1, 585752, Note_on_c, 0, 63, 73
1, 585787, Note_on_c, 0, 68, 62
1, 585793, Note_on_c, 0, 54, 87
1, 585799, Note_off_c, 0, 60, 60
1, 585820, Note_off_c, 0, 53, 63
1, 585822, Note_on_c, 0, 66, 32
1, 585826, Note_on_c, 0, 71, 72
1, 585831, Note_off_c, 0, 63, 61
1, 585853, Note_off_c, 0, 68, 63
1, 585853, Note_off_c, 0, 71, 66
1, 585856, Note_off_c, 0, 66, 52
1, 585870, Control_c, 0, 64, 96
1, 585885, Control_c, 0, 64, 86
1, 585896, Note_on_c, 0, 56, 83
1, 585901, Note_off_c, 0, 54, 66
1, 585915, Control_c, 0, 64, 93
1, 585920, Note_on_c, 0, 63, 89
1, 585930, Control_c, 0, 64, 110
1, 585944, Control_c, 0, 64, 127
1, 585975, Note_off_c, 0, 63, 61
1, 585978, Note_on_c, 0, 69, 56
1, 585984, Note_on_c, 0, 71, 63
1, 585993, Note_off_c, 0, 56, 60
1, 585993, Note_on_c, 0, 57, 80
1, 586009, Note_on_c, 0, 72, 62
1, 586017, Note_on_c, 0, 75, 81
1, 586021, Note_off_c, 0, 69, 61
1, 586027, Note_off_c, 0, 71, 60
1, 586033, Control_c, 0, 64, 91
1, 586039, Note_off_c, 0, 72, 66
1, 586040, Note_off_c, 0, 57, 61
1, 586048, Control_c, 0, 64, 82
1, 586063, Control_c, 0, 64, 86
1, 586067, Note_off_c, 0, 75, 64
1, 586078, Control_c, 0, 64, 103
1, 586085, Note_on_c, 0, 59, 87
1, 586092, Control_c, 0, 64, 127
1, 586095, Note_on_c, 0, 68, 92
1, 586143, Note_off_c, 0, 68, 63
1, 586155, Note_on_c, 0, 72, 62
1, 586166, Note_on_c, 0, 75, 77
1, 586175, Note_on_c, 0, 60, 86
1, 586196, Control_c, 0, 64, 101
1, 586200, Note_off_c, 0, 59, 60
1, 586211, Control_c, 0, 64, 88
1, 586215, Note_off_c, 0, 72, 63
1, 586219, Note_on_c, 0, 77, 72
1, 586225, Control_c, 0, 64, 89
1, 586238, Note_off_c, 0, 75, 61
1, 586248, Control_c, 0, 64, 109
1, 586261, Note_on_c, 0, 63, 89
1, 586263, Control_c, 0, 64, 127
1, 586270, Note_off_c, 0, 60, 62
1, 586279, Note_on_c, 0, 69, 85
1, 586291, Note_off_c, 0, 77, 62
1, 586318, Note_on_c, 0, 72, 59
1, 586324, Note_on_c, 0, 75, 80
1, 586340, Note_on_c, 0, 64, 84
1, 586344, Note_off_c, 0, 63, 58
1, 586349, Note_off_c, 0, 72, 63
1, 586350, Note_off_c, 0, 69, 60
1, 586383, Note_off_c, 0, 64, 62
1, 586396, Note_off_c, 0, 75, 65
1, 586396, Control_c, 0, 64, 110
1, 586399, Note_on_c, 0, 80, 82
1, 586402, Note_on_c, 0, 76, 52
1, 586411, Control_c, 0, 64, 96
1, 586420, Note_on_c, 0, 65, 82
1, 586425, Control_c, 0, 64, 89
1, 586426, Note_off_c, 0, 76, 60
1, 586440, Control_c, 0, 64, 89
1, 586455, Control_c, 0, 64, 89
1, 586457, Note_on_c, 0, 72, 85
1, 586461, Note_off_c, 0, 80, 59
1, 586470, Control_c, 0, 64, 93
1, 586485, Control_c, 0, 64, 103
1, 586499, Note_on_c, 0, 66, 77
1, 586499, Control_c, 0, 64, 127
1, 586531, Note_on_c, 0, 75, 74
1, 586537, Note_off_c, 0, 65, 62
1, 586558, Note_on_c, 0, 78, 66
1, 586574, Note_on_c, 0, 80, 71
1, 586576, Note_on_c, 0, 67, 82
1, 586577, Note_off_c, 0, 72, 60
1, 586592, Note_off_c, 0, 66, 60
1, 586604, Control_c, 0, 64, 113
1, 586610, Note_off_c, 0, 75, 63
1, 586610, Note_off_c, 0, 78, 63
1, 586610, Note_on_c, 0, 83, 76
1, 586619, Control_c, 0, 64, 112
1, 586625, Note_off_c, 0, 67, 60
1, 586630, Note_off_c, 0, 80, 64
1, 586637, Note_off_c, 0, 83, 64
1, 586656, Note_on_c, 0, 68, 81
1, 586678, Control_c, 0, 64, 111
1, 586690, Note_on_c, 0, 75, 94
1, 586693, Control_c, 0, 64, 109
1, 586708, Control_c, 0, 64, 109
1, 586718, Note_on_c, 0, 69, 82
1, 586726, Note_off_c, 0, 68, 60
1, 586738, Control_c, 0, 64, 111
1, 586753, Control_c, 0, 64, 118
1, 586753, Note_on_c, 0, 83, 66
1, 586756, Note_on_c, 0, 81, 61
1, 586762, Note_off_c, 0, 69, 60
1, 586763, Note_off_c, 0, 75, 62
1, 586767, Control_c, 0, 64, 127
1, 586772, Note_on_c, 0, 84, 71
1, 586795, Note_on_c, 0, 70, 82
1, 586800, Note_off_c, 0, 81, 62
1, 586801, Note_on_c, 0, 87, 89
1, 586806, Note_off_c, 0, 83, 66
1, 586822, Note_off_c, 0, 84, 63
1, 586827, Control_c, 0, 64, 116
1, 586841, Control_c, 0, 64, 101
1, 586846, Note_off_c, 0, 87, 64
1, 586849, Note_off_c, 0, 70, 64
1, 586854, Note_on_c, 0, 71, 74
1, 586856, Control_c, 0, 64, 91
1, 586868, Note_on_c, 0, 80, 93
1, 586871, Control_c, 0, 64, 88
1, 586887, Note_off_c, 0, 71, 60
1, 586901, Control_c, 0, 64, 90
1, 586915, Control_c, 0, 64, 95
1, 586919, Note_off_c, 0, 80, 64
1, 586921, Note_on_c, 0, 72, 74
1, 586930, Control_c, 0, 64, 100
1, 586935, Note_on_c, 0, 84, 72
1, 586944, Note_on_c, 0, 87, 84
1, 586945, Control_c, 0, 64, 104
1, 586960, Control_c, 0, 64, 105
1, 586974, Control_c, 0, 64, 104
1, 586976, Note_on_c, 0, 89, 79
1, 586997, Note_on_c, 0, 73, 75
1, 586997, Control_c, 0, 64, 101
1, 586998, Note_off_c, 0, 84, 63
1, 587012, Control_c, 0, 64, 98
1, 587021, Note_off_c, 0, 72, 62
1, 587027, Control_c, 0, 64, 95
1, 587027, Note_off_c, 0, 87, 65
1, 587035, Note_off_c, 0, 89, 62
1, 587042, Control_c, 0, 64, 94
1, 587048, Note_on_c, 0, 81, 69
1, 587060, Note_on_c, 0, 74, 78
1, 587063, Note_off_c, 0, 73, 60
1, 587071, Control_c, 0, 64, 95
1, 587086, Control_c, 0, 64, 98
1, 587087, Note_on_c, 0, 84, 63
1, 587096, Note_off_c, 0, 74, 58
1, 587101, Control_c, 0, 64, 99
1, 587116, Note_on_c, 0, 87, 74
1, 587117, Note_off_c, 0, 81, 63
1, 587121, Note_on_c, 0, 88, 75
1, 587130, Control_c, 0, 64, 99
1, 587137, Note_on_c, 0, 75, 68
1, 587145, Note_off_c, 0, 84, 65
1, 587145, Control_c, 0, 64, 97
1, 587160, Control_c, 0, 64, 94
1, 587171, Note_off_c, 0, 87, 66
1, 587173, Note_on_c, 0, 92, 84
1, 587174, Control_c, 0, 64, 90
1, 587185, Note_off_c, 0, 88, 64
1, 587188, Note_off_c, 0, 75, 61
1, 587189, Control_c, 0, 64, 88
1, 587204, Control_c, 0, 64, 89
1, 587207, Note_on_c, 0, 76, 66
1, 587219, Control_c, 0, 64, 93
1, 587234, Control_c, 0, 64, 100
1, 587235, Note_off_c, 0, 76, 65
1, 587235, Note_off_c, 0, 92, 65
1, 587240, Note_on_c, 0, 84, 84
1, 587248, Control_c, 0, 64, 105
1, 587277, Note_on_c, 0, 77, 71
1, 587278, Control_c, 0, 64, 100
1, 587292, Control_c, 0, 64, 93
1, 587304, Note_on_c, 0, 87, 81
1, 587307, Control_c, 0, 64, 87
1, 587322, Control_c, 0, 64, 86
1, 587331, Note_on_c, 0, 90, 70
1, 587337, Control_c, 0, 64, 87
1, 587340, Note_off_c, 0, 84, 61
1, 587342, Note_on_c, 0, 78, 64
1, 587351, Note_on_c, 0, 92, 72
1, 587352, Control_c, 0, 64, 89
1, 587367, Control_c, 0, 64, 93
1, 587368, Note_off_c, 0, 77, 60
1, 587382, Control_c, 0, 64, 98
1, 587387, Note_off_c, 0, 87, 65
1, 587389, Note_off_c, 0, 90, 62
1, 587394, Note_on_c, 0, 95, 78
1, 587397, Control_c, 0, 64, 101
1, 587412, Control_c, 0, 64, 101
1, 587415, Note_off_c, 0, 92, 66
1, 587417, Note_off_c, 0, 78, 56
1, 587424, Note_on_c, 0, 79, 68
1, 587426, Control_c, 0, 64, 97
1, 587432, Note_off_c, 0, 95, 62
1, 587441, Control_c, 0, 64, 96
1, 587456, Control_c, 0, 64, 97
1, 587459, Note_off_c, 0, 79, 58
1, 587471, Control_c, 0, 64, 100
1, 587481, Note_on_c, 0, 87, 86
1, 587486, Control_c, 0, 64, 105
1, 587501, Control_c, 0, 64, 115
1, 587502, Note_on_c, 0, 80, 64
1, 587516, Control_c, 0, 64, 127
1, 587556, Note_on_c, 0, 93, 66
1, 587568, Note_off_c, 0, 80, 59
1, 587581, Note_on_c, 0, 95, 63
1, 587590, Note_on_c, 0, 81, 68
1, 587608, Note_on_c, 0, 96, 70
1, 587620, Note_off_c, 0, 81, 60
1, 587662, Note_on_c, 0, 82, 71
1, 587710, Note_off_c, 0, 93, 32
1, 587719, Note_off_c, 0, 87, 61
1, 587726, Note_on_c, 0, 99, 79
1, 587763, Note_on_c, 0, 83, 73
1, 587790, Control_c, 0, 64, 109
1, 587799, Note_off_c, 0, 82, 38
1, 587804, Control_c, 0, 64, 96
1, 587817, Note_off_c, 0, 99, 65
1, 587819, Control_c, 0, 64, 85
1, 587834, Control_c, 0, 64, 77
1, 587849, Control_c, 0, 64, 72
1, 587861, Note_on_c, 0, 100, 81
1, 587864, Control_c, 0, 64, 70
1, 587878, Control_c, 0, 64, 75
1, 587886, Note_off_c, 0, 95, 34
1, 587893, Control_c, 0, 64, 81
1, 587905, Note_off_c, 0, 96, 64
1, 587908, Control_c, 0, 64, 89
1, 587922, Control_c, 0, 64, 95
1, 587937, Control_c, 0, 64, 99
1, 587952, Control_c, 0, 64, 99
1, 587985, Note_on_c, 0, 84, 81
1, 588007, Note_off_c, 0, 83, 61
1, 588026, Control_c, 0, 64, 99
1, 588041, Control_c, 0, 64, 98
1, 588101, Note_off_c, 0, 100, 51
1, 588104, Note_on_c, 0, 85, 79
1, 588115, Control_c, 0, 64, 98
1, 588130, Control_c, 0, 64, 97
1, 588145, Control_c, 0, 64, 95
1, 588151, Note_off_c, 0, 84, 59
1, 588160, Control_c, 0, 64, 94
1, 588175, Control_c, 0, 64, 92
1, 588189, Control_c, 0, 64, 90
1, 588204, Control_c, 0, 64, 89
1, 588219, Control_c, 0, 64, 88
1, 588249, Control_c, 0, 64, 88
1, 588278, Note_on_c, 0, 86, 68
1, 588353, Control_c, 0, 64, 87
1, 588368, Control_c, 0, 64, 87
1, 588371, Note_off_c, 0, 85, 57
1, 588383, Control_c, 0, 64, 86
1, 588398, Control_c, 0, 64, 85
1, 588413, Control_c, 0, 64, 84
1, 588502, Note_on_c, 0, 87, 68
1, 588541, Note_off_c, 0, 86, 59
1, 588658, Control_c, 0, 64, 85
1, 588673, Control_c, 0, 64, 85
1, 588687, Control_c, 0, 64, 86
1, 588702, Control_c, 0, 64, 86
1, 588717, Control_c, 0, 64, 87
1, 588720, Note_off_c, 0, 87, 62
1, 588776, Control_c, 0, 64, 87
1, 588820, Control_c, 0, 64, 88
1, 588820, Control_c, 0, 67, 8
1, 588835, Control_c, 0, 64, 89
1, 588835, Control_c, 0, 67, 9
1, 588850, Control_c, 0, 64, 90
1, 588850, Control_c, 0, 67, 9
1, 588865, Control_c, 0, 64, 91
1, 588865, Control_c, 0, 67, 10
1, 588877, Note_on_c, 0, 88, 63
1, 588880, Control_c, 0, 67, 11
1, 588894, Control_c, 0, 67, 11
1, 588938, Control_c, 0, 67, 12
1, 588950, Note_off_c, 0, 88, 51
1, 588968, Control_c, 0, 67, 12
1, 588983, Control_c, 0, 67, 13
1, 588998, Control_c, 0, 67, 14
1, 589012, Control_c, 0, 67, 15
1, 589027, Control_c, 0, 67, 16
1, 589042, Control_c, 0, 67, 17
1, 589057, Control_c, 0, 67, 17
1, 589073, Control_c, 0, 67, 19
1, 589088, Control_c, 0, 67, 21
1, 589103, Control_c, 0, 67, 23
1, 589117, Control_c, 0, 67, 25
1, 589132, Control_c, 0, 67, 28
1, 589147, Control_c, 0, 67, 29
1, 589161, Control_c, 0, 67, 31
1, 589176, Control_c, 0, 67, 32
1, 589191, Control_c, 0, 67, 33
1, 589206, Control_c, 0, 67, 34
1, 589221, Control_c, 0, 67, 36
1, 589243, Control_c, 0, 67, 36
1, 589258, Control_c, 0, 67, 37
1, 589273, Control_c, 0, 67, 38
1, 589288, Control_c, 0, 67, 39
1, 589303, Control_c, 0, 67, 40
1, 589317, Control_c, 0, 67, 41
1, 589332, Control_c, 0, 67, 41
1, 589347, Control_c, 0, 67, 42
1, 589362, Control_c, 0, 67, 43
1, 589376, Control_c, 0, 67, 44
1, 589391, Control_c, 0, 67, 45
1, 589406, Control_c, 0, 67, 45
1, 589436, Control_c, 0, 67, 46
1, 589451, Control_c, 0, 67, 46
1, 589465, Control_c, 0, 67, 47
1, 589480, Control_c, 0, 67, 48
1, 589495, Control_c, 0, 67, 49
1, 589510, Control_c, 0, 67, 49
1, 589525, Control_c, 0, 67, 50
1, 589540, Control_c, 0, 67, 50
1, 589555, Control_c, 0, 67, 52
1, 589569, Control_c, 0, 67, 53
1, 589584, Control_c, 0, 67, 54
1, 589599, Control_c, 0, 67, 55
1, 589614, Control_c, 0, 67, 56
1, 589629, Control_c, 0, 67, 57
1, 589643, Control_c, 0, 67, 58
1, 589658, Control_c, 0, 67, 59
1, 589673, Control_c, 0, 67, 60
1, 589687, Control_c, 0, 67, 61
1, 589702, Control_c, 0, 67, 61
1, 589821, Control_c, 0, 67, 61
1, 589835, Control_c, 0, 67, 60
1, 589850, Control_c, 0, 67, 59
1, 589865, Control_c, 0, 67, 58
1, 589880, Control_c, 0, 67, 57
1, 589895, Control_c, 0, 67, 57
1, 589924, Control_c, 0, 64, 91
1, 589924, Control_c, 0, 67, 56
1, 589939, Control_c, 0, 67, 56
1, 589954, Control_c, 0, 67, 55
1, 589969, Control_c, 0, 64, 92
1, 589969, Control_c, 0, 67, 54
1, 589990, Control_c, 0, 67, 54
1, 590005, Control_c, 0, 67, 53
1, 590020, Control_c, 0, 67, 52
1, 590035, Control_c, 0, 67, 52
1, 590050, Control_c, 0, 67, 50
1, 590065, Control_c, 0, 67, 50
1, 590079, Control_c, 0, 67, 49
1, 590094, Control_c, 0, 67, 48
1, 590109, Control_c, 0, 67, 46
1, 590124, Control_c, 0, 67, 41
1, 590139, Control_c, 0, 67, 34
1, 590154, Control_c, 0, 67, 26
1, 590169, Control_c, 0, 67, 20
1, 590184, Control_c, 0, 67, 14
1, 590198, Control_c, 0, 67, 9
1, 590213, Control_c, 0, 67, 0
1, 590583, Control_c, 0, 64, 91
1, 590613, Control_c, 0, 64, 91
1, 590643, Control_c, 0, 64, 90
1, 590688, Control_c, 0, 64, 90
1, 590703, Control_c, 0, 64, 89
1, 590717, Control_c, 0, 64, 89
1, 590754, Control_c, 0, 64, 88
1, 590769, Control_c, 0, 64, 88
1, 590799, Control_c, 0, 64, 87
1, 590828, Control_c, 0, 64, 87
1, 590858, Control_c, 0, 64, 86
1, 590902, Control_c, 0, 64, 86
1, 590917, Control_c, 0, 67, 8
1, 590932, Control_c, 0, 64, 85
1, 590932, Control_c, 0, 67, 8
1, 590947, Control_c, 0, 67, 9
1, 590962, Control_c, 0, 67, 11
1, 590977, Control_c, 0, 67, 13
1, 590992, Control_c, 0, 64, 85
1, 590992, Control_c, 0, 67, 15
1, 591007, Control_c, 0, 67, 18
1, 591021, Control_c, 0, 67, 22
1, 591036, Control_c, 0, 64, 84
1, 591036, Control_c, 0, 67, 26
1, 591051, Control_c, 0, 67, 30
1, 591066, Control_c, 0, 67, 34
1, 591081, Control_c, 0, 67, 39
1, 591095, Control_c, 0, 64, 84
1, 591095, Control_c, 0, 67, 42
1, 591110, Control_c, 0, 67, 45
1, 591125, Control_c, 0, 67, 46
1, 591139, Control_c, 0, 64, 83
1, 591139, Control_c, 0, 67, 48
1, 591154, Control_c, 0, 67, 50
1, 591169, Control_c, 0, 67, 51
1, 591184, Control_c, 0, 64, 83
1, 591184, Control_c, 0, 67, 53
1, 591199, Control_c, 0, 67, 54
1, 591213, Control_c, 0, 67, 56
1, 591228, Control_c, 0, 64, 82
1, 591228, Control_c, 0, 67, 57
1, 591243, Control_c, 0, 67, 58
1, 591258, Control_c, 0, 67, 60
1, 591272, Control_c, 0, 67, 62
1, 591287, Control_c, 0, 64, 82
1, 591287, Control_c, 0, 67, 63
1, 591302, Control_c, 0, 67, 65
1, 591317, Control_c, 0, 67, 66
1, 591332, Control_c, 0, 67, 68
1, 591346, Control_c, 0, 64, 81
1, 591346, Control_c, 0, 67, 69
1, 591362, Control_c, 0, 67, 71
1, 591377, Control_c, 0, 67, 72
1, 591392, Control_c, 0, 67, 73
1, 591406, Control_c, 0, 67, 74
1, 591421, Control_c, 0, 64, 81
1, 591421, Control_c, 0, 67, 75
1, 591436, Control_c, 0, 67, 75
1, 591451, Control_c, 0, 67, 76
1, 591467, Control_c, 0, 64, 80
1, 591467, Control_c, 0, 67, 77
1, 591489, Control_c, 0, 67, 78
1, 591504, Control_c, 0, 64, 80
1, 591504, Control_c, 0, 67, 79
1, 591519, Control_c, 0, 67, 80
1, 591534, Control_c, 0, 64, 79
1, 591534, Control_c, 0, 67, 81
1, 591549, Control_c, 0, 67, 82
1, 591563, Control_c, 0, 67, 83
1, 591578, Control_c, 0, 64, 79
1, 591578, Control_c, 0, 67, 85
1, 591593, Control_c, 0, 67, 86
1, 591608, Control_c, 0, 67, 87
1, 591623, Control_c, 0, 67, 88
1, 591637, Control_c, 0, 67, 89
1, 591652, Control_c, 0, 64, 78
1, 591652, Control_c, 0, 67, 91
1, 591667, Control_c, 0, 67, 92
1, 591682, Control_c, 0, 67, 93
1, 591697, Control_c, 0, 67, 95
1, 591711, Control_c, 0, 67, 96
1, 591726, Control_c, 0, 64, 78
1, 591726, Control_c, 0, 67, 98
1, 591741, Control_c, 0, 67, 99
1, 591756, Control_c, 0, 67, 100
1, 591770, Control_c, 0, 64, 77
1, 591770, Control_c, 0, 67, 102
1, 591785, Control_c, 0, 67, 103
1, 591800, Control_c, 0, 67, 105
1, 591815, Control_c, 0, 67, 106
1, 591830, Control_c, 0, 67, 108
1, 591844, Control_c, 0, 64, 77
1, 591844, Control_c, 0, 67, 110
1, 591859, Control_c, 0, 67, 111
1, 591874, Control_c, 0, 67, 114
1, 591889, Control_c, 0, 64, 76
1, 591889, Control_c, 0, 67, 115
1, 591904, Control_c, 0, 67, 117
1, 591919, Control_c, 0, 67, 119
1, 591934, Control_c, 0, 67, 122
1, 591949, Control_c, 0, 64, 76
1, 591949, Control_c, 0, 67, 124
1, 591963, Control_c, 0, 67, 127
1, 591978, Control_c, 0, 67, 127
1, 592023, Control_c, 0, 64, 75
1, 592052, Control_c, 0, 64, 75
1, 592096, Control_c, 0, 64, 74
1, 592126, Control_c, 0, 64, 74
1, 592141, Control_c, 0, 64, 73
1, 592156, Control_c, 0, 64, 73
1, 592170, Control_c, 0, 64, 72
1, 592185, Control_c, 0, 64, 72
1, 592200, Control_c, 0, 64, 71
1, 592215, Control_c, 0, 64, 71
1, 592267, Control_c, 0, 64, 70
1, 592327, Control_c, 0, 64, 70
1, 592416, Control_c, 0, 64, 69
1, 592475, Control_c, 0, 64, 69
1, 592519, Control_c, 0, 64, 68
1, 592564, Control_c, 0, 64, 68
1, 592593, Control_c, 0, 64, 67
1, 592638, Control_c, 0, 64, 67
1, 592682, Control_c, 0, 64, 66
1, 592712, Control_c, 0, 64, 66
1, 592771, Control_c, 0, 64, 65
1, 592801, Control_c, 0, 64, 65
1, 592831, Control_c, 0, 64, 64
1, 592860, Control_c, 0, 64, 64
1, 592890, Control_c, 0, 64, 63
1, 593090, Control_c, 0, 64, 64
1, 593150, Control_c, 0, 64, 64
1, 593165, Control_c, 0, 64, 65
1, 593180, Control_c, 0, 64, 66
1, 593195, Control_c, 0, 64, 66
1, 593209, Control_c, 0, 64, 67
1, 593224, Control_c, 0, 64, 67
1, 593239, Control_c, 0, 64, 68
1, 593254, Control_c, 0, 64, 68
1, 593269, Control_c, 0, 64, 69
1, 593283, Control_c, 0, 64, 70
1, 593298, Control_c, 0, 64, 71
1, 593313, Control_c, 0, 64, 72
1, 593328, Control_c, 0, 64, 73
1, 593342, Control_c, 0, 64, 74
1, 593357, Control_c, 0, 64, 76
1, 593372, Control_c, 0, 64, 78
1, 593387, Control_c, 0, 64, 80
1, 593402, Control_c, 0, 64, 83
1, 593416, Control_c, 0, 64, 86
1, 593431, Control_c, 0, 64, 89
1, 593446, Control_c, 0, 64, 95
1, 593461, Control_c, 0, 64, 103
1, 593476, Control_c, 0, 64, 116
1, 593490, Control_c, 0, 64, 127
1, 594118, Note_on_c, 0, 52, 49
1, 594312, Control_c, 0, 67, 123
1, 594327, Control_c, 0, 67, 118
1, 594342, Control_c, 0, 67, 111
1, 594357, Control_c, 0, 67, 104
1, 594372, Control_c, 0, 67, 97
1, 594387, Control_c, 0, 67, 90
1, 594402, Control_c, 0, 67, 86
1, 594417, Control_c, 0, 67, 82
1, 594432, Control_c, 0, 67, 79
1, 594447, Control_c, 0, 67, 76
1, 594461, Control_c, 0, 67, 73
1, 594483, Control_c, 0, 67, 71
1, 594498, Control_c, 0, 67, 69
1, 594513, Control_c, 0, 67, 68
1, 594528, Control_c, 0, 67, 67
1, 594543, Control_c, 0, 67, 64
1, 594557, Control_c, 0, 67, 61
1, 594572, Control_c, 0, 67, 56
1, 594587, Control_c, 0, 67, 52
1, 594602, Control_c, 0, 67, 48
1, 594617, Control_c, 0, 67, 44
1, 594631, Control_c, 0, 67, 41
1, 594646, Control_c, 0, 67, 38
1, 594662, Control_c, 0, 67, 36
1, 594677, Control_c, 0, 67, 36
1, 594692, Control_c, 0, 67, 35
1, 594699, Note_on_c, 0, 33, 36
1, 594706, Control_c, 0, 67, 34
1, 594721, Control_c, 0, 67, 33
1, 594736, Control_c, 0, 67, 33
1, 594751, Control_c, 0, 67, 32
1, 594774, Note_on_c, 0, 57, 54
1, 594780, Control_c, 0, 67, 32
1, 594795, Control_c, 0, 67, 30
1, 594810, Control_c, 0, 67, 29
1, 594825, Control_c, 0, 67, 28
1, 594840, Control_c, 0, 67, 28
1, 594855, Control_c, 0, 67, 27
1, 594870, Control_c, 0, 67, 25
1, 594885, Control_c, 0, 67, 24
1, 594914, Control_c, 0, 67, 23
1, 594929, Control_c, 0, 67, 21
1, 594944, Control_c, 0, 67, 19
1, 594959, Control_c, 0, 67, 17
1, 594974, Control_c, 0, 67, 15
1, 594988, Control_c, 0, 67, 15
1, 595003, Control_c, 0, 67, 14
1, 595070, Note_off_c, 0, 33, 8
1, 595099, Note_off_c, 0, 52, 31
1, 595408, Note_off_c, 0, 57, 33
1, 595419, Note_on_c, 0, 64, 39
1, 595423, Note_on_c, 0, 48, 27
1, 595551, Note_off_c, 0, 64, 51
1, 595796, Note_on_c, 0, 40, 23
1, 595851, Note_on_c, 0, 71, 64
1, 595865, Note_on_c, 0, 59, 38
1, 595877, Note_off_c, 0, 48, 40
1, 595933, Note_off_c, 0, 59, 36
1, 595988, Note_off_c, 0, 71, 39
1, 596115, Control_c, 0, 67, 14
1, 596129, Control_c, 0, 67, 13
1, 596177, Note_on_c, 0, 52, 41
1, 596189, Control_c, 0, 67, 13
1, 596193, Note_on_c, 0, 60, 33
1, 596203, Control_c, 0, 67, 12
1, 596226, Note_off_c, 0, 40, 26
1, 596248, Control_c, 0, 67, 12
1, 596264, Control_c, 0, 67, 8
1, 596279, Control_c, 0, 67, 0
1, 596457, Note_off_c, 0, 60, 43
1, 596462, Note_on_c, 0, 64, 36
1, 596471, Note_on_c, 0, 45, 35
1, 596486, Note_off_c, 0, 52, 30
1, 596521, Note_off_c, 0, 64, 54
1, 596834, Note_on_c, 0, 40, 35
1, 596890, Note_off_c, 0, 45, 44
1, 596925, Note_on_c, 0, 52, 62
1, 597026, Note_off_c, 0, 40, 36
1, 597101, Control_c, 0, 67, 8
1, 597116, Control_c, 0, 67, 8
1, 597131, Control_c, 0, 67, 9
1, 597146, Control_c, 0, 67, 11
1, 597161, Control_c, 0, 67, 13
1, 597175, Control_c, 0, 67, 16
1, 597190, Control_c, 0, 67, 19
1, 597205, Control_c, 0, 67, 22
1, 597220, Control_c, 0, 67, 25
1, 597235, Control_c, 0, 67, 28
1, 597249, Control_c, 0, 67, 28
1, 597279, Control_c, 0, 67, 29
1, 597308, Control_c, 0, 67, 29
1, 597338, Control_c, 0, 67, 30
1, 597370, Note_on_c, 0, 36, 44
1, 597413, Control_c, 0, 67, 30
1, 597442, Control_c, 0, 67, 31
1, 597457, Control_c, 0, 67, 32
1, 597479, Control_c, 0, 64, 110
1, 597479, Control_c, 0, 67, 33
1, 597492, Note_on_c, 0, 55, 61
1, 597494, Control_c, 0, 64, 90
1, 597494, Control_c, 0, 67, 35
1, 597508, Control_c, 0, 64, 74
1, 597508, Control_c, 0, 67, 36
1, 597523, Control_c, 0, 64, 54
1, 597523, Control_c, 0, 67, 38
1, 597538, Control_c, 0, 64, 0
1, 597538, Control_c, 0, 67, 38
1, 597582, Control_c, 0, 67, 39
1, 597612, Control_c, 0, 64, 50
1, 597612, Control_c, 0, 67, 39
1, 597627, Control_c, 0, 64, 68
1, 597642, Control_c, 0, 64, 84
1, 597657, Control_c, 0, 64, 105
1, 597657, Control_c, 0, 67, 39
1, 597672, Control_c, 0, 64, 127
1, 597672, Control_c, 0, 67, 38
1, 597687, Control_c, 0, 67, 38
1, 597716, Control_c, 0, 67, 37
1, 597731, Control_c, 0, 67, 37
1, 597754, Note_off_c, 0, 52, 16
1, 597776, Control_c, 0, 67, 36
1, 597849, Control_c, 0, 67, 36
1, 597878, Note_off_c, 0, 36, 40
1, 597939, Control_c, 0, 67, 35
1, 598024, Note_off_c, 0, 55, 58
1, 598050, Note_on_c, 0, 52, 37
1, 598056, Note_on_c, 0, 64, 37
1, 598121, Note_off_c, 0, 64, 55
1, 598257, Control_c, 0, 67, 35
1, 598323, Note_on_c, 0, 43, 4
1, 598417, Note_off_c, 0, 52, 40
1, 598426, Note_on_c, 0, 71, 51
1, 598444, Note_on_c, 0, 59, 23
1, 598450, Control_c, 0, 67, 35
1, 598479, Note_off_c, 0, 59, 54
1, 598534, Note_off_c, 0, 71, 34
1, 598611, Note_off_c, 0, 43, 36
1, 598673, Control_c, 0, 67, 36
1, 598718, Control_c, 0, 67, 37
1, 598730, Note_on_c, 0, 60, 45
1, 598736, Note_on_c, 0, 55, 35
1, 598747, Control_c, 0, 67, 38
1, 598762, Control_c, 0, 67, 38
1, 598777, Control_c, 0, 67, 39
1, 598792, Control_c, 0, 67, 39
1, 598807, Control_c, 0, 67, 40
1, 598925, Control_c, 0, 67, 40
1, 598992, Control_c, 0, 67, 41
1, 599007, Control_c, 0, 67, 41
1, 599022, Control_c, 0, 67, 44
1, 599036, Control_c, 0, 67, 46
1, 599051, Control_c, 0, 67, 49
1, 599066, Control_c, 0, 67, 53
1, 599073, Note_on_c, 0, 64, 44
1, 599080, Control_c, 0, 67, 57
1, 599085, Note_off_c, 0, 60, 36
1, 599089, Note_on_c, 0, 48, 31
1, 599095, Control_c, 0, 67, 60
1, 599110, Control_c, 0, 67, 62
1, 599125, Control_c, 0, 67, 64
1, 599128, Note_off_c, 0, 55, 28
1, 599140, Control_c, 0, 67, 66
1, 599154, Control_c, 0, 67, 68
1, 599169, Control_c, 0, 67, 70
1, 599184, Control_c, 0, 67, 72
1, 599199, Control_c, 0, 67, 74
1, 599206, Note_off_c, 0, 64, 36
1, 599214, Control_c, 0, 67, 75
1, 599228, Control_c, 0, 67, 77
1, 599243, Control_c, 0, 67, 78
1, 599258, Control_c, 0, 67, 79
1, 599273, Control_c, 0, 67, 81
1, 599288, Control_c, 0, 67, 82
1, 599302, Control_c, 0, 67, 83
1, 599317, Control_c, 0, 67, 85
1, 599332, Control_c, 0, 67, 86
1, 599347, Control_c, 0, 67, 88
1, 599362, Control_c, 0, 67, 90
1, 599377, Control_c, 0, 67, 92
1, 599392, Control_c, 0, 67, 93
1, 599406, Control_c, 0, 67, 95
1, 599421, Control_c, 0, 67, 97
1, 599436, Control_c, 0, 67, 99
1, 599451, Control_c, 0, 67, 101
1, 599466, Control_c, 0, 67, 103
1, 599481, Control_c, 0, 67, 105
1, 599496, Control_c, 0, 67, 107
1, 599511, Control_c, 0, 67, 109
1, 599526, Control_c, 0, 67, 111
1, 599541, Control_c, 0, 67, 113
1, 599542, Note_off_c, 0, 48, 38
1, 599556, Control_c, 0, 67, 115
1, 599571, Control_c, 0, 67, 117
1, 599574, Note_on_c, 0, 43, 29
1, 599585, Control_c, 0, 67, 119
1, 599600, Control_c, 0, 67, 120
1, 599615, Control_c, 0, 67, 122
1, 599615, Note_on_c, 0, 52, 48
1, 599630, Control_c, 0, 67, 123
1, 599645, Control_c, 0, 67, 125
1, 599659, Control_c, 0, 67, 127
1, 599689, Control_c, 0, 64, 126
1, 599703, Control_c, 0, 64, 122
1, 599726, Control_c, 0, 64, 120
1, 599741, Control_c, 0, 64, 118
1, 599756, Control_c, 0, 64, 117
1, 599766, Note_off_c, 0, 43, 39
1, 599770, Control_c, 0, 64, 115
1, 599785, Control_c, 0, 64, 114
1, 599800, Control_c, 0, 64, 113
1, 599815, Control_c, 0, 64, 112
1, 599830, Control_c, 0, 64, 110
1, 599845, Control_c, 0, 64, 109
1, 599859, Control_c, 0, 64, 108
1, 599874, Control_c, 0, 64, 108
1, 599889, Control_c, 0, 64, 107
1, 599903, Control_c, 0, 64, 107
1, 599918, Control_c, 0, 64, 106
1, 599933, Control_c, 0, 64, 106
1, 599948, Control_c, 0, 64, 105
1, 599963, Control_c, 0, 64, 105
1, 599977, Control_c, 0, 64, 104
1, 599992, Control_c, 0, 64, 104
1, 600007, Control_c, 0, 64, 103
1, 600021, Control_c, 0, 64, 103
1, 600036, Control_c, 0, 64, 102
1, 600051, Control_c, 0, 64, 102
1, 600066, Control_c, 0, 64, 101
1, 600081, Control_c, 0, 64, 100
1, 600095, Control_c, 0, 64, 100
1, 600110, Control_c, 0, 64, 99
1, 600125, Control_c, 0, 64, 98
1, 600140, Control_c, 0, 64, 97
1, 600155, Control_c, 0, 64, 97
1, 600170, Control_c, 0, 64, 96
1, 600185, Control_c, 0, 64, 95
1, 600200, Control_c, 0, 64, 94
1, 600215, Control_c, 0, 64, 93
1, 600229, Control_c, 0, 64, 92
1, 600245, Control_c, 0, 64, 91
1, 600260, Control_c, 0, 64, 91
1, 600274, Control_c, 0, 64, 90
1, 600289, Control_c, 0, 64, 89
1, 600304, Control_c, 0, 64, 89
1, 600319, Control_c, 0, 64, 88
1, 600334, Control_c, 0, 64, 88
1, 600364, Control_c, 0, 64, 87
1, 600379, Control_c, 0, 64, 87
1, 600393, Control_c, 0, 64, 86
1, 600408, Control_c, 0, 64, 86
1, 600423, Control_c, 0, 64, 85
1, 600438, Control_c, 0, 64, 84
1, 600453, Control_c, 0, 64, 84
1, 600474, Control_c, 0, 64, 83
1, 600489, Control_c, 0, 64, 82
1, 600502, Note_on_c, 0, 28, 36
1, 600504, Control_c, 0, 64, 80
1, 600518, Note_on_c, 0, 56, 41
1, 600519, Control_c, 0, 64, 78
1, 600534, Control_c, 0, 64, 76
1, 600548, Control_c, 0, 64, 73
1, 600563, Control_c, 0, 64, 70
1, 600578, Control_c, 0, 64, 66
1, 600588, Note_off_c, 0, 52, 27
1, 600593, Control_c, 0, 64, 63
1, 600608, Control_c, 0, 64, 59
1, 600623, Control_c, 0, 64, 56
1, 600638, Control_c, 0, 64, 53
1, 600652, Control_c, 0, 64, 50
1, 600667, Control_c, 0, 64, 46
1, 600682, Control_c, 0, 64, 40
1, 600697, Control_c, 0, 64, 37
1, 600712, Control_c, 0, 64, 36
1, 600756, Control_c, 0, 64, 38
1, 600771, Control_c, 0, 64, 45
1, 600786, Control_c, 0, 64, 52
1, 600800, Control_c, 0, 64, 56
1, 600815, Control_c, 0, 64, 60
1, 600830, Control_c, 0, 64, 63
1, 600845, Control_c, 0, 64, 65
1, 600859, Control_c, 0, 64, 69
1, 600874, Control_c, 0, 64, 73
1, 600889, Control_c, 0, 64, 76
1, 600904, Control_c, 0, 64, 80
1, 600918, Control_c, 0, 64, 84
1, 600933, Control_c, 0, 64, 91
1, 600948, Control_c, 0, 64, 98
1, 600963, Control_c, 0, 64, 107
1, 600978, Control_c, 0, 64, 116
1, 600993, Control_c, 0, 64, 127
1, 601073, Note_off_c, 0, 28, 36
1, 601336, Note_on_c, 0, 64, 34
1, 601342, Note_on_c, 0, 47, 32
1, 601378, Note_off_c, 0, 56, 29
1, 601505, Note_off_c, 0, 64, 43
1, 601747, Note_off_c, 0, 47, 40
1, 601765, Note_on_c, 0, 40, 26
1, 601842, Note_on_c, 0, 71, 50
1, 601848, Note_on_c, 0, 59, 39
1, 601970, Note_off_c, 0, 40, 42
1, 601976, Note_off_c, 0, 71, 31
1, 602188, Note_on_c, 0, 56, 40
1, 602196, Note_on_c, 0, 61, 39
1, 602254, Note_off_c, 0, 59, 39
1, 602324, Note_off_c, 0, 56, 59
1, 602465, Note_off_c, 0, 61, 41
1, 602476, Note_on_c, 0, 64, 45
1, 602477, Note_on_c, 0, 47, 30
1, 602539, Note_off_c, 0, 47, 60
1, 602542, Note_off_c, 0, 64, 48
1, 602550, Control_c, 0, 67, 126
1, 602565, Control_c, 0, 67, 125
1, 602579, Control_c, 0, 67, 124
1, 602593, Control_c, 0, 67, 122
1, 602608, Control_c, 0, 67, 120
1, 602623, Control_c, 0, 67, 117
1, 602639, Control_c, 0, 67, 115
1, 602654, Control_c, 0, 67, 111
1, 602668, Control_c, 0, 67, 108
1, 602683, Control_c, 0, 67, 105
1, 602698, Control_c, 0, 67, 102
1, 602720, Control_c, 0, 67, 99
1, 602735, Control_c, 0, 67, 96
1, 602749, Note_on_c, 0, 59, 36
1, 602750, Control_c, 0, 67, 93
1, 602753, Note_on_c, 0, 64, 33
1, 602765, Control_c, 0, 67, 90
1, 602780, Control_c, 0, 67, 87
1, 602794, Control_c, 0, 67, 83
1, 602809, Control_c, 0, 67, 80
1, 602824, Control_c, 0, 67, 77
1, 602839, Control_c, 0, 67, 74
1, 602853, Control_c, 0, 67, 71
1, 602868, Control_c, 0, 67, 68
1, 602883, Control_c, 0, 67, 66
1, 602898, Control_c, 0, 67, 63
1, 602913, Control_c, 0, 67, 60
1, 602927, Control_c, 0, 67, 56
1, 602942, Control_c, 0, 67, 51
1, 602957, Control_c, 0, 67, 45
1, 602972, Control_c, 0, 67, 41
1, 602987, Control_c, 0, 67, 37
1, 603002, Control_c, 0, 67, 33
1, 603017, Control_c, 0, 67, 29
1, 603018, Note_on_c, 0, 71, 46
1, 603024, Note_off_c, 0, 64, 41
1, 603032, Control_c, 0, 67, 25
1, 603040, Note_on_c, 0, 61, 39
1, 603046, Control_c, 0, 67, 21
1, 603061, Control_c, 0, 67, 17
1, 603076, Control_c, 0, 67, 15
1, 603091, Control_c, 0, 67, 15
1, 603106, Control_c, 0, 67, 14
1, 603120, Control_c, 0, 67, 12
1, 603135, Control_c, 0, 67, 10
1, 603150, Control_c, 0, 67, 0
1, 603219, Note_off_c, 0, 71, 32
1, 603299, Note_on_c, 0, 76, 47
1, 603324, Note_on_c, 0, 64, 35
1, 603588, Note_on_c, 0, 71, 40
1, 603795, Note_off_c, 0, 61, 35
1, 603944, Note_on_c, 0, 73, 37
1, 603978, Note_off_c, 0, 59, 37
1, 603982, Note_off_c, 0, 71, 31
1, 604038, Note_off_c, 0, 64, 39
1, 604043, Note_off_c, 0, 76, 35
1, 604358, Note_on_c, 0, 76, 56
1, 604417, Note_on_c, 0, 71, 25
1, 604598, Note_off_c, 0, 73, 19
1, 604930, Note_on_c, 0, 73, 45
1, 605023, Note_off_c, 0, 71, 42
1, 605024, Note_off_c, 0, 76, 59
1, 605177, Note_off_c, 0, 73, 30
1, 606148, Note_on_c, 0, 80, 67
1, 606153, Note_on_c, 0, 64, 34
1, 606154, Note_on_c, 0, 71, 26
1, 606157, Note_on_c, 0, 68, 33
1, 606203, Note_on_c, 0, 76, 40
1, 606293, Control_c, 0, 64, 114
1, 606308, Control_c, 0, 64, 100
1, 606308, Control_c, 0, 67, 8
1, 606323, Control_c, 0, 64, 90
1, 606323, Control_c, 0, 67, 9
1, 606337, Control_c, 0, 64, 80
1, 606337, Control_c, 0, 67, 9
1, 606352, Control_c, 0, 64, 71
1, 606352, Control_c, 0, 67, 10
1, 606367, Control_c, 0, 64, 61
1, 606367, Control_c, 0, 67, 11
1, 606382, Control_c, 0, 64, 0
1, 606382, Control_c, 0, 67, 12
1, 606397, Control_c, 0, 67, 12
1, 606412, Control_c, 0, 67, 13
1, 606427, Control_c, 0, 67, 13
1, 606442, Control_c, 0, 67, 14
1, 606457, Control_c, 0, 67, 15
1, 606493, Control_c, 0, 64, 47
1, 606508, Control_c, 0, 64, 61
1, 606523, Control_c, 0, 64, 64
1, 606537, Control_c, 0, 64, 65
1, 606552, Control_c, 0, 64, 67
1, 606552, Control_c, 0, 67, 14
1, 606567, Control_c, 0, 64, 69
1, 606567, Control_c, 0, 67, 14
1, 606582, Control_c, 0, 64, 71
1, 606597, Control_c, 0, 64, 72
1, 606612, Control_c, 0, 64, 74
1, 606612, Control_c, 0, 67, 13
1, 606626, Control_c, 0, 64, 77
1, 606642, Control_c, 0, 64, 80
1, 606657, Control_c, 0, 64, 84
1, 606657, Control_c, 0, 67, 13
1, 606672, Control_c, 0, 64, 89
1, 606686, Control_c, 0, 64, 98
1, 606701, Control_c, 0, 64, 108
1, 606716, Control_c, 0, 64, 127
1, 606757, Note_off_c, 0, 76, 41
1, 606874, Note_off_c, 0, 71, 24
1, 606918, Note_off_c, 0, 68, 36
1, 606968, Control_c, 0, 67, 13
1, 607147, Control_c, 0, 67, 14
1, 607153, Note_off_c, 0, 64, 40
1, 607174, Note_on_c, 0, 79, 73
1, 607192, Note_on_c, 0, 63, 44
1, 607258, Control_c, 0, 67, 14
1, 607259, Note_off_c, 0, 63, 50
1, 607292, Note_off_c, 0, 80, 38
1, 607317, Control_c, 0, 67, 15
1, 607351, Note_on_c, 0, 78, 74
1, 607361, Control_c, 0, 67, 15
1, 607371, Note_on_c, 0, 73, 51
1, 607394, Note_on_c, 0, 66, 37
1, 607400, Note_on_c, 0, 69, 39
1, 607402, Note_on_c, 0, 61, 27
1, 607406, Control_c, 0, 67, 16
1, 607436, Control_c, 0, 64, 116
1, 607440, Note_off_c, 0, 79, 55
1, 607451, Control_c, 0, 64, 104
1, 607451, Control_c, 0, 67, 16
1, 607466, Control_c, 0, 64, 96
1, 607481, Control_c, 0, 64, 91
1, 607496, Control_c, 0, 64, 88
1, 607589, Note_off_c, 0, 66, 57
1, 607592, Note_off_c, 0, 69, 53
1, 607688, Control_c, 0, 67, 17
1, 607732, Control_c, 0, 64, 88
1, 607747, Control_c, 0, 64, 87
1, 607762, Control_c, 0, 64, 87
1, 607762, Control_c, 0, 67, 17
1, 607777, Control_c, 0, 64, 86
1, 607792, Control_c, 0, 64, 85
1, 607792, Note_on_c, 0, 80, 68
1, 607807, Note_on_c, 0, 68, 37
1, 607807, Control_c, 0, 64, 83
1, 607807, Control_c, 0, 67, 20
1, 607815, Note_on_c, 0, 64, 41
1, 607820, Note_on_c, 0, 76, 37
1, 607822, Control_c, 0, 64, 82
1, 607822, Control_c, 0, 67, 24
1, 607833, Note_on_c, 0, 71, 25
1, 607836, Control_c, 0, 64, 80
1, 607836, Control_c, 0, 67, 29
1, 607849, Note_off_c, 0, 73, 29
1, 607851, Control_c, 0, 64, 77
1, 607851, Control_c, 0, 67, 33
1, 607866, Control_c, 0, 64, 74
1, 607866, Control_c, 0, 67, 38
1, 607881, Control_c, 0, 64, 70
1, 607881, Control_c, 0, 67, 42
1, 607884, Note_off_c, 0, 61, 33
1, 607896, Control_c, 0, 64, 66
1, 607896, Control_c, 0, 67, 46
1, 607910, Control_c, 0, 64, 63
1, 607910, Control_c, 0, 67, 49
1, 607925, Control_c, 0, 64, 59
1, 607925, Control_c, 0, 67, 50
1, 607940, Control_c, 0, 64, 57
1, 607940, Control_c, 0, 67, 52
1, 607955, Control_c, 0, 64, 56
1, 607955, Control_c, 0, 67, 53
1, 607967, Note_off_c, 0, 78, 50
1, 607977, Control_c, 0, 64, 54
1, 607977, Control_c, 0, 67, 53
1, 607992, Control_c, 0, 64, 49
1, 608007, Control_c, 0, 64, 37
1, 608022, Control_c, 0, 64, 17
1, 608036, Control_c, 0, 64, 0
1, 608214, Control_c, 0, 64, 23
1, 608229, Control_c, 0, 64, 31
1, 608245, Control_c, 0, 64, 37
1, 608259, Control_c, 0, 64, 40
1, 608259, Control_c, 0, 67, 53
1, 608274, Control_c, 0, 64, 44
1, 608289, Control_c, 0, 64, 48
1, 608304, Control_c, 0, 64, 52
1, 608319, Control_c, 0, 64, 55
1, 608333, Control_c, 0, 64, 57
1, 608333, Control_c, 0, 67, 52
1, 608348, Control_c, 0, 64, 59
1, 608363, Control_c, 0, 64, 60
1, 608378, Control_c, 0, 64, 62
1, 608393, Control_c, 0, 64, 64
1, 608407, Control_c, 0, 64, 65
1, 608407, Control_c, 0, 67, 52
1, 608422, Control_c, 0, 64, 65
1, 608437, Control_c, 0, 64, 66
1, 608452, Control_c, 0, 64, 67
1, 608466, Control_c, 0, 64, 69
1, 608481, Control_c, 0, 64, 71
1, 608496, Control_c, 0, 64, 72
1, 608496, Control_c, 0, 67, 51
1, 608511, Control_c, 0, 64, 73
1, 608526, Control_c, 0, 64, 74
1, 608540, Control_c, 0, 64, 75
1, 608555, Control_c, 0, 64, 77
1, 608570, Control_c, 0, 64, 78
1, 608570, Control_c, 0, 67, 51
1, 608585, Control_c, 0, 64, 80
1, 608600, Control_c, 0, 64, 81
1, 608600, Control_c, 0, 67, 50
1, 608614, Control_c, 0, 64, 83
1, 608629, Control_c, 0, 64, 85
1, 608644, Control_c, 0, 64, 86
1, 608644, Control_c, 0, 67, 50
1, 608658, Control_c, 0, 64, 88
1, 608673, Control_c, 0, 64, 89
1, 608688, Control_c, 0, 64, 91
1, 608710, Control_c, 0, 64, 92
1, 608710, Control_c, 0, 67, 49
1, 608725, Control_c, 0, 64, 94
1, 608740, Control_c, 0, 64, 95
1, 608755, Control_c, 0, 64, 95
1, 608755, Control_c, 0, 67, 49
1, 608770, Control_c, 0, 64, 96
1, 608784, Control_c, 0, 64, 96
1, 608784, Control_c, 0, 67, 48
1, 608799, Control_c, 0, 64, 97
1, 608814, Control_c, 0, 67, 48
1, 608829, Control_c, 0, 64, 97
1, 608844, Control_c, 0, 64, 98
1, 608859, Control_c, 0, 64, 98
1, 608859, Control_c, 0, 67, 47
1, 608888, Control_c, 0, 64, 99
1, 608888, Control_c, 0, 67, 47
1, 608918, Control_c, 0, 64, 99
1, 608918, Control_c, 0, 67, 46
1, 608933, Control_c, 0, 64, 100
1, 608947, Control_c, 0, 64, 100
1, 608962, Control_c, 0, 64, 101
1, 608962, Control_c, 0, 67, 46
1, 608977, Control_c, 0, 64, 102
1, 608991, Control_c, 0, 64, 102
1, 609006, Control_c, 0, 64, 103
1, 609006, Control_c, 0, 67, 45
1, 609049, Note_off_c, 0, 76, 37
1, 609067, Control_c, 0, 67, 45
1, 609141, Control_c, 0, 67, 44
1, 609214, Control_c, 0, 67, 44
1, 609303, Control_c, 0, 67, 43
1, 609558, Note_off_c, 0, 71, 42
1, 609681, Note_off_c, 0, 68, 37
1, 609893, Note_off_c, 0, 64, 35
1, 609926, Note_on_c, 0, 78, 59
1, 609956, Note_on_c, 0, 63, 31
1, 610004, Note_off_c, 0, 63, 46
1, 610037, Control_c, 0, 64, 102
1, 610037, Control_c, 0, 67, 43
1, 610082, Control_c, 0, 64, 102
1, 610097, Control_c, 0, 67, 42
1, 610114, Note_on_c, 0, 76, 71
1, 610123, Note_on_c, 0, 64, 40
1, 610126, Control_c, 0, 67, 42
1, 610127, Note_on_c, 0, 61, 41
1, 610135, Note_on_c, 0, 69, 45
1, 610141, Note_on_c, 0, 73, 45
1, 610141, Control_c, 0, 67, 41
1, 610156, Control_c, 0, 67, 40
1, 610171, Control_c, 0, 67, 38
1, 610174, Note_off_c, 0, 80, 34
1, 610186, Control_c, 0, 67, 36
1, 610208, Control_c, 0, 64, 101
1, 610208, Control_c, 0, 67, 33
1, 610220, Note_off_c, 0, 73, 0
1, 610220, Note_on_c, 0, 73, 8
1, 610221, Note_off_c, 0, 64, 38
1, 610223, Control_c, 0, 67, 29
1, 610237, Control_c, 0, 67, 22
1, 610252, Control_c, 0, 67, 15
1, 610267, Control_c, 0, 67, 8
1, 610280, Note_off_c, 0, 69, 54
1, 610282, Control_c, 0, 64, 101
1, 610282, Control_c, 0, 67, 0
1, 610320, Note_off_c, 0, 78, 38
1, 610326, Control_c, 0, 64, 100
1, 610341, Control_c, 0, 64, 100
1, 610356, Control_c, 0, 64, 99
1, 610371, Control_c, 0, 64, 99
1, 610385, Control_c, 0, 64, 98
1, 610400, Control_c, 0, 64, 98
1, 610430, Control_c, 0, 64, 97
1, 610435, Note_off_c, 0, 61, 43
1, 610445, Control_c, 0, 64, 96
1, 610460, Control_c, 0, 64, 95
1, 610460, Note_on_c, 0, 68, 45
1, 610463, Note_off_c, 0, 73, 45
1, 610470, Note_on_c, 0, 64, 34
1, 610475, Control_c, 0, 64, 94
1, 610484, Note_on_c, 0, 71, 36
1, 610490, Control_c, 0, 64, 93
1, 610504, Control_c, 0, 64, 89
1, 610513, Note_on_c, 0, 80, 70
1, 610519, Control_c, 0, 64, 85
1, 610534, Control_c, 0, 64, 78
1, 610549, Control_c, 0, 64, 71
1, 610563, Control_c, 0, 64, 64
1, 610578, Control_c, 0, 64, 51
1, 610593, Control_c, 0, 64, 44
1, 610608, Control_c, 0, 64, 48
1, 610623, Control_c, 0, 64, 56
1, 610639, Control_c, 0, 64, 61
1, 610654, Control_c, 0, 64, 64
1, 610668, Control_c, 0, 64, 67
1, 610683, Control_c, 0, 64, 70
1, 610698, Control_c, 0, 64, 74
1, 610713, Control_c, 0, 64, 77
1, 610727, Control_c, 0, 64, 80
1, 610742, Control_c, 0, 64, 83
1, 610757, Control_c, 0, 64, 86
1, 610772, Control_c, 0, 64, 87
1, 610787, Control_c, 0, 64, 88
1, 610802, Control_c, 0, 64, 89
1, 610816, Control_c, 0, 64, 89
1, 610835, Note_off_c, 0, 68, 33
1, 610847, Control_c, 0, 64, 90
1, 610895, Note_off_c, 0, 71, 44
1, 611057, Note_off_c, 0, 64, 50
1, 611074, Note_on_c, 0, 78, 66
1, 611083, Note_on_c, 0, 63, 45
1, 611165, Note_off_c, 0, 76, 57
1, 611179, Control_c, 0, 64, 89
1, 611239, Control_c, 0, 64, 89
1, 611253, Note_on_c, 0, 61, 47
1, 611253, Control_c, 0, 64, 88
1, 611256, Note_off_c, 0, 63, 41
1, 611272, Note_on_c, 0, 76, 76
1, 611283, Control_c, 0, 64, 88
1, 611327, Control_c, 0, 64, 87
1, 611342, Control_c, 0, 64, 87
1, 611372, Control_c, 0, 64, 86
1, 611374, Note_off_c, 0, 61, 36
1, 611387, Control_c, 0, 64, 86
1, 611402, Control_c, 0, 64, 85
1, 611417, Control_c, 0, 64, 84
1, 611432, Control_c, 0, 64, 81
1, 611447, Control_c, 0, 64, 77
1, 611453, Note_on_c, 0, 59, 28
1, 611453, Note_on_c, 0, 75, 64
1, 611462, Control_c, 0, 64, 72
1, 611467, Note_on_c, 0, 64, 39
1, 611473, Note_on_c, 0, 71, 44
1, 611476, Control_c, 0, 64, 66
1, 611479, Note_on_c, 0, 68, 40
1, 611487, Note_off_c, 0, 80, 38
1, 611491, Control_c, 0, 64, 57
1, 611506, Control_c, 0, 64, 0
1, 611530, Note_off_c, 0, 76, 56
1, 611544, Note_off_c, 0, 78, 38
1, 611566, Control_c, 0, 64, 35
1, 611581, Control_c, 0, 64, 53
1, 611596, Control_c, 0, 64, 63
1, 611610, Control_c, 0, 64, 69
1, 611625, Control_c, 0, 64, 75
1, 611640, Control_c, 0, 64, 80
1, 611655, Control_c, 0, 64, 84
1, 611670, Control_c, 0, 64, 86
1, 611684, Control_c, 0, 64, 87
1, 611699, Control_c, 0, 64, 88
1, 611736, Note_off_c, 0, 64, 40
1, 611763, Note_off_c, 0, 71, 41
1, 611826, Note_off_c, 0, 68, 54
1, 611884, Control_c, 0, 64, 87
1, 611886, Note_off_c, 0, 59, 31
1, 611899, Control_c, 0, 64, 87
1, 611914, Control_c, 0, 64, 86
1, 611929, Control_c, 0, 64, 86
1, 611944, Control_c, 0, 64, 85
1, 611958, Control_c, 0, 64, 85
1, 611973, Control_c, 0, 64, 84
1, 611988, Control_c, 0, 64, 83
1, 611988, Control_c, 0, 67, 8
1, 612003, Control_c, 0, 64, 82
1, 612003, Control_c, 0, 67, 8
1, 612008, Note_on_c, 0, 80, 60
1, 612017, Control_c, 0, 64, 80
1, 612017, Control_c, 0, 67, 9
1, 612032, Control_c, 0, 64, 79
1, 612032, Control_c, 0, 67, 9
1, 612047, Control_c, 0, 64, 78
1, 612047, Control_c, 0, 67, 10
1, 612052, Note_on_c, 0, 76, 32
1, 612061, Note_on_c, 0, 68, 29
1, 612062, Control_c, 0, 64, 77
1, 612062, Control_c, 0, 67, 10
1, 612064, Note_on_c, 0, 64, 34
1, 612073, Note_on_c, 0, 71, 30
1, 612076, Control_c, 0, 64, 75
1, 612076, Control_c, 0, 67, 11
1, 612091, Control_c, 0, 64, 73
1, 612091, Control_c, 0, 67, 11
1, 612106, Control_c, 0, 64, 69
1, 612106, Control_c, 0, 67, 12
1, 612117, Note_off_c, 0, 75, 51
1, 612121, Control_c, 0, 64, 66
1, 612121, Control_c, 0, 67, 12
1, 612135, Control_c, 0, 64, 64
1, 612135, Control_c, 0, 67, 13
1, 612150, Control_c, 0, 64, 61
1, 612150, Control_c, 0, 67, 14
1, 612165, Control_c, 0, 64, 58
1, 612165, Control_c, 0, 67, 15
1, 612180, Control_c, 0, 64, 54
1, 612180, Control_c, 0, 67, 16
1, 612195, Control_c, 0, 64, 48
1, 612195, Control_c, 0, 67, 17
1, 612210, Control_c, 0, 64, 39
1, 612210, Control_c, 0, 67, 18
1, 612225, Control_c, 0, 64, 23
1, 612225, Control_c, 0, 67, 19
1, 612240, Control_c, 0, 64, 0
1, 612240, Control_c, 0, 67, 20
1, 612255, Control_c, 0, 67, 21
1, 612270, Control_c, 0, 67, 22
1, 612285, Control_c, 0, 67, 23
1, 612299, Control_c, 0, 67, 24
1, 612314, Control_c, 0, 67, 25
1, 612329, Control_c, 0, 67, 26
1, 612344, Control_c, 0, 67, 27
1, 612359, Control_c, 0, 67, 28
1, 612374, Control_c, 0, 67, 29
1, 612388, Control_c, 0, 67, 30
1, 612403, Control_c, 0, 67, 31
1, 612418, Control_c, 0, 67, 32
1, 612432, Control_c, 0, 67, 32
1, 612454, Control_c, 0, 67, 33
1, 612469, Control_c, 0, 64, 19
1, 612469, Control_c, 0, 67, 34
1, 612484, Control_c, 0, 64, 30
1, 612484, Control_c, 0, 67, 34
1, 612499, Control_c, 0, 64, 37
1, 612499, Control_c, 0, 67, 35
1, 612514, Control_c, 0, 64, 44
1, 612514, Control_c, 0, 67, 35
1, 612529, Control_c, 0, 64, 50
1, 612544, Control_c, 0, 64, 55
1, 612544, Control_c, 0, 67, 36
1, 612558, Control_c, 0, 64, 57
1, 612558, Control_c, 0, 67, 36
1, 612573, Control_c, 0, 64, 60
1, 612573, Control_c, 0, 67, 37
1, 612588, Control_c, 0, 64, 62
1, 612588, Control_c, 0, 67, 37
1, 612603, Control_c, 0, 64, 64
1, 612603, Control_c, 0, 67, 38
1, 612618, Control_c, 0, 64, 67
1, 612618, Control_c, 0, 67, 38
1, 612632, Control_c, 0, 64, 70
1, 612632, Control_c, 0, 67, 39
1, 612641, Note_off_c, 0, 71, 47
1, 612647, Control_c, 0, 64, 72
1, 612647, Control_c, 0, 67, 40
1, 612662, Control_c, 0, 64, 74
1, 612677, Control_c, 0, 64, 76
1, 612677, Control_c, 0, 67, 40
1, 612692, Control_c, 0, 64, 79
1, 612692, Control_c, 0, 67, 41
1, 612706, Control_c, 0, 64, 82
1, 612706, Control_c, 0, 67, 41
1, 612721, Control_c, 0, 64, 84
1, 612721, Control_c, 0, 67, 42
1, 612736, Control_c, 0, 64, 85
1, 612736, Control_c, 0, 67, 43
1, 612751, Control_c, 0, 64, 85
1, 612751, Control_c, 0, 67, 44
1, 612765, Control_c, 0, 67, 45
1, 612780, Control_c, 0, 67, 46
1, 612795, Control_c, 0, 67, 46
1, 612810, Control_c, 0, 67, 47
1, 612825, Control_c, 0, 67, 48
1, 612839, Control_c, 0, 67, 49
1, 612854, Control_c, 0, 67, 50
1, 612861, Note_off_c, 0, 68, 35
1, 612869, Control_c, 0, 67, 51
1, 612884, Control_c, 0, 67, 53
1, 612898, Control_c, 0, 67, 55
1, 612913, Control_c, 0, 67, 57
1, 612928, Control_c, 0, 67, 58
1, 612943, Control_c, 0, 67, 59
1, 612958, Control_c, 0, 67, 60
1, 612973, Control_c, 0, 64, 85
1, 612973, Control_c, 0, 67, 60
1, 612988, Control_c, 0, 67, 61
1, 613003, Control_c, 0, 67, 62
1, 613018, Control_c, 0, 64, 84
1, 613018, Control_c, 0, 67, 62
1, 613033, Control_c, 0, 67, 63
1, 613047, Control_c, 0, 67, 63
1, 613053, Note_off_c, 0, 64, 42
1, 613062, Control_c, 0, 64, 84
1, 613062, Control_c, 0, 67, 64
1, 613077, Control_c, 0, 67, 64
1, 613092, Control_c, 0, 67, 65
1, 613107, Control_c, 0, 67, 65
1, 613122, Control_c, 0, 64, 83
1, 613122, Control_c, 0, 67, 66
1, 613137, Control_c, 0, 67, 66
1, 613152, Control_c, 0, 67, 67
1, 613167, Control_c, 0, 67, 68
1, 613177, Note_on_c, 0, 69, 28
1, 613180, Note_on_c, 0, 83, 53
1, 613181, Control_c, 0, 67, 69
1, 613203, Note_on_c, 0, 63, 39
1, 613203, Note_on_c, 0, 73, 35
1, 613203, Control_c, 0, 67, 69
1, 613217, Note_off_c, 0, 76, 40
1, 613218, Control_c, 0, 67, 70
1, 613226, Note_on_c, 0, 78, 37
1, 613233, Control_c, 0, 67, 70
1, 613248, Control_c, 0, 64, 83
1, 613248, Control_c, 0, 67, 71
1, 613252, Note_off_c, 0, 80, 37
1, 613262, Control_c, 0, 67, 72
1, 613271, Note_off_c, 0, 69, 58
1, 613292, Control_c, 0, 64, 82
1, 613292, Control_c, 0, 67, 72
1, 613307, Control_c, 0, 67, 73
1, 613311, Note_off_c, 0, 73, 58
1, 613322, Control_c, 0, 64, 82
1, 613337, Control_c, 0, 67, 73
1, 613351, Control_c, 0, 64, 81
1, 613366, Control_c, 0, 67, 74
1, 613381, Control_c, 0, 64, 81
1, 613396, Control_c, 0, 64, 79
1, 613396, Control_c, 0, 67, 74
1, 613399, Note_off_c, 0, 63, 37
1, 613411, Control_c, 0, 64, 78
1, 613426, Control_c, 0, 64, 74
1, 613426, Control_c, 0, 67, 75
1, 613441, Control_c, 0, 64, 70
1, 613443, Note_on_c, 0, 80, 52
1, 613455, Note_on_c, 0, 68, 32
1, 613455, Control_c, 0, 64, 65
1, 613463, Note_off_c, 0, 78, 44
1, 613464, Note_on_c, 0, 71, 38
1, 613465, Note_off_c, 0, 83, 49
1, 613469, Note_on_c, 0, 64, 32
1, 613470, Control_c, 0, 64, 60
1, 613485, Control_c, 0, 64, 45
1, 613500, Control_c, 0, 64, 30
1, 613500, Control_c, 0, 67, 75
1, 613500, Poly_aftertouch_c, 0, 76, 127
1, 613515, Control_c, 0, 64, 28
1, 613544, Control_c, 0, 64, 29
1, 613559, Control_c, 0, 64, 36
1, 613574, Control_c, 0, 64, 47
1, 613588, Control_c, 0, 64, 56
1, 613603, Control_c, 0, 64, 62
1, 613603, Control_c, 0, 67, 76
1, 613618, Control_c, 0, 64, 65
1, 613633, Control_c, 0, 64, 68
1, 613648, Control_c, 0, 64, 71
1, 613662, Control_c, 0, 64, 74
1, 613677, Control_c, 0, 64, 77
1, 613692, Control_c, 0, 64, 79
1, 613707, Control_c, 0, 64, 81
1, 613722, Control_c, 0, 64, 83
1, 613736, Control_c, 0, 64, 83
1, 613751, Control_c, 0, 64, 84
1, 613764, Poly_aftertouch_c, 0, 76, 0
1, 613785, Note_off_c, 0, 64, 36
1, 613792, Note_off_c, 0, 68, 31
1, 613807, Note_off_c, 0, 71, 29
1, 613834, Note_off_c, 0, 80, 24
1, 613871, Control_c, 0, 64, 83
1, 613901, Control_c, 0, 64, 83
1, 613916, Control_c, 0, 64, 82
1, 613931, Control_c, 0, 64, 82
1, 613953, Control_c, 0, 64, 81
1, 613968, Control_c, 0, 64, 81
1, 613983, Control_c, 0, 64, 80
1, 614012, Control_c, 0, 64, 80
1, 614027, Control_c, 0, 64, 79
1, 614042, Control_c, 0, 64, 78
1, 614057, Control_c, 0, 64, 77
1, 614072, Control_c, 0, 64, 76
1, 614086, Control_c, 0, 64, 75
1, 614100, Note_on_c, 0, 80, 42
1, 614101, Control_c, 0, 64, 74
1, 614116, Control_c, 0, 64, 73
1, 614131, Control_c, 0, 64, 71
1, 614132, Note_on_c, 0, 71, 25
1, 614134, Note_on_c, 0, 64, 27
1, 614138, Note_on_c, 0, 68, 21
1, 614146, Note_on_c, 0, 76, 23
1, 614146, Control_c, 0, 64, 70
1, 614160, Control_c, 0, 64, 69
1, 614175, Control_c, 0, 64, 68
1, 614190, Control_c, 0, 64, 67
1, 614204, Control_c, 0, 64, 67
1, 614219, Control_c, 0, 64, 66
1, 614234, Control_c, 0, 64, 65
1, 614249, Control_c, 0, 64, 65
1, 614264, Control_c, 0, 64, 64
1, 614278, Control_c, 0, 64, 63
1, 614293, Control_c, 0, 64, 62
1, 614308, Control_c, 0, 64, 61
1, 614323, Control_c, 0, 64, 60
1, 614338, Control_c, 0, 64, 59
1, 614353, Control_c, 0, 64, 57
1, 614368, Control_c, 0, 64, 55
1, 614383, Control_c, 0, 64, 53
1, 614397, Control_c, 0, 64, 52
1, 614412, Control_c, 0, 64, 50
1, 614427, Control_c, 0, 64, 48
1, 614442, Control_c, 0, 64, 46
1, 614457, Control_c, 0, 64, 44
1, 614472, Control_c, 0, 64, 42
1, 614486, Control_c, 0, 64, 38
1, 614501, Control_c, 0, 64, 35
1, 614516, Control_c, 0, 64, 31
1, 614530, Control_c, 0, 64, 29
1, 614545, Control_c, 0, 64, 26
1, 614560, Control_c, 0, 64, 21
1, 614575, Control_c, 0, 64, 11
1, 614590, Control_c, 0, 64, 0
1, 615337, Control_c, 0, 67, 76
1, 615716, Control_c, 0, 67, 76
1, 615745, Control_c, 0, 67, 75
1, 615760, Control_c, 0, 67, 75
1, 615775, Control_c, 0, 64, 32
1, 615790, Control_c, 0, 64, 49
1, 615805, Control_c, 0, 64, 59
1, 615820, Control_c, 0, 64, 62
1, 615820, Control_c, 0, 67, 74
1, 615835, Control_c, 0, 64, 64
1, 615849, Control_c, 0, 64, 65
1, 615864, Control_c, 0, 64, 66
1, 615864, Control_c, 0, 67, 74
1, 615879, Control_c, 0, 64, 67
1, 615894, Control_c, 0, 64, 69
1, 615909, Control_c, 0, 64, 70
1, 615909, Control_c, 0, 67, 73
1, 615923, Control_c, 0, 64, 70
1, 615938, Control_c, 0, 64, 71
1, 615953, Control_c, 0, 64, 72
1, 615953, Control_c, 0, 67, 73
1, 615967, Control_c, 0, 64, 74
1, 615982, Control_c, 0, 64, 75
1, 615997, Control_c, 0, 64, 76
1, 616012, Control_c, 0, 64, 77
1, 616012, Control_c, 0, 67, 72
1, 616027, Control_c, 0, 64, 78
1, 616041, Control_c, 0, 64, 79
1, 616041, Control_c, 0, 67, 72
1, 616056, Control_c, 0, 64, 80
1, 616064, Note_on_c, 0, 59, 32
1, 616071, Control_c, 0, 64, 80
1, 616071, Control_c, 0, 67, 71
1, 616101, Control_c, 0, 64, 81
1, 616101, Control_c, 0, 67, 71
1, 616115, Control_c, 0, 64, 81
1, 616130, Control_c, 0, 64, 83
1, 616130, Control_c, 0, 67, 70
1, 616145, Control_c, 0, 64, 84
1, 616160, Control_c, 0, 64, 85
1, 616160, Control_c, 0, 67, 70
1, 616174, Control_c, 0, 64, 86
1, 616197, Control_c, 0, 64, 86
1, 616197, Control_c, 0, 67, 69
1, 616212, Control_c, 0, 64, 87
1, 616212, Control_c, 0, 67, 69
1, 616228, Control_c, 0, 64, 87
1, 616243, Control_c, 0, 64, 88
1, 616243, Control_c, 0, 67, 68
1, 616258, Control_c, 0, 64, 88
1, 616273, Control_c, 0, 64, 89
1, 616273, Control_c, 0, 67, 68
1, 616287, Control_c, 0, 64, 91
1, 616302, Control_c, 0, 64, 92
1, 616317, Control_c, 0, 64, 93
1, 616317, Control_c, 0, 67, 67
1, 616331, Note_off_c, 0, 71, 36
1, 616332, Control_c, 0, 64, 95
1, 616347, Control_c, 0, 64, 97
1, 616361, Control_c, 0, 64, 100
1, 616361, Control_c, 0, 67, 67
1, 616376, Control_c, 0, 64, 105
1, 616376, Control_c, 0, 67, 66
1, 616391, Control_c, 0, 64, 109
1, 616405, Control_c, 0, 64, 113
1, 616420, Control_c, 0, 64, 120
1, 616420, Control_c, 0, 67, 66
1, 616435, Control_c, 0, 64, 127
1, 616450, Control_c, 0, 67, 65
1, 616479, Control_c, 0, 67, 65
1, 616509, Control_c, 0, 67, 64
1, 616524, Control_c, 0, 67, 64
1, 616539, Control_c, 0, 67, 63
1, 616568, Control_c, 0, 67, 62
1, 616583, Control_c, 0, 67, 62
1, 616598, Control_c, 0, 67, 61
1, 616613, Control_c, 0, 67, 61
1, 616614, Note_on_c, 0, 71, 39
1, 616627, Control_c, 0, 67, 59
1, 616642, Control_c, 0, 67, 57
1, 616657, Control_c, 0, 67, 53
1, 616672, Control_c, 0, 67, 48
1, 616687, Control_c, 0, 67, 43
1, 616702, Control_c, 0, 67, 39
1, 616717, Control_c, 0, 67, 34
1, 616720, Note_on_c, 0, 78, 72
1, 616732, Control_c, 0, 67, 30
1, 616746, Control_c, 0, 67, 27
1, 616761, Control_c, 0, 67, 22
1, 616776, Control_c, 0, 67, 19
1, 616790, Control_c, 0, 67, 15
1, 616805, Control_c, 0, 67, 12
1, 616821, Control_c, 0, 67, 8
1, 616836, Control_c, 0, 67, 0
1, 616881, Note_off_c, 0, 68, 37
1, 616892, Note_off_c, 0, 64, 41
1, 616896, Note_off_c, 0, 76, 41
1, 616903, Note_off_c, 0, 80, 38
1, 616948, Note_off_c, 0, 71, 59
1, 617091, Note_on_c, 0, 66, 45
1, 617110, Note_on_c, 0, 68, 41
1, 617131, Note_on_c, 0, 80, 75
1, 617167, Note_on_c, 0, 71, 30
1, 617175, Note_on_c, 0, 75, 45
1, 617239, Note_off_c, 0, 59, 42
1, 617352, Note_off_c, 0, 68, 37
1, 617370, Note_off_c, 0, 66, 32
1, 617953, Note_off_c, 0, 71, 62
1, 618000, Note_on_c, 0, 83, 76
1, 618024, Note_off_c, 0, 75, 33
1, 618045, Note_off_c, 0, 78, 58
1, 618076, Note_off_c, 0, 80, 56
1, 618155, Note_off_c, 0, 83, 44
1, 618350, Note_on_c, 0, 64, 38
1, 618430, Note_off_c, 0, 64, 0
1, 618430, Note_on_c, 0, 64, 14
1, 618432, Note_on_c, 0, 68, 45
1, 618517, Note_on_c, 0, 73, 53
1, 618518, Control_c, 0, 64, 122
1, 618533, Control_c, 0, 64, 117
1, 618548, Control_c, 0, 64, 114
1, 618563, Control_c, 0, 64, 111
1, 618577, Control_c, 0, 64, 108
1, 618592, Control_c, 0, 64, 106
1, 618607, Control_c, 0, 64, 105
1, 618623, Control_c, 0, 64, 103
1, 618638, Control_c, 0, 64, 102
1, 618653, Control_c, 0, 64, 101
1, 618667, Control_c, 0, 64, 98
1, 618667, Control_c, 0, 67, 8
1, 618682, Control_c, 0, 64, 95
1, 618682, Control_c, 0, 67, 8
1, 618697, Control_c, 0, 64, 92
1, 618697, Control_c, 0, 67, 9
1, 618712, Control_c, 0, 64, 89
1, 618727, Control_c, 0, 64, 87
1, 618727, Control_c, 0, 67, 9
1, 618741, Control_c, 0, 64, 84
1, 618741, Control_c, 0, 67, 10
1, 618756, Control_c, 0, 64, 82
1, 618762, Note_on_c, 0, 76, 69
1, 618771, Control_c, 0, 64, 80
1, 618771, Control_c, 0, 67, 10
1, 618786, Control_c, 0, 64, 78
1, 618786, Control_c, 0, 67, 11
1, 618801, Control_c, 0, 64, 76
1, 618801, Control_c, 0, 67, 11
1, 618815, Control_c, 0, 64, 74
1, 618815, Control_c, 0, 67, 12
1, 618830, Control_c, 0, 64, 72
1, 618830, Control_c, 0, 67, 13
1, 618845, Control_c, 0, 64, 70
1, 618845, Control_c, 0, 67, 14
1, 618860, Control_c, 0, 64, 68
1, 618860, Control_c, 0, 67, 15
1, 618875, Control_c, 0, 64, 68
1, 618875, Control_c, 0, 67, 15
1, 618890, Control_c, 0, 67, 16
1, 618905, Control_c, 0, 67, 17
1, 618920, Control_c, 0, 67, 18
1, 618935, Control_c, 0, 64, 67
1, 618935, Control_c, 0, 67, 19
1, 618949, Control_c, 0, 67, 21
1, 618964, Control_c, 0, 67, 22
1, 618979, Control_c, 0, 64, 67
1, 618979, Control_c, 0, 67, 24
1, 618993, Control_c, 0, 67, 26
1, 619008, Control_c, 0, 67, 28
1, 619023, Control_c, 0, 67, 30
1, 619038, Control_c, 0, 67, 32
1, 619053, Control_c, 0, 67, 34
1, 619066, Control_c, 0, 67, 36
1, 619081, Control_c, 0, 64, 66
1, 619081, Control_c, 0, 67, 38
1, 619096, Control_c, 0, 67, 40
1, 619111, Control_c, 0, 67, 43
1, 619125, Control_c, 0, 64, 66
1, 619125, Control_c, 0, 67, 45
1, 619140, Control_c, 0, 67, 46
1, 619155, Control_c, 0, 67, 47
1, 619170, Control_c, 0, 64, 65
1, 619170, Control_c, 0, 67, 49
1, 619185, Control_c, 0, 67, 50
1, 619207, Control_c, 0, 67, 52
1, 619222, Control_c, 0, 64, 65
1, 619222, Control_c, 0, 67, 54
1, 619237, Control_c, 0, 67, 55
1, 619252, Control_c, 0, 64, 64
1, 619252, Control_c, 0, 67, 57
1, 619263, Note_on_c, 0, 40, 32
1, 619267, Control_c, 0, 64, 64
1, 619267, Control_c, 0, 67, 58
1, 619281, Control_c, 0, 64, 63
1, 619281, Control_c, 0, 67, 60
1, 619296, Control_c, 0, 64, 61
1, 619296, Control_c, 0, 67, 62
1, 619311, Control_c, 0, 64, 59
1, 619311, Control_c, 0, 67, 65
1, 619325, Control_c, 0, 64, 55
1, 619325, Control_c, 0, 67, 66
1, 619340, Control_c, 0, 64, 52
1, 619340, Control_c, 0, 67, 68
1, 619355, Control_c, 0, 64, 51
1, 619355, Control_c, 0, 67, 69
1, 619370, Control_c, 0, 67, 70
1, 619385, Control_c, 0, 67, 71
1, 619400, Control_c, 0, 64, 53
1, 619400, Control_c, 0, 67, 71
1, 619415, Control_c, 0, 64, 57
1, 619415, Control_c, 0, 67, 72
1, 619430, Control_c, 0, 64, 60
1, 619430, Control_c, 0, 67, 72
1, 619445, Control_c, 0, 64, 62
1, 619460, Control_c, 0, 64, 63
1, 619475, Control_c, 0, 64, 64
1, 619489, Control_c, 0, 64, 64
1, 619504, Control_c, 0, 64, 65
1, 619519, Control_c, 0, 64, 66
1, 619534, Control_c, 0, 64, 68
1, 619549, Control_c, 0, 64, 69
1, 619564, Control_c, 0, 64, 70
1, 619579, Control_c, 0, 64, 72
1, 619593, Control_c, 0, 64, 73
1, 619608, Control_c, 0, 64, 75
1, 619623, Control_c, 0, 64, 78
1, 619638, Control_c, 0, 64, 80
1, 619653, Control_c, 0, 64, 83
1, 619668, Control_c, 0, 64, 85
1, 619683, Control_c, 0, 64, 87
1, 619697, Control_c, 0, 64, 90
1, 619712, Control_c, 0, 64, 93
1, 619727, Control_c, 0, 64, 96
1, 619741, Control_c, 0, 64, 99
1, 619756, Control_c, 0, 64, 102
1, 619771, Control_c, 0, 64, 106
1, 619786, Control_c, 0, 64, 111
1, 619786, Control_c, 0, 67, 72
1, 619801, Control_c, 0, 64, 119
1, 619813, Note_on_c, 0, 49, 42
1, 619816, Control_c, 0, 64, 127
1, 619868, Note_off_c, 0, 40, 40
1, 619972, Control_c, 0, 67, 71
1, 619997, Note_off_c, 0, 49, 43
1, 620017, Control_c, 0, 67, 71
1, 620091, Control_c, 0, 67, 70
1, 620164, Control_c, 0, 67, 70
1, 620182, Note_on_c, 0, 56, 49
1, 620209, Control_c, 0, 67, 69
1, 620240, Control_c, 0, 67, 69
1, 620243, Note_off_c, 0, 64, 42
1, 620269, Control_c, 0, 67, 68
1, 620299, Control_c, 0, 67, 68
1, 620313, Control_c, 0, 67, 67
1, 620328, Control_c, 0, 67, 67
1, 620335, Note_off_c, 0, 56, 59
1, 620343, Control_c, 0, 67, 66
1, 620372, Control_c, 0, 67, 66
1, 620391, Note_off_c, 0, 68, 38
1, 620392, Note_off_c, 0, 76, 50
1, 620402, Control_c, 0, 67, 65
1, 620417, Control_c, 0, 67, 65
1, 620432, Control_c, 0, 67, 64
1, 620446, Control_c, 0, 67, 64
1, 620461, Control_c, 0, 67, 63
1, 620464, Note_off_c, 0, 73, 39
1, 620466, Note_on_c, 0, 56, 51
1, 620476, Control_c, 0, 67, 63
1, 620491, Control_c, 0, 67, 62
1, 620506, Control_c, 0, 67, 61
1, 620520, Control_c, 0, 67, 60
1, 620535, Control_c, 0, 67, 59
1, 620550, Control_c, 0, 67, 58
1, 620565, Control_c, 0, 67, 56
1, 620580, Control_c, 0, 67, 54
1, 620595, Control_c, 0, 67, 51
1, 620610, Control_c, 0, 67, 46
1, 620625, Control_c, 0, 67, 41
1, 620639, Control_c, 0, 67, 36
1, 620654, Control_c, 0, 67, 31
1, 620669, Control_c, 0, 67, 27
1, 620684, Control_c, 0, 67, 23
1, 620696, Note_on_c, 0, 66, 55
1, 620706, Control_c, 0, 67, 19
1, 620720, Control_c, 0, 67, 13
1, 620729, Note_on_c, 0, 78, 34
1, 620735, Control_c, 0, 67, 9
1, 620750, Control_c, 0, 67, 0
1, 620772, Note_on_c, 0, 75, 71
1, 620781, Note_off_c, 0, 78, 44
1, 621027, Note_on_c, 0, 64, 56
1, 621137, Control_c, 0, 64, 112
1, 621151, Control_c, 0, 64, 102
1, 621158, Note_on_c, 0, 76, 70
1, 621166, Control_c, 0, 64, 94
1, 621171, Note_on_c, 0, 68, 48
1, 621181, Control_c, 0, 64, 84
1, 621195, Control_c, 0, 64, 74
1, 621198, Note_on_c, 0, 73, 55
1, 621210, Control_c, 0, 64, 65
1, 621212, Note_off_c, 0, 66, 37
1, 621225, Control_c, 0, 64, 60
1, 621240, Control_c, 0, 64, 62
1, 621255, Control_c, 0, 64, 66
1, 621269, Control_c, 0, 64, 69
1, 621270, Note_off_c, 0, 75, 58
1, 621284, Control_c, 0, 64, 74
1, 621299, Control_c, 0, 64, 80
1, 621313, Control_c, 0, 64, 88
1, 621328, Control_c, 0, 64, 95
1, 621343, Control_c, 0, 64, 100
1, 621358, Control_c, 0, 64, 103
1, 621373, Control_c, 0, 64, 105
1, 621388, Control_c, 0, 64, 108
1, 621403, Control_c, 0, 64, 110
1, 621418, Control_c, 0, 64, 111
1, 621469, Control_c, 0, 64, 112
1, 621499, Control_c, 0, 64, 112
1, 621511, Note_off_c, 0, 56, 37
1, 621513, Control_c, 0, 64, 113
1, 621588, Note_on_c, 0, 75, 77
1, 621661, Note_off_c, 0, 76, 58
1, 621662, Control_c, 0, 64, 112
1, 621736, Control_c, 0, 64, 112
1, 621737, Note_on_c, 0, 56, 48
1, 621766, Control_c, 0, 64, 111
1, 621781, Control_c, 0, 64, 110
1, 621795, Control_c, 0, 64, 109
1, 621811, Control_c, 0, 64, 109
1, 621826, Control_c, 0, 64, 108
1, 621841, Control_c, 0, 64, 108
1, 621856, Control_c, 0, 64, 107
1, 621857, Note_on_c, 0, 76, 80
1, 621871, Control_c, 0, 64, 106
1, 621877, Note_off_c, 0, 64, 44
1, 621886, Control_c, 0, 64, 104
1, 621900, Control_c, 0, 64, 103
1, 621914, Note_off_c, 0, 73, 53
1, 621915, Control_c, 0, 64, 102
1, 621930, Control_c, 0, 64, 101
1, 621944, Control_c, 0, 64, 100
1, 621959, Control_c, 0, 64, 98
1, 621974, Control_c, 0, 64, 97
1, 621989, Control_c, 0, 64, 96
1, 622004, Control_c, 0, 64, 94
1, 622018, Control_c, 0, 64, 92
1, 622025, Note_off_c, 0, 68, 37
1, 622033, Control_c, 0, 64, 90
1, 622048, Control_c, 0, 64, 89
1, 622063, Note_on_c, 0, 63, 41
1, 622063, Control_c, 0, 64, 87
1, 622078, Control_c, 0, 64, 86
1, 622092, Control_c, 0, 64, 85
1, 622107, Control_c, 0, 64, 84
1, 622122, Control_c, 0, 64, 83
1, 622137, Control_c, 0, 64, 82
1, 622151, Control_c, 0, 64, 81
1, 622166, Control_c, 0, 64, 80
1, 622189, Control_c, 0, 64, 79
1, 622204, Control_c, 0, 64, 78
1, 622218, Control_c, 0, 64, 76
1, 622233, Control_c, 0, 64, 75
1, 622248, Control_c, 0, 64, 74
1, 622263, Control_c, 0, 64, 71
1, 622271, Note_on_c, 0, 78, 62
1, 622276, Note_on_c, 0, 72, 38
1, 622278, Control_c, 0, 64, 69
1, 622292, Control_c, 0, 64, 67
1, 622306, Note_on_c, 0, 66, 10
1, 622307, Control_c, 0, 64, 66
1, 622322, Control_c, 0, 64, 64
1, 622337, Control_c, 0, 64, 63
1, 622351, Control_c, 0, 64, 60
1, 622366, Control_c, 0, 64, 50
1, 622381, Control_c, 0, 64, 21
1, 622396, Control_c, 0, 64, 0
1, 622422, Note_off_c, 0, 76, 54
1, 622428, Note_off_c, 0, 75, 50
1, 622500, Control_c, 0, 64, 43
1, 622515, Control_c, 0, 64, 54
1, 622530, Control_c, 0, 64, 60
1, 622544, Control_c, 0, 64, 63
1, 622559, Control_c, 0, 64, 65
1, 622574, Control_c, 0, 64, 69
1, 622589, Control_c, 0, 64, 73
1, 622604, Control_c, 0, 64, 77
1, 622619, Control_c, 0, 64, 81
1, 622634, Control_c, 0, 64, 85
1, 622649, Control_c, 0, 64, 90
1, 622664, Control_c, 0, 64, 94
1, 622679, Control_c, 0, 64, 97
1, 622694, Control_c, 0, 64, 99
1, 622708, Control_c, 0, 64, 102
1, 622723, Control_c, 0, 64, 104
1, 622738, Control_c, 0, 64, 107
1, 622753, Control_c, 0, 64, 110
1, 622767, Control_c, 0, 64, 112
1, 622782, Control_c, 0, 64, 115
1, 622797, Control_c, 0, 64, 117
1, 622811, Control_c, 0, 64, 118
1, 622826, Control_c, 0, 64, 118
1, 622840, Control_c, 0, 67, 8
1, 622855, Control_c, 0, 67, 9
1, 622870, Control_c, 0, 64, 119
1, 622870, Control_c, 0, 67, 10
1, 622885, Control_c, 0, 67, 12
1, 622900, Control_c, 0, 67, 12
1, 622914, Control_c, 0, 67, 13
1, 622929, Control_c, 0, 67, 13
1, 622952, Control_c, 0, 67, 14
1, 622966, Control_c, 0, 67, 15
1, 622979, Note_off_c, 0, 66, 41
1, 622981, Control_c, 0, 67, 16
1, 622996, Control_c, 0, 67, 17
1, 623003, Note_off_c, 0, 63, 39
1, 623011, Control_c, 0, 67, 19
1, 623020, Note_on_c, 0, 62, 33
1, 623026, Control_c, 0, 67, 21
1, 623040, Control_c, 0, 67, 24
1, 623055, Control_c, 0, 67, 26
1, 623070, Control_c, 0, 67, 29
1, 623085, Control_c, 0, 67, 31
1, 623100, Control_c, 0, 67, 34
1, 623108, Note_on_c, 0, 80, 66
1, 623114, Control_c, 0, 67, 37
1, 623123, Note_off_c, 0, 72, 52
1, 623129, Control_c, 0, 67, 39
1, 623142, Note_off_c, 0, 62, 35
1, 623144, Control_c, 0, 67, 41
1, 623159, Control_c, 0, 67, 43
1, 623173, Control_c, 0, 67, 45
1, 623174, Note_off_c, 0, 78, 38
1, 623185, Note_off_c, 0, 56, 43
1, 623188, Control_c, 0, 67, 47
1, 623203, Control_c, 0, 67, 49
1, 623218, Control_c, 0, 67, 52
1, 623227, Note_off_c, 0, 80, 61
1, 623233, Control_c, 0, 67, 53
1, 623248, Control_c, 0, 67, 56
1, 623263, Control_c, 0, 64, 118
1, 623263, Control_c, 0, 67, 58
1, 623278, Control_c, 0, 67, 61
1, 623292, Control_c, 0, 64, 118
1, 623292, Control_c, 0, 67, 63
1, 623307, Control_c, 0, 64, 117
1, 623307, Control_c, 0, 67, 66
1, 623322, Control_c, 0, 64, 116
1, 623322, Control_c, 0, 67, 68
1, 623337, Control_c, 0, 64, 114
1, 623337, Control_c, 0, 67, 70
1, 623352, Control_c, 0, 64, 114
1, 623352, Control_c, 0, 67, 71
1, 623366, Control_c, 0, 64, 113
1, 623366, Control_c, 0, 67, 73
1, 623381, Control_c, 0, 64, 111
1, 623381, Control_c, 0, 67, 74
1, 623396, Control_c, 0, 64, 110
1, 623396, Control_c, 0, 67, 75
1, 623412, Control_c, 0, 64, 108
1, 623412, Control_c, 0, 67, 76
1, 623427, Control_c, 0, 64, 106
1, 623427, Control_c, 0, 67, 77
1, 623442, Control_c, 0, 64, 105
1, 623442, Control_c, 0, 67, 78
1, 623456, Control_c, 0, 64, 104
1, 623456, Control_c, 0, 67, 78
1, 623471, Control_c, 0, 64, 103
1, 623471, Control_c, 0, 67, 79
1, 623486, Control_c, 0, 64, 101
1, 623486, Control_c, 0, 67, 79
1, 623501, Control_c, 0, 64, 100
1, 623501, Control_c, 0, 67, 80
1, 623516, Control_c, 0, 64, 99
1, 623516, Control_c, 0, 67, 80
1, 623530, Control_c, 0, 64, 98
1, 623530, Control_c, 0, 67, 81
1, 623545, Control_c, 0, 64, 97
1, 623545, Control_c, 0, 67, 81
1, 623561, Control_c, 0, 64, 96
1, 623561, Control_c, 0, 67, 82
1, 623573, Note_on_c, 0, 61, 52
1, 623576, Control_c, 0, 64, 95
1, 623576, Control_c, 0, 67, 83
1, 623590, Control_c, 0, 64, 94
1, 623590, Control_c, 0, 67, 84
1, 623605, Control_c, 0, 64, 93
1, 623605, Control_c, 0, 67, 85
1, 623620, Control_c, 0, 64, 92
1, 623620, Control_c, 0, 67, 86
1, 623621, Note_on_c, 0, 40, 30
1, 623635, Control_c, 0, 64, 92
1, 623635, Control_c, 0, 67, 88
1, 623650, Control_c, 0, 64, 91
1, 623650, Control_c, 0, 67, 89
1, 623662, Note_on_c, 0, 64, 45
1, 623664, Control_c, 0, 64, 90
1, 623664, Control_c, 0, 67, 90
1, 623686, Control_c, 0, 64, 88
1, 623686, Control_c, 0, 67, 92
1, 623701, Control_c, 0, 64, 87
1, 623701, Control_c, 0, 67, 93
1, 623716, Control_c, 0, 64, 87
1, 623716, Control_c, 0, 67, 95
1, 623731, Control_c, 0, 64, 86
1, 623731, Control_c, 0, 67, 96
1, 623746, Control_c, 0, 64, 84
1, 623746, Control_c, 0, 67, 97
1, 623754, Note_on_c, 0, 69, 46
1, 623761, Control_c, 0, 64, 83
1, 623761, Control_c, 0, 67, 99
1, 623776, Control_c, 0, 64, 81
1, 623776, Control_c, 0, 67, 100
1, 623790, Control_c, 0, 64, 79
1, 623790, Control_c, 0, 67, 101
1, 623805, Control_c, 0, 64, 77
1, 623805, Control_c, 0, 67, 102
1, 623820, Control_c, 0, 64, 75
1, 623820, Control_c, 0, 67, 103
1, 623835, Control_c, 0, 64, 72
1, 623835, Control_c, 0, 67, 103
1, 623850, Control_c, 0, 64, 70
1, 623850, Control_c, 0, 67, 104
1, 623864, Control_c, 0, 64, 69
1, 623879, Control_c, 0, 64, 68
1, 623909, Control_c, 0, 67, 104
1, 623923, Control_c, 0, 64, 68
1, 623938, Control_c, 0, 64, 67
1, 623953, Control_c, 0, 64, 67
1, 623968, Control_c, 0, 64, 66
1, 623972, Note_on_c, 0, 71, 52
1, 623983, Control_c, 0, 64, 65
1, 623997, Control_c, 0, 64, 64
1, 623997, Control_c, 0, 67, 105
1, 624012, Control_c, 0, 64, 63
1, 624027, Control_c, 0, 64, 62
1, 624042, Control_c, 0, 64, 60
1, 624042, Control_c, 0, 67, 105
1, 624057, Control_c, 0, 64, 58
1, 624071, Control_c, 0, 64, 56
1, 624086, Control_c, 0, 64, 56
1, 624115, Control_c, 0, 64, 56
1, 624130, Control_c, 0, 64, 57
1, 624145, Control_c, 0, 64, 60
1, 624160, Control_c, 0, 64, 62
1, 624175, Control_c, 0, 64, 64
1, 624190, Control_c, 0, 64, 65
1, 624205, Control_c, 0, 64, 66
1, 624220, Control_c, 0, 64, 68
1, 624235, Control_c, 0, 64, 69
1, 624250, Control_c, 0, 64, 71
1, 624265, Control_c, 0, 64, 74
1, 624279, Control_c, 0, 64, 76
1, 624294, Control_c, 0, 64, 78
1, 624309, Control_c, 0, 64, 80
1, 624324, Control_c, 0, 64, 82
1, 624339, Control_c, 0, 64, 84
1, 624354, Control_c, 0, 64, 86
1, 624369, Control_c, 0, 64, 88
1, 624384, Control_c, 0, 64, 89
1, 624399, Control_c, 0, 64, 91
1, 624413, Control_c, 0, 64, 92
1, 624434, Note_off_c, 0, 40, 40
1, 624435, Control_c, 0, 64, 93
1, 624442, Note_on_c, 0, 47, 37
1, 624450, Control_c, 0, 64, 96
1, 624465, Control_c, 0, 64, 99
1, 624480, Control_c, 0, 64, 103
1, 624494, Control_c, 0, 64, 105
1, 624509, Control_c, 0, 64, 107
1, 624524, Control_c, 0, 64, 109
1, 624539, Control_c, 0, 64, 111
1, 624554, Control_c, 0, 64, 114
1, 624554, Control_c, 0, 67, 105
1, 624569, Control_c, 0, 64, 115
1, 624583, Control_c, 0, 64, 115
1, 624598, Control_c, 0, 67, 104
1, 624613, Control_c, 0, 64, 116
1, 624658, Control_c, 0, 67, 104
1, 624746, Control_c, 0, 67, 103
1, 624776, Control_c, 0, 67, 103
1, 624780, Note_on_c, 0, 54, 50
1, 624795, Note_off_c, 0, 47, 42
1, 624833, Note_off_c, 0, 61, 40
1, 624835, Control_c, 0, 64, 117
1, 624835, Control_c, 0, 67, 102
1, 624881, Note_off_c, 0, 64, 29
1, 624898, Note_off_c, 0, 54, 64
1, 624929, Note_off_c, 0, 69, 45
1, 624938, Control_c, 0, 67, 102
1, 624983, Control_c, 0, 67, 101
1, 625073, Note_on_c, 0, 57, 56
1, 625147, Control_c, 0, 67, 101
1, 625184, Control_c, 0, 67, 100
1, 625214, Control_c, 0, 67, 100
1, 625229, Control_c, 0, 67, 99
1, 625243, Control_c, 0, 67, 99
1, 625273, Control_c, 0, 67, 98
1, 625303, Control_c, 0, 67, 98
1, 625332, Control_c, 0, 67, 97
1, 625361, Control_c, 0, 67, 97
1, 625379, Note_on_c, 0, 59, 57
1, 625391, Control_c, 0, 67, 96
1, 625421, Control_c, 0, 67, 96
1, 625451, Control_c, 0, 64, 116
1, 625451, Control_c, 0, 67, 95
1, 625466, Control_c, 0, 67, 94
1, 625495, Control_c, 0, 64, 116
1, 625495, Control_c, 0, 67, 94
1, 625510, Control_c, 0, 64, 115
1, 625510, Control_c, 0, 67, 93
1, 625525, Control_c, 0, 64, 114
1, 625525, Control_c, 0, 67, 92
1, 625540, Control_c, 0, 64, 114
1, 625540, Control_c, 0, 67, 90
1, 625555, Control_c, 0, 64, 113
1, 625555, Control_c, 0, 67, 87
1, 625569, Control_c, 0, 64, 112
1, 625569, Control_c, 0, 67, 83
1, 625584, Control_c, 0, 64, 112
1, 625584, Control_c, 0, 67, 78
1, 625599, Control_c, 0, 67, 71
1, 625614, Control_c, 0, 64, 111
1, 625614, Control_c, 0, 67, 64
1, 625615, Note_off_c, 0, 57, 28
1, 625629, Control_c, 0, 64, 111
1, 625629, Control_c, 0, 67, 57
1, 625643, Control_c, 0, 64, 110
1, 625643, Control_c, 0, 67, 52
1, 625658, Control_c, 0, 67, 48
1, 625673, Control_c, 0, 64, 110
1, 625673, Control_c, 0, 67, 44
1, 625680, Note_on_c, 0, 61, 62
1, 625687, Control_c, 0, 67, 39
1, 625702, Control_c, 0, 64, 109
1, 625702, Control_c, 0, 67, 34
1, 625717, Control_c, 0, 64, 109
1, 625717, Control_c, 0, 67, 31
1, 625732, Control_c, 0, 64, 108
1, 625732, Control_c, 0, 67, 28
1, 625747, Control_c, 0, 64, 108
1, 625747, Control_c, 0, 67, 25
1, 625761, Control_c, 0, 64, 107
1, 625761, Control_c, 0, 67, 19
1, 625776, Control_c, 0, 64, 107
1, 625776, Control_c, 0, 67, 13
1, 625791, Control_c, 0, 64, 106
1, 625791, Control_c, 0, 67, 0
1, 625797, Note_off_c, 0, 59, 26
1, 625807, Control_c, 0, 64, 105
1, 625822, Control_c, 0, 64, 105
1, 625837, Control_c, 0, 64, 104
1, 625851, Control_c, 0, 64, 104
1, 625866, Control_c, 0, 64, 103
1, 625881, Control_c, 0, 64, 102
1, 625896, Control_c, 0, 64, 101
1, 625911, Control_c, 0, 64, 100
1, 625933, Control_c, 0, 64, 100
1, 625948, Control_c, 0, 64, 98
1, 625963, Control_c, 0, 64, 98
1, 625978, Control_c, 0, 64, 97
1, 625992, Control_c, 0, 64, 96
1, 626007, Control_c, 0, 64, 96
1, 626022, Control_c, 0, 64, 95
1, 626037, Control_c, 0, 64, 95
1, 626052, Control_c, 0, 64, 94
1, 626066, Control_c, 0, 64, 93
1, 626078, Note_on_c, 0, 59, 41
1, 626081, Control_c, 0, 64, 92
1, 626095, Note_on_c, 0, 68, 41
1, 626096, Control_c, 0, 64, 91
1, 626101, Note_on_c, 0, 64, 41
1, 626110, Control_c, 0, 64, 89
1, 626125, Control_c, 0, 64, 86
1, 626140, Control_c, 0, 64, 81
1, 626155, Control_c, 0, 64, 75
1, 626169, Note_off_c, 0, 61, 22
1, 626170, Control_c, 0, 64, 69
1, 626184, Control_c, 0, 64, 64
1, 626199, Control_c, 0, 64, 57
1, 626214, Control_c, 0, 64, 50
1, 626229, Control_c, 0, 64, 51
1, 626244, Control_c, 0, 64, 56
1, 626259, Control_c, 0, 64, 59
1, 626274, Control_c, 0, 64, 61
1, 626289, Control_c, 0, 64, 63
1, 626303, Control_c, 0, 64, 65
1, 626318, Control_c, 0, 64, 67
1, 626333, Control_c, 0, 64, 70
1, 626348, Control_c, 0, 64, 74
1, 626363, Control_c, 0, 64, 77
1, 626377, Control_c, 0, 64, 81
1, 626392, Control_c, 0, 64, 85
1, 626407, Control_c, 0, 64, 89
1, 626422, Control_c, 0, 64, 92
1, 626437, Control_c, 0, 64, 95
1, 626451, Control_c, 0, 64, 98
1, 626466, Control_c, 0, 64, 100
1, 626481, Control_c, 0, 64, 102
1, 626496, Control_c, 0, 64, 104
1, 626510, Control_c, 0, 64, 106
1, 626525, Control_c, 0, 64, 106
1, 626540, Control_c, 0, 64, 107
1, 626571, Control_c, 0, 64, 108
1, 626585, Control_c, 0, 64, 108
1, 626600, Control_c, 0, 64, 109
1, 626616, Control_c, 0, 64, 109
1, 626631, Control_c, 0, 64, 110
1, 626768, Note_on_c, 0, 47, 40
1, 626846, Note_on_c, 0, 73, 73
1, 626920, Control_c, 0, 64, 109
1, 626953, Note_off_c, 0, 64, 54
1, 626964, Control_c, 0, 64, 109
1, 626967, Note_off_c, 0, 59, 40
1, 626994, Control_c, 0, 64, 108
1, 627008, Control_c, 0, 64, 108
1, 627023, Control_c, 0, 64, 107
1, 627038, Control_c, 0, 64, 107
1, 627053, Control_c, 0, 64, 106
1, 627068, Control_c, 0, 64, 105
1, 627079, Note_off_c, 0, 68, 46
1, 627082, Control_c, 0, 64, 104
1, 627097, Control_c, 0, 64, 104
1, 627110, Note_off_c, 0, 73, 58
1, 627112, Control_c, 0, 64, 103
1, 627126, Control_c, 0, 64, 102
1, 627141, Control_c, 0, 64, 102
1, 627156, Control_c, 0, 64, 101
1, 627171, Control_c, 0, 64, 100
1, 627186, Control_c, 0, 64, 99
1, 627201, Control_c, 0, 64, 98
1, 627216, Control_c, 0, 64, 97
1, 627230, Control_c, 0, 64, 96
1, 627245, Control_c, 0, 64, 95
1, 627247, Note_on_c, 0, 58, 43
1, 627250, Note_off_c, 0, 71, 39
1, 627260, Control_c, 0, 64, 94
1, 627269, Note_on_c, 0, 75, 69
1, 627275, Control_c, 0, 64, 92
1, 627290, Control_c, 0, 64, 90
1, 627299, Note_on_c, 0, 68, 46
1, 627304, Control_c, 0, 64, 87
1, 627319, Note_on_c, 0, 63, 23
1, 627319, Control_c, 0, 64, 83
1, 627333, Control_c, 0, 64, 78
1, 627348, Control_c, 0, 64, 71
1, 627363, Control_c, 0, 64, 64
1, 627378, Control_c, 0, 64, 52
1, 627393, Control_c, 0, 64, 29
1, 627409, Control_c, 0, 64, 27
1, 627424, Control_c, 0, 64, 38
1, 627445, Control_c, 0, 64, 52
1, 627460, Control_c, 0, 64, 60
1, 627475, Control_c, 0, 64, 63
1, 627490, Control_c, 0, 64, 66
1, 627505, Control_c, 0, 64, 71
1, 627520, Control_c, 0, 64, 76
1, 627535, Control_c, 0, 64, 81
1, 627549, Control_c, 0, 64, 88
1, 627564, Control_c, 0, 64, 94
1, 627579, Control_c, 0, 64, 100
1, 627594, Control_c, 0, 64, 108
1, 627609, Control_c, 0, 64, 119
1, 627624, Control_c, 0, 64, 127
1, 627697, Note_off_c, 0, 75, 54
1, 627724, Note_off_c, 0, 68, 52
1, 627752, Note_off_c, 0, 63, 49
1, 627787, Note_on_c, 0, 62, 42
1, 627833, Note_off_c, 0, 58, 35
1, 627840, Note_off_c, 0, 62, 61
1, 627845, Control_c, 0, 67, 8
1, 627852, Note_on_c, 0, 68, 52
1, 627860, Control_c, 0, 67, 9
1, 627875, Control_c, 0, 67, 11
1, 627889, Control_c, 0, 67, 13
1, 627904, Control_c, 0, 67, 15
1, 627919, Control_c, 0, 67, 17
1, 627934, Control_c, 0, 67, 19
1, 627949, Control_c, 0, 67, 22
1, 627964, Control_c, 0, 67, 24
1, 627979, Control_c, 0, 67, 26
1, 627985, Note_on_c, 0, 76, 65
1, 627994, Control_c, 0, 67, 29
1, 627997, Note_on_c, 0, 58, 36
1, 628007, Note_off_c, 0, 68, 56
1, 628009, Control_c, 0, 67, 32
1, 628023, Control_c, 0, 67, 34
1, 628036, Note_off_c, 0, 76, 60
1, 628038, Control_c, 0, 67, 37
1, 628052, Control_c, 0, 67, 39
1, 628058, Note_off_c, 0, 58, 54
1, 628067, Control_c, 0, 67, 41
1, 628081, Control_c, 0, 67, 43
1, 628096, Control_c, 0, 67, 45
1, 628111, Control_c, 0, 67, 47
1, 628126, Control_c, 0, 67, 49
1, 628141, Control_c, 0, 67, 51
1, 628155, Control_c, 0, 67, 53
1, 628178, Control_c, 0, 67, 55
1, 628193, Control_c, 0, 67, 59
1, 628208, Control_c, 0, 67, 61
1, 628211, Note_on_c, 0, 57, 43
1, 628223, Control_c, 0, 67, 64
1, 628238, Control_c, 0, 67, 66
1, 628253, Control_c, 0, 67, 67
1, 628268, Control_c, 0, 67, 69
1, 628283, Control_c, 0, 67, 71
1, 628291, Note_on_c, 0, 61, 51
1, 628298, Control_c, 0, 67, 74
1, 628312, Control_c, 0, 67, 76
1, 628327, Control_c, 0, 67, 78
1, 628342, Control_c, 0, 67, 79
1, 628357, Control_c, 0, 67, 80
1, 628360, Note_on_c, 0, 66, 58
1, 628372, Control_c, 0, 67, 81
1, 628386, Control_c, 0, 67, 82
1, 628401, Control_c, 0, 67, 82
1, 628416, Control_c, 0, 67, 83
1, 628431, Control_c, 0, 64, 120
1, 628446, Control_c, 0, 64, 115
1, 628446, Control_c, 0, 67, 84
1, 628460, Control_c, 0, 64, 112
1, 628460, Control_c, 0, 67, 84
1, 628475, Control_c, 0, 64, 109
1, 628475, Control_c, 0, 67, 85
1, 628490, Control_c, 0, 64, 107
1, 628490, Control_c, 0, 67, 85
1, 628504, Control_c, 0, 64, 105
1, 628504, Control_c, 0, 67, 86
1, 628505, Note_on_c, 0, 40, 45
1, 628519, Control_c, 0, 64, 103
1, 628519, Control_c, 0, 67, 87
1, 628534, Control_c, 0, 64, 102
1, 628534, Control_c, 0, 67, 88
1, 628549, Control_c, 0, 64, 100
1, 628549, Control_c, 0, 67, 89
1, 628564, Control_c, 0, 64, 98
1, 628564, Control_c, 0, 67, 90
1, 628578, Control_c, 0, 64, 97
1, 628578, Control_c, 0, 67, 91
1, 628593, Control_c, 0, 64, 95
1, 628593, Control_c, 0, 67, 93
1, 628606, Poly_aftertouch_c, 0, 63, 127
1, 628608, Control_c, 0, 64, 94
1, 628608, Control_c, 0, 67, 94
1, 628614, Note_off_c, 0, 47, 42
1, 628623, Control_c, 0, 64, 93
1, 628623, Control_c, 0, 67, 95
1, 628624, Note_on_c, 0, 68, 67
1, 628638, Control_c, 0, 64, 92
1, 628638, Control_c, 0, 67, 97
1, 628652, Control_c, 0, 64, 90
1, 628652, Control_c, 0, 67, 98
1, 628667, Control_c, 0, 64, 88
1, 628667, Control_c, 0, 67, 99
1, 628682, Control_c, 0, 64, 85
1, 628682, Control_c, 0, 67, 100
1, 628697, Control_c, 0, 64, 83
1, 628697, Control_c, 0, 67, 101
1, 628712, Control_c, 0, 64, 79
1, 628712, Control_c, 0, 67, 102
1, 628727, Control_c, 0, 64, 73
1, 628742, Control_c, 0, 64, 67
1, 628742, Control_c, 0, 67, 102
1, 628757, Control_c, 0, 64, 61
1, 628757, Control_c, 0, 67, 103
1, 628772, Control_c, 0, 64, 39
1, 628786, Control_c, 0, 64, 0
1, 628786, Control_c, 0, 67, 104
1, 628816, Control_c, 0, 67, 104
1, 628831, Control_c, 0, 67, 105
1, 628846, Control_c, 0, 67, 106
1, 628860, Control_c, 0, 67, 107
1, 628875, Control_c, 0, 67, 107
1, 628890, Control_c, 0, 67, 108
1, 628904, Control_c, 0, 67, 109
1, 628919, Control_c, 0, 64, 30
1, 628942, Control_c, 0, 64, 60
1, 628942, Control_c, 0, 67, 109
1, 628956, Control_c, 0, 64, 66
1, 628971, Control_c, 0, 64, 69
1, 628986, Control_c, 0, 64, 72
1, 629001, Control_c, 0, 64, 74
1, 629016, Control_c, 0, 64, 77
1, 629031, Control_c, 0, 64, 78
1, 629046, Control_c, 0, 64, 81
1, 629061, Control_c, 0, 64, 83
1, 629076, Control_c, 0, 64, 84
1, 629105, Control_c, 0, 64, 85
1, 629120, Control_c, 0, 64, 88
1, 629130, Note_on_c, 0, 47, 51
1, 629135, Control_c, 0, 64, 91
1, 629150, Control_c, 0, 64, 94
1, 629165, Control_c, 0, 64, 96
1, 629180, Control_c, 0, 64, 97
1, 629195, Control_c, 0, 64, 100
1, 629209, Control_c, 0, 64, 104
1, 629224, Control_c, 0, 64, 108
1, 629237, Note_off_c, 0, 40, 39
1, 629239, Control_c, 0, 64, 111
1, 629254, Control_c, 0, 64, 115
1, 629269, Control_c, 0, 64, 121
1, 629283, Control_c, 0, 64, 127
1, 629406, Note_off_c, 0, 57, 38
1, 629489, Note_on_c, 0, 54, 55
1, 629518, Note_off_c, 0, 47, 51
1, 629636, Poly_aftertouch_c, 0, 63, 0
1, 629708, Note_off_c, 0, 61, 38
1, 629791, Note_on_c, 0, 56, 67
1, 629804, Note_off_c, 0, 66, 37
1, 629884, Control_c, 0, 64, 121
1, 629898, Control_c, 0, 64, 118
1, 629913, Control_c, 0, 64, 115
1, 629928, Note_off_c, 0, 54, 56
1, 629928, Control_c, 0, 64, 113
1, 629943, Control_c, 0, 64, 112
1, 629958, Control_c, 0, 64, 111
1, 629973, Control_c, 0, 64, 110
1, 629988, Control_c, 0, 64, 109
1, 630003, Control_c, 0, 64, 108
1, 630018, Control_c, 0, 64, 107
1, 630032, Control_c, 0, 64, 106
1, 630047, Control_c, 0, 64, 105
1, 630062, Control_c, 0, 64, 103
1, 630076, Control_c, 0, 64, 101
1, 630091, Control_c, 0, 64, 100
1, 630106, Control_c, 0, 64, 99
1, 630110, Note_on_c, 0, 57, 62
1, 630121, Control_c, 0, 64, 97
1, 630136, Control_c, 0, 64, 96
1, 630150, Control_c, 0, 64, 95
1, 630165, Control_c, 0, 64, 94
1, 630180, Control_c, 0, 64, 93
1, 630180, Control_c, 0, 67, 110
1, 630195, Control_c, 0, 64, 92
1, 630210, Control_c, 0, 64, 92
1, 630224, Control_c, 0, 64, 91
1, 630254, Control_c, 0, 64, 91
1, 630269, Control_c, 0, 67, 110
1, 630298, Control_c, 0, 64, 90
1, 630357, Control_c, 0, 64, 90
1, 630387, Control_c, 0, 64, 89
1, 630402, Control_c, 0, 64, 88
1, 630402, Control_c, 0, 67, 111
1, 630417, Control_c, 0, 64, 88
1, 630419, Note_off_c, 0, 57, 56
1, 630435, Note_on_c, 0, 59, 61
1, 630439, Control_c, 0, 64, 87
1, 630454, Control_c, 0, 64, 87
1, 630463, Note_off_c, 0, 56, 18
1, 630469, Control_c, 0, 64, 86
1, 630483, Control_c, 0, 64, 86
1, 630483, Control_c, 0, 67, 112
1, 630498, Control_c, 0, 64, 85
1, 630498, Control_c, 0, 67, 115
1, 630513, Control_c, 0, 67, 118
1, 630528, Control_c, 0, 67, 121
1, 630543, Control_c, 0, 64, 85
1, 630543, Control_c, 0, 67, 124
1, 630557, Control_c, 0, 67, 127
1, 630572, Control_c, 0, 67, 127
1, 630603, Control_c, 0, 64, 84
1, 630692, Control_c, 0, 64, 84
1, 630706, Control_c, 0, 64, 83
1, 630736, Control_c, 0, 64, 83
1, 630751, Control_c, 0, 64, 82
1, 630766, Control_c, 0, 64, 81
1, 630781, Control_c, 0, 64, 80
1, 630796, Control_c, 0, 64, 80
1, 630811, Control_c, 0, 64, 79
1, 630825, Control_c, 0, 64, 78
1, 630840, Control_c, 0, 64, 76
1, 630855, Control_c, 0, 64, 75
1, 630870, Control_c, 0, 64, 74
1, 630885, Note_on_c, 0, 56, 48
1, 630885, Control_c, 0, 64, 73
1, 630887, Note_on_c, 0, 64, 44
1, 630890, Note_on_c, 0, 60, 41
1, 630899, Control_c, 0, 64, 72
1, 630900, Note_off_c, 0, 59, 46
1, 630914, Control_c, 0, 64, 71
1, 630929, Control_c, 0, 64, 70
1, 630944, Control_c, 0, 64, 69
1, 630959, Control_c, 0, 64, 68
1, 630973, Control_c, 0, 64, 66
1, 630988, Control_c, 0, 64, 66
1, 631003, Control_c, 0, 64, 64
1, 631018, Control_c, 0, 64, 64
1, 631033, Control_c, 0, 64, 62
1, 631047, Control_c, 0, 64, 60
1, 631062, Control_c, 0, 64, 57
1, 631077, Control_c, 0, 64, 53
1, 631092, Control_c, 0, 64, 49
1, 631106, Control_c, 0, 64, 47
1, 631121, Control_c, 0, 64, 45
1, 631188, Control_c, 0, 64, 46
1, 631203, Control_c, 0, 64, 49
1, 631218, Control_c, 0, 64, 52
1, 631233, Control_c, 0, 64, 56
1, 631248, Control_c, 0, 64, 59
1, 631262, Control_c, 0, 64, 61
1, 631277, Control_c, 0, 64, 62
1, 631292, Control_c, 0, 64, 64
1, 631306, Control_c, 0, 64, 65
1, 631321, Control_c, 0, 64, 66
1, 631336, Control_c, 0, 64, 68
1, 631351, Control_c, 0, 64, 69
1, 631366, Control_c, 0, 64, 71
1, 631380, Control_c, 0, 64, 73
1, 631395, Control_c, 0, 64, 75
1, 631411, Control_c, 0, 64, 77
1, 631426, Control_c, 0, 64, 79
1, 631441, Control_c, 0, 64, 80
1, 631456, Control_c, 0, 64, 82
1, 631470, Control_c, 0, 64, 84
1, 631485, Control_c, 0, 64, 85
1, 631500, Control_c, 0, 64, 86
1, 631515, Control_c, 0, 64, 87
1, 631544, Control_c, 0, 64, 88
1, 631618, Note_on_c, 0, 47, 35
1, 631662, Note_on_c, 0, 69, 61
1, 631853, Note_off_c, 0, 64, 37
1, 631863, Note_off_c, 0, 56, 42
1, 631900, Control_c, 0, 64, 87
1, 631922, Control_c, 0, 64, 87
1, 631925, Note_off_c, 0, 60, 53
1, 631952, Control_c, 0, 64, 86
1, 631967, Control_c, 0, 64, 86
1, 631982, Control_c, 0, 64, 85
1, 631996, Control_c, 0, 64, 84
1, 632026, Control_c, 0, 64, 84
1, 632055, Control_c, 0, 64, 83
1, 632070, Control_c, 0, 64, 83
1, 632074, Note_on_c, 0, 56, 36
1, 632100, Control_c, 0, 64, 82
1, 632115, Control_c, 0, 64, 82
1, 632129, Control_c, 0, 64, 81
1, 632140, Note_on_c, 0, 59, 42
1, 632144, Control_c, 0, 64, 79
1, 632149, Note_on_c, 0, 71, 59
1, 632159, Control_c, 0, 64, 78
1, 632172, Note_on_c, 0, 64, 32
1, 632174, Control_c, 0, 64, 75
1, 632189, Control_c, 0, 64, 71
1, 632205, Control_c, 0, 64, 67
1, 632215, Note_off_c, 0, 68, 34
1, 632220, Control_c, 0, 64, 63
1, 632234, Control_c, 0, 64, 54
1, 632249, Control_c, 0, 64, 38
1, 632260, Note_off_c, 0, 69, 37
1, 632264, Control_c, 0, 64, 31
1, 632279, Control_c, 0, 64, 30
1, 632338, Control_c, 0, 64, 33
1, 632352, Control_c, 0, 64, 38
1, 632367, Control_c, 0, 64, 43
1, 632382, Control_c, 0, 64, 49
1, 632397, Control_c, 0, 64, 56
1, 632412, Control_c, 0, 64, 61
1, 632426, Control_c, 0, 64, 64
1, 632441, Control_c, 0, 64, 67
1, 632456, Control_c, 0, 64, 69
1, 632471, Control_c, 0, 64, 72
1, 632486, Control_c, 0, 64, 75
1, 632501, Control_c, 0, 64, 78
1, 632516, Control_c, 0, 64, 81
1, 632531, Control_c, 0, 64, 85
1, 632545, Control_c, 0, 64, 88
1, 632560, Control_c, 0, 64, 91
1, 632575, Control_c, 0, 64, 94
1, 632590, Control_c, 0, 64, 97
1, 632605, Control_c, 0, 64, 101
1, 632620, Control_c, 0, 64, 108
1, 632635, Control_c, 0, 64, 117
1, 632650, Control_c, 0, 64, 127
1, 632793, Note_off_c, 0, 59, 49
1, 632814, Note_off_c, 0, 56, 37
1, 632829, Note_on_c, 0, 68, 19
1, 632875, Note_off_c, 0, 71, 38
1, 632877, Note_off_c, 0, 64, 42
1, 632878, Note_on_c, 0, 55, 37
1, 632963, Note_off_c, 0, 68, 42
1, 632978, Note_on_c, 0, 58, 30
1, 633045, Note_off_c, 0, 58, 53
1, 633048, Note_on_c, 0, 63, 42
1, 633133, Note_off_c, 0, 55, 40
1, 633183, Note_on_c, 0, 73, 67
1, 633195, Note_off_c, 0, 63, 54
1, 633256, Note_off_c, 0, 47, 43
1, 633267, Note_off_c, 0, 73, 61
1, 633383, Control_c, 0, 64, 126
1, 633398, Control_c, 0, 64, 123
1, 633413, Control_c, 0, 64, 122
1, 633435, Control_c, 0, 64, 121
1, 633449, Control_c, 0, 64, 119
1, 633464, Control_c, 0, 64, 118
1, 633479, Control_c, 0, 64, 116
1, 633494, Control_c, 0, 64, 114
1, 633508, Control_c, 0, 64, 113
1, 633517, Note_on_c, 0, 54, 35
1, 633523, Control_c, 0, 64, 111
1, 633538, Control_c, 0, 64, 109
1, 633553, Control_c, 0, 64, 107
1, 633568, Control_c, 0, 64, 105
1, 633583, Control_c, 0, 64, 103
1, 633598, Control_c, 0, 64, 102
1, 633608, Note_on_c, 0, 57, 36
1, 633613, Control_c, 0, 64, 100
1, 633627, Control_c, 0, 64, 98
1, 633642, Control_c, 0, 64, 97
1, 633657, Control_c, 0, 64, 96
1, 633672, Control_c, 0, 64, 95
1, 633687, Control_c, 0, 64, 95
1, 633701, Control_c, 0, 64, 94
1, 633716, Control_c, 0, 64, 93
1, 633718, Note_on_c, 0, 62, 41
1, 633731, Control_c, 0, 64, 92
1, 633746, Control_c, 0, 64, 92
1, 633775, Control_c, 0, 64, 91
1, 633791, Control_c, 0, 64, 90
1, 633806, Control_c, 0, 64, 90
1, 633821, Control_c, 0, 64, 89
1, 633836, Control_c, 0, 64, 88
1, 633851, Control_c, 0, 64, 88
1, 633856, Note_on_c, 0, 28, 37
1, 633865, Control_c, 0, 64, 87
1, 633880, Control_c, 0, 64, 86
1, 633895, Control_c, 0, 64, 85
1, 633910, Control_c, 0, 64, 84
1, 633924, Control_c, 0, 64, 83
1, 633939, Control_c, 0, 64, 81
1, 633954, Control_c, 0, 64, 79
1, 633969, Control_c, 0, 64, 77
1, 633984, Control_c, 0, 64, 75
1, 633998, Control_c, 0, 64, 72
1, 634013, Control_c, 0, 64, 69
1, 634028, Control_c, 0, 64, 66
1, 634042, Control_c, 0, 64, 63
1, 634057, Control_c, 0, 64, 51
1, 634059, Note_on_c, 0, 64, 46
1, 634072, Control_c, 0, 64, 0
1, 634243, Control_c, 0, 64, 43
1, 634257, Control_c, 0, 64, 58
1, 634272, Control_c, 0, 64, 62
1, 634287, Control_c, 0, 64, 64
1, 634302, Control_c, 0, 64, 65
1, 634317, Control_c, 0, 64, 67
1, 634331, Control_c, 0, 64, 69
1, 634346, Control_c, 0, 64, 71
1, 634361, Control_c, 0, 64, 72
1, 634376, Control_c, 0, 64, 74
1, 634391, Control_c, 0, 64, 76
1, 634406, Control_c, 0, 64, 78
1, 634420, Control_c, 0, 64, 79
1, 634435, Control_c, 0, 64, 81
1, 634450, Control_c, 0, 64, 83
1, 634465, Control_c, 0, 64, 84
1, 634480, Control_c, 0, 64, 86
1, 634495, Control_c, 0, 64, 87
1, 634510, Control_c, 0, 64, 89
1, 634524, Control_c, 0, 64, 92
1, 634539, Control_c, 0, 64, 94
1, 634554, Control_c, 0, 64, 96
1, 634569, Note_off_c, 0, 28, 34
1, 634569, Control_c, 0, 64, 98
1, 634584, Control_c, 0, 64, 100
1, 634593, Note_on_c, 0, 40, 40
1, 634599, Control_c, 0, 64, 101
1, 634614, Control_c, 0, 64, 102
1, 634629, Control_c, 0, 64, 104
1, 634644, Control_c, 0, 64, 106
1, 634659, Control_c, 0, 64, 109
1, 634673, Control_c, 0, 64, 110
1, 634676, Note_off_c, 0, 40, 57
1, 634688, Control_c, 0, 64, 113
1, 634703, Control_c, 0, 64, 116
1, 634718, Control_c, 0, 64, 118
1, 634733, Control_c, 0, 64, 119
1, 634747, Control_c, 0, 64, 120
1, 634777, Control_c, 0, 64, 121
1, 634807, Control_c, 0, 64, 122
1, 634898, Note_off_c, 0, 54, 43
1, 634945, Note_on_c, 0, 47, 45
1, 635021, Note_off_c, 0, 57, 35
1, 635131, Note_off_c, 0, 62, 30
1, 635140, Control_c, 0, 64, 121
1, 635184, Control_c, 0, 64, 120
1, 635199, Control_c, 0, 64, 119
1, 635214, Control_c, 0, 64, 118
1, 635228, Control_c, 0, 64, 117
1, 635232, Note_on_c, 0, 49, 56
1, 635243, Control_c, 0, 64, 116
1, 635273, Control_c, 0, 64, 116
1, 635273, Control_c, 0, 67, 125
1, 635288, Control_c, 0, 67, 122
1, 635303, Control_c, 0, 64, 115
1, 635303, Control_c, 0, 67, 118
1, 635318, Control_c, 0, 67, 116
1, 635333, Control_c, 0, 64, 115
1, 635333, Control_c, 0, 67, 113
1, 635347, Control_c, 0, 67, 110
1, 635362, Control_c, 0, 64, 114
1, 635362, Control_c, 0, 67, 106
1, 635377, Control_c, 0, 67, 102
1, 635392, Control_c, 0, 67, 98
1, 635407, Control_c, 0, 67, 93
1, 635422, Control_c, 0, 67, 88
1, 635437, Control_c, 0, 67, 82
1, 635452, Control_c, 0, 67, 75
1, 635467, Control_c, 0, 64, 114
1, 635467, Control_c, 0, 67, 68
1, 635482, Control_c, 0, 67, 63
1, 635496, Control_c, 0, 67, 60
1, 635511, Control_c, 0, 64, 113
1, 635511, Control_c, 0, 67, 55
1, 635526, Control_c, 0, 67, 51
1, 635527, Note_on_c, 0, 50, 51
1, 635541, Control_c, 0, 67, 46
1, 635556, Control_c, 0, 67, 42
1, 635570, Control_c, 0, 67, 39
1, 635585, Control_c, 0, 67, 33
1, 635600, Control_c, 0, 64, 113
1, 635600, Control_c, 0, 67, 28
1, 635615, Control_c, 0, 67, 23
1, 635630, Control_c, 0, 67, 17
1, 635644, Control_c, 0, 67, 12
1, 635666, Control_c, 0, 67, 0
1, 635681, Control_c, 0, 64, 112
1, 635696, Control_c, 0, 64, 112
1, 635726, Control_c, 0, 64, 111
1, 635741, Control_c, 0, 64, 111
1, 635770, Control_c, 0, 64, 110
1, 635800, Control_c, 0, 64, 110
1, 635830, Control_c, 0, 64, 109
1, 635859, Control_c, 0, 64, 109
1, 635869, Note_on_c, 0, 57, 50
1, 635874, Control_c, 0, 64, 108
1, 635889, Control_c, 0, 64, 107
1, 635903, Control_c, 0, 64, 107
1, 635918, Control_c, 0, 64, 106
1, 635933, Control_c, 0, 64, 105
1, 635948, Control_c, 0, 64, 103
1, 635963, Control_c, 0, 64, 102
1, 635977, Control_c, 0, 64, 101
1, 635992, Control_c, 0, 64, 100
1, 636007, Control_c, 0, 64, 100
1, 636021, Control_c, 0, 64, 99
1, 636036, Control_c, 0, 64, 98
1, 636051, Control_c, 0, 64, 98
1, 636066, Control_c, 0, 64, 97
1, 636096, Control_c, 0, 64, 96
1, 636111, Control_c, 0, 64, 95
1, 636140, Control_c, 0, 64, 95
1, 636155, Control_c, 0, 64, 94
1, 636170, Control_c, 0, 64, 94
1, 636185, Control_c, 0, 64, 93
1, 636200, Control_c, 0, 64, 93
1, 636215, Control_c, 0, 64, 92
1, 636230, Control_c, 0, 64, 92
1, 636245, Control_c, 0, 64, 90
1, 636260, Control_c, 0, 64, 89
1, 636275, Control_c, 0, 64, 88
1, 636290, Control_c, 0, 64, 87
1, 636305, Control_c, 0, 64, 86
1, 636319, Control_c, 0, 64, 85
1, 636319, Control_c, 0, 67, 8
1, 636334, Control_c, 0, 64, 82
1, 636334, Control_c, 0, 67, 9
1, 636349, Control_c, 0, 64, 80
1, 636349, Control_c, 0, 67, 11
1, 636350, Note_on_c, 0, 56, 23
1, 636350, Note_on_c, 0, 61, 39
1, 636353, Note_on_c, 0, 52, 39
1, 636364, Control_c, 0, 64, 78
1, 636364, Control_c, 0, 67, 12
1, 636379, Control_c, 0, 64, 75
1, 636379, Control_c, 0, 67, 14
1, 636394, Control_c, 0, 64, 73
1, 636394, Control_c, 0, 67, 16
1, 636416, Control_c, 0, 64, 70
1, 636416, Control_c, 0, 67, 18
1, 636417, Note_off_c, 0, 57, 30
1, 636428, Note_off_c, 0, 50, 24
1, 636431, Control_c, 0, 64, 67
1, 636431, Control_c, 0, 67, 21
1, 636445, Control_c, 0, 64, 66
1, 636445, Control_c, 0, 67, 23
1, 636458, Note_off_c, 0, 49, 30
1, 636460, Control_c, 0, 64, 65
1, 636460, Control_c, 0, 67, 25
1, 636475, Control_c, 0, 67, 27
1, 636490, Control_c, 0, 67, 29
1, 636505, Control_c, 0, 67, 32
1, 636519, Control_c, 0, 64, 65
1, 636519, Control_c, 0, 67, 36
1, 636534, Control_c, 0, 67, 39
1, 636549, Control_c, 0, 67, 41
1, 636564, Control_c, 0, 67, 43
1, 636579, Control_c, 0, 64, 64
1, 636579, Control_c, 0, 67, 46
1, 636594, Control_c, 0, 64, 64
1, 636594, Control_c, 0, 67, 48
1, 636608, Control_c, 0, 64, 62
1, 636608, Control_c, 0, 67, 50
1, 636623, Control_c, 0, 64, 58
1, 636623, Control_c, 0, 67, 53
1, 636638, Control_c, 0, 64, 53
1, 636638, Control_c, 0, 67, 55
1, 636653, Control_c, 0, 64, 49
1, 636653, Control_c, 0, 67, 57
1, 636668, Control_c, 0, 64, 47
1, 636668, Control_c, 0, 67, 60
1, 636683, Control_c, 0, 67, 61
1, 636698, Control_c, 0, 67, 63
1, 636713, Control_c, 0, 67, 65
1, 636713, Note_off_c, 0, 47, 29
1, 636727, Control_c, 0, 67, 68
1, 636737, Poly_aftertouch_c, 0, 63, 127
1, 636742, Control_c, 0, 67, 69
1, 636757, Control_c, 0, 64, 48
1, 636757, Control_c, 0, 67, 71
1, 636772, Control_c, 0, 64, 50
1, 636772, Control_c, 0, 67, 73
1, 636787, Control_c, 0, 64, 54
1, 636787, Control_c, 0, 67, 74
1, 636801, Control_c, 0, 64, 58
1, 636801, Control_c, 0, 67, 75
1, 636816, Control_c, 0, 64, 61
1, 636816, Control_c, 0, 67, 76
1, 636831, Control_c, 0, 64, 63
1, 636831, Control_c, 0, 67, 77
1, 636845, Control_c, 0, 64, 65
1, 636845, Control_c, 0, 67, 77
1, 636860, Control_c, 0, 64, 66
1, 636860, Control_c, 0, 67, 78
1, 636875, Control_c, 0, 64, 68
1, 636875, Control_c, 0, 67, 80
1, 636890, Control_c, 0, 64, 70
1, 636890, Control_c, 0, 67, 81
1, 636905, Control_c, 0, 64, 72
1, 636905, Control_c, 0, 67, 83
1, 636919, Control_c, 0, 64, 74
1, 636919, Control_c, 0, 67, 84
1, 636934, Control_c, 0, 64, 77
1, 636934, Control_c, 0, 67, 85
1, 636949, Control_c, 0, 64, 79
1, 636949, Control_c, 0, 67, 86
1, 636964, Control_c, 0, 64, 81
1, 636964, Control_c, 0, 67, 87
1, 636979, Control_c, 0, 64, 83
1, 636979, Control_c, 0, 67, 87
1, 636995, Control_c, 0, 64, 86
1, 637010, Control_c, 0, 64, 88
1, 637024, Control_c, 0, 64, 91
1, 637024, Control_c, 0, 67, 88
1, 637039, Control_c, 0, 64, 93
1, 637054, Control_c, 0, 64, 95
1, 637068, Control_c, 0, 64, 96
1, 637083, Control_c, 0, 64, 97
1, 637098, Control_c, 0, 64, 99
1, 637113, Note_on_c, 0, 40, 44
1, 637113, Control_c, 0, 64, 99
1, 637142, Control_c, 0, 64, 100
1, 637180, Control_c, 0, 67, 88
1, 637203, Note_on_c, 0, 66, 55
1, 637254, Control_c, 0, 67, 89
1, 637313, Control_c, 0, 67, 89
1, 637328, Control_c, 0, 67, 90
1, 637336, Note_off_c, 0, 61, 41
1, 637342, Control_c, 0, 67, 92
1, 637357, Control_c, 0, 67, 93
1, 637372, Control_c, 0, 67, 93
1, 637387, Control_c, 0, 67, 94
1, 637402, Control_c, 0, 64, 99
1, 637402, Control_c, 0, 67, 95
1, 637407, Note_off_c, 0, 52, 39
1, 637416, Control_c, 0, 67, 97
1, 637431, Control_c, 0, 67, 98
1, 637446, Control_c, 0, 64, 99
1, 637446, Control_c, 0, 67, 99
1, 637461, Control_c, 0, 64, 98
1, 637461, Control_c, 0, 67, 100
1, 637476, Control_c, 0, 64, 98
1, 637476, Control_c, 0, 67, 102
1, 637487, Note_off_c, 0, 66, 46
1, 637491, Control_c, 0, 64, 97
1, 637491, Control_c, 0, 67, 103
1, 637506, Control_c, 0, 67, 105
1, 637515, Note_off_c, 0, 56, 38
1, 637521, Control_c, 0, 64, 97
1, 637521, Control_c, 0, 67, 106
1, 637535, Control_c, 0, 64, 96
1, 637535, Control_c, 0, 67, 108
1, 637550, Control_c, 0, 64, 96
1, 637550, Control_c, 0, 67, 110
1, 637554, Note_off_c, 0, 64, 38
1, 637565, Control_c, 0, 64, 95
1, 637565, Control_c, 0, 67, 111
1, 637580, Control_c, 0, 64, 95
1, 637580, Control_c, 0, 67, 113
1, 637595, Control_c, 0, 64, 94
1, 637595, Control_c, 0, 67, 115
1, 637609, Control_c, 0, 64, 93
1, 637609, Control_c, 0, 67, 116
1, 637624, Control_c, 0, 64, 92
1, 637624, Control_c, 0, 67, 117
1, 637639, Control_c, 0, 64, 92
1, 637639, Control_c, 0, 67, 118
1, 637654, Control_c, 0, 64, 91
1, 637654, Control_c, 0, 67, 119
1, 637668, Control_c, 0, 64, 89
1, 637668, Control_c, 0, 67, 121
1, 637683, Control_c, 0, 64, 88
1, 637683, Control_c, 0, 67, 121
1, 637684, Poly_aftertouch_c, 0, 63, 0
1, 637698, Control_c, 0, 64, 87
1, 637698, Control_c, 0, 67, 122
1, 637710, Note_on_c, 0, 51, 32
1, 637713, Control_c, 0, 64, 85
1, 637713, Control_c, 0, 67, 123
1, 637721, Note_on_c, 0, 60, 43
1, 637723, Note_on_c, 0, 68, 46
1, 637728, Control_c, 0, 64, 84
1, 637728, Control_c, 0, 67, 125
1, 637738, Note_on_c, 0, 54, 29
1, 637742, Control_c, 0, 64, 83
1, 637742, Control_c, 0, 67, 126
1, 637757, Control_c, 0, 64, 81
1, 637757, Control_c, 0, 67, 127
1, 637772, Control_c, 0, 64, 79
1, 637787, Control_c, 0, 64, 76
1, 637802, Control_c, 0, 64, 72
1, 637817, Control_c, 0, 64, 68
1, 637832, Control_c, 0, 64, 65
1, 637846, Control_c, 0, 64, 61
1, 637861, Control_c, 0, 64, 54
1, 637876, Control_c, 0, 64, 44
1, 637890, Control_c, 0, 64, 32
1, 637913, Control_c, 0, 64, 19
1, 637928, Control_c, 0, 64, 11
1, 638017, Control_c, 0, 64, 19
1, 638032, Control_c, 0, 64, 31
1, 638046, Control_c, 0, 64, 43
1, 638061, Control_c, 0, 64, 51
1, 638076, Control_c, 0, 64, 56
1, 638090, Control_c, 0, 64, 60
1, 638105, Control_c, 0, 64, 63
1, 638120, Control_c, 0, 64, 65
1, 638135, Control_c, 0, 64, 67
1, 638150, Control_c, 0, 64, 69
1, 638164, Control_c, 0, 64, 71
1, 638179, Control_c, 0, 64, 73
1, 638194, Control_c, 0, 64, 76
1, 638209, Control_c, 0, 64, 79
1, 638224, Control_c, 0, 64, 82
1, 638239, Control_c, 0, 64, 84
1, 638254, Control_c, 0, 64, 86
1, 638269, Control_c, 0, 64, 89
1, 638283, Control_c, 0, 64, 91
1, 638291, Note_off_c, 0, 54, 36
1, 638298, Control_c, 0, 64, 93
1, 638313, Control_c, 0, 64, 94
1, 638328, Control_c, 0, 64, 96
1, 638343, Control_c, 0, 64, 98
1, 638357, Control_c, 0, 64, 101
1, 638372, Control_c, 0, 64, 102
1, 638387, Control_c, 0, 64, 103
1, 638402, Control_c, 0, 64, 104
1, 638416, Control_c, 0, 64, 106
1, 638431, Control_c, 0, 64, 110
1, 638446, Control_c, 0, 64, 112
1, 638461, Control_c, 0, 64, 112
1, 638476, Control_c, 0, 64, 113
1, 638520, Control_c, 0, 64, 113
1, 638603, Note_off_c, 0, 51, 44
1, 638640, Note_off_c, 0, 68, 59
1, 638692, Control_c, 0, 64, 113
1, 638719, Note_on_c, 0, 50, 29
1, 638815, Note_on_c, 0, 69, 46
1, 638895, Note_off_c, 0, 69, 52
1, 638899, Control_c, 0, 64, 112
1, 638925, Note_off_c, 0, 60, 41
1, 638928, Note_off_c, 0, 50, 44
1, 638928, Control_c, 0, 64, 111
1, 638958, Control_c, 0, 64, 111
1, 638973, Control_c, 0, 64, 110
1, 639017, Control_c, 0, 64, 110
1, 639077, Control_c, 0, 64, 109
1, 639080, Note_off_c, 0, 40, 40
1, 639092, Control_c, 0, 64, 109
1, 639121, Control_c, 0, 64, 108
1, 639151, Control_c, 0, 64, 108
1, 639166, Control_c, 0, 64, 107
1, 639181, Control_c, 0, 64, 107
1, 639195, Control_c, 0, 64, 106
1, 639210, Control_c, 0, 64, 106
1, 639225, Control_c, 0, 64, 105
1, 639239, Control_c, 0, 64, 104
1, 639254, Control_c, 0, 64, 103
1, 639269, Control_c, 0, 64, 103
1, 639285, Control_c, 0, 64, 101
1, 639300, Control_c, 0, 64, 100
1, 639314, Control_c, 0, 64, 99
1, 639329, Control_c, 0, 64, 98
1, 639336, Note_on_c, 0, 28, 31
1, 639344, Control_c, 0, 64, 97
1, 639358, Control_c, 0, 64, 96
1, 639373, Control_c, 0, 64, 95
1, 639390, Control_c, 0, 64, 94
1, 639411, Control_c, 0, 64, 92
1, 639426, Control_c, 0, 64, 91
1, 639441, Control_c, 0, 64, 91
1, 639456, Control_c, 0, 64, 90
1, 639467, Note_on_c, 0, 49, 37
1, 639470, Note_on_c, 0, 40, 33
1, 639470, Control_c, 0, 64, 89
1, 639485, Control_c, 0, 64, 88
1, 639500, Control_c, 0, 64, 87
1, 639515, Control_c, 0, 64, 86
1, 639530, Control_c, 0, 64, 85
1, 639544, Note_on_c, 0, 52, 34
1, 639545, Control_c, 0, 64, 85
1, 639560, Control_c, 0, 64, 84
1, 639574, Control_c, 0, 64, 83
1, 639589, Control_c, 0, 64, 82
1, 639604, Control_c, 0, 64, 82
1, 639619, Control_c, 0, 64, 81
1, 639634, Control_c, 0, 64, 79
1, 639649, Control_c, 0, 64, 78
1, 639663, Control_c, 0, 64, 75
1, 639670, Note_on_c, 0, 57, 35
1, 639678, Control_c, 0, 64, 73
1, 639693, Control_c, 0, 64, 70
1, 639708, Control_c, 0, 64, 67
1, 639723, Control_c, 0, 64, 65
1, 639737, Control_c, 0, 64, 63
1, 639752, Control_c, 0, 64, 62
1, 639767, Control_c, 0, 64, 62
1, 639782, Control_c, 0, 64, 61
1, 639797, Control_c, 0, 64, 60
1, 639811, Control_c, 0, 64, 59
1, 639826, Control_c, 0, 64, 58
1, 639841, Control_c, 0, 64, 58
1, 639870, Control_c, 0, 64, 58
1, 639885, Control_c, 0, 64, 59
1, 639900, Control_c, 0, 64, 61
1, 639915, Control_c, 0, 64, 63
1, 639930, Control_c, 0, 64, 64
1, 639944, Control_c, 0, 64, 66
1, 639959, Control_c, 0, 64, 68
1, 639964, Note_on_c, 0, 59, 45
1, 639974, Control_c, 0, 64, 70
1, 639989, Control_c, 0, 64, 73
1, 640004, Control_c, 0, 64, 76
1, 640019, Control_c, 0, 64, 79
1, 640033, Control_c, 0, 64, 84
1, 640048, Control_c, 0, 64, 88
1, 640063, Note_off_c, 0, 28, 38
1, 640063, Control_c, 0, 64, 92
1, 640078, Control_c, 0, 64, 95
1, 640093, Control_c, 0, 64, 99
1, 640108, Control_c, 0, 64, 104
1, 640123, Control_c, 0, 64, 112
1, 640137, Control_c, 0, 64, 127
1, 640236, Note_off_c, 0, 40, 41
1, 640272, Note_off_c, 0, 49, 41
1, 640404, Note_off_c, 0, 52, 39
1, 640409, Note_off_c, 0, 57, 35
1, 640633, Note_on_c, 0, 49, 41
1, 640677, Note_off_c, 0, 59, 35
1, 640738, Control_c, 0, 67, 126
1, 640753, Control_c, 0, 67, 124
1, 640767, Control_c, 0, 67, 121
1, 640781, Control_c, 0, 67, 117
1, 640796, Control_c, 0, 67, 114
1, 640810, Control_c, 0, 67, 111
1, 640825, Control_c, 0, 67, 109
1, 640840, Control_c, 0, 67, 105
1, 640855, Control_c, 0, 67, 101
1, 640870, Control_c, 0, 67, 96
1, 640884, Control_c, 0, 67, 92
1, 640899, Control_c, 0, 67, 89
1, 640922, Control_c, 0, 67, 86
1, 640937, Control_c, 0, 67, 82
1, 640952, Control_c, 0, 67, 78
1, 640961, Note_off_c, 0, 49, 50
1, 640966, Control_c, 0, 67, 74
1, 640981, Control_c, 0, 67, 71
1, 640996, Control_c, 0, 67, 68
1, 641011, Control_c, 0, 67, 65
1, 641022, Note_on_c, 0, 56, 49
1, 641026, Control_c, 0, 67, 62
1, 641041, Control_c, 0, 67, 58
1, 641056, Control_c, 0, 67, 54
1, 641071, Control_c, 0, 67, 49
1, 641086, Control_c, 0, 67, 45
1, 641101, Control_c, 0, 67, 41
1, 641115, Control_c, 0, 67, 39
1, 641123, Note_off_c, 0, 56, 55
1, 641130, Control_c, 0, 67, 36
1, 641145, Control_c, 0, 67, 32
1, 641160, Control_c, 0, 67, 28
1, 641175, Control_c, 0, 67, 24
1, 641189, Control_c, 0, 67, 20
1, 641204, Control_c, 0, 67, 16
1, 641219, Control_c, 0, 67, 13
1, 641233, Control_c, 0, 67, 9
1, 641248, Control_c, 0, 67, 0
1, 641305, Note_on_c, 0, 57, 48
1, 641604, Note_on_c, 0, 61, 55
1, 641941, Note_on_c, 0, 64, 45
1, 641969, Note_on_c, 0, 85, 77
1, 642138, Note_off_c, 0, 61, 51
1, 642188, Note_off_c, 0, 57, 33
1, 642271, Poly_aftertouch_c, 0, 81, 127
1, 642278, Poly_aftertouch_c, 0, 80, 127
1, 642385, Note_on_c, 0, 57, 31
1, 642394, Poly_aftertouch_c, 0, 80, 0
1, 642416, Note_on_c, 0, 68, 40
1, 642418, Note_on_c, 0, 59, 39
1, 642483, Note_on_c, 0, 75, 68
1, 642524, Control_c, 0, 64, 118
1, 642538, Control_c, 0, 64, 99
1, 642553, Control_c, 0, 64, 87
1, 642568, Control_c, 0, 64, 76
1, 642584, Control_c, 0, 64, 66
1, 642599, Control_c, 0, 64, 61
1, 642614, Poly_aftertouch_c, 0, 81, 0
1, 642614, Control_c, 0, 64, 64
1, 642629, Control_c, 0, 64, 67
1, 642643, Control_c, 0, 64, 72
1, 642658, Control_c, 0, 64, 79
1, 642673, Control_c, 0, 64, 91
1, 642680, Note_off_c, 0, 64, 20
1, 642687, Control_c, 0, 64, 114
1, 642702, Control_c, 0, 64, 127
1, 642752, Note_off_c, 0, 85, 32
1, 642797, Note_off_c, 0, 68, 61
1, 642934, Note_on_c, 0, 66, 45
1, 643057, Note_off_c, 0, 75, 37
1, 643184, Control_c, 0, 67, 8
1, 643185, Note_off_c, 0, 66, 36
1, 643199, Control_c, 0, 67, 8
1, 643213, Control_c, 0, 67, 9
1, 643228, Control_c, 0, 67, 9
1, 643243, Control_c, 0, 67, 10
1, 643249, Note_off_c, 0, 59, 35
1, 643251, Note_on_c, 0, 63, 46
1, 643258, Control_c, 0, 67, 11
1, 643273, Control_c, 0, 67, 11
1, 643287, Control_c, 0, 67, 12
1, 643302, Control_c, 0, 67, 14
1, 643317, Control_c, 0, 67, 16
1, 643332, Control_c, 0, 67, 19
1, 643347, Control_c, 0, 67, 21
1, 643361, Control_c, 0, 67, 25
1, 643376, Control_c, 0, 67, 28
1, 643392, Control_c, 0, 67, 31
1, 643407, Control_c, 0, 67, 34
1, 643422, Control_c, 0, 67, 36
1, 643429, Note_off_c, 0, 63, 36
1, 643436, Control_c, 0, 67, 38
1, 643451, Control_c, 0, 67, 40
1, 643466, Control_c, 0, 67, 42
1, 643469, Note_off_c, 0, 57, 41
1, 643481, Control_c, 0, 67, 44
1, 643496, Control_c, 0, 67, 45
1, 643510, Control_c, 0, 67, 46
1, 643525, Control_c, 0, 67, 47
1, 643540, Note_on_c, 0, 61, 50
1, 643540, Control_c, 0, 67, 48
1, 643555, Control_c, 0, 67, 50
1, 643570, Control_c, 0, 67, 52
1, 643584, Control_c, 0, 67, 54
1, 643599, Control_c, 0, 67, 56
1, 643614, Control_c, 0, 67, 57
1, 643628, Control_c, 0, 67, 59
1, 643643, Control_c, 0, 67, 61
1, 643658, Control_c, 0, 67, 63
1, 643673, Control_c, 0, 67, 65
1, 643688, Control_c, 0, 67, 66
1, 643703, Control_c, 0, 67, 68
1, 643718, Control_c, 0, 67, 70
1, 643733, Control_c, 0, 67, 72
1, 643748, Control_c, 0, 67, 74
1, 643763, Control_c, 0, 67, 76
1, 643776, Control_c, 0, 67, 78
1, 643791, Control_c, 0, 67, 80
1, 643806, Control_c, 0, 67, 81
1, 643821, Control_c, 0, 67, 84
1, 643835, Control_c, 0, 67, 86
1, 643850, Control_c, 0, 67, 88
1, 643865, Control_c, 0, 67, 90
1, 643880, Control_c, 0, 67, 93
1, 643888, Note_on_c, 0, 56, 43
1, 643902, Control_c, 0, 67, 96
1, 643917, Control_c, 0, 67, 98
1, 643932, Control_c, 0, 67, 100
1, 643932, Note_off_c, 0, 61, 33
1, 643947, Control_c, 0, 67, 103
1, 643962, Control_c, 0, 67, 106
1, 643976, Control_c, 0, 67, 110
1, 643991, Control_c, 0, 67, 115
1, 644006, Control_c, 0, 67, 120
1, 644021, Control_c, 0, 67, 122
1, 644035, Control_c, 0, 67, 125
1, 644050, Control_c, 0, 67, 127
1, 644271, Note_on_c, 0, 54, 27
1, 644289, Note_off_c, 0, 56, 19
1, 644320, Note_on_c, 0, 69, 53
1, 644337, Note_off_c, 0, 54, 44
1, 644411, Note_off_c, 0, 69, 57
1, 644709, Note_on_c, 0, 28, 37
1, 644813, Note_on_c, 0, 40, 33
1, 644822, Note_on_c, 0, 49, 37
1, 644859, Note_on_c, 0, 52, 37
1, 644888, Control_c, 0, 64, 123
1, 644903, Control_c, 0, 64, 111
1, 644918, Control_c, 0, 64, 104
1, 644926, Note_on_c, 0, 57, 42
1, 644932, Control_c, 0, 64, 97
1, 644947, Control_c, 0, 64, 91
1, 644962, Control_c, 0, 64, 84
1, 644978, Control_c, 0, 64, 77
1, 644993, Control_c, 0, 64, 68
1, 645008, Control_c, 0, 64, 61
1, 645022, Control_c, 0, 64, 32
1, 645037, Control_c, 0, 64, 0
1, 645046, Note_on_c, 0, 59, 48
1, 645111, Control_c, 0, 64, 28
1, 645126, Control_c, 0, 64, 65
1, 645141, Control_c, 0, 64, 73
1, 645155, Control_c, 0, 64, 84
1, 645170, Control_c, 0, 64, 101
1, 645185, Control_c, 0, 64, 124
1, 645193, Note_off_c, 0, 28, 39
1, 645199, Control_c, 0, 64, 127
1, 645309, Note_off_c, 0, 40, 37
1, 645336, Note_off_c, 0, 49, 44
1, 645389, Note_off_c, 0, 57, 35
1, 645419, Note_off_c, 0, 52, 40
1, 645596, Note_on_c, 0, 49, 49
1, 645673, Note_off_c, 0, 59, 32
1, 645876, Control_c, 0, 67, 124
1, 645891, Control_c, 0, 67, 120
1, 645905, Control_c, 0, 67, 115
1, 645920, Control_c, 0, 67, 110
1, 645935, Control_c, 0, 67, 104
1, 645950, Control_c, 0, 67, 96
1, 645957, Note_on_c, 0, 56, 56
1, 645965, Control_c, 0, 67, 91
1, 645979, Control_c, 0, 67, 86
1, 645980, Note_off_c, 0, 49, 44
1, 645994, Control_c, 0, 67, 81
1, 646009, Control_c, 0, 67, 77
1, 646023, Control_c, 0, 67, 73
1, 646038, Control_c, 0, 67, 69
1, 646053, Control_c, 0, 67, 64
1, 646068, Control_c, 0, 67, 59
1, 646083, Control_c, 0, 67, 54
1, 646097, Control_c, 0, 67, 50
1, 646111, Note_off_c, 0, 56, 58
1, 646112, Control_c, 0, 67, 45
1, 646127, Control_c, 0, 67, 41
1, 646142, Control_c, 0, 67, 35
1, 646165, Control_c, 0, 67, 30
1, 646179, Control_c, 0, 67, 25
1, 646194, Control_c, 0, 67, 20
1, 646209, Control_c, 0, 67, 15
1, 646224, Control_c, 0, 67, 9
1, 646238, Control_c, 0, 67, 0
1, 646257, Note_on_c, 0, 57, 57
1, 646547, Note_on_c, 0, 61, 65
1, 646885, Note_on_c, 0, 64, 52
1, 646932, Note_on_c, 0, 85, 77
1, 647093, Note_off_c, 0, 57, 32
1, 647107, Note_off_c, 0, 61, 38
1, 647256, Note_on_c, 0, 83, 14
1, 647331, Note_on_c, 0, 57, 34
1, 647337, Note_on_c, 0, 68, 50
1, 647347, Note_on_c, 0, 59, 46
1, 647388, Control_c, 0, 64, 109
1, 647402, Control_c, 0, 64, 99
1, 647417, Control_c, 0, 64, 90
1, 647419, Note_on_c, 0, 75, 64
1, 647432, Control_c, 0, 64, 80
1, 647447, Control_c, 0, 64, 69
1, 647462, Control_c, 0, 64, 44
1, 647477, Control_c, 0, 64, 0
1, 647485, Note_off_c, 0, 64, 31
1, 647522, Note_off_c, 0, 83, 39
1, 647536, Control_c, 0, 64, 36
1, 647551, Control_c, 0, 64, 58
1, 647564, Note_off_c, 0, 85, 58
1, 647566, Control_c, 0, 64, 66
1, 647581, Control_c, 0, 64, 72
1, 647595, Control_c, 0, 64, 80
1, 647610, Control_c, 0, 64, 88
1, 647625, Control_c, 0, 64, 95
1, 647647, Control_c, 0, 64, 103
1, 647662, Control_c, 0, 64, 111
1, 647677, Control_c, 0, 64, 119
1, 647691, Control_c, 0, 64, 127
1, 647703, Note_off_c, 0, 68, 61
1, 647835, Note_on_c, 0, 66, 53
1, 647900, Note_off_c, 0, 75, 38
1, 647929, Control_c, 0, 67, 9
1, 647944, Control_c, 0, 67, 12
1, 647958, Control_c, 0, 67, 15
1, 647973, Control_c, 0, 67, 18
1, 647988, Control_c, 0, 67, 22
1, 648002, Control_c, 0, 67, 25
1, 648017, Control_c, 0, 67, 28
1, 648032, Control_c, 0, 67, 31
1, 648047, Control_c, 0, 67, 35
1, 648062, Control_c, 0, 67, 38
1, 648067, Note_off_c, 0, 66, 35
1, 648076, Control_c, 0, 67, 42
1, 648091, Control_c, 0, 67, 45
1, 648106, Control_c, 0, 67, 48
1, 648121, Note_on_c, 0, 63, 50
1, 648121, Control_c, 0, 67, 51
1, 648136, Control_c, 0, 67, 54
1, 648150, Control_c, 0, 67, 58
1, 648165, Control_c, 0, 67, 61
1, 648181, Control_c, 0, 67, 65
1, 648189, Note_off_c, 0, 59, 30
1, 648196, Control_c, 0, 67, 68
1, 648211, Control_c, 0, 67, 71
1, 648225, Control_c, 0, 67, 74
1, 648240, Control_c, 0, 67, 78
1, 648255, Control_c, 0, 67, 81
1, 648270, Control_c, 0, 67, 83
1, 648285, Control_c, 0, 67, 84
1, 648286, Note_off_c, 0, 63, 38
1, 648299, Control_c, 0, 67, 85
1, 648314, Control_c, 0, 67, 86
1, 648329, Control_c, 0, 67, 88
1, 648340, Note_off_c, 0, 57, 41
1, 648344, Control_c, 0, 67, 89
1, 648359, Control_c, 0, 67, 90
1, 648373, Control_c, 0, 67, 90
1, 648388, Control_c, 0, 67, 92
1, 648410, Control_c, 0, 67, 93
1, 648425, Control_c, 0, 67, 94
1, 648430, Note_on_c, 0, 61, 46
1, 648440, Control_c, 0, 67, 95
1, 648455, Control_c, 0, 67, 96
1, 648469, Control_c, 0, 67, 96
1, 648484, Control_c, 0, 67, 97
1, 648499, Control_c, 0, 67, 97
1, 648514, Control_c, 0, 67, 98
1, 648529, Control_c, 0, 67, 99
1, 648544, Control_c, 0, 67, 101
1, 648559, Control_c, 0, 67, 102
1, 648573, Control_c, 0, 67, 104
1, 648588, Control_c, 0, 67, 106
1, 648603, Control_c, 0, 67, 107
1, 648617, Control_c, 0, 67, 109
1, 648632, Control_c, 0, 67, 111
1, 648647, Control_c, 0, 67, 113
1, 648662, Control_c, 0, 67, 114
1, 648677, Control_c, 0, 67, 116
1, 648691, Control_c, 0, 67, 117
1, 648706, Control_c, 0, 67, 118
1, 648721, Control_c, 0, 67, 120
1, 648736, Control_c, 0, 67, 121
1, 648750, Control_c, 0, 67, 123
1, 648765, Control_c, 0, 67, 125
1, 648773, Note_on_c, 0, 56, 42
1, 648780, Control_c, 0, 67, 126
1, 648795, Control_c, 0, 67, 127
1, 648852, Note_off_c, 0, 61, 37
1, 649128, Note_on_c, 0, 54, 41
1, 649166, Note_off_c, 0, 56, 37
1, 649198, Note_off_c, 0, 54, 51
1, 649262, Note_on_c, 0, 69, 52
1, 649337, Control_c, 0, 64, 126
1, 649367, Control_c, 0, 64, 124
1, 649382, Note_off_c, 0, 69, 53
1, 649382, Control_c, 0, 64, 122
1, 649396, Control_c, 0, 64, 121
1, 649411, Control_c, 0, 64, 120
1, 649441, Control_c, 0, 64, 119
1, 649471, Control_c, 0, 64, 119
1, 649486, Control_c, 0, 64, 118
1, 649515, Control_c, 0, 64, 118
1, 649530, Control_c, 0, 64, 117
1, 649545, Control_c, 0, 64, 117
1, 649574, Control_c, 0, 64, 116
1, 649604, Control_c, 0, 64, 116
1, 649619, Control_c, 0, 64, 115
1, 649634, Control_c, 0, 64, 115
1, 649648, Control_c, 0, 64, 114
1, 649693, Control_c, 0, 64, 114
1, 649708, Control_c, 0, 64, 113
1, 649722, Control_c, 0, 64, 113
1, 649752, Control_c, 0, 64, 112
1, 649768, Control_c, 0, 64, 111
1, 649783, Control_c, 0, 64, 111
1, 649797, Control_c, 0, 64, 110
1, 649812, Control_c, 0, 64, 109
1, 649827, Control_c, 0, 64, 107
1, 649842, Control_c, 0, 64, 106
1, 649848, Note_on_c, 0, 28, 36
1, 649857, Control_c, 0, 64, 105
1, 649871, Control_c, 0, 64, 104
1, 649886, Control_c, 0, 64, 103
1, 649909, Control_c, 0, 64, 102
1, 649924, Control_c, 0, 64, 100
1, 649935, Note_on_c, 0, 40, 19
1, 649939, Control_c, 0, 64, 99
1, 649953, Control_c, 0, 64, 98
1, 649957, Note_on_c, 0, 59, 41
1, 649968, Control_c, 0, 64, 97
1, 649972, Note_on_c, 0, 49, 34
1, 649983, Note_on_c, 0, 52, 32
1, 649983, Control_c, 0, 64, 95
1, 649997, Control_c, 0, 64, 93
1, 650012, Control_c, 0, 64, 90
1, 650027, Control_c, 0, 64, 86
1, 650042, Control_c, 0, 64, 82
1, 650057, Control_c, 0, 64, 77
1, 650071, Control_c, 0, 64, 71
1, 650086, Control_c, 0, 64, 66
1, 650101, Control_c, 0, 64, 62
1, 650116, Control_c, 0, 64, 45
1, 650131, Control_c, 0, 64, 0
1, 650397, Control_c, 0, 64, 47
1, 650412, Control_c, 0, 64, 58
1, 650427, Control_c, 0, 64, 61
1, 650442, Control_c, 0, 64, 63
1, 650457, Control_c, 0, 64, 64
1, 650471, Control_c, 0, 64, 65
1, 650486, Control_c, 0, 64, 66
1, 650501, Control_c, 0, 64, 68
1, 650515, Control_c, 0, 64, 69
1, 650530, Control_c, 0, 64, 70
1, 650545, Control_c, 0, 64, 72
1, 650561, Control_c, 0, 64, 74
1, 650576, Control_c, 0, 64, 76
1, 650591, Control_c, 0, 64, 79
1, 650606, Control_c, 0, 64, 81
1, 650614, Note_on_c, 0, 54, 38
1, 650620, Control_c, 0, 64, 85
1, 650643, Control_c, 0, 64, 88
1, 650657, Control_c, 0, 64, 91
1, 650672, Control_c, 0, 64, 94
1, 650687, Control_c, 0, 64, 96
1, 650702, Control_c, 0, 64, 98
1, 650717, Control_c, 0, 64, 100
1, 650732, Control_c, 0, 64, 101
1, 650747, Control_c, 0, 64, 102
1, 650762, Control_c, 0, 64, 103
1, 650765, Note_off_c, 0, 28, 38
1, 650776, Control_c, 0, 64, 104
1, 650791, Control_c, 0, 64, 107
1, 650803, Note_off_c, 0, 40, 40
1, 650806, Control_c, 0, 64, 111
1, 650820, Control_c, 0, 64, 113
1, 650835, Control_c, 0, 64, 114
1, 650890, Note_off_c, 0, 49, 41
1, 651016, Note_on_c, 0, 56, 40
1, 651113, Note_off_c, 0, 52, 35
1, 651131, Note_off_c, 0, 59, 35
1, 651206, Control_c, 0, 64, 114
1, 651220, Control_c, 0, 64, 113
1, 651250, Control_c, 0, 64, 112
1, 651265, Control_c, 0, 64, 112
1, 651265, Control_c, 0, 67, 125
1, 651280, Control_c, 0, 64, 111
1, 651280, Control_c, 0, 67, 121
1, 651294, Control_c, 0, 64, 111
1, 651294, Control_c, 0, 67, 117
1, 651309, Control_c, 0, 64, 110
1, 651309, Control_c, 0, 67, 113
1, 651324, Control_c, 0, 64, 110
1, 651324, Control_c, 0, 67, 108
1, 651338, Control_c, 0, 64, 109
1, 651338, Control_c, 0, 67, 102
1, 651353, Control_c, 0, 64, 108
1, 651353, Control_c, 0, 67, 97
1, 651370, Control_c, 0, 64, 108
1, 651370, Control_c, 0, 67, 92
1, 651391, Control_c, 0, 67, 87
1, 651406, Control_c, 0, 64, 107
1, 651406, Control_c, 0, 67, 83
1, 651421, Control_c, 0, 67, 80
1, 651436, Control_c, 0, 64, 107
1, 651436, Control_c, 0, 67, 77
1, 651450, Control_c, 0, 64, 106
1, 651450, Control_c, 0, 67, 75
1, 651465, Control_c, 0, 67, 73
1, 651480, Control_c, 0, 64, 106
1, 651480, Control_c, 0, 67, 71
1, 651495, Control_c, 0, 64, 105
1, 651495, Control_c, 0, 67, 70
1, 651510, Control_c, 0, 64, 104
1, 651510, Control_c, 0, 67, 67
1, 651524, Note_on_c, 0, 57, 60
1, 651525, Control_c, 0, 64, 103
1, 651525, Control_c, 0, 67, 63
1, 651540, Control_c, 0, 64, 100
1, 651540, Control_c, 0, 67, 56
1, 651555, Control_c, 0, 64, 95
1, 651555, Control_c, 0, 67, 52
1, 651569, Control_c, 0, 64, 92
1, 651569, Control_c, 0, 67, 49
1, 651581, Note_off_c, 0, 54, 30
1, 651584, Control_c, 0, 64, 90
1, 651584, Control_c, 0, 67, 46
1, 651599, Control_c, 0, 67, 43
1, 651614, Control_c, 0, 67, 38
1, 651629, Control_c, 0, 67, 33
1, 651639, Note_off_c, 0, 56, 0
1, 651643, Control_c, 0, 67, 28
1, 651658, Control_c, 0, 64, 91
1, 651658, Control_c, 0, 67, 25
1, 651673, Control_c, 0, 64, 91
1, 651673, Control_c, 0, 67, 21
1, 651677, Poly_aftertouch_c, 0, 56, 127
1, 651688, Control_c, 0, 64, 92
1, 651688, Control_c, 0, 67, 17
1, 651703, Control_c, 0, 64, 92
1, 651703, Control_c, 0, 67, 12
1, 651717, Control_c, 0, 67, 0
1, 651762, Control_c, 0, 64, 93
1, 651805, Poly_aftertouch_c, 0, 56, 0
1, 651901, Note_on_c, 0, 52, 35
1, 652088, Control_c, 0, 64, 92
1, 652103, Control_c, 0, 64, 92
1, 652117, Control_c, 0, 64, 91
1, 652132, Control_c, 0, 64, 91
1, 652169, Control_c, 0, 64, 90
1, 652179, Note_on_c, 0, 59, 44
1, 652199, Control_c, 0, 64, 90
1, 652214, Control_c, 0, 64, 89
1, 652229, Control_c, 0, 64, 89
1, 652244, Control_c, 0, 64, 88
1, 652259, Control_c, 0, 64, 88
1, 652273, Control_c, 0, 64, 86
1, 652279, Note_off_c, 0, 52, 32
1, 652288, Control_c, 0, 64, 85
1, 652303, Control_c, 0, 64, 84
1, 652318, Control_c, 0, 64, 83
1, 652333, Control_c, 0, 64, 83
1, 652348, Control_c, 0, 64, 82
1, 652362, Control_c, 0, 64, 82
1, 652407, Control_c, 0, 64, 81
1, 652422, Control_c, 0, 64, 81
1, 652452, Control_c, 0, 64, 80
1, 652466, Control_c, 0, 64, 79
1, 652467, Note_on_c, 0, 56, 55
1, 652481, Control_c, 0, 64, 78
1, 652496, Control_c, 0, 64, 75
1, 652503, Note_off_c, 0, 57, 52
1, 652511, Control_c, 0, 64, 72
1, 652526, Control_c, 0, 64, 69
1, 652540, Control_c, 0, 64, 66
1, 652555, Control_c, 0, 64, 65
1, 652570, Control_c, 0, 64, 65
1, 652585, Control_c, 0, 64, 67
1, 652599, Control_c, 0, 64, 67
1, 652614, Control_c, 0, 64, 68
1, 652614, Control_c, 0, 67, 8
1, 652629, Control_c, 0, 64, 70
1, 652629, Control_c, 0, 67, 9
1, 652644, Control_c, 0, 64, 72
1, 652644, Control_c, 0, 67, 11
1, 652659, Control_c, 0, 64, 74
1, 652659, Control_c, 0, 67, 12
1, 652673, Control_c, 0, 64, 76
1, 652673, Control_c, 0, 67, 13
1, 652688, Control_c, 0, 64, 78
1, 652688, Control_c, 0, 67, 15
1, 652703, Control_c, 0, 64, 80
1, 652703, Control_c, 0, 67, 16
1, 652718, Control_c, 0, 64, 81
1, 652718, Control_c, 0, 67, 17
1, 652733, Control_c, 0, 64, 83
1, 652733, Control_c, 0, 67, 20
1, 652747, Control_c, 0, 64, 85
1, 652747, Control_c, 0, 67, 23
1, 652762, Control_c, 0, 64, 87
1, 652762, Control_c, 0, 67, 25
1, 652768, Note_on_c, 0, 51, 36
1, 652777, Control_c, 0, 64, 88
1, 652777, Control_c, 0, 67, 28
1, 652792, Control_c, 0, 67, 29
1, 652807, Control_c, 0, 67, 30
1, 652822, Control_c, 0, 67, 33
1, 652825, Note_off_c, 0, 59, 35
1, 652836, Control_c, 0, 67, 36
1, 652851, Control_c, 0, 67, 38
1, 652866, Control_c, 0, 67, 40
1, 652881, Control_c, 0, 67, 41
1, 652903, Control_c, 0, 67, 42
1, 652917, Control_c, 0, 67, 42
1, 652932, Control_c, 0, 67, 43
1, 652947, Control_c, 0, 67, 44
1, 652963, Control_c, 0, 67, 46
1, 652978, Control_c, 0, 67, 47
1, 652993, Control_c, 0, 67, 48
1, 653008, Control_c, 0, 67, 49
1, 653022, Control_c, 0, 67, 49
1, 653031, Note_on_c, 0, 59, 42
1, 653037, Control_c, 0, 67, 50
1, 653052, Control_c, 0, 67, 50
1, 653067, Control_c, 0, 67, 51
1, 653082, Control_c, 0, 67, 53
1, 653096, Control_c, 0, 67, 54
1, 653111, Control_c, 0, 67, 55
1, 653126, Control_c, 0, 64, 88
1, 653126, Control_c, 0, 67, 56
1, 653141, Control_c, 0, 64, 87
1, 653141, Control_c, 0, 67, 57
1, 653156, Control_c, 0, 67, 58
1, 653170, Control_c, 0, 64, 87
1, 653170, Control_c, 0, 67, 59
1, 653185, Control_c, 0, 64, 86
1, 653185, Control_c, 0, 67, 60
1, 653200, Control_c, 0, 64, 86
1, 653200, Control_c, 0, 67, 62
1, 653215, Control_c, 0, 64, 85
1, 653215, Control_c, 0, 67, 63
1, 653230, Control_c, 0, 64, 85
1, 653230, Control_c, 0, 67, 64
1, 653245, Control_c, 0, 64, 83
1, 653245, Control_c, 0, 67, 65
1, 653260, Control_c, 0, 64, 81
1, 653260, Control_c, 0, 67, 66
1, 653270, Note_off_c, 0, 51, 35
1, 653275, Control_c, 0, 64, 78
1, 653275, Control_c, 0, 67, 67
1, 653284, Note_on_c, 0, 54, 63
1, 653289, Control_c, 0, 64, 75
1, 653289, Control_c, 0, 67, 68
1, 653304, Control_c, 0, 64, 72
1, 653304, Control_c, 0, 67, 69
1, 653319, Control_c, 0, 64, 71
1, 653319, Control_c, 0, 67, 70
1, 653333, Control_c, 0, 67, 71
1, 653348, Control_c, 0, 64, 72
1, 653348, Control_c, 0, 67, 72
1, 653363, Control_c, 0, 64, 73
1, 653363, Control_c, 0, 67, 73
1, 653378, Control_c, 0, 64, 75
1, 653378, Control_c, 0, 67, 73
1, 653393, Control_c, 0, 64, 76
1, 653408, Control_c, 0, 64, 77
1, 653408, Control_c, 0, 67, 74
1, 653422, Control_c, 0, 64, 78
1, 653437, Control_c, 0, 64, 78
1, 653452, Control_c, 0, 64, 79
1, 653467, Control_c, 0, 64, 80
1, 653467, Control_c, 0, 67, 74
1, 653482, Control_c, 0, 64, 80
1, 653483, Note_off_c, 0, 56, 41
1, 653510, Control_c, 0, 64, 81
1, 653525, Control_c, 0, 64, 81
1, 653525, Control_c, 0, 67, 75
1, 653534, Note_on_c, 0, 49, 42
1, 653540, Control_c, 0, 64, 83
1, 653555, Control_c, 0, 64, 83
1, 653570, Control_c, 0, 64, 84
1, 653570, Control_c, 0, 67, 75
1, 653585, Control_c, 0, 67, 76
1, 653600, Control_c, 0, 67, 78
1, 653607, Note_off_c, 0, 59, 34
1, 653614, Control_c, 0, 67, 79
1, 653629, Control_c, 0, 67, 80
1, 653651, Control_c, 0, 67, 80
1, 653666, Control_c, 0, 67, 81
1, 653695, Control_c, 0, 67, 81
1, 653710, Control_c, 0, 67, 82
1, 653725, Control_c, 0, 67, 82
1, 653740, Control_c, 0, 67, 83
1, 653755, Control_c, 0, 67, 84
1, 653770, Control_c, 0, 67, 84
1, 653785, Control_c, 0, 67, 85
1, 653800, Control_c, 0, 67, 86
1, 653815, Control_c, 0, 67, 86
1, 653827, Note_on_c, 0, 59, 41
1, 653830, Control_c, 0, 67, 87
1, 653844, Control_c, 0, 67, 88
1, 653859, Control_c, 0, 67, 89
1, 653874, Control_c, 0, 67, 90
1, 653889, Control_c, 0, 67, 90
1, 653904, Control_c, 0, 67, 91
1, 653919, Control_c, 0, 67, 92
1, 653933, Control_c, 0, 67, 93
1, 653940, Note_off_c, 0, 49, 38
1, 653948, Control_c, 0, 67, 93
1, 653963, Control_c, 0, 67, 94
1, 653978, Control_c, 0, 67, 95
1, 653993, Control_c, 0, 67, 96
1, 654023, Control_c, 0, 67, 96
1, 654037, Control_c, 0, 64, 84
1, 654037, Control_c, 0, 67, 97
1, 654052, Control_c, 0, 64, 83
1, 654067, Control_c, 0, 64, 83
1, 654067, Control_c, 0, 67, 97
1, 654082, Control_c, 0, 67, 98
1, 654097, Control_c, 0, 64, 82
1, 654111, Control_c, 0, 64, 82
1, 654111, Control_c, 0, 67, 98
1, 654126, Control_c, 0, 64, 81
1, 654126, Control_c, 0, 67, 99
1, 654141, Control_c, 0, 64, 81
1, 654156, Control_c, 0, 64, 80
1, 654156, Control_c, 0, 67, 99
1, 654158, Note_on_c, 0, 52, 59
1, 654171, Control_c, 0, 64, 79
1, 654171, Control_c, 0, 67, 100
1, 654186, Control_c, 0, 64, 78
1, 654201, Control_c, 0, 64, 77
1, 654201, Control_c, 0, 67, 100
1, 654216, Control_c, 0, 64, 76
1, 654230, Control_c, 0, 64, 75
1, 654230, Control_c, 0, 67, 101
1, 654245, Control_c, 0, 64, 74
1, 654259, Control_c, 0, 64, 73
1, 654259, Control_c, 0, 67, 101
1, 654274, Control_c, 0, 64, 72
1, 654289, Control_c, 0, 64, 71
1, 654289, Control_c, 0, 67, 102
1, 654303, Control_c, 0, 64, 70
1, 654318, Control_c, 0, 64, 69
1, 654318, Control_c, 0, 67, 102
1, 654333, Control_c, 0, 67, 103
1, 654363, Control_c, 0, 67, 103
1, 654378, Control_c, 0, 67, 104
1, 654400, Control_c, 0, 67, 104
1, 654430, Control_c, 0, 67, 105
1, 654444, Control_c, 0, 67, 105
1, 654449, Note_off_c, 0, 54, 33
1, 654459, Control_c, 0, 64, 69
1, 654474, Control_c, 0, 67, 106
1, 654489, Control_c, 0, 67, 106
1, 654499, Note_on_c, 0, 57, 40
1, 654504, Control_c, 0, 67, 107
1, 654518, Control_c, 0, 67, 107
1, 654533, Control_c, 0, 67, 108
1, 654548, Control_c, 0, 67, 109
1, 654564, Control_c, 0, 67, 110
1, 654579, Control_c, 0, 67, 110
1, 654593, Control_c, 0, 64, 69
1, 654593, Control_c, 0, 67, 111
1, 654601, Note_off_c, 0, 59, 44
1, 654608, Control_c, 0, 67, 112
1, 654623, Control_c, 0, 67, 113
1, 654638, Control_c, 0, 67, 113
1, 654653, Control_c, 0, 67, 114
1, 654667, Control_c, 0, 67, 115
1, 654682, Control_c, 0, 67, 115
1, 654697, Control_c, 0, 67, 116
1, 654712, Control_c, 0, 64, 70
1, 654712, Control_c, 0, 67, 116
1, 654741, Control_c, 0, 64, 70
1, 654741, Control_c, 0, 67, 117
1, 654756, Control_c, 0, 64, 71
1, 654756, Control_c, 0, 67, 117
1, 654771, Control_c, 0, 64, 72
1, 654777, Note_on_c, 0, 59, 40
1, 654786, Control_c, 0, 64, 73
1, 654786, Control_c, 0, 67, 118
1, 654801, Control_c, 0, 64, 74
1, 654801, Control_c, 0, 67, 118
1, 654816, Control_c, 0, 64, 74
1, 654816, Control_c, 0, 67, 119
1, 654831, Control_c, 0, 64, 75
1, 654831, Control_c, 0, 67, 119
1, 654846, Control_c, 0, 64, 76
1, 654846, Control_c, 0, 67, 120
1, 654860, Control_c, 0, 64, 77
1, 654875, Control_c, 0, 64, 78
1, 654875, Control_c, 0, 67, 121
1, 654890, Control_c, 0, 64, 78
1, 654890, Control_c, 0, 67, 121
1, 654905, Control_c, 0, 67, 122
1, 654920, Control_c, 0, 67, 122
1, 654934, Control_c, 0, 67, 123
1, 654949, Control_c, 0, 67, 123
1, 654964, Control_c, 0, 67, 124
1, 654979, Control_c, 0, 67, 125
1, 654993, Control_c, 0, 64, 78
1, 654993, Control_c, 0, 67, 126
1, 655009, Control_c, 0, 67, 126
1, 655024, Control_c, 0, 64, 77
1, 655024, Control_c, 0, 67, 127
1, 655039, Control_c, 0, 64, 77
1, 655039, Control_c, 0, 67, 127
1, 655052, Note_on_c, 0, 51, 61
1, 655068, Control_c, 0, 64, 76
1, 655081, Note_off_c, 0, 57, 21
1, 655083, Control_c, 0, 64, 75
1, 655098, Control_c, 0, 64, 74
1, 655100, Note_off_c, 0, 52, 55
1, 655112, Control_c, 0, 64, 73
1, 655135, Control_c, 0, 64, 72
1, 655150, Control_c, 0, 64, 72
1, 655179, Control_c, 0, 64, 71
1, 655224, Control_c, 0, 64, 71
1, 655268, Control_c, 0, 64, 70
1, 655337, Note_on_c, 0, 56, 44
1, 655342, Control_c, 0, 64, 70
1, 655373, Control_c, 0, 64, 69
1, 655417, Control_c, 0, 64, 69
1, 655421, Note_off_c, 0, 59, 48
1, 655506, Control_c, 0, 64, 68
1, 655609, Control_c, 0, 64, 69
1, 655624, Note_on_c, 0, 59, 42
1, 655654, Control_c, 0, 64, 69
1, 655698, Control_c, 0, 64, 70
1, 655713, Control_c, 0, 64, 70
1, 655758, Control_c, 0, 64, 71
1, 655847, Control_c, 0, 64, 70
1, 655913, Control_c, 0, 64, 70
1, 655926, Note_on_c, 0, 49, 60
1, 655943, Control_c, 0, 64, 69
1, 655987, Control_c, 0, 64, 69
1, 656002, Control_c, 0, 64, 68
1, 656032, Control_c, 0, 64, 68
1, 656057, Note_off_c, 0, 51, 38
1, 656062, Control_c, 0, 64, 67
1, 656091, Control_c, 0, 64, 67
1, 656135, Control_c, 0, 64, 66
1, 656181, Control_c, 0, 64, 66
1, 656240, Control_c, 0, 64, 65
1, 656267, Note_on_c, 0, 54, 41
1, 656285, Control_c, 0, 64, 65
1, 656344, Control_c, 0, 64, 64
1, 656377, Note_off_c, 0, 59, 28
1, 656521, Control_c, 0, 64, 65
1, 656591, Note_on_c, 0, 59, 41
1, 656595, Control_c, 0, 64, 65
1, 656647, Control_c, 0, 64, 66
1, 656707, Control_c, 0, 64, 66
1, 656736, Control_c, 0, 64, 67
1, 656944, Control_c, 0, 64, 66
1, 656969, Note_on_c, 0, 47, 49
1, 656974, Control_c, 0, 64, 66
1, 657004, Control_c, 0, 64, 65
1, 657034, Control_c, 0, 64, 65
1, 657063, Control_c, 0, 64, 64
1, 657078, Control_c, 0, 64, 64
1, 657093, Control_c, 0, 64, 63
1, 657108, Control_c, 0, 64, 63
1, 657123, Control_c, 0, 64, 62
1, 657137, Control_c, 0, 64, 62
1, 657152, Control_c, 0, 64, 61
1, 657230, Note_off_c, 0, 49, 24
1, 657329, Control_c, 0, 64, 62
1, 657344, Control_c, 0, 64, 62
1, 657359, Control_c, 0, 64, 63
1, 657374, Control_c, 0, 64, 63
1, 657396, Control_c, 0, 64, 64
1, 657411, Control_c, 0, 64, 64
1, 657418, Note_on_c, 0, 52, 35
1, 657441, Control_c, 0, 64, 65
1, 657456, Control_c, 0, 64, 66
1, 657470, Control_c, 0, 64, 66
1, 657485, Control_c, 0, 64, 67
1, 657500, Control_c, 0, 64, 67
1, 657514, Control_c, 0, 64, 68
1, 657529, Control_c, 0, 64, 69
1, 657544, Control_c, 0, 64, 69
1, 657559, Control_c, 0, 64, 70
1, 657574, Control_c, 0, 64, 71
1, 657588, Control_c, 0, 64, 72
1, 657603, Control_c, 0, 64, 72
1, 657618, Control_c, 0, 64, 73
1, 657633, Control_c, 0, 64, 74
1, 657648, Control_c, 0, 64, 75
1, 657663, Control_c, 0, 64, 76
1, 657677, Control_c, 0, 64, 77
1, 657692, Control_c, 0, 64, 79
1, 657696, Note_off_c, 0, 59, 33
1, 657707, Control_c, 0, 64, 81
1, 657722, Control_c, 0, 64, 82
1, 657737, Control_c, 0, 64, 83
1, 657826, Control_c, 0, 64, 82
1, 657841, Control_c, 0, 64, 82
1, 657856, Control_c, 0, 64, 81
1, 657886, Control_c, 0, 64, 81
1, 657901, Control_c, 0, 64, 80
1, 657916, Control_c, 0, 64, 79
1, 657930, Control_c, 0, 64, 78
1, 657941, Note_on_c, 0, 45, 43
1, 657945, Control_c, 0, 64, 77
1, 657948, Note_on_c, 0, 59, 35
1, 657960, Control_c, 0, 64, 76
1, 657975, Control_c, 0, 64, 74
1, 657990, Control_c, 0, 64, 72
1, 658004, Control_c, 0, 64, 69
1, 658012, Note_off_c, 0, 47, 32
1, 658019, Control_c, 0, 64, 67
1, 658034, Control_c, 0, 64, 65
1, 658049, Control_c, 0, 64, 64
1, 658064, Control_c, 0, 64, 63
1, 658078, Control_c, 0, 64, 63
1, 658093, Control_c, 0, 64, 60
1, 658108, Control_c, 0, 64, 55
1, 658123, Control_c, 0, 64, 50
1, 658145, Control_c, 0, 64, 49
1, 658160, Control_c, 0, 64, 50
1, 658175, Control_c, 0, 64, 51
1, 658190, Control_c, 0, 64, 53
1, 658205, Control_c, 0, 64, 57
1, 658219, Control_c, 0, 64, 61
1, 658234, Control_c, 0, 64, 63
1, 658249, Control_c, 0, 64, 65
1, 658264, Control_c, 0, 64, 66
1, 658279, Control_c, 0, 64, 66
1, 658293, Control_c, 0, 64, 68
1, 658308, Control_c, 0, 64, 70
1, 658323, Control_c, 0, 64, 73
1, 658337, Control_c, 0, 64, 76
1, 658352, Control_c, 0, 64, 78
1, 658367, Control_c, 0, 64, 79
1, 658382, Control_c, 0, 64, 81
1, 658387, Note_off_c, 0, 56, 36
1, 658397, Control_c, 0, 64, 83
1, 658411, Control_c, 0, 64, 85
1, 658426, Control_c, 0, 64, 86
1, 658441, Control_c, 0, 64, 87
1, 658485, Control_c, 0, 64, 87
1, 658524, Note_off_c, 0, 54, 40
1, 658694, Control_c, 0, 64, 87
1, 658724, Control_c, 0, 64, 86
1, 658739, Control_c, 0, 64, 86
1, 658753, Control_c, 0, 64, 85
1, 658768, Control_c, 0, 64, 85
1, 658783, Control_c, 0, 64, 84
1, 658813, Control_c, 0, 64, 84
1, 658827, Control_c, 0, 64, 83
1, 658842, Control_c, 0, 64, 82
1, 658857, Control_c, 0, 64, 81
1, 658879, Control_c, 0, 64, 81
1, 658891, Note_off_c, 0, 45, 42
1, 658894, Control_c, 0, 64, 79
1, 658898, Note_on_c, 0, 56, 29
1, 658909, Control_c, 0, 64, 78
1, 658923, Control_c, 0, 64, 76
1, 658938, Control_c, 0, 64, 74
1, 658939, Note_on_c, 0, 44, 29
1, 658939, Note_on_c, 0, 51, 16
1, 658953, Control_c, 0, 64, 70
1, 658957, Note_on_c, 0, 47, 22
1, 658968, Control_c, 0, 64, 67
1, 658983, Control_c, 0, 64, 64
1, 658998, Control_c, 0, 64, 60
1, 659013, Control_c, 0, 64, 55
1, 659028, Control_c, 0, 64, 51
1, 659042, Control_c, 0, 64, 49
1, 659057, Control_c, 0, 64, 46
1, 659072, Control_c, 0, 64, 44
1, 659086, Control_c, 0, 64, 41
1, 659101, Control_c, 0, 64, 38
1, 659116, Control_c, 0, 64, 37
1, 659131, Control_c, 0, 64, 36
1, 659146, Control_c, 0, 64, 36
1, 659517, Control_c, 0, 64, 35
1, 659532, Control_c, 0, 64, 34
1, 659546, Control_c, 0, 64, 33
1, 659576, Control_c, 0, 64, 30
1, 659591, Control_c, 0, 64, 24
1, 659606, Control_c, 0, 64, 0
1, 659998, Control_c, 0, 64, 19
1, 660013, Control_c, 0, 64, 32
1, 660028, Control_c, 0, 64, 42
1, 660043, Control_c, 0, 64, 49
1, 660057, Control_c, 0, 64, 56
1, 660072, Control_c, 0, 64, 59
1, 660087, Control_c, 0, 64, 62
1, 660101, Control_c, 0, 64, 64
1, 660116, Control_c, 0, 64, 65
1, 660131, Control_c, 0, 64, 66
1, 660146, Control_c, 0, 64, 68
1, 660162, Control_c, 0, 64, 71
1, 660177, Control_c, 0, 64, 73
1, 660192, Control_c, 0, 64, 75
1, 660206, Control_c, 0, 64, 76
1, 660221, Control_c, 0, 64, 79
1, 660236, Control_c, 0, 64, 81
1, 660251, Control_c, 0, 64, 83
1, 660266, Control_c, 0, 64, 84
1, 660280, Control_c, 0, 64, 85
1, 660295, Control_c, 0, 64, 86
1, 660310, Control_c, 0, 64, 86
1, 660421, Control_c, 0, 64, 87
1, 660436, Control_c, 0, 67, 119
1, 660451, Control_c, 0, 67, 106
1, 660466, Control_c, 0, 67, 92
1, 660480, Control_c, 0, 67, 82
1, 660495, Control_c, 0, 67, 74
1, 660510, Control_c, 0, 67, 67
1, 660525, Control_c, 0, 67, 56
1, 660539, Control_c, 0, 67, 46
1, 660554, Control_c, 0, 67, 37
1, 660567, Note_off_c, 0, 52, 31
1, 660569, Control_c, 0, 67, 29
1, 660584, Control_c, 0, 67, 21
1, 660599, Control_c, 0, 67, 12
1, 660602, Note_off_c, 0, 59, 28
1, 660614, Control_c, 0, 67, 0
1, 660628, Note_off_c, 0, 51, 34
1, 660792, Control_c, 0, 64, 86
1, 660836, Control_c, 0, 64, 86
1, 660880, Control_c, 0, 64, 85
1, 660910, Control_c, 0, 64, 85
1, 660939, Control_c, 0, 64, 84
1, 660970, Control_c, 0, 64, 84
1, 661000, Control_c, 0, 64, 83
1, 661029, Control_c, 0, 64, 83
1, 661044, Control_c, 0, 64, 82
1, 661059, Control_c, 0, 64, 82
1, 661074, Control_c, 0, 64, 81
1, 661089, Control_c, 0, 64, 80
1, 661103, Control_c, 0, 64, 79
1, 661118, Control_c, 0, 64, 78
1, 661120, Note_off_c, 0, 47, 23
1, 661131, Note_on_c, 0, 59, 45
1, 661134, Note_on_c, 0, 57, 38
1, 661141, Control_c, 0, 64, 77
1, 661144, Note_on_c, 0, 52, 40
1, 661145, Note_on_c, 0, 49, 29
1, 661150, Note_on_c, 0, 42, 32
1, 661155, Control_c, 0, 64, 76
1, 661170, Control_c, 0, 64, 75
1, 661185, Control_c, 0, 64, 73
1, 661200, Control_c, 0, 64, 72
1, 661205, Note_off_c, 0, 44, 5
1, 661215, Control_c, 0, 64, 69
1, 661229, Control_c, 0, 64, 67
1, 661244, Control_c, 0, 64, 65
1, 661259, Control_c, 0, 64, 64
1, 661274, Control_c, 0, 64, 63
1, 661289, Control_c, 0, 64, 61
1, 661301, Note_off_c, 0, 56, 37
1, 661303, Control_c, 0, 64, 59
1, 661318, Control_c, 0, 64, 56
1, 661333, Control_c, 0, 64, 50
1, 661348, Control_c, 0, 64, 46
1, 661362, Control_c, 0, 64, 43
1, 661377, Control_c, 0, 64, 41
1, 661392, Control_c, 0, 64, 38
1, 661407, Control_c, 0, 64, 36
1, 661422, Control_c, 0, 64, 33
1, 661436, Control_c, 0, 64, 29
1, 661451, Control_c, 0, 64, 27
1, 661466, Control_c, 0, 64, 24
1, 661481, Control_c, 0, 64, 21
1, 661496, Control_c, 0, 64, 19
1, 661526, Control_c, 0, 64, 17
1, 661526, Control_c, 0, 67, 8
1, 661541, Control_c, 0, 67, 8
1, 661555, Control_c, 0, 64, 14
1, 661555, Control_c, 0, 67, 9
1, 661570, Control_c, 0, 67, 9
1, 661585, Control_c, 0, 67, 10
1, 661600, Control_c, 0, 67, 11
1, 661615, Control_c, 0, 67, 11
1, 661629, Control_c, 0, 67, 12
1, 661644, Control_c, 0, 67, 13
1, 661659, Control_c, 0, 67, 14
1, 661673, Control_c, 0, 67, 15
1, 661688, Control_c, 0, 67, 15
1, 661703, Control_c, 0, 67, 16
1, 661718, Control_c, 0, 67, 18
1, 661733, Control_c, 0, 67, 19
1, 661749, Control_c, 0, 67, 19
1, 661764, Control_c, 0, 67, 20
1, 661794, Control_c, 0, 67, 20
1, 661809, Control_c, 0, 67, 21
1, 661824, Control_c, 0, 67, 21
1, 661839, Control_c, 0, 67, 22
1, 661853, Control_c, 0, 67, 23
1, 661868, Control_c, 0, 67, 24
1, 661890, Control_c, 0, 64, 17
1, 661890, Control_c, 0, 67, 25
1, 661904, Control_c, 0, 67, 26
1, 661919, Control_c, 0, 64, 19
1, 661919, Control_c, 0, 67, 27
1, 661934, Control_c, 0, 64, 21
1, 661934, Control_c, 0, 67, 28
1, 661949, Control_c, 0, 64, 23
1, 661949, Control_c, 0, 67, 29
1, 661964, Control_c, 0, 67, 30
1, 661979, Control_c, 0, 64, 24
1, 661979, Control_c, 0, 67, 30
1, 661994, Control_c, 0, 64, 26
1, 661994, Control_c, 0, 67, 31
1, 662009, Control_c, 0, 64, 27
1, 662009, Control_c, 0, 67, 32
1, 662024, Control_c, 0, 64, 28
1, 662024, Control_c, 0, 67, 33
1, 662039, Control_c, 0, 64, 29
1, 662039, Control_c, 0, 67, 34
1, 662053, Control_c, 0, 64, 30
1, 662053, Control_c, 0, 67, 34
1, 662068, Control_c, 0, 64, 31
1, 662068, Control_c, 0, 67, 35
1, 662083, Control_c, 0, 64, 32
1, 662083, Control_c, 0, 67, 36
1, 662098, Control_c, 0, 64, 33
1, 662098, Control_c, 0, 67, 37
1, 662112, Control_c, 0, 64, 34
1, 662112, Control_c, 0, 67, 38
1, 662127, Control_c, 0, 64, 36
1, 662127, Control_c, 0, 67, 40
1, 662142, Control_c, 0, 64, 36
1, 662142, Control_c, 0, 67, 41
1, 662157, Control_c, 0, 64, 37
1, 662157, Control_c, 0, 67, 43
1, 662172, Control_c, 0, 64, 38
1, 662172, Control_c, 0, 67, 44
1, 662186, Control_c, 0, 64, 38
1, 662186, Control_c, 0, 67, 46
1, 662201, Control_c, 0, 64, 39
1, 662201, Control_c, 0, 67, 47
1, 662216, Control_c, 0, 64, 40
1, 662216, Control_c, 0, 67, 48
1, 662231, Control_c, 0, 64, 41
1, 662231, Control_c, 0, 67, 49
1, 662246, Control_c, 0, 64, 42
1, 662246, Control_c, 0, 67, 50
1, 662260, Control_c, 0, 64, 42
1, 662260, Control_c, 0, 67, 51
1, 662275, Control_c, 0, 64, 43
1, 662275, Control_c, 0, 67, 52
1, 662290, Control_c, 0, 64, 43
1, 662290, Control_c, 0, 67, 54
1, 662304, Control_c, 0, 64, 44
1, 662304, Control_c, 0, 67, 55
1, 662319, Control_c, 0, 64, 45
1, 662319, Control_c, 0, 67, 56
1, 662334, Control_c, 0, 64, 45
1, 662334, Control_c, 0, 67, 57
1, 662349, Control_c, 0, 64, 46
1, 662349, Control_c, 0, 67, 58
1, 662364, Control_c, 0, 64, 46
1, 662364, Control_c, 0, 67, 59
1, 662378, Control_c, 0, 64, 47
1, 662378, Control_c, 0, 67, 60
1, 662393, Control_c, 0, 64, 47
1, 662393, Control_c, 0, 67, 62
1, 662408, Control_c, 0, 64, 49
1, 662408, Control_c, 0, 67, 63
1, 662423, Control_c, 0, 64, 49
1, 662423, Control_c, 0, 67, 64
1, 662438, Control_c, 0, 64, 50
1, 662438, Control_c, 0, 67, 66
1, 662453, Control_c, 0, 64, 51
1, 662453, Control_c, 0, 67, 67
1, 662468, Control_c, 0, 64, 52
1, 662468, Control_c, 0, 67, 68
1, 662483, Control_c, 0, 64, 53
1, 662483, Control_c, 0, 67, 69
1, 662496, Control_c, 0, 64, 54
1, 662496, Control_c, 0, 67, 70
1, 662511, Control_c, 0, 64, 54
1, 662511, Control_c, 0, 67, 72
1, 662526, Control_c, 0, 64, 56
1, 662526, Control_c, 0, 67, 73
1, 662542, Control_c, 0, 64, 57
1, 662542, Control_c, 0, 67, 75
1, 662557, Control_c, 0, 64, 58
1, 662557, Control_c, 0, 67, 76
1, 662572, Control_c, 0, 64, 58
1, 662572, Control_c, 0, 67, 77
1, 662587, Control_c, 0, 64, 59
1, 662587, Control_c, 0, 67, 78
1, 662601, Control_c, 0, 64, 59
1, 662601, Control_c, 0, 67, 80
1, 662623, Control_c, 0, 64, 60
1, 662623, Control_c, 0, 67, 81
1, 662638, Control_c, 0, 64, 61
1, 662638, Control_c, 0, 67, 83
1, 662653, Control_c, 0, 64, 62
1, 662653, Control_c, 0, 67, 84
1, 662668, Control_c, 0, 64, 63
1, 662668, Control_c, 0, 67, 86
1, 662682, Control_c, 0, 64, 63
1, 662682, Control_c, 0, 67, 87
1, 662697, Control_c, 0, 67, 88
1, 662712, Control_c, 0, 64, 64
1, 662712, Control_c, 0, 67, 90
1, 662727, Control_c, 0, 64, 65
1, 662727, Control_c, 0, 67, 92
1, 662742, Control_c, 0, 64, 65
1, 662742, Control_c, 0, 67, 93
1, 662757, Control_c, 0, 64, 66
1, 662757, Control_c, 0, 67, 95
1, 662772, Control_c, 0, 64, 67
1, 662772, Control_c, 0, 67, 96
1, 662787, Control_c, 0, 64, 67
1, 662787, Control_c, 0, 67, 98
1, 662801, Control_c, 0, 64, 68
1, 662801, Control_c, 0, 67, 100
1, 662816, Control_c, 0, 64, 69
1, 662816, Control_c, 0, 67, 102
1, 662831, Control_c, 0, 64, 70
1, 662831, Control_c, 0, 67, 103
1, 662846, Control_c, 0, 64, 71
1, 662846, Control_c, 0, 67, 105
1, 662861, Control_c, 0, 64, 71
1, 662861, Control_c, 0, 67, 106
1, 662875, Control_c, 0, 64, 72
1, 662875, Control_c, 0, 67, 107
1, 662890, Control_c, 0, 64, 73
1, 662890, Control_c, 0, 67, 108
1, 662905, Control_c, 0, 64, 74
1, 662905, Control_c, 0, 67, 109
1, 662920, Control_c, 0, 64, 75
1, 662920, Control_c, 0, 67, 110
1, 662934, Control_c, 0, 64, 76
1, 662934, Control_c, 0, 67, 111
1, 662949, Control_c, 0, 64, 77
1, 662949, Control_c, 0, 67, 112
1, 662964, Control_c, 0, 64, 77
1, 662964, Control_c, 0, 67, 113
1, 662979, Control_c, 0, 64, 79
1, 662979, Control_c, 0, 67, 113
1, 662994, Control_c, 0, 64, 80
1, 662994, Control_c, 0, 67, 114
1, 663008, Control_c, 0, 64, 82
1, 663008, Control_c, 0, 67, 115
1, 663023, Control_c, 0, 64, 83
1, 663023, Control_c, 0, 67, 116
1, 663038, Control_c, 0, 64, 83
1, 663038, Control_c, 0, 67, 117
1, 663053, Control_c, 0, 64, 84
1, 663053, Control_c, 0, 67, 118
1, 663068, Control_c, 0, 64, 85
1, 663068, Control_c, 0, 67, 119
1, 663082, Control_c, 0, 64, 86
1, 663082, Control_c, 0, 67, 120
1, 663097, Control_c, 0, 64, 87
1, 663097, Control_c, 0, 67, 121
1, 663112, Control_c, 0, 67, 122
1, 663127, Control_c, 0, 64, 88
1, 663127, Control_c, 0, 67, 123
1, 663141, Control_c, 0, 67, 124
1, 663156, Control_c, 0, 67, 126
1, 663171, Control_c, 0, 67, 127
1, 663186, Control_c, 0, 67, 127
1, 663387, Control_c, 0, 64, 87
1, 663396, Note_off_c, 0, 57, 32
1, 663417, Control_c, 0, 64, 87
1, 663431, Control_c, 0, 64, 86
1, 663446, Control_c, 0, 64, 86
1, 663476, Control_c, 0, 64, 85
1, 663491, Control_c, 0, 64, 85
1, 663505, Control_c, 0, 64, 84
1, 663520, Control_c, 0, 64, 84
1, 663550, Control_c, 0, 64, 83
1, 663580, Control_c, 0, 64, 83
1, 663595, Control_c, 0, 64, 82
1, 663624, Control_c, 0, 64, 82
1, 663639, Control_c, 0, 64, 81
1, 663654, Control_c, 0, 64, 81
1, 663668, Control_c, 0, 64, 80
1, 663698, Control_c, 0, 64, 80
1, 663713, Control_c, 0, 64, 79
1, 663787, Control_c, 0, 64, 79
1, 663805, Note_on_c, 0, 58, 33
1, 663817, Control_c, 0, 64, 78
1, 663861, Control_c, 0, 64, 78
1, 663920, Control_c, 0, 64, 77
1, 663949, Control_c, 0, 64, 77
1, 663964, Control_c, 0, 64, 76
1, 663973, Note_off_c, 0, 49, 35
1, 663994, Control_c, 0, 64, 76
1, 664009, Control_c, 0, 64, 75
1, 664024, Control_c, 0, 64, 74
1, 664039, Control_c, 0, 64, 74
1, 664054, Control_c, 0, 64, 73
1, 664061, Note_off_c, 0, 42, 53
1, 664083, Control_c, 0, 64, 72
1, 664098, Control_c, 0, 64, 72
1, 664113, Control_c, 0, 64, 71
1, 664125, Note_on_c, 0, 57, 34
1, 664135, Control_c, 0, 64, 70
1, 664147, Note_on_c, 0, 48, 28
1, 664151, Control_c, 0, 64, 69
1, 664166, Control_c, 0, 64, 68
1, 664167, Note_on_c, 0, 41, 20
1, 664180, Control_c, 0, 64, 67
1, 664195, Control_c, 0, 64, 66
1, 664210, Control_c, 0, 64, 64
1, 664213, Note_off_c, 0, 58, 44
1, 664224, Note_off_c, 0, 59, 36
1, 664225, Control_c, 0, 64, 63
1, 664240, Control_c, 0, 64, 62
1, 664254, Control_c, 0, 64, 59
1, 664269, Control_c, 0, 64, 57
1, 664284, Control_c, 0, 64, 53
1, 664298, Control_c, 0, 64, 50
1, 664313, Control_c, 0, 64, 48
1, 664328, Control_c, 0, 64, 47
1, 664343, Control_c, 0, 64, 46
1, 664402, Control_c, 0, 64, 46
1, 664417, Control_c, 0, 64, 49
1, 664432, Control_c, 0, 64, 53
1, 664447, Control_c, 0, 64, 56
1, 664462, Control_c, 0, 64, 59
1, 664477, Control_c, 0, 64, 61
1, 664491, Control_c, 0, 64, 63
1, 664506, Control_c, 0, 64, 65
1, 664521, Control_c, 0, 64, 66
1, 664536, Control_c, 0, 64, 67
1, 664551, Control_c, 0, 64, 69
1, 664566, Control_c, 0, 64, 71
1, 664580, Control_c, 0, 64, 74
1, 664595, Control_c, 0, 64, 76
1, 664610, Control_c, 0, 64, 78
1, 664625, Control_c, 0, 64, 79
1, 664640, Control_c, 0, 64, 80
1, 664654, Control_c, 0, 64, 82
1, 664669, Control_c, 0, 64, 84
1, 664672, Note_off_c, 0, 52, 34
1, 664684, Control_c, 0, 64, 85
1, 664698, Control_c, 0, 64, 85
1, 664708, Note_off_c, 0, 48, 27
1, 664833, Control_c, 0, 64, 85
1, 664929, Control_c, 0, 64, 84
1, 664960, Control_c, 0, 64, 84
1, 665034, Control_c, 0, 64, 83
1, 665093, Control_c, 0, 64, 83
1, 665137, Control_c, 0, 64, 82
1, 665256, Control_c, 0, 64, 82
1, 665300, Control_c, 0, 64, 81
1, 665344, Control_c, 0, 64, 81
1, 665389, Control_c, 0, 64, 80
1, 665419, Control_c, 0, 64, 80
1, 665463, Control_c, 0, 64, 79
1, 665493, Control_c, 0, 64, 79
1, 665508, Control_c, 0, 64, 78
1, 665510, Note_on_c, 0, 59, 35
1, 665514, Note_on_c, 0, 56, 27
1, 665522, Control_c, 0, 64, 77
1, 665529, Note_on_c, 0, 52, 22
1, 665537, Control_c, 0, 64, 75
1, 665540, Note_off_c, 0, 41, 29
1, 665551, Note_on_c, 0, 40, 17
1, 665552, Control_c, 0, 64, 73
1, 665567, Control_c, 0, 64, 71
1, 665574, Poly_aftertouch_c, 0, 47, 127
1, 665582, Control_c, 0, 64, 68
1, 665596, Control_c, 0, 64, 66
1, 665611, Control_c, 0, 64, 64
1, 665633, Control_c, 0, 64, 63
1, 665648, Control_c, 0, 64, 61
1, 665663, Control_c, 0, 64, 59
1, 665678, Control_c, 0, 64, 58
1, 665693, Control_c, 0, 64, 56
1, 665708, Control_c, 0, 64, 54
1, 665722, Control_c, 0, 64, 52
1, 665737, Control_c, 0, 64, 49
1, 665753, Control_c, 0, 64, 44
1, 665768, Control_c, 0, 64, 38
1, 665774, Note_off_c, 0, 57, 36
1, 665783, Control_c, 0, 64, 33
1, 665797, Control_c, 0, 64, 27
1, 665812, Control_c, 0, 64, 19
1, 665827, Control_c, 0, 64, 0
1, 666752, Control_c, 0, 64, 14
1, 666766, Control_c, 0, 64, 24
1, 666781, Control_c, 0, 64, 31
1, 666796, Control_c, 0, 64, 36
1, 666811, Control_c, 0, 64, 40
1, 666826, Control_c, 0, 64, 43
1, 666841, Control_c, 0, 64, 46
1, 666856, Control_c, 0, 64, 48
1, 666871, Control_c, 0, 64, 49
1, 666885, Control_c, 0, 64, 51
1, 666900, Control_c, 0, 64, 52
1, 666915, Control_c, 0, 64, 53
1, 666930, Control_c, 0, 64, 55
1, 666945, Control_c, 0, 64, 56
1, 666960, Control_c, 0, 64, 57
1, 666974, Control_c, 0, 64, 58
1, 666989, Control_c, 0, 64, 58
1, 667004, Control_c, 0, 64, 59
1, 667019, Control_c, 0, 64, 59
1, 667034, Control_c, 0, 64, 60
1, 667048, Control_c, 0, 64, 61
1, 667063, Control_c, 0, 64, 62
1, 667092, Control_c, 0, 64, 62
1, 667107, Control_c, 0, 64, 63
1, 667130, Control_c, 0, 64, 63
1, 667160, Control_c, 0, 64, 64
1, 667189, Control_c, 0, 64, 64
1, 667218, Control_c, 0, 64, 65
1, 667233, Control_c, 0, 64, 65
1, 667248, Control_c, 0, 64, 66
1, 667263, Control_c, 0, 64, 66
1, 667278, Control_c, 0, 64, 67
1, 667307, Control_c, 0, 64, 67
1, 667338, Control_c, 0, 64, 68
1, 667353, Control_c, 0, 64, 69
1, 667368, Control_c, 0, 64, 69
1, 667383, Control_c, 0, 64, 70
1, 667397, Control_c, 0, 64, 71
1, 667412, Control_c, 0, 64, 71
1, 667427, Control_c, 0, 64, 72
1, 667442, Control_c, 0, 64, 73
1, 667457, Control_c, 0, 64, 74
1, 667471, Control_c, 0, 64, 75
1, 667486, Control_c, 0, 64, 76
1, 667501, Control_c, 0, 64, 77
1, 667515, Control_c, 0, 64, 77
1, 667545, Control_c, 0, 64, 78
1, 667560, Control_c, 0, 64, 78
1, 667575, Control_c, 0, 64, 79
1, 667589, Control_c, 0, 64, 80
1, 667604, Control_c, 0, 64, 80
1, 667619, Control_c, 0, 64, 81
1, 667663, Control_c, 0, 64, 81
1, 667753, Control_c, 0, 64, 82
1, 667968, Control_c, 0, 64, 81
1, 668012, Control_c, 0, 64, 81
1, 668057, Control_c, 0, 64, 80
1, 668102, Control_c, 0, 64, 80
1, 668146, Control_c, 0, 64, 79
1, 668206, Control_c, 0, 64, 79
1, 668325, Control_c, 0, 64, 78
1, 668413, Control_c, 0, 64, 78
1, 668502, Control_c, 0, 64, 77
1, 668576, Control_c, 0, 64, 77
1, 668658, Control_c, 0, 64, 76
1, 668776, Control_c, 0, 64, 76
1, 668850, Control_c, 0, 64, 75
1, 668969, Control_c, 0, 64, 75
1, 669029, Control_c, 0, 64, 74
1, 669177, Control_c, 0, 64, 74
1, 669265, Control_c, 0, 64, 73
1, 669480, Control_c, 0, 64, 73
1, 669881, Control_c, 0, 64, 72
1, 670185, Control_c, 0, 64, 72
1, 670303, Control_c, 0, 64, 71
1, 670540, Control_c, 0, 64, 71
1, 670612, Note_off_c, 0, 40, 1
1, 670644, Control_c, 0, 64, 70
1, 670691, Note_off_c, 0, 52, 1
1, 670733, Control_c, 0, 64, 70
1, 670778, Control_c, 0, 64, 69
1, 670793, Control_c, 0, 67, 127
1, 670822, Control_c, 0, 67, 126
1, 670852, Control_c, 0, 64, 69
1, 670852, Control_c, 0, 67, 126
1, 670889, Control_c, 0, 67, 125
1, 670948, Control_c, 0, 64, 68
1, 670948, Control_c, 0, 67, 125
1, 671007, Control_c, 0, 67, 124
1, 671022, Control_c, 0, 64, 68
1, 671037, Control_c, 0, 67, 123
1, 671052, Control_c, 0, 67, 123
1, 671066, Control_c, 0, 67, 121
1, 671075, Note_off_c, 0, 56, 6
1, 671081, Control_c, 0, 67, 120
1, 671096, Control_c, 0, 67, 119
1, 671111, Control_c, 0, 64, 67
1, 671111, Control_c, 0, 67, 118
1, 671126, Control_c, 0, 67, 116
1, 671140, Control_c, 0, 67, 115
1, 671155, Control_c, 0, 67, 114
1, 671170, Control_c, 0, 64, 67
1, 671170, Control_c, 0, 67, 113
1, 671185, Control_c, 0, 67, 111
1, 671200, Control_c, 0, 67, 110
1, 671214, Control_c, 0, 67, 109
1, 671229, Control_c, 0, 67, 108
1, 671244, Control_c, 0, 67, 107
1, 671258, Control_c, 0, 67, 106
1, 671273, Control_c, 0, 67, 105
1, 671288, Control_c, 0, 64, 66
1, 671288, Control_c, 0, 67, 103
1, 671303, Control_c, 0, 67, 102
1, 671318, Control_c, 0, 67, 101
1, 671334, Control_c, 0, 67, 99
1, 671349, Control_c, 0, 67, 98
1, 671363, Control_c, 0, 67, 96
1, 671378, Control_c, 0, 64, 66
1, 671378, Control_c, 0, 67, 94
1, 671393, Control_c, 0, 67, 92
1, 671408, Control_c, 0, 67, 90
1, 671423, Control_c, 0, 64, 65
1, 671423, Control_c, 0, 67, 89
1, 671437, Control_c, 0, 67, 87
1, 671452, Control_c, 0, 67, 85
1, 671467, Control_c, 0, 67, 84
1, 671482, Control_c, 0, 67, 82
1, 671497, Control_c, 0, 67, 80
1, 671512, Control_c, 0, 67, 79
1, 671527, Control_c, 0, 67, 77
1, 671542, Control_c, 0, 67, 76
1, 671557, Control_c, 0, 67, 75
1, 671571, Control_c, 0, 67, 74
1, 671586, Control_c, 0, 67, 73
1, 671601, Control_c, 0, 67, 72
1, 671624, Control_c, 0, 67, 70
1, 671638, Control_c, 0, 67, 69
1, 671653, Control_c, 0, 67, 68
1, 671668, Control_c, 0, 67, 67
1, 671683, Control_c, 0, 64, 65
1, 671683, Control_c, 0, 67, 66
1, 671694, Note_off_c, 0, 59, 26
1, 671697, Control_c, 0, 67, 65
1, 671712, Control_c, 0, 67, 64
1, 671727, Control_c, 0, 67, 64
1, 671741, Poly_aftertouch_c, 0, 47, 0
1, 671742, Control_c, 0, 67, 63
1, 671757, Control_c, 0, 67, 62
1, 671771, Control_c, 0, 67, 61
1, 671786, Control_c, 0, 67, 60
1, 671801, Control_c, 0, 67, 60
1, 671816, Control_c, 0, 64, 64
1, 671816, Control_c, 0, 67, 59
1, 671831, Control_c, 0, 67, 58
1, 671846, Control_c, 0, 67, 58
1, 671861, Control_c, 0, 67, 57
1, 671875, Control_c, 0, 67, 56
1, 671890, Control_c, 0, 67, 55
1, 671905, Control_c, 0, 67, 54
1, 671920, Control_c, 0, 67, 54
1, 671935, Control_c, 0, 67, 53
1, 671950, Control_c, 0, 64, 64
1, 671950, Control_c, 0, 67, 52
1, 671964, Control_c, 0, 67, 52
1, 671979, Control_c, 0, 67, 51
1, 671994, Control_c, 0, 67, 50
1, 672008, Control_c, 0, 67, 49
1, 672023, Control_c, 0, 67, 48
1, 672038, Control_c, 0, 67, 47
1, 672053, Control_c, 0, 64, 63
1, 672053, Control_c, 0, 67, 46
1, 672068, Control_c, 0, 67, 44
1, 672082, Control_c, 0, 67, 43
1, 672097, Control_c, 0, 67, 42
1, 672112, Control_c, 0, 67, 41
1, 672127, Control_c, 0, 67, 40
1, 672143, Control_c, 0, 67, 39
1, 672158, Control_c, 0, 67, 39
1, 672173, Control_c, 0, 67, 38
1, 672187, Control_c, 0, 67, 38
1, 672202, Control_c, 0, 67, 37
1, 672217, Control_c, 0, 67, 37
1, 672232, Control_c, 0, 67, 36
1, 672247, Control_c, 0, 67, 35
1, 672261, Control_c, 0, 67, 34
1, 672276, Control_c, 0, 67, 34
1, 672291, Control_c, 0, 64, 64
1, 672291, Control_c, 0, 67, 33
1, 672305, Control_c, 0, 67, 32
1, 672320, Control_c, 0, 67, 32
1, 672335, Control_c, 0, 67, 31
1, 672350, Control_c, 0, 67, 30
1, 672373, Control_c, 0, 67, 30
1, 672387, Control_c, 0, 67, 29
1, 672402, Control_c, 0, 67, 28
1, 672417, Control_c, 0, 64, 64
1, 672417, Control_c, 0, 67, 28
1, 672432, Control_c, 0, 67, 27
1, 672446, Control_c, 0, 67, 26
1, 672461, Control_c, 0, 67, 25
1, 672476, Control_c, 0, 67, 24
1, 672491, Control_c, 0, 67, 24
1, 672506, Control_c, 0, 67, 23
1, 672520, Control_c, 0, 67, 22
1, 672535, Control_c, 0, 67, 21
1, 672550, Control_c, 0, 67, 20
1, 672565, Control_c, 0, 67, 19
1, 672580, Control_c, 0, 67, 19
1, 672594, Control_c, 0, 67, 18
1, 672609, Control_c, 0, 67, 17
1, 672624, Control_c, 0, 67, 16
1, 672639, Control_c, 0, 67, 15
1, 672654, Control_c, 0, 67, 15
1, 672668, Control_c, 0, 67, 14
1, 672683, Control_c, 0, 64, 65
1, 672683, Control_c, 0, 67, 13
1, 672698, Control_c, 0, 67, 12
1, 672713, Control_c, 0, 67, 12
1, 672728, Control_c, 0, 67, 11
1, 672743, Control_c, 0, 67, 10
1, 672758, Control_c, 0, 67, 9
1, 672773, Control_c, 0, 67, 9
1, 672787, Control_c, 0, 67, 8
1, 672802, Control_c, 0, 67, 0
1, 672817, Control_c, 0, 64, 65
1, 672920, Control_c, 0, 64, 66
1, 672995, Control_c, 0, 64, 66
1, 673083, Control_c, 0, 64, 67
1, 673209, Control_c, 0, 64, 67
1, 673254, Control_c, 0, 64, 68
1, 673283, Control_c, 0, 64, 68
1, 673342, Control_c, 0, 64, 69
1, 673372, Control_c, 0, 64, 69
1, 673446, Control_c, 0, 64, 70
1, 673521, Control_c, 0, 64, 70
1, 673609, Control_c, 0, 64, 71
1, 673653, Control_c, 0, 64, 71
1, 673683, Control_c, 0, 64, 72
1, 673713, Control_c, 0, 64, 72
1, 673744, Control_c, 0, 64, 73
1, 673758, Control_c, 0, 64, 73
1, 673773, Control_c, 0, 64, 74
1, 673788, Control_c, 0, 64, 75
1, 673803, Control_c, 0, 64, 75
1, 673818, Control_c, 0, 64, 76
1, 673832, Control_c, 0, 64, 77
1, 673855, Control_c, 0, 64, 77
1, 673870, Control_c, 0, 64, 78
1, 673884, Control_c, 0, 64, 78
1, 673899, Control_c, 0, 64, 79
1, 673914, Control_c, 0, 64, 80
1, 673929, Control_c, 0, 64, 80
1, 673944, Control_c, 0, 64, 81
1, 673958, Control_c, 0, 64, 82
1, 673988, Control_c, 0, 64, 83
1, 674003, Control_c, 0, 64, 83
1, 674018, Control_c, 0, 64, 84
1, 674032, Control_c, 0, 64, 85
1, 674047, Control_c, 0, 64, 85
1, 674062, Control_c, 0, 64, 86
1, 674077, Control_c, 0, 64, 86
1, 674091, Control_c, 0, 64, 87
1, 674106, Control_c, 0, 64, 87
1, 674417, Control_c, 0, 64, 87
1, 674462, Control_c, 0, 64, 86
1, 674537, Control_c, 0, 64, 86
1, 674567, Control_c, 0, 64, 85
1, 674582, Control_c, 0, 64, 85
1, 674594, Note_on_c, 0, 76, 63
1, 674604, Control_c, 0, 64, 84
1, 674612, Note_on_c, 0, 52, 32
1, 674619, Control_c, 0, 64, 84
1, 674621, Note_on_c, 0, 68, 38
1, 674624, Note_on_c, 0, 59, 30
1, 674633, Control_c, 0, 64, 83
1, 674648, Note_on_c, 0, 62, 3
1, 674648, Control_c, 0, 64, 83
1, 674663, Control_c, 0, 64, 82
1, 674678, Control_c, 0, 64, 80
1, 674693, Control_c, 0, 64, 78
1, 674707, Control_c, 0, 64, 76
1, 674722, Control_c, 0, 64, 74
1, 674737, Control_c, 0, 64, 72
1, 674752, Control_c, 0, 64, 71
1, 674767, Control_c, 0, 64, 71
1, 674797, Control_c, 0, 64, 71
1, 674812, Control_c, 0, 64, 72
1, 674856, Control_c, 0, 64, 72
1, 674886, Control_c, 0, 64, 73
1, 674915, Control_c, 0, 64, 73
1, 674960, Control_c, 0, 64, 74
1, 674975, Control_c, 0, 64, 74
1, 674989, Control_c, 0, 64, 75
1, 675048, Control_c, 0, 64, 76
1, 675078, Control_c, 0, 64, 76
1, 675093, Control_c, 0, 64, 77
1, 675152, Control_c, 0, 64, 77
1, 675300, Control_c, 0, 64, 77
1, 675345, Control_c, 0, 64, 76
1, 675366, Note_on_c, 0, 77, 69
1, 675383, Control_c, 0, 64, 76
1, 675398, Control_c, 0, 64, 75
1, 675412, Control_c, 0, 64, 74
1, 675427, Control_c, 0, 64, 74
1, 675428, Note_off_c, 0, 76, 56
1, 675442, Control_c, 0, 64, 73
1, 675456, Control_c, 0, 64, 72
1, 675471, Control_c, 0, 64, 71
1, 675486, Control_c, 0, 64, 70
1, 675501, Control_c, 0, 64, 69
1, 675516, Control_c, 0, 64, 68
1, 675530, Control_c, 0, 64, 67
1, 675545, Control_c, 0, 64, 67
1, 675560, Control_c, 0, 64, 66
1, 675575, Control_c, 0, 64, 66
1, 675605, Control_c, 0, 64, 65
1, 675634, Control_c, 0, 64, 65
1, 675664, Control_c, 0, 64, 64
1, 675709, Control_c, 0, 64, 64
1, 675827, Control_c, 0, 64, 64
1, 675886, Control_c, 0, 64, 65
1, 675930, Control_c, 0, 64, 65
1, 675960, Control_c, 0, 64, 66
1, 675974, Control_c, 0, 64, 66
1, 676004, Control_c, 0, 64, 67
1, 676034, Control_c, 0, 64, 67
1, 676049, Control_c, 0, 64, 68
1, 676064, Control_c, 0, 64, 68
1, 676079, Control_c, 0, 64, 69
1, 676093, Control_c, 0, 64, 70
1, 676132, Control_c, 0, 64, 70
1, 676147, Control_c, 0, 64, 71
1, 676161, Control_c, 0, 64, 71
1, 676176, Control_c, 0, 64, 72
1, 676191, Control_c, 0, 64, 73
1, 676206, Control_c, 0, 64, 74
1, 676221, Control_c, 0, 64, 75
1, 676235, Control_c, 0, 64, 75
1, 676250, Control_c, 0, 64, 76
1, 676265, Control_c, 0, 64, 77
1, 676279, Control_c, 0, 64, 78
1, 676294, Control_c, 0, 64, 79
1, 676309, Control_c, 0, 64, 80
1, 676324, Control_c, 0, 64, 82
1, 676339, Control_c, 0, 64, 83
1, 676353, Control_c, 0, 64, 85
1, 676368, Control_c, 0, 64, 86
1, 676383, Control_c, 0, 64, 88
1, 676398, Control_c, 0, 64, 91
1, 676412, Control_c, 0, 64, 93
1, 676427, Control_c, 0, 64, 94
1, 676442, Control_c, 0, 64, 96
1, 676457, Control_c, 0, 64, 97
1, 676472, Control_c, 0, 64, 98
1, 676487, Control_c, 0, 64, 99
1, 676542, Poly_aftertouch_c, 0, 74, 127
1, 676679, Control_c, 0, 64, 98
1, 676709, Control_c, 0, 64, 98
1, 676724, Control_c, 0, 64, 97
1, 676739, Control_c, 0, 64, 97
1, 676753, Control_c, 0, 67, 8
1, 676768, Control_c, 0, 64, 96
1, 676768, Control_c, 0, 67, 8
1, 676783, Control_c, 0, 67, 9
1, 676797, Control_c, 0, 64, 96
1, 676797, Control_c, 0, 67, 10
1, 676812, Control_c, 0, 64, 95
1, 676812, Control_c, 0, 67, 12
1, 676827, Control_c, 0, 64, 95
1, 676827, Control_c, 0, 67, 15
1, 676842, Control_c, 0, 64, 94
1, 676842, Control_c, 0, 67, 18
1, 676865, Control_c, 0, 64, 94
1, 676865, Control_c, 0, 67, 21
1, 676879, Control_c, 0, 64, 93
1, 676879, Control_c, 0, 67, 25
1, 676894, Control_c, 0, 64, 92
1, 676894, Control_c, 0, 67, 29
1, 676909, Control_c, 0, 64, 92
1, 676909, Control_c, 0, 67, 32
1, 676924, Control_c, 0, 64, 91
1, 676924, Control_c, 0, 67, 34
1, 676940, Control_c, 0, 64, 91
1, 676940, Control_c, 0, 67, 37
1, 676955, Control_c, 0, 64, 90
1, 676955, Control_c, 0, 67, 39
1, 676970, Control_c, 0, 64, 90
1, 676970, Control_c, 0, 67, 41
1, 676984, Control_c, 0, 64, 89
1, 676984, Control_c, 0, 67, 42
1, 676999, Control_c, 0, 64, 88
1, 676999, Control_c, 0, 67, 42
1, 677014, Control_c, 0, 67, 43
1, 677028, Control_c, 0, 64, 88
1, 677028, Control_c, 0, 67, 44
1, 677035, Note_on_c, 0, 76, 52
1, 677058, Control_c, 0, 64, 87
1, 677058, Control_c, 0, 67, 44
1, 677073, Control_c, 0, 64, 87
1, 677073, Control_c, 0, 67, 45
1, 677102, Control_c, 0, 64, 86
1, 677102, Control_c, 0, 67, 45
1, 677117, Control_c, 0, 64, 86
1, 677117, Control_c, 0, 67, 46
1, 677129, Poly_aftertouch_c, 0, 74, 0
1, 677132, Control_c, 0, 64, 85
1, 677132, Control_c, 0, 67, 47
1, 677147, Control_c, 0, 67, 48
1, 677162, Control_c, 0, 64, 85
1, 677162, Control_c, 0, 67, 48
1, 677176, Control_c, 0, 64, 84
1, 677191, Control_c, 0, 67, 49
1, 677221, Control_c, 0, 64, 84
1, 677221, Control_c, 0, 67, 49
1, 677235, Control_c, 0, 67, 50
1, 677239, Note_off_c, 0, 77, 39
1, 677250, Control_c, 0, 64, 83
1, 677250, Control_c, 0, 67, 51
1, 677265, Control_c, 0, 67, 52
1, 677280, Control_c, 0, 67, 53
1, 677295, Control_c, 0, 67, 54
1, 677310, Control_c, 0, 67, 55
1, 677325, Control_c, 0, 67, 56
1, 677339, Control_c, 0, 64, 83
1, 677339, Control_c, 0, 67, 57
1, 677354, Control_c, 0, 67, 58
1, 677369, Control_c, 0, 67, 58
1, 677384, Control_c, 0, 67, 59
1, 677414, Control_c, 0, 67, 60
1, 677428, Control_c, 0, 67, 60
1, 677458, Control_c, 0, 67, 61
1, 677473, Control_c, 0, 67, 61
1, 677488, Control_c, 0, 67, 62
1, 677502, Control_c, 0, 67, 63
1, 677513, Note_on_c, 0, 73, 57
1, 677517, Control_c, 0, 64, 83
1, 677517, Control_c, 0, 67, 63
1, 677532, Control_c, 0, 67, 64
1, 677547, Control_c, 0, 64, 84
1, 677547, Control_c, 0, 67, 65
1, 677562, Control_c, 0, 64, 84
1, 677562, Control_c, 0, 67, 65
1, 677576, Control_c, 0, 67, 66
1, 677591, Control_c, 0, 64, 85
1, 677591, Control_c, 0, 67, 67
1, 677614, Control_c, 0, 64, 85
1, 677614, Control_c, 0, 67, 68
1, 677628, Control_c, 0, 67, 69
1, 677631, Note_off_c, 0, 76, 49
1, 677643, Control_c, 0, 64, 86
1, 677643, Control_c, 0, 67, 69
1, 677658, Control_c, 0, 64, 86
1, 677658, Control_c, 0, 67, 70
1, 677673, Control_c, 0, 64, 87
1, 677673, Control_c, 0, 67, 71
1, 677688, Control_c, 0, 64, 88
1, 677688, Control_c, 0, 67, 71
1, 677702, Control_c, 0, 64, 89
1, 677702, Control_c, 0, 67, 72
1, 677717, Control_c, 0, 64, 90
1, 677717, Control_c, 0, 67, 72
1, 677733, Control_c, 0, 64, 90
1, 677733, Control_c, 0, 67, 73
1, 677748, Control_c, 0, 64, 91
1, 677748, Control_c, 0, 67, 73
1, 677763, Control_c, 0, 64, 92
1, 677763, Control_c, 0, 67, 74
1, 677778, Control_c, 0, 64, 93
1, 677793, Control_c, 0, 64, 93
1, 677793, Control_c, 0, 67, 74
1, 677807, Control_c, 0, 67, 75
1, 677833, Note_on_c, 0, 74, 64
1, 677833, Note_off_c, 0, 52, 34
1, 677837, Control_c, 0, 67, 76
1, 677866, Control_c, 0, 67, 76
1, 677881, Control_c, 0, 67, 77
1, 677896, Control_c, 0, 67, 78
1, 677911, Control_c, 0, 67, 80
1, 677922, Note_off_c, 0, 62, 36
1, 677925, Control_c, 0, 67, 81
1, 677940, Control_c, 0, 67, 82
1, 677955, Control_c, 0, 67, 84
1, 677968, Note_off_c, 0, 73, 31
1, 677970, Control_c, 0, 67, 85
1, 677985, Control_c, 0, 67, 86
1, 678027, Note_off_c, 0, 68, 38
1, 678044, Control_c, 0, 64, 93
1, 678073, Control_c, 0, 64, 92
1, 678083, Note_off_c, 0, 74, 51
1, 678088, Control_c, 0, 64, 92
1, 678118, Control_c, 0, 64, 91
1, 678132, Control_c, 0, 64, 91
1, 678162, Control_c, 0, 64, 90
1, 678177, Control_c, 0, 64, 89
1, 678192, Control_c, 0, 64, 89
1, 678207, Control_c, 0, 64, 88
1, 678222, Control_c, 0, 64, 87
1, 678235, Note_on_c, 0, 74, 47
1, 678237, Control_c, 0, 64, 86
1, 678251, Control_c, 0, 64, 85
1, 678254, Note_on_c, 0, 62, 22
1, 678259, Note_on_c, 0, 58, 31
1, 678266, Control_c, 0, 64, 84
1, 678277, Note_on_c, 0, 67, 35
1, 678281, Control_c, 0, 64, 82
1, 678296, Control_c, 0, 64, 81
1, 678304, Note_off_c, 0, 59, 22
1, 678311, Control_c, 0, 64, 79
1, 678325, Control_c, 0, 64, 76
1, 678340, Control_c, 0, 64, 72
1, 678362, Control_c, 0, 64, 66
1, 678377, Control_c, 0, 64, 62
1, 678392, Control_c, 0, 64, 56
1, 678407, Control_c, 0, 64, 51
1, 678422, Control_c, 0, 64, 49
1, 678436, Control_c, 0, 64, 48
1, 678451, Control_c, 0, 64, 47
1, 678466, Control_c, 0, 64, 46
1, 678481, Control_c, 0, 64, 45
1, 678496, Control_c, 0, 64, 43
1, 678511, Control_c, 0, 64, 40
1, 678526, Control_c, 0, 64, 38
1, 678541, Control_c, 0, 64, 36
1, 678556, Control_c, 0, 64, 35
1, 678615, Control_c, 0, 64, 38
1, 678630, Control_c, 0, 64, 46
1, 678645, Control_c, 0, 64, 53
1, 678660, Control_c, 0, 64, 58
1, 678674, Control_c, 0, 64, 62
1, 678689, Control_c, 0, 64, 65
1, 678704, Control_c, 0, 64, 68
1, 678719, Control_c, 0, 64, 71
1, 678734, Control_c, 0, 64, 75
1, 678748, Control_c, 0, 64, 78
1, 678763, Control_c, 0, 64, 80
1, 678778, Control_c, 0, 64, 83
1, 678793, Control_c, 0, 64, 84
1, 678807, Control_c, 0, 64, 86
1, 678856, Note_off_c, 0, 67, 37
1, 678926, Control_c, 0, 64, 85
1, 678955, Control_c, 0, 64, 85
1, 678970, Control_c, 0, 64, 84
1, 678999, Control_c, 0, 64, 84
1, 679029, Control_c, 0, 64, 83
1, 679044, Control_c, 0, 64, 83
1, 679059, Control_c, 0, 64, 82
1, 679073, Control_c, 0, 64, 82
1, 679088, Control_c, 0, 64, 81
1, 679110, Control_c, 0, 64, 80
1, 679121, Note_on_c, 0, 67, 31
1, 679125, Control_c, 0, 64, 80
1, 679140, Control_c, 0, 64, 79
1, 679170, Control_c, 0, 64, 79
1, 679349, Control_c, 0, 67, 86
1, 679511, Control_c, 0, 67, 85
1, 679541, Control_c, 0, 64, 79
1, 679585, Control_c, 0, 64, 80
1, 679600, Control_c, 0, 67, 85
1, 679644, Control_c, 0, 64, 80
1, 679674, Control_c, 0, 67, 84
1, 679689, Control_c, 0, 64, 81
1, 679733, Control_c, 0, 67, 84
1, 679792, Control_c, 0, 67, 83
1, 679836, Control_c, 0, 67, 83
1, 680021, Control_c, 0, 64, 80
1, 680021, Control_c, 0, 67, 82
1, 680036, Control_c, 0, 64, 80
1, 680051, Control_c, 0, 64, 79
1, 680066, Control_c, 0, 64, 78
1, 680081, Control_c, 0, 64, 77
1, 680095, Control_c, 0, 64, 75
1, 680100, Note_on_c, 0, 65, 31
1, 680102, Note_off_c, 0, 58, 42
1, 680104, Note_on_c, 0, 60, 30
1, 680106, Note_on_c, 0, 57, 33
1, 680110, Control_c, 0, 64, 73
1, 680124, Note_off_c, 0, 62, 38
1, 680126, Control_c, 0, 64, 72
1, 680141, Control_c, 0, 64, 70
1, 680141, Control_c, 0, 67, 82
1, 680156, Control_c, 0, 64, 70
1, 680171, Control_c, 0, 67, 81
1, 680186, Control_c, 0, 67, 81
1, 680200, Control_c, 0, 64, 70
1, 680215, Control_c, 0, 67, 80
1, 680230, Control_c, 0, 64, 71
1, 680230, Control_c, 0, 67, 80
1, 680244, Control_c, 0, 64, 72
1, 680244, Control_c, 0, 67, 79
1, 680259, Control_c, 0, 64, 72
1, 680259, Control_c, 0, 67, 79
1, 680274, Control_c, 0, 64, 73
1, 680289, Control_c, 0, 64, 73
1, 680289, Control_c, 0, 67, 78
1, 680304, Control_c, 0, 64, 75
1, 680304, Control_c, 0, 67, 78
1, 680316, Note_off_c, 0, 67, 40
1, 680318, Control_c, 0, 64, 76
1, 680333, Control_c, 0, 64, 77
1, 680333, Control_c, 0, 67, 77
1, 680348, Control_c, 0, 64, 78
1, 680348, Control_c, 0, 67, 77
1, 680363, Control_c, 0, 64, 79
1, 680363, Control_c, 0, 67, 76
1, 680378, Control_c, 0, 64, 79
1, 680378, Control_c, 0, 67, 75
1, 680392, Control_c, 0, 64, 80
1, 680392, Control_c, 0, 67, 75
1, 680407, Control_c, 0, 64, 82
1, 680407, Control_c, 0, 67, 74
1, 680422, Control_c, 0, 64, 83
1, 680422, Control_c, 0, 67, 73
1, 680437, Control_c, 0, 64, 84
1, 680437, Control_c, 0, 67, 72
1, 680452, Control_c, 0, 64, 84
1, 680452, Control_c, 0, 67, 68
1, 680454, Note_on_c, 0, 69, 61
1, 680467, Control_c, 0, 64, 85
1, 680467, Control_c, 0, 67, 61
1, 680482, Control_c, 0, 64, 86
1, 680482, Control_c, 0, 67, 54
1, 680497, Control_c, 0, 64, 87
1, 680497, Control_c, 0, 67, 45
1, 680512, Control_c, 0, 64, 88
1, 680512, Control_c, 0, 67, 34
1, 680526, Control_c, 0, 67, 20
1, 680541, Control_c, 0, 67, 0
1, 680660, Note_off_c, 0, 65, 56
1, 680682, Control_c, 0, 64, 87
1, 680697, Control_c, 0, 64, 87
1, 680726, Control_c, 0, 64, 86
1, 680741, Control_c, 0, 64, 85
1, 680756, Control_c, 0, 64, 85
1, 680771, Control_c, 0, 64, 84
1, 680785, Control_c, 0, 64, 83
1, 680791, Note_off_c, 0, 57, 0
1, 680800, Control_c, 0, 64, 83
1, 680815, Control_c, 0, 64, 82
1, 680830, Control_c, 0, 64, 81
1, 680845, Control_c, 0, 64, 79
1, 680851, Note_on_c, 0, 70, 69
1, 680860, Control_c, 0, 64, 78
1, 680863, Note_off_c, 0, 60, 30
1, 680875, Control_c, 0, 64, 76
1, 680878, Note_on_c, 0, 55, 41
1, 680883, Note_on_c, 0, 58, 34
1, 680884, Note_on_c, 0, 64, 47
1, 680890, Control_c, 0, 64, 73
1, 680898, Poly_aftertouch_c, 0, 57, 0
1, 680905, Control_c, 0, 64, 70
1, 680911, Note_off_c, 0, 74, 55
1, 680920, Control_c, 0, 64, 67
1, 680935, Control_c, 0, 64, 64
1, 680948, Note_off_c, 0, 69, 53
1, 680949, Control_c, 0, 64, 63
1, 680964, Control_c, 0, 64, 61
1, 680979, Control_c, 0, 64, 60
1, 680994, Control_c, 0, 64, 59
1, 681009, Control_c, 0, 64, 58
1, 681024, Control_c, 0, 64, 56
1, 681039, Control_c, 0, 64, 55
1, 681054, Control_c, 0, 64, 54
1, 681068, Control_c, 0, 64, 54
1, 681098, Control_c, 0, 64, 53
1, 681320, Control_c, 0, 64, 53
1, 681431, Control_c, 0, 64, 52
1, 681446, Control_c, 0, 64, 52
1, 681461, Control_c, 0, 64, 51
1, 681465, Note_on_c, 0, 74, 66
1, 681475, Control_c, 0, 64, 51
1, 681490, Control_c, 0, 64, 50
1, 681505, Control_c, 0, 64, 49
1, 681520, Control_c, 0, 64, 48
1, 681535, Control_c, 0, 64, 48
1, 681549, Control_c, 0, 64, 47
1, 681564, Control_c, 0, 64, 47
1, 681564, Control_c, 0, 67, 8
1, 681578, Note_off_c, 0, 70, 54
1, 681579, Control_c, 0, 64, 46
1, 681579, Control_c, 0, 67, 8
1, 681593, Control_c, 0, 64, 45
1, 681593, Control_c, 0, 67, 9
1, 681608, Control_c, 0, 64, 44
1, 681608, Control_c, 0, 67, 9
1, 681623, Control_c, 0, 64, 44
1, 681623, Control_c, 0, 67, 10
1, 681638, Control_c, 0, 64, 43
1, 681638, Control_c, 0, 67, 11
1, 681653, Control_c, 0, 64, 43
1, 681653, Control_c, 0, 67, 12
1, 681668, Control_c, 0, 67, 12
1, 681683, Control_c, 0, 67, 13
1, 681698, Control_c, 0, 67, 15
1, 681712, Control_c, 0, 67, 16
1, 681728, Control_c, 0, 67, 17
1, 681743, Control_c, 0, 67, 19
1, 681758, Control_c, 0, 67, 20
1, 681772, Control_c, 0, 64, 43
1, 681772, Control_c, 0, 67, 23
1, 681787, Control_c, 0, 64, 45
1, 681787, Control_c, 0, 67, 25
1, 681802, Control_c, 0, 64, 47
1, 681802, Control_c, 0, 67, 27
1, 681817, Control_c, 0, 64, 49
1, 681817, Control_c, 0, 67, 30
1, 681832, Control_c, 0, 64, 51
1, 681832, Control_c, 0, 67, 32
1, 681847, Control_c, 0, 64, 54
1, 681847, Control_c, 0, 67, 34
1, 681862, Control_c, 0, 64, 57
1, 681862, Control_c, 0, 67, 37
1, 681876, Control_c, 0, 64, 59
1, 681876, Control_c, 0, 67, 39
1, 681891, Control_c, 0, 64, 60
1, 681891, Control_c, 0, 67, 41
1, 681906, Control_c, 0, 64, 61
1, 681906, Control_c, 0, 67, 42
1, 681921, Control_c, 0, 64, 61
1, 681921, Control_c, 0, 67, 43
1, 681936, Control_c, 0, 64, 62
1, 681936, Control_c, 0, 67, 45
1, 681951, Control_c, 0, 64, 63
1, 681951, Control_c, 0, 67, 46
1, 681965, Control_c, 0, 64, 63
1, 681965, Control_c, 0, 67, 48
1, 681980, Control_c, 0, 64, 64
1, 681980, Control_c, 0, 67, 49
1, 681995, Control_c, 0, 67, 50
1, 682010, Control_c, 0, 67, 52
1, 682024, Control_c, 0, 64, 64
1, 682024, Control_c, 0, 67, 53
1, 682039, Control_c, 0, 64, 65
1, 682039, Control_c, 0, 67, 55
1, 682054, Control_c, 0, 67, 57
1, 682069, Control_c, 0, 64, 65
1, 682069, Control_c, 0, 67, 59
1, 682084, Control_c, 0, 64, 66
1, 682084, Control_c, 0, 67, 61
1, 682106, Control_c, 0, 64, 66
1, 682106, Control_c, 0, 67, 62
1, 682121, Control_c, 0, 64, 67
1, 682121, Control_c, 0, 67, 64
1, 682136, Control_c, 0, 64, 67
1, 682136, Control_c, 0, 67, 66
1, 682151, Control_c, 0, 64, 68
1, 682151, Control_c, 0, 67, 67
1, 682166, Control_c, 0, 64, 68
1, 682166, Control_c, 0, 67, 68
1, 682180, Control_c, 0, 64, 69
1, 682180, Control_c, 0, 67, 70
1, 682195, Control_c, 0, 64, 70
1, 682195, Control_c, 0, 67, 72
1, 682210, Control_c, 0, 64, 70
1, 682210, Control_c, 0, 67, 73
1, 682224, Control_c, 0, 64, 71
1, 682224, Control_c, 0, 67, 74
1, 682239, Control_c, 0, 67, 75
1, 682254, Control_c, 0, 64, 71
1, 682254, Control_c, 0, 67, 76
1, 682269, Control_c, 0, 64, 72
1, 682269, Control_c, 0, 67, 78
1, 682284, Control_c, 0, 64, 73
1, 682284, Control_c, 0, 67, 79
1, 682298, Control_c, 0, 64, 74
1, 682298, Control_c, 0, 67, 80
1, 682313, Control_c, 0, 64, 75
1, 682313, Control_c, 0, 67, 81
1, 682328, Control_c, 0, 64, 76
1, 682328, Control_c, 0, 67, 82
1, 682342, Control_c, 0, 64, 77
1, 682342, Control_c, 0, 67, 83
1, 682357, Control_c, 0, 64, 79
1, 682357, Control_c, 0, 67, 84
1, 682372, Control_c, 0, 64, 81
1, 682372, Control_c, 0, 67, 85
1, 682387, Control_c, 0, 64, 83
1, 682387, Control_c, 0, 67, 86
1, 682402, Control_c, 0, 64, 84
1, 682402, Control_c, 0, 67, 86
1, 682416, Control_c, 0, 64, 86
1, 682416, Control_c, 0, 67, 87
1, 682431, Control_c, 0, 64, 87
1, 682431, Control_c, 0, 67, 87
1, 682446, Control_c, 0, 64, 88
1, 682446, Control_c, 0, 67, 88
1, 682461, Control_c, 0, 67, 88
1, 682521, Control_c, 0, 67, 89
1, 682610, Control_c, 0, 67, 89
1, 682794, Note_on_c, 0, 72, 47
1, 682803, Control_c, 0, 64, 88
1, 682854, Control_c, 0, 64, 87
1, 682899, Control_c, 0, 64, 87
1, 682973, Control_c, 0, 64, 86
1, 682988, Control_c, 0, 67, 90
1, 683034, Note_off_c, 0, 64, 37
1, 683047, Control_c, 0, 64, 86
1, 683107, Control_c, 0, 67, 90
1, 683121, Control_c, 0, 64, 85
1, 683165, Control_c, 0, 64, 85
1, 683195, Control_c, 0, 64, 84
1, 683225, Control_c, 0, 64, 84
1, 683239, Control_c, 0, 64, 83
1, 683249, Note_off_c, 0, 55, 39
1, 683254, Control_c, 0, 64, 83
1, 683269, Control_c, 0, 64, 82
1, 683274, Note_on_c, 0, 69, 48
1, 683284, Control_c, 0, 64, 82
1, 683297, Note_on_c, 0, 54, 42
1, 683299, Control_c, 0, 64, 81
1, 683304, Note_on_c, 0, 63, 36
1, 683315, Control_c, 0, 64, 79
1, 683330, Control_c, 0, 64, 77
1, 683344, Control_c, 0, 64, 74
1, 683359, Control_c, 0, 64, 70
1, 683369, Note_off_c, 0, 72, 53
1, 683374, Control_c, 0, 64, 67
1, 683388, Control_c, 0, 64, 65
1, 683391, Note_off_c, 0, 58, 31
1, 683418, Note_off_c, 0, 74, 18
1, 683418, Control_c, 0, 64, 66
1, 683433, Control_c, 0, 64, 68
1, 683448, Control_c, 0, 64, 69
1, 683462, Control_c, 0, 64, 71
1, 683477, Control_c, 0, 64, 72
1, 683492, Control_c, 0, 64, 75
1, 683507, Control_c, 0, 64, 77
1, 683522, Control_c, 0, 64, 79
1, 683536, Control_c, 0, 64, 80
1, 683551, Control_c, 0, 64, 81
1, 683566, Control_c, 0, 64, 82
1, 683581, Control_c, 0, 64, 82
1, 683608, Note_on_c, 0, 70, 61
1, 683692, Control_c, 0, 67, 91
1, 683778, Note_off_c, 0, 69, 51
1, 683795, Control_c, 0, 67, 91
1, 683825, Note_off_c, 0, 63, 37
1, 683825, Control_c, 0, 64, 82
1, 683829, Note_off_c, 0, 70, 58
1, 683840, Control_c, 0, 67, 94
1, 683855, Control_c, 0, 67, 96
1, 683869, Control_c, 0, 64, 81
1, 683884, Control_c, 0, 67, 96
1, 683899, Control_c, 0, 64, 81
1, 683929, Control_c, 0, 64, 80
1, 683937, Note_off_c, 0, 54, 30
1, 683943, Control_c, 0, 64, 80
1, 683952, Note_on_c, 0, 70, 53
1, 683958, Control_c, 0, 64, 79
1, 683973, Control_c, 0, 64, 78
1, 683973, Control_c, 0, 67, 97
1, 683986, Note_on_c, 0, 62, 36
1, 683987, Control_c, 0, 64, 78
1, 683992, Note_on_c, 0, 46, 30
1, 683998, Note_on_c, 0, 53, 30
1, 684002, Control_c, 0, 64, 77
1, 684017, Control_c, 0, 64, 76
1, 684032, Control_c, 0, 64, 75
1, 684047, Control_c, 0, 64, 74
1, 684061, Control_c, 0, 64, 71
1, 684076, Control_c, 0, 64, 69
1, 684091, Control_c, 0, 64, 67
1, 684107, Control_c, 0, 64, 66
1, 684122, Control_c, 0, 64, 65
1, 684152, Control_c, 0, 64, 64
1, 684166, Control_c, 0, 64, 63
1, 684166, Control_c, 0, 67, 97
1, 684181, Control_c, 0, 64, 61
1, 684196, Control_c, 0, 64, 57
1, 684211, Control_c, 0, 64, 50
1, 684226, Control_c, 0, 64, 35
1, 684241, Control_c, 0, 64, 0
1, 684286, Control_c, 0, 67, 98
1, 684315, Control_c, 0, 67, 98
1, 684353, Control_c, 0, 67, 99
1, 684367, Control_c, 0, 67, 100
1, 684397, Control_c, 0, 67, 101
1, 684515, Control_c, 0, 67, 101
1, 684599, Note_on_c, 0, 65, 54
1, 684664, Control_c, 0, 64, 41
1, 684678, Control_c, 0, 64, 56
1, 684693, Control_c, 0, 64, 62
1, 684708, Control_c, 0, 64, 65
1, 684723, Control_c, 0, 64, 68
1, 684737, Control_c, 0, 64, 71
1, 684752, Control_c, 0, 64, 73
1, 684767, Control_c, 0, 64, 76
1, 684782, Control_c, 0, 64, 78
1, 684797, Control_c, 0, 64, 81
1, 684797, Control_c, 0, 67, 101
1, 684811, Control_c, 0, 64, 83
1, 684826, Control_c, 0, 64, 85
1, 684841, Control_c, 0, 64, 85
1, 684851, Note_off_c, 0, 62, 60
1, 684856, Control_c, 0, 64, 86
1, 684990, Control_c, 0, 64, 85
1, 685020, Control_c, 0, 64, 85
1, 685034, Control_c, 0, 64, 84
1, 685049, Control_c, 0, 64, 84
1, 685064, Control_c, 0, 64, 83
1, 685078, Note_on_c, 0, 52, 37
1, 685079, Control_c, 0, 64, 82
1, 685080, Note_on_c, 0, 61, 43
1, 685093, Note_off_c, 0, 53, 44
1, 685102, Control_c, 0, 64, 81
1, 685116, Control_c, 0, 64, 79
1, 685131, Control_c, 0, 64, 76
1, 685146, Control_c, 0, 64, 72
1, 685161, Control_c, 0, 64, 67
1, 685175, Control_c, 0, 64, 63
1, 685190, Control_c, 0, 64, 58
1, 685205, Control_c, 0, 64, 55
1, 685249, Control_c, 0, 64, 56
1, 685264, Control_c, 0, 64, 59
1, 685279, Control_c, 0, 64, 62
1, 685294, Control_c, 0, 64, 64
1, 685309, Control_c, 0, 64, 66
1, 685323, Control_c, 0, 64, 69
1, 685338, Control_c, 0, 64, 72
1, 685353, Control_c, 0, 64, 75
1, 685367, Control_c, 0, 64, 77
1, 685382, Control_c, 0, 64, 79
1, 685397, Control_c, 0, 64, 80
1, 685412, Control_c, 0, 64, 81
1, 685427, Control_c, 0, 64, 81
1, 685442, Control_c, 0, 64, 82
1, 685575, Control_c, 0, 64, 81
1, 685605, Control_c, 0, 64, 81
1, 685634, Control_c, 0, 64, 80
1, 685649, Control_c, 0, 64, 80
1, 685664, Control_c, 0, 64, 79
1, 685670, Note_off_c, 0, 61, 42
1, 685679, Control_c, 0, 64, 78
1, 685710, Control_c, 0, 64, 78
1, 685719, Note_on_c, 0, 67, 58
1, 685725, Control_c, 0, 64, 77
1, 685731, Note_on_c, 0, 60, 31
1, 685740, Control_c, 0, 64, 76
1, 685745, Note_on_c, 0, 51, 34
1, 685755, Control_c, 0, 64, 74
1, 685755, Control_c, 0, 67, 101
1, 685769, Control_c, 0, 64, 70
1, 685776, Note_off_c, 0, 52, 37
1, 685784, Control_c, 0, 64, 66
1, 685785, Note_off_c, 0, 70, 51
1, 685788, Note_off_c, 0, 65, 39
1, 685799, Control_c, 0, 64, 63
1, 685814, Control_c, 0, 64, 58
1, 685814, Control_c, 0, 67, 102
1, 685829, Control_c, 0, 64, 52
1, 685851, Control_c, 0, 64, 49
1, 685865, Control_c, 0, 64, 49
1, 685880, Control_c, 0, 64, 48
1, 685895, Control_c, 0, 64, 47
1, 685925, Control_c, 0, 64, 48
1, 685939, Control_c, 0, 64, 51
1, 685954, Control_c, 0, 64, 53
1, 685969, Control_c, 0, 64, 57
1, 685984, Control_c, 0, 64, 60
1, 685999, Control_c, 0, 64, 62
1, 686014, Control_c, 0, 64, 63
1, 686029, Control_c, 0, 64, 64
1, 686044, Control_c, 0, 64, 65
1, 686059, Control_c, 0, 64, 66
1, 686073, Control_c, 0, 64, 67
1, 686088, Control_c, 0, 64, 69
1, 686103, Control_c, 0, 64, 70
1, 686118, Control_c, 0, 64, 71
1, 686133, Control_c, 0, 64, 72
1, 686147, Control_c, 0, 64, 73
1, 686162, Control_c, 0, 64, 75
1, 686177, Control_c, 0, 64, 76
1, 686191, Control_c, 0, 64, 78
1, 686191, Control_c, 0, 67, 102
1, 686206, Control_c, 0, 64, 79
1, 686221, Control_c, 0, 64, 80
1, 686236, Control_c, 0, 64, 81
1, 686251, Control_c, 0, 64, 82
1, 686265, Control_c, 0, 64, 83
1, 686280, Control_c, 0, 64, 84
1, 686295, Control_c, 0, 64, 85
1, 686325, Control_c, 0, 64, 85
1, 686354, Control_c, 0, 64, 86
1, 686388, Note_on_c, 0, 69, 52
1, 686398, Control_c, 0, 67, 103
1, 686437, Note_off_c, 0, 60, 38
1, 686453, Note_off_c, 0, 46, 40
1, 686453, Note_off_c, 0, 67, 36
1, 686518, Control_c, 0, 67, 104
1, 686533, Control_c, 0, 67, 107
1, 686548, Control_c, 0, 64, 85
1, 686548, Control_c, 0, 67, 110
1, 686562, Control_c, 0, 64, 85
1, 686562, Control_c, 0, 67, 112
1, 686577, Control_c, 0, 67, 115
1, 686600, Control_c, 0, 64, 84
1, 686600, Control_c, 0, 67, 115
1, 686629, Control_c, 0, 64, 84
1, 686644, Control_c, 0, 64, 83
1, 686644, Control_c, 0, 67, 116
1, 686659, Control_c, 0, 64, 82
1, 686674, Control_c, 0, 64, 81
1, 686674, Control_c, 0, 67, 116
1, 686678, Note_on_c, 0, 50, 33
1, 686688, Note_on_c, 0, 67, 48
1, 686688, Control_c, 0, 64, 79
1, 686694, Note_off_c, 0, 69, 52
1, 686696, Note_on_c, 0, 59, 29
1, 686703, Control_c, 0, 64, 77
1, 686703, Control_c, 0, 67, 117
1, 686718, Control_c, 0, 64, 74
1, 686720, Note_on_c, 0, 43, 34
1, 686733, Control_c, 0, 64, 71
1, 686733, Control_c, 0, 67, 117
1, 686748, Control_c, 0, 64, 68
1, 686748, Control_c, 0, 67, 118
1, 686762, Control_c, 0, 64, 65
1, 686762, Control_c, 0, 67, 118
1, 686777, Control_c, 0, 64, 63
1, 686778, Note_off_c, 0, 51, 22
1, 686792, Control_c, 0, 64, 55
1, 686807, Control_c, 0, 64, 33
1, 686807, Control_c, 0, 67, 119
1, 686822, Control_c, 0, 64, 0
1, 686837, Control_c, 0, 67, 119
1, 686852, Control_c, 0, 67, 120
1, 686866, Control_c, 0, 67, 120
1, 686881, Control_c, 0, 67, 121
1, 686911, Control_c, 0, 67, 121
1, 687103, Control_c, 0, 67, 122
1, 687366, Note_on_c, 0, 62, 41
1, 687379, Control_c, 0, 64, 42
1, 687394, Control_c, 0, 64, 59
1, 687409, Control_c, 0, 64, 63
1, 687424, Control_c, 0, 64, 65
1, 687438, Control_c, 0, 64, 67
1, 687453, Control_c, 0, 64, 69
1, 687468, Control_c, 0, 64, 72
1, 687483, Control_c, 0, 64, 73
1, 687498, Control_c, 0, 64, 76
1, 687512, Control_c, 0, 64, 78
1, 687512, Control_c, 0, 67, 121
1, 687527, Control_c, 0, 64, 80
1, 687542, Control_c, 0, 64, 82
1, 687557, Control_c, 0, 64, 82
1, 687579, Note_off_c, 0, 59, 60
1, 687705, Control_c, 0, 64, 82
1, 687734, Control_c, 0, 64, 81
1, 687749, Control_c, 0, 64, 81
1, 687764, Control_c, 0, 64, 80
1, 687779, Control_c, 0, 64, 79
1, 687794, Control_c, 0, 64, 78
1, 687808, Control_c, 0, 64, 76
1, 687823, Control_c, 0, 64, 73
1, 687831, Note_on_c, 0, 58, 40
1, 687838, Control_c, 0, 64, 69
1, 687842, Note_on_c, 0, 49, 36
1, 687853, Control_c, 0, 64, 65
1, 687868, Control_c, 0, 64, 60
1, 687883, Control_c, 0, 64, 54
1, 687888, Note_off_c, 0, 50, 39
1, 687912, Control_c, 0, 64, 58
1, 687927, Control_c, 0, 64, 60
1, 687942, Control_c, 0, 64, 61
1, 687956, Control_c, 0, 64, 63
1, 687970, Control_c, 0, 64, 65
1, 687985, Control_c, 0, 64, 67
1, 688000, Control_c, 0, 64, 69
1, 688015, Control_c, 0, 64, 71
1, 688029, Control_c, 0, 64, 73
1, 688029, Control_c, 0, 67, 121
1, 688044, Control_c, 0, 64, 75
1, 688059, Control_c, 0, 64, 77
1, 688074, Control_c, 0, 64, 78
1, 688097, Control_c, 0, 64, 79
1, 688112, Control_c, 0, 64, 80
1, 688127, Control_c, 0, 64, 80
1, 688127, Control_c, 0, 67, 120
1, 688142, Control_c, 0, 64, 81
1, 688209, Note_on_c, 0, 64, 45
1, 688216, Control_c, 0, 64, 81
1, 688226, Note_off_c, 0, 62, 32
1, 688248, Note_off_c, 0, 67, 40
1, 688274, Note_off_c, 0, 43, 34
1, 688315, Note_off_c, 0, 58, 37
1, 688320, Control_c, 0, 64, 81
1, 688364, Control_c, 0, 64, 80
1, 688393, Control_c, 0, 64, 80
1, 688423, Control_c, 0, 64, 79
1, 688453, Control_c, 0, 64, 79
1, 688467, Control_c, 0, 64, 78
1, 688482, Control_c, 0, 64, 78
1, 688497, Control_c, 0, 64, 77
1, 688512, Control_c, 0, 64, 77
1, 688527, Control_c, 0, 64, 76
1, 688542, Control_c, 0, 64, 75
1, 688557, Control_c, 0, 64, 75
1, 688572, Control_c, 0, 64, 74
1, 688586, Control_c, 0, 64, 73
1, 688590, Note_on_c, 0, 57, 32
1, 688599, Note_on_c, 0, 48, 22
1, 688601, Control_c, 0, 64, 73
1, 688613, Note_on_c, 0, 41, 22
1, 688616, Control_c, 0, 64, 72
1, 688616, Control_c, 0, 67, 121
1, 688631, Control_c, 0, 64, 72
1, 688646, Control_c, 0, 64, 71
1, 688655, Note_off_c, 0, 49, 26
1, 688660, Control_c, 0, 64, 71
1, 688675, Control_c, 0, 64, 70
1, 688690, Control_c, 0, 64, 69
1, 688705, Control_c, 0, 64, 68
1, 688720, Control_c, 0, 64, 65
1, 688734, Control_c, 0, 64, 64
1, 688749, Control_c, 0, 64, 61
1, 688764, Control_c, 0, 64, 58
1, 688778, Control_c, 0, 64, 56
1, 688793, Control_c, 0, 64, 54
1, 688808, Control_c, 0, 64, 53
1, 688823, Control_c, 0, 64, 52
1, 688846, Control_c, 0, 64, 51
1, 688846, Control_c, 0, 67, 121
1, 688860, Control_c, 0, 64, 50
1, 688920, Control_c, 0, 64, 51
1, 688935, Control_c, 0, 64, 52
1, 688950, Control_c, 0, 64, 53
1, 688965, Control_c, 0, 64, 55
1, 688980, Control_c, 0, 64, 57
1, 688995, Control_c, 0, 64, 58
1, 689009, Control_c, 0, 64, 59
1, 689024, Control_c, 0, 64, 60
1, 689039, Control_c, 0, 64, 61
1, 689054, Control_c, 0, 64, 61
1, 689069, Control_c, 0, 64, 62
1, 689083, Control_c, 0, 64, 62
1, 689103, Note_on_c, 0, 65, 46
1, 689111, Note_off_c, 0, 48, 39
1, 689113, Control_c, 0, 64, 63
1, 689128, Control_c, 0, 64, 63
1, 689132, Note_on_c, 0, 47, 24
1, 689143, Control_c, 0, 64, 64
1, 689157, Control_c, 0, 64, 64
1, 689172, Control_c, 0, 64, 65
1, 689187, Control_c, 0, 64, 65
1, 689202, Control_c, 0, 64, 67
1, 689216, Control_c, 0, 64, 68
1, 689229, Note_off_c, 0, 64, 34
1, 689231, Control_c, 0, 64, 70
1, 689246, Control_c, 0, 64, 71
1, 689261, Control_c, 0, 64, 73
1, 689276, Control_c, 0, 64, 75
1, 689290, Control_c, 0, 64, 78
1, 689295, Note_off_c, 0, 41, 35
1, 689305, Control_c, 0, 64, 81
1, 689320, Control_c, 0, 64, 83
1, 689335, Control_c, 0, 64, 84
1, 689350, Control_c, 0, 64, 86
1, 689364, Control_c, 0, 64, 86
1, 689379, Control_c, 0, 64, 87
1, 689390, Note_off_c, 0, 57, 33
1, 689394, Control_c, 0, 64, 88
1, 689473, Note_off_c, 0, 47, 40
1, 689527, Control_c, 0, 67, 122
1, 689654, Control_c, 0, 64, 87
1, 689713, Control_c, 0, 64, 87
1, 689743, Control_c, 0, 64, 86
1, 689758, Control_c, 0, 64, 86
1, 689788, Control_c, 0, 64, 85
1, 689818, Control_c, 0, 64, 85
1, 689832, Control_c, 0, 64, 84
1, 689862, Control_c, 0, 64, 83
1, 689871, Note_on_c, 0, 64, 37
1, 689877, Control_c, 0, 64, 83
1, 689880, Note_on_c, 0, 60, 26
1, 689885, Note_on_c, 0, 55, 28
1, 689892, Note_on_c, 0, 36, 29
1, 689892, Control_c, 0, 64, 82
1, 689896, Note_on_c, 0, 48, 19
1, 689906, Control_c, 0, 64, 81
1, 689921, Control_c, 0, 64, 79
1, 689936, Control_c, 0, 64, 76
1, 689949, Note_off_c, 0, 65, 25
1, 689951, Control_c, 0, 64, 72
1, 689965, Control_c, 0, 64, 66
1, 689980, Control_c, 0, 64, 63
1, 689995, Control_c, 0, 64, 55
1, 690010, Control_c, 0, 64, 46
1, 690025, Control_c, 0, 64, 41
1, 690039, Control_c, 0, 64, 40
1, 690187, Control_c, 0, 64, 41
1, 690203, Control_c, 0, 64, 43
1, 690203, Control_c, 0, 67, 122
1, 690218, Control_c, 0, 64, 45
1, 690232, Control_c, 0, 64, 47
1, 690247, Control_c, 0, 64, 49
1, 690262, Control_c, 0, 64, 50
1, 690277, Control_c, 0, 64, 53
1, 690292, Control_c, 0, 64, 56
1, 690306, Control_c, 0, 64, 58
1, 690321, Control_c, 0, 64, 60
1, 690344, Control_c, 0, 64, 61
1, 690358, Control_c, 0, 64, 62
1, 690373, Control_c, 0, 64, 63
1, 690388, Control_c, 0, 64, 64
1, 690403, Control_c, 0, 64, 65
1, 690418, Control_c, 0, 64, 66
1, 690432, Control_c, 0, 64, 67
1, 690447, Control_c, 0, 64, 68
1, 690462, Control_c, 0, 64, 69
1, 690477, Control_c, 0, 64, 70
1, 690491, Control_c, 0, 64, 72
1, 690508, Control_c, 0, 64, 74
1, 690523, Control_c, 0, 64, 76
1, 690537, Control_c, 0, 64, 78
1, 690552, Control_c, 0, 64, 80
1, 690567, Control_c, 0, 64, 81
1, 690581, Control_c, 0, 64, 83
1, 690596, Control_c, 0, 64, 84
1, 690611, Control_c, 0, 64, 85
1, 690626, Control_c, 0, 64, 87
1, 690641, Control_c, 0, 64, 89
1, 690655, Control_c, 0, 64, 90
1, 690670, Control_c, 0, 64, 91
1, 690685, Control_c, 0, 64, 91
1, 690687, Note_off_c, 0, 48, 14
1, 690715, Control_c, 0, 64, 92
1, 690758, Note_off_c, 0, 60, 30
1, 690885, Note_off_c, 0, 55, 38
1, 690966, Note_off_c, 0, 36, 29
1, 690981, Control_c, 0, 64, 91
1, 691026, Control_c, 0, 64, 91
1, 691055, Control_c, 0, 64, 90
1, 691093, Control_c, 0, 64, 90
1, 691122, Control_c, 0, 64, 89
1, 691152, Control_c, 0, 64, 89
1, 691181, Control_c, 0, 64, 88
1, 691196, Control_c, 0, 64, 87
1, 691211, Control_c, 0, 64, 87
1, 691226, Control_c, 0, 64, 86
1, 691241, Control_c, 0, 64, 85
1, 691255, Control_c, 0, 64, 84
1, 691270, Control_c, 0, 64, 83
1, 691276, Note_on_c, 0, 62, 38
1, 691285, Control_c, 0, 64, 82
1, 691297, Note_on_c, 0, 33, 39
1, 691298, Note_on_c, 0, 60, 30
1, 691300, Control_c, 0, 64, 81
1, 691301, Note_on_c, 0, 53, 29
1, 691314, Note_on_c, 0, 48, 17
1, 691316, Control_c, 0, 64, 79
1, 691326, Note_off_c, 0, 64, 24
1, 691331, Control_c, 0, 64, 77
1, 691346, Control_c, 0, 64, 74
1, 691360, Control_c, 0, 64, 70
1, 691375, Control_c, 0, 64, 66
1, 691390, Control_c, 0, 64, 61
1, 691404, Control_c, 0, 64, 54
1, 691419, Control_c, 0, 64, 50
1, 691434, Control_c, 0, 64, 49
1, 691449, Control_c, 0, 64, 49
1, 691464, Control_c, 0, 64, 47
1, 691478, Control_c, 0, 64, 45
1, 691493, Control_c, 0, 64, 42
1, 691508, Control_c, 0, 64, 39
1, 691523, Control_c, 0, 64, 38
1, 691612, Control_c, 0, 64, 40
1, 691612, Control_c, 0, 67, 123
1, 691627, Control_c, 0, 64, 41
1, 691642, Control_c, 0, 64, 42
1, 691657, Control_c, 0, 64, 44
1, 691672, Control_c, 0, 64, 49
1, 691686, Control_c, 0, 64, 53
1, 691699, Control_c, 0, 64, 55
1, 691714, Control_c, 0, 64, 56
1, 691728, Control_c, 0, 64, 58
1, 691743, Control_c, 0, 64, 60
1, 691758, Control_c, 0, 64, 62
1, 691773, Control_c, 0, 64, 63
1, 691788, Control_c, 0, 64, 64
1, 691803, Control_c, 0, 64, 64
1, 691818, Control_c, 0, 64, 65
1, 691840, Control_c, 0, 64, 66
1, 691855, Control_c, 0, 64, 67
1, 691870, Control_c, 0, 64, 68
1, 691884, Control_c, 0, 64, 69
1, 691899, Control_c, 0, 64, 70
1, 691914, Control_c, 0, 64, 71
1, 691928, Control_c, 0, 64, 73
1, 691943, Control_c, 0, 64, 75
1, 691958, Control_c, 0, 64, 77
1, 691973, Control_c, 0, 64, 78
1, 691988, Control_c, 0, 64, 80
1, 692003, Control_c, 0, 64, 81
1, 692017, Control_c, 0, 64, 83
1, 692032, Control_c, 0, 64, 84
1, 692047, Control_c, 0, 64, 85
1, 692216, Note_off_c, 0, 33, 21
1, 692314, Note_off_c, 0, 60, 18
1, 692320, Note_off_c, 0, 48, 18
1, 692404, Control_c, 0, 67, 123
1, 692448, Control_c, 0, 67, 124
1, 692478, Control_c, 0, 64, 84
1, 692478, Control_c, 0, 67, 124
1, 692483, Note_off_c, 0, 53, 20
1, 692507, Control_c, 0, 67, 125
1, 692522, Control_c, 0, 64, 84
1, 692522, Control_c, 0, 67, 127
1, 692537, Control_c, 0, 64, 83
1, 692604, Control_c, 0, 64, 83
1, 692678, Control_c, 0, 64, 82
1, 692737, Control_c, 0, 64, 82
1, 692781, Control_c, 0, 64, 81
1, 692885, Control_c, 0, 64, 81
1, 692989, Control_c, 0, 64, 80
1, 693034, Control_c, 0, 64, 80
1, 693079, Control_c, 0, 64, 79
1, 693138, Control_c, 0, 64, 79
1, 693182, Control_c, 0, 64, 78
1, 693227, Control_c, 0, 64, 78
1, 693256, Control_c, 0, 64, 77
1, 693286, Control_c, 0, 64, 76
1, 693300, Control_c, 0, 64, 76
1, 693302, Note_on_c, 0, 60, 17
1, 693305, Note_on_c, 0, 64, 32
1, 693311, Note_on_c, 0, 48, 24
1, 693315, Control_c, 0, 64, 75
1, 693330, Note_on_c, 0, 55, 26
1, 693335, Note_on_c, 0, 36, 24
1, 693338, Control_c, 0, 64, 73
1, 693353, Control_c, 0, 64, 71
1, 693368, Control_c, 0, 64, 68
1, 693382, Control_c, 0, 64, 65
1, 693397, Control_c, 0, 64, 62
1, 693412, Control_c, 0, 64, 57
1, 693427, Control_c, 0, 64, 53
1, 693442, Control_c, 0, 64, 48
1, 693456, Control_c, 0, 64, 43
1, 693471, Control_c, 0, 64, 32
1, 693486, Control_c, 0, 64, 0
1, 693491, Note_off_c, 0, 62, 33
1, 694035, Control_c, 0, 64, 26
1, 694050, Control_c, 0, 64, 47
1, 694065, Control_c, 0, 64, 55
1, 694086, Control_c, 0, 64, 58
1, 694101, Control_c, 0, 64, 60
1, 694116, Control_c, 0, 64, 62
1, 694131, Control_c, 0, 64, 63
1, 694146, Control_c, 0, 64, 64
1, 694161, Control_c, 0, 64, 65
1, 694176, Control_c, 0, 64, 66
1, 694191, Control_c, 0, 64, 66
1, 694205, Control_c, 0, 64, 67
1, 694220, Control_c, 0, 64, 68
1, 694235, Control_c, 0, 64, 68
1, 694250, Control_c, 0, 64, 69
1, 694265, Control_c, 0, 64, 70
1, 694279, Control_c, 0, 64, 70
1, 694294, Control_c, 0, 64, 71
1, 694309, Control_c, 0, 64, 72
1, 694323, Control_c, 0, 64, 73
1, 694338, Control_c, 0, 64, 74
1, 694353, Control_c, 0, 64, 75
1, 694368, Control_c, 0, 64, 77
1, 694383, Control_c, 0, 64, 78
1, 694397, Control_c, 0, 64, 79
1, 694412, Control_c, 0, 64, 80
1, 694427, Control_c, 0, 64, 80
1, 694517, Control_c, 0, 64, 81
1, 694547, Control_c, 0, 64, 81
1, 694561, Control_c, 0, 64, 82
1, 694591, Control_c, 0, 64, 82
1, 694606, Control_c, 0, 64, 83
1, 694620, Control_c, 0, 64, 83
1, 694665, Control_c, 0, 64, 84
1, 694709, Control_c, 0, 64, 84
1, 694835, Control_c, 0, 67, 125
1, 694850, Control_c, 0, 67, 122
1, 694865, Control_c, 0, 67, 120
1, 694880, Control_c, 0, 67, 117
1, 694895, Control_c, 0, 67, 114
1, 694909, Control_c, 0, 67, 111
1, 694924, Control_c, 0, 67, 109
1, 694939, Control_c, 0, 67, 105
1, 694954, Control_c, 0, 67, 103
1, 694969, Control_c, 0, 67, 101
1, 694983, Control_c, 0, 67, 98
1, 694998, Control_c, 0, 67, 95
1, 695013, Control_c, 0, 67, 92
1, 695028, Control_c, 0, 64, 84
1, 695028, Control_c, 0, 67, 88
1, 695043, Control_c, 0, 67, 85
1, 695058, Control_c, 0, 67, 82
1, 695073, Control_c, 0, 67, 79
1, 695088, Control_c, 0, 67, 75
1, 695102, Control_c, 0, 67, 72
1, 695117, Control_c, 0, 64, 83
1, 695117, Control_c, 0, 67, 68
1, 695132, Control_c, 0, 67, 64
1, 695146, Control_c, 0, 67, 62
1, 695161, Control_c, 0, 67, 59
1, 695176, Control_c, 0, 67, 57
1, 695191, Control_c, 0, 67, 55
1, 695206, Control_c, 0, 67, 52
1, 695220, Control_c, 0, 67, 49
1, 695235, Control_c, 0, 67, 46
1, 695250, Control_c, 0, 67, 44
1, 695265, Control_c, 0, 67, 41
1, 695279, Control_c, 0, 67, 39
1, 695296, Control_c, 0, 67, 36
1, 695311, Control_c, 0, 67, 34
1, 695325, Control_c, 0, 67, 32
1, 695340, Control_c, 0, 67, 30
1, 695355, Control_c, 0, 67, 28
1, 695369, Control_c, 0, 67, 25
1, 695384, Control_c, 0, 67, 20
1, 695399, Control_c, 0, 67, 15
1, 695414, Control_c, 0, 67, 11
1, 695429, Control_c, 0, 67, 0
1, 695458, Control_c, 0, 64, 83
1, 695518, Control_c, 0, 64, 82
1, 695562, Control_c, 0, 64, 82
1, 695614, Control_c, 0, 64, 81
1, 695658, Control_c, 0, 64, 81
1, 695700, Note_off_c, 0, 48, 1
1, 695717, Control_c, 0, 64, 80
1, 695762, Control_c, 0, 64, 80
1, 695881, Control_c, 0, 64, 79
1, 696014, Control_c, 0, 64, 79
1, 696058, Control_c, 0, 64, 78
1, 696104, Control_c, 0, 64, 78
1, 696133, Control_c, 0, 64, 77
1, 696192, Control_c, 0, 64, 77
1, 696207, Control_c, 0, 64, 76
1, 696214, Note_off_c, 0, 55, 23
1, 696237, Control_c, 0, 64, 76
1, 696252, Control_c, 0, 64, 75
1, 696266, Control_c, 0, 64, 75
1, 696268, Note_off_c, 0, 64, 1
1, 696281, Control_c, 0, 64, 74
1, 696296, Control_c, 0, 64, 74
1, 696301, Note_off_c, 0, 36, 13
1, 696311, Control_c, 0, 64, 73
1, 696328, Note_off_c, 0, 60, 32
1, 696333, Control_c, 0, 64, 72
1, 696363, Control_c, 0, 64, 72
1, 696378, Control_c, 0, 64, 71
1, 696393, Control_c, 0, 64, 71
1, 696407, Control_c, 0, 64, 70
1, 696422, Control_c, 0, 64, 70
1, 696511, Control_c, 0, 64, 69
1, 696540, Control_c, 0, 64, 69
1, 696570, Control_c, 0, 64, 68
1, 696585, Control_c, 0, 64, 67
1, 696599, Control_c, 0, 64, 66
1, 696614, Control_c, 0, 64, 65
1, 696629, Control_c, 0, 64, 64
1, 696644, Control_c, 0, 64, 62
1, 696659, Control_c, 0, 64, 51
1, 696674, Control_c, 0, 64, 0
1, 696830, Note_on_c, 0, 41, 112
1, 696837, Note_on_c, 0, 29, 91
1, 696849, Note_on_c, 0, 32, 74
1, 696851, Control_c, 0, 64, 127
1, 696873, Note_on_c, 0, 34, 22
1, 696919, Note_off_c, 0, 34, 47
1, 696933, Note_off_c, 0, 29, 64
1, 696938, Note_on_c, 0, 90, 35
1, 696943, Note_off_c, 0, 32, 60
1, 696957, Poly_aftertouch_c, 0, 36, 0
1, 696962, Note_off_c, 0, 41, 66
1, 696971, Note_off_c, 0, 90, 29
1, 697003, Note_on_c, 0, 89, 94
1, 697085, Note_off_c, 0, 89, 57
1, 697137, Note_on_c, 0, 88, 99
1, 697158, Note_on_c, 0, 89, 47
1, 697180, Note_off_c, 0, 89, 59
1, 697201, Note_off_c, 0, 88, 62
1, 697228, Note_on_c, 0, 67, 111
1, 697231, Note_on_c, 0, 65, 90
1, 697231, Note_on_c, 0, 87, 110
1, 697234, Note_on_c, 0, 61, 88
1, 697236, Note_on_c, 0, 55, 83
1, 697236, Note_on_c, 0, 58, 85
1, 697262, Note_off_c, 0, 55, 67
1, 697281, Note_off_c, 0, 58, 65
1, 697284, Note_off_c, 0, 67, 67
1, 697287, Note_off_c, 0, 61, 64
1, 697288, Note_off_c, 0, 65, 61
1, 697342, Note_off_c, 0, 87, 63
1, 697346, Note_on_c, 0, 85, 100
1, 697414, Note_off_c, 0, 85, 69
1, 697436, Note_on_c, 0, 82, 103
1, 697473, Note_off_c, 0, 82, 67
1, 697510, Note_on_c, 0, 79, 86
1, 697538, Note_on_c, 0, 77, 44
1, 697571, Note_off_c, 0, 77, 0
1, 697571, Note_on_c, 0, 77, 48
1, 697580, Note_off_c, 0, 79, 65
1, 697653, Note_on_c, 0, 76, 85
1, 697667, Note_off_c, 0, 77, 64
1, 697685, Note_off_c, 0, 76, 63
1, 697708, Note_on_c, 0, 75, 83
1, 697747, Note_on_c, 0, 73, 90
1, 697770, Note_off_c, 0, 75, 66
1, 697802, Note_on_c, 0, 70, 92
1, 697823, Note_off_c, 0, 73, 61
1, 697832, Note_off_c, 0, 70, 64
1, 697847, Note_on_c, 0, 67, 85
1, 697908, Note_off_c, 0, 67, 65
1, 697911, Note_on_c, 0, 65, 85
1, 697965, Note_on_c, 0, 64, 82
1, 697976, Note_off_c, 0, 65, 61
1, 697997, Note_on_c, 0, 63, 82
1, 698010, Note_off_c, 0, 64, 68
1, 698018, Note_on_c, 0, 61, 80
1, 698069, Note_on_c, 0, 58, 79
1, 698075, Note_off_c, 0, 63, 60
1, 698099, Note_on_c, 0, 55, 83
1, 698104, Note_off_c, 0, 61, 65
1, 698133, Note_off_c, 0, 58, 66
1, 698141, Note_off_c, 0, 55, 66
1, 698187, Control_c, 0, 64, 85
1, 698202, Control_c, 0, 64, 65
1, 698216, Note_on_c, 0, 41, 112
1, 698217, Control_c, 0, 64, 67
1, 698218, Note_on_c, 0, 50, 106
1, 698221, Note_on_c, 0, 58, 97
1, 698222, Note_on_c, 0, 62, 91
1, 698224, Note_on_c, 0, 34, 93
1, 698227, Note_on_c, 0, 53, 86
1, 698232, Control_c, 0, 64, 90
1, 698238, Note_on_c, 0, 37, 63
1, 698239, Note_on_c, 0, 56, 69
1, 698246, Control_c, 0, 64, 127
1, 698253, Note_on_c, 0, 40, 42
1, 698254, Note_off_c, 0, 40, 127
1, 698256, Note_off_c, 0, 53, 66
1, 698259, Note_off_c, 0, 50, 70
1, 698260, Note_off_c, 0, 56, 63
1, 698265, Note_off_c, 0, 58, 67
1, 698265, Note_off_c, 0, 62, 64
1, 698271, Note_off_c, 0, 34, 62
1, 698271, Note_off_c, 0, 37, 63
1, 698272, Note_off_c, 0, 41, 65
1, 698307, Poly_aftertouch_c, 0, 39, 0
1, 698335, Control_c, 0, 64, 78
1, 698338, Poly_aftertouch_c, 0, 39, 0
1, 698350, Control_c, 0, 64, 0
1, 698918, Note_on_c, 0, 50, 103
1, 698920, Note_on_c, 0, 58, 94
1, 698921, Note_on_c, 0, 62, 90
1, 698921, Note_on_c, 0, 41, 111
1, 698921, Note_on_c, 0, 53, 91
1, 698926, Note_on_c, 0, 34, 97
1, 698947, Note_off_c, 0, 53, 72
1, 698948, Note_on_c, 0, 40, 59
1, 698949, Note_off_c, 0, 40, 127
1, 698950, Control_c, 0, 64, 71
1, 698955, Note_off_c, 0, 50, 73
1, 698955, Note_off_c, 0, 41, 67
1, 698963, Note_off_c, 0, 58, 67
1, 698965, Control_c, 0, 64, 127
1, 698966, Note_off_c, 0, 62, 60
1, 698968, Note_off_c, 0, 34, 60
1, 699005, Poly_aftertouch_c, 0, 37, 127
1, 699024, Control_c, 0, 64, 76
1, 699039, Control_c, 0, 64, 0
1, 699041, Poly_aftertouch_c, 0, 37, 0
1, 699639, Note_on_c, 0, 41, 92
1, 699640, Note_on_c, 0, 58, 81
1, 699642, Note_on_c, 0, 50, 87
1, 699644, Note_on_c, 0, 53, 81
1, 699646, Note_on_c, 0, 34, 80
1, 699647, Note_on_c, 0, 62, 73
1, 699666, Note_off_c, 0, 41, 68
1, 699666, Note_off_c, 0, 50, 72
1, 699671, Note_off_c, 0, 53, 70
1, 699673, Note_off_c, 0, 62, 67
1, 699675, Note_off_c, 0, 58, 61
1, 699677, Note_off_c, 0, 34, 66
1, 699721, Note_on_c, 0, 41, 98
1, 699721, Note_on_c, 0, 50, 94
1, 699725, Note_on_c, 0, 53, 86
1, 699728, Note_on_c, 0, 34, 77
1, 699729, Note_on_c, 0, 58, 78
1, 699732, Note_on_c, 0, 62, 74
1, 699745, Note_off_c, 0, 50, 71
1, 699750, Note_off_c, 0, 53, 70
1, 699751, Note_off_c, 0, 41, 63
1, 699755, Note_off_c, 0, 58, 68
1, 699756, Note_off_c, 0, 62, 66
1, 699757, Note_off_c, 0, 34, 64
1, 699807, Note_on_c, 0, 41, 93
1, 699807, Note_on_c, 0, 50, 99
1, 699808, Note_on_c, 0, 34, 83
1, 699808, Note_on_c, 0, 62, 82
1, 699810, Note_on_c, 0, 58, 85
1, 699813, Note_on_c, 0, 53, 85
1, 699825, Note_off_c, 0, 34, 67
1, 699835, Note_off_c, 0, 41, 65
1, 699837, Note_off_c, 0, 50, 66
1, 699837, Note_off_c, 0, 62, 60
1, 699837, Note_off_c, 0, 53, 70
1, 699842, Note_off_c, 0, 58, 63
1, 699851, Note_on_c, 0, 35, 26
1, 699892, Note_off_c, 0, 35, 55
1, 700027, Note_on_c, 0, 50, 105
1, 700031, Note_on_c, 0, 41, 105
1, 700031, Note_on_c, 0, 58, 95
1, 700031, Note_on_c, 0, 62, 94
1, 700032, Note_on_c, 0, 53, 88
1, 700034, Note_on_c, 0, 34, 90
1, 700048, Note_off_c, 0, 50, 71
1, 700054, Note_off_c, 0, 53, 70
1, 700054, Note_off_c, 0, 58, 69
1, 700055, Control_c, 0, 64, 67
1, 700057, Note_off_c, 0, 62, 66
1, 700066, Note_off_c, 0, 34, 69
1, 700072, Note_off_c, 0, 41, 69
1, 700077, Control_c, 0, 64, 113
1, 700090, Note_on_c, 0, 37, 4
1, 700093, Control_c, 0, 64, 127
1, 700137, Poly_aftertouch_c, 0, 40, 0
1, 700137, Note_off_c, 0, 37, 49
1, 700137, Control_c, 0, 64, 92
1, 700152, Control_c, 0, 64, 0
1, 700156, Note_on_c, 0, 53, 10
1, 700165, Poly_aftertouch_c, 0, 40, 0
1, 700192, Note_off_c, 0, 53, 28
1, 700551, Note_on_c, 0, 50, 87
1, 700552, Note_on_c, 0, 58, 80
1, 700554, Note_on_c, 0, 41, 85
1, 700555, Note_on_c, 0, 53, 77
1, 700558, Note_on_c, 0, 34, 82
1, 700558, Note_on_c, 0, 62, 75
1, 700574, Note_off_c, 0, 50, 71
1, 700579, Note_off_c, 0, 53, 68
1, 700581, Note_off_c, 0, 58, 63
1, 700583, Note_off_c, 0, 62, 66
1, 700584, Note_off_c, 0, 41, 67
1, 700586, Note_on_c, 0, 43, 43
1, 700587, Note_off_c, 0, 43, 127
1, 700587, Note_off_c, 0, 34, 67
1, 700629, Note_on_c, 0, 50, 96
1, 700632, Note_on_c, 0, 53, 85
1, 700638, Note_on_c, 0, 58, 80
1, 700640, Note_on_c, 0, 62, 78
1, 700641, Note_on_c, 0, 41, 85
1, 700665, Note_off_c, 0, 50, 65
1, 700665, Note_off_c, 0, 62, 67
1, 700669, Note_off_c, 0, 58, 65
1, 700670, Note_off_c, 0, 41, 67
1, 700671, Note_on_c, 0, 34, 39
1, 700671, Note_on_c, 0, 40, 48
1, 700675, Note_off_c, 0, 53, 63
1, 700702, Note_off_c, 0, 40, 56
1, 700722, Note_off_c, 0, 34, 0
1, 700722, Note_on_c, 0, 34, 63
1, 700724, Note_on_c, 0, 41, 97
1, 700725, Note_on_c, 0, 50, 102
1, 700728, Note_on_c, 0, 53, 87
1, 700728, Note_on_c, 0, 58, 88
1, 700732, Note_on_c, 0, 62, 86
1, 700760, Note_off_c, 0, 53, 64
1, 700762, Note_off_c, 0, 50, 69
1, 700766, Note_off_c, 0, 41, 65
1, 700772, Note_off_c, 0, 34, 62
1, 700774, Control_c, 0, 64, 88
1, 700776, Note_off_c, 0, 58, 67
1, 700781, Note_off_c, 0, 62, 59
1, 700789, Control_c, 0, 64, 127
1, 700901, Control_c, 0, 64, 81
1, 700915, Control_c, 0, 64, 0
1, 701180, Note_on_c, 0, 34, 51
1, 701184, Note_on_c, 0, 38, 45
1, 701186, Note_on_c, 0, 58, 57
1, 701191, Note_on_c, 0, 50, 46
1, 701201, Note_on_c, 0, 62, 29
1, 701214, Note_off_c, 0, 38, 57
1, 701217, Note_off_c, 0, 58, 65
1, 701220, Note_off_c, 0, 34, 59
1, 701225, Note_off_c, 0, 50, 56
1, 701237, Note_off_c, 0, 62, 45
1, 701308, Note_on_c, 0, 40, 64
1, 701310, Note_on_c, 0, 50, 57
1, 701312, Note_on_c, 0, 58, 59
1, 701319, Note_on_c, 0, 62, 49
1, 701341, Note_off_c, 0, 50, 65
1, 701342, Note_off_c, 0, 40, 64
1, 701345, Note_off_c, 0, 62, 57
1, 701358, Note_off_c, 0, 58, 61
1, 701424, Note_on_c, 0, 57, 62
1, 701434, Note_on_c, 0, 38, 51
1, 701443, Note_on_c, 0, 34, 35
1, 701455, Note_off_c, 0, 57, 64
1, 701473, Note_off_c, 0, 38, 60
1, 701481, Note_off_c, 0, 34, 57
1, 701509, Note_on_c, 0, 41, 66
1, 701518, Note_on_c, 0, 50, 63
1, 701519, Note_on_c, 0, 58, 62
1, 701524, Note_on_c, 0, 62, 50
1, 701541, Note_off_c, 0, 50, 62
1, 701543, Note_off_c, 0, 41, 64
1, 701549, Note_off_c, 0, 62, 58
1, 701551, Note_off_c, 0, 58, 64
1, 701611, Note_on_c, 0, 56, 81
1, 701616, Note_on_c, 0, 34, 53
1, 701616, Note_on_c, 0, 38, 60
1, 701659, Note_off_c, 0, 56, 62
1, 701664, Note_off_c, 0, 38, 62
1, 701668, Note_off_c, 0, 34, 59
1, 701704, Note_on_c, 0, 42, 84
1, 701707, Note_on_c, 0, 50, 81
1, 701711, Note_on_c, 0, 58, 77
1, 701711, Note_on_c, 0, 62, 74
1, 701730, Note_off_c, 0, 50, 69
1, 701739, Note_off_c, 0, 62, 63
1, 701742, Note_off_c, 0, 42, 62
1, 701747, Note_off_c, 0, 58, 58
1, 701797, Note_on_c, 0, 38, 82
1, 701801, Note_on_c, 0, 55, 93
1, 701811, Note_on_c, 0, 34, 70
1, 701837, Note_off_c, 0, 55, 68
1, 701853, Note_off_c, 0, 38, 62
1, 701855, Note_off_c, 0, 34, 56
1, 701892, Note_on_c, 0, 50, 93
1, 701897, Note_on_c, 0, 41, 85
1, 701898, Note_on_c, 0, 58, 83
1, 701899, Note_on_c, 0, 62, 75
1, 701915, Note_off_c, 0, 50, 72
1, 701931, Note_off_c, 0, 62, 60
1, 701932, Note_off_c, 0, 58, 57
1, 701943, Note_off_c, 0, 41, 64
1, 701979, Note_on_c, 0, 38, 77
1, 701986, Note_on_c, 0, 54, 95
1, 701998, Note_on_c, 0, 34, 66
1, 702029, Note_off_c, 0, 54, 69
1, 702035, Note_off_c, 0, 38, 60
1, 702060, Note_off_c, 0, 34, 61
1, 702077, Note_on_c, 0, 40, 89
1, 702078, Note_on_c, 0, 50, 99
1, 702081, Note_on_c, 0, 62, 91
1, 702086, Note_on_c, 0, 58, 81
1, 702106, Note_off_c, 0, 50, 67
1, 702111, Note_off_c, 0, 40, 68
1, 702130, Note_off_c, 0, 62, 60
1, 702140, Note_off_c, 0, 58, 58
1, 702178, Note_on_c, 0, 22, 92
1, 702178, Note_on_c, 0, 53, 93
1, 702251, Note_off_c, 0, 53, 67
1, 702304, Note_on_c, 0, 54, 86
1, 702305, Note_on_c, 0, 49, 100
1, 702313, Note_on_c, 0, 61, 91
1, 702314, Note_on_c, 0, 34, 101
1, 702320, Note_on_c, 0, 58, 82
1, 702325, Note_off_c, 0, 22, 63
1, 702337, Note_on_c, 0, 27, 42
1, 702337, Control_c, 0, 64, 61
1, 702340, Note_off_c, 0, 34, 65
1, 702347, Note_off_c, 0, 49, 66
1, 702352, Control_c, 0, 64, 127
1, 702366, Note_off_c, 0, 54, 65
1, 702380, Note_off_c, 0, 27, 52
1, 702380, Note_off_c, 0, 58, 64
1, 702383, Note_off_c, 0, 61, 62
1, 702624, Note_on_c, 0, 42, 89
1, 702628, Note_on_c, 0, 70, 91
1, 702629, Note_on_c, 0, 73, 99
1, 702686, Note_off_c, 0, 42, 64
1, 702770, Note_on_c, 0, 82, 103
1, 702777, Note_on_c, 0, 58, 95
1, 702777, Note_on_c, 0, 78, 90
1, 702811, Note_off_c, 0, 70, 65
1, 702817, Note_off_c, 0, 58, 64
1, 702823, Note_off_c, 0, 73, 56
1, 702830, Note_off_c, 0, 82, 65
1, 702842, Note_off_c, 0, 78, 63
1, 702889, Note_on_c, 0, 49, 84
1, 702950, Note_on_c, 0, 42, 83
1, 702962, Note_off_c, 0, 49, 63
1, 702987, Note_off_c, 0, 42, 64
1, 703045, Note_on_c, 0, 34, 97
1, 703102, Note_off_c, 0, 34, 61
1, 703132, Note_on_c, 0, 61, 97
1, 703133, Note_on_c, 0, 73, 95
1, 703143, Note_on_c, 0, 22, 90
1, 703151, Note_on_c, 0, 70, 57
1, 703155, Note_off_c, 0, 61, 67
1, 703173, Note_off_c, 0, 70, 61
1, 703174, Note_off_c, 0, 73, 65
1, 703280, Control_c, 0, 64, 83
1, 703289, Note_on_c, 0, 70, 84
1, 703291, Note_on_c, 0, 80, 94
1, 703292, Note_on_c, 0, 68, 98
1, 703294, Note_on_c, 0, 34, 100
1, 703296, Control_c, 0, 64, 64
1, 703297, Note_on_c, 0, 77, 82
1, 703309, Note_off_c, 0, 22, 62
1, 703310, Control_c, 0, 64, 61
1, 703325, Control_c, 0, 64, 70
1, 703337, Note_off_c, 0, 34, 61
1, 703340, Control_c, 0, 64, 81
1, 703341, Note_on_c, 0, 78, 26
1, 703342, Note_off_c, 0, 78, 127
1, 703355, Control_c, 0, 64, 101
1, 703370, Control_c, 0, 64, 127
1, 703438, Note_off_c, 0, 80, 61
1, 703461, Note_off_c, 0, 77, 59
1, 703463, Note_off_c, 0, 68, 58
1, 703466, Note_on_c, 0, 42, 70
1, 703486, Note_off_c, 0, 70, 58
1, 703497, Note_off_c, 0, 42, 64
1, 703508, Note_on_c, 0, 44, 47
1, 703539, Note_off_c, 0, 44, 55
1, 703541, Note_on_c, 0, 58, 90
1, 703583, Note_off_c, 0, 58, 65
1, 703618, Note_on_c, 0, 49, 58
1, 703651, Poly_aftertouch_c, 0, 48, 127
1, 703664, Note_on_c, 0, 61, 98
1, 703667, Note_on_c, 0, 73, 96
1, 703670, Note_on_c, 0, 70, 77
1, 703678, Note_on_c, 0, 42, 83
1, 703682, Note_off_c, 0, 61, 72
1, 703689, Note_off_c, 0, 73, 65
1, 703690, Note_off_c, 0, 70, 71
1, 703697, Note_off_c, 0, 49, 62
1, 703703, Poly_aftertouch_c, 0, 48, 0
1, 703710, Note_off_c, 0, 42, 65
1, 703759, Note_on_c, 0, 66, 106
1, 703761, Note_on_c, 0, 78, 102
1, 703768, Note_on_c, 0, 70, 84
1, 703771, Note_on_c, 0, 75, 84
1, 703774, Note_on_c, 0, 34, 94
1, 703840, Note_off_c, 0, 34, 60
1, 703850, Poly_aftertouch_c, 0, 73, 127
1, 703881, Control_c, 0, 64, 74
1, 703896, Control_c, 0, 64, 0
1, 703899, Note_on_c, 0, 22, 83
1, 703918, Note_on_c, 0, 21, 71
1, 703925, Control_c, 0, 64, 29
1, 703940, Control_c, 0, 64, 103
1, 703955, Control_c, 0, 64, 127
1, 703957, Note_off_c, 0, 21, 57
1, 703958, Note_off_c, 0, 78, 63
1, 703980, Note_off_c, 0, 66, 60
1, 703982, Note_on_c, 0, 34, 97
1, 703986, Note_off_c, 0, 75, 61
1, 703987, Note_off_c, 0, 22, 62
1, 703995, Note_off_c, 0, 70, 59
1, 704006, Note_off_c, 0, 34, 61
1, 704011, Poly_aftertouch_c, 0, 73, 0
1, 704016, Poly_aftertouch_c, 0, 26, 127
1, 704054, Poly_aftertouch_c, 0, 26, 0
1, 704109, Note_on_c, 0, 58, 93
1, 704109, Note_on_c, 0, 70, 93
1, 704116, Note_on_c, 0, 66, 74
1, 704121, Note_on_c, 0, 42, 78
1, 704126, Note_off_c, 0, 58, 73
1, 704135, Note_off_c, 0, 66, 70
1, 704148, Note_off_c, 0, 70, 61
1, 704171, Note_off_c, 0, 42, 64
1, 704208, Note_on_c, 0, 65, 101
1, 704209, Note_on_c, 0, 58, 93
1, 704212, Note_on_c, 0, 77, 103
1, 704221, Note_on_c, 0, 68, 73
1, 704226, Note_off_c, 0, 65, 70
1, 704227, Note_off_c, 0, 77, 69
1, 704237, Note_off_c, 0, 68, 67
1, 704245, Note_off_c, 0, 58, 65
1, 704256, Note_on_c, 0, 67, 19
1, 704257, Note_off_c, 0, 67, 127
1, 704257, Poly_aftertouch_c, 0, 44, 0
1, 704283, Note_on_c, 0, 49, 42
1, 704300, Poly_aftertouch_c, 0, 67, 0
1, 704319, Poly_aftertouch_c, 0, 74, 0
1, 704343, Note_on_c, 0, 42, 76
1, 704353, Note_off_c, 0, 49, 63
1, 704367, Note_off_c, 0, 42, 65
1, 704436, Note_on_c, 0, 34, 85
1, 704484, Note_off_c, 0, 34, 58
1, 704484, Poly_aftertouch_c, 0, 70, 0
1, 704525, Note_on_c, 0, 58, 92
1, 704528, Note_on_c, 0, 70, 82
1, 704531, Note_on_c, 0, 22, 86
1, 704543, Note_off_c, 0, 58, 71
1, 704562, Note_off_c, 0, 70, 63
1, 704584, Control_c, 0, 64, 109
1, 704599, Control_c, 0, 64, 67
1, 704613, Control_c, 0, 64, 0
1, 704634, Note_on_c, 0, 63, 104
1, 704637, Note_on_c, 0, 75, 93
1, 704639, Note_on_c, 0, 71, 70
1, 704641, Note_on_c, 0, 34, 88
1, 704647, Note_on_c, 0, 66, 80
1, 704657, Note_off_c, 0, 22, 58
1, 704657, Control_c, 0, 64, 65
1, 704668, Note_off_c, 0, 34, 66
1, 704672, Control_c, 0, 64, 81
1, 704687, Control_c, 0, 64, 127
1, 704781, Note_off_c, 0, 75, 59
1, 704785, Note_on_c, 0, 44, 76
1, 704807, Note_off_c, 0, 71, 58
1, 704808, Note_on_c, 0, 49, 47
1, 704809, Note_off_c, 0, 63, 56
1, 704817, Note_off_c, 0, 66, 55
1, 704827, Note_off_c, 0, 44, 63
1, 704853, Poly_aftertouch_c, 0, 42, 127
1, 704860, Note_on_c, 0, 58, 87
1, 704880, Note_off_c, 0, 49, 56
1, 704883, Poly_aftertouch_c, 0, 42, 0
1, 704898, Note_off_c, 0, 58, 65
1, 704940, Note_on_c, 0, 49, 71
1, 704975, Note_on_c, 0, 58, 95
1, 704981, Note_on_c, 0, 66, 73
1, 704982, Note_on_c, 0, 70, 78
1, 704991, Note_off_c, 0, 58, 72
1, 705004, Note_on_c, 0, 68, 41
1, 705006, Note_off_c, 0, 70, 67
1, 705008, Note_off_c, 0, 66, 67
1, 705014, Note_off_c, 0, 49, 63
1, 705022, Note_on_c, 0, 42, 39
1, 705029, Note_off_c, 0, 68, 58
1, 705034, Note_on_c, 0, 41, 50
1, 705055, Note_off_c, 0, 42, 55
1, 705059, Control_c, 0, 64, 97
1, 705065, Note_off_c, 0, 41, 55
1, 705074, Control_c, 0, 64, 69
1, 705075, Note_on_c, 0, 61, 100
1, 705078, Note_on_c, 0, 73, 94
1, 705083, Note_on_c, 0, 66, 77
1, 705087, Note_on_c, 0, 70, 76
1, 705088, Control_c, 0, 64, 0
1, 705099, Note_on_c, 0, 34, 86
1, 705118, Control_c, 0, 64, 65
1, 705133, Control_c, 0, 64, 77
1, 705142, Note_off_c, 0, 61, 64
1, 705148, Control_c, 0, 64, 98
1, 705154, Note_off_c, 0, 34, 62
1, 705162, Control_c, 0, 64, 127
1, 705173, Note_off_c, 0, 66, 57
1, 705205, Note_off_c, 0, 70, 61
1, 705220, Note_on_c, 0, 22, 91
1, 705223, Note_off_c, 0, 73, 62
1, 705312, Note_on_c, 0, 34, 102
1, 705320, Note_off_c, 0, 22, 62
1, 705333, Note_off_c, 0, 34, 70
1, 705333, Poly_aftertouch_c, 0, 26, 127
1, 705380, Poly_aftertouch_c, 0, 26, 0
1, 705506, Note_on_c, 0, 89, 98
1, 705507, Note_on_c, 0, 82, 92
1, 705508, Note_on_c, 0, 77, 98
1, 705509, Note_on_c, 0, 53, 75
1, 705509, Note_on_c, 0, 86, 90
1, 705516, Note_on_c, 0, 64, 70
1, 705521, Note_on_c, 0, 55, 78
1, 705522, Note_on_c, 0, 62, 74
1, 705531, Note_on_c, 0, 59, 63
1, 705565, Note_off_c, 0, 55, 0
1, 705565, Note_on_c, 0, 55, 32
1, 705569, Control_c, 0, 64, 99
1, 705584, Control_c, 0, 64, 74
1, 705599, Control_c, 0, 64, 0
1, 705600, Note_off_c, 0, 89, 63
1, 705610, Poly_aftertouch_c, 0, 58, 127
1, 705610, Note_off_c, 0, 86, 65
1, 705612, Note_off_c, 0, 77, 64
1, 705631, Note_off_c, 0, 59, 62
1, 705631, Note_off_c, 0, 64, 64
1, 705631, Note_off_c, 0, 82, 63
1, 705636, Note_off_c, 0, 53, 64
1, 705639, Note_off_c, 0, 62, 64
1, 705644, Poly_aftertouch_c, 0, 58, 0
1, 705658, Control_c, 0, 64, 71
1, 705660, Note_off_c, 0, 55, 47
1, 705670, Note_on_c, 0, 65, 86
1, 705673, Control_c, 0, 64, 127
1, 705679, Note_on_c, 0, 74, 106
1, 705679, Note_on_c, 0, 86, 101
1, 705681, Note_on_c, 0, 82, 91
1, 705728, Note_off_c, 0, 74, 60
1, 705734, Note_off_c, 0, 86, 64
1, 705747, Note_off_c, 0, 65, 50
1, 705758, Note_off_c, 0, 82, 64
1, 705768, Note_on_c, 0, 64, 71
1, 705834, Note_off_c, 0, 64, 65
1, 705836, Note_on_c, 0, 63, 73
1, 705899, Note_off_c, 0, 63, 62
1, 705911, Note_on_c, 0, 62, 79
1, 705969, Note_off_c, 0, 62, 59
1, 705982, Note_on_c, 0, 58, 81
1, 706058, Note_on_c, 0, 54, 74
1, 706063, Note_off_c, 0, 58, 64
1, 706111, Control_c, 0, 64, 122
1, 706126, Control_c, 0, 64, 75
1, 706141, Control_c, 0, 64, 0
1, 706142, Note_off_c, 0, 54, 65
1, 706155, Note_on_c, 0, 65, 82
1, 706156, Note_on_c, 0, 53, 79
1, 706162, Note_on_c, 0, 62, 70
1, 706165, Note_on_c, 0, 58, 71
1, 706200, Control_c, 0, 64, 64
1, 706215, Note_off_c, 0, 53, 60
1, 706215, Control_c, 0, 64, 78
1, 706229, Control_c, 0, 64, 98
1, 706237, Note_on_c, 0, 52, 69
1, 706244, Control_c, 0, 64, 127
1, 706275, Note_off_c, 0, 58, 61
1, 706282, Note_off_c, 0, 65, 59
1, 706289, Note_off_c, 0, 62, 58
1, 706308, Note_on_c, 0, 51, 69
1, 706310, Note_off_c, 0, 52, 61
1, 706348, Control_c, 0, 64, 121
1, 706363, Control_c, 0, 64, 81
1, 706372, Note_off_c, 0, 51, 65
1, 706377, Control_c, 0, 64, 58
1, 706382, Note_on_c, 0, 50, 82
1, 706388, Note_on_c, 0, 64, 91
1, 706391, Note_on_c, 0, 55, 82
1, 706392, Note_on_c, 0, 52, 88
1, 706392, Control_c, 0, 64, 0
1, 706407, Control_c, 0, 64, 61
1, 706422, Control_c, 0, 64, 71
1, 706436, Note_off_c, 0, 50, 63
1, 706436, Control_c, 0, 64, 85
1, 706451, Control_c, 0, 64, 127
1, 706464, Note_on_c, 0, 48, 81
1, 706492, Note_off_c, 0, 64, 63
1, 706495, Note_off_c, 0, 52, 59
1, 706526, Control_c, 0, 64, 91
1, 706531, Note_off_c, 0, 48, 64
1, 706535, Note_off_c, 0, 55, 57
1, 706537, Note_on_c, 0, 46, 78
1, 706541, Control_c, 0, 64, 65
1, 706556, Control_c, 0, 64, 0
1, 706571, Control_c, 0, 64, 17
1, 706586, Control_c, 0, 64, 72
1, 706597, Note_off_c, 0, 46, 64
1, 706600, Control_c, 0, 64, 127
1, 706608, Note_on_c, 0, 45, 91
1, 706620, Note_on_c, 0, 57, 73
1, 706621, Note_on_c, 0, 51, 86
1, 706623, Note_on_c, 0, 63, 81
1, 706646, Note_off_c, 0, 51, 70
1, 706660, Control_c, 0, 64, 85
1, 706672, Note_off_c, 0, 45, 61
1, 706675, Control_c, 0, 64, 0
1, 706676, Note_off_c, 0, 63, 61
1, 706678, Note_on_c, 0, 43, 78
1, 706682, Note_off_c, 0, 57, 56
1, 706762, Note_off_c, 0, 43, 62
1, 706766, Note_on_c, 0, 42, 79
1, 706833, Note_off_c, 0, 42, 65
1, 706845, Note_on_c, 0, 41, 87
1, 706858, Note_on_c, 0, 62, 67
1, 706860, Note_on_c, 0, 50, 66
1, 706862, Note_on_c, 0, 58, 66
1, 706874, Note_off_c, 0, 41, 66
1, 706877, Note_off_c, 0, 62, 65
1, 706886, Note_off_c, 0, 58, 67
1, 706891, Note_off_c, 0, 50, 70
1, 706979, Note_on_c, 0, 58, 57
1, 706981, Note_on_c, 0, 50, 55
1, 706994, Note_on_c, 0, 62, 36
1, 707004, Note_on_c, 0, 34, 60
1, 707010, Note_off_c, 0, 50, 64
1, 707010, Note_off_c, 0, 58, 66
1, 707021, Note_on_c, 0, 38, 34
1, 707021, Note_off_c, 0, 62, 52
1, 707034, Note_off_c, 0, 34, 62
1, 707059, Note_off_c, 0, 38, 48
1, 707120, Note_on_c, 0, 40, 61
1, 707122, Note_on_c, 0, 62, 54
1, 707125, Note_on_c, 0, 50, 43
1, 707127, Note_on_c, 0, 58, 56
1, 707148, Note_off_c, 0, 62, 61
1, 707149, Note_off_c, 0, 40, 65
1, 707155, Note_off_c, 0, 50, 57
1, 707160, Note_off_c, 0, 58, 64
1, 707244, Note_on_c, 0, 57, 55
1, 707249, Note_on_c, 0, 38, 41
1, 707253, Note_on_c, 0, 34, 47
1, 707277, Note_off_c, 0, 57, 64
1, 707281, Note_off_c, 0, 38, 52
1, 707286, Note_off_c, 0, 34, 56
1, 707348, Note_on_c, 0, 50, 64
1, 707349, Note_on_c, 0, 58, 67
1, 707352, Note_on_c, 0, 62, 57
1, 707354, Note_on_c, 0, 41, 62
1, 707374, Note_off_c, 0, 50, 65
1, 707376, Note_off_c, 0, 62, 60
1, 707376, Note_off_c, 0, 58, 66
1, 707383, Note_off_c, 0, 41, 64
1, 707452, Note_on_c, 0, 56, 74
1, 707464, Note_on_c, 0, 38, 49
1, 707468, Note_on_c, 0, 34, 46
1, 707479, Note_off_c, 0, 56, 68
1, 707495, Note_off_c, 0, 38, 60
1, 707500, Note_off_c, 0, 34, 57
1, 707557, Note_on_c, 0, 42, 77
1, 707562, Note_on_c, 0, 50, 81
1, 707569, Note_on_c, 0, 58, 75
1, 707572, Note_on_c, 0, 62, 69
1, 707586, Note_off_c, 0, 50, 68
1, 707590, Note_off_c, 0, 42, 65
1, 707597, Note_off_c, 0, 58, 67
1, 707597, Note_off_c, 0, 62, 64
1, 707667, Note_on_c, 0, 38, 64
1, 707670, Note_on_c, 0, 55, 87
1, 707676, Note_on_c, 0, 34, 58
1, 707699, Note_off_c, 0, 55, 66
1, 707704, Note_off_c, 0, 38, 64
1, 707711, Note_off_c, 0, 34, 61
1, 707766, Note_on_c, 0, 41, 80
1, 707767, Note_on_c, 0, 50, 81
1, 707771, Note_on_c, 0, 62, 80
1, 707772, Note_on_c, 0, 58, 78
1, 707791, Note_off_c, 0, 50, 69
1, 707798, Note_off_c, 0, 62, 64
1, 707800, Note_off_c, 0, 58, 65
1, 707804, Note_off_c, 0, 41, 64
1, 707864, Note_on_c, 0, 38, 74
1, 707866, Note_on_c, 0, 54, 94
1, 707883, Note_on_c, 0, 34, 56
1, 707894, Note_off_c, 0, 38, 64
1, 707903, Note_off_c, 0, 54, 64
1, 707918, Note_off_c, 0, 34, 62
1, 707965, Note_on_c, 0, 50, 90
1, 707965, Note_on_c, 0, 40, 78
1, 707966, Note_on_c, 0, 62, 83
1, 707970, Note_on_c, 0, 58, 83
1, 707987, Note_off_c, 0, 50, 72
1, 707990, Note_on_c, 0, 38, 48
1, 707992, Note_off_c, 0, 40, 66
1, 708004, Note_off_c, 0, 62, 57
1, 708016, Note_off_c, 0, 58, 57
1, 708022, Note_off_c, 0, 38, 54
1, 708059, Note_on_c, 0, 22, 90
1, 708063, Note_on_c, 0, 53, 97
1, 708124, Note_off_c, 0, 53, 65
1, 708170, Note_on_c, 0, 54, 85
1, 708171, Note_on_c, 0, 49, 100
1, 708172, Note_on_c, 0, 61, 92
1, 708173, Note_on_c, 0, 34, 107
1, 708177, Note_on_c, 0, 58, 83
1, 708181, Note_off_c, 0, 22, 63
1, 708188, Control_c, 0, 64, 114
1, 708203, Control_c, 0, 64, 127
1, 708205, Note_off_c, 0, 54, 65
1, 708207, Note_off_c, 0, 49, 66
1, 708208, Note_off_c, 0, 34, 53
1, 708240, Note_off_c, 0, 58, 62
1, 708245, Note_off_c, 0, 61, 62
1, 708442, Note_on_c, 0, 42, 84
1, 708457, Note_on_c, 0, 70, 93
1, 708457, Note_on_c, 0, 73, 97
1, 708538, Note_off_c, 0, 42, 62
1, 708645, Note_on_c, 0, 58, 95
1, 708646, Note_on_c, 0, 82, 97
1, 708651, Note_on_c, 0, 78, 88
1, 708687, Note_off_c, 0, 58, 65
1, 708726, Note_off_c, 0, 70, 61
1, 708733, Note_off_c, 0, 82, 67
1, 708758, Note_on_c, 0, 49, 80
1, 708763, Note_off_c, 0, 78, 57
1, 708789, Note_off_c, 0, 73, 57
1, 708820, Note_on_c, 0, 42, 83
1, 708827, Note_off_c, 0, 49, 64
1, 708852, Note_off_c, 0, 42, 65
1, 708908, Note_on_c, 0, 34, 97
1, 708964, Note_off_c, 0, 34, 60
1, 709011, Note_on_c, 0, 22, 90
1, 709023, Note_on_c, 0, 61, 94
1, 709023, Note_on_c, 0, 73, 96
1, 709041, Note_off_c, 0, 61, 72
1, 709072, Note_off_c, 0, 73, 64
1, 709151, Control_c, 0, 64, 94
1, 709158, Note_on_c, 0, 68, 97
1, 709160, Note_on_c, 0, 80, 92
1, 709162, Note_on_c, 0, 34, 105
1, 709163, Note_on_c, 0, 70, 89
1, 709165, Note_off_c, 0, 22, 63
1, 709166, Control_c, 0, 64, 69
1, 709173, Note_on_c, 0, 77, 71
1, 709179, Note_on_c, 0, 76, 78
1, 709181, Control_c, 0, 64, 49
1, 709182, Note_on_c, 0, 78, 60
1, 709196, Control_c, 0, 64, 58
1, 709199, Note_off_c, 0, 34, 61
1, 709202, Note_off_c, 0, 78, 41
1, 709210, Control_c, 0, 64, 69
1, 709225, Control_c, 0, 64, 79
1, 709240, Control_c, 0, 64, 99
1, 709254, Control_c, 0, 64, 127
1, 709334, Note_on_c, 0, 42, 63
1, 709342, Note_off_c, 0, 80, 62
1, 709360, Note_off_c, 0, 42, 65
1, 709370, Note_off_c, 0, 68, 58
1, 709375, Note_off_c, 0, 77, 61
1, 709393, Note_off_c, 0, 70, 60
1, 709396, Note_on_c, 0, 58, 91
1, 709400, Note_off_c, 0, 76, 36
1, 709435, Note_on_c, 0, 49, 26
1, 709441, Note_off_c, 0, 58, 67
1, 709490, Note_on_c, 0, 48, 33
1, 709522, Note_on_c, 0, 61, 90
1, 709524, Note_on_c, 0, 73, 93
1, 709525, Note_on_c, 0, 70, 78
1, 709527, Note_on_c, 0, 42, 73
1, 709529, Note_off_c, 0, 48, 62
1, 709540, Note_off_c, 0, 61, 72
1, 709551, Note_off_c, 0, 70, 68
1, 709551, Note_off_c, 0, 73, 61
1, 709554, Note_off_c, 0, 49, 54
1, 709566, Note_off_c, 0, 42, 63
1, 709617, Note_on_c, 0, 66, 100
1, 709620, Note_on_c, 0, 78, 96
1, 709624, Note_on_c, 0, 70, 82
1, 709629, Note_on_c, 0, 75, 82
1, 709635, Note_on_c, 0, 34, 91
1, 709684, Note_on_c, 0, 73, 33
1, 709686, Note_off_c, 0, 34, 59
1, 709754, Note_on_c, 0, 22, 89
1, 709775, Control_c, 0, 64, 93
1, 709790, Control_c, 0, 64, 67
1, 709812, Control_c, 0, 64, 0
1, 709828, Note_off_c, 0, 78, 63
1, 709841, Control_c, 0, 64, 65
1, 709848, Note_on_c, 0, 34, 98
1, 709851, Note_off_c, 0, 22, 64
1, 709856, Control_c, 0, 64, 97
1, 709859, Note_off_c, 0, 66, 61
1, 709860, Note_off_c, 0, 75, 59
1, 709869, Note_off_c, 0, 70, 59
1, 709870, Note_off_c, 0, 34, 66
1, 709871, Control_c, 0, 64, 127
1, 709879, Note_off_c, 0, 73, 43
1, 709936, Poly_aftertouch_c, 0, 27, 0
1, 709965, Note_on_c, 0, 70, 89
1, 709977, Poly_aftertouch_c, 0, 34, 127
1, 709980, Note_off_c, 0, 70, 76
1, 709988, Poly_aftertouch_c, 0, 34, 0
1, 709992, Note_on_c, 0, 60, 43
1, 710000, Note_on_c, 0, 59, 38
1, 710001, Note_on_c, 0, 42, 57
1, 710007, Note_on_c, 0, 72, 39
1, 710019, Note_off_c, 0, 60, 58
1, 710020, Note_on_c, 0, 44, 46
1, 710028, Note_off_c, 0, 42, 59
1, 710033, Note_off_c, 0, 59, 52
1, 710033, Note_off_c, 0, 72, 56
1, 710050, Note_off_c, 0, 44, 56
1, 710063, Note_on_c, 0, 58, 95
1, 710064, Note_on_c, 0, 65, 101
1, 710065, Poly_aftertouch_c, 0, 46, 127
1, 710070, Poly_aftertouch_c, 0, 68, 0
1, 710071, Note_on_c, 0, 77, 97
1, 710079, Note_on_c, 0, 68, 51
1, 710091, Note_off_c, 0, 77, 62
1, 710093, Note_off_c, 0, 65, 63
1, 710098, Note_on_c, 0, 74, 49
1, 710102, Note_off_c, 0, 58, 66
1, 710104, Note_off_c, 0, 68, 59
1, 710109, Poly_aftertouch_c, 0, 46, 0
1, 710123, Note_off_c, 0, 74, 61
1, 710142, Note_on_c, 0, 49, 58
1, 710186, Note_on_c, 0, 42, 75
1, 710201, Note_off_c, 0, 49, 64
1, 710219, Note_off_c, 0, 42, 62
1, 710292, Note_on_c, 0, 34, 77
1, 710301, Note_on_c, 0, 32, 68
1, 710341, Note_off_c, 0, 34, 61
1, 710342, Note_off_c, 0, 32, 57
1, 710382, Note_on_c, 0, 22, 86
1, 710388, Note_on_c, 0, 58, 93
1, 710392, Note_on_c, 0, 70, 86
1, 710407, Note_off_c, 0, 58, 67
1, 710418, Note_on_c, 0, 21, 49
1, 710432, Note_off_c, 0, 70, 63
1, 710463, Control_c, 0, 64, 77
1, 710468, Note_off_c, 0, 21, 45
1, 710479, Control_c, 0, 64, 0
1, 710493, Note_on_c, 0, 34, 101
1, 710496, Note_on_c, 0, 63, 104
1, 710499, Note_on_c, 0, 75, 90
1, 710499, Note_off_c, 0, 22, 64
1, 710507, Note_on_c, 0, 66, 83
1, 710507, Note_on_c, 0, 71, 75
1, 710508, Control_c, 0, 64, 37
1, 710522, Note_off_c, 0, 34, 65
1, 710523, Control_c, 0, 64, 72
1, 710537, Note_on_c, 0, 73, 36
1, 710538, Control_c, 0, 64, 97
1, 710561, Control_c, 0, 64, 127
1, 710579, Note_off_c, 0, 73, 58
1, 710646, Note_on_c, 0, 42, 58
1, 710665, Note_on_c, 0, 44, 64
1, 710672, Note_off_c, 0, 75, 58
1, 710674, Note_off_c, 0, 42, 64
1, 710684, Note_off_c, 0, 71, 59
1, 710687, Note_off_c, 0, 63, 54
1, 710697, Note_off_c, 0, 66, 56
1, 710699, Note_off_c, 0, 44, 64
1, 710715, Poly_aftertouch_c, 0, 46, 127
1, 710720, Note_on_c, 0, 58, 92
1, 710756, Poly_aftertouch_c, 0, 46, 0
1, 710758, Note_off_c, 0, 58, 67
1, 710791, Note_on_c, 0, 49, 62
1, 710845, Note_on_c, 0, 58, 92
1, 710848, Note_on_c, 0, 42, 69
1, 710857, Note_on_c, 0, 66, 68
1, 710858, Note_off_c, 0, 49, 64
1, 710860, Note_on_c, 0, 68, 62
1, 710860, Note_off_c, 0, 58, 72
1, 710864, Note_on_c, 0, 70, 67
1, 710878, Note_off_c, 0, 42, 63
1, 710879, Note_off_c, 0, 66, 69
1, 710881, Note_off_c, 0, 68, 65
1, 710890, Note_off_c, 0, 70, 65
1, 710948, Note_on_c, 0, 61, 104
1, 710950, Note_on_c, 0, 73, 94
1, 710951, Note_on_c, 0, 34, 83
1, 710952, Note_on_c, 0, 70, 80
1, 710956, Note_on_c, 0, 66, 78
1, 710961, Control_c, 0, 64, 87
1, 710975, Control_c, 0, 64, 65
1, 710990, Control_c, 0, 64, 0
1, 711005, Control_c, 0, 64, 17
1, 711019, Control_c, 0, 64, 64
1, 711024, Note_off_c, 0, 34, 58
1, 711034, Control_c, 0, 64, 74
1, 711049, Control_c, 0, 64, 88
1, 711064, Control_c, 0, 64, 127
1, 711099, Note_on_c, 0, 22, 84
1, 711108, Control_c, 0, 64, 110
1, 711116, Poly_aftertouch_c, 0, 68, 127
1, 711123, Control_c, 0, 64, 75
1, 711138, Control_c, 0, 64, 0
1, 711141, Note_off_c, 0, 61, 60
1, 711158, Poly_aftertouch_c, 0, 68, 0
1, 711161, Note_off_c, 0, 66, 52
1, 711182, Control_c, 0, 64, 65
1, 711187, Note_on_c, 0, 34, 102
1, 711191, Note_off_c, 0, 70, 61
1, 711193, Note_off_c, 0, 22, 62
1, 711197, Control_c, 0, 64, 82
1, 711208, Note_off_c, 0, 34, 70
1, 711208, Note_off_c, 0, 73, 59
1, 711212, Control_c, 0, 64, 127
1, 711339, Control_c, 0, 64, 89
1, 711354, Control_c, 0, 64, 0
1, 711399, Note_on_c, 0, 53, 66
1, 711406, Note_on_c, 0, 62, 69
1, 711435, Note_off_c, 0, 62, 65
1, 711489, Note_on_c, 0, 72, 62
1, 711498, Note_on_c, 0, 65, 79
1, 711502, Note_on_c, 0, 68, 63
1, 711539, Note_off_c, 0, 53, 0
1, 711539, Note_on_c, 0, 53, 8
1, 711546, Control_c, 0, 64, 88
1, 711558, Note_off_c, 0, 65, 62
1, 711561, Control_c, 0, 64, 127
1, 711583, Note_on_c, 0, 77, 83
1, 711589, Note_off_c, 0, 68, 61
1, 711590, Note_off_c, 0, 72, 58
1, 711590, Note_off_c, 0, 53, 0
1, 711590, Note_on_c, 0, 53, 22
1, 711621, Note_off_c, 0, 77, 66
1, 711671, Note_on_c, 0, 63, 69
1, 711697, Note_off_c, 0, 63, 67
1, 711731, Note_on_c, 0, 69, 74
1, 711733, Note_on_c, 0, 73, 83
1, 711781, Note_off_c, 0, 53, 41
1, 711781, Note_off_c, 0, 69, 58
1, 711793, Note_on_c, 0, 64, 66
1, 711813, Note_on_c, 0, 77, 88
1, 711825, Note_off_c, 0, 73, 64
1, 711857, Note_off_c, 0, 64, 62
1, 711866, Note_on_c, 0, 65, 91
1, 711866, Note_off_c, 0, 77, 63
1, 711875, Note_on_c, 0, 63, 75
1, 711937, Note_on_c, 0, 70, 88
1, 711942, Note_on_c, 0, 74, 86
1, 711949, Note_on_c, 0, 62, 84
1, 711954, Note_off_c, 0, 63, 61
1, 711957, Note_off_c, 0, 65, 60
1, 711999, Note_off_c, 0, 62, 59
1, 712004, Note_off_c, 0, 70, 65
1, 712012, Note_on_c, 0, 77, 81
1, 712014, Note_off_c, 0, 74, 64
1, 712028, Note_on_c, 0, 60, 65
1, 712057, Control_c, 0, 64, 95
1, 712066, Note_on_c, 0, 76, 25
1, 712071, Note_off_c, 0, 77, 61
1, 712072, Control_c, 0, 64, 71
1, 712080, Note_off_c, 0, 60, 63
1, 712086, Note_on_c, 0, 58, 70
1, 712088, Control_c, 0, 64, 0
1, 712104, Note_on_c, 0, 66, 79
1, 712104, Note_off_c, 0, 76, 44
1, 712150, Note_off_c, 0, 58, 62
1, 712156, Note_off_c, 0, 66, 61
1, 712159, Note_on_c, 0, 57, 79
1, 712165, Note_on_c, 0, 73, 72
1, 712167, Note_on_c, 0, 70, 63
1, 712200, Note_off_c, 0, 57, 57
1, 712238, Note_on_c, 0, 78, 72
1, 712239, Note_off_c, 0, 70, 62
1, 712241, Note_on_c, 0, 56, 67
1, 712251, Note_off_c, 0, 73, 61
1, 712271, Note_off_c, 0, 56, 68
1, 712294, Note_off_c, 0, 78, 64
1, 712299, Note_on_c, 0, 67, 69
1, 712301, Note_on_c, 0, 55, 73
1, 712326, Note_off_c, 0, 55, 67
1, 712362, Note_on_c, 0, 70, 61
1, 712370, Note_off_c, 0, 67, 59
1, 712371, Note_on_c, 0, 74, 66
1, 712380, Note_on_c, 0, 46, 63
1, 712413, Control_c, 0, 64, 70
1, 712416, Note_off_c, 0, 46, 62
1, 712428, Control_c, 0, 64, 84
1, 712435, Note_on_c, 0, 39, 69
1, 712443, Control_c, 0, 64, 84
1, 712445, Note_on_c, 0, 79, 70
1, 712447, Note_off_c, 0, 70, 61
1, 712458, Control_c, 0, 64, 82
1, 712463, Note_off_c, 0, 39, 64
1, 712466, Note_off_c, 0, 74, 61
1, 712472, Control_c, 0, 64, 78
1, 712475, Note_off_c, 0, 79, 63
1, 712487, Control_c, 0, 64, 71
1, 712502, Control_c, 0, 64, 57
1, 712517, Control_c, 0, 64, 0
1, 712651, Note_on_c, 0, 73, 75
1, 712656, Note_on_c, 0, 65, 66
1, 712665, Control_c, 0, 64, 66
1, 712666, Note_on_c, 0, 69, 36
1, 712678, Note_off_c, 0, 65, 64
1, 712680, Control_c, 0, 64, 127
1, 712693, Note_off_c, 0, 69, 50
1, 712701, Note_on_c, 0, 64, 30
1, 712732, Note_off_c, 0, 73, 59
1, 712733, Note_on_c, 0, 77, 75
1, 712772, Note_on_c, 0, 63, 71
1, 712786, Note_off_c, 0, 64, 60
1, 712800, Note_on_c, 0, 65, 70
1, 712832, Note_off_c, 0, 77, 33
1, 712861, Note_off_c, 0, 63, 60
1, 712868, Note_on_c, 0, 70, 77
1, 712869, Note_on_c, 0, 62, 82
1, 712875, Note_off_c, 0, 65, 63
1, 712881, Control_c, 0, 64, 88
1, 712885, Note_on_c, 0, 74, 76
1, 712896, Control_c, 0, 64, 27
1, 712899, Note_off_c, 0, 62, 60
1, 712911, Control_c, 0, 64, 0
1, 712924, Note_off_c, 0, 70, 65
1, 712949, Note_off_c, 0, 74, 67
1, 712952, Note_on_c, 0, 79, 80
1, 713025, Note_on_c, 0, 58, 75
1, 713028, Note_on_c, 0, 72, 85
1, 713033, Note_on_c, 0, 62, 64
1, 713040, Note_off_c, 0, 79, 39
1, 713059, Control_c, 0, 64, 70
1, 713074, Control_c, 0, 64, 127
1, 713086, Note_on_c, 0, 70, 90
1, 713095, Note_on_c, 0, 74, 75
1, 713099, Note_off_c, 0, 58, 62
1, 713107, Note_on_c, 0, 78, 77
1, 713108, Note_off_c, 0, 72, 62
1, 713114, Note_off_c, 0, 62, 54
1, 713126, Note_off_c, 0, 70, 68
1, 713142, Note_off_c, 0, 74, 61
1, 713179, Note_on_c, 0, 81, 82
1, 713182, Note_off_c, 0, 78, 66
1, 713189, Note_on_c, 0, 69, 63
1, 713243, Note_on_c, 0, 68, 78
1, 713244, Note_on_c, 0, 74, 81
1, 713245, Note_off_c, 0, 81, 63
1, 713247, Note_off_c, 0, 69, 60
1, 713310, Control_c, 0, 64, 91
1, 713313, Note_off_c, 0, 68, 58
1, 713314, Note_on_c, 0, 75, 77
1, 713319, Note_on_c, 0, 67, 91
1, 713320, Note_on_c, 0, 79, 77
1, 713325, Control_c, 0, 64, 63
1, 713326, Note_off_c, 0, 74, 63
1, 713340, Control_c, 0, 64, 0
1, 713367, Note_off_c, 0, 67, 63
1, 713374, Note_off_c, 0, 75, 65
1, 713389, Note_off_c, 0, 79, 65
1, 713399, Note_on_c, 0, 86, 83
1, 713447, Note_on_c, 0, 62, 70
1, 713452, Note_on_c, 0, 66, 76
1, 713469, Note_on_c, 0, 75, 93
1, 713477, Note_off_c, 0, 86, 49
1, 713503, Control_c, 0, 64, 79
1, 713518, Note_off_c, 0, 62, 35
1, 713518, Control_c, 0, 64, 127
1, 713519, Note_off_c, 0, 75, 64
1, 713522, Note_on_c, 0, 74, 94
1, 713531, Note_on_c, 0, 81, 77
1, 713537, Note_on_c, 0, 78, 79
1, 713563, Note_off_c, 0, 66, 59
1, 713604, Note_off_c, 0, 74, 48
1, 713605, Note_off_c, 0, 78, 63
1, 713608, Note_off_c, 0, 81, 65
1, 713611, Note_on_c, 0, 73, 86
1, 713613, Note_on_c, 0, 86, 81
1, 713639, Note_off_c, 0, 86, 63
1, 713667, Note_off_c, 0, 73, 64
1, 713698, Note_on_c, 0, 78, 93
1, 713701, Note_on_c, 0, 72, 80
1, 713730, Note_off_c, 0, 78, 66
1, 713741, Note_off_c, 0, 72, 66
1, 713742, Note_on_c, 0, 67, 75
1, 713748, Note_on_c, 0, 63, 82
1, 713751, Note_on_c, 0, 70, 69
1, 713760, Note_on_c, 0, 82, 79
1, 713764, Note_on_c, 0, 86, 84
1, 713769, Note_off_c, 0, 70, 65
1, 713773, Note_off_c, 0, 67, 63
1, 713776, Note_on_c, 0, 85, 18
1, 713777, Note_off_c, 0, 85, 127
1, 713795, Note_off_c, 0, 63, 61
1, 713815, Note_on_c, 0, 91, 88
1, 713823, Note_off_c, 0, 82, 63
1, 713838, Poly_aftertouch_c, 0, 79, 0
1, 713850, Note_off_c, 0, 86, 60
1, 713887, Note_off_c, 0, 91, 66
1, 713906, Note_on_c, 0, 79, 92
1, 713957, Note_off_c, 0, 79, 60
1, 713971, Control_c, 0, 64, 121
1, 713986, Control_c, 0, 64, 76
1, 714000, Control_c, 0, 64, 0
1, 714038, Note_on_c, 0, 39, 105
1, 714049, Note_on_c, 0, 27, 85
1, 714059, Control_c, 0, 64, 61
1, 714074, Control_c, 0, 64, 82
1, 714089, Control_c, 0, 64, 127
1, 714094, Note_off_c, 0, 27, 64
1, 714119, Note_off_c, 0, 39, 61
1, 714306, Note_on_c, 0, 79, 88
1, 714310, Note_on_c, 0, 46, 85
1, 714311, Note_on_c, 0, 91, 79
1, 714320, Note_on_c, 0, 86, 44
1, 714323, Note_off_c, 0, 79, 69
1, 714330, Note_off_c, 0, 91, 71
1, 714351, Note_off_c, 0, 86, 55
1, 714383, Note_on_c, 0, 55, 92
1, 714387, Note_on_c, 0, 82, 107
1, 714392, Note_on_c, 0, 94, 104
1, 714400, Note_on_c, 0, 90, 85
1, 714413, Note_off_c, 0, 90, 72
1, 714417, Note_off_c, 0, 82, 68
1, 714425, Note_on_c, 0, 95, 47
1, 714426, Note_off_c, 0, 95, 127
1, 714429, Note_off_c, 0, 94, 62
1, 714497, Poly_aftertouch_c, 0, 92, 0
1, 714536, Note_off_c, 0, 55, 61
1, 714563, Note_on_c, 0, 78, 101
1, 714571, Note_on_c, 0, 90, 89
1, 714583, Note_on_c, 0, 49, 85
1, 714586, Note_off_c, 0, 90, 76
1, 714593, Note_off_c, 0, 78, 62
1, 714617, Note_off_c, 0, 46, 28
1, 714630, Note_on_c, 0, 57, 92
1, 714631, Note_on_c, 0, 48, 29
1, 714635, Note_on_c, 0, 81, 107
1, 714638, Note_on_c, 0, 93, 105
1, 714650, Note_on_c, 0, 90, 82
1, 714657, Note_off_c, 0, 49, 65
1, 714660, Note_off_c, 0, 57, 65
1, 714666, Note_off_c, 0, 48, 48
1, 714671, Note_off_c, 0, 90, 64
1, 714732, Note_on_c, 0, 90, 27
1, 714765, Note_on_c, 0, 87, 18
1, 714793, Control_c, 0, 64, 100
1, 714799, Note_on_c, 0, 39, 38
1, 714808, Control_c, 0, 64, 33
1, 714812, Note_off_c, 0, 90, 56
1, 714823, Control_c, 0, 64, 0
1, 714831, Note_off_c, 0, 87, 41
1, 714839, Note_off_c, 0, 39, 50
1, 714849, Note_off_c, 0, 93, 59
1, 714852, Note_on_c, 0, 43, 99
1, 714856, Note_on_c, 0, 31, 81
1, 714872, Note_off_c, 0, 81, 63
1, 714880, Note_off_c, 0, 31, 64
1, 714886, Note_on_c, 0, 34, 40
1, 714889, Poly_aftertouch_c, 0, 36, 0
1, 714897, Control_c, 0, 64, 127
1, 714908, Note_off_c, 0, 43, 67
1, 714926, Note_off_c, 0, 34, 54
1, 715025, Note_on_c, 0, 50, 78
1, 715046, Note_on_c, 0, 74, 94
1, 715052, Note_on_c, 0, 86, 81
1, 715064, Note_off_c, 0, 74, 73
1, 715069, Note_off_c, 0, 86, 74
1, 715107, Note_on_c, 0, 58, 99
1, 715116, Note_on_c, 0, 78, 101
1, 715119, Note_on_c, 0, 90, 105
1, 715141, Note_on_c, 0, 87, 59
1, 715142, Note_off_c, 0, 87, 127
1, 715149, Note_off_c, 0, 78, 66
1, 715155, Note_off_c, 0, 90, 65
1, 715194, Note_off_c, 0, 50, 47
1, 715204, Note_off_c, 0, 58, 54
1, 715277, Note_on_c, 0, 73, 98
1, 715287, Note_on_c, 0, 85, 84
1, 715294, Note_on_c, 0, 51, 88
1, 715304, Note_off_c, 0, 73, 63
1, 715304, Note_off_c, 0, 85, 72
1, 715348, Note_on_c, 0, 61, 103
1, 715358, Note_on_c, 0, 77, 105
1, 715361, Note_on_c, 0, 89, 101
1, 715378, Note_off_c, 0, 61, 67
1, 715380, Note_on_c, 0, 58, 42
1, 715381, Note_off_c, 0, 58, 127
1, 715383, Note_on_c, 0, 85, 56
1, 715388, Note_on_c, 0, 88, 58
1, 715403, Note_off_c, 0, 85, 60
1, 715405, Note_off_c, 0, 51, 64
1, 715418, Note_off_c, 0, 88, 36
1, 715530, Note_off_c, 0, 89, 60
1, 715549, Note_off_c, 0, 77, 65
1, 715558, Control_c, 0, 64, 113
1, 715573, Control_c, 0, 64, 74
1, 715587, Control_c, 0, 64, 0
1, 715591, Note_on_c, 0, 46, 108
1, 715597, Note_on_c, 0, 34, 79
1, 715629, Note_off_c, 0, 34, 66
1, 715632, Control_c, 0, 64, 67
1, 715647, Control_c, 0, 64, 85
1, 715653, Note_off_c, 0, 46, 63
1, 715662, Control_c, 0, 64, 127
1, 715754, Note_on_c, 0, 70, 85
1, 715755, Note_on_c, 0, 82, 86
1, 715759, Note_on_c, 0, 55, 87
1, 715770, Note_off_c, 0, 82, 74
1, 715772, Note_off_c, 0, 70, 73
1, 715833, Note_on_c, 0, 74, 104
1, 715837, Note_on_c, 0, 63, 99
1, 715842, Note_on_c, 0, 86, 81
1, 715847, Note_on_c, 0, 76, 74
1, 715850, Note_on_c, 0, 88, 71
1, 715851, Note_off_c, 0, 88, 127
1, 715861, Note_off_c, 0, 86, 72
1, 715862, Note_off_c, 0, 74, 67
1, 715865, Note_off_c, 0, 76, 66
1, 715877, Note_off_c, 0, 55, 61
1, 715892, Note_off_c, 0, 63, 56
1, 716007, Note_on_c, 0, 69, 86
1, 716008, Note_on_c, 0, 57, 84
1, 716023, Note_off_c, 0, 69, 73
1, 716029, Note_on_c, 0, 81, 44
1, 716052, Note_off_c, 0, 81, 60
1, 716073, Note_on_c, 0, 66, 106
1, 716085, Note_on_c, 0, 73, 103
1, 716088, Note_on_c, 0, 85, 99
1, 716109, Note_off_c, 0, 66, 64
1, 716121, Note_off_c, 0, 57, 59
1, 716183, Note_on_c, 0, 82, 35
1, 716308, Control_c, 0, 64, 109
1, 716322, Control_c, 0, 64, 72
1, 716337, Control_c, 0, 64, 0
1, 716347, Note_on_c, 0, 51, 100
1, 716357, Note_on_c, 0, 39, 79
1, 716362, Note_off_c, 0, 85, 61
1, 716372, Note_off_c, 0, 73, 59
1, 716373, Note_on_c, 0, 46, 52
1, 716374, Note_off_c, 0, 46, 127
1, 716384, Note_off_c, 0, 82, 52
1, 716387, Note_off_c, 0, 39, 66
1, 716396, Control_c, 0, 64, 63
1, 716411, Control_c, 0, 64, 77
1, 716418, Note_off_c, 0, 51, 64
1, 716426, Control_c, 0, 64, 116
1, 716440, Control_c, 0, 64, 127
1, 716520, Note_on_c, 0, 67, 77
1, 716527, Note_on_c, 0, 79, 77
1, 716548, Note_off_c, 0, 67, 70
1, 716550, Note_off_c, 0, 79, 68
1, 716555, Note_on_c, 0, 58, 79
1, 716603, Note_on_c, 0, 67, 95
1, 716603, Note_on_c, 0, 70, 99
1, 716609, Note_on_c, 0, 82, 86
1, 716631, Note_off_c, 0, 82, 64
1, 716632, Note_off_c, 0, 70, 61
1, 716637, Note_on_c, 0, 78, 36
1, 716668, Note_off_c, 0, 78, 59
1, 716692, Note_off_c, 0, 67, 47
1, 716714, Poly_aftertouch_c, 0, 83, 0
1, 716773, Note_on_c, 0, 66, 91
1, 716797, Note_off_c, 0, 66, 64
1, 716798, Note_on_c, 0, 61, 71
1, 716836, Note_on_c, 0, 67, 88
1, 716840, Note_on_c, 0, 78, 24
1, 716845, Note_on_c, 0, 73, 94
1, 716845, Note_on_c, 0, 81, 92
1, 716848, Note_on_c, 0, 69, 80
1, 716863, Note_off_c, 0, 69, 70
1, 716872, Note_off_c, 0, 67, 63
1, 716875, Note_off_c, 0, 61, 63
1, 716882, Note_off_c, 0, 58, 35
1, 717089, Note_off_c, 0, 81, 60
1, 717105, Note_off_c, 0, 73, 59
1, 717111, Note_off_c, 0, 78, 54
1, 717116, Control_c, 0, 64, 73
1, 717131, Control_c, 0, 64, 0
1, 717343, Note_on_c, 0, 82, 70
1, 717349, Note_on_c, 0, 67, 56
1, 717352, Note_on_c, 0, 70, 55
1, 717359, Note_on_c, 0, 62, 45
1, 717370, Note_off_c, 0, 82, 68
1, 717372, Note_on_c, 0, 79, 28
1, 717374, Note_off_c, 0, 70, 62
1, 717378, Note_off_c, 0, 67, 63
1, 717386, Note_off_c, 0, 62, 55
1, 717405, Note_off_c, 0, 79, 48
1, 717594, Note_on_c, 0, 66, 57
1, 717594, Note_on_c, 0, 76, 63
1, 717595, Note_on_c, 0, 70, 54
1, 717596, Note_on_c, 0, 64, 50
1, 717597, Note_on_c, 0, 58, 49
1, 717607, Note_on_c, 0, 61, 41
1, 717614, Note_off_c, 0, 66, 63
1, 717616, Note_off_c, 0, 70, 62
1, 717622, Note_off_c, 0, 64, 59
1, 717623, Note_off_c, 0, 58, 60
1, 717623, Note_off_c, 0, 76, 64
1, 717641, Note_off_c, 0, 61, 50
1, 717826, Note_on_c, 0, 70, 72
1, 717829, Note_on_c, 0, 79, 66
1, 717830, Note_on_c, 0, 82, 67
1, 717832, Note_on_c, 0, 67, 60
1, 717847, Note_on_c, 0, 62, 47
1, 717847, Note_off_c, 0, 79, 65
1, 717847, Note_off_c, 0, 82, 66
1, 717850, Note_off_c, 0, 70, 69
1, 717854, Note_off_c, 0, 67, 62
1, 717874, Note_off_c, 0, 62, 55
1, 718073, Note_on_c, 0, 65, 76
1, 718078, Note_on_c, 0, 75, 76
1, 718079, Note_on_c, 0, 63, 74
1, 718084, Note_on_c, 0, 56, 60
1, 718084, Note_on_c, 0, 59, 52
1, 718088, Note_on_c, 0, 71, 50
1, 718095, Note_off_c, 0, 65, 70
1, 718104, Note_off_c, 0, 63, 68
1, 718107, Note_off_c, 0, 59, 59
1, 718109, Note_off_c, 0, 75, 58
1, 718110, Note_off_c, 0, 71, 60
1, 718117, Note_off_c, 0, 56, 64
1, 718304, Note_on_c, 0, 70, 94
1, 718306, Note_on_c, 0, 82, 87
1, 718309, Note_on_c, 0, 67, 87
1, 718309, Note_on_c, 0, 79, 75
1, 718317, Note_on_c, 0, 58, 74
1, 718320, Note_on_c, 0, 62, 63
1, 718327, Note_off_c, 0, 67, 70
1, 718331, Note_off_c, 0, 70, 64
1, 718331, Note_off_c, 0, 79, 70
1, 718334, Note_off_c, 0, 82, 63
1, 718347, Note_off_c, 0, 58, 66
1, 718348, Note_off_c, 0, 62, 64
1, 718540, Note_on_c, 0, 64, 101
1, 718542, Note_on_c, 0, 61, 92
1, 718545, Note_on_c, 0, 73, 91
1, 718545, Note_on_c, 0, 70, 82
1, 718550, Note_on_c, 0, 58, 83
1, 718552, Note_on_c, 0, 54, 75
1, 718561, Note_off_c, 0, 61, 70
1, 718568, Note_off_c, 0, 70, 69
1, 718569, Note_off_c, 0, 64, 64
1, 718577, Note_off_c, 0, 54, 67
1, 718583, Note_on_c, 0, 56, 17
1, 718589, Note_off_c, 0, 73, 62
1, 718601, Note_off_c, 0, 56, 43
1, 718642, Note_off_c, 0, 58, 29
1, 718771, Note_on_c, 0, 65, 100
1, 718771, Note_on_c, 0, 62, 68
1, 718777, Note_on_c, 0, 70, 107
1, 718778, Note_on_c, 0, 82, 99
1, 718786, Note_on_c, 0, 56, 82
1, 718786, Note_on_c, 0, 77, 91
1, 718795, Note_on_c, 0, 53, 71
1, 718800, Note_on_c, 0, 74, 59
1, 718804, Note_off_c, 0, 77, 72
1, 718807, Note_off_c, 0, 65, 69
1, 718816, Note_off_c, 0, 62, 63
1, 718818, Note_off_c, 0, 70, 66
1, 718819, Note_off_c, 0, 82, 64
1, 718821, Note_off_c, 0, 53, 66
1, 718822, Note_off_c, 0, 74, 61
1, 718832, Note_off_c, 0, 56, 66
1, 719010, Note_on_c, 0, 57, 94
1, 719013, Note_on_c, 0, 60, 97
1, 719015, Note_on_c, 0, 51, 85
1, 719015, Note_on_c, 0, 54, 79
1, 719016, Note_on_c, 0, 63, 93
1, 719018, Note_on_c, 0, 72, 91
1, 719021, Note_on_c, 0, 66, 82
1, 719028, Note_off_c, 0, 60, 76
1, 719038, Note_off_c, 0, 63, 68
1, 719039, Note_off_c, 0, 57, 64
1, 719042, Note_off_c, 0, 66, 68
1, 719052, Note_off_c, 0, 72, 64
1, 719056, Note_off_c, 0, 54, 51
1, 719070, Note_off_c, 0, 51, 58
1, 719122, Note_on_c, 0, 46, 82
1, 719182, Note_off_c, 0, 46, 64
1, 719264, Note_on_c, 0, 70, 111
1, 719266, Note_on_c, 0, 62, 100
1, 719266, Note_on_c, 0, 77, 89
1, 719266, Note_on_c, 0, 82, 97
1, 719267, Note_on_c, 0, 53, 59
1, 719270, Note_on_c, 0, 74, 77
1, 719272, Control_c, 0, 64, 75
1, 719273, Note_on_c, 0, 58, 89
1, 719285, Note_on_c, 0, 54, 76
1, 719287, Control_c, 0, 64, 127
1, 719293, Note_off_c, 0, 53, 65
1, 719294, Note_off_c, 0, 62, 68
1, 719299, Note_off_c, 0, 74, 62
1, 719299, Note_off_c, 0, 58, 67
1, 719302, Note_on_c, 0, 80, 45
1, 719303, Note_off_c, 0, 80, 127
1, 719306, Note_off_c, 0, 77, 65
1, 719309, Note_off_c, 0, 54, 63
1, 719309, Note_off_c, 0, 82, 66
1, 719311, Note_off_c, 0, 70, 65
1, 719525, Control_c, 0, 64, 103
1, 719546, Control_c, 0, 64, 68
1, 719561, Control_c, 0, 64, 0
1, 719721, Note_on_c, 0, 53, 91
1, 719725, Note_on_c, 0, 65, 80
1, 719725, Note_on_c, 0, 58, 75
1, 719726, Note_on_c, 0, 62, 77
1, 719731, Note_on_c, 0, 32, 77
1, 719731, Note_on_c, 0, 40, 78
1, 719734, Note_on_c, 0, 41, 77
1, 719742, Note_on_c, 0, 34, 61
1, 719743, Note_off_c, 0, 34, 127
1, 719748, Note_off_c, 0, 65, 68
1, 719750, Note_off_c, 0, 62, 68
1, 719752, Note_off_c, 0, 53, 64
1, 719752, Note_off_c, 0, 58, 68
1, 719753, Note_off_c, 0, 32, 65
1, 719755, Note_off_c, 0, 41, 63
1, 719755, Note_off_c, 0, 40, 66
1, 719866, Note_on_c, 0, 41, 92
1, 719868, Note_on_c, 0, 50, 105
1, 719869, Note_on_c, 0, 34, 81
1, 719870, Note_on_c, 0, 58, 99
1, 719874, Note_on_c, 0, 62, 84
1, 719887, Control_c, 0, 64, 55
1, 719895, Note_off_c, 0, 50, 67
1, 719895, Note_off_c, 0, 62, 64
1, 719899, Note_off_c, 0, 58, 60
1, 719900, Note_on_c, 0, 37, 38
1, 719902, Control_c, 0, 64, 127
1, 719905, Note_off_c, 0, 34, 62
1, 719908, Note_off_c, 0, 41, 64
1, 719934, Note_off_c, 0, 37, 57
1, 719949, Poly_aftertouch_c, 0, 39, 127
1, 719997, Poly_aftertouch_c, 0, 39, 0
1, 720066, Control_c, 0, 64, 113
1, 720080, Control_c, 0, 64, 82
1, 720095, Control_c, 0, 64, 0
1, 720287, Note_on_c, 0, 53, 96
1, 720290, Note_on_c, 0, 41, 95
1, 720292, Note_on_c, 0, 34, 89
1, 720292, Note_on_c, 0, 58, 78
1, 720293, Note_on_c, 0, 62, 80
1, 720296, Note_on_c, 0, 65, 79
1, 720310, Note_off_c, 0, 53, 71
1, 720315, Note_off_c, 0, 62, 69
1, 720318, Note_off_c, 0, 58, 65
1, 720318, Note_off_c, 0, 65, 71
1, 720321, Note_off_c, 0, 34, 66
1, 720321, Note_off_c, 0, 41, 64
1, 720401, Note_on_c, 0, 41, 102
1, 720407, Note_on_c, 0, 34, 88
1, 720408, Note_on_c, 0, 50, 103
1, 720411, Note_on_c, 0, 58, 98
1, 720412, Note_on_c, 0, 62, 78
1, 720428, Control_c, 0, 64, 80
1, 720437, Note_off_c, 0, 34, 68
1, 720440, Note_on_c, 0, 40, 39
1, 720441, Note_off_c, 0, 40, 127
1, 720441, Note_off_c, 0, 41, 64
1, 720444, Note_off_c, 0, 50, 64
1, 720444, Control_c, 0, 64, 127
1, 720447, Note_off_c, 0, 62, 59
1, 720456, Note_off_c, 0, 58, 65
1, 720480, Poly_aftertouch_c, 0, 40, 0
1, 720494, Poly_aftertouch_c, 0, 35, 127
1, 720538, Poly_aftertouch_c, 0, 35, 0
1, 720622, Control_c, 0, 64, 104
1, 720637, Control_c, 0, 64, 66
1, 720652, Control_c, 0, 64, 0
1, 720814, Note_on_c, 0, 41, 65
1, 720814, Note_on_c, 0, 53, 64
1, 720817, Note_on_c, 0, 65, 52
1, 720820, Note_on_c, 0, 34, 60
1, 720824, Note_on_c, 0, 62, 49
1, 720835, Note_on_c, 0, 58, 32
1, 720837, Note_off_c, 0, 53, 65
1, 720841, Note_off_c, 0, 65, 59
1, 720844, Note_off_c, 0, 41, 64
1, 720850, Note_off_c, 0, 34, 62
1, 720850, Note_off_c, 0, 62, 58
1, 720868, Note_off_c, 0, 58, 50
1, 720947, Note_on_c, 0, 41, 52
1, 720952, Note_on_c, 0, 34, 55
1, 720960, Note_on_c, 0, 58, 66
1, 720975, Note_off_c, 0, 41, 56
1, 720978, Note_on_c, 0, 50, 54
1, 720978, Control_c, 0, 64, 70
1, 720983, Note_off_c, 0, 34, 61
1, 720988, Note_off_c, 0, 58, 66
1, 720993, Control_c, 0, 64, 127
1, 720994, Note_on_c, 0, 62, 3
1, 721011, Note_off_c, 0, 50, 59
1, 721039, Note_off_c, 0, 62, 50
1, 721077, Note_on_c, 0, 34, 67
1, 721086, Note_on_c, 0, 50, 70
1, 721089, Note_on_c, 0, 22, 53
1, 721090, Control_c, 0, 64, 107
1, 721091, Note_on_c, 0, 58, 49
1, 721103, Note_off_c, 0, 34, 62
1, 721105, Control_c, 0, 64, 69
1, 721109, Note_on_c, 0, 62, 35
1, 721114, Note_off_c, 0, 50, 70
1, 721115, Note_off_c, 0, 58, 68
1, 721119, Control_c, 0, 64, 0
1, 721130, Note_off_c, 0, 22, 49
1, 721142, Note_off_c, 0, 62, 44
1, 721190, Note_on_c, 0, 40, 77
1, 721199, Note_on_c, 0, 50, 59
1, 721204, Note_on_c, 0, 58, 71
1, 721217, Note_off_c, 0, 40, 66
1, 721227, Note_off_c, 0, 50, 65
1, 721227, Note_off_c, 0, 58, 67
1, 721305, Note_on_c, 0, 34, 68
1, 721306, Note_on_c, 0, 57, 71
1, 721319, Note_on_c, 0, 22, 37
1, 721335, Note_off_c, 0, 57, 65
1, 721336, Note_off_c, 0, 34, 63
1, 721365, Note_off_c, 0, 22, 46
1, 721406, Note_on_c, 0, 41, 73
1, 721410, Note_on_c, 0, 58, 83
1, 721416, Note_on_c, 0, 50, 56
1, 721416, Note_on_c, 0, 62, 53
1, 721419, Note_on_c, 0, 48, 59
1, 721434, Note_on_c, 0, 29, 28
1, 721434, Note_off_c, 0, 41, 63
1, 721434, Note_off_c, 0, 58, 68
1, 721440, Note_off_c, 0, 62, 58
1, 721440, Note_off_c, 0, 50, 62
1, 721442, Note_off_c, 0, 48, 58
1, 721481, Note_off_c, 0, 29, 54
1, 721509, Note_on_c, 0, 22, 65
1, 721512, Note_on_c, 0, 56, 86
1, 721515, Note_on_c, 0, 34, 67
1, 721541, Note_off_c, 0, 34, 58
1, 721547, Note_off_c, 0, 22, 59
1, 721557, Note_off_c, 0, 56, 65
1, 721618, Note_on_c, 0, 42, 91
1, 721619, Note_on_c, 0, 50, 85
1, 721622, Note_on_c, 0, 58, 85
1, 721625, Note_on_c, 0, 62, 83
1, 721631, Note_on_c, 0, 30, 68
1, 721640, Note_off_c, 0, 42, 69
1, 721640, Note_off_c, 0, 58, 72
1, 721641, Note_off_c, 0, 50, 72
1, 721649, Note_off_c, 0, 62, 64
1, 721664, Note_off_c, 0, 30, 60
1, 721723, Note_on_c, 0, 55, 92
1, 721734, Note_on_c, 0, 34, 82
1, 721741, Note_on_c, 0, 22, 64
1, 721759, Note_off_c, 0, 55, 67
1, 721762, Note_off_c, 0, 34, 62
1, 721788, Note_off_c, 0, 22, 52
1, 721836, Note_on_c, 0, 41, 95
1, 721838, Note_on_c, 0, 50, 94
1, 721842, Note_on_c, 0, 58, 85
1, 721844, Note_on_c, 0, 62, 82
1, 721847, Note_on_c, 0, 29, 72
1, 721860, Note_off_c, 0, 50, 72
1, 721862, Note_off_c, 0, 41, 68
1, 721872, Note_off_c, 0, 29, 64
1, 721872, Note_off_c, 0, 62, 61
1, 721886, Note_off_c, 0, 58, 59
1, 721938, Note_on_c, 0, 54, 99
1, 721948, Note_on_c, 0, 22, 85
1, 721957, Note_on_c, 0, 34, 79
1, 721980, Note_off_c, 0, 22, 65
1, 721981, Note_off_c, 0, 34, 64
1, 721982, Note_on_c, 0, 25, 20
1, 721989, Note_off_c, 0, 54, 69
1, 722032, Note_off_c, 0, 25, 43
1, 722050, Note_on_c, 0, 40, 97
1, 722051, Note_on_c, 0, 50, 95
1, 722052, Note_on_c, 0, 62, 91
1, 722055, Note_on_c, 0, 58, 82
1, 722061, Note_on_c, 0, 28, 75
1, 722081, Note_off_c, 0, 40, 66
1, 722083, Note_off_c, 0, 50, 61
1, 722087, Note_off_c, 0, 28, 63
1, 722105, Note_off_c, 0, 62, 62
1, 722128, Note_off_c, 0, 58, 61
1, 722164, Note_on_c, 0, 53, 96
1, 722167, Note_on_c, 0, 22, 93
1, 722199, Note_on_c, 0, 21, 51
1, 722244, Note_off_c, 0, 21, 45
1, 722287, Note_off_c, 0, 53, 63
1, 722323, Note_on_c, 0, 54, 85
1, 722325, Note_on_c, 0, 49, 103
1, 722328, Note_on_c, 0, 61, 90
1, 722331, Note_on_c, 0, 34, 106
1, 722332, Note_on_c, 0, 58, 83
1, 722334, Note_off_c, 0, 22, 64
1, 722342, Control_c, 0, 64, 80
1, 722352, Note_off_c, 0, 34, 69
1, 722357, Control_c, 0, 64, 127
1, 722360, Note_off_c, 0, 49, 67
1, 722378, Note_off_c, 0, 54, 64
1, 722406, Note_off_c, 0, 58, 63
1, 722409, Note_off_c, 0, 61, 63
1, 722632, Note_on_c, 0, 42, 82
1, 722692, Note_on_c, 0, 73, 103
1, 722695, Note_on_c, 0, 70, 91
1, 722755, Note_off_c, 0, 42, 62
1, 722820, Note_on_c, 0, 82, 100
1, 722829, Note_on_c, 0, 78, 86
1, 722829, Note_on_c, 0, 58, 93
1, 722873, Note_on_c, 0, 56, 15
1, 722874, Note_off_c, 0, 58, 64
1, 722890, Note_off_c, 0, 70, 57
1, 722895, Note_off_c, 0, 82, 68
1, 722920, Note_off_c, 0, 56, 53
1, 722942, Note_off_c, 0, 78, 52
1, 722942, Note_on_c, 0, 49, 71
1, 722969, Note_off_c, 0, 73, 50
1, 722996, Note_on_c, 0, 48, 15
1, 723012, Note_on_c, 0, 42, 77
1, 723035, Note_off_c, 0, 49, 63
1, 723038, Note_off_c, 0, 48, 49
1, 723062, Note_off_c, 0, 42, 64
1, 723124, Note_on_c, 0, 34, 82
1, 723175, Note_off_c, 0, 34, 58
1, 723202, Note_on_c, 0, 73, 94
1, 723206, Note_on_c, 0, 61, 91
1, 723211, Note_on_c, 0, 22, 87
1, 723226, Note_off_c, 0, 61, 70
1, 723243, Note_off_c, 0, 73, 64
1, 723254, Note_on_c, 0, 25, 22
1, 723309, Poly_aftertouch_c, 0, 27, 127
1, 723312, Note_off_c, 0, 25, 46
1, 723351, Control_c, 0, 64, 88
1, 723366, Control_c, 0, 64, 67
1, 723367, Note_on_c, 0, 68, 90
1, 723368, Note_on_c, 0, 34, 98
1, 723370, Note_on_c, 0, 70, 77
1, 723376, Note_on_c, 0, 80, 81
1, 723381, Control_c, 0, 64, 54
1, 723384, Note_on_c, 0, 73, 67
1, 723384, Note_off_c, 0, 22, 62
1, 723388, Note_on_c, 0, 76, 71
1, 723388, Note_on_c, 0, 77, 64
1, 723389, Note_on_c, 0, 78, 69
1, 723395, Control_c, 0, 64, 64
1, 723406, Note_off_c, 0, 78, 65
1, 723410, Control_c, 0, 64, 73
1, 723413, Note_on_c, 0, 67, 39
1, 723425, Control_c, 0, 64, 85
1, 723427, Note_off_c, 0, 34, 60
1, 723436, Poly_aftertouch_c, 0, 27, 0
1, 723440, Control_c, 0, 64, 127
1, 723446, Note_off_c, 0, 67, 51
1, 723514, Note_off_c, 0, 80, 62
1, 723528, Note_off_c, 0, 68, 48
1, 723535, Note_off_c, 0, 77, 56
1, 723544, Note_off_c, 0, 76, 52
1, 723553, Note_on_c, 0, 42, 66
1, 723562, Note_off_c, 0, 70, 57
1, 723572, Note_off_c, 0, 73, 55
1, 723594, Note_off_c, 0, 42, 64
1, 723630, Note_on_c, 0, 58, 89
1, 723649, Poly_aftertouch_c, 0, 44, 127
1, 723655, Note_off_c, 0, 58, 65
1, 723671, Note_on_c, 0, 49, 30
1, 723690, Poly_aftertouch_c, 0, 44, 0
1, 723723, Note_on_c, 0, 61, 94
1, 723729, Note_on_c, 0, 73, 85
1, 723731, Note_on_c, 0, 70, 74
1, 723744, Note_off_c, 0, 61, 71
1, 723752, Note_off_c, 0, 70, 70
1, 723752, Note_off_c, 0, 73, 68
1, 723753, Note_on_c, 0, 42, 78
1, 723776, Note_off_c, 0, 49, 56
1, 723786, Note_off_c, 0, 42, 65
1, 723825, Note_on_c, 0, 66, 100
1, 723831, Note_on_c, 0, 75, 87
1, 723835, Note_on_c, 0, 78, 81
1, 723855, Note_on_c, 0, 34, 84
1, 723863, Note_on_c, 0, 71, 42
1, 723867, Note_on_c, 0, 73, 41
1, 723917, Note_off_c, 0, 34, 57
1, 723923, Poly_aftertouch_c, 0, 70, 127
1, 723944, Control_c, 0, 64, 80
1, 723958, Control_c, 0, 64, 36
1, 723968, Note_on_c, 0, 22, 77
1, 723973, Control_c, 0, 64, 0
1, 723992, Note_on_c, 0, 21, 65
1, 724003, Control_c, 0, 64, 70
1, 724018, Control_c, 0, 64, 127
1, 724030, Note_off_c, 0, 78, 62
1, 724041, Note_off_c, 0, 21, 48
1, 724055, Note_off_c, 0, 66, 59
1, 724058, Note_off_c, 0, 71, 63
1, 724060, Poly_aftertouch_c, 0, 70, 0
1, 724061, Note_off_c, 0, 75, 61
1, 724065, Note_off_c, 0, 22, 64
1, 724066, Note_on_c, 0, 34, 95
1, 724086, Note_off_c, 0, 73, 44
1, 724094, Note_off_c, 0, 34, 63
1, 724174, Note_on_c, 0, 58, 86
1, 724177, Note_on_c, 0, 70, 74
1, 724184, Note_on_c, 0, 66, 65
1, 724190, Note_on_c, 0, 42, 67
1, 724191, Note_off_c, 0, 58, 73
1, 724197, Note_on_c, 0, 68, 50
1, 724206, Note_off_c, 0, 66, 68
1, 724222, Note_off_c, 0, 68, 61
1, 724224, Note_off_c, 0, 70, 62
1, 724247, Note_off_c, 0, 42, 64
1, 724290, Note_on_c, 0, 65, 103
1, 724293, Note_on_c, 0, 58, 89
1, 724297, Note_on_c, 0, 77, 93
1, 724320, Note_on_c, 0, 68, 41
1, 724325, Note_off_c, 0, 65, 67
1, 724329, Note_off_c, 0, 58, 65
1, 724333, Note_off_c, 0, 77, 60
1, 724343, Note_off_c, 0, 68, 58
1, 724379, Note_on_c, 0, 49, 43
1, 724408, Poly_aftertouch_c, 0, 74, 0
1, 724428, Note_on_c, 0, 42, 73
1, 724439, Note_off_c, 0, 49, 64
1, 724455, Note_off_c, 0, 42, 64
1, 724524, Note_on_c, 0, 34, 90
1, 724589, Note_off_c, 0, 34, 60
1, 724622, Note_on_c, 0, 58, 96
1, 724633, Note_on_c, 0, 70, 81
1, 724635, Note_on_c, 0, 22, 83
1, 724647, Note_on_c, 0, 68, 58
1, 724653, Note_off_c, 0, 58, 61
1, 724661, Note_off_c, 0, 70, 63
1, 724668, Note_off_c, 0, 68, 63
1, 724707, Control_c, 0, 64, 81
1, 724722, Control_c, 0, 64, 52
1, 724737, Control_c, 0, 64, 0
1, 724741, Note_on_c, 0, 63, 101
1, 724744, Note_on_c, 0, 75, 88
1, 724749, Note_on_c, 0, 34, 94
1, 724750, Note_on_c, 0, 71, 79
1, 724751, Note_off_c, 0, 22, 58
1, 724752, Note_on_c, 0, 66, 84
1, 724767, Control_c, 0, 64, 53
1, 724768, Note_off_c, 0, 34, 66
1, 724787, Note_on_c, 0, 73, 40
1, 724788, Note_off_c, 0, 73, 127
1, 724788, Control_c, 0, 64, 69
1, 724803, Control_c, 0, 64, 85
1, 724818, Control_c, 0, 64, 127
1, 724898, Note_on_c, 0, 42, 65
1, 724914, Note_off_c, 0, 75, 58
1, 724930, Note_off_c, 0, 63, 52
1, 724935, Note_off_c, 0, 42, 64
1, 724935, Note_off_c, 0, 71, 61
1, 724937, Note_off_c, 0, 66, 55
1, 724987, Note_on_c, 0, 58, 87
1, 724994, Poly_aftertouch_c, 0, 44, 127
1, 725022, Note_off_c, 0, 58, 65
1, 725024, Poly_aftertouch_c, 0, 44, 0
1, 725051, Note_on_c, 0, 49, 45
1, 725104, Note_on_c, 0, 58, 92
1, 725113, Note_on_c, 0, 66, 69
1, 725118, Note_on_c, 0, 70, 71
1, 725123, Note_on_c, 0, 42, 63
1, 725123, Note_off_c, 0, 58, 69
1, 725127, Note_on_c, 0, 68, 49
1, 725128, Note_off_c, 0, 49, 63
1, 725138, Note_off_c, 0, 66, 67
1, 725140, Note_off_c, 0, 70, 68
1, 725145, Note_off_c, 0, 42, 62
1, 725153, Note_off_c, 0, 68, 61
1, 725211, Note_on_c, 0, 61, 99
1, 725211, Note_on_c, 0, 73, 96
1, 725219, Note_on_c, 0, 34, 84
1, 725219, Note_on_c, 0, 66, 75
1, 725220, Note_on_c, 0, 70, 58
1, 725247, Note_on_c, 0, 71, 51
1, 725291, Note_off_c, 0, 34, 58
1, 725367, Control_c, 0, 64, 120
1, 725382, Control_c, 0, 64, 78
1, 725394, Note_on_c, 0, 22, 70
1, 725398, Control_c, 0, 64, 0
1, 725408, Note_off_c, 0, 71, 22
1, 725431, Note_off_c, 0, 61, 59
1, 725446, Note_off_c, 0, 66, 52
1, 725450, Note_on_c, 0, 21, 12
1, 725461, Note_off_c, 0, 70, 56
1, 725469, Note_on_c, 0, 34, 92
1, 725470, Note_off_c, 0, 22, 62
1, 725486, Control_c, 0, 64, 40
1, 725491, Note_off_c, 0, 34, 70
1, 725497, Note_off_c, 0, 73, 54
1, 725500, Note_off_c, 0, 21, 45
1, 725501, Control_c, 0, 64, 27
1, 725516, Control_c, 0, 64, 0
1, 725682, Note_on_c, 0, 62, 63
1, 725687, Note_on_c, 0, 53, 67
1, 725703, Note_off_c, 0, 62, 64
1, 725764, Note_on_c, 0, 72, 61
1, 725766, Note_on_c, 0, 68, 67
1, 725767, Note_on_c, 0, 65, 86
1, 725776, Control_c, 0, 64, 81
1, 725791, Control_c, 0, 64, 127
1, 725819, Note_off_c, 0, 65, 64
1, 725828, Note_off_c, 0, 68, 60
1, 725858, Note_on_c, 0, 77, 75
1, 725864, Note_off_c, 0, 72, 57
1, 725883, Note_off_c, 0, 77, 64
1, 725929, Note_on_c, 0, 63, 75
1, 725951, Note_off_c, 0, 63, 70
1, 725990, Note_on_c, 0, 69, 72
1, 725998, Note_on_c, 0, 73, 79
1, 726025, Note_off_c, 0, 53, 37
1, 726043, Note_off_c, 0, 69, 61
1, 726079, Note_on_c, 0, 77, 85
1, 726081, Note_on_c, 0, 64, 76
1, 726122, Note_off_c, 0, 73, 57
1, 726140, Note_on_c, 0, 65, 90
1, 726141, Note_off_c, 0, 64, 62
1, 726152, Note_on_c, 0, 63, 79
1, 726157, Note_off_c, 0, 77, 44
1, 726164, Note_on_c, 0, 76, 24
1, 726205, Note_off_c, 0, 76, 47
1, 726212, Note_on_c, 0, 70, 86
1, 726216, Note_on_c, 0, 74, 85
1, 726227, Note_on_c, 0, 62, 80
1, 726230, Note_off_c, 0, 63, 62
1, 726230, Note_off_c, 0, 65, 61
1, 726250, Control_c, 0, 64, 98
1, 726265, Control_c, 0, 64, 73
1, 726266, Note_on_c, 0, 77, 80
1, 726287, Note_off_c, 0, 62, 60
1, 726287, Control_c, 0, 64, 0
1, 726290, Note_off_c, 0, 70, 62
1, 726307, Note_off_c, 0, 74, 63
1, 726316, Note_on_c, 0, 60, 61
1, 726335, Note_off_c, 0, 77, 63
1, 726352, Note_off_c, 0, 60, 64
1, 726360, Note_on_c, 0, 58, 78
1, 726371, Note_on_c, 0, 66, 75
1, 726416, Note_off_c, 0, 58, 62
1, 726416, Note_off_c, 0, 66, 62
1, 726425, Note_on_c, 0, 73, 68
1, 726433, Note_on_c, 0, 57, 67
1, 726448, Note_on_c, 0, 70, 45
1, 726466, Note_off_c, 0, 57, 63
1, 726502, Note_on_c, 0, 56, 70
1, 726510, Note_off_c, 0, 70, 61
1, 726520, Note_on_c, 0, 78, 70
1, 726528, Note_off_c, 0, 73, 62
1, 726536, Note_off_c, 0, 56, 67
1, 726572, Note_on_c, 0, 67, 65
1, 726576, Note_on_c, 0, 55, 68
1, 726577, Note_off_c, 0, 78, 64
1, 726600, Note_off_c, 0, 55, 67
1, 726633, Note_on_c, 0, 46, 74
1, 726639, Note_on_c, 0, 70, 63
1, 726641, Note_off_c, 0, 67, 59
1, 726648, Note_on_c, 0, 74, 65
1, 726658, Control_c, 0, 64, 49
1, 726672, Note_off_c, 0, 46, 60
1, 726673, Control_c, 0, 64, 93
1, 726688, Control_c, 0, 64, 126
1, 726696, Note_on_c, 0, 40, 53
1, 726703, Control_c, 0, 64, 127
1, 726718, Control_c, 0, 64, 96
1, 726725, Note_off_c, 0, 40, 56
1, 726728, Note_off_c, 0, 70, 61
1, 726732, Control_c, 0, 64, 75
1, 726734, Note_on_c, 0, 79, 64
1, 726734, Note_off_c, 0, 74, 60
1, 726747, Control_c, 0, 64, 0
1, 726781, Note_off_c, 0, 79, 55
1, 726847, Note_on_c, 0, 36, 92
1, 726902, Note_off_c, 0, 36, 63
1, 726910, Control_c, 0, 64, 79
1, 726925, Control_c, 0, 64, 101
1, 726940, Control_c, 0, 64, 105
1, 726955, Control_c, 0, 64, 80
1, 726969, Control_c, 0, 64, 0
1, 727033, Note_on_c, 0, 63, 84
1, 727035, Note_on_c, 0, 55, 78
1, 727055, Note_off_c, 0, 63, 69
1, 727080, Control_c, 0, 64, 56
1, 727092, Note_on_c, 0, 70, 77
1, 727095, Control_c, 0, 64, 107
1, 727096, Note_on_c, 0, 67, 99
1, 727110, Control_c, 0, 64, 127
1, 727113, Note_on_c, 0, 74, 70
1, 727181, Note_off_c, 0, 67, 51
1, 727195, Note_on_c, 0, 79, 77
1, 727200, Note_off_c, 0, 70, 52
1, 727216, Note_off_c, 0, 79, 67
1, 727232, Note_off_c, 0, 74, 61
1, 727248, Note_on_c, 0, 65, 86
1, 727325, Note_on_c, 0, 71, 73
1, 727325, Note_off_c, 0, 65, 58
1, 727326, Note_on_c, 0, 74, 82
1, 727339, Note_off_c, 0, 55, 50
1, 727371, Note_on_c, 0, 65, 65
1, 727396, Note_on_c, 0, 79, 87
1, 727399, Note_off_c, 0, 71, 61
1, 727417, Note_off_c, 0, 74, 67
1, 727441, Note_off_c, 0, 65, 60
1, 727455, Note_on_c, 0, 67, 91
1, 727457, Note_on_c, 0, 64, 66
1, 727473, Note_off_c, 0, 79, 54
1, 727497, Note_on_c, 0, 63, 79
1, 727501, Note_off_c, 0, 64, 62
1, 727527, Note_on_c, 0, 72, 82
1, 727530, Note_on_c, 0, 75, 84
1, 727545, Note_off_c, 0, 67, 59
1, 727555, Control_c, 0, 64, 97
1, 727557, Note_off_c, 0, 63, 64
1, 727565, Note_on_c, 0, 62, 82
1, 727570, Control_c, 0, 64, 67
1, 727585, Control_c, 0, 64, 0
1, 727599, Note_on_c, 0, 79, 83
1, 727617, Note_off_c, 0, 72, 49
1, 727618, Note_off_c, 0, 62, 61
1, 727619, Note_off_c, 0, 75, 60
1, 727646, Note_on_c, 0, 61, 75
1, 727667, Note_off_c, 0, 79, 58
1, 727676, Note_on_c, 0, 68, 79
1, 727694, Note_off_c, 0, 61, 60
1, 727727, Note_on_c, 0, 60, 68
1, 727743, Note_off_c, 0, 68, 61
1, 727745, Note_on_c, 0, 75, 69
1, 727747, Note_on_c, 0, 72, 58
1, 727756, Note_off_c, 0, 60, 63
1, 727780, Note_on_c, 0, 58, 78
1, 727807, Note_off_c, 0, 58, 66
1, 727813, Note_off_c, 0, 72, 60
1, 727831, Note_on_c, 0, 80, 69
1, 727854, Note_off_c, 0, 75, 60
1, 727876, Note_off_c, 0, 80, 65
1, 727879, Note_on_c, 0, 55, 54
1, 727890, Note_on_c, 0, 69, 69
1, 727904, Note_off_c, 0, 55, 37
1, 727935, Note_on_c, 0, 41, 68
1, 727954, Note_on_c, 0, 72, 58
1, 727959, Note_off_c, 0, 69, 59
1, 727960, Note_off_c, 0, 41, 58
1, 727962, Control_c, 0, 64, 72
1, 727969, Note_on_c, 0, 75, 69
1, 727977, Control_c, 0, 64, 77
1, 727992, Control_c, 0, 64, 69
1, 727998, Note_off_c, 0, 72, 59
1, 728007, Control_c, 0, 64, 0
1, 728028, Note_off_c, 0, 75, 64
1, 728034, Note_on_c, 0, 81, 71
1, 728090, Note_off_c, 0, 81, 57
1, 728121, Note_on_c, 0, 69, 57
1, 728146, Note_off_c, 0, 69, 63
1, 728165, Note_on_c, 0, 65, 65
1, 728173, Note_on_c, 0, 57, 27
1, 728174, Note_on_c, 0, 74, 70
1, 728182, Note_on_c, 0, 59, 44
1, 728194, Note_off_c, 0, 65, 66
1, 728201, Control_c, 0, 64, 64
1, 728204, Note_off_c, 0, 74, 65
1, 728216, Control_c, 0, 64, 81
1, 728219, Note_off_c, 0, 59, 62
1, 728230, Control_c, 0, 64, 87
1, 728244, Note_on_c, 0, 81, 61
1, 728245, Control_c, 0, 64, 90
1, 728272, Note_off_c, 0, 81, 65
1, 728275, Control_c, 0, 64, 90
1, 728290, Control_c, 0, 64, 92
1, 728304, Control_c, 0, 64, 93
1, 728308, Note_on_c, 0, 74, 74
1, 728319, Control_c, 0, 64, 95
1, 728334, Control_c, 0, 64, 97
1, 728344, Note_off_c, 0, 57, 43
1, 728346, Note_off_c, 0, 74, 64
1, 728348, Control_c, 0, 64, 100
1, 728361, Note_on_c, 0, 66, 67
1, 728375, Note_on_c, 0, 60, 56
1, 728376, Note_on_c, 0, 81, 72
1, 728378, Control_c, 0, 64, 95
1, 728380, Note_off_c, 0, 66, 66
1, 728394, Control_c, 0, 64, 80
1, 728406, Note_off_c, 0, 60, 66
1, 728409, Control_c, 0, 64, 56
1, 728423, Control_c, 0, 64, 0
1, 728427, Note_off_c, 0, 81, 63
1, 728442, Note_on_c, 0, 86, 74
1, 728478, Note_off_c, 0, 86, 66
1, 728481, Note_on_c, 0, 55, 54
1, 728525, Note_off_c, 0, 55, 65
1, 728537, Note_on_c, 0, 81, 72
1, 728579, Note_on_c, 0, 62, 49
1, 728579, Control_c, 0, 64, 63
1, 728579, Note_off_c, 0, 81, 60
1, 728594, Control_c, 0, 64, 87
1, 728599, Note_on_c, 0, 86, 74
1, 728600, Note_on_c, 0, 70, 74
1, 728602, Note_on_c, 0, 64, 51
1, 728609, Control_c, 0, 64, 127
1, 728656, Note_off_c, 0, 86, 65
1, 728667, Note_off_c, 0, 64, 60
1, 728672, Note_on_c, 0, 93, 82
1, 728672, Note_off_c, 0, 70, 59
1, 728712, Note_off_c, 0, 93, 66
1, 728730, Note_off_c, 0, 62, 56
1, 728746, Note_on_c, 0, 86, 75
1, 728786, Note_off_c, 0, 86, 61
1, 728790, Note_on_c, 0, 71, 67
1, 728806, Note_on_c, 0, 65, 54
1, 728808, Note_on_c, 0, 93, 80
1, 728814, Note_off_c, 0, 71, 70
1, 728830, Control_c, 0, 64, 103
1, 728833, Note_off_c, 0, 65, 65
1, 728846, Control_c, 0, 64, 80
1, 728861, Control_c, 0, 64, 0
1, 728865, Note_off_c, 0, 93, 65
1, 728879, Note_on_c, 0, 98, 78
1, 728901, Note_on_c, 0, 60, 63
1, 728921, Note_off_c, 0, 98, 61
1, 728937, Note_off_c, 0, 60, 65
1, 728961, Note_on_c, 0, 93, 75
1, 728989, Note_on_c, 0, 67, 43
1, 729005, Note_on_c, 0, 69, 56
1, 729018, Note_on_c, 0, 75, 74
1, 729022, Note_on_c, 0, 98, 90
1, 729025, Note_off_c, 0, 93, 60
1, 729039, Control_c, 0, 64, 87
1, 729053, Control_c, 0, 64, 127
1, 729082, Note_off_c, 0, 75, 60
1, 729099, Note_on_c, 0, 105, 85
1, 729114, Note_off_c, 0, 98, 66
1, 729119, Note_off_c, 0, 67, 51
1, 729135, Note_off_c, 0, 69, 60
1, 729150, Note_off_c, 0, 105, 66
1, 729174, Note_on_c, 0, 93, 79
1, 729193, Note_off_c, 0, 93, 71
1, 729238, Note_on_c, 0, 76, 72
1, 729245, Note_on_c, 0, 96, 89
1, 729247, Note_on_c, 0, 70, 67
1, 729274, Note_off_c, 0, 76, 63
1, 729319, Note_on_c, 0, 91, 83
1, 729321, Note_off_c, 0, 96, 64
1, 729354, Note_off_c, 0, 70, 53
1, 729354, Note_off_c, 0, 91, 62
1, 729365, Note_on_c, 0, 84, 82
1, 729383, Note_off_c, 0, 84, 72
1, 729387, Control_c, 0, 64, 111
1, 729402, Control_c, 0, 64, 85
1, 729417, Control_c, 0, 64, 62
1, 729432, Control_c, 0, 64, 0
1, 729446, Note_on_c, 0, 89, 94
1, 729451, Note_on_c, 0, 75, 72
1, 729456, Note_on_c, 0, 69, 63
1, 729456, Note_on_c, 0, 81, 74
1, 729469, Note_on_c, 0, 65, 42
1, 729471, Note_off_c, 0, 81, 69
1, 729474, Note_off_c, 0, 75, 70
1, 729480, Note_off_c, 0, 69, 67
1, 729483, Note_off_c, 0, 89, 61
1, 729496, Note_off_c, 0, 65, 52
1, 729678, Note_on_c, 0, 82, 94
1, 729681, Note_on_c, 0, 70, 81
1, 729685, Note_on_c, 0, 74, 88
1, 729688, Note_on_c, 0, 58, 72
1, 729692, Note_on_c, 0, 65, 58
1, 729701, Note_off_c, 0, 70, 71
1, 729703, Note_off_c, 0, 74, 72
1, 729709, Note_off_c, 0, 82, 66
1, 729713, Note_off_c, 0, 58, 67
1, 729713, Note_off_c, 0, 65, 63
1, 729905, Note_on_c, 0, 77, 75
1, 729906, Note_on_c, 0, 62, 71
1, 729906, Note_on_c, 0, 65, 78
1, 729911, Note_on_c, 0, 74, 69
1, 729913, Note_on_c, 0, 50, 65
1, 729913, Note_on_c, 0, 57, 59
1, 729913, Note_on_c, 0, 69, 26
1, 729923, Note_off_c, 0, 77, 68
1, 729930, Note_off_c, 0, 62, 65
1, 729930, Note_off_c, 0, 74, 67
1, 729933, Note_off_c, 0, 65, 64
1, 729942, Note_off_c, 0, 57, 64
1, 729946, Note_off_c, 0, 69, 42
1, 729948, Note_off_c, 0, 50, 65
1, 730149, Note_on_c, 0, 70, 62
1, 730149, Control_c, 0, 67, 12
1, 730150, Note_on_c, 0, 55, 67
1, 730153, Note_on_c, 0, 58, 75
1, 730159, Note_on_c, 0, 50, 53
1, 730161, Note_on_c, 0, 43, 51
1, 730164, Control_c, 0, 67, 17
1, 730179, Note_off_c, 0, 55, 66
1, 730179, Control_c, 0, 67, 23
1, 730180, Note_off_c, 0, 70, 67
1, 730181, Note_off_c, 0, 58, 66
1, 730190, Note_off_c, 0, 43, 58
1, 730190, Note_off_c, 0, 50, 67
1, 730193, Control_c, 0, 67, 27
1, 730208, Control_c, 0, 67, 29
1, 730223, Control_c, 0, 67, 31
1, 730238, Control_c, 0, 67, 31
1, 730356, Control_c, 0, 67, 31
1, 730386, Control_c, 0, 67, 30
1, 730398, Note_on_c, 0, 51, 58
1, 730398, Note_on_c, 0, 53, 62
1, 730400, Note_on_c, 0, 59, 59
1, 730400, Note_on_c, 0, 65, 50
1, 730407, Note_on_c, 0, 44, 55
1, 730425, Note_off_c, 0, 51, 66
1, 730427, Note_off_c, 0, 65, 56
1, 730428, Note_off_c, 0, 59, 64
1, 730430, Note_off_c, 0, 53, 55
1, 730434, Note_off_c, 0, 44, 62
1, 730505, Control_c, 0, 67, 31
1, 730683, Note_on_c, 0, 50, 41
1, 730684, Note_on_c, 0, 58, 53
1, 730685, Note_on_c, 0, 34, 51
1, 730686, Note_on_c, 0, 41, 44
1, 730698, Control_c, 0, 67, 30
1, 730713, Control_c, 0, 67, 30
1, 730716, Note_off_c, 0, 41, 54
1, 730716, Note_off_c, 0, 50, 55
1, 730720, Note_off_c, 0, 34, 62
1, 730721, Note_off_c, 0, 58, 66
1, 730728, Control_c, 0, 67, 29
1, 730742, Control_c, 0, 67, 29
1, 730757, Control_c, 0, 67, 28
1, 730779, Control_c, 0, 67, 27
1, 730794, Control_c, 0, 67, 26
1, 730809, Control_c, 0, 67, 24
1, 730824, Control_c, 0, 67, 21
1, 730839, Control_c, 0, 67, 17
1, 730854, Control_c, 0, 67, 0
1, 731043, Note_on_c, 0, 86, 94
1, 731044, Note_on_c, 0, 74, 103
1, 731045, Note_on_c, 0, 62, 100
1, 731050, Note_on_c, 0, 50, 81
1, 731061, Control_c, 0, 64, 74
1, 731070, Note_off_c, 0, 86, 69
1, 731074, Note_off_c, 0, 50, 71
1, 731074, Note_off_c, 0, 74, 70
1, 731075, Control_c, 0, 64, 127
1, 731083, Note_off_c, 0, 62, 65
1, 731508, Note_on_c, 0, 60, 86
1, 731521, Note_on_c, 0, 38, 95
1, 731521, Note_on_c, 0, 26, 82
1, 731535, Note_on_c, 0, 48, 53
1, 731537, Note_on_c, 0, 50, 50
1, 731546, Note_off_c, 0, 38, 69
1, 731550, Note_off_c, 0, 26, 64
1, 731554, Note_on_c, 0, 36, 33
1, 731559, Note_off_c, 0, 60, 66
1, 731562, Note_off_c, 0, 48, 57
1, 731570, Note_off_c, 0, 50, 55
1, 731602, Note_off_c, 0, 36, 44
1, 731765, Note_on_c, 0, 60, 75
1, 731774, Note_on_c, 0, 50, 72
1, 731805, Poly_aftertouch_c, 0, 48, 127
1, 731822, Note_on_c, 0, 62, 76
1, 731829, Poly_aftertouch_c, 0, 48, 0
1, 731842, Note_on_c, 0, 51, 68
1, 731842, Note_off_c, 0, 60, 63
1, 731850, Poly_aftertouch_c, 0, 48, 0
1, 731852, Note_on_c, 0, 63, 53
1, 731854, Control_c, 0, 64, 99
1, 731869, Control_c, 0, 64, 76
1, 731884, Control_c, 0, 64, 0
1, 731886, Note_off_c, 0, 50, 64
1, 731899, Note_on_c, 0, 53, 83
1, 731903, Note_on_c, 0, 47, 67
1, 731915, Note_on_c, 0, 65, 92
1, 731919, Note_on_c, 0, 58, 95
1, 731920, Note_off_c, 0, 63, 63
1, 731922, Note_off_c, 0, 51, 63
1, 731922, Note_off_c, 0, 62, 61
1, 731924, Note_off_c, 0, 53, 72
1, 731931, Note_off_c, 0, 47, 67
1, 731940, Note_off_c, 0, 58, 67
1, 731951, Note_off_c, 0, 65, 66
1, 732147, Note_on_c, 0, 67, 82
1, 732148, Note_on_c, 0, 51, 86
1, 732151, Note_on_c, 0, 55, 69
1, 732156, Note_on_c, 0, 39, 67
1, 732160, Note_on_c, 0, 63, 70
1, 732169, Note_off_c, 0, 55, 67
1, 732180, Note_off_c, 0, 39, 64
1, 732186, Note_off_c, 0, 63, 67
1, 732187, Note_off_c, 0, 51, 56
1, 732202, Note_off_c, 0, 67, 63
1, 732382, Control_c, 0, 64, 60
1, 732396, Control_c, 0, 64, 127
1, 732399, Note_on_c, 0, 55, 100
1, 732411, Note_on_c, 0, 67, 96
1, 732412, Note_on_c, 0, 69, 89
1, 732412, Note_on_c, 0, 79, 81
1, 732417, Note_on_c, 0, 81, 75
1, 732429, Note_off_c, 0, 67, 72
1, 732430, Note_off_c, 0, 69, 72
1, 732432, Note_off_c, 0, 81, 67
1, 732434, Note_off_c, 0, 79, 68
1, 732527, Note_off_c, 0, 55, 59
1, 732618, Note_on_c, 0, 62, 66
1, 732619, Note_on_c, 0, 66, 69
1, 732620, Note_on_c, 0, 57, 83
1, 732621, Note_on_c, 0, 69, 70
1, 732627, Note_on_c, 0, 50, 74
1, 732633, Control_c, 0, 64, 100
1, 732641, Note_off_c, 0, 57, 69
1, 732642, Note_off_c, 0, 69, 69
1, 732646, Note_off_c, 0, 62, 64
1, 732648, Note_off_c, 0, 66, 63
1, 732648, Control_c, 0, 64, 71
1, 732657, Note_off_c, 0, 50, 68
1, 732663, Control_c, 0, 64, 0
1, 732844, Note_on_c, 0, 55, 83
1, 732847, Note_on_c, 0, 70, 76
1, 732850, Note_on_c, 0, 58, 65
1, 732852, Note_on_c, 0, 43, 65
1, 732854, Note_on_c, 0, 67, 66
1, 732869, Note_off_c, 0, 55, 68
1, 732871, Note_off_c, 0, 58, 63
1, 732879, Note_off_c, 0, 43, 63
1, 732882, Note_off_c, 0, 67, 66
1, 732893, Note_off_c, 0, 70, 65
1, 733105, Note_on_c, 0, 74, 106
1, 733107, Note_on_c, 0, 86, 94
1, 733116, Note_on_c, 0, 62, 97
1, 733120, Note_on_c, 0, 50, 79
1, 733127, Note_off_c, 0, 86, 68
1, 733131, Control_c, 0, 64, 95
1, 733141, Note_off_c, 0, 74, 65
1, 733145, Control_c, 0, 64, 127
1, 733147, Note_off_c, 0, 50, 67
1, 733154, Note_off_c, 0, 62, 66
1, 733215, Poly_aftertouch_c, 0, 84, 0
1, 733564, Note_on_c, 0, 62, 73
1, 733569, Note_on_c, 0, 50, 64
1, 733570, Note_on_c, 0, 38, 80
1, 733575, Note_on_c, 0, 26, 62
1, 733599, Note_off_c, 0, 38, 66
1, 733601, Note_off_c, 0, 50, 66
1, 733611, Note_off_c, 0, 26, 58
1, 733614, Note_off_c, 0, 62, 58
1, 733668, Poly_aftertouch_c, 0, 36, 127
1, 733704, Poly_aftertouch_c, 0, 36, 0
1, 733787, Note_on_c, 0, 55, 69
1, 733796, Note_on_c, 0, 43, 54
1, 733838, Note_on_c, 0, 57, 63
1, 733846, Note_on_c, 0, 45, 62
1, 733864, Control_c, 0, 64, 107
1, 733873, Note_off_c, 0, 55, 63
1, 733879, Control_c, 0, 64, 78
1, 733879, Note_off_c, 0, 43, 61
1, 733883, Note_on_c, 0, 58, 69
1, 733889, Note_on_c, 0, 46, 63
1, 733893, Control_c, 0, 64, 0
1, 733914, Note_off_c, 0, 45, 62
1, 733934, Note_off_c, 0, 57, 60
1, 733942, Note_on_c, 0, 60, 73
1, 733945, Note_on_c, 0, 48, 69
1, 733945, Note_off_c, 0, 46, 60
1, 733953, Note_on_c, 0, 41, 55
1, 733956, Note_off_c, 0, 58, 64
1, 733962, Note_on_c, 0, 53, 57
1, 733972, Note_off_c, 0, 48, 64
1, 733977, Note_off_c, 0, 60, 64
1, 733980, Note_off_c, 0, 41, 55
1, 733985, Note_off_c, 0, 53, 63
1, 734171, Note_on_c, 0, 46, 71
1, 734175, Note_on_c, 0, 62, 62
1, 734176, Note_on_c, 0, 34, 57
1, 734177, Note_on_c, 0, 58, 56
1, 734198, Note_off_c, 0, 46, 64
1, 734201, Note_off_c, 0, 58, 64
1, 734206, Note_off_c, 0, 34, 58
1, 734208, Note_off_c, 0, 62, 64
1, 734410, Note_on_c, 0, 67, 80
1, 734413, Note_on_c, 0, 55, 76
1, 734427, Control_c, 0, 64, 71
1, 734443, Control_c, 0, 64, 94
1, 734451, Note_off_c, 0, 55, 61
1, 734457, Control_c, 0, 64, 104
1, 734471, Note_off_c, 0, 67, 61
1, 734627, Control_c, 0, 64, 103
1, 734642, Control_c, 0, 64, 100
1, 734643, Note_on_c, 0, 64, 73
1, 734654, Note_on_c, 0, 52, 70
1, 734657, Control_c, 0, 64, 91
1, 734660, Note_on_c, 0, 45, 60
1, 734662, Note_on_c, 0, 61, 52
1, 734666, Note_on_c, 0, 57, 44
1, 734672, Control_c, 0, 64, 75
1, 734678, Note_off_c, 0, 64, 60
1, 734681, Note_off_c, 0, 52, 64
1, 734687, Control_c, 0, 64, 40
1, 734691, Note_off_c, 0, 45, 65
1, 734695, Note_off_c, 0, 57, 53
1, 734698, Note_off_c, 0, 61, 62
1, 734702, Control_c, 0, 64, 0
1, 734889, Note_on_c, 0, 66, 66
1, 734890, Note_on_c, 0, 38, 51
1, 734893, Note_on_c, 0, 54, 48
1, 734904, Note_on_c, 0, 50, 40
1, 734907, Note_on_c, 0, 62, 38
1, 734918, Note_off_c, 0, 38, 56
1, 734921, Note_off_c, 0, 54, 59
1, 734923, Control_c, 0, 64, 62
1, 734938, Note_off_c, 0, 50, 54
1, 734938, Note_off_c, 0, 62, 49
1, 734938, Control_c, 0, 64, 73
1, 734942, Note_off_c, 0, 66, 60
1, 734953, Control_c, 0, 64, 74
1, 734997, Control_c, 0, 64, 73
1, 735012, Control_c, 0, 64, 70
1, 735027, Control_c, 0, 64, 64
1, 735042, Control_c, 0, 64, 48
1, 735057, Control_c, 0, 64, 0
1, 735161, Control_c, 0, 64, 46
1, 735176, Note_on_c, 0, 74, 87
1, 735176, Control_c, 0, 64, 69
1, 735185, Note_on_c, 0, 62, 61
1, 735191, Control_c, 0, 64, 79
1, 735206, Control_c, 0, 64, 95
1, 735216, Note_off_c, 0, 74, 65
1, 735221, Control_c, 0, 64, 127
1, 735227, Note_off_c, 0, 62, 54
1, 735639, Note_on_c, 0, 38, 55
1, 735641, Note_on_c, 0, 26, 47
1, 735644, Note_on_c, 0, 50, 53
1, 735646, Note_on_c, 0, 62, 56
1, 735673, Note_off_c, 0, 50, 60
1, 735682, Note_off_c, 0, 26, 50
1, 735683, Note_off_c, 0, 38, 62
1, 735687, Note_off_c, 0, 62, 61
1, 735910, Control_c, 0, 64, 97
1, 735925, Control_c, 0, 64, 78
1, 735926, Note_on_c, 0, 51, 61
1, 735937, Note_on_c, 0, 66, 71
1, 735939, Control_c, 0, 64, 62
1, 735943, Note_on_c, 0, 54, 64
1, 735945, Note_on_c, 0, 63, 57
1, 735954, Control_c, 0, 64, 0
1, 735996, Note_off_c, 0, 51, 64
1, 735999, Control_c, 0, 64, 27
1, 736021, Control_c, 0, 64, 63
1, 736037, Control_c, 0, 64, 71
1, 736040, Note_on_c, 0, 50, 65
1, 736052, Control_c, 0, 64, 79
1, 736067, Control_c, 0, 64, 87
1, 736082, Control_c, 0, 64, 95
1, 736087, Note_off_c, 0, 50, 63
1, 736097, Control_c, 0, 64, 99
1, 736111, Control_c, 0, 64, 101
1, 736118, Note_on_c, 0, 49, 69
1, 736126, Control_c, 0, 64, 102
1, 736174, Note_off_c, 0, 49, 61
1, 736194, Note_on_c, 0, 48, 66
1, 736228, Note_off_c, 0, 63, 57
1, 736233, Note_off_c, 0, 48, 59
1, 736246, Note_off_c, 0, 66, 62
1, 736277, Note_on_c, 0, 47, 30
1, 736288, Note_off_c, 0, 54, 58
1, 736288, Note_on_c, 0, 46, 66
1, 736313, Note_off_c, 0, 46, 62
1, 736314, Note_off_c, 0, 47, 55
1, 736386, Note_on_c, 0, 42, 62
1, 736416, Note_off_c, 0, 42, 64
1, 736445, Note_on_c, 0, 39, 51
1, 736482, Control_c, 0, 64, 101
1, 736496, Control_c, 0, 64, 100
1, 736508, Note_on_c, 0, 38, 60
1, 736511, Control_c, 0, 64, 99
1, 736524, Note_off_c, 0, 39, 56
1, 736526, Control_c, 0, 64, 99
1, 736541, Control_c, 0, 64, 98
1, 736556, Control_c, 0, 64, 97
1, 736559, Note_off_c, 0, 38, 59
1, 736570, Control_c, 0, 64, 96
1, 736585, Control_c, 0, 64, 94
1, 736600, Control_c, 0, 64, 93
1, 736615, Control_c, 0, 64, 92
1, 736630, Control_c, 0, 64, 90
1, 736644, Control_c, 0, 64, 88
1, 736656, Note_on_c, 0, 58, 72
1, 736659, Control_c, 0, 64, 85
1, 736674, Control_c, 0, 64, 82
1, 736685, Note_on_c, 0, 37, 43
1, 736688, Control_c, 0, 64, 79
1, 736703, Control_c, 0, 64, 75
1, 736718, Control_c, 0, 64, 71
1, 736733, Control_c, 0, 64, 65
1, 736748, Control_c, 0, 64, 58
1, 736770, Control_c, 0, 64, 44
1, 736777, Note_off_c, 0, 37, 58
1, 736785, Control_c, 0, 64, 36
1, 736792, Note_on_c, 0, 36, 51
1, 736800, Control_c, 0, 64, 37
1, 736815, Control_c, 0, 64, 40
1, 736830, Control_c, 0, 64, 51
1, 736845, Control_c, 0, 64, 61
1, 736855, Note_off_c, 0, 36, 52
1, 736860, Control_c, 0, 64, 63
1, 736875, Control_c, 0, 64, 64
1, 736886, Note_on_c, 0, 35, 46
1, 736905, Control_c, 0, 64, 64
1, 736919, Control_c, 0, 64, 65
1, 736941, Note_off_c, 0, 35, 62
1, 736947, Note_on_c, 0, 34, 58
1, 736949, Control_c, 0, 64, 64
1, 736964, Note_on_c, 0, 57, 74
1, 736987, Note_off_c, 0, 58, 63
1, 737034, Note_on_c, 0, 30, 55
1, 737039, Note_off_c, 0, 34, 55
1, 737084, Note_on_c, 0, 27, 50
1, 737156, Control_c, 0, 64, 64
1, 737160, Note_off_c, 0, 27, 58
1, 737171, Control_c, 0, 64, 64
1, 737180, Note_on_c, 0, 37, 52
1, 737185, Note_on_c, 0, 56, 81
1, 737194, Note_off_c, 0, 30, 56
1, 737212, Note_off_c, 0, 57, 62
1, 737215, Control_c, 0, 64, 64
1, 737230, Control_c, 0, 64, 63
1, 737237, Note_off_c, 0, 37, 61
1, 737245, Control_c, 0, 64, 64
1, 737275, Note_on_c, 0, 36, 43
1, 737317, Note_off_c, 0, 36, 55
1, 737355, Note_on_c, 0, 35, 55
1, 737407, Note_off_c, 0, 35, 63
1, 737416, Note_on_c, 0, 54, 77
1, 737417, Note_on_c, 0, 34, 58
1, 737423, Control_c, 0, 64, 63
1, 737443, Note_off_c, 0, 56, 64
1, 737492, Note_on_c, 0, 30, 50
1, 737508, Note_off_c, 0, 34, 55
1, 737549, Control_c, 0, 64, 64
1, 737560, Note_on_c, 0, 27, 57
1, 737579, Control_c, 0, 64, 64
1, 737593, Control_c, 0, 64, 64
1, 737641, Note_on_c, 0, 37, 54
1, 737645, Note_off_c, 0, 27, 59
1, 737655, Note_on_c, 0, 51, 67
1, 737661, Note_off_c, 0, 54, 65
1, 737668, Control_c, 0, 64, 63
1, 737671, Note_off_c, 0, 30, 46
1, 737683, Control_c, 0, 64, 62
1, 737698, Control_c, 0, 64, 61
1, 737700, Note_off_c, 0, 37, 58
1, 737713, Control_c, 0, 64, 61
1, 737717, Note_on_c, 0, 36, 55
1, 737728, Control_c, 0, 64, 62
1, 737757, Note_off_c, 0, 36, 58
1, 737787, Control_c, 0, 64, 63
1, 737802, Control_c, 0, 64, 64
1, 737804, Note_on_c, 0, 35, 43
1, 737845, Note_on_c, 0, 34, 53
1, 737849, Note_off_c, 0, 35, 60
1, 737853, Note_off_c, 0, 51, 65
1, 737883, Note_on_c, 0, 46, 66
1, 737890, Control_c, 0, 64, 63
1, 737902, Note_off_c, 0, 34, 61
1, 737905, Control_c, 0, 64, 61
1, 737906, Note_on_c, 0, 30, 51
1, 737920, Control_c, 0, 64, 60
1, 737934, Control_c, 0, 64, 59
1, 737949, Control_c, 0, 64, 59
1, 737966, Note_on_c, 0, 27, 48
1, 737994, Control_c, 0, 64, 58
1, 738008, Control_c, 0, 64, 58
1, 738023, Control_c, 0, 64, 57
1, 738038, Control_c, 0, 64, 57
1, 738040, Note_off_c, 0, 27, 42
1, 738053, Control_c, 0, 64, 56
1, 738068, Control_c, 0, 64, 55
1, 738083, Control_c, 0, 64, 52
1, 738088, Poly_aftertouch_c, 0, 49, 127
1, 738098, Control_c, 0, 64, 50
1, 738100, Note_on_c, 0, 37, 63
1, 738109, Note_off_c, 0, 30, 39
1, 738127, Control_c, 0, 64, 48
1, 738142, Control_c, 0, 64, 39
1, 738145, Note_off_c, 0, 37, 65
1, 738157, Control_c, 0, 64, 19
1, 738172, Control_c, 0, 64, 0
1, 738211, Note_off_c, 0, 46, 58
1, 738229, Note_on_c, 0, 45, 59
1, 738300, Note_off_c, 0, 45, 58
1, 738355, Note_on_c, 0, 36, 63
1, 738357, Note_on_c, 0, 44, 53
1, 738386, Note_off_c, 0, 36, 62
1, 738404, Poly_aftertouch_c, 0, 49, 0
1, 738436, Note_off_c, 0, 44, 60
1, 738462, Control_c, 0, 67, 8
1, 738467, Note_on_c, 0, 43, 49
1, 738477, Control_c, 0, 67, 11
1, 738491, Control_c, 0, 67, 13
1, 738506, Control_c, 0, 67, 15
1, 738521, Control_c, 0, 67, 19
1, 738529, Note_off_c, 0, 43, 55
1, 738536, Control_c, 0, 67, 24
1, 738551, Control_c, 0, 67, 29
1, 738565, Control_c, 0, 67, 34
1, 738580, Control_c, 0, 67, 42
1, 738590, Note_on_c, 0, 42, 42
1, 738595, Control_c, 0, 67, 49
1, 738600, Note_on_c, 0, 34, 59
1, 738610, Control_c, 0, 67, 53
1, 738625, Control_c, 0, 67, 57
1, 738631, Note_off_c, 0, 34, 61
1, 738640, Control_c, 0, 67, 65
1, 738655, Control_c, 0, 67, 73
1, 738657, Note_off_c, 0, 42, 53
1, 738670, Control_c, 0, 67, 80
1, 738684, Control_c, 0, 67, 86
1, 738699, Control_c, 0, 67, 94
1, 738709, Note_on_c, 0, 39, 45
1, 738714, Control_c, 0, 67, 102
1, 738729, Control_c, 0, 67, 112
1, 738744, Control_c, 0, 67, 120
1, 738758, Control_c, 0, 67, 126
1, 738773, Control_c, 0, 67, 127
1, 738775, Note_off_c, 0, 39, 52
1, 738845, Note_on_c, 0, 30, 60
1, 738883, Note_off_c, 0, 30, 61
1, 739167, Note_on_c, 0, 27, 59
1, 739200, Note_off_c, 0, 27, 61
1, 739511, Note_on_c, 0, 57, 62
1, 739513, Note_on_c, 0, 66, 62
1, 739521, Note_on_c, 0, 54, 55
1, 739522, Note_on_c, 0, 62, 46
1, 739532, Note_off_c, 0, 57, 64
1, 739537, Note_on_c, 0, 45, 27
1, 739539, Note_off_c, 0, 66, 65
1, 739540, Note_on_c, 0, 50, 15
1, 739545, Note_off_c, 0, 54, 60
1, 739548, Note_off_c, 0, 62, 56
1, 739579, Note_off_c, 0, 45, 50
1, 739582, Note_off_c, 0, 50, 51
1, 739766, Note_on_c, 0, 67, 57
1, 739771, Note_on_c, 0, 64, 55
1, 739776, Note_on_c, 0, 54, 50
1, 739779, Note_on_c, 0, 50, 40
1, 739796, Control_c, 0, 67, 124
1, 739804, Note_on_c, 0, 57, 64
1, 739809, Note_on_c, 0, 69, 81
1, 739809, Note_off_c, 0, 64, 63
1, 739811, Control_c, 0, 67, 113
1, 739816, Note_on_c, 0, 66, 71
1, 739817, Note_on_c, 0, 62, 69
1, 739826, Control_c, 0, 64, 68
1, 739826, Control_c, 0, 67, 97
1, 739830, Note_off_c, 0, 57, 67
1, 739831, Note_on_c, 0, 45, 55
1, 739831, Note_off_c, 0, 54, 65
1, 739840, Control_c, 0, 64, 88
1, 739840, Control_c, 0, 67, 79
1, 739841, Note_off_c, 0, 50, 65
1, 739844, Note_off_c, 0, 67, 58
1, 739855, Control_c, 0, 64, 104
1, 739855, Control_c, 0, 67, 65
1, 739857, Note_off_c, 0, 45, 60
1, 739870, Control_c, 0, 64, 127
1, 739870, Control_c, 0, 67, 52
1, 739885, Control_c, 0, 67, 37
1, 739900, Control_c, 0, 67, 17
1, 739914, Control_c, 0, 67, 0
1, 740097, Note_on_c, 0, 38, 79
1, 740109, Note_off_c, 0, 62, 58
1, 740112, Note_off_c, 0, 69, 56
1, 740123, Note_off_c, 0, 66, 60
1, 740129, Note_off_c, 0, 38, 66
1, 740360, Control_c, 0, 64, 86
1, 740375, Control_c, 0, 64, 69
1, 740387, Note_on_c, 0, 70, 84
1, 740388, Note_on_c, 0, 56, 81
1, 740390, Note_on_c, 0, 62, 60
1, 740390, Note_on_c, 0, 65, 70
1, 740390, Control_c, 0, 64, 62
1, 740390, Note_on_c, 0, 58, 86
1, 740391, Note_on_c, 0, 53, 66
1, 740393, Note_on_c, 0, 50, 62
1, 740399, Note_on_c, 0, 44, 68
1, 740404, Control_c, 0, 64, 67
1, 740419, Control_c, 0, 64, 75
1, 740434, Control_c, 0, 64, 85
1, 740449, Control_c, 0, 64, 102
1, 740463, Control_c, 0, 64, 127
1, 740531, Note_off_c, 0, 65, 56
1, 740533, Note_off_c, 0, 58, 58
1, 740534, Note_off_c, 0, 50, 53
1, 740554, Note_off_c, 0, 53, 60
1, 740562, Note_off_c, 0, 56, 61
1, 740571, Note_off_c, 0, 44, 60
1, 740601, Note_off_c, 0, 62, 59
1, 740620, Note_off_c, 0, 70, 60
1, 740634, Control_c, 0, 64, 98
1, 740644, Note_on_c, 0, 55, 81
1, 740647, Note_on_c, 0, 60, 72
1, 740647, Note_on_c, 0, 64, 71
1, 740649, Control_c, 0, 64, 45
1, 740654, Note_on_c, 0, 43, 67
1, 740663, Control_c, 0, 64, 0
1, 740667, Note_off_c, 0, 55, 69
1, 740670, Note_off_c, 0, 60, 70
1, 740677, Note_off_c, 0, 64, 67
1, 740679, Note_off_c, 0, 43, 65
1, 740855, Note_on_c, 0, 65, 71
1, 740863, Note_on_c, 0, 62, 57
1, 740884, Note_off_c, 0, 62, 60
1, 740894, Note_on_c, 0, 51, 15
1, 740895, Note_off_c, 0, 51, 127
1, 740897, Note_on_c, 0, 55, 56
1, 740903, Note_on_c, 0, 67, 87
1, 740908, Note_on_c, 0, 64, 76
1, 740911, Note_on_c, 0, 60, 78
1, 740926, Note_on_c, 0, 43, 68
1, 740931, Control_c, 0, 64, 68
1, 740932, Note_off_c, 0, 55, 65
1, 740939, Note_off_c, 0, 65, 57
1, 740946, Control_c, 0, 64, 127
1, 740956, Note_off_c, 0, 43, 65
1, 741021, Poly_aftertouch_c, 0, 53, 0
1, 741170, Note_on_c, 0, 38, 83
1, 741175, Note_off_c, 0, 64, 62
1, 741177, Note_off_c, 0, 60, 62
1, 741190, Note_off_c, 0, 67, 60
1, 741209, Note_off_c, 0, 38, 62
1, 741412, Control_c, 0, 64, 97
1, 741427, Control_c, 0, 64, 77
1, 741438, Note_on_c, 0, 54, 88
1, 741439, Note_on_c, 0, 69, 85
1, 741442, Note_on_c, 0, 57, 82
1, 741442, Control_c, 0, 64, 66
1, 741442, Note_on_c, 0, 51, 73
1, 741442, Note_on_c, 0, 63, 76
1, 741445, Note_on_c, 0, 48, 65
1, 741445, Note_on_c, 0, 59, 69
1, 741449, Note_on_c, 0, 42, 72
1, 741457, Control_c, 0, 64, 67
1, 741472, Control_c, 0, 64, 73
1, 741486, Control_c, 0, 64, 80
1, 741491, Note_off_c, 0, 57, 57
1, 741501, Control_c, 0, 64, 87
1, 741508, Note_off_c, 0, 69, 60
1, 741516, Control_c, 0, 64, 95
1, 741531, Control_c, 0, 64, 105
1, 741532, Note_off_c, 0, 59, 52
1, 741546, Control_c, 0, 64, 127
1, 741549, Poly_aftertouch_c, 0, 49, 0
1, 741565, Note_off_c, 0, 54, 61
1, 741566, Note_off_c, 0, 42, 58
1, 741567, Note_off_c, 0, 48, 61
1, 741573, Note_off_c, 0, 51, 57
1, 741579, Note_off_c, 0, 63, 55
1, 741694, Note_on_c, 0, 53, 86
1, 741695, Control_c, 0, 64, 87
1, 741698, Note_on_c, 0, 62, 82
1, 741699, Note_on_c, 0, 46, 72
1, 741702, Note_on_c, 0, 50, 67
1, 741704, Note_on_c, 0, 58, 71
1, 741705, Note_on_c, 0, 41, 58
1, 741709, Control_c, 0, 64, 56
1, 741716, Note_off_c, 0, 53, 70
1, 741724, Note_off_c, 0, 58, 68
1, 741724, Control_c, 0, 64, 0
1, 741725, Note_off_c, 0, 50, 63
1, 741726, Note_off_c, 0, 46, 64
1, 741734, Note_off_c, 0, 41, 53
1, 741737, Note_off_c, 0, 62, 58
1, 741883, Note_on_c, 0, 54, 91
1, 741883, Note_on_c, 0, 63, 73
1, 741894, Note_on_c, 0, 60, 62
1, 741904, Note_on_c, 0, 50, 56
1, 741906, Note_off_c, 0, 54, 70
1, 741917, Note_on_c, 0, 46, 30
1, 741934, Note_on_c, 0, 58, 70
1, 741940, Note_on_c, 0, 65, 81
1, 741942, Note_on_c, 0, 62, 69
1, 741947, Note_off_c, 0, 46, 0
1, 741947, Note_on_c, 0, 46, 9
1, 741949, Note_on_c, 0, 55, 71
1, 741949, Note_on_c, 0, 53, 95
1, 741961, Note_on_c, 0, 41, 63
1, 741961, Note_off_c, 0, 60, 63
1, 741962, Note_off_c, 0, 58, 66
1, 741969, Note_off_c, 0, 63, 63
1, 741970, Note_off_c, 0, 55, 67
1, 741971, Note_off_c, 0, 53, 73
1, 741981, Note_off_c, 0, 50, 66
1, 741984, Note_off_c, 0, 62, 57
1, 741986, Note_off_c, 0, 41, 58
1, 741989, Note_off_c, 0, 46, 60
1, 742059, Note_off_c, 0, 65, 38
1, 742204, Note_on_c, 0, 55, 80
1, 742205, Note_on_c, 0, 67, 85
1, 742206, Note_on_c, 0, 58, 74
1, 742207, Note_on_c, 0, 52, 81
1, 742210, Note_on_c, 0, 61, 77
1, 742221, Note_on_c, 0, 46, 59
1, 742224, Note_on_c, 0, 49, 55
1, 742226, Note_off_c, 0, 55, 68
1, 742229, Note_off_c, 0, 58, 69
1, 742229, Note_off_c, 0, 52, 66
1, 742237, Note_off_c, 0, 61, 66
1, 742244, Note_off_c, 0, 46, 60
1, 742248, Note_on_c, 0, 40, 12
1, 742250, Note_off_c, 0, 49, 59
1, 742251, Note_off_c, 0, 67, 57
1, 742298, Note_off_c, 0, 40, 30
1, 742547, Note_on_c, 0, 67, 75
1, 742553, Note_on_c, 0, 61, 59
1, 742554, Note_on_c, 0, 52, 47
1, 742557, Note_on_c, 0, 49, 50
1, 742558, Note_on_c, 0, 57, 58
1, 742561, Note_on_c, 0, 55, 59
1, 742571, Note_on_c, 0, 40, 41
1, 742575, Note_on_c, 0, 45, 47
1, 742649, Control_c, 0, 64, 19
1, 742664, Control_c, 0, 64, 51
1, 742679, Control_c, 0, 64, 61
1, 742694, Control_c, 0, 64, 65
1, 742709, Control_c, 0, 64, 70
1, 742724, Control_c, 0, 64, 78
1, 742739, Control_c, 0, 64, 86
1, 742761, Control_c, 0, 64, 94
1, 742776, Control_c, 0, 64, 102
1, 742791, Control_c, 0, 64, 108
1, 742805, Control_c, 0, 64, 113
1, 742820, Control_c, 0, 64, 116
1, 742835, Control_c, 0, 64, 117
1, 742849, Note_off_c, 0, 40, 42
1, 742849, Control_c, 0, 64, 118
1, 742864, Control_c, 0, 64, 119
1, 742874, Note_off_c, 0, 52, 35
1, 742879, Control_c, 0, 64, 127
1, 742920, Note_off_c, 0, 49, 61
1, 742971, Note_off_c, 0, 61, 38
1, 742976, Note_off_c, 0, 67, 53
1, 742987, Note_off_c, 0, 55, 34
1, 742989, Note_on_c, 0, 38, 58
1, 742998, Note_off_c, 0, 45, 40
1, 743007, Note_off_c, 0, 57, 32
1, 743059, Note_off_c, 0, 38, 60
1, 743087, Note_on_c, 0, 45, 58
1, 743117, Control_c, 0, 64, 120
1, 743131, Control_c, 0, 64, 97
1, 743146, Control_c, 0, 64, 78
1, 743161, Control_c, 0, 64, 62
1, 743176, Control_c, 0, 64, 0
1, 743185, Note_on_c, 0, 69, 66
1, 743190, Note_on_c, 0, 66, 51
1, 743195, Note_on_c, 0, 54, 60
1, 743196, Note_on_c, 0, 57, 41
1, 743215, Note_on_c, 0, 62, 22
1, 743221, Control_c, 0, 64, 62
1, 743236, Control_c, 0, 64, 71
1, 743251, Control_c, 0, 64, 84
1, 743261, Note_off_c, 0, 57, 54
1, 743266, Control_c, 0, 64, 102
1, 743280, Control_c, 0, 64, 127
1, 743299, Note_off_c, 0, 45, 60
1, 743335, Note_off_c, 0, 69, 57
1, 743339, Note_off_c, 0, 62, 26
1, 743344, Note_off_c, 0, 66, 51
1, 743349, Note_off_c, 0, 54, 65
1, 743506, Note_on_c, 0, 63, 69
1, 743569, Control_c, 0, 64, 108
1, 743583, Note_on_c, 0, 78, 80
1, 743584, Control_c, 0, 64, 79
1, 743591, Note_on_c, 0, 66, 64
1, 743592, Note_on_c, 0, 75, 59
1, 743599, Control_c, 0, 64, 33
1, 743614, Control_c, 0, 64, 0
1, 743643, Control_c, 0, 64, 55
1, 743658, Control_c, 0, 64, 74
1, 743672, Control_c, 0, 64, 98
1, 743687, Control_c, 0, 64, 127
1, 743764, Note_on_c, 0, 62, 71
1, 743776, Note_off_c, 0, 63, 60
1, 743860, Note_off_c, 0, 62, 55
1, 743874, Note_on_c, 0, 61, 66
1, 743909, Note_off_c, 0, 75, 53
1, 743923, Note_off_c, 0, 78, 58
1, 743941, Note_off_c, 0, 61, 61
1, 743970, Note_on_c, 0, 60, 63
1, 743974, Note_off_c, 0, 66, 58
1, 744013, Control_c, 0, 67, 9
1, 744029, Control_c, 0, 67, 11
1, 744044, Control_c, 0, 67, 12
1, 744054, Note_off_c, 0, 60, 58
1, 744059, Control_c, 0, 67, 14
1, 744065, Note_on_c, 0, 59, 54
1, 744074, Control_c, 0, 67, 16
1, 744089, Control_c, 0, 67, 18
1, 744103, Control_c, 0, 67, 20
1, 744118, Control_c, 0, 67, 22
1, 744132, Control_c, 0, 67, 24
1, 744147, Control_c, 0, 67, 24
1, 744160, Note_on_c, 0, 58, 62
1, 744168, Note_off_c, 0, 59, 58
1, 744190, Note_off_c, 0, 58, 66
1, 744221, Control_c, 0, 67, 24
1, 744236, Control_c, 0, 67, 23
1, 744258, Control_c, 0, 67, 23
1, 744286, Note_on_c, 0, 66, 64
1, 744288, Control_c, 0, 64, 103
1, 744288, Control_c, 0, 67, 22
1, 744300, Note_on_c, 0, 62, 50
1, 744301, Note_on_c, 0, 57, 73
1, 744303, Control_c, 0, 64, 67
1, 744303, Control_c, 0, 67, 22
1, 744306, Note_on_c, 0, 54, 66
1, 744314, Note_off_c, 0, 66, 65
1, 744318, Note_off_c, 0, 57, 65
1, 744318, Control_c, 0, 64, 0
1, 744323, Note_on_c, 0, 45, 45
1, 744323, Note_off_c, 0, 62, 58
1, 744327, Note_off_c, 0, 54, 64
1, 744357, Note_off_c, 0, 45, 32
1, 744436, Control_c, 0, 67, 22
1, 744510, Control_c, 0, 67, 22
1, 744521, Note_on_c, 0, 49, 64
1, 744525, Control_c, 0, 67, 21
1, 744536, Note_on_c, 0, 54, 54
1, 744539, Note_on_c, 0, 64, 49
1, 744539, Note_on_c, 0, 67, 60
1, 744540, Control_c, 0, 67, 20
1, 744548, Note_off_c, 0, 49, 64
1, 744551, Note_on_c, 0, 58, 13
1, 744552, Note_off_c, 0, 58, 127
1, 744555, Control_c, 0, 67, 17
1, 744560, Note_on_c, 0, 57, 58
1, 744565, Note_on_c, 0, 69, 81
1, 744569, Note_off_c, 0, 64, 62
1, 744570, Control_c, 0, 67, 12
1, 744572, Note_on_c, 0, 66, 76
1, 744578, Note_on_c, 0, 62, 70
1, 744581, Note_on_c, 0, 50, 51
1, 744584, Control_c, 0, 67, 0
1, 744590, Note_on_c, 0, 45, 71
1, 744593, Note_off_c, 0, 57, 68
1, 744599, Control_c, 0, 64, 80
1, 744600, Note_off_c, 0, 54, 66
1, 744611, Note_off_c, 0, 50, 66
1, 744614, Control_c, 0, 64, 127
1, 744615, Note_off_c, 0, 67, 49
1, 744619, Note_off_c, 0, 45, 68
1, 744836, Note_on_c, 0, 38, 80
1, 744840, Note_off_c, 0, 62, 60
1, 744842, Note_off_c, 0, 66, 62
1, 744855, Note_off_c, 0, 69, 58
1, 744880, Note_off_c, 0, 38, 60
1, 745082, Control_c, 0, 64, 100
1, 745097, Control_c, 0, 64, 80
1, 745112, Control_c, 0, 64, 65
1, 745122, Note_on_c, 0, 56, 84
1, 745122, Note_on_c, 0, 61, 78
1, 745123, Note_on_c, 0, 71, 86
1, 745123, Note_on_c, 0, 65, 72
1, 745125, Note_on_c, 0, 53, 71
1, 745125, Note_on_c, 0, 59, 84
1, 745126, Note_on_c, 0, 49, 68
1, 745128, Note_on_c, 0, 44, 75
1, 745141, Control_c, 0, 64, 75
1, 745156, Control_c, 0, 64, 90
1, 745171, Control_c, 0, 64, 127
1, 745208, Note_off_c, 0, 59, 56
1, 745245, Note_off_c, 0, 65, 55
1, 745250, Note_off_c, 0, 56, 63
1, 745252, Note_off_c, 0, 71, 59
1, 745253, Note_off_c, 0, 53, 61
1, 745260, Note_off_c, 0, 44, 60
1, 745275, Note_off_c, 0, 49, 57
1, 745284, Note_off_c, 0, 61, 58
1, 745362, Note_on_c, 0, 55, 74
1, 745364, Control_c, 0, 64, 86
1, 745368, Note_on_c, 0, 60, 69
1, 745368, Note_on_c, 0, 64, 75
1, 745370, Note_on_c, 0, 43, 67
1, 745379, Control_c, 0, 64, 0
1, 745388, Note_off_c, 0, 55, 67
1, 745392, Note_off_c, 0, 60, 69
1, 745392, Note_off_c, 0, 64, 69
1, 745397, Note_off_c, 0, 43, 66
1, 745548, Note_on_c, 0, 56, 69
1, 745549, Note_on_c, 0, 62, 68
1, 745550, Note_on_c, 0, 65, 68
1, 745574, Note_off_c, 0, 56, 67
1, 745587, Note_off_c, 0, 62, 55
1, 745599, Note_on_c, 0, 55, 70
1, 745602, Note_on_c, 0, 67, 88
1, 745605, Note_on_c, 0, 60, 83
1, 745605, Note_on_c, 0, 64, 88
1, 745615, Control_c, 0, 64, 62
1, 745625, Note_on_c, 0, 43, 68
1, 745627, Note_off_c, 0, 55, 69
1, 745631, Control_c, 0, 64, 89
1, 745646, Control_c, 0, 64, 127
1, 745652, Note_off_c, 0, 43, 64
1, 745707, Note_off_c, 0, 65, 28
1, 745881, Note_on_c, 0, 38, 82
1, 745897, Note_off_c, 0, 64, 61
1, 745900, Note_off_c, 0, 60, 62
1, 745900, Note_off_c, 0, 67, 57
1, 745918, Note_off_c, 0, 38, 61
1, 746098, Control_c, 0, 64, 104
1, 746113, Control_c, 0, 64, 84
1, 746128, Control_c, 0, 64, 68
1, 746142, Control_c, 0, 64, 0
1, 746150, Note_on_c, 0, 54, 87
1, 746152, Note_on_c, 0, 69, 82
1, 746155, Note_on_c, 0, 63, 76
1, 746155, Note_on_c, 0, 57, 81
1, 746155, Note_on_c, 0, 59, 77
1, 746156, Note_on_c, 0, 51, 74
1, 746164, Note_on_c, 0, 42, 71
1, 746165, Note_on_c, 0, 47, 62
1, 746172, Control_c, 0, 64, 50
1, 746187, Control_c, 0, 64, 68
1, 746201, Control_c, 0, 64, 78
1, 746216, Control_c, 0, 64, 90
1, 746217, Note_off_c, 0, 57, 50
1, 746225, Note_off_c, 0, 69, 58
1, 746231, Control_c, 0, 64, 102
1, 746241, Note_off_c, 0, 59, 53
1, 746245, Note_off_c, 0, 54, 62
1, 746246, Control_c, 0, 64, 115
1, 746250, Note_off_c, 0, 47, 62
1, 746253, Note_off_c, 0, 51, 60
1, 746261, Control_c, 0, 64, 127
1, 746265, Note_off_c, 0, 42, 59
1, 746283, Note_off_c, 0, 63, 58
1, 746404, Note_on_c, 0, 62, 83
1, 746405, Note_on_c, 0, 53, 79
1, 746408, Control_c, 0, 64, 103
1, 746409, Note_on_c, 0, 50, 71
1, 746411, Note_on_c, 0, 41, 68
1, 746414, Note_on_c, 0, 58, 72
1, 746419, Note_on_c, 0, 46, 61
1, 746424, Control_c, 0, 64, 77
1, 746430, Note_off_c, 0, 53, 69
1, 746437, Note_off_c, 0, 41, 61
1, 746439, Control_c, 0, 64, 0
1, 746440, Note_off_c, 0, 58, 68
1, 746441, Note_off_c, 0, 50, 68
1, 746446, Note_off_c, 0, 46, 63
1, 746450, Note_off_c, 0, 62, 61
1, 746599, Note_on_c, 0, 63, 73
1, 746607, Note_on_c, 0, 54, 73
1, 746613, Note_on_c, 0, 60, 64
1, 746630, Note_on_c, 0, 50, 50
1, 746635, Note_off_c, 0, 54, 69
1, 746639, Note_on_c, 0, 42, 12
1, 746640, Note_off_c, 0, 42, 127
1, 746655, Note_on_c, 0, 62, 78
1, 746655, Note_on_c, 0, 65, 84
1, 746662, Note_on_c, 0, 58, 62
1, 746664, Note_on_c, 0, 46, 11
1, 746670, Note_on_c, 0, 53, 86
1, 746676, Note_off_c, 0, 60, 63
1, 746685, Note_on_c, 0, 41, 66
1, 746688, Note_off_c, 0, 63, 62
1, 746689, Note_off_c, 0, 58, 65
1, 746701, Note_off_c, 0, 53, 61
1, 746706, Note_off_c, 0, 50, 62
1, 746716, Note_off_c, 0, 41, 64
1, 746716, Note_off_c, 0, 62, 60
1, 746734, Note_off_c, 0, 46, 59
1, 746749, Note_off_c, 0, 65, 56
1, 746915, Note_on_c, 0, 67, 79
1, 746916, Note_on_c, 0, 55, 78
1, 746917, Note_on_c, 0, 58, 70
1, 746917, Note_on_c, 0, 61, 78
1, 746918, Note_on_c, 0, 52, 74
1, 746928, Note_on_c, 0, 40, 57
1, 746936, Note_on_c, 0, 49, 59
1, 746938, Note_on_c, 0, 46, 57
1, 746939, Note_off_c, 0, 55, 68
1, 746942, Note_off_c, 0, 58, 68
1, 746954, Note_off_c, 0, 61, 58
1, 746962, Note_off_c, 0, 67, 58
1, 746971, Note_off_c, 0, 52, 44
1, 746972, Note_off_c, 0, 40, 63
1, 746983, Note_off_c, 0, 49, 58
1, 746984, Note_off_c, 0, 46, 57
1, 747296, Note_on_c, 0, 67, 72
1, 747300, Note_on_c, 0, 61, 55
1, 747305, Note_on_c, 0, 51, 53
1, 747306, Note_on_c, 0, 55, 55
1, 747309, Note_on_c, 0, 57, 55
1, 747315, Note_on_c, 0, 48, 47
1, 747323, Note_on_c, 0, 45, 45
1, 747325, Note_on_c, 0, 39, 40
1, 747581, Control_c, 0, 64, 65
1, 747595, Control_c, 0, 64, 76
1, 747595, Control_c, 0, 67, 9
1, 747610, Control_c, 0, 64, 81
1, 747610, Control_c, 0, 67, 14
1, 747625, Control_c, 0, 64, 82
1, 747625, Control_c, 0, 67, 17
1, 747640, Control_c, 0, 64, 84
1, 747640, Control_c, 0, 67, 20
1, 747654, Control_c, 0, 64, 84
1, 747654, Control_c, 0, 67, 24
1, 747669, Control_c, 0, 67, 27
1, 747684, Control_c, 0, 67, 28
1, 747699, Control_c, 0, 67, 29
1, 747702, Note_off_c, 0, 51, 63
1, 747714, Control_c, 0, 67, 30
1, 747726, Note_off_c, 0, 39, 40
1, 747729, Control_c, 0, 64, 85
1, 747729, Control_c, 0, 67, 31
1, 747743, Control_c, 0, 64, 88
1, 747743, Control_c, 0, 67, 32
1, 747758, Control_c, 0, 64, 91
1, 747774, Note_off_c, 0, 61, 58
1, 747787, Note_off_c, 0, 67, 57
1, 747801, Note_off_c, 0, 55, 51
1, 747806, Note_off_c, 0, 57, 49
1, 747829, Note_off_c, 0, 48, 37
1, 747833, Control_c, 0, 67, 32
1, 747833, Note_on_c, 0, 38, 56
1, 747847, Control_c, 0, 67, 33
1, 747860, Note_off_c, 0, 45, 55
1, 747862, Control_c, 0, 67, 33
1, 747878, Control_c, 0, 67, 35
1, 747893, Control_c, 0, 64, 90
1, 747893, Control_c, 0, 67, 37
1, 747895, Note_off_c, 0, 38, 60
1, 747907, Control_c, 0, 64, 88
1, 747907, Control_c, 0, 67, 38
1, 747922, Control_c, 0, 64, 85
1, 747922, Control_c, 0, 67, 39
1, 747937, Control_c, 0, 64, 80
1, 747945, Note_on_c, 0, 45, 50
1, 747952, Control_c, 0, 64, 73
1, 747966, Control_c, 0, 64, 59
1, 747973, Note_on_c, 0, 69, 62
1, 747979, Note_on_c, 0, 66, 53
1, 747980, Note_on_c, 0, 57, 39
1, 747981, Control_c, 0, 64, 0
1, 747997, Note_on_c, 0, 62, 37
1, 748019, Note_on_c, 0, 54, 62
1, 748034, Control_c, 0, 67, 39
1, 748049, Control_c, 0, 67, 38
1, 748064, Control_c, 0, 64, 67
1, 748064, Control_c, 0, 67, 37
1, 748078, Control_c, 0, 64, 79
1, 748078, Control_c, 0, 67, 35
1, 748092, Note_off_c, 0, 57, 40
1, 748093, Control_c, 0, 64, 94
1, 748093, Control_c, 0, 67, 34
1, 748108, Control_c, 0, 64, 112
1, 748108, Control_c, 0, 67, 32
1, 748123, Control_c, 0, 64, 127
1, 748123, Control_c, 0, 67, 30
1, 748138, Control_c, 0, 67, 26
1, 748149, Note_off_c, 0, 45, 53
1, 748152, Control_c, 0, 67, 17
1, 748161, Note_off_c, 0, 69, 55
1, 748164, Note_off_c, 0, 62, 40
1, 748167, Control_c, 0, 67, 0
1, 748189, Note_off_c, 0, 66, 38
1, 748216, Note_off_c, 0, 54, 65
1, 748375, Control_c, 0, 64, 116
1, 748378, Note_on_c, 0, 66, 66
1, 748389, Control_c, 0, 64, 98
1, 748404, Control_c, 0, 64, 84
1, 748419, Control_c, 0, 64, 70
1, 748426, Note_on_c, 0, 82, 82
1, 748434, Control_c, 0, 64, 0
1, 748438, Note_on_c, 0, 70, 59
1, 748447, Note_on_c, 0, 78, 63
1, 748478, Control_c, 0, 64, 63
1, 748479, Note_on_c, 0, 80, 19
1, 748482, Note_off_c, 0, 80, 43
1, 748493, Control_c, 0, 64, 74
1, 748508, Control_c, 0, 64, 85
1, 748523, Control_c, 0, 64, 103
1, 748538, Control_c, 0, 64, 127
1, 748662, Note_off_c, 0, 66, 61
1, 748669, Note_on_c, 0, 65, 67
1, 748775, Note_off_c, 0, 65, 57
1, 748791, Note_off_c, 0, 78, 50
1, 748795, Note_off_c, 0, 82, 61
1, 748804, Note_on_c, 0, 64, 66
1, 748900, Note_on_c, 0, 63, 71
1, 748907, Note_off_c, 0, 70, 38
1, 748909, Note_off_c, 0, 64, 61
1, 748980, Note_off_c, 0, 63, 63
1, 748992, Note_on_c, 0, 62, 76
1, 749074, Note_on_c, 0, 61, 72
1, 749082, Note_off_c, 0, 62, 57
1, 749138, Note_on_c, 0, 70, 87
1, 749158, Note_on_c, 0, 66, 67
1, 749235, Note_off_c, 0, 61, 61
1, 749243, Note_on_c, 0, 60, 65
1, 749323, Note_off_c, 0, 66, 53
1, 749326, Note_on_c, 0, 59, 67
1, 749337, Note_off_c, 0, 60, 59
1, 749389, Control_c, 0, 64, 116
1, 749404, Control_c, 0, 64, 91
1, 749406, Note_on_c, 0, 58, 67
1, 749419, Control_c, 0, 64, 75
1, 749425, Note_on_c, 0, 69, 80
1, 749425, Note_off_c, 0, 59, 50
1, 749434, Control_c, 0, 64, 67
1, 749446, Note_on_c, 0, 65, 61
1, 749449, Control_c, 0, 64, 68
1, 749461, Note_off_c, 0, 70, 60
1, 749463, Control_c, 0, 64, 73
1, 749478, Control_c, 0, 64, 79
1, 749500, Control_c, 0, 64, 84
1, 749513, Note_on_c, 0, 57, 61
1, 749513, Note_off_c, 0, 58, 60
1, 749515, Control_c, 0, 64, 89
1, 749530, Control_c, 0, 64, 96
1, 749545, Control_c, 0, 64, 102
1, 749560, Control_c, 0, 64, 104
1, 749574, Note_off_c, 0, 65, 61
1, 749574, Control_c, 0, 64, 105
1, 749618, Note_on_c, 0, 58, 68
1, 749622, Note_off_c, 0, 57, 57
1, 749664, Control_c, 0, 64, 105
1, 749679, Control_c, 0, 64, 104
1, 749694, Control_c, 0, 64, 101
1, 749696, Note_on_c, 0, 59, 65
1, 749709, Control_c, 0, 64, 93
1, 749713, Note_on_c, 0, 68, 78
1, 749714, Note_off_c, 0, 58, 54
1, 749723, Control_c, 0, 64, 79
1, 749725, Note_on_c, 0, 64, 50
1, 749738, Control_c, 0, 64, 64
1, 749753, Control_c, 0, 64, 0
1, 749812, Control_c, 0, 64, 27
1, 749821, Note_off_c, 0, 69, 56
1, 749824, Note_on_c, 0, 58, 71
1, 749827, Control_c, 0, 64, 62
1, 749836, Note_off_c, 0, 59, 56
1, 749842, Control_c, 0, 64, 70
1, 749857, Control_c, 0, 64, 79
1, 749872, Control_c, 0, 64, 89
1, 749887, Control_c, 0, 64, 95
1, 749902, Control_c, 0, 64, 96
1, 749916, Note_off_c, 0, 58, 59
1, 749916, Control_c, 0, 64, 98
1, 749931, Control_c, 0, 64, 100
1, 749932, Note_on_c, 0, 59, 65
1, 749946, Control_c, 0, 64, 102
1, 750005, Control_c, 0, 64, 99
1, 750018, Note_off_c, 0, 59, 57
1, 750019, Note_on_c, 0, 60, 74
1, 750020, Control_c, 0, 64, 90
1, 750034, Control_c, 0, 64, 77
1, 750049, Control_c, 0, 64, 63
1, 750064, Control_c, 0, 64, 32
1, 750079, Control_c, 0, 64, 28
1, 750094, Control_c, 0, 64, 56
1, 750108, Control_c, 0, 64, 64
1, 750123, Control_c, 0, 64, 69
1, 750138, Control_c, 0, 64, 76
1, 750139, Note_off_c, 0, 60, 60
1, 750144, Note_on_c, 0, 59, 74
1, 750153, Control_c, 0, 64, 82
1, 750168, Control_c, 0, 64, 88
1, 750182, Control_c, 0, 64, 92
1, 750197, Control_c, 0, 64, 93
1, 750198, Note_off_c, 0, 64, 59
1, 750261, Note_on_c, 0, 60, 66
1, 750268, Note_off_c, 0, 59, 57
1, 750397, Control_c, 0, 64, 92
1, 750412, Control_c, 0, 64, 89
1, 750414, Note_on_c, 0, 61, 69
1, 750414, Note_off_c, 0, 60, 58
1, 750423, Note_on_c, 0, 67, 71
1, 750428, Control_c, 0, 64, 81
1, 750443, Control_c, 0, 64, 68
1, 750458, Control_c, 0, 64, 51
1, 750459, Note_on_c, 0, 63, 42
1, 750472, Control_c, 0, 64, 0
1, 750492, Note_off_c, 0, 68, 58
1, 750532, Control_c, 0, 64, 63
1, 750546, Control_c, 0, 64, 72
1, 750561, Control_c, 0, 64, 85
1, 750576, Control_c, 0, 64, 106
1, 750591, Control_c, 0, 64, 127
1, 750619, Note_on_c, 0, 60, 70
1, 750619, Note_off_c, 0, 61, 60
1, 750781, Note_off_c, 0, 63, 51
1, 750805, Note_off_c, 0, 60, 65
1, 750831, Note_on_c, 0, 61, 70
1, 750930, Note_off_c, 0, 61, 61
1, 751142, Note_off_c, 0, 67, 57
1, 751172, Note_on_c, 0, 39, 45
1, 751262, Note_on_c, 0, 62, 51
1, 751267, Control_c, 0, 64, 98
1, 751271, Note_on_c, 0, 67, 60
1, 751282, Control_c, 0, 64, 83
1, 751296, Control_c, 0, 64, 69
1, 751311, Control_c, 0, 64, 59
1, 751324, Note_on_c, 0, 56, 10
1, 751326, Control_c, 0, 64, 29
1, 751341, Control_c, 0, 64, 0
1, 751356, Control_c, 0, 64, 23
1, 751370, Control_c, 0, 64, 50
1, 751385, Control_c, 0, 64, 63
1, 751400, Control_c, 0, 64, 68
1, 751414, Control_c, 0, 64, 74
1, 751429, Control_c, 0, 64, 84
1, 751444, Control_c, 0, 64, 100
1, 751459, Control_c, 0, 64, 127
1, 751553, Note_off_c, 0, 56, 42
1, 751649, Note_off_c, 0, 62, 61
1, 751661, Note_off_c, 0, 39, 37
1, 751703, Note_on_c, 0, 46, 51
1, 751756, Note_off_c, 0, 67, 63
1, 751812, Note_on_c, 0, 67, 58
1, 751905, Note_off_c, 0, 46, 61
1, 752115, Note_on_c, 0, 56, 51
1, 752119, Note_on_c, 0, 63, 47
1, 752132, Note_off_c, 0, 67, 48
1, 752226, Note_on_c, 0, 79, 81
1, 752262, Note_on_c, 0, 72, 41
1, 752313, Poly_aftertouch_c, 0, 67, 127
1, 752352, Note_off_c, 0, 63, 50
1, 752433, Poly_aftertouch_c, 0, 67, 0
1, 752453, Note_off_c, 0, 79, 57
1, 752495, Note_off_c, 0, 72, 61
1, 752573, Note_off_c, 0, 56, 46
1, 752648, Note_on_c, 0, 46, 45
1, 752684, Note_on_c, 0, 62, 44
1, 752738, Note_off_c, 0, 46, 58
1, 752776, Note_off_c, 0, 62, 59
1, 752895, Note_on_c, 0, 62, 47
1, 752902, Note_on_c, 0, 71, 65
1, 752906, Note_on_c, 0, 56, 47
1, 752919, Note_on_c, 0, 67, 47
1, 752942, Note_off_c, 0, 71, 61
1, 752961, Note_off_c, 0, 67, 60
1, 752975, Note_off_c, 0, 62, 59
1, 752993, Note_off_c, 0, 56, 63
1, 753121, Note_on_c, 0, 70, 81
1, 753148, Note_on_c, 0, 58, 44
1, 753166, Note_on_c, 0, 46, 28
1, 753178, Note_off_c, 0, 58, 57
1, 753344, Note_off_c, 0, 70, 60
1, 753361, Note_on_c, 0, 39, 56
1, 753380, Note_off_c, 0, 46, 31
1, 753400, Poly_aftertouch_c, 0, 67, 0
1, 753452, Note_on_c, 0, 70, 77
1, 753461, Note_on_c, 0, 62, 44
1, 753485, Note_on_c, 0, 67, 44
1, 753497, Control_c, 0, 64, 96
1, 753512, Control_c, 0, 64, 81
1, 753526, Control_c, 0, 64, 70
1, 753541, Control_c, 0, 64, 63
1, 753556, Control_c, 0, 64, 55
1, 753571, Control_c, 0, 64, 54
1, 753585, Control_c, 0, 64, 62
1, 753600, Control_c, 0, 64, 68
1, 753616, Control_c, 0, 64, 76
1, 753631, Control_c, 0, 64, 90
1, 753646, Control_c, 0, 64, 127
1, 753684, Note_off_c, 0, 39, 37
1, 753712, Note_on_c, 0, 46, 63
1, 753788, Note_on_c, 0, 60, 74
1, 753792, Note_off_c, 0, 62, 60
1, 753822, Note_off_c, 0, 67, 62
1, 753827, Note_off_c, 0, 60, 62
1, 753849, Note_off_c, 0, 70, 62
1, 753870, Note_off_c, 0, 46, 0
1, 753887, Poly_aftertouch_c, 0, 46, 0
1, 753962, Note_on_c, 0, 60, 60
1, 753979, Note_on_c, 0, 54, 61
1, 753988, Note_on_c, 0, 75, 83
1, 754016, Note_on_c, 0, 63, 61
1, 754054, Note_off_c, 0, 60, 56
1, 754057, Note_off_c, 0, 63, 56
1, 754073, Note_off_c, 0, 75, 65
1, 754153, Note_off_c, 0, 54, 57
1, 754188, Note_on_c, 0, 59, 67
1, 754193, Note_on_c, 0, 46, 56
1, 754236, Note_off_c, 0, 59, 52
1, 754245, Note_off_c, 0, 46, 60
1, 754360, Note_on_c, 0, 59, 57
1, 754360, Note_on_c, 0, 68, 74
1, 754378, Note_on_c, 0, 54, 56
1, 754385, Note_on_c, 0, 63, 57
1, 754424, Note_off_c, 0, 59, 55
1, 754455, Note_off_c, 0, 54, 61
1, 754537, Note_on_c, 0, 58, 69
1, 754566, Note_on_c, 0, 46, 66
1, 754580, Poly_aftertouch_c, 0, 66, 127
1, 754594, Note_off_c, 0, 63, 53
1, 754613, Note_off_c, 0, 58, 62
1, 754632, Poly_aftertouch_c, 0, 66, 0
1, 754667, Note_off_c, 0, 68, 60
1, 754782, Note_off_c, 0, 46, 54
1, 754786, Note_on_c, 0, 39, 56
1, 754787, Control_c, 0, 64, 116
1, 754802, Control_c, 0, 64, 78
1, 754816, Note_on_c, 0, 74, 86
1, 754817, Control_c, 0, 64, 49
1, 754832, Control_c, 0, 64, 0
1, 754892, Control_c, 0, 64, 64
1, 754906, Control_c, 0, 64, 82
1, 754921, Control_c, 0, 64, 101
1, 754936, Control_c, 0, 64, 127
1, 754967, Note_off_c, 0, 74, 60
1, 755007, Note_off_c, 0, 39, 55
1, 755045, Note_on_c, 0, 46, 51
1, 755071, Note_on_c, 0, 59, 55
1, 755105, Note_off_c, 0, 59, 61
1, 755187, Note_off_c, 0, 46, 34
1, 755225, Note_on_c, 0, 59, 52
1, 755252, Note_on_c, 0, 62, 42
1, 755258, Note_on_c, 0, 67, 56
1, 755276, Note_off_c, 0, 59, 54
1, 755365, Note_off_c, 0, 62, 57
1, 755392, Note_on_c, 0, 58, 64
1, 755394, Note_on_c, 0, 46, 56
1, 755446, Note_off_c, 0, 58, 60
1, 755584, Note_on_c, 0, 58, 52
1, 755586, Note_on_c, 0, 71, 78
1, 755627, Note_off_c, 0, 46, 40
1, 755631, Note_on_c, 0, 61, 48
1, 755691, Note_off_c, 0, 58, 59
1, 755708, Note_off_c, 0, 67, 36
1, 755708, Note_off_c, 0, 71, 57
1, 755770, Note_on_c, 0, 46, 52
1, 755783, Note_on_c, 0, 57, 60
1, 755874, Note_off_c, 0, 57, 53
1, 755965, Control_c, 0, 64, 104
1, 755971, Note_on_c, 0, 39, 46
1, 755979, Control_c, 0, 64, 90
1, 755983, Note_on_c, 0, 71, 68
1, 755994, Control_c, 0, 64, 77
1, 756007, Note_off_c, 0, 46, 41
1, 756010, Control_c, 0, 64, 64
1, 756024, Control_c, 0, 64, 0
1, 756084, Control_c, 0, 64, 43
1, 756099, Control_c, 0, 64, 63
1, 756114, Control_c, 0, 64, 71
1, 756126, Note_off_c, 0, 71, 59
1, 756129, Control_c, 0, 64, 81
1, 756144, Control_c, 0, 64, 97
1, 756149, Note_off_c, 0, 39, 52
1, 756158, Control_c, 0, 64, 127
1, 756164, Note_off_c, 0, 61, 54
1, 756168, Note_on_c, 0, 46, 43
1, 756177, Note_on_c, 0, 57, 60
1, 756220, Note_off_c, 0, 57, 57
1, 756260, Note_off_c, 0, 46, 51
1, 756349, Note_on_c, 0, 57, 47
1, 756349, Note_on_c, 0, 65, 55
1, 756394, Note_on_c, 0, 61, 32
1, 756397, Note_off_c, 0, 57, 58
1, 756529, Note_off_c, 0, 65, 48
1, 756546, Note_on_c, 0, 56, 51
1, 756549, Note_on_c, 0, 46, 51
1, 756582, Note_off_c, 0, 61, 42
1, 756628, Note_off_c, 0, 46, 0
1, 756665, Poly_aftertouch_c, 0, 46, 127
1, 756683, Control_c, 0, 64, 124
1, 756688, Note_off_c, 0, 56, 36
1, 756698, Control_c, 0, 64, 113
1, 756713, Control_c, 0, 64, 103
1, 756728, Control_c, 0, 64, 96
1, 756743, Control_c, 0, 64, 90
1, 756758, Control_c, 0, 64, 85
1, 756773, Control_c, 0, 64, 80
1, 756776, Note_on_c, 0, 67, 54
1, 756785, Note_on_c, 0, 56, 43
1, 756788, Control_c, 0, 64, 77
1, 756795, Note_on_c, 0, 64, 39
1, 756799, Poly_aftertouch_c, 0, 46, 0
1, 756803, Control_c, 0, 64, 76
1, 756818, Note_on_c, 0, 61, 23
1, 756818, Control_c, 0, 64, 77
1, 756832, Control_c, 0, 64, 79
1, 756847, Control_c, 0, 64, 82
1, 756862, Control_c, 0, 64, 85
1, 756877, Control_c, 0, 64, 89
1, 756892, Control_c, 0, 64, 94
1, 756907, Control_c, 0, 64, 99
1, 756922, Control_c, 0, 64, 103
1, 756937, Control_c, 0, 64, 106
1, 756951, Control_c, 0, 64, 107
1, 756966, Control_c, 0, 64, 108
1, 756989, Note_off_c, 0, 67, 33
1, 756996, Note_off_c, 0, 61, 41
1, 757026, Note_on_c, 0, 55, 37
1, 757035, Note_on_c, 0, 46, 47
1, 757080, Note_off_c, 0, 55, 60
1, 757092, Control_c, 0, 64, 107
1, 757115, Note_off_c, 0, 64, 39
1, 757121, Control_c, 0, 64, 106
1, 757136, Control_c, 0, 64, 104
1, 757151, Control_c, 0, 64, 102
1, 757166, Control_c, 0, 64, 101
1, 757178, Note_off_c, 0, 56, 43
1, 757181, Control_c, 0, 64, 100
1, 757196, Control_c, 0, 64, 99
1, 757211, Control_c, 0, 64, 97
1, 757226, Control_c, 0, 64, 95
1, 757240, Control_c, 0, 64, 93
1, 757255, Control_c, 0, 64, 92
1, 757270, Control_c, 0, 64, 91
1, 757285, Control_c, 0, 64, 90
1, 757293, Note_on_c, 0, 44, 48
1, 757300, Control_c, 0, 64, 89
1, 757314, Control_c, 0, 64, 87
1, 757329, Control_c, 0, 64, 85
1, 757344, Control_c, 0, 64, 84
1, 757358, Control_c, 0, 64, 81
1, 757373, Control_c, 0, 64, 77
1, 757380, Note_off_c, 0, 46, 34
1, 757388, Control_c, 0, 64, 71
1, 757403, Control_c, 0, 64, 64
1, 757418, Control_c, 0, 64, 48
1, 757432, Control_c, 0, 64, 0
1, 757521, Control_c, 0, 64, 38
1, 757536, Control_c, 0, 64, 52
1, 757551, Control_c, 0, 64, 60
1, 757566, Control_c, 0, 64, 65
1, 757580, Control_c, 0, 64, 68
1, 757596, Control_c, 0, 64, 73
1, 757612, Control_c, 0, 64, 79
1, 757621, Note_on_c, 0, 51, 41
1, 757627, Control_c, 0, 64, 87
1, 757642, Control_c, 0, 64, 95
1, 757646, Note_on_c, 0, 60, 42
1, 757656, Note_off_c, 0, 44, 53
1, 757656, Control_c, 0, 64, 107
1, 757671, Control_c, 0, 64, 127
1, 757828, Note_off_c, 0, 60, 56
1, 757892, Note_off_c, 0, 51, 44
1, 757925, Note_on_c, 0, 58, 38
1, 757926, Note_on_c, 0, 63, 44
1, 757950, Note_on_c, 0, 70, 62
1, 757991, Note_on_c, 0, 67, 34
1, 758087, Note_off_c, 0, 63, 55
1, 758201, Note_off_c, 0, 58, 56
1, 758212, Note_on_c, 0, 60, 49
1, 758227, Note_on_c, 0, 51, 50
1, 758259, Note_off_c, 0, 67, 40
1, 758273, Note_off_c, 0, 60, 54
1, 758393, Note_on_c, 0, 68, 73
1, 758402, Note_on_c, 0, 59, 55
1, 758404, Note_off_c, 0, 51, 54
1, 758411, Note_on_c, 0, 65, 54
1, 758446, Note_off_c, 0, 70, 62
1, 758521, Note_off_c, 0, 65, 59
1, 758542, Note_off_c, 0, 68, 62
1, 758558, Note_on_c, 0, 51, 55
1, 758568, Note_on_c, 0, 60, 54
1, 758618, Note_off_c, 0, 60, 56
1, 758626, Note_off_c, 0, 59, 25
1, 758716, Note_on_c, 0, 57, 64
1, 758719, Note_on_c, 0, 67, 80
1, 758724, Control_c, 0, 64, 110
1, 758732, Note_on_c, 0, 63, 61
1, 758739, Control_c, 0, 64, 85
1, 758753, Control_c, 0, 64, 70
1, 758768, Control_c, 0, 64, 66
1, 758783, Control_c, 0, 64, 72
1, 758798, Control_c, 0, 64, 84
1, 758812, Control_c, 0, 64, 98
1, 758827, Control_c, 0, 64, 127
1, 758880, Note_off_c, 0, 57, 59
1, 758892, Note_on_c, 0, 48, 65
1, 758894, Note_on_c, 0, 58, 64
1, 758922, Note_off_c, 0, 63, 48
1, 758932, Note_off_c, 0, 51, 63
1, 759062, Note_on_c, 0, 56, 71
1, 759065, Control_c, 0, 64, 101
1, 759068, Note_on_c, 0, 65, 82
1, 759073, Note_on_c, 0, 63, 62
1, 759079, Control_c, 0, 64, 78
1, 759094, Control_c, 0, 64, 65
1, 759108, Control_c, 0, 64, 61
1, 759113, Note_off_c, 0, 58, 37
1, 759122, Control_c, 0, 64, 66
1, 759137, Control_c, 0, 64, 74
1, 759146, Note_off_c, 0, 48, 57
1, 759152, Control_c, 0, 64, 85
1, 759167, Control_c, 0, 64, 112
1, 759182, Control_c, 0, 64, 127
1, 759208, Note_off_c, 0, 56, 64
1, 759211, Note_off_c, 0, 67, 37
1, 759267, Note_on_c, 0, 47, 71
1, 759268, Note_on_c, 0, 57, 61
1, 759289, Note_off_c, 0, 63, 32
1, 759375, Note_off_c, 0, 57, 49
1, 759449, Note_on_c, 0, 55, 74
1, 759476, Note_on_c, 0, 67, 84
1, 759485, Note_on_c, 0, 62, 68
1, 759554, Note_off_c, 0, 55, 63
1, 759596, Note_off_c, 0, 47, 63
1, 759681, Note_on_c, 0, 46, 78
1, 759717, Note_on_c, 0, 56, 87
1, 759752, Note_off_c, 0, 67, 45
1, 759792, Poly_aftertouch_c, 0, 66, 127
1, 759894, Note_off_c, 0, 56, 60
1, 759911, Note_on_c, 0, 39, 69
1, 759955, Note_off_c, 0, 65, 0
1, 759960, Control_c, 0, 64, 120
1, 759983, Control_c, 0, 64, 74
1, 759997, Note_on_c, 0, 58, 82
1, 759998, Control_c, 0, 64, 0
1, 760021, Note_on_c, 0, 56, 53
1, 760033, Poly_aftertouch_c, 0, 65, 0
1, 760035, Poly_aftertouch_c, 0, 66, 0
1, 760058, Control_c, 0, 64, 54
1, 760061, Note_off_c, 0, 46, 54
1, 760072, Control_c, 0, 64, 85
1, 760087, Control_c, 0, 64, 127
1, 760111, Note_off_c, 0, 56, 38
1, 760152, Note_off_c, 0, 62, 54
1, 760164, Note_off_c, 0, 58, 63
1, 760219, Note_off_c, 0, 39, 58
1, 760220, Note_on_c, 0, 46, 67
1, 760299, Note_on_c, 0, 67, 84
1, 760350, Note_off_c, 0, 46, 60
1, 760484, Note_on_c, 0, 63, 78
1, 760494, Note_on_c, 0, 56, 65
1, 760505, Note_off_c, 0, 67, 56
1, 760543, Note_off_c, 0, 63, 53
1, 760591, Note_off_c, 0, 56, 58
1, 760610, Note_on_c, 0, 79, 89
1, 760628, Note_on_c, 0, 72, 59
1, 760636, Note_on_c, 0, 67, 43
1, 760672, Note_off_c, 0, 67, 46
1, 760766, Note_off_c, 0, 79, 58
1, 760788, Note_off_c, 0, 72, 62
1, 760895, Note_on_c, 0, 46, 65
1, 760918, Note_on_c, 0, 62, 63
1, 760975, Note_off_c, 0, 46, 62
1, 760979, Note_off_c, 0, 62, 59
1, 761093, Note_on_c, 0, 62, 70
1, 761098, Note_on_c, 0, 71, 70
1, 761107, Note_on_c, 0, 56, 63
1, 761121, Note_on_c, 0, 67, 37
1, 761129, Note_off_c, 0, 62, 62
1, 761129, Note_off_c, 0, 71, 63
1, 761149, Note_off_c, 0, 67, 54
1, 761155, Note_off_c, 0, 56, 61
1, 761278, Note_on_c, 0, 70, 85
1, 761295, Note_on_c, 0, 46, 79
1, 761298, Note_on_c, 0, 58, 53
1, 761328, Note_off_c, 0, 58, 63
1, 761447, Note_off_c, 0, 70, 56
1, 761513, Note_on_c, 0, 39, 80
1, 761554, Note_on_c, 0, 70, 86
1, 761555, Control_c, 0, 64, 82
1, 761570, Control_c, 0, 64, 0
1, 761573, Note_off_c, 0, 46, 56
1, 761590, Note_on_c, 0, 62, 41
1, 761611, Note_on_c, 0, 67, 33
1, 761660, Control_c, 0, 64, 58
1, 761675, Control_c, 0, 64, 83
1, 761690, Control_c, 0, 64, 127
1, 761769, Note_off_c, 0, 39, 59
1, 761801, Note_off_c, 0, 62, 61
1, 761815, Note_off_c, 0, 67, 51
1, 761820, Note_on_c, 0, 60, 75
1, 761836, Note_on_c, 0, 46, 35
1, 761836, Note_off_c, 0, 70, 59
1, 761845, Note_off_c, 0, 60, 68
1, 761881, Poly_aftertouch_c, 0, 47, 127
1, 761886, Note_off_c, 0, 46, 57
1, 761916, Poly_aftertouch_c, 0, 47, 0
1, 761957, Note_on_c, 0, 70, 39
1, 761987, Note_off_c, 0, 70, 55
1, 762002, Note_on_c, 0, 60, 56
1, 762003, Note_on_c, 0, 75, 86
1, 762016, Note_on_c, 0, 54, 53
1, 762020, Note_on_c, 0, 63, 72
1, 762050, Note_off_c, 0, 60, 58
1, 762064, Note_off_c, 0, 63, 49
1, 762070, Note_off_c, 0, 75, 67
1, 762179, Note_off_c, 0, 54, 49
1, 762188, Note_on_c, 0, 46, 67
1, 762191, Note_on_c, 0, 59, 73
1, 762238, Note_off_c, 0, 59, 55
1, 762280, Note_off_c, 0, 46, 60
1, 762371, Note_on_c, 0, 68, 68
1, 762375, Note_on_c, 0, 59, 57
1, 762386, Note_on_c, 0, 54, 60
1, 762386, Note_on_c, 0, 63, 51
1, 762453, Note_off_c, 0, 59, 34
1, 762571, Note_on_c, 0, 58, 65
1, 762580, Note_on_c, 0, 46, 65
1, 762599, Note_off_c, 0, 54, 60
1, 762614, Note_off_c, 0, 58, 60
1, 762617, Note_off_c, 0, 63, 37
1, 762636, Note_off_c, 0, 68, 59
1, 762852, Note_on_c, 0, 43, 62
1, 762895, Note_on_c, 0, 74, 84
1, 762896, Control_c, 0, 64, 84
1, 762904, Note_off_c, 0, 46, 59
1, 762911, Control_c, 0, 64, 46
1, 762920, Note_on_c, 0, 70, 49
1, 762922, Note_on_c, 0, 67, 46
1, 762926, Control_c, 0, 64, 0
1, 763067, Control_c, 0, 64, 39
1, 763082, Control_c, 0, 64, 83
1, 763096, Control_c, 0, 64, 124
1, 763111, Control_c, 0, 64, 127
1, 763217, Note_off_c, 0, 43, 58
1, 763220, Note_off_c, 0, 70, 59
1, 763223, Note_on_c, 0, 50, 63
1, 763258, Note_on_c, 0, 66, 79
1, 763278, Note_off_c, 0, 74, 64
1, 763311, Note_off_c, 0, 50, 64
1, 763314, Note_off_c, 0, 67, 61
1, 763453, Note_on_c, 0, 57, 59
1, 763458, Note_on_c, 0, 61, 67
1, 763481, Note_on_c, 0, 73, 85
1, 763484, Note_on_c, 0, 69, 68
1, 763496, Note_on_c, 0, 65, 64
1, 763506, Note_off_c, 0, 66, 60
1, 763529, Note_off_c, 0, 61, 61
1, 763559, Note_off_c, 0, 57, 60
1, 763671, Note_on_c, 0, 64, 75
1, 763708, Note_off_c, 0, 65, 58
1, 763826, Note_on_c, 0, 43, 85
1, 763831, Control_c, 0, 64, 102
1, 763846, Control_c, 0, 64, 72
1, 763861, Control_c, 0, 64, 53
1, 763876, Control_c, 0, 64, 63
1, 763891, Control_c, 0, 64, 77
1, 763906, Control_c, 0, 64, 127
1, 763926, Note_off_c, 0, 73, 57
1, 763969, Note_off_c, 0, 64, 60
1, 764012, Note_off_c, 0, 43, 63
1, 764016, Note_on_c, 0, 50, 65
1, 764016, Note_on_c, 0, 74, 87
1, 764019, Note_on_c, 0, 65, 73
1, 764105, Note_off_c, 0, 50, 62
1, 764136, Note_off_c, 0, 74, 58
1, 764181, Note_off_c, 0, 65, 58
1, 764196, Note_off_c, 0, 69, 53
1, 764228, Note_on_c, 0, 60, 73
1, 764241, Note_on_c, 0, 56, 62
1, 764246, Note_on_c, 0, 72, 83
1, 764253, Note_on_c, 0, 64, 67
1, 764280, Note_off_c, 0, 60, 59
1, 764364, Note_off_c, 0, 56, 57
1, 764448, Note_off_c, 0, 64, 62
1, 764451, Note_on_c, 0, 63, 68
1, 764610, Control_c, 0, 64, 79
1, 764615, Note_on_c, 0, 43, 71
1, 764624, Control_c, 0, 64, 44
1, 764639, Control_c, 0, 64, 0
1, 764684, Control_c, 0, 64, 49
1, 764699, Control_c, 0, 64, 68
1, 764714, Control_c, 0, 64, 81
1, 764729, Control_c, 0, 64, 104
1, 764737, Note_off_c, 0, 72, 57
1, 764743, Control_c, 0, 64, 127
1, 764753, Note_off_c, 0, 63, 59
1, 764840, Note_on_c, 0, 74, 76
1, 764854, Note_on_c, 0, 50, 53
1, 764857, Note_on_c, 0, 64, 53
1, 764878, Note_off_c, 0, 43, 60
1, 764909, Poly_aftertouch_c, 0, 69, 127
1, 764938, Note_off_c, 0, 74, 56
1, 765008, Poly_aftertouch_c, 0, 69, 0
1, 765085, Control_c, 0, 64, 99
1, 765100, Control_c, 0, 64, 80
1, 765103, Note_off_c, 0, 64, 36
1, 765114, Control_c, 0, 64, 67
1, 765115, Note_on_c, 0, 70, 57
1, 765116, Note_on_c, 0, 55, 47
1, 765126, Note_on_c, 0, 67, 45
1, 765128, Note_on_c, 0, 58, 42
1, 765129, Control_c, 0, 64, 49
1, 765136, Note_on_c, 0, 63, 36
1, 765144, Control_c, 0, 64, 50
1, 765159, Control_c, 0, 64, 65
1, 765173, Control_c, 0, 64, 75
1, 765188, Control_c, 0, 64, 87
1, 765203, Control_c, 0, 64, 109
1, 765226, Control_c, 0, 64, 127
1, 765358, Note_off_c, 0, 50, 50
1, 765366, Note_off_c, 0, 58, 37
1, 765390, Note_off_c, 0, 55, 44
1, 765408, Note_off_c, 0, 67, 57
1, 765436, Note_on_c, 0, 62, 42
1, 765444, Note_off_c, 0, 63, 55
1, 765606, Note_off_c, 0, 70, 51
1, 765852, Note_on_c, 0, 34, 59
1, 765863, Control_c, 0, 64, 101
1, 765878, Control_c, 0, 64, 78
1, 765893, Control_c, 0, 64, 59
1, 765907, Control_c, 0, 64, 0
1, 765975, Control_c, 0, 64, 51
1, 765989, Control_c, 0, 64, 68
1, 766004, Control_c, 0, 64, 83
1, 766019, Control_c, 0, 64, 113
1, 766034, Control_c, 0, 64, 127
1, 766083, Note_off_c, 0, 34, 58
1, 766269, Note_on_c, 0, 41, 41
1, 766282, Note_on_c, 0, 58, 30
1, 766311, Note_off_c, 0, 62, 29
1, 766313, Note_off_c, 0, 41, 55
1, 766534, Note_on_c, 0, 57, 45
1, 766555, Note_on_c, 0, 46, 46
1, 766562, Note_on_c, 0, 65, 61
1, 766564, Note_on_c, 0, 50, 34
1, 766593, Note_on_c, 0, 62, 34
1, 766627, Note_off_c, 0, 58, 44
1, 766664, Note_off_c, 0, 57, 50
1, 766782, Note_off_c, 0, 46, 61
1, 766812, Note_off_c, 0, 65, 61
1, 766815, Note_on_c, 0, 41, 55
1, 766827, Note_on_c, 0, 58, 54
1, 766886, Note_off_c, 0, 62, 34
1, 766899, Note_off_c, 0, 41, 59
1, 766955, Note_off_c, 0, 58, 37
1, 767007, Note_on_c, 0, 56, 63
1, 767010, Note_on_c, 0, 70, 77
1, 767025, Note_on_c, 0, 62, 25
1, 767027, Note_on_c, 0, 65, 50
1, 767029, Note_on_c, 0, 46, 50
1, 767091, Note_off_c, 0, 56, 63
1, 767197, Note_on_c, 0, 41, 67
1, 767202, Note_on_c, 0, 58, 50
1, 767235, Note_off_c, 0, 50, 47
1, 767245, Note_off_c, 0, 58, 62
1, 767265, Note_off_c, 0, 46, 55
1, 767266, Note_off_c, 0, 70, 60
1, 767280, Note_off_c, 0, 41, 62
1, 767395, Note_off_c, 0, 62, 40
1, 767428, Note_on_c, 0, 34, 76
1, 767435, Control_c, 0, 64, 110
1, 767450, Control_c, 0, 64, 77
1, 767471, Note_on_c, 0, 72, 77
1, 767472, Control_c, 0, 64, 55
1, 767487, Control_c, 0, 64, 0
1, 767516, Control_c, 0, 64, 40
1, 767531, Control_c, 0, 64, 68
1, 767546, Control_c, 0, 64, 92
1, 767561, Control_c, 0, 64, 127
1, 767565, Note_off_c, 0, 65, 0
1, 767568, Poly_aftertouch_c, 0, 67, 127
1, 767602, Poly_aftertouch_c, 0, 65, 127
1, 767626, Note_off_c, 0, 34, 60
1, 767641, Note_off_c, 0, 72, 46
1, 767715, Poly_aftertouch_c, 0, 65, 0
1, 767747, Note_on_c, 0, 58, 53
1, 767751, Note_on_c, 0, 41, 60
1, 767805, Note_off_c, 0, 41, 61
1, 767906, Note_off_c, 0, 58, 37
1, 767911, Note_on_c, 0, 55, 66
1, 767931, Note_on_c, 0, 46, 51
1, 767933, Note_on_c, 0, 65, 58
1, 767934, Note_on_c, 0, 49, 52
1, 767948, Note_on_c, 0, 61, 46
1, 768007, Note_off_c, 0, 55, 58
1, 768019, Note_off_c, 0, 61, 54
1, 768089, Note_on_c, 0, 41, 66
1, 768090, Note_on_c, 0, 58, 55
1, 768103, Poly_aftertouch_c, 0, 67, 0
1, 768149, Note_off_c, 0, 49, 51
1, 768151, Note_off_c, 0, 46, 45
1, 768166, Note_off_c, 0, 41, 61
1, 768178, Note_off_c, 0, 58, 54
1, 768272, Note_on_c, 0, 56, 75
1, 768275, Note_on_c, 0, 46, 52
1, 768285, Note_on_c, 0, 70, 80
1, 768291, Note_on_c, 0, 49, 52
1, 768311, Note_on_c, 0, 61, 47
1, 768344, Note_off_c, 0, 56, 63
1, 768440, Note_on_c, 0, 41, 71
1, 768441, Note_on_c, 0, 58, 64
1, 768458, Note_off_c, 0, 49, 63
1, 768468, Note_off_c, 0, 61, 40
1, 768477, Note_off_c, 0, 41, 64
1, 768483, Note_off_c, 0, 46, 51
1, 768499, Poly_aftertouch_c, 0, 67, 127
1, 768516, Note_off_c, 0, 70, 47
1, 768590, Control_c, 0, 64, 82
1, 768598, Note_on_c, 0, 34, 84
1, 768605, Control_c, 0, 64, 56
1, 768620, Control_c, 0, 64, 0
1, 768649, Note_off_c, 0, 58, 55
1, 768650, Control_c, 0, 64, 70
1, 768664, Control_c, 0, 64, 101
1, 768669, Note_off_c, 0, 34, 60
1, 768679, Control_c, 0, 64, 127
1, 768751, Note_off_c, 0, 65, 52
1, 768767, Note_on_c, 0, 41, 78
1, 768768, Note_on_c, 0, 58, 72
1, 768798, Poly_aftertouch_c, 0, 67, 0
1, 768822, Note_off_c, 0, 41, 61
1, 768838, Note_off_c, 0, 58, 61
1, 768918, Note_on_c, 0, 69, 86
1, 768926, Note_on_c, 0, 57, 72
1, 768941, Note_on_c, 0, 62, 53
1, 768946, Note_on_c, 0, 46, 59
1, 768947, Note_on_c, 0, 50, 51
1, 768960, Note_on_c, 0, 65, 43
1, 768997, Note_off_c, 0, 57, 58
1, 769008, Note_off_c, 0, 62, 46
1, 769015, Note_off_c, 0, 65, 59
1, 769084, Note_on_c, 0, 58, 62
1, 769093, Note_off_c, 0, 46, 61
1, 769102, Note_on_c, 0, 41, 72
1, 769149, Note_off_c, 0, 50, 47
1, 769161, Note_off_c, 0, 58, 57
1, 769173, Note_off_c, 0, 41, 58
1, 769270, Note_on_c, 0, 50, 49
1, 769272, Note_on_c, 0, 56, 86
1, 769281, Note_on_c, 0, 65, 66
1, 769285, Note_on_c, 0, 62, 51
1, 769289, Note_on_c, 0, 46, 66
1, 769314, Note_off_c, 0, 69, 55
1, 769325, Note_off_c, 0, 56, 64
1, 769440, Note_on_c, 0, 41, 79
1, 769459, Note_on_c, 0, 70, 85
1, 769466, Note_off_c, 0, 50, 62
1, 769480, Note_on_c, 0, 58, 59
1, 769489, Note_off_c, 0, 62, 59
1, 769514, Note_off_c, 0, 65, 56
1, 769522, Note_off_c, 0, 41, 63
1, 769543, Note_off_c, 0, 46, 48
1, 769580, Note_off_c, 0, 58, 49
1, 769637, Note_off_c, 0, 70, 57
1, 769644, Note_on_c, 0, 37, 84
1, 769717, Control_c, 0, 64, 98
1, 769732, Control_c, 0, 64, 63
1, 769737, Note_on_c, 0, 70, 83
1, 769744, Note_on_c, 0, 65, 59
1, 769747, Control_c, 0, 64, 0
1, 769757, Note_on_c, 0, 61, 55
1, 769791, Control_c, 0, 64, 23
1, 769806, Control_c, 0, 64, 65
1, 769821, Control_c, 0, 64, 83
1, 769835, Control_c, 0, 64, 127
1, 769914, Note_off_c, 0, 70, 63
1, 769940, Note_on_c, 0, 43, 70
1, 769948, Note_off_c, 0, 65, 55
1, 769988, Note_off_c, 0, 37, 37
1, 770014, Note_on_c, 0, 69, 80
1, 770029, Note_on_c, 0, 57, 57
1, 770045, Note_off_c, 0, 43, 62
1, 770081, Note_off_c, 0, 61, 45
1, 770082, Note_off_c, 0, 57, 57
1, 770123, Note_off_c, 0, 69, 55
1, 770181, Note_on_c, 0, 57, 74
1, 770189, Note_on_c, 0, 53, 63
1, 770205, Note_on_c, 0, 49, 64
1, 770208, Note_on_c, 0, 69, 80
1, 770219, Note_on_c, 0, 61, 57
1, 770229, Note_on_c, 0, 65, 50
1, 770261, Note_off_c, 0, 69, 63
1, 770265, Note_off_c, 0, 57, 63
1, 770290, Note_off_c, 0, 61, 61
1, 770318, Note_off_c, 0, 53, 64
1, 770340, Note_off_c, 0, 65, 0
1, 770359, Note_on_c, 0, 43, 82
1, 770365, Note_on_c, 0, 65, 31
1, 770371, Note_on_c, 0, 68, 87
1, 770372, Note_on_c, 0, 56, 78
1, 770394, Note_off_c, 0, 56, 68
1, 770397, Note_off_c, 0, 49, 60
1, 770429, Note_off_c, 0, 43, 63
1, 770458, Note_off_c, 0, 68, 59
1, 770504, Note_off_c, 0, 65, 0
1, 770524, Note_on_c, 0, 59, 94
1, 770532, Note_on_c, 0, 53, 64
1, 770541, Poly_aftertouch_c, 0, 65, 127
1, 770541, Note_on_c, 0, 68, 92
1, 770545, Note_on_c, 0, 61, 67
1, 770546, Note_on_c, 0, 50, 68
1, 770557, Note_off_c, 0, 59, 56
1, 770607, Note_off_c, 0, 53, 65
1, 770616, Poly_aftertouch_c, 0, 65, 0
1, 770616, Poly_aftertouch_c, 0, 51, 127
1, 770627, Note_off_c, 0, 68, 62
1, 770635, Note_off_c, 0, 61, 57
1, 770661, Poly_aftertouch_c, 0, 51, 0
1, 770687, Note_on_c, 0, 43, 85
1, 770695, Note_off_c, 0, 50, 64
1, 770722, Note_on_c, 0, 55, 83
1, 770723, Note_on_c, 0, 67, 85
1, 770731, Note_off_c, 0, 43, 63
1, 770750, Note_off_c, 0, 55, 63
1, 770831, Poly_aftertouch_c, 0, 65, 0
1, 770873, Note_off_c, 0, 67, 54
1, 770977, Note_on_c, 0, 36, 93
1, 770985, Control_c, 0, 64, 86
1, 771000, Control_c, 0, 64, 61
1, 771015, Control_c, 0, 64, 0
1, 771089, Control_c, 0, 64, 52
1, 771103, Control_c, 0, 64, 95
1, 771118, Control_c, 0, 64, 127
1, 771122, Note_off_c, 0, 36, 60
1, 771242, Note_on_c, 0, 43, 74
1, 771250, Note_on_c, 0, 60, 66
1, 771313, Note_off_c, 0, 43, 62
1, 771358, Note_off_c, 0, 60, 61
1, 771439, Note_on_c, 0, 59, 81
1, 771450, Note_on_c, 0, 48, 67
1, 771454, Note_on_c, 0, 52, 63
1, 771460, Note_on_c, 0, 67, 92
1, 771502, Note_on_c, 0, 64, 39
1, 771528, Note_off_c, 0, 59, 59
1, 771597, Note_off_c, 0, 52, 54
1, 771606, Note_off_c, 0, 64, 0
1, 771622, Note_on_c, 0, 43, 81
1, 771635, Note_on_c, 0, 60, 71
1, 771643, Poly_aftertouch_c, 0, 64, 127
1, 771676, Note_off_c, 0, 67, 51
1, 771681, Note_off_c, 0, 60, 64
1, 771688, Note_off_c, 0, 43, 63
1, 771701, Poly_aftertouch_c, 0, 64, 0
1, 771735, Note_off_c, 0, 48, 40
1, 771781, Note_on_c, 0, 72, 97
1, 771791, Note_on_c, 0, 64, 76
1, 771796, Note_on_c, 0, 67, 73
1, 771796, Note_on_c, 0, 58, 89
1, 771802, Note_on_c, 0, 52, 55
1, 771807, Note_on_c, 0, 48, 43
1, 771823, Note_off_c, 0, 58, 62
1, 771924, Poly_aftertouch_c, 0, 50, 127
1, 771934, Note_on_c, 0, 43, 79
1, 771943, Note_off_c, 0, 52, 60
1, 771944, Note_off_c, 0, 64, 61
1, 771966, Note_on_c, 0, 60, 73
1, 771970, Note_off_c, 0, 48, 63
1, 771978, Poly_aftertouch_c, 0, 50, 0
1, 771990, Note_off_c, 0, 43, 65
1, 772016, Note_off_c, 0, 72, 57
1, 772030, Note_off_c, 0, 60, 61
1, 772085, Note_off_c, 0, 67, 56
1, 772124, Note_on_c, 0, 35, 79
1, 772130, Note_on_c, 0, 36, 81
1, 772157, Control_c, 0, 64, 92
1, 772172, Control_c, 0, 64, 67
1, 772181, Note_on_c, 0, 73, 96
1, 772187, Control_c, 0, 64, 0
1, 772231, Control_c, 0, 64, 28
1, 772245, Note_off_c, 0, 35, 62
1, 772246, Control_c, 0, 64, 71
1, 772261, Control_c, 0, 64, 102
1, 772276, Control_c, 0, 64, 127
1, 772288, Note_off_c, 0, 36, 61
1, 772399, Note_on_c, 0, 60, 66
1, 772406, Note_on_c, 0, 42, 78
1, 772431, Note_off_c, 0, 60, 58
1, 772489, Note_off_c, 0, 42, 62
1, 772566, Note_on_c, 0, 57, 82
1, 772568, Note_on_c, 0, 66, 75
1, 772578, Note_on_c, 0, 51, 68
1, 772585, Note_on_c, 0, 63, 64
1, 772597, Note_on_c, 0, 48, 49
1, 772610, Note_off_c, 0, 57, 54
1, 772636, Note_off_c, 0, 73, 58
1, 772643, Poly_aftertouch_c, 0, 49, 127
1, 772671, Note_off_c, 0, 51, 61
1, 772688, Note_off_c, 0, 63, 58
1, 772692, Poly_aftertouch_c, 0, 49, 0
1, 772710, Note_off_c, 0, 48, 62
1, 772735, Note_on_c, 0, 42, 81
1, 772737, Note_on_c, 0, 60, 69
1, 772803, Note_off_c, 0, 42, 63
1, 772803, Note_off_c, 0, 60, 63
1, 772893, Note_on_c, 0, 58, 82
1, 772893, Note_on_c, 0, 72, 91
1, 772902, Note_on_c, 0, 51, 70
1, 772906, Note_on_c, 0, 63, 74
1, 772917, Note_on_c, 0, 48, 49
1, 772935, Note_off_c, 0, 58, 65
1, 772938, Note_off_c, 0, 66, 58
1, 772965, Poly_aftertouch_c, 0, 49, 127
1, 773016, Poly_aftertouch_c, 0, 49, 0
1, 773016, Note_off_c, 0, 63, 55
1, 773032, Note_off_c, 0, 51, 62
1, 773035, Note_off_c, 0, 48, 63
1, 773038, Note_on_c, 0, 42, 74
1, 773051, Note_on_c, 0, 60, 74
1, 773064, Note_off_c, 0, 42, 65
1, 773092, Note_on_c, 0, 41, 17
1, 773137, Note_off_c, 0, 41, 48
1, 773162, Poly_aftertouch_c, 0, 69, 127
1, 773228, Note_on_c, 0, 36, 93
1, 773232, Control_c, 0, 64, 77
1, 773242, Note_off_c, 0, 72, 57
1, 773246, Control_c, 0, 64, 0
1, 773260, Note_off_c, 0, 60, 54
1, 773286, Poly_aftertouch_c, 0, 69, 0
1, 773320, Control_c, 0, 64, 78
1, 773335, Control_c, 0, 64, 127
1, 773347, Note_off_c, 0, 36, 61
1, 773446, Note_on_c, 0, 60, 70
1, 773459, Note_on_c, 0, 43, 78
1, 773531, Note_off_c, 0, 43, 60
1, 773586, Note_off_c, 0, 60, 56
1, 773621, Note_on_c, 0, 71, 91
1, 773633, Note_on_c, 0, 59, 77
1, 773639, Note_on_c, 0, 52, 63
1, 773648, Note_on_c, 0, 64, 48
1, 773653, Note_on_c, 0, 48, 55
1, 773657, Note_on_c, 0, 67, 41
1, 773677, Note_off_c, 0, 59, 48
1, 773686, Note_off_c, 0, 64, 48
1, 773719, Note_off_c, 0, 67, 36
1, 773719, Poly_aftertouch_c, 0, 70, 127
1, 773746, Note_off_c, 0, 52, 55
1, 773751, Poly_aftertouch_c, 0, 70, 0
1, 773764, Note_off_c, 0, 48, 53
1, 773779, Note_on_c, 0, 60, 63
1, 773794, Note_on_c, 0, 43, 79
1, 773854, Note_off_c, 0, 43, 64
1, 773878, Note_off_c, 0, 60, 48
1, 773950, Note_on_c, 0, 58, 99
1, 773956, Note_on_c, 0, 52, 62
1, 773966, Note_on_c, 0, 48, 41
1, 773969, Note_on_c, 0, 67, 64
1, 773990, Note_on_c, 0, 64, 45
1, 773994, Note_off_c, 0, 58, 62
1, 773999, Note_on_c, 0, 49, 27
1, 774028, Note_off_c, 0, 71, 59
1, 774044, Note_off_c, 0, 49, 50
1, 774120, Note_off_c, 0, 52, 33
1, 774123, Note_on_c, 0, 43, 82
1, 774136, Note_on_c, 0, 72, 91
1, 774148, Note_on_c, 0, 60, 71
1, 774152, Note_off_c, 0, 48, 53
1, 774159, Note_off_c, 0, 43, 64
1, 774165, Note_off_c, 0, 67, 61
1, 774191, Note_off_c, 0, 64, 33
1, 774310, Note_off_c, 0, 60, 47
1, 774345, Note_off_c, 0, 72, 58
1, 774380, Note_on_c, 0, 33, 90
1, 774404, Control_c, 0, 64, 106
1, 774419, Control_c, 0, 64, 68
1, 774433, Control_c, 0, 64, 0
1, 774436, Note_on_c, 0, 72, 89
1, 774446, Note_on_c, 0, 67, 68
1, 774455, Note_on_c, 0, 64, 53
1, 774507, Control_c, 0, 64, 70
1, 774522, Control_c, 0, 64, 112
1, 774537, Control_c, 0, 64, 127
1, 774562, Note_off_c, 0, 33, 58
1, 774603, Note_off_c, 0, 72, 58
1, 774651, Note_off_c, 0, 67, 59
1, 774655, Note_off_c, 0, 64, 56
1, 774685, Note_on_c, 0, 45, 76
1, 774705, Note_on_c, 0, 71, 90
1, 774715, Note_on_c, 0, 59, 74
1, 774746, Note_off_c, 0, 45, 65
1, 774760, Note_off_c, 0, 59, 43
1, 774810, Note_off_c, 0, 71, 61
1, 774863, Note_on_c, 0, 59, 83
1, 774873, Note_on_c, 0, 51, 68
1, 774875, Note_on_c, 0, 55, 62
1, 774877, Note_on_c, 0, 71, 88
1, 774895, Note_on_c, 0, 67, 70
1, 774896, Note_on_c, 0, 64, 63
1, 774922, Note_off_c, 0, 59, 52
1, 774953, Note_off_c, 0, 71, 61
1, 774984, Note_off_c, 0, 55, 59
1, 774988, Note_off_c, 0, 64, 61
1, 774998, Note_off_c, 0, 67, 55
1, 775032, Note_on_c, 0, 45, 84
1, 775058, Note_on_c, 0, 70, 88
1, 775059, Note_on_c, 0, 58, 92
1, 775063, Note_off_c, 0, 51, 43
1, 775076, Note_on_c, 0, 67, 47
1, 775078, Note_off_c, 0, 58, 71
1, 775093, Note_off_c, 0, 45, 64
1, 775150, Note_off_c, 0, 70, 60
1, 775182, Note_on_c, 0, 50, 3
1, 775192, Note_off_c, 0, 67, 54
1, 775220, Note_on_c, 0, 51, 74
1, 775222, Note_on_c, 0, 61, 100
1, 775224, Note_off_c, 0, 50, 56
1, 775243, Note_on_c, 0, 55, 55
1, 775249, Note_on_c, 0, 52, 72
1, 775253, Note_off_c, 0, 51, 62
1, 775254, Note_on_c, 0, 70, 96
1, 775256, Note_on_c, 0, 67, 39
1, 775265, Note_on_c, 0, 64, 64
1, 775274, Note_off_c, 0, 61, 63
1, 775304, Note_off_c, 0, 67, 53
1, 775339, Note_off_c, 0, 55, 61
1, 775370, Note_off_c, 0, 70, 61
1, 775376, Note_off_c, 0, 64, 63
1, 775425, Note_on_c, 0, 45, 87
1, 775435, Note_off_c, 0, 52, 62
1, 775452, Note_on_c, 0, 69, 89
1, 775453, Note_on_c, 0, 57, 90
1, 775463, Note_off_c, 0, 45, 66
1, 775467, Note_on_c, 0, 66, 67
1, 775477, Note_off_c, 0, 57, 64
1, 775493, Note_off_c, 0, 66, 64
1, 775529, Note_off_c, 0, 69, 56
1, 775670, Poly_aftertouch_c, 0, 41, 127
1, 775716, Poly_aftertouch_c, 0, 41, 0
1, 775724, Note_on_c, 0, 38, 98
1, 775767, Control_c, 0, 64, 95
1, 775782, Control_c, 0, 64, 39
1, 775797, Control_c, 0, 64, 0
1, 775871, Control_c, 0, 64, 84
1, 775886, Control_c, 0, 64, 127
1, 775902, Note_off_c, 0, 38, 58
1, 776026, Note_on_c, 0, 45, 73
1, 776046, Note_on_c, 0, 62, 92
1, 776116, Note_off_c, 0, 45, 64
1, 776210, Note_off_c, 0, 62, 53
1, 776299, Note_on_c, 0, 61, 83
1, 776301, Note_on_c, 0, 51, 26
1, 776301, Note_on_c, 0, 54, 63
1, 776302, Note_on_c, 0, 69, 95
1, 776332, Note_on_c, 0, 66, 58
1, 776361, Note_off_c, 0, 61, 63
1, 776399, Poly_aftertouch_c, 0, 50, 127
1, 776455, Note_off_c, 0, 51, 23
1, 776469, Note_off_c, 0, 66, 24
1, 776471, Poly_aftertouch_c, 0, 50, 0
1, 776473, Note_off_c, 0, 54, 38
1, 776521, Note_on_c, 0, 45, 82
1, 776526, Note_on_c, 0, 62, 84
1, 776595, Note_off_c, 0, 62, 57
1, 776596, Note_off_c, 0, 45, 61
1, 776597, Note_off_c, 0, 69, 41
1, 776688, Note_on_c, 0, 74, 101
1, 776699, Note_on_c, 0, 60, 98
1, 776701, Note_on_c, 0, 69, 74
1, 776704, Note_on_c, 0, 66, 77
1, 776709, Note_on_c, 0, 54, 73
1, 776730, Note_on_c, 0, 50, 46
1, 776736, Note_off_c, 0, 60, 63
1, 776790, Note_off_c, 0, 54, 62
1, 776825, Note_off_c, 0, 69, 35
1, 776848, Note_on_c, 0, 45, 85
1, 776851, Note_on_c, 0, 62, 85
1, 776888, Note_off_c, 0, 66, 28
1, 776892, Note_off_c, 0, 74, 58
1, 776897, Note_off_c, 0, 45, 63
1, 776897, Note_off_c, 0, 50, 49
1, 776904, Note_off_c, 0, 62, 60
1, 776956, Poly_aftertouch_c, 0, 47, 0
1, 777012, Note_on_c, 0, 75, 100
1, 777065, Control_c, 0, 64, 95
1, 777080, Control_c, 0, 64, 69
1, 777095, Control_c, 0, 64, 0
1, 777110, Control_c, 0, 64, 42
1, 777125, Control_c, 0, 64, 74
1, 777139, Control_c, 0, 64, 127
1, 777165, Note_on_c, 0, 50, 85
1, 777201, Note_on_c, 0, 63, 93
1, 777216, Note_on_c, 0, 73, 60
1, 777234, Note_off_c, 0, 50, 66
1, 777237, Note_off_c, 0, 73, 62
1, 777246, Note_off_c, 0, 63, 62
1, 777293, Note_off_c, 0, 75, 56
1, 777356, Note_on_c, 0, 72, 94
1, 777361, Note_on_c, 0, 66, 98
1, 777362, Note_on_c, 0, 60, 67
1, 777368, Note_on_c, 0, 68, 80
1, 777425, Note_off_c, 0, 66, 61
1, 777445, Poly_aftertouch_c, 0, 56, 127
1, 777464, Note_off_c, 0, 68, 58
1, 777478, Poly_aftertouch_c, 0, 56, 0
1, 777520, Note_off_c, 0, 60, 41
1, 777541, Note_on_c, 0, 56, 91
1, 777545, Note_on_c, 0, 63, 92
1, 777596, Note_off_c, 0, 63, 63
1, 777671, Note_off_c, 0, 72, 52
1, 777688, Note_off_c, 0, 56, 58
1, 777728, Note_on_c, 0, 76, 103
1, 777734, Note_on_c, 0, 67, 97
1, 777736, Note_on_c, 0, 72, 79
1, 777741, Note_on_c, 0, 60, 71
1, 777745, Note_on_c, 0, 68, 78
1, 777773, Note_on_c, 0, 58, 36
1, 777780, Note_on_c, 0, 61, 25
1, 777781, Note_off_c, 0, 61, 127
1, 777782, Note_off_c, 0, 72, 52
1, 777800, Note_off_c, 0, 67, 57
1, 777815, Note_off_c, 0, 58, 50
1, 777817, Note_off_c, 0, 68, 0
1, 777854, Poly_aftertouch_c, 0, 68, 127
1, 777909, Note_off_c, 0, 76, 45
1, 777928, Note_on_c, 0, 57, 95
1, 777946, Note_on_c, 0, 72, 52
1, 777950, Note_on_c, 0, 64, 98
1, 777959, Note_off_c, 0, 60, 60
1, 777980, Note_off_c, 0, 57, 66
1, 777992, Poly_aftertouch_c, 0, 68, 0
1, 778019, Note_off_c, 0, 72, 60
1, 778047, Note_off_c, 0, 64, 57
1, 778249, Note_on_c, 0, 43, 101
1, 778253, Note_on_c, 0, 31, 93
1, 778280, Note_on_c, 0, 77, 101
1, 778280, Control_c, 0, 64, 89
1, 778295, Control_c, 0, 64, 0
1, 778297, Note_on_c, 0, 71, 71
1, 778305, Note_on_c, 0, 74, 70
1, 778354, Control_c, 0, 64, 72
1, 778370, Control_c, 0, 64, 127
1, 778427, Note_off_c, 0, 31, 61
1, 778432, Note_off_c, 0, 74, 30
1, 778464, Note_off_c, 0, 43, 65
1, 778468, Note_off_c, 0, 71, 18
1, 778578, Note_off_c, 0, 77, 41
1, 778602, Note_on_c, 0, 65, 86
1, 778602, Note_on_c, 0, 50, 85
1, 778603, Note_on_c, 0, 74, 86
1, 778604, Note_on_c, 0, 71, 77
1, 778607, Note_on_c, 0, 53, 86
1, 778657, Note_off_c, 0, 65, 54
1, 778681, Note_off_c, 0, 50, 63
1, 778720, Note_off_c, 0, 53, 63
1, 778754, Note_off_c, 0, 71, 55
1, 778793, Note_off_c, 0, 74, 45
1, 778828, Note_on_c, 0, 62, 94
1, 778832, Note_on_c, 0, 78, 100
1, 778834, Note_on_c, 0, 54, 87
1, 778835, Note_on_c, 0, 59, 85
1, 778840, Note_on_c, 0, 74, 68
1, 778853, Note_on_c, 0, 71, 78
1, 778879, Note_on_c, 0, 68, 35
1, 778908, Note_off_c, 0, 68, 57
1, 778911, Note_off_c, 0, 74, 60
1, 778917, Note_on_c, 0, 56, 5
1, 778923, Note_off_c, 0, 62, 56
1, 778938, Note_off_c, 0, 59, 56
1, 778945, Note_off_c, 0, 54, 62
1, 778951, Note_off_c, 0, 56, 45
1, 778956, Note_off_c, 0, 71, 58
1, 779019, Note_on_c, 0, 50, 81
1, 779021, Note_on_c, 0, 54, 79
1, 779023, Note_on_c, 0, 74, 84
1, 779027, Note_on_c, 0, 66, 90
1, 779028, Note_on_c, 0, 59, 80
1, 779037, Note_on_c, 0, 71, 61
1, 779037, Note_off_c, 0, 78, 0
1, 779074, Poly_aftertouch_c, 0, 78, 127
1, 779077, Note_off_c, 0, 66, 61
1, 779080, Note_off_c, 0, 50, 61
1, 779102, Note_off_c, 0, 71, 40
1, 779109, Poly_aftertouch_c, 0, 56, 127
1, 779110, Poly_aftertouch_c, 0, 78, 0
1, 779119, Note_off_c, 0, 74, 63
1, 779128, Note_off_c, 0, 54, 57
1, 779136, Note_off_c, 0, 59, 54
1, 779148, Poly_aftertouch_c, 0, 56, 0
1, 779210, Note_on_c, 0, 63, 98
1, 779217, Note_on_c, 0, 55, 77
1, 779222, Note_on_c, 0, 59, 73
1, 779224, Note_on_c, 0, 79, 103
1, 779234, Note_on_c, 0, 71, 87
1, 779241, Note_on_c, 0, 75, 81
1, 779255, Note_on_c, 0, 56, 15
1, 779273, Note_on_c, 0, 69, 28
1, 779277, Note_off_c, 0, 63, 60
1, 779302, Note_off_c, 0, 56, 51
1, 779305, Note_off_c, 0, 69, 54
1, 779317, Note_off_c, 0, 55, 53
1, 779317, Note_off_c, 0, 59, 55
1, 779320, Note_off_c, 0, 71, 56
1, 779340, Note_off_c, 0, 75, 47
1, 779401, Note_on_c, 0, 59, 79
1, 779410, Note_on_c, 0, 55, 66
1, 779416, Note_on_c, 0, 51, 84
1, 779443, Note_off_c, 0, 59, 60
1, 779450, Note_off_c, 0, 55, 67
1, 779474, Note_off_c, 0, 51, 66
1, 779504, Note_on_c, 0, 75, 89
1, 779505, Note_on_c, 0, 67, 99
1, 779509, Note_on_c, 0, 71, 80
1, 779514, Poly_aftertouch_c, 0, 58, 0
1, 779532, Note_on_c, 0, 77, 44
1, 779615, Control_c, 0, 64, 69
1, 779629, Note_off_c, 0, 77, 22
1, 779630, Control_c, 0, 64, 0
1, 779647, Note_on_c, 0, 36, 98
1, 779681, Note_off_c, 0, 79, 44
1, 779689, Control_c, 0, 64, 82
1, 779696, Note_off_c, 0, 67, 57
1, 779704, Control_c, 0, 64, 127
1, 779710, Note_off_c, 0, 71, 58
1, 779752, Note_off_c, 0, 75, 56
1, 779782, Note_off_c, 0, 36, 59
1, 779874, Note_on_c, 0, 52, 92
1, 779922, Note_off_c, 0, 52, 65
1, 780016, Note_on_c, 0, 82, 103
1, 780022, Note_on_c, 0, 70, 99
1, 780024, Note_on_c, 0, 76, 84
1, 780026, Note_on_c, 0, 73, 83
1, 780068, Note_on_c, 0, 78, 59
1, 780110, Note_off_c, 0, 78, 53
1, 780197, Note_off_c, 0, 76, 57
1, 780211, Note_off_c, 0, 73, 56
1, 780239, Note_off_c, 0, 82, 59
1, 780247, Note_off_c, 0, 70, 54
1, 780389, Note_on_c, 0, 52, 69
1, 780398, Note_on_c, 0, 61, 69
1, 780399, Note_on_c, 0, 58, 69
1, 780412, Note_on_c, 0, 73, 84
1, 780415, Note_on_c, 0, 67, 79
1, 780418, Note_on_c, 0, 70, 75
1, 780562, Note_off_c, 0, 67, 55
1, 780572, Note_off_c, 0, 52, 37
1, 780582, Note_off_c, 0, 58, 57
1, 780590, Note_off_c, 0, 61, 62
1, 780602, Note_off_c, 0, 70, 61
1, 780611, Note_off_c, 0, 73, 62
1, 780645, Note_on_c, 0, 64, 86
1, 780659, Note_on_c, 0, 76, 99
1, 780665, Note_on_c, 0, 58, 68
1, 780670, Note_on_c, 0, 61, 62
1, 780686, Note_on_c, 0, 70, 63
1, 780691, Note_on_c, 0, 73, 56
1, 780739, Note_off_c, 0, 64, 55
1, 780741, Note_off_c, 0, 70, 43
1, 780742, Note_off_c, 0, 73, 46
1, 780767, Note_off_c, 0, 58, 60
1, 780767, Note_off_c, 0, 61, 61
1, 780858, Note_on_c, 0, 52, 70
1, 780866, Note_on_c, 0, 58, 73
1, 780873, Note_on_c, 0, 73, 92
1, 780875, Note_on_c, 0, 67, 84
1, 780876, Note_on_c, 0, 61, 75
1, 780882, Note_on_c, 0, 70, 76
1, 780894, Note_off_c, 0, 76, 60
1, 780896, Note_off_c, 0, 67, 68
1, 780908, Note_off_c, 0, 52, 56
1, 780912, Note_off_c, 0, 70, 63
1, 780932, Note_off_c, 0, 73, 63
1, 780945, Note_off_c, 0, 58, 60
1, 780946, Note_off_c, 0, 61, 60
1, 781116, Note_on_c, 0, 70, 79
1, 781122, Note_on_c, 0, 64, 63
1, 781131, Note_on_c, 0, 60, 47
1, 781162, Note_on_c, 0, 80, 97
1, 781212, Note_off_c, 0, 70, 61
1, 781259, Note_off_c, 0, 64, 58
1, 781294, Note_off_c, 0, 60, 53
1, 781398, Note_on_c, 0, 60, 40
1, 781398, Note_on_c, 0, 64, 54
1, 781409, Note_on_c, 0, 58, 53
1, 781419, Poly_aftertouch_c, 0, 76, 127
1, 781474, Note_off_c, 0, 64, 60
1, 781479, Note_on_c, 0, 68, 70
1, 781479, Poly_aftertouch_c, 0, 76, 0
1, 781483, Note_on_c, 0, 72, 74
1, 781516, Poly_aftertouch_c, 0, 76, 127
1, 781523, Note_off_c, 0, 60, 37
1, 781538, Note_off_c, 0, 58, 51
1, 781591, Poly_aftertouch_c, 0, 76, 0
1, 781627, Poly_aftertouch_c, 0, 76, 127
1, 781700, Poly_aftertouch_c, 0, 76, 0
1, 781753, Note_off_c, 0, 80, 40
1, 781767, Poly_aftertouch_c, 0, 73, 127
1, 781816, Note_on_c, 0, 41, 66
1, 781851, Note_off_c, 0, 68, 59
1, 781905, Control_c, 0, 64, 113
1, 781920, Control_c, 0, 64, 77
1, 781923, Note_on_c, 0, 79, 82
1, 781935, Control_c, 0, 64, 0
1, 781952, Poly_aftertouch_c, 0, 73, 0
1, 782068, Control_c, 0, 64, 67
1, 782083, Control_c, 0, 64, 90
1, 782098, Control_c, 0, 64, 127
1, 782288, Note_off_c, 0, 41, 31
1, 782294, Note_on_c, 0, 75, 61
1, 782297, Note_on_c, 0, 51, 51
1, 782297, Note_off_c, 0, 72, 49
1, 782307, Note_on_c, 0, 71, 52
1, 782352, Note_off_c, 0, 51, 63
1, 782359, Note_off_c, 0, 79, 39
1, 782491, Note_off_c, 0, 71, 61
1, 782527, Note_on_c, 0, 77, 77
1, 782540, Note_on_c, 0, 70, 57
1, 782541, Note_on_c, 0, 65, 55
1, 782541, Note_on_c, 0, 73, 64
1, 782541, Note_off_c, 0, 75, 62
1, 782557, Note_on_c, 0, 59, 52
1, 782577, Note_off_c, 0, 70, 61
1, 782609, Note_off_c, 0, 73, 54
1, 782623, Note_off_c, 0, 65, 48
1, 782689, Note_off_c, 0, 59, 56
1, 782727, Note_on_c, 0, 71, 67
1, 782733, Note_on_c, 0, 56, 65
1, 782733, Note_on_c, 0, 68, 62
1, 782795, Note_off_c, 0, 68, 61
1, 782840, Note_off_c, 0, 56, 61
1, 782841, Note_off_c, 0, 71, 57
1, 782897, Note_on_c, 0, 63, 62
1, 782901, Note_on_c, 0, 67, 57
1, 782904, Note_on_c, 0, 73, 76
1, 782911, Note_on_c, 0, 70, 69
1, 782943, Note_off_c, 0, 67, 55
1, 782953, Note_off_c, 0, 70, 47
1, 783057, Note_on_c, 0, 59, 66
1, 783058, Note_on_c, 0, 71, 66
1, 783058, Note_on_c, 0, 75, 80
1, 783060, Note_off_c, 0, 63, 54
1, 783084, Note_off_c, 0, 77, 52
1, 783096, Note_off_c, 0, 59, 61
1, 783237, Note_off_c, 0, 73, 30
1, 783257, Note_on_c, 0, 43, 74
1, 783315, Control_c, 0, 64, 84
1, 783327, Note_on_c, 0, 79, 86
1, 783329, Control_c, 0, 64, 48
1, 783344, Control_c, 0, 64, 0
1, 783389, Control_c, 0, 64, 63
1, 783404, Control_c, 0, 64, 77
1, 783419, Control_c, 0, 64, 120
1, 783434, Control_c, 0, 64, 127
1, 783470, Note_off_c, 0, 43, 56
1, 783512, Note_off_c, 0, 79, 60
1, 783523, Note_on_c, 0, 51, 64
1, 783531, Note_on_c, 0, 73, 75
1, 783538, Note_off_c, 0, 71, 62
1, 783538, Note_on_c, 0, 70, 71
1, 783561, Note_off_c, 0, 51, 64
1, 783573, Note_off_c, 0, 75, 62
1, 783575, Note_off_c, 0, 70, 57
1, 783596, Note_off_c, 0, 73, 61
1, 783678, Note_on_c, 0, 75, 82
1, 783680, Note_on_c, 0, 63, 76
1, 783690, Note_on_c, 0, 68, 66
1, 783701, Note_on_c, 0, 58, 59
1, 783706, Note_on_c, 0, 71, 55
1, 783718, Note_off_c, 0, 68, 63
1, 783745, Note_off_c, 0, 63, 59
1, 783786, Note_off_c, 0, 71, 62
1, 783818, Note_off_c, 0, 58, 0
1, 783821, Note_on_c, 0, 51, 72
1, 783833, Note_on_c, 0, 70, 69
1, 783839, Note_on_c, 0, 67, 65
1, 783854, Poly_aftertouch_c, 0, 58, 127
1, 783862, Note_off_c, 0, 51, 61
1, 783875, Note_off_c, 0, 67, 60
1, 783899, Poly_aftertouch_c, 0, 58, 0
1, 783924, Note_off_c, 0, 70, 60
1, 783970, Note_off_c, 0, 75, 29
1, 783991, Note_on_c, 0, 65, 66
1, 783994, Note_on_c, 0, 58, 61
1, 783995, Note_on_c, 0, 71, 75
1, 783998, Note_on_c, 0, 63, 56
1, 784004, Note_on_c, 0, 68, 66
1, 784045, Note_off_c, 0, 65, 53
1, 784051, Note_off_c, 0, 58, 51
1, 784061, Note_off_c, 0, 68, 61
1, 784127, Note_off_c, 0, 63, 0
1, 784137, Note_on_c, 0, 73, 78
1, 784142, Note_on_c, 0, 67, 68
1, 784143, Note_on_c, 0, 70, 67
1, 784155, Note_on_c, 0, 58, 68
1, 784164, Poly_aftertouch_c, 0, 63, 127
1, 784167, Note_off_c, 0, 71, 59
1, 784170, Note_off_c, 0, 67, 65
1, 784194, Note_off_c, 0, 58, 62
1, 784215, Poly_aftertouch_c, 0, 63, 0
1, 784311, Note_on_c, 0, 44, 65
1, 784315, Control_c, 0, 64, 96
1, 784330, Control_c, 0, 64, 69
1, 784334, Note_on_c, 0, 79, 84
1, 784344, Control_c, 0, 64, 0
1, 784362, Note_off_c, 0, 70, 59
1, 784418, Control_c, 0, 64, 63
1, 784433, Control_c, 0, 64, 74
1, 784448, Control_c, 0, 64, 91
1, 784462, Control_c, 0, 64, 127
1, 784503, Note_off_c, 0, 79, 49
1, 784516, Note_on_c, 0, 71, 69
1, 784519, Note_off_c, 0, 44, 63
1, 784528, Note_on_c, 0, 51, 51
1, 784551, Note_off_c, 0, 73, 59
1, 784553, Note_on_c, 0, 68, 40
1, 784558, Note_off_c, 0, 71, 60
1, 784565, Note_off_c, 0, 51, 62
1, 784582, Note_off_c, 0, 68, 54
1, 784673, Note_on_c, 0, 74, 80
1, 784677, Note_on_c, 0, 70, 61
1, 784686, Note_on_c, 0, 59, 55
1, 784686, Note_on_c, 0, 62, 58
1, 784695, Note_on_c, 0, 67, 64
1, 784725, Note_off_c, 0, 67, 63
1, 784729, Note_off_c, 0, 62, 56
1, 784780, Note_off_c, 0, 70, 60
1, 784807, Note_off_c, 0, 59, 32
1, 784821, Note_on_c, 0, 51, 63
1, 784836, Note_on_c, 0, 65, 60
1, 784839, Note_on_c, 0, 68, 53
1, 784866, Note_off_c, 0, 65, 65
1, 784881, Note_off_c, 0, 51, 52
1, 784923, Note_off_c, 0, 68, 51
1, 784979, Note_on_c, 0, 63, 56
1, 784985, Note_on_c, 0, 70, 57
1, 784999, Note_on_c, 0, 67, 53
1, 784999, Note_on_c, 0, 59, 42
1, 785023, Note_off_c, 0, 63, 53
1, 785145, Note_off_c, 0, 59, 24
1, 785148, Note_on_c, 0, 56, 58
1, 785149, Note_on_c, 0, 71, 59
1, 785155, Note_off_c, 0, 74, 47
1, 785157, Note_on_c, 0, 68, 45
1, 785175, Note_off_c, 0, 56, 66
1, 785176, Note_off_c, 0, 67, 35
1, 785190, Note_off_c, 0, 70, 61
1, 785196, Note_off_c, 0, 68, 62
1, 785199, Note_off_c, 0, 71, 62
1, 785342, Note_on_c, 0, 34, 53
1, 785359, Control_c, 0, 64, 110
1, 785374, Control_c, 0, 64, 75
1, 785377, Note_on_c, 0, 79, 78
1, 785389, Control_c, 0, 64, 0
1, 785485, Control_c, 0, 64, 68
1, 785500, Control_c, 0, 64, 83
1, 785515, Control_c, 0, 64, 127
1, 785559, Note_off_c, 0, 34, 29
1, 785563, Note_on_c, 0, 46, 55
1, 785566, Note_off_c, 0, 79, 57
1, 785571, Note_on_c, 0, 71, 54
1, 785586, Note_on_c, 0, 68, 54
1, 785589, Note_off_c, 0, 46, 61
1, 785601, Note_off_c, 0, 71, 67
1, 785625, Note_off_c, 0, 68, 62
1, 785738, Note_on_c, 0, 72, 70
1, 785741, Note_on_c, 0, 60, 55
1, 785742, Note_on_c, 0, 56, 54
1, 785771, Note_on_c, 0, 71, 42
1, 785772, Note_off_c, 0, 60, 64
1, 785778, Note_on_c, 0, 67, 32
1, 785798, Note_off_c, 0, 56, 52
1, 785815, Note_off_c, 0, 67, 52
1, 785929, Note_on_c, 0, 65, 48
1, 785963, Note_off_c, 0, 65, 62
1, 786086, Note_off_c, 0, 71, 39
1, 786108, Note_on_c, 0, 67, 54
1, 786109, Note_on_c, 0, 56, 43
1, 786109, Note_on_c, 0, 61, 51
1, 786121, Note_on_c, 0, 64, 43
1, 786199, Note_off_c, 0, 72, 55
1, 786211, Note_off_c, 0, 64, 54
1, 786235, Control_c, 0, 67, 10
1, 786250, Control_c, 0, 67, 13
1, 786265, Control_c, 0, 67, 17
1, 786280, Control_c, 0, 67, 20
1, 786287, Note_off_c, 0, 67, 35
1, 786295, Control_c, 0, 67, 22
1, 786307, Note_off_c, 0, 61, 51
1, 786309, Control_c, 0, 67, 24
1, 786322, Note_on_c, 0, 62, 48
1, 786324, Control_c, 0, 67, 26
1, 786339, Control_c, 0, 67, 27
1, 786355, Control_c, 0, 67, 29
1, 786370, Control_c, 0, 67, 30
1, 786379, Note_off_c, 0, 62, 55
1, 786385, Control_c, 0, 67, 31
1, 786400, Control_c, 0, 67, 32
1, 786408, Note_on_c, 0, 71, 65
1, 786414, Control_c, 0, 67, 32
1, 786429, Control_c, 0, 67, 34
1, 786430, Note_on_c, 0, 65, 41
1, 786444, Note_on_c, 0, 68, 26
1, 786444, Control_c, 0, 67, 35
1, 786458, Control_c, 0, 67, 37
1, 786469, Note_off_c, 0, 65, 59
1, 786473, Control_c, 0, 67, 40
1, 786486, Note_off_c, 0, 56, 50
1, 786488, Control_c, 0, 67, 42
1, 786489, Note_off_c, 0, 68, 47
1, 786503, Control_c, 0, 67, 44
1, 786513, Note_off_c, 0, 71, 56
1, 786518, Control_c, 0, 67, 46
1, 786532, Control_c, 0, 67, 47
1, 786547, Control_c, 0, 67, 48
1, 786562, Control_c, 0, 67, 49
1, 786577, Control_c, 0, 67, 49
1, 786591, Control_c, 0, 67, 50
1, 786606, Control_c, 0, 67, 50
1, 786621, Control_c, 0, 67, 51
1, 786636, Control_c, 0, 67, 51
1, 786680, Note_on_c, 0, 39, 49
1, 786710, Control_c, 0, 64, 102
1, 786725, Note_on_c, 0, 77, 68
1, 786725, Control_c, 0, 64, 83
1, 786740, Control_c, 0, 64, 68
1, 786755, Control_c, 0, 64, 0
1, 786799, Control_c, 0, 64, 49
1, 786814, Control_c, 0, 64, 65
1, 786814, Control_c, 0, 67, 50
1, 786829, Control_c, 0, 64, 75
1, 786844, Control_c, 0, 64, 91
1, 786844, Control_c, 0, 67, 50
1, 786858, Control_c, 0, 64, 126
1, 786858, Control_c, 0, 67, 49
1, 786873, Control_c, 0, 64, 127
1, 786888, Control_c, 0, 67, 49
1, 786895, Note_off_c, 0, 77, 58
1, 786918, Control_c, 0, 67, 48
1, 786969, Control_c, 0, 67, 48
1, 786975, Note_off_c, 0, 39, 41
1, 786977, Note_on_c, 0, 46, 48
1, 787032, Note_on_c, 0, 62, 54
1, 787038, Note_off_c, 0, 46, 58
1, 787073, Note_off_c, 0, 62, 60
1, 787073, Control_c, 0, 67, 47
1, 787118, Control_c, 0, 67, 46
1, 787147, Control_c, 0, 67, 46
1, 787178, Control_c, 0, 67, 45
1, 787183, Note_on_c, 0, 70, 73
1, 787195, Note_on_c, 0, 61, 50
1, 787208, Control_c, 0, 67, 44
1, 787209, Note_on_c, 0, 68, 55
1, 787211, Note_on_c, 0, 56, 46
1, 787218, Note_on_c, 0, 65, 34
1, 787223, Control_c, 0, 67, 42
1, 787226, Note_off_c, 0, 61, 60
1, 787237, Control_c, 0, 67, 40
1, 787252, Note_off_c, 0, 65, 53
1, 787252, Control_c, 0, 67, 39
1, 787263, Note_off_c, 0, 56, 57
1, 787267, Control_c, 0, 67, 36
1, 787282, Control_c, 0, 67, 27
1, 787286, Note_off_c, 0, 68, 57
1, 787297, Control_c, 0, 67, 11
1, 787312, Control_c, 0, 67, 0
1, 787330, Note_on_c, 0, 60, 49
1, 787334, Note_on_c, 0, 46, 57
1, 787354, Note_off_c, 0, 60, 62
1, 787401, Note_off_c, 0, 46, 60
1, 787463, Note_on_c, 0, 60, 56
1, 787485, Note_on_c, 0, 68, 59
1, 787492, Note_on_c, 0, 56, 47
1, 787502, Note_off_c, 0, 60, 62
1, 787512, Note_on_c, 0, 64, 21
1, 787518, Note_off_c, 0, 56, 60
1, 787571, Note_off_c, 0, 70, 52
1, 787612, Note_on_c, 0, 58, 62
1, 787655, Note_off_c, 0, 58, 57
1, 787664, Note_off_c, 0, 68, 60
1, 787674, Note_off_c, 0, 64, 24
1, 787699, Note_on_c, 0, 47, 18
1, 787743, Note_off_c, 0, 47, 43
1, 787813, Note_on_c, 0, 39, 52
1, 787822, Control_c, 0, 64, 99
1, 787837, Control_c, 0, 64, 69
1, 787852, Control_c, 0, 64, 0
1, 787865, Note_on_c, 0, 75, 69
1, 787896, Control_c, 0, 64, 47
1, 787911, Control_c, 0, 64, 75
1, 787926, Control_c, 0, 64, 112
1, 787941, Control_c, 0, 64, 127
1, 787949, Note_off_c, 0, 75, 61
1, 788042, Note_on_c, 0, 46, 56
1, 788069, Note_off_c, 0, 39, 34
1, 788072, Note_on_c, 0, 58, 58
1, 788102, Note_off_c, 0, 58, 64
1, 788114, Note_off_c, 0, 46, 57
1, 788199, Note_on_c, 0, 70, 73
1, 788215, Note_on_c, 0, 57, 52
1, 788231, Note_on_c, 0, 67, 51
1, 788234, Note_on_c, 0, 63, 35
1, 788249, Note_off_c, 0, 57, 61
1, 788268, Note_off_c, 0, 63, 57
1, 788298, Note_off_c, 0, 70, 53
1, 788321, Note_on_c, 0, 68, 41
1, 788322, Note_off_c, 0, 67, 59
1, 788351, Note_on_c, 0, 46, 52
1, 788364, Note_on_c, 0, 56, 62
1, 788430, Note_off_c, 0, 56, 62
1, 788436, Note_off_c, 0, 68, 50
1, 788504, Note_on_c, 0, 63, 54
1, 788525, Note_on_c, 0, 60, 22
1, 788534, Note_on_c, 0, 56, 55
1, 788578, Note_off_c, 0, 46, 18
1, 788585, Control_c, 0, 67, 10
1, 788600, Control_c, 0, 67, 13
1, 788615, Control_c, 0, 67, 18
1, 788630, Control_c, 0, 67, 23
1, 788641, Note_off_c, 0, 56, 59
1, 788644, Control_c, 0, 67, 27
1, 788659, Control_c, 0, 67, 32
1, 788663, Note_off_c, 0, 60, 37
1, 788674, Control_c, 0, 67, 37
1, 788685, Note_on_c, 0, 55, 58
1, 788689, Control_c, 0, 67, 41
1, 788699, Note_on_c, 0, 46, 57
1, 788704, Control_c, 0, 67, 45
1, 788710, Note_off_c, 0, 63, 55
1, 788719, Control_c, 0, 67, 48
1, 788727, Note_off_c, 0, 55, 64
1, 788734, Control_c, 0, 67, 51
1, 788749, Control_c, 0, 67, 54
1, 788764, Control_c, 0, 67, 57
1, 788779, Control_c, 0, 67, 59
1, 788794, Control_c, 0, 67, 61
1, 788808, Control_c, 0, 67, 62
1, 788823, Control_c, 0, 67, 64
1, 788838, Control_c, 0, 67, 65
1, 788853, Control_c, 0, 67, 67
1, 788868, Control_c, 0, 67, 70
1, 788883, Control_c, 0, 67, 72
1, 788898, Control_c, 0, 67, 74
1, 788903, Note_on_c, 0, 39, 47
1, 788913, Control_c, 0, 67, 76
1, 788927, Control_c, 0, 67, 77
1, 788941, Note_off_c, 0, 46, 29
1, 788942, Control_c, 0, 64, 96
1, 788942, Control_c, 0, 67, 78
1, 788957, Control_c, 0, 64, 78
1, 788957, Control_c, 0, 67, 79
1, 788969, Note_on_c, 0, 72, 64
1, 788971, Control_c, 0, 64, 64
1, 788971, Control_c, 0, 67, 80
1, 788986, Control_c, 0, 64, 0
1, 788986, Control_c, 0, 67, 80
1, 789001, Control_c, 0, 67, 81
1, 789016, Control_c, 0, 64, 19
1, 789031, Control_c, 0, 64, 64
1, 789046, Control_c, 0, 64, 70
1, 789061, Control_c, 0, 64, 79
1, 789061, Control_c, 0, 67, 81
1, 789076, Control_c, 0, 64, 90
1, 789081, Note_off_c, 0, 72, 52
1, 789091, Control_c, 0, 64, 103
1, 789106, Control_c, 0, 64, 127
1, 789106, Control_c, 0, 67, 82
1, 789135, Control_c, 0, 67, 83
1, 789150, Control_c, 0, 67, 84
1, 789165, Control_c, 0, 67, 84
1, 789187, Note_on_c, 0, 46, 45
1, 789187, Control_c, 0, 67, 85
1, 789202, Control_c, 0, 67, 86
1, 789208, Note_off_c, 0, 39, 40
1, 789217, Control_c, 0, 67, 87
1, 789228, Note_off_c, 0, 46, 51
1, 789241, Note_on_c, 0, 55, 53
1, 789247, Control_c, 0, 67, 87
1, 789274, Note_off_c, 0, 55, 61
1, 789335, Control_c, 0, 67, 87
1, 789363, Note_on_c, 0, 69, 64
1, 789375, Note_on_c, 0, 55, 48
1, 789399, Note_on_c, 0, 63, 39
1, 789402, Note_off_c, 0, 55, 60
1, 789429, Note_off_c, 0, 69, 60
1, 789440, Poly_aftertouch_c, 0, 60, 127
1, 789455, Note_off_c, 0, 63, 57
1, 789478, Poly_aftertouch_c, 0, 60, 0
1, 789519, Note_on_c, 0, 46, 47
1, 789532, Note_on_c, 0, 54, 58
1, 789558, Control_c, 0, 67, 87
1, 789581, Note_off_c, 0, 54, 58
1, 789647, Control_c, 0, 67, 88
1, 789652, Note_on_c, 0, 62, 53
1, 789656, Note_on_c, 0, 58, 41
1, 789693, Note_on_c, 0, 54, 56
1, 789741, Note_off_c, 0, 46, 42
1, 789765, Control_c, 0, 67, 88
1, 789766, Note_off_c, 0, 58, 49
1, 789799, Note_on_c, 0, 55, 60
1, 789805, Note_off_c, 0, 62, 58
1, 789861, Note_off_c, 0, 55, 63
1, 789869, Control_c, 0, 67, 89
1, 789870, Note_off_c, 0, 54, 58
1, 789874, Note_on_c, 0, 46, 40
1, 789990, Note_on_c, 0, 70, 66
1, 790040, Control_c, 0, 67, 89
1, 790114, Control_c, 0, 67, 90
1, 790129, Control_c, 0, 67, 90
1, 790144, Control_c, 0, 67, 92
1, 790158, Control_c, 0, 67, 94
1, 790173, Note_off_c, 0, 70, 57
1, 790173, Control_c, 0, 67, 97
1, 790181, Note_on_c, 0, 39, 38
1, 790188, Control_c, 0, 67, 99
1, 790202, Control_c, 0, 67, 102
1, 790217, Control_c, 0, 67, 107
1, 790232, Control_c, 0, 67, 108
1, 790247, Control_c, 0, 67, 110
1, 790254, Note_off_c, 0, 46, 35
1, 790262, Control_c, 0, 64, 107
1, 790262, Control_c, 0, 67, 110
1, 790277, Control_c, 0, 64, 89
1, 790277, Control_c, 0, 67, 111
1, 790284, Note_on_c, 0, 70, 57
1, 790291, Control_c, 0, 64, 73
1, 790291, Control_c, 0, 67, 111
1, 790306, Control_c, 0, 64, 51
1, 790321, Control_c, 0, 64, 0
1, 790381, Control_c, 0, 64, 28
1, 790396, Control_c, 0, 64, 65
1, 790411, Control_c, 0, 64, 76
1, 790425, Control_c, 0, 64, 88
1, 790425, Control_c, 0, 67, 111
1, 790440, Control_c, 0, 64, 105
1, 790455, Control_c, 0, 64, 127
1, 790507, Note_off_c, 0, 70, 58
1, 790551, Note_on_c, 0, 46, 38
1, 790559, Control_c, 0, 67, 110
1, 790565, Note_off_c, 0, 39, 41
1, 790604, Note_on_c, 0, 55, 49
1, 790683, Note_off_c, 0, 55, 44
1, 790766, Note_off_c, 0, 46, 35
1, 790773, Control_c, 0, 64, 101
1, 790776, Note_on_c, 0, 56, 49
1, 790779, Note_on_c, 0, 53, 46
1, 790784, Note_on_c, 0, 63, 50
1, 790788, Control_c, 0, 64, 87
1, 790803, Control_c, 0, 64, 76
1, 790818, Control_c, 0, 64, 68
1, 790818, Control_c, 0, 67, 110
1, 790832, Control_c, 0, 64, 64
1, 790832, Control_c, 0, 67, 109
1, 790847, Control_c, 0, 64, 66
1, 790848, Note_off_c, 0, 53, 56
1, 790862, Control_c, 0, 64, 70
1, 790862, Control_c, 0, 67, 109
1, 790877, Control_c, 0, 64, 74
1, 790892, Control_c, 0, 64, 79
1, 790892, Control_c, 0, 67, 108
1, 790906, Note_off_c, 0, 56, 56
1, 790907, Control_c, 0, 64, 84
1, 790907, Control_c, 0, 67, 108
1, 790922, Control_c, 0, 64, 88
1, 790937, Control_c, 0, 64, 91
1, 790937, Control_c, 0, 67, 107
1, 790951, Control_c, 0, 64, 92
1, 790966, Control_c, 0, 67, 107
1, 790980, Note_on_c, 0, 52, 39
1, 790985, Note_on_c, 0, 47, 45
1, 791024, Note_off_c, 0, 52, 46
1, 791025, Control_c, 0, 67, 106
1, 791040, Note_off_c, 0, 47, 50
1, 791070, Control_c, 0, 67, 106
1, 791085, Control_c, 0, 67, 105
1, 791114, Control_c, 0, 67, 105
1, 791129, Control_c, 0, 64, 91
1, 791129, Control_c, 0, 67, 104
1, 791145, Control_c, 0, 64, 91
1, 791175, Control_c, 0, 64, 90
1, 791190, Control_c, 0, 64, 88
1, 791204, Control_c, 0, 64, 84
1, 791219, Control_c, 0, 64, 77
1, 791230, Note_on_c, 0, 55, 41
1, 791234, Control_c, 0, 64, 69
1, 791234, Control_c, 0, 67, 104
1, 791238, Note_on_c, 0, 52, 34
1, 791248, Control_c, 0, 64, 62
1, 791263, Control_c, 0, 64, 33
1, 791278, Control_c, 0, 64, 0
1, 791293, Control_c, 0, 67, 103
1, 791308, Control_c, 0, 64, 40
1, 791308, Control_c, 0, 67, 103
1, 791322, Control_c, 0, 64, 56
1, 791322, Control_c, 0, 67, 102
1, 791337, Control_c, 0, 64, 63
1, 791337, Control_c, 0, 67, 102
1, 791352, Control_c, 0, 64, 65
1, 791352, Control_c, 0, 67, 101
1, 791367, Control_c, 0, 64, 69
1, 791367, Control_c, 0, 67, 101
1, 791381, Control_c, 0, 64, 73
1, 791381, Control_c, 0, 67, 100
1, 791396, Control_c, 0, 64, 78
1, 791396, Control_c, 0, 67, 100
1, 791411, Control_c, 0, 64, 82
1, 791411, Control_c, 0, 67, 99
1, 791434, Control_c, 0, 64, 86
1, 791434, Control_c, 0, 67, 98
1, 791449, Control_c, 0, 64, 89
1, 791449, Control_c, 0, 67, 97
1, 791463, Control_c, 0, 64, 92
1, 791463, Control_c, 0, 67, 95
1, 791478, Control_c, 0, 64, 95
1, 791478, Control_c, 0, 67, 92
1, 791493, Control_c, 0, 64, 98
1, 791493, Control_c, 0, 67, 87
1, 791508, Control_c, 0, 64, 101
1, 791508, Control_c, 0, 67, 78
1, 791523, Control_c, 0, 64, 104
1, 791523, Control_c, 0, 67, 69
1, 791537, Control_c, 0, 64, 106
1, 791537, Control_c, 0, 67, 59
1, 791552, Control_c, 0, 64, 109
1, 791552, Control_c, 0, 67, 50
1, 791567, Control_c, 0, 64, 112
1, 791567, Control_c, 0, 67, 43
1, 791581, Control_c, 0, 64, 116
1, 791581, Control_c, 0, 67, 36
1, 791589, Note_on_c, 0, 46, 25
1, 791596, Control_c, 0, 64, 121
1, 791596, Control_c, 0, 67, 29
1, 791597, Note_on_c, 0, 51, 26
1, 791602, Note_off_c, 0, 52, 33
1, 791611, Control_c, 0, 64, 127
1, 791611, Control_c, 0, 67, 21
1, 791626, Control_c, 0, 67, 16
1, 791641, Control_c, 0, 67, 9
1, 791655, Control_c, 0, 67, 0
1, 791664, Note_off_c, 0, 46, 39
1, 792035, Note_off_c, 0, 51, 45
1, 792075, Note_off_c, 0, 55, 40
1, 792121, Note_off_c, 0, 63, 59
1, 792159, Control_c, 0, 64, 90
1, 792182, Control_c, 0, 64, 0
1, 792221, Note_on_c, 0, 43, 110
1, 792227, Note_on_c, 0, 31, 87
1, 792246, Note_on_c, 0, 37, 47
1, 792271, Control_c, 0, 64, 69
1, 792285, Control_c, 0, 64, 127
1, 792304, Poly_aftertouch_c, 0, 39, 127
1, 792310, Poly_aftertouch_c, 0, 35, 127
1, 792311, Note_on_c, 0, 39, 25
1, 792334, Note_off_c, 0, 31, 61
1, 792350, Poly_aftertouch_c, 0, 35, 0
1, 792359, Note_off_c, 0, 43, 67
1, 792360, Note_off_c, 0, 37, 25
1, 792391, Note_on_c, 0, 79, 95
1, 792400, Note_off_c, 0, 39, 41
1, 792440, Note_on_c, 0, 87, 13
1, 792474, Note_off_c, 0, 79, 53
1, 792475, Note_off_c, 0, 87, 27
1, 792505, Note_on_c, 0, 91, 99
1, 792560, Note_off_c, 0, 91, 66
1, 792591, Note_on_c, 0, 66, 103
1, 792599, Note_on_c, 0, 63, 88
1, 792601, Note_on_c, 0, 60, 77
1, 792602, Note_on_c, 0, 54, 88
1, 792606, Note_on_c, 0, 91, 80
1, 792607, Note_on_c, 0, 89, 98
1, 792609, Note_on_c, 0, 57, 68
1, 792621, Note_on_c, 0, 61, 55
1, 792622, Note_off_c, 0, 61, 127
1, 792625, Note_off_c, 0, 60, 69
1, 792635, Note_on_c, 0, 88, 46
1, 792636, Note_off_c, 0, 88, 127
1, 792636, Note_off_c, 0, 57, 62
1, 792644, Note_off_c, 0, 91, 66
1, 792647, Note_off_c, 0, 54, 64
1, 792659, Note_off_c, 0, 66, 67
1, 792661, Note_off_c, 0, 89, 66
1, 792668, Note_off_c, 0, 63, 62
1, 792713, Note_on_c, 0, 87, 107
1, 792737, Note_on_c, 0, 88, 47
1, 792762, Note_off_c, 0, 88, 57
1, 792777, Note_off_c, 0, 87, 56
1, 792798, Note_on_c, 0, 84, 92
1, 792809, Note_on_c, 0, 86, 55
1, 792830, Note_off_c, 0, 86, 61
1, 792855, Note_off_c, 0, 84, 67
1, 792865, Note_on_c, 0, 81, 86
1, 792898, Note_off_c, 0, 81, 62
1, 792949, Note_on_c, 0, 79, 86
1, 793011, Note_off_c, 0, 79, 59
1, 793015, Note_on_c, 0, 78, 90
1, 793048, Note_off_c, 0, 78, 64
1, 793089, Note_on_c, 0, 77, 82
1, 793134, Note_on_c, 0, 75, 83
1, 793169, Note_off_c, 0, 77, 62
1, 793181, Note_on_c, 0, 72, 77
1, 793211, Note_off_c, 0, 75, 66
1, 793234, Note_on_c, 0, 69, 87
1, 793238, Note_off_c, 0, 72, 64
1, 793268, Note_off_c, 0, 69, 61
1, 793293, Note_on_c, 0, 67, 79
1, 793329, Note_on_c, 0, 66, 82
1, 793334, Note_off_c, 0, 67, 65
1, 793348, Note_off_c, 0, 66, 67
1, 793378, Note_on_c, 0, 65, 34
1, 793447, Note_on_c, 0, 63, 82
1, 793450, Poly_aftertouch_c, 0, 66, 127
1, 793491, Note_off_c, 0, 65, 55
1, 793492, Poly_aftertouch_c, 0, 66, 0
1, 793494, Note_on_c, 0, 60, 73
1, 793526, Note_off_c, 0, 63, 64
1, 793539, Note_on_c, 0, 57, 75
1, 793553, Note_off_c, 0, 60, 63
1, 793565, Note_off_c, 0, 57, 67
1, 793626, Note_on_c, 0, 43, 108
1, 793627, Note_on_c, 0, 36, 118
1, 793630, Note_on_c, 0, 52, 95
1, 793638, Note_on_c, 0, 64, 71
1, 793640, Note_on_c, 0, 60, 82
1, 793644, Note_on_c, 0, 65, 67
1, 793644, Note_off_c, 0, 43, 74
1, 793649, Note_on_c, 0, 61, 57
1, 793650, Note_off_c, 0, 52, 71
1, 793657, Control_c, 0, 64, 87
1, 793661, Note_off_c, 0, 60, 68
1, 793671, Note_off_c, 0, 64, 69
1, 793672, Note_off_c, 0, 36, 66
1, 793672, Note_off_c, 0, 65, 64
1, 793674, Note_on_c, 0, 53, 34
1, 793675, Note_off_c, 0, 53, 127
1, 793679, Control_c, 0, 64, 0
1, 793680, Note_off_c, 0, 61, 60
1, 794123, Control_c, 0, 64, 54
1, 794129, Note_on_c, 0, 43, 98
1, 794134, Note_on_c, 0, 36, 94
1, 794135, Note_on_c, 0, 52, 97
1, 794138, Note_on_c, 0, 60, 91
1, 794138, Control_c, 0, 64, 115
1, 794139, Note_on_c, 0, 64, 89
1, 794153, Control_c, 0, 64, 127
1, 794159, Note_off_c, 0, 60, 69
1, 794159, Note_off_c, 0, 52, 65
1, 794160, Note_off_c, 0, 43, 65
1, 794162, Note_off_c, 0, 64, 68
1, 794168, Note_off_c, 0, 36, 60
1, 794213, Control_c, 0, 64, 88
1, 794228, Control_c, 0, 64, 59
1, 794242, Control_c, 0, 64, 0
1, 794624, Note_on_c, 0, 52, 92
1, 794627, Note_on_c, 0, 43, 94
1, 794627, Note_on_c, 0, 60, 81
1, 794636, Note_on_c, 0, 64, 66
1, 794642, Note_on_c, 0, 36, 69
1, 794649, Note_off_c, 0, 52, 69
1, 794652, Note_off_c, 0, 43, 69
1, 794654, Note_off_c, 0, 60, 67
1, 794663, Note_off_c, 0, 64, 64
1, 794664, Control_c, 0, 64, 83
1, 794667, Note_off_c, 0, 36, 64
1, 794679, Control_c, 0, 64, 127
1, 794709, Note_on_c, 0, 52, 85
1, 794714, Note_on_c, 0, 60, 93
1, 794716, Note_on_c, 0, 43, 95
1, 794723, Note_on_c, 0, 64, 62
1, 794728, Note_on_c, 0, 36, 70
1, 794735, Note_off_c, 0, 52, 66
1, 794742, Note_off_c, 0, 64, 67
1, 794745, Note_off_c, 0, 60, 65
1, 794747, Note_off_c, 0, 43, 68
1, 794752, Note_off_c, 0, 36, 67
1, 794796, Note_on_c, 0, 52, 100
1, 794796, Note_on_c, 0, 64, 83
1, 794800, Note_on_c, 0, 36, 85
1, 794801, Note_on_c, 0, 60, 84
1, 794806, Note_on_c, 0, 43, 89
1, 794812, Control_c, 0, 64, 123
1, 794821, Note_off_c, 0, 52, 62
1, 794827, Note_off_c, 0, 36, 67
1, 794827, Control_c, 0, 64, 69
1, 794833, Note_off_c, 0, 60, 62
1, 794842, Note_off_c, 0, 43, 63
1, 794842, Control_c, 0, 64, 0
1, 794856, Note_off_c, 0, 64, 66
1, 795028, Note_on_c, 0, 43, 108
1, 795045, Note_on_c, 0, 31, 65
1, 795064, Control_c, 0, 64, 104
1, 795073, Note_off_c, 0, 31, 58
1, 795074, Note_on_c, 0, 33, 46
1, 795079, Control_c, 0, 64, 127
1, 795092, Note_off_c, 0, 43, 66
1, 795119, Note_off_c, 0, 33, 47
1, 795202, Note_on_c, 0, 79, 94
1, 795256, Note_off_c, 0, 79, 58
1, 795315, Note_on_c, 0, 91, 97
1, 795363, Note_off_c, 0, 91, 67
1, 795401, Note_on_c, 0, 66, 100
1, 795405, Note_on_c, 0, 63, 85
1, 795411, Note_on_c, 0, 54, 81
1, 795411, Note_on_c, 0, 60, 75
1, 795413, Note_on_c, 0, 57, 66
1, 795417, Note_on_c, 0, 89, 103
1, 795425, Note_on_c, 0, 91, 80
1, 795435, Note_off_c, 0, 60, 67
1, 795441, Note_off_c, 0, 57, 65
1, 795442, Note_off_c, 0, 54, 66
1, 795446, Note_off_c, 0, 91, 71
1, 795457, Note_off_c, 0, 63, 63
1, 795463, Note_off_c, 0, 66, 61
1, 795484, Note_off_c, 0, 89, 55
1, 795518, Note_on_c, 0, 87, 106
1, 795599, Poly_aftertouch_c, 0, 89, 0
1, 795600, Note_on_c, 0, 84, 85
1, 795626, Note_off_c, 0, 87, 59
1, 795661, Note_on_c, 0, 81, 87
1, 795666, Note_off_c, 0, 84, 63
1, 795695, Note_off_c, 0, 81, 65
1, 795721, Note_on_c, 0, 79, 82
1, 795777, Note_on_c, 0, 78, 83
1, 795805, Note_off_c, 0, 79, 57
1, 795834, Note_on_c, 0, 75, 79
1, 795859, Note_off_c, 0, 78, 62
1, 795888, Note_off_c, 0, 75, 68
1, 795894, Note_on_c, 0, 72, 80
1, 795925, Note_on_c, 0, 67, 83
1, 795943, Note_off_c, 0, 72, 68
1, 795977, Note_on_c, 0, 66, 80
1, 795988, Note_off_c, 0, 67, 59
1, 796035, Note_off_c, 0, 66, 64
1, 796063, Note_on_c, 0, 65, 89
1, 796109, Note_on_c, 0, 63, 75
1, 796145, Note_off_c, 0, 65, 59
1, 796156, Note_on_c, 0, 60, 73
1, 796194, Note_off_c, 0, 63, 64
1, 796207, Note_on_c, 0, 57, 80
1, 796220, Note_off_c, 0, 60, 63
1, 796239, Note_off_c, 0, 57, 64
1, 796266, Note_on_c, 0, 55, 84
1, 796299, Note_on_c, 0, 54, 78
1, 796303, Note_off_c, 0, 55, 66
1, 796322, Note_off_c, 0, 54, 69
1, 796360, Note_on_c, 0, 63, 28
1, 796397, Note_on_c, 0, 51, 81
1, 796398, Note_off_c, 0, 63, 53
1, 796459, Note_off_c, 0, 51, 64
1, 796475, Note_on_c, 0, 63, 87
1, 796475, Note_on_c, 0, 60, 59
1, 796482, Note_on_c, 0, 43, 88
1, 796491, Note_on_c, 0, 36, 76
1, 796504, Control_c, 0, 64, 69
1, 796505, Note_off_c, 0, 60, 67
1, 796505, Note_off_c, 0, 43, 68
1, 796514, Note_off_c, 0, 63, 68
1, 796518, Note_off_c, 0, 36, 63
1, 796518, Control_c, 0, 64, 0
1, 796898, Note_on_c, 0, 55, 60
1, 796899, Note_on_c, 0, 63, 64
1, 796908, Note_on_c, 0, 42, 55
1, 796908, Note_on_c, 0, 67, 41
1, 796916, Note_on_c, 0, 36, 48
1, 796925, Note_off_c, 0, 55, 66
1, 796929, Note_off_c, 0, 63, 66
1, 796936, Note_off_c, 0, 42, 61
1, 796939, Note_off_c, 0, 67, 33
1, 796947, Note_off_c, 0, 36, 54
1, 797030, Note_on_c, 0, 51, 71
1, 797030, Note_on_c, 0, 63, 71
1, 797031, Note_on_c, 0, 36, 55
1, 797034, Note_on_c, 0, 43, 58
1, 797042, Note_on_c, 0, 60, 48
1, 797055, Note_off_c, 0, 51, 67
1, 797055, Note_off_c, 0, 63, 68
1, 797060, Control_c, 0, 64, 78
1, 797061, Note_off_c, 0, 36, 53
1, 797061, Note_off_c, 0, 43, 57
1, 797065, Note_off_c, 0, 60, 60
1, 797074, Control_c, 0, 64, 89
1, 797089, Control_c, 0, 64, 84
1, 797104, Control_c, 0, 64, 47
1, 797119, Control_c, 0, 64, 0
1, 797389, Note_on_c, 0, 63, 68
1, 797390, Note_on_c, 0, 55, 66
1, 797392, Note_on_c, 0, 42, 65
1, 797395, Note_on_c, 0, 67, 60
1, 797417, Note_on_c, 0, 36, 48
1, 797421, Note_off_c, 0, 55, 67
1, 797423, Note_off_c, 0, 67, 61
1, 797426, Note_off_c, 0, 42, 65
1, 797428, Note_off_c, 0, 63, 65
1, 797449, Note_off_c, 0, 36, 52
1, 797513, Note_on_c, 0, 51, 82
1, 797516, Note_on_c, 0, 43, 75
1, 797516, Note_on_c, 0, 63, 75
1, 797524, Note_on_c, 0, 36, 60
1, 797526, Control_c, 0, 64, 80
1, 797528, Note_on_c, 0, 60, 45
1, 797536, Note_off_c, 0, 51, 65
1, 797542, Control_c, 0, 64, 127
1, 797542, Note_off_c, 0, 43, 66
1, 797549, Note_off_c, 0, 63, 62
1, 797550, Note_off_c, 0, 60, 62
1, 797554, Note_off_c, 0, 36, 57
1, 797631, Control_c, 0, 64, 94
1, 797646, Control_c, 0, 64, 67
1, 797661, Control_c, 0, 64, 0
1, 797880, Note_on_c, 0, 43, 88
1, 797884, Note_on_c, 0, 67, 69
1, 797885, Note_on_c, 0, 55, 73
1, 797885, Note_on_c, 0, 63, 73
1, 797905, Note_on_c, 0, 31, 44
1, 797905, Note_off_c, 0, 43, 70
1, 797907, Note_off_c, 0, 55, 67
1, 797908, Note_off_c, 0, 67, 68
1, 797909, Note_on_c, 0, 41, 52
1, 797921, Note_off_c, 0, 63, 60
1, 797942, Note_off_c, 0, 31, 48
1, 797942, Note_off_c, 0, 41, 38
1, 797951, Note_on_c, 0, 29, 3
1, 797952, Note_off_c, 0, 29, 127
1, 797990, Note_on_c, 0, 44, 99
1, 797997, Note_on_c, 0, 51, 89
1, 797998, Note_on_c, 0, 32, 87
1, 798002, Control_c, 0, 64, 90
1, 798006, Note_on_c, 0, 63, 84
1, 798013, Note_on_c, 0, 59, 57
1, 798016, Control_c, 0, 64, 127
1, 798018, Note_off_c, 0, 44, 63
1, 798018, Note_off_c, 0, 51, 67
1, 798023, Note_off_c, 0, 32, 66
1, 798036, Note_off_c, 0, 59, 61
1, 798053, Note_off_c, 0, 63, 61
1, 798061, Note_on_c, 0, 39, 4
1, 798093, Poly_aftertouch_c, 0, 37, 0
1, 798112, Poly_aftertouch_c, 0, 37, 0
1, 798114, Note_off_c, 0, 39, 33
1, 798120, Poly_aftertouch_c, 0, 51, 127
1, 798158, Poly_aftertouch_c, 0, 51, 0
1, 798171, Control_c, 0, 64, 112
1, 798186, Control_c, 0, 64, 77
1, 798201, Control_c, 0, 64, 0
1, 798244, Note_on_c, 0, 68, 94
1, 798245, Note_on_c, 0, 75, 94
1, 798246, Control_c, 0, 64, 53
1, 798255, Note_on_c, 0, 63, 98
1, 798255, Note_on_c, 0, 51, 80
1, 798261, Control_c, 0, 64, 91
1, 798268, Note_on_c, 0, 71, 47
1, 798275, Note_off_c, 0, 68, 62
1, 798275, Control_c, 0, 64, 127
1, 798279, Note_on_c, 0, 58, 46
1, 798280, Note_off_c, 0, 58, 127
1, 798288, Note_off_c, 0, 63, 59
1, 798289, Note_off_c, 0, 75, 62
1, 798292, Note_off_c, 0, 71, 61
1, 798295, Note_off_c, 0, 51, 64
1, 798387, Note_on_c, 0, 62, 82
1, 798396, Note_on_c, 0, 50, 66
1, 798410, Note_off_c, 0, 62, 69
1, 798423, Note_off_c, 0, 50, 67
1, 798469, Control_c, 0, 64, 93
1, 798484, Control_c, 0, 64, 61
1, 798499, Control_c, 0, 64, 0
1, 798504, Note_on_c, 0, 61, 77
1, 798513, Note_on_c, 0, 49, 67
1, 798528, Note_off_c, 0, 61, 68
1, 798539, Note_off_c, 0, 49, 66
1, 798619, Note_on_c, 0, 60, 80
1, 798620, Note_on_c, 0, 63, 75
1, 798622, Note_on_c, 0, 56, 74
1, 798632, Note_on_c, 0, 48, 59
1, 798644, Note_off_c, 0, 63, 67
1, 798645, Note_off_c, 0, 60, 66
1, 798648, Note_off_c, 0, 56, 67
1, 798660, Note_off_c, 0, 48, 64
1, 798738, Note_on_c, 0, 56, 80
1, 798740, Note_on_c, 0, 59, 82
1, 798744, Note_on_c, 0, 63, 83
1, 798749, Note_on_c, 0, 47, 70
1, 798750, Control_c, 0, 64, 86
1, 798762, Note_off_c, 0, 56, 69
1, 798765, Control_c, 0, 64, 127
1, 798773, Note_off_c, 0, 63, 61
1, 798803, Note_off_c, 0, 59, 55
1, 798857, Note_off_c, 0, 47, 63
1, 798865, Note_on_c, 0, 52, 55
1, 798890, Note_off_c, 0, 52, 64
1, 798990, Note_on_c, 0, 50, 92
1, 798994, Control_c, 0, 64, 82
1, 799003, Note_on_c, 0, 38, 71
1, 799009, Control_c, 0, 64, 0
1, 799014, Note_off_c, 0, 50, 72
1, 799031, Note_off_c, 0, 38, 65
1, 799111, Note_on_c, 0, 51, 82
1, 799114, Note_on_c, 0, 49, 85
1, 799127, Note_on_c, 0, 37, 68
1, 799140, Note_off_c, 0, 49, 69
1, 799146, Note_off_c, 0, 51, 66
1, 799155, Note_off_c, 0, 37, 65
1, 799223, Note_on_c, 0, 47, 96
1, 799232, Note_on_c, 0, 51, 92
1, 799233, Control_c, 0, 64, 79
1, 799236, Note_on_c, 0, 35, 72
1, 799248, Control_c, 0, 64, 127
1, 799260, Note_off_c, 0, 51, 64
1, 799261, Note_off_c, 0, 35, 65
1, 799262, Note_off_c, 0, 47, 65
1, 799292, Poly_aftertouch_c, 0, 37, 127
1, 799333, Note_on_c, 0, 39, 84
1, 799339, Poly_aftertouch_c, 0, 37, 0
1, 799359, Note_off_c, 0, 39, 67
1, 799410, Control_c, 0, 64, 90
1, 799425, Control_c, 0, 64, 26
1, 799440, Control_c, 0, 64, 0
1, 799487, Note_on_c, 0, 29, 21
1, 799507, Note_on_c, 0, 59, 92
1, 799514, Note_on_c, 0, 35, 98
1, 799525, Note_on_c, 0, 23, 75
1, 799528, Note_on_c, 0, 57, 47
1, 799529, Note_off_c, 0, 57, 127
1, 799530, Note_on_c, 0, 21, 69
1, 799531, Note_on_c, 0, 25, 69
1, 799532, Note_off_c, 0, 59, 64
1, 799535, Note_off_c, 0, 29, 57
1, 799543, Control_c, 0, 64, 127
1, 799549, Note_on_c, 0, 33, 38
1, 799552, Poly_aftertouch_c, 0, 27, 0
1, 799563, Note_off_c, 0, 23, 61
1, 799567, Note_off_c, 0, 25, 53
1, 799574, Note_off_c, 0, 21, 46
1, 799584, Note_off_c, 0, 33, 54
1, 799590, Poly_aftertouch_c, 0, 27, 0
1, 799605, Note_off_c, 0, 35, 61
1, 799763, Note_on_c, 0, 83, 95
1, 799808, Note_off_c, 0, 83, 67
1, 799897, Note_on_c, 0, 95, 99
1, 799944, Note_off_c, 0, 95, 67
1, 799986, Note_on_c, 0, 67, 113
1, 799990, Note_on_c, 0, 64, 82
1, 799993, Note_on_c, 0, 55, 82
1, 799993, Note_on_c, 0, 58, 85
1, 799997, Note_on_c, 0, 61, 87
1, 800000, Note_on_c, 0, 94, 101
1, 800055, Note_off_c, 0, 94, 63
1, 800098, Note_on_c, 0, 91, 94
1, 800151, Note_off_c, 0, 91, 66
1, 800178, Note_off_c, 0, 61, 41
1, 800184, Note_off_c, 0, 64, 59
1, 800187, Note_off_c, 0, 55, 22
1, 800188, Note_on_c, 0, 88, 85
1, 800189, Note_off_c, 0, 58, 54
1, 800216, Note_off_c, 0, 67, 49
1, 800240, Note_off_c, 0, 88, 56
1, 800269, Note_on_c, 0, 85, 90
1, 800324, Note_on_c, 0, 82, 91
1, 800371, Note_off_c, 0, 85, 63
1, 800395, Note_on_c, 0, 79, 84
1, 800413, Note_off_c, 0, 82, 66
1, 800422, Note_off_c, 0, 79, 69
1, 800458, Note_on_c, 0, 76, 87
1, 800521, Note_on_c, 0, 73, 85
1, 800559, Note_off_c, 0, 76, 53
1, 800574, Note_on_c, 0, 70, 83
1, 800611, Note_off_c, 0, 73, 61
1, 800643, Note_on_c, 0, 67, 83
1, 800660, Note_off_c, 0, 70, 65
1, 800687, Note_on_c, 0, 66, 82
1, 800723, Note_off_c, 0, 67, 66
1, 800756, Note_on_c, 0, 64, 77
1, 800806, Note_on_c, 0, 61, 82
1, 800815, Note_off_c, 0, 66, 58
1, 800852, Note_on_c, 0, 58, 86
1, 800869, Note_off_c, 0, 64, 62
1, 800896, Note_off_c, 0, 61, 61
1, 800917, Note_on_c, 0, 55, 78
1, 800920, Note_off_c, 0, 58, 61
1, 800960, Note_off_c, 0, 55, 51
1, 800984, Note_on_c, 0, 54, 89
1, 801057, Note_on_c, 0, 52, 92
1, 801058, Note_off_c, 0, 54, 61
1, 801125, Note_off_c, 0, 52, 60
1, 801218, Note_on_c, 0, 40, 94
1, 801226, Note_on_c, 0, 28, 77
1, 801241, Control_c, 0, 64, 88
1, 801256, Control_c, 0, 64, 0
1, 801313, Note_off_c, 0, 28, 58
1, 801358, Note_off_c, 0, 40, 65
1, 801360, Control_c, 0, 64, 71
1, 801374, Control_c, 0, 64, 127
1, 801463, Note_on_c, 0, 76, 90
1, 801493, Note_on_c, 0, 48, 62
1, 801582, Poly_aftertouch_c, 0, 50, 127
1, 801608, Poly_aftertouch_c, 0, 50, 0
1, 801614, Note_off_c, 0, 48, 30
1, 801648, Note_on_c, 0, 52, 49
1, 801648, Note_on_c, 0, 60, 60
1, 801651, Note_on_c, 0, 57, 44
1, 801730, Note_on_c, 0, 84, 89
1, 801741, Note_on_c, 0, 72, 75
1, 801741, Note_on_c, 0, 81, 73
1, 801802, Note_off_c, 0, 60, 39
1, 801862, Note_on_c, 0, 48, 68
1, 801868, Note_off_c, 0, 57, 60
1, 801898, Note_off_c, 0, 52, 61
1, 801909, Note_off_c, 0, 48, 65
1, 801939, Note_off_c, 0, 81, 60
1, 801948, Note_off_c, 0, 76, 58
1, 801953, Note_off_c, 0, 84, 53
1, 801998, Note_on_c, 0, 40, 76
1, 802033, Note_off_c, 0, 72, 62
1, 802056, Note_off_c, 0, 40, 59
1, 802085, Note_on_c, 0, 28, 81
1, 802094, Note_on_c, 0, 76, 89
1, 802096, Poly_aftertouch_c, 0, 41, 0
1, 802212, Control_c, 0, 64, 97
1, 802227, Control_c, 0, 64, 79
1, 802229, Note_on_c, 0, 40, 84
1, 802233, Note_on_c, 0, 83, 91
1, 802233, Note_off_c, 0, 28, 61
1, 802241, Note_on_c, 0, 72, 79
1, 802241, Note_on_c, 0, 79, 80
1, 802242, Control_c, 0, 64, 70
1, 802243, Note_on_c, 0, 71, 85
1, 802256, Control_c, 0, 64, 79
1, 802262, Note_off_c, 0, 40, 64
1, 802271, Control_c, 0, 64, 110
1, 802286, Control_c, 0, 64, 127
1, 802377, Note_on_c, 0, 48, 74
1, 802404, Note_on_c, 0, 52, 47
1, 802407, Note_on_c, 0, 57, 38
1, 802430, Note_off_c, 0, 48, 56
1, 802433, Note_off_c, 0, 83, 58
1, 802453, Note_on_c, 0, 60, 85
1, 802456, Note_off_c, 0, 76, 44
1, 802465, Note_off_c, 0, 57, 0
1, 802465, Note_on_c, 0, 57, 26
1, 802476, Note_off_c, 0, 60, 67
1, 802479, Note_off_c, 0, 71, 60
1, 802480, Note_off_c, 0, 79, 54
1, 802487, Note_off_c, 0, 52, 0
1, 802488, Note_off_c, 0, 72, 56
1, 802501, Note_off_c, 0, 57, 50
1, 802519, Note_on_c, 0, 60, 86
1, 802535, Poly_aftertouch_c, 0, 52, 0
1, 802546, Note_on_c, 0, 53, 55
1, 802558, Note_on_c, 0, 57, 56
1, 802558, Note_off_c, 0, 60, 68
1, 802563, Note_on_c, 0, 52, 28
1, 802572, Note_off_c, 0, 53, 61
1, 802586, Note_on_c, 0, 54, 38
1, 802593, Note_on_c, 0, 76, 90
1, 802606, Note_on_c, 0, 48, 79
1, 802618, Note_off_c, 0, 57, 63
1, 802618, Poly_aftertouch_c, 0, 58, 0
1, 802627, Note_off_c, 0, 54, 64
1, 802641, Note_off_c, 0, 52, 61
1, 802660, Note_off_c, 0, 48, 63
1, 802742, Note_on_c, 0, 40, 82
1, 802766, Note_on_c, 0, 81, 92
1, 802771, Note_on_c, 0, 72, 79
1, 802774, Note_on_c, 0, 77, 80
1, 802777, Note_on_c, 0, 69, 85
1, 802841, Note_off_c, 0, 40, 57
1, 802884, Note_on_c, 0, 28, 78
1, 802917, Control_c, 0, 64, 120
1, 802931, Control_c, 0, 64, 77
1, 802946, Control_c, 0, 64, 0
1, 802984, Note_on_c, 0, 40, 88
1, 802988, Note_off_c, 0, 28, 60
1, 802991, Control_c, 0, 64, 45
1, 803005, Control_c, 0, 64, 72
1, 803016, Note_off_c, 0, 81, 59
1, 803020, Control_c, 0, 64, 90
1, 803021, Note_off_c, 0, 76, 57
1, 803024, Note_off_c, 0, 40, 64
1, 803024, Note_off_c, 0, 77, 59
1, 803029, Note_off_c, 0, 72, 59
1, 803035, Control_c, 0, 64, 127
1, 803036, Note_off_c, 0, 69, 59
1, 803111, Note_on_c, 0, 72, 95
1, 803116, Note_on_c, 0, 48, 80
1, 803176, Note_off_c, 0, 48, 56
1, 803214, Note_on_c, 0, 52, 29
1, 803221, Note_on_c, 0, 60, 76
1, 803224, Note_on_c, 0, 57, 48
1, 803224, Note_on_c, 0, 79, 92
1, 803227, Note_on_c, 0, 69, 80
1, 803228, Note_on_c, 0, 67, 91
1, 803230, Note_on_c, 0, 76, 85
1, 803248, Note_off_c, 0, 60, 64
1, 803280, Note_on_c, 0, 71, 13
1, 803281, Note_off_c, 0, 71, 127
1, 803306, Note_off_c, 0, 57, 60
1, 803319, Note_on_c, 0, 48, 77
1, 803351, Note_off_c, 0, 52, 62
1, 803372, Note_off_c, 0, 48, 63
1, 803463, Note_on_c, 0, 40, 81
1, 803484, Note_on_c, 0, 38, 55
1, 803491, Note_off_c, 0, 79, 58
1, 803493, Note_off_c, 0, 69, 56
1, 803495, Note_off_c, 0, 72, 59
1, 803501, Note_off_c, 0, 67, 58
1, 803506, Note_off_c, 0, 76, 60
1, 803513, Note_off_c, 0, 40, 63
1, 803513, Note_off_c, 0, 38, 58
1, 803558, Note_on_c, 0, 28, 83
1, 803564, Note_on_c, 0, 72, 91
1, 803635, Control_c, 0, 64, 103
1, 803650, Control_c, 0, 64, 76
1, 803659, Note_off_c, 0, 28, 56
1, 803665, Control_c, 0, 64, 0
1, 803674, Note_on_c, 0, 40, 82
1, 803689, Note_on_c, 0, 77, 91
1, 803689, Note_on_c, 0, 69, 81
1, 803697, Note_on_c, 0, 65, 83
1, 803701, Note_off_c, 0, 40, 68
1, 803710, Control_c, 0, 64, 55
1, 803725, Control_c, 0, 64, 71
1, 803740, Control_c, 0, 64, 86
1, 803754, Control_c, 0, 64, 127
1, 803760, Note_on_c, 0, 74, 18
1, 803813, Note_on_c, 0, 48, 72
1, 803866, Note_off_c, 0, 77, 58
1, 803868, Note_off_c, 0, 65, 57
1, 803876, Note_off_c, 0, 48, 61
1, 803880, Note_off_c, 0, 69, 55
1, 803892, Note_off_c, 0, 72, 56
1, 803900, Poly_aftertouch_c, 0, 52, 127
1, 803902, Note_on_c, 0, 52, 9
1, 803905, Note_off_c, 0, 74, 44
1, 803911, Note_on_c, 0, 60, 80
1, 803920, Note_on_c, 0, 57, 48
1, 803962, Note_off_c, 0, 60, 62
1, 803989, Note_off_c, 0, 57, 62
1, 804001, Note_on_c, 0, 72, 87
1, 804002, Note_on_c, 0, 48, 68
1, 804029, Note_off_c, 0, 48, 65
1, 804029, Note_off_c, 0, 52, 51
1, 804122, Note_on_c, 0, 76, 83
1, 804130, Note_on_c, 0, 40, 59
1, 804130, Note_on_c, 0, 64, 70
1, 804136, Note_on_c, 0, 69, 59
1, 804146, Note_off_c, 0, 72, 64
1, 804161, Note_off_c, 0, 64, 70
1, 804167, Note_off_c, 0, 69, 62
1, 804169, Note_off_c, 0, 40, 64
1, 804174, Note_on_c, 0, 74, 35
1, 804175, Note_off_c, 0, 74, 127
1, 804175, Note_off_c, 0, 76, 61
1, 804220, Note_on_c, 0, 28, 62
1, 804256, Note_off_c, 0, 28, 58
1, 804340, Control_c, 0, 64, 73
1, 804355, Control_c, 0, 64, 0
1, 804365, Note_on_c, 0, 72, 77
1, 804384, Note_on_c, 0, 70, 47
1, 804409, Note_off_c, 0, 70, 56
1, 804496, Note_on_c, 0, 69, 48
1, 804518, Note_on_c, 0, 66, 20
1, 804521, Note_off_c, 0, 69, 38
1, 804556, Note_off_c, 0, 66, 30
1, 804585, Note_off_c, 0, 72, 0
1, 804585, Note_on_c, 0, 72, 3
1, 804598, Note_on_c, 0, 69, 57
1, 804619, Note_on_c, 0, 66, 50
1, 804626, Note_on_c, 0, 60, 33
1, 804643, Note_off_c, 0, 69, 63
1, 804645, Note_off_c, 0, 66, 61
1, 804659, Note_off_c, 0, 60, 54
1, 804732, Note_on_c, 0, 52, 54
1, 804735, Note_off_c, 0, 72, 57
1, 804750, Note_on_c, 0, 60, 44
1, 804760, Note_off_c, 0, 52, 61
1, 804777, Note_off_c, 0, 60, 58
1, 804815, Control_c, 0, 64, 62
1, 804830, Control_c, 0, 64, 76
1, 804831, Note_on_c, 0, 81, 84
1, 804845, Control_c, 0, 64, 80
1, 804858, Note_off_c, 0, 81, 64
1, 804860, Control_c, 0, 64, 80
1, 805015, Control_c, 0, 64, 80
1, 805030, Control_c, 0, 64, 78
1, 805045, Control_c, 0, 64, 74
1, 805060, Control_c, 0, 64, 63
1, 805073, Note_on_c, 0, 72, 72
1, 805075, Control_c, 0, 64, 0
1, 805083, Note_on_c, 0, 69, 59
1, 805085, Note_on_c, 0, 66, 60
1, 805105, Note_off_c, 0, 66, 63
1, 805111, Note_off_c, 0, 69, 66
1, 805174, Note_on_c, 0, 68, 70
1, 805185, Note_on_c, 0, 60, 58
1, 805194, Note_on_c, 0, 65, 39
1, 805197, Note_off_c, 0, 68, 66
1, 805215, Note_off_c, 0, 60, 66
1, 805224, Note_off_c, 0, 65, 50
1, 805285, Note_on_c, 0, 68, 51
1, 805290, Note_on_c, 0, 60, 64
1, 805309, Note_on_c, 0, 65, 48
1, 805317, Note_off_c, 0, 60, 67
1, 805317, Note_off_c, 0, 68, 66
1, 805334, Note_off_c, 0, 65, 57
1, 805387, Note_on_c, 0, 60, 61
1, 805394, Note_off_c, 0, 72, 65
1, 805402, Note_on_c, 0, 52, 52
1, 805420, Note_off_c, 0, 60, 66
1, 805433, Note_off_c, 0, 52, 62
1, 805489, Control_c, 0, 64, 72
1, 805500, Note_on_c, 0, 80, 77
1, 805504, Control_c, 0, 64, 81
1, 805519, Control_c, 0, 64, 86
1, 805519, Note_off_c, 0, 80, 71
1, 805535, Control_c, 0, 64, 87
1, 805549, Control_c, 0, 64, 87
1, 805661, Control_c, 0, 64, 87
1, 805676, Control_c, 0, 64, 86
1, 805691, Control_c, 0, 64, 82
1, 805705, Control_c, 0, 64, 72
1, 805720, Control_c, 0, 64, 0
1, 805735, Note_on_c, 0, 72, 71
1, 805740, Note_on_c, 0, 68, 63
1, 805757, Note_on_c, 0, 65, 36
1, 805774, Note_off_c, 0, 68, 60
1, 805790, Note_off_c, 0, 65, 48
1, 805827, Note_on_c, 0, 67, 53
1, 805837, Note_on_c, 0, 58, 51
1, 805852, Note_off_c, 0, 67, 58
1, 805856, Note_on_c, 0, 64, 27
1, 805870, Note_off_c, 0, 58, 64
1, 805884, Note_off_c, 0, 64, 53
1, 805949, Note_on_c, 0, 67, 55
1, 805950, Note_on_c, 0, 58, 68
1, 805969, Note_off_c, 0, 58, 66
1, 805973, Note_off_c, 0, 72, 0
1, 805973, Note_on_c, 0, 72, 4
1, 805975, Note_on_c, 0, 64, 36
1, 805990, Note_off_c, 0, 67, 62
1, 806008, Note_off_c, 0, 64, 49
1, 806029, Note_on_c, 0, 52, 56
1, 806042, Note_on_c, 0, 58, 53
1, 806047, Note_off_c, 0, 72, 61
1, 806059, Note_off_c, 0, 52, 64
1, 806066, Note_off_c, 0, 58, 63
1, 806135, Control_c, 0, 64, 69
1, 806149, Control_c, 0, 64, 75
1, 806163, Note_on_c, 0, 79, 80
1, 806164, Control_c, 0, 64, 78
1, 806181, Note_off_c, 0, 79, 71
1, 806194, Control_c, 0, 64, 79
1, 806209, Control_c, 0, 64, 79
1, 806253, Control_c, 0, 64, 79
1, 806281, Control_c, 0, 64, 78
1, 806296, Control_c, 0, 64, 77
1, 806311, Control_c, 0, 64, 75
1, 806327, Control_c, 0, 64, 73
1, 806342, Control_c, 0, 64, 68
1, 806357, Control_c, 0, 64, 55
1, 806371, Control_c, 0, 64, 0
1, 806381, Note_on_c, 0, 72, 74
1, 806384, Note_on_c, 0, 64, 56
1, 806384, Note_on_c, 0, 67, 60
1, 806417, Note_off_c, 0, 64, 57
1, 806421, Note_off_c, 0, 67, 64
1, 806468, Note_on_c, 0, 66, 70
1, 806482, Note_on_c, 0, 58, 58
1, 806491, Note_off_c, 0, 66, 66
1, 806511, Note_off_c, 0, 58, 65
1, 806588, Note_on_c, 0, 66, 54
1, 806591, Note_on_c, 0, 58, 62
1, 806598, Note_on_c, 0, 71, 16
1, 806601, Note_on_c, 0, 63, 51
1, 806605, Note_off_c, 0, 72, 0
1, 806605, Note_on_c, 0, 72, 3
1, 806619, Note_off_c, 0, 58, 65
1, 806623, Note_off_c, 0, 71, 33
1, 806627, Note_off_c, 0, 63, 60
1, 806628, Note_off_c, 0, 66, 64
1, 806689, Note_on_c, 0, 58, 60
1, 806695, Note_on_c, 0, 48, 59
1, 806719, Note_off_c, 0, 58, 65
1, 806725, Note_off_c, 0, 72, 46
1, 806729, Note_off_c, 0, 48, 64
1, 806808, Control_c, 0, 64, 71
1, 806823, Control_c, 0, 64, 127
1, 806825, Note_on_c, 0, 78, 78
1, 806844, Note_off_c, 0, 78, 71
1, 807075, Control_c, 0, 64, 109
1, 807090, Control_c, 0, 64, 80
1, 807104, Control_c, 0, 64, 65
1, 807120, Control_c, 0, 64, 62
1, 807134, Note_on_c, 0, 53, 83
1, 807135, Control_c, 0, 64, 70
1, 807137, Note_on_c, 0, 29, 55
1, 807142, Note_on_c, 0, 41, 49
1, 807157, Control_c, 0, 64, 81
1, 807172, Control_c, 0, 64, 98
1, 807177, Note_off_c, 0, 53, 61
1, 807187, Control_c, 0, 64, 127
1, 807196, Note_off_c, 0, 29, 62
1, 807222, Note_off_c, 0, 41, 60
1, 807374, Note_on_c, 0, 47, 53
1, 807403, Note_on_c, 0, 55, 48
1, 807425, Note_off_c, 0, 47, 64
1, 807442, Note_off_c, 0, 55, 62
1, 807454, Note_on_c, 0, 84, 86
1, 807465, Note_on_c, 0, 72, 63
1, 807466, Note_on_c, 0, 75, 64
1, 807482, Note_off_c, 0, 72, 64
1, 807491, Note_off_c, 0, 75, 66
1, 807548, Note_on_c, 0, 81, 80
1, 807553, Note_on_c, 0, 75, 72
1, 807554, Note_on_c, 0, 72, 68
1, 807579, Note_on_c, 0, 60, 58
1, 807588, Note_off_c, 0, 75, 56
1, 807594, Note_off_c, 0, 72, 61
1, 807596, Note_off_c, 0, 84, 25
1, 807603, Note_off_c, 0, 81, 62
1, 807616, Note_off_c, 0, 60, 65
1, 807620, Note_on_c, 0, 63, 75
1, 807672, Note_off_c, 0, 63, 61
1, 807695, Note_on_c, 0, 66, 87
1, 807728, Note_on_c, 0, 69, 78
1, 807737, Note_off_c, 0, 66, 58
1, 807790, Note_on_c, 0, 72, 78
1, 807802, Poly_aftertouch_c, 0, 76, 127
1, 807819, Note_off_c, 0, 69, 61
1, 807836, Poly_aftertouch_c, 0, 76, 0
1, 807855, Note_on_c, 0, 75, 90
1, 807872, Note_off_c, 0, 72, 66
1, 807909, Note_off_c, 0, 75, 67
1, 807980, Control_c, 0, 64, 95
1, 807995, Control_c, 0, 64, 55
1, 808010, Control_c, 0, 64, 0
1, 808020, Note_on_c, 0, 90, 101
1, 808020, Note_on_c, 0, 78, 99
1, 808022, Note_on_c, 0, 66, 100
1, 808023, Note_on_c, 0, 54, 81
1, 808039, Control_c, 0, 64, 68
1, 808054, Control_c, 0, 64, 127
1, 808056, Note_off_c, 0, 78, 65
1, 808063, Note_off_c, 0, 90, 67
1, 808107, Note_off_c, 0, 54, 65
1, 808126, Note_off_c, 0, 66, 63
1, 808303, Note_on_c, 0, 69, 77
1, 808306, Note_on_c, 0, 63, 44
1, 808308, Note_on_c, 0, 71, 79
1, 808309, Note_on_c, 0, 75, 66
1, 808311, Note_on_c, 0, 83, 78
1, 808315, Note_on_c, 0, 59, 59
1, 808322, Note_off_c, 0, 69, 69
1, 808325, Note_off_c, 0, 83, 70
1, 808333, Note_off_c, 0, 75, 69
1, 808337, Note_off_c, 0, 71, 60
1, 808342, Note_off_c, 0, 59, 64
1, 808354, Note_off_c, 0, 63, 62
1, 808529, Note_on_c, 0, 58, 73
1, 808533, Note_on_c, 0, 63, 80
1, 808533, Note_on_c, 0, 70, 83
1, 808539, Note_on_c, 0, 51, 67
1, 808551, Note_off_c, 0, 58, 67
1, 808557, Note_off_c, 0, 63, 68
1, 808560, Note_off_c, 0, 70, 65
1, 808561, Note_off_c, 0, 51, 66
1, 808730, Control_c, 0, 64, 108
1, 808745, Control_c, 0, 64, 70
1, 808760, Control_c, 0, 64, 0
1, 808760, Poly_aftertouch_c, 0, 58, 0
1, 808772, Note_on_c, 0, 41, 87
1, 808774, Note_on_c, 0, 29, 69
1, 808778, Note_on_c, 0, 53, 87
1, 808789, Control_c, 0, 64, 62
1, 808801, Note_off_c, 0, 41, 67
1, 808802, Note_off_c, 0, 53, 72
1, 808804, Control_c, 0, 64, 85
1, 808805, Note_off_c, 0, 29, 61
1, 808819, Control_c, 0, 64, 127
1, 808928, Note_on_c, 0, 63, 90
1, 808932, Note_on_c, 0, 72, 77
1, 808947, Note_off_c, 0, 63, 72
1, 808954, Note_on_c, 0, 48, 70
1, 808955, Note_off_c, 0, 72, 67
1, 808962, Note_on_c, 0, 57, 64
1, 809003, Note_on_c, 0, 69, 89
1, 809019, Note_on_c, 0, 66, 83
1, 809037, Note_off_c, 0, 48, 60
1, 809046, Note_off_c, 0, 69, 61
1, 809047, Note_on_c, 0, 60, 68
1, 809069, Note_on_c, 0, 63, 86
1, 809079, Note_off_c, 0, 66, 60
1, 809080, Note_off_c, 0, 60, 61
1, 809116, Note_off_c, 0, 63, 63
1, 809141, Note_off_c, 0, 57, 36
1, 809178, Note_on_c, 0, 61, 82
1, 809210, Note_on_c, 0, 60, 78
1, 809217, Note_off_c, 0, 61, 62
1, 809249, Note_on_c, 0, 57, 70
1, 809261, Note_off_c, 0, 60, 61
1, 809308, Note_on_c, 0, 54, 82
1, 809320, Note_off_c, 0, 57, 60
1, 809346, Note_off_c, 0, 54, 66
1, 809403, Control_c, 0, 64, 98
1, 809415, Note_on_c, 0, 51, 90
1, 809418, Control_c, 0, 64, 71
1, 809422, Note_on_c, 0, 63, 85
1, 809431, Note_on_c, 0, 39, 66
1, 809432, Control_c, 0, 64, 0
1, 809444, Note_on_c, 0, 42, 42
1, 809445, Note_off_c, 0, 42, 127
1, 809450, Note_off_c, 0, 51, 60
1, 809455, Note_off_c, 0, 39, 64
1, 809462, Control_c, 0, 64, 47
1, 809467, Note_off_c, 0, 63, 64
1, 809477, Control_c, 0, 64, 72
1, 809492, Control_c, 0, 64, 89
1, 809506, Control_c, 0, 64, 127
1, 809555, Note_on_c, 0, 59, 79
1, 809557, Note_on_c, 0, 47, 76
1, 809627, Note_off_c, 0, 59, 58
1, 809628, Note_on_c, 0, 58, 79
1, 809628, Note_off_c, 0, 47, 64
1, 809634, Note_on_c, 0, 46, 74
1, 809687, Note_on_c, 0, 57, 79
1, 809703, Note_off_c, 0, 46, 62
1, 809704, Note_on_c, 0, 45, 84
1, 809739, Note_off_c, 0, 58, 37
1, 809751, Note_off_c, 0, 45, 63
1, 809756, Note_on_c, 0, 54, 90
1, 809778, Note_off_c, 0, 57, 61
1, 809809, Note_off_c, 0, 54, 69
1, 809843, Note_on_c, 0, 51, 84
1, 809872, Note_off_c, 0, 51, 67
1, 809901, Note_on_c, 0, 47, 101
1, 809960, Note_off_c, 0, 47, 55
1, 809994, Note_on_c, 0, 46, 94
1, 810071, Note_on_c, 0, 45, 85
1, 810086, Note_off_c, 0, 46, 66
1, 810113, Note_off_c, 0, 45, 67
1, 810199, Poly_aftertouch_c, 0, 44, 0
1, 810241, Control_c, 0, 64, 100
1, 810253, Note_on_c, 0, 41, 94
1, 810255, Control_c, 0, 64, 61
1, 810259, Note_on_c, 0, 29, 87
1, 810270, Control_c, 0, 64, 0
1, 810290, Note_off_c, 0, 29, 63
1, 810366, Note_off_c, 0, 41, 62
1, 810375, Control_c, 0, 64, 63
1, 810390, Control_c, 0, 64, 127
1, 810452, Note_on_c, 0, 77, 95
1, 810489, Note_on_c, 0, 49, 75
1, 810561, Note_off_c, 0, 49, 60
1, 810649, Note_on_c, 0, 61, 77
1, 810651, Note_on_c, 0, 58, 67
1, 810654, Note_on_c, 0, 53, 63
1, 810687, Poly_aftertouch_c, 0, 55, 127
1, 810687, Note_on_c, 0, 55, 7
1, 810717, Note_on_c, 0, 85, 96
1, 810721, Note_on_c, 0, 82, 81
1, 810727, Note_off_c, 0, 55, 43
1, 810730, Note_on_c, 0, 73, 81
1, 810755, Note_on_c, 0, 79, 8
1, 810769, Note_off_c, 0, 61, 58
1, 810837, Note_on_c, 0, 49, 74
1, 810842, Note_off_c, 0, 58, 59
1, 810868, Note_off_c, 0, 79, 37
1, 810870, Note_off_c, 0, 77, 57
1, 810879, Note_off_c, 0, 49, 61
1, 810881, Note_off_c, 0, 53, 40
1, 810882, Note_off_c, 0, 82, 61
1, 810916, Note_off_c, 0, 73, 61
1, 810926, Note_off_c, 0, 85, 62
1, 810962, Note_on_c, 0, 41, 86
1, 811015, Note_off_c, 0, 41, 62
1, 811061, Note_on_c, 0, 29, 83
1, 811065, Note_on_c, 0, 77, 93
1, 811153, Poly_aftertouch_c, 0, 32, 127
1, 811175, Poly_aftertouch_c, 0, 34, 127
1, 811183, Control_c, 0, 64, 85
1, 811192, Note_off_c, 0, 29, 64
1, 811198, Control_c, 0, 64, 71
1, 811199, Note_on_c, 0, 41, 88
1, 811210, Note_on_c, 0, 84, 97
1, 811213, Control_c, 0, 64, 66
1, 811215, Note_on_c, 0, 80, 81
1, 811216, Note_on_c, 0, 72, 87
1, 811228, Poly_aftertouch_c, 0, 32, 0
1, 811228, Control_c, 0, 64, 73
1, 811232, Note_off_c, 0, 41, 61
1, 811238, Note_on_c, 0, 74, 60
1, 811240, Poly_aftertouch_c, 0, 34, 0
1, 811242, Control_c, 0, 64, 93
1, 811257, Control_c, 0, 64, 127
1, 811273, Note_off_c, 0, 74, 47
1, 811337, Note_on_c, 0, 49, 83
1, 811340, Note_off_c, 0, 77, 44
1, 811406, Note_off_c, 0, 49, 64
1, 811412, Note_off_c, 0, 84, 48
1, 811429, Note_on_c, 0, 61, 83
1, 811448, Note_off_c, 0, 61, 69
1, 811456, Note_off_c, 0, 72, 45
1, 811475, Note_off_c, 0, 80, 60
1, 811475, Poly_aftertouch_c, 0, 53, 127
1, 811484, Note_on_c, 0, 58, 33
1, 811490, Note_on_c, 0, 61, 91
1, 811535, Note_off_c, 0, 61, 63
1, 811544, Note_on_c, 0, 77, 88
1, 811590, Note_on_c, 0, 49, 81
1, 811602, Note_off_c, 0, 58, 61
1, 811618, Poly_aftertouch_c, 0, 53, 0
1, 811628, Note_off_c, 0, 49, 63
1, 811722, Note_on_c, 0, 41, 84
1, 811743, Note_on_c, 0, 82, 98
1, 811745, Note_on_c, 0, 78, 83
1, 811753, Note_on_c, 0, 73, 85
1, 811757, Note_on_c, 0, 70, 85
1, 811783, Control_c, 0, 64, 85
1, 811798, Control_c, 0, 64, 64
1, 811804, Note_off_c, 0, 41, 47
1, 811813, Control_c, 0, 64, 0
1, 811842, Control_c, 0, 64, 56
1, 811856, Note_on_c, 0, 29, 76
1, 811857, Control_c, 0, 64, 79
1, 811872, Control_c, 0, 64, 127
1, 811944, Note_off_c, 0, 77, 58
1, 811948, Note_off_c, 0, 29, 61
1, 811954, Note_on_c, 0, 41, 86
1, 811956, Note_off_c, 0, 78, 58
1, 811968, Note_off_c, 0, 82, 61
1, 811974, Note_off_c, 0, 73, 61
1, 811991, Note_off_c, 0, 41, 64
1, 812001, Note_off_c, 0, 70, 61
1, 812054, Note_on_c, 0, 73, 98
1, 812069, Note_on_c, 0, 49, 79
1, 812128, Note_off_c, 0, 49, 57
1, 812189, Note_on_c, 0, 80, 91
1, 812193, Note_on_c, 0, 70, 87
1, 812194, Note_on_c, 0, 61, 88
1, 812196, Note_on_c, 0, 77, 80
1, 812198, Note_on_c, 0, 68, 92
1, 812203, Note_on_c, 0, 58, 72
1, 812229, Control_c, 0, 64, 96
1, 812235, Note_on_c, 0, 53, 30
1, 812244, Control_c, 0, 64, 86
1, 812256, Note_off_c, 0, 61, 59
1, 812259, Control_c, 0, 64, 84
1, 812274, Control_c, 0, 64, 86
1, 812289, Control_c, 0, 64, 93
1, 812304, Control_c, 0, 64, 105
1, 812312, Note_on_c, 0, 49, 76
1, 812313, Note_off_c, 0, 58, 57
1, 812318, Control_c, 0, 64, 127
1, 812340, Note_off_c, 0, 53, 54
1, 812349, Note_off_c, 0, 49, 64
1, 812435, Note_on_c, 0, 41, 84
1, 812450, Note_off_c, 0, 73, 57
1, 812453, Note_off_c, 0, 70, 59
1, 812456, Note_off_c, 0, 77, 61
1, 812459, Note_off_c, 0, 68, 59
1, 812462, Note_off_c, 0, 80, 59
1, 812480, Note_off_c, 0, 41, 62
1, 812525, Note_on_c, 0, 73, 98
1, 812536, Note_on_c, 0, 29, 78
1, 812607, Control_c, 0, 64, 88
1, 812622, Control_c, 0, 64, 64
1, 812630, Note_off_c, 0, 29, 63
1, 812637, Control_c, 0, 64, 0
1, 812644, Note_on_c, 0, 41, 80
1, 812648, Note_on_c, 0, 78, 97
1, 812653, Note_on_c, 0, 66, 88
1, 812656, Note_on_c, 0, 70, 75
1, 812669, Note_off_c, 0, 41, 69
1, 812681, Control_c, 0, 64, 68
1, 812696, Control_c, 0, 64, 101
1, 812703, Note_on_c, 0, 75, 37
1, 812711, Control_c, 0, 64, 127
1, 812768, Note_on_c, 0, 49, 77
1, 812837, Note_off_c, 0, 66, 60
1, 812840, Note_off_c, 0, 49, 62
1, 812861, Note_off_c, 0, 73, 55
1, 812865, Note_off_c, 0, 78, 59
1, 812867, Note_off_c, 0, 70, 61
1, 812870, Note_on_c, 0, 61, 78
1, 812870, Note_off_c, 0, 75, 42
1, 812874, Note_on_c, 0, 53, 43
1, 812874, Note_on_c, 0, 58, 66
1, 812926, Note_off_c, 0, 61, 42
1, 812957, Note_on_c, 0, 73, 93
1, 812979, Note_off_c, 0, 58, 60
1, 812983, Note_on_c, 0, 49, 68
1, 812992, Note_off_c, 0, 53, 65
1, 813013, Note_off_c, 0, 49, 64
1, 813082, Note_on_c, 0, 77, 86
1, 813096, Note_on_c, 0, 65, 66
1, 813099, Note_on_c, 0, 70, 59
1, 813104, Note_off_c, 0, 73, 60
1, 813108, Note_on_c, 0, 43, 50
1, 813124, Note_off_c, 0, 65, 66
1, 813127, Note_off_c, 0, 70, 65
1, 813139, Note_on_c, 0, 41, 42
1, 813143, Note_off_c, 0, 77, 58
1, 813147, Note_off_c, 0, 43, 63
1, 813168, Note_off_c, 0, 41, 55
1, 813198, Note_on_c, 0, 31, 67
1, 813230, Note_off_c, 0, 31, 62
1, 813296, Control_c, 0, 64, 95
1, 813311, Control_c, 0, 64, 63
1, 813326, Control_c, 0, 64, 0
1, 813326, Note_on_c, 0, 73, 84
1, 813331, Note_on_c, 0, 71, 62
1, 813345, Note_on_c, 0, 68, 48
1, 813413, Note_on_c, 0, 67, 52
1, 813449, Note_off_c, 0, 67, 61
1, 813469, Note_on_c, 0, 66, 60
1, 813524, Note_off_c, 0, 66, 59
1, 813526, Note_off_c, 0, 71, 57
1, 813529, Note_on_c, 0, 70, 59
1, 813534, Note_off_c, 0, 68, 56
1, 813535, Note_on_c, 0, 67, 55
1, 813544, Note_off_c, 0, 73, 56
1, 813549, Note_on_c, 0, 65, 65
1, 813557, Note_off_c, 0, 67, 60
1, 813566, Note_off_c, 0, 70, 64
1, 813577, Note_off_c, 0, 65, 64
1, 813614, Note_on_c, 0, 64, 55
1, 813648, Note_off_c, 0, 64, 65
1, 813663, Note_on_c, 0, 61, 64
1, 813701, Note_off_c, 0, 61, 64
1, 813749, Note_on_c, 0, 53, 54
1, 813752, Note_on_c, 0, 82, 76
1, 813756, Control_c, 0, 64, 57
1, 813770, Control_c, 0, 64, 80
1, 813771, Note_off_c, 0, 82, 70
1, 813774, Note_off_c, 0, 53, 68
1, 813785, Control_c, 0, 64, 90
1, 813800, Control_c, 0, 64, 96
1, 813815, Control_c, 0, 64, 98
1, 813830, Control_c, 0, 64, 99
1, 813970, Control_c, 0, 64, 96
1, 813972, Note_on_c, 0, 73, 80
1, 813985, Control_c, 0, 64, 85
1, 813988, Note_on_c, 0, 70, 64
1, 813999, Note_on_c, 0, 67, 51
1, 814000, Control_c, 0, 64, 68
1, 814015, Control_c, 0, 64, 0
1, 814055, Note_off_c, 0, 67, 49
1, 814062, Note_on_c, 0, 66, 62
1, 814103, Note_off_c, 0, 66, 61
1, 814134, Note_on_c, 0, 65, 58
1, 814156, Note_off_c, 0, 65, 63
1, 814178, Note_on_c, 0, 69, 61
1, 814185, Note_on_c, 0, 64, 48
1, 814193, Note_on_c, 0, 66, 33
1, 814206, Note_off_c, 0, 69, 65
1, 814213, Note_off_c, 0, 73, 60
1, 814214, Note_off_c, 0, 70, 62
1, 814225, Note_off_c, 0, 66, 49
1, 814236, Note_off_c, 0, 64, 64
1, 814267, Note_on_c, 0, 62, 68
1, 814307, Note_off_c, 0, 62, 56
1, 814338, Note_on_c, 0, 61, 63
1, 814375, Note_off_c, 0, 61, 65
1, 814393, Note_on_c, 0, 81, 80
1, 814403, Note_on_c, 0, 53, 62
1, 814416, Control_c, 0, 64, 53
1, 814417, Note_off_c, 0, 81, 65
1, 814430, Note_off_c, 0, 53, 67
1, 814431, Control_c, 0, 64, 79
1, 814445, Control_c, 0, 64, 86
1, 814460, Control_c, 0, 64, 87
1, 814549, Control_c, 0, 64, 86
1, 814564, Control_c, 0, 64, 86
1, 814579, Control_c, 0, 64, 84
1, 814593, Control_c, 0, 64, 81
1, 814608, Control_c, 0, 64, 75
1, 814620, Note_on_c, 0, 73, 79
1, 814623, Control_c, 0, 64, 66
1, 814643, Note_on_c, 0, 69, 62
1, 814645, Control_c, 0, 64, 0
1, 814648, Note_on_c, 0, 66, 54
1, 814721, Note_on_c, 0, 65, 52
1, 814774, Note_off_c, 0, 65, 57
1, 814789, Note_on_c, 0, 64, 55
1, 814820, Note_off_c, 0, 64, 66
1, 814823, Note_on_c, 0, 63, 73
1, 814836, Note_on_c, 0, 68, 59
1, 814841, Note_off_c, 0, 66, 59
1, 814844, Note_on_c, 0, 65, 29
1, 814845, Note_off_c, 0, 69, 50
1, 814847, Note_off_c, 0, 63, 68
1, 814865, Note_off_c, 0, 73, 60
1, 814867, Note_off_c, 0, 68, 66
1, 814867, Control_c, 0, 64, 56
1, 814880, Note_off_c, 0, 65, 44
1, 814882, Control_c, 0, 64, 36
1, 814897, Control_c, 0, 64, 0
1, 814906, Note_on_c, 0, 62, 66
1, 814937, Note_off_c, 0, 62, 60
1, 814979, Note_on_c, 0, 61, 49
1, 815004, Note_off_c, 0, 61, 59
1, 815041, Note_on_c, 0, 80, 72
1, 815043, Note_on_c, 0, 53, 63
1, 815045, Control_c, 0, 64, 29
1, 815060, Control_c, 0, 64, 63
1, 815063, Note_off_c, 0, 80, 69
1, 815075, Control_c, 0, 64, 68
1, 815090, Note_off_c, 0, 53, 64
1, 815090, Control_c, 0, 64, 76
1, 815105, Control_c, 0, 64, 83
1, 815121, Control_c, 0, 64, 86
1, 815150, Control_c, 0, 64, 86
1, 815165, Control_c, 0, 64, 87
1, 815180, Control_c, 0, 64, 87
1, 815195, Control_c, 0, 64, 88
1, 815209, Control_c, 0, 64, 87
1, 815224, Control_c, 0, 64, 85
1, 815239, Control_c, 0, 64, 78
1, 815253, Control_c, 0, 64, 65
1, 815269, Control_c, 0, 64, 0
1, 815276, Note_on_c, 0, 73, 72
1, 815280, Note_on_c, 0, 65, 49
1, 815282, Note_on_c, 0, 68, 60
1, 815337, Note_on_c, 0, 62, 62
1, 815376, Note_off_c, 0, 62, 59
1, 815407, Note_on_c, 0, 61, 67
1, 815445, Note_off_c, 0, 61, 62
1, 815449, Note_off_c, 0, 65, 59
1, 815493, Note_on_c, 0, 67, 55
1, 815494, Note_on_c, 0, 60, 52
1, 815500, Note_on_c, 0, 64, 47
1, 815518, Note_off_c, 0, 60, 60
1, 815519, Note_off_c, 0, 73, 53
1, 815523, Note_off_c, 0, 68, 59
1, 815526, Note_off_c, 0, 64, 60
1, 815531, Note_on_c, 0, 58, 68
1, 815536, Note_off_c, 0, 67, 63
1, 815550, Note_off_c, 0, 58, 65
1, 815586, Note_on_c, 0, 59, 36
1, 815588, Control_c, 0, 64, 42
1, 815603, Control_c, 0, 64, 75
1, 815617, Control_c, 0, 64, 90
1, 815618, Note_off_c, 0, 59, 48
1, 815628, Note_on_c, 0, 49, 76
1, 815632, Control_c, 0, 64, 127
1, 815713, Note_off_c, 0, 49, 62
1, 815749, Note_on_c, 0, 79, 81
1, 815781, Note_off_c, 0, 79, 59
1, 816018, Control_c, 0, 64, 88
1, 816033, Control_c, 0, 64, 64
1, 816048, Control_c, 0, 64, 0
1, 816057, Note_on_c, 0, 54, 74
1, 816061, Note_on_c, 0, 42, 52
1, 816062, Note_on_c, 0, 30, 54
1, 816078, Control_c, 0, 64, 28
1, 816092, Control_c, 0, 64, 70
1, 816107, Control_c, 0, 64, 92
1, 816122, Control_c, 0, 64, 127
1, 816155, Note_off_c, 0, 30, 60
1, 816156, Note_off_c, 0, 54, 65
1, 816181, Note_off_c, 0, 42, 62
1, 816337, Note_on_c, 0, 49, 63
1, 816358, Note_on_c, 0, 73, 79
1, 816359, Note_on_c, 0, 85, 78
1, 816377, Note_off_c, 0, 73, 70
1, 816405, Note_off_c, 0, 85, 56
1, 816430, Note_off_c, 0, 49, 60
1, 816443, Note_on_c, 0, 82, 88
1, 816446, Note_on_c, 0, 70, 89
1, 816452, Note_on_c, 0, 58, 69
1, 816469, Note_on_c, 0, 76, 52
1, 816489, Note_off_c, 0, 82, 66
1, 816492, Note_off_c, 0, 76, 59
1, 816494, Note_off_c, 0, 70, 61
1, 816518, Note_on_c, 0, 61, 77
1, 816594, Note_off_c, 0, 58, 59
1, 816603, Note_on_c, 0, 64, 84
1, 816642, Note_off_c, 0, 61, 62
1, 816657, Note_on_c, 0, 67, 84
1, 816669, Note_on_c, 0, 75, 36
1, 816705, Note_off_c, 0, 75, 59
1, 816721, Note_on_c, 0, 70, 81
1, 816764, Note_off_c, 0, 67, 57
1, 816778, Note_on_c, 0, 73, 91
1, 816792, Note_off_c, 0, 70, 66
1, 816817, Note_off_c, 0, 64, 57
1, 816823, Note_off_c, 0, 73, 65
1, 816922, Control_c, 0, 64, 103
1, 816937, Control_c, 0, 64, 65
1, 816950, Note_on_c, 0, 67, 100
1, 816952, Control_c, 0, 64, 0
1, 816955, Note_on_c, 0, 55, 81
1, 816961, Note_on_c, 0, 79, 102
1, 816962, Note_on_c, 0, 91, 103
1, 816970, Poly_aftertouch_c, 0, 62, 0
1, 816995, Note_off_c, 0, 79, 64
1, 816996, Control_c, 0, 64, 75
1, 817000, Note_off_c, 0, 91, 67
1, 817011, Control_c, 0, 64, 127
1, 817114, Note_off_c, 0, 55, 58
1, 817149, Note_off_c, 0, 67, 64
1, 817226, Poly_aftertouch_c, 0, 76, 127
1, 817249, Note_on_c, 0, 64, 50
1, 817262, Note_on_c, 0, 72, 83
1, 817263, Note_on_c, 0, 70, 90
1, 817263, Note_on_c, 0, 84, 82
1, 817287, Note_off_c, 0, 84, 63
1, 817294, Note_off_c, 0, 70, 59
1, 817298, Note_on_c, 0, 60, 26
1, 817306, Note_off_c, 0, 72, 57
1, 817307, Note_off_c, 0, 64, 62
1, 817309, Note_on_c, 0, 59, 45
1, 817311, Poly_aftertouch_c, 0, 76, 0
1, 817330, Note_off_c, 0, 60, 59
1, 817338, Note_off_c, 0, 59, 55
1, 817497, Note_on_c, 0, 59, 79
1, 817498, Note_on_c, 0, 71, 87
1, 817504, Note_on_c, 0, 52, 74
1, 817506, Note_on_c, 0, 64, 83
1, 817517, Note_off_c, 0, 59, 70
1, 817531, Note_off_c, 0, 71, 63
1, 817534, Note_off_c, 0, 52, 67
1, 817549, Note_off_c, 0, 64, 64
1, 817715, Control_c, 0, 64, 98
1, 817730, Control_c, 0, 64, 68
1, 817744, Control_c, 0, 64, 0
1, 817746, Note_on_c, 0, 30, 71
1, 817750, Note_on_c, 0, 54, 80
1, 817752, Note_on_c, 0, 42, 81
1, 817762, Poly_aftertouch_c, 0, 34, 0
1, 817774, Control_c, 0, 64, 62
1, 817786, Note_off_c, 0, 54, 64
1, 817788, Note_off_c, 0, 30, 64
1, 817789, Control_c, 0, 64, 73
1, 817796, Note_off_c, 0, 42, 61
1, 817804, Control_c, 0, 64, 90
1, 817819, Control_c, 0, 64, 127
1, 817951, Note_on_c, 0, 73, 90
1, 817952, Note_on_c, 0, 49, 72
1, 817959, Note_on_c, 0, 64, 66
1, 817978, Note_off_c, 0, 64, 65
1, 817989, Note_on_c, 0, 58, 69
1, 818030, Note_on_c, 0, 70, 83
1, 818032, Note_on_c, 0, 67, 83
1, 818032, Note_off_c, 0, 49, 61
1, 818035, Note_off_c, 0, 73, 61
1, 818072, Note_on_c, 0, 61, 77
1, 818081, Note_off_c, 0, 58, 64
1, 818090, Note_off_c, 0, 67, 56
1, 818098, Note_off_c, 0, 61, 65
1, 818108, Note_on_c, 0, 64, 75
1, 818123, Note_off_c, 0, 70, 62
1, 818165, Note_off_c, 0, 64, 65
1, 818215, Note_on_c, 0, 62, 70
1, 818269, Note_on_c, 0, 61, 75
1, 818287, Note_off_c, 0, 62, 56
1, 818315, Note_on_c, 0, 58, 76
1, 818343, Note_off_c, 0, 61, 60
1, 818361, Note_on_c, 0, 55, 72
1, 818367, Note_off_c, 0, 58, 67
1, 818394, Note_off_c, 0, 55, 67
1, 818435, Control_c, 0, 64, 88
1, 818450, Control_c, 0, 64, 61
1, 818460, Note_on_c, 0, 64, 82
1, 818465, Control_c, 0, 64, 0
1, 818481, Note_on_c, 0, 52, 83
1, 818494, Note_on_c, 0, 40, 66
1, 818494, Control_c, 0, 64, 75
1, 818499, Note_off_c, 0, 64, 64
1, 818509, Control_c, 0, 64, 127
1, 818510, Note_off_c, 0, 52, 63
1, 818519, Note_off_c, 0, 40, 59
1, 818608, Note_on_c, 0, 60, 72
1, 818615, Note_on_c, 0, 48, 70
1, 818653, Note_off_c, 0, 48, 56
1, 818674, Note_on_c, 0, 59, 77
1, 818677, Note_on_c, 0, 47, 70
1, 818695, Note_off_c, 0, 60, 60
1, 818740, Note_on_c, 0, 58, 84
1, 818767, Note_off_c, 0, 59, 64
1, 818776, Note_off_c, 0, 47, 56
1, 818781, Note_on_c, 0, 46, 75
1, 818805, Note_on_c, 0, 55, 82
1, 818839, Note_off_c, 0, 58, 65
1, 818859, Note_off_c, 0, 46, 60
1, 818880, Note_on_c, 0, 52, 89
1, 818904, Note_off_c, 0, 55, 62
1, 818924, Note_off_c, 0, 52, 64
1, 818957, Note_on_c, 0, 48, 97
1, 819023, Note_off_c, 0, 48, 59
1, 819041, Note_on_c, 0, 47, 82
1, 819138, Note_on_c, 0, 46, 93
1, 819148, Note_off_c, 0, 47, 68
1, 819189, Note_off_c, 0, 46, 64
1, 819311, Note_on_c, 0, 42, 112
1, 819316, Control_c, 0, 64, 117
1, 819321, Note_on_c, 0, 30, 91
1, 819331, Control_c, 0, 64, 68
1, 819338, Note_on_c, 0, 37, 61
1, 819339, Note_off_c, 0, 37, 127
1, 819340, Note_on_c, 0, 41, 59
1, 819341, Note_off_c, 0, 41, 127
1, 819346, Control_c, 0, 64, 0
1, 819381, Note_off_c, 0, 30, 65
1, 819390, Control_c, 0, 64, 60
1, 819405, Control_c, 0, 64, 84
1, 819420, Control_c, 0, 64, 127
1, 819427, Poly_aftertouch_c, 0, 32, 127
1, 819477, Note_off_c, 0, 42, 61
1, 819480, Poly_aftertouch_c, 0, 32, 0
1, 819545, Note_on_c, 0, 78, 96
1, 819586, Note_on_c, 0, 50, 79
1, 819677, Note_off_c, 0, 50, 49
1, 819702, Poly_aftertouch_c, 0, 60, 0
1, 819723, Note_on_c, 0, 62, 83
1, 819727, Note_on_c, 0, 54, 61
1, 819727, Note_on_c, 0, 59, 64
1, 819795, Note_on_c, 0, 56, 9
1, 819801, Note_on_c, 0, 86, 95
1, 819802, Note_on_c, 0, 74, 97
1, 819807, Note_on_c, 0, 83, 86
1, 819844, Note_off_c, 0, 62, 54
1, 819892, Note_off_c, 0, 56, 0
1, 819913, Note_on_c, 0, 50, 78
1, 819919, Note_off_c, 0, 59, 59
1, 819930, Poly_aftertouch_c, 0, 56, 127
1, 819946, Note_off_c, 0, 54, 65
1, 819953, Note_off_c, 0, 86, 58
1, 819961, Note_off_c, 0, 50, 65
1, 819962, Note_off_c, 0, 78, 58
1, 819968, Poly_aftertouch_c, 0, 56, 0
1, 819970, Note_off_c, 0, 83, 62
1, 820030, Note_off_c, 0, 74, 50
1, 820031, Note_on_c, 0, 42, 87
1, 820096, Note_off_c, 0, 42, 63
1, 820129, Note_on_c, 0, 30, 89
1, 820147, Note_on_c, 0, 74, 88
1, 820150, Note_on_c, 0, 78, 91
1, 820191, Note_on_c, 0, 34, 18
1, 820251, Note_off_c, 0, 74, 60
1, 820257, Control_c, 0, 64, 92
1, 820272, Control_c, 0, 64, 78
1, 820275, Note_on_c, 0, 42, 95
1, 820276, Note_off_c, 0, 30, 62
1, 820284, Note_on_c, 0, 81, 85
1, 820286, Note_on_c, 0, 74, 69
1, 820287, Control_c, 0, 64, 72
1, 820292, Note_on_c, 0, 85, 94
1, 820293, Note_on_c, 0, 73, 101
1, 820296, Note_off_c, 0, 42, 73
1, 820302, Control_c, 0, 64, 82
1, 820316, Note_off_c, 0, 34, 44
1, 820317, Control_c, 0, 64, 127
1, 820403, Note_off_c, 0, 85, 62
1, 820408, Note_off_c, 0, 78, 24
1, 820415, Note_on_c, 0, 50, 75
1, 820418, Note_off_c, 0, 73, 58
1, 820423, Note_off_c, 0, 81, 59
1, 820453, Note_off_c, 0, 74, 0
1, 820466, Note_off_c, 0, 50, 63
1, 820490, Poly_aftertouch_c, 0, 74, 127
1, 820499, Note_on_c, 0, 59, 48
1, 820507, Note_on_c, 0, 62, 81
1, 820526, Note_on_c, 0, 54, 39
1, 820530, Poly_aftertouch_c, 0, 74, 0
1, 820567, Note_off_c, 0, 62, 64
1, 820608, Note_on_c, 0, 56, 50
1, 820611, Note_on_c, 0, 50, 75
1, 820615, Note_on_c, 0, 78, 95
1, 820627, Note_on_c, 0, 74, 85
1, 820632, Note_off_c, 0, 59, 60
1, 820644, Note_off_c, 0, 56, 65
1, 820660, Note_off_c, 0, 54, 57
1, 820662, Note_off_c, 0, 50, 66
1, 820746, Note_on_c, 0, 42, 84
1, 820747, Note_off_c, 0, 74, 0
1, 820761, Note_on_c, 0, 79, 89
1, 820763, Note_on_c, 0, 83, 95
1, 820764, Note_on_c, 0, 71, 98
1, 820784, Poly_aftertouch_c, 0, 74, 127
1, 820813, Note_off_c, 0, 42, 63
1, 820843, Control_c, 0, 64, 101
1, 820858, Control_c, 0, 64, 76
1, 820870, Note_on_c, 0, 30, 87
1, 820873, Control_c, 0, 64, 0
1, 820917, Control_c, 0, 64, 74
1, 820932, Control_c, 0, 64, 127
1, 820963, Note_on_c, 0, 42, 96
1, 820965, Note_off_c, 0, 30, 63
1, 820974, Note_off_c, 0, 83, 58
1, 820985, Poly_aftertouch_c, 0, 74, 0
1, 820988, Note_off_c, 0, 78, 61
1, 820989, Note_off_c, 0, 79, 58
1, 820990, Note_off_c, 0, 71, 60
1, 820991, Note_off_c, 0, 42, 68
1, 821080, Note_on_c, 0, 74, 90
1, 821084, Note_on_c, 0, 72, 78
1, 821093, Note_on_c, 0, 50, 79
1, 821150, Note_off_c, 0, 72, 55
1, 821150, Note_off_c, 0, 50, 62
1, 821150, Poly_aftertouch_c, 0, 71, 127
1, 821166, Note_off_c, 0, 74, 59
1, 821183, Poly_aftertouch_c, 0, 71, 0
1, 821196, Note_on_c, 0, 81, 95
1, 821198, Note_on_c, 0, 69, 91
1, 821199, Note_on_c, 0, 78, 89
1, 821201, Note_on_c, 0, 62, 90
1, 821202, Note_on_c, 0, 71, 57
1, 821203, Note_on_c, 0, 59, 54
1, 821207, Note_on_c, 0, 74, 52
1, 821214, Note_on_c, 0, 54, 72
1, 821235, Note_on_c, 0, 56, 55
1, 821246, Note_off_c, 0, 62, 61
1, 821250, Note_off_c, 0, 74, 49
1, 821310, Note_on_c, 0, 50, 81
1, 821313, Note_off_c, 0, 59, 55
1, 821341, Note_off_c, 0, 54, 66
1, 821342, Note_off_c, 0, 56, 56
1, 821344, Note_off_c, 0, 50, 65
1, 821416, Note_off_c, 0, 69, 53
1, 821432, Note_off_c, 0, 81, 51
1, 821442, Note_on_c, 0, 42, 96
1, 821442, Note_off_c, 0, 71, 60
1, 821464, Note_off_c, 0, 78, 59
1, 821497, Note_on_c, 0, 40, 22
1, 821497, Note_off_c, 0, 42, 64
1, 821533, Note_on_c, 0, 71, 92
1, 821535, Note_on_c, 0, 74, 94
1, 821537, Poly_aftertouch_c, 0, 41, 0
1, 821545, Note_off_c, 0, 40, 52
1, 821548, Note_on_c, 0, 30, 88
1, 821558, Note_on_c, 0, 34, 12
1, 821568, Poly_aftertouch_c, 0, 41, 0
1, 821579, Note_on_c, 0, 29, 56
1, 821592, Control_c, 0, 64, 100
1, 821607, Control_c, 0, 64, 75
1, 821613, Note_off_c, 0, 29, 59
1, 821622, Control_c, 0, 64, 58
1, 821624, Note_off_c, 0, 34, 42
1, 821637, Control_c, 0, 64, 64
1, 821651, Note_on_c, 0, 79, 98
1, 821652, Control_c, 0, 64, 78
1, 821652, Note_on_c, 0, 67, 100
1, 821654, Note_on_c, 0, 42, 97
1, 821657, Note_off_c, 0, 30, 63
1, 821667, Control_c, 0, 64, 104
1, 821682, Control_c, 0, 64, 127
1, 821682, Note_off_c, 0, 42, 68
1, 821773, Note_off_c, 0, 67, 52
1, 821781, Note_on_c, 0, 50, 87
1, 821783, Poly_aftertouch_c, 0, 76, 127
1, 821786, Note_off_c, 0, 74, 47
1, 821802, Note_off_c, 0, 79, 55
1, 821834, Poly_aftertouch_c, 0, 76, 0
1, 821837, Note_off_c, 0, 71, 53
1, 821859, Note_off_c, 0, 50, 61
1, 821869, Note_on_c, 0, 59, 44
1, 821884, Note_on_c, 0, 62, 91
1, 821901, Note_on_c, 0, 54, 64
1, 821932, Note_off_c, 0, 62, 60
1, 821969, Note_on_c, 0, 71, 72
1, 821972, Note_off_c, 0, 59, 56
1, 821974, Note_on_c, 0, 74, 80
1, 821987, Note_on_c, 0, 50, 81
1, 822022, Note_off_c, 0, 54, 66
1, 822028, Note_off_c, 0, 50, 67
1, 822048, Note_off_c, 0, 71, 60
1, 822093, Note_on_c, 0, 66, 105
1, 822093, Note_on_c, 0, 78, 91
1, 822098, Note_off_c, 0, 74, 31
1, 822100, Note_on_c, 0, 42, 102
1, 822132, Note_off_c, 0, 78, 69
1, 822138, Note_off_c, 0, 66, 63
1, 822172, Note_off_c, 0, 42, 63
1, 822207, Note_on_c, 0, 30, 82
1, 822234, Note_on_c, 0, 29, 58
1, 822248, Note_off_c, 0, 30, 51
1, 822253, Note_on_c, 0, 28, 25
1, 822272, Note_off_c, 0, 29, 56
1, 822302, Note_off_c, 0, 28, 45
1, 822386, Control_c, 0, 64, 92
1, 822400, Control_c, 0, 64, 0
1, 822425, Note_on_c, 0, 53, 104
1, 822429, Note_on_c, 0, 65, 93
1, 822430, Note_on_c, 0, 62, 84
1, 822430, Note_on_c, 0, 38, 107
1, 822433, Note_on_c, 0, 58, 85
1, 822436, Note_on_c, 0, 26, 84
1, 822449, Note_on_c, 0, 30, 67
1, 822467, Note_on_c, 0, 28, 45
1, 822467, Note_on_c, 0, 34, 37
1, 822468, Note_off_c, 0, 34, 127
1, 822472, Note_off_c, 0, 30, 61
1, 822475, Control_c, 0, 64, 78
1, 822490, Control_c, 0, 64, 127
1, 822496, Note_off_c, 0, 26, 59
1, 822497, Note_off_c, 0, 53, 64
1, 822519, Note_off_c, 0, 28, 50
1, 822520, Poly_aftertouch_c, 0, 34, 0
1, 822526, Poly_aftertouch_c, 0, 31, 0
1, 822528, Poly_aftertouch_c, 0, 32, 127
1, 822538, Note_off_c, 0, 58, 60
1, 822543, Note_off_c, 0, 62, 59
1, 822544, Note_off_c, 0, 38, 65
1, 822553, Note_off_c, 0, 65, 61
1, 822575, Poly_aftertouch_c, 0, 32, 0
1, 822578, Poly_aftertouch_c, 0, 31, 0
1, 822786, Note_on_c, 0, 46, 89
1, 822830, Note_on_c, 0, 77, 92
1, 822833, Note_on_c, 0, 74, 95
1, 822859, Note_off_c, 0, 46, 65
1, 822898, Note_off_c, 0, 74, 0
1, 822913, Note_on_c, 0, 86, 100
1, 822918, Note_on_c, 0, 82, 98
1, 822929, Note_on_c, 0, 76, 66
1, 822932, Note_on_c, 0, 62, 95
1, 822934, Poly_aftertouch_c, 0, 74, 127
1, 822945, Note_on_c, 0, 53, 60
1, 822950, Note_off_c, 0, 76, 56
1, 822953, Note_off_c, 0, 77, 63
1, 822963, Note_on_c, 0, 58, 65
1, 822970, Poly_aftertouch_c, 0, 74, 0
1, 822973, Note_off_c, 0, 62, 63
1, 822982, Note_on_c, 0, 54, 8
1, 822987, Note_off_c, 0, 86, 65
1, 823005, Note_off_c, 0, 82, 64
1, 823025, Note_off_c, 0, 54, 28
1, 823033, Note_off_c, 0, 58, 61
1, 823086, Note_on_c, 0, 46, 87
1, 823095, Note_off_c, 0, 53, 65
1, 823132, Note_off_c, 0, 46, 63
1, 823206, Note_on_c, 0, 38, 93
1, 823214, Note_on_c, 0, 36, 80
1, 823249, Note_off_c, 0, 36, 49
1, 823265, Note_off_c, 0, 38, 61
1, 823310, Note_on_c, 0, 26, 89
1, 823337, Note_on_c, 0, 65, 91
1, 823339, Note_on_c, 0, 77, 89
1, 823342, Note_on_c, 0, 74, 78
1, 823355, Note_off_c, 0, 65, 73
1, 823368, Note_off_c, 0, 74, 70
1, 823378, Note_on_c, 0, 75, 24
1, 823378, Note_off_c, 0, 77, 65
1, 823388, Poly_aftertouch_c, 0, 33, 127
1, 823389, Note_on_c, 0, 33, 2
1, 823401, Control_c, 0, 64, 107
1, 823414, Note_off_c, 0, 75, 54
1, 823416, Control_c, 0, 64, 76
1, 823418, Note_on_c, 0, 38, 107
1, 823431, Control_c, 0, 64, 68
1, 823434, Poly_aftertouch_c, 0, 28, 127
1, 823435, Note_off_c, 0, 33, 50
1, 823436, Note_on_c, 0, 72, 105
1, 823437, Note_off_c, 0, 26, 66
1, 823439, Note_on_c, 0, 84, 95
1, 823446, Control_c, 0, 64, 82
1, 823452, Note_on_c, 0, 76, 74
1, 823457, Note_on_c, 0, 82, 65
1, 823461, Control_c, 0, 64, 110
1, 823466, Note_off_c, 0, 72, 64
1, 823468, Note_off_c, 0, 76, 67
1, 823471, Note_off_c, 0, 38, 66
1, 823474, Note_off_c, 0, 82, 66
1, 823475, Control_c, 0, 64, 127
1, 823476, Note_off_c, 0, 84, 63
1, 823479, Poly_aftertouch_c, 0, 28, 0
1, 823540, Poly_aftertouch_c, 0, 86, 0
1, 823584, Note_on_c, 0, 46, 69
1, 823626, Note_off_c, 0, 46, 65
1, 823679, Poly_aftertouch_c, 0, 51, 127
1, 823697, Note_on_c, 0, 62, 89
1, 823703, Poly_aftertouch_c, 0, 74, 127
1, 823708, Note_on_c, 0, 58, 81
1, 823717, Poly_aftertouch_c, 0, 51, 0
1, 823725, Note_on_c, 0, 54, 32
1, 823730, Note_off_c, 0, 62, 56
1, 823730, Note_on_c, 0, 53, 54
1, 823748, Poly_aftertouch_c, 0, 74, 0
1, 823777, Note_off_c, 0, 58, 64
1, 823781, Note_off_c, 0, 54, 44
1, 823801, Note_off_c, 0, 53, 66
1, 823807, Note_on_c, 0, 65, 98
1, 823808, Note_on_c, 0, 77, 88
1, 823810, Note_on_c, 0, 47, 67
1, 823824, Note_off_c, 0, 65, 73
1, 823835, Note_off_c, 0, 47, 67
1, 823840, Note_on_c, 0, 75, 42
1, 823847, Note_off_c, 0, 77, 62
1, 823867, Note_off_c, 0, 75, 57
1, 823909, Note_on_c, 0, 70, 110
1, 823910, Note_on_c, 0, 38, 94
1, 823910, Note_on_c, 0, 82, 102
1, 823922, Poly_aftertouch_c, 0, 74, 0
1, 823928, Note_on_c, 0, 80, 68
1, 823945, Note_off_c, 0, 80, 46
1, 823962, Note_off_c, 0, 38, 61
1, 823992, Note_off_c, 0, 82, 63
1, 824023, Poly_aftertouch_c, 0, 78, 0
1, 824024, Note_on_c, 0, 26, 85
1, 824046, Note_off_c, 0, 70, 55
1, 824090, Control_c, 0, 64, 91
1, 824105, Control_c, 0, 64, 71
1, 824116, Note_on_c, 0, 38, 101
1, 824120, Control_c, 0, 64, 75
1, 824122, Note_on_c, 0, 28, 16
1, 824122, Note_off_c, 0, 26, 66
1, 824135, Control_c, 0, 64, 90
1, 824143, Poly_aftertouch_c, 0, 30, 0
1, 824150, Control_c, 0, 64, 127
1, 824161, Note_off_c, 0, 38, 67
1, 824170, Note_off_c, 0, 28, 41
1, 824240, Note_on_c, 0, 62, 91
1, 824240, Note_on_c, 0, 74, 97
1, 824242, Note_on_c, 0, 70, 60
1, 824259, Note_off_c, 0, 62, 71
1, 824267, Note_off_c, 0, 70, 66
1, 824277, Note_on_c, 0, 44, 37
1, 824279, Note_off_c, 0, 74, 64
1, 824281, Note_on_c, 0, 46, 57
1, 824303, Note_on_c, 0, 52, 27
1, 824309, Note_off_c, 0, 46, 56
1, 824311, Note_off_c, 0, 44, 57
1, 824348, Note_on_c, 0, 69, 105
1, 824350, Note_on_c, 0, 70, 92
1, 824350, Note_on_c, 0, 81, 98
1, 824353, Note_on_c, 0, 62, 96
1, 824362, Note_off_c, 0, 69, 76
1, 824375, Note_off_c, 0, 81, 60
1, 824376, Note_on_c, 0, 58, 74
1, 824377, Note_off_c, 0, 70, 70
1, 824384, Note_off_c, 0, 52, 0
1, 824384, Note_off_c, 0, 62, 62
1, 824392, Note_on_c, 0, 60, 41
1, 824393, Note_off_c, 0, 60, 127
1, 824400, Note_on_c, 0, 53, 42
1, 824402, Note_on_c, 0, 52, 31
1, 824445, Note_off_c, 0, 52, 43
1, 824445, Note_off_c, 0, 58, 62
1, 824469, Poly_aftertouch_c, 0, 79, 0
1, 824471, Note_on_c, 0, 46, 79
1, 824475, Note_off_c, 0, 53, 65
1, 824499, Note_off_c, 0, 46, 65
1, 824583, Note_on_c, 0, 38, 95
1, 824637, Note_off_c, 0, 38, 63
1, 824681, Note_on_c, 0, 26, 79
1, 824682, Note_on_c, 0, 62, 93
1, 824684, Note_on_c, 0, 74, 93
1, 824688, Note_on_c, 0, 70, 74
1, 824699, Note_off_c, 0, 62, 72
1, 824705, Note_on_c, 0, 28, 55
1, 824710, Note_off_c, 0, 70, 70
1, 824713, Poly_aftertouch_c, 0, 36, 0
1, 824714, Note_on_c, 0, 30, 45
1, 824719, Note_off_c, 0, 74, 63
1, 824722, Note_on_c, 0, 29, 46
1, 824736, Control_c, 0, 64, 76
1, 824749, Note_off_c, 0, 30, 56
1, 824751, Control_c, 0, 64, 0
1, 824758, Note_off_c, 0, 28, 0
1, 824758, Note_on_c, 0, 28, 19
1, 824768, Note_off_c, 0, 29, 55
1, 824773, Note_off_c, 0, 26, 64
1, 824774, Note_on_c, 0, 38, 100
1, 824775, Note_on_c, 0, 67, 108
1, 824781, Note_on_c, 0, 79, 91
1, 824781, Control_c, 0, 64, 64
1, 824784, Note_on_c, 0, 71, 86
1, 824785, Note_on_c, 0, 75, 85
1, 824791, Note_off_c, 0, 28, 57
1, 824795, Control_c, 0, 64, 113
1, 824804, Note_on_c, 0, 81, 55
1, 824805, Note_off_c, 0, 81, 127
1, 824810, Control_c, 0, 64, 127
1, 824819, Note_off_c, 0, 38, 59
1, 824848, Note_off_c, 0, 67, 48
1, 824866, Note_off_c, 0, 79, 48
1, 824912, Note_on_c, 0, 46, 77
1, 824914, Note_off_c, 0, 71, 38
1, 824943, Poly_aftertouch_c, 0, 67, 127
1, 824946, Note_on_c, 0, 67, 2
1, 824957, Note_off_c, 0, 46, 62
1, 824995, Poly_aftertouch_c, 0, 51, 127
1, 825003, Note_on_c, 0, 51, 10
1, 825017, Note_on_c, 0, 62, 88
1, 825030, Note_on_c, 0, 58, 77
1, 825037, Note_on_c, 0, 53, 49
1, 825038, Note_off_c, 0, 67, 42
1, 825038, Note_off_c, 0, 75, 42
1, 825040, Note_off_c, 0, 62, 64
1, 825059, Note_on_c, 0, 54, 20
1, 825064, Note_off_c, 0, 51, 47
1, 825079, Note_off_c, 0, 58, 64
1, 825101, Note_off_c, 0, 54, 56
1, 825106, Note_off_c, 0, 53, 64
1, 825157, Note_on_c, 0, 62, 90
1, 825162, Note_on_c, 0, 74, 90
1, 825163, Note_on_c, 0, 70, 77
1, 825179, Note_off_c, 0, 62, 63
1, 825187, Note_off_c, 0, 70, 67
1, 825193, Note_off_c, 0, 74, 64
1, 825207, Poly_aftertouch_c, 0, 45, 127
1, 825244, Note_on_c, 0, 38, 93
1, 825247, Poly_aftertouch_c, 0, 45, 0
1, 825255, Note_on_c, 0, 65, 102
1, 825257, Note_on_c, 0, 77, 95
1, 825262, Note_on_c, 0, 74, 90
1, 825262, Note_on_c, 0, 70, 85
1, 825316, Note_off_c, 0, 38, 60
1, 825378, Note_on_c, 0, 26, 81
1, 825493, Note_on_c, 0, 38, 97
1, 825508, Note_off_c, 0, 26, 62
1, 825509, Note_off_c, 0, 65, 53
1, 825527, Note_off_c, 0, 74, 60
1, 825531, Note_off_c, 0, 38, 65
1, 825534, Note_off_c, 0, 77, 54
1, 825540, Note_off_c, 0, 70, 55
1, 825574, Control_c, 0, 64, 88
1, 825588, Control_c, 0, 64, 64
1, 825603, Control_c, 0, 64, 0
1, 825741, Note_on_c, 0, 66, 68
1, 825743, Note_on_c, 0, 54, 39
1, 825767, Note_off_c, 0, 66, 66
1, 825792, Note_off_c, 0, 54, 53
1, 825795, Control_c, 0, 64, 76
1, 825810, Control_c, 0, 64, 103
1, 825813, Note_on_c, 0, 60, 28
1, 825820, Note_on_c, 0, 72, 53
1, 825822, Note_on_c, 0, 64, 50
1, 825825, Control_c, 0, 64, 105
1, 825834, Note_on_c, 0, 76, 60
1, 825840, Control_c, 0, 64, 83
1, 825848, Note_off_c, 0, 60, 64
1, 825854, Note_off_c, 0, 64, 66
1, 825855, Control_c, 0, 64, 56
1, 825856, Note_off_c, 0, 72, 64
1, 825877, Control_c, 0, 64, 0
1, 825907, Note_on_c, 0, 81, 71
1, 825920, Note_off_c, 0, 76, 61
1, 825944, Note_off_c, 0, 81, 58
1, 825994, Note_on_c, 0, 55, 34
1, 825999, Note_on_c, 0, 67, 61
1, 826025, Control_c, 0, 64, 62
1, 826029, Note_off_c, 0, 55, 45
1, 826040, Control_c, 0, 64, 89
1, 826042, Note_on_c, 0, 65, 49
1, 826049, Note_on_c, 0, 61, 38
1, 826049, Note_on_c, 0, 73, 60
1, 826052, Note_off_c, 0, 67, 51
1, 826055, Control_c, 0, 64, 109
1, 826067, Note_on_c, 0, 77, 54
1, 826070, Note_off_c, 0, 65, 57
1, 826070, Control_c, 0, 64, 111
1, 826082, Note_off_c, 0, 61, 62
1, 826085, Control_c, 0, 64, 90
1, 826099, Control_c, 0, 64, 70
1, 826105, Note_off_c, 0, 73, 52
1, 826114, Control_c, 0, 64, 0
1, 826130, Note_off_c, 0, 77, 63
1, 826135, Note_on_c, 0, 81, 68
1, 826192, Note_off_c, 0, 81, 62
1, 826207, Note_on_c, 0, 69, 70
1, 826230, Note_on_c, 0, 57, 32
1, 826233, Control_c, 0, 64, 32
1, 826248, Control_c, 0, 64, 70
1, 826249, Note_on_c, 0, 66, 62
1, 826258, Note_on_c, 0, 62, 41
1, 826260, Note_off_c, 0, 57, 54
1, 826263, Control_c, 0, 64, 76
1, 826265, Note_on_c, 0, 74, 63
1, 826266, Note_on_c, 0, 78, 69
1, 826267, Note_off_c, 0, 69, 60
1, 826277, Control_c, 0, 64, 80
1, 826284, Note_off_c, 0, 66, 59
1, 826293, Control_c, 0, 64, 83
1, 826296, Note_off_c, 0, 62, 60
1, 826308, Control_c, 0, 64, 84
1, 826323, Control_c, 0, 64, 86
1, 826344, Note_off_c, 0, 74, 57
1, 826351, Note_on_c, 0, 81, 69
1, 826353, Control_c, 0, 64, 86
1, 826362, Note_off_c, 0, 78, 52
1, 826367, Control_c, 0, 64, 78
1, 826382, Control_c, 0, 64, 58
1, 826397, Control_c, 0, 64, 0
1, 826407, Note_off_c, 0, 81, 61
1, 826410, Note_on_c, 0, 58, 64
1, 826415, Note_on_c, 0, 70, 71
1, 826469, Note_off_c, 0, 70, 64
1, 826470, Note_off_c, 0, 58, 63
1, 826471, Control_c, 0, 64, 59
1, 826472, Note_on_c, 0, 78, 77
1, 826479, Note_on_c, 0, 74, 59
1, 826481, Note_on_c, 0, 67, 72
1, 826486, Control_c, 0, 64, 69
1, 826490, Note_on_c, 0, 62, 60
1, 826500, Control_c, 0, 64, 77
1, 826513, Note_off_c, 0, 67, 60
1, 826515, Control_c, 0, 64, 91
1, 826530, Control_c, 0, 64, 127
1, 826535, Note_off_c, 0, 74, 59
1, 826547, Note_on_c, 0, 82, 78
1, 826563, Note_off_c, 0, 62, 55
1, 826576, Note_off_c, 0, 78, 61
1, 826589, Control_c, 0, 64, 119
1, 826600, Note_off_c, 0, 82, 66
1, 826604, Control_c, 0, 64, 82
1, 826608, Note_on_c, 0, 71, 86
1, 826626, Control_c, 0, 64, 63
1, 826631, Note_on_c, 0, 59, 64
1, 826641, Control_c, 0, 64, 0
1, 826657, Note_on_c, 0, 68, 85
1, 826660, Note_on_c, 0, 62, 56
1, 826671, Control_c, 0, 64, 67
1, 826673, Note_on_c, 0, 74, 77
1, 826678, Note_off_c, 0, 68, 66
1, 826684, Note_on_c, 0, 78, 86
1, 826686, Control_c, 0, 64, 91
1, 826692, Note_off_c, 0, 71, 65
1, 826700, Control_c, 0, 64, 127
1, 826713, Note_off_c, 0, 59, 61
1, 826717, Note_off_c, 0, 62, 60
1, 826746, Note_on_c, 0, 83, 79
1, 826767, Note_off_c, 0, 74, 50
1, 826810, Note_off_c, 0, 78, 57
1, 826833, Control_c, 0, 64, 89
1, 826846, Note_off_c, 0, 83, 57
1, 826848, Control_c, 0, 64, 62
1, 826863, Control_c, 0, 64, 0
1, 826920, Note_on_c, 0, 47, 67
1, 826937, Control_c, 0, 64, 48
1, 826952, Control_c, 0, 64, 75
1, 826957, Note_on_c, 0, 40, 20
1, 826967, Control_c, 0, 64, 95
1, 826970, Note_off_c, 0, 47, 63
1, 826982, Control_c, 0, 64, 116
1, 826997, Control_c, 0, 64, 116
1, 827001, Note_off_c, 0, 40, 52
1, 827056, Control_c, 0, 64, 117
1, 827071, Control_c, 0, 64, 119
1, 827103, Note_on_c, 0, 67, 65
1, 827116, Control_c, 0, 64, 115
1, 827129, Note_on_c, 0, 55, 57
1, 827131, Control_c, 0, 64, 101
1, 827144, Note_off_c, 0, 67, 58
1, 827146, Control_c, 0, 64, 83
1, 827161, Control_c, 0, 64, 68
1, 827164, Note_on_c, 0, 74, 54
1, 827170, Note_off_c, 0, 55, 52
1, 827175, Control_c, 0, 64, 43
1, 827177, Note_on_c, 0, 78, 66
1, 827190, Control_c, 0, 64, 0
1, 827204, Note_off_c, 0, 74, 64
1, 827205, Control_c, 0, 64, 52
1, 827206, Note_on_c, 0, 62, 47
1, 827217, Note_on_c, 0, 66, 61
1, 827220, Control_c, 0, 64, 64
1, 827235, Control_c, 0, 64, 71
1, 827240, Note_off_c, 0, 62, 62
1, 827245, Note_off_c, 0, 66, 65
1, 827249, Control_c, 0, 64, 77
1, 827256, Note_on_c, 0, 83, 69
1, 827262, Note_off_c, 0, 78, 62
1, 827264, Control_c, 0, 64, 84
1, 827279, Control_c, 0, 64, 88
1, 827283, Note_off_c, 0, 83, 62
1, 827294, Control_c, 0, 64, 88
1, 827309, Control_c, 0, 64, 83
1, 827323, Control_c, 0, 64, 73
1, 827326, Note_on_c, 0, 69, 73
1, 827338, Control_c, 0, 64, 52
1, 827348, Note_on_c, 0, 57, 65
1, 827353, Control_c, 0, 64, 0
1, 827390, Control_c, 0, 64, 50
1, 827396, Note_off_c, 0, 69, 54
1, 827399, Note_on_c, 0, 75, 72
1, 827405, Control_c, 0, 64, 66
1, 827405, Note_on_c, 0, 79, 73
1, 827415, Note_on_c, 0, 67, 74
1, 827420, Control_c, 0, 64, 79
1, 827423, Note_off_c, 0, 57, 59
1, 827427, Note_on_c, 0, 63, 64
1, 827435, Control_c, 0, 64, 127
1, 827438, Note_off_c, 0, 67, 68
1, 827456, Note_off_c, 0, 63, 66
1, 827459, Note_off_c, 0, 75, 62
1, 827477, Note_on_c, 0, 83, 79
1, 827485, Note_off_c, 0, 79, 61
1, 827494, Control_c, 0, 64, 120
1, 827509, Control_c, 0, 64, 83
1, 827523, Control_c, 0, 64, 58
1, 827532, Note_on_c, 0, 71, 81
1, 827536, Note_off_c, 0, 83, 65
1, 827538, Control_c, 0, 64, 0
1, 827558, Note_on_c, 0, 59, 82
1, 827582, Control_c, 0, 64, 70
1, 827597, Control_c, 0, 64, 87
1, 827606, Note_on_c, 0, 76, 74
1, 827608, Note_on_c, 0, 80, 74
1, 827612, Control_c, 0, 64, 127
1, 827620, Note_off_c, 0, 71, 60
1, 827626, Note_off_c, 0, 59, 60
1, 827629, Note_on_c, 0, 64, 69
1, 827629, Note_on_c, 0, 68, 89
1, 827649, Note_off_c, 0, 68, 66
1, 827660, Note_off_c, 0, 64, 65
1, 827669, Note_on_c, 0, 78, 29
1, 827682, Note_on_c, 0, 83, 77
1, 827686, Control_c, 0, 64, 101
1, 827701, Control_c, 0, 64, 72
1, 827703, Note_off_c, 0, 76, 58
1, 827703, Note_off_c, 0, 78, 49
1, 827715, Control_c, 0, 64, 0
1, 827725, Note_off_c, 0, 80, 54
1, 827756, Note_on_c, 0, 60, 74
1, 827760, Control_c, 0, 64, 55
1, 827764, Note_on_c, 0, 72, 86
1, 827775, Control_c, 0, 64, 80
1, 827783, Note_off_c, 0, 83, 64
1, 827790, Control_c, 0, 64, 110
1, 827805, Control_c, 0, 64, 127
1, 827819, Note_on_c, 0, 69, 92
1, 827827, Note_on_c, 0, 76, 76
1, 827831, Note_off_c, 0, 60, 66
1, 827833, Note_on_c, 0, 63, 38
1, 827834, Note_on_c, 0, 64, 71
1, 827834, Note_on_c, 0, 79, 80
1, 827843, Note_off_c, 0, 72, 64
1, 827858, Note_off_c, 0, 69, 62
1, 827864, Note_on_c, 0, 65, 41
1, 827873, Note_off_c, 0, 63, 60
1, 827879, Control_c, 0, 64, 105
1, 827894, Note_off_c, 0, 65, 55
1, 827894, Control_c, 0, 64, 78
1, 827903, Note_on_c, 0, 84, 77
1, 827909, Control_c, 0, 64, 45
1, 827924, Control_c, 0, 64, 0
1, 827930, Note_off_c, 0, 76, 58
1, 827936, Note_off_c, 0, 79, 58
1, 827939, Control_c, 0, 64, 43
1, 827954, Control_c, 0, 64, 68
1, 827958, Note_on_c, 0, 61, 75
1, 827965, Note_off_c, 0, 84, 65
1, 827967, Note_off_c, 0, 64, 47
1, 827969, Control_c, 0, 64, 83
1, 827979, Note_on_c, 0, 73, 93
1, 827983, Control_c, 0, 64, 123
1, 827998, Control_c, 0, 64, 127
1, 828037, Note_on_c, 0, 70, 100
1, 828043, Note_on_c, 0, 64, 61
1, 828046, Note_on_c, 0, 76, 80
1, 828047, Note_on_c, 0, 79, 79
1, 828060, Note_off_c, 0, 73, 63
1, 828079, Note_off_c, 0, 70, 64
1, 828086, Note_off_c, 0, 61, 61
1, 828119, Note_off_c, 0, 64, 65
1, 828155, Note_on_c, 0, 85, 89
1, 828162, Note_off_c, 0, 76, 60
1, 828181, Note_off_c, 0, 79, 61
1, 828208, Note_off_c, 0, 85, 64
1, 828317, Control_c, 0, 64, 99
1, 828332, Control_c, 0, 64, 73
1, 828346, Control_c, 0, 64, 0
1, 828404, Note_on_c, 0, 30, 54
1, 828450, Control_c, 0, 64, 59
1, 828464, Control_c, 0, 64, 70
1, 828475, Note_off_c, 0, 30, 45
1, 828479, Control_c, 0, 64, 91
1, 828494, Control_c, 0, 64, 127
1, 828581, Note_on_c, 0, 61, 55
1, 828615, Note_off_c, 0, 61, 60
1, 828616, Note_on_c, 0, 49, 23
1, 828659, Note_off_c, 0, 49, 54
1, 828667, Note_on_c, 0, 57, 67
1, 828688, Note_on_c, 0, 73, 84
1, 828694, Note_on_c, 0, 69, 64
1, 828696, Note_off_c, 0, 57, 65
1, 828741, Note_on_c, 0, 49, 76
1, 828794, Note_on_c, 0, 42, 65
1, 828806, Note_on_c, 0, 61, 76
1, 828812, Note_off_c, 0, 49, 63
1, 828847, Note_off_c, 0, 69, 59
1, 828851, Note_off_c, 0, 42, 63
1, 828865, Note_off_c, 0, 61, 61
1, 828865, Note_off_c, 0, 73, 58
1, 828884, Poly_aftertouch_c, 0, 47, 127
1, 828899, Poly_aftertouch_c, 0, 70, 0
1, 828909, Note_on_c, 0, 58, 87
1, 828915, Note_on_c, 0, 70, 47
1, 828917, Poly_aftertouch_c, 0, 41, 0
1, 828919, Poly_aftertouch_c, 0, 47, 0
1, 828921, Note_on_c, 0, 74, 88
1, 828938, Note_on_c, 0, 50, 45
1, 828946, Note_off_c, 0, 58, 63
1, 829018, Note_on_c, 0, 43, 75
1, 829023, Note_off_c, 0, 74, 57
1, 829038, Note_off_c, 0, 50, 65
1, 829039, Note_on_c, 0, 62, 68
1, 829054, Note_off_c, 0, 43, 66
1, 829065, Control_c, 0, 64, 117
1, 829080, Control_c, 0, 64, 69
1, 829095, Control_c, 0, 64, 0
1, 829110, Note_off_c, 0, 62, 56
1, 829122, Note_off_c, 0, 70, 36
1, 829159, Note_on_c, 0, 43, 85
1, 829164, Note_on_c, 0, 31, 70
1, 829190, Note_off_c, 0, 43, 67
1, 829196, Note_off_c, 0, 31, 63
1, 829213, Control_c, 0, 64, 90
1, 829228, Control_c, 0, 64, 127
1, 829304, Note_on_c, 0, 62, 70
1, 829307, Note_on_c, 0, 49, 76
1, 829358, Note_off_c, 0, 62, 54
1, 829387, Note_on_c, 0, 70, 79
1, 829387, Note_on_c, 0, 74, 87
1, 829393, Note_on_c, 0, 58, 75
1, 829409, Note_on_c, 0, 56, 36
1, 829416, Note_off_c, 0, 58, 69
1, 829432, Note_off_c, 0, 49, 57
1, 829443, Note_off_c, 0, 56, 55
1, 829459, Note_on_c, 0, 50, 71
1, 829491, Note_on_c, 0, 62, 78
1, 829500, Note_off_c, 0, 74, 46
1, 829501, Note_on_c, 0, 43, 83
1, 829529, Note_off_c, 0, 70, 62
1, 829536, Note_off_c, 0, 62, 58
1, 829538, Note_off_c, 0, 50, 63
1, 829554, Note_on_c, 0, 48, 32
1, 829557, Note_off_c, 0, 43, 65
1, 829572, Poly_aftertouch_c, 0, 47, 127
1, 829591, Note_off_c, 0, 48, 44
1, 829599, Note_on_c, 0, 59, 90
1, 829608, Note_on_c, 0, 75, 92
1, 829625, Note_on_c, 0, 71, 71
1, 829627, Poly_aftertouch_c, 0, 47, 0
1, 829655, Note_off_c, 0, 59, 61
1, 829661, Note_on_c, 0, 51, 61
1, 829736, Note_on_c, 0, 63, 76
1, 829745, Note_on_c, 0, 44, 65
1, 829749, Note_off_c, 0, 51, 65
1, 829763, Note_on_c, 0, 43, 59
1, 829772, Note_off_c, 0, 44, 65
1, 829794, Note_off_c, 0, 43, 56
1, 829826, Poly_aftertouch_c, 0, 73, 0
1, 829844, Control_c, 0, 64, 84
1, 829848, Note_off_c, 0, 63, 58
1, 829858, Control_c, 0, 64, 0
1, 829871, Note_off_c, 0, 75, 55
1, 829874, Note_on_c, 0, 44, 90
1, 829882, Note_on_c, 0, 32, 81
1, 829888, Note_off_c, 0, 71, 55
1, 829930, Note_off_c, 0, 44, 66
1, 829938, Note_off_c, 0, 32, 62
1, 829962, Control_c, 0, 64, 63
1, 829977, Control_c, 0, 64, 104
1, 829992, Control_c, 0, 64, 127
1, 830048, Note_on_c, 0, 63, 86
1, 830095, Note_off_c, 0, 63, 60
1, 830102, Note_on_c, 0, 52, 73
1, 830210, Note_on_c, 0, 62, 72
1, 830234, Note_on_c, 0, 75, 91
1, 830258, Note_on_c, 0, 71, 54
1, 830348, Note_on_c, 0, 61, 66
1, 830388, Note_off_c, 0, 62, 53
1, 830411, Note_on_c, 0, 63, 67
1, 830437, Note_off_c, 0, 63, 69
1, 830454, Note_off_c, 0, 52, 50
1, 830462, Note_off_c, 0, 61, 63
1, 830462, Note_off_c, 0, 75, 59
1, 830481, Note_on_c, 0, 60, 81
1, 830486, Note_off_c, 0, 71, 58
1, 830544, Note_on_c, 0, 76, 91
1, 830550, Note_on_c, 0, 71, 75
1, 830551, Note_on_c, 0, 59, 74
1, 830553, Note_off_c, 0, 60, 59
1, 830622, Note_on_c, 0, 58, 82
1, 830634, Note_off_c, 0, 59, 62
1, 830662, Note_on_c, 0, 64, 75
1, 830688, Note_off_c, 0, 58, 64
1, 830692, Note_off_c, 0, 64, 64
1, 830703, Note_on_c, 0, 57, 77
1, 830708, Note_off_c, 0, 76, 59
1, 830727, Note_off_c, 0, 71, 60
1, 830761, Note_off_c, 0, 57, 61
1, 830771, Control_c, 0, 64, 90
1, 830785, Control_c, 0, 64, 73
1, 830785, Note_on_c, 0, 76, 84
1, 830787, Note_on_c, 0, 56, 75
1, 830800, Control_c, 0, 64, 67
1, 830815, Note_on_c, 0, 72, 44
1, 830815, Control_c, 0, 64, 70
1, 830827, Note_on_c, 0, 71, 34
1, 830830, Control_c, 0, 64, 77
1, 830839, Note_off_c, 0, 72, 60
1, 830845, Control_c, 0, 64, 83
1, 830849, Note_off_c, 0, 56, 61
1, 830859, Control_c, 0, 64, 92
1, 830874, Control_c, 0, 64, 103
1, 830875, Note_on_c, 0, 55, 64
1, 830889, Control_c, 0, 64, 117
1, 830892, Note_on_c, 0, 64, 67
1, 830904, Control_c, 0, 64, 121
1, 830913, Note_off_c, 0, 55, 61
1, 830918, Control_c, 0, 64, 116
1, 830923, Note_off_c, 0, 64, 63
1, 830929, Note_off_c, 0, 76, 60
1, 830933, Control_c, 0, 64, 104
1, 830937, Note_off_c, 0, 71, 39
1, 830948, Control_c, 0, 64, 90
1, 830957, Note_on_c, 0, 54, 58
1, 830963, Control_c, 0, 64, 78
1, 830978, Control_c, 0, 64, 71
1, 830993, Control_c, 0, 64, 72
1, 831008, Control_c, 0, 64, 77
1, 831009, Note_on_c, 0, 77, 78
1, 831014, Note_off_c, 0, 54, 62
1, 831016, Note_on_c, 0, 73, 61
1, 831023, Control_c, 0, 64, 83
1, 831038, Control_c, 0, 64, 88
1, 831039, Note_on_c, 0, 53, 63
1, 831053, Control_c, 0, 64, 90
1, 831067, Control_c, 0, 64, 92
1, 831083, Control_c, 0, 64, 93
1, 831087, Note_off_c, 0, 53, 55
1, 831116, Note_on_c, 0, 65, 58
1, 831131, Note_off_c, 0, 77, 50
1, 831135, Control_c, 0, 64, 95
1, 831137, Note_on_c, 0, 52, 45
1, 831150, Control_c, 0, 64, 103
1, 831157, Note_off_c, 0, 65, 62
1, 831164, Control_c, 0, 64, 106
1, 831174, Note_off_c, 0, 52, 57
1, 831176, Note_on_c, 0, 51, 56
1, 831179, Control_c, 0, 64, 105
1, 831194, Control_c, 0, 64, 94
1, 831197, Note_off_c, 0, 73, 55
1, 831209, Control_c, 0, 64, 77
1, 831224, Control_c, 0, 64, 40
1, 831239, Control_c, 0, 64, 0
1, 831242, Note_on_c, 0, 45, 49
1, 831248, Note_off_c, 0, 51, 62
1, 831272, Note_on_c, 0, 78, 66
1, 831286, Note_on_c, 0, 50, 47
1, 831289, Note_on_c, 0, 66, 49
1, 831298, Control_c, 0, 64, 66
1, 831313, Control_c, 0, 64, 78
1, 831313, Note_off_c, 0, 66, 59
1, 831328, Control_c, 0, 64, 94
1, 831343, Control_c, 0, 64, 109
1, 831355, Note_off_c, 0, 78, 62
1, 831392, Note_off_c, 0, 50, 59
1, 831418, Note_on_c, 0, 54, 48
1, 831444, Note_off_c, 0, 45, 42
1, 831454, Note_on_c, 0, 71, 47
1, 831464, Note_off_c, 0, 54, 62
1, 831470, Note_on_c, 0, 74, 54
1, 831486, Note_on_c, 0, 57, 54
1, 831486, Note_off_c, 0, 71, 66
1, 831503, Note_off_c, 0, 74, 66
1, 831516, Note_off_c, 0, 57, 62
1, 831608, Control_c, 0, 64, 107
1, 831623, Control_c, 0, 64, 86
1, 831638, Control_c, 0, 64, 51
1, 831653, Control_c, 0, 64, 0
1, 831659, Note_on_c, 0, 62, 46
1, 831659, Note_on_c, 0, 79, 64
1, 831665, Note_on_c, 0, 74, 58
1, 831680, Note_off_c, 0, 79, 63
1, 831685, Note_off_c, 0, 74, 63
1, 831802, Note_on_c, 0, 73, 63
1, 831802, Note_on_c, 0, 76, 58
1, 831822, Note_off_c, 0, 73, 65
1, 831832, Note_off_c, 0, 76, 65
1, 831874, Note_off_c, 0, 62, 54
1, 831895, Note_on_c, 0, 64, 41
1, 831933, Note_on_c, 0, 81, 81
1, 831941, Note_on_c, 0, 76, 64
1, 831951, Note_on_c, 0, 66, 53
1, 831961, Note_off_c, 0, 76, 64
1, 831961, Note_off_c, 0, 81, 58
1, 831963, Note_off_c, 0, 64, 56
1, 832028, Note_off_c, 0, 66, 49
1, 832052, Note_on_c, 0, 69, 60
1, 832066, Note_on_c, 0, 78, 69
1, 832075, Note_on_c, 0, 74, 58
1, 832081, Note_off_c, 0, 69, 64
1, 832085, Poly_aftertouch_c, 0, 67, 127
1, 832090, Note_off_c, 0, 78, 69
1, 832097, Note_off_c, 0, 74, 62
1, 832122, Poly_aftertouch_c, 0, 67, 0
1, 832168, Note_on_c, 0, 82, 88
1, 832173, Note_on_c, 0, 70, 60
1, 832181, Note_on_c, 0, 78, 71
1, 832183, Note_on_c, 0, 61, 52
1, 832190, Note_on_c, 0, 64, 29
1, 832193, Control_c, 0, 64, 71
1, 832194, Note_off_c, 0, 70, 60
1, 832207, Note_off_c, 0, 78, 66
1, 832207, Note_off_c, 0, 61, 59
1, 832208, Control_c, 0, 64, 82
1, 832219, Note_off_c, 0, 82, 64
1, 832223, Control_c, 0, 64, 80
1, 832231, Note_off_c, 0, 64, 42
1, 832237, Control_c, 0, 64, 71
1, 832252, Control_c, 0, 64, 59
1, 832267, Control_c, 0, 64, 0
1, 832281, Note_on_c, 0, 79, 64
1, 832300, Note_on_c, 0, 76, 62
1, 832306, Note_off_c, 0, 79, 66
1, 832321, Note_off_c, 0, 76, 64
1, 832401, Note_on_c, 0, 76, 83
1, 832403, Note_on_c, 0, 45, 57
1, 832408, Note_on_c, 0, 73, 78
1, 832430, Note_off_c, 0, 73, 71
1, 832431, Control_c, 0, 64, 79
1, 832445, Note_on_c, 0, 52, 54
1, 832445, Note_off_c, 0, 76, 61
1, 832445, Control_c, 0, 64, 100
1, 832460, Control_c, 0, 64, 117
1, 832475, Control_c, 0, 64, 113
1, 832480, Note_off_c, 0, 45, 61
1, 832490, Control_c, 0, 64, 108
1, 832501, Note_off_c, 0, 52, 54
1, 832504, Control_c, 0, 64, 104
1, 832519, Control_c, 0, 64, 98
1, 832527, Note_on_c, 0, 55, 46
1, 832534, Control_c, 0, 64, 87
1, 832549, Control_c, 0, 64, 70
1, 832553, Note_off_c, 0, 55, 62
1, 832563, Control_c, 0, 64, 0
1, 832574, Note_on_c, 0, 78, 67
1, 832589, Note_on_c, 0, 74, 37
1, 832596, Note_off_c, 0, 78, 67
1, 832630, Note_off_c, 0, 74, 33
1, 832637, Note_on_c, 0, 58, 61
1, 832645, Note_on_c, 0, 79, 81
1, 832657, Note_on_c, 0, 75, 74
1, 832679, Note_off_c, 0, 75, 68
1, 832691, Note_off_c, 0, 79, 60
1, 832704, Note_on_c, 0, 61, 49
1, 832716, Note_off_c, 0, 58, 58
1, 832772, Note_on_c, 0, 74, 73
1, 832773, Note_on_c, 0, 76, 66
1, 832774, Note_off_c, 0, 61, 61
1, 832795, Note_off_c, 0, 74, 69
1, 832798, Note_off_c, 0, 76, 66
1, 832880, Note_on_c, 0, 81, 91
1, 832883, Note_on_c, 0, 69, 76
1, 832883, Control_c, 0, 64, 11
1, 832884, Note_on_c, 0, 77, 78
1, 832887, Note_on_c, 0, 60, 70
1, 832890, Note_on_c, 0, 63, 64
1, 832898, Control_c, 0, 64, 91
1, 832905, Note_off_c, 0, 69, 68
1, 832913, Note_on_c, 0, 76, 32
1, 832913, Control_c, 0, 64, 127
1, 832914, Note_off_c, 0, 60, 67
1, 832914, Note_off_c, 0, 63, 64
1, 832914, Note_off_c, 0, 77, 62
1, 832915, Note_off_c, 0, 81, 62
1, 832945, Note_off_c, 0, 76, 56
1, 832991, Note_on_c, 0, 78, 76
1, 833006, Note_on_c, 0, 75, 67
1, 833030, Note_off_c, 0, 75, 69
1, 833041, Note_off_c, 0, 78, 62
1, 833046, Control_c, 0, 64, 108
1, 833060, Control_c, 0, 64, 86
1, 833075, Control_c, 0, 64, 57
1, 833090, Control_c, 0, 64, 0
1, 833120, Note_on_c, 0, 67, 65
1, 833138, Note_off_c, 0, 67, 64
1, 833145, Note_on_c, 0, 70, 20
1, 833154, Note_on_c, 0, 71, 20
1, 833164, Note_off_c, 0, 70, 37
1, 833191, Note_off_c, 0, 71, 45
1, 833203, Poly_aftertouch_c, 0, 45, 127
1, 833207, Poly_aftertouch_c, 0, 47, 127
1, 833234, Poly_aftertouch_c, 0, 45, 0
1, 833236, Note_on_c, 0, 73, 76
1, 833245, Note_on_c, 0, 55, 60
1, 833246, Poly_aftertouch_c, 0, 47, 0
1, 833249, Note_on_c, 0, 76, 61
1, 833260, Note_off_c, 0, 73, 68
1, 833269, Note_off_c, 0, 76, 65
1, 833273, Note_off_c, 0, 55, 65
1, 833342, Note_on_c, 0, 78, 78
1, 833349, Note_on_c, 0, 74, 76
1, 833351, Note_on_c, 0, 58, 70
1, 833379, Note_off_c, 0, 74, 71
1, 833382, Note_off_c, 0, 78, 63
1, 833427, Note_off_c, 0, 58, 53
1, 833430, Note_on_c, 0, 61, 50
1, 833466, Note_on_c, 0, 79, 85
1, 833471, Note_on_c, 0, 76, 74
1, 833473, Note_on_c, 0, 67, 64
1, 833482, Note_off_c, 0, 61, 59
1, 833495, Note_off_c, 0, 76, 68
1, 833501, Note_off_c, 0, 67, 65
1, 833511, Note_off_c, 0, 79, 60
1, 833569, Note_on_c, 0, 66, 80
1, 833573, Control_c, 0, 64, 82
1, 833573, Note_on_c, 0, 62, 65
1, 833574, Note_on_c, 0, 81, 91
1, 833577, Note_on_c, 0, 57, 46
1, 833587, Note_on_c, 0, 74, 76
1, 833588, Control_c, 0, 64, 127
1, 833588, Note_off_c, 0, 66, 71
1, 833603, Note_off_c, 0, 62, 62
1, 833608, Note_off_c, 0, 57, 64
1, 833615, Note_on_c, 0, 79, 60
1, 833653, Note_off_c, 0, 74, 61
1, 833686, Note_on_c, 0, 69, 73
1, 833687, Note_off_c, 0, 79, 0
1, 833709, Note_off_c, 0, 81, 60
1, 833710, Note_on_c, 0, 46, 80
1, 833716, Note_off_c, 0, 69, 60
1, 833725, Poly_aftertouch_c, 0, 79, 127
1, 833733, Poly_aftertouch_c, 0, 78, 0
1, 833742, Note_on_c, 0, 53, 46
1, 833743, Note_off_c, 0, 46, 65
1, 833765, Control_c, 0, 64, 106
1, 833772, Poly_aftertouch_c, 0, 79, 0
1, 833775, Note_off_c, 0, 53, 56
1, 833780, Control_c, 0, 64, 73
1, 833795, Control_c, 0, 64, 0
1, 833799, Note_on_c, 0, 62, 81
1, 833802, Note_on_c, 0, 56, 65
1, 833806, Note_on_c, 0, 82, 83
1, 833808, Note_on_c, 0, 70, 78
1, 833819, Note_off_c, 0, 62, 69
1, 833820, Note_on_c, 0, 74, 26
1, 833822, Note_off_c, 0, 70, 70
1, 833828, Note_off_c, 0, 56, 66
1, 833841, Note_on_c, 0, 80, 13
1, 833847, Note_off_c, 0, 82, 64
1, 833856, Note_off_c, 0, 80, 37
1, 833862, Note_off_c, 0, 74, 38
1, 833930, Note_on_c, 0, 83, 90
1, 833933, Note_on_c, 0, 78, 89
1, 833933, Note_on_c, 0, 80, 87
1, 833935, Note_on_c, 0, 71, 101
1, 833938, Note_on_c, 0, 66, 88
1, 833940, Note_on_c, 0, 68, 81
1, 833942, Control_c, 0, 64, 78
1, 833957, Control_c, 0, 64, 127
1, 833979, Note_off_c, 0, 71, 59
1, 834044, Note_off_c, 0, 68, 0
1, 834112, Note_off_c, 0, 83, 56
1, 834121, Note_off_c, 0, 66, 46
1, 834127, Note_off_c, 0, 80, 39
1, 834160, Poly_aftertouch_c, 0, 68, 0
1, 834187, Control_c, 0, 64, 116
1, 834190, Note_off_c, 0, 78, 46
1, 834202, Control_c, 0, 64, 83
1, 834211, Note_on_c, 0, 71, 94
1, 834212, Note_on_c, 0, 80, 94
1, 834213, Note_on_c, 0, 83, 98
1, 834215, Note_on_c, 0, 64, 83
1, 834216, Note_on_c, 0, 76, 99
1, 834216, Control_c, 0, 64, 66
1, 834231, Note_on_c, 0, 68, 69
1, 834231, Control_c, 0, 64, 52
1, 834246, Control_c, 0, 64, 69
1, 834255, Note_on_c, 0, 66, 33
1, 834261, Control_c, 0, 64, 97
1, 834276, Control_c, 0, 64, 127
1, 834300, Note_off_c, 0, 76, 53
1, 834307, Note_off_c, 0, 66, 45
1, 834313, Note_off_c, 0, 71, 57
1, 834316, Note_off_c, 0, 83, 60
1, 834339, Note_off_c, 0, 68, 53
1, 834346, Note_off_c, 0, 80, 57
1, 834354, Note_off_c, 0, 64, 54
1, 834460, Note_on_c, 0, 71, 77
1, 834461, Note_on_c, 0, 83, 82
1, 834461, Note_on_c, 0, 75, 79
1, 834467, Note_on_c, 0, 63, 71
1, 834481, Note_off_c, 0, 75, 72
1, 834482, Note_on_c, 0, 64, 28
1, 834483, Note_off_c, 0, 71, 67
1, 834485, Note_on_c, 0, 80, 40
1, 834496, Note_off_c, 0, 83, 62
1, 834497, Note_on_c, 0, 68, 21
1, 834498, Note_off_c, 0, 63, 64
1, 834509, Note_off_c, 0, 80, 57
1, 834523, Note_off_c, 0, 64, 44
1, 834538, Note_off_c, 0, 68, 51
1, 834603, Control_c, 0, 64, 111
1, 834607, Note_on_c, 0, 74, 96
1, 834610, Note_on_c, 0, 64, 76
1, 834612, Note_on_c, 0, 83, 98
1, 834615, Note_on_c, 0, 95, 93
1, 834616, Note_on_c, 0, 92, 92
1, 834617, Note_on_c, 0, 68, 72
1, 834618, Control_c, 0, 64, 71
1, 834622, Note_off_c, 0, 74, 78
1, 834624, Note_on_c, 0, 88, 67
1, 834625, Note_on_c, 0, 62, 54
1, 834625, Note_off_c, 0, 83, 76
1, 834629, Note_off_c, 0, 95, 76
1, 834630, Note_off_c, 0, 92, 75
1, 834631, Note_off_c, 0, 64, 71
1, 834632, Control_c, 0, 64, 0
1, 834638, Note_off_c, 0, 68, 70
1, 834641, Note_off_c, 0, 88, 41
1, 834650, Note_off_c, 0, 62, 36
1, 834729, Note_on_c, 0, 83, 100
1, 834732, Note_on_c, 0, 73, 99
1, 834735, Note_on_c, 0, 92, 92
1, 834735, Note_on_c, 0, 95, 92
1, 834735, Note_on_c, 0, 88, 68
1, 834741, Note_on_c, 0, 64, 74
1, 834746, Note_on_c, 0, 68, 71
1, 834747, Note_off_c, 0, 83, 70
1, 834751, Note_off_c, 0, 92, 74
1, 834751, Note_off_c, 0, 95, 73
1, 834753, Note_off_c, 0, 73, 67
1, 834756, Note_off_c, 0, 88, 68
1, 834765, Note_off_c, 0, 64, 69
1, 834768, Note_off_c, 0, 68, 67
1, 834770, Note_on_c, 0, 61, 33
1, 834807, Note_off_c, 0, 61, 49
1, 834846, Note_on_c, 0, 83, 104
1, 834857, Note_on_c, 0, 95, 93
1, 834859, Note_on_c, 0, 88, 67
1, 834862, Note_on_c, 0, 64, 75
1, 834863, Note_on_c, 0, 72, 93
1, 834863, Note_on_c, 0, 92, 84
1, 834870, Note_on_c, 0, 68, 55
1, 834875, Note_off_c, 0, 83, 68
1, 834878, Note_off_c, 0, 72, 72
1, 834880, Note_off_c, 0, 88, 68
1, 834881, Note_off_c, 0, 92, 71
1, 834881, Note_off_c, 0, 95, 62
1, 834885, Note_off_c, 0, 64, 68
1, 834896, Note_on_c, 0, 60, 36
1, 834897, Note_off_c, 0, 68, 64
1, 834929, Note_off_c, 0, 60, 35
1, 834981, Note_on_c, 0, 71, 103
1, 834984, Note_on_c, 0, 83, 105
1, 834984, Note_on_c, 0, 95, 96
1, 834986, Note_on_c, 0, 68, 83
1, 834986, Note_on_c, 0, 92, 95
1, 834988, Note_on_c, 0, 64, 77
1, 834994, Note_on_c, 0, 59, 77
1, 834995, Note_off_c, 0, 71, 77
1, 835003, Note_off_c, 0, 95, 66
1, 835004, Note_off_c, 0, 64, 67
1, 835006, Note_off_c, 0, 68, 69
1, 835009, Note_off_c, 0, 92, 66
1, 835009, Note_off_c, 0, 83, 70
1, 835010, Control_c, 0, 64, 89
1, 835011, Note_on_c, 0, 88, 10
1, 835012, Note_off_c, 0, 88, 127
1, 835012, Note_off_c, 0, 59, 68
1, 835025, Control_c, 0, 64, 127
1, 835088, Poly_aftertouch_c, 0, 60, 0
1, 835188, Control_c, 0, 64, 89
1, 835203, Control_c, 0, 64, 62
1, 835218, Control_c, 0, 64, 0
1, 835247, Note_on_c, 0, 80, 72
1, 835248, Note_on_c, 0, 75, 61
1, 835281, Note_on_c, 0, 47, 3
1, 835285, Note_off_c, 0, 80, 53
1, 835299, Note_off_c, 0, 75, 52
1, 835305, Note_on_c, 0, 56, 43
1, 835320, Note_off_c, 0, 47, 53
1, 835354, Note_off_c, 0, 56, 62
1, 835367, Note_on_c, 0, 59, 55
1, 835376, Note_on_c, 0, 76, 58
1, 835385, Note_on_c, 0, 73, 66
1, 835391, Note_off_c, 0, 59, 62
1, 835408, Note_off_c, 0, 76, 64
1, 835412, Note_off_c, 0, 73, 66
1, 835480, Note_on_c, 0, 64, 74
1, 835483, Note_on_c, 0, 81, 84
1, 835490, Note_on_c, 0, 76, 72
1, 835514, Control_c, 0, 64, 75
1, 835515, Note_off_c, 0, 76, 68
1, 835519, Note_off_c, 0, 81, 63
1, 835529, Control_c, 0, 64, 89
1, 835544, Control_c, 0, 64, 91
1, 835559, Control_c, 0, 64, 91
1, 835573, Control_c, 0, 64, 89
1, 835588, Control_c, 0, 64, 85
1, 835611, Control_c, 0, 64, 73
1, 835614, Note_on_c, 0, 78, 69
1, 835626, Control_c, 0, 64, 23
1, 835638, Note_off_c, 0, 78, 69
1, 835639, Note_on_c, 0, 75, 28
1, 835641, Control_c, 0, 64, 0
1, 835674, Note_off_c, 0, 75, 31
1, 835676, Note_off_c, 0, 64, 23
1, 835704, Note_on_c, 0, 66, 60
1, 835719, Note_on_c, 0, 78, 74
1, 835719, Note_on_c, 0, 83, 75
1, 835734, Note_on_c, 0, 68, 60
1, 835752, Note_off_c, 0, 83, 59
1, 835752, Note_off_c, 0, 78, 56
1, 835767, Note_off_c, 0, 66, 61
1, 835806, Note_on_c, 0, 69, 51
1, 835827, Note_on_c, 0, 80, 66
1, 835830, Note_on_c, 0, 71, 73
1, 835832, Note_on_c, 0, 76, 73
1, 835847, Note_off_c, 0, 68, 39
1, 835856, Note_off_c, 0, 71, 67
1, 835856, Note_off_c, 0, 76, 67
1, 835863, Note_off_c, 0, 69, 61
1, 835871, Note_off_c, 0, 80, 62
1, 835919, Note_on_c, 0, 72, 88
1, 835925, Note_on_c, 0, 80, 88
1, 835927, Note_on_c, 0, 84, 95
1, 835934, Note_off_c, 0, 72, 74
1, 835936, Note_on_c, 0, 66, 38
1, 835937, Control_c, 0, 64, 77
1, 835938, Note_on_c, 0, 63, 60
1, 835952, Control_c, 0, 64, 127
1, 835962, Note_off_c, 0, 63, 37
1, 835963, Note_off_c, 0, 66, 35
1, 835975, Note_off_c, 0, 80, 61
1, 835993, Note_on_c, 0, 65, 5
1, 836029, Note_off_c, 0, 65, 36
1, 836046, Note_on_c, 0, 81, 70
1, 836059, Note_on_c, 0, 78, 77
1, 836082, Note_off_c, 0, 78, 67
1, 836086, Note_off_c, 0, 81, 64
1, 836089, Note_off_c, 0, 84, 22
1, 836100, Control_c, 0, 64, 101
1, 836115, Control_c, 0, 64, 76
1, 836130, Control_c, 0, 64, 0
1, 836154, Note_on_c, 0, 47, 70
1, 836165, Note_on_c, 0, 78, 90
1, 836166, Note_on_c, 0, 75, 93
1, 836190, Control_c, 0, 64, 66
1, 836192, Note_off_c, 0, 75, 63
1, 836204, Control_c, 0, 64, 88
1, 836210, Note_off_c, 0, 78, 65
1, 836219, Control_c, 0, 64, 127
1, 836232, Note_on_c, 0, 54, 70
1, 836261, Note_off_c, 0, 47, 44
1, 836295, Note_off_c, 0, 54, 62
1, 836298, Note_on_c, 0, 57, 61
1, 836325, Note_off_c, 0, 57, 65
1, 836339, Note_on_c, 0, 76, 70
1, 836351, Note_on_c, 0, 79, 64
1, 836364, Note_off_c, 0, 76, 66
1, 836369, Note_off_c, 0, 79, 64
1, 836390, Control_c, 0, 64, 89
1, 836404, Control_c, 0, 64, 44
1, 836413, Note_on_c, 0, 81, 96
1, 836419, Control_c, 0, 64, 0
1, 836423, Note_on_c, 0, 61, 68
1, 836425, Note_on_c, 0, 77, 74
1, 836446, Note_off_c, 0, 77, 71
1, 836450, Note_off_c, 0, 81, 65
1, 836458, Note_on_c, 0, 63, 65
1, 836509, Note_off_c, 0, 61, 54
1, 836522, Note_on_c, 0, 78, 89
1, 836527, Note_on_c, 0, 75, 79
1, 836543, Note_on_c, 0, 69, 62
1, 836549, Note_off_c, 0, 75, 66
1, 836560, Note_off_c, 0, 78, 61
1, 836568, Note_off_c, 0, 69, 67
1, 836582, Note_off_c, 0, 63, 59
1, 836631, Note_on_c, 0, 68, 95
1, 836639, Note_on_c, 0, 83, 93
1, 836643, Note_on_c, 0, 79, 86
1, 836643, Note_on_c, 0, 64, 67
1, 836648, Note_off_c, 0, 68, 69
1, 836652, Note_on_c, 0, 59, 52
1, 836670, Note_on_c, 0, 82, 58
1, 836670, Note_off_c, 0, 64, 66
1, 836670, Control_c, 0, 64, 80
1, 836677, Note_off_c, 0, 59, 59
1, 836687, Control_c, 0, 64, 127
1, 836690, Note_off_c, 0, 83, 65
1, 836691, Note_off_c, 0, 79, 61
1, 836692, Note_off_c, 0, 82, 61
1, 836753, Note_on_c, 0, 80, 82
1, 836769, Note_on_c, 0, 78, 61
1, 836786, Note_off_c, 0, 78, 67
1, 836798, Note_off_c, 0, 80, 60
1, 836864, Note_on_c, 0, 47, 70
1, 836864, Control_c, 0, 64, 93
1, 836875, Note_on_c, 0, 73, 90
1, 836878, Note_on_c, 0, 76, 76
1, 836879, Control_c, 0, 64, 64
1, 836894, Control_c, 0, 64, 0
1, 836900, Note_on_c, 0, 69, 42
1, 836901, Note_off_c, 0, 69, 127
1, 836910, Note_off_c, 0, 76, 62
1, 836919, Note_on_c, 0, 54, 66
1, 836921, Note_off_c, 0, 73, 61
1, 836957, Note_off_c, 0, 47, 65
1, 836985, Note_on_c, 0, 78, 85
1, 836986, Note_on_c, 0, 75, 87
1, 836995, Note_on_c, 0, 57, 59
1, 836998, Note_off_c, 0, 54, 65
1, 837017, Note_off_c, 0, 75, 60
1, 837022, Note_off_c, 0, 57, 65
1, 837030, Note_off_c, 0, 78, 63
1, 837106, Note_on_c, 0, 80, 83
1, 837108, Note_on_c, 0, 76, 84
1, 837111, Note_on_c, 0, 61, 70
1, 837132, Note_off_c, 0, 76, 66
1, 837147, Note_off_c, 0, 80, 63
1, 837155, Note_on_c, 0, 63, 57
1, 837184, Note_off_c, 0, 61, 61
1, 837210, Note_on_c, 0, 69, 77
1, 837213, Note_on_c, 0, 81, 87
1, 837214, Note_on_c, 0, 78, 85
1, 837231, Note_off_c, 0, 69, 68
1, 837248, Note_off_c, 0, 78, 60
1, 837252, Note_off_c, 0, 63, 62
1, 837252, Note_off_c, 0, 81, 64
1, 837314, Note_on_c, 0, 68, 85
1, 837318, Note_on_c, 0, 59, 66
1, 837321, Note_on_c, 0, 64, 62
1, 837323, Note_on_c, 0, 83, 93
1, 837331, Note_on_c, 0, 76, 79
1, 837331, Note_off_c, 0, 68, 72
1, 837331, Control_c, 0, 64, 46
1, 837344, Note_off_c, 0, 59, 67
1, 837346, Control_c, 0, 64, 127
1, 837349, Note_off_c, 0, 64, 67
1, 837366, Note_on_c, 0, 81, 57
1, 837368, Note_on_c, 0, 80, 33
1, 837394, Note_off_c, 0, 81, 51
1, 837441, Note_on_c, 0, 71, 76
1, 837444, Note_off_c, 0, 80, 0
1, 837444, Note_on_c, 0, 80, 20
1, 837455, Note_on_c, 0, 48, 69
1, 837468, Note_on_c, 0, 55, 68
1, 837474, Note_off_c, 0, 71, 58
1, 837481, Note_off_c, 0, 83, 63
1, 837492, Note_off_c, 0, 48, 56
1, 837510, Note_off_c, 0, 76, 31
1, 837511, Note_off_c, 0, 80, 43
1, 837548, Note_off_c, 0, 55, 64
1, 837549, Note_on_c, 0, 58, 75
1, 837552, Note_on_c, 0, 64, 88
1, 837558, Note_on_c, 0, 72, 92
1, 837560, Note_on_c, 0, 84, 89
1, 837562, Note_on_c, 0, 76, 74
1, 837567, Note_on_c, 0, 82, 84
1, 837569, Control_c, 0, 64, 89
1, 837569, Note_off_c, 0, 64, 74
1, 837572, Note_off_c, 0, 58, 69
1, 837572, Note_off_c, 0, 72, 75
1, 837583, Control_c, 0, 64, 29
1, 837584, Note_off_c, 0, 82, 71
1, 837585, Note_off_c, 0, 76, 68
1, 837591, Note_off_c, 0, 84, 61
1, 837598, Control_c, 0, 64, 0
1, 837694, Note_on_c, 0, 85, 103
1, 837695, Note_on_c, 0, 73, 126
1, 837699, Note_on_c, 0, 82, 95
1, 837700, Note_on_c, 0, 68, 98
1, 837701, Note_on_c, 0, 80, 89
1, 837710, Note_on_c, 0, 70, 71
1, 837732, Control_c, 0, 64, 60
1, 837747, Control_c, 0, 64, 127
1, 837750, Note_off_c, 0, 73, 54
1, 837777, Note_off_c, 0, 70, 52
1, 837784, Note_off_c, 0, 68, 46
1, 837829, Note_off_c, 0, 80, 51
1, 837836, Note_off_c, 0, 82, 54
1, 837838, Note_off_c, 0, 85, 40
1, 837953, Note_on_c, 0, 67, 77
1, 837955, Note_on_c, 0, 73, 71
1, 837957, Note_on_c, 0, 85, 74
1, 837961, Note_on_c, 0, 82, 66
1, 837962, Note_on_c, 0, 79, 69
1, 837984, Note_off_c, 0, 79, 68
1, 837986, Note_off_c, 0, 73, 59
1, 837995, Note_off_c, 0, 82, 58
1, 838001, Note_off_c, 0, 67, 62
1, 838005, Note_off_c, 0, 85, 61
1, 838074, Note_on_c, 0, 78, 84
1, 838078, Note_on_c, 0, 66, 76
1, 838080, Note_on_c, 0, 85, 79
1, 838089, Note_on_c, 0, 82, 73
1, 838101, Note_off_c, 0, 78, 60
1, 838108, Note_off_c, 0, 85, 59
1, 838113, Note_off_c, 0, 82, 66
1, 838127, Note_off_c, 0, 66, 60
1, 838187, Note_on_c, 0, 77, 82
1, 838191, Note_on_c, 0, 82, 76
1, 838192, Note_on_c, 0, 85, 87
1, 838199, Note_on_c, 0, 65, 69
1, 838206, Note_off_c, 0, 77, 72
1, 838212, Note_off_c, 0, 82, 70
1, 838212, Note_off_c, 0, 85, 68
1, 838226, Note_off_c, 0, 65, 68
1, 838309, Note_on_c, 0, 76, 102
1, 838310, Note_on_c, 0, 85, 100
1, 838313, Note_on_c, 0, 97, 92
1, 838316, Note_on_c, 0, 94, 87
1, 838318, Control_c, 0, 64, 89
1, 838320, Note_on_c, 0, 90, 79
1, 838321, Note_on_c, 0, 70, 72
1, 838323, Note_on_c, 0, 66, 70
1, 838323, Note_off_c, 0, 76, 76
1, 838327, Note_off_c, 0, 85, 70
1, 838333, Note_off_c, 0, 97, 69
1, 838333, Note_off_c, 0, 94, 72
1, 838333, Control_c, 0, 64, 63
1, 838335, Note_off_c, 0, 90, 70
1, 838339, Note_off_c, 0, 66, 67
1, 838342, Note_off_c, 0, 70, 69
1, 838348, Control_c, 0, 64, 0
1, 838431, Note_on_c, 0, 85, 108
1, 838434, Note_on_c, 0, 75, 97
1, 838434, Note_on_c, 0, 94, 100
1, 838435, Note_on_c, 0, 90, 74
1, 838436, Note_on_c, 0, 97, 91
1, 838438, Note_on_c, 0, 66, 70
1, 838449, Note_on_c, 0, 70, 63
1, 838450, Note_off_c, 0, 70, 127
1, 838450, Note_off_c, 0, 75, 69
1, 838457, Note_off_c, 0, 90, 69
1, 838460, Note_off_c, 0, 97, 67
1, 838460, Note_off_c, 0, 85, 61
1, 838464, Note_off_c, 0, 66, 66
1, 838467, Note_on_c, 0, 63, 40
1, 838468, Note_off_c, 0, 94, 62
1, 838497, Note_off_c, 0, 63, 54
1, 838559, Note_on_c, 0, 74, 95
1, 838562, Note_on_c, 0, 85, 103
1, 838564, Note_on_c, 0, 94, 101
1, 838564, Note_on_c, 0, 97, 95
1, 838566, Note_on_c, 0, 90, 94
1, 838569, Note_on_c, 0, 72, 77
1, 838570, Note_on_c, 0, 66, 56
1, 838571, Note_off_c, 0, 66, 127
1, 838576, Note_off_c, 0, 74, 73
1, 838584, Note_off_c, 0, 72, 69
1, 838585, Note_on_c, 0, 60, 48
1, 838585, Note_off_c, 0, 85, 65
1, 838587, Note_on_c, 0, 69, 46
1, 838587, Note_off_c, 0, 90, 69
1, 838589, Note_on_c, 0, 65, 42
1, 838590, Note_off_c, 0, 65, 127
1, 838599, Note_off_c, 0, 97, 62
1, 838607, Note_off_c, 0, 94, 63
1, 838616, Note_off_c, 0, 69, 55
1, 838617, Note_off_c, 0, 60, 60
1, 838694, Note_on_c, 0, 73, 112
1, 838699, Note_on_c, 0, 70, 87
1, 838700, Note_on_c, 0, 85, 108
1, 838702, Note_on_c, 0, 61, 82
1, 838702, Note_on_c, 0, 66, 70
1, 838702, Note_on_c, 0, 97, 90
1, 838703, Note_on_c, 0, 94, 99
1, 838706, Note_on_c, 0, 90, 85
1, 838709, Note_off_c, 0, 73, 70
1, 838710, Control_c, 0, 64, 70
1, 838717, Note_off_c, 0, 70, 73
1, 838724, Note_off_c, 0, 61, 68
1, 838724, Note_off_c, 0, 66, 66
1, 838725, Control_c, 0, 64, 127
1, 838726, Note_off_c, 0, 90, 66
1, 838726, Note_off_c, 0, 97, 67
1, 838733, Note_off_c, 0, 85, 62
1, 838737, Note_off_c, 0, 94, 61
1, 838888, Control_c, 0, 64, 92
1, 838902, Control_c, 0, 64, 69
1, 838917, Control_c, 0, 64, 0
1, 839013, Note_on_c, 0, 82, 60
1, 839016, Note_on_c, 0, 77, 68
1, 839036, Note_on_c, 0, 49, 28
1, 839041, Note_off_c, 0, 77, 68
1, 839059, Note_off_c, 0, 82, 46
1, 839087, Note_off_c, 0, 49, 59
1, 839096, Note_on_c, 0, 58, 60
1, 839137, Note_off_c, 0, 58, 58
1, 839147, Note_on_c, 0, 78, 62
1, 839154, Note_on_c, 0, 75, 49
1, 839165, Note_on_c, 0, 61, 66
1, 839178, Note_off_c, 0, 75, 59
1, 839189, Note_off_c, 0, 78, 63
1, 839192, Note_off_c, 0, 61, 66
1, 839269, Note_on_c, 0, 78, 71
1, 839269, Note_on_c, 0, 83, 74
1, 839275, Note_on_c, 0, 68, 74
1, 839307, Note_off_c, 0, 68, 63
1, 839312, Note_off_c, 0, 78, 56
1, 839317, Note_off_c, 0, 83, 55
1, 839374, Note_on_c, 0, 62, 56
1, 839386, Note_on_c, 0, 80, 69
1, 839416, Note_on_c, 0, 59, 52
1, 839417, Note_on_c, 0, 77, 29
1, 839419, Note_off_c, 0, 80, 60
1, 839451, Note_off_c, 0, 77, 44
1, 839457, Note_off_c, 0, 62, 55
1, 839459, Note_off_c, 0, 59, 55
1, 839499, Note_on_c, 0, 85, 89
1, 839501, Note_on_c, 0, 70, 83
1, 839502, Note_on_c, 0, 80, 81
1, 839528, Note_off_c, 0, 70, 64
1, 839541, Note_off_c, 0, 80, 57
1, 839559, Note_off_c, 0, 85, 59
1, 839591, Note_on_c, 0, 65, 57
1, 839609, Note_on_c, 0, 82, 75
1, 839614, Note_on_c, 0, 78, 77
1, 839621, Note_off_c, 0, 65, 65
1, 839628, Note_on_c, 0, 61, 71
1, 839636, Note_off_c, 0, 78, 68
1, 839657, Note_off_c, 0, 82, 62
1, 839678, Note_off_c, 0, 61, 57
1, 839732, Note_on_c, 0, 81, 89
1, 839732, Note_on_c, 0, 86, 98
1, 839737, Note_on_c, 0, 71, 87
1, 839752, Note_on_c, 0, 62, 65
1, 839752, Note_off_c, 0, 71, 74
1, 839755, Control_c, 0, 64, 50
1, 839757, Note_on_c, 0, 65, 55
1, 839768, Note_off_c, 0, 81, 63
1, 839770, Control_c, 0, 64, 115
1, 839781, Note_off_c, 0, 62, 66
1, 839783, Note_off_c, 0, 65, 58
1, 839785, Control_c, 0, 64, 127
1, 839806, Note_off_c, 0, 86, 54
1, 839844, Note_on_c, 0, 83, 72
1, 839853, Note_on_c, 0, 79, 83
1, 839871, Note_off_c, 0, 83, 66
1, 839873, Note_off_c, 0, 79, 71
1, 839889, Control_c, 0, 64, 89
1, 839904, Control_c, 0, 64, 63
1, 839919, Control_c, 0, 64, 0
1, 839999, Note_on_c, 0, 50, 97
1, 840000, Note_on_c, 0, 38, 79
1, 840000, Note_on_c, 0, 62, 96
1, 840004, Note_on_c, 0, 74, 91
1, 840008, Control_c, 0, 64, 70
1, 840018, Note_off_c, 0, 62, 73
1, 840023, Control_c, 0, 64, 127
1, 840025, Note_off_c, 0, 38, 65
1, 840027, Note_on_c, 0, 64, 50
1, 840038, Note_off_c, 0, 74, 59
1, 840042, Note_off_c, 0, 50, 67
1, 840051, Note_off_c, 0, 64, 63
1, 840267, Note_on_c, 0, 60, 57
1, 840267, Note_on_c, 0, 87, 100
1, 840268, Note_on_c, 0, 75, 106
1, 840268, Note_on_c, 0, 82, 96
1, 840271, Note_on_c, 0, 66, 101
1, 840271, Note_on_c, 0, 78, 92
1, 840279, Note_on_c, 0, 54, 72
1, 840279, Note_on_c, 0, 63, 88
1, 840283, Note_on_c, 0, 85, 80
1, 840297, Note_off_c, 0, 85, 71
1, 840301, Note_off_c, 0, 63, 66
1, 840302, Note_off_c, 0, 54, 68
1, 840309, Note_off_c, 0, 60, 64
1, 840309, Note_off_c, 0, 66, 66
1, 840342, Note_off_c, 0, 75, 60
1, 840367, Note_off_c, 0, 87, 62
1, 840369, Note_off_c, 0, 78, 60
1, 840391, Note_off_c, 0, 82, 51
1, 840414, Note_on_c, 0, 81, 80
1, 840460, Note_off_c, 0, 81, 64
1, 840489, Control_c, 0, 64, 85
1, 840503, Control_c, 0, 64, 0
1, 840536, Note_on_c, 0, 51, 72
1, 840547, Note_on_c, 0, 79, 88
1, 840551, Note_on_c, 0, 84, 78
1, 840575, Note_off_c, 0, 84, 63
1, 840578, Note_off_c, 0, 79, 64
1, 840592, Note_on_c, 0, 60, 48
1, 840612, Note_off_c, 0, 51, 62
1, 840660, Note_off_c, 0, 60, 61
1, 840667, Note_on_c, 0, 77, 75
1, 840667, Note_on_c, 0, 63, 67
1, 840670, Note_on_c, 0, 80, 72
1, 840688, Note_off_c, 0, 77, 70
1, 840690, Note_off_c, 0, 63, 65
1, 840693, Note_off_c, 0, 80, 69
1, 840771, Note_on_c, 0, 85, 84
1, 840772, Note_on_c, 0, 70, 79
1, 840777, Note_on_c, 0, 80, 78
1, 840810, Note_off_c, 0, 80, 56
1, 840811, Note_off_c, 0, 70, 61
1, 840817, Note_off_c, 0, 85, 62
1, 840871, Note_on_c, 0, 64, 63
1, 840888, Note_on_c, 0, 82, 83
1, 840896, Note_on_c, 0, 79, 71
1, 840904, Note_on_c, 0, 61, 66
1, 840918, Note_off_c, 0, 79, 70
1, 840927, Note_off_c, 0, 64, 64
1, 840932, Note_off_c, 0, 82, 64
1, 840980, Note_off_c, 0, 61, 62
1, 840996, Note_on_c, 0, 72, 84
1, 841006, Note_on_c, 0, 82, 69
1, 841013, Note_on_c, 0, 86, 72
1, 841037, Note_on_c, 0, 85, 32
1, 841037, Note_off_c, 0, 86, 66
1, 841040, Note_off_c, 0, 82, 60
1, 841043, Note_off_c, 0, 72, 62
1, 841071, Note_off_c, 0, 85, 32
1, 841081, Note_on_c, 0, 66, 86
1, 841109, Note_on_c, 0, 63, 69
1, 841110, Note_on_c, 0, 84, 69
1, 841111, Note_on_c, 0, 80, 76
1, 841130, Note_off_c, 0, 80, 71
1, 841132, Note_off_c, 0, 66, 61
1, 841147, Note_off_c, 0, 84, 66
1, 841149, Note_off_c, 0, 63, 61
1, 841219, Note_on_c, 0, 88, 97
1, 841222, Note_on_c, 0, 82, 95
1, 841223, Note_on_c, 0, 73, 109
1, 841233, Note_on_c, 0, 83, 61
1, 841234, Note_on_c, 0, 64, 77
1, 841244, Note_on_c, 0, 67, 52
1, 841245, Note_off_c, 0, 73, 65
1, 841251, Note_off_c, 0, 83, 63
1, 841269, Note_off_c, 0, 88, 63
1, 841272, Note_off_c, 0, 67, 63
1, 841278, Note_off_c, 0, 64, 62
1, 841283, Note_off_c, 0, 82, 60
1, 841339, Note_on_c, 0, 84, 80
1, 841341, Note_on_c, 0, 82, 72
1, 841359, Note_off_c, 0, 82, 68
1, 841362, Note_off_c, 0, 84, 66
1, 841429, Note_on_c, 0, 44, 38
1, 841465, Note_off_c, 0, 44, 46
1, 841491, Note_on_c, 0, 52, 97
1, 841496, Note_on_c, 0, 40, 81
1, 841496, Note_on_c, 0, 76, 98
1, 841497, Note_on_c, 0, 64, 94
1, 841515, Note_off_c, 0, 64, 72
1, 841520, Note_off_c, 0, 40, 66
1, 841521, Control_c, 0, 64, 127
1, 841534, Note_off_c, 0, 52, 66
1, 841535, Note_off_c, 0, 76, 65
1, 841773, Note_on_c, 0, 84, 95
1, 841775, Note_on_c, 0, 80, 99
1, 841775, Note_on_c, 0, 89, 97
1, 841776, Note_on_c, 0, 77, 99
1, 841780, Note_on_c, 0, 68, 105
1, 841781, Note_on_c, 0, 65, 79
1, 841782, Note_on_c, 0, 56, 85
1, 841782, Note_on_c, 0, 62, 69
1, 841789, Note_on_c, 0, 66, 77
1, 841838, Note_off_c, 0, 68, 59
1, 841839, Note_off_c, 0, 66, 37
1, 841859, Note_off_c, 0, 62, 53
1, 841859, Note_off_c, 0, 77, 58
1, 841872, Note_off_c, 0, 56, 63
1, 841877, Note_off_c, 0, 65, 57
1, 841880, Note_off_c, 0, 80, 58
1, 841925, Note_on_c, 0, 83, 78
1, 841926, Note_off_c, 0, 89, 57
1, 841930, Note_off_c, 0, 84, 59
1, 841950, Note_off_c, 0, 83, 66
1, 841978, Note_on_c, 0, 57, 68
1, 842032, Control_c, 0, 64, 84
1, 842034, Note_off_c, 0, 57, 63
1, 842045, Note_on_c, 0, 64, 52
1, 842047, Control_c, 0, 64, 34
1, 842062, Control_c, 0, 64, 0
1, 842089, Note_off_c, 0, 64, 64
1, 842128, Note_on_c, 0, 73, 81
1, 842136, Control_c, 0, 64, 71
1, 842149, Note_on_c, 0, 88, 85
1, 842150, Note_off_c, 0, 73, 70
1, 842150, Control_c, 0, 64, 81
1, 842152, Note_on_c, 0, 85, 71
1, 842165, Control_c, 0, 64, 92
1, 842176, Note_off_c, 0, 85, 69
1, 842187, Note_off_c, 0, 88, 56
1, 842195, Control_c, 0, 64, 84
1, 842210, Control_c, 0, 64, 70
1, 842223, Control_c, 0, 64, 0
1, 842235, Note_on_c, 0, 81, 70
1, 842297, Note_off_c, 0, 81, 54
1, 842309, Note_on_c, 0, 86, 59
1, 842309, Note_on_c, 0, 89, 65
1, 842349, Note_on_c, 0, 69, 39
1, 842349, Note_off_c, 0, 86, 64
1, 842366, Note_on_c, 0, 73, 57
1, 842369, Note_on_c, 0, 76, 59
1, 842375, Note_off_c, 0, 69, 55
1, 842376, Note_on_c, 0, 88, 62
1, 842391, Note_off_c, 0, 89, 60
1, 842395, Note_on_c, 0, 91, 72
1, 842400, Note_off_c, 0, 76, 64
1, 842401, Note_off_c, 0, 73, 64
1, 842404, Note_off_c, 0, 88, 67
1, 842450, Note_off_c, 0, 91, 65
1, 842451, Note_on_c, 0, 81, 65
1, 842491, Note_off_c, 0, 81, 62
1, 842512, Note_on_c, 0, 65, 53
1, 842520, Note_on_c, 0, 88, 63
1, 842534, Note_on_c, 0, 91, 68
1, 842543, Control_c, 0, 64, 81
1, 842551, Note_off_c, 0, 88, 64
1, 842554, Note_off_c, 0, 65, 63
1, 842558, Control_c, 0, 64, 92
1, 842570, Note_on_c, 0, 69, 53
1, 842572, Control_c, 0, 64, 95
1, 842574, Note_on_c, 0, 89, 58
1, 842578, Note_on_c, 0, 77, 68
1, 842587, Control_c, 0, 64, 90
1, 842593, Note_on_c, 0, 93, 77
1, 842596, Note_off_c, 0, 77, 66
1, 842600, Note_off_c, 0, 91, 58
1, 842602, Note_off_c, 0, 69, 65
1, 842602, Control_c, 0, 64, 80
1, 842611, Note_off_c, 0, 89, 62
1, 842617, Control_c, 0, 64, 63
1, 842632, Control_c, 0, 64, 0
1, 842651, Note_off_c, 0, 93, 51
1, 842656, Note_on_c, 0, 81, 72
1, 842702, Note_off_c, 0, 81, 58
1, 842721, Note_on_c, 0, 93, 81
1, 842740, Note_on_c, 0, 57, 62
1, 842766, Note_off_c, 0, 93, 65
1, 842767, Note_on_c, 0, 62, 43
1, 842773, Note_off_c, 0, 57, 61
1, 842795, Control_c, 0, 64, 72
1, 842799, Note_off_c, 0, 62, 62
1, 842805, Note_on_c, 0, 71, 75
1, 842810, Control_c, 0, 64, 81
1, 842815, Note_on_c, 0, 86, 75
1, 842825, Control_c, 0, 64, 83
1, 842837, Note_off_c, 0, 71, 63
1, 842840, Control_c, 0, 64, 80
1, 842846, Note_on_c, 0, 81, 67
1, 842846, Note_off_c, 0, 86, 63
1, 842854, Control_c, 0, 64, 68
1, 842869, Control_c, 0, 64, 0
1, 842924, Note_off_c, 0, 81, 55
1, 842930, Note_on_c, 0, 85, 70
1, 842936, Note_on_c, 0, 88, 63
1, 842974, Note_on_c, 0, 73, 60
1, 842984, Note_off_c, 0, 85, 61
1, 842992, Note_on_c, 0, 86, 60
1, 842996, Note_on_c, 0, 67, 46
1, 843022, Note_off_c, 0, 86, 68
1, 843025, Note_on_c, 0, 89, 80
1, 843025, Note_off_c, 0, 88, 63
1, 843029, Note_off_c, 0, 73, 48
1, 843032, Control_c, 0, 64, 76
1, 843034, Note_off_c, 0, 67, 62
1, 843039, Note_on_c, 0, 74, 78
1, 843046, Note_on_c, 0, 71, 59
1, 843046, Control_c, 0, 64, 84
1, 843062, Note_off_c, 0, 74, 71
1, 843076, Note_off_c, 0, 71, 67
1, 843077, Control_c, 0, 64, 73
1, 843084, Note_off_c, 0, 89, 63
1, 843094, Note_on_c, 0, 81, 74
1, 843100, Control_c, 0, 64, 0
1, 843168, Note_on_c, 0, 86, 59
1, 843176, Note_on_c, 0, 61, 67
1, 843182, Note_on_c, 0, 89, 55
1, 843191, Note_on_c, 0, 88, 67
1, 843200, Note_off_c, 0, 81, 40
1, 843204, Note_off_c, 0, 61, 65
1, 843212, Note_off_c, 0, 86, 57
1, 843233, Control_c, 0, 64, 56
1, 843244, Note_on_c, 0, 91, 87
1, 843248, Control_c, 0, 64, 87
1, 843249, Note_on_c, 0, 76, 79
1, 843253, Note_on_c, 0, 70, 65
1, 843257, Note_off_c, 0, 88, 61
1, 843260, Note_off_c, 0, 89, 61
1, 843263, Control_c, 0, 64, 119
1, 843264, Note_off_c, 0, 76, 69
1, 843277, Control_c, 0, 64, 127
1, 843278, Note_on_c, 0, 68, 24
1, 843278, Note_off_c, 0, 70, 67
1, 843302, Note_on_c, 0, 81, 78
1, 843310, Note_off_c, 0, 91, 61
1, 843321, Control_c, 0, 64, 100
1, 843325, Note_off_c, 0, 68, 51
1, 843336, Control_c, 0, 64, 82
1, 843351, Control_c, 0, 64, 58
1, 843356, Note_off_c, 0, 81, 62
1, 843365, Note_on_c, 0, 91, 75
1, 843366, Control_c, 0, 64, 0
1, 843388, Note_on_c, 0, 57, 67
1, 843396, Note_on_c, 0, 60, 60
1, 843398, Note_off_c, 0, 91, 66
1, 843421, Note_off_c, 0, 57, 60
1, 843458, Note_on_c, 0, 84, 81
1, 843471, Note_on_c, 0, 65, 38
1, 843472, Note_off_c, 0, 60, 63
1, 843476, Note_on_c, 0, 69, 63
1, 843484, Control_c, 0, 64, 68
1, 843499, Note_off_c, 0, 65, 53
1, 843499, Control_c, 0, 64, 101
1, 843503, Note_off_c, 0, 69, 64
1, 843514, Note_on_c, 0, 83, 57
1, 843514, Control_c, 0, 64, 127
1, 843522, Note_off_c, 0, 84, 64
1, 843541, Note_on_c, 0, 81, 79
1, 843571, Note_off_c, 0, 83, 59
1, 843580, Note_on_c, 0, 86, 76
1, 843588, Note_off_c, 0, 81, 63
1, 843601, Note_on_c, 0, 72, 61
1, 843615, Note_off_c, 0, 86, 63
1, 843618, Control_c, 0, 64, 100
1, 843629, Note_off_c, 0, 72, 56
1, 843633, Control_c, 0, 64, 76
1, 843647, Control_c, 0, 64, 59
1, 843668, Note_on_c, 0, 69, 41
1, 843675, Note_on_c, 0, 85, 76
1, 843675, Note_on_c, 0, 88, 80
1, 843677, Control_c, 0, 64, 68
1, 843687, Note_on_c, 0, 65, 59
1, 843692, Note_on_c, 0, 73, 66
1, 843692, Control_c, 0, 64, 76
1, 843699, Note_off_c, 0, 85, 67
1, 843707, Control_c, 0, 64, 86
1, 843722, Control_c, 0, 64, 102
1, 843733, Note_on_c, 0, 81, 75
1, 843733, Note_off_c, 0, 88, 64
1, 843737, Control_c, 0, 64, 127
1, 843767, Note_off_c, 0, 69, 39
1, 843784, Note_off_c, 0, 73, 44
1, 843788, Note_on_c, 0, 74, 76
1, 843791, Note_off_c, 0, 81, 61
1, 843791, Note_on_c, 0, 89, 86
1, 843801, Note_off_c, 0, 65, 54
1, 843810, Note_off_c, 0, 74, 71
1, 843829, Note_off_c, 0, 89, 63
1, 843900, Note_on_c, 0, 93, 90
1, 843904, Note_on_c, 0, 76, 79
1, 843906, Note_on_c, 0, 91, 82
1, 843925, Note_off_c, 0, 76, 70
1, 843943, Note_off_c, 0, 93, 63
1, 843945, Note_off_c, 0, 91, 59
1, 843970, Note_on_c, 0, 81, 84
1, 843988, Note_on_c, 0, 64, 76
1, 843994, Note_off_c, 0, 81, 60
1, 844015, Note_off_c, 0, 64, 66
1, 844027, Note_on_c, 0, 93, 83
1, 844046, Note_off_c, 0, 93, 72
1, 844071, Control_c, 0, 64, 71
1, 844086, Control_c, 0, 64, 0
1, 844106, Note_on_c, 0, 81, 88
1, 844109, Note_on_c, 0, 95, 96
1, 844127, Note_on_c, 0, 100, 46
1, 844143, Note_on_c, 0, 93, 76
1, 844151, Note_off_c, 0, 100, 59
1, 844154, Note_off_c, 0, 81, 62
1, 844159, Note_on_c, 0, 97, 75
1, 844160, Control_c, 0, 64, 71
1, 844161, Note_off_c, 0, 95, 62
1, 844164, Note_on_c, 0, 76, 57
1, 844175, Control_c, 0, 64, 127
1, 844226, Note_off_c, 0, 76, 61
1, 844229, Note_on_c, 0, 69, 78
1, 844231, Note_off_c, 0, 93, 62
1, 844236, Note_on_c, 0, 98, 88
1, 844251, Note_off_c, 0, 97, 66
1, 844255, Note_off_c, 0, 69, 65
1, 844274, Note_off_c, 0, 98, 66
1, 844321, Note_on_c, 0, 69, 79
1, 844321, Note_on_c, 0, 100, 87
1, 844322, Note_on_c, 0, 97, 76
1, 844357, Note_off_c, 0, 97, 62
1, 844363, Note_off_c, 0, 69, 63
1, 844390, Note_on_c, 0, 93, 84
1, 844391, Note_off_c, 0, 100, 65
1, 844396, Note_on_c, 0, 64, 71
1, 844418, Note_on_c, 0, 57, 68
1, 844441, Note_on_c, 0, 62, 26
1, 844441, Note_off_c, 0, 64, 64
1, 844446, Note_off_c, 0, 57, 66
1, 844456, Note_off_c, 0, 93, 59
1, 844458, Note_on_c, 0, 101, 95
1, 844477, Note_off_c, 0, 62, 52
1, 844515, Note_on_c, 0, 72, 96
1, 844519, Note_on_c, 0, 103, 93
1, 844521, Note_on_c, 0, 65, 79
1, 844531, Note_off_c, 0, 101, 65
1, 844537, Note_off_c, 0, 72, 63
1, 844542, Note_off_c, 0, 65, 70
1, 844581, Note_on_c, 0, 93, 86
1, 844593, Note_off_c, 0, 103, 66
1, 844634, Note_off_c, 0, 93, 65
1, 844665, Note_on_c, 0, 105, 95
1, 844685, Control_c, 0, 64, 77
1, 844700, Control_c, 0, 64, 0
1, 844721, Note_off_c, 0, 105, 55
1, 844732, Note_on_c, 0, 95, 93
1, 844742, Note_on_c, 0, 79, 93
1, 844760, Control_c, 0, 64, 55
1, 844773, Note_on_c, 0, 74, 54
1, 844774, Control_c, 0, 64, 127
1, 844783, Note_off_c, 0, 79, 61
1, 844805, Note_off_c, 0, 95, 57
1, 844811, Note_on_c, 0, 91, 84
1, 844837, Poly_aftertouch_c, 0, 73, 0
1, 844839, Note_on_c, 0, 97, 85
1, 844842, Note_on_c, 0, 67, 77
1, 844843, Note_off_c, 0, 74, 66
1, 844871, Note_off_c, 0, 67, 63
1, 844876, Note_off_c, 0, 91, 65
1, 844909, Note_on_c, 0, 98, 92
1, 844919, Note_off_c, 0, 97, 63
1, 844942, Note_on_c, 0, 67, 80
1, 844978, Note_off_c, 0, 67, 61
1, 844979, Note_off_c, 0, 98, 60
1, 844991, Note_on_c, 0, 91, 89
1, 845012, Note_on_c, 0, 62, 78
1, 845014, Note_on_c, 0, 57, 79
1, 845047, Note_off_c, 0, 62, 62
1, 845052, Note_off_c, 0, 57, 60
1, 845061, Note_on_c, 0, 97, 85
1, 845071, Note_on_c, 0, 100, 74
1, 845084, Note_off_c, 0, 91, 61
1, 845125, Note_on_c, 0, 70, 96
1, 845129, Note_on_c, 0, 67, 84
1, 845130, Note_on_c, 0, 98, 68
1, 845142, Note_off_c, 0, 70, 71
1, 845147, Note_off_c, 0, 97, 63
1, 845147, Note_on_c, 0, 101, 98
1, 845156, Note_on_c, 0, 68, 46
1, 845157, Note_off_c, 0, 68, 127
1, 845157, Note_off_c, 0, 67, 65
1, 845158, Note_off_c, 0, 98, 68
1, 845173, Note_off_c, 0, 100, 65
1, 845218, Note_on_c, 0, 91, 86
1, 845228, Note_off_c, 0, 101, 65
1, 845274, Note_off_c, 0, 91, 64
1, 845288, Note_on_c, 0, 103, 90
1, 845317, Note_off_c, 0, 103, 63
1, 845374, Note_on_c, 0, 57, 61
1, 845394, Note_on_c, 0, 60, 65
1, 845403, Note_on_c, 0, 89, 90
1, 845403, Note_on_c, 0, 93, 83
1, 845404, Control_c, 0, 64, 94
1, 845418, Control_c, 0, 64, 40
1, 845426, Note_off_c, 0, 89, 65
1, 845433, Control_c, 0, 64, 0
1, 845443, Note_off_c, 0, 93, 65
1, 845467, Note_off_c, 0, 57, 52
1, 845475, Note_on_c, 0, 65, 65
1, 845494, Note_off_c, 0, 60, 61
1, 845527, Note_on_c, 0, 94, 100
1, 845535, Note_on_c, 0, 91, 74
1, 845537, Note_off_c, 0, 65, 63
1, 845555, Note_off_c, 0, 91, 71
1, 845566, Note_on_c, 0, 69, 72
1, 845569, Note_off_c, 0, 94, 68
1, 845615, Note_off_c, 0, 69, 60
1, 845654, Note_on_c, 0, 96, 96
1, 845656, Note_on_c, 0, 93, 96
1, 845663, Note_on_c, 0, 70, 76
1, 845689, Note_off_c, 0, 93, 66
1, 845693, Note_off_c, 0, 96, 67
1, 845744, Note_on_c, 0, 74, 75
1, 845748, Note_off_c, 0, 70, 59
1, 845781, Note_on_c, 0, 94, 97
1, 845783, Note_on_c, 0, 98, 94
1, 845810, Note_on_c, 0, 77, 79
1, 845857, Note_off_c, 0, 74, 58
1, 845878, Note_off_c, 0, 77, 61
1, 845884, Note_off_c, 0, 98, 66
1, 845915, Note_off_c, 0, 94, 50
1, 845949, Note_on_c, 0, 69, 85
1, 845951, Note_on_c, 0, 100, 101
1, 845952, Note_on_c, 0, 88, 107
1, 845955, Note_on_c, 0, 76, 100
1, 845957, Note_on_c, 0, 97, 102
1, 845958, Note_on_c, 0, 93, 87
1, 845964, Note_on_c, 0, 77, 93
1, 845965, Note_off_c, 0, 77, 127
1, 845967, Note_on_c, 0, 73, 84
1, 845982, Control_c, 0, 64, 127
1, 845995, Note_off_c, 0, 69, 60
1, 845996, Note_off_c, 0, 76, 68
1, 846005, Note_off_c, 0, 100, 67
1, 846012, Note_on_c, 0, 72, 4
1, 846019, Note_off_c, 0, 73, 63
1, 846033, Note_off_c, 0, 88, 60
1, 846040, Note_on_c, 0, 77, 32
1, 846048, Note_off_c, 0, 97, 64
1, 846049, Note_off_c, 0, 72, 48
1, 846053, Note_off_c, 0, 93, 64
1, 846076, Note_off_c, 0, 77, 54
1, 846568, Control_c, 0, 64, 90
1, 846583, Control_c, 0, 64, 63
1, 846598, Control_c, 0, 64, 0
1, 846619, Note_on_c, 0, 53, 105
1, 846624, Note_on_c, 0, 41, 104
1, 846634, Note_on_c, 0, 29, 78
1, 846642, Control_c, 0, 64, 46
1, 846656, Control_c, 0, 64, 80
1, 846670, Note_on_c, 0, 56, 42
1, 846671, Control_c, 0, 64, 127
1, 846696, Note_on_c, 0, 54, 8
1, 846741, Poly_aftertouch_c, 0, 30, 0
1, 846809, Note_off_c, 0, 54, 42
1, 846840, Note_off_c, 0, 56, 42
1, 846854, Note_off_c, 0, 29, 53
1, 846894, Note_off_c, 0, 53, 54
1, 846933, Note_off_c, 0, 41, 60
1, 847163, Note_on_c, 0, 53, 100
1, 847165, Note_on_c, 0, 69, 87
1, 847168, Note_on_c, 0, 57, 84
1, 847169, Note_on_c, 0, 41, 80
1, 847169, Note_on_c, 0, 48, 63
1, 847173, Note_on_c, 0, 63, 77
1, 847210, Note_off_c, 0, 57, 62
1, 847255, Note_off_c, 0, 41, 55
1, 847265, Note_off_c, 0, 63, 51
1, 847274, Note_off_c, 0, 48, 62
1, 847285, Note_off_c, 0, 69, 58
1, 847323, Note_off_c, 0, 53, 58
1, 847511, Note_on_c, 0, 65, 102
1, 847517, Note_on_c, 0, 75, 97
1, 847518, Note_on_c, 0, 60, 63
1, 847518, Note_on_c, 0, 69, 93
1, 847521, Note_on_c, 0, 53, 83
1, 847554, Note_off_c, 0, 69, 64
1, 847600, Note_off_c, 0, 75, 59
1, 847631, Poly_aftertouch_c, 0, 56, 0
1, 847696, Note_off_c, 0, 53, 46
1, 847762, Note_off_c, 0, 65, 62
1, 847859, Control_c, 0, 64, 99
1, 847874, Control_c, 0, 64, 0
1, 847879, Note_on_c, 0, 66, 105
1, 847881, Note_on_c, 0, 78, 111
1, 847881, Note_on_c, 0, 90, 105
1, 847892, Note_on_c, 0, 54, 82
1, 847902, Note_off_c, 0, 60, 36
1, 847931, Note_off_c, 0, 90, 70
1, 847933, Control_c, 0, 64, 59
1, 847944, Note_off_c, 0, 54, 68
1, 847948, Control_c, 0, 64, 89
1, 847963, Control_c, 0, 64, 127
1, 847992, Note_off_c, 0, 78, 60
1, 848096, Note_off_c, 0, 66, 57
1, 848198, Note_on_c, 0, 71, 95
1, 848200, Note_on_c, 0, 83, 87
1, 848201, Note_on_c, 0, 69, 88
1, 848202, Note_on_c, 0, 75, 75
1, 848206, Note_on_c, 0, 59, 70
1, 848206, Note_on_c, 0, 63, 63
1, 848239, Note_on_c, 0, 61, 44
1, 848242, Note_off_c, 0, 69, 64
1, 848245, Note_off_c, 0, 83, 62
1, 848250, Note_off_c, 0, 59, 55
1, 848271, Note_off_c, 0, 63, 59
1, 848277, Note_off_c, 0, 61, 50
1, 848283, Note_off_c, 0, 75, 62
1, 848307, Note_off_c, 0, 71, 54
1, 848561, Note_on_c, 0, 70, 87
1, 848566, Note_on_c, 0, 58, 96
1, 848567, Note_on_c, 0, 63, 78
1, 848570, Note_on_c, 0, 51, 87
1, 848603, Note_off_c, 0, 58, 58
1, 848604, Note_off_c, 0, 51, 56
1, 848620, Note_off_c, 0, 63, 60
1, 848625, Note_off_c, 0, 70, 63
1, 849133, Note_on_c, 0, 53, 90
1, 849133, Control_c, 0, 64, 91
1, 849136, Note_on_c, 0, 41, 99
1, 849146, Note_on_c, 0, 29, 77
1, 849148, Control_c, 0, 64, 68
1, 849163, Control_c, 0, 64, 0
1, 849177, Note_on_c, 0, 32, 27
1, 849207, Control_c, 0, 64, 68
1, 849222, Control_c, 0, 64, 84
1, 849234, Note_off_c, 0, 32, 29
1, 849237, Control_c, 0, 64, 127
1, 849452, Note_off_c, 0, 29, 37
1, 849518, Note_off_c, 0, 53, 48
1, 849549, Note_off_c, 0, 41, 56
1, 849756, Note_on_c, 0, 50, 72
1, 849807, Note_on_c, 0, 65, 71
1, 849816, Note_on_c, 0, 57, 59
1, 849842, Note_on_c, 0, 63, 36
1, 849858, Note_off_c, 0, 57, 63
1, 849876, Note_off_c, 0, 63, 52
1, 849954, Note_on_c, 0, 63, 64
1, 849958, Note_on_c, 0, 67, 79
1, 849969, Note_on_c, 0, 48, 77
1, 849977, Note_on_c, 0, 58, 69
1, 849980, Poly_aftertouch_c, 0, 44, 127
1, 849999, Note_off_c, 0, 65, 43
1, 850026, Poly_aftertouch_c, 0, 46, 127
1, 850044, Note_off_c, 0, 50, 40
1, 850090, Poly_aftertouch_c, 0, 46, 0
1, 850127, Poly_aftertouch_c, 0, 46, 127
1, 850145, Note_off_c, 0, 58, 27
1, 850152, Note_off_c, 0, 67, 53
1, 850167, Note_off_c, 0, 63, 36
1, 850171, Poly_aftertouch_c, 0, 44, 0
1, 850270, Poly_aftertouch_c, 0, 46, 0
1, 850289, Note_on_c, 0, 41, 69
1, 850380, Note_off_c, 0, 48, 55
1, 850468, Poly_aftertouch_c, 0, 43, 127
1, 850594, Note_on_c, 0, 50, 71
1, 850602, Control_c, 0, 64, 106
1, 850607, Note_on_c, 0, 69, 83
1, 850610, Note_off_c, 0, 41, 50
1, 850614, Note_on_c, 0, 57, 76
1, 850616, Note_on_c, 0, 67, 64
1, 850617, Control_c, 0, 64, 86
1, 850617, Note_on_c, 0, 63, 60
1, 850631, Control_c, 0, 64, 72
1, 850646, Control_c, 0, 64, 71
1, 850661, Control_c, 0, 64, 80
1, 850676, Control_c, 0, 64, 95
1, 850691, Control_c, 0, 64, 127
1, 850704, Poly_aftertouch_c, 0, 43, 0
1, 850900, Note_on_c, 0, 41, 59
1, 850905, Note_off_c, 0, 69, 56
1, 850906, Note_off_c, 0, 50, 37
1, 850911, Note_off_c, 0, 57, 56
1, 850970, Poly_aftertouch_c, 0, 43, 127
1, 850975, Note_off_c, 0, 63, 53
1, 851105, Note_on_c, 0, 70, 75
1, 851117, Note_on_c, 0, 63, 56
1, 851118, Note_on_c, 0, 58, 75
1, 851122, Note_on_c, 0, 51, 85
1, 851156, Poly_aftertouch_c, 0, 43, 0
1, 851258, Note_off_c, 0, 41, 39
1, 851273, Note_off_c, 0, 58, 59
1, 851315, Note_off_c, 0, 51, 62
1, 851315, Note_off_c, 0, 67, 40
1, 851342, Note_off_c, 0, 70, 57
1, 851370, Note_on_c, 0, 41, 61
1, 851432, Poly_aftertouch_c, 0, 40, 127
1, 851443, Note_off_c, 0, 41, 50
1, 851445, Note_on_c, 0, 44, 37
1, 851467, Poly_aftertouch_c, 0, 40, 0
1, 851497, Note_off_c, 0, 63, 0
1, 851512, Note_on_c, 0, 63, 48
1, 851512, Note_off_c, 0, 44, 50
1, 851519, Note_on_c, 0, 72, 86
1, 851522, Note_on_c, 0, 60, 83
1, 851526, Note_on_c, 0, 69, 71
1, 851534, Note_on_c, 0, 54, 83
1, 851550, Note_on_c, 0, 48, 44
1, 851601, Note_off_c, 0, 63, 60
1, 851616, Note_off_c, 0, 54, 65
1, 851630, Note_off_c, 0, 69, 57
1, 851662, Note_off_c, 0, 60, 55
1, 851664, Note_off_c, 0, 72, 59
1, 851702, Note_on_c, 0, 41, 75
1, 851714, Note_off_c, 0, 48, 59
1, 851797, Note_off_c, 0, 41, 59
1, 851849, Note_on_c, 0, 74, 93
1, 851851, Note_on_c, 0, 62, 84
1, 851852, Note_on_c, 0, 55, 91
1, 851854, Note_on_c, 0, 67, 68
1, 851856, Note_on_c, 0, 70, 76
1, 851859, Note_on_c, 0, 48, 61
1, 851923, Note_off_c, 0, 55, 52
1, 851940, Poly_aftertouch_c, 0, 46, 127
1, 851977, Poly_aftertouch_c, 0, 46, 0
1, 852002, Note_on_c, 0, 41, 77
1, 852014, Note_off_c, 0, 62, 51
1, 852030, Note_off_c, 0, 74, 60
1, 852035, Note_off_c, 0, 48, 60
1, 852054, Note_off_c, 0, 41, 63
1, 852072, Note_off_c, 0, 70, 60
1, 852111, Note_off_c, 0, 67, 47
1, 852168, Note_on_c, 0, 58, 98
1, 852168, Note_on_c, 0, 63, 92
1, 852169, Note_on_c, 0, 75, 90
1, 852176, Note_on_c, 0, 51, 75
1, 852182, Note_on_c, 0, 67, 20
1, 852184, Note_on_c, 0, 70, 69
1, 852216, Note_off_c, 0, 63, 60
1, 852216, Note_off_c, 0, 70, 57
1, 852230, Note_off_c, 0, 67, 40
1, 852234, Note_off_c, 0, 58, 56
1, 852281, Note_off_c, 0, 75, 61
1, 852287, Note_off_c, 0, 51, 62
1, 852362, Note_on_c, 0, 41, 93
1, 852422, Note_off_c, 0, 41, 63
1, 852511, Note_on_c, 0, 67, 103
1, 852511, Note_on_c, 0, 79, 100
1, 852516, Note_on_c, 0, 59, 91
1, 852516, Note_on_c, 0, 71, 74
1, 852516, Note_on_c, 0, 75, 82
1, 852524, Note_on_c, 0, 51, 87
1, 852557, Note_off_c, 0, 59, 64
1, 852603, Note_off_c, 0, 51, 61
1, 852604, Note_off_c, 0, 71, 62
1, 852612, Note_off_c, 0, 67, 59
1, 852637, Note_off_c, 0, 75, 60
1, 852654, Note_off_c, 0, 79, 53
1, 852710, Note_on_c, 0, 41, 99
1, 852779, Note_off_c, 0, 41, 62
1, 852892, Control_c, 0, 64, 95
1, 852907, Control_c, 0, 64, 71
1, 852916, Note_on_c, 0, 75, 75
1, 852918, Note_on_c, 0, 69, 99
1, 852919, Note_on_c, 0, 79, 92
1, 852919, Note_on_c, 0, 62, 96
1, 852920, Note_on_c, 0, 81, 98
1, 852922, Control_c, 0, 64, 68
1, 852929, Note_on_c, 0, 51, 84
1, 852931, Note_on_c, 0, 55, 67
1, 852937, Control_c, 0, 64, 81
1, 852951, Note_on_c, 0, 54, 37
1, 852951, Control_c, 0, 64, 107
1, 852966, Note_off_c, 0, 62, 60
1, 852966, Control_c, 0, 64, 127
1, 852978, Note_on_c, 0, 56, 4
1, 852984, Note_off_c, 0, 55, 58
1, 852984, Note_off_c, 0, 54, 56
1, 853020, Note_off_c, 0, 56, 53
1, 853024, Note_off_c, 0, 51, 57
1, 853148, Note_on_c, 0, 41, 106
1, 853183, Note_off_c, 0, 69, 41
1, 853199, Note_off_c, 0, 81, 57
1, 853212, Note_off_c, 0, 41, 63
1, 853286, Note_off_c, 0, 79, 41
1, 853312, Note_off_c, 0, 75, 34
1, 853360, Note_on_c, 0, 70, 107
1, 853362, Note_on_c, 0, 60, 102
1, 853362, Note_on_c, 0, 79, 88
1, 853366, Note_on_c, 0, 82, 104
1, 853369, Note_on_c, 0, 51, 89
1, 853372, Note_on_c, 0, 55, 75
1, 853381, Note_on_c, 0, 75, 65
1, 853400, Note_off_c, 0, 60, 68
1, 853402, Note_off_c, 0, 55, 62
1, 853450, Note_off_c, 0, 51, 61
1, 853471, Poly_aftertouch_c, 0, 54, 0
1, 853485, Poly_aftertouch_c, 0, 56, 0
1, 853604, Note_on_c, 0, 41, 103
1, 853651, Note_off_c, 0, 70, 56
1, 853654, Note_off_c, 0, 75, 37
1, 853661, Note_off_c, 0, 79, 56
1, 853676, Note_off_c, 0, 41, 62
1, 853689, Note_off_c, 0, 82, 58
1, 853867, Poly_aftertouch_c, 0, 75, 0
1, 853879, Note_on_c, 0, 75, 70
1, 853879, Control_c, 0, 64, 88
1, 853882, Note_on_c, 0, 84, 97
1, 853883, Note_on_c, 0, 72, 105
1, 853887, Note_on_c, 0, 78, 92
1, 853891, Note_on_c, 0, 58, 116
1, 853894, Control_c, 0, 64, 74
1, 853902, Note_on_c, 0, 51, 85
1, 853909, Control_c, 0, 64, 79
1, 853913, Note_on_c, 0, 54, 62
1, 853923, Control_c, 0, 64, 112
1, 853938, Control_c, 0, 64, 127
1, 853942, Note_off_c, 0, 58, 61
1, 853967, Note_off_c, 0, 54, 63
1, 853992, Note_off_c, 0, 51, 62
1, 854109, Note_off_c, 0, 84, 55
1, 854159, Note_off_c, 0, 78, 58
1, 854168, Note_off_c, 0, 72, 57
1, 854174, Note_off_c, 0, 75, 59
1, 854184, Poly_aftertouch_c, 0, 45, 127
1, 854214, Note_on_c, 0, 41, 110
1, 854221, Poly_aftertouch_c, 0, 45, 0
1, 854249, Note_on_c, 0, 43, 51
1, 854263, Note_on_c, 0, 48, 24
1, 854264, Note_off_c, 0, 48, 127
1, 854283, Note_off_c, 0, 41, 63
1, 854283, Note_off_c, 0, 43, 54
1, 854296, Poly_aftertouch_c, 0, 48, 0
1, 854673, Control_c, 0, 64, 94
1, 854687, Control_c, 0, 64, 61
1, 854699, Note_on_c, 0, 53, 100
1, 854702, Note_on_c, 0, 34, 98
1, 854702, Note_on_c, 0, 41, 104
1, 854702, Control_c, 0, 64, 0
1, 854717, Control_c, 0, 64, 72
1, 854728, Note_on_c, 0, 37, 52
1, 854729, Note_off_c, 0, 37, 127
1, 854732, Control_c, 0, 64, 115
1, 854743, Note_off_c, 0, 34, 60
1, 854747, Control_c, 0, 64, 127
1, 854794, Note_on_c, 0, 35, 47
1, 854800, Note_on_c, 0, 36, 35
1, 854829, Note_off_c, 0, 35, 62
1, 854837, Note_off_c, 0, 53, 60
1, 854839, Note_off_c, 0, 36, 49
1, 854847, Poly_aftertouch_c, 0, 37, 0
1, 854868, Note_off_c, 0, 41, 64
1, 855024, Note_on_c, 0, 57, 100
1, 855024, Note_on_c, 0, 66, 93
1, 855032, Note_on_c, 0, 62, 82
1, 855032, Note_on_c, 0, 53, 102
1, 855033, Note_on_c, 0, 48, 79
1, 855038, Note_on_c, 0, 41, 85
1, 855040, Note_on_c, 0, 51, 89
1, 855050, Note_on_c, 0, 63, 70
1, 855050, Note_on_c, 0, 65, 82
1, 855064, Note_off_c, 0, 57, 69
1, 855078, Note_off_c, 0, 48, 62
1, 855082, Note_off_c, 0, 63, 67
1, 855085, Note_off_c, 0, 66, 59
1, 855086, Note_off_c, 0, 62, 63
1, 855089, Note_off_c, 0, 41, 58
1, 855099, Note_off_c, 0, 65, 67
1, 855126, Note_off_c, 0, 53, 61
1, 855131, Note_off_c, 0, 51, 66
1, 855330, Note_on_c, 0, 80, 16
1, 855388, Note_off_c, 0, 80, 47
1, 855414, Note_on_c, 0, 77, 82
1, 855416, Note_on_c, 0, 69, 105
1, 855420, Note_on_c, 0, 65, 77
1, 855420, Note_on_c, 0, 74, 109
1, 855420, Note_on_c, 0, 86, 108
1, 855421, Note_on_c, 0, 81, 95
1, 855423, Note_on_c, 0, 63, 93
1, 855427, Note_on_c, 0, 57, 87
1, 855444, Note_off_c, 0, 65, 62
1, 855447, Note_off_c, 0, 57, 71
1, 855452, Note_off_c, 0, 69, 67
1, 855468, Note_off_c, 0, 63, 66
1, 855474, Note_on_c, 0, 83, 31
1, 855524, Note_off_c, 0, 83, 43
1, 855528, Poly_aftertouch_c, 0, 67, 0
1, 855575, Note_off_c, 0, 81, 55
1, 855583, Note_off_c, 0, 77, 54
1, 855621, Note_off_c, 0, 86, 49
1, 855699, Note_off_c, 0, 74, 52
1, 855967, Note_on_c, 0, 53, 74
1, 855968, Note_on_c, 0, 65, 81
1, 855970, Note_on_c, 0, 69, 83
1, 855974, Note_on_c, 0, 59, 75
1, 855976, Note_on_c, 0, 57, 61
1, 855985, Note_on_c, 0, 55, 73
1, 856016, Note_off_c, 0, 55, 59
1, 856071, Note_off_c, 0, 59, 55
1, 856077, Note_off_c, 0, 65, 59
1, 856114, Note_off_c, 0, 69, 60
1, 856135, Note_off_c, 0, 57, 31
1, 856203, Note_off_c, 0, 53, 0
1, 856240, Poly_aftertouch_c, 0, 53, 127
1, 856245, Note_on_c, 0, 63, 85
1, 856245, Note_on_c, 0, 65, 94
1, 856254, Note_on_c, 0, 57, 62
1, 856258, Note_on_c, 0, 74, 104
1, 856262, Note_on_c, 0, 69, 96
1, 856290, Poly_aftertouch_c, 0, 53, 0
1, 856313, Note_off_c, 0, 65, 54
1, 856344, Note_off_c, 0, 63, 59
1, 856462, Note_on_c, 0, 63, 92
1, 856464, Note_on_c, 0, 53, 84
1, 856501, Note_off_c, 0, 57, 56
1, 856501, Note_off_c, 0, 69, 0
1, 856504, Note_off_c, 0, 63, 66
1, 856513, Note_off_c, 0, 53, 66
1, 856521, Note_on_c, 0, 65, 100
1, 856523, Note_on_c, 0, 77, 100
1, 856538, Poly_aftertouch_c, 0, 69, 127
1, 856548, Note_on_c, 0, 68, 56
1, 856577, Note_off_c, 0, 68, 63
1, 856742, Poly_aftertouch_c, 0, 69, 0
1, 856773, Note_off_c, 0, 74, 47
1, 856795, Note_off_c, 0, 65, 57
1, 856800, Note_off_c, 0, 77, 51
1, 856868, Note_on_c, 0, 41, 100
1, 856871, Note_on_c, 0, 34, 93
1, 856890, Control_c, 0, 64, 88
1, 856892, Note_on_c, 0, 65, 97
1, 856892, Note_on_c, 0, 77, 99
1, 856895, Note_on_c, 0, 70, 90
1, 856896, Note_on_c, 0, 74, 90
1, 856905, Control_c, 0, 64, 0
1, 856921, Note_on_c, 0, 67, 55
1, 856945, Note_off_c, 0, 67, 39
1, 856949, Control_c, 0, 64, 72
1, 856964, Control_c, 0, 64, 100
1, 856979, Control_c, 0, 64, 127
1, 857018, Note_off_c, 0, 34, 61
1, 857033, Note_off_c, 0, 41, 62
1, 857121, Note_off_c, 0, 77, 53
1, 857159, Note_off_c, 0, 74, 54
1, 857161, Note_off_c, 0, 65, 54
1, 857186, Note_off_c, 0, 70, 52
1, 857227, Poly_aftertouch_c, 0, 50, 127
1, 857247, Note_on_c, 0, 53, 94
1, 857248, Note_on_c, 0, 46, 73
1, 857258, Note_on_c, 0, 41, 69
1, 857277, Note_on_c, 0, 70, 88
1, 857283, Note_on_c, 0, 62, 78
1, 857288, Note_off_c, 0, 41, 63
1, 857305, Poly_aftertouch_c, 0, 50, 0
1, 857305, Note_off_c, 0, 62, 69
1, 857322, Note_off_c, 0, 46, 61
1, 857327, Note_off_c, 0, 53, 67
1, 857345, Note_off_c, 0, 70, 62
1, 857524, Note_on_c, 0, 82, 102
1, 857527, Note_on_c, 0, 67, 99
1, 857529, Note_on_c, 0, 70, 95
1, 857536, Note_on_c, 0, 63, 82
1, 857539, Note_on_c, 0, 58, 81
1, 857545, Note_on_c, 0, 72, 56
1, 857566, Note_off_c, 0, 72, 64
1, 857566, Note_off_c, 0, 70, 66
1, 857566, Note_off_c, 0, 82, 70
1, 857567, Note_on_c, 0, 60, 56
1, 857567, Note_off_c, 0, 67, 63
1, 857608, Note_off_c, 0, 60, 59
1, 857624, Note_off_c, 0, 63, 58
1, 857640, Poly_aftertouch_c, 0, 80, 0
1, 857653, Note_off_c, 0, 58, 60
1, 857742, Note_on_c, 0, 53, 85
1, 857750, Note_on_c, 0, 60, 81
1, 857751, Note_on_c, 0, 63, 73
1, 857751, Note_on_c, 0, 70, 81
1, 857778, Note_off_c, 0, 60, 65
1, 857816, Note_off_c, 0, 63, 60
1, 857873, Note_off_c, 0, 53, 46
1, 857873, Note_off_c, 0, 70, 61
1, 857936, Note_on_c, 0, 65, 94
1, 857943, Note_on_c, 0, 58, 81
1, 857947, Note_on_c, 0, 74, 96
1, 857949, Note_on_c, 0, 62, 68
1, 857960, Note_on_c, 0, 70, 70
1, 857985, Note_off_c, 0, 65, 52
1, 857985, Note_off_c, 0, 70, 62
1, 858040, Note_off_c, 0, 62, 57
1, 858046, Note_off_c, 0, 58, 58
1, 858133, Note_on_c, 0, 58, 80
1, 858135, Note_on_c, 0, 53, 74
1, 858136, Note_on_c, 0, 62, 75
1, 858149, Note_off_c, 0, 74, 57
1, 858152, Note_on_c, 0, 70, 86
1, 858166, Note_on_c, 0, 65, 66
1, 858171, Note_off_c, 0, 53, 68
1, 858177, Note_off_c, 0, 58, 66
1, 858189, Note_off_c, 0, 62, 63
1, 858198, Note_off_c, 0, 65, 65
1, 858218, Note_off_c, 0, 70, 65
1, 858349, Note_on_c, 0, 34, 97
1, 858374, Note_on_c, 0, 69, 77
1, 858387, Control_c, 0, 64, 83
1, 858392, Note_on_c, 0, 72, 72
1, 858401, Control_c, 0, 64, 0
1, 858420, Note_on_c, 0, 75, 89
1, 858441, Note_on_c, 0, 81, 103
1, 858445, Control_c, 0, 64, 82
1, 858460, Control_c, 0, 64, 127
1, 858522, Note_off_c, 0, 34, 58
1, 858533, Note_on_c, 0, 76, 11
1, 858594, Poly_aftertouch_c, 0, 77, 0
1, 858603, Note_off_c, 0, 76, 32
1, 858658, Note_off_c, 0, 81, 54
1, 858691, Note_off_c, 0, 72, 59
1, 858694, Note_off_c, 0, 75, 58
1, 858707, Note_off_c, 0, 69, 59
1, 858712, Note_on_c, 0, 51, 63
1, 858751, Note_on_c, 0, 57, 58
1, 858764, Note_on_c, 0, 60, 70
1, 858767, Note_off_c, 0, 51, 64
1, 858797, Note_on_c, 0, 66, 100
1, 858843, Note_on_c, 0, 58, 39
1, 858850, Note_off_c, 0, 66, 61
1, 858869, Note_off_c, 0, 57, 61
1, 858869, Note_off_c, 0, 60, 59
1, 858880, Note_off_c, 0, 58, 50
1, 858944, Note_on_c, 0, 60, 70
1, 858959, Note_on_c, 0, 63, 83
1, 858969, Note_on_c, 0, 68, 90
1, 858995, Note_off_c, 0, 60, 64
1, 859021, Note_off_c, 0, 63, 60
1, 859044, Note_off_c, 0, 68, 62
1, 859065, Poly_aftertouch_c, 0, 66, 127
1, 859091, Note_on_c, 0, 54, 74
1, 859101, Poly_aftertouch_c, 0, 66, 0
1, 859107, Note_on_c, 0, 60, 56
1, 859120, Note_off_c, 0, 54, 69
1, 859147, Note_on_c, 0, 69, 99
1, 859157, Note_on_c, 0, 63, 69
1, 859183, Note_on_c, 0, 61, 32
1, 859190, Note_on_c, 0, 58, 16
1, 859219, Note_off_c, 0, 69, 48
1, 859240, Note_off_c, 0, 58, 52
1, 859268, Note_off_c, 0, 60, 30
1, 859287, Note_on_c, 0, 66, 77
1, 859309, Note_on_c, 0, 68, 78
1, 859317, Note_on_c, 0, 71, 85
1, 859328, Note_on_c, 0, 78, 99
1, 859330, Note_off_c, 0, 61, 17
1, 859337, Note_off_c, 0, 66, 64
1, 859369, Note_off_c, 0, 63, 36
1, 859390, Note_on_c, 0, 57, 68
1, 859407, Note_off_c, 0, 68, 59
1, 859448, Note_off_c, 0, 57, 64
1, 859534, Note_on_c, 0, 72, 98
1, 859537, Note_on_c, 0, 63, 93
1, 859538, Note_on_c, 0, 66, 85
1, 859569, Note_off_c, 0, 72, 59
1, 859587, Note_off_c, 0, 66, 60
1, 859590, Note_off_c, 0, 63, 60
1, 859608, Note_off_c, 0, 71, 26
1, 859649, Note_off_c, 0, 78, 48
1, 859784, Note_on_c, 0, 34, 92
1, 859794, Control_c, 0, 64, 97
1, 859796, Note_on_c, 0, 66, 59
1, 859809, Note_on_c, 0, 68, 77
1, 859809, Control_c, 0, 64, 64
1, 859815, Note_on_c, 0, 71, 86
1, 859819, Note_on_c, 0, 78, 98
1, 859824, Control_c, 0, 64, 0
1, 859849, Note_on_c, 0, 67, 47
1, 859855, Control_c, 0, 64, 71
1, 859870, Control_c, 0, 64, 99
1, 859876, Note_off_c, 0, 67, 55
1, 859885, Control_c, 0, 64, 127
1, 859900, Note_on_c, 0, 74, 28
1, 859911, Note_off_c, 0, 34, 58
1, 859937, Poly_aftertouch_c, 0, 65, 0
1, 859992, Note_off_c, 0, 78, 60
1, 859998, Note_off_c, 0, 71, 60
1, 860009, Note_off_c, 0, 74, 44
1, 860020, Note_off_c, 0, 68, 58
1, 860028, Note_off_c, 0, 66, 30
1, 860067, Note_on_c, 0, 53, 65
1, 860077, Note_on_c, 0, 56, 65
1, 860091, Note_on_c, 0, 63, 89
1, 860143, Note_off_c, 0, 63, 57
1, 860144, Note_off_c, 0, 53, 63
1, 860189, Note_off_c, 0, 56, 57
1, 860261, Note_on_c, 0, 64, 82
1, 860264, Note_on_c, 0, 59, 75
1, 860264, Note_on_c, 0, 62, 73
1, 860287, Note_off_c, 0, 59, 68
1, 860317, Note_off_c, 0, 62, 56
1, 860335, Note_off_c, 0, 64, 66
1, 860392, Note_on_c, 0, 56, 75
1, 860438, Note_on_c, 0, 59, 61
1, 860442, Note_on_c, 0, 65, 79
1, 860502, Note_off_c, 0, 65, 60
1, 860523, Note_off_c, 0, 59, 61
1, 860621, Note_on_c, 0, 74, 98
1, 860628, Note_on_c, 0, 65, 65
1, 860629, Note_on_c, 0, 67, 81
1, 860650, Note_on_c, 0, 62, 39
1, 860677, Note_off_c, 0, 62, 56
1, 860697, Note_off_c, 0, 56, 56
1, 860731, Note_off_c, 0, 65, 53
1, 860761, Note_off_c, 0, 67, 34
1, 860839, Note_on_c, 0, 68, 81
1, 860842, Note_on_c, 0, 62, 51
1, 860848, Note_on_c, 0, 59, 67
1, 860882, Note_off_c, 0, 68, 65
1, 860915, Note_off_c, 0, 62, 61
1, 860938, Note_off_c, 0, 59, 61
1, 861077, Note_on_c, 0, 39, 74
1, 861100, Control_c, 0, 64, 99
1, 861115, Control_c, 0, 64, 70
1, 861129, Control_c, 0, 64, 0
1, 861159, Control_c, 0, 64, 59
1, 861173, Control_c, 0, 64, 73
1, 861188, Control_c, 0, 64, 99
1, 861203, Control_c, 0, 64, 127
1, 861263, Note_off_c, 0, 39, 61
1, 861313, Note_on_c, 0, 46, 64
1, 861315, Note_off_c, 0, 74, 40
1, 861322, Note_on_c, 0, 70, 74
1, 861326, Note_on_c, 0, 62, 58
1, 861334, Note_on_c, 0, 55, 63
1, 861337, Note_on_c, 0, 67, 47
1, 861357, Note_off_c, 0, 62, 64
1, 861367, Note_off_c, 0, 67, 61
1, 861372, Note_off_c, 0, 55, 65
1, 861377, Note_off_c, 0, 46, 63
1, 861387, Note_off_c, 0, 70, 63
1, 861566, Note_on_c, 0, 55, 49
1, 861568, Note_on_c, 0, 61, 69
1, 861575, Control_c, 0, 64, 110
1, 861589, Control_c, 0, 64, 88
1, 861602, Note_on_c, 0, 77, 86
1, 861604, Control_c, 0, 64, 78
1, 861619, Control_c, 0, 64, 79
1, 861625, Note_on_c, 0, 67, 51
1, 861630, Note_on_c, 0, 70, 48
1, 861634, Control_c, 0, 64, 92
1, 861649, Control_c, 0, 64, 127
1, 861659, Note_off_c, 0, 70, 65
1, 861666, Note_off_c, 0, 67, 59
1, 861745, Note_off_c, 0, 77, 57
1, 861748, Note_off_c, 0, 61, 63
1, 861772, Note_off_c, 0, 55, 63
1, 861864, Note_on_c, 0, 46, 67
1, 861870, Note_on_c, 0, 70, 72
1, 861879, Note_on_c, 0, 62, 55
1, 861882, Note_on_c, 0, 67, 56
1, 861897, Note_on_c, 0, 55, 61
1, 861924, Note_off_c, 0, 62, 57
1, 861930, Note_off_c, 0, 46, 63
1, 861976, Note_off_c, 0, 55, 61
1, 862006, Note_off_c, 0, 67, 52
1, 862011, Note_off_c, 0, 70, 61
1, 862037, Note_on_c, 0, 62, 67
1, 862055, Note_on_c, 0, 75, 94
1, 862060, Note_on_c, 0, 67, 59
1, 862070, Control_c, 0, 64, 112
1, 862085, Control_c, 0, 64, 114
1, 862098, Note_off_c, 0, 62, 58
1, 862100, Control_c, 0, 64, 127
1, 862101, Note_on_c, 0, 70, 6
1, 862106, Note_on_c, 0, 55, 60
1, 862154, Note_off_c, 0, 70, 52
1, 862175, Note_off_c, 0, 55, 63
1, 862237, Note_on_c, 0, 55, 64
1, 862239, Note_on_c, 0, 46, 82
1, 862240, Note_on_c, 0, 70, 73
1, 862254, Note_on_c, 0, 63, 80
1, 862294, Note_off_c, 0, 67, 54
1, 862305, Note_on_c, 0, 49, 11
1, 862307, Note_off_c, 0, 63, 61
1, 862309, Note_off_c, 0, 75, 60
1, 862338, Note_off_c, 0, 46, 60
1, 862347, Note_off_c, 0, 55, 61
1, 862352, Note_off_c, 0, 49, 54
1, 862386, Note_off_c, 0, 70, 63
1, 862392, Note_on_c, 0, 50, 35
1, 862398, Control_c, 0, 64, 95
1, 862412, Control_c, 0, 64, 74
1, 862413, Note_on_c, 0, 58, 81
1, 862414, Note_on_c, 0, 74, 100
1, 862419, Note_on_c, 0, 62, 89
1, 862425, Poly_aftertouch_c, 0, 70, 0
1, 862427, Control_c, 0, 64, 69
1, 862434, Note_on_c, 0, 70, 56
1, 862442, Control_c, 0, 64, 77
1, 862457, Control_c, 0, 64, 90
1, 862464, Note_on_c, 0, 49, 19
1, 862467, Note_off_c, 0, 58, 65
1, 862472, Control_c, 0, 64, 116
1, 862486, Control_c, 0, 64, 127
1, 862508, Poly_aftertouch_c, 0, 51, 127
1, 862509, Note_off_c, 0, 49, 51
1, 862514, Note_off_c, 0, 62, 55
1, 862548, Poly_aftertouch_c, 0, 51, 0
1, 862578, Note_off_c, 0, 50, 64
1, 862600, Note_on_c, 0, 43, 80
1, 862602, Note_on_c, 0, 52, 79
1, 862610, Note_on_c, 0, 64, 87
1, 862628, Note_off_c, 0, 74, 57
1, 862677, Note_off_c, 0, 43, 63
1, 862716, Note_off_c, 0, 70, 44
1, 862741, Note_off_c, 0, 52, 60
1, 862753, Note_off_c, 0, 64, 60
1, 862775, Note_on_c, 0, 72, 93
1, 862781, Note_on_c, 0, 60, 92
1, 862784, Note_on_c, 0, 70, 91
1, 862790, Control_c, 0, 64, 91
1, 862792, Note_on_c, 0, 50, 71
1, 862793, Note_on_c, 0, 58, 93
1, 862805, Control_c, 0, 64, 81
1, 862819, Control_c, 0, 64, 80
1, 862834, Control_c, 0, 64, 87
1, 862849, Control_c, 0, 64, 102
1, 862850, Note_off_c, 0, 58, 64
1, 862864, Control_c, 0, 64, 127
1, 862892, Poly_aftertouch_c, 0, 49, 127
1, 862922, Poly_aftertouch_c, 0, 49, 0
1, 862940, Note_off_c, 0, 50, 63
1, 862979, Note_on_c, 0, 51, 90
1, 862986, Note_on_c, 0, 42, 84
1, 862988, Note_on_c, 0, 63, 93
1, 863001, Note_off_c, 0, 70, 64
1, 863020, Note_off_c, 0, 60, 60
1, 863021, Note_off_c, 0, 72, 61
1, 863027, Poly_aftertouch_c, 0, 50, 127
1, 863048, Note_on_c, 0, 66, 29
1, 863069, Note_off_c, 0, 42, 63
1, 863087, Poly_aftertouch_c, 0, 50, 0
1, 863137, Note_off_c, 0, 51, 60
1, 863155, Note_off_c, 0, 63, 61
1, 863176, Control_c, 0, 64, 107
1, 863187, Note_off_c, 0, 66, 40
1, 863188, Note_on_c, 0, 69, 88
1, 863188, Note_on_c, 0, 74, 102
1, 863189, Note_on_c, 0, 62, 104
1, 863190, Note_on_c, 0, 50, 76
1, 863191, Control_c, 0, 64, 87
1, 863194, Note_on_c, 0, 57, 102
1, 863206, Control_c, 0, 64, 84
1, 863221, Control_c, 0, 64, 95
1, 863229, Note_on_c, 0, 49, 44
1, 863235, Control_c, 0, 64, 127
1, 863259, Note_off_c, 0, 49, 56
1, 863261, Note_off_c, 0, 57, 58
1, 863297, Note_off_c, 0, 50, 62
1, 863423, Note_off_c, 0, 74, 59
1, 863426, Note_on_c, 0, 51, 92
1, 863432, Note_on_c, 0, 41, 84
1, 863436, Note_on_c, 0, 63, 94
1, 863441, Note_on_c, 0, 52, 80
1, 863452, Note_on_c, 0, 46, 63
1, 863459, Note_off_c, 0, 69, 62
1, 863468, Note_off_c, 0, 51, 66
1, 863468, Note_off_c, 0, 62, 58
1, 863469, Note_off_c, 0, 52, 63
1, 863478, Note_off_c, 0, 41, 62
1, 863480, Note_off_c, 0, 46, 64
1, 863510, Note_off_c, 0, 63, 65
1, 863716, Control_c, 0, 64, 100
1, 863731, Control_c, 0, 64, 71
1, 863732, Note_on_c, 0, 41, 104
1, 863733, Note_on_c, 0, 53, 93
1, 863734, Note_on_c, 0, 34, 92
1, 863739, Note_on_c, 0, 65, 82
1, 863743, Note_on_c, 0, 57, 68
1, 863743, Note_on_c, 0, 63, 82
1, 863746, Control_c, 0, 64, 46
1, 863747, Note_on_c, 0, 32, 75
1, 863760, Control_c, 0, 64, 68
1, 863775, Control_c, 0, 64, 85
1, 863778, Note_off_c, 0, 32, 65
1, 863790, Control_c, 0, 64, 127
1, 863839, Note_off_c, 0, 34, 60
1, 863853, Note_off_c, 0, 41, 61
1, 863854, Note_off_c, 0, 57, 61
1, 863859, Note_off_c, 0, 53, 62
1, 863890, Note_off_c, 0, 63, 60
1, 863908, Note_off_c, 0, 65, 61
1, 864041, Note_on_c, 0, 66, 65
1, 864042, Note_on_c, 0, 53, 98
1, 864045, Note_on_c, 0, 57, 89
1, 864046, Note_on_c, 0, 62, 81
1, 864047, Note_on_c, 0, 48, 80
1, 864049, Note_on_c, 0, 51, 87
1, 864050, Note_on_c, 0, 41, 79
1, 864051, Note_on_c, 0, 65, 89
1, 864069, Note_off_c, 0, 66, 43
1, 864106, Note_off_c, 0, 57, 57
1, 864133, Note_off_c, 0, 41, 57
1, 864141, Note_off_c, 0, 62, 59
1, 864147, Note_off_c, 0, 65, 61
1, 864161, Note_off_c, 0, 48, 60
1, 864198, Note_off_c, 0, 53, 57
1, 864198, Note_off_c, 0, 51, 63
1, 864476, Note_on_c, 0, 69, 101
1, 864476, Note_on_c, 0, 65, 75
1, 864484, Note_on_c, 0, 63, 80
1, 864492, Note_on_c, 0, 57, 73
1, 864497, Note_on_c, 0, 77, 82
1, 864498, Note_on_c, 0, 86, 99
1, 864499, Note_on_c, 0, 74, 104
1, 864502, Note_on_c, 0, 81, 82
1, 864504, Poly_aftertouch_c, 0, 66, 0
1, 864601, Poly_aftertouch_c, 0, 83, 127
1, 864607, Note_off_c, 0, 57, 39
1, 864607, Note_off_c, 0, 69, 45
1, 864655, Note_off_c, 0, 65, 53
1, 864684, Note_off_c, 0, 63, 51
1, 864706, Note_off_c, 0, 86, 57
1, 864726, Poly_aftertouch_c, 0, 83, 0
1, 864730, Note_off_c, 0, 81, 59
1, 864743, Note_off_c, 0, 77, 56
1, 864765, Note_off_c, 0, 74, 60
1, 864917, Note_on_c, 0, 53, 78
1, 864919, Note_on_c, 0, 57, 70
1, 864927, Note_on_c, 0, 77, 88
1, 864929, Note_on_c, 0, 65, 88
1, 864935, Note_on_c, 0, 75, 73
1, 864941, Note_on_c, 0, 69, 63
1, 865067, Note_off_c, 0, 57, 57
1, 865096, Note_off_c, 0, 65, 59
1, 865114, Note_off_c, 0, 77, 56
1, 865116, Note_off_c, 0, 69, 54
1, 865128, Note_off_c, 0, 75, 59
1, 865203, Note_on_c, 0, 65, 92
1, 865205, Note_on_c, 0, 63, 85
1, 865206, Note_on_c, 0, 57, 63
1, 865224, Note_on_c, 0, 76, 98
1, 865225, Note_on_c, 0, 69, 85
1, 865263, Note_off_c, 0, 65, 50
1, 865263, Note_off_c, 0, 53, 51
1, 865296, Note_on_c, 0, 60, 17
1, 865304, Note_off_c, 0, 63, 59
1, 865340, Note_off_c, 0, 60, 52
1, 865360, Note_off_c, 0, 76, 57
1, 865397, Note_off_c, 0, 69, 52
1, 865404, Note_on_c, 0, 53, 98
1, 865406, Note_on_c, 0, 63, 95
1, 865422, Note_off_c, 0, 57, 65
1, 865440, Note_on_c, 0, 75, 85
1, 865441, Note_on_c, 0, 77, 93
1, 865444, Note_on_c, 0, 69, 57
1, 865454, Note_off_c, 0, 63, 66
1, 865459, Note_off_c, 0, 53, 66
1, 865474, Note_on_c, 0, 73, 62
1, 865485, Note_off_c, 0, 69, 50
1, 865510, Note_off_c, 0, 73, 61
1, 865529, Note_off_c, 0, 75, 66
1, 865531, Note_off_c, 0, 77, 62
1, 865599, Note_on_c, 0, 62, 81
1, 865656, Note_off_c, 0, 62, 55
1, 865662, Note_on_c, 0, 70, 77
1, 865692, Note_on_c, 0, 74, 80
1, 865711, Control_c, 0, 64, 103
1, 865726, Control_c, 0, 64, 70
1, 865728, Note_on_c, 0, 41, 96
1, 865729, Note_on_c, 0, 77, 98
1, 865731, Note_on_c, 0, 34, 88
1, 865741, Control_c, 0, 64, 0
1, 865770, Control_c, 0, 64, 71
1, 865784, Note_off_c, 0, 74, 63
1, 865785, Control_c, 0, 64, 94
1, 865800, Control_c, 0, 64, 127
1, 865826, Note_off_c, 0, 34, 61
1, 865828, Note_off_c, 0, 41, 63
1, 865844, Note_off_c, 0, 77, 57
1, 865884, Poly_aftertouch_c, 0, 72, 127
1, 865918, Note_off_c, 0, 70, 49
1, 865921, Poly_aftertouch_c, 0, 72, 0
1, 865997, Note_on_c, 0, 50, 48
1, 866005, Note_on_c, 0, 53, 95
1, 866007, Note_on_c, 0, 46, 80
1, 866011, Note_on_c, 0, 41, 77
1, 866011, Note_on_c, 0, 70, 97
1, 866019, Note_on_c, 0, 62, 68
1, 866038, Note_off_c, 0, 62, 65
1, 866041, Note_off_c, 0, 41, 64
1, 866050, Note_off_c, 0, 70, 64
1, 866053, Note_off_c, 0, 50, 63
1, 866054, Note_off_c, 0, 53, 65
1, 866061, Note_off_c, 0, 46, 61
1, 866067, Note_on_c, 0, 71, 32
1, 866098, Note_off_c, 0, 71, 57
1, 866244, Note_on_c, 0, 82, 95
1, 866249, Note_on_c, 0, 70, 97
1, 866253, Note_on_c, 0, 65, 102
1, 866256, Note_on_c, 0, 56, 90
1, 866258, Note_on_c, 0, 58, 84
1, 866265, Note_on_c, 0, 62, 75
1, 866277, Note_off_c, 0, 65, 58
1, 866280, Note_off_c, 0, 82, 69
1, 866281, Note_on_c, 0, 64, 56
1, 866282, Note_off_c, 0, 64, 127
1, 866287, Note_off_c, 0, 70, 61
1, 866290, Note_off_c, 0, 62, 66
1, 866312, Note_off_c, 0, 56, 62
1, 866324, Note_off_c, 0, 58, 59
1, 866509, Note_on_c, 0, 58, 71
1, 866509, Note_on_c, 0, 55, 96
1, 866511, Note_on_c, 0, 64, 79
1, 866533, Note_on_c, 0, 66, 64
1, 866556, Note_off_c, 0, 66, 56
1, 866641, Note_off_c, 0, 55, 62
1, 866641, Poly_aftertouch_c, 0, 61, 127
1, 866649, Note_off_c, 0, 64, 62
1, 866652, Note_on_c, 0, 61, 3
1, 866738, Note_on_c, 0, 63, 88
1, 866738, Note_off_c, 0, 61, 0
1, 866741, Note_on_c, 0, 54, 92
1, 866745, Note_on_c, 0, 41, 76
1, 866757, Control_c, 0, 64, 103
1, 866772, Control_c, 0, 64, 80
1, 866775, Poly_aftertouch_c, 0, 61, 127
1, 866786, Control_c, 0, 64, 70
1, 866801, Control_c, 0, 64, 77
1, 866816, Control_c, 0, 64, 93
1, 866831, Control_c, 0, 64, 127
1, 866878, Note_off_c, 0, 63, 64
1, 866940, Note_off_c, 0, 54, 63
1, 866996, Note_on_c, 0, 34, 65
1, 866999, Note_on_c, 0, 53, 92
1, 866999, Note_on_c, 0, 62, 72
1, 867000, Note_off_c, 0, 41, 53
1, 867030, Note_on_c, 0, 61, 3
1, 867071, Note_off_c, 0, 53, 59
1, 867079, Note_off_c, 0, 58, 38
1, 867142, Note_off_c, 0, 34, 52
1, 867148, Note_off_c, 0, 61, 40
1, 867150, Note_off_c, 0, 62, 57
1, 867362, Note_on_c, 0, 38, 63
1, 867364, Note_on_c, 0, 26, 71
1, 867373, Note_on_c, 0, 40, 40
1, 867409, Note_off_c, 0, 40, 54
1, 867447, Control_c, 0, 64, 77
1, 867459, Note_on_c, 0, 81, 83
1, 867462, Control_c, 0, 64, 0
1, 867463, Note_on_c, 0, 74, 61
1, 867465, Note_on_c, 0, 69, 77
1, 867468, Note_on_c, 0, 77, 73
1, 867535, Control_c, 0, 64, 63
1, 867550, Control_c, 0, 64, 79
1, 867565, Control_c, 0, 64, 111
1, 867580, Control_c, 0, 64, 127
1, 867594, Note_off_c, 0, 26, 58
1, 867648, Note_off_c, 0, 38, 62
1, 867812, Note_on_c, 0, 45, 64
1, 867820, Note_on_c, 0, 73, 78
1, 867824, Note_on_c, 0, 53, 64
1, 867844, Note_off_c, 0, 81, 54
1, 867856, Note_off_c, 0, 74, 63
1, 867862, Note_off_c, 0, 69, 59
1, 867863, Note_off_c, 0, 77, 61
1, 867881, Note_off_c, 0, 45, 64
1, 867891, Note_off_c, 0, 73, 65
1, 867911, Note_off_c, 0, 53, 65
1, 868044, Note_on_c, 0, 64, 80
1, 868044, Note_on_c, 0, 56, 75
1, 868046, Note_on_c, 0, 60, 67
1, 868053, Note_on_c, 0, 72, 74
1, 868053, Note_on_c, 0, 80, 86
1, 868058, Note_on_c, 0, 68, 88
1, 868062, Note_on_c, 0, 76, 78
1, 868084, Note_on_c, 0, 78, 53
1, 868106, Note_off_c, 0, 78, 62
1, 868121, Note_off_c, 0, 68, 51
1, 868139, Note_off_c, 0, 72, 60
1, 868166, Note_off_c, 0, 56, 64
1, 868186, Note_off_c, 0, 64, 36
1, 868260, Note_on_c, 0, 59, 82
1, 868268, Note_on_c, 0, 71, 77
1, 868279, Note_off_c, 0, 60, 60
1, 868291, Note_on_c, 0, 72, 33
1, 868297, Note_off_c, 0, 59, 65
1, 868321, Note_off_c, 0, 72, 54
1, 868431, Control_c, 0, 64, 91
1, 868442, Note_on_c, 0, 38, 84
1, 868446, Note_on_c, 0, 45, 72
1, 868446, Control_c, 0, 64, 70
1, 868461, Control_c, 0, 64, 63
1, 868467, Note_on_c, 0, 36, 33
1, 868476, Control_c, 0, 64, 71
1, 868491, Control_c, 0, 64, 89
1, 868495, Note_off_c, 0, 76, 59
1, 868506, Control_c, 0, 64, 127
1, 868507, Note_off_c, 0, 36, 30
1, 868515, Note_off_c, 0, 71, 62
1, 868539, Note_off_c, 0, 80, 62
1, 868560, Note_off_c, 0, 38, 62
1, 868580, Poly_aftertouch_c, 0, 43, 0
1, 868633, Note_on_c, 0, 81, 92
1, 868637, Note_on_c, 0, 69, 88
1, 868638, Note_off_c, 0, 45, 60
1, 868639, Note_on_c, 0, 72, 73
1, 868640, Note_on_c, 0, 53, 78
1, 868640, Note_on_c, 0, 77, 81
1, 868661, Note_off_c, 0, 72, 69
1, 868667, Note_off_c, 0, 69, 54
1, 868675, Note_off_c, 0, 77, 61
1, 868678, Note_off_c, 0, 53, 66
1, 868700, Note_off_c, 0, 81, 54
1, 868837, Note_on_c, 0, 63, 89
1, 868838, Note_on_c, 0, 55, 68
1, 868849, Note_on_c, 0, 59, 61
1, 868851, Note_on_c, 0, 79, 93
1, 868853, Note_on_c, 0, 71, 81
1, 868859, Note_on_c, 0, 75, 82
1, 868862, Note_on_c, 0, 67, 79
1, 868914, Note_off_c, 0, 67, 38
1, 868937, Poly_aftertouch_c, 0, 77, 127
1, 868950, Note_off_c, 0, 63, 62
1, 868960, Note_off_c, 0, 55, 52
1, 868984, Note_off_c, 0, 71, 60
1, 869040, Note_on_c, 0, 58, 81
1, 869043, Note_on_c, 0, 70, 77
1, 869045, Note_off_c, 0, 59, 54
1, 869083, Note_off_c, 0, 58, 66
1, 869210, Control_c, 0, 64, 95
1, 869225, Control_c, 0, 64, 70
1, 869228, Note_on_c, 0, 38, 88
1, 869230, Poly_aftertouch_c, 0, 77, 0
1, 869235, Note_on_c, 0, 45, 79
1, 869240, Control_c, 0, 64, 35
1, 869254, Control_c, 0, 64, 57
1, 869269, Control_c, 0, 64, 75
1, 869284, Control_c, 0, 64, 127
1, 869287, Note_off_c, 0, 75, 57
1, 869306, Note_off_c, 0, 70, 60
1, 869316, Note_off_c, 0, 79, 54
1, 869357, Poly_aftertouch_c, 0, 43, 0
1, 869361, Note_off_c, 0, 38, 53
1, 869437, Note_on_c, 0, 81, 86
1, 869442, Note_on_c, 0, 72, 66
1, 869443, Note_off_c, 0, 45, 62
1, 869445, Note_on_c, 0, 69, 75
1, 869445, Note_on_c, 0, 77, 69
1, 869454, Note_on_c, 0, 53, 71
1, 869474, Note_off_c, 0, 72, 63
1, 869476, Note_off_c, 0, 77, 63
1, 869486, Note_off_c, 0, 53, 69
1, 869499, Note_off_c, 0, 69, 53
1, 869502, Note_off_c, 0, 81, 60
1, 869674, Note_on_c, 0, 53, 51
1, 869680, Note_on_c, 0, 61, 78
1, 869692, Note_on_c, 0, 77, 82
1, 869692, Control_c, 0, 64, 111
1, 869696, Note_on_c, 0, 73, 73
1, 869697, Note_on_c, 0, 58, 63
1, 869707, Control_c, 0, 64, 84
1, 869709, Note_on_c, 0, 65, 60
1, 869709, Note_on_c, 0, 70, 58
1, 869722, Control_c, 0, 64, 71
1, 869737, Control_c, 0, 64, 74
1, 869752, Control_c, 0, 64, 87
1, 869752, Note_off_c, 0, 70, 56
1, 869767, Control_c, 0, 64, 110
1, 869782, Control_c, 0, 64, 127
1, 869859, Note_off_c, 0, 65, 30
1, 869865, Note_off_c, 0, 73, 62
1, 869880, Note_off_c, 0, 61, 57
1, 869957, Note_on_c, 0, 69, 53
1, 869959, Note_on_c, 0, 62, 71
1, 869969, Note_on_c, 0, 74, 71
1, 869970, Note_off_c, 0, 58, 53
1, 869977, Note_on_c, 0, 57, 60
1, 869982, Note_off_c, 0, 53, 24
1, 869991, Note_off_c, 0, 62, 59
1, 870035, Note_off_c, 0, 57, 60
1, 870090, Note_off_c, 0, 77, 35
1, 870262, Note_off_c, 0, 69, 53
1, 870396, Control_c, 0, 64, 115
1, 870400, Note_on_c, 0, 29, 82
1, 870411, Control_c, 0, 64, 81
1, 870426, Control_c, 0, 64, 0
1, 870493, Note_off_c, 0, 74, 30
1, 870515, Control_c, 0, 64, 66
1, 870530, Control_c, 0, 64, 87
1, 870545, Control_c, 0, 64, 127
1, 870597, Note_off_c, 0, 29, 60
1, 870777, Note_on_c, 0, 41, 51
1, 870786, Note_on_c, 0, 60, 43
1, 870791, Note_on_c, 0, 48, 34
1, 870803, Note_on_c, 0, 69, 54
1, 870807, Note_on_c, 0, 65, 38
1, 870831, Note_on_c, 0, 51, 51
1, 870891, Note_off_c, 0, 41, 56
1, 870938, Note_off_c, 0, 51, 60
1, 870971, Note_off_c, 0, 48, 39
1, 871040, Note_off_c, 0, 65, 33
1, 871064, Note_on_c, 0, 57, 57
1, 871066, Note_off_c, 0, 60, 38
1, 871087, Note_on_c, 0, 51, 47
1, 871099, Note_on_c, 0, 48, 51
1, 871120, Note_on_c, 0, 72, 81
1, 871138, Note_off_c, 0, 57, 38
1, 871138, Note_on_c, 0, 65, 52
1, 871183, Note_off_c, 0, 51, 57
1, 871207, Note_off_c, 0, 69, 37
1, 871265, Note_off_c, 0, 48, 35
1, 871335, Note_off_c, 0, 65, 0
1, 871338, Note_on_c, 0, 41, 57
1, 871353, Note_on_c, 0, 48, 59
1, 871353, Note_on_c, 0, 65, 29
1, 871356, Note_on_c, 0, 69, 64
1, 871360, Note_on_c, 0, 51, 58
1, 871373, Note_on_c, 0, 60, 42
1, 871388, Note_off_c, 0, 41, 62
1, 871395, Note_off_c, 0, 72, 60
1, 871397, Note_off_c, 0, 48, 63
1, 871397, Note_off_c, 0, 65, 62
1, 871403, Note_off_c, 0, 60, 55
1, 871412, Note_off_c, 0, 69, 63
1, 871419, Note_off_c, 0, 51, 63
1, 871570, Note_on_c, 0, 57, 53
1, 871570, Note_on_c, 0, 63, 79
1, 871583, Note_on_c, 0, 77, 100
1, 871586, Note_on_c, 0, 53, 60
1, 871609, Note_on_c, 0, 69, 52
1, 871627, Note_off_c, 0, 69, 63
1, 871637, Note_off_c, 0, 63, 63
1, 871656, Note_off_c, 0, 57, 58
1, 871684, Note_off_c, 0, 53, 55
1, 871764, Note_on_c, 0, 57, 69
1, 871774, Note_on_c, 0, 53, 39
1, 871779, Note_on_c, 0, 48, 82
1, 871788, Note_on_c, 0, 72, 80
1, 871788, Note_off_c, 0, 57, 68
1, 871792, Note_on_c, 0, 69, 53
1, 871801, Note_off_c, 0, 53, 65
1, 871804, Note_on_c, 0, 65, 67
1, 871824, Note_off_c, 0, 77, 63
1, 871827, Note_off_c, 0, 48, 64
1, 871941, Note_off_c, 0, 65, 36
1, 871975, Note_off_c, 0, 69, 60
1, 871993, Note_off_c, 0, 72, 63
1, 872033, Note_on_c, 0, 29, 91
1, 872037, Poly_aftertouch_c, 0, 32, 127
1, 872057, Control_c, 0, 64, 96
1, 872071, Control_c, 0, 64, 66
1, 872073, Poly_aftertouch_c, 0, 32, 0
1, 872076, Note_on_c, 0, 79, 92
1, 872086, Control_c, 0, 64, 0
1, 872116, Control_c, 0, 64, 64
1, 872131, Control_c, 0, 64, 82
1, 872146, Control_c, 0, 64, 127
1, 872186, Note_off_c, 0, 29, 63
1, 872211, Note_off_c, 0, 79, 60
1, 872359, Note_on_c, 0, 48, 63
1, 872362, Note_on_c, 0, 41, 54
1, 872369, Note_on_c, 0, 51, 68
1, 872403, Note_on_c, 0, 68, 57
1, 872405, Note_on_c, 0, 60, 50
1, 872405, Note_on_c, 0, 63, 51
1, 872458, Note_off_c, 0, 41, 54
1, 872497, Note_off_c, 0, 51, 58
1, 872505, Note_off_c, 0, 48, 51
1, 872545, Note_off_c, 0, 60, 39
1, 872551, Note_off_c, 0, 68, 55
1, 872584, Note_off_c, 0, 63, 0
1, 872594, Note_on_c, 0, 56, 80
1, 872602, Note_on_c, 0, 72, 85
1, 872608, Note_on_c, 0, 63, 35
1, 872619, Note_on_c, 0, 68, 40
1, 872619, Note_on_c, 0, 51, 58
1, 872625, Note_on_c, 0, 48, 49
1, 872645, Note_off_c, 0, 56, 62
1, 872661, Note_off_c, 0, 51, 58
1, 872662, Note_off_c, 0, 63, 53
1, 872666, Note_off_c, 0, 68, 54
1, 872767, Note_off_c, 0, 48, 0
1, 872767, Note_on_c, 0, 48, 18
1, 872781, Note_on_c, 0, 41, 72
1, 872783, Note_on_c, 0, 51, 73
1, 872791, Note_on_c, 0, 60, 72
1, 872794, Note_on_c, 0, 68, 75
1, 872795, Note_on_c, 0, 63, 68
1, 872813, Note_off_c, 0, 72, 61
1, 872816, Note_off_c, 0, 60, 69
1, 872819, Note_off_c, 0, 41, 64
1, 872820, Note_off_c, 0, 63, 67
1, 872825, Note_off_c, 0, 48, 63
1, 872837, Note_off_c, 0, 68, 60
1, 872852, Note_off_c, 0, 51, 64
1, 872968, Note_on_c, 0, 63, 82
1, 872969, Note_on_c, 0, 53, 70
1, 872974, Note_on_c, 0, 77, 95
1, 872982, Note_on_c, 0, 56, 64
1, 873011, Note_off_c, 0, 56, 64
1, 873024, Note_off_c, 0, 63, 57
1, 873129, Note_off_c, 0, 53, 0
1, 873144, Note_on_c, 0, 53, 46
1, 873146, Note_on_c, 0, 56, 83
1, 873165, Note_on_c, 0, 48, 76
1, 873177, Note_off_c, 0, 56, 65
1, 873180, Note_on_c, 0, 72, 74
1, 873181, Note_off_c, 0, 53, 65
1, 873183, Note_on_c, 0, 68, 73
1, 873188, Note_on_c, 0, 65, 67
1, 873190, Note_off_c, 0, 48, 65
1, 873255, Note_off_c, 0, 68, 59
1, 873287, Note_off_c, 0, 72, 57
1, 873290, Note_off_c, 0, 65, 58
1, 873317, Control_c, 0, 64, 117
1, 873332, Control_c, 0, 64, 76
1, 873342, Note_on_c, 0, 29, 98
1, 873347, Control_c, 0, 64, 0
1, 873392, Control_c, 0, 64, 68
1, 873406, Control_c, 0, 64, 98
1, 873421, Note_off_c, 0, 29, 63
1, 873422, Control_c, 0, 64, 127
1, 873440, Note_off_c, 0, 77, 43
1, 873530, Note_on_c, 0, 65, 80
1, 873533, Note_on_c, 0, 69, 80
1, 873545, Note_on_c, 0, 41, 60
1, 873551, Note_on_c, 0, 48, 73
1, 873560, Note_on_c, 0, 51, 67
1, 873577, Note_off_c, 0, 41, 59
1, 873612, Note_off_c, 0, 51, 62
1, 873618, Note_off_c, 0, 48, 60
1, 873692, Note_on_c, 0, 57, 81
1, 873710, Note_on_c, 0, 76, 101
1, 873714, Note_on_c, 0, 51, 71
1, 873720, Note_off_c, 0, 57, 61
1, 873722, Note_on_c, 0, 72, 77
1, 873726, Note_on_c, 0, 48, 65
1, 873760, Note_off_c, 0, 51, 57
1, 873845, Note_off_c, 0, 72, 56
1, 873845, Note_off_c, 0, 48, 0
1, 873865, Note_on_c, 0, 48, 37
1, 873879, Note_on_c, 0, 41, 78
1, 873890, Note_on_c, 0, 51, 75
1, 873909, Note_off_c, 0, 65, 0
1, 873921, Note_on_c, 0, 72, 66
1, 873927, Note_on_c, 0, 65, 24
1, 873927, Note_off_c, 0, 41, 62
1, 873928, Note_off_c, 0, 48, 63
1, 873948, Note_off_c, 0, 51, 66
1, 874074, Note_on_c, 0, 63, 94
1, 874085, Note_on_c, 0, 57, 68
1, 874085, Note_off_c, 0, 76, 44
1, 874087, Note_on_c, 0, 53, 73
1, 874088, Note_on_c, 0, 54, 41
1, 874108, Note_off_c, 0, 72, 55
1, 874134, Note_off_c, 0, 54, 60
1, 874143, Note_off_c, 0, 63, 58
1, 874169, Note_off_c, 0, 65, 37
1, 874174, Note_off_c, 0, 57, 56
1, 874197, Note_off_c, 0, 53, 53
1, 874241, Note_off_c, 0, 69, 50
1, 874256, Note_on_c, 0, 53, 44
1, 874265, Note_on_c, 0, 57, 64
1, 874276, Note_on_c, 0, 48, 75
1, 874280, Note_on_c, 0, 69, 61
1, 874289, Note_on_c, 0, 77, 96
1, 874290, Note_on_c, 0, 72, 75
1, 874295, Note_on_c, 0, 65, 89
1, 874302, Note_off_c, 0, 57, 64
1, 874309, Note_off_c, 0, 53, 56
1, 874349, Note_off_c, 0, 48, 64
1, 874429, Note_on_c, 0, 74, 27
1, 874470, Note_off_c, 0, 69, 61
1, 874474, Note_off_c, 0, 74, 50
1, 874497, Note_off_c, 0, 65, 61
1, 874502, Note_off_c, 0, 77, 59
1, 874507, Note_on_c, 0, 38, 82
1, 874509, Note_off_c, 0, 72, 62
1, 874578, Note_on_c, 0, 77, 90
1, 874581, Note_on_c, 0, 68, 75
1, 874581, Note_on_c, 0, 72, 70
1, 874584, Note_on_c, 0, 65, 80
1, 874593, Control_c, 0, 64, 88
1, 874608, Control_c, 0, 64, 58
1, 874623, Control_c, 0, 64, 0
1, 874667, Control_c, 0, 64, 50
1, 874682, Control_c, 0, 64, 72
1, 874697, Control_c, 0, 64, 92
1, 874712, Control_c, 0, 64, 127
1, 874799, Note_off_c, 0, 77, 57
1, 874825, Note_on_c, 0, 50, 69
1, 874825, Note_off_c, 0, 65, 63
1, 874831, Note_off_c, 0, 38, 33
1, 874839, Note_off_c, 0, 72, 60
1, 874840, Note_on_c, 0, 44, 63
1, 874904, Note_on_c, 0, 76, 81
1, 874908, Note_on_c, 0, 64, 81
1, 874918, Note_on_c, 0, 72, 69
1, 874949, Note_off_c, 0, 44, 60
1, 874983, Note_off_c, 0, 50, 36
1, 875076, Note_off_c, 0, 64, 64
1, 875081, Note_off_c, 0, 76, 60
1, 875095, Note_on_c, 0, 60, 80
1, 875100, Note_off_c, 0, 72, 59
1, 875103, Note_on_c, 0, 51, 65
1, 875127, Control_c, 0, 64, 115
1, 875140, Note_on_c, 0, 76, 82
1, 875141, Note_on_c, 0, 64, 92
1, 875141, Control_c, 0, 64, 91
1, 875143, Note_on_c, 0, 72, 61
1, 875155, Note_off_c, 0, 60, 52
1, 875156, Control_c, 0, 64, 89
1, 875171, Control_c, 0, 64, 98
1, 875186, Control_c, 0, 64, 127
1, 875258, Note_off_c, 0, 64, 64
1, 875261, Note_off_c, 0, 76, 63
1, 875279, Note_off_c, 0, 51, 62
1, 875282, Note_off_c, 0, 72, 61
1, 875317, Note_on_c, 0, 45, 73
1, 875324, Note_on_c, 0, 52, 79
1, 875329, Note_off_c, 0, 68, 0
1, 875341, Note_on_c, 0, 72, 52
1, 875344, Note_on_c, 0, 63, 100
1, 875348, Note_on_c, 0, 75, 91
1, 875366, Poly_aftertouch_c, 0, 68, 127
1, 875398, Note_off_c, 0, 45, 62
1, 875427, Note_off_c, 0, 52, 61
1, 875445, Note_off_c, 0, 63, 58
1, 875451, Note_off_c, 0, 75, 60
1, 875493, Poly_aftertouch_c, 0, 68, 0
1, 875505, Note_on_c, 0, 60, 86
1, 875516, Note_on_c, 0, 53, 72
1, 875525, Note_on_c, 0, 63, 101
1, 875527, Note_on_c, 0, 54, 32
1, 875529, Note_on_c, 0, 75, 92
1, 875567, Note_off_c, 0, 60, 61
1, 875630, Note_off_c, 0, 54, 41
1, 875633, Note_off_c, 0, 63, 61
1, 875635, Note_off_c, 0, 75, 64
1, 875690, Note_off_c, 0, 72, 42
1, 875708, Note_on_c, 0, 54, 97
1, 875727, Note_on_c, 0, 45, 72
1, 875738, Note_on_c, 0, 50, 41
1, 875749, Note_on_c, 0, 62, 97
1, 875752, Note_on_c, 0, 74, 94
1, 875763, Note_off_c, 0, 54, 64
1, 875769, Note_off_c, 0, 53, 60
1, 875773, Note_off_c, 0, 50, 57
1, 875806, Note_off_c, 0, 45, 65
1, 875817, Note_on_c, 0, 71, 16
1, 875987, Note_off_c, 0, 74, 58
1, 876005, Note_on_c, 0, 31, 102
1, 876007, Note_off_c, 0, 62, 49
1, 876020, Note_off_c, 0, 71, 43
1, 876025, Control_c, 0, 64, 87
1, 876047, Control_c, 0, 64, 0
1, 876080, Note_on_c, 0, 38, 3
1, 876106, Control_c, 0, 64, 63
1, 876113, Note_off_c, 0, 38, 53
1, 876121, Control_c, 0, 64, 89
1, 876136, Control_c, 0, 64, 127
1, 876140, Note_off_c, 0, 31, 62
1, 876270, Note_on_c, 0, 71, 88
1, 876271, Note_on_c, 0, 62, 84
1, 876272, Note_on_c, 0, 67, 73
1, 876285, Note_on_c, 0, 43, 62
1, 876285, Note_on_c, 0, 53, 75
1, 876289, Note_on_c, 0, 50, 61
1, 876319, Note_off_c, 0, 43, 57
1, 876378, Note_off_c, 0, 62, 58
1, 876384, Note_off_c, 0, 53, 59
1, 876387, Note_off_c, 0, 50, 63
1, 876420, Note_off_c, 0, 67, 57
1, 876421, Note_off_c, 0, 71, 60
1, 876464, Note_on_c, 0, 74, 107
1, 876466, Note_on_c, 0, 59, 92
1, 876478, Note_on_c, 0, 51, 56
1, 876478, Note_on_c, 0, 71, 61
1, 876481, Note_on_c, 0, 67, 63
1, 876489, Note_on_c, 0, 53, 58
1, 876505, Note_on_c, 0, 50, 59
1, 876510, Note_off_c, 0, 59, 63
1, 876513, Note_off_c, 0, 51, 62
1, 876513, Note_off_c, 0, 71, 56
1, 876531, Note_off_c, 0, 67, 54
1, 876545, Note_off_c, 0, 53, 55
1, 876569, Note_off_c, 0, 50, 61
1, 876632, Note_off_c, 0, 74, 56
1, 876637, Note_on_c, 0, 71, 77
1, 876640, Note_on_c, 0, 43, 86
1, 876641, Note_on_c, 0, 50, 62
1, 876644, Note_on_c, 0, 53, 80
1, 876647, Note_on_c, 0, 62, 73
1, 876651, Note_on_c, 0, 67, 68
1, 876666, Note_off_c, 0, 62, 70
1, 876674, Note_off_c, 0, 43, 64
1, 876674, Note_off_c, 0, 67, 67
1, 876700, Note_off_c, 0, 50, 62
1, 876700, Note_off_c, 0, 71, 65
1, 876700, Note_off_c, 0, 53, 64
1, 876821, Note_on_c, 0, 79, 108
1, 876832, Note_on_c, 0, 65, 89
1, 876834, Note_on_c, 0, 59, 73
1, 876836, Note_on_c, 0, 71, 77
1, 876837, Note_on_c, 0, 55, 70
1, 876855, Note_off_c, 0, 71, 72
1, 876860, Note_on_c, 0, 74, 41
1, 876864, Note_on_c, 0, 56, 38
1, 876869, Note_on_c, 0, 77, 19
1, 876885, Note_off_c, 0, 55, 53
1, 876886, Note_off_c, 0, 65, 60
1, 876888, Note_off_c, 0, 74, 60
1, 876898, Note_off_c, 0, 56, 53
1, 876918, Note_off_c, 0, 77, 28
1, 876920, Note_off_c, 0, 59, 48
1, 876995, Note_on_c, 0, 59, 80
1, 877001, Note_off_c, 0, 79, 57
1, 877001, Note_on_c, 0, 55, 76
1, 877004, Note_on_c, 0, 71, 60
1, 877004, Note_on_c, 0, 74, 74
1, 877020, Note_on_c, 0, 67, 84
1, 877029, Note_off_c, 0, 55, 65
1, 877034, Note_off_c, 0, 59, 63
1, 877133, Note_off_c, 0, 67, 49
1, 877174, Note_off_c, 0, 71, 62
1, 877192, Note_off_c, 0, 74, 63
1, 877219, Note_on_c, 0, 31, 96
1, 877240, Control_c, 0, 64, 86
1, 877255, Control_c, 0, 64, 55
1, 877263, Note_on_c, 0, 80, 99
1, 877270, Control_c, 0, 64, 0
1, 877299, Control_c, 0, 64, 77
1, 877314, Control_c, 0, 64, 127
1, 877356, Note_off_c, 0, 80, 66
1, 877361, Note_off_c, 0, 31, 60
1, 877490, Note_on_c, 0, 43, 65
1, 877496, Note_on_c, 0, 53, 73
1, 877498, Note_on_c, 0, 49, 69
1, 877516, Note_on_c, 0, 70, 70
1, 877517, Note_on_c, 0, 61, 70
1, 877523, Note_on_c, 0, 65, 59
1, 877527, Note_off_c, 0, 43, 61
1, 877574, Note_off_c, 0, 61, 51
1, 877592, Note_off_c, 0, 49, 58
1, 877632, Note_off_c, 0, 65, 34
1, 877633, Note_off_c, 0, 70, 60
1, 877636, Note_off_c, 0, 53, 58
1, 877682, Note_on_c, 0, 58, 89
1, 877687, Note_on_c, 0, 53, 51
1, 877688, Note_on_c, 0, 73, 88
1, 877696, Note_on_c, 0, 49, 69
1, 877702, Note_on_c, 0, 65, 53
1, 877722, Note_off_c, 0, 58, 64
1, 877731, Note_on_c, 0, 70, 40
1, 877759, Note_off_c, 0, 70, 55
1, 877761, Note_off_c, 0, 53, 64
1, 877765, Note_off_c, 0, 49, 60
1, 877845, Note_on_c, 0, 49, 86
1, 877846, Note_on_c, 0, 43, 81
1, 877848, Note_on_c, 0, 70, 72
1, 877855, Note_on_c, 0, 61, 82
1, 877857, Note_on_c, 0, 53, 65
1, 877879, Note_off_c, 0, 61, 67
1, 877882, Note_off_c, 0, 43, 65
1, 877887, Note_off_c, 0, 53, 63
1, 877887, Note_off_c, 0, 65, 23
1, 877892, Note_off_c, 0, 73, 60
1, 877908, Note_off_c, 0, 49, 61
1, 877918, Note_off_c, 0, 70, 65
1, 878019, Note_on_c, 0, 79, 99
1, 878032, Note_on_c, 0, 65, 80
1, 878045, Note_on_c, 0, 70, 65
1, 878047, Note_on_c, 0, 59, 57
1, 878058, Note_on_c, 0, 67, 34
1, 878063, Note_on_c, 0, 73, 43
1, 878066, Note_off_c, 0, 70, 63
1, 878078, Note_off_c, 0, 59, 63
1, 878078, Note_off_c, 0, 65, 60
1, 878089, Note_off_c, 0, 73, 57
1, 878094, Note_off_c, 0, 67, 53
1, 878097, Note_on_c, 0, 57, 2
1, 878125, Poly_aftertouch_c, 0, 55, 0
1, 878139, Note_off_c, 0, 57, 50
1, 878182, Note_on_c, 0, 58, 74
1, 878192, Note_on_c, 0, 73, 70
1, 878206, Note_on_c, 0, 67, 75
1, 878206, Note_on_c, 0, 55, 46
1, 878212, Note_on_c, 0, 56, 55
1, 878222, Note_on_c, 0, 70, 41
1, 878227, Note_off_c, 0, 58, 63
1, 878233, Note_off_c, 0, 55, 55
1, 878239, Note_off_c, 0, 56, 65
1, 878245, Note_off_c, 0, 70, 60
1, 878253, Note_on_c, 0, 57, 4
1, 878298, Note_off_c, 0, 57, 0
1, 878322, Poly_aftertouch_c, 0, 57, 0
1, 878342, Note_off_c, 0, 67, 56
1, 878382, Control_c, 0, 64, 119
1, 878387, Note_on_c, 0, 31, 101
1, 878393, Note_off_c, 0, 79, 43
1, 878396, Control_c, 0, 64, 70
1, 878411, Control_c, 0, 64, 0
1, 878437, Note_on_c, 0, 36, 6
1, 878438, Note_off_c, 0, 36, 127
1, 878441, Control_c, 0, 64, 30
1, 878456, Control_c, 0, 64, 70
1, 878471, Control_c, 0, 64, 96
1, 878480, Note_off_c, 0, 31, 62
1, 878485, Control_c, 0, 64, 127
1, 878498, Poly_aftertouch_c, 0, 36, 0
1, 878551, Note_off_c, 0, 73, 63
1, 878592, Note_on_c, 0, 49, 74
1, 878593, Note_on_c, 0, 74, 92
1, 878597, Note_on_c, 0, 66, 88
1, 878605, Note_on_c, 0, 71, 71
1, 878621, Note_on_c, 0, 43, 45
1, 878631, Note_on_c, 0, 53, 42
1, 878635, Note_on_c, 0, 52, 43
1, 878652, Note_off_c, 0, 43, 54
1, 878665, Note_off_c, 0, 49, 64
1, 878667, Note_off_c, 0, 52, 53
1, 878671, Note_off_c, 0, 53, 59
1, 878705, Note_off_c, 0, 66, 58
1, 878763, Note_off_c, 0, 71, 0
1, 878767, Note_on_c, 0, 59, 89
1, 878775, Note_on_c, 0, 78, 100
1, 878779, Note_on_c, 0, 71, 48
1, 878785, Note_on_c, 0, 50, 67
1, 878786, Note_on_c, 0, 53, 59
1, 878804, Note_off_c, 0, 59, 53
1, 878810, Note_on_c, 0, 57, 34
1, 878811, Note_off_c, 0, 57, 127
1, 878840, Note_off_c, 0, 53, 54
1, 878845, Poly_aftertouch_c, 0, 57, 0
1, 878888, Note_off_c, 0, 74, 47
1, 878895, Note_off_c, 0, 50, 37
1, 878942, Note_on_c, 0, 50, 68
1, 878944, Note_on_c, 0, 74, 55
1, 878945, Note_on_c, 0, 43, 83
1, 878951, Note_on_c, 0, 53, 75
1, 878963, Note_on_c, 0, 66, 77
1, 878979, Note_off_c, 0, 43, 65
1, 878994, Note_off_c, 0, 50, 64
1, 879007, Note_off_c, 0, 53, 64
1, 879119, Note_off_c, 0, 66, 58
1, 879133, Note_on_c, 0, 65, 96
1, 879139, Note_on_c, 0, 55, 74
1, 879139, Note_on_c, 0, 59, 78
1, 879151, Note_off_c, 0, 74, 62
1, 879162, Note_on_c, 0, 56, 50
1, 879174, Note_off_c, 0, 78, 53
1, 879195, Note_off_c, 0, 56, 51
1, 879207, Note_off_c, 0, 55, 55
1, 879214, Note_off_c, 0, 65, 55
1, 879241, Note_off_c, 0, 59, 57
1, 879315, Note_on_c, 0, 59, 69
1, 879323, Note_on_c, 0, 55, 80
1, 879329, Note_on_c, 0, 67, 93
1, 879331, Note_on_c, 0, 74, 80
1, 879332, Note_on_c, 0, 79, 94
1, 879356, Note_off_c, 0, 55, 60
1, 879359, Note_off_c, 0, 59, 60
1, 879475, Poly_aftertouch_c, 0, 76, 127
1, 879514, Note_off_c, 0, 71, 57
1, 879521, Note_off_c, 0, 67, 54
1, 879521, Poly_aftertouch_c, 0, 76, 0
1, 879524, Note_off_c, 0, 79, 55
1, 879532, Note_off_c, 0, 74, 61
1, 879538, Note_on_c, 0, 40, 86
1, 879590, Control_c, 0, 64, 74
1, 879601, Note_on_c, 0, 74, 62
1, 879604, Note_on_c, 0, 79, 78
1, 879605, Note_on_c, 0, 67, 75
1, 879605, Control_c, 0, 64, 0
1, 879608, Note_on_c, 0, 70, 64
1, 879679, Control_c, 0, 64, 21
1, 879694, Control_c, 0, 64, 86
1, 879708, Control_c, 0, 64, 127
1, 879714, Note_on_c, 0, 76, 39
1, 879738, Note_off_c, 0, 79, 60
1, 879759, Note_off_c, 0, 67, 59
1, 879786, Note_off_c, 0, 76, 56
1, 879789, Note_on_c, 0, 48, 20
1, 879797, Note_off_c, 0, 74, 64
1, 879799, Note_off_c, 0, 40, 50
1, 879826, Note_off_c, 0, 70, 61
1, 879831, Note_on_c, 0, 52, 75
1, 879842, Note_on_c, 0, 44, 18
1, 879845, Note_on_c, 0, 46, 66
1, 879884, Note_on_c, 0, 78, 83
1, 879887, Note_on_c, 0, 66, 86
1, 879889, Note_off_c, 0, 48, 39
1, 879893, Note_off_c, 0, 44, 59
1, 879899, Note_on_c, 0, 74, 74
1, 879900, Note_on_c, 0, 70, 47
1, 879905, Note_off_c, 0, 52, 59
1, 879920, Note_off_c, 0, 46, 61
1, 880013, Note_off_c, 0, 66, 56
1, 880015, Note_off_c, 0, 78, 59
1, 880046, Note_off_c, 0, 74, 62
1, 880049, Note_off_c, 0, 70, 59
1, 880054, Note_on_c, 0, 62, 83
1, 880073, Note_on_c, 0, 53, 53
1, 880087, Poly_aftertouch_c, 0, 74, 0
1, 880088, Note_on_c, 0, 66, 92
1, 880089, Note_on_c, 0, 78, 88
1, 880092, Note_on_c, 0, 70, 52
1, 880095, Note_on_c, 0, 74, 60
1, 880101, Note_off_c, 0, 62, 62
1, 880131, Poly_aftertouch_c, 0, 51, 127
1, 880163, Poly_aftertouch_c, 0, 51, 0
1, 880190, Note_off_c, 0, 53, 64
1, 880197, Note_off_c, 0, 66, 61
1, 880210, Note_off_c, 0, 78, 60
1, 880251, Note_on_c, 0, 54, 85
1, 880255, Note_off_c, 0, 70, 0
1, 880258, Note_on_c, 0, 46, 86
1, 880273, Note_on_c, 0, 70, 40
1, 880274, Note_on_c, 0, 77, 90
1, 880277, Note_on_c, 0, 65, 92
1, 880330, Note_off_c, 0, 46, 61
1, 880331, Note_on_c, 0, 67, 11
1, 880335, Note_off_c, 0, 54, 62
1, 880363, Note_off_c, 0, 65, 58
1, 880364, Note_off_c, 0, 77, 60
1, 880382, Note_off_c, 0, 67, 39
1, 880419, Note_off_c, 0, 74, 0
1, 880421, Note_off_c, 0, 70, 0
1, 880423, Note_on_c, 0, 62, 92
1, 880424, Note_on_c, 0, 55, 74
1, 880444, Note_on_c, 0, 65, 98
1, 880444, Note_on_c, 0, 77, 95
1, 880447, Note_on_c, 0, 70, 32
1, 880447, Note_on_c, 0, 74, 41
1, 880476, Note_off_c, 0, 62, 57
1, 880556, Poly_aftertouch_c, 0, 53, 127
1, 880558, Note_off_c, 0, 77, 55
1, 880564, Note_off_c, 0, 65, 53
1, 880601, Note_off_c, 0, 74, 62
1, 880605, Note_off_c, 0, 70, 62
1, 880628, Note_on_c, 0, 56, 107
1, 880642, Note_on_c, 0, 46, 78
1, 880649, Note_off_c, 0, 55, 60
1, 880660, Poly_aftertouch_c, 0, 53, 0
1, 880665, Note_on_c, 0, 64, 92
1, 880671, Note_on_c, 0, 76, 91
1, 880673, Note_off_c, 0, 56, 64
1, 880692, Note_on_c, 0, 73, 66
1, 880705, Note_off_c, 0, 64, 66
1, 880710, Note_off_c, 0, 73, 64
1, 880712, Note_off_c, 0, 46, 61
1, 880757, Note_off_c, 0, 76, 57
1, 880855, Note_on_c, 0, 39, 40
1, 880910, Control_c, 0, 64, 74
1, 880912, Note_on_c, 0, 45, 97
1, 880912, Note_off_c, 0, 39, 41
1, 880922, Note_on_c, 0, 33, 80
1, 880925, Control_c, 0, 64, 0
1, 880984, Control_c, 0, 64, 64
1, 880987, Note_on_c, 0, 35, 3
1, 880988, Note_off_c, 0, 35, 127
1, 880999, Control_c, 0, 64, 100
1, 881014, Control_c, 0, 64, 127
1, 881025, Note_off_c, 0, 33, 57
1, 881062, Note_off_c, 0, 45, 65
1, 881226, Note_on_c, 0, 61, 82
1, 881226, Note_on_c, 0, 73, 83
1, 881231, Note_on_c, 0, 69, 72
1, 881234, Note_on_c, 0, 52, 57
1, 881236, Note_on_c, 0, 55, 56
1, 881275, Note_off_c, 0, 52, 57
1, 881312, Note_off_c, 0, 69, 53
1, 881324, Note_off_c, 0, 61, 53
1, 881346, Note_off_c, 0, 55, 53
1, 881369, Note_off_c, 0, 73, 47
1, 881464, Note_on_c, 0, 76, 96
1, 881470, Note_on_c, 0, 61, 85
1, 881485, Note_on_c, 0, 55, 63
1, 881487, Note_on_c, 0, 52, 60
1, 881507, Note_on_c, 0, 73, 39
1, 881535, Note_off_c, 0, 73, 55
1, 881541, Note_off_c, 0, 52, 49
1, 881548, Note_off_c, 0, 55, 59
1, 881569, Note_off_c, 0, 61, 55
1, 881660, Note_on_c, 0, 62, 91
1, 881661, Note_on_c, 0, 74, 80
1, 881664, Note_on_c, 0, 69, 76
1, 881668, Note_on_c, 0, 53, 75
1, 881668, Note_on_c, 0, 57, 72
1, 881739, Note_off_c, 0, 62, 50
1, 881748, Note_off_c, 0, 76, 54
1, 881750, Note_off_c, 0, 69, 57
1, 881771, Note_off_c, 0, 57, 57
1, 881773, Note_off_c, 0, 74, 60
1, 881775, Note_off_c, 0, 53, 38
1, 881820, Note_on_c, 0, 81, 96
1, 881825, Note_on_c, 0, 74, 78
1, 881827, Note_on_c, 0, 62, 93
1, 881831, Note_on_c, 0, 69, 76
1, 881833, Note_on_c, 0, 53, 60
1, 881841, Note_on_c, 0, 57, 55
1, 881857, Note_off_c, 0, 69, 68
1, 881863, Note_on_c, 0, 55, 45
1, 881874, Note_off_c, 0, 53, 63
1, 881875, Note_off_c, 0, 62, 59
1, 881878, Note_off_c, 0, 74, 64
1, 881895, Note_off_c, 0, 55, 54
1, 881896, Note_off_c, 0, 81, 60
1, 881926, Note_off_c, 0, 57, 54
1, 881991, Note_on_c, 0, 63, 100
1, 881992, Note_on_c, 0, 60, 72
1, 881994, Note_on_c, 0, 75, 95
1, 881998, Note_on_c, 0, 54, 78
1, 881999, Note_on_c, 0, 70, 82
1, 882025, Note_off_c, 0, 70, 62
1, 882084, Note_off_c, 0, 75, 59
1, 882087, Note_off_c, 0, 54, 61
1, 882092, Note_off_c, 0, 63, 57
1, 882169, Note_off_c, 0, 60, 0
1, 882182, Note_on_c, 0, 60, 55
1, 882183, Note_on_c, 0, 63, 102
1, 882184, Control_c, 0, 64, 84
1, 882185, Note_on_c, 0, 82, 99
1, 882189, Note_on_c, 0, 54, 91
1, 882191, Note_on_c, 0, 70, 91
1, 882191, Note_on_c, 0, 75, 81
1, 882199, Control_c, 0, 64, 34
1, 882215, Control_c, 0, 64, 0
1, 882245, Control_c, 0, 64, 75
1, 882251, Note_off_c, 0, 70, 59
1, 882260, Control_c, 0, 64, 127
1, 882313, Note_off_c, 0, 60, 61
1, 882320, Note_off_c, 0, 54, 63
1, 882320, Note_off_c, 0, 75, 58
1, 882325, Note_off_c, 0, 63, 57
1, 882400, Note_on_c, 0, 64, 97
1, 882406, Note_on_c, 0, 55, 80
1, 882408, Note_on_c, 0, 76, 86
1, 882412, Note_on_c, 0, 61, 80
1, 882415, Note_on_c, 0, 70, 87
1, 882478, Note_off_c, 0, 70, 53
1, 882497, Note_off_c, 0, 64, 54
1, 882504, Note_off_c, 0, 55, 56
1, 882507, Note_off_c, 0, 76, 55
1, 882534, Note_off_c, 0, 61, 57
1, 882596, Note_on_c, 0, 64, 99
1, 882600, Note_on_c, 0, 70, 84
1, 882602, Note_on_c, 0, 76, 83
1, 882603, Note_on_c, 0, 55, 83
1, 882608, Note_on_c, 0, 61, 77
1, 882643, Note_off_c, 0, 70, 64
1, 882659, Note_off_c, 0, 82, 60
1, 882668, Note_off_c, 0, 55, 59
1, 882668, Note_off_c, 0, 76, 56
1, 882681, Note_off_c, 0, 64, 58
1, 882725, Note_off_c, 0, 61, 58
1, 882795, Note_on_c, 0, 71, 96
1, 882798, Note_on_c, 0, 77, 94
1, 882801, Note_on_c, 0, 65, 93
1, 882805, Note_on_c, 0, 62, 70
1, 882811, Note_on_c, 0, 56, 82
1, 882888, Note_off_c, 0, 71, 59
1, 882897, Note_off_c, 0, 65, 56
1, 882903, Note_off_c, 0, 56, 58
1, 882943, Note_off_c, 0, 62, 56
1, 882951, Note_off_c, 0, 77, 59
1, 883010, Note_on_c, 0, 71, 96
1, 883011, Note_on_c, 0, 77, 87
1, 883013, Note_on_c, 0, 83, 96
1, 883016, Note_on_c, 0, 65, 103
1, 883021, Note_on_c, 0, 56, 90
1, 883023, Note_on_c, 0, 62, 72
1, 883081, Note_on_c, 0, 60, 7
1, 883108, Note_off_c, 0, 65, 56
1, 883117, Note_off_c, 0, 71, 56
1, 883118, Note_off_c, 0, 56, 57
1, 883153, Note_off_c, 0, 62, 58
1, 883194, Note_off_c, 0, 77, 52
1, 883207, Note_off_c, 0, 83, 57
1, 883249, Note_on_c, 0, 72, 97
1, 883250, Note_on_c, 0, 78, 101
1, 883254, Note_on_c, 0, 66, 109
1, 883261, Note_on_c, 0, 57, 79
1, 883274, Note_on_c, 0, 63, 72
1, 883276, Note_off_c, 0, 60, 0
1, 883295, Note_off_c, 0, 66, 62
1, 883314, Note_off_c, 0, 57, 62
1, 883314, Poly_aftertouch_c, 0, 60, 127
1, 883315, Note_off_c, 0, 63, 52
1, 883335, Note_off_c, 0, 78, 61
1, 883340, Poly_aftertouch_c, 0, 59, 127
1, 883360, Poly_aftertouch_c, 0, 60, 0
1, 883369, Poly_aftertouch_c, 0, 59, 0
1, 883440, Note_off_c, 0, 72, 28
1, 883571, Note_on_c, 0, 50, 101
1, 883573, Note_on_c, 0, 78, 70
1, 883578, Note_on_c, 0, 72, 102
1, 883578, Control_c, 0, 64, 79
1, 883580, Note_on_c, 0, 84, 99
1, 883583, Note_on_c, 0, 38, 83
1, 883593, Control_c, 0, 64, 47
1, 883604, Note_on_c, 0, 83, 67
1, 883607, Control_c, 0, 64, 62
1, 883613, Note_on_c, 0, 39, 32
1, 883622, Note_off_c, 0, 38, 59
1, 883622, Control_c, 0, 64, 80
1, 883637, Control_c, 0, 64, 127
1, 883658, Note_off_c, 0, 39, 52
1, 883694, Note_off_c, 0, 50, 63
1, 883752, Note_off_c, 0, 83, 40
1, 883781, Note_off_c, 0, 72, 56
1, 883816, Note_off_c, 0, 78, 60
1, 883823, Note_off_c, 0, 84, 55
1, 883893, Poly_aftertouch_c, 0, 83, 127
1, 883896, Note_on_c, 0, 83, 38
1, 883900, Note_on_c, 0, 71, 105
1, 883904, Note_on_c, 0, 61, 84
1, 883904, Note_on_c, 0, 73, 97
1, 883914, Note_on_c, 0, 59, 70
1, 883915, Note_on_c, 0, 66, 71
1, 883920, Note_on_c, 0, 78, 72
1, 883945, Note_off_c, 0, 59, 59
1, 883945, Note_off_c, 0, 71, 57
1, 883977, Note_off_c, 0, 66, 45
1, 883980, Note_off_c, 0, 61, 57
1, 884006, Note_off_c, 0, 73, 54
1, 884048, Note_off_c, 0, 78, 55
1, 884105, Note_off_c, 0, 83, 0
1, 884116, Note_on_c, 0, 71, 103
1, 884120, Note_on_c, 0, 83, 56
1, 884123, Note_on_c, 0, 85, 96
1, 884123, Note_on_c, 0, 61, 85
1, 884126, Note_on_c, 0, 59, 83
1, 884127, Note_on_c, 0, 66, 81
1, 884129, Note_on_c, 0, 73, 101
1, 884137, Note_on_c, 0, 75, 81
1, 884141, Note_on_c, 0, 78, 75
1, 884149, Note_off_c, 0, 59, 63
1, 884150, Note_off_c, 0, 71, 67
1, 884159, Note_on_c, 0, 63, 40
1, 884164, Note_off_c, 0, 75, 54
1, 884171, Note_off_c, 0, 61, 64
1, 884176, Note_off_c, 0, 66, 63
1, 884176, Note_on_c, 0, 86, 14
1, 884192, Note_off_c, 0, 63, 54
1, 884205, Note_off_c, 0, 73, 59
1, 884215, Note_off_c, 0, 78, 0
1, 884219, Note_off_c, 0, 86, 45
1, 884232, Note_off_c, 0, 83, 60
1, 884245, Note_off_c, 0, 85, 59
1, 884251, Poly_aftertouch_c, 0, 78, 127
1, 884317, Poly_aftertouch_c, 0, 78, 0
1, 884324, Note_on_c, 0, 70, 102
1, 884326, Note_on_c, 0, 74, 96
1, 884330, Note_on_c, 0, 82, 82
1, 884332, Note_on_c, 0, 61, 79
1, 884332, Note_on_c, 0, 78, 46
1, 884340, Note_on_c, 0, 66, 74
1, 884343, Note_on_c, 0, 58, 71
1, 884364, Note_off_c, 0, 66, 64
1, 884364, Note_off_c, 0, 70, 65
1, 884367, Note_off_c, 0, 58, 67
1, 884379, Note_off_c, 0, 61, 58
1, 884385, Note_off_c, 0, 78, 62
1, 884388, Note_off_c, 0, 74, 61
1, 884412, Note_off_c, 0, 82, 62
1, 884420, Poly_aftertouch_c, 0, 79, 127
1, 884446, Poly_aftertouch_c, 0, 79, 0
1, 884558, Note_on_c, 0, 86, 99
1, 884558, Note_on_c, 0, 70, 100
1, 884558, Note_on_c, 0, 74, 112
1, 884561, Note_on_c, 0, 82, 103
1, 884562, Note_on_c, 0, 78, 91
1, 884566, Note_on_c, 0, 66, 93
1, 884567, Note_on_c, 0, 61, 87
1, 884573, Note_on_c, 0, 58, 86
1, 884598, Note_on_c, 0, 84, 35
1, 884599, Note_off_c, 0, 84, 127
1, 884641, Poly_aftertouch_c, 0, 63, 127
1, 884683, Poly_aftertouch_c, 0, 63, 0
1, 884691, Note_off_c, 0, 70, 57
1, 884716, Note_off_c, 0, 74, 53
1, 884721, Note_off_c, 0, 58, 57
1, 884722, Note_off_c, 0, 78, 58
1, 884732, Note_off_c, 0, 66, 54
1, 884734, Note_off_c, 0, 61, 52
1, 884798, Note_off_c, 0, 86, 50
1, 884835, Note_off_c, 0, 82, 0
1, 884857, Note_on_c, 0, 69, 102
1, 884859, Note_on_c, 0, 74, 106
1, 884861, Note_on_c, 0, 78, 101
1, 884862, Note_on_c, 0, 61, 89
1, 884868, Note_on_c, 0, 66, 87
1, 884871, Note_on_c, 0, 57, 70
1, 884871, Poly_aftertouch_c, 0, 82, 127
1, 884889, Note_off_c, 0, 57, 66
1, 884890, Note_on_c, 0, 79, 63
1, 884893, Note_on_c, 0, 63, 49
1, 884895, Note_off_c, 0, 69, 68
1, 884911, Note_off_c, 0, 61, 64
1, 884913, Note_on_c, 0, 81, 84
1, 884925, Note_off_c, 0, 63, 61
1, 884927, Poly_aftertouch_c, 0, 82, 0
1, 884928, Note_off_c, 0, 66, 58
1, 884930, Note_off_c, 0, 79, 0
1, 884948, Note_off_c, 0, 74, 60
1, 884967, Poly_aftertouch_c, 0, 79, 127
1, 884972, Note_off_c, 0, 78, 59
1, 884984, Note_off_c, 0, 81, 55
1, 885016, Poly_aftertouch_c, 0, 79, 0
1, 885229, Note_on_c, 0, 33, 75
1, 885231, Note_on_c, 0, 31, 73
1, 885236, Note_on_c, 0, 32, 49
1, 885270, Note_off_c, 0, 32, 53
1, 885290, Poly_aftertouch_c, 0, 37, 127
1, 885302, Note_off_c, 0, 33, 58
1, 885308, Note_off_c, 0, 31, 61
1, 885392, Poly_aftertouch_c, 0, 37, 0
1, 885443, Note_on_c, 0, 31, 70
1, 885447, Control_c, 0, 64, 85
1, 885455, Note_on_c, 0, 45, 95
1, 885458, Note_on_c, 0, 43, 93
1, 885462, Control_c, 0, 64, 0
1, 885470, Note_on_c, 0, 33, 60
1, 885476, Note_on_c, 0, 81, 83
1, 885476, Note_on_c, 0, 84, 91
1, 885478, Note_on_c, 0, 89, 99
1, 885479, Note_on_c, 0, 77, 112
1, 885488, Note_on_c, 0, 37, 40
1, 885494, Note_on_c, 0, 35, 37
1, 885506, Note_off_c, 0, 33, 37
1, 885506, Control_c, 0, 64, 26
1, 885516, Note_off_c, 0, 45, 65
1, 885521, Control_c, 0, 64, 97
1, 885536, Control_c, 0, 64, 127
1, 885540, Note_on_c, 0, 36, 5
1, 885550, Note_off_c, 0, 37, 39
1, 885613, Note_off_c, 0, 36, 36
1, 885613, Note_off_c, 0, 31, 59
1, 885636, Note_off_c, 0, 35, 43
1, 885661, Note_off_c, 0, 43, 66
1, 885700, Note_off_c, 0, 89, 50
1, 885700, Note_off_c, 0, 81, 61
1, 885715, Note_off_c, 0, 84, 60
1, 885803, Note_off_c, 0, 77, 54
1, 885869, Note_on_c, 0, 50, 78
1, 885880, Note_on_c, 0, 57, 48
1, 885913, Note_on_c, 0, 55, 44
1, 885923, Note_off_c, 0, 50, 65
1, 885932, Note_on_c, 0, 60, 62
1, 885942, Note_off_c, 0, 55, 63
1, 885962, Note_on_c, 0, 65, 94
1, 885965, Note_on_c, 0, 81, 92
1, 885965, Note_on_c, 0, 77, 78
1, 885968, Note_on_c, 0, 72, 91
1, 886011, Note_off_c, 0, 57, 56
1, 886030, Note_off_c, 0, 60, 64
1, 886034, Note_off_c, 0, 65, 62
1, 886045, Poly_aftertouch_c, 0, 74, 127
1, 886053, Note_on_c, 0, 80, 7
1, 886088, Poly_aftertouch_c, 0, 74, 0
1, 886105, Note_off_c, 0, 72, 52
1, 886111, Note_off_c, 0, 80, 43
1, 886130, Note_off_c, 0, 81, 50
1, 886138, Note_off_c, 0, 77, 51
1, 886253, Note_on_c, 0, 69, 109
1, 886260, Note_on_c, 0, 60, 85
1, 886262, Note_on_c, 0, 81, 88
1, 886265, Note_on_c, 0, 72, 94
1, 886266, Note_on_c, 0, 77, 79
1, 886274, Note_on_c, 0, 65, 65
1, 886279, Note_on_c, 0, 57, 57
1, 886292, Note_on_c, 0, 66, 41
1, 886299, Note_on_c, 0, 63, 22
1, 886308, Note_off_c, 0, 57, 49
1, 886326, Note_off_c, 0, 66, 53
1, 886344, Note_off_c, 0, 69, 51
1, 886351, Note_off_c, 0, 63, 45
1, 886363, Note_off_c, 0, 60, 59
1, 886383, Note_off_c, 0, 72, 55
1, 886393, Note_off_c, 0, 65, 58
1, 886397, Note_off_c, 0, 81, 57
1, 886425, Note_off_c, 0, 77, 53
1, 886495, Note_on_c, 0, 72, 89
1, 886496, Note_on_c, 0, 68, 102
1, 886499, Note_on_c, 0, 77, 76
1, 886501, Note_on_c, 0, 80, 84
1, 886503, Note_on_c, 0, 60, 70
1, 886505, Note_on_c, 0, 65, 74
1, 886513, Note_on_c, 0, 56, 74
1, 886540, Note_on_c, 0, 62, 47
1, 886545, Note_off_c, 0, 72, 66
1, 886570, Note_off_c, 0, 80, 62
1, 886579, Note_off_c, 0, 77, 52
1, 886584, Note_off_c, 0, 56, 62
1, 886592, Note_off_c, 0, 68, 55
1, 886618, Note_off_c, 0, 60, 56
1, 886623, Note_off_c, 0, 62, 56
1, 886651, Note_on_c, 0, 77, 33
1, 886683, Note_off_c, 0, 77, 56
1, 886742, Note_on_c, 0, 87, 100
1, 886745, Note_on_c, 0, 60, 64
1, 886746, Note_on_c, 0, 75, 102
1, 886749, Note_on_c, 0, 68, 98
1, 886763, Note_on_c, 0, 62, 61
1, 886768, Note_on_c, 0, 56, 75
1, 886776, Note_on_c, 0, 77, 32
1, 886803, Note_off_c, 0, 87, 70
1, 886811, Note_off_c, 0, 77, 53
1, 886823, Poly_aftertouch_c, 0, 85, 127
1, 886833, Note_off_c, 0, 62, 35
1, 886836, Note_off_c, 0, 75, 62
1, 886844, Poly_aftertouch_c, 0, 66, 127
1, 886861, Poly_aftertouch_c, 0, 85, 0
1, 886886, Note_off_c, 0, 68, 58
1, 886897, Poly_aftertouch_c, 0, 66, 0
1, 886912, Note_off_c, 0, 56, 59
1, 886922, Note_off_c, 0, 60, 58
1, 886970, Note_off_c, 0, 65, 0
1, 886989, Note_on_c, 0, 65, 42
1, 886997, Note_on_c, 0, 71, 93
1, 886998, Note_on_c, 0, 67, 97
1, 887002, Note_on_c, 0, 59, 73
1, 887002, Note_on_c, 0, 79, 84
1, 887004, Note_on_c, 0, 77, 77
1, 887013, Note_on_c, 0, 55, 70
1, 887036, Note_off_c, 0, 67, 64
1, 887041, Note_off_c, 0, 71, 67
1, 887045, Note_on_c, 0, 61, 21
1, 887056, Note_off_c, 0, 77, 63
1, 887062, Note_off_c, 0, 65, 63
1, 887076, Note_off_c, 0, 59, 60
1, 887077, Note_off_c, 0, 79, 61
1, 887080, Note_off_c, 0, 55, 64
1, 887090, Note_off_c, 0, 61, 49
1, 887344, Note_on_c, 0, 48, 101
1, 887356, Note_on_c, 0, 36, 83
1, 887360, Note_on_c, 0, 74, 102
1, 887361, Note_on_c, 0, 86, 95
1, 887367, Control_c, 0, 64, 78
1, 887382, Control_c, 0, 64, 0
1, 887441, Control_c, 0, 64, 64
1, 887455, Control_c, 0, 64, 81
1, 887470, Control_c, 0, 64, 127
1, 887494, Note_off_c, 0, 36, 58
1, 887530, Note_off_c, 0, 86, 62
1, 887537, Poly_aftertouch_c, 0, 83, 127
1, 887539, Note_off_c, 0, 48, 63
1, 887566, Note_off_c, 0, 74, 63
1, 887567, Poly_aftertouch_c, 0, 83, 0
1, 887708, Note_on_c, 0, 63, 83
1, 887718, Note_on_c, 0, 56, 61
1, 887719, Note_on_c, 0, 65, 74
1, 887721, Note_on_c, 0, 75, 71
1, 887723, Note_on_c, 0, 77, 74
1, 887727, Note_on_c, 0, 58, 60
1, 887730, Note_on_c, 0, 70, 56
1, 887742, Note_off_c, 0, 65, 70
1, 887762, Note_off_c, 0, 70, 63
1, 887764, Note_off_c, 0, 77, 58
1, 887779, Note_off_c, 0, 75, 60
1, 887942, Note_on_c, 0, 60, 80
1, 887947, Note_on_c, 0, 72, 90
1, 887949, Note_on_c, 0, 84, 90
1, 887972, Note_off_c, 0, 72, 65
1, 887978, Note_off_c, 0, 84, 58
1, 887997, Note_off_c, 0, 63, 59
1, 888093, Note_off_c, 0, 58, 51
1, 888105, Note_off_c, 0, 56, 62
1, 888180, Note_on_c, 0, 66, 86
1, 888184, Note_on_c, 0, 78, 80
1, 888187, Note_on_c, 0, 75, 74
1, 888188, Note_on_c, 0, 70, 72
1, 888192, Note_on_c, 0, 63, 89
1, 888195, Note_on_c, 0, 54, 76
1, 888231, Note_on_c, 0, 56, 42
1, 888273, Note_off_c, 0, 56, 59
1, 888317, Note_on_c, 0, 73, 26
1, 888423, Note_off_c, 0, 63, 59
1, 888443, Note_off_c, 0, 66, 58
1, 888468, Note_off_c, 0, 78, 58
1, 888477, Note_off_c, 0, 60, 56
1, 888481, Note_off_c, 0, 70, 56
1, 888487, Note_off_c, 0, 75, 60
1, 888494, Note_off_c, 0, 73, 46
1, 888501, Note_off_c, 0, 54, 0
1, 888538, Poly_aftertouch_c, 0, 54, 127
1, 888542, Note_on_c, 0, 54, 27
1, 888542, Note_on_c, 0, 63, 84
1, 888545, Note_on_c, 0, 53, 72
1, 888549, Note_on_c, 0, 68, 92
1, 888550, Note_on_c, 0, 70, 69
1, 888553, Note_on_c, 0, 80, 76
1, 888556, Note_on_c, 0, 75, 68
1, 888569, Note_off_c, 0, 63, 67
1, 888575, Note_off_c, 0, 68, 61
1, 888578, Note_off_c, 0, 54, 58
1, 888582, Note_on_c, 0, 78, 45
1, 888594, Note_off_c, 0, 70, 60
1, 888597, Note_off_c, 0, 53, 66
1, 888602, Note_off_c, 0, 80, 66
1, 888608, Note_off_c, 0, 78, 60
1, 888610, Note_off_c, 0, 75, 61
1, 888742, Note_on_c, 0, 42, 14
1, 888779, Note_on_c, 0, 50, 94
1, 888783, Note_on_c, 0, 38, 80
1, 888791, Control_c, 0, 64, 95
1, 888792, Note_on_c, 0, 74, 96
1, 888794, Note_on_c, 0, 86, 99
1, 888794, Note_off_c, 0, 42, 42
1, 888806, Control_c, 0, 64, 74
1, 888820, Control_c, 0, 64, 70
1, 888835, Note_off_c, 0, 86, 65
1, 888835, Control_c, 0, 64, 97
1, 888836, Note_off_c, 0, 74, 64
1, 888850, Control_c, 0, 64, 127
1, 888877, Note_off_c, 0, 38, 63
1, 888908, Note_off_c, 0, 50, 64
1, 889003, Note_on_c, 0, 64, 83
1, 889007, Note_on_c, 0, 76, 73
1, 889011, Note_on_c, 0, 70, 68
1, 889017, Note_on_c, 0, 55, 77
1, 889023, Note_on_c, 0, 62, 76
1, 889025, Note_off_c, 0, 64, 71
1, 889029, Note_on_c, 0, 74, 46
1, 889031, Note_on_c, 0, 72, 39
1, 889032, Note_off_c, 0, 76, 65
1, 889036, Note_off_c, 0, 70, 65
1, 889056, Note_off_c, 0, 72, 56
1, 889059, Note_off_c, 0, 74, 56
1, 889180, Note_on_c, 0, 58, 87
1, 889182, Note_on_c, 0, 70, 100
1, 889185, Note_on_c, 0, 82, 95
1, 889203, Note_on_c, 0, 80, 58
1, 889216, Note_off_c, 0, 70, 65
1, 889218, Note_off_c, 0, 82, 68
1, 889222, Note_off_c, 0, 80, 64
1, 889247, Note_off_c, 0, 55, 61
1, 889267, Note_off_c, 0, 62, 33
1, 889369, Note_on_c, 0, 65, 85
1, 889369, Note_on_c, 0, 77, 86
1, 889372, Note_on_c, 0, 74, 83
1, 889375, Note_on_c, 0, 62, 84
1, 889376, Note_on_c, 0, 70, 77
1, 889378, Note_on_c, 0, 53, 83
1, 889572, Note_off_c, 0, 65, 59
1, 889581, Note_off_c, 0, 77, 58
1, 889589, Note_off_c, 0, 62, 61
1, 889599, Note_off_c, 0, 53, 64
1, 889605, Note_off_c, 0, 74, 62
1, 889605, Poly_aftertouch_c, 0, 56, 0
1, 889608, Note_on_c, 0, 73, 26
1, 889614, Note_off_c, 0, 70, 58
1, 889634, Note_off_c, 0, 58, 52
1, 889646, Note_off_c, 0, 73, 53
1, 889680, Note_on_c, 0, 52, 82
1, 889682, Note_on_c, 0, 62, 86
1, 889694, Note_on_c, 0, 66, 87
1, 889697, Note_on_c, 0, 78, 90
1, 889705, Note_off_c, 0, 62, 68
1, 889717, Note_off_c, 0, 66, 66
1, 889737, Note_off_c, 0, 52, 61
1, 889743, Note_off_c, 0, 78, 63
1, 889775, Poly_aftertouch_c, 0, 75, 127
1, 889803, Poly_aftertouch_c, 0, 75, 0
1, 889806, Control_c, 0, 64, 77
1, 889821, Control_c, 0, 64, 0
1, 889840, Note_on_c, 0, 51, 90
1, 889846, Note_on_c, 0, 39, 77
1, 889850, Control_c, 0, 64, 63
1, 889855, Note_on_c, 0, 76, 85
1, 889856, Note_on_c, 0, 86, 80
1, 889861, Note_on_c, 0, 88, 69
1, 889865, Control_c, 0, 64, 81
1, 889873, Note_off_c, 0, 76, 70
1, 889876, Note_off_c, 0, 86, 71
1, 889879, Note_off_c, 0, 88, 43
1, 889880, Control_c, 0, 64, 127
1, 889901, Note_off_c, 0, 39, 61
1, 889912, Note_off_c, 0, 51, 63
1, 889954, Poly_aftertouch_c, 0, 85, 0
1, 890023, Note_on_c, 0, 63, 84
1, 890023, Note_on_c, 0, 75, 88
1, 890032, Note_on_c, 0, 60, 82
1, 890034, Note_on_c, 0, 51, 77
1, 890040, Note_on_c, 0, 69, 50
1, 890049, Note_off_c, 0, 63, 64
1, 890061, Note_off_c, 0, 69, 60
1, 890079, Note_off_c, 0, 75, 61
1, 890090, Note_off_c, 0, 60, 55
1, 890132, Poly_aftertouch_c, 0, 54, 0
1, 890145, Note_off_c, 0, 51, 61
1, 890183, Note_on_c, 0, 57, 90
1, 890186, Note_on_c, 0, 69, 91
1, 890194, Note_on_c, 0, 81, 100
1, 890291, Note_off_c, 0, 81, 59
1, 890310, Note_off_c, 0, 69, 61
1, 890407, Note_off_c, 0, 57, 58
1, 890417, Note_on_c, 0, 64, 96
1, 890419, Note_on_c, 0, 53, 84
1, 890421, Note_on_c, 0, 60, 83
1, 890421, Note_on_c, 0, 69, 66
1, 890424, Note_on_c, 0, 76, 86
1, 890442, Note_on_c, 0, 59, 67
1, 890500, Poly_aftertouch_c, 0, 70, 127
1, 890552, Note_off_c, 0, 59, 22
1, 890581, Note_off_c, 0, 64, 61
1, 890584, Note_off_c, 0, 60, 58
1, 890591, Poly_aftertouch_c, 0, 70, 0
1, 890595, Note_off_c, 0, 76, 58
1, 890609, Note_off_c, 0, 69, 59
1, 890687, Note_on_c, 0, 60, 74
1, 890693, Note_on_c, 0, 52, 72
1, 890705, Note_on_c, 0, 77, 86
1, 890710, Note_on_c, 0, 65, 66
1, 890713, Note_off_c, 0, 60, 66
1, 890718, Note_off_c, 0, 53, 53
1, 890730, Note_off_c, 0, 65, 65
1, 890731, Note_off_c, 0, 52, 64
1, 890749, Note_off_c, 0, 77, 60
1, 890749, Note_on_c, 0, 67, 10
1, 890797, Note_off_c, 0, 67, 41
1, 890806, Control_c, 0, 64, 83
1, 890821, Control_c, 0, 64, 0
1, 890851, Control_c, 0, 64, 65
1, 890857, Note_on_c, 0, 50, 80
1, 890858, Note_on_c, 0, 40, 66
1, 890861, Note_on_c, 0, 74, 90
1, 890862, Note_on_c, 0, 86, 92
1, 890866, Control_c, 0, 64, 84
1, 890878, Note_off_c, 0, 86, 74
1, 890879, Note_off_c, 0, 74, 74
1, 890880, Control_c, 0, 64, 127
1, 890884, Note_off_c, 0, 50, 70
1, 890886, Note_off_c, 0, 40, 66
1, 891030, Note_on_c, 0, 51, 68
1, 891032, Note_on_c, 0, 62, 70
1, 891033, Note_on_c, 0, 70, 72
1, 891033, Note_on_c, 0, 74, 78
1, 891033, Note_on_c, 0, 58, 74
1, 891050, Note_off_c, 0, 62, 65
1, 891052, Note_off_c, 0, 74, 72
1, 891056, Note_off_c, 0, 70, 69
1, 891069, Note_off_c, 0, 58, 53
1, 891103, Note_off_c, 0, 51, 63
1, 891164, Note_on_c, 0, 55, 87
1, 891179, Note_on_c, 0, 67, 92
1, 891179, Note_on_c, 0, 79, 96
1, 891185, Control_c, 0, 64, 126
1, 891200, Control_c, 0, 64, 92
1, 891206, Note_off_c, 0, 67, 64
1, 891214, Note_off_c, 0, 79, 61
1, 891214, Control_c, 0, 64, 87
1, 891229, Control_c, 0, 64, 98
1, 891244, Control_c, 0, 64, 127
1, 891283, Poly_aftertouch_c, 0, 69, 0
1, 891354, Note_on_c, 0, 75, 80
1, 891358, Note_on_c, 0, 63, 77
1, 891360, Note_on_c, 0, 70, 71
1, 891363, Note_on_c, 0, 58, 85
1, 891373, Note_on_c, 0, 49, 73
1, 891435, Note_on_c, 0, 51, 14
1, 891492, Note_off_c, 0, 58, 59
1, 891510, Note_off_c, 0, 51, 44
1, 891510, Note_off_c, 0, 63, 57
1, 891512, Note_off_c, 0, 55, 59
1, 891534, Note_off_c, 0, 75, 59
1, 891561, Note_off_c, 0, 49, 38
1, 891594, Note_on_c, 0, 58, 64
1, 891595, Note_on_c, 0, 48, 74
1, 891611, Note_off_c, 0, 58, 68
1, 891620, Note_on_c, 0, 76, 67
1, 891620, Note_on_c, 0, 64, 54
1, 891626, Note_off_c, 0, 48, 65
1, 891640, Note_off_c, 0, 70, 57
1, 891644, Note_off_c, 0, 64, 61
1, 891653, Note_off_c, 0, 76, 64
1, 891689, Control_c, 0, 64, 88
1, 891704, Control_c, 0, 64, 0
1, 891771, Control_c, 0, 64, 61
1, 891775, Note_on_c, 0, 29, 63
1, 891781, Note_on_c, 0, 74, 71
1, 891782, Note_on_c, 0, 41, 67
1, 891785, Note_on_c, 0, 86, 60
1, 891786, Control_c, 0, 64, 100
1, 891802, Control_c, 0, 64, 127
1, 891806, Note_off_c, 0, 74, 67
1, 891806, Note_off_c, 0, 86, 64
1, 891809, Note_off_c, 0, 29, 58
1, 891810, Note_off_c, 0, 41, 64
1, 891935, Control_c, 0, 64, 86
1, 891939, Note_on_c, 0, 50, 53
1, 891950, Control_c, 0, 64, 0
1, 891954, Note_on_c, 0, 70, 33
1, 891956, Note_on_c, 0, 74, 32
1, 891989, Note_off_c, 0, 50, 59
1, 892004, Note_off_c, 0, 70, 60
1, 892009, Note_off_c, 0, 74, 54
1, 892065, Note_on_c, 0, 54, 46
1, 892068, Control_c, 0, 64, 127
1, 892070, Note_on_c, 0, 66, 79
1, 892070, Note_on_c, 0, 78, 78
1, 892074, Note_on_c, 0, 42, 44
1, 892090, Note_off_c, 0, 54, 66
1, 892104, Note_off_c, 0, 66, 58
1, 892110, Note_off_c, 0, 42, 53
1, 892141, Note_off_c, 0, 78, 62
1, 892205, Note_on_c, 0, 50, 62
1, 892214, Note_on_c, 0, 62, 56
1, 892227, Note_on_c, 0, 58, 59
1, 892235, Note_on_c, 0, 74, 66
1, 892246, Note_on_c, 0, 70, 52
1, 892343, Note_off_c, 0, 50, 61
1, 892353, Note_off_c, 0, 62, 59
1, 892362, Note_off_c, 0, 70, 0
1, 892380, Note_off_c, 0, 58, 55
1, 892386, Note_off_c, 0, 74, 61
1, 892396, Poly_aftertouch_c, 0, 70, 0
1, 892443, Note_on_c, 0, 58, 65
1, 892443, Note_on_c, 0, 62, 71
1, 892462, Note_off_c, 0, 62, 66
1, 892463, Note_on_c, 0, 50, 59
1, 892468, Note_on_c, 0, 70, 77
1, 892469, Note_on_c, 0, 74, 84
1, 892469, Note_off_c, 0, 58, 68
1, 892490, Note_off_c, 0, 50, 67
1, 892490, Note_off_c, 0, 70, 69
1, 892493, Note_off_c, 0, 74, 69
1, 892549, Control_c, 0, 64, 82
1, 892563, Control_c, 0, 64, 60
1, 892578, Control_c, 0, 64, 67
1, 892586, Note_on_c, 0, 74, 99
1, 892591, Note_on_c, 0, 41, 94
1, 892591, Note_on_c, 0, 86, 85
1, 892595, Control_c, 0, 64, 92
1, 892603, Note_on_c, 0, 31, 59
1, 892607, Note_off_c, 0, 74, 68
1, 892609, Note_off_c, 0, 86, 74
1, 892609, Control_c, 0, 64, 127
1, 892617, Note_off_c, 0, 41, 67
1, 892621, Note_on_c, 0, 82, 40
1, 892625, Note_on_c, 0, 84, 32
1, 892638, Note_off_c, 0, 31, 53
1, 892653, Note_off_c, 0, 82, 38
1, 892657, Note_off_c, 0, 84, 56
1, 892667, Poly_aftertouch_c, 0, 29, 127
1, 892695, Poly_aftertouch_c, 0, 34, 0
1, 892714, Poly_aftertouch_c, 0, 29, 0
1, 892723, Note_on_c, 0, 74, 74
1, 892723, Note_on_c, 0, 70, 77
1, 892747, Note_on_c, 0, 48, 44
1, 892753, Note_on_c, 0, 49, 53
1, 892787, Note_off_c, 0, 70, 49
1, 892795, Note_off_c, 0, 48, 62
1, 892799, Note_off_c, 0, 74, 53
1, 892800, Note_off_c, 0, 49, 57
1, 892831, Control_c, 0, 64, 71
1, 892841, Note_on_c, 0, 65, 101
1, 892843, Note_on_c, 0, 55, 101
1, 892845, Note_on_c, 0, 43, 80
1, 892846, Note_on_c, 0, 77, 93
1, 892846, Control_c, 0, 64, 0
1, 892861, Control_c, 0, 64, 60
1, 892870, Note_on_c, 0, 74, 54
1, 892875, Control_c, 0, 64, 79
1, 892890, Control_c, 0, 64, 127
1, 892896, Note_off_c, 0, 74, 59
1, 892914, Note_off_c, 0, 65, 53
1, 892924, Note_off_c, 0, 43, 62
1, 892944, Note_off_c, 0, 55, 67
1, 893001, Note_on_c, 0, 74, 71
1, 893006, Note_on_c, 0, 70, 74
1, 893028, Note_on_c, 0, 62, 88
1, 893034, Note_off_c, 0, 77, 53
1, 893045, Note_on_c, 0, 48, 55
1, 893049, Note_on_c, 0, 50, 59
1, 893051, Note_on_c, 0, 57, 58
1, 893052, Note_on_c, 0, 60, 58
1, 893080, Note_off_c, 0, 60, 52
1, 893083, Note_off_c, 0, 48, 64
1, 893120, Note_off_c, 0, 50, 61
1, 893124, Note_off_c, 0, 62, 55
1, 893124, Note_off_c, 0, 70, 53
1, 893128, Poly_aftertouch_c, 0, 54, 127
1, 893147, Note_off_c, 0, 57, 60
1, 893148, Note_off_c, 0, 74, 61
1, 893188, Poly_aftertouch_c, 0, 54, 0
1, 893223, Note_on_c, 0, 62, 87
1, 893230, Note_on_c, 0, 58, 79
1, 893230, Note_on_c, 0, 70, 82
1, 893233, Note_on_c, 0, 50, 72
1, 893235, Note_on_c, 0, 74, 87
1, 893238, Note_off_c, 0, 62, 71
1, 893253, Note_off_c, 0, 58, 69
1, 893266, Note_off_c, 0, 70, 63
1, 893272, Note_off_c, 0, 50, 68
1, 893277, Note_off_c, 0, 74, 62
1, 893313, Control_c, 0, 64, 81
1, 893328, Control_c, 0, 64, 0
1, 893342, Control_c, 0, 64, 46
1, 893357, Control_c, 0, 64, 80
1, 893358, Note_on_c, 0, 74, 104
1, 893358, Note_on_c, 0, 86, 93
1, 893364, Note_on_c, 0, 41, 99
1, 893372, Control_c, 0, 64, 127
1, 893373, Note_off_c, 0, 86, 75
1, 893376, Note_on_c, 0, 31, 65
1, 893378, Note_off_c, 0, 74, 68
1, 893385, Note_on_c, 0, 82, 49
1, 893386, Note_off_c, 0, 82, 127
1, 893393, Note_off_c, 0, 41, 65
1, 893403, Note_off_c, 0, 31, 58
1, 893444, Poly_aftertouch_c, 0, 29, 127
1, 893489, Poly_aftertouch_c, 0, 29, 0
1, 893491, Note_on_c, 0, 74, 75
1, 893492, Note_on_c, 0, 70, 79
1, 893504, Note_on_c, 0, 50, 73
1, 893522, Note_off_c, 0, 70, 60
1, 893542, Note_off_c, 0, 50, 65
1, 893548, Note_off_c, 0, 74, 63
1, 893610, Control_c, 0, 64, 75
1, 893611, Note_on_c, 0, 56, 101
1, 893617, Note_on_c, 0, 64, 102
1, 893617, Note_on_c, 0, 76, 96
1, 893618, Note_on_c, 0, 44, 77
1, 893624, Control_c, 0, 64, 0
1, 893647, Note_on_c, 0, 51, 41
1, 893648, Note_off_c, 0, 51, 127
1, 893648, Note_on_c, 0, 73, 51
1, 893654, Control_c, 0, 64, 66
1, 893656, Note_on_c, 0, 46, 26
1, 893669, Control_c, 0, 64, 88
1, 893673, Note_off_c, 0, 56, 67
1, 893675, Note_off_c, 0, 73, 35
1, 893677, Note_off_c, 0, 44, 65
1, 893684, Control_c, 0, 64, 127
1, 893689, Note_off_c, 0, 64, 52
1, 893700, Note_off_c, 0, 46, 33
1, 893729, Poly_aftertouch_c, 0, 49, 0
1, 893767, Note_on_c, 0, 70, 84
1, 893770, Note_on_c, 0, 74, 85
1, 893781, Note_on_c, 0, 62, 96
1, 893782, Note_on_c, 0, 50, 83
1, 893790, Note_off_c, 0, 76, 48
1, 893792, Note_on_c, 0, 58, 75
1, 893860, Poly_aftertouch_c, 0, 54, 127
1, 893877, Note_off_c, 0, 62, 33
1, 893889, Poly_aftertouch_c, 0, 54, 0
1, 893891, Note_off_c, 0, 50, 59
1, 893891, Note_off_c, 0, 70, 54
1, 893911, Note_off_c, 0, 58, 55
1, 893932, Note_off_c, 0, 74, 51
1, 893999, Note_on_c, 0, 62, 94
1, 894013, Note_on_c, 0, 70, 82
1, 894014, Note_on_c, 0, 58, 82
1, 894014, Note_on_c, 0, 74, 89
1, 894017, Note_on_c, 0, 50, 72
1, 894019, Note_off_c, 0, 62, 76
1, 894038, Note_off_c, 0, 58, 68
1, 894055, Note_off_c, 0, 50, 66
1, 894059, Note_off_c, 0, 74, 66
1, 894059, Note_off_c, 0, 70, 62
1, 894105, Poly_aftertouch_c, 0, 56, 0
1, 894121, Control_c, 0, 64, 76
1, 894136, Control_c, 0, 64, 38
1, 894150, Control_c, 0, 64, 65
1, 894157, Note_on_c, 0, 74, 103
1, 894159, Note_on_c, 0, 41, 103
1, 894159, Note_on_c, 0, 86, 95
1, 894165, Control_c, 0, 64, 93
1, 894174, Note_off_c, 0, 86, 75
1, 894177, Note_on_c, 0, 29, 64
1, 894180, Control_c, 0, 64, 127
1, 894180, Note_off_c, 0, 74, 66
1, 894183, Note_on_c, 0, 82, 51
1, 894187, Note_off_c, 0, 41, 67
1, 894210, Note_off_c, 0, 82, 39
1, 894211, Note_off_c, 0, 29, 56
1, 894215, Note_on_c, 0, 31, 11
1, 894257, Poly_aftertouch_c, 0, 32, 127
1, 894266, Note_off_c, 0, 31, 39
1, 894293, Poly_aftertouch_c, 0, 32, 0
1, 894316, Note_on_c, 0, 51, 102
1, 894320, Note_on_c, 0, 74, 76
1, 894327, Note_on_c, 0, 69, 68
1, 894370, Note_off_c, 0, 51, 58
1, 894396, Note_off_c, 0, 74, 53
1, 894442, Note_off_c, 0, 69, 52
1, 894517, Note_on_c, 0, 75, 93
1, 894517, Note_on_c, 0, 63, 105
1, 894518, Note_on_c, 0, 57, 101
1, 894521, Control_c, 0, 64, 102
1, 894523, Note_on_c, 0, 45, 89
1, 894536, Control_c, 0, 64, 98
1, 894544, Note_on_c, 0, 71, 50
1, 894545, Note_on_c, 0, 73, 59
1, 894546, Note_off_c, 0, 73, 127
1, 894548, Note_on_c, 0, 49, 50
1, 894551, Note_on_c, 0, 64, 47
1, 894552, Note_off_c, 0, 64, 127
1, 894552, Control_c, 0, 64, 127
1, 894559, Note_on_c, 0, 51, 32
1, 894560, Note_off_c, 0, 51, 127
1, 894562, Note_off_c, 0, 45, 57
1, 894563, Note_on_c, 0, 55, 25
1, 894564, Note_off_c, 0, 55, 127
1, 894568, Note_off_c, 0, 71, 57
1, 894571, Note_off_c, 0, 63, 62
1, 894577, Note_off_c, 0, 49, 56
1, 894580, Poly_aftertouch_c, 0, 64, 0
1, 894621, Note_off_c, 0, 57, 59
1, 894626, Note_off_c, 0, 75, 51
1, 894821, Note_on_c, 0, 65, 111
1, 894822, Note_on_c, 0, 69, 85
1, 894823, Note_on_c, 0, 74, 106
1, 894828, Note_on_c, 0, 63, 111
1, 894837, Note_on_c, 0, 57, 73
1, 894841, Note_on_c, 0, 53, 73
1, 894849, Note_on_c, 0, 73, 43
1, 894854, Note_on_c, 0, 67, 49
1, 894875, Note_on_c, 0, 54, 30
1, 894878, Note_on_c, 0, 59, 27
1, 894887, Note_on_c, 0, 70, 20
1, 894887, Note_off_c, 0, 67, 50
1, 894887, Note_off_c, 0, 73, 33
1, 894917, Note_off_c, 0, 54, 30
1, 894927, Note_off_c, 0, 59, 46
1, 894943, Note_off_c, 0, 70, 42
1, 894955, Poly_aftertouch_c, 0, 58, 0
1, 894977, Note_off_c, 0, 53, 34
1, 895075, Note_off_c, 0, 57, 45
1, 895213, Note_off_c, 0, 63, 42
1, 895213, Note_off_c, 0, 74, 31
1, 895283, Note_off_c, 0, 65, 25
1, 895393, Note_off_c, 0, 69, 0
1, 895405, Note_on_c, 0, 69, 48
1, 895417, Note_on_c, 0, 74, 104
1, 895417, Note_on_c, 0, 65, 105
1, 895428, Note_on_c, 0, 63, 108
1, 895434, Note_on_c, 0, 57, 76
1, 895446, Note_on_c, 0, 53, 69
1, 895462, Note_on_c, 0, 55, 53
1, 895462, Note_on_c, 0, 54, 47
1, 895465, Note_on_c, 0, 70, 50
1, 895490, Note_off_c, 0, 55, 64
1, 895491, Note_off_c, 0, 65, 66
1, 895492, Note_off_c, 0, 63, 59
1, 895492, Note_off_c, 0, 74, 67
1, 895494, Note_off_c, 0, 54, 60
1, 895499, Note_off_c, 0, 53, 62
1, 895510, Note_off_c, 0, 57, 62
1, 895511, Note_off_c, 0, 70, 63
1, 895531, Note_off_c, 0, 69, 63
1, 895781, Control_c, 0, 64, 81
1, 895796, Control_c, 0, 64, 0
1, 895958, Note_on_c, 0, 34, 100
1, 895959, Control_c, 0, 64, 41
1, 895963, Note_on_c, 0, 22, 83
1, 895966, Note_on_c, 0, 32, 80
1, 895974, Control_c, 0, 64, 127
1, 895993, Note_on_c, 0, 30, 51
1, 895994, Note_off_c, 0, 30, 127
1, 896000, Note_on_c, 0, 26, 59
1, 896001, Note_off_c, 0, 32, 64
1, 896002, Note_off_c, 0, 26, 0
1, 896002, Note_on_c, 0, 26, 5
1, 896014, Note_on_c, 0, 27, 13
1, 896015, Note_off_c, 0, 27, 127
1, 896021, Note_off_c, 0, 22, 64
1, 896049, Note_off_c, 0, 34, 63
1, 896055, Note_off_c, 0, 26, 41
1, 896079, Poly_aftertouch_c, 0, 27, 0
1, 896297, Note_on_c, 0, 41, 68
1, 896308, Note_on_c, 0, 53, 76
1, 896349, Note_off_c, 0, 53, 64
1, 896372, Note_off_c, 0, 41, 61
1, 896375, Note_on_c, 0, 58, 71
1, 896381, Note_on_c, 0, 46, 61
1, 896418, Note_on_c, 0, 50, 47
1, 896426, Note_off_c, 0, 58, 65
1, 896437, Note_on_c, 0, 61, 74
1, 896439, Note_off_c, 0, 46, 63
1, 896455, Note_off_c, 0, 50, 64
1, 896455, Control_c, 0, 64, 106
1, 896456, Note_off_c, 0, 61, 66
1, 896468, Note_on_c, 0, 53, 72
1, 896470, Control_c, 0, 64, 72
1, 896485, Control_c, 0, 64, 0
1, 896494, Note_on_c, 0, 62, 67
1, 896515, Note_off_c, 0, 53, 60
1, 896550, Note_off_c, 0, 62, 61
1, 896562, Note_on_c, 0, 65, 68
1, 896598, Note_on_c, 0, 66, 77
1, 896602, Note_on_c, 0, 54, 76
1, 896612, Note_off_c, 0, 65, 59
1, 896630, Note_off_c, 0, 66, 61
1, 896636, Note_on_c, 0, 67, 59
1, 896660, Note_off_c, 0, 54, 62
1, 896665, Note_on_c, 0, 55, 88
1, 896708, Control_c, 0, 64, 111
1, 896712, Note_off_c, 0, 55, 63
1, 896723, Control_c, 0, 64, 127
1, 896734, Note_on_c, 0, 53, 57
1, 896735, Note_on_c, 0, 56, 70
1, 896750, Note_on_c, 0, 68, 78
1, 896759, Note_off_c, 0, 67, 51
1, 896777, Note_on_c, 0, 71, 79
1, 896777, Note_off_c, 0, 56, 63
1, 896795, Note_off_c, 0, 68, 59
1, 896804, Note_off_c, 0, 53, 65
1, 896821, Note_on_c, 0, 59, 72
1, 896834, Note_on_c, 0, 68, 71
1, 896849, Note_off_c, 0, 59, 61
1, 896863, Note_off_c, 0, 71, 62
1, 896887, Note_on_c, 0, 56, 66
1, 896894, Note_off_c, 0, 68, 64
1, 896917, Note_on_c, 0, 65, 43
1, 896923, Note_on_c, 0, 53, 60
1, 896926, Note_off_c, 0, 56, 65
1, 896955, Note_off_c, 0, 53, 55
1, 896970, Note_off_c, 0, 65, 63
1, 896976, Poly_aftertouch_c, 0, 67, 0
1, 897012, Note_on_c, 0, 50, 77
1, 897021, Note_on_c, 0, 60, 72
1, 897068, Note_off_c, 0, 50, 63
1, 897101, Note_on_c, 0, 43, 68
1, 897102, Note_off_c, 0, 60, 61
1, 897109, Note_on_c, 0, 57, 74
1, 897111, Note_on_c, 0, 58, 44
1, 897116, Control_c, 0, 64, 98
1, 897131, Note_off_c, 0, 43, 64
1, 897131, Control_c, 0, 64, 66
1, 897137, Note_off_c, 0, 57, 67
1, 897140, Note_off_c, 0, 58, 58
1, 897146, Control_c, 0, 64, 0
1, 897165, Note_on_c, 0, 55, 72
1, 897206, Note_off_c, 0, 55, 66
1, 897245, Note_on_c, 0, 34, 96
1, 897279, Control_c, 0, 64, 97
1, 897291, Note_off_c, 0, 34, 65
1, 897294, Control_c, 0, 64, 127
1, 897417, Note_on_c, 0, 54, 89
1, 897424, Note_on_c, 0, 42, 79
1, 897439, Note_off_c, 0, 54, 71
1, 897481, Note_on_c, 0, 58, 81
1, 897493, Note_on_c, 0, 49, 80
1, 897509, Note_off_c, 0, 42, 61
1, 897514, Poly_aftertouch_c, 0, 46, 127
1, 897537, Note_on_c, 0, 60, 74
1, 897548, Poly_aftertouch_c, 0, 46, 0
1, 897567, Note_off_c, 0, 58, 60
1, 897575, Note_off_c, 0, 49, 57
1, 897580, Note_on_c, 0, 54, 86
1, 897589, Note_on_c, 0, 61, 86
1, 897591, Control_c, 0, 64, 98
1, 897594, Note_off_c, 0, 60, 67
1, 897605, Control_c, 0, 64, 75
1, 897620, Control_c, 0, 64, 0
1, 897629, Note_off_c, 0, 61, 59
1, 897632, Note_off_c, 0, 54, 64
1, 897679, Note_on_c, 0, 66, 86
1, 897710, Note_on_c, 0, 58, 77
1, 897712, Note_off_c, 0, 66, 63
1, 897738, Note_on_c, 0, 70, 82
1, 897777, Note_off_c, 0, 58, 64
1, 897800, Note_on_c, 0, 59, 76
1, 897834, Note_on_c, 0, 71, 80
1, 897836, Note_on_c, 0, 54, 80
1, 897836, Note_off_c, 0, 70, 56
1, 897841, Note_on_c, 0, 72, 45
1, 897844, Note_off_c, 0, 59, 58
1, 897847, Note_on_c, 0, 60, 71
1, 897860, Note_on_c, 0, 57, 71
1, 897865, Control_c, 0, 64, 79
1, 897880, Control_c, 0, 64, 127
1, 897899, Note_on_c, 0, 75, 83
1, 897901, Note_off_c, 0, 71, 63
1, 897913, Note_off_c, 0, 60, 61
1, 897918, Note_off_c, 0, 72, 60
1, 897933, Note_on_c, 0, 76, 53
1, 897936, Note_off_c, 0, 57, 63
1, 897950, Note_on_c, 0, 63, 74
1, 897950, Note_on_c, 0, 71, 69
1, 897967, Note_off_c, 0, 54, 58
1, 897977, Note_off_c, 0, 76, 51
1, 897990, Note_off_c, 0, 75, 52
1, 898006, Note_on_c, 0, 70, 82
1, 898007, Note_off_c, 0, 63, 62
1, 898014, Note_off_c, 0, 71, 66
1, 898028, Note_on_c, 0, 59, 62
1, 898050, Note_on_c, 0, 58, 74
1, 898056, Note_off_c, 0, 70, 67
1, 898063, Note_off_c, 0, 59, 61
1, 898088, Note_on_c, 0, 67, 57
1, 898100, Note_off_c, 0, 58, 64
1, 898109, Note_off_c, 0, 67, 61
1, 898112, Note_on_c, 0, 69, 27
1, 898148, Note_off_c, 0, 69, 47
1, 898150, Note_on_c, 0, 66, 79
1, 898153, Note_on_c, 0, 57, 79
1, 898208, Note_on_c, 0, 63, 79
1, 898208, Note_off_c, 0, 57, 60
1, 898235, Note_on_c, 0, 54, 69
1, 898237, Note_off_c, 0, 66, 64
1, 898257, Note_on_c, 0, 60, 65
1, 898258, Note_off_c, 0, 54, 71
1, 898280, Control_c, 0, 64, 109
1, 898288, Note_off_c, 0, 63, 56
1, 898295, Control_c, 0, 64, 64
1, 898310, Control_c, 0, 64, 0
1, 898316, Note_on_c, 0, 57, 78
1, 898327, Note_off_c, 0, 60, 59
1, 898360, Note_off_c, 0, 57, 62
1, 898389, Note_on_c, 0, 34, 106
1, 898428, Note_off_c, 0, 34, 65
1, 898429, Control_c, 0, 64, 102
1, 898444, Control_c, 0, 64, 127
1, 898572, Note_on_c, 0, 62, 81
1, 898581, Note_on_c, 0, 50, 73
1, 898591, Note_on_c, 0, 55, 63
1, 898625, Note_off_c, 0, 62, 61
1, 898634, Note_on_c, 0, 67, 78
1, 898660, Note_on_c, 0, 58, 79
1, 898661, Note_off_c, 0, 50, 60
1, 898670, Note_on_c, 0, 70, 77
1, 898683, Note_off_c, 0, 55, 62
1, 898699, Note_off_c, 0, 67, 62
1, 898714, Note_on_c, 0, 62, 74
1, 898718, Note_off_c, 0, 58, 63
1, 898733, Note_off_c, 0, 70, 67
1, 898741, Note_on_c, 0, 73, 82
1, 898747, Note_off_c, 0, 62, 57
1, 898762, Control_c, 0, 64, 91
1, 898777, Control_c, 0, 64, 56
1, 898784, Note_off_c, 0, 73, 58
1, 898792, Control_c, 0, 64, 0
1, 898813, Note_on_c, 0, 74, 84
1, 898845, Note_on_c, 0, 65, 76
1, 898849, Note_off_c, 0, 74, 67
1, 898883, Note_on_c, 0, 77, 83
1, 898921, Note_on_c, 0, 66, 74
1, 898929, Note_off_c, 0, 65, 60
1, 898942, Note_on_c, 0, 78, 84
1, 898978, Note_off_c, 0, 77, 64
1, 898979, Note_on_c, 0, 67, 74
1, 898992, Note_on_c, 0, 79, 79
1, 899000, Note_off_c, 0, 66, 58
1, 899000, Control_c, 0, 64, 97
1, 899003, Note_on_c, 0, 61, 81
1, 899007, Note_off_c, 0, 78, 64
1, 899015, Control_c, 0, 64, 127
1, 899031, Note_on_c, 0, 70, 89
1, 899036, Note_on_c, 0, 82, 90
1, 899057, Note_off_c, 0, 79, 63
1, 899090, Note_off_c, 0, 70, 60
1, 899108, Note_on_c, 0, 78, 85
1, 899118, Note_off_c, 0, 67, 50
1, 899128, Note_on_c, 0, 66, 70
1, 899130, Note_off_c, 0, 61, 62
1, 899153, Note_off_c, 0, 82, 60
1, 899158, Note_on_c, 0, 77, 76
1, 899164, Note_off_c, 0, 78, 66
1, 899200, Note_off_c, 0, 66, 59
1, 899201, Note_off_c, 0, 77, 66
1, 899216, Note_on_c, 0, 76, 82
1, 899225, Note_on_c, 0, 65, 73
1, 899263, Note_off_c, 0, 76, 61
1, 899276, Note_off_c, 0, 65, 58
1, 899300, Note_on_c, 0, 64, 60
1, 899306, Note_on_c, 0, 73, 84
1, 899343, Note_on_c, 0, 61, 75
1, 899346, Note_off_c, 0, 64, 62
1, 899353, Note_on_c, 0, 70, 79
1, 899370, Note_off_c, 0, 61, 66
1, 899394, Note_off_c, 0, 73, 63
1, 899405, Note_on_c, 0, 67, 70
1, 899435, Note_off_c, 0, 70, 65
1, 899451, Control_c, 0, 64, 102
1, 899459, Note_on_c, 0, 64, 90
1, 899466, Control_c, 0, 64, 66
1, 899477, Note_off_c, 0, 67, 60
1, 899481, Control_c, 0, 64, 0
1, 899502, Note_off_c, 0, 64, 66
1, 899524, Note_on_c, 0, 34, 94
1, 899555, Control_c, 0, 64, 68
1, 899564, Note_off_c, 0, 34, 63
1, 899570, Control_c, 0, 64, 127
1, 899706, Note_on_c, 0, 54, 77
1, 899708, Note_on_c, 0, 66, 92
1, 899728, Note_off_c, 0, 66, 68
1, 899730, Note_on_c, 0, 58, 52
1, 899760, Note_on_c, 0, 57, 50
1, 899770, Note_on_c, 0, 70, 75
1, 899780, Note_off_c, 0, 54, 58
1, 899791, Note_on_c, 0, 63, 82
1, 899796, Note_off_c, 0, 57, 61
1, 899827, Note_on_c, 0, 74, 76
1, 899837, Note_on_c, 0, 73, 43
1, 899840, Note_off_c, 0, 70, 66
1, 899859, Note_off_c, 0, 58, 43
1, 899862, Note_on_c, 0, 75, 85
1, 899865, Note_off_c, 0, 73, 56
1, 899868, Note_on_c, 0, 66, 79
1, 899874, Note_off_c, 0, 74, 65
1, 899883, Note_off_c, 0, 63, 60
1, 899901, Note_off_c, 0, 75, 66
1, 899923, Note_off_c, 0, 66, 62
1, 899941, Control_c, 0, 64, 85
1, 899951, Note_on_c, 0, 78, 82
1, 899956, Control_c, 0, 64, 0
1, 899974, Note_off_c, 0, 78, 67
1, 899984, Note_on_c, 0, 70, 79
1, 900016, Note_on_c, 0, 82, 84
1, 900056, Note_off_c, 0, 70, 60
1, 900060, Note_on_c, 0, 71, 82
1, 900095, Note_on_c, 0, 83, 85
1, 900102, Note_off_c, 0, 71, 65
1, 900112, Note_off_c, 0, 82, 61
1, 900119, Note_on_c, 0, 72, 81
1, 900123, Note_on_c, 0, 69, 80
1, 900125, Note_on_c, 0, 66, 80
1, 900141, Control_c, 0, 64, 87
1, 900142, Note_on_c, 0, 84, 63
1, 900156, Control_c, 0, 64, 127
1, 900172, Note_off_c, 0, 83, 64
1, 900175, Note_off_c, 0, 72, 61
1, 900179, Note_on_c, 0, 87, 55
1, 900187, Note_on_c, 0, 86, 68
1, 900199, Note_off_c, 0, 69, 57
1, 900205, Note_off_c, 0, 87, 56
1, 900210, Note_off_c, 0, 66, 59
1, 900225, Note_on_c, 0, 75, 81
1, 900230, Note_on_c, 0, 83, 71
1, 900235, Note_off_c, 0, 84, 54
1, 900258, Note_off_c, 0, 86, 42
1, 900276, Note_on_c, 0, 82, 81
1, 900278, Note_off_c, 0, 75, 64
1, 900288, Note_off_c, 0, 83, 65
1, 900300, Note_on_c, 0, 71, 65
1, 900318, Note_on_c, 0, 70, 79
1, 900324, Note_off_c, 0, 82, 66
1, 900330, Note_off_c, 0, 71, 66
1, 900336, Note_on_c, 0, 81, 73
1, 900365, Note_off_c, 0, 81, 63
1, 900386, Note_off_c, 0, 70, 62
1, 900414, Note_on_c, 0, 78, 79
1, 900416, Note_on_c, 0, 69, 81
1, 900457, Note_on_c, 0, 75, 80
1, 900466, Note_off_c, 0, 69, 58
1, 900489, Note_on_c, 0, 66, 75
1, 900500, Note_on_c, 0, 72, 78
1, 900501, Note_off_c, 0, 78, 65
1, 900511, Note_off_c, 0, 66, 70
1, 900546, Note_off_c, 0, 75, 65
1, 900556, Control_c, 0, 64, 97
1, 900563, Note_on_c, 0, 69, 83
1, 900571, Control_c, 0, 64, 52
1, 900577, Note_off_c, 0, 72, 59
1, 900586, Control_c, 0, 64, 0
1, 900612, Note_off_c, 0, 69, 63
1, 900651, Note_on_c, 0, 34, 97
1, 900661, Control_c, 0, 64, 68
1, 900673, Note_off_c, 0, 34, 69
1, 900675, Control_c, 0, 64, 127
1, 900720, Control_c, 0, 64, 103
1, 900735, Control_c, 0, 64, 68
1, 900756, Control_c, 0, 64, 0
1, 900847, Note_on_c, 0, 74, 78
1, 900885, Note_on_c, 0, 56, 64
1, 900893, Note_on_c, 0, 59, 69
1, 900916, Note_on_c, 0, 76, 72
1, 900917, Note_on_c, 0, 70, 71
1, 900922, Note_off_c, 0, 74, 59
1, 900926, Note_off_c, 0, 59, 63
1, 900934, Control_c, 0, 64, 99
1, 900943, Note_off_c, 0, 56, 63
1, 900949, Control_c, 0, 64, 127
1, 900985, Note_off_c, 0, 76, 62
1, 900994, Control_c, 0, 64, 93
1, 901004, Note_on_c, 0, 64, 67
1, 901006, Note_off_c, 0, 70, 62
1, 901008, Control_c, 0, 64, 55
1, 901023, Control_c, 0, 64, 0
1, 901025, Note_off_c, 0, 64, 63
1, 901063, Note_on_c, 0, 60, 77
1, 901096, Note_off_c, 0, 60, 62
1, 901127, Note_on_c, 0, 65, 79
1, 901136, Note_on_c, 0, 72, 85
1, 901141, Note_on_c, 0, 56, 64
1, 901142, Note_on_c, 0, 77, 80
1, 901149, Note_off_c, 0, 65, 71
1, 901156, Control_c, 0, 64, 64
1, 901171, Control_c, 0, 64, 96
1, 901186, Control_c, 0, 64, 127
1, 901197, Note_off_c, 0, 72, 56
1, 901207, Note_on_c, 0, 65, 64
1, 901215, Control_c, 0, 64, 117
1, 901228, Note_off_c, 0, 65, 65
1, 901230, Control_c, 0, 64, 86
1, 901241, Note_off_c, 0, 77, 29
1, 901245, Control_c, 0, 64, 45
1, 901260, Control_c, 0, 64, 0
1, 901296, Note_on_c, 0, 64, 71
1, 901312, Note_off_c, 0, 56, 54
1, 901349, Note_off_c, 0, 64, 57
1, 901353, Note_on_c, 0, 80, 90
1, 901358, Note_on_c, 0, 75, 72
1, 901364, Control_c, 0, 64, 53
1, 901365, Note_on_c, 0, 63, 82
1, 901380, Control_c, 0, 64, 100
1, 901395, Control_c, 0, 64, 127
1, 901421, Note_on_c, 0, 68, 71
1, 901430, Note_off_c, 0, 75, 62
1, 901439, Control_c, 0, 64, 107
1, 901440, Note_off_c, 0, 80, 62
1, 901441, Note_off_c, 0, 63, 59
1, 901445, Note_off_c, 0, 68, 66
1, 901450, Note_on_c, 0, 62, 81
1, 901454, Control_c, 0, 64, 76
1, 901469, Control_c, 0, 64, 0
1, 901508, Note_off_c, 0, 62, 56
1, 901531, Note_on_c, 0, 61, 74
1, 901565, Control_c, 0, 64, 76
1, 901573, Note_on_c, 0, 80, 81
1, 901573, Note_on_c, 0, 84, 91
1, 901580, Control_c, 0, 64, 127
1, 901597, Note_off_c, 0, 61, 61
1, 901612, Note_on_c, 0, 60, 81
1, 901625, Note_off_c, 0, 84, 57
1, 901628, Note_on_c, 0, 72, 67
1, 901645, Note_off_c, 0, 60, 59
1, 901652, Note_off_c, 0, 80, 63
1, 901655, Note_off_c, 0, 72, 66
1, 901698, Control_c, 0, 64, 79
1, 901713, Note_on_c, 0, 56, 33
1, 901713, Control_c, 0, 64, 0
1, 901714, Note_on_c, 0, 52, 74
1, 901729, Note_off_c, 0, 56, 36
1, 901755, Note_off_c, 0, 52, 62
1, 901788, Control_c, 0, 64, 46
1, 901794, Note_on_c, 0, 77, 96
1, 901794, Note_on_c, 0, 84, 95
1, 901796, Note_on_c, 0, 89, 99
1, 901803, Control_c, 0, 64, 127
1, 901808, Note_on_c, 0, 51, 93
1, 901814, Note_on_c, 0, 87, 60
1, 901816, Note_off_c, 0, 77, 66
1, 901817, Note_off_c, 0, 84, 66
1, 901828, Note_off_c, 0, 89, 67
1, 901834, Note_off_c, 0, 87, 62
1, 901850, Note_off_c, 0, 51, 66
1, 901872, Note_on_c, 0, 77, 83
1, 901875, Note_on_c, 0, 84, 85
1, 901888, Note_on_c, 0, 89, 58
1, 901891, Note_on_c, 0, 50, 66
1, 901902, Note_off_c, 0, 77, 60
1, 901908, Note_off_c, 0, 89, 61
1, 901920, Note_off_c, 0, 84, 64
1, 901939, Note_off_c, 0, 50, 65
1, 901950, Control_c, 0, 64, 117
1, 901965, Control_c, 0, 64, 38
1, 901980, Control_c, 0, 64, 0
1, 902024, Note_on_c, 0, 34, 93
1, 902054, Control_c, 0, 64, 65
1, 902069, Control_c, 0, 64, 127
1, 902071, Note_off_c, 0, 34, 63
1, 902211, Note_on_c, 0, 76, 87
1, 902233, Note_on_c, 0, 55, 62
1, 902233, Control_c, 0, 64, 88
1, 902235, Note_on_c, 0, 54, 19
1, 902255, Control_c, 0, 64, 43
1, 902263, Note_on_c, 0, 58, 67
1, 902270, Control_c, 0, 64, 0
1, 902283, Note_on_c, 0, 73, 82
1, 902287, Note_on_c, 0, 78, 86
1, 902287, Note_off_c, 0, 54, 49
1, 902288, Note_off_c, 0, 55, 58
1, 902293, Note_on_c, 0, 61, 80
1, 902315, Control_c, 0, 64, 65
1, 902326, Note_off_c, 0, 76, 51
1, 902329, Control_c, 0, 64, 76
1, 902331, Note_off_c, 0, 58, 63
1, 902344, Control_c, 0, 64, 102
1, 902346, Note_off_c, 0, 61, 61
1, 902359, Control_c, 0, 64, 127
1, 902362, Note_on_c, 0, 66, 79
1, 902387, Note_off_c, 0, 66, 64
1, 902388, Note_off_c, 0, 73, 59
1, 902402, Note_off_c, 0, 78, 61
1, 902433, Control_c, 0, 64, 99
1, 902446, Note_on_c, 0, 62, 78
1, 902448, Control_c, 0, 64, 70
1, 902462, Control_c, 0, 64, 0
1, 902494, Note_on_c, 0, 79, 92
1, 902497, Note_on_c, 0, 74, 87
1, 902501, Note_on_c, 0, 67, 93
1, 902507, Control_c, 0, 64, 66
1, 902508, Note_on_c, 0, 58, 79
1, 902522, Control_c, 0, 64, 87
1, 902536, Control_c, 0, 64, 99
1, 902541, Note_off_c, 0, 67, 64
1, 902551, Control_c, 0, 64, 116
1, 902566, Control_c, 0, 64, 127
1, 902568, Note_on_c, 0, 67, 58
1, 902581, Control_c, 0, 64, 116
1, 902588, Note_off_c, 0, 79, 60
1, 902589, Note_off_c, 0, 74, 64
1, 902594, Note_on_c, 0, 66, 75
1, 902595, Control_c, 0, 64, 84
1, 902596, Note_off_c, 0, 67, 64
1, 902604, Note_off_c, 0, 62, 0
1, 902610, Control_c, 0, 64, 63
1, 902625, Control_c, 0, 64, 0
1, 902641, Poly_aftertouch_c, 0, 62, 127
1, 902669, Poly_aftertouch_c, 0, 62, 0
1, 902685, Control_c, 0, 64, 75
1, 902686, Note_on_c, 0, 65, 88
1, 902688, Note_off_c, 0, 66, 60
1, 902692, Note_off_c, 0, 58, 35
1, 902699, Control_c, 0, 64, 127
1, 902703, Note_on_c, 0, 77, 88
1, 902704, Note_on_c, 0, 82, 103
1, 902751, Note_off_c, 0, 65, 60
1, 902761, Note_on_c, 0, 64, 74
1, 902779, Note_on_c, 0, 70, 78
1, 902795, Note_off_c, 0, 77, 64
1, 902801, Note_off_c, 0, 70, 69
1, 902811, Note_on_c, 0, 63, 77
1, 902815, Note_off_c, 0, 64, 64
1, 902815, Note_off_c, 0, 82, 59
1, 902847, Control_c, 0, 64, 114
1, 902859, Note_off_c, 0, 63, 61
1, 902862, Control_c, 0, 64, 75
1, 902876, Control_c, 0, 64, 39
1, 902891, Control_c, 0, 64, 59
1, 902894, Note_on_c, 0, 62, 82
1, 902905, Control_c, 0, 64, 73
1, 902911, Note_on_c, 0, 86, 89
1, 902912, Note_on_c, 0, 82, 91
1, 902920, Control_c, 0, 64, 88
1, 902935, Control_c, 0, 64, 127
1, 902938, Note_on_c, 0, 83, 62
1, 902954, Note_off_c, 0, 83, 66
1, 902959, Note_off_c, 0, 62, 58
1, 902969, Note_on_c, 0, 74, 88
1, 902971, Note_on_c, 0, 58, 83
1, 902998, Note_off_c, 0, 86, 61
1, 903004, Note_off_c, 0, 74, 61
1, 903013, Note_off_c, 0, 82, 62
1, 903026, Note_on_c, 0, 55, 76
1, 903033, Poly_aftertouch_c, 0, 85, 0
1, 903034, Note_off_c, 0, 58, 65
1, 903063, Control_c, 0, 64, 118
1, 903067, Note_off_c, 0, 55, 62
1, 903077, Control_c, 0, 64, 82
1, 903092, Control_c, 0, 64, 62
1, 903107, Control_c, 0, 64, 0
1, 903122, Control_c, 0, 64, 60
1, 903133, Note_on_c, 0, 79, 103
1, 903133, Note_on_c, 0, 85, 97
1, 903135, Note_on_c, 0, 91, 108
1, 903136, Note_on_c, 0, 53, 83
1, 903137, Control_c, 0, 64, 76
1, 903142, Note_on_c, 0, 52, 77
1, 903151, Control_c, 0, 64, 103
1, 903157, Note_off_c, 0, 79, 65
1, 903166, Control_c, 0, 64, 127
1, 903168, Note_off_c, 0, 91, 65
1, 903168, Note_off_c, 0, 52, 65
1, 903171, Note_off_c, 0, 85, 64
1, 903176, Note_off_c, 0, 53, 65
1, 903215, Note_on_c, 0, 79, 93
1, 903215, Note_on_c, 0, 91, 89
1, 903216, Note_on_c, 0, 52, 85
1, 903227, Note_on_c, 0, 84, 77
1, 903233, Note_off_c, 0, 79, 62
1, 903236, Note_on_c, 0, 87, 72
1, 903249, Note_off_c, 0, 91, 57
1, 903256, Note_off_c, 0, 52, 62
1, 903269, Note_off_c, 0, 87, 58
1, 903273, Note_on_c, 0, 85, 2
1, 903274, Note_off_c, 0, 85, 127
1, 903277, Note_off_c, 0, 84, 63
1, 903329, Control_c, 0, 64, 109
1, 903344, Control_c, 0, 64, 63
1, 903359, Control_c, 0, 64, 0
1, 903374, Note_on_c, 0, 34, 103
1, 903417, Note_off_c, 0, 34, 66
1, 903433, Control_c, 0, 64, 62
1, 903448, Control_c, 0, 64, 127
1, 903588, Note_on_c, 0, 87, 92
1, 903588, Note_on_c, 0, 75, 92
1, 903589, Note_on_c, 0, 53, 74
1, 903624, Note_off_c, 0, 75, 61
1, 903626, Note_on_c, 0, 85, 27
1, 903630, Note_on_c, 0, 58, 18
1, 903641, Note_off_c, 0, 53, 66
1, 903641, Note_off_c, 0, 87, 63
1, 903656, Note_off_c, 0, 85, 53
1, 903688, Note_off_c, 0, 58, 53
1, 903783, Note_on_c, 0, 92, 104
1, 903784, Note_on_c, 0, 85, 90
1, 903787, Note_on_c, 0, 80, 105
1, 903788, Note_on_c, 0, 59, 68
1, 903792, Note_on_c, 0, 68, 100
1, 903792, Note_on_c, 0, 83, 66
1, 903803, Note_on_c, 0, 63, 74
1, 903811, Note_on_c, 0, 79, 70
1, 903828, Note_off_c, 0, 79, 66
1, 903837, Note_off_c, 0, 68, 61
1, 903837, Note_off_c, 0, 92, 70
1, 903870, Note_off_c, 0, 80, 57
1, 903894, Note_off_c, 0, 63, 58
1, 903895, Note_off_c, 0, 83, 59
1, 903904, Note_off_c, 0, 59, 48
1, 903911, Note_off_c, 0, 85, 54
1, 903981, Note_on_c, 0, 53, 66
1, 903993, Note_on_c, 0, 75, 89
1, 904001, Note_on_c, 0, 87, 80
1, 904011, Note_off_c, 0, 53, 64
1, 904012, Note_off_c, 0, 75, 71
1, 904030, Note_on_c, 0, 59, 19
1, 904033, Note_off_c, 0, 87, 61
1, 904086, Note_on_c, 0, 69, 91
1, 904089, Note_off_c, 0, 59, 44
1, 904094, Note_on_c, 0, 79, 104
1, 904095, Note_on_c, 0, 63, 72
1, 904095, Note_on_c, 0, 91, 102
1, 904125, Note_off_c, 0, 91, 69
1, 904128, Note_on_c, 0, 87, 45
1, 904128, Note_off_c, 0, 79, 68
1, 904131, Note_off_c, 0, 69, 62
1, 904155, Note_off_c, 0, 87, 59
1, 904157, Note_off_c, 0, 63, 60
1, 904262, Note_on_c, 0, 75, 87
1, 904267, Note_on_c, 0, 87, 78
1, 904274, Note_on_c, 0, 60, 64
1, 904277, Note_on_c, 0, 61, 33
1, 904278, Note_off_c, 0, 75, 73
1, 904289, Note_off_c, 0, 87, 71
1, 904331, Note_on_c, 0, 70, 102
1, 904339, Note_on_c, 0, 79, 100
1, 904341, Note_on_c, 0, 91, 97
1, 904342, Note_on_c, 0, 63, 73
1, 904346, Note_on_c, 0, 66, 76
1, 904346, Note_off_c, 0, 60, 60
1, 904362, Note_off_c, 0, 61, 52
1, 904363, Note_off_c, 0, 70, 69
1, 904372, Note_off_c, 0, 91, 70
1, 904373, Note_off_c, 0, 79, 69
1, 904375, Note_on_c, 0, 87, 37
1, 904399, Note_off_c, 0, 66, 48
1, 904408, Note_off_c, 0, 87, 55
1, 904410, Note_off_c, 0, 63, 58
1, 904482, Note_on_c, 0, 75, 96
1, 904485, Note_on_c, 0, 87, 85
1, 904487, Note_on_c, 0, 59, 76
1, 904511, Note_off_c, 0, 75, 64
1, 904515, Note_off_c, 0, 87, 69
1, 904562, Note_off_c, 0, 59, 44
1, 904569, Note_on_c, 0, 71, 105
1, 904569, Note_on_c, 0, 78, 105
1, 904572, Note_on_c, 0, 90, 101
1, 904576, Note_on_c, 0, 63, 85
1, 904581, Note_on_c, 0, 66, 79
1, 904591, Note_on_c, 0, 85, 47
1, 904603, Note_off_c, 0, 71, 65
1, 904603, Note_off_c, 0, 78, 66
1, 904606, Note_off_c, 0, 90, 69
1, 904618, Note_off_c, 0, 85, 57
1, 904619, Note_off_c, 0, 66, 45
1, 904630, Note_off_c, 0, 63, 60
1, 904715, Note_on_c, 0, 57, 80
1, 904740, Note_on_c, 0, 75, 93
1, 904744, Note_on_c, 0, 87, 89
1, 904751, Note_off_c, 0, 57, 59
1, 904772, Note_off_c, 0, 75, 62
1, 904784, Note_off_c, 0, 87, 61
1, 904832, Note_on_c, 0, 72, 101
1, 904840, Note_on_c, 0, 63, 87
1, 904844, Note_on_c, 0, 65, 69
1, 904856, Note_on_c, 0, 66, 52
1, 904856, Note_on_c, 0, 77, 103
1, 904858, Note_off_c, 0, 72, 64
1, 904860, Note_on_c, 0, 89, 98
1, 904873, Note_off_c, 0, 65, 67
1, 904875, Note_on_c, 0, 85, 66
1, 904885, Note_off_c, 0, 66, 52
1, 904891, Note_off_c, 0, 85, 66
1, 904893, Note_off_c, 0, 77, 66
1, 904897, Note_off_c, 0, 89, 64
1, 904898, Note_off_c, 0, 63, 61
1, 905034, Note_on_c, 0, 75, 93
1, 905036, Note_on_c, 0, 87, 92
1, 905074, Note_off_c, 0, 75, 67
1, 905085, Note_off_c, 0, 87, 64
1, 905123, Control_c, 0, 64, 104
1, 905127, Note_on_c, 0, 37, 4
1, 905138, Control_c, 0, 64, 68
1, 905153, Note_on_c, 0, 46, 109
1, 905153, Control_c, 0, 64, 0
1, 905159, Note_on_c, 0, 34, 82
1, 905198, Note_off_c, 0, 34, 62
1, 905198, Control_c, 0, 64, 53
1, 905213, Control_c, 0, 64, 73
1, 905228, Control_c, 0, 64, 107
1, 905237, Note_off_c, 0, 46, 60
1, 905249, Control_c, 0, 64, 127
1, 905269, Note_off_c, 0, 37, 32
1, 905356, Note_on_c, 0, 88, 96
1, 905357, Note_on_c, 0, 76, 97
1, 905370, Note_on_c, 0, 54, 78
1, 905384, Note_on_c, 0, 85, 61
1, 905389, Note_off_c, 0, 76, 61
1, 905403, Note_off_c, 0, 85, 62
1, 905409, Note_off_c, 0, 88, 61
1, 905420, Note_on_c, 0, 58, 28
1, 905470, Note_off_c, 0, 58, 44
1, 905492, Note_on_c, 0, 85, 44
1, 905493, Note_off_c, 0, 54, 63
1, 905547, Note_off_c, 0, 85, 0
1, 905568, Note_on_c, 0, 69, 105
1, 905576, Note_on_c, 0, 81, 97
1, 905577, Note_on_c, 0, 87, 81
1, 905577, Note_on_c, 0, 93, 97
1, 905585, Poly_aftertouch_c, 0, 85, 127
1, 905585, Note_on_c, 0, 63, 79
1, 905591, Note_on_c, 0, 60, 60
1, 905591, Note_on_c, 0, 61, 59
1, 905594, Note_on_c, 0, 86, 64
1, 905602, Note_on_c, 0, 90, 65
1, 905603, Note_on_c, 0, 83, 55
1, 905611, Poly_aftertouch_c, 0, 85, 0
1, 905611, Note_off_c, 0, 86, 65
1, 905612, Note_on_c, 0, 88, 50
1, 905624, Note_off_c, 0, 83, 64
1, 905639, Note_off_c, 0, 88, 55
1, 905651, Note_off_c, 0, 69, 56
1, 905663, Note_off_c, 0, 93, 65
1, 905671, Note_off_c, 0, 81, 56
1, 905682, Note_off_c, 0, 87, 42
1, 905683, Note_off_c, 0, 90, 61
1, 905711, Note_off_c, 0, 63, 55
1, 905712, Note_off_c, 0, 61, 54
1, 905770, Note_off_c, 0, 60, 0
1, 905776, Note_on_c, 0, 54, 76
1, 905790, Note_on_c, 0, 76, 91
1, 905793, Note_on_c, 0, 60, 22
1, 905795, Note_on_c, 0, 88, 84
1, 905801, Note_on_c, 0, 58, 43
1, 905810, Note_off_c, 0, 76, 68
1, 905820, Note_off_c, 0, 88, 65
1, 905823, Note_off_c, 0, 54, 64
1, 905833, Note_off_c, 0, 60, 61
1, 905836, Note_off_c, 0, 58, 55
1, 905874, Poly_aftertouch_c, 0, 85, 127
1, 905898, Note_on_c, 0, 80, 98
1, 905898, Poly_aftertouch_c, 0, 85, 0
1, 905899, Note_on_c, 0, 70, 99
1, 905901, Note_on_c, 0, 63, 69
1, 905901, Note_on_c, 0, 92, 99
1, 905919, Note_on_c, 0, 82, 66
1, 905938, Note_off_c, 0, 80, 65
1, 905938, Note_off_c, 0, 82, 66
1, 905939, Note_on_c, 0, 90, 36
1, 905940, Note_off_c, 0, 90, 127
1, 905946, Note_off_c, 0, 92, 66
1, 905986, Note_off_c, 0, 70, 57
1, 905987, Poly_aftertouch_c, 0, 61, 0
1, 906002, Note_off_c, 0, 63, 42
1, 906078, Note_on_c, 0, 61, 75
1, 906082, Note_on_c, 0, 76, 91
1, 906086, Note_on_c, 0, 88, 84
1, 906101, Note_off_c, 0, 76, 71
1, 906105, Note_off_c, 0, 88, 72
1, 906152, Note_on_c, 0, 71, 101
1, 906162, Note_on_c, 0, 68, 85
1, 906163, Note_on_c, 0, 80, 101
1, 906167, Note_on_c, 0, 64, 71
1, 906170, Note_on_c, 0, 92, 88
1, 906179, Note_on_c, 0, 90, 78
1, 906183, Note_on_c, 0, 87, 70
1, 906183, Poly_aftertouch_c, 0, 85, 0
1, 906184, Note_off_c, 0, 61, 57
1, 906189, Note_off_c, 0, 71, 69
1, 906197, Note_off_c, 0, 80, 66
1, 906200, Note_off_c, 0, 87, 66
1, 906200, Poly_aftertouch_c, 0, 63, 127
1, 906203, Note_off_c, 0, 90, 53
1, 906205, Note_off_c, 0, 92, 67
1, 906209, Note_on_c, 0, 79, 30
1, 906211, Note_off_c, 0, 68, 62
1, 906228, Note_off_c, 0, 64, 60
1, 906243, Note_off_c, 0, 79, 51
1, 906247, Poly_aftertouch_c, 0, 63, 0
1, 906293, Note_on_c, 0, 59, 79
1, 906314, Note_on_c, 0, 76, 89
1, 906322, Note_on_c, 0, 88, 87
1, 906333, Note_off_c, 0, 76, 69
1, 906340, Note_off_c, 0, 88, 70
1, 906348, Note_off_c, 0, 59, 64
1, 906366, Poly_aftertouch_c, 0, 63, 127
1, 906389, Note_on_c, 0, 72, 102
1, 906392, Note_on_c, 0, 64, 53
1, 906396, Note_on_c, 0, 91, 105
1, 906399, Note_on_c, 0, 63, 13
1, 906399, Note_on_c, 0, 79, 101
1, 906406, Note_on_c, 0, 66, 70
1, 906421, Note_off_c, 0, 72, 66
1, 906429, Note_off_c, 0, 79, 66
1, 906435, Note_off_c, 0, 91, 66
1, 906445, Note_off_c, 0, 63, 44
1, 906475, Note_off_c, 0, 66, 56
1, 906494, Note_off_c, 0, 64, 47
1, 906530, Note_on_c, 0, 58, 75
1, 906559, Note_on_c, 0, 76, 92
1, 906561, Note_on_c, 0, 88, 91
1, 906566, Poly_aftertouch_c, 0, 64, 127
1, 906582, Note_off_c, 0, 76, 67
1, 906596, Note_off_c, 0, 88, 60
1, 906605, Note_off_c, 0, 58, 64
1, 906609, Poly_aftertouch_c, 0, 64, 0
1, 906614, Poly_aftertouch_c, 0, 62, 127
1, 906653, Poly_aftertouch_c, 0, 62, 0
1, 906670, Note_on_c, 0, 73, 106
1, 906670, Note_on_c, 0, 64, 56
1, 906687, Note_on_c, 0, 66, 68
1, 906706, Note_off_c, 0, 73, 62
1, 906713, Note_on_c, 0, 78, 103
1, 906715, Note_on_c, 0, 90, 104
1, 906715, Note_off_c, 0, 66, 62
1, 906733, Note_off_c, 0, 64, 64
1, 906757, Note_off_c, 0, 78, 64
1, 906766, Note_off_c, 0, 90, 66
1, 906817, Poly_aftertouch_c, 0, 85, 0
1, 906888, Note_on_c, 0, 88, 92
1, 906890, Note_on_c, 0, 76, 86
1, 906908, Note_off_c, 0, 76, 68
1, 906934, Note_on_c, 0, 77, 29
1, 906935, Note_off_c, 0, 77, 127
1, 906942, Note_off_c, 0, 88, 62
1, 906986, Control_c, 0, 64, 88
1, 906989, Poly_aftertouch_c, 0, 37, 127
1, 907001, Control_c, 0, 64, 0
1, 907007, Note_on_c, 0, 46, 106
1, 907016, Note_on_c, 0, 34, 86
1, 907022, Poly_aftertouch_c, 0, 37, 0
1, 907034, Note_on_c, 0, 39, 46
1, 907040, Note_on_c, 0, 44, 47
1, 907041, Note_off_c, 0, 44, 127
1, 907045, Control_c, 0, 64, 62
1, 907047, Note_off_c, 0, 34, 67
1, 907060, Control_c, 0, 64, 77
1, 907067, Note_off_c, 0, 39, 53
1, 907073, Note_off_c, 0, 46, 62
1, 907075, Control_c, 0, 64, 127
1, 907165, Note_on_c, 0, 91, 105
1, 907189, Note_on_c, 0, 55, 85
1, 907327, Note_on_c, 0, 67, 101
1, 907329, Note_on_c, 0, 60, 57
1, 907335, Note_on_c, 0, 63, 82
1, 907367, Note_on_c, 0, 61, 31
1, 907368, Note_off_c, 0, 61, 127
1, 907389, Note_on_c, 0, 96, 98
1, 907390, Note_on_c, 0, 87, 96
1, 907391, Note_on_c, 0, 84, 96
1, 907415, Note_on_c, 0, 94, 44
1, 907440, Note_off_c, 0, 94, 39
1, 907487, Note_off_c, 0, 84, 60
1, 907502, Note_off_c, 0, 96, 66
1, 907512, Poly_aftertouch_c, 0, 93, 127
1, 907513, Note_off_c, 0, 91, 61
1, 907515, Note_off_c, 0, 87, 63
1, 907527, Note_off_c, 0, 55, 42
1, 907539, Poly_aftertouch_c, 0, 93, 0
1, 907574, Note_on_c, 0, 91, 97
1, 907576, Note_on_c, 0, 84, 103
1, 907577, Note_on_c, 0, 96, 97
1, 907578, Note_on_c, 0, 87, 93
1, 907597, Note_off_c, 0, 67, 55
1, 907621, Note_off_c, 0, 84, 64
1, 907630, Note_off_c, 0, 60, 53
1, 907633, Note_off_c, 0, 96, 67
1, 907640, Note_off_c, 0, 87, 64
1, 907641, Note_off_c, 0, 91, 65
1, 907648, Note_off_c, 0, 63, 54
1, 907687, Note_on_c, 0, 91, 86
1, 907688, Note_on_c, 0, 87, 90
1, 907690, Note_on_c, 0, 96, 91
1, 907690, Note_on_c, 0, 84, 99
1, 907733, Note_on_c, 0, 94, 24
1, 907734, Note_off_c, 0, 94, 127
1, 907778, Note_off_c, 0, 84, 57
1, 907784, Note_off_c, 0, 96, 64
1, 907789, Note_on_c, 0, 68, 92
1, 907790, Note_on_c, 0, 60, 61
1, 907800, Note_on_c, 0, 63, 64
1, 907803, Note_on_c, 0, 69, 84
1, 907820, Note_off_c, 0, 68, 61
1, 907821, Note_off_c, 0, 63, 37
1, 907821, Note_off_c, 0, 69, 69
1, 907823, Note_off_c, 0, 87, 59
1, 907824, Note_off_c, 0, 60, 65
1, 907825, Note_off_c, 0, 91, 52
1, 907883, Note_on_c, 0, 68, 101
1, 907889, Note_on_c, 0, 63, 74
1, 907898, Note_on_c, 0, 56, 78
1, 907900, Note_on_c, 0, 59, 60
1, 907915, Note_off_c, 0, 68, 63
1, 907946, Note_on_c, 0, 83, 100
1, 907947, Note_on_c, 0, 91, 86
1, 907949, Note_on_c, 0, 87, 84
1, 907949, Note_on_c, 0, 95, 91
1, 907961, Note_off_c, 0, 59, 58
1, 907964, Poly_aftertouch_c, 0, 60, 127
1, 907967, Note_off_c, 0, 63, 57
1, 907970, Poly_aftertouch_c, 0, 61, 127
1, 907978, Note_off_c, 0, 56, 62
1, 907982, Note_off_c, 0, 83, 67
1, 907988, Note_off_c, 0, 91, 67
1, 907993, Note_off_c, 0, 87, 65
1, 907994, Note_off_c, 0, 95, 65
1, 908004, Poly_aftertouch_c, 0, 60, 0
1, 908018, Poly_aftertouch_c, 0, 61, 0
1, 908030, Note_on_c, 0, 95, 80
1, 908033, Note_on_c, 0, 83, 103
1, 908033, Note_on_c, 0, 87, 83
1, 908037, Note_on_c, 0, 91, 88
1, 908055, Note_on_c, 0, 93, 54
1, 908090, Note_off_c, 0, 93, 44
1, 908134, Control_c, 0, 64, 95
1, 908149, Control_c, 0, 64, 69
1, 908164, Note_on_c, 0, 46, 103
1, 908164, Control_c, 0, 64, 0
1, 908173, Note_on_c, 0, 34, 90
1, 908176, Note_on_c, 0, 44, 80
1, 908179, Control_c, 0, 64, 56
1, 908185, Note_on_c, 0, 39, 62
1, 908186, Note_off_c, 0, 39, 127
1, 908186, Note_on_c, 0, 37, 47
1, 908193, Control_c, 0, 64, 71
1, 908194, Note_on_c, 0, 42, 45
1, 908195, Note_off_c, 0, 42, 127
1, 908208, Control_c, 0, 64, 88
1, 908217, Note_off_c, 0, 44, 60
1, 908222, Note_off_c, 0, 37, 60
1, 908223, Control_c, 0, 64, 127
1, 908231, Note_off_c, 0, 34, 63
1, 908259, Note_off_c, 0, 46, 63
1, 908276, Note_off_c, 0, 83, 54
1, 908280, Note_off_c, 0, 95, 54
1, 908357, Note_off_c, 0, 91, 52
1, 908393, Note_off_c, 0, 87, 55
1, 908425, Note_on_c, 0, 68, 96
1, 908433, Note_on_c, 0, 63, 69
1, 908446, Note_off_c, 0, 68, 66
1, 908449, Note_on_c, 0, 60, 44
1, 908465, Note_off_c, 0, 63, 62
1, 908477, Note_off_c, 0, 60, 59
1, 908503, Note_on_c, 0, 83, 96
1, 908504, Note_on_c, 0, 91, 85
1, 908505, Note_on_c, 0, 87, 81
1, 908510, Note_on_c, 0, 95, 77
1, 908524, Note_on_c, 0, 68, 91
1, 908527, Note_off_c, 0, 83, 64
1, 908527, Note_off_c, 0, 91, 68
1, 908529, Note_off_c, 0, 87, 68
1, 908530, Note_off_c, 0, 95, 67
1, 908538, Note_on_c, 0, 63, 60
1, 908541, Note_on_c, 0, 56, 57
1, 908548, Note_off_c, 0, 68, 61
1, 908572, Note_off_c, 0, 56, 65
1, 908573, Note_off_c, 0, 63, 61
1, 908577, Note_on_c, 0, 83, 95
1, 908580, Note_on_c, 0, 95, 83
1, 908581, Note_on_c, 0, 87, 91
1, 908585, Note_on_c, 0, 91, 87
1, 908612, Note_off_c, 0, 83, 66
1, 908619, Note_off_c, 0, 95, 63
1, 908623, Note_on_c, 0, 69, 79
1, 908626, Note_on_c, 0, 59, 50
1, 908629, Note_off_c, 0, 91, 66
1, 908642, Note_off_c, 0, 69, 69
1, 908642, Note_off_c, 0, 87, 64
1, 908656, Note_off_c, 0, 59, 62
1, 908665, Note_on_c, 0, 63, 22
1, 908703, Note_on_c, 0, 69, 92
1, 908706, Note_off_c, 0, 63, 0
1, 908706, Note_on_c, 0, 63, 45
1, 908709, Note_on_c, 0, 57, 58
1, 908720, Note_off_c, 0, 69, 66
1, 908721, Note_on_c, 0, 59, 61
1, 908749, Note_on_c, 0, 82, 100
1, 908749, Note_off_c, 0, 59, 64
1, 908757, Note_on_c, 0, 94, 81
1, 908758, Note_on_c, 0, 91, 82
1, 908759, Note_on_c, 0, 87, 81
1, 908760, Note_off_c, 0, 57, 61
1, 908761, Note_off_c, 0, 63, 62
1, 908779, Note_off_c, 0, 82, 64
1, 908779, Note_off_c, 0, 87, 72
1, 908781, Note_off_c, 0, 91, 64
1, 908805, Note_off_c, 0, 94, 0
1, 908819, Note_on_c, 0, 94, 67
1, 908823, Note_on_c, 0, 82, 98
1, 908826, Note_on_c, 0, 91, 88
1, 908834, Note_on_c, 0, 87, 89
1, 908853, Control_c, 0, 64, 105
1, 908868, Control_c, 0, 64, 62
1, 908880, Note_on_c, 0, 46, 103
1, 908883, Control_c, 0, 64, 0
1, 908892, Note_on_c, 0, 42, 85
1, 908893, Note_off_c, 0, 42, 127
1, 908894, Note_on_c, 0, 39, 79
1, 908895, Note_off_c, 0, 39, 127
1, 908895, Note_on_c, 0, 37, 76
1, 908900, Note_on_c, 0, 34, 75
1, 908919, Note_off_c, 0, 37, 62
1, 908924, Note_off_c, 0, 34, 64
1, 908927, Control_c, 0, 64, 85
1, 908936, Note_off_c, 0, 46, 60
1, 908942, Control_c, 0, 64, 127
1, 908950, Note_off_c, 0, 82, 59
1, 908954, Note_off_c, 0, 94, 63
1, 909010, Note_off_c, 0, 87, 48
1, 909012, Poly_aftertouch_c, 0, 47, 0
1, 909017, Note_off_c, 0, 91, 52
1, 909120, Note_on_c, 0, 69, 90
1, 909130, Note_on_c, 0, 59, 68
1, 909136, Note_on_c, 0, 57, 59
1, 909140, Note_on_c, 0, 63, 57
1, 909156, Note_off_c, 0, 59, 64
1, 909156, Note_off_c, 0, 69, 59
1, 909165, Note_off_c, 0, 57, 65
1, 909170, Note_off_c, 0, 63, 64
1, 909204, Note_on_c, 0, 82, 89
1, 909207, Note_on_c, 0, 91, 78
1, 909217, Note_on_c, 0, 87, 58
1, 909222, Note_on_c, 0, 94, 61
1, 909222, Note_off_c, 0, 82, 70
1, 909227, Note_off_c, 0, 91, 69
1, 909231, Note_on_c, 0, 69, 83
1, 909237, Note_off_c, 0, 87, 66
1, 909240, Note_on_c, 0, 63, 65
1, 909252, Note_on_c, 0, 59, 42
1, 909262, Note_on_c, 0, 82, 95
1, 909270, Note_off_c, 0, 69, 57
1, 909274, Note_on_c, 0, 91, 81
1, 909279, Note_on_c, 0, 60, 28
1, 909279, Note_off_c, 0, 59, 63
1, 909285, Note_on_c, 0, 87, 75
1, 909296, Note_off_c, 0, 63, 56
1, 909296, Poly_aftertouch_c, 0, 57, 127
1, 909305, Note_off_c, 0, 82, 65
1, 909310, Note_off_c, 0, 94, 66
1, 909312, Note_off_c, 0, 60, 54
1, 909318, Note_off_c, 0, 91, 66
1, 909322, Note_off_c, 0, 87, 61
1, 909333, Poly_aftertouch_c, 0, 57, 0
1, 909353, Note_on_c, 0, 70, 91
1, 909353, Note_on_c, 0, 59, 70
1, 909376, Note_on_c, 0, 63, 52
1, 909383, Note_on_c, 0, 58, 54
1, 909401, Note_off_c, 0, 70, 63
1, 909407, Note_off_c, 0, 58, 60
1, 909410, Note_off_c, 0, 59, 59
1, 909413, Note_off_c, 0, 63, 63
1, 909435, Note_on_c, 0, 81, 97
1, 909439, Note_on_c, 0, 91, 84
1, 909445, Note_on_c, 0, 87, 76
1, 909445, Note_on_c, 0, 93, 77
1, 909457, Note_off_c, 0, 81, 64
1, 909460, Note_off_c, 0, 91, 69
1, 909465, Note_off_c, 0, 93, 70
1, 909466, Note_off_c, 0, 87, 72
1, 909473, Note_on_c, 0, 70, 82
1, 909481, Note_on_c, 0, 58, 65
1, 909490, Note_on_c, 0, 63, 67
1, 909490, Note_on_c, 0, 59, 64
1, 909506, Note_on_c, 0, 81, 96
1, 909511, Note_on_c, 0, 93, 71
1, 909516, Note_on_c, 0, 87, 84
1, 909518, Note_off_c, 0, 59, 63
1, 909522, Note_on_c, 0, 91, 73
1, 909530, Note_off_c, 0, 70, 64
1, 909534, Note_off_c, 0, 93, 69
1, 909538, Note_off_c, 0, 58, 59
1, 909538, Note_off_c, 0, 63, 47
1, 909541, Note_off_c, 0, 81, 61
1, 909544, Note_off_c, 0, 91, 70
1, 909554, Note_off_c, 0, 87, 61
1, 909588, Poly_aftertouch_c, 0, 68, 0
1, 909609, Note_on_c, 0, 71, 99
1, 909620, Note_on_c, 0, 61, 76
1, 909623, Note_on_c, 0, 64, 61
1, 909632, Note_on_c, 0, 59, 47
1, 909650, Note_off_c, 0, 59, 63
1, 909652, Note_off_c, 0, 71, 64
1, 909654, Note_on_c, 0, 80, 95
1, 909660, Note_on_c, 0, 92, 87
1, 909663, Note_on_c, 0, 87, 83
1, 909666, Note_on_c, 0, 65, 19
1, 909672, Note_off_c, 0, 61, 57
1, 909673, Note_off_c, 0, 64, 61
1, 909678, Note_off_c, 0, 80, 61
1, 909680, Note_off_c, 0, 87, 69
1, 909685, Note_off_c, 0, 92, 65
1, 909708, Note_off_c, 0, 65, 46
1, 909741, Note_on_c, 0, 71, 92
1, 909742, Note_on_c, 0, 80, 97
1, 909746, Note_on_c, 0, 61, 75
1, 909746, Note_on_c, 0, 92, 81
1, 909747, Note_on_c, 0, 87, 79
1, 909753, Note_on_c, 0, 64, 67
1, 909755, Note_on_c, 0, 59, 44
1, 909780, Note_off_c, 0, 64, 66
1, 909782, Note_off_c, 0, 71, 65
1, 909785, Note_off_c, 0, 59, 53
1, 909796, Note_off_c, 0, 80, 63
1, 909803, Note_off_c, 0, 61, 59
1, 909808, Note_off_c, 0, 92, 66
1, 909816, Note_off_c, 0, 87, 54
1, 909860, Control_c, 0, 64, 78
1, 909875, Control_c, 0, 64, 0
1, 909888, Note_on_c, 0, 79, 105
1, 909890, Note_on_c, 0, 81, 90
1, 909890, Note_on_c, 0, 91, 95
1, 909893, Note_on_c, 0, 72, 106
1, 909894, Note_on_c, 0, 87, 98
1, 909897, Note_on_c, 0, 63, 93
1, 909904, Note_on_c, 0, 68, 81
1, 909908, Note_on_c, 0, 89, 66
1, 909911, Note_on_c, 0, 60, 65
1, 909920, Control_c, 0, 64, 66
1, 909927, Note_off_c, 0, 89, 59
1, 909928, Note_on_c, 0, 66, 39
1, 909933, Note_on_c, 0, 62, 46
1, 909934, Control_c, 0, 64, 100
1, 909949, Control_c, 0, 64, 127
1, 909966, Note_off_c, 0, 66, 49
1, 909985, Note_off_c, 0, 62, 38
1, 909987, Note_off_c, 0, 91, 60
1, 910000, Note_off_c, 0, 79, 55
1, 910004, Note_off_c, 0, 72, 51
1, 910016, Note_off_c, 0, 60, 49
1, 910043, Note_off_c, 0, 68, 58
1, 910063, Note_off_c, 0, 63, 57
1, 910080, Note_off_c, 0, 81, 58
1, 910084, Note_off_c, 0, 87, 63
1, 910135, Note_on_c, 0, 78, 107
1, 910138, Note_on_c, 0, 72, 100
1, 910138, Note_on_c, 0, 90, 102
1, 910140, Note_on_c, 0, 64, 85
1, 910145, Note_on_c, 0, 87, 83
1, 910149, Note_on_c, 0, 60, 75
1, 910157, Note_on_c, 0, 69, 68
1, 910178, Note_on_c, 0, 81, 34
1, 910208, Note_off_c, 0, 60, 62
1, 910211, Note_off_c, 0, 81, 49
1, 910214, Note_off_c, 0, 72, 56
1, 910224, Note_off_c, 0, 78, 58
1, 910225, Note_off_c, 0, 90, 65
1, 910241, Note_off_c, 0, 64, 59
1, 910260, Note_off_c, 0, 69, 54
1, 910261, Note_off_c, 0, 87, 63
1, 910311, Note_on_c, 0, 77, 107
1, 910313, Note_on_c, 0, 85, 85
1, 910314, Note_on_c, 0, 73, 107
1, 910314, Note_on_c, 0, 89, 99
1, 910318, Note_on_c, 0, 81, 83
1, 910324, Note_on_c, 0, 66, 43
1, 910326, Note_on_c, 0, 61, 79
1, 910327, Note_on_c, 0, 69, 64
1, 910329, Note_on_c, 0, 65, 78
1, 910391, Note_off_c, 0, 73, 57
1, 910393, Note_off_c, 0, 61, 59
1, 910398, Note_off_c, 0, 66, 53
1, 910401, Poly_aftertouch_c, 0, 86, 0
1, 910417, Note_off_c, 0, 81, 0
1, 910417, Note_on_c, 0, 81, 8
1, 910422, Note_off_c, 0, 65, 61
1, 910422, Note_off_c, 0, 89, 57
1, 910435, Note_off_c, 0, 77, 56
1, 910440, Note_off_c, 0, 69, 54
1, 910443, Poly_aftertouch_c, 0, 86, 0
1, 910473, Note_off_c, 0, 85, 62
1, 910477, Note_off_c, 0, 81, 59
1, 910514, Note_on_c, 0, 73, 112
1, 910515, Note_on_c, 0, 76, 106
1, 910516, Note_on_c, 0, 88, 105
1, 910521, Note_on_c, 0, 66, 88
1, 910522, Note_on_c, 0, 69, 77
1, 910526, Note_on_c, 0, 61, 83
1, 910526, Note_on_c, 0, 81, 52
1, 910531, Note_on_c, 0, 85, 68
1, 910540, Note_on_c, 0, 68, 49
1, 910541, Note_off_c, 0, 68, 127
1, 910547, Note_off_c, 0, 73, 69
1, 910567, Note_on_c, 0, 65, 38
1, 910567, Note_off_c, 0, 81, 55
1, 910572, Note_off_c, 0, 69, 52
1, 910581, Note_off_c, 0, 66, 59
1, 910590, Note_off_c, 0, 65, 65
1, 910596, Note_off_c, 0, 61, 61
1, 910627, Note_off_c, 0, 76, 54
1, 910637, Poly_aftertouch_c, 0, 72, 0
1, 910670, Note_off_c, 0, 85, 27
1, 910725, Note_off_c, 0, 88, 60
1, 910814, Note_on_c, 0, 25, 41
1, 910863, Note_off_c, 0, 25, 54
1, 910939, Note_on_c, 0, 34, 112
1, 910944, Note_on_c, 0, 22, 94
1, 910954, Note_on_c, 0, 30, 76
1, 910955, Note_off_c, 0, 30, 127
1, 910956, Note_on_c, 0, 27, 78
1, 910957, Note_off_c, 0, 27, 127
1, 910966, Note_on_c, 0, 25, 51
1, 910967, Note_off_c, 0, 25, 127
1, 910967, Note_on_c, 0, 26, 49
1, 910967, Control_c, 0, 64, 76
1, 910975, Note_on_c, 0, 32, 44
1, 910981, Control_c, 0, 64, 0
1, 910989, Note_on_c, 0, 23, 30
1, 911005, Note_off_c, 0, 26, 57
1, 911011, Note_off_c, 0, 32, 54
1, 911037, Note_off_c, 0, 22, 65
1, 911040, Control_c, 0, 64, 59
1, 911055, Control_c, 0, 64, 100
1, 911067, Note_off_c, 0, 23, 36
1, 911070, Control_c, 0, 64, 127
1, 911160, Note_off_c, 0, 34, 56
1, 911436, Note_on_c, 0, 77, 105
1, 911438, Note_on_c, 0, 65, 103
1, 911440, Note_on_c, 0, 82, 86
1, 911440, Note_on_c, 0, 89, 95
1, 911441, Note_on_c, 0, 86, 91
1, 911443, Note_on_c, 0, 58, 91
1, 911450, Note_on_c, 0, 62, 76
1, 911454, Note_on_c, 0, 53, 72
1, 911467, Note_off_c, 0, 77, 69
1, 911470, Note_on_c, 0, 55, 59
1, 911470, Note_on_c, 0, 60, 49
1, 911471, Note_off_c, 0, 60, 127
1, 911473, Note_on_c, 0, 59, 58
1, 911475, Note_off_c, 0, 86, 65
1, 911482, Note_off_c, 0, 89, 63
1, 911483, Note_off_c, 0, 82, 63
1, 911495, Note_off_c, 0, 55, 54
1, 911514, Note_off_c, 0, 53, 56
1, 911514, Note_off_c, 0, 59, 53
1, 911543, Note_off_c, 0, 58, 39
1, 911550, Note_off_c, 0, 65, 56
1, 911660, Note_off_c, 0, 62, 48
1, 911751, Note_on_c, 0, 62, 60
1, 911751, Note_on_c, 0, 65, 110
1, 911753, Note_on_c, 0, 58, 94
1, 911754, Note_on_c, 0, 91, 117
1, 911759, Note_on_c, 0, 53, 82
1, 911759, Note_on_c, 0, 94, 99
1, 911760, Note_on_c, 0, 103, 109
1, 911785, Note_off_c, 0, 53, 67
1, 911789, Note_on_c, 0, 57, 43
1, 911791, Note_off_c, 0, 58, 65
1, 911795, Note_off_c, 0, 62, 60
1, 911801, Note_off_c, 0, 65, 68
1, 911818, Note_off_c, 0, 57, 55
1, 911857, Poly_aftertouch_c, 0, 55, 0
1, 912337, Note_off_c, 0, 103, 31
1, 912350, Note_off_c, 0, 91, 59
1, 912373, Note_off_c, 0, 94, 59
1, 912391, Note_on_c, 0, 88, 114
1, 912393, Note_on_c, 0, 82, 109
1, 912394, Note_on_c, 0, 86, 106
1, 912400, Note_on_c, 0, 77, 94
1, 912419, Note_off_c, 0, 86, 55
1, 912424, Note_off_c, 0, 77, 56
1, 912425, Note_off_c, 0, 88, 66
1, 912462, Note_off_c, 0, 82, 58
1, 912508, Note_on_c, 0, 89, 105
1, 912513, Note_on_c, 0, 94, 91
1, 912515, Note_on_c, 0, 98, 94
1, 912520, Note_on_c, 0, 101, 88
1, 912540, Note_off_c, 0, 101, 69
1, 912541, Note_off_c, 0, 89, 65
1, 912552, Note_off_c, 0, 98, 64
1, 912555, Note_off_c, 0, 94, 64
1, 912602, Note_on_c, 0, 88, 104
1, 912609, Note_on_c, 0, 86, 83
1, 912610, Note_on_c, 0, 82, 85
1, 912617, Note_on_c, 0, 77, 75
1, 912633, Note_off_c, 0, 86, 64
1, 912639, Note_off_c, 0, 88, 65
1, 912643, Note_off_c, 0, 77, 63
1, 912650, Note_on_c, 0, 80, 32
1, 912658, Note_on_c, 0, 89, 93
1, 912662, Note_off_c, 0, 82, 63
1, 912662, Note_on_c, 0, 98, 86
1, 912664, Note_on_c, 0, 94, 76
1, 912675, Note_on_c, 0, 101, 73
1, 912680, Note_off_c, 0, 80, 56
1, 912691, Note_off_c, 0, 101, 66
1, 912692, Note_off_c, 0, 98, 65
1, 912695, Note_off_c, 0, 94, 60
1, 912696, Note_off_c, 0, 89, 65
1, 912742, Note_on_c, 0, 85, 108
1, 912753, Note_on_c, 0, 80, 76
1, 912757, Note_on_c, 0, 74, 69
1, 912758, Note_on_c, 0, 78, 66
1, 912760, Note_on_c, 0, 77, 71
1, 912769, Note_off_c, 0, 80, 48
1, 912781, Note_off_c, 0, 85, 64
1, 912783, Note_off_c, 0, 78, 68
1, 912783, Note_off_c, 0, 74, 69
1, 912786, Note_off_c, 0, 77, 66
1, 912787, Note_on_c, 0, 76, 4
1, 912796, Note_on_c, 0, 86, 93
1, 912804, Note_on_c, 0, 94, 81
1, 912805, Note_on_c, 0, 89, 73
1, 912806, Note_on_c, 0, 98, 76
1, 912824, Note_off_c, 0, 86, 62
1, 912824, Note_off_c, 0, 89, 62
1, 912827, Note_off_c, 0, 94, 65
1, 912829, Note_off_c, 0, 98, 71
1, 912834, Note_on_c, 0, 90, 43
1, 912845, Note_on_c, 0, 85, 102
1, 912847, Note_off_c, 0, 76, 41
1, 912853, Note_on_c, 0, 82, 75
1, 912861, Note_on_c, 0, 77, 68
1, 912862, Note_off_c, 0, 90, 36
1, 912874, Note_off_c, 0, 85, 66
1, 912877, Note_off_c, 0, 77, 71
1, 912881, Note_on_c, 0, 86, 94
1, 912888, Note_off_c, 0, 82, 61
1, 912889, Note_on_c, 0, 89, 80
1, 912892, Note_on_c, 0, 98, 66
1, 912894, Note_on_c, 0, 94, 78
1, 912908, Note_off_c, 0, 98, 66
1, 912917, Note_off_c, 0, 86, 67
1, 912917, Note_off_c, 0, 89, 62
1, 912917, Note_off_c, 0, 94, 67
1, 912936, Poly_aftertouch_c, 0, 75, 0
1, 912951, Note_on_c, 0, 75, 52
1, 912960, Note_on_c, 0, 81, 98
1, 912966, Note_on_c, 0, 77, 59
1, 912981, Note_on_c, 0, 70, 66
1, 912993, Note_off_c, 0, 81, 67
1, 913003, Note_on_c, 0, 87, 86
1, 913007, Note_on_c, 0, 82, 93
1, 913007, Note_off_c, 0, 70, 67
1, 913008, Note_off_c, 0, 77, 59
1, 913013, Note_on_c, 0, 94, 77
1, 913014, Note_on_c, 0, 90, 72
1, 913017, Note_off_c, 0, 75, 62
1, 913026, Note_off_c, 0, 82, 68
1, 913034, Note_off_c, 0, 94, 69
1, 913052, Note_off_c, 0, 87, 65
1, 913061, Note_on_c, 0, 81, 93
1, 913061, Note_off_c, 0, 90, 57
1, 913066, Note_on_c, 0, 77, 65
1, 913069, Note_on_c, 0, 70, 73
1, 913076, Note_off_c, 0, 81, 72
1, 913077, Note_on_c, 0, 74, 62
1, 913095, Note_on_c, 0, 79, 48
1, 913096, Note_on_c, 0, 82, 98
1, 913104, Note_off_c, 0, 74, 66
1, 913104, Note_off_c, 0, 70, 62
1, 913108, Note_on_c, 0, 94, 81
1, 913110, Note_off_c, 0, 77, 61
1, 913121, Note_off_c, 0, 79, 60
1, 913127, Note_off_c, 0, 94, 73
1, 913131, Note_off_c, 0, 82, 67
1, 913169, Note_on_c, 0, 76, 97
1, 913172, Note_on_c, 0, 74, 79
1, 913182, Note_on_c, 0, 70, 80
1, 913183, Note_on_c, 0, 65, 63
1, 913204, Note_off_c, 0, 70, 66
1, 913208, Note_off_c, 0, 76, 66
1, 913210, Note_off_c, 0, 65, 64
1, 913210, Note_on_c, 0, 77, 93
1, 913213, Note_off_c, 0, 74, 61
1, 913219, Note_on_c, 0, 86, 78
1, 913221, Note_on_c, 0, 82, 81
1, 913221, Note_on_c, 0, 89, 72
1, 913238, Note_off_c, 0, 89, 62
1, 913243, Note_off_c, 0, 77, 60
1, 913246, Note_off_c, 0, 86, 65
1, 913249, Note_off_c, 0, 82, 61
1, 913275, Note_on_c, 0, 76, 97
1, 913282, Note_on_c, 0, 70, 81
1, 913283, Note_on_c, 0, 65, 69
1, 913286, Note_on_c, 0, 74, 69
1, 913290, Poly_aftertouch_c, 0, 67, 0
1, 913298, Note_off_c, 0, 76, 61
1, 913305, Note_off_c, 0, 70, 65
1, 913309, Note_on_c, 0, 77, 88
1, 913309, Note_off_c, 0, 74, 66
1, 913309, Note_on_c, 0, 89, 67
1, 913313, Note_off_c, 0, 65, 65
1, 913318, Note_on_c, 0, 82, 74
1, 913318, Note_on_c, 0, 86, 75
1, 913325, Note_off_c, 0, 89, 64
1, 913340, Note_off_c, 0, 86, 71
1, 913341, Note_off_c, 0, 77, 62
1, 913341, Note_off_c, 0, 82, 69
1, 913374, Note_on_c, 0, 73, 101
1, 913386, Note_on_c, 0, 65, 75
1, 913392, Note_on_c, 0, 66, 68
1, 913398, Note_on_c, 0, 70, 63
1, 913407, Note_on_c, 0, 62, 55
1, 913407, Note_on_c, 0, 63, 25
1, 913410, Note_off_c, 0, 65, 63
1, 913416, Note_off_c, 0, 66, 66
1, 913418, Note_off_c, 0, 73, 60
1, 913419, Note_on_c, 0, 74, 84
1, 913422, Note_off_c, 0, 70, 68
1, 913426, Note_on_c, 0, 86, 72
1, 913426, Note_off_c, 0, 62, 62
1, 913434, Note_on_c, 0, 82, 75
1, 913446, Note_off_c, 0, 63, 51
1, 913447, Note_on_c, 0, 78, 45
1, 913449, Note_on_c, 0, 77, 57
1, 913452, Note_off_c, 0, 74, 61
1, 913460, Note_off_c, 0, 82, 65
1, 913464, Note_off_c, 0, 86, 59
1, 913468, Note_off_c, 0, 77, 67
1, 913470, Note_on_c, 0, 73, 88
1, 913472, Note_off_c, 0, 78, 60
1, 913494, Note_on_c, 0, 65, 66
1, 913495, Note_on_c, 0, 70, 67
1, 913506, Note_on_c, 0, 66, 35
1, 913512, Note_off_c, 0, 73, 64
1, 913520, Note_off_c, 0, 65, 67
1, 913520, Note_off_c, 0, 70, 68
1, 913526, Note_on_c, 0, 74, 91
1, 913529, Note_off_c, 0, 66, 59
1, 913536, Note_on_c, 0, 86, 60
1, 913538, Note_on_c, 0, 82, 80
1, 913543, Note_on_c, 0, 77, 66
1, 913558, Note_off_c, 0, 86, 63
1, 913562, Note_off_c, 0, 82, 67
1, 913567, Note_off_c, 0, 74, 65
1, 913567, Note_off_c, 0, 77, 69
1, 913587, Note_on_c, 0, 69, 96
1, 913595, Note_on_c, 0, 65, 67
1, 913599, Note_on_c, 0, 62, 77
1, 913619, Note_on_c, 0, 58, 49
1, 913627, Note_off_c, 0, 69, 64
1, 913632, Note_off_c, 0, 62, 60
1, 913637, Note_off_c, 0, 65, 54
1, 913645, Note_off_c, 0, 58, 59
1, 913649, Note_on_c, 0, 70, 96
1, 913657, Note_on_c, 0, 82, 78
1, 913662, Note_on_c, 0, 77, 57
1, 913664, Note_on_c, 0, 74, 75
1, 913671, Note_off_c, 0, 70, 62
1, 913680, Note_off_c, 0, 82, 64
1, 913690, Note_off_c, 0, 77, 66
1, 913691, Note_on_c, 0, 69, 88
1, 913691, Note_off_c, 0, 74, 67
1, 913698, Note_on_c, 0, 80, 13
1, 913700, Note_on_c, 0, 65, 60
1, 913707, Note_off_c, 0, 69, 72
1, 913709, Note_on_c, 0, 62, 54
1, 913711, Note_on_c, 0, 58, 69
1, 913720, Note_on_c, 0, 67, 49
1, 913726, Note_off_c, 0, 65, 69
1, 913735, Note_off_c, 0, 58, 66
1, 913736, Note_off_c, 0, 62, 60
1, 913741, Note_on_c, 0, 70, 94
1, 913744, Note_off_c, 0, 67, 59
1, 913746, Note_off_c, 0, 80, 50
1, 913750, Note_on_c, 0, 82, 80
1, 913766, Note_on_c, 0, 77, 39
1, 913771, Note_off_c, 0, 82, 71
1, 913783, Note_off_c, 0, 70, 67
1, 913793, Note_off_c, 0, 77, 57
1, 913801, Note_on_c, 0, 64, 97
1, 913804, Note_on_c, 0, 58, 74
1, 913805, Note_on_c, 0, 62, 81
1, 913813, Note_on_c, 0, 53, 75
1, 913841, Note_off_c, 0, 64, 67
1, 913846, Note_off_c, 0, 53, 64
1, 913851, Note_off_c, 0, 58, 60
1, 913855, Note_off_c, 0, 62, 58
1, 913863, Note_on_c, 0, 65, 87
1, 913863, Note_on_c, 0, 77, 71
1, 913868, Note_on_c, 0, 74, 79
1, 913872, Note_on_c, 0, 70, 72
1, 913886, Note_off_c, 0, 65, 66
1, 913891, Note_off_c, 0, 77, 64
1, 913895, Note_off_c, 0, 70, 68
1, 913899, Note_off_c, 0, 74, 66
1, 913908, Note_on_c, 0, 64, 93
1, 913911, Note_on_c, 0, 62, 62
1, 913915, Note_on_c, 0, 53, 68
1, 913920, Note_on_c, 0, 58, 69
1, 913937, Note_off_c, 0, 64, 58
1, 913941, Note_off_c, 0, 62, 65
1, 913948, Note_off_c, 0, 53, 67
1, 913949, Note_off_c, 0, 58, 66
1, 913956, Note_on_c, 0, 65, 87
1, 913962, Note_on_c, 0, 70, 74
1, 913966, Note_on_c, 0, 74, 71
1, 913978, Note_on_c, 0, 77, 45
1, 913985, Note_off_c, 0, 74, 73
1, 913990, Note_off_c, 0, 65, 60
1, 913991, Note_off_c, 0, 70, 61
1, 914001, Note_off_c, 0, 77, 60
1, 914014, Note_on_c, 0, 61, 101
1, 914027, Note_on_c, 0, 53, 71
1, 914030, Note_on_c, 0, 54, 68
1, 914039, Note_on_c, 0, 50, 58
1, 914052, Note_on_c, 0, 58, 44
1, 914052, Note_off_c, 0, 53, 69
1, 914056, Note_off_c, 0, 54, 67
1, 914060, Note_off_c, 0, 61, 60
1, 914067, Note_off_c, 0, 50, 65
1, 914071, Note_on_c, 0, 62, 86
1, 914075, Note_on_c, 0, 74, 77
1, 914079, Note_on_c, 0, 70, 77
1, 914082, Note_off_c, 0, 58, 56
1, 914096, Note_on_c, 0, 65, 64
1, 914099, Note_off_c, 0, 62, 61
1, 914107, Note_off_c, 0, 74, 58
1, 914112, Note_off_c, 0, 70, 63
1, 914113, Note_on_c, 0, 61, 90
1, 914116, Note_off_c, 0, 65, 72
1, 914122, Note_on_c, 0, 53, 63
1, 914143, Note_off_c, 0, 61, 70
1, 914146, Note_on_c, 0, 58, 48
1, 914147, Note_off_c, 0, 53, 69
1, 914152, Poly_aftertouch_c, 0, 66, 0
1, 914167, Note_on_c, 0, 62, 87
1, 914168, Note_on_c, 0, 65, 71
1, 914176, Note_off_c, 0, 58, 59
1, 914178, Note_on_c, 0, 70, 76
1, 914178, Poly_aftertouch_c, 0, 66, 0
1, 914186, Note_on_c, 0, 74, 60
1, 914200, Note_off_c, 0, 65, 62
1, 914203, Note_off_c, 0, 74, 68
1, 914204, Note_off_c, 0, 70, 63
1, 914207, Note_off_c, 0, 62, 65
1, 914234, Note_on_c, 0, 57, 93
1, 914245, Note_on_c, 0, 50, 63
1, 914246, Note_on_c, 0, 53, 68
1, 914254, Note_on_c, 0, 46, 69
1, 914268, Note_on_c, 0, 49, 42
1, 914278, Note_off_c, 0, 57, 63
1, 914280, Note_off_c, 0, 46, 64
1, 914284, Note_off_c, 0, 53, 59
1, 914289, Note_off_c, 0, 50, 64
1, 914290, Note_on_c, 0, 58, 93
1, 914298, Note_off_c, 0, 49, 56
1, 914299, Note_on_c, 0, 70, 79
1, 914307, Note_on_c, 0, 65, 69
1, 914310, Note_on_c, 0, 62, 63
1, 914326, Note_off_c, 0, 58, 63
1, 914331, Note_off_c, 0, 70, 56
1, 914331, Note_off_c, 0, 62, 69
1, 914337, Note_off_c, 0, 65, 62
1, 914339, Note_on_c, 0, 68, 27
1, 914340, Note_off_c, 0, 68, 127
1, 914340, Note_on_c, 0, 57, 92
1, 914349, Note_on_c, 0, 46, 65
1, 914352, Note_on_c, 0, 53, 62
1, 914360, Note_off_c, 0, 57, 64
1, 914366, Note_on_c, 0, 50, 44
1, 914376, Poly_aftertouch_c, 0, 68, 0
1, 914386, Note_off_c, 0, 53, 65
1, 914389, Note_off_c, 0, 46, 60
1, 914391, Note_off_c, 0, 50, 62
1, 914394, Note_on_c, 0, 58, 93
1, 914403, Note_on_c, 0, 70, 75
1, 914409, Note_on_c, 0, 65, 58
1, 914427, Note_off_c, 0, 70, 69
1, 914432, Note_off_c, 0, 58, 66
1, 914437, Note_off_c, 0, 65, 65
1, 914453, Note_on_c, 0, 52, 99
1, 914454, Note_on_c, 0, 50, 75
1, 914459, Note_on_c, 0, 46, 87
1, 914467, Note_on_c, 0, 41, 76
1, 914498, Note_off_c, 0, 52, 63
1, 914506, Note_off_c, 0, 41, 61
1, 914517, Note_off_c, 0, 46, 59
1, 914526, Note_on_c, 0, 53, 95
1, 914527, Note_off_c, 0, 50, 61
1, 914531, Note_on_c, 0, 58, 80
1, 914536, Note_on_c, 0, 62, 76
1, 914536, Note_on_c, 0, 65, 66
1, 914569, Note_off_c, 0, 53, 67
1, 914570, Note_off_c, 0, 65, 59
1, 914573, Note_on_c, 0, 52, 101
1, 914582, Note_on_c, 0, 50, 62
1, 914582, Note_on_c, 0, 46, 76
1, 914592, Note_off_c, 0, 62, 58
1, 914593, Note_off_c, 0, 58, 56
1, 914600, Note_on_c, 0, 41, 56
1, 914606, Note_off_c, 0, 52, 69
1, 914629, Note_off_c, 0, 50, 65
1, 914638, Note_on_c, 0, 53, 100
1, 914644, Note_on_c, 0, 58, 70
1, 914644, Note_on_c, 0, 62, 74
1, 914645, Note_off_c, 0, 41, 62
1, 914648, Note_on_c, 0, 65, 84
1, 914656, Note_off_c, 0, 46, 61
1, 914686, Poly_aftertouch_c, 0, 45, 127
1, 914722, Poly_aftertouch_c, 0, 45, 0
1, 914748, Note_off_c, 0, 53, 61
1, 914755, Control_c, 0, 64, 80
1, 914769, Control_c, 0, 64, 0
1, 914779, Note_off_c, 0, 65, 55
1, 914784, Note_off_c, 0, 62, 57
1, 914785, Note_off_c, 0, 58, 53
1, 914787, Note_on_c, 0, 34, 114
1, 914797, Note_on_c, 0, 22, 98
1, 914802, Note_on_c, 0, 30, 81
1, 914803, Note_off_c, 0, 30, 127
1, 914808, Note_on_c, 0, 27, 72
1, 914809, Note_off_c, 0, 27, 127
1, 914815, Note_on_c, 0, 25, 57
1, 914823, Note_on_c, 0, 33, 40
1, 914824, Note_off_c, 0, 33, 127
1, 914841, Note_off_c, 0, 22, 64
1, 914844, Control_c, 0, 64, 73
1, 914856, Poly_aftertouch_c, 0, 27, 0
1, 914859, Control_c, 0, 64, 127
1, 914865, Poly_aftertouch_c, 0, 33, 0
1, 914908, Note_off_c, 0, 34, 62
1, 914916, Note_off_c, 0, 25, 31
1, 914916, Poly_aftertouch_c, 0, 23, 127
1, 914961, Poly_aftertouch_c, 0, 23, 0
1, 915071, Note_on_c, 0, 56, 102
1, 915074, Note_on_c, 0, 58, 106
1, 915077, Note_on_c, 0, 62, 72
1, 915077, Note_on_c, 0, 70, 90
1, 915079, Note_on_c, 0, 65, 77
1, 915080, Note_on_c, 0, 50, 69
1, 915085, Note_on_c, 0, 53, 70
1, 915100, Note_on_c, 0, 44, 73
1, 915110, Note_off_c, 0, 56, 66
1, 915117, Note_off_c, 0, 53, 65
1, 915121, Note_off_c, 0, 50, 65
1, 915151, Note_off_c, 0, 44, 63
1, 915177, Note_off_c, 0, 58, 66
1, 915192, Poly_aftertouch_c, 0, 68, 0
1, 915234, Note_off_c, 0, 65, 50
1, 915238, Note_off_c, 0, 62, 37
1, 915255, Note_on_c, 0, 42, 54
1, 915283, Note_off_c, 0, 70, 58
1, 915291, Note_off_c, 0, 42, 59
1, 915316, Note_on_c, 0, 46, 106
1, 915329, Note_on_c, 0, 34, 85
1, 915330, Note_on_c, 0, 44, 80
1, 915332, Note_on_c, 0, 39, 16
1, 915339, Note_on_c, 0, 42, 54
1, 915340, Note_off_c, 0, 42, 127
1, 915350, Note_off_c, 0, 44, 66
1, 915359, Note_off_c, 0, 34, 61
1, 915378, Note_off_c, 0, 46, 64
1, 915381, Note_off_c, 0, 39, 47
1, 915408, Poly_aftertouch_c, 0, 37, 127
1, 915450, Poly_aftertouch_c, 0, 37, 0
1, 915562, Note_on_c, 0, 70, 106
1, 915565, Note_on_c, 0, 82, 99
1, 915566, Note_on_c, 0, 78, 91
1, 915567, Note_on_c, 0, 75, 85
1, 915572, Note_on_c, 0, 69, 102
1, 915580, Note_on_c, 0, 63, 87
1, 915582, Note_on_c, 0, 66, 82
1, 915594, Note_on_c, 0, 61, 59
1, 915596, Note_off_c, 0, 69, 65
1, 915601, Note_on_c, 0, 58, 51
1, 915604, Note_on_c, 0, 57, 57
1, 915607, Note_off_c, 0, 66, 63
1, 915619, Note_off_c, 0, 61, 58
1, 915620, Note_off_c, 0, 58, 66
1, 915627, Note_off_c, 0, 57, 61
1, 915628, Note_off_c, 0, 63, 54
1, 915675, Poly_aftertouch_c, 0, 67, 0
1, 915838, Control_c, 0, 64, 70
1, 915853, Control_c, 0, 64, 0
1, 915862, Note_on_c, 0, 46, 111
1, 915873, Note_on_c, 0, 34, 87
1, 915875, Note_on_c, 0, 37, 76
1, 915877, Note_on_c, 0, 42, 75
1, 915878, Note_off_c, 0, 42, 127
1, 915882, Control_c, 0, 64, 74
1, 915897, Note_on_c, 0, 39, 36
1, 915897, Control_c, 0, 64, 127
1, 915914, Note_off_c, 0, 34, 63
1, 915920, Note_off_c, 0, 70, 66
1, 915939, Note_on_c, 0, 38, 3
1, 915942, Note_off_c, 0, 46, 64
1, 915943, Poly_aftertouch_c, 0, 47, 127
1, 915952, Note_off_c, 0, 39, 43
1, 915952, Note_off_c, 0, 75, 56
1, 915966, Note_off_c, 0, 78, 59
1, 915971, Note_off_c, 0, 82, 61
1, 915978, Note_off_c, 0, 37, 35
1, 915982, Note_off_c, 0, 38, 46
1, 915985, Poly_aftertouch_c, 0, 47, 0
1, 916151, Note_on_c, 0, 55, 67
1, 916185, Note_on_c, 0, 60, 59
1, 916195, Note_on_c, 0, 87, 11
1, 916228, Note_off_c, 0, 55, 65
1, 916239, Note_on_c, 0, 64, 71
1, 916262, Note_off_c, 0, 87, 45
1, 916272, Note_on_c, 0, 82, 111
1, 916272, Note_on_c, 0, 84, 86
1, 916272, Note_on_c, 0, 91, 90
1, 916275, Note_on_c, 0, 88, 89
1, 916275, Note_on_c, 0, 94, 93
1, 916284, Note_on_c, 0, 70, 117
1, 916286, Note_off_c, 0, 60, 66
1, 916293, Note_on_c, 0, 92, 74
1, 916301, Note_on_c, 0, 63, 65
1, 916304, Note_off_c, 0, 64, 63
1, 916306, Note_on_c, 0, 68, 63
1, 916307, Note_off_c, 0, 68, 127
1, 916307, Note_on_c, 0, 69, 65
1, 916308, Note_off_c, 0, 69, 127
1, 916310, Note_off_c, 0, 92, 68
1, 916312, Note_off_c, 0, 70, 68
1, 916321, Note_off_c, 0, 63, 65
1, 916328, Note_on_c, 0, 66, 30
1, 916361, Note_off_c, 0, 66, 52
1, 916370, Note_off_c, 0, 94, 63
1, 916394, Note_off_c, 0, 91, 60
1, 916423, Note_off_c, 0, 88, 54
1, 916451, Note_off_c, 0, 84, 56
1, 916467, Note_off_c, 0, 82, 56
1, 916916, Note_on_c, 0, 25, 46
1, 916928, Control_c, 0, 64, 81
1, 916943, Control_c, 0, 64, 0
1, 916958, Note_off_c, 0, 25, 60
1, 916972, Note_on_c, 0, 46, 106
1, 916975, Note_on_c, 0, 34, 106
1, 916977, Note_on_c, 0, 58, 92
1, 916980, Note_on_c, 0, 22, 74
1, 916990, Note_on_c, 0, 30, 78
1, 916991, Note_off_c, 0, 30, 127
1, 916993, Note_on_c, 0, 52, 58
1, 916994, Poly_aftertouch_c, 0, 25, 0
1, 916995, Note_on_c, 0, 54, 68
1, 916997, Note_on_c, 0, 25, 41
1, 916999, Note_on_c, 0, 27, 44
1, 917017, Control_c, 0, 64, 118
1, 917021, Note_off_c, 0, 54, 67
1, 917029, Note_on_c, 0, 50, 22
1, 917031, Control_c, 0, 64, 127
1, 917052, Note_off_c, 0, 22, 66
1, 917056, Note_off_c, 0, 46, 63
1, 917058, Poly_aftertouch_c, 0, 32, 0
1, 917086, Note_off_c, 0, 50, 40
1, 917110, Poly_aftertouch_c, 0, 32, 0
1, 917112, Note_off_c, 0, 52, 24
1, 917118, Note_off_c, 0, 25, 27
1, 917154, Note_off_c, 0, 58, 56
1, 917182, Note_off_c, 0, 27, 19
1, 917241, Note_off_c, 0, 34, 55
1, 917589, Note_on_c, 0, 53, 106
1, 917590, Note_on_c, 0, 70, 106
1, 917591, Note_on_c, 0, 50, 79
1, 917591, Note_on_c, 0, 82, 102
1, 917594, Note_on_c, 0, 46, 95
1, 917596, Note_on_c, 0, 77, 87
1, 917598, Note_on_c, 0, 74, 87
1, 917603, Note_on_c, 0, 41, 78
1, 917607, Note_on_c, 0, 80, 76
1, 917618, Note_on_c, 0, 43, 61
1, 917622, Note_off_c, 0, 80, 71
1, 917631, Note_off_c, 0, 41, 63
1, 917646, Note_off_c, 0, 43, 61
1, 917658, Note_off_c, 0, 46, 61
1, 917667, Note_off_c, 0, 53, 64
1, 917676, Note_off_c, 0, 70, 59
1, 917687, Note_off_c, 0, 50, 64
1, 917687, Note_off_c, 0, 82, 61
1, 917703, Poly_aftertouch_c, 0, 47, 127
1, 917737, Poly_aftertouch_c, 0, 47, 0
1, 917771, Note_off_c, 0, 77, 44
1, 917780, Note_off_c, 0, 74, 51
1, 917849, Note_on_c, 0, 65, 102
1, 917850, Note_on_c, 0, 70, 108
1, 917850, Note_on_c, 0, 74, 87
1, 917851, Note_on_c, 0, 77, 83
1, 917852, Note_on_c, 0, 58, 98
1, 917855, Note_on_c, 0, 82, 101
1, 917856, Note_on_c, 0, 62, 88
1, 917864, Note_on_c, 0, 53, 76
1, 917889, Note_on_c, 0, 55, 49
1, 917898, Note_on_c, 0, 80, 26
1, 917913, Note_off_c, 0, 55, 61
1, 917933, Note_off_c, 0, 80, 50
1, 917962, Poly_aftertouch_c, 0, 79, 127
1, 917983, Poly_aftertouch_c, 0, 60, 0
1, 918016, Poly_aftertouch_c, 0, 79, 0
1, 918456, Poly_aftertouch_c, 0, 79, 127
1, 919124, Poly_aftertouch_c, 0, 78, 127
1, 919172, Poly_aftertouch_c, 0, 63, 127
1, 919283, Poly_aftertouch_c, 0, 60, 127
1, 919284, Poly_aftertouch_c, 0, 59, 127
1, 919315, Poly_aftertouch_c, 0, 57, 127
1, 919561, Note_on_c, 0, 59, 3
1, 919707, Note_off_c, 0, 65, 68
1, 919712, Note_off_c, 0, 53, 64
1, 919712, Note_off_c, 0, 70, 59
1, 919716, Note_off_c, 0, 82, 60
1, 919721, Note_off_c, 0, 77, 59
1, 919722, Note_off_c, 0, 74, 59
1, 919733, Note_off_c, 0, 58, 62
1, 919734, Poly_aftertouch_c, 0, 79, 0
1, 919735, Note_off_c, 0, 62, 58
1, 919735, Poly_aftertouch_c, 0, 78, 0
1, 919744, Poly_aftertouch_c, 0, 57, 0
1, 919744, Note_off_c, 0, 59, 51
1, 919745, Control_c, 0, 64, 91
1, 919752, Poly_aftertouch_c, 0, 63, 0
1, 919759, Poly_aftertouch_c, 0, 60, 0
1, 919760, Control_c, 0, 64, 62
1, 919774, Control_c, 0, 64, 0
1, 919849, End_track
0, 0, End_of_file
