0, 0, Header, 0, 1, 384
1, 0, Start_track
1, 0, Title_t, "Erlkonig--Lee                   "
1, 0, Text_t, "2009 International Piano-e-Competition finals"
1, 0, Text_t, "captured June-July 2009"
1, 0, Text_t, "http://www.piano-e-competition.com/"
1, 0, Text_t, "standard-resolution version"
1, 0, Text_t, "File processed for distribution by software from Zenph Studios, Inc., http://www.zenph.com"
1, 0, Instrument_name_t, "Yamaha Disklavier Pro Mark IV concert grand piano, model DCFIIISM4PRO"
1, 0, Sequencer_specific, 39, 67, 113, 0, 1, 0, 1, 0, 69, 114, 108, 107, 111, 110, 105, 103, 32, 32, 32, 32, 32, 32, 32, 32, 72, 97, 110, 67, 104, 105, 101, 110, 32, 76, 101, 101, 32, 32, 32, 32
1, 0, Sequencer_specific, 6, 67, 113, 0, 0, 0, 69
1, 0, System_exclusive, 21, 67, 113, 126, 21, 0, 2, 2, 2, 3, 12, 8, 4, 10, 4, 10, 8, 9, 5, 9, 2, 247
1, 0, Sequencer_specific, 5, 67, 123, 12, 2, 1
1, 0, Tempo, 512820
1, 0, Time_signature, 4, 2, 24, 8
1, 0, System_exclusive, 5, 126, 127, 9, 1, 247
1, 1, System_exclusive, 8, 67, 16, 76, 0, 0, 126, 0, 247
1, 2, System_exclusive, 8, 67, 16, 76, 8, 9, 7, 1, 247
1, 3, Control_c, 0, 0, 0
1, 3, Control_c, 1, 0, 0
1, 3, Control_c, 2, 0, 0
1, 3, Control_c, 3, 0, 0
1, 3, Control_c, 4, 0, 0
1, 3, Control_c, 5, 0, 0
1, 3, Control_c, 6, 0, 0
1, 3, Control_c, 7, 0, 0
1, 3, Control_c, 8, 0, 0
1, 3, Control_c, 9, 0, 127
1, 3, Control_c, 10, 0, 0
1, 3, Control_c, 11, 0, 0
1, 3, Control_c, 12, 0, 0
1, 3, Control_c, 13, 0, 0
1, 3, Control_c, 14, 0, 0
1, 3, Control_c, 15, 0, 0
1, 4, Control_c, 0, 32, 0
1, 4, Control_c, 1, 32, 0
1, 4, Control_c, 2, 32, 0
1, 4, Control_c, 3, 32, 0
1, 4, Control_c, 4, 32, 0
1, 4, Control_c, 5, 32, 0
1, 4, Control_c, 6, 32, 0
1, 4, Control_c, 7, 32, 0
1, 4, Control_c, 8, 32, 0
1, 4, Control_c, 9, 32, 0
1, 4, Control_c, 10, 32, 0
1, 4, Control_c, 11, 32, 0
1, 4, Control_c, 12, 32, 0
1, 4, Control_c, 13, 32, 0
1, 4, Control_c, 14, 32, 0
1, 4, Control_c, 15, 32, 0
1, 5, Program_c, 0, 0
1, 5, Program_c, 1, 0
1, 5, Program_c, 2, 0
1, 5, Program_c, 3, 0
1, 5, Program_c, 4, 0
1, 5, Program_c, 5, 0
1, 5, Program_c, 6, 0
1, 5, Program_c, 7, 0
1, 5, Program_c, 8, 0
1, 5, Program_c, 9, 0
1, 5, Program_c, 10, 0
1, 5, Program_c, 11, 0
1, 5, Program_c, 12, 0
1, 5, Program_c, 13, 0
1, 5, Program_c, 14, 0
1, 5, Program_c, 15, 0
1, 6, Control_c, 0, 7, 100
1, 6, Control_c, 1, 7, 100
1, 6, Control_c, 2, 7, 100
1, 6, Control_c, 3, 7, 100
1, 6, Control_c, 4, 7, 100
1, 6, Control_c, 5, 7, 100
1, 6, Control_c, 6, 7, 100
1, 6, Control_c, 7, 7, 100
1, 6, Control_c, 8, 7, 100
1, 6, Control_c, 9, 7, 100
1, 6, Control_c, 10, 7, 100
1, 6, Control_c, 11, 7, 100
1, 6, Control_c, 12, 7, 100
1, 6, Control_c, 13, 7, 100
1, 6, Control_c, 14, 7, 100
1, 6, Control_c, 15, 7, 100
1, 1128, Note_on_c, 0, 55, 90
1, 1130, Note_on_c, 0, 67, 90
1, 1134, Control_c, 0, 64, 83
1, 1149, Note_off_c, 0, 55, 72
1, 1149, Control_c, 0, 64, 127
1, 1163, Note_off_c, 0, 67, 59
1, 1219, Note_on_c, 0, 55, 75
1, 1224, Note_on_c, 0, 67, 82
1, 1242, Note_off_c, 0, 55, 70
1, 1251, Note_off_c, 0, 67, 64
1, 1321, Note_on_c, 0, 67, 70
1, 1322, Note_on_c, 0, 55, 68
1, 1339, Note_off_c, 0, 55, 68
1, 1341, Note_off_c, 0, 67, 70
1, 1389, Note_on_c, 0, 55, 82
1, 1403, Note_on_c, 0, 67, 79
1, 1419, Note_off_c, 0, 55, 67
1, 1421, Note_off_c, 0, 67, 71
1, 1492, Note_on_c, 0, 55, 82
1, 1495, Note_on_c, 0, 67, 82
1, 1516, Note_off_c, 0, 55, 66
1, 1520, Note_off_c, 0, 67, 66
1, 1574, Note_on_c, 0, 55, 88
1, 1582, Note_on_c, 0, 67, 78
1, 1587, Control_c, 0, 64, 75
1, 1600, Note_off_c, 0, 55, 68
1, 1602, Control_c, 0, 64, 0
1, 1603, Note_off_c, 0, 67, 63
1, 1662, Control_c, 0, 64, 67
1, 1664, Note_on_c, 0, 55, 91
1, 1669, Note_on_c, 0, 67, 81
1, 1677, Control_c, 0, 64, 127
1, 1684, Note_off_c, 0, 55, 69
1, 1692, Note_off_c, 0, 67, 68
1, 1759, Note_on_c, 0, 55, 76
1, 1762, Note_on_c, 0, 67, 72
1, 1782, Note_off_c, 0, 67, 70
1, 1784, Note_off_c, 0, 55, 69
1, 1841, Note_on_c, 0, 55, 88
1, 1847, Note_on_c, 0, 67, 85
1, 1862, Note_off_c, 0, 55, 70
1, 1870, Note_off_c, 0, 67, 66
1, 1930, Note_on_c, 0, 55, 89
1, 1937, Note_on_c, 0, 67, 80
1, 1949, Note_off_c, 0, 55, 69
1, 1961, Note_off_c, 0, 67, 67
1, 2018, Note_on_c, 0, 55, 82
1, 2031, Note_on_c, 0, 67, 59
1, 2042, Note_off_c, 0, 55, 67
1, 2067, Note_off_c, 0, 67, 63
1, 2123, Note_on_c, 0, 55, 76
1, 2128, Control_c, 0, 64, 94
1, 2130, Note_on_c, 0, 67, 80
1, 2144, Control_c, 0, 64, 71
1, 2159, Control_c, 0, 64, 0
1, 2163, Note_off_c, 0, 55, 65
1, 2163, Note_off_c, 0, 67, 53
1, 2187, Note_on_c, 0, 43, 85
1, 2188, Control_c, 0, 64, 56
1, 2203, Note_on_c, 0, 31, 45
1, 2203, Control_c, 0, 64, 80
1, 2213, Note_off_c, 0, 43, 68
1, 2218, Control_c, 0, 64, 118
1, 2222, Note_on_c, 0, 33, 37
1, 2233, Control_c, 0, 64, 127
1, 2239, Note_on_c, 0, 55, 73
1, 2243, Note_on_c, 0, 67, 73
1, 2243, Note_off_c, 0, 31, 52
1, 2261, Note_off_c, 0, 55, 67
1, 2267, Note_off_c, 0, 67, 67
1, 2285, Note_on_c, 0, 45, 81
1, 2290, Note_off_c, 0, 33, 35
1, 2309, Note_off_c, 0, 45, 67
1, 2319, Note_on_c, 0, 55, 81
1, 2325, Note_on_c, 0, 67, 79
1, 2340, Note_off_c, 0, 55, 70
1, 2351, Note_off_c, 0, 67, 66
1, 2371, Note_on_c, 0, 46, 88
1, 2377, Note_on_c, 0, 34, 71
1, 2395, Note_off_c, 0, 46, 66
1, 2404, Note_on_c, 0, 55, 86
1, 2407, Note_off_c, 0, 34, 62
1, 2410, Note_on_c, 0, 67, 79
1, 2427, Note_off_c, 0, 55, 71
1, 2434, Note_off_c, 0, 67, 67
1, 2458, Note_on_c, 0, 48, 76
1, 2463, Note_on_c, 0, 36, 60
1, 2481, Note_off_c, 0, 48, 66
1, 2491, Note_off_c, 0, 36, 58
1, 2494, Note_on_c, 0, 55, 88
1, 2503, Note_on_c, 0, 67, 78
1, 2506, Poly_aftertouch_c, 0, 46, 127
1, 2512, Note_off_c, 0, 55, 68
1, 2520, Note_off_c, 0, 67, 69
1, 2531, Note_on_c, 0, 50, 88
1, 2541, Note_on_c, 0, 38, 65
1, 2542, Poly_aftertouch_c, 0, 46, 0
1, 2556, Note_off_c, 0, 50, 71
1, 2567, Note_off_c, 0, 38, 59
1, 2586, Note_on_c, 0, 55, 92
1, 2595, Note_on_c, 0, 67, 74
1, 2605, Note_off_c, 0, 55, 71
1, 2619, Note_off_c, 0, 67, 68
1, 2621, Note_on_c, 0, 51, 95
1, 2633, Control_c, 0, 64, 81
1, 2642, Note_on_c, 0, 39, 57
1, 2644, Note_off_c, 0, 51, 68
1, 2647, Control_c, 0, 64, 0
1, 2670, Note_on_c, 0, 55, 84
1, 2673, Note_off_c, 0, 39, 35
1, 2685, Note_on_c, 0, 67, 71
1, 2695, Note_off_c, 0, 55, 69
1, 2705, Note_on_c, 0, 50, 100
1, 2709, Note_off_c, 0, 67, 65
1, 2711, Note_on_c, 0, 38, 86
1, 2721, Control_c, 0, 64, 67
1, 2736, Control_c, 0, 64, 127
1, 2739, Note_off_c, 0, 38, 68
1, 2739, Note_off_c, 0, 50, 70
1, 2743, Note_on_c, 0, 42, 28
1, 2744, Note_off_c, 0, 42, 127
1, 2750, Note_on_c, 0, 55, 87
1, 2754, Note_on_c, 0, 67, 73
1, 2777, Poly_aftertouch_c, 0, 40, 0
1, 2779, Note_off_c, 0, 55, 64
1, 2782, Poly_aftertouch_c, 0, 42, 0
1, 2783, Note_off_c, 0, 67, 59
1, 2830, Poly_aftertouch_c, 0, 41, 0
1, 2833, Control_c, 0, 64, 77
1, 2838, Poly_aftertouch_c, 0, 46, 0
1, 2845, Poly_aftertouch_c, 0, 40, 0
1, 2847, Control_c, 0, 64, 0
1, 2862, Note_on_c, 0, 55, 70
1, 2866, Note_on_c, 0, 67, 64
1, 2883, Note_off_c, 0, 55, 72
1, 2896, Note_off_c, 0, 67, 64
1, 2961, Note_on_c, 0, 55, 83
1, 2963, Note_on_c, 0, 67, 78
1, 2986, Note_off_c, 0, 55, 70
1, 2991, Note_off_c, 0, 67, 61
1, 3005, Note_on_c, 0, 46, 98
1, 3011, Control_c, 0, 64, 65
1, 3013, Note_on_c, 0, 34, 81
1, 3024, Note_off_c, 0, 46, 73
1, 3026, Control_c, 0, 64, 127
1, 3037, Note_off_c, 0, 34, 64
1, 3045, Note_on_c, 0, 55, 80
1, 3050, Note_on_c, 0, 67, 71
1, 3068, Note_off_c, 0, 55, 68
1, 3075, Note_off_c, 0, 67, 67
1, 3085, Control_c, 0, 64, 92
1, 3100, Control_c, 0, 64, 63
1, 3115, Control_c, 0, 64, 0
1, 3142, Note_on_c, 0, 55, 79
1, 3149, Note_on_c, 0, 67, 70
1, 3166, Note_off_c, 0, 55, 67
1, 3175, Note_off_c, 0, 67, 68
1, 3227, Note_on_c, 0, 55, 74
1, 3240, Note_on_c, 0, 67, 68
1, 3251, Note_off_c, 0, 55, 70
1, 3266, Note_off_c, 0, 67, 66
1, 3292, Note_on_c, 0, 43, 102
1, 3296, Note_on_c, 0, 31, 76
1, 3307, Control_c, 0, 64, 74
1, 3308, Note_on_c, 0, 55, 84
1, 3322, Control_c, 0, 64, 127
1, 3324, Note_on_c, 0, 67, 70
1, 3326, Note_off_c, 0, 31, 63
1, 3331, Note_off_c, 0, 43, 69
1, 3337, Note_off_c, 0, 55, 61
1, 3348, Note_off_c, 0, 67, 65
1, 3412, Note_on_c, 0, 67, 72
1, 3415, Note_on_c, 0, 55, 80
1, 3436, Poly_aftertouch_c, 0, 33, 0
1, 3436, Note_off_c, 0, 55, 72
1, 3445, Note_off_c, 0, 67, 64
1, 3504, Note_on_c, 0, 55, 80
1, 3516, Note_on_c, 0, 67, 67
1, 3523, Note_off_c, 0, 55, 70
1, 3538, Note_off_c, 0, 67, 70
1, 3582, Control_c, 0, 64, 92
1, 3596, Control_c, 0, 64, 69
1, 3609, Note_on_c, 0, 55, 76
1, 3611, Control_c, 0, 64, 0
1, 3620, Note_on_c, 0, 67, 66
1, 3635, Note_off_c, 0, 55, 66
1, 3650, Note_off_c, 0, 67, 64
1, 3695, Note_on_c, 0, 55, 77
1, 3713, Note_on_c, 0, 67, 63
1, 3722, Note_off_c, 0, 55, 66
1, 3743, Note_off_c, 0, 67, 64
1, 3781, Note_on_c, 0, 55, 79
1, 3807, Note_on_c, 0, 67, 66
1, 3810, Note_off_c, 0, 55, 64
1, 3834, Note_off_c, 0, 67, 65
1, 3872, Note_on_c, 0, 55, 72
1, 3889, Note_on_c, 0, 67, 68
1, 3893, Control_c, 0, 64, 74
1, 3898, Note_off_c, 0, 55, 67
1, 3908, Control_c, 0, 64, 97
1, 3917, Note_off_c, 0, 67, 65
1, 3923, Control_c, 0, 64, 106
1, 3963, Note_on_c, 0, 55, 65
1, 3967, Control_c, 0, 64, 107
1, 3982, Control_c, 0, 64, 107
1, 3993, Note_on_c, 0, 67, 55
1, 4003, Note_off_c, 0, 55, 65
1, 4015, Note_off_c, 0, 67, 59
1, 4064, Note_on_c, 0, 55, 71
1, 4087, Note_off_c, 0, 55, 67
1, 4103, Note_on_c, 0, 67, 32
1, 4127, Note_off_c, 0, 67, 59
1, 4144, Note_on_c, 0, 55, 75
1, 4160, Control_c, 0, 64, 107
1, 4169, Note_on_c, 0, 67, 51
1, 4172, Note_off_c, 0, 55, 67
1, 4195, Note_off_c, 0, 67, 57
1, 4205, Control_c, 0, 64, 106
1, 4219, Control_c, 0, 64, 106
1, 4238, Note_on_c, 0, 55, 74
1, 4249, Control_c, 0, 64, 105
1, 4262, Note_off_c, 0, 55, 66
1, 4264, Control_c, 0, 64, 104
1, 4274, Note_on_c, 0, 67, 39
1, 4279, Control_c, 0, 64, 103
1, 4293, Control_c, 0, 64, 101
1, 4315, Control_c, 0, 64, 91
1, 4327, Note_on_c, 0, 55, 73
1, 4330, Control_c, 0, 64, 70
1, 4340, Note_off_c, 0, 67, 0
1, 4345, Control_c, 0, 64, 0
1, 4354, Note_on_c, 0, 67, 39
1, 4366, Note_off_c, 0, 55, 65
1, 4386, Note_off_c, 0, 67, 56
1, 4432, Note_on_c, 0, 55, 83
1, 4448, Note_on_c, 0, 67, 64
1, 4449, Control_c, 0, 64, 74
1, 4452, Note_on_c, 0, 43, 83
1, 4458, Note_on_c, 0, 31, 66
1, 4463, Control_c, 0, 64, 95
1, 4464, Note_off_c, 0, 55, 65
1, 4474, Note_off_c, 0, 67, 67
1, 4475, Note_off_c, 0, 43, 69
1, 4478, Control_c, 0, 64, 127
1, 4487, Note_off_c, 0, 31, 58
1, 4546, Note_on_c, 0, 55, 67
1, 4548, Note_on_c, 0, 45, 78
1, 4554, Note_on_c, 0, 43, 57
1, 4554, Note_on_c, 0, 67, 67
1, 4568, Note_off_c, 0, 55, 67
1, 4570, Note_off_c, 0, 67, 68
1, 4573, Note_off_c, 0, 45, 66
1, 4574, Note_on_c, 0, 33, 26
1, 4575, Note_off_c, 0, 43, 64
1, 4625, Note_off_c, 0, 33, 45
1, 4628, Note_on_c, 0, 55, 79
1, 4628, Note_on_c, 0, 46, 92
1, 4630, Note_on_c, 0, 67, 81
1, 4634, Note_on_c, 0, 34, 78
1, 4649, Note_off_c, 0, 55, 70
1, 4651, Note_off_c, 0, 46, 68
1, 4659, Note_off_c, 0, 34, 64
1, 4665, Note_off_c, 0, 67, 57
1, 4717, Note_on_c, 0, 48, 90
1, 4724, Note_on_c, 0, 36, 80
1, 4728, Note_on_c, 0, 55, 86
1, 4733, Note_on_c, 0, 47, 67
1, 4733, Note_on_c, 0, 67, 66
1, 4741, Note_off_c, 0, 48, 70
1, 4747, Note_off_c, 0, 55, 72
1, 4755, Note_off_c, 0, 36, 62
1, 4755, Note_off_c, 0, 67, 64
1, 4756, Note_off_c, 0, 47, 66
1, 4776, Control_c, 0, 64, 108
1, 4791, Control_c, 0, 64, 92
1, 4806, Control_c, 0, 64, 71
1, 4815, Note_on_c, 0, 50, 94
1, 4815, Note_on_c, 0, 55, 79
1, 4820, Note_on_c, 0, 67, 73
1, 4821, Control_c, 0, 64, 0
1, 4836, Note_off_c, 0, 50, 74
1, 4837, Note_off_c, 0, 55, 66
1, 4842, Note_on_c, 0, 38, 41
1, 4852, Note_off_c, 0, 67, 65
1, 4878, Note_off_c, 0, 38, 54
1, 4907, Note_on_c, 0, 51, 99
1, 4909, Note_on_c, 0, 55, 84
1, 4915, Note_on_c, 0, 67, 67
1, 4928, Note_off_c, 0, 51, 72
1, 4931, Note_off_c, 0, 55, 71
1, 4935, Note_on_c, 0, 39, 42
1, 4943, Note_off_c, 0, 67, 65
1, 4972, Note_off_c, 0, 39, 53
1, 4988, Note_on_c, 0, 50, 104
1, 4995, Note_on_c, 0, 38, 80
1, 4998, Note_on_c, 0, 55, 90
1, 5003, Note_on_c, 0, 67, 86
1, 5013, Control_c, 0, 64, 70
1, 5015, Note_off_c, 0, 50, 67
1, 5022, Note_off_c, 0, 38, 69
1, 5027, Note_on_c, 0, 42, 23
1, 5028, Note_off_c, 0, 42, 127
1, 5028, Control_c, 0, 64, 127
1, 5030, Note_off_c, 0, 55, 65
1, 5036, Note_off_c, 0, 67, 58
1, 5081, Poly_aftertouch_c, 0, 42, 0
1, 5109, Control_c, 0, 64, 115
1, 5112, Note_on_c, 0, 55, 76
1, 5121, Note_on_c, 0, 67, 67
1, 5124, Control_c, 0, 64, 74
1, 5136, Note_off_c, 0, 55, 69
1, 5139, Control_c, 0, 64, 0
1, 5150, Note_off_c, 0, 67, 62
1, 5202, Note_on_c, 0, 55, 78
1, 5219, Note_on_c, 0, 67, 68
1, 5232, Note_off_c, 0, 55, 66
1, 5243, Note_off_c, 0, 67, 67
1, 5293, Note_on_c, 0, 55, 85
1, 5302, Note_on_c, 0, 46, 108
1, 5303, Note_on_c, 0, 67, 82
1, 5310, Note_on_c, 0, 34, 87
1, 5316, Control_c, 0, 64, 94
1, 5321, Note_off_c, 0, 46, 71
1, 5324, Note_off_c, 0, 55, 63
1, 5328, Note_off_c, 0, 67, 65
1, 5331, Control_c, 0, 64, 127
1, 5331, Note_off_c, 0, 34, 65
1, 5333, Note_on_c, 0, 57, 19
1, 5334, Note_off_c, 0, 57, 127
1, 5342, Note_on_c, 0, 47, 51
1, 5343, Note_off_c, 0, 47, 127
1, 5367, Poly_aftertouch_c, 0, 57, 0
1, 5377, Poly_aftertouch_c, 0, 47, 0
1, 5406, Control_c, 0, 64, 100
1, 5417, Note_on_c, 0, 55, 65
1, 5421, Note_on_c, 0, 67, 69
1, 5421, Control_c, 0, 64, 69
1, 5432, Note_off_c, 0, 55, 65
1, 5436, Control_c, 0, 64, 0
1, 5445, Note_off_c, 0, 67, 58
1, 5486, Note_on_c, 0, 55, 71
1, 5513, Note_on_c, 0, 67, 59
1, 5515, Note_off_c, 0, 55, 67
1, 5542, Note_off_c, 0, 67, 64
1, 5581, Note_on_c, 0, 43, 99
1, 5584, Note_on_c, 0, 31, 83
1, 5590, Note_on_c, 0, 55, 83
1, 5598, Control_c, 0, 64, 77
1, 5602, Note_on_c, 0, 67, 64
1, 5607, Note_off_c, 0, 31, 64
1, 5613, Note_off_c, 0, 55, 70
1, 5613, Control_c, 0, 64, 127
1, 5618, Note_off_c, 0, 43, 69
1, 5626, Note_off_c, 0, 67, 67
1, 5686, Note_on_c, 0, 55, 71
1, 5701, Note_on_c, 0, 67, 67
1, 5715, Note_off_c, 0, 55, 63
1, 5725, Note_off_c, 0, 67, 65
1, 5785, Note_on_c, 0, 55, 68
1, 5812, Note_off_c, 0, 55, 68
1, 5820, Note_on_c, 0, 67, 50
1, 5828, Control_c, 0, 64, 119
1, 5843, Control_c, 0, 64, 89
1, 5848, Note_off_c, 0, 67, 55
1, 5857, Control_c, 0, 64, 65
1, 5872, Control_c, 0, 64, 0
1, 5880, Note_on_c, 0, 55, 75
1, 5895, Note_on_c, 0, 67, 61
1, 5909, Note_off_c, 0, 55, 65
1, 5930, Note_off_c, 0, 67, 58
1, 5977, Note_on_c, 0, 55, 64
1, 5985, Note_on_c, 0, 67, 54
1, 6002, Note_off_c, 0, 55, 66
1, 6017, Note_off_c, 0, 67, 63
1, 6066, Note_on_c, 0, 55, 71
1, 6083, Note_on_c, 0, 67, 54
1, 6092, Note_off_c, 0, 55, 67
1, 6115, Note_off_c, 0, 67, 63
1, 6139, Control_c, 0, 64, 65
1, 6151, Note_on_c, 0, 55, 76
1, 6154, Control_c, 0, 64, 88
1, 6169, Control_c, 0, 64, 104
1, 6182, Note_on_c, 0, 67, 58
1, 6184, Control_c, 0, 64, 111
1, 6185, Note_off_c, 0, 55, 63
1, 6199, Control_c, 0, 64, 112
1, 6205, Note_off_c, 0, 67, 60
1, 6214, Control_c, 0, 64, 113
1, 6229, Control_c, 0, 64, 118
1, 6244, Control_c, 0, 64, 127
1, 6249, Note_on_c, 0, 55, 71
1, 6277, Note_off_c, 0, 55, 64
1, 6285, Note_on_c, 0, 67, 41
1, 6318, Note_off_c, 0, 67, 54
1, 6343, Note_on_c, 0, 55, 70
1, 6371, Note_on_c, 0, 67, 49
1, 6371, Note_off_c, 0, 55, 61
1, 6396, Note_off_c, 0, 67, 58
1, 6454, Note_on_c, 0, 55, 59
1, 6473, Note_off_c, 0, 55, 64
1, 6499, Note_on_c, 0, 67, 18
1, 6537, Note_on_c, 0, 55, 71
1, 6545, Note_off_c, 0, 67, 0
1, 6545, Note_on_c, 0, 67, 11
1, 6572, Note_off_c, 0, 55, 65
1, 6594, Note_off_c, 0, 67, 57
1, 6631, Note_on_c, 0, 55, 71
1, 6637, Note_on_c, 0, 67, 54
1, 6657, Note_off_c, 0, 55, 63
1, 6680, Note_off_c, 0, 67, 62
1, 6681, Control_c, 0, 64, 99
1, 6695, Control_c, 0, 64, 77
1, 6710, Control_c, 0, 64, 19
1, 6725, Control_c, 0, 64, 0
1, 6750, Note_on_c, 0, 48, 74
1, 6752, Note_on_c, 0, 36, 59
1, 6763, Note_on_c, 0, 67, 56
1, 6764, Note_on_c, 0, 57, 47
1, 6784, Control_c, 0, 64, 62
1, 6792, Note_off_c, 0, 57, 56
1, 6794, Note_off_c, 0, 67, 64
1, 6799, Control_c, 0, 64, 83
1, 6813, Control_c, 0, 64, 127
1, 6856, Note_on_c, 0, 57, 72
1, 6858, Note_on_c, 0, 69, 36
1, 6870, Note_on_c, 0, 67, 62
1, 6883, Note_off_c, 0, 57, 64
1, 6896, Note_off_c, 0, 67, 65
1, 6902, Note_off_c, 0, 69, 51
1, 6945, Note_on_c, 0, 69, 46
1, 6950, Note_on_c, 0, 57, 67
1, 6956, Note_on_c, 0, 67, 61
1, 6972, Note_off_c, 0, 57, 69
1, 6977, Note_off_c, 0, 69, 63
1, 6983, Note_off_c, 0, 67, 64
1, 7050, Note_on_c, 0, 57, 64
1, 7054, Note_on_c, 0, 69, 66
1, 7057, Note_on_c, 0, 67, 57
1, 7069, Note_off_c, 0, 57, 64
1, 7082, Note_off_c, 0, 67, 58
1, 7083, Note_off_c, 0, 69, 64
1, 7132, Note_on_c, 0, 57, 70
1, 7153, Note_on_c, 0, 69, 60
1, 7156, Note_off_c, 0, 57, 67
1, 7176, Note_off_c, 0, 69, 60
1, 7183, Note_on_c, 0, 67, 19
1, 7223, Note_on_c, 0, 57, 72
1, 7245, Note_on_c, 0, 69, 62
1, 7245, Note_off_c, 0, 67, 0
1, 7254, Note_off_c, 0, 57, 64
1, 7265, Note_off_c, 0, 69, 63
1, 7282, Poly_aftertouch_c, 0, 67, 127
1, 7307, Note_off_c, 0, 36, 38
1, 7323, Note_on_c, 0, 57, 77
1, 7328, Note_off_c, 0, 48, 40
1, 7332, Note_on_c, 0, 67, 23
1, 7344, Note_on_c, 0, 69, 57
1, 7345, Note_off_c, 0, 57, 66
1, 7362, Note_off_c, 0, 69, 64
1, 7368, Note_off_c, 0, 67, 59
1, 7415, Note_on_c, 0, 57, 76
1, 7439, Note_off_c, 0, 57, 61
1, 7439, Note_on_c, 0, 69, 57
1, 7440, Note_on_c, 0, 67, 52
1, 7458, Note_off_c, 0, 69, 64
1, 7464, Note_off_c, 0, 67, 61
1, 7513, Note_on_c, 0, 57, 75
1, 7534, Note_on_c, 0, 69, 58
1, 7537, Note_on_c, 0, 67, 62
1, 7543, Note_off_c, 0, 57, 64
1, 7560, Note_off_c, 0, 69, 54
1, 7563, Note_off_c, 0, 67, 63
1, 7597, Note_on_c, 0, 57, 80
1, 7599, Note_on_c, 0, 49, 101
1, 7606, Note_on_c, 0, 37, 84
1, 7617, Note_off_c, 0, 49, 73
1, 7619, Note_on_c, 0, 69, 52
1, 7625, Note_on_c, 0, 67, 64
1, 7630, Note_off_c, 0, 37, 65
1, 7636, Note_off_c, 0, 57, 63
1, 7642, Note_off_c, 0, 69, 59
1, 7651, Note_off_c, 0, 67, 64
1, 7690, Note_on_c, 0, 49, 14
1, 7695, Note_on_c, 0, 57, 70
1, 7711, Note_off_c, 0, 49, 65
1, 7721, Note_on_c, 0, 67, 55
1, 7722, Note_off_c, 0, 57, 66
1, 7737, Note_on_c, 0, 69, 33
1, 7746, Note_off_c, 0, 67, 59
1, 7760, Note_off_c, 0, 69, 58
1, 7784, Note_on_c, 0, 57, 79
1, 7806, Note_on_c, 0, 69, 41
1, 7807, Note_on_c, 0, 67, 68
1, 7812, Note_off_c, 0, 57, 62
1, 7829, Note_off_c, 0, 69, 56
1, 7838, Note_off_c, 0, 67, 62
1, 7861, Control_c, 0, 64, 78
1, 7876, Control_c, 0, 64, 0
1, 7879, Note_on_c, 0, 50, 104
1, 7882, Note_on_c, 0, 58, 105
1, 7888, Note_on_c, 0, 38, 90
1, 7893, Note_on_c, 0, 70, 83
1, 7904, Note_on_c, 0, 67, 58
1, 7919, Note_off_c, 0, 58, 65
1, 7922, Note_on_c, 0, 68, 41
1, 7923, Note_off_c, 0, 68, 127
1, 7941, Note_off_c, 0, 67, 61
1, 7943, Note_off_c, 0, 70, 57
1, 7950, Control_c, 0, 64, 55
1, 7965, Control_c, 0, 64, 73
1, 7979, Control_c, 0, 64, 96
1, 7990, Note_on_c, 0, 58, 77
1, 7994, Control_c, 0, 64, 127
1, 8004, Note_on_c, 0, 67, 64
1, 8010, Note_off_c, 0, 58, 70
1, 8032, Note_off_c, 0, 67, 65
1, 8044, Poly_aftertouch_c, 0, 70, 127
1, 8089, Poly_aftertouch_c, 0, 70, 0
1, 8104, Note_on_c, 0, 67, 69
1, 8106, Note_on_c, 0, 58, 77
1, 8112, Note_on_c, 0, 70, 41
1, 8130, Note_off_c, 0, 58, 65
1, 8132, Note_off_c, 0, 67, 63
1, 8186, Note_on_c, 0, 58, 77
1, 8188, Note_off_c, 0, 70, 0
1, 8205, Note_on_c, 0, 67, 62
1, 8205, Note_on_c, 0, 70, 31
1, 8207, Note_off_c, 0, 58, 69
1, 8233, Note_off_c, 0, 67, 66
1, 8240, Note_off_c, 0, 70, 50
1, 8281, Note_on_c, 0, 58, 74
1, 8306, Note_off_c, 0, 58, 66
1, 8312, Note_on_c, 0, 70, 30
1, 8342, Note_off_c, 0, 70, 55
1, 8361, Poly_aftertouch_c, 0, 67, 127
1, 8366, Note_on_c, 0, 58, 82
1, 8390, Note_off_c, 0, 58, 62
1, 8393, Note_on_c, 0, 70, 33
1, 8411, Poly_aftertouch_c, 0, 67, 0
1, 8417, Control_c, 0, 64, 80
1, 8424, Note_off_c, 0, 70, 53
1, 8432, Control_c, 0, 64, 0
1, 8457, Note_on_c, 0, 57, 92
1, 8464, Note_on_c, 0, 66, 83
1, 8464, Note_on_c, 0, 69, 79
1, 8482, Note_off_c, 0, 57, 65
1, 8488, Note_off_c, 0, 69, 63
1, 8488, Note_off_c, 0, 66, 66
1, 8491, Control_c, 0, 64, 17
1, 8505, Control_c, 0, 64, 71
1, 8520, Control_c, 0, 64, 92
1, 8536, Control_c, 0, 64, 127
1, 8553, Note_on_c, 0, 57, 76
1, 8554, Note_on_c, 0, 66, 70
1, 8572, Note_off_c, 0, 57, 72
1, 8581, Note_on_c, 0, 69, 38
1, 8583, Note_off_c, 0, 66, 63
1, 8602, Note_off_c, 0, 69, 60
1, 8616, Note_off_c, 0, 50, 36
1, 8647, Note_on_c, 0, 57, 72
1, 8658, Note_on_c, 0, 69, 55
1, 8666, Note_on_c, 0, 66, 51
1, 8672, Note_off_c, 0, 57, 64
1, 8681, Note_off_c, 0, 69, 55
1, 8688, Note_off_c, 0, 66, 61
1, 8742, Note_on_c, 0, 57, 56
1, 8765, Note_off_c, 0, 57, 61
1, 8768, Note_on_c, 0, 66, 47
1, 8786, Note_off_c, 0, 66, 65
1, 8837, Note_on_c, 0, 57, 72
1, 8849, Poly_aftertouch_c, 0, 69, 127
1, 8857, Note_off_c, 0, 57, 70
1, 8865, Note_on_c, 0, 66, 56
1, 8884, Note_off_c, 0, 66, 62
1, 8895, Poly_aftertouch_c, 0, 69, 0
1, 8913, Note_off_c, 0, 38, 27
1, 8930, Note_on_c, 0, 57, 64
1, 8943, Control_c, 0, 64, 87
1, 8947, Note_on_c, 0, 66, 56
1, 8956, Note_off_c, 0, 57, 62
1, 8958, Control_c, 0, 64, 62
1, 8970, Note_off_c, 0, 66, 59
1, 8973, Control_c, 0, 64, 0
1, 9005, Note_on_c, 0, 43, 94
1, 9015, Note_on_c, 0, 55, 74
1, 9016, Control_c, 0, 64, 66
1, 9020, Note_on_c, 0, 67, 70
1, 9027, Note_off_c, 0, 43, 72
1, 9031, Control_c, 0, 64, 80
1, 9042, Note_off_c, 0, 55, 64
1, 9046, Control_c, 0, 64, 105
1, 9047, Note_off_c, 0, 67, 64
1, 9060, Control_c, 0, 64, 127
1, 9108, Note_on_c, 0, 55, 67
1, 9133, Note_on_c, 0, 67, 54
1, 9140, Note_off_c, 0, 55, 66
1, 9155, Note_off_c, 0, 67, 61
1, 9213, Note_on_c, 0, 55, 58
1, 9233, Note_off_c, 0, 55, 66
1, 9240, Note_on_c, 0, 67, 46
1, 9268, Note_off_c, 0, 67, 55
1, 9304, Note_on_c, 0, 55, 58
1, 9323, Note_on_c, 0, 67, 52
1, 9336, Note_off_c, 0, 55, 64
1, 9350, Note_off_c, 0, 67, 58
1, 9372, Control_c, 0, 64, 108
1, 9387, Control_c, 0, 64, 96
1, 9402, Control_c, 0, 64, 89
1, 9405, Note_on_c, 0, 55, 68
1, 9417, Control_c, 0, 64, 85
1, 9423, Note_on_c, 0, 67, 48
1, 9427, Note_off_c, 0, 55, 64
1, 9431, Control_c, 0, 64, 82
1, 9446, Control_c, 0, 64, 78
1, 9453, Note_off_c, 0, 67, 54
1, 9461, Control_c, 0, 64, 70
1, 9476, Control_c, 0, 64, 0
1, 9497, Note_on_c, 0, 55, 71
1, 9515, Note_on_c, 0, 67, 56
1, 9523, Note_off_c, 0, 55, 67
1, 9542, Note_off_c, 0, 67, 62
1, 9583, Note_on_c, 0, 55, 78
1, 9604, Note_on_c, 0, 67, 54
1, 9610, Note_off_c, 0, 55, 66
1, 9627, Note_off_c, 0, 67, 62
1, 9646, Control_c, 0, 64, 66
1, 9661, Control_c, 0, 64, 92
1, 9676, Control_c, 0, 64, 127
1, 9683, Note_on_c, 0, 55, 75
1, 9706, Note_on_c, 0, 67, 54
1, 9710, Note_off_c, 0, 55, 67
1, 9728, Note_off_c, 0, 67, 62
1, 9766, Note_on_c, 0, 55, 81
1, 9786, Note_off_c, 0, 55, 71
1, 9797, Note_on_c, 0, 67, 44
1, 9819, Note_off_c, 0, 67, 60
1, 9859, Note_on_c, 0, 55, 77
1, 9877, Note_off_c, 0, 55, 72
1, 9883, Control_c, 0, 64, 97
1, 9883, Note_on_c, 0, 67, 62
1, 9898, Control_c, 0, 64, 62
1, 9904, Note_off_c, 0, 67, 61
1, 9913, Control_c, 0, 64, 0
1, 9944, Note_on_c, 0, 55, 74
1, 9970, Note_off_c, 0, 55, 67
1, 9986, Note_on_c, 0, 57, 28
1, 9987, Note_off_c, 0, 57, 127
1, 9997, Note_on_c, 0, 67, 4
1, 10053, Note_on_c, 0, 55, 73
1, 10054, Note_off_c, 0, 67, 0
1, 10054, Note_on_c, 0, 67, 27
1, 10080, Note_off_c, 0, 55, 66
1, 10094, Note_off_c, 0, 67, 57
1, 10105, Control_c, 0, 64, 72
1, 10120, Control_c, 0, 64, 127
1, 10141, Note_on_c, 0, 55, 78
1, 10143, Note_on_c, 0, 43, 83
1, 10148, Note_on_c, 0, 31, 69
1, 10155, Note_on_c, 0, 67, 50
1, 10168, Note_off_c, 0, 43, 67
1, 10173, Note_off_c, 0, 55, 65
1, 10178, Note_off_c, 0, 67, 60
1, 10181, Note_off_c, 0, 31, 63
1, 10240, Note_on_c, 0, 45, 85
1, 10241, Note_on_c, 0, 55, 78
1, 10246, Note_on_c, 0, 67, 72
1, 10262, Note_off_c, 0, 55, 70
1, 10262, Note_off_c, 0, 45, 67
1, 10262, Note_on_c, 0, 33, 40
1, 10275, Note_off_c, 0, 67, 65
1, 10316, Note_off_c, 0, 33, 45
1, 10330, Note_on_c, 0, 46, 95
1, 10330, Note_on_c, 0, 55, 75
1, 10336, Note_on_c, 0, 34, 79
1, 10343, Poly_aftertouch_c, 0, 37, 0
1, 10346, Note_on_c, 0, 67, 70
1, 10352, Note_off_c, 0, 46, 69
1, 10362, Note_off_c, 0, 34, 64
1, 10364, Note_off_c, 0, 55, 67
1, 10368, Note_off_c, 0, 67, 69
1, 10417, Note_on_c, 0, 48, 95
1, 10426, Poly_aftertouch_c, 0, 37, 0
1, 10428, Note_on_c, 0, 36, 69
1, 10428, Note_on_c, 0, 55, 84
1, 10435, Note_on_c, 0, 67, 69
1, 10441, Note_off_c, 0, 48, 70
1, 10451, Note_off_c, 0, 55, 68
1, 10458, Note_off_c, 0, 36, 62
1, 10464, Note_off_c, 0, 67, 63
1, 10498, Control_c, 0, 64, 124
1, 10511, Note_on_c, 0, 48, 91
1, 10513, Control_c, 0, 64, 120
1, 10517, Note_on_c, 0, 38, 61
1, 10525, Note_on_c, 0, 50, 52
1, 10528, Note_on_c, 0, 67, 75
1, 10528, Control_c, 0, 64, 118
1, 10529, Note_on_c, 0, 55, 84
1, 10529, Note_off_c, 0, 48, 72
1, 10543, Control_c, 0, 64, 112
1, 10545, Note_off_c, 0, 38, 56
1, 10548, Note_off_c, 0, 67, 68
1, 10551, Note_off_c, 0, 55, 68
1, 10557, Note_off_c, 0, 50, 34
1, 10558, Control_c, 0, 64, 97
1, 10573, Control_c, 0, 64, 73
1, 10587, Control_c, 0, 64, 0
1, 10592, Poly_aftertouch_c, 0, 42, 0
1, 10608, Note_on_c, 0, 51, 92
1, 10608, Note_on_c, 0, 55, 77
1, 10618, Note_on_c, 0, 39, 64
1, 10627, Poly_aftertouch_c, 0, 42, 0
1, 10629, Note_off_c, 0, 51, 73
1, 10630, Note_on_c, 0, 67, 59
1, 10633, Note_on_c, 0, 46, 39
1, 10634, Note_off_c, 0, 46, 127
1, 10643, Note_off_c, 0, 55, 67
1, 10644, Note_off_c, 0, 39, 63
1, 10660, Note_off_c, 0, 67, 64
1, 10679, Note_on_c, 0, 50, 91
1, 10688, Note_on_c, 0, 38, 81
1, 10691, Control_c, 0, 64, 71
1, 10706, Note_on_c, 0, 55, 86
1, 10706, Note_off_c, 0, 50, 68
1, 10706, Control_c, 0, 64, 127
1, 10712, Note_off_c, 0, 38, 66
1, 10716, Note_on_c, 0, 67, 77
1, 10732, Note_off_c, 0, 55, 66
1, 10739, Note_off_c, 0, 67, 67
1, 10766, Control_c, 0, 64, 114
1, 10780, Control_c, 0, 64, 80
1, 10795, Control_c, 0, 64, 0
1, 10809, Note_on_c, 0, 55, 78
1, 10811, Note_on_c, 0, 67, 68
1, 10834, Note_off_c, 0, 55, 65
1, 10838, Note_off_c, 0, 67, 64
1, 10909, Note_on_c, 0, 55, 70
1, 10925, Note_on_c, 0, 67, 68
1, 10943, Note_off_c, 0, 55, 67
1, 10951, Note_off_c, 0, 67, 66
1, 10995, Note_on_c, 0, 46, 96
1, 11002, Note_on_c, 0, 34, 87
1, 11003, Control_c, 0, 64, 72
1, 11007, Note_on_c, 0, 55, 78
1, 11016, Note_off_c, 0, 46, 71
1, 11017, Note_on_c, 0, 44, 57
1, 11018, Note_off_c, 0, 44, 127
1, 11018, Control_c, 0, 64, 104
1, 11023, Note_on_c, 0, 67, 56
1, 11028, Note_off_c, 0, 34, 64
1, 11028, Note_off_c, 0, 55, 69
1, 11033, Control_c, 0, 64, 127
1, 11044, Note_off_c, 0, 67, 63
1, 11070, Control_c, 0, 64, 87
1, 11085, Control_c, 0, 64, 55
1, 11100, Control_c, 0, 64, 0
1, 11104, Note_on_c, 0, 55, 73
1, 11114, Note_on_c, 0, 46, 13
1, 11126, Note_on_c, 0, 67, 56
1, 11139, Note_off_c, 0, 55, 67
1, 11147, Note_off_c, 0, 67, 61
1, 11150, Note_off_c, 0, 46, 30
1, 11199, Note_on_c, 0, 55, 66
1, 11221, Note_on_c, 0, 67, 56
1, 11228, Note_off_c, 0, 55, 65
1, 11245, Note_off_c, 0, 67, 61
1, 11290, Note_on_c, 0, 43, 99
1, 11296, Note_on_c, 0, 31, 74
1, 11298, Note_on_c, 0, 55, 81
1, 11312, Note_on_c, 0, 67, 69
1, 11318, Note_off_c, 0, 43, 70
1, 11322, Note_off_c, 0, 55, 69
1, 11323, Note_off_c, 0, 31, 59
1, 11323, Control_c, 0, 64, 68
1, 11337, Control_c, 0, 64, 94
1, 11338, Note_off_c, 0, 67, 66
1, 11352, Control_c, 0, 64, 103
1, 11382, Control_c, 0, 64, 101
1, 11400, Note_on_c, 0, 55, 76
1, 11414, Note_on_c, 0, 67, 63
1, 11425, Note_off_c, 0, 55, 67
1, 11432, Note_off_c, 0, 67, 66
1, 11470, Control_c, 0, 64, 100
1, 11485, Control_c, 0, 64, 99
1, 11487, Note_on_c, 0, 55, 73
1, 11498, Note_on_c, 0, 67, 64
1, 11500, Control_c, 0, 64, 97
1, 11515, Control_c, 0, 64, 91
1, 11523, Note_off_c, 0, 55, 66
1, 11526, Note_off_c, 0, 67, 65
1, 11529, Control_c, 0, 64, 72
1, 11544, Control_c, 0, 64, 0
1, 11588, Note_on_c, 0, 55, 68
1, 11613, Note_on_c, 0, 67, 44
1, 11615, Note_off_c, 0, 55, 66
1, 11640, Note_off_c, 0, 67, 56
1, 11681, Note_on_c, 0, 55, 64
1, 11708, Note_off_c, 0, 55, 66
1, 11723, Note_on_c, 0, 67, 20
1, 11748, Note_off_c, 0, 67, 0
1, 11767, Note_on_c, 0, 55, 73
1, 11778, Note_on_c, 0, 67, 32
1, 11804, Note_off_c, 0, 55, 64
1, 11827, Note_off_c, 0, 67, 58
1, 11870, Note_on_c, 0, 55, 70
1, 11894, Control_c, 0, 64, 74
1, 11897, Note_on_c, 0, 67, 46
1, 11898, Note_off_c, 0, 55, 64
1, 11908, Control_c, 0, 64, 80
1, 11923, Control_c, 0, 64, 83
1, 11927, Note_off_c, 0, 67, 53
1, 11938, Control_c, 0, 64, 83
1, 11952, Control_c, 0, 64, 85
1, 11956, Note_on_c, 0, 55, 73
1, 11967, Control_c, 0, 64, 88
1, 11976, Note_on_c, 0, 67, 47
1, 11982, Control_c, 0, 64, 91
1, 11986, Note_off_c, 0, 55, 63
1, 11997, Control_c, 0, 64, 93
1, 12009, Note_off_c, 0, 67, 62
1, 12049, Note_on_c, 0, 55, 73
1, 12072, Note_off_c, 0, 55, 67
1, 12099, Note_on_c, 0, 67, 13
1, 12123, Note_off_c, 0, 67, 0
1, 12150, Note_on_c, 0, 55, 69
1, 12160, Poly_aftertouch_c, 0, 67, 127
1, 12161, Note_on_c, 0, 67, 7
1, 12178, Note_off_c, 0, 55, 62
1, 12209, Note_off_c, 0, 67, 44
1, 12257, Note_on_c, 0, 55, 64
1, 12277, Control_c, 0, 64, 91
1, 12279, Note_off_c, 0, 55, 63
1, 12280, Note_on_c, 0, 67, 25
1, 12292, Control_c, 0, 64, 87
1, 12307, Control_c, 0, 64, 82
1, 12322, Control_c, 0, 64, 74
1, 12337, Control_c, 0, 64, 68
1, 12345, Note_on_c, 0, 55, 75
1, 12345, Note_off_c, 0, 67, 0
1, 12352, Control_c, 0, 64, 60
1, 12363, Note_on_c, 0, 67, 22
1, 12366, Control_c, 0, 64, 59
1, 12375, Note_off_c, 0, 55, 64
1, 12381, Control_c, 0, 64, 65
1, 12396, Control_c, 0, 64, 70
1, 12402, Note_off_c, 0, 67, 45
1, 12411, Control_c, 0, 64, 76
1, 12426, Control_c, 0, 64, 86
1, 12440, Note_on_c, 0, 55, 71
1, 12441, Control_c, 0, 64, 95
1, 12455, Note_on_c, 0, 43, 77
1, 12456, Control_c, 0, 64, 103
1, 12462, Note_on_c, 0, 67, 47
1, 12463, Note_on_c, 0, 31, 57
1, 12470, Control_c, 0, 64, 112
1, 12471, Note_off_c, 0, 55, 61
1, 12479, Note_off_c, 0, 43, 66
1, 12485, Control_c, 0, 64, 119
1, 12489, Note_off_c, 0, 67, 57
1, 12499, Note_off_c, 0, 31, 52
1, 12500, Control_c, 0, 64, 120
1, 12561, Note_on_c, 0, 45, 83
1, 12567, Note_on_c, 0, 55, 72
1, 12568, Control_c, 0, 64, 121
1, 12569, Note_on_c, 0, 67, 65
1, 12582, Control_c, 0, 64, 124
1, 12586, Note_off_c, 0, 45, 68
1, 12587, Note_off_c, 0, 55, 72
1, 12596, Note_off_c, 0, 67, 63
1, 12597, Control_c, 0, 64, 127
1, 12630, Poly_aftertouch_c, 0, 33, 127
1, 12635, Poly_aftertouch_c, 0, 37, 127
1, 12650, Note_on_c, 0, 46, 86
1, 12653, Note_on_c, 0, 55, 80
1, 12659, Note_on_c, 0, 34, 72
1, 12660, Note_on_c, 0, 67, 67
1, 12669, Poly_aftertouch_c, 0, 37, 0
1, 12672, Note_off_c, 0, 46, 67
1, 12675, Note_off_c, 0, 55, 68
1, 12679, Poly_aftertouch_c, 0, 33, 0
1, 12689, Note_off_c, 0, 34, 63
1, 12691, Note_off_c, 0, 67, 62
1, 12735, Note_on_c, 0, 48, 89
1, 12749, Note_on_c, 0, 55, 77
1, 12760, Note_off_c, 0, 48, 68
1, 12762, Note_on_c, 0, 36, 36
1, 12771, Note_off_c, 0, 55, 70
1, 12775, Note_on_c, 0, 67, 54
1, 12790, Note_on_c, 0, 38, 10
1, 12794, Note_off_c, 0, 67, 64
1, 12802, Note_off_c, 0, 36, 49
1, 12817, Poly_aftertouch_c, 0, 46, 0
1, 12829, Note_on_c, 0, 50, 91
1, 12848, Note_off_c, 0, 38, 0
1, 12848, Note_on_c, 0, 38, 10
1, 12853, Note_on_c, 0, 55, 78
1, 12856, Note_off_c, 0, 50, 69
1, 12859, Note_on_c, 0, 67, 68
1, 12873, Note_off_c, 0, 55, 72
1, 12882, Note_off_c, 0, 67, 68
1, 12893, Note_on_c, 0, 40, 3
1, 12903, Note_off_c, 0, 38, 46
1, 12908, Control_c, 0, 64, 117
1, 12923, Note_on_c, 0, 51, 102
1, 12923, Control_c, 0, 64, 91
1, 12931, Note_on_c, 0, 55, 83
1, 12934, Note_off_c, 0, 40, 49
1, 12938, Control_c, 0, 64, 69
1, 12942, Note_on_c, 0, 39, 64
1, 12943, Note_on_c, 0, 46, 60
1, 12944, Note_off_c, 0, 46, 127
1, 12950, Note_off_c, 0, 51, 66
1, 12951, Note_on_c, 0, 67, 64
1, 12953, Control_c, 0, 64, 0
1, 12957, Poly_aftertouch_c, 0, 42, 0
1, 12960, Note_off_c, 0, 55, 59
1, 12972, Note_off_c, 0, 39, 62
1, 12978, Note_off_c, 0, 67, 67
1, 13010, Note_on_c, 0, 50, 98
1, 13012, Control_c, 0, 64, 65
1, 13018, Note_on_c, 0, 38, 81
1, 13027, Control_c, 0, 64, 81
1, 13030, Note_off_c, 0, 50, 75
1, 13038, Note_on_c, 0, 55, 88
1, 13040, Note_off_c, 0, 38, 66
1, 13042, Control_c, 0, 64, 117
1, 13052, Note_on_c, 0, 67, 68
1, 13056, Control_c, 0, 64, 127
1, 13061, Note_off_c, 0, 55, 69
1, 13080, Note_off_c, 0, 67, 66
1, 13115, Control_c, 0, 64, 91
1, 13130, Control_c, 0, 64, 63
1, 13141, Note_on_c, 0, 55, 74
1, 13145, Control_c, 0, 64, 0
1, 13157, Note_on_c, 0, 67, 57
1, 13164, Note_off_c, 0, 55, 68
1, 13183, Note_off_c, 0, 67, 57
1, 13227, Note_on_c, 0, 55, 72
1, 13260, Note_off_c, 0, 55, 67
1, 13263, Note_on_c, 0, 67, 48
1, 13288, Note_off_c, 0, 67, 57
1, 13315, Control_c, 0, 64, 62
1, 13318, Note_on_c, 0, 46, 97
1, 13331, Control_c, 0, 64, 90
1, 13332, Note_on_c, 0, 34, 78
1, 13337, Note_on_c, 0, 55, 77
1, 13339, Note_off_c, 0, 46, 71
1, 13346, Control_c, 0, 64, 127
1, 13355, Note_on_c, 0, 67, 48
1, 13356, Note_off_c, 0, 34, 64
1, 13362, Note_off_c, 0, 55, 67
1, 13376, Control_c, 0, 64, 117
1, 13382, Note_off_c, 0, 67, 56
1, 13391, Control_c, 0, 64, 111
1, 13405, Control_c, 0, 64, 98
1, 13420, Control_c, 0, 64, 81
1, 13434, Note_on_c, 0, 55, 65
1, 13435, Control_c, 0, 64, 54
1, 13450, Control_c, 0, 64, 0
1, 13461, Note_on_c, 0, 67, 55
1, 13467, Note_off_c, 0, 55, 64
1, 13485, Note_off_c, 0, 67, 59
1, 13531, Note_on_c, 0, 55, 57
1, 13553, Note_off_c, 0, 55, 61
1, 13600, Note_on_c, 0, 43, 102
1, 13603, Note_on_c, 0, 31, 74
1, 13612, Control_c, 0, 64, 75
1, 13621, Note_on_c, 0, 55, 77
1, 13627, Control_c, 0, 64, 100
1, 13635, Note_off_c, 0, 31, 62
1, 13640, Note_off_c, 0, 43, 67
1, 13642, Control_c, 0, 64, 127
1, 13645, Note_on_c, 0, 67, 41
1, 13648, Note_off_c, 0, 55, 68
1, 13657, Control_c, 0, 64, 120
1, 13672, Control_c, 0, 64, 110
1, 13673, Note_off_c, 0, 67, 55
1, 13687, Control_c, 0, 64, 107
1, 13702, Control_c, 0, 64, 104
1, 13718, Note_on_c, 0, 55, 71
1, 13729, Note_on_c, 0, 67, 61
1, 13741, Note_off_c, 0, 55, 68
1, 13746, Control_c, 0, 64, 103
1, 13756, Note_off_c, 0, 67, 62
1, 13761, Control_c, 0, 64, 103
1, 13791, Control_c, 0, 64, 102
1, 13805, Control_c, 0, 64, 101
1, 13812, Note_on_c, 0, 55, 68
1, 13820, Control_c, 0, 64, 101
1, 13824, Note_on_c, 0, 67, 65
1, 13835, Control_c, 0, 64, 100
1, 13841, Note_off_c, 0, 55, 65
1, 13849, Control_c, 0, 64, 100
1, 13853, Note_off_c, 0, 67, 65
1, 13864, Control_c, 0, 64, 99
1, 13879, Control_c, 0, 64, 99
1, 13894, Control_c, 0, 64, 98
1, 13908, Note_on_c, 0, 55, 75
1, 13909, Control_c, 0, 64, 97
1, 13922, Note_on_c, 0, 67, 68
1, 13931, Note_off_c, 0, 55, 67
1, 13949, Note_off_c, 0, 67, 65
1, 13968, Control_c, 0, 64, 96
1, 13983, Control_c, 0, 64, 96
1, 13995, Note_on_c, 0, 55, 65
1, 13997, Control_c, 0, 64, 95
1, 14012, Control_c, 0, 64, 94
1, 14020, Note_off_c, 0, 55, 66
1, 14025, Note_on_c, 0, 67, 55
1, 14027, Control_c, 0, 64, 94
1, 14049, Control_c, 0, 64, 93
1, 14051, Note_off_c, 0, 67, 61
1, 14064, Control_c, 0, 64, 92
1, 14079, Control_c, 0, 64, 91
1, 14094, Control_c, 0, 64, 88
1, 14109, Control_c, 0, 64, 80
1, 14114, Note_on_c, 0, 55, 61
1, 14125, Control_c, 0, 64, 67
1, 14128, Note_off_c, 0, 55, 69
1, 14130, Note_on_c, 0, 67, 52
1, 14140, Control_c, 0, 64, 0
1, 14156, Note_off_c, 0, 67, 56
1, 14188, Note_on_c, 0, 55, 66
1, 14221, Note_on_c, 0, 67, 45
1, 14224, Note_off_c, 0, 55, 65
1, 14249, Note_off_c, 0, 67, 57
1, 14259, Control_c, 0, 64, 60
1, 14273, Control_c, 0, 64, 65
1, 14288, Control_c, 0, 64, 70
1, 14298, Note_on_c, 0, 55, 61
1, 14303, Control_c, 0, 64, 76
1, 14318, Control_c, 0, 64, 82
1, 14328, Note_off_c, 0, 55, 65
1, 14333, Control_c, 0, 64, 84
1, 14347, Note_on_c, 0, 67, 14
1, 14347, Control_c, 0, 64, 87
1, 14362, Control_c, 0, 64, 90
1, 14367, Note_off_c, 0, 67, 0
1, 14377, Control_c, 0, 64, 93
1, 14392, Control_c, 0, 64, 96
1, 14398, Note_on_c, 0, 55, 71
1, 14405, Poly_aftertouch_c, 0, 67, 127
1, 14407, Control_c, 0, 64, 96
1, 14423, Note_off_c, 0, 55, 66
1, 14451, Control_c, 0, 64, 97
1, 14485, Poly_aftertouch_c, 0, 67, 0
1, 14486, Note_on_c, 0, 55, 68
1, 14499, Note_on_c, 0, 67, 41
1, 14519, Note_off_c, 0, 55, 65
1, 14537, Note_off_c, 0, 67, 61
1, 14596, Note_on_c, 0, 55, 60
1, 14604, Note_on_c, 0, 67, 49
1, 14613, Note_off_c, 0, 55, 67
1, 14629, Note_off_c, 0, 67, 55
1, 14668, Note_on_c, 0, 55, 71
1, 14680, Note_on_c, 0, 67, 55
1, 14700, Note_off_c, 0, 55, 61
1, 14703, Control_c, 0, 64, 94
1, 14718, Control_c, 0, 64, 86
1, 14718, Note_off_c, 0, 67, 62
1, 14733, Control_c, 0, 64, 72
1, 14747, Control_c, 0, 64, 21
1, 14762, Control_c, 0, 64, 0
1, 14777, Note_on_c, 0, 48, 72
1, 14796, Note_on_c, 0, 36, 55
1, 14805, Note_on_c, 0, 57, 63
1, 14829, Control_c, 0, 64, 59
1, 14837, Note_off_c, 0, 57, 61
1, 14844, Control_c, 0, 64, 68
1, 14858, Control_c, 0, 64, 78
1, 14873, Control_c, 0, 64, 92
1, 14888, Control_c, 0, 64, 108
1, 14893, Note_on_c, 0, 67, 14
1, 14897, Note_on_c, 0, 69, 39
1, 14903, Control_c, 0, 64, 127
1, 14939, Note_off_c, 0, 69, 58
1, 14941, Note_off_c, 0, 67, 60
1, 14960, Poly_aftertouch_c, 0, 57, 127
1, 14989, Note_on_c, 0, 57, 13
1, 15010, Note_on_c, 0, 67, 51
1, 15019, Note_on_c, 0, 69, 42
1, 15023, Note_off_c, 0, 57, 61
1, 15035, Note_off_c, 0, 67, 62
1, 15044, Note_off_c, 0, 69, 55
1, 15097, Note_on_c, 0, 57, 68
1, 15112, Note_on_c, 0, 69, 54
1, 15113, Note_on_c, 0, 67, 51
1, 15124, Note_off_c, 0, 57, 64
1, 15134, Note_off_c, 0, 69, 60
1, 15135, Note_off_c, 0, 67, 61
1, 15182, Note_on_c, 0, 57, 74
1, 15207, Note_on_c, 0, 67, 61
1, 15210, Note_on_c, 0, 69, 57
1, 15210, Note_off_c, 0, 57, 63
1, 15230, Note_off_c, 0, 67, 62
1, 15231, Note_off_c, 0, 69, 62
1, 15286, Note_on_c, 0, 57, 73
1, 15289, Control_c, 0, 64, 122
1, 15296, Note_on_c, 0, 67, 66
1, 15301, Note_on_c, 0, 69, 63
1, 15313, Note_off_c, 0, 57, 64
1, 15318, Control_c, 0, 64, 124
1, 15320, Note_off_c, 0, 67, 68
1, 15325, Note_off_c, 0, 69, 67
1, 15333, Control_c, 0, 64, 127
1, 15376, Note_on_c, 0, 57, 80
1, 15389, Note_on_c, 0, 69, 62
1, 15403, Note_on_c, 0, 67, 60
1, 15407, Note_off_c, 0, 57, 64
1, 15419, Note_off_c, 0, 69, 61
1, 15428, Note_off_c, 0, 67, 63
1, 15478, Note_on_c, 0, 57, 74
1, 15492, Note_on_c, 0, 69, 64
1, 15493, Note_on_c, 0, 67, 61
1, 15499, Note_off_c, 0, 57, 69
1, 15517, Note_off_c, 0, 69, 66
1, 15521, Note_off_c, 0, 67, 65
1, 15571, Poly_aftertouch_c, 0, 40, 127
1, 15583, Note_on_c, 0, 57, 75
1, 15603, Note_on_c, 0, 67, 61
1, 15603, Note_on_c, 0, 69, 58
1, 15609, Note_off_c, 0, 57, 66
1, 15621, Note_off_c, 0, 69, 63
1, 15630, Note_off_c, 0, 67, 64
1, 15678, Note_on_c, 0, 57, 71
1, 15693, Note_on_c, 0, 69, 58
1, 15699, Note_off_c, 0, 57, 65
1, 15710, Note_on_c, 0, 67, 47
1, 15721, Note_off_c, 0, 69, 65
1, 15738, Note_off_c, 0, 67, 56
1, 15788, Note_on_c, 0, 57, 64
1, 15788, Note_on_c, 0, 69, 70
1, 15799, Note_off_c, 0, 36, 41
1, 15810, Note_off_c, 0, 69, 63
1, 15811, Note_on_c, 0, 67, 51
1, 15830, Note_off_c, 0, 57, 51
1, 15845, Note_off_c, 0, 48, 52
1, 15857, Note_off_c, 0, 67, 0
1, 15868, Note_on_c, 0, 67, 58
1, 15874, Poly_aftertouch_c, 0, 40, 0
1, 15881, Poly_aftertouch_c, 0, 57, 0
1, 15903, Note_off_c, 0, 67, 62
1, 15933, Control_c, 0, 64, 103
1, 15943, Note_on_c, 0, 49, 99
1, 15948, Control_c, 0, 64, 67
1, 15958, Note_on_c, 0, 37, 73
1, 15958, Note_on_c, 0, 58, 92
1, 15959, Poly_aftertouch_c, 0, 69, 0
1, 15963, Control_c, 0, 64, 0
1, 15964, Note_on_c, 0, 67, 71
1, 15964, Note_on_c, 0, 70, 83
1, 15991, Note_on_c, 0, 66, 35
1, 16002, Note_off_c, 0, 58, 60
1, 16015, Note_off_c, 0, 67, 55
1, 16018, Note_off_c, 0, 66, 51
1, 16022, Control_c, 0, 64, 63
1, 16036, Control_c, 0, 64, 75
1, 16051, Control_c, 0, 64, 93
1, 16054, Note_off_c, 0, 70, 0
1, 16063, Note_on_c, 0, 58, 67
1, 16066, Control_c, 0, 64, 127
1, 16074, Note_on_c, 0, 70, 35
1, 16087, Note_off_c, 0, 58, 68
1, 16099, Note_on_c, 0, 67, 23
1, 16101, Note_off_c, 0, 70, 60
1, 16121, Note_off_c, 0, 37, 0
1, 16121, Note_on_c, 0, 37, 3
1, 16144, Note_off_c, 0, 67, 0
1, 16156, Note_on_c, 0, 58, 79
1, 16160, Note_on_c, 0, 67, 48
1, 16164, Note_on_c, 0, 70, 75
1, 16180, Note_off_c, 0, 58, 67
1, 16194, Note_off_c, 0, 67, 63
1, 16200, Note_off_c, 0, 70, 54
1, 16249, Note_on_c, 0, 70, 59
1, 16250, Note_on_c, 0, 58, 81
1, 16265, Note_on_c, 0, 67, 49
1, 16268, Note_off_c, 0, 58, 70
1, 16304, Note_off_c, 0, 67, 63
1, 16308, Note_off_c, 0, 70, 57
1, 16345, Note_on_c, 0, 70, 53
1, 16346, Note_on_c, 0, 58, 82
1, 16373, Note_off_c, 0, 58, 61
1, 16428, Note_off_c, 0, 70, 0
1, 16442, Note_on_c, 0, 70, 49
1, 16450, Note_on_c, 0, 58, 71
1, 16474, Note_off_c, 0, 58, 67
1, 16513, Note_off_c, 0, 70, 0
1, 16531, Note_on_c, 0, 70, 51
1, 16535, Note_on_c, 0, 58, 75
1, 16564, Note_off_c, 0, 58, 56
1, 16584, Poly_aftertouch_c, 0, 40, 127
1, 16605, Note_off_c, 0, 70, 0
1, 16626, Note_on_c, 0, 70, 36
1, 16644, Note_on_c, 0, 58, 60
1, 16670, Note_off_c, 0, 58, 65
1, 16738, Note_on_c, 0, 58, 70
1, 16760, Note_off_c, 0, 58, 68
1, 16816, Note_off_c, 0, 70, 40
1, 16826, Note_on_c, 0, 64, 69
1, 16826, Note_on_c, 0, 67, 75
1, 16837, Note_on_c, 0, 58, 51
1, 16838, Poly_aftertouch_c, 0, 40, 0
1, 16859, Note_off_c, 0, 58, 61
1, 16859, Note_off_c, 0, 64, 63
1, 16862, Note_off_c, 0, 67, 58
1, 16877, Note_off_c, 0, 37, 43
1, 16915, Poly_aftertouch_c, 0, 39, 127
1, 16930, Note_on_c, 0, 58, 58
1, 16933, Note_on_c, 0, 64, 51
1, 16941, Note_on_c, 0, 67, 60
1, 16950, Note_off_c, 0, 58, 65
1, 16988, Note_off_c, 0, 64, 41
1, 16989, Note_off_c, 0, 67, 0
1, 17009, Note_on_c, 0, 58, 69
1, 17017, Poly_aftertouch_c, 0, 39, 0
1, 17026, Poly_aftertouch_c, 0, 67, 127
1, 17045, Note_off_c, 0, 58, 65
1, 17049, Poly_aftertouch_c, 0, 67, 0
1, 17079, Note_off_c, 0, 49, 60
1, 17089, Control_c, 0, 64, 94
1, 17104, Control_c, 0, 64, 67
1, 17119, Control_c, 0, 64, 0
1, 17124, Note_on_c, 0, 38, 70
1, 17133, Note_on_c, 0, 66, 75
1, 17144, Note_on_c, 0, 57, 44
1, 17149, Note_on_c, 0, 62, 50
1, 17173, Note_off_c, 0, 57, 35
1, 17175, Note_off_c, 0, 62, 57
1, 17186, Note_off_c, 0, 66, 56
1, 17193, Control_c, 0, 64, 66
1, 17208, Control_c, 0, 64, 78
1, 17223, Control_c, 0, 64, 95
1, 17225, Note_on_c, 0, 42, 76
1, 17234, Note_on_c, 0, 66, 49
1, 17235, Note_off_c, 0, 38, 56
1, 17238, Control_c, 0, 64, 112
1, 17247, Note_on_c, 0, 62, 49
1, 17253, Control_c, 0, 64, 113
1, 17266, Note_off_c, 0, 66, 63
1, 17267, Control_c, 0, 64, 112
1, 17280, Note_on_c, 0, 64, 23
1, 17307, Note_off_c, 0, 62, 0
1, 17313, Note_on_c, 0, 43, 78
1, 17321, Note_off_c, 0, 64, 47
1, 17321, Note_on_c, 0, 62, 43
1, 17324, Note_off_c, 0, 42, 63
1, 17334, Note_on_c, 0, 66, 65
1, 17354, Note_off_c, 0, 62, 61
1, 17359, Note_off_c, 0, 66, 64
1, 17404, Note_on_c, 0, 45, 88
1, 17408, Note_off_c, 0, 43, 64
1, 17413, Note_on_c, 0, 62, 54
1, 17428, Note_on_c, 0, 66, 60
1, 17437, Note_off_c, 0, 62, 60
1, 17446, Note_off_c, 0, 66, 65
1, 17446, Control_c, 0, 64, 112
1, 17464, Note_off_c, 0, 45, 62
1, 17490, Note_on_c, 0, 47, 82
1, 17506, Note_on_c, 0, 66, 70
1, 17517, Note_on_c, 0, 62, 57
1, 17533, Note_off_c, 0, 66, 58
1, 17535, Note_off_c, 0, 47, 64
1, 17541, Note_off_c, 0, 62, 59
1, 17580, Note_on_c, 0, 49, 87
1, 17580, Control_c, 0, 64, 110
1, 17595, Control_c, 0, 64, 105
1, 17610, Control_c, 0, 64, 97
1, 17616, Note_on_c, 0, 66, 63
1, 17620, Note_on_c, 0, 62, 53
1, 17625, Control_c, 0, 64, 86
1, 17637, Note_off_c, 0, 62, 64
1, 17639, Control_c, 0, 64, 73
1, 17639, Control_c, 0, 67, 8
1, 17640, Note_off_c, 0, 66, 64
1, 17649, Note_off_c, 0, 49, 63
1, 17654, Control_c, 0, 64, 52
1, 17654, Control_c, 0, 67, 9
1, 17669, Control_c, 0, 64, 0
1, 17669, Control_c, 0, 67, 11
1, 17681, Note_on_c, 0, 50, 89
1, 17698, Control_c, 0, 64, 24
1, 17698, Control_c, 0, 67, 11
1, 17712, Note_on_c, 0, 66, 65
1, 17713, Control_c, 0, 64, 61
1, 17717, Note_on_c, 0, 62, 47
1, 17728, Control_c, 0, 64, 69
1, 17743, Control_c, 0, 64, 77
1, 17743, Control_c, 0, 67, 12
1, 17749, Note_off_c, 0, 66, 58
1, 17751, Note_off_c, 0, 62, 61
1, 17758, Control_c, 0, 64, 85
1, 17758, Control_c, 0, 67, 15
1, 17772, Control_c, 0, 64, 91
1, 17772, Control_c, 0, 67, 19
1, 17795, Control_c, 0, 64, 94
1, 17795, Control_c, 0, 67, 22
1, 17810, Control_c, 0, 64, 94
1, 17810, Control_c, 0, 67, 24
1, 17824, Control_c, 0, 67, 31
1, 17829, Note_off_c, 0, 50, 65
1, 17839, Control_c, 0, 67, 40
1, 17841, Note_on_c, 0, 66, 21
1, 17854, Control_c, 0, 67, 47
1, 17869, Control_c, 0, 67, 53
1, 17884, Control_c, 0, 67, 58
1, 17890, Poly_aftertouch_c, 0, 62, 127
1, 17898, Control_c, 0, 67, 64
1, 17899, Note_off_c, 0, 66, 0
1, 17913, Control_c, 0, 67, 69
1, 17915, Note_on_c, 0, 66, 38
1, 17928, Control_c, 0, 67, 72
1, 18031, Control_c, 0, 67, 72
1, 18076, Control_c, 0, 64, 94
1, 18079, Poly_aftertouch_c, 0, 62, 0
1, 18088, Note_on_c, 0, 57, 52
1, 18091, Control_c, 0, 64, 89
1, 18105, Control_c, 0, 64, 79
1, 18108, Note_on_c, 0, 69, 74
1, 18118, Note_off_c, 0, 66, 59
1, 18121, Control_c, 0, 64, 64
1, 18136, Control_c, 0, 64, 0
1, 18225, Control_c, 0, 64, 67
1, 18239, Control_c, 0, 64, 80
1, 18248, Note_on_c, 0, 66, 50
1, 18254, Control_c, 0, 64, 102
1, 18254, Control_c, 0, 67, 72
1, 18269, Control_c, 0, 64, 127
1, 18269, Control_c, 0, 67, 70
1, 18282, Note_off_c, 0, 66, 62
1, 18284, Control_c, 0, 67, 70
1, 18324, Poly_aftertouch_c, 0, 62, 127
1, 18328, Control_c, 0, 67, 69
1, 18358, Control_c, 0, 67, 69
1, 18367, Note_off_c, 0, 69, 56
1, 18373, Note_on_c, 0, 66, 58
1, 18373, Control_c, 0, 67, 68
1, 18461, Poly_aftertouch_c, 0, 62, 0
1, 18501, Note_on_c, 0, 58, 53
1, 18503, Note_off_c, 0, 57, 32
1, 18507, Control_c, 0, 64, 103
1, 18507, Note_on_c, 0, 70, 75
1, 18509, Note_off_c, 0, 66, 45
1, 18521, Control_c, 0, 64, 84
1, 18543, Control_c, 0, 64, 69
1, 18558, Control_c, 0, 64, 38
1, 18573, Control_c, 0, 64, 0
1, 18573, Control_c, 0, 67, 68
1, 18588, Control_c, 0, 64, 59
1, 18588, Control_c, 0, 67, 67
1, 18602, Control_c, 0, 64, 72
1, 18602, Control_c, 0, 67, 66
1, 18617, Control_c, 0, 64, 84
1, 18617, Control_c, 0, 67, 65
1, 18632, Control_c, 0, 64, 103
1, 18632, Control_c, 0, 67, 64
1, 18641, Note_on_c, 0, 67, 57
1, 18647, Control_c, 0, 64, 127
1, 18647, Control_c, 0, 67, 64
1, 18662, Control_c, 0, 67, 63
1, 18663, Note_on_c, 0, 62, 24
1, 18672, Note_off_c, 0, 67, 65
1, 18677, Control_c, 0, 67, 62
1, 18692, Control_c, 0, 67, 61
1, 18707, Control_c, 0, 67, 60
1, 18721, Control_c, 0, 67, 58
1, 18722, Note_off_c, 0, 62, 0
1, 18722, Note_on_c, 0, 62, 27
1, 18736, Control_c, 0, 67, 56
1, 18751, Control_c, 0, 67, 53
1, 18753, Note_on_c, 0, 67, 57
1, 18760, Note_off_c, 0, 62, 60
1, 18766, Control_c, 0, 67, 49
1, 18777, Note_off_c, 0, 67, 60
1, 18781, Control_c, 0, 67, 45
1, 18795, Control_c, 0, 67, 41
1, 18810, Control_c, 0, 67, 34
1, 18825, Control_c, 0, 67, 25
1, 18832, Note_on_c, 0, 62, 57
1, 18839, Control_c, 0, 67, 13
1, 18849, Note_on_c, 0, 67, 46
1, 18854, Note_off_c, 0, 62, 60
1, 18854, Control_c, 0, 67, 0
1, 18870, Note_off_c, 0, 67, 63
1, 18979, Poly_aftertouch_c, 0, 62, 127
1, 18988, Note_on_c, 0, 67, 22
1, 19014, Note_off_c, 0, 70, 58
1, 19043, Poly_aftertouch_c, 0, 62, 0
1, 19052, Note_off_c, 0, 67, 60
1, 19058, Note_off_c, 0, 58, 60
1, 19063, Control_c, 0, 64, 96
1, 19077, Control_c, 0, 64, 82
1, 19092, Control_c, 0, 64, 80
1, 19103, Note_on_c, 0, 69, 77
1, 19107, Control_c, 0, 64, 83
1, 19119, Note_on_c, 0, 57, 54
1, 19122, Control_c, 0, 64, 88
1, 19136, Control_c, 0, 64, 101
1, 19151, Control_c, 0, 64, 127
1, 19190, Note_on_c, 0, 62, 59
1, 19208, Note_on_c, 0, 58, 58
1, 19235, Note_off_c, 0, 62, 58
1, 19237, Note_off_c, 0, 58, 64
1, 19288, Note_on_c, 0, 62, 62
1, 19330, Note_on_c, 0, 58, 45
1, 19355, Note_off_c, 0, 58, 59
1, 19378, Note_on_c, 0, 67, 86
1, 19382, Note_off_c, 0, 69, 0
1, 19388, Note_on_c, 0, 55, 77
1, 19404, Note_off_c, 0, 62, 61
1, 19410, Poly_aftertouch_c, 0, 69, 0
1, 19413, Note_off_c, 0, 57, 60
1, 19419, Note_off_c, 0, 55, 65
1, 19463, Note_on_c, 0, 58, 61
1, 19463, Note_on_c, 0, 62, 60
1, 19494, Note_off_c, 0, 58, 63
1, 19515, Note_off_c, 0, 62, 51
1, 19559, Note_on_c, 0, 62, 44
1, 19570, Note_on_c, 0, 58, 58
1, 19591, Note_off_c, 0, 58, 66
1, 19608, Note_off_c, 0, 67, 54
1, 19618, Control_c, 0, 64, 106
1, 19633, Control_c, 0, 64, 78
1, 19634, Note_off_c, 0, 62, 61
1, 19648, Control_c, 0, 64, 0
1, 19658, Note_on_c, 0, 69, 71
1, 19660, Note_on_c, 0, 38, 71
1, 19692, Control_c, 0, 64, 48
1, 19708, Control_c, 0, 64, 63
1, 19723, Control_c, 0, 64, 68
1, 19738, Control_c, 0, 64, 75
1, 19740, Note_off_c, 0, 38, 57
1, 19750, Note_on_c, 0, 42, 71
1, 19753, Note_on_c, 0, 66, 60
1, 19753, Control_c, 0, 64, 82
1, 19767, Control_c, 0, 64, 87
1, 19770, Note_on_c, 0, 62, 42
1, 19780, Note_off_c, 0, 66, 65
1, 19782, Control_c, 0, 64, 89
1, 19801, Note_off_c, 0, 62, 52
1, 19806, Note_off_c, 0, 42, 52
1, 19839, Note_on_c, 0, 43, 72
1, 19841, Control_c, 0, 64, 88
1, 19848, Note_on_c, 0, 66, 70
1, 19856, Control_c, 0, 64, 83
1, 19869, Note_on_c, 0, 62, 33
1, 19871, Control_c, 0, 64, 76
1, 19876, Note_off_c, 0, 66, 64
1, 19885, Control_c, 0, 64, 66
1, 19900, Control_c, 0, 64, 47
1, 19915, Control_c, 0, 64, 0
1, 19919, Note_off_c, 0, 43, 64
1, 19928, Note_on_c, 0, 45, 84
1, 19928, Note_off_c, 0, 62, 0
1, 19940, Note_on_c, 0, 62, 46
1, 19941, Note_on_c, 0, 66, 68
1, 19945, Control_c, 0, 64, 52
1, 19959, Control_c, 0, 64, 66
1, 19960, Note_off_c, 0, 66, 66
1, 19971, Note_off_c, 0, 62, 51
1, 19974, Control_c, 0, 64, 74
1, 19981, Note_off_c, 0, 45, 65
1, 19989, Control_c, 0, 64, 83
1, 20004, Control_c, 0, 64, 93
1, 20011, Note_on_c, 0, 47, 87
1, 20019, Control_c, 0, 64, 102
1, 20027, Note_on_c, 0, 62, 60
1, 20027, Note_on_c, 0, 66, 69
1, 20041, Control_c, 0, 64, 112
1, 20056, Note_off_c, 0, 62, 65
1, 20056, Control_c, 0, 64, 127
1, 20061, Note_off_c, 0, 66, 66
1, 20064, Note_off_c, 0, 47, 65
1, 20111, Note_on_c, 0, 49, 87
1, 20118, Note_on_c, 0, 62, 65
1, 20123, Note_on_c, 0, 66, 73
1, 20145, Control_c, 0, 64, 89
1, 20153, Note_off_c, 0, 62, 62
1, 20160, Control_c, 0, 64, 64
1, 20161, Note_off_c, 0, 66, 61
1, 20174, Control_c, 0, 64, 0
1, 20201, Note_on_c, 0, 50, 95
1, 20213, Note_off_c, 0, 49, 38
1, 20218, Control_c, 0, 64, 70
1, 20229, Note_on_c, 0, 66, 62
1, 20233, Control_c, 0, 64, 89
1, 20244, Note_on_c, 0, 62, 47
1, 20248, Note_off_c, 0, 50, 64
1, 20248, Control_c, 0, 64, 127
1, 20265, Note_off_c, 0, 66, 61
1, 20275, Note_off_c, 0, 62, 53
1, 20342, Note_on_c, 0, 66, 54
1, 20364, Note_off_c, 0, 66, 65
1, 20417, Note_off_c, 0, 69, 41
1, 20420, Note_on_c, 0, 66, 83
1, 20424, Poly_aftertouch_c, 0, 62, 127
1, 20456, Control_c, 0, 64, 126
1, 20471, Control_c, 0, 64, 80
1, 20475, Note_off_c, 0, 66, 55
1, 20482, Poly_aftertouch_c, 0, 62, 0
1, 20485, Control_c, 0, 64, 46
1, 20491, Note_on_c, 0, 57, 80
1, 20500, Control_c, 0, 64, 0
1, 20501, Note_on_c, 0, 69, 88
1, 20546, Control_c, 0, 64, 75
1, 20561, Control_c, 0, 64, 122
1, 20576, Control_c, 0, 64, 127
1, 20605, Note_on_c, 0, 66, 66
1, 20628, Note_on_c, 0, 62, 33
1, 20630, Note_off_c, 0, 66, 65
1, 20666, Note_off_c, 0, 62, 0
1, 20680, Note_off_c, 0, 69, 61
1, 20681, Note_on_c, 0, 62, 44
1, 20687, Note_on_c, 0, 66, 79
1, 20721, Note_off_c, 0, 62, 63
1, 20755, Note_off_c, 0, 57, 49
1, 20790, Control_c, 0, 64, 96
1, 20805, Control_c, 0, 64, 71
1, 20805, Note_off_c, 0, 66, 58
1, 20820, Control_c, 0, 64, 0
1, 20820, Note_on_c, 0, 70, 89
1, 20822, Note_on_c, 0, 58, 68
1, 20864, Control_c, 0, 64, 51
1, 20879, Control_c, 0, 64, 71
1, 20894, Control_c, 0, 64, 98
1, 20909, Control_c, 0, 64, 127
1, 20949, Note_on_c, 0, 67, 61
1, 20954, Note_on_c, 0, 62, 48
1, 20980, Note_off_c, 0, 67, 64
1, 20981, Note_off_c, 0, 62, 60
1, 21042, Note_on_c, 0, 67, 69
1, 21044, Note_on_c, 0, 62, 57
1, 21064, Note_off_c, 0, 67, 69
1, 21066, Note_off_c, 0, 62, 61
1, 21134, Note_on_c, 0, 67, 63
1, 21146, Note_on_c, 0, 62, 37
1, 21154, Note_off_c, 0, 67, 63
1, 21174, Note_off_c, 0, 62, 56
1, 21211, Note_on_c, 0, 62, 54
1, 21215, Note_on_c, 0, 67, 80
1, 21238, Note_off_c, 0, 62, 64
1, 21244, Note_off_c, 0, 67, 62
1, 21254, Note_off_c, 0, 70, 61
1, 21309, Control_c, 0, 64, 99
1, 21324, Control_c, 0, 64, 92
1, 21339, Control_c, 0, 64, 95
1, 21345, Note_on_c, 0, 66, 59
1, 21354, Control_c, 0, 64, 119
1, 21366, Note_off_c, 0, 66, 61
1, 21369, Control_c, 0, 64, 127
1, 21381, Note_off_c, 0, 58, 55
1, 21387, Note_on_c, 0, 55, 84
1, 21413, Note_on_c, 0, 67, 96
1, 21454, Note_off_c, 0, 55, 65
1, 21510, Note_on_c, 0, 62, 73
1, 21520, Note_on_c, 0, 58, 60
1, 21549, Note_off_c, 0, 62, 64
1, 21551, Note_off_c, 0, 58, 65
1, 21612, Note_on_c, 0, 58, 75
1, 21614, Note_on_c, 0, 62, 70
1, 21634, Note_off_c, 0, 58, 68
1, 21646, Note_off_c, 0, 62, 63
1, 21701, Note_on_c, 0, 62, 65
1, 21707, Note_on_c, 0, 58, 63
1, 21725, Note_off_c, 0, 58, 67
1, 21735, Note_off_c, 0, 62, 65
1, 21783, Note_on_c, 0, 58, 70
1, 21785, Note_on_c, 0, 62, 74
1, 21808, Note_off_c, 0, 58, 65
1, 21820, Note_off_c, 0, 62, 58
1, 21861, Note_on_c, 0, 62, 65
1, 21867, Note_on_c, 0, 58, 80
1, 21884, Note_off_c, 0, 58, 72
1, 21890, Note_off_c, 0, 67, 54
1, 21908, Note_off_c, 0, 62, 64
1, 21949, Note_on_c, 0, 38, 73
1, 21953, Control_c, 0, 64, 74
1, 21968, Control_c, 0, 64, 0
1, 21971, Note_on_c, 0, 74, 97
1, 22025, Note_off_c, 0, 38, 55
1, 22027, Control_c, 0, 64, 65
1, 22042, Control_c, 0, 64, 79
1, 22052, Note_on_c, 0, 42, 73
1, 22056, Control_c, 0, 64, 108
1, 22071, Control_c, 0, 64, 127
1, 22074, Note_on_c, 0, 66, 68
1, 22082, Note_on_c, 0, 62, 68
1, 22102, Note_off_c, 0, 66, 63
1, 22112, Note_off_c, 0, 62, 64
1, 22153, Note_on_c, 0, 43, 72
1, 22161, Note_off_c, 0, 42, 57
1, 22171, Note_on_c, 0, 62, 70
1, 22188, Note_on_c, 0, 66, 44
1, 22197, Note_off_c, 0, 62, 63
1, 22209, Note_off_c, 0, 66, 61
1, 22223, Note_off_c, 0, 74, 57
1, 22227, Note_off_c, 0, 43, 63
1, 22234, Note_on_c, 0, 45, 75
1, 22253, Note_on_c, 0, 62, 76
1, 22266, Note_on_c, 0, 66, 64
1, 22275, Note_off_c, 0, 62, 69
1, 22293, Note_off_c, 0, 45, 64
1, 22295, Note_off_c, 0, 66, 64
1, 22329, Note_on_c, 0, 47, 81
1, 22345, Note_on_c, 0, 62, 78
1, 22355, Note_on_c, 0, 66, 75
1, 22361, Poly_aftertouch_c, 0, 74, 0
1, 22363, Note_off_c, 0, 47, 64
1, 22366, Note_off_c, 0, 62, 67
1, 22374, Note_off_c, 0, 66, 69
1, 22382, Poly_aftertouch_c, 0, 72, 127
1, 22399, Poly_aftertouch_c, 0, 74, 127
1, 22421, Note_on_c, 0, 49, 86
1, 22435, Poly_aftertouch_c, 0, 72, 0
1, 22439, Note_on_c, 0, 66, 77
1, 22440, Note_on_c, 0, 62, 76
1, 22450, Control_c, 0, 64, 114
1, 22461, Note_off_c, 0, 62, 69
1, 22464, Control_c, 0, 64, 85
1, 22472, Poly_aftertouch_c, 0, 72, 127
1, 22478, Note_off_c, 0, 66, 58
1, 22478, Control_c, 0, 64, 63
1, 22481, Note_off_c, 0, 49, 65
1, 22493, Control_c, 0, 64, 0
1, 22506, Note_on_c, 0, 50, 92
1, 22534, Note_on_c, 0, 66, 70
1, 22536, Note_on_c, 0, 62, 67
1, 22553, Control_c, 0, 64, 59
1, 22556, Note_off_c, 0, 50, 66
1, 22563, Note_off_c, 0, 62, 64
1, 22567, Control_c, 0, 64, 68
1, 22578, Note_off_c, 0, 66, 59
1, 22578, Poly_aftertouch_c, 0, 74, 0
1, 22582, Control_c, 0, 64, 79
1, 22597, Control_c, 0, 64, 99
1, 22611, Poly_aftertouch_c, 0, 72, 0
1, 22612, Control_c, 0, 64, 127
1, 22615, Poly_aftertouch_c, 0, 74, 127
1, 22631, Note_on_c, 0, 66, 59
1, 22641, Note_on_c, 0, 62, 59
1, 22648, Poly_aftertouch_c, 0, 72, 127
1, 22662, Note_off_c, 0, 62, 62
1, 22677, Note_off_c, 0, 66, 55
1, 22714, Note_on_c, 0, 66, 52
1, 22732, Note_on_c, 0, 62, 59
1, 22757, Note_off_c, 0, 62, 61
1, 22764, Note_off_c, 0, 66, 61
1, 22805, Note_on_c, 0, 66, 55
1, 22844, Note_on_c, 0, 62, 36
1, 22848, Note_off_c, 0, 66, 62
1, 22879, Note_off_c, 0, 62, 51
1, 22918, Note_on_c, 0, 66, 49
1, 22941, Note_off_c, 0, 66, 59
1, 22964, Poly_aftertouch_c, 0, 72, 0
1, 22967, Poly_aftertouch_c, 0, 62, 127
1, 22987, Note_on_c, 0, 66, 81
1, 22993, Note_on_c, 0, 69, 23
1, 22993, Poly_aftertouch_c, 0, 74, 0
1, 23020, Poly_aftertouch_c, 0, 62, 0
1, 23033, Note_off_c, 0, 69, 56
1, 23044, Note_off_c, 0, 66, 62
1, 23065, Control_c, 0, 64, 103
1, 23080, Control_c, 0, 64, 83
1, 23095, Control_c, 0, 64, 71
1, 23096, Note_on_c, 0, 66, 55
1, 23106, Note_on_c, 0, 57, 53
1, 23106, Note_on_c, 0, 62, 49
1, 23109, Control_c, 0, 64, 67
1, 23124, Control_c, 0, 64, 71
1, 23139, Control_c, 0, 64, 76
1, 23139, Note_off_c, 0, 66, 61
1, 23143, Note_off_c, 0, 57, 61
1, 23145, Note_off_c, 0, 62, 61
1, 23154, Control_c, 0, 64, 79
1, 23169, Control_c, 0, 64, 84
1, 23183, Control_c, 0, 64, 91
1, 23198, Control_c, 0, 64, 98
1, 23199, Note_on_c, 0, 66, 64
1, 23213, Control_c, 0, 64, 102
1, 23220, Note_on_c, 0, 62, 55
1, 23228, Control_c, 0, 64, 103
1, 23238, Note_off_c, 0, 66, 55
1, 23255, Note_on_c, 0, 57, 12
1, 23259, Note_off_c, 0, 62, 54
1, 23296, Note_on_c, 0, 66, 61
1, 23308, Poly_aftertouch_c, 0, 62, 0
1, 23323, Note_off_c, 0, 66, 64
1, 23363, Poly_aftertouch_c, 0, 62, 0
1, 23385, Note_off_c, 0, 57, 0
1, 23385, Note_on_c, 0, 57, 18
1, 23386, Note_on_c, 0, 66, 68
1, 23400, Poly_aftertouch_c, 0, 62, 127
1, 23414, Note_off_c, 0, 66, 63
1, 23454, Poly_aftertouch_c, 0, 62, 0
1, 23464, Note_off_c, 0, 57, 0
1, 23477, Note_on_c, 0, 57, 43
1, 23478, Note_on_c, 0, 66, 69
1, 23491, Poly_aftertouch_c, 0, 62, 127
1, 23502, Note_off_c, 0, 66, 67
1, 23518, Poly_aftertouch_c, 0, 62, 0
1, 23519, Note_off_c, 0, 57, 57
1, 23569, Note_on_c, 0, 66, 65
1, 23583, Control_c, 0, 67, 8
1, 23585, Note_on_c, 0, 57, 39
1, 23587, Poly_aftertouch_c, 0, 62, 127
1, 23591, Note_off_c, 0, 66, 62
1, 23598, Control_c, 0, 67, 14
1, 23613, Control_c, 0, 67, 20
1, 23613, Note_off_c, 0, 57, 56
1, 23613, Poly_aftertouch_c, 0, 62, 0
1, 23627, Control_c, 0, 67, 23
1, 23658, Note_on_c, 0, 66, 69
1, 23682, Poly_aftertouch_c, 0, 62, 127
1, 23684, Note_off_c, 0, 66, 64
1, 23695, Note_on_c, 0, 57, 35
1, 23703, Poly_aftertouch_c, 0, 62, 0
1, 23703, Control_c, 0, 67, 23
1, 23732, Control_c, 0, 67, 24
1, 23747, Control_c, 0, 67, 24
1, 23760, Note_on_c, 0, 62, 50
1, 23762, Control_c, 0, 67, 25
1, 23766, Note_on_c, 0, 66, 58
1, 23767, Note_off_c, 0, 57, 0
1, 23784, Control_c, 0, 67, 26
1, 23795, Note_on_c, 0, 57, 19
1, 23799, Control_c, 0, 67, 27
1, 23804, Note_off_c, 0, 66, 53
1, 23813, Control_c, 0, 67, 29
1, 23828, Control_c, 0, 67, 30
1, 23843, Control_c, 0, 67, 32
1, 23856, Note_off_c, 0, 62, 0
1, 23858, Control_c, 0, 67, 35
1, 23868, Note_off_c, 0, 57, 0
1, 23873, Note_on_c, 0, 66, 52
1, 23873, Control_c, 0, 67, 37
1, 23876, Note_on_c, 0, 62, 25
1, 23884, Note_on_c, 0, 57, 34
1, 23888, Control_c, 0, 67, 40
1, 23903, Control_c, 0, 67, 44
1, 23917, Control_c, 0, 67, 48
1, 23929, Note_on_c, 0, 76, 31
1, 23929, Note_off_c, 0, 57, 45
1, 23932, Control_c, 0, 67, 50
1, 23947, Control_c, 0, 67, 52
1, 23962, Note_off_c, 0, 66, 0
1, 23962, Control_c, 0, 67, 52
1, 23972, Note_on_c, 0, 74, 88
1, 23977, Control_c, 0, 67, 53
1, 23980, Note_off_c, 0, 62, 0
1, 23980, Note_on_c, 0, 62, 14
1, 23986, Note_on_c, 0, 66, 28
1, 23992, Control_c, 0, 67, 53
1, 24002, Note_on_c, 0, 57, 46
1, 24007, Control_c, 0, 67, 54
1, 24022, Control_c, 0, 67, 55
1, 24026, Note_off_c, 0, 76, 31
1, 24037, Control_c, 0, 67, 55
1, 24037, Note_off_c, 0, 57, 59
1, 24079, Note_off_c, 0, 66, 0
1, 24096, Note_on_c, 0, 66, 39
1, 24111, Control_c, 0, 64, 104
1, 24126, Control_c, 0, 64, 105
1, 24126, Control_c, 0, 67, 54
1, 24136, Note_off_c, 0, 66, 63
1, 24140, Control_c, 0, 64, 106
1, 24140, Control_c, 0, 67, 54
1, 24155, Control_c, 0, 64, 108
1, 24155, Control_c, 0, 67, 53
1, 24170, Control_c, 0, 64, 110
1, 24183, Note_off_c, 0, 62, 0
1, 24185, Control_c, 0, 64, 112
1, 24185, Control_c, 0, 67, 53
1, 24200, Control_c, 0, 64, 115
1, 24214, Control_c, 0, 64, 127
1, 24219, Poly_aftertouch_c, 0, 62, 127
1, 24221, Note_on_c, 0, 62, 18
1, 24229, Control_c, 0, 67, 52
1, 24235, Note_on_c, 0, 66, 53
1, 24255, Note_off_c, 0, 66, 62
1, 24258, Note_on_c, 0, 57, 40
1, 24278, Note_off_c, 0, 62, 58
1, 24285, Note_off_c, 0, 57, 60
1, 24288, Control_c, 0, 67, 52
1, 24347, Control_c, 0, 67, 52
1, 24358, Note_off_c, 0, 74, 50
1, 24406, Control_c, 0, 67, 53
1, 24451, Control_c, 0, 64, 100
1, 24452, Note_on_c, 0, 43, 59
1, 24466, Control_c, 0, 64, 80
1, 24466, Control_c, 0, 67, 53
1, 24472, Note_on_c, 0, 74, 78
1, 24481, Control_c, 0, 64, 60
1, 24496, Control_c, 0, 64, 0
1, 24496, Control_c, 0, 67, 54
1, 24563, Control_c, 0, 64, 55
1, 24578, Control_c, 0, 64, 75
1, 24590, Note_off_c, 0, 43, 63
1, 24593, Control_c, 0, 64, 103
1, 24593, Control_c, 0, 67, 53
1, 24608, Control_c, 0, 64, 127
1, 24608, Control_c, 0, 67, 53
1, 24623, Control_c, 0, 67, 52
1, 24637, Control_c, 0, 67, 52
1, 24652, Control_c, 0, 67, 51
1, 24682, Control_c, 0, 67, 51
1, 24696, Control_c, 0, 67, 50
1, 24716, Note_on_c, 0, 59, 51
1, 24716, Note_on_c, 0, 62, 61
1, 24726, Control_c, 0, 67, 50
1, 24740, Note_on_c, 0, 65, 33
1, 24749, Note_off_c, 0, 62, 62
1, 24751, Note_off_c, 0, 59, 62
1, 24752, Note_on_c, 0, 67, 15
1, 24755, Control_c, 0, 67, 49
1, 24773, Note_off_c, 0, 65, 50
1, 24780, Note_off_c, 0, 67, 0
1, 24785, Control_c, 0, 67, 49
1, 24807, Note_on_c, 0, 67, 37
1, 24815, Note_on_c, 0, 65, 56
1, 24815, Control_c, 0, 67, 48
1, 24825, Note_on_c, 0, 62, 55
1, 24841, Note_on_c, 0, 59, 34
1, 24844, Note_off_c, 0, 65, 65
1, 24844, Control_c, 0, 67, 48
1, 24847, Note_off_c, 0, 62, 61
1, 24850, Note_off_c, 0, 67, 62
1, 24874, Control_c, 0, 67, 47
1, 24880, Note_off_c, 0, 59, 0
1, 24896, Note_on_c, 0, 59, 46
1, 24901, Note_on_c, 0, 62, 66
1, 24910, Note_on_c, 0, 67, 51
1, 24913, Note_on_c, 0, 65, 63
1, 24926, Note_off_c, 0, 62, 65
1, 24931, Note_off_c, 0, 59, 61
1, 24934, Control_c, 0, 67, 47
1, 24937, Note_off_c, 0, 65, 65
1, 24943, Note_off_c, 0, 67, 62
1, 24949, Control_c, 0, 67, 46
1, 24993, Control_c, 0, 67, 46
1, 24997, Note_on_c, 0, 62, 66
1, 25005, Note_on_c, 0, 59, 57
1, 25005, Note_on_c, 0, 65, 55
1, 25005, Note_on_c, 0, 67, 68
1, 25022, Control_c, 0, 67, 45
1, 25032, Note_off_c, 0, 62, 59
1, 25032, Note_off_c, 0, 67, 62
1, 25035, Note_off_c, 0, 65, 64
1, 25037, Note_off_c, 0, 59, 61
1, 25037, Control_c, 0, 67, 45
1, 25052, Control_c, 0, 67, 43
1, 25067, Control_c, 0, 67, 40
1, 25081, Control_c, 0, 67, 35
1, 25086, Note_on_c, 0, 62, 63
1, 25096, Control_c, 0, 67, 28
1, 25097, Note_on_c, 0, 59, 62
1, 25098, Note_on_c, 0, 67, 59
1, 25101, Note_on_c, 0, 65, 66
1, 25111, Control_c, 0, 67, 19
1, 25122, Note_off_c, 0, 59, 65
1, 25124, Note_off_c, 0, 62, 52
1, 25124, Note_off_c, 0, 65, 70
1, 25126, Control_c, 0, 67, 9
1, 25130, Note_off_c, 0, 67, 64
1, 25141, Control_c, 0, 67, 0
1, 25173, Note_on_c, 0, 62, 58
1, 25185, Note_on_c, 0, 59, 65
1, 25187, Note_on_c, 0, 67, 67
1, 25199, Note_on_c, 0, 65, 60
1, 25208, Note_off_c, 0, 59, 67
1, 25211, Note_off_c, 0, 67, 65
1, 25213, Note_off_c, 0, 62, 59
1, 25222, Note_off_c, 0, 65, 62
1, 25268, Note_on_c, 0, 62, 52
1, 25285, Note_on_c, 0, 59, 67
1, 25296, Note_on_c, 0, 67, 46
1, 25310, Note_on_c, 0, 65, 46
1, 25312, Note_off_c, 0, 62, 58
1, 25314, Note_off_c, 0, 59, 63
1, 25331, Note_off_c, 0, 67, 53
1, 25339, Note_off_c, 0, 65, 57
1, 25366, Note_on_c, 0, 62, 60
1, 25377, Note_on_c, 0, 59, 65
1, 25383, Note_on_c, 0, 67, 59
1, 25399, Note_off_c, 0, 62, 58
1, 25405, Note_on_c, 0, 65, 50
1, 25406, Note_off_c, 0, 59, 59
1, 25421, Note_off_c, 0, 67, 51
1, 25426, Note_off_c, 0, 65, 62
1, 25476, Note_on_c, 0, 59, 43
1, 25479, Note_on_c, 0, 62, 42
1, 25484, Note_on_c, 0, 79, 90
1, 25502, Note_off_c, 0, 59, 60
1, 25509, Note_off_c, 0, 62, 53
1, 25571, Note_on_c, 0, 67, 72
1, 25573, Note_on_c, 0, 62, 42
1, 25573, Note_on_c, 0, 77, 47
1, 25575, Note_on_c, 0, 59, 66
1, 25581, Note_on_c, 0, 65, 71
1, 25600, Note_off_c, 0, 59, 65
1, 25607, Note_off_c, 0, 62, 52
1, 25611, Note_off_c, 0, 77, 50
1, 25611, Note_off_c, 0, 79, 56
1, 25627, Note_off_c, 0, 65, 60
1, 25637, Note_off_c, 0, 67, 59
1, 25680, Poly_aftertouch_c, 0, 76, 127
1, 25703, Note_on_c, 0, 67, 62
1, 25712, Note_on_c, 0, 65, 70
1, 25745, Note_off_c, 0, 65, 47
1, 25767, Note_on_c, 0, 36, 71
1, 25768, Note_off_c, 0, 67, 47
1, 25801, Control_c, 0, 64, 95
1, 25816, Control_c, 0, 64, 68
1, 25828, Note_on_c, 0, 79, 84
1, 25830, Control_c, 0, 64, 0
1, 25855, Note_off_c, 0, 74, 64
1, 25869, Poly_aftertouch_c, 0, 76, 0
1, 25875, Control_c, 0, 64, 69
1, 25890, Control_c, 0, 64, 96
1, 25902, Note_off_c, 0, 79, 63
1, 25903, Note_off_c, 0, 36, 60
1, 25905, Control_c, 0, 64, 127
1, 26017, Note_on_c, 0, 55, 56
1, 26018, Note_on_c, 0, 60, 61
1, 26033, Note_on_c, 0, 63, 57
1, 26050, Note_on_c, 0, 67, 35
1, 26052, Note_off_c, 0, 60, 66
1, 26055, Note_off_c, 0, 63, 62
1, 26058, Note_off_c, 0, 55, 64
1, 26101, Note_off_c, 0, 67, 0
1, 26114, Note_on_c, 0, 67, 61
1, 26116, Note_on_c, 0, 60, 65
1, 26123, Note_on_c, 0, 63, 64
1, 26140, Note_off_c, 0, 60, 61
1, 26144, Note_off_c, 0, 63, 64
1, 26147, Note_off_c, 0, 67, 64
1, 26168, Note_on_c, 0, 55, 3
1, 26170, Note_off_c, 0, 55, 0
1, 26207, Note_on_c, 0, 60, 65
1, 26207, Poly_aftertouch_c, 0, 55, 127
1, 26210, Note_on_c, 0, 63, 63
1, 26216, Note_on_c, 0, 67, 66
1, 26234, Note_off_c, 0, 63, 66
1, 26235, Note_off_c, 0, 60, 65
1, 26252, Note_off_c, 0, 67, 57
1, 26255, Poly_aftertouch_c, 0, 55, 0
1, 26274, Note_on_c, 0, 55, 25
1, 26299, Note_on_c, 0, 63, 58
1, 26304, Note_on_c, 0, 60, 59
1, 26308, Poly_aftertouch_c, 0, 67, 127
1, 26323, Note_off_c, 0, 60, 66
1, 26324, Poly_aftertouch_c, 0, 67, 0
1, 26326, Note_off_c, 0, 55, 65
1, 26328, Note_off_c, 0, 63, 64
1, 26387, Note_on_c, 0, 60, 72
1, 26388, Note_on_c, 0, 55, 64
1, 26395, Note_on_c, 0, 67, 70
1, 26419, Note_off_c, 0, 60, 65
1, 26428, Note_off_c, 0, 55, 64
1, 26472, Note_on_c, 0, 75, 92
1, 26491, Note_on_c, 0, 55, 58
1, 26493, Note_on_c, 0, 60, 64
1, 26495, Note_off_c, 0, 67, 61
1, 26512, Note_off_c, 0, 60, 72
1, 26521, Note_off_c, 0, 55, 62
1, 26571, Note_on_c, 0, 67, 64
1, 26575, Note_on_c, 0, 63, 71
1, 26589, Note_on_c, 0, 60, 63
1, 26602, Note_off_c, 0, 63, 65
1, 26608, Note_on_c, 0, 55, 62
1, 26612, Note_off_c, 0, 67, 61
1, 26640, Note_off_c, 0, 60, 60
1, 26660, Note_on_c, 0, 63, 79
1, 26663, Note_on_c, 0, 67, 67
1, 26667, Note_off_c, 0, 55, 65
1, 26699, Note_off_c, 0, 75, 62
1, 26702, Note_off_c, 0, 63, 58
1, 26712, Control_c, 0, 64, 107
1, 26726, Control_c, 0, 64, 79
1, 26741, Control_c, 0, 64, 68
1, 26751, Note_on_c, 0, 39, 84
1, 26752, Note_on_c, 0, 72, 92
1, 26756, Control_c, 0, 64, 72
1, 26778, Control_c, 0, 64, 86
1, 26779, Note_off_c, 0, 67, 59
1, 26787, Note_off_c, 0, 39, 66
1, 26793, Control_c, 0, 64, 106
1, 26808, Control_c, 0, 64, 127
1, 26861, Note_off_c, 0, 72, 64
1, 26866, Note_on_c, 0, 67, 68
1, 26888, Note_on_c, 0, 60, 67
1, 26892, Note_off_c, 0, 67, 65
1, 26899, Note_on_c, 0, 55, 36
1, 26920, Note_off_c, 0, 60, 59
1, 26943, Note_on_c, 0, 63, 66
1, 26950, Note_off_c, 0, 55, 0
1, 26950, Note_on_c, 0, 55, 40
1, 26966, Note_on_c, 0, 67, 69
1, 26970, Note_off_c, 0, 63, 65
1, 26993, Note_off_c, 0, 55, 66
1, 27016, Note_off_c, 0, 67, 63
1, 27032, Control_c, 0, 64, 95
1, 27047, Control_c, 0, 64, 68
1, 27062, Control_c, 0, 64, 0
1, 27071, Note_on_c, 0, 77, 94
1, 27076, Note_on_c, 0, 40, 78
1, 27091, Control_c, 0, 64, 52
1, 27106, Control_c, 0, 64, 74
1, 27111, Note_off_c, 0, 77, 67
1, 27113, Note_off_c, 0, 40, 65
1, 27121, Control_c, 0, 64, 104
1, 27136, Control_c, 0, 64, 127
1, 27220, Note_on_c, 0, 53, 66
1, 27221, Note_on_c, 0, 58, 70
1, 27235, Note_on_c, 0, 65, 50
1, 27237, Note_on_c, 0, 62, 49
1, 27246, Note_off_c, 0, 58, 66
1, 27251, Note_off_c, 0, 53, 65
1, 27260, Note_off_c, 0, 65, 61
1, 27265, Note_off_c, 0, 62, 55
1, 27307, Note_on_c, 0, 58, 76
1, 27312, Note_on_c, 0, 62, 61
1, 27314, Note_on_c, 0, 65, 67
1, 27316, Note_on_c, 0, 53, 69
1, 27337, Note_off_c, 0, 62, 64
1, 27340, Note_off_c, 0, 65, 67
1, 27342, Note_off_c, 0, 58, 65
1, 27344, Note_off_c, 0, 53, 66
1, 27397, Note_on_c, 0, 62, 67
1, 27404, Note_on_c, 0, 53, 66
1, 27410, Note_on_c, 0, 65, 69
1, 27411, Note_on_c, 0, 58, 64
1, 27425, Note_off_c, 0, 62, 63
1, 27432, Note_off_c, 0, 65, 70
1, 27438, Note_off_c, 0, 58, 66
1, 27442, Note_off_c, 0, 53, 64
1, 27494, Note_on_c, 0, 58, 75
1, 27497, Note_on_c, 0, 65, 68
1, 27509, Note_on_c, 0, 53, 51
1, 27515, Note_on_c, 0, 62, 36
1, 27530, Note_off_c, 0, 65, 68
1, 27557, Note_off_c, 0, 58, 61
1, 27575, Note_off_c, 0, 53, 65
1, 27584, Note_on_c, 0, 65, 76
1, 27586, Note_off_c, 0, 62, 0
1, 27597, Note_on_c, 0, 62, 54
1, 27617, Control_c, 0, 64, 118
1, 27620, Note_off_c, 0, 65, 61
1, 27625, Note_off_c, 0, 62, 64
1, 27632, Control_c, 0, 64, 81
1, 27642, Note_on_c, 0, 41, 88
1, 27647, Control_c, 0, 64, 66
1, 27661, Control_c, 0, 64, 65
1, 27676, Control_c, 0, 64, 73
1, 27679, Note_off_c, 0, 41, 64
1, 27691, Control_c, 0, 64, 86
1, 27706, Control_c, 0, 64, 124
1, 27721, Control_c, 0, 64, 127
1, 27764, Note_on_c, 0, 57, 69
1, 27765, Note_on_c, 0, 53, 65
1, 27765, Note_on_c, 0, 65, 51
1, 27768, Note_on_c, 0, 60, 68
1, 27777, Note_on_c, 0, 63, 47
1, 27789, Note_off_c, 0, 65, 63
1, 27790, Note_off_c, 0, 53, 68
1, 27790, Note_off_c, 0, 57, 66
1, 27804, Note_off_c, 0, 63, 57
1, 27807, Note_off_c, 0, 60, 0
1, 27844, Poly_aftertouch_c, 0, 60, 127
1, 27853, Note_on_c, 0, 53, 69
1, 27855, Note_on_c, 0, 57, 64
1, 27855, Note_on_c, 0, 65, 72
1, 27872, Note_on_c, 0, 63, 60
1, 27877, Poly_aftertouch_c, 0, 60, 0
1, 27881, Note_off_c, 0, 53, 65
1, 27885, Note_off_c, 0, 57, 63
1, 27906, Note_off_c, 0, 63, 61
1, 27924, Note_on_c, 0, 69, 92
1, 27926, Note_on_c, 0, 60, 66
1, 27948, Note_off_c, 0, 65, 32
1, 27948, Note_on_c, 0, 57, 71
1, 27964, Note_on_c, 0, 53, 51
1, 27968, Note_off_c, 0, 60, 56
1, 27976, Note_off_c, 0, 57, 58
1, 27986, Note_off_c, 0, 53, 64
1, 28010, Note_on_c, 0, 63, 68
1, 28016, Note_on_c, 0, 65, 35
1, 28042, Note_off_c, 0, 65, 63
1, 28050, Note_on_c, 0, 53, 74
1, 28063, Note_off_c, 0, 69, 63
1, 28073, Note_off_c, 0, 53, 71
1, 28097, Note_on_c, 0, 65, 66
1, 28165, Note_off_c, 0, 65, 63
1, 28174, Note_off_c, 0, 63, 59
1, 28180, Control_c, 0, 64, 89
1, 28195, Control_c, 0, 64, 60
1, 28204, Note_on_c, 0, 34, 80
1, 28208, Note_on_c, 0, 70, 95
1, 28210, Control_c, 0, 64, 0
1, 28212, Note_on_c, 0, 58, 87
1, 28246, Note_off_c, 0, 58, 57
1, 28277, Control_c, 0, 64, 34
1, 28292, Control_c, 0, 64, 61
1, 28306, Control_c, 0, 64, 72
1, 28314, Note_on_c, 0, 65, 61
1, 28317, Note_on_c, 0, 36, 70
1, 28317, Poly_aftertouch_c, 0, 39, 0
1, 28321, Control_c, 0, 64, 85
1, 28331, Note_off_c, 0, 34, 52
1, 28334, Note_on_c, 0, 62, 37
1, 28336, Control_c, 0, 64, 110
1, 28350, Control_c, 0, 64, 127
1, 28353, Note_off_c, 0, 65, 58
1, 28384, Note_off_c, 0, 62, 0
1, 28394, Note_on_c, 0, 62, 61
1, 28396, Note_on_c, 0, 65, 56
1, 28401, Note_on_c, 0, 38, 77
1, 28423, Note_off_c, 0, 36, 58
1, 28425, Note_off_c, 0, 62, 64
1, 28464, Note_off_c, 0, 65, 0
1, 28481, Note_on_c, 0, 65, 42
1, 28488, Note_on_c, 0, 39, 82
1, 28492, Note_on_c, 0, 62, 60
1, 28504, Note_off_c, 0, 38, 62
1, 28520, Note_off_c, 0, 62, 65
1, 28539, Note_off_c, 0, 65, 55
1, 28573, Note_off_c, 0, 39, 59
1, 28580, Note_on_c, 0, 41, 93
1, 28584, Note_on_c, 0, 62, 68
1, 28584, Note_on_c, 0, 65, 52
1, 28621, Note_off_c, 0, 62, 61
1, 28633, Note_off_c, 0, 65, 63
1, 28639, Note_off_c, 0, 41, 61
1, 28669, Note_on_c, 0, 42, 89
1, 28678, Note_on_c, 0, 62, 67
1, 28680, Note_on_c, 0, 65, 60
1, 28702, Note_off_c, 0, 62, 66
1, 28711, Note_off_c, 0, 65, 64
1, 28722, Control_c, 0, 64, 113
1, 28724, Note_off_c, 0, 42, 63
1, 28737, Control_c, 0, 64, 73
1, 28752, Control_c, 0, 64, 0
1, 28766, Note_on_c, 0, 41, 94
1, 28782, Note_on_c, 0, 62, 69
1, 28784, Note_on_c, 0, 65, 68
1, 28810, Note_off_c, 0, 62, 65
1, 28812, Note_off_c, 0, 41, 63
1, 28813, Note_off_c, 0, 65, 64
1, 28826, Control_c, 0, 64, 72
1, 28841, Control_c, 0, 64, 92
1, 28855, Control_c, 0, 64, 115
1, 28870, Control_c, 0, 64, 106
1, 28885, Control_c, 0, 64, 102
1, 28888, Note_on_c, 0, 62, 55
1, 28910, Note_off_c, 0, 62, 60
1, 28915, Control_c, 0, 64, 101
1, 28929, Control_c, 0, 64, 93
1, 28944, Control_c, 0, 64, 76
1, 28949, Poly_aftertouch_c, 0, 65, 127
1, 28958, Note_on_c, 0, 65, 16
1, 28959, Control_c, 0, 64, 0
1, 28962, Note_off_c, 0, 70, 63
1, 28973, Note_on_c, 0, 62, 64
1, 28998, Note_off_c, 0, 62, 67
1, 29030, Note_off_c, 0, 65, 62
1, 29062, Note_on_c, 0, 34, 93
1, 29078, Note_on_c, 0, 70, 87
1, 29083, Note_on_c, 0, 58, 89
1, 29086, Control_c, 0, 64, 67
1, 29089, Note_off_c, 0, 34, 67
1, 29101, Control_c, 0, 64, 102
1, 29101, Note_off_c, 0, 58, 72
1, 29116, Control_c, 0, 64, 127
1, 29155, Note_off_c, 0, 70, 65
1, 29166, Poly_aftertouch_c, 0, 68, 127
1, 29173, Note_on_c, 0, 65, 59
1, 29194, Poly_aftertouch_c, 0, 68, 0
1, 29197, Note_on_c, 0, 62, 41
1, 29203, Note_off_c, 0, 65, 66
1, 29224, Note_off_c, 0, 62, 55
1, 29268, Note_on_c, 0, 65, 68
1, 29271, Note_on_c, 0, 62, 33
1, 29293, Note_on_c, 0, 46, 74
1, 29298, Note_off_c, 0, 65, 66
1, 29304, Note_off_c, 0, 62, 55
1, 29402, Note_off_c, 0, 46, 63
1, 29412, Control_c, 0, 64, 93
1, 29427, Control_c, 0, 64, 71
1, 29442, Control_c, 0, 64, 0
1, 29456, Note_on_c, 0, 75, 87
1, 29458, Note_on_c, 0, 63, 84
1, 29459, Note_on_c, 0, 60, 75
1, 29471, Control_c, 0, 64, 11
1, 29486, Control_c, 0, 64, 65
1, 29501, Control_c, 0, 64, 77
1, 29516, Control_c, 0, 64, 96
1, 29531, Control_c, 0, 64, 127
1, 29591, Note_off_c, 0, 60, 59
1, 29620, Note_off_c, 0, 63, 59
1, 29656, Note_on_c, 0, 54, 58
1, 29662, Note_on_c, 0, 51, 58
1, 29677, Note_on_c, 0, 66, 54
1, 29678, Note_on_c, 0, 69, 58
1, 29682, Note_off_c, 0, 75, 57
1, 29685, Note_off_c, 0, 54, 65
1, 29691, Note_off_c, 0, 51, 65
1, 29706, Note_off_c, 0, 66, 64
1, 29709, Note_off_c, 0, 69, 63
1, 29759, Note_on_c, 0, 54, 65
1, 29775, Note_on_c, 0, 51, 60
1, 29787, Note_on_c, 0, 69, 61
1, 29790, Note_off_c, 0, 54, 68
1, 29791, Note_on_c, 0, 66, 54
1, 29802, Note_off_c, 0, 51, 66
1, 29810, Note_off_c, 0, 66, 63
1, 29810, Note_off_c, 0, 69, 67
1, 29847, Note_on_c, 0, 54, 69
1, 29864, Note_on_c, 0, 51, 67
1, 29864, Note_on_c, 0, 69, 69
1, 29865, Note_on_c, 0, 66, 64
1, 29876, Note_off_c, 0, 54, 63
1, 29888, Note_off_c, 0, 51, 67
1, 29888, Note_off_c, 0, 66, 64
1, 29888, Note_off_c, 0, 69, 66
1, 29940, Note_on_c, 0, 51, 72
1, 29945, Note_on_c, 0, 54, 71
1, 29950, Note_on_c, 0, 69, 67
1, 29956, Note_on_c, 0, 66, 68
1, 29968, Note_off_c, 0, 54, 69
1, 29974, Note_off_c, 0, 69, 65
1, 29977, Note_off_c, 0, 51, 63
1, 29977, Note_off_c, 0, 66, 69
1, 30017, Note_on_c, 0, 54, 70
1, 30035, Note_on_c, 0, 51, 72
1, 30040, Note_on_c, 0, 66, 61
1, 30047, Note_on_c, 0, 69, 71
1, 30049, Note_off_c, 0, 54, 64
1, 30064, Note_off_c, 0, 51, 61
1, 30097, Note_off_c, 0, 69, 59
1, 30108, Note_off_c, 0, 66, 60
1, 30112, Note_on_c, 0, 54, 71
1, 30126, Note_on_c, 0, 51, 74
1, 30139, Note_off_c, 0, 54, 67
1, 30150, Note_off_c, 0, 51, 70
1, 30207, Note_on_c, 0, 51, 71
1, 30208, Note_on_c, 0, 54, 76
1, 30239, Note_off_c, 0, 54, 66
1, 30249, Note_off_c, 0, 51, 66
1, 30312, Note_on_c, 0, 54, 66
1, 30323, Note_on_c, 0, 69, 93
1, 30324, Note_on_c, 0, 57, 90
1, 30328, Note_on_c, 0, 51, 67
1, 30343, Note_off_c, 0, 54, 66
1, 30353, Note_off_c, 0, 51, 67
1, 30353, Note_off_c, 0, 57, 63
1, 30416, Note_on_c, 0, 51, 64
1, 30428, Note_on_c, 0, 54, 68
1, 30433, Note_on_c, 0, 60, 65
1, 30444, Note_on_c, 0, 66, 62
1, 30458, Note_off_c, 0, 54, 66
1, 30466, Note_off_c, 0, 69, 41
1, 30475, Note_off_c, 0, 66, 60
1, 30475, Note_off_c, 0, 60, 0
1, 30482, Note_off_c, 0, 51, 63
1, 30512, Poly_aftertouch_c, 0, 60, 127
1, 30526, Note_on_c, 0, 66, 60
1, 30532, Poly_aftertouch_c, 0, 60, 0
1, 30589, Note_off_c, 0, 66, 60
1, 30605, Note_on_c, 0, 34, 73
1, 30614, Control_c, 0, 64, 113
1, 30624, Note_on_c, 0, 72, 92
1, 30627, Note_on_c, 0, 60, 82
1, 30628, Control_c, 0, 64, 77
1, 30643, Control_c, 0, 64, 0
1, 30688, Control_c, 0, 64, 61
1, 30702, Control_c, 0, 64, 70
1, 30704, Note_off_c, 0, 60, 50
1, 30717, Control_c, 0, 64, 82
1, 30726, Note_off_c, 0, 34, 37
1, 30732, Control_c, 0, 64, 99
1, 30733, Note_on_c, 0, 36, 64
1, 30741, Note_on_c, 0, 62, 44
1, 30744, Note_off_c, 0, 72, 63
1, 30746, Control_c, 0, 64, 127
1, 30753, Note_on_c, 0, 65, 30
1, 30790, Note_off_c, 0, 65, 45
1, 30813, Note_on_c, 0, 38, 74
1, 30825, Note_on_c, 0, 65, 65
1, 30836, Note_off_c, 0, 36, 58
1, 30889, Note_off_c, 0, 62, 49
1, 30896, Note_on_c, 0, 39, 78
1, 30896, Control_c, 0, 64, 95
1, 30908, Note_off_c, 0, 38, 61
1, 30911, Control_c, 0, 64, 78
1, 30918, Note_on_c, 0, 70, 96
1, 30920, Note_on_c, 0, 58, 89
1, 30925, Control_c, 0, 64, 66
1, 30931, Note_off_c, 0, 65, 35
1, 30940, Control_c, 0, 64, 64
1, 30947, Note_off_c, 0, 58, 63
1, 30955, Control_c, 0, 64, 70
1, 30970, Control_c, 0, 64, 82
1, 30974, Note_on_c, 0, 41, 83
1, 30985, Control_c, 0, 64, 98
1, 30988, Note_off_c, 0, 39, 59
1, 30999, Control_c, 0, 64, 127
1, 31014, Note_on_c, 0, 65, 69
1, 31016, Note_on_c, 0, 62, 61
1, 31046, Note_off_c, 0, 62, 64
1, 31048, Note_off_c, 0, 65, 60
1, 31082, Note_on_c, 0, 42, 91
1, 31101, Note_off_c, 0, 41, 59
1, 31103, Control_c, 0, 64, 122
1, 31108, Note_on_c, 0, 65, 66
1, 31109, Note_on_c, 0, 62, 69
1, 31117, Control_c, 0, 64, 88
1, 31128, Note_off_c, 0, 62, 64
1, 31132, Control_c, 0, 64, 70
1, 31134, Note_off_c, 0, 65, 67
1, 31147, Control_c, 0, 64, 0
1, 31152, Note_off_c, 0, 42, 58
1, 31176, Control_c, 0, 64, 56
1, 31184, Note_on_c, 0, 62, 68
1, 31191, Note_on_c, 0, 65, 74
1, 31191, Control_c, 0, 64, 73
1, 31195, Note_on_c, 0, 41, 83
1, 31206, Control_c, 0, 64, 93
1, 31215, Note_on_c, 0, 43, 46
1, 31215, Note_off_c, 0, 62, 64
1, 31219, Note_off_c, 0, 65, 64
1, 31221, Control_c, 0, 64, 127
1, 31226, Note_off_c, 0, 41, 64
1, 31247, Note_off_c, 0, 43, 54
1, 31293, Note_on_c, 0, 65, 60
1, 31296, Note_on_c, 0, 62, 58
1, 31310, Note_off_c, 0, 70, 57
1, 31322, Note_off_c, 0, 65, 66
1, 31325, Note_off_c, 0, 62, 59
1, 31369, Note_on_c, 0, 62, 50
1, 31382, Note_on_c, 0, 65, 73
1, 31391, Control_c, 0, 64, 89
1, 31406, Control_c, 0, 64, 60
1, 31407, Note_off_c, 0, 62, 63
1, 31411, Note_off_c, 0, 65, 65
1, 31421, Control_c, 0, 64, 0
1, 31465, Note_on_c, 0, 34, 96
1, 31465, Control_c, 0, 64, 52
1, 31467, Note_on_c, 0, 70, 89
1, 31469, Note_on_c, 0, 58, 87
1, 31480, Control_c, 0, 64, 70
1, 31488, Note_off_c, 0, 58, 72
1, 31491, Note_off_c, 0, 34, 67
1, 31495, Control_c, 0, 64, 89
1, 31510, Control_c, 0, 64, 127
1, 31540, Note_off_c, 0, 70, 66
1, 31560, Poly_aftertouch_c, 0, 59, 127
1, 31573, Note_on_c, 0, 65, 63
1, 31585, Note_on_c, 0, 62, 51
1, 31595, Poly_aftertouch_c, 0, 59, 0
1, 31648, Note_on_c, 0, 46, 78
1, 31653, Note_off_c, 0, 62, 44
1, 31654, Note_off_c, 0, 65, 66
1, 31762, Note_off_c, 0, 46, 63
1, 31792, Control_c, 0, 64, 102
1, 31807, Control_c, 0, 64, 78
1, 31810, Note_on_c, 0, 60, 76
1, 31821, Note_on_c, 0, 75, 91
1, 31822, Control_c, 0, 64, 59
1, 31825, Note_on_c, 0, 63, 83
1, 31837, Control_c, 0, 64, 55
1, 31852, Control_c, 0, 64, 67
1, 31866, Control_c, 0, 64, 77
1, 31881, Control_c, 0, 64, 100
1, 31896, Control_c, 0, 64, 127
1, 31942, Note_off_c, 0, 60, 58
1, 31945, Note_off_c, 0, 63, 55
1, 31993, Note_on_c, 0, 51, 61
1, 31996, Note_on_c, 0, 54, 64
1, 31999, Note_on_c, 0, 66, 61
1, 32002, Note_on_c, 0, 69, 58
1, 32029, Note_off_c, 0, 54, 67
1, 32033, Note_off_c, 0, 51, 65
1, 32033, Note_off_c, 0, 66, 65
1, 32035, Note_off_c, 0, 75, 59
1, 32036, Note_off_c, 0, 69, 65
1, 32085, Note_on_c, 0, 54, 77
1, 32091, Note_on_c, 0, 51, 76
1, 32103, Note_on_c, 0, 66, 60
1, 32112, Note_off_c, 0, 54, 68
1, 32114, Note_on_c, 0, 69, 49
1, 32121, Note_off_c, 0, 66, 64
1, 32122, Note_off_c, 0, 51, 68
1, 32139, Note_off_c, 0, 69, 56
1, 32177, Note_on_c, 0, 51, 69
1, 32178, Note_on_c, 0, 54, 66
1, 32186, Note_on_c, 0, 69, 45
1, 32192, Note_on_c, 0, 66, 50
1, 32201, Note_off_c, 0, 54, 68
1, 32204, Note_off_c, 0, 51, 65
1, 32210, Note_off_c, 0, 69, 56
1, 32217, Note_off_c, 0, 66, 59
1, 32246, Note_on_c, 0, 54, 79
1, 32264, Note_on_c, 0, 66, 62
1, 32265, Note_on_c, 0, 51, 77
1, 32279, Note_off_c, 0, 54, 65
1, 32279, Note_on_c, 0, 69, 51
1, 32285, Note_off_c, 0, 51, 71
1, 32293, Note_off_c, 0, 66, 64
1, 32300, Note_off_c, 0, 69, 61
1, 32343, Note_on_c, 0, 51, 65
1, 32343, Note_on_c, 0, 54, 73
1, 32347, Control_c, 0, 64, 114
1, 32362, Control_c, 0, 64, 86
1, 32373, Note_off_c, 0, 54, 60
1, 32377, Control_c, 0, 64, 70
1, 32378, Note_off_c, 0, 51, 60
1, 32392, Control_c, 0, 64, 67
1, 32407, Control_c, 0, 64, 74
1, 32415, Note_on_c, 0, 69, 83
1, 32422, Control_c, 0, 64, 87
1, 32423, Note_on_c, 0, 57, 85
1, 32437, Control_c, 0, 64, 127
1, 32445, Note_on_c, 0, 54, 56
1, 32451, Note_off_c, 0, 57, 60
1, 32461, Note_on_c, 0, 51, 60
1, 32476, Note_off_c, 0, 54, 63
1, 32488, Note_off_c, 0, 51, 66
1, 32550, Note_on_c, 0, 51, 69
1, 32550, Note_on_c, 0, 54, 57
1, 32561, Note_on_c, 0, 60, 40
1, 32571, Note_off_c, 0, 54, 67
1, 32574, Note_off_c, 0, 51, 67
1, 32577, Note_on_c, 0, 66, 58
1, 32577, Note_off_c, 0, 69, 55
1, 32610, Note_off_c, 0, 60, 56
1, 32616, Note_off_c, 0, 66, 55
1, 32622, Note_on_c, 0, 54, 83
1, 32628, Note_on_c, 0, 51, 70
1, 32652, Note_off_c, 0, 54, 64
1, 32666, Note_off_c, 0, 51, 63
1, 32726, Note_on_c, 0, 51, 59
1, 32744, Note_on_c, 0, 54, 45
1, 32770, Note_off_c, 0, 54, 66
1, 32771, Note_off_c, 0, 51, 63
1, 32830, Note_on_c, 0, 54, 69
1, 32842, Note_on_c, 0, 69, 79
1, 32843, Note_on_c, 0, 51, 72
1, 32846, Note_on_c, 0, 57, 75
1, 32854, Note_off_c, 0, 54, 68
1, 32863, Note_on_c, 0, 66, 64
1, 32871, Note_off_c, 0, 51, 62
1, 32877, Note_off_c, 0, 57, 62
1, 32902, Note_off_c, 0, 66, 58
1, 32908, Note_off_c, 0, 69, 60
1, 32993, Control_c, 0, 64, 101
1, 32996, Note_on_c, 0, 60, 74
1, 32997, Note_on_c, 0, 72, 80
1, 33001, Note_on_c, 0, 34, 61
1, 33008, Control_c, 0, 64, 70
1, 33022, Control_c, 0, 64, 0
1, 33082, Control_c, 0, 64, 67
1, 33093, Note_off_c, 0, 60, 52
1, 33096, Control_c, 0, 64, 82
1, 33108, Note_off_c, 0, 72, 62
1, 33110, Note_on_c, 0, 62, 39
1, 33111, Control_c, 0, 64, 127
1, 33114, Note_on_c, 0, 36, 69
1, 33123, Note_on_c, 0, 65, 66
1, 33144, Note_off_c, 0, 34, 37
1, 33152, Note_off_c, 0, 65, 65
1, 33173, Note_off_c, 0, 62, 0
1, 33191, Note_on_c, 0, 62, 45
1, 33200, Note_on_c, 0, 38, 71
1, 33217, Note_off_c, 0, 36, 58
1, 33221, Note_on_c, 0, 65, 57
1, 33230, Control_c, 0, 64, 105
1, 33245, Control_c, 0, 64, 77
1, 33260, Control_c, 0, 64, 58
1, 33273, Note_on_c, 0, 39, 71
1, 33274, Control_c, 0, 64, 0
1, 33287, Note_off_c, 0, 38, 62
1, 33289, Note_on_c, 0, 70, 88
1, 33290, Note_off_c, 0, 62, 45
1, 33294, Note_on_c, 0, 58, 80
1, 33298, Note_off_c, 0, 65, 58
1, 33319, Control_c, 0, 64, 60
1, 33321, Note_off_c, 0, 58, 64
1, 33334, Control_c, 0, 64, 73
1, 33349, Note_off_c, 0, 39, 62
1, 33349, Control_c, 0, 64, 88
1, 33364, Control_c, 0, 64, 116
1, 33365, Note_on_c, 0, 41, 79
1, 33376, Note_on_c, 0, 65, 62
1, 33379, Control_c, 0, 64, 127
1, 33400, Note_on_c, 0, 62, 39
1, 33415, Note_off_c, 0, 41, 59
1, 33422, Note_off_c, 0, 65, 59
1, 33434, Note_off_c, 0, 62, 52
1, 33483, Note_on_c, 0, 42, 31
1, 33485, Note_on_c, 0, 41, 54
1, 33486, Note_on_c, 0, 65, 55
1, 33488, Note_on_c, 0, 62, 57
1, 33509, Note_off_c, 0, 62, 63
1, 33513, Control_c, 0, 64, 89
1, 33524, Note_off_c, 0, 65, 66
1, 33529, Note_off_c, 0, 42, 52
1, 33532, Note_off_c, 0, 41, 59
1, 33534, Control_c, 0, 64, 66
1, 33549, Control_c, 0, 64, 0
1, 33565, Note_on_c, 0, 41, 75
1, 33593, Control_c, 0, 64, 60
1, 33594, Note_on_c, 0, 62, 46
1, 33595, Note_on_c, 0, 65, 60
1, 33608, Control_c, 0, 64, 72
1, 33617, Note_off_c, 0, 41, 60
1, 33620, Note_off_c, 0, 62, 56
1, 33623, Note_off_c, 0, 65, 63
1, 33623, Control_c, 0, 64, 90
1, 33638, Control_c, 0, 64, 127
1, 33712, Note_on_c, 0, 62, 35
1, 33719, Note_on_c, 0, 65, 31
1, 33749, Note_off_c, 0, 62, 0
1, 33760, Note_off_c, 0, 65, 0
1, 33763, Note_on_c, 0, 62, 52
1, 33768, Note_off_c, 0, 70, 61
1, 33781, Note_on_c, 0, 65, 34
1, 33787, Control_c, 0, 64, 123
1, 33802, Control_c, 0, 64, 91
1, 33817, Control_c, 0, 64, 72
1, 33825, Note_off_c, 0, 62, 61
1, 33829, Note_off_c, 0, 65, 58
1, 33832, Control_c, 0, 64, 57
1, 33844, Note_on_c, 0, 46, 55
1, 33846, Control_c, 0, 64, 0
1, 33876, Control_c, 0, 64, 48
1, 33881, Note_on_c, 0, 70, 78
1, 33891, Control_c, 0, 64, 66
1, 33893, Note_on_c, 0, 58, 63
1, 33906, Control_c, 0, 64, 78
1, 33920, Control_c, 0, 64, 92
1, 33922, Note_off_c, 0, 58, 64
1, 33935, Control_c, 0, 64, 113
1, 33950, Control_c, 0, 64, 127
1, 33987, Note_off_c, 0, 46, 56
1, 33999, Note_off_c, 0, 70, 62
1, 34005, Note_on_c, 0, 65, 46
1, 34031, Note_off_c, 0, 65, 57
1, 34058, Poly_aftertouch_c, 0, 62, 127
1, 34081, Note_on_c, 0, 42, 48
1, 34102, Note_on_c, 0, 65, 56
1, 34125, Note_off_c, 0, 65, 65
1, 34134, Poly_aftertouch_c, 0, 62, 0
1, 34169, Note_on_c, 0, 50, 51
1, 34196, Note_off_c, 0, 42, 63
1, 34284, Control_c, 0, 64, 126
1, 34299, Control_c, 0, 64, 100
1, 34307, Note_on_c, 0, 74, 75
1, 34314, Control_c, 0, 64, 84
1, 34321, Note_on_c, 0, 57, 52
1, 34329, Control_c, 0, 64, 70
1, 34343, Control_c, 0, 64, 51
1, 34358, Control_c, 0, 64, 0
1, 34373, Control_c, 0, 64, 38
1, 34388, Control_c, 0, 64, 62
1, 34395, Note_off_c, 0, 57, 61
1, 34402, Control_c, 0, 64, 67
1, 34410, Note_off_c, 0, 50, 59
1, 34417, Control_c, 0, 64, 77
1, 34432, Control_c, 0, 64, 94
1, 34446, Control_c, 0, 64, 127
1, 34496, Note_on_c, 0, 50, 43
1, 34508, Note_on_c, 0, 57, 41
1, 34522, Note_on_c, 0, 60, 43
1, 34533, Note_on_c, 0, 62, 26
1, 34535, Note_off_c, 0, 50, 61
1, 34538, Note_off_c, 0, 57, 56
1, 34549, Note_off_c, 0, 60, 56
1, 34595, Note_off_c, 0, 62, 0
1, 34609, Note_on_c, 0, 62, 37
1, 34611, Note_on_c, 0, 50, 48
1, 34622, Note_on_c, 0, 57, 41
1, 34625, Note_on_c, 0, 60, 47
1, 34633, Note_off_c, 0, 74, 53
1, 34646, Note_off_c, 0, 60, 62
1, 34651, Note_off_c, 0, 62, 54
1, 34673, Note_off_c, 0, 50, 0
1, 34678, Note_off_c, 0, 57, 0
1, 34689, Note_on_c, 0, 50, 48
1, 34691, Note_on_c, 0, 57, 45
1, 34716, Note_on_c, 0, 60, 48
1, 34719, Note_on_c, 0, 62, 14
1, 34732, Note_off_c, 0, 57, 58
1, 34737, Note_off_c, 0, 50, 59
1, 34738, Note_off_c, 0, 60, 61
1, 34757, Note_off_c, 0, 62, 46
1, 34792, Note_on_c, 0, 57, 51
1, 34795, Note_on_c, 0, 50, 52
1, 34813, Note_on_c, 0, 60, 46
1, 34813, Note_on_c, 0, 62, 46
1, 34821, Note_off_c, 0, 57, 63
1, 34828, Note_off_c, 0, 50, 65
1, 34838, Note_off_c, 0, 60, 58
1, 34845, Note_off_c, 0, 62, 53
1, 34896, Note_on_c, 0, 57, 51
1, 34899, Note_on_c, 0, 50, 50
1, 34918, Note_on_c, 0, 62, 32
1, 34921, Note_on_c, 0, 60, 44
1, 34929, Note_off_c, 0, 50, 55
1, 34930, Note_off_c, 0, 57, 52
1, 34946, Note_off_c, 0, 62, 55
1, 34954, Note_off_c, 0, 60, 53
1, 34980, Note_on_c, 0, 50, 54
1, 34992, Note_on_c, 0, 57, 43
1, 34997, Note_on_c, 0, 62, 48
1, 35021, Note_on_c, 0, 60, 50
1, 35030, Note_off_c, 0, 57, 49
1, 35031, Note_off_c, 0, 50, 45
1, 35053, Note_off_c, 0, 62, 44
1, 35054, Note_off_c, 0, 60, 53
1, 35076, Note_on_c, 0, 57, 49
1, 35081, Note_on_c, 0, 50, 45
1, 35105, Note_on_c, 0, 62, 21
1, 35107, Note_off_c, 0, 57, 64
1, 35111, Note_on_c, 0, 60, 52
1, 35137, Note_off_c, 0, 50, 0
1, 35140, Note_off_c, 0, 60, 65
1, 35147, Note_off_c, 0, 62, 59
1, 35173, Poly_aftertouch_c, 0, 50, 127
1, 35185, Note_on_c, 0, 57, 48
1, 35190, Poly_aftertouch_c, 0, 50, 0
1, 35212, Note_off_c, 0, 57, 61
1, 35216, Note_on_c, 0, 62, 51
1, 35218, Note_on_c, 0, 60, 57
1, 35292, Note_on_c, 0, 57, 52
1, 35301, Note_on_c, 0, 69, 84
1, 35307, Note_off_c, 0, 60, 59
1, 35320, Note_off_c, 0, 62, 59
1, 35359, Note_on_c, 0, 50, 59
1, 35403, Note_off_c, 0, 57, 37
1, 35413, Note_on_c, 0, 62, 53
1, 35414, Note_on_c, 0, 60, 61
1, 35438, Note_off_c, 0, 60, 63
1, 35440, Note_off_c, 0, 62, 61
1, 35508, Note_on_c, 0, 62, 60
1, 35518, Note_on_c, 0, 60, 58
1, 35591, Note_off_c, 0, 60, 53
1, 35594, Note_on_c, 0, 43, 55
1, 35603, Note_off_c, 0, 62, 51
1, 35606, Note_off_c, 0, 50, 47
1, 35638, Control_c, 0, 64, 92
1, 35653, Control_c, 0, 64, 65
1, 35659, Note_on_c, 0, 72, 73
1, 35660, Note_off_c, 0, 69, 56
1, 35668, Control_c, 0, 64, 0
1, 35728, Control_c, 0, 64, 72
1, 35735, Note_off_c, 0, 43, 64
1, 35743, Control_c, 0, 64, 104
1, 35765, Control_c, 0, 64, 127
1, 35858, Note_on_c, 0, 67, 55
1, 35872, Note_on_c, 0, 62, 42
1, 35878, Note_on_c, 0, 58, 53
1, 35880, Note_on_c, 0, 50, 51
1, 35889, Note_on_c, 0, 55, 37
1, 35892, Note_off_c, 0, 72, 58
1, 35904, Note_off_c, 0, 62, 55
1, 35907, Note_off_c, 0, 58, 57
1, 35915, Note_off_c, 0, 50, 65
1, 35920, Note_off_c, 0, 55, 58
1, 35923, Note_off_c, 0, 67, 57
1, 35985, Note_on_c, 0, 58, 62
1, 35994, Note_on_c, 0, 50, 60
1, 36001, Note_on_c, 0, 70, 81
1, 36014, Note_on_c, 0, 55, 46
1, 36020, Note_off_c, 0, 58, 62
1, 36029, Note_on_c, 0, 62, 28
1, 36040, Note_off_c, 0, 50, 64
1, 36048, Note_off_c, 0, 55, 63
1, 36059, Note_off_c, 0, 70, 63
1, 36065, Note_off_c, 0, 62, 49
1, 36112, Note_on_c, 0, 58, 68
1, 36126, Note_on_c, 0, 70, 82
1, 36130, Note_on_c, 0, 50, 57
1, 36134, Note_off_c, 0, 58, 68
1, 36136, Note_on_c, 0, 55, 54
1, 36160, Note_on_c, 0, 67, 26
1, 36163, Note_off_c, 0, 50, 62
1, 36163, Note_off_c, 0, 55, 65
1, 36166, Note_on_c, 0, 62, 21
1, 36192, Note_off_c, 0, 67, 53
1, 36205, Note_off_c, 0, 62, 45
1, 36231, Note_on_c, 0, 58, 64
1, 36243, Note_on_c, 0, 67, 58
1, 36247, Note_on_c, 0, 50, 55
1, 36253, Note_on_c, 0, 55, 52
1, 36276, Note_off_c, 0, 58, 0
1, 36276, Note_off_c, 0, 67, 61
1, 36301, Poly_aftertouch_c, 0, 58, 0
1, 36315, Note_on_c, 0, 62, 75
1, 36318, Note_off_c, 0, 55, 63
1, 36327, Note_off_c, 0, 70, 63
1, 36329, Note_off_c, 0, 50, 61
1, 36342, Note_off_c, 0, 62, 66
1, 36387, Control_c, 0, 64, 109
1, 36399, Note_on_c, 0, 39, 86
1, 36402, Control_c, 0, 64, 82
1, 36417, Control_c, 0, 64, 73
1, 36425, Note_on_c, 0, 55, 87
1, 36431, Control_c, 0, 64, 77
1, 36445, Note_off_c, 0, 39, 61
1, 36446, Control_c, 0, 64, 88
1, 36454, Note_off_c, 0, 55, 63
1, 36461, Control_c, 0, 64, 109
1, 36476, Control_c, 0, 64, 127
1, 36502, Note_on_c, 0, 46, 74
1, 36515, Note_on_c, 0, 58, 67
1, 36517, Note_on_c, 0, 51, 67
1, 36527, Note_on_c, 0, 63, 68
1, 36540, Note_off_c, 0, 58, 67
1, 36551, Note_off_c, 0, 51, 65
1, 36555, Note_off_c, 0, 63, 66
1, 36571, Note_off_c, 0, 46, 57
1, 36604, Note_on_c, 0, 55, 77
1, 36612, Note_on_c, 0, 63, 78
1, 36616, Note_on_c, 0, 58, 78
1, 36626, Note_off_c, 0, 55, 71
1, 36627, Note_on_c, 0, 46, 15
1, 36638, Note_off_c, 0, 58, 66
1, 36646, Note_on_c, 0, 51, 27
1, 36656, Note_off_c, 0, 46, 48
1, 36656, Note_off_c, 0, 63, 58
1, 36681, Poly_aftertouch_c, 0, 63, 0
1, 36691, Note_on_c, 0, 67, 94
1, 36694, Note_on_c, 0, 55, 80
1, 36698, Note_on_c, 0, 63, 32
1, 36698, Note_off_c, 0, 51, 0
1, 36708, Note_on_c, 0, 46, 59
1, 36717, Note_off_c, 0, 55, 70
1, 36722, Note_on_c, 0, 51, 27
1, 36725, Note_off_c, 0, 63, 57
1, 36739, Note_off_c, 0, 46, 61
1, 36752, Note_off_c, 0, 51, 0
1, 36771, Note_on_c, 0, 55, 80
1, 36781, Note_on_c, 0, 51, 51
1, 36783, Note_on_c, 0, 58, 70
1, 36783, Note_on_c, 0, 63, 79
1, 36786, Note_on_c, 0, 46, 70
1, 36794, Note_off_c, 0, 55, 68
1, 36801, Note_off_c, 0, 58, 72
1, 36813, Note_off_c, 0, 63, 57
1, 36816, Note_off_c, 0, 67, 57
1, 36822, Note_off_c, 0, 51, 65
1, 36824, Note_off_c, 0, 46, 63
1, 36877, Note_on_c, 0, 58, 69
1, 36881, Note_on_c, 0, 63, 67
1, 36899, Note_off_c, 0, 58, 68
1, 36901, Note_on_c, 0, 36, 84
1, 36906, Note_off_c, 0, 63, 66
1, 36929, Control_c, 0, 64, 77
1, 36938, Note_off_c, 0, 36, 61
1, 36944, Control_c, 0, 64, 0
1, 36971, Note_on_c, 0, 42, 47
1, 36989, Note_on_c, 0, 51, 99
1, 36992, Note_on_c, 0, 69, 91
1, 36994, Note_on_c, 0, 55, 93
1, 36994, Note_on_c, 0, 57, 93
1, 36999, Note_on_c, 0, 63, 86
1, 37003, Note_on_c, 0, 45, 60
1, 37003, Control_c, 0, 64, 63
1, 37004, Poly_aftertouch_c, 0, 40, 0
1, 37015, Note_on_c, 0, 67, 52
1, 37017, Note_off_c, 0, 57, 62
1, 37018, Control_c, 0, 64, 127
1, 37018, Note_off_c, 0, 42, 66
1, 37021, Poly_aftertouch_c, 0, 43, 0
1, 37028, Note_off_c, 0, 51, 57
1, 37034, Note_off_c, 0, 45, 65
1, 37042, Note_off_c, 0, 55, 53
1, 37051, Note_off_c, 0, 67, 35
1, 37076, Note_off_c, 0, 63, 0
1, 37112, Note_on_c, 0, 57, 44
1, 37113, Poly_aftertouch_c, 0, 63, 127
1, 37124, Note_on_c, 0, 45, 40
1, 37126, Note_on_c, 0, 43, 47
1, 37126, Note_on_c, 0, 55, 23
1, 37130, Note_on_c, 0, 63, 2
1, 37135, Note_off_c, 0, 57, 59
1, 37152, Note_off_c, 0, 55, 50
1, 37153, Note_off_c, 0, 43, 60
1, 37155, Note_off_c, 0, 45, 59
1, 37161, Note_off_c, 0, 63, 62
1, 37192, Note_on_c, 0, 51, 43
1, 37203, Note_on_c, 0, 57, 51
1, 37209, Note_on_c, 0, 55, 75
1, 37215, Note_on_c, 0, 43, 60
1, 37215, Note_on_c, 0, 63, 66
1, 37232, Note_off_c, 0, 57, 65
1, 37233, Note_off_c, 0, 51, 60
1, 37237, Note_off_c, 0, 55, 65
1, 37244, Note_off_c, 0, 63, 64
1, 37245, Note_off_c, 0, 43, 64
1, 37285, Poly_aftertouch_c, 0, 45, 127
1, 37304, Note_on_c, 0, 51, 71
1, 37307, Note_on_c, 0, 57, 61
1, 37310, Note_on_c, 0, 55, 80
1, 37313, Note_on_c, 0, 63, 58
1, 37325, Note_off_c, 0, 51, 71
1, 37326, Note_on_c, 0, 43, 55
1, 37328, Note_off_c, 0, 55, 74
1, 37336, Note_off_c, 0, 57, 64
1, 37341, Note_off_c, 0, 63, 65
1, 37354, Note_off_c, 0, 43, 58
1, 37362, Poly_aftertouch_c, 0, 45, 0
1, 37391, Note_on_c, 0, 51, 66
1, 37407, Note_on_c, 0, 57, 59
1, 37411, Note_on_c, 0, 63, 63
1, 37412, Note_on_c, 0, 55, 54
1, 37420, Note_on_c, 0, 43, 61
1, 37424, Note_on_c, 0, 45, 43
1, 37426, Note_off_c, 0, 57, 64
1, 37429, Note_off_c, 0, 55, 67
1, 37432, Note_off_c, 0, 63, 66
1, 37438, Note_off_c, 0, 51, 61
1, 37447, Note_off_c, 0, 43, 65
1, 37456, Note_off_c, 0, 45, 59
1, 37477, Note_off_c, 0, 69, 42
1, 37483, Note_on_c, 0, 63, 81
1, 37491, Note_on_c, 0, 55, 64
1, 37497, Note_on_c, 0, 57, 54
1, 37506, Note_on_c, 0, 43, 65
1, 37513, Note_on_c, 0, 45, 58
1, 37516, Note_off_c, 0, 57, 63
1, 37521, Note_off_c, 0, 55, 64
1, 37525, Note_off_c, 0, 63, 64
1, 37534, Note_off_c, 0, 43, 65
1, 37540, Note_off_c, 0, 45, 63
1, 37545, Control_c, 0, 64, 83
1, 37560, Control_c, 0, 64, 27
1, 37575, Control_c, 0, 64, 0
1, 37579, Note_on_c, 0, 50, 83
1, 37585, Note_on_c, 0, 66, 94
1, 37589, Note_on_c, 0, 54, 107
1, 37591, Note_on_c, 0, 38, 84
1, 37594, Note_on_c, 0, 57, 65
1, 37596, Note_on_c, 0, 42, 75
1, 37597, Note_on_c, 0, 45, 79
1, 37602, Note_on_c, 0, 62, 74
1, 37605, Control_c, 0, 64, 65
1, 37619, Control_c, 0, 64, 87
1, 37632, Note_off_c, 0, 50, 59
1, 37634, Control_c, 0, 64, 127
1, 37648, Note_off_c, 0, 54, 64
1, 37648, Note_off_c, 0, 45, 59
1, 37653, Note_off_c, 0, 62, 53
1, 37663, Note_off_c, 0, 42, 59
1, 37675, Note_off_c, 0, 57, 0
1, 37694, Poly_aftertouch_c, 0, 48, 0
1, 37710, Note_on_c, 0, 50, 79
1, 37712, Poly_aftertouch_c, 0, 57, 127
1, 37714, Note_on_c, 0, 54, 55
1, 37718, Note_on_c, 0, 42, 61
1, 37722, Note_on_c, 0, 57, 14
1, 37730, Note_off_c, 0, 54, 72
1, 37733, Note_on_c, 0, 45, 51
1, 37734, Note_on_c, 0, 62, 39
1, 37738, Note_off_c, 0, 50, 69
1, 37764, Note_off_c, 0, 38, 0
1, 37767, Note_off_c, 0, 57, 0
1, 37779, Poly_aftertouch_c, 0, 57, 0
1, 37785, Note_off_c, 0, 42, 0
1, 37787, Note_on_c, 0, 54, 65
1, 37794, Note_on_c, 0, 50, 79
1, 37797, Note_on_c, 0, 57, 40
1, 37799, Note_off_c, 0, 62, 0
1, 37799, Note_off_c, 0, 45, 0
1, 37802, Poly_aftertouch_c, 0, 38, 127
1, 37809, Note_on_c, 0, 62, 49
1, 37811, Note_on_c, 0, 45, 51
1, 37814, Note_on_c, 0, 38, 3
1, 37820, Note_off_c, 0, 54, 63
1, 37821, Poly_aftertouch_c, 0, 42, 127
1, 37829, Note_off_c, 0, 50, 68
1, 37836, Note_off_c, 0, 57, 63
1, 37844, Note_off_c, 0, 45, 64
1, 37844, Note_off_c, 0, 62, 62
1, 37845, Poly_aftertouch_c, 0, 42, 0
1, 37875, Note_off_c, 0, 38, 0
1, 37889, Note_on_c, 0, 50, 83
1, 37889, Note_on_c, 0, 54, 81
1, 37894, Note_on_c, 0, 57, 57
1, 37902, Note_on_c, 0, 45, 65
1, 37906, Note_on_c, 0, 42, 61
1, 37912, Note_on_c, 0, 62, 60
1, 37912, Poly_aftertouch_c, 0, 38, 127
1, 37914, Note_off_c, 0, 54, 69
1, 37919, Note_off_c, 0, 50, 69
1, 37926, Note_off_c, 0, 57, 64
1, 37934, Poly_aftertouch_c, 0, 38, 0
1, 37937, Note_off_c, 0, 45, 65
1, 37937, Note_off_c, 0, 62, 67
1, 37939, Note_off_c, 0, 42, 61
1, 37968, Note_off_c, 0, 66, 0
1, 37989, Note_on_c, 0, 50, 81
1, 37992, Note_on_c, 0, 54, 65
1, 37997, Note_on_c, 0, 57, 65
1, 38011, Note_on_c, 0, 45, 71
1, 38012, Note_on_c, 0, 42, 68
1, 38012, Poly_aftertouch_c, 0, 66, 127
1, 38017, Note_on_c, 0, 62, 66
1, 38021, Note_off_c, 0, 54, 68
1, 38029, Note_off_c, 0, 57, 67
1, 38030, Note_off_c, 0, 50, 64
1, 38043, Note_off_c, 0, 62, 65
1, 38047, Note_off_c, 0, 45, 63
1, 38050, Poly_aftertouch_c, 0, 38, 127
1, 38053, Note_off_c, 0, 42, 57
1, 38077, Note_on_c, 0, 54, 74
1, 38085, Poly_aftertouch_c, 0, 66, 0
1, 38089, Note_on_c, 0, 50, 72
1, 38099, Note_on_c, 0, 45, 58
1, 38104, Note_on_c, 0, 57, 49
1, 38108, Poly_aftertouch_c, 0, 38, 0
1, 38108, Note_off_c, 0, 54, 63
1, 38110, Note_on_c, 0, 62, 57
1, 38115, Note_off_c, 0, 50, 68
1, 38122, Poly_aftertouch_c, 0, 66, 127
1, 38125, Note_off_c, 0, 57, 63
1, 38127, Poly_aftertouch_c, 0, 42, 0
1, 38131, Note_off_c, 0, 45, 58
1, 38134, Note_off_c, 0, 62, 64
1, 38166, Poly_aftertouch_c, 0, 66, 0
1, 38235, Control_c, 0, 64, 114
1, 38250, Control_c, 0, 64, 69
1, 38265, Control_c, 0, 64, 0
1, 38290, Note_on_c, 0, 62, 64
1, 38291, Note_on_c, 0, 55, 100
1, 38292, Note_on_c, 0, 58, 90
1, 38293, Note_on_c, 0, 43, 98
1, 38294, Note_on_c, 0, 67, 96
1, 38302, Note_on_c, 0, 31, 84
1, 38303, Note_on_c, 0, 34, 80
1, 38303, Note_on_c, 0, 38, 79
1, 38324, Note_on_c, 0, 64, 55
1, 38324, Control_c, 0, 64, 43
1, 38339, Control_c, 0, 64, 86
1, 38354, Control_c, 0, 64, 127
1, 38382, Note_off_c, 0, 55, 57
1, 38388, Note_off_c, 0, 67, 60
1, 38452, Note_off_c, 0, 58, 58
1, 38452, Note_off_c, 0, 64, 33
1, 38491, Note_off_c, 0, 34, 56
1, 38493, Note_off_c, 0, 38, 57
1, 38504, Note_on_c, 0, 55, 70
1, 38519, Note_on_c, 0, 67, 59
1, 38519, Note_off_c, 0, 62, 56
1, 38526, Note_off_c, 0, 31, 38
1, 38526, Note_off_c, 0, 43, 53
1, 38534, Note_off_c, 0, 55, 65
1, 38548, Note_off_c, 0, 67, 60
1, 38604, Note_on_c, 0, 55, 68
1, 38623, Note_on_c, 0, 67, 50
1, 38634, Note_off_c, 0, 55, 65
1, 38650, Note_off_c, 0, 67, 57
1, 38700, Note_on_c, 0, 55, 69
1, 38713, Note_on_c, 0, 67, 56
1, 38722, Note_off_c, 0, 55, 70
1, 38743, Note_off_c, 0, 67, 53
1, 38789, Note_on_c, 0, 55, 77
1, 38793, Note_on_c, 0, 67, 55
1, 38806, Control_c, 0, 64, 78
1, 38815, Note_off_c, 0, 55, 67
1, 38821, Note_off_c, 0, 67, 67
1, 38821, Control_c, 0, 64, 0
1, 38873, Note_on_c, 0, 55, 76
1, 38888, Note_on_c, 0, 67, 66
1, 38899, Note_off_c, 0, 55, 69
1, 38914, Note_off_c, 0, 67, 66
1, 38962, Note_on_c, 0, 55, 84
1, 38979, Note_on_c, 0, 67, 63
1, 38984, Control_c, 0, 64, 85
1, 38986, Note_off_c, 0, 55, 67
1, 38999, Control_c, 0, 64, 127
1, 39001, Note_off_c, 0, 67, 59
1, 39074, Note_on_c, 0, 55, 63
1, 39075, Note_on_c, 0, 67, 64
1, 39091, Note_off_c, 0, 55, 65
1, 39096, Note_off_c, 0, 67, 63
1, 39147, Note_on_c, 0, 55, 85
1, 39163, Note_on_c, 0, 67, 68
1, 39173, Note_off_c, 0, 55, 68
1, 39187, Note_off_c, 0, 67, 68
1, 39249, Note_on_c, 0, 55, 73
1, 39271, Note_off_c, 0, 55, 70
1, 39284, Note_on_c, 0, 67, 35
1, 39332, Note_on_c, 0, 55, 69
1, 39356, Note_off_c, 0, 55, 67
1, 39414, Note_off_c, 0, 67, 0
1, 39431, Note_on_c, 0, 55, 81
1, 39439, Note_on_c, 0, 67, 26
1, 39444, Control_c, 0, 64, 105
1, 39451, Note_off_c, 0, 55, 69
1, 39458, Control_c, 0, 64, 105
1, 39473, Note_off_c, 0, 67, 54
1, 39473, Control_c, 0, 64, 113
1, 39488, Control_c, 0, 64, 127
1, 39535, Note_on_c, 0, 55, 80
1, 39539, Note_on_c, 0, 43, 82
1, 39549, Note_on_c, 0, 31, 67
1, 39553, Note_on_c, 0, 67, 59
1, 39558, Note_off_c, 0, 55, 69
1, 39565, Note_off_c, 0, 43, 67
1, 39575, Note_off_c, 0, 67, 63
1, 39580, Note_off_c, 0, 31, 61
1, 39633, Note_on_c, 0, 45, 86
1, 39645, Note_on_c, 0, 55, 70
1, 39654, Note_on_c, 0, 67, 67
1, 39657, Note_off_c, 0, 45, 68
1, 39674, Note_off_c, 0, 55, 65
1, 39680, Note_off_c, 0, 67, 62
1, 39681, Note_on_c, 0, 33, 6
1, 39723, Note_on_c, 0, 46, 87
1, 39731, Note_on_c, 0, 34, 72
1, 39734, Note_on_c, 0, 55, 69
1, 39738, Note_on_c, 0, 67, 39
1, 39740, Note_off_c, 0, 33, 49
1, 39746, Note_off_c, 0, 46, 66
1, 39756, Note_off_c, 0, 34, 63
1, 39759, Note_off_c, 0, 55, 66
1, 39771, Note_off_c, 0, 67, 54
1, 39811, Note_on_c, 0, 48, 86
1, 39817, Note_on_c, 0, 55, 79
1, 39827, Note_on_c, 0, 36, 54
1, 39837, Note_off_c, 0, 48, 68
1, 39840, Note_on_c, 0, 67, 61
1, 39853, Note_off_c, 0, 55, 65
1, 39858, Note_off_c, 0, 36, 56
1, 39861, Poly_aftertouch_c, 0, 46, 127
1, 39862, Note_off_c, 0, 67, 63
1, 39886, Poly_aftertouch_c, 0, 46, 0
1, 39904, Note_on_c, 0, 50, 93
1, 39914, Note_on_c, 0, 38, 50
1, 39923, Note_on_c, 0, 55, 79
1, 39924, Note_on_c, 0, 67, 74
1, 39937, Note_off_c, 0, 50, 67
1, 39950, Note_off_c, 0, 38, 51
1, 39954, Note_off_c, 0, 55, 66
1, 39962, Note_off_c, 0, 67, 53
1, 39988, Poly_aftertouch_c, 0, 42, 127
1, 39999, Note_on_c, 0, 51, 95
1, 40001, Control_c, 0, 64, 84
1, 40007, Note_on_c, 0, 55, 87
1, 40011, Note_on_c, 0, 67, 56
1, 40015, Control_c, 0, 64, 46
1, 40016, Note_on_c, 0, 39, 63
1, 40017, Poly_aftertouch_c, 0, 42, 0
1, 40030, Control_c, 0, 64, 0
1, 40032, Note_off_c, 0, 55, 61
1, 40037, Note_off_c, 0, 51, 63
1, 40045, Note_off_c, 0, 39, 64
1, 40050, Note_off_c, 0, 67, 61
1, 40060, Control_c, 0, 64, 30
1, 40075, Control_c, 0, 64, 70
1, 40080, Note_on_c, 0, 50, 98
1, 40089, Note_on_c, 0, 38, 77
1, 40089, Control_c, 0, 64, 94
1, 40104, Control_c, 0, 64, 127
1, 40105, Note_on_c, 0, 55, 89
1, 40108, Note_on_c, 0, 67, 70
1, 40108, Note_off_c, 0, 50, 67
1, 40113, Note_off_c, 0, 38, 66
1, 40130, Note_off_c, 0, 55, 67
1, 40140, Note_off_c, 0, 67, 60
1, 40163, Control_c, 0, 64, 88
1, 40178, Control_c, 0, 64, 0
1, 40212, Note_on_c, 0, 55, 76
1, 40237, Note_off_c, 0, 55, 67
1, 40238, Note_on_c, 0, 67, 35
1, 40275, Note_off_c, 0, 67, 53
1, 40309, Note_on_c, 0, 55, 69
1, 40336, Note_on_c, 0, 67, 52
1, 40342, Note_off_c, 0, 55, 66
1, 40360, Note_off_c, 0, 67, 58
1, 40393, Control_c, 0, 64, 53
1, 40400, Note_on_c, 0, 46, 100
1, 40407, Note_on_c, 0, 55, 83
1, 40408, Control_c, 0, 64, 127
1, 40409, Note_on_c, 0, 34, 90
1, 40419, Note_off_c, 0, 46, 71
1, 40425, Note_on_c, 0, 67, 77
1, 40432, Note_off_c, 0, 34, 65
1, 40435, Note_off_c, 0, 55, 64
1, 40452, Control_c, 0, 64, 112
1, 40453, Note_off_c, 0, 67, 65
1, 40467, Control_c, 0, 64, 74
1, 40483, Control_c, 0, 64, 0
1, 40527, Note_on_c, 0, 55, 71
1, 40537, Note_on_c, 0, 67, 62
1, 40552, Note_off_c, 0, 55, 66
1, 40568, Note_off_c, 0, 67, 64
1, 40607, Note_on_c, 0, 55, 78
1, 40631, Note_on_c, 0, 67, 61
1, 40643, Note_off_c, 0, 55, 64
1, 40661, Note_off_c, 0, 67, 63
1, 40697, Note_on_c, 0, 43, 102
1, 40703, Note_on_c, 0, 31, 84
1, 40713, Note_on_c, 0, 55, 83
1, 40720, Control_c, 0, 64, 83
1, 40727, Note_on_c, 0, 67, 71
1, 40735, Note_off_c, 0, 31, 64
1, 40735, Note_off_c, 0, 43, 69
1, 40735, Control_c, 0, 64, 127
1, 40739, Note_off_c, 0, 55, 68
1, 40757, Note_off_c, 0, 67, 63
1, 40813, Note_on_c, 0, 55, 76
1, 40828, Note_on_c, 0, 67, 63
1, 40843, Note_off_c, 0, 55, 63
1, 40859, Note_off_c, 0, 67, 60
1, 40868, Control_c, 0, 64, 103
1, 40883, Control_c, 0, 64, 94
1, 40898, Control_c, 0, 64, 90
1, 40912, Control_c, 0, 64, 90
1, 40918, Note_on_c, 0, 55, 67
1, 40927, Control_c, 0, 64, 89
1, 40931, Note_on_c, 0, 67, 43
1, 40941, Note_off_c, 0, 55, 64
1, 40942, Control_c, 0, 64, 86
1, 40956, Control_c, 0, 64, 82
1, 40962, Note_off_c, 0, 67, 54
1, 40971, Control_c, 0, 64, 78
1, 40986, Control_c, 0, 64, 75
1, 41009, Control_c, 0, 64, 73
1, 41014, Note_on_c, 0, 55, 70
1, 41024, Control_c, 0, 64, 71
1, 41035, Note_on_c, 0, 67, 50
1, 41038, Control_c, 0, 64, 69
1, 41053, Note_off_c, 0, 55, 58
1, 41053, Control_c, 0, 64, 66
1, 41068, Control_c, 0, 64, 64
1, 41072, Note_off_c, 0, 67, 57
1, 41082, Control_c, 0, 64, 63
1, 41097, Control_c, 0, 64, 61
1, 41112, Control_c, 0, 64, 59
1, 41117, Note_on_c, 0, 55, 56
1, 41134, Note_on_c, 0, 67, 47
1, 41147, Note_off_c, 0, 55, 63
1, 41156, Control_c, 0, 64, 55
1, 41167, Note_off_c, 0, 67, 58
1, 41171, Control_c, 0, 64, 33
1, 41186, Control_c, 0, 64, 0
1, 41204, Note_on_c, 0, 55, 66
1, 41220, Note_on_c, 0, 67, 55
1, 41238, Note_off_c, 0, 55, 62
1, 41261, Note_off_c, 0, 67, 57
1, 41275, Control_c, 0, 64, 47
1, 41290, Control_c, 0, 64, 62
1, 41305, Control_c, 0, 64, 66
1, 41306, Note_on_c, 0, 55, 61
1, 41320, Control_c, 0, 64, 70
1, 41326, Note_on_c, 0, 67, 35
1, 41335, Control_c, 0, 64, 73
1, 41341, Note_off_c, 0, 55, 57
1, 41350, Control_c, 0, 64, 74
1, 41365, Control_c, 0, 64, 75
1, 41379, Control_c, 0, 64, 75
1, 41396, Note_off_c, 0, 67, 0
1, 41412, Note_on_c, 0, 67, 39
1, 41417, Poly_aftertouch_c, 0, 55, 127
1, 41424, Control_c, 0, 64, 74
1, 41428, Poly_aftertouch_c, 0, 55, 0
1, 41454, Control_c, 0, 64, 74
1, 41456, Note_off_c, 0, 67, 51
1, 41468, Control_c, 0, 64, 73
1, 41483, Control_c, 0, 64, 70
1, 41496, Note_on_c, 0, 55, 62
1, 41498, Control_c, 0, 64, 68
1, 41505, Note_on_c, 0, 67, 44
1, 41513, Control_c, 0, 64, 65
1, 41527, Note_off_c, 0, 55, 60
1, 41527, Control_c, 0, 64, 63
1, 41557, Control_c, 0, 64, 64
1, 41567, Note_off_c, 0, 67, 0
1, 41572, Control_c, 0, 64, 65
1, 41586, Control_c, 0, 64, 67
1, 41587, Note_on_c, 0, 55, 68
1, 41601, Control_c, 0, 64, 70
1, 41604, Poly_aftertouch_c, 0, 67, 127
1, 41616, Control_c, 0, 64, 73
1, 41617, Note_off_c, 0, 55, 63
1, 41631, Control_c, 0, 64, 75
1, 41638, Poly_aftertouch_c, 0, 67, 0
1, 41646, Control_c, 0, 64, 76
1, 41681, Note_on_c, 0, 55, 69
1, 41683, Note_on_c, 0, 67, 45
1, 41716, Note_off_c, 0, 55, 61
1, 41730, Note_off_c, 0, 67, 56
1, 41757, Control_c, 0, 64, 74
1, 41772, Control_c, 0, 64, 71
1, 41786, Control_c, 0, 64, 65
1, 41788, Note_on_c, 0, 55, 63
1, 41793, Note_on_c, 0, 67, 46
1, 41801, Control_c, 0, 64, 58
1, 41812, Note_off_c, 0, 55, 70
1, 41816, Control_c, 0, 64, 57
1, 41828, Note_off_c, 0, 67, 61
1, 41831, Control_c, 0, 64, 61
1, 41845, Note_on_c, 0, 31, 60
1, 41846, Control_c, 0, 64, 64
1, 41860, Control_c, 0, 64, 65
1, 41875, Control_c, 0, 64, 66
1, 41886, Note_on_c, 0, 55, 68
1, 41890, Control_c, 0, 64, 68
1, 41904, Control_c, 0, 64, 70
1, 41910, Note_off_c, 0, 55, 65
1, 41919, Control_c, 0, 64, 71
1, 41928, Note_on_c, 0, 67, 17
1, 41933, Note_off_c, 0, 31, 58
1, 41946, Note_on_c, 0, 33, 64
1, 41979, Note_on_c, 0, 55, 68
1, 42008, Note_off_c, 0, 55, 62
1, 42009, Control_c, 0, 64, 71
1, 42023, Control_c, 0, 67, 8
1, 42038, Control_c, 0, 64, 70
1, 42038, Control_c, 0, 67, 11
1, 42043, Note_on_c, 0, 34, 62
1, 42053, Control_c, 0, 67, 13
1, 42058, Note_off_c, 0, 33, 55
1, 42068, Control_c, 0, 67, 15
1, 42075, Note_off_c, 0, 67, 0
1, 42083, Note_on_c, 0, 55, 58
1, 42083, Control_c, 0, 64, 71
1, 42083, Control_c, 0, 67, 18
1, 42098, Control_c, 0, 67, 20
1, 42108, Note_off_c, 0, 55, 57
1, 42113, Poly_aftertouch_c, 0, 67, 127
1, 42113, Control_c, 0, 64, 71
1, 42113, Control_c, 0, 67, 22
1, 42128, Control_c, 0, 64, 72
1, 42128, Control_c, 0, 67, 24
1, 42143, Control_c, 0, 64, 72
1, 42143, Control_c, 0, 67, 25
1, 42145, Note_on_c, 0, 36, 73
1, 42147, Note_off_c, 0, 34, 63
1, 42179, Note_on_c, 0, 55, 62
1, 42179, Note_on_c, 0, 67, 4
1, 42197, Note_off_c, 0, 55, 66
1, 42202, Control_c, 0, 64, 73
1, 42216, Note_off_c, 0, 36, 60
1, 42223, Note_off_c, 0, 67, 48
1, 42232, Control_c, 0, 67, 26
1, 42241, Note_on_c, 0, 38, 76
1, 42262, Control_c, 0, 67, 25
1, 42268, Note_on_c, 0, 55, 63
1, 42276, Control_c, 0, 67, 24
1, 42291, Note_on_c, 0, 67, 36
1, 42291, Control_c, 0, 64, 72
1, 42291, Control_c, 0, 67, 24
1, 42293, Note_off_c, 0, 55, 67
1, 42295, Note_off_c, 0, 38, 63
1, 42306, Control_c, 0, 64, 71
1, 42306, Control_c, 0, 67, 19
1, 42321, Control_c, 0, 67, 16
1, 42322, Note_off_c, 0, 67, 50
1, 42324, Note_on_c, 0, 39, 80
1, 42335, Control_c, 0, 67, 16
1, 42350, Control_c, 0, 67, 15
1, 42359, Note_on_c, 0, 55, 71
1, 42365, Control_c, 0, 64, 70
1, 42380, Control_c, 0, 64, 69
1, 42380, Control_c, 0, 67, 13
1, 42383, Note_on_c, 0, 67, 54
1, 42393, Note_off_c, 0, 55, 61
1, 42395, Control_c, 0, 64, 68
1, 42395, Control_c, 0, 67, 9
1, 42396, Note_off_c, 0, 39, 62
1, 42399, Note_on_c, 0, 38, 82
1, 42409, Control_c, 0, 64, 67
1, 42409, Control_c, 0, 67, 0
1, 42412, Note_off_c, 0, 67, 56
1, 42423, Note_off_c, 0, 38, 68
1, 42424, Control_c, 0, 64, 66
1, 42439, Control_c, 0, 64, 63
1, 42454, Control_c, 0, 64, 60
1, 42469, Control_c, 0, 64, 58
1, 42471, Note_on_c, 0, 55, 61
1, 42484, Note_on_c, 0, 67, 47
1, 42504, Note_off_c, 0, 55, 66
1, 42506, Control_c, 0, 64, 59
1, 42521, Control_c, 0, 64, 59
1, 42526, Note_off_c, 0, 67, 53
1, 42565, Control_c, 0, 64, 60
1, 42579, Note_on_c, 0, 55, 62
1, 42580, Control_c, 0, 64, 59
1, 42607, Note_off_c, 0, 55, 65
1, 42609, Control_c, 0, 64, 57
1, 42612, Note_on_c, 0, 67, 23
1, 42639, Control_c, 0, 64, 58
1, 42651, Note_off_c, 0, 67, 42
1, 42669, Control_c, 0, 64, 56
1, 42684, Control_c, 0, 64, 52
1, 42688, Note_on_c, 0, 55, 58
1, 42688, Note_on_c, 0, 34, 82
1, 42699, Control_c, 0, 64, 49
1, 42709, Note_on_c, 0, 67, 39
1, 42713, Note_off_c, 0, 34, 64
1, 42714, Control_c, 0, 64, 50
1, 42715, Note_off_c, 0, 55, 66
1, 42728, Control_c, 0, 64, 51
1, 42742, Note_off_c, 0, 67, 51
1, 42743, Control_c, 0, 64, 52
1, 42758, Control_c, 0, 64, 51
1, 42773, Control_c, 0, 64, 50
1, 42788, Control_c, 0, 64, 50
1, 42790, Note_on_c, 0, 55, 62
1, 42802, Control_c, 0, 64, 51
1, 42807, Note_on_c, 0, 67, 44
1, 42819, Note_off_c, 0, 55, 63
1, 42843, Note_off_c, 0, 67, 54
1, 42847, Control_c, 0, 64, 49
1, 42861, Control_c, 0, 64, 48
1, 42878, Control_c, 0, 64, 48
1, 42893, Control_c, 0, 64, 47
1, 42904, Note_on_c, 0, 55, 45
1, 42907, Control_c, 0, 64, 46
1, 42922, Control_c, 0, 64, 45
1, 42933, Note_off_c, 0, 55, 53
1, 42937, Control_c, 0, 64, 45
1, 42937, Control_c, 0, 67, 8
1, 42951, Control_c, 0, 64, 48
1, 42951, Control_c, 0, 67, 12
1, 42953, Poly_aftertouch_c, 0, 67, 127
1, 42966, Control_c, 0, 64, 55
1, 42966, Control_c, 0, 67, 18
1, 42981, Control_c, 0, 64, 62
1, 42981, Control_c, 0, 67, 26
1, 42983, Note_on_c, 0, 31, 72
1, 42996, Control_c, 0, 64, 65
1, 42996, Control_c, 0, 67, 34
1, 42997, Note_on_c, 0, 55, 50
1, 43011, Control_c, 0, 64, 66
1, 43011, Control_c, 0, 67, 43
1, 43013, Note_off_c, 0, 31, 64
1, 43024, Note_off_c, 0, 55, 55
1, 43025, Control_c, 0, 64, 67
1, 43025, Control_c, 0, 67, 51
1, 43040, Control_c, 0, 64, 68
1, 43040, Control_c, 0, 67, 58
1, 43055, Control_c, 0, 64, 71
1, 43055, Control_c, 0, 67, 63
1, 43070, Control_c, 0, 64, 75
1, 43070, Control_c, 0, 67, 67
1, 43085, Control_c, 0, 64, 79
1, 43085, Control_c, 0, 67, 69
1, 43098, Poly_aftertouch_c, 0, 67, 0
1, 43100, Control_c, 0, 64, 84
1, 43100, Control_c, 0, 67, 73
1, 43102, Note_on_c, 0, 55, 55
1, 43114, Control_c, 0, 64, 87
1, 43114, Control_c, 0, 67, 77
1, 43120, Note_on_c, 0, 67, 13
1, 43129, Control_c, 0, 64, 89
1, 43129, Control_c, 0, 67, 78
1, 43134, Note_off_c, 0, 55, 53
1, 43144, Control_c, 0, 64, 90
1, 43144, Control_c, 0, 67, 80
1, 43159, Control_c, 0, 67, 81
1, 43174, Control_c, 0, 67, 82
1, 43189, Control_c, 0, 67, 83
1, 43193, Note_off_c, 0, 67, 0
1, 43211, Note_on_c, 0, 67, 27
1, 43217, Note_on_c, 0, 55, 46
1, 43219, Control_c, 0, 67, 84
1, 43233, Control_c, 0, 67, 85
1, 43237, Note_off_c, 0, 55, 61
1, 43248, Control_c, 0, 64, 89
1, 43248, Control_c, 0, 67, 87
1, 43268, Note_off_c, 0, 67, 43
1, 43270, Control_c, 0, 67, 92
1, 43284, Control_c, 0, 64, 89
1, 43284, Control_c, 0, 67, 95
1, 43299, Control_c, 0, 64, 88
1, 43299, Control_c, 0, 67, 97
1, 43314, Control_c, 0, 64, 87
1, 43314, Control_c, 0, 67, 99
1, 43326, Note_on_c, 0, 55, 45
1, 43329, Control_c, 0, 64, 86
1, 43329, Control_c, 0, 67, 100
1, 43330, Note_on_c, 0, 67, 22
1, 43344, Control_c, 0, 64, 84
1, 43344, Control_c, 0, 67, 101
1, 43350, Note_off_c, 0, 55, 59
1, 43359, Control_c, 0, 64, 81
1, 43374, Control_c, 0, 64, 80
1, 43389, Control_c, 0, 64, 79
1, 43398, Note_off_c, 0, 67, 0
1, 43413, Note_on_c, 0, 55, 56
1, 43413, Note_on_c, 0, 67, 35
1, 43442, Note_off_c, 0, 55, 55
1, 43448, Control_c, 0, 67, 102
1, 43457, Note_off_c, 0, 67, 58
1, 43522, Control_c, 0, 64, 80
1, 43522, Control_c, 0, 67, 101
1, 43523, Note_on_c, 0, 55, 48
1, 43535, Note_on_c, 0, 67, 15
1, 43537, Control_c, 0, 64, 81
1, 43551, Control_c, 0, 64, 82
1, 43551, Control_c, 0, 67, 101
1, 43553, Note_off_c, 0, 55, 49
1, 43566, Control_c, 0, 64, 83
1, 43566, Control_c, 0, 67, 100
1, 43581, Control_c, 0, 64, 84
1, 43581, Control_c, 0, 67, 100
1, 43583, Note_off_c, 0, 67, 0
1, 43596, Control_c, 0, 67, 99
1, 43602, Note_on_c, 0, 67, 37
1, 43604, Note_on_c, 0, 55, 53
1, 43611, Control_c, 0, 64, 84
1, 43611, Control_c, 0, 67, 99
1, 43625, Control_c, 0, 64, 85
1, 43625, Control_c, 0, 67, 98
1, 43626, Note_off_c, 0, 55, 57
1, 43640, Control_c, 0, 64, 87
1, 43640, Control_c, 0, 67, 98
1, 43652, Note_off_c, 0, 67, 53
1, 43655, Control_c, 0, 64, 88
1, 43655, Control_c, 0, 67, 97
1, 43670, Control_c, 0, 64, 89
1, 43670, Control_c, 0, 67, 96
1, 43686, Control_c, 0, 64, 89
1, 43686, Control_c, 0, 67, 96
1, 43701, Control_c, 0, 64, 91
1, 43701, Control_c, 0, 67, 95
1, 43716, Control_c, 0, 64, 94
1, 43716, Control_c, 0, 67, 95
1, 43718, Note_on_c, 0, 55, 49
1, 43721, Note_on_c, 0, 67, 23
1, 43730, Control_c, 0, 64, 97
1, 43730, Control_c, 0, 67, 94
1, 43738, Note_off_c, 0, 55, 60
1, 43745, Control_c, 0, 64, 99
1, 43745, Control_c, 0, 67, 93
1, 43760, Control_c, 0, 64, 101
1, 43760, Control_c, 0, 67, 92
1, 43774, Control_c, 0, 64, 101
1, 43774, Control_c, 0, 67, 92
1, 43789, Control_c, 0, 67, 91
1, 43794, Note_off_c, 0, 67, 0
1, 43804, Control_c, 0, 64, 102
1, 43809, Note_on_c, 0, 55, 54
1, 43809, Note_on_c, 0, 67, 37
1, 43819, Control_c, 0, 67, 90
1, 43837, Note_off_c, 0, 55, 53
1, 43848, Control_c, 0, 67, 90
1, 43852, Note_off_c, 0, 67, 51
1, 43878, Control_c, 0, 67, 89
1, 43893, Control_c, 0, 67, 89
1, 43907, Control_c, 0, 67, 88
1, 43909, Note_on_c, 0, 50, 68
1, 43919, Note_on_c, 0, 55, 53
1, 43937, Note_on_c, 0, 67, 31
1, 43937, Control_c, 0, 67, 88
1, 43938, Note_off_c, 0, 55, 63
1, 43952, Control_c, 0, 67, 87
1, 43967, Control_c, 0, 67, 86
1, 43976, Note_off_c, 0, 67, 46
1, 43982, Control_c, 0, 67, 86
1, 44032, Note_on_c, 0, 55, 46
1, 44050, Note_on_c, 0, 67, 34
1, 44055, Note_off_c, 0, 55, 57
1, 44123, Note_off_c, 0, 67, 0
1, 44137, Note_on_c, 0, 67, 38
1, 44152, Note_on_c, 0, 55, 45
1, 44190, Note_off_c, 0, 55, 59
1, 44192, Note_off_c, 0, 67, 53
1, 44208, Note_off_c, 0, 50, 61
1, 44301, Control_c, 0, 64, 101
1, 44315, Control_c, 0, 64, 98
1, 44319, Note_on_c, 0, 55, 65
1, 44330, Control_c, 0, 64, 92
1, 44345, Control_c, 0, 64, 81
1, 44360, Control_c, 0, 64, 67
1, 44374, Control_c, 0, 64, 0
1, 44449, Control_c, 0, 64, 68
1, 44449, Control_c, 0, 67, 85
1, 44463, Control_c, 0, 64, 85
1, 44479, Control_c, 0, 64, 127
1, 44479, Control_c, 0, 67, 85
1, 44523, Control_c, 0, 67, 84
1, 44531, Note_on_c, 0, 67, 32
1, 44531, Note_off_c, 0, 55, 64
1, 44538, Control_c, 0, 67, 84
1, 44553, Control_c, 0, 67, 82
1, 44566, Note_off_c, 0, 67, 50
1, 44568, Control_c, 0, 67, 77
1, 44583, Control_c, 0, 67, 73
1, 44597, Control_c, 0, 67, 71
1, 44602, Note_on_c, 0, 55, 57
1, 44611, Note_on_c, 0, 67, 49
1, 44612, Control_c, 0, 67, 69
1, 44627, Control_c, 0, 67, 67
1, 44628, Note_off_c, 0, 55, 63
1, 44642, Control_c, 0, 67, 64
1, 44645, Note_off_c, 0, 67, 59
1, 44657, Control_c, 0, 67, 61
1, 44672, Control_c, 0, 67, 58
1, 44686, Control_c, 0, 67, 56
1, 44701, Note_on_c, 0, 67, 56
1, 44701, Control_c, 0, 67, 53
1, 44716, Control_c, 0, 67, 49
1, 44718, Note_on_c, 0, 55, 41
1, 44730, Control_c, 0, 67, 42
1, 44732, Note_off_c, 0, 67, 62
1, 44736, Note_off_c, 0, 55, 63
1, 44753, Control_c, 0, 67, 37
1, 44768, Control_c, 0, 67, 32
1, 44783, Control_c, 0, 67, 30
1, 44798, Control_c, 0, 67, 29
1, 44812, Control_c, 0, 67, 29
1, 44818, Note_on_c, 0, 67, 44
1, 44827, Note_on_c, 0, 55, 25
1, 44827, Control_c, 0, 67, 28
1, 44846, Note_off_c, 0, 67, 56
1, 44858, Note_off_c, 0, 55, 48
1, 44886, Control_c, 0, 67, 28
1, 44903, Note_on_c, 0, 55, 41
1, 44924, Note_on_c, 0, 67, 41
1, 44928, Note_off_c, 0, 55, 55
1, 44951, Note_off_c, 0, 67, 56
1, 44960, Control_c, 0, 67, 27
1, 44975, Control_c, 0, 67, 26
1, 44989, Control_c, 0, 67, 23
1, 44996, Note_on_c, 0, 55, 58
1, 45004, Control_c, 0, 67, 20
1, 45015, Note_off_c, 0, 55, 64
1, 45019, Control_c, 0, 67, 12
1, 45027, Note_on_c, 0, 67, 32
1, 45034, Control_c, 0, 67, 0
1, 45073, Note_off_c, 0, 67, 0
1, 45094, Note_on_c, 0, 55, 61
1, 45096, Note_on_c, 0, 67, 24
1, 45125, Note_off_c, 0, 55, 56
1, 45159, Note_off_c, 0, 67, 0
1, 45197, Poly_aftertouch_c, 0, 67, 127
1, 45198, Note_on_c, 0, 55, 43
1, 45227, Note_off_c, 0, 55, 55
1, 45234, Poly_aftertouch_c, 0, 67, 0
1, 45293, Note_on_c, 0, 50, 77
1, 45307, Note_on_c, 0, 55, 60
1, 45311, Note_on_c, 0, 67, 33
1, 45321, Note_off_c, 0, 50, 69
1, 45326, Note_off_c, 0, 55, 63
1, 45353, Note_off_c, 0, 67, 44
1, 45402, Note_on_c, 0, 67, 48
1, 45408, Note_on_c, 0, 55, 59
1, 45430, Note_off_c, 0, 55, 63
1, 45452, Note_off_c, 0, 67, 54
1, 45510, Note_on_c, 0, 55, 66
1, 45515, Note_on_c, 0, 67, 39
1, 45565, Note_off_c, 0, 55, 55
1, 45565, Note_off_c, 0, 67, 57
1, 45620, Control_c, 0, 64, 102
1, 45634, Control_c, 0, 64, 82
1, 45647, Note_on_c, 0, 55, 79
1, 45649, Control_c, 0, 64, 68
1, 45664, Control_c, 0, 64, 56
1, 45678, Control_c, 0, 64, 62
1, 45693, Control_c, 0, 64, 71
1, 45708, Control_c, 0, 64, 85
1, 45723, Control_c, 0, 64, 115
1, 45733, Note_off_c, 0, 55, 57
1, 45738, Control_c, 0, 64, 127
1, 45779, Note_on_c, 0, 67, 62
1, 45809, Note_off_c, 0, 67, 63
1, 45872, Note_on_c, 0, 55, 50
1, 45880, Note_on_c, 0, 67, 64
1, 45899, Note_off_c, 0, 55, 65
1, 45906, Note_off_c, 0, 67, 63
1, 45976, Note_on_c, 0, 55, 67
1, 45994, Note_on_c, 0, 67, 49
1, 46003, Note_off_c, 0, 55, 65
1, 46016, Note_off_c, 0, 67, 60
1, 46074, Note_on_c, 0, 55, 64
1, 46083, Note_on_c, 0, 67, 63
1, 46119, Note_off_c, 0, 67, 55
1, 46137, Note_off_c, 0, 55, 66
1, 46154, Control_c, 0, 64, 121
1, 46168, Control_c, 0, 64, 89
1, 46183, Control_c, 0, 64, 79
1, 46198, Control_c, 0, 64, 78
1, 46208, Note_on_c, 0, 57, 72
1, 46213, Control_c, 0, 64, 84
1, 46228, Control_c, 0, 64, 99
1, 46232, Note_off_c, 0, 57, 69
1, 46250, Control_c, 0, 64, 127
1, 46316, Note_on_c, 0, 57, 75
1, 46330, Note_on_c, 0, 69, 58
1, 46331, Note_on_c, 0, 67, 65
1, 46341, Note_off_c, 0, 57, 67
1, 46356, Note_off_c, 0, 67, 67
1, 46358, Note_off_c, 0, 69, 65
1, 46414, Note_on_c, 0, 57, 78
1, 46426, Note_on_c, 0, 69, 65
1, 46430, Note_on_c, 0, 67, 66
1, 46436, Note_off_c, 0, 57, 69
1, 46454, Note_off_c, 0, 69, 63
1, 46456, Note_off_c, 0, 67, 67
1, 46492, Note_on_c, 0, 57, 79
1, 46510, Note_on_c, 0, 69, 65
1, 46515, Note_off_c, 0, 57, 67
1, 46525, Note_on_c, 0, 67, 53
1, 46535, Note_off_c, 0, 69, 62
1, 46545, Note_off_c, 0, 67, 61
1, 46598, Note_on_c, 0, 57, 73
1, 46599, Note_on_c, 0, 69, 54
1, 46617, Note_on_c, 0, 67, 65
1, 46618, Note_off_c, 0, 57, 66
1, 46641, Note_off_c, 0, 69, 61
1, 46647, Note_off_c, 0, 67, 62
1, 46651, Note_on_c, 0, 57, 91
1, 46680, Note_off_c, 0, 57, 66
1, 46709, Control_c, 0, 64, 109
1, 46724, Control_c, 0, 64, 82
1, 46739, Control_c, 0, 64, 68
1, 46754, Control_c, 0, 64, 69
1, 46757, Note_on_c, 0, 58, 93
1, 46769, Control_c, 0, 64, 75
1, 46784, Control_c, 0, 64, 86
1, 46798, Note_off_c, 0, 58, 61
1, 46799, Control_c, 0, 64, 111
1, 46814, Control_c, 0, 64, 127
1, 46832, Note_on_c, 0, 58, 71
1, 46845, Note_on_c, 0, 70, 62
1, 46847, Note_on_c, 0, 67, 63
1, 46857, Note_off_c, 0, 58, 60
1, 46876, Note_off_c, 0, 67, 65
1, 46879, Note_off_c, 0, 70, 63
1, 46938, Note_on_c, 0, 58, 83
1, 46953, Note_on_c, 0, 70, 52
1, 46956, Note_on_c, 0, 67, 60
1, 46966, Note_off_c, 0, 58, 66
1, 46980, Note_off_c, 0, 70, 59
1, 46984, Note_off_c, 0, 67, 66
1, 47032, Note_on_c, 0, 58, 79
1, 47049, Note_on_c, 0, 67, 67
1, 47052, Note_on_c, 0, 70, 55
1, 47054, Note_off_c, 0, 58, 64
1, 47074, Note_off_c, 0, 67, 65
1, 47082, Note_off_c, 0, 70, 62
1, 47130, Note_on_c, 0, 58, 79
1, 47138, Note_on_c, 0, 67, 63
1, 47149, Note_off_c, 0, 58, 72
1, 47151, Note_on_c, 0, 70, 49
1, 47164, Note_off_c, 0, 67, 65
1, 47188, Note_off_c, 0, 70, 0
1, 47191, Note_on_c, 0, 43, 83
1, 47201, Note_on_c, 0, 58, 91
1, 47207, Note_on_c, 0, 70, 44
1, 47215, Note_on_c, 0, 67, 65
1, 47237, Note_off_c, 0, 43, 62
1, 47239, Note_off_c, 0, 58, 63
1, 47252, Note_off_c, 0, 67, 63
1, 47265, Control_c, 0, 64, 95
1, 47274, Note_off_c, 0, 70, 63
1, 47279, Control_c, 0, 64, 68
1, 47294, Note_on_c, 0, 59, 96
1, 47294, Control_c, 0, 64, 0
1, 47323, Control_c, 0, 64, 61
1, 47338, Control_c, 0, 64, 88
1, 47347, Note_off_c, 0, 59, 63
1, 47353, Control_c, 0, 64, 127
1, 47389, Note_on_c, 0, 62, 73
1, 47391, Note_on_c, 0, 68, 67
1, 47391, Note_on_c, 0, 71, 75
1, 47407, Note_on_c, 0, 65, 49
1, 47416, Note_off_c, 0, 62, 65
1, 47418, Note_off_c, 0, 68, 65
1, 47431, Note_off_c, 0, 71, 59
1, 47433, Note_off_c, 0, 65, 59
1, 47481, Note_on_c, 0, 62, 74
1, 47484, Note_on_c, 0, 71, 68
1, 47499, Note_on_c, 0, 68, 66
1, 47502, Note_off_c, 0, 62, 68
1, 47508, Note_on_c, 0, 65, 54
1, 47511, Note_off_c, 0, 71, 65
1, 47520, Note_off_c, 0, 68, 69
1, 47532, Note_off_c, 0, 65, 60
1, 47569, Note_on_c, 0, 62, 75
1, 47583, Note_on_c, 0, 71, 66
1, 47586, Note_on_c, 0, 68, 70
1, 47590, Note_on_c, 0, 65, 50
1, 47599, Note_off_c, 0, 62, 64
1, 47605, Note_off_c, 0, 71, 67
1, 47612, Note_off_c, 0, 65, 66
1, 47612, Note_off_c, 0, 68, 66
1, 47659, Note_on_c, 0, 62, 77
1, 47678, Note_on_c, 0, 71, 65
1, 47685, Note_on_c, 0, 68, 63
1, 47687, Note_on_c, 0, 65, 56
1, 47687, Note_off_c, 0, 62, 64
1, 47703, Note_off_c, 0, 71, 69
1, 47708, Note_off_c, 0, 65, 64
1, 47711, Note_off_c, 0, 68, 66
1, 47722, Note_on_c, 0, 59, 86
1, 47761, Note_off_c, 0, 59, 57
1, 47769, Note_on_c, 0, 62, 66
1, 47780, Note_on_c, 0, 68, 71
1, 47792, Note_on_c, 0, 71, 56
1, 47800, Note_off_c, 0, 62, 57
1, 47813, Note_off_c, 0, 71, 65
1, 47848, Note_off_c, 0, 68, 57
1, 47851, Poly_aftertouch_c, 0, 65, 127
1, 47851, Control_c, 0, 64, 102
1, 47866, Control_c, 0, 64, 74
1, 47870, Poly_aftertouch_c, 0, 65, 0
1, 47880, Control_c, 0, 64, 0
1, 47888, Note_on_c, 0, 67, 77
1, 47888, Note_on_c, 0, 72, 93
1, 47890, Note_on_c, 0, 60, 94
1, 47891, Note_on_c, 0, 63, 81
1, 47892, Note_on_c, 0, 36, 89
1, 47910, Control_c, 0, 64, 56
1, 47925, Control_c, 0, 64, 70
1, 47940, Control_c, 0, 64, 85
1, 47950, Note_off_c, 0, 60, 58
1, 47954, Control_c, 0, 64, 127
1, 47974, Note_off_c, 0, 72, 59
1, 47974, Note_off_c, 0, 36, 41
1, 47991, Note_on_c, 0, 39, 78
1, 48004, Poly_aftertouch_c, 0, 69, 0
1, 48019, Note_on_c, 0, 60, 63
1, 48033, Note_on_c, 0, 72, 34
1, 48043, Note_off_c, 0, 60, 64
1, 48065, Note_off_c, 0, 63, 60
1, 48069, Note_off_c, 0, 67, 58
1, 48071, Note_off_c, 0, 72, 45
1, 48083, Note_on_c, 0, 41, 78
1, 48119, Note_on_c, 0, 67, 55
1, 48121, Note_on_c, 0, 60, 71
1, 48122, Note_on_c, 0, 63, 57
1, 48122, Note_on_c, 0, 72, 45
1, 48128, Note_off_c, 0, 39, 57
1, 48143, Note_off_c, 0, 60, 71
1, 48150, Note_off_c, 0, 63, 67
1, 48154, Note_off_c, 0, 67, 58
1, 48176, Note_on_c, 0, 43, 84
1, 48184, Note_off_c, 0, 72, 0
1, 48185, Note_off_c, 0, 41, 63
1, 48198, Note_on_c, 0, 60, 75
1, 48204, Note_on_c, 0, 67, 62
1, 48207, Note_on_c, 0, 63, 71
1, 48221, Poly_aftertouch_c, 0, 72, 127
1, 48226, Note_off_c, 0, 60, 62
1, 48236, Note_off_c, 0, 63, 62
1, 48256, Note_off_c, 0, 67, 55
1, 48272, Note_on_c, 0, 45, 92
1, 48273, Poly_aftertouch_c, 0, 72, 0
1, 48299, Note_on_c, 0, 60, 74
1, 48303, Note_off_c, 0, 43, 53
1, 48304, Note_on_c, 0, 67, 47
1, 48309, Note_on_c, 0, 63, 61
1, 48310, Poly_aftertouch_c, 0, 72, 127
1, 48329, Note_off_c, 0, 45, 65
1, 48331, Note_off_c, 0, 60, 63
1, 48344, Note_off_c, 0, 63, 61
1, 48355, Note_off_c, 0, 67, 53
1, 48358, Poly_aftertouch_c, 0, 72, 0
1, 48374, Note_on_c, 0, 47, 90
1, 48395, Note_on_c, 0, 60, 79
1, 48397, Note_on_c, 0, 67, 50
1, 48399, Control_c, 0, 64, 81
1, 48406, Note_on_c, 0, 63, 67
1, 48413, Poly_aftertouch_c, 0, 72, 127
1, 48413, Control_c, 0, 64, 0
1, 48426, Poly_aftertouch_c, 0, 72, 0
1, 48432, Note_off_c, 0, 60, 62
1, 48438, Note_off_c, 0, 63, 59
1, 48442, Note_off_c, 0, 47, 63
1, 48453, Note_on_c, 0, 48, 104
1, 48455, Note_off_c, 0, 67, 61
1, 48474, Control_c, 0, 64, 73
1, 48495, Control_c, 0, 64, 101
1, 48505, Note_off_c, 0, 48, 66
1, 48510, Control_c, 0, 64, 127
1, 48524, Note_on_c, 0, 60, 62
1, 48526, Note_on_c, 0, 72, 61
1, 48536, Note_on_c, 0, 67, 43
1, 48538, Note_on_c, 0, 63, 60
1, 48548, Note_off_c, 0, 60, 65
1, 48567, Note_off_c, 0, 63, 64
1, 48569, Note_off_c, 0, 67, 63
1, 48595, Note_off_c, 0, 72, 0
1, 48611, Note_on_c, 0, 60, 71
1, 48619, Note_on_c, 0, 72, 31
1, 48635, Note_on_c, 0, 63, 65
1, 48638, Note_on_c, 0, 67, 65
1, 48648, Note_off_c, 0, 60, 59
1, 48659, Note_off_c, 0, 63, 68
1, 48667, Note_off_c, 0, 67, 63
1, 48694, Note_off_c, 0, 72, 0
1, 48711, Note_on_c, 0, 60, 65
1, 48718, Control_c, 0, 64, 114
1, 48728, Note_on_c, 0, 63, 66
1, 48731, Poly_aftertouch_c, 0, 72, 127
1, 48732, Note_on_c, 0, 67, 63
1, 48733, Control_c, 0, 64, 102
1, 48748, Control_c, 0, 64, 84
1, 48751, Note_off_c, 0, 60, 56
1, 48755, Note_off_c, 0, 63, 64
1, 48759, Note_off_c, 0, 67, 63
1, 48763, Control_c, 0, 64, 71
1, 48769, Poly_aftertouch_c, 0, 72, 0
1, 48777, Control_c, 0, 64, 63
1, 48792, Control_c, 0, 64, 53
1, 48807, Control_c, 0, 64, 51
1, 48818, Note_on_c, 0, 60, 62
1, 48818, Note_on_c, 0, 72, 48
1, 48822, Control_c, 0, 64, 53
1, 48830, Note_on_c, 0, 67, 64
1, 48832, Note_on_c, 0, 63, 61
1, 48837, Control_c, 0, 64, 51
1, 48851, Control_c, 0, 64, 19
1, 48857, Note_off_c, 0, 60, 60
1, 48866, Note_off_c, 0, 63, 62
1, 48866, Control_c, 0, 64, 0
1, 48906, Note_off_c, 0, 72, 0
1, 48911, Note_off_c, 0, 67, 0
1, 48923, Note_on_c, 0, 72, 36
1, 48926, Note_on_c, 0, 67, 39
1, 48927, Note_on_c, 0, 60, 51
1, 48935, Note_on_c, 0, 63, 54
1, 48959, Note_off_c, 0, 60, 58
1, 48972, Note_off_c, 0, 63, 63
1, 48972, Note_off_c, 0, 72, 56
1, 48981, Note_off_c, 0, 67, 55
1, 48999, Control_c, 0, 64, 11
1, 49014, Control_c, 0, 64, 55
1, 49027, Note_on_c, 0, 36, 61
1, 49029, Note_on_c, 0, 72, 43
1, 49029, Note_on_c, 0, 60, 62
1, 49029, Control_c, 0, 64, 64
1, 49035, Note_on_c, 0, 67, 40
1, 49041, Note_on_c, 0, 63, 61
1, 49043, Control_c, 0, 64, 67
1, 49058, Control_c, 0, 64, 72
1, 49064, Note_off_c, 0, 60, 60
1, 49073, Control_c, 0, 64, 78
1, 49075, Note_off_c, 0, 72, 58
1, 49076, Note_off_c, 0, 63, 63
1, 49083, Note_off_c, 0, 67, 57
1, 49088, Control_c, 0, 64, 84
1, 49090, Note_off_c, 0, 36, 52
1, 49103, Control_c, 0, 64, 86
1, 49118, Control_c, 0, 64, 87
1, 49130, Note_on_c, 0, 39, 61
1, 49139, Note_on_c, 0, 60, 50
1, 49144, Note_on_c, 0, 67, 35
1, 49148, Note_on_c, 0, 63, 51
1, 49161, Note_on_c, 0, 72, 23
1, 49173, Note_off_c, 0, 60, 50
1, 49177, Control_c, 0, 64, 86
1, 49177, Control_c, 0, 67, 8
1, 49180, Note_off_c, 0, 63, 62
1, 49191, Note_off_c, 0, 67, 55
1, 49192, Control_c, 0, 64, 85
1, 49192, Control_c, 0, 67, 9
1, 49199, Note_off_c, 0, 72, 45
1, 49207, Control_c, 0, 64, 84
1, 49207, Control_c, 0, 67, 10
1, 49216, Note_off_c, 0, 39, 55
1, 49221, Control_c, 0, 64, 84
1, 49221, Control_c, 0, 67, 12
1, 49224, Note_on_c, 0, 41, 60
1, 49243, Control_c, 0, 67, 16
1, 49252, Note_on_c, 0, 60, 55
1, 49258, Control_c, 0, 67, 22
1, 49269, Note_on_c, 0, 63, 50
1, 49269, Note_on_c, 0, 67, 36
1, 49273, Note_on_c, 0, 72, 40
1, 49274, Control_c, 0, 67, 26
1, 49286, Note_off_c, 0, 60, 61
1, 49289, Control_c, 0, 67, 29
1, 49300, Note_off_c, 0, 41, 63
1, 49302, Note_off_c, 0, 63, 63
1, 49304, Control_c, 0, 67, 32
1, 49311, Note_off_c, 0, 67, 57
1, 49312, Note_on_c, 0, 43, 65
1, 49315, Note_off_c, 0, 72, 45
1, 49318, Control_c, 0, 67, 36
1, 49333, Control_c, 0, 67, 39
1, 49348, Control_c, 0, 64, 83
1, 49348, Control_c, 0, 67, 42
1, 49361, Note_off_c, 0, 43, 64
1, 49363, Control_c, 0, 64, 82
1, 49363, Control_c, 0, 67, 43
1, 49365, Note_on_c, 0, 60, 49
1, 49372, Note_on_c, 0, 72, 34
1, 49378, Note_on_c, 0, 67, 38
1, 49378, Control_c, 0, 64, 81
1, 49378, Control_c, 0, 67, 43
1, 49380, Note_on_c, 0, 63, 47
1, 49392, Control_c, 0, 64, 79
1, 49397, Note_off_c, 0, 60, 55
1, 49400, Note_on_c, 0, 45, 73
1, 49407, Control_c, 0, 64, 77
1, 49407, Control_c, 0, 67, 44
1, 49413, Note_off_c, 0, 63, 62
1, 49416, Note_off_c, 0, 67, 60
1, 49419, Note_off_c, 0, 72, 43
1, 49423, Control_c, 0, 64, 75
1, 49434, Note_off_c, 0, 45, 65
1, 49438, Control_c, 0, 64, 74
1, 49453, Control_c, 0, 64, 73
1, 49453, Control_c, 0, 67, 44
1, 49467, Control_c, 0, 64, 73
1, 49467, Control_c, 0, 67, 45
1, 49476, Note_on_c, 0, 72, 32
1, 49482, Control_c, 0, 64, 72
1, 49482, Control_c, 0, 67, 46
1, 49484, Note_on_c, 0, 60, 46
1, 49497, Note_on_c, 0, 67, 45
1, 49497, Control_c, 0, 67, 48
1, 49504, Note_on_c, 0, 63, 43
1, 49508, Note_on_c, 0, 47, 73
1, 49512, Control_c, 0, 64, 70
1, 49512, Control_c, 0, 67, 49
1, 49520, Note_off_c, 0, 60, 52
1, 49526, Note_off_c, 0, 72, 48
1, 49526, Control_c, 0, 64, 66
1, 49526, Control_c, 0, 67, 49
1, 49538, Note_off_c, 0, 67, 59
1, 49541, Note_off_c, 0, 63, 54
1, 49541, Control_c, 0, 64, 61
1, 49541, Control_c, 0, 67, 51
1, 49555, Note_off_c, 0, 47, 66
1, 49556, Control_c, 0, 64, 60
1, 49556, Control_c, 0, 67, 53
1, 49571, Control_c, 0, 64, 64
1, 49571, Control_c, 0, 67, 54
1, 49586, Control_c, 0, 64, 66
1, 49586, Control_c, 0, 67, 56
1, 49597, Note_on_c, 0, 48, 81
1, 49601, Control_c, 0, 64, 69
1, 49601, Control_c, 0, 67, 58
1, 49616, Control_c, 0, 64, 71
1, 49616, Control_c, 0, 67, 61
1, 49630, Note_on_c, 0, 60, 28
1, 49631, Control_c, 0, 64, 74
1, 49631, Control_c, 0, 67, 61
1, 49638, Note_off_c, 0, 48, 62
1, 49642, Note_on_c, 0, 72, 31
1, 49646, Control_c, 0, 64, 77
1, 49646, Control_c, 0, 67, 62
1, 49660, Control_c, 0, 64, 80
1, 49663, Note_on_c, 0, 63, 12
1, 49666, Note_off_c, 0, 60, 46
1, 49675, Control_c, 0, 64, 81
1, 49678, Note_off_c, 0, 72, 49
1, 49690, Control_c, 0, 67, 61
1, 49694, Poly_aftertouch_c, 0, 67, 0
1, 49705, Control_c, 0, 67, 61
1, 49728, Note_on_c, 0, 72, 48
1, 49731, Poly_aftertouch_c, 0, 67, 127
1, 49745, Note_on_c, 0, 60, 34
1, 49778, Poly_aftertouch_c, 0, 67, 0
1, 49788, Note_off_c, 0, 60, 45
1, 49820, Note_off_c, 0, 63, 0
1, 49833, Note_off_c, 0, 72, 29
1, 49852, Control_c, 0, 67, 60
1, 49857, Poly_aftertouch_c, 0, 63, 127
1, 49864, Poly_aftertouch_c, 0, 60, 127
1, 49867, Control_c, 0, 64, 81
1, 49882, Control_c, 0, 64, 79
1, 49892, Poly_aftertouch_c, 0, 67, 0
1, 49896, Poly_aftertouch_c, 0, 60, 0
1, 49897, Control_c, 0, 64, 75
1, 49909, Poly_aftertouch_c, 0, 63, 0
1, 49911, Control_c, 0, 64, 68
1, 49922, Note_on_c, 0, 67, 26
1, 49926, Control_c, 0, 64, 61
1, 49932, Note_on_c, 0, 72, 88
1, 49934, Note_on_c, 0, 63, 38
1, 49941, Control_c, 0, 64, 59
1, 49941, Control_c, 0, 67, 60
1, 49956, Control_c, 0, 64, 64
1, 49956, Control_c, 0, 67, 59
1, 49971, Control_c, 0, 64, 68
1, 49971, Control_c, 0, 67, 59
1, 49993, Control_c, 0, 64, 72
1, 49993, Control_c, 0, 67, 58
1, 50008, Control_c, 0, 64, 76
1, 50008, Control_c, 0, 67, 58
1, 50023, Control_c, 0, 64, 83
1, 50023, Control_c, 0, 67, 57
1, 50038, Control_c, 0, 64, 89
1, 50038, Control_c, 0, 67, 56
1, 50042, Note_off_c, 0, 63, 0
1, 50052, Control_c, 0, 64, 93
1, 50052, Control_c, 0, 67, 55
1, 50069, Control_c, 0, 64, 95
1, 50069, Control_c, 0, 67, 54
1, 50078, Note_on_c, 0, 63, 16
1, 50084, Control_c, 0, 64, 98
1, 50084, Control_c, 0, 67, 54
1, 50092, Note_on_c, 0, 60, 50
1, 50098, Control_c, 0, 64, 101
1, 50113, Control_c, 0, 64, 105
1, 50119, Note_off_c, 0, 60, 63
1, 50128, Control_c, 0, 64, 107
1, 50128, Control_c, 0, 67, 53
1, 50134, Note_off_c, 0, 63, 52
1, 50139, Note_off_c, 0, 72, 54
1, 50142, Control_c, 0, 64, 109
1, 50157, Control_c, 0, 64, 112
1, 50172, Control_c, 0, 64, 127
1, 50200, Note_on_c, 0, 63, 41
1, 50212, Note_on_c, 0, 60, 43
1, 50231, Control_c, 0, 67, 54
1, 50235, Note_off_c, 0, 60, 60
1, 50242, Note_off_c, 0, 63, 60
1, 50249, Note_on_c, 0, 65, 55
1, 50254, Note_on_c, 0, 68, 55
1, 50266, Note_off_c, 0, 67, 45
1, 50320, Note_on_c, 0, 71, 66
1, 50379, Control_c, 0, 64, 89
1, 50379, Control_c, 0, 67, 54
1, 50394, Control_c, 0, 64, 65
1, 50407, Note_on_c, 0, 74, 84
1, 50409, Control_c, 0, 64, 0
1, 50409, Control_c, 0, 67, 55
1, 50433, Note_off_c, 0, 65, 51
1, 50453, Control_c, 0, 67, 54
1, 50468, Control_c, 0, 64, 69
1, 50483, Control_c, 0, 64, 92
1, 50498, Control_c, 0, 64, 127
1, 50513, Control_c, 0, 67, 54
1, 50557, Control_c, 0, 67, 53
1, 50561, Note_off_c, 0, 74, 59
1, 50585, Note_on_c, 0, 62, 47
1, 50585, Note_on_c, 0, 65, 37
1, 50602, Control_c, 0, 67, 53
1, 50612, Note_off_c, 0, 62, 60
1, 50629, Note_off_c, 0, 71, 55
1, 50630, Note_off_c, 0, 68, 48
1, 50638, Note_off_c, 0, 65, 0
1, 50664, Note_on_c, 0, 71, 45
1, 50675, Poly_aftertouch_c, 0, 65, 127
1, 50682, Note_on_c, 0, 68, 44
1, 50684, Note_on_c, 0, 62, 44
1, 50705, Control_c, 0, 67, 52
1, 50714, Note_off_c, 0, 62, 54
1, 50717, Note_off_c, 0, 68, 60
1, 50720, Note_off_c, 0, 71, 54
1, 50749, Poly_aftertouch_c, 0, 65, 0
1, 50779, Note_on_c, 0, 71, 46
1, 50787, Poly_aftertouch_c, 0, 65, 127
1, 50791, Note_on_c, 0, 62, 48
1, 50804, Note_on_c, 0, 68, 46
1, 50817, Note_off_c, 0, 62, 57
1, 50828, Note_off_c, 0, 71, 59
1, 50831, Note_off_c, 0, 68, 56
1, 50846, Control_c, 0, 67, 51
1, 50849, Poly_aftertouch_c, 0, 65, 0
1, 50861, Control_c, 0, 67, 50
1, 50877, Control_c, 0, 67, 49
1, 50877, Note_on_c, 0, 65, 32
1, 50880, Note_on_c, 0, 71, 54
1, 50891, Control_c, 0, 67, 44
1, 50900, Note_on_c, 0, 62, 44
1, 50906, Note_on_c, 0, 68, 44
1, 50906, Control_c, 0, 67, 35
1, 50921, Control_c, 0, 67, 24
1, 50936, Control_c, 0, 67, 14
1, 50948, Note_off_c, 0, 68, 44
1, 50951, Control_c, 0, 67, 0
1, 50957, Note_off_c, 0, 65, 0
1, 50967, Note_off_c, 0, 62, 0
1, 50972, Note_on_c, 0, 65, 39
1, 50978, Note_on_c, 0, 62, 48
1, 50986, Note_on_c, 0, 68, 47
1, 51008, Note_off_c, 0, 62, 62
1, 51013, Note_off_c, 0, 68, 63
1, 51017, Note_off_c, 0, 65, 60
1, 51023, Note_off_c, 0, 71, 63
1, 51077, Note_on_c, 0, 71, 45
1, 51085, Note_on_c, 0, 65, 43
1, 51088, Note_on_c, 0, 62, 51
1, 51092, Note_on_c, 0, 68, 52
1, 51107, Note_off_c, 0, 62, 63
1, 51111, Note_off_c, 0, 68, 64
1, 51137, Note_off_c, 0, 71, 0
1, 51169, Note_off_c, 0, 65, 0
1, 51174, Poly_aftertouch_c, 0, 71, 127
1, 51178, Note_on_c, 0, 62, 55
1, 51193, Note_on_c, 0, 68, 43
1, 51206, Poly_aftertouch_c, 0, 65, 127
1, 51211, Note_on_c, 0, 59, 61
1, 51217, Poly_aftertouch_c, 0, 71, 0
1, 51220, Note_off_c, 0, 68, 56
1, 51226, Note_off_c, 0, 62, 0
1, 51226, Note_on_c, 0, 62, 34
1, 51248, Poly_aftertouch_c, 0, 65, 0
1, 51264, Note_on_c, 0, 67, 74
1, 51306, Note_off_c, 0, 59, 59
1, 51315, Note_off_c, 0, 67, 64
1, 51345, Note_off_c, 0, 62, 0
1, 51360, Note_on_c, 0, 67, 52
1, 51369, Note_on_c, 0, 62, 26
1, 51373, Note_on_c, 0, 65, 62
1, 51393, Note_off_c, 0, 67, 62
1, 51404, Note_off_c, 0, 62, 54
1, 51406, Note_off_c, 0, 65, 60
1, 51454, Note_on_c, 0, 65, 50
1, 51456, Note_on_c, 0, 62, 36
1, 51459, Note_on_c, 0, 67, 57
1, 51490, Note_off_c, 0, 65, 67
1, 51494, Note_off_c, 0, 67, 64
1, 51503, Note_off_c, 0, 62, 51
1, 51550, Control_c, 0, 64, 118
1, 51560, Note_on_c, 0, 36, 59
1, 51565, Control_c, 0, 64, 83
1, 51580, Control_c, 0, 64, 61
1, 51582, Note_on_c, 0, 75, 83
1, 51595, Control_c, 0, 64, 0
1, 51624, Note_on_c, 0, 63, 30
1, 51639, Control_c, 0, 64, 63
1, 51654, Control_c, 0, 64, 73
1, 51660, Note_off_c, 0, 63, 50
1, 51669, Control_c, 0, 64, 89
1, 51670, Note_off_c, 0, 36, 58
1, 51684, Control_c, 0, 64, 127
1, 51689, Note_on_c, 0, 39, 57
1, 51699, Note_on_c, 0, 67, 47
1, 51721, Note_off_c, 0, 75, 43
1, 51763, Note_off_c, 0, 67, 0
1, 51770, Poly_aftertouch_c, 0, 63, 127
1, 51773, Note_on_c, 0, 41, 63
1, 51796, Note_off_c, 0, 39, 58
1, 51797, Note_on_c, 0, 67, 14
1, 51815, Note_off_c, 0, 67, 56
1, 51829, Poly_aftertouch_c, 0, 63, 0
1, 51857, Note_on_c, 0, 43, 69
1, 51860, Note_off_c, 0, 41, 62
1, 51887, Note_on_c, 0, 67, 67
1, 51914, Note_off_c, 0, 67, 65
1, 51918, Note_on_c, 0, 63, 17
1, 51927, Note_off_c, 0, 43, 63
1, 51940, Note_on_c, 0, 45, 72
1, 51972, Note_off_c, 0, 63, 0
1, 51972, Note_on_c, 0, 63, 40
1, 51977, Note_off_c, 0, 45, 63
1, 51988, Note_on_c, 0, 67, 65
1, 52004, Note_off_c, 0, 63, 62
1, 52012, Note_off_c, 0, 67, 65
1, 52036, Note_on_c, 0, 47, 77
1, 52039, Control_c, 0, 64, 100
1, 52054, Control_c, 0, 64, 83
1, 52069, Control_c, 0, 64, 72
1, 52078, Note_on_c, 0, 63, 63
1, 52084, Control_c, 0, 64, 73
1, 52087, Note_on_c, 0, 67, 42
1, 52099, Note_off_c, 0, 47, 64
1, 52099, Note_off_c, 0, 63, 64
1, 52099, Control_c, 0, 64, 79
1, 52110, Note_off_c, 0, 67, 58
1, 52113, Control_c, 0, 64, 87
1, 52128, Control_c, 0, 64, 99
1, 52129, Note_on_c, 0, 48, 90
1, 52143, Control_c, 0, 64, 115
1, 52158, Note_on_c, 0, 63, 73
1, 52158, Control_c, 0, 64, 127
1, 52166, Note_off_c, 0, 48, 63
1, 52185, Note_on_c, 0, 67, 42
1, 52185, Note_off_c, 0, 63, 63
1, 52210, Note_off_c, 0, 67, 58
1, 52275, Note_on_c, 0, 63, 64
1, 52285, Note_on_c, 0, 67, 55
1, 52301, Note_off_c, 0, 63, 67
1, 52318, Note_off_c, 0, 67, 61
1, 52386, Note_on_c, 0, 63, 73
1, 52398, Note_on_c, 0, 67, 67
1, 52405, Note_on_c, 0, 72, 95
1, 52466, Poly_aftertouch_c, 0, 66, 0
1, 52489, Poly_aftertouch_c, 0, 66, 0
1, 52515, Note_off_c, 0, 72, 55
1, 52531, Note_off_c, 0, 63, 60
1, 52543, Note_off_c, 0, 67, 60
1, 52624, Note_on_c, 0, 63, 47
1, 52627, Note_on_c, 0, 65, 57
1, 52631, Note_on_c, 0, 67, 35
1, 52652, Note_off_c, 0, 63, 64
1, 52659, Note_off_c, 0, 67, 58
1, 52689, Note_on_c, 0, 68, 62
1, 52718, Note_on_c, 0, 71, 69
1, 52759, Control_c, 0, 64, 117
1, 52774, Control_c, 0, 64, 84
1, 52789, Control_c, 0, 64, 60
1, 52804, Control_c, 0, 64, 0
1, 52807, Note_on_c, 0, 74, 93
1, 52847, Note_off_c, 0, 65, 55
1, 52862, Control_c, 0, 64, 64
1, 52877, Control_c, 0, 64, 79
1, 52892, Control_c, 0, 64, 107
1, 52907, Note_off_c, 0, 74, 57
1, 52907, Control_c, 0, 64, 127
1, 52936, Note_on_c, 0, 62, 53
1, 52936, Note_on_c, 0, 65, 46
1, 52963, Note_off_c, 0, 62, 60
1, 52970, Note_off_c, 0, 65, 65
1, 52988, Note_off_c, 0, 71, 61
1, 53020, Note_off_c, 0, 68, 0
1, 53038, Note_on_c, 0, 68, 38
1, 53042, Note_on_c, 0, 71, 45
1, 53045, Note_on_c, 0, 62, 58
1, 53050, Note_on_c, 0, 65, 50
1, 53068, Note_off_c, 0, 62, 60
1, 53075, Note_off_c, 0, 65, 58
1, 53075, Note_off_c, 0, 68, 61
1, 53075, Note_off_c, 0, 71, 62
1, 53143, Note_on_c, 0, 71, 57
1, 53148, Note_on_c, 0, 62, 42
1, 53178, Note_on_c, 0, 65, 10
1, 53206, Poly_aftertouch_c, 0, 68, 127
1, 53207, Note_off_c, 0, 62, 0
1, 53217, Note_on_c, 0, 62, 52
1, 53274, Note_off_c, 0, 62, 57
1, 53318, Note_on_c, 0, 68, 31
1, 53333, Note_on_c, 0, 74, 96
1, 53365, Note_off_c, 0, 65, 54
1, 53373, Note_off_c, 0, 74, 65
1, 53432, Note_on_c, 0, 65, 52
1, 53434, Note_on_c, 0, 62, 63
1, 53461, Note_off_c, 0, 62, 64
1, 53471, Note_off_c, 0, 65, 59
1, 53480, Note_off_c, 0, 68, 53
1, 53495, Note_off_c, 0, 71, 0
1, 53519, Poly_aftertouch_c, 0, 68, 0
1, 53520, Note_on_c, 0, 62, 70
1, 53533, Note_on_c, 0, 68, 48
1, 53533, Poly_aftertouch_c, 0, 71, 127
1, 53536, Note_on_c, 0, 65, 46
1, 53556, Note_off_c, 0, 62, 59
1, 53566, Note_off_c, 0, 65, 61
1, 53581, Poly_aftertouch_c, 0, 71, 0
1, 53592, Note_off_c, 0, 68, 62
1, 53603, Note_on_c, 0, 59, 57
1, 53625, Note_on_c, 0, 62, 54
1, 53628, Note_on_c, 0, 67, 80
1, 53661, Poly_aftertouch_c, 0, 63, 0
1, 53670, Poly_aftertouch_c, 0, 60, 127
1, 53671, Note_off_c, 0, 59, 61
1, 53679, Note_off_c, 0, 67, 58
1, 53700, Note_off_c, 0, 62, 0
1, 53701, Poly_aftertouch_c, 0, 60, 0
1, 53714, Note_on_c, 0, 67, 58
1, 53717, Note_on_c, 0, 62, 46
1, 53719, Note_on_c, 0, 65, 56
1, 53753, Note_off_c, 0, 67, 61
1, 53758, Poly_aftertouch_c, 0, 64, 0
1, 53758, Note_off_c, 0, 65, 64
1, 53759, Note_off_c, 0, 62, 63
1, 53839, Note_on_c, 0, 67, 58
1, 53840, Note_on_c, 0, 65, 43
1, 53860, Note_off_c, 0, 67, 61
1, 53864, Note_off_c, 0, 65, 59
1, 53899, Poly_aftertouch_c, 0, 62, 0
1, 53915, Control_c, 0, 64, 92
1, 53926, Poly_aftertouch_c, 0, 62, 0
1, 53930, Control_c, 0, 64, 72
1, 53938, Note_on_c, 0, 36, 54
1, 53945, Control_c, 0, 64, 0
1, 53950, Note_on_c, 0, 75, 77
1, 53959, Note_on_c, 0, 63, 61
1, 53966, Note_on_c, 0, 67, 34
1, 53982, Note_off_c, 0, 63, 62
1, 53993, Note_off_c, 0, 67, 58
1, 54004, Control_c, 0, 64, 62
1, 54019, Control_c, 0, 64, 71
1, 54033, Control_c, 0, 64, 81
1, 54048, Note_on_c, 0, 63, 69
1, 54048, Control_c, 0, 64, 93
1, 54052, Note_on_c, 0, 39, 61
1, 54054, Note_off_c, 0, 36, 54
1, 54064, Control_c, 0, 64, 102
1, 54072, Note_on_c, 0, 67, 52
1, 54075, Note_off_c, 0, 75, 61
1, 54077, Note_off_c, 0, 63, 65
1, 54079, Control_c, 0, 64, 104
1, 54096, Note_off_c, 0, 67, 59
1, 54136, Note_on_c, 0, 63, 70
1, 54147, Note_on_c, 0, 41, 65
1, 54156, Note_on_c, 0, 67, 61
1, 54158, Note_off_c, 0, 39, 54
1, 54162, Note_off_c, 0, 63, 66
1, 54174, Note_off_c, 0, 67, 65
1, 54197, Control_c, 0, 64, 104
1, 54226, Note_off_c, 0, 41, 62
1, 54232, Note_on_c, 0, 67, 70
1, 54235, Note_on_c, 0, 43, 73
1, 54246, Note_on_c, 0, 63, 53
1, 54257, Note_off_c, 0, 67, 67
1, 54263, Note_off_c, 0, 63, 66
1, 54272, Control_c, 0, 64, 103
1, 54281, Note_off_c, 0, 43, 62
1, 54326, Note_on_c, 0, 45, 80
1, 54330, Note_on_c, 0, 63, 55
1, 54332, Note_on_c, 0, 67, 65
1, 54355, Note_off_c, 0, 67, 63
1, 54358, Note_off_c, 0, 45, 67
1, 54358, Note_off_c, 0, 63, 56
1, 54376, Control_c, 0, 64, 101
1, 54390, Control_c, 0, 64, 95
1, 54405, Control_c, 0, 64, 85
1, 54418, Note_on_c, 0, 67, 65
1, 54420, Control_c, 0, 64, 73
1, 54424, Note_on_c, 0, 63, 59
1, 54434, Note_on_c, 0, 47, 77
1, 54434, Control_c, 0, 64, 58
1, 54448, Note_off_c, 0, 67, 63
1, 54449, Control_c, 0, 64, 45
1, 54451, Note_off_c, 0, 63, 65
1, 54464, Control_c, 0, 64, 59
1, 54466, Note_off_c, 0, 47, 65
1, 54479, Control_c, 0, 64, 65
1, 54501, Control_c, 0, 64, 69
1, 54504, Note_on_c, 0, 48, 82
1, 54516, Control_c, 0, 64, 74
1, 54519, Note_on_c, 0, 67, 82
1, 54530, Note_off_c, 0, 48, 68
1, 54531, Control_c, 0, 64, 81
1, 54533, Note_on_c, 0, 60, 70
1, 54533, Note_on_c, 0, 63, 58
1, 54546, Control_c, 0, 64, 87
1, 54556, Note_off_c, 0, 67, 56
1, 54558, Note_off_c, 0, 60, 68
1, 54561, Control_c, 0, 64, 90
1, 54564, Note_off_c, 0, 63, 64
1, 54576, Control_c, 0, 64, 91
1, 54590, Control_c, 0, 64, 92
1, 54622, Note_on_c, 0, 60, 56
1, 54638, Note_on_c, 0, 67, 46
1, 54639, Note_off_c, 0, 60, 68
1, 54656, Note_off_c, 0, 67, 62
1, 54666, Note_on_c, 0, 63, 6
1, 54679, Control_c, 0, 67, 8
1, 54694, Control_c, 0, 64, 91
1, 54694, Control_c, 0, 67, 9
1, 54701, Note_on_c, 0, 60, 69
1, 54708, Control_c, 0, 64, 88
1, 54708, Control_c, 0, 67, 12
1, 54723, Control_c, 0, 64, 81
1, 54723, Control_c, 0, 67, 16
1, 54725, Note_off_c, 0, 60, 69
1, 54734, Note_on_c, 0, 67, 35
1, 54738, Control_c, 0, 64, 70
1, 54738, Control_c, 0, 67, 24
1, 54753, Control_c, 0, 64, 58
1, 54753, Control_c, 0, 67, 30
1, 54755, Note_off_c, 0, 63, 57
1, 54767, Note_off_c, 0, 67, 47
1, 54768, Control_c, 0, 64, 0
1, 54768, Control_c, 0, 67, 36
1, 54782, Control_c, 0, 64, 49
1, 54782, Control_c, 0, 67, 37
1, 54797, Control_c, 0, 64, 64
1, 54797, Control_c, 0, 67, 37
1, 54804, Note_on_c, 0, 60, 66
1, 54812, Note_on_c, 0, 63, 54
1, 54812, Control_c, 0, 64, 69
1, 54812, Control_c, 0, 67, 38
1, 54820, Note_on_c, 0, 66, 62
1, 54827, Control_c, 0, 64, 75
1, 54827, Control_c, 0, 67, 39
1, 54830, Note_off_c, 0, 60, 68
1, 54838, Note_off_c, 0, 63, 59
1, 54841, Control_c, 0, 64, 80
1, 54841, Control_c, 0, 67, 40
1, 54852, Note_off_c, 0, 66, 59
1, 54857, Control_c, 0, 64, 84
1, 54857, Control_c, 0, 67, 40
1, 54872, Control_c, 0, 64, 86
1, 54872, Control_c, 0, 67, 41
1, 54887, Control_c, 0, 64, 87
1, 54887, Control_c, 0, 67, 41
1, 54901, Note_on_c, 0, 60, 61
1, 54902, Control_c, 0, 64, 87
1, 54902, Control_c, 0, 67, 42
1, 54917, Control_c, 0, 64, 89
1, 54917, Control_c, 0, 67, 44
1, 54919, Note_on_c, 0, 63, 48
1, 54931, Control_c, 0, 64, 91
1, 54931, Control_c, 0, 67, 46
1, 54932, Note_off_c, 0, 60, 53
1, 54944, Note_off_c, 0, 63, 55
1, 54946, Control_c, 0, 64, 92
1, 54946, Control_c, 0, 67, 48
1, 54948, Note_on_c, 0, 66, 20
1, 54961, Control_c, 0, 64, 95
1, 54961, Control_c, 0, 67, 49
1, 54976, Control_c, 0, 64, 98
1, 54976, Control_c, 0, 67, 51
1, 54984, Note_on_c, 0, 60, 53
1, 54991, Control_c, 0, 64, 100
1, 54991, Control_c, 0, 67, 52
1, 54997, Note_on_c, 0, 63, 48
1, 55004, Note_off_c, 0, 66, 0
1, 55004, Note_on_c, 0, 66, 3
1, 55005, Control_c, 0, 64, 99
1, 55005, Control_c, 0, 67, 53
1, 55012, Note_off_c, 0, 60, 67
1, 55020, Control_c, 0, 64, 93
1, 55020, Control_c, 0, 67, 53
1, 55026, Note_off_c, 0, 63, 61
1, 55033, Note_off_c, 0, 66, 56
1, 55035, Control_c, 0, 64, 80
1, 55035, Control_c, 0, 67, 54
1, 55050, Control_c, 0, 64, 63
1, 55050, Control_c, 0, 67, 54
1, 55065, Control_c, 0, 64, 0
1, 55080, Control_c, 0, 67, 55
1, 55087, Note_on_c, 0, 29, 64
1, 55094, Note_on_c, 0, 65, 66
1, 55095, Control_c, 0, 67, 57
1, 55104, Note_on_c, 0, 60, 55
1, 55110, Control_c, 0, 67, 58
1, 55111, Note_on_c, 0, 57, 49
1, 55119, Note_on_c, 0, 63, 42
1, 55124, Control_c, 0, 64, 51
1, 55124, Control_c, 0, 67, 60
1, 55133, Note_off_c, 0, 60, 63
1, 55139, Control_c, 0, 64, 67
1, 55139, Control_c, 0, 67, 61
1, 55141, Note_off_c, 0, 29, 57
1, 55142, Note_off_c, 0, 57, 50
1, 55148, Note_off_c, 0, 63, 54
1, 55154, Control_c, 0, 64, 74
1, 55154, Control_c, 0, 67, 62
1, 55169, Control_c, 0, 64, 79
1, 55169, Control_c, 0, 67, 63
1, 55184, Control_c, 0, 64, 81
1, 55184, Control_c, 0, 67, 64
1, 55189, Note_on_c, 0, 33, 55
1, 55196, Note_off_c, 0, 65, 0
1, 55199, Control_c, 0, 67, 64
1, 55213, Control_c, 0, 67, 65
1, 55214, Note_on_c, 0, 63, 56
1, 55215, Note_on_c, 0, 57, 23
1, 55220, Note_on_c, 0, 65, 12
1, 55227, Note_on_c, 0, 60, 38
1, 55228, Control_c, 0, 67, 65
1, 55250, Control_c, 0, 67, 66
1, 55257, Note_off_c, 0, 57, 44
1, 55259, Note_off_c, 0, 63, 59
1, 55267, Note_off_c, 0, 65, 52
1, 55274, Note_off_c, 0, 60, 46
1, 55277, Note_off_c, 0, 33, 60
1, 55279, Control_c, 0, 67, 66
1, 55281, Note_on_c, 0, 34, 60
1, 55322, Note_on_c, 0, 57, 43
1, 55326, Note_on_c, 0, 60, 34
1, 55334, Note_on_c, 0, 65, 37
1, 55348, Note_off_c, 0, 57, 56
1, 55353, Note_on_c, 0, 63, 28
1, 55357, Note_off_c, 0, 34, 62
1, 55360, Note_off_c, 0, 60, 57
1, 55368, Note_off_c, 0, 65, 56
1, 55369, Control_c, 0, 67, 67
1, 55375, Note_on_c, 0, 36, 68
1, 55391, Note_off_c, 0, 63, 47
1, 55413, Control_c, 0, 64, 81
1, 55425, Note_on_c, 0, 57, 55
1, 55428, Control_c, 0, 67, 67
1, 55442, Note_off_c, 0, 36, 61
1, 55444, Note_on_c, 0, 60, 40
1, 55448, Note_off_c, 0, 57, 60
1, 55459, Note_on_c, 0, 63, 23
1, 55479, Poly_aftertouch_c, 0, 65, 127
1, 55482, Note_on_c, 0, 38, 67
1, 55487, Note_off_c, 0, 60, 43
1, 55514, Note_off_c, 0, 38, 64
1, 55517, Control_c, 0, 64, 81
1, 55517, Control_c, 0, 67, 68
1, 55533, Note_on_c, 0, 57, 52
1, 55535, Note_on_c, 0, 60, 36
1, 55541, Note_off_c, 0, 63, 0
1, 55555, Note_off_c, 0, 57, 61
1, 55561, Note_on_c, 0, 63, 20
1, 55576, Control_c, 0, 64, 79
1, 55576, Control_c, 0, 67, 68
1, 55578, Note_on_c, 0, 40, 72
1, 55582, Note_off_c, 0, 60, 55
1, 55590, Control_c, 0, 64, 73
1, 55590, Control_c, 0, 67, 69
1, 55599, Note_off_c, 0, 63, 44
1, 55601, Poly_aftertouch_c, 0, 65, 0
1, 55605, Control_c, 0, 64, 64
1, 55605, Control_c, 0, 67, 69
1, 55620, Control_c, 0, 64, 0
1, 55620, Control_c, 0, 67, 70
1, 55631, Note_off_c, 0, 40, 63
1, 55641, Note_on_c, 0, 57, 52
1, 55652, Note_on_c, 0, 60, 43
1, 55666, Note_on_c, 0, 41, 82
1, 55666, Control_c, 0, 64, 31
1, 55675, Note_on_c, 0, 65, 22
1, 55676, Note_off_c, 0, 57, 63
1, 55678, Note_on_c, 0, 63, 48
1, 55680, Control_c, 0, 64, 63
1, 55693, Note_off_c, 0, 60, 61
1, 55695, Control_c, 0, 64, 68
1, 55700, Note_off_c, 0, 41, 65
1, 55703, Note_off_c, 0, 63, 60
1, 55710, Note_off_c, 0, 65, 49
1, 55710, Control_c, 0, 64, 74
1, 55725, Control_c, 0, 64, 79
1, 55740, Control_c, 0, 64, 83
1, 55754, Control_c, 0, 64, 84
1, 55780, Note_on_c, 0, 57, 47
1, 55791, Note_on_c, 0, 60, 30
1, 55801, Note_on_c, 0, 63, 34
1, 55803, Note_on_c, 0, 65, 42
1, 55807, Note_off_c, 0, 57, 56
1, 55814, Control_c, 0, 64, 85
1, 55814, Control_c, 0, 67, 69
1, 55829, Note_off_c, 0, 60, 48
1, 55832, Note_off_c, 0, 63, 53
1, 55834, Note_off_c, 0, 65, 53
1, 55858, Control_c, 0, 67, 69
1, 55888, Control_c, 0, 67, 68
1, 55891, Note_on_c, 0, 60, 37
1, 55900, Note_on_c, 0, 57, 49
1, 55907, Note_on_c, 0, 65, 37
1, 55920, Note_on_c, 0, 63, 46
1, 55937, Note_off_c, 0, 57, 49
1, 55946, Note_off_c, 0, 65, 0
1, 55947, Note_off_c, 0, 60, 52
1, 55956, Note_off_c, 0, 63, 60
1, 55965, Note_on_c, 0, 72, 82
1, 55971, Note_on_c, 0, 65, 48
1, 55989, Note_on_c, 0, 69, 54
1, 56029, Control_c, 0, 67, 68
1, 56043, Control_c, 0, 67, 67
1, 56059, Note_off_c, 0, 69, 60
1, 56064, Note_on_c, 0, 57, 49
1, 56065, Note_on_c, 0, 60, 43
1, 56071, Note_on_c, 0, 63, 51
1, 56073, Control_c, 0, 67, 67
1, 56084, Note_off_c, 0, 72, 58
1, 56093, Note_off_c, 0, 57, 65
1, 56102, Control_c, 0, 67, 66
1, 56106, Note_off_c, 0, 63, 62
1, 56106, Note_off_c, 0, 60, 60
1, 56123, Note_off_c, 0, 65, 53
1, 56147, Control_c, 0, 67, 66
1, 56177, Control_c, 0, 67, 65
1, 56182, Note_on_c, 0, 65, 30
1, 56183, Note_on_c, 0, 57, 43
1, 56183, Note_on_c, 0, 60, 37
1, 56201, Note_on_c, 0, 64, 51
1, 56214, Note_on_c, 0, 63, 36
1, 56242, Note_on_c, 0, 67, 57
1, 56265, Note_off_c, 0, 60, 38
1, 56295, Control_c, 0, 64, 85
1, 56310, Control_c, 0, 67, 66
1, 56315, Note_off_c, 0, 65, 32
1, 56323, Note_on_c, 0, 70, 60
1, 56348, Note_off_c, 0, 57, 30
1, 56355, Control_c, 0, 64, 85
1, 56365, Note_off_c, 0, 63, 23
1, 56369, Control_c, 0, 64, 83
1, 56384, Control_c, 0, 64, 78
1, 56399, Control_c, 0, 64, 70
1, 56399, Control_c, 0, 67, 66
1, 56403, Note_on_c, 0, 73, 87
1, 56413, Control_c, 0, 64, 54
1, 56428, Control_c, 0, 64, 0
1, 56503, Control_c, 0, 64, 62
1, 56518, Control_c, 0, 64, 72
1, 56533, Control_c, 0, 64, 84
1, 56537, Note_on_c, 0, 61, 46
1, 56543, Note_on_c, 0, 55, 48
1, 56544, Note_on_c, 0, 58, 42
1, 56548, Control_c, 0, 64, 96
1, 56548, Control_c, 0, 67, 66
1, 56563, Note_off_c, 0, 61, 59
1, 56563, Control_c, 0, 64, 99
1, 56568, Note_off_c, 0, 55, 57
1, 56577, Control_c, 0, 67, 65
1, 56581, Note_off_c, 0, 64, 56
1, 56592, Control_c, 0, 67, 65
1, 56612, Note_off_c, 0, 73, 61
1, 56614, Note_off_c, 0, 58, 0
1, 56621, Note_on_c, 0, 64, 34
1, 56622, Control_c, 0, 67, 64
1, 56626, Note_on_c, 0, 58, 48
1, 56636, Control_c, 0, 67, 64
1, 56642, Note_on_c, 0, 61, 55
1, 56645, Note_on_c, 0, 55, 40
1, 56651, Control_c, 0, 67, 63
1, 56661, Note_off_c, 0, 58, 62
1, 56666, Note_off_c, 0, 61, 58
1, 56666, Control_c, 0, 67, 63
1, 56670, Note_off_c, 0, 64, 61
1, 56670, Note_off_c, 0, 67, 26
1, 56681, Control_c, 0, 64, 100
1, 56681, Control_c, 0, 67, 62
1, 56682, Note_off_c, 0, 55, 44
1, 56688, Note_off_c, 0, 70, 36
1, 56696, Control_c, 0, 64, 100
1, 56696, Control_c, 0, 67, 62
1, 56710, Control_c, 0, 64, 101
1, 56710, Control_c, 0, 67, 61
1, 56733, Control_c, 0, 64, 102
1, 56733, Control_c, 0, 67, 60
1, 56736, Note_on_c, 0, 55, 41
1, 56737, Note_on_c, 0, 58, 56
1, 56740, Note_on_c, 0, 64, 56
1, 56746, Note_on_c, 0, 61, 61
1, 56748, Control_c, 0, 64, 104
1, 56748, Control_c, 0, 67, 59
1, 56761, Note_off_c, 0, 58, 63
1, 56763, Control_c, 0, 64, 105
1, 56763, Control_c, 0, 67, 57
1, 56764, Note_off_c, 0, 55, 49
1, 56771, Note_off_c, 0, 61, 62
1, 56778, Control_c, 0, 64, 107
1, 56778, Control_c, 0, 67, 53
1, 56782, Note_off_c, 0, 64, 58
1, 56792, Control_c, 0, 64, 111
1, 56792, Control_c, 0, 67, 41
1, 56807, Control_c, 0, 64, 118
1, 56807, Control_c, 0, 67, 21
1, 56822, Control_c, 0, 64, 127
1, 56822, Control_c, 0, 67, 0
1, 56831, Note_on_c, 0, 64, 48
1, 56834, Note_on_c, 0, 55, 63
1, 56841, Note_on_c, 0, 58, 57
1, 56850, Note_on_c, 0, 61, 56
1, 56856, Note_off_c, 0, 55, 64
1, 56870, Note_off_c, 0, 58, 62
1, 56880, Note_off_c, 0, 61, 56
1, 56937, Note_on_c, 0, 55, 63
1, 56937, Note_off_c, 0, 64, 0
1, 56937, Note_on_c, 0, 64, 22
1, 56950, Note_on_c, 0, 61, 49
1, 56958, Note_on_c, 0, 58, 29
1, 56961, Note_off_c, 0, 55, 65
1, 56977, Note_off_c, 0, 61, 55
1, 56990, Note_off_c, 0, 58, 54
1, 57015, Note_off_c, 0, 64, 0
1, 57031, Note_on_c, 0, 64, 45
1, 57035, Note_on_c, 0, 61, 60
1, 57038, Note_on_c, 0, 55, 62
1, 57055, Note_on_c, 0, 58, 44
1, 57069, Note_off_c, 0, 55, 64
1, 57082, Note_off_c, 0, 58, 59
1, 57160, Note_on_c, 0, 55, 52
1, 57175, Note_on_c, 0, 67, 61
1, 57181, Note_on_c, 0, 58, 47
1, 57193, Note_off_c, 0, 55, 65
1, 57210, Note_off_c, 0, 58, 61
1, 57247, Note_on_c, 0, 70, 84
1, 57286, Note_off_c, 0, 70, 57
1, 57301, Note_off_c, 0, 67, 59
1, 57322, Note_on_c, 0, 58, 47
1, 57323, Note_off_c, 0, 64, 0
1, 57323, Note_on_c, 0, 64, 5
1, 57345, Note_on_c, 0, 55, 22
1, 57364, Note_off_c, 0, 58, 58
1, 57372, Note_off_c, 0, 61, 60
1, 57378, Note_off_c, 0, 64, 59
1, 57382, Note_off_c, 0, 55, 41
1, 57446, Note_on_c, 0, 61, 44
1, 57447, Note_on_c, 0, 64, 60
1, 57467, Note_on_c, 0, 58, 40
1, 57484, Note_off_c, 0, 61, 60
1, 57486, Note_off_c, 0, 64, 66
1, 57512, Note_off_c, 0, 58, 50
1, 57571, Control_c, 0, 64, 112
1, 57577, Note_on_c, 0, 29, 59
1, 57586, Control_c, 0, 64, 89
1, 57587, Note_on_c, 0, 41, 53
1, 57601, Control_c, 0, 64, 74
1, 57601, Control_c, 0, 67, 8
1, 57605, Note_on_c, 0, 69, 77
1, 57615, Control_c, 0, 64, 56
1, 57615, Control_c, 0, 67, 8
1, 57630, Control_c, 0, 64, 0
1, 57645, Note_off_c, 0, 29, 63
1, 57674, Control_c, 0, 64, 61
1, 57674, Control_c, 0, 67, 8
1, 57680, Note_off_c, 0, 41, 63
1, 57689, Control_c, 0, 64, 68
1, 57689, Control_c, 0, 67, 0
1, 57704, Control_c, 0, 64, 74
1, 57719, Control_c, 0, 64, 80
1, 57733, Control_c, 0, 64, 84
1, 57748, Control_c, 0, 64, 86
1, 57763, Note_on_c, 0, 45, 68
1, 57763, Control_c, 0, 64, 87
1, 57766, Note_on_c, 0, 60, 46
1, 57778, Control_c, 0, 64, 87
1, 57792, Note_off_c, 0, 60, 58
1, 57822, Control_c, 0, 64, 87
1, 57837, Control_c, 0, 64, 84
1, 57849, Note_on_c, 0, 46, 70
1, 57850, Poly_aftertouch_c, 0, 57, 127
1, 57852, Control_c, 0, 64, 78
1, 57853, Note_on_c, 0, 60, 55
1, 57861, Note_off_c, 0, 45, 59
1, 57867, Control_c, 0, 64, 69
1, 57882, Control_c, 0, 64, 62
1, 57912, Control_c, 0, 64, 65
1, 57914, Poly_aftertouch_c, 0, 57, 0
1, 57920, Note_on_c, 0, 65, 74
1, 57926, Control_c, 0, 64, 68
1, 57933, Note_on_c, 0, 48, 67
1, 57933, Note_off_c, 0, 46, 64
1, 57935, Note_off_c, 0, 60, 63
1, 57941, Control_c, 0, 64, 72
1, 57948, Note_off_c, 0, 69, 52
1, 57956, Control_c, 0, 64, 78
1, 57971, Control_c, 0, 64, 86
1, 57985, Control_c, 0, 64, 91
1, 58000, Control_c, 0, 64, 92
1, 58004, Note_off_c, 0, 48, 63
1, 58018, Note_on_c, 0, 57, 51
1, 58019, Note_on_c, 0, 60, 53
1, 58023, Note_on_c, 0, 50, 73
1, 58026, Note_off_c, 0, 65, 62
1, 58046, Note_off_c, 0, 60, 63
1, 58060, Note_off_c, 0, 50, 66
1, 58067, Note_off_c, 0, 57, 58
1, 58105, Control_c, 0, 64, 90
1, 58107, Note_on_c, 0, 52, 77
1, 58120, Control_c, 0, 64, 84
1, 58120, Note_on_c, 0, 60, 66
1, 58133, Note_on_c, 0, 57, 53
1, 58135, Control_c, 0, 64, 74
1, 58135, Control_c, 0, 67, 8
1, 58150, Control_c, 0, 64, 63
1, 58162, Note_off_c, 0, 57, 64
1, 58164, Control_c, 0, 64, 56
1, 58173, Note_off_c, 0, 52, 62
1, 58173, Note_off_c, 0, 60, 63
1, 58179, Control_c, 0, 64, 63
1, 58179, Control_c, 0, 67, 0
1, 58194, Control_c, 0, 64, 68
1, 58206, Note_on_c, 0, 53, 83
1, 58209, Control_c, 0, 64, 74
1, 58224, Control_c, 0, 64, 80
1, 58239, Note_on_c, 0, 60, 49
1, 58241, Note_on_c, 0, 57, 58
1, 58245, Control_c, 0, 64, 87
1, 58251, Note_off_c, 0, 53, 65
1, 58260, Control_c, 0, 64, 93
1, 58269, Note_off_c, 0, 57, 56
1, 58275, Control_c, 0, 64, 94
1, 58307, Note_off_c, 0, 60, 0
1, 58320, Control_c, 0, 64, 95
1, 58327, Note_on_c, 0, 57, 61
1, 58334, Note_on_c, 0, 60, 19
1, 58335, Control_c, 0, 64, 97
1, 58350, Control_c, 0, 64, 101
1, 58357, Note_off_c, 0, 57, 62
1, 58364, Control_c, 0, 64, 104
1, 58379, Control_c, 0, 64, 105
1, 58415, Note_on_c, 0, 57, 54
1, 58423, Control_c, 0, 64, 103
1, 58423, Control_c, 0, 67, 8
1, 58432, Note_off_c, 0, 60, 0
1, 58432, Note_on_c, 0, 60, 10
1, 58438, Control_c, 0, 64, 96
1, 58453, Control_c, 0, 64, 89
1, 58455, Note_off_c, 0, 57, 62
1, 58468, Control_c, 0, 64, 84
1, 58469, Note_on_c, 0, 72, 84
1, 58474, Note_off_c, 0, 60, 58
1, 58479, Note_on_c, 0, 65, 67
1, 58482, Note_on_c, 0, 69, 64
1, 58482, Control_c, 0, 64, 84
1, 58497, Control_c, 0, 64, 84
1, 58512, Control_c, 0, 64, 86
1, 58512, Control_c, 0, 67, 8
1, 58527, Control_c, 0, 64, 88
1, 58542, Control_c, 0, 64, 92
1, 58554, Note_on_c, 0, 57, 52
1, 58556, Control_c, 0, 64, 96
1, 58564, Note_on_c, 0, 60, 64
1, 58571, Control_c, 0, 64, 99
1, 58578, Note_off_c, 0, 69, 59
1, 58584, Note_off_c, 0, 57, 66
1, 58586, Control_c, 0, 64, 101
1, 58589, Note_off_c, 0, 65, 57
1, 58593, Note_off_c, 0, 60, 66
1, 58604, Note_off_c, 0, 72, 61
1, 58615, Control_c, 0, 64, 102
1, 58674, Note_on_c, 0, 60, 56
1, 58683, Note_on_c, 0, 57, 42
1, 58697, Note_on_c, 0, 64, 51
1, 58699, Note_on_c, 0, 68, 47
1, 58712, Note_off_c, 0, 60, 58
1, 58719, Control_c, 0, 67, 9
1, 58726, Note_off_c, 0, 57, 60
1, 58749, Control_c, 0, 67, 9
1, 58761, Note_on_c, 0, 67, 51
1, 58764, Note_off_c, 0, 68, 54
1, 58823, Control_c, 0, 67, 10
1, 58828, Note_on_c, 0, 70, 66
1, 58838, Control_c, 0, 67, 10
1, 58854, Control_c, 0, 67, 11
1, 58869, Control_c, 0, 64, 101
1, 58883, Control_c, 0, 64, 98
1, 58883, Control_c, 0, 67, 11
1, 58898, Control_c, 0, 64, 93
1, 58898, Control_c, 0, 67, 12
1, 58904, Note_on_c, 0, 73, 79
1, 58913, Control_c, 0, 64, 84
1, 58913, Control_c, 0, 67, 13
1, 58928, Control_c, 0, 64, 73
1, 58928, Control_c, 0, 67, 13
1, 58943, Control_c, 0, 64, 45
1, 58943, Control_c, 0, 67, 14
1, 58958, Control_c, 0, 64, 0
1, 58994, Control_c, 0, 67, 14
1, 59038, Control_c, 0, 64, 66
1, 59044, Note_on_c, 0, 55, 40
1, 59048, Note_on_c, 0, 61, 38
1, 59053, Control_c, 0, 64, 76
1, 59059, Note_on_c, 0, 58, 26
1, 59068, Control_c, 0, 64, 89
1, 59072, Note_off_c, 0, 55, 51
1, 59082, Note_off_c, 0, 61, 49
1, 59083, Control_c, 0, 64, 99
1, 59083, Control_c, 0, 67, 14
1, 59087, Note_off_c, 0, 58, 0
1, 59098, Control_c, 0, 64, 100
1, 59113, Control_c, 0, 67, 13
1, 59124, Poly_aftertouch_c, 0, 58, 127
1, 59126, Note_on_c, 0, 58, 30
1, 59137, Note_off_c, 0, 73, 61
1, 59143, Control_c, 0, 67, 13
1, 59149, Note_on_c, 0, 61, 52
1, 59152, Note_on_c, 0, 55, 41
1, 59173, Note_off_c, 0, 61, 59
1, 59173, Control_c, 0, 67, 12
1, 59179, Note_off_c, 0, 55, 55
1, 59197, Note_off_c, 0, 70, 52
1, 59208, Note_off_c, 0, 58, 0
1, 59217, Note_off_c, 0, 64, 0
1, 59217, Note_on_c, 0, 64, 29
1, 59223, Note_off_c, 0, 67, 35
1, 59223, Note_on_c, 0, 58, 44
1, 59228, Note_on_c, 0, 55, 56
1, 59253, Note_on_c, 0, 61, 45
1, 59253, Note_off_c, 0, 55, 64
1, 59265, Note_off_c, 0, 58, 59
1, 59287, Note_off_c, 0, 61, 53
1, 59296, Note_off_c, 0, 64, 0
1, 59319, Note_on_c, 0, 64, 36
1, 59321, Control_c, 0, 67, 12
1, 59333, Note_on_c, 0, 55, 59
1, 59337, Note_on_c, 0, 58, 43
1, 59346, Note_on_c, 0, 61, 45
1, 59353, Note_off_c, 0, 55, 63
1, 59362, Note_off_c, 0, 58, 58
1, 59375, Note_off_c, 0, 61, 53
1, 59392, Note_off_c, 0, 64, 0
1, 59395, Control_c, 0, 67, 11
1, 59417, Note_on_c, 0, 64, 36
1, 59424, Control_c, 0, 67, 11
1, 59429, Note_on_c, 0, 61, 60
1, 59439, Control_c, 0, 64, 99
1, 59442, Note_on_c, 0, 58, 46
1, 59454, Control_c, 0, 64, 99
1, 59454, Control_c, 0, 67, 10
1, 59456, Note_on_c, 0, 55, 21
1, 59460, Note_off_c, 0, 61, 61
1, 59468, Note_off_c, 0, 58, 58
1, 59469, Control_c, 0, 64, 98
1, 59469, Control_c, 0, 67, 10
1, 59484, Control_c, 0, 64, 98
1, 59484, Control_c, 0, 67, 9
1, 59492, Note_off_c, 0, 55, 44
1, 59498, Control_c, 0, 64, 97
1, 59513, Control_c, 0, 67, 9
1, 59527, Note_on_c, 0, 55, 47
1, 59527, Note_on_c, 0, 61, 71
1, 59527, Note_off_c, 0, 64, 0
1, 59527, Note_on_c, 0, 64, 16
1, 59528, Control_c, 0, 67, 8
1, 59542, Note_on_c, 0, 58, 55
1, 59543, Control_c, 0, 67, 0
1, 59567, Note_off_c, 0, 58, 62
1, 59572, Note_off_c, 0, 55, 62
1, 59609, Note_on_c, 0, 67, 58
1, 59652, Note_on_c, 0, 58, 55
1, 59660, Note_on_c, 0, 55, 53
1, 59677, Control_c, 0, 64, 98
1, 59697, Note_off_c, 0, 55, 61
1, 59712, Note_off_c, 0, 58, 58
1, 59727, Note_on_c, 0, 72, 78
1, 59781, Note_off_c, 0, 72, 63
1, 59821, Note_on_c, 0, 55, 47
1, 59848, Control_c, 0, 64, 98
1, 59867, Note_off_c, 0, 55, 58
1, 59870, Note_on_c, 0, 58, 30
1, 59909, Note_off_c, 0, 58, 51
1, 59921, Note_on_c, 0, 70, 71
1, 59946, Note_off_c, 0, 70, 66
1, 59968, Note_off_c, 0, 67, 23
1, 59977, Note_off_c, 0, 64, 0
1, 59989, Note_on_c, 0, 64, 47
1, 60031, Note_on_c, 0, 58, 19
1, 60034, Note_off_c, 0, 61, 61
1, 60061, Note_off_c, 0, 64, 64
1, 60074, Note_off_c, 0, 58, 54
1, 60110, Note_on_c, 0, 57, 59
1, 60142, Control_c, 0, 67, 9
1, 60157, Control_c, 0, 64, 98
1, 60157, Control_c, 0, 67, 11
1, 60171, Control_c, 0, 64, 97
1, 60171, Control_c, 0, 67, 14
1, 60174, Note_off_c, 0, 57, 55
1, 60186, Control_c, 0, 67, 17
1, 60199, Note_on_c, 0, 65, 54
1, 60201, Control_c, 0, 64, 97
1, 60201, Control_c, 0, 67, 19
1, 60216, Control_c, 0, 64, 96
1, 60216, Control_c, 0, 67, 21
1, 60231, Control_c, 0, 67, 23
1, 60246, Control_c, 0, 64, 96
1, 60246, Control_c, 0, 67, 25
1, 60261, Control_c, 0, 67, 29
1, 60275, Control_c, 0, 67, 33
1, 60282, Note_on_c, 0, 29, 52
1, 60290, Control_c, 0, 64, 95
1, 60290, Control_c, 0, 67, 36
1, 60305, Control_c, 0, 64, 94
1, 60305, Control_c, 0, 67, 39
1, 60320, Control_c, 0, 64, 90
1, 60320, Control_c, 0, 67, 41
1, 60335, Control_c, 0, 64, 80
1, 60335, Control_c, 0, 67, 43
1, 60350, Control_c, 0, 64, 69
1, 60350, Control_c, 0, 67, 44
1, 60365, Control_c, 0, 64, 37
1, 60365, Control_c, 0, 67, 46
1, 60379, Control_c, 0, 64, 0
1, 60379, Control_c, 0, 67, 48
1, 60392, Note_off_c, 0, 65, 64
1, 60394, Control_c, 0, 67, 51
1, 60395, Note_on_c, 0, 72, 72
1, 60409, Control_c, 0, 67, 54
1, 60424, Control_c, 0, 67, 57
1, 60439, Control_c, 0, 64, 50
1, 60439, Control_c, 0, 67, 58
1, 60454, Control_c, 0, 64, 65
1, 60454, Control_c, 0, 67, 59
1, 60476, Control_c, 0, 64, 70
1, 60476, Control_c, 0, 67, 60
1, 60486, Note_off_c, 0, 72, 61
1, 60491, Control_c, 0, 64, 75
1, 60491, Control_c, 0, 67, 61
1, 60506, Control_c, 0, 64, 79
1, 60506, Control_c, 0, 67, 62
1, 60521, Control_c, 0, 64, 81
1, 60521, Control_c, 0, 67, 62
1, 60536, Control_c, 0, 64, 83
1, 60536, Control_c, 0, 67, 64
1, 60550, Control_c, 0, 64, 84
1, 60550, Control_c, 0, 67, 66
1, 60565, Control_c, 0, 64, 85
1, 60565, Control_c, 0, 67, 68
1, 60580, Control_c, 0, 67, 70
1, 60595, Control_c, 0, 67, 71
1, 60624, Control_c, 0, 67, 72
1, 60630, Note_on_c, 0, 33, 50
1, 60638, Note_on_c, 0, 53, 48
1, 60639, Control_c, 0, 67, 73
1, 60654, Control_c, 0, 67, 75
1, 60658, Note_on_c, 0, 65, 20
1, 60664, Note_off_c, 0, 29, 40
1, 60666, Note_off_c, 0, 53, 58
1, 60669, Control_c, 0, 67, 77
1, 60684, Control_c, 0, 67, 80
1, 60699, Control_c, 0, 67, 82
1, 60714, Control_c, 0, 67, 83
1, 60719, Note_off_c, 0, 65, 0
1, 60729, Control_c, 0, 67, 84
1, 60729, Note_off_c, 0, 33, 58
1, 60731, Note_on_c, 0, 34, 59
1, 60735, Note_on_c, 0, 65, 35
1, 60743, Control_c, 0, 67, 85
1, 60749, Note_on_c, 0, 53, 37
1, 60758, Control_c, 0, 67, 85
1, 60763, Note_off_c, 0, 65, 57
1, 60773, Control_c, 0, 67, 86
1, 60778, Note_off_c, 0, 53, 57
1, 60788, Control_c, 0, 67, 86
1, 60802, Control_c, 0, 67, 87
1, 60821, Note_on_c, 0, 36, 58
1, 60824, Note_off_c, 0, 34, 61
1, 60832, Control_c, 0, 67, 87
1, 60834, Note_on_c, 0, 65, 61
1, 60844, Note_on_c, 0, 53, 32
1, 60847, Control_c, 0, 67, 88
1, 60857, Note_off_c, 0, 65, 62
1, 60875, Note_off_c, 0, 53, 56
1, 60885, Note_off_c, 0, 36, 60
1, 60906, Control_c, 0, 67, 88
1, 60915, Note_on_c, 0, 38, 58
1, 60928, Note_on_c, 0, 53, 46
1, 60935, Note_on_c, 0, 65, 55
1, 60946, Note_off_c, 0, 38, 63
1, 60950, Control_c, 0, 67, 89
1, 60953, Note_off_c, 0, 65, 65
1, 60961, Note_off_c, 0, 53, 54
1, 60965, Control_c, 0, 64, 84
1, 60980, Control_c, 0, 64, 84
1, 60995, Control_c, 0, 64, 81
1, 60995, Control_c, 0, 67, 89
1, 60999, Note_on_c, 0, 40, 68
1, 61009, Control_c, 0, 64, 74
1, 61009, Control_c, 0, 67, 90
1, 61021, Note_on_c, 0, 65, 60
1, 61024, Control_c, 0, 64, 65
1, 61039, Control_c, 0, 64, 0
1, 61047, Note_off_c, 0, 40, 63
1, 61051, Note_off_c, 0, 65, 64
1, 61054, Note_on_c, 0, 53, 35
1, 61077, Note_on_c, 0, 41, 72
1, 61078, Note_off_c, 0, 53, 61
1, 61113, Control_c, 0, 64, 50
1, 61128, Control_c, 0, 64, 62
1, 61134, Note_on_c, 0, 53, 44
1, 61137, Note_on_c, 0, 65, 52
1, 61143, Control_c, 0, 64, 65
1, 61158, Control_c, 0, 64, 69
1, 61161, Note_off_c, 0, 65, 57
1, 61162, Note_off_c, 0, 53, 55
1, 61173, Control_c, 0, 64, 72
1, 61173, Control_c, 0, 67, 89
1, 61188, Control_c, 0, 64, 75
1, 61188, Control_c, 0, 67, 89
1, 61202, Control_c, 0, 64, 76
1, 61202, Control_c, 0, 67, 88
1, 61224, Control_c, 0, 64, 77
1, 61234, Note_on_c, 0, 53, 51
1, 61239, Control_c, 0, 67, 88
1, 61245, Note_on_c, 0, 65, 45
1, 61255, Control_c, 0, 67, 87
1, 61262, Note_off_c, 0, 53, 59
1, 61270, Control_c, 0, 64, 77
1, 61270, Control_c, 0, 67, 87
1, 61275, Note_off_c, 0, 65, 54
1, 61285, Control_c, 0, 67, 86
1, 61299, Control_c, 0, 67, 86
1, 61314, Control_c, 0, 67, 85
1, 61329, Control_c, 0, 67, 85
1, 61333, Note_on_c, 0, 53, 63
1, 61340, Note_on_c, 0, 65, 54
1, 61354, Note_off_c, 0, 53, 64
1, 61359, Control_c, 0, 67, 84
1, 61367, Note_off_c, 0, 65, 60
1, 61388, Control_c, 0, 67, 84
1, 61418, Note_on_c, 0, 53, 69
1, 61432, Control_c, 0, 67, 83
1, 61443, Note_on_c, 0, 65, 49
1, 61446, Note_off_c, 0, 53, 67
1, 61462, Control_c, 0, 67, 83
1, 61467, Note_off_c, 0, 65, 59
1, 61517, Note_on_c, 0, 53, 62
1, 61522, Control_c, 0, 64, 76
1, 61536, Control_c, 0, 64, 75
1, 61539, Note_on_c, 0, 65, 41
1, 61545, Note_off_c, 0, 53, 64
1, 61551, Control_c, 0, 64, 72
1, 61566, Control_c, 0, 64, 70
1, 61566, Control_c, 0, 67, 82
1, 61572, Note_off_c, 0, 65, 50
1, 61581, Control_c, 0, 64, 70
1, 61596, Control_c, 0, 64, 70
1, 61611, Control_c, 0, 64, 71
1, 61614, Note_on_c, 0, 53, 60
1, 61625, Control_c, 0, 64, 73
1, 61626, Note_on_c, 0, 65, 42
1, 61640, Control_c, 0, 64, 77
1, 61640, Control_c, 0, 67, 82
1, 61647, Note_off_c, 0, 53, 62
1, 61655, Control_c, 0, 64, 81
1, 61657, Note_off_c, 0, 65, 54
1, 61670, Control_c, 0, 64, 84
1, 61685, Control_c, 0, 64, 85
1, 61685, Control_c, 0, 67, 81
1, 61690, Note_off_c, 0, 41, 39
1, 61699, Control_c, 0, 67, 81
1, 61712, Note_on_c, 0, 53, 58
1, 61714, Control_c, 0, 64, 84
1, 61714, Control_c, 0, 67, 80
1, 61724, Note_on_c, 0, 65, 41
1, 61729, Control_c, 0, 67, 80
1, 61741, Note_off_c, 0, 53, 57
1, 61744, Control_c, 0, 67, 79
1, 61754, Note_off_c, 0, 65, 58
1, 61759, Control_c, 0, 67, 79
1, 61788, Control_c, 0, 67, 78
1, 61803, Control_c, 0, 67, 77
1, 61817, Control_c, 0, 67, 77
1, 61818, Note_on_c, 0, 53, 49
1, 61832, Control_c, 0, 67, 75
1, 61845, Note_on_c, 0, 65, 25
1, 61846, Note_off_c, 0, 53, 59
1, 61847, Control_c, 0, 67, 72
1, 61862, Control_c, 0, 67, 69
1, 61877, Control_c, 0, 67, 64
1, 61892, Control_c, 0, 67, 58
1, 61900, Note_off_c, 0, 65, 0
1, 61906, Control_c, 0, 67, 50
1, 61920, Note_on_c, 0, 65, 28
1, 61921, Control_c, 0, 67, 41
1, 61924, Note_on_c, 0, 53, 47
1, 61936, Control_c, 0, 67, 33
1, 61951, Control_c, 0, 67, 27
1, 61960, Note_off_c, 0, 53, 52
1, 61966, Control_c, 0, 67, 23
1, 61967, Note_off_c, 0, 65, 46
1, 61988, Control_c, 0, 67, 19
1, 62003, Control_c, 0, 67, 15
1, 62018, Control_c, 0, 67, 12
1, 62032, Control_c, 0, 67, 8
1, 62033, Note_on_c, 0, 53, 43
1, 62034, Note_on_c, 0, 65, 33
1, 62048, Control_c, 0, 67, 0
1, 62071, Note_off_c, 0, 53, 51
1, 62073, Note_off_c, 0, 65, 49
1, 62124, Note_on_c, 0, 53, 47
1, 62127, Note_on_c, 0, 65, 46
1, 62156, Note_off_c, 0, 53, 53
1, 62167, Note_off_c, 0, 65, 61
1, 62242, Note_on_c, 0, 65, 46
1, 62252, Poly_aftertouch_c, 0, 53, 0
1, 62275, Note_off_c, 0, 65, 52
1, 62344, Note_on_c, 0, 65, 39
1, 62350, Poly_aftertouch_c, 0, 53, 0
1, 62374, Note_off_c, 0, 65, 53
1, 62430, Note_on_c, 0, 53, 52
1, 62458, Note_on_c, 0, 65, 28
1, 62469, Note_off_c, 0, 53, 50
1, 62517, Note_off_c, 0, 65, 0
1, 62527, Note_on_c, 0, 53, 45
1, 62535, Note_on_c, 0, 65, 30
1, 62565, Note_off_c, 0, 53, 52
1, 62598, Note_off_c, 0, 65, 42
1, 62633, Note_on_c, 0, 48, 66
1, 62654, Note_on_c, 0, 65, 21
1, 62658, Note_on_c, 0, 53, 37
1, 62690, Note_off_c, 0, 53, 54
1, 62700, Control_c, 0, 64, 84
1, 62705, Note_off_c, 0, 65, 48
1, 62788, Note_on_c, 0, 65, 20
1, 62829, Note_off_c, 0, 65, 47
1, 62838, Poly_aftertouch_c, 0, 53, 0
1, 62872, Control_c, 0, 64, 83
1, 62875, Poly_aftertouch_c, 0, 53, 127
1, 62890, Note_on_c, 0, 65, 37
1, 62975, Control_c, 0, 64, 83
1, 63000, Note_off_c, 0, 65, 35
1, 63034, Control_c, 0, 64, 82
1, 63039, Poly_aftertouch_c, 0, 53, 0
1, 63049, Control_c, 0, 64, 82
1, 63064, Control_c, 0, 64, 81
1, 63066, Note_on_c, 0, 51, 77
1, 63078, Control_c, 0, 64, 79
1, 63081, Note_off_c, 0, 48, 57
1, 63093, Control_c, 0, 64, 73
1, 63108, Control_c, 0, 64, 66
1, 63123, Control_c, 0, 64, 44
1, 63138, Control_c, 0, 64, 0
1, 63197, Control_c, 0, 64, 43
1, 63212, Control_c, 0, 64, 61
1, 63227, Control_c, 0, 64, 67
1, 63241, Control_c, 0, 64, 73
1, 63256, Control_c, 0, 64, 78
1, 63271, Control_c, 0, 64, 82
1, 63280, Note_on_c, 0, 65, 44
1, 63283, Note_on_c, 0, 53, 30
1, 63286, Control_c, 0, 64, 85
1, 63301, Control_c, 0, 64, 87
1, 63310, Note_off_c, 0, 65, 54
1, 63316, Control_c, 0, 64, 89
1, 63331, Control_c, 0, 64, 91
1, 63345, Control_c, 0, 64, 93
1, 63346, Note_off_c, 0, 53, 0
1, 63353, Note_off_c, 0, 51, 57
1, 63360, Control_c, 0, 64, 93
1, 63361, Note_on_c, 0, 53, 44
1, 63383, Note_on_c, 0, 65, 46
1, 63390, Note_off_c, 0, 53, 60
1, 63404, Control_c, 0, 64, 94
1, 63408, Note_off_c, 0, 65, 57
1, 63419, Control_c, 0, 64, 95
1, 63434, Control_c, 0, 64, 96
1, 63461, Note_on_c, 0, 53, 58
1, 63483, Note_on_c, 0, 65, 50
1, 63491, Note_off_c, 0, 53, 59
1, 63513, Note_off_c, 0, 65, 51
1, 63567, Note_on_c, 0, 53, 57
1, 63570, Note_on_c, 0, 65, 43
1, 63593, Note_off_c, 0, 53, 59
1, 63602, Note_off_c, 0, 65, 53
1, 63658, Note_on_c, 0, 65, 50
1, 63667, Note_on_c, 0, 53, 60
1, 63686, Note_off_c, 0, 53, 66
1, 63701, Note_off_c, 0, 65, 58
1, 63753, Note_on_c, 0, 53, 63
1, 63768, Note_on_c, 0, 65, 52
1, 63788, Note_off_c, 0, 53, 62
1, 63804, Note_off_c, 0, 65, 57
1, 63861, Note_on_c, 0, 53, 64
1, 63867, Note_on_c, 0, 65, 45
1, 63894, Note_off_c, 0, 53, 58
1, 63937, Note_off_c, 0, 65, 0
1, 63974, Poly_aftertouch_c, 0, 65, 127
1, 63975, Control_c, 0, 64, 95
1, 63984, Poly_aftertouch_c, 0, 53, 0
1, 63990, Control_c, 0, 64, 94
1, 64005, Control_c, 0, 64, 93
1, 64009, Poly_aftertouch_c, 0, 65, 0
1, 64020, Control_c, 0, 64, 92
1, 64023, Note_on_c, 0, 51, 83
1, 64170, Note_on_c, 0, 65, 27
1, 64175, Note_on_c, 0, 53, 48
1, 64219, Note_off_c, 0, 53, 62
1, 64308, Note_off_c, 0, 65, 0
1, 64309, Note_on_c, 0, 53, 55
1, 64329, Note_on_c, 0, 65, 17
1, 64345, Note_off_c, 0, 53, 58
1, 64365, Note_off_c, 0, 51, 64
1, 64379, Note_off_c, 0, 65, 48
1, 64383, Control_c, 0, 64, 92
1, 64398, Control_c, 0, 64, 91
1, 64413, Note_on_c, 0, 53, 88
1, 64413, Control_c, 0, 64, 88
1, 64427, Control_c, 0, 64, 83
1, 64443, Control_c, 0, 64, 76
1, 64458, Control_c, 0, 64, 69
1, 64473, Control_c, 0, 64, 62
1, 64488, Control_c, 0, 64, 45
1, 64502, Control_c, 0, 64, 37
1, 64517, Control_c, 0, 64, 51
1, 64532, Control_c, 0, 64, 64
1, 64535, Note_on_c, 0, 65, 46
1, 64547, Control_c, 0, 64, 69
1, 64562, Control_c, 0, 64, 75
1, 64565, Note_off_c, 0, 65, 55
1, 64577, Control_c, 0, 64, 80
1, 64591, Control_c, 0, 64, 85
1, 64606, Control_c, 0, 64, 87
1, 64621, Control_c, 0, 64, 87
1, 64643, Note_on_c, 0, 65, 57
1, 64653, Note_off_c, 0, 53, 64
1, 64665, Note_off_c, 0, 65, 59
1, 64732, Note_on_c, 0, 53, 56
1, 64750, Note_off_c, 0, 53, 65
1, 64752, Note_on_c, 0, 65, 50
1, 64773, Note_off_c, 0, 65, 60
1, 64783, Control_c, 0, 64, 87
1, 64823, Note_on_c, 0, 53, 59
1, 64839, Note_on_c, 0, 65, 50
1, 64839, Note_off_c, 0, 53, 68
1, 64864, Note_off_c, 0, 65, 57
1, 64905, Note_on_c, 0, 53, 62
1, 64942, Note_on_c, 0, 65, 35
1, 64944, Note_off_c, 0, 53, 57
1, 65017, Note_off_c, 0, 65, 0
1, 65027, Note_on_c, 0, 53, 41
1, 65035, Note_on_c, 0, 65, 26
1, 65051, Note_off_c, 0, 53, 58
1, 65076, Note_off_c, 0, 65, 48
1, 65128, Note_on_c, 0, 53, 58
1, 65155, Note_on_c, 0, 65, 11
1, 65159, Note_off_c, 0, 53, 56
1, 65240, Note_off_c, 0, 65, 0
1, 65253, Note_on_c, 0, 53, 35
1, 65277, Poly_aftertouch_c, 0, 65, 127
1, 65283, Note_off_c, 0, 53, 56
1, 65334, Poly_aftertouch_c, 0, 65, 0
1, 65340, Note_on_c, 0, 48, 65
1, 65370, Control_c, 0, 64, 86
1, 65387, Note_on_c, 0, 53, 26
1, 65432, Note_off_c, 0, 53, 55
1, 65474, Control_c, 0, 64, 86
1, 65498, Note_on_c, 0, 53, 30
1, 65534, Control_c, 0, 64, 85
1, 65540, Poly_aftertouch_c, 0, 65, 127
1, 65541, Note_off_c, 0, 53, 51
1, 65563, Control_c, 0, 64, 85
1, 65592, Control_c, 0, 64, 84
1, 65597, Poly_aftertouch_c, 0, 65, 0
1, 65611, Note_on_c, 0, 53, 42
1, 65622, Control_c, 0, 64, 84
1, 65635, Poly_aftertouch_c, 0, 65, 127
1, 65652, Control_c, 0, 64, 83
1, 65681, Control_c, 0, 67, 8
1, 65695, Note_off_c, 0, 53, 40
1, 65696, Control_c, 0, 67, 9
1, 65711, Note_on_c, 0, 46, 49
1, 65711, Control_c, 0, 64, 83
1, 65711, Control_c, 0, 67, 11
1, 65734, Control_c, 0, 67, 12
1, 65748, Control_c, 0, 64, 82
1, 65748, Control_c, 0, 67, 14
1, 65759, Poly_aftertouch_c, 0, 65, 0
1, 65763, Control_c, 0, 64, 82
1, 65763, Control_c, 0, 67, 16
1, 65763, Note_off_c, 0, 48, 36
1, 65778, Control_c, 0, 64, 81
1, 65778, Control_c, 0, 67, 18
1, 65792, Control_c, 0, 67, 20
1, 65807, Control_c, 0, 64, 80
1, 65807, Control_c, 0, 67, 23
1, 65822, Control_c, 0, 64, 80
1, 65822, Control_c, 0, 67, 25
1, 65837, Control_c, 0, 64, 79
1, 65837, Control_c, 0, 67, 27
1, 65852, Control_c, 0, 64, 79
1, 65852, Control_c, 0, 67, 29
1, 65866, Control_c, 0, 64, 78
1, 65866, Control_c, 0, 67, 31
1, 65881, Control_c, 0, 64, 77
1, 65881, Control_c, 0, 67, 33
1, 65895, Control_c, 0, 64, 76
1, 65895, Control_c, 0, 67, 34
1, 65897, Note_on_c, 0, 65, 37
1, 65910, Control_c, 0, 64, 75
1, 65910, Control_c, 0, 67, 34
1, 65914, Note_on_c, 0, 62, 39
1, 65925, Control_c, 0, 64, 73
1, 65926, Note_on_c, 0, 53, 23
1, 65940, Control_c, 0, 64, 72
1, 65940, Control_c, 0, 67, 35
1, 65954, Control_c, 0, 64, 69
1, 65954, Control_c, 0, 67, 36
1, 65964, Note_on_c, 0, 51, 61
1, 65969, Control_c, 0, 64, 65
1, 65969, Control_c, 0, 67, 38
1, 65984, Control_c, 0, 64, 59
1, 65984, Control_c, 0, 67, 39
1, 65999, Control_c, 0, 64, 23
1, 65999, Control_c, 0, 67, 40
1, 66014, Control_c, 0, 64, 0
1, 66014, Control_c, 0, 67, 42
1, 66029, Control_c, 0, 67, 44
1, 66044, Control_c, 0, 67, 47
1, 66059, Control_c, 0, 67, 49
1, 66074, Control_c, 0, 67, 52
1, 66088, Control_c, 0, 67, 54
1, 66103, Control_c, 0, 67, 57
1, 66118, Control_c, 0, 67, 58
1, 66133, Control_c, 0, 67, 59
1, 66148, Control_c, 0, 64, 61
1, 66148, Control_c, 0, 67, 59
1, 66163, Control_c, 0, 64, 67
1, 66163, Control_c, 0, 67, 60
1, 66167, Note_off_c, 0, 65, 55
1, 66178, Control_c, 0, 64, 71
1, 66178, Note_off_c, 0, 53, 46
1, 66193, Control_c, 0, 64, 73
1, 66207, Control_c, 0, 64, 75
1, 66222, Control_c, 0, 64, 76
1, 66237, Control_c, 0, 64, 77
1, 66252, Control_c, 0, 64, 78
1, 66261, Note_on_c, 0, 65, 35
1, 66267, Control_c, 0, 64, 79
1, 66284, Note_on_c, 0, 53, 22
1, 66313, Note_off_c, 0, 65, 52
1, 66326, Control_c, 0, 64, 79
1, 66333, Note_off_c, 0, 53, 48
1, 66356, Control_c, 0, 64, 80
1, 66383, Note_off_c, 0, 62, 0
1, 66383, Note_on_c, 0, 62, 7
1, 66393, Note_on_c, 0, 53, 29
1, 66394, Note_on_c, 0, 65, 26
1, 66414, Control_c, 0, 64, 80
1, 66429, Control_c, 0, 64, 81
1, 66430, Note_off_c, 0, 65, 52
1, 66431, Note_off_c, 0, 53, 48
1, 66482, Control_c, 0, 64, 81
1, 66492, Note_off_c, 0, 62, 0
1, 66508, Note_on_c, 0, 62, 28
1, 66511, Note_on_c, 0, 53, 36
1, 66515, Note_on_c, 0, 65, 33
1, 66547, Note_off_c, 0, 53, 52
1, 66551, Note_off_c, 0, 65, 51
1, 66560, Note_off_c, 0, 62, 52
1, 66614, Note_off_c, 0, 51, 52
1, 66618, Note_on_c, 0, 62, 32
1, 66622, Note_on_c, 0, 65, 45
1, 66625, Note_on_c, 0, 53, 47
1, 66644, Control_c, 0, 64, 81
1, 66655, Note_off_c, 0, 53, 56
1, 66667, Note_off_c, 0, 65, 56
1, 66673, Note_off_c, 0, 62, 56
1, 66722, Note_on_c, 0, 50, 60
1, 66740, Note_on_c, 0, 53, 54
1, 66748, Note_on_c, 0, 65, 29
1, 66758, Note_on_c, 0, 62, 27
1, 66778, Note_off_c, 0, 53, 62
1, 66786, Note_off_c, 0, 65, 50
1, 66792, Control_c, 0, 67, 59
1, 66810, Note_off_c, 0, 50, 62
1, 66817, Note_off_c, 0, 62, 41
1, 66852, Control_c, 0, 64, 80
1, 66867, Control_c, 0, 64, 80
1, 66874, Note_on_c, 0, 53, 47
1, 66879, Note_on_c, 0, 62, 38
1, 66882, Control_c, 0, 64, 78
1, 66883, Note_on_c, 0, 65, 41
1, 66897, Control_c, 0, 64, 74
1, 66908, Note_on_c, 0, 50, 67
1, 66908, Note_off_c, 0, 53, 63
1, 66911, Control_c, 0, 64, 69
1, 66911, Control_c, 0, 67, 59
1, 66920, Note_off_c, 0, 65, 52
1, 66926, Control_c, 0, 64, 65
1, 66928, Note_off_c, 0, 62, 58
1, 66941, Control_c, 0, 64, 63
1, 66941, Control_c, 0, 67, 58
1, 66956, Control_c, 0, 64, 63
1, 66971, Control_c, 0, 64, 64
1, 66986, Control_c, 0, 64, 66
1, 67000, Note_on_c, 0, 53, 47
1, 67000, Control_c, 0, 64, 68
1, 67015, Control_c, 0, 64, 70
1, 67015, Control_c, 0, 67, 58
1, 67027, Note_on_c, 0, 62, 34
1, 67029, Note_on_c, 0, 65, 31
1, 67030, Control_c, 0, 64, 73
1, 67035, Note_off_c, 0, 53, 63
1, 67045, Control_c, 0, 64, 76
1, 67060, Control_c, 0, 64, 78
1, 67062, Note_off_c, 0, 62, 53
1, 67065, Note_off_c, 0, 65, 48
1, 67075, Control_c, 0, 64, 79
1, 67090, Control_c, 0, 64, 80
1, 67126, Note_on_c, 0, 53, 54
1, 67133, Note_on_c, 0, 62, 36
1, 67134, Note_on_c, 0, 65, 25
1, 67157, Note_off_c, 0, 53, 55
1, 67164, Note_off_c, 0, 62, 54
1, 67167, Note_off_c, 0, 65, 49
1, 67238, Note_on_c, 0, 53, 44
1, 67240, Note_on_c, 0, 65, 33
1, 67244, Note_on_c, 0, 62, 36
1, 67254, Note_off_c, 0, 50, 54
1, 67260, Note_off_c, 0, 53, 62
1, 67272, Note_off_c, 0, 65, 55
1, 67272, Note_off_c, 0, 46, 59
1, 67276, Note_off_c, 0, 62, 49
1, 67319, Control_c, 0, 67, 58
1, 67340, Note_on_c, 0, 53, 39
1, 67354, Note_on_c, 0, 65, 11
1, 67376, Note_off_c, 0, 65, 0
1, 67380, Poly_aftertouch_c, 0, 62, 0
1, 67393, Control_c, 0, 67, 59
1, 67401, Note_off_c, 0, 53, 0
1, 67408, Control_c, 0, 67, 59
1, 67413, Poly_aftertouch_c, 0, 65, 127
1, 67418, Note_on_c, 0, 53, 39
1, 67418, Poly_aftertouch_c, 0, 62, 127
1, 67451, Note_off_c, 0, 53, 50
1, 67452, Control_c, 0, 64, 79
1, 67452, Control_c, 0, 67, 60
1, 67467, Control_c, 0, 64, 78
1, 67482, Control_c, 0, 64, 75
1, 67497, Control_c, 0, 64, 71
1, 67502, Poly_aftertouch_c, 0, 65, 0
1, 67507, Poly_aftertouch_c, 0, 62, 0
1, 67512, Note_on_c, 0, 53, 52
1, 67512, Control_c, 0, 64, 66
1, 67517, Note_on_c, 0, 65, 34
1, 67519, Note_on_c, 0, 62, 41
1, 67526, Control_c, 0, 64, 63
1, 67535, Note_off_c, 0, 53, 62
1, 67541, Control_c, 0, 64, 64
1, 67552, Note_off_c, 0, 62, 63
1, 67553, Note_off_c, 0, 65, 54
1, 67556, Control_c, 0, 64, 67
1, 67570, Control_c, 0, 64, 71
1, 67570, Control_c, 0, 67, 60
1, 67585, Control_c, 0, 64, 74
1, 67600, Control_c, 0, 64, 77
1, 67601, Note_on_c, 0, 53, 66
1, 67615, Control_c, 0, 64, 78
1, 67615, Control_c, 0, 67, 61
1, 67620, Note_on_c, 0, 62, 48
1, 67629, Note_off_c, 0, 53, 65
1, 67633, Note_on_c, 0, 65, 37
1, 67646, Control_c, 0, 67, 61
1, 67658, Note_off_c, 0, 62, 58
1, 67660, Control_c, 0, 64, 77
1, 67665, Note_off_c, 0, 65, 53
1, 67702, Note_on_c, 0, 53, 59
1, 67718, Note_on_c, 0, 62, 45
1, 67720, Control_c, 0, 67, 62
1, 67724, Note_on_c, 0, 65, 39
1, 67734, Control_c, 0, 64, 77
1, 67734, Control_c, 0, 67, 62
1, 67741, Note_off_c, 0, 53, 58
1, 67749, Control_c, 0, 64, 75
1, 67749, Control_c, 0, 67, 65
1, 67755, Note_off_c, 0, 62, 59
1, 67757, Note_off_c, 0, 65, 53
1, 67764, Control_c, 0, 64, 71
1, 67764, Control_c, 0, 67, 68
1, 67779, Control_c, 0, 64, 67
1, 67779, Control_c, 0, 67, 71
1, 67793, Control_c, 0, 64, 63
1, 67793, Control_c, 0, 67, 74
1, 67808, Control_c, 0, 64, 62
1, 67808, Control_c, 0, 67, 77
1, 67823, Control_c, 0, 64, 64
1, 67823, Control_c, 0, 67, 80
1, 67825, Note_on_c, 0, 53, 42
1, 67825, Note_on_c, 0, 65, 42
1, 67828, Note_on_c, 0, 62, 44
1, 67838, Note_on_c, 0, 46, 52
1, 67838, Control_c, 0, 64, 66
1, 67838, Control_c, 0, 67, 82
1, 67853, Control_c, 0, 64, 67
1, 67853, Control_c, 0, 67, 84
1, 67859, Note_off_c, 0, 53, 51
1, 67860, Note_off_c, 0, 65, 51
1, 67863, Note_off_c, 0, 62, 54
1, 67867, Note_off_c, 0, 46, 55
1, 67868, Control_c, 0, 64, 68
1, 67868, Control_c, 0, 67, 85
1, 67898, Control_c, 0, 67, 85
1, 67913, Control_c, 0, 64, 68
1, 67913, Control_c, 0, 67, 86
1, 67913, Note_on_c, 0, 53, 57
1, 67917, Note_on_c, 0, 65, 48
1, 67919, Note_on_c, 0, 62, 45
1, 67927, Control_c, 0, 64, 66
1, 67942, Control_c, 0, 64, 65
1, 67942, Control_c, 0, 67, 87
1, 67947, Note_off_c, 0, 53, 61
1, 67964, Control_c, 0, 64, 65
1, 67964, Control_c, 0, 67, 88
1, 67966, Note_off_c, 0, 65, 57
1, 67971, Note_off_c, 0, 62, 56
1, 67979, Control_c, 0, 64, 64
1, 67979, Control_c, 0, 67, 90
1, 67993, Control_c, 0, 67, 92
1, 68008, Control_c, 0, 67, 93
1, 68023, Control_c, 0, 64, 65
1, 68023, Control_c, 0, 67, 94
1, 68026, Note_on_c, 0, 53, 59
1, 68035, Note_on_c, 0, 62, 42
1, 68038, Control_c, 0, 64, 66
1, 68038, Control_c, 0, 67, 95
1, 68041, Note_on_c, 0, 65, 34
1, 68053, Note_off_c, 0, 53, 64
1, 68053, Control_c, 0, 67, 96
1, 68068, Control_c, 0, 67, 97
1, 68069, Note_off_c, 0, 62, 63
1, 68070, Note_off_c, 0, 65, 56
1, 68082, Control_c, 0, 67, 98
1, 68097, Control_c, 0, 67, 99
1, 68125, Note_on_c, 0, 53, 68
1, 68127, Control_c, 0, 64, 65
1, 68131, Note_on_c, 0, 41, 73
1, 68142, Control_c, 0, 67, 99
1, 68151, Note_on_c, 0, 65, 49
1, 68153, Note_off_c, 0, 53, 67
1, 68157, Note_on_c, 0, 62, 37
1, 68160, Note_off_c, 0, 41, 64
1, 68172, Control_c, 0, 64, 64
1, 68172, Control_c, 0, 67, 100
1, 68175, Note_off_c, 0, 65, 59
1, 68187, Control_c, 0, 64, 63
1, 68187, Note_off_c, 0, 62, 52
1, 68202, Control_c, 0, 64, 62
1, 68202, Control_c, 0, 67, 100
1, 68217, Control_c, 0, 64, 61
1, 68226, Note_on_c, 0, 53, 61
1, 68232, Control_c, 0, 64, 60
1, 68232, Control_c, 0, 67, 101
1, 68258, Note_off_c, 0, 53, 66
1, 68259, Note_on_c, 0, 65, 45
1, 68261, Control_c, 0, 64, 60
1, 68264, Note_on_c, 0, 62, 30
1, 68276, Control_c, 0, 64, 61
1, 68289, Note_off_c, 0, 65, 52
1, 68306, Control_c, 0, 64, 62
1, 68329, Note_off_c, 0, 62, 0
1, 68335, Control_c, 0, 64, 62
1, 68337, Note_on_c, 0, 53, 61
1, 68345, Note_on_c, 0, 62, 36
1, 68350, Note_on_c, 0, 65, 35
1, 68350, Control_c, 0, 64, 63
1, 68350, Control_c, 0, 67, 101
1, 68365, Control_c, 0, 64, 64
1, 68366, Note_off_c, 0, 53, 57
1, 68380, Control_c, 0, 64, 64
1, 68394, Control_c, 0, 64, 65
1, 68409, Control_c, 0, 64, 65
1, 68418, Note_off_c, 0, 65, 0
1, 68419, Note_on_c, 0, 38, 77
1, 68422, Note_off_c, 0, 62, 0
1, 68431, Note_on_c, 0, 53, 59
1, 68431, Note_on_c, 0, 65, 43
1, 68435, Note_on_c, 0, 62, 43
1, 68446, Note_off_c, 0, 38, 66
1, 68458, Note_off_c, 0, 53, 66
1, 68471, Note_off_c, 0, 65, 61
1, 68473, Note_off_c, 0, 62, 62
1, 68485, Control_c, 0, 67, 102
1, 68499, Control_c, 0, 67, 102
1, 68514, Control_c, 0, 64, 65
1, 68529, Control_c, 0, 64, 64
1, 68529, Control_c, 0, 67, 103
1, 68536, Note_on_c, 0, 53, 48
1, 68544, Control_c, 0, 64, 64
1, 68556, Note_off_c, 0, 53, 64
1, 68558, Control_c, 0, 64, 63
1, 68573, Control_c, 0, 64, 61
1, 68588, Control_c, 0, 64, 60
1, 68603, Poly_aftertouch_c, 0, 62, 127
1, 68603, Control_c, 0, 64, 58
1, 68617, Control_c, 0, 64, 57
1, 68618, Note_on_c, 0, 53, 68
1, 68622, Note_on_c, 0, 65, 19
1, 68632, Control_c, 0, 64, 57
1, 68632, Control_c, 0, 67, 103
1, 68649, Note_off_c, 0, 53, 64
1, 68655, Note_off_c, 0, 65, 52
1, 68662, Control_c, 0, 64, 58
1, 68663, Poly_aftertouch_c, 0, 62, 0
1, 68677, Control_c, 0, 64, 62
1, 68691, Control_c, 0, 64, 64
1, 68714, Control_c, 0, 64, 66
1, 68729, Note_on_c, 0, 39, 80
1, 68729, Control_c, 0, 64, 67
1, 68729, Control_c, 0, 67, 104
1, 68744, Control_c, 0, 64, 68
1, 68745, Note_on_c, 0, 55, 71
1, 68746, Note_on_c, 0, 60, 55
1, 68749, Note_on_c, 0, 63, 76
1, 68753, Note_off_c, 0, 39, 65
1, 68759, Control_c, 0, 64, 70
1, 68759, Control_c, 0, 67, 104
1, 68773, Control_c, 0, 64, 71
1, 68773, Control_c, 0, 67, 105
1, 68774, Note_off_c, 0, 55, 64
1, 68783, Note_off_c, 0, 60, 63
1, 68788, Control_c, 0, 64, 70
1, 68788, Control_c, 0, 67, 107
1, 68796, Note_off_c, 0, 63, 58
1, 68803, Control_c, 0, 64, 69
1, 68803, Control_c, 0, 67, 109
1, 68817, Control_c, 0, 64, 68
1, 68817, Control_c, 0, 67, 110
1, 68832, Control_c, 0, 64, 67
1, 68832, Control_c, 0, 67, 111
1, 68846, Note_on_c, 0, 55, 59
1, 68847, Control_c, 0, 67, 111
1, 68877, Control_c, 0, 64, 66
1, 68877, Control_c, 0, 67, 112
1, 68881, Note_on_c, 0, 60, 20
1, 68881, Note_off_c, 0, 55, 62
1, 68906, Control_c, 0, 64, 66
1, 68919, Note_off_c, 0, 60, 44
1, 68921, Control_c, 0, 64, 65
1, 68929, Poly_aftertouch_c, 0, 63, 127
1, 68935, Control_c, 0, 64, 64
1, 68950, Control_c, 0, 64, 62
1, 68958, Note_on_c, 0, 55, 66
1, 68959, Note_on_c, 0, 60, 46
1, 68965, Control_c, 0, 64, 60
1, 68980, Control_c, 0, 64, 56
1, 68982, Note_off_c, 0, 55, 68
1, 68990, Note_off_c, 0, 60, 65
1, 68995, Control_c, 0, 64, 53
1, 69008, Poly_aftertouch_c, 0, 63, 0
1, 69010, Control_c, 0, 64, 52
1, 69024, Control_c, 0, 64, 51
1, 69039, Control_c, 0, 64, 50
1, 69045, Note_on_c, 0, 55, 66
1, 69054, Control_c, 0, 64, 48
1, 69060, Note_on_c, 0, 60, 62
1, 69063, Note_on_c, 0, 63, 56
1, 69069, Control_c, 0, 64, 45
1, 69077, Note_off_c, 0, 55, 62
1, 69084, Control_c, 0, 64, 41
1, 69089, Note_off_c, 0, 60, 66
1, 69094, Note_off_c, 0, 63, 63
1, 69099, Control_c, 0, 64, 37
1, 69114, Control_c, 0, 64, 34
1, 69129, Control_c, 0, 64, 33
1, 69143, Control_c, 0, 64, 29
1, 69158, Note_on_c, 0, 60, 61
1, 69158, Control_c, 0, 64, 19
1, 69162, Note_on_c, 0, 55, 52
1, 69173, Control_c, 0, 64, 0
1, 69185, Note_off_c, 0, 55, 58
1, 69191, Note_on_c, 0, 63, 29
1, 69192, Note_off_c, 0, 60, 61
1, 69248, Note_off_c, 0, 63, 0
1, 69260, Note_on_c, 0, 60, 49
1, 69261, Note_on_c, 0, 55, 52
1, 69271, Note_on_c, 0, 63, 22
1, 69278, Control_c, 0, 64, 32
1, 69285, Note_off_c, 0, 55, 58
1, 69292, Note_off_c, 0, 60, 65
1, 69293, Control_c, 0, 64, 41
1, 69308, Control_c, 0, 64, 49
1, 69322, Control_c, 0, 64, 57
1, 69335, Note_on_c, 0, 36, 80
1, 69337, Control_c, 0, 64, 62
1, 69339, Note_off_c, 0, 63, 0
1, 69349, Note_on_c, 0, 63, 57
1, 69352, Control_c, 0, 64, 65
1, 69352, Control_c, 0, 67, 111
1, 69352, Note_on_c, 0, 55, 68
1, 69357, Note_off_c, 0, 36, 65
1, 69366, Control_c, 0, 64, 66
1, 69367, Note_on_c, 0, 60, 55
1, 69377, Note_off_c, 0, 55, 66
1, 69391, Note_off_c, 0, 60, 62
1, 69400, Note_off_c, 0, 63, 59
1, 69411, Control_c, 0, 64, 66
1, 69439, Note_on_c, 0, 55, 69
1, 69440, Control_c, 0, 64, 65
1, 69463, Control_c, 0, 64, 64
1, 69466, Note_on_c, 0, 63, 40
1, 69478, Control_c, 0, 64, 63
1, 69481, Note_off_c, 0, 55, 63
1, 69492, Control_c, 0, 64, 63
1, 69495, Note_on_c, 0, 60, 20
1, 69502, Note_off_c, 0, 63, 62
1, 69507, Control_c, 0, 64, 62
1, 69522, Control_c, 0, 64, 62
1, 69537, Control_c, 0, 64, 61
1, 69546, Note_on_c, 0, 55, 58
1, 69552, Control_c, 0, 64, 60
1, 69552, Note_off_c, 0, 60, 0
1, 69552, Note_on_c, 0, 60, 30
1, 69566, Control_c, 0, 64, 57
1, 69573, Note_off_c, 0, 55, 65
1, 69581, Control_c, 0, 64, 53
1, 69588, Note_on_c, 0, 63, 11
1, 69596, Note_off_c, 0, 60, 58
1, 69596, Control_c, 0, 64, 47
1, 69611, Control_c, 0, 64, 43
1, 69619, Note_off_c, 0, 63, 0
1, 69626, Control_c, 0, 64, 43
1, 69640, Control_c, 0, 64, 42
1, 69646, Note_on_c, 0, 55, 66
1, 69653, Note_on_c, 0, 60, 40
1, 69653, Note_on_c, 0, 63, 30
1, 69655, Control_c, 0, 64, 43
1, 69670, Control_c, 0, 64, 44
1, 69672, Note_off_c, 0, 55, 66
1, 69685, Control_c, 0, 64, 50
1, 69689, Note_off_c, 0, 60, 62
1, 69700, Control_c, 0, 64, 56
1, 69714, Control_c, 0, 64, 59
1, 69729, Control_c, 0, 64, 60
1, 69732, Note_off_c, 0, 63, 0
1, 69740, Note_on_c, 0, 55, 64
1, 69744, Control_c, 0, 64, 62
1, 69746, Note_on_c, 0, 63, 42
1, 69758, Control_c, 0, 64, 62
1, 69765, Note_off_c, 0, 55, 66
1, 69783, Note_on_c, 0, 60, 10
1, 69785, Note_off_c, 0, 63, 59
1, 69788, Control_c, 0, 64, 63
1, 69803, Control_c, 0, 64, 63
1, 69829, Note_on_c, 0, 55, 68
1, 69832, Control_c, 0, 64, 63
1, 69847, Control_c, 0, 64, 62
1, 69861, Note_off_c, 0, 55, 64
1, 69862, Control_c, 0, 64, 58
1, 69871, Note_off_c, 0, 60, 60
1, 69877, Control_c, 0, 64, 53
1, 69892, Control_c, 0, 64, 50
1, 69907, Control_c, 0, 64, 53
1, 69922, Control_c, 0, 64, 59
1, 69931, Note_on_c, 0, 41, 69
1, 69937, Control_c, 0, 64, 63
1, 69949, Note_on_c, 0, 53, 69
1, 69949, Note_on_c, 0, 62, 66
1, 69952, Control_c, 0, 64, 65
1, 69955, Note_on_c, 0, 58, 61
1, 69957, Note_off_c, 0, 41, 64
1, 69966, Control_c, 0, 64, 68
1, 69978, Note_off_c, 0, 53, 66
1, 69981, Control_c, 0, 64, 71
1, 69987, Note_off_c, 0, 58, 64
1, 69996, Control_c, 0, 64, 72
1, 69996, Note_off_c, 0, 62, 58
1, 70026, Control_c, 0, 64, 71
1, 70041, Control_c, 0, 64, 70
1, 70044, Note_on_c, 0, 53, 64
1, 70056, Control_c, 0, 64, 70
1, 70058, Note_on_c, 0, 58, 63
1, 70059, Note_on_c, 0, 62, 45
1, 70071, Control_c, 0, 64, 68
1, 70071, Control_c, 0, 67, 112
1, 70076, Note_off_c, 0, 53, 65
1, 70086, Note_off_c, 0, 58, 65
1, 70086, Control_c, 0, 64, 67
1, 70093, Note_off_c, 0, 62, 63
1, 70101, Control_c, 0, 64, 65
1, 70115, Control_c, 0, 64, 65
1, 70115, Control_c, 0, 67, 112
1, 70130, Control_c, 0, 64, 65
1, 70154, Note_on_c, 0, 53, 51
1, 70167, Note_on_c, 0, 58, 53
1, 70181, Note_off_c, 0, 53, 60
1, 70189, Note_off_c, 0, 58, 61
1, 70190, Note_on_c, 0, 62, 13
1, 70211, Control_c, 0, 67, 113
1, 70227, Note_off_c, 0, 62, 0
1, 70256, Control_c, 0, 64, 65
1, 70261, Note_on_c, 0, 62, 33
1, 70262, Note_on_c, 0, 58, 57
1, 70267, Note_on_c, 0, 53, 55
1, 70270, Control_c, 0, 64, 65
1, 70285, Control_c, 0, 64, 66
1, 70293, Note_off_c, 0, 58, 62
1, 70294, Note_off_c, 0, 53, 61
1, 70349, Note_off_c, 0, 62, 0
1, 70360, Control_c, 0, 64, 67
1, 70367, Note_on_c, 0, 62, 25
1, 70371, Note_on_c, 0, 58, 51
1, 70388, Control_c, 0, 64, 66
1, 70403, Control_c, 0, 64, 65
1, 70415, Note_off_c, 0, 62, 57
1, 70418, Control_c, 0, 64, 61
1, 70431, Poly_aftertouch_c, 0, 53, 127
1, 70433, Control_c, 0, 64, 55
1, 70448, Control_c, 0, 64, 0
1, 70452, Poly_aftertouch_c, 0, 53, 0
1, 70480, Note_off_c, 0, 58, 0
1, 70480, Note_on_c, 0, 58, 12
1, 70482, Note_on_c, 0, 53, 42
1, 70497, Note_on_c, 0, 62, 55
1, 70519, Note_off_c, 0, 53, 60
1, 70521, Control_c, 0, 64, 29
1, 70521, Control_c, 0, 67, 112
1, 70534, Note_off_c, 0, 62, 61
1, 70536, Control_c, 0, 64, 64
1, 70536, Control_c, 0, 67, 112
1, 70538, Note_on_c, 0, 29, 47
1, 70543, Note_on_c, 0, 41, 50
1, 70551, Control_c, 0, 64, 70
1, 70551, Control_c, 0, 67, 111
1, 70562, Note_off_c, 0, 58, 40
1, 70566, Control_c, 0, 64, 76
1, 70581, Control_c, 0, 64, 79
1, 70593, Note_off_c, 0, 29, 62
1, 70595, Note_off_c, 0, 41, 55
1, 70597, Note_on_c, 0, 57, 53
1, 70607, Note_on_c, 0, 60, 58
1, 70625, Control_c, 0, 67, 111
1, 70640, Control_c, 0, 67, 110
1, 70642, Note_off_c, 0, 60, 64
1, 70649, Note_on_c, 0, 53, 34
1, 70655, Control_c, 0, 64, 81
1, 70655, Control_c, 0, 67, 110
1, 70670, Control_c, 0, 64, 83
1, 70678, Note_off_c, 0, 53, 57
1, 70685, Control_c, 0, 64, 85
1, 70685, Control_c, 0, 67, 109
1, 70700, Control_c, 0, 67, 109
1, 70705, Note_off_c, 0, 57, 0
1, 70714, Note_on_c, 0, 60, 71
1, 70714, Control_c, 0, 67, 108
1, 70725, Note_on_c, 0, 57, 20
1, 70729, Control_c, 0, 67, 108
1, 70744, Control_c, 0, 67, 107
1, 70753, Note_off_c, 0, 60, 65
1, 70759, Control_c, 0, 67, 106
1, 70772, Note_off_c, 0, 57, 43
1, 70774, Control_c, 0, 67, 106
1, 70788, Control_c, 0, 67, 105
1, 70803, Control_c, 0, 67, 104
1, 70818, Control_c, 0, 67, 103
1, 70834, Control_c, 0, 67, 102
1, 70849, Control_c, 0, 67, 101
1, 70858, Note_on_c, 0, 60, 53
1, 70864, Control_c, 0, 67, 101
1, 70878, Control_c, 0, 67, 100
1, 70879, Note_off_c, 0, 60, 66
1, 70893, Control_c, 0, 67, 100
1, 70908, Control_c, 0, 67, 97
1, 70923, Control_c, 0, 64, 85
1, 70923, Control_c, 0, 67, 92
1, 70938, Control_c, 0, 67, 86
1, 70959, Control_c, 0, 67, 78
1, 70974, Control_c, 0, 67, 69
1, 70975, Note_on_c, 0, 53, 35
1, 70989, Control_c, 0, 67, 57
1, 70992, Note_on_c, 0, 60, 21
1, 71004, Control_c, 0, 67, 42
1, 71016, Note_on_c, 0, 57, 8
1, 71019, Control_c, 0, 67, 24
1, 71034, Control_c, 0, 64, 84
1, 71034, Control_c, 0, 67, 10
1, 71048, Control_c, 0, 67, 0
1, 71063, Control_c, 0, 64, 84
1, 71071, Note_off_c, 0, 57, 47
1, 71081, Note_off_c, 0, 60, 53
1, 71088, Note_on_c, 0, 77, 80
1, 71093, Control_c, 0, 64, 83
1, 71124, Note_off_c, 0, 53, 33
1, 71152, Control_c, 0, 64, 84
1, 71167, Control_c, 0, 64, 84
1, 71197, Control_c, 0, 64, 85
1, 71209, Note_on_c, 0, 57, 37
1, 71211, Control_c, 0, 64, 86
1, 71221, Note_on_c, 0, 60, 46
1, 71226, Control_c, 0, 64, 86
1, 71239, Poly_aftertouch_c, 0, 53, 127
1, 71241, Control_c, 0, 64, 87
1, 71256, Note_off_c, 0, 57, 59
1, 71256, Note_off_c, 0, 60, 65
1, 71285, Control_c, 0, 64, 87
1, 71292, Poly_aftertouch_c, 0, 53, 0
1, 71300, Control_c, 0, 64, 88
1, 71315, Control_c, 0, 64, 89
1, 71330, Control_c, 0, 64, 89
1, 71344, Control_c, 0, 64, 90
1, 71360, Note_on_c, 0, 60, 43
1, 71365, Note_on_c, 0, 57, 45
1, 71372, Note_on_c, 0, 65, 43
1, 71374, Control_c, 0, 64, 90
1, 71377, Note_on_c, 0, 53, 18
1, 71396, Note_off_c, 0, 57, 57
1, 71402, Note_off_c, 0, 77, 39
1, 71406, Note_off_c, 0, 65, 53
1, 71406, Note_off_c, 0, 60, 51
1, 71421, Note_off_c, 0, 53, 53
1, 71474, Note_on_c, 0, 74, 52
1, 71521, Note_off_c, 0, 74, 55
1, 71546, Note_on_c, 0, 77, 50
1, 71597, Control_c, 0, 64, 90
1, 71600, Note_off_c, 0, 77, 62
1, 71611, Control_c, 0, 64, 89
1, 71627, Control_c, 0, 64, 89
1, 71642, Control_c, 0, 64, 88
1, 71657, Control_c, 0, 64, 88
1, 71708, Control_c, 0, 64, 87
1, 71738, Control_c, 0, 64, 87
1, 71748, Note_on_c, 0, 46, 41
1, 71782, Control_c, 0, 64, 86
1, 71797, Control_c, 0, 64, 86
1, 71812, Control_c, 0, 64, 83
1, 71827, Control_c, 0, 64, 78
1, 71841, Control_c, 0, 64, 69
1, 71856, Control_c, 0, 64, 58
1, 71863, Note_on_c, 0, 86, 73
1, 71871, Control_c, 0, 64, 0
1, 71916, Control_c, 0, 64, 43
1, 71931, Control_c, 0, 64, 62
1, 71946, Control_c, 0, 64, 69
1, 71961, Control_c, 0, 64, 75
1, 71976, Control_c, 0, 64, 81
1, 71990, Control_c, 0, 64, 84
1, 72005, Control_c, 0, 64, 85
1, 72020, Control_c, 0, 64, 85
1, 72026, Note_off_c, 0, 46, 55
1, 72035, Control_c, 0, 64, 87
1, 72050, Control_c, 0, 64, 88
1, 72065, Control_c, 0, 64, 88
1, 72080, Control_c, 0, 64, 89
1, 72095, Control_c, 0, 64, 91
1, 72109, Control_c, 0, 64, 93
1, 72124, Control_c, 0, 64, 94
1, 72139, Control_c, 0, 64, 96
1, 72154, Control_c, 0, 64, 97
1, 72168, Control_c, 0, 64, 99
1, 72178, Note_on_c, 0, 62, 25
1, 72183, Control_c, 0, 64, 100
1, 72185, Note_on_c, 0, 58, 21
1, 72198, Control_c, 0, 64, 102
1, 72213, Control_c, 0, 64, 104
1, 72228, Control_c, 0, 64, 105
1, 72241, Note_off_c, 0, 86, 50
1, 72242, Control_c, 0, 64, 106
1, 72243, Note_off_c, 0, 62, 42
1, 72257, Control_c, 0, 64, 106
1, 72287, Control_c, 0, 64, 107
1, 72302, Control_c, 0, 64, 107
1, 72310, Note_on_c, 0, 53, 43
1, 72316, Control_c, 0, 64, 108
1, 72317, Note_off_c, 0, 58, 40
1, 72331, Control_c, 0, 64, 108
1, 72346, Control_c, 0, 64, 109
1, 72356, Note_off_c, 0, 53, 45
1, 72390, Control_c, 0, 64, 109
1, 72405, Control_c, 0, 64, 110
1, 72432, Note_on_c, 0, 46, 28
1, 72477, Note_off_c, 0, 46, 52
1, 72523, Note_on_c, 0, 58, 49
1, 72551, Note_on_c, 0, 62, 34
1, 72562, Control_c, 0, 64, 110
1, 72590, Note_off_c, 0, 62, 50
1, 72618, Note_off_c, 0, 58, 55
1, 72640, Note_on_c, 0, 53, 44
1, 72679, Control_c, 0, 64, 111
1, 72711, Note_off_c, 0, 53, 40
1, 72724, Control_c, 0, 64, 111
1, 72740, Note_on_c, 0, 46, 30
1, 72777, Note_off_c, 0, 46, 46
1, 72834, Note_on_c, 0, 62, 31
1, 72839, Note_on_c, 0, 58, 42
1, 72857, Note_on_c, 0, 65, 34
1, 72872, Note_off_c, 0, 62, 46
1, 72888, Note_off_c, 0, 58, 56
1, 72891, Note_off_c, 0, 65, 52
1, 72899, Note_on_c, 0, 70, 57
1, 72927, Note_on_c, 0, 53, 44
1, 72966, Note_on_c, 0, 77, 60
1, 72968, Note_off_c, 0, 53, 52
1, 72987, Note_off_c, 0, 70, 62
1, 73041, Note_on_c, 0, 46, 50
1, 73073, Note_on_c, 0, 75, 28
1, 73087, Note_off_c, 0, 46, 60
1, 73093, Note_on_c, 0, 82, 84
1, 73096, Note_off_c, 0, 77, 59
1, 73123, Note_off_c, 0, 75, 45
1, 73153, Note_off_c, 0, 82, 65
1, 73188, Poly_aftertouch_c, 0, 80, 127
1, 73219, Control_c, 0, 64, 111
1, 73235, Note_on_c, 0, 58, 42
1, 73235, Poly_aftertouch_c, 0, 80, 0
1, 73235, Control_c, 0, 64, 110
1, 73245, Note_on_c, 0, 62, 6
1, 73250, Control_c, 0, 64, 109
1, 73265, Control_c, 0, 64, 108
1, 73279, Control_c, 0, 64, 108
1, 73283, Note_on_c, 0, 65, 46
1, 73287, Note_off_c, 0, 58, 50
1, 73294, Control_c, 0, 64, 107
1, 73295, Note_off_c, 0, 62, 51
1, 73309, Control_c, 0, 64, 106
1, 73324, Control_c, 0, 64, 104
1, 73339, Control_c, 0, 64, 103
1, 73350, Note_on_c, 0, 53, 41
1, 73353, Control_c, 0, 64, 102
1, 73363, Note_on_c, 0, 72, 54
1, 73368, Control_c, 0, 64, 102
1, 73383, Control_c, 0, 64, 101
1, 73398, Control_c, 0, 64, 100
1, 73406, Note_off_c, 0, 53, 54
1, 73412, Control_c, 0, 64, 98
1, 73427, Control_c, 0, 64, 97
1, 73442, Control_c, 0, 64, 96
1, 73457, Control_c, 0, 64, 92
1, 73472, Control_c, 0, 64, 85
1, 73487, Note_on_c, 0, 46, 54
1, 73487, Control_c, 0, 64, 76
1, 73502, Control_c, 0, 64, 65
1, 73517, Control_c, 0, 64, 0
1, 73533, Note_on_c, 0, 77, 73
1, 73561, Control_c, 0, 64, 50
1, 73576, Note_off_c, 0, 46, 60
1, 73576, Control_c, 0, 64, 67
1, 73591, Control_c, 0, 64, 75
1, 73605, Control_c, 0, 64, 82
1, 73620, Control_c, 0, 64, 88
1, 73635, Control_c, 0, 64, 90
1, 73650, Control_c, 0, 64, 91
1, 73665, Control_c, 0, 64, 91
1, 73700, Note_on_c, 0, 63, 42
1, 73716, Note_on_c, 0, 57, 40
1, 73728, Note_off_c, 0, 63, 55
1, 73738, Control_c, 0, 64, 92
1, 73764, Note_off_c, 0, 57, 59
1, 73768, Control_c, 0, 64, 92
1, 73794, Note_on_c, 0, 53, 40
1, 73827, Control_c, 0, 64, 93
1, 73863, Note_off_c, 0, 53, 40
1, 73875, Note_on_c, 0, 46, 45
1, 73906, Note_off_c, 0, 46, 52
1, 73968, Control_c, 0, 64, 93
1, 73983, Control_c, 0, 64, 94
1, 73998, Control_c, 0, 64, 95
1, 74008, Note_on_c, 0, 57, 40
1, 74010, Note_on_c, 0, 63, 42
1, 74012, Control_c, 0, 64, 95
1, 74027, Control_c, 0, 64, 96
1, 74039, Note_off_c, 0, 63, 55
1, 74043, Control_c, 0, 64, 97
1, 74058, Control_c, 0, 64, 98
1, 74065, Note_off_c, 0, 57, 62
1, 74073, Control_c, 0, 64, 99
1, 74088, Control_c, 0, 64, 100
1, 74090, Note_on_c, 0, 53, 45
1, 74103, Control_c, 0, 64, 101
1, 74117, Control_c, 0, 64, 102
1, 74118, Note_off_c, 0, 65, 41
1, 74132, Control_c, 0, 64, 103
1, 74147, Control_c, 0, 64, 104
1, 74154, Note_on_c, 0, 46, 62
1, 74161, Control_c, 0, 64, 104
1, 74181, Note_off_c, 0, 46, 62
1, 74226, Note_off_c, 0, 77, 35
1, 74238, Note_off_c, 0, 53, 44
1, 74260, Note_off_c, 0, 72, 42
1, 74277, Note_on_c, 0, 57, 35
1, 74281, Note_on_c, 0, 63, 55
1, 74295, Control_c, 0, 64, 104
1, 74305, Note_off_c, 0, 63, 63
1, 74307, Note_on_c, 0, 65, 52
1, 74310, Control_c, 0, 64, 103
1, 74324, Control_c, 0, 64, 102
1, 74338, Note_off_c, 0, 65, 65
1, 74339, Control_c, 0, 64, 102
1, 74349, Note_off_c, 0, 57, 62
1, 74355, Note_on_c, 0, 53, 57
1, 74361, Note_on_c, 0, 72, 60
1, 74410, Note_on_c, 0, 77, 68
1, 74414, Control_c, 0, 64, 101
1, 74426, Note_off_c, 0, 72, 64
1, 74441, Note_on_c, 0, 46, 56
1, 74443, Control_c, 0, 64, 101
1, 74475, Note_off_c, 0, 46, 64
1, 74477, Note_on_c, 0, 84, 93
1, 74482, Note_off_c, 0, 77, 57
1, 74493, Note_off_c, 0, 53, 0
1, 74510, Poly_aftertouch_c, 0, 53, 0
1, 74517, Note_off_c, 0, 84, 63
1, 74573, Note_on_c, 0, 63, 61
1, 74575, Note_on_c, 0, 57, 27
1, 74610, Note_off_c, 0, 63, 63
1, 74628, Note_on_c, 0, 65, 61
1, 74656, Note_off_c, 0, 65, 63
1, 74658, Note_off_c, 0, 57, 48
1, 74667, Note_on_c, 0, 53, 52
1, 74705, Note_on_c, 0, 74, 67
1, 74744, Note_on_c, 0, 77, 65
1, 74744, Note_off_c, 0, 74, 62
1, 74747, Control_c, 0, 64, 100
1, 74761, Control_c, 0, 64, 100
1, 74767, Note_off_c, 0, 77, 69
1, 74775, Note_off_c, 0, 53, 39
1, 74791, Control_c, 0, 64, 99
1, 74806, Control_c, 0, 64, 98
1, 74821, Control_c, 0, 64, 95
1, 74837, Control_c, 0, 64, 89
1, 74852, Control_c, 0, 64, 79
1, 74854, Note_on_c, 0, 46, 56
1, 74866, Control_c, 0, 64, 68
1, 74882, Control_c, 0, 64, 45
1, 74896, Note_on_c, 0, 86, 84
1, 74897, Control_c, 0, 64, 0
1, 74941, Control_c, 0, 64, 61
1, 74950, Note_off_c, 0, 46, 62
1, 74956, Control_c, 0, 64, 71
1, 74971, Control_c, 0, 64, 82
1, 74985, Control_c, 0, 64, 94
1, 75000, Control_c, 0, 64, 95
1, 75015, Control_c, 0, 64, 96
1, 75030, Control_c, 0, 64, 97
1, 75043, Note_on_c, 0, 62, 48
1, 75045, Control_c, 0, 64, 98
1, 75050, Note_on_c, 0, 58, 55
1, 75059, Control_c, 0, 64, 100
1, 75074, Control_c, 0, 64, 103
1, 75079, Note_off_c, 0, 62, 62
1, 75089, Control_c, 0, 64, 106
1, 75104, Control_c, 0, 64, 108
1, 75119, Control_c, 0, 64, 108
1, 75121, Note_off_c, 0, 58, 44
1, 75133, Control_c, 0, 64, 109
1, 75138, Note_on_c, 0, 53, 56
1, 75148, Control_c, 0, 64, 109
1, 75163, Control_c, 0, 64, 110
1, 75177, Note_off_c, 0, 53, 50
1, 75177, Control_c, 0, 64, 112
1, 75183, Note_off_c, 0, 86, 60
1, 75192, Control_c, 0, 64, 114
1, 75207, Control_c, 0, 64, 116
1, 75222, Control_c, 0, 64, 119
1, 75223, Note_on_c, 0, 46, 58
1, 75237, Poly_aftertouch_c, 0, 82, 127
1, 75237, Control_c, 0, 64, 122
1, 75252, Control_c, 0, 64, 123
1, 75252, Note_off_c, 0, 46, 62
1, 75266, Poly_aftertouch_c, 0, 82, 0
1, 75266, Control_c, 0, 64, 124
1, 75314, Note_on_c, 0, 62, 64
1, 75329, Note_on_c, 0, 58, 59
1, 75346, Note_off_c, 0, 62, 63
1, 75356, Control_c, 0, 64, 123
1, 75365, Note_off_c, 0, 58, 58
1, 75421, Note_on_c, 0, 53, 47
1, 75466, Note_off_c, 0, 53, 53
1, 75501, Note_on_c, 0, 46, 58
1, 75511, Control_c, 0, 64, 122
1, 75527, Note_off_c, 0, 46, 64
1, 75541, Control_c, 0, 64, 121
1, 75600, Note_on_c, 0, 62, 55
1, 75612, Note_on_c, 0, 65, 52
1, 75615, Control_c, 0, 64, 120
1, 75617, Note_on_c, 0, 58, 50
1, 75632, Note_off_c, 0, 62, 56
1, 75645, Control_c, 0, 64, 119
1, 75660, Control_c, 0, 64, 119
1, 75664, Note_off_c, 0, 65, 62
1, 75664, Note_off_c, 0, 58, 50
1, 75674, Note_on_c, 0, 70, 61
1, 75675, Control_c, 0, 64, 118
1, 75689, Note_on_c, 0, 53, 53
1, 75690, Control_c, 0, 64, 118
1, 75720, Control_c, 0, 64, 117
1, 75735, Note_on_c, 0, 77, 61
1, 75739, Note_off_c, 0, 53, 47
1, 75741, Note_off_c, 0, 70, 62
1, 75779, Control_c, 0, 64, 117
1, 75793, Note_on_c, 0, 46, 60
1, 75794, Control_c, 0, 64, 116
1, 75808, Control_c, 0, 64, 116
1, 75823, Control_c, 0, 64, 115
1, 75833, Note_off_c, 0, 77, 63
1, 75833, Note_on_c, 0, 82, 75
1, 75837, Note_off_c, 0, 46, 62
1, 75838, Control_c, 0, 64, 115
1, 75853, Control_c, 0, 64, 114
1, 75868, Control_c, 0, 64, 113
1, 75874, Note_off_c, 0, 82, 64
1, 75882, Control_c, 0, 64, 112
1, 75897, Control_c, 0, 64, 111
1, 75912, Control_c, 0, 64, 110
1, 75926, Control_c, 0, 64, 110
1, 75941, Note_on_c, 0, 62, 38
1, 75941, Control_c, 0, 64, 109
1, 75955, Note_on_c, 0, 58, 45
1, 75956, Control_c, 0, 64, 109
1, 75971, Control_c, 0, 64, 108
1, 75985, Note_off_c, 0, 62, 48
1, 75986, Control_c, 0, 64, 107
1, 76000, Control_c, 0, 64, 107
1, 76004, Note_on_c, 0, 65, 54
1, 76015, Control_c, 0, 64, 106
1, 76029, Note_off_c, 0, 58, 51
1, 76030, Control_c, 0, 64, 106
1, 76060, Control_c, 0, 64, 105
1, 76061, Note_on_c, 0, 53, 48
1, 76082, Note_on_c, 0, 72, 58
1, 76089, Control_c, 0, 64, 105
1, 76104, Control_c, 0, 64, 104
1, 76119, Control_c, 0, 64, 104
1, 76134, Control_c, 0, 64, 103
1, 76149, Control_c, 0, 64, 102
1, 76164, Control_c, 0, 64, 101
1, 76179, Control_c, 0, 64, 98
1, 76194, Control_c, 0, 64, 88
1, 76208, Note_off_c, 0, 53, 33
1, 76215, Control_c, 0, 64, 75
1, 76229, Note_on_c, 0, 46, 53
1, 76230, Control_c, 0, 64, 63
1, 76243, Note_on_c, 0, 77, 70
1, 76245, Control_c, 0, 64, 0
1, 76289, Control_c, 0, 64, 24
1, 76304, Control_c, 0, 64, 62
1, 76311, Note_off_c, 0, 46, 61
1, 76319, Control_c, 0, 64, 70
1, 76334, Control_c, 0, 64, 77
1, 76349, Control_c, 0, 64, 84
1, 76363, Control_c, 0, 64, 89
1, 76378, Control_c, 0, 64, 92
1, 76393, Control_c, 0, 64, 95
1, 76404, Note_on_c, 0, 63, 59
1, 76407, Control_c, 0, 64, 97
1, 76423, Control_c, 0, 64, 99
1, 76426, Note_on_c, 0, 57, 48
1, 76438, Control_c, 0, 64, 100
1, 76439, Note_off_c, 0, 63, 64
1, 76453, Control_c, 0, 64, 101
1, 76468, Control_c, 0, 64, 102
1, 76479, Note_off_c, 0, 57, 59
1, 76497, Control_c, 0, 64, 103
1, 76499, Note_on_c, 0, 53, 52
1, 76512, Control_c, 0, 64, 106
1, 76527, Control_c, 0, 64, 108
1, 76537, Note_off_c, 0, 53, 49
1, 76542, Control_c, 0, 64, 110
1, 76556, Control_c, 0, 64, 111
1, 76563, Note_on_c, 0, 46, 67
1, 76571, Control_c, 0, 64, 112
1, 76586, Control_c, 0, 64, 113
1, 76599, Note_off_c, 0, 46, 65
1, 76601, Control_c, 0, 64, 116
1, 76616, Control_c, 0, 64, 120
1, 76630, Control_c, 0, 64, 127
1, 76659, Poly_aftertouch_c, 0, 53, 127
1, 76679, Note_on_c, 0, 57, 49
1, 76693, Poly_aftertouch_c, 0, 53, 0
1, 76694, Note_on_c, 0, 63, 57
1, 76724, Note_off_c, 0, 63, 66
1, 76756, Note_off_c, 0, 57, 61
1, 76787, Note_on_c, 0, 53, 43
1, 76814, Note_off_c, 0, 65, 40
1, 76822, Note_off_c, 0, 53, 53
1, 76831, Note_on_c, 0, 46, 68
1, 76839, Poly_aftertouch_c, 0, 75, 127
1, 76865, Note_off_c, 0, 46, 63
1, 76923, Note_off_c, 0, 77, 62
1, 76929, Note_off_c, 0, 72, 41
1, 76933, Poly_aftertouch_c, 0, 75, 0
1, 76954, Note_on_c, 0, 57, 45
1, 76958, Poly_aftertouch_c, 0, 53, 0
1, 76963, Note_on_c, 0, 63, 55
1, 76980, Note_on_c, 0, 65, 55
1, 76992, Note_off_c, 0, 63, 64
1, 77012, Note_off_c, 0, 65, 65
1, 77027, Note_off_c, 0, 57, 62
1, 77028, Note_on_c, 0, 72, 69
1, 77061, Note_on_c, 0, 53, 34
1, 77073, Note_on_c, 0, 77, 61
1, 77076, Note_off_c, 0, 72, 64
1, 77098, Note_on_c, 0, 46, 67
1, 77114, Note_on_c, 0, 84, 86
1, 77124, Note_off_c, 0, 77, 61
1, 77137, Note_off_c, 0, 46, 61
1, 77150, Note_off_c, 0, 84, 66
1, 77171, Note_off_c, 0, 53, 53
1, 77218, Note_on_c, 0, 63, 68
1, 77231, Note_on_c, 0, 57, 36
1, 77243, Note_on_c, 0, 65, 74
1, 77248, Note_off_c, 0, 63, 65
1, 77273, Note_off_c, 0, 65, 57
1, 77309, Note_off_c, 0, 57, 58
1, 77311, Note_on_c, 0, 53, 60
1, 77337, Note_on_c, 0, 74, 59
1, 77353, Note_on_c, 0, 77, 76
1, 77365, Note_off_c, 0, 74, 66
1, 77383, Note_off_c, 0, 77, 63
1, 77384, Note_off_c, 0, 53, 55
1, 77453, Control_c, 0, 64, 82
1, 77468, Note_on_c, 0, 46, 59
1, 77468, Control_c, 0, 64, 62
1, 77483, Control_c, 0, 64, 0
1, 77485, Note_on_c, 0, 86, 87
1, 77535, Note_off_c, 0, 46, 62
1, 77542, Control_c, 0, 64, 70
1, 77557, Control_c, 0, 64, 94
1, 77571, Control_c, 0, 64, 127
1, 77618, Note_on_c, 0, 62, 53
1, 77623, Note_on_c, 0, 58, 57
1, 77648, Note_off_c, 0, 62, 64
1, 77689, Note_off_c, 0, 58, 54
1, 77703, Note_off_c, 0, 86, 63
1, 77712, Note_on_c, 0, 53, 54
1, 77746, Note_off_c, 0, 53, 52
1, 77785, Note_on_c, 0, 46, 68
1, 77818, Note_off_c, 0, 46, 63
1, 77893, Note_on_c, 0, 62, 59
1, 77899, Note_on_c, 0, 58, 65
1, 77929, Note_off_c, 0, 62, 59
1, 77982, Note_off_c, 0, 58, 57
1, 77989, Note_on_c, 0, 53, 62
1, 78083, Note_on_c, 0, 46, 57
1, 78109, Note_off_c, 0, 46, 64
1, 78110, Note_off_c, 0, 53, 63
1, 78170, Note_on_c, 0, 62, 59
1, 78180, Note_on_c, 0, 58, 58
1, 78188, Note_on_c, 0, 65, 56
1, 78202, Note_off_c, 0, 62, 59
1, 78218, Note_off_c, 0, 65, 65
1, 78226, Note_on_c, 0, 70, 69
1, 78253, Note_off_c, 0, 58, 61
1, 78276, Note_off_c, 0, 70, 65
1, 78283, Note_on_c, 0, 77, 68
1, 78311, Note_on_c, 0, 75, 33
1, 78334, Note_on_c, 0, 46, 75
1, 78336, Note_on_c, 0, 82, 91
1, 78341, Note_off_c, 0, 77, 64
1, 78343, Note_off_c, 0, 75, 55
1, 78363, Poly_aftertouch_c, 0, 53, 127
1, 78382, Note_off_c, 0, 82, 65
1, 78385, Note_off_c, 0, 46, 60
1, 78392, Poly_aftertouch_c, 0, 53, 0
1, 78408, Poly_aftertouch_c, 0, 78, 127
1, 78431, Poly_aftertouch_c, 0, 78, 0
1, 78470, Note_on_c, 0, 58, 57
1, 78472, Note_on_c, 0, 62, 56
1, 78483, Note_on_c, 0, 69, 58
1, 78510, Note_off_c, 0, 69, 64
1, 78537, Note_on_c, 0, 77, 61
1, 78539, Note_off_c, 0, 62, 58
1, 78548, Note_on_c, 0, 53, 55
1, 78560, Note_on_c, 0, 81, 76
1, 78569, Note_off_c, 0, 77, 65
1, 78570, Note_off_c, 0, 58, 48
1, 78576, Note_on_c, 0, 80, 46
1, 78599, Note_off_c, 0, 80, 58
1, 78601, Note_off_c, 0, 81, 65
1, 78654, Note_off_c, 0, 53, 58
1, 78655, Control_c, 0, 64, 92
1, 78659, Note_on_c, 0, 48, 61
1, 78670, Control_c, 0, 64, 72
1, 78684, Control_c, 0, 64, 0
1, 78710, Note_on_c, 0, 89, 94
1, 78728, Control_c, 0, 64, 61
1, 78743, Control_c, 0, 64, 72
1, 78746, Note_off_c, 0, 48, 62
1, 78758, Control_c, 0, 64, 90
1, 78773, Control_c, 0, 64, 127
1, 78870, Note_off_c, 0, 89, 62
1, 78875, Note_on_c, 0, 60, 57
1, 78876, Note_on_c, 0, 65, 64
1, 78903, Note_off_c, 0, 65, 67
1, 78914, Note_off_c, 0, 60, 61
1, 78946, Note_on_c, 0, 57, 62
1, 78972, Note_off_c, 0, 57, 66
1, 79013, Note_on_c, 0, 48, 60
1, 79037, Note_off_c, 0, 48, 63
1, 79130, Note_on_c, 0, 69, 61
1, 79130, Note_on_c, 0, 60, 47
1, 79139, Note_on_c, 0, 65, 60
1, 79171, Note_off_c, 0, 65, 64
1, 79181, Note_off_c, 0, 69, 62
1, 79199, Note_on_c, 0, 77, 60
1, 79225, Control_c, 0, 64, 105
1, 79234, Note_off_c, 0, 60, 62
1, 79235, Note_on_c, 0, 81, 68
1, 79240, Control_c, 0, 64, 85
1, 79252, Note_on_c, 0, 57, 43
1, 79255, Control_c, 0, 64, 70
1, 79270, Control_c, 0, 64, 64
1, 79284, Note_off_c, 0, 77, 63
1, 79285, Control_c, 0, 64, 67
1, 79299, Note_off_c, 0, 57, 57
1, 79300, Control_c, 0, 64, 74
1, 79313, Note_on_c, 0, 48, 58
1, 79315, Control_c, 0, 64, 85
1, 79329, Control_c, 0, 64, 102
1, 79338, Note_on_c, 0, 84, 84
1, 79344, Control_c, 0, 64, 127
1, 79354, Note_off_c, 0, 81, 60
1, 79369, Note_off_c, 0, 48, 59
1, 79422, Note_on_c, 0, 56, 15
1, 79470, Note_off_c, 0, 56, 52
1, 79498, Note_on_c, 0, 65, 42
1, 79508, Note_on_c, 0, 60, 44
1, 79513, Poly_aftertouch_c, 0, 79, 127
1, 79526, Note_off_c, 0, 65, 56
1, 79532, Note_off_c, 0, 84, 27
1, 79552, Note_off_c, 0, 60, 63
1, 79559, Poly_aftertouch_c, 0, 80, 127
1, 79584, Poly_aftertouch_c, 0, 79, 0
1, 79591, Poly_aftertouch_c, 0, 80, 0
1, 79592, Note_on_c, 0, 57, 38
1, 79631, Note_off_c, 0, 57, 47
1, 79634, Note_on_c, 0, 48, 60
1, 79662, Note_off_c, 0, 48, 64
1, 79774, Note_on_c, 0, 65, 51
1, 79797, Note_on_c, 0, 60, 45
1, 79800, Note_off_c, 0, 65, 63
1, 79830, Note_on_c, 0, 70, 53
1, 79850, Note_off_c, 0, 60, 58
1, 79859, Note_on_c, 0, 76, 58
1, 79863, Note_off_c, 0, 70, 65
1, 79888, Note_on_c, 0, 57, 36
1, 79920, Note_off_c, 0, 57, 58
1, 79958, Note_on_c, 0, 79, 59
1, 79989, Control_c, 0, 64, 96
1, 79990, Note_on_c, 0, 48, 39
1, 80004, Control_c, 0, 64, 79
1, 80019, Control_c, 0, 64, 63
1, 80034, Control_c, 0, 64, 0
1, 80063, Control_c, 0, 64, 52
1, 80069, Note_off_c, 0, 76, 50
1, 80072, Note_on_c, 0, 84, 68
1, 80078, Control_c, 0, 64, 65
1, 80093, Control_c, 0, 64, 73
1, 80098, Note_off_c, 0, 48, 62
1, 80107, Control_c, 0, 64, 82
1, 80108, Note_off_c, 0, 79, 58
1, 80122, Control_c, 0, 64, 95
1, 80137, Control_c, 0, 64, 108
1, 80152, Control_c, 0, 64, 127
1, 80182, Note_off_c, 0, 84, 63
1, 80229, Note_on_c, 0, 64, 44
1, 80234, Note_on_c, 0, 58, 48
1, 80237, Poly_aftertouch_c, 0, 81, 0
1, 80274, Note_off_c, 0, 64, 48
1, 80309, Note_on_c, 0, 70, 57
1, 80314, Note_off_c, 0, 58, 60
1, 80331, Note_on_c, 0, 55, 48
1, 80346, Note_off_c, 0, 70, 63
1, 80349, Note_on_c, 0, 76, 59
1, 80388, Note_off_c, 0, 55, 54
1, 80396, Note_on_c, 0, 79, 62
1, 80414, Note_on_c, 0, 48, 46
1, 80480, Note_off_c, 0, 76, 43
1, 80487, Note_on_c, 0, 83, 73
1, 80493, Note_off_c, 0, 48, 62
1, 80510, Note_off_c, 0, 79, 62
1, 80563, Note_off_c, 0, 83, 65
1, 80643, Note_on_c, 0, 84, 71
1, 80644, Note_on_c, 0, 64, 40
1, 80662, Note_on_c, 0, 58, 42
1, 80708, Note_off_c, 0, 64, 57
1, 80726, Note_off_c, 0, 58, 58
1, 80742, Note_on_c, 0, 55, 43
1, 80771, Note_on_c, 0, 86, 81
1, 80787, Note_off_c, 0, 84, 62
1, 80821, Note_on_c, 0, 48, 49
1, 80857, Note_off_c, 0, 48, 63
1, 80880, Note_off_c, 0, 86, 65
1, 80881, Note_on_c, 0, 84, 79
1, 80882, Note_off_c, 0, 55, 28
1, 80906, Note_off_c, 0, 84, 66
1, 80948, Note_on_c, 0, 64, 60
1, 80956, Note_on_c, 0, 58, 58
1, 80978, Note_off_c, 0, 64, 66
1, 81011, Note_off_c, 0, 58, 58
1, 81049, Note_on_c, 0, 55, 43
1, 81075, Note_off_c, 0, 55, 61
1, 81082, Note_on_c, 0, 60, 45
1, 81096, Note_on_c, 0, 48, 54
1, 81112, Note_off_c, 0, 60, 55
1, 81134, Note_on_c, 0, 67, 50
1, 81141, Note_off_c, 0, 48, 61
1, 81152, Note_on_c, 0, 70, 63
1, 81186, Note_off_c, 0, 67, 61
1, 81207, Note_on_c, 0, 76, 74
1, 81208, Note_off_c, 0, 70, 65
1, 81245, Note_on_c, 0, 58, 51
1, 81267, Note_on_c, 0, 64, 26
1, 81305, Note_off_c, 0, 64, 54
1, 81327, Note_off_c, 0, 58, 61
1, 81338, Note_on_c, 0, 55, 46
1, 81360, Note_on_c, 0, 65, 45
1, 81362, Note_off_c, 0, 55, 59
1, 81377, Note_off_c, 0, 76, 43
1, 81412, Note_on_c, 0, 69, 57
1, 81545, Note_on_c, 0, 41, 50
1, 81561, Control_c, 0, 64, 93
1, 81576, Control_c, 0, 64, 72
1, 81591, Control_c, 0, 64, 0
1, 81629, Note_on_c, 0, 77, 66
1, 81665, Control_c, 0, 64, 66
1, 81677, Note_off_c, 0, 41, 62
1, 81679, Control_c, 0, 64, 81
1, 81694, Control_c, 0, 64, 107
1, 81709, Control_c, 0, 64, 127
1, 81789, Note_on_c, 0, 60, 53
1, 81828, Note_on_c, 0, 57, 30
1, 81854, Note_off_c, 0, 60, 56
1, 81876, Note_off_c, 0, 57, 62
1, 81881, Note_on_c, 0, 53, 53
1, 81905, Note_off_c, 0, 53, 63
1, 81932, Control_c, 0, 64, 113
1, 81946, Control_c, 0, 64, 92
1, 81961, Control_c, 0, 64, 82
1, 81976, Control_c, 0, 64, 81
1, 81979, Note_on_c, 0, 41, 59
1, 81991, Control_c, 0, 64, 87
1, 82006, Control_c, 0, 64, 98
1, 82008, Note_off_c, 0, 41, 54
1, 82021, Control_c, 0, 64, 127
1, 82090, Note_on_c, 0, 60, 63
1, 82110, Note_on_c, 0, 57, 43
1, 82148, Note_off_c, 0, 60, 56
1, 82172, Note_off_c, 0, 57, 62
1, 82177, Note_on_c, 0, 53, 57
1, 82214, Note_off_c, 0, 53, 60
1, 82221, Control_c, 0, 64, 93
1, 82231, Poly_aftertouch_c, 0, 54, 127
1, 82236, Control_c, 0, 64, 72
1, 82251, Control_c, 0, 64, 55
1, 82253, Poly_aftertouch_c, 0, 54, 0
1, 82266, Control_c, 0, 64, 54
1, 82281, Control_c, 0, 64, 66
1, 82282, Note_on_c, 0, 41, 63
1, 82295, Control_c, 0, 64, 73
1, 82308, Note_off_c, 0, 41, 56
1, 82310, Control_c, 0, 64, 88
1, 82325, Control_c, 0, 64, 113
1, 82340, Control_c, 0, 64, 127
1, 82391, Note_on_c, 0, 60, 56
1, 82416, Note_off_c, 0, 65, 41
1, 82420, Note_on_c, 0, 57, 40
1, 82447, Note_off_c, 0, 77, 39
1, 82449, Note_off_c, 0, 60, 52
1, 82466, Note_off_c, 0, 57, 62
1, 82478, Note_on_c, 0, 53, 49
1, 82506, Note_off_c, 0, 53, 58
1, 82561, Note_on_c, 0, 77, 71
1, 82569, Note_off_c, 0, 69, 56
1, 82590, Note_on_c, 0, 41, 47
1, 82626, Note_off_c, 0, 41, 50
1, 82665, Note_off_c, 0, 77, 53
1, 82695, Note_on_c, 0, 60, 54
1, 82723, Note_on_c, 0, 65, 42
1, 82751, Note_on_c, 0, 57, 40
1, 82756, Note_off_c, 0, 65, 64
1, 82759, Note_off_c, 0, 60, 51
1, 82786, Note_on_c, 0, 72, 60
1, 82790, Note_off_c, 0, 57, 63
1, 82802, Note_on_c, 0, 53, 46
1, 82829, Note_off_c, 0, 53, 58
1, 82875, Note_on_c, 0, 77, 62
1, 82883, Note_off_c, 0, 72, 60
1, 82940, Control_c, 0, 67, 10
1, 82955, Control_c, 0, 67, 13
1, 82970, Control_c, 0, 67, 17
1, 82985, Control_c, 0, 64, 87
1, 82985, Control_c, 0, 67, 20
1, 82990, Note_on_c, 0, 41, 50
1, 82998, Note_off_c, 0, 77, 47
1, 82999, Control_c, 0, 64, 64
1, 82999, Control_c, 0, 67, 22
1, 83014, Control_c, 0, 64, 0
1, 83014, Control_c, 0, 67, 23
1, 83017, Note_on_c, 0, 84, 78
1, 83044, Control_c, 0, 67, 23
1, 83059, Control_c, 0, 64, 54
1, 83059, Control_c, 0, 67, 21
1, 83060, Note_off_c, 0, 41, 63
1, 83073, Control_c, 0, 64, 77
1, 83073, Control_c, 0, 67, 20
1, 83088, Control_c, 0, 64, 114
1, 83088, Control_c, 0, 67, 19
1, 83103, Control_c, 0, 64, 127
1, 83103, Control_c, 0, 67, 17
1, 83118, Control_c, 0, 67, 17
1, 83192, Control_c, 0, 67, 16
1, 83206, Note_on_c, 0, 57, 50
1, 83222, Control_c, 0, 67, 16
1, 83228, Note_on_c, 0, 63, 37
1, 83236, Note_off_c, 0, 57, 64
1, 83236, Control_c, 0, 67, 15
1, 83251, Control_c, 0, 67, 12
1, 83257, Note_on_c, 0, 53, 59
1, 83261, Note_off_c, 0, 63, 54
1, 83266, Control_c, 0, 67, 10
1, 83281, Note_off_c, 0, 53, 62
1, 83281, Control_c, 0, 67, 0
1, 83354, Note_off_c, 0, 84, 51
1, 83356, Note_on_c, 0, 41, 67
1, 83382, Note_off_c, 0, 41, 57
1, 83483, Note_on_c, 0, 63, 50
1, 83488, Note_on_c, 0, 57, 56
1, 83527, Note_off_c, 0, 63, 62
1, 83535, Note_off_c, 0, 57, 57
1, 83537, Note_on_c, 0, 53, 58
1, 83573, Note_off_c, 0, 53, 66
1, 83622, Control_c, 0, 64, 108
1, 83637, Control_c, 0, 64, 88
1, 83649, Note_on_c, 0, 41, 74
1, 83652, Control_c, 0, 64, 88
1, 83667, Control_c, 0, 64, 97
1, 83678, Note_off_c, 0, 41, 64
1, 83689, Control_c, 0, 64, 119
1, 83704, Control_c, 0, 64, 127
1, 83786, Note_on_c, 0, 57, 52
1, 83789, Note_on_c, 0, 63, 47
1, 83815, Note_on_c, 0, 65, 50
1, 83816, Note_off_c, 0, 63, 60
1, 83823, Note_off_c, 0, 57, 63
1, 83837, Note_on_c, 0, 53, 60
1, 83840, Note_off_c, 0, 65, 58
1, 83848, Note_on_c, 0, 73, 67
1, 83867, Note_off_c, 0, 53, 63
1, 83901, Note_on_c, 0, 75, 55
1, 83902, Note_on_c, 0, 77, 47
1, 83924, Note_off_c, 0, 73, 64
1, 83926, Note_off_c, 0, 77, 60
1, 83935, Note_off_c, 0, 75, 65
1, 83953, Note_on_c, 0, 41, 69
1, 83977, Note_off_c, 0, 41, 62
1, 83980, Note_on_c, 0, 85, 64
1, 84013, Note_off_c, 0, 85, 54
1, 84083, Note_on_c, 0, 63, 56
1, 84117, Note_off_c, 0, 63, 62
1, 84118, Note_on_c, 0, 57, 39
1, 84119, Note_on_c, 0, 65, 64
1, 84144, Note_off_c, 0, 65, 66
1, 84176, Note_on_c, 0, 74, 66
1, 84187, Note_on_c, 0, 53, 52
1, 84191, Note_off_c, 0, 57, 52
1, 84213, Note_on_c, 0, 77, 71
1, 84232, Note_off_c, 0, 74, 61
1, 84254, Note_off_c, 0, 77, 62
1, 84273, Note_off_c, 0, 53, 62
1, 84326, Control_c, 0, 64, 101
1, 84340, Control_c, 0, 64, 67
1, 84355, Control_c, 0, 64, 0
1, 84362, Note_on_c, 0, 46, 62
1, 84364, Note_on_c, 0, 86, 84
1, 84431, Control_c, 0, 64, 67
1, 84452, Note_off_c, 0, 46, 63
1, 84453, Control_c, 0, 64, 93
1, 84468, Control_c, 0, 64, 127
1, 84543, Note_on_c, 0, 62, 55
1, 84548, Note_on_c, 0, 58, 58
1, 84556, Note_off_c, 0, 86, 64
1, 84573, Note_off_c, 0, 62, 63
1, 84615, Note_off_c, 0, 58, 59
1, 84635, Note_on_c, 0, 53, 55
1, 84696, Note_off_c, 0, 53, 0
1, 84705, Note_on_c, 0, 46, 70
1, 84725, Poly_aftertouch_c, 0, 53, 0
1, 84732, Note_off_c, 0, 46, 64
1, 84795, Note_on_c, 0, 65, 61
1, 84827, Note_off_c, 0, 65, 63
1, 84830, Note_on_c, 0, 62, 43
1, 84832, Note_on_c, 0, 58, 55
1, 84835, Note_on_c, 0, 70, 68
1, 84869, Note_off_c, 0, 62, 51
1, 84898, Note_on_c, 0, 77, 66
1, 84913, Note_off_c, 0, 70, 63
1, 84925, Note_on_c, 0, 53, 62
1, 84925, Note_off_c, 0, 58, 60
1, 84927, Control_c, 0, 64, 110
1, 84942, Control_c, 0, 64, 91
1, 84956, Control_c, 0, 64, 83
1, 84971, Control_c, 0, 64, 84
1, 84986, Control_c, 0, 64, 92
1, 84998, Poly_aftertouch_c, 0, 75, 127
1, 85001, Control_c, 0, 64, 107
1, 85016, Control_c, 0, 64, 127
1, 85029, Note_on_c, 0, 82, 90
1, 85031, Note_off_c, 0, 77, 62
1, 85043, Poly_aftertouch_c, 0, 75, 0
1, 85084, Note_on_c, 0, 46, 58
1, 85118, Note_off_c, 0, 46, 66
1, 85129, Note_off_c, 0, 53, 44
1, 85145, Note_off_c, 0, 82, 55
1, 85211, Note_on_c, 0, 62, 56
1, 85224, Note_on_c, 0, 58, 59
1, 85241, Note_off_c, 0, 62, 63
1, 85253, Note_on_c, 0, 70, 57
1, 85288, Note_on_c, 0, 77, 74
1, 85297, Note_off_c, 0, 58, 34
1, 85321, Note_on_c, 0, 53, 50
1, 85332, Note_off_c, 0, 70, 63
1, 85361, Note_off_c, 0, 53, 57
1, 85367, Note_on_c, 0, 82, 94
1, 85416, Note_on_c, 0, 46, 71
1, 85437, Note_off_c, 0, 82, 66
1, 85471, Note_off_c, 0, 46, 61
1, 85530, Note_on_c, 0, 83, 91
1, 85541, Note_off_c, 0, 77, 60
1, 85545, Note_on_c, 0, 71, 70
1, 85548, Note_on_c, 0, 62, 64
1, 85549, Note_on_c, 0, 58, 63
1, 85562, Note_off_c, 0, 71, 69
1, 85565, Note_off_c, 0, 83, 68
1, 85574, Note_off_c, 0, 62, 64
1, 85589, Note_off_c, 0, 58, 58
1, 85595, Note_on_c, 0, 53, 61
1, 85622, Note_off_c, 0, 53, 67
1, 85663, Note_on_c, 0, 65, 71
1, 85690, Note_off_c, 0, 65, 67
1, 85725, Note_on_c, 0, 72, 64
1, 85764, Control_c, 0, 64, 105
1, 85766, Note_on_c, 0, 77, 64
1, 85770, Note_on_c, 0, 41, 66
1, 85774, Note_off_c, 0, 72, 65
1, 85779, Control_c, 0, 64, 77
1, 85793, Control_c, 0, 64, 38
1, 85808, Control_c, 0, 64, 0
1, 85815, Note_on_c, 0, 84, 87
1, 85837, Control_c, 0, 64, 64
1, 85841, Note_off_c, 0, 77, 65
1, 85852, Control_c, 0, 64, 79
1, 85859, Note_off_c, 0, 41, 63
1, 85867, Control_c, 0, 64, 127
1, 85996, Note_on_c, 0, 63, 57
1, 86003, Note_on_c, 0, 57, 50
1, 86030, Note_off_c, 0, 63, 64
1, 86043, Note_off_c, 0, 57, 63
1, 86062, Note_on_c, 0, 53, 56
1, 86086, Note_off_c, 0, 53, 61
1, 86156, Note_on_c, 0, 41, 74
1, 86184, Note_off_c, 0, 41, 64
1, 86230, Note_off_c, 0, 84, 56
1, 86279, Note_on_c, 0, 57, 59
1, 86279, Note_on_c, 0, 63, 62
1, 86324, Note_on_c, 0, 53, 62
1, 86324, Note_off_c, 0, 63, 60
1, 86333, Note_off_c, 0, 57, 60
1, 86367, Note_off_c, 0, 53, 67
1, 86445, Note_on_c, 0, 41, 78
1, 86472, Note_off_c, 0, 41, 64
1, 86569, Note_on_c, 0, 63, 59
1, 86579, Note_on_c, 0, 57, 55
1, 86597, Note_off_c, 0, 63, 65
1, 86609, Note_off_c, 0, 57, 65
1, 86627, Note_on_c, 0, 53, 57
1, 86635, Note_on_c, 0, 65, 60
1, 86648, Note_off_c, 0, 53, 66
1, 86671, Note_on_c, 0, 72, 69
1, 86713, Note_off_c, 0, 65, 59
1, 86734, Note_on_c, 0, 41, 78
1, 86739, Note_on_c, 0, 77, 86
1, 86759, Note_off_c, 0, 72, 64
1, 86761, Note_off_c, 0, 41, 63
1, 86825, Note_off_c, 0, 77, 56
1, 86866, Note_on_c, 0, 63, 53
1, 86868, Note_on_c, 0, 65, 57
1, 86878, Note_on_c, 0, 57, 43
1, 86896, Note_off_c, 0, 63, 61
1, 86899, Note_off_c, 0, 65, 65
1, 86923, Note_on_c, 0, 74, 75
1, 86946, Note_on_c, 0, 53, 62
1, 86960, Note_off_c, 0, 57, 56
1, 86976, Note_on_c, 0, 77, 70
1, 86994, Note_off_c, 0, 74, 62
1, 87027, Note_off_c, 0, 77, 64
1, 87080, Note_off_c, 0, 53, 41
1, 87083, Control_c, 0, 64, 110
1, 87098, Control_c, 0, 64, 79
1, 87113, Control_c, 0, 64, 47
1, 87119, Note_on_c, 0, 46, 64
1, 87127, Note_on_c, 0, 86, 90
1, 87127, Control_c, 0, 64, 0
1, 87172, Control_c, 0, 64, 63
1, 87187, Control_c, 0, 64, 82
1, 87194, Note_off_c, 0, 46, 62
1, 87202, Control_c, 0, 64, 127
1, 87280, Note_on_c, 0, 62, 54
1, 87291, Note_on_c, 0, 58, 54
1, 87310, Note_off_c, 0, 62, 63
1, 87351, Note_off_c, 0, 58, 60
1, 87363, Note_on_c, 0, 53, 62
1, 87393, Note_off_c, 0, 53, 66
1, 87449, Note_on_c, 0, 46, 68
1, 87474, Note_off_c, 0, 46, 65
1, 87559, Note_on_c, 0, 62, 54
1, 87567, Note_on_c, 0, 58, 59
1, 87592, Note_off_c, 0, 62, 61
1, 87641, Note_off_c, 0, 58, 59
1, 87645, Note_on_c, 0, 53, 68
1, 87728, Note_on_c, 0, 46, 62
1, 87735, Note_off_c, 0, 53, 60
1, 87753, Note_off_c, 0, 46, 64
1, 87824, Note_on_c, 0, 62, 55
1, 87828, Note_on_c, 0, 58, 65
1, 87829, Note_off_c, 0, 86, 38
1, 87849, Note_off_c, 0, 62, 59
1, 87887, Note_off_c, 0, 58, 61
1, 87905, Note_on_c, 0, 74, 65
1, 87949, Note_on_c, 0, 77, 64
1, 87974, Note_on_c, 0, 53, 17
1, 87989, Note_on_c, 0, 86, 91
1, 88001, Note_off_c, 0, 74, 55
1, 88003, Note_off_c, 0, 77, 64
1, 88005, Note_off_c, 0, 53, 57
1, 88022, Note_on_c, 0, 46, 67
1, 88047, Note_off_c, 0, 46, 64
1, 88087, Note_off_c, 0, 86, 62
1, 88140, Note_on_c, 0, 62, 54
1, 88159, Note_on_c, 0, 58, 40
1, 88162, Note_on_c, 0, 86, 89
1, 88162, Note_off_c, 0, 62, 60
1, 88169, Note_on_c, 0, 53, 60
1, 88183, Note_on_c, 0, 82, 58
1, 88194, Note_off_c, 0, 58, 56
1, 88202, Note_off_c, 0, 53, 67
1, 88204, Note_off_c, 0, 82, 62
1, 88219, Note_on_c, 0, 84, 34
1, 88260, Note_off_c, 0, 86, 62
1, 88260, Note_on_c, 0, 74, 67
1, 88264, Note_off_c, 0, 84, 50
1, 88320, Note_on_c, 0, 79, 58
1, 88323, Note_off_c, 0, 74, 64
1, 88356, Note_off_c, 0, 79, 63
1, 88362, Note_on_c, 0, 84, 49
1, 88365, Note_on_c, 0, 83, 62
1, 88373, Note_on_c, 0, 43, 60
1, 88382, Note_off_c, 0, 83, 68
1, 88384, Note_off_c, 0, 84, 63
1, 88463, Control_c, 0, 64, 83
1, 88478, Control_c, 0, 64, 26
1, 88493, Control_c, 0, 64, 0
1, 88513, Note_on_c, 0, 91, 85
1, 88552, Control_c, 0, 64, 56
1, 88567, Control_c, 0, 64, 81
1, 88568, Note_off_c, 0, 43, 63
1, 88582, Control_c, 0, 64, 127
1, 88668, Note_on_c, 0, 62, 60
1, 88685, Note_on_c, 0, 59, 52
1, 88708, Note_off_c, 0, 62, 59
1, 88733, Note_off_c, 0, 59, 62
1, 88749, Note_on_c, 0, 55, 54
1, 88773, Note_off_c, 0, 55, 58
1, 88833, Note_on_c, 0, 43, 64
1, 88863, Note_off_c, 0, 43, 64
1, 88960, Note_on_c, 0, 62, 52
1, 88969, Note_on_c, 0, 59, 51
1, 88982, Note_on_c, 0, 89, 84
1, 88989, Note_off_c, 0, 62, 57
1, 89009, Note_off_c, 0, 91, 64
1, 89021, Note_off_c, 0, 89, 65
1, 89028, Note_off_c, 0, 59, 59
1, 89079, Note_on_c, 0, 55, 41
1, 89101, Note_on_c, 0, 74, 67
1, 89108, Note_off_c, 0, 55, 55
1, 89131, Note_off_c, 0, 74, 67
1, 89140, Note_on_c, 0, 48, 62
1, 89146, Note_on_c, 0, 79, 61
1, 89152, Control_c, 0, 64, 109
1, 89166, Control_c, 0, 64, 90
1, 89175, Note_off_c, 0, 79, 57
1, 89181, Control_c, 0, 64, 75
1, 89196, Control_c, 0, 64, 63
1, 89206, Note_on_c, 0, 89, 81
1, 89212, Control_c, 0, 64, 55
1, 89224, Note_off_c, 0, 48, 62
1, 89226, Control_c, 0, 64, 65
1, 89241, Control_c, 0, 64, 76
1, 89256, Control_c, 0, 64, 94
1, 89271, Control_c, 0, 64, 127
1, 89299, Poly_aftertouch_c, 0, 53, 127
1, 89301, Note_on_c, 0, 53, 3
1, 89341, Note_on_c, 0, 63, 50
1, 89341, Note_off_c, 0, 53, 53
1, 89343, Note_on_c, 0, 60, 52
1, 89357, Note_on_c, 0, 87, 84
1, 89358, Note_off_c, 0, 89, 62
1, 89367, Note_off_c, 0, 63, 58
1, 89393, Note_off_c, 0, 60, 63
1, 89412, Note_off_c, 0, 87, 67
1, 89428, Note_on_c, 0, 55, 58
1, 89451, Note_off_c, 0, 55, 59
1, 89462, Note_on_c, 0, 75, 68
1, 89478, Note_on_c, 0, 48, 66
1, 89487, Note_off_c, 0, 75, 67
1, 89501, Note_on_c, 0, 79, 58
1, 89503, Note_off_c, 0, 48, 65
1, 89518, Note_on_c, 0, 86, 83
1, 89569, Note_on_c, 0, 55, 6
1, 89578, Note_off_c, 0, 79, 58
1, 89585, Poly_aftertouch_c, 0, 53, 127
1, 89588, Note_on_c, 0, 53, 3
1, 89614, Note_off_c, 0, 55, 36
1, 89616, Note_on_c, 0, 63, 60
1, 89618, Note_on_c, 0, 60, 53
1, 89628, Note_off_c, 0, 53, 53
1, 89654, Note_off_c, 0, 63, 60
1, 89664, Note_on_c, 0, 84, 79
1, 89694, Note_off_c, 0, 86, 60
1, 89702, Note_off_c, 0, 60, 62
1, 89710, Note_off_c, 0, 84, 67
1, 89726, Note_on_c, 0, 55, 58
1, 89748, Note_off_c, 0, 55, 65
1, 89813, Note_on_c, 0, 65, 63
1, 89840, Note_off_c, 0, 65, 65
1, 89868, Note_on_c, 0, 70, 50
1, 89900, Note_off_c, 0, 70, 65
1, 89903, Note_on_c, 0, 74, 67
1, 89932, Note_on_c, 0, 41, 49
1, 89945, Control_c, 0, 64, 102
1, 89959, Control_c, 0, 64, 75
1, 89974, Control_c, 0, 64, 0
1, 89990, Note_off_c, 0, 74, 62
1, 89998, Note_on_c, 0, 82, 80
1, 90034, Note_off_c, 0, 41, 62
1, 90035, Control_c, 0, 64, 50
1, 90050, Control_c, 0, 64, 69
1, 90064, Control_c, 0, 64, 86
1, 90079, Control_c, 0, 64, 127
1, 90165, Note_on_c, 0, 62, 49
1, 90174, Note_on_c, 0, 58, 45
1, 90196, Note_off_c, 0, 62, 55
1, 90217, Note_off_c, 0, 58, 61
1, 90234, Note_on_c, 0, 53, 62
1, 90259, Note_off_c, 0, 53, 68
1, 90334, Note_on_c, 0, 41, 73
1, 90362, Note_off_c, 0, 41, 64
1, 90466, Note_on_c, 0, 62, 54
1, 90480, Note_on_c, 0, 58, 54
1, 90503, Note_off_c, 0, 62, 49
1, 90539, Note_on_c, 0, 53, 62
1, 90541, Note_off_c, 0, 58, 60
1, 90566, Note_off_c, 0, 53, 67
1, 90606, Control_c, 0, 64, 93
1, 90621, Control_c, 0, 64, 69
1, 90635, Control_c, 0, 64, 50
1, 90642, Note_on_c, 0, 41, 73
1, 90650, Control_c, 0, 64, 63
1, 90665, Control_c, 0, 64, 75
1, 90666, Note_off_c, 0, 41, 65
1, 90680, Control_c, 0, 64, 93
1, 90695, Control_c, 0, 64, 127
1, 90787, Note_on_c, 0, 57, 50
1, 90803, Note_on_c, 0, 84, 74
1, 90803, Note_on_c, 0, 63, 50
1, 90818, Note_off_c, 0, 82, 62
1, 90825, Note_off_c, 0, 84, 70
1, 90835, Note_off_c, 0, 63, 64
1, 90852, Note_off_c, 0, 57, 62
1, 90866, Note_on_c, 0, 53, 62
1, 90890, Note_off_c, 0, 53, 68
1, 90934, Note_on_c, 0, 69, 41
1, 90961, Note_off_c, 0, 69, 54
1, 90962, Note_on_c, 0, 75, 60
1, 90987, Note_off_c, 0, 75, 67
1, 90990, Note_on_c, 0, 77, 52
1, 90992, Control_c, 0, 64, 95
1, 91003, Note_on_c, 0, 43, 64
1, 91006, Control_c, 0, 64, 77
1, 91013, Note_off_c, 0, 77, 58
1, 91021, Control_c, 0, 64, 74
1, 91032, Note_off_c, 0, 43, 65
1, 91036, Control_c, 0, 64, 80
1, 91047, Note_on_c, 0, 86, 71
1, 91050, Control_c, 0, 64, 96
1, 91065, Control_c, 0, 64, 127
1, 91191, Note_on_c, 0, 63, 55
1, 91193, Note_on_c, 0, 57, 51
1, 91256, Note_on_c, 0, 84, 74
1, 91261, Note_off_c, 0, 86, 61
1, 91271, Note_off_c, 0, 63, 52
1, 91307, Note_off_c, 0, 84, 63
1, 91309, Note_off_c, 0, 57, 61
1, 91317, Note_on_c, 0, 53, 66
1, 91354, Note_off_c, 0, 53, 64
1, 91472, Control_c, 0, 64, 77
1, 91487, Control_c, 0, 64, 0
1, 91521, Note_on_c, 0, 58, 102
1, 91522, Note_on_c, 0, 70, 104
1, 91524, Note_on_c, 0, 82, 104
1, 91524, Note_on_c, 0, 46, 92
1, 91532, Note_on_c, 0, 53, 73
1, 91541, Note_on_c, 0, 74, 65
1, 91546, Control_c, 0, 64, 127
1, 91547, Note_on_c, 0, 49, 45
1, 91548, Note_off_c, 0, 49, 127
1, 91550, Note_on_c, 0, 80, 52
1, 91561, Note_off_c, 0, 74, 63
1, 91574, Note_off_c, 0, 58, 68
1, 91575, Note_off_c, 0, 82, 70
1, 91579, Note_off_c, 0, 70, 64
1, 91583, Note_off_c, 0, 80, 47
1, 91599, Note_on_c, 0, 78, 4
1, 91637, Note_off_c, 0, 78, 44
1, 91673, Note_off_c, 0, 53, 59
1, 91708, Note_off_c, 0, 46, 58
1, 91772, Note_on_c, 0, 62, 57
1, 91806, Note_off_c, 0, 62, 63
1, 91873, Note_on_c, 0, 74, 64
1, 91898, Note_off_c, 0, 74, 68
1, 91968, Note_on_c, 0, 74, 82
1, 91976, Note_on_c, 0, 50, 73
1, 92031, Note_off_c, 0, 74, 62
1, 92045, Note_off_c, 0, 50, 64
1, 92059, Note_on_c, 0, 86, 77
1, 92070, Note_on_c, 0, 62, 73
1, 92099, Note_off_c, 0, 86, 66
1, 92121, Note_off_c, 0, 62, 57
1, 92159, Note_on_c, 0, 50, 82
1, 92163, Note_on_c, 0, 86, 94
1, 92219, Note_off_c, 0, 50, 61
1, 92228, Note_off_c, 0, 86, 57
1, 92232, Note_on_c, 0, 62, 91
1, 92237, Note_on_c, 0, 98, 99
1, 92280, Note_off_c, 0, 62, 60
1, 92307, Note_off_c, 0, 98, 64
1, 92325, Note_on_c, 0, 50, 80
1, 92329, Note_on_c, 0, 86, 78
1, 92376, Note_off_c, 0, 86, 67
1, 92396, Note_on_c, 0, 62, 80
1, 92408, Note_off_c, 0, 50, 66
1, 92418, Note_off_c, 0, 62, 66
1, 92455, Note_on_c, 0, 86, 78
1, 92474, Control_c, 0, 64, 83
1, 92483, Note_off_c, 0, 86, 67
1, 92489, Control_c, 0, 64, 29
1, 92499, Note_on_c, 0, 59, 105
1, 92503, Control_c, 0, 64, 0
1, 92508, Note_on_c, 0, 50, 82
1, 92510, Note_on_c, 0, 47, 84
1, 92518, Control_c, 0, 64, 59
1, 92524, Note_on_c, 0, 74, 86
1, 92533, Control_c, 0, 64, 109
1, 92548, Control_c, 0, 64, 127
1, 92551, Note_off_c, 0, 74, 65
1, 92612, Note_off_c, 0, 47, 53
1, 92636, Note_on_c, 0, 74, 85
1, 92690, Note_off_c, 0, 50, 60
1, 92697, Note_off_c, 0, 59, 60
1, 92721, Note_on_c, 0, 62, 78
1, 92740, Note_off_c, 0, 74, 58
1, 92746, Note_off_c, 0, 62, 67
1, 92763, Control_c, 0, 64, 114
1, 92777, Control_c, 0, 64, 66
1, 92792, Control_c, 0, 64, 0
1, 92806, Note_on_c, 0, 60, 102
1, 92813, Note_on_c, 0, 48, 88
1, 92815, Note_on_c, 0, 51, 78
1, 92815, Note_on_c, 0, 63, 105
1, 92818, Note_on_c, 0, 75, 96
1, 92836, Note_off_c, 0, 48, 66
1, 92836, Control_c, 0, 64, 72
1, 92840, Note_off_c, 0, 60, 69
1, 92843, Note_off_c, 0, 51, 68
1, 92851, Control_c, 0, 64, 127
1, 92858, Note_off_c, 0, 75, 69
1, 92860, Note_off_c, 0, 63, 64
1, 92965, Note_on_c, 0, 63, 61
1, 92983, Note_off_c, 0, 63, 65
1, 92991, Note_on_c, 0, 62, 52
1, 93018, Note_off_c, 0, 62, 53
1, 93045, Note_on_c, 0, 63, 74
1, 93093, Note_off_c, 0, 63, 60
1, 93138, Note_on_c, 0, 63, 72
1, 93160, Poly_aftertouch_c, 0, 62, 127
1, 93164, Note_on_c, 0, 62, 3
1, 93177, Note_off_c, 0, 63, 63
1, 93226, Note_off_c, 0, 62, 0
1, 93232, Note_on_c, 0, 63, 79
1, 93241, Note_on_c, 0, 62, 39
1, 93255, Note_off_c, 0, 63, 67
1, 93279, Note_off_c, 0, 62, 46
1, 93309, Note_on_c, 0, 63, 93
1, 93341, Control_c, 0, 64, 106
1, 93342, Note_off_c, 0, 63, 59
1, 93356, Control_c, 0, 64, 72
1, 93371, Control_c, 0, 64, 0
1, 93373, Note_on_c, 0, 57, 97
1, 93377, Note_on_c, 0, 51, 80
1, 93385, Note_on_c, 0, 45, 68
1, 93389, Note_on_c, 0, 63, 98
1, 93389, Note_on_c, 0, 75, 91
1, 93400, Control_c, 0, 64, 72
1, 93407, Note_on_c, 0, 73, 71
1, 93423, Control_c, 0, 64, 127
1, 93423, Note_off_c, 0, 75, 69
1, 93426, Note_off_c, 0, 45, 48
1, 93428, Note_off_c, 0, 57, 58
1, 93435, Note_off_c, 0, 73, 42
1, 93436, Note_off_c, 0, 63, 60
1, 93501, Note_off_c, 0, 51, 60
1, 93508, Note_on_c, 0, 63, 76
1, 93536, Note_off_c, 0, 63, 62
1, 93540, Note_on_c, 0, 62, 46
1, 93605, Note_on_c, 0, 63, 68
1, 93608, Note_off_c, 0, 62, 0
1, 93629, Note_off_c, 0, 63, 66
1, 93645, Poly_aftertouch_c, 0, 62, 127
1, 93679, Note_on_c, 0, 63, 84
1, 93693, Poly_aftertouch_c, 0, 62, 0
1, 93712, Note_off_c, 0, 63, 61
1, 93757, Note_on_c, 0, 63, 85
1, 93793, Note_off_c, 0, 63, 65
1, 93846, Note_on_c, 0, 63, 99
1, 93849, Note_on_c, 0, 75, 91
1, 93879, Note_off_c, 0, 63, 61
1, 93888, Note_off_c, 0, 75, 63
1, 93897, Control_c, 0, 64, 113
1, 93912, Control_c, 0, 64, 68
1, 93926, Control_c, 0, 64, 0
1, 93941, Note_on_c, 0, 54, 94
1, 93949, Note_on_c, 0, 42, 81
1, 93950, Note_on_c, 0, 63, 100
1, 93950, Note_on_c, 0, 75, 94
1, 93952, Note_on_c, 0, 51, 74
1, 93985, Control_c, 0, 64, 92
1, 93996, Note_off_c, 0, 42, 64
1, 94001, Control_c, 0, 64, 127
1, 94013, Note_off_c, 0, 63, 64
1, 94014, Note_off_c, 0, 51, 43
1, 94042, Note_off_c, 0, 75, 65
1, 94048, Note_off_c, 0, 54, 59
1, 94106, Note_on_c, 0, 62, 70
1, 94142, Note_off_c, 0, 62, 51
1, 94210, Note_on_c, 0, 74, 73
1, 94234, Note_off_c, 0, 74, 70
1, 94267, Note_on_c, 0, 50, 70
1, 94296, Note_on_c, 0, 74, 80
1, 94320, Note_off_c, 0, 50, 61
1, 94351, Note_off_c, 0, 74, 63
1, 94357, Note_on_c, 0, 62, 72
1, 94380, Note_on_c, 0, 86, 75
1, 94405, Note_off_c, 0, 62, 53
1, 94412, Note_off_c, 0, 86, 64
1, 94448, Note_on_c, 0, 50, 81
1, 94472, Note_on_c, 0, 86, 90
1, 94516, Note_off_c, 0, 50, 60
1, 94522, Note_on_c, 0, 62, 85
1, 94528, Note_off_c, 0, 86, 64
1, 94551, Note_on_c, 0, 98, 101
1, 94579, Note_off_c, 0, 62, 59
1, 94611, Note_off_c, 0, 98, 69
1, 94615, Note_on_c, 0, 50, 84
1, 94639, Note_on_c, 0, 86, 81
1, 94681, Note_off_c, 0, 86, 65
1, 94690, Note_on_c, 0, 62, 80
1, 94721, Note_off_c, 0, 50, 62
1, 94736, Note_off_c, 0, 62, 62
1, 94767, Note_on_c, 0, 86, 75
1, 94801, Note_off_c, 0, 86, 63
1, 94817, Note_on_c, 0, 59, 97
1, 94826, Note_on_c, 0, 50, 79
1, 94829, Note_on_c, 0, 47, 81
1, 94836, Note_on_c, 0, 74, 85
1, 94857, Note_off_c, 0, 74, 71
1, 94895, Poly_aftertouch_c, 0, 54, 127
1, 94949, Poly_aftertouch_c, 0, 54, 0
1, 94952, Note_on_c, 0, 74, 82
1, 95024, Note_off_c, 0, 47, 30
1, 95032, Note_on_c, 0, 62, 83
1, 95054, Note_off_c, 0, 59, 57
1, 95060, Note_off_c, 0, 74, 35
1, 95060, Note_off_c, 0, 50, 61
1, 95069, Note_off_c, 0, 62, 58
1, 95113, Control_c, 0, 64, 79
1, 95128, Control_c, 0, 64, 0
1, 95138, Note_on_c, 0, 60, 101
1, 95146, Note_on_c, 0, 48, 86
1, 95150, Note_on_c, 0, 51, 80
1, 95150, Note_on_c, 0, 63, 104
1, 95152, Note_on_c, 0, 75, 91
1, 95187, Control_c, 0, 64, 71
1, 95197, Note_off_c, 0, 63, 61
1, 95198, Note_off_c, 0, 75, 67
1, 95202, Control_c, 0, 64, 95
1, 95215, Note_off_c, 0, 60, 0
1, 95216, Control_c, 0, 64, 127
1, 95221, Note_off_c, 0, 48, 56
1, 95257, Note_off_c, 0, 51, 62
1, 95285, Poly_aftertouch_c, 0, 60, 0
1, 95298, Note_on_c, 0, 63, 67
1, 95318, Note_on_c, 0, 62, 54
1, 95321, Note_off_c, 0, 63, 68
1, 95393, Note_on_c, 0, 63, 70
1, 95408, Note_off_c, 0, 62, 58
1, 95414, Note_off_c, 0, 63, 71
1, 95464, Note_on_c, 0, 62, 58
1, 95465, Note_on_c, 0, 63, 80
1, 95490, Note_off_c, 0, 63, 66
1, 95492, Note_off_c, 0, 62, 63
1, 95557, Note_on_c, 0, 62, 62
1, 95557, Note_on_c, 0, 63, 72
1, 95573, Note_off_c, 0, 62, 67
1, 95575, Note_off_c, 0, 63, 68
1, 95628, Note_on_c, 0, 63, 89
1, 95636, Note_on_c, 0, 62, 57
1, 95655, Note_off_c, 0, 62, 63
1, 95677, Note_off_c, 0, 63, 63
1, 95684, Control_c, 0, 64, 90
1, 95699, Control_c, 0, 64, 65
1, 95707, Note_on_c, 0, 57, 94
1, 95711, Note_on_c, 0, 51, 82
1, 95714, Control_c, 0, 64, 0
1, 95719, Note_on_c, 0, 45, 77
1, 95722, Note_on_c, 0, 75, 95
1, 95724, Note_on_c, 0, 63, 92
1, 95743, Control_c, 0, 64, 56
1, 95758, Control_c, 0, 64, 74
1, 95766, Note_off_c, 0, 75, 67
1, 95769, Note_off_c, 0, 63, 60
1, 95773, Control_c, 0, 64, 101
1, 95788, Control_c, 0, 64, 127
1, 95830, Note_on_c, 0, 63, 75
1, 95856, Note_on_c, 0, 62, 53
1, 95867, Note_off_c, 0, 63, 58
1, 95879, Note_off_c, 0, 62, 60
1, 95908, Note_off_c, 0, 57, 57
1, 95918, Note_off_c, 0, 51, 58
1, 95927, Note_on_c, 0, 63, 65
1, 95940, Note_on_c, 0, 62, 29
1, 95946, Note_off_c, 0, 45, 46
1, 95948, Note_off_c, 0, 63, 70
1, 95978, Note_off_c, 0, 62, 51
1, 96011, Note_on_c, 0, 63, 79
1, 96038, Note_off_c, 0, 63, 65
1, 96086, Note_on_c, 0, 63, 83
1, 96126, Note_off_c, 0, 63, 61
1, 96178, Note_on_c, 0, 75, 88
1, 96220, Note_on_c, 0, 63, 20
1, 96225, Note_off_c, 0, 75, 63
1, 96246, Control_c, 0, 64, 85
1, 96255, Note_off_c, 0, 63, 53
1, 96261, Control_c, 0, 64, 56
1, 96276, Control_c, 0, 64, 0
1, 96279, Note_on_c, 0, 54, 97
1, 96286, Note_on_c, 0, 42, 83
1, 96291, Note_on_c, 0, 50, 68
1, 96291, Note_on_c, 0, 62, 88
1, 96315, Note_off_c, 0, 42, 67
1, 96320, Note_off_c, 0, 50, 66
1, 96321, Control_c, 0, 64, 65
1, 96324, Note_off_c, 0, 54, 44
1, 96335, Control_c, 0, 64, 81
1, 96346, Note_on_c, 0, 68, 7
1, 96350, Control_c, 0, 64, 127
1, 96355, Note_off_c, 0, 62, 58
1, 96395, Note_off_c, 0, 68, 50
1, 96409, Note_on_c, 0, 74, 79
1, 96461, Note_off_c, 0, 74, 66
1, 96517, Note_on_c, 0, 74, 81
1, 96568, Note_off_c, 0, 74, 64
1, 96577, Note_on_c, 0, 62, 68
1, 96600, Note_off_c, 0, 62, 68
1, 96601, Note_on_c, 0, 86, 77
1, 96634, Note_off_c, 0, 86, 63
1, 96671, Note_on_c, 0, 62, 69
1, 96698, Note_off_c, 0, 62, 65
1, 96700, Note_on_c, 0, 86, 79
1, 96743, Note_off_c, 0, 86, 63
1, 96765, Note_on_c, 0, 62, 67
1, 96782, Note_on_c, 0, 98, 82
1, 96803, Note_off_c, 0, 62, 60
1, 96833, Note_off_c, 0, 98, 64
1, 96870, Note_on_c, 0, 86, 70
1, 96872, Note_on_c, 0, 62, 56
1, 96900, Note_off_c, 0, 62, 63
1, 96900, Note_off_c, 0, 86, 53
1, 96988, Note_on_c, 0, 62, 51
1, 96997, Note_on_c, 0, 86, 63
1, 97024, Note_off_c, 0, 86, 67
1, 97042, Note_off_c, 0, 62, 47
1, 97094, Note_on_c, 0, 74, 54
1, 97117, Note_off_c, 0, 74, 62
1, 97181, Control_c, 0, 64, 118
1, 97197, Control_c, 0, 64, 91
1, 97212, Control_c, 0, 64, 71
1, 97221, Note_on_c, 0, 54, 41
1, 97226, Control_c, 0, 64, 0
1, 97231, Note_on_c, 0, 74, 46
1, 97234, Note_on_c, 0, 69, 52
1, 97330, Control_c, 0, 64, 45
1, 97346, Control_c, 0, 64, 63
1, 97358, Note_off_c, 0, 74, 39
1, 97361, Control_c, 0, 64, 68
1, 97375, Control_c, 0, 64, 73
1, 97390, Control_c, 0, 64, 79
1, 97405, Control_c, 0, 64, 84
1, 97409, Note_on_c, 0, 62, 48
1, 97419, Control_c, 0, 64, 89
1, 97434, Control_c, 0, 64, 91
1, 97449, Control_c, 0, 64, 92
1, 97464, Control_c, 0, 64, 93
1, 97466, Note_off_c, 0, 62, 51
1, 97479, Control_c, 0, 64, 93
1, 97480, Note_off_c, 0, 54, 19
1, 97489, Note_off_c, 0, 69, 60
1, 97512, Note_on_c, 0, 74, 67
1, 97538, Control_c, 0, 64, 92
1, 97553, Control_c, 0, 64, 87
1, 97567, Control_c, 0, 64, 79
1, 97582, Control_c, 0, 64, 69
1, 97593, Note_on_c, 0, 55, 60
1, 97597, Control_c, 0, 64, 59
1, 97604, Note_on_c, 0, 70, 70
1, 97612, Control_c, 0, 64, 55
1, 97620, Note_off_c, 0, 74, 37
1, 97626, Note_on_c, 0, 62, 43
1, 97626, Control_c, 0, 64, 64
1, 97641, Control_c, 0, 64, 68
1, 97656, Control_c, 0, 64, 72
1, 97668, Note_off_c, 0, 62, 49
1, 97671, Control_c, 0, 64, 76
1, 97686, Control_c, 0, 64, 81
1, 97701, Control_c, 0, 64, 86
1, 97716, Control_c, 0, 64, 89
1, 97728, Note_on_c, 0, 74, 70
1, 97731, Control_c, 0, 64, 90
1, 97745, Control_c, 0, 64, 91
1, 97762, Note_off_c, 0, 70, 48
1, 97790, Control_c, 0, 64, 90
1, 97796, Note_off_c, 0, 55, 64
1, 97802, Note_off_c, 0, 74, 54
1, 97805, Note_on_c, 0, 62, 67
1, 97819, Control_c, 0, 64, 88
1, 97834, Control_c, 0, 64, 82
1, 97836, Note_off_c, 0, 62, 61
1, 97849, Control_c, 0, 64, 74
1, 97864, Control_c, 0, 64, 65
1, 97879, Control_c, 0, 64, 49
1, 97886, Note_on_c, 0, 69, 72
1, 97893, Control_c, 0, 64, 55
1, 97901, Note_on_c, 0, 56, 46
1, 97901, Note_on_c, 0, 74, 79
1, 97915, Control_c, 0, 64, 65
1, 97930, Control_c, 0, 64, 70
1, 97931, Note_on_c, 0, 55, 53
1, 97939, Note_on_c, 0, 54, 63
1, 97942, Note_off_c, 0, 56, 54
1, 97945, Control_c, 0, 64, 75
1, 97960, Control_c, 0, 64, 81
1, 97975, Control_c, 0, 64, 88
1, 97990, Control_c, 0, 64, 97
1, 97995, Note_off_c, 0, 55, 64
1, 98005, Control_c, 0, 64, 101
1, 98008, Note_on_c, 0, 62, 62
1, 98017, Note_off_c, 0, 74, 43
1, 98020, Control_c, 0, 64, 101
1, 98069, Note_off_c, 0, 62, 58
1, 98074, Note_off_c, 0, 69, 57
1, 98108, Control_c, 0, 64, 99
1, 98116, Note_on_c, 0, 74, 81
1, 98122, Control_c, 0, 64, 92
1, 98137, Control_c, 0, 64, 81
1, 98152, Control_c, 0, 64, 71
1, 98167, Control_c, 0, 64, 61
1, 98181, Note_on_c, 0, 55, 69
1, 98182, Control_c, 0, 64, 27
1, 98196, Control_c, 0, 64, 46
1, 98201, Note_on_c, 0, 70, 72
1, 98207, Note_off_c, 0, 74, 53
1, 98211, Control_c, 0, 64, 63
1, 98225, Note_on_c, 0, 62, 50
1, 98226, Control_c, 0, 64, 67
1, 98240, Control_c, 0, 64, 71
1, 98255, Control_c, 0, 64, 76
1, 98270, Control_c, 0, 64, 83
1, 98273, Note_off_c, 0, 62, 55
1, 98285, Control_c, 0, 64, 87
1, 98300, Note_off_c, 0, 54, 59
1, 98300, Control_c, 0, 64, 87
1, 98322, Note_on_c, 0, 74, 75
1, 98347, Note_off_c, 0, 70, 57
1, 98386, Note_off_c, 0, 74, 57
1, 98389, Control_c, 0, 64, 86
1, 98404, Control_c, 0, 64, 82
1, 98414, Note_on_c, 0, 62, 57
1, 98419, Control_c, 0, 64, 75
1, 98434, Control_c, 0, 64, 66
1, 98448, Control_c, 0, 64, 52
1, 98450, Note_off_c, 0, 62, 56
1, 98453, Note_off_c, 0, 55, 60
1, 98463, Control_c, 0, 64, 0
1, 98465, Note_on_c, 0, 56, 64
1, 98481, Note_on_c, 0, 71, 70
1, 98493, Control_c, 0, 64, 47
1, 98497, Note_on_c, 0, 74, 71
1, 98507, Control_c, 0, 64, 63
1, 98522, Control_c, 0, 64, 68
1, 98537, Control_c, 0, 64, 73
1, 98552, Control_c, 0, 64, 80
1, 98566, Control_c, 0, 64, 84
1, 98581, Control_c, 0, 64, 85
1, 98594, Note_on_c, 0, 62, 51
1, 98596, Control_c, 0, 64, 86
1, 98600, Note_off_c, 0, 74, 38
1, 98625, Note_off_c, 0, 71, 61
1, 98638, Note_off_c, 0, 62, 57
1, 98678, Control_c, 0, 64, 85
1, 98693, Control_c, 0, 64, 84
1, 98707, Note_on_c, 0, 74, 57
1, 98708, Control_c, 0, 64, 82
1, 98722, Control_c, 0, 64, 79
1, 98737, Control_c, 0, 64, 74
1, 98739, Note_off_c, 0, 56, 34
1, 98752, Control_c, 0, 64, 67
1, 98766, Control_c, 0, 64, 59
1, 98781, Control_c, 0, 64, 0
1, 98791, Note_on_c, 0, 57, 45
1, 98797, Note_on_c, 0, 72, 60
1, 98806, Note_on_c, 0, 62, 46
1, 98810, Note_off_c, 0, 74, 55
1, 98857, Control_c, 0, 64, 50
1, 98858, Note_off_c, 0, 62, 56
1, 98871, Control_c, 0, 64, 63
1, 98886, Control_c, 0, 64, 68
1, 98901, Control_c, 0, 64, 73
1, 98916, Control_c, 0, 64, 78
1, 98931, Control_c, 0, 64, 82
1, 98937, Note_on_c, 0, 74, 51
1, 98945, Control_c, 0, 64, 84
1, 98960, Control_c, 0, 64, 85
1, 98975, Control_c, 0, 64, 86
1, 98989, Control_c, 0, 64, 86
1, 99005, Note_off_c, 0, 74, 57
1, 99016, Note_on_c, 0, 62, 38
1, 99075, Note_off_c, 0, 62, 51
1, 99093, Note_off_c, 0, 72, 41
1, 99100, Note_on_c, 0, 74, 54
1, 99144, Note_off_c, 0, 74, 58
1, 99199, Note_on_c, 0, 62, 42
1, 99230, Note_off_c, 0, 62, 54
1, 99242, Control_c, 0, 64, 87
1, 99242, Note_off_c, 0, 57, 41
1, 99257, Control_c, 0, 64, 87
1, 99269, Note_on_c, 0, 74, 63
1, 99271, Control_c, 0, 64, 88
1, 99316, Control_c, 0, 64, 87
1, 99331, Control_c, 0, 64, 81
1, 99345, Control_c, 0, 64, 69
1, 99360, Control_c, 0, 64, 0
1, 99362, Note_off_c, 0, 74, 55
1, 99371, Note_on_c, 0, 62, 35
1, 99372, Note_on_c, 0, 58, 43
1, 99375, Note_on_c, 0, 73, 60
1, 99421, Note_off_c, 0, 62, 46
1, 99442, Control_c, 0, 64, 28
1, 99456, Control_c, 0, 64, 67
1, 99471, Control_c, 0, 64, 74
1, 99486, Control_c, 0, 64, 81
1, 99495, Note_on_c, 0, 74, 55
1, 99501, Control_c, 0, 64, 86
1, 99516, Control_c, 0, 64, 88
1, 99540, Note_off_c, 0, 73, 37
1, 99563, Note_off_c, 0, 74, 44
1, 99589, Note_on_c, 0, 62, 29
1, 99591, Control_c, 0, 64, 88
1, 99606, Control_c, 0, 64, 89
1, 99620, Control_c, 0, 64, 90
1, 99626, Note_off_c, 0, 62, 51
1, 99635, Control_c, 0, 64, 91
1, 99679, Note_on_c, 0, 74, 51
1, 99687, Note_off_c, 0, 58, 40
1, 99712, Note_off_c, 0, 74, 50
1, 99741, Note_on_c, 0, 62, 43
1, 99768, Control_c, 0, 64, 91
1, 99783, Control_c, 0, 64, 90
1, 99798, Control_c, 0, 64, 90
1, 99807, Note_on_c, 0, 58, 45
1, 99812, Control_c, 0, 64, 89
1, 99812, Control_c, 0, 67, 10
1, 99827, Control_c, 0, 67, 15
1, 99842, Control_c, 0, 64, 88
1, 99842, Control_c, 0, 67, 23
1, 99856, Note_on_c, 0, 73, 55
1, 99857, Control_c, 0, 64, 88
1, 99857, Control_c, 0, 67, 32
1, 99866, Note_off_c, 0, 62, 30
1, 99872, Control_c, 0, 64, 87
1, 99872, Control_c, 0, 67, 40
1, 99886, Control_c, 0, 64, 87
1, 99886, Control_c, 0, 67, 45
1, 99901, Control_c, 0, 64, 86
1, 99901, Control_c, 0, 67, 48
1, 99916, Control_c, 0, 64, 85
1, 99916, Control_c, 0, 67, 52
1, 99931, Control_c, 0, 64, 84
1, 99931, Control_c, 0, 67, 57
1, 99942, Note_off_c, 0, 58, 32
1, 99946, Control_c, 0, 64, 81
1, 99946, Control_c, 0, 67, 58
1, 99960, Control_c, 0, 64, 77
1, 99960, Control_c, 0, 67, 59
1, 99975, Control_c, 0, 64, 70
1, 99975, Control_c, 0, 67, 60
1, 99987, Note_off_c, 0, 73, 56
1, 99990, Control_c, 0, 64, 60
1, 99990, Control_c, 0, 67, 62
1, 99996, Note_on_c, 0, 59, 39
1, 100005, Control_c, 0, 64, 0
1, 100014, Note_on_c, 0, 74, 51
1, 100020, Control_c, 0, 67, 62
1, 100065, Control_c, 0, 64, 36
1, 100067, Note_off_c, 0, 74, 55
1, 100079, Control_c, 0, 64, 62
1, 100094, Control_c, 0, 64, 67
1, 100109, Control_c, 0, 64, 73
1, 100124, Control_c, 0, 64, 78
1, 100139, Control_c, 0, 64, 83
1, 100154, Control_c, 0, 64, 86
1, 100167, Note_on_c, 0, 62, 28
1, 100171, Note_on_c, 0, 74, 31
1, 100175, Control_c, 0, 64, 88
1, 100190, Control_c, 0, 64, 89
1, 100205, Control_c, 0, 64, 90
1, 100220, Control_c, 0, 64, 92
1, 100225, Note_off_c, 0, 74, 0
1, 100228, Note_off_c, 0, 62, 0
1, 100235, Control_c, 0, 64, 92
1, 100241, Note_on_c, 0, 74, 44
1, 100243, Note_on_c, 0, 62, 31
1, 100264, Control_c, 0, 67, 62
1, 100278, Note_off_c, 0, 74, 64
1, 100279, Control_c, 0, 64, 93
1, 100279, Control_c, 0, 67, 61
1, 100283, Note_off_c, 0, 62, 46
1, 100330, Note_on_c, 0, 62, 49
1, 100336, Note_on_c, 0, 74, 60
1, 100339, Control_c, 0, 67, 62
1, 100354, Control_c, 0, 64, 92
1, 100358, Note_off_c, 0, 62, 58
1, 100369, Note_off_c, 0, 74, 65
1, 100369, Control_c, 0, 64, 92
1, 100384, Control_c, 0, 64, 90
1, 100400, Control_c, 0, 64, 89
1, 100415, Control_c, 0, 64, 87
1, 100430, Control_c, 0, 64, 85
1, 100430, Control_c, 0, 67, 63
1, 100434, Note_on_c, 0, 74, 59
1, 100436, Note_on_c, 0, 62, 50
1, 100444, Control_c, 0, 64, 85
1, 100444, Control_c, 0, 67, 63
1, 100457, Note_off_c, 0, 62, 60
1, 100467, Note_off_c, 0, 74, 63
1, 100521, Note_on_c, 0, 74, 71
1, 100538, Note_on_c, 0, 62, 48
1, 100549, Note_off_c, 0, 74, 66
1, 100560, Note_off_c, 0, 62, 59
1, 100563, Control_c, 0, 64, 84
1, 100578, Control_c, 0, 64, 82
1, 100592, Control_c, 0, 64, 81
1, 100622, Control_c, 0, 64, 81
1, 100625, Note_on_c, 0, 74, 67
1, 100626, Note_on_c, 0, 62, 54
1, 100637, Control_c, 0, 64, 82
1, 100642, Note_off_c, 0, 74, 66
1, 100648, Note_off_c, 0, 62, 61
1, 100652, Control_c, 0, 64, 84
1, 100667, Control_c, 0, 64, 86
1, 100682, Control_c, 0, 64, 86
1, 100705, Note_on_c, 0, 74, 75
1, 100711, Control_c, 0, 64, 88
1, 100711, Control_c, 0, 67, 63
1, 100715, Note_on_c, 0, 62, 59
1, 100726, Control_c, 0, 64, 90
1, 100726, Control_c, 0, 67, 62
1, 100735, Note_off_c, 0, 62, 62
1, 100741, Control_c, 0, 64, 92
1, 100741, Control_c, 0, 67, 61
1, 100749, Note_off_c, 0, 74, 54
1, 100755, Control_c, 0, 64, 94
1, 100770, Control_c, 0, 64, 95
1, 100785, Control_c, 0, 64, 95
1, 100799, Note_on_c, 0, 74, 53
1, 100800, Control_c, 0, 64, 96
1, 100800, Control_c, 0, 67, 63
1, 100811, Note_on_c, 0, 62, 58
1, 100815, Control_c, 0, 64, 96
1, 100815, Control_c, 0, 67, 66
1, 100829, Control_c, 0, 67, 75
1, 100835, Note_off_c, 0, 62, 57
1, 100844, Control_c, 0, 67, 89
1, 100859, Control_c, 0, 67, 97
1, 100874, Control_c, 0, 64, 97
1, 100874, Control_c, 0, 67, 100
1, 100889, Control_c, 0, 67, 103
1, 100900, Note_on_c, 0, 62, 65
1, 100904, Control_c, 0, 64, 97
1, 100904, Control_c, 0, 67, 108
1, 100923, Note_off_c, 0, 62, 69
1, 100926, Control_c, 0, 67, 111
1, 100941, Control_c, 0, 64, 98
1, 100941, Control_c, 0, 67, 111
1, 100950, Note_off_c, 0, 74, 58
1, 100956, Control_c, 0, 67, 112
1, 100992, Note_on_c, 0, 62, 63
1, 100995, Note_on_c, 0, 74, 53
1, 101000, Control_c, 0, 64, 97
1, 101022, Note_off_c, 0, 62, 64
1, 101033, Note_off_c, 0, 74, 62
1, 101059, Control_c, 0, 64, 96
1, 101074, Control_c, 0, 64, 94
1, 101089, Note_on_c, 0, 62, 70
1, 101089, Control_c, 0, 64, 90
1, 101097, Note_on_c, 0, 74, 61
1, 101104, Control_c, 0, 64, 85
1, 101111, Note_off_c, 0, 62, 67
1, 101118, Control_c, 0, 64, 81
1, 101129, Note_off_c, 0, 74, 64
1, 101133, Control_c, 0, 64, 80
1, 101133, Control_c, 0, 67, 111
1, 101148, Control_c, 0, 64, 80
1, 101148, Control_c, 0, 67, 110
1, 101162, Control_c, 0, 64, 82
1, 101177, Control_c, 0, 64, 83
1, 101179, Note_on_c, 0, 62, 69
1, 101186, Note_on_c, 0, 74, 64
1, 101193, Control_c, 0, 64, 85
1, 101207, Note_off_c, 0, 62, 66
1, 101208, Control_c, 0, 64, 87
1, 101220, Note_off_c, 0, 74, 62
1, 101223, Control_c, 0, 64, 90
1, 101238, Control_c, 0, 64, 92
1, 101253, Control_c, 0, 64, 93
1, 101281, Note_on_c, 0, 62, 62
1, 101282, Control_c, 0, 67, 110
1, 101286, Note_on_c, 0, 74, 63
1, 101296, Note_off_c, 0, 62, 66
1, 101308, Note_off_c, 0, 74, 58
1, 101341, Control_c, 0, 67, 109
1, 101356, Control_c, 0, 64, 91
1, 101362, Note_on_c, 0, 62, 58
1, 101363, Note_off_c, 0, 59, 37
1, 101371, Control_c, 0, 64, 87
1, 101382, Note_on_c, 0, 74, 66
1, 101382, Note_off_c, 0, 62, 62
1, 101385, Control_c, 0, 64, 82
1, 101400, Control_c, 0, 64, 79
1, 101403, Note_off_c, 0, 74, 61
1, 101426, Note_on_c, 0, 52, 62
1, 101430, Control_c, 0, 64, 81
1, 101445, Control_c, 0, 64, 84
1, 101448, Note_on_c, 0, 67, 53
1, 101457, Note_on_c, 0, 73, 75
1, 101460, Control_c, 0, 64, 87
1, 101460, Note_on_c, 0, 64, 57
1, 101475, Control_c, 0, 64, 90
1, 101481, Note_off_c, 0, 64, 62
1, 101489, Note_off_c, 0, 73, 61
1, 101489, Control_c, 0, 64, 91
1, 101492, Note_off_c, 0, 67, 57
1, 101546, Note_on_c, 0, 67, 44
1, 101561, Note_on_c, 0, 64, 57
1, 101565, Note_off_c, 0, 52, 56
1, 101578, Note_off_c, 0, 64, 66
1, 101588, Note_off_c, 0, 67, 61
1, 101618, Note_on_c, 0, 73, 31
1, 101623, Control_c, 0, 64, 90
1, 101634, Note_on_c, 0, 64, 82
1, 101638, Control_c, 0, 64, 86
1, 101659, Control_c, 0, 64, 81
1, 101669, Note_off_c, 0, 64, 66
1, 101674, Control_c, 0, 64, 75
1, 101679, Note_off_c, 0, 73, 63
1, 101689, Control_c, 0, 64, 70
1, 101704, Control_c, 0, 64, 71
1, 101719, Control_c, 0, 64, 74
1, 101731, Note_on_c, 0, 54, 77
1, 101734, Control_c, 0, 64, 77
1, 101749, Control_c, 0, 64, 81
1, 101755, Note_on_c, 0, 62, 58
1, 101761, Note_on_c, 0, 66, 48
1, 101761, Note_on_c, 0, 71, 65
1, 101764, Control_c, 0, 64, 84
1, 101776, Note_off_c, 0, 62, 63
1, 101779, Control_c, 0, 64, 88
1, 101787, Note_off_c, 0, 71, 67
1, 101793, Control_c, 0, 64, 90
1, 101794, Note_off_c, 0, 66, 62
1, 101841, Note_off_c, 0, 54, 37
1, 101846, Note_on_c, 0, 62, 62
1, 101861, Note_on_c, 0, 71, 61
1, 101863, Note_on_c, 0, 66, 47
1, 101866, Note_off_c, 0, 62, 64
1, 101866, Control_c, 0, 67, 109
1, 101877, Note_off_c, 0, 71, 68
1, 101891, Note_off_c, 0, 66, 56
1, 101926, Control_c, 0, 64, 86
1, 101936, Note_on_c, 0, 71, 69
1, 101940, Control_c, 0, 64, 79
1, 101942, Note_on_c, 0, 62, 57
1, 101955, Control_c, 0, 64, 70
1, 101961, Note_on_c, 0, 42, 62
1, 101970, Control_c, 0, 64, 63
1, 101972, Note_off_c, 0, 62, 62
1, 101988, Note_off_c, 0, 71, 57
1, 102001, Control_c, 0, 64, 66
1, 102015, Control_c, 0, 64, 69
1, 102016, Poly_aftertouch_c, 0, 66, 127
1, 102029, Note_on_c, 0, 54, 66
1, 102030, Control_c, 0, 64, 74
1, 102030, Control_c, 0, 67, 108
1, 102045, Control_c, 0, 64, 79
1, 102053, Note_on_c, 0, 70, 69
1, 102056, Note_on_c, 0, 61, 69
1, 102060, Control_c, 0, 64, 85
1, 102069, Note_off_c, 0, 42, 62
1, 102075, Control_c, 0, 64, 91
1, 102082, Note_off_c, 0, 61, 65
1, 102089, Note_off_c, 0, 70, 56
1, 102089, Control_c, 0, 64, 94
1, 102101, Poly_aftertouch_c, 0, 66, 0
1, 102104, Control_c, 0, 67, 108
1, 102119, Control_c, 0, 67, 107
1, 102128, Note_off_c, 0, 54, 64
1, 102134, Control_c, 0, 67, 106
1, 102149, Control_c, 0, 67, 105
1, 102150, Note_on_c, 0, 61, 59
1, 102154, Note_on_c, 0, 70, 51
1, 102163, Control_c, 0, 67, 102
1, 102173, Note_off_c, 0, 61, 60
1, 102178, Control_c, 0, 67, 100
1, 102186, Note_off_c, 0, 70, 62
1, 102193, Control_c, 0, 67, 98
1, 102208, Control_c, 0, 67, 95
1, 102214, Poly_aftertouch_c, 0, 66, 127
1, 102223, Control_c, 0, 67, 89
1, 102223, Note_on_c, 0, 47, 60
1, 102238, Control_c, 0, 67, 80
1, 102253, Control_c, 0, 67, 73
1, 102256, Note_on_c, 0, 70, 64
1, 102262, Note_on_c, 0, 61, 55
1, 102267, Control_c, 0, 67, 68
1, 102282, Control_c, 0, 67, 65
1, 102297, Control_c, 0, 67, 64
1, 102306, Note_off_c, 0, 61, 58
1, 102312, Control_c, 0, 64, 93
1, 102312, Control_c, 0, 67, 63
1, 102327, Control_c, 0, 67, 61
1, 102330, Note_on_c, 0, 54, 62
1, 102342, Control_c, 0, 64, 93
1, 102342, Control_c, 0, 67, 56
1, 102356, Control_c, 0, 64, 92
1, 102356, Control_c, 0, 67, 50
1, 102369, Poly_aftertouch_c, 0, 66, 0
1, 102371, Control_c, 0, 67, 46
1, 102373, Note_off_c, 0, 70, 44
1, 102386, Control_c, 0, 64, 91
1, 102386, Control_c, 0, 67, 44
1, 102408, Control_c, 0, 64, 87
1, 102408, Control_c, 0, 67, 43
1, 102422, Control_c, 0, 64, 81
1, 102437, Control_c, 0, 64, 74
1, 102452, Control_c, 0, 64, 64
1, 102452, Control_c, 0, 67, 42
1, 102467, Control_c, 0, 64, 0
1, 102467, Control_c, 0, 67, 42
1, 102482, Note_on_c, 0, 71, 55
1, 102482, Control_c, 0, 67, 40
1, 102497, Control_c, 0, 67, 37
1, 102506, Note_on_c, 0, 59, 76
1, 102512, Control_c, 0, 67, 34
1, 102527, Control_c, 0, 67, 31
1, 102538, Poly_aftertouch_c, 0, 62, 127
1, 102538, Poly_aftertouch_c, 0, 66, 127
1, 102542, Control_c, 0, 67, 25
1, 102556, Control_c, 0, 67, 19
1, 102571, Control_c, 0, 64, 55
1, 102571, Control_c, 0, 67, 13
1, 102586, Note_off_c, 0, 71, 56
1, 102586, Control_c, 0, 64, 63
1, 102586, Control_c, 0, 67, 8
1, 102601, Control_c, 0, 64, 66
1, 102601, Control_c, 0, 67, 0
1, 102615, Control_c, 0, 64, 68
1, 102620, Poly_aftertouch_c, 0, 62, 0
1, 102630, Control_c, 0, 64, 70
1, 102645, Control_c, 0, 64, 71
1, 102647, Poly_aftertouch_c, 0, 66, 0
1, 102660, Control_c, 0, 64, 72
1, 102675, Control_c, 0, 64, 74
1, 102689, Control_c, 0, 64, 76
1, 102703, Note_on_c, 0, 71, 63
1, 102704, Control_c, 0, 64, 80
1, 102719, Control_c, 0, 64, 84
1, 102730, Note_on_c, 0, 62, 15
1, 102733, Control_c, 0, 64, 88
1, 102744, Note_on_c, 0, 66, 6
1, 102748, Control_c, 0, 64, 92
1, 102758, Note_off_c, 0, 71, 53
1, 102763, Control_c, 0, 64, 94
1, 102778, Note_off_c, 0, 59, 59
1, 102778, Note_off_c, 0, 62, 37
1, 102809, Control_c, 0, 64, 93
1, 102829, Note_on_c, 0, 62, 30
1, 102833, Note_on_c, 0, 71, 32
1, 102867, Note_off_c, 0, 71, 51
1, 102867, Note_off_c, 0, 62, 44
1, 102883, Control_c, 0, 64, 93
1, 102898, Control_c, 0, 64, 92
1, 102913, Note_on_c, 0, 59, 77
1, 102919, Note_off_c, 0, 66, 0
1, 102932, Note_on_c, 0, 71, 52
1, 102934, Note_on_c, 0, 66, 34
1, 102941, Note_on_c, 0, 62, 37
1, 102953, Note_off_c, 0, 47, 41
1, 102965, Note_off_c, 0, 71, 65
1, 102972, Note_off_c, 0, 62, 50
1, 102974, Note_off_c, 0, 66, 59
1, 102976, Note_off_c, 0, 59, 63
1, 102983, Note_off_c, 0, 54, 57
1, 103060, Note_on_c, 0, 71, 44
1, 103064, Note_on_c, 0, 62, 35
1, 103067, Note_on_c, 0, 66, 30
1, 103087, Note_off_c, 0, 71, 58
1, 103107, Note_off_c, 0, 66, 42
1, 103131, Note_off_c, 0, 62, 0
1, 103135, Control_c, 0, 64, 93
1, 103144, Note_on_c, 0, 62, 40
1, 103147, Note_on_c, 0, 71, 55
1, 103156, Control_c, 0, 64, 93
1, 103162, Note_on_c, 0, 66, 38
1, 103171, Control_c, 0, 64, 94
1, 103178, Note_off_c, 0, 62, 58
1, 103184, Note_off_c, 0, 71, 62
1, 103186, Control_c, 0, 64, 95
1, 103193, Note_off_c, 0, 66, 54
1, 103245, Control_c, 0, 64, 95
1, 103258, Note_on_c, 0, 71, 59
1, 103260, Control_c, 0, 64, 96
1, 103263, Note_on_c, 0, 62, 41
1, 103273, Note_on_c, 0, 66, 37
1, 103275, Control_c, 0, 64, 97
1, 103276, Note_off_c, 0, 71, 65
1, 103290, Control_c, 0, 64, 98
1, 103296, Note_off_c, 0, 62, 51
1, 103308, Note_off_c, 0, 66, 46
1, 103347, Note_on_c, 0, 71, 62
1, 103365, Note_on_c, 0, 62, 44
1, 103367, Note_on_c, 0, 66, 28
1, 103394, Note_off_c, 0, 62, 52
1, 103409, Note_off_c, 0, 66, 44
1, 103439, Control_c, 0, 64, 97
1, 103449, Note_on_c, 0, 66, 43
1, 103454, Control_c, 0, 64, 94
1, 103459, Note_on_c, 0, 62, 42
1, 103469, Control_c, 0, 64, 90
1, 103484, Control_c, 0, 64, 86
1, 103490, Note_off_c, 0, 62, 51
1, 103493, Note_off_c, 0, 66, 58
1, 103496, Note_off_c, 0, 71, 60
1, 103499, Control_c, 0, 64, 82
1, 103513, Control_c, 0, 64, 82
1, 103528, Control_c, 0, 64, 86
1, 103543, Control_c, 0, 64, 89
1, 103557, Control_c, 0, 64, 90
1, 103564, Note_on_c, 0, 54, 87
1, 103572, Control_c, 0, 64, 91
1, 103584, Note_on_c, 0, 69, 68
1, 103588, Control_c, 0, 64, 93
1, 103601, Note_on_c, 0, 63, 50
1, 103603, Control_c, 0, 64, 95
1, 103618, Control_c, 0, 64, 96
1, 103620, Note_off_c, 0, 54, 62
1, 103627, Note_on_c, 0, 66, 19
1, 103628, Note_off_c, 0, 69, 53
1, 103641, Note_off_c, 0, 63, 53
1, 103648, Control_c, 0, 64, 97
1, 103662, Control_c, 0, 64, 98
1, 103665, Note_off_c, 0, 66, 50
1, 103677, Control_c, 0, 64, 99
1, 103692, Control_c, 0, 64, 100
1, 103707, Control_c, 0, 64, 100
1, 103728, Note_on_c, 0, 69, 63
1, 103736, Control_c, 0, 64, 101
1, 103740, Note_on_c, 0, 63, 34
1, 103758, Note_off_c, 0, 69, 59
1, 103770, Note_off_c, 0, 63, 54
1, 103772, Note_on_c, 0, 66, 5
1, 103773, Note_on_c, 0, 54, 86
1, 103815, Note_off_c, 0, 54, 68
1, 103840, Control_c, 0, 64, 100
1, 103847, Note_on_c, 0, 63, 65
1, 103854, Control_c, 0, 64, 100
1, 103863, Note_on_c, 0, 69, 61
1, 103869, Control_c, 0, 64, 99
1, 103884, Control_c, 0, 64, 99
1, 103886, Note_off_c, 0, 63, 59
1, 103888, Note_off_c, 0, 69, 63
1, 103891, Note_on_c, 0, 46, 48
1, 103891, Note_off_c, 0, 66, 28
1, 103899, Control_c, 0, 64, 98
1, 103931, Note_off_c, 0, 46, 63
1, 103931, Note_on_c, 0, 40, 56
1, 103936, Control_c, 0, 64, 98
1, 103951, Control_c, 0, 64, 97
1, 103966, Control_c, 0, 64, 97
1, 103979, Note_on_c, 0, 47, 69
1, 103981, Control_c, 0, 64, 96
1, 103983, Note_off_c, 0, 40, 57
1, 103995, Control_c, 0, 64, 96
1, 104010, Control_c, 0, 64, 95
1, 104025, Control_c, 0, 64, 94
1, 104040, Control_c, 0, 64, 93
1, 104053, Poly_aftertouch_c, 0, 63, 127
1, 104055, Control_c, 0, 64, 92
1, 104069, Control_c, 0, 64, 91
1, 104084, Control_c, 0, 64, 91
1, 104086, Note_on_c, 0, 52, 70
1, 104099, Control_c, 0, 64, 90
1, 104108, Note_on_c, 0, 67, 64
1, 104108, Poly_aftertouch_c, 0, 63, 0
1, 104114, Control_c, 0, 64, 87
1, 104119, Note_off_c, 0, 47, 60
1, 104120, Note_on_c, 0, 59, 52
1, 104121, Note_on_c, 0, 64, 37
1, 104128, Control_c, 0, 64, 83
1, 104143, Control_c, 0, 64, 73
1, 104158, Control_c, 0, 64, 56
1, 104164, Note_on_c, 0, 47, 31
1, 104173, Control_c, 0, 64, 0
1, 104211, Note_on_c, 0, 57, 78
1, 104247, Control_c, 0, 64, 27
1, 104262, Control_c, 0, 64, 60
1, 104277, Control_c, 0, 64, 68
1, 104279, Note_off_c, 0, 59, 53
1, 104279, Note_off_c, 0, 67, 51
1, 104292, Control_c, 0, 64, 74
1, 104306, Control_c, 0, 64, 80
1, 104309, Note_off_c, 0, 64, 40
1, 104321, Control_c, 0, 64, 85
1, 104336, Control_c, 0, 64, 88
1, 104351, Control_c, 0, 64, 90
1, 104366, Control_c, 0, 64, 92
1, 104380, Note_on_c, 0, 64, 43
1, 104381, Note_on_c, 0, 59, 52
1, 104381, Control_c, 0, 64, 93
1, 104386, Note_on_c, 0, 67, 50
1, 104407, Note_off_c, 0, 59, 62
1, 104422, Note_off_c, 0, 64, 59
1, 104426, Note_off_c, 0, 67, 59
1, 104482, Note_on_c, 0, 59, 65
1, 104490, Note_off_c, 0, 57, 50
1, 104499, Note_on_c, 0, 67, 50
1, 104500, Note_on_c, 0, 64, 41
1, 104514, Note_off_c, 0, 59, 62
1, 104515, Control_c, 0, 64, 92
1, 104530, Control_c, 0, 64, 92
1, 104539, Note_off_c, 0, 67, 58
1, 104541, Note_off_c, 0, 64, 53
1, 104545, Control_c, 0, 64, 89
1, 104559, Control_c, 0, 64, 85
1, 104574, Control_c, 0, 64, 79
1, 104589, Control_c, 0, 64, 75
1, 104598, Note_on_c, 0, 55, 73
1, 104599, Note_on_c, 0, 67, 48
1, 104603, Control_c, 0, 64, 75
1, 104604, Note_on_c, 0, 59, 53
1, 104607, Note_on_c, 0, 64, 39
1, 104618, Control_c, 0, 64, 76
1, 104623, Note_off_c, 0, 59, 62
1, 104633, Control_c, 0, 64, 77
1, 104635, Note_off_c, 0, 67, 58
1, 104645, Note_off_c, 0, 64, 58
1, 104648, Control_c, 0, 64, 79
1, 104670, Control_c, 0, 64, 81
1, 104685, Control_c, 0, 64, 83
1, 104691, Note_off_c, 0, 55, 62
1, 104700, Control_c, 0, 64, 84
1, 104718, Note_on_c, 0, 59, 46
1, 104742, Note_on_c, 0, 64, 45
1, 104745, Note_on_c, 0, 67, 33
1, 104755, Note_off_c, 0, 59, 60
1, 104777, Note_off_c, 0, 67, 51
1, 104785, Note_off_c, 0, 64, 57
1, 104786, Note_on_c, 0, 55, 80
1, 104850, Note_on_c, 0, 64, 44
1, 104864, Note_on_c, 0, 59, 39
1, 104864, Note_on_c, 0, 67, 48
1, 104879, Note_off_c, 0, 55, 62
1, 104895, Note_off_c, 0, 59, 52
1, 104906, Note_off_c, 0, 67, 59
1, 104915, Note_off_c, 0, 64, 53
1, 104966, Control_c, 0, 64, 83
1, 104981, Control_c, 0, 64, 82
1, 104992, Note_on_c, 0, 59, 57
1, 104994, Note_on_c, 0, 64, 41
1, 104996, Control_c, 0, 64, 80
1, 105004, Note_on_c, 0, 67, 54
1, 105007, Note_on_c, 0, 55, 66
1, 105010, Control_c, 0, 64, 75
1, 105025, Control_c, 0, 64, 64
1, 105040, Control_c, 0, 64, 0
1, 105052, Note_off_c, 0, 67, 52
1, 105084, Note_off_c, 0, 59, 36
1, 105086, Note_off_c, 0, 64, 0
1, 105114, Control_c, 0, 64, 28
1, 105115, Note_on_c, 0, 64, 19
1, 105129, Control_c, 0, 64, 61
1, 105141, Note_on_c, 0, 67, 46
1, 105144, Control_c, 0, 64, 67
1, 105159, Control_c, 0, 64, 71
1, 105174, Note_off_c, 0, 64, 61
1, 105174, Control_c, 0, 64, 75
1, 105179, Note_off_c, 0, 67, 60
1, 105189, Control_c, 0, 64, 78
1, 105192, Poly_aftertouch_c, 0, 59, 0
1, 105204, Control_c, 0, 64, 80
1, 105214, Note_on_c, 0, 59, 22
1, 105219, Control_c, 0, 64, 81
1, 105228, Note_on_c, 0, 64, 48
1, 105233, Control_c, 0, 64, 82
1, 105238, Note_on_c, 0, 67, 48
1, 105250, Note_off_c, 0, 52, 52
1, 105254, Note_off_c, 0, 59, 60
1, 105263, Note_off_c, 0, 64, 65
1, 105269, Note_off_c, 0, 67, 62
1, 105308, Control_c, 0, 64, 82
1, 105323, Note_on_c, 0, 59, 48
1, 105331, Note_on_c, 0, 64, 51
1, 105338, Note_on_c, 0, 67, 43
1, 105352, Note_off_c, 0, 59, 52
1, 105353, Note_off_c, 0, 64, 62
1, 105361, Note_off_c, 0, 55, 52
1, 105367, Note_off_c, 0, 67, 54
1, 105421, Note_on_c, 0, 59, 58
1, 105429, Note_on_c, 0, 64, 56
1, 105433, Note_on_c, 0, 67, 40
1, 105441, Note_off_c, 0, 59, 62
1, 105448, Control_c, 0, 64, 82
1, 105452, Note_off_c, 0, 64, 63
1, 105458, Note_off_c, 0, 67, 57
1, 105507, Note_on_c, 0, 59, 65
1, 105523, Note_on_c, 0, 67, 57
1, 105527, Note_on_c, 0, 64, 49
1, 105527, Note_off_c, 0, 59, 65
1, 105543, Note_off_c, 0, 67, 62
1, 105552, Control_c, 0, 64, 81
1, 105555, Note_off_c, 0, 64, 55
1, 105567, Control_c, 0, 64, 78
1, 105570, Note_off_c, 0, 47, 0
1, 105582, Control_c, 0, 64, 75
1, 105591, Note_on_c, 0, 59, 65
1, 105596, Control_c, 0, 64, 71
1, 105603, Note_on_c, 0, 64, 56
1, 105607, Poly_aftertouch_c, 0, 47, 127
1, 105609, Note_on_c, 0, 67, 60
1, 105611, Control_c, 0, 64, 70
1, 105619, Note_off_c, 0, 59, 64
1, 105626, Control_c, 0, 64, 71
1, 105634, Note_off_c, 0, 64, 65
1, 105637, Note_off_c, 0, 67, 64
1, 105640, Control_c, 0, 64, 73
1, 105655, Control_c, 0, 64, 74
1, 105670, Control_c, 0, 64, 76
1, 105685, Control_c, 0, 64, 79
1, 105700, Control_c, 0, 64, 81
1, 105703, Note_on_c, 0, 59, 57
1, 105713, Note_on_c, 0, 64, 56
1, 105714, Control_c, 0, 64, 82
1, 105721, Note_on_c, 0, 67, 51
1, 105724, Note_off_c, 0, 59, 63
1, 105729, Control_c, 0, 64, 83
1, 105734, Note_off_c, 0, 64, 64
1, 105746, Note_off_c, 0, 67, 58
1, 105755, Poly_aftertouch_c, 0, 47, 0
1, 105788, Control_c, 0, 64, 82
1, 105794, Note_on_c, 0, 59, 64
1, 105803, Control_c, 0, 64, 80
1, 105806, Note_on_c, 0, 64, 58
1, 105817, Note_off_c, 0, 59, 63
1, 105818, Control_c, 0, 64, 76
1, 105831, Note_off_c, 0, 64, 60
1, 105833, Control_c, 0, 64, 72
1, 105848, Control_c, 0, 64, 69
1, 105862, Control_c, 0, 64, 71
1, 105877, Control_c, 0, 64, 74
1, 105880, Note_on_c, 0, 55, 85
1, 105889, Note_on_c, 0, 59, 68
1, 105892, Control_c, 0, 64, 78
1, 105895, Note_on_c, 0, 64, 60
1, 105898, Note_on_c, 0, 52, 54
1, 105899, Note_on_c, 0, 67, 4
1, 105901, Note_off_c, 0, 55, 70
1, 105907, Control_c, 0, 64, 81
1, 105919, Note_off_c, 0, 59, 62
1, 105922, Control_c, 0, 64, 82
1, 105926, Note_off_c, 0, 52, 56
1, 105929, Note_off_c, 0, 64, 62
1, 105937, Control_c, 0, 64, 83
1, 105945, Note_off_c, 0, 67, 53
1, 106002, Note_on_c, 0, 67, 43
1, 106003, Note_on_c, 0, 59, 53
1, 106008, Note_on_c, 0, 64, 39
1, 106020, Note_off_c, 0, 59, 64
1, 106032, Note_off_c, 0, 67, 58
1, 106036, Note_off_c, 0, 64, 55
1, 106079, Note_on_c, 0, 59, 67
1, 106086, Control_c, 0, 64, 82
1, 106092, Note_on_c, 0, 64, 57
1, 106098, Note_on_c, 0, 67, 43
1, 106101, Control_c, 0, 64, 78
1, 106107, Note_off_c, 0, 59, 64
1, 106116, Control_c, 0, 64, 73
1, 106122, Note_off_c, 0, 64, 66
1, 106122, Note_off_c, 0, 67, 59
1, 106130, Control_c, 0, 64, 66
1, 106152, Control_c, 0, 64, 55
1, 106167, Control_c, 0, 64, 0
1, 106185, Note_on_c, 0, 57, 77
1, 106196, Control_c, 0, 64, 42
1, 106197, Note_on_c, 0, 48, 64
1, 106202, Note_on_c, 0, 69, 64
1, 106209, Note_on_c, 0, 60, 58
1, 106211, Note_on_c, 0, 52, 43
1, 106211, Control_c, 0, 64, 63
1, 106212, Note_off_c, 0, 57, 67
1, 106226, Note_off_c, 0, 48, 65
1, 106226, Control_c, 0, 64, 69
1, 106234, Note_on_c, 0, 64, 32
1, 106238, Note_off_c, 0, 60, 66
1, 106238, Note_off_c, 0, 69, 55
1, 106241, Note_off_c, 0, 52, 52
1, 106241, Control_c, 0, 64, 75
1, 106256, Control_c, 0, 64, 82
1, 106271, Control_c, 0, 64, 85
1, 106286, Control_c, 0, 67, 8
1, 106300, Note_off_c, 0, 64, 0
1, 106301, Control_c, 0, 67, 10
1, 106305, Note_on_c, 0, 60, 63
1, 106305, Note_on_c, 0, 69, 44
1, 106313, Note_on_c, 0, 64, 45
1, 106316, Control_c, 0, 67, 12
1, 106330, Note_off_c, 0, 60, 67
1, 106330, Control_c, 0, 67, 14
1, 106343, Note_off_c, 0, 69, 61
1, 106345, Control_c, 0, 67, 17
1, 106351, Note_off_c, 0, 64, 61
1, 106360, Control_c, 0, 67, 21
1, 106374, Control_c, 0, 64, 85
1, 106374, Control_c, 0, 67, 26
1, 106389, Control_c, 0, 64, 83
1, 106389, Control_c, 0, 67, 30
1, 106404, Control_c, 0, 64, 78
1, 106404, Control_c, 0, 67, 33
1, 106405, Note_on_c, 0, 60, 60
1, 106408, Note_on_c, 0, 64, 52
1, 106415, Note_on_c, 0, 69, 54
1, 106419, Control_c, 0, 64, 72
1, 106419, Control_c, 0, 67, 36
1, 106434, Control_c, 0, 64, 67
1, 106434, Control_c, 0, 67, 38
1, 106435, Note_off_c, 0, 60, 66
1, 106443, Note_off_c, 0, 69, 66
1, 106447, Note_off_c, 0, 64, 63
1, 106449, Control_c, 0, 64, 67
1, 106449, Control_c, 0, 67, 40
1, 106463, Control_c, 0, 64, 71
1, 106463, Control_c, 0, 67, 42
1, 106478, Control_c, 0, 64, 74
1, 106478, Control_c, 0, 67, 44
1, 106491, Note_on_c, 0, 48, 67
1, 106493, Control_c, 0, 64, 77
1, 106493, Control_c, 0, 67, 44
1, 106494, Note_on_c, 0, 52, 58
1, 106500, Note_on_c, 0, 57, 51
1, 106503, Note_on_c, 0, 59, 49
1, 106503, Note_on_c, 0, 60, 66
1, 106508, Control_c, 0, 64, 79
1, 106508, Control_c, 0, 67, 45
1, 106516, Note_on_c, 0, 64, 41
1, 106520, Note_off_c, 0, 48, 64
1, 106521, Note_off_c, 0, 52, 61
1, 106523, Control_c, 0, 64, 81
1, 106523, Control_c, 0, 67, 45
1, 106525, Note_on_c, 0, 69, 54
1, 106527, Note_off_c, 0, 57, 57
1, 106530, Note_off_c, 0, 59, 57
1, 106531, Note_off_c, 0, 60, 65
1, 106537, Control_c, 0, 64, 83
1, 106551, Note_off_c, 0, 69, 54
1, 106552, Control_c, 0, 67, 46
1, 106566, Note_off_c, 0, 64, 44
1, 106567, Control_c, 0, 67, 47
1, 106581, Control_c, 0, 67, 50
1, 106596, Control_c, 0, 67, 54
1, 106611, Control_c, 0, 67, 57
1, 106617, Note_on_c, 0, 64, 33
1, 106623, Note_on_c, 0, 60, 41
1, 106626, Control_c, 0, 67, 60
1, 106641, Control_c, 0, 67, 63
1, 106655, Control_c, 0, 67, 65
1, 106670, Control_c, 0, 67, 66
1, 106673, Note_off_c, 0, 60, 0
1, 106683, Note_on_c, 0, 69, 25
1, 106685, Control_c, 0, 64, 83
1, 106685, Control_c, 0, 67, 68
1, 106687, Note_on_c, 0, 60, 53
1, 106688, Note_off_c, 0, 64, 0
1, 106688, Note_on_c, 0, 64, 30
1, 106700, Control_c, 0, 64, 80
1, 106700, Control_c, 0, 67, 69
1, 106715, Control_c, 0, 64, 74
1, 106715, Control_c, 0, 67, 69
1, 106717, Note_off_c, 0, 60, 65
1, 106724, Note_off_c, 0, 64, 64
1, 106730, Control_c, 0, 64, 66
1, 106730, Control_c, 0, 67, 70
1, 106745, Control_c, 0, 64, 56
1, 106745, Control_c, 0, 67, 71
1, 106760, Control_c, 0, 64, 0
1, 106760, Control_c, 0, 67, 72
1, 106775, Control_c, 0, 67, 73
1, 106788, Note_on_c, 0, 59, 77
1, 106790, Control_c, 0, 64, 40
1, 106790, Control_c, 0, 67, 73
1, 106795, Note_on_c, 0, 55, 61
1, 106803, Note_on_c, 0, 67, 66
1, 106804, Control_c, 0, 64, 63
1, 106804, Control_c, 0, 67, 74
1, 106806, Note_on_c, 0, 62, 63
1, 106809, Note_off_c, 0, 59, 69
1, 106816, Note_off_c, 0, 69, 29
1, 106819, Control_c, 0, 64, 69
1, 106819, Control_c, 0, 67, 74
1, 106822, Note_off_c, 0, 55, 66
1, 106822, Note_on_c, 0, 50, 42
1, 106832, Note_off_c, 0, 67, 64
1, 106834, Note_off_c, 0, 62, 64
1, 106834, Control_c, 0, 64, 74
1, 106849, Control_c, 0, 64, 78
1, 106856, Note_off_c, 0, 50, 54
1, 106864, Control_c, 0, 64, 80
1, 106864, Control_c, 0, 67, 75
1, 106879, Control_c, 0, 64, 81
1, 106879, Control_c, 0, 67, 75
1, 106894, Control_c, 0, 67, 76
1, 106916, Control_c, 0, 67, 78
1, 106918, Note_on_c, 0, 62, 51
1, 106924, Note_on_c, 0, 67, 51
1, 106931, Control_c, 0, 67, 79
1, 106940, Note_off_c, 0, 62, 60
1, 106945, Note_off_c, 0, 67, 61
1, 106946, Control_c, 0, 67, 80
1, 106960, Control_c, 0, 67, 80
1, 106980, Note_on_c, 0, 38, 52
1, 106990, Control_c, 0, 67, 81
1, 107004, Control_c, 0, 64, 80
1, 107004, Control_c, 0, 67, 81
1, 107014, Note_on_c, 0, 62, 55
1, 107018, Note_off_c, 0, 38, 61
1, 107019, Control_c, 0, 64, 77
1, 107019, Control_c, 0, 67, 82
1, 107022, Note_on_c, 0, 67, 55
1, 107034, Control_c, 0, 64, 73
1, 107042, Note_off_c, 0, 62, 63
1, 107045, Note_off_c, 0, 67, 60
1, 107049, Control_c, 0, 64, 69
1, 107053, Note_on_c, 0, 47, 46
1, 107064, Control_c, 0, 64, 66
1, 107064, Control_c, 0, 67, 82
1, 107079, Control_c, 0, 64, 68
1, 107094, Control_c, 0, 64, 71
1, 107094, Control_c, 0, 67, 83
1, 107103, Note_on_c, 0, 55, 82
1, 107109, Control_c, 0, 64, 76
1, 107123, Control_c, 0, 64, 80
1, 107123, Control_c, 0, 67, 83
1, 107126, Note_on_c, 0, 67, 65
1, 107132, Note_on_c, 0, 62, 41
1, 107132, Note_off_c, 0, 55, 64
1, 107138, Control_c, 0, 64, 83
1, 107138, Control_c, 0, 67, 84
1, 107141, Note_on_c, 0, 59, 55
1, 107153, Control_c, 0, 64, 85
1, 107153, Control_c, 0, 67, 85
1, 107166, Note_off_c, 0, 59, 60
1, 107168, Control_c, 0, 64, 85
1, 107168, Control_c, 0, 67, 86
1, 107174, Note_off_c, 0, 62, 59
1, 107183, Note_off_c, 0, 67, 49
1, 107183, Control_c, 0, 67, 89
1, 107198, Control_c, 0, 67, 92
1, 107213, Control_c, 0, 67, 93
1, 107222, Note_off_c, 0, 47, 31
1, 107228, Control_c, 0, 67, 94
1, 107243, Note_on_c, 0, 67, 40
1, 107243, Control_c, 0, 67, 94
1, 107243, Note_on_c, 0, 59, 57
1, 107253, Note_on_c, 0, 62, 41
1, 107258, Control_c, 0, 67, 95
1, 107272, Note_off_c, 0, 59, 63
1, 107281, Note_off_c, 0, 67, 58
1, 107305, Note_off_c, 0, 62, 39
1, 107338, Note_on_c, 0, 38, 48
1, 107338, Note_on_c, 0, 67, 49
1, 107346, Control_c, 0, 67, 95
1, 107350, Note_on_c, 0, 59, 50
1, 107361, Control_c, 0, 64, 85
1, 107361, Control_c, 0, 67, 96
1, 107376, Control_c, 0, 64, 82
1, 107376, Control_c, 0, 67, 96
1, 107377, Note_off_c, 0, 59, 56
1, 107388, Note_on_c, 0, 45, 39
1, 107389, Poly_aftertouch_c, 0, 62, 127
1, 107391, Control_c, 0, 64, 77
1, 107391, Control_c, 0, 67, 97
1, 107405, Control_c, 0, 64, 68
1, 107405, Control_c, 0, 67, 98
1, 107416, Note_off_c, 0, 67, 49
1, 107420, Control_c, 0, 64, 49
1, 107420, Control_c, 0, 67, 98
1, 107435, Control_c, 0, 64, 0
1, 107435, Control_c, 0, 67, 99
1, 107450, Control_c, 0, 67, 100
1, 107465, Control_c, 0, 67, 101
1, 107475, Note_on_c, 0, 50, 66
1, 107479, Control_c, 0, 67, 102
1, 107482, Poly_aftertouch_c, 0, 62, 0
1, 107483, Note_on_c, 0, 66, 53
1, 107493, Note_on_c, 0, 60, 51
1, 107519, Poly_aftertouch_c, 0, 62, 127
1, 107538, Note_off_c, 0, 60, 59
1, 107538, Control_c, 0, 64, 36
1, 107550, Note_off_c, 0, 66, 62
1, 107553, Control_c, 0, 64, 65
1, 107568, Poly_aftertouch_c, 0, 62, 0
1, 107568, Control_c, 0, 64, 71
1, 107584, Control_c, 0, 64, 75
1, 107599, Control_c, 0, 64, 77
1, 107614, Control_c, 0, 64, 79
1, 107615, Note_off_c, 0, 38, 43
1, 107624, Note_on_c, 0, 60, 40
1, 107626, Note_on_c, 0, 66, 46
1, 107628, Control_c, 0, 64, 81
1, 107639, Note_on_c, 0, 62, 7
1, 107639, Note_off_c, 0, 45, 53
1, 107643, Control_c, 0, 64, 82
1, 107661, Note_off_c, 0, 60, 59
1, 107672, Note_off_c, 0, 66, 60
1, 107725, Control_c, 0, 64, 81
1, 107726, Note_on_c, 0, 60, 55
1, 107726, Note_off_c, 0, 62, 0
1, 107738, Note_on_c, 0, 66, 59
1, 107746, Note_on_c, 0, 62, 15
1, 107754, Control_c, 0, 64, 80
1, 107754, Control_c, 0, 67, 103
1, 107755, Note_off_c, 0, 60, 63
1, 107767, Note_off_c, 0, 66, 64
1, 107769, Control_c, 0, 64, 78
1, 107781, Note_off_c, 0, 62, 51
1, 107784, Control_c, 0, 64, 75
1, 107799, Control_c, 0, 64, 75
1, 107811, Note_on_c, 0, 52, 67
1, 107824, Note_off_c, 0, 50, 38
1, 107843, Note_on_c, 0, 66, 64
1, 107850, Note_on_c, 0, 60, 49
1, 107875, Note_off_c, 0, 66, 59
1, 107880, Note_off_c, 0, 60, 61
1, 107888, Control_c, 0, 64, 75
1, 107902, Control_c, 0, 64, 76
1, 107960, Note_off_c, 0, 52, 59
1, 107972, Note_on_c, 0, 54, 78
1, 107976, Control_c, 0, 64, 77
1, 107984, Note_on_c, 0, 60, 47
1, 107991, Control_c, 0, 64, 77
1, 108009, Poly_aftertouch_c, 0, 62, 127
1, 108013, Note_on_c, 0, 66, 38
1, 108015, Note_off_c, 0, 60, 61
1, 108036, Poly_aftertouch_c, 0, 62, 0
1, 108036, Control_c, 0, 64, 77
1, 108044, Note_off_c, 0, 66, 55
1, 108064, Note_off_c, 0, 54, 61
1, 108065, Control_c, 0, 67, 104
1, 108140, Control_c, 0, 64, 76
1, 108154, Control_c, 0, 67, 104
1, 108169, Control_c, 0, 64, 76
1, 108184, Control_c, 0, 64, 75
1, 108195, Poly_aftertouch_c, 0, 66, 0
1, 108199, Control_c, 0, 64, 73
1, 108214, Control_c, 0, 64, 69
1, 108218, Note_on_c, 0, 55, 55
1, 108224, Note_on_c, 0, 43, 52
1, 108228, Control_c, 0, 64, 61
1, 108243, Control_c, 0, 64, 0
1, 108244, Note_on_c, 0, 59, 44
1, 108249, Note_on_c, 0, 67, 53
1, 108255, Poly_aftertouch_c, 0, 62, 127
1, 108338, Note_off_c, 0, 59, 52
1, 108348, Note_off_c, 0, 67, 59
1, 108361, Control_c, 0, 64, 53
1, 108377, Control_c, 0, 64, 64
1, 108392, Control_c, 0, 64, 69
1, 108414, Control_c, 0, 64, 73
1, 108426, Poly_aftertouch_c, 0, 62, 0
1, 108429, Note_off_c, 0, 55, 59
1, 108429, Control_c, 0, 64, 76
1, 108429, Control_c, 0, 67, 104
1, 108433, Note_on_c, 0, 59, 52
1, 108438, Note_on_c, 0, 67, 49
1, 108441, Note_on_c, 0, 62, 35
1, 108444, Control_c, 0, 64, 79
1, 108459, Control_c, 0, 64, 79
1, 108460, Note_off_c, 0, 59, 63
1, 108473, Note_off_c, 0, 62, 60
1, 108474, Note_off_c, 0, 67, 62
1, 108474, Control_c, 0, 67, 103
1, 108504, Control_c, 0, 67, 103
1, 108539, Note_on_c, 0, 59, 49
1, 108542, Note_on_c, 0, 67, 52
1, 108548, Note_on_c, 0, 62, 35
1, 108561, Note_off_c, 0, 59, 60
1, 108563, Control_c, 0, 67, 102
1, 108569, Note_off_c, 0, 67, 57
1, 108592, Control_c, 0, 64, 79
1, 108605, Note_off_c, 0, 62, 0
1, 108617, Note_on_c, 0, 62, 42
1, 108620, Note_on_c, 0, 67, 50
1, 108638, Note_on_c, 0, 59, 39
1, 108646, Note_off_c, 0, 62, 61
1, 108651, Note_off_c, 0, 67, 61
1, 108651, Control_c, 0, 64, 78
1, 108651, Control_c, 0, 67, 102
1, 108703, Note_off_c, 0, 59, 0
1, 108715, Note_on_c, 0, 67, 49
1, 108717, Note_on_c, 0, 62, 51
1, 108724, Note_on_c, 0, 59, 12
1, 108752, Note_off_c, 0, 62, 59
1, 108752, Note_off_c, 0, 67, 58
1, 108755, Control_c, 0, 64, 78
1, 108792, Note_off_c, 0, 59, 0
1, 108799, Control_c, 0, 67, 101
1, 108805, Note_on_c, 0, 67, 53
1, 108806, Note_on_c, 0, 59, 40
1, 108814, Control_c, 0, 64, 77
1, 108829, Control_c, 0, 64, 75
1, 108833, Poly_aftertouch_c, 0, 62, 127
1, 108840, Note_off_c, 0, 59, 62
1, 108842, Poly_aftertouch_c, 0, 62, 0
1, 108843, Control_c, 0, 64, 71
1, 108844, Note_off_c, 0, 67, 60
1, 108858, Control_c, 0, 64, 66
1, 108873, Control_c, 0, 64, 62
1, 108892, Note_on_c, 0, 38, 69
1, 108903, Control_c, 0, 64, 65
1, 108918, Control_c, 0, 64, 68
1, 108918, Control_c, 0, 67, 101
1, 108931, Note_on_c, 0, 59, 47
1, 108931, Note_on_c, 0, 62, 28
1, 108933, Control_c, 0, 64, 71
1, 108938, Note_on_c, 0, 67, 23
1, 108948, Control_c, 0, 64, 73
1, 108948, Control_c, 0, 67, 100
1, 108955, Note_off_c, 0, 59, 58
1, 108962, Note_off_c, 0, 62, 56
1, 108963, Control_c, 0, 64, 75
1, 108963, Control_c, 0, 67, 100
1, 108968, Note_off_c, 0, 67, 48
1, 108977, Control_c, 0, 64, 77
1, 108992, Control_c, 0, 64, 78
1, 108992, Control_c, 0, 67, 99
1, 109008, Note_off_c, 0, 43, 36
1, 109022, Control_c, 0, 67, 99
1, 109025, Note_on_c, 0, 59, 63
1, 109034, Note_on_c, 0, 67, 49
1, 109037, Control_c, 0, 64, 77
1, 109046, Note_on_c, 0, 62, 40
1, 109053, Note_off_c, 0, 59, 65
1, 109068, Note_off_c, 0, 67, 62
1, 109072, Note_off_c, 0, 62, 56
1, 109125, Control_c, 0, 64, 77
1, 109135, Note_on_c, 0, 59, 48
1, 109136, Note_on_c, 0, 67, 54
1, 109140, Control_c, 0, 64, 75
1, 109162, Note_on_c, 0, 62, 35
1, 109162, Control_c, 0, 64, 72
1, 109170, Note_off_c, 0, 59, 56
1, 109178, Control_c, 0, 64, 66
1, 109181, Note_off_c, 0, 67, 59
1, 109193, Control_c, 0, 64, 61
1, 109200, Note_off_c, 0, 62, 44
1, 109207, Control_c, 0, 64, 54
1, 109219, Note_on_c, 0, 35, 71
1, 109222, Control_c, 0, 64, 55
1, 109237, Control_c, 0, 64, 60
1, 109252, Note_on_c, 0, 67, 47
1, 109252, Control_c, 0, 64, 63
1, 109255, Note_on_c, 0, 62, 34
1, 109258, Note_on_c, 0, 59, 44
1, 109267, Control_c, 0, 64, 66
1, 109282, Control_c, 0, 64, 70
1, 109287, Note_off_c, 0, 59, 52
1, 109289, Note_off_c, 0, 38, 62
1, 109289, Note_off_c, 0, 67, 60
1, 109295, Note_off_c, 0, 62, 55
1, 109296, Control_c, 0, 64, 73
1, 109311, Control_c, 0, 64, 76
1, 109326, Control_c, 0, 64, 77
1, 109341, Control_c, 0, 64, 77
1, 109351, Note_on_c, 0, 62, 40
1, 109359, Note_on_c, 0, 67, 48
1, 109365, Note_on_c, 0, 59, 44
1, 109385, Note_off_c, 0, 67, 58
1, 109386, Control_c, 0, 64, 77
1, 109387, Note_off_c, 0, 62, 60
1, 109411, Note_off_c, 0, 59, 41
1, 109415, Control_c, 0, 64, 76
1, 109448, Note_on_c, 0, 59, 46
1, 109448, Note_on_c, 0, 62, 44
1, 109469, Note_on_c, 0, 67, 42
1, 109475, Note_off_c, 0, 59, 61
1, 109489, Control_c, 0, 64, 75
1, 109490, Note_off_c, 0, 62, 61
1, 109496, Note_off_c, 0, 67, 56
1, 109504, Control_c, 0, 64, 73
1, 109519, Control_c, 0, 64, 67
1, 109531, Note_off_c, 0, 35, 64
1, 109533, Control_c, 0, 64, 58
1, 109543, Note_on_c, 0, 31, 68
1, 109548, Control_c, 0, 64, 0
1, 109548, Control_c, 0, 67, 99
1, 109557, Note_on_c, 0, 59, 54
1, 109564, Note_on_c, 0, 65, 55
1, 109574, Note_on_c, 0, 67, 43
1, 109603, Note_off_c, 0, 59, 53
1, 109604, Note_off_c, 0, 65, 61
1, 109605, Note_off_c, 0, 67, 56
1, 109652, Control_c, 0, 64, 52
1, 109666, Note_on_c, 0, 59, 44
1, 109667, Control_c, 0, 64, 64
1, 109676, Note_on_c, 0, 67, 47
1, 109677, Note_on_c, 0, 65, 43
1, 109681, Control_c, 0, 64, 68
1, 109696, Note_off_c, 0, 59, 61
1, 109696, Control_c, 0, 64, 69
1, 109708, Note_off_c, 0, 67, 60
1, 109711, Control_c, 0, 64, 70
1, 109713, Note_off_c, 0, 65, 63
1, 109726, Control_c, 0, 64, 70
1, 109770, Control_c, 0, 64, 70
1, 109771, Note_on_c, 0, 59, 60
1, 109783, Note_on_c, 0, 65, 52
1, 109791, Note_on_c, 0, 67, 45
1, 109797, Note_off_c, 0, 59, 64
1, 109800, Control_c, 0, 64, 70
1, 109815, Note_off_c, 0, 65, 64
1, 109815, Control_c, 0, 64, 71
1, 109818, Note_off_c, 0, 67, 57
1, 109830, Control_c, 0, 64, 72
1, 109845, Control_c, 0, 64, 73
1, 109875, Note_on_c, 0, 59, 60
1, 109889, Control_c, 0, 64, 74
1, 109903, Note_on_c, 0, 65, 55
1, 109904, Note_on_c, 0, 67, 48
1, 109916, Note_off_c, 0, 59, 60
1, 109931, Note_off_c, 0, 67, 55
1, 109933, Note_off_c, 0, 65, 66
1, 109947, Note_off_c, 0, 31, 0
1, 109971, Control_c, 0, 64, 73
1, 109985, Poly_aftertouch_c, 0, 31, 127
1, 109986, Control_c, 0, 64, 74
1, 110001, Control_c, 0, 64, 74
1, 110005, Note_on_c, 0, 59, 52
1, 110022, Note_off_c, 0, 59, 64
1, 110024, Note_on_c, 0, 65, 43
1, 110024, Note_on_c, 0, 67, 29
1, 110045, Control_c, 0, 64, 74
1, 110048, Note_off_c, 0, 65, 58
1, 110075, Control_c, 0, 64, 73
1, 110088, Note_on_c, 0, 59, 63
1, 110090, Control_c, 0, 64, 73
1, 110112, Note_off_c, 0, 67, 0
1, 110119, Control_c, 0, 64, 72
1, 110120, Note_on_c, 0, 65, 46
1, 110122, Note_off_c, 0, 59, 61
1, 110134, Control_c, 0, 64, 71
1, 110134, Control_c, 0, 67, 100
1, 110146, Note_off_c, 0, 65, 61
1, 110149, Control_c, 0, 64, 69
1, 110164, Control_c, 0, 64, 65
1, 110173, Poly_aftertouch_c, 0, 31, 0
1, 110179, Control_c, 0, 64, 57
1, 110179, Control_c, 0, 67, 100
1, 110194, Note_on_c, 0, 33, 50
1, 110194, Control_c, 0, 64, 0
1, 110206, Poly_aftertouch_c, 0, 67, 0
1, 110219, Note_on_c, 0, 60, 58
1, 110220, Note_on_c, 0, 67, 43
1, 110242, Note_on_c, 0, 65, 49
1, 110256, Note_off_c, 0, 60, 64
1, 110268, Control_c, 0, 64, 24
1, 110270, Note_off_c, 0, 65, 60
1, 110283, Control_c, 0, 64, 57
1, 110297, Control_c, 0, 64, 65
1, 110312, Control_c, 0, 64, 69
1, 110320, Note_off_c, 0, 67, 0
1, 110327, Control_c, 0, 64, 73
1, 110340, Note_on_c, 0, 67, 28
1, 110342, Control_c, 0, 64, 78
1, 110346, Note_on_c, 0, 60, 49
1, 110356, Control_c, 0, 64, 80
1, 110363, Note_on_c, 0, 65, 48
1, 110371, Note_off_c, 0, 60, 60
1, 110371, Control_c, 0, 64, 81
1, 110386, Control_c, 0, 67, 101
1, 110390, Note_off_c, 0, 65, 61
1, 110392, Note_off_c, 0, 67, 55
1, 110453, Note_on_c, 0, 60, 54
1, 110472, Note_on_c, 0, 67, 31
1, 110490, Control_c, 0, 67, 101
1, 110494, Note_off_c, 0, 60, 56
1, 110501, Note_on_c, 0, 65, 34
1, 110504, Control_c, 0, 64, 80
1, 110521, Note_off_c, 0, 67, 54
1, 110531, Note_off_c, 0, 65, 56
1, 110534, Control_c, 0, 64, 79
1, 110548, Control_c, 0, 64, 78
1, 110563, Control_c, 0, 64, 76
1, 110563, Control_c, 0, 67, 102
1, 110566, Note_off_c, 0, 33, 52
1, 110578, Control_c, 0, 64, 73
1, 110593, Control_c, 0, 64, 69
1, 110608, Control_c, 0, 64, 63
1, 110608, Control_c, 0, 67, 102
1, 110617, Note_on_c, 0, 35, 40
1, 110623, Control_c, 0, 64, 44
1, 110638, Control_c, 0, 64, 0
1, 110661, Note_on_c, 0, 67, 44
1, 110664, Note_on_c, 0, 65, 26
1, 110666, Note_on_c, 0, 62, 38
1, 110675, Control_c, 0, 67, 103
1, 110704, Control_c, 0, 64, 35
1, 110719, Control_c, 0, 64, 63
1, 110734, Control_c, 0, 64, 70
1, 110734, Control_c, 0, 67, 103
1, 110748, Control_c, 0, 64, 74
1, 110761, Note_off_c, 0, 62, 54
1, 110763, Control_c, 0, 64, 78
1, 110779, Control_c, 0, 64, 81
1, 110794, Control_c, 0, 64, 83
1, 110809, Control_c, 0, 64, 84
1, 110809, Control_c, 0, 67, 104
1, 110838, Control_c, 0, 67, 104
1, 110846, Note_off_c, 0, 67, 0
1, 110852, Control_c, 0, 64, 85
1, 110860, Note_on_c, 0, 62, 39
1, 110863, Note_off_c, 0, 65, 0
1, 110867, Control_c, 0, 67, 105
1, 110873, Note_on_c, 0, 67, 8
1, 110882, Control_c, 0, 64, 85
1, 110890, Note_off_c, 0, 62, 59
1, 110902, Note_off_c, 0, 35, 41
1, 110912, Control_c, 0, 67, 105
1, 110915, Note_off_c, 0, 67, 60
1, 110935, Poly_aftertouch_c, 0, 65, 0
1, 110942, Control_c, 0, 64, 86
1, 110942, Control_c, 0, 67, 106
1, 110957, Control_c, 0, 64, 86
1, 110971, Control_c, 0, 67, 106
1, 110986, Control_c, 0, 67, 111
1, 111001, Control_c, 0, 67, 114
1, 111016, Control_c, 0, 67, 119
1, 111031, Control_c, 0, 64, 87
1, 111031, Control_c, 0, 67, 123
1, 111045, Control_c, 0, 64, 87
1, 111045, Control_c, 0, 67, 125
1, 111060, Control_c, 0, 67, 127
1, 111075, Control_c, 0, 67, 127
1, 111092, Note_on_c, 0, 79, 63
1, 111142, Note_on_c, 0, 67, 13
1, 111164, Control_c, 0, 64, 87
1, 111193, Control_c, 0, 64, 86
1, 111204, Note_off_c, 0, 67, 44
1, 111223, Control_c, 0, 64, 86
1, 111238, Control_c, 0, 64, 85
1, 111252, Control_c, 0, 64, 85
1, 111267, Control_c, 0, 64, 84
1, 111282, Control_c, 0, 64, 83
1, 111297, Note_on_c, 0, 36, 35
1, 111326, Control_c, 0, 64, 83
1, 111341, Control_c, 0, 64, 82
1, 111355, Note_on_c, 0, 48, 18
1, 111356, Control_c, 0, 64, 82
1, 111371, Control_c, 0, 64, 81
1, 111386, Control_c, 0, 64, 79
1, 111408, Control_c, 0, 64, 77
1, 111423, Control_c, 0, 64, 73
1, 111438, Control_c, 0, 64, 70
1, 111452, Control_c, 0, 64, 67
1, 111455, Note_off_c, 0, 79, 36
1, 111467, Control_c, 0, 64, 65
1, 111482, Control_c, 0, 64, 64
1, 111496, Control_c, 0, 64, 62
1, 111500, Note_on_c, 0, 67, 37
1, 111511, Control_c, 0, 64, 60
1, 111526, Control_c, 0, 64, 57
1, 111541, Control_c, 0, 64, 54
1, 111572, Control_c, 0, 64, 56
1, 111587, Control_c, 0, 64, 59
1, 111598, Note_off_c, 0, 36, 41
1, 111601, Control_c, 0, 64, 62
1, 111616, Control_c, 0, 64, 65
1, 111631, Control_c, 0, 64, 69
1, 111645, Note_on_c, 0, 79, 58
1, 111646, Control_c, 0, 64, 72
1, 111661, Control_c, 0, 64, 75
1, 111675, Control_c, 0, 64, 77
1, 111690, Control_c, 0, 64, 77
1, 111705, Control_c, 0, 64, 78
1, 111720, Control_c, 0, 64, 79
1, 111729, Note_off_c, 0, 48, 45
1, 111735, Control_c, 0, 64, 80
1, 111750, Control_c, 0, 64, 81
1, 111765, Control_c, 0, 64, 82
1, 111780, Control_c, 0, 64, 83
1, 111794, Control_c, 0, 64, 83
1, 111809, Control_c, 0, 64, 84
1, 111824, Control_c, 0, 64, 85
1, 111839, Control_c, 0, 64, 88
1, 111854, Control_c, 0, 64, 92
1, 111868, Control_c, 0, 64, 92
1, 111887, Note_on_c, 0, 55, 44
1, 111903, Note_off_c, 0, 67, 31
1, 111909, Note_on_c, 0, 76, 47
1, 111912, Note_off_c, 0, 79, 50
1, 111926, Note_on_c, 0, 72, 29
1, 111929, Note_off_c, 0, 55, 59
1, 111949, Note_off_c, 0, 76, 44
1, 111967, Note_off_c, 0, 72, 45
1, 111972, Control_c, 0, 64, 93
1, 112003, Note_on_c, 0, 60, 44
1, 112007, Note_on_c, 0, 76, 49
1, 112028, Note_on_c, 0, 64, 25
1, 112039, Note_off_c, 0, 60, 63
1, 112042, Note_off_c, 0, 76, 62
1, 112053, Poly_aftertouch_c, 0, 72, 127
1, 112072, Note_off_c, 0, 64, 0
1, 112088, Poly_aftertouch_c, 0, 72, 0
1, 112090, Control_c, 0, 64, 92
1, 112096, Note_on_c, 0, 64, 23
1, 112126, Note_on_c, 0, 81, 72
1, 112146, Note_off_c, 0, 64, 51
1, 112149, Note_on_c, 0, 60, 51
1, 112149, Note_on_c, 0, 69, 45
1, 112157, Control_c, 0, 64, 91
1, 112172, Note_off_c, 0, 69, 57
1, 112172, Control_c, 0, 64, 90
1, 112182, Note_off_c, 0, 60, 64
1, 112187, Control_c, 0, 64, 88
1, 112191, Note_off_c, 0, 81, 59
1, 112201, Control_c, 0, 64, 87
1, 112227, Note_on_c, 0, 55, 53
1, 112261, Control_c, 0, 64, 88
1, 112274, Note_on_c, 0, 83, 81
1, 112275, Control_c, 0, 64, 89
1, 112286, Note_on_c, 0, 71, 65
1, 112286, Note_off_c, 0, 55, 57
1, 112290, Control_c, 0, 64, 91
1, 112304, Note_on_c, 0, 48, 56
1, 112304, Note_off_c, 0, 71, 65
1, 112305, Control_c, 0, 64, 92
1, 112334, Note_off_c, 0, 83, 62
1, 112334, Control_c, 0, 64, 93
1, 112339, Note_off_c, 0, 48, 63
1, 112394, Control_c, 0, 64, 91
1, 112409, Control_c, 0, 64, 86
1, 112423, Control_c, 0, 64, 76
1, 112438, Note_on_c, 0, 48, 45
1, 112438, Control_c, 0, 64, 63
1, 112445, Note_on_c, 0, 84, 70
1, 112448, Note_on_c, 0, 72, 46
1, 112453, Control_c, 0, 64, 0
1, 112475, Note_off_c, 0, 48, 57
1, 112483, Note_off_c, 0, 72, 48
1, 112483, Control_c, 0, 64, 31
1, 112498, Control_c, 0, 64, 66
1, 112513, Control_c, 0, 64, 74
1, 112525, Note_on_c, 0, 55, 45
1, 112528, Control_c, 0, 64, 83
1, 112542, Control_c, 0, 64, 91
1, 112557, Control_c, 0, 64, 94
1, 112561, Note_on_c, 0, 76, 50
1, 112568, Note_off_c, 0, 84, 44
1, 112572, Note_on_c, 0, 79, 37
1, 112572, Control_c, 0, 64, 94
1, 112585, Note_off_c, 0, 76, 58
1, 112596, Note_on_c, 0, 60, 56
1, 112602, Control_c, 0, 67, 127
1, 112614, Note_off_c, 0, 55, 57
1, 112616, Control_c, 0, 67, 126
1, 112618, Note_on_c, 0, 64, 57
1, 112624, Note_off_c, 0, 79, 0
1, 112631, Control_c, 0, 67, 125
1, 112635, Note_on_c, 0, 79, 54
1, 112635, Note_off_c, 0, 60, 60
1, 112646, Control_c, 0, 67, 123
1, 112652, Note_off_c, 0, 64, 64
1, 112661, Control_c, 0, 67, 122
1, 112676, Control_c, 0, 67, 122
1, 112700, Note_off_c, 0, 79, 60
1, 112715, Poly_aftertouch_c, 0, 76, 127
1, 112730, Note_on_c, 0, 64, 38
1, 112738, Poly_aftertouch_c, 0, 76, 0
1, 112739, Note_on_c, 0, 84, 76
1, 112745, Note_on_c, 0, 60, 42
1, 112759, Note_off_c, 0, 64, 58
1, 112764, Control_c, 0, 67, 122
1, 112779, Control_c, 0, 67, 123
1, 112780, Note_off_c, 0, 60, 65
1, 112783, Note_on_c, 0, 72, 22
1, 112791, Note_off_c, 0, 84, 63
1, 112794, Control_c, 0, 67, 123
1, 112800, Note_on_c, 0, 55, 59
1, 112808, Control_c, 0, 64, 95
1, 112808, Control_c, 0, 67, 124
1, 112818, Note_off_c, 0, 72, 51
1, 112823, Control_c, 0, 64, 96
1, 112838, Control_c, 0, 64, 97
1, 112853, Control_c, 0, 64, 99
1, 112853, Control_c, 0, 67, 125
1, 112868, Control_c, 0, 64, 100
1, 112883, Control_c, 0, 64, 101
1, 112891, Note_on_c, 0, 85, 85
1, 112896, Note_on_c, 0, 73, 75
1, 112900, Note_on_c, 0, 48, 65
1, 112905, Control_c, 0, 64, 101
1, 112919, Note_off_c, 0, 73, 69
1, 112920, Control_c, 0, 67, 125
1, 112922, Note_off_c, 0, 55, 44
1, 112939, Note_off_c, 0, 48, 60
1, 112962, Note_off_c, 0, 85, 64
1, 112964, Control_c, 0, 64, 101
1, 112979, Control_c, 0, 64, 97
1, 112994, Control_c, 0, 64, 88
1, 113009, Control_c, 0, 64, 73
1, 113023, Control_c, 0, 64, 58
1, 113026, Note_on_c, 0, 48, 51
1, 113038, Control_c, 0, 64, 0
1, 113047, Note_on_c, 0, 86, 81
1, 113049, Note_on_c, 0, 74, 52
1, 113080, Note_off_c, 0, 74, 57
1, 113084, Control_c, 0, 64, 44
1, 113098, Control_c, 0, 64, 65
1, 113098, Control_c, 0, 67, 125
1, 113106, Note_off_c, 0, 48, 63
1, 113113, Control_c, 0, 64, 76
1, 113113, Control_c, 0, 67, 124
1, 113128, Control_c, 0, 64, 84
1, 113131, Note_on_c, 0, 55, 50
1, 113142, Control_c, 0, 64, 91
1, 113157, Control_c, 0, 64, 93
1, 113159, Note_off_c, 0, 86, 33
1, 113191, Note_on_c, 0, 77, 48
1, 113204, Note_on_c, 0, 79, 59
1, 113214, Note_on_c, 0, 59, 59
1, 113217, Note_off_c, 0, 55, 51
1, 113229, Note_off_c, 0, 77, 65
1, 113237, Note_off_c, 0, 79, 63
1, 113245, Note_on_c, 0, 65, 53
1, 113252, Note_off_c, 0, 59, 60
1, 113262, Control_c, 0, 67, 125
1, 113269, Note_off_c, 0, 65, 58
1, 113292, Control_c, 0, 64, 93
1, 113336, Control_c, 0, 67, 125
1, 113348, Note_on_c, 0, 79, 77
1, 113348, Note_on_c, 0, 67, 61
1, 113350, Note_on_c, 0, 59, 50
1, 113359, Note_on_c, 0, 65, 31
1, 113362, Note_on_c, 0, 74, 40
1, 113365, Control_c, 0, 67, 126
1, 113368, Note_off_c, 0, 67, 62
1, 113391, Note_off_c, 0, 65, 48
1, 113392, Note_off_c, 0, 74, 56
1, 113407, Note_off_c, 0, 79, 62
1, 113413, Note_off_c, 0, 59, 59
1, 113433, Note_on_c, 0, 55, 54
1, 113519, Note_off_c, 0, 55, 58
1, 113527, Note_on_c, 0, 48, 56
1, 113553, Note_off_c, 0, 48, 56
1, 113603, Control_c, 0, 64, 92
1, 113618, Control_c, 0, 64, 88
1, 113640, Control_c, 0, 64, 80
1, 113643, Note_on_c, 0, 76, 52
1, 113655, Control_c, 0, 64, 69
1, 113664, Note_on_c, 0, 48, 44
1, 113669, Control_c, 0, 64, 0
1, 113690, Note_on_c, 0, 88, 73
1, 113740, Note_off_c, 0, 76, 46
1, 113759, Control_c, 0, 64, 58
1, 113773, Control_c, 0, 64, 72
1, 113773, Control_c, 0, 67, 125
1, 113783, Note_off_c, 0, 48, 55
1, 113788, Control_c, 0, 64, 82
1, 113790, Note_off_c, 0, 88, 54
1, 113803, Control_c, 0, 64, 85
1, 113803, Control_c, 0, 67, 125
1, 113813, Note_on_c, 0, 55, 41
1, 113818, Control_c, 0, 67, 124
1, 113833, Control_c, 0, 67, 124
1, 113847, Control_c, 0, 67, 123
1, 113862, Control_c, 0, 67, 122
1, 113877, Control_c, 0, 64, 86
1, 113877, Control_c, 0, 67, 121
1, 113881, Note_on_c, 0, 60, 55
1, 113881, Poly_aftertouch_c, 0, 79, 127
1, 113891, Control_c, 0, 67, 119
1, 113898, Note_off_c, 0, 55, 35
1, 113906, Control_c, 0, 67, 112
1, 113911, Note_on_c, 0, 64, 48
1, 113921, Note_off_c, 0, 60, 62
1, 113921, Control_c, 0, 64, 87
1, 113921, Control_c, 0, 67, 99
1, 113936, Control_c, 0, 64, 89
1, 113936, Control_c, 0, 67, 82
1, 113937, Note_off_c, 0, 64, 58
1, 113951, Control_c, 0, 67, 65
1, 113967, Control_c, 0, 67, 48
1, 113973, Poly_aftertouch_c, 0, 79, 0
1, 113982, Control_c, 0, 67, 34
1, 113996, Control_c, 0, 67, 23
1, 114006, Note_on_c, 0, 86, 73
1, 114010, Note_on_c, 0, 64, 53
1, 114011, Control_c, 0, 67, 10
1, 114018, Note_on_c, 0, 74, 63
1, 114026, Control_c, 0, 67, 0
1, 114038, Note_off_c, 0, 64, 57
1, 114041, Control_c, 0, 64, 89
1, 114043, Note_on_c, 0, 60, 43
1, 114056, Control_c, 0, 64, 90
1, 114063, Note_off_c, 0, 74, 56
1, 114068, Note_off_c, 0, 60, 62
1, 114073, Note_off_c, 0, 86, 59
1, 114117, Note_on_c, 0, 55, 48
1, 114164, Note_off_c, 0, 55, 54
1, 114168, Note_on_c, 0, 72, 75
1, 114168, Note_on_c, 0, 84, 79
1, 114178, Note_on_c, 0, 48, 58
1, 114188, Control_c, 0, 64, 90
1, 114196, Note_off_c, 0, 72, 62
1, 114203, Note_off_c, 0, 48, 63
1, 114214, Note_off_c, 0, 84, 61
1, 114233, Control_c, 0, 64, 90
1, 114248, Control_c, 0, 64, 86
1, 114263, Control_c, 0, 64, 79
1, 114278, Control_c, 0, 64, 69
1, 114292, Control_c, 0, 64, 40
1, 114296, Note_on_c, 0, 52, 66
1, 114307, Control_c, 0, 64, 0
1, 114313, Note_on_c, 0, 71, 67
1, 114319, Note_on_c, 0, 83, 77
1, 114332, Note_off_c, 0, 71, 64
1, 114337, Control_c, 0, 64, 47
1, 114349, Note_off_c, 0, 52, 59
1, 114352, Control_c, 0, 64, 67
1, 114367, Control_c, 0, 64, 76
1, 114379, Note_off_c, 0, 83, 60
1, 114382, Control_c, 0, 64, 86
1, 114403, Control_c, 0, 64, 88
1, 114418, Control_c, 0, 64, 89
1, 114437, Note_on_c, 0, 76, 61
1, 114440, Note_on_c, 0, 59, 56
1, 114443, Note_on_c, 0, 74, 51
1, 114456, Note_off_c, 0, 76, 63
1, 114469, Note_off_c, 0, 74, 56
1, 114502, Note_on_c, 0, 68, 62
1, 114513, Note_on_c, 0, 62, 49
1, 114517, Note_off_c, 0, 59, 57
1, 114521, Note_off_c, 0, 68, 64
1, 114522, Control_c, 0, 64, 88
1, 114524, Note_on_c, 0, 76, 61
1, 114542, Note_off_c, 0, 76, 65
1, 114548, Note_off_c, 0, 62, 64
1, 114597, Note_on_c, 0, 68, 63
1, 114614, Note_on_c, 0, 64, 69
1, 114616, Note_off_c, 0, 68, 66
1, 114618, Note_on_c, 0, 76, 68
1, 114626, Control_c, 0, 64, 88
1, 114632, Note_off_c, 0, 64, 68
1, 114634, Note_on_c, 0, 71, 45
1, 114641, Control_c, 0, 64, 87
1, 114650, Note_on_c, 0, 62, 39
1, 114656, Control_c, 0, 64, 87
1, 114660, Note_off_c, 0, 71, 58
1, 114670, Control_c, 0, 64, 86
1, 114676, Note_off_c, 0, 62, 57
1, 114682, Note_on_c, 0, 59, 57
1, 114682, Note_off_c, 0, 76, 63
1, 114685, Control_c, 0, 64, 86
1, 114700, Control_c, 0, 64, 85
1, 114714, Control_c, 0, 67, 8
1, 114729, Control_c, 0, 64, 85
1, 114729, Control_c, 0, 67, 11
1, 114741, Note_off_c, 0, 59, 61
1, 114744, Control_c, 0, 67, 14
1, 114746, Note_on_c, 0, 53, 69
1, 114760, Control_c, 0, 67, 19
1, 114775, Control_c, 0, 67, 24
1, 114778, Note_off_c, 0, 53, 68
1, 114790, Control_c, 0, 67, 27
1, 114805, Control_c, 0, 64, 83
1, 114805, Control_c, 0, 67, 29
1, 114819, Control_c, 0, 64, 78
1, 114819, Control_c, 0, 67, 31
1, 114834, Control_c, 0, 64, 68
1, 114834, Control_c, 0, 67, 34
1, 114849, Control_c, 0, 64, 17
1, 114849, Control_c, 0, 67, 38
1, 114864, Control_c, 0, 64, 0
1, 114864, Control_c, 0, 67, 42
1, 114879, Control_c, 0, 67, 45
1, 114893, Control_c, 0, 67, 46
1, 114895, Note_on_c, 0, 72, 54
1, 114896, Note_on_c, 0, 45, 53
1, 114908, Control_c, 0, 64, 42
1, 114908, Control_c, 0, 67, 47
1, 114923, Control_c, 0, 64, 66
1, 114924, Note_on_c, 0, 84, 65
1, 114930, Note_off_c, 0, 72, 61
1, 114937, Control_c, 0, 64, 73
1, 114952, Control_c, 0, 64, 78
1, 114967, Control_c, 0, 64, 80
1, 114967, Control_c, 0, 67, 45
1, 114973, Note_off_c, 0, 45, 61
1, 114982, Control_c, 0, 64, 81
1, 114982, Control_c, 0, 67, 43
1, 114996, Note_off_c, 0, 84, 59
1, 114997, Control_c, 0, 67, 40
1, 115008, Note_on_c, 0, 52, 52
1, 115011, Control_c, 0, 64, 82
1, 115011, Control_c, 0, 67, 38
1, 115015, Note_on_c, 0, 76, 65
1, 115026, Control_c, 0, 67, 35
1, 115041, Control_c, 0, 67, 31
1, 115042, Note_off_c, 0, 76, 65
1, 115056, Control_c, 0, 67, 23
1, 115071, Control_c, 0, 64, 82
1, 115071, Control_c, 0, 67, 9
1, 115085, Note_off_c, 0, 52, 60
1, 115085, Note_on_c, 0, 57, 51
1, 115085, Control_c, 0, 67, 0
1, 115109, Note_on_c, 0, 60, 51
1, 115109, Note_on_c, 0, 76, 69
1, 115115, Control_c, 0, 64, 82
1, 115122, Note_off_c, 0, 57, 63
1, 115126, Note_off_c, 0, 76, 65
1, 115130, Control_c, 0, 64, 81
1, 115140, Note_off_c, 0, 60, 62
1, 115152, Control_c, 0, 64, 79
1, 115167, Control_c, 0, 64, 79
1, 115182, Control_c, 0, 64, 79
1, 115197, Control_c, 0, 64, 81
1, 115212, Control_c, 0, 64, 82
1, 115222, Note_on_c, 0, 81, 73
1, 115226, Note_on_c, 0, 60, 36
1, 115233, Note_on_c, 0, 57, 31
1, 115241, Note_on_c, 0, 69, 48
1, 115257, Note_off_c, 0, 60, 56
1, 115270, Control_c, 0, 67, 8
1, 115275, Note_off_c, 0, 69, 48
1, 115285, Control_c, 0, 67, 11
1, 115297, Note_off_c, 0, 57, 61
1, 115300, Control_c, 0, 67, 16
1, 115309, Note_off_c, 0, 81, 60
1, 115315, Control_c, 0, 67, 24
1, 115327, Note_on_c, 0, 52, 48
1, 115330, Control_c, 0, 67, 31
1, 115345, Control_c, 0, 67, 39
1, 115360, Control_c, 0, 67, 44
1, 115375, Control_c, 0, 67, 48
1, 115389, Note_on_c, 0, 69, 66
1, 115389, Note_on_c, 0, 81, 74
1, 115389, Control_c, 0, 64, 83
1, 115389, Control_c, 0, 67, 52
1, 115398, Note_on_c, 0, 45, 55
1, 115403, Note_off_c, 0, 52, 57
1, 115404, Control_c, 0, 67, 56
1, 115419, Control_c, 0, 67, 58
1, 115428, Note_off_c, 0, 45, 64
1, 115431, Note_off_c, 0, 69, 59
1, 115472, Note_off_c, 0, 81, 63
1, 115508, Control_c, 0, 64, 79
1, 115523, Control_c, 0, 64, 70
1, 115535, Note_on_c, 0, 52, 59
1, 115537, Control_c, 0, 64, 27
1, 115552, Control_c, 0, 64, 0
1, 115553, Note_on_c, 0, 71, 68
1, 115564, Note_on_c, 0, 83, 79
1, 115585, Note_off_c, 0, 52, 56
1, 115589, Note_off_c, 0, 71, 58
1, 115598, Control_c, 0, 64, 61
1, 115613, Control_c, 0, 64, 69
1, 115628, Control_c, 0, 64, 76
1, 115642, Control_c, 0, 64, 81
1, 115649, Note_off_c, 0, 83, 60
1, 115656, Note_on_c, 0, 59, 52
1, 115657, Control_c, 0, 64, 84
1, 115672, Control_c, 0, 64, 84
1, 115676, Note_on_c, 0, 76, 51
1, 115685, Note_on_c, 0, 74, 43
1, 115700, Note_off_c, 0, 76, 58
1, 115711, Note_off_c, 0, 74, 55
1, 115716, Control_c, 0, 64, 85
1, 115731, Control_c, 0, 67, 58
1, 115748, Note_on_c, 0, 62, 55
1, 115750, Note_on_c, 0, 68, 55
1, 115750, Note_off_c, 0, 59, 56
1, 115754, Note_on_c, 0, 76, 72
1, 115771, Note_off_c, 0, 68, 60
1, 115775, Control_c, 0, 67, 58
1, 115780, Note_off_c, 0, 76, 65
1, 115781, Note_off_c, 0, 62, 63
1, 115790, Control_c, 0, 67, 59
1, 115820, Control_c, 0, 67, 60
1, 115834, Control_c, 0, 67, 60
1, 115840, Note_on_c, 0, 68, 61
1, 115849, Control_c, 0, 67, 61
1, 115864, Control_c, 0, 67, 64
1, 115869, Note_off_c, 0, 68, 64
1, 115870, Note_on_c, 0, 62, 51
1, 115873, Note_on_c, 0, 64, 61
1, 115879, Control_c, 0, 67, 70
1, 115890, Note_on_c, 0, 76, 76
1, 115900, Note_off_c, 0, 64, 63
1, 115901, Control_c, 0, 67, 74
1, 115915, Note_off_c, 0, 62, 60
1, 115916, Control_c, 0, 64, 84
1, 115916, Control_c, 0, 67, 77
1, 115931, Control_c, 0, 67, 80
1, 115946, Control_c, 0, 64, 84
1, 115946, Control_c, 0, 67, 83
1, 115947, Note_on_c, 0, 59, 53
1, 115957, Note_off_c, 0, 76, 63
1, 115961, Control_c, 0, 67, 88
1, 115968, Poly_aftertouch_c, 0, 71, 0
1, 115975, Control_c, 0, 64, 83
1, 115975, Control_c, 0, 67, 92
1, 115990, Control_c, 0, 67, 95
1, 116005, Control_c, 0, 67, 97
1, 116010, Note_off_c, 0, 59, 61
1, 116018, Note_on_c, 0, 53, 70
1, 116020, Control_c, 0, 67, 98
1, 116035, Control_c, 0, 67, 99
1, 116048, Note_off_c, 0, 53, 67
1, 116049, Control_c, 0, 67, 100
1, 116064, Control_c, 0, 67, 100
1, 116093, Control_c, 0, 64, 83
1, 116093, Control_c, 0, 67, 101
1, 116108, Control_c, 0, 64, 80
1, 116108, Control_c, 0, 67, 101
1, 116123, Control_c, 0, 64, 74
1, 116123, Control_c, 0, 67, 103
1, 116138, Control_c, 0, 64, 63
1, 116138, Control_c, 0, 67, 104
1, 116153, Control_c, 0, 64, 0
1, 116153, Control_c, 0, 67, 105
1, 116161, Note_on_c, 0, 45, 58
1, 116161, Note_on_c, 0, 72, 56
1, 116182, Control_c, 0, 67, 105
1, 116192, Note_on_c, 0, 84, 73
1, 116206, Note_off_c, 0, 72, 60
1, 116212, Control_c, 0, 64, 58
1, 116227, Control_c, 0, 64, 68
1, 116242, Control_c, 0, 64, 75
1, 116244, Note_off_c, 0, 45, 59
1, 116254, Note_off_c, 0, 84, 59
1, 116257, Control_c, 0, 64, 79
1, 116272, Control_c, 0, 64, 81
1, 116281, Note_on_c, 0, 52, 53
1, 116349, Note_on_c, 0, 76, 50
1, 116359, Note_off_c, 0, 52, 57
1, 116379, Note_on_c, 0, 57, 47
1, 116399, Note_on_c, 0, 60, 42
1, 116413, Note_off_c, 0, 57, 63
1, 116425, Note_off_c, 0, 60, 59
1, 116427, Note_off_c, 0, 76, 58
1, 116436, Control_c, 0, 64, 79
1, 116451, Control_c, 0, 64, 76
1, 116451, Control_c, 0, 67, 106
1, 116465, Control_c, 0, 64, 70
1, 116480, Control_c, 0, 64, 63
1, 116480, Control_c, 0, 67, 106
1, 116487, Note_on_c, 0, 81, 64
1, 116495, Control_c, 0, 64, 57
1, 116495, Control_c, 0, 67, 107
1, 116499, Note_on_c, 0, 69, 48
1, 116509, Control_c, 0, 64, 62
1, 116509, Control_c, 0, 67, 107
1, 116524, Control_c, 0, 64, 67
1, 116524, Control_c, 0, 67, 108
1, 116527, Note_on_c, 0, 57, 45
1, 116539, Note_on_c, 0, 60, 3
1, 116539, Control_c, 0, 64, 70
1, 116554, Control_c, 0, 64, 74
1, 116557, Note_off_c, 0, 69, 40
1, 116568, Note_off_c, 0, 60, 43
1, 116569, Control_c, 0, 64, 78
1, 116583, Note_off_c, 0, 81, 59
1, 116583, Control_c, 0, 64, 81
1, 116587, Note_off_c, 0, 57, 57
1, 116598, Control_c, 0, 64, 81
1, 116613, Control_c, 0, 67, 109
1, 116615, Note_on_c, 0, 52, 44
1, 116679, Note_on_c, 0, 69, 58
1, 116681, Note_on_c, 0, 81, 66
1, 116698, Note_off_c, 0, 52, 55
1, 116705, Note_on_c, 0, 45, 52
1, 116719, Note_off_c, 0, 69, 47
1, 116731, Note_off_c, 0, 45, 59
1, 116788, Note_off_c, 0, 81, 55
1, 116798, Control_c, 0, 67, 108
1, 116828, Control_c, 0, 64, 80
1, 116843, Control_c, 0, 64, 78
1, 116858, Control_c, 0, 64, 72
1, 116868, Note_on_c, 0, 50, 48
1, 116872, Control_c, 0, 64, 65
1, 116887, Control_c, 0, 64, 38
1, 116887, Control_c, 0, 67, 108
1, 116900, Note_on_c, 0, 69, 52
1, 116902, Control_c, 0, 64, 0
1, 116907, Note_on_c, 0, 81, 63
1, 116916, Control_c, 0, 67, 107
1, 116929, Note_off_c, 0, 69, 65
1, 116931, Control_c, 0, 64, 47
1, 116931, Control_c, 0, 67, 106
1, 116946, Control_c, 0, 64, 63
1, 116946, Control_c, 0, 67, 105
1, 116961, Control_c, 0, 64, 69
1, 116961, Control_c, 0, 67, 105
1, 116975, Note_off_c, 0, 50, 54
1, 116976, Control_c, 0, 64, 74
1, 116976, Control_c, 0, 67, 104
1, 116990, Control_c, 0, 64, 80
1, 116990, Control_c, 0, 67, 104
1, 117005, Control_c, 0, 64, 83
1, 117005, Control_c, 0, 67, 103
1, 117013, Note_off_c, 0, 81, 59
1, 117024, Note_on_c, 0, 57, 47
1, 117028, Note_on_c, 0, 74, 60
1, 117035, Note_on_c, 0, 72, 57
1, 117035, Control_c, 0, 67, 103
1, 117056, Note_off_c, 0, 74, 67
1, 117069, Note_off_c, 0, 72, 59
1, 117094, Control_c, 0, 67, 104
1, 117105, Note_on_c, 0, 60, 56
1, 117109, Control_c, 0, 67, 104
1, 117121, Note_off_c, 0, 57, 38
1, 117124, Control_c, 0, 67, 105
1, 117125, Note_on_c, 0, 74, 70
1, 117126, Note_on_c, 0, 66, 49
1, 117139, Control_c, 0, 64, 82
1, 117139, Control_c, 0, 67, 106
1, 117148, Note_off_c, 0, 60, 61
1, 117149, Note_on_c, 0, 72, 3
1, 117151, Note_off_c, 0, 66, 57
1, 117154, Note_off_c, 0, 74, 67
1, 117154, Control_c, 0, 64, 80
1, 117154, Control_c, 0, 67, 107
1, 117169, Control_c, 0, 64, 74
1, 117169, Control_c, 0, 67, 108
1, 117178, Note_off_c, 0, 72, 39
1, 117184, Control_c, 0, 64, 67
1, 117184, Control_c, 0, 67, 109
1, 117199, Control_c, 0, 64, 66
1, 117199, Control_c, 0, 67, 109
1, 117214, Control_c, 0, 64, 68
1, 117214, Control_c, 0, 67, 110
1, 117225, Note_on_c, 0, 80, 75
1, 117229, Control_c, 0, 64, 69
1, 117232, Note_on_c, 0, 68, 67
1, 117243, Note_on_c, 0, 66, 38
1, 117244, Control_c, 0, 64, 70
1, 117258, Control_c, 0, 64, 72
1, 117258, Control_c, 0, 67, 111
1, 117264, Note_on_c, 0, 60, 45
1, 117266, Note_off_c, 0, 68, 60
1, 117271, Note_off_c, 0, 66, 53
1, 117273, Control_c, 0, 64, 74
1, 117288, Control_c, 0, 64, 77
1, 117301, Note_off_c, 0, 80, 63
1, 117303, Control_c, 0, 64, 78
1, 117318, Note_on_c, 0, 57, 50
1, 117318, Control_c, 0, 64, 79
1, 117327, Note_off_c, 0, 60, 59
1, 117332, Control_c, 0, 64, 82
1, 117347, Control_c, 0, 64, 83
1, 117385, Note_on_c, 0, 52, 60
1, 117390, Note_on_c, 0, 81, 77
1, 117393, Note_off_c, 0, 57, 61
1, 117396, Note_on_c, 0, 69, 67
1, 117399, Control_c, 0, 67, 110
1, 117413, Control_c, 0, 64, 83
1, 117413, Control_c, 0, 67, 110
1, 117429, Note_off_c, 0, 52, 64
1, 117434, Note_off_c, 0, 69, 53
1, 117443, Control_c, 0, 67, 109
1, 117473, Control_c, 0, 64, 84
1, 117479, Note_off_c, 0, 81, 61
1, 117488, Control_c, 0, 64, 85
1, 117518, Control_c, 0, 64, 82
1, 117532, Control_c, 0, 64, 77
1, 117547, Control_c, 0, 64, 67
1, 117560, Note_on_c, 0, 43, 53
1, 117562, Control_c, 0, 64, 0
1, 117580, Note_on_c, 0, 71, 52
1, 117589, Note_on_c, 0, 83, 73
1, 117592, Control_c, 0, 67, 109
1, 117622, Note_off_c, 0, 71, 60
1, 117626, Note_off_c, 0, 43, 54
1, 117636, Control_c, 0, 64, 65
1, 117651, Control_c, 0, 64, 73
1, 117661, Note_off_c, 0, 83, 56
1, 117665, Control_c, 0, 64, 81
1, 117667, Note_on_c, 0, 50, 52
1, 117680, Control_c, 0, 64, 81
1, 117694, Note_on_c, 0, 74, 66
1, 117710, Control_c, 0, 67, 108
1, 117724, Note_off_c, 0, 74, 63
1, 117725, Control_c, 0, 64, 82
1, 117739, Control_c, 0, 64, 83
1, 117739, Control_c, 0, 67, 108
1, 117754, Note_on_c, 0, 55, 59
1, 117754, Control_c, 0, 64, 83
1, 117754, Control_c, 0, 67, 107
1, 117763, Note_off_c, 0, 50, 60
1, 117777, Note_on_c, 0, 74, 58
1, 117784, Note_on_c, 0, 59, 47
1, 117784, Control_c, 0, 67, 107
1, 117792, Note_off_c, 0, 55, 61
1, 117799, Control_c, 0, 67, 106
1, 117810, Note_off_c, 0, 59, 54
1, 117811, Note_off_c, 0, 74, 65
1, 117813, Control_c, 0, 64, 84
1, 117813, Control_c, 0, 67, 106
1, 117828, Control_c, 0, 64, 84
1, 117828, Control_c, 0, 67, 105
1, 117843, Control_c, 0, 67, 104
1, 117858, Control_c, 0, 67, 102
1, 117870, Note_on_c, 0, 79, 73
1, 117873, Control_c, 0, 67, 101
1, 117883, Note_on_c, 0, 55, 54
1, 117884, Note_on_c, 0, 67, 52
1, 117887, Control_c, 0, 67, 100
1, 117902, Control_c, 0, 67, 98
1, 117911, Note_off_c, 0, 67, 55
1, 117917, Control_c, 0, 64, 85
1, 117917, Control_c, 0, 67, 96
1, 117932, Control_c, 0, 67, 93
1, 117937, Note_off_c, 0, 79, 60
1, 117947, Note_off_c, 0, 55, 63
1, 117947, Control_c, 0, 67, 90
1, 117962, Note_on_c, 0, 50, 56
1, 117962, Control_c, 0, 67, 87
1, 117968, Poly_aftertouch_c, 0, 59, 0
1, 117977, Control_c, 0, 67, 80
1, 117992, Control_c, 0, 67, 67
1, 118007, Control_c, 0, 67, 55
1, 118017, Note_on_c, 0, 79, 76
1, 118018, Note_on_c, 0, 67, 64
1, 118022, Control_c, 0, 67, 44
1, 118028, Note_on_c, 0, 43, 66
1, 118036, Note_off_c, 0, 50, 63
1, 118036, Control_c, 0, 67, 36
1, 118051, Control_c, 0, 67, 27
1, 118054, Note_off_c, 0, 67, 57
1, 118058, Note_off_c, 0, 43, 64
1, 118066, Control_c, 0, 67, 16
1, 118081, Control_c, 0, 67, 0
1, 118095, Note_off_c, 0, 79, 61
1, 118111, Control_c, 0, 64, 83
1, 118126, Control_c, 0, 64, 77
1, 118148, Control_c, 0, 64, 63
1, 118160, Note_on_c, 0, 50, 65
1, 118162, Control_c, 0, 64, 0
1, 118183, Note_on_c, 0, 69, 68
1, 118184, Note_on_c, 0, 81, 82
1, 118207, Note_off_c, 0, 69, 68
1, 118222, Control_c, 0, 64, 48
1, 118230, Note_off_c, 0, 50, 61
1, 118236, Control_c, 0, 64, 67
1, 118251, Control_c, 0, 64, 74
1, 118266, Control_c, 0, 64, 80
1, 118281, Control_c, 0, 64, 80
1, 118285, Note_off_c, 0, 81, 47
1, 118290, Note_on_c, 0, 57, 52
1, 118304, Note_on_c, 0, 74, 64
1, 118305, Note_on_c, 0, 72, 63
1, 118332, Note_off_c, 0, 74, 69
1, 118336, Note_off_c, 0, 72, 65
1, 118351, Note_on_c, 0, 60, 61
1, 118365, Note_on_c, 0, 66, 57
1, 118378, Note_off_c, 0, 57, 38
1, 118390, Note_off_c, 0, 66, 64
1, 118398, Note_off_c, 0, 60, 60
1, 118415, Control_c, 0, 64, 81
1, 118460, Note_on_c, 0, 66, 67
1, 118482, Note_off_c, 0, 66, 68
1, 118501, Note_on_c, 0, 60, 45
1, 118504, Note_on_c, 0, 62, 57
1, 118508, Note_on_c, 0, 74, 68
1, 118525, Note_on_c, 0, 72, 60
1, 118527, Note_off_c, 0, 62, 61
1, 118541, Note_off_c, 0, 60, 62
1, 118544, Note_off_c, 0, 72, 61
1, 118548, Control_c, 0, 64, 80
1, 118549, Note_on_c, 0, 57, 54
1, 118559, Note_off_c, 0, 74, 66
1, 118562, Control_c, 0, 64, 80
1, 118592, Control_c, 0, 64, 79
1, 118607, Control_c, 0, 64, 79
1, 118622, Note_off_c, 0, 57, 62
1, 118622, Control_c, 0, 64, 78
1, 118639, Note_on_c, 0, 50, 38
1, 118673, Note_off_c, 0, 50, 55
1, 118710, Control_c, 0, 64, 78
1, 118725, Control_c, 0, 64, 77
1, 118740, Control_c, 0, 64, 75
1, 118756, Control_c, 0, 64, 71
1, 118756, Control_c, 0, 67, 8
1, 118771, Control_c, 0, 64, 63
1, 118771, Control_c, 0, 67, 10
1, 118785, Control_c, 0, 64, 0
1, 118785, Control_c, 0, 67, 12
1, 118788, Note_on_c, 0, 71, 53
1, 118790, Note_on_c, 0, 43, 49
1, 118800, Control_c, 0, 67, 13
1, 118815, Control_c, 0, 67, 13
1, 118831, Note_on_c, 0, 83, 73
1, 118845, Control_c, 0, 67, 14
1, 118859, Control_c, 0, 64, 57
1, 118859, Control_c, 0, 67, 16
1, 118862, Note_off_c, 0, 43, 60
1, 118874, Control_c, 0, 64, 66
1, 118874, Control_c, 0, 67, 18
1, 118886, Note_off_c, 0, 71, 40
1, 118897, Control_c, 0, 64, 72
1, 118897, Control_c, 0, 67, 21
1, 118909, Note_off_c, 0, 83, 58
1, 118911, Control_c, 0, 64, 77
1, 118911, Control_c, 0, 67, 24
1, 118926, Control_c, 0, 64, 79
1, 118926, Control_c, 0, 67, 26
1, 118935, Note_on_c, 0, 74, 53
1, 118937, Note_on_c, 0, 50, 37
1, 118941, Control_c, 0, 67, 29
1, 118956, Control_c, 0, 67, 31
1, 118957, Note_off_c, 0, 74, 62
1, 118971, Control_c, 0, 64, 79
1, 118971, Control_c, 0, 67, 32
1, 118985, Control_c, 0, 67, 33
1, 119000, Control_c, 0, 67, 34
1, 119007, Note_on_c, 0, 55, 58
1, 119015, Control_c, 0, 67, 35
1, 119019, Note_on_c, 0, 74, 63
1, 119030, Control_c, 0, 67, 36
1, 119045, Note_on_c, 0, 59, 47
1, 119045, Control_c, 0, 67, 39
1, 119053, Note_off_c, 0, 55, 63
1, 119059, Control_c, 0, 64, 78
1, 119059, Control_c, 0, 67, 42
1, 119068, Note_off_c, 0, 74, 45
1, 119071, Note_off_c, 0, 50, 36
1, 119072, Note_off_c, 0, 59, 54
1, 119074, Control_c, 0, 64, 76
1, 119074, Control_c, 0, 67, 46
1, 119089, Control_c, 0, 64, 71
1, 119089, Control_c, 0, 67, 49
1, 119104, Control_c, 0, 64, 67
1, 119104, Control_c, 0, 67, 53
1, 119119, Control_c, 0, 64, 67
1, 119119, Control_c, 0, 67, 56
1, 119133, Control_c, 0, 64, 69
1, 119133, Control_c, 0, 67, 58
1, 119137, Note_on_c, 0, 59, 48
1, 119140, Note_on_c, 0, 79, 51
1, 119145, Note_on_c, 0, 67, 49
1, 119148, Control_c, 0, 64, 72
1, 119148, Control_c, 0, 67, 61
1, 119163, Control_c, 0, 64, 75
1, 119163, Control_c, 0, 67, 63
1, 119166, Note_on_c, 0, 55, 32
1, 119173, Note_on_c, 0, 77, 35
1, 119175, Note_off_c, 0, 67, 53
1, 119178, Control_c, 0, 64, 77
1, 119178, Control_c, 0, 67, 65
1, 119193, Control_c, 0, 64, 79
1, 119193, Control_c, 0, 67, 69
1, 119195, Note_off_c, 0, 79, 0
1, 119195, Note_on_c, 0, 79, 3
1, 119205, Note_off_c, 0, 59, 39
1, 119205, Note_off_c, 0, 77, 33
1, 119208, Control_c, 0, 64, 79
1, 119208, Control_c, 0, 67, 73
1, 119223, Control_c, 0, 67, 74
1, 119230, Note_off_c, 0, 79, 50
1, 119235, Note_off_c, 0, 55, 57
1, 119238, Control_c, 0, 67, 75
1, 119252, Control_c, 0, 67, 76
1, 119257, Note_on_c, 0, 50, 49
1, 119267, Control_c, 0, 67, 77
1, 119282, Control_c, 0, 67, 78
1, 119297, Control_c, 0, 67, 78
1, 119311, Control_c, 0, 64, 80
1, 119311, Control_c, 0, 67, 79
1, 119322, Note_on_c, 0, 79, 62
1, 119326, Control_c, 0, 67, 80
1, 119341, Control_c, 0, 67, 81
1, 119354, Note_on_c, 0, 67, 32
1, 119367, Note_off_c, 0, 50, 52
1, 119371, Control_c, 0, 67, 81
1, 119376, Note_on_c, 0, 43, 50
1, 119409, Note_off_c, 0, 67, 47
1, 119416, Note_off_c, 0, 43, 62
1, 119426, Note_off_c, 0, 79, 56
1, 119474, Control_c, 0, 64, 79
1, 119489, Control_c, 0, 64, 76
1, 119503, Control_c, 0, 64, 71
1, 119518, Control_c, 0, 64, 65
1, 119532, Note_on_c, 0, 67, 42
1, 119533, Note_on_c, 0, 43, 32
1, 119533, Control_c, 0, 64, 47
1, 119540, Note_on_c, 0, 79, 65
1, 119548, Control_c, 0, 64, 17
1, 119564, Control_c, 0, 64, 51
1, 119564, Control_c, 0, 67, 81
1, 119579, Control_c, 0, 64, 63
1, 119579, Control_c, 0, 67, 80
1, 119587, Note_off_c, 0, 67, 57
1, 119594, Control_c, 0, 64, 68
1, 119594, Control_c, 0, 67, 78
1, 119608, Control_c, 0, 64, 73
1, 119608, Control_c, 0, 67, 76
1, 119623, Control_c, 0, 64, 78
1, 119623, Control_c, 0, 67, 74
1, 119634, Note_off_c, 0, 43, 36
1, 119646, Control_c, 0, 64, 81
1, 119646, Control_c, 0, 67, 73
1, 119649, Note_on_c, 0, 50, 46
1, 119661, Control_c, 0, 64, 83
1, 119661, Control_c, 0, 67, 72
1, 119664, Note_on_c, 0, 77, 55
1, 119667, Note_on_c, 0, 53, 46
1, 119676, Control_c, 0, 67, 71
1, 119676, Note_off_c, 0, 79, 47
1, 119688, Note_on_c, 0, 74, 11
1, 119690, Control_c, 0, 64, 84
1, 119690, Control_c, 0, 67, 69
1, 119698, Note_off_c, 0, 77, 60
1, 119705, Control_c, 0, 64, 84
1, 119705, Control_c, 0, 67, 67
1, 119720, Control_c, 0, 64, 86
1, 119720, Control_c, 0, 67, 63
1, 119734, Control_c, 0, 64, 88
1, 119734, Control_c, 0, 67, 56
1, 119741, Note_off_c, 0, 53, 48
1, 119744, Note_on_c, 0, 59, 57
1, 119745, Note_off_c, 0, 50, 57
1, 119749, Control_c, 0, 64, 88
1, 119749, Control_c, 0, 67, 46
1, 119760, Note_on_c, 0, 77, 67
1, 119764, Control_c, 0, 67, 33
1, 119771, Note_off_c, 0, 59, 63
1, 119779, Control_c, 0, 67, 19
1, 119794, Control_c, 0, 67, 0
1, 119795, Note_off_c, 0, 74, 48
1, 119804, Note_off_c, 0, 77, 59
1, 119835, Note_on_c, 0, 59, 71
1, 119864, Note_on_c, 0, 81, 77
1, 119879, Note_on_c, 0, 69, 42
1, 119885, Note_off_c, 0, 59, 40
1, 119904, Note_off_c, 0, 69, 55
1, 119923, Note_on_c, 0, 53, 50
1, 119931, Note_off_c, 0, 81, 61
1, 119943, Note_on_c, 0, 50, 52
1, 119982, Note_off_c, 0, 53, 58
1, 120018, Note_on_c, 0, 71, 81
1, 120022, Note_on_c, 0, 83, 81
1, 120028, Note_on_c, 0, 43, 66
1, 120056, Note_off_c, 0, 71, 64
1, 120059, Note_off_c, 0, 50, 63
1, 120096, Note_off_c, 0, 43, 61
1, 120106, Note_off_c, 0, 83, 64
1, 120120, Control_c, 0, 64, 88
1, 120135, Control_c, 0, 64, 85
1, 120147, Note_on_c, 0, 43, 58
1, 120150, Control_c, 0, 64, 79
1, 120165, Control_c, 0, 64, 71
1, 120180, Control_c, 0, 64, 62
1, 120188, Note_on_c, 0, 72, 70
1, 120195, Control_c, 0, 64, 27
1, 120197, Note_on_c, 0, 84, 79
1, 120209, Control_c, 0, 64, 26
1, 120224, Control_c, 0, 64, 61
1, 120239, Control_c, 0, 64, 70
1, 120245, Note_off_c, 0, 43, 57
1, 120250, Note_off_c, 0, 72, 58
1, 120253, Control_c, 0, 64, 77
1, 120268, Control_c, 0, 64, 85
1, 120283, Control_c, 0, 64, 91
1, 120298, Control_c, 0, 64, 94
1, 120303, Note_on_c, 0, 52, 49
1, 120305, Note_on_c, 0, 79, 69
1, 120305, Note_on_c, 0, 76, 62
1, 120313, Control_c, 0, 64, 96
1, 120321, Note_on_c, 0, 55, 57
1, 120328, Note_off_c, 0, 84, 61
1, 120329, Note_off_c, 0, 79, 66
1, 120334, Note_off_c, 0, 76, 64
1, 120388, Note_on_c, 0, 60, 67
1, 120397, Note_on_c, 0, 79, 75
1, 120403, Note_on_c, 0, 76, 74
1, 120416, Note_off_c, 0, 60, 67
1, 120422, Note_off_c, 0, 55, 57
1, 120425, Note_off_c, 0, 76, 65
1, 120431, Note_off_c, 0, 79, 62
1, 120487, Note_on_c, 0, 60, 63
1, 120502, Note_off_c, 0, 52, 60
1, 120503, Note_on_c, 0, 86, 87
1, 120513, Note_on_c, 0, 74, 74
1, 120530, Note_off_c, 0, 60, 59
1, 120531, Note_off_c, 0, 74, 64
1, 120564, Note_on_c, 0, 55, 56
1, 120579, Note_off_c, 0, 86, 63
1, 120588, Note_on_c, 0, 52, 41
1, 120606, Note_off_c, 0, 55, 60
1, 120660, Note_on_c, 0, 88, 92
1, 120663, Note_on_c, 0, 76, 83
1, 120679, Note_off_c, 0, 52, 62
1, 120716, Note_on_c, 0, 43, 47
1, 120724, Note_on_c, 0, 45, 23
1, 120725, Note_off_c, 0, 76, 55
1, 120749, Note_off_c, 0, 43, 51
1, 120769, Note_off_c, 0, 45, 40
1, 120785, Note_off_c, 0, 88, 62
1, 120824, Control_c, 0, 64, 98
1, 120837, Note_on_c, 0, 43, 55
1, 120839, Control_c, 0, 64, 99
1, 120853, Control_c, 0, 64, 99
1, 120868, Control_c, 0, 64, 92
1, 120877, Note_on_c, 0, 77, 73
1, 120883, Control_c, 0, 64, 78
1, 120886, Note_on_c, 0, 89, 82
1, 120898, Control_c, 0, 64, 46
1, 120913, Control_c, 0, 64, 0
1, 120972, Control_c, 0, 64, 68
1, 120987, Control_c, 0, 64, 89
1, 120988, Note_off_c, 0, 77, 47
1, 120988, Note_off_c, 0, 89, 54
1, 121002, Control_c, 0, 64, 127
1, 121014, Note_off_c, 0, 43, 39
1, 121037, Note_on_c, 0, 79, 57
1, 121046, Note_on_c, 0, 50, 51
1, 121055, Note_on_c, 0, 53, 49
1, 121066, Note_off_c, 0, 79, 64
1, 121115, Note_off_c, 0, 50, 58
1, 121135, Note_on_c, 0, 59, 53
1, 121140, Note_off_c, 0, 53, 59
1, 121142, Note_on_c, 0, 79, 61
1, 121159, Note_off_c, 0, 59, 59
1, 121162, Note_off_c, 0, 79, 62
1, 121242, Note_on_c, 0, 59, 47
1, 121249, Note_on_c, 0, 74, 64
1, 121261, Note_on_c, 0, 86, 36
1, 121268, Note_on_c, 0, 84, 39
1, 121271, Note_off_c, 0, 74, 65
1, 121277, Control_c, 0, 67, 8
1, 121281, Note_off_c, 0, 59, 47
1, 121289, Note_off_c, 0, 86, 54
1, 121292, Control_c, 0, 67, 11
1, 121296, Note_on_c, 0, 53, 52
1, 121298, Note_off_c, 0, 84, 55
1, 121306, Control_c, 0, 67, 13
1, 121321, Control_c, 0, 67, 15
1, 121336, Control_c, 0, 67, 18
1, 121340, Note_on_c, 0, 50, 51
1, 121351, Control_c, 0, 67, 21
1, 121360, Note_off_c, 0, 53, 45
1, 121366, Control_c, 0, 67, 25
1, 121380, Control_c, 0, 67, 28
1, 121391, Note_on_c, 0, 83, 75
1, 121395, Control_c, 0, 67, 31
1, 121399, Note_on_c, 0, 71, 64
1, 121410, Control_c, 0, 67, 33
1, 121425, Control_c, 0, 67, 35
1, 121433, Note_off_c, 0, 71, 49
1, 121439, Note_on_c, 0, 43, 52
1, 121440, Control_c, 0, 67, 35
1, 121447, Note_off_c, 0, 50, 57
1, 121469, Control_c, 0, 67, 36
1, 121471, Note_off_c, 0, 83, 60
1, 121478, Note_off_c, 0, 43, 62
1, 121484, Control_c, 0, 67, 36
1, 121513, Control_c, 0, 67, 37
1, 121528, Control_c, 0, 67, 38
1, 121543, Control_c, 0, 64, 122
1, 121543, Control_c, 0, 67, 38
1, 121558, Control_c, 0, 64, 92
1, 121571, Note_on_c, 0, 43, 63
1, 121573, Control_c, 0, 64, 72
1, 121573, Control_c, 0, 67, 39
1, 121577, Note_on_c, 0, 72, 53
1, 121584, Note_on_c, 0, 84, 68
1, 121587, Control_c, 0, 64, 0
1, 121602, Control_c, 0, 67, 39
1, 121622, Note_off_c, 0, 43, 58
1, 121647, Control_c, 0, 64, 68
1, 121661, Control_c, 0, 64, 93
1, 121661, Control_c, 0, 67, 38
1, 121676, Control_c, 0, 64, 127
1, 121676, Control_c, 0, 67, 36
1, 121691, Control_c, 0, 67, 35
1, 121696, Note_on_c, 0, 52, 55
1, 121699, Note_off_c, 0, 84, 51
1, 121704, Note_on_c, 0, 79, 65
1, 121706, Control_c, 0, 67, 34
1, 121713, Note_on_c, 0, 55, 46
1, 121714, Note_on_c, 0, 76, 53
1, 121719, Note_off_c, 0, 72, 42
1, 121721, Control_c, 0, 67, 33
1, 121729, Note_off_c, 0, 79, 67
1, 121736, Control_c, 0, 67, 32
1, 121737, Note_off_c, 0, 76, 61
1, 121751, Control_c, 0, 67, 31
1, 121766, Control_c, 0, 67, 30
1, 121777, Note_on_c, 0, 60, 62
1, 121795, Note_off_c, 0, 52, 56
1, 121796, Note_on_c, 0, 76, 49
1, 121796, Note_off_c, 0, 55, 62
1, 121804, Note_off_c, 0, 60, 67
1, 121809, Note_on_c, 0, 79, 42
1, 121810, Control_c, 0, 67, 29
1, 121819, Note_off_c, 0, 76, 59
1, 121824, Control_c, 0, 67, 30
1, 121837, Note_off_c, 0, 79, 55
1, 121854, Control_c, 0, 67, 31
1, 121867, Note_on_c, 0, 60, 68
1, 121869, Control_c, 0, 67, 32
1, 121913, Note_on_c, 0, 79, 78
1, 121921, Control_c, 0, 67, 32
1, 121921, Note_on_c, 0, 67, 50
1, 121927, Note_off_c, 0, 60, 56
1, 121945, Note_off_c, 0, 67, 57
1, 121951, Control_c, 0, 67, 32
1, 121962, Note_on_c, 0, 55, 49
1, 121974, Note_off_c, 0, 79, 47
1, 121979, Note_on_c, 0, 52, 54
1, 121992, Note_off_c, 0, 55, 64
1, 121996, Control_c, 0, 67, 31
1, 122010, Control_c, 0, 67, 31
1, 122025, Control_c, 0, 67, 30
1, 122061, Note_off_c, 0, 52, 56
1, 122062, Note_on_c, 0, 43, 64
1, 122066, Note_on_c, 0, 67, 63
1, 122067, Note_on_c, 0, 79, 76
1, 122120, Note_off_c, 0, 67, 54
1, 122131, Note_off_c, 0, 43, 56
1, 122144, Control_c, 0, 64, 124
1, 122144, Control_c, 0, 67, 30
1, 122147, Note_off_c, 0, 79, 56
1, 122159, Control_c, 0, 64, 109
1, 122174, Control_c, 0, 64, 92
1, 122189, Control_c, 0, 64, 77
1, 122203, Control_c, 0, 64, 64
1, 122209, Note_on_c, 0, 43, 44
1, 122218, Control_c, 0, 64, 0
1, 122236, Note_on_c, 0, 67, 58
1, 122238, Note_on_c, 0, 79, 61
1, 122247, Control_c, 0, 64, 59
1, 122262, Control_c, 0, 64, 67
1, 122262, Control_c, 0, 67, 30
1, 122275, Note_off_c, 0, 67, 59
1, 122277, Control_c, 0, 64, 77
1, 122277, Control_c, 0, 67, 26
1, 122292, Control_c, 0, 64, 89
1, 122292, Control_c, 0, 67, 9
1, 122305, Note_off_c, 0, 43, 50
1, 122307, Control_c, 0, 64, 105
1, 122307, Control_c, 0, 67, 0
1, 122322, Control_c, 0, 64, 127
1, 122348, Note_on_c, 0, 50, 58
1, 122361, Note_on_c, 0, 53, 50
1, 122370, Note_on_c, 0, 77, 53
1, 122379, Note_on_c, 0, 74, 42
1, 122385, Note_off_c, 0, 79, 47
1, 122392, Note_off_c, 0, 77, 64
1, 122424, Note_off_c, 0, 50, 61
1, 122435, Note_on_c, 0, 59, 65
1, 122437, Note_off_c, 0, 53, 59
1, 122445, Note_off_c, 0, 74, 0
1, 122459, Note_on_c, 0, 74, 36
1, 122462, Note_off_c, 0, 59, 65
1, 122477, Note_on_c, 0, 77, 50
1, 122490, Note_off_c, 0, 74, 54
1, 122499, Note_off_c, 0, 77, 61
1, 122531, Note_on_c, 0, 59, 58
1, 122537, Note_on_c, 0, 81, 79
1, 122539, Note_on_c, 0, 69, 72
1, 122562, Note_off_c, 0, 69, 62
1, 122577, Note_off_c, 0, 59, 54
1, 122581, Note_on_c, 0, 53, 58
1, 122594, Note_off_c, 0, 81, 61
1, 122610, Note_on_c, 0, 50, 57
1, 122658, Note_off_c, 0, 53, 61
1, 122687, Note_on_c, 0, 83, 88
1, 122693, Note_on_c, 0, 71, 75
1, 122700, Note_on_c, 0, 43, 69
1, 122722, Note_off_c, 0, 50, 61
1, 122722, Note_off_c, 0, 71, 60
1, 122758, Note_off_c, 0, 43, 59
1, 122762, Note_off_c, 0, 83, 62
1, 122813, Note_on_c, 0, 43, 61
1, 122820, Control_c, 0, 64, 82
1, 122834, Control_c, 0, 64, 64
1, 122847, Note_on_c, 0, 72, 73
1, 122849, Control_c, 0, 64, 0
1, 122852, Note_on_c, 0, 84, 76
1, 122864, Control_c, 0, 64, 58
1, 122878, Control_c, 0, 64, 76
1, 122880, Note_off_c, 0, 43, 62
1, 122893, Control_c, 0, 64, 127
1, 122905, Note_off_c, 0, 72, 52
1, 122939, Note_on_c, 0, 52, 64
1, 122948, Note_on_c, 0, 55, 66
1, 122970, Note_on_c, 0, 76, 59
1, 122970, Note_on_c, 0, 79, 61
1, 122983, Note_off_c, 0, 84, 60
1, 122990, Note_off_c, 0, 79, 65
1, 122991, Note_off_c, 0, 76, 64
1, 123017, Note_off_c, 0, 52, 60
1, 123025, Note_on_c, 0, 60, 67
1, 123032, Note_off_c, 0, 55, 62
1, 123048, Note_off_c, 0, 60, 69
1, 123055, Note_on_c, 0, 79, 66
1, 123056, Note_on_c, 0, 76, 57
1, 123073, Note_off_c, 0, 79, 65
1, 123078, Note_off_c, 0, 76, 59
1, 123111, Note_on_c, 0, 60, 67
1, 123146, Note_on_c, 0, 86, 88
1, 123152, Note_on_c, 0, 74, 77
1, 123168, Note_off_c, 0, 60, 56
1, 123176, Note_off_c, 0, 74, 71
1, 123180, Note_on_c, 0, 55, 54
1, 123193, Note_off_c, 0, 86, 65
1, 123217, Note_on_c, 0, 52, 52
1, 123259, Note_off_c, 0, 55, 58
1, 123292, Note_on_c, 0, 88, 93
1, 123296, Note_on_c, 0, 76, 79
1, 123312, Note_off_c, 0, 52, 58
1, 123319, Note_off_c, 0, 76, 66
1, 123324, Note_on_c, 0, 43, 59
1, 123341, Note_off_c, 0, 88, 66
1, 123358, Note_off_c, 0, 43, 63
1, 123459, Note_on_c, 0, 43, 44
1, 123493, Control_c, 0, 64, 93
1, 123508, Control_c, 0, 64, 75
1, 123523, Control_c, 0, 64, 62
1, 123538, Control_c, 0, 64, 0
1, 123541, Note_on_c, 0, 91, 79
1, 123542, Note_on_c, 0, 83, 50
1, 123544, Note_on_c, 0, 79, 73
1, 123596, Control_c, 0, 64, 60
1, 123611, Control_c, 0, 64, 71
1, 123626, Control_c, 0, 64, 86
1, 123641, Control_c, 0, 64, 118
1, 123655, Control_c, 0, 64, 127
1, 123682, Note_off_c, 0, 43, 55
1, 123685, Note_off_c, 0, 79, 56
1, 123687, Note_off_c, 0, 91, 61
1, 123694, Note_off_c, 0, 83, 60
1, 123700, Note_on_c, 0, 50, 51
1, 123745, Note_on_c, 0, 53, 39
1, 123787, Note_on_c, 0, 89, 80
1, 123791, Note_on_c, 0, 77, 69
1, 123819, Note_off_c, 0, 50, 48
1, 123824, Note_off_c, 0, 77, 62
1, 123825, Note_on_c, 0, 59, 57
1, 123832, Note_off_c, 0, 53, 54
1, 123834, Note_off_c, 0, 89, 61
1, 123856, Note_off_c, 0, 59, 63
1, 123939, Note_on_c, 0, 59, 52
1, 123955, Note_on_c, 0, 86, 79
1, 123959, Note_on_c, 0, 74, 69
1, 123983, Note_off_c, 0, 74, 60
1, 123988, Note_off_c, 0, 59, 54
1, 124004, Note_off_c, 0, 86, 62
1, 124019, Note_on_c, 0, 53, 59
1, 124073, Note_off_c, 0, 53, 60
1, 124079, Note_on_c, 0, 50, 58
1, 124144, Note_on_c, 0, 83, 78
1, 124149, Note_on_c, 0, 71, 74
1, 124177, Note_on_c, 0, 43, 63
1, 124199, Note_off_c, 0, 71, 51
1, 124207, Note_off_c, 0, 50, 61
1, 124228, Note_off_c, 0, 43, 57
1, 124272, Note_off_c, 0, 83, 57
1, 124344, Control_c, 0, 64, 100
1, 124360, Control_c, 0, 64, 29
1, 124375, Control_c, 0, 64, 0
1, 124387, Note_on_c, 0, 60, 99
1, 124392, Note_on_c, 0, 72, 104
1, 124392, Note_on_c, 0, 84, 101
1, 124392, Note_on_c, 0, 76, 92
1, 124393, Note_on_c, 0, 52, 92
1, 124395, Note_on_c, 0, 48, 86
1, 124419, Control_c, 0, 64, 62
1, 124434, Control_c, 0, 64, 103
1, 124441, Note_on_c, 0, 50, 17
1, 124442, Note_off_c, 0, 50, 127
1, 124448, Control_c, 0, 64, 127
1, 124469, Note_off_c, 0, 84, 60
1, 124478, Poly_aftertouch_c, 0, 56, 0
1, 124493, Note_off_c, 0, 72, 59
1, 124504, Note_off_c, 0, 76, 27
1, 124515, Poly_aftertouch_c, 0, 56, 127
1, 124555, Poly_aftertouch_c, 0, 56, 0
1, 124650, Note_on_c, 0, 64, 69
1, 124661, Note_off_c, 0, 48, 31
1, 124670, Note_off_c, 0, 52, 59
1, 124681, Note_off_c, 0, 64, 59
1, 124760, Note_on_c, 0, 76, 72
1, 124779, Note_off_c, 0, 60, 42
1, 124789, Note_off_c, 0, 76, 62
1, 124839, Note_on_c, 0, 52, 71
1, 124852, Note_on_c, 0, 76, 78
1, 124901, Note_off_c, 0, 52, 59
1, 124919, Note_off_c, 0, 76, 61
1, 124942, Note_on_c, 0, 64, 75
1, 124942, Note_on_c, 0, 88, 85
1, 124987, Note_off_c, 0, 88, 65
1, 124991, Note_off_c, 0, 64, 61
1, 125034, Note_on_c, 0, 52, 82
1, 125039, Note_on_c, 0, 88, 93
1, 125097, Note_off_c, 0, 88, 65
1, 125104, Note_off_c, 0, 52, 57
1, 125109, Note_on_c, 0, 64, 94
1, 125114, Note_on_c, 0, 100, 95
1, 125116, Poly_aftertouch_c, 0, 54, 127
1, 125137, Note_on_c, 0, 97, 64
1, 125150, Poly_aftertouch_c, 0, 54, 0
1, 125156, Note_off_c, 0, 97, 65
1, 125161, Note_off_c, 0, 64, 62
1, 125173, Note_off_c, 0, 100, 64
1, 125202, Note_on_c, 0, 52, 85
1, 125211, Note_on_c, 0, 88, 81
1, 125257, Note_off_c, 0, 88, 64
1, 125264, Note_on_c, 0, 53, 5
1, 125269, Note_on_c, 0, 64, 80
1, 125286, Note_off_c, 0, 52, 59
1, 125312, Note_off_c, 0, 64, 63
1, 125322, Note_off_c, 0, 53, 52
1, 125334, Note_on_c, 0, 89, 76
1, 125353, Note_off_c, 0, 89, 65
1, 125378, Note_on_c, 0, 61, 105
1, 125385, Note_on_c, 0, 52, 80
1, 125393, Note_on_c, 0, 49, 81
1, 125398, Note_on_c, 0, 76, 85
1, 125420, Note_off_c, 0, 76, 68
1, 125456, Note_off_c, 0, 49, 64
1, 125460, Note_off_c, 0, 52, 56
1, 125473, Note_off_c, 0, 61, 51
1, 125506, Note_on_c, 0, 76, 86
1, 125580, Note_on_c, 0, 64, 89
1, 125616, Note_off_c, 0, 64, 62
1, 125627, Note_off_c, 0, 76, 0
1, 125635, Control_c, 0, 64, 83
1, 125637, Poly_aftertouch_c, 0, 56, 127
1, 125650, Control_c, 0, 64, 0
1, 125652, Poly_aftertouch_c, 0, 56, 0
1, 125660, Poly_aftertouch_c, 0, 76, 0
1, 125673, Note_on_c, 0, 62, 99
1, 125677, Note_on_c, 0, 53, 77
1, 125683, Note_on_c, 0, 50, 85
1, 125689, Note_on_c, 0, 77, 100
1, 125690, Note_on_c, 0, 65, 103
1, 125709, Control_c, 0, 64, 64
1, 125722, Note_off_c, 0, 50, 63
1, 125724, Note_off_c, 0, 77, 63
1, 125724, Control_c, 0, 64, 127
1, 125729, Note_off_c, 0, 65, 65
1, 125733, Note_off_c, 0, 53, 63
1, 125740, Note_off_c, 0, 62, 43
1, 125828, Note_on_c, 0, 65, 83
1, 125858, Note_off_c, 0, 65, 67
1, 125922, Note_on_c, 0, 65, 75
1, 125933, Note_on_c, 0, 64, 59
1, 125939, Note_off_c, 0, 65, 72
1, 125955, Note_off_c, 0, 64, 65
1, 126004, Note_on_c, 0, 65, 82
1, 126025, Note_off_c, 0, 65, 70
1, 126026, Note_on_c, 0, 64, 53
1, 126052, Note_off_c, 0, 64, 59
1, 126080, Note_on_c, 0, 65, 87
1, 126094, Note_on_c, 0, 64, 59
1, 126103, Note_off_c, 0, 65, 66
1, 126112, Note_off_c, 0, 64, 67
1, 126156, Note_on_c, 0, 65, 88
1, 126184, Control_c, 0, 64, 108
1, 126188, Note_off_c, 0, 65, 65
1, 126199, Control_c, 0, 64, 74
1, 126214, Control_c, 0, 64, 0
1, 126219, Note_on_c, 0, 59, 98
1, 126223, Note_on_c, 0, 47, 83
1, 126225, Note_on_c, 0, 53, 73
1, 126232, Note_on_c, 0, 65, 89
1, 126233, Note_on_c, 0, 77, 94
1, 126243, Control_c, 0, 64, 68
1, 126258, Control_c, 0, 64, 127
1, 126259, Poly_aftertouch_c, 0, 64, 0
1, 126262, Note_off_c, 0, 65, 63
1, 126265, Note_off_c, 0, 77, 65
1, 126328, Note_off_c, 0, 59, 58
1, 126330, Note_off_c, 0, 47, 63
1, 126352, Note_off_c, 0, 53, 64
1, 126354, Poly_aftertouch_c, 0, 76, 0
1, 126356, Note_on_c, 0, 65, 79
1, 126360, Note_on_c, 0, 64, 69
1, 126382, Note_off_c, 0, 65, 71
1, 126392, Note_off_c, 0, 64, 69
1, 126446, Note_on_c, 0, 65, 81
1, 126464, Note_off_c, 0, 65, 71
1, 126465, Note_on_c, 0, 64, 58
1, 126485, Note_off_c, 0, 64, 64
1, 126533, Note_on_c, 0, 65, 76
1, 126556, Note_off_c, 0, 65, 67
1, 126605, Note_on_c, 0, 65, 89
1, 126630, Note_on_c, 0, 64, 48
1, 126641, Note_off_c, 0, 65, 67
1, 126660, Note_off_c, 0, 64, 56
1, 126696, Note_on_c, 0, 77, 96
1, 126705, Note_on_c, 0, 65, 66
1, 126723, Note_off_c, 0, 65, 72
1, 126739, Note_off_c, 0, 77, 63
1, 126799, Control_c, 0, 64, 93
1, 126807, Note_on_c, 0, 56, 98
1, 126813, Note_on_c, 0, 65, 92
1, 126814, Control_c, 0, 64, 64
1, 126815, Note_on_c, 0, 44, 82
1, 126815, Note_on_c, 0, 77, 104
1, 126818, Note_on_c, 0, 52, 72
1, 126829, Control_c, 0, 64, 0
1, 126873, Control_c, 0, 64, 68
1, 126888, Control_c, 0, 64, 95
1, 126889, Note_off_c, 0, 77, 56
1, 126894, Note_off_c, 0, 65, 56
1, 126903, Control_c, 0, 64, 127
1, 126914, Note_off_c, 0, 44, 59
1, 126935, Note_off_c, 0, 52, 60
1, 126979, Note_off_c, 0, 56, 61
1, 126987, Note_on_c, 0, 64, 73
1, 127040, Note_off_c, 0, 64, 62
1, 127059, Poly_aftertouch_c, 0, 70, 127
1, 127087, Note_on_c, 0, 76, 71
1, 127098, Poly_aftertouch_c, 0, 70, 0
1, 127122, Note_off_c, 0, 76, 64
1, 127164, Note_on_c, 0, 52, 71
1, 127185, Note_on_c, 0, 76, 78
1, 127232, Note_off_c, 0, 52, 60
1, 127244, Note_off_c, 0, 76, 61
1, 127249, Note_on_c, 0, 64, 74
1, 127265, Note_on_c, 0, 88, 83
1, 127298, Note_off_c, 0, 64, 61
1, 127306, Note_off_c, 0, 88, 65
1, 127344, Note_on_c, 0, 52, 80
1, 127369, Note_on_c, 0, 86, 65
1, 127370, Note_on_c, 0, 88, 80
1, 127395, Note_off_c, 0, 86, 65
1, 127411, Note_off_c, 0, 52, 53
1, 127417, Note_on_c, 0, 64, 92
1, 127418, Note_off_c, 0, 88, 64
1, 127435, Note_on_c, 0, 100, 87
1, 127468, Note_on_c, 0, 98, 47
1, 127469, Note_off_c, 0, 64, 59
1, 127483, Note_off_c, 0, 100, 65
1, 127496, Note_off_c, 0, 98, 61
1, 127505, Note_on_c, 0, 52, 86
1, 127522, Note_on_c, 0, 88, 69
1, 127537, Note_on_c, 0, 86, 40
1, 127549, Note_off_c, 0, 88, 68
1, 127567, Note_off_c, 0, 86, 66
1, 127578, Note_on_c, 0, 64, 80
1, 127598, Note_off_c, 0, 52, 58
1, 127622, Note_on_c, 0, 88, 79
1, 127626, Note_off_c, 0, 64, 64
1, 127662, Note_off_c, 0, 88, 59
1, 127693, Note_on_c, 0, 76, 82
1, 127698, Note_on_c, 0, 61, 101
1, 127701, Note_on_c, 0, 52, 76
1, 127708, Note_on_c, 0, 49, 75
1, 127717, Note_off_c, 0, 76, 67
1, 127757, Note_off_c, 0, 49, 65
1, 127801, Note_off_c, 0, 52, 52
1, 127802, Note_on_c, 0, 76, 80
1, 127841, Note_off_c, 0, 61, 58
1, 127881, Note_on_c, 0, 64, 82
1, 127921, Note_off_c, 0, 64, 63
1, 127933, Note_off_c, 0, 76, 53
1, 127955, Control_c, 0, 64, 78
1, 127970, Control_c, 0, 64, 0
1, 128001, Note_on_c, 0, 62, 98
1, 128008, Note_on_c, 0, 53, 80
1, 128009, Note_on_c, 0, 50, 78
1, 128012, Note_on_c, 0, 65, 101
1, 128016, Note_on_c, 0, 77, 78
1, 128028, Note_on_c, 0, 76, 78
1, 128029, Control_c, 0, 64, 68
1, 128044, Control_c, 0, 64, 127
1, 128046, Note_off_c, 0, 76, 64
1, 128048, Note_off_c, 0, 65, 64
1, 128048, Note_off_c, 0, 77, 66
1, 128052, Note_off_c, 0, 50, 62
1, 128060, Note_off_c, 0, 62, 50
1, 128062, Note_off_c, 0, 53, 59
1, 128152, Note_on_c, 0, 65, 65
1, 128157, Note_on_c, 0, 64, 73
1, 128169, Note_off_c, 0, 65, 74
1, 128182, Note_off_c, 0, 64, 68
1, 128239, Note_on_c, 0, 65, 76
1, 128242, Note_on_c, 0, 64, 69
1, 128261, Note_off_c, 0, 65, 70
1, 128267, Note_off_c, 0, 64, 68
1, 128327, Note_on_c, 0, 65, 78
1, 128335, Note_on_c, 0, 64, 62
1, 128352, Note_off_c, 0, 65, 66
1, 128356, Note_off_c, 0, 64, 65
1, 128404, Note_on_c, 0, 65, 81
1, 128429, Note_off_c, 0, 65, 68
1, 128430, Note_on_c, 0, 64, 54
1, 128448, Note_off_c, 0, 64, 66
1, 128488, Note_on_c, 0, 65, 79
1, 128516, Note_on_c, 0, 64, 35
1, 128519, Note_off_c, 0, 65, 63
1, 128534, Control_c, 0, 64, 104
1, 128549, Control_c, 0, 64, 75
1, 128550, Note_off_c, 0, 64, 55
1, 128563, Control_c, 0, 64, 0
1, 128571, Note_on_c, 0, 59, 96
1, 128579, Note_on_c, 0, 47, 78
1, 128580, Note_on_c, 0, 77, 93
1, 128583, Note_on_c, 0, 53, 76
1, 128585, Note_on_c, 0, 65, 82
1, 128592, Note_on_c, 0, 48, 66
1, 128593, Control_c, 0, 64, 54
1, 128598, Note_on_c, 0, 67, 66
1, 128614, Note_off_c, 0, 65, 70
1, 128615, Note_off_c, 0, 59, 67
1, 128615, Control_c, 0, 64, 75
1, 128616, Note_off_c, 0, 47, 68
1, 128620, Note_off_c, 0, 53, 67
1, 128621, Note_off_c, 0, 48, 63
1, 128621, Note_off_c, 0, 77, 65
1, 128624, Note_off_c, 0, 67, 63
1, 128630, Control_c, 0, 64, 102
1, 128645, Control_c, 0, 64, 127
1, 128696, Note_on_c, 0, 65, 81
1, 128728, Note_off_c, 0, 65, 60
1, 128745, Note_on_c, 0, 64, 26
1, 128797, Note_off_c, 0, 64, 0
1, 128797, Note_on_c, 0, 64, 30
1, 128798, Note_on_c, 0, 65, 66
1, 128818, Note_off_c, 0, 65, 72
1, 128827, Note_off_c, 0, 64, 60
1, 128893, Note_on_c, 0, 65, 68
1, 128905, Note_on_c, 0, 64, 51
1, 128916, Note_off_c, 0, 65, 70
1, 128929, Note_off_c, 0, 64, 62
1, 128956, Note_on_c, 0, 65, 73
1, 128979, Note_off_c, 0, 65, 67
1, 129060, Note_on_c, 0, 77, 87
1, 129068, Note_on_c, 0, 65, 66
1, 129081, Note_off_c, 0, 65, 73
1, 129104, Control_c, 0, 64, 91
1, 129105, Note_off_c, 0, 77, 62
1, 129119, Control_c, 0, 64, 67
1, 129134, Control_c, 0, 64, 0
1, 129159, Note_on_c, 0, 56, 91
1, 129165, Note_on_c, 0, 44, 80
1, 129175, Note_on_c, 0, 64, 84
1, 129180, Note_on_c, 0, 52, 52
1, 129194, Control_c, 0, 64, 67
1, 129209, Control_c, 0, 64, 127
1, 129210, Note_off_c, 0, 52, 61
1, 129217, Note_on_c, 0, 70, 24
1, 129222, Note_off_c, 0, 44, 60
1, 129237, Note_off_c, 0, 56, 51
1, 129248, Note_off_c, 0, 64, 63
1, 129274, Note_off_c, 0, 70, 42
1, 129299, Note_on_c, 0, 76, 81
1, 129343, Note_off_c, 0, 76, 62
1, 129417, Note_on_c, 0, 76, 75
1, 129468, Note_off_c, 0, 76, 61
1, 129490, Note_on_c, 0, 64, 60
1, 129504, Note_on_c, 0, 88, 78
1, 129516, Note_off_c, 0, 64, 69
1, 129537, Note_off_c, 0, 88, 61
1, 129581, Note_on_c, 0, 64, 69
1, 129594, Note_on_c, 0, 88, 83
1, 129608, Note_off_c, 0, 64, 68
1, 129648, Note_off_c, 0, 88, 62
1, 129668, Note_on_c, 0, 64, 76
1, 129686, Note_on_c, 0, 100, 78
1, 129698, Note_off_c, 0, 64, 65
1, 129733, Note_off_c, 0, 100, 64
1, 129772, Note_on_c, 0, 88, 68
1, 129776, Note_on_c, 0, 64, 63
1, 129804, Note_off_c, 0, 64, 65
1, 129810, Note_off_c, 0, 88, 59
1, 129912, Note_on_c, 0, 88, 63
1, 129922, Note_on_c, 0, 64, 54
1, 129936, Note_off_c, 0, 88, 65
1, 129977, Note_off_c, 0, 64, 43
1, 130052, Poly_aftertouch_c, 0, 76, 127
1, 130085, Poly_aftertouch_c, 0, 76, 0
1, 130140, Note_on_c, 0, 71, 61
1, 130143, Control_c, 0, 64, 95
1, 130147, Note_on_c, 0, 76, 43
1, 130153, Note_on_c, 0, 56, 34
1, 130158, Control_c, 0, 64, 78
1, 130173, Control_c, 0, 64, 65
1, 130188, Control_c, 0, 64, 0
1, 130232, Control_c, 0, 64, 43
1, 130247, Control_c, 0, 64, 59
1, 130262, Control_c, 0, 64, 64
1, 130276, Control_c, 0, 64, 67
1, 130281, Note_off_c, 0, 76, 35
1, 130291, Control_c, 0, 64, 71
1, 130306, Control_c, 0, 64, 75
1, 130321, Control_c, 0, 64, 79
1, 130336, Control_c, 0, 64, 82
1, 130336, Note_on_c, 0, 64, 42
1, 130351, Control_c, 0, 64, 83
1, 130365, Control_c, 0, 64, 84
1, 130380, Control_c, 0, 64, 84
1, 130395, Control_c, 0, 64, 85
1, 130404, Note_off_c, 0, 64, 57
1, 130461, Note_off_c, 0, 56, 35
1, 130461, Note_off_c, 0, 71, 61
1, 130462, Note_on_c, 0, 76, 63
1, 130499, Control_c, 0, 64, 83
1, 130514, Control_c, 0, 64, 81
1, 130529, Control_c, 0, 64, 76
1, 130543, Control_c, 0, 64, 71
1, 130551, Note_on_c, 0, 57, 54
1, 130558, Control_c, 0, 64, 66
1, 130564, Note_on_c, 0, 72, 66
1, 130573, Control_c, 0, 64, 65
1, 130573, Control_c, 0, 67, 8
1, 130578, Note_on_c, 0, 64, 55
1, 130585, Note_off_c, 0, 76, 36
1, 130587, Control_c, 0, 64, 68
1, 130602, Control_c, 0, 64, 71
1, 130617, Control_c, 0, 64, 74
1, 130628, Note_off_c, 0, 64, 58
1, 130632, Control_c, 0, 64, 76
1, 130647, Control_c, 0, 64, 79
1, 130661, Control_c, 0, 64, 82
1, 130676, Control_c, 0, 64, 84
1, 130676, Control_c, 0, 67, 8
1, 130691, Control_c, 0, 64, 85
1, 130696, Note_on_c, 0, 76, 67
1, 130720, Note_off_c, 0, 72, 59
1, 130766, Control_c, 0, 67, 9
1, 130779, Note_off_c, 0, 76, 51
1, 130781, Note_on_c, 0, 64, 68
1, 130811, Control_c, 0, 64, 85
1, 130811, Control_c, 0, 67, 9
1, 130826, Control_c, 0, 64, 82
1, 130826, Control_c, 0, 67, 10
1, 130830, Note_off_c, 0, 64, 58
1, 130840, Control_c, 0, 64, 77
1, 130840, Control_c, 0, 67, 11
1, 130853, Note_off_c, 0, 57, 38
1, 130855, Control_c, 0, 64, 70
1, 130855, Control_c, 0, 67, 12
1, 130867, Note_on_c, 0, 71, 75
1, 130875, Note_on_c, 0, 56, 66
1, 130878, Control_c, 0, 64, 64
1, 130878, Control_c, 0, 67, 13
1, 130887, Note_on_c, 0, 76, 70
1, 130892, Control_c, 0, 64, 63
1, 130892, Control_c, 0, 67, 13
1, 130907, Control_c, 0, 64, 66
1, 130922, Control_c, 0, 64, 68
1, 130922, Control_c, 0, 67, 14
1, 130937, Control_c, 0, 64, 71
1, 130937, Control_c, 0, 67, 14
1, 130952, Control_c, 0, 64, 73
1, 130952, Control_c, 0, 67, 15
1, 130966, Control_c, 0, 64, 75
1, 130966, Control_c, 0, 67, 15
1, 130977, Note_off_c, 0, 76, 53
1, 130981, Control_c, 0, 64, 79
1, 130983, Note_on_c, 0, 64, 65
1, 130996, Control_c, 0, 64, 81
1, 130996, Control_c, 0, 67, 16
1, 131011, Control_c, 0, 67, 16
1, 131025, Control_c, 0, 67, 17
1, 131040, Control_c, 0, 67, 19
1, 131041, Note_off_c, 0, 64, 56
1, 131051, Note_off_c, 0, 71, 59
1, 131054, Control_c, 0, 67, 20
1, 131069, Control_c, 0, 67, 24
1, 131084, Note_on_c, 0, 76, 76
1, 131084, Control_c, 0, 67, 26
1, 131099, Control_c, 0, 64, 79
1, 131099, Control_c, 0, 67, 29
1, 131114, Control_c, 0, 64, 76
1, 131114, Control_c, 0, 67, 32
1, 131129, Control_c, 0, 64, 71
1, 131129, Control_c, 0, 67, 34
1, 131143, Control_c, 0, 64, 65
1, 131143, Control_c, 0, 67, 36
1, 131158, Control_c, 0, 64, 58
1, 131158, Control_c, 0, 67, 38
1, 131164, Note_on_c, 0, 72, 74
1, 131169, Note_off_c, 0, 76, 50
1, 131170, Note_on_c, 0, 57, 57
1, 131173, Note_on_c, 0, 64, 64
1, 131173, Note_off_c, 0, 56, 59
1, 131173, Control_c, 0, 64, 49
1, 131173, Control_c, 0, 67, 39
1, 131188, Control_c, 0, 64, 59
1, 131188, Control_c, 0, 67, 40
1, 131203, Control_c, 0, 64, 65
1, 131203, Control_c, 0, 67, 41
1, 131217, Control_c, 0, 64, 68
1, 131217, Control_c, 0, 67, 41
1, 131232, Control_c, 0, 64, 71
1, 131232, Control_c, 0, 67, 42
1, 131233, Note_off_c, 0, 64, 59
1, 131247, Control_c, 0, 64, 74
1, 131247, Control_c, 0, 67, 43
1, 131262, Control_c, 0, 64, 77
1, 131262, Control_c, 0, 67, 44
1, 131277, Control_c, 0, 64, 80
1, 131277, Control_c, 0, 67, 45
1, 131289, Note_on_c, 0, 76, 66
1, 131291, Control_c, 0, 64, 81
1, 131291, Control_c, 0, 67, 45
1, 131306, Control_c, 0, 67, 46
1, 131321, Control_c, 0, 67, 46
1, 131328, Note_off_c, 0, 72, 61
1, 131336, Control_c, 0, 67, 47
1, 131351, Control_c, 0, 67, 48
1, 131359, Note_on_c, 0, 64, 61
1, 131359, Note_off_c, 0, 76, 58
1, 131365, Control_c, 0, 67, 50
1, 131380, Control_c, 0, 64, 80
1, 131380, Control_c, 0, 67, 51
1, 131395, Control_c, 0, 64, 79
1, 131395, Control_c, 0, 67, 53
1, 131409, Control_c, 0, 64, 76
1, 131409, Control_c, 0, 67, 54
1, 131418, Note_off_c, 0, 64, 51
1, 131422, Note_off_c, 0, 57, 52
1, 131424, Control_c, 0, 64, 71
1, 131424, Control_c, 0, 67, 55
1, 131439, Control_c, 0, 64, 64
1, 131439, Control_c, 0, 67, 56
1, 131454, Control_c, 0, 64, 57
1, 131454, Control_c, 0, 67, 57
1, 131457, Note_on_c, 0, 73, 69
1, 131459, Note_on_c, 0, 58, 56
1, 131467, Note_on_c, 0, 76, 68
1, 131469, Control_c, 0, 64, 54
1, 131469, Control_c, 0, 67, 57
1, 131483, Control_c, 0, 64, 60
1, 131483, Control_c, 0, 67, 58
1, 131498, Control_c, 0, 64, 64
1, 131498, Control_c, 0, 67, 59
1, 131513, Control_c, 0, 64, 67
1, 131513, Control_c, 0, 67, 59
1, 131529, Control_c, 0, 64, 70
1, 131529, Control_c, 0, 67, 60
1, 131540, Note_off_c, 0, 76, 44
1, 131544, Control_c, 0, 64, 74
1, 131550, Note_on_c, 0, 64, 58
1, 131559, Control_c, 0, 64, 78
1, 131559, Control_c, 0, 67, 60
1, 131574, Control_c, 0, 64, 79
1, 131588, Control_c, 0, 64, 80
1, 131588, Control_c, 0, 67, 61
1, 131624, Note_off_c, 0, 64, 59
1, 131626, Control_c, 0, 67, 61
1, 131632, Note_off_c, 0, 73, 55
1, 131640, Control_c, 0, 67, 62
1, 131655, Control_c, 0, 64, 79
1, 131655, Control_c, 0, 67, 65
1, 131670, Control_c, 0, 67, 66
1, 131671, Note_on_c, 0, 76, 63
1, 131685, Control_c, 0, 67, 68
1, 131700, Control_c, 0, 64, 80
1, 131700, Control_c, 0, 67, 68
1, 131714, Control_c, 0, 67, 69
1, 131729, Control_c, 0, 67, 70
1, 131744, Control_c, 0, 64, 76
1, 131744, Control_c, 0, 67, 70
1, 131759, Control_c, 0, 64, 70
1, 131759, Control_c, 0, 67, 71
1, 131760, Note_off_c, 0, 58, 43
1, 131761, Note_on_c, 0, 74, 65
1, 131767, Note_on_c, 0, 64, 50
1, 131769, Note_on_c, 0, 59, 49
1, 131774, Control_c, 0, 64, 51
1, 131774, Control_c, 0, 67, 72
1, 131778, Note_off_c, 0, 76, 52
1, 131788, Control_c, 0, 64, 0
1, 131803, Control_c, 0, 67, 72
1, 131856, Note_off_c, 0, 64, 58
1, 131862, Control_c, 0, 64, 54
1, 131877, Control_c, 0, 64, 69
1, 131892, Control_c, 0, 64, 79
1, 131900, Note_on_c, 0, 76, 60
1, 131907, Control_c, 0, 64, 92
1, 131907, Control_c, 0, 67, 72
1, 131922, Control_c, 0, 64, 104
1, 131936, Control_c, 0, 64, 104
1, 131966, Control_c, 0, 67, 71
1, 131981, Note_off_c, 0, 76, 54
1, 131981, Control_c, 0, 67, 71
1, 131987, Note_on_c, 0, 64, 45
1, 132011, Control_c, 0, 67, 70
1, 132041, Note_off_c, 0, 64, 43
1, 132096, Note_on_c, 0, 76, 57
1, 132097, Note_off_c, 0, 74, 44
1, 132114, Control_c, 0, 64, 104
1, 132143, Note_off_c, 0, 76, 45
1, 132144, Control_c, 0, 64, 103
1, 132167, Note_on_c, 0, 64, 51
1, 132173, Control_c, 0, 64, 103
1, 132203, Control_c, 0, 64, 102
1, 132210, Note_off_c, 0, 64, 50
1, 132247, Control_c, 0, 64, 101
1, 132258, Note_on_c, 0, 76, 57
1, 132262, Control_c, 0, 64, 101
1, 132265, Note_off_c, 0, 59, 52
1, 132277, Control_c, 0, 64, 100
1, 132292, Control_c, 0, 64, 100
1, 132306, Control_c, 0, 64, 99
1, 132321, Control_c, 0, 64, 96
1, 132337, Control_c, 0, 64, 90
1, 132346, Note_on_c, 0, 64, 49
1, 132360, Control_c, 0, 64, 83
1, 132372, Note_on_c, 0, 60, 47
1, 132375, Control_c, 0, 64, 74
1, 132383, Note_off_c, 0, 64, 54
1, 132387, Note_on_c, 0, 75, 58
1, 132390, Control_c, 0, 64, 65
1, 132401, Note_off_c, 0, 76, 39
1, 132404, Control_c, 0, 64, 48
1, 132419, Control_c, 0, 64, 42
1, 132434, Control_c, 0, 64, 59
1, 132449, Control_c, 0, 64, 65
1, 132463, Control_c, 0, 64, 70
1, 132478, Control_c, 0, 64, 74
1, 132493, Control_c, 0, 64, 79
1, 132508, Control_c, 0, 64, 83
1, 132514, Note_off_c, 0, 75, 47
1, 132523, Control_c, 0, 64, 84
1, 132524, Note_on_c, 0, 64, 52
1, 132537, Control_c, 0, 64, 85
1, 132553, Control_c, 0, 64, 86
1, 132568, Note_off_c, 0, 64, 45
1, 132568, Control_c, 0, 64, 87
1, 132631, Note_on_c, 0, 76, 55
1, 132657, Control_c, 0, 64, 88
1, 132657, Control_c, 0, 67, 71
1, 132676, Note_off_c, 0, 76, 56
1, 132701, Control_c, 0, 67, 72
1, 132713, Note_on_c, 0, 64, 51
1, 132738, Note_off_c, 0, 60, 38
1, 132754, Note_off_c, 0, 64, 51
1, 132760, Control_c, 0, 67, 72
1, 132789, Control_c, 0, 67, 73
1, 132804, Control_c, 0, 67, 73
1, 132806, Note_on_c, 0, 76, 55
1, 132837, Note_off_c, 0, 76, 49
1, 132870, Note_on_c, 0, 64, 50
1, 132878, Control_c, 0, 67, 74
1, 132893, Control_c, 0, 67, 74
1, 132902, Note_on_c, 0, 60, 40
1, 132908, Control_c, 0, 67, 76
1, 132914, Note_off_c, 0, 64, 45
1, 132923, Control_c, 0, 67, 78
1, 132938, Control_c, 0, 67, 80
1, 132953, Control_c, 0, 67, 84
1, 132968, Control_c, 0, 67, 88
1, 132979, Note_on_c, 0, 75, 46
1, 132982, Control_c, 0, 67, 93
1, 132997, Control_c, 0, 67, 96
1, 133012, Control_c, 0, 67, 97
1, 133042, Control_c, 0, 64, 86
1, 133042, Control_c, 0, 67, 98
1, 133056, Control_c, 0, 64, 82
1, 133071, Control_c, 0, 64, 73
1, 133071, Control_c, 0, 67, 98
1, 133081, Note_off_c, 0, 60, 41
1, 133086, Control_c, 0, 64, 63
1, 133101, Control_c, 0, 64, 0
1, 133117, Note_on_c, 0, 61, 45
1, 133127, Note_off_c, 0, 75, 59
1, 133161, Note_on_c, 0, 76, 44
1, 133198, Control_c, 0, 64, 65
1, 133212, Control_c, 0, 64, 74
1, 133227, Note_off_c, 0, 76, 52
1, 133227, Control_c, 0, 64, 85
1, 133242, Control_c, 0, 64, 94
1, 133257, Control_c, 0, 64, 95
1, 133287, Control_c, 0, 67, 98
1, 133300, Note_on_c, 0, 64, 32
1, 133302, Control_c, 0, 67, 97
1, 133338, Note_off_c, 0, 64, 50
1, 133346, Control_c, 0, 64, 95
1, 133346, Control_c, 0, 67, 97
1, 133361, Control_c, 0, 67, 96
1, 133376, Control_c, 0, 67, 96
1, 133382, Note_on_c, 0, 76, 43
1, 133384, Note_off_c, 0, 61, 0
1, 133384, Note_on_c, 0, 61, 23
1, 133387, Note_on_c, 0, 64, 42
1, 133391, Control_c, 0, 67, 95
1, 133405, Control_c, 0, 67, 94
1, 133416, Note_off_c, 0, 64, 55
1, 133420, Note_off_c, 0, 76, 62
1, 133420, Control_c, 0, 67, 93
1, 133435, Control_c, 0, 67, 92
1, 133450, Control_c, 0, 67, 91
1, 133465, Control_c, 0, 67, 90
1, 133479, Control_c, 0, 67, 89
1, 133494, Control_c, 0, 67, 87
1, 133509, Control_c, 0, 67, 86
1, 133524, Control_c, 0, 67, 85
1, 133539, Control_c, 0, 67, 85
1, 133551, Poly_aftertouch_c, 0, 76, 127
1, 133553, Poly_aftertouch_c, 0, 64, 127
1, 133554, Control_c, 0, 67, 83
1, 133568, Control_c, 0, 67, 78
1, 133571, Note_on_c, 0, 64, 11
1, 133579, Note_on_c, 0, 76, 3
1, 133583, Control_c, 0, 67, 71
1, 133598, Control_c, 0, 67, 61
1, 133612, Note_off_c, 0, 64, 45
1, 133612, Note_off_c, 0, 76, 58
1, 133612, Control_c, 0, 67, 52
1, 133627, Control_c, 0, 67, 44
1, 133642, Control_c, 0, 67, 37
1, 133657, Control_c, 0, 67, 29
1, 133664, Note_on_c, 0, 64, 58
1, 133668, Note_on_c, 0, 76, 58
1, 133672, Control_c, 0, 64, 95
1, 133672, Control_c, 0, 67, 23
1, 133686, Note_off_c, 0, 64, 60
1, 133686, Control_c, 0, 64, 93
1, 133686, Control_c, 0, 67, 16
1, 133701, Control_c, 0, 64, 90
1, 133701, Control_c, 0, 67, 10
1, 133702, Note_off_c, 0, 76, 62
1, 133716, Control_c, 0, 64, 87
1, 133716, Control_c, 0, 67, 0
1, 133731, Control_c, 0, 64, 86
1, 133746, Control_c, 0, 64, 86
1, 133761, Control_c, 0, 64, 87
1, 133764, Note_on_c, 0, 64, 66
1, 133773, Note_on_c, 0, 76, 54
1, 133776, Control_c, 0, 64, 89
1, 133788, Note_off_c, 0, 64, 56
1, 133791, Control_c, 0, 64, 91
1, 133801, Note_off_c, 0, 76, 59
1, 133805, Control_c, 0, 64, 93
1, 133820, Control_c, 0, 64, 95
1, 133835, Control_c, 0, 64, 96
1, 133850, Control_c, 0, 64, 97
1, 133870, Note_on_c, 0, 76, 63
1, 133872, Control_c, 0, 64, 99
1, 133877, Note_on_c, 0, 64, 55
1, 133886, Control_c, 0, 64, 101
1, 133900, Note_off_c, 0, 76, 63
1, 133901, Note_off_c, 0, 64, 61
1, 133901, Control_c, 0, 64, 103
1, 133916, Control_c, 0, 64, 107
1, 133931, Control_c, 0, 64, 115
1, 133947, Control_c, 0, 64, 127
1, 133971, Note_on_c, 0, 76, 66
1, 133982, Note_on_c, 0, 64, 41
1, 133999, Note_off_c, 0, 76, 64
1, 134014, Note_off_c, 0, 64, 55
1, 134062, Note_on_c, 0, 64, 54
1, 134062, Note_on_c, 0, 76, 70
1, 134084, Note_off_c, 0, 64, 63
1, 134092, Note_off_c, 0, 76, 63
1, 134147, Note_on_c, 0, 64, 71
1, 134164, Note_on_c, 0, 76, 61
1, 134169, Note_off_c, 0, 64, 64
1, 134183, Note_off_c, 0, 76, 65
1, 134241, Note_on_c, 0, 64, 66
1, 134250, Note_on_c, 0, 76, 67
1, 134262, Note_off_c, 0, 64, 65
1, 134278, Note_off_c, 0, 76, 64
1, 134302, Control_c, 0, 64, 114
1, 134317, Control_c, 0, 64, 114
1, 134332, Control_c, 0, 64, 114
1, 134333, Note_on_c, 0, 64, 66
1, 134347, Control_c, 0, 64, 118
1, 134354, Note_on_c, 0, 76, 61
1, 134359, Note_off_c, 0, 64, 69
1, 134362, Control_c, 0, 64, 124
1, 134377, Note_off_c, 0, 76, 59
1, 134377, Control_c, 0, 64, 127
1, 134440, Note_on_c, 0, 64, 58
1, 134449, Note_on_c, 0, 76, 48
1, 134460, Note_off_c, 0, 64, 65
1, 134470, Note_off_c, 0, 76, 61
1, 134530, Note_on_c, 0, 64, 61
1, 134539, Control_c, 0, 64, 116
1, 134546, Note_off_c, 0, 61, 40
1, 134548, Note_on_c, 0, 76, 55
1, 134554, Note_off_c, 0, 64, 60
1, 134554, Control_c, 0, 64, 107
1, 134569, Note_off_c, 0, 76, 61
1, 134569, Control_c, 0, 64, 96
1, 134583, Control_c, 0, 64, 87
1, 134598, Control_c, 0, 64, 85
1, 134611, Note_on_c, 0, 54, 59
1, 134622, Note_on_c, 0, 69, 35
1, 134630, Note_on_c, 0, 75, 72
1, 134635, Control_c, 0, 64, 88
1, 134643, Note_on_c, 0, 66, 63
1, 134650, Control_c, 0, 64, 92
1, 134664, Note_off_c, 0, 66, 64
1, 134665, Note_off_c, 0, 75, 57
1, 134665, Control_c, 0, 64, 98
1, 134671, Note_off_c, 0, 69, 59
1, 134680, Control_c, 0, 64, 103
1, 134695, Control_c, 0, 64, 104
1, 134722, Note_on_c, 0, 69, 48
1, 134738, Note_on_c, 0, 66, 49
1, 134741, Note_on_c, 0, 75, 68
1, 134762, Note_off_c, 0, 66, 58
1, 134765, Note_off_c, 0, 69, 63
1, 134769, Note_off_c, 0, 75, 60
1, 134799, Control_c, 0, 64, 103
1, 134813, Control_c, 0, 64, 98
1, 134823, Note_on_c, 0, 75, 59
1, 134825, Note_on_c, 0, 66, 72
1, 134828, Control_c, 0, 64, 90
1, 134843, Control_c, 0, 64, 82
1, 134854, Note_off_c, 0, 66, 65
1, 134858, Control_c, 0, 64, 74
1, 134860, Note_off_c, 0, 75, 61
1, 134869, Note_off_c, 0, 54, 53
1, 134873, Control_c, 0, 64, 72
1, 134888, Control_c, 0, 64, 76
1, 134902, Control_c, 0, 64, 84
1, 134917, Control_c, 0, 64, 93
1, 134919, Note_on_c, 0, 56, 74
1, 134929, Note_on_c, 0, 73, 74
1, 134929, Note_on_c, 0, 64, 62
1, 134932, Note_on_c, 0, 68, 60
1, 134932, Control_c, 0, 64, 102
1, 134947, Control_c, 0, 64, 110
1, 134947, Note_off_c, 0, 64, 65
1, 134953, Note_off_c, 0, 73, 67
1, 134960, Note_off_c, 0, 68, 64
1, 134962, Control_c, 0, 64, 112
1, 134964, Note_off_c, 0, 56, 56
1, 135016, Note_on_c, 0, 64, 65
1, 135027, Note_on_c, 0, 73, 73
1, 135033, Note_on_c, 0, 68, 59
1, 135040, Note_off_c, 0, 64, 65
1, 135051, Note_off_c, 0, 68, 65
1, 135054, Note_off_c, 0, 73, 66
1, 135080, Control_c, 0, 64, 112
1, 135115, Note_on_c, 0, 73, 74
1, 135118, Note_on_c, 0, 68, 69
1, 135123, Note_on_c, 0, 64, 55
1, 135140, Note_off_c, 0, 64, 66
1, 135142, Note_off_c, 0, 68, 64
1, 135160, Note_off_c, 0, 73, 53
1, 135162, Note_on_c, 0, 56, 63
1, 135162, Note_on_c, 0, 44, 69
1, 135180, Note_off_c, 0, 56, 66
1, 135193, Note_off_c, 0, 44, 64
1, 135225, Note_on_c, 0, 72, 74
1, 135234, Note_on_c, 0, 68, 64
1, 135236, Note_on_c, 0, 63, 62
1, 135257, Note_off_c, 0, 63, 64
1, 135259, Note_off_c, 0, 68, 66
1, 135266, Note_off_c, 0, 72, 57
1, 135326, Note_on_c, 0, 72, 65
1, 135327, Note_on_c, 0, 37, 60
1, 135330, Note_on_c, 0, 63, 58
1, 135347, Note_on_c, 0, 68, 48
1, 135369, Note_off_c, 0, 63, 55
1, 135371, Note_off_c, 0, 72, 61
1, 135381, Note_off_c, 0, 68, 55
1, 135440, Note_on_c, 0, 72, 64
1, 135444, Note_on_c, 0, 49, 65
1, 135449, Note_on_c, 0, 63, 56
1, 135457, Note_off_c, 0, 37, 62
1, 135460, Note_on_c, 0, 68, 47
1, 135481, Note_off_c, 0, 63, 63
1, 135482, Note_off_c, 0, 49, 66
1, 135487, Control_c, 0, 64, 111
1, 135499, Note_off_c, 0, 68, 53
1, 135500, Note_off_c, 0, 72, 61
1, 135562, Control_c, 0, 64, 111
1, 135606, Control_c, 0, 64, 110
1, 135635, Note_on_c, 0, 61, 85
1, 135636, Control_c, 0, 64, 109
1, 135641, Note_on_c, 0, 49, 76
1, 135651, Control_c, 0, 64, 108
1, 135666, Control_c, 0, 64, 103
1, 135680, Control_c, 0, 64, 89
1, 135695, Control_c, 0, 64, 70
1, 135710, Control_c, 0, 64, 0
1, 135785, Control_c, 0, 64, 64
1, 135800, Control_c, 0, 64, 80
1, 135814, Control_c, 0, 64, 111
1, 135829, Control_c, 0, 64, 127
1, 135860, Note_on_c, 0, 73, 66
1, 135890, Note_off_c, 0, 61, 61
1, 135898, Note_off_c, 0, 73, 60
1, 135991, Note_on_c, 0, 73, 50
1, 135997, Note_on_c, 0, 61, 35
1, 136012, Note_off_c, 0, 73, 60
1, 136028, Note_off_c, 0, 61, 54
1, 136072, Note_on_c, 0, 61, 51
1, 136076, Note_on_c, 0, 73, 62
1, 136104, Note_off_c, 0, 73, 64
1, 136112, Note_off_c, 0, 61, 53
1, 136135, Note_off_c, 0, 49, 55
1, 136171, Note_on_c, 0, 61, 61
1, 136174, Note_on_c, 0, 73, 66
1, 136196, Note_off_c, 0, 61, 60
1, 136196, Note_off_c, 0, 73, 64
1, 136268, Note_on_c, 0, 73, 66
1, 136280, Note_on_c, 0, 61, 40
1, 136286, Note_off_c, 0, 73, 66
1, 136300, Note_off_c, 0, 61, 62
1, 136353, Note_on_c, 0, 73, 71
1, 136366, Note_on_c, 0, 61, 49
1, 136380, Note_off_c, 0, 73, 66
1, 136402, Note_off_c, 0, 61, 52
1, 136444, Note_on_c, 0, 61, 57
1, 136447, Note_on_c, 0, 73, 74
1, 136472, Note_off_c, 0, 61, 60
1, 136477, Note_off_c, 0, 73, 63
1, 136540, Note_on_c, 0, 61, 63
1, 136545, Note_on_c, 0, 73, 69
1, 136569, Note_off_c, 0, 61, 63
1, 136571, Note_off_c, 0, 73, 64
1, 136633, Note_on_c, 0, 56, 93
1, 136640, Note_on_c, 0, 61, 68
1, 136642, Note_on_c, 0, 44, 77
1, 136659, Note_on_c, 0, 73, 59
1, 136672, Note_off_c, 0, 61, 58
1, 136686, Note_off_c, 0, 73, 65
1, 136752, Note_on_c, 0, 73, 71
1, 136757, Note_on_c, 0, 61, 51
1, 136775, Note_off_c, 0, 61, 63
1, 136822, Note_off_c, 0, 73, 0
1, 136837, Note_on_c, 0, 73, 59
1, 136838, Note_on_c, 0, 61, 75
1, 136878, Note_off_c, 0, 56, 63
1, 136880, Note_off_c, 0, 44, 63
1, 136887, Note_off_c, 0, 61, 60
1, 136907, Note_off_c, 0, 73, 60
1, 136951, Note_on_c, 0, 57, 99
1, 136959, Note_on_c, 0, 73, 63
1, 136961, Note_on_c, 0, 45, 80
1, 136962, Note_on_c, 0, 61, 72
1, 136970, Control_c, 0, 64, 83
1, 136985, Control_c, 0, 64, 52
1, 137000, Control_c, 0, 64, 0
1, 137003, Note_off_c, 0, 61, 61
1, 137021, Note_off_c, 0, 73, 60
1, 137029, Control_c, 0, 64, 63
1, 137043, Control_c, 0, 64, 73
1, 137058, Control_c, 0, 64, 95
1, 137073, Control_c, 0, 64, 127
1, 137074, Note_on_c, 0, 73, 56
1, 137079, Note_on_c, 0, 61, 65
1, 137111, Note_off_c, 0, 61, 62
1, 137126, Note_off_c, 0, 73, 53
1, 137174, Note_on_c, 0, 73, 59
1, 137180, Note_on_c, 0, 61, 80
1, 137203, Note_off_c, 0, 61, 67
1, 137219, Note_off_c, 0, 73, 60
1, 137275, Note_on_c, 0, 61, 80
1, 137285, Note_on_c, 0, 73, 63
1, 137297, Note_off_c, 0, 61, 65
1, 137312, Note_off_c, 0, 73, 66
1, 137382, Note_on_c, 0, 61, 69
1, 137389, Note_on_c, 0, 73, 65
1, 137398, Note_off_c, 0, 61, 68
1, 137418, Note_off_c, 0, 73, 64
1, 137463, Note_on_c, 0, 61, 75
1, 137478, Note_on_c, 0, 73, 79
1, 137498, Note_off_c, 0, 61, 63
1, 137502, Note_off_c, 0, 73, 65
1, 137567, Note_on_c, 0, 61, 89
1, 137586, Note_off_c, 0, 61, 70
1, 137588, Note_on_c, 0, 73, 67
1, 137622, Note_off_c, 0, 73, 66
1, 137628, Note_off_c, 0, 57, 57
1, 137634, Note_off_c, 0, 45, 50
1, 137658, Note_on_c, 0, 61, 92
1, 137670, Note_on_c, 0, 73, 79
1, 137696, Note_off_c, 0, 61, 62
1, 137704, Note_off_c, 0, 73, 57
1, 137758, Note_on_c, 0, 61, 83
1, 137770, Note_on_c, 0, 73, 72
1, 137784, Note_off_c, 0, 61, 59
1, 137793, Note_off_c, 0, 73, 68
1, 137832, Note_on_c, 0, 57, 95
1, 137839, Note_on_c, 0, 45, 83
1, 137852, Note_on_c, 0, 61, 88
1, 137856, Note_off_c, 0, 57, 65
1, 137859, Note_on_c, 0, 73, 83
1, 137876, Note_off_c, 0, 45, 66
1, 137878, Note_off_c, 0, 61, 57
1, 137914, Note_off_c, 0, 73, 55
1, 137948, Note_on_c, 0, 61, 76
1, 137949, Note_on_c, 0, 73, 54
1, 137968, Note_off_c, 0, 61, 69
1, 138000, Note_off_c, 0, 73, 56
1, 138034, Note_on_c, 0, 73, 67
1, 138035, Note_on_c, 0, 61, 86
1, 138041, Note_on_c, 0, 45, 97
1, 138042, Note_on_c, 0, 33, 69
1, 138074, Note_off_c, 0, 33, 58
1, 138074, Note_off_c, 0, 45, 69
1, 138089, Note_off_c, 0, 61, 63
1, 138113, Note_off_c, 0, 73, 57
1, 138149, Control_c, 0, 64, 73
1, 138164, Control_c, 0, 64, 0
1, 138175, Note_on_c, 0, 57, 100
1, 138180, Note_on_c, 0, 45, 89
1, 138187, Note_on_c, 0, 64, 95
1, 138192, Note_on_c, 0, 69, 77
1, 138194, Note_on_c, 0, 67, 75
1, 138195, Note_on_c, 0, 73, 92
1, 138206, Note_off_c, 0, 45, 67
1, 138213, Note_off_c, 0, 57, 67
1, 138223, Control_c, 0, 64, 81
1, 138237, Note_off_c, 0, 64, 65
1, 138238, Control_c, 0, 64, 127
1, 138258, Note_off_c, 0, 73, 62
1, 138264, Note_off_c, 0, 67, 47
1, 138268, Note_off_c, 0, 69, 53
1, 138292, Poly_aftertouch_c, 0, 49, 0
1, 138323, Note_on_c, 0, 69, 39
1, 138329, Note_on_c, 0, 67, 45
1, 138331, Note_on_c, 0, 64, 74
1, 138332, Note_on_c, 0, 73, 69
1, 138357, Note_off_c, 0, 64, 73
1, 138369, Note_off_c, 0, 69, 57
1, 138378, Note_off_c, 0, 67, 61
1, 138385, Note_off_c, 0, 73, 53
1, 138434, Note_on_c, 0, 64, 69
1, 138441, Note_on_c, 0, 73, 49
1, 138447, Note_on_c, 0, 69, 46
1, 138450, Note_on_c, 0, 67, 45
1, 138457, Note_off_c, 0, 64, 71
1, 138468, Note_off_c, 0, 73, 59
1, 138468, Note_off_c, 0, 69, 58
1, 138477, Note_off_c, 0, 67, 58
1, 138509, Note_on_c, 0, 64, 81
1, 138517, Note_on_c, 0, 73, 72
1, 138527, Note_on_c, 0, 67, 48
1, 138533, Note_on_c, 0, 69, 68
1, 138539, Note_off_c, 0, 64, 63
1, 138546, Note_off_c, 0, 73, 61
1, 138557, Note_off_c, 0, 69, 65
1, 138558, Note_off_c, 0, 67, 64
1, 138611, Note_on_c, 0, 64, 77
1, 138620, Note_on_c, 0, 69, 68
1, 138622, Note_on_c, 0, 73, 72
1, 138637, Note_off_c, 0, 64, 65
1, 138642, Note_off_c, 0, 69, 65
1, 138646, Note_on_c, 0, 67, 41
1, 138647, Note_off_c, 0, 73, 65
1, 138670, Note_off_c, 0, 67, 57
1, 138703, Note_on_c, 0, 64, 66
1, 138714, Note_on_c, 0, 69, 54
1, 138723, Note_on_c, 0, 73, 50
1, 138726, Note_on_c, 0, 67, 45
1, 138730, Note_off_c, 0, 64, 68
1, 138747, Note_off_c, 0, 69, 64
1, 138751, Note_off_c, 0, 73, 56
1, 138754, Note_off_c, 0, 67, 62
1, 138779, Note_on_c, 0, 57, 100
1, 138784, Note_on_c, 0, 45, 91
1, 138785, Note_on_c, 0, 64, 94
1, 138795, Note_on_c, 0, 73, 86
1, 138799, Note_on_c, 0, 69, 75
1, 138806, Note_on_c, 0, 67, 68
1, 138813, Note_off_c, 0, 45, 69
1, 138814, Note_off_c, 0, 57, 68
1, 138831, Note_off_c, 0, 64, 66
1, 138839, Note_off_c, 0, 67, 57
1, 138846, Note_off_c, 0, 69, 57
1, 138853, Note_off_c, 0, 73, 61
1, 138911, Note_on_c, 0, 73, 69
1, 138913, Note_on_c, 0, 64, 71
1, 138915, Note_on_c, 0, 69, 54
1, 138933, Note_off_c, 0, 64, 70
1, 138938, Note_off_c, 0, 69, 66
1, 138951, Note_on_c, 0, 67, 21
1, 138981, Note_off_c, 0, 73, 0
1, 138998, Note_off_c, 0, 67, 0
1, 138998, Note_on_c, 0, 67, 23
1, 139001, Note_on_c, 0, 64, 68
1, 139004, Note_on_c, 0, 73, 36
1, 139019, Note_on_c, 0, 69, 63
1, 139022, Note_off_c, 0, 64, 71
1, 139031, Note_off_c, 0, 73, 56
1, 139046, Note_off_c, 0, 69, 65
1, 139048, Note_off_c, 0, 67, 62
1, 139092, Note_on_c, 0, 64, 86
1, 139100, Note_on_c, 0, 73, 88
1, 139120, Note_on_c, 0, 69, 69
1, 139132, Note_off_c, 0, 64, 61
1, 139132, Note_on_c, 0, 67, 39
1, 139143, Note_off_c, 0, 69, 68
1, 139144, Note_on_c, 0, 57, 93
1, 139150, Note_on_c, 0, 45, 81
1, 139154, Note_off_c, 0, 73, 60
1, 139162, Note_off_c, 0, 67, 55
1, 139163, Note_off_c, 0, 57, 69
1, 139172, Note_off_c, 0, 45, 71
1, 139207, Note_on_c, 0, 64, 76
1, 139217, Note_on_c, 0, 73, 63
1, 139222, Note_on_c, 0, 69, 65
1, 139234, Note_off_c, 0, 64, 66
1, 139240, Note_off_c, 0, 69, 71
1, 139241, Note_on_c, 0, 67, 39
1, 139246, Note_off_c, 0, 73, 61
1, 139269, Note_off_c, 0, 67, 55
1, 139294, Note_on_c, 0, 64, 84
1, 139299, Note_on_c, 0, 73, 70
1, 139307, Note_on_c, 0, 50, 95
1, 139316, Note_on_c, 0, 69, 64
1, 139320, Note_on_c, 0, 38, 74
1, 139333, Note_off_c, 0, 50, 69
1, 139344, Note_off_c, 0, 64, 62
1, 139348, Note_off_c, 0, 38, 56
1, 139349, Note_off_c, 0, 73, 57
1, 139365, Control_c, 0, 64, 113
1, 139371, Note_off_c, 0, 69, 60
1, 139380, Control_c, 0, 64, 77
1, 139395, Control_c, 0, 64, 0
1, 139448, Note_on_c, 0, 69, 80
1, 139448, Note_on_c, 0, 74, 91
1, 139448, Note_on_c, 0, 65, 90
1, 139449, Note_on_c, 0, 62, 99
1, 139454, Note_on_c, 0, 50, 93
1, 139469, Control_c, 0, 64, 77
1, 139484, Control_c, 0, 64, 127
1, 139508, Note_off_c, 0, 65, 63
1, 139535, Note_off_c, 0, 74, 56
1, 139541, Note_off_c, 0, 69, 59
1, 139616, Note_on_c, 0, 69, 59
1, 139620, Note_on_c, 0, 65, 67
1, 139628, Note_on_c, 0, 74, 58
1, 139643, Note_off_c, 0, 65, 67
1, 139655, Note_off_c, 0, 69, 62
1, 139656, Note_off_c, 0, 74, 67
1, 139714, Note_on_c, 0, 65, 67
1, 139723, Note_on_c, 0, 69, 61
1, 139723, Note_on_c, 0, 74, 70
1, 139738, Note_off_c, 0, 65, 69
1, 139746, Note_off_c, 0, 69, 68
1, 139749, Note_off_c, 0, 74, 68
1, 139801, Note_on_c, 0, 65, 81
1, 139809, Note_on_c, 0, 69, 65
1, 139809, Note_on_c, 0, 74, 74
1, 139821, Note_off_c, 0, 65, 71
1, 139830, Note_off_c, 0, 74, 70
1, 139830, Note_off_c, 0, 69, 68
1, 139900, Note_on_c, 0, 65, 80
1, 139907, Note_on_c, 0, 69, 65
1, 139910, Note_on_c, 0, 74, 74
1, 139921, Note_off_c, 0, 65, 69
1, 139931, Note_off_c, 0, 69, 66
1, 139932, Note_off_c, 0, 74, 70
1, 139984, Note_on_c, 0, 65, 78
1, 139988, Note_off_c, 0, 62, 22
1, 139996, Note_on_c, 0, 69, 64
1, 139997, Note_on_c, 0, 74, 74
1, 140011, Note_off_c, 0, 65, 68
1, 140021, Note_off_c, 0, 69, 66
1, 140021, Note_off_c, 0, 74, 67
1, 140047, Note_off_c, 0, 50, 45
1, 140070, Note_on_c, 0, 65, 81
1, 140077, Note_on_c, 0, 74, 71
1, 140080, Note_on_c, 0, 69, 72
1, 140093, Note_off_c, 0, 65, 62
1, 140104, Note_off_c, 0, 69, 64
1, 140107, Note_off_c, 0, 74, 65
1, 140157, Note_on_c, 0, 65, 81
1, 140160, Note_on_c, 0, 69, 78
1, 140163, Note_on_c, 0, 74, 72
1, 140199, Note_off_c, 0, 65, 63
1, 140202, Note_off_c, 0, 74, 57
1, 140205, Note_off_c, 0, 69, 57
1, 140255, Note_on_c, 0, 65, 72
1, 140260, Note_on_c, 0, 69, 68
1, 140265, Note_on_c, 0, 74, 60
1, 140298, Note_off_c, 0, 65, 61
1, 140302, Note_off_c, 0, 74, 62
1, 140306, Note_off_c, 0, 69, 59
1, 140351, Note_on_c, 0, 50, 75
1, 140354, Note_on_c, 0, 62, 94
1, 140360, Note_on_c, 0, 65, 71
1, 140363, Note_on_c, 0, 69, 59
1, 140363, Note_on_c, 0, 74, 69
1, 140387, Note_off_c, 0, 62, 62
1, 140402, Note_off_c, 0, 50, 65
1, 140402, Note_off_c, 0, 69, 62
1, 140402, Note_off_c, 0, 65, 63
1, 140425, Note_off_c, 0, 74, 57
1, 140463, Note_on_c, 0, 74, 48
1, 140465, Note_on_c, 0, 65, 67
1, 140473, Note_on_c, 0, 69, 66
1, 140498, Note_off_c, 0, 65, 65
1, 140504, Note_on_c, 0, 43, 70
1, 140504, Note_off_c, 0, 69, 61
1, 140535, Note_off_c, 0, 74, 0
1, 140557, Note_on_c, 0, 74, 49
1, 140563, Note_on_c, 0, 65, 72
1, 140564, Note_on_c, 0, 50, 84
1, 140566, Note_off_c, 0, 43, 63
1, 140569, Note_on_c, 0, 69, 70
1, 140622, Note_off_c, 0, 65, 59
1, 140626, Note_off_c, 0, 74, 59
1, 140634, Note_off_c, 0, 69, 59
1, 140644, Note_off_c, 0, 50, 55
1, 140685, Control_c, 0, 64, 90
1, 140688, Note_on_c, 0, 50, 64
1, 140700, Control_c, 0, 64, 70
1, 140708, Note_on_c, 0, 62, 87
1, 140715, Control_c, 0, 64, 38
1, 140727, Note_on_c, 0, 70, 66
1, 140730, Control_c, 0, 64, 0
1, 140732, Note_on_c, 0, 74, 71
1, 140734, Note_on_c, 0, 64, 74
1, 140744, Control_c, 0, 64, 65
1, 140759, Control_c, 0, 64, 86
1, 140774, Control_c, 0, 64, 127
1, 140798, Note_off_c, 0, 64, 56
1, 140804, Note_off_c, 0, 70, 63
1, 140810, Note_off_c, 0, 50, 64
1, 140810, Note_off_c, 0, 74, 58
1, 140820, Note_off_c, 0, 62, 61
1, 140885, Note_on_c, 0, 70, 66
1, 140891, Note_on_c, 0, 64, 65
1, 140899, Note_on_c, 0, 74, 56
1, 140914, Note_off_c, 0, 70, 66
1, 140915, Note_off_c, 0, 64, 70
1, 140924, Note_off_c, 0, 74, 66
1, 140987, Note_on_c, 0, 70, 77
1, 140987, Note_on_c, 0, 74, 76
1, 140989, Note_on_c, 0, 64, 67
1, 141023, Note_off_c, 0, 64, 65
1, 141025, Note_off_c, 0, 74, 57
1, 141028, Note_off_c, 0, 70, 53
1, 141075, Note_on_c, 0, 58, 97
1, 141081, Note_on_c, 0, 46, 87
1, 141109, Note_off_c, 0, 58, 65
1, 141111, Note_on_c, 0, 64, 67
1, 141111, Note_off_c, 0, 46, 64
1, 141120, Note_on_c, 0, 70, 70
1, 141126, Note_on_c, 0, 74, 60
1, 141146, Note_off_c, 0, 64, 65
1, 141150, Note_off_c, 0, 70, 65
1, 141153, Note_off_c, 0, 74, 66
1, 141217, Note_on_c, 0, 64, 77
1, 141221, Note_on_c, 0, 70, 72
1, 141226, Note_on_c, 0, 74, 70
1, 141247, Note_off_c, 0, 64, 66
1, 141253, Note_off_c, 0, 70, 65
1, 141254, Note_off_c, 0, 74, 64
1, 141276, Note_on_c, 0, 55, 101
1, 141280, Note_on_c, 0, 43, 94
1, 141303, Note_off_c, 0, 55, 67
1, 141307, Note_off_c, 0, 43, 68
1, 141330, Note_on_c, 0, 64, 70
1, 141331, Note_on_c, 0, 74, 69
1, 141336, Note_on_c, 0, 70, 74
1, 141365, Note_off_c, 0, 64, 59
1, 141376, Note_off_c, 0, 74, 57
1, 141383, Note_off_c, 0, 70, 60
1, 141446, Note_on_c, 0, 52, 101
1, 141448, Control_c, 0, 64, 84
1, 141453, Note_on_c, 0, 40, 92
1, 141463, Control_c, 0, 64, 59
1, 141465, Note_on_c, 0, 64, 78
1, 141469, Note_on_c, 0, 74, 81
1, 141472, Note_on_c, 0, 70, 76
1, 141478, Control_c, 0, 64, 0
1, 141508, Control_c, 0, 64, 69
1, 141514, Note_off_c, 0, 64, 64
1, 141523, Note_off_c, 0, 70, 62
1, 141523, Control_c, 0, 64, 104
1, 141524, Note_off_c, 0, 74, 62
1, 141537, Control_c, 0, 64, 127
1, 141572, Note_off_c, 0, 40, 62
1, 141580, Note_on_c, 0, 70, 66
1, 141593, Note_on_c, 0, 64, 53
1, 141598, Note_off_c, 0, 52, 61
1, 141602, Note_on_c, 0, 74, 50
1, 141612, Note_off_c, 0, 64, 68
1, 141615, Note_off_c, 0, 70, 61
1, 141630, Note_off_c, 0, 74, 57
1, 141670, Note_on_c, 0, 64, 80
1, 141684, Note_on_c, 0, 70, 74
1, 141689, Note_on_c, 0, 74, 65
1, 141698, Note_off_c, 0, 64, 67
1, 141714, Note_off_c, 0, 74, 69
1, 141722, Note_off_c, 0, 70, 60
1, 141750, Note_on_c, 0, 58, 104
1, 141758, Note_on_c, 0, 67, 80
1, 141759, Note_on_c, 0, 46, 88
1, 141763, Note_on_c, 0, 64, 85
1, 141770, Note_on_c, 0, 74, 84
1, 141770, Note_off_c, 0, 58, 67
1, 141773, Note_on_c, 0, 49, 57
1, 141774, Note_off_c, 0, 49, 127
1, 141779, Note_off_c, 0, 46, 67
1, 141784, Note_off_c, 0, 64, 70
1, 141792, Note_off_c, 0, 74, 66
1, 141798, Note_off_c, 0, 67, 59
1, 141801, Note_on_c, 0, 51, 8
1, 141847, Note_off_c, 0, 51, 54
1, 141854, Note_on_c, 0, 67, 65
1, 141865, Note_on_c, 0, 64, 68
1, 141875, Note_on_c, 0, 74, 55
1, 141883, Note_off_c, 0, 67, 60
1, 141885, Note_off_c, 0, 64, 66
1, 141885, Poly_aftertouch_c, 0, 46, 127
1, 141898, Note_off_c, 0, 74, 62
1, 141924, Poly_aftertouch_c, 0, 46, 0
1, 141944, Note_on_c, 0, 64, 87
1, 141947, Note_on_c, 0, 67, 74
1, 141952, Note_on_c, 0, 74, 80
1, 141962, Note_off_c, 0, 64, 71
1, 141976, Note_off_c, 0, 74, 68
1, 141979, Note_off_c, 0, 67, 62
1, 141997, Control_c, 0, 64, 81
1, 142012, Control_c, 0, 64, 0
1, 142020, Note_on_c, 0, 57, 103
1, 142027, Note_on_c, 0, 45, 87
1, 142042, Note_on_c, 0, 65, 95
1, 142045, Note_on_c, 0, 74, 93
1, 142046, Note_on_c, 0, 69, 79
1, 142071, Control_c, 0, 64, 94
1, 142072, Note_off_c, 0, 69, 61
1, 142077, Note_off_c, 0, 65, 64
1, 142086, Control_c, 0, 64, 127
1, 142098, Note_off_c, 0, 74, 65
1, 142155, Note_on_c, 0, 65, 66
1, 142155, Note_on_c, 0, 74, 65
1, 142156, Note_on_c, 0, 69, 60
1, 142178, Note_off_c, 0, 65, 68
1, 142181, Note_off_c, 0, 69, 66
1, 142184, Note_off_c, 0, 57, 61
1, 142191, Note_off_c, 0, 74, 63
1, 142216, Note_off_c, 0, 45, 62
1, 142244, Note_on_c, 0, 74, 75
1, 142254, Note_on_c, 0, 65, 69
1, 142260, Note_on_c, 0, 69, 61
1, 142282, Note_off_c, 0, 65, 66
1, 142283, Note_off_c, 0, 69, 63
1, 142285, Note_off_c, 0, 74, 59
1, 142337, Note_on_c, 0, 74, 69
1, 142342, Note_on_c, 0, 65, 71
1, 142342, Note_on_c, 0, 69, 60
1, 142367, Note_off_c, 0, 65, 66
1, 142370, Note_off_c, 0, 69, 65
1, 142370, Note_off_c, 0, 74, 58
1, 142424, Note_on_c, 0, 65, 76
1, 142435, Note_on_c, 0, 74, 69
1, 142440, Note_on_c, 0, 45, 94
1, 142447, Note_on_c, 0, 33, 70
1, 142450, Note_off_c, 0, 65, 67
1, 142456, Note_on_c, 0, 69, 42
1, 142462, Note_off_c, 0, 74, 65
1, 142467, Note_off_c, 0, 45, 69
1, 142475, Note_off_c, 0, 69, 62
1, 142480, Note_off_c, 0, 33, 62
1, 142530, Note_on_c, 0, 65, 65
1, 142534, Note_on_c, 0, 74, 72
1, 142548, Note_off_c, 0, 65, 67
1, 142553, Control_c, 0, 64, 101
1, 142557, Note_off_c, 0, 74, 69
1, 142567, Control_c, 0, 64, 71
1, 142571, Note_on_c, 0, 57, 99
1, 142575, Note_on_c, 0, 45, 90
1, 142582, Control_c, 0, 64, 27
1, 142588, Note_off_c, 0, 57, 74
1, 142596, Note_off_c, 0, 45, 70
1, 142597, Control_c, 0, 64, 48
1, 142604, Note_on_c, 0, 73, 92
1, 142607, Note_on_c, 0, 64, 88
1, 142612, Control_c, 0, 64, 67
1, 142626, Note_on_c, 0, 69, 47
1, 142627, Control_c, 0, 64, 87
1, 142641, Control_c, 0, 64, 127
1, 142642, Note_off_c, 0, 64, 63
1, 142647, Note_off_c, 0, 69, 62
1, 142658, Note_off_c, 0, 73, 62
1, 142674, Note_on_c, 0, 45, 4
1, 142700, Poly_aftertouch_c, 0, 74, 0
1, 142713, Note_on_c, 0, 69, 74
1, 142718, Note_on_c, 0, 64, 74
1, 142725, Note_off_c, 0, 45, 36
1, 142730, Note_on_c, 0, 73, 66
1, 142734, Note_off_c, 0, 69, 66
1, 142744, Note_off_c, 0, 64, 67
1, 142755, Note_off_c, 0, 73, 67
1, 142807, Note_on_c, 0, 62, 72
1, 142807, Note_on_c, 0, 64, 70
1, 142814, Note_on_c, 0, 69, 70
1, 142825, Note_off_c, 0, 62, 66
1, 142832, Note_off_c, 0, 64, 67
1, 142833, Note_off_c, 0, 69, 71
1, 142835, Note_on_c, 0, 73, 46
1, 142867, Note_off_c, 0, 73, 57
1, 142875, Note_on_c, 0, 57, 97
1, 142884, Note_on_c, 0, 45, 83
1, 142889, Note_on_c, 0, 64, 92
1, 142895, Note_off_c, 0, 57, 71
1, 142897, Note_on_c, 0, 73, 73
1, 142897, Note_on_c, 0, 69, 80
1, 142907, Note_off_c, 0, 45, 66
1, 142915, Note_off_c, 0, 64, 63
1, 142921, Note_off_c, 0, 69, 65
1, 142943, Note_off_c, 0, 73, 61
1, 142991, Note_on_c, 0, 64, 78
1, 142995, Note_on_c, 0, 69, 69
1, 143013, Note_off_c, 0, 64, 71
1, 143014, Note_off_c, 0, 69, 71
1, 143027, Poly_aftertouch_c, 0, 45, 127
1, 143057, Poly_aftertouch_c, 0, 45, 0
1, 143059, Note_on_c, 0, 73, 68
1, 143062, Note_on_c, 0, 69, 80
1, 143073, Note_on_c, 0, 64, 54
1, 143090, Note_off_c, 0, 64, 70
1, 143105, Note_off_c, 0, 69, 64
1, 143109, Control_c, 0, 64, 99
1, 143119, Note_off_c, 0, 73, 63
1, 143124, Control_c, 0, 64, 21
1, 143139, Control_c, 0, 64, 0
1, 143152, Note_on_c, 0, 50, 101
1, 143157, Note_on_c, 0, 38, 91
1, 143157, Note_on_c, 0, 65, 98
1, 143160, Note_on_c, 0, 69, 72
1, 143160, Note_on_c, 0, 74, 95
1, 143183, Note_off_c, 0, 69, 69
1, 143183, Control_c, 0, 64, 75
1, 143194, Note_off_c, 0, 65, 68
1, 143198, Control_c, 0, 64, 127
1, 143212, Note_off_c, 0, 74, 62
1, 143285, Note_on_c, 0, 62, 83
1, 143294, Note_on_c, 0, 74, 68
1, 143300, Note_off_c, 0, 62, 71
1, 143313, Note_off_c, 0, 38, 60
1, 143331, Note_off_c, 0, 50, 57
1, 143331, Note_off_c, 0, 74, 58
1, 143371, Poly_aftertouch_c, 0, 69, 0
1, 143380, Note_on_c, 0, 74, 63
1, 143381, Note_on_c, 0, 62, 47
1, 143399, Note_on_c, 0, 64, 47
1, 143410, Note_off_c, 0, 62, 60
1, 143413, Note_off_c, 0, 74, 63
1, 143428, Note_off_c, 0, 64, 57
1, 143475, Note_on_c, 0, 62, 76
1, 143475, Note_on_c, 0, 74, 73
1, 143501, Note_off_c, 0, 62, 66
1, 143503, Note_off_c, 0, 74, 63
1, 143570, Note_on_c, 0, 62, 77
1, 143577, Note_on_c, 0, 74, 75
1, 143604, Note_off_c, 0, 62, 65
1, 143608, Note_off_c, 0, 74, 68
1, 143663, Note_on_c, 0, 62, 79
1, 143666, Control_c, 0, 64, 74
1, 143672, Note_on_c, 0, 74, 83
1, 143681, Control_c, 0, 64, 0
1, 143696, Note_off_c, 0, 62, 65
1, 143704, Note_off_c, 0, 74, 61
1, 143750, Note_on_c, 0, 62, 79
1, 143763, Note_on_c, 0, 74, 63
1, 143769, Control_c, 0, 64, 67
1, 143784, Note_off_c, 0, 62, 61
1, 143784, Control_c, 0, 64, 111
1, 143794, Note_off_c, 0, 74, 64
1, 143799, Control_c, 0, 64, 127
1, 143849, Note_on_c, 0, 62, 74
1, 143863, Note_on_c, 0, 74, 64
1, 143875, Note_off_c, 0, 62, 65
1, 143887, Note_off_c, 0, 74, 67
1, 143938, Note_on_c, 0, 62, 82
1, 143938, Note_on_c, 0, 74, 85
1, 143966, Note_off_c, 0, 62, 63
1, 143969, Note_off_c, 0, 74, 55
1, 144018, Note_on_c, 0, 62, 72
1, 144028, Note_on_c, 0, 74, 71
1, 144052, Note_off_c, 0, 62, 60
1, 144052, Note_off_c, 0, 74, 67
1, 144054, Note_on_c, 0, 64, 36
1, 144088, Note_off_c, 0, 64, 58
1, 144101, Note_on_c, 0, 62, 71
1, 144112, Note_on_c, 0, 74, 66
1, 144139, Note_off_c, 0, 62, 57
1, 144139, Note_off_c, 0, 74, 67
1, 144206, Note_on_c, 0, 62, 77
1, 144215, Note_on_c, 0, 74, 73
1, 144227, Note_off_c, 0, 62, 62
1, 144243, Note_off_c, 0, 74, 68
1, 144248, Note_on_c, 0, 38, 95
1, 144255, Note_on_c, 0, 26, 73
1, 144271, Note_off_c, 0, 38, 70
1, 144289, Note_off_c, 0, 26, 63
1, 144308, Note_on_c, 0, 62, 80
1, 144320, Note_on_c, 0, 74, 66
1, 144331, Note_off_c, 0, 62, 67
1, 144337, Note_off_c, 0, 74, 68
1, 144352, Note_on_c, 0, 40, 91
1, 144363, Note_on_c, 0, 28, 58
1, 144375, Note_off_c, 0, 40, 67
1, 144395, Note_off_c, 0, 28, 53
1, 144403, Note_on_c, 0, 62, 82
1, 144404, Note_on_c, 0, 74, 73
1, 144429, Note_off_c, 0, 62, 61
1, 144432, Note_off_c, 0, 74, 62
1, 144433, Note_on_c, 0, 41, 82
1, 144445, Note_on_c, 0, 29, 57
1, 144456, Note_off_c, 0, 41, 66
1, 144483, Note_off_c, 0, 29, 52
1, 144495, Note_on_c, 0, 62, 81
1, 144501, Note_on_c, 0, 74, 71
1, 144512, Note_on_c, 0, 43, 85
1, 144521, Note_on_c, 0, 31, 64
1, 144528, Note_off_c, 0, 62, 59
1, 144528, Note_off_c, 0, 74, 62
1, 144537, Note_off_c, 0, 43, 67
1, 144553, Note_off_c, 0, 31, 57
1, 144593, Note_on_c, 0, 62, 80
1, 144596, Note_on_c, 0, 45, 92
1, 144600, Note_on_c, 0, 74, 74
1, 144612, Note_on_c, 0, 33, 62
1, 144620, Note_off_c, 0, 62, 64
1, 144621, Note_off_c, 0, 45, 71
1, 144626, Note_off_c, 0, 74, 64
1, 144642, Note_off_c, 0, 33, 55
1, 144683, Note_on_c, 0, 62, 84
1, 144688, Note_on_c, 0, 46, 96
1, 144695, Note_on_c, 0, 74, 80
1, 144704, Note_on_c, 0, 34, 69
1, 144710, Note_off_c, 0, 46, 69
1, 144713, Note_on_c, 0, 39, 46
1, 144713, Note_on_c, 0, 47, 59
1, 144713, Note_off_c, 0, 62, 63
1, 144716, Note_off_c, 0, 74, 69
1, 144719, Poly_aftertouch_c, 0, 37, 0
1, 144727, Note_off_c, 0, 34, 61
1, 144736, Note_off_c, 0, 47, 65
1, 144751, Note_off_c, 0, 39, 48
1, 144755, Control_c, 0, 64, 85
1, 144769, Control_c, 0, 64, 0
1, 144770, Poly_aftertouch_c, 0, 37, 0
1, 144773, Note_on_c, 0, 45, 101
1, 144774, Note_on_c, 0, 62, 90
1, 144781, Note_on_c, 0, 33, 80
1, 144781, Note_on_c, 0, 74, 95
1, 144806, Note_off_c, 0, 45, 67
1, 144814, Control_c, 0, 64, 69
1, 144816, Note_off_c, 0, 33, 63
1, 144819, Note_off_c, 0, 62, 63
1, 144821, Note_on_c, 0, 35, 20
1, 144822, Note_off_c, 0, 35, 127
1, 144823, Poly_aftertouch_c, 0, 37, 0
1, 144829, Control_c, 0, 64, 104
1, 144844, Control_c, 0, 64, 127
1, 144847, Note_off_c, 0, 74, 0
1, 144865, Poly_aftertouch_c, 0, 40, 127
1, 144868, Poly_aftertouch_c, 0, 35, 0
1, 144874, Note_on_c, 0, 62, 77
1, 144883, Poly_aftertouch_c, 0, 74, 127
1, 144903, Poly_aftertouch_c, 0, 40, 0
1, 144903, Control_c, 0, 64, 104
1, 144914, Note_off_c, 0, 62, 57
1, 144918, Control_c, 0, 64, 65
1, 144919, Poly_aftertouch_c, 0, 74, 0
1, 144933, Control_c, 0, 64, 0
1, 144984, Note_on_c, 0, 74, 76
1, 144990, Note_on_c, 0, 62, 68
1, 145018, Note_off_c, 0, 62, 64
1, 145030, Note_off_c, 0, 74, 63
1, 145058, Note_on_c, 0, 41, 103
1, 145068, Note_on_c, 0, 29, 84
1, 145081, Control_c, 0, 64, 100
1, 145083, Note_on_c, 0, 62, 79
1, 145083, Note_off_c, 0, 41, 69
1, 145098, Note_on_c, 0, 74, 71
1, 145102, Note_off_c, 0, 29, 67
1, 145103, Control_c, 0, 64, 127
1, 145132, Note_on_c, 0, 32, 7
1, 145132, Note_off_c, 0, 62, 62
1, 145140, Note_off_c, 0, 74, 58
1, 145160, Note_off_c, 0, 32, 0
1, 145163, Control_c, 0, 64, 97
1, 145178, Control_c, 0, 64, 70
1, 145182, Poly_aftertouch_c, 0, 32, 0
1, 145192, Poly_aftertouch_c, 0, 31, 0
1, 145192, Control_c, 0, 64, 0
1, 145199, Note_on_c, 0, 62, 68
1, 145207, Note_on_c, 0, 74, 57
1, 145234, Note_off_c, 0, 62, 61
1, 145240, Note_off_c, 0, 74, 54
1, 145306, Note_on_c, 0, 62, 79
1, 145309, Note_on_c, 0, 74, 83
1, 145333, Note_off_c, 0, 62, 65
1, 145339, Note_off_c, 0, 74, 57
1, 145351, Note_on_c, 0, 38, 105
1, 145356, Note_on_c, 0, 26, 79
1, 145371, Control_c, 0, 64, 84
1, 145385, Note_off_c, 0, 26, 67
1, 145386, Control_c, 0, 64, 127
1, 145395, Note_on_c, 0, 62, 82
1, 145395, Note_off_c, 0, 38, 68
1, 145397, Note_on_c, 0, 74, 77
1, 145443, Note_off_c, 0, 62, 58
1, 145452, Note_on_c, 0, 72, 9
1, 145456, Note_off_c, 0, 74, 57
1, 145497, Note_on_c, 0, 62, 63
1, 145502, Note_on_c, 0, 74, 49
1, 145520, Note_off_c, 0, 72, 42
1, 145538, Note_off_c, 0, 74, 64
1, 145542, Note_off_c, 0, 62, 62
1, 145605, Note_on_c, 0, 62, 71
1, 145610, Note_on_c, 0, 74, 68
1, 145636, Note_off_c, 0, 62, 64
1, 145640, Note_off_c, 0, 74, 64
1, 145692, Note_on_c, 0, 62, 67
1, 145696, Note_on_c, 0, 74, 67
1, 145716, Note_off_c, 0, 62, 61
1, 145724, Note_off_c, 0, 74, 65
1, 145771, Note_on_c, 0, 62, 70
1, 145790, Note_on_c, 0, 74, 70
1, 145807, Note_off_c, 0, 62, 61
1, 145816, Note_off_c, 0, 74, 67
1, 145876, Note_on_c, 0, 62, 69
1, 145881, Control_c, 0, 64, 97
1, 145891, Note_on_c, 0, 74, 57
1, 145896, Control_c, 0, 64, 73
1, 145902, Note_off_c, 0, 62, 63
1, 145911, Control_c, 0, 64, 0
1, 145912, Note_off_c, 0, 74, 63
1, 145967, Note_on_c, 0, 62, 71
1, 145979, Note_on_c, 0, 74, 73
1, 145986, Control_c, 0, 64, 56
1, 145996, Note_off_c, 0, 62, 63
1, 146001, Control_c, 0, 64, 68
1, 146005, Note_off_c, 0, 74, 66
1, 146016, Control_c, 0, 64, 77
1, 146018, Note_on_c, 0, 64, 18
1, 146019, Note_off_c, 0, 64, 127
1, 146030, Control_c, 0, 64, 87
1, 146045, Control_c, 0, 64, 96
1, 146060, Control_c, 0, 64, 102
1, 146062, Poly_aftertouch_c, 0, 64, 0
1, 146066, Note_on_c, 0, 62, 75
1, 146075, Control_c, 0, 64, 106
1, 146079, Note_on_c, 0, 74, 58
1, 146090, Control_c, 0, 64, 127
1, 146091, Note_off_c, 0, 62, 63
1, 146100, Note_off_c, 0, 74, 62
1, 146156, Note_on_c, 0, 62, 67
1, 146171, Note_on_c, 0, 74, 65
1, 146186, Note_off_c, 0, 62, 61
1, 146191, Note_off_c, 0, 74, 64
1, 146243, Note_on_c, 0, 62, 82
1, 146254, Note_on_c, 0, 74, 73
1, 146269, Note_off_c, 0, 62, 63
1, 146284, Note_off_c, 0, 74, 61
1, 146334, Note_on_c, 0, 62, 74
1, 146341, Note_on_c, 0, 74, 64
1, 146358, Note_off_c, 0, 62, 60
1, 146379, Note_off_c, 0, 74, 64
1, 146427, Note_on_c, 0, 62, 71
1, 146436, Note_on_c, 0, 74, 62
1, 146445, Control_c, 0, 64, 95
1, 146453, Note_off_c, 0, 62, 65
1, 146455, Note_off_c, 0, 74, 61
1, 146460, Control_c, 0, 64, 75
1, 146475, Control_c, 0, 64, 26
1, 146489, Control_c, 0, 64, 0
1, 146504, Control_c, 0, 64, 49
1, 146519, Control_c, 0, 64, 70
1, 146520, Note_on_c, 0, 62, 76
1, 146522, Note_on_c, 0, 74, 71
1, 146528, Note_on_c, 0, 50, 72
1, 146534, Control_c, 0, 64, 86
1, 146543, Note_on_c, 0, 38, 45
1, 146544, Note_off_c, 0, 62, 67
1, 146549, Control_c, 0, 64, 127
1, 146550, Note_off_c, 0, 74, 64
1, 146557, Note_off_c, 0, 50, 68
1, 146588, Note_off_c, 0, 38, 49
1, 146624, Note_on_c, 0, 52, 86
1, 146629, Note_on_c, 0, 62, 67
1, 146639, Note_on_c, 0, 74, 65
1, 146644, Note_on_c, 0, 40, 50
1, 146648, Note_off_c, 0, 52, 66
1, 146655, Note_off_c, 0, 62, 67
1, 146659, Note_off_c, 0, 74, 61
1, 146674, Note_off_c, 0, 40, 55
1, 146722, Note_on_c, 0, 53, 82
1, 146726, Note_on_c, 0, 62, 76
1, 146733, Note_on_c, 0, 74, 71
1, 146743, Note_on_c, 0, 41, 43
1, 146746, Note_off_c, 0, 53, 69
1, 146759, Note_off_c, 0, 62, 57
1, 146773, Note_off_c, 0, 74, 50
1, 146776, Note_off_c, 0, 41, 52
1, 146816, Note_on_c, 0, 55, 68
1, 146825, Note_on_c, 0, 43, 47
1, 146834, Note_on_c, 0, 74, 56
1, 146838, Note_on_c, 0, 62, 68
1, 146842, Note_off_c, 0, 55, 66
1, 146857, Note_off_c, 0, 43, 53
1, 146859, Note_off_c, 0, 62, 60
1, 146908, Note_on_c, 0, 57, 70
1, 146914, Note_off_c, 0, 74, 0
1, 146920, Note_on_c, 0, 45, 44
1, 146924, Note_on_c, 0, 62, 69
1, 146933, Note_on_c, 0, 74, 43
1, 146933, Note_off_c, 0, 57, 66
1, 146951, Note_off_c, 0, 45, 55
1, 146960, Note_off_c, 0, 62, 59
1, 146975, Note_off_c, 0, 74, 54
1, 146984, Note_on_c, 0, 58, 87
1, 146997, Note_on_c, 0, 46, 71
1, 147008, Note_off_c, 0, 58, 64
1, 147017, Note_on_c, 0, 62, 63
1, 147024, Note_off_c, 0, 46, 64
1, 147026, Note_on_c, 0, 74, 57
1, 147035, Poly_aftertouch_c, 0, 50, 127
1, 147048, Note_off_c, 0, 62, 61
1, 147065, Note_off_c, 0, 74, 60
1, 147085, Poly_aftertouch_c, 0, 50, 0
1, 147085, Note_on_c, 0, 57, 95
1, 147095, Note_on_c, 0, 45, 71
1, 147106, Note_off_c, 0, 57, 67
1, 147111, Note_on_c, 0, 62, 80
1, 147119, Note_off_c, 0, 45, 66
1, 147121, Note_on_c, 0, 74, 68
1, 147135, Control_c, 0, 64, 76
1, 147150, Control_c, 0, 64, 0
1, 147156, Note_off_c, 0, 74, 63
1, 147156, Note_off_c, 0, 62, 58
1, 147173, Poly_aftertouch_c, 0, 47, 0
1, 147194, Control_c, 0, 64, 64
1, 147209, Control_c, 0, 64, 78
1, 147213, Note_on_c, 0, 62, 72
1, 147220, Note_on_c, 0, 74, 68
1, 147224, Control_c, 0, 64, 127
1, 147248, Note_off_c, 0, 62, 61
1, 147261, Note_off_c, 0, 74, 59
1, 147312, Control_c, 0, 64, 92
1, 147327, Note_on_c, 0, 62, 66
1, 147327, Control_c, 0, 64, 0
1, 147341, Note_on_c, 0, 74, 67
1, 147355, Note_off_c, 0, 62, 66
1, 147368, Note_off_c, 0, 74, 66
1, 147391, Note_on_c, 0, 53, 86
1, 147394, Control_c, 0, 64, 75
1, 147400, Note_on_c, 0, 41, 61
1, 147409, Control_c, 0, 64, 127
1, 147413, Note_off_c, 0, 53, 69
1, 147427, Note_off_c, 0, 41, 57
1, 147428, Note_on_c, 0, 62, 73
1, 147440, Note_on_c, 0, 74, 81
1, 147475, Note_off_c, 0, 62, 59
1, 147483, Note_off_c, 0, 74, 49
1, 147539, Note_on_c, 0, 62, 66
1, 147539, Note_on_c, 0, 74, 59
1, 147554, Poly_aftertouch_c, 0, 53, 0
1, 147567, Note_off_c, 0, 62, 64
1, 147573, Control_c, 0, 64, 86
1, 147582, Note_off_c, 0, 74, 60
1, 147587, Control_c, 0, 64, 56
1, 147602, Control_c, 0, 64, 0
1, 147638, Note_on_c, 0, 62, 74
1, 147640, Note_on_c, 0, 74, 64
1, 147670, Note_off_c, 0, 62, 59
1, 147686, Note_off_c, 0, 74, 60
1, 147691, Control_c, 0, 64, 33
1, 147706, Control_c, 0, 64, 79
1, 147715, Note_on_c, 0, 50, 90
1, 147720, Control_c, 0, 64, 90
1, 147725, Note_on_c, 0, 38, 63
1, 147732, Note_on_c, 0, 62, 67
1, 147735, Note_on_c, 0, 74, 59
1, 147735, Control_c, 0, 64, 97
1, 147740, Note_off_c, 0, 50, 72
1, 147750, Note_off_c, 0, 38, 57
1, 147750, Control_c, 0, 64, 100
1, 147758, Note_off_c, 0, 62, 58
1, 147765, Control_c, 0, 64, 104
1, 147780, Control_c, 0, 64, 108
1, 147795, Control_c, 0, 64, 113
1, 147810, Control_c, 0, 64, 127
1, 147825, Note_on_c, 0, 62, 74
1, 147863, Note_off_c, 0, 62, 60
1, 147921, Note_off_c, 0, 74, 0
1, 147921, Note_on_c, 0, 74, 44
1, 147929, Note_on_c, 0, 62, 65
1, 147957, Note_off_c, 0, 62, 61
1, 147983, Note_off_c, 0, 74, 57
1, 148002, Control_c, 0, 64, 97
1, 148017, Control_c, 0, 64, 85
1, 148021, Note_on_c, 0, 74, 52
1, 148026, Note_on_c, 0, 62, 73
1, 148032, Control_c, 0, 64, 83
1, 148047, Control_c, 0, 64, 87
1, 148061, Control_c, 0, 64, 105
1, 148068, Note_off_c, 0, 62, 57
1, 148084, Control_c, 0, 64, 127
1, 148095, Note_off_c, 0, 74, 61
1, 148144, Note_on_c, 0, 62, 64
1, 148144, Note_on_c, 0, 74, 58
1, 148187, Note_off_c, 0, 62, 60
1, 148203, Note_off_c, 0, 74, 64
1, 148260, Note_on_c, 0, 74, 70
1, 148264, Note_on_c, 0, 62, 72
1, 148307, Note_off_c, 0, 62, 59
1, 148318, Note_off_c, 0, 74, 65
1, 148382, Note_on_c, 0, 74, 73
1, 148385, Note_on_c, 0, 62, 66
1, 148416, Note_off_c, 0, 62, 59
1, 148438, Note_off_c, 0, 74, 60
1, 148499, Note_on_c, 0, 74, 68
1, 148504, Note_on_c, 0, 62, 64
1, 148530, Note_off_c, 0, 62, 61
1, 148550, Note_off_c, 0, 74, 63
1, 148610, Note_on_c, 0, 74, 77
1, 148618, Note_on_c, 0, 62, 48
1, 148641, Note_off_c, 0, 62, 58
1, 148665, Note_off_c, 0, 74, 66
1, 148704, Note_on_c, 0, 50, 68
1, 148725, Note_on_c, 0, 62, 70
1, 148825, Note_on_c, 0, 86, 96
1, 148827, Note_on_c, 0, 74, 85
1, 148854, Note_off_c, 0, 50, 54
1, 148858, Note_off_c, 0, 74, 57
1, 148890, Note_off_c, 0, 62, 52
1, 148988, Note_on_c, 0, 62, 90
1, 148990, Note_off_c, 0, 86, 52
1, 148992, Note_on_c, 0, 50, 75
1, 149075, Note_off_c, 0, 62, 56
1, 149076, Note_off_c, 0, 50, 65
1, 149157, Note_on_c, 0, 62, 83
1, 149169, Note_on_c, 0, 50, 70
1, 149185, Poly_aftertouch_c, 0, 55, 0
1, 149205, Note_off_c, 0, 62, 57
1, 149266, Note_off_c, 0, 50, 62
1, 149424, Note_on_c, 0, 51, 66
1, 149425, Note_on_c, 0, 39, 67
1, 149470, Control_c, 0, 64, 113
1, 149485, Control_c, 0, 64, 71
1, 149500, Control_c, 0, 64, 0
1, 149503, Note_on_c, 0, 87, 90
1, 149509, Note_on_c, 0, 75, 79
1, 149573, Control_c, 0, 64, 69
1, 149595, Control_c, 0, 64, 100
1, 149610, Control_c, 0, 64, 127
1, 149655, Note_off_c, 0, 39, 59
1, 149688, Note_off_c, 0, 51, 63
1, 149763, Note_off_c, 0, 75, 58
1, 149886, Note_on_c, 0, 75, 54
1, 149891, Note_on_c, 0, 67, 53
1, 149899, Note_on_c, 0, 55, 43
1, 149907, Note_on_c, 0, 79, 49
1, 149908, Note_on_c, 0, 58, 46
1, 149915, Note_on_c, 0, 63, 44
1, 149932, Note_off_c, 0, 67, 45
1, 149954, Note_off_c, 0, 79, 55
1, 149966, Note_off_c, 0, 75, 58
1, 149988, Note_off_c, 0, 58, 52
1, 149991, Note_off_c, 0, 63, 59
1, 150010, Note_off_c, 0, 55, 35
1, 150060, Note_on_c, 0, 75, 56
1, 150068, Note_on_c, 0, 67, 62
1, 150069, Note_on_c, 0, 79, 56
1, 150078, Note_on_c, 0, 58, 47
1, 150081, Note_on_c, 0, 55, 37
1, 150083, Note_on_c, 0, 63, 50
1, 150096, Note_off_c, 0, 67, 64
1, 150117, Note_off_c, 0, 55, 52
1, 150119, Note_off_c, 0, 58, 61
1, 150119, Note_off_c, 0, 87, 61
1, 150123, Note_off_c, 0, 63, 60
1, 150184, Note_off_c, 0, 75, 48
1, 150197, Note_off_c, 0, 79, 50
1, 150200, Note_on_c, 0, 67, 61
1, 150210, Note_on_c, 0, 55, 48
1, 150213, Note_on_c, 0, 58, 62
1, 150221, Note_on_c, 0, 63, 50
1, 150250, Note_off_c, 0, 58, 61
1, 150250, Note_off_c, 0, 55, 57
1, 150250, Note_off_c, 0, 63, 66
1, 150253, Note_off_c, 0, 67, 57
1, 150345, Note_on_c, 0, 63, 54
1, 150359, Note_on_c, 0, 58, 51
1, 150364, Note_on_c, 0, 67, 48
1, 150376, Note_on_c, 0, 82, 82
1, 150382, Note_on_c, 0, 70, 69
1, 150397, Note_on_c, 0, 55, 25
1, 150403, Note_off_c, 0, 67, 60
1, 150409, Note_off_c, 0, 58, 44
1, 150418, Note_off_c, 0, 63, 58
1, 150434, Note_off_c, 0, 55, 46
1, 150441, Note_on_c, 0, 80, 31
1, 150502, Note_on_c, 0, 67, 60
1, 150502, Note_off_c, 0, 70, 61
1, 150527, Note_on_c, 0, 63, 53
1, 150527, Note_off_c, 0, 82, 61
1, 150531, Note_on_c, 0, 58, 54
1, 150536, Note_off_c, 0, 80, 40
1, 150545, Note_on_c, 0, 55, 39
1, 150567, Note_off_c, 0, 67, 57
1, 150570, Note_off_c, 0, 63, 53
1, 150579, Note_off_c, 0, 55, 51
1, 150581, Note_off_c, 0, 58, 58
1, 150600, Note_on_c, 0, 82, 93
1, 150605, Note_on_c, 0, 70, 83
1, 150654, Note_on_c, 0, 80, 30
1, 150687, Note_on_c, 0, 67, 60
1, 150687, Note_off_c, 0, 70, 61
1, 150698, Note_off_c, 0, 80, 50
1, 150699, Note_on_c, 0, 55, 47
1, 150700, Note_on_c, 0, 63, 55
1, 150708, Note_on_c, 0, 58, 49
1, 150748, Note_off_c, 0, 55, 60
1, 150752, Note_off_c, 0, 67, 60
1, 150763, Note_on_c, 0, 75, 66
1, 150763, Note_off_c, 0, 82, 59
1, 150764, Note_off_c, 0, 58, 54
1, 150773, Note_off_c, 0, 63, 59
1, 150776, Note_on_c, 0, 79, 64
1, 150832, Note_off_c, 0, 75, 62
1, 150835, Note_off_c, 0, 79, 61
1, 150849, Note_on_c, 0, 67, 75
1, 150856, Note_on_c, 0, 63, 62
1, 150860, Note_on_c, 0, 58, 65
1, 150867, Note_on_c, 0, 55, 54
1, 150877, Note_off_c, 0, 67, 59
1, 150891, Note_off_c, 0, 55, 62
1, 150894, Note_off_c, 0, 58, 64
1, 150906, Note_off_c, 0, 63, 59
1, 150952, Note_on_c, 0, 75, 93
1, 150952, Note_on_c, 0, 87, 96
1, 150961, Note_on_c, 0, 67, 86
1, 150969, Note_on_c, 0, 63, 62
1, 150971, Note_on_c, 0, 58, 68
1, 150973, Note_on_c, 0, 55, 56
1, 150995, Note_off_c, 0, 55, 62
1, 150995, Note_off_c, 0, 67, 58
1, 150999, Note_off_c, 0, 75, 61
1, 151001, Note_off_c, 0, 58, 62
1, 151034, Note_off_c, 0, 63, 57
1, 151086, Poly_aftertouch_c, 0, 61, 0
1, 151104, Note_on_c, 0, 79, 56
1, 151109, Note_on_c, 0, 67, 60
1, 151109, Note_off_c, 0, 87, 64
1, 151113, Note_on_c, 0, 82, 48
1, 151135, Note_on_c, 0, 58, 18
1, 151137, Note_off_c, 0, 82, 57
1, 151170, Note_on_c, 0, 63, 77
1, 151182, Note_off_c, 0, 67, 67
1, 151187, Note_off_c, 0, 58, 0
1, 151187, Note_on_c, 0, 58, 46
1, 151187, Note_on_c, 0, 55, 56
1, 151189, Note_on_c, 0, 82, 74
1, 151208, Note_on_c, 0, 61, 39
1, 151208, Note_off_c, 0, 63, 58
1, 151214, Note_off_c, 0, 55, 65
1, 151221, Note_off_c, 0, 58, 65
1, 151242, Note_off_c, 0, 61, 52
1, 151277, Note_off_c, 0, 79, 57
1, 151301, Control_c, 0, 64, 105
1, 151316, Control_c, 0, 64, 67
1, 151318, Note_on_c, 0, 51, 94
1, 151325, Note_on_c, 0, 39, 75
1, 151330, Note_on_c, 0, 74, 95
1, 151330, Note_on_c, 0, 86, 92
1, 151330, Control_c, 0, 64, 0
1, 151345, Control_c, 0, 64, 32
1, 151360, Note_off_c, 0, 82, 63
1, 151360, Control_c, 0, 64, 70
1, 151366, Note_off_c, 0, 39, 62
1, 151371, Note_off_c, 0, 51, 62
1, 151375, Control_c, 0, 64, 94
1, 151390, Control_c, 0, 64, 127
1, 151482, Note_on_c, 0, 83, 72
1, 151487, Note_on_c, 0, 63, 82
1, 151489, Note_on_c, 0, 80, 61
1, 151497, Note_on_c, 0, 65, 76
1, 151514, Note_off_c, 0, 86, 63
1, 151518, Note_off_c, 0, 74, 54
1, 151521, Note_on_c, 0, 56, 49
1, 151521, Note_off_c, 0, 65, 70
1, 151530, Note_off_c, 0, 80, 55
1, 151543, Note_off_c, 0, 63, 56
1, 151548, Note_off_c, 0, 83, 59
1, 151549, Note_off_c, 0, 56, 57
1, 151584, Note_on_c, 0, 83, 59
1, 151590, Note_on_c, 0, 80, 65
1, 151595, Note_on_c, 0, 65, 74
1, 151616, Note_on_c, 0, 62, 57
1, 151623, Note_off_c, 0, 65, 66
1, 151629, Note_on_c, 0, 56, 41
1, 151646, Note_off_c, 0, 62, 63
1, 151658, Note_off_c, 0, 56, 56
1, 151659, Note_off_c, 0, 80, 59
1, 151690, Note_on_c, 0, 65, 81
1, 151694, Note_off_c, 0, 83, 0
1, 151694, Note_on_c, 0, 86, 94
1, 151699, Note_on_c, 0, 74, 92
1, 151700, Note_on_c, 0, 56, 61
1, 151700, Note_on_c, 0, 62, 62
1, 151715, Note_on_c, 0, 83, 33
1, 151731, Note_off_c, 0, 74, 59
1, 151733, Note_off_c, 0, 56, 64
1, 151733, Note_off_c, 0, 65, 60
1, 151738, Note_off_c, 0, 62, 58
1, 151745, Note_off_c, 0, 83, 52
1, 151756, Note_off_c, 0, 86, 64
1, 151802, Note_on_c, 0, 65, 74
1, 151807, Note_on_c, 0, 56, 68
1, 151815, Note_on_c, 0, 62, 58
1, 151852, Poly_aftertouch_c, 0, 80, 127
1, 151857, Note_off_c, 0, 65, 64
1, 151862, Note_on_c, 0, 75, 95
1, 151864, Note_on_c, 0, 87, 102
1, 151873, Note_off_c, 0, 56, 61
1, 151886, Note_off_c, 0, 62, 57
1, 151891, Poly_aftertouch_c, 0, 80, 0
1, 151911, Note_off_c, 0, 75, 63
1, 151940, Note_on_c, 0, 62, 54
1, 151940, Note_on_c, 0, 65, 86
1, 151947, Note_on_c, 0, 56, 71
1, 151977, Note_off_c, 0, 87, 66
1, 151991, Note_off_c, 0, 65, 60
1, 152001, Note_on_c, 0, 80, 43
1, 152010, Note_off_c, 0, 56, 61
1, 152023, Note_on_c, 0, 83, 15
1, 152025, Note_off_c, 0, 62, 60
1, 152028, Note_off_c, 0, 80, 57
1, 152067, Note_off_c, 0, 83, 37
1, 152072, Note_on_c, 0, 89, 98
1, 152073, Note_on_c, 0, 77, 98
1, 152087, Note_on_c, 0, 65, 81
1, 152094, Note_on_c, 0, 62, 61
1, 152102, Note_on_c, 0, 56, 72
1, 152129, Note_on_c, 0, 85, 44
1, 152170, Note_off_c, 0, 65, 61
1, 152174, Note_off_c, 0, 56, 61
1, 152191, Note_off_c, 0, 62, 58
1, 152250, Note_on_c, 0, 65, 78
1, 152254, Note_on_c, 0, 83, 36
1, 152258, Note_on_c, 0, 62, 58
1, 152263, Note_on_c, 0, 56, 68
1, 152289, Note_on_c, 0, 80, 48
1, 152289, Note_off_c, 0, 65, 48
1, 152300, Note_off_c, 0, 56, 64
1, 152320, Note_off_c, 0, 89, 58
1, 152320, Note_off_c, 0, 62, 60
1, 152325, Note_off_c, 0, 77, 59
1, 152367, Note_off_c, 0, 85, 62
1, 152368, Note_on_c, 0, 65, 88
1, 152372, Note_off_c, 0, 80, 56
1, 152373, Note_on_c, 0, 62, 56
1, 152375, Note_off_c, 0, 83, 62
1, 152376, Note_on_c, 0, 56, 76
1, 152411, Note_off_c, 0, 65, 60
1, 152422, Note_off_c, 0, 56, 53
1, 152439, Note_off_c, 0, 62, 61
1, 152491, Note_on_c, 0, 62, 56
1, 152493, Note_on_c, 0, 65, 77
1, 152508, Note_on_c, 0, 56, 59
1, 152519, Note_on_c, 0, 87, 92
1, 152520, Note_on_c, 0, 75, 92
1, 152537, Note_off_c, 0, 65, 47
1, 152540, Note_off_c, 0, 56, 64
1, 152566, Note_off_c, 0, 62, 59
1, 152569, Note_on_c, 0, 85, 16
1, 152581, Note_off_c, 0, 87, 64
1, 152593, Note_on_c, 0, 86, 60
1, 152620, Note_off_c, 0, 85, 50
1, 152625, Note_off_c, 0, 75, 59
1, 152627, Note_off_c, 0, 86, 62
1, 152630, Note_on_c, 0, 56, 66
1, 152639, Note_on_c, 0, 62, 57
1, 152642, Note_on_c, 0, 65, 74
1, 152647, Note_on_c, 0, 82, 42
1, 152674, Note_off_c, 0, 65, 65
1, 152684, Note_off_c, 0, 56, 60
1, 152687, Note_off_c, 0, 82, 48
1, 152691, Note_off_c, 0, 62, 60
1, 152723, Note_on_c, 0, 86, 92
1, 152726, Note_on_c, 0, 74, 95
1, 152738, Note_on_c, 0, 65, 85
1, 152747, Note_on_c, 0, 62, 58
1, 152756, Note_on_c, 0, 56, 69
1, 152758, Note_off_c, 0, 65, 72
1, 152788, Note_off_c, 0, 62, 62
1, 152798, Note_off_c, 0, 56, 62
1, 152862, Note_off_c, 0, 74, 46
1, 152903, Note_off_c, 0, 86, 60
1, 152931, Note_on_c, 0, 51, 94
1, 152938, Note_on_c, 0, 39, 80
1, 152976, Control_c, 0, 64, 100
1, 152991, Control_c, 0, 64, 60
1, 153001, Note_on_c, 0, 87, 95
1, 153002, Note_on_c, 0, 75, 93
1, 153005, Control_c, 0, 64, 0
1, 153050, Control_c, 0, 64, 52
1, 153065, Control_c, 0, 64, 83
1, 153080, Control_c, 0, 64, 127
1, 153102, Note_off_c, 0, 39, 61
1, 153108, Note_off_c, 0, 51, 66
1, 153174, Note_off_c, 0, 75, 54
1, 153217, Note_off_c, 0, 87, 62
1, 153239, Note_on_c, 0, 82, 62
1, 153244, Note_on_c, 0, 67, 74
1, 153253, Note_on_c, 0, 58, 61
1, 153253, Note_on_c, 0, 79, 35
1, 153259, Note_on_c, 0, 63, 57
1, 153268, Note_off_c, 0, 67, 69
1, 153268, Note_off_c, 0, 82, 63
1, 153283, Note_off_c, 0, 58, 63
1, 153284, Note_off_c, 0, 79, 53
1, 153289, Note_off_c, 0, 63, 65
1, 153351, Note_on_c, 0, 82, 77
1, 153356, Note_on_c, 0, 67, 74
1, 153359, Note_on_c, 0, 58, 69
1, 153362, Note_on_c, 0, 63, 71
1, 153373, Note_on_c, 0, 79, 51
1, 153375, Note_off_c, 0, 67, 72
1, 153378, Note_off_c, 0, 82, 64
1, 153383, Note_off_c, 0, 58, 69
1, 153389, Note_off_c, 0, 63, 65
1, 153396, Note_off_c, 0, 79, 61
1, 153402, Poly_aftertouch_c, 0, 55, 0
1, 153449, Note_on_c, 0, 63, 68
1, 153450, Note_on_c, 0, 67, 76
1, 153453, Note_on_c, 0, 82, 75
1, 153456, Note_on_c, 0, 58, 73
1, 153469, Note_off_c, 0, 67, 66
1, 153471, Note_off_c, 0, 63, 69
1, 153475, Note_off_c, 0, 82, 69
1, 153476, Note_off_c, 0, 58, 70
1, 153480, Note_on_c, 0, 79, 42
1, 153504, Note_off_c, 0, 79, 58
1, 153520, Poly_aftertouch_c, 0, 55, 0
1, 153532, Note_on_c, 0, 67, 79
1, 153539, Note_on_c, 0, 58, 76
1, 153544, Note_on_c, 0, 82, 81
1, 153545, Note_on_c, 0, 63, 70
1, 153548, Note_off_c, 0, 67, 73
1, 153550, Note_on_c, 0, 55, 15
1, 153564, Note_on_c, 0, 79, 47
1, 153566, Note_off_c, 0, 82, 66
1, 153567, Note_off_c, 0, 58, 66
1, 153569, Note_off_c, 0, 63, 68
1, 153590, Note_off_c, 0, 79, 57
1, 153595, Note_off_c, 0, 55, 37
1, 153627, Note_on_c, 0, 67, 78
1, 153631, Note_on_c, 0, 63, 74
1, 153634, Note_on_c, 0, 82, 78
1, 153639, Note_on_c, 0, 58, 70
1, 153643, Note_on_c, 0, 79, 58
1, 153649, Note_off_c, 0, 67, 69
1, 153653, Note_off_c, 0, 82, 70
1, 153657, Note_off_c, 0, 63, 67
1, 153661, Note_off_c, 0, 79, 62
1, 153662, Note_off_c, 0, 58, 67
1, 153716, Note_on_c, 0, 58, 80
1, 153719, Note_on_c, 0, 67, 78
1, 153724, Note_on_c, 0, 82, 76
1, 153726, Note_on_c, 0, 63, 63
1, 153727, Note_on_c, 0, 79, 70
1, 153730, Note_on_c, 0, 55, 29
1, 153739, Note_off_c, 0, 58, 62
1, 153739, Note_off_c, 0, 67, 70
1, 153747, Note_off_c, 0, 63, 70
1, 153751, Note_off_c, 0, 82, 64
1, 153752, Note_off_c, 0, 79, 67
1, 153766, Note_off_c, 0, 55, 42
1, 153808, Note_on_c, 0, 67, 78
1, 153820, Note_on_c, 0, 63, 67
1, 153822, Note_on_c, 0, 58, 66
1, 153822, Note_on_c, 0, 82, 72
1, 153828, Note_off_c, 0, 67, 70
1, 153844, Note_off_c, 0, 63, 68
1, 153845, Note_off_c, 0, 58, 69
1, 153845, Note_off_c, 0, 82, 69
1, 153853, Note_on_c, 0, 79, 25
1, 153886, Note_off_c, 0, 79, 0
1, 153900, Note_on_c, 0, 67, 82
1, 153908, Note_on_c, 0, 58, 73
1, 153909, Note_on_c, 0, 55, 27
1, 153912, Note_on_c, 0, 63, 74
1, 153912, Note_on_c, 0, 79, 45
1, 153914, Note_on_c, 0, 82, 76
1, 153920, Note_off_c, 0, 67, 69
1, 153927, Note_off_c, 0, 58, 70
1, 153941, Note_off_c, 0, 55, 53
1, 153941, Note_off_c, 0, 63, 65
1, 153946, Note_off_c, 0, 79, 62
1, 153981, Note_on_c, 0, 86, 99
1, 153984, Note_on_c, 0, 74, 100
1, 153992, Note_on_c, 0, 67, 88
1, 153995, Note_off_c, 0, 82, 32
1, 154005, Note_on_c, 0, 58, 66
1, 154007, Note_on_c, 0, 63, 65
1, 154009, Note_off_c, 0, 67, 70
1, 154015, Note_on_c, 0, 55, 49
1, 154017, Note_on_c, 0, 76, 47
1, 154018, Note_off_c, 0, 76, 127
1, 154027, Note_off_c, 0, 58, 68
1, 154032, Note_off_c, 0, 74, 60
1, 154036, Note_off_c, 0, 63, 64
1, 154041, Note_off_c, 0, 55, 54
1, 154088, Note_on_c, 0, 80, 70
1, 154093, Note_on_c, 0, 67, 85
1, 154101, Note_on_c, 0, 82, 78
1, 154114, Note_on_c, 0, 58, 66
1, 154114, Note_on_c, 0, 63, 66
1, 154116, Note_off_c, 0, 67, 62
1, 154125, Note_off_c, 0, 80, 56
1, 154129, Note_off_c, 0, 86, 62
1, 154135, Note_off_c, 0, 63, 71
1, 154135, Note_off_c, 0, 82, 60
1, 154143, Note_off_c, 0, 58, 63
1, 154184, Note_on_c, 0, 67, 75
1, 154192, Note_on_c, 0, 79, 73
1, 154198, Note_on_c, 0, 82, 72
1, 154201, Note_on_c, 0, 63, 67
1, 154207, Note_on_c, 0, 58, 65
1, 154209, Note_off_c, 0, 67, 63
1, 154213, Note_on_c, 0, 55, 60
1, 154226, Note_off_c, 0, 63, 66
1, 154230, Note_off_c, 0, 58, 67
1, 154234, Note_off_c, 0, 55, 62
1, 154248, Note_off_c, 0, 79, 57
1, 154279, Note_off_c, 0, 82, 61
1, 154281, Control_c, 0, 64, 95
1, 154296, Control_c, 0, 64, 57
1, 154311, Control_c, 0, 64, 0
1, 154347, Note_on_c, 0, 55, 79
1, 154350, Note_on_c, 0, 85, 91
1, 154351, Note_on_c, 0, 73, 97
1, 154356, Note_on_c, 0, 43, 77
1, 154370, Control_c, 0, 64, 73
1, 154383, Note_off_c, 0, 43, 67
1, 154383, Note_off_c, 0, 55, 67
1, 154385, Control_c, 0, 64, 127
1, 154392, Note_off_c, 0, 73, 65
1, 154396, Note_off_c, 0, 85, 66
1, 154552, Note_on_c, 0, 70, 56
1, 154558, Note_on_c, 0, 67, 59
1, 154560, Note_on_c, 0, 58, 67
1, 154560, Note_on_c, 0, 64, 69
1, 154569, Note_on_c, 0, 61, 54
1, 154580, Note_off_c, 0, 70, 65
1, 154587, Note_off_c, 0, 64, 69
1, 154589, Note_off_c, 0, 67, 64
1, 154591, Note_off_c, 0, 58, 63
1, 154597, Note_off_c, 0, 61, 64
1, 154630, Note_on_c, 0, 55, 2
1, 154642, Note_on_c, 0, 70, 79
1, 154647, Note_on_c, 0, 64, 79
1, 154650, Note_on_c, 0, 58, 73
1, 154667, Note_on_c, 0, 61, 52
1, 154667, Note_off_c, 0, 64, 73
1, 154672, Note_on_c, 0, 67, 50
1, 154672, Note_off_c, 0, 70, 65
1, 154685, Note_off_c, 0, 58, 64
1, 154688, Note_off_c, 0, 55, 58
1, 154693, Note_off_c, 0, 67, 60
1, 154702, Note_off_c, 0, 61, 51
1, 154730, Poly_aftertouch_c, 0, 58, 0
1, 154731, Note_on_c, 0, 64, 86
1, 154737, Note_on_c, 0, 55, 38
1, 154737, Note_on_c, 0, 70, 74
1, 154737, Note_on_c, 0, 58, 57
1, 154741, Note_on_c, 0, 61, 56
1, 154752, Note_on_c, 0, 67, 45
1, 154754, Note_off_c, 0, 64, 68
1, 154757, Note_off_c, 0, 70, 71
1, 154765, Note_off_c, 0, 55, 57
1, 154765, Note_off_c, 0, 58, 61
1, 154769, Note_off_c, 0, 61, 64
1, 154774, Note_off_c, 0, 67, 60
1, 154815, Note_on_c, 0, 64, 82
1, 154836, Note_on_c, 0, 61, 74
1, 154839, Note_on_c, 0, 70, 77
1, 154842, Note_on_c, 0, 58, 72
1, 154845, Note_off_c, 0, 64, 68
1, 154848, Note_on_c, 0, 55, 65
1, 154857, Note_off_c, 0, 70, 73
1, 154859, Note_on_c, 0, 67, 45
1, 154869, Note_off_c, 0, 61, 65
1, 154875, Note_off_c, 0, 55, 65
1, 154879, Note_off_c, 0, 58, 64
1, 154898, Note_on_c, 0, 70, 93
1, 154931, Note_off_c, 0, 70, 63
1, 154948, Note_off_c, 0, 67, 33
1, 155017, Note_on_c, 0, 55, 94
1, 155018, Note_on_c, 0, 43, 81
1, 155021, Note_on_c, 0, 73, 109
1, 155021, Note_on_c, 0, 85, 102
1, 155036, Note_off_c, 0, 55, 71
1, 155040, Note_off_c, 0, 73, 67
1, 155044, Note_off_c, 0, 43, 66
1, 155047, Note_off_c, 0, 85, 63
1, 155125, Poly_aftertouch_c, 0, 46, 0
1, 155158, Note_on_c, 0, 70, 75
1, 155161, Note_on_c, 0, 58, 79
1, 155169, Note_on_c, 0, 61, 67
1, 155170, Note_on_c, 0, 64, 71
1, 155173, Note_on_c, 0, 67, 64
1, 155178, Note_off_c, 0, 70, 72
1, 155183, Note_off_c, 0, 58, 66
1, 155187, Note_off_c, 0, 64, 68
1, 155190, Note_off_c, 0, 67, 66
1, 155195, Note_off_c, 0, 61, 66
1, 155234, Note_on_c, 0, 70, 86
1, 155237, Note_on_c, 0, 64, 92
1, 155241, Note_on_c, 0, 55, 47
1, 155245, Note_on_c, 0, 61, 80
1, 155251, Note_on_c, 0, 58, 70
1, 155252, Note_off_c, 0, 64, 76
1, 155254, Note_off_c, 0, 70, 70
1, 155263, Note_off_c, 0, 55, 71
1, 155265, Note_off_c, 0, 61, 69
1, 155276, Note_off_c, 0, 58, 64
1, 155325, Note_on_c, 0, 73, 97
1, 155327, Note_on_c, 0, 85, 89
1, 155341, Note_off_c, 0, 73, 75
1, 155342, Note_off_c, 0, 85, 74
1, 155348, Note_on_c, 0, 82, 50
1, 155349, Note_off_c, 0, 82, 127
1, 155350, Note_on_c, 0, 43, 87
1, 155356, Note_on_c, 0, 55, 76
1, 155366, Note_on_c, 0, 53, 56
1, 155373, Note_off_c, 0, 43, 66
1, 155379, Note_off_c, 0, 55, 66
1, 155389, Note_off_c, 0, 53, 64
1, 155441, Note_on_c, 0, 70, 79
1, 155453, Note_on_c, 0, 67, 72
1, 155465, Note_off_c, 0, 70, 67
1, 155465, Note_on_c, 0, 58, 75
1, 155468, Note_on_c, 0, 64, 81
1, 155477, Note_off_c, 0, 67, 68
1, 155486, Note_off_c, 0, 58, 70
1, 155486, Note_on_c, 0, 53, 32
1, 155488, Note_off_c, 0, 64, 72
1, 155497, Note_on_c, 0, 61, 22
1, 155515, Note_off_c, 0, 53, 58
1, 155538, Note_on_c, 0, 70, 81
1, 155542, Note_on_c, 0, 64, 90
1, 155550, Note_off_c, 0, 61, 0
1, 155553, Note_on_c, 0, 58, 77
1, 155554, Note_on_c, 0, 55, 61
1, 155559, Note_off_c, 0, 64, 77
1, 155575, Note_off_c, 0, 70, 65
1, 155578, Note_off_c, 0, 55, 69
1, 155578, Note_on_c, 0, 61, 23
1, 155581, Note_off_c, 0, 58, 71
1, 155617, Control_c, 0, 64, 113
1, 155626, Note_off_c, 0, 61, 52
1, 155632, Control_c, 0, 64, 63
1, 155638, Poly_aftertouch_c, 0, 67, 0
1, 155647, Control_c, 0, 64, 0
1, 155676, Note_on_c, 0, 74, 113
1, 155679, Note_on_c, 0, 86, 97
1, 155681, Note_on_c, 0, 56, 99
1, 155685, Note_on_c, 0, 44, 86
1, 155691, Control_c, 0, 64, 48
1, 155700, Note_off_c, 0, 56, 70
1, 155704, Note_off_c, 0, 74, 69
1, 155706, Control_c, 0, 64, 127
1, 155708, Note_off_c, 0, 86, 66
1, 155712, Note_off_c, 0, 44, 69
1, 155727, Note_on_c, 0, 84, 26
1, 155728, Note_off_c, 0, 84, 127
1, 155737, Note_on_c, 0, 46, 38
1, 155738, Note_off_c, 0, 46, 127
1, 155788, Poly_aftertouch_c, 0, 46, 0
1, 155872, Note_on_c, 0, 65, 85
1, 155873, Note_on_c, 0, 68, 68
1, 155876, Note_on_c, 0, 56, 72
1, 155878, Note_on_c, 0, 71, 60
1, 155879, Note_on_c, 0, 59, 69
1, 155882, Note_on_c, 0, 62, 65
1, 155886, Note_on_c, 0, 78, 40
1, 155894, Note_off_c, 0, 65, 68
1, 155897, Note_off_c, 0, 68, 68
1, 155903, Note_off_c, 0, 56, 65
1, 155905, Note_off_c, 0, 59, 66
1, 155906, Note_off_c, 0, 71, 68
1, 155912, Note_off_c, 0, 62, 64
1, 155912, Note_off_c, 0, 78, 57
1, 155960, Note_on_c, 0, 56, 75
1, 155960, Note_on_c, 0, 68, 82
1, 155963, Note_on_c, 0, 71, 79
1, 155966, Note_on_c, 0, 65, 77
1, 155970, Note_on_c, 0, 59, 67
1, 155972, Note_on_c, 0, 62, 60
1, 155978, Note_off_c, 0, 56, 71
1, 155984, Note_off_c, 0, 71, 69
1, 155985, Note_off_c, 0, 68, 68
1, 155986, Note_off_c, 0, 65, 72
1, 155993, Note_off_c, 0, 59, 68
1, 155995, Note_off_c, 0, 62, 68
1, 156044, Note_on_c, 0, 71, 79
1, 156046, Note_on_c, 0, 65, 86
1, 156049, Note_on_c, 0, 68, 83
1, 156058, Note_on_c, 0, 59, 65
1, 156058, Note_on_c, 0, 62, 64
1, 156061, Note_on_c, 0, 56, 50
1, 156066, Note_off_c, 0, 65, 68
1, 156068, Note_off_c, 0, 71, 65
1, 156070, Note_off_c, 0, 68, 67
1, 156080, Note_off_c, 0, 56, 65
1, 156084, Note_off_c, 0, 59, 64
1, 156086, Note_off_c, 0, 62, 64
1, 156137, Note_on_c, 0, 65, 88
1, 156138, Note_on_c, 0, 68, 67
1, 156142, Note_on_c, 0, 56, 70
1, 156143, Note_on_c, 0, 71, 80
1, 156145, Note_on_c, 0, 59, 66
1, 156150, Note_on_c, 0, 62, 64
1, 156158, Note_off_c, 0, 68, 70
1, 156159, Note_off_c, 0, 71, 70
1, 156160, Note_off_c, 0, 65, 65
1, 156178, Note_off_c, 0, 59, 60
1, 156179, Note_off_c, 0, 56, 61
1, 156180, Note_off_c, 0, 62, 62
1, 156210, Note_on_c, 0, 71, 84
1, 156216, Note_on_c, 0, 68, 80
1, 156236, Note_on_c, 0, 65, 83
1, 156243, Note_on_c, 0, 56, 74
1, 156250, Note_off_c, 0, 65, 76
1, 156251, Note_off_c, 0, 68, 55
1, 156252, Note_on_c, 0, 59, 53
1, 156253, Note_on_c, 0, 62, 58
1, 156262, Note_off_c, 0, 71, 69
1, 156264, Note_off_c, 0, 56, 72
1, 156269, Note_off_c, 0, 62, 68
1, 156273, Note_off_c, 0, 59, 61
1, 156313, Control_c, 0, 64, 90
1, 156335, Control_c, 0, 64, 70
1, 156350, Control_c, 0, 64, 68
1, 156365, Control_c, 0, 64, 86
1, 156372, Note_on_c, 0, 74, 108
1, 156380, Control_c, 0, 64, 127
1, 156380, Note_on_c, 0, 54, 98
1, 156381, Note_on_c, 0, 86, 82
1, 156385, Note_on_c, 0, 42, 85
1, 156388, Note_on_c, 0, 84, 76
1, 156398, Note_off_c, 0, 54, 74
1, 156399, Note_off_c, 0, 86, 73
1, 156401, Note_off_c, 0, 74, 67
1, 156407, Note_off_c, 0, 84, 72
1, 156410, Note_off_c, 0, 42, 66
1, 156546, Note_on_c, 0, 62, 87
1, 156549, Note_on_c, 0, 56, 77
1, 156549, Note_on_c, 0, 65, 77
1, 156553, Note_on_c, 0, 67, 74
1, 156559, Note_on_c, 0, 59, 65
1, 156562, Note_on_c, 0, 53, 58
1, 156570, Note_off_c, 0, 62, 67
1, 156576, Note_off_c, 0, 67, 68
1, 156577, Note_off_c, 0, 65, 67
1, 156580, Note_off_c, 0, 56, 62
1, 156586, Note_off_c, 0, 59, 64
1, 156588, Note_off_c, 0, 53, 68
1, 156641, Note_on_c, 0, 62, 88
1, 156642, Note_on_c, 0, 65, 75
1, 156642, Note_on_c, 0, 68, 79
1, 156645, Note_on_c, 0, 56, 74
1, 156648, Note_on_c, 0, 59, 76
1, 156655, Note_on_c, 0, 53, 67
1, 156660, Note_off_c, 0, 62, 67
1, 156661, Note_off_c, 0, 65, 71
1, 156669, Note_off_c, 0, 59, 65
1, 156669, Note_off_c, 0, 68, 62
1, 156682, Note_off_c, 0, 53, 66
1, 156689, Note_off_c, 0, 56, 66
1, 156732, Note_on_c, 0, 62, 90
1, 156734, Note_on_c, 0, 68, 84
1, 156741, Note_on_c, 0, 65, 77
1, 156749, Note_on_c, 0, 56, 59
1, 156749, Note_on_c, 0, 59, 62
1, 156756, Note_off_c, 0, 62, 66
1, 156760, Note_off_c, 0, 65, 71
1, 156761, Note_off_c, 0, 68, 62
1, 156773, Note_on_c, 0, 53, 35
1, 156773, Note_off_c, 0, 59, 66
1, 156774, Note_off_c, 0, 56, 69
1, 156800, Note_off_c, 0, 53, 59
1, 156822, Note_on_c, 0, 62, 84
1, 156826, Note_on_c, 0, 68, 99
1, 156828, Note_on_c, 0, 65, 79
1, 156836, Note_on_c, 0, 56, 71
1, 156838, Note_on_c, 0, 59, 55
1, 156842, Note_on_c, 0, 53, 58
1, 156842, Note_off_c, 0, 62, 71
1, 156845, Note_off_c, 0, 65, 73
1, 156855, Note_off_c, 0, 59, 66
1, 156857, Note_off_c, 0, 56, 71
1, 156862, Note_off_c, 0, 68, 65
1, 156870, Note_off_c, 0, 53, 65
1, 156976, Note_on_c, 0, 68, 107
1, 156978, Note_on_c, 0, 80, 101
1, 156991, Note_on_c, 0, 44, 87
1, 156996, Note_on_c, 0, 46, 68
1, 156998, Note_on_c, 0, 32, 80
1, 157011, Note_on_c, 0, 78, 41
1, 157012, Note_off_c, 0, 78, 127
1, 157012, Note_off_c, 0, 68, 64
1, 157017, Note_off_c, 0, 44, 65
1, 157018, Note_off_c, 0, 46, 63
1, 157023, Note_off_c, 0, 32, 65
1, 157034, Note_off_c, 0, 80, 64
1, 157042, Note_on_c, 0, 45, 14
1, 157077, Poly_aftertouch_c, 0, 39, 0
1, 157098, Note_off_c, 0, 45, 40
1, 157115, Poly_aftertouch_c, 0, 39, 127
1, 157188, Control_c, 0, 64, 94
1, 157202, Note_on_c, 0, 45, 104
1, 157203, Control_c, 0, 64, 52
1, 157204, Note_on_c, 0, 69, 105
1, 157206, Note_on_c, 0, 81, 102
1, 157209, Note_on_c, 0, 33, 87
1, 157218, Control_c, 0, 64, 0
1, 157220, Poly_aftertouch_c, 0, 39, 0
1, 157235, Note_on_c, 0, 76, 49
1, 157247, Control_c, 0, 64, 52
1, 157261, Note_off_c, 0, 76, 54
1, 157262, Control_c, 0, 64, 75
1, 157277, Control_c, 0, 64, 124
1, 157288, Note_on_c, 0, 77, 3
1, 157292, Control_c, 0, 64, 127
1, 157301, Note_off_c, 0, 33, 58
1, 157316, Note_off_c, 0, 81, 57
1, 157333, Note_off_c, 0, 77, 48
1, 157338, Note_off_c, 0, 45, 65
1, 157339, Note_off_c, 0, 69, 54
1, 157480, Note_on_c, 0, 57, 88
1, 157483, Note_on_c, 0, 50, 70
1, 157488, Note_on_c, 0, 53, 67
1, 157495, Note_on_c, 0, 45, 65
1, 157504, Note_on_c, 0, 62, 77
1, 157510, Note_on_c, 0, 65, 63
1, 157514, Note_off_c, 0, 57, 60
1, 157519, Note_off_c, 0, 45, 68
1, 157524, Note_off_c, 0, 53, 64
1, 157530, Note_off_c, 0, 50, 62
1, 157533, Note_off_c, 0, 62, 63
1, 157535, Note_on_c, 0, 72, 23
1, 157541, Note_off_c, 0, 65, 64
1, 157584, Note_off_c, 0, 72, 43
1, 157591, Note_on_c, 0, 50, 70
1, 157591, Note_on_c, 0, 57, 84
1, 157598, Note_on_c, 0, 62, 72
1, 157601, Note_on_c, 0, 65, 77
1, 157602, Note_on_c, 0, 53, 72
1, 157609, Note_off_c, 0, 57, 72
1, 157623, Note_on_c, 0, 45, 36
1, 157626, Note_off_c, 0, 50, 67
1, 157627, Note_off_c, 0, 53, 68
1, 157629, Note_off_c, 0, 62, 63
1, 157629, Note_off_c, 0, 65, 59
1, 157646, Note_off_c, 0, 45, 60
1, 157673, Note_on_c, 0, 57, 84
1, 157679, Note_on_c, 0, 53, 77
1, 157684, Note_on_c, 0, 65, 80
1, 157685, Note_on_c, 0, 50, 68
1, 157686, Note_on_c, 0, 62, 77
1, 157706, Note_off_c, 0, 57, 58
1, 157713, Note_off_c, 0, 50, 69
1, 157713, Note_off_c, 0, 62, 65
1, 157723, Note_off_c, 0, 53, 66
1, 157728, Note_off_c, 0, 65, 63
1, 157764, Poly_aftertouch_c, 0, 65, 0
1, 157771, Note_on_c, 0, 57, 80
1, 157771, Note_on_c, 0, 65, 74
1, 157777, Note_on_c, 0, 53, 63
1, 157782, Note_on_c, 0, 62, 67
1, 157786, Note_on_c, 0, 50, 69
1, 157798, Note_off_c, 0, 57, 61
1, 157802, Note_off_c, 0, 62, 71
1, 157810, Note_off_c, 0, 53, 66
1, 157812, Note_off_c, 0, 50, 66
1, 157820, Note_off_c, 0, 65, 66
1, 157864, Note_on_c, 0, 65, 80
1, 157865, Note_on_c, 0, 57, 81
1, 157866, Note_on_c, 0, 62, 82
1, 157873, Note_on_c, 0, 53, 70
1, 157882, Note_on_c, 0, 50, 73
1, 157884, Note_off_c, 0, 57, 72
1, 157888, Note_off_c, 0, 62, 67
1, 157896, Note_on_c, 0, 45, 57
1, 157900, Note_off_c, 0, 53, 68
1, 157906, Note_off_c, 0, 50, 70
1, 157915, Note_off_c, 0, 65, 67
1, 157926, Note_off_c, 0, 45, 56
1, 157937, Control_c, 0, 64, 115
1, 157952, Control_c, 0, 64, 65
1, 157967, Control_c, 0, 64, 0
1, 157983, Note_on_c, 0, 71, 109
1, 157985, Note_on_c, 0, 47, 98
1, 157989, Note_on_c, 0, 45, 85
1, 157990, Note_on_c, 0, 83, 79
1, 157994, Note_on_c, 0, 81, 78
1, 157996, Control_c, 0, 64, 84
1, 158001, Note_on_c, 0, 33, 70
1, 158007, Note_off_c, 0, 83, 73
1, 158010, Note_off_c, 0, 45, 66
1, 158010, Note_off_c, 0, 71, 70
1, 158011, Note_off_c, 0, 47, 67
1, 158012, Note_on_c, 0, 35, 49
1, 158012, Control_c, 0, 64, 127
1, 158014, Note_off_c, 0, 81, 68
1, 158022, Note_on_c, 0, 37, 34
1, 158030, Note_off_c, 0, 33, 56
1, 158044, Note_off_c, 0, 35, 55
1, 158064, Note_off_c, 0, 37, 50
1, 158074, Poly_aftertouch_c, 0, 39, 0
1, 158106, Note_on_c, 0, 45, 2
1, 158121, Poly_aftertouch_c, 0, 39, 0
1, 158144, Note_on_c, 0, 57, 89
1, 158145, Note_on_c, 0, 64, 76
1, 158146, Note_on_c, 0, 49, 79
1, 158153, Note_on_c, 0, 61, 79
1, 158160, Note_on_c, 0, 52, 59
1, 158164, Note_off_c, 0, 57, 69
1, 158178, Note_off_c, 0, 61, 65
1, 158183, Note_off_c, 0, 49, 62
1, 158189, Note_off_c, 0, 64, 60
1, 158189, Note_off_c, 0, 52, 62
1, 158237, Note_on_c, 0, 61, 92
1, 158240, Note_on_c, 0, 57, 93
1, 158243, Note_on_c, 0, 64, 77
1, 158248, Note_on_c, 0, 49, 79
1, 158249, Note_off_c, 0, 45, 0
1, 158249, Note_on_c, 0, 53, 68
1, 158261, Note_off_c, 0, 57, 65
1, 158269, Note_on_c, 0, 45, 24
1, 158274, Note_off_c, 0, 61, 65
1, 158279, Note_off_c, 0, 49, 67
1, 158279, Note_off_c, 0, 53, 67
1, 158288, Note_off_c, 0, 64, 64
1, 158311, Note_off_c, 0, 45, 53
1, 158334, Poly_aftertouch_c, 0, 64, 0
1, 158342, Note_on_c, 0, 64, 79
1, 158346, Note_on_c, 0, 57, 87
1, 158348, Note_on_c, 0, 61, 89
1, 158354, Note_on_c, 0, 49, 80
1, 158358, Note_on_c, 0, 52, 58
1, 158371, Note_off_c, 0, 61, 63
1, 158378, Note_off_c, 0, 57, 55
1, 158383, Note_off_c, 0, 49, 67
1, 158392, Note_off_c, 0, 64, 65
1, 158396, Note_off_c, 0, 52, 61
1, 158438, Note_on_c, 0, 64, 72
1, 158439, Note_on_c, 0, 57, 85
1, 158444, Note_on_c, 0, 61, 84
1, 158449, Note_on_c, 0, 49, 80
1, 158453, Note_on_c, 0, 52, 71
1, 158453, Note_off_c, 0, 57, 75
1, 158454, Note_on_c, 0, 45, 51
1, 158465, Note_off_c, 0, 61, 66
1, 158476, Note_off_c, 0, 52, 66
1, 158488, Note_off_c, 0, 49, 58
1, 158488, Note_off_c, 0, 64, 67
1, 158489, Note_off_c, 0, 45, 62
1, 158596, Note_on_c, 0, 69, 100
1, 158597, Note_on_c, 0, 45, 91
1, 158598, Note_on_c, 0, 81, 101
1, 158608, Note_on_c, 0, 33, 74
1, 158608, Note_on_c, 0, 71, 79
1, 158623, Note_off_c, 0, 71, 42
1, 158624, Note_on_c, 0, 37, 54
1, 158624, Note_off_c, 0, 69, 66
1, 158629, Note_off_c, 0, 81, 64
1, 158636, Note_off_c, 0, 33, 64
1, 158637, Note_on_c, 0, 35, 43
1, 158638, Note_off_c, 0, 35, 127
1, 158657, Note_off_c, 0, 37, 57
1, 158665, Poly_aftertouch_c, 0, 35, 0
1, 158666, Note_off_c, 0, 45, 59
1, 158759, Poly_aftertouch_c, 0, 71, 0
1, 158850, Control_c, 0, 64, 99
1, 158865, Control_c, 0, 64, 57
1, 158868, Note_on_c, 0, 50, 108
1, 158876, Note_on_c, 0, 53, 95
1, 158876, Note_on_c, 0, 57, 85
1, 158877, Note_on_c, 0, 38, 86
1, 158878, Note_on_c, 0, 41, 77
1, 158878, Note_on_c, 0, 62, 92
1, 158879, Control_c, 0, 64, 0
1, 158881, Note_on_c, 0, 45, 69
1, 158918, Note_on_c, 0, 43, 31
1, 158918, Note_on_c, 0, 55, 30
1, 158919, Note_off_c, 0, 55, 127
1, 158953, Control_c, 0, 64, 109
1, 158968, Control_c, 0, 64, 127
1, 158974, Note_off_c, 0, 43, 43
1, 159000, Note_off_c, 0, 53, 56
1, 159007, Poly_aftertouch_c, 0, 59, 127
1, 159008, Note_on_c, 0, 59, 11
1, 159063, Note_off_c, 0, 59, 37
1, 159069, Note_off_c, 0, 57, 51
1, 159105, Note_off_c, 0, 62, 57
1, 159149, Note_off_c, 0, 38, 28
1, 159155, Note_off_c, 0, 45, 49
1, 159175, Note_off_c, 0, 41, 55
1, 159239, Note_off_c, 0, 50, 59
1, 159249, Note_on_c, 0, 65, 81
1, 159354, Note_off_c, 0, 65, 50
1, 159389, Note_on_c, 0, 77, 80
1, 159445, Note_off_c, 0, 77, 65
1, 159516, Note_on_c, 0, 77, 84
1, 159522, Note_on_c, 0, 53, 74
1, 159572, Note_off_c, 0, 77, 62
1, 159584, Note_off_c, 0, 53, 60
1, 159612, Note_on_c, 0, 89, 85
1, 159614, Note_on_c, 0, 65, 83
1, 159657, Note_off_c, 0, 89, 64
1, 159659, Note_off_c, 0, 65, 58
1, 159705, Note_on_c, 0, 53, 85
1, 159713, Note_on_c, 0, 89, 98
1, 159764, Note_off_c, 0, 89, 65
1, 159781, Note_off_c, 0, 53, 58
1, 159782, Note_on_c, 0, 65, 93
1, 159791, Note_on_c, 0, 101, 97
1, 159848, Note_off_c, 0, 65, 57
1, 159874, Note_off_c, 0, 101, 64
1, 159882, Note_on_c, 0, 89, 81
1, 159883, Note_on_c, 0, 53, 83
1, 159895, Note_on_c, 0, 91, 59
1, 159915, Note_off_c, 0, 91, 62
1, 159932, Note_off_c, 0, 89, 64
1, 159949, Note_on_c, 0, 56, 3
1, 159957, Note_on_c, 0, 65, 89
1, 159992, Note_on_c, 0, 91, 79
1, 159992, Note_off_c, 0, 53, 64
1, 159993, Note_off_c, 0, 65, 67
1, 160002, Note_off_c, 0, 56, 46
1, 160031, Note_off_c, 0, 91, 67
1, 160074, Note_on_c, 0, 62, 102
1, 160082, Note_on_c, 0, 79, 79
1, 160085, Note_on_c, 0, 50, 88
1, 160088, Note_on_c, 0, 53, 83
1, 160105, Note_off_c, 0, 79, 65
1, 160147, Poly_aftertouch_c, 0, 56, 127
1, 160182, Note_on_c, 0, 79, 84
1, 160183, Poly_aftertouch_c, 0, 56, 0
1, 160219, Note_off_c, 0, 79, 62
1, 160237, Note_off_c, 0, 50, 63
1, 160240, Note_off_c, 0, 62, 58
1, 160243, Note_off_c, 0, 53, 57
1, 160262, Note_on_c, 0, 67, 84
1, 160291, Note_off_c, 0, 67, 63
1, 160347, Control_c, 0, 64, 76
1, 160362, Control_c, 0, 64, 0
1, 160367, Note_on_c, 0, 63, 102
1, 160374, Note_on_c, 0, 54, 78
1, 160377, Note_on_c, 0, 66, 102
1, 160377, Note_on_c, 0, 78, 94
1, 160377, Note_on_c, 0, 51, 86
1, 160406, Control_c, 0, 64, 63
1, 160410, Note_off_c, 0, 66, 67
1, 160414, Note_off_c, 0, 78, 65
1, 160421, Control_c, 0, 64, 83
1, 160436, Control_c, 0, 64, 127
1, 160479, Note_off_c, 0, 63, 49
1, 160521, Note_on_c, 0, 66, 81
1, 160547, Note_on_c, 0, 65, 54
1, 160550, Note_off_c, 0, 66, 64
1, 160568, Note_off_c, 0, 65, 61
1, 160613, Note_on_c, 0, 66, 76
1, 160615, Note_on_c, 0, 65, 59
1, 160635, Note_off_c, 0, 66, 69
1, 160641, Note_off_c, 0, 65, 66
1, 160699, Note_on_c, 0, 66, 78
1, 160706, Note_on_c, 0, 65, 65
1, 160713, Note_off_c, 0, 66, 74
1, 160725, Note_off_c, 0, 65, 64
1, 160765, Note_off_c, 0, 51, 22
1, 160779, Note_on_c, 0, 66, 78
1, 160798, Note_off_c, 0, 66, 72
1, 160802, Note_on_c, 0, 65, 42
1, 160828, Note_off_c, 0, 54, 53
1, 160839, Note_off_c, 0, 65, 57
1, 160858, Note_on_c, 0, 66, 96
1, 160897, Note_off_c, 0, 66, 59
1, 160917, Control_c, 0, 64, 94
1, 160932, Control_c, 0, 64, 70
1, 160939, Note_on_c, 0, 60, 102
1, 160940, Note_on_c, 0, 54, 87
1, 160944, Note_on_c, 0, 66, 97
1, 160945, Note_on_c, 0, 78, 97
1, 160947, Control_c, 0, 64, 58
1, 160947, Note_on_c, 0, 48, 85
1, 160961, Control_c, 0, 64, 68
1, 160976, Control_c, 0, 64, 83
1, 160981, Note_off_c, 0, 66, 65
1, 160981, Note_off_c, 0, 78, 68
1, 160986, Note_off_c, 0, 48, 0
1, 160991, Control_c, 0, 64, 123
1, 161006, Control_c, 0, 64, 127
1, 161023, Poly_aftertouch_c, 0, 48, 127
1, 161051, Note_on_c, 0, 66, 81
1, 161072, Note_on_c, 0, 65, 59
1, 161081, Note_off_c, 0, 66, 62
1, 161094, Note_off_c, 0, 65, 62
1, 161146, Note_on_c, 0, 66, 71
1, 161149, Note_on_c, 0, 65, 45
1, 161149, Note_off_c, 0, 60, 45
1, 161166, Note_off_c, 0, 66, 71
1, 161175, Note_off_c, 0, 65, 58
1, 161222, Note_on_c, 0, 66, 88
1, 161232, Note_off_c, 0, 54, 35
1, 161242, Poly_aftertouch_c, 0, 48, 0
1, 161252, Note_off_c, 0, 66, 63
1, 161310, Note_on_c, 0, 66, 88
1, 161333, Note_off_c, 0, 66, 64
1, 161401, Note_on_c, 0, 75, 74
1, 161406, Note_on_c, 0, 66, 64
1, 161409, Note_on_c, 0, 77, 72
1, 161417, Note_off_c, 0, 75, 69
1, 161422, Note_off_c, 0, 66, 67
1, 161424, Note_off_c, 0, 77, 68
1, 161480, Poly_aftertouch_c, 0, 65, 127
1, 161481, Control_c, 0, 64, 81
1, 161483, Note_on_c, 0, 57, 102
1, 161486, Note_on_c, 0, 66, 88
1, 161492, Note_on_c, 0, 54, 78
1, 161494, Note_on_c, 0, 45, 84
1, 161496, Control_c, 0, 64, 0
1, 161497, Note_on_c, 0, 78, 93
1, 161498, Poly_aftertouch_c, 0, 65, 0
1, 161526, Control_c, 0, 64, 51
1, 161538, Note_on_c, 0, 73, 22
1, 161540, Control_c, 0, 64, 74
1, 161543, Note_on_c, 0, 67, 6
1, 161544, Note_off_c, 0, 67, 127
1, 161555, Control_c, 0, 64, 108
1, 161578, Control_c, 0, 64, 127
1, 161580, Note_off_c, 0, 66, 58
1, 161591, Note_off_c, 0, 45, 58
1, 161604, Note_off_c, 0, 78, 65
1, 161611, Poly_aftertouch_c, 0, 49, 0
1, 161611, Poly_aftertouch_c, 0, 67, 0
1, 161615, Note_off_c, 0, 73, 38
1, 161619, Note_off_c, 0, 54, 61
1, 161647, Note_on_c, 0, 65, 73
1, 161670, Note_off_c, 0, 57, 54
1, 161681, Note_on_c, 0, 73, 34
1, 161701, Note_off_c, 0, 65, 62
1, 161734, Note_on_c, 0, 77, 75
1, 161736, Note_off_c, 0, 73, 58
1, 161777, Note_off_c, 0, 77, 66
1, 161811, Note_on_c, 0, 53, 68
1, 161841, Note_on_c, 0, 77, 77
1, 161883, Note_off_c, 0, 77, 66
1, 161885, Note_off_c, 0, 53, 59
1, 161895, Note_on_c, 0, 65, 74
1, 161916, Note_on_c, 0, 89, 83
1, 161942, Note_off_c, 0, 65, 60
1, 161960, Note_off_c, 0, 89, 64
1, 161997, Note_on_c, 0, 53, 84
1, 162014, Note_on_c, 0, 89, 83
1, 162048, Note_on_c, 0, 54, 23
1, 162068, Note_off_c, 0, 89, 63
1, 162079, Note_off_c, 0, 53, 55
1, 162083, Note_on_c, 0, 65, 98
1, 162088, Note_off_c, 0, 54, 56
1, 162094, Note_on_c, 0, 101, 100
1, 162126, Note_on_c, 0, 99, 53
1, 162131, Note_off_c, 0, 65, 56
1, 162150, Note_off_c, 0, 99, 60
1, 162153, Note_off_c, 0, 101, 69
1, 162178, Note_on_c, 0, 53, 89
1, 162182, Note_on_c, 0, 89, 80
1, 162222, Note_off_c, 0, 89, 64
1, 162251, Note_on_c, 0, 65, 79
1, 162273, Note_off_c, 0, 53, 60
1, 162283, Note_off_c, 0, 65, 54
1, 162302, Note_on_c, 0, 89, 81
1, 162330, Note_off_c, 0, 89, 69
1, 162375, Note_on_c, 0, 77, 78
1, 162379, Note_on_c, 0, 62, 99
1, 162392, Note_on_c, 0, 50, 84
1, 162397, Note_off_c, 0, 77, 71
1, 162398, Note_on_c, 0, 52, 63
1, 162403, Note_on_c, 0, 53, 66
1, 162455, Poly_aftertouch_c, 0, 56, 127
1, 162479, Note_on_c, 0, 77, 84
1, 162485, Poly_aftertouch_c, 0, 56, 0
1, 162497, Note_off_c, 0, 50, 65
1, 162523, Note_off_c, 0, 77, 55
1, 162546, Note_on_c, 0, 65, 88
1, 162561, Note_off_c, 0, 62, 59
1, 162568, Note_off_c, 0, 53, 60
1, 162570, Note_off_c, 0, 52, 51
1, 162587, Note_off_c, 0, 65, 61
1, 162599, Note_on_c, 0, 73, 26
1, 162638, Note_off_c, 0, 73, 52
1, 162652, Control_c, 0, 64, 88
1, 162667, Control_c, 0, 64, 47
1, 162675, Note_on_c, 0, 63, 98
1, 162681, Note_on_c, 0, 54, 84
1, 162681, Control_c, 0, 64, 0
1, 162682, Note_on_c, 0, 66, 104
1, 162682, Note_on_c, 0, 78, 90
1, 162688, Note_on_c, 0, 51, 82
1, 162711, Control_c, 0, 64, 62
1, 162726, Control_c, 0, 64, 82
1, 162735, Note_off_c, 0, 66, 62
1, 162737, Note_off_c, 0, 78, 66
1, 162741, Control_c, 0, 64, 127
1, 162843, Note_on_c, 0, 66, 75
1, 162866, Note_off_c, 0, 63, 56
1, 162866, Note_off_c, 0, 66, 63
1, 162878, Note_on_c, 0, 65, 41
1, 162921, Note_off_c, 0, 65, 0
1, 162936, Note_on_c, 0, 65, 46
1, 162938, Note_on_c, 0, 66, 79
1, 162964, Note_off_c, 0, 66, 65
1, 162966, Note_off_c, 0, 65, 64
1, 163014, Note_on_c, 0, 66, 84
1, 163030, Note_off_c, 0, 66, 71
1, 163033, Note_on_c, 0, 65, 51
1, 163069, Note_off_c, 0, 65, 56
1, 163108, Note_on_c, 0, 66, 85
1, 163111, Note_off_c, 0, 51, 24
1, 163127, Note_off_c, 0, 66, 71
1, 163148, Note_on_c, 0, 65, 13
1, 163172, Note_off_c, 0, 54, 63
1, 163187, Note_off_c, 0, 65, 50
1, 163189, Note_on_c, 0, 66, 86
1, 163207, Note_off_c, 0, 66, 71
1, 163223, Control_c, 0, 64, 83
1, 163237, Control_c, 0, 64, 64
1, 163252, Control_c, 0, 64, 63
1, 163256, Note_on_c, 0, 60, 99
1, 163262, Note_on_c, 0, 48, 85
1, 163262, Note_on_c, 0, 54, 88
1, 163263, Note_on_c, 0, 78, 96
1, 163264, Note_on_c, 0, 66, 93
1, 163267, Control_c, 0, 64, 73
1, 163282, Control_c, 0, 64, 93
1, 163290, Note_on_c, 0, 59, 46
1, 163291, Note_off_c, 0, 59, 127
1, 163295, Note_off_c, 0, 66, 64
1, 163297, Control_c, 0, 64, 127
1, 163300, Note_off_c, 0, 78, 68
1, 163340, Poly_aftertouch_c, 0, 51, 127
1, 163370, Poly_aftertouch_c, 0, 51, 0
1, 163373, Note_on_c, 0, 66, 82
1, 163393, Note_off_c, 0, 66, 66
1, 163418, Note_on_c, 0, 65, 25
1, 163444, Note_off_c, 0, 60, 22
1, 163460, Note_on_c, 0, 66, 72
1, 163486, Note_off_c, 0, 66, 65
1, 163488, Note_off_c, 0, 65, 62
1, 163531, Note_off_c, 0, 48, 35
1, 163540, Note_on_c, 0, 66, 85
1, 163559, Note_off_c, 0, 54, 55
1, 163570, Note_off_c, 0, 66, 58
1, 163623, Note_on_c, 0, 66, 85
1, 163660, Note_off_c, 0, 66, 60
1, 163714, Note_on_c, 0, 66, 81
1, 163719, Note_on_c, 0, 78, 89
1, 163734, Note_off_c, 0, 66, 70
1, 163760, Note_off_c, 0, 78, 66
1, 163802, Control_c, 0, 64, 85
1, 163823, Control_c, 0, 64, 53
1, 163825, Note_on_c, 0, 57, 95
1, 163832, Note_on_c, 0, 45, 83
1, 163835, Note_on_c, 0, 54, 75
1, 163838, Note_on_c, 0, 65, 96
1, 163838, Control_c, 0, 64, 0
1, 163868, Control_c, 0, 64, 63
1, 163883, Control_c, 0, 64, 104
1, 163898, Control_c, 0, 64, 127
1, 163935, Note_off_c, 0, 65, 59
1, 163937, Note_off_c, 0, 45, 52
1, 163965, Note_off_c, 0, 54, 58
1, 163966, Note_on_c, 0, 77, 80
1, 164014, Note_off_c, 0, 77, 66
1, 164044, Note_off_c, 0, 57, 52
1, 164097, Note_on_c, 0, 77, 69
1, 164142, Note_off_c, 0, 77, 47
1, 164178, Note_on_c, 0, 89, 86
1, 164192, Note_on_c, 0, 53, 74
1, 164223, Note_off_c, 0, 89, 64
1, 164243, Note_off_c, 0, 53, 62
1, 164277, Note_on_c, 0, 65, 81
1, 164282, Note_on_c, 0, 89, 91
1, 164321, Note_off_c, 0, 65, 61
1, 164329, Note_off_c, 0, 89, 64
1, 164360, Note_on_c, 0, 103, 94
1, 164366, Note_on_c, 0, 101, 86
1, 164377, Note_on_c, 0, 53, 85
1, 164398, Note_off_c, 0, 103, 67
1, 164410, Note_off_c, 0, 101, 68
1, 164434, Note_on_c, 0, 89, 84
1, 164446, Note_on_c, 0, 65, 84
1, 164458, Note_off_c, 0, 53, 59
1, 164478, Note_off_c, 0, 89, 61
1, 164497, Note_off_c, 0, 65, 58
1, 164551, Note_on_c, 0, 53, 74
1, 164551, Note_on_c, 0, 91, 71
1, 164573, Note_off_c, 0, 91, 68
1, 164619, Note_off_c, 0, 53, 59
1, 164633, Note_on_c, 0, 77, 74
1, 164634, Note_on_c, 0, 65, 67
1, 164656, Note_off_c, 0, 77, 69
1, 164691, Note_off_c, 0, 65, 61
1, 164733, Note_on_c, 0, 53, 64
1, 164734, Note_on_c, 0, 77, 69
1, 164763, Note_off_c, 0, 53, 65
1, 164795, Note_off_c, 0, 77, 59
1, 164834, Note_on_c, 0, 65, 61
1, 164885, Note_off_c, 0, 65, 54
1, 164947, Note_on_c, 0, 77, 60
1, 165003, Control_c, 0, 64, 103
1, 165017, Control_c, 0, 64, 70
1, 165030, Note_off_c, 0, 77, 61
1, 165032, Control_c, 0, 64, 0
1, 165035, Note_on_c, 0, 50, 50
1, 165036, Note_on_c, 0, 53, 58
1, 165042, Note_on_c, 0, 47, 47
1, 165053, Note_on_c, 0, 65, 66
1, 165077, Control_c, 0, 64, 67
1, 165093, Control_c, 0, 64, 88
1, 165107, Control_c, 0, 64, 127
1, 165113, Note_off_c, 0, 65, 62
1, 165157, Note_on_c, 0, 74, 64
1, 165162, Note_on_c, 0, 77, 60
1, 165183, Note_off_c, 0, 74, 67
1, 165189, Note_off_c, 0, 77, 66
1, 165249, Note_on_c, 0, 77, 75
1, 165309, Note_off_c, 0, 77, 61
1, 165335, Note_on_c, 0, 89, 78
1, 165336, Note_on_c, 0, 86, 74
1, 165366, Note_off_c, 0, 53, 56
1, 165377, Note_off_c, 0, 89, 57
1, 165385, Note_off_c, 0, 86, 58
1, 165412, Note_on_c, 0, 77, 83
1, 165436, Note_off_c, 0, 77, 66
1, 165463, Note_off_c, 0, 50, 39
1, 165502, Note_off_c, 0, 47, 30
1, 165514, Note_on_c, 0, 74, 73
1, 165516, Note_on_c, 0, 77, 66
1, 165540, Note_off_c, 0, 77, 67
1, 165544, Note_off_c, 0, 74, 60
1, 165603, Note_on_c, 0, 66, 94
1, 165603, Control_c, 0, 64, 91
1, 165606, Note_on_c, 0, 54, 104
1, 165614, Note_on_c, 0, 48, 74
1, 165616, Note_on_c, 0, 50, 64
1, 165618, Control_c, 0, 64, 66
1, 165633, Control_c, 0, 64, 50
1, 165641, Note_on_c, 0, 65, 41
1, 165642, Note_off_c, 0, 65, 127
1, 165647, Control_c, 0, 64, 68
1, 165660, Note_off_c, 0, 66, 59
1, 165662, Control_c, 0, 64, 86
1, 165677, Control_c, 0, 64, 127
1, 165710, Note_on_c, 0, 78, 79
1, 165714, Note_on_c, 0, 74, 36
1, 165738, Note_off_c, 0, 78, 63
1, 165747, Note_off_c, 0, 74, 53
1, 165763, Note_off_c, 0, 54, 59
1, 165809, Note_on_c, 0, 78, 94
1, 165857, Note_off_c, 0, 78, 60
1, 165887, Note_on_c, 0, 90, 87
1, 165901, Note_on_c, 0, 86, 68
1, 165907, Note_on_c, 0, 87, 52
1, 165928, Note_off_c, 0, 87, 63
1, 165947, Note_off_c, 0, 86, 59
1, 165959, Note_off_c, 0, 50, 22
1, 165969, Note_off_c, 0, 90, 65
1, 165991, Note_on_c, 0, 78, 73
1, 166002, Note_on_c, 0, 54, 96
1, 166005, Note_off_c, 0, 78, 68
1, 166006, Note_off_c, 0, 48, 0
1, 166024, Note_on_c, 0, 76, 56
1, 166030, Poly_aftertouch_c, 0, 48, 0
1, 166047, Note_off_c, 0, 76, 61
1, 166089, Note_off_c, 0, 54, 55
1, 166098, Note_on_c, 0, 78, 62
1, 166107, Note_on_c, 0, 74, 73
1, 166164, Note_off_c, 0, 74, 63
1, 166175, Control_c, 0, 64, 80
1, 166177, Note_on_c, 0, 55, 102
1, 166184, Note_on_c, 0, 50, 75
1, 166189, Note_off_c, 0, 78, 64
1, 166190, Note_on_c, 0, 46, 80
1, 166190, Control_c, 0, 64, 52
1, 166197, Note_on_c, 0, 67, 84
1, 166205, Control_c, 0, 64, 59
1, 166219, Control_c, 0, 64, 74
1, 166234, Control_c, 0, 64, 97
1, 166248, Control_c, 0, 64, 127
1, 166252, Note_off_c, 0, 67, 58
1, 166255, Note_off_c, 0, 55, 62
1, 166268, Note_off_c, 0, 50, 64
1, 166286, Poly_aftertouch_c, 0, 49, 0
1, 166295, Note_off_c, 0, 46, 61
1, 166303, Note_on_c, 0, 79, 61
1, 166322, Note_off_c, 0, 79, 65
1, 166375, Poly_aftertouch_c, 0, 74, 0
1, 166380, Note_on_c, 0, 79, 92
1, 166425, Note_off_c, 0, 79, 62
1, 166464, Note_on_c, 0, 86, 86
1, 166466, Note_on_c, 0, 91, 92
1, 166472, Poly_aftertouch_c, 0, 42, 127
1, 166491, Note_on_c, 0, 36, 80
1, 166522, Note_on_c, 0, 43, 57
1, 166527, Note_off_c, 0, 86, 61
1, 166529, Note_off_c, 0, 91, 65
1, 166535, Poly_aftertouch_c, 0, 42, 0
1, 166557, Note_on_c, 0, 79, 87
1, 166570, Note_on_c, 0, 45, 72
1, 166588, Note_off_c, 0, 36, 60
1, 166593, Note_off_c, 0, 79, 67
1, 166652, Note_on_c, 0, 79, 85
1, 166656, Note_on_c, 0, 74, 79
1, 166682, Note_off_c, 0, 74, 68
1, 166694, Note_on_c, 0, 41, 34
1, 166698, Note_off_c, 0, 79, 62
1, 166734, Note_off_c, 0, 41, 48
1, 166767, Control_c, 0, 64, 114
1, 166780, Note_on_c, 0, 51, 108
1, 166782, Control_c, 0, 64, 81
1, 166797, Control_c, 0, 64, 64
1, 166818, Note_on_c, 0, 44, 44
1, 166819, Control_c, 0, 64, 65
1, 166834, Note_on_c, 0, 63, 93
1, 166834, Control_c, 0, 64, 77
1, 166835, Note_on_c, 0, 46, 33
1, 166849, Control_c, 0, 64, 109
1, 166864, Control_c, 0, 64, 127
1, 166872, Note_on_c, 0, 73, 37
1, 166888, Note_off_c, 0, 63, 61
1, 166905, Note_off_c, 0, 73, 53
1, 166908, Note_off_c, 0, 43, 53
1, 166927, Note_off_c, 0, 51, 58
1, 166936, Note_off_c, 0, 45, 34
1, 166941, Note_off_c, 0, 44, 42
1, 166947, Note_off_c, 0, 46, 27
1, 166956, Note_on_c, 0, 67, 57
1, 166965, Note_on_c, 0, 69, 58
1, 166965, Note_on_c, 0, 75, 80
1, 166977, Note_off_c, 0, 67, 61
1, 166985, Note_off_c, 0, 69, 63
1, 167006, Note_off_c, 0, 75, 64
1, 167074, Note_on_c, 0, 75, 93
1, 167116, Note_off_c, 0, 75, 64
1, 167138, Note_on_c, 0, 63, 96
1, 167153, Note_on_c, 0, 55, 70
1, 167159, Note_on_c, 0, 57, 55
1, 167164, Note_on_c, 0, 79, 77
1, 167164, Note_on_c, 0, 81, 77
1, 167164, Note_on_c, 0, 87, 91
1, 167175, Note_off_c, 0, 63, 58
1, 167189, Note_off_c, 0, 55, 66
1, 167189, Note_off_c, 0, 57, 64
1, 167209, Note_off_c, 0, 79, 56
1, 167213, Note_off_c, 0, 81, 61
1, 167228, Note_off_c, 0, 87, 67
1, 167245, Note_on_c, 0, 75, 91
1, 167269, Note_off_c, 0, 75, 57
1, 167326, Note_on_c, 0, 44, 38
1, 167359, Note_on_c, 0, 69, 77
1, 167361, Note_on_c, 0, 75, 79
1, 167364, Note_off_c, 0, 44, 58
1, 167379, Note_on_c, 0, 67, 51
1, 167415, Note_off_c, 0, 75, 66
1, 167421, Note_on_c, 0, 50, 105
1, 167423, Note_off_c, 0, 67, 42
1, 167426, Control_c, 0, 64, 98
1, 167428, Note_off_c, 0, 69, 57
1, 167429, Note_on_c, 0, 43, 75
1, 167430, Note_on_c, 0, 46, 84
1, 167431, Note_on_c, 0, 62, 97
1, 167434, Note_on_c, 0, 38, 78
1, 167441, Control_c, 0, 64, 73
1, 167456, Control_c, 0, 64, 58
1, 167471, Control_c, 0, 64, 65
1, 167487, Note_off_c, 0, 38, 60
1, 167487, Control_c, 0, 64, 84
1, 167499, Note_off_c, 0, 62, 58
1, 167501, Note_off_c, 0, 43, 63
1, 167501, Control_c, 0, 64, 127
1, 167515, Note_off_c, 0, 46, 64
1, 167521, Note_off_c, 0, 50, 64
1, 167532, Note_on_c, 0, 67, 71
1, 167541, Note_on_c, 0, 70, 70
1, 167547, Note_on_c, 0, 74, 77
1, 167566, Note_off_c, 0, 67, 66
1, 167574, Note_off_c, 0, 70, 69
1, 167584, Note_off_c, 0, 74, 66
1, 167675, Note_on_c, 0, 76, 67
1, 167678, Note_on_c, 0, 74, 54
1, 167703, Note_off_c, 0, 74, 60
1, 167718, Note_on_c, 0, 62, 101
1, 167718, Note_off_c, 0, 76, 52
1, 167730, Note_on_c, 0, 55, 70
1, 167731, Note_on_c, 0, 58, 83
1, 167733, Note_on_c, 0, 50, 79
1, 167736, Note_on_c, 0, 79, 82
1, 167743, Note_on_c, 0, 86, 84
1, 167743, Note_on_c, 0, 82, 89
1, 167749, Note_off_c, 0, 62, 68
1, 167760, Note_off_c, 0, 55, 65
1, 167767, Note_off_c, 0, 58, 59
1, 167782, Note_off_c, 0, 79, 59
1, 167783, Note_off_c, 0, 50, 65
1, 167796, Note_off_c, 0, 86, 65
1, 167812, Note_off_c, 0, 82, 63
1, 167832, Note_on_c, 0, 74, 78
1, 167859, Note_off_c, 0, 74, 68
1, 167917, Note_on_c, 0, 46, 27
1, 167937, Note_on_c, 0, 67, 68
1, 167940, Note_on_c, 0, 70, 72
1, 167944, Note_on_c, 0, 74, 66
1, 167947, Note_off_c, 0, 46, 56
1, 167952, Poly_aftertouch_c, 0, 42, 127
1, 167967, Note_off_c, 0, 67, 65
1, 167987, Poly_aftertouch_c, 0, 42, 0
1, 168003, Note_off_c, 0, 74, 61
1, 168010, Note_on_c, 0, 45, 74
1, 168010, Note_on_c, 0, 50, 103
1, 168013, Control_c, 0, 64, 100
1, 168016, Note_on_c, 0, 42, 72
1, 168020, Note_on_c, 0, 38, 88
1, 168021, Note_on_c, 0, 62, 92
1, 168027, Control_c, 0, 64, 70
1, 168042, Control_c, 0, 64, 0
1, 168057, Control_c, 0, 64, 61
1, 168061, Note_off_c, 0, 70, 61
1, 168072, Control_c, 0, 64, 76
1, 168087, Control_c, 0, 64, 104
1, 168096, Note_off_c, 0, 38, 59
1, 168101, Control_c, 0, 64, 127
1, 168127, Note_off_c, 0, 62, 54
1, 168131, Note_on_c, 0, 66, 77
1, 168131, Note_off_c, 0, 45, 63
1, 168134, Note_on_c, 0, 69, 73
1, 168137, Note_off_c, 0, 50, 66
1, 168138, Note_off_c, 0, 42, 62
1, 168147, Note_on_c, 0, 74, 80
1, 168162, Note_off_c, 0, 66, 62
1, 168165, Note_off_c, 0, 69, 61
1, 168186, Note_off_c, 0, 74, 67
1, 168278, Note_on_c, 0, 76, 84
1, 168345, Note_on_c, 0, 58, 21
1, 168354, Note_off_c, 0, 76, 61
1, 168390, Note_on_c, 0, 78, 97
1, 168392, Note_on_c, 0, 81, 93
1, 168393, Note_on_c, 0, 86, 95
1, 168399, Note_on_c, 0, 62, 103
1, 168408, Note_on_c, 0, 50, 85
1, 168410, Note_on_c, 0, 54, 83
1, 168412, Note_on_c, 0, 57, 74
1, 168438, Note_off_c, 0, 57, 60
1, 168446, Note_off_c, 0, 58, 32
1, 168449, Note_off_c, 0, 62, 50
1, 168470, Note_off_c, 0, 50, 62
1, 168472, Note_off_c, 0, 54, 67
1, 168482, Note_off_c, 0, 86, 61
1, 168496, Note_off_c, 0, 81, 60
1, 168497, Note_off_c, 0, 78, 62
1, 168521, Note_on_c, 0, 74, 97
1, 168561, Note_off_c, 0, 74, 68
1, 168648, Note_on_c, 0, 74, 80
1, 168649, Note_on_c, 0, 65, 82
1, 168664, Note_on_c, 0, 72, 72
1, 168671, Note_on_c, 0, 68, 42
1, 168676, Note_on_c, 0, 69, 50
1, 168685, Note_on_c, 0, 67, 46
1, 168691, Note_on_c, 0, 70, 38
1, 168699, Note_off_c, 0, 69, 60
1, 168703, Note_off_c, 0, 74, 61
1, 168711, Note_off_c, 0, 67, 57
1, 168721, Note_off_c, 0, 70, 54
1, 168727, Note_off_c, 0, 68, 58
1, 168736, Note_off_c, 0, 65, 64
1, 168764, Note_off_c, 0, 72, 25
1, 168858, Note_on_c, 0, 55, 97
1, 168863, Note_on_c, 0, 43, 99
1, 168867, Note_on_c, 0, 67, 83
1, 168874, Note_on_c, 0, 31, 81
1, 168875, Note_on_c, 0, 65, 78
1, 168880, Control_c, 0, 64, 84
1, 168895, Control_c, 0, 64, 0
1, 168903, Note_on_c, 0, 33, 49
1, 168919, Note_off_c, 0, 65, 0
1, 168919, Note_on_c, 0, 65, 34
1, 168954, Control_c, 0, 64, 11
1, 168968, Note_off_c, 0, 65, 0
1, 168968, Note_on_c, 0, 65, 4
1, 168969, Control_c, 0, 64, 70
1, 168971, Note_on_c, 0, 64, 27
1, 168983, Control_c, 0, 64, 92
1, 168998, Control_c, 0, 64, 127
1, 169108, Note_off_c, 0, 33, 14
1, 169147, Note_off_c, 0, 43, 58
1, 169154, Note_off_c, 0, 55, 45
1, 169161, Note_off_c, 0, 31, 36
1, 169168, Note_off_c, 0, 67, 53
1, 169195, Note_off_c, 0, 64, 36
1, 169195, Note_off_c, 0, 65, 42
1, 169277, Note_on_c, 0, 43, 86
1, 169277, Note_on_c, 0, 55, 89
1, 169279, Note_on_c, 0, 67, 81
1, 169281, Note_on_c, 0, 31, 70
1, 169353, Note_on_c, 0, 64, 8
1, 169401, Poly_aftertouch_c, 0, 57, 0
1, 169403, Note_off_c, 0, 43, 57
1, 169405, Note_off_c, 0, 31, 58
1, 169413, Note_off_c, 0, 67, 58
1, 169418, Note_off_c, 0, 55, 60
1, 169427, Note_off_c, 0, 64, 43
1, 169466, Control_c, 0, 64, 119
1, 169481, Control_c, 0, 64, 82
1, 169491, Note_on_c, 0, 43, 95
1, 169494, Note_on_c, 0, 55, 96
1, 169496, Control_c, 0, 64, 69
1, 169498, Note_on_c, 0, 67, 89
1, 169506, Note_on_c, 0, 31, 79
1, 169511, Control_c, 0, 64, 70
1, 169526, Control_c, 0, 64, 80
1, 169541, Control_c, 0, 64, 96
1, 169555, Control_c, 0, 64, 127
1, 169564, Note_on_c, 0, 64, 21
1, 169596, Note_off_c, 0, 55, 58
1, 169596, Note_off_c, 0, 67, 60
1, 169602, Note_off_c, 0, 31, 54
1, 169604, Note_off_c, 0, 43, 59
1, 169611, Note_off_c, 0, 64, 52
1, 169673, Note_on_c, 0, 55, 87
1, 169676, Note_on_c, 0, 43, 72
1, 169679, Note_on_c, 0, 67, 78
1, 169689, Note_on_c, 0, 31, 56
1, 169718, Note_off_c, 0, 43, 50
1, 169722, Note_off_c, 0, 31, 61
1, 169723, Note_off_c, 0, 55, 60
1, 169736, Note_off_c, 0, 67, 57
1, 169777, Control_c, 0, 64, 96
1, 169792, Control_c, 0, 64, 72
1, 169813, Note_on_c, 0, 31, 71
1, 169813, Note_on_c, 0, 43, 89
1, 169814, Note_on_c, 0, 55, 96
1, 169814, Control_c, 0, 64, 45
1, 169815, Note_on_c, 0, 67, 82
1, 169829, Control_c, 0, 64, 58
1, 169844, Control_c, 0, 64, 72
1, 169845, Note_on_c, 0, 62, 46
1, 169859, Control_c, 0, 64, 92
1, 169865, Note_off_c, 0, 31, 57
1, 169865, Note_off_c, 0, 43, 61
1, 169874, Control_c, 0, 64, 127
1, 169875, Note_on_c, 0, 64, 36
1, 169878, Note_off_c, 0, 55, 62
1, 169880, Note_off_c, 0, 67, 60
1, 169911, Note_off_c, 0, 64, 51
1, 169972, Note_on_c, 0, 55, 80
1, 169973, Note_on_c, 0, 43, 69
1, 169979, Note_off_c, 0, 62, 0
1, 169988, Note_on_c, 0, 31, 52
1, 169995, Note_off_c, 0, 55, 60
1, 170007, Note_off_c, 0, 43, 61
1, 170013, Note_off_c, 0, 31, 59
1, 170014, Note_on_c, 0, 67, 26
1, 170017, Poly_aftertouch_c, 0, 62, 127
1, 170052, Control_c, 0, 64, 98
1, 170055, Note_off_c, 0, 67, 47
1, 170067, Poly_aftertouch_c, 0, 62, 0
1, 170067, Control_c, 0, 64, 79
1, 170081, Note_on_c, 0, 67, 75
1, 170082, Note_on_c, 0, 43, 97
1, 170082, Control_c, 0, 64, 67
1, 170085, Note_on_c, 0, 55, 97
1, 170086, Note_on_c, 0, 31, 72
1, 170097, Control_c, 0, 64, 70
1, 170108, Note_on_c, 0, 57, 54
1, 170109, Note_off_c, 0, 57, 127
1, 170111, Control_c, 0, 64, 91
1, 170118, Note_on_c, 0, 62, 25
1, 170122, Note_on_c, 0, 64, 43
1, 170126, Control_c, 0, 64, 127
1, 170131, Note_off_c, 0, 43, 62
1, 170132, Note_off_c, 0, 31, 55
1, 170139, Note_off_c, 0, 67, 62
1, 170141, Note_off_c, 0, 55, 60
1, 170155, Note_off_c, 0, 64, 56
1, 170194, Note_off_c, 0, 62, 34
1, 170229, Note_on_c, 0, 43, 77
1, 170232, Note_on_c, 0, 31, 59
1, 170238, Note_on_c, 0, 55, 75
1, 170260, Note_off_c, 0, 43, 62
1, 170260, Note_off_c, 0, 55, 66
1, 170260, Note_off_c, 0, 31, 64
1, 170304, Control_c, 0, 64, 114
1, 170319, Control_c, 0, 64, 80
1, 170333, Control_c, 0, 64, 29
1, 170338, Note_on_c, 0, 31, 67
1, 170343, Note_on_c, 0, 43, 94
1, 170348, Control_c, 0, 64, 0
1, 170349, Note_on_c, 0, 67, 67
1, 170354, Note_on_c, 0, 55, 102
1, 170369, Note_off_c, 0, 31, 63
1, 170372, Note_off_c, 0, 67, 61
1, 170378, Control_c, 0, 64, 61
1, 170392, Note_off_c, 0, 43, 67
1, 170393, Control_c, 0, 64, 76
1, 170408, Control_c, 0, 64, 99
1, 170415, Note_off_c, 0, 55, 61
1, 170422, Control_c, 0, 64, 127
1, 170462, Poly_aftertouch_c, 0, 62, 127
1, 170485, Note_on_c, 0, 67, 53
1, 170487, Note_on_c, 0, 45, 77
1, 170523, Poly_aftertouch_c, 0, 64, 127
1, 170542, Note_off_c, 0, 67, 58
1, 170554, Note_on_c, 0, 55, 75
1, 170570, Note_on_c, 0, 46, 78
1, 170584, Poly_aftertouch_c, 0, 64, 0
1, 170599, Note_off_c, 0, 45, 64
1, 170609, Note_off_c, 0, 55, 59
1, 170641, Note_on_c, 0, 48, 81
1, 170650, Note_off_c, 0, 46, 63
1, 170658, Note_on_c, 0, 67, 74
1, 170712, Note_off_c, 0, 48, 61
1, 170726, Note_on_c, 0, 50, 87
1, 170728, Note_off_c, 0, 67, 59
1, 170731, Poly_aftertouch_c, 0, 62, 0
1, 170734, Note_on_c, 0, 55, 81
1, 170769, Poly_aftertouch_c, 0, 62, 127
1, 170782, Note_off_c, 0, 50, 65
1, 170788, Note_off_c, 0, 55, 55
1, 170796, Note_on_c, 0, 51, 87
1, 170801, Control_c, 0, 64, 103
1, 170816, Control_c, 0, 64, 55
1, 170821, Note_off_c, 0, 51, 69
1, 170831, Note_on_c, 0, 67, 77
1, 170831, Control_c, 0, 64, 0
1, 170875, Control_c, 0, 64, 46
1, 170884, Note_on_c, 0, 50, 96
1, 170890, Control_c, 0, 64, 80
1, 170897, Note_on_c, 0, 38, 81
1, 170897, Note_off_c, 0, 67, 61
1, 170899, Note_on_c, 0, 55, 93
1, 170905, Control_c, 0, 64, 127
1, 170909, Note_on_c, 0, 43, 54
1, 170910, Note_off_c, 0, 43, 127
1, 170911, Note_off_c, 0, 50, 67
1, 170921, Note_off_c, 0, 38, 66
1, 170942, Note_off_c, 0, 55, 63
1, 170996, Note_on_c, 0, 67, 75
1, 171070, Note_off_c, 0, 67, 57
1, 171082, Control_c, 0, 64, 91
1, 171086, Note_on_c, 0, 55, 77
1, 171097, Control_c, 0, 64, 62
1, 171112, Control_c, 0, 64, 0
1, 171132, Note_off_c, 0, 55, 55
1, 171158, Note_on_c, 0, 46, 104
1, 171171, Note_on_c, 0, 34, 84
1, 171171, Control_c, 0, 64, 69
1, 171174, Note_on_c, 0, 67, 79
1, 171181, Note_off_c, 0, 46, 66
1, 171186, Control_c, 0, 64, 122
1, 171186, Note_on_c, 0, 37, 52
1, 171187, Note_off_c, 0, 37, 127
1, 171194, Note_on_c, 0, 42, 42
1, 171195, Note_off_c, 0, 42, 127
1, 171197, Note_off_c, 0, 34, 63
1, 171201, Note_on_c, 0, 39, 28
1, 171202, Note_off_c, 0, 39, 127
1, 171202, Control_c, 0, 64, 127
1, 171224, Poly_aftertouch_c, 0, 42, 0
1, 171238, Poly_aftertouch_c, 0, 39, 0
1, 171238, Poly_aftertouch_c, 0, 64, 127
1, 171255, Note_on_c, 0, 55, 78
1, 171274, Poly_aftertouch_c, 0, 64, 0
1, 171311, Note_off_c, 0, 55, 57
1, 171317, Note_off_c, 0, 67, 0
1, 171328, Note_on_c, 0, 67, 55
1, 171366, Poly_aftertouch_c, 0, 62, 0
1, 171385, Note_off_c, 0, 67, 62
1, 171386, Control_c, 0, 64, 80
1, 171401, Control_c, 0, 64, 0
1, 171439, Note_on_c, 0, 43, 100
1, 171445, Note_on_c, 0, 62, 81
1, 171448, Note_on_c, 0, 67, 82
1, 171449, Note_on_c, 0, 31, 81
1, 171449, Note_on_c, 0, 55, 81
1, 171454, Note_on_c, 0, 38, 65
1, 171470, Note_on_c, 0, 57, 54
1, 171483, Note_off_c, 0, 55, 60
1, 171490, Note_off_c, 0, 43, 56
1, 171490, Control_c, 0, 64, 87
1, 171496, Note_off_c, 0, 57, 36
1, 171505, Control_c, 0, 64, 127
1, 171515, Note_off_c, 0, 31, 52
1, 171523, Note_off_c, 0, 67, 61
1, 171592, Note_on_c, 0, 55, 69
1, 171608, Note_off_c, 0, 38, 0
1, 171608, Note_on_c, 0, 38, 7
1, 171608, Note_on_c, 0, 43, 64
1, 171621, Note_off_c, 0, 55, 61
1, 171627, Note_on_c, 0, 31, 46
1, 171639, Note_on_c, 0, 67, 28
1, 171645, Note_off_c, 0, 43, 60
1, 171655, Note_off_c, 0, 31, 56
1, 171677, Note_off_c, 0, 67, 50
1, 171728, Note_on_c, 0, 55, 74
1, 171729, Note_on_c, 0, 43, 65
1, 171737, Note_on_c, 0, 67, 70
1, 171740, Note_on_c, 0, 31, 64
1, 171762, Note_off_c, 0, 43, 62
1, 171770, Note_off_c, 0, 55, 54
1, 171776, Note_off_c, 0, 31, 58
1, 171790, Note_off_c, 0, 67, 56
1, 171856, Note_on_c, 0, 43, 67
1, 171863, Note_on_c, 0, 67, 67
1, 171866, Note_on_c, 0, 31, 64
1, 171866, Note_on_c, 0, 55, 75
1, 171892, Note_off_c, 0, 43, 63
1, 171895, Note_off_c, 0, 31, 64
1, 171900, Note_off_c, 0, 55, 57
1, 171921, Note_off_c, 0, 67, 61
1, 171965, Note_off_c, 0, 38, 0
1, 171973, Note_off_c, 0, 62, 0
1, 171982, Note_on_c, 0, 38, 44
1, 171982, Note_on_c, 0, 43, 92
1, 171982, Note_on_c, 0, 67, 82
1, 171983, Note_on_c, 0, 55, 95
1, 171988, Note_on_c, 0, 31, 77
1, 171990, Note_on_c, 0, 62, 37
1, 172024, Note_off_c, 0, 43, 63
1, 172029, Note_off_c, 0, 31, 59
1, 172039, Note_off_c, 0, 55, 61
1, 172039, Note_off_c, 0, 62, 55
1, 172065, Note_off_c, 0, 67, 55
1, 172067, Note_off_c, 0, 38, 53
1, 172119, Note_on_c, 0, 43, 85
1, 172122, Note_on_c, 0, 38, 45
1, 172132, Note_on_c, 0, 55, 82
1, 172132, Note_on_c, 0, 67, 71
1, 172145, Note_on_c, 0, 31, 57
1, 172146, Note_off_c, 0, 43, 65
1, 172158, Note_off_c, 0, 55, 65
1, 172176, Note_off_c, 0, 67, 61
1, 172177, Note_off_c, 0, 38, 61
1, 172179, Note_off_c, 0, 31, 52
1, 172231, Note_on_c, 0, 67, 85
1, 172233, Note_on_c, 0, 62, 86
1, 172235, Note_on_c, 0, 55, 97
1, 172239, Note_on_c, 0, 43, 94
1, 172246, Note_on_c, 0, 31, 84
1, 172262, Note_on_c, 0, 38, 57
1, 172275, Note_off_c, 0, 43, 65
1, 172283, Note_off_c, 0, 31, 63
1, 172283, Note_off_c, 0, 55, 63
1, 172299, Note_off_c, 0, 67, 61
1, 172306, Note_off_c, 0, 38, 56
1, 172347, Note_on_c, 0, 38, 47
1, 172353, Poly_aftertouch_c, 0, 57, 0
1, 172356, Note_on_c, 0, 43, 86
1, 172370, Note_on_c, 0, 31, 50
1, 172380, Note_on_c, 0, 67, 70
1, 172393, Note_off_c, 0, 43, 60
1, 172399, Note_off_c, 0, 31, 56
1, 172447, Control_c, 0, 64, 90
1, 172462, Control_c, 0, 64, 0
1, 172474, Note_on_c, 0, 31, 79
1, 172477, Note_on_c, 0, 43, 108
1, 172477, Note_on_c, 0, 55, 107
1, 172491, Note_off_c, 0, 67, 62
1, 172500, Note_off_c, 0, 38, 36
1, 172501, Note_off_c, 0, 31, 69
1, 172524, Note_on_c, 0, 61, 12
1, 172525, Note_off_c, 0, 61, 127
1, 172536, Control_c, 0, 64, 71
1, 172539, Note_off_c, 0, 43, 65
1, 172543, Note_off_c, 0, 55, 59
1, 172551, Control_c, 0, 64, 96
1, 172566, Control_c, 0, 64, 127
1, 172611, Note_on_c, 0, 67, 70
1, 172614, Note_on_c, 0, 45, 87
1, 172676, Note_off_c, 0, 67, 56
1, 172682, Note_on_c, 0, 55, 83
1, 172692, Note_on_c, 0, 46, 81
1, 172717, Note_off_c, 0, 45, 62
1, 172730, Note_off_c, 0, 55, 59
1, 172757, Note_on_c, 0, 48, 82
1, 172771, Note_off_c, 0, 46, 64
1, 172778, Note_on_c, 0, 67, 78
1, 172826, Note_off_c, 0, 48, 58
1, 172838, Note_on_c, 0, 50, 89
1, 172862, Note_off_c, 0, 67, 57
1, 172868, Note_on_c, 0, 55, 82
1, 172886, Note_off_c, 0, 50, 67
1, 172914, Control_c, 0, 64, 95
1, 172921, Note_on_c, 0, 51, 85
1, 172922, Note_off_c, 0, 55, 57
1, 172929, Control_c, 0, 64, 0
1, 172944, Note_off_c, 0, 51, 69
1, 172958, Note_on_c, 0, 67, 82
1, 173000, Note_on_c, 0, 50, 96
1, 173018, Control_c, 0, 64, 82
1, 173019, Note_on_c, 0, 38, 70
1, 173025, Note_on_c, 0, 55, 92
1, 173027, Note_off_c, 0, 67, 59
1, 173028, Note_on_c, 0, 43, 47
1, 173029, Note_off_c, 0, 43, 127
1, 173030, Note_off_c, 0, 50, 64
1, 173032, Control_c, 0, 64, 127
1, 173043, Note_off_c, 0, 38, 61
1, 173079, Note_off_c, 0, 55, 56
1, 173115, Poly_aftertouch_c, 0, 40, 0
1, 173127, Note_on_c, 0, 67, 76
1, 173167, Control_c, 0, 64, 98
1, 173182, Control_c, 0, 64, 62
1, 173196, Control_c, 0, 64, 0
1, 173206, Note_off_c, 0, 67, 60
1, 173213, Note_on_c, 0, 55, 78
1, 173275, Note_on_c, 0, 46, 100
1, 173275, Note_off_c, 0, 55, 56
1, 173285, Note_on_c, 0, 34, 91
1, 173285, Control_c, 0, 64, 77
1, 173297, Note_off_c, 0, 46, 67
1, 173300, Note_on_c, 0, 67, 84
1, 173300, Control_c, 0, 64, 127
1, 173311, Note_off_c, 0, 34, 64
1, 173359, Note_off_c, 0, 62, 0
1, 173359, Note_on_c, 0, 62, 12
1, 173385, Note_on_c, 0, 55, 73
1, 173387, Note_off_c, 0, 67, 54
1, 173434, Control_c, 0, 64, 105
1, 173440, Note_off_c, 0, 55, 56
1, 173448, Control_c, 0, 64, 64
1, 173463, Control_c, 0, 64, 0
1, 173476, Note_on_c, 0, 67, 70
1, 173483, Note_off_c, 0, 62, 57
1, 173502, Note_off_c, 0, 67, 66
1, 173573, Note_on_c, 0, 43, 74
1, 173583, Note_on_c, 0, 31, 59
1, 173586, Note_on_c, 0, 55, 75
1, 173588, Note_on_c, 0, 67, 78
1, 173603, Control_c, 0, 64, 82
1, 173618, Control_c, 0, 64, 127
1, 173654, Note_off_c, 0, 55, 51
1, 173665, Note_off_c, 0, 67, 52
1, 173684, Note_off_c, 0, 43, 52
1, 173693, Note_off_c, 0, 31, 36
1, 173769, Note_on_c, 0, 55, 68
1, 173772, Note_on_c, 0, 67, 64
1, 173808, Note_on_c, 0, 43, 52
1, 173809, Note_on_c, 0, 31, 49
1, 173812, Note_off_c, 0, 55, 55
1, 173830, Note_off_c, 0, 67, 53
1, 173842, Note_off_c, 0, 43, 52
1, 173848, Note_off_c, 0, 31, 51
1, 173918, Note_on_c, 0, 55, 80
1, 173922, Note_on_c, 0, 67, 72
1, 173925, Note_on_c, 0, 43, 71
1, 173934, Note_on_c, 0, 31, 63
1, 173955, Note_off_c, 0, 43, 66
1, 173963, Note_off_c, 0, 55, 61
1, 173965, Note_off_c, 0, 31, 63
1, 173982, Note_off_c, 0, 67, 59
1, 174054, Note_on_c, 0, 43, 81
1, 174055, Note_on_c, 0, 31, 72
1, 174061, Note_on_c, 0, 55, 77
1, 174061, Note_on_c, 0, 67, 73
1, 174084, Note_off_c, 0, 55, 68
1, 174085, Note_off_c, 0, 43, 66
1, 174097, Note_off_c, 0, 31, 55
1, 174108, Note_off_c, 0, 67, 43
1, 174178, Note_on_c, 0, 45, 96
1, 174183, Note_on_c, 0, 69, 81
1, 174184, Note_on_c, 0, 57, 93
1, 174185, Note_on_c, 0, 31, 71
1, 174186, Note_on_c, 0, 43, 83
1, 174191, Note_on_c, 0, 67, 89
1, 174209, Note_off_c, 0, 43, 64
1, 174210, Note_on_c, 0, 33, 48
1, 174212, Note_off_c, 0, 45, 64
1, 174217, Note_off_c, 0, 31, 63
1, 174225, Note_off_c, 0, 57, 64
1, 174229, Note_on_c, 0, 34, 18
1, 174247, Note_off_c, 0, 69, 57
1, 174248, Note_off_c, 0, 33, 50
1, 174253, Note_off_c, 0, 67, 58
1, 174272, Note_off_c, 0, 34, 51
1, 174322, Note_on_c, 0, 45, 96
1, 174323, Note_on_c, 0, 57, 90
1, 174325, Note_on_c, 0, 69, 75
1, 174328, Note_on_c, 0, 43, 72
1, 174330, Note_on_c, 0, 31, 82
1, 174339, Note_on_c, 0, 67, 78
1, 174340, Note_on_c, 0, 68, 60
1, 174352, Note_off_c, 0, 43, 68
1, 174358, Note_off_c, 0, 45, 63
1, 174361, Note_off_c, 0, 31, 64
1, 174377, Note_off_c, 0, 57, 57
1, 174389, Note_off_c, 0, 69, 56
1, 174393, Note_off_c, 0, 68, 59
1, 174404, Note_off_c, 0, 67, 60
1, 174462, Note_on_c, 0, 45, 96
1, 174465, Note_on_c, 0, 57, 89
1, 174470, Note_on_c, 0, 69, 80
1, 174471, Note_on_c, 0, 67, 78
1, 174480, Note_on_c, 0, 31, 62
1, 174490, Note_on_c, 0, 33, 63
1, 174503, Note_off_c, 0, 45, 65
1, 174513, Note_off_c, 0, 31, 62
1, 174516, Note_off_c, 0, 57, 57
1, 174517, Note_off_c, 0, 33, 57
1, 174534, Note_off_c, 0, 69, 57
1, 174541, Note_off_c, 0, 67, 58
1, 174601, Note_on_c, 0, 45, 97
1, 174605, Note_on_c, 0, 31, 79
1, 174605, Note_on_c, 0, 69, 81
1, 174609, Note_on_c, 0, 57, 87
1, 174615, Note_on_c, 0, 43, 77
1, 174617, Note_on_c, 0, 67, 76
1, 174631, Note_off_c, 0, 45, 65
1, 174635, Note_off_c, 0, 43, 39
1, 174642, Note_off_c, 0, 31, 61
1, 174656, Note_off_c, 0, 57, 63
1, 174665, Note_off_c, 0, 69, 59
1, 174673, Poly_aftertouch_c, 0, 33, 127
1, 174684, Poly_aftertouch_c, 0, 34, 127
1, 174694, Note_off_c, 0, 67, 57
1, 174715, Poly_aftertouch_c, 0, 34, 0
1, 174717, Poly_aftertouch_c, 0, 33, 0
1, 174723, Control_c, 0, 64, 80
1, 174738, Control_c, 0, 64, 0
1, 174761, Note_on_c, 0, 43, 89
1, 174766, Note_on_c, 0, 34, 85
1, 174768, Note_on_c, 0, 31, 71
1, 174775, Note_on_c, 0, 58, 103
1, 174778, Note_on_c, 0, 38, 67
1, 174812, Control_c, 0, 64, 86
1, 174823, Note_off_c, 0, 31, 58
1, 174826, Control_c, 0, 64, 127
1, 174842, Note_off_c, 0, 38, 61
1, 174849, Note_off_c, 0, 34, 60
1, 174851, Note_off_c, 0, 58, 59
1, 174854, Note_off_c, 0, 43, 63
1, 174920, Note_on_c, 0, 70, 74
1, 174939, Note_on_c, 0, 67, 55
1, 174966, Note_on_c, 0, 45, 75
1, 174966, Note_on_c, 0, 47, 73
1, 175016, Note_on_c, 0, 58, 89
1, 175031, Note_off_c, 0, 70, 59
1, 175058, Note_off_c, 0, 67, 57
1, 175064, Note_off_c, 0, 45, 54
1, 175073, Note_on_c, 0, 48, 59
1, 175091, Note_off_c, 0, 58, 59
1, 175102, Note_off_c, 0, 47, 64
1, 175121, Note_on_c, 0, 70, 88
1, 175124, Note_on_c, 0, 67, 65
1, 175146, Note_on_c, 0, 50, 87
1, 175154, Note_off_c, 0, 48, 63
1, 175202, Note_on_c, 0, 58, 92
1, 175213, Note_off_c, 0, 70, 56
1, 175223, Note_on_c, 0, 51, 90
1, 175228, Note_off_c, 0, 50, 39
1, 175249, Note_off_c, 0, 67, 54
1, 175264, Note_off_c, 0, 51, 66
1, 175267, Note_off_c, 0, 58, 63
1, 175279, Control_c, 0, 64, 95
1, 175291, Note_on_c, 0, 67, 52
1, 175294, Control_c, 0, 64, 66
1, 175299, Note_on_c, 0, 70, 89
1, 175308, Control_c, 0, 64, 0
1, 175335, Note_on_c, 0, 50, 98
1, 175343, Note_on_c, 0, 38, 85
1, 175352, Control_c, 0, 64, 70
1, 175366, Note_on_c, 0, 58, 94
1, 175366, Note_off_c, 0, 38, 66
1, 175367, Control_c, 0, 64, 91
1, 175370, Note_off_c, 0, 50, 68
1, 175382, Control_c, 0, 64, 127
1, 175385, Note_off_c, 0, 70, 51
1, 175448, Note_on_c, 0, 70, 70
1, 175448, Note_off_c, 0, 58, 62
1, 175517, Control_c, 0, 64, 92
1, 175531, Control_c, 0, 64, 67
1, 175536, Note_on_c, 0, 58, 83
1, 175546, Control_c, 0, 64, 0
1, 175549, Note_off_c, 0, 70, 60
1, 175561, Note_off_c, 0, 67, 57
1, 175616, Note_on_c, 0, 70, 71
1, 175620, Note_on_c, 0, 67, 66
1, 175624, Note_on_c, 0, 46, 103
1, 175624, Note_off_c, 0, 58, 56
1, 175634, Note_on_c, 0, 34, 87
1, 175635, Control_c, 0, 64, 79
1, 175649, Control_c, 0, 64, 127
1, 175654, Note_off_c, 0, 46, 63
1, 175659, Note_off_c, 0, 34, 68
1, 175667, Note_on_c, 0, 39, 30
1, 175696, Note_on_c, 0, 58, 85
1, 175706, Note_off_c, 0, 39, 58
1, 175729, Note_off_c, 0, 67, 57
1, 175737, Note_off_c, 0, 70, 60
1, 175783, Note_on_c, 0, 70, 63
1, 175797, Note_on_c, 0, 67, 61
1, 175818, Note_off_c, 0, 58, 59
1, 175867, Note_off_c, 0, 70, 62
1, 175877, Note_off_c, 0, 67, 57
1, 175894, Control_c, 0, 64, 83
1, 175909, Control_c, 0, 64, 58
1, 175920, Note_on_c, 0, 43, 93
1, 175920, Note_on_c, 0, 70, 65
1, 175921, Note_on_c, 0, 58, 87
1, 175923, Control_c, 0, 64, 0
1, 175926, Note_on_c, 0, 67, 55
1, 175932, Note_on_c, 0, 34, 71
1, 175934, Note_on_c, 0, 31, 65
1, 175967, Control_c, 0, 64, 61
1, 175982, Control_c, 0, 64, 79
1, 175997, Control_c, 0, 64, 127
1, 176054, Note_off_c, 0, 58, 58
1, 176063, Note_off_c, 0, 31, 61
1, 176063, Note_off_c, 0, 43, 63
1, 176070, Note_off_c, 0, 70, 61
1, 176073, Note_off_c, 0, 67, 58
1, 176079, Note_off_c, 0, 34, 59
1, 176142, Note_on_c, 0, 58, 91
1, 176142, Note_on_c, 0, 70, 79
1, 176145, Note_on_c, 0, 43, 85
1, 176148, Note_on_c, 0, 67, 69
1, 176160, Note_on_c, 0, 34, 67
1, 176169, Note_on_c, 0, 31, 60
1, 176196, Note_off_c, 0, 43, 60
1, 176199, Note_off_c, 0, 31, 64
1, 176215, Note_off_c, 0, 58, 56
1, 176218, Note_off_c, 0, 34, 60
1, 176236, Note_off_c, 0, 70, 58
1, 176238, Note_off_c, 0, 67, 58
1, 176298, Note_on_c, 0, 43, 89
1, 176301, Note_on_c, 0, 70, 76
1, 176304, Note_on_c, 0, 58, 95
1, 176306, Note_on_c, 0, 31, 53
1, 176308, Note_on_c, 0, 67, 75
1, 176311, Note_on_c, 0, 34, 75
1, 176348, Note_off_c, 0, 31, 61
1, 176348, Note_off_c, 0, 43, 62
1, 176356, Note_off_c, 0, 34, 55
1, 176358, Note_off_c, 0, 58, 61
1, 176374, Note_off_c, 0, 70, 58
1, 176383, Note_off_c, 0, 67, 57
1, 176440, Note_on_c, 0, 43, 95
1, 176441, Note_on_c, 0, 58, 100
1, 176447, Note_on_c, 0, 70, 79
1, 176451, Note_on_c, 0, 34, 79
1, 176451, Note_on_c, 0, 67, 69
1, 176452, Note_on_c, 0, 31, 70
1, 176476, Note_on_c, 0, 41, 42
1, 176481, Note_off_c, 0, 58, 67
1, 176486, Note_off_c, 0, 43, 62
1, 176493, Note_off_c, 0, 34, 59
1, 176495, Note_off_c, 0, 31, 58
1, 176498, Note_off_c, 0, 67, 60
1, 176510, Note_off_c, 0, 41, 52
1, 176519, Note_off_c, 0, 70, 64
1, 176585, Note_on_c, 0, 45, 100
1, 176587, Note_on_c, 0, 60, 103
1, 176590, Note_on_c, 0, 70, 81
1, 176593, Note_on_c, 0, 72, 91
1, 176597, Note_on_c, 0, 33, 72
1, 176597, Note_on_c, 0, 36, 68
1, 176599, Note_on_c, 0, 31, 79
1, 176604, Note_on_c, 0, 67, 79
1, 176612, Note_on_c, 0, 43, 53
1, 176634, Note_off_c, 0, 43, 39
1, 176672, Note_off_c, 0, 60, 63
1, 176675, Note_off_c, 0, 45, 61
1, 176676, Note_off_c, 0, 72, 60
1, 176678, Note_off_c, 0, 31, 60
1, 176689, Note_off_c, 0, 33, 59
1, 176690, Note_off_c, 0, 67, 59
1, 176693, Note_off_c, 0, 36, 60
1, 176697, Note_off_c, 0, 70, 63
1, 176751, Note_on_c, 0, 60, 106
1, 176751, Note_on_c, 0, 45, 98
1, 176757, Note_on_c, 0, 69, 86
1, 176759, Note_on_c, 0, 72, 84
1, 176761, Note_on_c, 0, 67, 68
1, 176762, Note_on_c, 0, 33, 73
1, 176765, Note_on_c, 0, 36, 61
1, 176796, Note_on_c, 0, 66, 32
1, 176813, Note_off_c, 0, 45, 62
1, 176829, Note_off_c, 0, 66, 58
1, 176830, Note_off_c, 0, 36, 59
1, 176831, Note_off_c, 0, 33, 58
1, 176835, Note_off_c, 0, 60, 63
1, 176838, Note_off_c, 0, 72, 61
1, 176841, Note_off_c, 0, 67, 59
1, 176841, Poly_aftertouch_c, 0, 31, 127
1, 176854, Poly_aftertouch_c, 0, 71, 127
1, 176856, Note_off_c, 0, 69, 57
1, 176866, Poly_aftertouch_c, 0, 43, 0
1, 176871, Poly_aftertouch_c, 0, 71, 0
1, 176885, Poly_aftertouch_c, 0, 31, 0
1, 176899, Note_on_c, 0, 60, 98
1, 176900, Note_on_c, 0, 45, 99
1, 176903, Note_on_c, 0, 69, 72
1, 176904, Note_on_c, 0, 72, 75
1, 176909, Note_on_c, 0, 33, 75
1, 176910, Note_on_c, 0, 67, 72
1, 176922, Note_on_c, 0, 36, 63
1, 176928, Note_on_c, 0, 37, 46
1, 176928, Note_on_c, 0, 71, 64
1, 176930, Note_on_c, 0, 35, 54
1, 176949, Note_off_c, 0, 71, 58
1, 176960, Note_off_c, 0, 35, 60
1, 176970, Note_off_c, 0, 45, 64
1, 176972, Note_off_c, 0, 37, 49
1, 176974, Note_off_c, 0, 60, 60
1, 176974, Note_off_c, 0, 72, 59
1, 176983, Note_off_c, 0, 33, 58
1, 176984, Note_off_c, 0, 36, 55
1, 176996, Note_off_c, 0, 67, 59
1, 176999, Note_off_c, 0, 69, 61
1, 177058, Note_on_c, 0, 36, 75
1, 177058, Note_on_c, 0, 45, 92
1, 177059, Note_on_c, 0, 60, 104
1, 177067, Note_on_c, 0, 69, 72
1, 177067, Note_on_c, 0, 72, 84
1, 177068, Note_on_c, 0, 33, 70
1, 177072, Note_on_c, 0, 67, 62
1, 177079, Note_on_c, 0, 35, 61
1, 177094, Note_on_c, 0, 71, 49
1, 177098, Note_on_c, 0, 66, 38
1, 177099, Note_off_c, 0, 66, 127
1, 177107, Note_off_c, 0, 45, 64
1, 177118, Note_off_c, 0, 71, 59
1, 177128, Note_off_c, 0, 35, 61
1, 177130, Note_off_c, 0, 60, 63
1, 177136, Note_off_c, 0, 33, 58
1, 177145, Note_off_c, 0, 36, 57
1, 177159, Note_off_c, 0, 72, 60
1, 177160, Note_off_c, 0, 67, 59
1, 177169, Note_off_c, 0, 69, 60
1, 177221, Control_c, 0, 64, 83
1, 177236, Control_c, 0, 64, 19
1, 177238, Note_on_c, 0, 43, 101
1, 177248, Note_on_c, 0, 34, 81
1, 177249, Note_on_c, 0, 31, 82
1, 177249, Note_on_c, 0, 62, 100
1, 177251, Control_c, 0, 64, 0
1, 177256, Note_on_c, 0, 38, 66
1, 177304, Note_off_c, 0, 31, 60
1, 177306, Note_on_c, 0, 72, 5
1, 177307, Note_off_c, 0, 72, 127
1, 177307, Note_off_c, 0, 38, 57
1, 177331, Note_off_c, 0, 34, 61
1, 177334, Control_c, 0, 64, 65
1, 177345, Note_off_c, 0, 43, 63
1, 177348, Control_c, 0, 64, 127
1, 177409, Note_on_c, 0, 67, 72
1, 177411, Note_on_c, 0, 74, 82
1, 177414, Note_on_c, 0, 70, 81
1, 177426, Note_on_c, 0, 45, 84
1, 177467, Note_off_c, 0, 62, 24
1, 177474, Note_off_c, 0, 67, 60
1, 177498, Note_on_c, 0, 62, 74
1, 177507, Note_off_c, 0, 70, 48
1, 177508, Note_off_c, 0, 74, 60
1, 177510, Note_on_c, 0, 46, 88
1, 177536, Note_off_c, 0, 45, 63
1, 177583, Note_on_c, 0, 48, 84
1, 177584, Note_off_c, 0, 46, 62
1, 177590, Note_on_c, 0, 67, 76
1, 177596, Note_on_c, 0, 74, 88
1, 177598, Note_on_c, 0, 70, 81
1, 177600, Note_off_c, 0, 62, 61
1, 177664, Note_on_c, 0, 50, 89
1, 177667, Note_off_c, 0, 48, 64
1, 177668, Note_on_c, 0, 62, 81
1, 177676, Note_off_c, 0, 67, 61
1, 177679, Note_off_c, 0, 70, 64
1, 177689, Note_off_c, 0, 74, 56
1, 177721, Note_off_c, 0, 50, 63
1, 177740, Note_on_c, 0, 51, 92
1, 177745, Note_on_c, 0, 67, 77
1, 177755, Note_on_c, 0, 70, 78
1, 177757, Note_on_c, 0, 74, 76
1, 177762, Note_off_c, 0, 62, 59
1, 177778, Note_off_c, 0, 51, 66
1, 177778, Control_c, 0, 64, 102
1, 177793, Control_c, 0, 64, 65
1, 177808, Control_c, 0, 64, 0
1, 177830, Note_on_c, 0, 62, 87
1, 177842, Note_off_c, 0, 74, 57
1, 177842, Note_off_c, 0, 70, 64
1, 177846, Note_on_c, 0, 50, 92
1, 177856, Note_off_c, 0, 67, 37
1, 177857, Note_on_c, 0, 38, 80
1, 177867, Control_c, 0, 64, 57
1, 177870, Note_on_c, 0, 48, 58
1, 177871, Note_off_c, 0, 48, 127
1, 177871, Note_off_c, 0, 50, 70
1, 177882, Note_off_c, 0, 38, 65
1, 177882, Control_c, 0, 64, 85
1, 177897, Control_c, 0, 64, 127
1, 177915, Note_on_c, 0, 67, 65
1, 177921, Note_on_c, 0, 70, 81
1, 177924, Note_on_c, 0, 74, 82
1, 177936, Note_off_c, 0, 62, 59
1, 177994, Note_on_c, 0, 62, 81
1, 178007, Note_off_c, 0, 70, 65
1, 178015, Note_off_c, 0, 67, 59
1, 178022, Note_off_c, 0, 74, 61
1, 178067, Control_c, 0, 64, 89
1, 178082, Note_on_c, 0, 67, 67
1, 178082, Control_c, 0, 64, 73
1, 178087, Note_on_c, 0, 74, 79
1, 178088, Note_on_c, 0, 70, 75
1, 178095, Note_off_c, 0, 62, 60
1, 178107, Note_on_c, 0, 46, 105
1, 178112, Control_c, 0, 64, 85
1, 178116, Note_on_c, 0, 34, 84
1, 178127, Control_c, 0, 64, 109
1, 178132, Note_off_c, 0, 46, 66
1, 178136, Note_off_c, 0, 34, 68
1, 178141, Control_c, 0, 64, 127
1, 178164, Note_on_c, 0, 62, 81
1, 178174, Note_off_c, 0, 70, 65
1, 178180, Note_off_c, 0, 67, 57
1, 178199, Note_off_c, 0, 74, 64
1, 178250, Note_on_c, 0, 67, 66
1, 178253, Note_on_c, 0, 74, 69
1, 178255, Note_on_c, 0, 70, 77
1, 178264, Note_off_c, 0, 62, 57
1, 178280, Note_off_c, 0, 67, 64
1, 178302, Note_off_c, 0, 70, 64
1, 178302, Note_off_c, 0, 74, 65
1, 178319, Control_c, 0, 64, 88
1, 178334, Control_c, 0, 64, 0
1, 178353, Note_on_c, 0, 43, 96
1, 178361, Note_on_c, 0, 35, 68
1, 178365, Note_on_c, 0, 74, 96
1, 178366, Note_on_c, 0, 38, 60
1, 178368, Note_on_c, 0, 31, 68
1, 178372, Note_on_c, 0, 62, 93
1, 178378, Control_c, 0, 64, 17
1, 178380, Note_on_c, 0, 65, 71
1, 178381, Note_on_c, 0, 71, 69
1, 178393, Control_c, 0, 64, 68
1, 178403, Note_on_c, 0, 69, 57
1, 178408, Control_c, 0, 64, 87
1, 178419, Note_off_c, 0, 65, 0
1, 178423, Control_c, 0, 64, 127
1, 178425, Note_off_c, 0, 69, 39
1, 178435, Note_off_c, 0, 62, 55
1, 178451, Note_off_c, 0, 71, 57
1, 178456, Poly_aftertouch_c, 0, 65, 127
1, 178457, Note_off_c, 0, 43, 62
1, 178462, Note_off_c, 0, 31, 61
1, 178481, Note_off_c, 0, 35, 60
1, 178487, Note_off_c, 0, 38, 57
1, 178514, Poly_aftertouch_c, 0, 65, 0
1, 178537, Note_on_c, 0, 65, 50
1, 178541, Note_on_c, 0, 43, 89
1, 178544, Note_on_c, 0, 38, 47
1, 178546, Note_on_c, 0, 62, 73
1, 178546, Note_on_c, 0, 71, 82
1, 178547, Note_on_c, 0, 35, 58
1, 178560, Note_on_c, 0, 31, 68
1, 178597, Note_off_c, 0, 43, 63
1, 178600, Note_off_c, 0, 31, 59
1, 178600, Note_off_c, 0, 62, 60
1, 178621, Note_off_c, 0, 65, 61
1, 178624, Note_off_c, 0, 35, 61
1, 178630, Note_off_c, 0, 38, 57
1, 178630, Note_off_c, 0, 71, 62
1, 178654, Poly_aftertouch_c, 0, 60, 0
1, 178684, Note_on_c, 0, 43, 87
1, 178690, Note_on_c, 0, 38, 47
1, 178693, Note_on_c, 0, 35, 57
1, 178699, Note_on_c, 0, 62, 79
1, 178700, Note_on_c, 0, 65, 69
1, 178700, Note_on_c, 0, 71, 73
1, 178702, Note_on_c, 0, 31, 70
1, 178742, Note_off_c, 0, 74, 56
1, 178748, Note_off_c, 0, 62, 55
1, 178750, Note_off_c, 0, 31, 55
1, 178750, Note_off_c, 0, 43, 62
1, 178765, Note_off_c, 0, 65, 57
1, 178771, Note_off_c, 0, 71, 61
1, 178773, Note_off_c, 0, 35, 61
1, 178812, Note_off_c, 0, 38, 0
1, 178836, Note_on_c, 0, 38, 32
1, 178840, Note_on_c, 0, 43, 95
1, 178845, Note_on_c, 0, 62, 81
1, 178846, Note_on_c, 0, 35, 61
1, 178849, Note_on_c, 0, 31, 77
1, 178854, Note_on_c, 0, 71, 75
1, 178854, Note_on_c, 0, 72, 59
1, 178857, Note_on_c, 0, 65, 38
1, 178869, Note_off_c, 0, 62, 68
1, 178883, Note_off_c, 0, 65, 58
1, 178890, Note_off_c, 0, 72, 63
1, 178900, Note_off_c, 0, 71, 61
1, 178970, Note_off_c, 0, 43, 54
1, 178982, Note_off_c, 0, 31, 0
1, 179003, Note_off_c, 0, 35, 59
1, 179009, Note_off_c, 0, 38, 57
1, 179021, Poly_aftertouch_c, 0, 31, 0
1, 179045, Poly_aftertouch_c, 0, 38, 0
1, 179056, Note_on_c, 0, 38, 55
1, 179056, Note_on_c, 0, 43, 101
1, 179061, Note_on_c, 0, 35, 66
1, 179063, Note_on_c, 0, 31, 71
1, 179075, Note_on_c, 0, 67, 96
1, 179075, Note_on_c, 0, 79, 94
1, 179077, Note_on_c, 0, 71, 82
1, 179083, Note_on_c, 0, 65, 92
1, 179083, Control_c, 0, 64, 86
1, 179098, Control_c, 0, 64, 70
1, 179112, Note_on_c, 0, 73, 47
1, 179113, Control_c, 0, 64, 69
1, 179127, Control_c, 0, 64, 79
1, 179142, Control_c, 0, 64, 94
1, 179154, Note_on_c, 0, 76, 50
1, 179157, Control_c, 0, 64, 127
1, 179192, Note_off_c, 0, 31, 56
1, 179205, Note_off_c, 0, 43, 59
1, 179219, Note_off_c, 0, 35, 58
1, 179226, Note_off_c, 0, 38, 58
1, 179226, Note_off_c, 0, 65, 58
1, 179235, Note_off_c, 0, 71, 53
1, 179235, Note_off_c, 0, 67, 57
1, 179269, Note_off_c, 0, 73, 42
1, 179298, Note_on_c, 0, 43, 88
1, 179306, Note_on_c, 0, 35, 63
1, 179307, Note_on_c, 0, 38, 52
1, 179310, Note_on_c, 0, 31, 67
1, 179320, Note_on_c, 0, 67, 80
1, 179320, Note_on_c, 0, 71, 71
1, 179324, Note_off_c, 0, 76, 0
1, 179327, Note_on_c, 0, 65, 81
1, 179349, Note_on_c, 0, 76, 10
1, 179374, Note_off_c, 0, 43, 56
1, 179384, Note_off_c, 0, 65, 56
1, 179384, Note_off_c, 0, 31, 59
1, 179384, Note_off_c, 0, 67, 53
1, 179403, Note_off_c, 0, 38, 59
1, 179404, Note_off_c, 0, 35, 60
1, 179417, Poly_aftertouch_c, 0, 73, 127
1, 179437, Note_off_c, 0, 71, 0
1, 179453, Note_on_c, 0, 71, 57
1, 179454, Note_off_c, 0, 79, 54
1, 179460, Note_off_c, 0, 76, 41
1, 179462, Note_on_c, 0, 43, 93
1, 179473, Note_on_c, 0, 38, 57
1, 179473, Note_on_c, 0, 67, 76
1, 179474, Note_on_c, 0, 35, 56
1, 179476, Note_on_c, 0, 31, 64
1, 179476, Note_on_c, 0, 65, 77
1, 179515, Note_on_c, 0, 41, 21
1, 179519, Note_off_c, 0, 67, 52
1, 179519, Note_off_c, 0, 71, 64
1, 179526, Note_off_c, 0, 65, 59
1, 179527, Note_off_c, 0, 43, 57
1, 179540, Poly_aftertouch_c, 0, 73, 0
1, 179550, Note_off_c, 0, 31, 58
1, 179564, Note_off_c, 0, 41, 42
1, 179575, Note_off_c, 0, 38, 60
1, 179576, Note_off_c, 0, 35, 55
1, 179618, Note_on_c, 0, 74, 94
1, 179626, Note_on_c, 0, 35, 44
1, 179626, Note_on_c, 0, 43, 94
1, 179632, Note_on_c, 0, 65, 79
1, 179634, Note_on_c, 0, 31, 61
1, 179634, Note_on_c, 0, 62, 77
1, 179635, Note_on_c, 0, 71, 71
1, 179638, Note_on_c, 0, 38, 49
1, 179638, Note_on_c, 0, 64, 71
1, 179647, Note_on_c, 0, 72, 54
1, 179656, Note_off_c, 0, 64, 68
1, 179665, Note_off_c, 0, 31, 59
1, 179665, Note_off_c, 0, 62, 55
1, 179669, Note_off_c, 0, 72, 60
1, 179682, Note_off_c, 0, 38, 60
1, 179683, Note_off_c, 0, 65, 38
1, 179689, Note_off_c, 0, 43, 61
1, 179695, Note_off_c, 0, 35, 59
1, 179700, Poly_aftertouch_c, 0, 36, 0
1, 179714, Note_off_c, 0, 74, 57
1, 179721, Note_off_c, 0, 71, 60
1, 179787, Control_c, 0, 64, 76
1, 179802, Control_c, 0, 64, 0
1, 179811, Note_on_c, 0, 48, 87
1, 179815, Note_on_c, 0, 75, 85
1, 179819, Note_on_c, 0, 36, 78
1, 179823, Note_on_c, 0, 63, 87
1, 179826, Note_on_c, 0, 72, 76
1, 179835, Note_on_c, 0, 67, 68
1, 179865, Note_off_c, 0, 48, 57
1, 179891, Control_c, 0, 64, 65
1, 179906, Control_c, 0, 64, 79
1, 179921, Control_c, 0, 64, 104
1, 179930, Note_off_c, 0, 63, 59
1, 179936, Control_c, 0, 64, 127
1, 179944, Note_off_c, 0, 72, 60
1, 179949, Note_off_c, 0, 36, 59
1, 179950, Note_off_c, 0, 67, 58
1, 179951, Note_on_c, 0, 38, 79
1, 180016, Note_on_c, 0, 67, 53
1, 180022, Note_on_c, 0, 63, 79
1, 180028, Note_on_c, 0, 72, 72
1, 180033, Note_on_c, 0, 39, 85
1, 180066, Note_off_c, 0, 38, 62
1, 180072, Note_off_c, 0, 63, 56
1, 180090, Note_off_c, 0, 67, 60
1, 180091, Note_off_c, 0, 72, 58
1, 180115, Note_on_c, 0, 41, 83
1, 180139, Note_off_c, 0, 39, 61
1, 180148, Note_on_c, 0, 67, 59
1, 180151, Note_on_c, 0, 72, 65
1, 180153, Note_on_c, 0, 63, 79
1, 180195, Note_off_c, 0, 63, 56
1, 180210, Note_on_c, 0, 43, 95
1, 180212, Note_off_c, 0, 67, 60
1, 180214, Note_off_c, 0, 72, 61
1, 180217, Note_off_c, 0, 41, 61
1, 180289, Note_on_c, 0, 72, 68
1, 180291, Note_off_c, 0, 43, 56
1, 180291, Note_on_c, 0, 67, 56
1, 180293, Note_on_c, 0, 63, 77
1, 180309, Note_on_c, 0, 44, 88
1, 180321, Note_off_c, 0, 63, 60
1, 180351, Note_off_c, 0, 67, 59
1, 180353, Note_off_c, 0, 72, 61
1, 180359, Control_c, 0, 64, 96
1, 180373, Control_c, 0, 64, 53
1, 180388, Control_c, 0, 64, 0
1, 180395, Note_on_c, 0, 43, 102
1, 180404, Note_on_c, 0, 63, 86
1, 180410, Note_on_c, 0, 67, 65
1, 180410, Note_on_c, 0, 72, 68
1, 180421, Note_off_c, 0, 44, 59
1, 180447, Control_c, 0, 64, 69
1, 180462, Control_c, 0, 64, 98
1, 180478, Control_c, 0, 64, 127
1, 180481, Note_off_c, 0, 63, 60
1, 180485, Note_off_c, 0, 43, 61
1, 180502, Note_off_c, 0, 67, 58
1, 180503, Note_off_c, 0, 72, 62
1, 180555, Note_on_c, 0, 67, 59
1, 180559, Note_on_c, 0, 63, 77
1, 180563, Note_on_c, 0, 72, 65
1, 180607, Note_off_c, 0, 63, 61
1, 180626, Control_c, 0, 64, 79
1, 180632, Note_off_c, 0, 67, 60
1, 180640, Note_off_c, 0, 72, 62
1, 180640, Control_c, 0, 64, 0
1, 180681, Note_on_c, 0, 39, 96
1, 180700, Control_c, 0, 64, 67
1, 180704, Note_on_c, 0, 63, 84
1, 180709, Note_on_c, 0, 67, 63
1, 180711, Note_on_c, 0, 72, 64
1, 180714, Control_c, 0, 64, 95
1, 180729, Control_c, 0, 64, 127
1, 180757, Note_off_c, 0, 63, 61
1, 180777, Note_off_c, 0, 75, 59
1, 180780, Note_off_c, 0, 67, 57
1, 180784, Note_off_c, 0, 72, 61
1, 180831, Note_on_c, 0, 72, 62
1, 180839, Note_on_c, 0, 63, 78
1, 180839, Note_on_c, 0, 67, 48
1, 180890, Note_off_c, 0, 63, 61
1, 180891, Note_off_c, 0, 67, 61
1, 180908, Note_off_c, 0, 72, 62
1, 180969, Note_off_c, 0, 39, 39
1, 180981, Control_c, 0, 64, 83
1, 180996, Control_c, 0, 64, 0
1, 180998, Note_on_c, 0, 48, 79
1, 181003, Note_on_c, 0, 60, 80
1, 181010, Note_on_c, 0, 72, 78
1, 181011, Note_on_c, 0, 36, 66
1, 181123, Control_c, 0, 64, 79
1, 181137, Control_c, 0, 64, 127
1, 181154, Note_off_c, 0, 60, 56
1, 181157, Note_off_c, 0, 72, 56
1, 181252, Note_on_c, 0, 60, 61
1, 181253, Note_on_c, 0, 72, 68
1, 181295, Note_off_c, 0, 60, 60
1, 181316, Note_off_c, 0, 72, 55
1, 181388, Note_off_c, 0, 36, 31
1, 181400, Note_on_c, 0, 60, 71
1, 181404, Note_on_c, 0, 72, 73
1, 181459, Note_off_c, 0, 60, 58
1, 181481, Note_off_c, 0, 72, 58
1, 181504, Note_off_c, 0, 48, 56
1, 181545, Note_on_c, 0, 72, 72
1, 181547, Note_on_c, 0, 60, 79
1, 181601, Note_off_c, 0, 60, 60
1, 181625, Note_off_c, 0, 72, 60
1, 181668, Note_on_c, 0, 49, 96
1, 181684, Note_on_c, 0, 37, 73
1, 181685, Note_on_c, 0, 72, 64
1, 181695, Note_on_c, 0, 60, 72
1, 181745, Note_off_c, 0, 60, 60
1, 181766, Note_off_c, 0, 72, 57
1, 181830, Note_on_c, 0, 72, 68
1, 181835, Note_on_c, 0, 60, 77
1, 181883, Note_off_c, 0, 37, 62
1, 181889, Note_off_c, 0, 49, 63
1, 181889, Note_off_c, 0, 60, 58
1, 181912, Note_off_c, 0, 72, 58
1, 181947, Poly_aftertouch_c, 0, 42, 127
1, 181960, Note_on_c, 0, 50, 98
1, 181972, Note_on_c, 0, 38, 77
1, 181977, Note_on_c, 0, 60, 82
1, 181977, Note_on_c, 0, 72, 76
1, 181979, Poly_aftertouch_c, 0, 42, 0
1, 182045, Note_off_c, 0, 60, 61
1, 182061, Note_off_c, 0, 72, 58
1, 182125, Note_on_c, 0, 72, 80
1, 182126, Note_on_c, 0, 60, 88
1, 182128, Note_off_c, 0, 38, 51
1, 182148, Note_off_c, 0, 50, 62
1, 182207, Note_off_c, 0, 60, 61
1, 182207, Note_off_c, 0, 72, 59
1, 182255, Note_on_c, 0, 51, 104
1, 182256, Control_c, 0, 64, 103
1, 182261, Note_on_c, 0, 39, 90
1, 182271, Control_c, 0, 64, 94
1, 182274, Note_on_c, 0, 60, 91
1, 182278, Note_on_c, 0, 72, 84
1, 182300, Control_c, 0, 64, 101
1, 182315, Control_c, 0, 64, 127
1, 182324, Poly_aftertouch_c, 0, 43, 0
1, 182342, Poly_aftertouch_c, 0, 52, 127
1, 182350, Poly_aftertouch_c, 0, 43, 0
1, 182357, Note_off_c, 0, 60, 59
1, 182363, Note_off_c, 0, 72, 60
1, 182381, Poly_aftertouch_c, 0, 52, 0
1, 182437, Note_on_c, 0, 60, 90
1, 182439, Note_on_c, 0, 72, 84
1, 182488, Note_off_c, 0, 39, 59
1, 182506, Note_off_c, 0, 51, 60
1, 182513, Note_off_c, 0, 60, 62
1, 182524, Note_off_c, 0, 72, 57
1, 182579, Note_on_c, 0, 52, 107
1, 182589, Control_c, 0, 64, 98
1, 182592, Note_on_c, 0, 40, 80
1, 182595, Note_on_c, 0, 60, 98
1, 182597, Note_on_c, 0, 72, 87
1, 182604, Control_c, 0, 64, 96
1, 182619, Control_c, 0, 64, 108
1, 182622, Note_on_c, 0, 42, 33
1, 182622, Note_on_c, 0, 41, 47
1, 182634, Control_c, 0, 64, 127
1, 182663, Note_off_c, 0, 41, 32
1, 182681, Note_off_c, 0, 60, 62
1, 182700, Note_off_c, 0, 72, 59
1, 182700, Poly_aftertouch_c, 0, 67, 127
1, 182766, Note_on_c, 0, 60, 91
1, 182770, Note_on_c, 0, 72, 87
1, 182780, Poly_aftertouch_c, 0, 67, 0
1, 182787, Poly_aftertouch_c, 0, 66, 0
1, 182816, Note_on_c, 0, 62, 21
1, 182818, Poly_aftertouch_c, 0, 67, 127
1, 182824, Note_off_c, 0, 40, 38
1, 182833, Note_off_c, 0, 52, 61
1, 182855, Note_off_c, 0, 62, 51
1, 182870, Note_off_c, 0, 60, 57
1, 182872, Note_off_c, 0, 72, 57
1, 182890, Note_off_c, 0, 42, 40
1, 182922, Note_on_c, 0, 53, 112
1, 182931, Control_c, 0, 64, 113
1, 182934, Note_on_c, 0, 41, 87
1, 182935, Poly_aftertouch_c, 0, 67, 0
1, 182936, Poly_aftertouch_c, 0, 48, 0
1, 182937, Note_on_c, 0, 60, 97
1, 182942, Note_on_c, 0, 72, 92
1, 182946, Control_c, 0, 64, 87
1, 182960, Control_c, 0, 64, 75
1, 182963, Note_on_c, 0, 67, 9
1, 182967, Note_on_c, 0, 44, 23
1, 182968, Note_on_c, 0, 43, 42
1, 182975, Control_c, 0, 64, 78
1, 182990, Control_c, 0, 64, 90
1, 183003, Note_off_c, 0, 43, 35
1, 183005, Control_c, 0, 64, 118
1, 183020, Control_c, 0, 64, 127
1, 183027, Note_off_c, 0, 44, 27
1, 183047, Note_off_c, 0, 60, 60
1, 183053, Note_off_c, 0, 72, 57
1, 183128, Note_on_c, 0, 60, 96
1, 183131, Note_on_c, 0, 72, 91
1, 183142, Note_off_c, 0, 67, 0
1, 183142, Note_on_c, 0, 67, 5
1, 183220, Note_off_c, 0, 41, 27
1, 183227, Note_off_c, 0, 53, 59
1, 183258, Note_off_c, 0, 72, 56
1, 183263, Note_off_c, 0, 60, 62
1, 183321, Note_off_c, 0, 67, 0
1, 183322, Note_on_c, 0, 55, 109
1, 183323, Control_c, 0, 64, 109
1, 183332, Note_on_c, 0, 43, 92
1, 183333, Note_on_c, 0, 60, 99
1, 183337, Note_on_c, 0, 72, 94
1, 183338, Control_c, 0, 64, 87
1, 183349, Note_on_c, 0, 67, 32
1, 183352, Note_on_c, 0, 46, 58
1, 183353, Control_c, 0, 64, 79
1, 183367, Control_c, 0, 64, 83
1, 183379, Note_on_c, 0, 62, 26
1, 183379, Note_off_c, 0, 46, 55
1, 183382, Control_c, 0, 64, 95
1, 183397, Control_c, 0, 64, 127
1, 183418, Note_off_c, 0, 62, 52
1, 183465, Note_off_c, 0, 60, 53
1, 183485, Note_off_c, 0, 72, 56
1, 183505, Poly_aftertouch_c, 0, 69, 0
1, 183546, Note_off_c, 0, 67, 0
1, 183567, Note_on_c, 0, 60, 104
1, 183570, Note_on_c, 0, 72, 94
1, 183570, Note_on_c, 0, 67, 37
1, 183596, Note_off_c, 0, 43, 61
1, 183637, Note_off_c, 0, 55, 61
1, 183735, Note_off_c, 0, 67, 38
1, 183754, Note_on_c, 0, 44, 99
1, 183784, Note_off_c, 0, 72, 46
1, 183831, Poly_aftertouch_c, 0, 50, 127
1, 183853, Note_off_c, 0, 60, 29
1, 183866, Poly_aftertouch_c, 0, 50, 0
1, 184006, Note_off_c, 0, 44, 0
1, 184032, Note_on_c, 0, 60, 99
1, 184034, Note_on_c, 0, 72, 96
1, 184036, Note_on_c, 0, 63, 95
1, 184037, Note_on_c, 0, 56, 102
1, 184037, Note_on_c, 0, 68, 88
1, 184045, Note_on_c, 0, 51, 86
1, 184049, Note_on_c, 0, 48, 77
1, 184051, Poly_aftertouch_c, 0, 44, 127
1, 184052, Note_on_c, 0, 44, 18
1, 184073, Control_c, 0, 64, 77
1, 184079, Note_on_c, 0, 62, 22
1, 184083, Note_on_c, 0, 50, 44
1, 184085, Note_on_c, 0, 53, 26
1, 184086, Note_off_c, 0, 53, 127
1, 184088, Control_c, 0, 64, 0
1, 184118, Note_off_c, 0, 62, 38
1, 184127, Note_off_c, 0, 50, 48
1, 184236, Control_c, 0, 64, 84
1, 184251, Control_c, 0, 64, 127
1, 184359, Note_off_c, 0, 63, 57
1, 184363, Note_off_c, 0, 56, 61
1, 184378, Note_off_c, 0, 51, 61
1, 184383, Note_off_c, 0, 48, 62
1, 184387, Note_off_c, 0, 60, 52
1, 184463, Note_on_c, 0, 56, 89
1, 184467, Note_on_c, 0, 60, 84
1, 184467, Note_on_c, 0, 63, 74
1, 184474, Note_on_c, 0, 51, 76
1, 184475, Note_on_c, 0, 48, 72
1, 184510, Note_on_c, 0, 66, 43
1, 184604, Note_off_c, 0, 63, 57
1, 184604, Note_off_c, 0, 60, 57
1, 184610, Note_off_c, 0, 56, 61
1, 184619, Note_off_c, 0, 51, 59
1, 184634, Note_off_c, 0, 48, 56
1, 184652, Note_off_c, 0, 66, 39
1, 184732, Note_on_c, 0, 56, 86
1, 184733, Note_on_c, 0, 60, 80
1, 184735, Note_on_c, 0, 63, 74
1, 184740, Note_on_c, 0, 51, 71
1, 184746, Note_on_c, 0, 48, 72
1, 184834, Note_off_c, 0, 56, 60
1, 184845, Note_off_c, 0, 60, 60
1, 184854, Note_off_c, 0, 51, 61
1, 184858, Note_off_c, 0, 63, 57
1, 184875, Note_off_c, 0, 48, 58
1, 184936, Note_on_c, 0, 56, 86
1, 184938, Note_on_c, 0, 60, 81
1, 184941, Note_on_c, 0, 48, 60
1, 184946, Note_on_c, 0, 63, 80
1, 184954, Note_on_c, 0, 51, 70
1, 185018, Note_off_c, 0, 56, 61
1, 185030, Note_off_c, 0, 60, 57
1, 185036, Note_off_c, 0, 51, 62
1, 185047, Note_off_c, 0, 63, 59
1, 185048, Note_off_c, 0, 48, 60
1, 185112, Note_on_c, 0, 56, 87
1, 185116, Note_off_c, 0, 68, 0
1, 185122, Note_on_c, 0, 60, 80
1, 185124, Note_on_c, 0, 48, 60
1, 185129, Note_on_c, 0, 51, 65
1, 185129, Note_on_c, 0, 63, 74
1, 185153, Poly_aftertouch_c, 0, 68, 127
1, 185166, Note_on_c, 0, 68, 6
1, 185180, Note_off_c, 0, 56, 61
1, 185209, Note_off_c, 0, 51, 62
1, 185211, Note_off_c, 0, 60, 57
1, 185220, Note_off_c, 0, 48, 59
1, 185224, Note_off_c, 0, 68, 50
1, 185232, Note_off_c, 0, 63, 58
1, 185301, Note_on_c, 0, 56, 84
1, 185308, Note_off_c, 0, 72, 43
1, 185309, Note_on_c, 0, 51, 77
1, 185313, Note_on_c, 0, 48, 70
1, 185314, Note_on_c, 0, 60, 76
1, 185320, Note_on_c, 0, 63, 83
1, 185393, Note_off_c, 0, 56, 61
1, 185410, Poly_aftertouch_c, 0, 50, 127
1, 185418, Note_off_c, 0, 60, 60
1, 185426, Note_off_c, 0, 51, 63
1, 185429, Note_off_c, 0, 48, 61
1, 185444, Poly_aftertouch_c, 0, 50, 0
1, 185458, Note_off_c, 0, 63, 61
1, 185491, Note_on_c, 0, 68, 99
1, 185498, Note_on_c, 0, 56, 92
1, 185505, Note_on_c, 0, 60, 84
1, 185511, Note_on_c, 0, 51, 72
1, 185512, Note_on_c, 0, 48, 67
1, 185541, Note_off_c, 0, 60, 58
1, 185568, Note_on_c, 0, 50, 21
1, 185601, Note_off_c, 0, 56, 60
1, 185616, Note_off_c, 0, 50, 51
1, 185632, Note_off_c, 0, 51, 61
1, 185651, Note_off_c, 0, 48, 54
1, 185720, Note_on_c, 0, 60, 87
1, 185724, Note_on_c, 0, 63, 83
1, 185726, Note_on_c, 0, 56, 95
1, 185734, Note_on_c, 0, 48, 58
1, 185738, Note_on_c, 0, 51, 79
1, 185761, Note_off_c, 0, 44, 44
1, 185784, Note_on_c, 0, 66, 32
1, 185787, Note_off_c, 0, 60, 59
1, 185804, Note_off_c, 0, 68, 58
1, 185814, Note_off_c, 0, 56, 61
1, 185825, Note_off_c, 0, 66, 49
1, 185835, Note_off_c, 0, 63, 60
1, 185850, Note_off_c, 0, 51, 60
1, 185860, Note_off_c, 0, 48, 62
1, 185912, Note_on_c, 0, 44, 84
1, 186078, Note_on_c, 0, 55, 104
1, 186085, Note_on_c, 0, 73, 105
1, 186086, Note_on_c, 0, 61, 105
1, 186087, Note_on_c, 0, 52, 81
1, 186089, Note_on_c, 0, 49, 86
1, 186089, Control_c, 0, 64, 73
1, 186090, Note_on_c, 0, 64, 87
1, 186103, Control_c, 0, 64, 0
1, 186178, Note_on_c, 0, 69, 34
1, 186223, Control_c, 0, 64, 74
1, 186225, Note_off_c, 0, 69, 43
1, 186238, Control_c, 0, 64, 104
1, 186252, Control_c, 0, 64, 127
1, 186323, Note_off_c, 0, 55, 58
1, 186330, Note_off_c, 0, 49, 61
1, 186339, Note_off_c, 0, 52, 58
1, 186351, Note_off_c, 0, 61, 51
1, 186356, Note_off_c, 0, 64, 57
1, 186383, Poly_aftertouch_c, 0, 69, 127
1, 186431, Note_on_c, 0, 61, 76
1, 186431, Note_on_c, 0, 64, 60
1, 186433, Note_on_c, 0, 55, 76
1, 186440, Note_on_c, 0, 49, 76
1, 186447, Note_on_c, 0, 52, 70
1, 186487, Note_off_c, 0, 55, 63
1, 186501, Note_off_c, 0, 61, 62
1, 186512, Note_off_c, 0, 52, 57
1, 186512, Note_off_c, 0, 64, 63
1, 186520, Note_off_c, 0, 49, 62
1, 186580, Note_on_c, 0, 61, 79
1, 186582, Note_on_c, 0, 64, 64
1, 186583, Note_on_c, 0, 55, 77
1, 186590, Note_on_c, 0, 49, 68
1, 186595, Note_on_c, 0, 52, 62
1, 186632, Note_off_c, 0, 55, 63
1, 186643, Note_off_c, 0, 61, 61
1, 186665, Note_off_c, 0, 52, 53
1, 186667, Note_off_c, 0, 64, 62
1, 186668, Note_off_c, 0, 49, 59
1, 186723, Note_on_c, 0, 55, 73
1, 186725, Note_on_c, 0, 52, 52
1, 186725, Note_on_c, 0, 64, 60
1, 186731, Note_on_c, 0, 61, 75
1, 186733, Note_on_c, 0, 49, 59
1, 186766, Note_off_c, 0, 55, 60
1, 186796, Note_off_c, 0, 73, 59
1, 186799, Note_off_c, 0, 49, 61
1, 186800, Note_off_c, 0, 52, 60
1, 186819, Poly_aftertouch_c, 0, 69, 0
1, 186822, Note_off_c, 0, 61, 56
1, 186839, Note_off_c, 0, 64, 63
1, 186865, Note_on_c, 0, 55, 75
1, 186871, Note_on_c, 0, 49, 64
1, 186871, Note_on_c, 0, 52, 53
1, 186910, Note_off_c, 0, 55, 55
1, 186924, Note_on_c, 0, 70, 92
1, 186925, Note_on_c, 0, 58, 95
1, 186949, Note_off_c, 0, 52, 59
1, 186954, Note_off_c, 0, 49, 59
1, 186989, Note_off_c, 0, 58, 47
1, 187055, Note_on_c, 0, 49, 70
1, 187056, Note_on_c, 0, 52, 63
1, 187062, Note_on_c, 0, 64, 55
1, 187069, Note_off_c, 0, 70, 62
1, 187083, Note_on_c, 0, 61, 66
1, 187115, Note_off_c, 0, 52, 59
1, 187123, Note_off_c, 0, 64, 63
1, 187133, Note_off_c, 0, 49, 62
1, 187136, Poly_aftertouch_c, 0, 55, 0
1, 187141, Note_off_c, 0, 61, 59
1, 187197, Note_on_c, 0, 67, 90
1, 187200, Note_on_c, 0, 55, 96
1, 187204, Note_on_c, 0, 49, 59
1, 187213, Note_on_c, 0, 52, 60
1, 187248, Note_on_c, 0, 57, 20
1, 187268, Note_off_c, 0, 52, 55
1, 187281, Note_off_c, 0, 49, 60
1, 187288, Note_off_c, 0, 55, 55
1, 187290, Note_off_c, 0, 57, 30
1, 187355, Note_on_c, 0, 55, 65
1, 187365, Note_on_c, 0, 52, 53
1, 187368, Note_on_c, 0, 49, 60
1, 187370, Note_on_c, 0, 64, 67
1, 187373, Note_on_c, 0, 61, 64
1, 187377, Note_off_c, 0, 55, 66
1, 187388, Note_off_c, 0, 67, 56
1, 187404, Note_off_c, 0, 61, 61
1, 187412, Note_off_c, 0, 49, 59
1, 187415, Note_off_c, 0, 52, 62
1, 187423, Note_off_c, 0, 64, 62
1, 187495, Note_on_c, 0, 64, 75
1, 187497, Note_on_c, 0, 55, 69
1, 187513, Note_on_c, 0, 52, 61
1, 187513, Note_on_c, 0, 49, 65
1, 187513, Note_on_c, 0, 61, 54
1, 187543, Note_off_c, 0, 55, 58
1, 187552, Note_off_c, 0, 61, 58
1, 187564, Note_off_c, 0, 64, 63
1, 187579, Note_off_c, 0, 49, 59
1, 187579, Note_off_c, 0, 52, 58
1, 187652, Note_on_c, 0, 70, 96
1, 187653, Note_on_c, 0, 58, 98
1, 187659, Note_on_c, 0, 55, 74
1, 187674, Note_on_c, 0, 52, 61
1, 187676, Note_on_c, 0, 49, 65
1, 187717, Note_off_c, 0, 55, 58
1, 187758, Note_off_c, 0, 49, 60
1, 187761, Note_on_c, 0, 66, 20
1, 187763, Note_off_c, 0, 52, 58
1, 187846, Note_on_c, 0, 55, 76
1, 187856, Note_on_c, 0, 64, 69
1, 187860, Note_on_c, 0, 61, 66
1, 187862, Note_on_c, 0, 52, 66
1, 187864, Note_on_c, 0, 49, 74
1, 187877, Note_off_c, 0, 55, 56
1, 187949, Note_off_c, 0, 61, 57
1, 187952, Note_off_c, 0, 64, 59
1, 187966, Note_off_c, 0, 52, 58
1, 187983, Note_off_c, 0, 49, 61
1, 188026, Note_off_c, 0, 66, 42
1, 188044, Note_on_c, 0, 52, 65
1, 188044, Note_on_c, 0, 61, 66
1, 188044, Note_on_c, 0, 64, 75
1, 188050, Note_on_c, 0, 49, 62
1, 188054, Note_on_c, 0, 55, 62
1, 188090, Note_off_c, 0, 55, 61
1, 188121, Note_off_c, 0, 70, 57
1, 188124, Note_off_c, 0, 52, 59
1, 188135, Note_off_c, 0, 49, 63
1, 188166, Note_off_c, 0, 44, 58
1, 188175, Note_off_c, 0, 64, 63
1, 188188, Note_off_c, 0, 61, 53
1, 188212, Note_off_c, 0, 58, 40
1, 188347, Note_on_c, 0, 44, 95
1, 188348, Note_on_c, 0, 63, 78
1, 188348, Note_on_c, 0, 68, 87
1, 188350, Note_on_c, 0, 56, 93
1, 188350, Control_c, 0, 64, 79
1, 188351, Note_on_c, 0, 60, 70
1, 188363, Note_on_c, 0, 32, 71
1, 188365, Control_c, 0, 64, 0
1, 188378, Note_on_c, 0, 34, 43
1, 188447, Note_off_c, 0, 34, 45
1, 188468, Control_c, 0, 64, 60
1, 188483, Control_c, 0, 64, 70
1, 188497, Control_c, 0, 64, 83
1, 188512, Control_c, 0, 64, 102
1, 188535, Control_c, 0, 64, 127
1, 188657, Note_off_c, 0, 32, 54
1, 188667, Note_off_c, 0, 56, 56
1, 188685, Note_off_c, 0, 60, 58
1, 188694, Note_off_c, 0, 44, 60
1, 188718, Note_off_c, 0, 63, 54
1, 188843, Note_on_c, 0, 63, 57
1, 188864, Note_on_c, 0, 60, 44
1, 188872, Note_on_c, 0, 56, 61
1, 188880, Note_on_c, 0, 48, 49
1, 188888, Note_on_c, 0, 51, 46
1, 188968, Note_off_c, 0, 51, 57
1, 188974, Note_off_c, 0, 63, 55
1, 188989, Note_off_c, 0, 48, 56
1, 188999, Note_off_c, 0, 56, 36
1, 189019, Note_off_c, 0, 60, 36
1, 189115, Note_on_c, 0, 56, 60
1, 189118, Note_on_c, 0, 63, 56
1, 189127, Note_on_c, 0, 48, 53
1, 189131, Note_on_c, 0, 51, 49
1, 189143, Note_on_c, 0, 60, 53
1, 189195, Note_on_c, 0, 64, 19
1, 189204, Note_off_c, 0, 56, 54
1, 189205, Note_off_c, 0, 51, 53
1, 189212, Note_off_c, 0, 48, 54
1, 189214, Note_off_c, 0, 63, 59
1, 189258, Note_off_c, 0, 60, 36
1, 189333, Note_on_c, 0, 56, 53
1, 189336, Note_on_c, 0, 63, 59
1, 189351, Note_on_c, 0, 60, 34
1, 189359, Note_on_c, 0, 51, 38
1, 189376, Note_off_c, 0, 63, 54
1, 189387, Note_on_c, 0, 48, 19
1, 189392, Note_off_c, 0, 56, 50
1, 189396, Note_off_c, 0, 51, 54
1, 189406, Note_off_c, 0, 60, 51
1, 189433, Note_off_c, 0, 48, 52
1, 189507, Note_on_c, 0, 63, 51
1, 189526, Note_on_c, 0, 51, 34
1, 189527, Note_on_c, 0, 60, 46
1, 189528, Note_on_c, 0, 56, 49
1, 189552, Note_on_c, 0, 48, 40
1, 189573, Note_off_c, 0, 60, 57
1, 189574, Note_off_c, 0, 56, 54
1, 189579, Note_off_c, 0, 63, 58
1, 189582, Note_off_c, 0, 51, 51
1, 189588, Note_off_c, 0, 48, 53
1, 189689, Note_on_c, 0, 56, 53
1, 189697, Note_on_c, 0, 63, 56
1, 189701, Note_on_c, 0, 48, 42
1, 189701, Note_on_c, 0, 60, 40
1, 189716, Note_on_c, 0, 51, 43
1, 189738, Note_off_c, 0, 60, 53
1, 189742, Note_off_c, 0, 56, 53
1, 189744, Note_off_c, 0, 63, 54
1, 189749, Note_off_c, 0, 48, 55
1, 189754, Note_off_c, 0, 51, 60
1, 189773, Control_c, 0, 67, 8
1, 189788, Control_c, 0, 67, 8
1, 189802, Control_c, 0, 67, 10
1, 189817, Control_c, 0, 67, 12
1, 189832, Control_c, 0, 67, 15
1, 189847, Control_c, 0, 67, 17
1, 189858, Note_on_c, 0, 63, 51
1, 189862, Control_c, 0, 67, 19
1, 189864, Note_on_c, 0, 56, 51
1, 189866, Note_on_c, 0, 60, 42
1, 189875, Note_on_c, 0, 51, 39
1, 189877, Control_c, 0, 67, 21
1, 189883, Note_on_c, 0, 48, 44
1, 189892, Control_c, 0, 67, 25
1, 189907, Control_c, 0, 64, 126
1, 189907, Control_c, 0, 67, 29
1, 189914, Note_off_c, 0, 56, 54
1, 189916, Note_off_c, 0, 60, 51
1, 189921, Note_off_c, 0, 51, 57
1, 189922, Control_c, 0, 64, 120
1, 189922, Control_c, 0, 67, 33
1, 189927, Note_off_c, 0, 48, 57
1, 189931, Note_off_c, 0, 63, 53
1, 189937, Control_c, 0, 64, 118
1, 189937, Control_c, 0, 67, 37
1, 189951, Control_c, 0, 64, 116
1, 189951, Control_c, 0, 67, 40
1, 189966, Control_c, 0, 64, 115
1, 189966, Control_c, 0, 67, 42
1, 189981, Control_c, 0, 64, 114
1, 189981, Control_c, 0, 67, 45
1, 189996, Control_c, 0, 64, 113
1, 189996, Control_c, 0, 67, 46
1, 190011, Control_c, 0, 64, 112
1, 190011, Control_c, 0, 67, 47
1, 190032, Control_c, 0, 64, 111
1, 190032, Control_c, 0, 67, 48
1, 190047, Control_c, 0, 64, 110
1, 190056, Note_on_c, 0, 56, 41
1, 190059, Note_on_c, 0, 63, 48
1, 190062, Control_c, 0, 64, 109
1, 190063, Note_on_c, 0, 48, 42
1, 190063, Note_on_c, 0, 60, 38
1, 190067, Note_on_c, 0, 51, 35
1, 190077, Control_c, 0, 64, 109
1, 190077, Control_c, 0, 67, 48
1, 190092, Control_c, 0, 64, 108
1, 190105, Note_off_c, 0, 63, 56
1, 190112, Note_off_c, 0, 60, 47
1, 190113, Note_off_c, 0, 48, 55
1, 190113, Note_off_c, 0, 56, 45
1, 190122, Control_c, 0, 64, 108
1, 190122, Control_c, 0, 67, 48
1, 190130, Note_off_c, 0, 51, 44
1, 190151, Control_c, 0, 64, 107
1, 190166, Control_c, 0, 67, 47
1, 190181, Control_c, 0, 67, 46
1, 190196, Control_c, 0, 67, 44
1, 190211, Control_c, 0, 67, 42
1, 190226, Control_c, 0, 67, 39
1, 190229, Note_on_c, 0, 63, 47
1, 190241, Control_c, 0, 67, 36
1, 190244, Note_on_c, 0, 60, 34
1, 190253, Note_on_c, 0, 56, 31
1, 190256, Control_c, 0, 67, 32
1, 190270, Control_c, 0, 67, 29
1, 190271, Note_on_c, 0, 48, 16
1, 190274, Note_on_c, 0, 51, 21
1, 190280, Note_off_c, 0, 63, 54
1, 190285, Control_c, 0, 67, 25
1, 190287, Note_off_c, 0, 60, 49
1, 190300, Control_c, 0, 67, 22
1, 190302, Note_off_c, 0, 56, 46
1, 190322, Note_off_c, 0, 51, 50
1, 190328, Note_off_c, 0, 48, 47
1, 190330, Control_c, 0, 67, 23
1, 190345, Control_c, 0, 67, 24
1, 190359, Control_c, 0, 67, 25
1, 190374, Control_c, 0, 67, 27
1, 190389, Control_c, 0, 67, 28
1, 190404, Control_c, 0, 64, 107
1, 190404, Control_c, 0, 67, 30
1, 190419, Control_c, 0, 67, 31
1, 190433, Control_c, 0, 64, 106
1, 190433, Control_c, 0, 67, 32
1, 190439, Note_on_c, 0, 63, 43
1, 190448, Control_c, 0, 64, 106
1, 190453, Note_on_c, 0, 60, 20
1, 190462, Note_on_c, 0, 56, 40
1, 190463, Control_c, 0, 64, 105
1, 190466, Note_on_c, 0, 51, 36
1, 190467, Note_on_c, 0, 48, 38
1, 190477, Control_c, 0, 64, 104
1, 190477, Control_c, 0, 67, 33
1, 190492, Control_c, 0, 64, 103
1, 190492, Control_c, 0, 67, 33
1, 190503, Note_off_c, 0, 63, 50
1, 190507, Control_c, 0, 64, 102
1, 190507, Control_c, 0, 67, 35
1, 190522, Control_c, 0, 64, 102
1, 190522, Control_c, 0, 67, 39
1, 190523, Note_off_c, 0, 60, 40
1, 190536, Note_off_c, 0, 48, 46
1, 190537, Control_c, 0, 64, 101
1, 190537, Control_c, 0, 67, 45
1, 190544, Note_off_c, 0, 51, 41
1, 190548, Note_off_c, 0, 56, 39
1, 190551, Control_c, 0, 64, 100
1, 190551, Control_c, 0, 67, 50
1, 190566, Control_c, 0, 64, 99
1, 190566, Control_c, 0, 67, 53
1, 190581, Control_c, 0, 64, 99
1, 190581, Control_c, 0, 67, 55
1, 190596, Control_c, 0, 64, 98
1, 190596, Control_c, 0, 67, 57
1, 190611, Control_c, 0, 64, 98
1, 190611, Control_c, 0, 67, 59
1, 190625, Control_c, 0, 64, 97
1, 190625, Control_c, 0, 67, 60
1, 190641, Control_c, 0, 64, 97
1, 190641, Control_c, 0, 67, 61
1, 190656, Control_c, 0, 64, 96
1, 190656, Control_c, 0, 67, 62
1, 190671, Control_c, 0, 64, 96
1, 190671, Control_c, 0, 67, 64
1, 190681, Note_on_c, 0, 63, 37
1, 190686, Control_c, 0, 64, 95
1, 190686, Control_c, 0, 67, 67
1, 190692, Note_on_c, 0, 60, 33
1, 190700, Control_c, 0, 64, 95
1, 190700, Control_c, 0, 67, 70
1, 190705, Note_on_c, 0, 56, 35
1, 190715, Control_c, 0, 67, 73
1, 190717, Note_on_c, 0, 48, 33
1, 190726, Note_on_c, 0, 51, 24
1, 190730, Control_c, 0, 64, 94
1, 190730, Control_c, 0, 67, 77
1, 190745, Control_c, 0, 64, 94
1, 190745, Control_c, 0, 67, 80
1, 190746, Note_off_c, 0, 63, 49
1, 190760, Control_c, 0, 64, 93
1, 190760, Control_c, 0, 67, 83
1, 190779, Note_off_c, 0, 51, 48
1, 190782, Control_c, 0, 64, 93
1, 190782, Control_c, 0, 67, 86
1, 190786, Note_off_c, 0, 60, 34
1, 190786, Note_off_c, 0, 48, 42
1, 190795, Note_off_c, 0, 56, 38
1, 190797, Control_c, 0, 67, 89
1, 190812, Control_c, 0, 64, 92
1, 190812, Control_c, 0, 67, 93
1, 190827, Control_c, 0, 67, 96
1, 190842, Control_c, 0, 64, 92
1, 190842, Control_c, 0, 67, 98
1, 190856, Control_c, 0, 67, 100
1, 190871, Control_c, 0, 64, 91
1, 190871, Control_c, 0, 67, 101
1, 190886, Control_c, 0, 64, 91
1, 190886, Control_c, 0, 67, 103
1, 190900, Control_c, 0, 64, 90
1, 190900, Control_c, 0, 67, 105
1, 190915, Control_c, 0, 64, 90
1, 190915, Control_c, 0, 67, 106
1, 190930, Control_c, 0, 64, 89
1, 190930, Control_c, 0, 67, 106
1, 190945, Control_c, 0, 64, 89
1, 190945, Control_c, 0, 67, 108
1, 190960, Control_c, 0, 64, 88
1, 190960, Control_c, 0, 67, 110
1, 190974, Control_c, 0, 64, 87
1, 190974, Control_c, 0, 67, 112
1, 190987, Note_on_c, 0, 63, 41
1, 190989, Control_c, 0, 64, 87
1, 190989, Control_c, 0, 67, 114
1, 191004, Control_c, 0, 64, 86
1, 191004, Control_c, 0, 67, 116
1, 191006, Note_on_c, 0, 56, 26
1, 191019, Control_c, 0, 64, 85
1, 191019, Control_c, 0, 67, 118
1, 191025, Note_on_c, 0, 48, 24
1, 191034, Poly_aftertouch_c, 0, 60, 127
1, 191034, Control_c, 0, 64, 85
1, 191034, Control_c, 0, 67, 121
1, 191038, Note_on_c, 0, 51, 21
1, 191049, Control_c, 0, 67, 124
1, 191064, Control_c, 0, 67, 126
1, 191079, Control_c, 0, 64, 84
1, 191079, Control_c, 0, 67, 127
1, 191091, Note_off_c, 0, 63, 37
1, 191096, Poly_aftertouch_c, 0, 60, 0
1, 191103, Note_off_c, 0, 51, 43
1, 191108, Control_c, 0, 64, 84
1, 191129, Note_off_c, 0, 56, 33
1, 191138, Control_c, 0, 64, 83
1, 191138, Note_off_c, 0, 48, 29
1, 191167, Control_c, 0, 64, 83
1, 191212, Control_c, 0, 64, 82
1, 191256, Control_c, 0, 64, 82
1, 191286, Control_c, 0, 64, 81
1, 191315, Control_c, 0, 64, 81
1, 191330, Control_c, 0, 64, 80
1, 191345, Control_c, 0, 64, 80
1, 191374, Control_c, 0, 64, 79
1, 191389, Control_c, 0, 64, 78
1, 191404, Control_c, 0, 64, 77
1, 191418, Control_c, 0, 64, 76
1, 191426, Note_on_c, 0, 63, 38
1, 191433, Control_c, 0, 64, 75
1, 191450, Note_on_c, 0, 56, 27
1, 191450, Control_c, 0, 64, 72
1, 191462, Note_on_c, 0, 60, 19
1, 191464, Control_c, 0, 64, 69
1, 191473, Note_on_c, 0, 48, 29
1, 191479, Note_on_c, 0, 51, 30
1, 191479, Control_c, 0, 64, 65
1, 191494, Control_c, 0, 64, 58
1, 191509, Control_c, 0, 64, 34
1, 191531, Control_c, 0, 64, 0
1, 191886, Control_c, 0, 64, 26
1, 191901, Control_c, 0, 64, 42
1, 191915, Control_c, 0, 64, 52
1, 191930, Control_c, 0, 64, 57
1, 191945, Control_c, 0, 64, 61
1, 191960, Control_c, 0, 64, 64
1, 191975, Control_c, 0, 64, 67
1, 191989, Control_c, 0, 64, 69
1, 192004, Control_c, 0, 64, 72
1, 192019, Control_c, 0, 64, 75
1, 192034, Control_c, 0, 64, 78
1, 192048, Control_c, 0, 64, 79
1, 192066, Note_off_c, 0, 64, 1
1, 192108, Control_c, 0, 64, 78
1, 192115, Note_off_c, 0, 51, 23
1, 192122, Note_off_c, 0, 56, 27
1, 192137, Control_c, 0, 64, 78
1, 192167, Control_c, 0, 64, 77
1, 192182, Control_c, 0, 64, 77
1, 192198, Note_off_c, 0, 48, 25
1, 192209, Note_off_c, 0, 60, 16
1, 192211, Control_c, 0, 64, 76
1, 192226, Control_c, 0, 64, 76
1, 192257, Control_c, 0, 64, 75
1, 192258, Note_off_c, 0, 63, 16
1, 192295, Control_c, 0, 64, 75
1, 192324, Control_c, 0, 64, 74
1, 192353, Control_c, 0, 64, 74
1, 192368, Control_c, 0, 64, 73
1, 192387, Note_off_c, 0, 68, 21
1, 192398, Control_c, 0, 64, 73
1, 192442, Control_c, 0, 64, 72
1, 192471, Control_c, 0, 64, 72
1, 192501, Control_c, 0, 64, 71
1, 192516, Control_c, 0, 64, 71
1, 192531, Control_c, 0, 64, 70
1, 192545, Control_c, 0, 64, 69
1, 192590, Control_c, 0, 64, 69
1, 192605, Control_c, 0, 64, 68
1, 192635, Control_c, 0, 64, 68
1, 192649, Control_c, 0, 64, 67
1, 192664, Control_c, 0, 64, 67
1, 192679, Control_c, 0, 64, 66
1, 192694, Control_c, 0, 64, 66
1, 192709, Control_c, 0, 64, 65
1, 192724, Control_c, 0, 64, 65
1, 192738, Control_c, 0, 64, 64
1, 192783, Control_c, 0, 64, 64
1, 192812, Control_c, 0, 64, 63
1, 192827, Control_c, 0, 64, 62
1, 192842, Control_c, 0, 64, 61
1, 192857, Control_c, 0, 64, 60
1, 192871, Control_c, 0, 64, 59
1, 192886, Control_c, 0, 64, 58
1, 192901, Control_c, 0, 64, 57
1, 192916, Control_c, 0, 64, 56
1, 192931, Control_c, 0, 64, 55
1, 192945, Control_c, 0, 64, 54
1, 192960, Control_c, 0, 64, 53
1, 193005, Control_c, 0, 64, 52
1, 193117, Control_c, 0, 64, 53
1, 193147, Control_c, 0, 64, 53
1, 193162, Control_c, 0, 64, 54
1, 193176, Control_c, 0, 64, 54
1, 193191, Control_c, 0, 64, 55
1, 193207, Control_c, 0, 64, 55
1, 193237, Control_c, 0, 64, 56
1, 193251, Control_c, 0, 64, 56
1, 193281, Control_c, 0, 64, 57
1, 193340, Control_c, 0, 64, 57
1, 193369, Control_c, 0, 64, 58
1, 193384, Control_c, 0, 64, 58
1, 193399, Control_c, 0, 64, 59
1, 193429, Control_c, 0, 64, 59
1, 193443, Control_c, 0, 64, 60
1, 193473, Control_c, 0, 64, 60
1, 193517, Control_c, 0, 64, 61
1, 193532, Control_c, 0, 64, 61
1, 193591, Control_c, 0, 64, 62
1, 193621, Control_c, 0, 64, 62
1, 193681, Control_c, 0, 64, 63
1, 193710, Control_c, 0, 64, 63
1, 193821, Control_c, 0, 64, 64
1, 193865, Note_on_c, 0, 68, 36
1, 193866, Control_c, 0, 64, 64
1, 193881, Note_on_c, 0, 56, 28
1, 193881, Control_c, 0, 64, 65
1, 193896, Control_c, 0, 64, 65
1, 193925, Control_c, 0, 64, 66
1, 193940, Control_c, 0, 64, 66
1, 193955, Control_c, 0, 64, 68
1, 193970, Control_c, 0, 64, 69
1, 193985, Control_c, 0, 64, 71
1, 194000, Control_c, 0, 64, 72
1, 194015, Control_c, 0, 64, 73
1, 194030, Control_c, 0, 64, 74
1, 194045, Control_c, 0, 64, 76
1, 194059, Control_c, 0, 64, 79
1, 194074, Control_c, 0, 64, 82
1, 194089, Control_c, 0, 64, 86
1, 194104, Control_c, 0, 64, 89
1, 194118, Control_c, 0, 64, 90
1, 194133, Control_c, 0, 64, 91
1, 194163, Control_c, 0, 64, 91
1, 194240, Note_off_c, 0, 56, 44
1, 194242, Note_off_c, 0, 68, 47
1, 194296, Control_c, 0, 64, 91
1, 194310, Control_c, 0, 64, 90
1, 194340, Control_c, 0, 64, 90
1, 194350, Note_on_c, 0, 68, 62
1, 194355, Control_c, 0, 64, 89
1, 194359, Note_on_c, 0, 56, 45
1, 194370, Control_c, 0, 64, 89
1, 194384, Control_c, 0, 64, 88
1, 194399, Control_c, 0, 64, 88
1, 194444, Control_c, 0, 64, 87
1, 194474, Control_c, 0, 64, 87
1, 194489, Control_c, 0, 64, 86
1, 194504, Control_c, 0, 64, 86
1, 194525, Control_c, 0, 64, 85
1, 194540, Control_c, 0, 64, 85
1, 194555, Control_c, 0, 64, 84
1, 194570, Control_c, 0, 64, 83
1, 194585, Control_c, 0, 64, 82
1, 194599, Control_c, 0, 64, 82
1, 194614, Control_c, 0, 64, 81
1, 194629, Control_c, 0, 64, 80
1, 194644, Note_on_c, 0, 70, 72
1, 194645, Control_c, 0, 64, 79
1, 194653, Note_on_c, 0, 58, 40
1, 194656, Note_off_c, 0, 56, 25
1, 194660, Control_c, 0, 64, 78
1, 194674, Control_c, 0, 64, 77
1, 194689, Control_c, 0, 64, 76
1, 194704, Control_c, 0, 64, 75
1, 194712, Note_off_c, 0, 68, 54
1, 194719, Control_c, 0, 64, 73
1, 194734, Control_c, 0, 64, 71
1, 194748, Control_c, 0, 64, 69
1, 194763, Control_c, 0, 64, 67
1, 194778, Control_c, 0, 64, 66
1, 194793, Control_c, 0, 64, 65
1, 194808, Control_c, 0, 67, 126
1, 194823, Control_c, 0, 67, 125
1, 194837, Control_c, 0, 67, 124
1, 194852, Control_c, 0, 64, 65
1, 194852, Control_c, 0, 67, 122
1, 194867, Control_c, 0, 64, 64
1, 194867, Control_c, 0, 67, 120
1, 194882, Control_c, 0, 64, 64
1, 194882, Control_c, 0, 67, 118
1, 194897, Control_c, 0, 64, 63
1, 194897, Control_c, 0, 67, 115
1, 194912, Control_c, 0, 64, 63
1, 194912, Control_c, 0, 67, 109
1, 194927, Control_c, 0, 64, 62
1, 194927, Control_c, 0, 67, 101
1, 194929, Note_on_c, 0, 72, 60
1, 194941, Control_c, 0, 64, 61
1, 194941, Control_c, 0, 67, 92
1, 194948, Note_on_c, 0, 60, 29
1, 194956, Control_c, 0, 64, 60
1, 194956, Control_c, 0, 67, 84
1, 194971, Control_c, 0, 64, 59
1, 194971, Control_c, 0, 67, 76
1, 194972, Note_off_c, 0, 58, 26
1, 194986, Control_c, 0, 64, 58
1, 194986, Control_c, 0, 67, 67
1, 194989, Note_off_c, 0, 70, 52
1, 195001, Control_c, 0, 64, 56
1, 195001, Control_c, 0, 67, 58
1, 195015, Control_c, 0, 64, 51
1, 195015, Control_c, 0, 67, 48
1, 195030, Control_c, 0, 64, 43
1, 195030, Control_c, 0, 67, 38
1, 195045, Control_c, 0, 64, 31
1, 195045, Control_c, 0, 67, 32
1, 195060, Control_c, 0, 64, 23
1, 195060, Control_c, 0, 67, 26
1, 195074, Control_c, 0, 67, 20
1, 195089, Control_c, 0, 67, 12
1, 195104, Control_c, 0, 67, 0
1, 195119, Control_c, 0, 64, 24
1, 195133, Control_c, 0, 64, 32
1, 195148, Control_c, 0, 64, 43
1, 195163, Control_c, 0, 64, 49
1, 195178, Control_c, 0, 64, 53
1, 195193, Control_c, 0, 64, 54
1, 195252, Control_c, 0, 64, 54
1, 195556, Control_c, 0, 64, 53
1, 195630, Control_c, 0, 64, 53
1, 195675, Control_c, 0, 64, 52
1, 195689, Control_c, 0, 64, 52
1, 195689, Control_c, 0, 67, 8
1, 195704, Control_c, 0, 67, 9
1, 195719, Control_c, 0, 67, 11
1, 195734, Control_c, 0, 67, 12
1, 195749, Control_c, 0, 64, 51
1, 195749, Control_c, 0, 67, 13
1, 195763, Control_c, 0, 64, 51
1, 195763, Control_c, 0, 67, 14
1, 195778, Control_c, 0, 67, 15
1, 195793, Control_c, 0, 67, 16
1, 195808, Control_c, 0, 64, 50
1, 195808, Control_c, 0, 67, 18
1, 195823, Control_c, 0, 67, 21
1, 195825, Note_on_c, 0, 70, 45
1, 195837, Control_c, 0, 67, 24
1, 195842, Note_on_c, 0, 58, 30
1, 195852, Control_c, 0, 67, 28
1, 195867, Control_c, 0, 64, 49
1, 195867, Control_c, 0, 67, 32
1, 195881, Control_c, 0, 67, 36
1, 195896, Control_c, 0, 67, 39
1, 195911, Control_c, 0, 64, 49
1, 195911, Control_c, 0, 67, 42
1, 195926, Control_c, 0, 67, 44
1, 195941, Control_c, 0, 67, 45
1, 195956, Control_c, 0, 67, 46
1, 195970, Control_c, 0, 67, 46
1, 195985, Control_c, 0, 64, 48
1, 195985, Control_c, 0, 67, 47
1, 195988, Note_off_c, 0, 60, 30
1, 195995, Note_off_c, 0, 72, 32
1, 196000, Control_c, 0, 67, 47
1, 196022, Control_c, 0, 67, 48
1, 196037, Control_c, 0, 67, 49
1, 196052, Control_c, 0, 64, 48
1, 196052, Control_c, 0, 67, 50
1, 196067, Control_c, 0, 67, 52
1, 196082, Control_c, 0, 67, 53
1, 196096, Control_c, 0, 64, 47
1, 196096, Control_c, 0, 67, 54
1, 196111, Control_c, 0, 67, 56
1, 196126, Control_c, 0, 64, 47
1, 196126, Control_c, 0, 67, 58
1, 196141, Control_c, 0, 67, 59
1, 196156, Control_c, 0, 67, 61
1, 196170, Control_c, 0, 67, 62
1, 196185, Control_c, 0, 64, 46
1, 196185, Control_c, 0, 67, 63
1, 196201, Control_c, 0, 64, 46
1, 196201, Control_c, 0, 67, 64
1, 196215, Control_c, 0, 64, 45
1, 196215, Control_c, 0, 67, 65
1, 196230, Control_c, 0, 67, 67
1, 196247, Control_c, 0, 67, 68
1, 196261, Control_c, 0, 64, 45
1, 196261, Control_c, 0, 67, 69
1, 196276, Control_c, 0, 67, 70
1, 196291, Control_c, 0, 67, 72
1, 196306, Control_c, 0, 64, 44
1, 196306, Control_c, 0, 67, 73
1, 196320, Control_c, 0, 67, 75
1, 196335, Control_c, 0, 67, 76
1, 196350, Control_c, 0, 64, 44
1, 196350, Control_c, 0, 67, 77
1, 196365, Control_c, 0, 67, 79
1, 196380, Control_c, 0, 67, 80
1, 196394, Control_c, 0, 67, 82
1, 196409, Control_c, 0, 67, 83
1, 196424, Control_c, 0, 64, 43
1, 196424, Control_c, 0, 67, 85
1, 196438, Control_c, 0, 67, 86
1, 196453, Control_c, 0, 67, 87
1, 196461, Note_on_c, 0, 68, 41
1, 196468, Control_c, 0, 67, 88
1, 196483, Control_c, 0, 67, 90
1, 196489, Note_on_c, 0, 56, 23
1, 196498, Control_c, 0, 67, 92
1, 196513, Control_c, 0, 67, 93
1, 196528, Control_c, 0, 64, 44
1, 196528, Control_c, 0, 67, 96
1, 196543, Control_c, 0, 64, 44
1, 196543, Control_c, 0, 67, 99
1, 196557, Control_c, 0, 64, 45
1, 196557, Control_c, 0, 67, 101
1, 196572, Control_c, 0, 64, 47
1, 196572, Control_c, 0, 67, 103
1, 196587, Control_c, 0, 64, 49
1, 196587, Control_c, 0, 67, 104
1, 196602, Control_c, 0, 64, 50
1, 196602, Control_c, 0, 67, 105
1, 196617, Control_c, 0, 64, 51
1, 196617, Control_c, 0, 67, 106
1, 196619, Note_off_c, 0, 58, 38
1, 196631, Control_c, 0, 64, 53
1, 196631, Control_c, 0, 67, 107
1, 196632, Note_off_c, 0, 70, 35
1, 196646, Control_c, 0, 64, 55
1, 196646, Control_c, 0, 67, 109
1, 196661, Control_c, 0, 64, 57
1, 196661, Control_c, 0, 67, 110
1, 196676, Control_c, 0, 64, 59
1, 196676, Control_c, 0, 67, 110
1, 196691, Control_c, 0, 64, 60
1, 196691, Control_c, 0, 67, 111
1, 196705, Control_c, 0, 64, 61
1, 196705, Control_c, 0, 67, 111
1, 196720, Control_c, 0, 64, 62
1, 196720, Control_c, 0, 67, 113
1, 196735, Control_c, 0, 64, 63
1, 196735, Control_c, 0, 67, 114
1, 196750, Control_c, 0, 64, 64
1, 196750, Control_c, 0, 67, 115
1, 196772, Control_c, 0, 64, 65
1, 196772, Control_c, 0, 67, 117
1, 196787, Control_c, 0, 64, 66
1, 196787, Control_c, 0, 67, 118
1, 196802, Control_c, 0, 64, 67
1, 196802, Control_c, 0, 67, 118
1, 196817, Control_c, 0, 64, 69
1, 196817, Control_c, 0, 67, 120
1, 196832, Control_c, 0, 64, 71
1, 196832, Control_c, 0, 67, 121
1, 196846, Control_c, 0, 64, 74
1, 196846, Control_c, 0, 67, 121
1, 196861, Control_c, 0, 64, 77
1, 196861, Control_c, 0, 67, 122
1, 196876, Control_c, 0, 64, 79
1, 196876, Control_c, 0, 67, 123
1, 196891, Control_c, 0, 64, 82
1, 196891, Control_c, 0, 67, 123
1, 196906, Control_c, 0, 64, 85
1, 196906, Control_c, 0, 67, 125
1, 196920, Control_c, 0, 64, 89
1, 196920, Control_c, 0, 67, 125
1, 196935, Control_c, 0, 64, 92
1, 196935, Control_c, 0, 67, 126
1, 196950, Control_c, 0, 64, 93
1, 196950, Control_c, 0, 67, 126
1, 196965, Control_c, 0, 64, 94
1, 196965, Control_c, 0, 67, 127
1, 196980, Control_c, 0, 67, 127
1, 196994, Control_c, 0, 64, 94
1, 197143, Control_c, 0, 64, 94
1, 197150, Note_off_c, 0, 68, 28
1, 197173, Control_c, 0, 64, 93
1, 197203, Control_c, 0, 64, 93
1, 197217, Control_c, 0, 64, 92
1, 197232, Control_c, 0, 64, 92
1, 197247, Control_c, 0, 64, 91
1, 197261, Control_c, 0, 64, 90
1, 197276, Control_c, 0, 64, 90
1, 197291, Control_c, 0, 64, 89
1, 197306, Control_c, 0, 64, 88
1, 197321, Control_c, 0, 64, 87
1, 197335, Control_c, 0, 64, 85
1, 197350, Note_off_c, 0, 56, 36
1, 197350, Control_c, 0, 64, 84
1, 197356, Note_on_c, 0, 55, 40
1, 197364, Note_on_c, 0, 67, 39
1, 197365, Control_c, 0, 64, 82
1, 197380, Control_c, 0, 64, 81
1, 197395, Control_c, 0, 64, 80
1, 197410, Control_c, 0, 64, 78
1, 197425, Control_c, 0, 64, 76
1, 197440, Control_c, 0, 64, 73
1, 197454, Control_c, 0, 64, 70
1, 197469, Control_c, 0, 64, 66
1, 197484, Control_c, 0, 64, 63
1, 197499, Control_c, 0, 64, 59
1, 197521, Control_c, 0, 64, 56
1, 197535, Control_c, 0, 64, 55
1, 197550, Control_c, 0, 64, 55
1, 197595, Control_c, 0, 64, 54
1, 197669, Control_c, 0, 64, 55
1, 197684, Control_c, 0, 64, 58
1, 197699, Control_c, 0, 64, 61
1, 197714, Control_c, 0, 64, 62
1, 197729, Control_c, 0, 64, 64
1, 197743, Control_c, 0, 64, 65
1, 197758, Control_c, 0, 64, 67
1, 197773, Control_c, 0, 64, 70
1, 197787, Control_c, 0, 64, 72
1, 197802, Control_c, 0, 64, 74
1, 197817, Control_c, 0, 64, 78
1, 197832, Control_c, 0, 64, 80
1, 197848, Control_c, 0, 64, 83
1, 197863, Control_c, 0, 64, 84
1, 197878, Control_c, 0, 64, 85
1, 197892, Control_c, 0, 64, 86
1, 197907, Control_c, 0, 64, 87
1, 197922, Control_c, 0, 64, 88
1, 197938, Note_off_c, 0, 55, 36
1, 198040, Control_c, 0, 64, 87
1, 198055, Control_c, 0, 64, 87
1, 198084, Control_c, 0, 64, 86
1, 198114, Control_c, 0, 64, 86
1, 198129, Control_c, 0, 64, 85
1, 198144, Control_c, 0, 64, 85
1, 198158, Control_c, 0, 64, 84
1, 198173, Control_c, 0, 64, 84
1, 198188, Control_c, 0, 64, 83
1, 198203, Control_c, 0, 64, 82
1, 198218, Control_c, 0, 64, 81
1, 198233, Control_c, 0, 64, 80
1, 198248, Control_c, 0, 64, 79
1, 198270, Control_c, 0, 64, 78
1, 198284, Control_c, 0, 64, 77
1, 198299, Control_c, 0, 64, 76
1, 198314, Control_c, 0, 64, 74
1, 198329, Control_c, 0, 64, 72
1, 198344, Control_c, 0, 64, 71
1, 198358, Control_c, 0, 64, 69
1, 198373, Control_c, 0, 64, 68
1, 198388, Control_c, 0, 64, 68
1, 198403, Control_c, 0, 64, 67
1, 198418, Control_c, 0, 64, 66
1, 198432, Control_c, 0, 64, 65
1, 198447, Control_c, 0, 64, 64
1, 198462, Control_c, 0, 64, 63
1, 198477, Control_c, 0, 64, 61
1, 198492, Control_c, 0, 64, 60
1, 198507, Control_c, 0, 64, 60
1, 198522, Control_c, 0, 64, 59
1, 198701, Control_c, 0, 64, 60
1, 198715, Control_c, 0, 64, 60
1, 198760, Control_c, 0, 64, 61
1, 198775, Control_c, 0, 64, 62
1, 198789, Control_c, 0, 64, 63
1, 198833, Control_c, 0, 64, 64
1, 198848, Control_c, 0, 64, 64
1, 198863, Control_c, 0, 64, 65
1, 198878, Control_c, 0, 64, 66
1, 198893, Control_c, 0, 64, 66
1, 198907, Control_c, 0, 64, 67
1, 198937, Control_c, 0, 64, 67
1, 198981, Control_c, 0, 64, 68
1, 199210, Note_on_c, 0, 58, 29
1, 199212, Note_on_c, 0, 64, 33
1, 199213, Note_on_c, 0, 55, 34
1, 199222, Note_on_c, 0, 37, 32
1, 199224, Note_on_c, 0, 49, 25
1, 199225, Control_c, 0, 64, 68
1, 199231, Note_on_c, 0, 46, 32
1, 199247, Note_on_c, 0, 43, 28
1, 199255, Control_c, 0, 64, 69
1, 199314, Control_c, 0, 64, 69
1, 199344, Control_c, 0, 64, 70
1, 199374, Control_c, 0, 64, 70
1, 199900, Control_c, 0, 64, 71
1, 199930, Control_c, 0, 64, 71
1, 200003, Control_c, 0, 64, 72
1, 200033, Control_c, 0, 64, 72
1, 200196, Control_c, 0, 64, 73
1, 200211, Control_c, 0, 64, 73
1, 200227, Control_c, 0, 64, 74
1, 200242, Control_c, 0, 64, 74
1, 200257, Control_c, 0, 64, 75
1, 200272, Control_c, 0, 64, 76
1, 200286, Control_c, 0, 64, 76
1, 200301, Control_c, 0, 64, 77
1, 200316, Control_c, 0, 64, 78
1, 200331, Control_c, 0, 64, 79
1, 200360, Control_c, 0, 64, 80
1, 200390, Control_c, 0, 64, 81
1, 200405, Control_c, 0, 64, 82
1, 200420, Control_c, 0, 64, 83
1, 200434, Control_c, 0, 64, 84
1, 200449, Control_c, 0, 64, 85
1, 200464, Control_c, 0, 64, 87
1, 200478, Control_c, 0, 64, 89
1, 200493, Control_c, 0, 64, 92
1, 200516, Control_c, 0, 64, 93
1, 200531, Control_c, 0, 64, 94
1, 200546, Control_c, 0, 64, 96
1, 200560, Control_c, 0, 64, 99
1, 200575, Control_c, 0, 64, 104
1, 200590, Control_c, 0, 64, 106
1, 200605, Control_c, 0, 64, 108
1, 200619, Control_c, 0, 64, 109
1, 200629, Note_off_c, 0, 55, 35
1, 200634, Control_c, 0, 64, 110
1, 200649, Control_c, 0, 64, 111
1, 200664, Control_c, 0, 64, 112
1, 200667, Note_off_c, 0, 67, 35
1, 200679, Control_c, 0, 64, 112
1, 200693, Control_c, 0, 64, 113
1, 200708, Control_c, 0, 64, 115
1, 200723, Control_c, 0, 64, 123
1, 200729, Note_off_c, 0, 58, 37
1, 200738, Note_off_c, 0, 64, 42
1, 200738, Control_c, 0, 64, 127
1, 201008, Note_off_c, 0, 49, 41
1, 201318, Note_off_c, 0, 37, 23
1, 201383, Control_c, 0, 64, 124
1, 201398, Control_c, 0, 64, 121
1, 201413, Control_c, 0, 64, 119
1, 201428, Control_c, 0, 64, 118
1, 201442, Control_c, 0, 64, 117
1, 201457, Control_c, 0, 64, 115
1, 201472, Control_c, 0, 64, 114
1, 201487, Control_c, 0, 64, 114
1, 201501, Control_c, 0, 64, 113
1, 201531, Control_c, 0, 64, 112
1, 201561, Control_c, 0, 64, 111
1, 201576, Control_c, 0, 64, 110
1, 201590, Control_c, 0, 64, 109
1, 201605, Control_c, 0, 64, 109
1, 201620, Control_c, 0, 64, 108
1, 201634, Control_c, 0, 64, 108
1, 201649, Control_c, 0, 64, 107
1, 201664, Control_c, 0, 64, 106
1, 201679, Control_c, 0, 64, 105
1, 201694, Control_c, 0, 64, 104
1, 201708, Control_c, 0, 64, 103
1, 201723, Control_c, 0, 64, 103
1, 201738, Control_c, 0, 64, 102
1, 201753, Control_c, 0, 64, 102
1, 201768, Control_c, 0, 64, 101
1, 201783, Control_c, 0, 64, 101
1, 201813, Control_c, 0, 64, 100
1, 201828, Control_c, 0, 64, 100
1, 201843, Control_c, 0, 64, 99
1, 201857, Control_c, 0, 64, 98
1, 201872, Control_c, 0, 64, 98
1, 201887, Control_c, 0, 64, 97
1, 201902, Control_c, 0, 64, 95
1, 201917, Note_off_c, 0, 46, 24
1, 201917, Control_c, 0, 64, 94
1, 201932, Control_c, 0, 64, 92
1, 201941, Note_off_c, 0, 43, 33
1, 201943, Note_on_c, 0, 49, 39
1, 201947, Control_c, 0, 64, 91
1, 201962, Control_c, 0, 64, 90
1, 201965, Note_on_c, 0, 37, 33
1, 201977, Control_c, 0, 64, 89
1, 201992, Control_c, 0, 64, 87
1, 202013, Control_c, 0, 64, 86
1, 202028, Control_c, 0, 64, 86
1, 202043, Control_c, 0, 64, 84
1, 202057, Control_c, 0, 64, 83
1, 202072, Control_c, 0, 64, 80
1, 202087, Control_c, 0, 64, 77
1, 202102, Control_c, 0, 64, 74
1, 202117, Control_c, 0, 64, 72
1, 202132, Control_c, 0, 64, 70
1, 202147, Control_c, 0, 64, 68
1, 202162, Control_c, 0, 64, 67
1, 202176, Control_c, 0, 64, 66
1, 202191, Control_c, 0, 64, 65
1, 202205, Control_c, 0, 64, 65
1, 202279, Control_c, 0, 64, 65
1, 202323, Control_c, 0, 64, 65
1, 202412, Control_c, 0, 64, 64
1, 202442, Control_c, 0, 64, 64
1, 202457, Control_c, 0, 64, 64
1, 202516, Control_c, 0, 64, 65
1, 202546, Control_c, 0, 64, 65
1, 202971, Note_on_c, 0, 50, 38
1, 202993, Note_on_c, 0, 38, 33
1, 202997, Note_off_c, 0, 37, 41
1, 203073, Control_c, 0, 64, 65
1, 203107, Note_off_c, 0, 49, 42
1, 203133, Control_c, 0, 64, 64
1, 203147, Control_c, 0, 64, 63
1, 203162, Control_c, 0, 64, 62
1, 203177, Control_c, 0, 64, 58
1, 203192, Control_c, 0, 64, 48
1, 203206, Control_c, 0, 64, 19
1, 203221, Control_c, 0, 64, 0
1, 203689, Control_c, 0, 64, 19
1, 203703, Control_c, 0, 64, 46
1, 203718, Control_c, 0, 64, 57
1, 203733, Control_c, 0, 64, 61
1, 203748, Control_c, 0, 64, 62
1, 203763, Control_c, 0, 64, 63
1, 203777, Control_c, 0, 64, 64
1, 203792, Control_c, 0, 64, 65
1, 203807, Control_c, 0, 64, 67
1, 203822, Control_c, 0, 64, 68
1, 203837, Control_c, 0, 64, 68
1, 203867, Control_c, 0, 64, 69
1, 203882, Control_c, 0, 64, 70
1, 203896, Control_c, 0, 64, 71
1, 203911, Control_c, 0, 64, 71
1, 203926, Control_c, 0, 64, 72
1, 203941, Control_c, 0, 64, 72
1, 203956, Control_c, 0, 64, 73
1, 203970, Control_c, 0, 64, 75
1, 203985, Control_c, 0, 64, 77
1, 204000, Control_c, 0, 64, 78
1, 204015, Control_c, 0, 64, 79
1, 204029, Control_c, 0, 64, 80
1, 204044, Control_c, 0, 64, 82
1, 204059, Control_c, 0, 64, 84
1, 204074, Control_c, 0, 64, 86
1, 204089, Control_c, 0, 64, 87
1, 204103, Control_c, 0, 64, 88
1, 204118, Control_c, 0, 64, 88
1, 204133, Control_c, 0, 64, 90
1, 204147, Control_c, 0, 64, 92
1, 204162, Control_c, 0, 64, 93
1, 204177, Control_c, 0, 64, 95
1, 204192, Control_c, 0, 64, 95
1, 204207, Control_c, 0, 64, 96
1, 204223, Control_c, 0, 64, 97
1, 204238, Control_c, 0, 64, 98
1, 204260, Control_c, 0, 64, 99
1, 204275, Control_c, 0, 64, 101
1, 204290, Control_c, 0, 64, 104
1, 204297, Note_off_c, 0, 50, 43
1, 204305, Control_c, 0, 64, 107
1, 204320, Control_c, 0, 64, 110
1, 204334, Control_c, 0, 64, 114
1, 204349, Control_c, 0, 64, 118
1, 204364, Control_c, 0, 64, 122
1, 204379, Control_c, 0, 64, 127
1, 204497, Control_c, 0, 67, 124
1, 204512, Control_c, 0, 67, 117
1, 204526, Control_c, 0, 67, 110
1, 204541, Control_c, 0, 67, 102
1, 204556, Control_c, 0, 67, 96
1, 204571, Control_c, 0, 67, 89
1, 204586, Control_c, 0, 67, 82
1, 204600, Control_c, 0, 67, 76
1, 204615, Control_c, 0, 67, 69
1, 204630, Control_c, 0, 67, 60
1, 204645, Control_c, 0, 67, 50
1, 204660, Control_c, 0, 67, 40
1, 204663, Note_off_c, 0, 38, 35
1, 204674, Control_c, 0, 67, 29
1, 204689, Control_c, 0, 67, 19
1, 204704, Control_c, 0, 67, 0
1, 205024, Note_on_c, 0, 50, 102
1, 205028, Note_on_c, 0, 57, 100
1, 205029, Note_on_c, 0, 60, 88
1, 205031, Note_on_c, 0, 42, 90
1, 205031, Note_on_c, 0, 62, 88
1, 205032, Note_on_c, 0, 45, 85
1, 205034, Note_on_c, 0, 66, 91
1, 205038, Note_on_c, 0, 38, 75
1, 205083, Note_on_c, 0, 40, 20
1, 205088, Note_on_c, 0, 41, 33
1, 205127, Note_off_c, 0, 40, 43
1, 205128, Note_off_c, 0, 41, 43
1, 205146, Note_off_c, 0, 42, 62
1, 205157, Note_off_c, 0, 45, 63
1, 205157, Note_off_c, 0, 50, 64
1, 205160, Note_off_c, 0, 57, 53
1, 205170, Note_off_c, 0, 38, 60
1, 205173, Note_off_c, 0, 62, 54
1, 205191, Note_off_c, 0, 66, 55
1, 205208, Note_off_c, 0, 60, 46
1, 205468, Control_c, 0, 64, 85
1, 205482, Control_c, 0, 64, 35
1, 205497, Control_c, 0, 64, 0
1, 205927, Note_on_c, 0, 43, 110
1, 205927, Note_on_c, 0, 58, 96
1, 205928, Note_on_c, 0, 55, 100
1, 205931, Note_on_c, 0, 67, 91
1, 205932, Note_on_c, 0, 62, 81
1, 205932, Note_on_c, 0, 38, 83
1, 205934, Note_on_c, 0, 31, 89
1, 205936, Note_on_c, 0, 34, 91
1, 205950, Control_c, 0, 64, 127
1, 206019, Note_on_c, 0, 64, 22
1, 206078, Note_off_c, 0, 55, 65
1, 206078, Note_off_c, 0, 64, 49
1, 206080, Note_off_c, 0, 43, 66
1, 206089, Note_off_c, 0, 67, 60
1, 206089, Note_off_c, 0, 31, 63
1, 206090, Note_off_c, 0, 62, 63
1, 206093, Note_off_c, 0, 58, 63
1, 206099, Note_off_c, 0, 38, 62
1, 206102, Note_off_c, 0, 34, 61
1, 206276, Control_c, 0, 64, 92
1, 206291, Control_c, 0, 64, 67
1, 206305, Control_c, 0, 64, 0
1, 206380, End_track
0, 0, End_of_file
