0, 0, Header, 0, 1, 384
1, 0, Start_track
1, 0, Title_t, "Toccata--Vladimir Levitsky      "
1, 0, Text_t, "2008 e-Piano Junior Competition recital round"
1, 0, Text_t, "recorded July 2008"
1, 0, Text_t, "http://www.piano-e-competition.com/"
1, 0, Text_t, "File processed for distribution by software from Zenph Studios, Inc., http://www.zenph.com"
1, 0, Instrument_name_t, "Yamaha Disklavier Pro Mark IV concert grand piano, model DCFIIISM4PRO"
1, 0, Sequencer_specific, 39, 67, 113, 0, 1, 0, 1, 0, 84, 111, 99, 99, 97, 116, 97, 32, 32, 32, 32, 32, 32, 32, 32, 32, 86, 108, 97, 100, 105, 109, 105, 114, 76, 101, 118, 105, 116, 115, 107, 121
1, 0, Sequencer_specific, 6, 67, 113, 0, 0, 0, 69
1, 0, System_exclusive, 21, 67, 113, 126, 21, 0, 2, 2, 0, 3, 14, 1, 4, 1, 13, 13, 10, 11, 9, 2, 7, 247
1, 0, Sequencer_specific, 5, 67, 123, 12, 2, 1
1, 0, Tempo, 512820
1, 0, Time_signature, 4, 2, 24, 8
1, 0, System_exclusive, 5, 126, 127, 9, 1, 247
1, 1, System_exclusive, 8, 67, 16, 76, 0, 0, 126, 0, 247
1, 2, System_exclusive, 8, 67, 16, 76, 8, 9, 7, 1, 247
1, 3, Control_c, 0, 0, 0
1, 3, Control_c, 1, 0, 0
1, 3, Control_c, 2, 0, 0
1, 3, Control_c, 3, 0, 0
1, 3, Control_c, 4, 0, 0
1, 3, Control_c, 5, 0, 0
1, 3, Control_c, 6, 0, 0
1, 3, Control_c, 7, 0, 0
1, 3, Control_c, 8, 0, 0
1, 3, Control_c, 9, 0, 127
1, 3, Control_c, 10, 0, 0
1, 3, Control_c, 11, 0, 0
1, 3, Control_c, 12, 0, 0
1, 3, Control_c, 13, 0, 0
1, 3, Control_c, 14, 0, 0
1, 3, Control_c, 15, 0, 0
1, 4, Control_c, 0, 32, 0
1, 4, Control_c, 1, 32, 0
1, 4, Control_c, 2, 32, 0
1, 4, Control_c, 3, 32, 0
1, 4, Control_c, 4, 32, 0
1, 4, Control_c, 5, 32, 0
1, 4, Control_c, 6, 32, 0
1, 4, Control_c, 7, 32, 0
1, 4, Control_c, 8, 32, 0
1, 4, Control_c, 9, 32, 0
1, 4, Control_c, 10, 32, 0
1, 4, Control_c, 11, 32, 0
1, 4, Control_c, 12, 32, 0
1, 4, Control_c, 13, 32, 0
1, 4, Control_c, 14, 32, 0
1, 4, Control_c, 15, 32, 0
1, 5, Program_c, 0, 0
1, 5, Program_c, 1, 0
1, 5, Program_c, 2, 0
1, 5, Program_c, 3, 0
1, 5, Program_c, 4, 0
1, 5, Program_c, 5, 0
1, 5, Program_c, 6, 0
1, 5, Program_c, 7, 0
1, 5, Program_c, 8, 0
1, 5, Program_c, 9, 0
1, 5, Program_c, 10, 0
1, 5, Program_c, 11, 0
1, 5, Program_c, 12, 0
1, 5, Program_c, 13, 0
1, 5, Program_c, 14, 0
1, 5, Program_c, 15, 0
1, 6, Control_c, 0, 7, 100
1, 6, Control_c, 1, 7, 100
1, 6, Control_c, 2, 7, 100
1, 6, Control_c, 3, 7, 100
1, 6, Control_c, 4, 7, 100
1, 6, Control_c, 5, 7, 100
1, 6, Control_c, 6, 7, 100
1, 6, Control_c, 7, 7, 100
1, 6, Control_c, 8, 7, 100
1, 6, Control_c, 9, 7, 100
1, 6, Control_c, 10, 7, 100
1, 6, Control_c, 11, 7, 100
1, 6, Control_c, 12, 7, 100
1, 6, Control_c, 13, 7, 100
1, 6, Control_c, 14, 7, 100
1, 6, Control_c, 15, 7, 100
1, 117, Control_c, 0, 64, 12
1, 229, Control_c, 0, 64, 24
1, 341, Control_c, 0, 64, 36
1, 452, Control_c, 0, 64, 49
1, 564, Control_c, 0, 64, 60
1, 676, Control_c, 0, 64, 73
1, 787, Control_c, 0, 64, 84
1, 899, Control_c, 0, 64, 98
1, 1133, Note_on_c, 0, 76, 40
1, 1157, Note_off_c, 0, 76, 61
1, 1302, Note_on_c, 0, 76, 36
1, 1325, Note_off_c, 0, 76, 51
1, 1404, Note_on_c, 0, 76, 59
1, 1423, Note_off_c, 0, 76, 66
1, 1498, Note_on_c, 0, 76, 64
1, 1514, Note_off_c, 0, 76, 67
1, 1593, Note_on_c, 0, 76, 72
1, 1615, Note_off_c, 0, 76, 70
1, 1696, Note_on_c, 0, 76, 45
1, 1719, Note_off_c, 0, 76, 55
1, 1774, Note_on_c, 0, 76, 58
1, 1791, Note_off_c, 0, 76, 65
1, 1860, Note_on_c, 0, 76, 63
1, 1877, Note_off_c, 0, 76, 66
1, 1938, Note_on_c, 0, 76, 71
1, 1953, Note_off_c, 0, 76, 71
1, 2009, Note_on_c, 0, 76, 73
1, 2024, Note_off_c, 0, 76, 70
1, 2084, Note_on_c, 0, 76, 79
1, 2122, Note_off_c, 0, 76, 63
1, 2173, Note_on_c, 0, 76, 51
1, 2192, Note_off_c, 0, 76, 66
1, 2257, Note_on_c, 0, 76, 70
1, 2271, Note_off_c, 0, 76, 69
1, 2345, Note_on_c, 0, 76, 68
1, 2362, Note_off_c, 0, 76, 68
1, 2420, Note_on_c, 0, 76, 76
1, 2452, Note_off_c, 0, 76, 64
1, 2512, Note_on_c, 0, 76, 56
1, 2539, Note_off_c, 0, 76, 64
1, 2590, Control_c, 0, 64, 98
1, 2605, Control_c, 0, 64, 97
1, 2620, Control_c, 0, 64, 94
1, 2635, Control_c, 0, 64, 88
1, 2635, Note_on_c, 0, 83, 52
1, 2650, Control_c, 0, 64, 80
1, 2653, Note_on_c, 0, 79, 44
1, 2664, Control_c, 0, 64, 71
1, 2679, Control_c, 0, 64, 59
1, 2679, Note_on_c, 0, 78, 43
1, 2694, Control_c, 0, 64, 0
1, 2719, Note_off_c, 0, 78, 48
1, 2724, Control_c, 0, 64, 30
1, 2738, Control_c, 0, 64, 64
1, 2753, Control_c, 0, 64, 69
1, 2763, Note_on_c, 0, 76, 49
1, 2764, Note_off_c, 0, 79, 38
1, 2768, Control_c, 0, 64, 73
1, 2783, Control_c, 0, 64, 77
1, 2787, Note_off_c, 0, 76, 60
1, 2789, Note_off_c, 0, 83, 55
1, 2798, Control_c, 0, 64, 81
1, 2812, Control_c, 0, 64, 84
1, 2819, Note_on_c, 0, 71, 46
1, 2827, Control_c, 0, 64, 87
1, 2842, Control_c, 0, 64, 90
1, 2847, Note_on_c, 0, 74, 36
1, 2857, Control_c, 0, 64, 92
1, 2872, Control_c, 0, 64, 93
1, 2886, Control_c, 0, 64, 95
1, 2900, Note_off_c, 0, 74, 41
1, 2901, Control_c, 0, 64, 96
1, 2905, Note_on_c, 0, 76, 53
1, 2916, Control_c, 0, 64, 96
1, 2930, Control_c, 0, 64, 97
1, 2934, Note_off_c, 0, 71, 52
1, 2945, Control_c, 0, 64, 97
1, 2956, Note_off_c, 0, 76, 64
1, 2960, Control_c, 0, 64, 98
1, 2971, Note_on_c, 0, 83, 72
1, 2975, Control_c, 0, 64, 98
1, 2979, Note_on_c, 0, 79, 59
1, 2987, Note_on_c, 0, 78, 64
1, 3006, Control_c, 0, 64, 99
1, 3021, Note_off_c, 0, 79, 56
1, 3021, Note_off_c, 0, 78, 56
1, 3086, Note_off_c, 0, 83, 60
1, 3088, Control_c, 0, 64, 99
1, 3094, Note_on_c, 0, 76, 34
1, 3124, Note_off_c, 0, 76, 48
1, 3141, Note_on_c, 0, 71, 55
1, 3144, Note_on_c, 0, 74, 44
1, 3204, Note_on_c, 0, 76, 68
1, 3204, Note_off_c, 0, 74, 47
1, 3232, Note_off_c, 0, 71, 54
1, 3254, Note_off_c, 0, 76, 65
1, 3282, Note_on_c, 0, 83, 79
1, 3290, Note_on_c, 0, 79, 69
1, 3296, Note_on_c, 0, 78, 73
1, 3323, Note_off_c, 0, 79, 59
1, 3330, Note_off_c, 0, 78, 53
1, 3364, Note_on_c, 0, 76, 72
1, 3377, Note_off_c, 0, 83, 60
1, 3381, Note_off_c, 0, 76, 70
1, 3442, Note_on_c, 0, 71, 62
1, 3450, Note_on_c, 0, 74, 59
1, 3506, Note_off_c, 0, 74, 51
1, 3512, Note_on_c, 0, 76, 65
1, 3516, Note_off_c, 0, 71, 56
1, 3545, Note_off_c, 0, 76, 66
1, 3586, Note_on_c, 0, 83, 79
1, 3600, Note_on_c, 0, 79, 64
1, 3605, Note_on_c, 0, 78, 74
1, 3627, Note_off_c, 0, 79, 66
1, 3649, Note_off_c, 0, 78, 59
1, 3669, Note_off_c, 0, 83, 59
1, 3684, Note_on_c, 0, 76, 54
1, 3703, Note_off_c, 0, 76, 61
1, 3750, Note_on_c, 0, 71, 51
1, 3753, Note_on_c, 0, 74, 60
1, 3790, Note_off_c, 0, 71, 62
1, 3800, Note_off_c, 0, 74, 58
1, 3812, Control_c, 0, 64, 99
1, 3815, Note_on_c, 0, 76, 45
1, 3835, Control_c, 0, 64, 96
1, 3850, Control_c, 0, 64, 89
1, 3863, Note_off_c, 0, 76, 66
1, 3864, Control_c, 0, 64, 78
1, 3879, Control_c, 0, 64, 61
1, 3894, Control_c, 0, 64, 0
1, 3928, Note_on_c, 0, 86, 76
1, 3938, Control_c, 0, 64, 62
1, 3944, Note_on_c, 0, 78, 64
1, 3952, Note_on_c, 0, 83, 53
1, 3953, Control_c, 0, 64, 71
1, 3961, Note_off_c, 0, 78, 63
1, 3968, Control_c, 0, 64, 78
1, 3970, Note_on_c, 0, 71, 23
1, 3971, Note_off_c, 0, 83, 60
1, 3976, Note_off_c, 0, 86, 62
1, 3982, Control_c, 0, 64, 80
1, 3997, Control_c, 0, 64, 80
1, 4008, Note_off_c, 0, 71, 39
1, 4012, Control_c, 0, 64, 81
1, 4027, Poly_aftertouch_c, 0, 64, 0
1, 4027, Control_c, 0, 64, 81
1, 4029, Note_on_c, 0, 76, 63
1, 4042, Control_c, 0, 64, 82
1, 4057, Control_c, 0, 64, 83
1, 4071, Control_c, 0, 64, 84
1, 4083, Note_off_c, 0, 76, 61
1, 4086, Control_c, 0, 64, 84
1, 4107, Note_on_c, 0, 74, 55
1, 4116, Control_c, 0, 64, 85
1, 4137, Note_off_c, 0, 74, 64
1, 4146, Control_c, 0, 64, 85
1, 4192, Note_on_c, 0, 76, 44
1, 4216, Note_off_c, 0, 76, 53
1, 4222, Note_on_c, 0, 86, 71
1, 4235, Control_c, 0, 64, 86
1, 4242, Note_on_c, 0, 78, 58
1, 4255, Note_on_c, 0, 71, 56
1, 4260, Note_off_c, 0, 78, 61
1, 4274, Note_on_c, 0, 64, 27
1, 4279, Note_off_c, 0, 86, 63
1, 4308, Note_on_c, 0, 76, 58
1, 4314, Note_off_c, 0, 64, 51
1, 4323, Control_c, 0, 64, 85
1, 4325, Note_off_c, 0, 76, 65
1, 4327, Note_off_c, 0, 71, 60
1, 4338, Control_c, 0, 64, 84
1, 4353, Control_c, 0, 64, 81
1, 4368, Control_c, 0, 64, 75
1, 4382, Control_c, 0, 64, 66
1, 4383, Note_on_c, 0, 88, 75
1, 4392, Note_on_c, 0, 78, 46
1, 4397, Control_c, 0, 64, 0
1, 4397, Control_c, 0, 67, 125
1, 4410, Note_off_c, 0, 88, 60
1, 4412, Control_c, 0, 67, 113
1, 4417, Note_off_c, 0, 78, 35
1, 4420, Note_on_c, 0, 85, 25
1, 4424, Note_on_c, 0, 69, 48
1, 4426, Note_on_c, 0, 59, 47
1, 4427, Control_c, 0, 67, 99
1, 4437, Note_on_c, 0, 66, 28
1, 4440, Note_off_c, 0, 85, 49
1, 4442, Control_c, 0, 67, 88
1, 4447, Note_off_c, 0, 69, 58
1, 4451, Note_off_c, 0, 59, 38
1, 4456, Note_on_c, 0, 76, 70
1, 4456, Control_c, 0, 67, 77
1, 4459, Note_off_c, 0, 66, 35
1, 4471, Control_c, 0, 67, 59
1, 4479, Note_off_c, 0, 76, 71
1, 4486, Control_c, 0, 67, 39
1, 4501, Control_c, 0, 67, 17
1, 4516, Control_c, 0, 67, 0
1, 4545, Note_on_c, 0, 86, 83
1, 4546, Note_on_c, 0, 64, 65
1, 4553, Note_on_c, 0, 78, 78
1, 4560, Note_on_c, 0, 71, 56
1, 4578, Note_off_c, 0, 78, 67
1, 4590, Note_on_c, 0, 79, 35
1, 4595, Note_off_c, 0, 86, 63
1, 4596, Note_off_c, 0, 71, 61
1, 4599, Note_off_c, 0, 64, 64
1, 4613, Control_c, 0, 64, 41
1, 4614, Note_off_c, 0, 79, 39
1, 4628, Control_c, 0, 64, 56
1, 4638, Note_on_c, 0, 76, 72
1, 4643, Control_c, 0, 64, 60
1, 4658, Control_c, 0, 64, 59
1, 4673, Control_c, 0, 64, 59
1, 4687, Control_c, 0, 64, 58
1, 4712, Note_off_c, 0, 76, 60
1, 4717, Control_c, 0, 64, 58
1, 4722, Note_on_c, 0, 74, 64
1, 4732, Control_c, 0, 64, 57
1, 4747, Control_c, 0, 64, 56
1, 4757, Note_off_c, 0, 74, 63
1, 4761, Control_c, 0, 64, 55
1, 4776, Control_c, 0, 64, 53
1, 4791, Control_c, 0, 64, 52
1, 4808, Note_on_c, 0, 76, 40
1, 4834, Note_off_c, 0, 76, 35
1, 4835, Control_c, 0, 64, 51
1, 4850, Control_c, 0, 64, 48
1, 4858, Note_on_c, 0, 64, 62
1, 4864, Note_on_c, 0, 86, 71
1, 4865, Control_c, 0, 64, 47
1, 4873, Note_on_c, 0, 78, 75
1, 4879, Control_c, 0, 64, 46
1, 4893, Note_on_c, 0, 71, 41
1, 4894, Note_off_c, 0, 78, 69
1, 4894, Control_c, 0, 64, 45
1, 4900, Note_off_c, 0, 64, 56
1, 4900, Note_on_c, 0, 83, 37
1, 4909, Control_c, 0, 64, 42
1, 4922, Note_off_c, 0, 86, 64
1, 4924, Control_c, 0, 64, 36
1, 4926, Note_off_c, 0, 83, 46
1, 4928, Note_on_c, 0, 76, 66
1, 4933, Note_off_c, 0, 71, 0
1, 4933, Note_on_c, 0, 71, 9
1, 4939, Control_c, 0, 64, 27
1, 4951, Note_off_c, 0, 76, 71
1, 4954, Control_c, 0, 64, 24
1, 4960, Note_off_c, 0, 71, 56
1, 4969, Control_c, 0, 64, 23
1, 4998, Control_c, 0, 64, 24
1, 5026, Note_on_c, 0, 88, 77
1, 5028, Note_on_c, 0, 78, 80
1, 5042, Note_on_c, 0, 59, 60
1, 5042, Note_on_c, 0, 69, 59
1, 5043, Control_c, 0, 64, 20
1, 5044, Note_off_c, 0, 78, 69
1, 5048, Note_off_c, 0, 88, 65
1, 5049, Note_on_c, 0, 85, 46
1, 5058, Control_c, 0, 64, 0
1, 5061, Note_off_c, 0, 69, 65
1, 5061, Note_off_c, 0, 59, 60
1, 5070, Note_on_c, 0, 66, 16
1, 5071, Note_off_c, 0, 66, 127
1, 5072, Note_off_c, 0, 85, 57
1, 5118, Note_on_c, 0, 76, 75
1, 5138, Note_off_c, 0, 76, 73
1, 5185, Note_on_c, 0, 86, 78
1, 5194, Note_on_c, 0, 64, 63
1, 5198, Note_on_c, 0, 78, 76
1, 5211, Note_on_c, 0, 71, 51
1, 5215, Note_on_c, 0, 79, 57
1, 5216, Note_off_c, 0, 78, 68
1, 5228, Note_on_c, 0, 83, 36
1, 5234, Note_off_c, 0, 79, 60
1, 5234, Note_off_c, 0, 86, 64
1, 5237, Note_off_c, 0, 64, 61
1, 5242, Note_off_c, 0, 71, 56
1, 5260, Note_off_c, 0, 83, 33
1, 5278, Note_on_c, 0, 76, 67
1, 5348, Note_off_c, 0, 76, 47
1, 5370, Note_on_c, 0, 74, 65
1, 5403, Note_off_c, 0, 74, 65
1, 5445, Note_on_c, 0, 76, 49
1, 5467, Note_off_c, 0, 76, 53
1, 5481, Control_c, 0, 64, 13
1, 5496, Control_c, 0, 64, 20
1, 5505, Note_on_c, 0, 64, 60
1, 5508, Note_on_c, 0, 86, 68
1, 5510, Control_c, 0, 64, 23
1, 5513, Note_on_c, 0, 78, 70
1, 5516, Note_on_c, 0, 71, 58
1, 5536, Note_on_c, 0, 83, 42
1, 5537, Note_off_c, 0, 78, 68
1, 5540, Note_on_c, 0, 79, 31
1, 5545, Note_off_c, 0, 64, 61
1, 5554, Control_c, 0, 64, 21
1, 5559, Note_off_c, 0, 83, 52
1, 5564, Note_off_c, 0, 86, 62
1, 5569, Note_off_c, 0, 79, 33
1, 5569, Control_c, 0, 64, 18
1, 5576, Note_on_c, 0, 76, 58
1, 5584, Control_c, 0, 64, 16
1, 5598, Note_off_c, 0, 76, 67
1, 5599, Control_c, 0, 64, 13
1, 5603, Note_off_c, 0, 71, 62
1, 5667, Note_on_c, 0, 88, 72
1, 5677, Note_on_c, 0, 78, 65
1, 5689, Note_on_c, 0, 69, 60
1, 5691, Note_off_c, 0, 88, 68
1, 5694, Note_off_c, 0, 78, 61
1, 5698, Note_on_c, 0, 59, 45
1, 5703, Control_c, 0, 64, 10
1, 5709, Note_off_c, 0, 69, 67
1, 5711, Note_on_c, 0, 66, 27
1, 5711, Note_on_c, 0, 85, 9
1, 5712, Note_off_c, 0, 85, 127
1, 5718, Control_c, 0, 64, 0
1, 5720, Note_off_c, 0, 66, 41
1, 5725, Note_off_c, 0, 59, 38
1, 5752, Note_on_c, 0, 76, 76
1, 5773, Note_off_c, 0, 76, 71
1, 5827, Note_on_c, 0, 86, 76
1, 5838, Note_on_c, 0, 71, 54
1, 5839, Note_on_c, 0, 64, 53
1, 5849, Note_on_c, 0, 78, 64
1, 5852, Control_c, 0, 64, 10
1, 5867, Note_off_c, 0, 78, 63
1, 5867, Control_c, 0, 64, 13
1, 5874, Note_on_c, 0, 79, 36
1, 5890, Note_off_c, 0, 86, 63
1, 5899, Note_on_c, 0, 76, 67
1, 5903, Note_off_c, 0, 79, 35
1, 5910, Note_off_c, 0, 64, 36
1, 5917, Note_off_c, 0, 71, 60
1, 5917, Note_off_c, 0, 76, 69
1, 5926, Control_c, 0, 64, 10
1, 5998, Note_on_c, 0, 88, 80
1, 6000, Note_on_c, 0, 78, 76
1, 6003, Note_on_c, 0, 69, 66
1, 6007, Note_on_c, 0, 85, 64
1, 6013, Note_on_c, 0, 59, 50
1, 6017, Note_off_c, 0, 78, 68
1, 6024, Note_off_c, 0, 88, 55
1, 6030, Control_c, 0, 64, 0
1, 6030, Note_off_c, 0, 69, 70
1, 6034, Note_off_c, 0, 85, 68
1, 6035, Note_off_c, 0, 59, 57
1, 6039, Note_on_c, 0, 66, 10
1, 6040, Note_off_c, 0, 66, 127
1, 6108, Note_on_c, 0, 76, 59
1, 6126, Note_off_c, 0, 76, 64
1, 6148, Note_on_c, 0, 86, 77
1, 6150, Note_on_c, 0, 71, 70
1, 6166, Note_on_c, 0, 64, 52
1, 6202, Note_on_c, 0, 78, 44
1, 6204, Note_off_c, 0, 71, 0
1, 6211, Note_off_c, 0, 86, 64
1, 6224, Note_off_c, 0, 64, 39
1, 6227, Note_off_c, 0, 78, 35
1, 6238, Note_on_c, 0, 76, 16
1, 6238, Poly_aftertouch_c, 0, 71, 0
1, 6274, Note_off_c, 0, 76, 30
1, 6322, Note_on_c, 0, 69, 74
1, 6329, Note_on_c, 0, 59, 54
1, 6329, Note_on_c, 0, 88, 79
1, 6331, Note_on_c, 0, 66, 54
1, 6345, Note_off_c, 0, 69, 72
1, 6349, Note_on_c, 0, 76, 59
1, 6349, Note_on_c, 0, 86, 52
1, 6350, Note_off_c, 0, 59, 61
1, 6354, Note_off_c, 0, 66, 61
1, 6356, Note_on_c, 0, 85, 37
1, 6357, Note_on_c, 0, 80, 34
1, 6358, Note_off_c, 0, 80, 127
1, 6367, Note_off_c, 0, 88, 66
1, 6369, Note_off_c, 0, 76, 42
1, 6373, Note_off_c, 0, 86, 37
1, 6376, Note_off_c, 0, 85, 37
1, 6490, Note_on_c, 0, 90, 92
1, 6498, Control_c, 0, 64, 61
1, 6513, Control_c, 0, 64, 70
1, 6514, Note_on_c, 0, 64, 60
1, 6524, Note_on_c, 0, 71, 52
1, 6525, Note_on_c, 0, 82, 24
1, 6527, Control_c, 0, 64, 76
1, 6542, Control_c, 0, 64, 80
1, 6546, Note_off_c, 0, 71, 58
1, 6552, Note_off_c, 0, 64, 62
1, 6557, Control_c, 0, 64, 82
1, 6566, Note_off_c, 0, 82, 35
1, 6571, Control_c, 0, 64, 84
1, 6575, Note_off_c, 0, 90, 63
1, 6586, Control_c, 0, 64, 87
1, 6599, Note_on_c, 0, 78, 49
1, 6601, Control_c, 0, 64, 89
1, 6616, Control_c, 0, 64, 91
1, 6622, Note_off_c, 0, 78, 54
1, 6631, Control_c, 0, 64, 92
1, 6645, Control_c, 0, 64, 93
1, 6660, Control_c, 0, 64, 94
1, 6675, Control_c, 0, 64, 94
1, 6677, Note_on_c, 0, 67, 57
1, 6686, Note_on_c, 0, 78, 71
1, 6690, Control_c, 0, 64, 95
1, 6701, Note_off_c, 0, 78, 66
1, 6710, Note_off_c, 0, 67, 64
1, 6719, Control_c, 0, 64, 96
1, 6734, Control_c, 0, 64, 96
1, 6749, Control_c, 0, 64, 97
1, 6768, Note_on_c, 0, 78, 55
1, 6788, Note_off_c, 0, 78, 59
1, 6793, Control_c, 0, 64, 97
1, 6831, Control_c, 0, 64, 98
1, 6832, Note_on_c, 0, 90, 86
1, 6838, Note_on_c, 0, 71, 60
1, 6841, Note_on_c, 0, 86, 65
1, 6846, Control_c, 0, 64, 98
1, 6859, Note_off_c, 0, 71, 64
1, 6860, Control_c, 0, 64, 99
1, 6868, Note_off_c, 0, 86, 65
1, 6904, Note_off_c, 0, 90, 63
1, 6904, Control_c, 0, 64, 99
1, 6908, Note_on_c, 0, 78, 64
1, 6934, Control_c, 0, 64, 100
1, 6936, Note_off_c, 0, 78, 66
1, 6992, Note_on_c, 0, 74, 43
1, 7023, Note_on_c, 0, 78, 54
1, 7025, Note_off_c, 0, 74, 57
1, 7043, Note_off_c, 0, 78, 58
1, 7102, Note_on_c, 0, 78, 52
1, 7123, Note_off_c, 0, 78, 59
1, 7165, Note_on_c, 0, 90, 76
1, 7175, Note_on_c, 0, 76, 48
1, 7197, Note_off_c, 0, 76, 61
1, 7198, Note_on_c, 0, 86, 32
1, 7228, Note_off_c, 0, 90, 62
1, 7231, Note_off_c, 0, 86, 46
1, 7252, Note_on_c, 0, 78, 55
1, 7272, Note_off_c, 0, 78, 61
1, 7327, Note_on_c, 0, 79, 55
1, 7348, Note_on_c, 0, 78, 64
1, 7356, Note_off_c, 0, 79, 65
1, 7367, Note_off_c, 0, 78, 60
1, 7456, Note_on_c, 0, 78, 35
1, 7483, Note_off_c, 0, 78, 34
1, 7496, Note_on_c, 0, 90, 68
1, 7500, Note_on_c, 0, 83, 51
1, 7507, Note_on_c, 0, 86, 54
1, 7520, Note_off_c, 0, 83, 61
1, 7529, Note_off_c, 0, 86, 64
1, 7547, Note_off_c, 0, 90, 62
1, 7580, Note_on_c, 0, 78, 62
1, 7598, Note_off_c, 0, 78, 63
1, 7640, Note_on_c, 0, 86, 57
1, 7666, Note_off_c, 0, 86, 66
1, 7674, Note_on_c, 0, 78, 64
1, 7691, Note_off_c, 0, 78, 63
1, 7756, Control_c, 0, 64, 99
1, 7771, Control_c, 0, 64, 94
1, 7786, Control_c, 0, 64, 85
1, 7802, Control_c, 0, 64, 73
1, 7817, Control_c, 0, 64, 59
1, 7818, Note_on_c, 0, 90, 75
1, 7831, Control_c, 0, 64, 0
1, 7834, Note_on_c, 0, 78, 52
1, 7842, Note_on_c, 0, 86, 46
1, 7858, Note_on_c, 0, 83, 26
1, 7863, Note_off_c, 0, 78, 66
1, 7865, Note_off_c, 0, 86, 58
1, 7895, Note_off_c, 0, 83, 31
1, 7914, Note_off_c, 0, 90, 59
1, 7916, Note_on_c, 0, 78, 57
1, 7936, Note_off_c, 0, 78, 58
1, 7998, Note_on_c, 0, 93, 87
1, 8009, Note_on_c, 0, 81, 63
1, 8017, Note_on_c, 0, 90, 55
1, 8025, Note_off_c, 0, 81, 63
1, 8036, Note_off_c, 0, 90, 63
1, 8045, Note_off_c, 0, 93, 60
1, 8100, Note_on_c, 0, 81, 53
1, 8121, Note_off_c, 0, 81, 38
1, 8151, Note_on_c, 0, 90, 75
1, 8155, Note_on_c, 0, 78, 70
1, 8170, Note_on_c, 0, 83, 46
1, 8179, Note_off_c, 0, 78, 67
1, 8186, Note_on_c, 0, 86, 34
1, 8196, Note_off_c, 0, 83, 52
1, 8214, Note_on_c, 0, 88, 12
1, 8217, Note_off_c, 0, 86, 48
1, 8224, Note_off_c, 0, 90, 63
1, 8237, Note_on_c, 0, 78, 73
1, 8260, Note_off_c, 0, 78, 69
1, 8263, Note_off_c, 0, 88, 38
1, 8307, Note_on_c, 0, 79, 55
1, 8313, Note_on_c, 0, 91, 82
1, 8335, Note_off_c, 0, 79, 38
1, 8376, Note_off_c, 0, 91, 61
1, 8413, Note_on_c, 0, 79, 62
1, 8434, Note_off_c, 0, 79, 62
1, 8458, Note_on_c, 0, 76, 69
1, 8478, Note_on_c, 0, 88, 81
1, 8481, Note_off_c, 0, 76, 71
1, 8482, Note_on_c, 0, 83, 65
1, 8498, Note_off_c, 0, 83, 64
1, 8531, Note_off_c, 0, 88, 62
1, 8624, Note_on_c, 0, 74, 59
1, 8637, Note_on_c, 0, 83, 52
1, 8640, Note_on_c, 0, 86, 66
1, 8643, Note_off_c, 0, 74, 67
1, 8647, Note_on_c, 0, 79, 53
1, 8678, Note_off_c, 0, 79, 51
1, 8680, Note_off_c, 0, 86, 54
1, 8682, Note_off_c, 0, 83, 49
1, 8726, Note_on_c, 0, 74, 46
1, 8750, Note_off_c, 0, 74, 64
1, 8777, Note_on_c, 0, 71, 68
1, 8791, Note_on_c, 0, 81, 61
1, 8793, Note_on_c, 0, 84, 66
1, 8801, Note_off_c, 0, 71, 67
1, 8805, Note_on_c, 0, 83, 33
1, 8813, Note_off_c, 0, 81, 56
1, 8832, Note_off_c, 0, 83, 52
1, 8835, Note_off_c, 0, 84, 65
1, 8870, Note_on_c, 0, 72, 65
1, 8889, Note_off_c, 0, 72, 67
1, 8932, Note_on_c, 0, 74, 60
1, 8950, Note_off_c, 0, 74, 68
1, 8951, Note_on_c, 0, 88, 61
1, 8957, Note_on_c, 0, 86, 49
1, 8968, Note_off_c, 0, 88, 63
1, 8969, Note_on_c, 0, 84, 45
1, 8989, Note_off_c, 0, 86, 65
1, 8994, Note_off_c, 0, 84, 56
1, 9090, Note_on_c, 0, 69, 75
1, 9094, Note_on_c, 0, 81, 68
1, 9101, Note_on_c, 0, 79, 49
1, 9111, Note_off_c, 0, 69, 73
1, 9116, Note_on_c, 0, 76, 40
1, 9123, Note_off_c, 0, 79, 56
1, 9136, Note_off_c, 0, 81, 60
1, 9139, Note_off_c, 0, 76, 46
1, 9179, Note_on_c, 0, 69, 68
1, 9198, Note_off_c, 0, 69, 69
1, 9276, Note_on_c, 0, 69, 39
1, 9360, Note_off_c, 0, 69, 25
1, 9386, Note_on_c, 0, 69, 51
1, 9400, Note_on_c, 0, 83, 80
1, 9411, Note_on_c, 0, 79, 60
1, 9413, Note_on_c, 0, 76, 54
1, 9413, Note_off_c, 0, 69, 69
1, 9428, Note_off_c, 0, 79, 62
1, 9432, Note_off_c, 0, 76, 64
1, 9450, Note_off_c, 0, 83, 61
1, 9485, Note_on_c, 0, 71, 62
1, 9504, Note_off_c, 0, 71, 64
1, 9564, Note_on_c, 0, 71, 55
1, 9584, Note_off_c, 0, 71, 38
1, 9670, Control_c, 0, 64, 52
1, 9685, Control_c, 0, 64, 66
1, 9700, Control_c, 0, 64, 70
1, 9714, Control_c, 0, 64, 74
1, 9729, Control_c, 0, 64, 78
1, 9732, Note_on_c, 0, 90, 87
1, 9733, Note_on_c, 0, 78, 77
1, 9743, Note_on_c, 0, 86, 71
1, 9744, Note_on_c, 0, 83, 66
1, 9744, Control_c, 0, 64, 82
1, 9754, Note_off_c, 0, 78, 69
1, 9759, Control_c, 0, 64, 86
1, 9762, Note_off_c, 0, 83, 61
1, 9769, Note_off_c, 0, 86, 64
1, 9774, Control_c, 0, 64, 88
1, 9789, Control_c, 0, 64, 89
1, 9804, Control_c, 0, 64, 90
1, 9808, Note_off_c, 0, 90, 62
1, 9826, Control_c, 0, 64, 91
1, 9841, Note_on_c, 0, 78, 75
1, 9841, Control_c, 0, 64, 91
1, 9856, Control_c, 0, 64, 92
1, 9859, Note_off_c, 0, 78, 65
1, 9870, Control_c, 0, 64, 92
1, 9916, Note_on_c, 0, 64, 45
1, 9920, Note_on_c, 0, 78, 81
1, 9940, Note_off_c, 0, 64, 60
1, 9947, Note_off_c, 0, 78, 66
1, 10013, Note_on_c, 0, 78, 56
1, 10031, Note_off_c, 0, 78, 63
1, 10070, Note_on_c, 0, 71, 57
1, 10074, Note_on_c, 0, 90, 77
1, 10085, Note_on_c, 0, 83, 60
1, 10090, Note_off_c, 0, 71, 64
1, 10093, Note_on_c, 0, 86, 43
1, 10117, Note_off_c, 0, 86, 54
1, 10121, Note_off_c, 0, 83, 58
1, 10137, Note_off_c, 0, 90, 63
1, 10152, Note_on_c, 0, 78, 67
1, 10179, Note_off_c, 0, 78, 67
1, 10236, Note_on_c, 0, 78, 71
1, 10237, Note_on_c, 0, 74, 39
1, 10261, Note_off_c, 0, 78, 66
1, 10263, Note_off_c, 0, 74, 56
1, 10328, Note_on_c, 0, 78, 58
1, 10347, Note_off_c, 0, 78, 62
1, 10375, Control_c, 0, 64, 92
1, 10390, Control_c, 0, 64, 87
1, 10397, Note_on_c, 0, 90, 75
1, 10400, Note_on_c, 0, 78, 63
1, 10402, Note_on_c, 0, 86, 57
1, 10405, Control_c, 0, 64, 80
1, 10412, Note_on_c, 0, 83, 56
1, 10418, Note_off_c, 0, 78, 60
1, 10419, Control_c, 0, 64, 71
1, 10434, Control_c, 0, 64, 57
1, 10435, Note_off_c, 0, 86, 65
1, 10439, Note_off_c, 0, 83, 52
1, 10449, Control_c, 0, 64, 0
1, 10483, Note_on_c, 0, 78, 73
1, 10490, Note_off_c, 0, 90, 60
1, 10506, Note_off_c, 0, 78, 68
1, 10582, Note_on_c, 0, 81, 70
1, 10587, Note_on_c, 0, 93, 79
1, 10603, Note_on_c, 0, 86, 60
1, 10603, Note_on_c, 0, 90, 61
1, 10606, Note_off_c, 0, 81, 66
1, 10620, Note_off_c, 0, 86, 63
1, 10634, Note_off_c, 0, 90, 65
1, 10637, Note_off_c, 0, 93, 60
1, 10677, Note_on_c, 0, 81, 64
1, 10699, Note_off_c, 0, 81, 63
1, 10739, Note_on_c, 0, 86, 62
1, 10741, Note_on_c, 0, 78, 70
1, 10748, Note_on_c, 0, 83, 63
1, 10749, Note_on_c, 0, 90, 67
1, 10770, Note_off_c, 0, 78, 65
1, 10781, Note_off_c, 0, 83, 57
1, 10802, Note_off_c, 0, 86, 62
1, 10811, Note_off_c, 0, 90, 61
1, 10829, Note_on_c, 0, 78, 69
1, 10854, Note_off_c, 0, 78, 68
1, 10895, Note_on_c, 0, 79, 72
1, 10910, Note_on_c, 0, 91, 75
1, 10916, Note_off_c, 0, 79, 68
1, 10927, Note_on_c, 0, 88, 55
1, 10928, Note_on_c, 0, 83, 41
1, 10953, Note_off_c, 0, 83, 35
1, 10958, Note_off_c, 0, 88, 59
1, 10961, Note_off_c, 0, 91, 58
1, 10998, Note_on_c, 0, 79, 67
1, 11016, Note_off_c, 0, 79, 63
1, 11056, Note_on_c, 0, 76, 73
1, 11062, Note_on_c, 0, 88, 73
1, 11065, Note_on_c, 0, 83, 62
1, 11086, Note_off_c, 0, 76, 65
1, 11092, Note_off_c, 0, 83, 65
1, 11098, Note_on_c, 0, 86, 24
1, 11124, Note_off_c, 0, 88, 62
1, 11136, Note_off_c, 0, 86, 30
1, 11163, Note_on_c, 0, 76, 56
1, 11181, Note_off_c, 0, 76, 63
1, 11215, Note_on_c, 0, 74, 69
1, 11223, Note_on_c, 0, 83, 67
1, 11225, Note_on_c, 0, 86, 62
1, 11227, Note_on_c, 0, 79, 57
1, 11238, Note_off_c, 0, 74, 71
1, 11246, Note_off_c, 0, 79, 62
1, 11261, Note_off_c, 0, 83, 57
1, 11270, Note_off_c, 0, 86, 62
1, 11321, Note_on_c, 0, 74, 41
1, 11345, Note_off_c, 0, 74, 55
1, 11369, Note_on_c, 0, 71, 73
1, 11380, Note_on_c, 0, 83, 66
1, 11386, Note_on_c, 0, 79, 47
1, 11392, Note_on_c, 0, 76, 50
1, 11394, Note_off_c, 0, 71, 66
1, 11410, Note_on_c, 0, 77, 21
1, 11415, Note_off_c, 0, 76, 59
1, 11416, Note_off_c, 0, 79, 57
1, 11433, Note_off_c, 0, 83, 61
1, 11440, Note_off_c, 0, 77, 32
1, 11454, Note_on_c, 0, 71, 71
1, 11479, Note_off_c, 0, 71, 67
1, 11520, Note_on_c, 0, 74, 63
1, 11530, Note_on_c, 0, 86, 79
1, 11543, Note_off_c, 0, 74, 67
1, 11545, Note_on_c, 0, 79, 49
1, 11566, Note_off_c, 0, 79, 59
1, 11584, Note_off_c, 0, 86, 62
1, 11605, Note_on_c, 0, 74, 66
1, 11629, Note_off_c, 0, 74, 69
1, 11679, Note_on_c, 0, 69, 74
1, 11690, Note_on_c, 0, 79, 52
1, 11694, Note_on_c, 0, 81, 64
1, 11700, Note_off_c, 0, 69, 73
1, 11703, Note_on_c, 0, 77, 37
1, 11712, Note_off_c, 0, 81, 61
1, 11714, Note_off_c, 0, 79, 57
1, 11726, Note_off_c, 0, 77, 36
1, 11798, Control_c, 0, 64, 10
1, 11853, Note_on_c, 0, 69, 3
1, 11870, Note_off_c, 0, 69, 63
1, 11902, Control_c, 0, 64, 16
1, 11916, Control_c, 0, 64, 18
1, 11946, Control_c, 0, 64, 0
1, 12000, Note_on_c, 0, 83, 76
1, 12002, Poly_aftertouch_c, 0, 69, 127
1, 12011, Note_on_c, 0, 79, 60
1, 12015, Note_on_c, 0, 76, 54
1, 12019, Poly_aftertouch_c, 0, 69, 0
1, 12028, Note_off_c, 0, 79, 62
1, 12033, Note_off_c, 0, 76, 65
1, 12051, Note_off_c, 0, 83, 61
1, 12092, Note_on_c, 0, 71, 61
1, 12112, Note_off_c, 0, 71, 63
1, 12169, Note_on_c, 0, 71, 64
1, 12186, Note_off_c, 0, 71, 62
1, 12243, Note_on_c, 0, 71, 41
1, 12270, Note_off_c, 0, 71, 34
1, 12294, Control_c, 0, 64, 54
1, 12309, Control_c, 0, 64, 65
1, 12323, Control_c, 0, 64, 68
1, 12338, Control_c, 0, 64, 70
1, 12353, Control_c, 0, 64, 73
1, 12359, Note_on_c, 0, 90, 77
1, 12360, Note_on_c, 0, 78, 65
1, 12368, Control_c, 0, 64, 76
1, 12376, Note_on_c, 0, 86, 48
1, 12383, Control_c, 0, 64, 80
1, 12383, Note_on_c, 0, 83, 37
1, 12385, Note_off_c, 0, 78, 67
1, 12397, Control_c, 0, 64, 82
1, 12400, Note_off_c, 0, 86, 53
1, 12412, Control_c, 0, 64, 84
1, 12413, Note_off_c, 0, 83, 46
1, 12427, Control_c, 0, 64, 85
1, 12438, Note_off_c, 0, 90, 63
1, 12442, Control_c, 0, 64, 86
1, 12457, Control_c, 0, 64, 88
1, 12469, Note_on_c, 0, 78, 68
1, 12472, Control_c, 0, 64, 89
1, 12487, Control_c, 0, 64, 91
1, 12490, Note_off_c, 0, 78, 62
1, 12502, Control_c, 0, 64, 92
1, 12516, Control_c, 0, 64, 93
1, 12531, Control_c, 0, 64, 94
1, 12546, Control_c, 0, 64, 95
1, 12560, Note_on_c, 0, 78, 70
1, 12561, Control_c, 0, 64, 95
1, 12576, Control_c, 0, 64, 96
1, 12579, Note_on_c, 0, 64, 45
1, 12580, Note_on_c, 0, 57, 35
1, 12585, Note_off_c, 0, 78, 68
1, 12592, Control_c, 0, 64, 96
1, 12605, Note_off_c, 0, 64, 62
1, 12612, Note_off_c, 0, 57, 54
1, 12621, Control_c, 0, 64, 97
1, 12636, Control_c, 0, 64, 97
1, 12642, Note_on_c, 0, 78, 65
1, 12666, Control_c, 0, 64, 98
1, 12675, Note_off_c, 0, 78, 62
1, 12695, Control_c, 0, 64, 98
1, 12724, Note_on_c, 0, 90, 76
1, 12748, Note_on_c, 0, 71, 58
1, 12751, Note_on_c, 0, 83, 45
1, 12767, Note_off_c, 0, 71, 61
1, 12776, Note_off_c, 0, 83, 56
1, 12791, Note_off_c, 0, 90, 63
1, 12801, Note_on_c, 0, 78, 71
1, 12837, Note_off_c, 0, 78, 62
1, 12889, Note_on_c, 0, 78, 71
1, 12892, Note_on_c, 0, 74, 56
1, 12913, Note_off_c, 0, 74, 67
1, 12915, Note_off_c, 0, 78, 65
1, 12981, Note_on_c, 0, 78, 61
1, 13004, Note_off_c, 0, 78, 60
1, 13063, Note_on_c, 0, 90, 74
1, 13063, Note_on_c, 0, 86, 59
1, 13071, Note_on_c, 0, 78, 65
1, 13076, Note_on_c, 0, 83, 54
1, 13088, Note_off_c, 0, 78, 64
1, 13098, Note_off_c, 0, 86, 63
1, 13101, Note_off_c, 0, 83, 57
1, 13133, Control_c, 0, 64, 97
1, 13147, Control_c, 0, 64, 94
1, 13149, Note_on_c, 0, 78, 77
1, 13158, Note_off_c, 0, 90, 60
1, 13162, Control_c, 0, 64, 87
1, 13172, Note_off_c, 0, 78, 69
1, 13177, Control_c, 0, 64, 78
1, 13192, Control_c, 0, 64, 69
1, 13207, Control_c, 0, 64, 46
1, 13221, Control_c, 0, 64, 0
1, 13245, Note_on_c, 0, 93, 80
1, 13249, Note_on_c, 0, 81, 67
1, 13268, Note_on_c, 0, 86, 45
1, 13278, Note_off_c, 0, 81, 62
1, 13294, Note_off_c, 0, 86, 53
1, 13297, Note_off_c, 0, 93, 59
1, 13346, Note_on_c, 0, 81, 51
1, 13368, Note_off_c, 0, 81, 55
1, 13406, Note_on_c, 0, 86, 52
1, 13408, Note_on_c, 0, 90, 72
1, 13414, Note_on_c, 0, 78, 70
1, 13414, Note_on_c, 0, 83, 59
1, 13437, Note_off_c, 0, 78, 69
1, 13441, Note_off_c, 0, 83, 57
1, 13458, Note_off_c, 0, 86, 63
1, 13479, Note_off_c, 0, 90, 63
1, 13495, Note_on_c, 0, 78, 70
1, 13516, Note_off_c, 0, 78, 66
1, 13576, Note_on_c, 0, 79, 64
1, 13582, Note_on_c, 0, 91, 74
1, 13589, Note_on_c, 0, 83, 57
1, 13589, Note_on_c, 0, 88, 56
1, 13593, Note_off_c, 0, 79, 63
1, 13608, Note_off_c, 0, 83, 64
1, 13622, Note_off_c, 0, 88, 64
1, 13629, Note_off_c, 0, 91, 57
1, 13657, Note_on_c, 0, 79, 72
1, 13682, Note_off_c, 0, 79, 66
1, 13724, Note_on_c, 0, 76, 71
1, 13727, Note_on_c, 0, 88, 79
1, 13732, Note_on_c, 0, 83, 67
1, 13753, Note_off_c, 0, 76, 67
1, 13759, Note_off_c, 0, 83, 64
1, 13783, Note_off_c, 0, 88, 63
1, 13843, Note_on_c, 0, 76, 34
1, 13874, Note_off_c, 0, 76, 33
1, 13879, Note_on_c, 0, 83, 68
1, 13884, Note_on_c, 0, 74, 64
1, 13886, Note_on_c, 0, 86, 64
1, 13908, Note_off_c, 0, 74, 70
1, 13917, Note_on_c, 0, 79, 20
1, 13923, Note_off_c, 0, 83, 60
1, 13930, Note_off_c, 0, 86, 63
1, 13948, Note_off_c, 0, 79, 31
1, 13967, Note_on_c, 0, 74, 57
1, 13985, Note_off_c, 0, 74, 66
1, 14027, Note_on_c, 0, 79, 66
1, 14037, Note_on_c, 0, 71, 57
1, 14037, Note_on_c, 0, 83, 58
1, 14039, Note_on_c, 0, 76, 56
1, 14059, Note_off_c, 0, 71, 62
1, 14059, Note_off_c, 0, 76, 64
1, 14060, Note_off_c, 0, 79, 62
1, 14081, Note_off_c, 0, 83, 62
1, 14124, Note_on_c, 0, 71, 43
1, 14152, Note_off_c, 0, 71, 35
1, 14181, Note_on_c, 0, 74, 50
1, 14184, Note_on_c, 0, 86, 78
1, 14195, Note_on_c, 0, 83, 62
1, 14199, Note_on_c, 0, 79, 55
1, 14203, Note_off_c, 0, 74, 61
1, 14215, Note_off_c, 0, 83, 62
1, 14219, Note_off_c, 0, 79, 58
1, 14238, Note_off_c, 0, 86, 62
1, 14270, Note_on_c, 0, 74, 61
1, 14288, Note_off_c, 0, 74, 68
1, 14297, Control_c, 0, 64, 56
1, 14319, Control_c, 0, 64, 66
1, 14334, Control_c, 0, 64, 67
1, 14344, Note_on_c, 0, 83, 68
1, 14349, Control_c, 0, 64, 69
1, 14353, Note_on_c, 0, 50, 48
1, 14353, Note_on_c, 0, 79, 50
1, 14359, Note_on_c, 0, 76, 56
1, 14362, Note_on_c, 0, 57, 48
1, 14364, Control_c, 0, 64, 70
1, 14378, Note_off_c, 0, 76, 64
1, 14379, Control_c, 0, 64, 71
1, 14381, Note_off_c, 0, 50, 55
1, 14387, Note_off_c, 0, 57, 52
1, 14387, Note_off_c, 0, 79, 63
1, 14393, Control_c, 0, 64, 72
1, 14404, Note_off_c, 0, 83, 61
1, 14408, Control_c, 0, 64, 73
1, 14439, Note_on_c, 0, 71, 64
1, 14453, Control_c, 0, 64, 74
1, 14457, Note_off_c, 0, 71, 65
1, 14482, Control_c, 0, 64, 74
1, 14510, Note_on_c, 0, 69, 74
1, 14513, Note_on_c, 0, 81, 77
1, 14517, Note_on_c, 0, 76, 53
1, 14533, Note_on_c, 0, 72, 55
1, 14534, Note_off_c, 0, 69, 71
1, 14553, Note_off_c, 0, 72, 62
1, 14555, Note_off_c, 0, 76, 64
1, 14567, Note_off_c, 0, 81, 62
1, 14571, Control_c, 0, 64, 73
1, 14585, Control_c, 0, 64, 70
1, 14600, Control_c, 0, 64, 63
1, 14603, Note_on_c, 0, 69, 62
1, 14615, Control_c, 0, 64, 0
1, 14624, Note_off_c, 0, 69, 64
1, 14661, Note_on_c, 0, 64, 69
1, 14670, Note_on_c, 0, 76, 76
1, 14674, Note_on_c, 0, 72, 51
1, 14686, Note_off_c, 0, 64, 68
1, 14698, Note_on_c, 0, 69, 42
1, 14708, Note_off_c, 0, 72, 66
1, 14723, Note_off_c, 0, 69, 53
1, 14737, Note_off_c, 0, 76, 65
1, 14745, Note_on_c, 0, 64, 73
1, 14770, Note_off_c, 0, 64, 69
1, 14822, Note_on_c, 0, 69, 63
1, 14834, Note_on_c, 0, 79, 76
1, 14841, Note_on_c, 0, 72, 58
1, 14850, Note_off_c, 0, 69, 68
1, 14851, Note_on_c, 0, 76, 54
1, 14865, Note_off_c, 0, 72, 64
1, 14871, Note_off_c, 0, 76, 65
1, 14892, Note_off_c, 0, 79, 62
1, 14911, Note_on_c, 0, 69, 76
1, 14937, Note_off_c, 0, 69, 67
1, 14987, Note_on_c, 0, 76, 77
1, 14996, Note_on_c, 0, 64, 65
1, 14997, Note_on_c, 0, 69, 62
1, 15002, Note_on_c, 0, 72, 53
1, 15017, Note_off_c, 0, 69, 68
1, 15026, Note_off_c, 0, 64, 66
1, 15028, Note_off_c, 0, 72, 61
1, 15043, Note_off_c, 0, 76, 66
1, 15089, Note_on_c, 0, 64, 75
1, 15118, Note_off_c, 0, 64, 65
1, 15148, Note_on_c, 0, 62, 61
1, 15150, Note_on_c, 0, 71, 61
1, 15154, Note_on_c, 0, 74, 65
1, 15159, Note_on_c, 0, 66, 57
1, 15170, Note_off_c, 0, 62, 63
1, 15196, Note_off_c, 0, 71, 61
1, 15202, Note_off_c, 0, 74, 65
1, 15208, Note_off_c, 0, 66, 58
1, 15241, Note_on_c, 0, 62, 63
1, 15260, Note_off_c, 0, 62, 65
1, 15310, Note_on_c, 0, 50, 47
1, 15311, Note_on_c, 0, 71, 73
1, 15318, Note_on_c, 0, 57, 46
1, 15321, Note_on_c, 0, 67, 55
1, 15323, Note_on_c, 0, 64, 51
1, 15336, Note_off_c, 0, 50, 59
1, 15343, Note_off_c, 0, 57, 53
1, 15343, Note_off_c, 0, 67, 62
1, 15345, Note_off_c, 0, 64, 60
1, 15366, Note_off_c, 0, 71, 59
1, 15399, Note_on_c, 0, 60, 64
1, 15429, Note_off_c, 0, 60, 63
1, 15459, Note_on_c, 0, 57, 50
1, 15467, Note_on_c, 0, 69, 69
1, 15469, Note_on_c, 0, 66, 62
1, 15470, Poly_aftertouch_c, 0, 60, 0
1, 15476, Note_on_c, 0, 64, 38
1, 15489, Note_off_c, 0, 57, 64
1, 15502, Note_off_c, 0, 64, 52
1, 15505, Note_off_c, 0, 66, 65
1, 15509, Note_off_c, 0, 69, 65
1, 15547, Note_on_c, 0, 60, 65
1, 15565, Note_off_c, 0, 60, 64
1, 15630, Note_on_c, 0, 62, 69
1, 15648, Note_on_c, 0, 43, 36
1, 15649, Note_on_c, 0, 50, 48
1, 15649, Note_on_c, 0, 57, 44
1, 15652, Note_on_c, 0, 59, 32
1, 15676, Note_off_c, 0, 50, 48
1, 15679, Note_off_c, 0, 57, 47
1, 15679, Note_off_c, 0, 62, 60
1, 15684, Note_off_c, 0, 59, 44
1, 15686, Note_off_c, 0, 43, 46
1, 15717, Note_on_c, 0, 55, 61
1, 15748, Note_off_c, 0, 55, 65
1, 15779, Note_on_c, 0, 52, 66
1, 15816, Note_off_c, 0, 52, 68
1, 15864, Note_on_c, 0, 55, 61
1, 15899, Note_off_c, 0, 55, 64
1, 15936, Note_on_c, 0, 43, 47
1, 15937, Note_on_c, 0, 50, 50
1, 15938, Note_on_c, 0, 57, 44
1, 15944, Note_on_c, 0, 62, 64
1, 15962, Note_off_c, 0, 50, 57
1, 15965, Note_off_c, 0, 57, 49
1, 15968, Note_off_c, 0, 43, 56
1, 15974, Note_off_c, 0, 62, 63
1, 16007, Note_on_c, 0, 55, 65
1, 16041, Note_off_c, 0, 55, 65
1, 16090, Note_on_c, 0, 57, 50
1, 16092, Note_on_c, 0, 64, 64
1, 16094, Note_on_c, 0, 50, 42
1, 16097, Note_on_c, 0, 61, 63
1, 16115, Note_off_c, 0, 57, 57
1, 16131, Note_off_c, 0, 50, 62
1, 16135, Note_off_c, 0, 61, 60
1, 16150, Note_off_c, 0, 64, 63
1, 16174, Note_on_c, 0, 57, 63
1, 16201, Note_off_c, 0, 57, 64
1, 16252, Note_on_c, 0, 50, 64
1, 16253, Note_on_c, 0, 43, 55
1, 16259, Note_on_c, 0, 62, 67
1, 16266, Note_on_c, 0, 59, 44
1, 16266, Note_on_c, 0, 57, 62
1, 16287, Note_off_c, 0, 50, 63
1, 16290, Note_off_c, 0, 59, 55
1, 16292, Note_off_c, 0, 43, 62
1, 16293, Note_off_c, 0, 62, 62
1, 16294, Note_off_c, 0, 57, 65
1, 16340, Note_on_c, 0, 55, 62
1, 16373, Note_off_c, 0, 55, 65
1, 16403, Note_on_c, 0, 52, 65
1, 16432, Note_off_c, 0, 52, 67
1, 16481, Note_on_c, 0, 55, 66
1, 16527, Note_off_c, 0, 55, 65
1, 16545, Note_on_c, 0, 43, 56
1, 16547, Note_on_c, 0, 50, 64
1, 16568, Note_on_c, 0, 59, 53
1, 16570, Note_on_c, 0, 57, 54
1, 16572, Note_on_c, 0, 62, 68
1, 16584, Note_off_c, 0, 50, 64
1, 16591, Note_off_c, 0, 59, 60
1, 16594, Note_off_c, 0, 43, 62
1, 16594, Note_off_c, 0, 57, 59
1, 16607, Note_off_c, 0, 62, 61
1, 16648, Note_on_c, 0, 55, 71
1, 16684, Note_off_c, 0, 55, 63
1, 16707, Note_on_c, 0, 57, 55
1, 16724, Note_on_c, 0, 64, 70
1, 16725, Note_on_c, 0, 50, 52
1, 16727, Note_on_c, 0, 61, 69
1, 16741, Note_off_c, 0, 57, 62
1, 16758, Note_off_c, 0, 50, 65
1, 16764, Note_off_c, 0, 61, 61
1, 16785, Note_off_c, 0, 64, 62
1, 16802, Note_on_c, 0, 57, 77
1, 16832, Note_off_c, 0, 57, 65
1, 16879, Note_on_c, 0, 50, 71
1, 16880, Note_on_c, 0, 43, 65
1, 16882, Note_on_c, 0, 59, 62
1, 16884, Note_on_c, 0, 62, 75
1, 16891, Note_on_c, 0, 57, 53
1, 16911, Note_off_c, 0, 50, 66
1, 16911, Note_off_c, 0, 59, 64
1, 16920, Note_off_c, 0, 57, 64
1, 16921, Note_off_c, 0, 43, 63
1, 16926, Note_off_c, 0, 62, 61
1, 16971, Note_on_c, 0, 55, 65
1, 17000, Note_off_c, 0, 55, 65
1, 17029, Note_on_c, 0, 52, 67
1, 17058, Note_off_c, 0, 52, 68
1, 17098, Note_on_c, 0, 55, 64
1, 17138, Note_off_c, 0, 55, 64
1, 17182, Note_on_c, 0, 43, 52
1, 17193, Note_on_c, 0, 50, 52
1, 17197, Note_on_c, 0, 57, 53
1, 17197, Note_on_c, 0, 62, 66
1, 17205, Note_on_c, 0, 59, 45
1, 17220, Note_off_c, 0, 57, 60
1, 17221, Note_off_c, 0, 43, 61
1, 17221, Note_off_c, 0, 50, 58
1, 17229, Note_off_c, 0, 59, 52
1, 17241, Note_off_c, 0, 62, 60
1, 17283, Note_on_c, 0, 55, 60
1, 17315, Note_off_c, 0, 55, 66
1, 17360, Note_on_c, 0, 50, 44
1, 17361, Note_on_c, 0, 57, 53
1, 17369, Note_on_c, 0, 61, 63
1, 17369, Note_on_c, 0, 64, 65
1, 17392, Note_off_c, 0, 50, 61
1, 17396, Note_off_c, 0, 57, 63
1, 17404, Note_off_c, 0, 61, 64
1, 17413, Note_off_c, 0, 64, 65
1, 17456, Note_on_c, 0, 57, 72
1, 17483, Note_off_c, 0, 57, 65
1, 17521, Note_on_c, 0, 47, 67
1, 17530, Note_on_c, 0, 66, 74
1, 17533, Note_on_c, 0, 62, 57
1, 17540, Note_on_c, 0, 54, 56
1, 17563, Note_off_c, 0, 54, 60
1, 17566, Note_off_c, 0, 62, 64
1, 17567, Note_off_c, 0, 47, 59
1, 17586, Note_off_c, 0, 66, 64
1, 17617, Note_on_c, 0, 59, 51
1, 17638, Note_off_c, 0, 59, 59
1, 17684, Note_on_c, 0, 64, 68
1, 17685, Note_on_c, 0, 67, 74
1, 17692, Note_on_c, 0, 52, 71
1, 17703, Note_on_c, 0, 59, 61
1, 17711, Note_off_c, 0, 64, 66
1, 17723, Note_off_c, 0, 59, 65
1, 17724, Note_off_c, 0, 52, 68
1, 17726, Note_off_c, 0, 67, 61
1, 17781, Note_on_c, 0, 59, 61
1, 17799, Note_off_c, 0, 59, 62
1, 17842, Note_on_c, 0, 69, 75
1, 17845, Note_on_c, 0, 57, 74
1, 17850, Note_on_c, 0, 50, 61
1, 17850, Note_on_c, 0, 66, 67
1, 17867, Note_off_c, 0, 66, 66
1, 17868, Note_off_c, 0, 69, 67
1, 17870, Note_off_c, 0, 57, 67
1, 17881, Note_off_c, 0, 50, 65
1, 17924, Note_on_c, 0, 61, 76
1, 17947, Note_off_c, 0, 61, 66
1, 18001, Note_on_c, 0, 60, 64
1, 18004, Note_on_c, 0, 54, 65
1, 18006, Note_on_c, 0, 64, 63
1, 18006, Note_on_c, 0, 71, 72
1, 18028, Note_off_c, 0, 60, 63
1, 18038, Note_off_c, 0, 64, 66
1, 18039, Note_off_c, 0, 54, 64
1, 18058, Note_off_c, 0, 71, 61
1, 18085, Note_on_c, 0, 60, 74
1, 18108, Note_off_c, 0, 60, 68
1, 18176, Note_on_c, 0, 43, 57
1, 18180, Note_on_c, 0, 59, 54
1, 18180, Note_on_c, 0, 62, 67
1, 18182, Note_on_c, 0, 57, 57
1, 18183, Note_on_c, 0, 50, 63
1, 18201, Note_off_c, 0, 59, 60
1, 18213, Note_off_c, 0, 50, 64
1, 18216, Note_off_c, 0, 43, 61
1, 18220, Note_off_c, 0, 57, 61
1, 18222, Note_off_c, 0, 62, 61
1, 18261, Note_on_c, 0, 55, 65
1, 18294, Note_off_c, 0, 55, 65
1, 18320, Note_on_c, 0, 52, 68
1, 18353, Note_off_c, 0, 52, 68
1, 18396, Note_on_c, 0, 55, 72
1, 18432, Note_off_c, 0, 55, 65
1, 18474, Note_on_c, 0, 50, 60
1, 18478, Note_on_c, 0, 43, 55
1, 18488, Note_on_c, 0, 57, 60
1, 18491, Note_on_c, 0, 59, 49
1, 18491, Note_on_c, 0, 62, 66
1, 18505, Note_off_c, 0, 50, 64
1, 18517, Note_off_c, 0, 57, 64
1, 18520, Note_off_c, 0, 43, 59
1, 18520, Note_off_c, 0, 59, 64
1, 18541, Note_off_c, 0, 62, 55
1, 18574, Note_on_c, 0, 55, 65
1, 18609, Note_off_c, 0, 55, 65
1, 18653, Note_on_c, 0, 57, 71
1, 18655, Note_on_c, 0, 50, 43
1, 18660, Note_on_c, 0, 64, 64
1, 18660, Note_on_c, 0, 61, 64
1, 18683, Note_off_c, 0, 57, 63
1, 18684, Note_off_c, 0, 50, 60
1, 18689, Note_off_c, 0, 61, 65
1, 18698, Note_off_c, 0, 64, 63
1, 18732, Note_on_c, 0, 57, 64
1, 18781, Note_off_c, 0, 57, 57
1, 18821, Note_on_c, 0, 66, 78
1, 18833, Note_on_c, 0, 62, 64
1, 18836, Note_on_c, 0, 47, 46
1, 18837, Note_on_c, 0, 54, 58
1, 18846, Note_on_c, 0, 48, 43
1, 18864, Note_off_c, 0, 62, 63
1, 18866, Note_off_c, 0, 47, 56
1, 18867, Note_off_c, 0, 54, 64
1, 18875, Note_off_c, 0, 48, 55
1, 18880, Note_off_c, 0, 66, 63
1, 18898, Note_on_c, 0, 59, 79
1, 18936, Note_off_c, 0, 59, 62
1, 18984, Note_on_c, 0, 64, 76
1, 18984, Note_on_c, 0, 67, 78
1, 18988, Note_on_c, 0, 59, 59
1, 18989, Note_on_c, 0, 52, 73
1, 19013, Note_off_c, 0, 64, 62
1, 19016, Note_off_c, 0, 59, 65
1, 19018, Note_off_c, 0, 52, 69
1, 19038, Note_off_c, 0, 67, 60
1, 19071, Note_on_c, 0, 59, 76
1, 19095, Note_off_c, 0, 59, 66
1, 19141, Note_on_c, 0, 69, 80
1, 19149, Note_on_c, 0, 66, 76
1, 19149, Note_on_c, 0, 50, 64
1, 19151, Note_on_c, 0, 57, 71
1, 19175, Note_off_c, 0, 66, 69
1, 19176, Note_off_c, 0, 57, 65
1, 19178, Note_off_c, 0, 69, 61
1, 19187, Note_off_c, 0, 50, 60
1, 19222, Note_on_c, 0, 61, 79
1, 19248, Note_off_c, 0, 61, 65
1, 19308, Note_on_c, 0, 71, 74
1, 19310, Note_on_c, 0, 64, 76
1, 19317, Note_on_c, 0, 60, 61
1, 19320, Note_on_c, 0, 54, 65
1, 19337, Note_off_c, 0, 60, 64
1, 19344, Note_off_c, 0, 64, 61
1, 19347, Note_off_c, 0, 54, 64
1, 19358, Note_off_c, 0, 71, 60
1, 19392, Note_on_c, 0, 60, 75
1, 19416, Note_off_c, 0, 60, 67
1, 19470, Note_on_c, 0, 46, 63
1, 19474, Note_on_c, 0, 65, 72
1, 19477, Note_on_c, 0, 53, 69
1, 19477, Note_on_c, 0, 62, 67
1, 19481, Note_on_c, 0, 60, 68
1, 19507, Note_off_c, 0, 62, 64
1, 19508, Note_off_c, 0, 60, 66
1, 19514, Note_off_c, 0, 46, 60
1, 19523, Note_off_c, 0, 53, 66
1, 19532, Note_off_c, 0, 65, 65
1, 19573, Note_on_c, 0, 58, 75
1, 19601, Note_off_c, 0, 58, 64
1, 19629, Note_on_c, 0, 55, 70
1, 19658, Note_off_c, 0, 55, 66
1, 19703, Note_on_c, 0, 58, 71
1, 19731, Note_off_c, 0, 58, 65
1, 19778, Note_on_c, 0, 46, 71
1, 19790, Note_on_c, 0, 53, 60
1, 19790, Note_on_c, 0, 60, 60
1, 19796, Note_on_c, 0, 65, 71
1, 19800, Note_on_c, 0, 62, 48
1, 19811, Note_off_c, 0, 60, 63
1, 19811, Note_off_c, 0, 53, 65
1, 19824, Note_off_c, 0, 46, 59
1, 19826, Note_off_c, 0, 62, 57
1, 19846, Note_off_c, 0, 65, 64
1, 19861, Note_on_c, 0, 58, 78
1, 19888, Note_off_c, 0, 58, 69
1, 19954, Note_on_c, 0, 60, 66
1, 19954, Note_on_c, 0, 67, 79
1, 19955, Note_on_c, 0, 64, 74
1, 19957, Note_on_c, 0, 53, 37
1, 19981, Note_off_c, 0, 64, 68
1, 19981, Note_off_c, 0, 60, 65
1, 20002, Note_off_c, 0, 53, 67
1, 20009, Note_off_c, 0, 67, 63
1, 20035, Note_on_c, 0, 60, 78
1, 20057, Note_off_c, 0, 60, 68
1, 20112, Note_on_c, 0, 62, 75
1, 20115, Note_on_c, 0, 65, 78
1, 20118, Note_on_c, 0, 46, 71
1, 20119, Note_on_c, 0, 60, 74
1, 20128, Note_on_c, 0, 53, 63
1, 20139, Note_off_c, 0, 62, 65
1, 20146, Note_off_c, 0, 60, 65
1, 20160, Note_off_c, 0, 46, 62
1, 20164, Note_off_c, 0, 65, 66
1, 20165, Note_off_c, 0, 53, 67
1, 20201, Note_on_c, 0, 58, 73
1, 20228, Note_off_c, 0, 58, 67
1, 20272, Note_on_c, 0, 55, 65
1, 20305, Note_off_c, 0, 55, 67
1, 20347, Note_on_c, 0, 58, 74
1, 20373, Note_off_c, 0, 58, 67
1, 20428, Note_on_c, 0, 46, 68
1, 20429, Note_on_c, 0, 60, 62
1, 20430, Note_on_c, 0, 62, 59
1, 20431, Note_on_c, 0, 53, 63
1, 20432, Note_on_c, 0, 65, 74
1, 20457, Note_off_c, 0, 60, 66
1, 20458, Note_off_c, 0, 62, 62
1, 20462, Note_off_c, 0, 53, 66
1, 20469, Note_off_c, 0, 46, 63
1, 20478, Note_off_c, 0, 65, 65
1, 20507, Note_on_c, 0, 58, 76
1, 20534, Note_off_c, 0, 58, 68
1, 20600, Note_on_c, 0, 67, 82
1, 20602, Note_on_c, 0, 53, 50
1, 20604, Note_on_c, 0, 60, 69
1, 20604, Note_on_c, 0, 64, 75
1, 20627, Note_off_c, 0, 64, 69
1, 20630, Note_off_c, 0, 60, 67
1, 20648, Note_off_c, 0, 53, 67
1, 20651, Note_off_c, 0, 67, 61
1, 20684, Note_on_c, 0, 60, 78
1, 20706, Note_off_c, 0, 60, 68
1, 20753, Note_on_c, 0, 46, 74
1, 20755, Note_on_c, 0, 62, 77
1, 20759, Note_on_c, 0, 65, 77
1, 20767, Note_on_c, 0, 53, 68
1, 20768, Note_on_c, 0, 60, 76
1, 20782, Note_off_c, 0, 62, 62
1, 20791, Note_off_c, 0, 60, 68
1, 20800, Note_off_c, 0, 53, 66
1, 20811, Note_off_c, 0, 65, 65
1, 20812, Note_off_c, 0, 46, 54
1, 20852, Note_on_c, 0, 58, 73
1, 20878, Note_off_c, 0, 58, 67
1, 20912, Note_on_c, 0, 55, 65
1, 20940, Note_off_c, 0, 55, 66
1, 20986, Note_on_c, 0, 58, 72
1, 21021, Note_off_c, 0, 58, 63
1, 21058, Note_on_c, 0, 46, 63
1, 21072, Note_on_c, 0, 60, 64
1, 21074, Note_on_c, 0, 53, 45
1, 21075, Note_on_c, 0, 62, 62
1, 21086, Note_on_c, 0, 65, 75
1, 21100, Note_off_c, 0, 60, 65
1, 21101, Note_off_c, 0, 46, 63
1, 21107, Note_off_c, 0, 62, 62
1, 21113, Note_off_c, 0, 53, 54
1, 21124, Note_off_c, 0, 65, 63
1, 21146, Note_on_c, 0, 58, 79
1, 21167, Note_off_c, 0, 58, 69
1, 21237, Note_on_c, 0, 67, 79
1, 21238, Note_on_c, 0, 53, 55
1, 21240, Note_on_c, 0, 60, 65
1, 21241, Note_on_c, 0, 64, 68
1, 21269, Note_off_c, 0, 60, 67
1, 21271, Note_off_c, 0, 64, 67
1, 21272, Note_off_c, 0, 53, 67
1, 21294, Note_off_c, 0, 67, 63
1, 21329, Note_on_c, 0, 60, 68
1, 21358, Note_off_c, 0, 60, 64
1, 21392, Note_on_c, 0, 50, 67
1, 21392, Note_on_c, 0, 65, 70
1, 21396, Note_on_c, 0, 69, 71
1, 21399, Note_on_c, 0, 57, 70
1, 21420, Note_off_c, 0, 65, 67
1, 21426, Note_off_c, 0, 50, 64
1, 21433, Note_off_c, 0, 57, 61
1, 21441, Note_off_c, 0, 69, 67
1, 21471, Note_on_c, 0, 62, 74
1, 21500, Note_off_c, 0, 62, 63
1, 21544, Note_on_c, 0, 70, 83
1, 21550, Note_on_c, 0, 67, 69
1, 21552, Note_on_c, 0, 62, 67
1, 21556, Note_on_c, 0, 55, 71
1, 21581, Note_off_c, 0, 67, 64
1, 21583, Note_off_c, 0, 62, 65
1, 21587, Note_off_c, 0, 55, 66
1, 21608, Note_off_c, 0, 70, 61
1, 21637, Note_on_c, 0, 62, 69
1, 21664, Note_off_c, 0, 62, 65
1, 21700, Note_on_c, 0, 69, 89
1, 21706, Note_on_c, 0, 53, 76
1, 21706, Note_on_c, 0, 60, 76
1, 21712, Note_on_c, 0, 72, 74
1, 21742, Note_off_c, 0, 60, 62
1, 21746, Note_off_c, 0, 53, 67
1, 21750, Note_off_c, 0, 69, 60
1, 21772, Note_off_c, 0, 72, 64
1, 21784, Note_on_c, 0, 64, 71
1, 21819, Note_off_c, 0, 64, 68
1, 21865, Note_on_c, 0, 67, 74
1, 21869, Note_on_c, 0, 63, 80
1, 21870, Note_on_c, 0, 74, 75
1, 21873, Note_on_c, 0, 57, 71
1, 21893, Note_off_c, 0, 63, 70
1, 21900, Note_off_c, 0, 57, 66
1, 21900, Note_off_c, 0, 67, 62
1, 21903, Note_off_c, 0, 74, 66
1, 21966, Note_on_c, 0, 63, 40
1, 21967, Note_off_c, 0, 63, 127
1, 22030, Note_on_c, 0, 46, 65
1, 22030, Note_on_c, 0, 65, 79
1, 22031, Note_on_c, 0, 62, 63
1, 22034, Note_on_c, 0, 60, 69
1, 22043, Note_on_c, 0, 53, 60
1, 22060, Note_off_c, 0, 62, 64
1, 22061, Note_off_c, 0, 60, 66
1, 22070, Note_off_c, 0, 46, 59
1, 22083, Note_off_c, 0, 53, 62
1, 22083, Note_off_c, 0, 65, 64
1, 22120, Note_on_c, 0, 58, 77
1, 22147, Note_off_c, 0, 58, 66
1, 22189, Note_on_c, 0, 55, 64
1, 22217, Note_off_c, 0, 55, 66
1, 22257, Note_on_c, 0, 58, 70
1, 22287, Note_off_c, 0, 58, 64
1, 22329, Note_on_c, 0, 60, 59
1, 22334, Note_on_c, 0, 46, 68
1, 22336, Note_on_c, 0, 53, 63
1, 22340, Note_on_c, 0, 65, 73
1, 22347, Note_on_c, 0, 62, 56
1, 22362, Note_off_c, 0, 60, 66
1, 22372, Note_off_c, 0, 62, 61
1, 22377, Note_off_c, 0, 46, 62
1, 22377, Note_off_c, 0, 53, 59
1, 22389, Note_off_c, 0, 65, 63
1, 22408, Note_on_c, 0, 58, 77
1, 22437, Note_off_c, 0, 58, 68
1, 22502, Note_on_c, 0, 67, 81
1, 22503, Note_on_c, 0, 60, 71
1, 22508, Note_on_c, 0, 64, 70
1, 22514, Note_on_c, 0, 53, 57
1, 22530, Note_off_c, 0, 60, 65
1, 22537, Note_off_c, 0, 64, 64
1, 22550, Note_off_c, 0, 53, 68
1, 22560, Note_off_c, 0, 67, 60
1, 22590, Note_on_c, 0, 60, 68
1, 22620, Note_off_c, 0, 60, 64
1, 22664, Note_on_c, 0, 65, 77
1, 22666, Note_on_c, 0, 69, 81
1, 22667, Note_on_c, 0, 50, 66
1, 22672, Note_on_c, 0, 57, 76
1, 22691, Note_off_c, 0, 65, 67
1, 22706, Note_off_c, 0, 50, 63
1, 22707, Note_off_c, 0, 57, 62
1, 22709, Note_off_c, 0, 69, 67
1, 22742, Note_on_c, 0, 62, 78
1, 22781, Note_off_c, 0, 62, 63
1, 22818, Note_on_c, 0, 62, 69
1, 22823, Note_on_c, 0, 70, 80
1, 22825, Note_on_c, 0, 67, 71
1, 22827, Note_on_c, 0, 55, 73
1, 22852, Note_off_c, 0, 62, 63
1, 22863, Note_off_c, 0, 67, 56
1, 22865, Note_off_c, 0, 55, 64
1, 22883, Note_off_c, 0, 70, 61
1, 22911, Note_on_c, 0, 62, 58
1, 22941, Note_off_c, 0, 62, 64
1, 22976, Note_on_c, 0, 69, 88
1, 22982, Note_on_c, 0, 53, 76
1, 22983, Note_on_c, 0, 72, 82
1, 22984, Note_on_c, 0, 60, 77
1, 23018, Note_off_c, 0, 60, 61
1, 23024, Note_off_c, 0, 69, 64
1, 23026, Note_off_c, 0, 53, 65
1, 23036, Note_off_c, 0, 72, 65
1, 23062, Note_on_c, 0, 64, 77
1, 23092, Note_off_c, 0, 64, 64
1, 23141, Note_on_c, 0, 67, 69
1, 23142, Note_on_c, 0, 57, 66
1, 23144, Note_on_c, 0, 63, 80
1, 23152, Note_on_c, 0, 74, 54
1, 23167, Note_off_c, 0, 67, 68
1, 23173, Note_off_c, 0, 74, 62
1, 23176, Note_off_c, 0, 63, 64
1, 23179, Note_off_c, 0, 57, 63
1, 23227, Note_on_c, 0, 63, 49
1, 23251, Note_off_c, 0, 63, 59
1, 23319, Control_c, 0, 64, 47
1, 23325, Note_on_c, 0, 62, 84
1, 23325, Note_on_c, 0, 65, 88
1, 23328, Note_on_c, 0, 77, 90
1, 23331, Note_on_c, 0, 74, 67
1, 23334, Note_on_c, 0, 69, 83
1, 23334, Control_c, 0, 64, 65
1, 23344, Note_off_c, 0, 65, 74
1, 23348, Control_c, 0, 64, 69
1, 23355, Note_off_c, 0, 62, 63
1, 23357, Note_off_c, 0, 69, 69
1, 23361, Note_off_c, 0, 74, 67
1, 23363, Control_c, 0, 64, 70
1, 23378, Control_c, 0, 64, 71
1, 23379, Note_off_c, 0, 77, 62
1, 23393, Control_c, 0, 64, 72
1, 23408, Control_c, 0, 64, 73
1, 23420, Note_on_c, 0, 65, 77
1, 23422, Control_c, 0, 64, 74
1, 23452, Control_c, 0, 64, 75
1, 23455, Note_off_c, 0, 65, 65
1, 23467, Control_c, 0, 64, 75
1, 23481, Control_c, 0, 64, 76
1, 23496, Control_c, 0, 64, 77
1, 23510, Note_on_c, 0, 62, 80
1, 23511, Control_c, 0, 64, 77
1, 23526, Control_c, 0, 64, 78
1, 23549, Note_off_c, 0, 62, 60
1, 23570, Control_c, 0, 64, 77
1, 23576, Note_on_c, 0, 65, 75
1, 23585, Control_c, 0, 64, 76
1, 23600, Control_c, 0, 64, 72
1, 23602, Note_off_c, 0, 65, 69
1, 23615, Control_c, 0, 64, 65
1, 23629, Control_c, 0, 64, 0
1, 23647, Note_on_c, 0, 77, 87
1, 23653, Note_on_c, 0, 69, 83
1, 23656, Note_on_c, 0, 74, 69
1, 23675, Note_off_c, 0, 69, 69
1, 23694, Note_off_c, 0, 74, 62
1, 23708, Note_off_c, 0, 77, 62
1, 23734, Note_on_c, 0, 65, 82
1, 23768, Note_off_c, 0, 65, 68
1, 23807, Note_on_c, 0, 67, 93
1, 23808, Note_on_c, 0, 74, 73
1, 23818, Note_on_c, 0, 79, 81
1, 23824, Note_on_c, 0, 71, 65
1, 23838, Note_off_c, 0, 67, 65
1, 23850, Note_off_c, 0, 71, 66
1, 23856, Note_off_c, 0, 74, 62
1, 23871, Note_off_c, 0, 79, 63
1, 23886, Note_on_c, 0, 67, 70
1, 23922, Note_off_c, 0, 67, 66
1, 23975, Note_on_c, 0, 64, 94
1, 23980, Note_on_c, 0, 60, 82
1, 23984, Note_on_c, 0, 67, 65
1, 23985, Note_on_c, 0, 72, 62
1, 23986, Control_c, 0, 64, 44
1, 23987, Note_on_c, 0, 76, 69
1, 23992, Note_off_c, 0, 64, 74
1, 23994, Note_on_c, 0, 74, 50
1, 23999, Note_off_c, 0, 60, 70
1, 24001, Control_c, 0, 64, 65
1, 24012, Note_off_c, 0, 67, 66
1, 24014, Note_off_c, 0, 72, 62
1, 24016, Control_c, 0, 64, 67
1, 24019, Note_on_c, 0, 65, 17
1, 24020, Note_off_c, 0, 74, 62
1, 24021, Note_off_c, 0, 76, 64
1, 24031, Control_c, 0, 64, 69
1, 24052, Control_c, 0, 64, 71
1, 24060, Note_on_c, 0, 64, 78
1, 24067, Control_c, 0, 64, 74
1, 24082, Control_c, 0, 64, 76
1, 24084, Note_off_c, 0, 65, 50
1, 24097, Control_c, 0, 64, 77
1, 24106, Note_off_c, 0, 64, 66
1, 24112, Control_c, 0, 64, 78
1, 24127, Control_c, 0, 64, 79
1, 24142, Control_c, 0, 64, 80
1, 24145, Note_on_c, 0, 60, 72
1, 24157, Control_c, 0, 64, 81
1, 24171, Control_c, 0, 64, 82
1, 24186, Control_c, 0, 64, 82
1, 24201, Note_off_c, 0, 60, 60
1, 24201, Control_c, 0, 64, 83
1, 24220, Note_on_c, 0, 64, 75
1, 24245, Control_c, 0, 64, 82
1, 24246, Note_off_c, 0, 64, 69
1, 24260, Control_c, 0, 64, 81
1, 24275, Control_c, 0, 64, 74
1, 24290, Control_c, 0, 64, 63
1, 24295, Note_on_c, 0, 74, 80
1, 24297, Note_on_c, 0, 62, 80
1, 24297, Note_on_c, 0, 67, 84
1, 24300, Note_on_c, 0, 55, 71
1, 24302, Note_on_c, 0, 71, 71
1, 24304, Control_c, 0, 64, 0
1, 24319, Note_off_c, 0, 62, 68
1, 24324, Note_off_c, 0, 67, 63
1, 24327, Note_off_c, 0, 55, 67
1, 24330, Note_off_c, 0, 71, 62
1, 24356, Note_off_c, 0, 74, 65
1, 24384, Note_on_c, 0, 62, 81
1, 24407, Note_off_c, 0, 62, 68
1, 24449, Note_on_c, 0, 67, 75
1, 24458, Note_on_c, 0, 60, 84
1, 24462, Note_on_c, 0, 72, 74
1, 24470, Note_on_c, 0, 64, 56
1, 24482, Note_off_c, 0, 60, 67
1, 24482, Note_off_c, 0, 67, 61
1, 24491, Note_off_c, 0, 64, 64
1, 24528, Note_off_c, 0, 72, 56
1, 24531, Note_on_c, 0, 60, 75
1, 24550, Note_off_c, 0, 60, 68
1, 24626, Note_on_c, 0, 77, 96
1, 24628, Note_on_c, 0, 69, 89
1, 24629, Note_on_c, 0, 62, 87
1, 24629, Note_on_c, 0, 65, 89
1, 24631, Control_c, 0, 64, 39
1, 24633, Note_on_c, 0, 74, 75
1, 24646, Note_off_c, 0, 65, 74
1, 24646, Control_c, 0, 64, 64
1, 24658, Note_off_c, 0, 62, 64
1, 24661, Note_off_c, 0, 69, 68
1, 24661, Control_c, 0, 64, 66
1, 24662, Note_off_c, 0, 74, 65
1, 24672, Note_off_c, 0, 77, 64
1, 24675, Control_c, 0, 64, 68
1, 24690, Control_c, 0, 64, 70
1, 24705, Control_c, 0, 64, 73
1, 24711, Note_on_c, 0, 65, 84
1, 24720, Control_c, 0, 64, 75
1, 24735, Control_c, 0, 64, 76
1, 24750, Control_c, 0, 64, 77
1, 24756, Note_off_c, 0, 65, 64
1, 24765, Control_c, 0, 64, 77
1, 24780, Control_c, 0, 64, 78
1, 24801, Control_c, 0, 64, 79
1, 24804, Note_on_c, 0, 62, 82
1, 24816, Control_c, 0, 64, 80
1, 24831, Control_c, 0, 64, 81
1, 24838, Note_off_c, 0, 62, 61
1, 24845, Control_c, 0, 64, 81
1, 24875, Note_on_c, 0, 65, 81
1, 24908, Note_off_c, 0, 65, 65
1, 24920, Control_c, 0, 64, 79
1, 24935, Control_c, 0, 64, 70
1, 24950, Note_on_c, 0, 77, 84
1, 24950, Control_c, 0, 64, 45
1, 24956, Note_on_c, 0, 69, 78
1, 24961, Note_on_c, 0, 74, 65
1, 24965, Control_c, 0, 64, 0
1, 24977, Note_off_c, 0, 69, 72
1, 24990, Note_off_c, 0, 74, 68
1, 25011, Note_off_c, 0, 77, 63
1, 25030, Note_on_c, 0, 65, 84
1, 25064, Note_off_c, 0, 65, 68
1, 25104, Note_on_c, 0, 74, 74
1, 25107, Note_on_c, 0, 67, 86
1, 25113, Note_on_c, 0, 79, 76
1, 25119, Note_on_c, 0, 71, 65
1, 25127, Note_off_c, 0, 67, 68
1, 25146, Note_off_c, 0, 71, 67
1, 25159, Note_off_c, 0, 74, 58
1, 25164, Note_off_c, 0, 79, 61
1, 25175, Note_on_c, 0, 67, 76
1, 25211, Note_off_c, 0, 67, 65
1, 25261, Note_on_c, 0, 64, 89
1, 25261, Note_on_c, 0, 76, 83
1, 25264, Note_on_c, 0, 60, 81
1, 25266, Note_on_c, 0, 67, 80
1, 25266, Note_on_c, 0, 72, 79
1, 25280, Note_off_c, 0, 64, 73
1, 25284, Note_off_c, 0, 60, 70
1, 25301, Note_off_c, 0, 67, 64
1, 25316, Note_off_c, 0, 72, 63
1, 25320, Note_off_c, 0, 76, 66
1, 25345, Note_on_c, 0, 64, 87
1, 25392, Note_off_c, 0, 64, 64
1, 25426, Note_on_c, 0, 55, 78
1, 25427, Note_on_c, 0, 74, 84
1, 25433, Note_on_c, 0, 71, 71
1, 25435, Note_on_c, 0, 62, 68
1, 25436, Note_on_c, 0, 67, 73
1, 25453, Note_off_c, 0, 62, 64
1, 25454, Note_off_c, 0, 55, 68
1, 25462, Note_off_c, 0, 67, 68
1, 25475, Note_off_c, 0, 71, 60
1, 25492, Note_off_c, 0, 74, 65
1, 25514, Note_on_c, 0, 62, 77
1, 25535, Note_off_c, 0, 62, 67
1, 25597, Note_on_c, 0, 60, 83
1, 25597, Note_on_c, 0, 67, 81
1, 25599, Note_on_c, 0, 72, 78
1, 25601, Note_on_c, 0, 48, 77
1, 25601, Note_on_c, 0, 55, 72
1, 25608, Note_on_c, 0, 64, 70
1, 25611, Control_c, 0, 64, 59
1, 25617, Note_off_c, 0, 60, 70
1, 25625, Note_off_c, 0, 67, 63
1, 25625, Control_c, 0, 64, 65
1, 25627, Note_off_c, 0, 55, 68
1, 25632, Note_off_c, 0, 48, 69
1, 25635, Note_off_c, 0, 64, 67
1, 25640, Control_c, 0, 64, 66
1, 25649, Note_off_c, 0, 72, 67
1, 25655, Control_c, 0, 64, 66
1, 25669, Control_c, 0, 64, 67
1, 25684, Control_c, 0, 64, 68
1, 25686, Note_on_c, 0, 60, 78
1, 25699, Control_c, 0, 64, 69
1, 25711, Note_off_c, 0, 60, 66
1, 25714, Control_c, 0, 64, 70
1, 25766, Note_on_c, 0, 60, 67
1, 25791, Note_off_c, 0, 60, 69
1, 25817, Control_c, 0, 64, 70
1, 25832, Control_c, 0, 64, 67
1, 25843, Note_on_c, 0, 60, 58
1, 25847, Control_c, 0, 64, 56
1, 25862, Control_c, 0, 64, 0
1, 25869, Note_off_c, 0, 60, 63
1, 25939, Note_on_c, 0, 60, 74
1, 25941, Note_on_c, 0, 76, 74
1, 25945, Note_on_c, 0, 69, 68
1, 25946, Note_on_c, 0, 57, 69
1, 25948, Note_on_c, 0, 64, 67
1, 25949, Note_on_c, 0, 72, 59
1, 25963, Note_off_c, 0, 60, 68
1, 25970, Note_off_c, 0, 72, 62
1, 25974, Note_off_c, 0, 69, 67
1, 25977, Note_off_c, 0, 64, 66
1, 25978, Note_off_c, 0, 57, 63
1, 25980, Control_c, 0, 64, 41
1, 25984, Note_off_c, 0, 76, 67
1, 25994, Control_c, 0, 64, 60
1, 26009, Control_c, 0, 64, 62
1, 26022, Note_on_c, 0, 64, 73
1, 26024, Control_c, 0, 64, 63
1, 26039, Control_c, 0, 64, 65
1, 26049, Note_off_c, 0, 64, 67
1, 26054, Control_c, 0, 64, 66
1, 26068, Control_c, 0, 64, 68
1, 26083, Control_c, 0, 64, 70
1, 26098, Control_c, 0, 64, 71
1, 26106, Note_on_c, 0, 60, 72
1, 26113, Control_c, 0, 64, 72
1, 26128, Control_c, 0, 64, 73
1, 26136, Note_off_c, 0, 60, 61
1, 26142, Control_c, 0, 64, 74
1, 26157, Control_c, 0, 64, 74
1, 26173, Control_c, 0, 64, 75
1, 26174, Note_on_c, 0, 64, 67
1, 26206, Note_off_c, 0, 64, 67
1, 26233, Control_c, 0, 64, 74
1, 26247, Control_c, 0, 64, 69
1, 26255, Note_on_c, 0, 69, 77
1, 26255, Note_on_c, 0, 76, 76
1, 26262, Control_c, 0, 64, 53
1, 26264, Note_on_c, 0, 72, 60
1, 26277, Control_c, 0, 64, 0
1, 26279, Note_off_c, 0, 69, 69
1, 26291, Note_off_c, 0, 72, 65
1, 26314, Note_off_c, 0, 76, 64
1, 26351, Note_on_c, 0, 64, 62
1, 26371, Note_off_c, 0, 64, 61
1, 26413, Note_on_c, 0, 66, 72
1, 26418, Note_on_c, 0, 54, 66
1, 26419, Note_on_c, 0, 78, 79
1, 26430, Note_on_c, 0, 73, 62
1, 26431, Note_on_c, 0, 70, 60
1, 26437, Note_off_c, 0, 66, 69
1, 26455, Note_off_c, 0, 54, 63
1, 26470, Note_off_c, 0, 70, 58
1, 26472, Note_off_c, 0, 78, 64
1, 26500, Note_off_c, 0, 73, 55
1, 26512, Note_on_c, 0, 66, 61
1, 26530, Note_off_c, 0, 66, 65
1, 26576, Note_on_c, 0, 62, 76
1, 26578, Note_on_c, 0, 59, 67
1, 26578, Note_on_c, 0, 71, 69
1, 26580, Note_on_c, 0, 74, 76
1, 26589, Note_on_c, 0, 66, 78
1, 26602, Note_off_c, 0, 62, 67
1, 26604, Note_off_c, 0, 59, 66
1, 26620, Note_off_c, 0, 66, 60
1, 26628, Note_off_c, 0, 74, 64
1, 26632, Note_off_c, 0, 71, 60
1, 26666, Note_on_c, 0, 62, 75
1, 26691, Note_off_c, 0, 62, 66
1, 26736, Note_on_c, 0, 54, 70
1, 26736, Note_on_c, 0, 73, 76
1, 26744, Note_on_c, 0, 66, 69
1, 26745, Note_on_c, 0, 70, 74
1, 26749, Note_on_c, 0, 61, 57
1, 26762, Note_off_c, 0, 54, 65
1, 26769, Note_off_c, 0, 61, 59
1, 26770, Note_off_c, 0, 66, 68
1, 26789, Note_off_c, 0, 70, 63
1, 26789, Note_off_c, 0, 73, 63
1, 26825, Note_on_c, 0, 61, 72
1, 26842, Note_off_c, 0, 61, 66
1, 26901, Note_on_c, 0, 59, 71
1, 26903, Note_on_c, 0, 47, 76
1, 26908, Note_on_c, 0, 54, 68
1, 26909, Note_on_c, 0, 62, 78
1, 26910, Note_on_c, 0, 71, 72
1, 26921, Control_c, 0, 64, 53
1, 26926, Note_off_c, 0, 59, 67
1, 26935, Note_off_c, 0, 62, 65
1, 26936, Note_off_c, 0, 47, 67
1, 26936, Note_off_c, 0, 54, 65
1, 26936, Control_c, 0, 64, 64
1, 26944, Note_on_c, 0, 69, 36
1, 26947, Note_off_c, 0, 71, 59
1, 26951, Control_c, 0, 64, 65
1, 26967, Control_c, 0, 64, 66
1, 26976, Note_off_c, 0, 69, 33
1, 26982, Control_c, 0, 64, 67
1, 26986, Note_on_c, 0, 59, 74
1, 26996, Control_c, 0, 64, 67
1, 27011, Control_c, 0, 64, 68
1, 27012, Note_off_c, 0, 59, 64
1, 27094, Note_on_c, 0, 60, 54
1, 27098, Note_on_c, 0, 59, 38
1, 27120, Note_off_c, 0, 59, 55
1, 27122, Control_c, 0, 64, 67
1, 27137, Control_c, 0, 64, 62
1, 27152, Control_c, 0, 64, 0
1, 27185, Note_off_c, 0, 60, 44
1, 27239, Note_on_c, 0, 61, 80
1, 27242, Note_on_c, 0, 65, 74
1, 27242, Note_on_c, 0, 73, 73
1, 27243, Note_on_c, 0, 56, 68
1, 27245, Note_on_c, 0, 49, 68
1, 27247, Note_on_c, 0, 68, 72
1, 27255, Control_c, 0, 64, 39
1, 27259, Note_off_c, 0, 61, 69
1, 27266, Note_off_c, 0, 56, 66
1, 27269, Note_off_c, 0, 65, 70
1, 27270, Control_c, 0, 64, 65
1, 27279, Note_off_c, 0, 49, 65
1, 27281, Note_off_c, 0, 73, 65
1, 27284, Note_off_c, 0, 68, 62
1, 27285, Control_c, 0, 64, 68
1, 27300, Control_c, 0, 64, 69
1, 27314, Control_c, 0, 64, 70
1, 27325, Note_on_c, 0, 61, 69
1, 27329, Control_c, 0, 64, 71
1, 27344, Control_c, 0, 64, 71
1, 27355, Note_off_c, 0, 61, 65
1, 27359, Control_c, 0, 64, 72
1, 27430, Note_on_c, 0, 62, 58
1, 27448, Control_c, 0, 64, 71
1, 27452, Note_off_c, 0, 62, 57
1, 27463, Control_c, 0, 64, 69
1, 27477, Control_c, 0, 64, 64
1, 27492, Control_c, 0, 64, 27
1, 27497, Note_on_c, 0, 61, 55
1, 27507, Control_c, 0, 64, 0
1, 27516, Note_off_c, 0, 61, 59
1, 27570, Note_on_c, 0, 67, 73
1, 27580, Note_on_c, 0, 52, 73
1, 27582, Note_on_c, 0, 55, 72
1, 27584, Note_on_c, 0, 59, 61
1, 27585, Note_on_c, 0, 64, 57
1, 27606, Note_off_c, 0, 52, 69
1, 27608, Note_off_c, 0, 55, 67
1, 27612, Note_off_c, 0, 59, 64
1, 27620, Note_off_c, 0, 67, 57
1, 27637, Note_off_c, 0, 64, 52
1, 27676, Note_on_c, 0, 56, 64
1, 27704, Note_off_c, 0, 56, 65
1, 27777, Note_on_c, 0, 56, 58
1, 27808, Note_off_c, 0, 56, 62
1, 27877, Note_on_c, 0, 56, 36
1, 27895, Note_off_c, 0, 56, 36
1, 27918, Note_on_c, 0, 54, 74
1, 27924, Note_on_c, 0, 42, 66
1, 27926, Note_on_c, 0, 49, 65
1, 27930, Note_on_c, 0, 66, 72
1, 27937, Note_on_c, 0, 61, 63
1, 27941, Note_off_c, 0, 54, 66
1, 27942, Note_on_c, 0, 58, 59
1, 27953, Note_off_c, 0, 49, 65
1, 27955, Note_off_c, 0, 42, 65
1, 27967, Note_off_c, 0, 61, 64
1, 27969, Note_off_c, 0, 58, 65
1, 27975, Note_off_c, 0, 66, 66
1, 28015, Note_on_c, 0, 54, 62
1, 28044, Note_off_c, 0, 54, 64
1, 28104, Note_on_c, 0, 54, 60
1, 28124, Note_off_c, 0, 54, 59
1, 28176, Note_on_c, 0, 54, 60
1, 28196, Note_off_c, 0, 54, 61
1, 28259, Note_on_c, 0, 54, 74
1, 28286, Note_off_c, 0, 54, 63
1, 28343, Note_on_c, 0, 54, 62
1, 28365, Note_off_c, 0, 54, 38
1, 28436, Note_on_c, 0, 54, 48
1, 28469, Note_off_c, 0, 54, 0
1, 28484, Note_on_c, 0, 54, 41
1, 28510, Note_off_c, 0, 54, 57
1, 28582, Note_on_c, 0, 54, 77
1, 28607, Note_off_c, 0, 54, 65
1, 28657, Note_on_c, 0, 54, 70
1, 28685, Note_off_c, 0, 54, 64
1, 28741, Note_on_c, 0, 54, 67
1, 28764, Note_off_c, 0, 54, 64
1, 28827, Note_on_c, 0, 54, 44
1, 28853, Note_off_c, 0, 54, 49
1, 28905, Note_on_c, 0, 54, 62
1, 28926, Note_off_c, 0, 54, 63
1, 28990, Note_on_c, 0, 54, 55
1, 29012, Note_off_c, 0, 54, 58
1, 29068, Note_on_c, 0, 54, 60
1, 29099, Note_off_c, 0, 54, 64
1, 29153, Note_on_c, 0, 54, 59
1, 29183, Note_off_c, 0, 54, 64
1, 29272, Note_on_c, 0, 59, 54
1, 29293, Control_c, 0, 64, 53
1, 29299, Note_on_c, 0, 53, 44
1, 29308, Control_c, 0, 64, 61
1, 29323, Control_c, 0, 64, 62
1, 29329, Note_on_c, 0, 55, 16
1, 29338, Control_c, 0, 64, 62
1, 29352, Control_c, 0, 64, 63
1, 29368, Control_c, 0, 64, 64
1, 29383, Control_c, 0, 64, 65
1, 29385, Note_off_c, 0, 59, 50
1, 29386, Note_on_c, 0, 54, 50
1, 29389, Note_off_c, 0, 53, 55
1, 29397, Control_c, 0, 64, 65
1, 29415, Note_off_c, 0, 55, 39
1, 29427, Control_c, 0, 64, 66
1, 29436, Note_on_c, 0, 50, 50
1, 29436, Note_off_c, 0, 54, 56
1, 29448, Note_on_c, 0, 47, 48
1, 29457, Control_c, 0, 64, 66
1, 29472, Control_c, 0, 64, 67
1, 29498, Note_off_c, 0, 50, 54
1, 29507, Note_on_c, 0, 52, 67
1, 29516, Note_off_c, 0, 47, 59
1, 29546, Control_c, 0, 64, 65
1, 29548, Note_off_c, 0, 52, 63
1, 29561, Control_c, 0, 64, 54
1, 29576, Control_c, 0, 64, 0
1, 29597, Note_on_c, 0, 59, 64
1, 29605, Note_on_c, 0, 55, 59
1, 29606, Note_on_c, 0, 53, 55
1, 29649, Control_c, 0, 64, 51
1, 29660, Note_off_c, 0, 53, 59
1, 29664, Control_c, 0, 64, 64
1, 29677, Note_on_c, 0, 54, 68
1, 29679, Control_c, 0, 64, 66
1, 29682, Note_off_c, 0, 55, 65
1, 29685, Note_off_c, 0, 59, 59
1, 29714, Note_off_c, 0, 54, 65
1, 29723, Control_c, 0, 64, 67
1, 29738, Note_on_c, 0, 50, 53
1, 29748, Note_on_c, 0, 47, 50
1, 29764, Note_off_c, 0, 50, 61
1, 29779, Note_off_c, 0, 47, 64
1, 29800, Note_on_c, 0, 52, 67
1, 29841, Control_c, 0, 64, 65
1, 29850, Note_off_c, 0, 52, 64
1, 29856, Control_c, 0, 64, 58
1, 29871, Control_c, 0, 64, 0
1, 29886, Note_on_c, 0, 42, 67
1, 29919, Note_off_c, 0, 42, 64
1, 29953, Note_on_c, 0, 54, 64
1, 29976, Note_off_c, 0, 54, 66
1, 30044, Note_on_c, 0, 54, 72
1, 30070, Note_off_c, 0, 54, 64
1, 30118, Note_on_c, 0, 54, 57
1, 30136, Note_off_c, 0, 54, 62
1, 30190, Note_on_c, 0, 54, 86
1, 30210, Note_off_c, 0, 54, 67
1, 30252, Note_on_c, 0, 66, 75
1, 30275, Note_off_c, 0, 66, 71
1, 30389, Note_on_c, 0, 66, 59
1, 30420, Note_off_c, 0, 66, 67
1, 30485, Note_on_c, 0, 65, 77
1, 30489, Note_on_c, 0, 67, 76
1, 30489, Note_on_c, 0, 71, 67
1, 30517, Control_c, 0, 64, 23
1, 30525, Note_off_c, 0, 65, 60
1, 30531, Control_c, 0, 64, 61
1, 30546, Control_c, 0, 64, 64
1, 30569, Note_on_c, 0, 66, 75
1, 30571, Note_off_c, 0, 67, 58
1, 30576, Control_c, 0, 64, 65
1, 30591, Control_c, 0, 64, 66
1, 30595, Note_off_c, 0, 71, 57
1, 30605, Control_c, 0, 64, 68
1, 30620, Control_c, 0, 64, 70
1, 30624, Note_off_c, 0, 66, 65
1, 30635, Control_c, 0, 64, 71
1, 30637, Note_on_c, 0, 62, 70
1, 30639, Note_on_c, 0, 59, 63
1, 30650, Control_c, 0, 64, 73
1, 30664, Control_c, 0, 64, 74
1, 30700, Note_on_c, 0, 64, 80
1, 30705, Note_off_c, 0, 62, 58
1, 30708, Note_off_c, 0, 59, 58
1, 30724, Control_c, 0, 64, 73
1, 30739, Control_c, 0, 64, 70
1, 30748, Note_off_c, 0, 64, 65
1, 30754, Control_c, 0, 64, 56
1, 30768, Control_c, 0, 64, 0
1, 30789, Note_on_c, 0, 65, 82
1, 30792, Note_on_c, 0, 71, 76
1, 30795, Note_on_c, 0, 67, 79
1, 30831, Note_off_c, 0, 65, 66
1, 30835, Control_c, 0, 64, 49
1, 30850, Control_c, 0, 64, 66
1, 30864, Note_on_c, 0, 66, 89
1, 30864, Control_c, 0, 64, 69
1, 30871, Note_off_c, 0, 67, 63
1, 30879, Control_c, 0, 64, 71
1, 30894, Control_c, 0, 64, 72
1, 30896, Note_off_c, 0, 71, 59
1, 30909, Note_off_c, 0, 66, 68
1, 30909, Control_c, 0, 64, 73
1, 30924, Control_c, 0, 64, 74
1, 30938, Control_c, 0, 64, 75
1, 30946, Note_on_c, 0, 62, 70
1, 30947, Note_on_c, 0, 59, 67
1, 30954, Control_c, 0, 64, 76
1, 30969, Control_c, 0, 64, 76
1, 30980, Note_off_c, 0, 62, 63
1, 30980, Note_off_c, 0, 59, 64
1, 30999, Control_c, 0, 64, 77
1, 31007, Note_on_c, 0, 64, 79
1, 31043, Control_c, 0, 64, 74
1, 31058, Control_c, 0, 64, 63
1, 31067, Note_off_c, 0, 64, 63
1, 31073, Control_c, 0, 64, 0
1, 31090, Note_on_c, 0, 54, 83
1, 31122, Note_off_c, 0, 54, 63
1, 31147, Control_c, 0, 64, 63
1, 31158, Note_on_c, 0, 66, 76
1, 31162, Control_c, 0, 64, 68
1, 31177, Control_c, 0, 64, 69
1, 31183, Note_off_c, 0, 66, 72
1, 31192, Control_c, 0, 64, 70
1, 31206, Control_c, 0, 64, 70
1, 31221, Control_c, 0, 64, 71
1, 31236, Control_c, 0, 64, 71
1, 31240, Note_on_c, 0, 66, 79
1, 31251, Control_c, 0, 64, 72
1, 31264, Note_off_c, 0, 66, 69
1, 31266, Control_c, 0, 64, 72
1, 31309, Note_on_c, 0, 66, 82
1, 31310, Control_c, 0, 64, 68
1, 31325, Control_c, 0, 64, 30
1, 31329, Note_off_c, 0, 66, 74
1, 31340, Control_c, 0, 64, 0
1, 31377, Note_on_c, 0, 66, 92
1, 31399, Control_c, 0, 64, 47
1, 31401, Note_off_c, 0, 66, 70
1, 31413, Control_c, 0, 64, 65
1, 31428, Control_c, 0, 64, 68
1, 31443, Control_c, 0, 64, 70
1, 31444, Note_on_c, 0, 78, 81
1, 31458, Control_c, 0, 64, 71
1, 31473, Note_off_c, 0, 78, 66
1, 31473, Control_c, 0, 64, 73
1, 31487, Control_c, 0, 64, 75
1, 31502, Control_c, 0, 64, 76
1, 31517, Control_c, 0, 64, 77
1, 31535, Note_on_c, 0, 78, 70
1, 31540, Control_c, 0, 64, 79
1, 31555, Control_c, 0, 64, 80
1, 31556, Note_off_c, 0, 78, 66
1, 31569, Control_c, 0, 64, 82
1, 31584, Control_c, 0, 64, 83
1, 31592, Note_on_c, 0, 78, 86
1, 31599, Control_c, 0, 64, 84
1, 31613, Control_c, 0, 64, 85
1, 31614, Note_off_c, 0, 78, 66
1, 31658, Control_c, 0, 64, 81
1, 31673, Control_c, 0, 64, 71
1, 31684, Note_on_c, 0, 77, 96
1, 31687, Note_on_c, 0, 83, 86
1, 31687, Control_c, 0, 64, 0
1, 31690, Note_on_c, 0, 79, 87
1, 31720, Note_off_c, 0, 77, 63
1, 31732, Control_c, 0, 64, 60
1, 31747, Control_c, 0, 64, 71
1, 31763, Control_c, 0, 64, 77
1, 31771, Note_on_c, 0, 78, 89
1, 31776, Note_off_c, 0, 79, 63
1, 31778, Control_c, 0, 64, 80
1, 31788, Note_off_c, 0, 83, 57
1, 31792, Control_c, 0, 64, 81
1, 31807, Control_c, 0, 64, 83
1, 31815, Note_off_c, 0, 78, 64
1, 31822, Control_c, 0, 64, 86
1, 31836, Note_on_c, 0, 74, 75
1, 31836, Control_c, 0, 64, 88
1, 31838, Note_on_c, 0, 71, 70
1, 31851, Control_c, 0, 64, 91
1, 31866, Control_c, 0, 64, 92
1, 31881, Control_c, 0, 64, 93
1, 31896, Control_c, 0, 64, 94
1, 31909, Note_on_c, 0, 76, 86
1, 31936, Note_off_c, 0, 74, 62
1, 31940, Control_c, 0, 64, 93
1, 31943, Note_off_c, 0, 71, 58
1, 31956, Control_c, 0, 64, 88
1, 31957, Note_off_c, 0, 76, 67
1, 31971, Control_c, 0, 64, 76
1, 31985, Control_c, 0, 64, 47
1, 31987, Note_on_c, 0, 77, 93
1, 31988, Note_on_c, 0, 83, 85
1, 31989, Note_on_c, 0, 79, 87
1, 32000, Control_c, 0, 64, 0
1, 32026, Note_off_c, 0, 77, 63
1, 32044, Control_c, 0, 64, 62
1, 32059, Control_c, 0, 64, 71
1, 32067, Note_on_c, 0, 78, 87
1, 32074, Note_off_c, 0, 79, 63
1, 32074, Control_c, 0, 64, 76
1, 32077, Note_off_c, 0, 83, 60
1, 32089, Control_c, 0, 64, 77
1, 32104, Control_c, 0, 64, 78
1, 32109, Note_off_c, 0, 78, 66
1, 32119, Control_c, 0, 64, 79
1, 32134, Control_c, 0, 64, 81
1, 32148, Note_on_c, 0, 74, 66
1, 32149, Control_c, 0, 64, 82
1, 32160, Note_on_c, 0, 71, 58
1, 32163, Control_c, 0, 64, 83
1, 32193, Control_c, 0, 64, 83
1, 32223, Control_c, 0, 64, 84
1, 32226, Note_on_c, 0, 76, 58
1, 32245, Note_off_c, 0, 76, 61
1, 32287, Note_off_c, 0, 71, 0
1, 32302, Note_on_c, 0, 71, 43
1, 32302, Note_off_c, 0, 74, 39
1, 32304, Control_c, 0, 64, 81
1, 32318, Note_on_c, 0, 65, 68
1, 32318, Control_c, 0, 64, 74
1, 32328, Note_on_c, 0, 67, 56
1, 32333, Control_c, 0, 64, 58
1, 32348, Control_c, 0, 64, 0
1, 32360, Note_off_c, 0, 65, 56
1, 32408, Control_c, 0, 64, 46
1, 32410, Note_on_c, 0, 66, 67
1, 32423, Control_c, 0, 64, 66
1, 32437, Control_c, 0, 64, 70
1, 32452, Control_c, 0, 64, 74
1, 32453, Note_off_c, 0, 67, 45
1, 32457, Note_off_c, 0, 71, 55
1, 32467, Control_c, 0, 64, 76
1, 32471, Note_off_c, 0, 66, 66
1, 32479, Note_on_c, 0, 62, 62
1, 32481, Note_on_c, 0, 59, 56
1, 32482, Control_c, 0, 64, 78
1, 32497, Control_c, 0, 64, 80
1, 32511, Control_c, 0, 64, 82
1, 32526, Control_c, 0, 64, 83
1, 32533, Note_off_c, 0, 62, 53
1, 32535, Note_off_c, 0, 59, 53
1, 32541, Control_c, 0, 64, 84
1, 32554, Note_on_c, 0, 64, 67
1, 32557, Control_c, 0, 64, 84
1, 32593, Note_off_c, 0, 64, 64
1, 32616, Control_c, 0, 64, 82
1, 32631, Control_c, 0, 64, 75
1, 32634, Note_on_c, 0, 71, 65
1, 32640, Note_on_c, 0, 65, 60
1, 32646, Note_on_c, 0, 67, 62
1, 32646, Control_c, 0, 64, 59
1, 32660, Control_c, 0, 64, 0
1, 32679, Note_off_c, 0, 65, 65
1, 32709, Note_on_c, 0, 66, 74
1, 32711, Note_off_c, 0, 67, 63
1, 32719, Control_c, 0, 64, 57
1, 32721, Note_off_c, 0, 71, 56
1, 32733, Control_c, 0, 64, 67
1, 32748, Control_c, 0, 64, 70
1, 32750, Note_off_c, 0, 66, 66
1, 32763, Control_c, 0, 64, 72
1, 32778, Control_c, 0, 64, 75
1, 32793, Control_c, 0, 64, 77
1, 32794, Note_on_c, 0, 62, 53
1, 32795, Note_on_c, 0, 59, 55
1, 32807, Control_c, 0, 64, 80
1, 32819, Note_off_c, 0, 62, 61
1, 32822, Control_c, 0, 64, 82
1, 32831, Note_off_c, 0, 59, 64
1, 32837, Control_c, 0, 64, 83
1, 32852, Control_c, 0, 64, 84
1, 32853, Note_on_c, 0, 64, 67
1, 32907, Note_off_c, 0, 64, 57
1, 32926, Control_c, 0, 64, 81
1, 32941, Control_c, 0, 64, 72
1, 32953, Note_on_c, 0, 54, 65
1, 32956, Control_c, 0, 64, 0
1, 33013, Note_on_c, 0, 66, 64
1, 33044, Note_off_c, 0, 54, 60
1, 33051, Note_off_c, 0, 66, 67
1, 33052, Control_c, 0, 64, 64
1, 33067, Control_c, 0, 64, 73
1, 33082, Control_c, 0, 64, 81
1, 33096, Control_c, 0, 64, 86
1, 33105, Note_on_c, 0, 66, 76
1, 33111, Control_c, 0, 64, 89
1, 33126, Control_c, 0, 64, 93
1, 33141, Control_c, 0, 64, 97
1, 33141, Note_off_c, 0, 66, 58
1, 33156, Control_c, 0, 64, 101
1, 33171, Control_c, 0, 64, 104
1, 33177, Note_on_c, 0, 78, 81
1, 33185, Control_c, 0, 64, 107
1, 33200, Control_c, 0, 64, 109
1, 33215, Control_c, 0, 64, 111
1, 33216, Note_off_c, 0, 78, 60
1, 33230, Control_c, 0, 64, 112
1, 33245, Control_c, 0, 64, 113
1, 33259, Control_c, 0, 64, 114
1, 33263, Note_on_c, 0, 66, 92
1, 33274, Control_c, 0, 64, 114
1, 33299, Note_off_c, 0, 66, 68
1, 33330, Note_on_c, 0, 78, 85
1, 33363, Note_off_c, 0, 78, 62
1, 33408, Control_c, 0, 64, 115
1, 33412, Note_on_c, 0, 78, 87
1, 33453, Control_c, 0, 64, 115
1, 33463, Note_off_c, 0, 78, 63
1, 33493, Note_on_c, 0, 90, 94
1, 33512, Control_c, 0, 64, 113
1, 33527, Control_c, 0, 64, 102
1, 33539, Note_off_c, 0, 90, 66
1, 33542, Control_c, 0, 64, 84
1, 33556, Control_c, 0, 64, 67
1, 33571, Control_c, 0, 64, 0
1, 33598, Note_on_c, 0, 66, 63
1, 33600, Control_c, 0, 64, 58
1, 33615, Control_c, 0, 64, 70
1, 33630, Control_c, 0, 64, 77
1, 33645, Control_c, 0, 64, 83
1, 33657, Note_off_c, 0, 66, 63
1, 33660, Control_c, 0, 64, 84
1, 33675, Control_c, 0, 64, 86
1, 33687, Note_on_c, 0, 78, 45
1, 33690, Control_c, 0, 64, 88
1, 33702, Note_on_c, 0, 80, 26
1, 33705, Control_c, 0, 64, 91
1, 33711, Note_off_c, 0, 78, 57
1, 33720, Control_c, 0, 64, 92
1, 33734, Control_c, 0, 64, 93
1, 33737, Note_off_c, 0, 80, 43
1, 33764, Control_c, 0, 64, 93
1, 33767, Note_on_c, 0, 66, 69
1, 33786, Control_c, 0, 64, 94
1, 33800, Note_off_c, 0, 66, 68
1, 33801, Control_c, 0, 64, 95
1, 33851, Note_on_c, 0, 66, 76
1, 33879, Note_off_c, 0, 66, 63
1, 33889, Control_c, 0, 64, 93
1, 33904, Control_c, 0, 64, 85
1, 33919, Control_c, 0, 64, 73
1, 33934, Control_c, 0, 64, 0
1, 33958, Note_on_c, 0, 54, 53
1, 33979, Control_c, 0, 64, 18
1, 33994, Control_c, 0, 64, 64
1, 34002, Note_off_c, 0, 54, 61
1, 34008, Control_c, 0, 64, 69
1, 34023, Control_c, 0, 64, 70
1, 34031, Note_on_c, 0, 66, 61
1, 34038, Control_c, 0, 64, 71
1, 34053, Control_c, 0, 64, 71
1, 34066, Note_off_c, 0, 66, 49
1, 34068, Control_c, 0, 64, 72
1, 34082, Control_c, 0, 64, 73
1, 34112, Control_c, 0, 64, 73
1, 34127, Control_c, 0, 64, 74
1, 34148, Note_on_c, 0, 54, 52
1, 34173, Note_off_c, 0, 54, 56
1, 34246, Control_c, 0, 64, 73
1, 34253, Note_on_c, 0, 54, 35
1, 34261, Control_c, 0, 64, 69
1, 34276, Control_c, 0, 64, 62
1, 34280, Note_off_c, 0, 54, 46
1, 34291, Control_c, 0, 64, 0
1, 34370, Note_on_c, 0, 42, 40
1, 34394, Control_c, 0, 64, 56
1, 34401, Note_off_c, 0, 42, 53
1, 34409, Control_c, 0, 64, 68
1, 34423, Control_c, 0, 64, 71
1, 34438, Control_c, 0, 64, 73
1, 34453, Control_c, 0, 64, 74
1, 34468, Control_c, 0, 64, 76
1, 34483, Control_c, 0, 64, 78
1, 34484, Note_on_c, 0, 42, 43
1, 34498, Control_c, 0, 64, 79
1, 34512, Control_c, 0, 64, 80
1, 34515, Note_off_c, 0, 42, 52
1, 34535, Control_c, 0, 64, 80
1, 34550, Control_c, 0, 64, 81
1, 34565, Control_c, 0, 64, 81
1, 34570, Note_on_c, 0, 42, 60
1, 34579, Control_c, 0, 64, 82
1, 34592, Note_off_c, 0, 42, 62
1, 34594, Control_c, 0, 64, 83
1, 34638, Control_c, 0, 64, 83
1, 34662, Note_on_c, 0, 42, 59
1, 34687, Note_off_c, 0, 42, 58
1, 34753, Note_on_c, 0, 42, 65
1, 34778, Note_off_c, 0, 42, 57
1, 34837, Note_on_c, 0, 42, 58
1, 34862, Note_off_c, 0, 42, 56
1, 34927, Note_on_c, 0, 42, 68
1, 34951, Note_off_c, 0, 42, 65
1, 35010, Control_c, 0, 64, 84
1, 35016, Note_on_c, 0, 42, 53
1, 35062, Note_off_c, 0, 42, 59
1, 35115, Control_c, 0, 64, 83
1, 35129, Control_c, 0, 64, 81
1, 35144, Control_c, 0, 64, 72
1, 35159, Control_c, 0, 64, 42
1, 35174, Control_c, 0, 64, 0
1, 35218, Control_c, 0, 64, 48
1, 35233, Control_c, 0, 64, 69
1, 35247, Control_c, 0, 64, 77
1, 35262, Control_c, 0, 64, 83
1, 35284, Control_c, 0, 64, 86
1, 35299, Control_c, 0, 64, 88
1, 35301, Note_on_c, 0, 45, 58
1, 35314, Control_c, 0, 64, 91
1, 35326, Poly_aftertouch_c, 0, 42, 127
1, 35329, Control_c, 0, 64, 94
1, 35330, Note_off_c, 0, 45, 65
1, 35344, Control_c, 0, 64, 98
1, 35359, Control_c, 0, 64, 100
1, 35365, Poly_aftertouch_c, 0, 42, 0
1, 35374, Control_c, 0, 64, 102
1, 35388, Control_c, 0, 64, 103
1, 35403, Control_c, 0, 64, 103
1, 35410, Note_on_c, 0, 49, 49
1, 35418, Control_c, 0, 64, 104
1, 35433, Control_c, 0, 64, 104
1, 35448, Control_c, 0, 64, 105
1, 35481, Note_on_c, 0, 52, 54
1, 35492, Control_c, 0, 64, 105
1, 35497, Note_off_c, 0, 49, 65
1, 35510, Note_off_c, 0, 52, 68
1, 35563, Note_on_c, 0, 54, 62
1, 35591, Note_off_c, 0, 54, 64
1, 35655, Note_on_c, 0, 57, 60
1, 35686, Note_off_c, 0, 57, 63
1, 35739, Note_on_c, 0, 61, 78
1, 35764, Note_off_c, 0, 61, 67
1, 35837, Note_on_c, 0, 64, 52
1, 35847, Note_on_c, 0, 61, 55
1, 35868, Note_off_c, 0, 64, 60
1, 35874, Note_off_c, 0, 61, 64
1, 35922, Control_c, 0, 64, 106
1, 35937, Note_on_c, 0, 49, 60
1, 35981, Note_off_c, 0, 49, 58
1, 36051, Note_on_c, 0, 52, 40
1, 36054, Note_on_c, 0, 53, 37
1, 36080, Note_off_c, 0, 52, 50
1, 36087, Note_off_c, 0, 53, 54
1, 36119, Note_on_c, 0, 54, 64
1, 36189, Note_on_c, 0, 57, 61
1, 36221, Note_off_c, 0, 54, 63
1, 36221, Note_off_c, 0, 57, 64
1, 36277, Note_on_c, 0, 61, 74
1, 36299, Note_off_c, 0, 61, 67
1, 36356, Note_on_c, 0, 61, 62
1, 36372, Note_on_c, 0, 64, 56
1, 36382, Note_off_c, 0, 61, 66
1, 36404, Note_off_c, 0, 64, 65
1, 36418, Control_c, 0, 64, 106
1, 36444, Note_on_c, 0, 66, 79
1, 36470, Note_off_c, 0, 66, 66
1, 36539, Note_on_c, 0, 69, 62
1, 36551, Note_on_c, 0, 66, 67
1, 36567, Control_c, 0, 64, 106
1, 36581, Control_c, 0, 64, 104
1, 36590, Note_off_c, 0, 66, 65
1, 36596, Control_c, 0, 64, 95
1, 36599, Note_off_c, 0, 69, 65
1, 36611, Control_c, 0, 64, 77
1, 36626, Control_c, 0, 64, 54
1, 36641, Control_c, 0, 64, 0
1, 36644, Note_on_c, 0, 54, 70
1, 36671, Control_c, 0, 64, 65
1, 36686, Control_c, 0, 64, 77
1, 36691, Note_off_c, 0, 54, 57
1, 36700, Control_c, 0, 64, 88
1, 36715, Control_c, 0, 64, 92
1, 36730, Control_c, 0, 64, 95
1, 36745, Control_c, 0, 64, 98
1, 36757, Note_on_c, 0, 57, 59
1, 36760, Control_c, 0, 64, 103
1, 36779, Note_on_c, 0, 54, 47
1, 36781, Control_c, 0, 64, 108
1, 36796, Control_c, 0, 64, 112
1, 36799, Note_off_c, 0, 57, 63
1, 36805, Note_off_c, 0, 54, 56
1, 36811, Control_c, 0, 64, 114
1, 36826, Control_c, 0, 64, 115
1, 36841, Control_c, 0, 64, 115
1, 36846, Note_on_c, 0, 61, 71
1, 36870, Control_c, 0, 64, 116
1, 36879, Note_off_c, 0, 61, 60
1, 36928, Note_on_c, 0, 64, 61
1, 36937, Note_on_c, 0, 61, 56
1, 36963, Note_off_c, 0, 61, 66
1, 36966, Note_off_c, 0, 64, 64
1, 37004, Control_c, 0, 64, 116
1, 37016, Note_on_c, 0, 61, 78
1, 37052, Note_off_c, 0, 61, 56
1, 37100, Note_on_c, 0, 64, 64
1, 37118, Note_on_c, 0, 61, 26
1, 37133, Note_off_c, 0, 64, 60
1, 37155, Note_off_c, 0, 61, 42
1, 37208, Note_on_c, 0, 66, 63
1, 37225, Note_off_c, 0, 66, 67
1, 37276, Note_on_c, 0, 69, 68
1, 37306, Note_on_c, 0, 66, 56
1, 37323, Note_off_c, 0, 66, 66
1, 37326, Note_off_c, 0, 69, 58
1, 37375, Control_c, 0, 64, 117
1, 37392, Note_on_c, 0, 66, 80
1, 37441, Note_off_c, 0, 66, 63
1, 37493, Note_on_c, 0, 69, 65
1, 37499, Note_on_c, 0, 66, 48
1, 37526, Note_off_c, 0, 69, 69
1, 37534, Note_off_c, 0, 66, 57
1, 37617, Note_on_c, 0, 73, 69
1, 37651, Note_off_c, 0, 73, 59
1, 37725, Note_on_c, 0, 76, 64
1, 37742, Note_on_c, 0, 73, 58
1, 37766, Note_off_c, 0, 73, 67
1, 37768, Note_off_c, 0, 76, 63
1, 37848, Note_on_c, 0, 73, 71
1, 37893, Note_off_c, 0, 73, 55
1, 37949, Note_on_c, 0, 76, 68
1, 38000, Note_off_c, 0, 76, 65
1, 38019, Poly_aftertouch_c, 0, 73, 0
1, 38051, Poly_aftertouch_c, 0, 73, 0
1, 38090, Note_on_c, 0, 78, 75
1, 38133, Note_off_c, 0, 78, 59
1, 38214, Note_on_c, 0, 81, 69
1, 38228, Note_on_c, 0, 78, 70
1, 38253, Note_off_c, 0, 78, 66
1, 38271, Note_off_c, 0, 81, 61
1, 38412, Control_c, 0, 64, 116
1, 38427, Control_c, 0, 64, 115
1, 38442, Control_c, 0, 64, 110
1, 38457, Control_c, 0, 64, 99
1, 38471, Control_c, 0, 64, 86
1, 38480, Note_on_c, 0, 85, 71
1, 38486, Control_c, 0, 64, 71
1, 38491, Note_on_c, 0, 78, 52
1, 38501, Control_c, 0, 64, 20
1, 38516, Note_on_c, 0, 73, 36
1, 38516, Control_c, 0, 64, 0
1, 38534, Note_on_c, 0, 74, 17
1, 38556, Note_off_c, 0, 78, 45
1, 38560, Control_c, 0, 64, 64
1, 38575, Control_c, 0, 64, 72
1, 38590, Control_c, 0, 64, 78
1, 38605, Control_c, 0, 64, 82
1, 38620, Control_c, 0, 64, 85
1, 38635, Control_c, 0, 64, 88
1, 38644, Note_on_c, 0, 78, 53
1, 38650, Control_c, 0, 64, 91
1, 38665, Control_c, 0, 64, 94
1, 38665, Note_off_c, 0, 73, 44
1, 38671, Note_off_c, 0, 74, 34
1, 38679, Control_c, 0, 64, 96
1, 38695, Control_c, 0, 64, 97
1, 38710, Control_c, 0, 64, 98
1, 38724, Control_c, 0, 64, 99
1, 38739, Control_c, 0, 64, 100
1, 38742, Note_off_c, 0, 78, 30
1, 38754, Note_off_c, 0, 85, 29
1, 38754, Control_c, 0, 64, 100
1, 38762, Note_on_c, 0, 71, 46
1, 38769, Control_c, 0, 64, 101
1, 38778, Note_on_c, 0, 74, 46
1, 38798, Control_c, 0, 64, 101
1, 38812, Note_off_c, 0, 74, 54
1, 38817, Note_off_c, 0, 71, 45
1, 38843, Control_c, 0, 64, 102
1, 38859, Note_on_c, 0, 83, 71
1, 39007, Control_c, 0, 64, 99
1, 39028, Control_c, 0, 64, 92
1, 39031, Note_on_c, 0, 85, 74
1, 39040, Note_off_c, 0, 83, 59
1, 39043, Control_c, 0, 64, 80
1, 39052, Note_on_c, 0, 78, 55
1, 39058, Control_c, 0, 64, 68
1, 39073, Control_c, 0, 64, 0
1, 39085, Note_on_c, 0, 73, 35
1, 39090, Note_off_c, 0, 78, 46
1, 39091, Note_on_c, 0, 74, 16
1, 39103, Control_c, 0, 64, 50
1, 39118, Control_c, 0, 64, 68
1, 39133, Control_c, 0, 64, 76
1, 39138, Note_off_c, 0, 74, 48
1, 39148, Control_c, 0, 64, 82
1, 39163, Control_c, 0, 64, 84
1, 39163, Note_on_c, 0, 78, 63
1, 39177, Control_c, 0, 64, 86
1, 39192, Control_c, 0, 64, 88
1, 39207, Control_c, 0, 64, 91
1, 39212, Note_off_c, 0, 85, 58
1, 39221, Control_c, 0, 64, 94
1, 39226, Note_off_c, 0, 73, 30
1, 39236, Control_c, 0, 64, 96
1, 39246, Note_on_c, 0, 71, 45
1, 39251, Control_c, 0, 64, 97
1, 39264, Note_on_c, 0, 74, 59
1, 39271, Note_off_c, 0, 71, 52
1, 39281, Note_off_c, 0, 78, 58
1, 39281, Control_c, 0, 64, 97
1, 39295, Control_c, 0, 64, 98
1, 39310, Control_c, 0, 64, 98
1, 39344, Note_on_c, 0, 83, 71
1, 39356, Note_off_c, 0, 74, 61
1, 39384, Control_c, 0, 64, 99
1, 39473, Note_on_c, 0, 81, 78
1, 39473, Control_c, 0, 64, 97
1, 39481, Note_on_c, 0, 74, 61
1, 39488, Control_c, 0, 64, 89
1, 39500, Note_off_c, 0, 83, 56
1, 39502, Control_c, 0, 64, 75
1, 39517, Control_c, 0, 64, 48
1, 39523, Note_on_c, 0, 69, 26
1, 39532, Control_c, 0, 64, 0
1, 39562, Note_off_c, 0, 69, 51
1, 39576, Note_on_c, 0, 79, 71
1, 39577, Control_c, 0, 64, 67
1, 39592, Control_c, 0, 64, 75
1, 39604, Note_on_c, 0, 67, 18
1, 39607, Control_c, 0, 64, 81
1, 39611, Note_off_c, 0, 81, 53
1, 39621, Control_c, 0, 64, 83
1, 39636, Control_c, 0, 64, 84
1, 39651, Control_c, 0, 64, 86
1, 39652, Note_off_c, 0, 67, 48
1, 39666, Control_c, 0, 64, 89
1, 39681, Control_c, 0, 64, 92
1, 39681, Note_on_c, 0, 78, 76
1, 39685, Note_on_c, 0, 66, 55
1, 39695, Control_c, 0, 64, 94
1, 39708, Note_off_c, 0, 79, 57
1, 39710, Control_c, 0, 64, 96
1, 39725, Control_c, 0, 64, 96
1, 39728, Note_off_c, 0, 66, 61
1, 39738, Note_off_c, 0, 74, 40
1, 39741, Control_c, 0, 64, 97
1, 39756, Control_c, 0, 64, 98
1, 39778, Control_c, 0, 64, 99
1, 39787, Note_off_c, 0, 78, 60
1, 39790, Note_on_c, 0, 71, 59
1, 39793, Control_c, 0, 64, 99
1, 39811, Note_off_c, 0, 71, 60
1, 39837, Control_c, 0, 64, 100
1, 39896, Control_c, 0, 64, 99
1, 39897, Note_on_c, 0, 83, 72
1, 39905, Note_on_c, 0, 71, 50
1, 39911, Control_c, 0, 64, 94
1, 39926, Control_c, 0, 64, 82
1, 39931, Note_on_c, 0, 74, 37
1, 39933, Note_on_c, 0, 76, 32
1, 39941, Control_c, 0, 64, 68
1, 39956, Control_c, 0, 64, 0
1, 39974, Note_off_c, 0, 74, 45
1, 39985, Note_off_c, 0, 76, 0
1, 39996, Note_on_c, 0, 76, 54
1, 40000, Control_c, 0, 64, 66
1, 40011, Note_off_c, 0, 71, 49
1, 40015, Control_c, 0, 64, 75
1, 40030, Control_c, 0, 64, 82
1, 40044, Control_c, 0, 64, 85
1, 40059, Control_c, 0, 64, 86
1, 40074, Control_c, 0, 64, 87
1, 40089, Control_c, 0, 64, 90
1, 40091, Note_on_c, 0, 69, 62
1, 40096, Note_on_c, 0, 72, 66
1, 40097, Note_off_c, 0, 76, 61
1, 40104, Control_c, 0, 64, 93
1, 40118, Control_c, 0, 64, 96
1, 40128, Note_off_c, 0, 69, 62
1, 40133, Control_c, 0, 64, 98
1, 40134, Note_off_c, 0, 83, 50
1, 40148, Control_c, 0, 64, 99
1, 40163, Control_c, 0, 64, 101
1, 40171, Note_on_c, 0, 81, 79
1, 40177, Control_c, 0, 64, 102
1, 40179, Note_off_c, 0, 72, 62
1, 40192, Control_c, 0, 64, 103
1, 40251, Control_c, 0, 64, 103
1, 40268, Note_on_c, 0, 83, 75
1, 40275, Note_off_c, 0, 81, 60
1, 40280, Note_on_c, 0, 76, 46
1, 40294, Note_on_c, 0, 71, 45
1, 40361, Note_on_c, 0, 81, 80
1, 40366, Note_off_c, 0, 76, 62
1, 40366, Note_off_c, 0, 71, 60
1, 40367, Note_on_c, 0, 69, 52
1, 40383, Note_off_c, 0, 83, 59
1, 40387, Note_off_c, 0, 69, 65
1, 40432, Note_off_c, 0, 81, 57
1, 40464, Note_on_c, 0, 74, 68
1, 40486, Note_on_c, 0, 72, 59
1, 40490, Note_on_c, 0, 62, 55
1, 40506, Note_off_c, 0, 72, 63
1, 40521, Note_off_c, 0, 62, 56
1, 40570, Note_on_c, 0, 69, 53
1, 40620, Note_off_c, 0, 74, 59
1, 40631, Note_off_c, 0, 69, 61
1, 40674, Control_c, 0, 64, 102
1, 40689, Control_c, 0, 64, 96
1, 40698, Note_on_c, 0, 69, 44
1, 40701, Note_on_c, 0, 76, 71
1, 40704, Control_c, 0, 64, 83
1, 40705, Note_on_c, 0, 64, 54
1, 40707, Note_on_c, 0, 72, 54
1, 40719, Control_c, 0, 64, 66
1, 40734, Control_c, 0, 64, 0
1, 40763, Control_c, 0, 64, 48
1, 40778, Control_c, 0, 64, 69
1, 40784, Note_off_c, 0, 64, 62
1, 40784, Note_off_c, 0, 72, 54
1, 40793, Control_c, 0, 64, 77
1, 40802, Note_off_c, 0, 69, 64
1, 40808, Control_c, 0, 64, 84
1, 40820, Note_on_c, 0, 72, 22
1, 40823, Control_c, 0, 64, 88
1, 40838, Control_c, 0, 64, 90
1, 40853, Control_c, 0, 64, 93
1, 40855, Note_off_c, 0, 76, 55
1, 40867, Control_c, 0, 64, 96
1, 40882, Control_c, 0, 64, 98
1, 40897, Control_c, 0, 64, 100
1, 40912, Control_c, 0, 64, 101
1, 40927, Control_c, 0, 64, 102
1, 40938, Note_on_c, 0, 78, 74
1, 40939, Control_c, 0, 64, 103
1, 40942, Note_off_c, 0, 72, 35
1, 40945, Note_on_c, 0, 66, 55
1, 40948, Note_on_c, 0, 73, 49
1, 40954, Control_c, 0, 64, 104
1, 40969, Control_c, 0, 64, 105
1, 40982, Note_off_c, 0, 73, 62
1, 40991, Note_on_c, 0, 70, 12
1, 41014, Control_c, 0, 64, 105
1, 41022, Note_off_c, 0, 66, 64
1, 41035, Note_off_c, 0, 70, 38
1, 41044, Note_on_c, 0, 73, 57
1, 41050, Note_off_c, 0, 78, 59
1, 41073, Note_off_c, 0, 73, 66
1, 41221, Control_c, 0, 64, 103
1, 41231, Note_on_c, 0, 73, 66
1, 41236, Control_c, 0, 64, 95
1, 41243, Note_on_c, 0, 66, 47
1, 41251, Control_c, 0, 64, 82
1, 41267, Note_on_c, 0, 61, 41
1, 41273, Control_c, 0, 64, 67
1, 41276, Note_on_c, 0, 62, 38
1, 41288, Control_c, 0, 64, 0
1, 41289, Note_off_c, 0, 66, 56
1, 41332, Control_c, 0, 64, 65
1, 41348, Control_c, 0, 64, 74
1, 41353, Note_off_c, 0, 62, 36
1, 41363, Control_c, 0, 64, 80
1, 41374, Note_on_c, 0, 66, 61
1, 41377, Control_c, 0, 64, 83
1, 41392, Control_c, 0, 64, 85
1, 41405, Note_off_c, 0, 61, 38
1, 41407, Control_c, 0, 64, 88
1, 41422, Control_c, 0, 64, 90
1, 41437, Control_c, 0, 64, 93
1, 41449, Note_off_c, 0, 66, 55
1, 41452, Control_c, 0, 64, 94
1, 41467, Control_c, 0, 64, 95
1, 41482, Control_c, 0, 64, 96
1, 41482, Note_on_c, 0, 62, 62
1, 41484, Note_on_c, 0, 59, 49
1, 41489, Note_off_c, 0, 73, 29
1, 41496, Control_c, 0, 64, 97
1, 41511, Control_c, 0, 64, 98
1, 41523, Note_off_c, 0, 59, 56
1, 41541, Control_c, 0, 64, 99
1, 41556, Note_off_c, 0, 62, 56
1, 41564, Note_on_c, 0, 71, 69
1, 41570, Control_c, 0, 64, 99
1, 41585, Control_c, 0, 64, 100
1, 41629, Control_c, 0, 64, 100
1, 41704, Control_c, 0, 64, 98
1, 41711, Note_on_c, 0, 73, 72
1, 41714, Note_off_c, 0, 71, 55
1, 41719, Control_c, 0, 64, 90
1, 41731, Note_on_c, 0, 66, 51
1, 41734, Control_c, 0, 64, 76
1, 41747, Note_on_c, 0, 62, 28
1, 41748, Control_c, 0, 64, 52
1, 41749, Note_on_c, 0, 61, 47
1, 41763, Control_c, 0, 64, 0
1, 41793, Control_c, 0, 64, 39
1, 41796, Note_off_c, 0, 66, 0
1, 41803, Note_off_c, 0, 62, 41
1, 41808, Control_c, 0, 64, 67
1, 41809, Note_on_c, 0, 66, 54
1, 41809, Note_off_c, 0, 61, 50
1, 41822, Control_c, 0, 64, 75
1, 41837, Control_c, 0, 64, 81
1, 41851, Note_off_c, 0, 73, 55
1, 41852, Control_c, 0, 64, 83
1, 41867, Control_c, 0, 64, 85
1, 41882, Control_c, 0, 64, 87
1, 41896, Control_c, 0, 64, 90
1, 41911, Control_c, 0, 64, 92
1, 41917, Note_on_c, 0, 59, 45
1, 41923, Note_on_c, 0, 62, 65
1, 41926, Control_c, 0, 64, 94
1, 41933, Note_off_c, 0, 66, 57
1, 41941, Control_c, 0, 64, 94
1, 41941, Note_off_c, 0, 59, 53
1, 41956, Control_c, 0, 64, 95
1, 41971, Control_c, 0, 64, 95
1, 41986, Control_c, 0, 64, 96
1, 42000, Note_on_c, 0, 71, 69
1, 42000, Control_c, 0, 64, 96
1, 42013, Note_off_c, 0, 62, 59
1, 42022, Control_c, 0, 64, 97
1, 42111, Control_c, 0, 64, 96
1, 42112, Note_on_c, 0, 62, 54
1, 42114, Note_on_c, 0, 69, 74
1, 42123, Note_on_c, 0, 57, 51
1, 42126, Control_c, 0, 64, 91
1, 42142, Control_c, 0, 64, 80
1, 42150, Note_off_c, 0, 71, 53
1, 42157, Control_c, 0, 64, 63
1, 42172, Control_c, 0, 64, 0
1, 42212, Note_on_c, 0, 67, 71
1, 42212, Note_off_c, 0, 57, 52
1, 42230, Note_on_c, 0, 55, 43
1, 42245, Control_c, 0, 64, 64
1, 42246, Note_off_c, 0, 69, 59
1, 42260, Control_c, 0, 64, 71
1, 42275, Control_c, 0, 64, 75
1, 42278, Note_off_c, 0, 55, 47
1, 42290, Control_c, 0, 64, 79
1, 42305, Control_c, 0, 64, 81
1, 42309, Note_on_c, 0, 66, 75
1, 42319, Control_c, 0, 64, 83
1, 42329, Note_off_c, 0, 67, 56
1, 42334, Control_c, 0, 64, 85
1, 42344, Note_on_c, 0, 54, 43
1, 42349, Control_c, 0, 64, 88
1, 42364, Control_c, 0, 64, 90
1, 42372, Note_off_c, 0, 54, 55
1, 42378, Note_off_c, 0, 62, 35
1, 42379, Control_c, 0, 64, 92
1, 42394, Control_c, 0, 64, 93
1, 42406, Note_off_c, 0, 66, 63
1, 42409, Note_on_c, 0, 59, 66
1, 42409, Control_c, 0, 64, 94
1, 42424, Control_c, 0, 64, 95
1, 42453, Note_off_c, 0, 59, 56
1, 42483, Control_c, 0, 64, 94
1, 42498, Control_c, 0, 64, 89
1, 42511, Note_on_c, 0, 71, 68
1, 42512, Control_c, 0, 64, 77
1, 42518, Note_on_c, 0, 59, 39
1, 42519, Note_on_c, 0, 64, 49
1, 42527, Control_c, 0, 64, 58
1, 42542, Control_c, 0, 64, 0
1, 42550, Note_on_c, 0, 62, 27
1, 42550, Note_off_c, 0, 64, 53
1, 42571, Control_c, 0, 64, 46
1, 42586, Control_c, 0, 64, 69
1, 42591, Note_off_c, 0, 62, 47
1, 42597, Note_off_c, 0, 59, 53
1, 42601, Control_c, 0, 64, 77
1, 42602, Note_on_c, 0, 64, 61
1, 42616, Control_c, 0, 64, 82
1, 42631, Control_c, 0, 64, 84
1, 42645, Control_c, 0, 64, 85
1, 42660, Control_c, 0, 64, 87
1, 42675, Control_c, 0, 64, 89
1, 42690, Control_c, 0, 64, 91
1, 42701, Note_off_c, 0, 64, 59
1, 42702, Note_on_c, 0, 60, 71
1, 42704, Note_on_c, 0, 57, 56
1, 42705, Control_c, 0, 64, 93
1, 42719, Control_c, 0, 64, 94
1, 42720, Note_off_c, 0, 71, 33
1, 42734, Control_c, 0, 64, 95
1, 42741, Note_off_c, 0, 57, 62
1, 42749, Control_c, 0, 64, 96
1, 42781, Note_off_c, 0, 60, 62
1, 42786, Control_c, 0, 64, 96
1, 42789, Note_on_c, 0, 69, 72
1, 42816, Control_c, 0, 64, 97
1, 42888, Note_on_c, 0, 71, 74
1, 42893, Note_off_c, 0, 69, 64
1, 42896, Note_on_c, 0, 59, 45
1, 42904, Note_on_c, 0, 64, 52
1, 42950, Control_c, 0, 64, 97
1, 42973, Note_on_c, 0, 57, 52
1, 42974, Note_off_c, 0, 59, 61
1, 42978, Note_on_c, 0, 69, 77
1, 42980, Note_off_c, 0, 64, 62
1, 42996, Note_off_c, 0, 57, 61
1, 42996, Note_off_c, 0, 71, 56
1, 43062, Note_off_c, 0, 69, 63
1, 43085, Note_on_c, 0, 62, 73
1, 43094, Note_on_c, 0, 60, 62
1, 43096, Note_on_c, 0, 50, 61
1, 43113, Control_c, 0, 64, 98
1, 43116, Note_off_c, 0, 60, 63
1, 43120, Note_off_c, 0, 50, 59
1, 43189, Note_on_c, 0, 57, 59
1, 43221, Note_off_c, 0, 62, 58
1, 43232, Note_off_c, 0, 57, 56
1, 43290, Control_c, 0, 64, 97
1, 43296, Note_on_c, 0, 57, 44
1, 43302, Note_on_c, 0, 60, 61
1, 43305, Control_c, 0, 64, 87
1, 43306, Note_on_c, 0, 64, 69
1, 43315, Note_on_c, 0, 52, 55
1, 43320, Control_c, 0, 64, 71
1, 43335, Control_c, 0, 64, 0
1, 43379, Control_c, 0, 64, 26
1, 43391, Note_off_c, 0, 52, 61
1, 43393, Control_c, 0, 64, 68
1, 43395, Note_off_c, 0, 64, 63
1, 43408, Control_c, 0, 64, 79
1, 43413, Note_off_c, 0, 60, 0
1, 43423, Note_off_c, 0, 57, 58
1, 43423, Control_c, 0, 64, 86
1, 43424, Note_on_c, 0, 60, 39
1, 43438, Control_c, 0, 64, 88
1, 43453, Control_c, 0, 64, 90
1, 43467, Control_c, 0, 64, 92
1, 43482, Control_c, 0, 64, 94
1, 43487, Note_off_c, 0, 60, 55
1, 43497, Control_c, 0, 64, 96
1, 43519, Control_c, 0, 64, 98
1, 43534, Control_c, 0, 64, 99
1, 43544, Note_on_c, 0, 66, 71
1, 43548, Note_on_c, 0, 54, 47
1, 43549, Control_c, 0, 64, 100
1, 43551, Note_on_c, 0, 61, 54
1, 43564, Control_c, 0, 64, 101
1, 43579, Control_c, 0, 64, 102
1, 43584, Note_off_c, 0, 61, 64
1, 43592, Note_on_c, 0, 58, 25
1, 43593, Control_c, 0, 64, 103
1, 43608, Control_c, 0, 64, 103
1, 43619, Note_off_c, 0, 54, 60
1, 43623, Control_c, 0, 64, 104
1, 43627, Note_off_c, 0, 58, 42
1, 43638, Control_c, 0, 64, 104
1, 43652, Note_on_c, 0, 61, 65
1, 43664, Note_off_c, 0, 66, 60
1, 43678, Note_off_c, 0, 61, 67
1, 43711, Control_c, 0, 64, 105
1, 43802, Control_c, 0, 64, 104
1, 43831, Control_c, 0, 64, 102
1, 43846, Note_on_c, 0, 59, 63
1, 43846, Control_c, 0, 64, 95
1, 43851, Note_on_c, 0, 47, 54
1, 43861, Control_c, 0, 64, 83
1, 43869, Note_on_c, 0, 50, 42
1, 43876, Control_c, 0, 64, 68
1, 43890, Control_c, 0, 64, 0
1, 43915, Note_off_c, 0, 50, 46
1, 43935, Control_c, 0, 64, 62
1, 43950, Control_c, 0, 64, 71
1, 43965, Control_c, 0, 64, 77
1, 43980, Control_c, 0, 64, 83
1, 43994, Note_on_c, 0, 54, 42
1, 43995, Control_c, 0, 64, 85
1, 44009, Control_c, 0, 64, 88
1, 44024, Control_c, 0, 64, 90
1, 44032, Note_off_c, 0, 54, 50
1, 44039, Control_c, 0, 64, 92
1, 44054, Control_c, 0, 64, 95
1, 44069, Control_c, 0, 64, 97
1, 44083, Control_c, 0, 64, 98
1, 44084, Note_on_c, 0, 45, 49
1, 44085, Note_off_c, 0, 47, 36
1, 44098, Note_on_c, 0, 50, 50
1, 44098, Control_c, 0, 64, 99
1, 44113, Control_c, 0, 64, 99
1, 44128, Control_c, 0, 64, 100
1, 44132, Note_off_c, 0, 45, 62
1, 44142, Control_c, 0, 64, 100
1, 44150, Note_off_c, 0, 50, 42
1, 44157, Control_c, 0, 64, 101
1, 44165, Note_on_c, 0, 57, 67
1, 44187, Control_c, 0, 64, 102
1, 44202, Control_c, 0, 64, 102
1, 44206, Note_off_c, 0, 59, 37
1, 44216, Control_c, 0, 64, 103
1, 44235, Note_off_c, 0, 57, 58
1, 44295, Note_on_c, 0, 47, 62
1, 44295, Note_on_c, 0, 50, 52
1, 44297, Note_on_c, 0, 59, 76
1, 44298, Control_c, 0, 64, 100
1, 44313, Control_c, 0, 64, 90
1, 44328, Control_c, 0, 64, 74
1, 44340, Note_off_c, 0, 50, 59
1, 44342, Control_c, 0, 64, 0
1, 44387, Control_c, 0, 64, 46
1, 44402, Control_c, 0, 64, 69
1, 44406, Note_on_c, 0, 54, 62
1, 44416, Control_c, 0, 64, 78
1, 44431, Control_c, 0, 64, 85
1, 44446, Control_c, 0, 64, 89
1, 44461, Control_c, 0, 64, 92
1, 44472, Note_off_c, 0, 54, 58
1, 44476, Control_c, 0, 64, 94
1, 44490, Control_c, 0, 64, 97
1, 44503, Note_on_c, 0, 50, 69
1, 44505, Control_c, 0, 64, 101
1, 44508, Note_on_c, 0, 45, 53
1, 44520, Control_c, 0, 64, 104
1, 44536, Control_c, 0, 64, 106
1, 44537, Note_off_c, 0, 47, 54
1, 44551, Control_c, 0, 64, 107
1, 44565, Control_c, 0, 64, 108
1, 44572, Note_off_c, 0, 45, 61
1, 44572, Note_off_c, 0, 50, 44
1, 44580, Control_c, 0, 64, 109
1, 44589, Note_on_c, 0, 57, 72
1, 44595, Control_c, 0, 64, 111
1, 44610, Control_c, 0, 64, 111
1, 44616, Note_off_c, 0, 59, 29
1, 44639, Control_c, 0, 64, 112
1, 44648, Note_off_c, 0, 57, 61
1, 44654, Control_c, 0, 64, 114
1, 44669, Control_c, 0, 64, 114
1, 44746, Note_on_c, 0, 62, 77
1, 44760, Note_on_c, 0, 50, 55
1, 44773, Note_on_c, 0, 52, 47
1, 44773, Control_c, 0, 64, 113
1, 44788, Control_c, 0, 64, 105
1, 44803, Control_c, 0, 64, 92
1, 44814, Note_off_c, 0, 52, 63
1, 44818, Control_c, 0, 64, 75
1, 44832, Control_c, 0, 64, 0
1, 44862, Note_on_c, 0, 55, 63
1, 44877, Control_c, 0, 64, 41
1, 44892, Control_c, 0, 64, 67
1, 44907, Control_c, 0, 64, 75
1, 44922, Control_c, 0, 64, 82
1, 44937, Control_c, 0, 64, 88
1, 44946, Note_on_c, 0, 49, 63
1, 44952, Control_c, 0, 64, 91
1, 44957, Note_off_c, 0, 55, 60
1, 44958, Note_on_c, 0, 52, 67
1, 44966, Control_c, 0, 64, 94
1, 44981, Control_c, 0, 64, 97
1, 44985, Note_off_c, 0, 50, 38
1, 44996, Control_c, 0, 64, 101
1, 45018, Control_c, 0, 64, 104
1, 45024, Note_off_c, 0, 49, 60
1, 45033, Control_c, 0, 64, 106
1, 45035, Note_off_c, 0, 52, 61
1, 45038, Note_on_c, 0, 61, 74
1, 45047, Control_c, 0, 64, 108
1, 45062, Control_c, 0, 64, 109
1, 45074, Note_off_c, 0, 62, 58
1, 45077, Control_c, 0, 64, 111
1, 45092, Control_c, 0, 64, 112
1, 45133, Note_on_c, 0, 45, 61
1, 45144, Note_on_c, 0, 57, 77
1, 45151, Control_c, 0, 64, 106
1, 45154, Note_off_c, 0, 61, 60
1, 45160, Note_on_c, 0, 55, 63
1, 45166, Control_c, 0, 64, 92
1, 45181, Control_c, 0, 64, 73
1, 45182, Note_on_c, 0, 52, 26
1, 45196, Control_c, 0, 64, 0
1, 45203, Note_off_c, 0, 52, 48
1, 45208, Note_off_c, 0, 55, 56
1, 45216, Note_off_c, 0, 45, 60
1, 45223, Note_on_c, 0, 47, 59
1, 45236, Note_on_c, 0, 59, 71
1, 45240, Control_c, 0, 64, 30
1, 45255, Control_c, 0, 64, 68
1, 45270, Control_c, 0, 64, 77
1, 45283, Note_off_c, 0, 57, 55
1, 45285, Control_c, 0, 64, 84
1, 45299, Control_c, 0, 64, 89
1, 45314, Control_c, 0, 64, 93
1, 45329, Control_c, 0, 64, 97
1, 45333, Note_off_c, 0, 47, 63
1, 45335, Note_on_c, 0, 61, 80
1, 45344, Note_on_c, 0, 49, 64
1, 45345, Control_c, 0, 64, 102
1, 45352, Note_off_c, 0, 59, 59
1, 45360, Control_c, 0, 64, 106
1, 45375, Control_c, 0, 64, 109
1, 45384, Note_off_c, 0, 49, 61
1, 45389, Control_c, 0, 64, 111
1, 45404, Control_c, 0, 64, 113
1, 45419, Control_c, 0, 64, 114
1, 45434, Control_c, 0, 64, 116
1, 45443, Note_on_c, 0, 55, 70
1, 45449, Control_c, 0, 64, 117
1, 45463, Control_c, 0, 64, 117
1, 45488, Note_off_c, 0, 61, 56
1, 45523, Control_c, 0, 64, 114
1, 45533, Note_on_c, 0, 64, 73
1, 45534, Note_on_c, 0, 54, 54
1, 45536, Note_off_c, 0, 55, 44
1, 45537, Control_c, 0, 64, 101
1, 45540, Note_on_c, 0, 52, 63
1, 45552, Control_c, 0, 64, 83
1, 45567, Control_c, 0, 64, 64
1, 45572, Note_off_c, 0, 54, 60
1, 45581, Control_c, 0, 64, 0
1, 45611, Control_c, 0, 64, 64
1, 45626, Control_c, 0, 64, 76
1, 45627, Note_off_c, 0, 64, 65
1, 45637, Note_on_c, 0, 57, 65
1, 45641, Control_c, 0, 64, 87
1, 45655, Control_c, 0, 64, 94
1, 45670, Control_c, 0, 64, 95
1, 45685, Control_c, 0, 64, 97
1, 45688, Note_off_c, 0, 57, 52
1, 45700, Control_c, 0, 64, 100
1, 45715, Note_off_c, 0, 52, 56
1, 45715, Control_c, 0, 64, 102
1, 45727, Note_on_c, 0, 50, 56
1, 45730, Control_c, 0, 64, 104
1, 45732, Note_on_c, 0, 54, 74
1, 45744, Control_c, 0, 64, 106
1, 45767, Control_c, 0, 64, 106
1, 45782, Control_c, 0, 64, 107
1, 45796, Control_c, 0, 64, 108
1, 45809, Note_off_c, 0, 54, 60
1, 45811, Control_c, 0, 64, 109
1, 45814, Note_on_c, 0, 62, 73
1, 45819, Note_off_c, 0, 50, 51
1, 45826, Control_c, 0, 64, 111
1, 45860, Note_on_c, 0, 47, 68
1, 45885, Control_c, 0, 64, 110
1, 45900, Control_c, 0, 64, 96
1, 45910, Note_on_c, 0, 59, 70
1, 45911, Note_off_c, 0, 62, 61
1, 45914, Note_on_c, 0, 54, 65
1, 45914, Control_c, 0, 64, 77
1, 45929, Control_c, 0, 64, 0
1, 45948, Note_off_c, 0, 47, 61
1, 45958, Note_on_c, 0, 50, 59
1, 45960, Note_off_c, 0, 54, 52
1, 45974, Control_c, 0, 64, 63
1, 45989, Control_c, 0, 64, 79
1, 46004, Note_on_c, 0, 62, 78
1, 46004, Control_c, 0, 64, 91
1, 46008, Note_off_c, 0, 59, 62
1, 46019, Control_c, 0, 64, 99
1, 46034, Control_c, 0, 64, 100
1, 46049, Control_c, 0, 64, 101
1, 46063, Control_c, 0, 64, 104
1, 46070, Note_on_c, 0, 54, 69
1, 46078, Control_c, 0, 64, 108
1, 46088, Note_on_c, 0, 66, 80
1, 46093, Control_c, 0, 64, 112
1, 46093, Note_off_c, 0, 50, 56
1, 46108, Control_c, 0, 64, 114
1, 46111, Note_off_c, 0, 62, 55
1, 46122, Control_c, 0, 64, 115
1, 46135, Note_off_c, 0, 54, 61
1, 46138, Control_c, 0, 64, 117
1, 46153, Control_c, 0, 64, 118
1, 46168, Control_c, 0, 64, 119
1, 46171, Note_on_c, 0, 61, 73
1, 46183, Control_c, 0, 64, 120
1, 46198, Control_c, 0, 64, 121
1, 46212, Note_off_c, 0, 66, 62
1, 46212, Control_c, 0, 64, 121
1, 46261, Note_off_c, 0, 61, 50
1, 46268, Note_on_c, 0, 64, 75
1, 46272, Control_c, 0, 64, 120
1, 46273, Note_on_c, 0, 52, 70
1, 46286, Control_c, 0, 64, 110
1, 46301, Control_c, 0, 64, 93
1, 46316, Control_c, 0, 64, 72
1, 46331, Control_c, 0, 64, 0
1, 46361, Note_on_c, 0, 59, 66
1, 46375, Control_c, 0, 64, 58
1, 46390, Control_c, 0, 64, 72
1, 46404, Control_c, 0, 64, 82
1, 46419, Control_c, 0, 64, 90
1, 46434, Control_c, 0, 64, 94
1, 46444, Note_on_c, 0, 67, 75
1, 46449, Control_c, 0, 64, 97
1, 46453, Note_on_c, 0, 55, 69
1, 46464, Control_c, 0, 64, 101
1, 46469, Note_off_c, 0, 59, 56
1, 46469, Note_off_c, 0, 64, 54
1, 46478, Control_c, 0, 64, 105
1, 46493, Control_c, 0, 64, 110
1, 46516, Control_c, 0, 64, 113
1, 46525, Note_off_c, 0, 52, 57
1, 46531, Control_c, 0, 64, 114
1, 46534, Note_on_c, 0, 62, 72
1, 46545, Control_c, 0, 64, 115
1, 46560, Control_c, 0, 64, 117
1, 46575, Control_c, 0, 64, 120
1, 46590, Control_c, 0, 64, 122
1, 46602, Note_off_c, 0, 62, 60
1, 46605, Control_c, 0, 64, 123
1, 46618, Note_on_c, 0, 59, 78
1, 46619, Control_c, 0, 64, 124
1, 46625, Note_off_c, 0, 67, 55
1, 46630, Note_off_c, 0, 55, 59
1, 46634, Control_c, 0, 64, 126
1, 46649, Control_c, 0, 64, 127
1, 46704, Note_on_c, 0, 62, 82
1, 46737, Note_off_c, 0, 59, 57
1, 46786, Note_on_c, 0, 61, 71
1, 46786, Note_off_c, 0, 62, 57
1, 46787, Note_on_c, 0, 69, 84
1, 46845, Note_off_c, 0, 61, 63
1, 46880, Note_on_c, 0, 64, 73
1, 46928, Note_off_c, 0, 69, 61
1, 46937, Note_off_c, 0, 64, 63
1, 46971, Note_on_c, 0, 59, 67
1, 46975, Control_c, 0, 64, 106
1, 46978, Note_on_c, 0, 62, 64
1, 46978, Note_on_c, 0, 71, 77
1, 46990, Control_c, 0, 64, 84
1, 47005, Control_c, 0, 64, 59
1, 47020, Control_c, 0, 64, 0
1, 47049, Control_c, 0, 64, 50
1, 47064, Control_c, 0, 64, 72
1, 47065, Note_off_c, 0, 62, 56
1, 47071, Note_on_c, 0, 66, 76
1, 47079, Control_c, 0, 64, 84
1, 47094, Control_c, 0, 64, 94
1, 47108, Control_c, 0, 64, 99
1, 47123, Control_c, 0, 64, 102
1, 47138, Note_off_c, 0, 66, 63
1, 47138, Control_c, 0, 64, 106
1, 47152, Control_c, 0, 64, 110
1, 47155, Note_on_c, 0, 57, 74
1, 47157, Note_on_c, 0, 62, 83
1, 47167, Control_c, 0, 64, 115
1, 47182, Control_c, 0, 64, 119
1, 47184, Note_off_c, 0, 59, 60
1, 47192, Note_off_c, 0, 71, 50
1, 47197, Control_c, 0, 64, 122
1, 47212, Control_c, 0, 64, 124
1, 47222, Note_off_c, 0, 57, 61
1, 47224, Note_on_c, 0, 69, 83
1, 47226, Control_c, 0, 64, 127
1, 47235, Note_off_c, 0, 62, 60
1, 47241, Control_c, 0, 64, 127
1, 47274, Note_off_c, 0, 69, 68
1, 47338, Control_c, 0, 64, 113
1, 47339, Note_on_c, 0, 64, 70
1, 47341, Note_on_c, 0, 74, 89
1, 47342, Note_on_c, 0, 62, 75
1, 47353, Control_c, 0, 64, 91
1, 47367, Control_c, 0, 64, 68
1, 47382, Control_c, 0, 64, 0
1, 47400, Note_off_c, 0, 64, 55
1, 47427, Control_c, 0, 64, 68
1, 47432, Note_on_c, 0, 67, 80
1, 47441, Control_c, 0, 64, 82
1, 47456, Control_c, 0, 64, 96
1, 47471, Control_c, 0, 64, 105
1, 47486, Control_c, 0, 64, 108
1, 47501, Control_c, 0, 64, 115
1, 47515, Control_c, 0, 64, 126
1, 47518, Note_on_c, 0, 64, 79
1, 47519, Note_on_c, 0, 61, 77
1, 47527, Note_off_c, 0, 67, 59
1, 47528, Note_off_c, 0, 62, 58
1, 47530, Control_c, 0, 64, 127
1, 47551, Note_off_c, 0, 74, 60
1, 47568, Note_off_c, 0, 61, 63
1, 47592, Note_on_c, 0, 73, 84
1, 47605, Note_off_c, 0, 64, 61
1, 47661, Note_off_c, 0, 73, 62
1, 47716, Note_on_c, 0, 76, 89
1, 47724, Note_on_c, 0, 64, 76
1, 47730, Note_on_c, 0, 66, 72
1, 47739, Control_c, 0, 64, 111
1, 47754, Control_c, 0, 64, 87
1, 47766, Note_off_c, 0, 66, 57
1, 47769, Control_c, 0, 64, 65
1, 47783, Control_c, 0, 64, 0
1, 47813, Control_c, 0, 64, 60
1, 47814, Note_on_c, 0, 69, 81
1, 47828, Control_c, 0, 64, 75
1, 47832, Note_off_c, 0, 76, 64
1, 47843, Control_c, 0, 64, 87
1, 47857, Control_c, 0, 64, 97
1, 47869, Note_off_c, 0, 69, 62
1, 47872, Control_c, 0, 64, 101
1, 47887, Control_c, 0, 64, 104
1, 47892, Note_off_c, 0, 64, 49
1, 47902, Control_c, 0, 64, 109
1, 47906, Note_on_c, 0, 62, 72
1, 47914, Note_on_c, 0, 66, 83
1, 47917, Control_c, 0, 64, 115
1, 47931, Control_c, 0, 64, 121
1, 47946, Control_c, 0, 64, 126
1, 47961, Control_c, 0, 64, 127
1, 47983, Note_on_c, 0, 74, 79
1, 47983, Note_off_c, 0, 62, 54
1, 47995, Note_off_c, 0, 66, 61
1, 48064, Note_on_c, 0, 59, 74
1, 48087, Note_on_c, 0, 71, 79
1, 48087, Control_c, 0, 64, 98
1, 48090, Note_off_c, 0, 74, 62
1, 48091, Note_on_c, 0, 66, 78
1, 48102, Control_c, 0, 64, 69
1, 48117, Control_c, 0, 64, 0
1, 48146, Control_c, 0, 64, 60
1, 48156, Note_off_c, 0, 59, 62
1, 48161, Control_c, 0, 64, 79
1, 48164, Note_on_c, 0, 62, 67
1, 48164, Note_off_c, 0, 71, 57
1, 48169, Note_on_c, 0, 74, 81
1, 48174, Note_off_c, 0, 66, 59
1, 48176, Control_c, 0, 64, 97
1, 48190, Control_c, 0, 64, 116
1, 48205, Control_c, 0, 64, 117
1, 48220, Control_c, 0, 64, 120
1, 48235, Control_c, 0, 64, 127
1, 48257, Note_on_c, 0, 78, 84
1, 48260, Note_on_c, 0, 73, 75
1, 48267, Note_on_c, 0, 66, 80
1, 48272, Note_off_c, 0, 74, 57
1, 48290, Note_off_c, 0, 62, 56
1, 48330, Note_on_c, 0, 69, 81
1, 48332, Note_off_c, 0, 66, 63
1, 48338, Note_off_c, 0, 73, 62
1, 48362, Note_off_c, 0, 78, 61
1, 48376, Note_off_c, 0, 69, 66
1, 48436, Note_on_c, 0, 71, 74
1, 48436, Note_on_c, 0, 81, 97
1, 48443, Control_c, 0, 64, 114
1, 48444, Note_on_c, 0, 69, 77
1, 48457, Control_c, 0, 64, 86
1, 48472, Control_c, 0, 64, 60
1, 48487, Control_c, 0, 64, 0
1, 48497, Note_off_c, 0, 71, 51
1, 48513, Note_on_c, 0, 74, 78
1, 48517, Control_c, 0, 64, 66
1, 48533, Control_c, 0, 64, 83
1, 48548, Control_c, 0, 64, 99
1, 48562, Control_c, 0, 64, 111
1, 48577, Control_c, 0, 64, 114
1, 48591, Note_off_c, 0, 69, 57
1, 48592, Control_c, 0, 64, 120
1, 48604, Note_on_c, 0, 67, 85
1, 48606, Note_on_c, 0, 71, 79
1, 48606, Control_c, 0, 64, 127
1, 48621, Note_off_c, 0, 74, 61
1, 48630, Note_off_c, 0, 81, 54
1, 48677, Note_on_c, 0, 79, 82
1, 48683, Note_off_c, 0, 71, 59
1, 48687, Note_off_c, 0, 67, 57
1, 48740, Control_c, 0, 64, 113
1, 48762, Control_c, 0, 64, 82
1, 48775, Note_on_c, 0, 71, 80
1, 48777, Control_c, 0, 64, 0
1, 48779, Note_on_c, 0, 67, 83
1, 48782, Note_on_c, 0, 64, 73
1, 48782, Note_on_c, 0, 76, 76
1, 48785, Note_off_c, 0, 79, 62
1, 48806, Control_c, 0, 64, 52
1, 48821, Control_c, 0, 64, 74
1, 48829, Note_off_c, 0, 71, 61
1, 48831, Note_off_c, 0, 67, 61
1, 48836, Control_c, 0, 64, 91
1, 48839, Note_off_c, 0, 64, 64
1, 48851, Control_c, 0, 64, 111
1, 48852, Note_on_c, 0, 79, 77
1, 48854, Note_off_c, 0, 76, 64
1, 48866, Control_c, 0, 64, 122
1, 48881, Control_c, 0, 64, 127
1, 48936, Note_on_c, 0, 83, 88
1, 48941, Note_on_c, 0, 62, 65
1, 48943, Note_on_c, 0, 72, 80
1, 48944, Note_off_c, 0, 79, 62
1, 48948, Note_on_c, 0, 66, 76
1, 48948, Note_on_c, 0, 78, 84
1, 48977, Note_off_c, 0, 62, 61
1, 48991, Note_off_c, 0, 66, 61
1, 48992, Note_off_c, 0, 72, 60
1, 48995, Note_off_c, 0, 83, 60
1, 49015, Note_on_c, 0, 74, 90
1, 49036, Note_off_c, 0, 78, 58
1, 49072, Note_off_c, 0, 74, 63
1, 49103, Control_c, 0, 64, 105
1, 49118, Control_c, 0, 64, 77
1, 49132, Control_c, 0, 64, 0
1, 49150, Note_on_c, 0, 79, 87
1, 49153, Note_on_c, 0, 74, 99
1, 49153, Note_on_c, 0, 86, 87
1, 49155, Note_on_c, 0, 67, 65
1, 49156, Note_on_c, 0, 64, 76
1, 49184, Note_on_c, 0, 81, 21
1, 49192, Control_c, 0, 64, 71
1, 49206, Control_c, 0, 64, 83
1, 49221, Control_c, 0, 64, 93
1, 49223, Note_off_c, 0, 74, 58
1, 49227, Note_off_c, 0, 81, 29
1, 49236, Control_c, 0, 64, 98
1, 49241, Note_off_c, 0, 86, 63
1, 49250, Note_on_c, 0, 76, 79
1, 49251, Control_c, 0, 64, 101
1, 49258, Note_on_c, 0, 74, 70
1, 49262, Note_off_c, 0, 67, 63
1, 49265, Note_off_c, 0, 79, 61
1, 49266, Control_c, 0, 64, 104
1, 49277, Note_off_c, 0, 64, 65
1, 49280, Control_c, 0, 64, 109
1, 49282, Note_off_c, 0, 76, 64
1, 49295, Control_c, 0, 64, 114
1, 49303, Note_off_c, 0, 74, 63
1, 49310, Control_c, 0, 64, 118
1, 49326, Control_c, 0, 64, 119
1, 49341, Control_c, 0, 64, 120
1, 49355, Control_c, 0, 64, 121
1, 49363, Note_on_c, 0, 74, 79
1, 49369, Note_on_c, 0, 67, 84
1, 49370, Control_c, 0, 64, 121
1, 49385, Control_c, 0, 64, 122
1, 49399, Note_off_c, 0, 67, 59
1, 49400, Control_c, 0, 64, 123
1, 49415, Control_c, 0, 64, 123
1, 49429, Control_c, 0, 64, 124
1, 49444, Control_c, 0, 64, 125
1, 49455, Note_on_c, 0, 62, 84
1, 49455, Note_on_c, 0, 64, 71
1, 49459, Control_c, 0, 64, 126
1, 49468, Note_off_c, 0, 74, 63
1, 49485, Note_off_c, 0, 62, 59
1, 49486, Note_off_c, 0, 64, 61
1, 49541, Control_c, 0, 64, 116
1, 49555, Control_c, 0, 64, 94
1, 49558, Note_on_c, 0, 48, 79
1, 49558, Note_on_c, 0, 64, 78
1, 49560, Note_on_c, 0, 55, 85
1, 49560, Note_on_c, 0, 62, 82
1, 49570, Control_c, 0, 64, 67
1, 49585, Control_c, 0, 64, 0
1, 49620, Note_off_c, 0, 62, 62
1, 49621, Note_off_c, 0, 64, 62
1, 49629, Control_c, 0, 64, 39
1, 49632, Note_on_c, 0, 67, 65
1, 49644, Control_c, 0, 64, 74
1, 49646, Note_on_c, 0, 74, 75
1, 49659, Control_c, 0, 64, 87
1, 49665, Note_off_c, 0, 67, 66
1, 49674, Control_c, 0, 64, 97
1, 49689, Control_c, 0, 64, 102
1, 49695, Note_off_c, 0, 74, 66
1, 49703, Control_c, 0, 64, 107
1, 49718, Note_off_c, 0, 48, 64
1, 49718, Control_c, 0, 64, 118
1, 49723, Note_off_c, 0, 55, 63
1, 49733, Control_c, 0, 64, 127
1, 49745, Note_on_c, 0, 76, 75
1, 49750, Note_on_c, 0, 74, 71
1, 49793, Note_off_c, 0, 76, 57
1, 49794, Note_off_c, 0, 74, 58
1, 49816, Note_on_c, 0, 86, 83
1, 49818, Note_on_c, 0, 79, 83
1, 49855, Note_off_c, 0, 79, 61
1, 49860, Note_off_c, 0, 86, 62
1, 49901, Note_on_c, 0, 86, 85
1, 49910, Note_on_c, 0, 79, 86
1, 49918, Note_on_c, 0, 74, 83
1, 49930, Note_on_c, 0, 67, 61
1, 49950, Note_off_c, 0, 79, 63
1, 49951, Note_on_c, 0, 64, 48
1, 49951, Note_off_c, 0, 74, 63
1, 49960, Note_off_c, 0, 67, 64
1, 49966, Note_off_c, 0, 86, 61
1, 49979, Note_off_c, 0, 64, 56
1, 49996, Note_on_c, 0, 72, 81
1, 50047, Note_off_c, 0, 72, 62
1, 50065, Note_on_c, 0, 67, 78
1, 50076, Note_on_c, 0, 60, 71
1, 50078, Note_on_c, 0, 64, 64
1, 50111, Note_off_c, 0, 60, 59
1, 50111, Note_off_c, 0, 64, 61
1, 50114, Note_off_c, 0, 67, 61
1, 50141, Note_on_c, 0, 69, 88
1, 50168, Note_off_c, 0, 69, 62
1, 50226, Note_on_c, 0, 80, 79
1, 50231, Note_on_c, 0, 86, 89
1, 50263, Note_on_c, 0, 74, 85
1, 50278, Note_off_c, 0, 80, 66
1, 50283, Note_on_c, 0, 64, 62
1, 50287, Note_on_c, 0, 67, 54
1, 50298, Note_off_c, 0, 86, 59
1, 50302, Note_off_c, 0, 74, 68
1, 50318, Note_off_c, 0, 64, 57
1, 50320, Note_off_c, 0, 67, 65
1, 50327, Note_on_c, 0, 72, 80
1, 50386, Note_off_c, 0, 72, 63
1, 50402, Note_on_c, 0, 67, 76
1, 50413, Note_on_c, 0, 60, 74
1, 50454, Note_off_c, 0, 67, 61
1, 50461, Note_off_c, 0, 60, 61
1, 50477, Note_on_c, 0, 69, 90
1, 50516, Note_off_c, 0, 69, 66
1, 50571, Control_c, 0, 64, 107
1, 50585, Control_c, 0, 64, 76
1, 50600, Control_c, 0, 64, 0
1, 50604, Note_on_c, 0, 79, 86
1, 50605, Note_on_c, 0, 86, 88
1, 50613, Note_on_c, 0, 74, 94
1, 50616, Note_on_c, 0, 64, 65
1, 50619, Note_on_c, 0, 67, 73
1, 50654, Poly_aftertouch_c, 0, 81, 0
1, 50675, Control_c, 0, 64, 52
1, 50690, Control_c, 0, 64, 69
1, 50699, Note_off_c, 0, 74, 63
1, 50704, Control_c, 0, 64, 74
1, 50707, Note_off_c, 0, 86, 62
1, 50710, Note_on_c, 0, 76, 79
1, 50718, Note_on_c, 0, 74, 67
1, 50719, Control_c, 0, 64, 79
1, 50729, Note_off_c, 0, 79, 61
1, 50731, Note_off_c, 0, 67, 62
1, 50734, Control_c, 0, 64, 85
1, 50748, Note_off_c, 0, 76, 64
1, 50749, Control_c, 0, 64, 93
1, 50752, Note_off_c, 0, 64, 65
1, 50764, Control_c, 0, 64, 100
1, 50767, Note_off_c, 0, 74, 65
1, 50778, Control_c, 0, 64, 107
1, 50793, Control_c, 0, 64, 109
1, 50808, Control_c, 0, 64, 111
1, 50821, Note_on_c, 0, 74, 78
1, 50823, Control_c, 0, 64, 112
1, 50831, Note_on_c, 0, 67, 87
1, 50838, Control_c, 0, 64, 113
1, 50852, Control_c, 0, 64, 115
1, 50867, Note_off_c, 0, 67, 55
1, 50867, Control_c, 0, 64, 120
1, 50882, Control_c, 0, 64, 126
1, 50897, Control_c, 0, 64, 127
1, 50913, Note_on_c, 0, 64, 74
1, 50914, Note_on_c, 0, 62, 88
1, 50952, Note_off_c, 0, 74, 48
1, 50964, Note_off_c, 0, 62, 58
1, 50964, Note_off_c, 0, 64, 61
1, 50987, Control_c, 0, 64, 113
1, 51009, Control_c, 0, 64, 88
1, 51012, Note_on_c, 0, 45, 79
1, 51012, Note_on_c, 0, 52, 89
1, 51018, Note_on_c, 0, 64, 73
1, 51020, Note_on_c, 0, 62, 76
1, 51024, Control_c, 0, 64, 60
1, 51039, Control_c, 0, 64, 0
1, 51068, Control_c, 0, 64, 62
1, 51078, Note_off_c, 0, 64, 63
1, 51080, Note_off_c, 0, 62, 62
1, 51083, Control_c, 0, 64, 79
1, 51098, Control_c, 0, 64, 98
1, 51099, Note_on_c, 0, 67, 67
1, 51110, Note_on_c, 0, 74, 72
1, 51113, Control_c, 0, 64, 116
1, 51127, Note_off_c, 0, 67, 68
1, 51127, Control_c, 0, 64, 117
1, 51142, Control_c, 0, 64, 119
1, 51146, Poly_aftertouch_c, 0, 69, 127
1, 51157, Control_c, 0, 64, 125
1, 51158, Note_off_c, 0, 74, 64
1, 51169, Note_off_c, 0, 45, 63
1, 51172, Control_c, 0, 64, 127
1, 51175, Poly_aftertouch_c, 0, 69, 0
1, 51176, Note_off_c, 0, 52, 64
1, 51204, Note_on_c, 0, 76, 76
1, 51208, Note_on_c, 0, 74, 71
1, 51256, Note_off_c, 0, 76, 54
1, 51261, Note_off_c, 0, 74, 64
1, 51277, Note_on_c, 0, 79, 83
1, 51280, Note_on_c, 0, 86, 83
1, 51316, Note_off_c, 0, 79, 60
1, 51322, Note_off_c, 0, 86, 63
1, 51359, Note_on_c, 0, 86, 80
1, 51365, Note_on_c, 0, 79, 80
1, 51372, Note_on_c, 0, 74, 88
1, 51388, Note_on_c, 0, 67, 65
1, 51395, Note_on_c, 0, 64, 61
1, 51408, Note_off_c, 0, 74, 66
1, 51421, Note_off_c, 0, 67, 62
1, 51423, Note_off_c, 0, 86, 62
1, 51432, Note_off_c, 0, 64, 62
1, 51450, Note_on_c, 0, 72, 82
1, 51504, Note_off_c, 0, 72, 61
1, 51505, Note_off_c, 0, 79, 23
1, 51522, Note_on_c, 0, 67, 79
1, 51529, Note_on_c, 0, 60, 73
1, 51533, Note_on_c, 0, 64, 68
1, 51568, Note_off_c, 0, 64, 62
1, 51569, Note_off_c, 0, 67, 63
1, 51576, Note_off_c, 0, 60, 60
1, 51602, Note_on_c, 0, 69, 85
1, 51623, Note_off_c, 0, 69, 68
1, 51693, Note_on_c, 0, 86, 90
1, 51699, Note_on_c, 0, 79, 83
1, 51714, Note_on_c, 0, 74, 90
1, 51730, Note_off_c, 0, 74, 76
1, 51732, Note_on_c, 0, 64, 59
1, 51735, Note_on_c, 0, 67, 58
1, 51759, Note_off_c, 0, 86, 62
1, 51775, Note_off_c, 0, 67, 63
1, 51790, Note_on_c, 0, 72, 81
1, 51799, Note_off_c, 0, 64, 52
1, 51803, Note_off_c, 0, 79, 60
1, 51838, Note_off_c, 0, 72, 64
1, 51870, Note_on_c, 0, 67, 80
1, 51880, Note_on_c, 0, 60, 72
1, 51912, Note_off_c, 0, 67, 61
1, 51927, Note_on_c, 0, 69, 83
1, 51934, Note_off_c, 0, 60, 57
1, 51945, Note_off_c, 0, 69, 75
1, 51980, Control_c, 0, 64, 104
1, 51995, Control_c, 0, 64, 79
1, 52010, Control_c, 0, 64, 0
1, 52025, Note_on_c, 0, 86, 89
1, 52031, Note_on_c, 0, 77, 87
1, 52034, Note_on_c, 0, 74, 92
1, 52034, Note_on_c, 0, 81, 74
1, 52035, Note_on_c, 0, 65, 67
1, 52036, Note_on_c, 0, 69, 81
1, 52054, Control_c, 0, 64, 61
1, 52064, Note_off_c, 0, 69, 68
1, 52064, Note_off_c, 0, 81, 60
1, 52067, Note_off_c, 0, 74, 66
1, 52069, Control_c, 0, 64, 74
1, 52074, Note_off_c, 0, 86, 64
1, 52081, Note_off_c, 0, 77, 57
1, 52084, Control_c, 0, 64, 83
1, 52089, Note_off_c, 0, 65, 66
1, 52098, Control_c, 0, 64, 89
1, 52113, Control_c, 0, 64, 91
1, 52127, Note_on_c, 0, 72, 76
1, 52128, Control_c, 0, 64, 93
1, 52143, Control_c, 0, 64, 94
1, 52154, Note_off_c, 0, 72, 65
1, 52157, Control_c, 0, 64, 96
1, 52172, Control_c, 0, 64, 98
1, 52187, Control_c, 0, 64, 100
1, 52202, Control_c, 0, 64, 102
1, 52204, Note_on_c, 0, 69, 79
1, 52205, Note_on_c, 0, 57, 61
1, 52210, Note_on_c, 0, 64, 64
1, 52217, Control_c, 0, 64, 103
1, 52231, Control_c, 0, 64, 103
1, 52236, Note_off_c, 0, 57, 63
1, 52240, Note_off_c, 0, 64, 66
1, 52246, Control_c, 0, 64, 104
1, 52247, Note_off_c, 0, 69, 65
1, 52273, Note_on_c, 0, 72, 78
1, 52294, Note_off_c, 0, 72, 72
1, 52320, Control_c, 0, 64, 103
1, 52335, Control_c, 0, 64, 102
1, 52350, Control_c, 0, 64, 97
1, 52353, Note_on_c, 0, 77, 90
1, 52356, Note_on_c, 0, 81, 86
1, 52358, Note_on_c, 0, 86, 79
1, 52360, Note_on_c, 0, 74, 79
1, 52365, Control_c, 0, 64, 90
1, 52369, Note_on_c, 0, 69, 70
1, 52373, Note_on_c, 0, 65, 64
1, 52380, Control_c, 0, 64, 80
1, 52380, Note_off_c, 0, 74, 72
1, 52392, Note_off_c, 0, 69, 73
1, 52392, Note_off_c, 0, 81, 60
1, 52395, Control_c, 0, 64, 70
1, 52398, Note_off_c, 0, 77, 61
1, 52409, Note_off_c, 0, 65, 65
1, 52410, Control_c, 0, 64, 48
1, 52422, Note_off_c, 0, 86, 63
1, 52424, Control_c, 0, 64, 0
1, 52440, Note_on_c, 0, 72, 83
1, 52478, Note_off_c, 0, 72, 66
1, 52529, Note_on_c, 0, 71, 68
1, 52531, Note_on_c, 0, 60, 67
1, 52533, Note_on_c, 0, 83, 77
1, 52533, Note_on_c, 0, 88, 85
1, 52535, Note_on_c, 0, 67, 59
1, 52540, Note_on_c, 0, 79, 76
1, 52556, Note_off_c, 0, 71, 63
1, 52558, Note_off_c, 0, 67, 64
1, 52562, Note_off_c, 0, 60, 61
1, 52574, Note_off_c, 0, 79, 58
1, 52584, Note_off_c, 0, 83, 59
1, 52592, Note_off_c, 0, 88, 63
1, 52622, Note_on_c, 0, 74, 67
1, 52644, Note_off_c, 0, 74, 72
1, 52654, Control_c, 0, 64, 47
1, 52669, Control_c, 0, 64, 69
1, 52683, Note_on_c, 0, 74, 76
1, 52684, Note_on_c, 0, 86, 90
1, 52684, Control_c, 0, 64, 79
1, 52685, Note_on_c, 0, 69, 88
1, 52686, Note_on_c, 0, 77, 86
1, 52699, Control_c, 0, 64, 87
1, 52700, Note_on_c, 0, 65, 63
1, 52702, Note_on_c, 0, 81, 57
1, 52703, Note_off_c, 0, 74, 72
1, 52714, Control_c, 0, 64, 90
1, 52714, Note_off_c, 0, 69, 64
1, 52721, Note_off_c, 0, 81, 59
1, 52729, Control_c, 0, 64, 93
1, 52731, Note_off_c, 0, 86, 63
1, 52732, Note_off_c, 0, 77, 63
1, 52733, Note_off_c, 0, 65, 68
1, 52744, Control_c, 0, 64, 95
1, 52759, Control_c, 0, 64, 97
1, 52773, Control_c, 0, 64, 98
1, 52774, Note_on_c, 0, 72, 73
1, 52788, Control_c, 0, 64, 99
1, 52799, Note_off_c, 0, 72, 68
1, 52833, Control_c, 0, 64, 100
1, 52847, Note_on_c, 0, 64, 66
1, 52847, Note_on_c, 0, 69, 79
1, 52847, Control_c, 0, 64, 100
1, 52848, Note_on_c, 0, 57, 56
1, 52862, Control_c, 0, 64, 101
1, 52877, Note_off_c, 0, 64, 65
1, 52878, Note_off_c, 0, 57, 63
1, 52892, Control_c, 0, 64, 101
1, 52893, Note_off_c, 0, 69, 63
1, 52920, Note_on_c, 0, 72, 74
1, 52921, Control_c, 0, 64, 102
1, 52940, Note_off_c, 0, 72, 72
1, 53001, Note_on_c, 0, 77, 85
1, 53003, Note_on_c, 0, 86, 81
1, 53004, Note_on_c, 0, 81, 83
1, 53009, Note_on_c, 0, 74, 71
1, 53012, Note_on_c, 0, 69, 69
1, 53018, Note_on_c, 0, 65, 55
1, 53030, Note_off_c, 0, 74, 73
1, 53036, Note_off_c, 0, 81, 56
1, 53037, Note_off_c, 0, 69, 71
1, 53045, Note_off_c, 0, 77, 61
1, 53055, Note_off_c, 0, 65, 63
1, 53071, Note_off_c, 0, 86, 64
1, 53084, Control_c, 0, 64, 101
1, 53085, Note_on_c, 0, 72, 81
1, 53098, Control_c, 0, 64, 101
1, 53113, Control_c, 0, 64, 100
1, 53125, Note_off_c, 0, 72, 61
1, 53128, Control_c, 0, 64, 97
1, 53143, Control_c, 0, 64, 93
1, 53158, Control_c, 0, 64, 86
1, 53165, Note_on_c, 0, 71, 71
1, 53165, Note_on_c, 0, 60, 68
1, 53165, Note_on_c, 0, 88, 80
1, 53166, Note_on_c, 0, 83, 76
1, 53167, Note_on_c, 0, 67, 66
1, 53167, Note_on_c, 0, 79, 81
1, 53173, Control_c, 0, 64, 71
1, 53188, Control_c, 0, 64, 0
1, 53191, Note_off_c, 0, 71, 65
1, 53196, Note_off_c, 0, 60, 62
1, 53197, Note_off_c, 0, 67, 65
1, 53207, Note_on_c, 0, 85, 23
1, 53208, Note_off_c, 0, 85, 127
1, 53211, Note_off_c, 0, 79, 60
1, 53212, Note_off_c, 0, 83, 58
1, 53224, Note_off_c, 0, 88, 62
1, 53256, Note_on_c, 0, 74, 70
1, 53271, Note_off_c, 0, 74, 69
1, 53284, Control_c, 0, 64, 58
1, 53298, Control_c, 0, 64, 72
1, 53313, Control_c, 0, 64, 83
1, 53320, Note_on_c, 0, 69, 87
1, 53322, Note_on_c, 0, 74, 82
1, 53322, Note_on_c, 0, 77, 83
1, 53322, Note_on_c, 0, 81, 81
1, 53323, Note_on_c, 0, 86, 81
1, 53325, Note_on_c, 0, 65, 60
1, 53329, Control_c, 0, 64, 92
1, 53342, Note_off_c, 0, 74, 71
1, 53344, Control_c, 0, 64, 97
1, 53345, Note_off_c, 0, 81, 66
1, 53347, Note_off_c, 0, 69, 66
1, 53353, Note_on_c, 0, 72, 35
1, 53359, Control_c, 0, 64, 99
1, 53365, Note_off_c, 0, 86, 65
1, 53367, Note_off_c, 0, 77, 60
1, 53370, Note_off_c, 0, 65, 64
1, 53374, Control_c, 0, 64, 101
1, 53384, Note_off_c, 0, 72, 0
1, 53389, Control_c, 0, 64, 103
1, 53398, Note_on_c, 0, 72, 62
1, 53403, Control_c, 0, 64, 105
1, 53418, Control_c, 0, 64, 106
1, 53433, Control_c, 0, 64, 107
1, 53439, Note_off_c, 0, 72, 65
1, 53483, Note_on_c, 0, 57, 58
1, 53483, Note_on_c, 0, 64, 64
1, 53485, Note_on_c, 0, 69, 78
1, 53492, Control_c, 0, 64, 107
1, 53513, Note_off_c, 0, 57, 63
1, 53513, Note_off_c, 0, 64, 66
1, 53528, Note_off_c, 0, 69, 63
1, 53557, Note_on_c, 0, 72, 78
1, 53578, Note_off_c, 0, 72, 70
1, 53581, Control_c, 0, 64, 108
1, 53639, Note_on_c, 0, 86, 79
1, 53642, Note_on_c, 0, 77, 78
1, 53645, Note_on_c, 0, 81, 75
1, 53647, Note_on_c, 0, 74, 71
1, 53653, Note_on_c, 0, 65, 63
1, 53659, Note_on_c, 0, 69, 60
1, 53668, Note_off_c, 0, 74, 69
1, 53674, Note_off_c, 0, 81, 58
1, 53678, Note_off_c, 0, 69, 67
1, 53683, Note_off_c, 0, 77, 56
1, 53683, Control_c, 0, 64, 109
1, 53702, Note_off_c, 0, 86, 63
1, 53709, Note_off_c, 0, 65, 61
1, 53721, Note_on_c, 0, 72, 81
1, 53727, Control_c, 0, 64, 107
1, 53742, Control_c, 0, 64, 95
1, 53754, Note_off_c, 0, 72, 59
1, 53757, Control_c, 0, 64, 79
1, 53772, Control_c, 0, 64, 66
1, 53787, Control_c, 0, 64, 65
1, 53799, Note_on_c, 0, 88, 81
1, 53801, Note_on_c, 0, 67, 72
1, 53802, Note_on_c, 0, 60, 69
1, 53802, Control_c, 0, 64, 73
1, 53802, Note_on_c, 0, 83, 74
1, 53804, Note_on_c, 0, 79, 79
1, 53807, Note_on_c, 0, 71, 62
1, 53817, Control_c, 0, 64, 87
1, 53832, Note_off_c, 0, 67, 63
1, 53832, Control_c, 0, 64, 104
1, 53836, Note_off_c, 0, 71, 65
1, 53838, Note_off_c, 0, 79, 59
1, 53839, Note_off_c, 0, 60, 56
1, 53847, Note_off_c, 0, 83, 59
1, 53847, Control_c, 0, 64, 113
1, 53856, Note_off_c, 0, 88, 63
1, 53861, Control_c, 0, 64, 117
1, 53876, Control_c, 0, 64, 123
1, 53877, Note_on_c, 0, 74, 78
1, 53891, Control_c, 0, 64, 127
1, 53901, Note_off_c, 0, 74, 67
1, 53951, Note_on_c, 0, 74, 79
1, 53954, Note_on_c, 0, 81, 85
1, 53954, Note_on_c, 0, 86, 90
1, 53955, Note_on_c, 0, 69, 80
1, 53955, Note_on_c, 0, 77, 85
1, 53966, Note_on_c, 0, 65, 62
1, 53972, Note_off_c, 0, 74, 72
1, 53982, Note_off_c, 0, 69, 63
1, 54008, Note_off_c, 0, 81, 58
1, 54025, Note_off_c, 0, 86, 66
1, 54026, Note_off_c, 0, 77, 0
1, 54027, Note_off_c, 0, 65, 65
1, 54041, Note_on_c, 0, 72, 81
1, 54051, Poly_aftertouch_c, 0, 77, 0
1, 54066, Note_off_c, 0, 72, 67
1, 54115, Note_on_c, 0, 88, 93
1, 54115, Note_on_c, 0, 67, 81
1, 54118, Note_on_c, 0, 71, 75
1, 54121, Note_on_c, 0, 83, 83
1, 54123, Note_on_c, 0, 79, 82
1, 54126, Note_on_c, 0, 60, 66
1, 54143, Note_off_c, 0, 71, 65
1, 54153, Note_off_c, 0, 67, 50
1, 54156, Note_off_c, 0, 60, 63
1, 54165, Note_off_c, 0, 79, 60
1, 54169, Note_off_c, 0, 83, 59
1, 54180, Note_off_c, 0, 88, 64
1, 54198, Note_on_c, 0, 74, 78
1, 54220, Note_off_c, 0, 74, 67
1, 54272, Note_on_c, 0, 86, 94
1, 54274, Note_on_c, 0, 74, 79
1, 54275, Note_on_c, 0, 69, 81
1, 54276, Note_on_c, 0, 81, 89
1, 54279, Note_on_c, 0, 65, 66
1, 54281, Note_on_c, 0, 77, 87
1, 54302, Note_off_c, 0, 74, 63
1, 54312, Note_off_c, 0, 69, 63
1, 54326, Note_off_c, 0, 81, 60
1, 54340, Note_off_c, 0, 65, 65
1, 54345, Note_off_c, 0, 86, 65
1, 54371, Note_on_c, 0, 72, 69
1, 54375, Note_off_c, 0, 77, 57
1, 54396, Note_off_c, 0, 72, 66
1, 54431, Note_on_c, 0, 67, 84
1, 54432, Note_on_c, 0, 71, 77
1, 54435, Note_on_c, 0, 88, 95
1, 54439, Note_on_c, 0, 60, 74
1, 54446, Note_on_c, 0, 79, 76
1, 54452, Note_off_c, 0, 67, 68
1, 54457, Note_off_c, 0, 71, 66
1, 54465, Note_off_c, 0, 60, 63
1, 54471, Note_off_c, 0, 79, 64
1, 54476, Note_on_c, 0, 83, 24
1, 54513, Note_off_c, 0, 83, 38
1, 54525, Note_off_c, 0, 88, 61
1, 54546, Note_on_c, 0, 74, 62
1, 54562, Note_off_c, 0, 74, 68
1, 54611, Control_c, 0, 64, 113
1, 54625, Control_c, 0, 64, 87
1, 54640, Control_c, 0, 64, 57
1, 54643, Note_on_c, 0, 90, 99
1, 54655, Control_c, 0, 64, 0
1, 54663, Note_on_c, 0, 83, 71
1, 54684, Control_c, 0, 64, 40
1, 54699, Control_c, 0, 64, 72
1, 54714, Control_c, 0, 64, 85
1, 54726, Note_off_c, 0, 83, 0
1, 54729, Control_c, 0, 64, 99
1, 54751, Control_c, 0, 64, 105
1, 54756, Note_on_c, 0, 83, 23
1, 54761, Note_on_c, 0, 78, 77
1, 54766, Control_c, 0, 64, 106
1, 54779, Note_off_c, 0, 83, 52
1, 54781, Control_c, 0, 64, 108
1, 54793, Note_off_c, 0, 90, 64
1, 54796, Control_c, 0, 64, 112
1, 54800, Note_off_c, 0, 78, 60
1, 54811, Control_c, 0, 64, 116
1, 54825, Control_c, 0, 64, 118
1, 54849, Note_on_c, 0, 78, 60
1, 54855, Control_c, 0, 64, 119
1, 54859, Note_on_c, 0, 83, 70
1, 54869, Control_c, 0, 64, 119
1, 54881, Note_off_c, 0, 83, 68
1, 54884, Control_c, 0, 64, 120
1, 54899, Control_c, 0, 64, 121
1, 54916, Note_off_c, 0, 78, 62
1, 54917, Note_on_c, 0, 71, 75
1, 54945, Control_c, 0, 64, 121
1, 54955, Note_off_c, 0, 71, 64
1, 55005, Note_on_c, 0, 78, 81
1, 55006, Note_on_c, 0, 71, 59
1, 55059, Note_on_c, 0, 66, 71
1, 55066, Note_off_c, 0, 71, 55
1, 55085, Note_off_c, 0, 66, 70
1, 55107, Note_off_c, 0, 78, 57
1, 55142, Note_on_c, 0, 71, 58
1, 55151, Note_on_c, 0, 66, 70
1, 55182, Note_off_c, 0, 66, 59
1, 55188, Note_off_c, 0, 71, 52
1, 55207, Note_on_c, 0, 59, 62
1, 55227, Control_c, 0, 64, 117
1, 55241, Control_c, 0, 64, 103
1, 55256, Control_c, 0, 64, 85
1, 55267, Note_off_c, 0, 59, 62
1, 55271, Control_c, 0, 64, 64
1, 55280, Note_on_c, 0, 78, 88
1, 55286, Control_c, 0, 64, 0
1, 55294, Note_on_c, 0, 71, 69
1, 55300, Control_c, 0, 64, 10
1, 55315, Control_c, 0, 64, 67
1, 55330, Control_c, 0, 64, 78
1, 55345, Control_c, 0, 64, 87
1, 55350, Note_off_c, 0, 71, 44
1, 55360, Control_c, 0, 64, 91
1, 55362, Note_on_c, 0, 66, 70
1, 55364, Note_off_c, 0, 78, 64
1, 55374, Control_c, 0, 64, 92
1, 55380, Note_off_c, 0, 66, 66
1, 55389, Control_c, 0, 64, 93
1, 55404, Control_c, 0, 64, 95
1, 55419, Control_c, 0, 64, 97
1, 55434, Control_c, 0, 64, 99
1, 55448, Control_c, 0, 64, 100
1, 55450, Note_on_c, 0, 71, 44
1, 55456, Note_on_c, 0, 66, 60
1, 55463, Control_c, 0, 64, 101
1, 55473, Note_off_c, 0, 71, 58
1, 55478, Control_c, 0, 64, 101
1, 55495, Note_off_c, 0, 66, 65
1, 55500, Control_c, 0, 64, 102
1, 55515, Control_c, 0, 64, 102
1, 55519, Note_on_c, 0, 59, 52
1, 55530, Control_c, 0, 64, 103
1, 55546, Note_off_c, 0, 59, 65
1, 55560, Control_c, 0, 64, 104
1, 55574, Control_c, 0, 64, 105
1, 55589, Control_c, 0, 64, 106
1, 55604, Control_c, 0, 64, 107
1, 55611, Note_on_c, 0, 66, 69
1, 55631, Note_on_c, 0, 59, 49
1, 55648, Control_c, 0, 64, 105
1, 55663, Control_c, 0, 64, 96
1, 55671, Note_off_c, 0, 59, 51
1, 55678, Control_c, 0, 64, 83
1, 55689, Note_on_c, 0, 54, 66
1, 55692, Control_c, 0, 64, 68
1, 55701, Note_off_c, 0, 66, 61
1, 55707, Control_c, 0, 64, 0
1, 55721, Note_off_c, 0, 54, 62
1, 55738, Control_c, 0, 64, 36
1, 55753, Control_c, 0, 64, 68
1, 55768, Control_c, 0, 64, 75
1, 55778, Note_on_c, 0, 54, 53
1, 55783, Control_c, 0, 64, 80
1, 55790, Note_on_c, 0, 59, 43
1, 55797, Control_c, 0, 64, 81
1, 55812, Control_c, 0, 64, 83
1, 55826, Note_off_c, 0, 59, 47
1, 55827, Control_c, 0, 64, 86
1, 55829, Note_off_c, 0, 54, 53
1, 55842, Control_c, 0, 64, 91
1, 55851, Note_on_c, 0, 47, 56
1, 55857, Control_c, 0, 64, 95
1, 55871, Control_c, 0, 64, 96
1, 55894, Note_off_c, 0, 47, 61
1, 55901, Control_c, 0, 64, 97
1, 55945, Control_c, 0, 64, 95
1, 55956, Note_on_c, 0, 59, 48
1, 55959, Note_on_c, 0, 66, 59
1, 55960, Control_c, 0, 64, 89
1, 55975, Control_c, 0, 64, 78
1, 55990, Control_c, 0, 64, 64
1, 56005, Control_c, 0, 64, 0
1, 56005, Note_off_c, 0, 59, 57
1, 56026, Note_off_c, 0, 66, 63
1, 56030, Note_on_c, 0, 54, 57
1, 56035, Control_c, 0, 64, 64
1, 56049, Control_c, 0, 64, 72
1, 56058, Note_off_c, 0, 54, 54
1, 56064, Control_c, 0, 64, 77
1, 56079, Control_c, 0, 64, 80
1, 56094, Control_c, 0, 64, 81
1, 56109, Control_c, 0, 64, 82
1, 56112, Note_on_c, 0, 54, 48
1, 56120, Note_on_c, 0, 59, 46
1, 56123, Control_c, 0, 64, 83
1, 56138, Control_c, 0, 64, 85
1, 56146, Note_off_c, 0, 59, 57
1, 56153, Control_c, 0, 64, 87
1, 56165, Note_off_c, 0, 54, 57
1, 56168, Control_c, 0, 64, 88
1, 56183, Control_c, 0, 64, 90
1, 56189, Note_on_c, 0, 47, 46
1, 56197, Control_c, 0, 64, 91
1, 56212, Control_c, 0, 64, 93
1, 56221, Note_off_c, 0, 47, 64
1, 56227, Control_c, 0, 64, 93
1, 56249, Control_c, 0, 64, 94
1, 56264, Control_c, 0, 64, 95
1, 56279, Control_c, 0, 64, 95
1, 56303, Note_on_c, 0, 54, 57
1, 56323, Control_c, 0, 64, 95
1, 56332, Note_on_c, 0, 47, 39
1, 56338, Control_c, 0, 64, 89
1, 56353, Control_c, 0, 64, 78
1, 56368, Control_c, 0, 64, 64
1, 56371, Note_off_c, 0, 47, 48
1, 56383, Control_c, 0, 64, 0
1, 56392, Note_on_c, 0, 42, 60
1, 56412, Note_off_c, 0, 54, 58
1, 56426, Note_off_c, 0, 42, 62
1, 56427, Control_c, 0, 64, 66
1, 56442, Control_c, 0, 64, 73
1, 56456, Control_c, 0, 64, 76
1, 56471, Control_c, 0, 64, 77
1, 56473, Note_on_c, 0, 42, 52
1, 56486, Note_on_c, 0, 47, 39
1, 56486, Control_c, 0, 64, 78
1, 56501, Control_c, 0, 64, 78
1, 56517, Control_c, 0, 64, 80
1, 56532, Control_c, 0, 64, 81
1, 56538, Note_on_c, 0, 35, 60
1, 56541, Note_off_c, 0, 47, 45
1, 56546, Control_c, 0, 64, 82
1, 56550, Note_off_c, 0, 42, 59
1, 56561, Control_c, 0, 64, 82
1, 56576, Control_c, 0, 64, 83
1, 56578, Note_off_c, 0, 35, 64
1, 56606, Control_c, 0, 64, 83
1, 56620, Control_c, 0, 64, 84
1, 56635, Control_c, 0, 64, 84
1, 56650, Control_c, 0, 64, 85
1, 56720, Note_on_c, 0, 23, 52
1, 56724, Control_c, 0, 64, 83
1, 56738, Control_c, 0, 64, 76
1, 56753, Control_c, 0, 64, 63
1, 56768, Control_c, 0, 64, 0
1, 56842, Control_c, 0, 64, 59
1, 56857, Control_c, 0, 64, 67
1, 56872, Control_c, 0, 64, 70
1, 56884, Note_on_c, 0, 47, 41
1, 56887, Control_c, 0, 64, 74
1, 56902, Control_c, 0, 64, 77
1, 56907, Note_off_c, 0, 23, 61
1, 56917, Control_c, 0, 64, 79
1, 56919, Note_off_c, 0, 47, 54
1, 56932, Control_c, 0, 64, 81
1, 56946, Control_c, 0, 64, 82
1, 56961, Control_c, 0, 64, 84
1, 56976, Control_c, 0, 64, 85
1, 56998, Control_c, 0, 64, 86
1, 57013, Control_c, 0, 64, 86
1, 57015, Note_on_c, 0, 47, 30
1, 57027, Control_c, 0, 64, 87
1, 57042, Control_c, 0, 64, 87
1, 57057, Control_c, 0, 64, 88
1, 57069, Note_off_c, 0, 47, 0
1, 57069, Note_on_c, 0, 47, 41
1, 57072, Control_c, 0, 64, 88
1, 57087, Control_c, 0, 64, 89
1, 57101, Note_off_c, 0, 47, 63
1, 57155, Note_on_c, 0, 47, 54
1, 57182, Note_off_c, 0, 47, 60
1, 57235, Control_c, 0, 64, 88
1, 57265, Control_c, 0, 64, 88
1, 57279, Control_c, 0, 64, 87
1, 57294, Control_c, 0, 64, 86
1, 57303, Note_on_c, 0, 47, 3
1, 57309, Control_c, 0, 64, 86
1, 57325, Control_c, 0, 64, 85
1, 57336, Note_off_c, 0, 47, 0
1, 57336, Note_on_c, 0, 47, 3
1, 57340, Control_c, 0, 64, 84
1, 57355, Control_c, 0, 64, 83
1, 57364, Note_off_c, 0, 47, 58
1, 57369, Control_c, 0, 64, 82
1, 57384, Control_c, 0, 64, 80
1, 57399, Control_c, 0, 64, 79
1, 57409, Note_on_c, 0, 47, 61
1, 57413, Control_c, 0, 64, 77
1, 57428, Control_c, 0, 64, 75
1, 57434, Note_off_c, 0, 47, 67
1, 57442, Control_c, 0, 64, 73
1, 57457, Control_c, 0, 64, 71
1, 57472, Control_c, 0, 64, 68
1, 57486, Control_c, 0, 64, 65
1, 57492, Note_on_c, 0, 47, 77
1, 57501, Control_c, 0, 64, 63
1, 57516, Note_off_c, 0, 47, 65
1, 57516, Control_c, 0, 64, 62
1, 57531, Control_c, 0, 64, 61
1, 57573, Note_on_c, 0, 47, 65
1, 57576, Control_c, 0, 64, 61
1, 57591, Control_c, 0, 64, 60
1, 57592, Note_off_c, 0, 47, 66
1, 57620, Control_c, 0, 64, 60
1, 57635, Control_c, 0, 64, 59
1, 57646, Note_on_c, 0, 47, 80
1, 57650, Control_c, 0, 64, 59
1, 57665, Control_c, 0, 64, 58
1, 57674, Note_off_c, 0, 47, 67
1, 57694, Control_c, 0, 64, 58
1, 57709, Control_c, 0, 64, 57
1, 57724, Control_c, 0, 64, 57
1, 57728, Note_on_c, 0, 47, 70
1, 57746, Control_c, 0, 64, 56
1, 57761, Control_c, 0, 64, 54
1, 57765, Note_off_c, 0, 47, 68
1, 57775, Control_c, 0, 64, 52
1, 57790, Control_c, 0, 64, 48
1, 57805, Control_c, 0, 64, 44
1, 57820, Control_c, 0, 64, 41
1, 57823, Note_on_c, 0, 47, 73
1, 57835, Control_c, 0, 64, 40
1, 57844, Note_off_c, 0, 47, 68
1, 57850, Control_c, 0, 64, 39
1, 57865, Control_c, 0, 64, 38
1, 57880, Control_c, 0, 64, 37
1, 57892, Note_on_c, 0, 47, 77
1, 57894, Control_c, 0, 64, 36
1, 57909, Control_c, 0, 64, 36
1, 57914, Note_off_c, 0, 47, 68
1, 57939, Control_c, 0, 64, 34
1, 57954, Control_c, 0, 64, 31
1, 57968, Control_c, 0, 64, 29
1, 57970, Note_on_c, 0, 47, 79
1, 57998, Control_c, 0, 64, 28
1, 58006, Note_off_c, 0, 47, 69
1, 58042, Control_c, 0, 64, 27
1, 58057, Note_on_c, 0, 47, 78
1, 58072, Control_c, 0, 64, 26
1, 58083, Note_off_c, 0, 47, 69
1, 58101, Control_c, 0, 64, 25
1, 58117, Control_c, 0, 64, 24
1, 58136, Note_on_c, 0, 47, 82
1, 58147, Control_c, 0, 64, 21
1, 58158, Note_off_c, 0, 47, 67
1, 58163, Control_c, 0, 64, 18
1, 58178, Control_c, 0, 64, 16
1, 58192, Control_c, 0, 64, 13
1, 58207, Control_c, 0, 64, 10
1, 58220, Note_on_c, 0, 47, 70
1, 58222, Control_c, 0, 64, 0
1, 58241, Note_off_c, 0, 47, 62
1, 58294, Note_on_c, 0, 47, 83
1, 58319, Note_off_c, 0, 47, 70
1, 58377, Note_on_c, 0, 47, 75
1, 58384, Control_c, 0, 64, 10
1, 58399, Control_c, 0, 64, 16
1, 58403, Note_off_c, 0, 47, 67
1, 58414, Control_c, 0, 64, 20
1, 58429, Control_c, 0, 64, 23
1, 58444, Control_c, 0, 64, 24
1, 58455, Note_on_c, 0, 47, 71
1, 58473, Control_c, 0, 64, 25
1, 58478, Note_off_c, 0, 47, 68
1, 58496, Control_c, 0, 64, 26
1, 58525, Control_c, 0, 64, 27
1, 58540, Control_c, 0, 64, 28
1, 58541, Note_on_c, 0, 47, 74
1, 58555, Control_c, 0, 64, 29
1, 58565, Note_off_c, 0, 47, 67
1, 58570, Control_c, 0, 64, 30
1, 58585, Control_c, 0, 64, 31
1, 58599, Control_c, 0, 64, 32
1, 58627, Note_on_c, 0, 47, 76
1, 58629, Control_c, 0, 64, 33
1, 58644, Control_c, 0, 64, 34
1, 58655, Note_off_c, 0, 47, 69
1, 58688, Control_c, 0, 64, 34
1, 58703, Control_c, 0, 64, 35
1, 58726, Note_on_c, 0, 47, 62
1, 58754, Note_off_c, 0, 47, 66
1, 58792, Control_c, 0, 64, 36
1, 58825, Note_on_c, 0, 47, 52
1, 58854, Note_off_c, 0, 47, 35
1, 58924, Note_on_c, 0, 47, 13
1, 58980, Note_off_c, 0, 47, 0
1, 58980, Note_on_c, 0, 47, 48
1, 59008, Note_off_c, 0, 47, 64
1, 59030, Control_c, 0, 64, 36
1, 59077, Note_on_c, 0, 47, 70
1, 59102, Note_off_c, 0, 47, 66
1, 59104, Control_c, 0, 64, 37
1, 59134, Control_c, 0, 64, 38
1, 59148, Control_c, 0, 64, 38
1, 59170, Note_on_c, 0, 47, 55
1, 59201, Note_off_c, 0, 47, 35
1, 59262, Note_on_c, 0, 47, 57
1, 59290, Note_off_c, 0, 47, 57
1, 59348, Note_on_c, 0, 47, 70
1, 59376, Note_off_c, 0, 47, 67
1, 59435, Note_on_c, 0, 47, 61
1, 59460, Note_off_c, 0, 47, 64
1, 59530, Note_on_c, 0, 47, 59
1, 59558, Note_off_c, 0, 47, 58
1, 59600, Control_c, 0, 64, 38
1, 59619, Note_on_c, 0, 47, 42
1, 59656, Note_off_c, 0, 47, 31
1, 59698, Note_on_c, 0, 47, 66
1, 59725, Note_off_c, 0, 47, 67
1, 59734, Control_c, 0, 64, 38
1, 59793, Note_on_c, 0, 47, 65
1, 59819, Note_off_c, 0, 47, 65
1, 59880, Note_on_c, 0, 47, 68
1, 59897, Control_c, 0, 64, 38
1, 59909, Note_off_c, 0, 47, 66
1, 59942, Control_c, 0, 64, 37
1, 59966, Note_on_c, 0, 47, 71
1, 60001, Note_off_c, 0, 47, 66
1, 60023, Control_c, 0, 64, 36
1, 60067, Note_on_c, 0, 47, 70
1, 60100, Note_off_c, 0, 47, 66
1, 60164, Note_on_c, 0, 47, 65
1, 60171, Control_c, 0, 64, 37
1, 60193, Note_off_c, 0, 47, 66
1, 60201, Control_c, 0, 64, 38
1, 60288, Note_on_c, 0, 47, 60
1, 60289, Control_c, 0, 64, 37
1, 60295, Note_on_c, 0, 50, 63
1, 60299, Note_on_c, 0, 59, 69
1, 60305, Note_on_c, 0, 54, 64
1, 60317, Note_off_c, 0, 50, 61
1, 60324, Note_off_c, 0, 47, 65
1, 60332, Note_off_c, 0, 59, 61
1, 60334, Note_off_c, 0, 54, 64
1, 60349, Control_c, 0, 64, 36
1, 60396, Note_on_c, 0, 50, 62
1, 60426, Note_off_c, 0, 50, 65
1, 60452, Control_c, 0, 64, 37
1, 60488, Note_on_c, 0, 50, 52
1, 60518, Note_off_c, 0, 50, 51
1, 60564, Note_on_c, 0, 50, 57
1, 60595, Note_off_c, 0, 50, 65
1, 60640, Note_on_c, 0, 59, 68
1, 60646, Note_on_c, 0, 47, 58
1, 60650, Note_on_c, 0, 54, 64
1, 60667, Note_off_c, 0, 59, 66
1, 60672, Note_off_c, 0, 47, 59
1, 60679, Note_off_c, 0, 54, 63
1, 60724, Note_on_c, 0, 50, 46
1, 60742, Control_c, 0, 64, 38
1, 60762, Note_off_c, 0, 50, 64
1, 60825, Note_on_c, 0, 51, 66
1, 60826, Note_on_c, 0, 41, 60
1, 60827, Note_on_c, 0, 60, 71
1, 60832, Note_on_c, 0, 55, 64
1, 60855, Note_off_c, 0, 51, 64
1, 60861, Note_off_c, 0, 55, 66
1, 60862, Note_off_c, 0, 41, 67
1, 60868, Note_off_c, 0, 60, 59
1, 60890, Control_c, 0, 64, 38
1, 60905, Control_c, 0, 64, 39
1, 60913, Note_on_c, 0, 51, 73
1, 60920, Control_c, 0, 64, 41
1, 60935, Control_c, 0, 64, 43
1, 60937, Note_off_c, 0, 51, 66
1, 60950, Control_c, 0, 64, 44
1, 60965, Control_c, 0, 64, 45
1, 60980, Control_c, 0, 64, 45
1, 60992, Note_on_c, 0, 59, 81
1, 60996, Note_on_c, 0, 50, 78
1, 61003, Note_on_c, 0, 54, 69
1, 61004, Note_on_c, 0, 47, 72
1, 61009, Control_c, 0, 64, 44
1, 61020, Note_off_c, 0, 50, 67
1, 61020, Note_off_c, 0, 59, 65
1, 61024, Control_c, 0, 64, 43
1, 61030, Note_off_c, 0, 54, 65
1, 61036, Note_off_c, 0, 47, 65
1, 61039, Control_c, 0, 64, 42
1, 61054, Control_c, 0, 64, 41
1, 61068, Control_c, 0, 64, 41
1, 61083, Control_c, 0, 64, 40
1, 61092, Note_on_c, 0, 50, 64
1, 61121, Note_off_c, 0, 50, 64
1, 61127, Control_c, 0, 64, 39
1, 61182, Note_on_c, 0, 50, 62
1, 61210, Note_off_c, 0, 50, 65
1, 61251, Note_on_c, 0, 50, 55
1, 61282, Note_off_c, 0, 50, 63
1, 61291, Control_c, 0, 64, 39
1, 61307, Control_c, 0, 64, 38
1, 61333, Note_on_c, 0, 59, 59
1, 61334, Note_on_c, 0, 54, 65
1, 61335, Note_on_c, 0, 47, 59
1, 61336, Control_c, 0, 64, 38
1, 61351, Control_c, 0, 64, 37
1, 61360, Note_off_c, 0, 47, 61
1, 61363, Note_off_c, 0, 54, 64
1, 61364, Note_off_c, 0, 59, 63
1, 61366, Control_c, 0, 64, 36
1, 61381, Control_c, 0, 64, 36
1, 61396, Control_c, 0, 64, 34
1, 61412, Note_on_c, 0, 50, 71
1, 61440, Note_off_c, 0, 50, 65
1, 61502, Note_on_c, 0, 51, 64
1, 61507, Note_on_c, 0, 41, 56
1, 61510, Note_on_c, 0, 60, 70
1, 61516, Note_on_c, 0, 55, 60
1, 61531, Note_off_c, 0, 51, 64
1, 61544, Note_off_c, 0, 41, 66
1, 61544, Note_off_c, 0, 55, 66
1, 61556, Note_off_c, 0, 60, 61
1, 61594, Note_on_c, 0, 51, 72
1, 61596, Control_c, 0, 64, 35
1, 61610, Control_c, 0, 64, 36
1, 61618, Note_off_c, 0, 51, 66
1, 61625, Control_c, 0, 64, 37
1, 61640, Control_c, 0, 64, 38
1, 61673, Note_on_c, 0, 59, 77
1, 61679, Note_on_c, 0, 50, 65
1, 61680, Note_on_c, 0, 47, 65
1, 61680, Note_on_c, 0, 54, 72
1, 61684, Control_c, 0, 64, 36
1, 61699, Control_c, 0, 64, 35
1, 61701, Note_off_c, 0, 59, 63
1, 61702, Note_off_c, 0, 50, 64
1, 61708, Note_off_c, 0, 54, 64
1, 61714, Control_c, 0, 64, 34
1, 61718, Note_off_c, 0, 47, 64
1, 61729, Control_c, 0, 64, 32
1, 61758, Control_c, 0, 64, 31
1, 61785, Note_on_c, 0, 50, 47
1, 61832, Control_c, 0, 64, 33
1, 61834, Note_off_c, 0, 50, 0
1, 61834, Note_on_c, 0, 50, 52
1, 61865, Note_off_c, 0, 50, 65
1, 61929, Note_on_c, 0, 50, 64
1, 61958, Note_off_c, 0, 50, 66
1, 61965, Control_c, 0, 64, 32
1, 62002, Note_on_c, 0, 47, 55
1, 62005, Note_on_c, 0, 59, 61
1, 62009, Control_c, 0, 64, 31
1, 62012, Note_on_c, 0, 54, 54
1, 62024, Control_c, 0, 64, 30
1, 62030, Note_off_c, 0, 47, 64
1, 62035, Note_off_c, 0, 54, 59
1, 62036, Note_off_c, 0, 59, 64
1, 62054, Control_c, 0, 64, 29
1, 62078, Note_on_c, 0, 50, 55
1, 62112, Note_off_c, 0, 50, 64
1, 62169, Note_on_c, 0, 41, 63
1, 62169, Note_on_c, 0, 51, 61
1, 62173, Note_on_c, 0, 60, 67
1, 62179, Note_on_c, 0, 55, 65
1, 62199, Note_off_c, 0, 51, 63
1, 62212, Note_off_c, 0, 55, 65
1, 62216, Note_off_c, 0, 41, 62
1, 62220, Note_off_c, 0, 60, 60
1, 62255, Control_c, 0, 64, 28
1, 62269, Note_on_c, 0, 51, 73
1, 62297, Note_off_c, 0, 51, 66
1, 62299, Control_c, 0, 64, 29
1, 62340, Note_on_c, 0, 50, 74
1, 62347, Note_on_c, 0, 47, 65
1, 62351, Note_on_c, 0, 59, 72
1, 62358, Note_on_c, 0, 54, 66
1, 62358, Control_c, 0, 64, 27
1, 62367, Note_off_c, 0, 50, 67
1, 62373, Control_c, 0, 64, 24
1, 62375, Note_off_c, 0, 47, 66
1, 62385, Note_off_c, 0, 59, 62
1, 62387, Note_off_c, 0, 54, 64
1, 62388, Control_c, 0, 64, 13
1, 62403, Control_c, 0, 64, 0
1, 62431, Note_on_c, 0, 50, 74
1, 62465, Note_off_c, 0, 50, 67
1, 62491, Control_c, 0, 64, 13
1, 62506, Control_c, 0, 64, 16
1, 62512, Note_on_c, 0, 60, 76
1, 62515, Note_on_c, 0, 41, 66
1, 62521, Note_on_c, 0, 51, 61
1, 62529, Note_on_c, 0, 55, 51
1, 62549, Note_off_c, 0, 51, 65
1, 62551, Control_c, 0, 64, 18
1, 62553, Note_off_c, 0, 41, 66
1, 62554, Note_off_c, 0, 55, 58
1, 62554, Note_off_c, 0, 60, 60
1, 62581, Control_c, 0, 64, 21
1, 62596, Control_c, 0, 64, 24
1, 62610, Control_c, 0, 64, 25
1, 62625, Control_c, 0, 64, 26
1, 62640, Control_c, 0, 64, 27
1, 62681, Note_on_c, 0, 48, 57
1, 62685, Note_on_c, 0, 45, 59
1, 62688, Note_on_c, 0, 57, 68
1, 62702, Note_on_c, 0, 52, 51
1, 62711, Note_off_c, 0, 48, 67
1, 62714, Control_c, 0, 64, 26
1, 62715, Note_off_c, 0, 45, 65
1, 62720, Note_off_c, 0, 57, 63
1, 62728, Note_off_c, 0, 52, 54
1, 62729, Control_c, 0, 64, 24
1, 62744, Control_c, 0, 64, 23
1, 62758, Control_c, 0, 64, 21
1, 62773, Control_c, 0, 64, 20
1, 62783, Note_on_c, 0, 48, 63
1, 62813, Note_off_c, 0, 48, 67
1, 62862, Control_c, 0, 64, 21
1, 62865, Note_on_c, 0, 58, 60
1, 62870, Note_on_c, 0, 39, 49
1, 62870, Note_on_c, 0, 49, 43
1, 62873, Note_on_c, 0, 53, 51
1, 62897, Note_off_c, 0, 53, 60
1, 62900, Note_off_c, 0, 49, 48
1, 62901, Note_off_c, 0, 39, 61
1, 62910, Note_off_c, 0, 58, 60
1, 62949, Note_on_c, 0, 50, 57
1, 62976, Note_off_c, 0, 50, 64
1, 63040, Note_on_c, 0, 55, 65
1, 63054, Note_on_c, 0, 46, 64
1, 63063, Note_on_c, 0, 43, 44
1, 63081, Note_off_c, 0, 55, 57
1, 63084, Note_off_c, 0, 46, 63
1, 63096, Note_off_c, 0, 43, 48
1, 63122, Control_c, 0, 64, 23
1, 63137, Control_c, 0, 64, 24
1, 63142, Note_on_c, 0, 46, 59
1, 63152, Control_c, 0, 64, 25
1, 63169, Note_off_c, 0, 46, 56
1, 63221, Note_on_c, 0, 46, 59
1, 63241, Control_c, 0, 64, 26
1, 63248, Note_off_c, 0, 46, 62
1, 63305, Note_on_c, 0, 46, 57
1, 63329, Note_off_c, 0, 46, 56
1, 63329, Control_c, 0, 64, 27
1, 63382, Note_on_c, 0, 55, 71
1, 63391, Note_on_c, 0, 50, 48
1, 63399, Note_on_c, 0, 46, 60
1, 63417, Note_off_c, 0, 55, 65
1, 63418, Note_on_c, 0, 43, 7
1, 63418, Note_off_c, 0, 50, 51
1, 63424, Note_off_c, 0, 46, 57
1, 63472, Note_off_c, 0, 43, 37
1, 63493, Note_on_c, 0, 46, 47
1, 63507, Control_c, 0, 64, 28
1, 63522, Control_c, 0, 64, 29
1, 63523, Note_off_c, 0, 46, 50
1, 63566, Note_on_c, 0, 47, 51
1, 63566, Note_on_c, 0, 56, 60
1, 63567, Note_on_c, 0, 51, 52
1, 63568, Note_on_c, 0, 37, 47
1, 63595, Note_off_c, 0, 47, 55
1, 63598, Note_off_c, 0, 51, 59
1, 63600, Note_off_c, 0, 37, 59
1, 63606, Note_off_c, 0, 56, 61
1, 63611, Control_c, 0, 64, 28
1, 63640, Control_c, 0, 64, 27
1, 63645, Note_on_c, 0, 47, 56
1, 63671, Note_off_c, 0, 47, 61
1, 63744, Note_on_c, 0, 46, 66
1, 63749, Note_on_c, 0, 50, 58
1, 63755, Note_on_c, 0, 55, 57
1, 63758, Note_on_c, 0, 43, 44
1, 63776, Note_off_c, 0, 46, 61
1, 63787, Note_off_c, 0, 50, 62
1, 63791, Note_off_c, 0, 43, 52
1, 63792, Note_off_c, 0, 55, 62
1, 63841, Note_on_c, 0, 46, 52
1, 63871, Note_off_c, 0, 46, 53
1, 63920, Note_on_c, 0, 46, 58
1, 63945, Note_off_c, 0, 46, 61
1, 64015, Note_on_c, 0, 46, 37
1, 64053, Note_off_c, 0, 46, 31
1, 64084, Note_on_c, 0, 55, 68
1, 64086, Note_on_c, 0, 50, 61
1, 64108, Control_c, 0, 64, 26
1, 64113, Note_on_c, 0, 46, 26
1, 64116, Note_off_c, 0, 50, 65
1, 64118, Note_on_c, 0, 43, 13
1, 64122, Note_off_c, 0, 55, 63
1, 64123, Control_c, 0, 64, 25
1, 64137, Control_c, 0, 64, 24
1, 64152, Control_c, 0, 64, 23
1, 64163, Note_off_c, 0, 46, 0
1, 64167, Note_off_c, 0, 43, 27
1, 64176, Note_on_c, 0, 46, 54
1, 64182, Control_c, 0, 64, 24
1, 64197, Control_c, 0, 64, 25
1, 64205, Note_off_c, 0, 46, 64
1, 64211, Control_c, 0, 64, 26
1, 64241, Control_c, 0, 64, 27
1, 64267, Note_on_c, 0, 37, 53
1, 64269, Note_on_c, 0, 51, 60
1, 64274, Note_on_c, 0, 56, 60
1, 64287, Note_on_c, 0, 47, 21
1, 64288, Note_off_c, 0, 47, 127
1, 64303, Note_off_c, 0, 37, 64
1, 64304, Note_off_c, 0, 51, 61
1, 64312, Note_off_c, 0, 56, 61
1, 64345, Note_on_c, 0, 47, 42
1, 64383, Note_off_c, 0, 47, 64
1, 64390, Control_c, 0, 64, 28
1, 64404, Control_c, 0, 64, 29
1, 64419, Control_c, 0, 64, 30
1, 64434, Control_c, 0, 64, 31
1, 64441, Note_on_c, 0, 50, 67
1, 64442, Note_on_c, 0, 46, 64
1, 64445, Note_on_c, 0, 43, 50
1, 64447, Note_on_c, 0, 55, 64
1, 64474, Note_off_c, 0, 43, 57
1, 64475, Note_off_c, 0, 50, 64
1, 64476, Note_off_c, 0, 46, 62
1, 64488, Note_off_c, 0, 55, 64
1, 64539, Note_on_c, 0, 46, 64
1, 64565, Note_off_c, 0, 46, 61
1, 64621, Note_on_c, 0, 46, 61
1, 64649, Note_off_c, 0, 46, 64
1, 64709, Note_on_c, 0, 46, 57
1, 64737, Note_off_c, 0, 46, 57
1, 64792, Note_on_c, 0, 55, 67
1, 64797, Note_on_c, 0, 50, 57
1, 64816, Note_on_c, 0, 46, 50
1, 64826, Note_on_c, 0, 43, 14
1, 64828, Note_off_c, 0, 50, 65
1, 64835, Note_off_c, 0, 55, 57
1, 64841, Note_off_c, 0, 46, 54
1, 64842, Control_c, 0, 64, 30
1, 64874, Note_off_c, 0, 43, 39
1, 64899, Note_on_c, 0, 46, 60
1, 64902, Control_c, 0, 64, 31
1, 64917, Control_c, 0, 64, 32
1, 64927, Note_off_c, 0, 46, 62
1, 64932, Control_c, 0, 64, 33
1, 64947, Control_c, 0, 64, 34
1, 64961, Control_c, 0, 64, 34
1, 64979, Note_on_c, 0, 47, 56
1, 64980, Note_on_c, 0, 56, 65
1, 64980, Note_on_c, 0, 37, 49
1, 64983, Note_on_c, 0, 51, 57
1, 65006, Note_off_c, 0, 47, 61
1, 65012, Note_off_c, 0, 37, 62
1, 65016, Note_off_c, 0, 51, 62
1, 65019, Note_off_c, 0, 56, 60
1, 65021, Control_c, 0, 64, 33
1, 65035, Control_c, 0, 64, 32
1, 65076, Note_on_c, 0, 47, 63
1, 65099, Note_off_c, 0, 47, 63
1, 65141, Note_on_c, 0, 46, 64
1, 65152, Note_on_c, 0, 55, 53
1, 65153, Note_on_c, 0, 43, 48
1, 65172, Note_on_c, 0, 50, 33
1, 65175, Note_off_c, 0, 46, 60
1, 65183, Note_off_c, 0, 43, 55
1, 65183, Control_c, 0, 64, 31
1, 65195, Note_off_c, 0, 55, 47
1, 65198, Control_c, 0, 64, 30
1, 65210, Note_off_c, 0, 50, 40
1, 65250, Note_on_c, 0, 46, 68
1, 65289, Note_off_c, 0, 46, 61
1, 65294, Control_c, 0, 64, 31
1, 65340, Control_c, 0, 64, 32
1, 65345, Note_on_c, 0, 51, 54
1, 65347, Note_on_c, 0, 37, 52
1, 65350, Note_on_c, 0, 47, 46
1, 65354, Note_on_c, 0, 56, 49
1, 65378, Note_off_c, 0, 51, 62
1, 65380, Note_off_c, 0, 47, 52
1, 65381, Note_off_c, 0, 37, 64
1, 65384, Control_c, 0, 64, 31
1, 65394, Note_off_c, 0, 56, 63
1, 65414, Control_c, 0, 64, 30
1, 65440, Note_on_c, 0, 47, 57
1, 65469, Note_off_c, 0, 47, 65
1, 65529, Note_on_c, 0, 48, 62
1, 65532, Note_on_c, 0, 44, 51
1, 65541, Note_on_c, 0, 41, 51
1, 65546, Note_on_c, 0, 53, 44
1, 65560, Note_off_c, 0, 48, 65
1, 65564, Note_off_c, 0, 44, 64
1, 65570, Note_off_c, 0, 41, 62
1, 65573, Note_off_c, 0, 53, 59
1, 65577, Control_c, 0, 64, 29
1, 65621, Control_c, 0, 64, 31
1, 65636, Control_c, 0, 64, 32
1, 65647, Note_on_c, 0, 44, 59
1, 65679, Control_c, 0, 64, 33
1, 65687, Note_off_c, 0, 44, 62
1, 65729, Note_on_c, 0, 35, 51
1, 65732, Note_on_c, 0, 54, 53
1, 65734, Note_on_c, 0, 49, 44
1, 65738, Control_c, 0, 64, 32
1, 65753, Control_c, 0, 64, 28
1, 65764, Note_off_c, 0, 35, 63
1, 65768, Control_c, 0, 64, 23
1, 65770, Note_off_c, 0, 49, 56
1, 65782, Control_c, 0, 64, 0
1, 65788, Note_off_c, 0, 54, 53
1, 65824, Poly_aftertouch_c, 0, 45, 127
1, 65880, Poly_aftertouch_c, 0, 45, 0
1, 65916, Control_c, 0, 64, 63
1, 65931, Control_c, 0, 64, 68
1, 65946, Control_c, 0, 64, 71
1, 65951, Note_on_c, 0, 39, 47
1, 65960, Note_on_c, 0, 51, 54
1, 65961, Control_c, 0, 64, 75
1, 65982, Control_c, 0, 64, 79
1, 65997, Control_c, 0, 64, 83
1, 66003, Note_off_c, 0, 39, 45
1, 66012, Control_c, 0, 64, 87
1, 66016, Note_off_c, 0, 51, 56
1, 66027, Control_c, 0, 64, 90
1, 66041, Control_c, 0, 64, 93
1, 66056, Control_c, 0, 64, 97
1, 66071, Control_c, 0, 64, 100
1, 66086, Control_c, 0, 64, 103
1, 66102, Control_c, 0, 64, 106
1, 66117, Control_c, 0, 64, 108
1, 66131, Control_c, 0, 64, 109
1, 66146, Control_c, 0, 64, 111
1, 66154, Note_on_c, 0, 46, 58
1, 66161, Control_c, 0, 64, 112
1, 66168, Poly_aftertouch_c, 0, 42, 0
1, 66176, Control_c, 0, 64, 114
1, 66191, Control_c, 0, 64, 115
1, 66193, Note_off_c, 0, 46, 59
1, 66205, Control_c, 0, 64, 117
1, 66220, Control_c, 0, 64, 118
1, 66235, Control_c, 0, 64, 119
1, 66249, Note_on_c, 0, 49, 55
1, 66250, Control_c, 0, 64, 121
1, 66265, Control_c, 0, 64, 124
1, 66278, Note_off_c, 0, 49, 64
1, 66280, Control_c, 0, 64, 127
1, 66340, Note_on_c, 0, 51, 58
1, 66361, Note_off_c, 0, 51, 63
1, 66427, Note_on_c, 0, 54, 52
1, 66450, Note_off_c, 0, 54, 58
1, 66521, Note_on_c, 0, 58, 73
1, 66569, Note_off_c, 0, 58, 0
1, 66595, Note_on_c, 0, 61, 58
1, 66605, Poly_aftertouch_c, 0, 58, 127
1, 66629, Note_off_c, 0, 61, 64
1, 66632, Poly_aftertouch_c, 0, 58, 0
1, 66711, Note_on_c, 0, 58, 57
1, 66748, Note_off_c, 0, 58, 49
1, 66796, Note_on_c, 0, 61, 65
1, 66826, Note_off_c, 0, 61, 60
1, 66832, Note_on_c, 0, 58, 3
1, 66864, Note_off_c, 0, 58, 39
1, 66883, Note_on_c, 0, 63, 64
1, 66927, Note_off_c, 0, 63, 54
1, 66968, Note_on_c, 0, 66, 61
1, 66981, Note_on_c, 0, 63, 34
1, 66995, Note_off_c, 0, 66, 68
1, 67010, Note_off_c, 0, 63, 52
1, 67071, Note_on_c, 0, 70, 65
1, 67099, Note_off_c, 0, 70, 67
1, 67174, Note_on_c, 0, 73, 64
1, 67182, Note_on_c, 0, 70, 57
1, 67204, Note_off_c, 0, 70, 60
1, 67208, Note_off_c, 0, 73, 63
1, 67292, Note_on_c, 0, 75, 52
1, 67327, Note_off_c, 0, 75, 52
1, 67379, Note_on_c, 0, 78, 65
1, 67419, Note_on_c, 0, 75, 8
1, 67457, Note_off_c, 0, 78, 56
1, 67477, Note_off_c, 0, 75, 39
1, 67580, Note_on_c, 0, 82, 82
1, 67648, Note_off_c, 0, 82, 60
1, 67708, Note_on_c, 0, 78, 57
1, 67742, Note_off_c, 0, 78, 51
1, 67757, Poly_aftertouch_c, 0, 75, 0
1, 67794, Poly_aftertouch_c, 0, 75, 127
1, 67853, Poly_aftertouch_c, 0, 75, 0
1, 67884, Note_on_c, 0, 73, 58
1, 67893, Note_on_c, 0, 70, 52
1, 67913, Note_off_c, 0, 73, 66
1, 67916, Note_off_c, 0, 70, 61
1, 67990, Note_on_c, 0, 70, 58
1, 68012, Note_off_c, 0, 70, 66
1, 68076, Note_on_c, 0, 66, 48
1, 68077, Note_on_c, 0, 63, 45
1, 68101, Note_off_c, 0, 66, 58
1, 68103, Note_off_c, 0, 63, 56
1, 68176, Note_on_c, 0, 63, 61
1, 68198, Note_off_c, 0, 63, 65
1, 68298, Note_on_c, 0, 61, 63
1, 68310, Note_on_c, 0, 58, 43
1, 68331, Note_off_c, 0, 61, 62
1, 68334, Note_off_c, 0, 58, 58
1, 68408, Note_on_c, 0, 51, 40
1, 68414, Note_on_c, 0, 58, 59
1, 68447, Note_off_c, 0, 58, 65
1, 68459, Note_off_c, 0, 51, 58
1, 68497, Note_on_c, 0, 61, 57
1, 68522, Note_off_c, 0, 61, 61
1, 68591, Note_on_c, 0, 63, 60
1, 68621, Note_off_c, 0, 63, 63
1, 68674, Note_on_c, 0, 66, 50
1, 68700, Note_off_c, 0, 66, 57
1, 68771, Note_on_c, 0, 70, 78
1, 68800, Note_off_c, 0, 70, 56
1, 68869, Note_on_c, 0, 73, 66
1, 68900, Note_off_c, 0, 73, 64
1, 68963, Note_on_c, 0, 75, 65
1, 69001, Note_off_c, 0, 75, 65
1, 69052, Note_on_c, 0, 78, 67
1, 69067, Note_on_c, 0, 75, 46
1, 69104, Note_off_c, 0, 75, 65
1, 69118, Note_off_c, 0, 78, 58
1, 69201, Note_on_c, 0, 82, 80
1, 69266, Note_off_c, 0, 82, 61
1, 69307, Note_on_c, 0, 78, 62
1, 69336, Note_on_c, 0, 75, 26
1, 69347, Note_off_c, 0, 78, 57
1, 69390, Note_off_c, 0, 75, 0
1, 69390, Note_on_c, 0, 75, 38
1, 69444, Note_off_c, 0, 75, 62
1, 69482, Note_on_c, 0, 73, 50
1, 69488, Note_on_c, 0, 70, 51
1, 69507, Note_off_c, 0, 73, 60
1, 69509, Note_off_c, 0, 70, 61
1, 69583, Note_on_c, 0, 70, 61
1, 69604, Note_off_c, 0, 70, 65
1, 69658, Note_on_c, 0, 66, 56
1, 69663, Note_on_c, 0, 63, 51
1, 69685, Note_off_c, 0, 66, 57
1, 69686, Note_off_c, 0, 63, 60
1, 69769, Note_on_c, 0, 63, 65
1, 69797, Note_off_c, 0, 63, 66
1, 69876, Note_on_c, 0, 61, 65
1, 69904, Note_on_c, 0, 58, 30
1, 69912, Note_off_c, 0, 61, 60
1, 69965, Note_off_c, 0, 58, 0
1, 69976, Note_on_c, 0, 58, 51
1, 69985, Note_on_c, 0, 51, 47
1, 70025, Note_off_c, 0, 58, 61
1, 70044, Note_off_c, 0, 51, 56
1, 70076, Note_on_c, 0, 61, 61
1, 70107, Note_off_c, 0, 61, 64
1, 70171, Note_on_c, 0, 63, 60
1, 70194, Note_off_c, 0, 63, 64
1, 70248, Note_on_c, 0, 66, 54
1, 70271, Note_off_c, 0, 66, 66
1, 70331, Poly_aftertouch_c, 0, 63, 0
1, 70361, Note_on_c, 0, 70, 62
1, 70384, Note_off_c, 0, 70, 64
1, 70443, Note_on_c, 0, 73, 59
1, 70480, Note_off_c, 0, 73, 67
1, 70629, Note_on_c, 0, 78, 66
1, 70662, Note_on_c, 0, 75, 7
1, 70665, Note_off_c, 0, 78, 57
1, 70701, Note_off_c, 0, 75, 0
1, 70721, Note_on_c, 0, 75, 27
1, 70776, Note_off_c, 0, 75, 61
1, 70813, Note_on_c, 0, 78, 59
1, 70815, Note_on_c, 0, 75, 33
1, 70850, Note_off_c, 0, 75, 65
1, 70862, Note_off_c, 0, 78, 58
1, 70912, Note_on_c, 0, 75, 49
1, 70938, Note_off_c, 0, 75, 61
1, 70987, Note_on_c, 0, 73, 60
1, 70994, Note_on_c, 0, 70, 56
1, 71019, Note_off_c, 0, 73, 62
1, 71031, Note_off_c, 0, 70, 60
1, 71095, Note_on_c, 0, 82, 80
1, 71145, Note_off_c, 0, 82, 62
1, 71188, Note_on_c, 0, 73, 64
1, 71197, Note_on_c, 0, 70, 38
1, 71225, Note_off_c, 0, 73, 66
1, 71231, Note_off_c, 0, 70, 53
1, 71288, Note_on_c, 0, 75, 65
1, 71353, Note_off_c, 0, 75, 0
1, 71365, Note_on_c, 0, 78, 65
1, 71371, Note_on_c, 0, 75, 37
1, 71411, Note_off_c, 0, 75, 64
1, 71412, Note_off_c, 0, 78, 50
1, 71489, Note_on_c, 0, 82, 79
1, 71536, Note_off_c, 0, 82, 63
1, 71599, Note_on_c, 0, 78, 51
1, 71604, Note_on_c, 0, 75, 44
1, 71630, Note_off_c, 0, 75, 54
1, 71634, Note_off_c, 0, 78, 65
1, 71672, Note_on_c, 0, 75, 52
1, 71696, Note_off_c, 0, 75, 65
1, 71771, Note_on_c, 0, 73, 57
1, 71778, Note_on_c, 0, 70, 55
1, 71795, Note_off_c, 0, 73, 64
1, 71801, Note_off_c, 0, 70, 60
1, 71849, Note_on_c, 0, 63, 57
1, 71850, Note_on_c, 0, 70, 45
1, 71878, Note_off_c, 0, 70, 59
1, 71883, Note_off_c, 0, 63, 64
1, 71957, Note_on_c, 0, 73, 57
1, 71986, Note_on_c, 0, 70, 37
1, 72012, Note_off_c, 0, 73, 51
1, 72013, Note_off_c, 0, 70, 54
1, 72137, Note_on_c, 0, 78, 59
1, 72147, Note_on_c, 0, 75, 38
1, 72167, Note_off_c, 0, 78, 53
1, 72174, Note_off_c, 0, 75, 55
1, 72263, Note_on_c, 0, 80, 86
1, 72270, Control_c, 0, 64, 111
1, 72285, Control_c, 0, 64, 91
1, 72300, Control_c, 0, 64, 75
1, 72315, Control_c, 0, 64, 64
1, 72321, Note_off_c, 0, 80, 62
1, 72330, Control_c, 0, 64, 67
1, 72344, Control_c, 0, 64, 75
1, 72359, Control_c, 0, 64, 86
1, 72374, Control_c, 0, 64, 98
1, 72388, Note_on_c, 0, 78, 49
1, 72388, Control_c, 0, 64, 106
1, 72403, Control_c, 0, 64, 111
1, 72418, Note_off_c, 0, 78, 51
1, 72418, Control_c, 0, 64, 117
1, 72421, Poly_aftertouch_c, 0, 75, 0
1, 72432, Control_c, 0, 64, 127
1, 72447, Control_c, 0, 64, 127
1, 72459, Poly_aftertouch_c, 0, 75, 127
1, 72498, Poly_aftertouch_c, 0, 75, 0
1, 72558, Note_on_c, 0, 72, 51
1, 72567, Note_on_c, 0, 68, 36
1, 72578, Note_off_c, 0, 72, 62
1, 72625, Note_off_c, 0, 68, 0
1, 72640, Note_on_c, 0, 68, 32
1, 72647, Note_on_c, 0, 63, 49
1, 72671, Note_off_c, 0, 63, 58
1, 72671, Note_off_c, 0, 68, 54
1, 72743, Note_on_c, 0, 72, 43
1, 72769, Note_off_c, 0, 72, 60
1, 72813, Note_on_c, 0, 75, 64
1, 72847, Note_off_c, 0, 75, 60
1, 72905, Note_on_c, 0, 78, 58
1, 72921, Note_on_c, 0, 75, 33
1, 72942, Note_off_c, 0, 78, 51
1, 72949, Note_off_c, 0, 75, 55
1, 72995, Note_on_c, 0, 75, 62
1, 73028, Note_off_c, 0, 75, 64
1, 73087, Note_on_c, 0, 78, 48
1, 73097, Note_on_c, 0, 75, 29
1, 73126, Note_off_c, 0, 75, 56
1, 73126, Note_off_c, 0, 78, 51
1, 73161, Note_on_c, 0, 75, 51
1, 73199, Note_off_c, 0, 75, 66
1, 73236, Note_on_c, 0, 72, 54
1, 73258, Note_on_c, 0, 68, 36
1, 73274, Note_off_c, 0, 72, 61
1, 73291, Note_off_c, 0, 68, 50
1, 73330, Note_on_c, 0, 82, 76
1, 73376, Note_off_c, 0, 82, 63
1, 73419, Note_on_c, 0, 78, 48
1, 73457, Note_off_c, 0, 78, 47
1, 73501, Note_on_c, 0, 75, 21
1, 73563, Note_off_c, 0, 75, 60
1, 73580, Note_on_c, 0, 70, 47
1, 73580, Note_on_c, 0, 72, 51
1, 73602, Note_off_c, 0, 72, 63
1, 73605, Note_off_c, 0, 70, 59
1, 73664, Note_on_c, 0, 75, 86
1, 73712, Note_off_c, 0, 75, 61
1, 73720, Note_on_c, 0, 72, 51
1, 73792, Note_off_c, 0, 72, 62
1, 73811, Poly_aftertouch_c, 0, 68, 127
1, 73834, Note_on_c, 0, 68, 3
1, 73885, Note_off_c, 0, 68, 60
1, 73889, Note_on_c, 0, 66, 43
1, 73921, Note_off_c, 0, 66, 52
1, 73924, Note_on_c, 0, 63, 34
1, 73956, Note_off_c, 0, 63, 53
1, 73990, Note_on_c, 0, 77, 86
1, 74033, Note_off_c, 0, 77, 64
1, 74058, Note_on_c, 0, 72, 57
1, 74102, Note_off_c, 0, 72, 58
1, 74135, Poly_aftertouch_c, 0, 68, 127
1, 74143, Note_on_c, 0, 68, 6
1, 74201, Note_on_c, 0, 66, 50
1, 74201, Note_off_c, 0, 68, 60
1, 74218, Note_on_c, 0, 65, 43
1, 74230, Note_off_c, 0, 66, 61
1, 74245, Note_off_c, 0, 65, 56
1, 74309, Control_c, 0, 64, 108
1, 74324, Control_c, 0, 64, 84
1, 74339, Control_c, 0, 64, 65
1, 74353, Control_c, 0, 64, 0
1, 74358, Note_on_c, 0, 82, 79
1, 74383, Control_c, 0, 64, 62
1, 74398, Control_c, 0, 64, 74
1, 74411, Note_off_c, 0, 82, 61
1, 74412, Control_c, 0, 64, 85
1, 74427, Control_c, 0, 64, 98
1, 74442, Control_c, 0, 64, 104
1, 74445, Note_on_c, 0, 78, 48
1, 74457, Control_c, 0, 64, 109
1, 74471, Note_on_c, 0, 75, 39
1, 74471, Control_c, 0, 64, 116
1, 74483, Note_off_c, 0, 78, 46
1, 74486, Control_c, 0, 64, 127
1, 74501, Note_off_c, 0, 75, 56
1, 74544, Note_on_c, 0, 75, 57
1, 74580, Note_off_c, 0, 75, 66
1, 74637, Note_on_c, 0, 72, 48
1, 74659, Note_off_c, 0, 72, 62
1, 74719, Note_on_c, 0, 70, 56
1, 74726, Note_on_c, 0, 63, 49
1, 74732, Poly_aftertouch_c, 0, 68, 0
1, 74740, Note_off_c, 0, 70, 64
1, 74750, Note_off_c, 0, 63, 59
1, 74804, Note_on_c, 0, 72, 48
1, 74827, Note_on_c, 0, 68, 26
1, 74839, Note_off_c, 0, 72, 66
1, 74865, Note_off_c, 0, 68, 54
1, 74889, Note_on_c, 0, 75, 64
1, 74920, Note_off_c, 0, 75, 64
1, 74975, Note_on_c, 0, 78, 65
1, 74994, Note_on_c, 0, 75, 30
1, 75012, Note_off_c, 0, 78, 57
1, 75023, Note_off_c, 0, 75, 51
1, 75082, Note_on_c, 0, 80, 80
1, 75131, Note_off_c, 0, 80, 64
1, 75157, Note_on_c, 0, 78, 46
1, 75181, Note_on_c, 0, 75, 42
1, 75209, Note_off_c, 0, 78, 53
1, 75223, Note_off_c, 0, 75, 0
1, 75237, Note_on_c, 0, 75, 50
1, 75277, Note_off_c, 0, 75, 65
1, 75335, Note_on_c, 0, 72, 52
1, 75361, Note_off_c, 0, 72, 61
1, 75368, Note_on_c, 0, 68, 10
1, 75425, Note_on_c, 0, 63, 46
1, 75449, Note_off_c, 0, 63, 58
1, 75492, Note_on_c, 0, 72, 48
1, 75493, Note_off_c, 0, 68, 0
1, 75533, Note_off_c, 0, 72, 62
1, 75554, Poly_aftertouch_c, 0, 68, 0
1, 75582, Note_on_c, 0, 75, 66
1, 75619, Note_off_c, 0, 75, 56
1, 75656, Note_on_c, 0, 78, 65
1, 75717, Note_off_c, 0, 78, 47
1, 75732, Poly_aftertouch_c, 0, 75, 0
1, 75751, Note_on_c, 0, 75, 27
1, 75827, Note_off_c, 0, 75, 0
1, 75849, Note_on_c, 0, 78, 45
1, 75851, Note_on_c, 0, 75, 7
1, 75876, Note_off_c, 0, 78, 55
1, 75896, Note_off_c, 0, 75, 0
1, 75914, Note_on_c, 0, 75, 37
1, 75957, Note_off_c, 0, 75, 61
1, 75977, Note_on_c, 0, 72, 54
1, 76003, Note_off_c, 0, 72, 62
1, 76082, Note_on_c, 0, 82, 78
1, 76120, Note_off_c, 0, 82, 60
1, 76171, Note_on_c, 0, 78, 49
1, 76206, Note_off_c, 0, 78, 48
1, 76257, Note_on_c, 0, 75, 59
1, 76304, Note_off_c, 0, 75, 61
1, 76309, Note_on_c, 0, 72, 50
1, 76320, Note_on_c, 0, 70, 45
1, 76343, Note_off_c, 0, 72, 65
1, 76344, Note_off_c, 0, 70, 59
1, 76405, Note_on_c, 0, 75, 84
1, 76453, Note_off_c, 0, 75, 62
1, 76473, Note_on_c, 0, 72, 51
1, 76516, Note_on_c, 0, 68, 35
1, 76547, Note_off_c, 0, 72, 57
1, 76561, Note_off_c, 0, 68, 0
1, 76576, Note_on_c, 0, 68, 50
1, 76630, Note_off_c, 0, 68, 61
1, 76650, Note_on_c, 0, 66, 48
1, 76686, Note_off_c, 0, 66, 54
1, 76734, Control_c, 0, 64, 120
1, 76736, Poly_aftertouch_c, 0, 63, 0
1, 76740, Note_on_c, 0, 77, 79
1, 76748, Control_c, 0, 64, 96
1, 76763, Control_c, 0, 64, 77
1, 76778, Control_c, 0, 64, 57
1, 76790, Note_off_c, 0, 77, 62
1, 76793, Control_c, 0, 64, 0
1, 76808, Control_c, 0, 64, 61
1, 76822, Control_c, 0, 64, 74
1, 76832, Note_on_c, 0, 72, 48
1, 76837, Control_c, 0, 64, 88
1, 76852, Control_c, 0, 64, 100
1, 76866, Control_c, 0, 64, 105
1, 76881, Control_c, 0, 64, 107
1, 76894, Note_on_c, 0, 68, 50
1, 76896, Control_c, 0, 64, 110
1, 76911, Control_c, 0, 64, 115
1, 76926, Control_c, 0, 64, 121
1, 76929, Note_off_c, 0, 72, 50
1, 76940, Control_c, 0, 64, 126
1, 76955, Control_c, 0, 64, 127
1, 76972, Note_off_c, 0, 68, 62
1, 77007, Note_on_c, 0, 66, 47
1, 77034, Note_off_c, 0, 66, 60
1, 77047, Note_on_c, 0, 65, 19
1, 77086, Note_off_c, 0, 65, 41
1, 77125, Note_on_c, 0, 80, 70
1, 77133, Control_c, 0, 64, 119
1, 77148, Control_c, 0, 64, 99
1, 77163, Control_c, 0, 64, 80
1, 77178, Control_c, 0, 64, 59
1, 77179, Note_off_c, 0, 80, 63
1, 77192, Control_c, 0, 64, 0
1, 77229, Control_c, 0, 64, 67
1, 77244, Control_c, 0, 64, 81
1, 77259, Control_c, 0, 64, 96
1, 77273, Control_c, 0, 64, 106
1, 77283, Note_on_c, 0, 76, 41
1, 77285, Note_on_c, 0, 73, 39
1, 77289, Control_c, 0, 64, 111
1, 77304, Control_c, 0, 64, 119
1, 77315, Note_off_c, 0, 76, 56
1, 77316, Note_off_c, 0, 73, 54
1, 77319, Control_c, 0, 64, 127
1, 77376, Note_on_c, 0, 68, 50
1, 77382, Note_on_c, 0, 61, 49
1, 77408, Note_off_c, 0, 61, 61
1, 77408, Note_off_c, 0, 68, 52
1, 77483, Note_on_c, 0, 71, 50
1, 77516, Note_off_c, 0, 71, 63
1, 77661, Note_on_c, 0, 87, 73
1, 77691, Note_off_c, 0, 87, 60
1, 77773, Note_on_c, 0, 83, 36
1, 77806, Note_off_c, 0, 83, 50
1, 77823, Poly_aftertouch_c, 0, 80, 127
1, 77825, Note_on_c, 0, 80, 3
1, 77899, Note_off_c, 0, 80, 58
1, 77932, Note_on_c, 0, 76, 42
1, 77945, Note_on_c, 0, 75, 41
1, 77963, Note_off_c, 0, 76, 55
1, 77978, Note_off_c, 0, 75, 51
1, 78013, Note_on_c, 0, 85, 82
1, 78058, Note_off_c, 0, 85, 64
1, 78111, Note_on_c, 0, 83, 54
1, 78122, Note_on_c, 0, 80, 44
1, 78155, Note_off_c, 0, 83, 56
1, 78165, Note_off_c, 0, 80, 0
1, 78165, Note_on_c, 0, 80, 41
1, 78230, Note_off_c, 0, 80, 64
1, 78263, Note_on_c, 0, 76, 45
1, 78280, Note_on_c, 0, 73, 44
1, 78286, Note_off_c, 0, 76, 60
1, 78305, Note_off_c, 0, 73, 57
1, 78337, Note_on_c, 0, 82, 86
1, 78385, Note_off_c, 0, 82, 62
1, 78435, Note_on_c, 0, 80, 62
1, 78451, Note_on_c, 0, 76, 28
1, 78487, Note_off_c, 0, 76, 0
1, 78487, Note_on_c, 0, 76, 5
1, 78505, Note_off_c, 0, 80, 59
1, 78547, Note_off_c, 0, 76, 65
1, 78582, Note_on_c, 0, 73, 57
1, 78594, Note_on_c, 0, 70, 53
1, 78618, Note_off_c, 0, 70, 63
1, 78620, Note_off_c, 0, 73, 62
1, 78675, Control_c, 0, 64, 117
1, 78680, Note_on_c, 0, 80, 80
1, 78689, Control_c, 0, 64, 94
1, 78711, Control_c, 0, 64, 76
1, 78726, Control_c, 0, 64, 43
1, 78734, Note_off_c, 0, 80, 62
1, 78741, Control_c, 0, 64, 0
1, 78756, Control_c, 0, 64, 61
1, 78770, Control_c, 0, 64, 73
1, 78785, Control_c, 0, 64, 84
1, 78791, Note_on_c, 0, 76, 46
1, 78800, Control_c, 0, 64, 96
1, 78805, Note_on_c, 0, 73, 43
1, 78815, Control_c, 0, 64, 105
1, 78825, Note_off_c, 0, 76, 54
1, 78830, Control_c, 0, 64, 110
1, 78844, Note_off_c, 0, 73, 0
1, 78844, Note_on_c, 0, 73, 22
1, 78844, Control_c, 0, 64, 117
1, 78859, Control_c, 0, 64, 127
1, 78897, Note_off_c, 0, 73, 62
1, 78955, Note_on_c, 0, 71, 40
1, 78983, Note_off_c, 0, 71, 54
1, 79014, Note_on_c, 0, 68, 38
1, 79042, Note_on_c, 0, 61, 47
1, 79063, Note_off_c, 0, 68, 62
1, 79071, Note_off_c, 0, 61, 62
1, 79116, Note_on_c, 0, 71, 49
1, 79157, Note_off_c, 0, 71, 60
1, 79202, Note_on_c, 0, 73, 60
1, 79275, Note_on_c, 0, 76, 58
1, 79286, Note_off_c, 0, 73, 0
1, 79316, Note_on_c, 0, 73, 14
1, 79339, Note_off_c, 0, 76, 61
1, 79360, Note_off_c, 0, 73, 36
1, 79393, Note_on_c, 0, 78, 80
1, 79444, Note_off_c, 0, 78, 63
1, 79491, Note_on_c, 0, 76, 44
1, 79505, Note_on_c, 0, 73, 38
1, 79523, Note_off_c, 0, 76, 57
1, 79548, Note_off_c, 0, 73, 0
1, 79561, Note_on_c, 0, 73, 50
1, 79608, Note_off_c, 0, 73, 64
1, 79661, Note_on_c, 0, 71, 50
1, 79690, Note_off_c, 0, 71, 58
1, 79739, Note_on_c, 0, 66, 48
1, 79751, Note_on_c, 0, 61, 53
1, 79771, Note_off_c, 0, 66, 53
1, 79774, Note_off_c, 0, 61, 62
1, 79846, Note_on_c, 0, 71, 47
1, 79879, Note_on_c, 0, 66, 32
1, 79894, Note_off_c, 0, 71, 61
1, 79907, Note_off_c, 0, 66, 54
1, 79924, Note_on_c, 0, 73, 61
1, 79998, Note_on_c, 0, 76, 61
1, 80006, Note_off_c, 0, 73, 0
1, 80025, Note_on_c, 0, 73, 18
1, 80061, Note_off_c, 0, 73, 49
1, 80074, Note_off_c, 0, 76, 60
1, 80135, Note_on_c, 0, 80, 76
1, 80179, Note_off_c, 0, 80, 64
1, 80239, Note_on_c, 0, 76, 46
1, 80260, Note_on_c, 0, 73, 38
1, 80279, Note_off_c, 0, 76, 59
1, 80296, Note_off_c, 0, 73, 50
1, 80359, Note_on_c, 0, 68, 58
1, 80382, Note_off_c, 0, 68, 62
1, 80395, Note_on_c, 0, 61, 14
1, 80437, Note_on_c, 0, 71, 55
1, 80442, Note_off_c, 0, 61, 36
1, 80470, Note_off_c, 0, 71, 64
1, 80639, Note_on_c, 0, 87, 79
1, 80699, Note_off_c, 0, 87, 61
1, 80756, Note_on_c, 0, 83, 37
1, 80767, Note_on_c, 0, 80, 35
1, 80795, Note_off_c, 0, 80, 54
1, 80797, Note_off_c, 0, 83, 45
1, 80833, Note_on_c, 0, 80, 62
1, 80894, Note_off_c, 0, 80, 61
1, 80924, Note_on_c, 0, 76, 48
1, 80946, Note_on_c, 0, 75, 38
1, 80946, Note_off_c, 0, 76, 63
1, 80982, Note_off_c, 0, 75, 46
1, 81005, Note_on_c, 0, 85, 83
1, 81050, Note_off_c, 0, 85, 64
1, 81104, Note_on_c, 0, 83, 52
1, 81116, Note_on_c, 0, 80, 47
1, 81143, Note_off_c, 0, 83, 59
1, 81149, Note_off_c, 0, 80, 0
1, 81149, Note_on_c, 0, 80, 30
1, 81214, Note_off_c, 0, 80, 64
1, 81265, Note_on_c, 0, 73, 53
1, 81271, Note_on_c, 0, 76, 32
1, 81286, Note_off_c, 0, 73, 62
1, 81305, Note_off_c, 0, 76, 42
1, 81327, Note_on_c, 0, 82, 86
1, 81381, Note_off_c, 0, 82, 62
1, 81433, Note_on_c, 0, 76, 49
1, 81436, Note_on_c, 0, 80, 62
1, 81456, Note_off_c, 0, 76, 62
1, 81494, Note_on_c, 0, 76, 62
1, 81500, Note_off_c, 0, 80, 61
1, 81550, Note_off_c, 0, 76, 65
1, 81578, Note_on_c, 0, 73, 61
1, 81592, Note_on_c, 0, 70, 56
1, 81613, Note_off_c, 0, 70, 62
1, 81621, Note_off_c, 0, 73, 60
1, 81655, Control_c, 0, 64, 120
1, 81670, Control_c, 0, 64, 97
1, 81685, Control_c, 0, 64, 77
1, 81695, Note_on_c, 0, 80, 78
1, 81708, Control_c, 0, 64, 62
1, 81723, Control_c, 0, 64, 44
1, 81737, Control_c, 0, 64, 64
1, 81749, Note_off_c, 0, 80, 63
1, 81752, Control_c, 0, 64, 73
1, 81767, Control_c, 0, 64, 83
1, 81781, Control_c, 0, 64, 92
1, 81796, Control_c, 0, 64, 98
1, 81809, Note_on_c, 0, 76, 52
1, 81811, Control_c, 0, 64, 103
1, 81821, Note_on_c, 0, 73, 47
1, 81826, Control_c, 0, 64, 108
1, 81841, Control_c, 0, 64, 115
1, 81843, Note_off_c, 0, 76, 58
1, 81855, Control_c, 0, 64, 122
1, 81870, Control_c, 0, 64, 127
1, 81876, Note_off_c, 0, 73, 0
1, 81876, Note_on_c, 0, 73, 39
1, 81921, Note_off_c, 0, 73, 63
1, 81962, Note_on_c, 0, 71, 54
1, 81999, Note_off_c, 0, 71, 62
1, 82036, Poly_aftertouch_c, 0, 68, 127
1, 82049, Note_on_c, 0, 68, 9
1, 82069, Note_on_c, 0, 61, 54
1, 82102, Note_off_c, 0, 61, 63
1, 82103, Note_off_c, 0, 68, 62
1, 82164, Note_on_c, 0, 71, 58
1, 82202, Note_off_c, 0, 71, 61
1, 82204, Poly_aftertouch_c, 0, 68, 127
1, 82247, Poly_aftertouch_c, 0, 68, 0
1, 82249, Note_on_c, 0, 73, 62
1, 82282, Note_off_c, 0, 73, 63
1, 82332, Note_on_c, 0, 76, 61
1, 82367, Note_on_c, 0, 73, 42
1, 82392, Note_off_c, 0, 73, 56
1, 82397, Note_off_c, 0, 76, 59
1, 82466, Note_on_c, 0, 78, 82
1, 82516, Note_off_c, 0, 78, 63
1, 82564, Note_on_c, 0, 73, 39
1, 82564, Note_on_c, 0, 76, 43
1, 82600, Note_off_c, 0, 76, 58
1, 82608, Note_off_c, 0, 73, 62
1, 82655, Note_on_c, 0, 73, 62
1, 82692, Note_off_c, 0, 73, 64
1, 82762, Note_on_c, 0, 70, 58
1, 82791, Note_on_c, 0, 66, 33
1, 82800, Note_off_c, 0, 70, 62
1, 82823, Note_off_c, 0, 66, 48
1, 82872, Note_on_c, 0, 61, 50
1, 82885, Note_on_c, 0, 66, 33
1, 82907, Note_off_c, 0, 61, 56
1, 82918, Note_off_c, 0, 66, 53
1, 82974, Note_on_c, 0, 70, 59
1, 83012, Note_off_c, 0, 70, 63
1, 83089, Note_on_c, 0, 73, 64
1, 83110, Note_off_c, 0, 73, 62
1, 83204, Note_on_c, 0, 73, 58
1, 83208, Note_on_c, 0, 76, 55
1, 83263, Note_off_c, 0, 73, 62
1, 83268, Note_off_c, 0, 76, 60
1, 83382, Control_c, 0, 64, 110
1, 83393, Note_on_c, 0, 75, 73
1, 83397, Control_c, 0, 64, 92
1, 83412, Control_c, 0, 64, 70
1, 83426, Control_c, 0, 64, 0
1, 83471, Control_c, 0, 64, 54
1, 83486, Control_c, 0, 64, 69
1, 83491, Note_off_c, 0, 75, 63
1, 83501, Control_c, 0, 64, 76
1, 83515, Control_c, 0, 64, 86
1, 83530, Control_c, 0, 64, 92
1, 83543, Note_on_c, 0, 70, 46
1, 83545, Control_c, 0, 64, 98
1, 83560, Control_c, 0, 64, 104
1, 83566, Note_off_c, 0, 70, 63
1, 83575, Control_c, 0, 64, 110
1, 83587, Poly_aftertouch_c, 0, 66, 127
1, 83590, Control_c, 0, 64, 115
1, 83605, Control_c, 0, 64, 121
1, 83620, Control_c, 0, 64, 127
1, 83626, Poly_aftertouch_c, 0, 66, 0
1, 83760, Note_on_c, 0, 66, 38
1, 83796, Note_on_c, 0, 63, 30
1, 83812, Note_off_c, 0, 66, 64
1, 83831, Note_off_c, 0, 63, 44
1, 83867, Note_on_c, 0, 59, 49
1, 83905, Note_off_c, 0, 59, 57
1, 83974, Poly_aftertouch_c, 0, 63, 127
1, 83976, Note_on_c, 0, 66, 52
1, 83998, Note_off_c, 0, 66, 65
1, 84022, Poly_aftertouch_c, 0, 63, 0
1, 84083, Note_on_c, 0, 66, 46
1, 84106, Note_off_c, 0, 66, 58
1, 84156, Note_on_c, 0, 70, 57
1, 84189, Note_off_c, 0, 70, 65
1, 84228, Note_on_c, 0, 70, 56
1, 84246, Note_off_c, 0, 70, 66
1, 84318, Note_on_c, 0, 70, 63
1, 84349, Note_off_c, 0, 70, 64
1, 84350, Note_on_c, 0, 66, 35
1, 84369, Note_off_c, 0, 66, 0
1, 84401, Note_on_c, 0, 66, 41
1, 84428, Note_off_c, 0, 66, 67
1, 84517, Note_on_c, 0, 66, 54
1, 84532, Note_on_c, 0, 63, 26
1, 84537, Note_off_c, 0, 66, 63
1, 84565, Note_off_c, 0, 63, 0
1, 84577, Poly_aftertouch_c, 0, 63, 0
1, 84580, Note_on_c, 0, 59, 53
1, 84598, Note_on_c, 0, 63, 24
1, 84627, Note_off_c, 0, 59, 61
1, 84637, Note_off_c, 0, 63, 49
1, 84676, Note_on_c, 0, 66, 48
1, 84708, Note_off_c, 0, 66, 65
1, 84781, Note_on_c, 0, 66, 50
1, 84801, Note_off_c, 0, 66, 61
1, 84869, Note_on_c, 0, 70, 49
1, 84902, Note_off_c, 0, 70, 0
1, 84920, Note_on_c, 0, 70, 57
1, 84956, Note_off_c, 0, 70, 64
1, 85074, Note_on_c, 0, 66, 52
1, 85103, Note_off_c, 0, 66, 67
1, 85120, Poly_aftertouch_c, 0, 70, 0
1, 85182, Note_on_c, 0, 66, 69
1, 85206, Note_off_c, 0, 66, 69
1, 85296, Control_c, 0, 64, 113
1, 85311, Control_c, 0, 64, 95
1, 85326, Control_c, 0, 64, 77
1, 85341, Control_c, 0, 64, 62
1, 85343, Note_on_c, 0, 56, 44
1, 85343, Note_on_c, 0, 77, 68
1, 85356, Control_c, 0, 64, 23
1, 85361, Note_on_c, 0, 63, 33
1, 85370, Control_c, 0, 64, 60
1, 85385, Control_c, 0, 64, 70
1, 85386, Note_off_c, 0, 56, 60
1, 85400, Control_c, 0, 64, 79
1, 85407, Note_off_c, 0, 63, 45
1, 85413, Note_off_c, 0, 77, 59
1, 85415, Control_c, 0, 64, 88
1, 85429, Control_c, 0, 64, 94
1, 85452, Control_c, 0, 64, 98
1, 85463, Note_on_c, 0, 66, 50
1, 85467, Control_c, 0, 64, 103
1, 85482, Control_c, 0, 64, 108
1, 85486, Note_off_c, 0, 66, 61
1, 85496, Control_c, 0, 64, 113
1, 85511, Control_c, 0, 64, 118
1, 85526, Control_c, 0, 64, 123
1, 85541, Control_c, 0, 64, 126
1, 85556, Control_c, 0, 64, 127
1, 85569, Note_on_c, 0, 66, 23
1, 85626, Note_on_c, 0, 70, 57
1, 85659, Note_off_c, 0, 70, 65
1, 85671, Note_off_c, 0, 66, 44
1, 85725, Note_on_c, 0, 73, 79
1, 85776, Note_off_c, 0, 73, 59
1, 85843, Note_on_c, 0, 70, 53
1, 85879, Note_off_c, 0, 70, 58
1, 85888, Note_on_c, 0, 66, 12
1, 86055, Note_on_c, 0, 63, 10
1, 86100, Note_off_c, 0, 63, 39
1, 86104, Note_off_c, 0, 66, 44
1, 86149, Control_c, 0, 64, 123
1, 86164, Control_c, 0, 64, 109
1, 86178, Control_c, 0, 64, 95
1, 86201, Control_c, 0, 64, 77
1, 86211, Note_on_c, 0, 72, 43
1, 86216, Control_c, 0, 64, 61
1, 86217, Note_on_c, 0, 56, 33
1, 86221, Note_on_c, 0, 63, 28
1, 86231, Control_c, 0, 64, 0
1, 86258, Note_off_c, 0, 63, 50
1, 86260, Control_c, 0, 64, 41
1, 86263, Note_off_c, 0, 56, 46
1, 86275, Control_c, 0, 64, 66
1, 86290, Control_c, 0, 64, 74
1, 86305, Control_c, 0, 64, 80
1, 86320, Control_c, 0, 64, 84
1, 86334, Control_c, 0, 64, 87
1, 86338, Note_on_c, 0, 66, 48
1, 86349, Control_c, 0, 64, 90
1, 86358, Note_off_c, 0, 72, 33
1, 86364, Control_c, 0, 64, 94
1, 86371, Note_off_c, 0, 66, 55
1, 86378, Control_c, 0, 64, 98
1, 86393, Control_c, 0, 64, 101
1, 86408, Control_c, 0, 64, 103
1, 86423, Control_c, 0, 64, 105
1, 86438, Control_c, 0, 64, 107
1, 86452, Control_c, 0, 64, 108
1, 86457, Note_on_c, 0, 66, 54
1, 86467, Control_c, 0, 64, 110
1, 86482, Control_c, 0, 64, 111
1, 86496, Note_off_c, 0, 66, 64
1, 86497, Control_c, 0, 64, 111
1, 86512, Control_c, 0, 64, 112
1, 86541, Control_c, 0, 64, 112
1, 86571, Control_c, 0, 64, 113
1, 86585, Note_on_c, 0, 70, 44
1, 86600, Note_on_c, 0, 66, 31
1, 86621, Note_off_c, 0, 70, 65
1, 86628, Note_off_c, 0, 66, 50
1, 86759, Note_on_c, 0, 73, 50
1, 86807, Control_c, 0, 64, 111
1, 86822, Control_c, 0, 64, 103
1, 86837, Control_c, 0, 64, 91
1, 86851, Control_c, 0, 64, 75
1, 86867, Control_c, 0, 64, 64
1, 86882, Control_c, 0, 64, 54
1, 86890, Note_off_c, 0, 73, 52
1, 86897, Control_c, 0, 64, 65
1, 86905, Note_on_c, 0, 68, 45
1, 86912, Control_c, 0, 64, 73
1, 86924, Note_on_c, 0, 64, 28
1, 86927, Control_c, 0, 64, 81
1, 86949, Control_c, 0, 64, 89
1, 86964, Control_c, 0, 64, 92
1, 86968, Note_off_c, 0, 68, 48
1, 86970, Note_off_c, 0, 64, 50
1, 86979, Control_c, 0, 64, 95
1, 86994, Control_c, 0, 64, 99
1, 87008, Control_c, 0, 64, 103
1, 87021, Note_on_c, 0, 68, 45
1, 87023, Control_c, 0, 64, 107
1, 87038, Control_c, 0, 64, 109
1, 87053, Control_c, 0, 64, 112
1, 87063, Note_off_c, 0, 68, 64
1, 87068, Control_c, 0, 64, 114
1, 87082, Control_c, 0, 64, 116
1, 87097, Control_c, 0, 64, 119
1, 87112, Control_c, 0, 64, 121
1, 87127, Control_c, 0, 64, 123
1, 87141, Note_on_c, 0, 64, 45
1, 87142, Control_c, 0, 64, 125
1, 87143, Note_on_c, 0, 61, 49
1, 87156, Control_c, 0, 64, 127
1, 87166, Note_off_c, 0, 61, 59
1, 87166, Note_off_c, 0, 64, 62
1, 87171, Control_c, 0, 64, 127
1, 87260, Note_on_c, 0, 64, 50
1, 87282, Note_off_c, 0, 64, 58
1, 87426, Poly_aftertouch_c, 0, 56, 0
1, 87443, Note_on_c, 0, 56, 44
1, 87479, Note_off_c, 0, 56, 63
1, 87555, Note_on_c, 0, 56, 43
1, 87557, Control_c, 0, 64, 127
1, 87572, Control_c, 0, 64, 123
1, 87582, Note_off_c, 0, 56, 52
1, 87587, Control_c, 0, 64, 113
1, 87587, Note_on_c, 0, 52, 9
1, 87602, Control_c, 0, 64, 102
1, 87617, Control_c, 0, 64, 87
1, 87621, Note_off_c, 0, 52, 0
1, 87632, Control_c, 0, 64, 74
1, 87647, Control_c, 0, 64, 56
1, 87654, Note_on_c, 0, 61, 66
1, 87657, Note_on_c, 0, 49, 62
1, 87658, Note_on_c, 0, 52, 5
1, 87662, Control_c, 0, 64, 0
1, 87679, Note_off_c, 0, 52, 55
1, 87689, Note_off_c, 0, 49, 64
1, 87690, Note_off_c, 0, 61, 60
1, 87768, Note_on_c, 0, 52, 44
1, 87794, Note_off_c, 0, 52, 57
1, 87858, Note_on_c, 0, 52, 44
1, 87909, Note_off_c, 0, 52, 0
1, 87924, Note_on_c, 0, 52, 43
1, 87966, Note_off_c, 0, 52, 59
1, 88012, Note_on_c, 0, 49, 56
1, 88012, Note_on_c, 0, 56, 54
1, 88020, Note_on_c, 0, 61, 57
1, 88038, Note_off_c, 0, 56, 63
1, 88040, Note_off_c, 0, 49, 64
1, 88062, Note_off_c, 0, 61, 60
1, 88095, Note_on_c, 0, 52, 44
1, 88130, Note_off_c, 0, 52, 67
1, 88191, Note_on_c, 0, 41, 58
1, 88198, Note_on_c, 0, 51, 59
1, 88198, Note_on_c, 0, 62, 62
1, 88205, Note_on_c, 0, 57, 46
1, 88226, Note_off_c, 0, 41, 67
1, 88228, Note_off_c, 0, 51, 64
1, 88231, Note_off_c, 0, 62, 64
1, 88233, Note_off_c, 0, 57, 50
1, 88274, Note_on_c, 0, 53, 58
1, 88297, Note_off_c, 0, 53, 64
1, 88362, Note_on_c, 0, 56, 64
1, 88365, Note_on_c, 0, 61, 67
1, 88371, Note_on_c, 0, 49, 61
1, 88371, Note_on_c, 0, 52, 67
1, 88385, Note_off_c, 0, 56, 65
1, 88394, Note_off_c, 0, 49, 61
1, 88398, Note_off_c, 0, 52, 67
1, 88408, Note_off_c, 0, 61, 60
1, 88489, Note_on_c, 0, 52, 37
1, 88490, Note_off_c, 0, 52, 127
1, 88541, Note_on_c, 0, 52, 30
1, 88564, Note_off_c, 0, 52, 53
1, 88649, Note_on_c, 0, 52, 53
1, 88675, Note_off_c, 0, 52, 55
1, 88707, Note_on_c, 0, 56, 68
1, 88712, Note_on_c, 0, 61, 71
1, 88714, Note_on_c, 0, 49, 66
1, 88732, Note_off_c, 0, 56, 65
1, 88741, Note_on_c, 0, 52, 11
1, 88742, Note_off_c, 0, 49, 65
1, 88753, Note_off_c, 0, 61, 57
1, 88795, Note_off_c, 0, 52, 0
1, 88795, Note_on_c, 0, 52, 33
1, 88829, Note_off_c, 0, 52, 65
1, 88885, Note_on_c, 0, 41, 65
1, 88891, Note_on_c, 0, 57, 58
1, 88893, Note_on_c, 0, 62, 67
1, 88896, Note_on_c, 0, 51, 60
1, 88914, Note_off_c, 0, 57, 60
1, 88920, Note_off_c, 0, 41, 67
1, 88926, Note_off_c, 0, 51, 64
1, 88930, Note_off_c, 0, 62, 62
1, 88961, Note_on_c, 0, 53, 67
1, 88990, Note_off_c, 0, 53, 67
1, 89042, Note_on_c, 0, 56, 67
1, 89046, Note_on_c, 0, 61, 68
1, 89051, Note_on_c, 0, 52, 71
1, 89054, Note_on_c, 0, 49, 63
1, 89070, Note_off_c, 0, 56, 65
1, 89077, Note_off_c, 0, 52, 68
1, 89078, Note_off_c, 0, 49, 63
1, 89109, Note_off_c, 0, 61, 55
1, 89151, Note_on_c, 0, 52, 46
1, 89152, Note_off_c, 0, 52, 127
1, 89226, Note_on_c, 0, 52, 56
1, 89250, Note_off_c, 0, 52, 63
1, 89322, Note_on_c, 0, 52, 59
1, 89346, Note_off_c, 0, 52, 60
1, 89384, Note_on_c, 0, 56, 63
1, 89388, Note_on_c, 0, 49, 60
1, 89388, Note_on_c, 0, 61, 68
1, 89411, Note_off_c, 0, 49, 58
1, 89415, Note_off_c, 0, 56, 63
1, 89446, Note_off_c, 0, 61, 58
1, 89461, Note_on_c, 0, 52, 40
1, 89495, Note_off_c, 0, 52, 66
1, 89552, Note_on_c, 0, 41, 62
1, 89557, Note_on_c, 0, 57, 56
1, 89557, Note_on_c, 0, 62, 63
1, 89561, Note_on_c, 0, 51, 59
1, 89582, Note_off_c, 0, 57, 63
1, 89589, Note_off_c, 0, 41, 66
1, 89591, Note_off_c, 0, 51, 64
1, 89596, Note_off_c, 0, 62, 64
1, 89629, Note_on_c, 0, 53, 71
1, 89667, Note_off_c, 0, 53, 63
1, 89711, Note_on_c, 0, 56, 68
1, 89712, Note_on_c, 0, 49, 72
1, 89719, Note_on_c, 0, 52, 68
1, 89725, Note_on_c, 0, 61, 66
1, 89741, Note_off_c, 0, 49, 64
1, 89746, Note_off_c, 0, 52, 68
1, 89769, Note_off_c, 0, 61, 60
1, 89776, Note_off_c, 0, 56, 61
1, 89804, Note_on_c, 0, 52, 48
1, 89832, Note_off_c, 0, 52, 35
1, 89874, Note_on_c, 0, 62, 73
1, 89889, Note_on_c, 0, 41, 51
1, 89889, Note_on_c, 0, 51, 65
1, 89890, Note_on_c, 0, 57, 48
1, 89915, Note_off_c, 0, 57, 55
1, 89916, Note_off_c, 0, 51, 64
1, 89918, Note_off_c, 0, 41, 61
1, 89931, Note_off_c, 0, 62, 61
1, 89964, Note_on_c, 0, 53, 66
1, 89992, Note_off_c, 0, 53, 67
1, 90044, Note_on_c, 0, 54, 76
1, 90044, Note_on_c, 0, 47, 72
1, 90049, Note_on_c, 0, 59, 60
1, 90050, Note_on_c, 0, 50, 58
1, 90071, Note_off_c, 0, 47, 67
1, 90075, Note_off_c, 0, 50, 63
1, 90090, Note_off_c, 0, 59, 60
1, 90091, Note_off_c, 0, 54, 56
1, 90212, Note_on_c, 0, 60, 67
1, 90217, Note_on_c, 0, 39, 55
1, 90220, Note_on_c, 0, 49, 58
1, 90225, Note_on_c, 0, 55, 53
1, 90243, Note_off_c, 0, 49, 60
1, 90251, Note_off_c, 0, 39, 63
1, 90252, Note_off_c, 0, 55, 57
1, 90253, Note_off_c, 0, 60, 60
1, 90294, Note_on_c, 0, 51, 62
1, 90323, Note_off_c, 0, 51, 65
1, 90372, Note_on_c, 0, 48, 63
1, 90375, Note_on_c, 0, 57, 70
1, 90379, Note_on_c, 0, 52, 64
1, 90381, Note_on_c, 0, 45, 56
1, 90403, Note_off_c, 0, 48, 67
1, 90403, Note_off_c, 0, 52, 67
1, 90407, Note_off_c, 0, 57, 62
1, 90411, Note_off_c, 0, 45, 64
1, 90476, Note_on_c, 0, 48, 58
1, 90500, Note_off_c, 0, 48, 59
1, 90554, Note_on_c, 0, 48, 37
1, 90609, Note_off_c, 0, 48, 0
1, 90622, Note_on_c, 0, 48, 45
1, 90655, Note_off_c, 0, 48, 64
1, 90715, Note_on_c, 0, 45, 55
1, 90716, Note_on_c, 0, 57, 64
1, 90720, Note_on_c, 0, 52, 60
1, 90740, Note_off_c, 0, 45, 60
1, 90741, Note_off_c, 0, 52, 65
1, 90746, Note_off_c, 0, 57, 64
1, 90796, Note_on_c, 0, 48, 46
1, 90826, Note_off_c, 0, 48, 66
1, 90882, Note_on_c, 0, 37, 50
1, 90884, Note_on_c, 0, 58, 64
1, 90887, Note_on_c, 0, 47, 48
1, 90892, Note_on_c, 0, 53, 50
1, 90912, Note_off_c, 0, 37, 60
1, 90915, Note_off_c, 0, 47, 54
1, 90937, Note_off_c, 0, 53, 62
1, 90946, Note_off_c, 0, 58, 62
1, 90957, Note_on_c, 0, 49, 64
1, 90984, Note_off_c, 0, 49, 65
1, 91041, Note_on_c, 0, 48, 72
1, 91048, Note_on_c, 0, 57, 74
1, 91058, Note_on_c, 0, 52, 59
1, 91059, Note_on_c, 0, 45, 48
1, 91066, Note_off_c, 0, 48, 67
1, 91081, Note_off_c, 0, 52, 65
1, 91084, Note_off_c, 0, 57, 60
1, 91086, Note_off_c, 0, 45, 58
1, 91120, Note_on_c, 0, 48, 76
1, 91146, Note_off_c, 0, 48, 67
1, 91209, Note_on_c, 0, 48, 69
1, 91238, Note_off_c, 0, 48, 67
1, 91296, Note_on_c, 0, 48, 68
1, 91324, Note_off_c, 0, 48, 67
1, 91383, Note_on_c, 0, 57, 63
1, 91384, Note_on_c, 0, 52, 53
1, 91387, Note_on_c, 0, 45, 59
1, 91395, Note_on_c, 0, 48, 56
1, 91410, Note_off_c, 0, 52, 65
1, 91414, Note_off_c, 0, 57, 63
1, 91417, Note_off_c, 0, 45, 65
1, 91420, Note_off_c, 0, 48, 59
1, 91480, Note_on_c, 0, 48, 47
1, 91507, Note_off_c, 0, 48, 56
1, 91558, Note_on_c, 0, 58, 60
1, 91559, Note_on_c, 0, 53, 49
1, 91563, Note_on_c, 0, 37, 54
1, 91565, Note_on_c, 0, 47, 58
1, 91594, Note_off_c, 0, 47, 65
1, 91596, Note_off_c, 0, 37, 65
1, 91612, Note_off_c, 0, 53, 63
1, 91628, Note_off_c, 0, 58, 63
1, 91631, Note_on_c, 0, 49, 63
1, 91660, Note_off_c, 0, 49, 64
1, 91722, Note_on_c, 0, 48, 69
1, 91726, Note_on_c, 0, 57, 68
1, 91731, Note_on_c, 0, 52, 62
1, 91731, Note_on_c, 0, 45, 53
1, 91750, Note_off_c, 0, 48, 66
1, 91754, Note_off_c, 0, 52, 66
1, 91758, Note_off_c, 0, 57, 64
1, 91762, Note_off_c, 0, 45, 65
1, 91808, Note_on_c, 0, 48, 65
1, 91838, Note_off_c, 0, 48, 67
1, 91904, Note_on_c, 0, 48, 52
1, 91932, Note_off_c, 0, 48, 58
1, 91981, Note_on_c, 0, 48, 45
1, 92008, Note_off_c, 0, 48, 58
1, 92063, Note_on_c, 0, 52, 66
1, 92065, Note_on_c, 0, 57, 63
1, 92075, Note_on_c, 0, 45, 54
1, 92092, Note_off_c, 0, 52, 68
1, 92097, Note_off_c, 0, 57, 64
1, 92101, Note_off_c, 0, 45, 61
1, 92106, Note_on_c, 0, 48, 10
1, 92107, Note_off_c, 0, 48, 127
1, 92162, Poly_aftertouch_c, 0, 48, 127
1, 92198, Poly_aftertouch_c, 0, 48, 0
1, 92241, Note_on_c, 0, 58, 63
1, 92244, Note_on_c, 0, 47, 59
1, 92246, Note_on_c, 0, 37, 54
1, 92255, Note_on_c, 0, 53, 49
1, 92272, Note_off_c, 0, 47, 65
1, 92278, Note_off_c, 0, 37, 65
1, 92297, Note_off_c, 0, 53, 66
1, 92306, Note_off_c, 0, 58, 62
1, 92316, Note_on_c, 0, 49, 65
1, 92345, Note_off_c, 0, 49, 64
1, 92408, Note_on_c, 0, 57, 64
1, 92410, Note_on_c, 0, 48, 69
1, 92416, Note_on_c, 0, 52, 59
1, 92437, Note_off_c, 0, 48, 66
1, 92439, Note_off_c, 0, 52, 64
1, 92440, Note_off_c, 0, 57, 64
1, 92500, Note_on_c, 0, 48, 52
1, 92528, Note_off_c, 0, 48, 56
1, 92574, Note_on_c, 0, 37, 60
1, 92575, Note_on_c, 0, 47, 58
1, 92576, Note_on_c, 0, 58, 60
1, 92599, Note_on_c, 0, 53, 36
1, 92601, Note_off_c, 0, 47, 59
1, 92610, Note_off_c, 0, 37, 59
1, 92617, Note_off_c, 0, 58, 52
1, 92631, Note_off_c, 0, 53, 45
1, 92657, Note_on_c, 0, 49, 62
1, 92682, Note_off_c, 0, 49, 37
1, 92740, Note_on_c, 0, 46, 61
1, 92744, Note_on_c, 0, 55, 62
1, 92752, Note_on_c, 0, 50, 58
1, 92755, Note_on_c, 0, 43, 52
1, 92770, Note_off_c, 0, 46, 64
1, 92774, Note_off_c, 0, 55, 65
1, 92783, Note_off_c, 0, 50, 65
1, 92785, Note_off_c, 0, 43, 55
1, 92843, Note_on_c, 0, 46, 69
1, 92881, Note_off_c, 0, 46, 59
1, 92918, Note_on_c, 0, 56, 67
1, 92923, Note_on_c, 0, 51, 51
1, 92936, Note_on_c, 0, 45, 46
1, 92937, Note_on_c, 0, 35, 50
1, 92964, Note_off_c, 0, 51, 63
1, 92967, Note_off_c, 0, 35, 58
1, 92967, Note_off_c, 0, 45, 61
1, 93003, Note_off_c, 0, 56, 57
1, 93010, Note_on_c, 0, 47, 63
1, 93045, Note_off_c, 0, 47, 65
1, 93102, Control_c, 0, 64, 64
1, 93117, Control_c, 0, 64, 70
1, 93118, Note_on_c, 0, 41, 63
1, 93132, Control_c, 0, 64, 75
1, 93133, Note_on_c, 0, 53, 56
1, 93147, Control_c, 0, 64, 79
1, 93162, Control_c, 0, 64, 83
1, 93176, Note_off_c, 0, 53, 62
1, 93177, Control_c, 0, 64, 88
1, 93190, Note_off_c, 0, 41, 54
1, 93192, Control_c, 0, 64, 92
1, 93206, Control_c, 0, 64, 97
1, 93221, Control_c, 0, 64, 102
1, 93224, Note_on_c, 0, 44, 65
1, 93236, Control_c, 0, 64, 107
1, 93251, Control_c, 0, 64, 112
1, 93259, Note_off_c, 0, 44, 64
1, 93266, Control_c, 0, 64, 117
1, 93280, Note_on_c, 0, 48, 64
1, 93281, Control_c, 0, 64, 124
1, 93296, Control_c, 0, 64, 127
1, 93306, Note_off_c, 0, 48, 67
1, 93364, Note_on_c, 0, 51, 63
1, 93392, Note_off_c, 0, 51, 65
1, 93448, Note_on_c, 0, 53, 80
1, 93480, Note_off_c, 0, 53, 67
1, 93570, Note_on_c, 0, 57, 21
1, 93595, Poly_aftertouch_c, 0, 53, 127
1, 93614, Note_off_c, 0, 57, 43
1, 93615, Poly_aftertouch_c, 0, 53, 0
1, 93627, Note_on_c, 0, 60, 76
1, 93651, Note_off_c, 0, 60, 67
1, 93734, Note_on_c, 0, 60, 57
1, 93752, Note_off_c, 0, 60, 61
1, 93811, Note_on_c, 0, 60, 81
1, 93834, Note_off_c, 0, 60, 68
1, 93882, Note_on_c, 0, 63, 75
1, 93904, Note_on_c, 0, 60, 40
1, 93905, Note_off_c, 0, 63, 68
1, 93921, Note_off_c, 0, 60, 66
1, 93969, Note_on_c, 0, 65, 85
1, 94008, Note_off_c, 0, 65, 67
1, 94049, Note_on_c, 0, 68, 82
1, 94052, Note_on_c, 0, 65, 54
1, 94068, Note_off_c, 0, 65, 68
1, 94071, Note_off_c, 0, 68, 70
1, 94145, Note_on_c, 0, 72, 89
1, 94181, Note_off_c, 0, 72, 67
1, 94242, Note_on_c, 0, 75, 81
1, 94251, Note_on_c, 0, 72, 52
1, 94263, Note_off_c, 0, 75, 71
1, 94274, Note_off_c, 0, 72, 57
1, 94337, Note_on_c, 0, 77, 95
1, 94369, Note_off_c, 0, 77, 68
1, 94438, Note_on_c, 0, 77, 71
1, 94446, Note_on_c, 0, 80, 76
1, 94456, Note_off_c, 0, 77, 66
1, 94463, Note_off_c, 0, 80, 63
1, 94591, Note_on_c, 0, 87, 87
1, 94600, Control_c, 0, 64, 100
1, 94615, Control_c, 0, 64, 75
1, 94616, Note_on_c, 0, 84, 57
1, 94616, Note_on_c, 0, 83, 61
1, 94630, Control_c, 0, 64, 0
1, 94674, Control_c, 0, 64, 63
1, 94689, Note_off_c, 0, 84, 56
1, 94689, Control_c, 0, 64, 77
1, 94704, Control_c, 0, 64, 93
1, 94711, Note_on_c, 0, 75, 68
1, 94714, Note_off_c, 0, 87, 63
1, 94718, Control_c, 0, 64, 103
1, 94724, Note_off_c, 0, 83, 55
1, 94733, Control_c, 0, 64, 107
1, 94739, Note_off_c, 0, 75, 63
1, 94748, Control_c, 0, 64, 111
1, 94763, Control_c, 0, 64, 118
1, 94778, Control_c, 0, 64, 127
1, 94790, Note_on_c, 0, 75, 75
1, 94796, Note_on_c, 0, 68, 68
1, 94810, Note_on_c, 0, 71, 52
1, 94832, Note_off_c, 0, 71, 62
1, 94836, Note_off_c, 0, 75, 65
1, 94863, Note_on_c, 0, 63, 71
1, 94885, Note_off_c, 0, 68, 63
1, 94903, Note_off_c, 0, 63, 63
1, 94950, Note_on_c, 0, 71, 54
1, 94956, Note_on_c, 0, 68, 69
1, 94959, Note_on_c, 0, 75, 73
1, 95028, Note_on_c, 0, 63, 83
1, 95039, Note_off_c, 0, 71, 57
1, 95046, Note_off_c, 0, 68, 63
1, 95050, Note_off_c, 0, 75, 64
1, 95075, Note_off_c, 0, 63, 62
1, 95110, Note_on_c, 0, 63, 51
1, 95148, Note_off_c, 0, 63, 61
1, 95157, Note_on_c, 0, 56, 71
1, 95195, Note_on_c, 0, 51, 73
1, 95230, Poly_aftertouch_c, 0, 59, 0
1, 95233, Note_off_c, 0, 56, 63
1, 95247, Note_off_c, 0, 51, 63
1, 95260, Control_c, 0, 64, 119
1, 95275, Control_c, 0, 64, 94
1, 95290, Control_c, 0, 64, 69
1, 95305, Control_c, 0, 64, 0
1, 95312, Note_on_c, 0, 53, 86
1, 95334, Control_c, 0, 64, 42
1, 95349, Control_c, 0, 64, 72
1, 95364, Control_c, 0, 64, 86
1, 95379, Control_c, 0, 64, 101
1, 95388, Note_off_c, 0, 53, 55
1, 95394, Control_c, 0, 64, 106
1, 95400, Note_on_c, 0, 59, 56
1, 95403, Note_on_c, 0, 63, 72
1, 95408, Control_c, 0, 64, 109
1, 95423, Control_c, 0, 64, 114
1, 95438, Control_c, 0, 64, 121
1, 95442, Note_off_c, 0, 59, 60
1, 95453, Control_c, 0, 64, 127
1, 95458, Note_off_c, 0, 63, 62
1, 95488, Note_on_c, 0, 59, 72
1, 95491, Note_on_c, 0, 63, 61
1, 95580, Note_on_c, 0, 68, 86
1, 95597, Note_off_c, 0, 59, 61
1, 95622, Note_off_c, 0, 63, 63
1, 95623, Note_off_c, 0, 68, 62
1, 95658, Note_on_c, 0, 65, 50
1, 95681, Note_off_c, 0, 65, 63
1, 95692, Note_on_c, 0, 70, 60
1, 95744, Note_on_c, 0, 74, 65
1, 95751, Note_off_c, 0, 70, 64
1, 95767, Note_off_c, 0, 74, 71
1, 95804, Note_on_c, 0, 70, 67
1, 95820, Note_on_c, 0, 71, 26
1, 95831, Note_off_c, 0, 70, 50
1, 95841, Note_on_c, 0, 75, 34
1, 95891, Note_on_c, 0, 80, 86
1, 95935, Note_off_c, 0, 80, 62
1, 95952, Note_off_c, 0, 71, 56
1, 95969, Note_off_c, 0, 75, 43
1, 96009, Control_c, 0, 64, 110
1, 96015, Note_on_c, 0, 78, 85
1, 96017, Note_on_c, 0, 85, 86
1, 96024, Control_c, 0, 64, 85
1, 96038, Control_c, 0, 64, 58
1, 96053, Control_c, 0, 64, 0
1, 96060, Note_on_c, 0, 81, 38
1, 96083, Control_c, 0, 64, 59
1, 96098, Control_c, 0, 64, 74
1, 96113, Control_c, 0, 64, 87
1, 96122, Note_off_c, 0, 85, 55
1, 96128, Control_c, 0, 64, 98
1, 96135, Note_on_c, 0, 73, 78
1, 96135, Note_off_c, 0, 78, 32
1, 96143, Control_c, 0, 64, 105
1, 96157, Control_c, 0, 64, 109
1, 96158, Note_off_c, 0, 81, 39
1, 96163, Note_off_c, 0, 73, 65
1, 96172, Control_c, 0, 64, 113
1, 96187, Control_c, 0, 64, 120
1, 96202, Control_c, 0, 64, 127
1, 96214, Note_on_c, 0, 68, 64
1, 96220, Note_on_c, 0, 73, 62
1, 96249, Note_off_c, 0, 73, 64
1, 96253, Note_on_c, 0, 65, 29
1, 96268, Note_on_c, 0, 61, 74
1, 96276, Note_off_c, 0, 68, 46
1, 96288, Note_off_c, 0, 65, 54
1, 96305, Note_off_c, 0, 61, 63
1, 96340, Note_on_c, 0, 73, 82
1, 96364, Note_on_c, 0, 68, 56
1, 96373, Note_on_c, 0, 65, 48
1, 96399, Note_off_c, 0, 65, 57
1, 96403, Note_off_c, 0, 68, 0
1, 96417, Note_on_c, 0, 61, 82
1, 96438, Note_off_c, 0, 61, 67
1, 96447, Poly_aftertouch_c, 0, 68, 0
1, 96453, Note_off_c, 0, 73, 56
1, 96497, Note_on_c, 0, 61, 66
1, 96498, Note_on_c, 0, 56, 63
1, 96564, Note_on_c, 0, 53, 72
1, 96570, Note_off_c, 0, 61, 60
1, 96574, Note_off_c, 0, 56, 62
1, 96590, Note_off_c, 0, 53, 69
1, 96617, Control_c, 0, 64, 116
1, 96632, Control_c, 0, 64, 94
1, 96647, Control_c, 0, 64, 73
1, 96654, Note_on_c, 0, 80, 75
1, 96661, Control_c, 0, 64, 0
1, 96673, Note_on_c, 0, 77, 67
1, 96714, Control_c, 0, 64, 72
1, 96729, Control_c, 0, 64, 86
1, 96736, Note_on_c, 0, 73, 57
1, 96743, Control_c, 0, 64, 98
1, 96747, Note_off_c, 0, 77, 59
1, 96756, Note_off_c, 0, 73, 62
1, 96758, Control_c, 0, 64, 104
1, 96769, Note_off_c, 0, 80, 63
1, 96773, Control_c, 0, 64, 108
1, 96787, Control_c, 0, 64, 115
1, 96802, Control_c, 0, 64, 127
1, 96824, Note_on_c, 0, 73, 77
1, 96834, Note_on_c, 0, 77, 66
1, 96894, Note_off_c, 0, 77, 56
1, 96897, Note_on_c, 0, 68, 71
1, 96903, Note_off_c, 0, 73, 63
1, 96912, Poly_aftertouch_c, 0, 70, 127
1, 96929, Note_off_c, 0, 68, 65
1, 96936, Control_c, 0, 64, 106
1, 96947, Poly_aftertouch_c, 0, 70, 0
1, 96950, Control_c, 0, 64, 85
1, 96962, Note_on_c, 0, 87, 85
1, 96964, Note_on_c, 0, 80, 78
1, 96965, Control_c, 0, 64, 70
1, 96967, Note_on_c, 0, 83, 75
1, 96980, Control_c, 0, 64, 65
1, 96995, Control_c, 0, 64, 72
1, 97010, Control_c, 0, 64, 87
1, 97025, Control_c, 0, 64, 103
1, 97040, Control_c, 0, 64, 114
1, 97043, Note_off_c, 0, 87, 63
1, 97046, Note_off_c, 0, 83, 58
1, 97049, Note_on_c, 0, 75, 67
1, 97052, Note_off_c, 0, 80, 63
1, 97054, Control_c, 0, 64, 117
1, 97067, Note_off_c, 0, 75, 66
1, 97069, Control_c, 0, 64, 124
1, 97084, Control_c, 0, 64, 127
1, 97132, Note_on_c, 0, 68, 73
1, 97132, Note_on_c, 0, 75, 75
1, 97141, Note_on_c, 0, 71, 58
1, 97159, Note_off_c, 0, 75, 60
1, 97174, Note_off_c, 0, 71, 63
1, 97199, Note_on_c, 0, 63, 68
1, 97220, Note_off_c, 0, 68, 63
1, 97231, Note_off_c, 0, 63, 66
1, 97247, Control_c, 0, 64, 119
1, 97263, Control_c, 0, 64, 90
1, 97269, Note_on_c, 0, 80, 82
1, 97272, Note_on_c, 0, 75, 70
1, 97272, Note_on_c, 0, 71, 72
1, 97277, Control_c, 0, 64, 67
1, 97292, Control_c, 0, 64, 0
1, 97322, Control_c, 0, 64, 62
1, 97331, Note_off_c, 0, 71, 58
1, 97336, Control_c, 0, 64, 78
1, 97347, Note_on_c, 0, 68, 76
1, 97351, Control_c, 0, 64, 91
1, 97365, Note_off_c, 0, 75, 63
1, 97366, Control_c, 0, 64, 103
1, 97372, Note_off_c, 0, 68, 70
1, 97375, Note_off_c, 0, 80, 61
1, 97381, Control_c, 0, 64, 107
1, 97396, Control_c, 0, 64, 111
1, 97410, Control_c, 0, 64, 119
1, 97419, Note_on_c, 0, 59, 57
1, 97433, Control_c, 0, 64, 127
1, 97443, Note_on_c, 0, 68, 72
1, 97447, Note_on_c, 0, 63, 70
1, 97519, Note_on_c, 0, 56, 69
1, 97523, Note_off_c, 0, 68, 61
1, 97540, Note_off_c, 0, 63, 62
1, 97541, Note_off_c, 0, 59, 60
1, 97559, Note_off_c, 0, 56, 61
1, 97566, Control_c, 0, 64, 97
1, 97567, Note_on_c, 0, 82, 73
1, 97577, Note_on_c, 0, 75, 75
1, 97580, Note_on_c, 0, 78, 82
1, 97581, Control_c, 0, 64, 70
1, 97596, Control_c, 0, 64, 0
1, 97640, Control_c, 0, 64, 71
1, 97648, Note_on_c, 0, 70, 76
1, 97655, Control_c, 0, 64, 84
1, 97665, Note_off_c, 0, 75, 63
1, 97670, Control_c, 0, 64, 98
1, 97672, Note_off_c, 0, 70, 70
1, 97684, Control_c, 0, 64, 103
1, 97689, Note_off_c, 0, 78, 61
1, 97699, Control_c, 0, 64, 106
1, 97701, Note_off_c, 0, 82, 63
1, 97714, Control_c, 0, 64, 112
1, 97728, Control_c, 0, 64, 126
1, 97733, Note_on_c, 0, 66, 70
1, 97734, Note_on_c, 0, 63, 64
1, 97741, Note_on_c, 0, 70, 64
1, 97743, Control_c, 0, 64, 127
1, 97773, Note_off_c, 0, 70, 64
1, 97801, Note_on_c, 0, 58, 69
1, 97824, Note_off_c, 0, 66, 59
1, 97830, Note_off_c, 0, 63, 62
1, 97840, Note_off_c, 0, 58, 58
1, 97877, Control_c, 0, 64, 122
1, 97879, Note_on_c, 0, 85, 91
1, 97889, Note_on_c, 0, 78, 85
1, 97889, Note_on_c, 0, 81, 77
1, 97892, Control_c, 0, 64, 92
1, 97907, Control_c, 0, 64, 68
1, 97921, Control_c, 0, 64, 0
1, 97951, Control_c, 0, 64, 45
1, 97965, Note_on_c, 0, 73, 76
1, 97966, Control_c, 0, 64, 76
1, 97981, Control_c, 0, 64, 90
1, 97989, Note_off_c, 0, 78, 59
1, 97991, Note_off_c, 0, 73, 66
1, 97996, Control_c, 0, 64, 103
1, 98010, Control_c, 0, 64, 108
1, 98013, Note_off_c, 0, 81, 58
1, 98025, Control_c, 0, 64, 113
1, 98026, Note_on_c, 0, 69, 72
1, 98028, Note_on_c, 0, 61, 71
1, 98036, Note_off_c, 0, 85, 63
1, 98040, Control_c, 0, 64, 122
1, 98042, Note_on_c, 0, 66, 50
1, 98045, Note_off_c, 0, 69, 69
1, 98056, Control_c, 0, 64, 127
1, 98063, Note_off_c, 0, 61, 64
1, 98067, Note_off_c, 0, 66, 59
1, 98129, Note_on_c, 0, 51, 74
1, 98155, Note_off_c, 0, 51, 65
1, 98274, Note_on_c, 0, 92, 93
1, 98282, Note_on_c, 0, 85, 78
1, 98301, Control_c, 0, 64, 96
1, 98315, Control_c, 0, 64, 73
1, 98330, Control_c, 0, 64, 0
1, 98359, Control_c, 0, 64, 46
1, 98369, Note_on_c, 0, 80, 69
1, 98374, Control_c, 0, 64, 73
1, 98375, Note_off_c, 0, 85, 58
1, 98389, Control_c, 0, 64, 86
1, 98404, Note_off_c, 0, 80, 61
1, 98404, Control_c, 0, 64, 100
1, 98419, Control_c, 0, 64, 108
1, 98423, Note_off_c, 0, 92, 63
1, 98433, Control_c, 0, 64, 116
1, 98448, Control_c, 0, 64, 127
1, 98477, Note_on_c, 0, 73, 67
1, 98482, Note_on_c, 0, 80, 73
1, 98516, Note_off_c, 0, 80, 60
1, 98549, Note_on_c, 0, 68, 67
1, 98551, Note_off_c, 0, 73, 62
1, 98583, Note_off_c, 0, 68, 63
1, 98611, Control_c, 0, 64, 107
1, 98613, Note_on_c, 0, 90, 90
1, 98614, Note_on_c, 0, 85, 79
1, 98626, Control_c, 0, 64, 79
1, 98641, Control_c, 0, 64, 45
1, 98656, Control_c, 0, 64, 0
1, 98670, Control_c, 0, 64, 61
1, 98685, Control_c, 0, 64, 76
1, 98692, Note_on_c, 0, 78, 73
1, 98700, Control_c, 0, 64, 92
1, 98704, Note_off_c, 0, 85, 64
1, 98715, Control_c, 0, 64, 111
1, 98715, Note_off_c, 0, 78, 61
1, 98717, Note_off_c, 0, 90, 63
1, 98730, Control_c, 0, 64, 119
1, 98745, Control_c, 0, 64, 126
1, 98759, Control_c, 0, 64, 127
1, 98769, Note_on_c, 0, 73, 74
1, 98784, Note_on_c, 0, 78, 68
1, 98802, Note_off_c, 0, 78, 66
1, 98834, Note_off_c, 0, 73, 57
1, 98836, Note_on_c, 0, 66, 70
1, 98867, Note_off_c, 0, 66, 67
1, 98894, Control_c, 0, 64, 107
1, 98909, Note_on_c, 0, 87, 86
1, 98909, Control_c, 0, 64, 77
1, 98909, Note_on_c, 0, 83, 74
1, 98913, Note_on_c, 0, 80, 80
1, 98930, Control_c, 0, 64, 0
1, 98960, Control_c, 0, 64, 43
1, 98975, Control_c, 0, 64, 73
1, 98989, Control_c, 0, 64, 89
1, 98995, Note_on_c, 0, 75, 69
1, 99004, Note_off_c, 0, 83, 59
1, 99004, Note_off_c, 0, 80, 63
1, 99004, Control_c, 0, 64, 107
1, 99010, Note_off_c, 0, 87, 63
1, 99019, Control_c, 0, 64, 117
1, 99021, Note_off_c, 0, 75, 70
1, 99034, Control_c, 0, 64, 121
1, 99049, Control_c, 0, 64, 127
1, 99081, Note_on_c, 0, 75, 68
1, 99091, Note_on_c, 0, 71, 62
1, 99094, Note_on_c, 0, 68, 67
1, 99116, Note_off_c, 0, 75, 62
1, 99123, Note_off_c, 0, 71, 62
1, 99147, Note_on_c, 0, 63, 73
1, 99171, Note_off_c, 0, 68, 62
1, 99189, Note_off_c, 0, 63, 59
1, 99197, Control_c, 0, 64, 126
1, 99212, Control_c, 0, 64, 90
1, 99224, Note_on_c, 0, 81, 78
1, 99225, Note_on_c, 0, 85, 80
1, 99227, Control_c, 0, 64, 67
1, 99237, Note_on_c, 0, 78, 76
1, 99242, Control_c, 0, 64, 0
1, 99271, Control_c, 0, 64, 45
1, 99286, Control_c, 0, 64, 74
1, 99300, Control_c, 0, 64, 91
1, 99315, Control_c, 0, 64, 106
1, 99317, Note_on_c, 0, 73, 66
1, 99319, Note_off_c, 0, 81, 61
1, 99321, Note_off_c, 0, 85, 65
1, 99329, Note_off_c, 0, 78, 61
1, 99330, Control_c, 0, 64, 111
1, 99338, Note_off_c, 0, 73, 59
1, 99345, Control_c, 0, 64, 115
1, 99360, Control_c, 0, 64, 122
1, 99374, Control_c, 0, 64, 127
1, 99406, Note_on_c, 0, 69, 60
1, 99409, Note_on_c, 0, 66, 57
1, 99412, Note_on_c, 0, 73, 65
1, 99437, Note_off_c, 0, 69, 67
1, 99440, Note_off_c, 0, 73, 67
1, 99462, Note_on_c, 0, 61, 59
1, 99467, Note_off_c, 0, 66, 53
1, 99493, Note_off_c, 0, 61, 63
1, 99550, Note_on_c, 0, 73, 71
1, 99560, Note_on_c, 0, 69, 65
1, 99627, Note_on_c, 0, 61, 74
1, 99657, Note_off_c, 0, 61, 64
1, 99657, Note_off_c, 0, 69, 61
1, 99678, Note_off_c, 0, 73, 57
1, 99705, Note_on_c, 0, 57, 63
1, 99724, Poly_aftertouch_c, 0, 61, 127
1, 99785, Note_on_c, 0, 51, 68
1, 99789, Poly_aftertouch_c, 0, 61, 0
1, 99800, Note_off_c, 0, 57, 59
1, 99827, Note_off_c, 0, 51, 59
1, 99872, Control_c, 0, 64, 112
1, 99878, Note_on_c, 0, 83, 82
1, 99887, Control_c, 0, 64, 83
1, 99892, Note_on_c, 0, 78, 79
1, 99893, Note_on_c, 0, 75, 81
1, 99902, Control_c, 0, 64, 57
1, 99916, Control_c, 0, 64, 0
1, 99961, Control_c, 0, 64, 68
1, 99976, Note_off_c, 0, 83, 61
1, 99976, Control_c, 0, 64, 81
1, 99979, Note_on_c, 0, 71, 64
1, 99991, Note_off_c, 0, 75, 62
1, 99991, Control_c, 0, 64, 92
1, 99998, Note_off_c, 0, 78, 62
1, 100005, Control_c, 0, 64, 99
1, 100006, Note_off_c, 0, 71, 63
1, 100020, Control_c, 0, 64, 103
1, 100035, Control_c, 0, 64, 109
1, 100050, Control_c, 0, 64, 117
1, 100065, Control_c, 0, 64, 127
1, 100068, Note_on_c, 0, 71, 68
1, 100070, Note_on_c, 0, 66, 69
1, 100080, Note_on_c, 0, 63, 42
1, 100101, Note_off_c, 0, 71, 64
1, 100135, Note_on_c, 0, 59, 59
1, 100142, Note_off_c, 0, 63, 55
1, 100144, Note_off_c, 0, 66, 58
1, 100172, Note_off_c, 0, 59, 65
1, 100214, Note_on_c, 0, 66, 59
1, 100217, Note_on_c, 0, 71, 67
1, 100224, Note_on_c, 0, 63, 60
1, 100286, Note_on_c, 0, 59, 73
1, 100308, Note_off_c, 0, 63, 62
1, 100313, Note_off_c, 0, 59, 65
1, 100337, Note_off_c, 0, 71, 59
1, 100338, Note_off_c, 0, 66, 65
1, 100378, Note_on_c, 0, 59, 74
1, 100383, Note_on_c, 0, 54, 68
1, 100464, Note_on_c, 0, 51, 64
1, 100502, Note_off_c, 0, 59, 56
1, 100507, Note_off_c, 0, 54, 57
1, 100520, Note_off_c, 0, 51, 61
1, 100561, Control_c, 0, 64, 109
1, 100566, Note_on_c, 0, 80, 87
1, 100576, Control_c, 0, 64, 86
1, 100580, Note_on_c, 0, 71, 75
1, 100589, Note_on_c, 0, 75, 69
1, 100591, Control_c, 0, 64, 65
1, 100606, Control_c, 0, 64, 0
1, 100650, Control_c, 0, 64, 69
1, 100665, Control_c, 0, 64, 78
1, 100677, Note_on_c, 0, 68, 82
1, 100680, Control_c, 0, 64, 86
1, 100681, Note_off_c, 0, 80, 60
1, 100689, Note_off_c, 0, 71, 60
1, 100694, Control_c, 0, 64, 91
1, 100709, Control_c, 0, 64, 95
1, 100710, Note_off_c, 0, 75, 61
1, 100721, Note_off_c, 0, 68, 63
1, 100724, Control_c, 0, 64, 100
1, 100739, Control_c, 0, 64, 107
1, 100754, Control_c, 0, 64, 114
1, 100769, Control_c, 0, 64, 119
1, 100772, Note_on_c, 0, 68, 63
1, 100774, Note_on_c, 0, 59, 38
1, 100778, Note_on_c, 0, 63, 64
1, 100784, Control_c, 0, 64, 123
1, 100799, Control_c, 0, 64, 127
1, 100802, Note_off_c, 0, 68, 64
1, 100838, Note_off_c, 0, 59, 57
1, 100855, Note_on_c, 0, 56, 62
1, 100859, Note_off_c, 0, 63, 60
1, 100885, Note_off_c, 0, 56, 62
1, 100921, Note_on_c, 0, 68, 80
1, 100955, Note_on_c, 0, 59, 40
1, 100983, Note_off_c, 0, 59, 53
1, 101001, Note_off_c, 0, 68, 60
1, 101006, Note_on_c, 0, 56, 80
1, 101037, Note_off_c, 0, 56, 64
1, 101079, Note_on_c, 0, 56, 61
1, 101082, Note_on_c, 0, 59, 63
1, 101152, Note_on_c, 0, 51, 69
1, 101159, Note_off_c, 0, 59, 59
1, 101172, Note_off_c, 0, 56, 60
1, 101211, Note_off_c, 0, 51, 61
1, 101237, Note_on_c, 0, 59, 60
1, 101240, Note_on_c, 0, 56, 66
1, 101273, Note_off_c, 0, 56, 63
1, 101298, Note_off_c, 0, 59, 61
1, 101314, Note_on_c, 0, 63, 73
1, 101352, Note_off_c, 0, 63, 65
1, 101424, Note_on_c, 0, 63, 65
1, 101507, Note_on_c, 0, 71, 64
1, 101508, Note_off_c, 0, 63, 50
1, 101514, Note_on_c, 0, 68, 61
1, 101543, Note_off_c, 0, 71, 58
1, 101561, Note_off_c, 0, 68, 63
1, 101620, Note_on_c, 0, 82, 83
1, 101622, Control_c, 0, 64, 123
1, 101636, Control_c, 0, 64, 100
1, 101640, Note_on_c, 0, 78, 72
1, 101641, Note_on_c, 0, 75, 72
1, 101651, Control_c, 0, 64, 80
1, 101666, Control_c, 0, 64, 56
1, 101681, Control_c, 0, 64, 0
1, 101710, Control_c, 0, 64, 54
1, 101722, Note_on_c, 0, 70, 68
1, 101725, Control_c, 0, 64, 72
1, 101740, Control_c, 0, 64, 80
1, 101744, Note_off_c, 0, 75, 60
1, 101744, Note_off_c, 0, 82, 61
1, 101755, Control_c, 0, 64, 87
1, 101758, Note_off_c, 0, 70, 62
1, 101764, Note_off_c, 0, 78, 61
1, 101769, Control_c, 0, 64, 91
1, 101784, Control_c, 0, 64, 95
1, 101799, Control_c, 0, 64, 100
1, 101806, Note_on_c, 0, 70, 61
1, 101807, Note_on_c, 0, 66, 70
1, 101809, Note_on_c, 0, 63, 58
1, 101814, Control_c, 0, 64, 106
1, 101829, Control_c, 0, 64, 113
1, 101843, Control_c, 0, 64, 118
1, 101856, Note_off_c, 0, 70, 59
1, 101858, Control_c, 0, 64, 122
1, 101872, Note_on_c, 0, 58, 64
1, 101873, Control_c, 0, 64, 126
1, 101882, Note_off_c, 0, 66, 60
1, 101888, Control_c, 0, 64, 127
1, 101901, Note_off_c, 0, 63, 60
1, 101929, Note_off_c, 0, 58, 59
1, 101955, Control_c, 0, 64, 124
1, 101964, Note_on_c, 0, 78, 83
1, 101970, Control_c, 0, 64, 110
1, 101975, Note_on_c, 0, 75, 74
1, 101982, Note_on_c, 0, 71, 64
1, 101984, Control_c, 0, 64, 91
1, 101999, Control_c, 0, 64, 74
1, 102014, Control_c, 0, 64, 39
1, 102029, Control_c, 0, 64, 0
1, 102060, Control_c, 0, 64, 60
1, 102064, Note_on_c, 0, 66, 73
1, 102074, Control_c, 0, 64, 76
1, 102089, Control_c, 0, 64, 85
1, 102090, Note_off_c, 0, 71, 59
1, 102101, Note_off_c, 0, 66, 62
1, 102104, Control_c, 0, 64, 89
1, 102118, Note_off_c, 0, 75, 45
1, 102119, Control_c, 0, 64, 91
1, 102133, Control_c, 0, 64, 93
1, 102142, Note_off_c, 0, 78, 52
1, 102148, Control_c, 0, 64, 96
1, 102155, Note_on_c, 0, 63, 68
1, 102158, Note_on_c, 0, 66, 53
1, 102163, Control_c, 0, 64, 100
1, 102178, Control_c, 0, 64, 105
1, 102181, Note_on_c, 0, 59, 52
1, 102193, Control_c, 0, 64, 108
1, 102195, Note_off_c, 0, 66, 60
1, 102207, Control_c, 0, 64, 110
1, 102222, Control_c, 0, 64, 113
1, 102237, Control_c, 0, 64, 116
1, 102252, Control_c, 0, 64, 119
1, 102258, Note_on_c, 0, 54, 61
1, 102265, Note_off_c, 0, 63, 47
1, 102267, Control_c, 0, 64, 121
1, 102281, Control_c, 0, 64, 121
1, 102319, Note_off_c, 0, 59, 31
1, 102337, Note_off_c, 0, 54, 58
1, 102340, Control_c, 0, 64, 121
1, 102348, Note_on_c, 0, 77, 74
1, 102355, Control_c, 0, 64, 116
1, 102367, Note_on_c, 0, 74, 57
1, 102370, Control_c, 0, 64, 105
1, 102385, Control_c, 0, 64, 91
1, 102393, Note_on_c, 0, 71, 34
1, 102400, Control_c, 0, 64, 76
1, 102414, Control_c, 0, 64, 55
1, 102429, Control_c, 0, 64, 0
1, 102458, Note_on_c, 0, 65, 61
1, 102462, Note_off_c, 0, 71, 34
1, 102474, Control_c, 0, 64, 65
1, 102489, Control_c, 0, 64, 72
1, 102500, Note_off_c, 0, 65, 62
1, 102504, Control_c, 0, 64, 76
1, 102518, Control_c, 0, 64, 79
1, 102531, Note_off_c, 0, 74, 50
1, 102533, Control_c, 0, 64, 81
1, 102548, Control_c, 0, 64, 85
1, 102550, Note_off_c, 0, 77, 57
1, 102563, Control_c, 0, 64, 89
1, 102578, Control_c, 0, 64, 93
1, 102582, Note_on_c, 0, 65, 46
1, 102592, Note_on_c, 0, 59, 44
1, 102593, Control_c, 0, 64, 96
1, 102597, Note_on_c, 0, 62, 39
1, 102608, Control_c, 0, 64, 99
1, 102623, Control_c, 0, 64, 101
1, 102638, Control_c, 0, 64, 103
1, 102653, Control_c, 0, 64, 105
1, 102674, Control_c, 0, 64, 108
1, 102676, Note_on_c, 0, 56, 53
1, 102689, Control_c, 0, 64, 109
1, 102692, Note_off_c, 0, 65, 37
1, 102704, Control_c, 0, 64, 110
1, 102719, Control_c, 0, 64, 110
1, 102733, Control_c, 0, 64, 111
1, 102735, Note_off_c, 0, 56, 54
1, 102748, Control_c, 0, 64, 112
1, 102757, Note_off_c, 0, 59, 32
1, 102763, Control_c, 0, 64, 113
1, 102808, Note_off_c, 0, 62, 16
1, 102851, Note_on_c, 0, 78, 62
1, 102853, Control_c, 0, 64, 111
1, 102859, Note_on_c, 0, 74, 40
1, 102868, Control_c, 0, 64, 104
1, 102871, Note_on_c, 0, 72, 46
1, 102883, Control_c, 0, 64, 93
1, 102897, Control_c, 0, 64, 80
1, 102912, Control_c, 0, 64, 66
1, 102927, Control_c, 0, 64, 0
1, 102972, Control_c, 0, 64, 18
1, 102981, Note_on_c, 0, 66, 48
1, 102987, Control_c, 0, 64, 65
1, 103002, Control_c, 0, 64, 72
1, 103007, Note_off_c, 0, 78, 61
1, 103010, Note_off_c, 0, 74, 60
1, 103017, Control_c, 0, 64, 75
1, 103017, Note_off_c, 0, 72, 36
1, 103022, Note_off_c, 0, 66, 52
1, 103031, Control_c, 0, 64, 78
1, 103046, Control_c, 0, 64, 81
1, 103061, Control_c, 0, 64, 85
1, 103076, Control_c, 0, 64, 89
1, 103090, Control_c, 0, 64, 93
1, 103097, Note_on_c, 0, 60, 54
1, 103102, Note_on_c, 0, 66, 40
1, 103104, Control_c, 0, 64, 96
1, 103119, Control_c, 0, 64, 98
1, 103121, Note_on_c, 0, 62, 29
1, 103134, Control_c, 0, 64, 99
1, 103135, Note_off_c, 0, 66, 53
1, 103148, Control_c, 0, 64, 100
1, 103160, Note_off_c, 0, 62, 46
1, 103163, Control_c, 0, 64, 102
1, 103175, Note_on_c, 0, 54, 60
1, 103178, Control_c, 0, 64, 104
1, 103193, Control_c, 0, 64, 106
1, 103208, Control_c, 0, 64, 106
1, 103212, Note_off_c, 0, 60, 37
1, 103213, Note_off_c, 0, 54, 63
1, 103252, Note_on_c, 0, 66, 61
1, 103252, Control_c, 0, 64, 107
1, 103313, Note_off_c, 0, 66, 64
1, 103333, Note_on_c, 0, 54, 68
1, 103361, Note_off_c, 0, 54, 65
1, 103437, Note_on_c, 0, 54, 68
1, 103464, Note_off_c, 0, 54, 64
1, 103496, Control_c, 0, 64, 106
1, 103511, Control_c, 0, 64, 101
1, 103523, Note_on_c, 0, 54, 62
1, 103526, Control_c, 0, 64, 92
1, 103539, Note_off_c, 0, 54, 66
1, 103541, Control_c, 0, 64, 81
1, 103556, Control_c, 0, 64, 69
1, 103571, Control_c, 0, 64, 29
1, 103586, Control_c, 0, 64, 0
1, 103605, Note_on_c, 0, 42, 82
1, 103629, Note_off_c, 0, 42, 67
1, 103691, Note_on_c, 0, 42, 65
1, 103718, Note_off_c, 0, 42, 63
1, 103780, Note_on_c, 0, 42, 61
1, 103806, Note_off_c, 0, 42, 57
1, 103845, Note_on_c, 0, 42, 54
1, 103873, Note_off_c, 0, 42, 62
1, 103935, Note_on_c, 0, 42, 71
1, 103968, Note_off_c, 0, 42, 65
1, 104024, Note_on_c, 0, 42, 54
1, 104051, Note_off_c, 0, 42, 56
1, 104104, Note_on_c, 0, 42, 54
1, 104132, Note_off_c, 0, 42, 53
1, 104176, Note_on_c, 0, 42, 51
1, 104206, Note_off_c, 0, 42, 59
1, 104263, Note_on_c, 0, 42, 71
1, 104292, Note_off_c, 0, 42, 63
1, 104351, Note_on_c, 0, 42, 49
1, 104380, Note_off_c, 0, 42, 35
1, 104426, Note_on_c, 0, 42, 47
1, 104456, Note_off_c, 0, 42, 49
1, 104498, Note_on_c, 0, 42, 54
1, 104530, Note_off_c, 0, 42, 62
1, 104579, Note_on_c, 0, 42, 65
1, 104605, Note_off_c, 0, 42, 60
1, 104651, Note_on_c, 0, 42, 52
1, 104679, Note_off_c, 0, 42, 35
1, 104731, Note_on_c, 0, 42, 55
1, 104757, Note_off_c, 0, 42, 58
1, 104796, Note_on_c, 0, 42, 49
1, 104825, Note_off_c, 0, 42, 60
1, 104885, Note_on_c, 0, 42, 70
1, 104906, Note_off_c, 0, 42, 63
1, 104966, Note_on_c, 0, 42, 58
1, 105002, Note_off_c, 0, 42, 64
1, 105043, Note_on_c, 0, 50, 57
1, 105044, Note_on_c, 0, 48, 55
1, 105098, Note_off_c, 0, 48, 63
1, 105103, Note_off_c, 0, 50, 57
1, 105107, Note_on_c, 0, 42, 63
1, 105136, Note_off_c, 0, 42, 66
1, 105193, Note_on_c, 0, 42, 81
1, 105215, Note_off_c, 0, 42, 69
1, 105270, Note_on_c, 0, 42, 70
1, 105320, Note_off_c, 0, 42, 59
1, 105356, Note_on_c, 0, 48, 60
1, 105357, Note_on_c, 0, 50, 65
1, 105410, Note_off_c, 0, 48, 59
1, 105425, Note_on_c, 0, 42, 69
1, 105428, Note_off_c, 0, 50, 62
1, 105458, Note_off_c, 0, 42, 64
1, 105504, Note_on_c, 0, 42, 89
1, 105526, Note_off_c, 0, 42, 69
1, 105577, Note_on_c, 0, 42, 71
1, 105632, Note_off_c, 0, 42, 61
1, 105671, Note_on_c, 0, 48, 61
1, 105673, Note_on_c, 0, 50, 60
1, 105723, Note_off_c, 0, 48, 61
1, 105737, Note_off_c, 0, 50, 57
1, 105750, Note_on_c, 0, 42, 66
1, 105784, Note_off_c, 0, 42, 64
1, 105810, Note_on_c, 0, 42, 74
1, 105832, Note_off_c, 0, 42, 68
1, 105886, Note_on_c, 0, 42, 73
1, 105935, Note_off_c, 0, 42, 60
1, 105970, Note_on_c, 0, 48, 56
1, 105971, Note_on_c, 0, 50, 61
1, 106035, Note_off_c, 0, 48, 53
1, 106049, Note_on_c, 0, 42, 62
1, 106059, Note_off_c, 0, 50, 57
1, 106090, Note_off_c, 0, 42, 59
1, 106099, Note_on_c, 0, 44, 91
1, 106149, Note_off_c, 0, 44, 64
1, 106181, Note_on_c, 0, 42, 59
1, 106188, Note_on_c, 0, 50, 58
1, 106200, Note_on_c, 0, 48, 43
1, 106224, Note_off_c, 0, 42, 63
1, 106233, Note_off_c, 0, 50, 62
1, 106236, Note_off_c, 0, 48, 57
1, 106271, Note_on_c, 0, 38, 70
1, 106305, Note_off_c, 0, 38, 63
1, 106349, Note_on_c, 0, 40, 59
1, 106353, Note_on_c, 0, 48, 47
1, 106361, Note_on_c, 0, 50, 47
1, 106381, Note_off_c, 0, 40, 65
1, 106402, Note_off_c, 0, 48, 62
1, 106406, Note_off_c, 0, 50, 60
1, 106427, Note_on_c, 0, 44, 72
1, 106467, Note_off_c, 0, 44, 64
1, 106508, Note_on_c, 0, 42, 61
1, 106519, Note_on_c, 0, 50, 49
1, 106521, Note_on_c, 0, 48, 48
1, 106546, Note_off_c, 0, 42, 63
1, 106557, Note_off_c, 0, 50, 63
1, 106562, Note_off_c, 0, 48, 62
1, 106585, Note_on_c, 0, 38, 63
1, 106616, Note_off_c, 0, 38, 63
1, 106661, Note_on_c, 0, 40, 55
1, 106674, Note_on_c, 0, 50, 43
1, 106679, Note_on_c, 0, 48, 50
1, 106689, Note_off_c, 0, 40, 59
1, 106711, Note_off_c, 0, 50, 56
1, 106716, Note_off_c, 0, 48, 65
1, 106735, Note_on_c, 0, 44, 65
1, 106778, Note_off_c, 0, 44, 63
1, 106817, Note_on_c, 0, 50, 51
1, 106819, Note_on_c, 0, 42, 51
1, 106845, Note_on_c, 0, 48, 20
1, 106858, Note_off_c, 0, 42, 64
1, 106862, Note_off_c, 0, 50, 61
1, 106886, Note_off_c, 0, 48, 50
1, 106900, Note_on_c, 0, 38, 55
1, 106940, Note_off_c, 0, 38, 62
1, 106972, Note_on_c, 0, 40, 57
1, 106990, Note_on_c, 0, 48, 53
1, 106995, Note_on_c, 0, 50, 30
1, 107004, Note_off_c, 0, 40, 64
1, 107026, Note_off_c, 0, 48, 65
1, 107029, Note_off_c, 0, 50, 49
1, 107050, Note_on_c, 0, 44, 70
1, 107092, Note_off_c, 0, 44, 63
1, 107137, Note_on_c, 0, 48, 49
1, 107201, Note_off_c, 0, 48, 61
1, 107228, Note_on_c, 0, 38, 61
1, 107264, Note_off_c, 0, 38, 63
1, 107304, Note_on_c, 0, 50, 32
1, 107344, Note_off_c, 0, 50, 40
1, 107391, Note_on_c, 0, 48, 72
1, 107392, Note_on_c, 0, 52, 75
1, 107409, Note_on_c, 0, 45, 49
1, 107411, Note_on_c, 0, 42, 42
1, 107421, Note_off_c, 0, 52, 68
1, 107422, Note_off_c, 0, 48, 67
1, 107435, Note_off_c, 0, 45, 58
1, 107442, Note_off_c, 0, 42, 50
1, 107488, Note_on_c, 0, 48, 52
1, 107517, Note_off_c, 0, 48, 36
1, 107559, Note_on_c, 0, 45, 56
1, 107585, Note_off_c, 0, 45, 66
1, 107640, Note_on_c, 0, 48, 58
1, 107670, Note_off_c, 0, 48, 66
1, 107711, Note_on_c, 0, 42, 67
1, 107713, Note_on_c, 0, 52, 71
1, 107717, Note_on_c, 0, 48, 59
1, 107723, Note_on_c, 0, 45, 39
1, 107738, Note_off_c, 0, 42, 66
1, 107738, Note_off_c, 0, 52, 69
1, 107740, Note_off_c, 0, 48, 61
1, 107754, Note_off_c, 0, 45, 47
1, 107801, Note_on_c, 0, 48, 62
1, 107829, Note_off_c, 0, 48, 67
1, 107876, Note_on_c, 0, 47, 70
1, 107876, Note_on_c, 0, 54, 73
1, 107885, Note_on_c, 0, 50, 51
1, 107901, Note_off_c, 0, 47, 67
1, 107919, Note_off_c, 0, 50, 56
1, 107939, Note_off_c, 0, 54, 58
1, 107972, Note_on_c, 0, 50, 58
1, 107996, Note_off_c, 0, 50, 59
1, 108042, Note_on_c, 0, 42, 74
1, 108042, Note_on_c, 0, 52, 81
1, 108045, Note_on_c, 0, 45, 64
1, 108045, Note_on_c, 0, 48, 65
1, 108066, Note_off_c, 0, 42, 68
1, 108066, Note_off_c, 0, 48, 62
1, 108068, Note_off_c, 0, 45, 62
1, 108081, Note_off_c, 0, 52, 64
1, 108131, Note_on_c, 0, 48, 75
1, 108162, Note_off_c, 0, 48, 67
1, 108208, Note_on_c, 0, 45, 57
1, 108249, Note_off_c, 0, 45, 66
1, 108284, Note_on_c, 0, 48, 65
1, 108315, Note_off_c, 0, 48, 65
1, 108358, Note_on_c, 0, 52, 65
1, 108371, Note_on_c, 0, 42, 55
1, 108376, Note_on_c, 0, 48, 63
1, 108381, Note_on_c, 0, 45, 48
1, 108388, Note_off_c, 0, 52, 67
1, 108399, Note_off_c, 0, 48, 61
1, 108403, Note_off_c, 0, 42, 63
1, 108407, Note_off_c, 0, 45, 59
1, 108448, Note_on_c, 0, 48, 58
1, 108480, Note_off_c, 0, 48, 67
1, 108520, Note_on_c, 0, 54, 66
1, 108525, Note_on_c, 0, 47, 66
1, 108530, Note_on_c, 0, 50, 57
1, 108553, Note_off_c, 0, 47, 66
1, 108554, Note_off_c, 0, 50, 62
1, 108566, Note_off_c, 0, 54, 59
1, 108600, Note_on_c, 0, 50, 60
1, 108630, Note_off_c, 0, 50, 65
1, 108677, Note_on_c, 0, 42, 71
1, 108680, Note_on_c, 0, 48, 69
1, 108681, Note_on_c, 0, 45, 68
1, 108684, Note_on_c, 0, 52, 72
1, 108701, Note_off_c, 0, 48, 64
1, 108706, Note_off_c, 0, 42, 66
1, 108707, Note_off_c, 0, 45, 67
1, 108727, Note_off_c, 0, 52, 65
1, 108770, Note_on_c, 0, 48, 64
1, 108804, Note_off_c, 0, 48, 64
1, 108832, Note_on_c, 0, 45, 63
1, 108875, Note_off_c, 0, 45, 67
1, 108908, Note_on_c, 0, 48, 63
1, 108942, Note_off_c, 0, 48, 64
1, 108987, Note_on_c, 0, 52, 67
1, 108997, Note_on_c, 0, 42, 64
1, 109008, Note_on_c, 0, 48, 55
1, 109011, Note_on_c, 0, 45, 46
1, 109023, Note_off_c, 0, 52, 66
1, 109036, Note_off_c, 0, 42, 62
1, 109039, Note_off_c, 0, 45, 59
1, 109056, Note_off_c, 0, 48, 0
1, 109069, Note_on_c, 0, 48, 57
1, 109107, Note_off_c, 0, 48, 66
1, 109149, Note_on_c, 0, 54, 65
1, 109154, Note_on_c, 0, 47, 67
1, 109156, Note_on_c, 0, 50, 58
1, 109184, Note_off_c, 0, 50, 64
1, 109187, Note_off_c, 0, 47, 65
1, 109205, Note_off_c, 0, 54, 58
1, 109226, Note_on_c, 0, 50, 55
1, 109268, Note_off_c, 0, 50, 60
1, 109297, Note_on_c, 0, 42, 61
1, 109300, Note_on_c, 0, 48, 66
1, 109300, Note_on_c, 0, 52, 77
1, 109311, Note_on_c, 0, 45, 56
1, 109334, Note_off_c, 0, 52, 64
1, 109339, Note_off_c, 0, 48, 63
1, 109350, Note_off_c, 0, 42, 61
1, 109358, Note_off_c, 0, 45, 64
1, 109375, Note_on_c, 0, 48, 69
1, 109414, Note_off_c, 0, 48, 66
1, 109457, Note_on_c, 0, 47, 78
1, 109461, Note_on_c, 0, 54, 77
1, 109465, Note_on_c, 0, 50, 55
1, 109491, Note_off_c, 0, 50, 62
1, 109494, Note_off_c, 0, 47, 65
1, 109515, Note_off_c, 0, 54, 62
1, 109536, Note_on_c, 0, 50, 71
1, 109567, Note_off_c, 0, 50, 65
1, 109621, Note_on_c, 0, 57, 80
1, 109623, Note_on_c, 0, 52, 77
1, 109625, Note_on_c, 0, 48, 72
1, 109649, Note_off_c, 0, 52, 70
1, 109663, Note_off_c, 0, 48, 65
1, 109679, Note_off_c, 0, 57, 60
1, 109695, Control_c, 0, 64, 30
1, 109700, Note_on_c, 0, 52, 62
1, 109709, Control_c, 0, 64, 52
1, 109724, Note_off_c, 0, 52, 67
1, 109724, Control_c, 0, 64, 53
1, 109739, Control_c, 0, 64, 52
1, 109754, Control_c, 0, 64, 51
1, 109769, Control_c, 0, 64, 51
1, 109771, Note_on_c, 0, 59, 81
1, 109777, Note_on_c, 0, 54, 72
1, 109779, Note_on_c, 0, 50, 65
1, 109783, Control_c, 0, 64, 50
1, 109798, Control_c, 0, 64, 50
1, 109800, Note_off_c, 0, 54, 65
1, 109806, Note_off_c, 0, 50, 65
1, 109813, Control_c, 0, 64, 48
1, 109816, Note_off_c, 0, 59, 63
1, 109828, Control_c, 0, 64, 47
1, 109858, Note_on_c, 0, 54, 64
1, 109873, Control_c, 0, 64, 46
1, 109876, Note_off_c, 0, 54, 62
1, 109888, Control_c, 0, 64, 41
1, 109902, Control_c, 0, 64, 21
1, 109917, Control_c, 0, 64, 0
1, 109967, Note_on_c, 0, 64, 83
1, 109977, Note_on_c, 0, 60, 71
1, 110014, Note_off_c, 0, 60, 56
1, 110052, Control_c, 0, 64, 59
1, 110054, Note_on_c, 0, 57, 60
1, 110066, Control_c, 0, 64, 66
1, 110076, Note_off_c, 0, 57, 63
1, 110081, Control_c, 0, 64, 68
1, 110096, Control_c, 0, 64, 70
1, 110111, Control_c, 0, 64, 73
1, 110125, Control_c, 0, 64, 77
1, 110140, Control_c, 0, 64, 79
1, 110144, Note_on_c, 0, 57, 70
1, 110162, Control_c, 0, 64, 81
1, 110177, Control_c, 0, 64, 82
1, 110192, Control_c, 0, 64, 83
1, 110193, Note_off_c, 0, 57, 62
1, 110207, Control_c, 0, 64, 84
1, 110214, Note_on_c, 0, 52, 61
1, 110221, Control_c, 0, 64, 85
1, 110236, Control_c, 0, 64, 86
1, 110240, Note_off_c, 0, 52, 66
1, 110251, Control_c, 0, 64, 87
1, 110266, Control_c, 0, 64, 88
1, 110281, Control_c, 0, 64, 88
1, 110296, Control_c, 0, 64, 89
1, 110298, Note_on_c, 0, 57, 70
1, 110311, Control_c, 0, 64, 89
1, 110328, Note_off_c, 0, 57, 63
1, 110340, Control_c, 0, 64, 90
1, 110370, Control_c, 0, 64, 90
1, 110379, Note_off_c, 0, 64, 57
1, 110383, Note_on_c, 0, 52, 68
1, 110400, Control_c, 0, 64, 91
1, 110409, Note_off_c, 0, 52, 70
1, 110446, Note_on_c, 0, 52, 66
1, 110457, Note_on_c, 0, 48, 61
1, 110503, Note_off_c, 0, 48, 65
1, 110522, Note_on_c, 0, 42, 75
1, 110529, Note_off_c, 0, 52, 65
1, 110578, Control_c, 0, 64, 90
1, 110590, Note_off_c, 0, 42, 62
1, 110593, Control_c, 0, 64, 81
1, 110605, Note_on_c, 0, 62, 84
1, 110607, Control_c, 0, 64, 66
1, 110615, Note_on_c, 0, 60, 73
1, 110622, Control_c, 0, 64, 0
1, 110652, Note_off_c, 0, 60, 59
1, 110666, Control_c, 0, 64, 50
1, 110681, Control_c, 0, 64, 69
1, 110696, Control_c, 0, 64, 78
1, 110703, Note_on_c, 0, 57, 66
1, 110711, Control_c, 0, 64, 83
1, 110726, Control_c, 0, 64, 85
1, 110731, Note_off_c, 0, 57, 64
1, 110740, Control_c, 0, 64, 86
1, 110755, Control_c, 0, 64, 88
1, 110770, Control_c, 0, 64, 89
1, 110785, Control_c, 0, 64, 90
1, 110790, Note_on_c, 0, 57, 71
1, 110800, Control_c, 0, 64, 91
1, 110815, Control_c, 0, 64, 92
1, 110830, Control_c, 0, 64, 93
1, 110835, Note_off_c, 0, 57, 60
1, 110849, Note_on_c, 0, 50, 60
1, 110860, Control_c, 0, 64, 94
1, 110877, Note_off_c, 0, 50, 65
1, 110889, Control_c, 0, 64, 94
1, 110943, Note_on_c, 0, 57, 76
1, 110978, Note_off_c, 0, 57, 61
1, 111020, Note_on_c, 0, 50, 75
1, 111045, Note_off_c, 0, 50, 68
1, 111086, Note_on_c, 0, 48, 62
1, 111087, Note_on_c, 0, 50, 67
1, 111133, Note_off_c, 0, 48, 62
1, 111155, Note_on_c, 0, 42, 74
1, 111161, Note_off_c, 0, 50, 61
1, 111163, Control_c, 0, 64, 89
1, 111178, Control_c, 0, 64, 77
1, 111193, Control_c, 0, 64, 58
1, 111208, Control_c, 0, 64, 0
1, 111219, Note_off_c, 0, 42, 60
1, 111238, Control_c, 0, 64, 57
1, 111240, Note_on_c, 0, 60, 66
1, 111253, Control_c, 0, 64, 71
1, 111268, Control_c, 0, 64, 81
1, 111282, Control_c, 0, 64, 87
1, 111283, Note_off_c, 0, 62, 57
1, 111297, Control_c, 0, 64, 88
1, 111312, Note_on_c, 0, 57, 73
1, 111312, Control_c, 0, 64, 90
1, 111327, Control_c, 0, 64, 91
1, 111336, Note_off_c, 0, 57, 67
1, 111342, Control_c, 0, 64, 94
1, 111345, Note_off_c, 0, 60, 59
1, 111356, Control_c, 0, 64, 97
1, 111371, Control_c, 0, 64, 99
1, 111386, Control_c, 0, 64, 102
1, 111396, Note_on_c, 0, 57, 77
1, 111401, Control_c, 0, 64, 104
1, 111416, Control_c, 0, 64, 104
1, 111458, Note_on_c, 0, 50, 63
1, 111466, Note_off_c, 0, 57, 60
1, 111475, Control_c, 0, 64, 100
1, 111489, Control_c, 0, 64, 88
1, 111504, Control_c, 0, 64, 72
1, 111515, Note_off_c, 0, 50, 62
1, 111519, Control_c, 0, 64, 32
1, 111532, Note_on_c, 0, 64, 81
1, 111534, Control_c, 0, 64, 0
1, 111542, Note_on_c, 0, 60, 80
1, 111549, Control_c, 0, 64, 64
1, 111563, Control_c, 0, 64, 76
1, 111578, Control_c, 0, 64, 87
1, 111593, Control_c, 0, 64, 94
1, 111608, Control_c, 0, 64, 96
1, 111618, Note_on_c, 0, 57, 73
1, 111624, Control_c, 0, 64, 97
1, 111628, Note_off_c, 0, 60, 54
1, 111634, Note_off_c, 0, 64, 62
1, 111639, Control_c, 0, 64, 100
1, 111646, Note_off_c, 0, 57, 67
1, 111661, Control_c, 0, 64, 104
1, 111676, Control_c, 0, 64, 106
1, 111691, Control_c, 0, 64, 108
1, 111705, Note_on_c, 0, 57, 69
1, 111705, Control_c, 0, 64, 110
1, 111720, Control_c, 0, 64, 112
1, 111731, Note_off_c, 0, 57, 68
1, 111735, Control_c, 0, 64, 113
1, 111750, Control_c, 0, 64, 114
1, 111756, Note_on_c, 0, 52, 72
1, 111779, Control_c, 0, 64, 113
1, 111794, Control_c, 0, 64, 107
1, 111800, Note_off_c, 0, 52, 66
1, 111809, Control_c, 0, 64, 91
1, 111824, Control_c, 0, 64, 73
1, 111839, Control_c, 0, 64, 0
1, 111843, Note_on_c, 0, 57, 89
1, 111843, Poly_aftertouch_c, 0, 52, 0
1, 111848, Note_on_c, 0, 52, 78
1, 111868, Control_c, 0, 64, 66
1, 111883, Control_c, 0, 64, 79
1, 111892, Note_off_c, 0, 52, 59
1, 111898, Control_c, 0, 64, 93
1, 111912, Control_c, 0, 64, 101
1, 111919, Note_on_c, 0, 48, 83
1, 111927, Note_off_c, 0, 57, 61
1, 111927, Control_c, 0, 64, 103
1, 111942, Control_c, 0, 64, 104
1, 111957, Control_c, 0, 64, 106
1, 111961, Note_off_c, 0, 48, 64
1, 111972, Control_c, 0, 64, 110
1, 111986, Control_c, 0, 64, 115
1, 111993, Note_on_c, 0, 48, 76
1, 112001, Control_c, 0, 64, 118
1, 112016, Control_c, 0, 64, 121
1, 112031, Control_c, 0, 64, 122
1, 112071, Note_on_c, 0, 45, 85
1, 112072, Note_off_c, 0, 48, 63
1, 112090, Control_c, 0, 64, 117
1, 112104, Control_c, 0, 64, 101
1, 112114, Note_off_c, 0, 45, 64
1, 112119, Control_c, 0, 64, 76
1, 112134, Control_c, 0, 64, 0
1, 112135, Note_on_c, 0, 60, 90
1, 112139, Note_on_c, 0, 57, 88
1, 112178, Control_c, 0, 64, 64
1, 112193, Control_c, 0, 64, 78
1, 112195, Note_off_c, 0, 57, 60
1, 112208, Control_c, 0, 64, 89
1, 112222, Note_off_c, 0, 60, 60
1, 112223, Control_c, 0, 64, 97
1, 112228, Note_on_c, 0, 52, 64
1, 112237, Control_c, 0, 64, 99
1, 112250, Note_off_c, 0, 52, 63
1, 112252, Control_c, 0, 64, 101
1, 112267, Control_c, 0, 64, 105
1, 112282, Control_c, 0, 64, 108
1, 112293, Note_on_c, 0, 52, 80
1, 112297, Control_c, 0, 64, 111
1, 112311, Control_c, 0, 64, 114
1, 112326, Control_c, 0, 64, 116
1, 112341, Control_c, 0, 64, 119
1, 112352, Note_off_c, 0, 52, 60
1, 112356, Note_on_c, 0, 48, 81
1, 112356, Control_c, 0, 64, 121
1, 112371, Control_c, 0, 64, 124
1, 112386, Control_c, 0, 64, 124
1, 112408, Note_off_c, 0, 48, 67
1, 112408, Control_c, 0, 64, 124
1, 112423, Control_c, 0, 64, 121
1, 112439, Control_c, 0, 64, 103
1, 112447, Note_on_c, 0, 64, 79
1, 112454, Control_c, 0, 64, 81
1, 112455, Note_on_c, 0, 61, 86
1, 112468, Control_c, 0, 64, 38
1, 112483, Control_c, 0, 64, 0
1, 112508, Note_off_c, 0, 64, 63
1, 112513, Control_c, 0, 64, 64
1, 112514, Note_off_c, 0, 61, 64
1, 112528, Control_c, 0, 64, 77
1, 112530, Note_on_c, 0, 58, 86
1, 112542, Control_c, 0, 64, 85
1, 112557, Control_c, 0, 64, 90
1, 112561, Note_off_c, 0, 58, 62
1, 112572, Control_c, 0, 64, 91
1, 112587, Control_c, 0, 64, 92
1, 112602, Control_c, 0, 64, 94
1, 112614, Note_on_c, 0, 58, 76
1, 112616, Control_c, 0, 64, 96
1, 112631, Control_c, 0, 64, 97
1, 112646, Control_c, 0, 64, 98
1, 112660, Control_c, 0, 64, 99
1, 112672, Note_off_c, 0, 58, 63
1, 112675, Control_c, 0, 64, 100
1, 112689, Note_on_c, 0, 52, 83
1, 112690, Control_c, 0, 64, 101
1, 112705, Control_c, 0, 64, 102
1, 112713, Note_off_c, 0, 52, 72
1, 112720, Control_c, 0, 64, 103
1, 112734, Control_c, 0, 64, 104
1, 112759, Note_on_c, 0, 52, 89
1, 112764, Control_c, 0, 64, 104
1, 112803, Note_off_c, 0, 52, 66
1, 112824, Control_c, 0, 64, 104
1, 112844, Note_on_c, 0, 49, 81
1, 112853, Control_c, 0, 64, 100
1, 112868, Control_c, 0, 64, 93
1, 112883, Control_c, 0, 64, 82
1, 112885, Note_off_c, 0, 49, 60
1, 112898, Control_c, 0, 64, 66
1, 112913, Control_c, 0, 64, 0
1, 112925, Note_on_c, 0, 49, 72
1, 112958, Note_off_c, 0, 49, 64
1, 112988, Note_on_c, 0, 46, 84
1, 113023, Note_off_c, 0, 46, 66
1, 113063, Note_on_c, 0, 42, 93
1, 113088, Note_off_c, 0, 42, 67
1, 113143, Note_on_c, 0, 42, 66
1, 113205, Note_off_c, 0, 42, 59
1, 113237, Note_on_c, 0, 46, 52
1, 113241, Note_on_c, 0, 49, 59
1, 113274, Note_off_c, 0, 46, 62
1, 113303, Note_on_c, 0, 42, 59
1, 113308, Note_off_c, 0, 49, 59
1, 113335, Note_off_c, 0, 42, 63
1, 113400, Note_on_c, 0, 42, 80
1, 113423, Note_off_c, 0, 42, 68
1, 113486, Note_on_c, 0, 42, 57
1, 113527, Note_off_c, 0, 42, 60
1, 113552, Note_on_c, 0, 46, 57
1, 113562, Note_on_c, 0, 49, 53
1, 113590, Note_off_c, 0, 46, 62
1, 113627, Note_on_c, 0, 42, 54
1, 113652, Note_off_c, 0, 49, 52
1, 113656, Note_off_c, 0, 42, 62
1, 113709, Note_on_c, 0, 42, 66
1, 113743, Note_off_c, 0, 42, 65
1, 113809, Note_on_c, 0, 42, 52
1, 113836, Note_off_c, 0, 42, 58
1, 113870, Note_on_c, 0, 46, 50
1, 113885, Note_on_c, 0, 49, 49
1, 113907, Note_off_c, 0, 46, 58
1, 113945, Note_on_c, 0, 42, 55
1, 113980, Note_off_c, 0, 42, 64
1, 113989, Note_off_c, 0, 49, 48
1, 114022, Note_on_c, 0, 42, 68
1, 114054, Note_off_c, 0, 42, 65
1, 114114, Note_on_c, 0, 42, 50
1, 114144, Note_off_c, 0, 42, 57
1, 114171, Note_on_c, 0, 46, 58
1, 114190, Note_on_c, 0, 49, 51
1, 114210, Note_off_c, 0, 46, 62
1, 114240, Note_on_c, 0, 42, 59
1, 114290, Note_off_c, 0, 49, 48
1, 114294, Note_off_c, 0, 42, 61
1, 114314, Note_on_c, 0, 43, 82
1, 114382, Note_off_c, 0, 43, 50
1, 114395, Note_on_c, 0, 46, 61
1, 114398, Note_on_c, 0, 49, 60
1, 114414, Note_on_c, 0, 42, 42
1, 114434, Note_off_c, 0, 46, 60
1, 114441, Note_off_c, 0, 49, 61
1, 114448, Note_off_c, 0, 42, 45
1, 114475, Note_on_c, 0, 38, 67
1, 114539, Note_on_c, 0, 40, 63
1, 114543, Note_on_c, 0, 49, 61
1, 114543, Note_off_c, 0, 38, 64
1, 114545, Note_on_c, 0, 46, 53
1, 114568, Note_off_c, 0, 40, 65
1, 114591, Note_off_c, 0, 46, 59
1, 114611, Note_off_c, 0, 49, 51
1, 114627, Note_on_c, 0, 43, 75
1, 114691, Note_on_c, 0, 49, 53
1, 114691, Note_off_c, 0, 43, 58
1, 114693, Note_on_c, 0, 42, 62
1, 114693, Note_on_c, 0, 46, 57
1, 114740, Note_off_c, 0, 46, 59
1, 114742, Note_off_c, 0, 42, 59
1, 114754, Note_off_c, 0, 49, 55
1, 114793, Note_on_c, 0, 38, 67
1, 114843, Note_off_c, 0, 38, 61
1, 114856, Note_on_c, 0, 40, 54
1, 114862, Note_on_c, 0, 46, 45
1, 114892, Note_off_c, 0, 40, 65
1, 114902, Note_off_c, 0, 46, 58
1, 114950, Note_on_c, 0, 43, 62
1, 114996, Note_off_c, 0, 43, 57
1, 115012, Note_on_c, 0, 46, 42
1, 115013, Note_on_c, 0, 49, 53
1, 115044, Note_on_c, 0, 42, 34
1, 115063, Note_off_c, 0, 46, 58
1, 115075, Note_off_c, 0, 49, 58
1, 115080, Note_off_c, 0, 42, 47
1, 115110, Note_on_c, 0, 38, 58
1, 115166, Note_off_c, 0, 38, 61
1, 115184, Note_on_c, 0, 40, 54
1, 115188, Note_on_c, 0, 49, 53
1, 115198, Note_on_c, 0, 46, 39
1, 115213, Note_off_c, 0, 40, 61
1, 115233, Note_off_c, 0, 46, 54
1, 115235, Note_off_c, 0, 49, 60
1, 115260, Note_on_c, 0, 43, 59
1, 115301, Note_off_c, 0, 43, 61
1, 115337, Note_on_c, 0, 46, 47
1, 115350, Note_on_c, 0, 49, 45
1, 115378, Note_off_c, 0, 46, 61
1, 115387, Note_off_c, 0, 49, 59
1, 115435, Note_on_c, 0, 38, 62
1, 115477, Note_off_c, 0, 38, 63
1, 115500, Note_on_c, 0, 49, 54
1, 115502, Note_on_c, 0, 46, 38
1, 115524, Note_off_c, 0, 49, 60
1, 115528, Note_off_c, 0, 46, 48
1, 115611, Note_on_c, 0, 46, 72
1, 115619, Note_on_c, 0, 42, 59
1, 115623, Note_on_c, 0, 55, 62
1, 115642, Note_off_c, 0, 46, 63
1, 115644, Note_off_c, 0, 55, 64
1, 115645, Note_off_c, 0, 42, 60
1, 115696, Note_on_c, 0, 52, 64
1, 115725, Note_off_c, 0, 52, 67
1, 115776, Note_on_c, 0, 49, 73
1, 115800, Note_off_c, 0, 49, 66
1, 115862, Note_on_c, 0, 51, 27
1, 115863, Note_off_c, 0, 51, 127
1, 115876, Note_on_c, 0, 52, 46
1, 115908, Note_off_c, 0, 52, 0
1, 115925, Note_on_c, 0, 55, 74
1, 115930, Note_on_c, 0, 52, 50
1, 115936, Note_on_c, 0, 42, 58
1, 115940, Note_on_c, 0, 46, 52
1, 115960, Note_off_c, 0, 52, 68
1, 115966, Note_off_c, 0, 46, 58
1, 115969, Note_off_c, 0, 55, 64
1, 115970, Note_off_c, 0, 42, 64
1, 116023, Note_on_c, 0, 52, 53
1, 116052, Note_off_c, 0, 52, 35
1, 116088, Note_on_c, 0, 51, 71
1, 116089, Note_on_c, 0, 57, 69
1, 116091, Note_on_c, 0, 54, 59
1, 116119, Note_off_c, 0, 51, 63
1, 116121, Note_off_c, 0, 54, 63
1, 116124, Note_off_c, 0, 57, 60
1, 116169, Note_on_c, 0, 54, 58
1, 116199, Note_off_c, 0, 54, 64
1, 116250, Note_on_c, 0, 46, 78
1, 116251, Note_on_c, 0, 55, 80
1, 116252, Note_on_c, 0, 52, 75
1, 116256, Note_on_c, 0, 42, 65
1, 116279, Note_off_c, 0, 52, 66
1, 116280, Note_off_c, 0, 46, 62
1, 116287, Note_off_c, 0, 42, 63
1, 116288, Note_off_c, 0, 55, 65
1, 116337, Note_on_c, 0, 52, 74
1, 116368, Note_off_c, 0, 52, 66
1, 116419, Note_on_c, 0, 49, 68
1, 116443, Note_off_c, 0, 49, 66
1, 116493, Note_on_c, 0, 52, 74
1, 116530, Note_off_c, 0, 52, 63
1, 116562, Note_on_c, 0, 52, 51
1, 116568, Note_on_c, 0, 46, 56
1, 116568, Note_on_c, 0, 42, 56
1, 116568, Note_on_c, 0, 55, 68
1, 116590, Note_off_c, 0, 52, 66
1, 116601, Note_off_c, 0, 46, 63
1, 116604, Note_off_c, 0, 42, 64
1, 116607, Note_off_c, 0, 55, 63
1, 116654, Note_on_c, 0, 52, 70
1, 116675, Note_off_c, 0, 52, 67
1, 116721, Note_on_c, 0, 51, 69
1, 116724, Note_on_c, 0, 54, 63
1, 116731, Note_on_c, 0, 57, 67
1, 116751, Note_off_c, 0, 54, 64
1, 116759, Note_off_c, 0, 51, 61
1, 116771, Note_off_c, 0, 57, 60
1, 116808, Note_on_c, 0, 54, 63
1, 116835, Note_off_c, 0, 54, 64
1, 116876, Note_on_c, 0, 46, 72
1, 116878, Note_on_c, 0, 52, 69
1, 116881, Note_on_c, 0, 42, 56
1, 116886, Note_on_c, 0, 55, 76
1, 116913, Note_off_c, 0, 52, 69
1, 116922, Note_off_c, 0, 46, 64
1, 116928, Note_off_c, 0, 42, 63
1, 116938, Note_off_c, 0, 55, 66
1, 116983, Note_on_c, 0, 52, 64
1, 117005, Note_off_c, 0, 52, 65
1, 117052, Note_on_c, 0, 49, 67
1, 117078, Note_off_c, 0, 49, 66
1, 117119, Note_on_c, 0, 52, 64
1, 117176, Note_off_c, 0, 52, 0
1, 117192, Note_on_c, 0, 52, 48
1, 117197, Note_on_c, 0, 55, 69
1, 117202, Note_on_c, 0, 46, 55
1, 117206, Note_on_c, 0, 42, 54
1, 117231, Note_off_c, 0, 52, 68
1, 117238, Note_off_c, 0, 46, 63
1, 117241, Note_off_c, 0, 42, 63
1, 117244, Note_off_c, 0, 55, 64
1, 117283, Note_on_c, 0, 52, 60
1, 117307, Note_off_c, 0, 52, 66
1, 117354, Note_on_c, 0, 51, 71
1, 117356, Note_on_c, 0, 57, 73
1, 117357, Note_on_c, 0, 54, 68
1, 117383, Note_off_c, 0, 54, 64
1, 117389, Note_off_c, 0, 51, 62
1, 117400, Note_off_c, 0, 57, 58
1, 117440, Note_on_c, 0, 54, 79
1, 117478, Note_off_c, 0, 54, 63
1, 117503, Note_on_c, 0, 52, 74
1, 117516, Note_on_c, 0, 46, 60
1, 117522, Note_on_c, 0, 55, 75
1, 117539, Note_off_c, 0, 52, 64
1, 117557, Note_off_c, 0, 46, 61
1, 117578, Note_off_c, 0, 55, 61
1, 117602, Note_on_c, 0, 52, 53
1, 117629, Note_off_c, 0, 52, 66
1, 117671, Note_on_c, 0, 51, 72
1, 117673, Note_on_c, 0, 54, 70
1, 117680, Note_on_c, 0, 57, 64
1, 117700, Note_off_c, 0, 54, 63
1, 117707, Note_off_c, 0, 51, 62
1, 117710, Note_off_c, 0, 57, 63
1, 117757, Note_on_c, 0, 54, 72
1, 117789, Note_off_c, 0, 54, 63
1, 117831, Note_on_c, 0, 55, 78
1, 117832, Note_on_c, 0, 52, 73
1, 117832, Note_on_c, 0, 58, 78
1, 117856, Note_off_c, 0, 55, 69
1, 117866, Note_off_c, 0, 52, 66
1, 117895, Note_off_c, 0, 58, 64
1, 117906, Note_on_c, 0, 55, 69
1, 117941, Note_off_c, 0, 55, 63
1, 117982, Note_on_c, 0, 61, 73
1, 117988, Note_on_c, 0, 54, 75
1, 117996, Note_on_c, 0, 57, 61
1, 118016, Note_off_c, 0, 57, 60
1, 118021, Note_off_c, 0, 54, 63
1, 118048, Note_off_c, 0, 61, 52
1, 118057, Note_on_c, 0, 57, 65
1, 118085, Note_off_c, 0, 57, 64
1, 118183, Control_c, 0, 64, 59
1, 118189, Note_on_c, 0, 76, 76
1, 118198, Control_c, 0, 64, 68
1, 118205, Note_on_c, 0, 69, 64
1, 118213, Control_c, 0, 64, 72
1, 118218, Note_on_c, 0, 73, 34
1, 118228, Control_c, 0, 64, 75
1, 118234, Note_off_c, 0, 69, 68
1, 118243, Control_c, 0, 64, 78
1, 118252, Note_off_c, 0, 76, 62
1, 118258, Control_c, 0, 64, 82
1, 118271, Note_on_c, 0, 64, 72
1, 118272, Control_c, 0, 64, 84
1, 118287, Control_c, 0, 64, 87
1, 118302, Note_off_c, 0, 73, 24
1, 118302, Control_c, 0, 64, 89
1, 118306, Note_off_c, 0, 64, 58
1, 118317, Control_c, 0, 64, 91
1, 118332, Control_c, 0, 64, 94
1, 118336, Note_on_c, 0, 61, 65
1, 118338, Note_on_c, 0, 64, 54
1, 118346, Control_c, 0, 64, 96
1, 118361, Control_c, 0, 64, 97
1, 118362, Note_on_c, 0, 57, 29
1, 118363, Note_off_c, 0, 64, 69
1, 118376, Control_c, 0, 64, 99
1, 118398, Control_c, 0, 64, 99
1, 118403, Note_off_c, 0, 61, 61
1, 118413, Note_off_c, 0, 57, 53
1, 118413, Control_c, 0, 64, 100
1, 118415, Note_on_c, 0, 52, 73
1, 118428, Control_c, 0, 64, 101
1, 118437, Note_off_c, 0, 52, 69
1, 118443, Control_c, 0, 64, 102
1, 118458, Control_c, 0, 64, 102
1, 118501, Note_on_c, 0, 64, 71
1, 118510, Note_on_c, 0, 57, 59
1, 118518, Note_on_c, 0, 61, 67
1, 118538, Note_off_c, 0, 57, 63
1, 118581, Note_on_c, 0, 52, 69
1, 118603, Note_off_c, 0, 52, 70
1, 118604, Note_off_c, 0, 61, 56
1, 118607, Note_off_c, 0, 64, 57
1, 118654, Note_on_c, 0, 52, 75
1, 118717, Note_on_c, 0, 42, 68
1, 118725, Note_off_c, 0, 52, 62
1, 118759, Note_off_c, 0, 42, 64
1, 118768, Control_c, 0, 64, 98
1, 118783, Control_c, 0, 64, 86
1, 118797, Control_c, 0, 64, 69
1, 118811, Note_on_c, 0, 74, 77
1, 118812, Control_c, 0, 64, 0
1, 118816, Note_on_c, 0, 72, 78
1, 118830, Note_on_c, 0, 70, 65
1, 118858, Control_c, 0, 64, 65
1, 118863, Note_off_c, 0, 70, 60
1, 118873, Control_c, 0, 64, 76
1, 118888, Control_c, 0, 64, 85
1, 118902, Control_c, 0, 64, 92
1, 118904, Note_on_c, 0, 62, 77
1, 118914, Note_off_c, 0, 74, 60
1, 118917, Control_c, 0, 64, 96
1, 118932, Note_off_c, 0, 62, 65
1, 118932, Note_off_c, 0, 72, 63
1, 118932, Control_c, 0, 64, 99
1, 118947, Control_c, 0, 64, 103
1, 118962, Control_c, 0, 64, 107
1, 118970, Note_on_c, 0, 62, 64
1, 118971, Note_on_c, 0, 58, 64
1, 118976, Control_c, 0, 64, 111
1, 118991, Control_c, 0, 64, 114
1, 118995, Note_off_c, 0, 62, 68
1, 119006, Control_c, 0, 64, 115
1, 119021, Control_c, 0, 64, 117
1, 119023, Note_off_c, 0, 58, 63
1, 119036, Control_c, 0, 64, 118
1, 119048, Note_on_c, 0, 50, 71
1, 119051, Control_c, 0, 64, 118
1, 119066, Control_c, 0, 64, 119
1, 119077, Note_off_c, 0, 50, 65
1, 119110, Control_c, 0, 64, 119
1, 119123, Note_on_c, 0, 62, 79
1, 119134, Note_on_c, 0, 58, 79
1, 119137, Note_on_c, 0, 60, 58
1, 119184, Note_off_c, 0, 60, 56
1, 119202, Note_off_c, 0, 58, 59
1, 119224, Note_on_c, 0, 50, 69
1, 119244, Note_off_c, 0, 50, 64
1, 119246, Note_off_c, 0, 62, 35
1, 119294, Note_on_c, 0, 50, 68
1, 119358, Note_on_c, 0, 42, 74
1, 119364, Note_off_c, 0, 50, 61
1, 119369, Control_c, 0, 64, 119
1, 119384, Control_c, 0, 64, 116
1, 119396, Note_off_c, 0, 42, 64
1, 119399, Control_c, 0, 64, 99
1, 119414, Control_c, 0, 64, 81
1, 119428, Control_c, 0, 64, 59
1, 119443, Control_c, 0, 64, 0
1, 119444, Note_on_c, 0, 74, 78
1, 119450, Note_on_c, 0, 72, 73
1, 119455, Note_on_c, 0, 70, 72
1, 119473, Control_c, 0, 64, 66
1, 119486, Note_off_c, 0, 70, 60
1, 119488, Control_c, 0, 64, 79
1, 119502, Control_c, 0, 64, 91
1, 119517, Control_c, 0, 64, 95
1, 119526, Note_on_c, 0, 62, 78
1, 119532, Control_c, 0, 64, 96
1, 119547, Control_c, 0, 64, 99
1, 119551, Note_off_c, 0, 62, 68
1, 119556, Note_off_c, 0, 74, 63
1, 119562, Control_c, 0, 64, 103
1, 119568, Note_off_c, 0, 72, 63
1, 119576, Control_c, 0, 64, 107
1, 119591, Control_c, 0, 64, 112
1, 119599, Note_on_c, 0, 58, 65
1, 119606, Note_on_c, 0, 62, 70
1, 119606, Control_c, 0, 64, 115
1, 119622, Control_c, 0, 64, 116
1, 119631, Note_off_c, 0, 58, 66
1, 119634, Note_off_c, 0, 62, 66
1, 119637, Control_c, 0, 64, 117
1, 119681, Control_c, 0, 64, 115
1, 119688, Note_on_c, 0, 50, 75
1, 119696, Control_c, 0, 64, 101
1, 119711, Control_c, 0, 64, 81
1, 119721, Note_off_c, 0, 50, 62
1, 119725, Control_c, 0, 64, 52
1, 119740, Control_c, 0, 64, 0
1, 119745, Note_on_c, 0, 76, 83
1, 119751, Note_on_c, 0, 73, 80
1, 119756, Note_on_c, 0, 69, 75
1, 119770, Control_c, 0, 64, 65
1, 119785, Control_c, 0, 64, 80
1, 119799, Control_c, 0, 64, 92
1, 119814, Control_c, 0, 64, 98
1, 119825, Note_on_c, 0, 64, 74
1, 119827, Note_off_c, 0, 76, 65
1, 119829, Control_c, 0, 64, 100
1, 119835, Note_off_c, 0, 69, 64
1, 119838, Note_off_c, 0, 73, 66
1, 119844, Control_c, 0, 64, 103
1, 119859, Note_off_c, 0, 64, 64
1, 119859, Control_c, 0, 64, 109
1, 119874, Control_c, 0, 64, 117
1, 119896, Control_c, 0, 64, 124
1, 119903, Note_on_c, 0, 56, 45
1, 119911, Control_c, 0, 64, 127
1, 119913, Note_on_c, 0, 61, 71
1, 119921, Note_on_c, 0, 64, 58
1, 119951, Note_off_c, 0, 64, 65
1, 119972, Note_off_c, 0, 61, 62
1, 119979, Note_off_c, 0, 56, 64
1, 120007, Note_on_c, 0, 52, 73
1, 120026, Note_off_c, 0, 52, 65
1, 120029, Control_c, 0, 64, 116
1, 120043, Control_c, 0, 64, 92
1, 120053, Note_on_c, 0, 64, 76
1, 120056, Note_on_c, 0, 67, 89
1, 120058, Control_c, 0, 64, 69
1, 120060, Note_on_c, 0, 60, 80
1, 120073, Control_c, 0, 64, 0
1, 120074, Poly_aftertouch_c, 0, 57, 0
1, 120103, Control_c, 0, 64, 67
1, 120118, Control_c, 0, 64, 80
1, 120130, Note_on_c, 0, 55, 86
1, 120133, Control_c, 0, 64, 93
1, 120148, Control_c, 0, 64, 101
1, 120151, Note_off_c, 0, 60, 60
1, 120154, Note_off_c, 0, 55, 70
1, 120163, Control_c, 0, 64, 103
1, 120172, Note_off_c, 0, 67, 60
1, 120178, Control_c, 0, 64, 105
1, 120190, Note_off_c, 0, 64, 63
1, 120192, Control_c, 0, 64, 110
1, 120207, Control_c, 0, 64, 119
1, 120221, Note_on_c, 0, 55, 78
1, 120222, Control_c, 0, 64, 127
1, 120253, Note_off_c, 0, 55, 65
1, 120284, Note_on_c, 0, 42, 76
1, 120326, Control_c, 0, 64, 123
1, 120341, Control_c, 0, 64, 95
1, 120342, Note_off_c, 0, 42, 63
1, 120356, Control_c, 0, 64, 68
1, 120365, Note_on_c, 0, 70, 88
1, 120368, Note_on_c, 0, 67, 73
1, 120369, Note_on_c, 0, 64, 80
1, 120370, Control_c, 0, 64, 0
1, 120416, Control_c, 0, 64, 70
1, 120431, Control_c, 0, 64, 83
1, 120446, Note_on_c, 0, 58, 85
1, 120446, Control_c, 0, 64, 97
1, 120461, Control_c, 0, 64, 101
1, 120463, Note_off_c, 0, 64, 63
1, 120474, Note_off_c, 0, 58, 63
1, 120475, Control_c, 0, 64, 105
1, 120479, Note_off_c, 0, 70, 58
1, 120485, Note_off_c, 0, 67, 58
1, 120490, Control_c, 0, 64, 111
1, 120505, Control_c, 0, 64, 122
1, 120520, Control_c, 0, 64, 127
1, 120525, Note_on_c, 0, 64, 70
1, 120589, Note_on_c, 0, 58, 79
1, 120604, Note_off_c, 0, 64, 63
1, 120633, Note_off_c, 0, 58, 62
1, 120697, Note_on_c, 0, 76, 90
1, 120702, Note_on_c, 0, 68, 88
1, 120705, Control_c, 0, 64, 98
1, 120720, Control_c, 0, 64, 74
1, 120735, Control_c, 0, 64, 0
1, 120776, Note_on_c, 0, 64, 81
1, 120779, Control_c, 0, 64, 66
1, 120780, Note_off_c, 0, 76, 64
1, 120792, Note_off_c, 0, 68, 65
1, 120794, Control_c, 0, 64, 76
1, 120809, Note_off_c, 0, 64, 66
1, 120809, Control_c, 0, 64, 82
1, 120823, Control_c, 0, 64, 84
1, 120838, Control_c, 0, 64, 85
1, 120853, Control_c, 0, 64, 87
1, 120860, Note_on_c, 0, 64, 71
1, 120867, Control_c, 0, 64, 89
1, 120882, Control_c, 0, 64, 92
1, 120894, Note_off_c, 0, 64, 63
1, 120896, Note_on_c, 0, 58, 44
1, 120897, Control_c, 0, 64, 95
1, 120912, Control_c, 0, 64, 97
1, 120921, Note_off_c, 0, 58, 57
1, 120927, Control_c, 0, 64, 98
1, 120934, Note_on_c, 0, 52, 69
1, 120941, Control_c, 0, 64, 99
1, 120956, Control_c, 0, 64, 101
1, 120960, Note_off_c, 0, 52, 68
1, 120971, Control_c, 0, 64, 104
1, 120986, Control_c, 0, 64, 106
1, 121000, Control_c, 0, 64, 107
1, 121030, Control_c, 0, 64, 104
1, 121033, Note_on_c, 0, 64, 75
1, 121045, Control_c, 0, 64, 94
1, 121060, Control_c, 0, 64, 81
1, 121075, Control_c, 0, 64, 67
1, 121090, Control_c, 0, 64, 0
1, 121100, Note_off_c, 0, 64, 56
1, 121111, Note_on_c, 0, 52, 69
1, 121164, Control_c, 0, 64, 10
1, 121179, Control_c, 0, 64, 58
1, 121193, Control_c, 0, 64, 63
1, 121209, Control_c, 0, 64, 64
1, 121221, Note_off_c, 0, 52, 59
1, 121231, Note_on_c, 0, 40, 53
1, 121254, Control_c, 0, 64, 63
1, 121260, Note_off_c, 0, 40, 57
1, 121269, Control_c, 0, 64, 60
1, 121284, Control_c, 0, 64, 51
1, 121298, Control_c, 0, 64, 32
1, 121313, Control_c, 0, 64, 0
1, 121351, Note_on_c, 0, 52, 76
1, 121352, Note_on_c, 0, 62, 62
1, 121355, Note_on_c, 0, 64, 62
1, 121357, Note_on_c, 0, 56, 57
1, 121376, Note_off_c, 0, 52, 69
1, 121383, Note_off_c, 0, 56, 64
1, 121404, Note_off_c, 0, 64, 64
1, 121412, Note_off_c, 0, 62, 60
1, 121442, Note_on_c, 0, 52, 68
1, 121469, Note_off_c, 0, 52, 66
1, 121530, Note_on_c, 0, 67, 68
1, 121531, Note_on_c, 0, 65, 66
1, 121533, Note_on_c, 0, 59, 68
1, 121534, Note_on_c, 0, 55, 69
1, 121555, Note_off_c, 0, 55, 67
1, 121558, Note_off_c, 0, 59, 66
1, 121566, Note_off_c, 0, 65, 62
1, 121572, Note_off_c, 0, 67, 63
1, 121621, Note_on_c, 0, 55, 64
1, 121641, Note_off_c, 0, 55, 64
1, 121687, Note_on_c, 0, 64, 71
1, 121689, Note_on_c, 0, 52, 77
1, 121689, Note_on_c, 0, 56, 70
1, 121695, Note_on_c, 0, 62, 56
1, 121714, Note_off_c, 0, 52, 69
1, 121716, Note_off_c, 0, 56, 64
1, 121722, Note_off_c, 0, 62, 63
1, 121737, Note_off_c, 0, 64, 64
1, 121766, Note_on_c, 0, 52, 76
1, 121793, Note_off_c, 0, 52, 69
1, 121840, Note_on_c, 0, 53, 78
1, 121845, Note_on_c, 0, 65, 69
1, 121847, Note_on_c, 0, 63, 68
1, 121848, Note_on_c, 0, 57, 65
1, 121864, Note_off_c, 0, 53, 69
1, 121876, Note_off_c, 0, 57, 64
1, 121885, Note_off_c, 0, 65, 58
1, 121895, Note_off_c, 0, 63, 61
1, 121927, Note_on_c, 0, 53, 65
1, 121956, Note_off_c, 0, 53, 67
1, 121999, Note_on_c, 0, 62, 72
1, 122005, Note_on_c, 0, 50, 71
1, 122008, Note_on_c, 0, 60, 58
1, 122008, Note_on_c, 0, 54, 62
1, 122030, Note_off_c, 0, 50, 67
1, 122041, Note_off_c, 0, 54, 61
1, 122044, Note_off_c, 0, 60, 62
1, 122061, Note_off_c, 0, 62, 62
1, 122085, Note_on_c, 0, 50, 76
1, 122111, Note_off_c, 0, 50, 65
1, 122169, Note_on_c, 0, 60, 67
1, 122170, Note_on_c, 0, 48, 69
1, 122171, Note_on_c, 0, 52, 63
1, 122175, Note_on_c, 0, 58, 65
1, 122195, Note_off_c, 0, 48, 67
1, 122199, Note_off_c, 0, 52, 66
1, 122217, Note_off_c, 0, 60, 61
1, 122231, Note_off_c, 0, 58, 62
1, 122255, Note_on_c, 0, 48, 69
1, 122283, Note_off_c, 0, 48, 65
1, 122325, Note_on_c, 0, 45, 68
1, 122327, Note_on_c, 0, 57, 68
1, 122330, Note_on_c, 0, 49, 71
1, 122343, Note_on_c, 0, 55, 49
1, 122356, Note_off_c, 0, 45, 65
1, 122364, Note_off_c, 0, 49, 62
1, 122372, Note_off_c, 0, 55, 60
1, 122383, Note_off_c, 0, 57, 63
1, 122409, Note_on_c, 0, 45, 78
1, 122432, Note_off_c, 0, 45, 68
1, 122488, Note_on_c, 0, 48, 68
1, 122492, Note_on_c, 0, 60, 79
1, 122500, Note_on_c, 0, 52, 64
1, 122517, Note_off_c, 0, 48, 67
1, 122530, Note_off_c, 0, 52, 67
1, 122544, Note_off_c, 0, 60, 62
1, 122580, Note_on_c, 0, 48, 71
1, 122609, Note_off_c, 0, 48, 66
1, 122639, Note_on_c, 0, 40, 86
1, 122653, Note_on_c, 0, 52, 73
1, 122655, Note_on_c, 0, 46, 67
1, 122656, Note_on_c, 0, 55, 67
1, 122685, Note_off_c, 0, 46, 64
1, 122689, Note_off_c, 0, 52, 66
1, 122696, Note_off_c, 0, 55, 64
1, 122738, Note_on_c, 0, 43, 66
1, 122738, Note_off_c, 0, 40, 0
1, 122757, Note_on_c, 0, 40, 40
1, 122765, Note_off_c, 0, 43, 63
1, 122819, Note_on_c, 0, 43, 72
1, 122843, Note_off_c, 0, 43, 65
1, 122906, Note_on_c, 0, 43, 74
1, 122935, Note_off_c, 0, 43, 63
1, 122989, Note_on_c, 0, 45, 82
1, 122993, Note_on_c, 0, 57, 69
1, 122997, Note_on_c, 0, 49, 74
1, 123010, Note_off_c, 0, 45, 69
1, 123015, Note_off_c, 0, 40, 59
1, 123021, Note_off_c, 0, 57, 66
1, 123025, Note_off_c, 0, 49, 66
1, 123064, Note_on_c, 0, 45, 70
1, 123096, Note_off_c, 0, 45, 65
1, 123153, Note_on_c, 0, 45, 72
1, 123173, Note_off_c, 0, 45, 67
1, 123230, Note_on_c, 0, 45, 56
1, 123254, Note_off_c, 0, 45, 61
1, 123334, Note_on_c, 0, 64, 81
1, 123334, Note_on_c, 0, 52, 82
1, 123342, Note_on_c, 0, 56, 75
1, 123346, Note_on_c, 0, 62, 53
1, 123351, Control_c, 0, 64, 30
1, 123355, Note_off_c, 0, 52, 70
1, 123366, Control_c, 0, 64, 64
1, 123367, Note_off_c, 0, 64, 62
1, 123369, Note_off_c, 0, 56, 64
1, 123373, Note_off_c, 0, 62, 54
1, 123381, Control_c, 0, 64, 68
1, 123395, Control_c, 0, 64, 70
1, 123410, Control_c, 0, 64, 71
1, 123416, Note_on_c, 0, 52, 71
1, 123425, Control_c, 0, 64, 73
1, 123440, Control_c, 0, 64, 75
1, 123442, Note_off_c, 0, 52, 70
1, 123455, Control_c, 0, 64, 76
1, 123469, Control_c, 0, 64, 77
1, 123484, Control_c, 0, 64, 78
1, 123514, Control_c, 0, 64, 78
1, 123534, Note_on_c, 0, 52, 33
1, 123547, Note_on_c, 0, 47, 57
1, 123567, Note_off_c, 0, 52, 0
1, 123573, Note_off_c, 0, 47, 59
1, 123585, Note_on_c, 0, 52, 40
1, 123588, Control_c, 0, 64, 76
1, 123603, Control_c, 0, 64, 71
1, 123613, Note_off_c, 0, 52, 52
1, 123618, Control_c, 0, 64, 61
1, 123641, Control_c, 0, 64, 0
1, 123683, Note_on_c, 0, 52, 60
1, 123686, Note_on_c, 0, 40, 54
1, 123704, Note_off_c, 0, 52, 62
1, 123724, Note_off_c, 0, 40, 64
1, 123770, Note_on_c, 0, 52, 64
1, 123790, Note_off_c, 0, 52, 65
1, 123835, Note_on_c, 0, 47, 65
1, 123863, Note_off_c, 0, 47, 66
1, 123864, Note_on_c, 0, 52, 36
1, 123865, Note_off_c, 0, 52, 127
1, 123921, Note_on_c, 0, 52, 38
1, 123952, Note_off_c, 0, 52, 64
1, 123993, Note_on_c, 0, 52, 71
1, 124001, Note_on_c, 0, 64, 65
1, 124004, Note_on_c, 0, 56, 64
1, 124010, Note_on_c, 0, 62, 53
1, 124023, Note_off_c, 0, 52, 69
1, 124032, Note_off_c, 0, 56, 65
1, 124038, Note_off_c, 0, 62, 61
1, 124047, Note_off_c, 0, 64, 65
1, 124080, Note_on_c, 0, 52, 77
1, 124105, Note_off_c, 0, 52, 70
1, 124169, Note_on_c, 0, 67, 73
1, 124172, Note_on_c, 0, 65, 64
1, 124172, Note_on_c, 0, 59, 65
1, 124174, Note_on_c, 0, 55, 63
1, 124193, Note_off_c, 0, 55, 64
1, 124199, Note_off_c, 0, 59, 65
1, 124203, Note_off_c, 0, 65, 66
1, 124210, Note_off_c, 0, 67, 63
1, 124257, Note_on_c, 0, 55, 63
1, 124276, Note_off_c, 0, 55, 65
1, 124319, Note_on_c, 0, 64, 71
1, 124321, Note_on_c, 0, 52, 78
1, 124321, Note_on_c, 0, 56, 69
1, 124328, Note_on_c, 0, 62, 53
1, 124346, Note_off_c, 0, 52, 70
1, 124349, Note_off_c, 0, 56, 64
1, 124352, Note_off_c, 0, 62, 59
1, 124363, Note_off_c, 0, 64, 65
1, 124407, Note_on_c, 0, 52, 69
1, 124433, Note_off_c, 0, 52, 67
1, 124480, Note_on_c, 0, 65, 77
1, 124482, Note_on_c, 0, 57, 70
1, 124483, Note_on_c, 0, 53, 74
1, 124485, Note_on_c, 0, 63, 67
1, 124507, Note_off_c, 0, 53, 69
1, 124509, Note_off_c, 0, 57, 65
1, 124524, Note_off_c, 0, 65, 64
1, 124530, Note_off_c, 0, 63, 61
1, 124559, Note_on_c, 0, 53, 74
1, 124584, Note_off_c, 0, 53, 67
1, 124628, Note_on_c, 0, 62, 75
1, 124641, Note_on_c, 0, 54, 65
1, 124641, Note_on_c, 0, 60, 54
1, 124642, Note_on_c, 0, 50, 75
1, 124671, Note_off_c, 0, 50, 66
1, 124677, Note_off_c, 0, 54, 61
1, 124679, Note_off_c, 0, 60, 63
1, 124690, Note_off_c, 0, 62, 62
1, 124724, Note_on_c, 0, 50, 68
1, 124753, Note_off_c, 0, 50, 65
1, 124793, Note_on_c, 0, 60, 64
1, 124797, Note_on_c, 0, 48, 65
1, 124797, Note_on_c, 0, 52, 63
1, 124801, Note_on_c, 0, 58, 63
1, 124826, Note_off_c, 0, 48, 67
1, 124828, Note_off_c, 0, 52, 67
1, 124841, Note_off_c, 0, 60, 61
1, 124841, Note_off_c, 0, 58, 62
1, 124898, Note_on_c, 0, 48, 52
1, 124927, Note_off_c, 0, 48, 35
1, 124950, Note_on_c, 0, 45, 63
1, 124953, Note_on_c, 0, 57, 71
1, 124958, Note_on_c, 0, 49, 69
1, 124978, Note_off_c, 0, 45, 66
1, 124990, Note_off_c, 0, 49, 61
1, 125010, Note_off_c, 0, 57, 63
1, 125036, Note_on_c, 0, 45, 74
1, 125059, Note_off_c, 0, 45, 68
1, 125118, Note_on_c, 0, 60, 76
1, 125120, Note_on_c, 0, 48, 64
1, 125125, Note_on_c, 0, 52, 67
1, 125150, Note_off_c, 0, 48, 66
1, 125162, Note_off_c, 0, 52, 68
1, 125174, Note_off_c, 0, 60, 60
1, 125226, Note_on_c, 0, 48, 63
1, 125256, Note_off_c, 0, 48, 67
1, 125283, Note_on_c, 0, 43, 69
1, 125284, Note_on_c, 0, 53, 59
1, 125287, Note_on_c, 0, 55, 59
1, 125311, Note_off_c, 0, 43, 63
1, 125314, Note_off_c, 0, 53, 67
1, 125320, Note_off_c, 0, 55, 65
1, 125363, Note_on_c, 0, 47, 63
1, 125388, Note_off_c, 0, 47, 60
1, 125440, Note_on_c, 0, 46, 69
1, 125442, Note_on_c, 0, 58, 65
1, 125446, Note_on_c, 0, 56, 53
1, 125473, Note_off_c, 0, 56, 57
1, 125478, Note_off_c, 0, 46, 61
1, 125481, Note_off_c, 0, 58, 63
1, 125521, Note_on_c, 0, 50, 62
1, 125549, Note_off_c, 0, 50, 65
1, 125601, Note_on_c, 0, 43, 64
1, 125605, Note_on_c, 0, 53, 64
1, 125606, Note_on_c, 0, 55, 60
1, 125633, Note_off_c, 0, 43, 61
1, 125641, Note_off_c, 0, 53, 66
1, 125647, Note_off_c, 0, 55, 62
1, 125687, Note_on_c, 0, 47, 65
1, 125716, Note_off_c, 0, 47, 66
1, 125773, Note_on_c, 0, 40, 64
1, 125776, Note_on_c, 0, 52, 55
1, 125782, Note_on_c, 0, 50, 49
1, 125801, Note_off_c, 0, 40, 65
1, 125815, Note_off_c, 0, 52, 65
1, 125831, Note_off_c, 0, 50, 60
1, 125887, Note_on_c, 0, 44, 58
1, 125921, Note_off_c, 0, 44, 64
1, 125957, Note_on_c, 0, 50, 58
1, 125963, Note_on_c, 0, 41, 64
1, 125993, Note_off_c, 0, 41, 66
1, 126038, Note_off_c, 0, 50, 58
1, 126060, Note_on_c, 0, 46, 57
1, 126098, Note_off_c, 0, 46, 60
1, 126148, Note_on_c, 0, 53, 50
1, 126150, Note_on_c, 0, 44, 60
1, 126181, Note_off_c, 0, 44, 65
1, 126214, Note_off_c, 0, 53, 55
1, 126243, Note_on_c, 0, 49, 54
1, 126294, Note_off_c, 0, 49, 56
1, 126340, Note_on_c, 0, 50, 55
1, 126341, Note_on_c, 0, 41, 59
1, 126372, Note_off_c, 0, 41, 66
1, 126390, Note_off_c, 0, 50, 60
1, 126428, Note_on_c, 0, 47, 58
1, 126465, Note_off_c, 0, 47, 64
1, 126530, Note_on_c, 0, 48, 50
1, 126541, Note_on_c, 0, 40, 59
1, 126572, Note_off_c, 0, 40, 62
1, 126575, Note_off_c, 0, 48, 63
1, 126607, Note_on_c, 0, 44, 56
1, 126645, Note_off_c, 0, 44, 63
1, 126736, Note_on_c, 0, 52, 71
1, 126739, Note_on_c, 0, 45, 66
1, 126746, Note_on_c, 0, 38, 57
1, 126762, Note_off_c, 0, 45, 65
1, 126767, Note_off_c, 0, 52, 66
1, 126774, Note_off_c, 0, 38, 59
1, 126819, Note_on_c, 0, 48, 62
1, 126851, Note_off_c, 0, 48, 67
1, 126921, Note_on_c, 0, 45, 56
1, 126953, Note_off_c, 0, 45, 65
1, 126994, Note_on_c, 0, 48, 60
1, 127025, Note_off_c, 0, 48, 66
1, 127067, Note_on_c, 0, 45, 68
1, 127070, Note_on_c, 0, 52, 75
1, 127072, Note_on_c, 0, 38, 62
1, 127092, Note_off_c, 0, 45, 67
1, 127098, Note_off_c, 0, 52, 68
1, 127101, Note_off_c, 0, 38, 64
1, 127162, Note_on_c, 0, 48, 64
1, 127198, Note_off_c, 0, 48, 65
1, 127242, Note_on_c, 0, 47, 75
1, 127243, Note_on_c, 0, 54, 70
1, 127260, Note_on_c, 0, 50, 51
1, 127266, Note_off_c, 0, 47, 67
1, 127288, Note_off_c, 0, 50, 51
1, 127290, Note_off_c, 0, 54, 59
1, 127334, Note_on_c, 0, 50, 58
1, 127365, Note_off_c, 0, 50, 65
1, 127417, Note_on_c, 0, 38, 71
1, 127417, Note_on_c, 0, 45, 77
1, 127417, Note_on_c, 0, 52, 79
1, 127439, Note_off_c, 0, 45, 67
1, 127441, Note_off_c, 0, 38, 66
1, 127458, Note_off_c, 0, 52, 65
1, 127498, Note_on_c, 0, 48, 72
1, 127540, Note_off_c, 0, 48, 66
1, 127580, Note_on_c, 0, 45, 57
1, 127618, Note_off_c, 0, 45, 65
1, 127654, Note_on_c, 0, 48, 70
1, 127689, Note_off_c, 0, 48, 64
1, 127741, Note_on_c, 0, 52, 64
1, 127743, Note_on_c, 0, 45, 69
1, 127755, Note_on_c, 0, 38, 54
1, 127770, Note_off_c, 0, 45, 66
1, 127772, Note_off_c, 0, 52, 66
1, 127785, Note_off_c, 0, 38, 60
1, 127819, Note_on_c, 0, 48, 68
1, 127845, Note_off_c, 0, 48, 68
1, 127903, Note_on_c, 0, 47, 74
1, 127904, Note_on_c, 0, 54, 66
1, 127916, Note_on_c, 0, 50, 52
1, 127931, Note_off_c, 0, 47, 66
1, 127943, Note_off_c, 0, 50, 54
1, 127951, Note_off_c, 0, 54, 58
1, 127985, Note_on_c, 0, 50, 56
1, 128018, Note_off_c, 0, 50, 65
1, 128064, Note_on_c, 0, 52, 75
1, 128069, Note_on_c, 0, 45, 75
1, 128074, Note_on_c, 0, 38, 63
1, 128092, Note_off_c, 0, 45, 68
1, 128106, Note_off_c, 0, 52, 65
1, 128107, Note_off_c, 0, 38, 64
1, 128146, Note_on_c, 0, 48, 69
1, 128195, Note_off_c, 0, 48, 64
1, 128229, Note_on_c, 0, 45, 59
1, 128262, Note_off_c, 0, 45, 65
1, 128304, Note_on_c, 0, 48, 68
1, 128347, Note_off_c, 0, 48, 64
1, 128381, Note_on_c, 0, 45, 63
1, 128385, Note_on_c, 0, 52, 64
1, 128397, Note_on_c, 0, 38, 48
1, 128417, Note_off_c, 0, 45, 64
1, 128418, Note_off_c, 0, 52, 66
1, 128430, Note_off_c, 0, 38, 60
1, 128462, Note_on_c, 0, 48, 65
1, 128491, Note_off_c, 0, 48, 67
1, 128545, Note_on_c, 0, 47, 75
1, 128546, Note_on_c, 0, 54, 72
1, 128548, Note_on_c, 0, 50, 69
1, 128576, Note_off_c, 0, 47, 66
1, 128578, Note_off_c, 0, 50, 64
1, 128611, Note_off_c, 0, 54, 58
1, 128632, Note_on_c, 0, 50, 68
1, 128656, Note_off_c, 0, 50, 65
1, 128696, Note_on_c, 0, 48, 73
1, 128705, Note_on_c, 0, 55, 71
1, 128713, Note_on_c, 0, 51, 42
1, 128714, Note_off_c, 0, 51, 127
1, 128735, Note_off_c, 0, 55, 64
1, 128737, Note_off_c, 0, 48, 67
1, 128748, Note_on_c, 0, 50, 23
1, 128749, Note_off_c, 0, 50, 127
1, 128792, Note_on_c, 0, 51, 66
1, 128825, Note_off_c, 0, 51, 61
1, 128849, Note_on_c, 0, 52, 72
1, 128855, Note_on_c, 0, 49, 70
1, 128859, Note_on_c, 0, 56, 76
1, 128884, Note_off_c, 0, 52, 67
1, 128898, Note_off_c, 0, 49, 64
1, 128915, Note_off_c, 0, 56, 55
1, 128941, Note_on_c, 0, 52, 79
1, 128969, Note_off_c, 0, 52, 68
1, 129012, Note_on_c, 0, 53, 82
1, 129017, Note_on_c, 0, 57, 71
1, 129022, Note_on_c, 0, 50, 68
1, 129039, Note_off_c, 0, 53, 69
1, 129052, Note_off_c, 0, 50, 65
1, 129069, Note_off_c, 0, 57, 58
1, 129095, Note_on_c, 0, 53, 61
1, 129125, Note_off_c, 0, 53, 67
1, 129169, Note_on_c, 0, 60, 72
1, 129170, Note_on_c, 0, 56, 75
1, 129176, Note_on_c, 0, 51, 64
1, 129193, Note_off_c, 0, 56, 67
1, 129205, Note_off_c, 0, 51, 63
1, 129231, Note_off_c, 0, 60, 62
1, 129240, Note_on_c, 0, 55, 63
1, 129267, Note_off_c, 0, 55, 67
1, 129339, Note_on_c, 0, 52, 80
1, 129345, Note_on_c, 0, 45, 72
1, 129346, Note_on_c, 0, 38, 64
1, 129372, Note_off_c, 0, 45, 66
1, 129382, Note_off_c, 0, 52, 64
1, 129386, Note_off_c, 0, 38, 62
1, 129416, Note_on_c, 0, 48, 69
1, 129475, Note_off_c, 0, 48, 60
1, 129503, Note_on_c, 0, 45, 61
1, 129535, Note_off_c, 0, 45, 66
1, 129578, Note_on_c, 0, 48, 73
1, 129630, Note_off_c, 0, 48, 63
1, 129651, Note_on_c, 0, 45, 70
1, 129664, Note_on_c, 0, 38, 54
1, 129669, Note_on_c, 0, 52, 68
1, 129688, Note_off_c, 0, 45, 66
1, 129702, Note_off_c, 0, 38, 63
1, 129704, Note_off_c, 0, 52, 65
1, 129736, Note_on_c, 0, 48, 73
1, 129763, Note_off_c, 0, 48, 66
1, 129817, Note_on_c, 0, 47, 75
1, 129824, Note_on_c, 0, 50, 71
1, 129826, Note_on_c, 0, 54, 72
1, 129859, Note_off_c, 0, 50, 64
1, 129860, Note_off_c, 0, 47, 65
1, 129890, Note_off_c, 0, 54, 61
1, 129898, Note_on_c, 0, 50, 67
1, 129932, Note_off_c, 0, 50, 64
1, 129981, Note_on_c, 0, 51, 81
1, 129982, Note_on_c, 0, 48, 72
1, 129991, Note_on_c, 0, 55, 62
1, 130019, Note_off_c, 0, 55, 65
1, 130021, Note_off_c, 0, 48, 67
1, 130025, Note_off_c, 0, 51, 62
1, 130071, Note_on_c, 0, 51, 65
1, 130113, Note_off_c, 0, 51, 62
1, 130140, Note_on_c, 0, 49, 75
1, 130140, Note_on_c, 0, 52, 71
1, 130146, Note_on_c, 0, 56, 69
1, 130170, Note_off_c, 0, 52, 69
1, 130183, Note_off_c, 0, 49, 64
1, 130192, Note_off_c, 0, 56, 58
1, 130219, Note_on_c, 0, 52, 72
1, 130242, Note_off_c, 0, 52, 69
1, 130295, Note_on_c, 0, 53, 80
1, 130300, Note_on_c, 0, 57, 62
1, 130307, Note_on_c, 0, 50, 65
1, 130326, Note_off_c, 0, 53, 64
1, 130334, Note_off_c, 0, 57, 62
1, 130339, Note_off_c, 0, 50, 64
1, 130377, Note_on_c, 0, 53, 59
1, 130418, Note_off_c, 0, 53, 64
1, 130465, Note_on_c, 0, 51, 66
1, 130468, Note_on_c, 0, 60, 71
1, 130471, Note_on_c, 0, 56, 67
1, 130498, Note_off_c, 0, 51, 61
1, 130498, Note_off_c, 0, 60, 63
1, 130500, Note_off_c, 0, 56, 64
1, 130514, Note_on_c, 0, 55, 59
1, 130544, Note_off_c, 0, 55, 65
1, 130628, Note_on_c, 0, 64, 68
1, 130630, Note_on_c, 0, 50, 62
1, 130631, Control_c, 0, 64, 60
1, 130632, Note_on_c, 0, 55, 59
1, 130632, Note_on_c, 0, 59, 63
1, 130646, Control_c, 0, 64, 66
1, 130658, Note_off_c, 0, 55, 67
1, 130658, Note_off_c, 0, 59, 65
1, 130660, Control_c, 0, 64, 68
1, 130671, Note_off_c, 0, 50, 66
1, 130675, Control_c, 0, 64, 69
1, 130688, Note_off_c, 0, 64, 60
1, 130690, Control_c, 0, 64, 71
1, 130705, Control_c, 0, 64, 74
1, 130708, Note_on_c, 0, 59, 66
1, 130720, Control_c, 0, 64, 76
1, 130734, Control_c, 0, 64, 78
1, 130758, Note_off_c, 0, 59, 62
1, 130764, Control_c, 0, 64, 78
1, 130786, Note_on_c, 0, 55, 67
1, 130793, Control_c, 0, 64, 79
1, 130799, Note_on_c, 0, 38, 68
1, 130824, Control_c, 0, 64, 79
1, 130832, Note_off_c, 0, 38, 63
1, 130842, Note_off_c, 0, 55, 64
1, 130855, Note_on_c, 0, 59, 73
1, 130905, Note_off_c, 0, 59, 59
1, 130934, Note_on_c, 0, 64, 76
1, 130944, Poly_aftertouch_c, 0, 59, 0
1, 130950, Note_on_c, 0, 50, 67
1, 130950, Note_on_c, 0, 59, 52
1, 130956, Note_on_c, 0, 55, 64
1, 130976, Note_off_c, 0, 55, 66
1, 130981, Note_off_c, 0, 50, 67
1, 130982, Note_off_c, 0, 59, 64
1, 130983, Note_off_c, 0, 64, 65
1, 131001, Control_c, 0, 64, 79
1, 131016, Control_c, 0, 64, 78
1, 131022, Note_on_c, 0, 59, 62
1, 131031, Control_c, 0, 64, 78
1, 131046, Control_c, 0, 64, 76
1, 131061, Control_c, 0, 64, 73
1, 131067, Note_off_c, 0, 59, 61
1, 131076, Control_c, 0, 64, 67
1, 131091, Control_c, 0, 64, 56
1, 131101, Note_on_c, 0, 63, 82
1, 131103, Note_on_c, 0, 58, 85
1, 131103, Note_on_c, 0, 66, 71
1, 131106, Control_c, 0, 64, 0
1, 131143, Note_off_c, 0, 63, 64
1, 131156, Note_off_c, 0, 58, 61
1, 131186, Note_on_c, 0, 63, 66
1, 131187, Note_off_c, 0, 66, 64
1, 131244, Note_off_c, 0, 63, 65
1, 131261, Control_c, 0, 64, 44
1, 131272, Note_on_c, 0, 64, 79
1, 131276, Control_c, 0, 64, 66
1, 131276, Note_on_c, 0, 59, 74
1, 131278, Note_on_c, 0, 55, 73
1, 131281, Note_on_c, 0, 50, 74
1, 131290, Control_c, 0, 64, 71
1, 131299, Note_off_c, 0, 59, 66
1, 131304, Note_off_c, 0, 55, 67
1, 131305, Control_c, 0, 64, 73
1, 131317, Note_off_c, 0, 50, 65
1, 131320, Control_c, 0, 64, 75
1, 131329, Note_off_c, 0, 64, 63
1, 131335, Control_c, 0, 64, 76
1, 131349, Note_on_c, 0, 59, 75
1, 131350, Control_c, 0, 64, 76
1, 131365, Control_c, 0, 64, 77
1, 131380, Control_c, 0, 64, 77
1, 131408, Note_off_c, 0, 59, 60
1, 131424, Control_c, 0, 64, 78
1, 131434, Note_on_c, 0, 55, 69
1, 131441, Note_on_c, 0, 38, 73
1, 131454, Control_c, 0, 64, 78
1, 131474, Note_off_c, 0, 38, 64
1, 131481, Note_off_c, 0, 55, 65
1, 131508, Note_on_c, 0, 59, 78
1, 131545, Note_off_c, 0, 59, 59
1, 131586, Note_on_c, 0, 64, 78
1, 131589, Note_on_c, 0, 59, 68
1, 131592, Note_on_c, 0, 55, 76
1, 131596, Note_on_c, 0, 50, 69
1, 131618, Note_off_c, 0, 55, 69
1, 131618, Note_off_c, 0, 59, 66
1, 131626, Note_off_c, 0, 50, 67
1, 131642, Note_off_c, 0, 64, 63
1, 131647, Control_c, 0, 64, 79
1, 131663, Note_on_c, 0, 59, 67
1, 131714, Note_off_c, 0, 59, 60
1, 131740, Note_on_c, 0, 66, 77
1, 131745, Note_on_c, 0, 63, 88
1, 131768, Note_on_c, 0, 58, 37
1, 131776, Note_off_c, 0, 63, 63
1, 131779, Note_on_c, 0, 54, 36
1, 131788, Note_on_c, 0, 59, 16
1, 131796, Note_off_c, 0, 58, 55
1, 131811, Note_off_c, 0, 54, 44
1, 131819, Note_on_c, 0, 63, 71
1, 131823, Note_off_c, 0, 66, 64
1, 131824, Note_off_c, 0, 59, 42
1, 131824, Control_c, 0, 64, 78
1, 131839, Control_c, 0, 64, 76
1, 131854, Control_c, 0, 64, 69
1, 131877, Control_c, 0, 64, 0
1, 131878, Note_off_c, 0, 63, 66
1, 131909, Note_on_c, 0, 59, 84
1, 131913, Note_on_c, 0, 55, 80
1, 131916, Note_on_c, 0, 64, 80
1, 131917, Note_on_c, 0, 50, 79
1, 131936, Note_off_c, 0, 59, 65
1, 131943, Note_off_c, 0, 55, 66
1, 131950, Control_c, 0, 64, 57
1, 131961, Note_off_c, 0, 50, 65
1, 131965, Control_c, 0, 64, 71
1, 131979, Note_off_c, 0, 64, 64
1, 131980, Control_c, 0, 64, 77
1, 131995, Control_c, 0, 64, 81
1, 131997, Note_on_c, 0, 59, 73
1, 132010, Control_c, 0, 64, 82
1, 132024, Control_c, 0, 64, 82
1, 132039, Control_c, 0, 64, 84
1, 132054, Control_c, 0, 64, 85
1, 132056, Note_off_c, 0, 59, 62
1, 132069, Control_c, 0, 64, 86
1, 132077, Note_on_c, 0, 38, 82
1, 132084, Control_c, 0, 64, 86
1, 132086, Note_on_c, 0, 55, 77
1, 132098, Control_c, 0, 64, 87
1, 132107, Note_off_c, 0, 38, 67
1, 132113, Control_c, 0, 64, 87
1, 132128, Note_off_c, 0, 55, 63
1, 132128, Control_c, 0, 64, 88
1, 132158, Note_on_c, 0, 59, 76
1, 132191, Note_off_c, 0, 59, 59
1, 132232, Note_on_c, 0, 64, 81
1, 132232, Control_c, 0, 64, 88
1, 132237, Note_on_c, 0, 50, 71
1, 132237, Note_on_c, 0, 59, 65
1, 132241, Note_on_c, 0, 55, 67
1, 132266, Note_off_c, 0, 55, 66
1, 132267, Note_off_c, 0, 59, 63
1, 132269, Note_off_c, 0, 50, 65
1, 132281, Note_off_c, 0, 64, 64
1, 132318, Note_on_c, 0, 59, 65
1, 132353, Note_off_c, 0, 59, 58
1, 132365, Control_c, 0, 64, 89
1, 132395, Note_on_c, 0, 66, 79
1, 132396, Control_c, 0, 64, 90
1, 132399, Note_on_c, 0, 63, 74
1, 132405, Note_on_c, 0, 58, 76
1, 132411, Control_c, 0, 64, 91
1, 132426, Control_c, 0, 64, 91
1, 132431, Note_off_c, 0, 63, 64
1, 132432, Note_off_c, 0, 58, 67
1, 132455, Control_c, 0, 64, 86
1, 132456, Note_off_c, 0, 66, 65
1, 132470, Control_c, 0, 64, 72
1, 132485, Control_c, 0, 64, 0
1, 132497, Note_on_c, 0, 62, 52
1, 132515, Control_c, 0, 64, 63
1, 132519, Note_off_c, 0, 62, 57
1, 132529, Control_c, 0, 64, 74
1, 132544, Control_c, 0, 64, 84
1, 132559, Control_c, 0, 64, 90
1, 132566, Note_on_c, 0, 67, 84
1, 132573, Control_c, 0, 64, 90
1, 132575, Note_on_c, 0, 59, 72
1, 132588, Control_c, 0, 64, 82
1, 132590, Note_on_c, 0, 64, 55
1, 132603, Control_c, 0, 64, 63
1, 132611, Note_off_c, 0, 64, 59
1, 132624, Note_off_c, 0, 59, 62
1, 132626, Note_off_c, 0, 67, 64
1, 132626, Control_c, 0, 64, 0
1, 132641, Control_c, 0, 64, 63
1, 132655, Control_c, 0, 64, 74
1, 132670, Control_c, 0, 64, 86
1, 132683, Note_on_c, 0, 64, 59
1, 132685, Control_c, 0, 64, 97
1, 132700, Control_c, 0, 64, 101
1, 132703, Note_off_c, 0, 64, 63
1, 132715, Control_c, 0, 64, 102
1, 132729, Control_c, 0, 64, 101
1, 132744, Control_c, 0, 64, 93
1, 132750, Note_on_c, 0, 70, 87
1, 132758, Note_on_c, 0, 66, 81
1, 132759, Control_c, 0, 64, 80
1, 132766, Note_on_c, 0, 63, 67
1, 132773, Control_c, 0, 64, 74
1, 132788, Control_c, 0, 64, 77
1, 132797, Note_off_c, 0, 63, 59
1, 132799, Note_off_c, 0, 66, 52
1, 132803, Control_c, 0, 64, 88
1, 132818, Control_c, 0, 64, 99
1, 132833, Control_c, 0, 64, 108
1, 132835, Note_on_c, 0, 66, 74
1, 132841, Note_off_c, 0, 70, 59
1, 132847, Control_c, 0, 64, 110
1, 132888, Note_off_c, 0, 66, 66
1, 132907, Control_c, 0, 64, 101
1, 132921, Control_c, 0, 64, 84
1, 132936, Control_c, 0, 64, 66
1, 132951, Note_on_c, 0, 67, 81
1, 132951, Note_on_c, 0, 71, 85
1, 132951, Control_c, 0, 64, 0
1, 132955, Note_on_c, 0, 64, 72
1, 132981, Control_c, 0, 64, 61
1, 132996, Control_c, 0, 64, 78
1, 132996, Note_off_c, 0, 67, 56
1, 133010, Control_c, 0, 64, 90
1, 133025, Control_c, 0, 64, 98
1, 133031, Note_off_c, 0, 71, 60
1, 133034, Note_off_c, 0, 64, 61
1, 133040, Control_c, 0, 64, 101
1, 133055, Control_c, 0, 64, 107
1, 133055, Note_on_c, 0, 67, 78
1, 133070, Control_c, 0, 64, 115
1, 133085, Control_c, 0, 64, 127
1, 133159, Control_c, 0, 64, 127
1, 133173, Control_c, 0, 64, 105
1, 133188, Control_c, 0, 64, 82
1, 133196, Note_on_c, 0, 74, 81
1, 133204, Control_c, 0, 64, 60
1, 133207, Note_on_c, 0, 66, 66
1, 133208, Note_on_c, 0, 70, 70
1, 133213, Note_off_c, 0, 67, 25
1, 133219, Control_c, 0, 64, 0
1, 133249, Control_c, 0, 64, 63
1, 133263, Control_c, 0, 64, 78
1, 133272, Note_off_c, 0, 70, 62
1, 133278, Control_c, 0, 64, 91
1, 133284, Note_off_c, 0, 66, 64
1, 133293, Control_c, 0, 64, 96
1, 133308, Control_c, 0, 64, 98
1, 133323, Control_c, 0, 64, 103
1, 133328, Note_on_c, 0, 69, 72
1, 133337, Control_c, 0, 64, 109
1, 133352, Control_c, 0, 64, 115
1, 133362, Note_off_c, 0, 74, 62
1, 133367, Control_c, 0, 64, 120
1, 133383, Note_off_c, 0, 69, 65
1, 133389, Control_c, 0, 64, 123
1, 133404, Control_c, 0, 64, 125
1, 133419, Control_c, 0, 64, 126
1, 133434, Control_c, 0, 64, 127
1, 133599, Note_on_c, 0, 62, 79
1, 133611, Control_c, 0, 64, 116
1, 133616, Note_on_c, 0, 59, 60
1, 133623, Note_on_c, 0, 55, 53
1, 133626, Control_c, 0, 64, 97
1, 133641, Control_c, 0, 64, 76
1, 133650, Note_off_c, 0, 55, 58
1, 133656, Control_c, 0, 64, 0
1, 133657, Note_off_c, 0, 59, 59
1, 133700, Control_c, 0, 64, 59
1, 133715, Control_c, 0, 64, 74
1, 133716, Note_on_c, 0, 50, 49
1, 133729, Control_c, 0, 64, 86
1, 133744, Note_off_c, 0, 50, 53
1, 133744, Control_c, 0, 64, 97
1, 133759, Control_c, 0, 64, 104
1, 133774, Control_c, 0, 64, 109
1, 133789, Control_c, 0, 64, 116
1, 133803, Control_c, 0, 64, 127
1, 133811, Note_on_c, 0, 50, 56
1, 133818, Control_c, 0, 64, 127
1, 133842, Note_off_c, 0, 50, 59
1, 133865, Note_off_c, 0, 62, 56
1, 133880, Note_on_c, 0, 37, 60
1, 133932, Note_off_c, 0, 37, 61
1, 133958, Note_on_c, 0, 59, 33
1, 133964, Note_on_c, 0, 55, 12
1, 133993, Note_off_c, 0, 59, 47
1, 134004, Note_on_c, 0, 50, 59
1, 134006, Note_off_c, 0, 55, 53
1, 134028, Note_off_c, 0, 50, 65
1, 134101, Note_on_c, 0, 59, 56
1, 134101, Note_on_c, 0, 64, 78
1, 134128, Note_on_c, 0, 52, 59
1, 134140, Note_off_c, 0, 59, 64
1, 134152, Note_off_c, 0, 52, 65
1, 134167, Note_off_c, 0, 64, 65
1, 134219, Note_on_c, 0, 52, 42
1, 134245, Note_off_c, 0, 52, 56
1, 134326, Note_on_c, 0, 61, 76
1, 134334, Note_on_c, 0, 52, 58
1, 134338, Note_on_c, 0, 57, 56
1, 134360, Control_c, 0, 64, 121
1, 134375, Control_c, 0, 64, 94
1, 134390, Control_c, 0, 64, 73
1, 134405, Control_c, 0, 64, 0
1, 134422, Note_on_c, 0, 49, 70
1, 134434, Control_c, 0, 64, 47
1, 134441, Note_off_c, 0, 52, 52
1, 134449, Control_c, 0, 64, 74
1, 134462, Note_off_c, 0, 61, 61
1, 134464, Control_c, 0, 64, 90
1, 134479, Control_c, 0, 64, 108
1, 134480, Note_off_c, 0, 49, 55
1, 134493, Control_c, 0, 64, 117
1, 134501, Note_off_c, 0, 57, 57
1, 134503, Note_on_c, 0, 49, 54
1, 134508, Control_c, 0, 64, 125
1, 134523, Control_c, 0, 64, 127
1, 134556, Note_off_c, 0, 49, 58
1, 134573, Note_on_c, 0, 37, 70
1, 134633, Note_off_c, 0, 37, 61
1, 134656, Note_on_c, 0, 59, 71
1, 134664, Note_on_c, 0, 52, 68
1, 134670, Note_on_c, 0, 47, 75
1, 134684, Note_on_c, 0, 55, 44
1, 134694, Note_off_c, 0, 52, 66
1, 134698, Note_off_c, 0, 47, 66
1, 134711, Note_off_c, 0, 55, 54
1, 134718, Note_off_c, 0, 59, 64
1, 134751, Note_on_c, 0, 47, 68
1, 134769, Note_off_c, 0, 47, 70
1, 134840, Note_on_c, 0, 57, 73
1, 134844, Note_on_c, 0, 52, 65
1, 134848, Note_on_c, 0, 45, 68
1, 134850, Note_on_c, 0, 49, 72
1, 134883, Note_off_c, 0, 45, 65
1, 134905, Note_off_c, 0, 52, 60
1, 134906, Note_off_c, 0, 49, 52
1, 134941, Note_on_c, 0, 45, 73
1, 134949, Note_off_c, 0, 57, 60
1, 134965, Note_off_c, 0, 45, 70
1, 135035, Control_c, 0, 64, 115
1, 135049, Control_c, 0, 64, 90
1, 135057, Note_on_c, 0, 62, 86
1, 135064, Note_on_c, 0, 55, 74
1, 135064, Control_c, 0, 64, 67
1, 135074, Note_on_c, 0, 59, 53
1, 135079, Control_c, 0, 64, 0
1, 135103, Note_off_c, 0, 59, 63
1, 135104, Note_off_c, 0, 55, 60
1, 135124, Control_c, 0, 64, 68
1, 135139, Control_c, 0, 64, 82
1, 135151, Note_on_c, 0, 50, 75
1, 135154, Control_c, 0, 64, 96
1, 135168, Control_c, 0, 64, 106
1, 135183, Control_c, 0, 64, 112
1, 135186, Note_off_c, 0, 50, 62
1, 135198, Control_c, 0, 64, 120
1, 135213, Control_c, 0, 64, 127
1, 135231, Note_on_c, 0, 50, 65
1, 135258, Note_off_c, 0, 50, 65
1, 135305, Note_on_c, 0, 37, 69
1, 135317, Note_off_c, 0, 62, 49
1, 135341, Note_off_c, 0, 37, 63
1, 135383, Note_on_c, 0, 59, 62
1, 135393, Note_on_c, 0, 55, 52
1, 135417, Note_off_c, 0, 55, 61
1, 135428, Note_off_c, 0, 59, 60
1, 135458, Note_on_c, 0, 50, 63
1, 135491, Note_off_c, 0, 50, 50
1, 135538, Note_on_c, 0, 64, 72
1, 135550, Note_on_c, 0, 59, 59
1, 135553, Note_on_c, 0, 52, 75
1, 135559, Note_on_c, 0, 56, 64
1, 135575, Note_off_c, 0, 59, 66
1, 135579, Note_off_c, 0, 52, 68
1, 135588, Note_off_c, 0, 56, 65
1, 135594, Note_off_c, 0, 64, 65
1, 135643, Note_on_c, 0, 52, 72
1, 135673, Note_off_c, 0, 52, 67
1, 135695, Control_c, 0, 64, 106
1, 135710, Control_c, 0, 64, 83
1, 135724, Note_on_c, 0, 61, 77
1, 135725, Control_c, 0, 64, 70
1, 135738, Note_on_c, 0, 49, 77
1, 135740, Control_c, 0, 64, 70
1, 135744, Note_on_c, 0, 52, 69
1, 135750, Note_on_c, 0, 57, 47
1, 135754, Control_c, 0, 64, 78
1, 135765, Note_on_c, 0, 55, 10
1, 135765, Note_off_c, 0, 49, 64
1, 135769, Control_c, 0, 64, 92
1, 135784, Control_c, 0, 64, 103
1, 135795, Note_off_c, 0, 61, 63
1, 135798, Control_c, 0, 64, 110
1, 135804, Note_off_c, 0, 57, 48
1, 135809, Note_off_c, 0, 55, 52
1, 135812, Note_on_c, 0, 49, 82
1, 135812, Note_off_c, 0, 52, 35
1, 135813, Control_c, 0, 64, 114
1, 135828, Control_c, 0, 64, 119
1, 135843, Control_c, 0, 64, 123
1, 135845, Note_off_c, 0, 49, 65
1, 135858, Control_c, 0, 64, 126
1, 135872, Control_c, 0, 64, 127
1, 135896, Note_on_c, 0, 59, 78
1, 135896, Note_on_c, 0, 47, 86
1, 135897, Note_on_c, 0, 55, 69
1, 135921, Note_off_c, 0, 47, 67
1, 135932, Note_on_c, 0, 52, 12
1, 135935, Note_off_c, 0, 55, 60
1, 135952, Note_off_c, 0, 59, 63
1, 135972, Note_on_c, 0, 47, 76
1, 135979, Note_off_c, 0, 52, 55
1, 136017, Note_off_c, 0, 47, 61
1, 136051, Control_c, 0, 64, 120
1, 136065, Control_c, 0, 64, 97
1, 136067, Note_on_c, 0, 57, 83
1, 136069, Note_on_c, 0, 52, 80
1, 136080, Control_c, 0, 64, 72
1, 136081, Note_on_c, 0, 49, 78
1, 136095, Control_c, 0, 64, 0
1, 136139, Control_c, 0, 64, 52
1, 136154, Control_c, 0, 64, 78
1, 136158, Note_on_c, 0, 45, 79
1, 136169, Control_c, 0, 64, 93
1, 136173, Note_off_c, 0, 49, 60
1, 136184, Control_c, 0, 64, 106
1, 136188, Note_off_c, 0, 45, 68
1, 136191, Note_off_c, 0, 52, 63
1, 136198, Control_c, 0, 64, 109
1, 136213, Control_c, 0, 64, 112
1, 136215, Note_off_c, 0, 57, 61
1, 136228, Control_c, 0, 64, 116
1, 136233, Note_on_c, 0, 45, 69
1, 136243, Control_c, 0, 64, 124
1, 136258, Control_c, 0, 64, 127
1, 136297, Note_off_c, 0, 45, 57
1, 136307, Note_on_c, 0, 37, 76
1, 136345, Note_off_c, 0, 37, 66
1, 136429, Note_on_c, 0, 67, 88
1, 136443, Note_on_c, 0, 59, 69
1, 136444, Control_c, 0, 64, 95
1, 136459, Control_c, 0, 64, 69
1, 136462, Note_on_c, 0, 64, 47
1, 136474, Control_c, 0, 64, 0
1, 136498, Note_off_c, 0, 64, 45
1, 136501, Note_off_c, 0, 59, 44
1, 136508, Note_on_c, 0, 55, 72
1, 136518, Control_c, 0, 64, 63
1, 136533, Control_c, 0, 64, 81
1, 136548, Control_c, 0, 64, 98
1, 136555, Note_off_c, 0, 55, 0
1, 136563, Control_c, 0, 64, 113
1, 136577, Control_c, 0, 64, 118
1, 136591, Poly_aftertouch_c, 0, 55, 127
1, 136592, Control_c, 0, 64, 124
1, 136599, Poly_aftertouch_c, 0, 55, 0
1, 136600, Note_on_c, 0, 52, 44
1, 136607, Control_c, 0, 64, 127
1, 136629, Note_off_c, 0, 52, 57
1, 136669, Note_off_c, 0, 67, 52
1, 136680, Note_on_c, 0, 37, 67
1, 136703, Note_off_c, 0, 37, 64
1, 136738, Note_on_c, 0, 64, 64
1, 136748, Note_on_c, 0, 59, 50
1, 136781, Note_off_c, 0, 59, 51
1, 136791, Note_off_c, 0, 64, 59
1, 136802, Note_on_c, 0, 55, 62
1, 136826, Note_off_c, 0, 55, 69
1, 136883, Note_on_c, 0, 69, 81
1, 136892, Note_on_c, 0, 64, 74
1, 136898, Note_on_c, 0, 61, 72
1, 136906, Note_on_c, 0, 52, 70
1, 136906, Note_on_c, 0, 57, 70
1, 136925, Note_off_c, 0, 61, 63
1, 136933, Note_off_c, 0, 57, 65
1, 136933, Note_off_c, 0, 52, 68
1, 136937, Note_off_c, 0, 64, 58
1, 136943, Note_off_c, 0, 69, 65
1, 136977, Poly_aftertouch_c, 0, 65, 0
1, 136987, Note_on_c, 0, 57, 67
1, 137003, Note_off_c, 0, 57, 68
1, 137064, Note_on_c, 0, 66, 89
1, 137079, Note_on_c, 0, 61, 77
1, 137081, Control_c, 0, 64, 105
1, 137084, Note_on_c, 0, 57, 54
1, 137095, Control_c, 0, 64, 76
1, 137118, Control_c, 0, 64, 0
1, 137121, Note_off_c, 0, 57, 65
1, 137162, Control_c, 0, 64, 65
1, 137169, Note_on_c, 0, 54, 77
1, 137177, Control_c, 0, 64, 79
1, 137192, Note_off_c, 0, 66, 59
1, 137193, Control_c, 0, 64, 96
1, 137208, Control_c, 0, 64, 113
1, 137222, Control_c, 0, 64, 119
1, 137228, Note_off_c, 0, 61, 60
1, 137231, Note_on_c, 0, 49, 61
1, 137237, Control_c, 0, 64, 125
1, 137239, Note_off_c, 0, 54, 60
1, 137252, Control_c, 0, 64, 127
1, 137252, Note_off_c, 0, 49, 62
1, 137301, Note_on_c, 0, 37, 83
1, 137325, Note_off_c, 0, 37, 66
1, 137380, Note_on_c, 0, 64, 77
1, 137387, Note_on_c, 0, 59, 72
1, 137393, Note_on_c, 0, 55, 68
1, 137404, Note_on_c, 0, 52, 75
1, 137410, Note_on_c, 0, 47, 68
1, 137420, Note_off_c, 0, 55, 67
1, 137431, Note_off_c, 0, 52, 70
1, 137437, Note_off_c, 0, 64, 65
1, 137437, Note_off_c, 0, 47, 67
1, 137443, Note_off_c, 0, 59, 62
1, 137481, Note_on_c, 0, 52, 75
1, 137511, Note_off_c, 0, 52, 66
1, 137553, Note_on_c, 0, 61, 80
1, 137556, Note_on_c, 0, 58, 75
1, 137563, Note_on_c, 0, 54, 61
1, 137567, Note_on_c, 0, 49, 80
1, 137568, Note_on_c, 0, 46, 76
1, 137592, Note_off_c, 0, 54, 65
1, 137596, Note_off_c, 0, 49, 64
1, 137602, Note_off_c, 0, 46, 62
1, 137609, Note_off_c, 0, 58, 61
1, 137621, Note_off_c, 0, 61, 61
1, 137655, Note_on_c, 0, 49, 65
1, 137674, Note_off_c, 0, 49, 61
1, 137726, Control_c, 0, 64, 100
1, 137740, Note_on_c, 0, 67, 96
1, 137741, Control_c, 0, 64, 74
1, 137748, Note_on_c, 0, 59, 79
1, 137756, Control_c, 0, 64, 0
1, 137772, Note_off_c, 0, 59, 66
1, 137785, Note_on_c, 0, 64, 13
1, 137786, Note_off_c, 0, 64, 127
1, 137800, Control_c, 0, 64, 55
1, 137815, Control_c, 0, 64, 74
1, 137830, Control_c, 0, 64, 87
1, 137839, Note_on_c, 0, 55, 78
1, 137844, Control_c, 0, 64, 96
1, 137866, Control_c, 0, 64, 107
1, 137881, Control_c, 0, 64, 114
1, 137896, Control_c, 0, 64, 121
1, 137905, Note_off_c, 0, 55, 64
1, 137905, Note_on_c, 0, 52, 53
1, 137911, Control_c, 0, 64, 127
1, 137931, Note_off_c, 0, 52, 59
1, 137985, Note_on_c, 0, 37, 81
1, 137993, Poly_aftertouch_c, 0, 50, 0
1, 137997, Note_off_c, 0, 67, 53
1, 138006, Note_off_c, 0, 37, 68
1, 138066, Note_on_c, 0, 64, 67
1, 138068, Note_on_c, 0, 59, 63
1, 138099, Note_off_c, 0, 59, 63
1, 138132, Note_off_c, 0, 64, 63
1, 138135, Note_on_c, 0, 55, 74
1, 138170, Note_off_c, 0, 55, 66
1, 138221, Note_on_c, 0, 69, 78
1, 138225, Note_on_c, 0, 64, 71
1, 138230, Note_on_c, 0, 52, 72
1, 138234, Note_on_c, 0, 61, 73
1, 138236, Note_on_c, 0, 57, 74
1, 138257, Note_off_c, 0, 52, 69
1, 138262, Note_off_c, 0, 57, 66
1, 138267, Note_off_c, 0, 61, 59
1, 138273, Note_off_c, 0, 69, 67
1, 138283, Note_off_c, 0, 64, 61
1, 138314, Note_on_c, 0, 57, 71
1, 138318, Poly_aftertouch_c, 0, 65, 0
1, 138336, Note_off_c, 0, 57, 70
1, 138356, Control_c, 0, 64, 96
1, 138371, Control_c, 0, 64, 70
1, 138385, Control_c, 0, 64, 0
1, 138389, Note_on_c, 0, 66, 80
1, 138397, Note_on_c, 0, 61, 69
1, 138403, Note_on_c, 0, 49, 75
1, 138403, Note_on_c, 0, 54, 73
1, 138415, Control_c, 0, 64, 64
1, 138429, Note_on_c, 0, 57, 37
1, 138430, Control_c, 0, 64, 78
1, 138440, Note_off_c, 0, 54, 62
1, 138445, Control_c, 0, 64, 96
1, 138455, Note_off_c, 0, 49, 58
1, 138456, Note_off_c, 0, 66, 67
1, 138460, Note_off_c, 0, 57, 54
1, 138460, Control_c, 0, 64, 109
1, 138474, Control_c, 0, 64, 113
1, 138476, Note_on_c, 0, 54, 69
1, 138489, Control_c, 0, 64, 117
1, 138493, Note_off_c, 0, 61, 61
1, 138499, Note_off_c, 0, 54, 66
1, 138504, Control_c, 0, 64, 124
1, 138519, Control_c, 0, 64, 127
1, 138557, Note_on_c, 0, 47, 79
1, 138561, Note_on_c, 0, 59, 76
1, 138567, Note_on_c, 0, 52, 59
1, 138567, Note_on_c, 0, 64, 76
1, 138570, Note_on_c, 0, 55, 71
1, 138582, Note_off_c, 0, 47, 66
1, 138588, Note_off_c, 0, 52, 62
1, 138598, Note_off_c, 0, 55, 66
1, 138621, Note_off_c, 0, 64, 64
1, 138629, Note_off_c, 0, 59, 62
1, 138668, Note_on_c, 0, 52, 68
1, 138691, Note_off_c, 0, 52, 65
1, 138719, Control_c, 0, 64, 122
1, 138734, Control_c, 0, 64, 92
1, 138738, Note_on_c, 0, 61, 81
1, 138749, Control_c, 0, 64, 68
1, 138753, Note_on_c, 0, 58, 71
1, 138764, Control_c, 0, 64, 0
1, 138773, Note_on_c, 0, 54, 52
1, 138809, Note_off_c, 0, 54, 56
1, 138809, Control_c, 0, 64, 64
1, 138823, Control_c, 0, 64, 78
1, 138832, Note_on_c, 0, 49, 75
1, 138838, Control_c, 0, 64, 94
1, 138853, Control_c, 0, 64, 103
1, 138859, Note_off_c, 0, 49, 64
1, 138868, Control_c, 0, 64, 107
1, 138880, Note_off_c, 0, 61, 60
1, 138883, Control_c, 0, 64, 111
1, 138892, Note_off_c, 0, 58, 63
1, 138898, Control_c, 0, 64, 116
1, 138909, Note_on_c, 0, 46, 71
1, 138913, Control_c, 0, 64, 123
1, 138913, Note_on_c, 0, 49, 69
1, 138928, Control_c, 0, 64, 127
1, 138938, Note_off_c, 0, 49, 67
1, 138959, Note_off_c, 0, 46, 54
1, 138980, Note_on_c, 0, 37, 71
1, 139042, Note_off_c, 0, 37, 64
1, 139085, Note_on_c, 0, 69, 83
1, 139103, Note_on_c, 0, 65, 58
1, 139105, Control_c, 0, 64, 101
1, 139116, Note_on_c, 0, 62, 54
1, 139120, Control_c, 0, 64, 71
1, 139134, Control_c, 0, 64, 0
1, 139146, Note_off_c, 0, 62, 51
1, 139169, Note_off_c, 0, 65, 52
1, 139179, Control_c, 0, 64, 62
1, 139187, Note_on_c, 0, 57, 61
1, 139194, Control_c, 0, 64, 77
1, 139208, Control_c, 0, 64, 95
1, 139220, Note_off_c, 0, 57, 63
1, 139223, Control_c, 0, 64, 109
1, 139238, Control_c, 0, 64, 116
1, 139253, Control_c, 0, 64, 127
1, 139261, Note_on_c, 0, 35, 73
1, 139261, Note_on_c, 0, 47, 78
1, 139297, Note_off_c, 0, 47, 64
1, 139303, Note_off_c, 0, 35, 65
1, 139312, Note_on_c, 0, 57, 67
1, 139332, Note_off_c, 0, 69, 47
1, 139376, Note_off_c, 0, 57, 55
1, 139406, Note_on_c, 0, 65, 61
1, 139413, Note_on_c, 0, 62, 52
1, 139452, Note_off_c, 0, 62, 61
1, 139466, Note_off_c, 0, 65, 65
1, 139467, Note_on_c, 0, 57, 73
1, 139501, Note_off_c, 0, 57, 63
1, 139554, Note_on_c, 0, 71, 76
1, 139557, Note_on_c, 0, 59, 63
1, 139559, Note_on_c, 0, 66, 75
1, 139563, Note_on_c, 0, 54, 70
1, 139565, Note_on_c, 0, 63, 69
1, 139585, Note_off_c, 0, 59, 65
1, 139597, Note_off_c, 0, 54, 65
1, 139614, Note_off_c, 0, 63, 57
1, 139640, Note_off_c, 0, 71, 60
1, 139642, Note_off_c, 0, 66, 60
1, 139649, Note_on_c, 0, 59, 78
1, 139689, Note_off_c, 0, 59, 62
1, 139720, Control_c, 0, 64, 121
1, 139735, Control_c, 0, 64, 88
1, 139750, Control_c, 0, 64, 62
1, 139751, Note_on_c, 0, 67, 85
1, 139759, Note_on_c, 0, 59, 75
1, 139765, Note_on_c, 0, 62, 74
1, 139765, Control_c, 0, 64, 0
1, 139767, Note_on_c, 0, 55, 70
1, 139771, Note_on_c, 0, 50, 68
1, 139792, Note_off_c, 0, 55, 67
1, 139795, Note_off_c, 0, 50, 67
1, 139795, Control_c, 0, 64, 69
1, 139810, Control_c, 0, 64, 86
1, 139811, Note_off_c, 0, 59, 62
1, 139822, Note_off_c, 0, 62, 50
1, 139825, Control_c, 0, 64, 104
1, 139840, Control_c, 0, 64, 117
1, 139848, Note_on_c, 0, 55, 80
1, 139849, Note_off_c, 0, 67, 58
1, 139855, Control_c, 0, 64, 120
1, 139869, Control_c, 0, 64, 126
1, 139884, Control_c, 0, 64, 127
1, 139905, Note_off_c, 0, 55, 61
1, 139917, Note_on_c, 0, 47, 82
1, 139938, Note_on_c, 0, 35, 45
1, 139944, Note_off_c, 0, 47, 68
1, 139946, Note_on_c, 0, 36, 35
1, 139971, Note_off_c, 0, 35, 52
1, 139983, Note_off_c, 0, 36, 53
1, 139992, Note_on_c, 0, 55, 81
1, 140037, Note_off_c, 0, 55, 65
1, 140074, Note_on_c, 0, 62, 72
1, 140076, Note_on_c, 0, 66, 83
1, 140077, Control_c, 0, 64, 88
1, 140087, Note_on_c, 0, 50, 63
1, 140092, Note_on_c, 0, 54, 84
1, 140092, Control_c, 0, 64, 62
1, 140114, Control_c, 0, 64, 0
1, 140135, Note_off_c, 0, 54, 63
1, 140144, Control_c, 0, 64, 65
1, 140147, Note_off_c, 0, 50, 63
1, 140149, Note_off_c, 0, 62, 60
1, 140154, Note_on_c, 0, 57, 77
1, 140159, Control_c, 0, 64, 83
1, 140168, Note_off_c, 0, 66, 64
1, 140173, Control_c, 0, 64, 106
1, 140188, Control_c, 0, 64, 124
1, 140201, Note_off_c, 0, 57, 63
1, 140203, Control_c, 0, 64, 126
1, 140218, Control_c, 0, 64, 127
1, 140242, Note_on_c, 0, 59, 82
1, 140250, Note_on_c, 0, 64, 82
1, 140258, Note_on_c, 0, 47, 76
1, 140265, Note_on_c, 0, 52, 67
1, 140280, Note_off_c, 0, 59, 62
1, 140292, Note_off_c, 0, 52, 68
1, 140321, Note_off_c, 0, 47, 63
1, 140325, Note_on_c, 0, 53, 80
1, 140340, Note_off_c, 0, 64, 61
1, 140349, Note_off_c, 0, 53, 71
1, 140426, Control_c, 0, 64, 115
1, 140441, Control_c, 0, 64, 85
1, 140447, Note_on_c, 0, 65, 96
1, 140447, Note_on_c, 0, 74, 93
1, 140449, Note_on_c, 0, 69, 86
1, 140456, Control_c, 0, 64, 0
1, 140460, Note_on_c, 0, 62, 86
1, 140478, Note_on_c, 0, 53, 66
1, 140490, Note_off_c, 0, 65, 65
1, 140490, Note_on_c, 0, 57, 37
1, 140490, Note_off_c, 0, 62, 64
1, 140496, Note_off_c, 0, 69, 62
1, 140500, Control_c, 0, 64, 65
1, 140515, Control_c, 0, 64, 80
1, 140521, Note_off_c, 0, 53, 67
1, 140526, Note_off_c, 0, 57, 32
1, 140528, Control_c, 0, 64, 97
1, 140543, Control_c, 0, 64, 113
1, 140555, Note_on_c, 0, 62, 75
1, 140558, Control_c, 0, 64, 118
1, 140573, Control_c, 0, 64, 124
1, 140587, Control_c, 0, 64, 127
1, 140613, Note_off_c, 0, 62, 59
1, 140621, Note_on_c, 0, 47, 88
1, 140633, Note_on_c, 0, 35, 73
1, 140660, Note_off_c, 0, 35, 65
1, 140664, Note_off_c, 0, 47, 63
1, 140694, Note_on_c, 0, 62, 80
1, 140704, Note_off_c, 0, 74, 58
1, 140730, Note_off_c, 0, 62, 64
1, 140768, Note_on_c, 0, 69, 77
1, 140775, Note_on_c, 0, 65, 75
1, 140824, Note_off_c, 0, 65, 46
1, 140831, Note_off_c, 0, 69, 57
1, 140841, Note_on_c, 0, 62, 81
1, 140893, Note_off_c, 0, 62, 59
1, 140934, Note_on_c, 0, 56, 68
1, 140937, Note_on_c, 0, 76, 85
1, 140940, Note_on_c, 0, 71, 78
1, 140944, Note_on_c, 0, 64, 73
1, 140944, Note_on_c, 0, 68, 82
1, 140956, Note_on_c, 0, 59, 51
1, 140969, Note_off_c, 0, 64, 68
1, 140979, Note_off_c, 0, 59, 59
1, 140993, Note_off_c, 0, 71, 58
1, 140998, Note_off_c, 0, 56, 63
1, 140998, Note_off_c, 0, 68, 58
1, 141013, Note_off_c, 0, 76, 66
1, 141024, Control_c, 0, 64, 109
1, 141029, Note_on_c, 0, 64, 84
1, 141039, Control_c, 0, 64, 79
1, 141054, Control_c, 0, 64, 0
1, 141059, Note_off_c, 0, 64, 65
1, 141098, Control_c, 0, 64, 67
1, 141110, Note_on_c, 0, 60, 76
1, 141110, Note_on_c, 0, 64, 84
1, 141111, Note_on_c, 0, 72, 92
1, 141113, Control_c, 0, 64, 82
1, 141115, Note_on_c, 0, 52, 82
1, 141116, Note_on_c, 0, 67, 83
1, 141127, Control_c, 0, 64, 102
1, 141133, Note_off_c, 0, 60, 70
1, 141142, Control_c, 0, 64, 113
1, 141156, Note_on_c, 0, 69, 27
1, 141157, Control_c, 0, 64, 114
1, 141158, Note_off_c, 0, 64, 64
1, 141163, Note_off_c, 0, 52, 64
1, 141172, Control_c, 0, 64, 118
1, 141179, Note_off_c, 0, 67, 54
1, 141188, Control_c, 0, 64, 127
1, 141191, Note_off_c, 0, 69, 55
1, 141208, Note_on_c, 0, 60, 84
1, 141209, Note_off_c, 0, 72, 53
1, 141215, Poly_aftertouch_c, 0, 55, 0
1, 141260, Note_off_c, 0, 60, 59
1, 141269, Note_on_c, 0, 47, 87
1, 141280, Note_on_c, 0, 35, 75
1, 141300, Note_off_c, 0, 47, 65
1, 141302, Note_off_c, 0, 35, 64
1, 141343, Note_on_c, 0, 60, 79
1, 141366, Control_c, 0, 64, 106
1, 141381, Control_c, 0, 64, 79
1, 141385, Note_off_c, 0, 60, 57
1, 141396, Control_c, 0, 64, 52
1, 141410, Control_c, 0, 64, 49
1, 141418, Note_on_c, 0, 66, 83
1, 141423, Note_on_c, 0, 63, 80
1, 141425, Note_on_c, 0, 59, 81
1, 141425, Control_c, 0, 64, 71
1, 141429, Note_on_c, 0, 71, 76
1, 141430, Note_on_c, 0, 54, 75
1, 141431, Note_on_c, 0, 51, 72
1, 141440, Control_c, 0, 64, 91
1, 141455, Control_c, 0, 64, 124
1, 141460, Note_off_c, 0, 59, 60
1, 141464, Note_off_c, 0, 54, 62
1, 141470, Control_c, 0, 64, 127
1, 141472, Note_off_c, 0, 51, 60
1, 141499, Note_off_c, 0, 71, 61
1, 141503, Note_on_c, 0, 59, 71
1, 141512, Note_off_c, 0, 63, 64
1, 141512, Note_off_c, 0, 66, 63
1, 141527, Note_off_c, 0, 59, 69
1, 141536, Poly_aftertouch_c, 0, 49, 0
1, 141583, Note_on_c, 0, 64, 81
1, 141586, Note_on_c, 0, 60, 87
1, 141586, Note_on_c, 0, 69, 87
1, 141589, Note_on_c, 0, 48, 71
1, 141589, Note_on_c, 0, 57, 78
1, 141595, Note_on_c, 0, 52, 78
1, 141630, Note_off_c, 0, 64, 63
1, 141635, Note_off_c, 0, 57, 60
1, 141638, Note_off_c, 0, 60, 59
1, 141641, Note_off_c, 0, 52, 63
1, 141650, Note_off_c, 0, 48, 64
1, 141682, Note_on_c, 0, 57, 68
1, 141685, Note_on_c, 0, 59, 52
1, 141691, Note_off_c, 0, 69, 63
1, 141703, Note_off_c, 0, 57, 69
1, 141715, Note_off_c, 0, 59, 63
1, 141789, Control_c, 0, 64, 96
1, 141801, Note_on_c, 0, 77, 100
1, 141804, Control_c, 0, 64, 66
1, 141805, Note_on_c, 0, 74, 84
1, 141805, Note_on_c, 0, 69, 96
1, 141812, Note_on_c, 0, 57, 63
1, 141818, Note_on_c, 0, 65, 85
1, 141818, Control_c, 0, 64, 0
1, 141828, Note_on_c, 0, 62, 59
1, 141848, Control_c, 0, 64, 58
1, 141850, Note_off_c, 0, 65, 67
1, 141851, Note_off_c, 0, 69, 65
1, 141858, Note_off_c, 0, 62, 64
1, 141863, Control_c, 0, 64, 76
1, 141865, Note_off_c, 0, 74, 64
1, 141878, Control_c, 0, 64, 90
1, 141880, Note_off_c, 0, 57, 63
1, 141892, Control_c, 0, 64, 110
1, 141907, Control_c, 0, 64, 116
1, 141917, Note_on_c, 0, 65, 80
1, 141922, Control_c, 0, 64, 118
1, 141936, Control_c, 0, 64, 124
1, 141951, Control_c, 0, 64, 127
1, 141962, Note_off_c, 0, 65, 60
1, 141988, Note_on_c, 0, 47, 93
1, 142007, Note_on_c, 0, 35, 73
1, 142034, Note_off_c, 0, 35, 66
1, 142036, Note_off_c, 0, 47, 65
1, 142053, Note_off_c, 0, 77, 52
1, 142054, Note_on_c, 0, 65, 86
1, 142096, Note_off_c, 0, 65, 61
1, 142132, Note_on_c, 0, 69, 80
1, 142134, Note_on_c, 0, 74, 74
1, 142200, Note_off_c, 0, 69, 60
1, 142200, Note_off_c, 0, 74, 62
1, 142201, Note_on_c, 0, 65, 78
1, 142230, Note_off_c, 0, 65, 67
1, 142290, Note_on_c, 0, 59, 76
1, 142290, Note_on_c, 0, 67, 84
1, 142290, Note_on_c, 0, 79, 83
1, 142293, Note_on_c, 0, 74, 78
1, 142293, Control_c, 0, 64, 104
1, 142299, Note_on_c, 0, 71, 74
1, 142305, Note_on_c, 0, 62, 54
1, 142308, Control_c, 0, 64, 80
1, 142323, Control_c, 0, 64, 70
1, 142323, Note_off_c, 0, 67, 59
1, 142323, Note_off_c, 0, 71, 66
1, 142329, Note_off_c, 0, 62, 59
1, 142338, Control_c, 0, 64, 73
1, 142345, Note_off_c, 0, 59, 63
1, 142345, Note_off_c, 0, 74, 62
1, 142359, Control_c, 0, 64, 84
1, 142364, Note_off_c, 0, 79, 64
1, 142374, Control_c, 0, 64, 107
1, 142382, Note_on_c, 0, 67, 76
1, 142389, Control_c, 0, 64, 127
1, 142418, Note_off_c, 0, 67, 63
1, 142463, Note_on_c, 0, 76, 90
1, 142466, Note_on_c, 0, 64, 81
1, 142470, Note_on_c, 0, 56, 76
1, 142470, Note_on_c, 0, 71, 76
1, 142471, Note_on_c, 0, 68, 83
1, 142475, Note_on_c, 0, 59, 64
1, 142490, Note_on_c, 0, 55, 54
1, 142499, Note_off_c, 0, 59, 68
1, 142502, Note_off_c, 0, 64, 61
1, 142502, Note_off_c, 0, 71, 59
1, 142514, Note_off_c, 0, 55, 62
1, 142528, Note_off_c, 0, 56, 63
1, 142530, Note_off_c, 0, 76, 68
1, 142543, Note_on_c, 0, 64, 77
1, 142554, Note_off_c, 0, 68, 61
1, 142586, Note_off_c, 0, 64, 65
1, 142627, Control_c, 0, 64, 122
1, 142629, Note_on_c, 0, 74, 86
1, 142631, Note_on_c, 0, 62, 84
1, 142632, Note_on_c, 0, 69, 81
1, 142633, Note_on_c, 0, 57, 77
1, 142634, Note_on_c, 0, 53, 78
1, 142635, Note_on_c, 0, 65, 82
1, 142656, Control_c, 0, 64, 123
1, 142665, Note_off_c, 0, 62, 59
1, 142671, Note_off_c, 0, 57, 61
1, 142671, Control_c, 0, 64, 127
1, 142675, Note_on_c, 0, 71, 24
1, 142686, Note_off_c, 0, 53, 65
1, 142686, Note_off_c, 0, 65, 61
1, 142686, Note_off_c, 0, 69, 59
1, 142703, Note_off_c, 0, 74, 66
1, 142704, Note_off_c, 0, 71, 54
1, 142710, Note_on_c, 0, 62, 79
1, 142751, Note_off_c, 0, 62, 62
1, 142790, Control_c, 0, 64, 95
1, 142800, Note_on_c, 0, 72, 90
1, 142800, Note_on_c, 0, 64, 93
1, 142803, Note_on_c, 0, 67, 83
1, 142805, Control_c, 0, 64, 69
1, 142807, Note_on_c, 0, 60, 86
1, 142809, Note_on_c, 0, 52, 85
1, 142816, Note_on_c, 0, 55, 69
1, 142820, Control_c, 0, 64, 0
1, 142829, Note_off_c, 0, 60, 68
1, 142841, Note_off_c, 0, 55, 68
1, 142841, Note_on_c, 0, 69, 43
1, 142850, Control_c, 0, 64, 57
1, 142856, Note_off_c, 0, 52, 64
1, 142861, Note_off_c, 0, 67, 51
1, 142862, Note_off_c, 0, 69, 56
1, 142864, Control_c, 0, 64, 75
1, 142879, Control_c, 0, 64, 88
1, 142894, Control_c, 0, 64, 103
1, 142895, Note_on_c, 0, 60, 79
1, 142909, Control_c, 0, 64, 109
1, 142915, Poly_aftertouch_c, 0, 53, 0
1, 142919, Note_off_c, 0, 64, 58
1, 142924, Control_c, 0, 64, 111
1, 142938, Control_c, 0, 64, 114
1, 142944, Note_off_c, 0, 72, 48
1, 142953, Control_c, 0, 64, 120
1, 142964, Note_off_c, 0, 60, 60
1, 142968, Control_c, 0, 64, 127
1, 142970, Note_on_c, 0, 47, 91
1, 142980, Note_on_c, 0, 35, 73
1, 143006, Note_off_c, 0, 35, 65
1, 143014, Note_off_c, 0, 47, 64
1, 143028, Note_on_c, 0, 60, 84
1, 143068, Note_off_c, 0, 60, 63
1, 143168, Control_c, 0, 64, 104
1, 143180, Note_on_c, 0, 81, 104
1, 143181, Note_on_c, 0, 77, 94
1, 143182, Control_c, 0, 64, 79
1, 143185, Note_on_c, 0, 74, 95
1, 143197, Control_c, 0, 64, 0
1, 143205, Note_on_c, 0, 79, 47
1, 143206, Note_off_c, 0, 79, 127
1, 143242, Control_c, 0, 64, 71
1, 143256, Control_c, 0, 64, 87
1, 143271, Control_c, 0, 64, 107
1, 143275, Note_on_c, 0, 69, 80
1, 143286, Control_c, 0, 64, 121
1, 143288, Note_off_c, 0, 81, 52
1, 143295, Note_off_c, 0, 74, 61
1, 143301, Control_c, 0, 64, 122
1, 143304, Note_off_c, 0, 77, 58
1, 143315, Control_c, 0, 64, 127
1, 143324, Note_off_c, 0, 69, 64
1, 143345, Note_on_c, 0, 69, 68
1, 143357, Note_on_c, 0, 65, 71
1, 143364, Note_on_c, 0, 62, 66
1, 143390, Note_off_c, 0, 69, 68
1, 143416, Note_off_c, 0, 65, 62
1, 143421, Note_on_c, 0, 57, 82
1, 143442, Note_off_c, 0, 62, 60
1, 143465, Note_off_c, 0, 57, 65
1, 143494, Control_c, 0, 64, 96
1, 143499, Note_on_c, 0, 72, 96
1, 143500, Note_on_c, 0, 76, 100
1, 143500, Note_on_c, 0, 69, 92
1, 143508, Control_c, 0, 64, 70
1, 143523, Control_c, 0, 64, 0
1, 143542, Note_off_c, 0, 69, 68
1, 143553, Control_c, 0, 64, 55
1, 143568, Control_c, 0, 64, 75
1, 143584, Control_c, 0, 64, 91
1, 143590, Note_on_c, 0, 64, 85
1, 143599, Control_c, 0, 64, 110
1, 143603, Poly_aftertouch_c, 0, 74, 0
1, 143605, Note_off_c, 0, 72, 61
1, 143609, Note_off_c, 0, 64, 72
1, 143613, Control_c, 0, 64, 117
1, 143628, Control_c, 0, 64, 120
1, 143637, Note_off_c, 0, 76, 63
1, 143643, Control_c, 0, 64, 127
1, 143673, Note_on_c, 0, 64, 74
1, 143679, Note_on_c, 0, 57, 63
1, 143682, Note_on_c, 0, 60, 75
1, 143718, Note_off_c, 0, 64, 66
1, 143757, Note_on_c, 0, 52, 80
1, 143770, Note_off_c, 0, 60, 59
1, 143795, Note_off_c, 0, 57, 61
1, 143805, Note_off_c, 0, 52, 65
1, 143850, Control_c, 0, 64, 98
1, 143868, Note_on_c, 0, 83, 86
1, 143873, Control_c, 0, 64, 70
1, 143876, Note_on_c, 0, 78, 90
1, 143877, Note_on_c, 0, 75, 86
1, 143887, Control_c, 0, 64, 0
1, 143931, Control_c, 0, 64, 53
1, 143946, Control_c, 0, 64, 75
1, 143961, Control_c, 0, 64, 87
1, 143968, Note_on_c, 0, 71, 80
1, 143969, Note_off_c, 0, 83, 57
1, 143976, Control_c, 0, 64, 100
1, 143987, Note_off_c, 0, 75, 63
1, 143991, Control_c, 0, 64, 105
1, 143995, Note_off_c, 0, 78, 61
1, 144004, Note_off_c, 0, 71, 57
1, 144005, Control_c, 0, 64, 108
1, 144020, Control_c, 0, 64, 112
1, 144035, Control_c, 0, 64, 118
1, 144036, Note_on_c, 0, 63, 29
1, 144049, Note_on_c, 0, 71, 66
1, 144050, Control_c, 0, 64, 126
1, 144057, Note_on_c, 0, 66, 72
1, 144065, Control_c, 0, 64, 127
1, 144093, Note_off_c, 0, 71, 62
1, 144118, Note_on_c, 0, 59, 78
1, 144120, Note_off_c, 0, 66, 59
1, 144135, Note_off_c, 0, 63, 58
1, 144156, Note_off_c, 0, 59, 68
1, 144201, Note_on_c, 0, 71, 72
1, 144203, Note_on_c, 0, 63, 66
1, 144204, Note_on_c, 0, 66, 73
1, 144280, Note_on_c, 0, 59, 82
1, 144301, Note_off_c, 0, 63, 63
1, 144321, Note_off_c, 0, 59, 64
1, 144335, Note_off_c, 0, 66, 62
1, 144346, Note_off_c, 0, 71, 58
1, 144353, Note_on_c, 0, 47, 83
1, 144427, Note_on_c, 0, 35, 80
1, 144427, Note_off_c, 0, 47, 63
1, 144451, Control_c, 0, 64, 97
1, 144466, Note_off_c, 0, 35, 66
1, 144466, Control_c, 0, 64, 72
1, 144481, Control_c, 0, 64, 0
1, 144510, Control_c, 0, 64, 67
1, 144525, Note_on_c, 0, 72, 94
1, 144525, Note_on_c, 0, 76, 93
1, 144525, Control_c, 0, 64, 85
1, 144533, Note_on_c, 0, 84, 77
1, 144540, Control_c, 0, 64, 110
1, 144547, Note_on_c, 0, 83, 64
1, 144554, Control_c, 0, 64, 127
1, 144558, Note_off_c, 0, 84, 67
1, 144563, Note_off_c, 0, 83, 63
1, 144570, Note_off_c, 0, 76, 65
1, 144588, Note_off_c, 0, 72, 56
1, 144652, Note_on_c, 0, 64, 58
1, 144652, Note_on_c, 0, 70, 72
1, 144654, Note_on_c, 0, 71, 65
1, 144669, Note_on_c, 0, 65, 58
1, 144684, Note_off_c, 0, 71, 63
1, 144707, Note_off_c, 0, 70, 63
1, 144710, Note_off_c, 0, 64, 63
1, 144717, Note_off_c, 0, 65, 63
1, 144722, Note_on_c, 0, 76, 68
1, 144723, Note_on_c, 0, 67, 86
1, 144730, Note_on_c, 0, 79, 80
1, 144766, Note_on_c, 0, 77, 32
1, 144766, Note_off_c, 0, 67, 63
1, 144784, Note_off_c, 0, 76, 66
1, 144793, Note_off_c, 0, 79, 63
1, 144800, Note_off_c, 0, 77, 32
1, 144812, Note_on_c, 0, 60, 86
1, 144812, Note_on_c, 0, 69, 95
1, 144853, Note_off_c, 0, 69, 63
1, 144860, Note_off_c, 0, 60, 60
1, 144875, Note_on_c, 0, 72, 92
1, 144877, Note_on_c, 0, 84, 89
1, 144878, Note_on_c, 0, 76, 90
1, 144918, Note_off_c, 0, 84, 63
1, 144926, Note_off_c, 0, 76, 63
1, 144950, Note_off_c, 0, 72, 0
1, 144961, Note_on_c, 0, 64, 81
1, 144971, Note_on_c, 0, 71, 59
1, 144977, Note_on_c, 0, 65, 68
1, 144991, Note_off_c, 0, 71, 39
1, 144991, Poly_aftertouch_c, 0, 72, 0
1, 144998, Note_off_c, 0, 64, 57
1, 145003, Note_off_c, 0, 65, 69
1, 145026, Note_on_c, 0, 76, 86
1, 145028, Note_on_c, 0, 67, 89
1, 145031, Note_on_c, 0, 79, 86
1, 145075, Note_off_c, 0, 67, 59
1, 145083, Note_off_c, 0, 76, 65
1, 145098, Note_off_c, 0, 79, 63
1, 145121, Note_on_c, 0, 59, 72
1, 145125, Poly_aftertouch_c, 0, 69, 127
1, 145146, Note_off_c, 0, 59, 67
1, 145154, Control_c, 0, 64, 117
1, 145156, Poly_aftertouch_c, 0, 69, 0
1, 145169, Control_c, 0, 64, 86
1, 145184, Control_c, 0, 64, 48
1, 145187, Note_on_c, 0, 83, 91
1, 145192, Note_on_c, 0, 75, 92
1, 145194, Note_on_c, 0, 78, 86
1, 145199, Control_c, 0, 64, 0
1, 145244, Control_c, 0, 64, 68
1, 145259, Control_c, 0, 64, 81
1, 145274, Control_c, 0, 64, 93
1, 145278, Note_on_c, 0, 71, 86
1, 145289, Control_c, 0, 64, 101
1, 145301, Note_off_c, 0, 83, 58
1, 145304, Control_c, 0, 64, 104
1, 145317, Note_off_c, 0, 75, 63
1, 145319, Control_c, 0, 64, 107
1, 145328, Note_off_c, 0, 71, 61
1, 145332, Note_off_c, 0, 78, 62
1, 145333, Control_c, 0, 64, 112
1, 145348, Control_c, 0, 64, 118
1, 145367, Note_on_c, 0, 71, 65
1, 145370, Control_c, 0, 64, 124
1, 145373, Note_on_c, 0, 66, 78
1, 145380, Note_on_c, 0, 63, 70
1, 145384, Control_c, 0, 64, 127
1, 145402, Note_off_c, 0, 71, 62
1, 145436, Note_off_c, 0, 66, 65
1, 145441, Note_on_c, 0, 59, 79
1, 145458, Note_off_c, 0, 63, 63
1, 145480, Note_off_c, 0, 59, 66
1, 145521, Note_on_c, 0, 71, 78
1, 145527, Note_on_c, 0, 63, 74
1, 145530, Note_on_c, 0, 66, 79
1, 145602, Note_on_c, 0, 59, 84
1, 145624, Note_off_c, 0, 63, 62
1, 145644, Note_off_c, 0, 59, 64
1, 145658, Note_off_c, 0, 66, 61
1, 145671, Note_off_c, 0, 71, 53
1, 145676, Note_on_c, 0, 47, 95
1, 145736, Note_off_c, 0, 47, 66
1, 145760, Note_on_c, 0, 35, 87
1, 145784, Control_c, 0, 64, 103
1, 145798, Note_off_c, 0, 35, 64
1, 145799, Control_c, 0, 64, 78
1, 145814, Control_c, 0, 64, 0
1, 145844, Control_c, 0, 64, 61
1, 145858, Control_c, 0, 64, 78
1, 145865, Note_on_c, 0, 84, 88
1, 145866, Note_on_c, 0, 76, 95
1, 145867, Note_on_c, 0, 72, 92
1, 145873, Control_c, 0, 64, 96
1, 145888, Control_c, 0, 64, 125
1, 145903, Control_c, 0, 64, 127
1, 145918, Note_off_c, 0, 84, 63
1, 145938, Note_off_c, 0, 76, 60
1, 145948, Note_off_c, 0, 72, 63
1, 145974, Note_on_c, 0, 70, 76
1, 145974, Note_on_c, 0, 64, 62
1, 145976, Note_on_c, 0, 71, 73
1, 146003, Note_on_c, 0, 65, 57
1, 146020, Note_off_c, 0, 71, 58
1, 146037, Note_off_c, 0, 70, 63
1, 146041, Note_off_c, 0, 64, 65
1, 146043, Note_off_c, 0, 65, 65
1, 146058, Note_on_c, 0, 76, 72
1, 146064, Note_on_c, 0, 67, 85
1, 146067, Note_on_c, 0, 79, 83
1, 146116, Note_off_c, 0, 67, 62
1, 146125, Note_off_c, 0, 76, 66
1, 146141, Note_off_c, 0, 79, 63
1, 146144, Note_on_c, 0, 69, 90
1, 146148, Note_on_c, 0, 64, 74
1, 146153, Note_on_c, 0, 60, 72
1, 146158, Note_on_c, 0, 59, 69
1, 146183, Note_off_c, 0, 64, 65
1, 146186, Note_off_c, 0, 59, 64
1, 146189, Note_off_c, 0, 69, 64
1, 146201, Note_off_c, 0, 60, 60
1, 146219, Note_on_c, 0, 84, 89
1, 146221, Note_on_c, 0, 72, 89
1, 146222, Note_on_c, 0, 76, 90
1, 146263, Note_off_c, 0, 84, 65
1, 146275, Note_off_c, 0, 76, 58
1, 146295, Note_off_c, 0, 72, 64
1, 146299, Note_on_c, 0, 71, 88
1, 146308, Note_on_c, 0, 65, 74
1, 146308, Note_on_c, 0, 64, 68
1, 146328, Note_on_c, 0, 70, 45
1, 146331, Note_off_c, 0, 71, 56
1, 146335, Note_off_c, 0, 64, 63
1, 146350, Note_off_c, 0, 65, 65
1, 146359, Note_off_c, 0, 70, 51
1, 146372, Note_on_c, 0, 67, 87
1, 146372, Note_on_c, 0, 76, 84
1, 146374, Note_on_c, 0, 79, 84
1, 146419, Note_off_c, 0, 67, 60
1, 146428, Note_off_c, 0, 76, 67
1, 146444, Note_off_c, 0, 79, 63
1, 146454, Note_on_c, 0, 69, 87
1, 146464, Note_on_c, 0, 59, 75
1, 146495, Note_off_c, 0, 59, 64
1, 146496, Note_off_c, 0, 69, 61
1, 146504, Control_c, 0, 64, 124
1, 146520, Control_c, 0, 64, 89
1, 146534, Control_c, 0, 64, 61
1, 146538, Note_on_c, 0, 83, 92
1, 146540, Note_on_c, 0, 75, 95
1, 146542, Note_on_c, 0, 78, 89
1, 146549, Control_c, 0, 64, 0
1, 146594, Control_c, 0, 64, 66
1, 146608, Control_c, 0, 64, 79
1, 146623, Control_c, 0, 64, 92
1, 146626, Note_on_c, 0, 71, 86
1, 146638, Control_c, 0, 64, 101
1, 146645, Note_off_c, 0, 83, 58
1, 146652, Control_c, 0, 64, 104
1, 146663, Note_off_c, 0, 75, 62
1, 146667, Control_c, 0, 64, 107
1, 146677, Note_off_c, 0, 78, 61
1, 146680, Note_off_c, 0, 71, 59
1, 146682, Control_c, 0, 64, 112
1, 146697, Control_c, 0, 64, 116
1, 146711, Note_on_c, 0, 71, 61
1, 146712, Control_c, 0, 64, 119
1, 146716, Note_on_c, 0, 63, 66
1, 146716, Note_on_c, 0, 66, 78
1, 146726, Control_c, 0, 64, 121
1, 146741, Control_c, 0, 64, 122
1, 146751, Note_off_c, 0, 71, 62
1, 146756, Control_c, 0, 64, 123
1, 146772, Control_c, 0, 64, 125
1, 146779, Note_off_c, 0, 66, 64
1, 146784, Note_on_c, 0, 59, 82
1, 146787, Control_c, 0, 64, 125
1, 146800, Note_off_c, 0, 63, 62
1, 146802, Control_c, 0, 64, 126
1, 146817, Control_c, 0, 64, 127
1, 146824, Note_off_c, 0, 59, 67
1, 146869, Control_c, 0, 64, 127
1, 146877, Note_on_c, 0, 71, 79
1, 146890, Note_on_c, 0, 66, 76
1, 146890, Note_on_c, 0, 63, 71
1, 146961, Note_on_c, 0, 59, 78
1, 146980, Note_off_c, 0, 71, 0
1, 146982, Note_off_c, 0, 63, 55
1, 147001, Note_off_c, 0, 59, 63
1, 147009, Note_off_c, 0, 66, 61
1, 147032, Poly_aftertouch_c, 0, 71, 0
1, 147040, Note_on_c, 0, 47, 85
1, 147105, Control_c, 0, 64, 123
1, 147117, Note_off_c, 0, 47, 58
1, 147120, Control_c, 0, 64, 102
1, 147122, Note_on_c, 0, 35, 76
1, 147135, Control_c, 0, 64, 79
1, 147149, Control_c, 0, 64, 0
1, 147156, Note_off_c, 0, 35, 67
1, 147194, Control_c, 0, 64, 66
1, 147209, Control_c, 0, 64, 79
1, 147223, Control_c, 0, 64, 94
1, 147236, Note_on_c, 0, 84, 72
1, 147238, Control_c, 0, 64, 109
1, 147241, Note_on_c, 0, 76, 77
1, 147244, Note_on_c, 0, 72, 74
1, 147253, Control_c, 0, 64, 120
1, 147268, Control_c, 0, 64, 127
1, 147285, Note_off_c, 0, 84, 60
1, 147301, Note_off_c, 0, 76, 60
1, 147316, Note_off_c, 0, 72, 62
1, 147346, Note_on_c, 0, 70, 74
1, 147352, Note_on_c, 0, 71, 58
1, 147355, Note_on_c, 0, 64, 52
1, 147358, Note_on_c, 0, 65, 56
1, 147376, Note_off_c, 0, 71, 59
1, 147408, Note_off_c, 0, 64, 61
1, 147409, Note_off_c, 0, 70, 61
1, 147419, Note_off_c, 0, 65, 65
1, 147424, Note_on_c, 0, 76, 71
1, 147434, Note_on_c, 0, 67, 81
1, 147435, Note_on_c, 0, 79, 76
1, 147474, Note_off_c, 0, 67, 58
1, 147486, Note_off_c, 0, 76, 66
1, 147502, Note_off_c, 0, 79, 63
1, 147518, Note_on_c, 0, 64, 73
1, 147518, Note_on_c, 0, 69, 86
1, 147528, Note_on_c, 0, 60, 67
1, 147530, Note_on_c, 0, 59, 64
1, 147556, Note_off_c, 0, 64, 56
1, 147560, Note_off_c, 0, 59, 63
1, 147568, Note_off_c, 0, 69, 63
1, 147569, Note_off_c, 0, 60, 56
1, 147589, Note_on_c, 0, 72, 90
1, 147590, Note_on_c, 0, 84, 84
1, 147590, Note_on_c, 0, 76, 85
1, 147626, Note_off_c, 0, 84, 55
1, 147649, Note_off_c, 0, 76, 62
1, 147662, Note_off_c, 0, 72, 60
1, 147679, Note_on_c, 0, 70, 80
1, 147679, Note_on_c, 0, 71, 76
1, 147684, Note_on_c, 0, 64, 63
1, 147688, Note_on_c, 0, 65, 66
1, 147705, Note_off_c, 0, 71, 64
1, 147723, Note_off_c, 0, 64, 57
1, 147730, Note_off_c, 0, 70, 63
1, 147741, Note_off_c, 0, 65, 66
1, 147747, Note_on_c, 0, 76, 79
1, 147748, Note_on_c, 0, 67, 84
1, 147752, Note_on_c, 0, 79, 82
1, 147791, Note_off_c, 0, 67, 62
1, 147805, Note_off_c, 0, 76, 66
1, 147818, Note_off_c, 0, 79, 63
1, 147829, Note_on_c, 0, 64, 79
1, 147831, Note_on_c, 0, 69, 90
1, 147840, Note_on_c, 0, 60, 73
1, 147840, Note_on_c, 0, 59, 69
1, 147870, Note_off_c, 0, 59, 57
1, 147872, Note_off_c, 0, 69, 62
1, 147879, Note_off_c, 0, 64, 64
1, 147888, Note_off_c, 0, 60, 61
1, 147905, Note_on_c, 0, 72, 93
1, 147906, Note_on_c, 0, 76, 90
1, 147906, Note_on_c, 0, 84, 89
1, 147948, Note_off_c, 0, 84, 63
1, 147958, Note_off_c, 0, 76, 61
1, 147979, Note_on_c, 0, 71, 74
1, 147982, Note_on_c, 0, 64, 69
1, 147982, Note_on_c, 0, 70, 79
1, 147986, Note_on_c, 0, 65, 70
1, 147986, Note_off_c, 0, 72, 62
1, 148013, Note_off_c, 0, 71, 58
1, 148026, Note_off_c, 0, 64, 51
1, 148031, Note_off_c, 0, 70, 64
1, 148044, Note_off_c, 0, 65, 65
1, 148065, Note_on_c, 0, 67, 89
1, 148065, Note_on_c, 0, 76, 80
1, 148067, Note_on_c, 0, 79, 81
1, 148105, Note_off_c, 0, 67, 62
1, 148118, Note_off_c, 0, 76, 65
1, 148133, Note_on_c, 0, 64, 82
1, 148133, Note_off_c, 0, 79, 62
1, 148136, Note_on_c, 0, 69, 86
1, 148147, Note_on_c, 0, 60, 73
1, 148153, Note_on_c, 0, 59, 64
1, 148182, Note_off_c, 0, 59, 64
1, 148182, Note_off_c, 0, 69, 65
1, 148189, Note_off_c, 0, 64, 61
1, 148198, Note_off_c, 0, 60, 59
1, 148220, Note_on_c, 0, 84, 89
1, 148222, Note_on_c, 0, 72, 89
1, 148222, Note_on_c, 0, 76, 88
1, 148260, Note_off_c, 0, 84, 65
1, 148272, Note_off_c, 0, 76, 64
1, 148291, Note_on_c, 0, 71, 82
1, 148291, Note_off_c, 0, 72, 63
1, 148292, Note_on_c, 0, 65, 81
1, 148298, Note_on_c, 0, 64, 63
1, 148300, Note_on_c, 0, 70, 72
1, 148321, Note_off_c, 0, 71, 59
1, 148323, Note_off_c, 0, 70, 71
1, 148332, Note_off_c, 0, 64, 50
1, 148341, Note_off_c, 0, 65, 66
1, 148386, Note_on_c, 0, 67, 83
1, 148389, Note_on_c, 0, 76, 78
1, 148391, Note_on_c, 0, 79, 82
1, 148432, Note_off_c, 0, 67, 62
1, 148443, Note_off_c, 0, 76, 64
1, 148454, Note_off_c, 0, 79, 63
1, 148466, Note_on_c, 0, 69, 84
1, 148470, Note_on_c, 0, 59, 78
1, 148490, Note_off_c, 0, 69, 65
1, 148499, Control_c, 0, 64, 91
1, 148508, Note_off_c, 0, 59, 55
1, 148514, Control_c, 0, 64, 64
1, 148528, Control_c, 0, 64, 0
1, 148547, Note_on_c, 0, 71, 88
1, 148547, Note_on_c, 0, 83, 84
1, 148549, Note_on_c, 0, 75, 83
1, 148550, Note_on_c, 0, 78, 80
1, 148558, Control_c, 0, 64, 50
1, 148571, Note_off_c, 0, 83, 60
1, 148573, Control_c, 0, 64, 74
1, 148575, Note_off_c, 0, 71, 60
1, 148577, Note_off_c, 0, 75, 64
1, 148586, Note_off_c, 0, 78, 61
1, 148588, Control_c, 0, 64, 90
1, 148602, Control_c, 0, 64, 110
1, 148617, Control_c, 0, 64, 116
1, 148632, Control_c, 0, 64, 120
1, 148640, Note_on_c, 0, 66, 74
1, 148645, Note_on_c, 0, 63, 70
1, 148647, Control_c, 0, 64, 127
1, 148649, Note_on_c, 0, 71, 55
1, 148651, Note_on_c, 0, 59, 47
1, 148666, Note_off_c, 0, 71, 63
1, 148669, Note_off_c, 0, 66, 69
1, 148678, Note_off_c, 0, 59, 62
1, 148680, Note_off_c, 0, 63, 66
1, 148720, Note_on_c, 0, 66, 77
1, 148728, Note_on_c, 0, 63, 61
1, 148754, Note_off_c, 0, 63, 66
1, 148756, Note_off_c, 0, 66, 61
1, 148797, Note_on_c, 0, 59, 74
1, 148806, Note_on_c, 0, 47, 78
1, 148808, Note_on_c, 0, 54, 70
1, 148812, Note_on_c, 0, 51, 67
1, 148842, Note_off_c, 0, 47, 66
1, 148843, Note_off_c, 0, 54, 60
1, 148848, Note_off_c, 0, 51, 61
1, 148854, Note_off_c, 0, 59, 61
1, 148884, Note_on_c, 0, 83, 86
1, 148890, Note_on_c, 0, 71, 82
1, 148890, Note_on_c, 0, 75, 82
1, 148892, Note_on_c, 0, 78, 80
1, 148911, Note_off_c, 0, 71, 67
1, 148914, Note_off_c, 0, 75, 66
1, 148945, Note_off_c, 0, 78, 56
1, 148948, Note_off_c, 0, 83, 59
1, 148975, Note_on_c, 0, 71, 83
1, 148980, Note_on_c, 0, 59, 60
1, 148982, Note_on_c, 0, 66, 71
1, 148984, Note_on_c, 0, 63, 72
1, 149008, Note_off_c, 0, 66, 68
1, 149016, Note_off_c, 0, 63, 55
1, 149019, Note_off_c, 0, 71, 56
1, 149030, Note_off_c, 0, 59, 50
1, 149046, Note_on_c, 0, 78, 88
1, 149048, Note_on_c, 0, 72, 91
1, 149048, Note_on_c, 0, 84, 93
1, 149051, Note_on_c, 0, 75, 88
1, 149113, Note_off_c, 0, 72, 58
1, 149124, Note_off_c, 0, 75, 61
1, 149130, Note_off_c, 0, 84, 62
1, 149148, Note_on_c, 0, 72, 80
1, 149154, Note_off_c, 0, 78, 60
1, 149158, Poly_aftertouch_c, 0, 81, 0
1, 149161, Note_on_c, 0, 61, 73
1, 149161, Note_on_c, 0, 63, 74
1, 149166, Note_on_c, 0, 67, 58
1, 149173, Control_c, 0, 64, 87
1, 149188, Note_off_c, 0, 72, 66
1, 149188, Control_c, 0, 64, 52
1, 149195, Note_off_c, 0, 67, 65
1, 149203, Control_c, 0, 64, 0
1, 149204, Note_off_c, 0, 61, 57
1, 149218, Note_off_c, 0, 63, 64
1, 149220, Note_on_c, 0, 78, 84
1, 149220, Note_on_c, 0, 83, 83
1, 149221, Note_on_c, 0, 71, 92
1, 149223, Note_on_c, 0, 75, 89
1, 149232, Control_c, 0, 64, 62
1, 149247, Control_c, 0, 64, 77
1, 149258, Note_off_c, 0, 71, 57
1, 149262, Control_c, 0, 64, 98
1, 149268, Note_off_c, 0, 83, 61
1, 149277, Control_c, 0, 64, 119
1, 149280, Note_off_c, 0, 75, 62
1, 149280, Note_off_c, 0, 78, 63
1, 149292, Control_c, 0, 64, 124
1, 149307, Control_c, 0, 64, 127
1, 149322, Control_c, 0, 64, 127
1, 149322, Note_on_c, 0, 71, 73
1, 149324, Note_on_c, 0, 63, 81
1, 149328, Note_on_c, 0, 59, 73
1, 149330, Note_on_c, 0, 66, 68
1, 149338, Note_off_c, 0, 71, 68
1, 149356, Note_off_c, 0, 66, 68
1, 149362, Note_off_c, 0, 59, 63
1, 149371, Note_off_c, 0, 63, 62
1, 149391, Note_on_c, 0, 63, 69
1, 149402, Note_on_c, 0, 66, 84
1, 149417, Note_off_c, 0, 63, 65
1, 149427, Note_off_c, 0, 66, 69
1, 149477, Note_on_c, 0, 59, 89
1, 149486, Note_on_c, 0, 51, 78
1, 149488, Note_on_c, 0, 47, 75
1, 149489, Note_on_c, 0, 54, 69
1, 149522, Note_off_c, 0, 47, 66
1, 149523, Note_off_c, 0, 54, 61
1, 149533, Note_off_c, 0, 59, 62
1, 149540, Note_off_c, 0, 51, 61
1, 149566, Note_on_c, 0, 71, 89
1, 149567, Note_on_c, 0, 83, 85
1, 149568, Note_on_c, 0, 75, 85
1, 149571, Note_on_c, 0, 78, 81
1, 149605, Note_off_c, 0, 71, 59
1, 149608, Note_off_c, 0, 75, 64
1, 149635, Note_off_c, 0, 83, 60
1, 149639, Note_off_c, 0, 78, 58
1, 149649, Note_on_c, 0, 71, 81
1, 149653, Note_on_c, 0, 59, 77
1, 149660, Note_on_c, 0, 66, 76
1, 149665, Note_on_c, 0, 63, 70
1, 149695, Note_off_c, 0, 66, 64
1, 149697, Note_off_c, 0, 71, 61
1, 149703, Note_off_c, 0, 63, 55
1, 149704, Note_off_c, 0, 59, 58
1, 149733, Note_on_c, 0, 72, 94
1, 149733, Note_on_c, 0, 75, 92
1, 149733, Note_on_c, 0, 84, 89
1, 149736, Note_on_c, 0, 78, 85
1, 149765, Note_on_c, 0, 81, 48
1, 149784, Note_off_c, 0, 72, 61
1, 149804, Note_off_c, 0, 81, 43
1, 149805, Note_off_c, 0, 75, 60
1, 149811, Note_off_c, 0, 84, 60
1, 149813, Note_on_c, 0, 72, 78
1, 149820, Note_on_c, 0, 67, 75
1, 149823, Note_on_c, 0, 61, 74
1, 149829, Note_on_c, 0, 63, 72
1, 149853, Note_off_c, 0, 78, 55
1, 149861, Note_off_c, 0, 72, 67
1, 149864, Note_off_c, 0, 67, 59
1, 149877, Control_c, 0, 64, 101
1, 149885, Note_off_c, 0, 61, 60
1, 149888, Note_off_c, 0, 63, 64
1, 149892, Control_c, 0, 64, 73
1, 149907, Control_c, 0, 64, 0
1, 149912, Note_on_c, 0, 83, 84
1, 149915, Note_on_c, 0, 71, 94
1, 149918, Note_on_c, 0, 75, 95
1, 149918, Note_on_c, 0, 78, 91
1, 149937, Control_c, 0, 64, 59
1, 149951, Control_c, 0, 64, 77
1, 149956, Note_off_c, 0, 71, 60
1, 149957, Note_off_c, 0, 83, 64
1, 149967, Control_c, 0, 64, 94
1, 149970, Note_off_c, 0, 75, 65
1, 149970, Note_off_c, 0, 78, 63
1, 149982, Control_c, 0, 64, 117
1, 149996, Note_on_c, 0, 71, 73
1, 149997, Control_c, 0, 64, 127
1, 150008, Note_on_c, 0, 59, 68
1, 150015, Note_off_c, 0, 71, 71
1, 150032, Note_on_c, 0, 64, 57
1, 150034, Note_on_c, 0, 63, 9
1, 150035, Note_on_c, 0, 61, 34
1, 150040, Note_off_c, 0, 59, 65
1, 150052, Note_off_c, 0, 64, 61
1, 150070, Note_off_c, 0, 61, 43
1, 150080, Note_off_c, 0, 63, 0
1, 150080, Note_on_c, 0, 63, 52
1, 150082, Note_on_c, 0, 66, 79
1, 150109, Note_off_c, 0, 63, 65
1, 150119, Note_off_c, 0, 66, 65
1, 150166, Note_on_c, 0, 59, 85
1, 150174, Note_on_c, 0, 51, 72
1, 150180, Note_on_c, 0, 54, 62
1, 150183, Note_on_c, 0, 47, 64
1, 150213, Note_off_c, 0, 47, 65
1, 150214, Note_off_c, 0, 54, 61
1, 150221, Note_off_c, 0, 59, 60
1, 150231, Note_off_c, 0, 51, 61
1, 150255, Poly_aftertouch_c, 0, 48, 127
1, 150256, Note_on_c, 0, 71, 82
1, 150257, Note_on_c, 0, 83, 79
1, 150258, Note_on_c, 0, 75, 80
1, 150264, Note_on_c, 0, 78, 72
1, 150280, Note_off_c, 0, 71, 64
1, 150288, Poly_aftertouch_c, 0, 48, 0
1, 150291, Note_off_c, 0, 75, 62
1, 150306, Note_off_c, 0, 78, 52
1, 150320, Note_off_c, 0, 83, 58
1, 150347, Note_on_c, 0, 71, 87
1, 150347, Note_on_c, 0, 59, 75
1, 150353, Note_on_c, 0, 63, 77
1, 150353, Note_on_c, 0, 66, 74
1, 150380, Note_off_c, 0, 66, 64
1, 150391, Note_off_c, 0, 71, 58
1, 150404, Note_off_c, 0, 63, 60
1, 150405, Note_off_c, 0, 59, 63
1, 150426, Note_on_c, 0, 78, 77
1, 150427, Note_on_c, 0, 84, 88
1, 150428, Note_on_c, 0, 72, 94
1, 150431, Note_on_c, 0, 75, 87
1, 150471, Note_off_c, 0, 72, 63
1, 150489, Note_off_c, 0, 75, 62
1, 150498, Note_off_c, 0, 84, 61
1, 150499, Note_on_c, 0, 72, 88
1, 150505, Note_on_c, 0, 67, 86
1, 150511, Note_on_c, 0, 61, 78
1, 150515, Note_on_c, 0, 63, 78
1, 150523, Note_off_c, 0, 78, 58
1, 150539, Note_off_c, 0, 72, 68
1, 150548, Note_off_c, 0, 67, 61
1, 150568, Note_off_c, 0, 61, 62
1, 150568, Note_off_c, 0, 63, 62
1, 150598, Note_on_c, 0, 83, 85
1, 150598, Note_on_c, 0, 78, 86
1, 150600, Note_on_c, 0, 71, 94
1, 150602, Note_on_c, 0, 75, 91
1, 150638, Note_off_c, 0, 71, 61
1, 150661, Note_off_c, 0, 75, 55
1, 150677, Note_on_c, 0, 71, 93
1, 150677, Note_off_c, 0, 83, 62
1, 150684, Note_on_c, 0, 59, 83
1, 150685, Note_on_c, 0, 63, 84
1, 150685, Note_on_c, 0, 66, 87
1, 150694, Note_off_c, 0, 78, 60
1, 150714, Note_off_c, 0, 66, 55
1, 150723, Note_off_c, 0, 71, 60
1, 150735, Note_off_c, 0, 63, 62
1, 150745, Note_off_c, 0, 59, 62
1, 150763, Note_on_c, 0, 72, 97
1, 150765, Note_on_c, 0, 75, 93
1, 150765, Note_on_c, 0, 78, 85
1, 150768, Note_on_c, 0, 84, 95
1, 150812, Note_on_c, 0, 81, 41
1, 150835, Note_off_c, 0, 72, 0
1, 150842, Note_off_c, 0, 84, 61
1, 150846, Note_on_c, 0, 72, 83
1, 150848, Note_off_c, 0, 81, 47
1, 150850, Note_off_c, 0, 75, 60
1, 150853, Note_on_c, 0, 67, 87
1, 150860, Note_on_c, 0, 61, 79
1, 150860, Note_on_c, 0, 63, 85
1, 150881, Note_off_c, 0, 78, 55
1, 150891, Note_off_c, 0, 67, 63
1, 150893, Note_off_c, 0, 72, 67
1, 150910, Note_off_c, 0, 61, 62
1, 150916, Note_off_c, 0, 63, 64
1, 150944, Note_on_c, 0, 78, 78
1, 150947, Note_on_c, 0, 83, 90
1, 150948, Note_on_c, 0, 71, 97
1, 150949, Note_on_c, 0, 75, 95
1, 150989, Note_off_c, 0, 71, 64
1, 151003, Note_off_c, 0, 75, 66
1, 151021, Note_off_c, 0, 83, 64
1, 151022, Note_off_c, 0, 78, 63
1, 151062, Note_on_c, 0, 71, 99
1, 151065, Note_on_c, 0, 66, 87
1, 151066, Note_on_c, 0, 63, 86
1, 151069, Note_on_c, 0, 59, 79
1, 151085, Note_off_c, 0, 66, 68
1, 151088, Note_off_c, 0, 71, 60
1, 151101, Note_off_c, 0, 59, 63
1, 151107, Note_off_c, 0, 63, 62
1, 151200, Note_on_c, 0, 74, 100
1, 151200, Note_on_c, 0, 86, 102
1, 151200, Note_on_c, 0, 77, 100
1, 151200, Note_on_c, 0, 81, 96
1, 151249, Control_c, 0, 64, 108
1, 151264, Control_c, 0, 64, 84
1, 151270, Note_off_c, 0, 74, 65
1, 151279, Control_c, 0, 64, 54
1, 151285, Note_off_c, 0, 77, 62
1, 151286, Note_off_c, 0, 86, 63
1, 151291, Note_off_c, 0, 81, 62
1, 151294, Control_c, 0, 64, 0
1, 151323, Control_c, 0, 64, 63
1, 151346, Control_c, 0, 64, 78
1, 151349, Note_on_c, 0, 63, 82
1, 151352, Note_on_c, 0, 74, 97
1, 151355, Note_on_c, 0, 69, 84
1, 151358, Note_on_c, 0, 65, 75
1, 151361, Control_c, 0, 64, 94
1, 151376, Control_c, 0, 64, 107
1, 151391, Control_c, 0, 64, 109
1, 151405, Control_c, 0, 64, 112
1, 151420, Control_c, 0, 64, 125
1, 151435, Control_c, 0, 64, 127
1, 151444, Poly_aftertouch_c, 0, 67, 127
1, 151473, Note_off_c, 0, 74, 61
1, 151475, Poly_aftertouch_c, 0, 67, 0
1, 151479, Note_off_c, 0, 69, 62
1, 151495, Note_off_c, 0, 65, 64
1, 151503, Note_off_c, 0, 63, 64
1, 151673, Control_c, 0, 64, 120
1, 151688, Control_c, 0, 64, 109
1, 151702, Control_c, 0, 64, 101
1, 151717, Control_c, 0, 64, 93
1, 151732, Control_c, 0, 64, 86
1, 151746, Control_c, 0, 64, 79
1, 151760, Control_c, 0, 64, 71
1, 151775, Control_c, 0, 64, 66
1, 151790, Control_c, 0, 64, 62
1, 151805, Control_c, 0, 64, 59
1, 151820, Control_c, 0, 64, 58
1, 151835, Control_c, 0, 64, 58
1, 151850, Control_c, 0, 64, 57
1, 151864, Control_c, 0, 64, 55
1, 151879, Control_c, 0, 64, 54
1, 151894, Control_c, 0, 64, 54
1, 152153, Control_c, 0, 64, 54
1, 152213, Control_c, 0, 64, 55
1, 152242, Control_c, 0, 64, 55
1, 152301, Control_c, 0, 64, 56
1, 152316, Control_c, 0, 64, 56
1, 152331, Control_c, 0, 64, 57
1, 152376, Control_c, 0, 64, 57
1, 152391, Control_c, 0, 64, 58
1, 152406, Control_c, 0, 64, 58
1, 152436, Control_c, 0, 64, 59
1, 152450, Control_c, 0, 64, 59
1, 152465, Control_c, 0, 64, 60
1, 152613, Control_c, 0, 64, 60
1, 152791, Control_c, 0, 64, 61
1, 152806, Control_c, 0, 64, 61
1, 152842, Control_c, 0, 64, 62
1, 152857, Control_c, 0, 64, 62
1, 152872, Control_c, 0, 64, 64
1, 152887, Control_c, 0, 64, 66
1, 152902, Control_c, 0, 64, 68
1, 152917, Control_c, 0, 64, 70
1, 152919, Note_on_c, 0, 23, 30
1, 152923, Note_on_c, 0, 35, 24
1, 152932, Control_c, 0, 64, 73
1, 152947, Control_c, 0, 64, 76
1, 152962, Control_c, 0, 64, 80
1, 152976, Control_c, 0, 64, 84
1, 152991, Control_c, 0, 64, 88
1, 153006, Control_c, 0, 64, 93
1, 153021, Control_c, 0, 64, 97
1, 153036, Control_c, 0, 64, 101
1, 153050, Control_c, 0, 64, 105
1, 153065, Control_c, 0, 64, 110
1, 153074, Note_off_c, 0, 35, 41
1, 153075, Note_off_c, 0, 23, 37
1, 153080, Control_c, 0, 64, 114
1, 153094, Control_c, 0, 64, 119
1, 153109, Control_c, 0, 64, 123
1, 153124, Control_c, 0, 64, 127
1, 153126, Note_on_c, 0, 42, 30
1, 153129, Note_on_c, 0, 38, 22
1, 153139, Control_c, 0, 64, 127
1, 153176, Note_off_c, 0, 38, 45
1, 153182, Note_off_c, 0, 42, 53
1, 153238, Note_on_c, 0, 27, 53
1, 153244, Note_on_c, 0, 39, 40
1, 153314, Note_off_c, 0, 39, 57
1, 153319, Note_off_c, 0, 27, 61
1, 153340, Note_on_c, 0, 46, 50
1, 153387, Note_off_c, 0, 46, 56
1, 153446, Note_on_c, 0, 42, 53
1, 153451, Note_on_c, 0, 30, 52
1, 153495, Note_off_c, 0, 42, 60
1, 153503, Note_off_c, 0, 30, 59
1, 153505, Note_on_c, 0, 48, 52
1, 153523, Note_on_c, 0, 44, 19
1, 153531, Note_off_c, 0, 48, 60
1, 153553, Note_off_c, 0, 44, 0
1, 153570, Poly_aftertouch_c, 0, 44, 0
1, 153615, Note_on_c, 0, 46, 69
1, 153620, Note_on_c, 0, 34, 56
1, 153644, Note_off_c, 0, 46, 63
1, 153656, Note_off_c, 0, 34, 63
1, 153684, Note_on_c, 0, 51, 60
1, 153700, Note_on_c, 0, 46, 41
1, 153725, Note_off_c, 0, 51, 59
1, 153729, Note_off_c, 0, 46, 49
1, 153769, Note_on_c, 0, 47, 71
1, 153769, Control_c, 0, 64, 116
1, 153775, Note_on_c, 0, 35, 66
1, 153784, Control_c, 0, 64, 107
1, 153799, Control_c, 0, 64, 106
1, 153809, Note_off_c, 0, 35, 62
1, 153812, Note_off_c, 0, 47, 64
1, 153843, Control_c, 0, 64, 106
1, 153856, Note_on_c, 0, 54, 65
1, 153858, Control_c, 0, 64, 109
1, 153860, Note_on_c, 0, 50, 56
1, 153873, Control_c, 0, 64, 116
1, 153884, Note_off_c, 0, 50, 62
1, 153888, Control_c, 0, 64, 123
1, 153889, Note_off_c, 0, 54, 61
1, 153903, Control_c, 0, 64, 127
1, 153921, Note_on_c, 0, 51, 71
1, 153924, Note_on_c, 0, 39, 68
1, 153984, Note_off_c, 0, 39, 60
1, 153993, Note_off_c, 0, 51, 62
1, 153999, Note_on_c, 0, 58, 68
1, 154006, Note_on_c, 0, 53, 60
1, 154034, Note_off_c, 0, 53, 67
1, 154054, Note_off_c, 0, 58, 56
1, 154068, Note_on_c, 0, 54, 78
1, 154070, Note_on_c, 0, 42, 75
1, 154121, Note_off_c, 0, 54, 60
1, 154130, Note_off_c, 0, 42, 63
1, 154133, Note_on_c, 0, 60, 72
1, 154142, Note_on_c, 0, 56, 69
1, 154171, Note_off_c, 0, 56, 65
1, 154172, Note_off_c, 0, 60, 59
1, 154217, Note_on_c, 0, 58, 84
1, 154220, Note_on_c, 0, 46, 79
1, 154261, Note_off_c, 0, 58, 0
1, 154271, Note_off_c, 0, 46, 61
1, 154287, Note_on_c, 0, 63, 76
1, 154306, Poly_aftertouch_c, 0, 58, 0
1, 154311, Note_off_c, 0, 63, 68
1, 154318, Control_c, 0, 64, 120
1, 154339, Control_c, 0, 64, 93
1, 154354, Control_c, 0, 64, 79
1, 154369, Control_c, 0, 64, 74
1, 154375, Note_on_c, 0, 59, 87
1, 154379, Note_on_c, 0, 47, 85
1, 154384, Control_c, 0, 64, 78
1, 154399, Control_c, 0, 64, 89
1, 154413, Control_c, 0, 64, 107
1, 154419, Note_off_c, 0, 47, 62
1, 154420, Note_off_c, 0, 59, 65
1, 154428, Control_c, 0, 64, 127
1, 154443, Note_on_c, 0, 62, 75
1, 154443, Note_on_c, 0, 66, 78
1, 154470, Note_off_c, 0, 62, 65
1, 154482, Note_off_c, 0, 66, 61
1, 154515, Note_on_c, 0, 63, 92
1, 154521, Note_on_c, 0, 51, 81
1, 154579, Note_off_c, 0, 63, 60
1, 154580, Note_off_c, 0, 51, 60
1, 154589, Note_on_c, 0, 70, 81
1, 154591, Note_on_c, 0, 65, 72
1, 154616, Note_off_c, 0, 65, 69
1, 154652, Note_off_c, 0, 70, 59
1, 154665, Note_on_c, 0, 66, 98
1, 154667, Note_on_c, 0, 54, 79
1, 154708, Note_on_c, 0, 56, 35
1, 154718, Note_off_c, 0, 66, 65
1, 154724, Note_off_c, 0, 54, 62
1, 154729, Note_on_c, 0, 72, 79
1, 154732, Note_on_c, 0, 68, 78
1, 154739, Note_off_c, 0, 56, 46
1, 154753, Note_off_c, 0, 68, 71
1, 154774, Note_off_c, 0, 72, 64
1, 154821, Note_on_c, 0, 70, 96
1, 154828, Note_on_c, 0, 58, 86
1, 154863, Note_off_c, 0, 70, 0
1, 154872, Note_off_c, 0, 58, 65
1, 154884, Note_on_c, 0, 75, 83
1, 154899, Poly_aftertouch_c, 0, 70, 127
1, 154906, Note_off_c, 0, 75, 64
1, 154908, Poly_aftertouch_c, 0, 70, 0
1, 154933, Control_c, 0, 64, 111
1, 154948, Control_c, 0, 64, 86
1, 154962, Control_c, 0, 64, 69
1, 154977, Control_c, 0, 64, 64
1, 154979, Note_on_c, 0, 71, 95
1, 154982, Note_on_c, 0, 59, 91
1, 154992, Control_c, 0, 64, 73
1, 155007, Control_c, 0, 64, 92
1, 155022, Note_off_c, 0, 59, 67
1, 155022, Control_c, 0, 64, 117
1, 155027, Note_off_c, 0, 71, 63
1, 155036, Control_c, 0, 64, 127
1, 155054, Note_on_c, 0, 78, 87
1, 155059, Note_on_c, 0, 74, 76
1, 155099, Note_off_c, 0, 74, 62
1, 155105, Note_off_c, 0, 78, 63
1, 155156, Note_on_c, 0, 75, 95
1, 155159, Note_on_c, 0, 63, 90
1, 155191, Note_off_c, 0, 75, 70
1, 155208, Note_off_c, 0, 63, 64
1, 155231, Note_on_c, 0, 82, 92
1, 155233, Note_on_c, 0, 77, 82
1, 155273, Note_off_c, 0, 77, 60
1, 155301, Note_off_c, 0, 82, 56
1, 155339, Note_on_c, 0, 71, 98
1, 155340, Control_c, 0, 64, 107
1, 155345, Note_on_c, 0, 59, 84
1, 155345, Note_on_c, 0, 66, 91
1, 155355, Control_c, 0, 64, 80
1, 155370, Control_c, 0, 64, 54
1, 155385, Control_c, 0, 64, 42
1, 155400, Control_c, 0, 64, 70
1, 155414, Note_off_c, 0, 59, 64
1, 155414, Note_off_c, 0, 71, 60
1, 155414, Control_c, 0, 64, 89
1, 155418, Note_off_c, 0, 66, 65
1, 155429, Control_c, 0, 64, 119
1, 155430, Note_on_c, 0, 85, 86
1, 155433, Note_on_c, 0, 73, 92
1, 155444, Poly_aftertouch_c, 0, 63, 0
1, 155444, Control_c, 0, 64, 127
1, 155454, Note_off_c, 0, 73, 66
1, 155458, Note_on_c, 0, 79, 49
1, 155480, Note_off_c, 0, 79, 52
1, 155501, Note_off_c, 0, 85, 63
1, 155534, Note_on_c, 0, 74, 97
1, 155539, Note_on_c, 0, 62, 89
1, 155540, Note_on_c, 0, 70, 95
1, 155578, Note_off_c, 0, 74, 68
1, 155595, Note_off_c, 0, 70, 58
1, 155599, Note_off_c, 0, 62, 61
1, 155635, Note_on_c, 0, 75, 96
1, 155635, Note_on_c, 0, 87, 88
1, 155642, Note_on_c, 0, 82, 79
1, 155646, Poly_aftertouch_c, 0, 66, 0
1, 155661, Note_off_c, 0, 75, 63
1, 155662, Note_off_c, 0, 82, 70
1, 155665, Note_on_c, 0, 85, 37
1, 155695, Note_off_c, 0, 85, 52
1, 155697, Note_off_c, 0, 87, 65
1, 155829, Note_on_c, 0, 78, 100
1, 155840, Note_on_c, 0, 66, 80
1, 155840, Note_on_c, 0, 68, 81
1, 155840, Note_on_c, 0, 71, 80
1, 155853, Control_c, 0, 64, 94
1, 155867, Control_c, 0, 64, 64
1, 155882, Control_c, 0, 64, 0
1, 155903, Note_on_c, 0, 69, 21
1, 155912, Control_c, 0, 64, 49
1, 155922, Note_off_c, 0, 78, 61
1, 155926, Control_c, 0, 64, 77
1, 155941, Control_c, 0, 64, 100
1, 155942, Note_off_c, 0, 71, 59
1, 155943, Note_off_c, 0, 69, 52
1, 155948, Poly_aftertouch_c, 0, 70, 0
1, 155956, Control_c, 0, 64, 127
1, 155967, Note_off_c, 0, 66, 65
1, 155969, Note_off_c, 0, 68, 63
1, 155978, Note_on_c, 0, 90, 92
1, 155980, Note_on_c, 0, 80, 80
1, 155984, Note_on_c, 0, 78, 88
1, 155989, Note_on_c, 0, 83, 64
1, 156040, Note_off_c, 0, 83, 52
1, 156057, Note_off_c, 0, 80, 61
1, 156068, Note_off_c, 0, 90, 65
1, 156078, Note_off_c, 0, 78, 63
1, 156101, Note_on_c, 0, 59, 90
1, 156109, Note_on_c, 0, 52, 80
1, 156142, Note_off_c, 0, 59, 65
1, 156143, Note_off_c, 0, 52, 62
1, 156193, Note_on_c, 0, 76, 92
1, 156197, Note_on_c, 0, 88, 84
1, 156198, Note_on_c, 0, 83, 66
1, 156200, Note_on_c, 0, 80, 84
1, 156231, Note_off_c, 0, 76, 66
1, 156262, Note_off_c, 0, 80, 63
1, 156263, Note_off_c, 0, 83, 62
1, 156275, Note_off_c, 0, 88, 63
1, 156327, Note_on_c, 0, 78, 96
1, 156327, Note_on_c, 0, 68, 75
1, 156330, Note_on_c, 0, 66, 75
1, 156348, Note_on_c, 0, 71, 44
1, 156383, Note_off_c, 0, 78, 62
1, 156393, Note_off_c, 0, 68, 62
1, 156399, Note_off_c, 0, 66, 66
1, 156409, Note_on_c, 0, 90, 83
1, 156413, Note_on_c, 0, 78, 78
1, 156418, Note_on_c, 0, 80, 73
1, 156419, Note_on_c, 0, 83, 71
1, 156433, Note_off_c, 0, 80, 68
1, 156449, Note_off_c, 0, 71, 47
1, 156479, Note_off_c, 0, 83, 59
1, 156490, Note_off_c, 0, 90, 64
1, 156492, Note_off_c, 0, 78, 61
1, 156501, Note_on_c, 0, 76, 96
1, 156502, Note_on_c, 0, 71, 62
1, 156506, Note_on_c, 0, 68, 81
1, 156509, Note_on_c, 0, 64, 80
1, 156548, Note_off_c, 0, 76, 67
1, 156554, Note_off_c, 0, 71, 61
1, 156568, Note_off_c, 0, 68, 63
1, 156574, Note_off_c, 0, 64, 63
1, 156579, Note_on_c, 0, 76, 90
1, 156589, Note_on_c, 0, 88, 86
1, 156595, Note_on_c, 0, 83, 78
1, 156601, Note_on_c, 0, 80, 83
1, 156645, Note_off_c, 0, 76, 62
1, 156646, Control_c, 0, 64, 116
1, 156655, Note_off_c, 0, 83, 57
1, 156655, Note_off_c, 0, 88, 62
1, 156661, Note_off_c, 0, 80, 60
1, 156661, Control_c, 0, 64, 87
1, 156676, Control_c, 0, 64, 67
1, 156682, Note_on_c, 0, 74, 94
1, 156685, Note_on_c, 0, 62, 84
1, 156688, Note_on_c, 0, 68, 86
1, 156691, Control_c, 0, 64, 50
1, 156700, Note_on_c, 0, 64, 72
1, 156706, Control_c, 0, 64, 67
1, 156721, Control_c, 0, 64, 81
1, 156729, Note_off_c, 0, 62, 63
1, 156735, Note_off_c, 0, 74, 65
1, 156735, Control_c, 0, 64, 105
1, 156750, Control_c, 0, 64, 127
1, 156766, Note_on_c, 0, 72, 92
1, 156767, Note_on_c, 0, 84, 88
1, 156768, Note_on_c, 0, 80, 91
1, 156772, Note_off_c, 0, 68, 59
1, 156786, Note_off_c, 0, 64, 56
1, 156807, Note_off_c, 0, 72, 67
1, 156810, Note_off_c, 0, 84, 64
1, 156812, Note_off_c, 0, 80, 64
1, 156864, Note_on_c, 0, 83, 92
1, 156868, Note_on_c, 0, 71, 90
1, 156872, Note_on_c, 0, 80, 90
1, 156903, Note_off_c, 0, 71, 57
1, 156923, Note_off_c, 0, 80, 62
1, 156935, Note_off_c, 0, 83, 63
1, 156942, Note_on_c, 0, 59, 75
1, 156945, Note_on_c, 0, 71, 76
1, 156950, Note_on_c, 0, 64, 43
1, 156955, Note_on_c, 0, 68, 77
1, 156989, Note_off_c, 0, 64, 64
1, 156992, Note_off_c, 0, 59, 65
1, 157001, Note_off_c, 0, 71, 62
1, 157009, Note_off_c, 0, 68, 63
1, 157046, Control_c, 0, 64, 105
1, 157060, Control_c, 0, 64, 80
1, 157075, Control_c, 0, 64, 56
1, 157079, Note_on_c, 0, 69, 81
1, 157081, Note_on_c, 0, 65, 81
1, 157081, Note_on_c, 0, 76, 92
1, 157088, Note_on_c, 0, 64, 69
1, 157090, Control_c, 0, 64, 0
1, 157105, Control_c, 0, 64, 68
1, 157120, Control_c, 0, 64, 83
1, 157130, Note_off_c, 0, 76, 67
1, 157135, Control_c, 0, 64, 103
1, 157138, Note_off_c, 0, 69, 64
1, 157150, Control_c, 0, 64, 127
1, 157159, Note_off_c, 0, 64, 64
1, 157159, Note_off_c, 0, 65, 67
1, 157167, Note_on_c, 0, 88, 81
1, 157173, Note_on_c, 0, 81, 77
1, 157174, Note_on_c, 0, 77, 76
1, 157182, Note_on_c, 0, 76, 74
1, 157210, Note_off_c, 0, 77, 57
1, 157213, Note_off_c, 0, 76, 54
1, 157221, Note_off_c, 0, 81, 61
1, 157232, Note_off_c, 0, 88, 62
1, 157261, Note_on_c, 0, 64, 89
1, 157269, Note_on_c, 0, 62, 89
1, 157269, Note_on_c, 0, 52, 85
1, 157291, Note_off_c, 0, 52, 73
1, 157297, Note_off_c, 0, 62, 59
1, 157300, Note_off_c, 0, 64, 67
1, 157335, Note_on_c, 0, 53, 3
1, 157347, Note_on_c, 0, 74, 82
1, 157349, Note_on_c, 0, 77, 77
1, 157352, Note_on_c, 0, 81, 74
1, 157352, Note_on_c, 0, 86, 81
1, 157356, Note_off_c, 0, 53, 0
1, 157371, Poly_aftertouch_c, 0, 53, 0
1, 157382, Note_off_c, 0, 77, 56
1, 157396, Note_off_c, 0, 74, 62
1, 157406, Note_off_c, 0, 81, 53
1, 157417, Note_off_c, 0, 86, 62
1, 157427, Note_on_c, 0, 64, 87
1, 157430, Note_on_c, 0, 74, 61
1, 157437, Note_on_c, 0, 76, 82
1, 157455, Note_off_c, 0, 76, 74
1, 157458, Note_off_c, 0, 74, 67
1, 157468, Note_off_c, 0, 64, 68
1, 157502, Note_on_c, 0, 74, 77
1, 157504, Note_on_c, 0, 86, 80
1, 157522, Note_on_c, 0, 83, 60
1, 157522, Note_on_c, 0, 84, 63
1, 157530, Note_on_c, 0, 77, 40
1, 157545, Note_off_c, 0, 86, 62
1, 157549, Note_off_c, 0, 74, 67
1, 157550, Note_off_c, 0, 83, 66
1, 157551, Note_off_c, 0, 84, 68
1, 157561, Note_off_c, 0, 77, 33
1, 157606, Note_on_c, 0, 79, 85
1, 157609, Note_on_c, 0, 67, 95
1, 157613, Note_on_c, 0, 77, 87
1, 157640, Note_off_c, 0, 67, 59
1, 157654, Note_off_c, 0, 77, 54
1, 157662, Note_on_c, 0, 67, 73
1, 157664, Note_off_c, 0, 79, 60
1, 157666, Note_on_c, 0, 65, 80
1, 157672, Note_on_c, 0, 62, 73
1, 157685, Note_on_c, 0, 55, 47
1, 157687, Note_on_c, 0, 57, 47
1, 157691, Control_c, 0, 64, 96
1, 157706, Note_off_c, 0, 67, 64
1, 157706, Control_c, 0, 64, 71
1, 157710, Note_off_c, 0, 55, 58
1, 157710, Note_off_c, 0, 57, 60
1, 157712, Note_off_c, 0, 65, 65
1, 157721, Control_c, 0, 64, 0
1, 157737, Note_off_c, 0, 62, 60
1, 157750, Control_c, 0, 64, 62
1, 157764, Control_c, 0, 64, 79
1, 157766, Note_on_c, 0, 62, 68
1, 157767, Note_on_c, 0, 69, 97
1, 157774, Note_on_c, 0, 65, 79
1, 157776, Note_on_c, 0, 57, 78
1, 157779, Control_c, 0, 64, 105
1, 157794, Control_c, 0, 64, 127
1, 157820, Note_off_c, 0, 65, 62
1, 157826, Note_off_c, 0, 69, 64
1, 157829, Note_off_c, 0, 57, 62
1, 157843, Note_off_c, 0, 62, 62
1, 157856, Note_on_c, 0, 69, 83
1, 157857, Note_on_c, 0, 77, 85
1, 157863, Note_on_c, 0, 81, 85
1, 157866, Note_on_c, 0, 74, 77
1, 157887, Note_off_c, 0, 74, 72
1, 157895, Note_off_c, 0, 69, 64
1, 157903, Note_off_c, 0, 77, 62
1, 157919, Note_off_c, 0, 81, 62
1, 157938, Note_on_c, 0, 71, 94
1, 157942, Note_on_c, 0, 63, 91
1, 157945, Note_on_c, 0, 59, 77
1, 157946, Note_on_c, 0, 66, 76
1, 157970, Note_off_c, 0, 66, 70
1, 157975, Note_off_c, 0, 71, 59
1, 157984, Note_off_c, 0, 63, 66
1, 157990, Note_off_c, 0, 59, 63
1, 158025, Note_on_c, 0, 71, 84
1, 158027, Note_on_c, 0, 83, 87
1, 158032, Note_on_c, 0, 75, 83
1, 158032, Note_on_c, 0, 78, 83
1, 158055, Note_off_c, 0, 75, 65
1, 158056, Note_off_c, 0, 71, 51
1, 158068, Note_off_c, 0, 83, 62
1, 158091, Note_off_c, 0, 78, 62
1, 158181, Note_on_c, 0, 66, 95
1, 158187, Note_on_c, 0, 54, 74
1, 158187, Control_c, 0, 64, 110
1, 158189, Note_on_c, 0, 59, 69
1, 158192, Note_on_c, 0, 56, 78
1, 158202, Control_c, 0, 64, 83
1, 158217, Control_c, 0, 64, 46
1, 158232, Control_c, 0, 64, 0
1, 158240, Note_off_c, 0, 66, 66
1, 158262, Control_c, 0, 64, 69
1, 158267, Note_off_c, 0, 59, 63
1, 158277, Control_c, 0, 64, 87
1, 158287, Note_off_c, 0, 56, 64
1, 158291, Note_off_c, 0, 54, 62
1, 158291, Control_c, 0, 64, 115
1, 158294, Note_on_c, 0, 68, 88
1, 158296, Note_on_c, 0, 78, 93
1, 158301, Note_on_c, 0, 71, 74
1, 158306, Control_c, 0, 64, 127
1, 158307, Note_on_c, 0, 66, 84
1, 158374, Note_off_c, 0, 71, 59
1, 158389, Note_off_c, 0, 78, 65
1, 158390, Note_off_c, 0, 68, 60
1, 158413, Note_on_c, 0, 47, 103
1, 158416, Note_off_c, 0, 66, 64
1, 158421, Note_on_c, 0, 40, 83
1, 158458, Note_on_c, 0, 44, 23
1, 158476, Note_off_c, 0, 40, 61
1, 158479, Note_off_c, 0, 47, 63
1, 158499, Note_off_c, 0, 44, 41
1, 158514, Note_on_c, 0, 64, 93
1, 158516, Note_on_c, 0, 71, 67
1, 158518, Note_on_c, 0, 76, 84
1, 158518, Note_on_c, 0, 68, 85
1, 158554, Note_off_c, 0, 64, 65
1, 158581, Note_off_c, 0, 68, 63
1, 158588, Note_off_c, 0, 71, 62
1, 158596, Note_off_c, 0, 76, 65
1, 158652, Note_on_c, 0, 66, 98
1, 158657, Note_on_c, 0, 54, 73
1, 158659, Note_on_c, 0, 56, 78
1, 158661, Control_c, 0, 64, 103
1, 158671, Note_on_c, 0, 59, 47
1, 158676, Control_c, 0, 64, 79
1, 158691, Control_c, 0, 64, 60
1, 158706, Control_c, 0, 64, 60
1, 158715, Note_off_c, 0, 66, 65
1, 158721, Control_c, 0, 64, 74
1, 158736, Control_c, 0, 64, 97
1, 158736, Note_off_c, 0, 56, 63
1, 158739, Note_on_c, 0, 78, 89
1, 158739, Note_on_c, 0, 68, 89
1, 158746, Note_on_c, 0, 71, 74
1, 158747, Note_on_c, 0, 66, 74
1, 158748, Note_off_c, 0, 54, 61
1, 158751, Control_c, 0, 64, 127
1, 158813, Note_off_c, 0, 68, 62
1, 158817, Note_off_c, 0, 59, 0
1, 158831, Note_off_c, 0, 71, 59
1, 158834, Note_off_c, 0, 78, 63
1, 158837, Note_on_c, 0, 59, 45
1, 158844, Note_on_c, 0, 64, 97
1, 158852, Note_on_c, 0, 56, 78
1, 158853, Note_on_c, 0, 52, 80
1, 158853, Note_off_c, 0, 66, 61
1, 158886, Note_off_c, 0, 64, 66
1, 158892, Note_off_c, 0, 59, 63
1, 158912, Note_off_c, 0, 56, 63
1, 158917, Note_off_c, 0, 52, 64
1, 158917, Note_on_c, 0, 64, 87
1, 158920, Note_on_c, 0, 76, 84
1, 158927, Note_on_c, 0, 71, 76
1, 158929, Note_on_c, 0, 68, 83
1, 158968, Note_off_c, 0, 64, 64
1, 158984, Note_off_c, 0, 76, 64
1, 158995, Note_off_c, 0, 71, 57
1, 158996, Note_off_c, 0, 68, 56
1, 159019, Note_on_c, 0, 62, 99
1, 159024, Note_on_c, 0, 50, 85
1, 159025, Control_c, 0, 64, 96
1, 159026, Note_on_c, 0, 56, 86
1, 159036, Note_on_c, 0, 52, 77
1, 159040, Control_c, 0, 64, 71
1, 159055, Control_c, 0, 64, 0
1, 159082, Note_off_c, 0, 62, 59
1, 159084, Note_off_c, 0, 50, 62
1, 159099, Control_c, 0, 64, 69
1, 159109, Note_on_c, 0, 60, 89
1, 159109, Note_on_c, 0, 72, 84
1, 159112, Note_on_c, 0, 68, 87
1, 159114, Control_c, 0, 64, 85
1, 159127, Note_off_c, 0, 52, 58
1, 159129, Note_off_c, 0, 56, 56
1, 159129, Control_c, 0, 64, 109
1, 159144, Control_c, 0, 64, 123
1, 159151, Note_off_c, 0, 60, 63
1, 159152, Note_off_c, 0, 72, 66
1, 159159, Control_c, 0, 64, 127
1, 159161, Note_off_c, 0, 68, 63
1, 159213, Note_on_c, 0, 59, 98
1, 159213, Note_on_c, 0, 71, 91
1, 159219, Note_on_c, 0, 68, 83
1, 159250, Note_off_c, 0, 59, 66
1, 159285, Note_off_c, 0, 68, 63
1, 159286, Note_off_c, 0, 71, 63
1, 159311, Note_on_c, 0, 59, 96
1, 159313, Note_on_c, 0, 52, 63
1, 159317, Note_on_c, 0, 47, 81
1, 159320, Note_on_c, 0, 56, 75
1, 159341, Note_on_c, 0, 49, 51
1, 159353, Note_off_c, 0, 56, 55
1, 159363, Note_off_c, 0, 59, 62
1, 159365, Note_off_c, 0, 47, 64
1, 159366, Note_off_c, 0, 52, 66
1, 159370, Note_off_c, 0, 49, 52
1, 159441, Control_c, 0, 64, 125
1, 159455, Control_c, 0, 64, 89
1, 159456, Note_on_c, 0, 57, 84
1, 159457, Note_on_c, 0, 64, 96
1, 159459, Note_on_c, 0, 53, 80
1, 159469, Note_on_c, 0, 52, 75
1, 159470, Control_c, 0, 64, 62
1, 159485, Control_c, 0, 64, 0
1, 159529, Note_off_c, 0, 64, 64
1, 159529, Control_c, 0, 64, 70
1, 159544, Note_off_c, 0, 57, 62
1, 159544, Control_c, 0, 64, 86
1, 159560, Control_c, 0, 64, 107
1, 159562, Note_on_c, 0, 76, 80
1, 159562, Note_off_c, 0, 52, 65
1, 159564, Note_on_c, 0, 69, 75
1, 159566, Note_on_c, 0, 65, 76
1, 159567, Note_off_c, 0, 53, 66
1, 159574, Note_on_c, 0, 64, 66
1, 159575, Control_c, 0, 64, 124
1, 159597, Control_c, 0, 64, 127
1, 159632, Note_off_c, 0, 65, 56
1, 159634, Note_off_c, 0, 64, 58
1, 159636, Note_off_c, 0, 69, 64
1, 159642, Note_off_c, 0, 76, 64
1, 159675, Note_on_c, 0, 40, 88
1, 159675, Note_on_c, 0, 50, 87
1, 159676, Note_on_c, 0, 52, 92
1, 159712, Note_off_c, 0, 40, 64
1, 159716, Note_off_c, 0, 50, 60
1, 159719, Note_off_c, 0, 52, 61
1, 159761, Note_on_c, 0, 62, 81
1, 159762, Note_on_c, 0, 74, 80
1, 159763, Note_on_c, 0, 65, 76
1, 159764, Note_on_c, 0, 69, 75
1, 159796, Note_off_c, 0, 65, 58
1, 159812, Note_off_c, 0, 62, 59
1, 159824, Note_off_c, 0, 69, 60
1, 159830, Note_off_c, 0, 74, 61
1, 159840, Note_on_c, 0, 52, 78
1, 159852, Note_on_c, 0, 62, 69
1, 159854, Note_on_c, 0, 64, 83
1, 159874, Note_off_c, 0, 64, 72
1, 159879, Note_off_c, 0, 62, 67
1, 159898, Note_off_c, 0, 52, 69
1, 159929, Note_on_c, 0, 74, 76
1, 159930, Note_on_c, 0, 62, 82
1, 159944, Note_on_c, 0, 71, 64
1, 159957, Note_on_c, 0, 72, 53
1, 159962, Note_off_c, 0, 74, 56
1, 159973, Note_off_c, 0, 71, 63
1, 159981, Note_off_c, 0, 72, 64
1, 159983, Note_off_c, 0, 62, 63
1, 160038, Note_on_c, 0, 67, 81
1, 160045, Note_on_c, 0, 55, 87
1, 160046, Note_on_c, 0, 65, 82
1, 160074, Note_off_c, 0, 55, 63
1, 160099, Note_off_c, 0, 65, 61
1, 160105, Note_off_c, 0, 67, 61
1, 160122, Note_on_c, 0, 55, 85
1, 160124, Note_on_c, 0, 53, 84
1, 160125, Note_on_c, 0, 50, 77
1, 160144, Note_on_c, 0, 43, 45
1, 160157, Note_on_c, 0, 45, 41
1, 160160, Control_c, 0, 64, 110
1, 160166, Note_off_c, 0, 55, 66
1, 160170, Note_off_c, 0, 53, 65
1, 160175, Control_c, 0, 64, 84
1, 160175, Note_off_c, 0, 43, 54
1, 160190, Control_c, 0, 64, 57
1, 160190, Note_off_c, 0, 45, 53
1, 160191, Note_off_c, 0, 50, 64
1, 160204, Control_c, 0, 64, 0
1, 160229, Note_on_c, 0, 57, 92
1, 160230, Note_on_c, 0, 50, 66
1, 160241, Note_on_c, 0, 53, 67
1, 160243, Note_on_c, 0, 45, 76
1, 160278, Control_c, 0, 64, 62
1, 160286, Note_off_c, 0, 53, 62
1, 160293, Control_c, 0, 64, 69
1, 160303, Note_off_c, 0, 45, 63
1, 160308, Control_c, 0, 64, 75
1, 160316, Note_on_c, 0, 65, 73
1, 160316, Note_off_c, 0, 50, 63
1, 160320, Note_on_c, 0, 69, 71
1, 160323, Control_c, 0, 64, 82
1, 160345, Control_c, 0, 64, 88
1, 160361, Control_c, 0, 64, 92
1, 160363, Note_off_c, 0, 57, 60
1, 160376, Control_c, 0, 64, 97
1, 160378, Note_off_c, 0, 65, 65
1, 160390, Note_off_c, 0, 69, 64
1, 160390, Control_c, 0, 64, 100
1, 160405, Control_c, 0, 64, 103
1, 160420, Control_c, 0, 64, 105
1, 160426, Poly_aftertouch_c, 0, 62, 0
1, 160435, Note_on_c, 0, 59, 79
1, 160435, Control_c, 0, 64, 107
1, 160438, Note_on_c, 0, 51, 76
1, 160444, Note_on_c, 0, 47, 68
1, 160450, Control_c, 0, 64, 108
1, 160457, Note_on_c, 0, 54, 42
1, 160460, Note_off_c, 0, 59, 65
1, 160465, Control_c, 0, 64, 108
1, 160479, Control_c, 0, 64, 109
1, 160485, Note_off_c, 0, 54, 50
1, 160487, Note_off_c, 0, 51, 60
1, 160491, Note_off_c, 0, 47, 62
1, 160494, Control_c, 0, 64, 109
1, 160509, Control_c, 0, 64, 110
1, 160524, Control_c, 0, 64, 110
1, 160532, Note_on_c, 0, 71, 68
1, 160537, Note_on_c, 0, 66, 63
1, 160542, Note_on_c, 0, 63, 60
1, 160550, Note_off_c, 0, 71, 61
1, 160553, Note_on_c, 0, 59, 43
1, 160554, Control_c, 0, 64, 111
1, 160570, Note_off_c, 0, 59, 63
1, 160575, Note_off_c, 0, 63, 65
1, 160577, Note_off_c, 0, 66, 59
1, 160583, Control_c, 0, 64, 111
1, 160702, Control_c, 0, 64, 110
1, 160716, Note_on_c, 0, 64, 68
1, 160716, Control_c, 0, 64, 101
1, 160729, Note_on_c, 0, 52, 65
1, 160729, Note_on_c, 0, 56, 63
1, 160730, Note_on_c, 0, 40, 58
1, 160731, Control_c, 0, 64, 86
1, 160732, Note_on_c, 0, 47, 61
1, 160746, Control_c, 0, 64, 66
1, 160761, Control_c, 0, 64, 0
1, 160775, Note_off_c, 0, 56, 54
1, 160777, Note_off_c, 0, 52, 65
1, 160790, Control_c, 0, 64, 28
1, 160797, Note_off_c, 0, 47, 62
1, 160805, Control_c, 0, 64, 69
1, 160820, Control_c, 0, 64, 81
1, 160825, Note_on_c, 0, 52, 62
1, 160825, Note_off_c, 0, 40, 63
1, 160834, Control_c, 0, 64, 95
1, 160849, Control_c, 0, 64, 102
1, 160854, Note_off_c, 0, 64, 34
1, 160864, Control_c, 0, 64, 105
1, 160879, Control_c, 0, 64, 108
1, 160891, Note_off_c, 0, 52, 63
1, 160894, Control_c, 0, 64, 112
1, 160909, Control_c, 0, 64, 117
1, 160924, Control_c, 0, 64, 121
1, 160939, Control_c, 0, 64, 124
1, 160943, Note_on_c, 0, 40, 74
1, 160953, Control_c, 0, 64, 126
1, 160957, Note_on_c, 0, 28, 63
1, 160968, Control_c, 0, 64, 127
1, 160986, Note_off_c, 0, 28, 62
1, 161001, Note_off_c, 0, 40, 60
1, 161030, Note_on_c, 0, 50, 81
1, 161082, Note_off_c, 0, 50, 62
1, 161154, Control_c, 0, 64, 120
1, 161165, Note_on_c, 0, 64, 76
1, 161169, Note_on_c, 0, 56, 75
1, 161169, Control_c, 0, 64, 98
1, 161175, Note_on_c, 0, 40, 60
1, 161183, Note_on_c, 0, 47, 63
1, 161184, Note_on_c, 0, 52, 70
1, 161184, Control_c, 0, 64, 79
1, 161199, Control_c, 0, 64, 62
1, 161213, Control_c, 0, 64, 41
1, 161224, Note_off_c, 0, 52, 63
1, 161228, Control_c, 0, 64, 68
1, 161238, Note_off_c, 0, 47, 60
1, 161243, Control_c, 0, 64, 82
1, 161257, Control_c, 0, 64, 100
1, 161266, Note_on_c, 0, 52, 73
1, 161269, Note_off_c, 0, 40, 62
1, 161272, Control_c, 0, 64, 118
1, 161286, Note_off_c, 0, 56, 51
1, 161287, Control_c, 0, 64, 124
1, 161295, Note_off_c, 0, 64, 47
1, 161302, Control_c, 0, 64, 127
1, 161335, Note_off_c, 0, 52, 65
1, 161373, Note_on_c, 0, 40, 85
1, 161383, Note_on_c, 0, 28, 71
1, 161407, Note_off_c, 0, 28, 64
1, 161424, Note_off_c, 0, 40, 63
1, 161446, Note_on_c, 0, 50, 85
1, 161481, Note_off_c, 0, 50, 63
1, 161599, Control_c, 0, 64, 123
1, 161603, Note_on_c, 0, 67, 86
1, 161607, Note_on_c, 0, 60, 76
1, 161613, Control_c, 0, 64, 91
1, 161615, Note_on_c, 0, 43, 64
1, 161617, Note_on_c, 0, 55, 62
1, 161623, Note_on_c, 0, 48, 59
1, 161628, Control_c, 0, 64, 70
1, 161643, Control_c, 0, 64, 0
1, 161663, Note_off_c, 0, 55, 67
1, 161672, Control_c, 0, 64, 63
1, 161676, Note_off_c, 0, 60, 58
1, 161686, Note_off_c, 0, 48, 65
1, 161687, Control_c, 0, 64, 79
1, 161698, Note_off_c, 0, 43, 61
1, 161702, Control_c, 0, 64, 100
1, 161717, Note_on_c, 0, 55, 71
1, 161717, Note_on_c, 0, 57, 62
1, 161717, Control_c, 0, 64, 117
1, 161718, Note_off_c, 0, 67, 59
1, 161731, Control_c, 0, 64, 122
1, 161746, Control_c, 0, 64, 127
1, 161778, Note_off_c, 0, 57, 59
1, 161782, Note_off_c, 0, 55, 63
1, 161807, Note_on_c, 0, 40, 88
1, 161816, Note_on_c, 0, 28, 78
1, 161849, Note_off_c, 0, 28, 62
1, 161862, Note_off_c, 0, 40, 62
1, 161886, Note_on_c, 0, 66, 78
1, 161893, Note_on_c, 0, 54, 76
1, 161931, Note_off_c, 0, 54, 59
1, 161942, Note_off_c, 0, 66, 67
1, 161982, Note_on_c, 0, 50, 92
1, 161985, Note_on_c, 0, 45, 84
1, 161992, Control_c, 0, 64, 97
1, 161994, Note_on_c, 0, 38, 75
1, 162007, Control_c, 0, 64, 74
1, 162022, Control_c, 0, 64, 0
1, 162051, Control_c, 0, 64, 60
1, 162065, Note_on_c, 0, 52, 73
1, 162066, Note_on_c, 0, 57, 52
1, 162066, Control_c, 0, 64, 76
1, 162069, Note_on_c, 0, 64, 66
1, 162079, Note_off_c, 0, 50, 61
1, 162080, Control_c, 0, 64, 95
1, 162085, Note_on_c, 0, 58, 58
1, 162092, Note_off_c, 0, 52, 67
1, 162095, Control_c, 0, 64, 120
1, 162100, Note_off_c, 0, 64, 67
1, 162104, Note_off_c, 0, 45, 62
1, 162104, Note_off_c, 0, 57, 62
1, 162104, Note_off_c, 0, 58, 63
1, 162110, Control_c, 0, 64, 125
1, 162125, Control_c, 0, 64, 127
1, 162128, Note_off_c, 0, 38, 62
1, 162163, Note_on_c, 0, 66, 90
1, 162167, Note_on_c, 0, 54, 77
1, 162190, Note_off_c, 0, 54, 66
1, 162210, Note_off_c, 0, 66, 63
1, 162230, Note_on_c, 0, 40, 73
1, 162236, Note_on_c, 0, 28, 65
1, 162255, Note_off_c, 0, 40, 66
1, 162261, Note_off_c, 0, 28, 58
1, 162361, Control_c, 0, 64, 96
1, 162363, Note_on_c, 0, 62, 84
1, 162363, Note_on_c, 0, 69, 82
1, 162373, Note_on_c, 0, 57, 80
1, 162376, Control_c, 0, 64, 67
1, 162381, Note_on_c, 0, 45, 73
1, 162381, Note_on_c, 0, 50, 66
1, 162391, Control_c, 0, 64, 0
1, 162404, Note_off_c, 0, 57, 64
1, 162414, Note_off_c, 0, 50, 66
1, 162420, Control_c, 0, 64, 65
1, 162435, Note_off_c, 0, 45, 63
1, 162435, Control_c, 0, 64, 82
1, 162441, Note_off_c, 0, 62, 0
1, 162450, Control_c, 0, 64, 102
1, 162465, Note_on_c, 0, 57, 73
1, 162465, Control_c, 0, 64, 126
1, 162468, Note_on_c, 0, 59, 60
1, 162480, Control_c, 0, 64, 127
1, 162483, Poly_aftertouch_c, 0, 62, 0
1, 162488, Note_off_c, 0, 69, 58
1, 162503, Note_off_c, 0, 59, 52
1, 162509, Note_off_c, 0, 57, 53
1, 162550, Note_on_c, 0, 40, 90
1, 162561, Note_on_c, 0, 28, 76
1, 162596, Note_off_c, 0, 28, 64
1, 162602, Note_off_c, 0, 40, 62
1, 162641, Note_on_c, 0, 67, 74
1, 162649, Note_on_c, 0, 62, 74
1, 162650, Note_on_c, 0, 55, 75
1, 162676, Note_off_c, 0, 55, 68
1, 162679, Note_off_c, 0, 62, 60
1, 162697, Note_off_c, 0, 67, 61
1, 162709, Control_c, 0, 64, 101
1, 162721, Note_on_c, 0, 52, 95
1, 162723, Note_on_c, 0, 47, 90
1, 162724, Control_c, 0, 64, 74
1, 162731, Note_on_c, 0, 40, 76
1, 162739, Control_c, 0, 64, 0
1, 162755, Control_c, 0, 64, 18
1, 162770, Control_c, 0, 64, 70
1, 162784, Control_c, 0, 64, 87
1, 162799, Note_on_c, 0, 67, 83
1, 162799, Control_c, 0, 64, 112
1, 162802, Note_on_c, 0, 62, 76
1, 162803, Note_on_c, 0, 55, 80
1, 162809, Note_off_c, 0, 52, 64
1, 162814, Control_c, 0, 64, 127
1, 162826, Note_off_c, 0, 55, 69
1, 162826, Note_off_c, 0, 62, 67
1, 162828, Note_off_c, 0, 47, 62
1, 162844, Note_off_c, 0, 67, 61
1, 162848, Note_off_c, 0, 40, 63
1, 162897, Note_on_c, 0, 71, 83
1, 162899, Note_on_c, 0, 66, 83
1, 162900, Note_on_c, 0, 59, 77
1, 162921, Note_off_c, 0, 59, 69
1, 162922, Note_off_c, 0, 66, 69
1, 162945, Note_off_c, 0, 71, 60
1, 162951, Note_on_c, 0, 40, 86
1, 162962, Note_on_c, 0, 28, 59
1, 162974, Note_off_c, 0, 40, 67
1, 162981, Note_off_c, 0, 28, 66
1, 163037, Control_c, 0, 64, 107
1, 163052, Control_c, 0, 64, 73
1, 163067, Control_c, 0, 64, 0
1, 163080, Note_on_c, 0, 52, 91
1, 163081, Note_on_c, 0, 57, 86
1, 163086, Note_on_c, 0, 45, 76
1, 163096, Control_c, 0, 64, 25
1, 163111, Control_c, 0, 64, 72
1, 163126, Control_c, 0, 64, 91
1, 163136, Note_off_c, 0, 57, 60
1, 163141, Control_c, 0, 64, 127
1, 163145, Note_off_c, 0, 52, 61
1, 163168, Note_off_c, 0, 45, 64
1, 163171, Note_on_c, 0, 57, 75
1, 163174, Note_on_c, 0, 69, 82
1, 163175, Note_on_c, 0, 64, 80
1, 163192, Note_off_c, 0, 57, 71
1, 163203, Note_off_c, 0, 64, 67
1, 163221, Note_off_c, 0, 69, 64
1, 163267, Note_on_c, 0, 60, 86
1, 163269, Note_on_c, 0, 55, 80
1, 163276, Note_on_c, 0, 48, 80
1, 163288, Note_off_c, 0, 60, 69
1, 163297, Note_off_c, 0, 55, 64
1, 163343, Note_off_c, 0, 48, 65
1, 163353, Note_on_c, 0, 72, 90
1, 163354, Note_on_c, 0, 67, 81
1, 163362, Note_on_c, 0, 60, 81
1, 163387, Note_off_c, 0, 60, 66
1, 163402, Note_off_c, 0, 67, 61
1, 163429, Control_c, 0, 64, 100
1, 163444, Control_c, 0, 64, 74
1, 163456, Note_on_c, 0, 40, 93
1, 163459, Control_c, 0, 64, 49
1, 163468, Note_on_c, 0, 28, 79
1, 163474, Control_c, 0, 64, 63
1, 163477, Note_off_c, 0, 72, 58
1, 163489, Control_c, 0, 64, 74
1, 163498, Note_off_c, 0, 28, 64
1, 163499, Note_off_c, 0, 40, 66
1, 163503, Control_c, 0, 64, 92
1, 163518, Control_c, 0, 64, 115
1, 163533, Control_c, 0, 64, 127
1, 163537, Note_on_c, 0, 67, 82
1, 163543, Note_on_c, 0, 60, 80
1, 163556, Note_on_c, 0, 64, 60
1, 163574, Note_off_c, 0, 60, 65
1, 163582, Note_off_c, 0, 64, 64
1, 163597, Note_off_c, 0, 67, 63
1, 163638, Note_on_c, 0, 57, 79
1, 163639, Note_on_c, 0, 62, 84
1, 163645, Note_on_c, 0, 50, 72
1, 163648, Note_on_c, 0, 53, 70
1, 163686, Note_off_c, 0, 57, 58
1, 163687, Note_off_c, 0, 62, 59
1, 163707, Note_on_c, 0, 62, 74
1, 163708, Note_on_c, 0, 74, 77
1, 163708, Note_off_c, 0, 53, 64
1, 163715, Note_off_c, 0, 50, 62
1, 163718, Note_on_c, 0, 65, 65
1, 163726, Note_on_c, 0, 72, 58
1, 163731, Note_off_c, 0, 62, 67
1, 163735, Note_off_c, 0, 65, 68
1, 163747, Note_off_c, 0, 72, 39
1, 163759, Note_off_c, 0, 74, 67
1, 163800, Control_c, 0, 64, 115
1, 163815, Control_c, 0, 64, 79
1, 163821, Note_on_c, 0, 76, 90
1, 163827, Note_on_c, 0, 68, 90
1, 163830, Note_on_c, 0, 59, 76
1, 163830, Control_c, 0, 64, 0
1, 163835, Note_on_c, 0, 64, 74
1, 163840, Note_on_c, 0, 52, 67
1, 163863, Note_off_c, 0, 64, 67
1, 163869, Note_off_c, 0, 59, 62
1, 163875, Control_c, 0, 64, 61
1, 163890, Control_c, 0, 64, 76
1, 163903, Note_off_c, 0, 52, 65
1, 163905, Control_c, 0, 64, 97
1, 163911, Note_off_c, 0, 76, 55
1, 163918, Note_on_c, 0, 64, 87
1, 163919, Control_c, 0, 64, 119
1, 163934, Note_off_c, 0, 68, 57
1, 163934, Control_c, 0, 64, 127
1, 163975, Note_off_c, 0, 64, 64
1, 163992, Note_on_c, 0, 52, 87
1, 164004, Note_on_c, 0, 40, 76
1, 164030, Note_off_c, 0, 40, 66
1, 164042, Note_off_c, 0, 52, 65
1, 164059, Note_on_c, 0, 62, 94
1, 164107, Note_off_c, 0, 62, 63
1, 164134, Control_c, 0, 64, 107
1, 164149, Control_c, 0, 64, 78
1, 164164, Control_c, 0, 64, 27
1, 164170, Note_on_c, 0, 72, 98
1, 164174, Note_on_c, 0, 79, 92
1, 164179, Control_c, 0, 64, 0
1, 164186, Note_on_c, 0, 67, 81
1, 164187, Note_on_c, 0, 60, 76
1, 164190, Note_on_c, 0, 55, 74
1, 164194, Control_c, 0, 64, 68
1, 164208, Control_c, 0, 64, 84
1, 164216, Note_off_c, 0, 67, 61
1, 164223, Control_c, 0, 64, 105
1, 164229, Note_off_c, 0, 60, 58
1, 164238, Control_c, 0, 64, 127
1, 164248, Note_off_c, 0, 55, 64
1, 164265, Note_on_c, 0, 69, 73
1, 164266, Note_on_c, 0, 67, 86
1, 164267, Note_off_c, 0, 72, 34
1, 164309, Note_off_c, 0, 79, 61
1, 164330, Note_off_c, 0, 69, 63
1, 164333, Note_off_c, 0, 67, 60
1, 164344, Note_on_c, 0, 52, 94
1, 164355, Note_on_c, 0, 40, 85
1, 164378, Note_off_c, 0, 40, 67
1, 164390, Note_off_c, 0, 52, 66
1, 164418, Note_on_c, 0, 66, 95
1, 164453, Note_off_c, 0, 66, 68
1, 164490, Control_c, 0, 64, 100
1, 164505, Control_c, 0, 64, 72
1, 164520, Note_on_c, 0, 81, 96
1, 164520, Control_c, 0, 64, 0
1, 164522, Note_on_c, 0, 74, 95
1, 164526, Note_on_c, 0, 57, 75
1, 164527, Note_on_c, 0, 62, 79
1, 164527, Note_on_c, 0, 69, 85
1, 164549, Control_c, 0, 64, 66
1, 164562, Note_off_c, 0, 69, 67
1, 164564, Control_c, 0, 64, 81
1, 164569, Note_off_c, 0, 62, 62
1, 164579, Control_c, 0, 64, 105
1, 164586, Note_off_c, 0, 57, 64
1, 164594, Control_c, 0, 64, 127
1, 164608, Note_on_c, 0, 71, 79
1, 164609, Control_c, 0, 64, 127
1, 164614, Note_on_c, 0, 69, 86
1, 164626, Note_off_c, 0, 74, 60
1, 164648, Note_off_c, 0, 81, 56
1, 164677, Note_off_c, 0, 71, 58
1, 164680, Note_off_c, 0, 69, 60
1, 164691, Note_on_c, 0, 52, 100
1, 164700, Note_on_c, 0, 40, 83
1, 164728, Note_off_c, 0, 40, 66
1, 164740, Note_off_c, 0, 52, 66
1, 164775, Note_on_c, 0, 79, 85
1, 164776, Note_on_c, 0, 67, 91
1, 164776, Note_on_c, 0, 74, 82
1, 164823, Control_c, 0, 64, 101
1, 164824, Note_off_c, 0, 67, 61
1, 164826, Note_off_c, 0, 74, 66
1, 164838, Note_off_c, 0, 79, 62
1, 164838, Control_c, 0, 64, 73
1, 164853, Control_c, 0, 64, 0
1, 164863, Note_on_c, 0, 64, 96
1, 164870, Note_on_c, 0, 59, 91
1, 164875, Note_on_c, 0, 52, 86
1, 164882, Control_c, 0, 64, 69
1, 164897, Control_c, 0, 64, 87
1, 164912, Control_c, 0, 64, 119
1, 164927, Control_c, 0, 64, 127
1, 164938, Note_on_c, 0, 67, 94
1, 164941, Note_on_c, 0, 79, 91
1, 164942, Note_on_c, 0, 74, 83
1, 164942, Note_off_c, 0, 64, 63
1, 164954, Note_off_c, 0, 59, 62
1, 164962, Note_off_c, 0, 74, 70
1, 164966, Note_off_c, 0, 67, 62
1, 164976, Note_off_c, 0, 52, 65
1, 164981, Note_off_c, 0, 79, 63
1, 165030, Note_on_c, 0, 83, 98
1, 165035, Note_on_c, 0, 71, 83
1, 165037, Note_on_c, 0, 78, 85
1, 165053, Note_off_c, 0, 71, 72
1, 165057, Note_off_c, 0, 78, 72
1, 165070, Note_off_c, 0, 83, 63
1, 165086, Note_on_c, 0, 52, 81
1, 165115, Note_off_c, 0, 52, 67
1, 165124, Note_on_c, 0, 41, 24
1, 165171, Note_off_c, 0, 41, 56
1, 165195, Control_c, 0, 64, 99
1, 165210, Control_c, 0, 64, 70
1, 165225, Control_c, 0, 64, 0
1, 165225, Note_on_c, 0, 79, 96
1, 165230, Note_on_c, 0, 86, 95
1, 165238, Note_on_c, 0, 62, 77
1, 165240, Note_on_c, 0, 74, 83
1, 165252, Control_c, 0, 64, 67
1, 165259, Note_on_c, 0, 67, 51
1, 165267, Control_c, 0, 64, 83
1, 165282, Control_c, 0, 64, 104
1, 165292, Note_off_c, 0, 74, 66
1, 165297, Control_c, 0, 64, 127
1, 165303, Note_off_c, 0, 67, 60
1, 165307, Note_off_c, 0, 62, 61
1, 165318, Note_on_c, 0, 76, 87
1, 165326, Note_on_c, 0, 74, 72
1, 165350, Note_off_c, 0, 86, 60
1, 165351, Note_off_c, 0, 79, 57
1, 165386, Note_off_c, 0, 76, 60
1, 165395, Note_off_c, 0, 74, 61
1, 165419, Note_on_c, 0, 72, 96
1, 165423, Note_on_c, 0, 60, 73
1, 165436, Note_on_c, 0, 64, 68
1, 165443, Note_on_c, 0, 67, 51
1, 165452, Note_off_c, 0, 72, 69
1, 165462, Note_off_c, 0, 67, 62
1, 165467, Note_off_c, 0, 64, 65
1, 165475, Note_off_c, 0, 60, 62
1, 165496, Note_on_c, 0, 79, 78
1, 165499, Note_on_c, 0, 72, 83
1, 165499, Note_on_c, 0, 84, 81
1, 165543, Note_off_c, 0, 72, 65
1, 165551, Note_off_c, 0, 79, 64
1, 165569, Note_off_c, 0, 84, 64
1, 165585, Note_on_c, 0, 64, 58
1, 165588, Note_on_c, 0, 69, 98
1, 165601, Control_c, 0, 64, 94
1, 165607, Note_on_c, 0, 57, 59
1, 165616, Control_c, 0, 64, 73
1, 165622, Note_off_c, 0, 69, 69
1, 165629, Note_off_c, 0, 57, 59
1, 165630, Control_c, 0, 64, 66
1, 165645, Control_c, 0, 64, 76
1, 165645, Note_off_c, 0, 64, 64
1, 165660, Control_c, 0, 64, 92
1, 165660, Note_on_c, 0, 72, 89
1, 165665, Note_on_c, 0, 79, 79
1, 165668, Note_on_c, 0, 84, 85
1, 165675, Control_c, 0, 64, 127
1, 165689, Note_off_c, 0, 72, 62
1, 165689, Note_off_c, 0, 79, 66
1, 165699, Note_on_c, 0, 55, 85
1, 165710, Note_off_c, 0, 84, 62
1, 165731, Note_on_c, 0, 65, 74
1, 165745, Note_off_c, 0, 55, 64
1, 165762, Note_on_c, 0, 88, 100
1, 165785, Note_on_c, 0, 71, 89
1, 165800, Note_off_c, 0, 65, 63
1, 165829, Note_off_c, 0, 71, 63
1, 165854, Note_on_c, 0, 76, 93
1, 165893, Note_off_c, 0, 76, 69
1, 165901, Note_off_c, 0, 88, 62
1, 165957, Control_c, 0, 64, 112
1, 165972, Control_c, 0, 64, 83
1, 165988, Control_c, 0, 64, 0
1, 165996, Note_on_c, 0, 91, 103
1, 165998, Note_on_c, 0, 84, 96
1, 166010, Note_on_c, 0, 79, 99
1, 166011, Note_on_c, 0, 69, 75
1, 166021, Note_on_c, 0, 72, 53
1, 166046, Control_c, 0, 64, 74
1, 166061, Control_c, 0, 64, 93
1, 166075, Note_off_c, 0, 79, 58
1, 166076, Control_c, 0, 64, 122
1, 166091, Control_c, 0, 64, 127
1, 166098, Note_off_c, 0, 72, 61
1, 166113, Note_on_c, 0, 81, 83
1, 166118, Note_off_c, 0, 91, 59
1, 166119, Note_off_c, 0, 84, 61
1, 166122, Note_on_c, 0, 79, 81
1, 166130, Note_off_c, 0, 69, 66
1, 166135, Poly_aftertouch_c, 0, 71, 0
1, 166147, Note_off_c, 0, 81, 64
1, 166161, Note_off_c, 0, 79, 64
1, 166233, Note_on_c, 0, 79, 88
1, 166236, Note_on_c, 0, 77, 66
1, 166236, Note_on_c, 0, 72, 70
1, 166250, Note_on_c, 0, 71, 50
1, 166254, Note_off_c, 0, 72, 66
1, 166274, Note_off_c, 0, 71, 56
1, 166309, Note_on_c, 0, 67, 81
1, 166311, Note_on_c, 0, 69, 78
1, 166343, Note_off_c, 0, 79, 55
1, 166348, Note_off_c, 0, 77, 54
1, 166349, Note_off_c, 0, 67, 61
1, 166349, Note_off_c, 0, 69, 60
1, 166394, Note_on_c, 0, 48, 99
1, 166395, Control_c, 0, 64, 99
1, 166395, Note_on_c, 0, 41, 90
1, 166409, Control_c, 0, 64, 71
1, 166424, Control_c, 0, 64, 0
1, 166450, Note_on_c, 0, 67, 77
1, 166451, Note_on_c, 0, 69, 71
1, 166468, Control_c, 0, 64, 50
1, 166483, Control_c, 0, 64, 75
1, 166498, Note_off_c, 0, 69, 64
1, 166498, Control_c, 0, 64, 92
1, 166501, Note_off_c, 0, 67, 62
1, 166513, Control_c, 0, 64, 107
1, 166528, Control_c, 0, 64, 116
1, 166531, Note_on_c, 0, 72, 73
1, 166543, Control_c, 0, 64, 127
1, 166545, Note_on_c, 0, 79, 78
1, 166552, Note_off_c, 0, 72, 70
1, 166561, Note_off_c, 0, 41, 66
1, 166568, Note_off_c, 0, 79, 66
1, 166572, Note_off_c, 0, 48, 63
1, 166623, Note_on_c, 0, 81, 84
1, 166626, Note_on_c, 0, 79, 80
1, 166684, Note_off_c, 0, 81, 55
1, 166685, Note_off_c, 0, 79, 61
1, 166704, Note_on_c, 0, 91, 96
1, 166710, Note_on_c, 0, 84, 91
1, 166749, Note_off_c, 0, 84, 67
1, 166751, Note_off_c, 0, 91, 62
1, 166787, Note_on_c, 0, 68, 50
1, 166793, Note_on_c, 0, 77, 72
1, 166806, Note_on_c, 0, 72, 59
1, 166809, Note_off_c, 0, 77, 65
1, 166811, Note_off_c, 0, 68, 58
1, 166814, Note_on_c, 0, 76, 34
1, 166829, Note_on_c, 0, 69, 41
1, 166837, Note_off_c, 0, 72, 66
1, 166842, Note_off_c, 0, 76, 56
1, 166854, Note_off_c, 0, 69, 55
1, 166868, Note_on_c, 0, 84, 92
1, 166870, Note_on_c, 0, 72, 86
1, 166870, Note_on_c, 0, 77, 86
1, 166893, Note_off_c, 0, 72, 66
1, 166895, Note_off_c, 0, 77, 63
1, 166918, Note_off_c, 0, 84, 66
1, 166937, Note_on_c, 0, 65, 67
1, 166942, Note_on_c, 0, 69, 60
1, 166943, Note_on_c, 0, 72, 73
1, 166970, Note_off_c, 0, 65, 62
1, 166981, Note_off_c, 0, 69, 62
1, 166981, Note_off_c, 0, 72, 64
1, 167020, Note_on_c, 0, 91, 94
1, 167023, Note_on_c, 0, 84, 92
1, 167024, Note_on_c, 0, 79, 87
1, 167051, Note_off_c, 0, 84, 61
1, 167058, Note_off_c, 0, 91, 63
1, 167061, Note_off_c, 0, 79, 64
1, 167112, Note_on_c, 0, 77, 87
1, 167121, Note_on_c, 0, 72, 73
1, 167122, Note_on_c, 0, 69, 70
1, 167128, Note_off_c, 0, 77, 73
1, 167169, Note_off_c, 0, 72, 0
1, 167174, Note_off_c, 0, 69, 64
1, 167181, Note_on_c, 0, 72, 71
1, 167184, Note_on_c, 0, 84, 92
1, 167186, Note_on_c, 0, 77, 86
1, 167203, Note_off_c, 0, 72, 69
1, 167213, Note_off_c, 0, 77, 57
1, 167243, Note_off_c, 0, 84, 66
1, 167243, Note_on_c, 0, 65, 71
1, 167244, Note_on_c, 0, 72, 71
1, 167273, Note_on_c, 0, 69, 52
1, 167278, Note_off_c, 0, 65, 57
1, 167280, Note_off_c, 0, 72, 62
1, 167296, Note_off_c, 0, 69, 61
1, 167345, Note_on_c, 0, 91, 101
1, 167346, Note_on_c, 0, 84, 101
1, 167357, Note_on_c, 0, 79, 93
1, 167368, Note_on_c, 0, 69, 68
1, 167368, Note_on_c, 0, 72, 68
1, 167389, Note_off_c, 0, 79, 64
1, 167392, Note_on_c, 0, 70, 42
1, 167392, Note_off_c, 0, 84, 63
1, 167396, Note_off_c, 0, 72, 66
1, 167419, Note_off_c, 0, 70, 56
1, 167421, Note_off_c, 0, 69, 68
1, 167446, Note_off_c, 0, 91, 60
1, 167447, Note_on_c, 0, 81, 77
1, 167452, Note_on_c, 0, 79, 90
1, 167472, Note_off_c, 0, 81, 63
1, 167494, Note_off_c, 0, 79, 61
1, 167544, Note_on_c, 0, 79, 85
1, 167553, Note_on_c, 0, 72, 85
1, 167574, Note_off_c, 0, 72, 65
1, 167629, Note_on_c, 0, 67, 88
1, 167631, Note_on_c, 0, 69, 85
1, 167681, Note_off_c, 0, 69, 62
1, 167682, Note_off_c, 0, 67, 60
1, 167692, Note_off_c, 0, 79, 56
1, 167707, Control_c, 0, 64, 102
1, 167708, Note_on_c, 0, 45, 97
1, 167711, Note_on_c, 0, 38, 89
1, 167722, Control_c, 0, 64, 74
1, 167737, Control_c, 0, 64, 0
1, 167780, Note_on_c, 0, 69, 72
1, 167781, Control_c, 0, 64, 27
1, 167786, Note_on_c, 0, 67, 77
1, 167796, Control_c, 0, 64, 73
1, 167811, Note_off_c, 0, 67, 63
1, 167811, Control_c, 0, 64, 88
1, 167833, Control_c, 0, 64, 104
1, 167837, Note_off_c, 0, 69, 64
1, 167848, Control_c, 0, 64, 114
1, 167863, Control_c, 0, 64, 124
1, 167867, Note_on_c, 0, 72, 71
1, 167876, Note_on_c, 0, 79, 79
1, 167878, Control_c, 0, 64, 127
1, 167887, Note_off_c, 0, 38, 62
1, 167890, Note_off_c, 0, 72, 70
1, 167899, Note_off_c, 0, 45, 64
1, 167909, Note_off_c, 0, 79, 63
1, 167955, Note_on_c, 0, 81, 91
1, 167963, Note_on_c, 0, 79, 83
1, 168021, Note_off_c, 0, 79, 54
1, 168036, Note_on_c, 0, 91, 92
1, 168042, Note_on_c, 0, 84, 88
1, 168058, Note_off_c, 0, 81, 60
1, 168079, Note_off_c, 0, 91, 63
1, 168085, Note_off_c, 0, 84, 63
1, 168114, Note_on_c, 0, 77, 81
1, 168117, Note_on_c, 0, 69, 65
1, 168120, Note_on_c, 0, 72, 71
1, 168131, Note_off_c, 0, 77, 70
1, 168146, Note_off_c, 0, 72, 67
1, 168169, Note_off_c, 0, 69, 65
1, 168197, Note_on_c, 0, 72, 84
1, 168197, Note_on_c, 0, 84, 90
1, 168209, Note_on_c, 0, 77, 74
1, 168220, Note_off_c, 0, 72, 68
1, 168231, Note_off_c, 0, 77, 68
1, 168248, Note_off_c, 0, 84, 65
1, 168283, Note_on_c, 0, 72, 72
1, 168288, Note_on_c, 0, 69, 66
1, 168289, Note_on_c, 0, 65, 48
1, 168316, Note_off_c, 0, 65, 64
1, 168325, Note_off_c, 0, 69, 54
1, 168331, Note_off_c, 0, 72, 63
1, 168348, Note_on_c, 0, 91, 95
1, 168354, Note_on_c, 0, 79, 88
1, 168354, Note_on_c, 0, 84, 83
1, 168381, Note_off_c, 0, 84, 61
1, 168384, Note_off_c, 0, 79, 60
1, 168387, Note_off_c, 0, 91, 60
1, 168450, Note_on_c, 0, 77, 71
1, 168452, Note_on_c, 0, 72, 73
1, 168460, Note_on_c, 0, 69, 64
1, 168470, Note_off_c, 0, 77, 67
1, 168499, Note_off_c, 0, 69, 61
1, 168508, Note_on_c, 0, 77, 76
1, 168512, Note_on_c, 0, 84, 70
1, 168526, Note_off_c, 0, 72, 65
1, 168530, Note_off_c, 0, 77, 69
1, 168566, Note_off_c, 0, 84, 64
1, 168626, Control_c, 0, 64, 95
1, 168640, Control_c, 0, 64, 72
1, 168654, Note_on_c, 0, 91, 85
1, 168655, Note_on_c, 0, 79, 91
1, 168655, Control_c, 0, 64, 56
1, 168656, Note_on_c, 0, 70, 83
1, 168665, Note_on_c, 0, 82, 83
1, 168666, Note_on_c, 0, 86, 70
1, 168670, Control_c, 0, 64, 67
1, 168672, Note_off_c, 0, 79, 72
1, 168677, Note_on_c, 0, 89, 56
1, 168685, Control_c, 0, 64, 79
1, 168686, Note_off_c, 0, 82, 54
1, 168692, Note_off_c, 0, 86, 66
1, 168697, Note_off_c, 0, 70, 63
1, 168697, Note_off_c, 0, 91, 57
1, 168698, Note_on_c, 0, 88, 16
1, 168700, Control_c, 0, 64, 99
1, 168702, Note_off_c, 0, 89, 55
1, 168714, Control_c, 0, 64, 114
1, 168729, Control_c, 0, 64, 119
1, 168740, Note_off_c, 0, 88, 29
1, 168744, Control_c, 0, 64, 121
1, 168747, Note_on_c, 0, 77, 83
1, 168759, Control_c, 0, 64, 124
1, 168774, Control_c, 0, 64, 127
1, 168793, Note_off_c, 0, 77, 61
1, 168817, Note_on_c, 0, 58, 79
1, 168823, Note_on_c, 0, 46, 72
1, 168838, Note_off_c, 0, 58, 71
1, 168840, Note_on_c, 0, 74, 74
1, 168844, Note_off_c, 0, 46, 60
1, 168868, Note_off_c, 0, 74, 63
1, 168902, Note_on_c, 0, 77, 79
1, 168923, Note_off_c, 0, 77, 68
1, 168975, Note_on_c, 0, 91, 89
1, 168981, Control_c, 0, 64, 111
1, 168982, Note_on_c, 0, 70, 70
1, 168982, Note_on_c, 0, 74, 69
1, 168982, Note_on_c, 0, 86, 75
1, 168987, Note_on_c, 0, 79, 63
1, 168996, Control_c, 0, 64, 96
1, 169002, Note_on_c, 0, 77, 46
1, 169005, Note_off_c, 0, 79, 66
1, 169005, Note_off_c, 0, 86, 66
1, 169011, Note_on_c, 0, 83, 53
1, 169011, Control_c, 0, 64, 80
1, 169014, Note_off_c, 0, 74, 61
1, 169014, Note_on_c, 0, 89, 38
1, 169020, Note_off_c, 0, 77, 59
1, 169020, Note_off_c, 0, 70, 59
1, 169026, Control_c, 0, 64, 65
1, 169035, Note_off_c, 0, 83, 50
1, 169041, Control_c, 0, 64, 0
1, 169043, Note_off_c, 0, 89, 37
1, 169047, Note_off_c, 0, 91, 61
1, 169076, Note_on_c, 0, 77, 67
1, 169094, Note_off_c, 0, 77, 65
1, 169142, Note_on_c, 0, 93, 88
1, 169142, Note_on_c, 0, 65, 66
1, 169145, Note_on_c, 0, 88, 77
1, 169148, Note_on_c, 0, 72, 58
1, 169148, Note_on_c, 0, 76, 56
1, 169151, Note_on_c, 0, 84, 72
1, 169168, Note_off_c, 0, 76, 62
1, 169169, Note_off_c, 0, 72, 65
1, 169175, Note_on_c, 0, 91, 30
1, 169176, Note_off_c, 0, 91, 127
1, 169176, Note_off_c, 0, 84, 70
1, 169179, Note_off_c, 0, 65, 62
1, 169191, Note_off_c, 0, 88, 62
1, 169200, Note_off_c, 0, 93, 62
1, 169237, Note_on_c, 0, 79, 61
1, 169256, Note_off_c, 0, 79, 60
1, 169265, Control_c, 0, 64, 64
1, 169280, Control_c, 0, 64, 74
1, 169291, Note_on_c, 0, 89, 83
1, 169294, Note_on_c, 0, 70, 90
1, 169295, Control_c, 0, 64, 83
1, 169304, Note_on_c, 0, 79, 80
1, 169307, Note_on_c, 0, 81, 76
1, 169317, Control_c, 0, 64, 93
1, 169330, Note_off_c, 0, 79, 70
1, 169332, Control_c, 0, 64, 99
1, 169337, Note_off_c, 0, 81, 66
1, 169343, Note_on_c, 0, 77, 27
1, 169346, Note_off_c, 0, 70, 64
1, 169346, Control_c, 0, 64, 104
1, 169352, Note_off_c, 0, 89, 66
1, 169361, Control_c, 0, 64, 107
1, 169376, Control_c, 0, 64, 108
1, 169391, Control_c, 0, 64, 108
1, 169418, Note_off_c, 0, 77, 60
1, 169435, Control_c, 0, 64, 109
1, 169458, Note_on_c, 0, 46, 74
1, 169459, Note_on_c, 0, 58, 73
1, 169459, Note_on_c, 0, 74, 76
1, 169465, Control_c, 0, 64, 109
1, 169477, Note_off_c, 0, 58, 67
1, 169480, Control_c, 0, 64, 111
1, 169486, Note_off_c, 0, 46, 64
1, 169489, Note_off_c, 0, 74, 64
1, 169495, Control_c, 0, 64, 112
1, 169510, Control_c, 0, 64, 112
1, 169520, Note_on_c, 0, 77, 82
1, 169552, Note_off_c, 0, 77, 59
1, 169604, Note_on_c, 0, 91, 89
1, 169608, Note_on_c, 0, 82, 85
1, 169608, Note_on_c, 0, 86, 79
1, 169612, Note_on_c, 0, 70, 72
1, 169613, Control_c, 0, 64, 112
1, 169614, Note_on_c, 0, 74, 69
1, 169614, Note_on_c, 0, 79, 71
1, 169628, Control_c, 0, 64, 109
1, 169632, Note_off_c, 0, 79, 66
1, 169633, Note_off_c, 0, 86, 64
1, 169639, Note_off_c, 0, 74, 68
1, 169643, Control_c, 0, 64, 103
1, 169658, Control_c, 0, 64, 93
1, 169663, Note_off_c, 0, 70, 62
1, 169670, Note_off_c, 0, 91, 60
1, 169672, Control_c, 0, 64, 84
1, 169686, Note_on_c, 0, 77, 75
1, 169687, Control_c, 0, 64, 74
1, 169693, Note_off_c, 0, 82, 63
1, 169702, Control_c, 0, 64, 64
1, 169717, Control_c, 0, 64, 0
1, 169724, Note_off_c, 0, 77, 61
1, 169762, Note_on_c, 0, 93, 88
1, 169766, Note_on_c, 0, 88, 79
1, 169766, Note_on_c, 0, 65, 68
1, 169770, Note_on_c, 0, 72, 64
1, 169770, Note_on_c, 0, 76, 61
1, 169776, Note_on_c, 0, 84, 69
1, 169789, Note_off_c, 0, 76, 65
1, 169796, Note_off_c, 0, 72, 68
1, 169801, Note_off_c, 0, 84, 67
1, 169809, Note_off_c, 0, 65, 62
1, 169811, Note_off_c, 0, 88, 63
1, 169825, Note_off_c, 0, 93, 62
1, 169847, Note_on_c, 0, 79, 71
1, 169864, Note_off_c, 0, 79, 66
1, 169879, Control_c, 0, 64, 43
1, 169894, Control_c, 0, 64, 70
1, 169909, Control_c, 0, 64, 79
1, 169911, Note_on_c, 0, 91, 93
1, 169914, Note_on_c, 0, 70, 87
1, 169918, Note_on_c, 0, 79, 91
1, 169921, Note_on_c, 0, 82, 83
1, 169924, Control_c, 0, 64, 88
1, 169931, Note_on_c, 0, 86, 56
1, 169937, Note_off_c, 0, 79, 71
1, 169940, Control_c, 0, 64, 94
1, 169951, Note_off_c, 0, 86, 60
1, 169955, Control_c, 0, 64, 98
1, 169963, Note_off_c, 0, 70, 64
1, 169964, Note_off_c, 0, 91, 59
1, 169969, Control_c, 0, 64, 101
1, 169972, Note_off_c, 0, 82, 62
1, 169984, Control_c, 0, 64, 103
1, 169999, Control_c, 0, 64, 105
1, 170004, Note_on_c, 0, 77, 85
1, 170013, Control_c, 0, 64, 105
1, 170028, Control_c, 0, 64, 106
1, 170043, Control_c, 0, 64, 106
1, 170045, Note_off_c, 0, 77, 60
1, 170081, Control_c, 0, 64, 107
1, 170085, Note_on_c, 0, 46, 65
1, 170088, Note_on_c, 0, 58, 64
1, 170092, Note_on_c, 0, 74, 78
1, 170095, Control_c, 0, 64, 108
1, 170106, Note_off_c, 0, 58, 64
1, 170106, Note_off_c, 0, 46, 58
1, 170110, Control_c, 0, 64, 109
1, 170125, Control_c, 0, 64, 110
1, 170133, Note_off_c, 0, 74, 63
1, 170155, Control_c, 0, 64, 110
1, 170165, Note_on_c, 0, 77, 76
1, 170187, Note_off_c, 0, 77, 68
1, 170243, Note_on_c, 0, 91, 83
1, 170248, Note_on_c, 0, 86, 71
1, 170249, Note_on_c, 0, 70, 68
1, 170249, Note_on_c, 0, 74, 66
1, 170251, Note_on_c, 0, 79, 66
1, 170252, Note_on_c, 0, 82, 76
1, 170269, Note_off_c, 0, 79, 64
1, 170273, Note_off_c, 0, 86, 67
1, 170279, Note_off_c, 0, 74, 62
1, 170289, Note_off_c, 0, 70, 53
1, 170317, Note_off_c, 0, 91, 59
1, 170338, Note_on_c, 0, 77, 71
1, 170338, Note_off_c, 0, 82, 63
1, 170348, Note_on_c, 0, 79, 61
1, 170362, Note_off_c, 0, 77, 66
1, 170367, Note_off_c, 0, 79, 61
1, 170377, Control_c, 0, 64, 111
1, 170392, Control_c, 0, 64, 112
1, 170404, Note_on_c, 0, 72, 65
1, 170405, Note_on_c, 0, 65, 63
1, 170407, Control_c, 0, 64, 114
1, 170408, Note_on_c, 0, 93, 91
1, 170410, Note_on_c, 0, 76, 58
1, 170419, Note_on_c, 0, 88, 67
1, 170421, Control_c, 0, 64, 117
1, 170428, Note_on_c, 0, 84, 65
1, 170431, Note_off_c, 0, 76, 62
1, 170434, Note_off_c, 0, 72, 64
1, 170436, Control_c, 0, 64, 119
1, 170451, Note_off_c, 0, 84, 62
1, 170451, Control_c, 0, 64, 119
1, 170463, Note_off_c, 0, 88, 53
1, 170466, Note_off_c, 0, 65, 50
1, 170484, Note_off_c, 0, 93, 61
1, 170487, Note_on_c, 0, 79, 68
1, 170510, Control_c, 0, 64, 108
1, 170514, Note_on_c, 0, 81, 36
1, 170515, Note_off_c, 0, 79, 62
1, 170525, Control_c, 0, 64, 89
1, 170540, Control_c, 0, 64, 70
1, 170543, Note_off_c, 0, 81, 34
1, 170555, Control_c, 0, 64, 0
1, 170565, Note_on_c, 0, 91, 89
1, 170569, Control_c, 0, 64, 43
1, 170571, Note_on_c, 0, 79, 75
1, 170574, Note_on_c, 0, 86, 76
1, 170578, Note_on_c, 0, 82, 73
1, 170584, Control_c, 0, 64, 70
1, 170599, Control_c, 0, 64, 87
1, 170607, Note_off_c, 0, 79, 54
1, 170613, Control_c, 0, 64, 104
1, 170627, Note_off_c, 0, 86, 60
1, 170628, Control_c, 0, 64, 115
1, 170630, Note_off_c, 0, 82, 61
1, 170641, Note_off_c, 0, 91, 60
1, 170643, Control_c, 0, 64, 123
1, 170657, Note_on_c, 0, 65, 58
1, 170658, Control_c, 0, 64, 127
1, 170660, Note_on_c, 0, 74, 67
1, 170661, Note_on_c, 0, 77, 72
1, 170665, Note_on_c, 0, 70, 61
1, 170698, Note_off_c, 0, 65, 60
1, 170699, Note_off_c, 0, 74, 62
1, 170705, Note_off_c, 0, 77, 54
1, 170711, Note_off_c, 0, 70, 57
1, 170726, Note_on_c, 0, 81, 84
1, 170728, Note_on_c, 0, 93, 80
1, 170736, Note_on_c, 0, 88, 70
1, 170741, Note_on_c, 0, 84, 63
1, 170754, Note_off_c, 0, 81, 60
1, 170756, Note_off_c, 0, 84, 67
1, 170768, Note_off_c, 0, 88, 60
1, 170776, Note_on_c, 0, 91, 25
1, 170777, Note_off_c, 0, 91, 127
1, 170777, Note_off_c, 0, 93, 61
1, 170821, Note_on_c, 0, 76, 68
1, 170822, Note_on_c, 0, 79, 68
1, 170824, Note_on_c, 0, 72, 65
1, 170845, Note_off_c, 0, 79, 59
1, 170851, Note_off_c, 0, 76, 64
1, 170875, Note_off_c, 0, 72, 62
1, 170896, Note_on_c, 0, 91, 82
1, 170896, Note_on_c, 0, 79, 89
1, 170896, Note_on_c, 0, 82, 82
1, 170896, Note_on_c, 0, 86, 78
1, 170917, Note_off_c, 0, 79, 66
1, 170928, Note_on_c, 0, 89, 45
1, 170928, Note_off_c, 0, 82, 60
1, 170942, Note_off_c, 0, 86, 61
1, 170951, Note_off_c, 0, 91, 58
1, 170954, Note_off_c, 0, 89, 38
1, 170969, Note_on_c, 0, 77, 83
1, 170974, Note_on_c, 0, 74, 74
1, 170979, Note_on_c, 0, 65, 67
1, 170984, Note_on_c, 0, 70, 69
1, 171016, Note_off_c, 0, 65, 58
1, 171022, Note_off_c, 0, 77, 58
1, 171024, Note_off_c, 0, 74, 64
1, 171038, Note_on_c, 0, 81, 94
1, 171040, Note_on_c, 0, 93, 89
1, 171041, Note_on_c, 0, 88, 82
1, 171042, Note_off_c, 0, 70, 62
1, 171045, Note_on_c, 0, 84, 80
1, 171064, Note_off_c, 0, 84, 72
1, 171067, Note_off_c, 0, 81, 58
1, 171076, Note_off_c, 0, 88, 59
1, 171082, Note_off_c, 0, 93, 63
1, 171117, Note_on_c, 0, 76, 79
1, 171117, Note_on_c, 0, 79, 81
1, 171125, Note_on_c, 0, 72, 70
1, 171163, Note_off_c, 0, 76, 65
1, 171163, Note_off_c, 0, 79, 56
1, 171179, Note_off_c, 0, 72, 63
1, 171180, Note_on_c, 0, 79, 83
1, 171186, Note_on_c, 0, 82, 94
1, 171186, Note_on_c, 0, 86, 87
1, 171188, Note_on_c, 0, 91, 98
1, 171216, Note_off_c, 0, 79, 65
1, 171220, Note_off_c, 0, 82, 60
1, 171230, Note_off_c, 0, 86, 62
1, 171241, Note_off_c, 0, 91, 59
1, 171266, Note_on_c, 0, 77, 87
1, 171273, Note_on_c, 0, 74, 79
1, 171279, Note_on_c, 0, 65, 72
1, 171281, Note_on_c, 0, 70, 70
1, 171313, Note_off_c, 0, 65, 57
1, 171319, Note_off_c, 0, 74, 63
1, 171322, Note_off_c, 0, 77, 58
1, 171328, Note_on_c, 0, 81, 97
1, 171331, Note_on_c, 0, 88, 86
1, 171331, Note_on_c, 0, 93, 90
1, 171334, Note_on_c, 0, 84, 88
1, 171340, Note_off_c, 0, 70, 62
1, 171352, Note_off_c, 0, 84, 74
1, 171361, Note_off_c, 0, 81, 59
1, 171372, Note_off_c, 0, 93, 62
1, 171373, Note_off_c, 0, 88, 61
1, 171410, Note_on_c, 0, 79, 84
1, 171412, Note_on_c, 0, 76, 85
1, 171417, Note_on_c, 0, 72, 74
1, 171456, Note_off_c, 0, 79, 61
1, 171456, Note_off_c, 0, 76, 65
1, 171468, Note_on_c, 0, 79, 83
1, 171471, Note_off_c, 0, 72, 63
1, 171474, Note_on_c, 0, 86, 90
1, 171474, Note_on_c, 0, 82, 96
1, 171474, Note_on_c, 0, 91, 93
1, 171508, Note_off_c, 0, 79, 64
1, 171513, Note_off_c, 0, 82, 63
1, 171518, Note_off_c, 0, 86, 62
1, 171535, Note_off_c, 0, 91, 61
1, 171567, Note_on_c, 0, 77, 97
1, 171575, Note_on_c, 0, 74, 85
1, 171577, Note_on_c, 0, 65, 77
1, 171581, Note_on_c, 0, 70, 74
1, 171618, Note_off_c, 0, 74, 64
1, 171620, Note_off_c, 0, 77, 61
1, 171629, Note_off_c, 0, 65, 62
1, 171629, Note_on_c, 0, 81, 97
1, 171632, Note_on_c, 0, 93, 98
1, 171634, Note_on_c, 0, 88, 85
1, 171635, Note_off_c, 0, 70, 63
1, 171638, Note_on_c, 0, 84, 88
1, 171656, Note_off_c, 0, 84, 74
1, 171665, Note_off_c, 0, 81, 65
1, 171680, Note_off_c, 0, 88, 62
1, 171684, Note_off_c, 0, 93, 62
1, 171716, Note_on_c, 0, 79, 87
1, 171717, Note_on_c, 0, 76, 88
1, 171720, Note_on_c, 0, 72, 77
1, 171757, Note_off_c, 0, 76, 66
1, 171759, Note_off_c, 0, 79, 62
1, 171777, Note_on_c, 0, 79, 86
1, 171777, Note_off_c, 0, 72, 64
1, 171783, Note_on_c, 0, 82, 97
1, 171783, Note_on_c, 0, 91, 93
1, 171784, Note_on_c, 0, 86, 88
1, 171820, Note_off_c, 0, 79, 64
1, 171829, Note_off_c, 0, 82, 61
1, 171839, Note_off_c, 0, 86, 59
1, 171852, Note_off_c, 0, 91, 60
1, 171870, Note_on_c, 0, 77, 90
1, 171876, Note_on_c, 0, 65, 79
1, 171878, Note_on_c, 0, 74, 81
1, 171887, Note_on_c, 0, 70, 69
1, 171924, Note_off_c, 0, 74, 64
1, 171929, Note_off_c, 0, 77, 58
1, 171933, Note_off_c, 0, 65, 64
1, 171936, Note_on_c, 0, 81, 98
1, 171936, Note_on_c, 0, 93, 96
1, 171941, Note_on_c, 0, 88, 87
1, 171943, Note_on_c, 0, 84, 89
1, 171945, Note_off_c, 0, 70, 62
1, 171964, Note_off_c, 0, 84, 67
1, 171981, Note_off_c, 0, 81, 60
1, 171988, Note_off_c, 0, 88, 62
1, 171993, Note_off_c, 0, 93, 62
1, 172021, Note_on_c, 0, 79, 86
1, 172025, Note_on_c, 0, 76, 83
1, 172029, Note_on_c, 0, 72, 74
1, 172062, Note_off_c, 0, 79, 63
1, 172067, Note_off_c, 0, 76, 64
1, 172082, Note_off_c, 0, 72, 65
1, 172095, Note_on_c, 0, 79, 89
1, 172101, Note_on_c, 0, 82, 97
1, 172102, Note_on_c, 0, 86, 91
1, 172105, Note_on_c, 0, 91, 87
1, 172137, Note_off_c, 0, 79, 62
1, 172142, Note_off_c, 0, 82, 63
1, 172151, Note_off_c, 0, 86, 60
1, 172168, Note_off_c, 0, 91, 60
1, 172183, Note_on_c, 0, 77, 92
1, 172194, Note_on_c, 0, 65, 64
1, 172197, Note_on_c, 0, 74, 72
1, 172199, Note_on_c, 0, 70, 65
1, 172228, Note_off_c, 0, 65, 62
1, 172236, Note_off_c, 0, 74, 59
1, 172240, Note_on_c, 0, 67, 15
1, 172244, Note_off_c, 0, 77, 57
1, 172247, Note_off_c, 0, 70, 61
1, 172255, Note_on_c, 0, 81, 99
1, 172258, Note_on_c, 0, 93, 99
1, 172263, Note_on_c, 0, 88, 84
1, 172266, Note_on_c, 0, 84, 79
1, 172285, Note_off_c, 0, 84, 71
1, 172286, Note_off_c, 0, 67, 39
1, 172291, Note_off_c, 0, 81, 62
1, 172321, Note_off_c, 0, 88, 60
1, 172335, Note_off_c, 0, 93, 63
1, 172354, Note_on_c, 0, 79, 76
1, 172361, Note_on_c, 0, 76, 75
1, 172374, Note_on_c, 0, 72, 50
1, 172378, Note_off_c, 0, 79, 66
1, 172383, Note_off_c, 0, 76, 71
1, 172395, Note_off_c, 0, 72, 61
1, 172431, Control_c, 0, 64, 94
1, 172442, Note_on_c, 0, 95, 102
1, 172445, Note_on_c, 0, 92, 101
1, 172446, Control_c, 0, 64, 68
1, 172447, Note_on_c, 0, 88, 96
1, 172459, Note_on_c, 0, 94, 60
1, 172460, Note_off_c, 0, 94, 127
1, 172461, Control_c, 0, 64, 0
1, 172490, Control_c, 0, 64, 56
1, 172505, Control_c, 0, 64, 76
1, 172520, Control_c, 0, 64, 101
1, 172532, Note_on_c, 0, 83, 86
1, 172535, Control_c, 0, 64, 127
1, 172544, Note_off_c, 0, 95, 64
1, 172565, Note_off_c, 0, 92, 64
1, 172568, Note_off_c, 0, 88, 60
1, 172583, Note_off_c, 0, 83, 60
1, 172606, Note_on_c, 0, 83, 65
1, 172608, Note_on_c, 0, 76, 64
1, 172614, Note_on_c, 0, 80, 76
1, 172644, Note_off_c, 0, 83, 64
1, 172663, Note_off_c, 0, 80, 48
1, 172676, Note_on_c, 0, 71, 86
1, 172677, Note_off_c, 0, 76, 62
1, 172694, Note_off_c, 0, 71, 72
1, 172738, Note_on_c, 0, 71, 80
1, 172746, Note_on_c, 0, 64, 70
1, 172748, Note_on_c, 0, 68, 77
1, 172774, Note_off_c, 0, 64, 67
1, 172793, Note_off_c, 0, 71, 59
1, 172804, Note_off_c, 0, 68, 63
1, 172824, Note_on_c, 0, 59, 78
1, 172847, Note_off_c, 0, 59, 71
1, 172912, Note_on_c, 0, 59, 83
1, 172921, Note_on_c, 0, 52, 73
1, 172928, Note_on_c, 0, 56, 71
1, 172950, Note_off_c, 0, 52, 70
1, 172979, Note_off_c, 0, 56, 62
1, 172994, Note_off_c, 0, 59, 57
1, 172999, Note_on_c, 0, 47, 86
1, 173063, Note_off_c, 0, 47, 64
1, 173090, Control_c, 0, 64, 106
1, 173105, Control_c, 0, 64, 76
1, 173105, Note_on_c, 0, 40, 97
1, 173113, Note_on_c, 0, 28, 93
1, 173119, Control_c, 0, 64, 0
1, 173158, Note_on_c, 0, 32, 18
1, 173165, Control_c, 0, 64, 66
1, 173180, Control_c, 0, 64, 84
1, 173189, Note_on_c, 0, 47, 82
1, 173194, Control_c, 0, 64, 113
1, 173209, Control_c, 0, 64, 127
1, 173214, Note_off_c, 0, 28, 60
1, 173214, Note_off_c, 0, 32, 47
1, 173238, Note_off_c, 0, 40, 63
1, 173245, Note_off_c, 0, 47, 61
1, 173295, Note_on_c, 0, 52, 51
1, 173296, Note_on_c, 0, 59, 66
1, 173313, Note_on_c, 0, 56, 47
1, 173321, Note_off_c, 0, 52, 57
1, 173331, Note_on_c, 0, 47, 92
1, 173336, Note_on_c, 0, 35, 77
1, 173346, Note_off_c, 0, 59, 63
1, 173349, Note_off_c, 0, 56, 63
1, 173385, Poly_aftertouch_c, 0, 59, 0
1, 173391, Note_on_c, 0, 59, 67
1, 173395, Note_off_c, 0, 47, 61
1, 173397, Note_off_c, 0, 35, 62
1, 173459, Note_off_c, 0, 59, 59
1, 173489, Note_on_c, 0, 71, 73
1, 173494, Note_on_c, 0, 68, 71
1, 173500, Note_on_c, 0, 64, 47
1, 173503, Note_on_c, 0, 52, 92
1, 173509, Note_on_c, 0, 40, 78
1, 173525, Note_off_c, 0, 64, 56
1, 173538, Note_off_c, 0, 68, 62
1, 173542, Note_off_c, 0, 71, 62
1, 173549, Note_off_c, 0, 40, 62
1, 173553, Note_off_c, 0, 52, 66
1, 173583, Note_on_c, 0, 71, 73
1, 173639, Note_off_c, 0, 71, 58
1, 173663, Note_on_c, 0, 56, 81
1, 173669, Note_on_c, 0, 44, 70
1, 173675, Note_on_c, 0, 83, 76
1, 173680, Note_on_c, 0, 80, 64
1, 173687, Note_off_c, 0, 56, 68
1, 173696, Note_on_c, 0, 76, 33
1, 173702, Note_off_c, 0, 44, 64
1, 173709, Note_off_c, 0, 80, 67
1, 173723, Note_off_c, 0, 83, 64
1, 173725, Note_off_c, 0, 76, 50
1, 173757, Note_on_c, 0, 83, 86
1, 173842, Note_off_c, 0, 83, 60
1, 173853, Control_c, 0, 64, 90
1, 173867, Note_on_c, 0, 95, 94
1, 173868, Control_c, 0, 64, 39
1, 173872, Note_on_c, 0, 92, 91
1, 173874, Note_on_c, 0, 35, 81
1, 173876, Note_on_c, 0, 47, 96
1, 173877, Note_on_c, 0, 88, 77
1, 173883, Control_c, 0, 64, 0
1, 173913, Control_c, 0, 64, 47
1, 173920, Note_off_c, 0, 88, 57
1, 173926, Note_off_c, 0, 95, 66
1, 173927, Control_c, 0, 64, 76
1, 173939, Note_off_c, 0, 35, 63
1, 173943, Control_c, 0, 64, 95
1, 173949, Note_off_c, 0, 92, 63
1, 173950, Note_off_c, 0, 47, 64
1, 173958, Note_on_c, 0, 83, 79
1, 173958, Control_c, 0, 64, 119
1, 173973, Control_c, 0, 64, 122
1, 173983, Note_off_c, 0, 83, 61
1, 173987, Control_c, 0, 64, 124
1, 174002, Control_c, 0, 64, 127
1, 174055, Note_on_c, 0, 83, 79
1, 174060, Note_on_c, 0, 52, 80
1, 174067, Note_on_c, 0, 40, 75
1, 174076, Note_on_c, 0, 80, 55
1, 174091, Note_on_c, 0, 76, 22
1, 174097, Note_off_c, 0, 80, 60
1, 174101, Note_off_c, 0, 52, 65
1, 174103, Note_off_c, 0, 40, 66
1, 174109, Note_off_c, 0, 83, 59
1, 174124, Note_on_c, 0, 71, 82
1, 174130, Note_off_c, 0, 76, 56
1, 174166, Note_off_c, 0, 71, 56
1, 174193, Note_on_c, 0, 56, 97
1, 174202, Note_on_c, 0, 71, 62
1, 174203, Note_on_c, 0, 44, 81
1, 174231, Note_off_c, 0, 71, 65
1, 174238, Note_off_c, 0, 56, 64
1, 174253, Note_off_c, 0, 44, 63
1, 174256, Note_on_c, 0, 80, 70
1, 174261, Note_on_c, 0, 83, 65
1, 174286, Note_off_c, 0, 80, 66
1, 174288, Note_off_c, 0, 83, 66
1, 174337, Note_on_c, 0, 83, 78
1, 174348, Note_on_c, 0, 59, 86
1, 174359, Note_on_c, 0, 47, 76
1, 174382, Note_off_c, 0, 59, 62
1, 174402, Note_off_c, 0, 47, 62
1, 174405, Note_off_c, 0, 83, 47
1, 174410, Note_on_c, 0, 92, 76
1, 174413, Note_on_c, 0, 95, 66
1, 174422, Note_on_c, 0, 88, 62
1, 174432, Control_c, 0, 64, 111
1, 174434, Note_on_c, 0, 93, 52
1, 174439, Note_off_c, 0, 95, 60
1, 174440, Note_off_c, 0, 88, 65
1, 174447, Control_c, 0, 64, 84
1, 174450, Note_off_c, 0, 92, 58
1, 174460, Note_off_c, 0, 93, 36
1, 174461, Control_c, 0, 64, 40
1, 174476, Control_c, 0, 64, 0
1, 174488, Note_on_c, 0, 52, 102
1, 174489, Note_on_c, 0, 92, 72
1, 174493, Note_on_c, 0, 95, 78
1, 174494, Note_on_c, 0, 40, 88
1, 174505, Note_on_c, 0, 88, 70
1, 174506, Control_c, 0, 64, 63
1, 174521, Control_c, 0, 64, 80
1, 174531, Note_off_c, 0, 95, 62
1, 174534, Note_off_c, 0, 88, 59
1, 174535, Control_c, 0, 64, 100
1, 174541, Note_off_c, 0, 40, 62
1, 174550, Note_off_c, 0, 52, 64
1, 174550, Control_c, 0, 64, 113
1, 174563, Note_off_c, 0, 92, 65
1, 174567, Note_on_c, 0, 83, 77
1, 174573, Control_c, 0, 64, 115
1, 174587, Control_c, 0, 64, 119
1, 174592, Note_off_c, 0, 83, 63
1, 174602, Control_c, 0, 64, 126
1, 174617, Control_c, 0, 64, 127
1, 174658, Note_on_c, 0, 59, 87
1, 174658, Note_on_c, 0, 83, 79
1, 174661, Note_on_c, 0, 47, 88
1, 174674, Note_on_c, 0, 80, 66
1, 174700, Note_off_c, 0, 47, 63
1, 174703, Note_off_c, 0, 59, 64
1, 174707, Note_off_c, 0, 80, 64
1, 174709, Note_off_c, 0, 83, 60
1, 174727, Note_on_c, 0, 71, 84
1, 174787, Note_off_c, 0, 71, 0
1, 174798, Note_on_c, 0, 71, 65
1, 174801, Note_on_c, 0, 64, 93
1, 174806, Note_on_c, 0, 52, 88
1, 174844, Note_off_c, 0, 71, 62
1, 174850, Note_off_c, 0, 52, 67
1, 174852, Note_off_c, 0, 64, 65
1, 174855, Note_on_c, 0, 56, 12
1, 174860, Note_on_c, 0, 80, 67
1, 174866, Note_on_c, 0, 83, 64
1, 174892, Note_off_c, 0, 83, 65
1, 174894, Note_off_c, 0, 80, 63
1, 174903, Note_off_c, 0, 56, 37
1, 174939, Note_on_c, 0, 83, 75
1, 174948, Note_on_c, 0, 68, 88
1, 174953, Note_on_c, 0, 56, 87
1, 174981, Note_off_c, 0, 68, 66
1, 174999, Note_off_c, 0, 83, 60
1, 175000, Note_off_c, 0, 56, 63
1, 175012, Note_on_c, 0, 95, 86
1, 175015, Note_on_c, 0, 92, 84
1, 175030, Note_on_c, 0, 88, 54
1, 175033, Control_c, 0, 64, 100
1, 175046, Note_off_c, 0, 95, 61
1, 175047, Poly_aftertouch_c, 0, 55, 127
1, 175048, Control_c, 0, 64, 73
1, 175049, Note_off_c, 0, 88, 60
1, 175051, Note_off_c, 0, 92, 60
1, 175063, Control_c, 0, 64, 0
1, 175065, Poly_aftertouch_c, 0, 55, 0
1, 175088, Note_on_c, 0, 95, 78
1, 175092, Note_on_c, 0, 59, 98
1, 175092, Control_c, 0, 64, 21
1, 175095, Note_on_c, 0, 92, 76
1, 175098, Note_on_c, 0, 47, 90
1, 175105, Note_on_c, 0, 88, 71
1, 175107, Control_c, 0, 64, 75
1, 175117, Note_on_c, 0, 54, 55
1, 175122, Control_c, 0, 64, 93
1, 175123, Note_on_c, 0, 51, 51
1, 175133, Note_off_c, 0, 88, 60
1, 175137, Control_c, 0, 64, 118
1, 175140, Note_off_c, 0, 54, 57
1, 175143, Note_off_c, 0, 95, 66
1, 175146, Note_off_c, 0, 47, 64
1, 175149, Note_off_c, 0, 59, 62
1, 175151, Note_off_c, 0, 51, 51
1, 175152, Control_c, 0, 64, 127
1, 175161, Note_on_c, 0, 83, 84
1, 175173, Note_off_c, 0, 92, 65
1, 175206, Note_off_c, 0, 83, 59
1, 175253, Note_on_c, 0, 83, 77
1, 175265, Note_on_c, 0, 64, 91
1, 175270, Note_on_c, 0, 80, 70
1, 175271, Note_on_c, 0, 52, 86
1, 175290, Note_on_c, 0, 76, 29
1, 175316, Note_off_c, 0, 64, 66
1, 175317, Note_off_c, 0, 83, 61
1, 175318, Note_off_c, 0, 52, 66
1, 175328, Note_off_c, 0, 80, 61
1, 175339, Note_on_c, 0, 71, 84
1, 175346, Note_off_c, 0, 76, 45
1, 175382, Note_off_c, 0, 71, 57
1, 175407, Note_on_c, 0, 68, 99
1, 175415, Note_on_c, 0, 56, 87
1, 175416, Note_on_c, 0, 71, 65
1, 175451, Note_off_c, 0, 68, 66
1, 175459, Note_off_c, 0, 56, 66
1, 175465, Note_off_c, 0, 71, 61
1, 175483, Note_on_c, 0, 80, 77
1, 175487, Note_on_c, 0, 83, 70
1, 175497, Note_on_c, 0, 81, 6
1, 175510, Note_off_c, 0, 80, 64
1, 175517, Note_off_c, 0, 83, 63
1, 175548, Note_off_c, 0, 81, 34
1, 175561, Note_on_c, 0, 83, 80
1, 175561, Note_on_c, 0, 71, 92
1, 175567, Note_on_c, 0, 59, 81
1, 175600, Note_off_c, 0, 71, 65
1, 175607, Note_off_c, 0, 59, 64
1, 175634, Note_on_c, 0, 95, 81
1, 175635, Note_off_c, 0, 83, 44
1, 175637, Note_on_c, 0, 92, 78
1, 175647, Note_on_c, 0, 88, 66
1, 175663, Control_c, 0, 64, 100
1, 175674, Note_off_c, 0, 88, 66
1, 175678, Control_c, 0, 64, 66
1, 175683, Note_off_c, 0, 92, 64
1, 175689, Note_off_c, 0, 95, 0
1, 175693, Control_c, 0, 64, 0
1, 175701, Note_on_c, 0, 95, 60
1, 175704, Note_on_c, 0, 64, 95
1, 175713, Note_on_c, 0, 52, 92
1, 175717, Note_on_c, 0, 92, 69
1, 175723, Control_c, 0, 64, 25
1, 175738, Control_c, 0, 64, 72
1, 175739, Note_on_c, 0, 88, 57
1, 175749, Note_off_c, 0, 52, 68
1, 175753, Control_c, 0, 64, 90
1, 175758, Note_off_c, 0, 64, 65
1, 175758, Note_off_c, 0, 88, 60
1, 175768, Control_c, 0, 64, 114
1, 175770, Note_off_c, 0, 95, 65
1, 175779, Note_off_c, 0, 92, 65
1, 175782, Control_c, 0, 64, 127
1, 175784, Note_on_c, 0, 83, 80
1, 175829, Note_off_c, 0, 83, 63
1, 175877, Note_on_c, 0, 83, 79
1, 175882, Note_on_c, 0, 71, 90
1, 175888, Note_on_c, 0, 59, 82
1, 175898, Note_on_c, 0, 80, 63
1, 175899, Note_off_c, 0, 83, 64
1, 175914, Note_off_c, 0, 80, 65
1, 175927, Note_off_c, 0, 59, 63
1, 175928, Note_off_c, 0, 71, 63
1, 175962, Note_on_c, 0, 83, 82
1, 176014, Note_off_c, 0, 83, 58
1, 176043, Note_on_c, 0, 92, 95
1, 176044, Note_on_c, 0, 95, 89
1, 176045, Note_on_c, 0, 76, 95
1, 176047, Note_on_c, 0, 64, 87
1, 176047, Note_on_c, 0, 88, 83
1, 176075, Note_off_c, 0, 88, 66
1, 176087, Note_off_c, 0, 76, 70
1, 176098, Note_off_c, 0, 95, 65
1, 176100, Note_off_c, 0, 64, 63
1, 176105, Note_off_c, 0, 92, 64
1, 176130, Note_on_c, 0, 83, 77
1, 176174, Note_off_c, 0, 83, 58
1, 176221, Note_on_c, 0, 80, 69
1, 176222, Note_on_c, 0, 84, 65
1, 176225, Note_on_c, 0, 83, 50
1, 176226, Note_on_c, 0, 71, 95
1, 176238, Note_off_c, 0, 84, 66
1, 176238, Note_off_c, 0, 80, 62
1, 176247, Note_off_c, 0, 83, 61
1, 176264, Note_off_c, 0, 71, 66
1, 176301, Note_on_c, 0, 83, 81
1, 176319, Note_on_c, 0, 84, 46
1, 176351, Note_off_c, 0, 84, 50
1, 176366, Note_off_c, 0, 83, 59
1, 176443, Note_on_c, 0, 83, 99
1, 176444, Note_on_c, 0, 95, 101
1, 176446, Note_on_c, 0, 92, 101
1, 176446, Note_on_c, 0, 88, 91
1, 176451, Note_on_c, 0, 80, 100
1, 176454, Note_on_c, 0, 76, 90
1, 176484, Note_off_c, 0, 80, 65
1, 176485, Note_off_c, 0, 83, 58
1, 176490, Note_off_c, 0, 76, 65
1, 176498, Note_off_c, 0, 95, 66
1, 176506, Note_off_c, 0, 88, 62
1, 176517, Note_off_c, 0, 92, 66
1, 176849, Control_c, 0, 64, 94
1, 176863, Control_c, 0, 64, 78
1, 176869, Note_on_c, 0, 60, 97
1, 176870, Note_on_c, 0, 68, 94
1, 176872, Note_on_c, 0, 72, 90
1, 176878, Control_c, 0, 64, 74
1, 176893, Control_c, 0, 64, 81
1, 176908, Control_c, 0, 64, 96
1, 176912, Note_off_c, 0, 60, 64
1, 176919, Note_off_c, 0, 72, 66
1, 176922, Note_off_c, 0, 68, 60
1, 176923, Control_c, 0, 64, 125
1, 176938, Control_c, 0, 64, 127
1, 176974, Note_on_c, 0, 47, 83
1, 176981, Note_on_c, 0, 59, 90
1, 176998, Note_on_c, 0, 52, 71
1, 177023, Note_off_c, 0, 59, 66
1, 177041, Note_off_c, 0, 52, 57
1, 177042, Note_off_c, 0, 47, 62
1, 177071, Note_on_c, 0, 59, 94
1, 177075, Note_on_c, 0, 71, 91
1, 177078, Note_on_c, 0, 68, 91
1, 177100, Note_off_c, 0, 59, 67
1, 177123, Note_off_c, 0, 68, 62
1, 177126, Note_off_c, 0, 71, 64
1, 177156, Note_on_c, 0, 47, 81
1, 177165, Note_on_c, 0, 59, 91
1, 177176, Note_on_c, 0, 52, 60
1, 177205, Note_off_c, 0, 59, 65
1, 177206, Note_off_c, 0, 52, 67
1, 177212, Note_off_c, 0, 47, 64
1, 177339, Control_c, 0, 64, 101
1, 177353, Control_c, 0, 64, 72
1, 177368, Control_c, 0, 64, 0
1, 177373, Note_on_c, 0, 68, 102
1, 177373, Note_on_c, 0, 71, 90
1, 177373, Note_on_c, 0, 64, 98
1, 177376, Note_on_c, 0, 56, 76
1, 177376, Note_on_c, 0, 80, 89
1, 177377, Note_on_c, 0, 52, 79
1, 177379, Note_on_c, 0, 76, 75
1, 177382, Note_on_c, 0, 59, 94
1, 177412, Control_c, 0, 64, 27
1, 177427, Control_c, 0, 64, 72
1, 177436, Note_off_c, 0, 68, 65
1, 177442, Control_c, 0, 64, 82
1, 177445, Note_off_c, 0, 71, 62
1, 177445, Note_off_c, 0, 80, 66
1, 177446, Note_off_c, 0, 76, 63
1, 177457, Control_c, 0, 64, 90
1, 177472, Control_c, 0, 64, 97
1, 177487, Control_c, 0, 64, 106
1, 177501, Control_c, 0, 64, 120
1, 177516, Control_c, 0, 64, 126
1, 177531, Control_c, 0, 64, 127
1, 177545, Note_off_c, 0, 64, 61
1, 177571, Note_off_c, 0, 59, 55
1, 177608, Note_off_c, 0, 56, 63
1, 177609, Note_off_c, 0, 52, 64
1, 177950, Note_on_c, 0, 52, 105
1, 177994, Note_off_c, 0, 52, 68
1, 177998, Control_c, 0, 64, 116
1, 178001, Note_on_c, 0, 28, 86
1, 178005, Note_on_c, 0, 40, 99
1, 178013, Control_c, 0, 64, 99
1, 178027, Control_c, 0, 64, 82
1, 178042, Control_c, 0, 64, 65
1, 178057, Control_c, 0, 64, 0
1, 178274, Note_off_c, 0, 40, 64
1, 178285, Note_off_c, 0, 28, 63
1, 179153, Control_c, 0, 64, 10
1, 179168, Control_c, 0, 64, 20
1, 179183, Control_c, 0, 64, 23
1, 179212, Control_c, 0, 64, 24
1, 179227, Control_c, 0, 64, 25
1, 179242, Control_c, 0, 64, 28
1, 179257, Control_c, 0, 64, 33
1, 179272, Control_c, 0, 64, 36
1, 179287, Control_c, 0, 64, 38
1, 179302, Control_c, 0, 64, 39
1, 179317, Control_c, 0, 64, 42
1, 179331, Control_c, 0, 64, 43
1, 179346, Control_c, 0, 64, 44
1, 179361, Control_c, 0, 64, 45
1, 179375, Control_c, 0, 64, 46
1, 179405, Control_c, 0, 64, 46
1, 179480, Control_c, 0, 64, 46
1, 179525, Control_c, 0, 64, 45
1, 179540, Control_c, 0, 64, 44
1, 179555, Control_c, 0, 64, 43
1, 179570, Control_c, 0, 64, 43
1, 179585, Control_c, 0, 64, 42
1, 179599, Control_c, 0, 64, 40
1, 179614, Control_c, 0, 64, 39
1, 179629, Control_c, 0, 64, 38
1, 179644, Control_c, 0, 64, 36
1, 179659, Control_c, 0, 64, 35
1, 179673, Control_c, 0, 64, 33
1, 179688, Control_c, 0, 64, 31
1, 179703, Control_c, 0, 64, 25
1, 179718, Control_c, 0, 64, 16
1, 179733, Control_c, 0, 64, 0
1, 179733, End_track
0, 0, End_of_file
