0, 0, Header, 0, 1, 384
1, 0, Start_track
1, 0, Title_t, "La Campanella--Vladimir Levitsky   "
1, 0, Text_t, "2008 e-Piano Junior Competition virtual audition round"
1, 0, Text_t, "recorded January and February 2008"
1, 0, Text_t, "http://www.piano-e-competition.com/"
1, 0, Text_t, "File processed for distribution by software from Zenph Studios, Inc., http://www.zenph.com"
1, 0, Instrument_name_t, "Yamaha Disklavier Pro Mark IV concert grand piano, model DCFIIISM4PRO"
1, 0, Sequencer_specific, 39, 67, 113, 0, 1, 0, 1, 0, 76, 97, 32, 67, 97, 109, 112, 97, 110, 101, 108, 108, 97, 32, 32, 32, 86, 108, 97, 100, 105, 109, 105, 114, 76, 101, 118, 105, 116, 115, 107, 121
1, 0, Sequencer_specific, 6, 67, 113, 0, 0, 0, 69
1, 0, System_exclusive, 21, 67, 113, 126, 21, 0, 2, 2, 1, 9, 2, 9, 4, 7, 10, 3, 1, 2, 13, 12, 5, 247
1, 0, Sequencer_specific, 5, 67, 123, 12, 2, 1
1, 0, Tempo, 512820
1, 0, Time_signature, 4, 2, 24, 8
1, 0, System_exclusive, 5, 126, 127, 9, 1, 247
1, 1, System_exclusive, 8, 67, 16, 76, 0, 0, 126, 0, 247
1, 2, System_exclusive, 8, 67, 16, 76, 8, 9, 7, 1, 247
1, 3, Control_c, 0, 0, 0
1, 3, Control_c, 1, 0, 0
1, 3, Control_c, 2, 0, 0
1, 3, Control_c, 3, 0, 0
1, 3, Control_c, 4, 0, 0
1, 3, Control_c, 5, 0, 0
1, 3, Control_c, 6, 0, 0
1, 3, Control_c, 7, 0, 0
1, 3, Control_c, 8, 0, 0
1, 3, Control_c, 9, 0, 127
1, 3, Control_c, 10, 0, 0
1, 3, Control_c, 11, 0, 0
1, 3, Control_c, 12, 0, 0
1, 3, Control_c, 13, 0, 0
1, 3, Control_c, 14, 0, 0
1, 3, Control_c, 15, 0, 0
1, 4, Control_c, 0, 32, 0
1, 4, Control_c, 1, 32, 0
1, 4, Control_c, 2, 32, 0
1, 4, Control_c, 3, 32, 0
1, 4, Control_c, 4, 32, 0
1, 4, Control_c, 5, 32, 0
1, 4, Control_c, 6, 32, 0
1, 4, Control_c, 7, 32, 0
1, 4, Control_c, 8, 32, 0
1, 4, Control_c, 9, 32, 0
1, 4, Control_c, 10, 32, 0
1, 4, Control_c, 11, 32, 0
1, 4, Control_c, 12, 32, 0
1, 4, Control_c, 13, 32, 0
1, 4, Control_c, 14, 32, 0
1, 4, Control_c, 15, 32, 0
1, 5, Program_c, 0, 0
1, 5, Program_c, 1, 0
1, 5, Program_c, 2, 0
1, 5, Program_c, 3, 0
1, 5, Program_c, 4, 0
1, 5, Program_c, 5, 0
1, 5, Program_c, 6, 0
1, 5, Program_c, 7, 0
1, 5, Program_c, 8, 0
1, 5, Program_c, 9, 0
1, 5, Program_c, 10, 0
1, 5, Program_c, 11, 0
1, 5, Program_c, 12, 0
1, 5, Program_c, 13, 0
1, 5, Program_c, 14, 0
1, 5, Program_c, 15, 0
1, 6, Control_c, 0, 7, 100
1, 117, Control_c, 0, 64, 11
1, 117, Control_c, 0, 67, 15
1, 229, Control_c, 0, 64, 22
1, 229, Control_c, 0, 67, 30
1, 341, Control_c, 0, 64, 33
1, 341, Control_c, 0, 67, 45
1, 452, Control_c, 0, 64, 45
1, 452, Control_c, 0, 67, 60
1, 564, Control_c, 0, 64, 55
1, 564, Control_c, 0, 67, 75
1, 676, Control_c, 0, 64, 67
1, 676, Control_c, 0, 67, 90
1, 787, Control_c, 0, 64, 77
1, 787, Control_c, 0, 67, 105
1, 899, Control_c, 0, 64, 91
1, 899, Control_c, 0, 67, 121
1, 899, Control_c, 1, 7, 100
1, 899, Control_c, 2, 7, 100
1, 899, Control_c, 3, 7, 100
1, 899, Control_c, 4, 7, 100
1, 899, Control_c, 5, 7, 100
1, 899, Control_c, 6, 7, 100
1, 899, Control_c, 7, 7, 100
1, 899, Control_c, 8, 7, 100
1, 899, Control_c, 9, 7, 100
1, 899, Control_c, 10, 7, 100
1, 899, Control_c, 11, 7, 100
1, 899, Control_c, 12, 7, 100
1, 899, Control_c, 13, 7, 100
1, 899, Control_c, 14, 7, 100
1, 899, Control_c, 15, 7, 100
1, 1135, Note_on_c, 0, 63, 35
1, 1135, Note_on_c, 0, 75, 35
1, 1168, Control_c, 0, 64, 91
1, 1183, Control_c, 0, 64, 92
1, 1257, Control_c, 0, 64, 92
1, 1269, Note_off_c, 0, 63, 24
1, 1280, Note_off_c, 0, 75, 41
1, 1287, Control_c, 0, 64, 93
1, 1519, Note_on_c, 0, 75, 30
1, 1528, Note_on_c, 0, 63, 25
1, 1625, Note_off_c, 0, 63, 32
1, 1645, Note_off_c, 0, 75, 40
1, 1808, Note_on_c, 0, 75, 37
1, 1820, Note_on_c, 0, 63, 32
1, 1902, Note_off_c, 0, 63, 0
1, 1917, Control_c, 0, 67, 121
1, 1940, Poly_aftertouch_c, 0, 63, 127
1, 1947, Control_c, 0, 67, 121
1, 1979, Note_off_c, 0, 75, 34
1, 1991, Control_c, 0, 67, 121
1, 2006, Control_c, 0, 67, 121
1, 2028, Poly_aftertouch_c, 0, 63, 0
1, 2065, Control_c, 0, 67, 121
1, 2080, Note_on_c, 0, 99, 49
1, 2080, Control_c, 0, 67, 121
1, 2095, Note_on_c, 0, 87, 39
1, 2139, Control_c, 0, 67, 121
1, 2154, Control_c, 0, 67, 121
1, 2186, Note_off_c, 0, 99, 44
1, 2214, Note_off_c, 0, 87, 37
1, 2243, Control_c, 0, 67, 122
1, 2287, Control_c, 0, 67, 121
1, 2317, Control_c, 0, 67, 122
1, 2345, Note_on_c, 0, 99, 47
1, 2357, Note_on_c, 0, 87, 40
1, 2369, Control_c, 0, 67, 121
1, 2399, Control_c, 0, 67, 122
1, 2437, Note_off_c, 0, 87, 38
1, 2440, Note_off_c, 0, 99, 54
1, 2458, Control_c, 0, 67, 121
1, 2473, Control_c, 0, 67, 121
1, 2488, Control_c, 0, 67, 122
1, 2563, Control_c, 0, 67, 122
1, 2592, Note_on_c, 0, 99, 52
1, 2615, Note_on_c, 0, 87, 38
1, 2654, Note_off_c, 0, 87, 47
1, 2669, Note_off_c, 0, 99, 54
1, 2682, Control_c, 0, 67, 123
1, 2756, Control_c, 0, 67, 123
1, 2830, Control_c, 0, 67, 124
1, 2840, Note_on_c, 0, 75, 33
1, 2847, Note_on_c, 0, 63, 28
1, 2859, Control_c, 0, 67, 123
1, 2874, Control_c, 0, 67, 124
1, 2905, Note_off_c, 0, 63, 40
1, 2918, Control_c, 0, 67, 123
1, 2937, Note_off_c, 0, 75, 35
1, 2948, Control_c, 0, 67, 124
1, 3066, Control_c, 0, 67, 123
1, 3094, Note_on_c, 0, 75, 34
1, 3104, Control_c, 0, 67, 124
1, 3118, Control_c, 0, 67, 123
1, 3120, Note_on_c, 0, 63, 18
1, 3177, Note_off_c, 0, 63, 41
1, 3203, Note_off_c, 0, 75, 33
1, 3343, Note_on_c, 0, 75, 38
1, 3353, Note_on_c, 0, 63, 31
1, 3511, Note_off_c, 0, 75, 36
1, 3520, Note_off_c, 0, 63, 19
1, 3573, Note_on_c, 0, 99, 47
1, 3585, Note_on_c, 0, 87, 41
1, 3592, Control_c, 0, 67, 123
1, 3607, Control_c, 0, 67, 123
1, 3652, Control_c, 0, 67, 123
1, 3672, Note_off_c, 0, 99, 49
1, 3681, Control_c, 0, 67, 123
1, 3684, Note_off_c, 0, 87, 36
1, 3711, Control_c, 0, 67, 123
1, 3846, Note_on_c, 0, 99, 49
1, 3856, Note_on_c, 0, 87, 42
1, 3925, Note_off_c, 0, 87, 40
1, 3929, Note_off_c, 0, 99, 48
1, 4094, Note_on_c, 0, 99, 47
1, 4119, Note_on_c, 0, 87, 37
1, 4170, Note_off_c, 0, 87, 43
1, 4181, Note_off_c, 0, 99, 55
1, 4312, Control_c, 0, 64, 92
1, 4383, Note_on_c, 0, 63, 29
1, 4386, Control_c, 0, 67, 122
1, 4390, Note_on_c, 0, 75, 31
1, 4400, Control_c, 0, 67, 123
1, 4445, Control_c, 0, 67, 122
1, 4460, Control_c, 0, 67, 123
1, 4519, Control_c, 0, 67, 122
1, 4534, Control_c, 0, 67, 123
1, 4584, Note_off_c, 0, 63, 17
1, 4586, Control_c, 0, 67, 122
1, 4601, Control_c, 0, 67, 123
1, 4605, Note_off_c, 0, 75, 30
1, 4645, Control_c, 0, 67, 122
1, 4660, Control_c, 0, 67, 122
1, 4675, Control_c, 0, 67, 122
1, 4679, Note_on_c, 0, 99, 45
1, 4690, Note_on_c, 0, 87, 38
1, 4762, Note_off_c, 0, 87, 37
1, 4777, Control_c, 0, 67, 122
1, 4789, Note_off_c, 0, 99, 34
1, 4808, Control_c, 0, 67, 122
1, 4852, Control_c, 0, 67, 122
1, 4867, Control_c, 0, 67, 122
1, 4986, Note_on_c, 0, 99, 49
1, 4990, Note_on_c, 0, 87, 41
1, 5043, Note_off_c, 0, 87, 42
1, 5070, Note_off_c, 0, 99, 32
1, 5075, Control_c, 0, 67, 123
1, 5090, Control_c, 0, 67, 122
1, 5119, Control_c, 0, 67, 123
1, 5313, Note_on_c, 0, 63, 23
1, 5313, Note_on_c, 0, 75, 19
1, 5363, Control_c, 0, 67, 122
1, 5378, Control_c, 0, 67, 123
1, 5415, Note_off_c, 0, 63, 0
1, 5423, Control_c, 0, 67, 122
1, 5437, Control_c, 0, 67, 123
1, 5451, Poly_aftertouch_c, 0, 63, 127
1, 5482, Control_c, 0, 67, 122
1, 5511, Control_c, 0, 67, 123
1, 5555, Control_c, 0, 67, 122
1, 5583, Poly_aftertouch_c, 0, 63, 0
1, 5585, Control_c, 0, 67, 123
1, 5616, Control_c, 0, 67, 122
1, 5646, Control_c, 0, 67, 123
1, 5675, Control_c, 0, 67, 122
1, 5691, Note_on_c, 0, 99, 45
1, 5716, Note_off_c, 0, 75, 25
1, 5717, Note_on_c, 0, 87, 28
1, 5720, Control_c, 0, 67, 123
1, 5749, Control_c, 0, 67, 122
1, 5779, Control_c, 0, 67, 123
1, 5788, Note_off_c, 0, 87, 38
1, 5809, Control_c, 0, 67, 122
1, 5818, Note_off_c, 0, 99, 41
1, 5839, Control_c, 0, 67, 123
1, 5883, Control_c, 0, 67, 122
1, 5898, Control_c, 0, 67, 123
1, 5942, Control_c, 0, 67, 122
1, 5971, Control_c, 0, 67, 123
1, 6001, Control_c, 0, 67, 122
1, 6031, Control_c, 0, 67, 123
1, 6083, Control_c, 0, 67, 122
1, 6113, Control_c, 0, 67, 123
1, 6142, Control_c, 0, 67, 122
1, 6157, Control_c, 0, 64, 92
1, 6162, Note_on_c, 0, 99, 37
1, 6178, Note_on_c, 0, 87, 29
1, 6216, Control_c, 0, 67, 122
1, 6246, Control_c, 0, 67, 122
1, 6275, Control_c, 0, 64, 91
1, 6275, Control_c, 0, 67, 122
1, 6291, Note_off_c, 0, 99, 43
1, 6310, Note_off_c, 0, 87, 38
1, 6319, Control_c, 0, 67, 122
1, 6334, Control_c, 0, 67, 122
1, 6868, Note_on_c, 0, 75, 39
1, 6908, Note_off_c, 0, 75, 48
1, 7053, Note_on_c, 0, 87, 48
1, 7083, Control_c, 0, 67, 121
1, 7097, Note_off_c, 0, 87, 61
1, 7098, Control_c, 0, 67, 122
1, 7142, Control_c, 0, 67, 121
1, 7172, Control_c, 0, 67, 122
1, 7218, Control_c, 0, 67, 121
1, 7232, Note_on_c, 0, 87, 57
1, 7232, Control_c, 0, 67, 122
1, 7276, Note_off_c, 0, 87, 58
1, 7277, Control_c, 0, 67, 121
1, 7306, Control_c, 0, 67, 122
1, 7336, Control_c, 0, 67, 121
1, 7368, Note_on_c, 0, 99, 55
1, 7380, Control_c, 0, 67, 122
1, 7410, Control_c, 0, 67, 121
1, 7454, Control_c, 0, 67, 122
1, 7469, Control_c, 0, 67, 121
1, 7480, Note_off_c, 0, 99, 39
1, 7501, Note_on_c, 0, 87, 61
1, 7514, Control_c, 0, 67, 122
1, 7537, Note_off_c, 0, 87, 61
1, 7544, Control_c, 0, 67, 121
1, 7595, Control_c, 0, 67, 122
1, 7604, Note_on_c, 0, 99, 57
1, 7610, Control_c, 0, 67, 121
1, 7654, Control_c, 0, 67, 122
1, 7666, Note_off_c, 0, 99, 56
1, 7699, Control_c, 0, 67, 121
1, 7714, Control_c, 0, 67, 122
1, 7729, Control_c, 0, 64, 92
1, 7732, Note_on_c, 0, 85, 54
1, 7750, Note_off_c, 0, 85, 62
1, 7758, Control_c, 0, 67, 121
1, 7773, Control_c, 0, 64, 92
1, 7788, Control_c, 0, 64, 93
1, 7788, Control_c, 0, 67, 122
1, 7803, Control_c, 0, 64, 94
1, 7818, Control_c, 0, 64, 95
1, 7818, Control_c, 0, 67, 121
1, 7820, Note_on_c, 0, 99, 52
1, 7827, Note_on_c, 0, 56, 35
1, 7849, Note_off_c, 0, 99, 56
1, 7860, Note_on_c, 0, 63, 38
1, 7862, Control_c, 0, 64, 92
1, 7862, Control_c, 0, 67, 122
1, 7863, Note_off_c, 0, 56, 50
1, 7876, Control_c, 0, 64, 84
1, 7891, Control_c, 0, 64, 74
1, 7891, Control_c, 0, 67, 121
1, 7906, Control_c, 0, 64, 65
1, 7921, Control_c, 0, 64, 61
1, 7921, Control_c, 0, 67, 122
1, 7936, Control_c, 0, 64, 63
1, 7940, Note_off_c, 0, 63, 0
1, 7950, Control_c, 0, 64, 66
1, 7950, Control_c, 0, 67, 121
1, 7965, Control_c, 0, 64, 71
1, 7965, Control_c, 0, 67, 121
1, 7973, Note_on_c, 0, 83, 60
1, 7976, Poly_aftertouch_c, 0, 63, 127
1, 7980, Control_c, 0, 64, 77
1, 7995, Control_c, 0, 64, 85
1, 7995, Control_c, 0, 67, 121
1, 8002, Note_off_c, 0, 83, 67
1, 8004, Note_on_c, 0, 71, 40
1, 8011, Control_c, 0, 64, 90
1, 8026, Control_c, 0, 64, 92
1, 8026, Control_c, 0, 67, 121
1, 8041, Control_c, 0, 64, 94
1, 8055, Control_c, 0, 64, 96
1, 8055, Control_c, 0, 67, 121
1, 8064, Note_off_c, 0, 71, 38
1, 8070, Control_c, 0, 64, 98
1, 8085, Control_c, 0, 64, 101
1, 8086, Note_on_c, 0, 99, 60
1, 8100, Control_c, 0, 64, 103
1, 8100, Control_c, 0, 67, 121
1, 8105, Note_off_c, 0, 99, 65
1, 8115, Control_c, 0, 67, 121
1, 8136, Poly_aftertouch_c, 0, 63, 0
1, 8159, Control_c, 0, 67, 121
1, 8188, Control_c, 0, 67, 121
1, 8198, Note_on_c, 0, 83, 69
1, 8203, Control_c, 0, 64, 103
1, 8218, Control_c, 0, 67, 121
1, 8224, Note_off_c, 0, 83, 67
1, 8247, Control_c, 0, 67, 121
1, 8292, Note_on_c, 0, 99, 72
1, 8292, Control_c, 0, 67, 121
1, 8314, Note_off_c, 0, 99, 70
1, 8329, Control_c, 0, 67, 121
1, 8374, Control_c, 0, 67, 121
1, 8388, Control_c, 0, 67, 119
1, 8403, Control_c, 0, 67, 119
1, 8415, Note_on_c, 0, 82, 70
1, 8418, Control_c, 0, 67, 120
1, 8433, Control_c, 0, 67, 119
1, 8435, Note_off_c, 0, 82, 66
1, 8462, Control_c, 0, 64, 102
1, 8477, Control_c, 0, 64, 99
1, 8477, Control_c, 0, 67, 120
1, 8492, Note_on_c, 0, 59, 50
1, 8492, Control_c, 0, 64, 91
1, 8507, Control_c, 0, 64, 80
1, 8514, Note_on_c, 0, 99, 67
1, 8521, Control_c, 0, 64, 66
1, 8527, Note_off_c, 0, 59, 57
1, 8532, Note_off_c, 0, 99, 63
1, 8536, Control_c, 0, 64, 54
1, 8536, Control_c, 0, 67, 120
1, 8551, Control_c, 0, 64, 44
1, 8566, Control_c, 0, 64, 50
1, 8570, Note_on_c, 0, 68, 53
1, 8581, Control_c, 0, 64, 60
1, 8581, Control_c, 0, 67, 120
1, 8596, Control_c, 0, 64, 69
1, 8596, Control_c, 0, 67, 120
1, 8611, Control_c, 0, 64, 78
1, 8626, Control_c, 0, 64, 88
1, 8641, Control_c, 0, 64, 93
1, 8643, Note_on_c, 0, 80, 65
1, 8655, Control_c, 0, 64, 96
1, 8659, Note_off_c, 0, 80, 64
1, 8661, Note_on_c, 0, 75, 57
1, 8670, Control_c, 0, 64, 99
1, 8682, Note_off_c, 0, 68, 27
1, 8685, Control_c, 0, 64, 107
1, 8688, Note_off_c, 0, 75, 65
1, 8699, Control_c, 0, 64, 118
1, 8699, Control_c, 0, 67, 120
1, 8714, Control_c, 0, 64, 127
1, 8729, Control_c, 0, 67, 120
1, 8743, Note_on_c, 0, 99, 68
1, 8769, Note_off_c, 0, 99, 68
1, 8773, Control_c, 0, 67, 120
1, 8804, Control_c, 0, 67, 120
1, 8819, Control_c, 0, 64, 124
1, 8834, Control_c, 0, 64, 119
1, 8849, Control_c, 0, 64, 112
1, 8849, Control_c, 0, 67, 120
1, 8855, Note_on_c, 0, 79, 72
1, 8864, Control_c, 0, 64, 112
1, 8878, Control_c, 0, 67, 120
1, 8879, Note_off_c, 0, 79, 67
1, 8908, Control_c, 0, 64, 111
1, 8908, Control_c, 0, 67, 120
1, 8922, Control_c, 0, 64, 109
1, 8937, Control_c, 0, 67, 120
1, 8960, Note_on_c, 0, 99, 68
1, 8975, Note_off_c, 0, 99, 68
1, 8982, Control_c, 0, 67, 120
1, 9011, Control_c, 0, 67, 120
1, 9041, Control_c, 0, 67, 120
1, 9056, Control_c, 0, 67, 119
1, 9078, Control_c, 0, 67, 120
1, 9080, Note_on_c, 0, 80, 67
1, 9097, Note_off_c, 0, 80, 65
1, 9108, Control_c, 0, 64, 109
1, 9123, Control_c, 0, 64, 101
1, 9123, Control_c, 0, 67, 119
1, 9137, Control_c, 0, 64, 93
1, 9152, Control_c, 0, 64, 84
1, 9152, Control_c, 0, 67, 120
1, 9167, Note_on_c, 0, 63, 49
1, 9167, Control_c, 0, 64, 74
1, 9167, Control_c, 0, 67, 121
1, 9174, Note_on_c, 0, 99, 70
1, 9182, Control_c, 0, 64, 64
1, 9182, Control_c, 0, 67, 120
1, 9190, Note_off_c, 0, 99, 68
1, 9197, Control_c, 0, 64, 51
1, 9197, Control_c, 0, 67, 119
1, 9201, Note_off_c, 0, 63, 51
1, 9211, Control_c, 0, 64, 34
1, 9226, Control_c, 0, 64, 30
1, 9226, Control_c, 0, 67, 120
1, 9241, Control_c, 0, 64, 44
1, 9253, Note_on_c, 0, 70, 31
1, 9256, Control_c, 0, 64, 59
1, 9256, Control_c, 0, 67, 119
1, 9271, Control_c, 0, 64, 68
1, 9271, Control_c, 0, 67, 119
1, 9285, Control_c, 0, 64, 74
1, 9299, Note_on_c, 0, 82, 66
1, 9300, Control_c, 0, 64, 80
1, 9300, Control_c, 0, 67, 119
1, 9303, Note_on_c, 0, 79, 67
1, 9315, Note_off_c, 0, 82, 66
1, 9315, Control_c, 0, 64, 85
1, 9320, Note_off_c, 0, 79, 66
1, 9329, Control_c, 0, 64, 90
1, 9344, Control_c, 0, 64, 96
1, 9344, Control_c, 0, 67, 119
1, 9359, Control_c, 0, 64, 104
1, 9359, Control_c, 0, 67, 119
1, 9365, Note_off_c, 0, 70, 39
1, 9374, Control_c, 0, 64, 118
1, 9389, Control_c, 0, 64, 127
1, 9398, Note_on_c, 0, 99, 62
1, 9404, Control_c, 0, 67, 119
1, 9415, Note_off_c, 0, 99, 66
1, 9419, Control_c, 0, 67, 119
1, 9434, Control_c, 0, 67, 120
1, 9463, Control_c, 0, 67, 119
1, 9478, Control_c, 0, 67, 119
1, 9508, Control_c, 0, 67, 119
1, 9524, Note_on_c, 0, 75, 62
1, 9544, Note_off_c, 0, 75, 62
1, 9552, Control_c, 0, 67, 119
1, 9582, Control_c, 0, 67, 119
1, 9612, Control_c, 0, 67, 119
1, 9623, Note_on_c, 0, 99, 61
1, 9640, Note_off_c, 0, 99, 63
1, 9642, Control_c, 0, 67, 119
1, 9672, Control_c, 0, 67, 119
1, 9687, Control_c, 0, 67, 118
1, 9701, Control_c, 0, 67, 119
1, 9739, Note_on_c, 0, 75, 58
1, 9759, Note_off_c, 0, 75, 65
1, 9790, Control_c, 0, 67, 119
1, 9814, Note_on_c, 0, 87, 65
1, 9827, Control_c, 0, 67, 119
1, 9842, Control_c, 0, 64, 113
1, 9857, Control_c, 0, 64, 106
1, 9857, Control_c, 0, 67, 119
1, 9871, Control_c, 0, 64, 95
1, 9873, Note_off_c, 0, 87, 45
1, 9886, Control_c, 0, 64, 82
1, 9886, Control_c, 0, 67, 119
1, 9901, Control_c, 0, 64, 70
1, 9916, Control_c, 0, 64, 59
1, 9931, Control_c, 0, 64, 44
1, 9931, Control_c, 0, 67, 119
1, 9940, Note_on_c, 0, 76, 68
1, 9940, Note_on_c, 0, 70, 53
1, 9941, Note_on_c, 0, 67, 52
1, 9946, Control_c, 0, 64, 21
1, 9946, Control_c, 0, 67, 119
1, 9960, Control_c, 0, 64, 0
1, 9961, Note_off_c, 0, 70, 61
1, 9963, Note_off_c, 0, 67, 63
1, 9964, Note_off_c, 0, 76, 68
1, 9990, Control_c, 0, 67, 119
1, 10020, Control_c, 0, 67, 119
1, 10027, Note_on_c, 0, 87, 58
1, 10064, Control_c, 0, 67, 119
1, 10093, Control_c, 0, 67, 119
1, 10095, Note_off_c, 0, 87, 46
1, 10138, Control_c, 0, 67, 119
1, 10142, Note_on_c, 0, 75, 63
1, 10152, Control_c, 0, 67, 119
1, 10169, Note_off_c, 0, 75, 68
1, 10197, Control_c, 0, 67, 119
1, 10224, Note_on_c, 0, 87, 55
1, 10227, Control_c, 0, 67, 119
1, 10268, Note_off_c, 0, 87, 58
1, 10271, Control_c, 0, 67, 119
1, 10286, Control_c, 0, 67, 119
1, 10331, Control_c, 0, 67, 119
1, 10340, Note_on_c, 0, 73, 59
1, 10360, Control_c, 0, 67, 119
1, 10363, Note_off_c, 0, 73, 66
1, 10390, Control_c, 0, 67, 119
1, 10429, Note_on_c, 0, 87, 59
1, 10459, Note_off_c, 0, 87, 67
1, 10494, Control_c, 0, 67, 119
1, 10509, Control_c, 0, 67, 119
1, 10533, Note_on_c, 0, 68, 59
1, 10539, Control_c, 0, 67, 120
1, 10542, Note_on_c, 0, 71, 62
1, 10554, Control_c, 0, 67, 119
1, 10564, Note_off_c, 0, 68, 67
1, 10575, Control_c, 0, 67, 119
1, 10577, Note_off_c, 0, 71, 67
1, 10590, Control_c, 0, 67, 119
1, 10605, Control_c, 0, 67, 120
1, 10620, Control_c, 0, 67, 119
1, 10635, Control_c, 0, 67, 119
1, 10647, Note_on_c, 0, 87, 60
1, 10650, Control_c, 0, 67, 119
1, 10665, Control_c, 0, 67, 120
1, 10676, Note_off_c, 0, 87, 64
1, 10694, Control_c, 0, 67, 119
1, 10739, Control_c, 0, 67, 120
1, 10754, Control_c, 0, 67, 119
1, 10766, Note_on_c, 0, 71, 48
1, 10768, Control_c, 0, 67, 119
1, 10783, Control_c, 0, 67, 119
1, 10790, Note_off_c, 0, 71, 54
1, 10813, Control_c, 0, 67, 120
1, 10828, Control_c, 0, 67, 119
1, 10853, Note_on_c, 0, 87, 61
1, 10857, Control_c, 0, 67, 120
1, 10870, Note_off_c, 0, 87, 65
1, 10872, Control_c, 0, 67, 120
1, 10901, Control_c, 0, 67, 119
1, 10931, Control_c, 0, 67, 120
1, 10961, Note_on_c, 0, 70, 60
1, 10961, Control_c, 0, 67, 119
1, 10981, Note_off_c, 0, 70, 61
1, 11005, Control_c, 0, 67, 120
1, 11064, Note_on_c, 0, 87, 52
1, 11064, Control_c, 0, 67, 120
1, 11072, Note_on_c, 0, 59, 51
1, 11085, Note_off_c, 0, 87, 61
1, 11094, Control_c, 0, 67, 120
1, 11124, Control_c, 0, 67, 120
1, 11130, Note_off_c, 0, 59, 50
1, 11132, Note_on_c, 0, 62, 29
1, 11168, Note_on_c, 0, 65, 58
1, 11168, Control_c, 0, 67, 120
1, 11175, Note_on_c, 0, 68, 60
1, 11183, Control_c, 0, 67, 120
1, 11186, Note_off_c, 0, 62, 64
1, 11190, Note_off_c, 0, 65, 65
1, 11196, Note_off_c, 0, 68, 63
1, 11298, Note_on_c, 0, 87, 42
1, 11303, Control_c, 0, 67, 120
1, 11333, Note_off_c, 0, 87, 48
1, 11339, Control_c, 0, 67, 120
1, 11369, Control_c, 0, 67, 120
1, 11384, Control_c, 0, 67, 119
1, 11395, Note_on_c, 0, 67, 59
1, 11398, Control_c, 0, 67, 120
1, 11416, Note_off_c, 0, 67, 61
1, 11443, Control_c, 0, 67, 119
1, 11458, Control_c, 0, 67, 120
1, 11473, Control_c, 0, 67, 120
1, 11493, Note_on_c, 0, 87, 55
1, 11502, Control_c, 0, 67, 120
1, 11514, Note_off_c, 0, 87, 60
1, 11517, Control_c, 0, 67, 119
1, 11532, Control_c, 0, 67, 120
1, 11547, Control_c, 0, 67, 120
1, 11562, Control_c, 0, 67, 120
1, 11577, Control_c, 0, 67, 119
1, 11591, Control_c, 0, 67, 120
1, 11606, Control_c, 0, 67, 120
1, 11613, Note_on_c, 0, 68, 62
1, 11632, Note_off_c, 0, 68, 64
1, 11636, Control_c, 0, 67, 120
1, 11665, Control_c, 0, 67, 120
1, 11710, Control_c, 0, 67, 120
1, 11722, Note_on_c, 0, 87, 59
1, 11726, Note_on_c, 0, 63, 34
1, 11740, Note_off_c, 0, 87, 64
1, 11754, Control_c, 0, 64, 18
1, 11769, Control_c, 0, 64, 44
1, 11769, Control_c, 0, 67, 119
1, 11784, Control_c, 0, 64, 55
1, 11798, Control_c, 0, 64, 60
1, 11813, Control_c, 0, 64, 62
1, 11813, Control_c, 0, 67, 120
1, 11828, Control_c, 0, 64, 63
1, 11832, Note_on_c, 0, 67, 49
1, 11840, Note_on_c, 0, 70, 63
1, 11842, Control_c, 0, 64, 65
1, 11842, Control_c, 0, 67, 119
1, 11856, Note_off_c, 0, 67, 62
1, 11857, Control_c, 0, 64, 67
1, 11857, Control_c, 0, 67, 119
1, 11858, Note_off_c, 0, 70, 64
1, 11872, Control_c, 0, 64, 71
1, 11872, Control_c, 0, 67, 119
1, 11884, Note_off_c, 0, 63, 20
1, 11887, Control_c, 0, 64, 73
1, 11902, Control_c, 0, 64, 75
1, 11917, Control_c, 0, 64, 77
1, 11917, Control_c, 0, 67, 119
1, 11932, Control_c, 0, 64, 77
1, 11947, Control_c, 0, 64, 78
1, 11947, Control_c, 0, 67, 119
1, 11956, Note_on_c, 0, 87, 70
1, 11961, Control_c, 0, 64, 78
1, 11976, Control_c, 0, 64, 79
1, 11976, Control_c, 0, 67, 119
1, 11977, Note_off_c, 0, 87, 64
1, 11992, Control_c, 0, 67, 118
1, 12021, Control_c, 0, 67, 119
1, 12036, Control_c, 0, 67, 118
1, 12051, Control_c, 0, 67, 118
1, 12073, Control_c, 0, 67, 117
1, 12088, Control_c, 0, 67, 118
1, 12108, Note_on_c, 0, 63, 50
1, 12118, Control_c, 0, 64, 79
1, 12133, Control_c, 0, 67, 117
1, 12135, Note_off_c, 0, 63, 54
1, 12147, Control_c, 0, 67, 117
1, 12198, Note_on_c, 0, 75, 63
1, 12207, Control_c, 0, 67, 116
1, 12221, Control_c, 0, 67, 114
1, 12234, Note_off_c, 0, 75, 64
1, 12237, Control_c, 0, 67, 109
1, 12252, Control_c, 0, 67, 108
1, 12296, Control_c, 0, 67, 107
1, 12311, Control_c, 0, 67, 107
1, 12325, Note_on_c, 0, 75, 52
1, 12326, Control_c, 0, 67, 104
1, 12341, Control_c, 0, 67, 101
1, 12344, Note_off_c, 0, 75, 61
1, 12355, Control_c, 0, 67, 98
1, 12370, Control_c, 0, 67, 95
1, 12385, Control_c, 0, 67, 89
1, 12396, Note_on_c, 0, 87, 63
1, 12400, Control_c, 0, 67, 82
1, 12415, Control_c, 0, 67, 73
1, 12429, Control_c, 0, 67, 63
1, 12431, Note_off_c, 0, 87, 62
1, 12444, Control_c, 0, 67, 52
1, 12459, Control_c, 0, 64, 79
1, 12459, Control_c, 0, 67, 39
1, 12474, Control_c, 0, 64, 78
1, 12474, Control_c, 0, 67, 19
1, 12489, Control_c, 0, 67, 0
1, 12534, Note_on_c, 0, 87, 52
1, 12555, Note_off_c, 0, 87, 59
1, 12626, Note_on_c, 0, 99, 47
1, 12651, Note_off_c, 0, 99, 55
1, 12652, Control_c, 0, 64, 79
1, 12726, Note_on_c, 0, 87, 57
1, 12758, Note_off_c, 0, 87, 62
1, 12821, Note_on_c, 0, 99, 58
1, 12851, Note_off_c, 0, 99, 49
1, 12853, Control_c, 0, 64, 78
1, 12868, Control_c, 0, 64, 77
1, 12883, Control_c, 0, 64, 76
1, 12897, Control_c, 0, 64, 74
1, 12912, Control_c, 0, 64, 70
1, 12917, Note_on_c, 0, 85, 68
1, 12927, Control_c, 0, 64, 63
1, 12942, Control_c, 0, 64, 54
1, 12945, Note_off_c, 0, 85, 65
1, 12957, Control_c, 0, 64, 42
1, 12971, Control_c, 0, 64, 36
1, 12986, Control_c, 0, 64, 40
1, 13001, Control_c, 0, 64, 52
1, 13011, Note_on_c, 0, 99, 55
1, 13011, Note_on_c, 0, 56, 38
1, 13016, Control_c, 0, 64, 62
1, 13030, Control_c, 0, 64, 67
1, 13035, Note_off_c, 0, 99, 67
1, 13042, Note_off_c, 0, 56, 55
1, 13043, Note_on_c, 0, 63, 41
1, 13045, Control_c, 0, 64, 70
1, 13060, Control_c, 0, 64, 74
1, 13075, Control_c, 0, 64, 77
1, 13090, Control_c, 0, 64, 80
1, 13104, Control_c, 0, 64, 83
1, 13119, Control_c, 0, 64, 85
1, 13128, Note_on_c, 0, 83, 63
1, 13129, Note_off_c, 0, 63, 0
1, 13134, Control_c, 0, 64, 86
1, 13145, Note_off_c, 0, 83, 65
1, 13148, Note_on_c, 0, 71, 51
1, 13149, Control_c, 0, 64, 87
1, 13164, Control_c, 0, 64, 88
1, 13166, Poly_aftertouch_c, 0, 63, 127
1, 13173, Note_off_c, 0, 71, 58
1, 13178, Control_c, 0, 64, 89
1, 13193, Control_c, 0, 64, 91
1, 13208, Poly_aftertouch_c, 0, 63, 0
1, 13208, Control_c, 0, 64, 92
1, 13220, Note_on_c, 0, 99, 69
1, 13246, Note_off_c, 0, 99, 69
1, 13327, Control_c, 0, 64, 91
1, 13338, Note_on_c, 0, 83, 64
1, 13342, Control_c, 0, 64, 91
1, 13354, Note_off_c, 0, 83, 65
1, 13416, Note_on_c, 0, 99, 73
1, 13443, Note_off_c, 0, 99, 67
1, 13522, Note_on_c, 0, 82, 69
1, 13538, Note_off_c, 0, 82, 67
1, 13571, Control_c, 0, 64, 89
1, 13586, Control_c, 0, 64, 85
1, 13601, Control_c, 0, 64, 76
1, 13616, Control_c, 0, 64, 65
1, 13617, Note_on_c, 0, 99, 76
1, 13620, Note_on_c, 0, 59, 46
1, 13631, Control_c, 0, 64, 54
1, 13643, Note_off_c, 0, 99, 67
1, 13646, Control_c, 0, 64, 45
1, 13646, Note_off_c, 0, 59, 55
1, 13661, Control_c, 0, 64, 49
1, 13673, Note_on_c, 0, 68, 56
1, 13675, Control_c, 0, 64, 59
1, 13690, Control_c, 0, 64, 67
1, 13705, Control_c, 0, 64, 75
1, 13720, Control_c, 0, 64, 86
1, 13724, Note_off_c, 0, 68, 50
1, 13734, Control_c, 0, 64, 92
1, 13735, Note_on_c, 0, 80, 69
1, 13749, Control_c, 0, 64, 94
1, 13752, Note_off_c, 0, 80, 64
1, 13762, Note_on_c, 0, 75, 55
1, 13764, Control_c, 0, 64, 96
1, 13779, Control_c, 0, 64, 100
1, 13781, Note_off_c, 0, 75, 62
1, 13793, Control_c, 0, 64, 104
1, 13808, Control_c, 0, 64, 106
1, 13832, Note_on_c, 0, 99, 71
1, 13852, Control_c, 0, 64, 105
1, 13856, Note_off_c, 0, 99, 69
1, 13867, Control_c, 0, 64, 104
1, 13882, Control_c, 0, 64, 103
1, 13897, Control_c, 0, 64, 102
1, 13912, Control_c, 0, 64, 99
1, 13926, Control_c, 0, 64, 99
1, 13942, Note_on_c, 0, 79, 69
1, 13959, Note_off_c, 0, 79, 67
1, 13971, Control_c, 0, 64, 98
1, 13986, Control_c, 0, 64, 98
1, 14035, Note_on_c, 0, 99, 70
1, 14048, Note_off_c, 0, 99, 70
1, 14147, Note_on_c, 0, 80, 65
1, 14162, Note_off_c, 0, 80, 65
1, 14163, Control_c, 0, 64, 97
1, 14178, Control_c, 0, 64, 90
1, 14193, Control_c, 0, 64, 80
1, 14208, Control_c, 0, 64, 68
1, 14223, Control_c, 0, 64, 52
1, 14237, Control_c, 0, 64, 32
1, 14244, Note_on_c, 0, 99, 68
1, 14248, Note_on_c, 0, 63, 50
1, 14252, Control_c, 0, 64, 10
1, 14259, Note_off_c, 0, 99, 68
1, 14267, Control_c, 0, 64, 24
1, 14282, Control_c, 0, 64, 45
1, 14286, Note_off_c, 0, 63, 65
1, 14297, Control_c, 0, 64, 62
1, 14319, Control_c, 0, 64, 70
1, 14331, Note_on_c, 0, 70, 40
1, 14334, Control_c, 0, 64, 78
1, 14349, Control_c, 0, 64, 84
1, 14363, Control_c, 0, 64, 88
1, 14371, Note_on_c, 0, 82, 66
1, 14378, Control_c, 0, 64, 92
1, 14383, Note_on_c, 0, 79, 51
1, 14389, Note_off_c, 0, 82, 65
1, 14394, Control_c, 0, 64, 100
1, 14407, Note_off_c, 0, 79, 58
1, 14409, Control_c, 0, 64, 109
1, 14424, Control_c, 0, 64, 127
1, 14430, Note_off_c, 0, 70, 38
1, 14462, Note_on_c, 0, 99, 73
1, 14476, Note_off_c, 0, 99, 69
1, 14592, Note_on_c, 0, 75, 56
1, 14612, Note_off_c, 0, 75, 62
1, 14687, Note_on_c, 0, 99, 65
1, 14703, Note_off_c, 0, 99, 67
1, 14810, Note_on_c, 0, 75, 59
1, 14827, Note_off_c, 0, 75, 64
1, 14881, Note_on_c, 0, 87, 68
1, 14927, Control_c, 0, 64, 103
1, 14942, Control_c, 0, 64, 89
1, 14951, Note_off_c, 0, 87, 37
1, 14957, Control_c, 0, 64, 76
1, 14972, Control_c, 0, 64, 65
1, 14981, Note_on_c, 0, 67, 50
1, 14983, Note_on_c, 0, 70, 51
1, 14986, Control_c, 0, 64, 52
1, 14989, Note_on_c, 0, 76, 71
1, 15001, Control_c, 0, 64, 33
1, 15004, Note_off_c, 0, 67, 63
1, 15008, Note_off_c, 0, 70, 62
1, 15011, Note_off_c, 0, 76, 69
1, 15016, Control_c, 0, 64, 0
1, 15085, Note_on_c, 0, 87, 59
1, 15160, Note_off_c, 0, 87, 54
1, 15195, Note_on_c, 0, 75, 65
1, 15223, Note_off_c, 0, 75, 68
1, 15285, Note_on_c, 0, 87, 64
1, 15330, Note_off_c, 0, 87, 54
1, 15389, Note_on_c, 0, 75, 57
1, 15401, Note_on_c, 0, 73, 58
1, 15422, Note_off_c, 0, 73, 64
1, 15437, Note_off_c, 0, 75, 58
1, 15482, Note_on_c, 0, 87, 62
1, 15571, Note_off_c, 0, 87, 47
1, 15583, Note_on_c, 0, 68, 54
1, 15583, Note_on_c, 0, 71, 53
1, 15602, Note_on_c, 0, 75, 65
1, 15607, Note_off_c, 0, 71, 62
1, 15616, Note_off_c, 0, 68, 66
1, 15619, Note_off_c, 0, 75, 66
1, 15693, Note_on_c, 0, 87, 65
1, 15795, Note_on_c, 0, 80, 58
1, 15821, Note_off_c, 0, 87, 30
1, 15826, Note_off_c, 0, 80, 63
1, 15889, Note_on_c, 0, 83, 66
1, 15914, Note_off_c, 0, 83, 68
1, 15999, Note_on_c, 0, 87, 71
1, 16025, Note_off_c, 0, 87, 67
1, 16088, Note_on_c, 0, 99, 69
1, 16103, Note_off_c, 0, 99, 69
1, 16133, Note_on_c, 0, 63, 35
1, 16171, Note_on_c, 0, 67, 32
1, 16216, Note_on_c, 0, 73, 66
1, 16217, Note_off_c, 0, 63, 0
1, 16217, Note_on_c, 0, 63, 12
1, 16218, Control_c, 0, 64, 8
1, 16226, Note_on_c, 0, 75, 63
1, 16242, Note_off_c, 0, 73, 67
1, 16243, Note_off_c, 0, 75, 64
1, 16248, Note_off_c, 0, 63, 55
1, 16248, Note_off_c, 0, 67, 53
1, 16309, Note_on_c, 0, 87, 64
1, 16346, Note_off_c, 0, 87, 55
1, 16352, Control_c, 0, 64, 0
1, 16421, Note_on_c, 0, 79, 62
1, 16445, Note_off_c, 0, 79, 65
1, 16516, Note_on_c, 0, 82, 61
1, 16544, Note_off_c, 0, 82, 67
1, 16645, Note_on_c, 0, 87, 61
1, 16674, Note_off_c, 0, 87, 64
1, 16737, Note_on_c, 0, 99, 61
1, 16753, Note_off_c, 0, 99, 67
1, 16834, Control_c, 0, 64, 28
1, 16849, Control_c, 0, 64, 52
1, 16853, Note_on_c, 0, 56, 35
1, 16863, Control_c, 0, 64, 63
1, 16878, Control_c, 0, 64, 66
1, 16888, Note_off_c, 0, 56, 51
1, 16893, Control_c, 0, 64, 68
1, 16908, Control_c, 0, 64, 69
1, 16923, Control_c, 0, 64, 72
1, 16937, Control_c, 0, 64, 74
1, 16946, Note_on_c, 0, 63, 51
1, 16952, Control_c, 0, 64, 77
1, 16967, Control_c, 0, 64, 81
1, 16982, Control_c, 0, 64, 84
1, 16991, Note_off_c, 0, 63, 57
1, 16996, Control_c, 0, 64, 84
1, 17056, Control_c, 0, 64, 85
1, 17058, Note_on_c, 0, 71, 65
1, 17071, Control_c, 0, 64, 86
1, 17082, Note_off_c, 0, 71, 65
1, 17154, Note_on_c, 0, 80, 58
1, 17173, Note_off_c, 0, 80, 64
1, 17263, Control_c, 0, 64, 86
1, 17264, Note_on_c, 0, 75, 68
1, 17291, Note_off_c, 0, 75, 68
1, 17330, Control_c, 0, 64, 86
1, 17345, Control_c, 0, 64, 85
1, 17360, Control_c, 0, 64, 84
1, 17362, Note_on_c, 0, 87, 71
1, 17375, Control_c, 0, 64, 83
1, 17388, Note_off_c, 0, 87, 67
1, 17389, Control_c, 0, 64, 80
1, 17404, Control_c, 0, 64, 77
1, 17419, Control_c, 0, 64, 74
1, 17434, Control_c, 0, 64, 70
1, 17449, Control_c, 0, 64, 67
1, 17463, Control_c, 0, 64, 63
1, 17477, Control_c, 0, 64, 57
1, 17490, Note_on_c, 0, 99, 74
1, 17492, Control_c, 0, 64, 52
1, 17507, Control_c, 0, 64, 48
1, 17509, Note_off_c, 0, 99, 64
1, 17521, Control_c, 0, 64, 45
1, 17536, Control_c, 0, 64, 43
1, 17551, Control_c, 0, 64, 42
1, 17566, Control_c, 0, 64, 40
1, 17581, Control_c, 0, 64, 38
1, 17595, Note_on_c, 0, 87, 64
1, 17597, Control_c, 0, 64, 36
1, 17611, Control_c, 0, 64, 34
1, 17624, Note_off_c, 0, 87, 66
1, 17626, Control_c, 0, 64, 33
1, 17685, Control_c, 0, 64, 33
1, 17699, Note_on_c, 0, 99, 67
1, 17732, Note_off_c, 0, 99, 58
1, 17806, Note_on_c, 0, 87, 58
1, 17831, Note_off_c, 0, 87, 64
1, 17898, Note_on_c, 0, 99, 72
1, 17930, Note_off_c, 0, 99, 60
1, 17997, Control_c, 0, 64, 32
1, 18001, Note_on_c, 0, 85, 58
1, 18011, Control_c, 0, 64, 30
1, 18020, Note_off_c, 0, 85, 64
1, 18026, Control_c, 0, 64, 21
1, 18041, Control_c, 0, 64, 0
1, 18108, Control_c, 0, 64, 32
1, 18123, Note_on_c, 0, 85, 60
1, 18123, Control_c, 0, 64, 52
1, 18137, Control_c, 0, 64, 62
1, 18148, Note_on_c, 0, 83, 60
1, 18150, Note_on_c, 0, 44, 43
1, 18152, Control_c, 0, 64, 65
1, 18167, Control_c, 0, 64, 66
1, 18174, Note_off_c, 0, 85, 58
1, 18182, Control_c, 0, 64, 68
1, 18186, Note_off_c, 0, 83, 62
1, 18188, Note_off_c, 0, 44, 62
1, 18197, Control_c, 0, 64, 71
1, 18211, Control_c, 0, 64, 74
1, 18226, Control_c, 0, 64, 77
1, 18241, Control_c, 0, 64, 79
1, 18256, Control_c, 0, 64, 80
1, 18299, Note_on_c, 0, 99, 56
1, 18315, Control_c, 0, 64, 79
1, 18317, Note_off_c, 0, 99, 63
1, 18330, Control_c, 0, 64, 77
1, 18344, Control_c, 0, 64, 73
1, 18359, Control_c, 0, 64, 69
1, 18374, Control_c, 0, 64, 64
1, 18390, Control_c, 0, 64, 59
1, 18395, Note_on_c, 0, 51, 50
1, 18399, Note_on_c, 0, 83, 69
1, 18403, Note_on_c, 0, 59, 41
1, 18405, Control_c, 0, 64, 54
1, 18420, Control_c, 0, 64, 51
1, 18423, Note_off_c, 0, 51, 62
1, 18424, Note_off_c, 0, 83, 69
1, 18430, Note_off_c, 0, 59, 54
1, 18434, Control_c, 0, 64, 49
1, 18449, Control_c, 0, 64, 46
1, 18464, Control_c, 0, 64, 43
1, 18479, Control_c, 0, 64, 40
1, 18494, Control_c, 0, 64, 38
1, 18496, Note_on_c, 0, 99, 71
1, 18508, Control_c, 0, 64, 38
1, 18522, Note_off_c, 0, 99, 66
1, 18523, Control_c, 0, 64, 37
1, 18538, Control_c, 0, 64, 36
1, 18553, Control_c, 0, 64, 34
1, 18567, Control_c, 0, 64, 31
1, 18582, Control_c, 0, 64, 27
1, 18597, Control_c, 0, 64, 22
1, 18607, Note_on_c, 0, 82, 59
1, 18612, Control_c, 0, 64, 16
1, 18627, Note_off_c, 0, 82, 63
1, 18627, Control_c, 0, 64, 9
1, 18642, Control_c, 0, 64, 0
1, 18687, Note_on_c, 0, 99, 66
1, 18712, Note_off_c, 0, 99, 68
1, 18760, Control_c, 0, 64, 29
1, 18775, Control_c, 0, 64, 48
1, 18790, Control_c, 0, 64, 59
1, 18793, Note_on_c, 0, 47, 52
1, 18812, Control_c, 0, 64, 63
1, 18814, Note_on_c, 0, 80, 67
1, 18814, Note_on_c, 0, 82, 64
1, 18827, Control_c, 0, 64, 65
1, 18834, Note_off_c, 0, 47, 63
1, 18838, Note_off_c, 0, 80, 68
1, 18838, Note_off_c, 0, 82, 68
1, 18841, Control_c, 0, 64, 66
1, 18856, Control_c, 0, 64, 68
1, 18871, Control_c, 0, 64, 70
1, 18886, Control_c, 0, 64, 73
1, 18901, Control_c, 0, 64, 74
1, 18916, Control_c, 0, 64, 75
1, 18943, Note_on_c, 0, 99, 65
1, 18958, Note_off_c, 0, 99, 67
1, 18976, Control_c, 0, 64, 75
1, 18990, Control_c, 0, 64, 73
1, 19005, Control_c, 0, 64, 70
1, 19020, Control_c, 0, 64, 66
1, 19035, Control_c, 0, 64, 61
1, 19048, Note_on_c, 0, 79, 74
1, 19050, Control_c, 0, 64, 55
1, 19051, Note_on_c, 0, 56, 45
1, 19051, Note_on_c, 0, 63, 40
1, 19065, Control_c, 0, 64, 49
1, 19070, Note_off_c, 0, 79, 69
1, 19077, Note_off_c, 0, 56, 56
1, 19080, Note_off_c, 0, 63, 49
1, 19080, Control_c, 0, 64, 45
1, 19094, Control_c, 0, 64, 44
1, 19109, Control_c, 0, 64, 42
1, 19124, Control_c, 0, 64, 40
1, 19139, Control_c, 0, 64, 37
1, 19146, Note_on_c, 0, 99, 74
1, 19153, Control_c, 0, 64, 34
1, 19161, Note_off_c, 0, 99, 66
1, 19168, Control_c, 0, 64, 30
1, 19184, Control_c, 0, 64, 30
1, 19229, Control_c, 0, 64, 29
1, 19244, Control_c, 0, 64, 27
1, 19258, Control_c, 0, 64, 24
1, 19259, Note_on_c, 0, 80, 61
1, 19273, Control_c, 0, 64, 22
1, 19277, Note_off_c, 0, 80, 62
1, 19288, Control_c, 0, 64, 22
1, 19318, Control_c, 0, 64, 21
1, 19332, Control_c, 0, 64, 19
1, 19343, Note_on_c, 0, 99, 79
1, 19347, Control_c, 0, 64, 13
1, 19362, Control_c, 0, 64, 0
1, 19367, Note_off_c, 0, 99, 67
1, 19460, Note_on_c, 0, 79, 71
1, 19465, Control_c, 0, 64, 32
1, 19466, Note_on_c, 0, 51, 54
1, 19480, Note_on_c, 0, 80, 67
1, 19480, Control_c, 0, 64, 52
1, 19483, Note_off_c, 0, 79, 68
1, 19494, Note_on_c, 0, 82, 59
1, 19495, Control_c, 0, 64, 62
1, 19503, Note_off_c, 0, 51, 63
1, 19506, Note_off_c, 0, 80, 64
1, 19509, Control_c, 0, 64, 65
1, 19524, Control_c, 0, 64, 66
1, 19539, Note_off_c, 0, 82, 64
1, 19539, Control_c, 0, 64, 68
1, 19562, Control_c, 0, 64, 71
1, 19577, Control_c, 0, 64, 75
1, 19591, Control_c, 0, 64, 78
1, 19606, Control_c, 0, 64, 79
1, 19621, Control_c, 0, 64, 80
1, 19647, Note_on_c, 0, 99, 57
1, 19648, Note_off_c, 0, 99, 127
1, 19695, Control_c, 0, 64, 79
1, 19709, Control_c, 0, 64, 77
1, 19724, Control_c, 0, 64, 73
1, 19726, Note_on_c, 0, 67, 51
1, 19730, Note_on_c, 0, 58, 53
1, 19739, Control_c, 0, 64, 69
1, 19745, Note_on_c, 0, 75, 72
1, 19750, Note_off_c, 0, 67, 59
1, 19754, Note_off_c, 0, 58, 58
1, 19754, Control_c, 0, 64, 64
1, 19761, Note_off_c, 0, 75, 68
1, 19769, Control_c, 0, 64, 57
1, 19783, Control_c, 0, 64, 50
1, 19798, Control_c, 0, 64, 44
1, 19813, Control_c, 0, 64, 42
1, 19843, Control_c, 0, 64, 41
1, 19857, Note_on_c, 0, 99, 61
1, 19858, Control_c, 0, 64, 41
1, 19873, Control_c, 0, 64, 39
1, 19875, Note_off_c, 0, 99, 64
1, 19888, Control_c, 0, 64, 38
1, 19903, Control_c, 0, 64, 37
1, 19962, Control_c, 0, 64, 37
1, 19965, Note_on_c, 0, 75, 69
1, 19982, Note_off_c, 0, 75, 65
1, 20061, Note_on_c, 0, 87, 43
1, 20084, Note_off_c, 0, 87, 56
1, 20148, Note_on_c, 0, 70, 55
1, 20152, Note_on_c, 0, 76, 64
1, 20153, Note_on_c, 0, 78, 64
1, 20156, Note_on_c, 0, 67, 48
1, 20171, Note_off_c, 0, 70, 62
1, 20177, Note_off_c, 0, 78, 67
1, 20179, Note_off_c, 0, 76, 68
1, 20180, Note_off_c, 0, 67, 58
1, 20244, Control_c, 0, 64, 37
1, 20278, Note_on_c, 0, 87, 59
1, 20296, Note_off_c, 0, 87, 64
1, 20378, Note_on_c, 0, 75, 66
1, 20379, Note_on_c, 0, 67, 48
1, 20396, Note_on_c, 0, 70, 36
1, 20400, Control_c, 0, 64, 37
1, 20403, Note_off_c, 0, 67, 60
1, 20405, Note_off_c, 0, 75, 65
1, 20427, Note_off_c, 0, 70, 49
1, 20471, Note_on_c, 0, 87, 57
1, 20472, Control_c, 0, 64, 36
1, 20493, Note_off_c, 0, 87, 62
1, 20517, Control_c, 0, 64, 37
1, 20573, Note_on_c, 0, 73, 67
1, 20591, Control_c, 0, 64, 37
1, 20598, Note_off_c, 0, 73, 69
1, 20673, Note_on_c, 0, 87, 58
1, 20691, Note_off_c, 0, 87, 63
1, 20738, Control_c, 0, 64, 37
1, 20771, Note_on_c, 0, 68, 66
1, 20777, Note_on_c, 0, 71, 68
1, 20779, Note_on_c, 0, 73, 69
1, 20798, Note_off_c, 0, 68, 68
1, 20803, Note_off_c, 0, 71, 68
1, 20804, Note_off_c, 0, 73, 68
1, 20814, Control_c, 0, 64, 36
1, 20898, Note_on_c, 0, 87, 79
1, 20919, Note_off_c, 0, 87, 69
1, 20998, Note_on_c, 0, 68, 65
1, 21005, Note_on_c, 0, 71, 69
1, 21023, Note_off_c, 0, 68, 69
1, 21029, Note_off_c, 0, 71, 68
1, 21108, Note_on_c, 0, 87, 74
1, 21131, Note_off_c, 0, 87, 69
1, 21161, Control_c, 0, 64, 37
1, 21214, Note_on_c, 0, 70, 67
1, 21242, Note_off_c, 0, 70, 66
1, 21295, Control_c, 0, 64, 36
1, 21311, Note_on_c, 0, 87, 62
1, 21336, Note_off_c, 0, 87, 64
1, 21412, Note_on_c, 0, 59, 53
1, 21417, Note_on_c, 0, 65, 45
1, 21421, Note_on_c, 0, 62, 40
1, 21425, Note_on_c, 0, 70, 67
1, 21426, Note_on_c, 0, 68, 67
1, 21428, Control_c, 0, 64, 37
1, 21436, Note_off_c, 0, 59, 64
1, 21441, Note_off_c, 0, 65, 55
1, 21450, Note_off_c, 0, 62, 45
1, 21452, Note_off_c, 0, 70, 66
1, 21453, Note_off_c, 0, 68, 67
1, 21549, Note_on_c, 0, 87, 73
1, 21575, Note_off_c, 0, 87, 65
1, 21592, Control_c, 0, 64, 36
1, 21607, Control_c, 0, 64, 36
1, 21651, Control_c, 0, 64, 35
1, 21657, Note_on_c, 0, 65, 34
1, 21659, Note_on_c, 0, 67, 65
1, 21666, Control_c, 0, 64, 34
1, 21667, Note_on_c, 0, 59, 32
1, 21677, Note_off_c, 0, 67, 65
1, 21681, Control_c, 0, 64, 33
1, 21690, Note_off_c, 0, 65, 42
1, 21695, Control_c, 0, 64, 32
1, 21699, Note_off_c, 0, 59, 42
1, 21773, Note_on_c, 0, 87, 47
1, 21795, Note_off_c, 0, 87, 58
1, 21885, Note_on_c, 0, 68, 56
1, 21905, Note_off_c, 0, 68, 60
1, 21910, Control_c, 0, 64, 31
1, 21925, Control_c, 0, 64, 27
1, 21940, Control_c, 0, 64, 14
1, 21955, Control_c, 0, 64, 0
1, 21978, Note_on_c, 0, 51, 46
1, 21985, Control_c, 0, 64, 8
1, 21998, Note_on_c, 0, 87, 40
1, 22000, Control_c, 0, 64, 40
1, 22015, Control_c, 0, 64, 57
1, 22025, Note_off_c, 0, 87, 50
1, 22028, Note_off_c, 0, 51, 60
1, 22030, Control_c, 0, 64, 63
1, 22045, Control_c, 0, 64, 64
1, 22059, Control_c, 0, 64, 65
1, 22074, Control_c, 0, 64, 67
1, 22089, Control_c, 0, 64, 71
1, 22103, Control_c, 0, 64, 76
1, 22118, Control_c, 0, 64, 81
1, 22133, Control_c, 0, 64, 84
1, 22144, Note_on_c, 0, 70, 57
1, 22148, Control_c, 0, 64, 85
1, 22157, Note_on_c, 0, 67, 56
1, 22163, Control_c, 0, 64, 86
1, 22165, Note_off_c, 0, 70, 59
1, 22177, Control_c, 0, 64, 87
1, 22180, Note_off_c, 0, 67, 62
1, 22192, Control_c, 0, 64, 88
1, 22207, Control_c, 0, 64, 88
1, 22222, Control_c, 0, 64, 90
1, 22237, Control_c, 0, 64, 92
1, 22252, Control_c, 0, 64, 92
1, 22300, Note_on_c, 0, 87, 56
1, 22318, Note_off_c, 0, 87, 63
1, 22451, Note_on_c, 0, 63, 46
1, 22478, Note_off_c, 0, 63, 55
1, 22560, Note_on_c, 0, 75, 62
1, 22571, Control_c, 0, 64, 92
1, 22596, Note_off_c, 0, 75, 63
1, 22681, Note_on_c, 0, 75, 66
1, 22709, Note_off_c, 0, 75, 66
1, 22755, Note_on_c, 0, 87, 75
1, 22779, Control_c, 0, 64, 91
1, 22783, Note_off_c, 0, 87, 63
1, 22838, Control_c, 0, 64, 90
1, 22885, Note_on_c, 0, 87, 75
1, 22919, Note_off_c, 0, 87, 61
1, 22956, Control_c, 0, 64, 90
1, 22986, Note_on_c, 0, 99, 64
1, 22986, Control_c, 0, 64, 89
1, 23000, Control_c, 0, 64, 86
1, 23015, Control_c, 0, 64, 80
1, 23029, Note_off_c, 0, 99, 58
1, 23030, Control_c, 0, 64, 74
1, 23045, Control_c, 0, 64, 67
1, 23059, Control_c, 0, 64, 60
1, 23074, Control_c, 0, 64, 52
1, 23086, Note_on_c, 0, 87, 65
1, 23089, Control_c, 0, 64, 44
1, 23104, Control_c, 0, 64, 42
1, 23116, Note_off_c, 0, 87, 64
1, 23119, Control_c, 0, 64, 42
1, 23134, Control_c, 0, 64, 41
1, 23149, Control_c, 0, 64, 39
1, 23164, Control_c, 0, 64, 34
1, 23179, Control_c, 0, 64, 28
1, 23188, Note_on_c, 0, 99, 67
1, 23194, Control_c, 0, 64, 25
1, 23224, Note_off_c, 0, 99, 59
1, 23288, Note_on_c, 0, 85, 64
1, 23320, Control_c, 0, 64, 25
1, 23321, Note_off_c, 0, 85, 68
1, 23335, Control_c, 0, 64, 24
1, 23350, Control_c, 0, 64, 21
1, 23364, Control_c, 0, 64, 18
1, 23378, Note_on_c, 0, 99, 72
1, 23379, Control_c, 0, 64, 8
1, 23394, Control_c, 0, 64, 0
1, 23400, Note_off_c, 0, 99, 71
1, 23468, Control_c, 0, 64, 34
1, 23483, Control_c, 0, 64, 53
1, 23498, Control_c, 0, 64, 63
1, 23500, Note_on_c, 0, 83, 65
1, 23504, Note_on_c, 0, 85, 64
1, 23505, Note_on_c, 0, 44, 49
1, 23512, Control_c, 0, 64, 66
1, 23526, Note_off_c, 0, 83, 68
1, 23527, Control_c, 0, 64, 67
1, 23530, Note_off_c, 0, 85, 68
1, 23539, Note_off_c, 0, 44, 62
1, 23542, Control_c, 0, 64, 70
1, 23557, Control_c, 0, 64, 72
1, 23572, Control_c, 0, 64, 75
1, 23587, Control_c, 0, 64, 77
1, 23602, Control_c, 0, 64, 78
1, 23617, Control_c, 0, 64, 79
1, 23631, Control_c, 0, 64, 80
1, 23632, Note_on_c, 0, 99, 68
1, 23646, Control_c, 0, 64, 80
1, 23657, Note_off_c, 0, 99, 67
1, 23675, Control_c, 0, 64, 79
1, 23690, Control_c, 0, 64, 77
1, 23705, Control_c, 0, 64, 74
1, 23720, Control_c, 0, 64, 70
1, 23735, Control_c, 0, 64, 65
1, 23737, Note_on_c, 0, 51, 52
1, 23740, Note_on_c, 0, 59, 48
1, 23743, Note_on_c, 0, 83, 70
1, 23749, Control_c, 0, 64, 59
1, 23763, Note_off_c, 0, 51, 61
1, 23764, Control_c, 0, 64, 51
1, 23765, Note_off_c, 0, 59, 56
1, 23769, Note_off_c, 0, 83, 66
1, 23779, Control_c, 0, 64, 44
1, 23793, Control_c, 0, 64, 39
1, 23808, Control_c, 0, 64, 37
1, 23823, Control_c, 0, 64, 35
1, 23834, Note_on_c, 0, 99, 73
1, 23838, Control_c, 0, 64, 32
1, 23853, Control_c, 0, 64, 28
1, 23860, Note_off_c, 0, 99, 67
1, 23868, Control_c, 0, 64, 23
1, 23882, Control_c, 0, 64, 21
1, 23942, Control_c, 0, 64, 20
1, 23946, Note_on_c, 0, 82, 67
1, 23957, Control_c, 0, 64, 16
1, 23972, Note_off_c, 0, 82, 69
1, 23972, Control_c, 0, 64, 10
1, 23987, Control_c, 0, 64, 0
1, 24030, Note_on_c, 0, 99, 81
1, 24062, Note_off_c, 0, 99, 67
1, 24143, Control_c, 0, 64, 34
1, 24152, Note_on_c, 0, 47, 55
1, 24158, Control_c, 0, 64, 52
1, 24168, Note_on_c, 0, 82, 63
1, 24168, Note_on_c, 0, 80, 69
1, 24173, Control_c, 0, 64, 61
1, 24185, Note_off_c, 0, 47, 63
1, 24187, Control_c, 0, 64, 64
1, 24191, Note_off_c, 0, 80, 68
1, 24194, Note_off_c, 0, 82, 68
1, 24202, Control_c, 0, 64, 66
1, 24216, Control_c, 0, 64, 67
1, 24231, Control_c, 0, 64, 69
1, 24246, Control_c, 0, 64, 71
1, 24261, Control_c, 0, 64, 74
1, 24276, Control_c, 0, 64, 75
1, 24288, Note_on_c, 0, 99, 74
1, 24307, Note_off_c, 0, 99, 66
1, 24320, Control_c, 0, 64, 75
1, 24335, Control_c, 0, 64, 74
1, 24350, Control_c, 0, 64, 72
1, 24365, Control_c, 0, 64, 69
1, 24379, Control_c, 0, 64, 65
1, 24386, Note_on_c, 0, 63, 46
1, 24394, Control_c, 0, 64, 59
1, 24397, Note_on_c, 0, 79, 74
1, 24398, Note_on_c, 0, 56, 42
1, 24409, Control_c, 0, 64, 51
1, 24412, Note_off_c, 0, 63, 56
1, 24419, Note_off_c, 0, 79, 69
1, 24423, Control_c, 0, 64, 45
1, 24424, Note_off_c, 0, 56, 53
1, 24438, Control_c, 0, 64, 42
1, 24453, Control_c, 0, 64, 42
1, 24483, Control_c, 0, 64, 40
1, 24492, Note_on_c, 0, 99, 81
1, 24497, Control_c, 0, 64, 37
1, 24511, Note_off_c, 0, 99, 69
1, 24512, Control_c, 0, 64, 34
1, 24527, Control_c, 0, 64, 33
1, 24601, Control_c, 0, 64, 32
1, 24615, Note_on_c, 0, 80, 53
1, 24616, Control_c, 0, 64, 31
1, 24631, Control_c, 0, 64, 30
1, 24637, Note_off_c, 0, 80, 39
1, 24646, Control_c, 0, 64, 28
1, 24661, Control_c, 0, 64, 25
1, 24676, Control_c, 0, 64, 20
1, 24690, Control_c, 0, 64, 0
1, 24694, Note_on_c, 0, 99, 73
1, 24718, Note_off_c, 0, 99, 67
1, 24803, Control_c, 0, 64, 21
1, 24812, Note_on_c, 0, 79, 71
1, 24818, Control_c, 0, 64, 48
1, 24833, Control_c, 0, 64, 59
1, 24837, Note_on_c, 0, 51, 50
1, 24842, Note_off_c, 0, 79, 61
1, 24845, Note_on_c, 0, 80, 62
1, 24848, Note_on_c, 0, 82, 58
1, 24848, Control_c, 0, 64, 63
1, 24862, Control_c, 0, 64, 64
1, 24872, Note_off_c, 0, 80, 67
1, 24874, Note_off_c, 0, 51, 64
1, 24877, Control_c, 0, 64, 65
1, 24892, Note_off_c, 0, 82, 65
1, 24892, Control_c, 0, 64, 66
1, 24907, Control_c, 0, 64, 68
1, 24922, Control_c, 0, 64, 71
1, 24936, Control_c, 0, 64, 73
1, 24951, Control_c, 0, 64, 75
1, 24983, Note_on_c, 0, 99, 68
1, 25000, Note_off_c, 0, 99, 64
1, 25085, Note_on_c, 0, 67, 52
1, 25086, Note_on_c, 0, 58, 57
1, 25090, Note_on_c, 0, 75, 73
1, 25106, Note_off_c, 0, 75, 68
1, 25108, Note_off_c, 0, 58, 61
1, 25109, Note_off_c, 0, 67, 58
1, 25114, Control_c, 0, 64, 74
1, 25128, Control_c, 0, 64, 73
1, 25143, Control_c, 0, 64, 72
1, 25158, Control_c, 0, 64, 71
1, 25173, Control_c, 0, 64, 70
1, 25188, Control_c, 0, 64, 68
1, 25194, Note_on_c, 0, 99, 75
1, 25203, Control_c, 0, 64, 66
1, 25208, Note_off_c, 0, 99, 70
1, 25218, Control_c, 0, 64, 64
1, 25232, Control_c, 0, 64, 62
1, 25247, Control_c, 0, 64, 61
1, 25262, Control_c, 0, 64, 58
1, 25277, Control_c, 0, 64, 53
1, 25292, Control_c, 0, 64, 48
1, 25307, Control_c, 0, 64, 41
1, 25315, Note_on_c, 0, 75, 66
1, 25321, Control_c, 0, 64, 37
1, 25331, Note_off_c, 0, 75, 66
1, 25336, Control_c, 0, 64, 36
1, 25393, Note_on_c, 0, 87, 65
1, 25420, Note_off_c, 0, 87, 67
1, 25425, Control_c, 0, 64, 37
1, 25484, Note_on_c, 0, 61, 56
1, 25495, Note_on_c, 0, 78, 72
1, 25497, Note_on_c, 0, 76, 66
1, 25512, Note_on_c, 0, 68, 26
1, 25518, Note_on_c, 0, 70, 10
1, 25519, Note_off_c, 0, 78, 67
1, 25520, Note_off_c, 0, 61, 64
1, 25522, Note_off_c, 0, 76, 68
1, 25554, Note_off_c, 0, 68, 43
1, 25575, Note_off_c, 0, 70, 27
1, 25596, Control_c, 0, 64, 37
1, 25611, Control_c, 0, 64, 38
1, 25626, Control_c, 0, 64, 41
1, 25629, Note_on_c, 0, 92, 66
1, 25641, Control_c, 0, 64, 43
1, 25645, Note_off_c, 0, 92, 64
1, 25656, Control_c, 0, 64, 43
1, 25738, Note_on_c, 0, 75, 69
1, 25748, Note_on_c, 0, 63, 48
1, 25756, Note_on_c, 0, 70, 31
1, 25763, Note_on_c, 0, 68, 18
1, 25763, Note_off_c, 0, 75, 65
1, 25777, Note_off_c, 0, 63, 61
1, 25790, Note_off_c, 0, 70, 45
1, 25793, Note_off_c, 0, 68, 44
1, 25844, Note_on_c, 0, 92, 61
1, 25864, Control_c, 0, 64, 44
1, 25865, Note_off_c, 0, 92, 63
1, 25878, Control_c, 0, 64, 44
1, 25893, Control_c, 0, 64, 45
1, 25908, Control_c, 0, 64, 46
1, 25943, Note_on_c, 0, 70, 38
1, 25947, Note_on_c, 0, 64, 48
1, 25951, Note_on_c, 0, 73, 68
1, 25951, Note_on_c, 0, 68, 44
1, 25969, Note_off_c, 0, 73, 68
1, 25974, Note_off_c, 0, 64, 58
1, 25975, Note_off_c, 0, 70, 50
1, 25977, Note_off_c, 0, 68, 57
1, 25982, Control_c, 0, 64, 46
1, 25996, Control_c, 0, 64, 45
1, 26011, Control_c, 0, 64, 45
1, 26026, Control_c, 0, 64, 44
1, 26041, Control_c, 0, 64, 44
1, 26055, Note_on_c, 0, 92, 61
1, 26056, Control_c, 0, 64, 43
1, 26070, Control_c, 0, 64, 40
1, 26071, Note_off_c, 0, 92, 65
1, 26085, Control_c, 0, 64, 35
1, 26100, Control_c, 0, 64, 25
1, 26115, Control_c, 0, 64, 8
1, 26130, Control_c, 0, 64, 0
1, 26145, Control_c, 0, 64, 17
1, 26159, Control_c, 0, 64, 35
1, 26162, Note_on_c, 0, 71, 47
1, 26174, Control_c, 0, 64, 51
1, 26179, Note_on_c, 0, 63, 35
1, 26180, Note_on_c, 0, 75, 59
1, 26189, Control_c, 0, 64, 59
1, 26194, Note_on_c, 0, 68, 29
1, 26199, Note_off_c, 0, 75, 63
1, 26204, Control_c, 0, 64, 62
1, 26219, Control_c, 0, 64, 63
1, 26234, Control_c, 0, 64, 64
1, 26247, Note_off_c, 0, 68, 56
1, 26249, Control_c, 0, 64, 66
1, 26253, Note_off_c, 0, 71, 44
1, 26259, Note_off_c, 0, 63, 60
1, 26264, Control_c, 0, 64, 68
1, 26273, Note_on_c, 0, 87, 57
1, 26278, Control_c, 0, 64, 71
1, 26300, Control_c, 0, 64, 73
1, 26315, Control_c, 0, 64, 74
1, 26390, Control_c, 0, 64, 74
1, 26394, Note_on_c, 0, 80, 56
1, 26398, Note_off_c, 0, 87, 27
1, 26405, Control_c, 0, 64, 73
1, 26418, Note_off_c, 0, 80, 62
1, 26419, Control_c, 0, 64, 70
1, 26434, Control_c, 0, 64, 65
1, 26449, Control_c, 0, 64, 59
1, 26464, Control_c, 0, 64, 52
1, 26479, Control_c, 0, 64, 47
1, 26494, Control_c, 0, 64, 45
1, 26496, Note_on_c, 0, 83, 61
1, 26508, Control_c, 0, 64, 43
1, 26523, Control_c, 0, 64, 40
1, 26526, Note_off_c, 0, 83, 67
1, 26538, Control_c, 0, 64, 33
1, 26553, Control_c, 0, 64, 20
1, 26568, Control_c, 0, 64, 0
1, 26621, Note_on_c, 0, 87, 66
1, 26649, Note_off_c, 0, 87, 66
1, 26701, Control_c, 0, 64, 13
1, 26716, Control_c, 0, 64, 25
1, 26731, Control_c, 0, 64, 38
1, 26745, Control_c, 0, 64, 50
1, 26750, Note_on_c, 0, 51, 45
1, 26756, Note_on_c, 0, 99, 57
1, 26760, Control_c, 0, 64, 58
1, 26775, Note_off_c, 0, 99, 63
1, 26775, Control_c, 0, 64, 61
1, 26790, Control_c, 0, 64, 62
1, 26803, Note_off_c, 0, 51, 61
1, 26805, Control_c, 0, 64, 64
1, 26819, Control_c, 0, 64, 66
1, 26834, Control_c, 0, 64, 68
1, 26841, Note_on_c, 0, 61, 38
1, 26849, Control_c, 0, 64, 72
1, 26864, Control_c, 0, 64, 75
1, 26879, Control_c, 0, 64, 79
1, 26893, Control_c, 0, 64, 81
1, 26908, Control_c, 0, 64, 82
1, 26923, Control_c, 0, 64, 83
1, 26938, Control_c, 0, 64, 84
1, 26948, Note_on_c, 0, 67, 44
1, 26951, Note_on_c, 0, 75, 45
1, 26967, Control_c, 0, 64, 84
1, 26975, Note_off_c, 0, 75, 58
1, 26979, Note_off_c, 0, 67, 53
1, 27049, Note_off_c, 0, 61, 35
1, 27069, Note_on_c, 0, 87, 53
1, 27119, Note_off_c, 0, 87, 55
1, 27152, Control_c, 0, 64, 84
1, 27167, Control_c, 0, 64, 82
1, 27184, Control_c, 0, 64, 81
1, 27198, Control_c, 0, 64, 80
1, 27205, Note_on_c, 0, 79, 51
1, 27213, Control_c, 0, 64, 78
1, 27227, Note_off_c, 0, 79, 57
1, 27228, Control_c, 0, 64, 76
1, 27243, Control_c, 0, 64, 72
1, 27257, Control_c, 0, 64, 67
1, 27272, Control_c, 0, 64, 62
1, 27287, Control_c, 0, 64, 55
1, 27302, Control_c, 0, 64, 50
1, 27316, Control_c, 0, 64, 45
1, 27331, Control_c, 0, 64, 42
1, 27339, Note_on_c, 0, 82, 48
1, 27346, Control_c, 0, 64, 40
1, 27361, Note_off_c, 0, 82, 61
1, 27361, Control_c, 0, 64, 38
1, 27376, Control_c, 0, 64, 34
1, 27391, Control_c, 0, 64, 28
1, 27406, Control_c, 0, 64, 22
1, 27420, Control_c, 0, 64, 18
1, 27492, Note_on_c, 0, 87, 53
1, 27495, Control_c, 0, 64, 17
1, 27517, Note_off_c, 0, 87, 61
1, 27642, Control_c, 0, 64, 17
1, 27657, Control_c, 0, 64, 15
1, 27672, Control_c, 0, 64, 14
1, 27673, Note_on_c, 0, 99, 54
1, 27687, Control_c, 0, 64, 12
1, 27695, Note_off_c, 0, 99, 59
1, 27702, Control_c, 0, 64, 11
1, 27731, Control_c, 0, 64, 13
1, 27746, Control_c, 0, 64, 20
1, 27761, Control_c, 0, 64, 32
1, 27775, Control_c, 0, 64, 49
1, 27798, Control_c, 0, 64, 58
1, 27813, Control_c, 0, 64, 62
1, 27828, Control_c, 0, 64, 63
1, 27843, Control_c, 0, 64, 65
1, 27846, Note_on_c, 0, 44, 45
1, 27857, Control_c, 0, 64, 68
1, 27872, Control_c, 0, 64, 72
1, 27887, Control_c, 0, 64, 77
1, 27889, Note_off_c, 0, 44, 60
1, 27902, Control_c, 0, 64, 82
1, 27917, Control_c, 0, 64, 86
1, 27931, Control_c, 0, 64, 89
1, 27946, Control_c, 0, 64, 91
1, 27960, Control_c, 0, 64, 92
1, 27976, Control_c, 0, 64, 93
1, 28015, Note_on_c, 0, 59, 56
1, 28038, Note_off_c, 0, 59, 62
1, 28124, Control_c, 0, 64, 92
1, 28142, Note_on_c, 0, 63, 50
1, 28166, Note_off_c, 0, 63, 55
1, 28246, Note_on_c, 0, 68, 61
1, 28258, Control_c, 0, 64, 92
1, 28272, Control_c, 0, 64, 91
1, 28275, Note_off_c, 0, 68, 66
1, 28364, Note_on_c, 0, 75, 59
1, 28386, Note_off_c, 0, 75, 65
1, 28450, Control_c, 0, 64, 92
1, 28468, Note_on_c, 0, 80, 64
1, 28496, Note_off_c, 0, 80, 65
1, 28576, Control_c, 0, 64, 90
1, 28591, Control_c, 0, 64, 85
1, 28595, Note_on_c, 0, 83, 68
1, 28605, Control_c, 0, 64, 79
1, 28620, Control_c, 0, 64, 71
1, 28622, Note_off_c, 0, 83, 65
1, 28635, Control_c, 0, 64, 63
1, 28650, Control_c, 0, 64, 51
1, 28665, Control_c, 0, 64, 38
1, 28679, Control_c, 0, 64, 31
1, 28694, Control_c, 0, 64, 29
1, 28724, Control_c, 0, 64, 28
1, 28738, Note_on_c, 0, 87, 62
1, 28739, Control_c, 0, 64, 25
1, 28754, Control_c, 0, 64, 22
1, 28767, Note_off_c, 0, 87, 67
1, 28770, Control_c, 0, 64, 21
1, 28800, Control_c, 0, 64, 21
1, 28889, Control_c, 0, 64, 21
1, 28903, Control_c, 0, 64, 22
1, 28918, Control_c, 0, 64, 24
1, 28933, Control_c, 0, 64, 26
1, 28944, Note_on_c, 0, 92, 60
1, 28947, Control_c, 0, 64, 26
1, 28970, Note_off_c, 0, 92, 67
1, 29007, Control_c, 0, 64, 27
1, 29021, Control_c, 0, 64, 28
1, 29036, Control_c, 0, 64, 29
1, 29066, Control_c, 0, 64, 28
1, 29140, Control_c, 0, 64, 28
1, 29155, Control_c, 0, 64, 27
1, 29170, Control_c, 0, 64, 27
1, 29185, Control_c, 0, 64, 26
1, 29370, Note_on_c, 0, 71, 40
1, 29399, Note_off_c, 0, 71, 53
1, 29573, Note_on_c, 0, 67, 51
1, 29579, Note_on_c, 0, 70, 54
1, 29596, Note_off_c, 0, 67, 62
1, 29616, Note_off_c, 0, 70, 64
1, 29719, Note_on_c, 0, 71, 62
1, 29748, Note_off_c, 0, 71, 67
1, 29842, Note_on_c, 0, 69, 65
1, 29845, Note_on_c, 0, 66, 57
1, 29868, Note_off_c, 0, 69, 66
1, 29871, Note_off_c, 0, 66, 65
1, 29958, Note_on_c, 0, 71, 71
1, 29985, Note_off_c, 0, 71, 68
1, 30116, Note_on_c, 0, 65, 51
1, 30118, Control_c, 0, 64, 26
1, 30121, Note_on_c, 0, 68, 53
1, 30138, Note_off_c, 0, 65, 62
1, 30142, Note_off_c, 0, 68, 63
1, 30222, Control_c, 0, 64, 25
1, 30237, Control_c, 0, 64, 24
1, 30252, Control_c, 0, 64, 24
1, 30276, Note_on_c, 0, 71, 55
1, 30305, Note_off_c, 0, 71, 67
1, 30311, Control_c, 0, 64, 23
1, 30326, Control_c, 0, 64, 23
1, 30401, Control_c, 0, 64, 22
1, 30478, Note_on_c, 0, 64, 49
1, 30479, Note_on_c, 0, 67, 53
1, 30504, Note_off_c, 0, 64, 55
1, 30505, Control_c, 0, 64, 22
1, 30509, Note_off_c, 0, 67, 66
1, 30653, Control_c, 0, 64, 22
1, 30667, Note_on_c, 0, 73, 54
1, 30738, Note_on_c, 0, 71, 50
1, 30765, Note_off_c, 0, 73, 35
1, 30777, Note_off_c, 0, 71, 66
1, 30793, Control_c, 0, 64, 23
1, 30796, Note_on_c, 0, 70, 62
1, 30850, Note_off_c, 0, 70, 59
1, 30862, Note_on_c, 0, 71, 59
1, 30890, Note_off_c, 0, 71, 67
1, 30897, Control_c, 0, 64, 24
1, 30912, Control_c, 0, 64, 24
1, 30914, Note_on_c, 0, 59, 38
1, 30923, Note_on_c, 0, 63, 33
1, 30926, Note_on_c, 0, 66, 63
1, 30938, Note_off_c, 0, 59, 49
1, 30945, Note_off_c, 0, 66, 63
1, 30954, Note_off_c, 0, 63, 44
1, 30971, Control_c, 0, 64, 26
1, 30986, Control_c, 0, 64, 27
1, 31055, Note_on_c, 0, 90, 71
1, 31078, Note_off_c, 0, 90, 70
1, 31105, Control_c, 0, 64, 27
1, 31186, Note_on_c, 0, 71, 68
1, 31191, Note_on_c, 0, 54, 48
1, 31206, Note_on_c, 0, 66, 27
1, 31211, Note_off_c, 0, 71, 67
1, 31218, Note_off_c, 0, 54, 60
1, 31224, Control_c, 0, 64, 27
1, 31229, Note_off_c, 0, 66, 46
1, 31284, Control_c, 0, 64, 28
1, 31301, Note_on_c, 0, 90, 60
1, 31319, Note_off_c, 0, 90, 65
1, 31357, Control_c, 0, 64, 27
1, 31434, Note_on_c, 0, 75, 57
1, 31489, Note_on_c, 0, 73, 56
1, 31490, Control_c, 0, 64, 28
1, 31491, Note_off_c, 0, 75, 58
1, 31505, Control_c, 0, 64, 28
1, 31520, Control_c, 0, 64, 29
1, 31525, Note_off_c, 0, 73, 65
1, 31546, Note_on_c, 0, 72, 67
1, 31602, Note_off_c, 0, 72, 62
1, 31603, Note_on_c, 0, 73, 67
1, 31631, Note_off_c, 0, 73, 66
1, 31631, Control_c, 0, 64, 30
1, 31656, Note_on_c, 0, 58, 56
1, 31661, Note_on_c, 0, 64, 49
1, 31661, Control_c, 0, 64, 31
1, 31665, Note_on_c, 0, 66, 70
1, 31675, Control_c, 0, 64, 34
1, 31683, Note_off_c, 0, 66, 67
1, 31684, Note_off_c, 0, 64, 58
1, 31688, Note_off_c, 0, 58, 65
1, 31690, Control_c, 0, 64, 36
1, 31705, Control_c, 0, 64, 36
1, 31720, Control_c, 0, 64, 36
1, 31749, Control_c, 0, 64, 36
1, 31764, Control_c, 0, 64, 37
1, 31789, Note_on_c, 0, 90, 66
1, 31805, Note_off_c, 0, 90, 68
1, 31809, Control_c, 0, 64, 36
1, 31823, Control_c, 0, 64, 36
1, 31853, Control_c, 0, 64, 36
1, 31898, Note_on_c, 0, 54, 59
1, 31901, Note_on_c, 0, 73, 72
1, 31903, Note_on_c, 0, 66, 48
1, 31923, Note_off_c, 0, 73, 70
1, 31928, Control_c, 0, 64, 37
1, 31929, Note_off_c, 0, 66, 50
1, 31931, Note_off_c, 0, 54, 66
1, 31942, Control_c, 0, 64, 38
1, 31957, Control_c, 0, 64, 38
1, 31987, Control_c, 0, 64, 38
1, 32005, Note_on_c, 0, 90, 67
1, 32027, Note_off_c, 0, 90, 64
1, 32077, Control_c, 0, 64, 37
1, 32091, Control_c, 0, 64, 36
1, 32106, Control_c, 0, 64, 35
1, 32142, Note_on_c, 0, 76, 66
1, 32151, Control_c, 0, 64, 35
1, 32165, Control_c, 0, 64, 34
1, 32189, Note_on_c, 0, 75, 67
1, 32195, Control_c, 0, 64, 34
1, 32198, Note_off_c, 0, 76, 61
1, 32210, Control_c, 0, 64, 35
1, 32225, Control_c, 0, 64, 35
1, 32226, Note_off_c, 0, 75, 64
1, 32235, Note_on_c, 0, 74, 69
1, 32269, Control_c, 0, 64, 36
1, 32291, Control_c, 0, 64, 37
1, 32292, Note_on_c, 0, 75, 70
1, 32297, Note_off_c, 0, 74, 66
1, 32306, Control_c, 0, 64, 38
1, 32330, Note_on_c, 0, 59, 52
1, 32342, Note_off_c, 0, 75, 65
1, 32348, Note_on_c, 0, 63, 38
1, 32351, Note_on_c, 0, 71, 74
1, 32367, Note_off_c, 0, 59, 64
1, 32373, Note_off_c, 0, 71, 70
1, 32375, Note_off_c, 0, 63, 46
1, 32380, Control_c, 0, 64, 38
1, 32425, Control_c, 0, 64, 38
1, 32473, Note_on_c, 0, 90, 81
1, 32492, Note_off_c, 0, 90, 70
1, 32513, Control_c, 0, 64, 37
1, 32528, Control_c, 0, 64, 37
1, 32543, Control_c, 0, 64, 36
1, 32558, Control_c, 0, 64, 35
1, 32572, Control_c, 0, 64, 34
1, 32587, Control_c, 0, 64, 31
1, 32602, Control_c, 0, 64, 28
1, 32616, Note_on_c, 0, 75, 81
1, 32617, Control_c, 0, 64, 25
1, 32632, Control_c, 0, 64, 24
1, 32637, Note_off_c, 0, 75, 68
1, 32646, Control_c, 0, 64, 23
1, 32661, Control_c, 0, 64, 22
1, 32735, Control_c, 0, 64, 22
1, 32742, Note_on_c, 0, 74, 66
1, 32748, Note_on_c, 0, 71, 57
1, 32750, Control_c, 0, 64, 23
1, 32766, Control_c, 0, 64, 24
1, 32769, Note_off_c, 0, 74, 64
1, 32774, Note_off_c, 0, 71, 65
1, 32780, Control_c, 0, 64, 24
1, 32865, Note_on_c, 0, 75, 73
1, 32888, Note_off_c, 0, 75, 69
1, 32973, Note_on_c, 0, 73, 64
1, 32988, Note_on_c, 0, 70, 56
1, 33014, Note_off_c, 0, 70, 63
1, 33022, Note_off_c, 0, 73, 64
1, 33127, Note_on_c, 0, 75, 62
1, 33129, Control_c, 0, 64, 24
1, 33144, Control_c, 0, 64, 23
1, 33150, Note_off_c, 0, 75, 59
1, 33159, Control_c, 0, 64, 23
1, 33188, Control_c, 0, 64, 22
1, 33203, Control_c, 0, 64, 22
1, 33277, Control_c, 0, 64, 21
1, 33297, Note_on_c, 0, 72, 51
1, 33318, Note_on_c, 0, 69, 15
1, 33318, Note_off_c, 0, 72, 60
1, 33361, Note_off_c, 0, 69, 28
1, 33481, Note_on_c, 0, 75, 66
1, 33508, Note_off_c, 0, 75, 67
1, 33662, Control_c, 0, 64, 22
1, 33687, Note_on_c, 0, 68, 51
1, 33692, Control_c, 0, 64, 22
1, 33697, Note_on_c, 0, 71, 46
1, 33710, Note_off_c, 0, 68, 61
1, 33727, Note_off_c, 0, 71, 66
1, 33862, Control_c, 0, 64, 23
1, 33897, Note_on_c, 0, 77, 53
1, 33946, Note_off_c, 0, 77, 59
1, 33958, Note_on_c, 0, 75, 58
1, 33989, Note_off_c, 0, 75, 66
1, 34014, Note_on_c, 0, 74, 65
1, 34066, Note_off_c, 0, 74, 63
1, 34077, Note_on_c, 0, 75, 67
1, 34099, Note_off_c, 0, 75, 65
1, 34115, Control_c, 0, 64, 24
1, 34124, Note_on_c, 0, 63, 43
1, 34130, Control_c, 0, 64, 24
1, 34132, Note_on_c, 0, 66, 29
1, 34139, Note_on_c, 0, 70, 71
1, 34151, Note_off_c, 0, 63, 54
1, 34157, Note_off_c, 0, 66, 46
1, 34166, Note_off_c, 0, 70, 64
1, 34233, Control_c, 0, 64, 25
1, 34287, Note_on_c, 0, 94, 56
1, 34306, Note_off_c, 0, 94, 64
1, 34382, Control_c, 0, 64, 25
1, 34397, Control_c, 0, 64, 26
1, 34411, Note_on_c, 0, 75, 75
1, 34412, Control_c, 0, 64, 27
1, 34417, Note_on_c, 0, 58, 53
1, 34429, Note_on_c, 0, 70, 44
1, 34432, Note_off_c, 0, 75, 71
1, 34441, Note_on_c, 0, 66, 21
1, 34450, Note_off_c, 0, 58, 65
1, 34456, Note_off_c, 0, 70, 52
1, 34463, Note_off_c, 0, 66, 45
1, 34471, Control_c, 0, 64, 28
1, 34485, Control_c, 0, 64, 28
1, 34515, Control_c, 0, 64, 27
1, 34552, Note_on_c, 0, 94, 43
1, 34578, Note_off_c, 0, 94, 54
1, 34612, Control_c, 0, 64, 26
1, 34671, Control_c, 0, 64, 27
1, 34672, Note_on_c, 0, 78, 71
1, 34714, Note_off_c, 0, 78, 58
1, 34730, Control_c, 0, 64, 27
1, 34737, Note_on_c, 0, 77, 64
1, 34745, Control_c, 0, 64, 28
1, 34764, Note_off_c, 0, 77, 65
1, 34788, Note_on_c, 0, 76, 73
1, 34789, Control_c, 0, 64, 27
1, 34819, Control_c, 0, 64, 28
1, 34834, Note_off_c, 0, 76, 64
1, 34838, Note_on_c, 0, 77, 70
1, 34863, Note_off_c, 0, 77, 66
1, 34893, Control_c, 0, 64, 28
1, 34902, Note_on_c, 0, 68, 46
1, 34907, Note_on_c, 0, 70, 81
1, 34908, Control_c, 0, 64, 30
1, 34923, Control_c, 0, 64, 31
1, 34926, Note_on_c, 0, 62, 17
1, 34928, Note_off_c, 0, 68, 56
1, 34929, Note_off_c, 0, 70, 69
1, 34967, Note_off_c, 0, 62, 30
1, 34982, Control_c, 0, 64, 32
1, 34997, Control_c, 0, 64, 32
1, 35026, Control_c, 0, 64, 32
1, 35044, Note_on_c, 0, 94, 52
1, 35056, Control_c, 0, 64, 32
1, 35064, Note_off_c, 0, 94, 61
1, 35085, Control_c, 0, 64, 32
1, 35100, Control_c, 0, 64, 31
1, 35115, Control_c, 0, 64, 30
1, 35150, Note_on_c, 0, 58, 50
1, 35150, Note_on_c, 0, 77, 75
1, 35159, Note_on_c, 0, 68, 52
1, 35160, Note_on_c, 0, 70, 42
1, 35172, Note_off_c, 0, 77, 69
1, 35176, Control_c, 0, 64, 29
1, 35180, Note_off_c, 0, 68, 63
1, 35187, Note_off_c, 0, 58, 60
1, 35189, Note_off_c, 0, 70, 53
1, 35190, Control_c, 0, 64, 28
1, 35257, Note_on_c, 0, 94, 75
1, 35264, Control_c, 0, 64, 29
1, 35272, Note_off_c, 0, 94, 69
1, 35390, Control_c, 0, 64, 28
1, 35399, Note_on_c, 0, 80, 65
1, 35448, Note_on_c, 0, 78, 64
1, 35457, Note_off_c, 0, 80, 58
1, 35478, Control_c, 0, 64, 29
1, 35479, Note_off_c, 0, 78, 63
1, 35511, Note_on_c, 0, 77, 53
1, 35543, Note_off_c, 0, 77, 65
1, 35549, Note_on_c, 0, 78, 79
1, 35576, Note_off_c, 0, 78, 63
1, 35606, Note_on_c, 0, 63, 47
1, 35611, Note_on_c, 0, 75, 76
1, 35614, Note_on_c, 0, 66, 35
1, 35627, Control_c, 0, 64, 29
1, 35631, Note_off_c, 0, 63, 56
1, 35631, Note_off_c, 0, 75, 71
1, 35639, Note_off_c, 0, 66, 49
1, 35715, Control_c, 0, 64, 29
1, 35730, Control_c, 0, 64, 28
1, 35732, Note_on_c, 0, 94, 82
1, 35752, Note_off_c, 0, 94, 72
1, 35819, Control_c, 0, 64, 28
1, 35833, Control_c, 0, 64, 27
1, 35855, Note_on_c, 0, 78, 95
1, 35863, Control_c, 0, 64, 27
1, 35875, Note_off_c, 0, 78, 64
1, 35878, Control_c, 0, 64, 26
1, 35893, Control_c, 0, 64, 23
1, 35907, Control_c, 0, 64, 21
1, 35922, Control_c, 0, 64, 20
1, 35976, Note_on_c, 0, 74, 65
1, 35978, Note_on_c, 0, 77, 73
1, 35983, Control_c, 0, 64, 19
1, 35998, Control_c, 0, 64, 16
1, 36000, Note_off_c, 0, 74, 67
1, 36005, Note_off_c, 0, 77, 63
1, 36012, Control_c, 0, 64, 14
1, 36086, Note_on_c, 0, 78, 87
1, 36109, Control_c, 0, 64, 15
1, 36118, Note_off_c, 0, 78, 63
1, 36168, Control_c, 0, 64, 15
1, 36183, Control_c, 0, 64, 16
1, 36198, Note_on_c, 0, 76, 59
1, 36210, Note_on_c, 0, 73, 58
1, 36236, Note_off_c, 0, 73, 69
1, 36240, Note_off_c, 0, 76, 63
1, 36256, Control_c, 0, 64, 17
1, 36313, Note_on_c, 0, 78, 75
1, 36316, Control_c, 0, 64, 17
1, 36336, Note_off_c, 0, 78, 68
1, 36420, Control_c, 0, 64, 17
1, 36435, Control_c, 0, 64, 18
1, 36435, Note_on_c, 0, 72, 54
1, 36436, Note_on_c, 0, 75, 62
1, 36450, Control_c, 0, 64, 18
1, 36456, Note_off_c, 0, 72, 61
1, 36461, Note_off_c, 0, 75, 69
1, 36524, Control_c, 0, 64, 19
1, 36540, Note_on_c, 0, 78, 78
1, 36561, Note_off_c, 0, 78, 70
1, 36656, Control_c, 0, 64, 19
1, 36661, Note_on_c, 0, 74, 63
1, 36670, Note_on_c, 0, 71, 46
1, 36671, Control_c, 0, 64, 21
1, 36686, Control_c, 0, 64, 22
1, 36687, Note_off_c, 0, 74, 67
1, 36698, Note_off_c, 0, 71, 54
1, 36701, Control_c, 0, 64, 23
1, 36746, Control_c, 0, 64, 23
1, 36761, Control_c, 0, 64, 25
1, 36783, Control_c, 0, 64, 25
1, 36817, Note_on_c, 0, 80, 63
1, 36843, Control_c, 0, 64, 26
1, 36858, Control_c, 0, 64, 26
1, 36863, Note_off_c, 0, 80, 54
1, 36873, Control_c, 0, 64, 27
1, 36877, Note_on_c, 0, 78, 54
1, 36900, Note_off_c, 0, 78, 63
1, 36923, Note_on_c, 0, 77, 65
1, 36947, Control_c, 0, 64, 27
1, 36964, Note_off_c, 0, 77, 62
1, 36971, Note_on_c, 0, 78, 64
1, 36989, Note_off_c, 0, 78, 65
1, 37020, Control_c, 0, 64, 28
1, 37022, Note_on_c, 0, 70, 51
1, 37025, Note_on_c, 0, 73, 76
1, 37035, Control_c, 0, 64, 29
1, 37039, Note_on_c, 0, 66, 26
1, 37045, Note_off_c, 0, 70, 58
1, 37048, Note_off_c, 0, 73, 70
1, 37061, Note_off_c, 0, 66, 50
1, 37154, Note_on_c, 0, 97, 63
1, 37172, Note_off_c, 0, 97, 65
1, 37262, Note_on_c, 0, 61, 58
1, 37269, Note_on_c, 0, 78, 66
1, 37272, Control_c, 0, 64, 30
1, 37278, Note_on_c, 0, 70, 42
1, 37279, Note_on_c, 0, 73, 42
1, 37285, Note_off_c, 0, 78, 64
1, 37293, Note_off_c, 0, 61, 66
1, 37305, Note_off_c, 0, 70, 52
1, 37307, Note_off_c, 0, 73, 52
1, 37347, Control_c, 0, 64, 30
1, 37365, Note_on_c, 0, 97, 72
1, 37381, Note_off_c, 0, 97, 68
1, 37465, Control_c, 0, 64, 30
1, 37497, Note_on_c, 0, 82, 52
1, 37532, Control_c, 0, 64, 30
1, 37547, Note_off_c, 0, 82, 61
1, 37549, Note_on_c, 0, 80, 65
1, 37562, Control_c, 0, 64, 30
1, 37588, Note_off_c, 0, 80, 63
1, 37591, Control_c, 0, 64, 30
1, 37606, Note_on_c, 0, 79, 66
1, 37654, Note_on_c, 0, 80, 69
1, 37662, Note_off_c, 0, 79, 62
1, 37666, Control_c, 0, 64, 30
1, 37690, Note_off_c, 0, 80, 60
1, 37696, Note_on_c, 0, 71, 53
1, 37696, Note_on_c, 0, 65, 43
1, 37708, Note_on_c, 0, 73, 76
1, 37710, Control_c, 0, 64, 30
1, 37719, Note_off_c, 0, 71, 61
1, 37721, Note_off_c, 0, 65, 58
1, 37730, Note_off_c, 0, 73, 71
1, 37740, Control_c, 0, 64, 30
1, 37770, Control_c, 0, 64, 29
1, 37784, Control_c, 0, 64, 30
1, 37830, Note_on_c, 0, 97, 77
1, 37845, Note_off_c, 0, 97, 71
1, 37917, Control_c, 0, 64, 29
1, 37932, Control_c, 0, 64, 29
1, 37937, Note_on_c, 0, 61, 59
1, 37942, Note_on_c, 0, 73, 60
1, 37948, Note_on_c, 0, 80, 71
1, 37961, Control_c, 0, 64, 29
1, 37963, Note_off_c, 0, 73, 66
1, 37967, Note_off_c, 0, 61, 66
1, 37973, Note_off_c, 0, 80, 65
1, 37991, Control_c, 0, 64, 29
1, 38006, Control_c, 0, 64, 28
1, 38021, Control_c, 0, 64, 27
1, 38055, Note_on_c, 0, 97, 73
1, 38079, Note_off_c, 0, 97, 69
1, 38172, Note_on_c, 0, 78, 63
1, 38176, Note_on_c, 0, 82, 67
1, 38193, Note_off_c, 0, 82, 67
1, 38199, Note_off_c, 0, 78, 67
1, 38243, Control_c, 0, 64, 27
1, 38258, Control_c, 0, 64, 25
1, 38280, Control_c, 0, 64, 19
1, 38289, Note_on_c, 0, 80, 59
1, 38295, Control_c, 0, 64, 0
1, 38303, Note_on_c, 0, 83, 68
1, 38307, Note_off_c, 0, 80, 61
1, 38328, Note_off_c, 0, 83, 69
1, 38385, Control_c, 0, 64, 23
1, 38394, Note_on_c, 0, 66, 53
1, 38399, Control_c, 0, 64, 50
1, 38414, Control_c, 0, 64, 62
1, 38417, Note_off_c, 0, 66, 59
1, 38429, Control_c, 0, 64, 66
1, 38444, Control_c, 0, 64, 70
1, 38452, Note_on_c, 0, 85, 75
1, 38458, Control_c, 0, 64, 73
1, 38473, Control_c, 0, 64, 78
1, 38475, Note_on_c, 0, 82, 65
1, 38475, Note_off_c, 0, 85, 67
1, 38488, Control_c, 0, 64, 82
1, 38502, Note_off_c, 0, 82, 66
1, 38503, Control_c, 0, 64, 86
1, 38518, Control_c, 0, 64, 89
1, 38532, Control_c, 0, 64, 91
1, 38547, Control_c, 0, 64, 92
1, 38579, Note_on_c, 0, 97, 69
1, 38587, Note_on_c, 0, 94, 57
1, 38605, Note_off_c, 0, 94, 64
1, 38607, Note_off_c, 0, 97, 69
1, 38680, Control_c, 0, 64, 90
1, 38691, Note_on_c, 0, 80, 61
1, 38695, Control_c, 0, 64, 85
1, 38710, Control_c, 0, 64, 78
1, 38711, Note_off_c, 0, 80, 63
1, 38712, Note_on_c, 0, 83, 77
1, 38724, Control_c, 0, 64, 69
1, 38733, Note_off_c, 0, 83, 69
1, 38739, Control_c, 0, 64, 59
1, 38754, Control_c, 0, 64, 42
1, 38769, Control_c, 0, 64, 19
1, 38784, Control_c, 0, 64, 0
1, 38804, Note_on_c, 0, 78, 70
1, 38821, Note_on_c, 0, 82, 72
1, 38826, Note_off_c, 0, 78, 68
1, 38846, Note_off_c, 0, 82, 66
1, 38930, Note_on_c, 0, 71, 58
1, 38932, Note_on_c, 0, 80, 71
1, 38953, Note_off_c, 0, 80, 68
1, 38966, Note_off_c, 0, 71, 64
1, 39034, Note_on_c, 0, 73, 62
1, 39053, Note_on_c, 0, 82, 64
1, 39057, Note_off_c, 0, 73, 66
1, 39079, Note_off_c, 0, 82, 68
1, 39088, Control_c, 0, 64, 36
1, 39103, Control_c, 0, 64, 53
1, 39117, Control_c, 0, 64, 61
1, 39132, Control_c, 0, 64, 64
1, 39147, Control_c, 0, 64, 66
1, 39162, Control_c, 0, 64, 69
1, 39177, Control_c, 0, 64, 73
1, 39193, Control_c, 0, 64, 79
1, 39204, Note_on_c, 0, 83, 70
1, 39207, Control_c, 0, 64, 85
1, 39220, Note_on_c, 0, 75, 59
1, 39222, Control_c, 0, 64, 91
1, 39231, Note_off_c, 0, 83, 66
1, 39237, Control_c, 0, 64, 97
1, 39238, Note_off_c, 0, 75, 65
1, 39252, Control_c, 0, 64, 103
1, 39267, Control_c, 0, 64, 107
1, 39281, Control_c, 0, 64, 110
1, 39296, Control_c, 0, 64, 112
1, 39311, Control_c, 0, 64, 114
1, 39326, Control_c, 0, 64, 116
1, 39347, Note_on_c, 0, 95, 74
1, 39352, Note_on_c, 0, 87, 66
1, 39371, Note_off_c, 0, 95, 66
1, 39378, Note_off_c, 0, 87, 68
1, 39430, Control_c, 0, 64, 113
1, 39445, Control_c, 0, 64, 105
1, 39460, Control_c, 0, 64, 96
1, 39464, Note_on_c, 0, 73, 60
1, 39474, Control_c, 0, 64, 88
1, 39487, Note_on_c, 0, 82, 66
1, 39489, Control_c, 0, 64, 80
1, 39491, Note_off_c, 0, 73, 67
1, 39504, Control_c, 0, 64, 73
1, 39512, Note_off_c, 0, 82, 62
1, 39518, Control_c, 0, 64, 65
1, 39533, Control_c, 0, 64, 55
1, 39548, Control_c, 0, 64, 41
1, 39563, Control_c, 0, 64, 26
1, 39578, Control_c, 0, 64, 12
1, 39588, Note_on_c, 0, 71, 58
1, 39592, Control_c, 0, 64, 0
1, 39598, Note_on_c, 0, 80, 57
1, 39612, Note_off_c, 0, 71, 65
1, 39617, Note_off_c, 0, 80, 62
1, 39716, Note_on_c, 0, 70, 56
1, 39717, Note_on_c, 0, 78, 60
1, 39735, Note_off_c, 0, 78, 63
1, 39740, Note_off_c, 0, 70, 62
1, 39826, Note_on_c, 0, 71, 58
1, 39828, Note_on_c, 0, 80, 65
1, 39848, Note_off_c, 0, 71, 63
1, 39853, Note_off_c, 0, 80, 68
1, 39867, Control_c, 0, 64, 12
1, 39881, Control_c, 0, 64, 33
1, 39896, Control_c, 0, 64, 49
1, 39911, Control_c, 0, 64, 57
1, 39925, Control_c, 0, 64, 61
1, 39940, Control_c, 0, 64, 63
1, 39948, Note_on_c, 0, 61, 59
1, 39955, Note_on_c, 0, 82, 71
1, 39957, Control_c, 0, 64, 64
1, 39972, Control_c, 0, 64, 66
1, 39973, Note_on_c, 0, 73, 42
1, 39979, Note_off_c, 0, 82, 66
1, 39980, Note_off_c, 0, 61, 66
1, 39986, Control_c, 0, 64, 68
1, 40000, Note_off_c, 0, 73, 54
1, 40001, Control_c, 0, 64, 72
1, 40016, Control_c, 0, 64, 75
1, 40030, Control_c, 0, 64, 77
1, 40045, Control_c, 0, 64, 79
1, 40060, Control_c, 0, 64, 80
1, 40075, Control_c, 0, 64, 81
1, 40076, Note_on_c, 0, 94, 65
1, 40090, Note_on_c, 0, 85, 56
1, 40101, Note_off_c, 0, 94, 68
1, 40109, Note_off_c, 0, 85, 60
1, 40179, Control_c, 0, 64, 79
1, 40186, Note_on_c, 0, 71, 65
1, 40194, Control_c, 0, 64, 75
1, 40208, Note_on_c, 0, 80, 71
1, 40208, Control_c, 0, 64, 70
1, 40214, Note_off_c, 0, 71, 69
1, 40223, Control_c, 0, 64, 64
1, 40233, Note_off_c, 0, 80, 65
1, 40238, Control_c, 0, 64, 56
1, 40253, Control_c, 0, 64, 45
1, 40268, Control_c, 0, 64, 35
1, 40283, Control_c, 0, 64, 25
1, 40297, Control_c, 0, 64, 19
1, 40312, Control_c, 0, 64, 15
1, 40322, Note_on_c, 0, 78, 63
1, 40327, Control_c, 0, 64, 12
1, 40332, Note_on_c, 0, 70, 54
1, 40341, Control_c, 0, 64, 0
1, 40349, Note_off_c, 0, 78, 66
1, 40356, Note_off_c, 0, 70, 59
1, 40453, Note_on_c, 0, 68, 51
1, 40453, Note_on_c, 0, 77, 58
1, 40475, Note_off_c, 0, 77, 64
1, 40486, Note_off_c, 0, 68, 63
1, 40571, Note_on_c, 0, 78, 62
1, 40581, Note_on_c, 0, 70, 48
1, 40599, Note_off_c, 0, 78, 67
1, 40606, Note_off_c, 0, 70, 56
1, 40630, Control_c, 0, 64, 31
1, 40645, Control_c, 0, 64, 45
1, 40660, Control_c, 0, 64, 54
1, 40674, Control_c, 0, 64, 59
1, 40689, Control_c, 0, 64, 61
1, 40704, Note_on_c, 0, 61, 48
1, 40704, Control_c, 0, 64, 63
1, 40709, Note_on_c, 0, 80, 59
1, 40719, Control_c, 0, 64, 65
1, 40729, Note_off_c, 0, 61, 56
1, 40734, Control_c, 0, 64, 67
1, 40735, Note_off_c, 0, 80, 62
1, 40750, Control_c, 0, 64, 69
1, 40765, Control_c, 0, 64, 72
1, 40779, Control_c, 0, 64, 74
1, 40794, Control_c, 0, 64, 76
1, 40796, Poly_aftertouch_c, 0, 71, 0
1, 40809, Control_c, 0, 64, 78
1, 40824, Control_c, 0, 64, 79
1, 40839, Control_c, 0, 64, 80
1, 40849, Note_on_c, 0, 92, 57
1, 40861, Note_on_c, 0, 83, 55
1, 40868, Note_off_c, 0, 92, 62
1, 40884, Note_off_c, 0, 83, 62
1, 40989, Note_on_c, 0, 66, 54
1, 40997, Note_on_c, 0, 75, 64
1, 41014, Note_off_c, 0, 66, 59
1, 41016, Control_c, 0, 64, 80
1, 41019, Note_off_c, 0, 75, 65
1, 41136, Note_on_c, 0, 68, 47
1, 41150, Note_on_c, 0, 77, 67
1, 41162, Note_off_c, 0, 68, 54
1, 41174, Note_off_c, 0, 77, 67
1, 41239, Control_c, 0, 64, 80
1, 41265, Note_on_c, 0, 54, 53
1, 41297, Note_off_c, 0, 54, 57
1, 41305, Control_c, 0, 64, 79
1, 41320, Control_c, 0, 64, 74
1, 41335, Control_c, 0, 64, 65
1, 41350, Control_c, 0, 64, 55
1, 41365, Control_c, 0, 64, 47
1, 41379, Control_c, 0, 64, 51
1, 41394, Control_c, 0, 64, 59
1, 41397, Note_on_c, 0, 78, 57
1, 41405, Note_on_c, 0, 70, 54
1, 41409, Control_c, 0, 64, 65
1, 41424, Control_c, 0, 64, 71
1, 41439, Control_c, 0, 64, 78
1, 41440, Note_off_c, 0, 78, 57
1, 41453, Control_c, 0, 64, 84
1, 41454, Note_off_c, 0, 70, 55
1, 41468, Control_c, 0, 64, 88
1, 41483, Control_c, 0, 64, 92
1, 41497, Control_c, 0, 64, 97
1, 41512, Control_c, 0, 64, 105
1, 41527, Control_c, 0, 64, 127
1, 41613, Note_on_c, 0, 90, 57
1, 41632, Note_on_c, 0, 82, 47
1, 41655, Note_off_c, 0, 82, 59
1, 41663, Note_off_c, 0, 90, 51
1, 41768, Note_on_c, 0, 66, 57
1, 41902, Note_off_c, 0, 66, 36
1, 41910, Note_on_c, 0, 78, 68
1, 41934, Note_off_c, 0, 78, 67
1, 42024, Note_on_c, 0, 67, 75
1, 42079, Note_off_c, 0, 67, 63
1, 42117, Note_on_c, 0, 79, 74
1, 42140, Note_off_c, 0, 79, 68
1, 42218, Control_c, 0, 64, 113
1, 42224, Note_on_c, 0, 68, 80
1, 42233, Control_c, 0, 64, 93
1, 42247, Control_c, 0, 64, 74
1, 42253, Note_off_c, 0, 68, 63
1, 42262, Control_c, 0, 64, 60
1, 42277, Control_c, 0, 64, 42
1, 42292, Control_c, 0, 64, 15
1, 42307, Control_c, 0, 64, 0
1, 42321, Note_on_c, 0, 80, 64
1, 42352, Note_off_c, 0, 80, 62
1, 42441, Control_c, 0, 64, 8
1, 42444, Note_on_c, 0, 64, 58
1, 42452, Note_on_c, 0, 68, 47
1, 42456, Control_c, 0, 64, 13
1, 42471, Control_c, 0, 64, 13
1, 42476, Note_on_c, 0, 92, 56
1, 42476, Note_off_c, 0, 64, 66
1, 42477, Note_off_c, 0, 68, 61
1, 42493, Note_off_c, 0, 92, 61
1, 42515, Control_c, 0, 64, 14
1, 42530, Control_c, 0, 64, 15
1, 42544, Control_c, 0, 64, 20
1, 42559, Control_c, 0, 64, 23
1, 42574, Control_c, 0, 64, 23
1, 42576, Note_on_c, 0, 80, 55
1, 42596, Note_off_c, 0, 80, 60
1, 42633, Control_c, 0, 64, 24
1, 42668, Note_on_c, 0, 63, 44
1, 42670, Note_on_c, 0, 68, 42
1, 42690, Note_on_c, 0, 92, 52
1, 42695, Note_off_c, 0, 63, 58
1, 42696, Note_off_c, 0, 68, 55
1, 42709, Note_off_c, 0, 92, 61
1, 42737, Control_c, 0, 64, 23
1, 42751, Control_c, 0, 64, 22
1, 42781, Note_on_c, 0, 78, 65
1, 42789, Control_c, 0, 64, 23
1, 42799, Note_off_c, 0, 78, 64
1, 42870, Note_on_c, 0, 61, 59
1, 42876, Note_on_c, 0, 68, 37
1, 42877, Note_on_c, 0, 92, 63
1, 42899, Note_off_c, 0, 61, 67
1, 42902, Note_off_c, 0, 92, 68
1, 42904, Note_off_c, 0, 68, 54
1, 42922, Control_c, 0, 64, 22
1, 42966, Control_c, 0, 64, 22
1, 42981, Control_c, 0, 64, 21
1, 42984, Note_on_c, 0, 76, 40
1, 43011, Control_c, 0, 64, 22
1, 43014, Note_off_c, 0, 76, 34
1, 43025, Control_c, 0, 64, 23
1, 43040, Control_c, 0, 64, 24
1, 43055, Control_c, 0, 64, 25
1, 43090, Note_on_c, 0, 102, 72
1, 43099, Control_c, 0, 64, 26
1, 43103, Note_on_c, 0, 75, 52
1, 43114, Control_c, 0, 64, 29
1, 43115, Note_off_c, 0, 102, 68
1, 43124, Note_off_c, 0, 75, 62
1, 43129, Control_c, 0, 64, 33
1, 43145, Control_c, 0, 64, 33
1, 43160, Control_c, 0, 64, 32
1, 43174, Control_c, 0, 64, 32
1, 43189, Control_c, 0, 64, 31
1, 43207, Note_on_c, 0, 80, 64
1, 43225, Note_off_c, 0, 80, 63
1, 43278, Control_c, 0, 64, 33
1, 43292, Control_c, 0, 64, 35
1, 43306, Note_on_c, 0, 73, 62
1, 43307, Control_c, 0, 64, 36
1, 43315, Note_on_c, 0, 100, 68
1, 43322, Control_c, 0, 64, 35
1, 43331, Note_off_c, 0, 73, 69
1, 43331, Note_off_c, 0, 100, 67
1, 43337, Control_c, 0, 64, 33
1, 43352, Control_c, 0, 64, 32
1, 43366, Control_c, 0, 64, 32
1, 43381, Control_c, 0, 64, 33
1, 43396, Control_c, 0, 64, 34
1, 43411, Control_c, 0, 64, 35
1, 43425, Note_on_c, 0, 56, 68
1, 43431, Note_on_c, 0, 80, 67
1, 43447, Note_off_c, 0, 80, 65
1, 43455, Note_off_c, 0, 56, 66
1, 43535, Note_on_c, 0, 99, 80
1, 43545, Note_on_c, 0, 72, 65
1, 43556, Note_off_c, 0, 99, 72
1, 43573, Note_off_c, 0, 72, 65
1, 43581, Control_c, 0, 64, 34
1, 43596, Control_c, 0, 64, 34
1, 43611, Control_c, 0, 64, 33
1, 43626, Control_c, 0, 64, 32
1, 43641, Control_c, 0, 64, 33
1, 43654, Note_on_c, 0, 80, 62
1, 43672, Note_off_c, 0, 80, 63
1, 43685, Control_c, 0, 64, 32
1, 43729, Control_c, 0, 64, 33
1, 43747, Note_on_c, 0, 97, 72
1, 43752, Note_on_c, 0, 70, 57
1, 43773, Note_off_c, 0, 97, 67
1, 43783, Note_off_c, 0, 70, 64
1, 43818, Control_c, 0, 64, 34
1, 43833, Control_c, 0, 64, 34
1, 43849, Note_on_c, 0, 80, 59
1, 43869, Note_off_c, 0, 80, 59
1, 43878, Control_c, 0, 64, 34
1, 43892, Control_c, 0, 64, 34
1, 43933, Note_on_c, 0, 72, 55
1, 43947, Note_on_c, 0, 99, 71
1, 43953, Control_c, 0, 64, 34
1, 43954, Note_off_c, 0, 72, 61
1, 43962, Note_off_c, 0, 99, 68
1, 44027, Control_c, 0, 64, 33
1, 44060, Note_on_c, 0, 80, 35
1, 44061, Note_off_c, 0, 80, 127
1, 44086, Control_c, 0, 64, 33
1, 44140, Note_on_c, 0, 100, 74
1, 44144, Note_on_c, 0, 61, 52
1, 44149, Note_on_c, 0, 73, 54
1, 44163, Note_off_c, 0, 100, 70
1, 44175, Control_c, 0, 64, 33
1, 44178, Note_off_c, 0, 61, 61
1, 44179, Note_off_c, 0, 73, 64
1, 44251, Note_on_c, 0, 80, 65
1, 44280, Note_off_c, 0, 80, 63
1, 44316, Control_c, 0, 64, 32
1, 44349, Note_on_c, 0, 97, 80
1, 44361, Note_on_c, 0, 76, 72
1, 44373, Note_off_c, 0, 97, 68
1, 44375, Control_c, 0, 64, 30
1, 44384, Note_off_c, 0, 76, 72
1, 44390, Control_c, 0, 64, 27
1, 44404, Control_c, 0, 64, 23
1, 44419, Control_c, 0, 64, 20
1, 44434, Control_c, 0, 64, 16
1, 44446, Note_on_c, 0, 80, 74
1, 44448, Control_c, 0, 64, 0
1, 44470, Note_off_c, 0, 80, 68
1, 44537, Note_on_c, 0, 67, 89
1, 44567, Control_c, 0, 64, 40
1, 44582, Control_c, 0, 64, 62
1, 44596, Control_c, 0, 64, 69
1, 44611, Control_c, 0, 64, 73
1, 44626, Control_c, 0, 64, 78
1, 44633, Note_on_c, 0, 79, 77
1, 44641, Control_c, 0, 64, 81
1, 44654, Note_off_c, 0, 79, 69
1, 44656, Control_c, 0, 64, 82
1, 44671, Control_c, 0, 64, 83
1, 44686, Control_c, 0, 64, 84
1, 44723, Note_off_c, 0, 67, 26
1, 44730, Control_c, 0, 64, 83
1, 44739, Note_on_c, 0, 66, 78
1, 44745, Control_c, 0, 64, 81
1, 44760, Control_c, 0, 64, 75
1, 44769, Note_off_c, 0, 66, 62
1, 44775, Control_c, 0, 64, 68
1, 44790, Control_c, 0, 64, 57
1, 44805, Control_c, 0, 64, 44
1, 44820, Control_c, 0, 64, 34
1, 44829, Note_on_c, 0, 78, 69
1, 44835, Control_c, 0, 64, 28
1, 44850, Control_c, 0, 64, 26
1, 44854, Note_off_c, 0, 78, 66
1, 44864, Control_c, 0, 64, 24
1, 44879, Control_c, 0, 64, 24
1, 44943, Note_on_c, 0, 66, 48
1, 44947, Note_on_c, 0, 63, 51
1, 44953, Control_c, 0, 64, 24
1, 44967, Note_on_c, 0, 90, 53
1, 44968, Control_c, 0, 64, 25
1, 44969, Note_off_c, 0, 66, 62
1, 44976, Note_off_c, 0, 63, 65
1, 44983, Control_c, 0, 64, 27
1, 44987, Note_off_c, 0, 90, 63
1, 44998, Control_c, 0, 64, 28
1, 45049, Control_c, 0, 64, 28
1, 45064, Note_on_c, 0, 78, 61
1, 45064, Control_c, 0, 64, 31
1, 45079, Control_c, 0, 64, 32
1, 45086, Note_off_c, 0, 78, 64
1, 45094, Control_c, 0, 64, 32
1, 45138, Control_c, 0, 64, 32
1, 45149, Note_on_c, 0, 66, 47
1, 45153, Control_c, 0, 64, 33
1, 45160, Note_on_c, 0, 61, 49
1, 45168, Note_on_c, 0, 90, 67
1, 45178, Note_off_c, 0, 66, 62
1, 45184, Control_c, 0, 64, 32
1, 45186, Note_off_c, 0, 61, 63
1, 45199, Note_off_c, 0, 90, 64
1, 45264, Note_on_c, 0, 76, 66
1, 45282, Note_off_c, 0, 76, 67
1, 45332, Control_c, 0, 64, 33
1, 45359, Note_on_c, 0, 59, 52
1, 45364, Note_on_c, 0, 66, 51
1, 45368, Note_on_c, 0, 90, 66
1, 45387, Note_off_c, 0, 90, 66
1, 45390, Note_off_c, 0, 59, 65
1, 45393, Note_off_c, 0, 66, 64
1, 45420, Control_c, 0, 64, 33
1, 45455, Note_on_c, 0, 75, 67
1, 45464, Control_c, 0, 64, 34
1, 45477, Note_off_c, 0, 75, 65
1, 45479, Control_c, 0, 64, 35
1, 45494, Control_c, 0, 64, 35
1, 45524, Control_c, 0, 64, 36
1, 45540, Control_c, 0, 64, 37
1, 45555, Control_c, 0, 64, 38
1, 45569, Control_c, 0, 64, 39
1, 45594, Note_on_c, 0, 100, 74
1, 45599, Control_c, 0, 64, 38
1, 45601, Note_on_c, 0, 73, 64
1, 45619, Note_off_c, 0, 100, 66
1, 45626, Note_off_c, 0, 73, 70
1, 45629, Control_c, 0, 64, 39
1, 45643, Control_c, 0, 64, 39
1, 45687, Control_c, 0, 64, 40
1, 45702, Control_c, 0, 64, 41
1, 45717, Control_c, 0, 64, 42
1, 45718, Note_on_c, 0, 78, 64
1, 45736, Note_off_c, 0, 78, 63
1, 45827, Note_on_c, 0, 99, 76
1, 45829, Note_on_c, 0, 71, 59
1, 45842, Note_off_c, 0, 99, 70
1, 45851, Note_off_c, 0, 71, 61
1, 45858, Control_c, 0, 64, 41
1, 45873, Control_c, 0, 64, 42
1, 45917, Control_c, 0, 64, 41
1, 45945, Note_on_c, 0, 78, 66
1, 45950, Note_on_c, 0, 54, 65
1, 45962, Control_c, 0, 64, 42
1, 45964, Note_off_c, 0, 78, 63
1, 45968, Note_off_c, 0, 54, 65
1, 45977, Control_c, 0, 64, 42
1, 45991, Control_c, 0, 64, 43
1, 46006, Control_c, 0, 64, 42
1, 46036, Control_c, 0, 64, 43
1, 46048, Note_on_c, 0, 97, 71
1, 46051, Control_c, 0, 64, 43
1, 46062, Note_on_c, 0, 70, 61
1, 46067, Note_off_c, 0, 97, 67
1, 46081, Note_off_c, 0, 70, 64
1, 46095, Control_c, 0, 64, 43
1, 46125, Control_c, 0, 64, 43
1, 46152, Note_on_c, 0, 78, 68
1, 46155, Control_c, 0, 64, 43
1, 46170, Note_off_c, 0, 78, 64
1, 46184, Control_c, 0, 64, 42
1, 46199, Control_c, 0, 64, 42
1, 46213, Control_c, 0, 64, 43
1, 46243, Control_c, 0, 64, 42
1, 46252, Note_on_c, 0, 95, 74
1, 46258, Control_c, 0, 64, 42
1, 46266, Note_on_c, 0, 68, 50
1, 46274, Note_off_c, 0, 95, 70
1, 46287, Note_off_c, 0, 68, 59
1, 46287, Control_c, 0, 64, 42
1, 46302, Control_c, 0, 64, 43
1, 46317, Control_c, 0, 64, 44
1, 46332, Control_c, 0, 64, 43
1, 46355, Note_on_c, 0, 78, 70
1, 46371, Note_off_c, 0, 78, 66
1, 46378, Control_c, 0, 64, 44
1, 46434, Note_on_c, 0, 70, 66
1, 46436, Control_c, 0, 64, 43
1, 46448, Note_on_c, 0, 97, 76
1, 46459, Note_off_c, 0, 70, 66
1, 46466, Note_off_c, 0, 97, 68
1, 46466, Control_c, 0, 64, 44
1, 46496, Control_c, 0, 64, 43
1, 46533, Control_c, 0, 64, 42
1, 46547, Note_on_c, 0, 78, 72
1, 46563, Control_c, 0, 64, 43
1, 46567, Note_off_c, 0, 78, 65
1, 46607, Control_c, 0, 64, 42
1, 46635, Note_on_c, 0, 59, 56
1, 46637, Control_c, 0, 64, 43
1, 46648, Note_on_c, 0, 99, 84
1, 46651, Control_c, 0, 64, 43
1, 46652, Note_on_c, 0, 71, 57
1, 46671, Note_off_c, 0, 99, 69
1, 46673, Note_off_c, 0, 59, 62
1, 46695, Control_c, 0, 64, 43
1, 46710, Control_c, 0, 64, 42
1, 46740, Control_c, 0, 64, 43
1, 46752, Note_on_c, 0, 78, 77
1, 46769, Control_c, 0, 64, 42
1, 46773, Note_off_c, 0, 78, 69
1, 46799, Control_c, 0, 64, 42
1, 46814, Control_c, 0, 64, 42
1, 46829, Control_c, 0, 64, 43
1, 46843, Control_c, 0, 64, 43
1, 46846, Note_on_c, 0, 75, 65
1, 46847, Note_on_c, 0, 95, 78
1, 46857, Note_off_c, 0, 71, 63
1, 46866, Note_off_c, 0, 95, 72
1, 46869, Note_off_c, 0, 75, 70
1, 46873, Control_c, 0, 64, 43
1, 46888, Control_c, 0, 64, 42
1, 46903, Control_c, 0, 64, 43
1, 46933, Note_on_c, 0, 78, 80
1, 46947, Control_c, 0, 64, 42
1, 46954, Note_off_c, 0, 78, 69
1, 46977, Control_c, 0, 64, 42
1, 47017, Note_on_c, 0, 62, 83
1, 47050, Control_c, 0, 64, 41
1, 47109, Control_c, 0, 64, 41
1, 47112, Note_on_c, 0, 74, 70
1, 47124, Control_c, 0, 64, 40
1, 47136, Note_off_c, 0, 74, 68
1, 47156, Note_off_c, 0, 62, 58
1, 47205, Note_on_c, 0, 63, 78
1, 47231, Note_off_c, 0, 63, 64
1, 47294, Note_on_c, 0, 75, 70
1, 47318, Note_off_c, 0, 75, 68
1, 47355, Control_c, 0, 64, 41
1, 47370, Control_c, 0, 64, 40
1, 47404, Note_on_c, 0, 55, 56
1, 47407, Note_on_c, 0, 63, 51
1, 47412, Note_on_c, 0, 87, 72
1, 47431, Note_off_c, 0, 63, 56
1, 47439, Note_off_c, 0, 87, 65
1, 47440, Note_off_c, 0, 55, 60
1, 47501, Note_on_c, 0, 75, 67
1, 47530, Note_off_c, 0, 75, 65
1, 47562, Control_c, 0, 64, 41
1, 47571, Note_on_c, 0, 55, 56
1, 47586, Note_on_c, 0, 65, 62
1, 47592, Note_on_c, 0, 87, 72
1, 47606, Note_off_c, 0, 55, 64
1, 47616, Note_off_c, 0, 65, 67
1, 47622, Control_c, 0, 64, 40
1, 47647, Note_off_c, 0, 87, 63
1, 47666, Control_c, 0, 64, 40
1, 47681, Note_on_c, 0, 74, 73
1, 47681, Control_c, 0, 64, 39
1, 47705, Note_off_c, 0, 74, 67
1, 47740, Control_c, 0, 64, 39
1, 47755, Control_c, 0, 64, 38
1, 47770, Control_c, 0, 64, 39
1, 47772, Note_on_c, 0, 87, 75
1, 47776, Note_on_c, 0, 67, 72
1, 47784, Note_on_c, 0, 58, 62
1, 47798, Note_off_c, 0, 67, 69
1, 47799, Control_c, 0, 64, 38
1, 47813, Note_off_c, 0, 58, 64
1, 47814, Control_c, 0, 64, 36
1, 47829, Note_off_c, 0, 87, 64
1, 47829, Control_c, 0, 64, 34
1, 47844, Control_c, 0, 64, 35
1, 47858, Note_on_c, 0, 73, 82
1, 47858, Control_c, 0, 64, 36
1, 47886, Note_off_c, 0, 73, 63
1, 47888, Control_c, 0, 64, 35
1, 47918, Control_c, 0, 64, 36
1, 47934, Control_c, 0, 64, 37
1, 47949, Control_c, 0, 64, 37
1, 47950, Note_on_c, 0, 67, 69
1, 47953, Note_on_c, 0, 58, 68
1, 47955, Note_on_c, 0, 87, 78
1, 47978, Control_c, 0, 64, 37
1, 47981, Note_off_c, 0, 67, 65
1, 47987, Note_off_c, 0, 58, 62
1, 48023, Note_off_c, 0, 87, 64
1, 48030, Control_c, 0, 64, 36
1, 48048, Note_on_c, 0, 73, 79
1, 48060, Control_c, 0, 64, 37
1, 48074, Note_off_c, 0, 73, 63
1, 48075, Control_c, 0, 64, 37
1, 48104, Control_c, 0, 64, 38
1, 48119, Control_c, 0, 64, 39
1, 48137, Note_on_c, 0, 87, 79
1, 48138, Note_on_c, 0, 59, 71
1, 48138, Note_on_c, 0, 68, 79
1, 48163, Note_off_c, 0, 68, 67
1, 48168, Note_off_c, 0, 87, 65
1, 48172, Note_off_c, 0, 59, 62
1, 48178, Control_c, 0, 64, 39
1, 48193, Control_c, 0, 64, 38
1, 48222, Control_c, 0, 64, 38
1, 48224, Note_on_c, 0, 71, 80
1, 48237, Control_c, 0, 64, 37
1, 48252, Note_off_c, 0, 71, 66
1, 48267, Control_c, 0, 64, 37
1, 48311, Control_c, 0, 64, 37
1, 48326, Control_c, 0, 64, 38
1, 48340, Note_on_c, 0, 76, 86
1, 48341, Note_on_c, 0, 88, 88
1, 48341, Control_c, 0, 64, 38
1, 48343, Note_on_c, 0, 70, 85
1, 48349, Note_on_c, 0, 61, 73
1, 48356, Control_c, 0, 64, 38
1, 48366, Note_off_c, 0, 76, 64
1, 48367, Note_off_c, 0, 70, 66
1, 48370, Control_c, 0, 64, 37
1, 48375, Note_off_c, 0, 88, 64
1, 48378, Note_off_c, 0, 61, 66
1, 48400, Control_c, 0, 64, 38
1, 48415, Control_c, 0, 64, 39
1, 48430, Control_c, 0, 64, 40
1, 48439, Note_on_c, 0, 87, 80
1, 48445, Control_c, 0, 64, 39
1, 48472, Note_on_c, 0, 81, 34
1, 48478, Note_off_c, 0, 87, 61
1, 48489, Control_c, 0, 64, 40
1, 48503, Note_off_c, 0, 81, 34
1, 48504, Control_c, 0, 64, 40
1, 48534, Control_c, 0, 64, 40
1, 48549, Control_c, 0, 64, 39
1, 48554, Note_on_c, 0, 85, 73
1, 48563, Control_c, 0, 64, 37
1, 48568, Note_off_c, 0, 85, 67
1, 48585, Note_on_c, 0, 86, 38
1, 48586, Note_off_c, 0, 86, 127
1, 48607, Control_c, 0, 64, 36
1, 48622, Control_c, 0, 64, 34
1, 48634, Note_on_c, 0, 82, 80
1, 48637, Control_c, 0, 64, 32
1, 48644, Note_on_c, 0, 76, 73
1, 48652, Control_c, 0, 64, 33
1, 48665, Note_off_c, 0, 76, 70
1, 48667, Control_c, 0, 64, 35
1, 48685, Note_off_c, 0, 82, 63
1, 48726, Control_c, 0, 64, 35
1, 48734, Note_on_c, 0, 62, 72
1, 48742, Note_on_c, 0, 82, 75
1, 48742, Control_c, 0, 64, 37
1, 48747, Note_on_c, 0, 65, 50
1, 48764, Control_c, 0, 64, 38
1, 48765, Note_on_c, 0, 71, 63
1, 48767, Note_off_c, 0, 62, 66
1, 48777, Note_off_c, 0, 65, 58
1, 48779, Control_c, 0, 64, 37
1, 48786, Note_off_c, 0, 71, 62
1, 48789, Note_off_c, 0, 82, 63
1, 48793, Control_c, 0, 64, 33
1, 48808, Control_c, 0, 64, 32
1, 48823, Control_c, 0, 64, 35
1, 48838, Control_c, 0, 64, 39
1, 48846, Note_on_c, 0, 80, 73
1, 48853, Control_c, 0, 64, 39
1, 48861, Note_on_c, 0, 77, 55
1, 48868, Control_c, 0, 64, 37
1, 48879, Note_off_c, 0, 80, 60
1, 48882, Note_off_c, 0, 77, 63
1, 48883, Control_c, 0, 64, 33
1, 48898, Control_c, 0, 64, 30
1, 48912, Control_c, 0, 64, 31
1, 48928, Control_c, 0, 64, 33
1, 48943, Control_c, 0, 64, 33
1, 48947, Note_on_c, 0, 70, 72
1, 48949, Note_on_c, 0, 79, 78
1, 48957, Note_on_c, 0, 63, 67
1, 48957, Control_c, 0, 64, 32
1, 48963, Note_on_c, 0, 67, 75
1, 48972, Note_off_c, 0, 70, 66
1, 48972, Control_c, 0, 64, 28
1, 48978, Note_off_c, 0, 79, 60
1, 48986, Note_off_c, 0, 67, 70
1, 48987, Note_off_c, 0, 63, 67
1, 48987, Control_c, 0, 64, 25
1, 49002, Control_c, 0, 64, 27
1, 49017, Control_c, 0, 64, 29
1, 49045, Note_on_c, 0, 82, 73
1, 49046, Control_c, 0, 64, 28
1, 49048, Note_on_c, 0, 75, 71
1, 49061, Control_c, 0, 64, 27
1, 49069, Note_off_c, 0, 75, 70
1, 49076, Control_c, 0, 64, 26
1, 49086, Note_off_c, 0, 82, 62
1, 49091, Control_c, 0, 64, 26
1, 49135, Control_c, 0, 64, 25
1, 49144, Note_on_c, 0, 83, 83
1, 49150, Control_c, 0, 64, 24
1, 49154, Note_on_c, 0, 79, 73
1, 49164, Control_c, 0, 64, 23
1, 49175, Note_off_c, 0, 79, 69
1, 49175, Note_off_c, 0, 83, 64
1, 49194, Control_c, 0, 64, 22
1, 49209, Control_c, 0, 64, 17
1, 49224, Control_c, 0, 64, 0
1, 49234, Note_on_c, 0, 82, 77
1, 49256, Note_off_c, 0, 82, 67
1, 49256, Note_on_c, 0, 75, 41
1, 49257, Note_off_c, 0, 75, 127
1, 49336, Note_on_c, 0, 74, 62
1, 49412, Note_on_c, 0, 86, 68
1, 49437, Note_off_c, 0, 86, 66
1, 49446, Note_off_c, 0, 74, 52
1, 49461, Control_c, 0, 64, 14
1, 49476, Control_c, 0, 64, 21
1, 49491, Control_c, 0, 64, 22
1, 49518, Note_on_c, 0, 75, 68
1, 49548, Note_off_c, 0, 75, 64
1, 49558, Control_c, 0, 64, 24
1, 49573, Control_c, 0, 64, 25
1, 49587, Control_c, 0, 64, 26
1, 49588, Note_on_c, 0, 87, 73
1, 49612, Note_off_c, 0, 87, 67
1, 49676, Control_c, 0, 64, 25
1, 49703, Note_on_c, 0, 67, 50
1, 49706, Control_c, 0, 64, 25
1, 49710, Note_on_c, 0, 75, 47
1, 49711, Note_on_c, 0, 99, 70
1, 49732, Note_off_c, 0, 75, 61
1, 49738, Note_off_c, 0, 67, 62
1, 49741, Note_off_c, 0, 99, 62
1, 49750, Control_c, 0, 64, 24
1, 49780, Control_c, 0, 64, 23
1, 49795, Control_c, 0, 64, 22
1, 49804, Note_on_c, 0, 87, 62
1, 49810, Control_c, 0, 64, 22
1, 49825, Control_c, 0, 64, 27
1, 49837, Note_off_c, 0, 87, 63
1, 49840, Control_c, 0, 64, 37
1, 49854, Control_c, 0, 64, 48
1, 49869, Control_c, 0, 64, 55
1, 49884, Control_c, 0, 64, 59
1, 49890, Note_on_c, 0, 77, 56
1, 49897, Note_on_c, 0, 99, 69
1, 49899, Control_c, 0, 64, 60
1, 49914, Control_c, 0, 64, 62
1, 49921, Note_off_c, 0, 77, 64
1, 49929, Control_c, 0, 64, 63
1, 49943, Note_off_c, 0, 99, 63
1, 49943, Control_c, 0, 64, 64
1, 49958, Control_c, 0, 64, 64
1, 49973, Control_c, 0, 64, 65
1, 49987, Control_c, 0, 64, 66
1, 49994, Note_on_c, 0, 86, 64
1, 50002, Control_c, 0, 64, 66
1, 50020, Note_off_c, 0, 86, 66
1, 50047, Control_c, 0, 64, 66
1, 50061, Control_c, 0, 64, 63
1, 50076, Control_c, 0, 64, 57
1, 50087, Note_on_c, 0, 99, 67
1, 50088, Note_on_c, 0, 79, 49
1, 50091, Control_c, 0, 64, 46
1, 50099, Note_on_c, 0, 70, 43
1, 50121, Control_c, 0, 64, 54
1, 50132, Note_off_c, 0, 99, 62
1, 50135, Control_c, 0, 64, 61
1, 50136, Note_off_c, 0, 70, 49
1, 50147, Note_off_c, 0, 79, 49
1, 50150, Control_c, 0, 64, 64
1, 50165, Control_c, 0, 64, 66
1, 50180, Control_c, 0, 64, 70
1, 50183, Note_on_c, 0, 85, 64
1, 50195, Control_c, 0, 64, 74
1, 50209, Control_c, 0, 64, 78
1, 50211, Note_off_c, 0, 85, 66
1, 50224, Control_c, 0, 64, 81
1, 50239, Control_c, 0, 64, 83
1, 50261, Control_c, 0, 64, 84
1, 50284, Note_on_c, 0, 99, 74
1, 50296, Note_on_c, 0, 79, 57
1, 50306, Control_c, 0, 64, 85
1, 50307, Note_on_c, 0, 70, 49
1, 50320, Control_c, 0, 64, 87
1, 50333, Note_off_c, 0, 79, 61
1, 50337, Control_c, 0, 64, 88
1, 50339, Note_off_c, 0, 99, 65
1, 50341, Note_off_c, 0, 70, 50
1, 50352, Control_c, 0, 64, 88
1, 50366, Control_c, 0, 64, 89
1, 50379, Note_on_c, 0, 85, 71
1, 50381, Control_c, 0, 64, 90
1, 50396, Control_c, 0, 64, 95
1, 50405, Note_off_c, 0, 85, 63
1, 50410, Control_c, 0, 64, 96
1, 50425, Control_c, 0, 64, 89
1, 50440, Control_c, 0, 64, 75
1, 50455, Control_c, 0, 64, 63
1, 50470, Control_c, 0, 64, 54
1, 50475, Note_on_c, 0, 99, 71
1, 50484, Control_c, 0, 64, 56
1, 50497, Note_on_c, 0, 80, 56
1, 50499, Control_c, 0, 64, 63
1, 50500, Note_on_c, 0, 71, 55
1, 50514, Control_c, 0, 64, 68
1, 50522, Note_off_c, 0, 99, 67
1, 50529, Control_c, 0, 64, 72
1, 50533, Note_off_c, 0, 80, 59
1, 50542, Note_off_c, 0, 71, 61
1, 50544, Control_c, 0, 64, 77
1, 50558, Control_c, 0, 64, 80
1, 50573, Control_c, 0, 64, 83
1, 50588, Control_c, 0, 64, 85
1, 50591, Note_on_c, 0, 83, 71
1, 50603, Control_c, 0, 64, 90
1, 50615, Note_off_c, 0, 83, 68
1, 50618, Control_c, 0, 64, 94
1, 50633, Control_c, 0, 64, 96
1, 50692, Control_c, 0, 64, 95
1, 50707, Control_c, 0, 64, 89
1, 50709, Note_on_c, 0, 73, 52
1, 50722, Control_c, 0, 64, 78
1, 50736, Control_c, 0, 64, 66
1, 50738, Note_on_c, 0, 100, 74
1, 50746, Note_on_c, 0, 81, 50
1, 50747, Note_on_c, 0, 88, 64
1, 50751, Control_c, 0, 64, 53
1, 50766, Control_c, 0, 64, 42
1, 50776, Note_off_c, 0, 88, 67
1, 50781, Control_c, 0, 64, 45
1, 50796, Control_c, 0, 64, 57
1, 50806, Note_off_c, 0, 81, 45
1, 50810, Control_c, 0, 64, 66
1, 50825, Control_c, 0, 64, 71
1, 50836, Note_off_c, 0, 100, 46
1, 50840, Control_c, 0, 64, 78
1, 50846, Note_on_c, 0, 99, 65
1, 50855, Control_c, 0, 64, 83
1, 50861, Note_on_c, 0, 93, 49
1, 50870, Control_c, 0, 64, 86
1, 50880, Note_off_c, 0, 93, 62
1, 50881, Note_off_c, 0, 99, 64
1, 50884, Control_c, 0, 64, 90
1, 50899, Control_c, 0, 64, 95
1, 50914, Control_c, 0, 64, 101
1, 50928, Control_c, 0, 64, 110
1, 50936, Note_off_c, 0, 73, 30
1, 50943, Control_c, 0, 64, 124
1, 50953, Note_on_c, 0, 97, 80
1, 50958, Control_c, 0, 64, 127
1, 50970, Note_on_c, 0, 85, 56
1, 50980, Note_off_c, 0, 97, 62
1, 50987, Note_off_c, 0, 85, 62
1, 51071, Note_on_c, 0, 95, 63
1, 51080, Note_on_c, 0, 88, 52
1, 51098, Note_off_c, 0, 95, 65
1, 51099, Note_off_c, 0, 88, 62
1, 51172, Control_c, 0, 64, 98
1, 51187, Note_on_c, 0, 94, 68
1, 51187, Control_c, 0, 64, 78
1, 51196, Note_on_c, 0, 74, 50
1, 51197, Note_on_c, 0, 83, 61
1, 51199, Note_on_c, 0, 77, 48
1, 51202, Control_c, 0, 64, 63
1, 51215, Note_off_c, 0, 83, 63
1, 51217, Control_c, 0, 64, 51
1, 51232, Control_c, 0, 64, 48
1, 51243, Note_off_c, 0, 74, 49
1, 51244, Note_off_c, 0, 77, 44
1, 51247, Control_c, 0, 64, 55
1, 51262, Control_c, 0, 64, 63
1, 51277, Control_c, 0, 64, 69
1, 51291, Control_c, 0, 64, 77
1, 51306, Note_on_c, 0, 92, 64
1, 51306, Control_c, 0, 64, 88
1, 51321, Control_c, 0, 64, 95
1, 51324, Note_on_c, 0, 89, 58
1, 51332, Note_off_c, 0, 94, 35
1, 51336, Control_c, 0, 64, 102
1, 51351, Control_c, 0, 64, 113
1, 51365, Control_c, 0, 64, 127
1, 51370, Note_off_c, 0, 89, 55
1, 51404, Note_off_c, 0, 92, 54
1, 51425, Control_c, 0, 64, 124
1, 51439, Control_c, 0, 64, 95
1, 51451, Note_on_c, 0, 91, 68
1, 51454, Control_c, 0, 64, 78
1, 51463, Note_on_c, 0, 75, 52
1, 51469, Control_c, 0, 64, 65
1, 51484, Control_c, 0, 64, 51
1, 51490, Note_on_c, 0, 79, 27
1, 51499, Control_c, 0, 64, 32
1, 51513, Control_c, 0, 64, 23
1, 51520, Note_off_c, 0, 75, 52
1, 51528, Control_c, 0, 64, 35
1, 51542, Note_off_c, 0, 79, 42
1, 51543, Control_c, 0, 64, 51
1, 51557, Control_c, 0, 64, 62
1, 51560, Note_off_c, 0, 91, 0
1, 51560, Note_on_c, 0, 91, 17
1, 51572, Control_c, 0, 64, 68
1, 51587, Note_on_c, 0, 94, 63
1, 51587, Control_c, 0, 64, 73
1, 51591, Note_on_c, 0, 87, 47
1, 51602, Control_c, 0, 64, 79
1, 51607, Note_off_c, 0, 91, 58
1, 51613, Note_off_c, 0, 87, 58
1, 51617, Control_c, 0, 64, 86
1, 51631, Note_off_c, 0, 94, 57
1, 51631, Control_c, 0, 64, 93
1, 51646, Control_c, 0, 64, 102
1, 51661, Control_c, 0, 64, 110
1, 51676, Control_c, 0, 64, 118
1, 51691, Control_c, 0, 64, 127
1, 51700, Note_on_c, 0, 74, 53
1, 51732, Note_off_c, 0, 74, 64
1, 51812, Note_on_c, 0, 86, 55
1, 51840, Note_off_c, 0, 86, 64
1, 51894, Note_on_c, 0, 75, 52
1, 51925, Note_off_c, 0, 75, 60
1, 51970, Note_on_c, 0, 87, 58
1, 52001, Note_off_c, 0, 87, 62
1, 52026, Control_c, 0, 64, 97
1, 52038, Note_on_c, 0, 99, 65
1, 52041, Control_c, 0, 64, 81
1, 52055, Control_c, 0, 64, 70
1, 52070, Control_c, 0, 64, 63
1, 52100, Control_c, 0, 64, 68
1, 52102, Note_on_c, 0, 87, 58
1, 52115, Control_c, 0, 64, 76
1, 52123, Note_off_c, 0, 99, 60
1, 52129, Control_c, 0, 64, 95
1, 52133, Note_off_c, 0, 87, 66
1, 52144, Control_c, 0, 64, 127
1, 52185, Note_on_c, 0, 75, 60
1, 52234, Note_off_c, 0, 75, 54
1, 52260, Note_on_c, 0, 87, 61
1, 52287, Note_off_c, 0, 87, 68
1, 52342, Note_on_c, 0, 76, 55
1, 52373, Note_off_c, 0, 76, 61
1, 52400, Note_on_c, 0, 88, 67
1, 52442, Note_off_c, 0, 88, 50
1, 52481, Note_on_c, 0, 99, 67
1, 52507, Control_c, 0, 64, 103
1, 52522, Control_c, 0, 64, 81
1, 52537, Control_c, 0, 64, 66
1, 52552, Control_c, 0, 64, 62
1, 52555, Note_on_c, 0, 87, 61
1, 52567, Control_c, 0, 64, 66
1, 52573, Note_off_c, 0, 99, 61
1, 52581, Control_c, 0, 64, 75
1, 52585, Note_off_c, 0, 87, 65
1, 52596, Control_c, 0, 64, 92
1, 52611, Control_c, 0, 64, 127
1, 52636, Note_on_c, 0, 76, 63
1, 52673, Note_off_c, 0, 76, 58
1, 52704, Note_on_c, 0, 88, 64
1, 52737, Note_off_c, 0, 88, 60
1, 52772, Note_on_c, 0, 77, 69
1, 52797, Note_off_c, 0, 77, 67
1, 52848, Note_on_c, 0, 89, 67
1, 52874, Note_off_c, 0, 89, 65
1, 52923, Note_on_c, 0, 99, 73
1, 52967, Control_c, 0, 64, 104
1, 52977, Note_on_c, 0, 87, 61
1, 52982, Control_c, 0, 64, 81
1, 52997, Note_off_c, 0, 99, 62
1, 52997, Control_c, 0, 64, 68
1, 53003, Note_off_c, 0, 87, 63
1, 53011, Control_c, 0, 64, 61
1, 53026, Control_c, 0, 64, 64
1, 53032, Note_on_c, 0, 78, 62
1, 53041, Control_c, 0, 64, 74
1, 53056, Control_c, 0, 64, 93
1, 53071, Control_c, 0, 64, 127
1, 53089, Note_off_c, 0, 78, 55
1, 53107, Note_on_c, 0, 90, 72
1, 53132, Note_off_c, 0, 90, 66
1, 53180, Note_on_c, 0, 99, 79
1, 53239, Note_on_c, 0, 87, 72
1, 53265, Note_off_c, 0, 99, 64
1, 53272, Note_off_c, 0, 87, 66
1, 53307, Note_on_c, 0, 79, 69
1, 53343, Note_off_c, 0, 79, 53
1, 53368, Note_on_c, 0, 91, 76
1, 53399, Note_off_c, 0, 91, 64
1, 53450, Note_on_c, 0, 99, 83
1, 53507, Note_on_c, 0, 87, 72
1, 53527, Note_off_c, 0, 99, 64
1, 53534, Note_off_c, 0, 87, 66
1, 53566, Note_on_c, 0, 80, 64
1, 53599, Note_off_c, 0, 80, 61
1, 53651, Note_on_c, 0, 92, 64
1, 53667, Note_off_c, 0, 92, 64
1, 53715, Control_c, 0, 64, 86
1, 53730, Control_c, 0, 64, 68
1, 53742, Note_on_c, 0, 99, 69
1, 53745, Control_c, 0, 64, 57
1, 53760, Control_c, 0, 64, 59
1, 53767, Note_off_c, 0, 99, 69
1, 53775, Control_c, 0, 64, 67
1, 53789, Control_c, 0, 64, 78
1, 53804, Control_c, 0, 64, 102
1, 53819, Control_c, 0, 64, 127
1, 53854, Note_on_c, 0, 81, 64
1, 53873, Note_off_c, 0, 81, 66
1, 53945, Note_on_c, 0, 99, 76
1, 53963, Note_off_c, 0, 99, 67
1, 54040, Note_on_c, 0, 82, 66
1, 54056, Note_off_c, 0, 82, 68
1, 54121, Note_on_c, 0, 99, 73
1, 54142, Note_off_c, 0, 99, 71
1, 54197, Note_on_c, 0, 83, 71
1, 54213, Note_off_c, 0, 83, 69
1, 54264, Note_on_c, 0, 99, 85
1, 54308, Note_off_c, 0, 99, 67
1, 54345, Note_on_c, 0, 84, 77
1, 54365, Note_off_c, 0, 84, 70
1, 54414, Note_on_c, 0, 99, 88
1, 54451, Note_off_c, 0, 99, 66
1, 54489, Note_on_c, 0, 85, 81
1, 54515, Note_off_c, 0, 85, 61
1, 54564, Note_on_c, 0, 99, 85
1, 54621, Note_off_c, 0, 99, 67
1, 54643, Note_on_c, 0, 86, 79
1, 54680, Note_off_c, 0, 86, 62
1, 54701, Control_c, 0, 64, 108
1, 54716, Control_c, 0, 64, 82
1, 54728, Note_on_c, 0, 99, 83
1, 54731, Control_c, 0, 64, 65
1, 54753, Control_c, 0, 64, 48
1, 54768, Control_c, 0, 64, 13
1, 54782, Control_c, 0, 64, 0
1, 54827, Control_c, 0, 64, 35
1, 54828, Note_on_c, 0, 87, 68
1, 54828, Note_off_c, 0, 99, 64
1, 54842, Control_c, 0, 64, 54
1, 54857, Control_c, 0, 64, 64
1, 54859, Note_off_c, 0, 87, 61
1, 54872, Control_c, 0, 64, 70
1, 54886, Control_c, 0, 64, 76
1, 54901, Control_c, 0, 64, 85
1, 54916, Note_on_c, 0, 99, 68
1, 54916, Control_c, 0, 64, 96
1, 54931, Control_c, 0, 64, 105
1, 54946, Control_c, 0, 64, 115
1, 54961, Control_c, 0, 64, 127
1, 54971, Note_off_c, 0, 99, 62
1, 55017, Note_on_c, 0, 87, 56
1, 55038, Note_off_c, 0, 87, 59
1, 55091, Note_on_c, 0, 99, 67
1, 55144, Note_off_c, 0, 99, 57
1, 55185, Note_on_c, 0, 87, 46
1, 55222, Note_off_c, 0, 87, 63
1, 55268, Note_on_c, 0, 99, 66
1, 55327, Note_off_c, 0, 99, 61
1, 55380, Note_on_c, 0, 87, 55
1, 55407, Note_off_c, 0, 87, 62
1, 55462, Note_on_c, 0, 99, 61
1, 55530, Note_off_c, 0, 99, 60
1, 55591, Note_on_c, 0, 87, 53
1, 55614, Note_off_c, 0, 87, 57
1, 55671, Note_on_c, 0, 99, 59
1, 55739, Note_off_c, 0, 99, 58
1, 55770, Note_on_c, 0, 87, 51
1, 55805, Note_off_c, 0, 87, 64
1, 55874, Note_on_c, 0, 99, 63
1, 55900, Note_off_c, 0, 99, 70
1, 56009, Note_on_c, 0, 87, 51
1, 56029, Note_off_c, 0, 87, 59
1, 56114, Note_on_c, 0, 75, 58
1, 56142, Note_off_c, 0, 75, 65
1, 56214, Note_on_c, 0, 87, 54
1, 56241, Note_off_c, 0, 87, 64
1, 56329, Note_on_c, 0, 99, 73
1, 56345, Note_off_c, 0, 99, 69
1, 56434, Note_on_c, 0, 87, 72
1, 56459, Note_off_c, 0, 87, 67
1, 56552, Note_on_c, 0, 75, 55
1, 56573, Note_off_c, 0, 75, 61
1, 56639, Note_on_c, 0, 87, 64
1, 56666, Note_off_c, 0, 87, 67
1, 56750, Note_on_c, 0, 99, 70
1, 56765, Note_off_c, 0, 99, 68
1, 56880, Note_on_c, 0, 87, 39
1, 56908, Note_off_c, 0, 87, 48
1, 56960, Note_on_c, 0, 63, 49
1, 56977, Note_on_c, 0, 75, 55
1, 57000, Note_off_c, 0, 63, 63
1, 57006, Note_off_c, 0, 75, 63
1, 57083, Note_on_c, 0, 87, 55
1, 57110, Note_off_c, 0, 87, 64
1, 57211, Note_on_c, 0, 99, 56
1, 57214, Note_on_c, 0, 75, 58
1, 57228, Note_off_c, 0, 99, 62
1, 57232, Note_off_c, 0, 75, 63
1, 57251, Control_c, 0, 64, 109
1, 57266, Control_c, 0, 64, 88
1, 57281, Control_c, 0, 64, 73
1, 57295, Control_c, 0, 64, 62
1, 57310, Control_c, 0, 64, 50
1, 57325, Control_c, 0, 64, 37
1, 57334, Note_on_c, 0, 87, 48
1, 57340, Control_c, 0, 64, 32
1, 57355, Control_c, 0, 64, 31
1, 57357, Note_off_c, 0, 87, 59
1, 57429, Control_c, 0, 64, 32
1, 57444, Control_c, 0, 64, 32
1, 57455, Note_on_c, 0, 75, 48
1, 57477, Note_off_c, 0, 75, 61
1, 57548, Control_c, 0, 64, 33
1, 57549, Note_on_c, 0, 87, 60
1, 57563, Control_c, 0, 64, 33
1, 57578, Note_off_c, 0, 87, 66
1, 57578, Control_c, 0, 64, 34
1, 57593, Control_c, 0, 64, 35
1, 57608, Control_c, 0, 64, 36
1, 57623, Control_c, 0, 64, 38
1, 57638, Control_c, 0, 64, 39
1, 57666, Note_on_c, 0, 73, 60
1, 57666, Note_on_c, 0, 99, 69
1, 57681, Note_off_c, 0, 99, 67
1, 57693, Note_off_c, 0, 73, 69
1, 57763, Control_c, 0, 64, 38
1, 57803, Note_on_c, 0, 87, 55
1, 57823, Note_on_c, 0, 56, 53
1, 57832, Note_off_c, 0, 87, 64
1, 57848, Note_off_c, 0, 56, 61
1, 57918, Note_on_c, 0, 75, 54
1, 57922, Note_on_c, 0, 71, 64
1, 57941, Note_off_c, 0, 75, 64
1, 57951, Note_off_c, 0, 71, 68
1, 58014, Note_on_c, 0, 87, 61
1, 58040, Note_off_c, 0, 87, 64
1, 58074, Control_c, 0, 64, 39
1, 58089, Control_c, 0, 64, 39
1, 58104, Control_c, 0, 64, 40
1, 58118, Control_c, 0, 64, 41
1, 58124, Note_on_c, 0, 99, 64
1, 58125, Note_on_c, 0, 71, 65
1, 58139, Note_off_c, 0, 99, 67
1, 58153, Note_off_c, 0, 71, 68
1, 58192, Control_c, 0, 64, 40
1, 58207, Control_c, 0, 64, 40
1, 58222, Control_c, 0, 64, 38
1, 58237, Note_on_c, 0, 87, 54
1, 58237, Control_c, 0, 64, 38
1, 58262, Note_off_c, 0, 87, 63
1, 58321, Note_on_c, 0, 75, 67
1, 58323, Note_on_c, 0, 70, 60
1, 58341, Control_c, 0, 64, 38
1, 58344, Note_off_c, 0, 70, 64
1, 58345, Note_off_c, 0, 75, 69
1, 58401, Note_on_c, 0, 87, 64
1, 58425, Note_off_c, 0, 87, 69
1, 58520, Note_on_c, 0, 99, 75
1, 58521, Note_on_c, 0, 68, 62
1, 58529, Note_on_c, 0, 59, 50
1, 58537, Note_off_c, 0, 99, 67
1, 58547, Note_off_c, 0, 68, 68
1, 58559, Note_off_c, 0, 59, 64
1, 58616, Control_c, 0, 64, 38
1, 58628, Note_on_c, 0, 87, 66
1, 58630, Control_c, 0, 64, 37
1, 58645, Control_c, 0, 64, 36
1, 58658, Note_off_c, 0, 87, 65
1, 58661, Control_c, 0, 64, 36
1, 58720, Note_on_c, 0, 75, 66
1, 58727, Note_on_c, 0, 67, 61
1, 58745, Note_off_c, 0, 75, 67
1, 58746, Note_off_c, 0, 67, 63
1, 58780, Control_c, 0, 64, 36
1, 58807, Note_on_c, 0, 87, 68
1, 58831, Note_off_c, 0, 87, 69
1, 58868, Control_c, 0, 64, 37
1, 58913, Control_c, 0, 64, 37
1, 58917, Note_on_c, 0, 99, 75
1, 58930, Note_on_c, 0, 68, 55
1, 58930, Note_off_c, 0, 99, 71
1, 58942, Control_c, 0, 64, 38
1, 58949, Note_off_c, 0, 68, 63
1, 58957, Control_c, 0, 64, 39
1, 59001, Control_c, 0, 64, 38
1, 59016, Control_c, 0, 64, 38
1, 59029, Note_on_c, 0, 87, 64
1, 59031, Control_c, 0, 64, 37
1, 59046, Control_c, 0, 64, 37
1, 59059, Note_off_c, 0, 87, 65
1, 59061, Control_c, 0, 64, 36
1, 59110, Note_on_c, 0, 67, 51
1, 59115, Note_on_c, 0, 70, 53
1, 59119, Note_on_c, 0, 75, 69
1, 59136, Control_c, 0, 64, 37
1, 59149, Note_off_c, 0, 75, 62
1, 59151, Control_c, 0, 64, 37
1, 59195, Control_c, 0, 64, 37
1, 59212, Note_on_c, 0, 87, 69
1, 59236, Note_off_c, 0, 87, 69
1, 59324, Note_off_c, 0, 70, 50
1, 59325, Note_on_c, 0, 63, 57
1, 59328, Note_on_c, 0, 99, 71
1, 59333, Note_off_c, 0, 67, 47
1, 59349, Note_off_c, 0, 99, 67
1, 59355, Note_off_c, 0, 63, 66
1, 59424, Control_c, 0, 64, 36
1, 59435, Note_on_c, 0, 87, 66
1, 59454, Control_c, 0, 64, 36
1, 59464, Note_off_c, 0, 87, 65
1, 59469, Control_c, 0, 64, 35
1, 59527, Note_on_c, 0, 63, 60
1, 59529, Note_on_c, 0, 75, 69
1, 59553, Note_off_c, 0, 75, 67
1, 59554, Note_off_c, 0, 63, 67
1, 59572, Control_c, 0, 64, 35
1, 59602, Control_c, 0, 64, 35
1, 59613, Note_on_c, 0, 87, 68
1, 59635, Note_off_c, 0, 87, 70
1, 59716, Note_on_c, 0, 64, 66
1, 59717, Note_on_c, 0, 99, 77
1, 59721, Control_c, 0, 64, 35
1, 59728, Note_on_c, 0, 55, 53
1, 59739, Note_off_c, 0, 99, 71
1, 59743, Note_off_c, 0, 64, 66
1, 59757, Note_off_c, 0, 55, 63
1, 59810, Control_c, 0, 64, 35
1, 59827, Note_on_c, 0, 87, 69
1, 59839, Control_c, 0, 64, 33
1, 59854, Note_off_c, 0, 87, 67
1, 59854, Control_c, 0, 64, 32
1, 59918, Note_on_c, 0, 63, 57
1, 59925, Note_on_c, 0, 75, 65
1, 59947, Note_off_c, 0, 63, 66
1, 59951, Note_off_c, 0, 75, 66
1, 59959, Control_c, 0, 64, 32
1, 60019, Note_on_c, 0, 87, 71
1, 60042, Note_off_c, 0, 87, 69
1, 60121, Note_on_c, 0, 61, 59
1, 60125, Note_on_c, 0, 99, 71
1, 60150, Note_off_c, 0, 61, 67
1, 60151, Note_off_c, 0, 99, 68
1, 60159, Control_c, 0, 64, 33
1, 60233, Control_c, 0, 64, 32
1, 60243, Note_on_c, 0, 87, 60
1, 60278, Note_off_c, 0, 87, 63
1, 60330, Note_on_c, 0, 59, 53
1, 60338, Note_on_c, 0, 75, 66
1, 60339, Note_on_c, 0, 56, 50
1, 60361, Note_off_c, 0, 75, 69
1, 60366, Note_off_c, 0, 59, 64
1, 60373, Note_off_c, 0, 56, 64
1, 60423, Note_on_c, 0, 87, 65
1, 60448, Note_off_c, 0, 87, 68
1, 60455, Control_c, 0, 64, 32
1, 60536, Note_on_c, 0, 99, 70
1, 60541, Note_on_c, 0, 59, 45
1, 60559, Note_off_c, 0, 99, 67
1, 60566, Note_off_c, 0, 59, 57
1, 60573, Control_c, 0, 64, 32
1, 60654, Note_on_c, 0, 87, 62
1, 60677, Control_c, 0, 64, 32
1, 60684, Note_off_c, 0, 87, 65
1, 60723, Control_c, 0, 64, 32
1, 60753, Note_on_c, 0, 58, 45
1, 60758, Note_on_c, 0, 75, 60
1, 60787, Note_off_c, 0, 75, 66
1, 60789, Note_off_c, 0, 58, 63
1, 60850, Note_on_c, 0, 87, 66
1, 60863, Control_c, 0, 64, 32
1, 60874, Note_off_c, 0, 87, 69
1, 60878, Control_c, 0, 64, 31
1, 60965, Note_on_c, 0, 99, 69
1, 60970, Note_on_c, 0, 52, 50
1, 60976, Note_on_c, 0, 56, 34
1, 60988, Note_off_c, 0, 99, 67
1, 60996, Control_c, 0, 64, 32
1, 61001, Note_off_c, 0, 56, 55
1, 61007, Note_off_c, 0, 52, 65
1, 61085, Control_c, 0, 64, 31
1, 61087, Note_on_c, 0, 87, 56
1, 61100, Control_c, 0, 64, 31
1, 61114, Note_off_c, 0, 87, 63
1, 61115, Control_c, 0, 64, 30
1, 61194, Note_on_c, 0, 55, 45
1, 61195, Note_on_c, 0, 75, 59
1, 61224, Note_off_c, 0, 55, 59
1, 61225, Note_off_c, 0, 75, 67
1, 61263, Control_c, 0, 64, 30
1, 61278, Control_c, 0, 64, 29
1, 61292, Control_c, 0, 64, 28
1, 61306, Note_on_c, 0, 87, 58
1, 61331, Note_off_c, 0, 87, 64
1, 61337, Control_c, 0, 64, 28
1, 61352, Control_c, 0, 64, 27
1, 61424, Note_on_c, 0, 99, 62
1, 61430, Note_on_c, 0, 56, 33
1, 61441, Control_c, 0, 64, 27
1, 61450, Note_off_c, 0, 99, 68
1, 61456, Note_off_c, 0, 56, 52
1, 61538, Control_c, 0, 64, 26
1, 61558, Note_on_c, 0, 87, 55
1, 61588, Note_off_c, 0, 87, 64
1, 61641, Control_c, 0, 64, 27
1, 61671, Control_c, 0, 64, 27
1, 61676, Note_on_c, 0, 55, 38
1, 61680, Note_on_c, 0, 58, 37
1, 61700, Control_c, 0, 64, 27
1, 61702, Note_on_c, 0, 75, 43
1, 61728, Note_off_c, 0, 75, 57
1, 61774, Control_c, 0, 64, 26
1, 61809, Note_on_c, 0, 87, 51
1, 61833, Note_off_c, 0, 87, 63
1, 61925, Note_off_c, 0, 55, 37
1, 61926, Note_on_c, 0, 51, 47
1, 61931, Note_off_c, 0, 58, 30
1, 61933, Note_on_c, 0, 99, 63
1, 61949, Note_off_c, 0, 99, 68
1, 61952, Note_off_c, 0, 51, 61
1, 61966, Control_c, 0, 64, 27
1, 62059, Note_on_c, 0, 87, 54
1, 62079, Note_off_c, 0, 87, 62
1, 62144, Control_c, 0, 64, 28
1, 62159, Control_c, 0, 64, 28
1, 62161, Note_on_c, 0, 75, 58
1, 62187, Note_off_c, 0, 75, 65
1, 62247, Note_on_c, 0, 87, 63
1, 62254, Note_on_c, 0, 63, 50
1, 62274, Note_off_c, 0, 87, 67
1, 62345, Control_c, 0, 64, 29
1, 62364, Note_on_c, 0, 99, 70
1, 62369, Note_on_c, 0, 75, 66
1, 62374, Control_c, 0, 64, 29
1, 62389, Note_off_c, 0, 63, 54
1, 62389, Control_c, 0, 64, 30
1, 62390, Note_off_c, 0, 99, 69
1, 62394, Note_off_c, 0, 75, 66
1, 62405, Control_c, 0, 64, 32
1, 62420, Control_c, 0, 64, 34
1, 62449, Control_c, 0, 64, 33
1, 62464, Control_c, 0, 64, 33
1, 62479, Note_on_c, 0, 87, 59
1, 62479, Control_c, 0, 64, 32
1, 62510, Note_off_c, 0, 87, 65
1, 62538, Control_c, 0, 64, 33
1, 62568, Control_c, 0, 64, 34
1, 62582, Note_on_c, 0, 75, 55
1, 62583, Control_c, 0, 64, 36
1, 62598, Control_c, 0, 64, 38
1, 62602, Note_off_c, 0, 75, 63
1, 62628, Control_c, 0, 64, 37
1, 62657, Control_c, 0, 64, 37
1, 62661, Note_on_c, 0, 87, 66
1, 62689, Note_off_c, 0, 87, 65
1, 62702, Control_c, 0, 64, 36
1, 62716, Control_c, 0, 64, 35
1, 62759, Note_on_c, 0, 73, 60
1, 62760, Control_c, 0, 64, 36
1, 62768, Note_on_c, 0, 99, 65
1, 62783, Note_off_c, 0, 73, 66
1, 62788, Note_off_c, 0, 99, 66
1, 62834, Control_c, 0, 64, 36
1, 62849, Control_c, 0, 64, 37
1, 62867, Note_on_c, 0, 87, 70
1, 62899, Note_off_c, 0, 87, 61
1, 62904, Note_on_c, 0, 56, 24
1, 62905, Note_off_c, 0, 56, 127
1, 62938, Control_c, 0, 64, 37
1, 62965, Note_on_c, 0, 75, 68
1, 62968, Control_c, 0, 64, 37
1, 62970, Note_on_c, 0, 71, 66
1, 62997, Note_off_c, 0, 75, 68
1, 63006, Note_off_c, 0, 71, 68
1, 63049, Control_c, 0, 64, 36
1, 63056, Note_on_c, 0, 87, 67
1, 63064, Control_c, 0, 64, 36
1, 63079, Control_c, 0, 64, 35
1, 63080, Note_off_c, 0, 87, 69
1, 63108, Control_c, 0, 64, 34
1, 63125, Control_c, 0, 64, 34
1, 63139, Control_c, 0, 64, 33
1, 63154, Control_c, 0, 64, 33
1, 63161, Note_on_c, 0, 99, 73
1, 63172, Note_on_c, 0, 71, 62
1, 63185, Note_off_c, 0, 99, 71
1, 63201, Note_off_c, 0, 71, 67
1, 63243, Control_c, 0, 64, 31
1, 63258, Control_c, 0, 64, 30
1, 63266, Note_on_c, 0, 87, 73
1, 63272, Control_c, 0, 64, 29
1, 63287, Control_c, 0, 64, 29
1, 63292, Note_off_c, 0, 87, 66
1, 63317, Control_c, 0, 64, 28
1, 63346, Control_c, 0, 64, 29
1, 63352, Note_on_c, 0, 70, 63
1, 63361, Control_c, 0, 64, 30
1, 63363, Note_on_c, 0, 75, 64
1, 63376, Control_c, 0, 64, 30
1, 63380, Note_off_c, 0, 70, 64
1, 63388, Note_off_c, 0, 75, 69
1, 63445, Note_on_c, 0, 87, 71
1, 63468, Note_off_c, 0, 87, 68
1, 63538, Note_on_c, 0, 68, 64
1, 63539, Control_c, 0, 64, 31
1, 63540, Note_on_c, 0, 59, 61
1, 63553, Note_on_c, 0, 99, 54
1, 63554, Control_c, 0, 64, 31
1, 63565, Note_off_c, 0, 68, 68
1, 63572, Note_off_c, 0, 99, 62
1, 63577, Note_off_c, 0, 59, 63
1, 63643, Control_c, 0, 64, 31
1, 63657, Control_c, 0, 64, 30
1, 63659, Note_on_c, 0, 87, 58
1, 63672, Control_c, 0, 64, 29
1, 63690, Note_off_c, 0, 87, 64
1, 63739, Control_c, 0, 64, 30
1, 63750, Note_on_c, 0, 67, 65
1, 63751, Note_on_c, 0, 75, 69
1, 63776, Note_off_c, 0, 67, 65
1, 63776, Note_off_c, 0, 75, 67
1, 63834, Note_on_c, 0, 87, 70
1, 63858, Control_c, 0, 64, 29
1, 63859, Note_off_c, 0, 87, 69
1, 63918, Control_c, 0, 64, 30
1, 63945, Note_on_c, 0, 99, 69
1, 63947, Control_c, 0, 64, 30
1, 63948, Note_on_c, 0, 68, 55
1, 63962, Control_c, 0, 64, 31
1, 63970, Note_off_c, 0, 68, 61
1, 63970, Note_off_c, 0, 99, 69
1, 63977, Control_c, 0, 64, 34
1, 63992, Control_c, 0, 64, 34
1, 64021, Control_c, 0, 64, 33
1, 64036, Control_c, 0, 64, 32
1, 64049, Note_on_c, 0, 87, 66
1, 64066, Control_c, 0, 64, 32
1, 64076, Note_off_c, 0, 87, 66
1, 64139, Note_on_c, 0, 67, 50
1, 64139, Control_c, 0, 64, 34
1, 64141, Note_on_c, 0, 75, 65
1, 64142, Note_on_c, 0, 70, 54
1, 64154, Control_c, 0, 64, 36
1, 64169, Control_c, 0, 64, 36
1, 64170, Note_off_c, 0, 75, 65
1, 64199, Control_c, 0, 64, 36
1, 64226, Note_on_c, 0, 87, 70
1, 64232, Note_off_c, 0, 70, 0
1, 64232, Note_on_c, 0, 70, 9
1, 64244, Control_c, 0, 64, 36
1, 64251, Note_off_c, 0, 87, 69
1, 64258, Control_c, 0, 64, 36
1, 64288, Control_c, 0, 64, 35
1, 64318, Control_c, 0, 64, 36
1, 64332, Control_c, 0, 64, 37
1, 64333, Note_on_c, 0, 99, 76
1, 64342, Note_on_c, 0, 63, 56
1, 64347, Control_c, 0, 64, 38
1, 64351, Note_off_c, 0, 67, 52
1, 64357, Note_off_c, 0, 70, 57
1, 64358, Note_off_c, 0, 99, 68
1, 64369, Note_off_c, 0, 63, 64
1, 64406, Control_c, 0, 64, 38
1, 64421, Control_c, 0, 64, 39
1, 64436, Control_c, 0, 64, 40
1, 64440, Note_on_c, 0, 87, 59
1, 64451, Control_c, 0, 64, 39
1, 64459, Note_off_c, 0, 87, 64
1, 64466, Control_c, 0, 64, 38
1, 64488, Control_c, 0, 64, 39
1, 64503, Control_c, 0, 64, 40
1, 64518, Control_c, 0, 64, 42
1, 64533, Control_c, 0, 64, 43
1, 64542, Note_on_c, 0, 75, 66
1, 64562, Control_c, 0, 64, 43
1, 64571, Note_off_c, 0, 75, 64
1, 64619, Note_on_c, 0, 87, 59
1, 64636, Control_c, 0, 64, 41
1, 64651, Control_c, 0, 64, 38
1, 64665, Control_c, 0, 64, 36
1, 64670, Note_off_c, 0, 87, 53
1, 64695, Control_c, 0, 64, 36
1, 64737, Note_on_c, 0, 76, 68
1, 64738, Note_on_c, 0, 61, 53
1, 64756, Note_on_c, 0, 70, 34
1, 64761, Note_off_c, 0, 76, 68
1, 64762, Note_off_c, 0, 61, 63
1, 64788, Note_off_c, 0, 70, 47
1, 64815, Control_c, 0, 64, 36
1, 64832, Note_on_c, 0, 87, 59
1, 64859, Control_c, 0, 64, 36
1, 64902, Note_off_c, 0, 87, 51
1, 64942, Note_on_c, 0, 75, 68
1, 64948, Control_c, 0, 64, 37
1, 64950, Note_on_c, 0, 70, 46
1, 64951, Note_on_c, 0, 63, 49
1, 64952, Note_on_c, 0, 68, 39
1, 64967, Note_off_c, 0, 75, 67
1, 64976, Note_off_c, 0, 70, 56
1, 64977, Control_c, 0, 64, 36
1, 64979, Note_off_c, 0, 68, 52
1, 64980, Note_off_c, 0, 63, 62
1, 64992, Control_c, 0, 64, 36
1, 65019, Note_on_c, 0, 87, 66
1, 65086, Note_off_c, 0, 87, 59
1, 65096, Control_c, 0, 64, 35
1, 65135, Note_on_c, 0, 70, 49
1, 65138, Note_on_c, 0, 68, 36
1, 65143, Note_on_c, 0, 73, 68
1, 65151, Note_on_c, 0, 64, 51
1, 65167, Note_off_c, 0, 73, 69
1, 65168, Note_off_c, 0, 70, 64
1, 65170, Control_c, 0, 64, 34
1, 65176, Note_off_c, 0, 68, 65
1, 65177, Note_off_c, 0, 64, 61
1, 65185, Control_c, 0, 64, 32
1, 65200, Control_c, 0, 64, 30
1, 65215, Control_c, 0, 64, 28
1, 65224, Note_on_c, 0, 87, 63
1, 65236, Control_c, 0, 64, 27
1, 65251, Control_c, 0, 64, 23
1, 65266, Control_c, 0, 64, 12
1, 65281, Control_c, 0, 64, 0
1, 65319, Note_off_c, 0, 87, 55
1, 65340, Control_c, 0, 64, 19
1, 65347, Note_on_c, 0, 71, 49
1, 65351, Note_on_c, 0, 68, 43
1, 65353, Note_on_c, 0, 63, 46
1, 65355, Control_c, 0, 64, 28
1, 65365, Note_on_c, 0, 75, 64
1, 65370, Control_c, 0, 64, 31
1, 65375, Note_off_c, 0, 71, 59
1, 65380, Note_off_c, 0, 68, 56
1, 65384, Note_off_c, 0, 63, 62
1, 65385, Control_c, 0, 64, 30
1, 65394, Note_off_c, 0, 75, 68
1, 65400, Control_c, 0, 64, 29
1, 65451, Note_on_c, 0, 87, 57
1, 65474, Control_c, 0, 64, 29
1, 65488, Control_c, 0, 64, 28
1, 65503, Control_c, 0, 64, 27
1, 65551, Note_off_c, 0, 87, 50
1, 65564, Control_c, 0, 64, 27
1, 65571, Note_on_c, 0, 80, 62
1, 65579, Control_c, 0, 64, 26
1, 65598, Note_off_c, 0, 80, 65
1, 65623, Control_c, 0, 64, 26
1, 65638, Control_c, 0, 64, 24
1, 65653, Control_c, 0, 64, 24
1, 65660, Note_on_c, 0, 83, 68
1, 65685, Note_off_c, 0, 83, 68
1, 65711, Control_c, 0, 64, 23
1, 65741, Control_c, 0, 64, 24
1, 65765, Note_on_c, 0, 87, 80
1, 65795, Note_off_c, 0, 87, 64
1, 65830, Control_c, 0, 64, 24
1, 65868, Note_on_c, 0, 99, 72
1, 65883, Note_on_c, 0, 63, 39
1, 65892, Note_off_c, 0, 99, 70
1, 65931, Note_on_c, 0, 67, 35
1, 65978, Control_c, 0, 64, 25
1, 66000, Note_on_c, 0, 73, 64
1, 66014, Note_on_c, 0, 75, 66
1, 66015, Control_c, 0, 64, 25
1, 66026, Note_off_c, 0, 73, 67
1, 66030, Control_c, 0, 64, 26
1, 66031, Note_off_c, 0, 75, 66
1, 66035, Note_off_c, 0, 67, 56
1, 66036, Note_off_c, 0, 63, 56
1, 66089, Control_c, 0, 64, 26
1, 66104, Control_c, 0, 64, 28
1, 66110, Note_on_c, 0, 87, 62
1, 66119, Control_c, 0, 64, 28
1, 66153, Note_off_c, 0, 87, 52
1, 66192, Control_c, 0, 64, 28
1, 66221, Note_on_c, 0, 79, 61
1, 66222, Control_c, 0, 64, 27
1, 66241, Note_off_c, 0, 79, 65
1, 66312, Control_c, 0, 64, 28
1, 66327, Control_c, 0, 64, 28
1, 66329, Note_on_c, 0, 82, 57
1, 66348, Note_off_c, 0, 82, 64
1, 66401, Control_c, 0, 64, 29
1, 66415, Control_c, 0, 64, 31
1, 66430, Control_c, 0, 64, 32
1, 66434, Note_on_c, 0, 87, 70
1, 66465, Note_off_c, 0, 87, 63
1, 66519, Control_c, 0, 64, 31
1, 66533, Control_c, 0, 64, 30
1, 66548, Control_c, 0, 64, 29
1, 66551, Note_on_c, 0, 99, 68
1, 66563, Control_c, 0, 64, 28
1, 66578, Control_c, 0, 64, 26
1, 66580, Note_off_c, 0, 99, 68
1, 66593, Control_c, 0, 64, 19
1, 66607, Control_c, 0, 64, 0
1, 66667, Control_c, 0, 64, 18
1, 66682, Control_c, 0, 64, 43
1, 66697, Control_c, 0, 64, 58
1, 66712, Control_c, 0, 64, 62
1, 66721, Note_on_c, 0, 56, 33
1, 66727, Control_c, 0, 64, 64
1, 66748, Control_c, 0, 64, 66
1, 66763, Control_c, 0, 64, 70
1, 66778, Control_c, 0, 64, 74
1, 66793, Control_c, 0, 64, 78
1, 66808, Control_c, 0, 64, 82
1, 66822, Control_c, 0, 64, 84
1, 66836, Note_on_c, 0, 63, 48
1, 66837, Control_c, 0, 64, 86
1, 66852, Control_c, 0, 64, 89
1, 66867, Control_c, 0, 64, 91
1, 66882, Control_c, 0, 64, 94
1, 66897, Control_c, 0, 64, 97
1, 66908, Note_off_c, 0, 63, 39
1, 66911, Control_c, 0, 64, 99
1, 66926, Control_c, 0, 64, 101
1, 66939, Note_off_c, 0, 56, 15
1, 66941, Control_c, 0, 64, 101
1, 66963, Note_on_c, 0, 71, 55
1, 66986, Note_off_c, 0, 71, 62
1, 67001, Control_c, 0, 64, 102
1, 67015, Control_c, 0, 64, 102
1, 67072, Note_on_c, 0, 80, 59
1, 67102, Note_off_c, 0, 80, 64
1, 67201, Note_on_c, 0, 75, 57
1, 67209, Control_c, 0, 64, 102
1, 67221, Note_off_c, 0, 75, 64
1, 67224, Control_c, 0, 64, 101
1, 67268, Control_c, 0, 64, 100
1, 67270, Note_on_c, 0, 87, 56
1, 67282, Control_c, 0, 64, 98
1, 67287, Note_off_c, 0, 87, 64
1, 67342, Control_c, 0, 64, 97
1, 67356, Control_c, 0, 64, 96
1, 67365, Note_on_c, 0, 87, 53
1, 67385, Note_off_c, 0, 87, 61
1, 67416, Control_c, 0, 64, 96
1, 67445, Note_on_c, 0, 87, 28
1, 67496, Note_off_c, 0, 87, 0
1, 67496, Note_on_c, 0, 87, 16
1, 67525, Note_off_c, 0, 87, 53
1, 67546, Note_on_c, 0, 99, 71
1, 67570, Note_off_c, 0, 99, 67
1, 67636, Note_on_c, 0, 87, 71
1, 67645, Control_c, 0, 64, 95
1, 67660, Control_c, 0, 64, 95
1, 67663, Note_off_c, 0, 87, 66
1, 67706, Note_on_c, 0, 87, 68
1, 67719, Control_c, 0, 64, 93
1, 67734, Note_off_c, 0, 87, 64
1, 67734, Control_c, 0, 64, 91
1, 67749, Control_c, 0, 64, 89
1, 67756, Note_on_c, 0, 99, 68
1, 67763, Control_c, 0, 64, 87
1, 67770, Note_off_c, 0, 99, 68
1, 67778, Control_c, 0, 64, 85
1, 67793, Control_c, 0, 64, 81
1, 67807, Control_c, 0, 64, 76
1, 67822, Control_c, 0, 64, 71
1, 67837, Control_c, 0, 64, 67
1, 67852, Control_c, 0, 64, 64
1, 67860, Note_on_c, 0, 85, 70
1, 67867, Control_c, 0, 64, 62
1, 67881, Control_c, 0, 64, 58
1, 67882, Note_off_c, 0, 85, 69
1, 67896, Control_c, 0, 64, 54
1, 67912, Control_c, 0, 64, 49
1, 67927, Control_c, 0, 64, 43
1, 67942, Control_c, 0, 64, 38
1, 67946, Note_on_c, 0, 85, 62
1, 67957, Control_c, 0, 64, 35
1, 67964, Note_off_c, 0, 85, 63
1, 67972, Control_c, 0, 64, 34
1, 67976, Note_on_c, 0, 97, 73
1, 67986, Control_c, 0, 64, 35
1, 67996, Note_off_c, 0, 97, 71
1, 68001, Control_c, 0, 64, 41
1, 68016, Control_c, 0, 64, 52
1, 68031, Control_c, 0, 64, 59
1, 68046, Control_c, 0, 64, 63
1, 68060, Control_c, 0, 64, 66
1, 68075, Control_c, 0, 64, 69
1, 68087, Note_on_c, 0, 44, 50
1, 68090, Control_c, 0, 64, 72
1, 68094, Note_on_c, 0, 83, 67
1, 68104, Control_c, 0, 64, 76
1, 68119, Note_off_c, 0, 83, 68
1, 68119, Control_c, 0, 64, 80
1, 68134, Control_c, 0, 64, 83
1, 68146, Note_off_c, 0, 44, 52
1, 68149, Control_c, 0, 64, 85
1, 68164, Control_c, 0, 64, 87
1, 68178, Control_c, 0, 64, 89
1, 68182, Note_on_c, 0, 83, 62
1, 68193, Control_c, 0, 64, 91
1, 68202, Note_off_c, 0, 83, 62
1, 68208, Control_c, 0, 64, 92
1, 68230, Control_c, 0, 64, 94
1, 68236, Note_on_c, 0, 95, 68
1, 68245, Control_c, 0, 64, 95
1, 68261, Note_off_c, 0, 95, 67
1, 68333, Note_on_c, 0, 83, 60
1, 68346, Note_on_c, 0, 59, 47
1, 68351, Note_on_c, 0, 51, 45
1, 68362, Note_off_c, 0, 83, 67
1, 68364, Control_c, 0, 64, 94
1, 68378, Note_off_c, 0, 59, 54
1, 68378, Control_c, 0, 64, 94
1, 68383, Note_off_c, 0, 51, 52
1, 68424, Note_on_c, 0, 83, 69
1, 68438, Note_off_c, 0, 83, 68
1, 68455, Note_on_c, 0, 95, 63
1, 68471, Note_off_c, 0, 95, 64
1, 68512, Control_c, 0, 64, 93
1, 68527, Control_c, 0, 64, 93
1, 68542, Control_c, 0, 64, 92
1, 68553, Note_on_c, 0, 51, 44
1, 68555, Note_on_c, 0, 82, 71
1, 68557, Control_c, 0, 64, 92
1, 68558, Note_on_c, 0, 59, 39
1, 68572, Control_c, 0, 64, 91
1, 68578, Note_off_c, 0, 82, 69
1, 68586, Control_c, 0, 64, 90
1, 68588, Note_off_c, 0, 59, 53
1, 68593, Note_off_c, 0, 51, 62
1, 68601, Control_c, 0, 64, 87
1, 68616, Control_c, 0, 64, 83
1, 68630, Note_on_c, 0, 82, 56
1, 68630, Control_c, 0, 64, 77
1, 68645, Control_c, 0, 64, 70
1, 68654, Note_off_c, 0, 82, 55
1, 68660, Control_c, 0, 64, 62
1, 68661, Note_on_c, 0, 94, 70
1, 68675, Control_c, 0, 64, 51
1, 68683, Note_off_c, 0, 94, 70
1, 68690, Control_c, 0, 64, 38
1, 68706, Control_c, 0, 64, 35
1, 68721, Control_c, 0, 64, 42
1, 68735, Control_c, 0, 64, 56
1, 68750, Control_c, 0, 64, 63
1, 68757, Note_on_c, 0, 47, 54
1, 68765, Control_c, 0, 64, 67
1, 68771, Note_on_c, 0, 80, 71
1, 68780, Control_c, 0, 64, 71
1, 68791, Note_off_c, 0, 47, 64
1, 68792, Note_off_c, 0, 80, 68
1, 68795, Control_c, 0, 64, 75
1, 68809, Control_c, 0, 64, 78
1, 68824, Control_c, 0, 64, 81
1, 68839, Control_c, 0, 64, 85
1, 68850, Note_on_c, 0, 80, 70
1, 68853, Control_c, 0, 64, 88
1, 68868, Control_c, 0, 64, 90
1, 68878, Note_off_c, 0, 80, 62
1, 68883, Control_c, 0, 64, 90
1, 68884, Note_on_c, 0, 92, 73
1, 68898, Control_c, 0, 64, 91
1, 68904, Note_off_c, 0, 92, 70
1, 68913, Control_c, 0, 64, 92
1, 68927, Control_c, 0, 64, 94
1, 68942, Control_c, 0, 64, 95
1, 68995, Control_c, 0, 64, 94
1, 68998, Note_on_c, 0, 79, 70
1, 69007, Note_on_c, 0, 63, 41
1, 69010, Note_on_c, 0, 56, 37
1, 69022, Note_off_c, 0, 79, 68
1, 69024, Control_c, 0, 64, 93
1, 69039, Control_c, 0, 64, 91
1, 69041, Note_off_c, 0, 56, 52
1, 69041, Note_off_c, 0, 63, 51
1, 69053, Control_c, 0, 64, 90
1, 69068, Control_c, 0, 64, 89
1, 69070, Note_on_c, 0, 79, 62
1, 69098, Note_off_c, 0, 79, 65
1, 69106, Note_on_c, 0, 91, 75
1, 69113, Control_c, 0, 64, 89
1, 69125, Note_off_c, 0, 91, 71
1, 69127, Control_c, 0, 64, 87
1, 69143, Control_c, 0, 64, 86
1, 69158, Control_c, 0, 64, 85
1, 69173, Control_c, 0, 64, 84
1, 69188, Control_c, 0, 64, 80
1, 69202, Control_c, 0, 64, 75
1, 69203, Note_on_c, 0, 63, 43
1, 69204, Note_on_c, 0, 80, 69
1, 69207, Note_on_c, 0, 56, 49
1, 69217, Control_c, 0, 64, 69
1, 69227, Note_off_c, 0, 80, 64
1, 69232, Control_c, 0, 64, 61
1, 69237, Note_off_c, 0, 63, 55
1, 69244, Note_off_c, 0, 56, 62
1, 69247, Control_c, 0, 64, 48
1, 69261, Control_c, 0, 64, 31
1, 69276, Control_c, 0, 64, 0
1, 69286, Note_on_c, 0, 80, 53
1, 69306, Note_off_c, 0, 80, 60
1, 69309, Note_on_c, 0, 92, 67
1, 69321, Control_c, 0, 64, 28
1, 69330, Note_off_c, 0, 92, 63
1, 69335, Control_c, 0, 64, 48
1, 69350, Control_c, 0, 64, 62
1, 69365, Control_c, 0, 64, 67
1, 69380, Control_c, 0, 64, 70
1, 69395, Control_c, 0, 64, 74
1, 69404, Note_on_c, 0, 82, 72
1, 69406, Note_on_c, 0, 51, 55
1, 69409, Control_c, 0, 64, 77
1, 69424, Control_c, 0, 64, 81
1, 69427, Note_off_c, 0, 82, 69
1, 69439, Control_c, 0, 64, 84
1, 69450, Note_off_c, 0, 51, 46
1, 69454, Control_c, 0, 64, 88
1, 69469, Control_c, 0, 64, 91
1, 69476, Note_on_c, 0, 82, 60
1, 69484, Control_c, 0, 64, 94
1, 69497, Note_off_c, 0, 82, 60
1, 69499, Control_c, 0, 64, 96
1, 69522, Note_on_c, 0, 94, 57
1, 69540, Note_off_c, 0, 94, 63
1, 69544, Control_c, 0, 64, 97
1, 69558, Control_c, 0, 64, 99
1, 69573, Control_c, 0, 64, 100
1, 69603, Control_c, 0, 64, 99
1, 69639, Note_on_c, 0, 67, 50
1, 69642, Note_on_c, 0, 75, 56
1, 69645, Note_on_c, 0, 58, 51
1, 69663, Control_c, 0, 64, 98
1, 69663, Note_off_c, 0, 75, 64
1, 69664, Note_off_c, 0, 67, 57
1, 69669, Note_off_c, 0, 58, 57
1, 69677, Control_c, 0, 64, 98
1, 69716, Note_on_c, 0, 75, 54
1, 69742, Note_off_c, 0, 75, 64
1, 69755, Note_on_c, 0, 87, 70
1, 69758, Control_c, 0, 64, 97
1, 69782, Note_off_c, 0, 87, 66
1, 69833, Control_c, 0, 64, 95
1, 69844, Note_on_c, 0, 75, 62
1, 69848, Control_c, 0, 64, 95
1, 69866, Note_on_c, 0, 58, 40
1, 69873, Note_off_c, 0, 75, 67
1, 69877, Note_on_c, 0, 67, 37
1, 69892, Control_c, 0, 64, 94
1, 69901, Note_off_c, 0, 58, 50
1, 69907, Control_c, 0, 64, 90
1, 69912, Note_off_c, 0, 67, 47
1, 69922, Control_c, 0, 64, 82
1, 69925, Note_on_c, 0, 75, 61
1, 69937, Control_c, 0, 64, 74
1, 69944, Note_off_c, 0, 75, 62
1, 69951, Control_c, 0, 64, 65
1, 69964, Note_on_c, 0, 87, 73
1, 69966, Control_c, 0, 64, 49
1, 69981, Control_c, 0, 64, 26
1, 69985, Note_off_c, 0, 87, 70
1, 69996, Control_c, 0, 64, 0
1, 70010, Control_c, 0, 64, 15
1, 70025, Control_c, 0, 64, 42
1, 70040, Control_c, 0, 64, 59
1, 70055, Control_c, 0, 64, 68
1, 70059, Note_on_c, 0, 55, 50
1, 70066, Note_on_c, 0, 76, 74
1, 70070, Control_c, 0, 64, 72
1, 70084, Control_c, 0, 64, 76
1, 70089, Note_off_c, 0, 76, 70
1, 70093, Note_off_c, 0, 55, 62
1, 70099, Control_c, 0, 64, 79
1, 70114, Control_c, 0, 64, 81
1, 70129, Control_c, 0, 64, 84
1, 70144, Control_c, 0, 64, 89
1, 70146, Note_on_c, 0, 76, 68
1, 70158, Control_c, 0, 64, 94
1, 70168, Note_off_c, 0, 76, 64
1, 70173, Control_c, 0, 64, 96
1, 70183, Note_on_c, 0, 88, 64
1, 70188, Control_c, 0, 64, 97
1, 70199, Note_off_c, 0, 88, 63
1, 70202, Control_c, 0, 64, 98
1, 70217, Control_c, 0, 64, 100
1, 70232, Control_c, 0, 64, 105
1, 70247, Control_c, 0, 64, 108
1, 70262, Control_c, 0, 64, 109
1, 70279, Note_on_c, 0, 75, 73
1, 70284, Note_on_c, 0, 70, 56
1, 70295, Note_on_c, 0, 63, 46
1, 70301, Note_off_c, 0, 75, 70
1, 70311, Note_off_c, 0, 70, 58
1, 70325, Note_off_c, 0, 63, 53
1, 70337, Control_c, 0, 64, 108
1, 70352, Control_c, 0, 64, 108
1, 70359, Note_on_c, 0, 75, 64
1, 70387, Note_off_c, 0, 75, 61
1, 70396, Note_on_c, 0, 87, 70
1, 70411, Control_c, 0, 64, 107
1, 70422, Note_off_c, 0, 87, 65
1, 70426, Control_c, 0, 64, 106
1, 70493, Control_c, 0, 64, 105
1, 70505, Note_on_c, 0, 73, 75
1, 70510, Note_on_c, 0, 70, 53
1, 70511, Note_on_c, 0, 63, 51
1, 70526, Note_off_c, 0, 73, 71
1, 70532, Note_off_c, 0, 70, 60
1, 70545, Note_off_c, 0, 63, 63
1, 70587, Note_on_c, 0, 73, 62
1, 70611, Control_c, 0, 64, 104
1, 70615, Note_on_c, 0, 85, 69
1, 70617, Note_off_c, 0, 73, 60
1, 70626, Control_c, 0, 64, 92
1, 70637, Note_off_c, 0, 85, 70
1, 70641, Control_c, 0, 64, 77
1, 70655, Control_c, 0, 64, 63
1, 70670, Control_c, 0, 64, 38
1, 70685, Control_c, 0, 64, 0
1, 70705, Note_on_c, 0, 56, 55
1, 70715, Control_c, 0, 64, 28
1, 70718, Note_on_c, 0, 71, 71
1, 70730, Control_c, 0, 64, 51
1, 70744, Note_off_c, 0, 71, 69
1, 70744, Note_off_c, 0, 56, 62
1, 70745, Control_c, 0, 64, 63
1, 70760, Control_c, 0, 64, 69
1, 70774, Control_c, 0, 64, 75
1, 70789, Control_c, 0, 64, 79
1, 70804, Note_on_c, 0, 71, 69
1, 70804, Control_c, 0, 64, 80
1, 70819, Control_c, 0, 64, 83
1, 70825, Note_off_c, 0, 71, 63
1, 70833, Control_c, 0, 64, 88
1, 70838, Note_on_c, 0, 83, 75
1, 70848, Control_c, 0, 64, 94
1, 70862, Note_off_c, 0, 83, 67
1, 70863, Control_c, 0, 64, 99
1, 70878, Control_c, 0, 64, 101
1, 70933, Note_on_c, 0, 71, 61
1, 70951, Note_on_c, 0, 68, 57
1, 70958, Note_on_c, 0, 63, 50
1, 70965, Note_off_c, 0, 71, 67
1, 70971, Note_off_c, 0, 68, 65
1, 70985, Note_off_c, 0, 63, 60
1, 71011, Control_c, 0, 64, 100
1, 71016, Note_on_c, 0, 71, 63
1, 71025, Control_c, 0, 64, 99
1, 71049, Note_on_c, 0, 83, 75
1, 71049, Note_off_c, 0, 71, 58
1, 71071, Note_off_c, 0, 83, 70
1, 71085, Control_c, 0, 64, 98
1, 71101, Control_c, 0, 64, 96
1, 71159, Note_on_c, 0, 70, 76
1, 71160, Control_c, 0, 64, 95
1, 71171, Note_on_c, 0, 63, 48
1, 71175, Control_c, 0, 64, 91
1, 71185, Note_off_c, 0, 70, 66
1, 71190, Control_c, 0, 64, 87
1, 71200, Note_off_c, 0, 63, 58
1, 71204, Control_c, 0, 64, 84
1, 71227, Control_c, 0, 64, 81
1, 71242, Control_c, 0, 64, 77
1, 71250, Note_on_c, 0, 70, 69
1, 71256, Control_c, 0, 64, 72
1, 71271, Note_off_c, 0, 70, 58
1, 71271, Control_c, 0, 64, 65
1, 71281, Note_on_c, 0, 82, 67
1, 71286, Control_c, 0, 64, 53
1, 71301, Control_c, 0, 64, 36
1, 71306, Note_off_c, 0, 82, 69
1, 71316, Control_c, 0, 64, 0
1, 71387, Note_on_c, 0, 68, 69
1, 71389, Note_on_c, 0, 59, 60
1, 71389, Control_c, 0, 64, 15
1, 71404, Control_c, 0, 64, 40
1, 71411, Note_off_c, 0, 68, 69
1, 71419, Control_c, 0, 64, 54
1, 71429, Note_off_c, 0, 59, 63
1, 71434, Control_c, 0, 64, 62
1, 71449, Control_c, 0, 64, 64
1, 71463, Control_c, 0, 64, 66
1, 71473, Note_on_c, 0, 68, 66
1, 71478, Control_c, 0, 64, 67
1, 71493, Control_c, 0, 64, 71
1, 71506, Note_off_c, 0, 68, 61
1, 71508, Control_c, 0, 64, 74
1, 71517, Note_on_c, 0, 80, 68
1, 71523, Control_c, 0, 64, 78
1, 71538, Control_c, 0, 64, 80
1, 71539, Note_off_c, 0, 80, 68
1, 71553, Control_c, 0, 64, 82
1, 71568, Control_c, 0, 64, 82
1, 71620, Note_on_c, 0, 67, 72
1, 71624, Note_on_c, 0, 62, 52
1, 71630, Note_on_c, 0, 65, 49
1, 71642, Control_c, 0, 64, 82
1, 71645, Note_off_c, 0, 67, 69
1, 71653, Note_off_c, 0, 62, 59
1, 71654, Note_off_c, 0, 65, 57
1, 71656, Control_c, 0, 64, 81
1, 71686, Control_c, 0, 64, 81
1, 71711, Note_on_c, 0, 67, 69
1, 71726, Note_off_c, 0, 67, 66
1, 71749, Note_on_c, 0, 79, 69
1, 71775, Note_off_c, 0, 79, 68
1, 71854, Note_on_c, 0, 62, 55
1, 71854, Note_on_c, 0, 68, 69
1, 71857, Note_on_c, 0, 65, 42
1, 71879, Note_off_c, 0, 62, 62
1, 71883, Note_off_c, 0, 68, 67
1, 71886, Note_off_c, 0, 65, 49
1, 71924, Control_c, 0, 64, 81
1, 71955, Note_on_c, 0, 68, 56
1, 71976, Control_c, 0, 64, 80
1, 71979, Note_off_c, 0, 68, 65
1, 71991, Control_c, 0, 64, 78
1, 71996, Note_on_c, 0, 80, 57
1, 72005, Control_c, 0, 64, 74
1, 72017, Note_off_c, 0, 80, 60
1, 72020, Control_c, 0, 64, 69
1, 72035, Control_c, 0, 64, 61
1, 72050, Control_c, 0, 64, 44
1, 72065, Control_c, 0, 64, 0
1, 72110, Note_on_c, 0, 51, 50
1, 72123, Note_on_c, 0, 70, 57
1, 72124, Control_c, 0, 64, 34
1, 72139, Control_c, 0, 64, 54
1, 72149, Note_off_c, 0, 70, 63
1, 72153, Control_c, 0, 64, 64
1, 72168, Control_c, 0, 64, 69
1, 72169, Note_off_c, 0, 51, 54
1, 72183, Control_c, 0, 64, 74
1, 72197, Control_c, 0, 64, 79
1, 72212, Control_c, 0, 64, 83
1, 72227, Control_c, 0, 64, 87
1, 72228, Note_on_c, 0, 70, 54
1, 72242, Control_c, 0, 64, 92
1, 72248, Note_off_c, 0, 70, 61
1, 72257, Control_c, 0, 64, 97
1, 72272, Control_c, 0, 64, 101
1, 72286, Control_c, 0, 64, 102
1, 72301, Control_c, 0, 64, 103
1, 72326, Note_on_c, 0, 82, 50
1, 72348, Note_off_c, 0, 82, 59
1, 72361, Control_c, 0, 64, 103
1, 72375, Control_c, 0, 64, 104
1, 72390, Note_on_c, 0, 58, 55
1, 72412, Note_on_c, 0, 67, 49
1, 72420, Control_c, 0, 64, 105
1, 72430, Note_off_c, 0, 58, 63
1, 72435, Control_c, 0, 64, 106
1, 72438, Note_off_c, 0, 67, 55
1, 72450, Control_c, 0, 64, 106
1, 72465, Control_c, 0, 64, 107
1, 72479, Control_c, 0, 64, 107
1, 72482, Note_on_c, 0, 63, 44
1, 72539, Note_off_c, 0, 63, 0
1, 72549, Note_on_c, 0, 63, 45
1, 72573, Note_off_c, 0, 63, 61
1, 72612, Control_c, 0, 64, 107
1, 72623, Note_on_c, 0, 75, 65
1, 72627, Control_c, 0, 64, 104
1, 72642, Control_c, 0, 64, 101
1, 72649, Note_off_c, 0, 75, 66
1, 72657, Control_c, 0, 64, 101
1, 72708, Note_on_c, 0, 75, 72
1, 72737, Note_off_c, 0, 75, 71
1, 72786, Note_on_c, 0, 75, 63
1, 72812, Note_off_c, 0, 75, 67
1, 72814, Control_c, 0, 64, 101
1, 72828, Control_c, 0, 64, 102
1, 72854, Note_on_c, 0, 75, 68
1, 72879, Note_off_c, 0, 75, 68
1, 72921, Note_on_c, 0, 87, 73
1, 72932, Control_c, 0, 64, 101
1, 72946, Note_off_c, 0, 87, 69
1, 73014, Note_on_c, 0, 87, 68
1, 73046, Note_off_c, 0, 87, 63
1, 73071, Note_on_c, 0, 99, 74
1, 73094, Note_off_c, 0, 99, 71
1, 73153, Control_c, 0, 64, 101
1, 73163, Note_on_c, 0, 87, 80
1, 73188, Note_off_c, 0, 87, 67
1, 73213, Control_c, 0, 64, 100
1, 73228, Control_c, 0, 64, 100
1, 73232, Note_on_c, 0, 87, 72
1, 73264, Note_off_c, 0, 87, 58
1, 73273, Note_on_c, 0, 99, 78
1, 73288, Control_c, 0, 64, 99
1, 73295, Note_off_c, 0, 99, 70
1, 73302, Control_c, 0, 64, 98
1, 73317, Control_c, 0, 64, 95
1, 73332, Control_c, 0, 64, 92
1, 73346, Control_c, 0, 64, 89
1, 73361, Control_c, 0, 64, 83
1, 73376, Control_c, 0, 64, 77
1, 73388, Note_on_c, 0, 85, 69
1, 73391, Control_c, 0, 64, 70
1, 73406, Control_c, 0, 64, 64
1, 73415, Note_off_c, 0, 85, 64
1, 73420, Control_c, 0, 64, 57
1, 73435, Control_c, 0, 64, 52
1, 73450, Control_c, 0, 64, 48
1, 73472, Note_on_c, 0, 85, 71
1, 73472, Control_c, 0, 64, 44
1, 73487, Control_c, 0, 64, 39
1, 73497, Note_off_c, 0, 85, 67
1, 73503, Control_c, 0, 64, 32
1, 73511, Note_on_c, 0, 97, 82
1, 73518, Control_c, 0, 64, 23
1, 73532, Control_c, 0, 64, 20
1, 73535, Note_off_c, 0, 97, 67
1, 73547, Control_c, 0, 64, 28
1, 73562, Control_c, 0, 64, 44
1, 73577, Control_c, 0, 64, 58
1, 73592, Control_c, 0, 64, 65
1, 73607, Control_c, 0, 64, 69
1, 73621, Note_on_c, 0, 44, 55
1, 73621, Control_c, 0, 64, 72
1, 73624, Note_on_c, 0, 83, 71
1, 73636, Control_c, 0, 64, 77
1, 73648, Note_off_c, 0, 83, 68
1, 73651, Control_c, 0, 64, 80
1, 73664, Note_off_c, 0, 44, 58
1, 73666, Control_c, 0, 64, 83
1, 73681, Control_c, 0, 64, 86
1, 73696, Control_c, 0, 64, 90
1, 73703, Note_on_c, 0, 83, 75
1, 73711, Control_c, 0, 64, 93
1, 73725, Control_c, 0, 64, 95
1, 73738, Note_off_c, 0, 83, 58
1, 73752, Note_on_c, 0, 95, 71
1, 73769, Control_c, 0, 64, 96
1, 73773, Note_off_c, 0, 95, 71
1, 73784, Control_c, 0, 64, 98
1, 73799, Control_c, 0, 64, 99
1, 73845, Note_on_c, 0, 83, 75
1, 73865, Note_on_c, 0, 51, 49
1, 73870, Note_off_c, 0, 83, 66
1, 73871, Note_on_c, 0, 59, 42
1, 73873, Control_c, 0, 64, 99
1, 73888, Control_c, 0, 64, 97
1, 73894, Note_off_c, 0, 51, 60
1, 73900, Note_off_c, 0, 59, 55
1, 73903, Control_c, 0, 64, 97
1, 73925, Note_on_c, 0, 83, 67
1, 73950, Note_off_c, 0, 83, 67
1, 73958, Note_on_c, 0, 95, 74
1, 73962, Control_c, 0, 64, 96
1, 73976, Control_c, 0, 64, 95
1, 73979, Note_off_c, 0, 95, 69
1, 74036, Control_c, 0, 64, 93
1, 74051, Control_c, 0, 64, 90
1, 74060, Note_on_c, 0, 59, 39
1, 74060, Note_on_c, 0, 82, 73
1, 74062, Note_on_c, 0, 51, 49
1, 74066, Control_c, 0, 64, 85
1, 74080, Control_c, 0, 64, 80
1, 74083, Note_off_c, 0, 82, 70
1, 74093, Note_off_c, 0, 59, 56
1, 74095, Control_c, 0, 64, 74
1, 74100, Note_off_c, 0, 51, 63
1, 74110, Control_c, 0, 64, 65
1, 74125, Control_c, 0, 64, 52
1, 74128, Note_on_c, 0, 82, 65
1, 74140, Control_c, 0, 64, 23
1, 74155, Control_c, 0, 64, 0
1, 74162, Note_off_c, 0, 82, 59
1, 74173, Note_on_c, 0, 94, 66
1, 74195, Note_off_c, 0, 94, 66
1, 74199, Control_c, 0, 64, 40
1, 74214, Control_c, 0, 64, 58
1, 74236, Control_c, 0, 64, 66
1, 74250, Control_c, 0, 64, 72
1, 74265, Control_c, 0, 64, 77
1, 74267, Note_on_c, 0, 47, 60
1, 74280, Control_c, 0, 64, 81
1, 74282, Note_on_c, 0, 80, 73
1, 74296, Control_c, 0, 64, 85
1, 74304, Note_off_c, 0, 47, 64
1, 74305, Note_off_c, 0, 80, 69
1, 74311, Control_c, 0, 64, 89
1, 74326, Control_c, 0, 64, 91
1, 74341, Control_c, 0, 64, 96
1, 74355, Control_c, 0, 64, 100
1, 74364, Note_on_c, 0, 80, 63
1, 74370, Control_c, 0, 64, 103
1, 74385, Control_c, 0, 64, 104
1, 74395, Note_off_c, 0, 80, 58
1, 74396, Note_on_c, 0, 92, 70
1, 74414, Control_c, 0, 64, 105
1, 74419, Note_off_c, 0, 92, 69
1, 74429, Control_c, 0, 64, 105
1, 74444, Control_c, 0, 64, 106
1, 74489, Control_c, 0, 64, 105
1, 74498, Note_on_c, 0, 79, 71
1, 74500, Note_on_c, 0, 63, 48
1, 74504, Control_c, 0, 64, 104
1, 74507, Note_on_c, 0, 56, 44
1, 74518, Control_c, 0, 64, 101
1, 74521, Note_off_c, 0, 79, 69
1, 74526, Note_off_c, 0, 63, 59
1, 74533, Control_c, 0, 64, 99
1, 74534, Note_off_c, 0, 56, 54
1, 74548, Control_c, 0, 64, 98
1, 74574, Note_on_c, 0, 79, 65
1, 74597, Note_off_c, 0, 79, 67
1, 74606, Note_on_c, 0, 91, 77
1, 74629, Note_off_c, 0, 91, 68
1, 74692, Note_on_c, 0, 56, 46
1, 74701, Note_on_c, 0, 63, 38
1, 74708, Note_on_c, 0, 80, 72
1, 74729, Note_off_c, 0, 80, 69
1, 74736, Note_off_c, 0, 63, 54
1, 74738, Note_off_c, 0, 56, 62
1, 74755, Control_c, 0, 64, 97
1, 74770, Control_c, 0, 64, 93
1, 74784, Note_on_c, 0, 80, 64
1, 74785, Control_c, 0, 64, 85
1, 74799, Control_c, 0, 64, 73
1, 74810, Note_off_c, 0, 80, 58
1, 74814, Control_c, 0, 64, 60
1, 74817, Note_on_c, 0, 92, 70
1, 74829, Control_c, 0, 64, 34
1, 74840, Note_off_c, 0, 92, 69
1, 74844, Control_c, 0, 64, 0
1, 74873, Control_c, 0, 64, 21
1, 74888, Control_c, 0, 64, 49
1, 74903, Control_c, 0, 64, 64
1, 74912, Note_on_c, 0, 51, 56
1, 74918, Control_c, 0, 64, 72
1, 74918, Note_on_c, 0, 82, 69
1, 74933, Control_c, 0, 64, 81
1, 74942, Note_off_c, 0, 82, 69
1, 74948, Control_c, 0, 64, 89
1, 74950, Note_off_c, 0, 51, 64
1, 74970, Control_c, 0, 64, 92
1, 74985, Control_c, 0, 64, 98
1, 74999, Control_c, 0, 64, 107
1, 75004, Note_on_c, 0, 82, 66
1, 75014, Control_c, 0, 64, 127
1, 75021, Note_off_c, 0, 82, 67
1, 75046, Note_on_c, 0, 94, 66
1, 75064, Note_off_c, 0, 94, 67
1, 75148, Note_on_c, 0, 58, 55
1, 75161, Note_on_c, 0, 67, 40
1, 75170, Note_on_c, 0, 75, 68
1, 75182, Note_off_c, 0, 58, 62
1, 75191, Note_off_c, 0, 67, 54
1, 75196, Note_off_c, 0, 75, 66
1, 75286, Note_on_c, 0, 87, 62
1, 75308, Note_off_c, 0, 87, 64
1, 75319, Poly_aftertouch_c, 0, 75, 0
1, 75344, Poly_aftertouch_c, 0, 75, 0
1, 75375, Note_on_c, 0, 70, 61
1, 75382, Note_on_c, 0, 75, 53
1, 75394, Note_on_c, 0, 67, 40
1, 75407, Note_off_c, 0, 70, 64
1, 75410, Note_off_c, 0, 75, 65
1, 75422, Note_off_c, 0, 67, 50
1, 75456, Note_on_c, 0, 75, 61
1, 75486, Note_off_c, 0, 75, 64
1, 75497, Note_on_c, 0, 87, 69
1, 75524, Note_off_c, 0, 87, 67
1, 75578, Control_c, 0, 64, 124
1, 75587, Note_on_c, 0, 76, 76
1, 75589, Note_on_c, 0, 68, 63
1, 75589, Note_on_c, 0, 71, 60
1, 75593, Control_c, 0, 64, 98
1, 75608, Control_c, 0, 64, 83
1, 75612, Note_off_c, 0, 76, 67
1, 75619, Note_off_c, 0, 68, 68
1, 75622, Note_off_c, 0, 71, 66
1, 75622, Control_c, 0, 64, 70
1, 75637, Control_c, 0, 64, 60
1, 75652, Control_c, 0, 64, 47
1, 75664, Note_on_c, 0, 76, 62
1, 75667, Control_c, 0, 64, 37
1, 75682, Control_c, 0, 64, 36
1, 75696, Control_c, 0, 64, 37
1, 75707, Note_off_c, 0, 76, 50
1, 75709, Note_on_c, 0, 88, 62
1, 75719, Control_c, 0, 64, 37
1, 75734, Note_off_c, 0, 88, 64
1, 75748, Control_c, 0, 64, 36
1, 75763, Control_c, 0, 64, 35
1, 75778, Control_c, 0, 64, 33
1, 75793, Control_c, 0, 64, 32
1, 75824, Note_on_c, 0, 66, 53
1, 75824, Note_on_c, 0, 75, 66
1, 75831, Note_on_c, 0, 70, 55
1, 75848, Note_off_c, 0, 75, 69
1, 75852, Control_c, 0, 64, 31
1, 75854, Note_off_c, 0, 70, 62
1, 75857, Note_off_c, 0, 66, 64
1, 75866, Control_c, 0, 64, 28
1, 75881, Control_c, 0, 64, 26
1, 75910, Note_on_c, 0, 75, 53
1, 75927, Control_c, 0, 64, 26
1, 75943, Note_on_c, 0, 87, 68
1, 75945, Note_off_c, 0, 75, 60
1, 75967, Note_off_c, 0, 87, 68
1, 75986, Control_c, 0, 64, 25
1, 76060, Control_c, 0, 64, 24
1, 76064, Note_on_c, 0, 64, 56
1, 76067, Note_on_c, 0, 68, 58
1, 76072, Note_on_c, 0, 73, 61
1, 76075, Control_c, 0, 64, 23
1, 76090, Control_c, 0, 64, 22
1, 76099, Note_off_c, 0, 73, 68
1, 76102, Note_off_c, 0, 64, 63
1, 76102, Note_off_c, 0, 68, 64
1, 76105, Control_c, 0, 64, 20
1, 76119, Control_c, 0, 64, 20
1, 76161, Note_on_c, 0, 73, 49
1, 76164, Control_c, 0, 64, 19
1, 76179, Control_c, 0, 64, 19
1, 76194, Control_c, 0, 64, 17
1, 76194, Note_off_c, 0, 73, 53
1, 76209, Control_c, 0, 64, 16
1, 76211, Note_on_c, 0, 85, 58
1, 76224, Control_c, 0, 64, 15
1, 76238, Control_c, 0, 64, 14
1, 76240, Note_off_c, 0, 85, 66
1, 76253, Control_c, 0, 64, 12
1, 76268, Control_c, 0, 64, 0
1, 76355, Note_on_c, 0, 63, 35
1, 76355, Note_on_c, 0, 68, 36
1, 76361, Note_on_c, 0, 75, 54
1, 76368, Note_on_c, 0, 71, 32
1, 76371, Control_c, 0, 64, 33
1, 76386, Control_c, 0, 64, 50
1, 76391, Note_off_c, 0, 75, 67
1, 76401, Control_c, 0, 64, 60
1, 76416, Control_c, 0, 64, 64
1, 76431, Control_c, 0, 64, 66
1, 76445, Control_c, 0, 64, 69
1, 76465, Note_on_c, 0, 75, 47
1, 76468, Control_c, 0, 64, 74
1, 76483, Control_c, 0, 64, 80
1, 76495, Note_off_c, 0, 75, 52
1, 76497, Control_c, 0, 64, 85
1, 76512, Control_c, 0, 64, 89
1, 76519, Note_on_c, 0, 87, 55
1, 76527, Control_c, 0, 64, 93
1, 76540, Note_off_c, 0, 87, 63
1, 76542, Control_c, 0, 64, 97
1, 76557, Control_c, 0, 64, 100
1, 76571, Control_c, 0, 64, 101
1, 76616, Control_c, 0, 64, 101
1, 76631, Control_c, 0, 64, 102
1, 76637, Note_on_c, 0, 76, 64
1, 76664, Note_off_c, 0, 76, 67
1, 76691, Control_c, 0, 64, 103
1, 76722, Note_on_c, 0, 76, 55
1, 76735, Control_c, 0, 64, 103
1, 76745, Note_off_c, 0, 76, 61
1, 76750, Control_c, 0, 64, 104
1, 76758, Note_on_c, 0, 87, 69
1, 76765, Control_c, 0, 64, 104
1, 76785, Note_off_c, 0, 87, 67
1, 76868, Control_c, 0, 64, 104
1, 76875, Note_on_c, 0, 77, 67
1, 76900, Note_off_c, 0, 77, 65
1, 76931, Note_off_c, 0, 71, 42
1, 76950, Note_off_c, 0, 68, 47
1, 76955, Note_on_c, 0, 77, 58
1, 76975, Note_off_c, 0, 77, 62
1, 76977, Note_off_c, 0, 63, 40
1, 76991, Note_on_c, 0, 87, 68
1, 77019, Note_off_c, 0, 87, 67
1, 77097, Note_on_c, 0, 78, 67
1, 77123, Note_off_c, 0, 78, 67
1, 77183, Note_on_c, 0, 78, 52
1, 77207, Note_off_c, 0, 78, 56
1, 77211, Note_on_c, 0, 87, 67
1, 77253, Note_off_c, 0, 87, 60
1, 77306, Control_c, 0, 64, 102
1, 77320, Control_c, 0, 64, 101
1, 77326, Note_on_c, 0, 79, 69
1, 77335, Control_c, 0, 64, 101
1, 77351, Note_off_c, 0, 79, 68
1, 77365, Control_c, 0, 64, 100
1, 77394, Note_on_c, 0, 79, 66
1, 77413, Note_off_c, 0, 79, 64
1, 77440, Note_on_c, 0, 87, 71
1, 77476, Note_off_c, 0, 87, 60
1, 77483, Control_c, 0, 64, 100
1, 77536, Note_on_c, 0, 80, 67
1, 77558, Control_c, 0, 64, 101
1, 77560, Note_off_c, 0, 80, 68
1, 77588, Control_c, 0, 64, 102
1, 77603, Control_c, 0, 64, 107
1, 77610, Note_on_c, 0, 51, 51
1, 77612, Note_on_c, 0, 80, 70
1, 77617, Control_c, 0, 64, 111
1, 77632, Control_c, 0, 64, 112
1, 77647, Control_c, 0, 64, 110
1, 77650, Note_off_c, 0, 80, 55
1, 77658, Note_on_c, 0, 87, 69
1, 77662, Control_c, 0, 64, 103
1, 77677, Control_c, 0, 64, 91
1, 77685, Note_off_c, 0, 51, 61
1, 77691, Control_c, 0, 64, 78
1, 77697, Note_on_c, 0, 61, 42
1, 77699, Note_off_c, 0, 87, 57
1, 77706, Control_c, 0, 64, 64
1, 77721, Control_c, 0, 64, 53
1, 77735, Control_c, 0, 64, 52
1, 77750, Control_c, 0, 64, 59
1, 77765, Control_c, 0, 64, 67
1, 77775, Note_on_c, 0, 81, 64
1, 77780, Control_c, 0, 64, 76
1, 77795, Control_c, 0, 64, 90
1, 77802, Note_off_c, 0, 81, 66
1, 77810, Note_on_c, 0, 67, 45
1, 77810, Control_c, 0, 64, 105
1, 77825, Control_c, 0, 64, 105
1, 77839, Control_c, 0, 64, 107
1, 77854, Control_c, 0, 64, 114
1, 77860, Note_on_c, 0, 81, 57
1, 77869, Control_c, 0, 64, 127
1, 77884, Note_off_c, 0, 81, 57
1, 77915, Note_on_c, 0, 87, 69
1, 77975, Note_off_c, 0, 87, 60
1, 78015, Note_on_c, 0, 82, 66
1, 78042, Note_off_c, 0, 82, 67
1, 78060, Note_off_c, 0, 67, 22
1, 78086, Note_on_c, 0, 82, 67
1, 78134, Note_off_c, 0, 82, 56
1, 78148, Note_on_c, 0, 87, 67
1, 78173, Note_off_c, 0, 61, 34
1, 78186, Note_off_c, 0, 87, 61
1, 78265, Note_on_c, 0, 83, 40
1, 78321, Note_off_c, 0, 83, 0
1, 78331, Note_on_c, 0, 83, 51
1, 78346, Poly_aftertouch_c, 0, 84, 0
1, 78363, Note_off_c, 0, 83, 62
1, 78379, Note_on_c, 0, 87, 70
1, 78403, Note_off_c, 0, 87, 67
1, 78464, Note_on_c, 0, 84, 64
1, 78498, Note_off_c, 0, 84, 63
1, 78543, Note_on_c, 0, 84, 51
1, 78586, Note_off_c, 0, 84, 62
1, 78615, Note_on_c, 0, 87, 69
1, 78645, Note_off_c, 0, 87, 63
1, 78695, Note_on_c, 0, 85, 70
1, 78728, Note_off_c, 0, 85, 66
1, 78785, Note_on_c, 0, 85, 66
1, 78819, Note_off_c, 0, 85, 59
1, 78845, Note_on_c, 0, 87, 67
1, 78886, Note_off_c, 0, 87, 57
1, 78959, Note_on_c, 0, 86, 61
1, 78981, Control_c, 0, 64, 90
1, 78986, Note_off_c, 0, 86, 66
1, 78996, Control_c, 0, 64, 70
1, 79011, Control_c, 0, 64, 53
1, 79026, Control_c, 0, 64, 24
1, 79035, Note_on_c, 0, 44, 45
1, 79041, Control_c, 0, 64, 28
1, 79056, Control_c, 0, 64, 50
1, 79063, Note_on_c, 0, 86, 42
1, 79071, Control_c, 0, 64, 66
1, 79085, Note_on_c, 0, 51, 47
1, 79086, Control_c, 0, 64, 79
1, 79088, Note_off_c, 0, 86, 51
1, 79101, Control_c, 0, 64, 99
1, 79106, Note_off_c, 0, 44, 55
1, 79115, Control_c, 0, 64, 127
1, 79133, Note_on_c, 0, 87, 64
1, 79151, Note_off_c, 0, 51, 60
1, 79166, Note_on_c, 0, 59, 52
1, 79181, Note_off_c, 0, 87, 57
1, 79203, Note_off_c, 0, 59, 64
1, 79295, Note_on_c, 0, 87, 67
1, 79319, Note_on_c, 0, 68, 58
1, 79326, Note_off_c, 0, 87, 64
1, 79351, Note_off_c, 0, 68, 62
1, 79387, Note_on_c, 0, 87, 54
1, 79427, Note_off_c, 0, 87, 59
1, 79451, Note_on_c, 0, 99, 69
1, 79487, Note_off_c, 0, 99, 67
1, 79592, Note_on_c, 0, 88, 64
1, 79619, Note_off_c, 0, 88, 68
1, 79676, Note_on_c, 0, 88, 64
1, 79703, Note_off_c, 0, 88, 65
1, 79741, Note_on_c, 0, 99, 70
1, 79768, Note_off_c, 0, 99, 68
1, 79861, Note_on_c, 0, 89, 69
1, 79889, Note_off_c, 0, 89, 67
1, 79947, Note_on_c, 0, 89, 66
1, 79978, Note_off_c, 0, 89, 58
1, 80020, Note_on_c, 0, 99, 67
1, 80052, Note_off_c, 0, 99, 64
1, 80150, Note_on_c, 0, 90, 65
1, 80181, Note_off_c, 0, 90, 63
1, 80266, Note_on_c, 0, 90, 59
1, 80305, Note_off_c, 0, 90, 56
1, 80356, Note_on_c, 0, 99, 56
1, 80361, Control_c, 0, 64, 120
1, 80375, Control_c, 0, 64, 111
1, 80389, Control_c, 0, 64, 109
1, 80394, Note_off_c, 0, 99, 63
1, 80434, Control_c, 0, 64, 107
1, 80449, Control_c, 0, 64, 107
1, 80478, Control_c, 0, 64, 106
1, 80493, Control_c, 0, 64, 105
1, 80502, Note_on_c, 0, 91, 61
1, 80508, Control_c, 0, 64, 104
1, 80523, Control_c, 0, 64, 103
1, 80537, Note_off_c, 0, 91, 63
1, 80567, Control_c, 0, 64, 102
1, 80638, Note_on_c, 0, 91, 55
1, 80656, Control_c, 0, 64, 102
1, 80698, Note_off_c, 0, 91, 49
1, 80751, Note_on_c, 0, 99, 37
1, 80779, Note_off_c, 0, 99, 52
1, 80905, Note_on_c, 0, 92, 47
1, 80961, Note_off_c, 0, 92, 54
1, 81086, Note_on_c, 0, 92, 45
1, 81120, Note_off_c, 0, 92, 54
1, 81183, Control_c, 0, 64, 100
1, 81198, Control_c, 0, 64, 94
1, 81212, Control_c, 0, 64, 84
1, 81227, Control_c, 0, 64, 74
1, 81242, Control_c, 0, 64, 66
1, 81257, Control_c, 0, 64, 59
1, 81272, Control_c, 0, 64, 50
1, 81284, Note_on_c, 0, 99, 58
1, 81286, Control_c, 0, 64, 43
1, 81301, Control_c, 0, 64, 36
1, 81313, Note_off_c, 0, 99, 68
1, 81316, Control_c, 0, 64, 30
1, 81331, Control_c, 0, 64, 22
1, 81346, Control_c, 0, 64, 15
1, 81360, Control_c, 0, 64, 8
1, 81375, Control_c, 0, 64, 0
1, 81569, Control_c, 0, 64, 10
1, 81583, Control_c, 0, 64, 14
1, 81598, Control_c, 0, 64, 16
1, 81613, Control_c, 0, 64, 18
1, 81628, Control_c, 0, 64, 19
1, 81643, Control_c, 0, 64, 20
1, 81643, Note_on_c, 0, 71, 78
1, 81645, Note_on_c, 0, 68, 74
1, 81673, Control_c, 0, 64, 19
1, 81688, Control_c, 0, 64, 18
1, 81754, Control_c, 0, 64, 17
1, 81769, Control_c, 0, 64, 17
1, 81783, Note_off_c, 0, 68, 58
1, 81789, Note_on_c, 0, 67, 57
1, 81798, Control_c, 0, 64, 18
1, 81800, Note_on_c, 0, 70, 71
1, 81804, Note_off_c, 0, 71, 60
1, 81813, Control_c, 0, 64, 19
1, 81828, Control_c, 0, 64, 19
1, 81843, Control_c, 0, 64, 20
1, 81873, Control_c, 0, 64, 19
1, 81893, Note_off_c, 0, 70, 0
1, 81916, Note_on_c, 0, 66, 70
1, 81920, Note_on_c, 0, 71, 70
1, 81923, Note_off_c, 0, 67, 62
1, 81929, Note_on_c, 0, 69, 62
1, 81930, Poly_aftertouch_c, 0, 70, 127
1, 81939, Note_off_c, 0, 66, 68
1, 81949, Note_off_c, 0, 69, 64
1, 81952, Note_off_c, 0, 71, 66
1, 81963, Poly_aftertouch_c, 0, 70, 0
1, 81991, Control_c, 0, 64, 20
1, 82006, Control_c, 0, 64, 22
1, 82021, Control_c, 0, 64, 24
1, 82053, Note_on_c, 0, 71, 69
1, 82056, Note_on_c, 0, 65, 66
1, 82061, Note_on_c, 0, 68, 64
1, 82080, Note_off_c, 0, 68, 66
1, 82080, Control_c, 0, 64, 26
1, 82081, Note_off_c, 0, 71, 67
1, 82083, Note_off_c, 0, 65, 68
1, 82095, Control_c, 0, 64, 28
1, 82109, Control_c, 0, 64, 29
1, 82124, Control_c, 0, 64, 28
1, 82168, Control_c, 0, 64, 29
1, 82181, Note_on_c, 0, 71, 67
1, 82182, Note_on_c, 0, 64, 67
1, 82183, Control_c, 0, 64, 29
1, 82189, Note_on_c, 0, 67, 70
1, 82198, Control_c, 0, 64, 28
1, 82209, Note_off_c, 0, 64, 67
1, 82216, Note_off_c, 0, 67, 68
1, 82216, Note_off_c, 0, 71, 63
1, 82272, Control_c, 0, 64, 28
1, 82288, Control_c, 0, 64, 27
1, 82303, Control_c, 0, 64, 26
1, 82318, Control_c, 0, 64, 26
1, 82326, Note_on_c, 0, 71, 64
1, 82332, Control_c, 0, 64, 24
1, 82338, Note_on_c, 0, 66, 54
1, 82340, Note_on_c, 0, 63, 55
1, 82347, Control_c, 0, 64, 22
1, 82359, Note_off_c, 0, 71, 65
1, 82360, Note_off_c, 0, 66, 61
1, 82362, Control_c, 0, 64, 19
1, 82369, Note_off_c, 0, 63, 65
1, 82377, Control_c, 0, 64, 17
1, 82406, Control_c, 0, 64, 18
1, 82458, Control_c, 0, 64, 17
1, 82501, Note_on_c, 0, 62, 55
1, 82503, Control_c, 0, 64, 18
1, 82504, Note_on_c, 0, 71, 61
1, 82508, Note_on_c, 0, 65, 61
1, 82523, Note_off_c, 0, 62, 62
1, 82533, Note_off_c, 0, 71, 68
1, 82534, Note_off_c, 0, 65, 67
1, 82562, Control_c, 0, 64, 19
1, 82591, Control_c, 0, 64, 19
1, 82621, Control_c, 0, 64, 19
1, 82664, Note_on_c, 0, 71, 59
1, 82665, Note_on_c, 0, 61, 52
1, 82668, Note_on_c, 0, 64, 57
1, 82689, Note_off_c, 0, 64, 63
1, 82690, Note_off_c, 0, 61, 63
1, 82694, Note_off_c, 0, 71, 67
1, 82783, Control_c, 0, 64, 19
1, 82798, Control_c, 0, 64, 21
1, 82813, Control_c, 0, 64, 23
1, 82820, Note_on_c, 0, 73, 59
1, 82828, Control_c, 0, 64, 24
1, 82843, Control_c, 0, 64, 24
1, 82887, Control_c, 0, 64, 24
1, 82890, Note_on_c, 0, 71, 63
1, 82922, Note_off_c, 0, 73, 35
1, 82939, Note_off_c, 0, 71, 63
1, 82964, Note_on_c, 0, 70, 62
1, 83011, Note_off_c, 0, 70, 58
1, 83019, Note_on_c, 0, 71, 55
1, 83047, Note_off_c, 0, 71, 66
1, 83082, Note_on_c, 0, 66, 70
1, 83088, Note_on_c, 0, 59, 38
1, 83093, Note_on_c, 0, 63, 34
1, 83105, Note_off_c, 0, 66, 68
1, 83110, Control_c, 0, 64, 24
1, 83114, Note_off_c, 0, 59, 50
1, 83124, Note_off_c, 0, 63, 46
1, 83162, Note_on_c, 0, 78, 55
1, 83184, Note_off_c, 0, 78, 61
1, 83246, Note_on_c, 0, 78, 66
1, 83264, Note_off_c, 0, 78, 64
1, 83280, Control_c, 0, 64, 25
1, 83295, Control_c, 0, 64, 26
1, 83304, Note_on_c, 0, 78, 57
1, 83310, Control_c, 0, 64, 28
1, 83325, Control_c, 0, 64, 29
1, 83327, Note_off_c, 0, 78, 63
1, 83354, Note_on_c, 0, 71, 73
1, 83366, Note_on_c, 0, 54, 51
1, 83374, Note_on_c, 0, 66, 39
1, 83375, Note_on_c, 0, 63, 41
1, 83378, Note_off_c, 0, 71, 69
1, 83394, Note_off_c, 0, 54, 63
1, 83399, Note_off_c, 0, 66, 53
1, 83402, Note_off_c, 0, 63, 52
1, 83414, Control_c, 0, 64, 28
1, 83427, Note_on_c, 0, 83, 70
1, 83429, Control_c, 0, 64, 28
1, 83444, Control_c, 0, 64, 27
1, 83450, Note_off_c, 0, 83, 69
1, 83506, Note_on_c, 0, 83, 72
1, 83518, Control_c, 0, 64, 28
1, 83521, Note_off_c, 0, 83, 70
1, 83532, Control_c, 0, 64, 29
1, 83547, Control_c, 0, 64, 30
1, 83562, Control_c, 0, 64, 32
1, 83577, Note_on_c, 0, 83, 55
1, 83577, Control_c, 0, 64, 32
1, 83599, Note_off_c, 0, 83, 38
1, 83606, Control_c, 0, 64, 33
1, 83621, Control_c, 0, 64, 35
1, 83636, Control_c, 0, 64, 39
1, 83645, Note_on_c, 0, 73, 82
1, 83651, Control_c, 0, 64, 42
1, 83666, Control_c, 0, 64, 43
1, 83674, Note_off_c, 0, 73, 64
1, 83680, Control_c, 0, 64, 43
1, 83710, Control_c, 0, 64, 43
1, 83721, Note_on_c, 0, 85, 71
1, 83746, Note_off_c, 0, 85, 66
1, 83754, Control_c, 0, 64, 42
1, 83769, Control_c, 0, 64, 42
1, 83784, Control_c, 0, 64, 40
1, 83797, Note_on_c, 0, 85, 73
1, 83798, Control_c, 0, 64, 39
1, 83821, Note_off_c, 0, 85, 68
1, 83828, Control_c, 0, 64, 40
1, 83859, Note_on_c, 0, 85, 78
1, 83874, Control_c, 0, 64, 40
1, 83888, Note_off_c, 0, 85, 64
1, 83903, Control_c, 0, 64, 40
1, 83918, Control_c, 0, 64, 42
1, 83923, Note_on_c, 0, 78, 77
1, 83925, Note_on_c, 0, 64, 46
1, 83929, Note_on_c, 0, 58, 42
1, 83933, Control_c, 0, 64, 43
1, 83958, Note_off_c, 0, 64, 57
1, 83959, Note_off_c, 0, 78, 61
1, 83963, Note_off_c, 0, 58, 53
1, 83971, Control_c, 0, 64, 42
1, 83985, Control_c, 0, 64, 42
1, 84000, Control_c, 0, 64, 41
1, 84004, Note_on_c, 0, 90, 74
1, 84025, Note_off_c, 0, 90, 70
1, 84029, Control_c, 0, 64, 41
1, 84044, Control_c, 0, 64, 40
1, 84059, Control_c, 0, 64, 39
1, 84081, Note_on_c, 0, 90, 77
1, 84089, Control_c, 0, 64, 39
1, 84101, Note_off_c, 0, 90, 72
1, 84104, Control_c, 0, 64, 40
1, 84119, Control_c, 0, 64, 41
1, 84134, Control_c, 0, 64, 40
1, 84142, Note_on_c, 0, 90, 75
1, 84149, Control_c, 0, 64, 39
1, 84163, Control_c, 0, 64, 39
1, 84178, Control_c, 0, 64, 39
1, 84184, Note_off_c, 0, 90, 61
1, 84223, Control_c, 0, 64, 39
1, 84226, Note_on_c, 0, 58, 45
1, 84231, Note_on_c, 0, 85, 75
1, 84234, Note_on_c, 0, 66, 44
1, 84235, Note_on_c, 0, 54, 49
1, 84237, Control_c, 0, 64, 37
1, 84252, Control_c, 0, 64, 34
1, 84258, Note_off_c, 0, 85, 63
1, 84260, Note_off_c, 0, 66, 60
1, 84267, Control_c, 0, 64, 34
1, 84268, Note_off_c, 0, 58, 64
1, 84273, Note_off_c, 0, 54, 65
1, 84282, Control_c, 0, 64, 35
1, 84297, Control_c, 0, 64, 36
1, 84326, Control_c, 0, 64, 35
1, 84331, Note_on_c, 0, 97, 77
1, 84339, Note_on_c, 0, 90, 68
1, 84341, Control_c, 0, 64, 34
1, 84361, Note_off_c, 0, 97, 59
1, 84364, Note_off_c, 0, 90, 67
1, 84400, Control_c, 0, 64, 33
1, 84415, Control_c, 0, 64, 29
1, 84430, Control_c, 0, 64, 18
1, 84434, Note_on_c, 0, 97, 81
1, 84436, Note_on_c, 0, 90, 70
1, 84445, Control_c, 0, 64, 0
1, 84460, Note_off_c, 0, 90, 65
1, 84469, Note_off_c, 0, 97, 53
1, 84534, Control_c, 0, 64, 17
1, 84549, Control_c, 0, 64, 50
1, 84550, Note_on_c, 0, 47, 53
1, 84559, Note_on_c, 0, 87, 74
1, 84563, Control_c, 0, 64, 64
1, 84578, Control_c, 0, 64, 69
1, 84581, Note_off_c, 0, 87, 70
1, 84585, Note_off_c, 0, 47, 64
1, 84593, Control_c, 0, 64, 75
1, 84608, Control_c, 0, 64, 81
1, 84623, Control_c, 0, 64, 85
1, 84637, Control_c, 0, 64, 90
1, 84652, Control_c, 0, 64, 93
1, 84663, Note_on_c, 0, 90, 71
1, 84665, Note_on_c, 0, 99, 67
1, 84667, Control_c, 0, 64, 96
1, 84682, Note_off_c, 0, 99, 67
1, 84683, Control_c, 0, 64, 99
1, 84689, Note_off_c, 0, 90, 68
1, 84705, Control_c, 0, 64, 102
1, 84720, Control_c, 0, 64, 104
1, 84734, Control_c, 0, 64, 105
1, 84752, Note_on_c, 0, 99, 76
1, 84757, Note_on_c, 0, 90, 73
1, 84764, Control_c, 0, 64, 105
1, 84782, Note_off_c, 0, 90, 65
1, 84790, Note_off_c, 0, 99, 63
1, 84809, Control_c, 0, 64, 97
1, 84824, Control_c, 0, 64, 82
1, 84839, Note_on_c, 0, 54, 63
1, 84839, Control_c, 0, 64, 67
1, 84845, Note_on_c, 0, 83, 71
1, 84849, Note_on_c, 0, 63, 52
1, 84853, Control_c, 0, 64, 55
1, 84858, Note_off_c, 0, 54, 64
1, 84859, Note_off_c, 0, 83, 68
1, 84868, Control_c, 0, 64, 41
1, 84874, Note_off_c, 0, 63, 57
1, 84883, Control_c, 0, 64, 30
1, 84898, Control_c, 0, 64, 22
1, 84913, Control_c, 0, 64, 20
1, 84986, Control_c, 0, 64, 21
1, 85001, Control_c, 0, 64, 23
1, 85016, Control_c, 0, 64, 27
1, 85031, Control_c, 0, 64, 29
1, 85060, Control_c, 0, 64, 28
1, 85075, Control_c, 0, 64, 27
1, 85091, Note_on_c, 0, 75, 77
1, 85099, Note_on_c, 0, 71, 79
1, 85105, Control_c, 0, 64, 28
1, 85134, Control_c, 0, 64, 27
1, 85149, Control_c, 0, 64, 25
1, 85164, Control_c, 0, 64, 23
1, 85178, Control_c, 0, 64, 22
1, 85205, Note_off_c, 0, 75, 52
1, 85208, Control_c, 0, 64, 21
1, 85216, Note_on_c, 0, 74, 75
1, 85253, Control_c, 0, 64, 22
1, 85332, Note_on_c, 0, 70, 62
1, 85332, Note_on_c, 0, 75, 70
1, 85342, Note_off_c, 0, 71, 61
1, 85343, Note_on_c, 0, 73, 63
1, 85349, Note_off_c, 0, 74, 55
1, 85357, Control_c, 0, 64, 21
1, 85360, Note_off_c, 0, 70, 66
1, 85365, Note_off_c, 0, 75, 64
1, 85370, Note_off_c, 0, 73, 68
1, 85446, Control_c, 0, 64, 20
1, 85467, Note_on_c, 0, 69, 67
1, 85467, Note_on_c, 0, 75, 68
1, 85469, Note_on_c, 0, 72, 69
1, 85494, Note_off_c, 0, 69, 66
1, 85495, Note_off_c, 0, 72, 68
1, 85496, Note_off_c, 0, 75, 65
1, 85557, Control_c, 0, 64, 21
1, 85593, Note_on_c, 0, 68, 61
1, 85593, Note_on_c, 0, 71, 72
1, 85598, Note_on_c, 0, 75, 64
1, 85602, Control_c, 0, 64, 20
1, 85617, Control_c, 0, 64, 19
1, 85618, Note_off_c, 0, 71, 70
1, 85623, Note_off_c, 0, 68, 68
1, 85625, Note_off_c, 0, 75, 68
1, 85676, Control_c, 0, 64, 18
1, 85691, Control_c, 0, 64, 16
1, 85730, Note_on_c, 0, 75, 60
1, 85733, Note_on_c, 0, 67, 56
1, 85736, Note_on_c, 0, 70, 61
1, 85751, Control_c, 0, 64, 16
1, 85755, Note_off_c, 0, 70, 64
1, 85756, Note_off_c, 0, 67, 63
1, 85758, Note_off_c, 0, 75, 67
1, 85795, Control_c, 0, 64, 16
1, 85888, Note_on_c, 0, 75, 60
1, 85892, Note_on_c, 0, 66, 45
1, 85894, Note_on_c, 0, 69, 58
1, 85915, Note_off_c, 0, 69, 62
1, 85916, Note_off_c, 0, 75, 68
1, 85917, Note_off_c, 0, 66, 59
1, 85958, Control_c, 0, 64, 17
1, 86043, Note_on_c, 0, 65, 53
1, 86051, Note_on_c, 0, 75, 57
1, 86055, Note_on_c, 0, 68, 50
1, 86073, Note_off_c, 0, 65, 67
1, 86079, Note_off_c, 0, 68, 59
1, 86081, Note_off_c, 0, 75, 67
1, 86210, Note_on_c, 0, 77, 70
1, 86267, Note_off_c, 0, 77, 56
1, 86281, Note_on_c, 0, 75, 63
1, 86293, Control_c, 0, 64, 17
1, 86337, Control_c, 0, 64, 18
1, 86352, Control_c, 0, 64, 18
1, 86355, Note_on_c, 0, 74, 55
1, 86357, Note_off_c, 0, 75, 59
1, 86365, Control_c, 0, 64, 19
1, 86389, Note_on_c, 0, 75, 49
1, 86398, Note_off_c, 0, 74, 64
1, 86425, Note_off_c, 0, 75, 65
1, 86439, Control_c, 0, 64, 19
1, 86454, Control_c, 0, 64, 20
1, 86463, Note_on_c, 0, 63, 44
1, 86469, Control_c, 0, 64, 20
1, 86477, Note_on_c, 0, 70, 57
1, 86490, Note_off_c, 0, 63, 54
1, 86497, Note_off_c, 0, 70, 61
1, 86537, Note_on_c, 0, 82, 64
1, 86559, Note_off_c, 0, 82, 66
1, 86618, Note_on_c, 0, 82, 74
1, 86639, Note_off_c, 0, 82, 70
1, 86677, Control_c, 0, 64, 21
1, 86679, Note_on_c, 0, 82, 67
1, 86692, Control_c, 0, 64, 21
1, 86702, Note_off_c, 0, 82, 68
1, 86721, Control_c, 0, 64, 22
1, 86736, Note_on_c, 0, 58, 47
1, 86736, Control_c, 0, 64, 23
1, 86737, Note_on_c, 0, 75, 69
1, 86741, Note_on_c, 0, 70, 47
1, 86758, Note_on_c, 0, 66, 32
1, 86759, Note_off_c, 0, 75, 68
1, 86766, Note_off_c, 0, 70, 57
1, 86768, Note_off_c, 0, 58, 62
1, 86782, Note_off_c, 0, 66, 51
1, 86800, Note_on_c, 0, 87, 69
1, 86824, Note_off_c, 0, 87, 69
1, 86874, Note_on_c, 0, 87, 69
1, 86897, Note_off_c, 0, 87, 69
1, 86950, Note_on_c, 0, 87, 65
1, 86977, Note_off_c, 0, 87, 67
1, 86995, Control_c, 0, 64, 24
1, 87014, Note_on_c, 0, 77, 74
1, 87036, Note_off_c, 0, 77, 67
1, 87082, Note_on_c, 0, 89, 67
1, 87109, Note_off_c, 0, 89, 67
1, 87115, Control_c, 0, 64, 24
1, 87157, Note_on_c, 0, 89, 75
1, 87173, Control_c, 0, 64, 25
1, 87176, Note_off_c, 0, 89, 66
1, 87188, Control_c, 0, 64, 26
1, 87203, Control_c, 0, 64, 28
1, 87232, Note_on_c, 0, 89, 65
1, 87248, Note_off_c, 0, 89, 67
1, 87248, Control_c, 0, 64, 28
1, 87262, Control_c, 0, 64, 30
1, 87277, Control_c, 0, 64, 33
1, 87292, Control_c, 0, 64, 35
1, 87293, Note_on_c, 0, 82, 84
1, 87295, Note_on_c, 0, 68, 54
1, 87307, Control_c, 0, 64, 36
1, 87310, Note_on_c, 0, 62, 41
1, 87318, Note_off_c, 0, 68, 63
1, 87322, Control_c, 0, 64, 35
1, 87328, Note_off_c, 0, 82, 62
1, 87335, Note_off_c, 0, 62, 53
1, 87372, Note_on_c, 0, 94, 67
1, 87381, Control_c, 0, 64, 35
1, 87389, Note_off_c, 0, 94, 67
1, 87396, Control_c, 0, 64, 34
1, 87411, Control_c, 0, 64, 32
1, 87426, Control_c, 0, 64, 30
1, 87447, Note_on_c, 0, 94, 79
1, 87468, Note_off_c, 0, 94, 67
1, 87499, Control_c, 0, 64, 30
1, 87508, Note_on_c, 0, 94, 85
1, 87544, Control_c, 0, 64, 30
1, 87550, Note_off_c, 0, 94, 62
1, 87588, Control_c, 0, 64, 30
1, 87596, Note_on_c, 0, 70, 59
1, 87599, Note_on_c, 0, 89, 77
1, 87602, Note_on_c, 0, 58, 51
1, 87618, Note_off_c, 0, 70, 64
1, 87621, Note_off_c, 0, 89, 70
1, 87641, Note_off_c, 0, 58, 64
1, 87662, Control_c, 0, 64, 29
1, 87688, Note_on_c, 0, 101, 76
1, 87699, Control_c, 0, 64, 28
1, 87710, Note_on_c, 0, 94, 68
1, 87714, Control_c, 0, 64, 28
1, 87734, Note_off_c, 0, 101, 63
1, 87735, Note_off_c, 0, 94, 67
1, 87773, Control_c, 0, 64, 27
1, 87788, Control_c, 0, 64, 24
1, 87798, Note_on_c, 0, 101, 78
1, 87801, Note_on_c, 0, 94, 75
1, 87803, Control_c, 0, 64, 14
1, 87818, Control_c, 0, 64, 0
1, 87828, Note_off_c, 0, 94, 61
1, 87848, Note_off_c, 0, 101, 62
1, 87902, Note_on_c, 0, 51, 54
1, 87908, Control_c, 0, 64, 45
1, 87914, Note_on_c, 0, 90, 80
1, 87922, Control_c, 0, 64, 61
1, 87936, Note_off_c, 0, 51, 64
1, 87937, Control_c, 0, 64, 67
1, 87943, Note_off_c, 0, 90, 61
1, 87952, Control_c, 0, 64, 72
1, 87967, Control_c, 0, 64, 77
1, 87982, Control_c, 0, 64, 82
1, 87996, Control_c, 0, 64, 87
1, 88010, Note_on_c, 0, 102, 73
1, 88011, Control_c, 0, 64, 90
1, 88017, Note_on_c, 0, 94, 71
1, 88026, Control_c, 0, 64, 92
1, 88038, Note_off_c, 0, 94, 71
1, 88040, Note_off_c, 0, 102, 63
1, 88041, Control_c, 0, 64, 93
1, 88056, Control_c, 0, 64, 95
1, 88071, Control_c, 0, 64, 96
1, 88107, Note_on_c, 0, 94, 77
1, 88109, Note_on_c, 0, 102, 70
1, 88115, Control_c, 0, 64, 95
1, 88129, Control_c, 0, 64, 95
1, 88144, Control_c, 0, 64, 91
1, 88147, Note_off_c, 0, 94, 59
1, 88155, Note_off_c, 0, 102, 62
1, 88159, Control_c, 0, 64, 82
1, 88174, Control_c, 0, 64, 69
1, 88184, Note_on_c, 0, 58, 59
1, 88187, Note_on_c, 0, 66, 57
1, 88189, Note_on_c, 0, 87, 79
1, 88189, Control_c, 0, 64, 53
1, 88204, Control_c, 0, 64, 32
1, 88205, Note_off_c, 0, 58, 64
1, 88207, Note_off_c, 0, 66, 64
1, 88208, Note_off_c, 0, 87, 71
1, 88219, Control_c, 0, 64, 9
1, 88234, Control_c, 0, 64, 0
1, 88249, Control_c, 0, 64, 14
1, 88264, Control_c, 0, 64, 17
1, 88308, Control_c, 0, 64, 18
1, 88322, Control_c, 0, 64, 22
1, 88337, Control_c, 0, 64, 25
1, 88352, Control_c, 0, 64, 27
1, 88367, Control_c, 0, 64, 28
1, 88382, Control_c, 0, 64, 29
1, 88442, Note_on_c, 0, 78, 79
1, 88458, Note_on_c, 0, 75, 79
1, 88493, Control_c, 0, 64, 28
1, 88567, Control_c, 0, 64, 28
1, 88577, Note_on_c, 0, 77, 73
1, 88580, Note_on_c, 0, 74, 65
1, 88582, Control_c, 0, 64, 27
1, 88584, Note_off_c, 0, 75, 57
1, 88594, Note_off_c, 0, 78, 53
1, 88596, Control_c, 0, 64, 27
1, 88612, Control_c, 0, 64, 26
1, 88642, Control_c, 0, 64, 26
1, 88656, Control_c, 0, 64, 24
1, 88672, Control_c, 0, 64, 21
1, 88687, Control_c, 0, 64, 19
1, 88702, Control_c, 0, 64, 18
1, 88704, Note_off_c, 0, 74, 61
1, 88705, Note_off_c, 0, 77, 60
1, 88708, Note_on_c, 0, 73, 61
1, 88710, Note_on_c, 0, 78, 67
1, 88711, Note_on_c, 0, 76, 63
1, 88717, Control_c, 0, 64, 16
1, 88731, Note_off_c, 0, 76, 65
1, 88732, Control_c, 0, 64, 14
1, 88735, Note_off_c, 0, 73, 69
1, 88737, Note_off_c, 0, 78, 65
1, 88746, Control_c, 0, 64, 13
1, 88791, Control_c, 0, 64, 13
1, 88806, Control_c, 0, 64, 12
1, 88820, Control_c, 0, 64, 12
1, 88841, Note_on_c, 0, 78, 61
1, 88843, Note_on_c, 0, 72, 55
1, 88849, Note_on_c, 0, 75, 57
1, 88850, Control_c, 0, 64, 11
1, 88865, Control_c, 0, 64, 0
1, 88866, Note_off_c, 0, 72, 63
1, 88869, Note_off_c, 0, 75, 63
1, 88869, Note_off_c, 0, 78, 65
1, 88983, Note_on_c, 0, 78, 61
1, 88995, Note_on_c, 0, 74, 55
1, 88996, Note_on_c, 0, 71, 55
1, 89012, Note_off_c, 0, 78, 66
1, 89015, Note_off_c, 0, 74, 61
1, 89019, Note_off_c, 0, 71, 64
1, 89163, Note_on_c, 0, 70, 56
1, 89164, Note_on_c, 0, 73, 51
1, 89165, Note_on_c, 0, 78, 55
1, 89187, Note_off_c, 0, 73, 59
1, 89187, Note_off_c, 0, 70, 61
1, 89205, Note_off_c, 0, 78, 64
1, 89370, Note_on_c, 0, 78, 48
1, 89375, Note_on_c, 0, 69, 41
1, 89383, Note_on_c, 0, 72, 38
1, 89402, Note_off_c, 0, 69, 55
1, 89404, Note_off_c, 0, 78, 64
1, 89410, Note_off_c, 0, 72, 46
1, 89569, Note_on_c, 0, 68, 47
1, 89579, Note_on_c, 0, 78, 50
1, 89581, Note_on_c, 0, 71, 40
1, 89595, Note_off_c, 0, 68, 59
1, 89601, Note_off_c, 0, 78, 61
1, 89613, Note_off_c, 0, 71, 48
1, 89770, Note_on_c, 0, 80, 54
1, 89837, Note_off_c, 0, 80, 44
1, 89844, Note_on_c, 0, 78, 55
1, 89933, Note_on_c, 0, 77, 57
1, 89937, Note_off_c, 0, 78, 36
1, 89999, Note_off_c, 0, 77, 59
1, 90002, Note_on_c, 0, 78, 54
1, 90032, Note_off_c, 0, 78, 66
1, 90076, Note_on_c, 0, 73, 62
1, 90079, Note_on_c, 0, 66, 42
1, 90085, Note_on_c, 0, 70, 37
1, 90102, Note_off_c, 0, 73, 66
1, 90106, Note_off_c, 0, 66, 60
1, 90115, Note_off_c, 0, 70, 50
1, 90152, Note_on_c, 0, 85, 59
1, 90171, Note_off_c, 0, 85, 64
1, 90226, Note_on_c, 0, 85, 67
1, 90246, Note_off_c, 0, 85, 65
1, 90303, Note_on_c, 0, 85, 62
1, 90320, Note_off_c, 0, 85, 65
1, 90350, Note_on_c, 0, 78, 75
1, 90353, Note_on_c, 0, 61, 53
1, 90377, Note_off_c, 0, 78, 64
1, 90377, Control_c, 0, 64, 9
1, 90390, Note_on_c, 0, 73, 14
1, 90395, Note_off_c, 0, 61, 63
1, 90407, Control_c, 0, 64, 8
1, 90425, Note_on_c, 0, 90, 65
1, 90433, Note_off_c, 0, 73, 40
1, 90450, Note_off_c, 0, 90, 65
1, 90481, Control_c, 0, 64, 0
1, 90502, Note_on_c, 0, 90, 68
1, 90516, Note_off_c, 0, 90, 67
1, 90525, Control_c, 0, 64, 10
1, 90540, Control_c, 0, 64, 13
1, 90555, Control_c, 0, 64, 13
1, 90565, Note_on_c, 0, 90, 64
1, 90583, Note_off_c, 0, 90, 66
1, 90599, Control_c, 0, 64, 16
1, 90614, Control_c, 0, 64, 19
1, 90623, Note_on_c, 0, 80, 76
1, 90629, Control_c, 0, 64, 20
1, 90648, Note_off_c, 0, 80, 64
1, 90696, Control_c, 0, 64, 21
1, 90700, Note_on_c, 0, 92, 69
1, 90711, Control_c, 0, 64, 22
1, 90724, Note_off_c, 0, 92, 67
1, 90725, Control_c, 0, 64, 21
1, 90770, Note_on_c, 0, 92, 75
1, 90785, Control_c, 0, 64, 22
1, 90794, Note_off_c, 0, 92, 65
1, 90799, Control_c, 0, 64, 23
1, 90844, Control_c, 0, 64, 23
1, 90856, Poly_aftertouch_c, 0, 92, 0
1, 90857, Control_c, 0, 64, 24
1, 90872, Control_c, 0, 64, 26
1, 90906, Note_on_c, 0, 71, 54
1, 90906, Note_on_c, 0, 85, 79
1, 90917, Control_c, 0, 64, 25
1, 90920, Note_on_c, 0, 65, 44
1, 90936, Note_off_c, 0, 85, 65
1, 90937, Note_off_c, 0, 71, 65
1, 90949, Note_off_c, 0, 65, 61
1, 90999, Note_on_c, 0, 97, 77
1, 91006, Control_c, 0, 64, 24
1, 91012, Note_on_c, 0, 92, 68
1, 91035, Note_off_c, 0, 92, 69
1, 91035, Note_off_c, 0, 97, 61
1, 91095, Control_c, 0, 64, 25
1, 91106, Note_on_c, 0, 97, 74
1, 91116, Note_on_c, 0, 92, 69
1, 91125, Control_c, 0, 64, 25
1, 91130, Note_off_c, 0, 97, 66
1, 91131, Note_off_c, 0, 92, 66
1, 91185, Control_c, 0, 64, 26
1, 91186, Note_on_c, 0, 61, 55
1, 91189, Note_on_c, 0, 92, 81
1, 91191, Note_on_c, 0, 73, 54
1, 91199, Note_on_c, 0, 97, 78
1, 91211, Note_off_c, 0, 92, 66
1, 91214, Control_c, 0, 64, 26
1, 91218, Note_off_c, 0, 61, 58
1, 91218, Note_off_c, 0, 73, 60
1, 91222, Note_off_c, 0, 97, 65
1, 91229, Control_c, 0, 64, 27
1, 91244, Control_c, 0, 64, 28
1, 91259, Control_c, 0, 64, 29
1, 91283, Note_on_c, 0, 97, 79
1, 91283, Note_on_c, 0, 92, 75
1, 91288, Control_c, 0, 64, 29
1, 91303, Control_c, 0, 64, 30
1, 91306, Note_off_c, 0, 92, 69
1, 91318, Control_c, 0, 64, 31
1, 91322, Note_off_c, 0, 97, 64
1, 91333, Control_c, 0, 64, 31
1, 91347, Control_c, 0, 64, 32
1, 91355, Poly_aftertouch_c, 0, 97, 0
1, 91361, Note_on_c, 0, 97, 71
1, 91372, Note_on_c, 0, 92, 80
1, 91392, Control_c, 0, 64, 33
1, 91393, Note_off_c, 0, 92, 70
1, 91412, Note_off_c, 0, 97, 65
1, 91444, Control_c, 0, 64, 32
1, 91485, Note_on_c, 0, 97, 82
1, 91488, Control_c, 0, 64, 33
1, 91489, Note_on_c, 0, 66, 69
1, 91503, Control_c, 0, 64, 35
1, 91504, Note_on_c, 0, 94, 61
1, 91514, Note_off_c, 0, 66, 68
1, 91518, Control_c, 0, 64, 36
1, 91522, Note_off_c, 0, 94, 65
1, 91533, Control_c, 0, 64, 35
1, 91571, Note_off_c, 0, 97, 62
1, 91579, Note_on_c, 0, 99, 60
1, 91633, Note_off_c, 0, 99, 52
1, 91657, Note_on_c, 0, 93, 63
1, 91662, Note_on_c, 0, 97, 47
1, 91666, Control_c, 0, 64, 36
1, 91684, Note_off_c, 0, 93, 67
1, 91695, Control_c, 0, 64, 35
1, 91702, Note_off_c, 0, 97, 64
1, 91707, Note_on_c, 0, 99, 73
1, 91739, Control_c, 0, 64, 36
1, 91740, Note_off_c, 0, 99, 58
1, 91769, Control_c, 0, 64, 35
1, 91777, Note_on_c, 0, 92, 70
1, 91779, Note_on_c, 0, 82, 60
1, 91784, Note_on_c, 0, 78, 55
1, 91784, Note_on_c, 0, 97, 73
1, 91784, Control_c, 0, 64, 35
1, 91801, Note_off_c, 0, 92, 68
1, 91805, Note_off_c, 0, 82, 68
1, 91813, Note_off_c, 0, 78, 66
1, 91838, Note_off_c, 0, 97, 64
1, 91839, Note_on_c, 0, 99, 73
1, 91874, Control_c, 0, 64, 34
1, 91896, Note_off_c, 0, 99, 63
1, 91897, Note_on_c, 0, 91, 71
1, 91905, Note_on_c, 0, 83, 68
1, 91906, Note_on_c, 0, 97, 60
1, 91915, Note_on_c, 0, 80, 63
1, 91918, Control_c, 0, 64, 34
1, 91921, Note_off_c, 0, 91, 68
1, 91932, Note_off_c, 0, 83, 67
1, 91942, Note_off_c, 0, 80, 67
1, 91956, Note_off_c, 0, 97, 60
1, 91960, Note_on_c, 0, 99, 66
1, 91963, Control_c, 0, 64, 33
1, 92028, Note_on_c, 0, 90, 70
1, 92033, Note_on_c, 0, 97, 60
1, 92034, Note_off_c, 0, 99, 65
1, 92042, Note_on_c, 0, 82, 64
1, 92042, Note_on_c, 0, 85, 63
1, 92052, Control_c, 0, 64, 34
1, 92054, Note_off_c, 0, 90, 67
1, 92059, Note_off_c, 0, 85, 65
1, 92061, Note_off_c, 0, 82, 66
1, 92085, Note_off_c, 0, 97, 47
1, 92098, Note_on_c, 0, 99, 67
1, 92156, Note_off_c, 0, 99, 61
1, 92170, Control_c, 0, 64, 33
1, 92173, Note_on_c, 0, 97, 64
1, 92192, Control_c, 0, 64, 30
1, 92207, Control_c, 0, 64, 22
1, 92216, Note_on_c, 0, 99, 53
1, 92222, Control_c, 0, 64, 0
1, 92225, Note_off_c, 0, 97, 62
1, 92255, Note_off_c, 0, 99, 65
1, 92296, Control_c, 0, 64, 34
1, 92306, Note_on_c, 0, 92, 72
1, 92311, Control_c, 0, 64, 53
1, 92316, Note_on_c, 0, 59, 59
1, 92316, Note_on_c, 0, 95, 76
1, 92326, Control_c, 0, 64, 62
1, 92331, Note_off_c, 0, 92, 64
1, 92341, Control_c, 0, 64, 65
1, 92345, Note_off_c, 0, 59, 65
1, 92356, Control_c, 0, 64, 67
1, 92371, Control_c, 0, 64, 69
1, 92386, Control_c, 0, 64, 72
1, 92386, Note_on_c, 0, 97, 77
1, 92387, Note_off_c, 0, 95, 64
1, 92401, Control_c, 0, 64, 74
1, 92415, Control_c, 0, 64, 77
1, 92430, Control_c, 0, 64, 78
1, 92445, Control_c, 0, 64, 80
1, 92455, Note_on_c, 0, 91, 72
1, 92459, Note_on_c, 0, 95, 66
1, 92460, Control_c, 0, 64, 81
1, 92461, Note_off_c, 0, 97, 63
1, 92475, Control_c, 0, 64, 81
1, 92478, Note_off_c, 0, 91, 69
1, 92504, Control_c, 0, 64, 81
1, 92519, Note_on_c, 0, 97, 52
1, 92519, Control_c, 0, 64, 80
1, 92523, Note_off_c, 0, 95, 64
1, 92534, Control_c, 0, 64, 78
1, 92549, Control_c, 0, 64, 75
1, 92563, Control_c, 0, 64, 70
1, 92572, Note_on_c, 0, 95, 61
1, 92578, Control_c, 0, 64, 61
1, 92582, Note_on_c, 0, 90, 68
1, 92583, Note_on_c, 0, 71, 58
1, 92586, Note_on_c, 0, 80, 60
1, 92589, Note_off_c, 0, 97, 65
1, 92593, Control_c, 0, 64, 51
1, 92608, Note_off_c, 0, 90, 65
1, 92608, Control_c, 0, 64, 42
1, 92610, Note_off_c, 0, 71, 65
1, 92617, Note_off_c, 0, 80, 61
1, 92622, Control_c, 0, 64, 37
1, 92637, Control_c, 0, 64, 35
1, 92643, Note_on_c, 0, 97, 69
1, 92652, Note_off_c, 0, 95, 64
1, 92652, Control_c, 0, 64, 33
1, 92668, Control_c, 0, 64, 31
1, 92683, Control_c, 0, 64, 30
1, 92698, Control_c, 0, 64, 29
1, 92720, Note_on_c, 0, 95, 64
1, 92721, Note_off_c, 0, 97, 56
1, 92726, Note_on_c, 0, 89, 71
1, 92726, Note_on_c, 0, 82, 63
1, 92733, Note_on_c, 0, 73, 54
1, 92750, Note_off_c, 0, 89, 69
1, 92752, Note_off_c, 0, 82, 69
1, 92764, Note_off_c, 0, 73, 67
1, 92782, Note_on_c, 0, 97, 66
1, 92786, Note_off_c, 0, 95, 64
1, 92801, Control_c, 0, 64, 29
1, 92860, Note_on_c, 0, 95, 62
1, 92860, Note_off_c, 0, 97, 58
1, 92860, Control_c, 0, 64, 28
1, 92862, Note_on_c, 0, 87, 71
1, 92872, Note_on_c, 0, 83, 60
1, 92874, Note_on_c, 0, 75, 61
1, 92875, Control_c, 0, 64, 27
1, 92887, Note_off_c, 0, 87, 67
1, 92889, Note_off_c, 0, 83, 65
1, 92890, Control_c, 0, 64, 26
1, 92901, Note_off_c, 0, 75, 68
1, 92934, Note_off_c, 0, 95, 65
1, 92936, Note_on_c, 0, 97, 72
1, 92972, Control_c, 0, 64, 25
1, 92987, Control_c, 0, 64, 24
1, 93001, Control_c, 0, 64, 20
1, 93011, Note_off_c, 0, 97, 61
1, 93012, Note_on_c, 0, 95, 73
1, 93016, Control_c, 0, 64, 13
1, 93031, Control_c, 0, 64, 0
1, 93062, Poly_aftertouch_c, 0, 97, 0
1, 93071, Note_on_c, 0, 97, 54
1, 93075, Note_off_c, 0, 95, 63
1, 93102, Note_off_c, 0, 97, 66
1, 93120, Control_c, 0, 64, 39
1, 93134, Control_c, 0, 64, 55
1, 93149, Control_c, 0, 64, 62
1, 93155, Note_on_c, 0, 61, 58
1, 93159, Note_on_c, 0, 90, 64
1, 93164, Control_c, 0, 64, 64
1, 93173, Note_on_c, 0, 94, 59
1, 93179, Control_c, 0, 64, 66
1, 93184, Note_off_c, 0, 61, 66
1, 93186, Note_off_c, 0, 90, 66
1, 93194, Control_c, 0, 64, 68
1, 93209, Control_c, 0, 64, 71
1, 93224, Control_c, 0, 64, 74
1, 93227, Note_on_c, 0, 95, 72
1, 93233, Note_off_c, 0, 94, 63
1, 93238, Control_c, 0, 64, 77
1, 93253, Control_c, 0, 64, 78
1, 93305, Note_on_c, 0, 89, 62
1, 93316, Note_off_c, 0, 95, 33
1, 93326, Note_on_c, 0, 94, 61
1, 93328, Note_off_c, 0, 89, 64
1, 93364, Note_on_c, 0, 95, 51
1, 93371, Note_off_c, 0, 94, 59
1, 93401, Control_c, 0, 64, 77
1, 93406, Note_off_c, 0, 95, 57
1, 93416, Control_c, 0, 64, 76
1, 93430, Note_on_c, 0, 78, 61
1, 93431, Control_c, 0, 64, 75
1, 93432, Note_on_c, 0, 87, 68
1, 93433, Note_on_c, 0, 70, 57
1, 93445, Control_c, 0, 64, 74
1, 93449, Note_on_c, 0, 94, 54
1, 93455, Note_off_c, 0, 70, 60
1, 93460, Control_c, 0, 64, 72
1, 93463, Note_off_c, 0, 87, 63
1, 93464, Note_off_c, 0, 78, 61
1, 93476, Control_c, 0, 64, 67
1, 93491, Control_c, 0, 64, 60
1, 93498, Note_off_c, 0, 94, 60
1, 93506, Control_c, 0, 64, 50
1, 93513, Note_on_c, 0, 95, 62
1, 93521, Control_c, 0, 64, 44
1, 93532, Note_off_c, 0, 95, 60
1, 93536, Control_c, 0, 64, 42
1, 93550, Control_c, 0, 64, 40
1, 93565, Control_c, 0, 64, 38
1, 93570, Note_on_c, 0, 94, 60
1, 93578, Note_on_c, 0, 86, 64
1, 93580, Control_c, 0, 64, 33
1, 93587, Note_on_c, 0, 71, 53
1, 93591, Note_on_c, 0, 80, 58
1, 93595, Control_c, 0, 64, 25
1, 93604, Note_off_c, 0, 86, 68
1, 93609, Control_c, 0, 64, 20
1, 93610, Note_off_c, 0, 71, 61
1, 93619, Note_off_c, 0, 80, 60
1, 93632, Note_on_c, 0, 95, 70
1, 93637, Note_off_c, 0, 94, 64
1, 93683, Control_c, 0, 64, 19
1, 93698, Note_off_c, 0, 95, 60
1, 93725, Note_on_c, 0, 94, 62
1, 93726, Note_on_c, 0, 85, 69
1, 93735, Note_on_c, 0, 82, 57
1, 93743, Note_on_c, 0, 73, 55
1, 93754, Note_off_c, 0, 82, 65
1, 93759, Note_off_c, 0, 85, 59
1, 93775, Note_off_c, 0, 73, 67
1, 93793, Note_off_c, 0, 94, 63
1, 93804, Note_on_c, 0, 95, 70
1, 93809, Control_c, 0, 64, 19
1, 93839, Control_c, 0, 64, 18
1, 93846, Note_off_c, 0, 95, 50
1, 93854, Control_c, 0, 64, 17
1, 93868, Control_c, 0, 64, 12
1, 93883, Control_c, 0, 64, 0
1, 93885, Note_on_c, 0, 94, 62
1, 93924, Note_on_c, 0, 95, 61
1, 93940, Note_off_c, 0, 94, 61
1, 93977, Note_off_c, 0, 95, 61
1, 94017, Control_c, 0, 64, 33
1, 94030, Note_on_c, 0, 61, 51
1, 94032, Control_c, 0, 64, 54
1, 94035, Note_on_c, 0, 89, 68
1, 94042, Note_on_c, 0, 92, 61
1, 94047, Control_c, 0, 64, 63
1, 94061, Control_c, 0, 64, 66
1, 94065, Note_off_c, 0, 89, 62
1, 94070, Note_off_c, 0, 61, 62
1, 94076, Control_c, 0, 64, 69
1, 94091, Control_c, 0, 64, 74
1, 94106, Control_c, 0, 64, 80
1, 94118, Note_off_c, 0, 92, 63
1, 94121, Control_c, 0, 64, 86
1, 94125, Note_on_c, 0, 94, 66
1, 94135, Control_c, 0, 64, 90
1, 94150, Control_c, 0, 64, 94
1, 94165, Control_c, 0, 64, 97
1, 94180, Control_c, 0, 64, 97
1, 94188, Note_off_c, 0, 94, 63
1, 94209, Note_on_c, 0, 87, 54
1, 94209, Note_on_c, 0, 92, 59
1, 94234, Note_off_c, 0, 87, 62
1, 94267, Note_off_c, 0, 92, 63
1, 94271, Note_on_c, 0, 94, 61
1, 94321, Note_on_c, 0, 68, 53
1, 94330, Note_on_c, 0, 77, 50
1, 94330, Note_off_c, 0, 94, 51
1, 94342, Note_on_c, 0, 86, 63
1, 94344, Note_on_c, 0, 92, 66
1, 94353, Note_off_c, 0, 68, 56
1, 94354, Note_off_c, 0, 77, 60
1, 94366, Note_off_c, 0, 86, 66
1, 94398, Note_off_c, 0, 92, 60
1, 94407, Note_on_c, 0, 94, 60
1, 94470, Control_c, 0, 64, 98
1, 94481, Note_off_c, 0, 94, 62
1, 94482, Note_on_c, 0, 92, 65
1, 94485, Control_c, 0, 64, 99
1, 94488, Note_on_c, 0, 85, 63
1, 94497, Note_on_c, 0, 78, 60
1, 94499, Note_on_c, 0, 70, 57
1, 94499, Control_c, 0, 64, 100
1, 94514, Control_c, 0, 64, 103
1, 94518, Note_off_c, 0, 85, 63
1, 94525, Note_off_c, 0, 78, 63
1, 94527, Note_off_c, 0, 70, 55
1, 94529, Control_c, 0, 64, 104
1, 94533, Note_off_c, 0, 92, 49
1, 94547, Note_on_c, 0, 94, 66
1, 94615, Note_off_c, 0, 94, 64
1, 94632, Note_on_c, 0, 92, 55
1, 94652, Note_on_c, 0, 83, 66
1, 94663, Note_on_c, 0, 71, 57
1, 94669, Note_on_c, 0, 80, 56
1, 94680, Note_off_c, 0, 83, 68
1, 94695, Note_off_c, 0, 80, 63
1, 94711, Note_on_c, 0, 87, 71
1, 94712, Note_off_c, 0, 71, 57
1, 94720, Control_c, 0, 64, 105
1, 94750, Control_c, 0, 64, 106
1, 94756, Note_off_c, 0, 92, 32
1, 94791, Note_off_c, 0, 87, 63
1, 94801, Note_on_c, 0, 88, 72
1, 94824, Control_c, 0, 64, 103
1, 94839, Control_c, 0, 64, 92
1, 94854, Control_c, 0, 64, 77
1, 94854, Note_on_c, 0, 66, 53
1, 94857, Note_on_c, 0, 89, 75
1, 94857, Note_off_c, 0, 88, 59
1, 94869, Control_c, 0, 64, 64
1, 94884, Control_c, 0, 64, 50
1, 94891, Note_off_c, 0, 66, 54
1, 94893, Note_off_c, 0, 89, 64
1, 94895, Note_on_c, 0, 73, 56
1, 94898, Control_c, 0, 64, 41
1, 94913, Control_c, 0, 64, 48
1, 94928, Control_c, 0, 64, 62
1, 94942, Control_c, 0, 64, 69
1, 94957, Control_c, 0, 64, 77
1, 94972, Control_c, 0, 64, 88
1, 94987, Control_c, 0, 64, 99
1, 94999, Note_on_c, 0, 90, 72
1, 95002, Control_c, 0, 64, 105
1, 95008, Note_on_c, 0, 82, 61
1, 95016, Control_c, 0, 64, 108
1, 95025, Note_off_c, 0, 90, 63
1, 95027, Note_off_c, 0, 82, 66
1, 95031, Control_c, 0, 64, 122
1, 95033, Note_off_c, 0, 73, 41
1, 95046, Control_c, 0, 64, 127
1, 95061, Note_on_c, 0, 92, 53
1, 95089, Note_off_c, 0, 92, 58
1, 95116, Note_on_c, 0, 90, 70
1, 95145, Note_off_c, 0, 90, 63
1, 95161, Note_on_c, 0, 92, 67
1, 95200, Note_off_c, 0, 92, 59
1, 95245, Note_on_c, 0, 90, 54
1, 95266, Note_off_c, 0, 90, 58
1, 95287, Note_on_c, 0, 92, 49
1, 95316, Note_on_c, 0, 90, 61
1, 95325, Note_off_c, 0, 92, 50
1, 95345, Note_off_c, 0, 90, 66
1, 95422, Note_on_c, 0, 78, 75
1, 95450, Note_off_c, 0, 78, 62
1, 95496, Note_on_c, 0, 90, 61
1, 95528, Note_off_c, 0, 90, 65
1, 95529, Note_on_c, 0, 92, 68
1, 95600, Note_off_c, 0, 92, 58
1, 95604, Note_on_c, 0, 90, 67
1, 95634, Note_off_c, 0, 90, 62
1, 95667, Note_on_c, 0, 79, 80
1, 95693, Note_off_c, 0, 79, 60
1, 95737, Note_on_c, 0, 91, 68
1, 95754, Note_on_c, 0, 90, 41
1, 95779, Note_off_c, 0, 90, 49
1, 95789, Note_on_c, 0, 92, 64
1, 95801, Note_off_c, 0, 91, 64
1, 95865, Note_on_c, 0, 91, 69
1, 95939, Note_off_c, 0, 92, 35
1, 95963, Note_on_c, 0, 80, 77
1, 95969, Note_off_c, 0, 91, 59
1, 96011, Note_off_c, 0, 80, 62
1, 96011, Control_c, 0, 64, 92
1, 96026, Control_c, 0, 64, 72
1, 96041, Control_c, 0, 64, 58
1, 96056, Control_c, 0, 64, 46
1, 96071, Control_c, 0, 64, 54
1, 96073, Note_on_c, 0, 92, 59
1, 96086, Control_c, 0, 64, 63
1, 96097, Note_on_c, 0, 64, 48
1, 96100, Control_c, 0, 64, 71
1, 96115, Control_c, 0, 64, 80
1, 96130, Note_off_c, 0, 92, 57
1, 96130, Control_c, 0, 64, 96
1, 96136, Note_off_c, 0, 64, 63
1, 96145, Control_c, 0, 64, 127
1, 96153, Note_on_c, 0, 93, 58
1, 96190, Note_off_c, 0, 93, 59
1, 96246, Note_on_c, 0, 92, 54
1, 96271, Note_off_c, 0, 92, 59
1, 96273, Note_on_c, 0, 80, 57
1, 96294, Note_on_c, 0, 93, 61
1, 96302, Note_off_c, 0, 80, 65
1, 96330, Note_off_c, 0, 93, 59
1, 96369, Note_on_c, 0, 92, 63
1, 96402, Note_off_c, 0, 92, 58
1, 96419, Note_on_c, 0, 63, 52
1, 96432, Note_on_c, 0, 93, 62
1, 96449, Note_off_c, 0, 63, 62
1, 96464, Note_off_c, 0, 93, 61
1, 96506, Note_on_c, 0, 92, 63
1, 96533, Note_off_c, 0, 92, 66
1, 96540, Note_on_c, 0, 78, 67
1, 96551, Note_on_c, 0, 93, 60
1, 96565, Note_off_c, 0, 78, 67
1, 96569, Note_off_c, 0, 93, 62
1, 96604, Note_on_c, 0, 92, 68
1, 96619, Control_c, 0, 64, 87
1, 96631, Note_off_c, 0, 92, 66
1, 96634, Control_c, 0, 64, 67
1, 96644, Note_on_c, 0, 93, 65
1, 96649, Control_c, 0, 64, 48
1, 96664, Control_c, 0, 64, 45
1, 96686, Control_c, 0, 64, 57
1, 96699, Note_on_c, 0, 61, 61
1, 96701, Control_c, 0, 64, 67
1, 96706, Note_on_c, 0, 95, 5
1, 96714, Note_on_c, 0, 92, 73
1, 96715, Note_off_c, 0, 93, 64
1, 96716, Control_c, 0, 64, 77
1, 96730, Note_off_c, 0, 61, 67
1, 96731, Control_c, 0, 64, 90
1, 96746, Note_off_c, 0, 92, 61
1, 96746, Control_c, 0, 64, 102
1, 96760, Control_c, 0, 64, 104
1, 96764, Note_off_c, 0, 95, 29
1, 96775, Control_c, 0, 64, 107
1, 96790, Control_c, 0, 64, 115
1, 96805, Control_c, 0, 64, 127
1, 96816, Note_on_c, 0, 76, 67
1, 96828, Note_on_c, 0, 92, 74
1, 96840, Note_off_c, 0, 76, 68
1, 96858, Note_off_c, 0, 92, 58
1, 96886, Note_on_c, 0, 93, 65
1, 96908, Control_c, 0, 64, 124
1, 96923, Control_c, 0, 64, 105
1, 96937, Note_off_c, 0, 93, 62
1, 96938, Control_c, 0, 64, 93
1, 96953, Note_on_c, 0, 92, 67
1, 96953, Control_c, 0, 64, 82
1, 96968, Control_c, 0, 64, 70
1, 96983, Control_c, 0, 64, 61
1, 96995, Note_off_c, 0, 92, 59
1, 96998, Control_c, 0, 64, 50
1, 97012, Control_c, 0, 64, 42
1, 97013, Note_on_c, 0, 93, 46
1, 97027, Control_c, 0, 64, 40
1, 97043, Note_off_c, 0, 93, 53
1, 97063, Note_on_c, 0, 102, 74
1, 97071, Note_on_c, 0, 87, 57
1, 97072, Control_c, 0, 64, 38
1, 97086, Note_on_c, 0, 92, 59
1, 97086, Control_c, 0, 64, 36
1, 97089, Note_off_c, 0, 87, 62
1, 97101, Control_c, 0, 64, 35
1, 97105, Note_off_c, 0, 92, 59
1, 97116, Control_c, 0, 64, 34
1, 97121, Note_off_c, 0, 102, 55
1, 97130, Control_c, 0, 64, 34
1, 97141, Note_on_c, 0, 93, 63
1, 97145, Control_c, 0, 64, 33
1, 97160, Control_c, 0, 64, 31
1, 97173, Note_off_c, 0, 93, 63
1, 97175, Control_c, 0, 64, 31
1, 97196, Note_on_c, 0, 92, 68
1, 97238, Note_off_c, 0, 92, 57
1, 97257, Note_on_c, 0, 93, 52
1, 97278, Control_c, 0, 64, 31
1, 97290, Note_off_c, 0, 93, 60
1, 97294, Note_on_c, 0, 85, 64
1, 97305, Note_on_c, 0, 100, 72
1, 97316, Note_on_c, 0, 92, 59
1, 97320, Note_off_c, 0, 85, 68
1, 97347, Note_off_c, 0, 92, 45
1, 97352, Control_c, 0, 64, 32
1, 97355, Note_off_c, 0, 100, 48
1, 97367, Control_c, 0, 64, 33
1, 97373, Note_on_c, 0, 93, 70
1, 97382, Control_c, 0, 64, 34
1, 97406, Note_off_c, 0, 93, 60
1, 97442, Note_on_c, 0, 68, 60
1, 97446, Note_on_c, 0, 92, 71
1, 97449, Control_c, 0, 64, 34
1, 97465, Control_c, 0, 64, 36
1, 97471, Note_off_c, 0, 68, 66
1, 97474, Note_off_c, 0, 92, 63
1, 97480, Control_c, 0, 64, 38
1, 97508, Note_on_c, 0, 93, 53
1, 97541, Note_off_c, 0, 93, 60
1, 97552, Note_on_c, 0, 99, 74
1, 97554, Control_c, 0, 64, 39
1, 97560, Note_on_c, 0, 92, 71
1, 97561, Note_on_c, 0, 84, 63
1, 97568, Control_c, 0, 64, 41
1, 97583, Control_c, 0, 64, 42
1, 97586, Note_off_c, 0, 84, 70
1, 97605, Note_off_c, 0, 92, 43
1, 97612, Control_c, 0, 64, 42
1, 97626, Note_on_c, 0, 93, 68
1, 97648, Note_off_c, 0, 99, 50
1, 97670, Note_off_c, 0, 93, 62
1, 97678, Note_on_c, 0, 92, 63
1, 97728, Note_off_c, 0, 92, 59
1, 97743, Note_on_c, 0, 93, 52
1, 97759, Control_c, 0, 64, 42
1, 97777, Note_off_c, 0, 93, 65
1, 97794, Note_on_c, 0, 97, 64
1, 97803, Note_on_c, 0, 82, 61
1, 97809, Note_on_c, 0, 92, 60
1, 97819, Control_c, 0, 64, 42
1, 97832, Note_off_c, 0, 82, 67
1, 97847, Note_off_c, 0, 92, 58
1, 97868, Note_off_c, 0, 97, 60
1, 97872, Note_on_c, 0, 93, 62
1, 97907, Note_off_c, 0, 93, 64
1, 97925, Note_on_c, 0, 92, 73
1, 97970, Note_off_c, 0, 92, 61
1, 97987, Note_on_c, 0, 93, 47
1, 98026, Note_off_c, 0, 93, 58
1, 98039, Note_on_c, 0, 84, 59
1, 98044, Note_on_c, 0, 92, 63
1, 98044, Note_on_c, 0, 99, 71
1, 98056, Control_c, 0, 64, 42
1, 98065, Note_off_c, 0, 84, 69
1, 98071, Control_c, 0, 64, 43
1, 98090, Note_off_c, 0, 92, 58
1, 98113, Note_on_c, 0, 93, 68
1, 98118, Note_off_c, 0, 99, 60
1, 98151, Note_off_c, 0, 93, 60
1, 98163, Note_on_c, 0, 92, 70
1, 98196, Control_c, 0, 64, 42
1, 98211, Control_c, 0, 64, 39
1, 98220, Note_off_c, 0, 92, 59
1, 98226, Control_c, 0, 64, 32
1, 98241, Control_c, 0, 64, 16
1, 98246, Note_on_c, 0, 93, 38
1, 98256, Control_c, 0, 64, 0
1, 98280, Note_off_c, 0, 93, 53
1, 98281, Note_on_c, 0, 73, 51
1, 98290, Note_on_c, 0, 100, 70
1, 98295, Note_on_c, 0, 92, 66
1, 98300, Note_on_c, 0, 85, 41
1, 98301, Control_c, 0, 64, 29
1, 98316, Control_c, 0, 64, 52
1, 98330, Control_c, 0, 64, 62
1, 98345, Control_c, 0, 64, 65
1, 98348, Note_off_c, 0, 92, 49
1, 98360, Control_c, 0, 64, 66
1, 98363, Note_on_c, 0, 93, 68
1, 98375, Control_c, 0, 64, 68
1, 98390, Control_c, 0, 64, 72
1, 98395, Note_off_c, 0, 73, 59
1, 98405, Control_c, 0, 64, 77
1, 98406, Note_off_c, 0, 93, 58
1, 98411, Note_off_c, 0, 100, 44
1, 98420, Control_c, 0, 64, 81
1, 98420, Note_off_c, 0, 85, 34
1, 98425, Note_on_c, 0, 92, 63
1, 98434, Control_c, 0, 64, 84
1, 98475, Note_off_c, 0, 92, 59
1, 98479, Control_c, 0, 64, 84
1, 98484, Note_on_c, 0, 93, 60
1, 98494, Control_c, 0, 64, 86
1, 98508, Control_c, 0, 64, 89
1, 98523, Control_c, 0, 64, 91
1, 98538, Note_on_c, 0, 88, 66
1, 98539, Note_on_c, 0, 97, 78
1, 98545, Note_on_c, 0, 92, 75
1, 98549, Note_off_c, 0, 93, 65
1, 98554, Note_off_c, 0, 88, 67
1, 98569, Note_off_c, 0, 92, 66
1, 98569, Note_off_c, 0, 97, 65
1, 98582, Control_c, 0, 64, 92
1, 98627, Control_c, 0, 64, 91
1, 98642, Control_c, 0, 64, 90
1, 98656, Control_c, 0, 64, 89
1, 98671, Control_c, 0, 64, 86
1, 98686, Control_c, 0, 64, 82
1, 98701, Control_c, 0, 64, 75
1, 98715, Control_c, 0, 64, 70
1, 98730, Control_c, 0, 64, 65
1, 98745, Control_c, 0, 64, 60
1, 98760, Control_c, 0, 64, 54
1, 98774, Control_c, 0, 64, 47
1, 98780, Note_on_c, 0, 79, 89
1, 98789, Control_c, 0, 64, 44
1, 98804, Control_c, 0, 64, 43
1, 98834, Note_off_c, 0, 79, 62
1, 98834, Control_c, 0, 64, 43
1, 98849, Control_c, 0, 64, 42
1, 98851, Note_on_c, 0, 91, 83
1, 98864, Control_c, 0, 64, 40
1, 98879, Control_c, 0, 64, 38
1, 98891, Note_on_c, 0, 93, 73
1, 98908, Note_off_c, 0, 91, 65
1, 98960, Control_c, 0, 64, 37
1, 98970, Note_off_c, 0, 93, 61
1, 98973, Note_on_c, 0, 91, 71
1, 98975, Control_c, 0, 64, 34
1, 98989, Control_c, 0, 64, 30
1, 99004, Control_c, 0, 64, 23
1, 99019, Control_c, 0, 64, 0
1, 99060, Note_on_c, 0, 78, 83
1, 99075, Note_off_c, 0, 91, 56
1, 99095, Control_c, 0, 64, 30
1, 99096, Note_off_c, 0, 78, 61
1, 99110, Control_c, 0, 64, 48
1, 99125, Control_c, 0, 64, 57
1, 99139, Control_c, 0, 64, 61
1, 99154, Control_c, 0, 64, 62
1, 99155, Note_on_c, 0, 90, 73
1, 99176, Note_on_c, 0, 63, 44
1, 99184, Control_c, 0, 64, 61
1, 99199, Control_c, 0, 64, 55
1, 99202, Note_off_c, 0, 90, 51
1, 99207, Note_off_c, 0, 63, 59
1, 99214, Control_c, 0, 64, 39
1, 99224, Note_on_c, 0, 92, 57
1, 99229, Control_c, 0, 64, 31
1, 99244, Control_c, 0, 64, 42
1, 99259, Control_c, 0, 64, 54
1, 99262, Note_off_c, 0, 92, 61
1, 99274, Control_c, 0, 64, 61
1, 99288, Control_c, 0, 64, 64
1, 99301, Note_on_c, 0, 90, 61
1, 99303, Control_c, 0, 64, 66
1, 99318, Control_c, 0, 64, 69
1, 99329, Note_on_c, 0, 78, 56
1, 99329, Note_off_c, 0, 90, 67
1, 99332, Control_c, 0, 64, 74
1, 99347, Control_c, 0, 64, 77
1, 99359, Note_off_c, 0, 78, 64
1, 99361, Note_on_c, 0, 92, 55
1, 99362, Control_c, 0, 64, 77
1, 99377, Control_c, 0, 64, 70
1, 99382, Note_off_c, 0, 92, 59
1, 99392, Control_c, 0, 64, 63
1, 99406, Control_c, 0, 64, 60
1, 99421, Control_c, 0, 64, 65
1, 99423, Note_on_c, 0, 90, 61
1, 99436, Control_c, 0, 64, 70
1, 99451, Control_c, 0, 64, 77
1, 99454, Note_off_c, 0, 90, 62
1, 99466, Control_c, 0, 64, 84
1, 99471, Note_on_c, 0, 92, 62
1, 99472, Note_on_c, 0, 61, 59
1, 99481, Control_c, 0, 64, 87
1, 99496, Note_off_c, 0, 61, 62
1, 99519, Note_off_c, 0, 92, 58
1, 99525, Control_c, 0, 64, 87
1, 99540, Control_c, 0, 64, 89
1, 99555, Control_c, 0, 64, 91
1, 99558, Note_on_c, 0, 90, 58
1, 99570, Control_c, 0, 64, 92
1, 99582, Note_off_c, 0, 90, 63
1, 99587, Note_on_c, 0, 76, 65
1, 99602, Note_on_c, 0, 92, 55
1, 99605, Note_off_c, 0, 76, 68
1, 99614, Control_c, 0, 64, 95
1, 99629, Control_c, 0, 64, 100
1, 99630, Note_off_c, 0, 92, 63
1, 99644, Control_c, 0, 64, 104
1, 99653, Note_on_c, 0, 90, 64
1, 99658, Control_c, 0, 64, 105
1, 99695, Note_off_c, 0, 90, 60
1, 99695, Control_c, 0, 64, 104
1, 99710, Control_c, 0, 64, 99
1, 99713, Note_on_c, 0, 92, 63
1, 99725, Note_on_c, 0, 59, 59
1, 99725, Control_c, 0, 64, 84
1, 99740, Control_c, 0, 64, 69
1, 99746, Note_off_c, 0, 59, 63
1, 99755, Control_c, 0, 64, 56
1, 99770, Control_c, 0, 64, 39
1, 99772, Note_on_c, 0, 90, 61
1, 99777, Note_off_c, 0, 92, 62
1, 99785, Control_c, 0, 64, 39
1, 99800, Note_off_c, 0, 90, 68
1, 99800, Control_c, 0, 64, 50
1, 99814, Control_c, 0, 64, 62
1, 99829, Control_c, 0, 64, 67
1, 99844, Control_c, 0, 64, 70
1, 99849, Note_on_c, 0, 75, 68
1, 99859, Control_c, 0, 64, 75
1, 99865, Note_on_c, 0, 90, 73
1, 99874, Control_c, 0, 64, 78
1, 99876, Note_off_c, 0, 75, 68
1, 99889, Control_c, 0, 64, 81
1, 99904, Control_c, 0, 64, 82
1, 99910, Note_off_c, 0, 90, 60
1, 99917, Note_on_c, 0, 92, 64
1, 99919, Control_c, 0, 64, 81
1, 99934, Control_c, 0, 64, 79
1, 99945, Note_off_c, 0, 92, 64
1, 99949, Control_c, 0, 64, 76
1, 99963, Control_c, 0, 64, 72
1, 99978, Control_c, 0, 64, 65
1, 99990, Note_on_c, 0, 90, 59
1, 99993, Control_c, 0, 64, 58
1, 100008, Control_c, 0, 64, 50
1, 100019, Note_off_c, 0, 90, 63
1, 100023, Control_c, 0, 64, 43
1, 100033, Note_on_c, 0, 92, 59
1, 100037, Control_c, 0, 64, 40
1, 100052, Control_c, 0, 64, 39
1, 100059, Note_off_c, 0, 92, 59
1, 100067, Control_c, 0, 64, 38
1, 100081, Control_c, 0, 64, 36
1, 100095, Note_on_c, 0, 100, 69
1, 100096, Control_c, 0, 64, 32
1, 100101, Note_on_c, 0, 90, 57
1, 100101, Note_on_c, 0, 85, 57
1, 100111, Control_c, 0, 64, 30
1, 100121, Note_off_c, 0, 85, 63
1, 100126, Control_c, 0, 64, 29
1, 100129, Note_off_c, 0, 100, 55
1, 100149, Note_on_c, 0, 92, 62
1, 100157, Note_off_c, 0, 90, 40
1, 100199, Note_off_c, 0, 92, 62
1, 100215, Control_c, 0, 64, 30
1, 100220, Note_on_c, 0, 90, 47
1, 100229, Control_c, 0, 64, 32
1, 100244, Control_c, 0, 64, 34
1, 100259, Control_c, 0, 64, 36
1, 100263, Note_off_c, 0, 90, 58
1, 100265, Note_on_c, 0, 92, 55
1, 100274, Control_c, 0, 64, 37
1, 100305, Note_off_c, 0, 92, 58
1, 100318, Control_c, 0, 64, 38
1, 100321, Note_on_c, 0, 83, 51
1, 100332, Note_on_c, 0, 99, 75
1, 100333, Control_c, 0, 64, 39
1, 100342, Note_off_c, 0, 83, 59
1, 100343, Note_on_c, 0, 90, 64
1, 100348, Control_c, 0, 64, 40
1, 100363, Control_c, 0, 64, 42
1, 100375, Note_off_c, 0, 90, 47
1, 100378, Control_c, 0, 64, 43
1, 100393, Control_c, 0, 64, 43
1, 100397, Note_on_c, 0, 92, 71
1, 100421, Note_off_c, 0, 99, 52
1, 100441, Note_off_c, 0, 92, 56
1, 100459, Note_on_c, 0, 66, 60
1, 100459, Control_c, 0, 64, 44
1, 100468, Note_on_c, 0, 90, 68
1, 100479, Note_off_c, 0, 66, 64
1, 100516, Note_off_c, 0, 90, 63
1, 100533, Note_on_c, 0, 92, 59
1, 100548, Control_c, 0, 64, 44
1, 100569, Note_off_c, 0, 92, 59
1, 100578, Control_c, 0, 64, 44
1, 100588, Note_on_c, 0, 90, 70
1, 100590, Note_on_c, 0, 97, 74
1, 100592, Note_on_c, 0, 82, 61
1, 100593, Control_c, 0, 64, 44
1, 100611, Note_off_c, 0, 82, 65
1, 100622, Control_c, 0, 64, 45
1, 100641, Note_off_c, 0, 90, 58
1, 100649, Note_on_c, 0, 92, 66
1, 100652, Control_c, 0, 64, 44
1, 100695, Note_off_c, 0, 92, 58
1, 100712, Note_on_c, 0, 90, 61
1, 100724, Note_off_c, 0, 97, 35
1, 100727, Control_c, 0, 64, 44
1, 100763, Note_off_c, 0, 90, 62
1, 100771, Note_on_c, 0, 92, 55
1, 100806, Note_off_c, 0, 92, 63
1, 100816, Control_c, 0, 64, 44
1, 100819, Note_on_c, 0, 80, 57
1, 100824, Note_on_c, 0, 95, 66
1, 100847, Note_off_c, 0, 80, 64
1, 100852, Note_on_c, 0, 90, 35
1, 100875, Control_c, 0, 64, 45
1, 100887, Note_on_c, 0, 92, 67
1, 100888, Note_off_c, 0, 90, 48
1, 100909, Note_off_c, 0, 95, 48
1, 100919, Control_c, 0, 64, 44
1, 100929, Note_off_c, 0, 92, 58
1, 100950, Note_on_c, 0, 90, 58
1, 100996, Note_off_c, 0, 90, 58
1, 101010, Note_on_c, 0, 92, 50
1, 101023, Control_c, 0, 64, 45
1, 101046, Note_off_c, 0, 92, 63
1, 101056, Note_on_c, 0, 82, 61
1, 101059, Note_on_c, 0, 90, 65
1, 101064, Note_on_c, 0, 97, 69
1, 101083, Note_off_c, 0, 82, 68
1, 101117, Note_off_c, 0, 90, 61
1, 101123, Note_on_c, 0, 92, 71
1, 101131, Note_off_c, 0, 97, 54
1, 101141, Control_c, 0, 64, 44
1, 101156, Control_c, 0, 64, 40
1, 101167, Note_off_c, 0, 92, 53
1, 101171, Control_c, 0, 64, 32
1, 101193, Control_c, 0, 64, 0
1, 101197, Note_on_c, 0, 90, 57
1, 101228, Note_on_c, 0, 71, 45
1, 101234, Note_off_c, 0, 90, 58
1, 101269, Note_on_c, 0, 92, 53
1, 101282, Control_c, 0, 64, 23
1, 101296, Note_off_c, 0, 92, 61
1, 101297, Control_c, 0, 64, 48
1, 101301, Note_on_c, 0, 99, 75
1, 101308, Note_off_c, 0, 71, 60
1, 101311, Control_c, 0, 64, 60
1, 101315, Note_on_c, 0, 90, 67
1, 101320, Note_on_c, 0, 83, 53
1, 101326, Control_c, 0, 64, 65
1, 101341, Control_c, 0, 64, 67
1, 101356, Control_c, 0, 64, 69
1, 101367, Note_off_c, 0, 90, 57
1, 101369, Note_on_c, 0, 92, 71
1, 101371, Control_c, 0, 64, 73
1, 101377, Note_off_c, 0, 99, 61
1, 101385, Control_c, 0, 64, 77
1, 101400, Control_c, 0, 64, 82
1, 101412, Note_off_c, 0, 92, 56
1, 101415, Control_c, 0, 64, 85
1, 101429, Control_c, 0, 64, 87
1, 101443, Note_on_c, 0, 90, 50
1, 101444, Control_c, 0, 64, 89
1, 101460, Control_c, 0, 64, 90
1, 101475, Control_c, 0, 64, 91
1, 101490, Control_c, 0, 64, 91
1, 101494, Note_off_c, 0, 90, 42
1, 101499, Note_on_c, 0, 92, 36
1, 101505, Control_c, 0, 64, 93
1, 101520, Control_c, 0, 64, 96
1, 101531, Note_on_c, 0, 95, 85
1, 101534, Control_c, 0, 64, 101
1, 101537, Note_on_c, 0, 87, 70
1, 101538, Note_off_c, 0, 92, 53
1, 101542, Note_off_c, 0, 83, 55
1, 101549, Note_off_c, 0, 95, 72
1, 101549, Control_c, 0, 64, 103
1, 101551, Poly_aftertouch_c, 0, 90, 0
1, 101561, Note_off_c, 0, 87, 65
1, 101638, Control_c, 0, 64, 102
1, 101652, Control_c, 0, 64, 101
1, 101712, Control_c, 0, 64, 100
1, 101726, Control_c, 0, 64, 98
1, 101741, Control_c, 0, 64, 97
1, 101749, Note_on_c, 0, 74, 92
1, 101783, Note_off_c, 0, 74, 65
1, 101800, Control_c, 0, 64, 97
1, 101815, Control_c, 0, 64, 96
1, 101825, Note_on_c, 0, 86, 78
1, 101876, Note_on_c, 0, 87, 75
1, 101884, Note_off_c, 0, 86, 63
1, 101956, Note_on_c, 0, 86, 70
1, 101956, Control_c, 0, 64, 86
1, 101971, Control_c, 0, 64, 71
1, 101986, Control_c, 0, 64, 56
1, 101991, Note_off_c, 0, 87, 62
1, 102001, Control_c, 0, 64, 32
1, 102003, Note_on_c, 0, 75, 89
1, 102015, Control_c, 0, 64, 15
1, 102023, Note_off_c, 0, 86, 63
1, 102030, Control_c, 0, 64, 18
1, 102042, Note_off_c, 0, 75, 65
1, 102045, Control_c, 0, 64, 23
1, 102059, Control_c, 0, 64, 30
1, 102074, Control_c, 0, 64, 37
1, 102090, Control_c, 0, 64, 42
1, 102105, Control_c, 0, 64, 42
1, 102113, Note_on_c, 0, 87, 72
1, 102120, Control_c, 0, 64, 42
1, 102127, Note_on_c, 0, 81, 40
1, 102149, Control_c, 0, 64, 42
1, 102153, Note_off_c, 0, 81, 51
1, 102164, Control_c, 0, 64, 43
1, 102174, Note_off_c, 0, 87, 61
1, 102188, Note_on_c, 0, 88, 54
1, 102193, Control_c, 0, 64, 43
1, 102208, Control_c, 0, 64, 43
1, 102229, Note_on_c, 0, 75, 84
1, 102234, Note_on_c, 0, 63, 70
1, 102235, Note_off_c, 0, 88, 64
1, 102240, Note_on_c, 0, 67, 66
1, 102242, Note_on_c, 0, 87, 70
1, 102256, Note_off_c, 0, 75, 66
1, 102266, Note_off_c, 0, 67, 67
1, 102269, Control_c, 0, 64, 42
1, 102276, Note_off_c, 0, 63, 60
1, 102283, Control_c, 0, 64, 41
1, 102296, Note_off_c, 0, 87, 59
1, 102298, Control_c, 0, 64, 40
1, 102309, Note_on_c, 0, 88, 65
1, 102313, Control_c, 0, 64, 39
1, 102351, Note_off_c, 0, 88, 56
1, 102357, Control_c, 0, 64, 38
1, 102372, Control_c, 0, 64, 34
1, 102384, Note_on_c, 0, 87, 65
1, 102387, Control_c, 0, 64, 31
1, 102402, Control_c, 0, 64, 30
1, 102417, Note_off_c, 0, 87, 59
1, 102432, Control_c, 0, 64, 30
1, 102444, Note_on_c, 0, 88, 65
1, 102447, Control_c, 0, 64, 29
1, 102462, Control_c, 0, 64, 27
1, 102462, Note_on_c, 0, 74, 90
1, 102471, Note_on_c, 0, 65, 69
1, 102474, Note_on_c, 0, 68, 73
1, 102474, Note_off_c, 0, 88, 65
1, 102476, Control_c, 0, 64, 27
1, 102486, Note_off_c, 0, 74, 66
1, 102496, Note_off_c, 0, 65, 68
1, 102497, Note_off_c, 0, 68, 68
1, 102506, Control_c, 0, 64, 26
1, 102506, Note_on_c, 0, 87, 73
1, 102536, Note_off_c, 0, 87, 64
1, 102554, Note_on_c, 0, 88, 64
1, 102587, Note_off_c, 0, 88, 62
1, 102595, Control_c, 0, 64, 24
1, 102610, Control_c, 0, 64, 12
1, 102624, Control_c, 0, 64, 0
1, 102631, Note_on_c, 0, 87, 51
1, 102651, Note_off_c, 0, 87, 60
1, 102663, Note_on_c, 0, 88, 66
1, 102698, Note_on_c, 0, 73, 87
1, 102709, Note_on_c, 0, 70, 75
1, 102715, Note_on_c, 0, 67, 67
1, 102717, Note_off_c, 0, 88, 64
1, 102721, Control_c, 0, 64, 40
1, 102726, Note_on_c, 0, 87, 71
1, 102736, Control_c, 0, 64, 58
1, 102743, Note_off_c, 0, 67, 66
1, 102743, Note_off_c, 0, 70, 59
1, 102749, Note_off_c, 0, 73, 63
1, 102750, Control_c, 0, 64, 65
1, 102765, Control_c, 0, 64, 69
1, 102767, Note_off_c, 0, 87, 62
1, 102779, Note_on_c, 0, 86, 74
1, 102780, Control_c, 0, 64, 75
1, 102795, Control_c, 0, 64, 82
1, 102804, Note_off_c, 0, 86, 64
1, 102809, Control_c, 0, 64, 87
1, 102824, Control_c, 0, 64, 91
1, 102833, Note_on_c, 0, 87, 56
1, 102839, Control_c, 0, 64, 95
1, 102854, Control_c, 0, 64, 99
1, 102869, Control_c, 0, 64, 102
1, 102893, Note_off_c, 0, 87, 59
1, 102903, Note_on_c, 0, 88, 79
1, 102928, Control_c, 0, 64, 103
1, 102939, Note_off_c, 0, 88, 53
1, 102943, Control_c, 0, 64, 104
1, 102957, Control_c, 0, 64, 105
1, 102959, Note_on_c, 0, 89, 79
1, 103001, Control_c, 0, 64, 106
1, 103007, Note_off_c, 0, 89, 63
1, 103009, Note_on_c, 0, 90, 65
1, 103016, Control_c, 0, 64, 108
1, 103031, Control_c, 0, 64, 108
1, 103035, Note_off_c, 0, 90, 68
1, 103063, Note_on_c, 0, 91, 77
1, 103077, Control_c, 0, 64, 109
1, 103085, Note_off_c, 0, 91, 69
1, 103126, Note_on_c, 0, 92, 65
1, 103141, Note_off_c, 0, 92, 66
1, 103172, Note_on_c, 0, 93, 76
1, 103193, Note_off_c, 0, 93, 68
1, 103222, Note_on_c, 0, 94, 72
1, 103240, Control_c, 0, 64, 109
1, 103245, Note_off_c, 0, 94, 69
1, 103255, Control_c, 0, 64, 110
1, 103270, Control_c, 0, 64, 111
1, 103273, Note_on_c, 0, 95, 80
1, 103284, Control_c, 0, 64, 112
1, 103299, Control_c, 0, 64, 122
1, 103314, Note_off_c, 0, 95, 62
1, 103314, Control_c, 0, 64, 127
1, 103318, Note_on_c, 0, 96, 76
1, 103355, Note_on_c, 0, 97, 80
1, 103371, Note_off_c, 0, 96, 62
1, 103385, Note_off_c, 0, 97, 64
1, 103415, Note_on_c, 0, 98, 78
1, 103448, Note_off_c, 0, 98, 62
1, 103469, Control_c, 0, 64, 113
1, 103479, Note_on_c, 0, 99, 80
1, 103484, Control_c, 0, 64, 88
1, 103499, Control_c, 0, 64, 70
1, 103514, Control_c, 0, 64, 53
1, 103520, Note_on_c, 0, 100, 67
1, 103529, Control_c, 0, 64, 24
1, 103535, Note_on_c, 0, 71, 71
1, 103538, Note_on_c, 0, 76, 79
1, 103544, Control_c, 0, 64, 25
1, 103545, Note_on_c, 0, 68, 63
1, 103559, Control_c, 0, 64, 50
1, 103573, Control_c, 0, 64, 65
1, 103588, Control_c, 0, 64, 77
1, 103603, Control_c, 0, 64, 94
1, 103618, Control_c, 0, 64, 110
1, 103622, Note_on_c, 0, 102, 70
1, 103624, Note_off_c, 0, 99, 0
1, 103632, Control_c, 0, 64, 115
1, 103642, Note_on_c, 0, 99, 45
1, 103647, Control_c, 0, 64, 127
1, 103654, Note_off_c, 0, 100, 61
1, 103678, Note_off_c, 0, 102, 60
1, 103697, Note_off_c, 0, 99, 64
1, 103711, Note_on_c, 0, 98, 71
1, 103732, Note_off_c, 0, 98, 70
1, 103761, Note_off_c, 0, 71, 55
1, 103768, Note_on_c, 0, 97, 69
1, 103788, Note_off_c, 0, 76, 38
1, 103806, Note_off_c, 0, 68, 34
1, 103811, Note_on_c, 0, 96, 76
1, 103828, Note_off_c, 0, 97, 62
1, 103863, Note_off_c, 0, 96, 61
1, 103878, Note_on_c, 0, 95, 72
1, 103909, Note_off_c, 0, 95, 62
1, 103946, Note_on_c, 0, 94, 70
1, 103977, Note_off_c, 0, 94, 61
1, 104000, Note_on_c, 0, 93, 69
1, 104026, Note_off_c, 0, 93, 64
1, 104060, Note_on_c, 0, 92, 66
1, 104104, Note_off_c, 0, 92, 55
1, 104122, Note_on_c, 0, 91, 69
1, 104147, Note_off_c, 0, 91, 69
1, 104195, Note_on_c, 0, 90, 66
1, 104202, Note_on_c, 0, 63, 46
1, 104223, Note_off_c, 0, 90, 63
1, 104244, Note_off_c, 0, 63, 60
1, 104247, Note_on_c, 0, 89, 67
1, 104262, Control_c, 0, 64, 97
1, 104264, Note_on_c, 0, 73, 45
1, 104272, Note_off_c, 0, 89, 68
1, 104277, Control_c, 0, 64, 75
1, 104292, Control_c, 0, 64, 59
1, 104307, Control_c, 0, 64, 27
1, 104319, Note_on_c, 0, 88, 70
1, 104322, Control_c, 0, 64, 0
1, 104337, Control_c, 0, 64, 14
1, 104352, Control_c, 0, 64, 45
1, 104366, Control_c, 0, 64, 61
1, 104379, Note_off_c, 0, 88, 60
1, 104381, Control_c, 0, 64, 69
1, 104390, Note_on_c, 0, 87, 66
1, 104396, Control_c, 0, 64, 76
1, 104399, Note_on_c, 0, 79, 51
1, 104411, Control_c, 0, 64, 83
1, 104417, Note_off_c, 0, 87, 68
1, 104423, Note_off_c, 0, 79, 62
1, 104426, Control_c, 0, 64, 88
1, 104437, Note_off_c, 0, 73, 58
1, 104441, Control_c, 0, 64, 95
1, 104455, Control_c, 0, 64, 104
1, 104470, Control_c, 0, 64, 114
1, 104485, Control_c, 0, 64, 119
1, 104603, Control_c, 0, 64, 110
1, 104618, Control_c, 0, 64, 99
1, 104626, Note_on_c, 0, 70, 67
1, 104633, Control_c, 0, 64, 88
1, 104649, Control_c, 0, 64, 78
1, 104662, Note_off_c, 0, 70, 60
1, 104664, Control_c, 0, 64, 70
1, 104678, Control_c, 0, 64, 63
1, 104693, Control_c, 0, 64, 55
1, 104700, Note_on_c, 0, 82, 61
1, 104708, Control_c, 0, 64, 44
1, 104723, Control_c, 0, 64, 38
1, 104737, Note_on_c, 0, 83, 61
1, 104738, Control_c, 0, 64, 36
1, 104746, Note_off_c, 0, 82, 57
1, 104752, Control_c, 0, 64, 35
1, 104808, Note_off_c, 0, 83, 61
1, 104826, Note_on_c, 0, 82, 26
1, 104826, Control_c, 0, 64, 34
1, 104841, Control_c, 0, 64, 31
1, 104851, Note_off_c, 0, 82, 50
1, 104856, Control_c, 0, 64, 28
1, 104868, Note_on_c, 0, 74, 64
1, 104870, Control_c, 0, 64, 26
1, 104885, Control_c, 0, 64, 26
1, 104893, Note_off_c, 0, 74, 67
1, 104938, Control_c, 0, 64, 26
1, 104958, Note_on_c, 0, 86, 62
1, 104967, Control_c, 0, 64, 27
1, 104982, Control_c, 0, 64, 28
1, 104997, Control_c, 0, 64, 32
1, 105007, Poly_aftertouch_c, 0, 85, 0
1, 105011, Control_c, 0, 64, 41
1, 105015, Note_off_c, 0, 86, 64
1, 105026, Control_c, 0, 64, 50
1, 105028, Note_on_c, 0, 87, 62
1, 105041, Control_c, 0, 64, 56
1, 105056, Control_c, 0, 64, 59
1, 105071, Control_c, 0, 64, 60
1, 105076, Note_off_c, 0, 87, 58
1, 105085, Control_c, 0, 64, 61
1, 105087, Note_on_c, 0, 86, 53
1, 105100, Control_c, 0, 64, 62
1, 105115, Control_c, 0, 64, 64
1, 105130, Control_c, 0, 64, 66
1, 105145, Control_c, 0, 64, 68
1, 105148, Note_off_c, 0, 86, 58
1, 105159, Control_c, 0, 64, 70
1, 105171, Note_on_c, 0, 75, 62
1, 105174, Control_c, 0, 64, 72
1, 105189, Control_c, 0, 64, 75
1, 105201, Note_off_c, 0, 75, 66
1, 105204, Control_c, 0, 64, 77
1, 105219, Control_c, 0, 64, 80
1, 105234, Control_c, 0, 64, 82
1, 105249, Control_c, 0, 64, 85
1, 105264, Control_c, 0, 64, 88
1, 105278, Control_c, 0, 64, 89
1, 105285, Note_on_c, 0, 87, 51
1, 105293, Control_c, 0, 64, 90
1, 105308, Control_c, 0, 64, 91
1, 105310, Note_off_c, 0, 87, 56
1, 105322, Control_c, 0, 64, 93
1, 105337, Control_c, 0, 64, 96
1, 105344, Note_on_c, 0, 88, 59
1, 105352, Control_c, 0, 64, 99
1, 105367, Control_c, 0, 64, 105
1, 105382, Control_c, 0, 64, 115
1, 105385, Note_off_c, 0, 88, 59
1, 105396, Control_c, 0, 64, 127
1, 105410, Note_on_c, 0, 87, 53
1, 105442, Control_c, 0, 64, 109
1, 105448, Note_on_c, 0, 63, 45
1, 105453, Note_off_c, 0, 87, 59
1, 105454, Note_on_c, 0, 75, 43
1, 105457, Control_c, 0, 64, 88
1, 105467, Note_on_c, 0, 67, 41
1, 105472, Control_c, 0, 64, 73
1, 105487, Control_c, 0, 64, 63
1, 105492, Note_on_c, 0, 88, 52
1, 105501, Control_c, 0, 64, 59
1, 105516, Control_c, 0, 64, 63
1, 105518, Note_off_c, 0, 88, 57
1, 105531, Control_c, 0, 64, 68
1, 105546, Control_c, 0, 64, 74
1, 105559, Note_off_c, 0, 75, 0
1, 105561, Control_c, 0, 64, 84
1, 105562, Note_off_c, 0, 63, 0
1, 105570, Note_off_c, 0, 67, 35
1, 105574, Note_on_c, 0, 87, 47
1, 105575, Control_c, 0, 64, 97
1, 105584, Poly_aftertouch_c, 0, 75, 0
1, 105590, Control_c, 0, 64, 111
1, 105597, Note_off_c, 0, 87, 57
1, 105605, Control_c, 0, 64, 127
1, 105609, Note_on_c, 0, 88, 63
1, 105610, Poly_aftertouch_c, 0, 63, 0
1, 105658, Note_off_c, 0, 88, 53
1, 105690, Note_on_c, 0, 87, 61
1, 105731, Note_off_c, 0, 87, 57
1, 105745, Note_on_c, 0, 74, 47
1, 105752, Note_on_c, 0, 68, 51
1, 105760, Control_c, 0, 64, 88
1, 105766, Note_on_c, 0, 88, 55
1, 105772, Note_on_c, 0, 65, 34
1, 105775, Control_c, 0, 64, 69
1, 105787, Note_off_c, 0, 88, 60
1, 105790, Control_c, 0, 64, 56
1, 105797, Note_off_c, 0, 68, 61
1, 105805, Control_c, 0, 64, 49
1, 105807, Note_off_c, 0, 65, 51
1, 105820, Control_c, 0, 64, 55
1, 105827, Note_off_c, 0, 74, 48
1, 105834, Control_c, 0, 64, 65
1, 105839, Note_on_c, 0, 87, 53
1, 105849, Control_c, 0, 64, 73
1, 105860, Note_off_c, 0, 87, 59
1, 105864, Control_c, 0, 64, 84
1, 105870, Note_on_c, 0, 88, 58
1, 105879, Control_c, 0, 64, 100
1, 105894, Control_c, 0, 64, 117
1, 105908, Control_c, 0, 64, 127
1, 105921, Note_off_c, 0, 88, 53
1, 105937, Note_on_c, 0, 87, 63
1, 105967, Note_off_c, 0, 87, 63
1, 105985, Note_on_c, 0, 67, 33
1, 105985, Note_on_c, 0, 70, 53
1, 105988, Note_on_c, 0, 88, 53
1, 106015, Note_on_c, 0, 73, 53
1, 106045, Note_off_c, 0, 88, 62
1, 106057, Control_c, 0, 64, 110
1, 106059, Note_on_c, 0, 87, 65
1, 106072, Control_c, 0, 64, 83
1, 106086, Control_c, 0, 64, 66
1, 106098, Note_off_c, 0, 87, 58
1, 106101, Control_c, 0, 64, 51
1, 106116, Control_c, 0, 64, 31
1, 106128, Note_on_c, 0, 86, 55
1, 106145, Control_c, 0, 64, 49
1, 106146, Note_off_c, 0, 86, 61
1, 106160, Control_c, 0, 64, 63
1, 106175, Control_c, 0, 64, 72
1, 106177, Note_on_c, 0, 87, 54
1, 106190, Control_c, 0, 64, 83
1, 106205, Control_c, 0, 64, 97
1, 106219, Control_c, 0, 64, 109
1, 106228, Note_off_c, 0, 87, 62
1, 106234, Control_c, 0, 64, 127
1, 106248, Note_on_c, 0, 88, 64
1, 106283, Note_off_c, 0, 88, 61
1, 106304, Note_on_c, 0, 89, 74
1, 106341, Note_off_c, 0, 67, 39
1, 106342, Note_off_c, 0, 70, 39
1, 106353, Note_off_c, 0, 89, 63
1, 106359, Note_on_c, 0, 90, 55
1, 106377, Note_off_c, 0, 90, 64
1, 106404, Note_off_c, 0, 73, 41
1, 106412, Note_on_c, 0, 91, 73
1, 106443, Note_off_c, 0, 91, 68
1, 106473, Note_on_c, 0, 92, 66
1, 106495, Note_off_c, 0, 92, 63
1, 106534, Note_on_c, 0, 93, 66
1, 106552, Note_off_c, 0, 93, 67
1, 106578, Note_on_c, 0, 94, 67
1, 106596, Note_off_c, 0, 94, 66
1, 106632, Note_on_c, 0, 95, 77
1, 106662, Note_off_c, 0, 95, 61
1, 106683, Note_on_c, 0, 96, 66
1, 106718, Note_on_c, 0, 97, 70
1, 106724, Note_off_c, 0, 96, 61
1, 106742, Note_off_c, 0, 97, 68
1, 106769, Note_on_c, 0, 68, 44
1, 106782, Note_on_c, 0, 98, 69
1, 106790, Control_c, 0, 64, 95
1, 106799, Note_off_c, 0, 98, 65
1, 106803, Note_on_c, 0, 71, 39
1, 106805, Control_c, 0, 64, 73
1, 106820, Control_c, 0, 64, 58
1, 106832, Note_on_c, 0, 99, 74
1, 106835, Control_c, 0, 64, 42
1, 106850, Control_c, 0, 64, 45
1, 106853, Note_on_c, 0, 76, 54
1, 106864, Control_c, 0, 64, 58
1, 106869, Note_on_c, 0, 100, 45
1, 106879, Control_c, 0, 64, 69
1, 106890, Note_off_c, 0, 99, 60
1, 106894, Control_c, 0, 64, 81
1, 106909, Control_c, 0, 64, 102
1, 106924, Control_c, 0, 64, 127
1, 106931, Note_on_c, 0, 102, 68
1, 106969, Note_off_c, 0, 100, 54
1, 106975, Note_on_c, 0, 99, 59
1, 106987, Note_off_c, 0, 102, 59
1, 107013, Note_off_c, 0, 99, 64
1, 107026, Note_on_c, 0, 98, 69
1, 107049, Note_off_c, 0, 98, 70
1, 107088, Note_off_c, 0, 76, 37
1, 107088, Note_on_c, 0, 97, 71
1, 107104, Note_off_c, 0, 71, 42
1, 107135, Note_on_c, 0, 96, 70
1, 107143, Note_off_c, 0, 68, 43
1, 107156, Note_off_c, 0, 97, 60
1, 107192, Note_off_c, 0, 96, 64
1, 107202, Note_on_c, 0, 95, 72
1, 107235, Note_off_c, 0, 95, 61
1, 107280, Note_on_c, 0, 94, 66
1, 107304, Note_off_c, 0, 94, 64
1, 107332, Note_on_c, 0, 93, 67
1, 107356, Note_off_c, 0, 93, 67
1, 107390, Note_on_c, 0, 92, 67
1, 107429, Note_off_c, 0, 92, 52
1, 107446, Note_on_c, 0, 91, 67
1, 107473, Note_off_c, 0, 91, 65
1, 107508, Note_on_c, 0, 90, 62
1, 107510, Control_c, 0, 64, 83
1, 107524, Control_c, 0, 64, 65
1, 107526, Note_on_c, 0, 63, 46
1, 107539, Control_c, 0, 64, 46
1, 107541, Note_off_c, 0, 90, 58
1, 107554, Control_c, 0, 64, 38
1, 107559, Note_off_c, 0, 63, 53
1, 107565, Note_on_c, 0, 89, 66
1, 107569, Control_c, 0, 64, 50
1, 107580, Note_on_c, 0, 73, 46
1, 107584, Control_c, 0, 64, 63
1, 107591, Note_off_c, 0, 89, 69
1, 107598, Control_c, 0, 64, 72
1, 107613, Control_c, 0, 64, 84
1, 107628, Control_c, 0, 64, 102
1, 107634, Note_on_c, 0, 88, 65
1, 107643, Control_c, 0, 64, 124
1, 107658, Control_c, 0, 64, 127
1, 107660, Note_off_c, 0, 88, 68
1, 107675, Note_on_c, 0, 87, 67
1, 107680, Note_on_c, 0, 79, 62
1, 107709, Note_off_c, 0, 79, 64
1, 107712, Note_off_c, 0, 87, 58
1, 107728, Note_on_c, 0, 88, 66
1, 107773, Note_off_c, 0, 73, 34
1, 107783, Note_off_c, 0, 88, 64
1, 107806, Note_on_c, 0, 87, 56
1, 107830, Note_off_c, 0, 87, 63
1, 107843, Note_on_c, 0, 86, 68
1, 107870, Note_off_c, 0, 86, 63
1, 107904, Note_on_c, 0, 87, 67
1, 107955, Note_off_c, 0, 87, 54
1, 107973, Note_on_c, 0, 88, 77
1, 108003, Note_off_c, 0, 88, 57
1, 108042, Note_on_c, 0, 89, 71
1, 108076, Note_off_c, 0, 89, 60
1, 108080, Note_on_c, 0, 90, 61
1, 108105, Note_off_c, 0, 90, 65
1, 108137, Note_on_c, 0, 91, 74
1, 108159, Note_off_c, 0, 91, 66
1, 108197, Note_on_c, 0, 92, 63
1, 108212, Note_off_c, 0, 92, 65
1, 108248, Note_on_c, 0, 93, 68
1, 108264, Note_off_c, 0, 93, 68
1, 108300, Note_on_c, 0, 94, 66
1, 108316, Note_off_c, 0, 94, 66
1, 108350, Note_on_c, 0, 95, 75
1, 108377, Control_c, 0, 64, 84
1, 108390, Note_off_c, 0, 95, 61
1, 108392, Control_c, 0, 64, 67
1, 108400, Note_on_c, 0, 96, 70
1, 108407, Control_c, 0, 64, 52
1, 108421, Control_c, 0, 64, 46
1, 108432, Note_on_c, 0, 56, 45
1, 108436, Control_c, 0, 64, 55
1, 108439, Note_on_c, 0, 97, 66
1, 108446, Note_off_c, 0, 96, 64
1, 108451, Control_c, 0, 64, 66
1, 108463, Note_off_c, 0, 97, 70
1, 108466, Control_c, 0, 64, 76
1, 108481, Control_c, 0, 64, 97
1, 108483, Note_off_c, 0, 56, 59
1, 108495, Control_c, 0, 64, 127
1, 108501, Note_on_c, 0, 98, 69
1, 108525, Note_off_c, 0, 98, 66
1, 108554, Note_on_c, 0, 99, 73
1, 108604, Note_on_c, 0, 71, 55
1, 108606, Note_on_c, 0, 100, 39
1, 108654, Note_on_c, 0, 102, 73
1, 108660, Note_off_c, 0, 99, 57
1, 108673, Note_off_c, 0, 100, 52
1, 108696, Note_off_c, 0, 71, 56
1, 108715, Note_on_c, 0, 99, 53
1, 108727, Note_off_c, 0, 102, 62
1, 108758, Note_off_c, 0, 99, 65
1, 108773, Note_on_c, 0, 98, 64
1, 108799, Note_off_c, 0, 98, 68
1, 108838, Note_on_c, 0, 97, 70
1, 108892, Note_on_c, 0, 96, 58
1, 108901, Note_off_c, 0, 97, 61
1, 108932, Note_off_c, 0, 96, 62
1, 108943, Note_on_c, 0, 95, 72
1, 108976, Note_off_c, 0, 95, 61
1, 109023, Note_on_c, 0, 94, 69
1, 109049, Note_off_c, 0, 94, 65
1, 109076, Note_on_c, 0, 93, 66
1, 109103, Note_off_c, 0, 93, 65
1, 109143, Note_on_c, 0, 92, 63
1, 109157, Control_c, 0, 64, 107
1, 109171, Control_c, 0, 64, 84
1, 109172, Note_off_c, 0, 92, 63
1, 109186, Control_c, 0, 64, 66
1, 109199, Note_on_c, 0, 91, 67
1, 109201, Control_c, 0, 64, 53
1, 109216, Control_c, 0, 64, 38
1, 109225, Note_off_c, 0, 91, 65
1, 109231, Control_c, 0, 64, 35
1, 109245, Control_c, 0, 64, 45
1, 109260, Control_c, 0, 64, 59
1, 109263, Note_on_c, 0, 90, 62
1, 109264, Note_on_c, 0, 51, 41
1, 109275, Control_c, 0, 64, 67
1, 109289, Control_c, 0, 64, 77
1, 109296, Note_off_c, 0, 90, 60
1, 109304, Control_c, 0, 64, 88
1, 109318, Note_on_c, 0, 89, 66
1, 109319, Control_c, 0, 64, 101
1, 109330, Note_off_c, 0, 51, 55
1, 109334, Control_c, 0, 64, 117
1, 109346, Note_off_c, 0, 89, 66
1, 109349, Control_c, 0, 64, 127
1, 109392, Note_on_c, 0, 88, 64
1, 109428, Note_off_c, 0, 88, 67
1, 109456, Note_on_c, 0, 87, 58
1, 109477, Note_on_c, 0, 67, 52
1, 109493, Note_off_c, 0, 87, 60
1, 109511, Note_on_c, 0, 88, 58
1, 109514, Note_off_c, 0, 67, 63
1, 109568, Note_off_c, 0, 88, 61
1, 109593, Note_on_c, 0, 87, 65
1, 109621, Note_off_c, 0, 87, 65
1, 109643, Note_on_c, 0, 86, 56
1, 109670, Note_off_c, 0, 86, 59
1, 109696, Note_on_c, 0, 87, 66
1, 109744, Note_off_c, 0, 87, 60
1, 109775, Note_on_c, 0, 88, 67
1, 109818, Note_off_c, 0, 88, 54
1, 109838, Note_on_c, 0, 89, 71
1, 109883, Note_off_c, 0, 89, 59
1, 109891, Note_on_c, 0, 90, 56
1, 109918, Note_off_c, 0, 90, 64
1, 109950, Note_on_c, 0, 91, 71
1, 109979, Note_off_c, 0, 91, 61
1, 110007, Note_on_c, 0, 92, 67
1, 110033, Note_off_c, 0, 92, 65
1, 110070, Note_on_c, 0, 93, 69
1, 110094, Note_off_c, 0, 93, 69
1, 110126, Note_on_c, 0, 94, 63
1, 110146, Note_off_c, 0, 94, 65
1, 110189, Note_on_c, 0, 95, 72
1, 110224, Note_off_c, 0, 95, 60
1, 110244, Note_on_c, 0, 96, 66
1, 110284, Control_c, 0, 64, 97
1, 110290, Note_on_c, 0, 97, 64
1, 110296, Note_off_c, 0, 96, 63
1, 110298, Control_c, 0, 64, 75
1, 110298, Note_on_c, 0, 44, 44
1, 110313, Control_c, 0, 64, 57
1, 110316, Note_off_c, 0, 97, 69
1, 110328, Control_c, 0, 64, 36
1, 110342, Control_c, 0, 64, 16
1, 110351, Note_on_c, 0, 98, 72
1, 110357, Control_c, 0, 64, 26
1, 110372, Control_c, 0, 64, 48
1, 110386, Note_off_c, 0, 98, 54
1, 110387, Control_c, 0, 64, 62
1, 110402, Control_c, 0, 64, 71
1, 110416, Control_c, 0, 64, 81
1, 110425, Note_on_c, 0, 99, 61
1, 110431, Control_c, 0, 64, 92
1, 110446, Control_c, 0, 64, 101
1, 110452, Note_off_c, 0, 44, 40
1, 110461, Control_c, 0, 64, 114
1, 110476, Control_c, 0, 64, 127
1, 110526, Note_on_c, 0, 100, 62
1, 110549, Note_on_c, 0, 59, 33
1, 110561, Note_off_c, 0, 99, 29
1, 110603, Note_off_c, 0, 100, 64
1, 110617, Note_on_c, 0, 102, 65
1, 110627, Note_off_c, 0, 59, 35
1, 110695, Note_off_c, 0, 102, 52
1, 110701, Note_on_c, 0, 100, 44
1, 110732, Note_on_c, 0, 99, 60
1, 110742, Note_off_c, 0, 100, 48
1, 110775, Note_off_c, 0, 99, 64
1, 110787, Note_on_c, 0, 98, 65
1, 110808, Note_off_c, 0, 98, 64
1, 110860, Note_on_c, 0, 99, 67
1, 110891, Note_on_c, 0, 98, 50
1, 110929, Note_off_c, 0, 99, 63
1, 110936, Note_on_c, 0, 97, 66
1, 110942, Note_off_c, 0, 98, 53
1, 110987, Note_off_c, 0, 97, 64
1, 110996, Note_on_c, 0, 96, 52
1, 111014, Note_off_c, 0, 96, 60
1, 111032, Poly_aftertouch_c, 0, 97, 0
1, 111041, Note_on_c, 0, 97, 57
1, 111079, Note_on_c, 0, 96, 68
1, 111116, Note_off_c, 0, 97, 60
1, 111133, Note_on_c, 0, 95, 65
1, 111133, Note_off_c, 0, 96, 62
1, 111176, Note_off_c, 0, 95, 60
1, 111196, Note_on_c, 0, 94, 59
1, 111213, Note_off_c, 0, 94, 64
1, 111268, Note_on_c, 0, 95, 59
1, 111296, Note_on_c, 0, 94, 65
1, 111319, Note_off_c, 0, 95, 60
1, 111355, Note_on_c, 0, 93, 60
1, 111381, Note_off_c, 0, 94, 48
1, 111387, Note_off_c, 0, 93, 66
1, 111407, Note_on_c, 0, 92, 65
1, 111431, Note_off_c, 0, 92, 64
1, 111483, Note_on_c, 0, 93, 67
1, 111512, Note_on_c, 0, 92, 67
1, 111536, Note_off_c, 0, 93, 62
1, 111574, Note_on_c, 0, 91, 63
1, 111592, Note_off_c, 0, 92, 51
1, 111606, Note_off_c, 0, 91, 65
1, 111629, Note_on_c, 0, 90, 61
1, 111646, Note_off_c, 0, 90, 64
1, 111704, Note_on_c, 0, 91, 77
1, 111735, Control_c, 0, 64, 115
1, 111741, Note_on_c, 0, 90, 54
1, 111750, Control_c, 0, 64, 106
1, 111765, Control_c, 0, 64, 100
1, 111767, Note_off_c, 0, 91, 56
1, 111780, Control_c, 0, 64, 94
1, 111795, Control_c, 0, 64, 87
1, 111798, Note_on_c, 0, 89, 69
1, 111807, Note_off_c, 0, 90, 61
1, 111809, Control_c, 0, 64, 82
1, 111825, Control_c, 0, 64, 78
1, 111841, Note_on_c, 0, 88, 62
1, 111841, Control_c, 0, 64, 76
1, 111848, Note_off_c, 0, 89, 64
1, 111856, Control_c, 0, 64, 74
1, 111870, Control_c, 0, 64, 72
1, 111879, Note_off_c, 0, 88, 59
1, 111885, Control_c, 0, 64, 68
1, 111900, Control_c, 0, 64, 64
1, 111905, Note_on_c, 0, 89, 57
1, 111914, Control_c, 0, 64, 61
1, 111929, Control_c, 0, 64, 60
1, 111944, Control_c, 0, 64, 59
1, 111959, Note_off_c, 0, 89, 56
1, 111959, Control_c, 0, 64, 59
1, 111962, Note_on_c, 0, 88, 55
1, 111974, Control_c, 0, 64, 57
1, 111989, Note_off_c, 0, 88, 65
1, 111989, Control_c, 0, 64, 56
1, 111995, Note_on_c, 0, 87, 63
1, 112004, Control_c, 0, 64, 54
1, 112018, Control_c, 0, 64, 52
1, 112033, Control_c, 0, 64, 51
1, 112036, Note_off_c, 0, 87, 63
1, 112042, Note_on_c, 0, 86, 63
1, 112048, Control_c, 0, 64, 50
1, 112063, Control_c, 0, 64, 49
1, 112070, Note_off_c, 0, 86, 64
1, 112078, Control_c, 0, 64, 48
1, 112093, Control_c, 0, 64, 47
1, 112108, Control_c, 0, 64, 45
1, 112113, Note_on_c, 0, 87, 49
1, 112122, Control_c, 0, 64, 44
1, 112152, Note_on_c, 0, 86, 66
1, 112157, Note_off_c, 0, 87, 49
1, 112184, Note_off_c, 0, 86, 58
1, 112193, Note_on_c, 0, 85, 62
1, 112232, Note_off_c, 0, 85, 62
1, 112235, Note_on_c, 0, 84, 63
1, 112264, Note_off_c, 0, 84, 65
1, 112299, Note_on_c, 0, 85, 65
1, 112329, Control_c, 0, 64, 44
1, 112340, Note_on_c, 0, 84, 59
1, 112359, Control_c, 0, 64, 45
1, 112370, Note_off_c, 0, 85, 61
1, 112381, Note_on_c, 0, 83, 69
1, 112387, Note_off_c, 0, 84, 62
1, 112403, Control_c, 0, 64, 45
1, 112426, Control_c, 0, 64, 46
1, 112440, Control_c, 0, 64, 47
1, 112444, Note_off_c, 0, 83, 62
1, 112452, Note_on_c, 0, 82, 64
1, 112455, Control_c, 0, 64, 48
1, 112472, Note_off_c, 0, 82, 66
1, 112519, Note_on_c, 0, 83, 58
1, 112529, Control_c, 0, 64, 49
1, 112551, Note_on_c, 0, 82, 66
1, 112567, Note_off_c, 0, 83, 59
1, 112603, Note_on_c, 0, 81, 72
1, 112618, Note_off_c, 0, 82, 60
1, 112633, Control_c, 0, 64, 49
1, 112655, Note_off_c, 0, 81, 62
1, 112662, Control_c, 0, 64, 50
1, 112669, Note_on_c, 0, 80, 59
1, 112677, Control_c, 0, 64, 51
1, 112688, Note_off_c, 0, 80, 61
1, 112692, Control_c, 0, 64, 51
1, 112727, Note_on_c, 0, 81, 67
1, 112751, Control_c, 0, 64, 51
1, 112764, Note_on_c, 0, 80, 63
1, 112784, Note_off_c, 0, 81, 61
1, 112832, Note_on_c, 0, 79, 59
1, 112841, Note_off_c, 0, 80, 60
1, 112865, Note_off_c, 0, 79, 63
1, 112880, Note_on_c, 0, 78, 66
1, 112907, Note_off_c, 0, 78, 66
1, 112943, Control_c, 0, 64, 50
1, 112954, Note_on_c, 0, 79, 70
1, 112958, Control_c, 0, 64, 49
1, 112973, Control_c, 0, 64, 49
1, 112988, Control_c, 0, 64, 48
1, 112990, Note_on_c, 0, 78, 61
1, 113002, Control_c, 0, 64, 48
1, 113026, Note_off_c, 0, 79, 59
1, 113047, Note_on_c, 0, 77, 64
1, 113069, Note_off_c, 0, 78, 58
1, 113095, Note_on_c, 0, 76, 70
1, 113095, Note_off_c, 0, 77, 59
1, 113144, Note_off_c, 0, 76, 58
1, 113172, Note_on_c, 0, 77, 58
1, 113215, Note_on_c, 0, 76, 53
1, 113238, Note_off_c, 0, 77, 52
1, 113259, Note_on_c, 0, 75, 65
1, 113269, Note_off_c, 0, 76, 57
1, 113315, Note_on_c, 0, 74, 64
1, 113315, Note_off_c, 0, 75, 62
1, 113321, Control_c, 0, 64, 47
1, 113357, Note_off_c, 0, 74, 58
1, 113369, Note_on_c, 0, 75, 58
1, 113381, Control_c, 0, 64, 47
1, 113422, Note_on_c, 0, 74, 51
1, 113466, Note_on_c, 0, 73, 65
1, 113466, Note_off_c, 0, 75, 55
1, 113485, Control_c, 0, 64, 46
1, 113485, Note_off_c, 0, 74, 60
1, 113521, Note_on_c, 0, 72, 63
1, 113526, Note_off_c, 0, 73, 63
1, 113558, Note_off_c, 0, 72, 58
1, 113559, Control_c, 0, 64, 46
1, 113568, Poly_aftertouch_c, 0, 73, 0
1, 113574, Control_c, 0, 64, 45
1, 113577, Note_on_c, 0, 73, 61
1, 113637, Note_on_c, 0, 72, 64
1, 113672, Note_off_c, 0, 73, 59
1, 113680, Note_on_c, 0, 71, 64
1, 113685, Note_off_c, 0, 72, 58
1, 113739, Note_on_c, 0, 70, 67
1, 113749, Note_off_c, 0, 71, 63
1, 113768, Note_off_c, 0, 70, 66
1, 113820, Note_on_c, 0, 71, 59
1, 113825, Control_c, 0, 64, 45
1, 113855, Control_c, 0, 64, 44
1, 113864, Note_on_c, 0, 70, 67
1, 113870, Control_c, 0, 64, 44
1, 113890, Note_off_c, 0, 71, 59
1, 113928, Note_on_c, 0, 69, 68
1, 113943, Note_off_c, 0, 70, 58
1, 113977, Note_off_c, 0, 69, 61
1, 113996, Note_on_c, 0, 68, 56
1, 114016, Note_off_c, 0, 68, 64
1, 114069, Note_on_c, 0, 69, 62
1, 114084, Control_c, 0, 64, 43
1, 114105, Note_on_c, 0, 68, 63
1, 114111, Note_off_c, 0, 69, 60
1, 114174, Note_on_c, 0, 67, 61
1, 114183, Note_off_c, 0, 68, 55
1, 114212, Note_off_c, 0, 67, 62
1, 114244, Note_on_c, 0, 66, 56
1, 114263, Control_c, 0, 64, 42
1, 114266, Note_off_c, 0, 66, 65
1, 114278, Control_c, 0, 64, 36
1, 114293, Control_c, 0, 64, 0
1, 114323, Note_on_c, 0, 67, 64
1, 114362, Note_on_c, 0, 66, 47
1, 114374, Note_on_c, 0, 43, 41
1, 114382, Control_c, 0, 64, 24
1, 114386, Note_off_c, 0, 67, 44
1, 114397, Control_c, 0, 64, 52
1, 114412, Control_c, 0, 64, 63
1, 114420, Note_off_c, 0, 43, 60
1, 114427, Control_c, 0, 64, 68
1, 114436, Note_off_c, 0, 66, 58
1, 114441, Control_c, 0, 64, 73
1, 114448, Note_on_c, 0, 65, 56
1, 114456, Control_c, 0, 64, 78
1, 114471, Control_c, 0, 64, 82
1, 114482, Note_off_c, 0, 65, 66
1, 114486, Control_c, 0, 64, 87
1, 114501, Control_c, 0, 64, 90
1, 114515, Control_c, 0, 64, 93
1, 114530, Control_c, 0, 64, 95
1, 114545, Control_c, 0, 64, 96
1, 114550, Note_on_c, 0, 64, 64
1, 114585, Note_on_c, 0, 61, 48
1, 114588, Note_on_c, 0, 58, 51
1, 114596, Note_off_c, 0, 64, 58
1, 114614, Note_off_c, 0, 61, 57
1, 114629, Note_off_c, 0, 58, 60
1, 114630, Note_on_c, 0, 62, 57
1, 114671, Control_c, 0, 64, 95
1, 114690, Note_off_c, 0, 62, 55
1, 114699, Note_on_c, 0, 64, 54
1, 114701, Control_c, 0, 64, 95
1, 114716, Control_c, 0, 64, 94
1, 114731, Control_c, 0, 64, 93
1, 114742, Note_on_c, 0, 63, 59
1, 114746, Control_c, 0, 64, 92
1, 114750, Note_off_c, 0, 64, 53
1, 114760, Control_c, 0, 64, 92
1, 114775, Control_c, 0, 64, 91
1, 114790, Control_c, 0, 64, 90
1, 114796, Note_on_c, 0, 65, 56
1, 114805, Control_c, 0, 64, 88
1, 114807, Note_off_c, 0, 63, 48
1, 114820, Control_c, 0, 64, 87
1, 114835, Note_off_c, 0, 65, 64
1, 114848, Note_on_c, 0, 64, 58
1, 114864, Control_c, 0, 64, 86
1, 114879, Control_c, 0, 64, 84
1, 114888, Note_off_c, 0, 64, 58
1, 114894, Control_c, 0, 64, 81
1, 114914, Note_on_c, 0, 66, 57
1, 114938, Control_c, 0, 64, 81
1, 114952, Control_c, 0, 64, 80
1, 114957, Note_off_c, 0, 66, 63
1, 114967, Control_c, 0, 64, 78
1, 114975, Note_on_c, 0, 65, 65
1, 114982, Control_c, 0, 64, 77
1, 115017, Note_off_c, 0, 65, 58
1, 115027, Control_c, 0, 64, 76
1, 115043, Control_c, 0, 64, 75
1, 115045, Note_on_c, 0, 67, 57
1, 115057, Control_c, 0, 64, 74
1, 115072, Control_c, 0, 64, 73
1, 115080, Note_on_c, 0, 66, 67
1, 115080, Note_off_c, 0, 67, 62
1, 115102, Control_c, 0, 64, 73
1, 115117, Control_c, 0, 64, 72
1, 115131, Control_c, 0, 64, 71
1, 115146, Control_c, 0, 64, 70
1, 115148, Note_on_c, 0, 68, 60
1, 115149, Note_off_c, 0, 66, 58
1, 115161, Control_c, 0, 64, 69
1, 115188, Note_off_c, 0, 68, 63
1, 115191, Control_c, 0, 64, 69
1, 115202, Note_on_c, 0, 67, 59
1, 115205, Control_c, 0, 64, 68
1, 115220, Control_c, 0, 64, 68
1, 115256, Note_off_c, 0, 67, 54
1, 115265, Control_c, 0, 64, 67
1, 115272, Note_on_c, 0, 69, 61
1, 115280, Control_c, 0, 64, 66
1, 115294, Control_c, 0, 64, 66
1, 115309, Control_c, 0, 64, 65
1, 115318, Note_on_c, 0, 68, 62
1, 115339, Control_c, 0, 64, 65
1, 115354, Control_c, 0, 64, 64
1, 115362, Note_off_c, 0, 69, 45
1, 115369, Control_c, 0, 64, 64
1, 115369, Note_on_c, 0, 70, 62
1, 115386, Note_off_c, 0, 68, 62
1, 115416, Note_off_c, 0, 70, 64
1, 115420, Control_c, 0, 64, 63
1, 115435, Control_c, 0, 64, 63
1, 115442, Note_on_c, 0, 69, 49
1, 115450, Control_c, 0, 64, 62
1, 115464, Control_c, 0, 64, 61
1, 115479, Control_c, 0, 64, 60
1, 115482, Note_off_c, 0, 69, 64
1, 115494, Control_c, 0, 64, 59
1, 115496, Note_on_c, 0, 71, 68
1, 115509, Control_c, 0, 64, 58
1, 115524, Control_c, 0, 64, 57
1, 115539, Control_c, 0, 64, 57
1, 115540, Note_on_c, 0, 70, 62
1, 115554, Control_c, 0, 64, 56
1, 115575, Note_off_c, 0, 71, 60
1, 115588, Note_on_c, 0, 72, 58
1, 115600, Note_off_c, 0, 70, 57
1, 115613, Control_c, 0, 64, 56
1, 115625, Note_off_c, 0, 72, 62
1, 115637, Note_on_c, 0, 71, 40
1, 115657, Control_c, 0, 64, 55
1, 115679, Note_off_c, 0, 71, 63
1, 115687, Control_c, 0, 64, 55
1, 115694, Note_on_c, 0, 73, 66
1, 115702, Control_c, 0, 64, 54
1, 115717, Control_c, 0, 64, 54
1, 115744, Note_off_c, 0, 73, 61
1, 115746, Control_c, 0, 64, 53
1, 115761, Control_c, 0, 64, 53
1, 115766, Note_on_c, 0, 72, 65
1, 115775, Control_c, 0, 64, 52
1, 115790, Control_c, 0, 64, 51
1, 115805, Control_c, 0, 64, 50
1, 115812, Note_off_c, 0, 72, 54
1, 115820, Note_on_c, 0, 74, 59
1, 115820, Control_c, 0, 64, 49
1, 115836, Control_c, 0, 64, 48
1, 115851, Control_c, 0, 64, 47
1, 115866, Control_c, 0, 64, 47
1, 115870, Note_on_c, 0, 73, 66
1, 115894, Note_off_c, 0, 74, 56
1, 115895, Control_c, 0, 64, 46
1, 115910, Control_c, 0, 64, 46
1, 115915, Note_on_c, 0, 75, 60
1, 115925, Control_c, 0, 64, 45
1, 115937, Note_off_c, 0, 73, 63
1, 115940, Control_c, 0, 64, 45
1, 115958, Note_off_c, 0, 75, 64
1, 115969, Control_c, 0, 64, 44
1, 115974, Note_on_c, 0, 74, 60
1, 115984, Control_c, 0, 64, 44
1, 116013, Control_c, 0, 64, 43
1, 116021, Note_off_c, 0, 74, 57
1, 116028, Control_c, 0, 64, 43
1, 116040, Note_on_c, 0, 76, 68
1, 116043, Control_c, 0, 64, 42
1, 116058, Control_c, 0, 64, 42
1, 116073, Control_c, 0, 64, 41
1, 116076, Note_on_c, 0, 75, 70
1, 116114, Note_off_c, 0, 76, 57
1, 116127, Note_on_c, 0, 77, 61
1, 116141, Note_off_c, 0, 75, 62
1, 116171, Note_off_c, 0, 77, 60
1, 116180, Note_on_c, 0, 76, 50
1, 116233, Note_off_c, 0, 76, 59
1, 116246, Note_on_c, 0, 78, 66
1, 116296, Note_off_c, 0, 78, 61
1, 116311, Note_on_c, 0, 77, 69
1, 116317, Control_c, 0, 64, 42
1, 116347, Control_c, 0, 64, 42
1, 116371, Note_off_c, 0, 77, 58
1, 116375, Note_on_c, 0, 79, 63
1, 116377, Control_c, 0, 64, 43
1, 116406, Control_c, 0, 64, 43
1, 116421, Note_on_c, 0, 78, 72
1, 116436, Control_c, 0, 64, 44
1, 116463, Note_off_c, 0, 79, 36
1, 116466, Control_c, 0, 64, 44
1, 116482, Note_on_c, 0, 80, 57
1, 116493, Note_off_c, 0, 78, 61
1, 116495, Control_c, 0, 64, 45
1, 116520, Note_off_c, 0, 80, 62
1, 116525, Control_c, 0, 64, 45
1, 116546, Note_on_c, 0, 79, 67
1, 116590, Note_off_c, 0, 79, 58
1, 116607, Note_on_c, 0, 81, 69
1, 116613, Control_c, 0, 64, 46
1, 116648, Note_on_c, 0, 80, 65
1, 116674, Control_c, 0, 64, 46
1, 116688, Note_off_c, 0, 81, 59
1, 116706, Note_on_c, 0, 82, 61
1, 116722, Note_off_c, 0, 80, 60
1, 116737, Note_off_c, 0, 82, 65
1, 116766, Note_on_c, 0, 81, 67
1, 116777, Control_c, 0, 64, 46
1, 116812, Note_off_c, 0, 81, 61
1, 116822, Control_c, 0, 64, 45
1, 116827, Note_on_c, 0, 83, 70
1, 116857, Note_on_c, 0, 82, 70
1, 116892, Note_off_c, 0, 83, 59
1, 116924, Note_on_c, 0, 84, 56
1, 116939, Note_off_c, 0, 82, 61
1, 116958, Note_off_c, 0, 84, 65
1, 116969, Note_on_c, 0, 83, 50
1, 117013, Note_off_c, 0, 83, 62
1, 117022, Control_c, 0, 64, 45
1, 117029, Note_on_c, 0, 85, 66
1, 117066, Control_c, 0, 64, 44
1, 117075, Note_off_c, 0, 85, 62
1, 117095, Note_on_c, 0, 84, 66
1, 117156, Note_on_c, 0, 86, 63
1, 117159, Note_off_c, 0, 84, 60
1, 117197, Note_on_c, 0, 85, 69
1, 117228, Note_off_c, 0, 86, 60
1, 117247, Note_on_c, 0, 87, 60
1, 117262, Note_off_c, 0, 85, 63
1, 117282, Note_off_c, 0, 87, 64
1, 117319, Note_on_c, 0, 86, 62
1, 117351, Note_off_c, 0, 86, 59
1, 117361, Note_on_c, 0, 88, 72
1, 117396, Note_on_c, 0, 87, 68
1, 117432, Note_off_c, 0, 88, 59
1, 117452, Control_c, 0, 64, 45
1, 117454, Note_on_c, 0, 89, 65
1, 117468, Note_off_c, 0, 87, 63
1, 117488, Note_off_c, 0, 89, 63
1, 117511, Note_on_c, 0, 88, 50
1, 117526, Control_c, 0, 64, 45
1, 117549, Note_off_c, 0, 88, 64
1, 117558, Note_on_c, 0, 90, 71
1, 117602, Note_off_c, 0, 90, 60
1, 117629, Note_on_c, 0, 89, 72
1, 117678, Note_off_c, 0, 89, 61
1, 117697, Note_on_c, 0, 91, 68
1, 117727, Control_c, 0, 64, 45
1, 117729, Note_on_c, 0, 90, 69
1, 117770, Note_off_c, 0, 91, 57
1, 117789, Note_on_c, 0, 92, 65
1, 117801, Note_off_c, 0, 90, 64
1, 117820, Note_off_c, 0, 92, 64
1, 117830, Control_c, 0, 64, 45
1, 117847, Note_on_c, 0, 91, 70
1, 117905, Note_off_c, 0, 91, 56
1, 117912, Note_on_c, 0, 93, 74
1, 117940, Note_on_c, 0, 92, 70
1, 118001, Note_on_c, 0, 94, 70
1, 118025, Note_off_c, 0, 92, 62
1, 118037, Control_c, 0, 64, 46
1, 118043, Note_off_c, 0, 93, 0
1, 118046, Note_off_c, 0, 94, 67
1, 118059, Note_on_c, 0, 93, 44
1, 118067, Control_c, 0, 64, 46
1, 118132, Note_off_c, 0, 93, 56
1, 118133, Note_on_c, 0, 95, 74
1, 118159, Note_on_c, 0, 94, 72
1, 118171, Control_c, 0, 64, 46
1, 118203, Note_on_c, 0, 96, 64
1, 118203, Note_off_c, 0, 95, 60
1, 118230, Note_off_c, 0, 94, 64
1, 118231, Control_c, 0, 64, 45
1, 118243, Note_off_c, 0, 96, 60
1, 118246, Control_c, 0, 64, 43
1, 118260, Control_c, 0, 64, 41
1, 118262, Note_on_c, 0, 95, 65
1, 118275, Control_c, 0, 64, 40
1, 118290, Control_c, 0, 64, 37
1, 118305, Control_c, 0, 64, 31
1, 118307, Note_off_c, 0, 95, 63
1, 118320, Control_c, 0, 64, 25
1, 118321, Note_on_c, 0, 97, 66
1, 118335, Control_c, 0, 64, 19
1, 118349, Control_c, 0, 64, 12
1, 118361, Note_off_c, 0, 97, 62
1, 118364, Control_c, 0, 64, 0
1, 118369, Note_on_c, 0, 96, 79
1, 118433, Note_off_c, 0, 96, 57
1, 118442, Note_on_c, 0, 98, 80
1, 118460, Control_c, 0, 64, 23
1, 118475, Control_c, 0, 64, 45
1, 118483, Note_on_c, 0, 97, 72
1, 118490, Control_c, 0, 64, 56
1, 118505, Control_c, 0, 64, 60
1, 118517, Note_off_c, 0, 98, 57
1, 118520, Control_c, 0, 64, 62
1, 118533, Note_on_c, 0, 99, 73
1, 118534, Control_c, 0, 64, 64
1, 118545, Note_off_c, 0, 97, 66
1, 118549, Control_c, 0, 64, 66
1, 118565, Control_c, 0, 64, 68
1, 118568, Note_off_c, 0, 99, 63
1, 118579, Control_c, 0, 64, 71
1, 118594, Control_c, 0, 64, 74
1, 118606, Note_on_c, 0, 98, 73
1, 118609, Control_c, 0, 64, 77
1, 118624, Control_c, 0, 64, 79
1, 118639, Control_c, 0, 64, 80
1, 118654, Note_off_c, 0, 98, 63
1, 118654, Control_c, 0, 64, 82
1, 118669, Control_c, 0, 64, 86
1, 118672, Note_on_c, 0, 100, 71
1, 118683, Control_c, 0, 64, 90
1, 118696, Note_off_c, 0, 100, 67
1, 118698, Control_c, 0, 64, 93
1, 118713, Control_c, 0, 64, 96
1, 118727, Control_c, 0, 64, 98
1, 118742, Control_c, 0, 64, 101
1, 118749, Note_on_c, 0, 98, 68
1, 118757, Control_c, 0, 64, 104
1, 118772, Control_c, 0, 64, 107
1, 118776, Note_off_c, 0, 98, 64
1, 118787, Control_c, 0, 64, 111
1, 118793, Note_on_c, 0, 99, 73
1, 118801, Control_c, 0, 64, 117
1, 118816, Control_c, 0, 64, 127
1, 118830, Note_off_c, 0, 99, 57
1, 118866, Note_on_c, 0, 98, 71
1, 118888, Note_off_c, 0, 98, 66
1, 118920, Note_on_c, 0, 100, 68
1, 118937, Note_off_c, 0, 100, 67
1, 118970, Note_on_c, 0, 98, 78
1, 119003, Note_off_c, 0, 98, 59
1, 119033, Note_on_c, 0, 99, 76
1, 119074, Note_off_c, 0, 99, 62
1, 119078, Note_on_c, 0, 98, 78
1, 119120, Note_off_c, 0, 98, 62
1, 119155, Note_on_c, 0, 100, 68
1, 119172, Note_off_c, 0, 100, 67
1, 119188, Note_on_c, 0, 98, 72
1, 119232, Note_off_c, 0, 98, 65
1, 119257, Note_on_c, 0, 99, 87
1, 119301, Note_off_c, 0, 99, 66
1, 119312, Note_on_c, 0, 98, 79
1, 119355, Note_off_c, 0, 98, 63
1, 119372, Note_on_c, 0, 100, 81
1, 119403, Note_off_c, 0, 100, 63
1, 119438, Note_on_c, 0, 98, 81
1, 119480, Note_off_c, 0, 98, 65
1, 119489, Note_on_c, 0, 99, 90
1, 119535, Note_off_c, 0, 99, 65
1, 119559, Note_on_c, 0, 98, 82
1, 119607, Note_off_c, 0, 98, 64
1, 119610, Note_on_c, 0, 100, 87
1, 119643, Note_off_c, 0, 100, 62
1, 119678, Note_on_c, 0, 98, 78
1, 119723, Note_off_c, 0, 98, 65
1, 119729, Note_on_c, 0, 99, 95
1, 119774, Note_off_c, 0, 99, 66
1, 119798, Note_on_c, 0, 98, 82
1, 119846, Note_off_c, 0, 98, 64
1, 119854, Note_on_c, 0, 100, 91
1, 119891, Note_off_c, 0, 100, 66
1, 119930, Note_on_c, 0, 98, 85
1, 119983, Note_off_c, 0, 98, 65
1, 120004, Note_on_c, 0, 99, 94
1, 120053, Note_off_c, 0, 99, 67
1, 120073, Note_on_c, 0, 98, 87
1, 120136, Note_off_c, 0, 98, 65
1, 120161, Note_on_c, 0, 100, 95
1, 120206, Note_off_c, 0, 100, 66
1, 120238, Note_on_c, 0, 98, 86
1, 120307, Note_off_c, 0, 98, 64
1, 120343, Control_c, 0, 64, 86
1, 120358, Control_c, 0, 64, 67
1, 120372, Control_c, 0, 64, 56
1, 120376, Note_on_c, 0, 100, 96
1, 120402, Control_c, 0, 64, 65
1, 120417, Control_c, 0, 64, 76
1, 120432, Control_c, 0, 64, 102
1, 120434, Note_off_c, 0, 100, 66
1, 120446, Control_c, 0, 64, 127
1, 120498, Note_on_c, 0, 99, 69
1, 120542, Note_off_c, 0, 99, 57
1, 120575, Note_on_c, 0, 100, 83
1, 120610, Note_off_c, 0, 100, 62
1, 120657, Note_on_c, 0, 99, 69
1, 120689, Note_off_c, 0, 99, 60
1, 120717, Note_on_c, 0, 100, 79
1, 120740, Note_off_c, 0, 100, 66
1, 120789, Note_on_c, 0, 99, 71
1, 120814, Note_off_c, 0, 99, 66
1, 120828, Note_on_c, 0, 100, 81
1, 120863, Note_off_c, 0, 100, 60
1, 120899, Note_on_c, 0, 99, 75
1, 120932, Note_off_c, 0, 99, 61
1, 120933, Note_on_c, 0, 100, 78
1, 120960, Note_off_c, 0, 100, 64
1, 121013, Note_on_c, 0, 99, 75
1, 121037, Note_off_c, 0, 99, 69
1, 121039, Note_on_c, 0, 100, 84
1, 121063, Note_off_c, 0, 100, 64
1, 121115, Note_on_c, 0, 99, 81
1, 121146, Note_on_c, 0, 100, 86
1, 121155, Note_off_c, 0, 99, 63
1, 121175, Note_off_c, 0, 100, 62
1, 121214, Note_on_c, 0, 99, 79
1, 121256, Note_off_c, 0, 99, 67
1, 121259, Note_on_c, 0, 100, 87
1, 121283, Note_off_c, 0, 100, 64
1, 121319, Note_on_c, 0, 99, 76
1, 121364, Note_on_c, 0, 100, 86
1, 121364, Note_off_c, 0, 99, 65
1, 121400, Note_off_c, 0, 100, 63
1, 121429, Note_on_c, 0, 99, 76
1, 121478, Note_on_c, 0, 100, 84
1, 121480, Note_off_c, 0, 99, 66
1, 121508, Note_off_c, 0, 100, 62
1, 121540, Note_on_c, 0, 99, 72
1, 121588, Note_on_c, 0, 100, 80
1, 121592, Note_off_c, 0, 99, 65
1, 121613, Note_off_c, 0, 100, 65
1, 121662, Note_on_c, 0, 99, 73
1, 121700, Note_on_c, 0, 100, 82
1, 121712, Note_off_c, 0, 99, 65
1, 121727, Note_off_c, 0, 100, 64
1, 121781, Note_on_c, 0, 99, 79
1, 121825, Note_off_c, 0, 99, 66
1, 121827, Note_on_c, 0, 100, 80
1, 121858, Note_off_c, 0, 100, 61
1, 121888, Note_on_c, 0, 99, 77
1, 121933, Note_off_c, 0, 99, 65
1, 121955, Note_on_c, 0, 100, 78
1, 121974, Control_c, 0, 67, 9
1, 121979, Note_off_c, 0, 100, 69
1, 121989, Control_c, 0, 67, 12
1, 122004, Note_on_c, 0, 99, 66
1, 122004, Control_c, 0, 67, 16
1, 122018, Control_c, 0, 67, 18
1, 122033, Control_c, 0, 67, 20
1, 122048, Control_c, 0, 67, 22
1, 122059, Note_off_c, 0, 99, 63
1, 122063, Control_c, 0, 67, 24
1, 122074, Note_on_c, 0, 100, 75
1, 122077, Control_c, 0, 67, 28
1, 122092, Control_c, 0, 67, 33
1, 122100, Note_off_c, 0, 100, 68
1, 122107, Control_c, 0, 67, 39
1, 122122, Control_c, 0, 67, 44
1, 122126, Note_on_c, 0, 99, 68
1, 122144, Control_c, 0, 67, 48
1, 122159, Control_c, 0, 67, 52
1, 122174, Control_c, 0, 67, 56
1, 122183, Note_off_c, 0, 99, 65
1, 122189, Control_c, 0, 67, 59
1, 122204, Control_c, 0, 67, 62
1, 122204, Note_on_c, 0, 100, 77
1, 122219, Control_c, 0, 67, 66
1, 122231, Note_off_c, 0, 100, 66
1, 122234, Control_c, 0, 67, 71
1, 122249, Control_c, 0, 67, 76
1, 122255, Note_on_c, 0, 99, 72
1, 122264, Control_c, 0, 67, 82
1, 122279, Control_c, 0, 67, 87
1, 122293, Control_c, 0, 67, 91
1, 122306, Note_off_c, 0, 99, 65
1, 122309, Control_c, 0, 67, 93
1, 122323, Control_c, 0, 67, 94
1, 122335, Note_on_c, 0, 100, 70
1, 122338, Control_c, 0, 67, 97
1, 122353, Control_c, 0, 67, 100
1, 122362, Note_off_c, 0, 100, 69
1, 122368, Control_c, 0, 67, 103
1, 122383, Control_c, 0, 67, 105
1, 122385, Note_on_c, 0, 99, 71
1, 122413, Control_c, 0, 67, 106
1, 122428, Control_c, 0, 67, 106
1, 122431, Note_off_c, 0, 99, 63
1, 122443, Control_c, 0, 67, 107
1, 122457, Control_c, 0, 67, 108
1, 122463, Note_on_c, 0, 100, 70
1, 122472, Control_c, 0, 67, 110
1, 122490, Note_off_c, 0, 100, 68
1, 122501, Control_c, 0, 67, 111
1, 122521, Note_on_c, 0, 99, 70
1, 122561, Control_c, 0, 67, 111
1, 122578, Note_off_c, 0, 99, 62
1, 122601, Note_on_c, 0, 100, 68
1, 122605, Control_c, 0, 67, 111
1, 122627, Note_off_c, 0, 100, 67
1, 122676, Note_on_c, 0, 99, 63
1, 122716, Note_off_c, 0, 99, 59
1, 122738, Control_c, 0, 67, 110
1, 122753, Note_on_c, 0, 100, 60
1, 122771, Note_off_c, 0, 100, 64
1, 122818, Note_on_c, 0, 99, 65
1, 122838, Note_off_c, 0, 99, 66
1, 122872, Note_on_c, 0, 100, 62
1, 122920, Note_off_c, 0, 100, 57
1, 122968, Control_c, 0, 67, 111
1, 122982, Control_c, 0, 67, 111
1, 122988, Note_on_c, 0, 99, 48
1, 122997, Control_c, 0, 67, 112
1, 123011, Note_off_c, 0, 99, 55
1, 123041, Note_on_c, 0, 100, 49
1, 123043, Control_c, 0, 67, 113
1, 123058, Control_c, 0, 67, 113
1, 123072, Control_c, 0, 67, 115
1, 123085, Note_off_c, 0, 100, 61
1, 123087, Control_c, 0, 67, 116
1, 123091, Note_on_c, 0, 99, 56
1, 123130, Note_off_c, 0, 99, 62
1, 123131, Control_c, 0, 67, 116
1, 123167, Note_on_c, 0, 100, 45
1, 123176, Control_c, 0, 67, 117
1, 123200, Note_off_c, 0, 100, 54
1, 123233, Note_on_c, 0, 99, 53
1, 123254, Note_off_c, 0, 99, 58
1, 123285, Note_on_c, 0, 100, 58
1, 123325, Note_off_c, 0, 100, 59
1, 123351, Note_on_c, 0, 99, 53
1, 123385, Note_off_c, 0, 99, 60
1, 123424, Note_on_c, 0, 100, 54
1, 123428, Control_c, 0, 67, 116
1, 123459, Note_off_c, 0, 100, 57
1, 123491, Note_on_c, 0, 99, 49
1, 123502, Control_c, 0, 67, 116
1, 123513, Note_off_c, 0, 99, 58
1, 123556, Note_on_c, 0, 100, 54
1, 123596, Note_off_c, 0, 100, 59
1, 123626, Note_on_c, 0, 99, 36
1, 123664, Note_off_c, 0, 99, 53
1, 123707, Note_on_c, 0, 100, 48
1, 123744, Note_off_c, 0, 100, 48
1, 123772, Note_on_c, 0, 99, 44
1, 123791, Control_c, 0, 67, 115
1, 123804, Note_off_c, 0, 99, 53
1, 123847, Note_on_c, 0, 100, 51
1, 123865, Control_c, 0, 67, 115
1, 123906, Note_off_c, 0, 100, 54
1, 123939, Note_on_c, 0, 99, 36
1, 123983, Note_off_c, 0, 99, 47
1, 123984, Control_c, 0, 67, 114
1, 123999, Control_c, 0, 67, 114
1, 124030, Note_on_c, 0, 100, 47
1, 124055, Note_on_c, 0, 75, 42
1, 124094, Note_off_c, 0, 100, 57
1, 124139, Note_on_c, 0, 99, 36
1, 124151, Note_off_c, 0, 75, 54
1, 124161, Control_c, 0, 67, 114
1, 124170, Note_off_c, 0, 99, 52
1, 124219, Note_on_c, 0, 100, 51
1, 124292, Note_off_c, 0, 100, 52
1, 124329, Note_on_c, 0, 99, 44
1, 124376, Note_off_c, 0, 99, 45
1, 124434, Note_on_c, 0, 100, 41
1, 124494, Control_c, 0, 67, 114
1, 124524, Control_c, 0, 67, 114
1, 124529, Note_on_c, 0, 87, 53
1, 124553, Note_off_c, 0, 100, 41
1, 124553, Control_c, 0, 67, 114
1, 124584, Note_on_c, 0, 99, 40
1, 124598, Control_c, 0, 67, 114
1, 124610, Note_off_c, 0, 99, 55
1, 124651, Note_on_c, 0, 100, 50
1, 124663, Note_off_c, 0, 87, 51
1, 124703, Note_off_c, 0, 100, 56
1, 124749, Note_on_c, 0, 99, 38
1, 124777, Note_off_c, 0, 99, 54
1, 124824, Note_on_c, 0, 100, 56
1, 124836, Control_c, 0, 67, 114
1, 124851, Control_c, 0, 67, 114
1, 124867, Note_off_c, 0, 100, 58
1, 124895, Control_c, 0, 67, 114
1, 124907, Note_on_c, 0, 99, 44
1, 124929, Note_on_c, 0, 87, 47
1, 124937, Note_off_c, 0, 99, 53
1, 124969, Control_c, 0, 67, 113
1, 124982, Note_on_c, 0, 100, 55
1, 124999, Control_c, 0, 67, 114
1, 125023, Note_off_c, 0, 100, 58
1, 125028, Control_c, 0, 67, 113
1, 125054, Note_on_c, 0, 99, 48
1, 125058, Control_c, 0, 67, 114
1, 125069, Note_off_c, 0, 87, 37
1, 125094, Note_off_c, 0, 99, 59
1, 125140, Note_on_c, 0, 100, 55
1, 125190, Note_off_c, 0, 100, 53
1, 125215, Note_on_c, 0, 99, 57
1, 125234, Note_on_c, 0, 87, 39
1, 125245, Note_on_c, 0, 85, 51
1, 125258, Note_off_c, 0, 99, 61
1, 125281, Note_off_c, 0, 87, 61
1, 125285, Note_off_c, 0, 85, 60
1, 125304, Note_on_c, 0, 100, 51
1, 125318, Control_c, 0, 67, 113
1, 125333, Control_c, 0, 67, 114
1, 125351, Note_off_c, 0, 100, 58
1, 125363, Control_c, 0, 67, 113
1, 125368, Note_on_c, 0, 99, 58
1, 125377, Control_c, 0, 67, 113
1, 125396, Note_off_c, 0, 99, 64
1, 125407, Control_c, 0, 67, 113
1, 125438, Control_c, 0, 67, 113
1, 125452, Control_c, 0, 67, 112
1, 125458, Note_on_c, 0, 68, 55
1, 125482, Control_c, 0, 67, 113
1, 125492, Note_off_c, 0, 68, 65
1, 125512, Control_c, 0, 67, 112
1, 125541, Control_c, 0, 67, 113
1, 125556, Control_c, 0, 64, 124
1, 125571, Control_c, 0, 64, 84
1, 125575, Note_on_c, 0, 99, 61
1, 125586, Control_c, 0, 64, 70
1, 125586, Control_c, 0, 67, 112
1, 125595, Note_on_c, 0, 87, 19
1, 125600, Control_c, 0, 64, 64
1, 125609, Note_on_c, 0, 83, 44
1, 125615, Control_c, 0, 64, 66
1, 125615, Control_c, 0, 67, 113
1, 125630, Control_c, 0, 64, 71
1, 125635, Note_off_c, 0, 87, 29
1, 125641, Note_off_c, 0, 99, 62
1, 125644, Control_c, 0, 64, 80
1, 125644, Control_c, 0, 67, 112
1, 125659, Note_on_c, 0, 100, 48
1, 125659, Control_c, 0, 64, 95
1, 125674, Control_c, 0, 64, 127
1, 125695, Note_off_c, 0, 100, 47
1, 125719, Control_c, 0, 67, 112
1, 125748, Control_c, 0, 67, 112
1, 125755, Note_on_c, 0, 99, 61
1, 125772, Note_off_c, 0, 83, 47
1, 125778, Control_c, 0, 67, 112
1, 125791, Note_off_c, 0, 99, 64
1, 125793, Control_c, 0, 67, 111
1, 125810, Note_on_c, 0, 100, 49
1, 125840, Note_off_c, 0, 100, 50
1, 125852, Control_c, 0, 67, 111
1, 125889, Control_c, 0, 67, 111
1, 125909, Note_on_c, 0, 99, 66
1, 125912, Note_on_c, 0, 83, 57
1, 125918, Note_on_c, 0, 87, 50
1, 125918, Control_c, 0, 67, 111
1, 125939, Note_off_c, 0, 87, 59
1, 125948, Control_c, 0, 67, 111
1, 125969, Note_off_c, 0, 99, 63
1, 125984, Note_on_c, 0, 100, 60
1, 125996, Note_off_c, 0, 83, 61
1, 126023, Note_off_c, 0, 100, 55
1, 126074, Note_on_c, 0, 99, 57
1, 126112, Control_c, 0, 67, 112
1, 126112, Note_off_c, 0, 99, 64
1, 126126, Control_c, 0, 67, 111
1, 126127, Note_on_c, 0, 100, 57
1, 126149, Note_off_c, 0, 100, 57
1, 126170, Control_c, 0, 67, 112
1, 126199, Note_on_c, 0, 82, 60
1, 126200, Control_c, 0, 67, 111
1, 126214, Note_on_c, 0, 99, 67
1, 126223, Note_on_c, 0, 87, 42
1, 126243, Note_off_c, 0, 82, 57
1, 126246, Control_c, 0, 67, 112
1, 126250, Note_off_c, 0, 87, 51
1, 126258, Note_off_c, 0, 99, 60
1, 126261, Control_c, 0, 67, 111
1, 126272, Note_on_c, 0, 100, 52
1, 126303, Note_off_c, 0, 100, 50
1, 126360, Note_on_c, 0, 99, 67
1, 126364, Control_c, 0, 67, 112
1, 126395, Note_off_c, 0, 99, 61
1, 126409, Control_c, 0, 67, 111
1, 126415, Note_on_c, 0, 100, 42
1, 126438, Control_c, 0, 67, 112
1, 126447, Note_off_c, 0, 100, 50
1, 126482, Control_c, 0, 64, 111
1, 126491, Note_on_c, 0, 80, 54
1, 126493, Note_on_c, 0, 87, 57
1, 126494, Note_on_c, 0, 99, 68
1, 126497, Note_on_c, 0, 71, 52
1, 126497, Control_c, 0, 64, 81
1, 126512, Control_c, 0, 64, 63
1, 126515, Note_off_c, 0, 87, 61
1, 126527, Control_c, 0, 64, 48
1, 126541, Control_c, 0, 64, 39
1, 126541, Control_c, 0, 67, 111
1, 126550, Note_off_c, 0, 99, 63
1, 126556, Control_c, 0, 64, 48
1, 126557, Note_on_c, 0, 100, 55
1, 126571, Control_c, 0, 64, 61
1, 126571, Control_c, 0, 67, 112
1, 126586, Control_c, 0, 64, 71
1, 126601, Control_c, 0, 64, 82
1, 126603, Note_off_c, 0, 100, 52
1, 126616, Control_c, 0, 64, 102
1, 126616, Control_c, 0, 67, 111
1, 126631, Control_c, 0, 64, 119
1, 126634, Note_off_c, 0, 80, 48
1, 126653, Control_c, 0, 64, 127
1, 126653, Control_c, 0, 67, 112
1, 126656, Note_on_c, 0, 99, 62
1, 126658, Note_off_c, 0, 71, 46
1, 126682, Control_c, 0, 67, 111
1, 126692, Note_off_c, 0, 99, 62
1, 126717, Note_on_c, 0, 100, 57
1, 126741, Note_off_c, 0, 100, 53
1, 126756, Control_c, 0, 67, 111
1, 126771, Control_c, 0, 67, 111
1, 126792, Note_on_c, 0, 99, 68
1, 126792, Note_on_c, 0, 87, 56
1, 126795, Note_on_c, 0, 79, 63
1, 126812, Note_off_c, 0, 87, 62
1, 126831, Control_c, 0, 67, 111
1, 126845, Note_off_c, 0, 99, 62
1, 126845, Control_c, 0, 67, 111
1, 126849, Note_on_c, 0, 100, 59
1, 126851, Note_off_c, 0, 79, 61
1, 126890, Control_c, 0, 67, 111
1, 126899, Note_off_c, 0, 100, 56
1, 126920, Control_c, 0, 67, 111
1, 126937, Note_on_c, 0, 99, 66
1, 126964, Control_c, 0, 67, 111
1, 126979, Control_c, 0, 67, 111
1, 126988, Note_off_c, 0, 99, 64
1, 127011, Note_on_c, 0, 100, 52
1, 127024, Control_c, 0, 67, 111
1, 127033, Note_off_c, 0, 100, 56
1, 127039, Control_c, 0, 67, 111
1, 127068, Note_on_c, 0, 99, 61
1, 127069, Control_c, 0, 67, 112
1, 127071, Note_on_c, 0, 87, 58
1, 127074, Note_on_c, 0, 80, 62
1, 127084, Control_c, 0, 67, 111
1, 127090, Note_off_c, 0, 87, 63
1, 127111, Note_off_c, 0, 80, 60
1, 127113, Control_c, 0, 67, 112
1, 127130, Note_off_c, 0, 99, 64
1, 127134, Note_on_c, 0, 100, 54
1, 127184, Note_off_c, 0, 100, 50
1, 127219, Note_on_c, 0, 99, 63
1, 127275, Note_off_c, 0, 99, 63
1, 127290, Control_c, 0, 67, 111
1, 127299, Note_on_c, 0, 100, 53
1, 127320, Control_c, 0, 67, 112
1, 127329, Note_off_c, 0, 100, 50
1, 127379, Control_c, 0, 64, 104
1, 127380, Note_on_c, 0, 99, 61
1, 127392, Note_on_c, 0, 82, 53
1, 127396, Note_on_c, 0, 87, 49
1, 127397, Note_on_c, 0, 79, 40
1, 127402, Control_c, 0, 64, 82
1, 127416, Control_c, 0, 64, 68
1, 127419, Note_off_c, 0, 87, 56
1, 127431, Control_c, 0, 64, 56
1, 127446, Control_c, 0, 64, 47
1, 127449, Note_off_c, 0, 99, 58
1, 127461, Control_c, 0, 64, 46
1, 127465, Note_on_c, 0, 100, 57
1, 127476, Control_c, 0, 64, 52
1, 127490, Control_c, 0, 64, 60
1, 127505, Control_c, 0, 64, 66
1, 127518, Note_off_c, 0, 100, 54
1, 127520, Control_c, 0, 64, 71
1, 127535, Control_c, 0, 64, 79
1, 127550, Control_c, 0, 64, 86
1, 127561, Note_on_c, 0, 99, 60
1, 127564, Control_c, 0, 64, 92
1, 127579, Control_c, 0, 64, 101
1, 127594, Control_c, 0, 64, 119
1, 127606, Note_off_c, 0, 99, 62
1, 127609, Control_c, 0, 64, 127
1, 127640, Note_on_c, 0, 100, 42
1, 127668, Note_off_c, 0, 100, 49
1, 127698, Note_on_c, 0, 75, 45
1, 127705, Note_on_c, 0, 99, 62
1, 127718, Note_off_c, 0, 79, 38
1, 127724, Note_on_c, 0, 87, 27
1, 127727, Note_off_c, 0, 82, 37
1, 127751, Note_off_c, 0, 99, 58
1, 127755, Note_on_c, 0, 100, 52
1, 127755, Note_off_c, 0, 75, 55
1, 127761, Note_off_c, 0, 87, 43
1, 127810, Note_off_c, 0, 100, 53
1, 127832, Control_c, 0, 67, 111
1, 127850, Note_on_c, 0, 99, 67
1, 127862, Control_c, 0, 67, 112
1, 127887, Note_off_c, 0, 99, 61
1, 127892, Control_c, 0, 67, 111
1, 127916, Note_on_c, 0, 100, 40
1, 127921, Control_c, 0, 67, 112
1, 127944, Note_off_c, 0, 100, 45
1, 127963, Note_on_c, 0, 75, 64
1, 127979, Note_on_c, 0, 87, 50
1, 127980, Note_on_c, 0, 99, 66
1, 128002, Note_off_c, 0, 87, 57
1, 128016, Note_off_c, 0, 75, 57
1, 128021, Note_off_c, 0, 99, 58
1, 128025, Control_c, 0, 67, 111
1, 128027, Note_on_c, 0, 100, 53
1, 128054, Control_c, 0, 67, 112
1, 128068, Note_off_c, 0, 100, 54
1, 128084, Control_c, 0, 67, 111
1, 128115, Note_on_c, 0, 99, 68
1, 128128, Control_c, 0, 67, 112
1, 128154, Note_off_c, 0, 99, 63
1, 128165, Control_c, 0, 67, 111
1, 128181, Note_on_c, 0, 100, 47
1, 128195, Control_c, 0, 67, 112
1, 128208, Note_off_c, 0, 100, 54
1, 128239, Note_on_c, 0, 87, 63
1, 128240, Control_c, 0, 64, 118
1, 128243, Note_on_c, 0, 99, 68
1, 128252, Note_on_c, 0, 76, 51
1, 128254, Control_c, 0, 64, 85
1, 128259, Note_on_c, 0, 67, 49
1, 128268, Note_off_c, 0, 87, 65
1, 128269, Control_c, 0, 64, 70
1, 128284, Control_c, 0, 64, 60
1, 128293, Note_off_c, 0, 99, 56
1, 128297, Control_c, 0, 64, 51
1, 128303, Note_on_c, 0, 100, 60
1, 128312, Control_c, 0, 64, 51
1, 128327, Control_c, 0, 64, 59
1, 128342, Control_c, 0, 64, 68
1, 128349, Note_off_c, 0, 100, 54
1, 128357, Control_c, 0, 64, 78
1, 128357, Control_c, 0, 67, 111
1, 128371, Control_c, 0, 64, 90
1, 128378, Note_off_c, 0, 67, 25
1, 128386, Control_c, 0, 64, 99
1, 128386, Control_c, 0, 67, 112
1, 128390, Note_on_c, 0, 99, 67
1, 128395, Note_off_c, 0, 76, 46
1, 128401, Control_c, 0, 64, 103
1, 128416, Control_c, 0, 64, 107
1, 128416, Control_c, 0, 67, 111
1, 128423, Note_off_c, 0, 99, 63
1, 128431, Control_c, 0, 64, 127
1, 128455, Note_on_c, 0, 100, 41
1, 128483, Note_off_c, 0, 100, 46
1, 128506, Note_on_c, 0, 87, 61
1, 128512, Note_on_c, 0, 99, 70
1, 128519, Note_on_c, 0, 75, 63
1, 128519, Control_c, 0, 67, 112
1, 128524, Note_off_c, 0, 87, 65
1, 128551, Note_off_c, 0, 99, 59
1, 128554, Note_off_c, 0, 75, 61
1, 128560, Note_on_c, 0, 100, 58
1, 128563, Control_c, 0, 67, 111
1, 128593, Control_c, 0, 67, 112
1, 128607, Note_off_c, 0, 100, 56
1, 128624, Control_c, 0, 67, 111
1, 128652, Note_on_c, 0, 99, 67
1, 128653, Control_c, 0, 67, 112
1, 128686, Note_off_c, 0, 99, 62
1, 128711, Note_on_c, 0, 100, 56
1, 128733, Note_off_c, 0, 100, 56
1, 128771, Note_on_c, 0, 87, 59
1, 128773, Note_on_c, 0, 73, 62
1, 128780, Note_on_c, 0, 99, 66
1, 128789, Note_off_c, 0, 87, 63
1, 128816, Note_off_c, 0, 73, 59
1, 128827, Note_on_c, 0, 100, 59
1, 128828, Note_off_c, 0, 99, 61
1, 128831, Control_c, 0, 67, 111
1, 128846, Control_c, 0, 67, 112
1, 128874, Note_off_c, 0, 100, 55
1, 128898, Control_c, 0, 67, 111
1, 128913, Control_c, 0, 67, 112
1, 128920, Note_on_c, 0, 99, 63
1, 128957, Control_c, 0, 67, 111
1, 128962, Note_off_c, 0, 99, 62
1, 128983, Note_on_c, 0, 100, 55
1, 128986, Control_c, 0, 67, 112
1, 129009, Note_off_c, 0, 100, 52
1, 129016, Control_c, 0, 64, 100
1, 129031, Control_c, 0, 64, 77
1, 129047, Control_c, 0, 64, 63
1, 129054, Note_on_c, 0, 87, 59
1, 129054, Note_on_c, 0, 71, 46
1, 129057, Note_on_c, 0, 99, 67
1, 129061, Control_c, 0, 64, 46
1, 129062, Note_on_c, 0, 68, 47
1, 129076, Control_c, 0, 64, 39
1, 129076, Control_c, 0, 67, 112
1, 129077, Note_off_c, 0, 87, 63
1, 129091, Control_c, 0, 64, 45
1, 129091, Control_c, 0, 67, 112
1, 129105, Note_off_c, 0, 99, 56
1, 129106, Control_c, 0, 64, 57
1, 129114, Note_on_c, 0, 100, 61
1, 129114, Note_off_c, 0, 68, 57
1, 129121, Control_c, 0, 64, 66
1, 129135, Control_c, 0, 64, 72
1, 129150, Control_c, 0, 64, 78
1, 129165, Control_c, 0, 64, 85
1, 129167, Note_off_c, 0, 100, 57
1, 129180, Control_c, 0, 64, 89
1, 129194, Control_c, 0, 64, 92
1, 129204, Note_on_c, 0, 99, 65
1, 129209, Control_c, 0, 64, 98
1, 129211, Note_off_c, 0, 71, 46
1, 129224, Control_c, 0, 64, 104
1, 129224, Control_c, 0, 67, 111
1, 129239, Control_c, 0, 64, 111
1, 129242, Note_off_c, 0, 99, 62
1, 129254, Control_c, 0, 64, 117
1, 129266, Note_on_c, 0, 100, 42
1, 129269, Control_c, 0, 67, 112
1, 129284, Control_c, 0, 67, 111
1, 129294, Note_off_c, 0, 100, 47
1, 129314, Control_c, 0, 64, 120
1, 129314, Control_c, 0, 67, 112
1, 129320, Note_on_c, 0, 87, 63
1, 129324, Note_on_c, 0, 71, 50
1, 129329, Control_c, 0, 64, 127
1, 129336, Note_on_c, 0, 99, 64
1, 129338, Note_on_c, 0, 68, 51
1, 129344, Note_off_c, 0, 87, 63
1, 129358, Control_c, 0, 67, 111
1, 129382, Note_on_c, 0, 100, 51
1, 129382, Note_off_c, 0, 68, 60
1, 129385, Note_off_c, 0, 99, 60
1, 129388, Control_c, 0, 67, 112
1, 129418, Control_c, 0, 67, 111
1, 129438, Note_off_c, 0, 100, 57
1, 129448, Control_c, 0, 67, 112
1, 129454, Note_off_c, 0, 71, 33
1, 129479, Note_on_c, 0, 99, 61
1, 129493, Control_c, 0, 67, 111
1, 129516, Note_off_c, 0, 99, 62
1, 129522, Control_c, 0, 67, 112
1, 129549, Note_on_c, 0, 100, 47
1, 129576, Note_off_c, 0, 100, 51
1, 129582, Control_c, 0, 64, 93
1, 129596, Note_on_c, 0, 66, 47
1, 129596, Note_on_c, 0, 70, 54
1, 129597, Control_c, 0, 64, 76
1, 129608, Note_on_c, 0, 87, 54
1, 129611, Control_c, 0, 64, 65
1, 129615, Note_on_c, 0, 99, 64
1, 129633, Control_c, 0, 64, 56
1, 129638, Note_off_c, 0, 87, 58
1, 129648, Control_c, 0, 64, 53
1, 129662, Note_off_c, 0, 99, 60
1, 129663, Control_c, 0, 64, 57
1, 129676, Note_on_c, 0, 100, 57
1, 129678, Control_c, 0, 64, 65
1, 129692, Control_c, 0, 64, 72
1, 129692, Control_c, 0, 67, 111
1, 129707, Control_c, 0, 64, 81
1, 129722, Control_c, 0, 64, 91
1, 129736, Note_off_c, 0, 70, 33
1, 129736, Note_off_c, 0, 100, 53
1, 129737, Control_c, 0, 64, 96
1, 129737, Note_off_c, 0, 66, 42
1, 129752, Control_c, 0, 64, 99
1, 129752, Control_c, 0, 67, 111
1, 129767, Control_c, 0, 64, 105
1, 129767, Control_c, 0, 67, 110
1, 129770, Note_on_c, 0, 99, 63
1, 129782, Control_c, 0, 64, 127
1, 129797, Control_c, 0, 67, 111
1, 129809, Note_off_c, 0, 99, 60
1, 129826, Control_c, 0, 67, 110
1, 129844, Note_on_c, 0, 100, 43
1, 129856, Control_c, 0, 67, 111
1, 129875, Note_off_c, 0, 100, 52
1, 129885, Control_c, 0, 67, 110
1, 129900, Control_c, 0, 64, 101
1, 129915, Control_c, 0, 64, 81
1, 129915, Control_c, 0, 67, 111
1, 129922, Note_on_c, 0, 99, 56
1, 129927, Note_on_c, 0, 87, 47
1, 129930, Control_c, 0, 64, 68
1, 129934, Note_on_c, 0, 68, 41
1, 129940, Note_on_c, 0, 64, 42
1, 129944, Control_c, 0, 64, 58
1, 129951, Note_off_c, 0, 87, 54
1, 129959, Control_c, 0, 64, 51
1, 129959, Control_c, 0, 67, 110
1, 129964, Note_off_c, 0, 99, 59
1, 129974, Control_c, 0, 64, 55
1, 129989, Control_c, 0, 64, 62
1, 129989, Control_c, 0, 67, 111
1, 129990, Note_on_c, 0, 100, 49
1, 130004, Control_c, 0, 64, 68
1, 130018, Control_c, 0, 64, 73
1, 130018, Control_c, 0, 67, 110
1, 130033, Control_c, 0, 64, 79
1, 130033, Control_c, 0, 67, 110
1, 130035, Note_off_c, 0, 100, 54
1, 130048, Control_c, 0, 64, 84
1, 130048, Control_c, 0, 67, 110
1, 130063, Control_c, 0, 64, 89
1, 130075, Note_off_c, 0, 68, 40
1, 130078, Note_on_c, 0, 99, 59
1, 130078, Control_c, 0, 64, 99
1, 130092, Control_c, 0, 64, 116
1, 130092, Control_c, 0, 67, 110
1, 130107, Control_c, 0, 64, 127
1, 130107, Control_c, 0, 67, 110
1, 130121, Note_off_c, 0, 99, 59
1, 130145, Note_off_c, 0, 64, 30
1, 130147, Note_on_c, 0, 100, 51
1, 130166, Control_c, 0, 67, 110
1, 130175, Note_off_c, 0, 100, 51
1, 130181, Control_c, 0, 67, 110
1, 130196, Control_c, 0, 67, 111
1, 130212, Control_c, 0, 64, 103
1, 130225, Note_on_c, 0, 87, 53
1, 130227, Control_c, 0, 64, 82
1, 130227, Control_c, 0, 67, 110
1, 130230, Note_on_c, 0, 67, 47
1, 130230, Note_on_c, 0, 99, 64
1, 130241, Control_c, 0, 64, 70
1, 130244, Note_off_c, 0, 87, 61
1, 130256, Control_c, 0, 64, 64
1, 130256, Control_c, 0, 67, 111
1, 130271, Control_c, 0, 64, 62
1, 130277, Note_off_c, 0, 99, 58
1, 130286, Note_off_c, 0, 67, 40
1, 130286, Control_c, 0, 64, 64
1, 130286, Control_c, 0, 67, 110
1, 130299, Note_on_c, 0, 100, 49
1, 130301, Control_c, 0, 64, 67
1, 130315, Control_c, 0, 64, 72
1, 130330, Control_c, 0, 64, 79
1, 130330, Control_c, 0, 67, 111
1, 130340, Note_off_c, 0, 100, 55
1, 130345, Control_c, 0, 64, 90
1, 130345, Control_c, 0, 67, 110
1, 130360, Control_c, 0, 64, 103
1, 130375, Control_c, 0, 64, 124
1, 130396, Note_on_c, 0, 99, 63
1, 130397, Control_c, 0, 64, 127
1, 130431, Note_off_c, 0, 99, 61
1, 130452, Note_on_c, 0, 100, 55
1, 130482, Note_off_c, 0, 100, 51
1, 130515, Control_c, 0, 67, 111
1, 130528, Note_on_c, 0, 68, 45
1, 130530, Control_c, 0, 64, 106
1, 130531, Note_on_c, 0, 99, 63
1, 130536, Note_on_c, 0, 87, 51
1, 130545, Control_c, 0, 64, 81
1, 130555, Note_off_c, 0, 87, 60
1, 130559, Control_c, 0, 64, 67
1, 130574, Control_c, 0, 64, 57
1, 130586, Note_off_c, 0, 99, 58
1, 130589, Control_c, 0, 64, 50
1, 130589, Control_c, 0, 67, 111
1, 130596, Note_on_c, 0, 100, 56
1, 130599, Note_off_c, 0, 68, 47
1, 130604, Control_c, 0, 64, 54
1, 130619, Control_c, 0, 64, 61
1, 130633, Control_c, 0, 64, 68
1, 130648, Control_c, 0, 64, 74
1, 130650, Note_off_c, 0, 100, 53
1, 130663, Control_c, 0, 64, 82
1, 130678, Control_c, 0, 64, 90
1, 130693, Control_c, 0, 64, 97
1, 130693, Control_c, 0, 67, 111
1, 130694, Note_on_c, 0, 99, 63
1, 130707, Control_c, 0, 64, 103
1, 130722, Control_c, 0, 64, 114
1, 130735, Note_off_c, 0, 99, 60
1, 130737, Control_c, 0, 64, 127
1, 130770, Note_on_c, 0, 100, 45
1, 130797, Note_off_c, 0, 100, 54
1, 130840, Control_c, 0, 64, 102
1, 130840, Control_c, 0, 67, 111
1, 130849, Note_on_c, 0, 87, 57
1, 130850, Note_on_c, 0, 99, 60
1, 130852, Note_on_c, 0, 70, 47
1, 130855, Control_c, 0, 64, 83
1, 130857, Note_on_c, 0, 67, 43
1, 130870, Note_off_c, 0, 87, 61
1, 130870, Control_c, 0, 64, 70
1, 130885, Control_c, 0, 64, 60
1, 130899, Control_c, 0, 64, 52
1, 130907, Note_off_c, 0, 99, 54
1, 130914, Control_c, 0, 64, 53
1, 130929, Note_on_c, 0, 100, 55
1, 130929, Control_c, 0, 64, 58
1, 130944, Control_c, 0, 64, 64
1, 130944, Control_c, 0, 67, 111
1, 130959, Control_c, 0, 64, 68
1, 130974, Control_c, 0, 64, 73
1, 130980, Note_off_c, 0, 100, 54
1, 130989, Control_c, 0, 64, 79
1, 131004, Control_c, 0, 64, 87
1, 131019, Control_c, 0, 64, 95
1, 131019, Control_c, 0, 67, 110
1, 131029, Note_on_c, 0, 99, 58
1, 131034, Control_c, 0, 64, 106
1, 131049, Control_c, 0, 64, 127
1, 131065, Note_off_c, 0, 99, 63
1, 131078, Control_c, 0, 67, 110
1, 131093, Control_c, 0, 67, 109
1, 131097, Note_on_c, 0, 100, 49
1, 131108, Control_c, 0, 67, 110
1, 131123, Note_off_c, 0, 100, 53
1, 131160, Control_c, 0, 64, 106
1, 131160, Control_c, 0, 67, 109
1, 131169, Note_on_c, 0, 63, 40
1, 131175, Note_on_c, 0, 99, 63
1, 131175, Control_c, 0, 64, 82
1, 131175, Control_c, 0, 67, 110
1, 131181, Note_on_c, 0, 87, 47
1, 131189, Control_c, 0, 64, 67
1, 131190, Note_off_c, 0, 67, 32
1, 131204, Control_c, 0, 64, 57
1, 131206, Note_off_c, 0, 87, 51
1, 131210, Note_off_c, 0, 63, 47
1, 131214, Note_off_c, 0, 99, 57
1, 131219, Control_c, 0, 64, 57
1, 131219, Control_c, 0, 67, 109
1, 131234, Control_c, 0, 64, 63
1, 131234, Control_c, 0, 67, 109
1, 131236, Note_on_c, 0, 100, 48
1, 131243, Note_off_c, 0, 70, 37
1, 131249, Control_c, 0, 64, 69
1, 131249, Control_c, 0, 67, 109
1, 131263, Control_c, 0, 64, 76
1, 131268, Note_off_c, 0, 100, 50
1, 131278, Control_c, 0, 64, 88
1, 131293, Control_c, 0, 64, 99
1, 131293, Control_c, 0, 67, 108
1, 131308, Control_c, 0, 64, 107
1, 131318, Note_on_c, 0, 99, 60
1, 131323, Control_c, 0, 64, 114
1, 131338, Control_c, 0, 64, 127
1, 131352, Note_off_c, 0, 99, 65
1, 131353, Control_c, 0, 67, 108
1, 131358, Note_on_c, 0, 100, 54
1, 131368, Control_c, 0, 67, 106
1, 131382, Control_c, 0, 67, 107
1, 131385, Note_off_c, 0, 100, 51
1, 131397, Control_c, 0, 67, 107
1, 131427, Control_c, 0, 67, 106
1, 131432, Note_on_c, 0, 87, 56
1, 131432, Note_on_c, 0, 99, 65
1, 131442, Control_c, 0, 67, 104
1, 131451, Note_off_c, 0, 87, 62
1, 131456, Control_c, 0, 67, 104
1, 131466, Note_off_c, 0, 99, 60
1, 131471, Control_c, 0, 67, 105
1, 131499, Note_on_c, 0, 100, 57
1, 131501, Control_c, 0, 67, 104
1, 131515, Control_c, 0, 67, 102
1, 131530, Control_c, 0, 67, 99
1, 131537, Note_on_c, 0, 63, 49
1, 131541, Note_off_c, 0, 100, 56
1, 131545, Control_c, 0, 67, 97
1, 131560, Control_c, 0, 67, 98
1, 131564, Note_on_c, 0, 99, 63
1, 131574, Control_c, 0, 67, 97
1, 131589, Control_c, 0, 67, 96
1, 131600, Note_off_c, 0, 99, 63
1, 131604, Control_c, 0, 67, 94
1, 131618, Note_off_c, 0, 63, 48
1, 131619, Control_c, 0, 67, 87
1, 131623, Note_on_c, 0, 100, 54
1, 131634, Control_c, 0, 67, 77
1, 131646, Note_off_c, 0, 100, 56
1, 131649, Control_c, 0, 64, 91
1, 131649, Control_c, 0, 67, 67
1, 131663, Control_c, 0, 64, 72
1, 131663, Control_c, 0, 67, 56
1, 131677, Note_on_c, 0, 75, 66
1, 131678, Control_c, 0, 64, 59
1, 131678, Control_c, 0, 67, 43
1, 131679, Note_on_c, 0, 99, 77
1, 131680, Note_on_c, 0, 87, 65
1, 131693, Control_c, 0, 64, 44
1, 131693, Control_c, 0, 67, 26
1, 131697, Note_off_c, 0, 87, 65
1, 131703, Note_off_c, 0, 75, 68
1, 131707, Control_c, 0, 64, 34
1, 131707, Control_c, 0, 67, 0
1, 131722, Control_c, 0, 64, 30
1, 131731, Note_on_c, 0, 100, 64
1, 131733, Note_off_c, 0, 99, 61
1, 131737, Control_c, 0, 64, 25
1, 131752, Control_c, 0, 64, 21
1, 131767, Control_c, 0, 64, 19
1, 131788, Note_off_c, 0, 100, 59
1, 131797, Control_c, 0, 64, 21
1, 131807, Note_on_c, 0, 99, 53
1, 131812, Control_c, 0, 64, 24
1, 131827, Control_c, 0, 64, 25
1, 131850, Note_off_c, 0, 99, 63
1, 131855, Note_on_c, 0, 100, 54
1, 131894, Control_c, 0, 64, 26
1, 131903, Note_off_c, 0, 100, 56
1, 131909, Control_c, 0, 64, 26
1, 131924, Control_c, 0, 64, 27
1, 131937, Note_on_c, 0, 87, 61
1, 131949, Note_on_c, 0, 99, 67
1, 131959, Note_on_c, 0, 75, 53
1, 131965, Note_off_c, 0, 87, 64
1, 131968, Control_c, 0, 64, 27
1, 131979, Note_off_c, 0, 75, 62
1, 131982, Note_off_c, 0, 99, 63
1, 131983, Control_c, 0, 64, 28
1, 131998, Control_c, 0, 64, 30
1, 132000, Note_on_c, 0, 100, 62
1, 132012, Control_c, 0, 64, 32
1, 132023, Note_off_c, 0, 100, 58
1, 132027, Control_c, 0, 64, 33
1, 132043, Control_c, 0, 64, 34
1, 132058, Control_c, 0, 64, 36
1, 132073, Control_c, 0, 64, 37
1, 132077, Note_on_c, 0, 99, 72
1, 132087, Control_c, 0, 64, 39
1, 132102, Control_c, 0, 64, 41
1, 132106, Note_off_c, 0, 99, 64
1, 132117, Control_c, 0, 64, 43
1, 132125, Note_on_c, 0, 100, 52
1, 132131, Control_c, 0, 64, 45
1, 132146, Control_c, 0, 64, 44
1, 132152, Note_off_c, 0, 100, 51
1, 132191, Control_c, 0, 64, 45
1, 132197, Note_on_c, 0, 99, 67
1, 132201, Note_on_c, 0, 73, 58
1, 132205, Note_on_c, 0, 87, 59
1, 132225, Note_off_c, 0, 87, 63
1, 132227, Note_off_c, 0, 73, 67
1, 132239, Note_off_c, 0, 99, 57
1, 132249, Note_on_c, 0, 100, 66
1, 132285, Note_off_c, 0, 100, 55
1, 132324, Control_c, 0, 64, 46
1, 132334, Note_on_c, 0, 99, 73
1, 132339, Control_c, 0, 64, 47
1, 132343, Note_on_c, 0, 56, 55
1, 132354, Control_c, 0, 64, 48
1, 132361, Note_off_c, 0, 99, 64
1, 132373, Note_off_c, 0, 56, 64
1, 132428, Control_c, 0, 64, 48
1, 132440, Note_on_c, 0, 71, 66
1, 132442, Note_on_c, 0, 99, 74
1, 132457, Control_c, 0, 64, 49
1, 132467, Note_off_c, 0, 71, 67
1, 132484, Note_off_c, 0, 99, 58
1, 132498, Note_on_c, 0, 100, 57
1, 132561, Note_off_c, 0, 100, 61
1, 132569, Note_on_c, 0, 99, 63
1, 132576, Control_c, 0, 64, 48
1, 132590, Note_off_c, 0, 99, 66
1, 132608, Note_on_c, 0, 87, 67
1, 132638, Note_off_c, 0, 87, 69
1, 132658, Control_c, 0, 64, 48
1, 132673, Control_c, 0, 64, 47
1, 132688, Control_c, 0, 64, 46
1, 132689, Note_on_c, 0, 71, 69
1, 132713, Note_off_c, 0, 71, 67
1, 132733, Control_c, 0, 64, 45
1, 132762, Control_c, 0, 64, 45
1, 132769, Note_on_c, 0, 88, 53
1, 132792, Control_c, 0, 64, 44
1, 132807, Control_c, 0, 64, 44
1, 132810, Note_off_c, 0, 88, 63
1, 132819, Note_on_c, 0, 87, 57
1, 132822, Control_c, 0, 64, 43
1, 132836, Control_c, 0, 64, 43
1, 132849, Note_off_c, 0, 87, 66
1, 132851, Control_c, 0, 64, 42
1, 132866, Control_c, 0, 64, 42
1, 132868, Note_on_c, 0, 75, 74
1, 132880, Control_c, 0, 64, 41
1, 132901, Note_off_c, 0, 75, 63
1, 132910, Control_c, 0, 64, 40
1, 132925, Control_c, 0, 64, 40
1, 132940, Note_on_c, 0, 87, 60
1, 132940, Control_c, 0, 64, 39
1, 132945, Note_on_c, 0, 70, 64
1, 132973, Note_off_c, 0, 70, 64
1, 133005, Note_on_c, 0, 88, 68
1, 133016, Note_off_c, 0, 87, 51
1, 133029, Note_off_c, 0, 88, 70
1, 133073, Control_c, 0, 64, 40
1, 133087, Control_c, 0, 64, 40
1, 133093, Note_on_c, 0, 87, 60
1, 133126, Note_off_c, 0, 87, 65
1, 133157, Note_on_c, 0, 99, 75
1, 133162, Control_c, 0, 64, 41
1, 133168, Note_on_c, 0, 68, 63
1, 133169, Note_on_c, 0, 59, 60
1, 133187, Note_off_c, 0, 68, 66
1, 133197, Note_off_c, 0, 99, 62
1, 133198, Note_on_c, 0, 100, 69
1, 133199, Note_off_c, 0, 59, 67
1, 133236, Control_c, 0, 64, 40
1, 133260, Note_off_c, 0, 100, 59
1, 133266, Note_on_c, 0, 99, 70
1, 133289, Note_off_c, 0, 99, 69
1, 133295, Control_c, 0, 64, 41
1, 133308, Note_on_c, 0, 87, 66
1, 133325, Control_c, 0, 64, 41
1, 133333, Note_off_c, 0, 87, 68
1, 133340, Control_c, 0, 64, 42
1, 133354, Control_c, 0, 64, 43
1, 133411, Note_on_c, 0, 67, 64
1, 133413, Note_on_c, 0, 87, 70
1, 133430, Note_off_c, 0, 67, 64
1, 133465, Note_off_c, 0, 87, 62
1, 133478, Note_on_c, 0, 88, 59
1, 133481, Control_c, 0, 64, 42
1, 133503, Poly_aftertouch_c, 0, 87, 0
1, 133511, Note_off_c, 0, 88, 64
1, 133511, Control_c, 0, 64, 43
1, 133512, Note_on_c, 0, 87, 53
1, 133548, Note_off_c, 0, 87, 64
1, 133577, Note_on_c, 0, 75, 74
1, 133612, Note_off_c, 0, 75, 62
1, 133641, Note_on_c, 0, 68, 64
1, 133653, Note_on_c, 0, 87, 66
1, 133668, Note_off_c, 0, 68, 68
1, 133692, Note_off_c, 0, 87, 55
1, 133721, Note_on_c, 0, 88, 70
1, 133744, Note_off_c, 0, 88, 69
1, 133810, Note_on_c, 0, 87, 74
1, 133822, Control_c, 0, 64, 43
1, 133856, Note_off_c, 0, 87, 61
1, 133870, Note_on_c, 0, 70, 59
1, 133876, Note_on_c, 0, 67, 45
1, 133877, Note_on_c, 0, 99, 78
1, 133922, Note_off_c, 0, 99, 64
1, 133928, Note_on_c, 0, 100, 70
1, 133955, Control_c, 0, 64, 43
1, 133985, Note_off_c, 0, 100, 61
1, 133987, Note_on_c, 0, 99, 59
1, 134014, Note_off_c, 0, 99, 69
1, 134031, Note_on_c, 0, 87, 66
1, 134053, Note_off_c, 0, 87, 69
1, 134108, Note_on_c, 0, 63, 52
1, 134122, Note_on_c, 0, 87, 76
1, 134122, Note_off_c, 0, 67, 41
1, 134138, Note_off_c, 0, 63, 62
1, 134142, Note_off_c, 0, 70, 42
1, 134183, Note_off_c, 0, 87, 63
1, 134184, Note_on_c, 0, 88, 67
1, 134215, Control_c, 0, 64, 43
1, 134221, Note_off_c, 0, 88, 56
1, 134243, Note_on_c, 0, 87, 51
1, 134245, Control_c, 0, 64, 43
1, 134275, Note_off_c, 0, 87, 65
1, 134290, Note_on_c, 0, 75, 73
1, 134325, Note_off_c, 0, 75, 62
1, 134358, Note_on_c, 0, 63, 57
1, 134360, Note_on_c, 0, 87, 68
1, 134378, Control_c, 0, 64, 42
1, 134384, Note_off_c, 0, 63, 65
1, 134407, Control_c, 0, 64, 42
1, 134438, Note_on_c, 0, 88, 61
1, 134441, Note_off_c, 0, 87, 59
1, 134464, Note_off_c, 0, 88, 67
1, 134527, Note_on_c, 0, 87, 67
1, 134540, Control_c, 0, 64, 42
1, 134563, Note_off_c, 0, 87, 61
1, 134593, Note_on_c, 0, 68, 50
1, 134597, Note_on_c, 0, 99, 74
1, 134599, Note_on_c, 0, 59, 40
1, 134617, Note_off_c, 0, 68, 60
1, 134626, Note_off_c, 0, 59, 56
1, 134646, Note_off_c, 0, 99, 64
1, 134648, Note_on_c, 0, 100, 67
1, 134703, Note_on_c, 0, 99, 59
1, 134706, Note_off_c, 0, 100, 62
1, 134733, Note_off_c, 0, 99, 67
1, 134751, Note_on_c, 0, 87, 65
1, 134777, Note_off_c, 0, 87, 67
1, 134778, Control_c, 0, 64, 43
1, 134840, Note_on_c, 0, 60, 53
1, 134841, Note_on_c, 0, 66, 52
1, 134850, Note_on_c, 0, 87, 65
1, 134880, Note_off_c, 0, 66, 66
1, 134882, Note_off_c, 0, 60, 65
1, 134911, Note_on_c, 0, 88, 65
1, 134911, Note_off_c, 0, 87, 63
1, 134953, Note_off_c, 0, 88, 56
1, 134970, Note_on_c, 0, 87, 59
1, 135004, Note_off_c, 0, 87, 62
1, 135031, Note_on_c, 0, 75, 70
1, 135059, Note_off_c, 0, 75, 62
1, 135085, Note_on_c, 0, 61, 50
1, 135105, Note_on_c, 0, 87, 66
1, 135108, Note_off_c, 0, 61, 62
1, 135127, Control_c, 0, 64, 42
1, 135171, Note_off_c, 0, 87, 59
1, 135172, Note_on_c, 0, 88, 65
1, 135197, Note_off_c, 0, 88, 69
1, 135256, Note_on_c, 0, 87, 71
1, 135275, Control_c, 0, 64, 43
1, 135295, Note_on_c, 0, 63, 46
1, 135301, Note_off_c, 0, 87, 59
1, 135320, Note_off_c, 0, 63, 54
1, 135336, Note_on_c, 0, 99, 75
1, 135375, Note_on_c, 0, 100, 74
1, 135388, Note_off_c, 0, 99, 64
1, 135394, Control_c, 0, 64, 42
1, 135436, Note_on_c, 0, 99, 61
1, 135444, Note_off_c, 0, 100, 63
1, 135468, Note_on_c, 0, 87, 78
1, 135468, Control_c, 0, 64, 43
1, 135493, Note_off_c, 0, 99, 67
1, 135498, Note_off_c, 0, 87, 65
1, 135548, Note_on_c, 0, 71, 60
1, 135562, Note_on_c, 0, 80, 43
1, 135578, Note_off_c, 0, 71, 66
1, 135586, Control_c, 0, 64, 42
1, 135588, Note_off_c, 0, 80, 49
1, 135615, Control_c, 0, 64, 42
1, 135677, Note_on_c, 0, 83, 69
1, 135692, Note_on_c, 0, 75, 47
1, 135702, Note_off_c, 0, 83, 68
1, 135714, Note_off_c, 0, 75, 62
1, 135812, Note_on_c, 0, 80, 65
1, 135817, Control_c, 0, 64, 41
1, 135821, Note_on_c, 0, 87, 64
1, 135838, Note_off_c, 0, 80, 65
1, 135847, Control_c, 0, 64, 41
1, 135848, Note_off_c, 0, 87, 68
1, 136055, Note_on_c, 0, 99, 63
1, 136059, Note_on_c, 0, 63, 51
1, 136087, Note_off_c, 0, 63, 62
1, 136110, Note_off_c, 0, 99, 64
1, 136116, Note_on_c, 0, 100, 64
1, 136182, Note_on_c, 0, 99, 55
1, 136185, Note_off_c, 0, 100, 61
1, 136216, Note_on_c, 0, 87, 63
1, 136232, Note_off_c, 0, 99, 66
1, 136243, Note_off_c, 0, 87, 67
1, 136290, Control_c, 0, 64, 40
1, 136320, Control_c, 0, 64, 40
1, 136325, Note_on_c, 0, 70, 58
1, 136326, Note_on_c, 0, 79, 58
1, 136335, Control_c, 0, 64, 39
1, 136346, Note_off_c, 0, 70, 63
1, 136350, Control_c, 0, 64, 39
1, 136353, Note_off_c, 0, 79, 64
1, 136365, Control_c, 0, 64, 38
1, 136387, Control_c, 0, 64, 38
1, 136505, Control_c, 0, 64, 38
1, 136510, Note_on_c, 0, 82, 53
1, 136516, Note_on_c, 0, 73, 45
1, 136533, Note_off_c, 0, 82, 65
1, 136543, Note_off_c, 0, 73, 63
1, 136565, Control_c, 0, 64, 38
1, 136714, Note_on_c, 0, 87, 58
1, 136718, Note_on_c, 0, 79, 56
1, 136742, Note_off_c, 0, 79, 64
1, 136745, Note_off_c, 0, 87, 66
1, 136788, Control_c, 0, 64, 37
1, 136802, Control_c, 0, 64, 36
1, 136817, Control_c, 0, 64, 35
1, 136832, Control_c, 0, 64, 34
1, 136846, Control_c, 0, 64, 34
1, 136966, Control_c, 0, 64, 33
1, 136981, Control_c, 0, 64, 29
1, 136995, Control_c, 0, 64, 18
1, 137010, Control_c, 0, 64, 0
1, 137084, Control_c, 0, 64, 24
1, 137094, Note_on_c, 0, 56, 48
1, 137099, Control_c, 0, 64, 50
1, 137121, Control_c, 0, 64, 63
1, 137136, Control_c, 0, 64, 66
1, 137150, Control_c, 0, 64, 70
1, 137165, Control_c, 0, 64, 74
1, 137180, Control_c, 0, 64, 79
1, 137182, Note_off_c, 0, 56, 0
1, 137195, Control_c, 0, 64, 83
1, 137210, Control_c, 0, 64, 87
1, 137219, Poly_aftertouch_c, 0, 56, 127
1, 137225, Control_c, 0, 64, 90
1, 137240, Control_c, 0, 64, 92
1, 137254, Control_c, 0, 64, 94
1, 137305, Note_on_c, 0, 63, 45
1, 137314, Control_c, 0, 64, 95
1, 137328, Control_c, 0, 64, 98
1, 137339, Note_off_c, 0, 63, 52
1, 137343, Control_c, 0, 64, 102
1, 137358, Control_c, 0, 64, 103
1, 137371, Note_on_c, 0, 71, 46
1, 137395, Poly_aftertouch_c, 0, 56, 0
1, 137417, Note_on_c, 0, 80, 56
1, 137419, Control_c, 0, 64, 104
1, 137429, Note_off_c, 0, 71, 59
1, 137433, Control_c, 0, 64, 105
1, 137456, Note_off_c, 0, 80, 60
1, 137610, Control_c, 0, 64, 104
1, 137625, Control_c, 0, 64, 104
1, 137684, Control_c, 0, 64, 103
1, 137699, Control_c, 0, 64, 101
1, 137759, Control_c, 0, 64, 99
1, 137773, Control_c, 0, 64, 96
1, 137788, Control_c, 0, 64, 94
1, 137803, Control_c, 0, 64, 92
1, 137818, Control_c, 0, 64, 88
1, 137833, Control_c, 0, 64, 81
1, 137835, Note_on_c, 0, 75, 40
1, 137848, Control_c, 0, 64, 75
1, 137863, Control_c, 0, 64, 71
1, 137863, Note_off_c, 0, 75, 54
1, 137884, Control_c, 0, 64, 70
1, 137897, Note_on_c, 0, 87, 56
1, 137899, Control_c, 0, 64, 72
1, 137914, Control_c, 0, 64, 75
1, 137929, Control_c, 0, 64, 79
1, 137934, Note_off_c, 0, 87, 62
1, 137943, Control_c, 0, 64, 82
1, 137952, Note_on_c, 0, 88, 51
1, 137958, Control_c, 0, 64, 86
1, 137973, Control_c, 0, 64, 89
1, 137988, Control_c, 0, 64, 92
1, 138003, Control_c, 0, 64, 95
1, 138018, Control_c, 0, 64, 97
1, 138021, Note_on_c, 0, 87, 64
1, 138028, Note_off_c, 0, 88, 51
1, 138033, Control_c, 0, 64, 100
1, 138043, Note_off_c, 0, 87, 64
1, 138048, Control_c, 0, 64, 102
1, 138063, Control_c, 0, 64, 103
1, 138077, Control_c, 0, 64, 104
1, 138092, Control_c, 0, 64, 105
1, 138107, Control_c, 0, 64, 106
1, 138109, Note_on_c, 0, 87, 71
1, 138122, Control_c, 0, 64, 107
1, 138137, Control_c, 0, 64, 108
1, 138151, Note_off_c, 0, 87, 55
1, 138151, Control_c, 0, 64, 109
1, 138174, Note_on_c, 0, 99, 70
1, 138233, Note_off_c, 0, 99, 65
1, 138241, Note_on_c, 0, 100, 65
1, 138241, Control_c, 0, 64, 105
1, 138256, Control_c, 0, 64, 98
1, 138271, Control_c, 0, 64, 89
1, 138286, Control_c, 0, 64, 79
1, 138290, Note_on_c, 0, 99, 64
1, 138300, Control_c, 0, 64, 71
1, 138306, Note_off_c, 0, 100, 55
1, 138315, Control_c, 0, 64, 64
1, 138330, Control_c, 0, 64, 58
1, 138345, Control_c, 0, 64, 55
1, 138346, Note_off_c, 0, 99, 63
1, 138353, Note_on_c, 0, 87, 67
1, 138383, Note_off_c, 0, 87, 64
1, 138389, Control_c, 0, 64, 55
1, 138404, Control_c, 0, 64, 54
1, 138411, Note_on_c, 0, 99, 62
1, 138418, Control_c, 0, 64, 52
1, 138433, Control_c, 0, 64, 51
1, 138448, Control_c, 0, 64, 50
1, 138463, Control_c, 0, 64, 50
1, 138468, Note_on_c, 0, 100, 70
1, 138468, Note_off_c, 0, 99, 66
1, 138507, Control_c, 0, 64, 49
1, 138516, Note_off_c, 0, 100, 56
1, 138522, Control_c, 0, 64, 49
1, 138525, Note_on_c, 0, 99, 61
1, 138537, Control_c, 0, 64, 48
1, 138557, Note_off_c, 0, 99, 66
1, 138581, Control_c, 0, 64, 48
1, 138596, Note_on_c, 0, 85, 68
1, 138628, Note_off_c, 0, 85, 65
1, 138668, Note_on_c, 0, 97, 60
1, 138678, Control_c, 0, 64, 47
1, 138693, Control_c, 0, 64, 45
1, 138694, Note_off_c, 0, 97, 62
1, 138707, Control_c, 0, 64, 41
1, 138709, Note_on_c, 0, 99, 70
1, 138722, Control_c, 0, 64, 35
1, 138737, Control_c, 0, 64, 25
1, 138751, Control_c, 0, 64, 11
1, 138766, Control_c, 0, 64, 12
1, 138775, Note_off_c, 0, 99, 62
1, 138777, Note_on_c, 0, 97, 62
1, 138781, Control_c, 0, 64, 28
1, 138796, Control_c, 0, 64, 48
1, 138811, Control_c, 0, 64, 62
1, 138822, Note_off_c, 0, 97, 64
1, 138826, Control_c, 0, 64, 68
1, 138841, Control_c, 0, 64, 72
1, 138844, Note_on_c, 0, 32, 48
1, 138856, Control_c, 0, 64, 79
1, 138864, Note_on_c, 0, 83, 67
1, 138870, Control_c, 0, 64, 85
1, 138872, Note_on_c, 0, 44, 29
1, 138878, Note_off_c, 0, 32, 58
1, 138880, Note_off_c, 0, 83, 66
1, 138885, Control_c, 0, 64, 91
1, 138900, Control_c, 0, 64, 98
1, 138910, Note_off_c, 0, 44, 37
1, 138915, Control_c, 0, 64, 106
1, 138929, Note_on_c, 0, 95, 69
1, 138930, Control_c, 0, 64, 114
1, 138944, Control_c, 0, 64, 122
1, 138974, Control_c, 0, 64, 124
1, 138990, Control_c, 0, 64, 127
1, 138998, Note_off_c, 0, 95, 65
1, 139002, Note_on_c, 0, 97, 72
1, 139074, Note_off_c, 0, 97, 53
1, 139076, Note_on_c, 0, 95, 28
1, 139110, Note_off_c, 0, 95, 41
1, 139116, Note_on_c, 0, 94, 21
1, 139124, Note_on_c, 0, 51, 43
1, 139124, Note_on_c, 0, 83, 66
1, 139132, Note_on_c, 0, 63, 45
1, 139138, Note_on_c, 0, 59, 39
1, 139141, Note_off_c, 0, 83, 67
1, 139151, Note_off_c, 0, 51, 53
1, 139159, Note_off_c, 0, 63, 52
1, 139160, Note_off_c, 0, 94, 29
1, 139170, Note_off_c, 0, 59, 44
1, 139186, Note_on_c, 0, 84, 3
1, 139192, Note_on_c, 0, 95, 68
1, 139220, Note_off_c, 0, 84, 41
1, 139250, Note_off_c, 0, 95, 64
1, 139251, Note_on_c, 0, 97, 71
1, 139271, Control_c, 0, 64, 124
1, 139286, Control_c, 0, 64, 122
1, 139288, Poly_aftertouch_c, 0, 95, 0
1, 139295, Note_on_c, 0, 95, 54
1, 139323, Note_off_c, 0, 97, 62
1, 139324, Note_off_c, 0, 95, 66
1, 139353, Note_on_c, 0, 63, 51
1, 139362, Note_on_c, 0, 56, 56
1, 139371, Note_on_c, 0, 59, 33
1, 139372, Note_on_c, 0, 82, 75
1, 139384, Note_off_c, 0, 63, 63
1, 139402, Note_off_c, 0, 82, 60
1, 139403, Note_off_c, 0, 56, 66
1, 139410, Note_off_c, 0, 59, 41
1, 139421, Note_on_c, 0, 94, 33
1, 139427, Control_c, 0, 64, 118
1, 139442, Control_c, 0, 64, 105
1, 139456, Control_c, 0, 64, 91
1, 139471, Control_c, 0, 64, 78
1, 139486, Control_c, 0, 64, 66
1, 139488, Note_on_c, 0, 95, 72
1, 139493, Note_off_c, 0, 94, 62
1, 139501, Control_c, 0, 64, 50
1, 139516, Control_c, 0, 64, 21
1, 139530, Control_c, 0, 64, 0
1, 139538, Poly_aftertouch_c, 0, 94, 0
1, 139545, Control_c, 0, 64, 21
1, 139546, Note_on_c, 0, 94, 51
1, 139548, Note_off_c, 0, 95, 63
1, 139560, Control_c, 0, 64, 51
1, 139574, Control_c, 0, 64, 64
1, 139583, Note_off_c, 0, 94, 66
1, 139589, Control_c, 0, 64, 72
1, 139604, Control_c, 0, 64, 82
1, 139610, Note_on_c, 0, 47, 62
1, 139615, Note_on_c, 0, 35, 62
1, 139618, Note_on_c, 0, 80, 71
1, 139619, Control_c, 0, 64, 93
1, 139634, Control_c, 0, 64, 102
1, 139640, Note_off_c, 0, 80, 68
1, 139641, Note_off_c, 0, 35, 53
1, 139642, Note_off_c, 0, 47, 63
1, 139648, Control_c, 0, 64, 110
1, 139663, Control_c, 0, 64, 127
1, 139681, Note_on_c, 0, 92, 58
1, 139709, Note_off_c, 0, 92, 66
1, 139715, Note_on_c, 0, 94, 64
1, 139780, Note_off_c, 0, 94, 61
1, 139782, Note_on_c, 0, 92, 73
1, 139809, Note_off_c, 0, 92, 64
1, 139848, Note_on_c, 0, 63, 60
1, 139851, Note_on_c, 0, 79, 74
1, 139857, Note_on_c, 0, 51, 45
1, 139871, Note_off_c, 0, 79, 70
1, 139878, Note_off_c, 0, 63, 65
1, 139884, Note_off_c, 0, 51, 56
1, 139886, Note_on_c, 0, 59, 29
1, 139904, Note_on_c, 0, 91, 66
1, 139933, Note_off_c, 0, 59, 36
1, 139967, Note_on_c, 0, 92, 75
1, 139973, Note_off_c, 0, 91, 64
1, 140030, Note_on_c, 0, 91, 64
1, 140035, Note_off_c, 0, 92, 61
1, 140051, Note_on_c, 0, 63, 62
1, 140067, Note_on_c, 0, 56, 66
1, 140069, Note_on_c, 0, 59, 14
1, 140075, Note_off_c, 0, 63, 69
1, 140082, Note_off_c, 0, 91, 64
1, 140090, Note_on_c, 0, 80, 66
1, 140096, Note_off_c, 0, 56, 67
1, 140120, Note_off_c, 0, 59, 37
1, 140140, Note_off_c, 0, 80, 62
1, 140162, Note_on_c, 0, 92, 77
1, 140191, Control_c, 0, 64, 109
1, 140205, Control_c, 0, 64, 90
1, 140212, Note_off_c, 0, 92, 61
1, 140218, Note_on_c, 0, 94, 75
1, 140220, Control_c, 0, 64, 72
1, 140235, Control_c, 0, 64, 57
1, 140250, Control_c, 0, 64, 24
1, 140265, Control_c, 0, 64, 0
1, 140277, Note_on_c, 0, 92, 68
1, 140294, Control_c, 0, 64, 45
1, 140295, Note_off_c, 0, 94, 59
1, 140309, Control_c, 0, 64, 63
1, 140314, Note_on_c, 0, 39, 68
1, 140322, Note_off_c, 0, 92, 61
1, 140323, Control_c, 0, 64, 75
1, 140325, Note_on_c, 0, 51, 56
1, 140328, Note_on_c, 0, 82, 70
1, 140338, Control_c, 0, 64, 89
1, 140345, Note_off_c, 0, 39, 66
1, 140349, Note_off_c, 0, 51, 57
1, 140353, Control_c, 0, 64, 115
1, 140368, Control_c, 0, 64, 127
1, 140370, Note_off_c, 0, 82, 59
1, 140397, Note_on_c, 0, 94, 76
1, 140445, Note_on_c, 0, 95, 72
1, 140450, Note_off_c, 0, 94, 63
1, 140497, Note_on_c, 0, 94, 59
1, 140499, Note_off_c, 0, 95, 64
1, 140521, Note_off_c, 0, 94, 68
1, 140573, Note_on_c, 0, 67, 48
1, 140579, Note_on_c, 0, 63, 58
1, 140597, Note_on_c, 0, 75, 69
1, 140600, Note_off_c, 0, 67, 59
1, 140616, Note_off_c, 0, 63, 61
1, 140630, Note_off_c, 0, 75, 59
1, 140641, Note_on_c, 0, 87, 71
1, 140694, Note_on_c, 0, 88, 63
1, 140702, Note_off_c, 0, 87, 62
1, 140726, Note_off_c, 0, 88, 60
1, 140757, Note_on_c, 0, 87, 65
1, 140787, Note_on_c, 0, 67, 51
1, 140793, Note_on_c, 0, 63, 49
1, 140796, Note_on_c, 0, 58, 64
1, 140808, Note_off_c, 0, 87, 61
1, 140815, Note_off_c, 0, 67, 66
1, 140823, Note_on_c, 0, 75, 75
1, 140825, Note_off_c, 0, 63, 65
1, 140831, Note_off_c, 0, 58, 65
1, 140891, Note_on_c, 0, 87, 70
1, 140894, Control_c, 0, 64, 117
1, 140909, Control_c, 0, 64, 98
1, 140924, Control_c, 0, 64, 83
1, 140936, Note_on_c, 0, 88, 70
1, 140939, Control_c, 0, 64, 68
1, 140940, Note_off_c, 0, 75, 35
1, 140946, Note_off_c, 0, 87, 57
1, 140954, Control_c, 0, 64, 52
1, 140969, Control_c, 0, 64, 0
1, 141006, Note_off_c, 0, 88, 60
1, 141014, Control_c, 0, 64, 35
1, 141015, Note_on_c, 0, 87, 27
1, 141028, Control_c, 0, 64, 58
1, 141043, Control_c, 0, 64, 69
1, 141045, Note_off_c, 0, 87, 54
1, 141050, Note_on_c, 0, 55, 62
1, 141053, Note_on_c, 0, 43, 59
1, 141055, Note_on_c, 0, 76, 76
1, 141058, Control_c, 0, 64, 81
1, 141073, Control_c, 0, 64, 99
1, 141076, Note_off_c, 0, 76, 70
1, 141079, Note_off_c, 0, 43, 57
1, 141081, Note_off_c, 0, 55, 65
1, 141088, Control_c, 0, 64, 127
1, 141118, Note_on_c, 0, 88, 78
1, 141181, Note_off_c, 0, 88, 65
1, 141189, Note_on_c, 0, 90, 68
1, 141238, Note_on_c, 0, 88, 62
1, 141251, Note_off_c, 0, 90, 61
1, 141263, Note_off_c, 0, 88, 68
1, 141274, Note_on_c, 0, 87, 56
1, 141292, Note_off_c, 0, 87, 64
1, 141303, Note_on_c, 0, 75, 83
1, 141306, Note_on_c, 0, 70, 66
1, 141316, Note_on_c, 0, 61, 50
1, 141336, Note_off_c, 0, 70, 65
1, 141339, Note_off_c, 0, 61, 62
1, 141342, Note_on_c, 0, 63, 8
1, 141345, Note_off_c, 0, 75, 62
1, 141359, Note_on_c, 0, 87, 78
1, 141371, Note_off_c, 0, 63, 0
1, 141392, Poly_aftertouch_c, 0, 63, 0
1, 141421, Note_on_c, 0, 88, 71
1, 141428, Note_off_c, 0, 87, 63
1, 141477, Note_on_c, 0, 87, 61
1, 141481, Note_off_c, 0, 88, 65
1, 141509, Note_off_c, 0, 87, 64
1, 141543, Note_on_c, 0, 73, 78
1, 141547, Note_on_c, 0, 70, 50
1, 141553, Note_on_c, 0, 58, 62
1, 141568, Note_off_c, 0, 70, 60
1, 141575, Note_on_c, 0, 63, 22
1, 141580, Note_off_c, 0, 73, 62
1, 141586, Note_off_c, 0, 58, 64
1, 141610, Note_on_c, 0, 85, 71
1, 141624, Note_off_c, 0, 63, 40
1, 141656, Note_on_c, 0, 87, 70
1, 141658, Note_off_c, 0, 85, 60
1, 141688, Control_c, 0, 64, 99
1, 141703, Control_c, 0, 64, 71
1, 141717, Control_c, 0, 64, 51
1, 141728, Note_on_c, 0, 85, 61
1, 141732, Control_c, 0, 64, 0
1, 141736, Note_off_c, 0, 87, 63
1, 141754, Note_off_c, 0, 85, 67
1, 141777, Control_c, 0, 64, 39
1, 141789, Note_on_c, 0, 44, 72
1, 141792, Control_c, 0, 64, 61
1, 141798, Note_on_c, 0, 71, 74
1, 141807, Control_c, 0, 64, 75
1, 141815, Note_off_c, 0, 44, 66
1, 141822, Note_off_c, 0, 71, 71
1, 141822, Control_c, 0, 64, 90
1, 141836, Control_c, 0, 64, 120
1, 141851, Control_c, 0, 64, 127
1, 141860, Note_on_c, 0, 83, 78
1, 141927, Note_on_c, 0, 85, 75
1, 141931, Note_off_c, 0, 83, 64
1, 141982, Note_on_c, 0, 83, 59
1, 141995, Note_off_c, 0, 85, 62
1, 142009, Note_off_c, 0, 83, 67
1, 142044, Note_on_c, 0, 71, 80
1, 142047, Note_on_c, 0, 68, 65
1, 142050, Note_on_c, 0, 63, 54
1, 142065, Note_off_c, 0, 71, 71
1, 142074, Note_off_c, 0, 68, 68
1, 142079, Poly_aftertouch_c, 0, 82, 0
1, 142094, Note_off_c, 0, 63, 55
1, 142097, Note_on_c, 0, 83, 61
1, 142117, Poly_aftertouch_c, 0, 82, 0
1, 142164, Note_on_c, 0, 85, 77
1, 142174, Note_off_c, 0, 83, 64
1, 142218, Note_on_c, 0, 83, 54
1, 142239, Note_off_c, 0, 85, 61
1, 142249, Note_off_c, 0, 83, 66
1, 142260, Note_on_c, 0, 82, 41
1, 142278, Note_on_c, 0, 59, 69
1, 142278, Note_on_c, 0, 63, 71
1, 142284, Note_on_c, 0, 70, 81
1, 142289, Note_off_c, 0, 82, 50
1, 142303, Note_off_c, 0, 63, 67
1, 142307, Note_off_c, 0, 59, 66
1, 142318, Note_off_c, 0, 70, 60
1, 142354, Note_on_c, 0, 82, 67
1, 142408, Note_on_c, 0, 83, 71
1, 142415, Note_off_c, 0, 82, 58
1, 142453, Control_c, 0, 64, 85
1, 142467, Control_c, 0, 64, 65
1, 142474, Note_on_c, 0, 82, 48
1, 142477, Note_off_c, 0, 83, 64
1, 142482, Control_c, 0, 64, 39
1, 142497, Control_c, 0, 64, 0
1, 142503, Note_off_c, 0, 82, 65
1, 142534, Note_on_c, 0, 40, 76
1, 142540, Control_c, 0, 64, 45
1, 142543, Note_on_c, 0, 68, 75
1, 142555, Control_c, 0, 64, 63
1, 142565, Note_off_c, 0, 40, 63
1, 142570, Control_c, 0, 64, 74
1, 142573, Note_off_c, 0, 68, 63
1, 142585, Control_c, 0, 64, 87
1, 142600, Control_c, 0, 64, 106
1, 142606, Note_on_c, 0, 80, 71
1, 142614, Control_c, 0, 64, 127
1, 142648, Note_off_c, 0, 80, 59
1, 142650, Note_on_c, 0, 82, 74
1, 142713, Note_on_c, 0, 80, 64
1, 142723, Note_off_c, 0, 82, 61
1, 142750, Note_off_c, 0, 80, 60
1, 142779, Note_on_c, 0, 67, 80
1, 142785, Note_on_c, 0, 62, 67
1, 142786, Note_on_c, 0, 59, 61
1, 142800, Note_off_c, 0, 67, 69
1, 142812, Note_off_c, 0, 62, 67
1, 142815, Note_off_c, 0, 59, 65
1, 142835, Note_on_c, 0, 79, 72
1, 142907, Note_on_c, 0, 80, 64
1, 142907, Note_off_c, 0, 79, 63
1, 142961, Note_on_c, 0, 79, 63
1, 142969, Note_off_c, 0, 80, 60
1, 143009, Note_off_c, 0, 79, 64
1, 143028, Note_on_c, 0, 58, 67
1, 143033, Note_on_c, 0, 62, 58
1, 143034, Note_on_c, 0, 68, 70
1, 143056, Note_off_c, 0, 62, 57
1, 143056, Note_off_c, 0, 58, 66
1, 143062, Note_off_c, 0, 68, 66
1, 143097, Note_on_c, 0, 80, 69
1, 143159, Note_on_c, 0, 82, 66
1, 143163, Note_off_c, 0, 80, 53
1, 143201, Control_c, 0, 64, 98
1, 143213, Note_on_c, 0, 80, 44
1, 143215, Control_c, 0, 64, 74
1, 143230, Control_c, 0, 64, 54
1, 143236, Note_off_c, 0, 82, 57
1, 143245, Control_c, 0, 64, 0
1, 143258, Note_off_c, 0, 80, 60
1, 143287, Note_on_c, 0, 70, 72
1, 143290, Note_on_c, 0, 39, 70
1, 143304, Control_c, 0, 64, 39
1, 143318, Note_off_c, 0, 70, 63
1, 143319, Control_c, 0, 64, 61
1, 143321, Note_off_c, 0, 39, 65
1, 143334, Control_c, 0, 64, 75
1, 143348, Control_c, 0, 64, 90
1, 143358, Note_on_c, 0, 82, 70
1, 143363, Control_c, 0, 64, 127
1, 143398, Note_off_c, 0, 82, 55
1, 143401, Note_on_c, 0, 83, 67
1, 143462, Note_on_c, 0, 82, 63
1, 143464, Note_off_c, 0, 83, 63
1, 143490, Note_off_c, 0, 82, 66
1, 143582, Note_on_c, 0, 55, 59
1, 143582, Note_on_c, 0, 58, 59
1, 143592, Note_on_c, 0, 63, 65
1, 143610, Note_off_c, 0, 58, 65
1, 143612, Note_off_c, 0, 55, 65
1, 143631, Note_off_c, 0, 63, 58
1, 143645, Note_on_c, 0, 75, 65
1, 143688, Note_on_c, 0, 76, 62
1, 143691, Note_off_c, 0, 75, 55
1, 143753, Note_on_c, 0, 75, 67
1, 143767, Note_off_c, 0, 76, 63
1, 143782, Note_off_c, 0, 75, 67
1, 143848, Note_on_c, 0, 70, 73
1, 143851, Note_on_c, 0, 75, 76
1, 143855, Note_on_c, 0, 67, 63
1, 143881, Note_off_c, 0, 70, 66
1, 143890, Note_off_c, 0, 67, 67
1, 143893, Note_off_c, 0, 75, 62
1, 143923, Note_on_c, 0, 87, 73
1, 143962, Note_on_c, 0, 88, 70
1, 143976, Note_off_c, 0, 87, 57
1, 144032, Note_on_c, 0, 87, 62
1, 144043, Note_off_c, 0, 88, 64
1, 144061, Note_off_c, 0, 87, 66
1, 144128, Note_on_c, 0, 82, 73
1, 144136, Note_on_c, 0, 87, 79
1, 144137, Note_on_c, 0, 79, 64
1, 144149, Note_off_c, 0, 82, 70
1, 144163, Note_off_c, 0, 79, 66
1, 144168, Note_off_c, 0, 87, 61
1, 144187, Note_on_c, 0, 99, 82
1, 144242, Note_off_c, 0, 99, 66
1, 144248, Note_on_c, 0, 100, 63
1, 144302, Note_on_c, 0, 99, 66
1, 144312, Note_off_c, 0, 100, 60
1, 144350, Note_off_c, 0, 99, 66
1, 144366, Note_on_c, 0, 87, 67
1, 144405, Note_off_c, 0, 87, 59
1, 144408, Control_c, 0, 64, 108
1, 144423, Note_on_c, 0, 99, 73
1, 144423, Control_c, 0, 64, 89
1, 144437, Control_c, 0, 64, 76
1, 144452, Control_c, 0, 64, 66
1, 144467, Control_c, 0, 64, 61
1, 144480, Note_off_c, 0, 99, 63
1, 144481, Control_c, 0, 64, 59
1, 144482, Note_on_c, 0, 100, 77
1, 144496, Control_c, 0, 64, 58
1, 144526, Control_c, 0, 64, 57
1, 144539, Note_on_c, 0, 99, 61
1, 144541, Control_c, 0, 64, 55
1, 144546, Note_off_c, 0, 100, 63
1, 144555, Control_c, 0, 64, 53
1, 144570, Control_c, 0, 64, 49
1, 144579, Note_off_c, 0, 99, 65
1, 144586, Control_c, 0, 64, 48
1, 144609, Control_c, 0, 64, 47
1, 144624, Note_on_c, 0, 85, 72
1, 144638, Control_c, 0, 64, 47
1, 144652, Note_off_c, 0, 85, 63
1, 144653, Control_c, 0, 64, 46
1, 144668, Control_c, 0, 64, 44
1, 144683, Control_c, 0, 64, 41
1, 144690, Note_on_c, 0, 97, 73
1, 144698, Control_c, 0, 64, 38
1, 144712, Control_c, 0, 64, 34
1, 144727, Control_c, 0, 64, 28
1, 144734, Note_off_c, 0, 97, 59
1, 144740, Note_on_c, 0, 99, 67
1, 144742, Control_c, 0, 64, 20
1, 144757, Control_c, 0, 64, 0
1, 144808, Note_on_c, 0, 97, 49
1, 144814, Note_off_c, 0, 99, 64
1, 144837, Note_off_c, 0, 97, 69
1, 144859, Control_c, 0, 64, 39
1, 144874, Note_on_c, 0, 44, 55
1, 144874, Note_on_c, 0, 84, 65
1, 144874, Control_c, 0, 64, 57
1, 144889, Control_c, 0, 64, 65
1, 144898, Note_off_c, 0, 84, 69
1, 144904, Control_c, 0, 64, 71
1, 144907, Note_off_c, 0, 44, 63
1, 144919, Control_c, 0, 64, 77
1, 144934, Control_c, 0, 64, 85
1, 144948, Control_c, 0, 64, 95
1, 144951, Note_on_c, 0, 96, 47
1, 144963, Control_c, 0, 64, 117
1, 144978, Control_c, 0, 64, 127
1, 144994, Note_on_c, 0, 97, 76
1, 145015, Note_off_c, 0, 96, 60
1, 145079, Note_off_c, 0, 97, 52
1, 145084, Note_on_c, 0, 96, 47
1, 145111, Note_on_c, 0, 56, 50
1, 145123, Note_off_c, 0, 96, 53
1, 145127, Note_on_c, 0, 66, 49
1, 145132, Note_on_c, 0, 84, 71
1, 145139, Note_off_c, 0, 56, 49
1, 145145, Note_on_c, 0, 63, 43
1, 145154, Note_off_c, 0, 66, 63
1, 145155, Note_off_c, 0, 84, 68
1, 145173, Note_off_c, 0, 63, 55
1, 145207, Note_on_c, 0, 96, 78
1, 145251, Note_on_c, 0, 97, 67
1, 145259, Note_off_c, 0, 96, 61
1, 145303, Note_on_c, 0, 96, 56
1, 145327, Note_off_c, 0, 97, 65
1, 145343, Note_off_c, 0, 96, 64
1, 145370, Note_on_c, 0, 66, 59
1, 145390, Note_on_c, 0, 60, 51
1, 145391, Note_on_c, 0, 63, 36
1, 145396, Note_off_c, 0, 66, 65
1, 145405, Note_on_c, 0, 81, 72
1, 145412, Note_off_c, 0, 60, 59
1, 145424, Note_off_c, 0, 63, 45
1, 145433, Note_off_c, 0, 81, 65
1, 145470, Note_on_c, 0, 93, 71
1, 145516, Note_on_c, 0, 95, 73
1, 145532, Note_off_c, 0, 93, 61
1, 145580, Control_c, 0, 64, 85
1, 145585, Note_on_c, 0, 93, 58
1, 145592, Note_off_c, 0, 95, 64
1, 145595, Control_c, 0, 64, 65
1, 145609, Control_c, 0, 64, 44
1, 145622, Note_on_c, 0, 48, 56
1, 145624, Control_c, 0, 64, 0
1, 145628, Note_off_c, 0, 93, 66
1, 145639, Control_c, 0, 64, 9
1, 145654, Control_c, 0, 64, 47
1, 145664, Note_off_c, 0, 48, 61
1, 145668, Control_c, 0, 64, 67
1, 145669, Note_on_c, 0, 80, 73
1, 145683, Control_c, 0, 64, 82
1, 145695, Note_off_c, 0, 80, 61
1, 145698, Control_c, 0, 64, 112
1, 145713, Control_c, 0, 64, 127
1, 145725, Note_on_c, 0, 92, 66
1, 145764, Note_on_c, 0, 93, 67
1, 145777, Note_off_c, 0, 92, 55
1, 145820, Note_off_c, 0, 93, 58
1, 145847, Note_on_c, 0, 92, 61
1, 145881, Note_off_c, 0, 92, 59
1, 145882, Note_on_c, 0, 66, 53
1, 145899, Note_on_c, 0, 80, 70
1, 145900, Note_on_c, 0, 57, 44
1, 145915, Note_off_c, 0, 66, 64
1, 145920, Note_on_c, 0, 63, 27
1, 145932, Note_off_c, 0, 57, 61
1, 145938, Note_off_c, 0, 80, 59
1, 145958, Note_off_c, 0, 63, 42
1, 145967, Note_on_c, 0, 92, 76
1, 146022, Note_on_c, 0, 93, 72
1, 146034, Note_off_c, 0, 92, 60
1, 146085, Note_off_c, 0, 93, 63
1, 146092, Note_on_c, 0, 92, 51
1, 146134, Note_off_c, 0, 92, 64
1, 146159, Note_on_c, 0, 66, 49
1, 146169, Note_on_c, 0, 60, 50
1, 146172, Note_on_c, 0, 78, 75
1, 146179, Note_on_c, 0, 63, 36
1, 146193, Note_off_c, 0, 66, 63
1, 146207, Note_off_c, 0, 78, 60
1, 146215, Note_off_c, 0, 60, 62
1, 146215, Note_off_c, 0, 63, 58
1, 146257, Note_on_c, 0, 90, 62
1, 146284, Note_off_c, 0, 90, 67
1, 146294, Note_on_c, 0, 92, 66
1, 146365, Note_on_c, 0, 90, 69
1, 146367, Note_off_c, 0, 92, 54
1, 146409, Note_off_c, 0, 90, 62
1, 146418, Control_c, 0, 64, 120
1, 146432, Control_c, 0, 64, 82
1, 146447, Control_c, 0, 64, 64
1, 146457, Note_on_c, 0, 49, 53
1, 146461, Note_on_c, 0, 76, 64
1, 146462, Control_c, 0, 64, 44
1, 146476, Control_c, 0, 64, 13
1, 146479, Note_off_c, 0, 76, 65
1, 146491, Control_c, 0, 64, 14
1, 146506, Control_c, 0, 64, 43
1, 146521, Control_c, 0, 64, 62
1, 146536, Note_on_c, 0, 88, 65
1, 146536, Control_c, 0, 64, 73
1, 146551, Control_c, 0, 64, 87
1, 146565, Control_c, 0, 64, 111
1, 146580, Note_off_c, 0, 49, 52
1, 146580, Control_c, 0, 64, 127
1, 146611, Note_on_c, 0, 90, 69
1, 146611, Note_off_c, 0, 88, 65
1, 146681, Note_on_c, 0, 88, 63
1, 146687, Note_off_c, 0, 90, 60
1, 146708, Note_off_c, 0, 88, 68
1, 146788, Note_on_c, 0, 69, 51
1, 146791, Note_on_c, 0, 64, 53
1, 146798, Note_on_c, 0, 73, 65
1, 146823, Note_off_c, 0, 73, 67
1, 146831, Note_off_c, 0, 69, 59
1, 146837, Note_off_c, 0, 64, 59
1, 146864, Note_on_c, 0, 85, 62
1, 146913, Note_on_c, 0, 87, 67
1, 146913, Note_off_c, 0, 85, 61
1, 146982, Note_on_c, 0, 85, 59
1, 146989, Note_off_c, 0, 87, 59
1, 147014, Note_off_c, 0, 85, 63
1, 147035, Note_on_c, 0, 75, 69
1, 147040, Note_on_c, 0, 60, 56
1, 147048, Note_on_c, 0, 69, 51
1, 147068, Note_off_c, 0, 75, 60
1, 147092, Control_c, 0, 64, 80
1, 147103, Note_on_c, 0, 87, 66
1, 147107, Control_c, 0, 64, 70
1, 147136, Control_c, 0, 64, 78
1, 147144, Note_off_c, 0, 69, 35
1, 147151, Control_c, 0, 64, 98
1, 147155, Note_off_c, 0, 87, 59
1, 147159, Note_on_c, 0, 88, 70
1, 147160, Note_off_c, 0, 60, 48
1, 147166, Control_c, 0, 64, 127
1, 147222, Note_off_c, 0, 88, 61
1, 147240, Control_c, 0, 64, 79
1, 147255, Control_c, 0, 64, 59
1, 147270, Control_c, 0, 64, 44
1, 147283, Note_on_c, 0, 76, 71
1, 147285, Control_c, 0, 64, 52
1, 147294, Note_on_c, 0, 69, 44
1, 147298, Note_on_c, 0, 61, 53
1, 147299, Control_c, 0, 64, 63
1, 147306, Note_off_c, 0, 76, 66
1, 147314, Control_c, 0, 64, 71
1, 147329, Control_c, 0, 64, 83
1, 147344, Control_c, 0, 64, 103
1, 147345, Note_on_c, 0, 88, 70
1, 147359, Control_c, 0, 64, 127
1, 147425, Note_off_c, 0, 69, 28
1, 147426, Note_off_c, 0, 88, 64
1, 147427, Note_on_c, 0, 90, 69
1, 147449, Note_off_c, 0, 61, 44
1, 147492, Note_on_c, 0, 88, 66
1, 147503, Note_off_c, 0, 90, 59
1, 147506, Control_c, 0, 64, 96
1, 147521, Control_c, 0, 64, 73
1, 147525, Note_off_c, 0, 88, 63
1, 147536, Control_c, 0, 64, 58
1, 147551, Control_c, 0, 64, 41
1, 147566, Note_on_c, 0, 66, 53
1, 147566, Control_c, 0, 64, 41
1, 147578, Note_on_c, 0, 75, 73
1, 147581, Control_c, 0, 64, 56
1, 147588, Note_on_c, 0, 69, 32
1, 147596, Control_c, 0, 64, 69
1, 147617, Note_off_c, 0, 75, 61
1, 147618, Control_c, 0, 64, 89
1, 147619, Note_off_c, 0, 66, 55
1, 147632, Control_c, 0, 64, 127
1, 147664, Note_on_c, 0, 87, 64
1, 147684, Note_off_c, 0, 69, 37
1, 147700, Note_on_c, 0, 88, 70
1, 147705, Note_off_c, 0, 87, 58
1, 147754, Note_off_c, 0, 88, 51
1, 147780, Note_on_c, 0, 87, 69
1, 147797, Control_c, 0, 64, 96
1, 147805, Note_off_c, 0, 87, 69
1, 147811, Control_c, 0, 64, 67
1, 147826, Control_c, 0, 64, 45
1, 147836, Note_on_c, 0, 69, 40
1, 147841, Control_c, 0, 64, 0
1, 147847, Note_on_c, 0, 64, 49
1, 147863, Note_on_c, 0, 73, 70
1, 147870, Control_c, 0, 64, 27
1, 147885, Control_c, 0, 64, 55
1, 147890, Note_off_c, 0, 64, 62
1, 147896, Note_off_c, 0, 73, 63
1, 147900, Control_c, 0, 64, 69
1, 147915, Control_c, 0, 64, 87
1, 147924, Note_off_c, 0, 69, 53
1, 147929, Control_c, 0, 64, 127
1, 147930, Note_on_c, 0, 85, 69
1, 147989, Note_off_c, 0, 85, 62
1, 147992, Note_on_c, 0, 87, 67
1, 148062, Note_on_c, 0, 63, 42
1, 148068, Note_on_c, 0, 85, 56
1, 148074, Note_off_c, 0, 87, 59
1, 148102, Note_on_c, 0, 68, 43
1, 148152, Control_c, 0, 64, 95
1, 148156, Note_on_c, 0, 71, 50
1, 148167, Control_c, 0, 64, 68
1, 148168, Note_on_c, 0, 75, 61
1, 148182, Control_c, 0, 64, 44
1, 148190, Note_off_c, 0, 85, 35
1, 148197, Control_c, 0, 64, 0
1, 148234, Note_off_c, 0, 75, 53
1, 148235, Note_on_c, 0, 87, 58
1, 148241, Control_c, 0, 64, 28
1, 148255, Control_c, 0, 64, 56
1, 148270, Control_c, 0, 64, 69
1, 148285, Control_c, 0, 64, 81
1, 148300, Control_c, 0, 64, 101
1, 148311, Note_off_c, 0, 87, 58
1, 148315, Control_c, 0, 64, 127
1, 148345, Note_off_c, 0, 71, 57
1, 148357, Note_on_c, 0, 75, 63
1, 148380, Note_off_c, 0, 63, 45
1, 148387, Note_off_c, 0, 68, 33
1, 148388, Note_off_c, 0, 75, 64
1, 148433, Note_on_c, 0, 76, 59
1, 148502, Note_off_c, 0, 76, 61
1, 148506, Note_on_c, 0, 77, 69
1, 148561, Note_off_c, 0, 77, 61
1, 148569, Note_on_c, 0, 78, 62
1, 148604, Note_off_c, 0, 78, 62
1, 148639, Note_on_c, 0, 79, 62
1, 148660, Note_off_c, 0, 79, 64
1, 148693, Note_on_c, 0, 80, 61
1, 148719, Note_off_c, 0, 80, 65
1, 148752, Note_on_c, 0, 81, 68
1, 148769, Note_off_c, 0, 81, 66
1, 148802, Note_on_c, 0, 82, 67
1, 148828, Note_off_c, 0, 82, 67
1, 148858, Note_on_c, 0, 83, 75
1, 148901, Note_off_c, 0, 83, 61
1, 148902, Note_on_c, 0, 84, 76
1, 148960, Note_off_c, 0, 84, 65
1, 148966, Note_on_c, 0, 85, 66
1, 148985, Note_off_c, 0, 85, 64
1, 149023, Note_on_c, 0, 86, 64
1, 149040, Note_off_c, 0, 86, 65
1, 149068, Note_on_c, 0, 87, 72
1, 149092, Note_off_c, 0, 87, 68
1, 149127, Note_on_c, 0, 88, 81
1, 149175, Note_off_c, 0, 88, 63
1, 149179, Note_on_c, 0, 89, 82
1, 149220, Control_c, 0, 64, 85
1, 149232, Note_on_c, 0, 90, 70
1, 149235, Note_off_c, 0, 89, 63
1, 149235, Control_c, 0, 64, 65
1, 149250, Control_c, 0, 64, 54
1, 149255, Note_off_c, 0, 90, 69
1, 149264, Control_c, 0, 64, 60
1, 149278, Control_c, 0, 64, 68
1, 149288, Note_on_c, 0, 91, 75
1, 149293, Control_c, 0, 64, 79
1, 149308, Control_c, 0, 64, 103
1, 149310, Note_off_c, 0, 91, 70
1, 149323, Control_c, 0, 64, 127
1, 149348, Note_on_c, 0, 92, 63
1, 149364, Note_off_c, 0, 92, 64
1, 149399, Note_on_c, 0, 93, 74
1, 149420, Note_off_c, 0, 93, 71
1, 149444, Note_on_c, 0, 94, 76
1, 149463, Note_off_c, 0, 94, 71
1, 149503, Note_on_c, 0, 95, 78
1, 149534, Note_off_c, 0, 95, 61
1, 149540, Note_on_c, 0, 96, 76
1, 149592, Note_on_c, 0, 51, 63
1, 149593, Note_on_c, 0, 97, 72
1, 149596, Note_off_c, 0, 96, 65
1, 149614, Note_off_c, 0, 97, 70
1, 149650, Note_on_c, 0, 98, 70
1, 149667, Note_off_c, 0, 98, 63
1, 149679, Note_on_c, 0, 61, 58
1, 149684, Note_off_c, 0, 51, 62
1, 149691, Note_on_c, 0, 99, 76
1, 149694, Control_c, 0, 64, 98
1, 149709, Control_c, 0, 64, 72
1, 149724, Control_c, 0, 64, 60
1, 149728, Note_on_c, 0, 100, 70
1, 149739, Control_c, 0, 64, 59
1, 149754, Control_c, 0, 64, 69
1, 149769, Control_c, 0, 64, 85
1, 149779, Note_on_c, 0, 67, 78
1, 149783, Control_c, 0, 64, 127
1, 149784, Note_off_c, 0, 99, 39
1, 149787, Note_on_c, 0, 102, 79
1, 149802, Note_off_c, 0, 61, 64
1, 149803, Note_off_c, 0, 67, 68
1, 149833, Note_off_c, 0, 100, 0
1, 149854, Note_on_c, 0, 100, 33
1, 149887, Note_off_c, 0, 102, 62
1, 149895, Note_on_c, 0, 97, 71
1, 149925, Note_off_c, 0, 100, 58
1, 149940, Note_on_c, 0, 94, 64
1, 149969, Note_off_c, 0, 97, 63
1, 149978, Note_off_c, 0, 94, 60
1, 149994, Note_on_c, 0, 91, 64
1, 150022, Note_off_c, 0, 91, 67
1, 150073, Note_on_c, 0, 86, 69
1, 150097, Note_off_c, 0, 86, 67
1, 150123, Note_on_c, 0, 87, 73
1, 150167, Note_off_c, 0, 87, 61
1, 150178, Note_on_c, 0, 90, 70
1, 150240, Note_on_c, 0, 88, 64
1, 150254, Note_off_c, 0, 90, 58
1, 150265, Control_c, 0, 64, 108
1, 150273, Note_on_c, 0, 85, 75
1, 150280, Control_c, 0, 64, 89
1, 150295, Control_c, 0, 64, 78
1, 150307, Note_off_c, 0, 88, 64
1, 150310, Control_c, 0, 64, 71
1, 150317, Note_on_c, 0, 82, 72
1, 150324, Control_c, 0, 64, 64
1, 150339, Control_c, 0, 64, 56
1, 150351, Note_off_c, 0, 85, 62
1, 150354, Control_c, 0, 64, 49
1, 150365, Note_off_c, 0, 82, 60
1, 150369, Control_c, 0, 64, 40
1, 150376, Note_on_c, 0, 79, 71
1, 150383, Control_c, 0, 64, 32
1, 150398, Control_c, 0, 64, 26
1, 150403, Note_off_c, 0, 79, 66
1, 150413, Control_c, 0, 64, 23
1, 150428, Control_c, 0, 64, 22
1, 150441, Note_on_c, 0, 76, 76
1, 150443, Control_c, 0, 64, 23
1, 150457, Control_c, 0, 64, 24
1, 150487, Control_c, 0, 64, 23
1, 150496, Note_on_c, 0, 73, 71
1, 150520, Note_off_c, 0, 76, 57
1, 150532, Control_c, 0, 64, 23
1, 150538, Note_on_c, 0, 70, 65
1, 150547, Control_c, 0, 64, 24
1, 150574, Note_off_c, 0, 73, 62
1, 150591, Control_c, 0, 64, 23
1, 150606, Note_off_c, 0, 70, 61
1, 150609, Note_on_c, 0, 67, 64
1, 150613, Control_c, 0, 64, 23
1, 150641, Note_off_c, 0, 67, 66
1, 150672, Control_c, 0, 64, 21
1, 150685, Note_on_c, 0, 64, 68
1, 150687, Control_c, 0, 64, 20
1, 150727, Note_off_c, 0, 64, 58
1, 150749, Note_on_c, 0, 61, 59
1, 150776, Control_c, 0, 64, 20
1, 150785, Note_on_c, 0, 58, 65
1, 150792, Note_off_c, 0, 61, 58
1, 150817, Note_off_c, 0, 58, 66
1, 150836, Control_c, 0, 64, 19
1, 150845, Note_on_c, 0, 44, 50
1, 150850, Control_c, 0, 64, 18
1, 150865, Control_c, 0, 64, 15
1, 150880, Control_c, 0, 64, 12
1, 150893, Note_on_c, 0, 51, 49
1, 150895, Control_c, 0, 64, 9
1, 150903, Note_off_c, 0, 44, 53
1, 150910, Control_c, 0, 64, 8
1, 150924, Control_c, 0, 64, 0
1, 150934, Note_on_c, 0, 56, 60
1, 150938, Note_off_c, 0, 51, 64
1, 150961, Note_off_c, 0, 56, 64
1, 150991, Note_on_c, 0, 59, 59
1, 151044, Note_on_c, 0, 63, 58
1, 151053, Note_off_c, 0, 59, 61
1, 151080, Note_off_c, 0, 63, 66
1, 151081, Note_on_c, 0, 68, 60
1, 151088, Control_c, 0, 64, 8
1, 151103, Control_c, 0, 64, 10
1, 151107, Note_off_c, 0, 68, 68
1, 151118, Control_c, 0, 64, 13
1, 151133, Control_c, 0, 64, 16
1, 151147, Control_c, 0, 64, 19
1, 151162, Control_c, 0, 64, 20
1, 151172, Note_on_c, 0, 71, 59
1, 151192, Control_c, 0, 64, 21
1, 151229, Note_off_c, 0, 71, 62
1, 151235, Note_on_c, 0, 75, 57
1, 151251, Control_c, 0, 64, 20
1, 151299, Note_on_c, 0, 80, 60
1, 151310, Control_c, 0, 64, 21
1, 151320, Note_off_c, 0, 75, 54
1, 151325, Control_c, 0, 64, 21
1, 151331, Note_off_c, 0, 80, 64
1, 151362, Control_c, 0, 64, 22
1, 151392, Control_c, 0, 64, 22
1, 151400, Note_on_c, 0, 83, 41
1, 151456, Note_off_c, 0, 83, 42
1, 151468, Note_on_c, 0, 87, 58
1, 151523, Note_on_c, 0, 95, 49
1, 151592, Note_off_c, 0, 87, 45
1, 151614, Note_on_c, 0, 92, 54
1, 151635, Note_off_c, 0, 95, 60
1, 151644, Control_c, 0, 64, 22
1, 151650, Note_off_c, 0, 92, 61
1, 151659, Control_c, 0, 64, 21
1, 151688, Control_c, 0, 64, 20
1, 151703, Control_c, 0, 64, 20
1, 151718, Control_c, 0, 64, 19
1, 151732, Control_c, 0, 64, 18
1, 151747, Control_c, 0, 64, 17
1, 151941, Control_c, 0, 64, 17
1, 151955, Control_c, 0, 64, 16
1, 151970, Control_c, 0, 64, 13
1, 151985, Control_c, 0, 64, 0
1, 152070, Note_on_c, 0, 83, 74
1, 152070, Note_on_c, 0, 71, 70
1, 152073, Note_on_c, 0, 68, 67
1, 152101, Note_off_c, 0, 83, 65
1, 152103, Note_off_c, 0, 71, 68
1, 152112, Note_off_c, 0, 68, 64
1, 152222, Note_on_c, 0, 71, 61
1, 152223, Note_on_c, 0, 83, 65
1, 152224, Note_on_c, 0, 70, 69
1, 152234, Note_on_c, 0, 67, 60
1, 152250, Note_off_c, 0, 71, 66
1, 152251, Note_off_c, 0, 70, 66
1, 152251, Note_off_c, 0, 83, 68
1, 152257, Note_off_c, 0, 67, 64
1, 152333, Note_on_c, 0, 71, 70
1, 152335, Note_on_c, 0, 83, 74
1, 152338, Note_on_c, 0, 69, 62
1, 152344, Note_on_c, 0, 66, 62
1, 152358, Note_off_c, 0, 83, 67
1, 152360, Note_off_c, 0, 71, 67
1, 152365, Note_off_c, 0, 69, 65
1, 152371, Note_off_c, 0, 66, 66
1, 152436, Note_on_c, 0, 83, 79
1, 152440, Note_on_c, 0, 71, 79
1, 152454, Note_on_c, 0, 68, 55
1, 152465, Note_on_c, 0, 65, 38
1, 152466, Note_off_c, 0, 71, 65
1, 152468, Note_off_c, 0, 83, 62
1, 152486, Note_off_c, 0, 68, 67
1, 152495, Note_off_c, 0, 65, 34
1, 152520, Note_on_c, 0, 64, 78
1, 152531, Note_on_c, 0, 83, 81
1, 152541, Note_on_c, 0, 71, 77
1, 152553, Note_off_c, 0, 64, 65
1, 152562, Note_off_c, 0, 71, 70
1, 152565, Note_off_c, 0, 83, 62
1, 152644, Note_on_c, 0, 83, 84
1, 152646, Note_on_c, 0, 47, 84
1, 152668, Note_off_c, 0, 83, 67
1, 152669, Note_off_c, 0, 47, 67
1, 152678, Note_on_c, 0, 72, 33
1, 152679, Note_off_c, 0, 72, 127
1, 152766, Note_on_c, 0, 66, 63
1, 152773, Note_on_c, 0, 63, 51
1, 152784, Note_off_c, 0, 66, 63
1, 152797, Note_off_c, 0, 63, 59
1, 152863, Note_on_c, 0, 71, 66
1, 152866, Note_on_c, 0, 78, 70
1, 152874, Note_on_c, 0, 59, 42
1, 152885, Note_on_c, 0, 54, 50
1, 152898, Note_off_c, 0, 71, 64
1, 152902, Note_off_c, 0, 59, 57
1, 152907, Note_off_c, 0, 78, 57
1, 152916, Note_off_c, 0, 54, 58
1, 152962, Note_on_c, 0, 66, 71
1, 152967, Note_on_c, 0, 63, 33
1, 152984, Note_off_c, 0, 66, 69
1, 152997, Note_off_c, 0, 63, 43
1, 153056, Note_on_c, 0, 47, 64
1, 153066, Note_on_c, 0, 83, 78
1, 153086, Note_off_c, 0, 83, 71
1, 153089, Note_off_c, 0, 47, 64
1, 153167, Note_on_c, 0, 66, 75
1, 153169, Note_on_c, 0, 63, 53
1, 153182, Note_off_c, 0, 66, 69
1, 153191, Note_off_c, 0, 63, 58
1, 153200, Control_c, 0, 64, 16
1, 153215, Control_c, 0, 64, 23
1, 153230, Control_c, 0, 64, 26
1, 153254, Note_on_c, 0, 42, 81
1, 153259, Note_on_c, 0, 85, 89
1, 153274, Control_c, 0, 64, 26
1, 153280, Note_off_c, 0, 85, 68
1, 153283, Note_on_c, 0, 44, 53
1, 153286, Note_off_c, 0, 42, 66
1, 153289, Control_c, 0, 64, 25
1, 153304, Control_c, 0, 64, 25
1, 153313, Note_off_c, 0, 44, 36
1, 153349, Control_c, 0, 64, 24
1, 153364, Control_c, 0, 64, 24
1, 153375, Note_on_c, 0, 66, 64
1, 153378, Note_on_c, 0, 64, 61
1, 153393, Note_off_c, 0, 66, 64
1, 153393, Control_c, 0, 64, 24
1, 153402, Note_off_c, 0, 64, 64
1, 153429, Poly_aftertouch_c, 0, 73, 0
1, 153438, Control_c, 0, 64, 24
1, 153453, Control_c, 0, 64, 23
1, 153460, Note_on_c, 0, 78, 75
1, 153465, Poly_aftertouch_c, 0, 73, 127
1, 153484, Note_on_c, 0, 58, 39
1, 153487, Note_on_c, 0, 54, 25
1, 153495, Poly_aftertouch_c, 0, 73, 0
1, 153496, Note_off_c, 0, 78, 59
1, 153515, Note_off_c, 0, 58, 47
1, 153523, Note_off_c, 0, 54, 32
1, 153539, Note_on_c, 0, 64, 59
1, 153542, Control_c, 0, 64, 23
1, 153550, Note_on_c, 0, 66, 69
1, 153557, Control_c, 0, 64, 24
1, 153560, Note_off_c, 0, 64, 60
1, 153574, Note_off_c, 0, 66, 67
1, 153648, Note_on_c, 0, 42, 81
1, 153660, Note_on_c, 0, 85, 84
1, 153672, Note_off_c, 0, 42, 68
1, 153677, Note_off_c, 0, 85, 70
1, 153689, Note_on_c, 0, 44, 16
1, 153690, Note_off_c, 0, 44, 127
1, 153712, Control_c, 0, 64, 23
1, 153727, Control_c, 0, 64, 23
1, 153765, Note_on_c, 0, 66, 74
1, 153781, Note_off_c, 0, 66, 69
1, 153791, Note_on_c, 0, 64, 35
1, 153792, Note_off_c, 0, 64, 127
1, 153801, Control_c, 0, 64, 24
1, 153846, Control_c, 0, 64, 23
1, 153859, Note_on_c, 0, 47, 80
1, 153861, Control_c, 0, 64, 23
1, 153864, Note_on_c, 0, 87, 88
1, 153875, Control_c, 0, 64, 22
1, 153882, Note_off_c, 0, 87, 67
1, 153890, Note_off_c, 0, 47, 66
1, 153905, Control_c, 0, 64, 21
1, 153934, Control_c, 0, 64, 22
1, 153949, Control_c, 0, 64, 22
1, 153973, Note_on_c, 0, 66, 81
1, 153983, Note_on_c, 0, 63, 60
1, 153993, Note_off_c, 0, 66, 67
1, 153993, Control_c, 0, 64, 23
1, 154008, Control_c, 0, 64, 24
1, 154010, Note_off_c, 0, 63, 64
1, 154023, Control_c, 0, 64, 25
1, 154053, Control_c, 0, 64, 24
1, 154068, Control_c, 0, 64, 24
1, 154070, Note_on_c, 0, 75, 55
1, 154077, Poly_aftertouch_c, 0, 51, 127
1, 154082, Control_c, 0, 64, 23
1, 154085, Note_on_c, 0, 54, 54
1, 154097, Control_c, 0, 64, 23
1, 154103, Note_off_c, 0, 75, 66
1, 154106, Poly_aftertouch_c, 0, 51, 0
1, 154112, Control_c, 0, 64, 22
1, 154115, Note_off_c, 0, 54, 65
1, 154172, Control_c, 0, 64, 22
1, 154187, Note_on_c, 0, 83, 75
1, 154187, Control_c, 0, 64, 21
1, 154193, Note_on_c, 0, 47, 50
1, 154202, Control_c, 0, 64, 21
1, 154213, Note_off_c, 0, 83, 65
1, 154216, Control_c, 0, 64, 18
1, 154219, Note_off_c, 0, 47, 57
1, 154231, Control_c, 0, 64, 13
1, 154246, Control_c, 0, 64, 12
1, 154291, Control_c, 0, 64, 13
1, 154320, Note_on_c, 0, 42, 59
1, 154320, Note_on_c, 0, 87, 76
1, 154350, Note_off_c, 0, 87, 68
1, 154354, Note_off_c, 0, 42, 60
1, 154478, Note_on_c, 0, 95, 74
1, 154481, Note_on_c, 0, 35, 65
1, 154499, Note_off_c, 0, 95, 69
1, 154511, Note_off_c, 0, 35, 63
1, 154610, Control_c, 0, 64, 13
1, 154624, Control_c, 0, 64, 14
1, 154639, Control_c, 0, 64, 15
1, 154785, Note_on_c, 0, 87, 67
1, 154789, Note_on_c, 0, 75, 62
1, 154790, Note_on_c, 0, 71, 68
1, 154802, Control_c, 0, 64, 16
1, 154809, Note_off_c, 0, 75, 65
1, 154813, Note_off_c, 0, 87, 66
1, 154817, Control_c, 0, 64, 17
1, 154821, Note_off_c, 0, 71, 64
1, 154831, Control_c, 0, 64, 17
1, 154846, Control_c, 0, 64, 18
1, 154916, Note_on_c, 0, 75, 62
1, 154925, Note_on_c, 0, 87, 74
1, 154935, Control_c, 0, 64, 18
1, 154937, Note_on_c, 0, 74, 52
1, 154940, Note_off_c, 0, 75, 68
1, 154948, Note_off_c, 0, 87, 67
1, 154961, Note_off_c, 0, 74, 61
1, 154965, Control_c, 0, 64, 19
1, 154995, Control_c, 0, 64, 19
1, 154997, Poly_aftertouch_c, 0, 71, 0
1, 155029, Note_on_c, 0, 75, 72
1, 155033, Note_on_c, 0, 87, 73
1, 155041, Note_on_c, 0, 73, 48
1, 155043, Note_on_c, 0, 70, 62
1, 155051, Note_off_c, 0, 75, 69
1, 155055, Note_off_c, 0, 87, 69
1, 155064, Note_off_c, 0, 73, 59
1, 155073, Note_off_c, 0, 70, 65
1, 155129, Note_on_c, 0, 75, 77
1, 155140, Note_on_c, 0, 87, 76
1, 155140, Note_on_c, 0, 72, 60
1, 155151, Control_c, 0, 64, 20
1, 155152, Note_off_c, 0, 75, 68
1, 155159, Note_off_c, 0, 87, 71
1, 155167, Note_on_c, 0, 69, 38
1, 155185, Note_off_c, 0, 72, 54
1, 155201, Note_off_c, 0, 69, 46
1, 155222, Note_on_c, 0, 87, 88
1, 155225, Note_on_c, 0, 75, 72
1, 155230, Note_on_c, 0, 68, 60
1, 155243, Note_off_c, 0, 87, 65
1, 155248, Note_off_c, 0, 75, 69
1, 155255, Control_c, 0, 64, 19
1, 155259, Note_off_c, 0, 68, 67
1, 155307, Note_on_c, 0, 87, 91
1, 155314, Control_c, 0, 64, 20
1, 155324, Note_on_c, 0, 51, 83
1, 155329, Control_c, 0, 64, 20
1, 155344, Control_c, 0, 64, 20
1, 155348, Note_off_c, 0, 51, 69
1, 155352, Note_off_c, 0, 87, 62
1, 155359, Control_c, 0, 64, 19
1, 155373, Control_c, 0, 64, 18
1, 155388, Control_c, 0, 64, 17
1, 155416, Note_on_c, 0, 70, 80
1, 155431, Note_on_c, 0, 66, 62
1, 155438, Note_off_c, 0, 70, 68
1, 155450, Note_off_c, 0, 66, 66
1, 155462, Control_c, 0, 64, 17
1, 155477, Control_c, 0, 64, 16
1, 155492, Control_c, 0, 64, 15
1, 155507, Note_on_c, 0, 82, 76
1, 155510, Note_on_c, 0, 75, 69
1, 155517, Note_on_c, 0, 63, 56
1, 155524, Note_on_c, 0, 58, 51
1, 155531, Note_off_c, 0, 75, 70
1, 155539, Note_off_c, 0, 63, 61
1, 155548, Note_off_c, 0, 82, 59
1, 155549, Note_off_c, 0, 58, 60
1, 155566, Control_c, 0, 64, 15
1, 155581, Control_c, 0, 64, 15
1, 155590, Note_on_c, 0, 70, 80
1, 155591, Note_on_c, 0, 66, 55
1, 155596, Control_c, 0, 64, 16
1, 155611, Control_c, 0, 64, 17
1, 155614, Note_off_c, 0, 70, 67
1, 155621, Note_off_c, 0, 66, 67
1, 155655, Control_c, 0, 64, 18
1, 155670, Control_c, 0, 64, 19
1, 155691, Note_on_c, 0, 51, 81
1, 155695, Note_on_c, 0, 87, 84
1, 155714, Note_off_c, 0, 51, 67
1, 155714, Control_c, 0, 64, 18
1, 155715, Note_off_c, 0, 87, 72
1, 155790, Control_c, 0, 64, 18
1, 155791, Note_on_c, 0, 70, 79
1, 155817, Note_off_c, 0, 70, 66
1, 155819, Control_c, 0, 64, 19
1, 155823, Note_on_c, 0, 66, 35
1, 155827, Note_off_c, 0, 66, 48
1, 155841, Control_c, 0, 64, 20
1, 155856, Control_c, 0, 64, 20
1, 155885, Control_c, 0, 64, 20
1, 155896, Note_on_c, 0, 46, 82
1, 155897, Note_on_c, 0, 89, 91
1, 155900, Control_c, 0, 64, 19
1, 155915, Note_off_c, 0, 89, 70
1, 155915, Control_c, 0, 64, 18
1, 155917, Note_off_c, 0, 46, 68
1, 155930, Control_c, 0, 64, 18
1, 155945, Note_on_c, 0, 91, 13
1, 155946, Note_off_c, 0, 91, 127
1, 155990, Control_c, 0, 64, 18
1, 156004, Control_c, 0, 64, 19
1, 156011, Note_on_c, 0, 70, 71
1, 156013, Note_on_c, 0, 68, 63
1, 156019, Control_c, 0, 64, 22
1, 156030, Note_off_c, 0, 70, 65
1, 156034, Control_c, 0, 64, 27
1, 156041, Note_off_c, 0, 68, 67
1, 156049, Control_c, 0, 64, 31
1, 156052, Note_on_c, 0, 80, 19
1, 156078, Control_c, 0, 64, 30
1, 156088, Note_on_c, 0, 82, 60
1, 156093, Control_c, 0, 64, 28
1, 156097, Note_off_c, 0, 80, 28
1, 156097, Note_on_c, 0, 77, 74
1, 156102, Note_on_c, 0, 62, 57
1, 156108, Control_c, 0, 64, 27
1, 156122, Control_c, 0, 64, 26
1, 156127, Note_off_c, 0, 62, 65
1, 156139, Note_off_c, 0, 77, 61
1, 156143, Note_on_c, 0, 58, 29
1, 156145, Note_off_c, 0, 82, 62
1, 156167, Control_c, 0, 64, 26
1, 156180, Note_on_c, 0, 70, 77
1, 156185, Note_off_c, 0, 58, 38
1, 156186, Note_on_c, 0, 68, 60
1, 156196, Control_c, 0, 64, 25
1, 156204, Note_off_c, 0, 68, 64
1, 156207, Note_off_c, 0, 70, 66
1, 156226, Control_c, 0, 64, 26
1, 156240, Control_c, 0, 64, 26
1, 156270, Control_c, 0, 64, 25
1, 156285, Control_c, 0, 64, 24
1, 156287, Note_on_c, 0, 46, 80
1, 156291, Note_on_c, 0, 89, 82
1, 156300, Control_c, 0, 64, 23
1, 156309, Note_off_c, 0, 46, 64
1, 156310, Note_off_c, 0, 89, 73
1, 156315, Control_c, 0, 64, 22
1, 156374, Control_c, 0, 64, 23
1, 156389, Control_c, 0, 64, 24
1, 156392, Note_on_c, 0, 70, 76
1, 156404, Control_c, 0, 64, 26
1, 156418, Note_off_c, 0, 70, 67
1, 156419, Control_c, 0, 64, 30
1, 156434, Control_c, 0, 64, 33
1, 156448, Control_c, 0, 64, 34
1, 156463, Control_c, 0, 64, 33
1, 156478, Control_c, 0, 64, 30
1, 156493, Note_on_c, 0, 90, 86
1, 156493, Control_c, 0, 64, 28
1, 156504, Note_on_c, 0, 54, 68
1, 156510, Note_off_c, 0, 90, 73
1, 156515, Note_on_c, 0, 51, 58
1, 156523, Note_off_c, 0, 54, 63
1, 156540, Note_off_c, 0, 51, 55
1, 156552, Control_c, 0, 64, 28
1, 156568, Control_c, 0, 64, 27
1, 156604, Note_on_c, 0, 70, 80
1, 156605, Control_c, 0, 64, 28
1, 156619, Control_c, 0, 64, 29
1, 156625, Note_on_c, 0, 66, 57
1, 156625, Note_off_c, 0, 70, 68
1, 156634, Control_c, 0, 64, 29
1, 156663, Control_c, 0, 64, 29
1, 156668, Note_off_c, 0, 66, 58
1, 156678, Control_c, 0, 64, 28
1, 156693, Control_c, 0, 64, 28
1, 156702, Note_on_c, 0, 78, 78
1, 156708, Control_c, 0, 64, 26
1, 156717, Note_on_c, 0, 58, 50
1, 156723, Control_c, 0, 64, 24
1, 156728, Note_off_c, 0, 78, 66
1, 156738, Control_c, 0, 64, 23
1, 156741, Note_off_c, 0, 58, 60
1, 156768, Control_c, 0, 64, 24
1, 156783, Control_c, 0, 64, 25
1, 156803, Note_on_c, 0, 82, 83
1, 156815, Note_on_c, 0, 54, 58
1, 156827, Control_c, 0, 64, 24
1, 156829, Note_off_c, 0, 82, 66
1, 156838, Note_off_c, 0, 54, 64
1, 156886, Control_c, 0, 64, 24
1, 156901, Control_c, 0, 64, 22
1, 156916, Note_on_c, 0, 87, 84
1, 156916, Control_c, 0, 64, 18
1, 156920, Note_on_c, 0, 46, 67
1, 156931, Control_c, 0, 64, 13
1, 156945, Control_c, 0, 64, 12
1, 156947, Note_off_c, 0, 46, 67
1, 156947, Note_off_c, 0, 87, 64
1, 157019, Control_c, 0, 64, 13
1, 157034, Control_c, 0, 64, 16
1, 157035, Note_on_c, 0, 39, 83
1, 157045, Note_on_c, 0, 99, 93
1, 157049, Control_c, 0, 64, 21
1, 157057, Note_off_c, 0, 99, 72
1, 157060, Note_off_c, 0, 39, 67
1, 157063, Control_c, 0, 64, 24
1, 157078, Control_c, 0, 64, 25
1, 157093, Control_c, 0, 64, 24
1, 157108, Control_c, 0, 64, 23
1, 157123, Control_c, 0, 64, 21
1, 157137, Control_c, 0, 64, 19
1, 157152, Control_c, 0, 64, 16
1, 157167, Control_c, 0, 64, 15
1, 157182, Control_c, 0, 64, 14
1, 157242, Control_c, 0, 64, 15
1, 157271, Control_c, 0, 64, 16
1, 157286, Control_c, 0, 64, 16
1, 157301, Control_c, 0, 64, 17
1, 157318, Note_on_c, 0, 75, 72
1, 157324, Note_on_c, 0, 90, 75
1, 157330, Note_on_c, 0, 78, 64
1, 157331, Control_c, 0, 64, 16
1, 157352, Control_c, 0, 64, 16
1, 157354, Note_off_c, 0, 90, 67
1, 157355, Note_off_c, 0, 75, 61
1, 157359, Note_off_c, 0, 78, 64
1, 157442, Note_on_c, 0, 78, 68
1, 157446, Note_on_c, 0, 90, 73
1, 157447, Note_on_c, 0, 74, 68
1, 157456, Note_on_c, 0, 77, 62
1, 157466, Note_off_c, 0, 78, 68
1, 157473, Note_off_c, 0, 90, 63
1, 157479, Note_off_c, 0, 74, 59
1, 157486, Note_off_c, 0, 77, 66
1, 157546, Note_on_c, 0, 90, 79
1, 157546, Note_on_c, 0, 78, 75
1, 157552, Note_on_c, 0, 73, 69
1, 157552, Note_on_c, 0, 76, 62
1, 157569, Note_off_c, 0, 78, 68
1, 157570, Note_off_c, 0, 90, 64
1, 157572, Note_off_c, 0, 76, 63
1, 157576, Note_off_c, 0, 73, 69
1, 157620, Control_c, 0, 64, 16
1, 157634, Control_c, 0, 64, 17
1, 157638, Note_on_c, 0, 78, 79
1, 157641, Note_on_c, 0, 90, 86
1, 157647, Note_on_c, 0, 75, 73
1, 157649, Control_c, 0, 64, 17
1, 157662, Note_off_c, 0, 78, 65
1, 157664, Control_c, 0, 64, 18
1, 157665, Note_on_c, 0, 72, 38
1, 157668, Note_off_c, 0, 75, 70
1, 157675, Note_off_c, 0, 90, 61
1, 157679, Control_c, 0, 64, 18
1, 157693, Note_off_c, 0, 72, 46
1, 157708, Control_c, 0, 64, 18
1, 157720, Note_on_c, 0, 71, 71
1, 157732, Note_on_c, 0, 90, 87
1, 157734, Note_on_c, 0, 78, 76
1, 157744, Note_off_c, 0, 71, 69
1, 157755, Note_off_c, 0, 78, 70
1, 157763, Note_off_c, 0, 90, 57
1, 157821, Note_on_c, 0, 90, 96
1, 157830, Note_on_c, 0, 54, 78
1, 157841, Control_c, 0, 64, 19
1, 157856, Note_off_c, 0, 54, 64
1, 157862, Note_off_c, 0, 90, 63
1, 157871, Control_c, 0, 64, 18
1, 157886, Control_c, 0, 64, 17
1, 157901, Control_c, 0, 64, 16
1, 157929, Note_on_c, 0, 73, 75
1, 157930, Control_c, 0, 64, 16
1, 157945, Note_on_c, 0, 70, 51
1, 157945, Control_c, 0, 64, 17
1, 157951, Note_off_c, 0, 73, 70
1, 157968, Note_off_c, 0, 70, 57
1, 158017, Note_on_c, 0, 61, 61
1, 158021, Note_on_c, 0, 78, 70
1, 158021, Note_on_c, 0, 85, 73
1, 158038, Note_on_c, 0, 66, 39
1, 158044, Note_off_c, 0, 78, 68
1, 158047, Note_off_c, 0, 61, 66
1, 158049, Control_c, 0, 64, 16
1, 158059, Note_off_c, 0, 85, 59
1, 158064, Control_c, 0, 64, 15
1, 158067, Note_off_c, 0, 66, 46
1, 158079, Control_c, 0, 64, 15
1, 158109, Note_on_c, 0, 73, 79
1, 158115, Control_c, 0, 64, 15
1, 158117, Note_on_c, 0, 70, 52
1, 158129, Note_off_c, 0, 73, 71
1, 158130, Control_c, 0, 64, 16
1, 158143, Note_off_c, 0, 70, 63
1, 158160, Control_c, 0, 64, 16
1, 158176, Control_c, 0, 64, 18
1, 158190, Control_c, 0, 64, 20
1, 158205, Control_c, 0, 64, 20
1, 158208, Note_on_c, 0, 54, 85
1, 158215, Note_on_c, 0, 90, 85
1, 158232, Note_off_c, 0, 54, 68
1, 158234, Note_off_c, 0, 90, 71
1, 158235, Control_c, 0, 64, 20
1, 158250, Control_c, 0, 64, 19
1, 158264, Control_c, 0, 64, 20
1, 158279, Control_c, 0, 64, 20
1, 158308, Note_on_c, 0, 73, 79
1, 158330, Note_off_c, 0, 73, 69
1, 158353, Note_on_c, 0, 70, 11
1, 158354, Control_c, 0, 64, 22
1, 158360, Note_off_c, 0, 70, 41
1, 158369, Control_c, 0, 64, 25
1, 158383, Control_c, 0, 64, 27
1, 158405, Note_on_c, 0, 92, 92
1, 158408, Note_on_c, 0, 49, 84
1, 158413, Control_c, 0, 64, 27
1, 158425, Note_off_c, 0, 92, 62
1, 158428, Control_c, 0, 64, 26
1, 158431, Note_off_c, 0, 49, 68
1, 158442, Control_c, 0, 64, 26
1, 158457, Control_c, 0, 64, 26
1, 158511, Note_on_c, 0, 73, 81
1, 158521, Note_on_c, 0, 71, 71
1, 158535, Note_off_c, 0, 73, 67
1, 158546, Control_c, 0, 64, 27
1, 158547, Note_off_c, 0, 71, 67
1, 158561, Control_c, 0, 64, 27
1, 158590, Control_c, 0, 64, 26
1, 158604, Note_on_c, 0, 85, 74
1, 158605, Note_on_c, 0, 80, 65
1, 158605, Control_c, 0, 64, 25
1, 158622, Note_on_c, 0, 65, 46
1, 158622, Note_on_c, 0, 61, 57
1, 158629, Note_off_c, 0, 80, 68
1, 158646, Note_off_c, 0, 65, 55
1, 158651, Note_off_c, 0, 61, 64
1, 158656, Note_off_c, 0, 85, 62
1, 158690, Note_on_c, 0, 73, 81
1, 158694, Note_on_c, 0, 71, 69
1, 158694, Control_c, 0, 64, 26
1, 158708, Note_off_c, 0, 73, 71
1, 158719, Note_off_c, 0, 71, 69
1, 158768, Control_c, 0, 64, 26
1, 158792, Note_on_c, 0, 92, 88
1, 158801, Note_on_c, 0, 49, 82
1, 158813, Note_off_c, 0, 92, 64
1, 158825, Note_off_c, 0, 49, 68
1, 158894, Control_c, 0, 64, 26
1, 158904, Note_on_c, 0, 73, 78
1, 158923, Note_off_c, 0, 73, 72
1, 158926, Note_on_c, 0, 71, 56
1, 158948, Note_off_c, 0, 71, 60
1, 158969, Control_c, 0, 64, 26
1, 158984, Control_c, 0, 64, 27
1, 159027, Note_on_c, 0, 94, 87
1, 159029, Note_on_c, 0, 54, 78
1, 159045, Note_on_c, 0, 85, 63
1, 159057, Note_off_c, 0, 54, 68
1, 159059, Note_off_c, 0, 94, 52
1, 159066, Note_off_c, 0, 85, 64
1, 159072, Control_c, 0, 64, 27
1, 159102, Control_c, 0, 64, 27
1, 159117, Control_c, 0, 64, 26
1, 159128, Note_on_c, 0, 95, 81
1, 159132, Control_c, 0, 64, 26
1, 159161, Control_c, 0, 64, 26
1, 159182, Note_off_c, 0, 95, 63
1, 159206, Control_c, 0, 64, 27
1, 159221, Control_c, 0, 64, 29
1, 159227, Note_on_c, 0, 97, 88
1, 159236, Control_c, 0, 64, 31
1, 159246, Note_on_c, 0, 61, 69
1, 159251, Control_c, 0, 64, 32
1, 159265, Control_c, 0, 64, 33
1, 159269, Note_on_c, 0, 94, 38
1, 159279, Note_off_c, 0, 97, 65
1, 159280, Control_c, 0, 64, 32
1, 159281, Note_off_c, 0, 61, 59
1, 159297, Note_off_c, 0, 94, 49
1, 159325, Control_c, 0, 64, 33
1, 159341, Note_on_c, 0, 94, 65
1, 159346, Note_on_c, 0, 85, 65
1, 159346, Note_on_c, 0, 70, 55
1, 159363, Note_off_c, 0, 85, 64
1, 159364, Note_on_c, 0, 96, 39
1, 159368, Note_off_c, 0, 70, 61
1, 159372, Note_off_c, 0, 94, 63
1, 159384, Control_c, 0, 64, 33
1, 159394, Note_off_c, 0, 96, 34
1, 159399, Control_c, 0, 64, 34
1, 159413, Control_c, 0, 64, 36
1, 159428, Control_c, 0, 64, 38
1, 159444, Note_on_c, 0, 78, 61
1, 159448, Note_on_c, 0, 95, 80
1, 159451, Note_on_c, 0, 85, 60
1, 159463, Note_off_c, 0, 78, 64
1, 159468, Note_off_c, 0, 85, 65
1, 159472, Control_c, 0, 64, 38
1, 159480, Note_off_c, 0, 95, 55
1, 159487, Control_c, 0, 64, 38
1, 159529, Note_on_c, 0, 82, 68
1, 159531, Control_c, 0, 64, 38
1, 159537, Note_on_c, 0, 94, 71
1, 159544, Note_on_c, 0, 85, 60
1, 159545, Note_off_c, 0, 82, 67
1, 159546, Control_c, 0, 64, 36
1, 159561, Note_off_c, 0, 85, 64
1, 159561, Control_c, 0, 64, 36
1, 159576, Control_c, 0, 64, 36
1, 159591, Note_off_c, 0, 94, 63
1, 159598, Control_c, 0, 64, 37
1, 159643, Control_c, 0, 64, 36
1, 159652, Note_on_c, 0, 92, 86
1, 159658, Control_c, 0, 64, 36
1, 159664, Note_on_c, 0, 87, 67
1, 159665, Note_on_c, 0, 83, 62
1, 159672, Note_on_c, 0, 47, 72
1, 159672, Control_c, 0, 64, 35
1, 159681, Note_off_c, 0, 83, 65
1, 159691, Note_off_c, 0, 87, 65
1, 159692, Note_on_c, 0, 48, 32
1, 159693, Note_off_c, 0, 48, 127
1, 159695, Note_off_c, 0, 92, 61
1, 159702, Note_off_c, 0, 47, 66
1, 159702, Control_c, 0, 64, 35
1, 159717, Control_c, 0, 64, 34
1, 159761, Control_c, 0, 64, 34
1, 159762, Note_on_c, 0, 94, 79
1, 159769, Note_on_c, 0, 85, 74
1, 159780, Note_on_c, 0, 87, 42
1, 159784, Note_off_c, 0, 85, 68
1, 159792, Note_off_c, 0, 94, 56
1, 159804, Note_off_c, 0, 87, 56
1, 159821, Control_c, 0, 64, 35
1, 159835, Control_c, 0, 64, 36
1, 159850, Control_c, 0, 64, 38
1, 159859, Note_on_c, 0, 59, 72
1, 159865, Note_on_c, 0, 95, 88
1, 159865, Control_c, 0, 64, 39
1, 159873, Note_on_c, 0, 87, 70
1, 159880, Control_c, 0, 64, 38
1, 159889, Note_off_c, 0, 59, 67
1, 159895, Control_c, 0, 64, 35
1, 159897, Note_off_c, 0, 87, 68
1, 159907, Note_off_c, 0, 95, 65
1, 159910, Control_c, 0, 64, 33
1, 159925, Control_c, 0, 64, 34
1, 159939, Control_c, 0, 64, 39
1, 159951, Note_on_c, 0, 95, 79
1, 159954, Control_c, 0, 64, 42
1, 159957, Note_on_c, 0, 68, 67
1, 159983, Note_off_c, 0, 68, 67
1, 159984, Note_on_c, 0, 87, 60
1, 159999, Control_c, 0, 64, 41
1, 160002, Note_off_c, 0, 87, 64
1, 160003, Note_off_c, 0, 95, 65
1, 160046, Note_on_c, 0, 75, 76
1, 160061, Note_on_c, 0, 94, 81
1, 160071, Note_on_c, 0, 87, 65
1, 160074, Note_off_c, 0, 75, 64
1, 160087, Control_c, 0, 64, 41
1, 160094, Note_off_c, 0, 87, 64
1, 160102, Control_c, 0, 64, 40
1, 160103, Note_off_c, 0, 94, 62
1, 160117, Control_c, 0, 64, 40
1, 160132, Control_c, 0, 64, 40
1, 160136, Note_on_c, 0, 80, 71
1, 160157, Note_off_c, 0, 80, 68
1, 160167, Note_on_c, 0, 82, 68
1, 160176, Note_on_c, 0, 92, 60
1, 160183, Note_off_c, 0, 82, 67
1, 160188, Note_on_c, 0, 90, 39
1, 160191, Control_c, 0, 64, 39
1, 160193, Note_off_c, 0, 92, 64
1, 160205, Control_c, 0, 64, 37
1, 160213, Note_off_c, 0, 90, 57
1, 160220, Control_c, 0, 64, 34
1, 160235, Control_c, 0, 64, 34
1, 160250, Control_c, 0, 64, 36
1, 160263, Note_on_c, 0, 82, 79
1, 160265, Control_c, 0, 64, 38
1, 160270, Note_on_c, 0, 90, 89
1, 160275, Note_on_c, 0, 49, 82
1, 160282, Note_off_c, 0, 82, 71
1, 160288, Note_on_c, 0, 85, 50
1, 160294, Control_c, 0, 64, 37
1, 160297, Note_off_c, 0, 90, 54
1, 160299, Note_off_c, 0, 49, 68
1, 160309, Control_c, 0, 64, 35
1, 160311, Note_off_c, 0, 85, 57
1, 160324, Control_c, 0, 64, 34
1, 160347, Control_c, 0, 64, 34
1, 160375, Note_on_c, 0, 92, 74
1, 160376, Control_c, 0, 64, 33
1, 160381, Note_on_c, 0, 83, 71
1, 160390, Note_on_c, 0, 85, 55
1, 160391, Control_c, 0, 64, 31
1, 160399, Note_off_c, 0, 83, 67
1, 160405, Control_c, 0, 64, 28
1, 160407, Note_off_c, 0, 92, 60
1, 160410, Note_off_c, 0, 85, 59
1, 160420, Control_c, 0, 64, 26
1, 160450, Control_c, 0, 64, 25
1, 160465, Control_c, 0, 64, 23
1, 160480, Note_on_c, 0, 94, 80
1, 160480, Control_c, 0, 64, 19
1, 160481, Note_on_c, 0, 58, 69
1, 160482, Note_on_c, 0, 85, 75
1, 160494, Control_c, 0, 64, 12
1, 160502, Note_off_c, 0, 85, 70
1, 160509, Control_c, 0, 64, 0
1, 160510, Note_off_c, 0, 58, 65
1, 160511, Note_off_c, 0, 94, 60
1, 160578, Note_on_c, 0, 85, 76
1, 160580, Note_on_c, 0, 94, 76
1, 160602, Note_off_c, 0, 85, 64
1, 160609, Note_on_c, 0, 66, 48
1, 160613, Note_off_c, 0, 94, 60
1, 160634, Note_off_c, 0, 66, 57
1, 160679, Note_on_c, 0, 92, 75
1, 160680, Note_on_c, 0, 73, 72
1, 160682, Note_on_c, 0, 85, 69
1, 160685, Note_on_c, 0, 83, 72
1, 160708, Note_off_c, 0, 73, 62
1, 160710, Note_off_c, 0, 83, 68
1, 160710, Note_off_c, 0, 85, 61
1, 160716, Note_off_c, 0, 92, 53
1, 160777, Note_on_c, 0, 78, 72
1, 160780, Note_on_c, 0, 90, 77
1, 160785, Note_on_c, 0, 82, 74
1, 160798, Note_on_c, 0, 85, 54
1, 160800, Note_off_c, 0, 78, 68
1, 160808, Note_off_c, 0, 82, 66
1, 160818, Note_off_c, 0, 85, 61
1, 160834, Note_off_c, 0, 90, 62
1, 160866, Control_c, 0, 64, 11
1, 160881, Control_c, 0, 64, 12
1, 160890, Note_on_c, 0, 80, 80
1, 160891, Note_on_c, 0, 85, 70
1, 160896, Note_on_c, 0, 49, 85
1, 160898, Note_on_c, 0, 89, 76
1, 160910, Note_off_c, 0, 80, 68
1, 160914, Note_off_c, 0, 85, 67
1, 160919, Note_off_c, 0, 49, 66
1, 160939, Note_off_c, 0, 89, 63
1, 160970, Control_c, 0, 64, 12
1, 160984, Control_c, 0, 64, 11
1, 160998, Note_on_c, 0, 90, 81
1, 160999, Note_on_c, 0, 82, 73
1, 161001, Note_on_c, 0, 85, 62
1, 161014, Control_c, 0, 64, 10
1, 161022, Note_off_c, 0, 82, 70
1, 161027, Note_off_c, 0, 85, 66
1, 161028, Control_c, 0, 64, 9
1, 161052, Note_off_c, 0, 90, 63
1, 161096, Control_c, 0, 64, 8
1, 161110, Note_on_c, 0, 92, 86
1, 161110, Control_c, 0, 64, 0
1, 161111, Note_on_c, 0, 77, 74
1, 161113, Note_on_c, 0, 85, 75
1, 161123, Note_on_c, 0, 83, 67
1, 161142, Note_off_c, 0, 77, 63
1, 161142, Note_off_c, 0, 85, 62
1, 161149, Note_off_c, 0, 83, 68
1, 161155, Note_off_c, 0, 92, 62
1, 161215, Note_on_c, 0, 92, 81
1, 161221, Note_on_c, 0, 85, 76
1, 161230, Note_on_c, 0, 83, 63
1, 161236, Note_on_c, 0, 68, 64
1, 161248, Note_off_c, 0, 85, 63
1, 161257, Note_off_c, 0, 83, 68
1, 161259, Note_off_c, 0, 92, 62
1, 161263, Note_off_c, 0, 68, 68
1, 161341, Note_on_c, 0, 87, 80
1, 161343, Note_on_c, 0, 78, 78
1, 161351, Note_on_c, 0, 61, 66
1, 161364, Note_off_c, 0, 78, 70
1, 161373, Note_off_c, 0, 87, 57
1, 161379, Note_off_c, 0, 61, 67
1, 161454, Note_on_c, 0, 89, 81
1, 161460, Note_on_c, 0, 71, 64
1, 161463, Note_on_c, 0, 80, 66
1, 161482, Note_off_c, 0, 89, 63
1, 161489, Note_off_c, 0, 71, 68
1, 161489, Note_off_c, 0, 80, 66
1, 161555, Control_c, 0, 64, 29
1, 161570, Control_c, 0, 64, 55
1, 161585, Control_c, 0, 64, 63
1, 161600, Control_c, 0, 64, 67
1, 161615, Note_on_c, 0, 70, 64
1, 161615, Note_on_c, 0, 78, 72
1, 161615, Note_on_c, 0, 90, 76
1, 161615, Control_c, 0, 64, 69
1, 161615, Note_on_c, 0, 85, 75
1, 161629, Note_on_c, 0, 66, 58
1, 161630, Control_c, 0, 64, 73
1, 161640, Note_off_c, 0, 85, 68
1, 161641, Note_off_c, 0, 78, 64
1, 161645, Control_c, 0, 64, 78
1, 161649, Note_off_c, 0, 70, 64
1, 161659, Control_c, 0, 64, 82
1, 161661, Note_off_c, 0, 66, 63
1, 161666, Note_off_c, 0, 90, 63
1, 161674, Control_c, 0, 64, 86
1, 161689, Control_c, 0, 64, 87
1, 161777, Control_c, 0, 64, 86
1, 161792, Control_c, 0, 64, 85
1, 161807, Control_c, 0, 64, 84
1, 161822, Control_c, 0, 64, 83
1, 161844, Control_c, 0, 64, 82
1, 161857, Note_on_c, 0, 54, 76
1, 161859, Control_c, 0, 64, 80
1, 161859, Note_on_c, 0, 42, 75
1, 161874, Control_c, 0, 64, 79
1, 161883, Note_off_c, 0, 54, 67
1, 161889, Control_c, 0, 64, 77
1, 161901, Note_off_c, 0, 42, 61
1, 161904, Control_c, 0, 64, 75
1, 161919, Control_c, 0, 64, 74
1, 161933, Control_c, 0, 64, 73
1, 161948, Control_c, 0, 64, 72
1, 161963, Note_on_c, 0, 54, 75
1, 161963, Control_c, 0, 64, 72
1, 161969, Note_on_c, 0, 42, 76
1, 161990, Note_off_c, 0, 54, 67
1, 161993, Control_c, 0, 64, 71
1, 162000, Note_off_c, 0, 42, 66
1, 162008, Control_c, 0, 64, 69
1, 162023, Control_c, 0, 64, 68
1, 162038, Control_c, 0, 64, 67
1, 162053, Control_c, 0, 64, 66
1, 162058, Note_on_c, 0, 55, 88
1, 162065, Note_on_c, 0, 43, 74
1, 162067, Control_c, 0, 64, 66
1, 162082, Control_c, 0, 64, 65
1, 162088, Note_off_c, 0, 55, 63
1, 162093, Note_off_c, 0, 43, 64
1, 162097, Control_c, 0, 64, 64
1, 162111, Control_c, 0, 64, 63
1, 162126, Control_c, 0, 64, 63
1, 162151, Note_on_c, 0, 55, 74
1, 162154, Note_on_c, 0, 43, 72
1, 162177, Note_on_c, 0, 51, 4
1, 162180, Note_off_c, 0, 55, 66
1, 162185, Note_off_c, 0, 43, 62
1, 162216, Control_c, 0, 64, 62
1, 162231, Control_c, 0, 64, 62
1, 162233, Note_off_c, 0, 51, 25
1, 162245, Note_on_c, 0, 56, 90
1, 162246, Control_c, 0, 64, 60
1, 162261, Control_c, 0, 64, 59
1, 162269, Note_on_c, 0, 44, 51
1, 162273, Note_off_c, 0, 56, 64
1, 162276, Control_c, 0, 64, 59
1, 162321, Note_off_c, 0, 44, 0
1, 162330, Note_on_c, 0, 44, 66
1, 162331, Note_on_c, 0, 56, 88
1, 162335, Control_c, 0, 64, 58
1, 162350, Control_c, 0, 64, 58
1, 162355, Note_off_c, 0, 44, 67
1, 162355, Note_off_c, 0, 56, 68
1, 162364, Control_c, 0, 64, 57
1, 162379, Control_c, 0, 64, 57
1, 162394, Control_c, 0, 64, 56
1, 162416, Note_on_c, 0, 56, 79
1, 162419, Note_on_c, 0, 68, 64
1, 162438, Control_c, 0, 64, 56
1, 162441, Note_off_c, 0, 56, 66
1, 162445, Note_off_c, 0, 68, 68
1, 162453, Control_c, 0, 64, 54
1, 162468, Control_c, 0, 64, 52
1, 162482, Control_c, 0, 64, 49
1, 162491, Note_on_c, 0, 56, 77
1, 162497, Control_c, 0, 64, 47
1, 162502, Note_on_c, 0, 68, 78
1, 162512, Control_c, 0, 64, 46
1, 162515, Note_off_c, 0, 56, 69
1, 162527, Control_c, 0, 64, 44
1, 162542, Control_c, 0, 64, 43
1, 162555, Note_off_c, 0, 68, 61
1, 162572, Control_c, 0, 64, 42
1, 162604, Note_on_c, 0, 80, 78
1, 162607, Note_on_c, 0, 68, 52
1, 162625, Note_off_c, 0, 80, 67
1, 162640, Note_off_c, 0, 68, 59
1, 162668, Control_c, 0, 64, 42
1, 162682, Control_c, 0, 64, 41
1, 162687, Note_on_c, 0, 68, 63
1, 162688, Note_on_c, 0, 80, 77
1, 162712, Note_off_c, 0, 80, 65
1, 162716, Note_off_c, 0, 68, 64
1, 162742, Control_c, 0, 64, 42
1, 162786, Control_c, 0, 64, 42
1, 162788, Note_on_c, 0, 80, 70
1, 162789, Note_on_c, 0, 92, 80
1, 162807, Note_off_c, 0, 92, 71
1, 162812, Note_off_c, 0, 80, 68
1, 162905, Control_c, 0, 64, 42
1, 162977, Note_on_c, 0, 102, 71
1, 162980, Note_on_c, 0, 90, 72
1, 162982, Note_on_c, 0, 75, 60
1, 162991, Note_on_c, 0, 80, 49
1, 163002, Note_off_c, 0, 102, 68
1, 163004, Note_off_c, 0, 90, 69
1, 163011, Note_off_c, 0, 75, 67
1, 163013, Note_off_c, 0, 80, 57
1, 163084, Note_on_c, 0, 80, 59
1, 163092, Note_on_c, 0, 102, 67
1, 163095, Note_on_c, 0, 90, 60
1, 163109, Note_on_c, 0, 75, 43
1, 163112, Note_off_c, 0, 90, 65
1, 163114, Note_off_c, 0, 102, 65
1, 163116, Note_off_c, 0, 80, 62
1, 163133, Note_off_c, 0, 75, 57
1, 163198, Note_on_c, 0, 100, 73
1, 163198, Note_on_c, 0, 73, 59
1, 163198, Note_on_c, 0, 88, 72
1, 163212, Note_on_c, 0, 80, 43
1, 163217, Control_c, 0, 64, 41
1, 163222, Note_off_c, 0, 88, 68
1, 163222, Note_off_c, 0, 100, 64
1, 163228, Note_off_c, 0, 73, 67
1, 163231, Control_c, 0, 64, 41
1, 163237, Note_off_c, 0, 80, 53
1, 163290, Note_on_c, 0, 100, 78
1, 163295, Note_on_c, 0, 88, 68
1, 163297, Note_on_c, 0, 73, 59
1, 163308, Note_off_c, 0, 100, 71
1, 163315, Note_on_c, 0, 80, 45
1, 163319, Note_off_c, 0, 88, 67
1, 163332, Note_off_c, 0, 73, 69
1, 163347, Note_off_c, 0, 80, 55
1, 163397, Note_on_c, 0, 72, 66
1, 163404, Note_on_c, 0, 99, 80
1, 163409, Note_on_c, 0, 87, 71
1, 163424, Note_off_c, 0, 72, 66
1, 163427, Note_off_c, 0, 99, 68
1, 163427, Note_on_c, 0, 80, 27
1, 163433, Note_off_c, 0, 87, 68
1, 163490, Note_off_c, 0, 80, 0
1, 163496, Note_on_c, 0, 99, 77
1, 163498, Note_on_c, 0, 72, 65
1, 163503, Note_on_c, 0, 80, 38
1, 163512, Note_on_c, 0, 87, 54
1, 163517, Note_off_c, 0, 99, 70
1, 163523, Note_off_c, 0, 72, 67
1, 163528, Note_off_c, 0, 80, 53
1, 163532, Note_off_c, 0, 87, 60
1, 163591, Note_on_c, 0, 70, 72
1, 163594, Note_on_c, 0, 80, 67
1, 163600, Note_on_c, 0, 85, 72
1, 163618, Note_off_c, 0, 70, 65
1, 163618, Note_off_c, 0, 80, 68
1, 163619, Note_on_c, 0, 97, 51
1, 163621, Note_off_c, 0, 85, 70
1, 163622, Note_on_c, 0, 94, 41
1, 163640, Note_off_c, 0, 97, 59
1, 163650, Note_off_c, 0, 94, 54
1, 163653, Control_c, 0, 64, 41
1, 163668, Control_c, 0, 64, 42
1, 163689, Note_on_c, 0, 80, 73
1, 163691, Note_on_c, 0, 85, 69
1, 163692, Note_on_c, 0, 97, 83
1, 163692, Note_on_c, 0, 70, 64
1, 163710, Note_off_c, 0, 97, 73
1, 163712, Control_c, 0, 64, 42
1, 163713, Note_off_c, 0, 85, 65
1, 163713, Note_off_c, 0, 80, 63
1, 163722, Note_off_c, 0, 70, 64
1, 163758, Control_c, 0, 64, 43
1, 163776, Note_on_c, 0, 87, 78
1, 163781, Note_on_c, 0, 99, 72
1, 163787, Control_c, 0, 64, 43
1, 163792, Note_on_c, 0, 72, 62
1, 163792, Note_on_c, 0, 80, 65
1, 163796, Note_off_c, 0, 87, 70
1, 163797, Note_on_c, 0, 97, 51
1, 163802, Control_c, 0, 64, 44
1, 163805, Note_off_c, 0, 99, 67
1, 163817, Note_off_c, 0, 80, 64
1, 163821, Note_off_c, 0, 97, 61
1, 163834, Note_off_c, 0, 72, 52
1, 163858, Note_on_c, 0, 99, 85
1, 163861, Control_c, 0, 64, 45
1, 163868, Note_on_c, 0, 87, 71
1, 163876, Control_c, 0, 64, 45
1, 163883, Note_on_c, 0, 80, 67
1, 163887, Note_on_c, 0, 72, 49
1, 163892, Note_off_c, 0, 87, 69
1, 163896, Note_off_c, 0, 99, 65
1, 163910, Note_on_c, 0, 97, 19
1, 163911, Note_off_c, 0, 97, 127
1, 163917, Note_off_c, 0, 80, 58
1, 163928, Note_off_c, 0, 72, 61
1, 163935, Control_c, 0, 64, 46
1, 163950, Control_c, 0, 64, 47
1, 163956, Note_on_c, 0, 100, 97
1, 163959, Note_on_c, 0, 88, 88
1, 163964, Note_on_c, 0, 80, 71
1, 163965, Control_c, 0, 64, 47
1, 163970, Note_on_c, 0, 73, 76
1, 163979, Note_off_c, 0, 88, 68
1, 163979, Control_c, 0, 64, 47
1, 163985, Note_off_c, 0, 80, 68
1, 163989, Note_off_c, 0, 100, 67
1, 163994, Note_off_c, 0, 73, 69
1, 163994, Control_c, 0, 64, 45
1, 164009, Control_c, 0, 64, 43
1, 164024, Control_c, 0, 64, 43
1, 164039, Control_c, 0, 64, 43
1, 164068, Control_c, 0, 64, 44
1, 164150, Control_c, 0, 64, 43
1, 164165, Control_c, 0, 64, 43
1, 164167, Note_on_c, 0, 56, 83
1, 164176, Note_on_c, 0, 44, 70
1, 164180, Control_c, 0, 64, 42
1, 164192, Note_off_c, 0, 56, 66
1, 164194, Control_c, 0, 64, 41
1, 164208, Note_off_c, 0, 44, 62
1, 164209, Control_c, 0, 64, 40
1, 164224, Control_c, 0, 64, 38
1, 164239, Control_c, 0, 64, 37
1, 164253, Control_c, 0, 64, 37
1, 164258, Note_on_c, 0, 56, 77
1, 164267, Note_on_c, 0, 44, 79
1, 164289, Note_off_c, 0, 56, 66
1, 164298, Note_off_c, 0, 44, 64
1, 164351, Note_on_c, 0, 55, 86
1, 164360, Note_on_c, 0, 43, 81
1, 164387, Control_c, 0, 64, 36
1, 164395, Note_off_c, 0, 43, 65
1, 164395, Note_off_c, 0, 55, 61
1, 164441, Note_on_c, 0, 55, 74
1, 164447, Note_on_c, 0, 43, 73
1, 164476, Note_off_c, 0, 43, 64
1, 164481, Note_off_c, 0, 55, 63
1, 164505, Control_c, 0, 64, 37
1, 164520, Control_c, 0, 64, 36
1, 164533, Note_on_c, 0, 54, 90
1, 164543, Note_on_c, 0, 42, 78
1, 164551, Control_c, 0, 64, 36
1, 164566, Control_c, 0, 64, 35
1, 164579, Note_off_c, 0, 42, 60
1, 164581, Note_off_c, 0, 54, 63
1, 164616, Note_on_c, 0, 54, 81
1, 164640, Control_c, 0, 64, 35
1, 164640, Poly_aftertouch_c, 0, 42, 0
1, 164660, Note_off_c, 0, 54, 66
1, 164701, Note_on_c, 0, 54, 80
1, 164709, Note_on_c, 0, 66, 74
1, 164735, Note_off_c, 0, 66, 65
1, 164737, Note_off_c, 0, 54, 64
1, 164773, Control_c, 0, 64, 34
1, 164788, Control_c, 0, 64, 34
1, 164792, Note_on_c, 0, 54, 74
1, 164801, Note_on_c, 0, 66, 78
1, 164819, Note_off_c, 0, 54, 67
1, 164849, Note_on_c, 0, 55, 35
1, 164850, Note_off_c, 0, 55, 127
1, 164860, Note_off_c, 0, 66, 60
1, 164864, Note_on_c, 0, 57, 43
1, 164865, Note_off_c, 0, 57, 127
1, 164884, Control_c, 0, 64, 34
1, 164892, Note_on_c, 0, 78, 86
1, 164895, Note_on_c, 0, 66, 47
1, 164921, Note_off_c, 0, 78, 62
1, 164922, Note_off_c, 0, 66, 56
1, 164928, Control_c, 0, 64, 33
1, 164943, Control_c, 0, 64, 31
1, 164958, Control_c, 0, 64, 28
1, 164973, Control_c, 0, 64, 26
1, 164987, Note_on_c, 0, 66, 77
1, 164989, Control_c, 0, 64, 25
1, 164989, Note_on_c, 0, 78, 81
1, 165014, Note_off_c, 0, 78, 65
1, 165014, Note_off_c, 0, 66, 61
1, 165033, Control_c, 0, 64, 26
1, 165048, Control_c, 0, 64, 28
1, 165063, Control_c, 0, 64, 31
1, 165077, Control_c, 0, 64, 34
1, 165080, Note_on_c, 0, 78, 75
1, 165083, Note_on_c, 0, 90, 80
1, 165092, Control_c, 0, 64, 35
1, 165102, Note_off_c, 0, 78, 70
1, 165102, Note_off_c, 0, 90, 72
1, 165107, Control_c, 0, 64, 36
1, 165122, Control_c, 0, 64, 37
1, 165166, Control_c, 0, 64, 36
1, 165181, Control_c, 0, 64, 36
1, 165196, Control_c, 0, 64, 35
1, 165210, Control_c, 0, 64, 34
1, 165225, Control_c, 0, 64, 33
1, 165240, Control_c, 0, 64, 33
1, 165281, Note_on_c, 0, 88, 67
1, 165284, Note_on_c, 0, 73, 59
1, 165284, Control_c, 0, 64, 33
1, 165287, Note_on_c, 0, 78, 58
1, 165289, Note_on_c, 0, 100, 55
1, 165299, Control_c, 0, 64, 34
1, 165306, Note_off_c, 0, 88, 70
1, 165311, Note_off_c, 0, 100, 57
1, 165312, Note_off_c, 0, 78, 64
1, 165315, Note_off_c, 0, 73, 66
1, 165344, Control_c, 0, 64, 33
1, 165374, Control_c, 0, 64, 34
1, 165388, Note_on_c, 0, 78, 66
1, 165389, Control_c, 0, 64, 34
1, 165396, Note_on_c, 0, 88, 62
1, 165400, Note_on_c, 0, 100, 64
1, 165404, Control_c, 0, 64, 35
1, 165407, Note_on_c, 0, 73, 63
1, 165419, Note_off_c, 0, 78, 62
1, 165419, Control_c, 0, 64, 36
1, 165421, Note_off_c, 0, 88, 69
1, 165426, Note_off_c, 0, 100, 69
1, 165434, Note_off_c, 0, 73, 68
1, 165463, Control_c, 0, 64, 36
1, 165478, Control_c, 0, 64, 37
1, 165493, Control_c, 0, 64, 38
1, 165508, Note_on_c, 0, 87, 79
1, 165509, Note_on_c, 0, 99, 79
1, 165510, Note_on_c, 0, 71, 56
1, 165511, Note_on_c, 0, 78, 61
1, 165532, Note_off_c, 0, 87, 67
1, 165533, Note_off_c, 0, 99, 65
1, 165540, Note_off_c, 0, 78, 65
1, 165547, Note_off_c, 0, 71, 62
1, 165589, Control_c, 0, 64, 38
1, 165604, Control_c, 0, 64, 37
1, 165612, Note_on_c, 0, 99, 84
1, 165615, Note_on_c, 0, 87, 78
1, 165621, Note_on_c, 0, 71, 59
1, 165621, Note_on_c, 0, 78, 60
1, 165635, Note_off_c, 0, 99, 62
1, 165639, Note_off_c, 0, 87, 67
1, 165651, Note_off_c, 0, 71, 67
1, 165651, Note_off_c, 0, 78, 63
1, 165713, Note_on_c, 0, 97, 84
1, 165714, Note_on_c, 0, 70, 71
1, 165714, Note_on_c, 0, 85, 79
1, 165719, Note_on_c, 0, 78, 60
1, 165742, Note_off_c, 0, 85, 64
1, 165743, Note_off_c, 0, 70, 64
1, 165746, Note_off_c, 0, 78, 64
1, 165758, Note_off_c, 0, 97, 65
1, 165797, Control_c, 0, 64, 38
1, 165798, Poly_aftertouch_c, 0, 97, 0
1, 165805, Note_on_c, 0, 97, 71
1, 165809, Note_on_c, 0, 78, 73
1, 165814, Note_on_c, 0, 85, 77
1, 165815, Note_on_c, 0, 70, 71
1, 165836, Note_off_c, 0, 78, 64
1, 165839, Note_off_c, 0, 85, 64
1, 165846, Note_off_c, 0, 70, 63
1, 165851, Note_off_c, 0, 97, 66
1, 165856, Control_c, 0, 64, 37
1, 165871, Control_c, 0, 64, 38
1, 165910, Note_on_c, 0, 78, 76
1, 165919, Note_on_c, 0, 83, 79
1, 165921, Note_on_c, 0, 68, 67
1, 165927, Note_on_c, 0, 95, 76
1, 165930, Control_c, 0, 64, 37
1, 165940, Note_off_c, 0, 78, 62
1, 165945, Control_c, 0, 64, 36
1, 165949, Note_off_c, 0, 68, 66
1, 165955, Note_off_c, 0, 83, 63
1, 165957, Note_on_c, 0, 93, 39
1, 165957, Note_off_c, 0, 95, 64
1, 165959, Control_c, 0, 64, 35
1, 165974, Control_c, 0, 64, 34
1, 165985, Note_off_c, 0, 93, 36
1, 165989, Control_c, 0, 64, 35
1, 166011, Note_on_c, 0, 78, 80
1, 166013, Note_on_c, 0, 83, 72
1, 166014, Note_on_c, 0, 95, 79
1, 166015, Note_on_c, 0, 68, 75
1, 166019, Control_c, 0, 64, 35
1, 166038, Note_off_c, 0, 83, 68
1, 166039, Note_off_c, 0, 95, 66
1, 166041, Note_off_c, 0, 78, 61
1, 166047, Note_off_c, 0, 68, 58
1, 166048, Control_c, 0, 64, 35
1, 166077, Control_c, 0, 64, 35
1, 166092, Control_c, 0, 64, 37
1, 166105, Note_on_c, 0, 78, 80
1, 166107, Control_c, 0, 64, 38
1, 166109, Note_on_c, 0, 97, 93
1, 166110, Note_on_c, 0, 85, 83
1, 166111, Note_on_c, 0, 70, 76
1, 166133, Note_off_c, 0, 85, 66
1, 166139, Note_off_c, 0, 78, 59
1, 166148, Note_off_c, 0, 97, 63
1, 166149, Note_off_c, 0, 70, 57
1, 166168, Control_c, 0, 64, 39
1, 166182, Control_c, 0, 64, 40
1, 166196, Note_on_c, 0, 70, 67
1, 166196, Note_on_c, 0, 97, 83
1, 166197, Control_c, 0, 64, 41
1, 166201, Note_on_c, 0, 78, 74
1, 166202, Note_on_c, 0, 85, 79
1, 166222, Note_off_c, 0, 85, 69
1, 166227, Control_c, 0, 64, 40
1, 166241, Note_off_c, 0, 78, 57
1, 166244, Note_off_c, 0, 97, 65
1, 166251, Note_off_c, 0, 70, 58
1, 166256, Control_c, 0, 64, 41
1, 166286, Control_c, 0, 64, 42
1, 166294, Note_on_c, 0, 78, 76
1, 166294, Note_on_c, 0, 87, 89
1, 166295, Note_on_c, 0, 99, 95
1, 166295, Note_on_c, 0, 71, 79
1, 166301, Control_c, 0, 64, 43
1, 166315, Note_off_c, 0, 78, 69
1, 166317, Note_off_c, 0, 87, 65
1, 166336, Note_off_c, 0, 99, 65
1, 166338, Control_c, 0, 64, 43
1, 166339, Note_off_c, 0, 71, 66
1, 166382, Control_c, 0, 64, 43
1, 166397, Control_c, 0, 64, 44
1, 166471, Control_c, 0, 64, 43
1, 166486, Control_c, 0, 64, 43
1, 166500, Control_c, 0, 64, 42
1, 166504, Note_on_c, 0, 53, 86
1, 166514, Note_on_c, 0, 41, 74
1, 166515, Control_c, 0, 64, 41
1, 166530, Control_c, 0, 64, 40
1, 166532, Note_off_c, 0, 53, 70
1, 166545, Control_c, 0, 64, 38
1, 166547, Note_off_c, 0, 41, 62
1, 166560, Control_c, 0, 64, 37
1, 166590, Control_c, 0, 64, 37
1, 166603, Note_on_c, 0, 53, 77
1, 166612, Note_on_c, 0, 41, 72
1, 166632, Note_off_c, 0, 53, 66
1, 166641, Note_off_c, 0, 41, 67
1, 166649, Control_c, 0, 64, 35
1, 166664, Control_c, 0, 64, 33
1, 166679, Control_c, 0, 64, 31
1, 166694, Control_c, 0, 64, 30
1, 166694, Note_on_c, 0, 52, 81
1, 166701, Note_on_c, 0, 40, 67
1, 166732, Note_off_c, 0, 40, 64
1, 166733, Note_off_c, 0, 52, 59
1, 166753, Control_c, 0, 64, 30
1, 166781, Note_on_c, 0, 52, 74
1, 166805, Note_on_c, 0, 40, 61
1, 166827, Note_off_c, 0, 52, 64
1, 166830, Note_off_c, 0, 40, 56
1, 166883, Note_on_c, 0, 51, 88
1, 166911, Note_on_c, 0, 39, 50
1, 166912, Note_off_c, 0, 51, 64
1, 166944, Note_off_c, 0, 39, 34
1, 166973, Note_on_c, 0, 51, 90
1, 166986, Note_on_c, 0, 39, 61
1, 167000, Note_off_c, 0, 51, 66
1, 167010, Note_off_c, 0, 39, 61
1, 167035, Control_c, 0, 64, 30
1, 167048, Note_on_c, 0, 51, 68
1, 167053, Note_on_c, 0, 63, 66
1, 167086, Note_off_c, 0, 51, 64
1, 167088, Note_off_c, 0, 63, 65
1, 167102, Control_c, 0, 64, 30
1, 167117, Control_c, 0, 64, 29
1, 167141, Note_on_c, 0, 51, 77
1, 167142, Note_on_c, 0, 63, 76
1, 167162, Note_off_c, 0, 51, 68
1, 167176, Control_c, 0, 64, 30
1, 167201, Note_off_c, 0, 63, 60
1, 167236, Note_on_c, 0, 75, 86
1, 167240, Note_on_c, 0, 63, 50
1, 167250, Control_c, 0, 64, 31
1, 167256, Note_off_c, 0, 75, 66
1, 167265, Control_c, 0, 64, 30
1, 167275, Note_off_c, 0, 63, 56
1, 167279, Control_c, 0, 64, 30
1, 167294, Control_c, 0, 64, 29
1, 167309, Control_c, 0, 64, 28
1, 167317, Note_on_c, 0, 75, 87
1, 167328, Note_on_c, 0, 63, 69
1, 167338, Control_c, 0, 64, 28
1, 167353, Control_c, 0, 64, 28
1, 167359, Note_off_c, 0, 75, 65
1, 167376, Note_off_c, 0, 63, 59
1, 167383, Control_c, 0, 64, 29
1, 167398, Control_c, 0, 64, 30
1, 167413, Control_c, 0, 64, 32
1, 167413, Note_on_c, 0, 75, 84
1, 167416, Note_on_c, 0, 87, 89
1, 167427, Control_c, 0, 64, 35
1, 167432, Note_off_c, 0, 75, 69
1, 167435, Note_off_c, 0, 87, 72
1, 167442, Control_c, 0, 64, 37
1, 167454, Note_on_c, 0, 85, 25
1, 167457, Control_c, 0, 64, 38
1, 167477, Note_off_c, 0, 85, 37
1, 167487, Control_c, 0, 64, 37
1, 167502, Control_c, 0, 64, 36
1, 167546, Control_c, 0, 64, 35
1, 167561, Control_c, 0, 64, 33
1, 167576, Control_c, 0, 64, 32
1, 167590, Note_on_c, 0, 67, 66
1, 167591, Control_c, 0, 64, 30
1, 167605, Note_on_c, 0, 87, 78
1, 167605, Control_c, 0, 64, 30
1, 167608, Note_on_c, 0, 75, 74
1, 167609, Note_on_c, 0, 63, 45
1, 167620, Control_c, 0, 64, 30
1, 167625, Note_off_c, 0, 67, 63
1, 167626, Note_off_c, 0, 87, 70
1, 167631, Note_off_c, 0, 75, 69
1, 167635, Control_c, 0, 64, 31
1, 167636, Note_off_c, 0, 63, 57
1, 167693, Note_on_c, 0, 75, 82
1, 167693, Note_on_c, 0, 87, 92
1, 167701, Note_on_c, 0, 67, 69
1, 167709, Control_c, 0, 64, 32
1, 167712, Note_off_c, 0, 75, 68
1, 167715, Note_off_c, 0, 87, 64
1, 167723, Control_c, 0, 64, 33
1, 167726, Note_off_c, 0, 67, 68
1, 167754, Control_c, 0, 64, 33
1, 167769, Control_c, 0, 64, 34
1, 167776, Note_on_c, 0, 87, 95
1, 167778, Note_on_c, 0, 75, 89
1, 167779, Note_on_c, 0, 68, 79
1, 167784, Control_c, 0, 64, 37
1, 167791, Note_on_c, 0, 65, 63
1, 167799, Control_c, 0, 64, 39
1, 167805, Note_off_c, 0, 68, 65
1, 167809, Note_off_c, 0, 75, 60
1, 167821, Control_c, 0, 64, 40
1, 167827, Note_off_c, 0, 65, 66
1, 167827, Note_on_c, 0, 85, 27
1, 167828, Note_off_c, 0, 85, 127
1, 167828, Note_off_c, 0, 87, 65
1, 167851, Control_c, 0, 64, 39
1, 167866, Control_c, 0, 64, 40
1, 167876, Note_on_c, 0, 75, 87
1, 167876, Note_on_c, 0, 87, 87
1, 167880, Control_c, 0, 64, 40
1, 167885, Note_on_c, 0, 68, 76
1, 167891, Note_on_c, 0, 65, 71
1, 167895, Control_c, 0, 64, 42
1, 167921, Note_off_c, 0, 65, 66
1, 167923, Note_off_c, 0, 75, 63
1, 167928, Note_off_c, 0, 87, 64
1, 167940, Note_off_c, 0, 68, 60
1, 167940, Control_c, 0, 64, 41
1, 167986, Note_on_c, 0, 88, 94
1, 167988, Note_on_c, 0, 76, 96
1, 167995, Note_on_c, 0, 66, 75
1, 167998, Control_c, 0, 64, 40
1, 168002, Note_on_c, 0, 69, 72
1, 168013, Control_c, 0, 64, 36
1, 168022, Note_off_c, 0, 66, 65
1, 168024, Note_off_c, 0, 88, 67
1, 168025, Note_off_c, 0, 69, 67
1, 168026, Note_off_c, 0, 76, 66
1, 168027, Control_c, 0, 64, 30
1, 168042, Control_c, 0, 64, 25
1, 168057, Control_c, 0, 64, 24
1, 168071, Control_c, 0, 64, 26
1, 168086, Control_c, 0, 64, 30
1, 168089, Note_on_c, 0, 75, 97
1, 168096, Note_on_c, 0, 67, 55
1, 168098, Note_on_c, 0, 87, 80
1, 168100, Note_on_c, 0, 66, 73
1, 168101, Control_c, 0, 64, 31
1, 168116, Note_on_c, 0, 85, 51
1, 168117, Note_off_c, 0, 75, 62
1, 168117, Note_off_c, 0, 87, 71
1, 168124, Note_off_c, 0, 66, 67
1, 168125, Note_off_c, 0, 67, 66
1, 168138, Note_off_c, 0, 85, 41
1, 168161, Control_c, 0, 64, 32
1, 168176, Control_c, 0, 64, 33
1, 168177, Note_on_c, 0, 73, 94
1, 168184, Note_on_c, 0, 85, 93
1, 168188, Note_on_c, 0, 67, 84
1, 168191, Note_on_c, 0, 64, 75
1, 168206, Control_c, 0, 64, 32
1, 168214, Note_off_c, 0, 85, 61
1, 168222, Note_off_c, 0, 73, 64
1, 168223, Note_off_c, 0, 64, 62
1, 168226, Note_off_c, 0, 67, 62
1, 168235, Control_c, 0, 64, 33
1, 168250, Control_c, 0, 64, 34
1, 168265, Control_c, 0, 64, 35
1, 168271, Note_on_c, 0, 71, 95
1, 168272, Note_on_c, 0, 83, 86
1, 168292, Note_on_c, 0, 64, 70
1, 168294, Control_c, 0, 64, 32
1, 168298, Note_on_c, 0, 67, 58
1, 168303, Note_on_c, 0, 82, 48
1, 168304, Note_off_c, 0, 82, 127
1, 168304, Note_on_c, 0, 72, 35
1, 168305, Note_off_c, 0, 72, 127
1, 168305, Note_off_c, 0, 71, 68
1, 168309, Control_c, 0, 64, 28
1, 168312, Note_off_c, 0, 83, 66
1, 168318, Note_off_c, 0, 64, 67
1, 168319, Note_off_c, 0, 67, 61
1, 168324, Control_c, 0, 64, 27
1, 168339, Control_c, 0, 64, 29
1, 168353, Control_c, 0, 64, 32
1, 168365, Note_on_c, 0, 70, 96
1, 168368, Control_c, 0, 64, 34
1, 168374, Note_on_c, 0, 82, 78
1, 168380, Note_on_c, 0, 65, 78
1, 168383, Note_on_c, 0, 62, 73
1, 168383, Control_c, 0, 64, 35
1, 168385, Note_on_c, 0, 80, 66
1, 168393, Note_off_c, 0, 82, 71
1, 168394, Note_off_c, 0, 70, 57
1, 168402, Note_on_c, 0, 68, 47
1, 168402, Note_off_c, 0, 80, 65
1, 168408, Note_off_c, 0, 65, 64
1, 168412, Note_off_c, 0, 62, 65
1, 168412, Control_c, 0, 64, 35
1, 168431, Note_off_c, 0, 68, 38
1, 168457, Control_c, 0, 64, 35
1, 168459, Note_on_c, 0, 68, 85
1, 168459, Note_on_c, 0, 80, 83
1, 168468, Note_on_c, 0, 65, 83
1, 168471, Control_c, 0, 64, 36
1, 168475, Note_on_c, 0, 62, 84
1, 168477, Note_on_c, 0, 78, 66
1, 168493, Note_off_c, 0, 68, 63
1, 168495, Note_off_c, 0, 65, 67
1, 168495, Note_off_c, 0, 78, 41
1, 168504, Note_off_c, 0, 62, 64
1, 168505, Note_off_c, 0, 80, 63
1, 168531, Control_c, 0, 64, 36
1, 168551, Note_on_c, 0, 63, 85
1, 168556, Note_on_c, 0, 67, 91
1, 168558, Note_on_c, 0, 79, 95
1, 168584, Control_c, 0, 64, 35
1, 168587, Note_off_c, 0, 63, 67
1, 168599, Note_off_c, 0, 67, 63
1, 168599, Control_c, 0, 64, 34
1, 168601, Note_off_c, 0, 79, 64
1, 168629, Control_c, 0, 64, 34
1, 168644, Control_c, 0, 64, 35
1, 168658, Control_c, 0, 64, 38
1, 168673, Control_c, 0, 64, 45
1, 168688, Control_c, 0, 64, 52
1, 168702, Control_c, 0, 64, 59
1, 168717, Control_c, 0, 64, 63
1, 168733, Control_c, 0, 64, 65
1, 168740, Note_on_c, 0, 46, 90
1, 168748, Control_c, 0, 64, 68
1, 168749, Note_on_c, 0, 34, 72
1, 168763, Control_c, 0, 64, 70
1, 168765, Note_off_c, 0, 46, 69
1, 168777, Control_c, 0, 64, 72
1, 168785, Note_off_c, 0, 34, 64
1, 168792, Control_c, 0, 64, 72
1, 168830, Note_on_c, 0, 46, 86
1, 168837, Control_c, 0, 64, 72
1, 168843, Note_on_c, 0, 34, 80
1, 168856, Note_off_c, 0, 46, 69
1, 168866, Control_c, 0, 64, 71
1, 168868, Note_off_c, 0, 34, 67
1, 168881, Control_c, 0, 64, 70
1, 168895, Control_c, 0, 64, 69
1, 168935, Note_on_c, 0, 50, 94
1, 168940, Control_c, 0, 64, 68
1, 168942, Note_on_c, 0, 38, 83
1, 168955, Control_c, 0, 64, 66
1, 168969, Control_c, 0, 64, 63
1, 168972, Note_off_c, 0, 50, 59
1, 168976, Note_off_c, 0, 38, 64
1, 168984, Control_c, 0, 64, 56
1, 168999, Control_c, 0, 64, 43
1, 169014, Control_c, 0, 64, 14
1, 169026, Note_on_c, 0, 50, 82
1, 169028, Control_c, 0, 64, 0
1, 169032, Note_on_c, 0, 38, 75
1, 169058, Poly_aftertouch_c, 0, 44, 127
1, 169060, Note_off_c, 0, 50, 65
1, 169061, Note_off_c, 0, 38, 67
1, 169073, Control_c, 0, 64, 39
1, 169079, Poly_aftertouch_c, 0, 44, 0
1, 169088, Control_c, 0, 64, 55
1, 169103, Control_c, 0, 64, 61
1, 169116, Note_on_c, 0, 51, 91
1, 169118, Control_c, 0, 64, 64
1, 169132, Note_on_c, 0, 39, 74
1, 169161, Note_off_c, 0, 51, 63
1, 169168, Note_off_c, 0, 39, 64
1, 169177, Control_c, 0, 64, 64
1, 169204, Note_on_c, 0, 51, 78
1, 169219, Note_on_c, 0, 39, 78
1, 169233, Note_on_c, 0, 49, 46
1, 169240, Note_off_c, 0, 39, 66
1, 169242, Note_off_c, 0, 51, 62
1, 169263, Note_off_c, 0, 49, 39
1, 169282, Note_on_c, 0, 51, 70
1, 169291, Note_on_c, 0, 63, 63
1, 169322, Note_off_c, 0, 51, 66
1, 169326, Note_off_c, 0, 63, 66
1, 169332, Control_c, 0, 64, 65
1, 169348, Control_c, 0, 64, 66
1, 169363, Control_c, 0, 64, 67
1, 169378, Control_c, 0, 64, 67
1, 169381, Note_on_c, 0, 51, 80
1, 169384, Note_on_c, 0, 63, 79
1, 169401, Note_off_c, 0, 51, 69
1, 169407, Control_c, 0, 64, 65
1, 169422, Control_c, 0, 64, 57
1, 169428, Note_on_c, 0, 52, 36
1, 169432, Note_on_c, 0, 53, 59
1, 169437, Control_c, 0, 64, 44
1, 169441, Note_off_c, 0, 63, 62
1, 169452, Control_c, 0, 64, 32
1, 169455, Note_off_c, 0, 53, 38
1, 169458, Note_off_c, 0, 52, 35
1, 169466, Control_c, 0, 64, 31
1, 169468, Note_on_c, 0, 75, 91
1, 169472, Note_on_c, 0, 63, 64
1, 169481, Control_c, 0, 64, 40
1, 169487, Note_off_c, 0, 75, 66
1, 169495, Note_off_c, 0, 63, 70
1, 169496, Control_c, 0, 64, 52
1, 169511, Control_c, 0, 64, 60
1, 169526, Control_c, 0, 64, 62
1, 169541, Control_c, 0, 64, 60
1, 169547, Note_on_c, 0, 75, 84
1, 169556, Control_c, 0, 64, 49
1, 169559, Note_on_c, 0, 63, 76
1, 169571, Control_c, 0, 64, 0
1, 169583, Note_off_c, 0, 63, 65
1, 169595, Note_off_c, 0, 75, 63
1, 169630, Control_c, 0, 64, 44
1, 169642, Note_on_c, 0, 75, 84
1, 169644, Control_c, 0, 64, 60
1, 169648, Note_on_c, 0, 87, 88
1, 169659, Note_off_c, 0, 75, 72
1, 169659, Control_c, 0, 64, 66
1, 169666, Note_off_c, 0, 87, 73
1, 169674, Control_c, 0, 64, 70
1, 169689, Control_c, 0, 64, 74
1, 169704, Control_c, 0, 64, 77
1, 169718, Control_c, 0, 64, 78
1, 169733, Control_c, 0, 64, 80
1, 169748, Control_c, 0, 64, 83
1, 169763, Control_c, 0, 64, 87
1, 169778, Control_c, 0, 64, 92
1, 169785, Poly_aftertouch_c, 0, 73, 127
1, 169792, Control_c, 0, 64, 95
1, 169807, Control_c, 0, 64, 98
1, 169816, Note_on_c, 0, 75, 69
1, 169820, Poly_aftertouch_c, 0, 73, 0
1, 169821, Note_on_c, 0, 99, 90
1, 169822, Control_c, 0, 64, 108
1, 169825, Note_on_c, 0, 87, 88
1, 169826, Note_on_c, 0, 67, 57
1, 169837, Control_c, 0, 64, 127
1, 169843, Note_off_c, 0, 87, 71
1, 169843, Note_off_c, 0, 99, 64
1, 169852, Note_off_c, 0, 75, 62
1, 169854, Note_off_c, 0, 67, 63
1, 169914, Note_on_c, 0, 99, 94
1, 169918, Note_on_c, 0, 87, 93
1, 169929, Note_on_c, 0, 67, 60
1, 169934, Note_on_c, 0, 75, 71
1, 169937, Note_off_c, 0, 87, 68
1, 169952, Note_off_c, 0, 67, 59
1, 169954, Note_off_c, 0, 99, 66
1, 169956, Note_off_c, 0, 75, 70
1, 170004, Note_on_c, 0, 87, 99
1, 170004, Note_on_c, 0, 99, 89
1, 170013, Note_on_c, 0, 77, 82
1, 170023, Note_on_c, 0, 97, 64
1, 170031, Note_on_c, 0, 68, 64
1, 170039, Note_off_c, 0, 77, 62
1, 170041, Note_off_c, 0, 97, 63
1, 170046, Note_off_c, 0, 87, 64
1, 170051, Note_off_c, 0, 99, 67
1, 170053, Note_off_c, 0, 68, 63
1, 170102, Note_on_c, 0, 99, 84
1, 170103, Note_on_c, 0, 87, 77
1, 170116, Note_on_c, 0, 77, 75
1, 170119, Note_on_c, 0, 68, 71
1, 170122, Note_on_c, 0, 97, 64
1, 170137, Note_off_c, 0, 77, 68
1, 170140, Note_off_c, 0, 97, 65
1, 170148, Note_off_c, 0, 87, 64
1, 170152, Note_off_c, 0, 68, 64
1, 170156, Control_c, 0, 64, 85
1, 170158, Note_off_c, 0, 99, 66
1, 170171, Control_c, 0, 64, 63
1, 170186, Control_c, 0, 64, 37
1, 170201, Control_c, 0, 64, 14
1, 170216, Control_c, 0, 64, 35
1, 170230, Note_on_c, 0, 78, 89
1, 170230, Control_c, 0, 64, 59
1, 170233, Note_on_c, 0, 69, 69
1, 170233, Note_on_c, 0, 88, 91
1, 170233, Note_on_c, 0, 100, 94
1, 170245, Control_c, 0, 64, 70
1, 170260, Note_off_c, 0, 78, 61
1, 170260, Control_c, 0, 64, 82
1, 170261, Note_off_c, 0, 69, 63
1, 170271, Note_off_c, 0, 88, 67
1, 170271, Note_off_c, 0, 100, 66
1, 170274, Control_c, 0, 64, 104
1, 170289, Control_c, 0, 64, 127
1, 170343, Note_on_c, 0, 69, 53
1, 170346, Note_on_c, 0, 78, 76
1, 170346, Note_on_c, 0, 87, 90
1, 170354, Note_on_c, 0, 99, 79
1, 170366, Note_off_c, 0, 78, 68
1, 170367, Note_off_c, 0, 87, 68
1, 170370, Note_off_c, 0, 69, 55
1, 170376, Note_off_c, 0, 99, 70
1, 170433, Note_on_c, 0, 97, 91
1, 170435, Note_on_c, 0, 79, 79
1, 170438, Note_on_c, 0, 70, 70
1, 170438, Note_on_c, 0, 85, 80
1, 170463, Note_off_c, 0, 79, 63
1, 170466, Note_off_c, 0, 85, 61
1, 170472, Note_off_c, 0, 70, 61
1, 170474, Note_off_c, 0, 97, 63
1, 170528, Note_on_c, 0, 95, 89
1, 170529, Note_on_c, 0, 79, 84
1, 170529, Note_on_c, 0, 83, 89
1, 170533, Note_on_c, 0, 70, 73
1, 170558, Note_off_c, 0, 83, 63
1, 170561, Note_off_c, 0, 79, 59
1, 170562, Note_on_c, 0, 93, 44
1, 170563, Note_off_c, 0, 93, 127
1, 170563, Note_off_c, 0, 95, 66
1, 170566, Note_off_c, 0, 70, 64
1, 170617, Note_on_c, 0, 82, 95
1, 170618, Note_on_c, 0, 94, 87
1, 170619, Note_on_c, 0, 77, 86
1, 170632, Note_on_c, 0, 74, 57
1, 170649, Note_on_c, 0, 92, 50
1, 170650, Note_off_c, 0, 92, 127
1, 170651, Note_off_c, 0, 94, 62
1, 170656, Note_off_c, 0, 74, 65
1, 170659, Note_off_c, 0, 82, 63
1, 170666, Note_off_c, 0, 77, 60
1, 170701, Note_on_c, 0, 80, 29
1, 170712, Note_on_c, 0, 92, 93
1, 170716, Note_on_c, 0, 74, 81
1, 170736, Note_off_c, 0, 74, 70
1, 170742, Note_off_c, 0, 92, 59
1, 170744, Note_off_c, 0, 80, 62
1, 170769, Poly_aftertouch_c, 0, 77, 127
1, 170779, Control_c, 0, 64, 110
1, 170792, Poly_aftertouch_c, 0, 77, 0
1, 170793, Control_c, 0, 64, 73
1, 170808, Control_c, 0, 64, 55
1, 170820, Note_on_c, 0, 75, 83
1, 170820, Note_on_c, 0, 79, 90
1, 170826, Note_on_c, 0, 91, 92
1, 170831, Control_c, 0, 64, 41
1, 170846, Control_c, 0, 64, 53
1, 170851, Note_on_c, 0, 70, 50
1, 170853, Note_off_c, 0, 91, 63
1, 170855, Note_off_c, 0, 79, 62
1, 170861, Note_off_c, 0, 75, 61
1, 170861, Control_c, 0, 64, 65
1, 170873, Note_off_c, 0, 70, 59
1, 170875, Control_c, 0, 64, 76
1, 170890, Control_c, 0, 64, 98
1, 170905, Control_c, 0, 64, 127
1, 170915, Note_on_c, 0, 75, 73
1, 170921, Note_on_c, 0, 78, 87
1, 170924, Note_on_c, 0, 90, 85
1, 170941, Note_off_c, 0, 78, 67
1, 170941, Note_off_c, 0, 90, 72
1, 170942, Note_off_c, 0, 75, 65
1, 170959, Note_on_c, 0, 70, 46
1, 170985, Note_off_c, 0, 70, 55
1, 171009, Note_on_c, 0, 77, 88
1, 171011, Note_on_c, 0, 89, 87
1, 171018, Note_on_c, 0, 68, 76
1, 171034, Note_off_c, 0, 89, 64
1, 171034, Note_on_c, 0, 71, 61
1, 171036, Note_off_c, 0, 77, 62
1, 171055, Note_off_c, 0, 71, 65
1, 171064, Note_off_c, 0, 68, 59
1, 171100, Note_on_c, 0, 76, 92
1, 171112, Note_on_c, 0, 68, 52
1, 171119, Note_on_c, 0, 71, 66
1, 171119, Poly_aftertouch_c, 0, 88, 127
1, 171131, Note_off_c, 0, 76, 62
1, 171138, Poly_aftertouch_c, 0, 88, 0
1, 171143, Note_off_c, 0, 71, 65
1, 171164, Note_off_c, 0, 68, 60
1, 171174, Poly_aftertouch_c, 0, 86, 0
1, 171190, Note_on_c, 0, 74, 95
1, 171212, Poly_aftertouch_c, 0, 86, 127
1, 171213, Note_on_c, 0, 69, 68
1, 171215, Note_on_c, 0, 66, 62
1, 171222, Note_off_c, 0, 74, 64
1, 171232, Poly_aftertouch_c, 0, 86, 0
1, 171243, Note_off_c, 0, 66, 66
1, 171262, Note_off_c, 0, 69, 0
1, 171279, Note_on_c, 0, 75, 93
1, 171285, Note_on_c, 0, 87, 90
1, 171299, Poly_aftertouch_c, 0, 69, 127
1, 171309, Note_off_c, 0, 75, 59
1, 171312, Note_on_c, 0, 66, 60
1, 171314, Note_off_c, 0, 87, 62
1, 171319, Poly_aftertouch_c, 0, 69, 0
1, 171337, Note_off_c, 0, 66, 65
1, 171371, Note_on_c, 0, 70, 84
1, 171374, Note_on_c, 0, 76, 97
1, 171378, Note_on_c, 0, 88, 94
1, 171380, Control_c, 0, 64, 110
1, 171392, Note_on_c, 0, 67, 59
1, 171408, Note_off_c, 0, 76, 64
1, 171410, Control_c, 0, 64, 127
1, 171411, Note_off_c, 0, 88, 66
1, 171426, Note_off_c, 0, 70, 62
1, 171438, Note_off_c, 0, 67, 0
1, 171458, Note_on_c, 0, 70, 63
1, 171467, Note_on_c, 0, 87, 61
1, 171470, Note_on_c, 0, 75, 95
1, 171476, Poly_aftertouch_c, 0, 67, 127
1, 171485, Note_off_c, 0, 70, 66
1, 171487, Poly_aftertouch_c, 0, 67, 0
1, 171497, Note_on_c, 0, 85, 47
1, 171505, Note_off_c, 0, 75, 64
1, 171510, Note_off_c, 0, 87, 63
1, 171521, Note_off_c, 0, 85, 42
1, 171557, Note_on_c, 0, 67, 83
1, 171559, Note_on_c, 0, 73, 94
1, 171561, Note_on_c, 0, 64, 80
1, 171565, Note_on_c, 0, 85, 90
1, 171589, Note_off_c, 0, 64, 69
1, 171596, Note_off_c, 0, 85, 61
1, 171599, Note_off_c, 0, 67, 61
1, 171604, Note_off_c, 0, 73, 57
1, 171639, Control_c, 0, 64, 94
1, 171647, Note_on_c, 0, 64, 81
1, 171654, Note_on_c, 0, 71, 95
1, 171654, Note_on_c, 0, 83, 93
1, 171654, Control_c, 0, 64, 65
1, 171663, Note_on_c, 0, 67, 71
1, 171669, Control_c, 0, 64, 47
1, 171684, Note_off_c, 0, 67, 69
1, 171684, Control_c, 0, 64, 46
1, 171691, Note_off_c, 0, 71, 64
1, 171693, Note_off_c, 0, 64, 62
1, 171693, Note_off_c, 0, 83, 66
1, 171698, Control_c, 0, 64, 58
1, 171713, Control_c, 0, 64, 68
1, 171728, Control_c, 0, 64, 82
1, 171743, Control_c, 0, 64, 127
1, 171745, Note_on_c, 0, 70, 99
1, 171745, Note_on_c, 0, 82, 77
1, 171750, Note_on_c, 0, 62, 81
1, 171750, Note_on_c, 0, 65, 83
1, 171776, Note_off_c, 0, 65, 66
1, 171778, Note_off_c, 0, 62, 65
1, 171785, Note_off_c, 0, 70, 63
1, 171786, Note_off_c, 0, 82, 64
1, 171794, Note_on_c, 0, 80, 20
1, 171830, Note_off_c, 0, 80, 0
1, 171830, Note_on_c, 0, 80, 35
1, 171833, Note_on_c, 0, 68, 93
1, 171836, Note_on_c, 0, 62, 85
1, 171842, Note_on_c, 0, 65, 80
1, 171862, Note_off_c, 0, 65, 70
1, 171863, Note_off_c, 0, 62, 65
1, 171868, Note_off_c, 0, 68, 60
1, 171881, Note_off_c, 0, 80, 62
1, 171940, Note_on_c, 0, 67, 97
1, 171942, Note_on_c, 0, 79, 91
1, 171946, Note_on_c, 0, 63, 82
1, 171952, Control_c, 0, 64, 81
1, 171964, Note_on_c, 0, 58, 68
1, 171967, Control_c, 0, 64, 56
1, 171977, Note_off_c, 0, 67, 66
1, 171982, Note_off_c, 0, 63, 59
1, 171982, Control_c, 0, 64, 29
1, 171982, Note_off_c, 0, 79, 64
1, 171988, Note_off_c, 0, 58, 57
1, 171996, Control_c, 0, 64, 31
1, 172011, Control_c, 0, 64, 52
1, 172026, Control_c, 0, 64, 67
1, 172036, Note_on_c, 0, 66, 92
1, 172040, Note_on_c, 0, 63, 77
1, 172040, Control_c, 0, 64, 83
1, 172041, Note_on_c, 0, 78, 93
1, 172055, Control_c, 0, 64, 127
1, 172063, Note_off_c, 0, 63, 67
1, 172065, Note_off_c, 0, 78, 65
1, 172074, Note_on_c, 0, 58, 54
1, 172078, Note_off_c, 0, 66, 60
1, 172102, Note_off_c, 0, 58, 54
1, 172128, Note_on_c, 0, 65, 94
1, 172128, Note_on_c, 0, 77, 96
1, 172135, Note_on_c, 0, 56, 78
1, 172137, Note_on_c, 0, 59, 82
1, 172163, Note_off_c, 0, 65, 67
1, 172164, Note_off_c, 0, 59, 64
1, 172165, Note_off_c, 0, 77, 65
1, 172176, Note_off_c, 0, 56, 59
1, 172218, Note_on_c, 0, 64, 95
1, 172221, Note_on_c, 0, 56, 59
1, 172230, Note_on_c, 0, 59, 73
1, 172234, Poly_aftertouch_c, 0, 76, 127
1, 172256, Note_off_c, 0, 64, 62
1, 172259, Note_off_c, 0, 59, 62
1, 172264, Poly_aftertouch_c, 0, 76, 0
1, 172282, Note_off_c, 0, 56, 62
1, 172322, Note_on_c, 0, 74, 79
1, 172324, Note_on_c, 0, 62, 93
1, 172330, Note_on_c, 0, 54, 77
1, 172330, Note_on_c, 0, 57, 81
1, 172359, Note_off_c, 0, 62, 67
1, 172359, Control_c, 0, 64, 86
1, 172360, Note_off_c, 0, 74, 65
1, 172364, Note_off_c, 0, 54, 64
1, 172373, Control_c, 0, 64, 60
1, 172388, Control_c, 0, 64, 31
1, 172403, Control_c, 0, 64, 21
1, 172415, Note_on_c, 0, 63, 89
1, 172418, Control_c, 0, 64, 44
1, 172421, Note_on_c, 0, 75, 89
1, 172433, Control_c, 0, 64, 63
1, 172436, Note_on_c, 0, 54, 61
1, 172445, Note_off_c, 0, 75, 66
1, 172447, Control_c, 0, 64, 74
1, 172451, Note_off_c, 0, 63, 60
1, 172462, Note_off_c, 0, 57, 64
1, 172462, Control_c, 0, 64, 90
1, 172468, Note_off_c, 0, 54, 66
1, 172477, Control_c, 0, 64, 127
1, 172510, Note_on_c, 0, 58, 86
1, 172515, Note_on_c, 0, 64, 95
1, 172518, Note_on_c, 0, 76, 92
1, 172521, Note_on_c, 0, 55, 66
1, 172554, Note_off_c, 0, 64, 66
1, 172555, Note_off_c, 0, 76, 66
1, 172571, Note_off_c, 0, 58, 62
1, 172572, Note_off_c, 0, 55, 55
1, 172602, Note_on_c, 0, 55, 55
1, 172604, Poly_aftertouch_c, 0, 58, 0
1, 172614, Note_on_c, 0, 58, 52
1, 172614, Note_on_c, 0, 63, 93
1, 172614, Note_on_c, 0, 75, 77
1, 172638, Note_off_c, 0, 55, 65
1, 172639, Note_off_c, 0, 58, 64
1, 172641, Note_on_c, 0, 73, 55
1, 172651, Note_off_c, 0, 63, 62
1, 172655, Note_off_c, 0, 75, 63
1, 172663, Note_off_c, 0, 73, 65
1, 172703, Note_on_c, 0, 55, 82
1, 172704, Note_on_c, 0, 61, 94
1, 172705, Note_on_c, 0, 52, 77
1, 172711, Note_on_c, 0, 73, 93
1, 172733, Note_off_c, 0, 52, 65
1, 172748, Note_off_c, 0, 61, 64
1, 172750, Note_off_c, 0, 55, 62
1, 172751, Note_off_c, 0, 73, 62
1, 172803, Note_on_c, 0, 71, 99
1, 172804, Note_on_c, 0, 59, 96
1, 172805, Note_on_c, 0, 52, 81
1, 172811, Note_on_c, 0, 55, 71
1, 172843, Note_off_c, 0, 55, 64
1, 172843, Note_off_c, 0, 59, 68
1, 172846, Note_off_c, 0, 71, 66
1, 172848, Note_on_c, 0, 70, 29
1, 172849, Note_off_c, 0, 52, 64
1, 172896, Note_off_c, 0, 70, 0
1, 172903, Note_on_c, 0, 58, 96
1, 172907, Note_on_c, 0, 70, 70
1, 172910, Note_on_c, 0, 50, 86
1, 172912, Note_on_c, 0, 53, 84
1, 172933, Note_on_c, 0, 68, 53
1, 172939, Note_off_c, 0, 53, 65
1, 172942, Note_off_c, 0, 70, 61
1, 172945, Note_off_c, 0, 50, 62
1, 172949, Note_off_c, 0, 58, 63
1, 172957, Note_off_c, 0, 68, 62
1, 172997, Note_on_c, 0, 56, 96
1, 173002, Note_on_c, 0, 53, 80
1, 173005, Note_on_c, 0, 68, 88
1, 173006, Note_on_c, 0, 50, 80
1, 173031, Note_off_c, 0, 50, 68
1, 173044, Note_off_c, 0, 56, 63
1, 173046, Note_off_c, 0, 53, 64
1, 173047, Note_off_c, 0, 68, 65
1, 173078, Control_c, 0, 64, 90
1, 173093, Control_c, 0, 64, 64
1, 173108, Control_c, 0, 64, 39
1, 173121, Note_on_c, 0, 55, 93
1, 173123, Control_c, 0, 64, 0
1, 173124, Note_on_c, 0, 51, 83
1, 173124, Note_on_c, 0, 67, 93
1, 173136, Note_on_c, 0, 46, 76
1, 173152, Control_c, 0, 64, 21
1, 173165, Note_off_c, 0, 55, 65
1, 173167, Control_c, 0, 64, 52
1, 173168, Note_off_c, 0, 67, 64
1, 173171, Note_off_c, 0, 46, 58
1, 173171, Note_off_c, 0, 51, 62
1, 173182, Control_c, 0, 64, 66
1, 173196, Control_c, 0, 64, 80
1, 173211, Control_c, 0, 64, 105
1, 173220, Note_on_c, 0, 54, 95
1, 173222, Note_on_c, 0, 51, 71
1, 173226, Control_c, 0, 64, 127
1, 173227, Note_on_c, 0, 66, 81
1, 173243, Note_on_c, 0, 46, 70
1, 173256, Note_off_c, 0, 51, 65
1, 173258, Note_off_c, 0, 66, 63
1, 173267, Note_off_c, 0, 46, 68
1, 173269, Note_off_c, 0, 54, 63
1, 173320, Note_on_c, 0, 65, 88
1, 173321, Note_on_c, 0, 53, 91
1, 173333, Note_on_c, 0, 44, 76
1, 173333, Note_on_c, 0, 47, 83
1, 173365, Note_off_c, 0, 65, 68
1, 173365, Note_off_c, 0, 47, 64
1, 173367, Note_off_c, 0, 53, 63
1, 173390, Note_off_c, 0, 44, 60
1, 173390, Control_c, 0, 64, 112
1, 173405, Control_c, 0, 64, 106
1, 173413, Note_on_c, 0, 64, 58
1, 173419, Note_on_c, 0, 52, 94
1, 173419, Control_c, 0, 64, 105
1, 173423, Note_on_c, 0, 44, 54
1, 173429, Note_on_c, 0, 47, 86
1, 173449, Control_c, 0, 64, 106
1, 173464, Control_c, 0, 64, 109
1, 173465, Note_off_c, 0, 52, 64
1, 173465, Note_off_c, 0, 47, 62
1, 173468, Note_off_c, 0, 64, 62
1, 173479, Control_c, 0, 64, 116
1, 173482, Note_off_c, 0, 44, 62
1, 173494, Control_c, 0, 64, 120
1, 173509, Control_c, 0, 64, 122
1, 173521, Note_on_c, 0, 62, 80
1, 173523, Note_on_c, 0, 50, 95
1, 173523, Control_c, 0, 64, 127
1, 173529, Note_on_c, 0, 45, 92
1, 173538, Note_on_c, 0, 42, 82
1, 173559, Note_on_c, 0, 61, 44
1, 173567, Note_off_c, 0, 50, 65
1, 173568, Note_off_c, 0, 62, 66
1, 173574, Note_off_c, 0, 42, 64
1, 173582, Note_off_c, 0, 45, 64
1, 173585, Note_off_c, 0, 61, 55
1, 173626, Note_on_c, 0, 51, 94
1, 173628, Note_on_c, 0, 45, 78
1, 173631, Note_on_c, 0, 63, 86
1, 173651, Note_on_c, 0, 42, 67
1, 173659, Note_on_c, 0, 61, 53
1, 173670, Note_off_c, 0, 51, 64
1, 173676, Note_off_c, 0, 63, 64
1, 173679, Note_off_c, 0, 61, 64
1, 173681, Note_off_c, 0, 42, 66
1, 173684, Note_off_c, 0, 45, 64
1, 173701, Control_c, 0, 64, 120
1, 173716, Control_c, 0, 64, 83
1, 173731, Control_c, 0, 64, 63
1, 173738, Note_on_c, 0, 52, 95
1, 173740, Note_on_c, 0, 64, 92
1, 173741, Note_on_c, 0, 46, 90
1, 173744, Note_on_c, 0, 43, 78
1, 173745, Control_c, 0, 64, 26
1, 173760, Control_c, 0, 64, 0
1, 173783, Note_off_c, 0, 64, 65
1, 173786, Note_off_c, 0, 52, 65
1, 173800, Note_off_c, 0, 46, 63
1, 173805, Control_c, 0, 64, 43
1, 173806, Note_off_c, 0, 43, 60
1, 173827, Control_c, 0, 64, 64
1, 173842, Control_c, 0, 64, 76
1, 173851, Note_on_c, 0, 46, 67
1, 173855, Note_on_c, 0, 51, 97
1, 173857, Control_c, 0, 64, 95
1, 173857, Note_on_c, 0, 63, 72
1, 173858, Note_on_c, 0, 43, 58
1, 173872, Control_c, 0, 64, 127
1, 173897, Note_off_c, 0, 63, 62
1, 173900, Note_off_c, 0, 51, 64
1, 173912, Note_off_c, 0, 46, 61
1, 173914, Note_on_c, 0, 61, 6
1, 173914, Note_off_c, 0, 43, 61
1, 173947, Note_off_c, 0, 61, 0
1, 173959, Note_on_c, 0, 61, 55
1, 173961, Note_on_c, 0, 46, 68
1, 173962, Note_on_c, 0, 49, 96
1, 173972, Note_on_c, 0, 43, 68
1, 174008, Note_off_c, 0, 49, 63
1, 174010, Note_off_c, 0, 61, 64
1, 174020, Note_off_c, 0, 46, 64
1, 174027, Note_off_c, 0, 43, 62
1, 174073, Note_on_c, 0, 46, 76
1, 174078, Note_on_c, 0, 47, 95
1, 174078, Note_on_c, 0, 59, 92
1, 174084, Note_on_c, 0, 43, 65
1, 174122, Note_off_c, 0, 46, 65
1, 174123, Note_off_c, 0, 47, 63
1, 174123, Note_off_c, 0, 59, 67
1, 174123, Note_off_c, 0, 43, 64
1, 174133, Note_on_c, 0, 58, 16
1, 174190, Note_off_c, 0, 58, 0
1, 174201, Note_on_c, 0, 46, 96
1, 174201, Note_on_c, 0, 58, 76
1, 174205, Note_on_c, 0, 47, 94
1, 174208, Note_on_c, 0, 38, 90
1, 174245, Note_off_c, 0, 46, 65
1, 174251, Note_off_c, 0, 47, 64
1, 174251, Note_off_c, 0, 58, 64
1, 174260, Note_off_c, 0, 38, 61
1, 174317, Poly_aftertouch_c, 0, 56, 0
1, 174325, Note_on_c, 0, 56, 87
1, 174331, Note_on_c, 0, 47, 90
1, 174334, Note_on_c, 0, 38, 76
1, 174361, Control_c, 0, 64, 107
1, 174376, Control_c, 0, 64, 93
1, 174379, Note_off_c, 0, 56, 65
1, 174379, Note_off_c, 0, 47, 62
1, 174391, Control_c, 0, 64, 83
1, 174394, Note_off_c, 0, 38, 60
1, 174406, Control_c, 0, 64, 75
1, 174421, Control_c, 0, 64, 67
1, 174435, Control_c, 0, 64, 59
1, 174450, Control_c, 0, 64, 47
1, 174465, Control_c, 0, 64, 27
1, 174480, Control_c, 0, 64, 0
1, 174516, Note_on_c, 0, 55, 97
1, 174523, Note_on_c, 0, 46, 92
1, 174528, Note_on_c, 0, 39, 76
1, 174570, Note_on_c, 0, 47, 38
1, 174591, Control_c, 0, 64, 54
1, 174606, Control_c, 0, 64, 67
1, 174609, Note_off_c, 0, 47, 36
1, 174617, Note_off_c, 0, 55, 51
1, 174620, Control_c, 0, 64, 79
1, 174635, Control_c, 0, 64, 91
1, 174650, Control_c, 0, 64, 101
1, 174665, Control_c, 0, 64, 103
1, 174682, Note_off_c, 0, 46, 62
1, 174689, Note_off_c, 0, 39, 63
1, 174722, Control_c, 0, 64, 104
1, 174737, Control_c, 0, 64, 106
1, 174742, Note_on_c, 0, 50, 82
1, 174742, Note_on_c, 0, 62, 77
1, 174752, Control_c, 0, 64, 110
1, 174766, Control_c, 0, 64, 118
1, 174771, Note_off_c, 0, 50, 65
1, 174781, Control_c, 0, 64, 122
1, 174782, Note_off_c, 0, 62, 62
1, 174812, Note_on_c, 0, 50, 82
1, 174826, Control_c, 0, 64, 127
1, 174865, Note_off_c, 0, 50, 60
1, 174879, Note_on_c, 0, 51, 87
1, 174887, Note_on_c, 0, 63, 72
1, 174905, Note_off_c, 0, 51, 66
1, 174910, Note_on_c, 0, 61, 41
1, 174925, Note_off_c, 0, 63, 62
1, 174939, Note_off_c, 0, 61, 50
1, 174971, Note_on_c, 0, 51, 66
1, 174990, Note_off_c, 0, 51, 62
1, 175000, Note_on_c, 0, 50, 44
1, 175017, Note_on_c, 0, 55, 85
1, 175022, Note_off_c, 0, 50, 60
1, 175025, Note_on_c, 0, 67, 83
1, 175041, Note_off_c, 0, 55, 66
1, 175048, Note_off_c, 0, 67, 69
1, 175082, Note_on_c, 0, 55, 81
1, 175126, Note_off_c, 0, 55, 60
1, 175139, Note_on_c, 0, 58, 91
1, 175143, Note_on_c, 0, 70, 86
1, 175181, Note_off_c, 0, 58, 0
1, 175190, Note_off_c, 0, 70, 60
1, 175193, Note_on_c, 0, 58, 70
1, 175227, Control_c, 0, 64, 97
1, 175242, Control_c, 0, 64, 76
1, 175243, Note_off_c, 0, 58, 61
1, 175256, Control_c, 0, 64, 60
1, 175267, Note_on_c, 0, 62, 84
1, 175271, Control_c, 0, 64, 36
1, 175276, Note_on_c, 0, 74, 84
1, 175286, Control_c, 0, 64, 0
1, 175298, Note_off_c, 0, 62, 65
1, 175301, Note_off_c, 0, 74, 66
1, 175323, Control_c, 0, 64, 28
1, 175330, Note_on_c, 0, 62, 67
1, 175338, Control_c, 0, 64, 55
1, 175343, Note_on_c, 0, 50, 67
1, 175353, Control_c, 0, 64, 64
1, 175368, Control_c, 0, 64, 69
1, 175371, Note_off_c, 0, 62, 63
1, 175372, Note_off_c, 0, 50, 65
1, 175383, Control_c, 0, 64, 74
1, 175395, Note_on_c, 0, 63, 88
1, 175397, Control_c, 0, 64, 81
1, 175399, Note_on_c, 0, 75, 89
1, 175412, Control_c, 0, 64, 87
1, 175425, Note_off_c, 0, 63, 62
1, 175427, Control_c, 0, 64, 90
1, 175445, Note_off_c, 0, 75, 63
1, 175448, Note_on_c, 0, 63, 68
1, 175457, Control_c, 0, 64, 91
1, 175458, Note_on_c, 0, 51, 77
1, 175472, Control_c, 0, 64, 95
1, 175477, Note_off_c, 0, 63, 67
1, 175487, Note_off_c, 0, 51, 67
1, 175487, Control_c, 0, 64, 103
1, 175502, Control_c, 0, 64, 109
1, 175516, Control_c, 0, 64, 110
1, 175521, Note_on_c, 0, 67, 84
1, 175523, Note_on_c, 0, 79, 93
1, 175531, Control_c, 0, 64, 111
1, 175543, Note_off_c, 0, 67, 69
1, 175546, Control_c, 0, 64, 118
1, 175555, Note_off_c, 0, 79, 62
1, 175561, Control_c, 0, 64, 127
1, 175578, Note_on_c, 0, 67, 85
1, 175580, Note_on_c, 0, 55, 81
1, 175613, Note_off_c, 0, 55, 62
1, 175614, Note_off_c, 0, 67, 64
1, 175634, Note_on_c, 0, 70, 95
1, 175635, Note_on_c, 0, 82, 95
1, 175660, Note_off_c, 0, 70, 63
1, 175676, Note_off_c, 0, 82, 66
1, 175699, Note_on_c, 0, 70, 85
1, 175703, Note_on_c, 0, 58, 78
1, 175723, Note_off_c, 0, 70, 63
1, 175739, Note_off_c, 0, 58, 64
1, 175750, Note_on_c, 0, 74, 85
1, 175756, Note_on_c, 0, 86, 88
1, 175780, Note_off_c, 0, 74, 64
1, 175786, Note_off_c, 0, 86, 62
1, 175820, Note_on_c, 0, 74, 82
1, 175824, Note_on_c, 0, 62, 78
1, 175828, Control_c, 0, 64, 92
1, 175843, Control_c, 0, 64, 62
1, 175852, Poly_aftertouch_c, 0, 85, 0
1, 175856, Note_off_c, 0, 62, 62
1, 175858, Control_c, 0, 64, 49
1, 175859, Note_off_c, 0, 74, 65
1, 175863, Note_on_c, 0, 75, 93
1, 175863, Note_on_c, 0, 87, 94
1, 175873, Control_c, 0, 64, 57
1, 175887, Control_c, 0, 64, 68
1, 175888, Note_off_c, 0, 75, 67
1, 175893, Note_on_c, 0, 88, 57
1, 175902, Control_c, 0, 64, 88
1, 175905, Note_off_c, 0, 87, 62
1, 175912, Note_off_c, 0, 88, 62
1, 175917, Control_c, 0, 64, 127
1, 175932, Note_on_c, 0, 75, 85
1, 175938, Note_on_c, 0, 63, 76
1, 175955, Note_off_c, 0, 75, 65
1, 175968, Note_off_c, 0, 63, 65
1, 175981, Note_on_c, 0, 79, 89
1, 175987, Note_on_c, 0, 91, 90
1, 176013, Note_off_c, 0, 79, 66
1, 176021, Note_off_c, 0, 91, 67
1, 176050, Note_on_c, 0, 79, 87
1, 176066, Note_on_c, 0, 67, 82
1, 176099, Note_on_c, 0, 94, 99
1, 176101, Note_off_c, 0, 67, 63
1, 176102, Note_on_c, 0, 82, 93
1, 176104, Note_off_c, 0, 79, 64
1, 176138, Note_off_c, 0, 82, 62
1, 176144, Note_off_c, 0, 94, 67
1, 176178, Note_on_c, 0, 82, 82
1, 176188, Note_on_c, 0, 70, 75
1, 176224, Note_on_c, 0, 86, 92
1, 176224, Note_off_c, 0, 82, 65
1, 176226, Note_on_c, 0, 98, 94
1, 176238, Note_off_c, 0, 70, 62
1, 176251, Note_on_c, 0, 97, 55
1, 176258, Note_off_c, 0, 86, 68
1, 176266, Note_off_c, 0, 98, 65
1, 176272, Note_off_c, 0, 97, 61
1, 176315, Note_on_c, 0, 74, 79
1, 176316, Note_on_c, 0, 86, 90
1, 176339, Control_c, 0, 64, 95
1, 176354, Note_off_c, 0, 74, 60
1, 176354, Note_off_c, 0, 86, 62
1, 176354, Control_c, 0, 64, 67
1, 176359, Note_on_c, 0, 99, 96
1, 176362, Note_on_c, 0, 87, 94
1, 176369, Control_c, 0, 64, 52
1, 176384, Control_c, 0, 64, 51
1, 176399, Control_c, 0, 64, 61
1, 176406, Note_off_c, 0, 99, 67
1, 176406, Note_off_c, 0, 87, 65
1, 176413, Control_c, 0, 64, 74
1, 176428, Control_c, 0, 64, 107
1, 176443, Control_c, 0, 64, 127
1, 176448, Note_on_c, 0, 87, 83
1, 176454, Note_on_c, 0, 75, 82
1, 176487, Note_off_c, 0, 87, 65
1, 176499, Note_off_c, 0, 75, 64
1, 176502, Note_on_c, 0, 86, 93
1, 176504, Note_on_c, 0, 98, 94
1, 176541, Note_off_c, 0, 86, 65
1, 176548, Note_off_c, 0, 98, 66
1, 176573, Note_on_c, 0, 86, 85
1, 176580, Note_on_c, 0, 74, 83
1, 176620, Note_off_c, 0, 86, 65
1, 176625, Note_off_c, 0, 74, 64
1, 176641, Note_on_c, 0, 87, 96
1, 176641, Note_on_c, 0, 99, 102
1, 176680, Note_off_c, 0, 87, 66
1, 176683, Note_off_c, 0, 99, 68
1, 176716, Note_on_c, 0, 87, 94
1, 176722, Note_on_c, 0, 75, 87
1, 176754, Note_off_c, 0, 87, 66
1, 176774, Note_off_c, 0, 75, 62
1, 176790, Note_on_c, 0, 86, 95
1, 176791, Note_on_c, 0, 98, 102
1, 176824, Note_on_c, 0, 97, 58
1, 176832, Note_off_c, 0, 86, 66
1, 176836, Note_off_c, 0, 98, 66
1, 176843, Note_off_c, 0, 97, 63
1, 176881, Note_on_c, 0, 74, 90
1, 176883, Note_on_c, 0, 86, 94
1, 176929, Note_off_c, 0, 86, 67
1, 176946, Note_off_c, 0, 74, 64
1, 176951, Note_on_c, 0, 75, 3
1, 176955, Control_c, 0, 64, 118
1, 176969, Control_c, 0, 64, 73
1, 176984, Control_c, 0, 64, 54
1, 176985, Note_on_c, 0, 99, 107
1, 176986, Note_on_c, 0, 87, 104
1, 176987, Note_off_c, 0, 75, 36
1, 176999, Control_c, 0, 64, 15
1, 177015, Note_on_c, 0, 100, 56
1, 177017, Note_on_c, 0, 88, 51
1, 177018, Note_off_c, 0, 88, 127
1, 177023, Note_off_c, 0, 87, 67
1, 177029, Control_c, 0, 64, 50
1, 177032, Note_off_c, 0, 99, 67
1, 177035, Note_off_c, 0, 100, 61
1, 177044, Control_c, 0, 64, 71
1, 177059, Control_c, 0, 64, 127
1, 177101, Note_on_c, 0, 75, 74
1, 177101, Note_on_c, 0, 87, 94
1, 177145, Note_off_c, 0, 87, 65
1, 177169, Note_off_c, 0, 75, 62
1, 177183, Note_on_c, 0, 87, 94
1, 177187, Note_on_c, 0, 99, 100
1, 177222, Note_off_c, 0, 87, 66
1, 177227, Note_off_c, 0, 99, 66
1, 177256, Note_on_c, 0, 85, 90
1, 177267, Note_on_c, 0, 73, 78
1, 177309, Note_off_c, 0, 85, 63
1, 177317, Note_off_c, 0, 73, 64
1, 177332, Note_on_c, 0, 99, 102
1, 177333, Note_on_c, 0, 87, 91
1, 177360, Note_on_c, 0, 97, 55
1, 177361, Note_off_c, 0, 97, 127
1, 177370, Note_off_c, 0, 87, 65
1, 177377, Note_off_c, 0, 99, 67
1, 177396, Note_on_c, 0, 82, 87
1, 177402, Note_on_c, 0, 70, 83
1, 177440, Note_off_c, 0, 82, 62
1, 177451, Note_off_c, 0, 70, 62
1, 177463, Note_on_c, 0, 87, 95
1, 177463, Note_on_c, 0, 99, 104
1, 177500, Note_off_c, 0, 87, 65
1, 177503, Note_on_c, 0, 97, 19
1, 177504, Note_off_c, 0, 97, 127
1, 177508, Note_off_c, 0, 99, 66
1, 177521, Note_on_c, 0, 79, 87
1, 177528, Note_on_c, 0, 67, 80
1, 177567, Note_off_c, 0, 79, 62
1, 177576, Note_off_c, 0, 67, 62
1, 177592, Note_on_c, 0, 87, 101
1, 177593, Note_on_c, 0, 99, 95
1, 177622, Note_off_c, 0, 87, 61
1, 177631, Note_off_c, 0, 99, 66
1, 177646, Note_on_c, 0, 75, 88
1, 177658, Note_on_c, 0, 63, 75
1, 177689, Note_off_c, 0, 75, 63
1, 177708, Note_off_c, 0, 63, 48
1, 177711, Note_on_c, 0, 87, 98
1, 177712, Note_on_c, 0, 99, 96
1, 177744, Note_off_c, 0, 87, 59
1, 177749, Note_on_c, 0, 97, 35
1, 177750, Note_off_c, 0, 97, 127
1, 177750, Note_off_c, 0, 99, 66
1, 177764, Note_on_c, 0, 73, 83
1, 177766, Note_on_c, 0, 61, 84
1, 177808, Note_off_c, 0, 73, 66
1, 177822, Note_off_c, 0, 61, 64
1, 177827, Note_on_c, 0, 99, 101
1, 177828, Note_on_c, 0, 87, 97
1, 177852, Note_off_c, 0, 87, 64
1, 177863, Note_off_c, 0, 99, 68
1, 177876, Note_on_c, 0, 70, 90
1, 177887, Note_on_c, 0, 58, 77
1, 177909, Note_off_c, 0, 70, 62
1, 177936, Note_on_c, 0, 87, 100
1, 177937, Note_off_c, 0, 58, 60
1, 177938, Note_on_c, 0, 99, 101
1, 177973, Note_off_c, 0, 87, 65
1, 177977, Note_off_c, 0, 99, 66
1, 177995, Note_on_c, 0, 67, 91
1, 178000, Note_on_c, 0, 55, 88
1, 178031, Note_off_c, 0, 67, 62
1, 178043, Note_off_c, 0, 55, 65
1, 178049, Note_on_c, 0, 87, 102
1, 178050, Note_on_c, 0, 99, 97
1, 178084, Note_off_c, 0, 87, 65
1, 178085, Note_on_c, 0, 97, 41
1, 178086, Note_off_c, 0, 97, 127
1, 178096, Note_off_c, 0, 99, 65
1, 178110, Note_on_c, 0, 63, 83
1, 178127, Note_on_c, 0, 51, 79
1, 178157, Note_on_c, 0, 56, 28
1, 178158, Note_off_c, 0, 63, 63
1, 178168, Note_on_c, 0, 99, 98
1, 178168, Note_on_c, 0, 87, 97
1, 178192, Note_on_c, 0, 97, 56
1, 178193, Note_off_c, 0, 97, 127
1, 178193, Note_off_c, 0, 51, 61
1, 178195, Note_off_c, 0, 56, 42
1, 178201, Note_off_c, 0, 87, 66
1, 178211, Note_off_c, 0, 99, 67
1, 178248, Note_on_c, 0, 61, 91
1, 178249, Note_on_c, 0, 49, 89
1, 178290, Note_on_c, 0, 99, 102
1, 178290, Note_on_c, 0, 87, 103
1, 178296, Note_off_c, 0, 61, 65
1, 178323, Note_off_c, 0, 49, 62
1, 178334, Note_off_c, 0, 87, 66
1, 178341, Note_off_c, 0, 99, 67
1, 178379, Note_on_c, 0, 58, 95
1, 178393, Note_on_c, 0, 46, 81
1, 178420, Note_off_c, 0, 58, 66
1, 178433, Note_on_c, 0, 99, 105
1, 178434, Note_on_c, 0, 87, 100
1, 178454, Note_off_c, 0, 46, 61
1, 178472, Note_off_c, 0, 87, 65
1, 178483, Note_off_c, 0, 99, 66
1, 178497, Poly_aftertouch_c, 0, 51, 0
1, 178518, Note_on_c, 0, 55, 97
1, 178522, Note_on_c, 0, 43, 92
1, 178546, Poly_aftertouch_c, 0, 97, 0
1, 178561, Note_off_c, 0, 55, 64
1, 178579, Note_off_c, 0, 43, 62
1, 178584, Note_on_c, 0, 99, 98
1, 178585, Note_on_c, 0, 87, 100
1, 178612, Note_on_c, 0, 97, 55
1, 178613, Note_off_c, 0, 97, 127
1, 178620, Note_off_c, 0, 87, 66
1, 178630, Note_off_c, 0, 99, 67
1, 178631, Poly_aftertouch_c, 0, 44, 0
1, 178676, Note_on_c, 0, 51, 97
1, 178688, Note_on_c, 0, 39, 84
1, 178689, Control_c, 0, 64, 81
1, 178704, Control_c, 0, 64, 61
1, 178719, Control_c, 0, 64, 29
1, 178722, Note_on_c, 0, 42, 28
1, 178734, Control_c, 0, 64, 0
1, 178758, Note_off_c, 0, 42, 32
1, 178801, Note_on_c, 0, 99, 99
1, 178802, Note_on_c, 0, 87, 97
1, 178823, Control_c, 0, 64, 44
1, 178825, Note_on_c, 0, 97, 56
1, 178826, Note_off_c, 0, 97, 127
1, 178833, Note_off_c, 0, 87, 63
1, 178838, Control_c, 0, 64, 67
1, 178842, Note_off_c, 0, 99, 67
1, 178852, Control_c, 0, 64, 76
1, 178867, Control_c, 0, 64, 81
1, 178882, Control_c, 0, 64, 84
1, 178891, Note_off_c, 0, 39, 62
1, 178894, Note_off_c, 0, 51, 60
1, 178897, Control_c, 0, 64, 85
1, 178912, Control_c, 0, 64, 86
1, 178928, Control_c, 0, 64, 90
1, 178936, Note_on_c, 0, 87, 82
1, 178936, Note_on_c, 0, 99, 84
1, 178943, Control_c, 0, 64, 92
1, 178955, Note_off_c, 0, 87, 71
1, 178957, Note_off_c, 0, 99, 65
1, 178957, Control_c, 0, 64, 93
1, 178972, Control_c, 0, 64, 94
1, 178987, Control_c, 0, 64, 95
1, 179030, Note_on_c, 0, 99, 84
1, 179040, Note_on_c, 0, 87, 76
1, 179053, Control_c, 0, 64, 95
1, 179059, Note_off_c, 0, 99, 68
1, 179068, Control_c, 0, 64, 96
1, 179071, Note_off_c, 0, 87, 69
1, 179083, Control_c, 0, 64, 97
1, 179128, Note_on_c, 0, 99, 86
1, 179136, Note_on_c, 0, 87, 78
1, 179142, Control_c, 0, 64, 98
1, 179148, Note_off_c, 0, 99, 69
1, 179151, Note_off_c, 0, 87, 69
1, 179157, Control_c, 0, 64, 99
1, 179202, Control_c, 0, 64, 100
1, 179211, Note_on_c, 0, 87, 84
1, 179214, Note_on_c, 0, 99, 90
1, 179217, Control_c, 0, 64, 103
1, 179232, Control_c, 0, 64, 106
1, 179238, Note_off_c, 0, 87, 62
1, 179253, Note_off_c, 0, 99, 64
1, 179276, Control_c, 0, 64, 108
1, 179290, Control_c, 0, 64, 112
1, 179303, Note_on_c, 0, 99, 72
1, 179305, Control_c, 0, 64, 119
1, 179308, Note_on_c, 0, 87, 83
1, 179327, Note_off_c, 0, 99, 68
1, 179330, Note_off_c, 0, 87, 70
1, 179350, Control_c, 0, 64, 120
1, 179364, Control_c, 0, 64, 127
1, 179401, Note_on_c, 0, 99, 80
1, 179411, Note_on_c, 0, 87, 68
1, 179423, Note_off_c, 0, 99, 67
1, 179429, Note_off_c, 0, 87, 65
1, 179491, Note_on_c, 0, 87, 72
1, 179500, Note_on_c, 0, 99, 71
1, 179515, Note_off_c, 0, 87, 68
1, 179523, Note_off_c, 0, 99, 70
1, 179590, Note_on_c, 0, 87, 76
1, 179595, Note_on_c, 0, 99, 79
1, 179612, Note_off_c, 0, 87, 70
1, 179615, Note_off_c, 0, 99, 69
1, 179685, Note_on_c, 0, 99, 81
1, 179690, Note_on_c, 0, 87, 70
1, 179704, Note_off_c, 0, 99, 72
1, 179715, Note_off_c, 0, 87, 64
1, 179765, Control_c, 0, 64, 92
1, 179768, Note_on_c, 0, 87, 84
1, 179772, Note_on_c, 0, 99, 86
1, 179780, Control_c, 0, 64, 69
1, 179795, Control_c, 0, 64, 49
1, 179797, Note_off_c, 0, 99, 62
1, 179798, Note_off_c, 0, 87, 63
1, 179817, Control_c, 0, 64, 0
1, 179832, Control_c, 0, 64, 28
1, 179847, Control_c, 0, 64, 56
1, 179861, Control_c, 0, 64, 73
1, 179873, Note_on_c, 0, 99, 84
1, 179874, Note_on_c, 0, 87, 72
1, 179876, Control_c, 0, 64, 103
1, 179891, Control_c, 0, 64, 127
1, 179894, Note_off_c, 0, 99, 66
1, 179897, Note_off_c, 0, 87, 69
1, 179968, Note_on_c, 0, 99, 78
1, 179970, Note_on_c, 0, 87, 76
1, 179991, Note_off_c, 0, 87, 70
1, 179993, Note_off_c, 0, 99, 62
1, 180065, Note_on_c, 0, 87, 78
1, 180067, Note_on_c, 0, 99, 77
1, 180086, Note_off_c, 0, 87, 70
1, 180088, Note_off_c, 0, 99, 71
1, 180156, Note_on_c, 0, 99, 82
1, 180159, Note_on_c, 0, 87, 73
1, 180174, Note_off_c, 0, 99, 73
1, 180183, Note_off_c, 0, 87, 67
1, 180237, Note_on_c, 0, 99, 90
1, 180241, Note_on_c, 0, 87, 81
1, 180266, Note_off_c, 0, 87, 64
1, 180267, Note_off_c, 0, 99, 56
1, 180335, Note_on_c, 0, 99, 92
1, 180337, Note_on_c, 0, 87, 85
1, 180347, Note_on_c, 0, 63, 89
1, 180361, Note_off_c, 0, 87, 65
1, 180377, Note_off_c, 0, 63, 62
1, 180379, Note_off_c, 0, 99, 66
1, 180441, Note_on_c, 0, 87, 88
1, 180441, Note_on_c, 0, 99, 82
1, 180464, Note_off_c, 0, 87, 63
1, 180484, Note_off_c, 0, 99, 65
1, 180585, Note_on_c, 0, 75, 94
1, 180590, Note_on_c, 0, 87, 91
1, 180593, Note_on_c, 0, 99, 94
1, 180606, Note_off_c, 0, 75, 68
1, 180629, Note_off_c, 0, 87, 65
1, 180635, Note_on_c, 0, 97, 22
1, 180636, Note_off_c, 0, 97, 127
1, 180642, Note_off_c, 0, 99, 66
1, 180717, Note_on_c, 0, 87, 92
1, 180720, Note_on_c, 0, 99, 89
1, 180759, Note_off_c, 0, 87, 64
1, 180764, Note_off_c, 0, 99, 65
1, 180829, Note_on_c, 0, 87, 89
1, 180829, Note_on_c, 0, 99, 92
1, 180876, Note_off_c, 0, 87, 63
1, 180885, Note_off_c, 0, 99, 65
1, 180946, Note_on_c, 0, 87, 90
1, 180949, Note_on_c, 0, 99, 85
1, 180970, Note_on_c, 0, 97, 66
1, 180985, Note_off_c, 0, 97, 68
1, 180997, Note_off_c, 0, 87, 63
1, 181005, Note_off_c, 0, 99, 66
1, 181070, Note_on_c, 0, 97, 87
1, 181074, Note_on_c, 0, 85, 89
1, 181119, Note_off_c, 0, 85, 64
1, 181135, Note_off_c, 0, 97, 64
1, 181202, Note_on_c, 0, 97, 86
1, 181206, Note_on_c, 0, 85, 83
1, 181236, Note_off_c, 0, 85, 60
1, 181248, Note_off_c, 0, 97, 65
1, 181277, Control_c, 0, 64, 118
1, 181292, Control_c, 0, 64, 82
1, 181314, Control_c, 0, 64, 63
1, 181330, Control_c, 0, 64, 37
1, 181345, Control_c, 0, 64, 0
1, 181374, Note_on_c, 0, 32, 74
1, 181374, Control_c, 0, 64, 42
1, 181375, Note_on_c, 0, 44, 83
1, 181383, Note_on_c, 0, 83, 87
1, 181384, Note_on_c, 0, 95, 93
1, 181389, Control_c, 0, 64, 65
1, 181400, Note_off_c, 0, 44, 66
1, 181404, Control_c, 0, 64, 85
1, 181405, Note_off_c, 0, 32, 67
1, 181419, Note_on_c, 0, 94, 40
1, 181419, Control_c, 0, 64, 127
1, 181422, Note_off_c, 0, 83, 63
1, 181424, Note_off_c, 0, 95, 66
1, 181449, Note_off_c, 0, 94, 51
1, 181514, Note_on_c, 0, 83, 87
1, 181516, Note_on_c, 0, 95, 86
1, 181541, Note_off_c, 0, 83, 63
1, 181549, Note_off_c, 0, 95, 59
1, 181613, Note_on_c, 0, 95, 85
1, 181614, Note_on_c, 0, 51, 65
1, 181616, Note_on_c, 0, 63, 66
1, 181620, Note_on_c, 0, 83, 87
1, 181634, Note_off_c, 0, 63, 66
1, 181645, Note_off_c, 0, 83, 61
1, 181648, Note_on_c, 0, 59, 17
1, 181652, Note_off_c, 0, 51, 61
1, 181658, Note_off_c, 0, 95, 66
1, 181675, Note_off_c, 0, 59, 0
1, 181700, Note_on_c, 0, 95, 80
1, 181703, Note_on_c, 0, 59, 43
1, 181707, Note_on_c, 0, 63, 66
1, 181709, Note_on_c, 0, 83, 88
1, 181736, Note_off_c, 0, 83, 64
1, 181744, Note_off_c, 0, 95, 67
1, 181751, Note_off_c, 0, 63, 55
1, 181769, Note_off_c, 0, 59, 54
1, 181794, Poly_aftertouch_c, 0, 59, 0
1, 181800, Note_on_c, 0, 82, 96
1, 181800, Note_on_c, 0, 94, 89
1, 181803, Note_on_c, 0, 63, 63
1, 181813, Note_on_c, 0, 56, 75
1, 181825, Note_off_c, 0, 63, 68
1, 181838, Note_off_c, 0, 94, 66
1, 181839, Note_off_c, 0, 82, 64
1, 181843, Note_off_c, 0, 56, 65
1, 181853, Note_on_c, 0, 92, 12
1, 181854, Note_off_c, 0, 92, 127
1, 181863, Control_c, 0, 64, 108
1, 181868, Poly_aftertouch_c, 0, 59, 0
1, 181877, Control_c, 0, 64, 78
1, 181892, Control_c, 0, 64, 59
1, 181907, Control_c, 0, 64, 18
1, 181912, Note_on_c, 0, 94, 82
1, 181913, Note_on_c, 0, 82, 75
1, 181922, Control_c, 0, 64, 0
1, 181934, Note_off_c, 0, 94, 65
1, 181936, Note_off_c, 0, 82, 69
1, 181966, Control_c, 0, 64, 34
1, 181981, Control_c, 0, 64, 63
1, 181996, Control_c, 0, 64, 77
1, 182005, Note_on_c, 0, 47, 88
1, 182007, Note_on_c, 0, 92, 85
1, 182010, Control_c, 0, 64, 107
1, 182012, Note_on_c, 0, 35, 81
1, 182012, Note_on_c, 0, 80, 90
1, 182025, Control_c, 0, 64, 127
1, 182031, Note_off_c, 0, 47, 67
1, 182052, Note_off_c, 0, 35, 65
1, 182061, Note_off_c, 0, 80, 61
1, 182064, Note_off_c, 0, 92, 63
1, 182116, Note_on_c, 0, 92, 74
1, 182117, Note_on_c, 0, 80, 66
1, 182158, Note_off_c, 0, 80, 60
1, 182162, Note_off_c, 0, 92, 63
1, 182209, Note_on_c, 0, 51, 65
1, 182213, Note_on_c, 0, 63, 72
1, 182223, Note_on_c, 0, 79, 87
1, 182224, Note_on_c, 0, 91, 87
1, 182239, Note_off_c, 0, 63, 67
1, 182242, Note_off_c, 0, 51, 66
1, 182260, Note_off_c, 0, 91, 66
1, 182263, Note_off_c, 0, 79, 62
1, 182295, Poly_aftertouch_c, 0, 59, 0
1, 182308, Note_on_c, 0, 79, 78
1, 182312, Note_on_c, 0, 91, 87
1, 182313, Note_on_c, 0, 63, 70
1, 182314, Note_on_c, 0, 59, 33
1, 182342, Note_off_c, 0, 91, 65
1, 182344, Note_off_c, 0, 79, 63
1, 182383, Note_off_c, 0, 59, 58
1, 182383, Note_off_c, 0, 63, 0
1, 182401, Note_on_c, 0, 80, 92
1, 182404, Note_on_c, 0, 63, 27
1, 182412, Poly_aftertouch_c, 0, 56, 127
1, 182412, Note_on_c, 0, 92, 79
1, 182419, Note_on_c, 0, 56, 2
1, 182424, Note_on_c, 0, 90, 62
1, 182433, Note_off_c, 0, 92, 67
1, 182438, Note_off_c, 0, 80, 62
1, 182439, Note_off_c, 0, 63, 62
1, 182441, Note_off_c, 0, 90, 64
1, 182457, Note_off_c, 0, 56, 63
1, 182494, Control_c, 0, 64, 102
1, 182502, Note_on_c, 0, 92, 91
1, 182507, Note_on_c, 0, 80, 68
1, 182508, Control_c, 0, 64, 70
1, 182523, Note_off_c, 0, 80, 65
1, 182523, Control_c, 0, 64, 44
1, 182528, Note_off_c, 0, 92, 58
1, 182538, Control_c, 0, 64, 0
1, 182568, Control_c, 0, 64, 31
1, 182582, Control_c, 0, 64, 61
1, 182597, Control_c, 0, 64, 80
1, 182599, Note_on_c, 0, 51, 82
1, 182600, Note_on_c, 0, 82, 86
1, 182601, Note_on_c, 0, 94, 91
1, 182603, Note_on_c, 0, 39, 81
1, 182612, Control_c, 0, 64, 127
1, 182621, Note_off_c, 0, 51, 68
1, 182628, Note_off_c, 0, 82, 62
1, 182631, Note_off_c, 0, 39, 69
1, 182640, Note_off_c, 0, 94, 64
1, 182694, Note_on_c, 0, 94, 76
1, 182708, Note_on_c, 0, 82, 75
1, 182716, Note_off_c, 0, 94, 67
1, 182730, Note_off_c, 0, 82, 70
1, 182794, Note_on_c, 0, 58, 76
1, 182797, Note_on_c, 0, 67, 75
1, 182805, Note_on_c, 0, 63, 74
1, 182815, Note_on_c, 0, 75, 91
1, 182817, Note_on_c, 0, 87, 82
1, 182827, Note_off_c, 0, 67, 69
1, 182829, Note_off_c, 0, 63, 68
1, 182830, Note_off_c, 0, 58, 63
1, 182832, Note_off_c, 0, 75, 72
1, 182836, Note_off_c, 0, 87, 68
1, 182891, Note_on_c, 0, 75, 87
1, 182897, Note_on_c, 0, 67, 75
1, 182900, Note_on_c, 0, 63, 77
1, 182901, Note_on_c, 0, 87, 85
1, 182907, Note_on_c, 0, 58, 73
1, 182915, Note_off_c, 0, 75, 64
1, 182919, Note_off_c, 0, 87, 71
1, 182928, Note_off_c, 0, 67, 66
1, 182932, Note_off_c, 0, 58, 68
1, 182934, Note_off_c, 0, 63, 63
1, 182978, Note_on_c, 0, 75, 89
1, 182981, Note_on_c, 0, 87, 89
1, 182996, Note_on_c, 0, 67, 75
1, 183000, Note_on_c, 0, 58, 68
1, 183005, Note_off_c, 0, 75, 56
1, 183009, Note_on_c, 0, 63, 53
1, 183015, Note_off_c, 0, 67, 66
1, 183027, Note_off_c, 0, 58, 65
1, 183027, Note_off_c, 0, 87, 62
1, 183036, Note_off_c, 0, 63, 55
1, 183069, Note_on_c, 0, 87, 66
1, 183072, Note_on_c, 0, 75, 81
1, 183095, Control_c, 0, 64, 78
1, 183104, Note_off_c, 0, 75, 56
1, 183110, Control_c, 0, 64, 56
1, 183125, Control_c, 0, 64, 0
1, 183126, Note_off_c, 0, 87, 64
1, 183154, Control_c, 0, 64, 17
1, 183169, Control_c, 0, 64, 57
1, 183180, Note_on_c, 0, 55, 85
1, 183184, Control_c, 0, 64, 81
1, 183185, Note_on_c, 0, 88, 88
1, 183185, Note_on_c, 0, 76, 85
1, 183191, Note_on_c, 0, 43, 67
1, 183198, Control_c, 0, 64, 127
1, 183204, Note_off_c, 0, 55, 68
1, 183208, Note_on_c, 0, 45, 47
1, 183211, Note_off_c, 0, 43, 59
1, 183222, Note_off_c, 0, 76, 62
1, 183222, Note_off_c, 0, 88, 67
1, 183236, Note_off_c, 0, 45, 49
1, 183279, Note_on_c, 0, 76, 81
1, 183280, Note_on_c, 0, 88, 88
1, 183316, Note_off_c, 0, 76, 67
1, 183319, Note_off_c, 0, 88, 62
1, 183384, Note_on_c, 0, 70, 80
1, 183387, Note_on_c, 0, 75, 87
1, 183388, Note_on_c, 0, 87, 88
1, 183390, Note_on_c, 0, 61, 60
1, 183394, Note_on_c, 0, 63, 58
1, 183408, Note_off_c, 0, 70, 66
1, 183412, Note_off_c, 0, 87, 62
1, 183419, Note_off_c, 0, 75, 60
1, 183423, Note_off_c, 0, 61, 66
1, 183424, Note_off_c, 0, 63, 66
1, 183471, Note_on_c, 0, 70, 83
1, 183472, Note_on_c, 0, 75, 81
1, 183477, Note_on_c, 0, 87, 89
1, 183491, Note_on_c, 0, 63, 67
1, 183498, Note_on_c, 0, 61, 61
1, 183514, Note_off_c, 0, 87, 59
1, 183515, Note_on_c, 0, 85, 36
1, 183516, Note_off_c, 0, 85, 127
1, 183516, Note_off_c, 0, 63, 66
1, 183519, Note_off_c, 0, 75, 64
1, 183524, Note_off_c, 0, 61, 65
1, 183527, Note_off_c, 0, 70, 62
1, 183575, Poly_aftertouch_c, 0, 70, 0
1, 183576, Note_on_c, 0, 85, 83
1, 183577, Note_on_c, 0, 73, 93
1, 183583, Note_on_c, 0, 70, 71
1, 183590, Note_on_c, 0, 63, 75
1, 183602, Note_off_c, 0, 70, 70
1, 183614, Note_on_c, 0, 61, 55
1, 183614, Note_off_c, 0, 63, 65
1, 183620, Note_off_c, 0, 73, 64
1, 183623, Note_off_c, 0, 85, 63
1, 183646, Note_off_c, 0, 61, 49
1, 183661, Poly_aftertouch_c, 0, 73, 0
1, 183668, Note_on_c, 0, 73, 70
1, 183669, Note_on_c, 0, 85, 78
1, 183694, Control_c, 0, 64, 102
1, 183709, Control_c, 0, 64, 72
1, 183720, Note_off_c, 0, 73, 62
1, 183720, Note_off_c, 0, 85, 64
1, 183724, Control_c, 0, 64, 48
1, 183740, Control_c, 0, 64, 0
1, 183781, Note_on_c, 0, 56, 87
1, 183784, Note_on_c, 0, 83, 89
1, 183785, Note_on_c, 0, 71, 91
1, 183787, Note_on_c, 0, 44, 81
1, 183799, Control_c, 0, 64, 58
1, 183805, Note_off_c, 0, 56, 69
1, 183811, Note_off_c, 0, 44, 67
1, 183814, Control_c, 0, 64, 80
1, 183825, Note_off_c, 0, 71, 66
1, 183828, Control_c, 0, 64, 127
1, 183830, Note_off_c, 0, 83, 66
1, 183891, Note_on_c, 0, 83, 85
1, 183894, Note_on_c, 0, 71, 89
1, 183929, Note_off_c, 0, 71, 63
1, 183930, Note_off_c, 0, 83, 67
1, 183979, Note_on_c, 0, 68, 75
1, 183983, Note_on_c, 0, 83, 87
1, 183985, Note_on_c, 0, 71, 83
1, 184001, Note_on_c, 0, 63, 51
1, 184006, Note_off_c, 0, 68, 67
1, 184008, Note_on_c, 0, 59, 35
1, 184027, Note_off_c, 0, 63, 58
1, 184029, Note_off_c, 0, 83, 66
1, 184032, Note_off_c, 0, 71, 64
1, 184043, Note_off_c, 0, 59, 44
1, 184074, Note_on_c, 0, 83, 82
1, 184075, Note_on_c, 0, 71, 74
1, 184082, Note_on_c, 0, 68, 82
1, 184088, Note_on_c, 0, 63, 74
1, 184089, Note_on_c, 0, 59, 58
1, 184117, Note_off_c, 0, 83, 67
1, 184118, Note_off_c, 0, 63, 64
1, 184118, Note_off_c, 0, 71, 66
1, 184121, Note_off_c, 0, 68, 61
1, 184124, Note_off_c, 0, 59, 63
1, 184175, Note_on_c, 0, 59, 79
1, 184176, Note_on_c, 0, 70, 97
1, 184178, Note_on_c, 0, 68, 70
1, 184184, Note_on_c, 0, 82, 80
1, 184197, Note_on_c, 0, 63, 67
1, 184199, Note_on_c, 0, 80, 66
1, 184200, Note_off_c, 0, 68, 71
1, 184207, Note_off_c, 0, 59, 64
1, 184212, Note_off_c, 0, 82, 64
1, 184217, Note_off_c, 0, 80, 64
1, 184218, Note_off_c, 0, 70, 64
1, 184222, Note_off_c, 0, 63, 63
1, 184276, Note_on_c, 0, 70, 85
1, 184282, Note_on_c, 0, 82, 84
1, 184325, Control_c, 0, 64, 116
1, 184332, Note_off_c, 0, 70, 60
1, 184334, Note_off_c, 0, 82, 61
1, 184340, Control_c, 0, 64, 76
1, 184354, Control_c, 0, 64, 53
1, 184369, Control_c, 0, 64, 0
1, 184396, Note_on_c, 0, 40, 94
1, 184400, Note_on_c, 0, 68, 89
1, 184402, Note_on_c, 0, 80, 80
1, 184413, Control_c, 0, 64, 54
1, 184422, Note_off_c, 0, 40, 69
1, 184428, Control_c, 0, 64, 72
1, 184443, Control_c, 0, 64, 103
1, 184444, Note_off_c, 0, 68, 63
1, 184444, Note_off_c, 0, 80, 60
1, 184458, Control_c, 0, 64, 127
1, 184497, Note_on_c, 0, 68, 74
1, 184503, Note_on_c, 0, 80, 73
1, 184550, Note_off_c, 0, 68, 63
1, 184553, Note_off_c, 0, 80, 63
1, 184607, Note_on_c, 0, 62, 78
1, 184608, Note_on_c, 0, 58, 75
1, 184612, Note_on_c, 0, 67, 92
1, 184613, Note_on_c, 0, 79, 92
1, 184630, Note_off_c, 0, 62, 68
1, 184645, Note_off_c, 0, 58, 57
1, 184652, Note_off_c, 0, 67, 66
1, 184656, Note_off_c, 0, 79, 63
1, 184708, Note_on_c, 0, 79, 80
1, 184711, Note_on_c, 0, 67, 87
1, 184718, Note_on_c, 0, 62, 68
1, 184724, Note_on_c, 0, 58, 77
1, 184738, Note_off_c, 0, 67, 64
1, 184749, Note_off_c, 0, 79, 60
1, 184752, Note_off_c, 0, 58, 60
1, 184752, Note_off_c, 0, 62, 65
1, 184808, Note_on_c, 0, 68, 96
1, 184817, Note_on_c, 0, 80, 77
1, 184818, Note_on_c, 0, 62, 80
1, 184821, Poly_aftertouch_c, 0, 60, 0
1, 184826, Note_on_c, 0, 58, 81
1, 184833, Note_on_c, 0, 78, 64
1, 184841, Note_off_c, 0, 62, 70
1, 184845, Note_off_c, 0, 80, 62
1, 184846, Note_off_c, 0, 68, 66
1, 184852, Note_off_c, 0, 78, 63
1, 184859, Note_off_c, 0, 58, 64
1, 184913, Note_on_c, 0, 68, 85
1, 184921, Note_on_c, 0, 80, 85
1, 184953, Note_off_c, 0, 68, 62
1, 184962, Control_c, 0, 64, 105
1, 184965, Note_off_c, 0, 80, 60
1, 184977, Control_c, 0, 64, 71
1, 184992, Control_c, 0, 64, 43
1, 185007, Control_c, 0, 64, 0
1, 185027, Note_on_c, 0, 39, 98
1, 185030, Note_on_c, 0, 70, 89
1, 185036, Note_on_c, 0, 82, 79
1, 185059, Control_c, 0, 64, 47
1, 185063, Note_off_c, 0, 39, 67
1, 185074, Control_c, 0, 64, 71
1, 185079, Note_on_c, 0, 80, 45
1, 185080, Note_off_c, 0, 80, 127
1, 185081, Note_off_c, 0, 82, 64
1, 185086, Note_off_c, 0, 70, 62
1, 185089, Control_c, 0, 64, 101
1, 185103, Control_c, 0, 64, 127
1, 185148, Note_on_c, 0, 82, 70
1, 185149, Note_on_c, 0, 70, 81
1, 185172, Note_off_c, 0, 82, 67
1, 185190, Note_off_c, 0, 70, 61
1, 185245, Note_on_c, 0, 58, 86
1, 185265, Note_on_c, 0, 55, 56
1, 185274, Note_on_c, 0, 63, 87
1, 185285, Note_on_c, 0, 75, 64
1, 185289, Note_off_c, 0, 55, 63
1, 185292, Note_off_c, 0, 58, 60
1, 185302, Note_on_c, 0, 73, 53
1, 185302, Note_off_c, 0, 63, 63
1, 185308, Note_off_c, 0, 75, 70
1, 185325, Note_off_c, 0, 73, 61
1, 185373, Note_on_c, 0, 55, 69
1, 185373, Note_on_c, 0, 75, 90
1, 185376, Note_on_c, 0, 63, 77
1, 185383, Note_on_c, 0, 58, 83
1, 185401, Note_off_c, 0, 63, 67
1, 185405, Note_on_c, 0, 57, 39
1, 185415, Note_off_c, 0, 75, 62
1, 185417, Note_off_c, 0, 58, 58
1, 185417, Note_off_c, 0, 55, 58
1, 185439, Note_off_c, 0, 57, 45
1, 185485, Note_on_c, 0, 63, 85
1, 185501, Note_on_c, 0, 75, 93
1, 185501, Note_on_c, 0, 87, 88
1, 185504, Note_on_c, 0, 58, 73
1, 185507, Note_on_c, 0, 55, 64
1, 185520, Note_off_c, 0, 63, 67
1, 185521, Note_off_c, 0, 87, 68
1, 185523, Note_off_c, 0, 75, 62
1, 185529, Note_off_c, 0, 55, 60
1, 185530, Note_off_c, 0, 58, 67
1, 185599, Note_on_c, 0, 87, 92
1, 185600, Note_on_c, 0, 75, 90
1, 185623, Note_off_c, 0, 75, 65
1, 185645, Note_off_c, 0, 87, 65
1, 185739, Note_on_c, 0, 75, 90
1, 185739, Note_on_c, 0, 87, 95
1, 185742, Note_on_c, 0, 70, 84
1, 185742, Note_on_c, 0, 99, 92
1, 185755, Note_on_c, 0, 67, 68
1, 185757, Note_off_c, 0, 75, 72
1, 185765, Note_on_c, 0, 97, 54
1, 185773, Note_off_c, 0, 70, 60
1, 185778, Note_off_c, 0, 99, 64
1, 185780, Note_off_c, 0, 67, 68
1, 185780, Note_off_c, 0, 87, 64
1, 185787, Note_off_c, 0, 97, 39
1, 185848, Note_on_c, 0, 87, 89
1, 185861, Note_on_c, 0, 99, 75
1, 185876, Note_on_c, 0, 97, 46
1, 185882, Note_off_c, 0, 99, 71
1, 185887, Note_off_c, 0, 87, 62
1, 185898, Note_off_c, 0, 97, 57
1, 185945, Note_on_c, 0, 87, 78
1, 185952, Note_on_c, 0, 99, 87
1, 185993, Note_off_c, 0, 87, 64
1, 186002, Note_off_c, 0, 99, 66
1, 186042, Note_on_c, 0, 87, 73
1, 186047, Note_on_c, 0, 99, 78
1, 186088, Note_on_c, 0, 97, 33
1, 186094, Note_off_c, 0, 99, 67
1, 186095, Note_off_c, 0, 87, 63
1, 186120, Note_off_c, 0, 97, 56
1, 186159, Note_on_c, 0, 85, 92
1, 186163, Note_on_c, 0, 97, 90
1, 186202, Note_off_c, 0, 85, 64
1, 186218, Note_off_c, 0, 97, 65
1, 186263, Note_on_c, 0, 85, 81
1, 186266, Note_on_c, 0, 97, 75
1, 186309, Note_off_c, 0, 85, 64
1, 186332, Note_off_c, 0, 97, 65
1, 186342, Control_c, 0, 64, 76
1, 186357, Control_c, 0, 64, 54
1, 186372, Control_c, 0, 64, 0
1, 186416, Control_c, 0, 64, 44
1, 186420, Note_on_c, 0, 44, 88
1, 186423, Note_on_c, 0, 32, 71
1, 186423, Note_on_c, 0, 84, 90
1, 186425, Note_on_c, 0, 96, 90
1, 186431, Control_c, 0, 64, 71
1, 186443, Note_off_c, 0, 44, 67
1, 186446, Control_c, 0, 64, 102
1, 186452, Note_off_c, 0, 32, 65
1, 186458, Note_on_c, 0, 95, 48
1, 186461, Control_c, 0, 64, 127
1, 186464, Note_off_c, 0, 84, 67
1, 186467, Note_off_c, 0, 96, 64
1, 186485, Note_off_c, 0, 95, 40
1, 186554, Note_on_c, 0, 84, 84
1, 186560, Note_on_c, 0, 96, 83
1, 186579, Note_on_c, 0, 95, 63
1, 186583, Note_off_c, 0, 84, 60
1, 186598, Note_off_c, 0, 95, 40
1, 186599, Note_off_c, 0, 96, 63
1, 186648, Note_on_c, 0, 63, 76
1, 186651, Note_on_c, 0, 96, 77
1, 186651, Note_on_c, 0, 54, 64
1, 186659, Note_on_c, 0, 84, 83
1, 186674, Note_off_c, 0, 63, 67
1, 186680, Note_on_c, 0, 57, 50
1, 186687, Note_off_c, 0, 54, 64
1, 186699, Note_off_c, 0, 84, 64
1, 186699, Note_off_c, 0, 96, 65
1, 186705, Note_off_c, 0, 57, 58
1, 186742, Note_on_c, 0, 96, 74
1, 186750, Note_on_c, 0, 84, 74
1, 186752, Note_on_c, 0, 63, 69
1, 186776, Note_on_c, 0, 57, 63
1, 186777, Note_on_c, 0, 54, 54
1, 186785, Note_off_c, 0, 63, 63
1, 186791, Note_off_c, 0, 96, 64
1, 186792, Note_off_c, 0, 84, 66
1, 186799, Note_off_c, 0, 54, 61
1, 186806, Note_off_c, 0, 57, 66
1, 186854, Note_on_c, 0, 93, 89
1, 186855, Note_on_c, 0, 63, 83
1, 186856, Note_on_c, 0, 81, 88
1, 186867, Note_on_c, 0, 54, 78
1, 186872, Note_off_c, 0, 63, 72
1, 186875, Note_on_c, 0, 83, 56
1, 186876, Note_off_c, 0, 83, 127
1, 186884, Note_on_c, 0, 57, 53
1, 186895, Note_off_c, 0, 93, 66
1, 186896, Note_off_c, 0, 81, 64
1, 186900, Note_off_c, 0, 54, 66
1, 186903, Note_off_c, 0, 57, 62
1, 186943, Note_on_c, 0, 81, 78
1, 186947, Note_on_c, 0, 93, 83
1, 186987, Note_off_c, 0, 81, 66
1, 186993, Note_off_c, 0, 93, 67
1, 187002, Control_c, 0, 64, 104
1, 187016, Control_c, 0, 64, 72
1, 187031, Control_c, 0, 64, 48
1, 187046, Control_c, 0, 64, 0
1, 187069, Note_on_c, 0, 92, 95
1, 187069, Note_on_c, 0, 80, 83
1, 187074, Note_on_c, 0, 48, 90
1, 187084, Note_on_c, 0, 36, 77
1, 187090, Control_c, 0, 64, 47
1, 187098, Note_off_c, 0, 80, 62
1, 187098, Note_off_c, 0, 48, 69
1, 187101, Note_on_c, 0, 82, 45
1, 187102, Note_off_c, 0, 82, 127
1, 187105, Control_c, 0, 64, 70
1, 187110, Note_off_c, 0, 92, 63
1, 187111, Note_off_c, 0, 36, 65
1, 187120, Control_c, 0, 64, 94
1, 187135, Control_c, 0, 64, 127
1, 187177, Note_on_c, 0, 80, 76
1, 187177, Note_on_c, 0, 92, 87
1, 187208, Note_on_c, 0, 82, 50
1, 187221, Note_off_c, 0, 92, 61
1, 187222, Note_off_c, 0, 80, 61
1, 187230, Note_off_c, 0, 82, 60
1, 187271, Note_on_c, 0, 69, 78
1, 187272, Note_on_c, 0, 57, 71
1, 187272, Note_on_c, 0, 63, 79
1, 187276, Note_on_c, 0, 80, 74
1, 187278, Note_on_c, 0, 92, 84
1, 187301, Note_off_c, 0, 69, 67
1, 187310, Note_off_c, 0, 63, 61
1, 187315, Note_off_c, 0, 57, 62
1, 187330, Note_off_c, 0, 80, 62
1, 187334, Note_off_c, 0, 92, 63
1, 187379, Note_on_c, 0, 80, 74
1, 187379, Note_on_c, 0, 92, 76
1, 187384, Poly_aftertouch_c, 0, 90, 0
1, 187389, Note_on_c, 0, 63, 80
1, 187390, Note_on_c, 0, 69, 70
1, 187411, Note_on_c, 0, 57, 49
1, 187418, Note_off_c, 0, 69, 64
1, 187429, Poly_aftertouch_c, 0, 90, 0
1, 187431, Note_off_c, 0, 80, 63
1, 187433, Note_off_c, 0, 57, 60
1, 187436, Note_off_c, 0, 92, 64
1, 187442, Note_off_c, 0, 63, 62
1, 187489, Note_on_c, 0, 69, 84
1, 187491, Note_on_c, 0, 63, 63
1, 187495, Note_on_c, 0, 57, 72
1, 187498, Note_on_c, 0, 78, 94
1, 187501, Note_on_c, 0, 90, 91
1, 187512, Note_off_c, 0, 69, 66
1, 187522, Note_off_c, 0, 57, 68
1, 187525, Note_off_c, 0, 63, 65
1, 187541, Note_off_c, 0, 78, 64
1, 187543, Note_off_c, 0, 90, 63
1, 187609, Note_on_c, 0, 90, 86
1, 187610, Note_on_c, 0, 78, 83
1, 187659, Note_off_c, 0, 78, 60
1, 187674, Note_off_c, 0, 90, 63
1, 187690, Control_c, 0, 64, 107
1, 187705, Control_c, 0, 64, 71
1, 187721, Control_c, 0, 64, 46
1, 187736, Control_c, 0, 64, 0
1, 187762, Note_on_c, 0, 88, 89
1, 187763, Note_on_c, 0, 49, 82
1, 187764, Note_on_c, 0, 76, 92
1, 187766, Note_on_c, 0, 37, 75
1, 187766, Control_c, 0, 64, 49
1, 187781, Control_c, 0, 64, 69
1, 187784, Note_off_c, 0, 88, 67
1, 187789, Note_off_c, 0, 37, 68
1, 187790, Note_off_c, 0, 76, 66
1, 187792, Note_off_c, 0, 49, 67
1, 187796, Control_c, 0, 64, 94
1, 187811, Control_c, 0, 64, 127
1, 187993, Note_on_c, 0, 73, 78
1, 187996, Note_on_c, 0, 64, 77
1, 188007, Note_on_c, 0, 69, 54
1, 188008, Note_on_c, 0, 61, 74
1, 188013, Note_on_c, 0, 52, 61
1, 188023, Note_on_c, 0, 57, 55
1, 188029, Note_off_c, 0, 64, 60
1, 188049, Note_off_c, 0, 61, 59
1, 188050, Note_off_c, 0, 69, 62
1, 188064, Note_off_c, 0, 73, 62
1, 188066, Note_off_c, 0, 57, 64
1, 188078, Note_off_c, 0, 52, 53
1, 188127, Note_on_c, 0, 73, 68
1, 188129, Note_on_c, 0, 64, 77
1, 188132, Note_on_c, 0, 69, 64
1, 188139, Note_on_c, 0, 61, 74
1, 188144, Note_on_c, 0, 57, 73
1, 188169, Note_off_c, 0, 61, 64
1, 188175, Note_off_c, 0, 64, 62
1, 188179, Note_off_c, 0, 57, 60
1, 188179, Note_off_c, 0, 69, 61
1, 188191, Note_off_c, 0, 73, 61
1, 188240, Note_on_c, 0, 64, 80
1, 188241, Note_on_c, 0, 75, 85
1, 188242, Note_on_c, 0, 69, 67
1, 188246, Note_on_c, 0, 61, 77
1, 188256, Note_on_c, 0, 51, 69
1, 188257, Note_on_c, 0, 57, 61
1, 188274, Note_off_c, 0, 64, 55
1, 188276, Note_off_c, 0, 61, 59
1, 188285, Note_off_c, 0, 57, 67
1, 188291, Note_off_c, 0, 75, 63
1, 188291, Note_off_c, 0, 69, 61
1, 188297, Note_off_c, 0, 51, 61
1, 188334, Poly_aftertouch_c, 0, 69, 0
1, 188341, Note_on_c, 0, 75, 78
1, 188342, Note_on_c, 0, 64, 84
1, 188342, Note_on_c, 0, 69, 61
1, 188351, Note_on_c, 0, 57, 71
1, 188354, Note_on_c, 0, 51, 62
1, 188355, Note_on_c, 0, 61, 76
1, 188379, Note_off_c, 0, 61, 66
1, 188388, Note_off_c, 0, 64, 64
1, 188392, Note_off_c, 0, 51, 61
1, 188392, Note_off_c, 0, 57, 65
1, 188395, Note_off_c, 0, 75, 64
1, 188400, Note_off_c, 0, 69, 61
1, 188413, Poly_aftertouch_c, 0, 73, 0
1, 188445, Note_on_c, 0, 69, 66
1, 188446, Note_on_c, 0, 64, 86
1, 188449, Note_on_c, 0, 61, 84
1, 188449, Note_on_c, 0, 76, 89
1, 188456, Note_on_c, 0, 57, 68
1, 188459, Note_on_c, 0, 49, 79
1, 188494, Note_off_c, 0, 64, 63
1, 188494, Note_off_c, 0, 61, 65
1, 188495, Note_off_c, 0, 57, 62
1, 188499, Note_off_c, 0, 76, 64
1, 188502, Note_off_c, 0, 49, 62
1, 188511, Note_off_c, 0, 69, 63
1, 188550, Note_on_c, 0, 69, 61
1, 188550, Note_on_c, 0, 76, 86
1, 188552, Note_on_c, 0, 64, 90
1, 188559, Note_on_c, 0, 61, 82
1, 188562, Poly_aftertouch_c, 0, 74, 0
1, 188568, Note_on_c, 0, 49, 64
1, 188572, Note_on_c, 0, 57, 69
1, 188601, Note_off_c, 0, 76, 66
1, 188605, Note_off_c, 0, 64, 63
1, 188606, Note_off_c, 0, 57, 56
1, 188607, Note_off_c, 0, 49, 63
1, 188610, Note_off_c, 0, 61, 62
1, 188619, Note_on_c, 0, 51, 10
1, 188622, Note_off_c, 0, 69, 63
1, 188659, Note_off_c, 0, 51, 0
1, 188677, Note_on_c, 0, 64, 90
1, 188677, Note_on_c, 0, 75, 95
1, 188678, Note_on_c, 0, 51, 48
1, 188680, Note_on_c, 0, 61, 85
1, 188680, Note_on_c, 0, 69, 74
1, 188689, Note_on_c, 0, 57, 78
1, 188724, Note_off_c, 0, 64, 63
1, 188728, Note_off_c, 0, 61, 63
1, 188736, Note_off_c, 0, 75, 63
1, 188739, Note_off_c, 0, 51, 63
1, 188741, Note_off_c, 0, 69, 62
1, 188744, Note_off_c, 0, 57, 63
1, 188807, Note_on_c, 0, 75, 86
1, 188810, Note_on_c, 0, 51, 75
1, 188810, Note_on_c, 0, 64, 91
1, 188812, Note_on_c, 0, 69, 75
1, 188814, Note_on_c, 0, 61, 86
1, 188820, Note_on_c, 0, 57, 69
1, 188859, Note_off_c, 0, 64, 65
1, 188871, Note_off_c, 0, 61, 60
1, 188882, Note_off_c, 0, 57, 63
1, 188887, Note_off_c, 0, 75, 64
1, 188888, Note_off_c, 0, 51, 60
1, 188889, Note_off_c, 0, 69, 62
1, 188944, Note_on_c, 0, 64, 96
1, 188944, Note_on_c, 0, 69, 72
1, 188946, Note_on_c, 0, 61, 84
1, 188946, Note_on_c, 0, 73, 88
1, 188951, Note_on_c, 0, 57, 77
1, 188964, Note_on_c, 0, 51, 25
1, 188967, Note_on_c, 0, 52, 79
1, 188994, Note_off_c, 0, 51, 52
1, 189006, Note_off_c, 0, 64, 62
1, 189015, Note_off_c, 0, 61, 62
1, 189018, Note_off_c, 0, 57, 59
1, 189024, Note_off_c, 0, 52, 61
1, 189031, Note_off_c, 0, 69, 59
1, 189036, Note_off_c, 0, 73, 60
1, 189093, Note_on_c, 0, 73, 76
1, 189096, Note_on_c, 0, 61, 93
1, 189099, Note_on_c, 0, 64, 89
1, 189099, Note_on_c, 0, 69, 74
1, 189103, Note_on_c, 0, 52, 67
1, 189109, Note_on_c, 0, 57, 72
1, 189150, Note_off_c, 0, 64, 59
1, 189152, Note_off_c, 0, 61, 63
1, 189156, Note_off_c, 0, 57, 63
1, 189170, Note_off_c, 0, 69, 61
1, 189178, Note_off_c, 0, 52, 64
1, 189205, Poly_aftertouch_c, 0, 58, 0
1, 189215, Note_off_c, 0, 73, 58
1, 189248, Control_c, 0, 64, 106
1, 189263, Control_c, 0, 64, 78
1, 189278, Control_c, 0, 64, 57
1, 189293, Control_c, 0, 64, 0
1, 189305, Note_on_c, 0, 59, 83
1, 189306, Note_on_c, 0, 68, 81
1, 189307, Note_on_c, 0, 63, 88
1, 189310, Note_on_c, 0, 51, 75
1, 189313, Note_on_c, 0, 71, 73
1, 189313, Note_on_c, 0, 75, 81
1, 189317, Note_on_c, 0, 56, 73
1, 189338, Control_c, 0, 64, 37
1, 189353, Control_c, 0, 64, 64
1, 189361, Note_off_c, 0, 63, 62
1, 189363, Note_off_c, 0, 59, 63
1, 189367, Note_on_c, 0, 73, 6
1, 189368, Note_off_c, 0, 56, 56
1, 189368, Control_c, 0, 64, 87
1, 189372, Note_off_c, 0, 68, 63
1, 189373, Note_off_c, 0, 71, 61
1, 189376, Note_off_c, 0, 51, 61
1, 189377, Note_off_c, 0, 75, 64
1, 189383, Control_c, 0, 64, 127
1, 189412, Note_off_c, 0, 73, 53
1, 189474, Note_on_c, 0, 64, 77
1, 189477, Note_on_c, 0, 76, 76
1, 189481, Note_on_c, 0, 50, 69
1, 189483, Note_on_c, 0, 62, 66
1, 189507, Note_off_c, 0, 64, 59
1, 189513, Note_off_c, 0, 62, 65
1, 189516, Note_off_c, 0, 50, 62
1, 189518, Note_off_c, 0, 76, 61
1, 189618, Note_on_c, 0, 65, 72
1, 189619, Note_on_c, 0, 61, 77
1, 189619, Note_on_c, 0, 77, 73
1, 189623, Note_on_c, 0, 49, 72
1, 189642, Note_off_c, 0, 65, 68
1, 189642, Note_off_c, 0, 77, 68
1, 189647, Note_off_c, 0, 61, 63
1, 189667, Note_off_c, 0, 49, 61
1, 189721, Note_on_c, 0, 66, 78
1, 189725, Note_on_c, 0, 78, 78
1, 189734, Note_on_c, 0, 60, 78
1, 189746, Note_off_c, 0, 66, 64
1, 189751, Note_on_c, 0, 48, 55
1, 189754, Note_off_c, 0, 78, 60
1, 189758, Note_off_c, 0, 60, 68
1, 189777, Note_off_c, 0, 48, 55
1, 189831, Note_on_c, 0, 67, 80
1, 189832, Note_on_c, 0, 79, 83
1, 189838, Note_on_c, 0, 59, 81
1, 189849, Note_on_c, 0, 47, 61
1, 189852, Note_off_c, 0, 67, 70
1, 189854, Note_off_c, 0, 79, 67
1, 189865, Note_off_c, 0, 59, 67
1, 189871, Note_off_c, 0, 47, 62
1, 189924, Note_on_c, 0, 68, 89
1, 189928, Note_on_c, 0, 80, 78
1, 189930, Note_on_c, 0, 58, 87
1, 189939, Note_on_c, 0, 46, 70
1, 189946, Note_off_c, 0, 68, 64
1, 189955, Note_off_c, 0, 80, 62
1, 189957, Note_off_c, 0, 58, 65
1, 189963, Note_on_c, 0, 78, 32
1, 189971, Note_off_c, 0, 46, 64
1, 189976, Note_on_c, 0, 47, 11
1, 189995, Note_off_c, 0, 78, 47
1, 190011, Note_off_c, 0, 47, 30
1, 190022, Note_on_c, 0, 57, 90
1, 190024, Note_on_c, 0, 69, 87
1, 190026, Note_on_c, 0, 81, 91
1, 190040, Note_on_c, 0, 45, 66
1, 190058, Note_off_c, 0, 57, 65
1, 190059, Note_off_c, 0, 69, 64
1, 190062, Note_off_c, 0, 81, 65
1, 190066, Note_off_c, 0, 45, 63
1, 190098, Poly_aftertouch_c, 0, 50, 0
1, 190115, Note_on_c, 0, 70, 97
1, 190118, Note_on_c, 0, 56, 90
1, 190118, Note_on_c, 0, 82, 93
1, 190127, Note_on_c, 0, 44, 80
1, 190136, Poly_aftertouch_c, 0, 50, 127
1, 190139, Poly_aftertouch_c, 0, 48, 127
1, 190149, Note_off_c, 0, 56, 64
1, 190157, Note_off_c, 0, 82, 66
1, 190158, Note_off_c, 0, 44, 66
1, 190160, Note_off_c, 0, 70, 62
1, 190172, Poly_aftertouch_c, 0, 50, 0
1, 190182, Poly_aftertouch_c, 0, 48, 0
1, 190211, Note_on_c, 0, 55, 90
1, 190216, Note_on_c, 0, 43, 82
1, 190217, Poly_aftertouch_c, 0, 80, 0
1, 190219, Note_on_c, 0, 71, 95
1, 190220, Note_on_c, 0, 83, 96
1, 190242, Note_on_c, 0, 51, 31
1, 190252, Note_off_c, 0, 71, 67
1, 190252, Note_off_c, 0, 55, 65
1, 190255, Note_off_c, 0, 43, 64
1, 190260, Note_off_c, 0, 83, 67
1, 190279, Note_off_c, 0, 51, 42
1, 190325, Note_on_c, 0, 54, 97
1, 190330, Note_on_c, 0, 84, 98
1, 190331, Note_on_c, 0, 72, 101
1, 190333, Note_on_c, 0, 42, 88
1, 190365, Note_on_c, 0, 83, 49
1, 190366, Note_off_c, 0, 72, 66
1, 190368, Note_off_c, 0, 54, 66
1, 190369, Note_off_c, 0, 42, 65
1, 190370, Note_off_c, 0, 84, 68
1, 190387, Note_off_c, 0, 83, 58
1, 190431, Note_on_c, 0, 53, 93
1, 190433, Note_on_c, 0, 41, 76
1, 190435, Note_on_c, 0, 73, 98
1, 190437, Note_on_c, 0, 85, 96
1, 190473, Note_off_c, 0, 73, 67
1, 190475, Note_off_c, 0, 41, 63
1, 190475, Note_off_c, 0, 53, 64
1, 190481, Note_off_c, 0, 85, 65
1, 190539, Note_on_c, 0, 74, 98
1, 190540, Note_on_c, 0, 52, 89
1, 190542, Note_on_c, 0, 86, 94
1, 190551, Note_on_c, 0, 40, 69
1, 190577, Note_off_c, 0, 86, 66
1, 190577, Note_off_c, 0, 74, 67
1, 190579, Note_on_c, 0, 84, 35
1, 190583, Note_off_c, 0, 40, 65
1, 190590, Note_off_c, 0, 52, 64
1, 190607, Note_off_c, 0, 84, 59
1, 190628, Control_c, 0, 64, 98
1, 190642, Control_c, 0, 64, 69
1, 190657, Control_c, 0, 64, 43
1, 190672, Control_c, 0, 64, 0
1, 190678, Note_on_c, 0, 51, 94
1, 190681, Note_on_c, 0, 82, 68
1, 190682, Note_on_c, 0, 46, 76
1, 190684, Note_on_c, 0, 79, 85
1, 190684, Note_on_c, 0, 75, 96
1, 190687, Note_on_c, 0, 87, 92
1, 190690, Note_on_c, 0, 39, 82
1, 190697, Note_on_c, 0, 43, 69
1, 190701, Control_c, 0, 64, 45
1, 190716, Control_c, 0, 64, 70
1, 190731, Control_c, 0, 64, 95
1, 190732, Note_off_c, 0, 75, 65
1, 190734, Note_off_c, 0, 51, 64
1, 190738, Note_off_c, 0, 79, 64
1, 190740, Note_off_c, 0, 46, 62
1, 190743, Note_off_c, 0, 43, 63
1, 190743, Note_off_c, 0, 87, 64
1, 190746, Control_c, 0, 64, 127
1, 190752, Note_off_c, 0, 82, 64
1, 190755, Note_off_c, 0, 39, 63
1, 190817, Note_on_c, 0, 50, 86
1, 190828, Note_on_c, 0, 38, 77
1, 190836, Note_on_c, 0, 88, 74
1, 190840, Note_on_c, 0, 76, 74
1, 190844, Note_on_c, 0, 77, 71
1, 190863, Note_on_c, 0, 89, 47
1, 190863, Note_off_c, 0, 50, 61
1, 190863, Note_off_c, 0, 38, 64
1, 190863, Note_off_c, 0, 76, 68
1, 190865, Note_off_c, 0, 88, 64
1, 190866, Note_off_c, 0, 77, 67
1, 190888, Note_off_c, 0, 89, 42
1, 190938, Note_on_c, 0, 49, 86
1, 190941, Note_on_c, 0, 77, 80
1, 190949, Note_on_c, 0, 37, 78
1, 190951, Note_on_c, 0, 89, 89
1, 190957, Note_on_c, 0, 43, 55
1, 190969, Note_off_c, 0, 89, 71
1, 190974, Note_off_c, 0, 77, 63
1, 190978, Note_off_c, 0, 49, 62
1, 190988, Note_off_c, 0, 43, 59
1, 190992, Note_off_c, 0, 37, 60
1, 191045, Note_on_c, 0, 48, 84
1, 191046, Note_on_c, 0, 78, 88
1, 191051, Note_on_c, 0, 90, 91
1, 191058, Note_on_c, 0, 36, 73
1, 191088, Note_off_c, 0, 78, 63
1, 191090, Note_off_c, 0, 48, 62
1, 191093, Note_off_c, 0, 90, 64
1, 191099, Note_off_c, 0, 36, 63
1, 191153, Note_on_c, 0, 47, 88
1, 191154, Note_on_c, 0, 79, 95
1, 191158, Note_on_c, 0, 91, 94
1, 191165, Note_on_c, 0, 35, 82
1, 191174, Note_on_c, 0, 89, 63
1, 191191, Note_off_c, 0, 79, 66
1, 191192, Note_off_c, 0, 91, 67
1, 191193, Note_off_c, 0, 89, 64
1, 191195, Note_off_c, 0, 35, 64
1, 191197, Note_off_c, 0, 47, 64
1, 191256, Note_on_c, 0, 80, 91
1, 191261, Note_on_c, 0, 46, 92
1, 191265, Note_on_c, 0, 92, 80
1, 191273, Note_on_c, 0, 90, 76
1, 191277, Note_on_c, 0, 34, 73
1, 191295, Note_on_c, 0, 39, 48
1, 191296, Note_off_c, 0, 90, 65
1, 191302, Note_off_c, 0, 80, 62
1, 191308, Note_off_c, 0, 46, 62
1, 191313, Note_off_c, 0, 92, 64
1, 191322, Note_off_c, 0, 34, 59
1, 191324, Note_off_c, 0, 39, 52
1, 191331, Control_c, 0, 64, 91
1, 191346, Control_c, 0, 64, 64
1, 191361, Control_c, 0, 64, 51
1, 191376, Note_on_c, 0, 45, 96
1, 191376, Control_c, 0, 64, 56
1, 191385, Note_on_c, 0, 81, 93
1, 191385, Note_on_c, 0, 93, 100
1, 191391, Control_c, 0, 64, 65
1, 191392, Note_on_c, 0, 33, 74
1, 191406, Control_c, 0, 64, 79
1, 191421, Control_c, 0, 64, 127
1, 191421, Note_off_c, 0, 33, 64
1, 191427, Note_off_c, 0, 45, 64
1, 191427, Note_off_c, 0, 81, 66
1, 191428, Note_off_c, 0, 93, 68
1, 191442, Note_on_c, 0, 38, 34
1, 191465, Control_c, 0, 64, 111
1, 191480, Control_c, 0, 64, 73
1, 191487, Note_off_c, 0, 38, 56
1, 191495, Control_c, 0, 64, 61
1, 191506, Note_on_c, 0, 82, 88
1, 191507, Note_on_c, 0, 94, 99
1, 191509, Note_on_c, 0, 44, 94
1, 191510, Control_c, 0, 64, 64
1, 191519, Note_on_c, 0, 32, 83
1, 191524, Control_c, 0, 64, 80
1, 191539, Control_c, 0, 64, 127
1, 191556, Note_off_c, 0, 82, 63
1, 191558, Note_off_c, 0, 44, 61
1, 191564, Note_off_c, 0, 94, 65
1, 191581, Note_off_c, 0, 32, 64
1, 191584, Control_c, 0, 64, 83
1, 191598, Control_c, 0, 64, 66
1, 191613, Control_c, 0, 64, 61
1, 191628, Control_c, 0, 64, 66
1, 191642, Note_on_c, 0, 43, 88
1, 191642, Note_on_c, 0, 83, 94
1, 191642, Control_c, 0, 64, 79
1, 191645, Note_on_c, 0, 95, 101
1, 191647, Note_on_c, 0, 31, 84
1, 191657, Control_c, 0, 64, 127
1, 191685, Note_on_c, 0, 94, 44
1, 191686, Note_off_c, 0, 83, 66
1, 191689, Note_off_c, 0, 95, 68
1, 191691, Note_off_c, 0, 43, 65
1, 191692, Note_off_c, 0, 31, 63
1, 191712, Note_off_c, 0, 94, 37
1, 191718, Control_c, 0, 64, 74
1, 191732, Control_c, 0, 64, 50
1, 191747, Control_c, 0, 64, 45
1, 191762, Control_c, 0, 64, 59
1, 191777, Control_c, 0, 64, 71
1, 191781, Note_on_c, 0, 42, 93
1, 191791, Note_on_c, 0, 97, 98
1, 191799, Note_on_c, 0, 85, 84
1, 191799, Note_on_c, 0, 30, 80
1, 191799, Control_c, 0, 64, 95
1, 191813, Note_on_c, 0, 87, 65
1, 191814, Control_c, 0, 64, 127
1, 191821, Note_on_c, 0, 32, 51
1, 191826, Note_on_c, 0, 34, 41
1, 191828, Note_off_c, 0, 87, 66
1, 191829, Note_on_c, 0, 98, 43
1, 191846, Note_off_c, 0, 85, 62
1, 191853, Note_off_c, 0, 98, 53
1, 191854, Note_off_c, 0, 42, 62
1, 191865, Note_off_c, 0, 34, 54
1, 191868, Note_off_c, 0, 97, 60
1, 191870, Note_off_c, 0, 30, 61
1, 191873, Control_c, 0, 64, 124
1, 191880, Note_off_c, 0, 32, 56
1, 191888, Control_c, 0, 64, 76
1, 191903, Control_c, 0, 64, 57
1, 191918, Control_c, 0, 64, 36
1, 191933, Control_c, 0, 64, 43
1, 191948, Control_c, 0, 64, 64
1, 191963, Control_c, 0, 64, 80
1, 191967, Note_on_c, 0, 98, 85
1, 191970, Note_on_c, 0, 40, 96
1, 191974, Note_on_c, 0, 86, 99
1, 191977, Note_on_c, 0, 28, 88
1, 191978, Control_c, 0, 64, 127
1, 191991, Note_on_c, 0, 97, 66
1, 192002, Note_on_c, 0, 88, 54
1, 192003, Note_off_c, 0, 88, 127
1, 192006, Note_off_c, 0, 97, 67
1, 192026, Note_off_c, 0, 98, 66
1, 192027, Note_off_c, 0, 86, 66
1, 192029, Note_off_c, 0, 40, 64
1, 192048, Note_off_c, 0, 28, 63
1, 192111, Control_c, 0, 64, 80
1, 192126, Control_c, 0, 64, 60
1, 192131, Note_on_c, 0, 94, 39
1, 192140, Control_c, 0, 64, 15
1, 192155, Control_c, 0, 64, 0
1, 192183, Note_on_c, 0, 99, 96
1, 192185, Control_c, 0, 64, 51
1, 192187, Note_on_c, 0, 91, 89
1, 192187, Note_on_c, 0, 39, 97
1, 192189, Note_on_c, 0, 27, 87
1, 192190, Note_on_c, 0, 87, 98
1, 192200, Control_c, 0, 64, 72
1, 192214, Control_c, 0, 64, 113
1, 192223, Note_off_c, 0, 99, 68
1, 192229, Control_c, 0, 64, 127
1, 192232, Note_off_c, 0, 91, 67
1, 192235, Note_off_c, 0, 94, 64
1, 192241, Note_off_c, 0, 87, 64
1, 192249, Note_off_c, 0, 39, 65
1, 192254, Note_off_c, 0, 27, 62
1, 192452, Control_c, 0, 64, 92
1, 192466, Control_c, 0, 64, 65
1, 192481, Control_c, 0, 64, 24
1, 192496, Control_c, 0, 64, 0
1, 192501, Note_on_c, 0, 68, 58
1, 192504, Note_on_c, 0, 44, 91
1, 192507, Note_on_c, 0, 32, 78
1, 192511, Note_on_c, 0, 59, 84
1, 192514, Note_on_c, 0, 39, 79
1, 192514, Note_on_c, 0, 63, 79
1, 192544, Note_off_c, 0, 59, 67
1, 192549, Control_c, 0, 64, 54
1, 192551, Note_off_c, 0, 39, 66
1, 192551, Note_off_c, 0, 44, 65
1, 192559, Note_off_c, 0, 32, 63
1, 192562, Note_off_c, 0, 63, 61
1, 192563, Control_c, 0, 64, 79
1, 192572, Note_off_c, 0, 68, 65
1, 192578, Control_c, 0, 64, 127
1, 192700, Note_on_c, 0, 39, 79
1, 192700, Note_on_c, 0, 51, 84
1, 192723, Note_off_c, 0, 51, 66
1, 192743, Note_off_c, 0, 39, 63
1, 192803, Note_on_c, 0, 56, 92
1, 192805, Note_on_c, 0, 44, 84
1, 192829, Note_off_c, 0, 56, 65
1, 192832, Note_on_c, 0, 46, 47
1, 192837, Note_off_c, 0, 44, 65
1, 192858, Note_off_c, 0, 46, 50
1, 192907, Note_on_c, 0, 63, 88
1, 192907, Note_on_c, 0, 75, 88
1, 192907, Note_on_c, 0, 83, 87
1, 192909, Note_on_c, 0, 71, 95
1, 192913, Note_on_c, 0, 51, 69
1, 192926, Note_off_c, 0, 63, 71
1, 192939, Note_off_c, 0, 51, 66
1, 192943, Note_off_c, 0, 71, 64
1, 192947, Note_off_c, 0, 75, 65
1, 192950, Note_off_c, 0, 83, 64
1, 193068, Note_on_c, 0, 39, 48
1, 193081, Control_c, 0, 64, 83
1, 193096, Control_c, 0, 64, 60
1, 193099, Note_on_c, 0, 70, 93
1, 193102, Note_off_c, 0, 39, 0
1, 193102, Note_on_c, 0, 82, 79
1, 193105, Note_on_c, 0, 75, 78
1, 193109, Note_on_c, 0, 44, 86
1, 193111, Note_on_c, 0, 32, 80
1, 193111, Control_c, 0, 64, 24
1, 193126, Control_c, 0, 64, 25
1, 193129, Note_off_c, 0, 75, 68
1, 193132, Note_off_c, 0, 70, 60
1, 193132, Poly_aftertouch_c, 0, 79, 0
1, 193139, Poly_aftertouch_c, 0, 39, 0
1, 193141, Control_c, 0, 64, 52
1, 193144, Note_off_c, 0, 44, 65
1, 193147, Note_off_c, 0, 32, 65
1, 193149, Note_off_c, 0, 82, 64
1, 193156, Control_c, 0, 64, 69
1, 193170, Control_c, 0, 64, 107
1, 193185, Control_c, 0, 64, 127
1, 193190, Note_on_c, 0, 71, 97
1, 193192, Note_on_c, 0, 83, 93
1, 193222, Note_off_c, 0, 71, 65
1, 193224, Note_off_c, 0, 83, 66
1, 193268, Note_on_c, 0, 51, 91
1, 193286, Note_on_c, 0, 39, 81
1, 193289, Note_on_c, 0, 85, 95
1, 193291, Note_on_c, 0, 73, 92
1, 193302, Note_off_c, 0, 51, 66
1, 193311, Note_off_c, 0, 73, 68
1, 193312, Note_off_c, 0, 39, 66
1, 193314, Note_off_c, 0, 85, 63
1, 193385, Note_on_c, 0, 46, 76
1, 193385, Poly_aftertouch_c, 0, 42, 0
1, 193389, Note_on_c, 0, 58, 77
1, 193391, Note_on_c, 0, 56, 66
1, 193409, Note_off_c, 0, 56, 66
1, 193412, Note_off_c, 0, 58, 68
1, 193415, Note_off_c, 0, 46, 65
1, 193420, Note_on_c, 0, 79, 37
1, 193458, Note_off_c, 0, 79, 45
1, 193486, Note_on_c, 0, 71, 89
1, 193487, Note_on_c, 0, 75, 84
1, 193490, Note_on_c, 0, 83, 85
1, 193492, Note_on_c, 0, 63, 86
1, 193508, Note_on_c, 0, 56, 33
1, 193510, Note_off_c, 0, 63, 71
1, 193513, Note_off_c, 0, 83, 67
1, 193516, Poly_aftertouch_c, 0, 82, 0
1, 193517, Note_off_c, 0, 71, 64
1, 193521, Note_on_c, 0, 51, 37
1, 193526, Note_off_c, 0, 75, 66
1, 193539, Note_off_c, 0, 56, 48
1, 193551, Note_off_c, 0, 51, 49
1, 193582, Note_on_c, 0, 70, 93
1, 193589, Note_on_c, 0, 82, 81
1, 193608, Control_c, 0, 64, 85
1, 193618, Note_off_c, 0, 82, 62
1, 193623, Control_c, 0, 64, 60
1, 193627, Note_off_c, 0, 70, 62
1, 193637, Control_c, 0, 64, 29
1, 193647, Note_on_c, 0, 39, 31
1, 193651, Poly_aftertouch_c, 0, 79, 0
1, 193652, Control_c, 0, 64, 34
1, 193667, Control_c, 0, 64, 57
1, 193677, Note_on_c, 0, 71, 90
1, 193679, Note_on_c, 0, 44, 71
1, 193682, Note_on_c, 0, 32, 75
1, 193682, Note_on_c, 0, 83, 88
1, 193682, Control_c, 0, 64, 75
1, 193684, Note_on_c, 0, 75, 81
1, 193686, Note_off_c, 0, 39, 41
1, 193695, Note_on_c, 0, 34, 51
1, 193695, Note_on_c, 0, 46, 62
1, 193697, Control_c, 0, 64, 127
1, 193702, Note_off_c, 0, 71, 65
1, 193704, Note_on_c, 0, 40, 44
1, 193704, Note_off_c, 0, 75, 70
1, 193705, Note_off_c, 0, 32, 66
1, 193707, Note_off_c, 0, 83, 65
1, 193708, Note_off_c, 0, 44, 66
1, 193716, Note_off_c, 0, 46, 61
1, 193728, Note_off_c, 0, 34, 54
1, 193739, Note_off_c, 0, 40, 43
1, 193774, Note_on_c, 0, 73, 97
1, 193776, Note_on_c, 0, 85, 102
1, 193808, Note_off_c, 0, 73, 67
1, 193812, Note_off_c, 0, 85, 64
1, 193849, Note_on_c, 0, 51, 84
1, 193856, Note_on_c, 0, 39, 81
1, 193875, Note_on_c, 0, 87, 93
1, 193875, Note_off_c, 0, 51, 65
1, 193877, Note_on_c, 0, 75, 93
1, 193887, Note_off_c, 0, 39, 67
1, 193903, Note_off_c, 0, 87, 58
1, 193907, Note_off_c, 0, 75, 58
1, 193915, Note_on_c, 0, 85, 36
1, 193916, Note_off_c, 0, 85, 127
1, 193954, Note_on_c, 0, 56, 88
1, 193955, Note_on_c, 0, 44, 85
1, 193977, Note_off_c, 0, 56, 67
1, 193983, Note_on_c, 0, 46, 39
1, 193983, Note_off_c, 0, 44, 66
1, 194006, Note_off_c, 0, 46, 50
1, 194063, Note_on_c, 0, 85, 86
1, 194066, Note_on_c, 0, 73, 91
1, 194071, Note_on_c, 0, 63, 72
1, 194088, Note_on_c, 0, 54, 50
1, 194090, Note_off_c, 0, 63, 68
1, 194097, Note_on_c, 0, 51, 39
1, 194109, Note_off_c, 0, 73, 67
1, 194110, Note_off_c, 0, 85, 65
1, 194113, Note_off_c, 0, 54, 56
1, 194123, Note_off_c, 0, 51, 36
1, 194169, Note_on_c, 0, 71, 86
1, 194170, Note_on_c, 0, 83, 82
1, 194195, Note_off_c, 0, 71, 65
1, 194196, Note_off_c, 0, 83, 66
1, 194202, Note_on_c, 0, 81, 42
1, 194209, Note_on_c, 0, 78, 22
1, 194209, Control_c, 0, 64, 78
1, 194223, Control_c, 0, 64, 57
1, 194229, Note_off_c, 0, 81, 55
1, 194238, Note_off_c, 0, 78, 44
1, 194238, Control_c, 0, 64, 0
1, 194258, Note_on_c, 0, 44, 63
1, 194264, Note_on_c, 0, 70, 88
1, 194268, Note_on_c, 0, 32, 77
1, 194268, Control_c, 0, 64, 46
1, 194268, Note_on_c, 0, 39, 55
1, 194270, Note_on_c, 0, 82, 78
1, 194282, Note_on_c, 0, 74, 63
1, 194282, Control_c, 0, 64, 67
1, 194286, Note_off_c, 0, 70, 67
1, 194297, Control_c, 0, 64, 85
1, 194298, Note_off_c, 0, 39, 65
1, 194300, Note_off_c, 0, 74, 65
1, 194301, Note_off_c, 0, 32, 66
1, 194303, Note_off_c, 0, 44, 63
1, 194306, Note_off_c, 0, 82, 64
1, 194312, Control_c, 0, 64, 127
1, 194364, Note_on_c, 0, 71, 92
1, 194369, Note_on_c, 0, 83, 92
1, 194391, Note_off_c, 0, 83, 67
1, 194393, Note_off_c, 0, 71, 65
1, 194432, Note_on_c, 0, 51, 88
1, 194438, Note_on_c, 0, 39, 65
1, 194455, Note_on_c, 0, 85, 93
1, 194456, Note_on_c, 0, 73, 94
1, 194461, Note_off_c, 0, 51, 65
1, 194470, Note_off_c, 0, 39, 66
1, 194497, Note_off_c, 0, 85, 65
1, 194499, Note_off_c, 0, 73, 64
1, 194532, Note_on_c, 0, 44, 44
1, 194536, Note_on_c, 0, 56, 87
1, 194563, Note_on_c, 0, 46, 49
1, 194563, Note_off_c, 0, 56, 64
1, 194576, Note_off_c, 0, 44, 64
1, 194589, Note_off_c, 0, 46, 52
1, 194647, Note_on_c, 0, 71, 89
1, 194648, Note_on_c, 0, 75, 87
1, 194648, Note_on_c, 0, 83, 81
1, 194652, Note_on_c, 0, 63, 81
1, 194668, Note_off_c, 0, 83, 69
1, 194673, Note_off_c, 0, 63, 71
1, 194674, Note_off_c, 0, 71, 65
1, 194688, Note_off_c, 0, 75, 66
1, 194742, Note_on_c, 0, 70, 92
1, 194753, Note_on_c, 0, 82, 72
1, 194762, Note_on_c, 0, 79, 44
1, 194777, Note_off_c, 0, 82, 69
1, 194777, Note_off_c, 0, 70, 59
1, 194793, Control_c, 0, 64, 77
1, 194796, Note_off_c, 0, 79, 54
1, 194808, Control_c, 0, 64, 56
1, 194823, Control_c, 0, 64, 29
1, 194838, Control_c, 0, 64, 39
1, 194850, Note_on_c, 0, 71, 91
1, 194853, Note_on_c, 0, 75, 79
1, 194853, Control_c, 0, 64, 59
1, 194856, Note_on_c, 0, 32, 75
1, 194856, Note_on_c, 0, 83, 83
1, 194867, Control_c, 0, 64, 73
1, 194868, Poly_aftertouch_c, 0, 39, 127
1, 194872, Poly_aftertouch_c, 0, 44, 127
1, 194876, Note_off_c, 0, 83, 68
1, 194877, Note_off_c, 0, 75, 67
1, 194879, Note_off_c, 0, 71, 65
1, 194881, Note_off_c, 0, 32, 65
1, 194882, Control_c, 0, 64, 104
1, 194885, Poly_aftertouch_c, 0, 39, 0
1, 194891, Poly_aftertouch_c, 0, 44, 0
1, 194897, Control_c, 0, 64, 127
1, 194947, Note_on_c, 0, 70, 96
1, 194951, Note_on_c, 0, 82, 87
1, 194974, Note_off_c, 0, 82, 64
1, 194977, Note_off_c, 0, 70, 61
1, 194982, Note_on_c, 0, 80, 42
1, 195007, Note_off_c, 0, 80, 57
1, 195028, Note_on_c, 0, 51, 87
1, 195031, Note_on_c, 0, 39, 75
1, 195044, Note_on_c, 0, 68, 91
1, 195048, Note_on_c, 0, 80, 93
1, 195053, Note_off_c, 0, 51, 67
1, 195062, Note_off_c, 0, 68, 72
1, 195066, Note_off_c, 0, 39, 65
1, 195075, Note_off_c, 0, 80, 59
1, 195132, Note_on_c, 0, 56, 88
1, 195135, Note_on_c, 0, 44, 85
1, 195161, Note_off_c, 0, 56, 63
1, 195176, Note_on_c, 0, 46, 28
1, 195176, Note_off_c, 0, 44, 62
1, 195211, Note_off_c, 0, 46, 40
1, 195249, Note_on_c, 0, 63, 88
1, 195252, Note_on_c, 0, 83, 91
1, 195254, Note_on_c, 0, 87, 95
1, 195254, Note_on_c, 0, 95, 93
1, 195261, Note_on_c, 0, 51, 66
1, 195269, Note_off_c, 0, 63, 71
1, 195290, Note_off_c, 0, 83, 66
1, 195291, Note_off_c, 0, 51, 66
1, 195293, Note_off_c, 0, 95, 66
1, 195305, Note_off_c, 0, 87, 63
1, 195308, Poly_aftertouch_c, 0, 91, 0
1, 195402, Control_c, 0, 64, 109
1, 195410, Note_on_c, 0, 91, 26
1, 195417, Control_c, 0, 64, 71
1, 195432, Control_c, 0, 64, 49
1, 195438, Note_on_c, 0, 82, 84
1, 195441, Note_on_c, 0, 32, 64
1, 195441, Note_on_c, 0, 87, 77
1, 195445, Note_on_c, 0, 94, 81
1, 195447, Control_c, 0, 64, 36
1, 195448, Note_on_c, 0, 44, 81
1, 195454, Note_off_c, 0, 91, 46
1, 195462, Control_c, 0, 64, 54
1, 195466, Note_off_c, 0, 82, 65
1, 195466, Note_off_c, 0, 87, 66
1, 195472, Note_on_c, 0, 39, 44
1, 195476, Control_c, 0, 64, 70
1, 195478, Note_off_c, 0, 44, 65
1, 195485, Note_off_c, 0, 94, 66
1, 195491, Control_c, 0, 64, 101
1, 195493, Note_off_c, 0, 32, 64
1, 195502, Note_off_c, 0, 39, 33
1, 195506, Control_c, 0, 64, 127
1, 195538, Note_on_c, 0, 83, 95
1, 195543, Note_on_c, 0, 95, 96
1, 195571, Note_off_c, 0, 83, 65
1, 195571, Note_off_c, 0, 95, 66
1, 195616, Note_on_c, 0, 51, 87
1, 195617, Note_on_c, 0, 39, 70
1, 195631, Note_on_c, 0, 97, 98
1, 195632, Note_on_c, 0, 85, 98
1, 195639, Note_off_c, 0, 51, 67
1, 195654, Note_off_c, 0, 39, 63
1, 195672, Note_off_c, 0, 85, 63
1, 195676, Note_off_c, 0, 97, 66
1, 195718, Note_on_c, 0, 56, 88
1, 195722, Note_on_c, 0, 44, 79
1, 195735, Note_on_c, 0, 51, 2
1, 195742, Note_on_c, 0, 46, 57
1, 195742, Note_off_c, 0, 56, 68
1, 195751, Note_off_c, 0, 44, 65
1, 195764, Note_off_c, 0, 46, 59
1, 195773, Note_off_c, 0, 51, 33
1, 195822, Note_on_c, 0, 83, 88
1, 195824, Note_on_c, 0, 87, 80
1, 195826, Note_on_c, 0, 63, 85
1, 195827, Note_on_c, 0, 95, 79
1, 195843, Note_off_c, 0, 63, 69
1, 195848, Note_off_c, 0, 95, 71
1, 195850, Note_off_c, 0, 83, 64
1, 195852, Note_on_c, 0, 91, 43
1, 195868, Note_off_c, 0, 87, 65
1, 195917, Note_on_c, 0, 82, 90
1, 195924, Note_on_c, 0, 94, 85
1, 195925, Note_off_c, 0, 91, 0
1, 195941, Note_on_c, 0, 91, 9
1, 195958, Control_c, 0, 64, 97
1, 195963, Note_off_c, 0, 82, 63
1, 195969, Note_off_c, 0, 94, 65
1, 195973, Control_c, 0, 64, 66
1, 195985, Note_off_c, 0, 91, 37
1, 195988, Control_c, 0, 64, 40
1, 196003, Control_c, 0, 64, 29
1, 196018, Control_c, 0, 64, 56
1, 196020, Note_on_c, 0, 44, 89
1, 196022, Note_on_c, 0, 83, 93
1, 196026, Note_on_c, 0, 39, 67
1, 196026, Note_on_c, 0, 87, 83
1, 196026, Note_on_c, 0, 32, 75
1, 196027, Note_on_c, 0, 95, 94
1, 196032, Control_c, 0, 64, 73
1, 196047, Control_c, 0, 64, 127
1, 196051, Note_off_c, 0, 87, 65
1, 196053, Note_off_c, 0, 39, 66
1, 196053, Note_off_c, 0, 83, 64
1, 196055, Note_off_c, 0, 44, 63
1, 196057, Note_off_c, 0, 32, 64
1, 196057, Note_off_c, 0, 95, 63
1, 196119, Note_on_c, 0, 85, 97
1, 196123, Note_on_c, 0, 97, 100
1, 196156, Note_off_c, 0, 85, 64
1, 196160, Note_off_c, 0, 97, 64
1, 196192, Note_on_c, 0, 51, 86
1, 196195, Note_on_c, 0, 39, 67
1, 196216, Note_on_c, 0, 87, 71
1, 196218, Note_off_c, 0, 51, 66
1, 196224, Note_on_c, 0, 99, 91
1, 196226, Note_off_c, 0, 39, 67
1, 196248, Note_off_c, 0, 99, 60
1, 196249, Note_off_c, 0, 87, 64
1, 196304, Note_on_c, 0, 56, 87
1, 196308, Note_on_c, 0, 44, 81
1, 196333, Note_off_c, 0, 56, 64
1, 196334, Note_off_c, 0, 44, 65
1, 196417, Note_on_c, 0, 97, 92
1, 196417, Note_on_c, 0, 63, 87
1, 196418, Note_on_c, 0, 85, 89
1, 196434, Note_off_c, 0, 63, 72
1, 196435, Note_on_c, 0, 51, 55
1, 196460, Note_off_c, 0, 51, 53
1, 196466, Note_off_c, 0, 85, 63
1, 196466, Note_off_c, 0, 97, 66
1, 196521, Note_on_c, 0, 83, 90
1, 196531, Note_on_c, 0, 95, 74
1, 196545, Note_on_c, 0, 92, 46
1, 196548, Note_off_c, 0, 83, 63
1, 196553, Note_off_c, 0, 95, 70
1, 196560, Control_c, 0, 64, 91
1, 196568, Note_off_c, 0, 92, 52
1, 196575, Control_c, 0, 64, 66
1, 196581, Note_on_c, 0, 91, 43
1, 196589, Control_c, 0, 64, 42
1, 196604, Control_c, 0, 64, 24
1, 196619, Control_c, 0, 64, 47
1, 196622, Note_on_c, 0, 44, 66
1, 196625, Poly_aftertouch_c, 0, 90, 0
1, 196627, Note_on_c, 0, 39, 62
1, 196628, Note_on_c, 0, 82, 85
1, 196629, Note_on_c, 0, 87, 82
1, 196632, Note_on_c, 0, 32, 77
1, 196634, Control_c, 0, 64, 68
1, 196634, Note_on_c, 0, 94, 86
1, 196646, Note_off_c, 0, 91, 65
1, 196649, Control_c, 0, 64, 96
1, 196659, Note_off_c, 0, 82, 61
1, 196663, Control_c, 0, 64, 127
1, 196664, Note_off_c, 0, 39, 69
1, 196664, Note_off_c, 0, 44, 64
1, 196667, Note_off_c, 0, 32, 65
1, 196677, Note_off_c, 0, 87, 62
1, 196679, Note_off_c, 0, 94, 65
1, 196733, Note_on_c, 0, 83, 91
1, 196739, Note_on_c, 0, 95, 92
1, 196770, Note_off_c, 0, 83, 66
1, 196770, Note_off_c, 0, 95, 68
1, 196779, Note_on_c, 0, 84, 29
1, 196806, Note_on_c, 0, 51, 85
1, 196809, Note_off_c, 0, 84, 50
1, 196817, Note_on_c, 0, 39, 72
1, 196831, Note_on_c, 0, 97, 94
1, 196832, Note_off_c, 0, 51, 67
1, 196836, Note_on_c, 0, 85, 95
1, 196847, Note_off_c, 0, 39, 64
1, 196872, Note_off_c, 0, 97, 66
1, 196881, Note_off_c, 0, 85, 61
1, 196910, Note_on_c, 0, 56, 88
1, 196914, Note_on_c, 0, 44, 80
1, 196935, Note_off_c, 0, 56, 66
1, 196938, Note_on_c, 0, 46, 51
1, 196944, Note_off_c, 0, 44, 64
1, 196964, Note_off_c, 0, 46, 52
1, 197030, Note_on_c, 0, 63, 87
1, 197031, Note_on_c, 0, 95, 87
1, 197033, Note_on_c, 0, 83, 83
1, 197034, Note_on_c, 0, 87, 81
1, 197047, Note_off_c, 0, 63, 72
1, 197058, Note_on_c, 0, 51, 45
1, 197068, Note_off_c, 0, 83, 66
1, 197069, Note_off_c, 0, 95, 63
1, 197081, Note_off_c, 0, 51, 56
1, 197087, Note_off_c, 0, 87, 63
1, 197129, Note_on_c, 0, 91, 19
1, 197138, Note_on_c, 0, 82, 87
1, 197147, Note_on_c, 0, 94, 82
1, 197178, Note_off_c, 0, 94, 61
1, 197179, Note_off_c, 0, 91, 62
1, 197182, Note_off_c, 0, 82, 64
1, 197188, Control_c, 0, 64, 113
1, 197203, Control_c, 0, 64, 72
1, 197218, Control_c, 0, 64, 52
1, 197233, Control_c, 0, 64, 39
1, 197243, Note_on_c, 0, 39, 23
1, 197243, Note_on_c, 0, 44, 15
1, 197248, Note_on_c, 0, 87, 82
1, 197248, Control_c, 0, 64, 57
1, 197248, Note_on_c, 0, 32, 76
1, 197251, Note_on_c, 0, 83, 88
1, 197251, Note_on_c, 0, 95, 90
1, 197262, Control_c, 0, 64, 71
1, 197277, Control_c, 0, 64, 103
1, 197279, Note_off_c, 0, 83, 64
1, 197282, Note_off_c, 0, 32, 66
1, 197285, Note_off_c, 0, 39, 62
1, 197285, Note_off_c, 0, 44, 63
1, 197287, Note_off_c, 0, 95, 62
1, 197292, Control_c, 0, 64, 127
1, 197295, Note_off_c, 0, 87, 64
1, 197353, Note_on_c, 0, 82, 94
1, 197355, Note_on_c, 0, 94, 93
1, 197397, Note_off_c, 0, 82, 65
1, 197397, Note_off_c, 0, 94, 65
1, 197436, Note_on_c, 0, 51, 82
1, 197445, Note_on_c, 0, 39, 76
1, 197457, Note_on_c, 0, 92, 91
1, 197457, Note_on_c, 0, 80, 85
1, 197469, Note_off_c, 0, 51, 62
1, 197477, Note_off_c, 0, 92, 63
1, 197484, Note_off_c, 0, 39, 65
1, 197496, Note_off_c, 0, 80, 64
1, 197561, Note_on_c, 0, 56, 79
1, 197573, Note_on_c, 0, 44, 62
1, 197586, Note_off_c, 0, 56, 66
1, 197595, Note_off_c, 0, 44, 60
1, 197633, Control_c, 0, 64, 107
1, 197648, Control_c, 0, 64, 68
1, 197663, Control_c, 0, 64, 48
1, 197678, Control_c, 0, 64, 47
1, 197681, Note_on_c, 0, 59, 90
1, 197681, Note_on_c, 0, 71, 86
1, 197686, Note_on_c, 0, 63, 87
1, 197690, Note_on_c, 0, 47, 68
1, 197691, Note_on_c, 0, 75, 83
1, 197693, Control_c, 0, 64, 60
1, 197708, Note_on_c, 0, 51, 58
1, 197708, Control_c, 0, 64, 71
1, 197719, Note_on_c, 0, 48, 51
1, 197719, Note_off_c, 0, 63, 60
1, 197722, Control_c, 0, 64, 92
1, 197737, Control_c, 0, 64, 127
1, 197745, Note_off_c, 0, 48, 36
1, 197746, Note_off_c, 0, 59, 62
1, 197752, Note_off_c, 0, 71, 56
1, 197755, Note_off_c, 0, 75, 62
1, 197759, Note_off_c, 0, 47, 62
1, 197777, Note_off_c, 0, 51, 62
1, 197867, Note_on_c, 0, 58, 82
1, 197878, Note_on_c, 0, 46, 65
1, 197880, Note_on_c, 0, 70, 76
1, 197883, Note_on_c, 0, 63, 77
1, 197889, Note_off_c, 0, 58, 67
1, 197898, Note_on_c, 0, 75, 58
1, 197904, Note_off_c, 0, 46, 67
1, 197906, Note_off_c, 0, 63, 68
1, 197911, Note_on_c, 0, 51, 30
1, 197916, Note_off_c, 0, 75, 64
1, 197928, Note_off_c, 0, 70, 61
1, 197937, Note_off_c, 0, 51, 48
1, 197952, Control_c, 0, 64, 76
1, 197965, Note_on_c, 0, 59, 90
1, 197967, Control_c, 0, 64, 53
1, 197971, Note_on_c, 0, 63, 84
1, 197974, Note_on_c, 0, 71, 75
1, 197975, Note_on_c, 0, 75, 79
1, 197977, Note_on_c, 0, 47, 62
1, 197982, Control_c, 0, 64, 0
1, 197998, Note_off_c, 0, 63, 63
1, 198000, Note_on_c, 0, 48, 45
1, 198001, Note_off_c, 0, 47, 61
1, 198003, Note_off_c, 0, 59, 62
1, 198005, Note_off_c, 0, 75, 65
1, 198006, Note_off_c, 0, 71, 66
1, 198011, Control_c, 0, 64, 40
1, 198026, Control_c, 0, 64, 63
1, 198032, Note_off_c, 0, 48, 34
1, 198041, Control_c, 0, 64, 79
1, 198056, Control_c, 0, 64, 127
1, 198057, Note_on_c, 0, 75, 93
1, 198062, Note_on_c, 0, 63, 90
1, 198065, Note_on_c, 0, 61, 88
1, 198070, Note_on_c, 0, 73, 59
1, 198083, Note_on_c, 0, 49, 63
1, 198101, Note_off_c, 0, 61, 64
1, 198104, Note_off_c, 0, 63, 63
1, 198111, Note_off_c, 0, 49, 66
1, 198116, Note_on_c, 0, 51, 21
1, 198134, Note_off_c, 0, 75, 61
1, 198147, Note_off_c, 0, 73, 35
1, 198235, Note_on_c, 0, 47, 57
1, 198236, Note_on_c, 0, 59, 69
1, 198244, Note_off_c, 0, 51, 0
1, 198254, Note_on_c, 0, 71, 65
1, 198257, Note_on_c, 0, 51, 39
1, 198259, Note_on_c, 0, 48, 47
1, 198268, Note_on_c, 0, 63, 60
1, 198277, Note_off_c, 0, 59, 65
1, 198283, Note_off_c, 0, 47, 63
1, 198288, Note_off_c, 0, 48, 49
1, 198295, Note_off_c, 0, 63, 65
1, 198298, Note_off_c, 0, 51, 62
1, 198312, Note_off_c, 0, 71, 62
1, 198349, Note_on_c, 0, 58, 88
1, 198354, Note_on_c, 0, 46, 77
1, 198357, Note_on_c, 0, 63, 91
1, 198357, Note_on_c, 0, 71, 69
1, 198359, Note_on_c, 0, 51, 71
1, 198360, Note_on_c, 0, 75, 80
1, 198367, Control_c, 0, 64, 69
1, 198369, Note_off_c, 0, 58, 70
1, 198373, Note_on_c, 0, 49, 49
1, 198382, Control_c, 0, 64, 49
1, 198383, Note_off_c, 0, 46, 67
1, 198383, Note_off_c, 0, 63, 63
1, 198388, Note_off_c, 0, 75, 65
1, 198390, Note_off_c, 0, 51, 63
1, 198397, Control_c, 0, 64, 47
1, 198402, Note_off_c, 0, 49, 45
1, 198409, Note_off_c, 0, 71, 64
1, 198412, Control_c, 0, 64, 61
1, 198426, Control_c, 0, 64, 72
1, 198436, Note_on_c, 0, 59, 87
1, 198441, Control_c, 0, 64, 94
1, 198448, Note_on_c, 0, 63, 92
1, 198448, Note_on_c, 0, 70, 85
1, 198451, Note_on_c, 0, 47, 72
1, 198451, Note_on_c, 0, 51, 81
1, 198456, Control_c, 0, 64, 127
1, 198457, Note_on_c, 0, 75, 80
1, 198477, Note_off_c, 0, 59, 65
1, 198480, Note_off_c, 0, 47, 66
1, 198483, Note_off_c, 0, 75, 61
1, 198486, Note_off_c, 0, 51, 61
1, 198489, Note_off_c, 0, 63, 61
1, 198499, Note_off_c, 0, 70, 63
1, 198545, Note_on_c, 0, 71, 50
1, 198554, Note_on_c, 0, 63, 80
1, 198556, Note_on_c, 0, 58, 94
1, 198567, Control_c, 0, 64, 108
1, 198568, Note_on_c, 0, 51, 69
1, 198570, Note_on_c, 0, 75, 64
1, 198578, Note_off_c, 0, 58, 68
1, 198582, Control_c, 0, 64, 83
1, 198592, Note_off_c, 0, 75, 66
1, 198593, Note_off_c, 0, 63, 61
1, 198596, Note_off_c, 0, 51, 67
1, 198597, Control_c, 0, 64, 67
1, 198602, Note_off_c, 0, 71, 63
1, 198605, Note_on_c, 0, 46, 16
1, 198606, Note_on_c, 0, 70, 4
1, 198612, Control_c, 0, 64, 53
1, 198621, Note_off_c, 0, 46, 36
1, 198626, Control_c, 0, 64, 34
1, 198641, Control_c, 0, 64, 0
1, 198649, Note_on_c, 0, 44, 72
1, 198653, Note_on_c, 0, 56, 82
1, 198655, Note_on_c, 0, 63, 83
1, 198655, Note_on_c, 0, 68, 87
1, 198657, Note_on_c, 0, 75, 69
1, 198660, Note_off_c, 0, 70, 28
1, 198664, Note_on_c, 0, 51, 66
1, 198676, Note_off_c, 0, 56, 68
1, 198676, Note_off_c, 0, 63, 69
1, 198678, Note_off_c, 0, 68, 68
1, 198692, Note_off_c, 0, 44, 61
1, 198695, Note_off_c, 0, 51, 66
1, 198703, Note_off_c, 0, 75, 61
1, 198849, Control_c, 0, 64, 55
1, 198862, Note_on_c, 0, 87, 102
1, 198863, Note_on_c, 0, 75, 98
1, 198864, Control_c, 0, 64, 81
1, 198865, Note_on_c, 0, 44, 84
1, 198865, Note_on_c, 0, 80, 90
1, 198872, Note_on_c, 0, 39, 82
1, 198875, Note_on_c, 0, 32, 80
1, 198879, Control_c, 0, 64, 127
1, 198882, Note_off_c, 0, 75, 67
1, 198883, Note_off_c, 0, 80, 67
1, 198900, Note_off_c, 0, 87, 63
1, 198902, Note_off_c, 0, 32, 67
1, 198908, Note_off_c, 0, 44, 64
1, 198909, Note_off_c, 0, 39, 65
1, 199053, Note_on_c, 0, 58, 77
1, 199067, Note_on_c, 0, 46, 65
1, 199067, Note_on_c, 0, 70, 81
1, 199070, Note_on_c, 0, 63, 78
1, 199076, Note_off_c, 0, 58, 68
1, 199090, Note_off_c, 0, 46, 68
1, 199093, Note_off_c, 0, 63, 68
1, 199094, Note_off_c, 0, 70, 65
1, 199117, Note_on_c, 0, 75, 7
1, 199132, Note_off_c, 0, 75, 0
1, 199144, Note_on_c, 0, 59, 82
1, 199147, Note_on_c, 0, 47, 77
1, 199147, Note_on_c, 0, 71, 86
1, 199147, Control_c, 0, 64, 85
1, 199152, Note_on_c, 0, 63, 82
1, 199162, Control_c, 0, 64, 64
1, 199169, Poly_aftertouch_c, 0, 75, 127
1, 199174, Note_off_c, 0, 63, 66
1, 199176, Control_c, 0, 64, 31
1, 199179, Note_off_c, 0, 47, 66
1, 199180, Note_off_c, 0, 71, 62
1, 199183, Note_off_c, 0, 59, 64
1, 199191, Control_c, 0, 64, 0
1, 199194, Poly_aftertouch_c, 0, 51, 0
1, 199195, Poly_aftertouch_c, 0, 75, 0
1, 199221, Control_c, 0, 64, 41
1, 199236, Control_c, 0, 64, 62
1, 199237, Note_on_c, 0, 75, 84
1, 199240, Note_on_c, 0, 63, 90
1, 199245, Note_on_c, 0, 61, 91
1, 199250, Control_c, 0, 64, 72
1, 199251, Note_on_c, 0, 73, 76
1, 199265, Control_c, 0, 64, 84
1, 199267, Note_on_c, 0, 49, 63
1, 199270, Note_off_c, 0, 63, 62
1, 199281, Note_off_c, 0, 73, 66
1, 199287, Control_c, 0, 64, 105
1, 199293, Note_off_c, 0, 61, 61
1, 199298, Note_on_c, 0, 51, 28
1, 199302, Control_c, 0, 64, 109
1, 199304, Note_off_c, 0, 75, 62
1, 199305, Note_off_c, 0, 49, 64
1, 199333, Note_off_c, 0, 51, 42
1, 199376, Control_c, 0, 64, 110
1, 199391, Control_c, 0, 64, 111
1, 199416, Note_on_c, 0, 59, 78
1, 199421, Note_on_c, 0, 47, 65
1, 199421, Control_c, 0, 64, 111
1, 199433, Note_on_c, 0, 71, 74
1, 199434, Note_on_c, 0, 51, 65
1, 199436, Control_c, 0, 64, 110
1, 199445, Note_on_c, 0, 63, 70
1, 199450, Control_c, 0, 64, 111
1, 199451, Note_off_c, 0, 59, 64
1, 199456, Note_off_c, 0, 47, 64
1, 199465, Control_c, 0, 64, 112
1, 199467, Note_off_c, 0, 63, 67
1, 199472, Note_off_c, 0, 51, 64
1, 199480, Control_c, 0, 64, 113
1, 199490, Note_off_c, 0, 71, 62
1, 199495, Control_c, 0, 64, 111
1, 199509, Control_c, 0, 64, 99
1, 199524, Control_c, 0, 64, 80
1, 199532, Note_on_c, 0, 58, 87
1, 199536, Note_on_c, 0, 46, 77
1, 199538, Note_on_c, 0, 63, 83
1, 199538, Note_on_c, 0, 70, 77
1, 199539, Control_c, 0, 64, 63
1, 199547, Note_on_c, 0, 75, 71
1, 199553, Note_off_c, 0, 58, 70
1, 199553, Note_on_c, 0, 51, 60
1, 199554, Control_c, 0, 64, 34
1, 199564, Note_off_c, 0, 63, 66
1, 199566, Note_off_c, 0, 70, 64
1, 199568, Note_off_c, 0, 46, 65
1, 199569, Control_c, 0, 64, 0
1, 199573, Note_off_c, 0, 51, 65
1, 199576, Note_off_c, 0, 75, 61
1, 199583, Control_c, 0, 64, 22
1, 199598, Control_c, 0, 64, 52
1, 199613, Control_c, 0, 64, 64
1, 199616, Note_on_c, 0, 59, 93
1, 199624, Note_on_c, 0, 71, 78
1, 199626, Note_on_c, 0, 63, 87
1, 199628, Control_c, 0, 64, 71
1, 199631, Note_on_c, 0, 51, 81
1, 199635, Note_on_c, 0, 47, 65
1, 199641, Note_on_c, 0, 75, 66
1, 199643, Control_c, 0, 64, 78
1, 199655, Note_off_c, 0, 59, 66
1, 199656, Note_off_c, 0, 47, 59
1, 199657, Note_off_c, 0, 75, 67
1, 199657, Control_c, 0, 64, 83
1, 199663, Note_off_c, 0, 51, 61
1, 199668, Note_off_c, 0, 63, 64
1, 199669, Poly_aftertouch_c, 0, 49, 0
1, 199687, Control_c, 0, 64, 81
1, 199703, Control_c, 0, 64, 77
1, 199718, Note_on_c, 0, 63, 67
1, 199718, Control_c, 0, 64, 72
1, 199720, Note_on_c, 0, 70, 82
1, 199725, Note_on_c, 0, 58, 90
1, 199726, Note_on_c, 0, 75, 69
1, 199732, Control_c, 0, 64, 67
1, 199744, Note_on_c, 0, 46, 56
1, 199747, Control_c, 0, 64, 61
1, 199749, Note_off_c, 0, 58, 66
1, 199756, Note_off_c, 0, 75, 60
1, 199760, Note_off_c, 0, 71, 48
1, 199761, Note_off_c, 0, 63, 63
1, 199762, Control_c, 0, 64, 50
1, 199764, Note_on_c, 0, 51, 34
1, 199767, Note_off_c, 0, 46, 59
1, 199767, Note_off_c, 0, 70, 63
1, 199777, Control_c, 0, 64, 33
1, 199792, Control_c, 0, 64, 0
1, 199794, Note_off_c, 0, 51, 33
1, 199817, Note_on_c, 0, 63, 77
1, 199822, Note_on_c, 0, 68, 83
1, 199825, Note_on_c, 0, 44, 70
1, 199829, Note_on_c, 0, 56, 68
1, 199832, Note_on_c, 0, 75, 71
1, 199839, Note_on_c, 0, 51, 46
1, 199839, Note_off_c, 0, 63, 70
1, 199845, Note_off_c, 0, 68, 69
1, 199848, Note_off_c, 0, 56, 66
1, 199860, Note_off_c, 0, 75, 67
1, 199863, Note_off_c, 0, 44, 63
1, 199866, Note_off_c, 0, 51, 57
1, 199970, Control_c, 0, 64, 32
1, 199985, Control_c, 0, 64, 58
1, 199999, Control_c, 0, 64, 72
1, 200014, Control_c, 0, 64, 87
1, 200031, Note_on_c, 0, 44, 47
1, 200033, Note_on_c, 0, 75, 91
1, 200036, Control_c, 0, 64, 127
1, 200038, Note_on_c, 0, 39, 55
1, 200039, Note_on_c, 0, 87, 77
1, 200044, Note_on_c, 0, 32, 74
1, 200051, Note_off_c, 0, 75, 72
1, 200059, Note_on_c, 0, 80, 32
1, 200060, Note_off_c, 0, 80, 127
1, 200060, Note_on_c, 0, 79, 48
1, 200062, Note_off_c, 0, 87, 68
1, 200072, Note_off_c, 0, 39, 67
1, 200073, Note_off_c, 0, 32, 66
1, 200074, Note_off_c, 0, 44, 64
1, 200084, Note_off_c, 0, 79, 56
1, 200137, Poly_aftertouch_c, 0, 85, 0
1, 200217, Note_on_c, 0, 59, 84
1, 200223, Note_on_c, 0, 47, 71
1, 200231, Note_on_c, 0, 51, 71
1, 200232, Note_on_c, 0, 63, 84
1, 200235, Note_on_c, 0, 72, 71
1, 200241, Note_on_c, 0, 71, 74
1, 200247, Note_on_c, 0, 75, 62
1, 200250, Note_off_c, 0, 59, 64
1, 200252, Note_off_c, 0, 63, 70
1, 200259, Note_off_c, 0, 47, 63
1, 200265, Note_off_c, 0, 75, 63
1, 200267, Note_off_c, 0, 71, 62
1, 200268, Note_off_c, 0, 51, 62
1, 200271, Note_off_c, 0, 72, 61
1, 200273, Control_c, 0, 64, 119
1, 200288, Control_c, 0, 64, 86
1, 200303, Control_c, 0, 64, 67
1, 200313, Note_on_c, 0, 63, 86
1, 200318, Control_c, 0, 64, 53
1, 200322, Note_on_c, 0, 58, 86
1, 200322, Note_on_c, 0, 70, 84
1, 200324, Note_on_c, 0, 75, 71
1, 200332, Control_c, 0, 64, 33
1, 200339, Note_on_c, 0, 51, 65
1, 200347, Note_off_c, 0, 75, 69
1, 200347, Control_c, 0, 64, 0
1, 200349, Note_off_c, 0, 58, 65
1, 200352, Note_off_c, 0, 63, 60
1, 200353, Note_on_c, 0, 46, 47
1, 200354, Note_on_c, 0, 71, 12
1, 200355, Note_off_c, 0, 71, 127
1, 200358, Note_off_c, 0, 51, 63
1, 200365, Note_off_c, 0, 70, 59
1, 200381, Note_off_c, 0, 46, 36
1, 200408, Note_on_c, 0, 63, 88
1, 200412, Note_on_c, 0, 75, 87
1, 200413, Note_on_c, 0, 68, 87
1, 200414, Note_on_c, 0, 56, 90
1, 200420, Note_on_c, 0, 44, 80
1, 200424, Note_on_c, 0, 51, 72
1, 200431, Note_off_c, 0, 63, 65
1, 200438, Note_off_c, 0, 56, 69
1, 200440, Note_off_c, 0, 68, 67
1, 200448, Note_off_c, 0, 51, 67
1, 200458, Note_off_c, 0, 44, 66
1, 200462, Note_off_c, 0, 75, 67
1, 200585, Control_c, 0, 64, 51
1, 200600, Control_c, 0, 64, 71
1, 200615, Control_c, 0, 64, 92
1, 200620, Note_on_c, 0, 92, 100
1, 200623, Note_on_c, 0, 80, 97
1, 200626, Note_on_c, 0, 87, 88
1, 200629, Note_on_c, 0, 44, 88
1, 200629, Control_c, 0, 64, 127
1, 200637, Note_on_c, 0, 32, 84
1, 200637, Note_on_c, 0, 39, 77
1, 200646, Note_off_c, 0, 87, 65
1, 200647, Note_off_c, 0, 80, 64
1, 200656, Note_off_c, 0, 92, 65
1, 200670, Note_off_c, 0, 32, 67
1, 200673, Note_off_c, 0, 39, 66
1, 200678, Note_off_c, 0, 44, 64
1, 200840, Note_on_c, 0, 59, 77
1, 200841, Note_on_c, 0, 71, 78
1, 200843, Note_on_c, 0, 60, 75
1, 200843, Note_on_c, 0, 63, 83
1, 200847, Note_on_c, 0, 48, 62
1, 200858, Note_on_c, 0, 75, 60
1, 200863, Note_on_c, 0, 51, 51
1, 200864, Note_off_c, 0, 63, 69
1, 200867, Note_off_c, 0, 59, 68
1, 200868, Note_off_c, 0, 60, 69
1, 200875, Note_off_c, 0, 75, 64
1, 200876, Note_off_c, 0, 48, 64
1, 200882, Note_on_c, 0, 70, 32
1, 200883, Note_off_c, 0, 70, 127
1, 200898, Note_off_c, 0, 51, 63
1, 200912, Note_off_c, 0, 71, 0
1, 200918, Control_c, 0, 64, 95
1, 200927, Note_on_c, 0, 63, 88
1, 200928, Note_on_c, 0, 70, 54
1, 200930, Note_on_c, 0, 71, 32
1, 200930, Poly_aftertouch_c, 0, 47, 0
1, 200933, Control_c, 0, 64, 80
1, 200940, Note_on_c, 0, 75, 72
1, 200947, Control_c, 0, 64, 69
1, 200950, Note_on_c, 0, 58, 87
1, 200959, Note_off_c, 0, 71, 57
1, 200962, Control_c, 0, 64, 60
1, 200966, Note_off_c, 0, 75, 65
1, 200968, Note_off_c, 0, 63, 65
1, 200969, Note_on_c, 0, 51, 71
1, 200975, Note_off_c, 0, 58, 66
1, 200977, Control_c, 0, 64, 45
1, 200992, Control_c, 0, 64, 26
1, 200993, Note_on_c, 0, 46, 27
1, 200995, Note_off_c, 0, 70, 62
1, 201001, Note_off_c, 0, 51, 66
1, 201007, Control_c, 0, 64, 0
1, 201028, Note_off_c, 0, 46, 32
1, 201034, Note_on_c, 0, 63, 93
1, 201042, Note_on_c, 0, 56, 92
1, 201043, Note_on_c, 0, 75, 85
1, 201046, Note_on_c, 0, 68, 84
1, 201049, Note_on_c, 0, 44, 81
1, 201052, Note_on_c, 0, 51, 65
1, 201058, Note_off_c, 0, 63, 65
1, 201058, Note_on_c, 0, 71, 35
1, 201062, Note_off_c, 0, 56, 69
1, 201071, Note_off_c, 0, 68, 68
1, 201073, Note_off_c, 0, 51, 68
1, 201075, Note_off_c, 0, 44, 67
1, 201086, Note_off_c, 0, 71, 35
1, 201088, Note_off_c, 0, 75, 66
1, 201213, Note_on_c, 0, 44, 20
1, 201214, Control_c, 0, 64, 49
1, 201228, Control_c, 0, 64, 69
1, 201243, Control_c, 0, 64, 88
1, 201258, Control_c, 0, 64, 127
1, 201267, Note_on_c, 0, 95, 111
1, 201267, Note_on_c, 0, 83, 101
1, 201268, Note_off_c, 0, 44, 0
1, 201268, Note_on_c, 0, 44, 78
1, 201269, Note_on_c, 0, 39, 67
1, 201273, Note_on_c, 0, 87, 95
1, 201275, Note_on_c, 0, 32, 83
1, 201290, Note_off_c, 0, 87, 73
1, 201297, Note_off_c, 0, 83, 62
1, 201299, Note_off_c, 0, 95, 67
1, 201310, Note_off_c, 0, 32, 66
1, 201316, Note_off_c, 0, 44, 63
1, 201317, Note_off_c, 0, 39, 63
1, 201499, Note_on_c, 0, 59, 90
1, 201500, Note_on_c, 0, 70, 60
1, 201501, Note_on_c, 0, 63, 88
1, 201508, Note_on_c, 0, 71, 84
1, 201514, Note_on_c, 0, 75, 73
1, 201514, Note_on_c, 0, 51, 74
1, 201516, Note_on_c, 0, 47, 58
1, 201538, Note_on_c, 0, 48, 59
1, 201544, Note_off_c, 0, 75, 68
1, 201545, Note_off_c, 0, 59, 65
1, 201547, Note_off_c, 0, 70, 43
1, 201555, Note_off_c, 0, 63, 61
1, 201559, Note_off_c, 0, 47, 63
1, 201564, Note_off_c, 0, 48, 54
1, 201568, Note_off_c, 0, 71, 62
1, 201578, Note_off_c, 0, 51, 60
1, 201619, Note_on_c, 0, 63, 82
1, 201624, Note_on_c, 0, 75, 78
1, 201627, Note_on_c, 0, 70, 84
1, 201633, Note_on_c, 0, 58, 92
1, 201644, Note_on_c, 0, 51, 68
1, 201653, Note_on_c, 0, 46, 63
1, 201663, Note_off_c, 0, 63, 62
1, 201667, Note_off_c, 0, 58, 61
1, 201675, Note_off_c, 0, 75, 63
1, 201676, Note_off_c, 0, 51, 62
1, 201684, Note_off_c, 0, 70, 62
1, 201686, Note_off_c, 0, 46, 65
1, 201711, Control_c, 0, 64, 89
1, 201726, Control_c, 0, 64, 68
1, 201739, Note_on_c, 0, 63, 88
1, 201739, Note_on_c, 0, 75, 81
1, 201741, Note_on_c, 0, 56, 95
1, 201741, Note_on_c, 0, 68, 85
1, 201741, Control_c, 0, 64, 53
1, 201749, Note_on_c, 0, 51, 80
1, 201749, Poly_aftertouch_c, 0, 49, 0
1, 201753, Note_on_c, 0, 44, 73
1, 201754, Note_off_c, 0, 63, 73
1, 201756, Control_c, 0, 64, 27
1, 201766, Note_off_c, 0, 56, 65
1, 201766, Note_off_c, 0, 68, 68
1, 201771, Control_c, 0, 64, 0
1, 201777, Note_off_c, 0, 51, 64
1, 201786, Note_off_c, 0, 44, 65
1, 201791, Note_off_c, 0, 75, 66
1, 201913, Note_on_c, 0, 44, 46
1, 201945, Note_off_c, 0, 44, 34
1, 202022, Control_c, 0, 64, 48
1, 202033, Note_on_c, 0, 44, 90
1, 202033, Note_on_c, 0, 99, 96
1, 202035, Note_on_c, 0, 87, 91
1, 202035, Note_on_c, 0, 92, 92
1, 202037, Control_c, 0, 64, 81
1, 202039, Note_on_c, 0, 39, 74
1, 202044, Note_on_c, 0, 32, 79
1, 202052, Control_c, 0, 64, 127
1, 202077, Note_off_c, 0, 32, 64
1, 202078, Note_off_c, 0, 44, 64
1, 202083, Note_off_c, 0, 39, 62
1, 202084, Note_off_c, 0, 87, 63
1, 202110, Note_off_c, 0, 92, 62
1, 202113, Note_off_c, 0, 99, 66
1, 202316, Note_on_c, 0, 56, 88
1, 202318, Note_on_c, 0, 92, 87
1, 202319, Note_on_c, 0, 99, 93
1, 202321, Note_on_c, 0, 51, 74
1, 202323, Note_on_c, 0, 87, 89
1, 202336, Note_on_c, 0, 44, 49
1, 202336, Note_off_c, 0, 56, 68
1, 202347, Note_off_c, 0, 51, 67
1, 202352, Note_off_c, 0, 87, 61
1, 202356, Note_off_c, 0, 44, 58
1, 202368, Note_off_c, 0, 92, 60
1, 202386, Note_off_c, 0, 99, 65
1, 202459, Note_on_c, 0, 68, 89
1, 202465, Note_on_c, 0, 92, 90
1, 202467, Note_on_c, 0, 99, 91
1, 202468, Note_on_c, 0, 87, 88
1, 202471, Note_on_c, 0, 63, 67
1, 202477, Note_on_c, 0, 56, 50
1, 202482, Note_off_c, 0, 68, 68
1, 202493, Note_off_c, 0, 63, 66
1, 202503, Note_off_c, 0, 87, 57
1, 202505, Note_off_c, 0, 56, 65
1, 202539, Note_off_c, 0, 92, 62
1, 202552, Note_off_c, 0, 99, 65
1, 202563, Poly_aftertouch_c, 0, 58, 0
1, 202654, Note_on_c, 0, 80, 87
1, 202656, Note_on_c, 0, 75, 83
1, 202661, Note_on_c, 0, 99, 90
1, 202663, Note_on_c, 0, 92, 88
1, 202671, Note_on_c, 0, 87, 89
1, 202671, Note_off_c, 0, 80, 71
1, 202675, Note_off_c, 0, 75, 70
1, 202687, Note_on_c, 0, 68, 53
1, 202694, Note_off_c, 0, 87, 64
1, 202707, Note_off_c, 0, 68, 63
1, 202723, Note_off_c, 0, 92, 62
1, 202742, Note_off_c, 0, 99, 66
1, 202814, Note_on_c, 0, 68, 76
1, 202825, Note_on_c, 0, 99, 91
1, 202827, Note_on_c, 0, 92, 90
1, 202829, Note_on_c, 0, 87, 93
1, 202830, Note_on_c, 0, 63, 65
1, 202837, Note_off_c, 0, 68, 70
1, 202839, Note_on_c, 0, 56, 67
1, 202850, Note_off_c, 0, 63, 64
1, 202856, Note_off_c, 0, 87, 64
1, 202868, Note_off_c, 0, 56, 65
1, 202882, Note_off_c, 0, 92, 62
1, 202894, Note_off_c, 0, 99, 66
1, 202947, Note_on_c, 0, 99, 86
1, 202950, Note_on_c, 0, 87, 97
1, 202952, Note_on_c, 0, 56, 79
1, 202954, Note_on_c, 0, 92, 84
1, 202965, Note_on_c, 0, 44, 69
1, 202966, Note_on_c, 0, 51, 63
1, 202973, Note_off_c, 0, 56, 69
1, 202975, Note_on_c, 0, 54, 49
1, 202985, Note_off_c, 0, 51, 63
1, 202987, Note_off_c, 0, 44, 62
1, 202994, Note_on_c, 0, 46, 15
1, 202995, Note_off_c, 0, 46, 127
1, 202996, Note_off_c, 0, 87, 62
1, 203001, Note_off_c, 0, 54, 59
1, 203028, Note_off_c, 0, 92, 62
1, 203037, Poly_aftertouch_c, 0, 46, 0
1, 203049, Note_off_c, 0, 99, 65
1, 203060, Note_on_c, 0, 56, 8
1, 203100, Note_off_c, 0, 56, 36
1, 203182, Note_on_c, 0, 44, 77
1, 203183, Note_on_c, 0, 99, 98
1, 203184, Note_on_c, 0, 92, 84
1, 203186, Note_on_c, 0, 87, 97
1, 203191, Note_on_c, 0, 37, 4
1, 203192, Note_on_c, 0, 39, 91
1, 203192, Note_on_c, 0, 32, 81
1, 203210, Control_c, 0, 64, 91
1, 203224, Control_c, 0, 64, 71
1, 203229, Note_off_c, 0, 37, 59
1, 203239, Control_c, 0, 64, 58
1, 203250, Note_off_c, 0, 32, 64
1, 203254, Note_off_c, 0, 99, 67
1, 203254, Control_c, 0, 64, 36
1, 203255, Note_off_c, 0, 87, 60
1, 203260, Note_off_c, 0, 44, 63
1, 203262, Note_off_c, 0, 39, 63
1, 203267, Note_off_c, 0, 92, 64
1, 203267, Poly_aftertouch_c, 0, 95, 0
1, 203269, Control_c, 0, 64, 0
1, 204077, Note_on_c, 0, 63, 41
1, 204079, Note_on_c, 0, 44, 41
1, 204079, Note_on_c, 0, 68, 48
1, 204081, Note_on_c, 0, 59, 41
1, 204086, Note_on_c, 0, 56, 40
1, 204096, Note_on_c, 0, 51, 38
1, 204110, Note_off_c, 0, 59, 58
1, 204110, Note_off_c, 0, 63, 59
1, 204115, Note_off_c, 0, 56, 58
1, 204120, Note_off_c, 0, 44, 64
1, 204122, Note_off_c, 0, 68, 64
1, 204125, Note_off_c, 0, 51, 57
1, 204692, Control_c, 0, 64, 8
1, 204722, Control_c, 0, 64, 0
1, 204751, Control_c, 0, 64, 9
1, 204766, Control_c, 0, 64, 12
1, 204781, Control_c, 0, 64, 13
1, 204826, Control_c, 0, 64, 14
1, 204840, Control_c, 0, 64, 16
1, 204855, Control_c, 0, 64, 17
1, 204885, Control_c, 0, 64, 17
1, 204900, Control_c, 0, 64, 21
1, 204914, Control_c, 0, 64, 27
1, 204929, Control_c, 0, 64, 35
1, 204944, Control_c, 0, 64, 42
1, 204959, Control_c, 0, 64, 47
1, 204963, Note_on_c, 0, 92, 54
1, 204972, Note_on_c, 0, 59, 37
1, 204974, Control_c, 0, 64, 52
1, 204984, Note_on_c, 0, 83, 30
1, 204988, Control_c, 0, 64, 56
1, 204991, Note_on_c, 0, 68, 37
1, 204992, Note_on_c, 0, 87, 37
1, 204993, Note_on_c, 0, 71, 28
1, 204993, Note_on_c, 0, 80, 35
1, 204997, Note_on_c, 0, 63, 30
1, 205003, Control_c, 0, 64, 59
1, 205018, Control_c, 0, 64, 61
1, 205033, Control_c, 0, 64, 63
1, 205047, Control_c, 0, 64, 65
1, 205062, Control_c, 0, 64, 67
1, 205077, Control_c, 0, 64, 70
1, 205092, Control_c, 0, 64, 76
1, 205107, Control_c, 0, 64, 82
1, 205121, Control_c, 0, 64, 87
1, 205136, Control_c, 0, 64, 92
1, 205151, Control_c, 0, 64, 98
1, 205166, Control_c, 0, 64, 103
1, 205181, Control_c, 0, 64, 108
1, 205196, Control_c, 0, 64, 116
1, 205210, Control_c, 0, 64, 127
1, 205376, Note_off_c, 0, 92, 24
1, 205377, Note_off_c, 0, 83, 34
1, 205408, Note_off_c, 0, 87, 27
1, 205411, Note_off_c, 0, 80, 32
1, 205503, Note_off_c, 0, 59, 30
1, 205543, Note_off_c, 0, 63, 27
1, 205562, Note_off_c, 0, 71, 27
1, 205577, Note_off_c, 0, 68, 22
1, 206337, Control_c, 0, 64, 124
1, 206352, Control_c, 0, 64, 115
1, 206367, Control_c, 0, 64, 108
1, 206382, Control_c, 0, 64, 106
1, 206426, Control_c, 0, 64, 105
1, 206441, Control_c, 0, 64, 103
1, 206500, Control_c, 0, 64, 101
1, 206515, Control_c, 0, 64, 97
1, 206530, Control_c, 0, 64, 96
1, 206560, Control_c, 0, 64, 96
1, 206574, Control_c, 0, 64, 95
1, 206589, Control_c, 0, 64, 92
1, 206604, Control_c, 0, 64, 91
1, 206648, Control_c, 0, 64, 90
1, 206663, Control_c, 0, 64, 88
1, 206678, Control_c, 0, 64, 86
1, 206722, Control_c, 0, 64, 85
1, 206737, Control_c, 0, 64, 83
1, 206752, Control_c, 0, 64, 81
1, 206774, Control_c, 0, 64, 79
1, 206789, Control_c, 0, 64, 79
1, 206818, Control_c, 0, 64, 77
1, 206833, Control_c, 0, 64, 74
1, 206848, Control_c, 0, 64, 69
1, 206863, Control_c, 0, 64, 64
1, 206878, Control_c, 0, 64, 61
1, 206894, Control_c, 0, 64, 58
1, 206909, Control_c, 0, 64, 58
1, 206938, Control_c, 0, 64, 57
1, 206953, Control_c, 0, 64, 55
1, 206968, Control_c, 0, 64, 52
1, 206983, Control_c, 0, 64, 47
1, 206997, Control_c, 0, 64, 42
1, 207012, Control_c, 0, 64, 37
1, 207027, Control_c, 0, 64, 32
1, 207041, Control_c, 0, 64, 29
1, 207056, Control_c, 0, 64, 27
1, 207071, Control_c, 0, 64, 24
1, 207086, Control_c, 0, 64, 22
1, 207101, Control_c, 0, 64, 19
1, 207115, Control_c, 0, 64, 15
1, 207130, Control_c, 0, 64, 9
1, 207145, Control_c, 0, 64, 0
1, 207145, End_track
0, 0, End_of_file
