0, 0, Header, 0, 1, 384
1, 0, Start_track
1, 0, Title_t, "Hungarian Rhapsody 15-V.Levitsky"
1, 0, Text_t, "2008 e-Piano Junior Competition recital round"
1, 0, Text_t, "recorded July 2008"
1, 0, Text_t, "http://www.piano-e-competition.com/"
1, 0, Text_t, "File processed for distribution by software from Zenph Studios, Inc., http://www.zenph.com"
1, 0, Instrument_name_t, "Yamaha Disklavier Pro Mark IV concert grand piano, model DCFIIISM4PRO"
1, 0, Sequencer_specific, 39, 67, 113, 0, 1, 0, 1, 0, 72, 117, 110, 103, 97, 114, 105, 97, 110, 82, 104, 97, 112, 46, 49, 53, 86, 108, 97, 100, 105, 109, 105, 114, 76, 101, 118, 105, 116, 115, 107, 121
1, 0, Sequencer_specific, 6, 67, 113, 0, 0, 0, 69
1, 0, System_exclusive, 21, 67, 113, 126, 21, 0, 2, 2, 0, 3, 14, 1, 4, 1, 13, 13, 10, 11, 9, 2, 7, 247
1, 0, Sequencer_specific, 5, 67, 123, 12, 2, 1
1, 0, Tempo, 512820
1, 0, Time_signature, 4, 2, 24, 8
1, 0, System_exclusive, 5, 126, 127, 9, 1, 247
1, 1, System_exclusive, 8, 67, 16, 76, 0, 0, 126, 0, 247
1, 2, System_exclusive, 8, 67, 16, 76, 8, 9, 7, 1, 247
1, 3, Control_c, 0, 0, 0
1, 3, Control_c, 1, 0, 0
1, 3, Control_c, 2, 0, 0
1, 3, Control_c, 3, 0, 0
1, 3, Control_c, 4, 0, 0
1, 3, Control_c, 5, 0, 0
1, 3, Control_c, 6, 0, 0
1, 3, Control_c, 7, 0, 0
1, 3, Control_c, 8, 0, 0
1, 3, Control_c, 9, 0, 127
1, 3, Control_c, 10, 0, 0
1, 3, Control_c, 11, 0, 0
1, 3, Control_c, 12, 0, 0
1, 3, Control_c, 13, 0, 0
1, 3, Control_c, 14, 0, 0
1, 3, Control_c, 15, 0, 0
1, 4, Control_c, 0, 32, 0
1, 4, Control_c, 1, 32, 0
1, 4, Control_c, 2, 32, 0
1, 4, Control_c, 3, 32, 0
1, 4, Control_c, 4, 32, 0
1, 4, Control_c, 5, 32, 0
1, 4, Control_c, 6, 32, 0
1, 4, Control_c, 7, 32, 0
1, 4, Control_c, 8, 32, 0
1, 4, Control_c, 9, 32, 0
1, 4, Control_c, 10, 32, 0
1, 4, Control_c, 11, 32, 0
1, 4, Control_c, 12, 32, 0
1, 4, Control_c, 13, 32, 0
1, 4, Control_c, 14, 32, 0
1, 4, Control_c, 15, 32, 0
1, 5, Program_c, 0, 0
1, 5, Program_c, 1, 0
1, 5, Program_c, 2, 0
1, 5, Program_c, 3, 0
1, 5, Program_c, 4, 0
1, 5, Program_c, 5, 0
1, 5, Program_c, 6, 0
1, 5, Program_c, 7, 0
1, 5, Program_c, 8, 0
1, 5, Program_c, 9, 0
1, 5, Program_c, 10, 0
1, 5, Program_c, 11, 0
1, 5, Program_c, 12, 0
1, 5, Program_c, 13, 0
1, 5, Program_c, 14, 0
1, 5, Program_c, 15, 0
1, 6, Control_c, 0, 7, 100
1, 6, Control_c, 1, 7, 100
1, 6, Control_c, 2, 7, 100
1, 6, Control_c, 3, 7, 100
1, 6, Control_c, 4, 7, 100
1, 6, Control_c, 5, 7, 100
1, 6, Control_c, 6, 7, 100
1, 6, Control_c, 7, 7, 100
1, 6, Control_c, 8, 7, 100
1, 6, Control_c, 9, 7, 100
1, 6, Control_c, 10, 7, 100
1, 6, Control_c, 11, 7, 100
1, 6, Control_c, 12, 7, 100
1, 6, Control_c, 13, 7, 100
1, 6, Control_c, 14, 7, 100
1, 6, Control_c, 15, 7, 100
1, 117, Control_c, 0, 64, 11
1, 229, Control_c, 0, 64, 23
1, 341, Control_c, 0, 64, 34
1, 452, Control_c, 0, 64, 47
1, 564, Control_c, 0, 64, 57
1, 676, Control_c, 0, 64, 70
1, 787, Control_c, 0, 64, 80
1, 899, Control_c, 0, 64, 94
1, 1130, Note_on_c, 0, 52, 76
1, 1132, Note_on_c, 0, 64, 76
1, 1156, Note_off_c, 0, 52, 69
1, 1156, Control_c, 0, 64, 91
1, 1157, Note_off_c, 0, 64, 69
1, 1171, Control_c, 0, 64, 85
1, 1185, Control_c, 0, 64, 74
1, 1200, Control_c, 0, 64, 59
1, 1215, Control_c, 0, 64, 0
1, 1216, Note_on_c, 0, 52, 81
1, 1222, Note_on_c, 0, 64, 73
1, 1244, Note_off_c, 0, 52, 69
1, 1249, Note_off_c, 0, 64, 67
1, 1299, Note_on_c, 0, 64, 81
1, 1300, Note_on_c, 0, 52, 80
1, 1321, Note_off_c, 0, 64, 71
1, 1325, Note_off_c, 0, 52, 68
1, 1556, Note_on_c, 0, 52, 92
1, 1559, Note_on_c, 0, 64, 89
1, 1586, Note_off_c, 0, 52, 69
1, 1588, Note_off_c, 0, 64, 70
1, 1845, Control_c, 0, 64, 64
1, 1849, Note_on_c, 0, 52, 93
1, 1854, Note_on_c, 0, 64, 92
1, 1859, Control_c, 0, 64, 69
1, 1873, Note_off_c, 0, 52, 69
1, 1874, Control_c, 0, 64, 72
1, 1878, Note_off_c, 0, 64, 70
1, 1889, Control_c, 0, 64, 74
1, 1904, Control_c, 0, 64, 78
1, 1919, Control_c, 0, 64, 81
1, 1933, Control_c, 0, 64, 82
1, 1948, Control_c, 0, 64, 83
1, 1951, Poly_aftertouch_c, 0, 63, 0
1, 1963, Control_c, 0, 64, 83
1, 1978, Control_c, 0, 64, 84
1, 1993, Control_c, 0, 64, 85
1, 2007, Control_c, 0, 64, 85
1, 2022, Control_c, 0, 64, 86
1, 2037, Control_c, 0, 64, 86
1, 2066, Control_c, 0, 64, 87
1, 2119, Note_on_c, 0, 52, 88
1, 2122, Note_on_c, 0, 64, 87
1, 2125, Control_c, 0, 64, 86
1, 2140, Control_c, 0, 64, 83
1, 2146, Note_off_c, 0, 64, 67
1, 2155, Note_off_c, 0, 52, 67
1, 2155, Control_c, 0, 64, 76
1, 2170, Control_c, 0, 64, 66
1, 2185, Control_c, 0, 64, 0
1, 2200, Note_on_c, 0, 64, 89
1, 2205, Note_on_c, 0, 52, 90
1, 2231, Note_off_c, 0, 52, 68
1, 2237, Note_off_c, 0, 64, 64
1, 2283, Note_on_c, 0, 64, 85
1, 2290, Note_on_c, 0, 52, 86
1, 2313, Note_off_c, 0, 52, 71
1, 2318, Note_off_c, 0, 64, 64
1, 2527, Note_on_c, 0, 40, 83
1, 2528, Note_on_c, 0, 52, 93
1, 2529, Note_on_c, 0, 56, 80
1, 2529, Note_on_c, 0, 59, 77
1, 2534, Note_on_c, 0, 64, 77
1, 2535, Note_on_c, 0, 28, 74
1, 2548, Note_off_c, 0, 52, 75
1, 2552, Note_off_c, 0, 56, 68
1, 2552, Note_off_c, 0, 59, 68
1, 2554, Note_off_c, 0, 40, 65
1, 2565, Note_off_c, 0, 64, 64
1, 2566, Note_off_c, 0, 28, 63
1, 2760, Note_on_c, 0, 52, 90
1, 2760, Note_on_c, 0, 36, 90
1, 2761, Note_on_c, 0, 55, 82
1, 2766, Note_on_c, 0, 31, 75
1, 2766, Note_on_c, 0, 64, 80
1, 2766, Note_on_c, 0, 60, 75
1, 2769, Note_on_c, 0, 24, 79
1, 2787, Note_off_c, 0, 55, 68
1, 2790, Note_off_c, 0, 36, 69
1, 2790, Note_off_c, 0, 52, 67
1, 2790, Note_off_c, 0, 31, 65
1, 2795, Note_off_c, 0, 24, 62
1, 2796, Note_off_c, 0, 60, 66
1, 2812, Note_off_c, 0, 64, 63
1, 2993, Note_on_c, 0, 40, 84
1, 2993, Note_on_c, 0, 45, 84
1, 2994, Note_on_c, 0, 52, 84
1, 2994, Note_on_c, 0, 64, 77
1, 3006, Note_on_c, 0, 57, 61
1, 3010, Note_on_c, 0, 33, 63
1, 3012, Note_on_c, 0, 62, 55
1, 3016, Note_off_c, 0, 52, 72
1, 3016, Note_off_c, 0, 45, 69
1, 3024, Note_off_c, 0, 40, 66
1, 3025, Note_off_c, 0, 57, 62
1, 3035, Note_off_c, 0, 62, 58
1, 3041, Note_off_c, 0, 33, 65
1, 3047, Note_off_c, 0, 64, 63
1, 3229, Note_on_c, 0, 64, 82
1, 3233, Note_on_c, 0, 52, 86
1, 3234, Note_on_c, 0, 43, 88
1, 3241, Note_on_c, 0, 31, 75
1, 3255, Note_off_c, 0, 52, 73
1, 3261, Note_off_c, 0, 43, 67
1, 3273, Note_off_c, 0, 64, 65
1, 3273, Note_off_c, 0, 31, 66
1, 3466, Note_on_c, 0, 42, 84
1, 3467, Note_on_c, 0, 30, 78
1, 3474, Note_on_c, 0, 52, 86
1, 3474, Note_on_c, 0, 64, 87
1, 3490, Note_off_c, 0, 42, 66
1, 3496, Note_off_c, 0, 52, 73
1, 3501, Note_off_c, 0, 30, 65
1, 3501, Note_off_c, 0, 64, 66
1, 3713, Note_on_c, 0, 52, 94
1, 3717, Note_on_c, 0, 64, 82
1, 3719, Note_on_c, 0, 40, 87
1, 3719, Note_on_c, 0, 56, 76
1, 3719, Note_on_c, 0, 59, 69
1, 3720, Note_on_c, 0, 35, 82
1, 3728, Control_c, 0, 64, 67
1, 3732, Note_off_c, 0, 52, 74
1, 3741, Note_off_c, 0, 56, 67
1, 3741, Note_off_c, 0, 59, 67
1, 3741, Note_off_c, 0, 40, 67
1, 3743, Control_c, 0, 64, 75
1, 3746, Note_off_c, 0, 35, 66
1, 3756, Note_off_c, 0, 64, 65
1, 3758, Control_c, 0, 64, 80
1, 3772, Control_c, 0, 64, 82
1, 3787, Control_c, 0, 64, 84
1, 3802, Control_c, 0, 64, 86
1, 3817, Control_c, 0, 64, 88
1, 3839, Control_c, 0, 64, 89
1, 3855, Control_c, 0, 64, 91
1, 3870, Control_c, 0, 64, 92
1, 3884, Control_c, 0, 64, 93
1, 3899, Control_c, 0, 64, 95
1, 3914, Control_c, 0, 64, 97
1, 3928, Control_c, 0, 64, 99
1, 3943, Control_c, 0, 64, 101
1, 3958, Control_c, 0, 64, 103
1, 3973, Control_c, 0, 64, 105
1, 3988, Note_on_c, 0, 28, 79
1, 3988, Control_c, 0, 64, 107
1, 4000, Note_on_c, 0, 40, 75
1, 4003, Control_c, 0, 64, 110
1, 4015, Note_on_c, 0, 88, 85
1, 4018, Control_c, 0, 64, 111
1, 4022, Note_on_c, 0, 100, 88
1, 4030, Note_off_c, 0, 28, 62
1, 4030, Note_off_c, 0, 40, 66
1, 4033, Note_off_c, 0, 88, 71
1, 4033, Control_c, 0, 64, 111
1, 4039, Note_off_c, 0, 100, 72
1, 4047, Control_c, 0, 64, 112
1, 4062, Control_c, 0, 64, 112
1, 4077, Control_c, 0, 64, 113
1, 4086, Note_on_c, 0, 28, 89
1, 4086, Note_on_c, 0, 100, 91
1, 4088, Note_on_c, 0, 40, 81
1, 4092, Note_on_c, 0, 88, 87
1, 4092, Control_c, 0, 64, 114
1, 4107, Control_c, 0, 64, 115
1, 4109, Note_off_c, 0, 88, 71
1, 4110, Note_off_c, 0, 40, 71
1, 4119, Note_off_c, 0, 28, 62
1, 4120, Note_off_c, 0, 100, 65
1, 4122, Control_c, 0, 64, 116
1, 4136, Control_c, 0, 64, 117
1, 4151, Control_c, 0, 64, 118
1, 4163, Note_on_c, 0, 100, 89
1, 4164, Note_on_c, 0, 88, 96
1, 4166, Note_on_c, 0, 40, 79
1, 4166, Control_c, 0, 64, 122
1, 4167, Note_on_c, 0, 28, 78
1, 4181, Control_c, 0, 64, 127
1, 4195, Note_off_c, 0, 40, 67
1, 4196, Note_off_c, 0, 88, 67
1, 4200, Note_off_c, 0, 100, 66
1, 4212, Note_off_c, 0, 28, 61
1, 4239, Note_on_c, 0, 40, 92
1, 4243, Note_on_c, 0, 28, 86
1, 4244, Note_on_c, 0, 100, 98
1, 4245, Note_on_c, 0, 88, 98
1, 4254, Control_c, 0, 64, 120
1, 4265, Note_off_c, 0, 28, 71
1, 4269, Control_c, 0, 64, 97
1, 4273, Note_off_c, 0, 40, 68
1, 4274, Note_off_c, 0, 88, 67
1, 4274, Note_off_c, 0, 100, 66
1, 4284, Control_c, 0, 64, 71
1, 4299, Control_c, 0, 64, 0
1, 4599, Note_on_c, 0, 64, 51
1, 4621, Note_on_c, 0, 66, 65
1, 4639, Note_off_c, 0, 64, 65
1, 4642, Note_on_c, 0, 68, 71
1, 4647, Note_on_c, 0, 33, 62
1, 4667, Note_off_c, 0, 66, 67
1, 4677, Note_off_c, 0, 68, 64
1, 4679, Note_on_c, 0, 40, 56
1, 4686, Note_off_c, 0, 33, 63
1, 4716, Note_on_c, 0, 69, 86
1, 4723, Note_on_c, 0, 48, 76
1, 4723, Note_on_c, 0, 60, 77
1, 4726, Note_off_c, 0, 40, 64
1, 4727, Note_on_c, 0, 64, 67
1, 4737, Note_off_c, 0, 69, 72
1, 4745, Note_off_c, 0, 64, 65
1, 4747, Note_off_c, 0, 60, 67
1, 4749, Note_off_c, 0, 48, 68
1, 4969, Note_on_c, 0, 40, 62
1, 4974, Note_on_c, 0, 68, 70
1, 4977, Note_on_c, 0, 52, 61
1, 4978, Note_on_c, 0, 59, 57
1, 4982, Note_on_c, 0, 64, 58
1, 4999, Note_off_c, 0, 40, 65
1, 5002, Note_off_c, 0, 52, 66
1, 5003, Note_off_c, 0, 59, 64
1, 5011, Note_off_c, 0, 64, 66
1, 5034, Note_off_c, 0, 68, 64
1, 5073, Note_on_c, 0, 71, 51
1, 5110, Note_off_c, 0, 71, 55
1, 5177, Note_on_c, 0, 45, 59
1, 5177, Note_on_c, 0, 52, 62
1, 5178, Note_on_c, 0, 69, 74
1, 5179, Note_on_c, 0, 60, 75
1, 5180, Note_on_c, 0, 64, 73
1, 5200, Note_off_c, 0, 69, 72
1, 5201, Note_off_c, 0, 64, 67
1, 5202, Note_off_c, 0, 52, 66
1, 5202, Note_off_c, 0, 60, 69
1, 5204, Note_off_c, 0, 45, 64
1, 5417, Note_on_c, 0, 52, 63
1, 5419, Note_on_c, 0, 47, 59
1, 5425, Note_on_c, 0, 68, 65
1, 5432, Note_on_c, 0, 59, 54
1, 5440, Note_on_c, 0, 64, 40
1, 5449, Note_off_c, 0, 52, 68
1, 5451, Note_off_c, 0, 47, 66
1, 5462, Note_off_c, 0, 59, 54
1, 5470, Note_off_c, 0, 64, 58
1, 5521, Note_on_c, 0, 71, 66
1, 5524, Note_off_c, 0, 68, 61
1, 5570, Note_on_c, 0, 38, 49
1, 5576, Note_off_c, 0, 71, 57
1, 5600, Note_off_c, 0, 38, 57
1, 5642, Note_on_c, 0, 71, 67
1, 5648, Note_on_c, 0, 53, 69
1, 5650, Note_on_c, 0, 69, 74
1, 5654, Note_on_c, 0, 60, 70
1, 5668, Note_on_c, 0, 65, 49
1, 5669, Note_off_c, 0, 53, 67
1, 5674, Note_off_c, 0, 69, 69
1, 5677, Poly_aftertouch_c, 0, 45, 0
1, 5677, Note_off_c, 0, 71, 64
1, 5679, Note_off_c, 0, 60, 68
1, 5690, Note_off_c, 0, 65, 56
1, 5924, Note_on_c, 0, 68, 70
1, 5926, Note_on_c, 0, 64, 50
1, 5932, Note_on_c, 0, 50, 51
1, 5940, Note_on_c, 0, 59, 46
1, 5941, Note_on_c, 0, 41, 35
1, 5947, Note_on_c, 0, 62, 26
1, 5950, Note_off_c, 0, 64, 63
1, 5958, Note_off_c, 0, 50, 52
1, 5964, Note_off_c, 0, 59, 53
1, 5964, Note_off_c, 0, 68, 63
1, 5981, Note_off_c, 0, 41, 53
1, 5984, Note_off_c, 0, 62, 31
1, 6290, Note_on_c, 0, 69, 58
1, 6307, Note_on_c, 0, 64, 38
1, 6310, Note_on_c, 0, 60, 39
1, 6325, Note_on_c, 0, 48, 24
1, 6326, Note_on_c, 0, 33, 36
1, 6330, Note_on_c, 0, 40, 43
1, 6352, Control_c, 0, 64, 53
1, 6367, Control_c, 0, 64, 66
1, 6382, Control_c, 0, 64, 72
1, 6397, Control_c, 0, 64, 79
1, 6412, Control_c, 0, 64, 83
1, 6426, Control_c, 0, 64, 87
1, 6429, Note_off_c, 0, 60, 62
1, 6441, Control_c, 0, 64, 89
1, 6444, Note_off_c, 0, 64, 55
1, 6454, Note_off_c, 0, 69, 65
1, 6456, Control_c, 0, 64, 91
1, 6468, Note_off_c, 0, 48, 40
1, 6471, Control_c, 0, 64, 94
1, 6474, Note_off_c, 0, 33, 38
1, 6483, Note_off_c, 0, 40, 36
1, 6486, Control_c, 0, 64, 96
1, 6501, Control_c, 0, 64, 96
1, 6516, Control_c, 0, 64, 97
1, 6531, Control_c, 0, 64, 97
1, 6731, Note_on_c, 0, 71, 68
1, 6738, Control_c, 0, 64, 96
1, 6747, Note_on_c, 0, 65, 51
1, 6753, Control_c, 0, 64, 91
1, 6764, Note_on_c, 0, 69, 74
1, 6765, Note_on_c, 0, 53, 74
1, 6768, Control_c, 0, 64, 80
1, 6769, Note_off_c, 0, 65, 63
1, 6781, Note_on_c, 0, 41, 58
1, 6783, Control_c, 0, 64, 66
1, 6790, Note_off_c, 0, 53, 70
1, 6793, Note_on_c, 0, 48, 40
1, 6794, Note_on_c, 0, 45, 41
1, 6797, Control_c, 0, 64, 0
1, 6809, Note_off_c, 0, 71, 49
1, 6821, Note_off_c, 0, 41, 65
1, 6835, Note_off_c, 0, 48, 54
1, 6836, Note_off_c, 0, 45, 32
1, 6866, Note_on_c, 0, 68, 72
1, 6873, Note_off_c, 0, 69, 61
1, 6973, Note_off_c, 0, 68, 57
1, 6984, Note_on_c, 0, 69, 75
1, 6991, Note_on_c, 0, 48, 62
1, 6993, Note_on_c, 0, 65, 57
1, 7011, Note_on_c, 0, 41, 53
1, 7017, Note_off_c, 0, 48, 67
1, 7029, Note_off_c, 0, 65, 65
1, 7042, Note_off_c, 0, 41, 65
1, 7085, Note_on_c, 0, 71, 65
1, 7093, Note_off_c, 0, 69, 62
1, 7132, Note_off_c, 0, 71, 61
1, 7225, Note_on_c, 0, 72, 75
1, 7237, Note_on_c, 0, 60, 59
1, 7240, Note_on_c, 0, 64, 53
1, 7241, Note_on_c, 0, 48, 53
1, 7247, Note_on_c, 0, 43, 48
1, 7251, Note_on_c, 0, 36, 39
1, 7265, Control_c, 0, 64, 58
1, 7266, Note_off_c, 0, 64, 58
1, 7279, Control_c, 0, 64, 65
1, 7290, Note_off_c, 0, 48, 57
1, 7294, Control_c, 0, 64, 67
1, 7309, Control_c, 0, 64, 70
1, 7311, Note_off_c, 0, 43, 50
1, 7324, Control_c, 0, 64, 73
1, 7339, Control_c, 0, 64, 75
1, 7350, Note_off_c, 0, 60, 0
1, 7354, Control_c, 0, 64, 76
1, 7355, Note_off_c, 0, 36, 33
1, 7368, Control_c, 0, 64, 77
1, 7383, Control_c, 0, 64, 78
1, 7386, Poly_aftertouch_c, 0, 60, 127
1, 7398, Control_c, 0, 64, 78
1, 7412, Note_off_c, 0, 72, 43
1, 7413, Control_c, 0, 64, 79
1, 7428, Control_c, 0, 64, 79
1, 7467, Note_on_c, 0, 64, 56
1, 7480, Note_on_c, 0, 67, 52
1, 7487, Control_c, 0, 64, 79
1, 7498, Note_off_c, 0, 64, 65
1, 7502, Control_c, 0, 64, 75
1, 7506, Note_off_c, 0, 67, 62
1, 7507, Poly_aftertouch_c, 0, 60, 0
1, 7517, Control_c, 0, 64, 67
1, 7532, Control_c, 0, 64, 0
1, 7615, Note_on_c, 0, 35, 40
1, 7653, Note_off_c, 0, 35, 55
1, 7661, Note_on_c, 0, 41, 48
1, 7717, Note_on_c, 0, 72, 63
1, 7718, Note_on_c, 0, 50, 56
1, 7724, Note_on_c, 0, 44, 42
1, 7727, Note_on_c, 0, 65, 54
1, 7741, Note_off_c, 0, 41, 64
1, 7744, Note_off_c, 0, 50, 55
1, 7753, Note_off_c, 0, 44, 49
1, 7767, Note_off_c, 0, 65, 63
1, 7779, Note_off_c, 0, 72, 54
1, 7849, Note_on_c, 0, 71, 56
1, 7896, Note_off_c, 0, 71, 57
1, 7959, Note_on_c, 0, 69, 63
1, 7978, Note_on_c, 0, 65, 36
1, 8017, Note_off_c, 0, 65, 50
1, 8060, Note_off_c, 0, 69, 49
1, 8089, Note_on_c, 0, 68, 54
1, 8131, Note_off_c, 0, 68, 63
1, 8279, Note_on_c, 0, 64, 49
1, 8281, Note_on_c, 0, 60, 45
1, 8282, Note_on_c, 0, 69, 54
1, 8293, Note_on_c, 0, 33, 35
1, 8297, Note_on_c, 0, 40, 35
1, 8298, Note_on_c, 0, 48, 18
1, 8305, Note_off_c, 0, 60, 60
1, 8310, Control_c, 0, 64, 60
1, 8325, Note_off_c, 0, 64, 65
1, 8332, Control_c, 0, 64, 65
1, 8343, Note_off_c, 0, 69, 62
1, 8347, Control_c, 0, 64, 67
1, 8358, Note_off_c, 0, 48, 48
1, 8362, Note_off_c, 0, 40, 54
1, 8362, Control_c, 0, 64, 68
1, 8376, Control_c, 0, 64, 70
1, 8391, Note_off_c, 0, 33, 53
1, 8391, Control_c, 0, 64, 73
1, 8406, Control_c, 0, 64, 74
1, 8421, Control_c, 0, 64, 75
1, 8451, Control_c, 0, 64, 76
1, 8465, Control_c, 0, 64, 76
1, 8480, Control_c, 0, 64, 77
1, 8495, Control_c, 0, 64, 78
1, 8657, Note_on_c, 0, 81, 68
1, 8659, Control_c, 0, 64, 76
1, 8661, Note_on_c, 0, 84, 61
1, 8674, Control_c, 0, 64, 70
1, 8684, Note_off_c, 0, 81, 63
1, 8687, Note_off_c, 0, 84, 64
1, 8689, Control_c, 0, 64, 58
1, 8704, Control_c, 0, 64, 0
1, 8820, Note_on_c, 0, 83, 72
1, 8828, Note_on_c, 0, 80, 66
1, 8834, Note_on_c, 0, 35, 39
1, 8838, Note_on_c, 0, 40, 36
1, 8840, Note_on_c, 0, 47, 33
1, 8856, Note_off_c, 0, 80, 66
1, 8861, Note_off_c, 0, 83, 59
1, 8871, Note_off_c, 0, 35, 47
1, 8878, Note_off_c, 0, 40, 50
1, 8881, Note_off_c, 0, 47, 29
1, 8946, Note_on_c, 0, 78, 71
1, 8949, Note_on_c, 0, 81, 68
1, 8971, Note_off_c, 0, 78, 68
1, 8993, Note_off_c, 0, 81, 60
1, 9072, Note_on_c, 0, 80, 74
1, 9073, Note_on_c, 0, 56, 63
1, 9085, Note_on_c, 0, 76, 46
1, 9087, Note_on_c, 0, 64, 44
1, 9106, Note_off_c, 0, 56, 63
1, 9107, Note_off_c, 0, 76, 61
1, 9112, Note_off_c, 0, 64, 56
1, 9116, Note_off_c, 0, 80, 63
1, 9183, Note_on_c, 0, 83, 68
1, 9193, Note_on_c, 0, 80, 59
1, 9226, Note_off_c, 0, 80, 65
1, 9232, Note_off_c, 0, 83, 59
1, 9311, Note_on_c, 0, 57, 56
1, 9311, Note_on_c, 0, 81, 69
1, 9318, Note_on_c, 0, 66, 66
1, 9324, Note_on_c, 0, 61, 60
1, 9326, Note_on_c, 0, 78, 62
1, 9339, Note_off_c, 0, 66, 68
1, 9344, Note_off_c, 0, 57, 63
1, 9350, Note_off_c, 0, 61, 63
1, 9355, Note_off_c, 0, 81, 61
1, 9360, Note_off_c, 0, 78, 62
1, 9437, Note_on_c, 0, 69, 68
1, 9446, Note_on_c, 0, 73, 67
1, 9464, Note_off_c, 0, 69, 71
1, 9473, Note_off_c, 0, 73, 67
1, 9548, Note_on_c, 0, 78, 78
1, 9550, Note_on_c, 0, 73, 67
1, 9571, Note_off_c, 0, 73, 67
1, 9597, Note_off_c, 0, 78, 62
1, 9646, Note_on_c, 0, 81, 76
1, 9664, Note_on_c, 0, 78, 61
1, 9685, Note_off_c, 0, 81, 63
1, 9692, Note_off_c, 0, 78, 63
1, 9765, Note_on_c, 0, 80, 77
1, 9767, Note_on_c, 0, 35, 54
1, 9773, Note_on_c, 0, 47, 50
1, 9795, Note_off_c, 0, 35, 55
1, 9801, Note_on_c, 0, 76, 16
1, 9802, Note_off_c, 0, 47, 54
1, 9807, Note_off_c, 0, 80, 61
1, 9828, Note_off_c, 0, 76, 35
1, 9878, Note_on_c, 0, 78, 79
1, 9896, Note_on_c, 0, 71, 49
1, 9920, Note_off_c, 0, 71, 52
1, 9941, Note_off_c, 0, 78, 62
1, 9990, Note_on_c, 0, 68, 79
1, 9993, Note_on_c, 0, 56, 67
1, 9996, Note_on_c, 0, 76, 75
1, 10002, Note_on_c, 0, 64, 54
1, 10013, Note_off_c, 0, 68, 71
1, 10023, Note_off_c, 0, 56, 64
1, 10024, Note_off_c, 0, 64, 59
1, 10042, Note_off_c, 0, 76, 64
1, 10093, Note_on_c, 0, 76, 70
1, 10097, Note_on_c, 0, 80, 77
1, 10132, Note_off_c, 0, 76, 68
1, 10138, Note_off_c, 0, 80, 61
1, 10218, Note_on_c, 0, 54, 63
1, 10221, Note_on_c, 0, 78, 85
1, 10224, Note_on_c, 0, 63, 75
1, 10233, Note_on_c, 0, 57, 59
1, 10233, Note_on_c, 0, 75, 69
1, 10245, Control_c, 0, 64, 60
1, 10252, Note_off_c, 0, 63, 66
1, 10260, Note_off_c, 0, 54, 62
1, 10260, Control_c, 0, 64, 67
1, 10260, Note_off_c, 0, 75, 70
1, 10263, Note_off_c, 0, 57, 64
1, 10263, Note_off_c, 0, 78, 63
1, 10275, Control_c, 0, 64, 69
1, 10289, Control_c, 0, 64, 71
1, 10304, Control_c, 0, 64, 72
1, 10319, Control_c, 0, 64, 73
1, 10334, Control_c, 0, 64, 74
1, 10343, Note_on_c, 0, 68, 85
1, 10349, Control_c, 0, 64, 75
1, 10363, Control_c, 0, 64, 76
1, 10378, Control_c, 0, 64, 76
1, 10390, Note_off_c, 0, 68, 60
1, 10393, Control_c, 0, 64, 77
1, 10407, Control_c, 0, 64, 77
1, 10465, Note_on_c, 0, 72, 77
1, 10467, Control_c, 0, 64, 76
1, 10471, Note_on_c, 0, 69, 79
1, 10481, Control_c, 0, 64, 74
1, 10492, Note_off_c, 0, 69, 73
1, 10492, Note_off_c, 0, 72, 64
1, 10496, Control_c, 0, 64, 68
1, 10511, Control_c, 0, 64, 34
1, 10526, Control_c, 0, 64, 0
1, 10586, Note_on_c, 0, 75, 76
1, 10590, Note_on_c, 0, 69, 71
1, 10599, Note_on_c, 0, 72, 58
1, 10611, Note_off_c, 0, 75, 69
1, 10615, Note_off_c, 0, 69, 71
1, 10615, Note_off_c, 0, 72, 64
1, 10685, Note_on_c, 0, 39, 65
1, 10695, Note_on_c, 0, 40, 60
1, 10699, Note_on_c, 0, 78, 86
1, 10704, Note_on_c, 0, 68, 80
1, 10706, Note_on_c, 0, 71, 74
1, 10719, Note_off_c, 0, 39, 65
1, 10727, Note_off_c, 0, 40, 64
1, 10728, Note_off_c, 0, 68, 70
1, 10731, Note_off_c, 0, 71, 68
1, 10761, Note_off_c, 0, 78, 62
1, 10811, Note_on_c, 0, 76, 74
1, 10857, Note_off_c, 0, 76, 65
1, 10898, Note_on_c, 0, 44, 69
1, 10911, Note_on_c, 0, 45, 72
1, 10919, Note_on_c, 0, 76, 82
1, 10925, Note_on_c, 0, 69, 83
1, 10927, Note_on_c, 0, 72, 80
1, 10934, Note_off_c, 0, 44, 68
1, 10946, Note_off_c, 0, 45, 65
1, 10949, Note_off_c, 0, 72, 70
1, 10949, Note_off_c, 0, 69, 69
1, 10970, Note_off_c, 0, 76, 64
1, 11017, Note_on_c, 0, 75, 77
1, 11054, Note_off_c, 0, 75, 64
1, 11122, Note_on_c, 0, 78, 92
1, 11124, Note_on_c, 0, 68, 89
1, 11126, Note_on_c, 0, 52, 86
1, 11129, Note_on_c, 0, 51, 77
1, 11133, Note_on_c, 0, 71, 79
1, 11144, Note_off_c, 0, 68, 69
1, 11151, Note_off_c, 0, 52, 72
1, 11156, Note_off_c, 0, 51, 67
1, 11156, Note_off_c, 0, 71, 66
1, 11178, Note_off_c, 0, 78, 64
1, 11229, Note_on_c, 0, 76, 89
1, 11278, Note_off_c, 0, 76, 67
1, 11346, Note_on_c, 0, 57, 80
1, 11347, Note_on_c, 0, 76, 89
1, 11353, Note_on_c, 0, 69, 84
1, 11354, Note_on_c, 0, 72, 83
1, 11357, Note_on_c, 0, 56, 70
1, 11369, Note_off_c, 0, 57, 69
1, 11375, Note_off_c, 0, 69, 71
1, 11376, Note_off_c, 0, 72, 68
1, 11380, Note_off_c, 0, 56, 66
1, 11402, Note_off_c, 0, 76, 66
1, 11450, Note_on_c, 0, 75, 79
1, 11511, Note_off_c, 0, 75, 64
1, 11564, Control_c, 0, 64, 46
1, 11577, Note_on_c, 0, 63, 84
1, 11579, Control_c, 0, 64, 73
1, 11580, Note_on_c, 0, 68, 92
1, 11580, Note_on_c, 0, 64, 74
1, 11583, Note_on_c, 0, 76, 89
1, 11585, Note_on_c, 0, 71, 81
1, 11593, Control_c, 0, 64, 81
1, 11596, Note_off_c, 0, 68, 74
1, 11597, Note_off_c, 0, 63, 72
1, 11599, Note_off_c, 0, 64, 68
1, 11603, Note_off_c, 0, 71, 70
1, 11608, Control_c, 0, 64, 87
1, 11620, Note_off_c, 0, 76, 69
1, 11623, Control_c, 0, 64, 89
1, 11637, Control_c, 0, 64, 92
1, 11652, Control_c, 0, 64, 94
1, 11667, Control_c, 0, 64, 95
1, 11682, Control_c, 0, 64, 96
1, 11697, Control_c, 0, 64, 96
1, 11727, Control_c, 0, 64, 97
1, 11756, Control_c, 0, 64, 97
1, 11800, Control_c, 0, 64, 98
1, 11815, Control_c, 0, 64, 99
1, 11830, Control_c, 0, 64, 101
1, 11835, Note_on_c, 0, 28, 77
1, 11840, Note_on_c, 0, 40, 75
1, 11846, Control_c, 0, 64, 104
1, 11853, Note_on_c, 0, 88, 87
1, 11854, Note_on_c, 0, 100, 92
1, 11860, Control_c, 0, 64, 106
1, 11864, Note_off_c, 0, 40, 65
1, 11871, Note_off_c, 0, 28, 62
1, 11875, Control_c, 0, 64, 106
1, 11880, Note_off_c, 0, 100, 62
1, 11884, Note_off_c, 0, 88, 61
1, 11905, Control_c, 0, 64, 107
1, 11920, Control_c, 0, 64, 108
1, 11923, Note_on_c, 0, 40, 86
1, 11923, Note_on_c, 0, 28, 86
1, 11929, Note_on_c, 0, 88, 83
1, 11929, Note_on_c, 0, 100, 88
1, 11934, Control_c, 0, 64, 111
1, 11949, Control_c, 0, 64, 113
1, 11952, Note_off_c, 0, 40, 68
1, 11964, Control_c, 0, 64, 114
1, 11965, Note_off_c, 0, 100, 66
1, 11965, Note_off_c, 0, 88, 64
1, 11966, Note_off_c, 0, 28, 62
1, 11993, Control_c, 0, 64, 115
1, 12008, Control_c, 0, 64, 117
1, 12009, Note_on_c, 0, 28, 78
1, 12014, Note_on_c, 0, 40, 84
1, 12015, Note_on_c, 0, 88, 91
1, 12019, Note_on_c, 0, 100, 90
1, 12023, Control_c, 0, 64, 121
1, 12038, Control_c, 0, 64, 127
1, 12044, Note_off_c, 0, 40, 66
1, 12051, Note_off_c, 0, 88, 65
1, 12052, Note_off_c, 0, 100, 68
1, 12053, Note_off_c, 0, 28, 63
1, 12099, Note_on_c, 0, 40, 90
1, 12099, Note_on_c, 0, 100, 97
1, 12100, Note_on_c, 0, 28, 87
1, 12103, Note_on_c, 0, 88, 83
1, 12103, Note_on_c, 0, 92, 100
1, 12118, Note_on_c, 0, 89, 73
1, 12120, Control_c, 0, 64, 126
1, 12125, Note_off_c, 0, 92, 63
1, 12127, Note_off_c, 0, 88, 66
1, 12131, Note_off_c, 0, 28, 67
1, 12131, Note_off_c, 0, 100, 68
1, 12133, Note_off_c, 0, 89, 43
1, 12134, Control_c, 0, 64, 107
1, 12135, Note_off_c, 0, 40, 65
1, 12149, Control_c, 0, 64, 93
1, 12164, Control_c, 0, 64, 79
1, 12179, Control_c, 0, 64, 67
1, 12193, Control_c, 0, 64, 0
1, 12438, Note_on_c, 0, 64, 59
1, 12454, Note_on_c, 0, 66, 64
1, 12477, Note_on_c, 0, 33, 54
1, 12480, Note_on_c, 0, 68, 72
1, 12483, Note_off_c, 0, 64, 65
1, 12509, Note_off_c, 0, 66, 64
1, 12514, Note_off_c, 0, 68, 63
1, 12516, Note_off_c, 0, 33, 62
1, 12534, Note_on_c, 0, 40, 53
1, 12561, Note_on_c, 0, 48, 79
1, 12563, Note_on_c, 0, 69, 88
1, 12566, Note_on_c, 0, 60, 78
1, 12566, Note_on_c, 0, 64, 77
1, 12576, Note_off_c, 0, 40, 65
1, 12582, Note_off_c, 0, 69, 73
1, 12585, Note_off_c, 0, 48, 69
1, 12585, Note_off_c, 0, 60, 70
1, 12588, Note_off_c, 0, 64, 69
1, 12789, Note_on_c, 0, 59, 80
1, 12797, Note_on_c, 0, 68, 78
1, 12816, Note_on_c, 0, 52, 48
1, 12830, Note_on_c, 0, 64, 43
1, 12838, Note_off_c, 0, 59, 62
1, 12845, Note_off_c, 0, 64, 41
1, 12847, Note_off_c, 0, 52, 57
1, 12853, Note_off_c, 0, 68, 62
1, 12910, Note_on_c, 0, 71, 80
1, 12914, Note_on_c, 0, 64, 42
1, 12916, Note_on_c, 0, 62, 77
1, 12926, Note_on_c, 0, 52, 32
1, 12927, Note_off_c, 0, 52, 127
1, 12942, Note_off_c, 0, 64, 34
1, 12943, Note_off_c, 0, 62, 67
1, 12962, Note_off_c, 0, 71, 60
1, 13016, Note_on_c, 0, 57, 70
1, 13016, Note_on_c, 0, 64, 84
1, 13017, Note_on_c, 0, 45, 76
1, 13019, Note_on_c, 0, 69, 84
1, 13023, Note_on_c, 0, 60, 80
1, 13039, Note_off_c, 0, 45, 69
1, 13041, Note_off_c, 0, 57, 66
1, 13043, Note_off_c, 0, 64, 67
1, 13044, Note_off_c, 0, 60, 69
1, 13056, Note_off_c, 0, 69, 65
1, 13253, Note_on_c, 0, 52, 63
1, 13262, Note_on_c, 0, 68, 72
1, 13264, Note_on_c, 0, 40, 54
1, 13265, Note_on_c, 0, 45, 38
1, 13274, Note_on_c, 0, 59, 61
1, 13281, Note_off_c, 0, 52, 68
1, 13285, Note_on_c, 0, 64, 42
1, 13294, Note_off_c, 0, 45, 58
1, 13295, Note_off_c, 0, 59, 60
1, 13299, Note_off_c, 0, 40, 62
1, 13309, Note_off_c, 0, 64, 58
1, 13331, Note_off_c, 0, 68, 65
1, 13375, Note_on_c, 0, 71, 63
1, 13419, Note_on_c, 0, 38, 54
1, 13423, Note_off_c, 0, 71, 60
1, 13463, Note_off_c, 0, 38, 59
1, 13502, Note_on_c, 0, 71, 66
1, 13507, Note_on_c, 0, 69, 71
1, 13510, Note_on_c, 0, 53, 69
1, 13510, Note_on_c, 0, 60, 70
1, 13515, Note_on_c, 0, 65, 63
1, 13523, Poly_aftertouch_c, 0, 45, 0
1, 13536, Note_off_c, 0, 65, 67
1, 13537, Note_off_c, 0, 60, 67
1, 13537, Note_off_c, 0, 69, 65
1, 13539, Note_off_c, 0, 53, 68
1, 13539, Note_off_c, 0, 71, 63
1, 13798, Note_on_c, 0, 64, 52
1, 13798, Note_on_c, 0, 68, 71
1, 13801, Note_on_c, 0, 62, 58
1, 13804, Note_on_c, 0, 50, 47
1, 13804, Note_on_c, 0, 59, 54
1, 13807, Note_on_c, 0, 41, 42
1, 13825, Note_off_c, 0, 59, 57
1, 13826, Note_off_c, 0, 62, 63
1, 13829, Note_off_c, 0, 64, 65
1, 13834, Note_off_c, 0, 50, 48
1, 13840, Note_off_c, 0, 68, 65
1, 13840, Note_off_c, 0, 41, 49
1, 14159, Note_on_c, 0, 69, 54
1, 14171, Note_on_c, 0, 64, 39
1, 14173, Note_on_c, 0, 60, 47
1, 14210, Note_on_c, 0, 33, 25
1, 14211, Note_on_c, 0, 40, 37
1, 14239, Poly_aftertouch_c, 0, 48, 127
1, 14255, Control_c, 0, 64, 38
1, 14270, Control_c, 0, 64, 65
1, 14285, Control_c, 0, 64, 70
1, 14308, Control_c, 0, 64, 74
1, 14323, Control_c, 0, 64, 77
1, 14337, Control_c, 0, 64, 80
1, 14352, Control_c, 0, 64, 84
1, 14367, Control_c, 0, 64, 88
1, 14371, Note_off_c, 0, 60, 61
1, 14382, Control_c, 0, 64, 91
1, 14397, Control_c, 0, 64, 94
1, 14398, Note_off_c, 0, 64, 55
1, 14402, Poly_aftertouch_c, 0, 48, 0
1, 14406, Note_off_c, 0, 69, 62
1, 14411, Control_c, 0, 64, 96
1, 14419, Note_off_c, 0, 33, 44
1, 14426, Control_c, 0, 64, 99
1, 14441, Control_c, 0, 64, 101
1, 14447, Note_off_c, 0, 40, 40
1, 14456, Control_c, 0, 64, 102
1, 14470, Control_c, 0, 64, 103
1, 14485, Control_c, 0, 64, 103
1, 14530, Control_c, 0, 64, 104
1, 14621, Note_on_c, 0, 71, 60
1, 14633, Control_c, 0, 64, 103
1, 14648, Control_c, 0, 64, 98
1, 14654, Note_on_c, 0, 69, 73
1, 14663, Control_c, 0, 64, 86
1, 14666, Note_on_c, 0, 53, 68
1, 14678, Control_c, 0, 64, 71
1, 14685, Note_on_c, 0, 41, 49
1, 14687, Note_on_c, 0, 45, 48
1, 14689, Note_on_c, 0, 48, 44
1, 14691, Note_off_c, 0, 71, 52
1, 14693, Control_c, 0, 64, 0
1, 14695, Note_off_c, 0, 53, 68
1, 14716, Note_off_c, 0, 45, 54
1, 14716, Note_off_c, 0, 41, 59
1, 14720, Note_off_c, 0, 48, 54
1, 14743, Note_on_c, 0, 68, 70
1, 14758, Note_off_c, 0, 69, 58
1, 14860, Note_on_c, 0, 65, 59
1, 14863, Note_on_c, 0, 48, 56
1, 14866, Note_off_c, 0, 68, 57
1, 14868, Note_on_c, 0, 69, 67
1, 14878, Note_on_c, 0, 41, 41
1, 14897, Note_off_c, 0, 48, 66
1, 14903, Note_off_c, 0, 65, 63
1, 14915, Note_off_c, 0, 41, 65
1, 14968, Note_on_c, 0, 71, 68
1, 14976, Note_off_c, 0, 69, 64
1, 15014, Note_off_c, 0, 71, 60
1, 15116, Note_on_c, 0, 72, 75
1, 15125, Note_on_c, 0, 64, 61
1, 15128, Note_on_c, 0, 48, 47
1, 15128, Note_on_c, 0, 60, 61
1, 15131, Note_on_c, 0, 43, 43
1, 15137, Note_on_c, 0, 36, 46
1, 15146, Control_c, 0, 64, 53
1, 15160, Control_c, 0, 64, 63
1, 15161, Note_off_c, 0, 64, 62
1, 15170, Note_off_c, 0, 48, 57
1, 15175, Control_c, 0, 64, 65
1, 15190, Control_c, 0, 64, 68
1, 15190, Note_off_c, 0, 60, 0
1, 15199, Note_off_c, 0, 43, 41
1, 15201, Note_off_c, 0, 36, 56
1, 15205, Control_c, 0, 64, 71
1, 15220, Control_c, 0, 64, 74
1, 15228, Poly_aftertouch_c, 0, 60, 127
1, 15235, Control_c, 0, 64, 77
1, 15250, Control_c, 0, 64, 78
1, 15265, Control_c, 0, 64, 78
1, 15279, Note_off_c, 0, 72, 50
1, 15279, Control_c, 0, 64, 79
1, 15294, Control_c, 0, 64, 79
1, 15324, Control_c, 0, 64, 80
1, 15339, Control_c, 0, 64, 80
1, 15360, Note_on_c, 0, 67, 57
1, 15363, Note_on_c, 0, 64, 49
1, 15393, Note_off_c, 0, 67, 65
1, 15395, Note_off_c, 0, 64, 59
1, 15403, Poly_aftertouch_c, 0, 60, 0
1, 15412, Control_c, 0, 64, 78
1, 15427, Control_c, 0, 64, 73
1, 15442, Control_c, 0, 64, 64
1, 15457, Control_c, 0, 64, 0
1, 15459, Note_on_c, 0, 35, 48
1, 15502, Note_off_c, 0, 35, 61
1, 15518, Note_on_c, 0, 41, 42
1, 15588, Note_on_c, 0, 50, 60
1, 15594, Note_on_c, 0, 44, 51
1, 15598, Note_on_c, 0, 72, 64
1, 15608, Note_on_c, 0, 65, 58
1, 15610, Note_off_c, 0, 50, 63
1, 15619, Note_off_c, 0, 41, 60
1, 15620, Note_off_c, 0, 44, 60
1, 15643, Note_off_c, 0, 65, 66
1, 15662, Note_off_c, 0, 72, 57
1, 15724, Note_on_c, 0, 71, 62
1, 15772, Note_off_c, 0, 71, 59
1, 15855, Note_on_c, 0, 69, 62
1, 15862, Note_on_c, 0, 65, 48
1, 15890, Note_off_c, 0, 65, 59
1, 15913, Note_off_c, 0, 69, 52
1, 15980, Note_on_c, 0, 68, 54
1, 16023, Note_off_c, 0, 68, 64
1, 16185, Note_on_c, 0, 69, 50
1, 16187, Note_on_c, 0, 64, 44
1, 16197, Note_on_c, 0, 60, 31
1, 16204, Note_on_c, 0, 40, 34
1, 16205, Note_on_c, 0, 33, 34
1, 16220, Control_c, 0, 64, 41
1, 16233, Poly_aftertouch_c, 0, 48, 127
1, 16234, Note_off_c, 0, 60, 51
1, 16235, Control_c, 0, 64, 62
1, 16244, Note_off_c, 0, 64, 58
1, 16250, Control_c, 0, 64, 68
1, 16265, Control_c, 0, 64, 71
1, 16280, Control_c, 0, 64, 74
1, 16284, Note_off_c, 0, 69, 65
1, 16295, Control_c, 0, 64, 77
1, 16306, Poly_aftertouch_c, 0, 48, 0
1, 16309, Control_c, 0, 64, 79
1, 16323, Note_off_c, 0, 40, 31
1, 16324, Control_c, 0, 64, 80
1, 16339, Control_c, 0, 64, 81
1, 16353, Control_c, 0, 64, 82
1, 16362, Note_off_c, 0, 33, 43
1, 16368, Control_c, 0, 64, 83
1, 16383, Control_c, 0, 64, 83
1, 16413, Control_c, 0, 64, 84
1, 16576, Note_on_c, 0, 81, 63
1, 16578, Note_on_c, 0, 84, 62
1, 16597, Note_off_c, 0, 81, 59
1, 16611, Note_off_c, 0, 84, 64
1, 16613, Control_c, 0, 64, 82
1, 16628, Control_c, 0, 64, 77
1, 16644, Control_c, 0, 64, 68
1, 16658, Control_c, 0, 64, 36
1, 16673, Control_c, 0, 64, 0
1, 16744, Note_on_c, 0, 83, 71
1, 16750, Note_on_c, 0, 80, 73
1, 16759, Note_on_c, 0, 35, 44
1, 16762, Note_on_c, 0, 47, 40
1, 16765, Note_on_c, 0, 40, 39
1, 16785, Note_off_c, 0, 83, 60
1, 16787, Note_off_c, 0, 80, 59
1, 16793, Note_off_c, 0, 35, 49
1, 16797, Note_off_c, 0, 47, 54
1, 16802, Note_off_c, 0, 40, 51
1, 16879, Note_on_c, 0, 78, 73
1, 16879, Note_on_c, 0, 81, 71
1, 16904, Note_off_c, 0, 78, 67
1, 16924, Note_off_c, 0, 81, 62
1, 16997, Note_on_c, 0, 80, 75
1, 17004, Note_on_c, 0, 76, 61
1, 17006, Note_on_c, 0, 56, 62
1, 17015, Note_on_c, 0, 64, 48
1, 17035, Note_off_c, 0, 76, 68
1, 17036, Note_off_c, 0, 56, 65
1, 17038, Note_off_c, 0, 64, 59
1, 17050, Note_off_c, 0, 80, 61
1, 17118, Note_on_c, 0, 83, 67
1, 17125, Note_on_c, 0, 80, 60
1, 17164, Note_off_c, 0, 80, 62
1, 17170, Note_off_c, 0, 83, 59
1, 17249, Note_on_c, 0, 57, 63
1, 17255, Note_on_c, 0, 66, 65
1, 17255, Note_on_c, 0, 78, 72
1, 17265, Note_on_c, 0, 61, 56
1, 17266, Note_on_c, 0, 81, 41
1, 17281, Note_on_c, 0, 83, 33
1, 17283, Note_off_c, 0, 66, 68
1, 17287, Note_off_c, 0, 57, 59
1, 17294, Note_off_c, 0, 81, 56
1, 17295, Note_off_c, 0, 61, 63
1, 17296, Note_off_c, 0, 78, 59
1, 17321, Note_off_c, 0, 83, 33
1, 17381, Note_on_c, 0, 69, 65
1, 17381, Note_on_c, 0, 73, 72
1, 17409, Note_off_c, 0, 69, 70
1, 17412, Note_off_c, 0, 73, 63
1, 17500, Note_on_c, 0, 73, 66
1, 17502, Note_on_c, 0, 78, 69
1, 17518, Note_off_c, 0, 73, 66
1, 17534, Note_off_c, 0, 78, 61
1, 17595, Note_on_c, 0, 81, 76
1, 17611, Note_on_c, 0, 78, 68
1, 17632, Note_off_c, 0, 81, 62
1, 17638, Note_off_c, 0, 78, 66
1, 17713, Note_on_c, 0, 35, 57
1, 17715, Note_on_c, 0, 80, 79
1, 17716, Note_on_c, 0, 76, 74
1, 17725, Note_on_c, 0, 47, 47
1, 17741, Note_off_c, 0, 35, 60
1, 17754, Note_off_c, 0, 76, 67
1, 17756, Note_off_c, 0, 47, 52
1, 17766, Note_off_c, 0, 80, 59
1, 17826, Note_on_c, 0, 78, 76
1, 17830, Note_on_c, 0, 71, 72
1, 17854, Note_off_c, 0, 71, 67
1, 17885, Note_off_c, 0, 78, 62
1, 17933, Note_on_c, 0, 75, 81
1, 17939, Note_on_c, 0, 56, 59
1, 17940, Note_on_c, 0, 68, 74
1, 17951, Note_on_c, 0, 64, 41
1, 17964, Note_off_c, 0, 68, 70
1, 17969, Note_off_c, 0, 56, 64
1, 17978, Note_off_c, 0, 64, 49
1, 17998, Note_off_c, 0, 75, 61
1, 18054, Note_on_c, 0, 76, 73
1, 18054, Note_on_c, 0, 80, 73
1, 18088, Note_off_c, 0, 80, 57
1, 18090, Note_off_c, 0, 76, 64
1, 18165, Note_on_c, 0, 78, 87
1, 18169, Note_on_c, 0, 63, 75
1, 18173, Note_on_c, 0, 54, 54
1, 18175, Note_on_c, 0, 75, 73
1, 18183, Note_on_c, 0, 57, 57
1, 18195, Note_off_c, 0, 63, 67
1, 18197, Note_on_c, 0, 60, 32
1, 18201, Note_off_c, 0, 75, 69
1, 18208, Note_off_c, 0, 54, 63
1, 18212, Note_off_c, 0, 57, 64
1, 18214, Control_c, 0, 64, 42
1, 18221, Note_off_c, 0, 78, 61
1, 18230, Control_c, 0, 64, 60
1, 18231, Note_off_c, 0, 60, 33
1, 18245, Control_c, 0, 64, 63
1, 18260, Control_c, 0, 64, 64
1, 18275, Control_c, 0, 64, 65
1, 18290, Control_c, 0, 64, 66
1, 18292, Note_on_c, 0, 66, 70
1, 18298, Note_on_c, 0, 69, 72
1, 18304, Control_c, 0, 64, 66
1, 18318, Note_off_c, 0, 66, 68
1, 18324, Note_off_c, 0, 69, 68
1, 18364, Control_c, 0, 64, 65
1, 18378, Control_c, 0, 64, 58
1, 18393, Control_c, 0, 64, 0
1, 18398, Note_on_c, 0, 72, 73
1, 18401, Note_on_c, 0, 69, 72
1, 18425, Note_off_c, 0, 69, 69
1, 18428, Note_off_c, 0, 72, 65
1, 18499, Note_on_c, 0, 69, 73
1, 18508, Note_on_c, 0, 75, 77
1, 18514, Note_on_c, 0, 72, 63
1, 18526, Note_off_c, 0, 69, 69
1, 18533, Note_off_c, 0, 72, 66
1, 18542, Note_off_c, 0, 75, 61
1, 18586, Note_on_c, 0, 39, 52
1, 18605, Note_on_c, 0, 40, 81
1, 18619, Note_on_c, 0, 78, 84
1, 18621, Note_on_c, 0, 68, 84
1, 18630, Note_off_c, 0, 39, 64
1, 18630, Note_on_c, 0, 71, 66
1, 18636, Note_off_c, 0, 40, 67
1, 18641, Note_off_c, 0, 68, 71
1, 18656, Note_off_c, 0, 71, 67
1, 18680, Note_off_c, 0, 78, 63
1, 18726, Note_on_c, 0, 76, 72
1, 18772, Note_off_c, 0, 76, 66
1, 18831, Note_on_c, 0, 44, 73
1, 18839, Note_on_c, 0, 45, 65
1, 18840, Note_on_c, 0, 76, 82
1, 18845, Note_on_c, 0, 69, 82
1, 18847, Note_on_c, 0, 72, 78
1, 18860, Note_off_c, 0, 44, 64
1, 18869, Note_off_c, 0, 45, 65
1, 18869, Note_off_c, 0, 69, 68
1, 18869, Note_off_c, 0, 72, 69
1, 18892, Note_off_c, 0, 76, 66
1, 18940, Note_on_c, 0, 75, 82
1, 18992, Note_off_c, 0, 75, 62
1, 19049, Note_on_c, 0, 78, 92
1, 19051, Note_on_c, 0, 52, 80
1, 19053, Note_on_c, 0, 68, 88
1, 19054, Note_on_c, 0, 51, 73
1, 19061, Note_on_c, 0, 71, 79
1, 19072, Note_off_c, 0, 68, 70
1, 19077, Note_off_c, 0, 52, 71
1, 19083, Note_off_c, 0, 51, 65
1, 19084, Note_off_c, 0, 71, 66
1, 19105, Note_off_c, 0, 78, 63
1, 19159, Note_on_c, 0, 76, 85
1, 19207, Note_off_c, 0, 76, 65
1, 19256, Note_on_c, 0, 57, 71
1, 19262, Note_on_c, 0, 56, 73
1, 19262, Note_on_c, 0, 76, 84
1, 19268, Note_on_c, 0, 69, 82
1, 19271, Note_on_c, 0, 72, 78
1, 19283, Note_off_c, 0, 57, 66
1, 19286, Note_off_c, 0, 56, 66
1, 19292, Note_off_c, 0, 69, 67
1, 19295, Note_off_c, 0, 72, 68
1, 19318, Note_off_c, 0, 76, 66
1, 19365, Note_on_c, 0, 75, 80
1, 19423, Note_off_c, 0, 75, 64
1, 19483, Control_c, 0, 64, 47
1, 19487, Note_on_c, 0, 63, 81
1, 19491, Note_on_c, 0, 64, 66
1, 19492, Note_on_c, 0, 68, 96
1, 19492, Note_on_c, 0, 76, 83
1, 19495, Note_on_c, 0, 71, 84
1, 19498, Control_c, 0, 64, 72
1, 19508, Note_off_c, 0, 63, 70
1, 19508, Note_off_c, 0, 64, 66
1, 19510, Note_off_c, 0, 68, 73
1, 19513, Control_c, 0, 64, 81
1, 19516, Note_off_c, 0, 71, 69
1, 19528, Control_c, 0, 64, 86
1, 19533, Note_off_c, 0, 76, 67
1, 19542, Control_c, 0, 64, 88
1, 19565, Control_c, 0, 64, 90
1, 19579, Control_c, 0, 64, 91
1, 19594, Control_c, 0, 64, 93
1, 19609, Control_c, 0, 64, 93
1, 19624, Control_c, 0, 64, 94
1, 19639, Control_c, 0, 64, 94
1, 19653, Control_c, 0, 64, 95
1, 19683, Control_c, 0, 64, 95
1, 19698, Control_c, 0, 64, 96
1, 19727, Control_c, 0, 64, 97
1, 19742, Control_c, 0, 64, 98
1, 19757, Control_c, 0, 64, 99
1, 19760, Note_on_c, 0, 28, 78
1, 19763, Note_on_c, 0, 40, 75
1, 19772, Control_c, 0, 64, 101
1, 19780, Note_on_c, 0, 88, 87
1, 19787, Control_c, 0, 64, 102
1, 19787, Note_on_c, 0, 100, 86
1, 19792, Note_off_c, 0, 40, 65
1, 19796, Note_off_c, 0, 28, 63
1, 19799, Note_off_c, 0, 88, 69
1, 19805, Note_off_c, 0, 100, 72
1, 19817, Control_c, 0, 64, 103
1, 19832, Control_c, 0, 64, 104
1, 19847, Control_c, 0, 64, 105
1, 19849, Note_on_c, 0, 28, 93
1, 19849, Note_on_c, 0, 88, 90
1, 19851, Note_on_c, 0, 40, 88
1, 19851, Note_on_c, 0, 100, 91
1, 19862, Control_c, 0, 64, 107
1, 19876, Control_c, 0, 64, 107
1, 19881, Note_off_c, 0, 40, 66
1, 19885, Note_off_c, 0, 88, 64
1, 19886, Note_off_c, 0, 100, 67
1, 19891, Note_off_c, 0, 28, 60
1, 19891, Control_c, 0, 64, 108
1, 19906, Control_c, 0, 64, 109
1, 19921, Control_c, 0, 64, 111
1, 19930, Note_on_c, 0, 88, 88
1, 19933, Note_on_c, 0, 28, 81
1, 19934, Note_on_c, 0, 100, 91
1, 19936, Control_c, 0, 64, 114
1, 19939, Note_on_c, 0, 40, 83
1, 19951, Control_c, 0, 64, 117
1, 19966, Control_c, 0, 64, 119
1, 19966, Note_off_c, 0, 88, 66
1, 19970, Note_off_c, 0, 100, 65
1, 19971, Note_off_c, 0, 40, 62
1, 19980, Control_c, 0, 64, 119
1, 19981, Note_off_c, 0, 28, 62
1, 19995, Control_c, 0, 64, 121
1, 20008, Note_on_c, 0, 88, 89
1, 20009, Control_c, 0, 64, 121
1, 20010, Note_on_c, 0, 40, 88
1, 20010, Note_on_c, 0, 92, 101
1, 20010, Note_on_c, 0, 100, 94
1, 20011, Note_on_c, 0, 28, 83
1, 20024, Control_c, 0, 64, 122
1, 20041, Note_off_c, 0, 100, 68
1, 20042, Note_off_c, 0, 88, 66
1, 20044, Note_off_c, 0, 92, 68
1, 20045, Note_off_c, 0, 28, 63
1, 20052, Note_off_c, 0, 40, 65
1, 20054, Control_c, 0, 64, 121
1, 20069, Control_c, 0, 64, 110
1, 20083, Control_c, 0, 64, 95
1, 20098, Control_c, 0, 64, 80
1, 20113, Control_c, 0, 64, 65
1, 20128, Control_c, 0, 64, 0
1, 20467, Note_on_c, 0, 64, 92
1, 20499, Note_off_c, 0, 64, 68
1, 20535, Note_on_c, 0, 64, 100
1, 20625, Control_c, 0, 64, 49
1, 20639, Control_c, 0, 64, 64
1, 20654, Control_c, 0, 64, 67
1, 20669, Control_c, 0, 64, 71
1, 20684, Control_c, 0, 64, 77
1, 20699, Control_c, 0, 64, 83
1, 20714, Control_c, 0, 64, 88
1, 20729, Control_c, 0, 64, 90
1, 20744, Control_c, 0, 64, 92
1, 20759, Control_c, 0, 64, 96
1, 20773, Control_c, 0, 64, 99
1, 20774, Note_off_c, 0, 64, 64
1, 20788, Control_c, 0, 64, 104
1, 20803, Control_c, 0, 64, 108
1, 20817, Control_c, 0, 64, 112
1, 20832, Control_c, 0, 64, 116
1, 20847, Control_c, 0, 64, 120
1, 20862, Control_c, 0, 64, 122
1, 20877, Control_c, 0, 64, 124
1, 20891, Control_c, 0, 64, 126
1, 20906, Control_c, 0, 64, 127
1, 21059, Note_on_c, 0, 61, 97
1, 21064, Note_on_c, 0, 68, 100
1, 21069, Note_on_c, 0, 64, 93
1, 21078, Note_off_c, 0, 61, 71
1, 21091, Note_off_c, 0, 64, 70
1, 21101, Note_off_c, 0, 68, 69
1, 21537, Control_c, 0, 64, 114
1, 21552, Control_c, 0, 64, 98
1, 21556, Note_on_c, 0, 56, 88
1, 21560, Note_on_c, 0, 59, 91
1, 21563, Note_on_c, 0, 63, 84
1, 21564, Note_on_c, 0, 71, 82
1, 21565, Note_on_c, 0, 68, 85
1, 21566, Control_c, 0, 64, 82
1, 21576, Note_off_c, 0, 56, 71
1, 21581, Control_c, 0, 64, 66
1, 21596, Control_c, 0, 64, 0
1, 21799, Note_on_c, 0, 43, 67
1, 21816, Note_on_c, 0, 44, 71
1, 21823, Note_off_c, 0, 43, 65
1, 21840, Note_off_c, 0, 44, 67
1, 21989, Note_off_c, 0, 59, 58
1, 22007, Note_off_c, 0, 71, 54
1, 22008, Note_off_c, 0, 63, 57
1, 22017, Note_off_c, 0, 68, 56
1, 22036, Note_on_c, 0, 51, 86
1, 22037, Note_on_c, 0, 50, 63
1, 22057, Note_off_c, 0, 51, 70
1, 22058, Note_off_c, 0, 50, 61
1, 22185, Note_on_c, 0, 68, 64
1, 22203, Note_on_c, 0, 64, 34
1, 22218, Note_off_c, 0, 68, 65
1, 22231, Note_off_c, 0, 64, 48
1, 22256, Note_on_c, 0, 59, 63
1, 22256, Control_c, 0, 64, 28
1, 22259, Note_on_c, 0, 71, 75
1, 22262, Note_on_c, 0, 37, 76
1, 22267, Note_on_c, 0, 25, 69
1, 22270, Control_c, 0, 64, 66
1, 22281, Note_on_c, 0, 68, 47
1, 22282, Note_off_c, 0, 59, 64
1, 22285, Control_c, 0, 64, 73
1, 22292, Note_off_c, 0, 37, 65
1, 22295, Note_off_c, 0, 25, 63
1, 22300, Control_c, 0, 64, 78
1, 22309, Note_off_c, 0, 68, 52
1, 22311, Note_off_c, 0, 71, 61
1, 22315, Control_c, 0, 64, 81
1, 22330, Control_c, 0, 64, 83
1, 22345, Control_c, 0, 64, 86
1, 22359, Control_c, 0, 64, 89
1, 22374, Control_c, 0, 64, 91
1, 22404, Control_c, 0, 64, 90
1, 22419, Control_c, 0, 64, 83
1, 22428, Note_on_c, 0, 76, 70
1, 22434, Control_c, 0, 64, 69
1, 22449, Control_c, 0, 64, 0
1, 22467, Note_off_c, 0, 76, 56
1, 22478, Control_c, 0, 64, 59
1, 22493, Control_c, 0, 64, 72
1, 22495, Note_on_c, 0, 68, 92
1, 22495, Note_on_c, 0, 75, 83
1, 22499, Note_on_c, 0, 44, 87
1, 22500, Note_on_c, 0, 32, 79
1, 22502, Note_on_c, 0, 71, 37
1, 22508, Control_c, 0, 64, 82
1, 22523, Control_c, 0, 64, 89
1, 22529, Note_off_c, 0, 44, 67
1, 22532, Note_off_c, 0, 68, 63
1, 22535, Note_off_c, 0, 71, 63
1, 22537, Note_off_c, 0, 75, 68
1, 22544, Note_off_c, 0, 32, 63
1, 22544, Control_c, 0, 64, 91
1, 22559, Control_c, 0, 64, 94
1, 22574, Control_c, 0, 64, 97
1, 22589, Control_c, 0, 64, 99
1, 22604, Control_c, 0, 64, 100
1, 22634, Control_c, 0, 64, 98
1, 22649, Control_c, 0, 64, 88
1, 22652, Note_on_c, 0, 68, 92
1, 22663, Control_c, 0, 64, 71
1, 22678, Control_c, 0, 64, 0
1, 22693, Control_c, 0, 64, 44
1, 22708, Control_c, 0, 64, 67
1, 22717, Note_off_c, 0, 68, 0
1, 22722, Control_c, 0, 64, 77
1, 22731, Note_on_c, 0, 59, 88
1, 22731, Note_on_c, 0, 71, 89
1, 22734, Note_on_c, 0, 49, 90
1, 22734, Note_on_c, 0, 68, 56
1, 22737, Control_c, 0, 64, 86
1, 22741, Note_on_c, 0, 37, 75
1, 22752, Control_c, 0, 64, 92
1, 22753, Note_off_c, 0, 59, 66
1, 22754, Note_off_c, 0, 49, 70
1, 22763, Note_off_c, 0, 68, 65
1, 22767, Control_c, 0, 64, 95
1, 22778, Note_off_c, 0, 37, 66
1, 22779, Note_off_c, 0, 71, 63
1, 22782, Control_c, 0, 64, 98
1, 22796, Control_c, 0, 64, 101
1, 22811, Control_c, 0, 64, 105
1, 22826, Control_c, 0, 64, 108
1, 22841, Control_c, 0, 64, 109
1, 22870, Control_c, 0, 64, 109
1, 22885, Control_c, 0, 64, 99
1, 22891, Note_on_c, 0, 76, 78
1, 22900, Control_c, 0, 64, 80
1, 22915, Control_c, 0, 64, 55
1, 22929, Control_c, 0, 64, 0
1, 22944, Control_c, 0, 64, 42
1, 22956, Note_on_c, 0, 75, 89
1, 22959, Control_c, 0, 64, 72
1, 22962, Note_off_c, 0, 76, 62
1, 22963, Note_on_c, 0, 68, 93
1, 22968, Note_on_c, 0, 32, 79
1, 22968, Note_on_c, 0, 44, 94
1, 22973, Control_c, 0, 64, 86
1, 22976, Note_on_c, 0, 71, 57
1, 22988, Control_c, 0, 64, 100
1, 22990, Note_off_c, 0, 68, 63
1, 22994, Note_off_c, 0, 71, 62
1, 22995, Note_off_c, 0, 44, 66
1, 23000, Note_off_c, 0, 75, 67
1, 23003, Note_off_c, 0, 32, 64
1, 23003, Control_c, 0, 64, 107
1, 23018, Control_c, 0, 64, 109
1, 23033, Control_c, 0, 64, 114
1, 23048, Control_c, 0, 64, 123
1, 23063, Control_c, 0, 64, 127
1, 23093, Control_c, 0, 64, 123
1, 23108, Control_c, 0, 64, 101
1, 23117, Note_on_c, 0, 68, 85
1, 23123, Control_c, 0, 64, 79
1, 23137, Control_c, 0, 64, 39
1, 23152, Control_c, 0, 64, 0
1, 23157, Note_off_c, 0, 68, 58
1, 23167, Control_c, 0, 64, 63
1, 23182, Control_c, 0, 64, 76
1, 23189, Note_on_c, 0, 59, 95
1, 23191, Note_on_c, 0, 71, 93
1, 23195, Note_on_c, 0, 49, 99
1, 23197, Control_c, 0, 64, 92
1, 23198, Note_on_c, 0, 37, 78
1, 23200, Note_on_c, 0, 68, 61
1, 23212, Control_c, 0, 64, 108
1, 23215, Note_off_c, 0, 59, 66
1, 23225, Note_off_c, 0, 68, 65
1, 23226, Note_off_c, 0, 49, 63
1, 23227, Note_off_c, 0, 37, 66
1, 23227, Control_c, 0, 64, 111
1, 23233, Note_off_c, 0, 71, 65
1, 23242, Control_c, 0, 64, 111
1, 23257, Control_c, 0, 64, 113
1, 23272, Control_c, 0, 64, 116
1, 23286, Control_c, 0, 64, 121
1, 23308, Control_c, 0, 64, 127
1, 23374, Note_on_c, 0, 76, 63
1, 23382, Control_c, 0, 64, 122
1, 23397, Control_c, 0, 64, 93
1, 23412, Control_c, 0, 64, 66
1, 23425, Note_on_c, 0, 68, 97
1, 23427, Note_on_c, 0, 71, 74
1, 23427, Control_c, 0, 64, 0
1, 23430, Note_on_c, 0, 75, 84
1, 23433, Note_off_c, 0, 76, 0
1, 23433, Note_on_c, 0, 76, 11
1, 23435, Note_on_c, 0, 56, 92
1, 23436, Note_on_c, 0, 47, 49
1, 23441, Note_on_c, 0, 44, 71
1, 23441, Note_on_c, 0, 51, 74
1, 23449, Note_off_c, 0, 76, 58
1, 23456, Control_c, 0, 64, 64
1, 23459, Note_off_c, 0, 68, 66
1, 23461, Note_off_c, 0, 71, 64
1, 23469, Note_off_c, 0, 51, 64
1, 23470, Note_off_c, 0, 75, 68
1, 23471, Control_c, 0, 64, 78
1, 23480, Note_off_c, 0, 56, 62
1, 23486, Control_c, 0, 64, 93
1, 23501, Control_c, 0, 64, 103
1, 23516, Note_off_c, 0, 47, 51
1, 23516, Control_c, 0, 64, 104
1, 23516, Note_off_c, 0, 44, 63
1, 23531, Control_c, 0, 64, 105
1, 23545, Control_c, 0, 64, 106
1, 23560, Control_c, 0, 64, 109
1, 23575, Control_c, 0, 64, 113
1, 23590, Control_c, 0, 64, 117
1, 23605, Control_c, 0, 64, 117
1, 23634, Control_c, 0, 64, 106
1, 23649, Control_c, 0, 64, 87
1, 23652, Note_on_c, 0, 62, 90
1, 23655, Note_on_c, 0, 43, 79
1, 23656, Note_on_c, 0, 63, 92
1, 23659, Note_on_c, 0, 55, 83
1, 23664, Control_c, 0, 64, 65
1, 23672, Note_off_c, 0, 62, 71
1, 23677, Note_off_c, 0, 63, 69
1, 23679, Control_c, 0, 64, 0
1, 23682, Note_off_c, 0, 55, 71
1, 23691, Note_off_c, 0, 43, 65
1, 23885, Note_on_c, 0, 67, 93
1, 23886, Note_on_c, 0, 68, 98
1, 23887, Note_on_c, 0, 54, 91
1, 23889, Note_on_c, 0, 42, 77
1, 23901, Note_off_c, 0, 67, 72
1, 23909, Note_off_c, 0, 54, 68
1, 23912, Note_off_c, 0, 68, 67
1, 23926, Note_off_c, 0, 42, 65
1, 24122, Note_on_c, 0, 74, 89
1, 24124, Note_on_c, 0, 53, 91
1, 24125, Note_on_c, 0, 75, 84
1, 24130, Note_on_c, 0, 41, 80
1, 24138, Note_off_c, 0, 75, 45
1, 24145, Note_off_c, 0, 53, 72
1, 24151, Note_off_c, 0, 74, 68
1, 24163, Note_off_c, 0, 41, 68
1, 24354, Note_on_c, 0, 52, 97
1, 24358, Note_on_c, 0, 40, 82
1, 24360, Note_on_c, 0, 64, 98
1, 24362, Note_on_c, 0, 71, 81
1, 24363, Note_on_c, 0, 68, 91
1, 24366, Note_on_c, 0, 76, 84
1, 24376, Note_off_c, 0, 52, 71
1, 24377, Note_off_c, 0, 64, 74
1, 24380, Note_off_c, 0, 68, 73
1, 24382, Note_off_c, 0, 71, 69
1, 24383, Control_c, 0, 64, 66
1, 24393, Note_off_c, 0, 40, 66
1, 24398, Control_c, 0, 64, 75
1, 24401, Note_off_c, 0, 76, 68
1, 24413, Control_c, 0, 64, 82
1, 24428, Control_c, 0, 64, 86
1, 24442, Control_c, 0, 64, 90
1, 24457, Control_c, 0, 64, 93
1, 24459, Poly_aftertouch_c, 0, 46, 0
1, 24472, Control_c, 0, 64, 96
1, 24487, Control_c, 0, 64, 97
1, 24502, Control_c, 0, 64, 98
1, 24516, Control_c, 0, 64, 99
1, 24531, Control_c, 0, 64, 99
1, 24546, Control_c, 0, 64, 100
1, 24560, Control_c, 0, 64, 101
1, 24575, Control_c, 0, 64, 103
1, 24590, Control_c, 0, 64, 104
1, 24605, Control_c, 0, 64, 107
1, 24610, Note_on_c, 0, 28, 80
1, 24612, Note_on_c, 0, 40, 79
1, 24621, Control_c, 0, 64, 110
1, 24636, Control_c, 0, 64, 114
1, 24637, Note_on_c, 0, 88, 87
1, 24637, Note_on_c, 0, 100, 92
1, 24642, Note_off_c, 0, 40, 65
1, 24651, Control_c, 0, 64, 116
1, 24652, Note_off_c, 0, 28, 63
1, 24655, Note_off_c, 0, 100, 70
1, 24657, Note_off_c, 0, 88, 68
1, 24665, Control_c, 0, 64, 117
1, 24680, Control_c, 0, 64, 118
1, 24695, Control_c, 0, 64, 118
1, 24700, Note_on_c, 0, 28, 82
1, 24701, Note_on_c, 0, 40, 81
1, 24705, Note_on_c, 0, 100, 90
1, 24707, Note_on_c, 0, 88, 84
1, 24710, Control_c, 0, 64, 119
1, 24725, Control_c, 0, 64, 120
1, 24729, Note_off_c, 0, 40, 66
1, 24734, Note_off_c, 0, 88, 61
1, 24737, Note_off_c, 0, 100, 63
1, 24739, Control_c, 0, 64, 121
1, 24741, Note_off_c, 0, 28, 62
1, 24754, Control_c, 0, 64, 121
1, 24769, Control_c, 0, 64, 124
1, 24783, Note_on_c, 0, 88, 91
1, 24783, Note_on_c, 0, 100, 88
1, 24784, Control_c, 0, 64, 127
1, 24796, Note_on_c, 0, 28, 91
1, 24798, Note_on_c, 0, 40, 90
1, 24823, Note_off_c, 0, 88, 66
1, 24828, Note_off_c, 0, 100, 66
1, 24834, Note_off_c, 0, 40, 64
1, 24840, Note_off_c, 0, 28, 62
1, 24869, Note_on_c, 0, 88, 98
1, 24873, Note_on_c, 0, 100, 94
1, 24875, Note_on_c, 0, 40, 99
1, 24878, Note_on_c, 0, 28, 83
1, 24881, Control_c, 0, 64, 118
1, 24896, Control_c, 0, 64, 97
1, 24899, Note_off_c, 0, 28, 66
1, 24904, Note_off_c, 0, 88, 65
1, 24904, Note_off_c, 0, 100, 64
1, 24911, Control_c, 0, 64, 79
1, 24912, Note_off_c, 0, 40, 67
1, 24926, Control_c, 0, 64, 58
1, 24941, Control_c, 0, 64, 0
1, 25155, Note_on_c, 0, 76, 66
1, 25175, Note_off_c, 0, 76, 69
1, 25299, Note_on_c, 0, 57, 52
1, 25338, Note_off_c, 0, 57, 60
1, 25367, Note_on_c, 0, 64, 31
1, 25406, Note_off_c, 0, 64, 50
1, 25407, Note_on_c, 0, 72, 61
1, 25411, Note_on_c, 0, 84, 69
1, 25418, Note_on_c, 0, 76, 65
1, 25428, Note_off_c, 0, 72, 67
1, 25434, Note_off_c, 0, 84, 70
1, 25436, Note_off_c, 0, 76, 68
1, 25579, Note_on_c, 0, 81, 69
1, 25582, Note_on_c, 0, 88, 65
1, 25603, Note_off_c, 0, 81, 68
1, 25615, Note_off_c, 0, 88, 62
1, 25709, Note_on_c, 0, 84, 73
1, 25712, Note_on_c, 0, 64, 62
1, 25716, Note_on_c, 0, 75, 69
1, 25716, Note_on_c, 0, 76, 65
1, 25734, Note_off_c, 0, 84, 66
1, 25734, Note_off_c, 0, 76, 68
1, 25742, Note_off_c, 0, 75, 69
1, 25752, Note_off_c, 0, 64, 59
1, 25837, Note_on_c, 0, 72, 66
1, 25856, Note_off_c, 0, 72, 67
1, 25876, Note_on_c, 0, 64, 25
1, 25887, Note_off_c, 0, 64, 39
1, 25962, Note_on_c, 0, 83, 71
1, 25966, Note_on_c, 0, 75, 75
1, 25968, Note_on_c, 0, 71, 68
1, 25974, Note_on_c, 0, 57, 61
1, 25983, Note_on_c, 0, 63, 51
1, 25984, Note_off_c, 0, 71, 66
1, 25992, Note_off_c, 0, 75, 67
1, 25997, Note_off_c, 0, 57, 59
1, 26008, Note_off_c, 0, 63, 61
1, 26018, Note_off_c, 0, 83, 57
1, 26089, Note_on_c, 0, 79, 70
1, 26094, Note_on_c, 0, 87, 63
1, 26117, Note_off_c, 0, 79, 63
1, 26134, Note_off_c, 0, 87, 57
1, 26202, Note_on_c, 0, 83, 68
1, 26203, Note_on_c, 0, 62, 61
1, 26203, Note_on_c, 0, 72, 60
1, 26203, Note_on_c, 0, 75, 70
1, 26226, Note_off_c, 0, 83, 67
1, 26229, Note_off_c, 0, 75, 70
1, 26232, Note_off_c, 0, 72, 68
1, 26241, Note_off_c, 0, 62, 59
1, 26322, Note_on_c, 0, 71, 70
1, 26347, Note_off_c, 0, 71, 67
1, 26363, Note_on_c, 0, 62, 21
1, 26404, Note_off_c, 0, 62, 30
1, 26447, Note_on_c, 0, 69, 82
1, 26447, Note_on_c, 0, 81, 77
1, 26452, Note_on_c, 0, 72, 69
1, 26458, Note_on_c, 0, 57, 61
1, 26474, Note_off_c, 0, 69, 65
1, 26478, Note_off_c, 0, 57, 62
1, 26482, Note_off_c, 0, 72, 65
1, 26506, Note_off_c, 0, 81, 60
1, 26567, Note_on_c, 0, 84, 66
1, 26567, Note_on_c, 0, 77, 70
1, 26594, Note_off_c, 0, 77, 63
1, 26619, Note_off_c, 0, 84, 59
1, 26682, Note_on_c, 0, 71, 69
1, 26684, Note_on_c, 0, 81, 75
1, 26688, Note_on_c, 0, 72, 66
1, 26697, Note_on_c, 0, 65, 54
1, 26708, Note_off_c, 0, 81, 66
1, 26714, Note_off_c, 0, 72, 69
1, 26717, Note_off_c, 0, 71, 57
1, 26735, Note_off_c, 0, 65, 62
1, 26802, Note_on_c, 0, 69, 74
1, 26827, Note_off_c, 0, 69, 72
1, 26914, Note_on_c, 0, 57, 67
1, 26921, Note_on_c, 0, 80, 76
1, 26930, Note_on_c, 0, 68, 71
1, 26930, Note_on_c, 0, 71, 63
1, 26944, Note_off_c, 0, 57, 66
1, 26957, Note_off_c, 0, 68, 67
1, 26959, Note_off_c, 0, 71, 66
1, 26978, Note_off_c, 0, 80, 64
1, 27056, Note_on_c, 0, 74, 64
1, 27060, Note_on_c, 0, 83, 61
1, 27081, Note_off_c, 0, 74, 70
1, 27108, Note_off_c, 0, 83, 58
1, 27172, Note_on_c, 0, 80, 73
1, 27174, Note_on_c, 0, 71, 64
1, 27184, Note_on_c, 0, 69, 61
1, 27195, Note_on_c, 0, 65, 46
1, 27197, Note_off_c, 0, 80, 66
1, 27202, Note_off_c, 0, 71, 66
1, 27221, Note_off_c, 0, 69, 64
1, 27293, Note_on_c, 0, 68, 68
1, 27300, Note_off_c, 0, 65, 29
1, 27319, Note_off_c, 0, 68, 67
1, 27418, Note_on_c, 0, 50, 63
1, 27424, Control_c, 0, 64, 64
1, 27439, Control_c, 0, 64, 71
1, 27439, Note_on_c, 0, 57, 27
1, 27449, Note_off_c, 0, 50, 65
1, 27454, Note_on_c, 0, 77, 66
1, 27454, Control_c, 0, 64, 78
1, 27464, Note_on_c, 0, 69, 58
1, 27469, Control_c, 0, 64, 81
1, 27478, Note_off_c, 0, 57, 56
1, 27484, Control_c, 0, 64, 83
1, 27498, Control_c, 0, 64, 85
1, 27500, Note_off_c, 0, 69, 64
1, 27507, Note_on_c, 0, 65, 61
1, 27513, Control_c, 0, 64, 86
1, 27524, Note_off_c, 0, 77, 54
1, 27528, Control_c, 0, 64, 87
1, 27542, Note_off_c, 0, 65, 64
1, 27543, Control_c, 0, 64, 89
1, 27558, Control_c, 0, 64, 90
1, 27573, Control_c, 0, 64, 91
1, 27582, Note_on_c, 0, 81, 65
1, 27587, Control_c, 0, 64, 92
1, 27594, Note_on_c, 0, 74, 51
1, 27602, Control_c, 0, 64, 92
1, 27617, Control_c, 0, 64, 93
1, 27623, Note_off_c, 0, 74, 63
1, 27647, Control_c, 0, 64, 93
1, 27654, Note_off_c, 0, 81, 56
1, 27661, Control_c, 0, 64, 94
1, 27691, Control_c, 0, 64, 94
1, 27694, Note_on_c, 0, 69, 70
1, 27694, Note_on_c, 0, 77, 67
1, 27716, Note_on_c, 0, 68, 68
1, 27720, Control_c, 0, 64, 95
1, 27725, Note_off_c, 0, 69, 65
1, 27735, Control_c, 0, 64, 95
1, 27746, Note_off_c, 0, 77, 56
1, 27750, Control_c, 0, 64, 96
1, 27757, Note_off_c, 0, 68, 63
1, 27765, Control_c, 0, 64, 96
1, 27780, Control_c, 0, 64, 97
1, 27817, Control_c, 0, 64, 97
1, 27830, Note_on_c, 0, 65, 75
1, 27859, Note_off_c, 0, 65, 68
1, 27892, Control_c, 0, 64, 95
1, 27907, Control_c, 0, 64, 84
1, 27922, Control_c, 0, 64, 68
1, 27937, Control_c, 0, 64, 0
1, 27949, Note_on_c, 0, 68, 78
1, 27963, Note_on_c, 0, 64, 71
1, 27966, Control_c, 0, 64, 45
1, 27980, Note_on_c, 0, 59, 58
1, 27981, Control_c, 0, 64, 71
1, 27983, Note_off_c, 0, 68, 66
1, 27987, Note_on_c, 0, 52, 53
1, 27996, Control_c, 0, 64, 83
1, 28011, Control_c, 0, 64, 94
1, 28025, Control_c, 0, 64, 100
1, 28040, Control_c, 0, 64, 105
1, 28055, Control_c, 0, 64, 110
1, 28070, Control_c, 0, 64, 115
1, 28085, Control_c, 0, 64, 119
1, 28092, Note_on_c, 0, 92, 81
1, 28099, Control_c, 0, 64, 124
1, 28100, Note_off_c, 0, 64, 58
1, 28111, Note_on_c, 0, 80, 62
1, 28114, Control_c, 0, 64, 127
1, 28120, Note_off_c, 0, 92, 63
1, 28128, Note_off_c, 0, 59, 59
1, 28128, Note_off_c, 0, 80, 66
1, 28147, Note_off_c, 0, 52, 63
1, 28219, Note_on_c, 0, 88, 74
1, 28222, Note_on_c, 0, 76, 71
1, 28241, Note_off_c, 0, 76, 68
1, 28246, Note_off_c, 0, 88, 65
1, 28312, Note_on_c, 0, 59, 76
1, 28324, Note_on_c, 0, 47, 75
1, 28352, Note_off_c, 0, 47, 65
1, 28356, Note_off_c, 0, 59, 64
1, 28436, Note_on_c, 0, 64, 91
1, 28443, Note_on_c, 0, 52, 85
1, 28527, Note_off_c, 0, 64, 61
1, 28549, Note_on_c, 0, 68, 85
1, 28554, Note_on_c, 0, 80, 78
1, 28574, Note_off_c, 0, 52, 64
1, 28595, Note_off_c, 0, 68, 63
1, 28596, Note_off_c, 0, 80, 65
1, 28667, Note_on_c, 0, 64, 87
1, 28671, Note_on_c, 0, 76, 83
1, 28701, Note_off_c, 0, 76, 64
1, 28714, Note_off_c, 0, 64, 64
1, 28778, Note_on_c, 0, 47, 99
1, 28792, Note_on_c, 0, 35, 83
1, 28804, Control_c, 0, 64, 115
1, 28819, Note_off_c, 0, 35, 65
1, 28819, Control_c, 0, 64, 96
1, 28825, Note_off_c, 0, 47, 65
1, 28828, Note_on_c, 0, 39, 20
1, 28833, Control_c, 0, 64, 75
1, 28848, Control_c, 0, 64, 0
1, 28850, Note_off_c, 0, 39, 50
1, 28893, Control_c, 0, 64, 71
1, 28900, Note_on_c, 0, 52, 99
1, 28906, Note_on_c, 0, 40, 90
1, 28908, Control_c, 0, 64, 84
1, 28922, Control_c, 0, 64, 96
1, 28937, Control_c, 0, 64, 101
1, 28952, Control_c, 0, 64, 103
1, 28966, Control_c, 0, 64, 105
1, 28981, Control_c, 0, 64, 109
1, 28996, Control_c, 0, 64, 111
1, 28998, Note_on_c, 0, 56, 91
1, 29000, Note_on_c, 0, 68, 80
1, 29011, Control_c, 0, 64, 112
1, 29020, Note_off_c, 0, 52, 62
1, 29038, Note_off_c, 0, 68, 67
1, 29040, Control_c, 0, 64, 113
1, 29042, Note_off_c, 0, 56, 65
1, 29050, Note_off_c, 0, 40, 63
1, 29118, Note_on_c, 0, 52, 90
1, 29119, Note_on_c, 0, 64, 88
1, 29155, Note_off_c, 0, 52, 63
1, 29159, Note_off_c, 0, 64, 66
1, 29231, Note_on_c, 0, 35, 93
1, 29243, Note_on_c, 0, 23, 82
1, 29248, Control_c, 0, 64, 112
1, 29263, Control_c, 0, 64, 107
1, 29265, Note_on_c, 0, 27, 43
1, 29284, Control_c, 0, 64, 93
1, 29287, Note_off_c, 0, 23, 64
1, 29290, Note_off_c, 0, 35, 65
1, 29299, Control_c, 0, 64, 72
1, 29308, Note_off_c, 0, 27, 48
1, 29314, Control_c, 0, 64, 0
1, 29373, Control_c, 0, 64, 53
1, 29376, Note_on_c, 0, 40, 94
1, 29376, Note_on_c, 0, 52, 94
1, 29379, Note_on_c, 0, 64, 81
1, 29380, Note_on_c, 0, 56, 76
1, 29385, Note_on_c, 0, 28, 81
1, 29388, Note_on_c, 0, 59, 63
1, 29388, Control_c, 0, 64, 70
1, 29403, Note_off_c, 0, 52, 68
1, 29403, Control_c, 0, 64, 80
1, 29406, Note_off_c, 0, 56, 68
1, 29415, Note_off_c, 0, 59, 65
1, 29418, Note_off_c, 0, 64, 63
1, 29419, Note_off_c, 0, 28, 65
1, 29419, Control_c, 0, 64, 88
1, 29434, Control_c, 0, 64, 92
1, 29439, Note_off_c, 0, 40, 60
1, 29449, Control_c, 0, 64, 96
1, 29463, Control_c, 0, 64, 100
1, 29478, Control_c, 0, 64, 103
1, 29493, Control_c, 0, 64, 105
1, 29508, Control_c, 0, 64, 107
1, 29537, Control_c, 0, 64, 107
1, 29567, Control_c, 0, 64, 107
1, 29597, Control_c, 0, 64, 106
1, 29600, Note_on_c, 0, 37, 78
1, 29609, Note_on_c, 0, 25, 60
1, 29612, Control_c, 0, 64, 103
1, 29615, Note_on_c, 0, 52, 73
1, 29620, Note_on_c, 0, 55, 65
1, 29627, Control_c, 0, 64, 96
1, 29633, Note_off_c, 0, 37, 65
1, 29639, Note_off_c, 0, 52, 70
1, 29642, Control_c, 0, 64, 85
1, 29642, Note_off_c, 0, 25, 63
1, 29646, Note_off_c, 0, 55, 67
1, 29657, Control_c, 0, 64, 71
1, 29671, Control_c, 0, 64, 0
1, 29716, Note_on_c, 0, 40, 72
1, 29727, Note_on_c, 0, 58, 73
1, 29757, Note_off_c, 0, 40, 65
1, 29764, Note_off_c, 0, 58, 64
1, 29835, Control_c, 0, 64, 60
1, 29839, Note_on_c, 0, 38, 86
1, 29841, Note_on_c, 0, 35, 78
1, 29844, Note_on_c, 0, 32, 70
1, 29849, Note_on_c, 0, 56, 79
1, 29850, Control_c, 0, 64, 72
1, 29852, Note_on_c, 0, 52, 74
1, 29861, Note_on_c, 0, 26, 38
1, 29864, Control_c, 0, 64, 77
1, 29875, Note_off_c, 0, 35, 67
1, 29878, Note_off_c, 0, 32, 65
1, 29879, Control_c, 0, 64, 81
1, 29880, Note_off_c, 0, 52, 68
1, 29884, Note_off_c, 0, 38, 61
1, 29894, Control_c, 0, 64, 85
1, 29903, Note_off_c, 0, 56, 61
1, 29906, Note_off_c, 0, 26, 54
1, 29908, Control_c, 0, 64, 89
1, 29923, Control_c, 0, 64, 92
1, 29938, Control_c, 0, 64, 96
1, 29940, Note_on_c, 0, 59, 65
1, 29949, Note_on_c, 0, 64, 74
1, 29953, Control_c, 0, 64, 98
1, 29968, Note_off_c, 0, 59, 64
1, 29968, Control_c, 0, 64, 100
1, 29982, Control_c, 0, 64, 101
1, 29986, Note_off_c, 0, 64, 65
1, 29997, Control_c, 0, 64, 102
1, 30012, Control_c, 0, 64, 103
1, 30066, Note_on_c, 0, 49, 87
1, 30068, Note_on_c, 0, 43, 38
1, 30075, Note_on_c, 0, 64, 83
1, 30076, Note_on_c, 0, 67, 83
1, 30092, Note_on_c, 0, 46, 48
1, 30093, Note_on_c, 0, 37, 48
1, 30097, Note_off_c, 0, 67, 70
1, 30098, Note_off_c, 0, 49, 62
1, 30100, Note_off_c, 0, 64, 67
1, 30108, Note_off_c, 0, 43, 58
1, 30109, Control_c, 0, 64, 102
1, 30122, Note_off_c, 0, 46, 51
1, 30123, Control_c, 0, 64, 98
1, 30125, Note_off_c, 0, 37, 52
1, 30138, Control_c, 0, 64, 89
1, 30153, Control_c, 0, 64, 76
1, 30168, Control_c, 0, 64, 55
1, 30178, Note_on_c, 0, 70, 92
1, 30183, Control_c, 0, 64, 0
1, 30184, Note_on_c, 0, 52, 74
1, 30211, Note_off_c, 0, 52, 68
1, 30214, Note_off_c, 0, 70, 66
1, 30292, Note_on_c, 0, 50, 95
1, 30294, Note_on_c, 0, 47, 82
1, 30298, Note_on_c, 0, 68, 90
1, 30298, Note_on_c, 0, 44, 67
1, 30301, Note_on_c, 0, 64, 78
1, 30302, Control_c, 0, 64, 53
1, 30308, Note_on_c, 0, 38, 59
1, 30317, Control_c, 0, 64, 73
1, 30327, Note_off_c, 0, 64, 67
1, 30332, Control_c, 0, 64, 83
1, 30333, Note_off_c, 0, 44, 67
1, 30333, Note_off_c, 0, 47, 66
1, 30335, Note_off_c, 0, 38, 56
1, 30337, Note_off_c, 0, 50, 64
1, 30343, Note_off_c, 0, 68, 62
1, 30346, Control_c, 0, 64, 88
1, 30361, Control_c, 0, 64, 91
1, 30376, Control_c, 0, 64, 93
1, 30391, Control_c, 0, 64, 95
1, 30396, Note_on_c, 0, 71, 58
1, 30404, Note_on_c, 0, 76, 77
1, 30406, Control_c, 0, 64, 96
1, 30420, Control_c, 0, 64, 98
1, 30425, Note_off_c, 0, 71, 65
1, 30435, Control_c, 0, 64, 99
1, 30441, Note_off_c, 0, 76, 65
1, 30450, Control_c, 0, 64, 100
1, 30464, Control_c, 0, 64, 102
1, 30479, Control_c, 0, 64, 103
1, 30494, Control_c, 0, 64, 103
1, 30509, Control_c, 0, 64, 104
1, 30515, Note_on_c, 0, 61, 92
1, 30520, Note_on_c, 0, 76, 86
1, 30521, Note_on_c, 0, 79, 85
1, 30527, Note_on_c, 0, 58, 62
1, 30527, Note_on_c, 0, 55, 62
1, 30539, Note_on_c, 0, 49, 58
1, 30542, Poly_aftertouch_c, 0, 56, 0
1, 30545, Note_off_c, 0, 79, 64
1, 30553, Note_off_c, 0, 58, 65
1, 30553, Note_off_c, 0, 61, 63
1, 30554, Note_off_c, 0, 55, 68
1, 30555, Note_off_c, 0, 76, 68
1, 30567, Note_off_c, 0, 49, 63
1, 30598, Control_c, 0, 64, 102
1, 30612, Control_c, 0, 64, 92
1, 30621, Note_on_c, 0, 82, 91
1, 30627, Control_c, 0, 64, 75
1, 30636, Note_on_c, 0, 64, 76
1, 30642, Control_c, 0, 64, 0
1, 30661, Note_off_c, 0, 64, 67
1, 30667, Note_off_c, 0, 82, 65
1, 30732, Note_on_c, 0, 62, 99
1, 30738, Note_on_c, 0, 80, 90
1, 30740, Note_on_c, 0, 56, 80
1, 30740, Note_on_c, 0, 59, 82
1, 30741, Note_on_c, 0, 76, 84
1, 30745, Control_c, 0, 64, 64
1, 30746, Note_on_c, 0, 50, 78
1, 30760, Control_c, 0, 64, 73
1, 30771, Note_off_c, 0, 76, 66
1, 30775, Control_c, 0, 64, 81
1, 30789, Note_off_c, 0, 50, 63
1, 30793, Note_off_c, 0, 80, 63
1, 30795, Note_off_c, 0, 59, 58
1, 30798, Control_c, 0, 64, 85
1, 30803, Note_off_c, 0, 62, 56
1, 30810, Note_off_c, 0, 56, 62
1, 30812, Control_c, 0, 64, 89
1, 30827, Control_c, 0, 64, 91
1, 30834, Poly_aftertouch_c, 0, 83, 127
1, 30842, Control_c, 0, 64, 93
1, 30847, Note_on_c, 0, 88, 81
1, 30857, Control_c, 0, 64, 95
1, 30872, Control_c, 0, 64, 96
1, 30879, Poly_aftertouch_c, 0, 83, 0
1, 30886, Control_c, 0, 64, 97
1, 30888, Note_off_c, 0, 88, 64
1, 30901, Control_c, 0, 64, 99
1, 30916, Control_c, 0, 64, 100
1, 30931, Control_c, 0, 64, 101
1, 30945, Control_c, 0, 64, 102
1, 30960, Control_c, 0, 64, 103
1, 30962, Note_on_c, 0, 67, 89
1, 30962, Note_on_c, 0, 80, 94
1, 30963, Note_on_c, 0, 92, 93
1, 30968, Note_on_c, 0, 55, 88
1, 30975, Control_c, 0, 64, 104
1, 30985, Note_off_c, 0, 80, 62
1, 30997, Note_off_c, 0, 67, 61
1, 30998, Note_off_c, 0, 55, 63
1, 31001, Note_off_c, 0, 92, 64
1, 31008, Note_on_c, 0, 90, 12
1, 31009, Note_off_c, 0, 90, 127
1, 31065, Control_c, 0, 64, 103
1, 31072, Note_on_c, 0, 95, 103
1, 31075, Note_on_c, 0, 83, 83
1, 31080, Control_c, 0, 64, 102
1, 31093, Note_off_c, 0, 83, 69
1, 31095, Control_c, 0, 64, 98
1, 31105, Note_off_c, 0, 95, 66
1, 31109, Control_c, 0, 64, 90
1, 31124, Control_c, 0, 64, 75
1, 31139, Control_c, 0, 64, 0
1, 31213, Control_c, 0, 64, 55
1, 31223, Note_on_c, 0, 88, 100
1, 31224, Note_on_c, 0, 100, 103
1, 31227, Note_on_c, 0, 92, 98
1, 31228, Note_on_c, 0, 62, 75
1, 31228, Note_on_c, 0, 68, 100
1, 31228, Control_c, 0, 64, 73
1, 31230, Note_on_c, 0, 56, 74
1, 31230, Note_on_c, 0, 64, 90
1, 31243, Note_off_c, 0, 92, 70
1, 31243, Control_c, 0, 64, 86
1, 31253, Note_off_c, 0, 68, 67
1, 31253, Note_off_c, 0, 88, 66
1, 31254, Note_off_c, 0, 100, 65
1, 31257, Control_c, 0, 64, 98
1, 31261, Note_off_c, 0, 64, 65
1, 31272, Control_c, 0, 64, 104
1, 31274, Note_off_c, 0, 62, 64
1, 31278, Note_off_c, 0, 56, 64
1, 31287, Control_c, 0, 64, 108
1, 31302, Control_c, 0, 64, 112
1, 31317, Control_c, 0, 64, 116
1, 31332, Control_c, 0, 64, 118
1, 31347, Control_c, 0, 64, 119
1, 31361, Control_c, 0, 64, 120
1, 31376, Control_c, 0, 64, 121
1, 31391, Control_c, 0, 64, 122
1, 31406, Control_c, 0, 64, 122
1, 31509, Control_c, 0, 64, 122
1, 31524, Control_c, 0, 64, 121
1, 31541, Note_on_c, 0, 76, 67
1, 31547, Control_c, 0, 64, 121
1, 31561, Control_c, 0, 64, 118
1, 31574, Note_on_c, 0, 78, 77
1, 31576, Control_c, 0, 64, 109
1, 31581, Note_on_c, 0, 77, 27
1, 31591, Control_c, 0, 64, 98
1, 31603, Note_off_c, 0, 76, 63
1, 31606, Control_c, 0, 64, 81
1, 31609, Note_on_c, 0, 80, 72
1, 31617, Note_off_c, 0, 77, 32
1, 31621, Control_c, 0, 64, 45
1, 31631, Note_off_c, 0, 78, 64
1, 31633, Note_off_c, 0, 80, 68
1, 31635, Control_c, 0, 64, 0
1, 31691, Note_on_c, 0, 57, 94
1, 31694, Control_c, 0, 64, 63
1, 31696, Note_on_c, 0, 52, 86
1, 31697, Note_on_c, 0, 69, 92
1, 31698, Note_on_c, 0, 72, 88
1, 31698, Note_on_c, 0, 81, 90
1, 31699, Note_on_c, 0, 48, 69
1, 31702, Note_on_c, 0, 45, 69
1, 31706, Note_on_c, 0, 76, 80
1, 31709, Control_c, 0, 64, 75
1, 31713, Note_off_c, 0, 57, 69
1, 31714, Note_off_c, 0, 72, 73
1, 31715, Note_off_c, 0, 69, 72
1, 31718, Note_off_c, 0, 52, 72
1, 31724, Control_c, 0, 64, 86
1, 31725, Note_off_c, 0, 76, 73
1, 31729, Note_off_c, 0, 45, 66
1, 31730, Note_off_c, 0, 48, 68
1, 31733, Note_off_c, 0, 81, 63
1, 31739, Control_c, 0, 64, 94
1, 31754, Control_c, 0, 64, 97
1, 31768, Control_c, 0, 64, 99
1, 31783, Control_c, 0, 64, 100
1, 31798, Control_c, 0, 64, 102
1, 31814, Control_c, 0, 64, 104
1, 31829, Control_c, 0, 64, 105
1, 31844, Control_c, 0, 64, 106
1, 31858, Control_c, 0, 64, 107
1, 31873, Control_c, 0, 64, 109
1, 31888, Control_c, 0, 64, 111
1, 31903, Control_c, 0, 64, 112
1, 31918, Control_c, 0, 64, 113
1, 31922, Note_on_c, 0, 53, 81
1, 31928, Note_on_c, 0, 77, 35
1, 31928, Note_on_c, 0, 68, 95
1, 31930, Note_on_c, 0, 80, 88
1, 31931, Note_on_c, 0, 50, 48
1, 31932, Control_c, 0, 64, 114
1, 31943, Note_on_c, 0, 41, 54
1, 31943, Note_on_c, 0, 44, 52
1, 31947, Control_c, 0, 64, 114
1, 31962, Note_off_c, 0, 50, 64
1, 31962, Control_c, 0, 64, 115
1, 31965, Note_off_c, 0, 53, 66
1, 31970, Note_off_c, 0, 68, 63
1, 31970, Note_off_c, 0, 77, 63
1, 31971, Note_off_c, 0, 44, 59
1, 31973, Note_off_c, 0, 41, 57
1, 31982, Note_off_c, 0, 80, 65
1, 32021, Control_c, 0, 64, 114
1, 32027, Poly_aftertouch_c, 0, 74, 0
1, 32036, Control_c, 0, 64, 106
1, 32041, Note_on_c, 0, 83, 90
1, 32042, Note_on_c, 0, 71, 85
1, 32044, Note_on_c, 0, 56, 86
1, 32051, Control_c, 0, 64, 86
1, 32065, Control_c, 0, 64, 62
1, 32072, Note_off_c, 0, 56, 64
1, 32075, Note_off_c, 0, 71, 61
1, 32079, Note_off_c, 0, 83, 62
1, 32080, Control_c, 0, 64, 0
1, 32097, Note_on_c, 0, 48, 25
1, 32140, Control_c, 0, 64, 47
1, 32152, Note_on_c, 0, 52, 72
1, 32154, Note_on_c, 0, 57, 96
1, 32155, Control_c, 0, 64, 72
1, 32156, Note_off_c, 0, 48, 0
1, 32157, Note_on_c, 0, 69, 95
1, 32157, Note_on_c, 0, 81, 93
1, 32159, Note_on_c, 0, 76, 82
1, 32160, Note_on_c, 0, 72, 86
1, 32168, Note_on_c, 0, 48, 57
1, 32170, Control_c, 0, 64, 83
1, 32173, Note_on_c, 0, 45, 66
1, 32181, Note_off_c, 0, 72, 65
1, 32184, Control_c, 0, 64, 93
1, 32188, Note_off_c, 0, 57, 61
1, 32190, Note_off_c, 0, 52, 66
1, 32193, Note_off_c, 0, 69, 59
1, 32198, Note_off_c, 0, 76, 65
1, 32199, Control_c, 0, 64, 97
1, 32202, Note_off_c, 0, 45, 66
1, 32205, Note_off_c, 0, 81, 62
1, 32206, Note_off_c, 0, 48, 67
1, 32214, Control_c, 0, 64, 99
1, 32229, Control_c, 0, 64, 101
1, 32244, Control_c, 0, 64, 103
1, 32258, Control_c, 0, 64, 104
1, 32273, Control_c, 0, 64, 106
1, 32295, Control_c, 0, 64, 107
1, 32310, Control_c, 0, 64, 108
1, 32325, Control_c, 0, 64, 111
1, 32328, Note_on_c, 0, 77, 45
1, 32339, Control_c, 0, 64, 115
1, 32354, Control_c, 0, 64, 118
1, 32369, Control_c, 0, 64, 120
1, 32384, Control_c, 0, 64, 121
1, 32388, Note_on_c, 0, 68, 97
1, 32389, Note_on_c, 0, 44, 57
1, 32389, Note_on_c, 0, 52, 95
1, 32391, Note_on_c, 0, 80, 89
1, 32399, Control_c, 0, 64, 123
1, 32400, Note_on_c, 0, 40, 76
1, 32408, Note_on_c, 0, 47, 64
1, 32414, Control_c, 0, 64, 126
1, 32427, Note_off_c, 0, 68, 64
1, 32429, Control_c, 0, 64, 127
1, 32435, Note_off_c, 0, 47, 67
1, 32438, Note_off_c, 0, 52, 66
1, 32441, Note_off_c, 0, 80, 66
1, 32444, Note_off_c, 0, 40, 62
1, 32453, Note_off_c, 0, 77, 24
1, 32454, Note_off_c, 0, 44, 63
1, 32498, Note_on_c, 0, 83, 85
1, 32500, Note_on_c, 0, 71, 88
1, 32533, Note_off_c, 0, 71, 58
1, 32539, Note_off_c, 0, 83, 62
1, 32562, Control_c, 0, 64, 111
1, 32577, Control_c, 0, 64, 91
1, 32591, Control_c, 0, 64, 68
1, 32607, Note_on_c, 0, 53, 98
1, 32607, Control_c, 0, 64, 0
1, 32609, Note_on_c, 0, 81, 98
1, 32611, Note_on_c, 0, 69, 102
1, 32614, Note_on_c, 0, 74, 83
1, 32615, Note_on_c, 0, 77, 82
1, 32616, Note_on_c, 0, 41, 89
1, 32634, Note_off_c, 0, 74, 71
1, 32639, Note_off_c, 0, 69, 69
1, 32639, Note_off_c, 0, 77, 61
1, 32641, Note_off_c, 0, 53, 68
1, 32646, Note_off_c, 0, 41, 70
1, 32652, Note_off_c, 0, 81, 61
1, 32677, Note_on_c, 0, 43, 3
1, 32678, Note_off_c, 0, 43, 127
1, 32872, Note_on_c, 0, 77, 58
1, 32874, Note_on_c, 0, 68, 99
1, 32876, Note_on_c, 0, 50, 95
1, 32879, Note_on_c, 0, 74, 77
1, 32879, Note_on_c, 0, 80, 91
1, 32883, Note_on_c, 0, 38, 82
1, 32899, Note_off_c, 0, 68, 67
1, 32900, Note_off_c, 0, 74, 70
1, 32908, Note_off_c, 0, 50, 67
1, 32912, Note_off_c, 0, 38, 64
1, 32919, Note_off_c, 0, 77, 62
1, 32925, Note_off_c, 0, 80, 65
1, 32954, Note_on_c, 0, 40, 3
1, 32992, Note_off_c, 0, 40, 28
1, 33144, Note_on_c, 0, 48, 93
1, 33145, Note_on_c, 0, 52, 98
1, 33147, Note_on_c, 0, 76, 80
1, 33148, Note_on_c, 0, 45, 78
1, 33148, Note_on_c, 0, 69, 94
1, 33148, Control_c, 0, 64, 41
1, 33150, Note_on_c, 0, 81, 92
1, 33151, Note_on_c, 0, 72, 85
1, 33153, Note_on_c, 0, 40, 70
1, 33163, Control_c, 0, 64, 74
1, 33171, Note_off_c, 0, 52, 67
1, 33177, Note_off_c, 0, 48, 68
1, 33178, Control_c, 0, 64, 80
1, 33191, Note_off_c, 0, 45, 65
1, 33193, Control_c, 0, 64, 86
1, 33203, Note_off_c, 0, 40, 64
1, 33207, Control_c, 0, 64, 91
1, 33222, Control_c, 0, 64, 97
1, 33237, Control_c, 0, 64, 102
1, 33252, Control_c, 0, 64, 105
1, 33267, Control_c, 0, 64, 106
1, 33281, Control_c, 0, 64, 107
1, 33311, Control_c, 0, 64, 107
1, 33326, Control_c, 0, 64, 108
1, 33341, Control_c, 0, 64, 109
1, 33356, Control_c, 0, 64, 109
1, 33371, Control_c, 0, 64, 110
1, 33389, Note_off_c, 0, 69, 61
1, 33401, Control_c, 0, 64, 110
1, 33413, Note_on_c, 0, 45, 99
1, 33422, Note_on_c, 0, 33, 88
1, 33424, Note_off_c, 0, 72, 61
1, 33430, Control_c, 0, 64, 111
1, 33448, Note_off_c, 0, 33, 69
1, 33448, Note_off_c, 0, 76, 65
1, 33449, Note_off_c, 0, 45, 66
1, 33466, Note_off_c, 0, 81, 61
1, 33548, Note_on_c, 0, 44, 94
1, 33550, Control_c, 0, 64, 111
1, 33556, Note_on_c, 0, 32, 86
1, 33564, Control_c, 0, 64, 113
1, 33579, Control_c, 0, 64, 115
1, 33588, Note_off_c, 0, 44, 60
1, 33594, Control_c, 0, 64, 117
1, 33609, Control_c, 0, 64, 117
1, 33612, Note_off_c, 0, 32, 62
1, 33668, Control_c, 0, 64, 115
1, 33683, Control_c, 0, 64, 93
1, 33698, Control_c, 0, 64, 64
1, 33712, Control_c, 0, 64, 0
1, 33724, Note_on_c, 0, 41, 91
1, 33726, Note_on_c, 0, 89, 84
1, 33729, Note_on_c, 0, 93, 96
1, 33729, Note_on_c, 0, 81, 95
1, 33730, Note_on_c, 0, 29, 81
1, 33779, Control_c, 0, 64, 73
1, 33782, Note_off_c, 0, 29, 62
1, 33783, Note_off_c, 0, 81, 61
1, 33794, Control_c, 0, 64, 85
1, 33795, Note_off_c, 0, 41, 66
1, 33799, Note_off_c, 0, 89, 65
1, 33809, Control_c, 0, 64, 96
1, 33817, Note_off_c, 0, 93, 61
1, 33824, Control_c, 0, 64, 99
1, 33838, Control_c, 0, 64, 101
1, 33853, Control_c, 0, 64, 103
1, 33868, Control_c, 0, 64, 107
1, 33882, Control_c, 0, 64, 109
1, 33893, Note_on_c, 0, 95, 92
1, 33896, Note_on_c, 0, 83, 89
1, 33896, Note_on_c, 0, 92, 85
1, 33897, Control_c, 0, 64, 110
1, 33912, Control_c, 0, 64, 111
1, 33927, Control_c, 0, 64, 112
1, 33939, Note_off_c, 0, 83, 57
1, 33942, Control_c, 0, 64, 112
1, 33943, Note_off_c, 0, 92, 63
1, 33948, Note_off_c, 0, 95, 65
1, 33956, Control_c, 0, 64, 113
1, 34001, Control_c, 0, 64, 113
1, 34025, Note_on_c, 0, 69, 84
1, 34026, Note_on_c, 0, 57, 73
1, 34029, Note_on_c, 0, 93, 87
1, 34030, Note_on_c, 0, 96, 94
1, 34032, Note_on_c, 0, 65, 74
1, 34033, Note_on_c, 0, 84, 89
1, 34056, Note_off_c, 0, 65, 70
1, 34058, Note_off_c, 0, 69, 62
1, 34077, Note_off_c, 0, 57, 61
1, 34145, Note_on_c, 0, 71, 85
1, 34150, Note_on_c, 0, 68, 85
1, 34151, Note_on_c, 0, 59, 68
1, 34179, Control_c, 0, 64, 114
1, 34193, Note_off_c, 0, 71, 62
1, 34200, Note_off_c, 0, 59, 62
1, 34202, Note_off_c, 0, 68, 61
1, 34209, Control_c, 0, 64, 114
1, 34223, Control_c, 0, 64, 115
1, 34236, Note_off_c, 0, 96, 58
1, 34238, Control_c, 0, 64, 115
1, 34243, Note_off_c, 0, 93, 60
1, 34253, Control_c, 0, 64, 116
1, 34262, Note_off_c, 0, 84, 59
1, 34270, Note_on_c, 0, 72, 94
1, 34274, Note_on_c, 0, 69, 85
1, 34277, Note_on_c, 0, 60, 63
1, 34283, Control_c, 0, 64, 115
1, 34298, Control_c, 0, 64, 106
1, 34312, Control_c, 0, 64, 87
1, 34327, Control_c, 0, 64, 64
1, 34342, Control_c, 0, 64, 0
1, 34372, Control_c, 0, 64, 63
1, 34382, Note_on_c, 0, 95, 87
1, 34383, Note_on_c, 0, 92, 84
1, 34384, Note_on_c, 0, 83, 86
1, 34386, Control_c, 0, 64, 76
1, 34401, Control_c, 0, 64, 88
1, 34416, Control_c, 0, 64, 98
1, 34431, Note_off_c, 0, 95, 66
1, 34431, Control_c, 0, 64, 101
1, 34432, Note_off_c, 0, 83, 60
1, 34441, Note_off_c, 0, 92, 66
1, 34443, Note_off_c, 0, 72, 59
1, 34446, Control_c, 0, 64, 104
1, 34450, Note_off_c, 0, 60, 58
1, 34453, Note_off_c, 0, 69, 61
1, 34460, Control_c, 0, 64, 107
1, 34475, Control_c, 0, 64, 110
1, 34490, Control_c, 0, 64, 113
1, 34503, Note_on_c, 0, 81, 96
1, 34503, Note_on_c, 0, 93, 95
1, 34504, Control_c, 0, 64, 114
1, 34507, Note_on_c, 0, 89, 86
1, 34519, Control_c, 0, 64, 114
1, 34542, Control_c, 0, 64, 115
1, 34557, Control_c, 0, 64, 115
1, 34572, Control_c, 0, 64, 116
1, 34586, Control_c, 0, 64, 117
1, 34601, Control_c, 0, 64, 118
1, 34608, Note_on_c, 0, 68, 83
1, 34613, Note_on_c, 0, 71, 81
1, 34614, Note_on_c, 0, 59, 67
1, 34616, Control_c, 0, 64, 120
1, 34631, Control_c, 0, 64, 124
1, 34646, Control_c, 0, 64, 127
1, 34651, Note_off_c, 0, 93, 60
1, 34654, Note_off_c, 0, 71, 63
1, 34659, Note_off_c, 0, 68, 66
1, 34668, Note_off_c, 0, 59, 64
1, 34677, Note_off_c, 0, 81, 56
1, 34685, Note_off_c, 0, 89, 62
1, 34719, Control_c, 0, 64, 116
1, 34733, Note_on_c, 0, 69, 93
1, 34734, Control_c, 0, 64, 90
1, 34735, Note_on_c, 0, 65, 96
1, 34741, Note_on_c, 0, 57, 80
1, 34749, Control_c, 0, 64, 65
1, 34764, Control_c, 0, 64, 0
1, 34793, Control_c, 0, 64, 49
1, 34808, Control_c, 0, 64, 73
1, 34823, Control_c, 0, 64, 89
1, 34838, Control_c, 0, 64, 104
1, 34840, Note_on_c, 0, 80, 90
1, 34844, Note_on_c, 0, 92, 82
1, 34845, Note_on_c, 0, 89, 76
1, 34852, Control_c, 0, 64, 109
1, 34867, Control_c, 0, 64, 110
1, 34882, Note_off_c, 0, 92, 66
1, 34882, Control_c, 0, 64, 113
1, 34888, Note_off_c, 0, 80, 63
1, 34890, Note_off_c, 0, 69, 60
1, 34893, Note_off_c, 0, 89, 66
1, 34897, Note_off_c, 0, 57, 57
1, 34897, Control_c, 0, 64, 116
1, 34907, Note_off_c, 0, 65, 57
1, 34912, Control_c, 0, 64, 118
1, 34927, Control_c, 0, 64, 119
1, 34942, Control_c, 0, 64, 119
1, 34957, Control_c, 0, 64, 120
1, 34963, Note_on_c, 0, 89, 92
1, 34966, Note_on_c, 0, 77, 95
1, 34967, Note_on_c, 0, 86, 85
1, 34972, Control_c, 0, 64, 121
1, 34986, Control_c, 0, 64, 121
1, 35001, Control_c, 0, 64, 123
1, 35016, Control_c, 0, 64, 127
1, 35062, Note_on_c, 0, 65, 84
1, 35065, Note_on_c, 0, 68, 87
1, 35067, Note_on_c, 0, 56, 71
1, 35099, Note_off_c, 0, 68, 61
1, 35106, Note_off_c, 0, 65, 67
1, 35106, Control_c, 0, 64, 122
1, 35121, Control_c, 0, 64, 96
1, 35121, Note_off_c, 0, 56, 65
1, 35135, Control_c, 0, 64, 73
1, 35150, Control_c, 0, 64, 0
1, 35170, Note_off_c, 0, 86, 62
1, 35171, Note_off_c, 0, 89, 62
1, 35180, Control_c, 0, 64, 66
1, 35185, Note_on_c, 0, 65, 90
1, 35186, Note_off_c, 0, 77, 58
1, 35189, Note_on_c, 0, 62, 91
1, 35195, Note_on_c, 0, 53, 82
1, 35195, Control_c, 0, 64, 81
1, 35209, Control_c, 0, 64, 95
1, 35224, Control_c, 0, 64, 103
1, 35239, Control_c, 0, 64, 104
1, 35254, Control_c, 0, 64, 106
1, 35269, Control_c, 0, 64, 108
1, 35272, Note_off_c, 0, 53, 63
1, 35291, Control_c, 0, 64, 112
1, 35292, Note_on_c, 0, 88, 83
1, 35295, Note_off_c, 0, 65, 62
1, 35296, Note_on_c, 0, 76, 81
1, 35297, Note_off_c, 0, 62, 61
1, 35300, Note_on_c, 0, 85, 77
1, 35305, Control_c, 0, 64, 114
1, 35320, Control_c, 0, 64, 115
1, 35335, Note_off_c, 0, 88, 63
1, 35335, Control_c, 0, 64, 115
1, 35344, Note_off_c, 0, 76, 63
1, 35350, Note_off_c, 0, 85, 64
1, 35365, Control_c, 0, 64, 116
1, 35409, Control_c, 0, 64, 116
1, 35413, Note_on_c, 0, 67, 84
1, 35414, Note_on_c, 0, 74, 84
1, 35417, Note_on_c, 0, 55, 76
1, 35417, Note_on_c, 0, 86, 77
1, 35428, Note_on_c, 0, 82, 76
1, 35437, Note_off_c, 0, 86, 69
1, 35439, Control_c, 0, 64, 117
1, 35442, Note_off_c, 0, 74, 62
1, 35452, Note_off_c, 0, 55, 59
1, 35463, Note_off_c, 0, 67, 60
1, 35466, Note_on_c, 0, 57, 20
1, 35478, Note_off_c, 0, 82, 63
1, 35498, Control_c, 0, 64, 117
1, 35505, Note_off_c, 0, 57, 52
1, 35513, Control_c, 0, 64, 118
1, 35517, Note_on_c, 0, 73, 89
1, 35523, Note_on_c, 0, 85, 84
1, 35534, Note_on_c, 0, 69, 84
1, 35538, Note_on_c, 0, 57, 62
1, 35542, Control_c, 0, 64, 117
1, 35557, Control_c, 0, 64, 116
1, 35558, Note_off_c, 0, 73, 61
1, 35572, Control_c, 0, 64, 101
1, 35574, Note_off_c, 0, 57, 62
1, 35581, Note_off_c, 0, 69, 64
1, 35581, Note_off_c, 0, 85, 62
1, 35587, Control_c, 0, 64, 74
1, 35601, Control_c, 0, 64, 0
1, 35651, Note_on_c, 0, 74, 90
1, 35654, Note_on_c, 0, 70, 94
1, 35655, Note_on_c, 0, 86, 88
1, 35660, Note_on_c, 0, 65, 22
1, 35660, Note_on_c, 0, 82, 79
1, 35660, Control_c, 0, 64, 68
1, 35661, Note_on_c, 0, 77, 63
1, 35666, Note_on_c, 0, 78, 71
1, 35666, Note_on_c, 0, 62, 68
1, 35670, Note_on_c, 0, 58, 70
1, 35675, Control_c, 0, 64, 81
1, 35681, Note_off_c, 0, 70, 66
1, 35683, Note_off_c, 0, 78, 64
1, 35686, Note_off_c, 0, 65, 60
1, 35690, Note_off_c, 0, 77, 64
1, 35690, Control_c, 0, 64, 95
1, 35696, Note_off_c, 0, 62, 66
1, 35699, Note_off_c, 0, 74, 63
1, 35705, Note_off_c, 0, 86, 63
1, 35705, Control_c, 0, 64, 100
1, 35709, Note_off_c, 0, 58, 63
1, 35720, Control_c, 0, 64, 102
1, 35723, Note_off_c, 0, 82, 62
1, 35735, Control_c, 0, 64, 103
1, 35750, Control_c, 0, 64, 104
1, 35765, Control_c, 0, 64, 106
1, 35779, Control_c, 0, 64, 107
1, 35794, Control_c, 0, 64, 108
1, 35810, Control_c, 0, 64, 109
1, 35824, Control_c, 0, 64, 110
1, 35839, Control_c, 0, 64, 111
1, 35854, Control_c, 0, 64, 111
1, 35869, Control_c, 0, 64, 112
1, 35871, Note_on_c, 0, 46, 96
1, 35881, Note_on_c, 0, 34, 77
1, 35884, Control_c, 0, 64, 113
1, 35887, Note_on_c, 0, 82, 63
1, 35893, Note_on_c, 0, 73, 88
1, 35895, Note_off_c, 0, 46, 67
1, 35899, Note_on_c, 0, 85, 84
1, 35899, Control_c, 0, 64, 113
1, 35904, Note_on_c, 0, 79, 69
1, 35906, Note_off_c, 0, 34, 68
1, 35914, Control_c, 0, 64, 114
1, 35917, Note_off_c, 0, 73, 62
1, 35929, Note_off_c, 0, 79, 67
1, 35942, Note_off_c, 0, 82, 63
1, 35956, Note_off_c, 0, 85, 63
1, 35973, Control_c, 0, 64, 114
1, 35988, Control_c, 0, 64, 111
1, 36003, Control_c, 0, 64, 99
1, 36006, Note_on_c, 0, 76, 86
1, 36006, Note_on_c, 0, 88, 88
1, 36018, Control_c, 0, 64, 81
1, 36039, Control_c, 0, 64, 41
1, 36054, Control_c, 0, 64, 0
1, 36055, Note_off_c, 0, 76, 67
1, 36059, Note_off_c, 0, 88, 63
1, 36127, Note_on_c, 0, 71, 90
1, 36128, Control_c, 0, 64, 69
1, 36130, Note_on_c, 0, 59, 75
1, 36131, Note_on_c, 0, 65, 71
1, 36133, Note_on_c, 0, 86, 90
1, 36134, Note_on_c, 0, 68, 83
1, 36134, Note_on_c, 0, 77, 94
1, 36135, Note_on_c, 0, 74, 90
1, 36143, Control_c, 0, 64, 79
1, 36148, Note_off_c, 0, 71, 69
1, 36155, Note_off_c, 0, 68, 70
1, 36158, Control_c, 0, 64, 90
1, 36160, Note_on_c, 0, 83, 51
1, 36166, Note_off_c, 0, 77, 60
1, 36172, Note_off_c, 0, 65, 67
1, 36173, Control_c, 0, 64, 98
1, 36179, Note_off_c, 0, 74, 63
1, 36182, Note_off_c, 0, 59, 66
1, 36182, Note_off_c, 0, 83, 56
1, 36188, Control_c, 0, 64, 101
1, 36192, Note_off_c, 0, 86, 61
1, 36203, Control_c, 0, 64, 104
1, 36218, Control_c, 0, 64, 106
1, 36232, Control_c, 0, 64, 108
1, 36247, Control_c, 0, 64, 109
1, 36276, Control_c, 0, 64, 109
1, 36291, Control_c, 0, 64, 110
1, 36306, Control_c, 0, 64, 112
1, 36321, Control_c, 0, 64, 113
1, 36336, Control_c, 0, 64, 113
1, 36350, Control_c, 0, 64, 114
1, 36352, Note_on_c, 0, 44, 94
1, 36361, Note_on_c, 0, 73, 93
1, 36362, Note_on_c, 0, 32, 77
1, 36362, Note_on_c, 0, 85, 90
1, 36365, Control_c, 0, 64, 115
1, 36380, Note_off_c, 0, 44, 66
1, 36380, Control_c, 0, 64, 116
1, 36386, Note_off_c, 0, 32, 66
1, 36395, Control_c, 0, 64, 117
1, 36402, Note_off_c, 0, 73, 62
1, 36409, Note_off_c, 0, 85, 67
1, 36439, Control_c, 0, 64, 117
1, 36453, Control_c, 0, 64, 118
1, 36468, Note_on_c, 0, 88, 94
1, 36468, Control_c, 0, 64, 119
1, 36473, Note_on_c, 0, 76, 83
1, 36483, Control_c, 0, 64, 121
1, 36498, Control_c, 0, 64, 123
1, 36513, Control_c, 0, 64, 124
1, 36514, Note_off_c, 0, 76, 66
1, 36514, Note_off_c, 0, 88, 65
1, 36543, Control_c, 0, 64, 123
1, 36557, Control_c, 0, 64, 113
1, 36572, Control_c, 0, 64, 94
1, 36579, Note_on_c, 0, 67, 100
1, 36585, Note_on_c, 0, 55, 77
1, 36587, Note_on_c, 0, 74, 100
1, 36587, Note_on_c, 0, 86, 97
1, 36587, Control_c, 0, 64, 74
1, 36588, Note_on_c, 0, 62, 78
1, 36588, Note_on_c, 0, 79, 92
1, 36590, Note_on_c, 0, 58, 81
1, 36593, Note_on_c, 0, 82, 85
1, 36602, Control_c, 0, 64, 0
1, 36608, Note_off_c, 0, 67, 67
1, 36611, Note_off_c, 0, 62, 68
1, 36618, Note_off_c, 0, 74, 65
1, 36622, Note_off_c, 0, 79, 60
1, 36623, Note_off_c, 0, 55, 67
1, 36630, Note_off_c, 0, 86, 65
1, 36636, Note_off_c, 0, 58, 66
1, 36644, Note_off_c, 0, 82, 58
1, 36850, Note_on_c, 0, 43, 97
1, 36853, Note_on_c, 0, 82, 60
1, 36856, Note_on_c, 0, 73, 98
1, 36856, Note_on_c, 0, 85, 90
1, 36859, Note_on_c, 0, 31, 79
1, 36860, Note_on_c, 0, 79, 82
1, 36861, Note_on_c, 0, 34, 78
1, 36876, Note_off_c, 0, 43, 68
1, 36882, Note_off_c, 0, 73, 66
1, 36887, Note_off_c, 0, 79, 63
1, 36888, Note_off_c, 0, 34, 67
1, 36891, Note_off_c, 0, 31, 63
1, 36904, Note_off_c, 0, 82, 64
1, 36909, Note_off_c, 0, 85, 67
1, 36913, Note_on_c, 0, 37, 6
1, 36914, Note_off_c, 0, 37, 127
1, 37130, Note_on_c, 0, 74, 90
1, 37130, Note_on_c, 0, 81, 83
1, 37130, Note_on_c, 0, 65, 99
1, 37131, Note_on_c, 0, 77, 87
1, 37133, Note_on_c, 0, 86, 92
1, 37133, Note_on_c, 0, 62, 76
1, 37141, Note_on_c, 0, 57, 66
1, 37142, Note_on_c, 0, 53, 75
1, 37143, Control_c, 0, 64, 63
1, 37158, Control_c, 0, 64, 75
1, 37162, Note_off_c, 0, 62, 65
1, 37162, Note_off_c, 0, 65, 67
1, 37172, Control_c, 0, 64, 81
1, 37187, Control_c, 0, 64, 85
1, 37188, Note_off_c, 0, 53, 66
1, 37189, Note_off_c, 0, 57, 63
1, 37202, Control_c, 0, 64, 91
1, 37217, Control_c, 0, 64, 99
1, 37232, Control_c, 0, 64, 105
1, 37246, Control_c, 0, 64, 107
1, 37261, Control_c, 0, 64, 108
1, 37291, Control_c, 0, 64, 108
1, 37306, Control_c, 0, 64, 109
1, 37335, Control_c, 0, 64, 109
1, 37350, Control_c, 0, 64, 110
1, 37365, Control_c, 0, 64, 110
1, 37401, Note_on_c, 0, 38, 95
1, 37407, Note_off_c, 0, 74, 62
1, 37410, Control_c, 0, 64, 111
1, 37412, Note_on_c, 0, 26, 82
1, 37416, Note_off_c, 0, 77, 59
1, 37440, Note_off_c, 0, 81, 60
1, 37445, Note_off_c, 0, 26, 64
1, 37445, Note_off_c, 0, 38, 62
1, 37461, Note_off_c, 0, 86, 64
1, 37470, Control_c, 0, 64, 111
1, 37536, Control_c, 0, 64, 112
1, 37542, Note_on_c, 0, 37, 89
1, 37551, Control_c, 0, 64, 112
1, 37555, Note_on_c, 0, 25, 80
1, 37566, Control_c, 0, 64, 115
1, 37569, Note_on_c, 0, 29, 15
1, 37581, Control_c, 0, 64, 118
1, 37596, Control_c, 0, 64, 121
1, 37597, Note_off_c, 0, 37, 64
1, 37610, Control_c, 0, 64, 122
1, 37622, Note_off_c, 0, 25, 64
1, 37626, Note_off_c, 0, 29, 47
1, 37655, Control_c, 0, 64, 121
1, 37670, Control_c, 0, 64, 106
1, 37684, Control_c, 0, 64, 81
1, 37699, Control_c, 0, 64, 0
1, 37712, Note_on_c, 0, 34, 92
1, 37715, Note_on_c, 0, 94, 90
1, 37716, Note_on_c, 0, 86, 91
1, 37716, Note_on_c, 0, 98, 96
1, 37726, Note_on_c, 0, 22, 82
1, 37759, Control_c, 0, 64, 70
1, 37767, Note_off_c, 0, 86, 63
1, 37774, Control_c, 0, 64, 85
1, 37783, Note_off_c, 0, 22, 64
1, 37786, Note_off_c, 0, 98, 64
1, 37789, Control_c, 0, 64, 101
1, 37795, Note_off_c, 0, 94, 64
1, 37800, Note_off_c, 0, 34, 63
1, 37803, Control_c, 0, 64, 105
1, 37818, Control_c, 0, 64, 106
1, 37833, Control_c, 0, 64, 107
1, 37848, Control_c, 0, 64, 109
1, 37863, Control_c, 0, 64, 113
1, 37877, Control_c, 0, 64, 116
1, 37886, Note_on_c, 0, 100, 88
1, 37887, Note_on_c, 0, 88, 88
1, 37890, Note_on_c, 0, 97, 84
1, 37892, Control_c, 0, 64, 117
1, 37931, Note_off_c, 0, 88, 61
1, 37936, Control_c, 0, 64, 117
1, 37937, Note_off_c, 0, 97, 58
1, 37938, Note_off_c, 0, 100, 63
1, 37951, Control_c, 0, 64, 118
1, 38028, Note_on_c, 0, 101, 96
1, 38030, Note_on_c, 0, 89, 92
1, 38033, Note_on_c, 0, 98, 82
1, 38040, Note_on_c, 0, 62, 79
1, 38041, Note_on_c, 0, 50, 73
1, 38045, Note_on_c, 0, 58, 76
1, 38081, Note_off_c, 0, 58, 62
1, 38087, Note_off_c, 0, 62, 59
1, 38093, Note_off_c, 0, 50, 63
1, 38164, Note_on_c, 0, 64, 89
1, 38166, Note_on_c, 0, 61, 86
1, 38176, Note_on_c, 0, 52, 74
1, 38204, Control_c, 0, 64, 118
1, 38218, Note_off_c, 0, 61, 62
1, 38219, Note_off_c, 0, 52, 64
1, 38221, Note_off_c, 0, 64, 61
1, 38227, Note_off_c, 0, 101, 57
1, 38258, Note_off_c, 0, 98, 63
1, 38263, Control_c, 0, 64, 118
1, 38265, Note_off_c, 0, 89, 61
1, 38286, Control_c, 0, 64, 105
1, 38300, Note_on_c, 0, 65, 95
1, 38300, Control_c, 0, 64, 83
1, 38301, Note_on_c, 0, 62, 86
1, 38307, Note_on_c, 0, 53, 78
1, 38315, Control_c, 0, 64, 50
1, 38330, Control_c, 0, 64, 0
1, 38359, Control_c, 0, 64, 56
1, 38374, Control_c, 0, 64, 75
1, 38389, Control_c, 0, 64, 88
1, 38404, Control_c, 0, 64, 101
1, 38413, Note_on_c, 0, 100, 85
1, 38415, Note_on_c, 0, 88, 85
1, 38418, Note_on_c, 0, 97, 81
1, 38419, Control_c, 0, 64, 107
1, 38434, Control_c, 0, 64, 109
1, 38447, Note_off_c, 0, 53, 62
1, 38449, Control_c, 0, 64, 112
1, 38462, Note_off_c, 0, 88, 62
1, 38464, Control_c, 0, 64, 117
1, 38466, Note_off_c, 0, 100, 65
1, 38468, Note_off_c, 0, 62, 61
1, 38478, Control_c, 0, 64, 120
1, 38480, Note_off_c, 0, 65, 63
1, 38480, Note_off_c, 0, 97, 64
1, 38493, Control_c, 0, 64, 121
1, 38508, Control_c, 0, 64, 122
1, 38523, Control_c, 0, 64, 122
1, 38536, Note_on_c, 0, 98, 88
1, 38537, Note_on_c, 0, 86, 93
1, 38543, Note_on_c, 0, 94, 84
1, 38552, Control_c, 0, 64, 123
1, 38582, Control_c, 0, 64, 124
1, 38626, Control_c, 0, 64, 124
1, 38641, Note_on_c, 0, 76, 84
1, 38644, Note_on_c, 0, 73, 82
1, 38645, Note_off_c, 0, 98, 64
1, 38647, Note_on_c, 0, 64, 77
1, 38656, Control_c, 0, 64, 125
1, 38678, Note_off_c, 0, 86, 60
1, 38680, Note_off_c, 0, 76, 66
1, 38681, Note_off_c, 0, 73, 60
1, 38686, Control_c, 0, 64, 125
1, 38698, Note_off_c, 0, 64, 63
1, 38701, Control_c, 0, 64, 126
1, 38716, Control_c, 0, 64, 126
1, 38757, Note_on_c, 0, 74, 93
1, 38761, Note_on_c, 0, 70, 90
1, 38765, Note_on_c, 0, 62, 82
1, 38790, Control_c, 0, 64, 122
1, 38805, Control_c, 0, 64, 104
1, 38819, Control_c, 0, 64, 81
1, 38834, Control_c, 0, 64, 0
1, 38857, Note_on_c, 0, 97, 84
1, 38859, Note_on_c, 0, 85, 79
1, 38878, Control_c, 0, 64, 50
1, 38892, Note_off_c, 0, 94, 64
1, 38893, Control_c, 0, 64, 72
1, 38906, Note_off_c, 0, 85, 65
1, 38908, Control_c, 0, 64, 84
1, 38912, Note_off_c, 0, 97, 65
1, 38923, Control_c, 0, 64, 96
1, 38938, Control_c, 0, 64, 102
1, 38952, Control_c, 0, 64, 105
1, 38967, Control_c, 0, 64, 109
1, 38972, Note_off_c, 0, 70, 57
1, 38975, Note_off_c, 0, 74, 58
1, 38978, Note_off_c, 0, 62, 59
1, 38981, Note_on_c, 0, 82, 97
1, 38982, Control_c, 0, 64, 113
1, 38984, Note_on_c, 0, 94, 91
1, 38990, Note_on_c, 0, 89, 75
1, 38998, Control_c, 0, 64, 118
1, 39013, Control_c, 0, 64, 121
1, 39035, Control_c, 0, 64, 123
1, 39049, Control_c, 0, 64, 124
1, 39064, Control_c, 0, 64, 127
1, 39104, Note_on_c, 0, 73, 80
1, 39106, Note_on_c, 0, 61, 78
1, 39139, Note_off_c, 0, 73, 60
1, 39158, Note_off_c, 0, 61, 60
1, 39206, Note_off_c, 0, 89, 60
1, 39208, Note_off_c, 0, 94, 62
1, 39210, Note_off_c, 0, 82, 60
1, 39223, Note_on_c, 0, 70, 81
1, 39225, Note_on_c, 0, 65, 84
1, 39239, Note_on_c, 0, 58, 69
1, 39245, Note_off_c, 0, 70, 66
1, 39264, Note_off_c, 0, 65, 60
1, 39269, Note_off_c, 0, 58, 67
1, 39318, Note_on_c, 0, 93, 80
1, 39318, Note_on_c, 0, 81, 80
1, 39341, Note_on_c, 0, 69, 84
1, 39353, Note_on_c, 0, 57, 71
1, 39365, Note_off_c, 0, 81, 61
1, 39368, Note_off_c, 0, 93, 63
1, 39376, Note_off_c, 0, 57, 66
1, 39377, Note_off_c, 0, 69, 66
1, 39440, Note_on_c, 0, 80, 89
1, 39442, Note_on_c, 0, 92, 94
1, 39447, Note_on_c, 0, 68, 84
1, 39448, Note_on_c, 0, 56, 83
1, 39467, Note_off_c, 0, 68, 71
1, 39483, Note_off_c, 0, 56, 64
1, 39484, Note_off_c, 0, 92, 66
1, 39485, Note_off_c, 0, 80, 63
1, 39556, Note_on_c, 0, 81, 94
1, 39558, Note_on_c, 0, 93, 93
1, 39559, Note_on_c, 0, 65, 81
1, 39574, Note_on_c, 0, 53, 69
1, 39593, Note_off_c, 0, 53, 68
1, 39593, Note_off_c, 0, 65, 57
1, 39593, Note_off_c, 0, 81, 65
1, 39595, Note_off_c, 0, 93, 65
1, 39669, Note_on_c, 0, 64, 83
1, 39669, Note_on_c, 0, 80, 96
1, 39672, Note_on_c, 0, 92, 93
1, 39682, Note_on_c, 0, 52, 76
1, 39687, Note_on_c, 0, 90, 69
1, 39702, Note_off_c, 0, 90, 65
1, 39704, Note_off_c, 0, 64, 62
1, 39706, Note_off_c, 0, 52, 69
1, 39708, Note_off_c, 0, 80, 64
1, 39716, Note_off_c, 0, 92, 66
1, 39784, Note_on_c, 0, 83, 90
1, 39790, Note_on_c, 0, 60, 87
1, 39793, Note_on_c, 0, 95, 84
1, 39795, Note_on_c, 0, 93, 74
1, 39805, Note_on_c, 0, 48, 78
1, 39823, Note_off_c, 0, 83, 61
1, 39830, Note_off_c, 0, 48, 68
1, 39830, Note_off_c, 0, 60, 58
1, 39833, Note_off_c, 0, 95, 66
1, 39834, Note_off_c, 0, 93, 57
1, 39844, Control_c, 0, 64, 123
1, 39859, Control_c, 0, 64, 108
1, 39873, Control_c, 0, 64, 93
1, 39888, Control_c, 0, 64, 78
1, 39901, Note_on_c, 0, 59, 88
1, 39903, Control_c, 0, 64, 59
1, 39907, Note_on_c, 0, 47, 87
1, 39908, Note_on_c, 0, 88, 97
1, 39911, Note_on_c, 0, 100, 98
1, 39918, Control_c, 0, 64, 0
1, 39925, Note_off_c, 0, 59, 67
1, 39941, Note_off_c, 0, 100, 68
1, 39941, Note_off_c, 0, 47, 67
1, 39947, Note_off_c, 0, 88, 66
1, 40206, Note_on_c, 0, 28, 88
1, 40206, Note_on_c, 0, 40, 96
1, 40208, Note_on_c, 0, 35, 79
1, 40209, Note_on_c, 0, 59, 73
1, 40209, Note_on_c, 0, 52, 100
1, 40211, Note_on_c, 0, 56, 83
1, 40215, Note_on_c, 0, 64, 88
1, 40244, Control_c, 0, 64, 64
1, 40245, Note_off_c, 0, 52, 69
1, 40258, Note_off_c, 0, 56, 65
1, 40259, Control_c, 0, 64, 74
1, 40272, Note_off_c, 0, 59, 63
1, 40273, Control_c, 0, 64, 80
1, 40278, Note_off_c, 0, 64, 68
1, 40288, Control_c, 0, 64, 84
1, 40303, Control_c, 0, 64, 87
1, 40317, Control_c, 0, 64, 91
1, 40332, Control_c, 0, 64, 96
1, 40347, Control_c, 0, 64, 102
1, 40362, Control_c, 0, 64, 106
1, 40377, Control_c, 0, 64, 109
1, 40391, Note_off_c, 0, 28, 61
1, 40391, Control_c, 0, 64, 110
1, 40406, Control_c, 0, 64, 111
1, 40411, Note_off_c, 0, 35, 62
1, 40418, Note_off_c, 0, 40, 65
1, 40421, Control_c, 0, 64, 112
1, 40436, Control_c, 0, 64, 113
1, 40451, Control_c, 0, 64, 114
1, 40465, Control_c, 0, 64, 115
1, 40495, Control_c, 0, 64, 115
1, 40682, Note_on_c, 0, 81, 88
1, 40686, Note_on_c, 0, 84, 80
1, 40686, Note_on_c, 0, 69, 86
1, 40688, Note_on_c, 0, 93, 79
1, 40696, Note_on_c, 0, 57, 62
1, 40704, Note_on_c, 0, 91, 59
1, 40718, Note_off_c, 0, 84, 62
1, 40719, Note_off_c, 0, 69, 63
1, 40720, Note_off_c, 0, 81, 60
1, 40726, Note_off_c, 0, 91, 39
1, 40728, Note_off_c, 0, 57, 64
1, 40743, Note_off_c, 0, 93, 63
1, 40797, Note_on_c, 0, 65, 87
1, 40800, Note_on_c, 0, 84, 94
1, 40800, Note_on_c, 0, 96, 96
1, 40807, Note_on_c, 0, 53, 80
1, 40815, Control_c, 0, 64, 115
1, 40817, Note_on_c, 0, 95, 59
1, 40829, Control_c, 0, 64, 109
1, 40830, Note_off_c, 0, 53, 71
1, 40832, Note_off_c, 0, 65, 62
1, 40835, Note_on_c, 0, 94, 37
1, 40836, Note_off_c, 0, 95, 38
1, 40837, Note_off_c, 0, 84, 62
1, 40843, Note_off_c, 0, 96, 65
1, 40844, Control_c, 0, 64, 98
1, 40859, Control_c, 0, 64, 83
1, 40865, Note_off_c, 0, 94, 35
1, 40874, Control_c, 0, 64, 69
1, 40889, Control_c, 0, 64, 0
1, 40908, Note_on_c, 0, 64, 83
1, 40913, Note_on_c, 0, 88, 97
1, 40914, Note_on_c, 0, 100, 105
1, 40917, Note_on_c, 0, 52, 78
1, 40928, Note_off_c, 0, 64, 72
1, 40942, Note_off_c, 0, 52, 70
1, 40943, Note_off_c, 0, 100, 67
1, 40951, Note_off_c, 0, 88, 64
1, 41217, Note_on_c, 0, 28, 83
1, 41217, Note_on_c, 0, 40, 96
1, 41221, Note_on_c, 0, 52, 94
1, 41223, Note_on_c, 0, 64, 81
1, 41223, Note_on_c, 0, 60, 70
1, 41226, Note_on_c, 0, 33, 79
1, 41227, Note_on_c, 0, 57, 85
1, 41243, Control_c, 0, 64, 67
1, 41258, Control_c, 0, 64, 75
1, 41262, Note_off_c, 0, 52, 66
1, 41280, Control_c, 0, 64, 83
1, 41285, Note_off_c, 0, 57, 63
1, 41295, Control_c, 0, 64, 88
1, 41297, Note_off_c, 0, 60, 63
1, 41309, Note_off_c, 0, 64, 66
1, 41310, Control_c, 0, 64, 91
1, 41325, Control_c, 0, 64, 95
1, 41339, Control_c, 0, 64, 98
1, 41354, Control_c, 0, 64, 99
1, 41369, Control_c, 0, 64, 100
1, 41384, Control_c, 0, 64, 101
1, 41391, Note_off_c, 0, 28, 59
1, 41400, Control_c, 0, 64, 101
1, 41406, Note_off_c, 0, 33, 63
1, 41423, Note_off_c, 0, 40, 64
1, 41430, Control_c, 0, 64, 102
1, 41459, Control_c, 0, 64, 103
1, 41474, Control_c, 0, 64, 103
1, 41489, Control_c, 0, 64, 104
1, 41503, Control_c, 0, 64, 104
1, 41518, Control_c, 0, 64, 106
1, 41533, Control_c, 0, 64, 107
1, 41548, Control_c, 0, 64, 108
1, 41563, Control_c, 0, 64, 109
1, 41577, Control_c, 0, 64, 110
1, 41652, Control_c, 0, 64, 109
1, 41667, Control_c, 0, 64, 98
1, 41682, Control_c, 0, 64, 79
1, 41694, Note_on_c, 0, 92, 90
1, 41696, Control_c, 0, 64, 29
1, 41697, Note_on_c, 0, 83, 72
1, 41701, Note_on_c, 0, 65, 96
1, 41705, Note_on_c, 0, 53, 83
1, 41711, Control_c, 0, 64, 0
1, 41741, Control_c, 0, 64, 66
1, 41756, Control_c, 0, 64, 77
1, 41770, Control_c, 0, 64, 86
1, 41785, Control_c, 0, 64, 91
1, 41800, Control_c, 0, 64, 92
1, 41811, Note_off_c, 0, 92, 60
1, 41815, Control_c, 0, 64, 95
1, 41816, Note_on_c, 0, 86, 81
1, 41818, Note_on_c, 0, 95, 72
1, 41824, Note_on_c, 0, 56, 71
1, 41828, Note_on_c, 0, 59, 60
1, 41828, Note_off_c, 0, 53, 61
1, 41830, Control_c, 0, 64, 98
1, 41837, Note_off_c, 0, 86, 68
1, 41842, Note_off_c, 0, 65, 63
1, 41843, Note_off_c, 0, 95, 69
1, 41844, Control_c, 0, 64, 101
1, 41851, Note_off_c, 0, 83, 59
1, 41854, Note_off_c, 0, 59, 65
1, 41859, Control_c, 0, 64, 103
1, 41866, Note_off_c, 0, 56, 62
1, 41874, Control_c, 0, 64, 105
1, 41888, Control_c, 0, 64, 105
1, 41903, Control_c, 0, 64, 106
1, 41918, Control_c, 0, 64, 106
1, 41933, Control_c, 0, 64, 107
1, 41940, Note_on_c, 0, 64, 84
1, 41942, Note_on_c, 0, 71, 82
1, 41942, Note_on_c, 0, 80, 87
1, 41946, Note_on_c, 0, 52, 83
1, 41948, Control_c, 0, 64, 108
1, 41962, Control_c, 0, 64, 109
1, 42021, Note_off_c, 0, 80, 51
1, 42030, Control_c, 0, 64, 110
1, 42044, Control_c, 0, 64, 110
1, 42046, Note_on_c, 0, 74, 79
1, 42051, Note_on_c, 0, 83, 65
1, 42058, Note_on_c, 0, 56, 72
1, 42059, Note_off_c, 0, 64, 64
1, 42059, Control_c, 0, 64, 111
1, 42064, Note_on_c, 0, 59, 50
1, 42068, Note_off_c, 0, 83, 65
1, 42070, Note_off_c, 0, 52, 61
1, 42076, Note_off_c, 0, 74, 65
1, 42081, Note_off_c, 0, 56, 69
1, 42083, Note_off_c, 0, 59, 61
1, 42089, Control_c, 0, 64, 110
1, 42094, Note_off_c, 0, 71, 57
1, 42103, Control_c, 0, 64, 98
1, 42118, Control_c, 0, 64, 79
1, 42133, Control_c, 0, 64, 34
1, 42148, Control_c, 0, 64, 0
1, 42177, Control_c, 0, 64, 54
1, 42179, Note_on_c, 0, 53, 91
1, 42186, Note_on_c, 0, 41, 87
1, 42191, Note_on_c, 0, 56, 90
1, 42193, Control_c, 0, 64, 69
1, 42200, Note_on_c, 0, 65, 72
1, 42208, Control_c, 0, 64, 70
1, 42210, Note_on_c, 0, 64, 53
1, 42233, Note_off_c, 0, 64, 57
1, 42238, Control_c, 0, 64, 68
1, 42253, Control_c, 0, 64, 66
1, 42267, Control_c, 0, 64, 65
1, 42310, Note_on_c, 0, 68, 82
1, 42311, Note_on_c, 0, 44, 69
1, 42312, Control_c, 0, 64, 63
1, 42317, Note_on_c, 0, 47, 54
1, 42325, Note_off_c, 0, 53, 59
1, 42326, Control_c, 0, 64, 59
1, 42327, Note_off_c, 0, 41, 58
1, 42332, Note_off_c, 0, 56, 25
1, 42332, Note_off_c, 0, 65, 62
1, 42341, Control_c, 0, 64, 47
1, 42356, Control_c, 0, 64, 34
1, 42359, Note_off_c, 0, 47, 65
1, 42371, Control_c, 0, 64, 31
1, 42377, Note_off_c, 0, 44, 63
1, 42386, Control_c, 0, 64, 24
1, 42391, Note_off_c, 0, 68, 61
1, 42400, Control_c, 0, 64, 0
1, 42416, Note_on_c, 0, 52, 85
1, 42430, Note_on_c, 0, 40, 71
1, 42433, Note_on_c, 0, 64, 88
1, 42457, Note_off_c, 0, 52, 68
1, 42461, Note_off_c, 0, 40, 65
1, 42466, Note_off_c, 0, 64, 67
1, 42638, Control_c, 0, 64, 54
1, 42653, Control_c, 0, 64, 71
1, 42657, Note_on_c, 0, 65, 96
1, 42659, Note_on_c, 0, 53, 80
1, 42664, Note_on_c, 0, 93, 102
1, 42668, Note_on_c, 0, 84, 85
1, 42668, Control_c, 0, 64, 81
1, 42683, Control_c, 0, 64, 88
1, 42698, Control_c, 0, 64, 91
1, 42712, Control_c, 0, 64, 94
1, 42727, Control_c, 0, 64, 97
1, 42742, Control_c, 0, 64, 99
1, 42757, Control_c, 0, 64, 101
1, 42779, Control_c, 0, 64, 102
1, 42785, Note_off_c, 0, 53, 63
1, 42788, Note_on_c, 0, 60, 72
1, 42792, Note_on_c, 0, 96, 81
1, 42794, Note_on_c, 0, 57, 68
1, 42798, Note_on_c, 0, 88, 80
1, 42800, Note_off_c, 0, 93, 61
1, 42808, Control_c, 0, 64, 103
1, 42813, Note_off_c, 0, 96, 67
1, 42823, Note_off_c, 0, 65, 62
1, 42823, Control_c, 0, 64, 104
1, 42829, Note_off_c, 0, 88, 62
1, 42836, Note_off_c, 0, 84, 64
1, 42838, Control_c, 0, 64, 105
1, 42859, Note_off_c, 0, 60, 58
1, 42878, Note_off_c, 0, 57, 60
1, 42883, Control_c, 0, 64, 105
1, 42898, Control_c, 0, 64, 106
1, 42913, Control_c, 0, 64, 107
1, 42914, Note_on_c, 0, 64, 89
1, 42918, Note_on_c, 0, 81, 97
1, 42922, Note_on_c, 0, 52, 73
1, 42927, Note_on_c, 0, 72, 81
1, 42927, Control_c, 0, 64, 108
1, 42972, Control_c, 0, 64, 108
1, 42978, Note_off_c, 0, 72, 0
1, 43002, Control_c, 0, 64, 109
1, 43008, Note_on_c, 0, 72, 36
1, 43017, Control_c, 0, 64, 109
1, 43020, Note_on_c, 0, 57, 67
1, 43023, Note_on_c, 0, 76, 78
1, 43028, Note_on_c, 0, 60, 66
1, 43030, Note_off_c, 0, 64, 63
1, 43031, Note_on_c, 0, 84, 80
1, 43032, Control_c, 0, 64, 110
1, 43032, Note_off_c, 0, 81, 61
1, 43039, Note_off_c, 0, 52, 53
1, 43043, Note_off_c, 0, 60, 67
1, 43047, Control_c, 0, 64, 112
1, 43056, Note_off_c, 0, 84, 66
1, 43060, Note_off_c, 0, 57, 64
1, 43062, Control_c, 0, 64, 115
1, 43067, Note_off_c, 0, 76, 65
1, 43077, Note_off_c, 0, 72, 64
1, 43077, Control_c, 0, 64, 116
1, 43106, Control_c, 0, 64, 106
1, 43121, Control_c, 0, 64, 84
1, 43135, Control_c, 0, 64, 63
1, 43150, Control_c, 0, 64, 0
1, 43155, Note_on_c, 0, 53, 96
1, 43160, Note_on_c, 0, 41, 89
1, 43160, Note_on_c, 0, 65, 94
1, 43164, Note_on_c, 0, 57, 88
1, 43165, Control_c, 0, 64, 64
1, 43180, Control_c, 0, 64, 73
1, 43195, Control_c, 0, 64, 85
1, 43210, Control_c, 0, 64, 96
1, 43212, Note_off_c, 0, 57, 61
1, 43224, Control_c, 0, 64, 100
1, 43273, Note_on_c, 0, 48, 72
1, 43283, Note_on_c, 0, 45, 65
1, 43283, Note_on_c, 0, 69, 89
1, 43298, Control_c, 0, 64, 99
1, 43313, Control_c, 0, 64, 90
1, 43321, Note_off_c, 0, 53, 61
1, 43326, Note_off_c, 0, 41, 63
1, 43327, Note_off_c, 0, 65, 55
1, 43328, Control_c, 0, 64, 73
1, 43342, Control_c, 0, 64, 0
1, 43344, Note_off_c, 0, 48, 65
1, 43360, Note_off_c, 0, 45, 64
1, 43402, Control_c, 0, 64, 59
1, 43405, Note_off_c, 0, 69, 57
1, 43413, Note_on_c, 0, 52, 94
1, 43417, Control_c, 0, 64, 71
1, 43421, Note_on_c, 0, 40, 88
1, 43421, Note_on_c, 0, 64, 98
1, 43431, Control_c, 0, 64, 79
1, 43446, Control_c, 0, 64, 85
1, 43457, Note_off_c, 0, 64, 68
1, 43461, Control_c, 0, 64, 88
1, 43476, Control_c, 0, 64, 91
1, 43483, Note_off_c, 0, 52, 59
1, 43484, Note_off_c, 0, 40, 61
1, 43491, Control_c, 0, 64, 95
1, 43506, Control_c, 0, 64, 99
1, 43528, Control_c, 0, 64, 102
1, 43542, Control_c, 0, 64, 105
1, 43557, Control_c, 0, 64, 105
1, 43572, Control_c, 0, 64, 106
1, 43587, Control_c, 0, 64, 107
1, 43661, Control_c, 0, 64, 106
1, 43676, Control_c, 0, 64, 97
1, 43691, Control_c, 0, 64, 79
1, 43706, Control_c, 0, 64, 0
1, 43738, Note_on_c, 0, 92, 94
1, 43738, Note_on_c, 0, 44, 79
1, 43738, Note_on_c, 0, 50, 91
1, 43738, Note_on_c, 0, 101, 96
1, 43739, Note_on_c, 0, 52, 92
1, 43740, Note_on_c, 0, 40, 82
1, 43740, Note_on_c, 0, 89, 88
1, 43743, Note_on_c, 0, 47, 81
1, 43765, Control_c, 0, 64, 54
1, 43780, Control_c, 0, 64, 73
1, 43781, Note_on_c, 0, 98, 41
1, 43794, Note_off_c, 0, 40, 63
1, 43795, Control_c, 0, 64, 86
1, 43800, Note_off_c, 0, 50, 64
1, 43806, Note_off_c, 0, 47, 64
1, 43806, Note_off_c, 0, 98, 48
1, 43807, Note_off_c, 0, 44, 63
1, 43810, Note_off_c, 0, 52, 66
1, 43810, Control_c, 0, 64, 100
1, 43812, Note_off_c, 0, 101, 66
1, 43821, Note_off_c, 0, 89, 64
1, 43824, Note_off_c, 0, 92, 66
1, 43825, Control_c, 0, 64, 107
1, 43840, Control_c, 0, 64, 109
1, 43855, Control_c, 0, 64, 110
1, 43870, Control_c, 0, 64, 111
1, 43899, Control_c, 0, 64, 111
1, 43902, Note_on_c, 0, 88, 85
1, 43902, Note_on_c, 0, 100, 89
1, 43914, Control_c, 0, 64, 112
1, 43929, Control_c, 0, 64, 112
1, 43951, Note_off_c, 0, 88, 63
1, 43953, Note_off_c, 0, 100, 65
1, 44018, Control_c, 0, 64, 113
1, 44024, Note_on_c, 0, 74, 82
1, 44027, Note_on_c, 0, 62, 79
1, 44028, Note_on_c, 0, 98, 93
1, 44032, Note_on_c, 0, 86, 83
1, 44071, Note_off_c, 0, 74, 62
1, 44075, Note_off_c, 0, 62, 59
1, 44078, Note_off_c, 0, 86, 63
1, 44080, Note_off_c, 0, 98, 66
1, 44142, Note_on_c, 0, 72, 83
1, 44144, Note_on_c, 0, 96, 92
1, 44145, Note_on_c, 0, 84, 89
1, 44151, Note_on_c, 0, 60, 77
1, 44174, Note_off_c, 0, 60, 66
1, 44189, Note_off_c, 0, 96, 65
1, 44191, Note_off_c, 0, 72, 62
1, 44191, Note_off_c, 0, 84, 65
1, 44266, Note_on_c, 0, 71, 83
1, 44266, Note_on_c, 0, 83, 90
1, 44266, Note_on_c, 0, 95, 93
1, 44274, Note_on_c, 0, 59, 77
1, 44296, Note_off_c, 0, 59, 68
1, 44297, Note_off_c, 0, 71, 58
1, 44302, Note_off_c, 0, 95, 67
1, 44305, Note_off_c, 0, 83, 65
1, 44336, Control_c, 0, 64, 112
1, 44366, Control_c, 0, 64, 111
1, 44372, Note_on_c, 0, 80, 92
1, 44375, Note_on_c, 0, 68, 87
1, 44375, Note_on_c, 0, 92, 85
1, 44380, Control_c, 0, 64, 108
1, 44383, Note_on_c, 0, 56, 81
1, 44395, Control_c, 0, 64, 103
1, 44396, Note_on_c, 0, 90, 56
1, 44410, Note_off_c, 0, 80, 64
1, 44410, Control_c, 0, 64, 95
1, 44412, Note_off_c, 0, 68, 60
1, 44414, Note_off_c, 0, 56, 66
1, 44414, Note_off_c, 0, 90, 63
1, 44423, Note_off_c, 0, 92, 64
1, 44425, Control_c, 0, 64, 86
1, 44439, Control_c, 0, 64, 77
1, 44454, Control_c, 0, 64, 67
1, 44469, Control_c, 0, 64, 34
1, 44484, Control_c, 0, 64, 0
1, 44491, Note_on_c, 0, 81, 91
1, 44497, Note_on_c, 0, 89, 73
1, 44497, Note_on_c, 0, 93, 89
1, 44498, Note_on_c, 0, 69, 94
1, 44499, Note_on_c, 0, 84, 63
1, 44500, Note_on_c, 0, 65, 83
1, 44507, Note_on_c, 0, 60, 67
1, 44519, Note_off_c, 0, 84, 60
1, 44520, Note_on_c, 0, 57, 60
1, 44524, Note_on_c, 0, 85, 49
1, 44537, Note_off_c, 0, 85, 42
1, 44537, Note_off_c, 0, 89, 66
1, 44539, Note_off_c, 0, 69, 67
1, 44549, Note_off_c, 0, 65, 66
1, 44549, Note_off_c, 0, 93, 63
1, 44554, Note_off_c, 0, 81, 61
1, 44562, Note_off_c, 0, 57, 58
1, 44568, Note_off_c, 0, 60, 63
1, 44623, Note_on_c, 0, 91, 90
1, 44626, Note_on_c, 0, 79, 91
1, 44666, Note_off_c, 0, 79, 62
1, 44666, Note_off_c, 0, 91, 63
1, 44747, Note_on_c, 0, 65, 93
1, 44749, Note_on_c, 0, 77, 90
1, 44750, Note_on_c, 0, 56, 78
1, 44751, Control_c, 0, 64, 46
1, 44752, Note_on_c, 0, 80, 93
1, 44752, Note_on_c, 0, 89, 91
1, 44753, Note_on_c, 0, 53, 77
1, 44761, Note_on_c, 0, 59, 76
1, 44766, Control_c, 0, 64, 67
1, 44770, Note_on_c, 0, 87, 62
1, 44781, Control_c, 0, 64, 74
1, 44788, Note_off_c, 0, 87, 62
1, 44795, Control_c, 0, 64, 79
1, 44797, Note_off_c, 0, 80, 63
1, 44800, Note_off_c, 0, 89, 68
1, 44801, Note_off_c, 0, 77, 59
1, 44810, Control_c, 0, 64, 82
1, 44825, Control_c, 0, 64, 84
1, 44840, Control_c, 0, 64, 85
1, 44841, Note_off_c, 0, 65, 56
1, 44855, Control_c, 0, 64, 85
1, 44859, Note_off_c, 0, 59, 54
1, 44869, Note_on_c, 0, 76, 88
1, 44869, Note_on_c, 0, 88, 85
1, 44872, Note_off_c, 0, 56, 60
1, 44874, Note_off_c, 0, 53, 64
1, 44884, Control_c, 0, 64, 86
1, 44899, Control_c, 0, 64, 86
1, 44913, Control_c, 0, 64, 87
1, 44918, Note_off_c, 0, 88, 65
1, 44919, Note_off_c, 0, 76, 65
1, 44928, Control_c, 0, 64, 87
1, 44943, Control_c, 0, 64, 88
1, 44985, Note_on_c, 0, 62, 81
1, 44990, Note_on_c, 0, 74, 89
1, 44991, Note_on_c, 0, 86, 90
1, 44993, Note_on_c, 0, 50, 73
1, 45025, Control_c, 0, 64, 88
1, 45037, Note_off_c, 0, 50, 63
1, 45038, Note_off_c, 0, 62, 57
1, 45044, Note_off_c, 0, 86, 66
1, 45047, Note_off_c, 0, 74, 66
1, 45106, Note_on_c, 0, 60, 81
1, 45107, Note_on_c, 0, 72, 87
1, 45107, Note_on_c, 0, 84, 86
1, 45118, Note_on_c, 0, 48, 68
1, 45154, Note_off_c, 0, 48, 66
1, 45156, Note_on_c, 0, 50, 34
1, 45156, Note_off_c, 0, 84, 66
1, 45158, Note_off_c, 0, 60, 61
1, 45158, Note_off_c, 0, 72, 63
1, 45199, Note_off_c, 0, 50, 44
1, 45221, Note_on_c, 0, 71, 89
1, 45221, Note_on_c, 0, 83, 90
1, 45223, Note_on_c, 0, 59, 82
1, 45232, Note_on_c, 0, 47, 80
1, 45261, Note_off_c, 0, 83, 63
1, 45262, Control_c, 0, 64, 88
1, 45262, Note_off_c, 0, 47, 68
1, 45265, Note_off_c, 0, 71, 64
1, 45267, Note_off_c, 0, 59, 61
1, 45277, Control_c, 0, 64, 85
1, 45292, Control_c, 0, 64, 80
1, 45306, Control_c, 0, 64, 72
1, 45321, Control_c, 0, 64, 61
1, 45333, Note_on_c, 0, 68, 90
1, 45335, Note_on_c, 0, 56, 83
1, 45336, Control_c, 0, 64, 0
1, 45338, Note_on_c, 0, 80, 83
1, 45342, Note_on_c, 0, 44, 82
1, 45364, Note_off_c, 0, 56, 65
1, 45372, Note_off_c, 0, 44, 67
1, 45376, Note_off_c, 0, 80, 66
1, 45379, Note_off_c, 0, 68, 61
1, 45384, Note_on_c, 0, 78, 16
1, 45385, Note_off_c, 0, 78, 127
1, 45447, Note_on_c, 0, 57, 87
1, 45452, Note_on_c, 0, 45, 76
1, 45455, Note_on_c, 0, 69, 89
1, 45455, Note_on_c, 0, 81, 90
1, 45486, Note_off_c, 0, 57, 61
1, 45488, Note_off_c, 0, 81, 64
1, 45493, Note_off_c, 0, 45, 65
1, 45493, Note_off_c, 0, 69, 66
1, 45560, Note_on_c, 0, 53, 85
1, 45562, Note_on_c, 0, 77, 92
1, 45563, Note_on_c, 0, 65, 86
1, 45568, Note_on_c, 0, 41, 83
1, 45584, Note_off_c, 0, 65, 72
1, 45600, Note_off_c, 0, 53, 67
1, 45604, Note_off_c, 0, 77, 63
1, 45607, Note_off_c, 0, 41, 67
1, 45674, Note_on_c, 0, 52, 91
1, 45679, Note_on_c, 0, 40, 85
1, 45688, Note_on_c, 0, 76, 90
1, 45691, Note_on_c, 0, 88, 82
1, 45709, Note_off_c, 0, 88, 71
1, 45717, Note_off_c, 0, 52, 65
1, 45720, Note_off_c, 0, 76, 65
1, 45727, Note_off_c, 0, 40, 61
1, 45740, Note_on_c, 0, 86, 7
1, 45754, Note_off_c, 0, 86, 40
1, 45794, Note_on_c, 0, 50, 84
1, 45799, Note_on_c, 0, 38, 83
1, 45840, Note_off_c, 0, 50, 61
1, 45850, Note_off_c, 0, 38, 60
1, 45913, Note_on_c, 0, 48, 88
1, 45917, Note_on_c, 0, 36, 79
1, 45923, Note_on_c, 0, 64, 86
1, 45929, Note_on_c, 0, 76, 82
1, 45959, Note_off_c, 0, 48, 64
1, 45968, Note_off_c, 0, 36, 62
1, 46029, Note_on_c, 0, 47, 85
1, 46037, Note_on_c, 0, 35, 77
1, 46078, Note_off_c, 0, 35, 63
1, 46084, Note_off_c, 0, 47, 64
1, 46147, Note_on_c, 0, 45, 89
1, 46156, Note_on_c, 0, 33, 80
1, 46159, Control_c, 0, 64, 60
1, 46174, Control_c, 0, 64, 67
1, 46190, Control_c, 0, 64, 70
1, 46192, Note_off_c, 0, 33, 67
1, 46192, Note_off_c, 0, 45, 65
1, 46205, Control_c, 0, 64, 71
1, 46220, Control_c, 0, 64, 73
1, 46233, Note_off_c, 0, 64, 63
1, 46234, Control_c, 0, 64, 75
1, 46244, Note_off_c, 0, 76, 64
1, 46249, Control_c, 0, 64, 77
1, 46264, Control_c, 0, 64, 77
1, 46265, Note_on_c, 0, 44, 90
1, 46273, Note_on_c, 0, 32, 77
1, 46279, Control_c, 0, 64, 78
1, 46305, Note_on_c, 0, 34, 27
1, 46312, Note_off_c, 0, 44, 62
1, 46318, Note_off_c, 0, 32, 60
1, 46347, Note_off_c, 0, 34, 38
1, 46382, Note_on_c, 0, 42, 82
1, 46383, Control_c, 0, 64, 77
1, 46390, Note_on_c, 0, 66, 87
1, 46391, Note_on_c, 0, 78, 93
1, 46393, Note_on_c, 0, 30, 69
1, 46397, Control_c, 0, 64, 76
1, 46412, Note_off_c, 0, 42, 67
1, 46412, Control_c, 0, 64, 74
1, 46423, Note_off_c, 0, 30, 64
1, 46424, Note_off_c, 0, 66, 63
1, 46427, Control_c, 0, 64, 72
1, 46438, Note_off_c, 0, 78, 63
1, 46442, Control_c, 0, 64, 68
1, 46457, Control_c, 0, 64, 62
1, 46472, Control_c, 0, 64, 13
1, 46486, Control_c, 0, 64, 0
1, 46498, Note_on_c, 0, 40, 88
1, 46499, Poly_aftertouch_c, 0, 32, 0
1, 46501, Note_on_c, 0, 28, 87
1, 46514, Note_on_c, 0, 80, 85
1, 46519, Note_on_c, 0, 68, 82
1, 46538, Note_off_c, 0, 40, 66
1, 46541, Note_off_c, 0, 28, 67
1, 46542, Note_off_c, 0, 68, 69
1, 46558, Note_off_c, 0, 80, 62
1, 46597, Control_c, 0, 64, 65
1, 46612, Control_c, 0, 64, 69
1, 46627, Control_c, 0, 64, 72
1, 46631, Note_on_c, 0, 69, 92
1, 46633, Note_on_c, 0, 76, 78
1, 46635, Note_on_c, 0, 72, 77
1, 46636, Note_on_c, 0, 81, 84
1, 46637, Note_on_c, 0, 45, 78
1, 46641, Note_on_c, 0, 41, 70
1, 46642, Control_c, 0, 64, 74
1, 46644, Note_on_c, 0, 38, 68
1, 46650, Note_on_c, 0, 33, 59
1, 46656, Note_off_c, 0, 72, 72
1, 46657, Control_c, 0, 64, 77
1, 46665, Note_off_c, 0, 69, 62
1, 46667, Note_off_c, 0, 41, 60
1, 46671, Note_on_c, 0, 35, 41
1, 46672, Control_c, 0, 64, 80
1, 46672, Note_on_c, 0, 40, 39
1, 46675, Note_off_c, 0, 76, 67
1, 46677, Note_on_c, 0, 47, 13
1, 46678, Note_off_c, 0, 47, 127
1, 46680, Note_off_c, 0, 33, 60
1, 46686, Note_off_c, 0, 38, 63
1, 46686, Note_off_c, 0, 81, 63
1, 46686, Control_c, 0, 64, 81
1, 46690, Note_off_c, 0, 45, 61
1, 46701, Control_c, 0, 64, 83
1, 46701, Note_off_c, 0, 40, 53
1, 46707, Note_off_c, 0, 35, 54
1, 46716, Control_c, 0, 64, 83
1, 46731, Control_c, 0, 64, 84
1, 46734, Poly_aftertouch_c, 0, 47, 0
1, 46746, Control_c, 0, 64, 84
1, 46762, Note_on_c, 0, 72, 81
1, 46767, Note_on_c, 0, 84, 77
1, 46775, Control_c, 0, 64, 84
1, 46789, Note_off_c, 0, 84, 67
1, 46790, Control_c, 0, 64, 81
1, 46791, Note_off_c, 0, 72, 67
1, 46805, Control_c, 0, 64, 75
1, 46819, Control_c, 0, 64, 66
1, 46834, Control_c, 0, 64, 0
1, 46880, Note_on_c, 0, 52, 98
1, 46881, Note_on_c, 0, 68, 97
1, 46883, Note_on_c, 0, 44, 73
1, 46886, Note_on_c, 0, 80, 85
1, 46886, Note_on_c, 0, 74, 80
1, 46889, Note_on_c, 0, 47, 75
1, 46896, Note_on_c, 0, 40, 68
1, 46904, Note_off_c, 0, 68, 64
1, 46914, Note_off_c, 0, 74, 63
1, 46915, Note_off_c, 0, 52, 68
1, 46920, Note_off_c, 0, 47, 68
1, 46922, Note_off_c, 0, 40, 65
1, 46926, Note_off_c, 0, 80, 65
1, 46930, Note_off_c, 0, 44, 61
1, 47018, Note_on_c, 0, 71, 80
1, 47020, Note_on_c, 0, 83, 84
1, 47038, Note_off_c, 0, 71, 70
1, 47039, Note_off_c, 0, 83, 67
1, 47178, Note_on_c, 0, 57, 94
1, 47184, Note_on_c, 0, 69, 92
1, 47184, Note_on_c, 0, 81, 93
1, 47184, Note_on_c, 0, 52, 86
1, 47187, Note_on_c, 0, 45, 75
1, 47187, Note_on_c, 0, 48, 72
1, 47188, Note_on_c, 0, 72, 80
1, 47189, Note_on_c, 0, 76, 81
1, 47220, Control_c, 0, 64, 65
1, 47235, Control_c, 0, 64, 72
1, 47250, Control_c, 0, 64, 78
1, 47272, Control_c, 0, 64, 84
1, 47287, Control_c, 0, 64, 87
1, 47302, Control_c, 0, 64, 89
1, 47316, Control_c, 0, 64, 91
1, 47331, Control_c, 0, 64, 92
1, 47346, Control_c, 0, 64, 93
1, 47353, Note_off_c, 0, 81, 55
1, 47360, Note_off_c, 0, 45, 62
1, 47361, Note_off_c, 0, 57, 58
1, 47365, Note_off_c, 0, 52, 63
1, 47375, Note_off_c, 0, 69, 60
1, 47399, Note_off_c, 0, 48, 34
1, 47400, Note_off_c, 0, 76, 59
1, 47405, Note_off_c, 0, 72, 60
1, 47405, Control_c, 0, 64, 93
1, 47420, Control_c, 0, 64, 90
1, 47435, Control_c, 0, 64, 84
1, 47450, Control_c, 0, 64, 75
1, 47465, Control_c, 0, 64, 63
1, 47479, Control_c, 0, 64, 0
1, 47685, Note_on_c, 0, 64, 87
1, 47687, Note_on_c, 0, 52, 74
1, 47691, Note_on_c, 0, 76, 83
1, 47709, Note_off_c, 0, 64, 69
1, 47709, Note_off_c, 0, 52, 69
1, 47712, Note_off_c, 0, 76, 70
1, 47749, Note_on_c, 0, 76, 90
1, 47752, Note_on_c, 0, 64, 96
1, 47754, Note_on_c, 0, 52, 100
1, 47834, Control_c, 0, 64, 55
1, 47849, Control_c, 0, 64, 68
1, 47864, Control_c, 0, 64, 74
1, 47879, Control_c, 0, 64, 80
1, 47894, Control_c, 0, 64, 86
1, 47909, Control_c, 0, 64, 91
1, 47924, Control_c, 0, 64, 95
1, 47938, Control_c, 0, 64, 98
1, 47953, Control_c, 0, 64, 101
1, 47968, Control_c, 0, 64, 103
1, 47983, Control_c, 0, 64, 106
1, 47986, Note_off_c, 0, 64, 60
1, 47998, Control_c, 0, 64, 108
1, 48010, Note_off_c, 0, 52, 64
1, 48019, Control_c, 0, 64, 110
1, 48028, Note_off_c, 0, 76, 63
1, 48034, Control_c, 0, 64, 112
1, 48049, Control_c, 0, 64, 113
1, 48064, Control_c, 0, 64, 114
1, 48079, Control_c, 0, 64, 116
1, 48094, Control_c, 0, 64, 117
1, 48108, Control_c, 0, 64, 118
1, 48123, Control_c, 0, 64, 119
1, 48138, Control_c, 0, 64, 122
1, 48153, Control_c, 0, 64, 124
1, 48168, Control_c, 0, 64, 127
1, 48183, Control_c, 0, 64, 127
1, 48286, Control_c, 0, 64, 111
1, 48301, Control_c, 0, 64, 89
1, 48302, Note_on_c, 0, 68, 97
1, 48302, Note_on_c, 0, 80, 92
1, 48305, Note_on_c, 0, 61, 95
1, 48306, Note_on_c, 0, 73, 86
1, 48309, Note_on_c, 0, 49, 77
1, 48309, Note_on_c, 0, 76, 79
1, 48311, Note_on_c, 0, 56, 83
1, 48316, Control_c, 0, 64, 61
1, 48321, Note_on_c, 0, 52, 69
1, 48330, Control_c, 0, 64, 0
1, 48360, Control_c, 0, 64, 41
1, 48375, Control_c, 0, 64, 73
1, 48382, Note_off_c, 0, 68, 58
1, 48390, Control_c, 0, 64, 87
1, 48404, Control_c, 0, 64, 100
1, 48419, Control_c, 0, 64, 104
1, 48425, Poly_aftertouch_c, 0, 53, 127
1, 48431, Note_off_c, 0, 80, 54
1, 48434, Control_c, 0, 64, 106
1, 48442, Note_off_c, 0, 61, 59
1, 48445, Note_off_c, 0, 49, 60
1, 48449, Control_c, 0, 64, 109
1, 48454, Note_off_c, 0, 73, 55
1, 48454, Note_off_c, 0, 76, 60
1, 48458, Note_off_c, 0, 56, 61
1, 48459, Note_off_c, 0, 52, 64
1, 48463, Control_c, 0, 64, 113
1, 48465, Poly_aftertouch_c, 0, 53, 0
1, 48478, Control_c, 0, 64, 117
1, 48493, Control_c, 0, 64, 120
1, 48508, Control_c, 0, 64, 121
1, 48523, Control_c, 0, 64, 122
1, 48538, Control_c, 0, 64, 124
1, 48553, Control_c, 0, 64, 125
1, 48568, Control_c, 0, 64, 126
1, 48583, Control_c, 0, 64, 127
1, 48598, Control_c, 0, 64, 127
1, 48828, Control_c, 0, 64, 109
1, 48842, Control_c, 0, 64, 84
1, 48857, Control_c, 0, 64, 48
1, 48861, Note_on_c, 0, 68, 86
1, 48863, Note_on_c, 0, 83, 81
1, 48864, Note_on_c, 0, 71, 89
1, 48866, Note_on_c, 0, 63, 75
1, 48870, Note_on_c, 0, 75, 83
1, 48871, Note_on_c, 0, 56, 64
1, 48872, Note_on_c, 0, 80, 78
1, 48872, Control_c, 0, 64, 0
1, 48878, Note_off_c, 0, 68, 74
1, 48887, Note_off_c, 0, 56, 64
1, 48891, Note_off_c, 0, 63, 69
1, 48893, Note_on_c, 0, 59, 41
1, 48894, Note_on_c, 0, 60, 44
1, 48895, Note_off_c, 0, 71, 63
1, 48897, Note_off_c, 0, 75, 68
1, 48901, Control_c, 0, 64, 72
1, 48904, Note_off_c, 0, 80, 66
1, 48904, Note_off_c, 0, 83, 64
1, 48907, Note_on_c, 0, 57, 52
1, 48916, Control_c, 0, 64, 89
1, 48919, Note_off_c, 0, 60, 50
1, 48920, Note_off_c, 0, 59, 49
1, 48931, Control_c, 0, 64, 109
1, 48933, Note_off_c, 0, 57, 57
1, 48946, Control_c, 0, 64, 117
1, 48961, Control_c, 0, 64, 117
1, 48976, Control_c, 0, 64, 118
1, 48991, Control_c, 0, 64, 121
1, 49006, Control_c, 0, 64, 123
1, 49021, Control_c, 0, 64, 126
1, 49035, Control_c, 0, 64, 127
1, 49120, Note_on_c, 0, 44, 75
1, 49125, Note_on_c, 0, 55, 72
1, 49126, Note_on_c, 0, 32, 74
1, 49127, Note_on_c, 0, 56, 77
1, 49149, Note_off_c, 0, 56, 67
1, 49150, Note_off_c, 0, 55, 68
1, 49155, Note_off_c, 0, 32, 64
1, 49156, Note_off_c, 0, 44, 64
1, 49357, Note_on_c, 0, 62, 73
1, 49361, Note_on_c, 0, 51, 87
1, 49367, Note_on_c, 0, 39, 77
1, 49370, Note_on_c, 0, 63, 82
1, 49384, Note_off_c, 0, 62, 67
1, 49389, Note_off_c, 0, 51, 66
1, 49390, Note_off_c, 0, 63, 72
1, 49425, Note_off_c, 0, 39, 62
1, 49539, Note_on_c, 0, 68, 83
1, 49540, Note_on_c, 0, 80, 83
1, 49548, Control_c, 0, 64, 112
1, 49558, Note_off_c, 0, 68, 73
1, 49560, Note_off_c, 0, 80, 70
1, 49563, Control_c, 0, 64, 86
1, 49578, Control_c, 0, 64, 65
1, 49592, Control_c, 0, 64, 0
1, 49607, Control_c, 0, 64, 62
1, 49617, Note_on_c, 0, 25, 80
1, 49617, Note_on_c, 0, 37, 78
1, 49622, Control_c, 0, 64, 73
1, 49623, Note_on_c, 0, 71, 87
1, 49627, Note_on_c, 0, 83, 92
1, 49637, Control_c, 0, 64, 86
1, 49652, Control_c, 0, 64, 98
1, 49653, Note_off_c, 0, 71, 63
1, 49656, Note_off_c, 0, 37, 60
1, 49661, Note_off_c, 0, 83, 65
1, 49666, Note_off_c, 0, 25, 66
1, 49666, Control_c, 0, 64, 104
1, 49681, Control_c, 0, 64, 106
1, 49696, Control_c, 0, 64, 108
1, 49710, Control_c, 0, 64, 111
1, 49725, Control_c, 0, 64, 116
1, 49740, Control_c, 0, 64, 125
1, 49755, Control_c, 0, 64, 127
1, 49774, Note_on_c, 0, 40, 76
1, 49775, Note_on_c, 0, 88, 81
1, 49780, Note_on_c, 0, 28, 71
1, 49780, Note_on_c, 0, 76, 81
1, 49803, Note_off_c, 0, 76, 69
1, 49807, Note_off_c, 0, 28, 63
1, 49808, Note_off_c, 0, 88, 57
1, 49814, Note_off_c, 0, 40, 65
1, 49828, Control_c, 0, 64, 109
1, 49843, Control_c, 0, 64, 83
1, 49858, Control_c, 0, 64, 0
1, 49876, Note_on_c, 0, 75, 92
1, 49876, Note_on_c, 0, 80, 86
1, 49877, Note_on_c, 0, 87, 86
1, 49879, Note_on_c, 0, 83, 48
1, 49884, Note_on_c, 0, 44, 87
1, 49895, Note_on_c, 0, 32, 71
1, 49903, Control_c, 0, 64, 66
1, 49909, Note_off_c, 0, 83, 62
1, 49918, Control_c, 0, 64, 80
1, 49918, Note_off_c, 0, 75, 62
1, 49918, Note_off_c, 0, 87, 62
1, 49924, Note_off_c, 0, 80, 61
1, 49927, Note_off_c, 0, 32, 63
1, 49927, Note_off_c, 0, 44, 61
1, 49933, Control_c, 0, 64, 95
1, 49948, Control_c, 0, 64, 106
1, 49963, Control_c, 0, 64, 108
1, 49977, Control_c, 0, 64, 112
1, 49992, Control_c, 0, 64, 125
1, 50007, Control_c, 0, 64, 127
1, 50028, Note_on_c, 0, 51, 83
1, 50031, Note_on_c, 0, 68, 91
1, 50032, Note_on_c, 0, 80, 91
1, 50037, Note_on_c, 0, 39, 70
1, 50051, Control_c, 0, 64, 109
1, 50057, Note_off_c, 0, 68, 64
1, 50058, Note_off_c, 0, 51, 63
1, 50066, Control_c, 0, 64, 83
1, 50071, Note_off_c, 0, 80, 63
1, 50077, Note_off_c, 0, 39, 62
1, 50081, Control_c, 0, 64, 60
1, 50096, Control_c, 0, 64, 47
1, 50110, Control_c, 0, 64, 69
1, 50115, Note_on_c, 0, 71, 91
1, 50118, Note_on_c, 0, 49, 91
1, 50118, Note_on_c, 0, 83, 95
1, 50125, Note_on_c, 0, 37, 82
1, 50125, Control_c, 0, 64, 83
1, 50140, Control_c, 0, 64, 107
1, 50154, Note_off_c, 0, 71, 61
1, 50155, Control_c, 0, 64, 119
1, 50164, Note_off_c, 0, 49, 62
1, 50166, Note_off_c, 0, 83, 63
1, 50170, Control_c, 0, 64, 120
1, 50180, Note_off_c, 0, 37, 63
1, 50186, Control_c, 0, 64, 123
1, 50200, Control_c, 0, 64, 127
1, 50282, Control_c, 0, 64, 123
1, 50285, Note_on_c, 0, 76, 93
1, 50285, Note_on_c, 0, 88, 80
1, 50293, Note_on_c, 0, 52, 74
1, 50296, Control_c, 0, 64, 91
1, 50302, Note_on_c, 0, 40, 66
1, 50311, Control_c, 0, 64, 65
1, 50315, Note_off_c, 0, 76, 68
1, 50317, Note_off_c, 0, 88, 61
1, 50318, Note_off_c, 0, 52, 69
1, 50326, Control_c, 0, 64, 0
1, 50328, Note_off_c, 0, 40, 55
1, 50341, Note_on_c, 0, 86, 6
1, 50342, Note_off_c, 0, 86, 127
1, 50356, Control_c, 0, 64, 67
1, 50371, Control_c, 0, 64, 82
1, 50372, Note_on_c, 0, 75, 98
1, 50376, Note_on_c, 0, 80, 90
1, 50377, Note_on_c, 0, 87, 86
1, 50382, Note_on_c, 0, 83, 59
1, 50383, Note_on_c, 0, 56, 92
1, 50386, Control_c, 0, 64, 102
1, 50390, Note_on_c, 0, 44, 78
1, 50398, Note_on_c, 0, 85, 51
1, 50401, Control_c, 0, 64, 121
1, 50410, Note_off_c, 0, 83, 66
1, 50414, Note_off_c, 0, 75, 63
1, 50415, Note_off_c, 0, 87, 64
1, 50415, Control_c, 0, 64, 124
1, 50417, Note_off_c, 0, 56, 63
1, 50419, Note_off_c, 0, 85, 59
1, 50420, Note_off_c, 0, 44, 67
1, 50422, Note_off_c, 0, 80, 62
1, 50430, Control_c, 0, 64, 127
1, 50529, Note_on_c, 0, 68, 86
1, 50535, Note_on_c, 0, 80, 84
1, 50548, Control_c, 0, 64, 94
1, 50552, Note_off_c, 0, 68, 67
1, 50563, Control_c, 0, 64, 67
1, 50574, Note_off_c, 0, 80, 63
1, 50578, Control_c, 0, 64, 0
1, 50607, Control_c, 0, 64, 67
1, 50622, Control_c, 0, 64, 85
1, 50624, Note_on_c, 0, 71, 94
1, 50625, Note_on_c, 0, 83, 93
1, 50626, Note_on_c, 0, 61, 96
1, 50629, Note_on_c, 0, 49, 85
1, 50637, Control_c, 0, 64, 107
1, 50651, Control_c, 0, 64, 121
1, 50660, Note_off_c, 0, 71, 65
1, 50663, Note_off_c, 0, 61, 64
1, 50666, Control_c, 0, 64, 121
1, 50669, Note_off_c, 0, 83, 63
1, 50670, Note_off_c, 0, 49, 61
1, 50696, Control_c, 0, 64, 122
1, 50711, Control_c, 0, 64, 125
1, 50726, Control_c, 0, 64, 127
1, 50791, Note_on_c, 0, 76, 83
1, 50795, Note_on_c, 0, 88, 77
1, 50814, Note_off_c, 0, 76, 66
1, 50815, Note_off_c, 0, 88, 67
1, 50874, Control_c, 0, 64, 97
1, 50889, Control_c, 0, 64, 70
1, 50890, Note_on_c, 0, 59, 49
1, 50896, Note_on_c, 0, 68, 98
1, 50896, Note_on_c, 0, 75, 98
1, 50896, Note_on_c, 0, 80, 95
1, 50896, Note_on_c, 0, 87, 86
1, 50896, Note_on_c, 0, 83, 78
1, 50899, Note_on_c, 0, 63, 88
1, 50902, Note_on_c, 0, 56, 74
1, 50904, Control_c, 0, 64, 0
1, 50919, Control_c, 0, 64, 32
1, 50928, Note_off_c, 0, 87, 63
1, 50928, Note_off_c, 0, 83, 61
1, 50929, Note_off_c, 0, 68, 68
1, 50933, Control_c, 0, 64, 69
1, 50934, Note_off_c, 0, 63, 63
1, 50934, Note_off_c, 0, 75, 64
1, 50939, Note_off_c, 0, 80, 63
1, 50948, Control_c, 0, 64, 83
1, 50952, Note_off_c, 0, 59, 65
1, 50961, Note_off_c, 0, 56, 65
1, 50963, Control_c, 0, 64, 99
1, 50979, Control_c, 0, 64, 110
1, 50994, Control_c, 0, 64, 111
1, 51016, Control_c, 0, 64, 112
1, 51030, Control_c, 0, 64, 112
1, 51045, Control_c, 0, 64, 114
1, 51060, Control_c, 0, 64, 118
1, 51075, Control_c, 0, 64, 120
1, 51119, Control_c, 0, 64, 120
1, 51134, Control_c, 0, 64, 114
1, 51138, Note_on_c, 0, 59, 70
1, 51149, Control_c, 0, 64, 97
1, 51158, Note_on_c, 0, 43, 76
1, 51164, Control_c, 0, 64, 77
1, 51164, Note_on_c, 0, 55, 77
1, 51179, Control_c, 0, 64, 24
1, 51179, Note_off_c, 0, 59, 57
1, 51186, Note_on_c, 0, 61, 62
1, 51194, Control_c, 0, 64, 0
1, 51196, Note_off_c, 0, 55, 63
1, 51224, Control_c, 0, 64, 54
1, 51226, Note_on_c, 0, 63, 63
1, 51227, Note_off_c, 0, 43, 60
1, 51238, Control_c, 0, 64, 69
1, 51247, Note_off_c, 0, 61, 63
1, 51253, Control_c, 0, 64, 72
1, 51259, Note_off_c, 0, 63, 68
1, 51268, Control_c, 0, 64, 73
1, 51295, Note_on_c, 0, 64, 71
1, 51327, Note_off_c, 0, 64, 59
1, 51346, Note_on_c, 0, 66, 76
1, 51356, Control_c, 0, 64, 72
1, 51367, Note_on_c, 0, 68, 78
1, 51371, Control_c, 0, 64, 70
1, 51386, Control_c, 0, 64, 65
1, 51400, Note_off_c, 0, 66, 66
1, 51401, Control_c, 0, 64, 53
1, 51416, Control_c, 0, 64, 0
1, 51417, Note_off_c, 0, 68, 66
1, 51423, Note_on_c, 0, 42, 80
1, 51423, Note_on_c, 0, 54, 92
1, 51451, Note_on_c, 0, 69, 75
1, 51461, Note_off_c, 0, 54, 60
1, 51477, Note_off_c, 0, 69, 66
1, 51480, Note_off_c, 0, 42, 64
1, 51498, Note_on_c, 0, 71, 66
1, 51520, Note_on_c, 0, 73, 77
1, 51546, Note_off_c, 0, 71, 62
1, 51552, Note_on_c, 0, 75, 66
1, 51570, Note_off_c, 0, 73, 65
1, 51578, Note_off_c, 0, 75, 68
1, 51616, Note_on_c, 0, 76, 75
1, 51656, Note_off_c, 0, 76, 66
1, 51660, Note_on_c, 0, 78, 76
1, 51671, Note_on_c, 0, 53, 89
1, 51674, Note_on_c, 0, 41, 79
1, 51679, Note_on_c, 0, 80, 84
1, 51700, Note_off_c, 0, 53, 67
1, 51704, Note_off_c, 0, 78, 64
1, 51715, Note_off_c, 0, 80, 66
1, 51725, Note_off_c, 0, 41, 65
1, 51765, Note_on_c, 0, 81, 83
1, 51801, Note_on_c, 0, 83, 78
1, 51814, Note_off_c, 0, 81, 54
1, 51823, Note_on_c, 0, 85, 79
1, 51844, Note_on_c, 0, 87, 80
1, 51864, Note_off_c, 0, 83, 60
1, 51876, Note_off_c, 0, 85, 67
1, 51890, Note_off_c, 0, 87, 63
1, 51927, Control_c, 0, 64, 61
1, 51933, Note_on_c, 0, 52, 96
1, 51936, Note_on_c, 0, 40, 83
1, 51941, Note_on_c, 0, 76, 102
1, 51942, Note_on_c, 0, 88, 99
1, 51942, Control_c, 0, 64, 75
1, 51948, Note_on_c, 0, 83, 85
1, 51948, Note_on_c, 0, 80, 86
1, 51955, Note_off_c, 0, 76, 76
1, 51957, Control_c, 0, 64, 89
1, 51960, Note_off_c, 0, 52, 66
1, 51965, Note_off_c, 0, 83, 70
1, 51966, Note_off_c, 0, 80, 74
1, 51972, Control_c, 0, 64, 96
1, 51978, Note_on_c, 0, 86, 25
1, 51980, Note_off_c, 0, 88, 66
1, 51981, Note_off_c, 0, 40, 65
1, 51986, Control_c, 0, 64, 99
1, 52001, Control_c, 0, 64, 102
1, 52014, Note_off_c, 0, 86, 41
1, 52016, Control_c, 0, 64, 104
1, 52028, Poly_aftertouch_c, 0, 46, 0
1, 52030, Control_c, 0, 64, 105
1, 52045, Control_c, 0, 64, 105
1, 52060, Control_c, 0, 64, 106
1, 52090, Control_c, 0, 64, 106
1, 52104, Control_c, 0, 64, 107
1, 52119, Control_c, 0, 64, 107
1, 52134, Control_c, 0, 64, 108
1, 52179, Control_c, 0, 64, 109
1, 52194, Note_on_c, 0, 28, 81
1, 52194, Control_c, 0, 64, 110
1, 52195, Note_on_c, 0, 40, 80
1, 52198, Note_on_c, 0, 88, 92
1, 52202, Note_on_c, 0, 100, 102
1, 52209, Control_c, 0, 64, 112
1, 52221, Note_off_c, 0, 40, 68
1, 52228, Note_off_c, 0, 88, 62
1, 52229, Note_off_c, 0, 28, 64
1, 52231, Note_off_c, 0, 100, 62
1, 52268, Note_on_c, 0, 88, 88
1, 52268, Control_c, 0, 64, 112
1, 52270, Note_on_c, 0, 100, 91
1, 52273, Note_on_c, 0, 28, 87
1, 52274, Note_on_c, 0, 40, 90
1, 52283, Control_c, 0, 64, 114
1, 52297, Control_c, 0, 64, 115
1, 52307, Note_off_c, 0, 40, 62
1, 52307, Note_off_c, 0, 88, 66
1, 52312, Note_off_c, 0, 100, 65
1, 52312, Note_off_c, 0, 28, 63
1, 52312, Control_c, 0, 64, 116
1, 52327, Control_c, 0, 64, 116
1, 52342, Control_c, 0, 64, 123
1, 52350, Note_on_c, 0, 88, 87
1, 52350, Note_on_c, 0, 100, 88
1, 52357, Control_c, 0, 64, 127
1, 52365, Note_on_c, 0, 40, 96
1, 52366, Note_on_c, 0, 28, 92
1, 52389, Note_off_c, 0, 88, 65
1, 52391, Note_off_c, 0, 100, 65
1, 52392, Note_off_c, 0, 40, 67
1, 52395, Note_off_c, 0, 28, 67
1, 52429, Note_on_c, 0, 100, 91
1, 52431, Control_c, 0, 64, 116
1, 52434, Note_on_c, 0, 89, 82
1, 52440, Note_on_c, 0, 40, 96
1, 52440, Note_on_c, 0, 88, 92
1, 52443, Note_on_c, 0, 28, 88
1, 52446, Control_c, 0, 64, 92
1, 52453, Note_off_c, 0, 89, 73
1, 52456, Note_off_c, 0, 88, 73
1, 52461, Control_c, 0, 64, 69
1, 52462, Note_off_c, 0, 100, 68
1, 52467, Note_off_c, 0, 28, 68
1, 52475, Control_c, 0, 64, 0
1, 52485, Note_off_c, 0, 40, 65
1, 52733, Note_on_c, 0, 76, 73
1, 52755, Note_off_c, 0, 76, 70
1, 52935, Note_on_c, 0, 57, 44
1, 52964, Note_off_c, 0, 57, 60
1, 52985, Note_on_c, 0, 64, 43
1, 53035, Note_off_c, 0, 64, 49
1, 53037, Note_on_c, 0, 84, 63
1, 53038, Note_on_c, 0, 76, 65
1, 53043, Note_on_c, 0, 72, 48
1, 53055, Note_off_c, 0, 76, 68
1, 53064, Note_off_c, 0, 72, 61
1, 53064, Note_off_c, 0, 84, 68
1, 53224, Note_on_c, 0, 88, 58
1, 53227, Note_on_c, 0, 81, 56
1, 53253, Note_off_c, 0, 81, 61
1, 53267, Note_off_c, 0, 88, 60
1, 53409, Note_on_c, 0, 76, 47
1, 53410, Note_on_c, 0, 84, 50
1, 53411, Note_on_c, 0, 64, 56
1, 53424, Note_on_c, 0, 75, 51
1, 53430, Note_off_c, 0, 76, 55
1, 53430, Note_off_c, 0, 84, 61
1, 53444, Note_off_c, 0, 75, 60
1, 53451, Note_off_c, 0, 64, 63
1, 53574, Note_on_c, 0, 72, 63
1, 53594, Note_off_c, 0, 72, 67
1, 53722, Note_on_c, 0, 83, 62
1, 53724, Note_on_c, 0, 75, 65
1, 53739, Note_on_c, 0, 57, 54
1, 53742, Note_on_c, 0, 71, 46
1, 53751, Note_on_c, 0, 63, 36
1, 53754, Note_off_c, 0, 75, 66
1, 53764, Note_off_c, 0, 83, 52
1, 53766, Note_off_c, 0, 57, 55
1, 53766, Note_off_c, 0, 71, 55
1, 53781, Note_off_c, 0, 63, 56
1, 53871, Note_on_c, 0, 87, 57
1, 53875, Note_on_c, 0, 79, 60
1, 53898, Note_off_c, 0, 79, 62
1, 53912, Note_off_c, 0, 87, 58
1, 54000, Note_on_c, 0, 62, 57
1, 54004, Note_on_c, 0, 72, 50
1, 54005, Note_on_c, 0, 83, 62
1, 54012, Note_on_c, 0, 75, 55
1, 54024, Note_off_c, 0, 72, 62
1, 54032, Note_off_c, 0, 83, 66
1, 54033, Note_off_c, 0, 75, 63
1, 54034, Note_off_c, 0, 62, 62
1, 54120, Note_on_c, 0, 71, 67
1, 54133, Note_on_c, 0, 62, 51
1, 54148, Note_off_c, 0, 71, 66
1, 54161, Note_off_c, 0, 62, 63
1, 54250, Note_on_c, 0, 81, 71
1, 54252, Note_on_c, 0, 69, 77
1, 54255, Note_on_c, 0, 72, 61
1, 54264, Note_on_c, 0, 57, 56
1, 54285, Note_off_c, 0, 72, 67
1, 54286, Note_off_c, 0, 69, 60
1, 54289, Note_off_c, 0, 57, 59
1, 54294, Note_off_c, 0, 81, 60
1, 54375, Note_on_c, 0, 84, 58
1, 54380, Note_on_c, 0, 77, 54
1, 54401, Note_off_c, 0, 77, 60
1, 54413, Note_off_c, 0, 84, 60
1, 54488, Note_on_c, 0, 71, 61
1, 54490, Note_on_c, 0, 81, 61
1, 54494, Note_on_c, 0, 72, 57
1, 54504, Note_on_c, 0, 65, 42
1, 54511, Note_off_c, 0, 81, 64
1, 54514, Note_off_c, 0, 72, 64
1, 54519, Note_off_c, 0, 71, 64
1, 54532, Note_off_c, 0, 65, 55
1, 54601, Note_on_c, 0, 69, 66
1, 54628, Note_off_c, 0, 69, 70
1, 54725, Note_on_c, 0, 57, 62
1, 54735, Note_on_c, 0, 80, 71
1, 54737, Note_on_c, 0, 68, 64
1, 54751, Note_on_c, 0, 71, 60
1, 54765, Note_off_c, 0, 57, 62
1, 54772, Note_off_c, 0, 68, 67
1, 54780, Note_off_c, 0, 71, 65
1, 54799, Note_off_c, 0, 80, 62
1, 54875, Note_on_c, 0, 74, 57
1, 54878, Note_on_c, 0, 83, 52
1, 54894, Note_off_c, 0, 74, 66
1, 54907, Note_off_c, 0, 83, 51
1, 54991, Note_on_c, 0, 80, 69
1, 54996, Note_on_c, 0, 71, 56
1, 54998, Note_on_c, 0, 69, 54
1, 55015, Note_off_c, 0, 80, 69
1, 55018, Note_on_c, 0, 65, 36
1, 55018, Note_off_c, 0, 71, 63
1, 55027, Note_off_c, 0, 69, 58
1, 55112, Note_on_c, 0, 68, 61
1, 55127, Note_off_c, 0, 65, 30
1, 55140, Note_off_c, 0, 68, 66
1, 55234, Control_c, 0, 64, 55
1, 55244, Note_on_c, 0, 50, 61
1, 55248, Control_c, 0, 64, 68
1, 55263, Control_c, 0, 64, 74
1, 55269, Note_off_c, 0, 50, 64
1, 55278, Control_c, 0, 64, 79
1, 55281, Note_on_c, 0, 77, 66
1, 55285, Note_on_c, 0, 69, 62
1, 55293, Control_c, 0, 64, 83
1, 55308, Control_c, 0, 64, 85
1, 55318, Note_off_c, 0, 69, 66
1, 55322, Control_c, 0, 64, 87
1, 55335, Note_on_c, 0, 65, 59
1, 55337, Control_c, 0, 64, 89
1, 55343, Note_off_c, 0, 77, 54
1, 55352, Control_c, 0, 64, 91
1, 55367, Control_c, 0, 64, 93
1, 55376, Note_off_c, 0, 65, 63
1, 55382, Control_c, 0, 64, 94
1, 55397, Control_c, 0, 64, 95
1, 55409, Note_on_c, 0, 81, 65
1, 55421, Note_on_c, 0, 74, 53
1, 55427, Control_c, 0, 64, 96
1, 55453, Note_off_c, 0, 74, 67
1, 55456, Control_c, 0, 64, 96
1, 55471, Control_c, 0, 64, 97
1, 55482, Note_off_c, 0, 81, 56
1, 55537, Control_c, 0, 64, 97
1, 55541, Note_on_c, 0, 69, 62
1, 55543, Note_on_c, 0, 77, 62
1, 55548, Note_on_c, 0, 68, 70
1, 55575, Note_off_c, 0, 69, 67
1, 55587, Note_off_c, 0, 68, 63
1, 55588, Note_off_c, 0, 77, 56
1, 55611, Control_c, 0, 64, 98
1, 55641, Control_c, 0, 64, 98
1, 55654, Note_on_c, 0, 65, 77
1, 55681, Note_off_c, 0, 65, 68
1, 55730, Control_c, 0, 64, 97
1, 55745, Control_c, 0, 64, 87
1, 55760, Control_c, 0, 64, 70
1, 55775, Control_c, 0, 64, 0
1, 55795, Note_on_c, 0, 64, 73
1, 55795, Note_on_c, 0, 68, 78
1, 55806, Note_on_c, 0, 59, 57
1, 55815, Note_on_c, 0, 52, 57
1, 55820, Control_c, 0, 64, 67
1, 55832, Note_off_c, 0, 68, 65
1, 55835, Control_c, 0, 64, 79
1, 55850, Control_c, 0, 64, 91
1, 55865, Control_c, 0, 64, 98
1, 55879, Control_c, 0, 64, 103
1, 55894, Control_c, 0, 64, 106
1, 55909, Control_c, 0, 64, 111
1, 55924, Control_c, 0, 64, 115
1, 55939, Control_c, 0, 64, 119
1, 55950, Note_on_c, 0, 92, 81
1, 55951, Note_off_c, 0, 64, 54
1, 55953, Note_on_c, 0, 80, 76
1, 55953, Control_c, 0, 64, 122
1, 55968, Control_c, 0, 64, 124
1, 55976, Note_off_c, 0, 80, 68
1, 55977, Note_off_c, 0, 59, 58
1, 55981, Note_off_c, 0, 92, 60
1, 55983, Control_c, 0, 64, 126
1, 55998, Control_c, 0, 64, 127
1, 56005, Note_off_c, 0, 52, 63
1, 56077, Note_on_c, 0, 88, 83
1, 56078, Note_on_c, 0, 76, 81
1, 56114, Note_off_c, 0, 76, 61
1, 56118, Note_off_c, 0, 88, 62
1, 56185, Note_on_c, 0, 59, 87
1, 56194, Note_on_c, 0, 47, 78
1, 56218, Note_off_c, 0, 47, 68
1, 56222, Note_off_c, 0, 59, 65
1, 56311, Note_on_c, 0, 64, 95
1, 56318, Note_on_c, 0, 52, 90
1, 56425, Note_off_c, 0, 64, 60
1, 56425, Note_on_c, 0, 68, 87
1, 56428, Note_on_c, 0, 80, 75
1, 56437, Note_on_c, 0, 71, 58
1, 56458, Note_off_c, 0, 71, 63
1, 56470, Note_off_c, 0, 52, 63
1, 56474, Note_off_c, 0, 80, 66
1, 56476, Note_off_c, 0, 68, 64
1, 56550, Note_on_c, 0, 64, 84
1, 56566, Note_on_c, 0, 74, 68
1, 56568, Note_on_c, 0, 76, 65
1, 56583, Note_off_c, 0, 76, 69
1, 56590, Note_off_c, 0, 74, 70
1, 56595, Note_off_c, 0, 64, 64
1, 56661, Note_on_c, 0, 47, 95
1, 56672, Note_on_c, 0, 35, 85
1, 56698, Note_off_c, 0, 35, 65
1, 56700, Note_on_c, 0, 39, 31
1, 56702, Control_c, 0, 64, 121
1, 56704, Note_off_c, 0, 47, 66
1, 56717, Control_c, 0, 64, 103
1, 56732, Control_c, 0, 64, 83
1, 56740, Note_off_c, 0, 39, 44
1, 56747, Control_c, 0, 64, 45
1, 56762, Control_c, 0, 64, 0
1, 56779, Note_on_c, 0, 52, 104
1, 56786, Note_on_c, 0, 40, 90
1, 56791, Control_c, 0, 64, 61
1, 56806, Control_c, 0, 64, 76
1, 56820, Control_c, 0, 64, 88
1, 56835, Control_c, 0, 64, 96
1, 56850, Control_c, 0, 64, 98
1, 56865, Control_c, 0, 64, 99
1, 56880, Control_c, 0, 64, 101
1, 56885, Note_on_c, 0, 56, 92
1, 56887, Note_on_c, 0, 68, 87
1, 56894, Control_c, 0, 64, 103
1, 56905, Note_off_c, 0, 52, 62
1, 56909, Control_c, 0, 64, 105
1, 56924, Control_c, 0, 64, 105
1, 56930, Note_off_c, 0, 56, 65
1, 56930, Note_off_c, 0, 68, 66
1, 56939, Control_c, 0, 64, 106
1, 56942, Note_off_c, 0, 40, 62
1, 56968, Control_c, 0, 64, 106
1, 57006, Note_on_c, 0, 64, 91
1, 57007, Note_on_c, 0, 52, 94
1, 57047, Note_off_c, 0, 52, 65
1, 57051, Note_off_c, 0, 64, 66
1, 57065, Control_c, 0, 64, 107
1, 57120, Note_on_c, 0, 35, 93
1, 57131, Note_on_c, 0, 23, 87
1, 57152, Note_on_c, 0, 27, 47
1, 57167, Note_off_c, 0, 23, 64
1, 57170, Note_off_c, 0, 35, 64
1, 57183, Control_c, 0, 64, 104
1, 57191, Note_off_c, 0, 27, 48
1, 57198, Control_c, 0, 64, 89
1, 57213, Control_c, 0, 64, 66
1, 57227, Control_c, 0, 64, 0
1, 57256, Note_on_c, 0, 52, 100
1, 57256, Note_on_c, 0, 56, 89
1, 57256, Note_on_c, 0, 59, 79
1, 57260, Note_on_c, 0, 40, 97
1, 57260, Note_on_c, 0, 64, 84
1, 57267, Note_on_c, 0, 28, 77
1, 57272, Control_c, 0, 64, 36
1, 57287, Control_c, 0, 64, 71
1, 57289, Note_off_c, 0, 52, 67
1, 57295, Note_off_c, 0, 56, 62
1, 57297, Note_off_c, 0, 59, 63
1, 57302, Control_c, 0, 64, 80
1, 57307, Note_off_c, 0, 28, 63
1, 57308, Note_off_c, 0, 64, 63
1, 57316, Control_c, 0, 64, 88
1, 57322, Note_off_c, 0, 40, 63
1, 57331, Control_c, 0, 64, 89
1, 57346, Poly_aftertouch_c, 0, 29, 127
1, 57346, Control_c, 0, 64, 91
1, 57349, Note_on_c, 0, 29, 3
1, 57361, Control_c, 0, 64, 93
1, 57377, Control_c, 0, 64, 94
1, 57391, Control_c, 0, 64, 95
1, 57394, Note_off_c, 0, 29, 45
1, 57466, Control_c, 0, 64, 94
1, 57480, Control_c, 0, 64, 93
1, 57481, Note_on_c, 0, 37, 87
1, 57494, Note_on_c, 0, 25, 61
1, 57495, Control_c, 0, 64, 90
1, 57500, Note_on_c, 0, 52, 73
1, 57502, Note_on_c, 0, 55, 72
1, 57510, Control_c, 0, 64, 82
1, 57516, Note_off_c, 0, 37, 64
1, 57525, Control_c, 0, 64, 72
1, 57528, Note_off_c, 0, 52, 67
1, 57531, Note_off_c, 0, 25, 65
1, 57531, Note_off_c, 0, 55, 67
1, 57540, Control_c, 0, 64, 54
1, 57555, Control_c, 0, 64, 0
1, 57602, Note_on_c, 0, 58, 73
1, 57607, Note_on_c, 0, 40, 73
1, 57644, Note_off_c, 0, 58, 63
1, 57644, Note_off_c, 0, 40, 64
1, 57717, Control_c, 0, 64, 61
1, 57722, Note_on_c, 0, 38, 89
1, 57726, Note_on_c, 0, 35, 77
1, 57729, Note_on_c, 0, 32, 71
1, 57730, Note_on_c, 0, 56, 79
1, 57732, Control_c, 0, 64, 70
1, 57734, Note_on_c, 0, 52, 78
1, 57755, Control_c, 0, 64, 76
1, 57760, Note_on_c, 0, 26, 29
1, 57768, Note_off_c, 0, 52, 70
1, 57770, Control_c, 0, 64, 81
1, 57770, Note_off_c, 0, 35, 65
1, 57772, Note_on_c, 0, 28, 23
1, 57773, Note_off_c, 0, 32, 64
1, 57783, Note_off_c, 0, 38, 63
1, 57784, Control_c, 0, 64, 84
1, 57789, Note_off_c, 0, 56, 62
1, 57799, Control_c, 0, 64, 88
1, 57805, Note_off_c, 0, 26, 53
1, 57814, Control_c, 0, 64, 91
1, 57820, Note_off_c, 0, 28, 53
1, 57829, Control_c, 0, 64, 94
1, 57835, Note_on_c, 0, 59, 67
1, 57842, Note_on_c, 0, 64, 75
1, 57843, Control_c, 0, 64, 96
1, 57858, Control_c, 0, 64, 98
1, 57860, Note_off_c, 0, 59, 66
1, 57873, Control_c, 0, 64, 99
1, 57885, Note_off_c, 0, 64, 63
1, 57888, Control_c, 0, 64, 101
1, 57903, Control_c, 0, 64, 101
1, 57950, Note_on_c, 0, 49, 90
1, 57960, Poly_aftertouch_c, 0, 42, 127
1, 57962, Note_on_c, 0, 64, 81
1, 57962, Note_on_c, 0, 67, 82
1, 57962, Control_c, 0, 64, 101
1, 57975, Note_on_c, 0, 37, 44
1, 57975, Note_on_c, 0, 46, 54
1, 57976, Control_c, 0, 64, 99
1, 57983, Note_off_c, 0, 67, 69
1, 57986, Note_off_c, 0, 49, 61
1, 57989, Note_off_c, 0, 64, 67
1, 57991, Note_on_c, 0, 43, 29
1, 57991, Control_c, 0, 64, 91
1, 57993, Poly_aftertouch_c, 0, 42, 0
1, 58004, Note_off_c, 0, 46, 53
1, 58006, Control_c, 0, 64, 81
1, 58008, Note_off_c, 0, 37, 52
1, 58021, Control_c, 0, 64, 70
1, 58032, Note_off_c, 0, 43, 51
1, 58036, Control_c, 0, 64, 0
1, 58067, Note_on_c, 0, 70, 84
1, 58071, Note_on_c, 0, 52, 76
1, 58098, Note_off_c, 0, 52, 68
1, 58100, Note_off_c, 0, 70, 68
1, 58178, Note_on_c, 0, 50, 92
1, 58182, Note_on_c, 0, 47, 88
1, 58183, Note_on_c, 0, 68, 89
1, 58184, Note_on_c, 0, 44, 81
1, 58184, Note_on_c, 0, 64, 85
1, 58193, Note_on_c, 0, 38, 66
1, 58200, Control_c, 0, 64, 68
1, 58214, Control_c, 0, 64, 75
1, 58216, Note_off_c, 0, 64, 66
1, 58219, Note_off_c, 0, 38, 61
1, 58226, Note_off_c, 0, 47, 64
1, 58227, Note_off_c, 0, 50, 64
1, 58228, Note_off_c, 0, 68, 63
1, 58229, Control_c, 0, 64, 81
1, 58232, Note_off_c, 0, 44, 61
1, 58244, Control_c, 0, 64, 84
1, 58259, Control_c, 0, 64, 87
1, 58273, Control_c, 0, 64, 91
1, 58288, Control_c, 0, 64, 93
1, 58290, Note_on_c, 0, 71, 66
1, 58291, Note_on_c, 0, 76, 78
1, 58303, Control_c, 0, 64, 94
1, 58316, Note_off_c, 0, 71, 67
1, 58318, Control_c, 0, 64, 96
1, 58332, Note_off_c, 0, 76, 66
1, 58333, Control_c, 0, 64, 98
1, 58348, Control_c, 0, 64, 100
1, 58363, Control_c, 0, 64, 101
1, 58378, Control_c, 0, 64, 102
1, 58399, Note_on_c, 0, 61, 89
1, 58407, Control_c, 0, 64, 102
1, 58408, Note_on_c, 0, 58, 73
1, 58408, Note_on_c, 0, 76, 87
1, 58410, Note_on_c, 0, 79, 90
1, 58417, Note_on_c, 0, 49, 60
1, 58417, Note_on_c, 0, 55, 64
1, 58434, Note_off_c, 0, 58, 69
1, 58434, Note_off_c, 0, 79, 64
1, 58440, Note_off_c, 0, 61, 64
1, 58442, Note_off_c, 0, 55, 68
1, 58442, Note_off_c, 0, 76, 67
1, 58448, Note_off_c, 0, 49, 63
1, 58466, Control_c, 0, 64, 102
1, 58503, Control_c, 0, 64, 101
1, 58518, Control_c, 0, 64, 98
1, 58519, Note_on_c, 0, 82, 93
1, 58533, Note_on_c, 0, 64, 81
1, 58533, Control_c, 0, 64, 91
1, 58548, Control_c, 0, 64, 77
1, 58557, Note_off_c, 0, 82, 64
1, 58562, Control_c, 0, 64, 0
1, 58565, Note_off_c, 0, 64, 65
1, 58630, Note_on_c, 0, 62, 97
1, 58634, Note_on_c, 0, 76, 88
1, 58634, Note_on_c, 0, 80, 90
1, 58635, Note_on_c, 0, 56, 81
1, 58637, Control_c, 0, 64, 63
1, 58639, Note_on_c, 0, 59, 81
1, 58640, Note_on_c, 0, 50, 83
1, 58652, Control_c, 0, 64, 74
1, 58666, Note_off_c, 0, 76, 68
1, 58666, Control_c, 0, 64, 86
1, 58679, Note_off_c, 0, 80, 62
1, 58681, Control_c, 0, 64, 93
1, 58682, Note_off_c, 0, 59, 56
1, 58689, Note_off_c, 0, 62, 57
1, 58691, Note_off_c, 0, 50, 61
1, 58696, Control_c, 0, 64, 96
1, 58704, Note_off_c, 0, 56, 63
1, 58711, Control_c, 0, 64, 98
1, 58726, Control_c, 0, 64, 100
1, 58738, Note_on_c, 0, 88, 86
1, 58740, Control_c, 0, 64, 102
1, 58755, Control_c, 0, 64, 104
1, 58770, Control_c, 0, 64, 106
1, 58779, Note_off_c, 0, 88, 64
1, 58785, Control_c, 0, 64, 107
1, 58799, Control_c, 0, 64, 108
1, 58814, Control_c, 0, 64, 108
1, 58829, Control_c, 0, 64, 109
1, 58844, Control_c, 0, 64, 111
1, 58855, Note_on_c, 0, 67, 97
1, 58858, Note_on_c, 0, 92, 94
1, 58858, Note_on_c, 0, 80, 99
1, 58859, Control_c, 0, 64, 112
1, 58864, Note_on_c, 0, 55, 87
1, 58873, Note_off_c, 0, 80, 74
1, 58873, Control_c, 0, 64, 113
1, 58883, Note_on_c, 0, 90, 52
1, 58887, Note_off_c, 0, 55, 71
1, 58888, Control_c, 0, 64, 114
1, 58892, Note_off_c, 0, 67, 64
1, 58893, Note_off_c, 0, 92, 68
1, 58903, Control_c, 0, 64, 114
1, 58905, Note_off_c, 0, 90, 60
1, 58969, Note_on_c, 0, 83, 88
1, 58969, Note_on_c, 0, 95, 96
1, 58994, Control_c, 0, 64, 115
1, 59000, Note_off_c, 0, 83, 60
1, 59009, Note_off_c, 0, 95, 66
1, 59083, Control_c, 0, 64, 106
1, 59097, Control_c, 0, 64, 86
1, 59112, Control_c, 0, 64, 61
1, 59127, Control_c, 0, 64, 0
1, 59129, Note_on_c, 0, 62, 72
1, 59130, Note_on_c, 0, 68, 101
1, 59132, Note_on_c, 0, 88, 92
1, 59132, Note_on_c, 0, 100, 100
1, 59133, Note_on_c, 0, 64, 88
1, 59134, Note_on_c, 0, 92, 101
1, 59135, Note_on_c, 0, 56, 73
1, 59142, Control_c, 0, 64, 28
1, 59157, Control_c, 0, 64, 70
1, 59162, Note_off_c, 0, 88, 65
1, 59163, Note_off_c, 0, 100, 66
1, 59167, Note_off_c, 0, 92, 64
1, 59171, Control_c, 0, 64, 84
1, 59177, Note_off_c, 0, 68, 66
1, 59186, Control_c, 0, 64, 99
1, 59196, Note_off_c, 0, 64, 63
1, 59201, Control_c, 0, 64, 110
1, 59215, Control_c, 0, 64, 112
1, 59218, Note_off_c, 0, 62, 62
1, 59219, Note_off_c, 0, 56, 64
1, 59230, Control_c, 0, 64, 113
1, 59248, Poly_aftertouch_c, 0, 58, 0
1, 59253, Control_c, 0, 64, 114
1, 59268, Control_c, 0, 64, 115
1, 59283, Control_c, 0, 64, 116
1, 59297, Control_c, 0, 64, 117
1, 59327, Control_c, 0, 64, 118
1, 59436, Note_on_c, 0, 76, 75
1, 59474, Note_on_c, 0, 78, 78
1, 59507, Note_off_c, 0, 76, 64
1, 59510, Note_on_c, 0, 80, 76
1, 59519, Control_c, 0, 64, 115
1, 59534, Control_c, 0, 64, 103
1, 59537, Note_off_c, 0, 78, 64
1, 59549, Control_c, 0, 64, 83
1, 59550, Note_off_c, 0, 80, 66
1, 59564, Control_c, 0, 64, 48
1, 59579, Control_c, 0, 64, 0
1, 59605, Note_on_c, 0, 57, 92
1, 59608, Note_on_c, 0, 52, 78
1, 59608, Note_on_c, 0, 69, 88
1, 59608, Note_on_c, 0, 81, 89
1, 59610, Note_on_c, 0, 72, 79
1, 59612, Note_on_c, 0, 48, 75
1, 59613, Note_on_c, 0, 76, 81
1, 59616, Note_on_c, 0, 45, 66
1, 59623, Control_c, 0, 64, 69
1, 59626, Note_off_c, 0, 57, 69
1, 59631, Note_off_c, 0, 72, 69
1, 59632, Note_off_c, 0, 52, 71
1, 59635, Note_off_c, 0, 69, 66
1, 59638, Control_c, 0, 64, 83
1, 59648, Note_off_c, 0, 76, 65
1, 59650, Note_off_c, 0, 48, 67
1, 59653, Control_c, 0, 64, 94
1, 59655, Note_off_c, 0, 45, 66
1, 59656, Note_off_c, 0, 81, 62
1, 59667, Control_c, 0, 64, 97
1, 59682, Control_c, 0, 64, 98
1, 59696, Control_c, 0, 64, 98
1, 59711, Control_c, 0, 64, 99
1, 59726, Control_c, 0, 64, 100
1, 59740, Control_c, 0, 64, 102
1, 59745, Note_on_c, 0, 45, 94
1, 59757, Control_c, 0, 64, 104
1, 59758, Note_on_c, 0, 33, 81
1, 59772, Control_c, 0, 64, 105
1, 59782, Note_off_c, 0, 33, 66
1, 59786, Control_c, 0, 64, 106
1, 59787, Note_off_c, 0, 45, 65
1, 59801, Control_c, 0, 64, 107
1, 59805, Note_on_c, 0, 77, 35
1, 59816, Control_c, 0, 64, 108
1, 59845, Control_c, 0, 64, 108
1, 59847, Note_off_c, 0, 77, 0
1, 59847, Note_on_c, 0, 77, 23
1, 59849, Note_on_c, 0, 68, 97
1, 59853, Note_on_c, 0, 80, 85
1, 59866, Note_on_c, 0, 74, 64
1, 59889, Note_off_c, 0, 68, 61
1, 59891, Note_off_c, 0, 74, 70
1, 59893, Note_off_c, 0, 77, 63
1, 59902, Note_off_c, 0, 80, 66
1, 59905, Control_c, 0, 64, 108
1, 59919, Control_c, 0, 64, 106
1, 59934, Control_c, 0, 64, 99
1, 59949, Control_c, 0, 64, 85
1, 59959, Note_on_c, 0, 83, 89
1, 59963, Note_on_c, 0, 71, 82
1, 59964, Control_c, 0, 64, 66
1, 59979, Control_c, 0, 64, 0
1, 59999, Note_off_c, 0, 71, 62
1, 60006, Note_off_c, 0, 83, 59
1, 60068, Note_on_c, 0, 57, 94
1, 60072, Note_on_c, 0, 52, 76
1, 60075, Note_on_c, 0, 69, 92
1, 60075, Control_c, 0, 64, 21
1, 60077, Note_on_c, 0, 48, 68
1, 60077, Note_on_c, 0, 81, 88
1, 60077, Note_on_c, 0, 72, 85
1, 60079, Note_on_c, 0, 45, 74
1, 60079, Note_on_c, 0, 76, 83
1, 60087, Note_off_c, 0, 57, 71
1, 60090, Control_c, 0, 64, 74
1, 60097, Note_off_c, 0, 52, 68
1, 60101, Note_off_c, 0, 69, 63
1, 60102, Note_off_c, 0, 72, 64
1, 60105, Control_c, 0, 64, 83
1, 60113, Note_off_c, 0, 48, 67
1, 60115, Note_off_c, 0, 45, 67
1, 60119, Control_c, 0, 64, 89
1, 60122, Note_off_c, 0, 76, 63
1, 60124, Note_off_c, 0, 81, 60
1, 60134, Control_c, 0, 64, 93
1, 60149, Control_c, 0, 64, 97
1, 60163, Control_c, 0, 64, 100
1, 60178, Control_c, 0, 64, 103
1, 60193, Control_c, 0, 64, 105
1, 60200, Note_on_c, 0, 45, 89
1, 60201, Note_on_c, 0, 43, 84
1, 60205, Note_on_c, 0, 33, 82
1, 60208, Control_c, 0, 64, 106
1, 60223, Note_off_c, 0, 45, 71
1, 60223, Control_c, 0, 64, 107
1, 60228, Note_off_c, 0, 33, 67
1, 60229, Note_off_c, 0, 43, 63
1, 60238, Control_c, 0, 64, 108
1, 60247, Note_on_c, 0, 77, 43
1, 60253, Control_c, 0, 64, 109
1, 60268, Control_c, 0, 64, 109
1, 60278, Note_off_c, 0, 77, 49
1, 60282, Control_c, 0, 64, 111
1, 60297, Control_c, 0, 64, 114
1, 60298, Note_on_c, 0, 80, 92
1, 60299, Note_on_c, 0, 68, 88
1, 60312, Control_c, 0, 64, 116
1, 60327, Control_c, 0, 64, 117
1, 60338, Note_off_c, 0, 68, 64
1, 60342, Control_c, 0, 64, 117
1, 60345, Note_off_c, 0, 80, 67
1, 60371, Control_c, 0, 64, 118
1, 60386, Control_c, 0, 64, 118
1, 60401, Note_on_c, 0, 71, 90
1, 60401, Control_c, 0, 64, 119
1, 60402, Note_on_c, 0, 83, 92
1, 60415, Control_c, 0, 64, 119
1, 60438, Note_off_c, 0, 71, 63
1, 60443, Note_off_c, 0, 83, 61
1, 60444, Control_c, 0, 64, 119
1, 60459, Control_c, 0, 64, 117
1, 60474, Control_c, 0, 64, 104
1, 60489, Control_c, 0, 64, 86
1, 60499, Note_on_c, 0, 57, 63
1, 60504, Control_c, 0, 64, 65
1, 60505, Note_on_c, 0, 60, 94
1, 60510, Note_on_c, 0, 69, 99
1, 60511, Note_on_c, 0, 81, 94
1, 60512, Note_on_c, 0, 48, 75
1, 60513, Note_on_c, 0, 53, 70
1, 60513, Note_on_c, 0, 77, 87
1, 60514, Note_on_c, 0, 74, 87
1, 60518, Control_c, 0, 64, 0
1, 60524, Note_off_c, 0, 60, 70
1, 60531, Note_off_c, 0, 57, 64
1, 60534, Note_off_c, 0, 74, 68
1, 60536, Note_off_c, 0, 69, 69
1, 60548, Note_off_c, 0, 77, 59
1, 60548, Note_off_c, 0, 81, 63
1, 60551, Note_off_c, 0, 53, 69
1, 60557, Note_off_c, 0, 48, 68
1, 60772, Note_on_c, 0, 38, 90
1, 60772, Note_on_c, 0, 68, 97
1, 60773, Note_on_c, 0, 77, 74
1, 60776, Note_on_c, 0, 32, 89
1, 60777, Note_on_c, 0, 74, 80
1, 60777, Note_on_c, 0, 80, 89
1, 60786, Note_on_c, 0, 26, 73
1, 60793, Note_off_c, 0, 68, 67
1, 60797, Note_off_c, 0, 74, 70
1, 60802, Note_off_c, 0, 32, 67
1, 60804, Note_off_c, 0, 38, 63
1, 60813, Note_off_c, 0, 26, 65
1, 60813, Note_off_c, 0, 77, 63
1, 60825, Note_off_c, 0, 80, 66
1, 61001, Control_c, 0, 64, 54
1, 61016, Control_c, 0, 64, 69
1, 61028, Note_on_c, 0, 76, 70
1, 61031, Control_c, 0, 64, 73
1, 61031, Note_on_c, 0, 52, 90
1, 61031, Note_on_c, 0, 57, 94
1, 61032, Note_on_c, 0, 69, 94
1, 61035, Note_on_c, 0, 72, 85
1, 61035, Note_on_c, 0, 81, 91
1, 61043, Note_on_c, 0, 45, 74
1, 61046, Control_c, 0, 64, 78
1, 61047, Note_on_c, 0, 48, 71
1, 61060, Control_c, 0, 64, 84
1, 61070, Note_off_c, 0, 52, 65
1, 61070, Note_off_c, 0, 57, 60
1, 61075, Control_c, 0, 64, 91
1, 61090, Control_c, 0, 64, 97
1, 61092, Note_off_c, 0, 48, 62
1, 61105, Note_off_c, 0, 45, 63
1, 61105, Control_c, 0, 64, 100
1, 61120, Control_c, 0, 64, 103
1, 61134, Control_c, 0, 64, 104
1, 61149, Control_c, 0, 64, 105
1, 61164, Control_c, 0, 64, 106
1, 61179, Control_c, 0, 64, 107
1, 61193, Control_c, 0, 64, 107
1, 61208, Control_c, 0, 64, 108
1, 61223, Control_c, 0, 64, 109
1, 61229, Note_off_c, 0, 69, 60
1, 61238, Control_c, 0, 64, 110
1, 61244, Note_off_c, 0, 72, 60
1, 61269, Note_on_c, 0, 45, 88
1, 61276, Note_off_c, 0, 76, 64
1, 61282, Note_on_c, 0, 33, 77
1, 61293, Note_off_c, 0, 81, 60
1, 61296, Note_off_c, 0, 45, 69
1, 61308, Note_off_c, 0, 33, 66
1, 61337, Note_on_c, 0, 38, 3
1, 61355, Note_off_c, 0, 38, 0
1, 61362, Note_on_c, 0, 44, 92
1, 61372, Control_c, 0, 64, 110
1, 61373, Note_on_c, 0, 32, 82
1, 61378, Poly_aftertouch_c, 0, 38, 0
1, 61383, Note_on_c, 0, 39, 59
1, 61393, Note_off_c, 0, 44, 66
1, 61403, Note_off_c, 0, 32, 64
1, 61409, Note_off_c, 0, 39, 59
1, 61416, Control_c, 0, 64, 111
1, 61431, Control_c, 0, 64, 111
1, 61446, Control_c, 0, 64, 112
1, 61449, Poly_aftertouch_c, 0, 37, 127
1, 61451, Note_on_c, 0, 43, 88
1, 61466, Note_on_c, 0, 31, 79
1, 61478, Poly_aftertouch_c, 0, 37, 0
1, 61505, Note_off_c, 0, 31, 62
1, 61505, Note_off_c, 0, 43, 61
1, 61513, Control_c, 0, 64, 110
1, 61528, Control_c, 0, 64, 91
1, 61543, Control_c, 0, 64, 65
1, 61558, Control_c, 0, 64, 0
1, 61564, Note_on_c, 0, 41, 102
1, 61568, Note_on_c, 0, 89, 86
1, 61569, Note_on_c, 0, 93, 93
1, 61570, Note_on_c, 0, 81, 97
1, 61571, Note_on_c, 0, 29, 88
1, 61609, Note_off_c, 0, 29, 63
1, 61618, Note_off_c, 0, 81, 62
1, 61629, Note_off_c, 0, 41, 66
1, 61629, Note_off_c, 0, 89, 66
1, 61631, Control_c, 0, 64, 69
1, 61644, Note_off_c, 0, 93, 62
1, 61646, Control_c, 0, 64, 76
1, 61661, Control_c, 0, 64, 81
1, 61676, Control_c, 0, 64, 85
1, 61690, Control_c, 0, 64, 88
1, 61705, Control_c, 0, 64, 92
1, 61720, Control_c, 0, 64, 96
1, 61726, Note_on_c, 0, 83, 89
1, 61728, Note_on_c, 0, 95, 91
1, 61731, Note_on_c, 0, 92, 87
1, 61735, Control_c, 0, 64, 99
1, 61750, Control_c, 0, 64, 101
1, 61764, Control_c, 0, 64, 103
1, 61770, Note_off_c, 0, 83, 60
1, 61779, Control_c, 0, 64, 104
1, 61787, Note_off_c, 0, 95, 64
1, 61794, Control_c, 0, 64, 105
1, 61800, Note_off_c, 0, 92, 59
1, 61809, Control_c, 0, 64, 106
1, 61824, Control_c, 0, 64, 106
1, 61839, Control_c, 0, 64, 107
1, 61864, Note_on_c, 0, 65, 68
1, 61866, Note_on_c, 0, 57, 72
1, 61868, Note_on_c, 0, 69, 82
1, 61868, Control_c, 0, 64, 108
1, 61874, Note_on_c, 0, 96, 92
1, 61876, Note_on_c, 0, 84, 93
1, 61877, Note_on_c, 0, 93, 87
1, 61883, Control_c, 0, 64, 108
1, 61898, Control_c, 0, 64, 109
1, 61902, Note_off_c, 0, 69, 62
1, 61907, Note_off_c, 0, 65, 65
1, 61918, Note_off_c, 0, 57, 62
1, 61958, Control_c, 0, 64, 109
1, 61993, Note_on_c, 0, 71, 83
1, 61996, Note_on_c, 0, 68, 86
1, 61997, Note_on_c, 0, 59, 72
1, 62016, Control_c, 0, 64, 111
1, 62031, Control_c, 0, 64, 114
1, 62042, Note_off_c, 0, 71, 62
1, 62046, Control_c, 0, 64, 116
1, 62051, Note_off_c, 0, 59, 63
1, 62052, Note_off_c, 0, 68, 62
1, 62061, Control_c, 0, 64, 117
1, 62100, Note_off_c, 0, 96, 58
1, 62105, Control_c, 0, 64, 112
1, 62107, Note_off_c, 0, 93, 59
1, 62118, Note_off_c, 0, 84, 59
1, 62119, Note_on_c, 0, 72, 91
1, 62120, Note_on_c, 0, 69, 92
1, 62120, Control_c, 0, 64, 95
1, 62122, Note_on_c, 0, 60, 71
1, 62134, Control_c, 0, 64, 72
1, 62149, Control_c, 0, 64, 0
1, 62195, Control_c, 0, 64, 67
1, 62210, Control_c, 0, 64, 78
1, 62225, Control_c, 0, 64, 89
1, 62244, Note_on_c, 0, 83, 86
1, 62244, Note_on_c, 0, 92, 88
1, 62244, Note_on_c, 0, 95, 89
1, 62247, Control_c, 0, 64, 98
1, 62262, Control_c, 0, 64, 101
1, 62277, Control_c, 0, 64, 103
1, 62292, Note_off_c, 0, 83, 60
1, 62292, Control_c, 0, 64, 107
1, 62295, Note_off_c, 0, 95, 66
1, 62303, Note_off_c, 0, 92, 65
1, 62305, Note_off_c, 0, 72, 59
1, 62306, Note_off_c, 0, 69, 63
1, 62307, Control_c, 0, 64, 110
1, 62312, Note_off_c, 0, 60, 61
1, 62321, Control_c, 0, 64, 112
1, 62336, Control_c, 0, 64, 114
1, 62351, Control_c, 0, 64, 115
1, 62363, Note_on_c, 0, 81, 92
1, 62363, Note_on_c, 0, 93, 92
1, 62364, Note_on_c, 0, 89, 85
1, 62381, Control_c, 0, 64, 116
1, 62410, Control_c, 0, 64, 116
1, 62425, Control_c, 0, 64, 117
1, 62454, Control_c, 0, 64, 117
1, 62464, Note_on_c, 0, 68, 80
1, 62467, Note_on_c, 0, 59, 64
1, 62467, Note_on_c, 0, 71, 80
1, 62469, Control_c, 0, 64, 118
1, 62482, Note_off_c, 0, 93, 60
1, 62484, Control_c, 0, 64, 121
1, 62499, Control_c, 0, 64, 123
1, 62509, Note_off_c, 0, 71, 60
1, 62512, Note_off_c, 0, 68, 65
1, 62513, Control_c, 0, 64, 124
1, 62521, Note_off_c, 0, 59, 64
1, 62527, Note_off_c, 0, 81, 55
1, 62533, Note_off_c, 0, 89, 61
1, 62543, Control_c, 0, 64, 123
1, 62557, Control_c, 0, 64, 112
1, 62572, Control_c, 0, 64, 91
1, 62584, Note_on_c, 0, 69, 94
1, 62586, Note_on_c, 0, 65, 87
1, 62587, Control_c, 0, 64, 66
1, 62595, Note_on_c, 0, 57, 73
1, 62602, Control_c, 0, 64, 0
1, 62617, Control_c, 0, 64, 48
1, 62631, Control_c, 0, 64, 71
1, 62646, Control_c, 0, 64, 85
1, 62661, Control_c, 0, 64, 103
1, 62676, Control_c, 0, 64, 117
1, 62687, Note_on_c, 0, 80, 89
1, 62691, Control_c, 0, 64, 119
1, 62695, Note_on_c, 0, 92, 76
1, 62697, Note_on_c, 0, 89, 71
1, 62706, Control_c, 0, 64, 124
1, 62721, Control_c, 0, 64, 127
1, 62724, Note_on_c, 0, 90, 39
1, 62730, Note_off_c, 0, 57, 60
1, 62736, Note_off_c, 0, 69, 61
1, 62737, Note_off_c, 0, 80, 63
1, 62740, Note_off_c, 0, 89, 62
1, 62742, Note_off_c, 0, 92, 66
1, 62748, Note_off_c, 0, 65, 59
1, 62753, Note_off_c, 0, 90, 50
1, 62805, Note_on_c, 0, 89, 88
1, 62808, Note_on_c, 0, 77, 91
1, 62810, Note_on_c, 0, 86, 89
1, 62910, Note_on_c, 0, 68, 84
1, 62915, Note_on_c, 0, 65, 69
1, 62921, Note_on_c, 0, 56, 65
1, 62941, Note_off_c, 0, 65, 70
1, 62946, Note_off_c, 0, 68, 61
1, 62963, Note_off_c, 0, 56, 64
1, 63010, Control_c, 0, 64, 101
1, 63025, Control_c, 0, 64, 79
1, 63034, Note_off_c, 0, 86, 61
1, 63037, Note_off_c, 0, 89, 62
1, 63040, Control_c, 0, 64, 57
1, 63042, Note_on_c, 0, 65, 92
1, 63044, Note_on_c, 0, 62, 83
1, 63049, Note_on_c, 0, 53, 76
1, 63051, Note_off_c, 0, 77, 57
1, 63055, Control_c, 0, 64, 0
1, 63070, Control_c, 0, 64, 65
1, 63085, Control_c, 0, 64, 77
1, 63099, Control_c, 0, 64, 90
1, 63114, Control_c, 0, 64, 101
1, 63118, Note_off_c, 0, 53, 64
1, 63129, Note_off_c, 0, 65, 63
1, 63129, Control_c, 0, 64, 104
1, 63131, Note_off_c, 0, 62, 59
1, 63139, Note_on_c, 0, 88, 73
1, 63144, Control_c, 0, 64, 106
1, 63145, Note_on_c, 0, 76, 71
1, 63146, Note_on_c, 0, 85, 73
1, 63159, Control_c, 0, 64, 109
1, 63174, Control_c, 0, 64, 110
1, 63177, Note_off_c, 0, 76, 63
1, 63185, Note_off_c, 0, 88, 60
1, 63188, Control_c, 0, 64, 111
1, 63198, Note_off_c, 0, 85, 63
1, 63218, Control_c, 0, 64, 112
1, 63248, Control_c, 0, 64, 112
1, 63253, Note_on_c, 0, 67, 75
1, 63254, Note_on_c, 0, 55, 70
1, 63255, Note_on_c, 0, 86, 83
1, 63260, Note_on_c, 0, 74, 78
1, 63269, Note_on_c, 0, 82, 75
1, 63285, Note_off_c, 0, 74, 68
1, 63287, Note_off_c, 0, 86, 61
1, 63292, Note_off_c, 0, 67, 58
1, 63297, Note_off_c, 0, 55, 58
1, 63307, Control_c, 0, 64, 113
1, 63320, Note_off_c, 0, 82, 64
1, 63322, Control_c, 0, 64, 114
1, 63336, Control_c, 0, 64, 116
1, 63351, Control_c, 0, 64, 119
1, 63365, Note_on_c, 0, 73, 88
1, 63366, Control_c, 0, 64, 121
1, 63368, Note_on_c, 0, 57, 63
1, 63368, Note_on_c, 0, 69, 80
1, 63368, Note_on_c, 0, 85, 85
1, 63380, Control_c, 0, 64, 121
1, 63401, Note_off_c, 0, 73, 59
1, 63407, Note_off_c, 0, 57, 63
1, 63410, Control_c, 0, 64, 120
1, 63415, Note_off_c, 0, 69, 65
1, 63421, Note_off_c, 0, 85, 62
1, 63424, Note_on_c, 0, 65, 7
1, 63425, Control_c, 0, 64, 108
1, 63440, Control_c, 0, 64, 81
1, 63454, Control_c, 0, 64, 0
1, 63457, Note_off_c, 0, 65, 42
1, 63490, Note_on_c, 0, 70, 88
1, 63493, Note_on_c, 0, 74, 87
1, 63494, Note_on_c, 0, 77, 79
1, 63497, Note_on_c, 0, 58, 76
1, 63497, Note_on_c, 0, 62, 46
1, 63499, Note_on_c, 0, 86, 79
1, 63507, Note_off_c, 0, 70, 73
1, 63514, Control_c, 0, 64, 65
1, 63517, Note_off_c, 0, 77, 65
1, 63523, Note_off_c, 0, 58, 69
1, 63524, Note_off_c, 0, 62, 57
1, 63525, Note_on_c, 0, 81, 56
1, 63529, Control_c, 0, 64, 78
1, 63530, Note_off_c, 0, 74, 61
1, 63538, Note_on_c, 0, 84, 29
1, 63539, Note_off_c, 0, 84, 127
1, 63544, Control_c, 0, 64, 87
1, 63548, Note_off_c, 0, 81, 55
1, 63554, Note_off_c, 0, 86, 60
1, 63558, Control_c, 0, 64, 92
1, 63573, Control_c, 0, 64, 94
1, 63588, Control_c, 0, 64, 96
1, 63603, Control_c, 0, 64, 99
1, 63618, Control_c, 0, 64, 103
1, 63629, Note_on_c, 0, 46, 93
1, 63631, Note_on_c, 0, 34, 80
1, 63633, Control_c, 0, 64, 110
1, 63648, Control_c, 0, 64, 115
1, 63650, Note_off_c, 0, 46, 67
1, 63654, Note_off_c, 0, 34, 68
1, 63662, Control_c, 0, 64, 117
1, 63677, Control_c, 0, 64, 118
1, 63692, Control_c, 0, 64, 118
1, 63746, Note_on_c, 0, 82, 70
1, 63747, Note_on_c, 0, 73, 83
1, 63751, Note_on_c, 0, 85, 83
1, 63758, Control_c, 0, 64, 118
1, 63763, Note_on_c, 0, 79, 68
1, 63766, Note_on_c, 0, 67, 89
1, 63771, Note_off_c, 0, 73, 65
1, 63774, Control_c, 0, 64, 114
1, 63778, Note_on_c, 0, 55, 61
1, 63789, Note_off_c, 0, 79, 67
1, 63789, Control_c, 0, 64, 106
1, 63792, Note_on_c, 0, 58, 51
1, 63794, Note_on_c, 0, 62, 41
1, 63795, Note_off_c, 0, 82, 64
1, 63798, Note_off_c, 0, 85, 63
1, 63804, Control_c, 0, 64, 95
1, 63812, Note_off_c, 0, 58, 65
1, 63812, Note_off_c, 0, 67, 52
1, 63818, Control_c, 0, 64, 80
1, 63824, Note_off_c, 0, 55, 64
1, 63826, Note_off_c, 0, 62, 46
1, 63833, Control_c, 0, 64, 56
1, 63848, Control_c, 0, 64, 0
1, 63858, Note_on_c, 0, 88, 89
1, 63861, Note_on_c, 0, 76, 87
1, 63898, Note_off_c, 0, 76, 69
1, 63907, Note_off_c, 0, 88, 64
1, 63970, Note_on_c, 0, 65, 82
1, 63979, Note_on_c, 0, 86, 88
1, 63980, Note_on_c, 0, 59, 68
1, 63980, Note_on_c, 0, 74, 82
1, 63982, Control_c, 0, 64, 50
1, 63982, Note_on_c, 0, 77, 82
1, 63988, Note_on_c, 0, 53, 71
1, 63990, Note_off_c, 0, 65, 72
1, 63997, Control_c, 0, 64, 70
1, 64003, Note_off_c, 0, 59, 67
1, 64006, Note_off_c, 0, 77, 64
1, 64010, Note_off_c, 0, 53, 69
1, 64011, Control_c, 0, 64, 77
1, 64026, Control_c, 0, 64, 81
1, 64035, Note_off_c, 0, 74, 56
1, 64037, Note_off_c, 0, 86, 59
1, 64041, Control_c, 0, 64, 85
1, 64056, Control_c, 0, 64, 89
1, 64071, Control_c, 0, 64, 92
1, 64085, Control_c, 0, 64, 97
1, 64097, Note_on_c, 0, 44, 90
1, 64100, Control_c, 0, 64, 102
1, 64114, Note_on_c, 0, 32, 64
1, 64115, Control_c, 0, 64, 107
1, 64122, Note_off_c, 0, 44, 70
1, 64130, Control_c, 0, 64, 110
1, 64142, Note_off_c, 0, 32, 58
1, 64145, Control_c, 0, 64, 110
1, 64174, Control_c, 0, 64, 111
1, 64189, Control_c, 0, 64, 112
1, 64203, Control_c, 0, 64, 112
1, 64211, Note_on_c, 0, 73, 91
1, 64214, Note_on_c, 0, 85, 85
1, 64218, Control_c, 0, 64, 113
1, 64236, Note_on_c, 0, 64, 93
1, 64244, Note_off_c, 0, 73, 59
1, 64246, Note_on_c, 0, 58, 70
1, 64248, Control_c, 0, 64, 114
1, 64254, Note_off_c, 0, 85, 66
1, 64256, Note_on_c, 0, 52, 65
1, 64263, Control_c, 0, 64, 116
1, 64267, Note_on_c, 0, 55, 58
1, 64274, Note_off_c, 0, 58, 65
1, 64277, Control_c, 0, 64, 118
1, 64292, Control_c, 0, 64, 118
1, 64295, Note_off_c, 0, 55, 66
1, 64300, Note_off_c, 0, 52, 62
1, 64301, Note_off_c, 0, 64, 55
1, 64307, Control_c, 0, 64, 119
1, 64311, Note_on_c, 0, 88, 95
1, 64313, Note_on_c, 0, 76, 92
1, 64354, Note_off_c, 0, 76, 67
1, 64356, Note_off_c, 0, 88, 65
1, 64381, Control_c, 0, 64, 117
1, 64396, Control_c, 0, 64, 102
1, 64411, Control_c, 0, 64, 83
1, 64420, Note_on_c, 0, 67, 99
1, 64426, Control_c, 0, 64, 62
1, 64426, Note_on_c, 0, 62, 83
1, 64426, Note_on_c, 0, 74, 95
1, 64426, Note_on_c, 0, 86, 93
1, 64429, Note_on_c, 0, 79, 86
1, 64429, Note_on_c, 0, 55, 79
1, 64433, Note_on_c, 0, 82, 81
1, 64438, Note_on_c, 0, 58, 69
1, 64441, Control_c, 0, 64, 0
1, 64444, Note_off_c, 0, 67, 67
1, 64447, Note_off_c, 0, 62, 73
1, 64457, Note_off_c, 0, 79, 62
1, 64459, Note_off_c, 0, 74, 64
1, 64464, Note_off_c, 0, 58, 69
1, 64471, Note_off_c, 0, 86, 64
1, 64473, Note_off_c, 0, 55, 66
1, 64484, Note_off_c, 0, 82, 59
1, 64681, Note_on_c, 0, 43, 94
1, 64687, Note_on_c, 0, 82, 81
1, 64688, Note_on_c, 0, 34, 81
1, 64688, Note_on_c, 0, 73, 96
1, 64689, Note_on_c, 0, 31, 70
1, 64691, Note_on_c, 0, 85, 92
1, 64693, Note_on_c, 0, 79, 84
1, 64707, Note_off_c, 0, 73, 69
1, 64715, Note_off_c, 0, 34, 65
1, 64715, Note_off_c, 0, 79, 66
1, 64718, Note_off_c, 0, 43, 61
1, 64720, Note_off_c, 0, 31, 64
1, 64728, Note_off_c, 0, 82, 64
1, 64741, Note_off_c, 0, 85, 67
1, 64948, Note_on_c, 0, 65, 96
1, 64951, Note_on_c, 0, 81, 93
1, 64951, Note_on_c, 0, 74, 93
1, 64952, Note_on_c, 0, 62, 79
1, 64952, Control_c, 0, 64, 70
1, 64954, Note_on_c, 0, 77, 90
1, 64954, Note_on_c, 0, 86, 97
1, 64958, Note_on_c, 0, 57, 63
1, 64961, Note_on_c, 0, 53, 79
1, 64967, Control_c, 0, 64, 79
1, 64973, Note_off_c, 0, 65, 70
1, 64977, Note_off_c, 0, 62, 66
1, 64982, Control_c, 0, 64, 83
1, 64997, Control_c, 0, 64, 85
1, 65003, Note_off_c, 0, 53, 68
1, 65003, Note_off_c, 0, 57, 63
1, 65012, Control_c, 0, 64, 90
1, 65026, Control_c, 0, 64, 97
1, 65041, Control_c, 0, 64, 103
1, 65056, Control_c, 0, 64, 106
1, 65071, Control_c, 0, 64, 107
1, 65086, Control_c, 0, 64, 108
1, 65115, Control_c, 0, 64, 108
1, 65145, Control_c, 0, 64, 109
1, 65159, Control_c, 0, 64, 110
1, 65174, Control_c, 0, 64, 110
1, 65189, Control_c, 0, 64, 111
1, 65190, Note_off_c, 0, 74, 60
1, 65201, Note_off_c, 0, 77, 57
1, 65202, Note_on_c, 0, 38, 88
1, 65211, Note_on_c, 0, 26, 81
1, 65223, Note_off_c, 0, 81, 60
1, 65240, Note_off_c, 0, 26, 66
1, 65250, Note_off_c, 0, 38, 62
1, 65251, Note_off_c, 0, 86, 64
1, 65271, Control_c, 0, 64, 111
1, 65313, Note_on_c, 0, 37, 96
1, 65320, Note_on_c, 0, 25, 80
1, 65323, Note_on_c, 0, 31, 33
1, 65330, Control_c, 0, 64, 112
1, 65345, Control_c, 0, 64, 113
1, 65347, Note_off_c, 0, 37, 64
1, 65356, Note_off_c, 0, 25, 64
1, 65361, Control_c, 0, 64, 115
1, 65368, Note_off_c, 0, 31, 43
1, 65370, Note_on_c, 0, 29, 8
1, 65375, Control_c, 0, 64, 116
1, 65390, Control_c, 0, 64, 119
1, 65405, Control_c, 0, 64, 122
1, 65410, Note_on_c, 0, 36, 88
1, 65420, Control_c, 0, 64, 127
1, 65425, Note_off_c, 0, 29, 49
1, 65427, Note_on_c, 0, 24, 82
1, 65453, Note_off_c, 0, 24, 62
1, 65458, Note_off_c, 0, 36, 65
1, 65464, Control_c, 0, 64, 127
1, 65479, Control_c, 0, 64, 106
1, 65494, Control_c, 0, 64, 78
1, 65509, Control_c, 0, 64, 0
1, 65528, Note_on_c, 0, 94, 93
1, 65530, Note_on_c, 0, 86, 90
1, 65530, Note_on_c, 0, 98, 89
1, 65534, Note_on_c, 0, 34, 91
1, 65550, Note_on_c, 0, 22, 79
1, 65568, Control_c, 0, 64, 46
1, 65582, Note_off_c, 0, 86, 64
1, 65583, Control_c, 0, 64, 76
1, 65597, Control_c, 0, 64, 87
1, 65600, Note_off_c, 0, 94, 63
1, 65602, Note_off_c, 0, 98, 66
1, 65609, Note_off_c, 0, 22, 63
1, 65612, Control_c, 0, 64, 97
1, 65627, Control_c, 0, 64, 99
1, 65630, Note_off_c, 0, 34, 62
1, 65642, Control_c, 0, 64, 101
1, 65650, Poly_aftertouch_c, 0, 25, 0
1, 65657, Control_c, 0, 64, 104
1, 65672, Control_c, 0, 64, 108
1, 65687, Control_c, 0, 64, 113
1, 65695, Note_on_c, 0, 88, 95
1, 65695, Note_on_c, 0, 100, 93
1, 65701, Note_on_c, 0, 97, 84
1, 65702, Control_c, 0, 64, 115
1, 65717, Control_c, 0, 64, 116
1, 65737, Note_off_c, 0, 88, 64
1, 65746, Control_c, 0, 64, 117
1, 65755, Note_off_c, 0, 100, 63
1, 65759, Note_off_c, 0, 97, 54
1, 65761, Control_c, 0, 64, 117
1, 65775, Control_c, 0, 64, 118
1, 65838, Note_on_c, 0, 98, 89
1, 65840, Note_on_c, 0, 101, 97
1, 65843, Note_on_c, 0, 89, 94
1, 65849, Note_on_c, 0, 62, 83
1, 65854, Note_on_c, 0, 50, 76
1, 65854, Note_on_c, 0, 58, 79
1, 65899, Note_off_c, 0, 58, 59
1, 65900, Note_off_c, 0, 62, 58
1, 65910, Note_off_c, 0, 50, 62
1, 65923, Control_c, 0, 64, 118
1, 65981, Note_on_c, 0, 64, 90
1, 65983, Note_on_c, 0, 61, 87
1, 65988, Note_on_c, 0, 52, 79
1, 66005, Control_c, 0, 64, 119
1, 66033, Note_off_c, 0, 61, 60
1, 66035, Note_off_c, 0, 64, 63
1, 66035, Control_c, 0, 64, 119
1, 66041, Note_off_c, 0, 52, 66
1, 66050, Control_c, 0, 64, 120
1, 66064, Control_c, 0, 64, 121
1, 66075, Note_off_c, 0, 101, 56
1, 66079, Control_c, 0, 64, 121
1, 66087, Note_off_c, 0, 98, 65
1, 66096, Note_off_c, 0, 89, 61
1, 66102, Note_on_c, 0, 65, 94
1, 66103, Note_on_c, 0, 62, 89
1, 66111, Note_on_c, 0, 53, 81
1, 66138, Control_c, 0, 64, 109
1, 66154, Control_c, 0, 64, 86
1, 66169, Control_c, 0, 64, 56
1, 66184, Control_c, 0, 64, 0
1, 66218, Note_on_c, 0, 100, 87
1, 66219, Note_on_c, 0, 88, 85
1, 66220, Note_on_c, 0, 97, 89
1, 66228, Control_c, 0, 64, 69
1, 66243, Control_c, 0, 64, 82
1, 66258, Control_c, 0, 64, 95
1, 66269, Note_off_c, 0, 53, 63
1, 66271, Note_off_c, 0, 100, 65
1, 66271, Note_off_c, 0, 88, 61
1, 66273, Control_c, 0, 64, 102
1, 66280, Note_off_c, 0, 62, 59
1, 66280, Note_off_c, 0, 97, 64
1, 66287, Control_c, 0, 64, 104
1, 66289, Note_off_c, 0, 65, 62
1, 66302, Control_c, 0, 64, 107
1, 66317, Control_c, 0, 64, 111
1, 66332, Control_c, 0, 64, 115
1, 66342, Note_on_c, 0, 98, 89
1, 66343, Note_on_c, 0, 86, 89
1, 66347, Control_c, 0, 64, 117
1, 66349, Note_on_c, 0, 94, 83
1, 66361, Control_c, 0, 64, 118
1, 66376, Control_c, 0, 64, 119
1, 66391, Control_c, 0, 64, 119
1, 66405, Control_c, 0, 64, 120
1, 66420, Control_c, 0, 64, 121
1, 66450, Note_on_c, 0, 76, 86
1, 66452, Note_on_c, 0, 73, 86
1, 66457, Note_on_c, 0, 64, 76
1, 66465, Control_c, 0, 64, 121
1, 66474, Note_off_c, 0, 98, 62
1, 66480, Control_c, 0, 64, 122
1, 66489, Note_off_c, 0, 76, 65
1, 66495, Control_c, 0, 64, 122
1, 66495, Note_off_c, 0, 73, 61
1, 66507, Note_off_c, 0, 64, 64
1, 66516, Note_off_c, 0, 86, 60
1, 66524, Control_c, 0, 64, 123
1, 66539, Control_c, 0, 64, 124
1, 66554, Control_c, 0, 64, 126
1, 66568, Note_on_c, 0, 74, 97
1, 66569, Control_c, 0, 64, 127
1, 66572, Note_on_c, 0, 70, 93
1, 66579, Note_on_c, 0, 62, 79
1, 66613, Control_c, 0, 64, 126
1, 66628, Control_c, 0, 64, 113
1, 66643, Control_c, 0, 64, 91
1, 66658, Control_c, 0, 64, 66
1, 66667, Note_on_c, 0, 97, 85
1, 66671, Note_on_c, 0, 85, 80
1, 66673, Control_c, 0, 64, 0
1, 66702, Control_c, 0, 64, 37
1, 66710, Note_off_c, 0, 94, 61
1, 66717, Control_c, 0, 64, 70
1, 66718, Note_off_c, 0, 85, 64
1, 66733, Note_off_c, 0, 97, 65
1, 66739, Control_c, 0, 64, 82
1, 66754, Control_c, 0, 64, 95
1, 66769, Control_c, 0, 64, 104
1, 66784, Control_c, 0, 64, 108
1, 66790, Note_off_c, 0, 70, 58
1, 66793, Note_off_c, 0, 74, 61
1, 66795, Note_off_c, 0, 62, 58
1, 66799, Control_c, 0, 64, 112
1, 66800, Note_on_c, 0, 82, 96
1, 66804, Note_on_c, 0, 94, 86
1, 66808, Note_on_c, 0, 89, 78
1, 66813, Control_c, 0, 64, 117
1, 66828, Control_c, 0, 64, 122
1, 66843, Control_c, 0, 64, 127
1, 66858, Control_c, 0, 64, 127
1, 66909, Note_on_c, 0, 73, 84
1, 66914, Note_on_c, 0, 61, 79
1, 66954, Note_off_c, 0, 73, 61
1, 66966, Note_off_c, 0, 61, 61
1, 67028, Note_off_c, 0, 89, 59
1, 67031, Note_on_c, 0, 70, 83
1, 67034, Note_on_c, 0, 65, 84
1, 67034, Note_off_c, 0, 94, 62
1, 67037, Note_off_c, 0, 82, 60
1, 67044, Note_on_c, 0, 58, 72
1, 67055, Note_off_c, 0, 70, 65
1, 67083, Note_off_c, 0, 65, 64
1, 67086, Note_off_c, 0, 58, 63
1, 67140, Note_on_c, 0, 93, 86
1, 67143, Note_on_c, 0, 81, 84
1, 67152, Note_on_c, 0, 69, 87
1, 67163, Note_on_c, 0, 57, 72
1, 67189, Note_off_c, 0, 81, 62
1, 67190, Note_off_c, 0, 57, 66
1, 67192, Note_off_c, 0, 93, 64
1, 67194, Note_off_c, 0, 69, 68
1, 67262, Note_on_c, 0, 80, 90
1, 67267, Note_on_c, 0, 68, 85
1, 67267, Note_on_c, 0, 92, 87
1, 67272, Note_on_c, 0, 56, 79
1, 67285, Note_on_c, 0, 90, 63
1, 67289, Note_off_c, 0, 68, 69
1, 67302, Note_off_c, 0, 90, 63
1, 67305, Note_off_c, 0, 80, 63
1, 67308, Note_off_c, 0, 56, 64
1, 67318, Note_off_c, 0, 92, 65
1, 67379, Note_on_c, 0, 81, 92
1, 67380, Note_on_c, 0, 93, 94
1, 67384, Note_on_c, 0, 65, 80
1, 67402, Note_on_c, 0, 53, 64
1, 67419, Note_off_c, 0, 81, 64
1, 67422, Note_off_c, 0, 53, 65
1, 67424, Note_off_c, 0, 93, 63
1, 67425, Note_off_c, 0, 65, 61
1, 67504, Note_on_c, 0, 80, 94
1, 67505, Note_on_c, 0, 92, 94
1, 67505, Note_on_c, 0, 64, 80
1, 67514, Note_on_c, 0, 52, 80
1, 67522, Note_on_c, 0, 90, 71
1, 67538, Note_off_c, 0, 90, 65
1, 67545, Note_off_c, 0, 52, 67
1, 67545, Note_off_c, 0, 80, 65
1, 67546, Note_off_c, 0, 64, 59
1, 67557, Note_off_c, 0, 92, 66
1, 67617, Note_on_c, 0, 83, 88
1, 67619, Note_on_c, 0, 95, 95
1, 67623, Note_on_c, 0, 60, 83
1, 67630, Note_on_c, 0, 48, 84
1, 67652, Note_off_c, 0, 83, 64
1, 67663, Note_off_c, 0, 48, 67
1, 67670, Note_off_c, 0, 60, 59
1, 67671, Note_off_c, 0, 95, 67
1, 67696, Control_c, 0, 64, 119
1, 67710, Control_c, 0, 64, 102
1, 67725, Control_c, 0, 64, 85
1, 67735, Note_on_c, 0, 59, 88
1, 67740, Control_c, 0, 64, 67
1, 67741, Note_on_c, 0, 47, 84
1, 67744, Note_on_c, 0, 88, 96
1, 67746, Note_on_c, 0, 100, 98
1, 67756, Control_c, 0, 64, 0
1, 67766, Note_off_c, 0, 59, 64
1, 67768, Note_off_c, 0, 100, 66
1, 67782, Note_off_c, 0, 47, 64
1, 67784, Note_off_c, 0, 88, 66
1, 68060, Note_on_c, 0, 40, 100
1, 68061, Note_on_c, 0, 28, 90
1, 68065, Note_on_c, 0, 35, 90
1, 68066, Note_on_c, 0, 52, 93
1, 68066, Note_on_c, 0, 59, 77
1, 68069, Note_on_c, 0, 56, 86
1, 68072, Note_on_c, 0, 64, 84
1, 68111, Control_c, 0, 64, 67
1, 68114, Note_off_c, 0, 52, 67
1, 68117, Note_on_c, 0, 32, 19
1, 68125, Control_c, 0, 64, 77
1, 68131, Note_off_c, 0, 56, 65
1, 68140, Control_c, 0, 64, 82
1, 68143, Note_off_c, 0, 59, 63
1, 68155, Note_off_c, 0, 64, 66
1, 68155, Control_c, 0, 64, 86
1, 68170, Control_c, 0, 64, 90
1, 68180, Poly_aftertouch_c, 0, 62, 0
1, 68185, Control_c, 0, 64, 96
1, 68194, Note_off_c, 0, 32, 0
1, 68200, Control_c, 0, 64, 101
1, 68215, Control_c, 0, 64, 106
1, 68237, Control_c, 0, 64, 107
1, 68239, Poly_aftertouch_c, 0, 32, 127
1, 68251, Control_c, 0, 64, 108
1, 68266, Control_c, 0, 64, 108
1, 68281, Control_c, 0, 64, 110
1, 68290, Note_off_c, 0, 28, 61
1, 68296, Control_c, 0, 64, 112
1, 68311, Control_c, 0, 64, 114
1, 68314, Note_off_c, 0, 35, 62
1, 68323, Note_off_c, 0, 40, 63
1, 68326, Control_c, 0, 64, 116
1, 68340, Control_c, 0, 64, 117
1, 68351, Poly_aftertouch_c, 0, 32, 0
1, 68355, Control_c, 0, 64, 119
1, 68370, Control_c, 0, 64, 121
1, 68385, Control_c, 0, 64, 121
1, 68559, Note_on_c, 0, 81, 89
1, 68559, Note_on_c, 0, 93, 85
1, 68562, Note_on_c, 0, 84, 80
1, 68564, Note_on_c, 0, 69, 85
1, 68569, Note_on_c, 0, 57, 79
1, 68598, Note_off_c, 0, 81, 64
1, 68603, Note_off_c, 0, 84, 64
1, 68605, Note_off_c, 0, 69, 63
1, 68620, Note_off_c, 0, 57, 61
1, 68626, Note_off_c, 0, 93, 63
1, 68679, Note_on_c, 0, 96, 100
1, 68682, Note_on_c, 0, 65, 87
1, 68683, Note_on_c, 0, 84, 93
1, 68690, Note_on_c, 0, 53, 82
1, 68720, Note_off_c, 0, 53, 64
1, 68720, Note_off_c, 0, 84, 66
1, 68729, Note_off_c, 0, 65, 65
1, 68730, Note_off_c, 0, 96, 66
1, 68772, Control_c, 0, 64, 121
1, 68787, Control_c, 0, 64, 119
1, 68793, Note_on_c, 0, 64, 93
1, 68797, Note_on_c, 0, 88, 96
1, 68798, Note_on_c, 0, 100, 102
1, 68801, Control_c, 0, 64, 110
1, 68809, Note_on_c, 0, 52, 74
1, 68816, Control_c, 0, 64, 101
1, 68819, Note_on_c, 0, 53, 69
1, 68827, Note_off_c, 0, 64, 66
1, 68829, Note_off_c, 0, 100, 67
1, 68831, Note_on_c, 0, 99, 42
1, 68831, Control_c, 0, 64, 90
1, 68835, Note_off_c, 0, 53, 69
1, 68840, Note_off_c, 0, 52, 68
1, 68840, Note_off_c, 0, 88, 64
1, 68846, Control_c, 0, 64, 76
1, 68850, Note_off_c, 0, 99, 41
1, 68861, Control_c, 0, 64, 62
1, 68875, Control_c, 0, 64, 0
1, 69126, Note_on_c, 0, 40, 95
1, 69127, Note_on_c, 0, 28, 82
1, 69133, Note_on_c, 0, 33, 84
1, 69133, Note_on_c, 0, 52, 93
1, 69133, Note_on_c, 0, 64, 82
1, 69134, Note_on_c, 0, 57, 84
1, 69134, Control_c, 0, 64, 60
1, 69137, Note_on_c, 0, 60, 73
1, 69149, Control_c, 0, 64, 69
1, 69164, Control_c, 0, 64, 75
1, 69179, Control_c, 0, 64, 80
1, 69180, Note_off_c, 0, 52, 65
1, 69194, Control_c, 0, 64, 84
1, 69198, Note_off_c, 0, 57, 62
1, 69208, Control_c, 0, 64, 87
1, 69212, Note_off_c, 0, 60, 63
1, 69219, Note_off_c, 0, 64, 65
1, 69223, Control_c, 0, 64, 89
1, 69238, Control_c, 0, 64, 91
1, 69253, Control_c, 0, 64, 92
1, 69268, Control_c, 0, 64, 93
1, 69279, Note_off_c, 0, 28, 59
1, 69282, Control_c, 0, 64, 93
1, 69292, Note_off_c, 0, 33, 61
1, 69312, Control_c, 0, 64, 94
1, 69316, Note_off_c, 0, 40, 64
1, 69327, Control_c, 0, 64, 94
1, 69341, Control_c, 0, 64, 95
1, 69357, Control_c, 0, 64, 95
1, 69372, Control_c, 0, 64, 96
1, 69387, Control_c, 0, 64, 97
1, 69402, Control_c, 0, 64, 98
1, 69417, Control_c, 0, 64, 99
1, 69431, Control_c, 0, 64, 101
1, 69446, Control_c, 0, 64, 103
1, 69461, Control_c, 0, 64, 104
1, 69476, Control_c, 0, 64, 105
1, 69491, Control_c, 0, 64, 106
1, 69550, Control_c, 0, 64, 104
1, 69565, Control_c, 0, 64, 92
1, 69580, Control_c, 0, 64, 74
1, 69595, Control_c, 0, 64, 27
1, 69601, Note_on_c, 0, 92, 89
1, 69604, Note_on_c, 0, 65, 95
1, 69608, Note_on_c, 0, 53, 86
1, 69608, Note_on_c, 0, 83, 71
1, 69610, Control_c, 0, 64, 0
1, 69624, Control_c, 0, 64, 60
1, 69639, Control_c, 0, 64, 71
1, 69654, Control_c, 0, 64, 79
1, 69669, Control_c, 0, 64, 87
1, 69684, Control_c, 0, 64, 89
1, 69698, Control_c, 0, 64, 93
1, 69713, Control_c, 0, 64, 97
1, 69728, Note_off_c, 0, 92, 63
1, 69733, Note_on_c, 0, 95, 68
1, 69734, Note_on_c, 0, 86, 72
1, 69735, Control_c, 0, 64, 104
1, 69739, Note_on_c, 0, 59, 66
1, 69744, Note_on_c, 0, 56, 68
1, 69746, Note_off_c, 0, 53, 59
1, 69750, Note_off_c, 0, 65, 63
1, 69750, Control_c, 0, 64, 110
1, 69752, Note_off_c, 0, 95, 66
1, 69754, Note_off_c, 0, 86, 70
1, 69762, Note_off_c, 0, 83, 62
1, 69765, Control_c, 0, 64, 112
1, 69768, Note_off_c, 0, 59, 64
1, 69783, Note_off_c, 0, 56, 63
1, 69809, Control_c, 0, 64, 106
1, 69824, Control_c, 0, 64, 89
1, 69839, Control_c, 0, 64, 71
1, 69851, Note_on_c, 0, 64, 79
1, 69854, Note_on_c, 0, 80, 89
1, 69854, Control_c, 0, 64, 54
1, 69858, Note_on_c, 0, 52, 72
1, 69863, Note_on_c, 0, 71, 71
1, 69869, Control_c, 0, 64, 65
1, 69884, Control_c, 0, 64, 74
1, 69896, Note_on_c, 0, 53, 32
1, 69898, Control_c, 0, 64, 84
1, 69913, Control_c, 0, 64, 91
1, 69922, Note_off_c, 0, 53, 35
1, 69928, Control_c, 0, 64, 92
1, 69935, Note_off_c, 0, 80, 60
1, 69943, Control_c, 0, 64, 93
1, 69948, Note_off_c, 0, 52, 56
1, 69957, Control_c, 0, 64, 94
1, 69958, Note_off_c, 0, 64, 60
1, 69960, Note_on_c, 0, 56, 68
1, 69965, Note_on_c, 0, 74, 76
1, 69967, Note_on_c, 0, 83, 62
1, 69972, Control_c, 0, 64, 96
1, 69978, Note_on_c, 0, 59, 31
1, 69985, Note_off_c, 0, 83, 62
1, 69985, Note_off_c, 0, 74, 70
1, 69987, Control_c, 0, 64, 98
1, 69993, Note_off_c, 0, 56, 66
1, 70002, Control_c, 0, 64, 99
1, 70012, Note_off_c, 0, 59, 45
1, 70012, Note_off_c, 0, 71, 57
1, 70096, Note_on_c, 0, 32, 84
1, 70115, Note_on_c, 0, 34, 44
1, 70115, Note_on_c, 0, 44, 53
1, 70118, Note_on_c, 0, 56, 80
1, 70119, Note_on_c, 0, 42, 32
1, 70121, Note_off_c, 0, 32, 64
1, 70132, Note_on_c, 0, 65, 66
1, 70143, Note_off_c, 0, 44, 55
1, 70148, Note_off_c, 0, 34, 52
1, 70157, Note_off_c, 0, 42, 44
1, 70196, Note_on_c, 0, 47, 85
1, 70208, Note_on_c, 0, 35, 70
1, 70224, Note_off_c, 0, 47, 67
1, 70239, Note_off_c, 0, 35, 63
1, 70242, Note_off_c, 0, 56, 59
1, 70254, Note_on_c, 0, 68, 80
1, 70292, Note_off_c, 0, 65, 61
1, 70310, Note_on_c, 0, 41, 84
1, 70313, Control_c, 0, 64, 98
1, 70328, Note_on_c, 0, 29, 61
1, 70328, Control_c, 0, 64, 90
1, 70337, Note_off_c, 0, 68, 62
1, 70343, Control_c, 0, 64, 79
1, 70348, Note_on_c, 0, 64, 92
1, 70348, Note_off_c, 0, 41, 66
1, 70358, Note_off_c, 0, 29, 60
1, 70358, Control_c, 0, 64, 65
1, 70372, Control_c, 0, 64, 0
1, 70385, Note_off_c, 0, 64, 68
1, 70572, Control_c, 0, 64, 29
1, 70587, Control_c, 0, 64, 67
1, 70599, Note_on_c, 0, 65, 91
1, 70599, Note_on_c, 0, 84, 93
1, 70599, Note_on_c, 0, 93, 100
1, 70602, Control_c, 0, 64, 76
1, 70602, Note_on_c, 0, 53, 80
1, 70617, Control_c, 0, 64, 87
1, 70632, Control_c, 0, 64, 95
1, 70646, Control_c, 0, 64, 100
1, 70661, Control_c, 0, 64, 102
1, 70676, Control_c, 0, 64, 104
1, 70691, Control_c, 0, 64, 106
1, 70706, Control_c, 0, 64, 109
1, 70708, Note_off_c, 0, 53, 63
1, 70719, Note_on_c, 0, 57, 64
1, 70719, Note_on_c, 0, 88, 73
1, 70720, Control_c, 0, 64, 112
1, 70725, Note_on_c, 0, 96, 77
1, 70726, Note_on_c, 0, 60, 60
1, 70726, Note_off_c, 0, 93, 60
1, 70735, Control_c, 0, 64, 113
1, 70743, Note_off_c, 0, 65, 62
1, 70747, Note_off_c, 0, 96, 69
1, 70750, Control_c, 0, 64, 114
1, 70753, Note_off_c, 0, 88, 61
1, 70757, Note_off_c, 0, 84, 64
1, 70763, Note_off_c, 0, 60, 63
1, 70765, Control_c, 0, 64, 115
1, 70779, Control_c, 0, 64, 115
1, 70787, Note_off_c, 0, 57, 60
1, 70794, Control_c, 0, 64, 116
1, 70809, Control_c, 0, 64, 117
1, 70824, Control_c, 0, 64, 118
1, 70838, Note_on_c, 0, 64, 88
1, 70839, Control_c, 0, 64, 118
1, 70844, Note_on_c, 0, 52, 79
1, 70845, Note_on_c, 0, 81, 83
1, 70848, Note_on_c, 0, 72, 85
1, 70868, Control_c, 0, 64, 119
1, 70909, Note_off_c, 0, 64, 55
1, 70947, Note_on_c, 0, 57, 71
1, 70949, Note_on_c, 0, 76, 77
1, 70960, Note_on_c, 0, 84, 77
1, 70961, Note_off_c, 0, 81, 60
1, 70969, Note_off_c, 0, 52, 64
1, 70970, Note_off_c, 0, 57, 67
1, 70981, Note_off_c, 0, 84, 72
1, 70987, Note_off_c, 0, 76, 63
1, 70998, Note_off_c, 0, 72, 61
1, 71071, Note_on_c, 0, 45, 90
1, 71089, Note_on_c, 0, 33, 66
1, 71093, Poly_aftertouch_c, 0, 57, 0
1, 71096, Note_on_c, 0, 65, 92
1, 71099, Note_on_c, 0, 57, 72
1, 71109, Note_off_c, 0, 45, 63
1, 71115, Note_on_c, 0, 37, 18
1, 71116, Note_off_c, 0, 37, 127
1, 71118, Note_off_c, 0, 33, 64
1, 71142, Note_off_c, 0, 57, 60
1, 71159, Poly_aftertouch_c, 0, 37, 0
1, 71174, Note_on_c, 0, 48, 88
1, 71179, Note_on_c, 0, 36, 76
1, 71198, Note_on_c, 0, 35, 35
1, 71203, Note_off_c, 0, 48, 65
1, 71222, Note_off_c, 0, 36, 66
1, 71240, Note_on_c, 0, 69, 79
1, 71244, Note_off_c, 0, 35, 53
1, 71249, Poly_aftertouch_c, 0, 39, 0
1, 71306, Note_off_c, 0, 65, 59
1, 71341, Note_off_c, 0, 69, 62
1, 71347, Note_on_c, 0, 64, 106
1, 71351, Control_c, 0, 64, 118
1, 71365, Control_c, 0, 64, 113
1, 71380, Control_c, 0, 64, 103
1, 71383, Note_off_c, 0, 64, 70
1, 71392, Note_on_c, 0, 28, 61
1, 71395, Control_c, 0, 64, 90
1, 71395, Poly_aftertouch_c, 0, 45, 0
1, 71409, Note_on_c, 0, 40, 41
1, 71410, Control_c, 0, 64, 76
1, 71425, Control_c, 0, 64, 59
1, 71425, Note_off_c, 0, 28, 54
1, 71440, Control_c, 0, 64, 0
1, 71447, Note_off_c, 0, 40, 44
1, 71464, Poly_aftertouch_c, 0, 38, 0
1, 71512, Poly_aftertouch_c, 0, 38, 0
1, 71539, Note_on_c, 0, 94, 55
1, 71572, Note_off_c, 0, 94, 58
1, 71648, Control_c, 0, 64, 68
1, 71649, Note_on_c, 0, 92, 90
1, 71649, Note_on_c, 0, 28, 88
1, 71649, Note_on_c, 0, 38, 93
1, 71650, Note_on_c, 0, 32, 79
1, 71650, Note_on_c, 0, 40, 94
1, 71651, Note_on_c, 0, 101, 96
1, 71654, Note_on_c, 0, 89, 87
1, 71659, Note_on_c, 0, 35, 77
1, 71663, Control_c, 0, 64, 79
1, 71677, Control_c, 0, 64, 93
1, 71692, Control_c, 0, 64, 101
1, 71697, Note_off_c, 0, 28, 62
1, 71704, Note_on_c, 0, 98, 24
1, 71707, Control_c, 0, 64, 109
1, 71712, Note_off_c, 0, 38, 63
1, 71714, Note_off_c, 0, 32, 63
1, 71715, Note_off_c, 0, 35, 63
1, 71719, Note_off_c, 0, 101, 66
1, 71721, Control_c, 0, 64, 116
1, 71725, Note_off_c, 0, 40, 65
1, 71731, Note_off_c, 0, 89, 65
1, 71735, Note_off_c, 0, 92, 66
1, 71736, Control_c, 0, 64, 127
1, 71738, Note_off_c, 0, 98, 32
1, 71771, Poly_aftertouch_c, 0, 36, 0
1, 71810, Note_on_c, 0, 88, 88
1, 71812, Note_on_c, 0, 100, 89
1, 71860, Note_off_c, 0, 100, 66
1, 71862, Note_off_c, 0, 88, 63
1, 71938, Note_on_c, 0, 98, 96
1, 71938, Note_on_c, 0, 86, 88
1, 71943, Note_on_c, 0, 74, 83
1, 71955, Note_on_c, 0, 62, 67
1, 71995, Note_off_c, 0, 62, 63
1, 71997, Note_off_c, 0, 74, 63
1, 72000, Note_off_c, 0, 86, 63
1, 72004, Note_off_c, 0, 98, 66
1, 72063, Note_on_c, 0, 96, 90
1, 72066, Note_on_c, 0, 72, 84
1, 72066, Note_on_c, 0, 84, 88
1, 72079, Note_on_c, 0, 60, 72
1, 72103, Note_off_c, 0, 60, 66
1, 72111, Note_off_c, 0, 72, 61
1, 72111, Note_off_c, 0, 96, 64
1, 72114, Note_off_c, 0, 84, 65
1, 72176, Note_on_c, 0, 71, 86
1, 72179, Note_on_c, 0, 83, 92
1, 72180, Note_on_c, 0, 95, 92
1, 72186, Note_on_c, 0, 59, 75
1, 72209, Note_off_c, 0, 59, 68
1, 72215, Note_off_c, 0, 95, 68
1, 72218, Note_off_c, 0, 71, 59
1, 72220, Note_off_c, 0, 83, 64
1, 72281, Note_on_c, 0, 68, 90
1, 72290, Note_on_c, 0, 80, 97
1, 72290, Note_on_c, 0, 92, 90
1, 72292, Note_on_c, 0, 56, 75
1, 72304, Note_on_c, 0, 90, 75
1, 72313, Note_off_c, 0, 68, 60
1, 72319, Note_off_c, 0, 90, 67
1, 72321, Note_off_c, 0, 56, 66
1, 72328, Note_off_c, 0, 80, 64
1, 72337, Note_off_c, 0, 92, 66
1, 72382, Control_c, 0, 64, 121
1, 72397, Control_c, 0, 64, 110
1, 72400, Note_on_c, 0, 81, 91
1, 72406, Note_on_c, 0, 84, 76
1, 72409, Note_on_c, 0, 65, 87
1, 72410, Note_on_c, 0, 69, 93
1, 72410, Note_on_c, 0, 89, 74
1, 72412, Note_on_c, 0, 93, 88
1, 72412, Control_c, 0, 64, 98
1, 72412, Note_on_c, 0, 60, 75
1, 72426, Control_c, 0, 64, 83
1, 72429, Note_off_c, 0, 84, 67
1, 72435, Note_on_c, 0, 57, 61
1, 72440, Note_on_c, 0, 85, 41
1, 72441, Note_off_c, 0, 85, 127
1, 72441, Control_c, 0, 64, 65
1, 72447, Note_off_c, 0, 69, 65
1, 72447, Note_off_c, 0, 89, 63
1, 72454, Note_off_c, 0, 65, 65
1, 72456, Control_c, 0, 64, 0
1, 72456, Note_off_c, 0, 93, 62
1, 72459, Note_off_c, 0, 81, 58
1, 72472, Note_off_c, 0, 60, 61
1, 72474, Note_off_c, 0, 57, 51
1, 72523, Note_on_c, 0, 91, 84
1, 72527, Note_on_c, 0, 79, 85
1, 72567, Note_off_c, 0, 79, 63
1, 72569, Note_off_c, 0, 91, 62
1, 72650, Note_on_c, 0, 56, 68
1, 72650, Note_on_c, 0, 77, 89
1, 72650, Note_on_c, 0, 89, 90
1, 72651, Note_on_c, 0, 65, 94
1, 72653, Note_on_c, 0, 80, 87
1, 72658, Note_on_c, 0, 53, 72
1, 72664, Control_c, 0, 64, 47
1, 72666, Note_on_c, 0, 59, 69
1, 72679, Control_c, 0, 64, 67
1, 72694, Control_c, 0, 64, 72
1, 72699, Note_off_c, 0, 89, 67
1, 72701, Note_off_c, 0, 80, 64
1, 72702, Note_off_c, 0, 77, 61
1, 72709, Control_c, 0, 64, 77
1, 72731, Control_c, 0, 64, 82
1, 72745, Note_off_c, 0, 59, 38
1, 72746, Control_c, 0, 64, 84
1, 72753, Note_off_c, 0, 65, 56
1, 72761, Control_c, 0, 64, 86
1, 72775, Control_c, 0, 64, 87
1, 72777, Note_on_c, 0, 88, 88
1, 72778, Note_on_c, 0, 76, 86
1, 72778, Note_off_c, 0, 56, 61
1, 72788, Note_off_c, 0, 53, 63
1, 72790, Control_c, 0, 64, 88
1, 72805, Control_c, 0, 64, 88
1, 72820, Control_c, 0, 64, 89
1, 72823, Note_off_c, 0, 88, 64
1, 72828, Note_off_c, 0, 76, 66
1, 72835, Control_c, 0, 64, 90
1, 72849, Control_c, 0, 64, 91
1, 72864, Control_c, 0, 64, 91
1, 72887, Note_on_c, 0, 62, 82
1, 72894, Note_on_c, 0, 74, 88
1, 72894, Control_c, 0, 64, 92
1, 72895, Note_on_c, 0, 50, 76
1, 72895, Note_on_c, 0, 86, 89
1, 72936, Note_off_c, 0, 62, 60
1, 72938, Note_off_c, 0, 50, 61
1, 72938, Control_c, 0, 64, 92
1, 72939, Note_off_c, 0, 86, 65
1, 72944, Note_off_c, 0, 74, 65
1, 73000, Note_on_c, 0, 60, 83
1, 73002, Note_on_c, 0, 84, 91
1, 73004, Note_on_c, 0, 72, 87
1, 73007, Note_on_c, 0, 48, 76
1, 73052, Note_off_c, 0, 48, 61
1, 73052, Note_off_c, 0, 60, 62
1, 73052, Note_off_c, 0, 84, 66
1, 73055, Note_off_c, 0, 72, 64
1, 73116, Note_on_c, 0, 83, 84
1, 73117, Note_on_c, 0, 59, 81
1, 73118, Note_on_c, 0, 71, 87
1, 73130, Note_on_c, 0, 47, 68
1, 73155, Note_off_c, 0, 83, 65
1, 73160, Note_off_c, 0, 47, 66
1, 73160, Note_off_c, 0, 59, 61
1, 73160, Note_off_c, 0, 71, 64
1, 73188, Control_c, 0, 64, 91
1, 73203, Control_c, 0, 64, 86
1, 73218, Control_c, 0, 64, 79
1, 73227, Note_on_c, 0, 56, 86
1, 73229, Note_on_c, 0, 68, 90
1, 73229, Note_on_c, 0, 80, 82
1, 73233, Control_c, 0, 64, 70
1, 73235, Note_on_c, 0, 44, 83
1, 73247, Control_c, 0, 64, 54
1, 73248, Note_on_c, 0, 78, 67
1, 73255, Note_off_c, 0, 56, 64
1, 73262, Control_c, 0, 64, 0
1, 73264, Note_off_c, 0, 44, 67
1, 73264, Note_off_c, 0, 68, 60
1, 73265, Note_off_c, 0, 78, 41
1, 73279, Note_off_c, 0, 80, 64
1, 73342, Note_on_c, 0, 57, 85
1, 73345, Note_on_c, 0, 69, 88
1, 73345, Note_on_c, 0, 81, 88
1, 73349, Note_on_c, 0, 45, 75
1, 73381, Note_off_c, 0, 81, 65
1, 73384, Note_off_c, 0, 69, 65
1, 73390, Note_off_c, 0, 57, 59
1, 73396, Note_off_c, 0, 45, 64
1, 73459, Note_on_c, 0, 65, 86
1, 73459, Note_on_c, 0, 77, 89
1, 73461, Note_on_c, 0, 53, 81
1, 73476, Note_on_c, 0, 41, 80
1, 73491, Note_off_c, 0, 65, 67
1, 73512, Note_off_c, 0, 53, 65
1, 73512, Note_off_c, 0, 77, 63
1, 73519, Note_off_c, 0, 41, 65
1, 73586, Note_on_c, 0, 52, 89
1, 73589, Note_on_c, 0, 40, 83
1, 73594, Note_on_c, 0, 76, 92
1, 73594, Note_on_c, 0, 88, 87
1, 73626, Note_off_c, 0, 88, 64
1, 73631, Note_off_c, 0, 76, 65
1, 73633, Note_off_c, 0, 52, 64
1, 73646, Note_off_c, 0, 40, 62
1, 73705, Note_on_c, 0, 50, 85
1, 73711, Note_on_c, 0, 38, 79
1, 73753, Note_off_c, 0, 50, 62
1, 73763, Note_off_c, 0, 38, 59
1, 73825, Note_on_c, 0, 48, 83
1, 73833, Note_on_c, 0, 36, 78
1, 73834, Note_on_c, 0, 64, 87
1, 73840, Note_on_c, 0, 76, 80
1, 73881, Note_off_c, 0, 48, 64
1, 73887, Note_off_c, 0, 36, 62
1, 73944, Note_on_c, 0, 47, 87
1, 73953, Note_on_c, 0, 35, 78
1, 73999, Note_off_c, 0, 35, 62
1, 74004, Note_off_c, 0, 47, 64
1, 74068, Note_on_c, 0, 45, 88
1, 74070, Control_c, 0, 64, 65
1, 74075, Note_on_c, 0, 33, 83
1, 74085, Control_c, 0, 64, 69
1, 74100, Control_c, 0, 64, 71
1, 74110, Note_off_c, 0, 33, 67
1, 74114, Control_c, 0, 64, 73
1, 74118, Note_off_c, 0, 45, 64
1, 74129, Control_c, 0, 64, 75
1, 74146, Control_c, 0, 64, 77
1, 74155, Note_off_c, 0, 64, 63
1, 74160, Control_c, 0, 64, 79
1, 74170, Note_off_c, 0, 76, 64
1, 74175, Control_c, 0, 64, 80
1, 74188, Note_on_c, 0, 44, 89
1, 74190, Control_c, 0, 64, 80
1, 74197, Note_on_c, 0, 32, 78
1, 74205, Control_c, 0, 64, 81
1, 74227, Control_c, 0, 64, 82
1, 74242, Control_c, 0, 64, 83
1, 74245, Note_off_c, 0, 44, 62
1, 74245, Note_off_c, 0, 32, 62
1, 74316, Control_c, 0, 64, 82
1, 74317, Note_on_c, 0, 42, 82
1, 74319, Poly_aftertouch_c, 0, 34, 0
1, 74324, Note_on_c, 0, 66, 92
1, 74326, Note_on_c, 0, 78, 93
1, 74326, Note_on_c, 0, 30, 79
1, 74331, Control_c, 0, 64, 80
1, 74345, Control_c, 0, 64, 76
1, 74348, Note_off_c, 0, 42, 67
1, 74360, Control_c, 0, 64, 69
1, 74361, Note_off_c, 0, 30, 64
1, 74361, Note_off_c, 0, 66, 63
1, 74370, Note_off_c, 0, 78, 63
1, 74375, Control_c, 0, 64, 58
1, 74390, Control_c, 0, 64, 0
1, 74429, Poly_aftertouch_c, 0, 32, 0
1, 74437, Note_on_c, 0, 40, 91
1, 74442, Note_on_c, 0, 28, 86
1, 74443, Note_on_c, 0, 80, 86
1, 74445, Note_on_c, 0, 68, 84
1, 74475, Note_off_c, 0, 68, 63
1, 74478, Note_off_c, 0, 28, 65
1, 74482, Note_off_c, 0, 40, 63
1, 74496, Note_off_c, 0, 80, 62
1, 74573, Note_on_c, 0, 69, 91
1, 74573, Note_on_c, 0, 76, 79
1, 74576, Note_on_c, 0, 45, 94
1, 74578, Note_on_c, 0, 72, 82
1, 74582, Note_on_c, 0, 81, 85
1, 74582, Control_c, 0, 64, 65
1, 74585, Note_on_c, 0, 40, 83
1, 74589, Note_on_c, 0, 33, 71
1, 74597, Note_on_c, 0, 36, 57
1, 74597, Control_c, 0, 64, 68
1, 74600, Note_off_c, 0, 72, 68
1, 74612, Control_c, 0, 64, 70
1, 74618, Note_off_c, 0, 69, 65
1, 74619, Note_off_c, 0, 76, 65
1, 74624, Note_off_c, 0, 40, 57
1, 74627, Control_c, 0, 64, 73
1, 74636, Note_off_c, 0, 33, 63
1, 74637, Note_off_c, 0, 81, 62
1, 74641, Note_off_c, 0, 36, 65
1, 74641, Control_c, 0, 64, 78
1, 74656, Note_off_c, 0, 45, 63
1, 74656, Control_c, 0, 64, 81
1, 74671, Control_c, 0, 64, 83
1, 74686, Control_c, 0, 64, 83
1, 74716, Note_on_c, 0, 72, 82
1, 74722, Note_on_c, 0, 84, 77
1, 74743, Note_off_c, 0, 84, 70
1, 74746, Note_off_c, 0, 72, 66
1, 74775, Control_c, 0, 64, 82
1, 74790, Control_c, 0, 64, 78
1, 74805, Control_c, 0, 64, 71
1, 74819, Control_c, 0, 64, 55
1, 74834, Control_c, 0, 64, 0
1, 74849, Note_on_c, 0, 68, 93
1, 74853, Note_on_c, 0, 80, 89
1, 74853, Note_on_c, 0, 52, 93
1, 74853, Note_on_c, 0, 74, 85
1, 74860, Note_on_c, 0, 44, 77
1, 74862, Note_on_c, 0, 47, 80
1, 74870, Note_on_c, 0, 40, 69
1, 74878, Note_off_c, 0, 68, 66
1, 74889, Note_off_c, 0, 74, 66
1, 74890, Note_off_c, 0, 52, 69
1, 74892, Note_off_c, 0, 47, 69
1, 74895, Note_off_c, 0, 40, 66
1, 74902, Note_off_c, 0, 80, 64
1, 74904, Note_off_c, 0, 44, 62
1, 75021, Note_on_c, 0, 71, 80
1, 75021, Note_on_c, 0, 83, 86
1, 75042, Note_off_c, 0, 71, 67
1, 75049, Note_off_c, 0, 83, 64
1, 75226, Note_on_c, 0, 57, 81
1, 75227, Note_on_c, 0, 81, 92
1, 75228, Note_on_c, 0, 69, 92
1, 75231, Note_on_c, 0, 76, 79
1, 75235, Note_on_c, 0, 52, 71
1, 75235, Note_on_c, 0, 72, 79
1, 75238, Note_on_c, 0, 48, 71
1, 75240, Note_on_c, 0, 45, 67
1, 75287, Control_c, 0, 64, 64
1, 75302, Control_c, 0, 64, 70
1, 75316, Control_c, 0, 64, 75
1, 75331, Control_c, 0, 64, 80
1, 75346, Control_c, 0, 64, 83
1, 75360, Control_c, 0, 64, 85
1, 75375, Control_c, 0, 64, 87
1, 75391, Control_c, 0, 64, 87
1, 75406, Control_c, 0, 64, 88
1, 75421, Control_c, 0, 64, 88
1, 75425, Note_off_c, 0, 81, 57
1, 75428, Note_off_c, 0, 52, 63
1, 75432, Note_off_c, 0, 57, 58
1, 75436, Note_off_c, 0, 45, 59
1, 75436, Note_off_c, 0, 48, 62
1, 75450, Note_off_c, 0, 69, 60
1, 75451, Note_off_c, 0, 76, 61
1, 75455, Note_off_c, 0, 72, 61
1, 75569, Control_c, 0, 64, 87
1, 75583, Control_c, 0, 64, 85
1, 75598, Control_c, 0, 64, 80
1, 75613, Control_c, 0, 64, 74
1, 75628, Control_c, 0, 64, 67
1, 75643, Control_c, 0, 64, 51
1, 75658, Control_c, 0, 64, 0
1, 76016, Note_on_c, 0, 73, 50
1, 76189, Note_on_c, 0, 76, 48
1, 76257, Note_off_c, 0, 73, 31
1, 76407, Note_on_c, 0, 69, 44
1, 76472, Control_c, 0, 64, 58
1, 76478, Note_off_c, 0, 76, 30
1, 76487, Control_c, 0, 64, 67
1, 76502, Control_c, 0, 64, 71
1, 76516, Control_c, 0, 64, 74
1, 76531, Control_c, 0, 64, 78
1, 76545, Note_off_c, 0, 69, 61
1, 76547, Control_c, 0, 64, 81
1, 76562, Control_c, 0, 64, 85
1, 76577, Control_c, 0, 64, 88
1, 76592, Control_c, 0, 64, 90
1, 76607, Control_c, 0, 64, 92
1, 76621, Control_c, 0, 64, 94
1, 76636, Control_c, 0, 64, 95
1, 76651, Control_c, 0, 64, 96
1, 76681, Control_c, 0, 64, 96
1, 76710, Control_c, 0, 64, 97
1, 76755, Control_c, 0, 64, 97
1, 76766, Note_on_c, 0, 52, 30
1, 76773, Note_on_c, 0, 61, 41
1, 76874, Control_c, 0, 64, 98
1, 76913, Note_off_c, 0, 52, 32
1, 76926, Note_on_c, 0, 64, 42
1, 76951, Note_on_c, 0, 45, 29
1, 76960, Note_off_c, 0, 61, 30
1, 77017, Note_off_c, 0, 45, 41
1, 77047, Note_off_c, 0, 64, 36
1, 77077, Note_on_c, 0, 49, 40
1, 77083, Note_on_c, 0, 57, 49
1, 77117, Note_off_c, 0, 57, 62
1, 77139, Note_off_c, 0, 49, 48
1, 77350, Note_on_c, 0, 73, 58
1, 77400, Control_c, 0, 64, 97
1, 77430, Control_c, 0, 64, 97
1, 77444, Control_c, 0, 64, 95
1, 77459, Control_c, 0, 64, 92
1, 77474, Control_c, 0, 64, 87
1, 77481, Note_on_c, 0, 76, 56
1, 77489, Control_c, 0, 64, 81
1, 77504, Control_c, 0, 64, 72
1, 77518, Control_c, 0, 64, 53
1, 77533, Control_c, 0, 64, 0
1, 77540, Note_off_c, 0, 73, 34
1, 77656, Note_on_c, 0, 69, 54
1, 77695, Note_off_c, 0, 76, 36
1, 77697, Control_c, 0, 64, 62
1, 77711, Control_c, 0, 64, 68
1, 77726, Control_c, 0, 64, 72
1, 77733, Note_off_c, 0, 69, 64
1, 77741, Control_c, 0, 64, 74
1, 77756, Control_c, 0, 64, 77
1, 77770, Control_c, 0, 64, 80
1, 77785, Control_c, 0, 64, 82
1, 77800, Control_c, 0, 64, 85
1, 77815, Control_c, 0, 64, 87
1, 77830, Control_c, 0, 64, 88
1, 77844, Control_c, 0, 64, 89
1, 77859, Control_c, 0, 64, 90
1, 77874, Control_c, 0, 64, 92
1, 77888, Control_c, 0, 64, 92
1, 77903, Control_c, 0, 64, 93
1, 77918, Control_c, 0, 64, 94
1, 77933, Control_c, 0, 64, 94
1, 77946, Note_on_c, 0, 61, 44
1, 77950, Note_on_c, 0, 52, 28
1, 77970, Control_c, 0, 64, 95
1, 78015, Control_c, 0, 64, 95
1, 78067, Note_off_c, 0, 52, 34
1, 78097, Note_on_c, 0, 64, 34
1, 78106, Note_off_c, 0, 61, 34
1, 78147, Note_on_c, 0, 45, 19
1, 78272, Note_on_c, 0, 57, 50
1, 78275, Note_off_c, 0, 64, 27
1, 78284, Note_on_c, 0, 49, 38
1, 78289, Note_off_c, 0, 45, 29
1, 78302, Note_off_c, 0, 57, 63
1, 78314, Note_off_c, 0, 49, 51
1, 78564, Control_c, 0, 64, 94
1, 78579, Control_c, 0, 64, 90
1, 78583, Note_on_c, 0, 61, 54
1, 78588, Note_on_c, 0, 71, 53
1, 78588, Note_on_c, 0, 81, 70
1, 78594, Control_c, 0, 64, 83
1, 78606, Note_on_c, 0, 73, 49
1, 78606, Note_off_c, 0, 61, 62
1, 78609, Control_c, 0, 64, 73
1, 78609, Note_off_c, 0, 71, 59
1, 78624, Control_c, 0, 64, 62
1, 78633, Note_off_c, 0, 73, 55
1, 78639, Control_c, 0, 64, 0
1, 78652, Note_off_c, 0, 81, 49
1, 78713, Note_on_c, 0, 80, 67
1, 78763, Note_off_c, 0, 80, 62
1, 78841, Note_on_c, 0, 66, 61
1, 78848, Note_on_c, 0, 80, 71
1, 78852, Note_on_c, 0, 69, 51
1, 78862, Note_on_c, 0, 73, 59
1, 78867, Note_off_c, 0, 66, 67
1, 78873, Note_off_c, 0, 69, 56
1, 78886, Note_off_c, 0, 73, 60
1, 78930, Note_off_c, 0, 80, 60
1, 78958, Note_on_c, 0, 78, 73
1, 79005, Note_off_c, 0, 78, 61
1, 79080, Note_on_c, 0, 61, 53
1, 79083, Note_on_c, 0, 78, 67
1, 79086, Note_on_c, 0, 68, 57
1, 79098, Note_on_c, 0, 71, 28
1, 79103, Note_off_c, 0, 61, 61
1, 79107, Note_off_c, 0, 68, 60
1, 79110, Note_on_c, 0, 73, 44
1, 79132, Note_off_c, 0, 71, 31
1, 79147, Note_off_c, 0, 73, 46
1, 79149, Note_off_c, 0, 78, 58
1, 79193, Note_on_c, 0, 77, 63
1, 79250, Note_off_c, 0, 77, 59
1, 79313, Note_on_c, 0, 80, 67
1, 79319, Note_on_c, 0, 66, 57
1, 79321, Note_on_c, 0, 73, 57
1, 79326, Note_on_c, 0, 69, 49
1, 79347, Note_off_c, 0, 69, 60
1, 79348, Note_off_c, 0, 66, 67
1, 79366, Note_off_c, 0, 73, 57
1, 79429, Note_on_c, 0, 78, 67
1, 79439, Note_off_c, 0, 80, 57
1, 79477, Note_off_c, 0, 78, 62
1, 79553, Note_on_c, 0, 78, 64
1, 79557, Note_on_c, 0, 61, 54
1, 79579, Note_on_c, 0, 68, 32
1, 79584, Note_off_c, 0, 61, 61
1, 79611, Note_off_c, 0, 68, 44
1, 79622, Note_off_c, 0, 78, 54
1, 79660, Note_on_c, 0, 77, 61
1, 79717, Note_off_c, 0, 77, 57
1, 79804, Note_on_c, 0, 78, 68
1, 79813, Note_on_c, 0, 73, 44
1, 79820, Note_on_c, 0, 66, 44
1, 79826, Note_on_c, 0, 69, 42
1, 79840, Control_c, 0, 64, 59
1, 79847, Note_off_c, 0, 66, 58
1, 79853, Note_off_c, 0, 69, 61
1, 79855, Control_c, 0, 64, 70
1, 79870, Control_c, 0, 64, 75
1, 79885, Control_c, 0, 64, 79
1, 79900, Control_c, 0, 64, 80
1, 79911, Note_off_c, 0, 73, 0
1, 79911, Note_on_c, 0, 73, 12
1, 79914, Control_c, 0, 64, 82
1, 79929, Control_c, 0, 64, 84
1, 79944, Control_c, 0, 64, 85
1, 79958, Control_c, 0, 64, 86
1, 79973, Control_c, 0, 64, 87
1, 79988, Control_c, 0, 64, 88
1, 80003, Control_c, 0, 64, 89
1, 80018, Control_c, 0, 64, 89
1, 80032, Control_c, 0, 64, 90
1, 80047, Control_c, 0, 64, 90
1, 80050, Note_on_c, 0, 57, 49
1, 80062, Control_c, 0, 64, 91
1, 80091, Control_c, 0, 64, 91
1, 80099, Note_off_c, 0, 57, 57
1, 80135, Note_off_c, 0, 73, 34
1, 80136, Control_c, 0, 64, 92
1, 80168, Note_on_c, 0, 61, 57
1, 80243, Note_off_c, 0, 78, 61
1, 80312, Note_on_c, 0, 54, 65
1, 80319, Note_off_c, 0, 61, 34
1, 80341, Note_off_c, 0, 54, 65
1, 80514, Control_c, 0, 64, 91
1, 80529, Control_c, 0, 64, 88
1, 80541, Note_on_c, 0, 90, 87
1, 80544, Note_on_c, 0, 78, 89
1, 80544, Control_c, 0, 64, 78
1, 80546, Note_on_c, 0, 45, 88
1, 80547, Note_on_c, 0, 81, 65
1, 80550, Note_on_c, 0, 40, 87
1, 80553, Note_on_c, 0, 37, 76
1, 80557, Note_on_c, 0, 33, 71
1, 80559, Control_c, 0, 64, 64
1, 80562, Note_on_c, 0, 85, 63
1, 80570, Note_off_c, 0, 45, 69
1, 80574, Control_c, 0, 64, 0
1, 80576, Note_off_c, 0, 81, 63
1, 80581, Note_off_c, 0, 40, 67
1, 80588, Note_off_c, 0, 85, 67
1, 80588, Note_off_c, 0, 37, 67
1, 80589, Note_off_c, 0, 78, 64
1, 80591, Note_off_c, 0, 33, 67
1, 80593, Note_off_c, 0, 90, 66
1, 80678, Note_on_c, 0, 76, 83
1, 80681, Note_on_c, 0, 88, 84
1, 80716, Note_off_c, 0, 76, 66
1, 80726, Note_off_c, 0, 88, 59
1, 80814, Note_on_c, 0, 38, 92
1, 80815, Note_on_c, 0, 30, 77
1, 80816, Note_on_c, 0, 26, 79
1, 80818, Note_on_c, 0, 78, 86
1, 80818, Note_on_c, 0, 88, 93
1, 80819, Note_on_c, 0, 33, 81
1, 80819, Note_on_c, 0, 76, 92
1, 80825, Control_c, 0, 64, 57
1, 80840, Control_c, 0, 64, 69
1, 80846, Note_on_c, 0, 85, 52
1, 80850, Note_off_c, 0, 26, 68
1, 80851, Note_off_c, 0, 33, 68
1, 80854, Control_c, 0, 64, 76
1, 80857, Note_off_c, 0, 38, 61
1, 80860, Note_off_c, 0, 30, 64
1, 80864, Note_off_c, 0, 88, 65
1, 80866, Note_off_c, 0, 78, 65
1, 80866, Note_off_c, 0, 76, 66
1, 80867, Note_off_c, 0, 85, 54
1, 80869, Control_c, 0, 64, 81
1, 80884, Control_c, 0, 64, 84
1, 80898, Control_c, 0, 64, 85
1, 80901, Poly_aftertouch_c, 0, 28, 127
1, 80913, Control_c, 0, 64, 87
1, 80928, Control_c, 0, 64, 87
1, 80931, Poly_aftertouch_c, 0, 28, 0
1, 80943, Control_c, 0, 64, 89
1, 80958, Note_on_c, 0, 74, 77
1, 80958, Note_on_c, 0, 86, 78
1, 80966, Control_c, 0, 64, 90
1, 80980, Control_c, 0, 64, 92
1, 80995, Control_c, 0, 64, 94
1, 81006, Note_off_c, 0, 86, 59
1, 81006, Note_off_c, 0, 74, 62
1, 81010, Control_c, 0, 64, 94
1, 81040, Control_c, 0, 64, 94
1, 81054, Control_c, 0, 64, 88
1, 81066, Note_on_c, 0, 43, 94
1, 81068, Note_on_c, 0, 74, 86
1, 81069, Control_c, 0, 64, 78
1, 81070, Note_on_c, 0, 34, 77
1, 81071, Note_on_c, 0, 86, 77
1, 81077, Note_on_c, 0, 31, 70
1, 81080, Note_on_c, 0, 82, 74
1, 81081, Note_on_c, 0, 79, 71
1, 81084, Control_c, 0, 64, 67
1, 81099, Control_c, 0, 64, 53
1, 81102, Note_off_c, 0, 31, 63
1, 81105, Note_on_c, 0, 84, 41
1, 81105, Note_off_c, 0, 43, 61
1, 81106, Note_off_c, 0, 74, 64
1, 81106, Note_off_c, 0, 86, 65
1, 81108, Note_off_c, 0, 34, 66
1, 81113, Control_c, 0, 64, 47
1, 81118, Note_off_c, 0, 79, 60
1, 81128, Control_c, 0, 64, 56
1, 81131, Note_off_c, 0, 84, 53
1, 81143, Control_c, 0, 64, 59
1, 81146, Note_off_c, 0, 82, 62
1, 81158, Control_c, 0, 64, 58
1, 81173, Control_c, 0, 64, 55
1, 81183, Note_on_c, 0, 73, 82
1, 81188, Control_c, 0, 64, 52
1, 81189, Note_on_c, 0, 85, 77
1, 81202, Control_c, 0, 64, 50
1, 81211, Note_off_c, 0, 73, 61
1, 81217, Control_c, 0, 64, 48
1, 81219, Note_off_c, 0, 85, 59
1, 81232, Control_c, 0, 64, 39
1, 81247, Control_c, 0, 64, 0
1, 81293, Note_on_c, 0, 50, 96
1, 81297, Note_on_c, 0, 42, 63
1, 81302, Note_on_c, 0, 38, 77
1, 81303, Note_on_c, 0, 78, 88
1, 81304, Note_on_c, 0, 76, 92
1, 81306, Note_on_c, 0, 88, 87
1, 81329, Note_on_c, 0, 85, 47
1, 81330, Note_off_c, 0, 85, 127
1, 81333, Note_off_c, 0, 50, 64
1, 81336, Note_off_c, 0, 38, 63
1, 81340, Note_off_c, 0, 42, 64
1, 81343, Note_off_c, 0, 78, 62
1, 81351, Note_off_c, 0, 88, 62
1, 81351, Note_off_c, 0, 76, 62
1, 81430, Note_on_c, 0, 74, 83
1, 81432, Note_on_c, 0, 86, 78
1, 81446, Note_on_c, 0, 43, 74
1, 81472, Note_off_c, 0, 86, 62
1, 81475, Note_off_c, 0, 74, 63
1, 81484, Note_on_c, 0, 50, 39
1, 81501, Note_off_c, 0, 43, 61
1, 81542, Note_on_c, 0, 58, 93
1, 81546, Note_on_c, 0, 74, 89
1, 81549, Note_on_c, 0, 82, 82
1, 81549, Note_off_c, 0, 50, 64
1, 81551, Note_on_c, 0, 86, 79
1, 81553, Note_on_c, 0, 79, 73
1, 81573, Note_off_c, 0, 58, 63
1, 81578, Note_off_c, 0, 86, 65
1, 81584, Note_off_c, 0, 74, 67
1, 81588, Note_off_c, 0, 79, 60
1, 81616, Note_off_c, 0, 82, 66
1, 81666, Note_on_c, 0, 73, 85
1, 81669, Note_on_c, 0, 85, 79
1, 81693, Note_off_c, 0, 73, 61
1, 81718, Note_off_c, 0, 85, 54
1, 81837, Note_on_c, 0, 54, 77
1, 81839, Note_on_c, 0, 57, 74
1, 81841, Note_on_c, 0, 50, 68
1, 81842, Note_on_c, 0, 86, 87
1, 81843, Note_on_c, 0, 78, 87
1, 81843, Note_on_c, 0, 74, 90
1, 81845, Note_on_c, 0, 81, 76
1, 81849, Control_c, 0, 64, 41
1, 81863, Note_off_c, 0, 57, 65
1, 81863, Control_c, 0, 64, 67
1, 81867, Note_off_c, 0, 50, 66
1, 81867, Note_off_c, 0, 54, 66
1, 81878, Control_c, 0, 64, 72
1, 81893, Control_c, 0, 64, 77
1, 81908, Control_c, 0, 64, 80
1, 81923, Control_c, 0, 64, 83
1, 81937, Control_c, 0, 64, 85
1, 81952, Control_c, 0, 64, 86
1, 81967, Control_c, 0, 64, 88
1, 81982, Control_c, 0, 64, 89
1, 81997, Control_c, 0, 64, 90
1, 82011, Control_c, 0, 64, 91
1, 82041, Control_c, 0, 64, 92
1, 82055, Control_c, 0, 64, 92
1, 82070, Control_c, 0, 64, 93
1, 82085, Control_c, 0, 64, 94
1, 82110, Note_on_c, 0, 42, 80
1, 82111, Note_on_c, 0, 54, 80
1, 82138, Note_off_c, 0, 54, 65
1, 82144, Note_off_c, 0, 42, 67
1, 82190, Control_c, 0, 64, 93
1, 82205, Control_c, 0, 64, 89
1, 82216, Poly_aftertouch_c, 0, 83, 127
1, 82220, Control_c, 0, 64, 81
1, 82234, Note_on_c, 0, 57, 76
1, 82234, Control_c, 0, 64, 69
1, 82243, Note_on_c, 0, 45, 72
1, 82249, Control_c, 0, 64, 0
1, 82264, Note_off_c, 0, 57, 63
1, 82282, Note_off_c, 0, 45, 65
1, 82285, Note_off_c, 0, 86, 56
1, 82298, Note_off_c, 0, 81, 58
1, 82306, Poly_aftertouch_c, 0, 83, 0
1, 82316, Note_off_c, 0, 74, 58
1, 82319, Note_off_c, 0, 78, 60
1, 82407, Note_on_c, 0, 50, 71
1, 82410, Note_on_c, 0, 38, 69
1, 82463, Note_off_c, 0, 50, 61
1, 82478, Note_off_c, 0, 38, 60
1, 82816, Note_on_c, 0, 74, 34
1, 82970, Note_on_c, 0, 78, 61
1, 83045, Note_off_c, 0, 74, 37
1, 83161, Control_c, 0, 64, 57
1, 83176, Control_c, 0, 64, 65
1, 83181, Note_on_c, 0, 71, 51
1, 83191, Control_c, 0, 64, 68
1, 83213, Control_c, 0, 64, 69
1, 83228, Control_c, 0, 64, 72
1, 83238, Note_off_c, 0, 78, 55
1, 83243, Control_c, 0, 64, 75
1, 83257, Control_c, 0, 64, 79
1, 83272, Control_c, 0, 64, 81
1, 83286, Note_off_c, 0, 71, 60
1, 83287, Control_c, 0, 64, 83
1, 83301, Control_c, 0, 64, 84
1, 83316, Control_c, 0, 64, 86
1, 83331, Control_c, 0, 64, 87
1, 83346, Control_c, 0, 64, 89
1, 83361, Control_c, 0, 64, 90
1, 83376, Control_c, 0, 64, 91
1, 83390, Control_c, 0, 64, 91
1, 83405, Control_c, 0, 64, 92
1, 83435, Control_c, 0, 64, 92
1, 83486, Note_on_c, 0, 54, 21
1, 83524, Control_c, 0, 64, 93
1, 83546, Poly_aftertouch_c, 0, 62, 127
1, 83614, Note_off_c, 0, 54, 30
1, 83635, Note_on_c, 0, 47, 38
1, 83643, Note_on_c, 0, 66, 43
1, 83695, Poly_aftertouch_c, 0, 62, 0
1, 83705, Note_off_c, 0, 47, 50
1, 83784, Note_on_c, 0, 59, 49
1, 83793, Note_on_c, 0, 50, 30
1, 83806, Note_off_c, 0, 66, 28
1, 83826, Note_off_c, 0, 59, 61
1, 83841, Note_off_c, 0, 50, 49
1, 84067, Note_on_c, 0, 74, 53
1, 84080, Control_c, 0, 64, 92
1, 84110, Control_c, 0, 64, 91
1, 84124, Control_c, 0, 64, 89
1, 84139, Control_c, 0, 64, 86
1, 84154, Control_c, 0, 64, 81
1, 84169, Control_c, 0, 64, 75
1, 84184, Control_c, 0, 64, 67
1, 84199, Control_c, 0, 64, 51
1, 84204, Note_on_c, 0, 78, 56
1, 84213, Control_c, 0, 64, 0
1, 84227, Note_off_c, 0, 74, 38
1, 84375, Note_on_c, 0, 71, 49
1, 84405, Control_c, 0, 64, 39
1, 84413, Note_off_c, 0, 78, 55
1, 84420, Control_c, 0, 64, 65
1, 84435, Control_c, 0, 64, 70
1, 84449, Control_c, 0, 64, 73
1, 84455, Note_off_c, 0, 71, 61
1, 84464, Control_c, 0, 64, 76
1, 84479, Control_c, 0, 64, 79
1, 84494, Control_c, 0, 64, 82
1, 84509, Control_c, 0, 64, 85
1, 84525, Control_c, 0, 64, 87
1, 84540, Control_c, 0, 64, 88
1, 84554, Control_c, 0, 64, 90
1, 84569, Control_c, 0, 64, 91
1, 84584, Control_c, 0, 64, 92
1, 84599, Control_c, 0, 64, 93
1, 84614, Control_c, 0, 64, 94
1, 84643, Control_c, 0, 64, 94
1, 84658, Control_c, 0, 64, 95
1, 84660, Note_on_c, 0, 54, 24
1, 84679, Note_on_c, 0, 62, 35
1, 84688, Control_c, 0, 64, 95
1, 84740, Control_c, 0, 64, 96
1, 84815, Note_off_c, 0, 54, 37
1, 84818, Note_on_c, 0, 47, 37
1, 84824, Note_on_c, 0, 66, 41
1, 84854, Note_off_c, 0, 62, 30
1, 84936, Note_off_c, 0, 47, 35
1, 84987, Note_on_c, 0, 59, 45
1, 85003, Note_on_c, 0, 50, 32
1, 85012, Note_off_c, 0, 59, 57
1, 85031, Note_off_c, 0, 66, 23
1, 85038, Note_off_c, 0, 50, 54
1, 85272, Control_c, 0, 64, 95
1, 85287, Control_c, 0, 64, 92
1, 85289, Note_on_c, 0, 95, 68
1, 85298, Note_on_c, 0, 86, 59
1, 85302, Control_c, 0, 64, 86
1, 85318, Control_c, 0, 64, 78
1, 85321, Note_off_c, 0, 86, 61
1, 85333, Control_c, 0, 64, 69
1, 85348, Control_c, 0, 64, 51
1, 85363, Control_c, 0, 64, 0
1, 85371, Note_off_c, 0, 95, 52
1, 85407, Control_c, 0, 64, 33
1, 85417, Note_on_c, 0, 98, 74
1, 85418, Note_on_c, 0, 40, 39
1, 85437, Control_c, 0, 64, 29
1, 85462, Note_off_c, 0, 40, 53
1, 85478, Note_off_c, 0, 98, 64
1, 85489, Control_c, 0, 64, 32
1, 85503, Control_c, 0, 64, 34
1, 85507, Note_on_c, 0, 49, 34
1, 85518, Control_c, 0, 64, 34
1, 85537, Note_on_c, 0, 98, 60
1, 85551, Note_on_c, 0, 97, 78
1, 85552, Note_on_c, 0, 88, 68
1, 85553, Note_off_c, 0, 49, 61
1, 85558, Note_on_c, 0, 57, 52
1, 85577, Control_c, 0, 64, 35
1, 85579, Note_off_c, 0, 98, 62
1, 85581, Note_off_c, 0, 57, 58
1, 85583, Note_off_c, 0, 88, 62
1, 85587, Note_off_c, 0, 97, 59
1, 85592, Control_c, 0, 64, 36
1, 85607, Control_c, 0, 64, 37
1, 85673, Note_on_c, 0, 95, 76
1, 85674, Note_on_c, 0, 86, 71
1, 85681, Control_c, 0, 64, 38
1, 85698, Note_off_c, 0, 86, 68
1, 85701, Note_off_c, 0, 95, 65
1, 85725, Control_c, 0, 64, 38
1, 85740, Control_c, 0, 64, 41
1, 85755, Control_c, 0, 64, 43
1, 85769, Control_c, 0, 64, 46
1, 85784, Control_c, 0, 64, 47
1, 85788, Note_on_c, 0, 61, 65
1, 85788, Note_on_c, 0, 69, 53
1, 85794, Note_on_c, 0, 85, 66
1, 85796, Note_on_c, 0, 93, 80
1, 85810, Note_off_c, 0, 69, 60
1, 85814, Note_off_c, 0, 61, 65
1, 85814, Control_c, 0, 64, 47
1, 85816, Note_off_c, 0, 85, 67
1, 85844, Control_c, 0, 64, 49
1, 85846, Note_off_c, 0, 93, 61
1, 85859, Control_c, 0, 64, 50
1, 85888, Control_c, 0, 64, 49
1, 85903, Control_c, 0, 64, 47
1, 85913, Note_on_c, 0, 97, 80
1, 85918, Control_c, 0, 64, 44
1, 85918, Note_on_c, 0, 88, 74
1, 85933, Control_c, 0, 64, 42
1, 85948, Control_c, 0, 64, 42
1, 85957, Note_off_c, 0, 88, 62
1, 85960, Note_off_c, 0, 97, 65
1, 86036, Control_c, 0, 64, 41
1, 86037, Note_on_c, 0, 86, 80
1, 86037, Note_on_c, 0, 95, 74
1, 86039, Note_on_c, 0, 56, 53
1, 86050, Note_on_c, 0, 52, 25
1, 86051, Control_c, 0, 64, 39
1, 86061, Note_on_c, 0, 59, 10
1, 86062, Note_off_c, 0, 56, 60
1, 86064, Note_off_c, 0, 86, 64
1, 86066, Control_c, 0, 64, 37
1, 86081, Control_c, 0, 64, 36
1, 86089, Note_off_c, 0, 52, 30
1, 86095, Control_c, 0, 64, 35
1, 86101, Note_off_c, 0, 59, 30
1, 86110, Control_c, 0, 64, 33
1, 86119, Note_off_c, 0, 95, 52
1, 86126, Control_c, 0, 64, 32
1, 86141, Control_c, 0, 64, 34
1, 86152, Note_on_c, 0, 93, 74
1, 86156, Control_c, 0, 64, 36
1, 86160, Note_on_c, 0, 85, 76
1, 86171, Control_c, 0, 64, 39
1, 86183, Note_off_c, 0, 85, 66
1, 86186, Control_c, 0, 64, 41
1, 86207, Control_c, 0, 64, 42
1, 86216, Note_off_c, 0, 93, 60
1, 86222, Control_c, 0, 64, 42
1, 86237, Control_c, 0, 64, 44
1, 86252, Control_c, 0, 64, 45
1, 86282, Control_c, 0, 64, 44
1, 86283, Note_on_c, 0, 92, 78
1, 86288, Note_on_c, 0, 64, 50
1, 86288, Note_on_c, 0, 74, 54
1, 86297, Control_c, 0, 64, 43
1, 86300, Note_on_c, 0, 68, 38
1, 86301, Note_on_c, 0, 83, 52
1, 86309, Note_off_c, 0, 74, 66
1, 86312, Control_c, 0, 64, 42
1, 86313, Note_off_c, 0, 64, 63
1, 86321, Note_off_c, 0, 83, 57
1, 86326, Control_c, 0, 64, 41
1, 86327, Note_off_c, 0, 68, 52
1, 86336, Note_off_c, 0, 92, 63
1, 86415, Control_c, 0, 64, 41
1, 86416, Note_on_c, 0, 95, 72
1, 86430, Control_c, 0, 64, 42
1, 86431, Note_on_c, 0, 86, 51
1, 86455, Note_off_c, 0, 86, 57
1, 86460, Control_c, 0, 64, 41
1, 86463, Note_off_c, 0, 95, 57
1, 86474, Control_c, 0, 64, 40
1, 86518, Control_c, 0, 64, 41
1, 86541, Note_on_c, 0, 76, 58
1, 86543, Note_on_c, 0, 69, 52
1, 86548, Control_c, 0, 64, 41
1, 86553, Note_on_c, 0, 93, 73
1, 86556, Note_on_c, 0, 85, 59
1, 86562, Note_off_c, 0, 76, 64
1, 86563, Control_c, 0, 64, 42
1, 86573, Note_off_c, 0, 69, 65
1, 86574, Note_off_c, 0, 85, 64
1, 86578, Control_c, 0, 64, 43
1, 86651, Control_c, 0, 64, 42
1, 86693, Note_on_c, 0, 97, 69
1, 86711, Note_off_c, 0, 93, 25
1, 86725, Control_c, 0, 64, 42
1, 86740, Control_c, 0, 64, 41
1, 86761, Note_off_c, 0, 97, 62
1, 86799, Control_c, 0, 64, 42
1, 86828, Note_on_c, 0, 76, 54
1, 86830, Note_on_c, 0, 92, 72
1, 86843, Control_c, 0, 64, 41
1, 86848, Note_off_c, 0, 76, 66
1, 86849, Note_on_c, 0, 83, 21
1, 86852, Note_on_c, 0, 86, 45
1, 86878, Note_off_c, 0, 86, 52
1, 86881, Note_off_c, 0, 92, 54
1, 86888, Control_c, 0, 64, 41
1, 86889, Note_off_c, 0, 83, 30
1, 86919, Control_c, 0, 64, 40
1, 86934, Control_c, 0, 64, 39
1, 86956, Control_c, 0, 64, 39
1, 86997, Note_on_c, 0, 95, 59
1, 87089, Control_c, 0, 64, 39
1, 87104, Control_c, 0, 64, 41
1, 87114, Note_off_c, 0, 95, 63
1, 87119, Control_c, 0, 64, 41
1, 87134, Control_c, 0, 64, 42
1, 87166, Note_on_c, 0, 93, 60
1, 87167, Note_on_c, 0, 69, 41
1, 87182, Note_on_c, 0, 85, 45
1, 87187, Note_on_c, 0, 76, 41
1, 87200, Note_off_c, 0, 69, 59
1, 87201, Note_off_c, 0, 93, 62
1, 87205, Note_off_c, 0, 85, 57
1, 87208, Control_c, 0, 64, 42
1, 87210, Note_off_c, 0, 76, 59
1, 87326, Control_c, 0, 64, 41
1, 87385, Control_c, 0, 64, 41
1, 87459, Control_c, 0, 64, 42
1, 87516, Note_on_c, 0, 73, 45
1, 87548, Control_c, 0, 64, 42
1, 87563, Control_c, 0, 64, 41
1, 87578, Control_c, 0, 64, 41
1, 87622, Control_c, 0, 64, 40
1, 87637, Control_c, 0, 64, 38
1, 87652, Control_c, 0, 64, 36
1, 87666, Control_c, 0, 64, 36
1, 87677, Note_on_c, 0, 76, 45
1, 87681, Control_c, 0, 64, 34
1, 87704, Control_c, 0, 64, 25
1, 87719, Control_c, 0, 64, 0
1, 87760, Note_off_c, 0, 73, 31
1, 87883, Control_c, 0, 64, 53
1, 87883, Note_on_c, 0, 69, 51
1, 87897, Control_c, 0, 64, 66
1, 87902, Note_off_c, 0, 76, 34
1, 87912, Control_c, 0, 64, 70
1, 87927, Control_c, 0, 64, 73
1, 87942, Control_c, 0, 64, 75
1, 87957, Control_c, 0, 64, 78
1, 87965, Note_off_c, 0, 69, 61
1, 87971, Control_c, 0, 64, 81
1, 87986, Control_c, 0, 64, 83
1, 88001, Control_c, 0, 64, 86
1, 88016, Control_c, 0, 64, 87
1, 88031, Control_c, 0, 64, 89
1, 88045, Control_c, 0, 64, 91
1, 88060, Control_c, 0, 64, 92
1, 88075, Control_c, 0, 64, 93
1, 88090, Control_c, 0, 64, 94
1, 88104, Control_c, 0, 64, 94
1, 88120, Control_c, 0, 64, 95
1, 88135, Control_c, 0, 64, 95
1, 88150, Control_c, 0, 64, 96
1, 88159, Note_on_c, 0, 52, 20
1, 88165, Control_c, 0, 64, 96
1, 88178, Note_on_c, 0, 61, 38
1, 88224, Control_c, 0, 64, 97
1, 88276, Note_off_c, 0, 52, 32
1, 88312, Note_on_c, 0, 64, 36
1, 88322, Note_on_c, 0, 45, 31
1, 88337, Note_off_c, 0, 61, 32
1, 88342, Control_c, 0, 64, 97
1, 88398, Note_off_c, 0, 64, 37
1, 88449, Note_off_c, 0, 45, 32
1, 88466, Note_on_c, 0, 57, 49
1, 88482, Note_on_c, 0, 49, 37
1, 88504, Note_off_c, 0, 57, 62
1, 88512, Control_c, 0, 64, 98
1, 88525, Note_off_c, 0, 49, 48
1, 88558, Control_c, 0, 64, 98
1, 88602, Control_c, 0, 64, 99
1, 88731, Note_on_c, 0, 85, 73
1, 88854, Control_c, 0, 64, 99
1, 88860, Note_on_c, 0, 88, 64
1, 88881, Note_off_c, 0, 85, 49
1, 88984, Note_on_c, 0, 81, 62
1, 88998, Note_off_c, 0, 88, 60
1, 88998, Poly_aftertouch_c, 0, 64, 127
1, 89001, Note_on_c, 0, 73, 46
1, 89013, Note_off_c, 0, 81, 64
1, 89036, Poly_aftertouch_c, 0, 64, 0
1, 89104, Note_on_c, 0, 69, 53
1, 89111, Note_on_c, 0, 76, 49
1, 89132, Note_off_c, 0, 76, 55
1, 89134, Note_off_c, 0, 73, 50
1, 89141, Note_off_c, 0, 69, 65
1, 89248, Note_on_c, 0, 61, 66
1, 89321, Note_off_c, 0, 61, 50
1, 89370, Note_on_c, 0, 64, 58
1, 89421, Note_off_c, 0, 64, 58
1, 89440, Control_c, 0, 64, 99
1, 89514, Control_c, 0, 64, 98
1, 89527, Note_on_c, 0, 57, 46
1, 89542, Note_on_c, 0, 45, 44
1, 89543, Note_on_c, 0, 49, 44
1, 89543, Control_c, 0, 64, 98
1, 89558, Control_c, 0, 64, 97
1, 89573, Note_off_c, 0, 45, 62
1, 89575, Note_off_c, 0, 57, 61
1, 89583, Note_off_c, 0, 49, 62
1, 89588, Control_c, 0, 64, 97
1, 89603, Control_c, 0, 64, 96
1, 89632, Control_c, 0, 64, 96
1, 89647, Control_c, 0, 64, 95
1, 89662, Control_c, 0, 64, 95
1, 89677, Control_c, 0, 64, 94
1, 89692, Control_c, 0, 64, 92
1, 89707, Control_c, 0, 64, 89
1, 89722, Control_c, 0, 64, 83
1, 89736, Control_c, 0, 64, 74
1, 89751, Control_c, 0, 64, 63
1, 89766, Control_c, 0, 64, 0
1, 89779, Note_on_c, 0, 85, 72
1, 89779, Note_on_c, 0, 81, 78
1, 89781, Note_on_c, 0, 73, 75
1, 89782, Note_on_c, 0, 71, 60
1, 89792, Note_on_c, 0, 61, 58
1, 89801, Note_on_c, 0, 65, 48
1, 89825, Note_off_c, 0, 73, 52
1, 89877, Note_off_c, 0, 85, 58
1, 89880, Note_off_c, 0, 65, 46
1, 89895, Note_on_c, 0, 80, 69
1, 89896, Note_off_c, 0, 71, 58
1, 89901, Note_off_c, 0, 61, 58
1, 89908, Note_off_c, 0, 81, 51
1, 89943, Note_off_c, 0, 80, 64
1, 90036, Note_on_c, 0, 85, 62
1, 90044, Note_on_c, 0, 80, 65
1, 90049, Note_on_c, 0, 66, 48
1, 90052, Note_on_c, 0, 73, 57
1, 90059, Note_on_c, 0, 71, 31
1, 90082, Note_off_c, 0, 73, 53
1, 90113, Note_off_c, 0, 85, 58
1, 90157, Note_on_c, 0, 78, 68
1, 90160, Note_on_c, 0, 69, 60
1, 90171, Note_off_c, 0, 71, 48
1, 90182, Note_off_c, 0, 80, 50
1, 90189, Note_off_c, 0, 69, 69
1, 90196, Note_off_c, 0, 66, 45
1, 90205, Note_off_c, 0, 78, 60
1, 90284, Note_on_c, 0, 69, 59
1, 90291, Note_on_c, 0, 61, 55
1, 90294, Note_on_c, 0, 77, 63
1, 90305, Note_on_c, 0, 73, 36
1, 90311, Note_on_c, 0, 85, 28
1, 90336, Note_off_c, 0, 73, 33
1, 90336, Note_off_c, 0, 85, 48
1, 90348, Note_off_c, 0, 69, 50
1, 90414, Note_on_c, 0, 68, 56
1, 90432, Note_off_c, 0, 77, 22
1, 90434, Note_off_c, 0, 68, 62
1, 90435, Note_off_c, 0, 61, 56
1, 90536, Note_on_c, 0, 85, 63
1, 90536, Note_on_c, 0, 71, 66
1, 90536, Note_on_c, 0, 80, 65
1, 90554, Note_on_c, 0, 66, 52
1, 90616, Note_off_c, 0, 85, 51
1, 90640, Note_on_c, 0, 78, 70
1, 90658, Note_on_c, 0, 69, 53
1, 90658, Note_off_c, 0, 71, 51
1, 90666, Note_off_c, 0, 80, 56
1, 90672, Note_off_c, 0, 78, 59
1, 90684, Note_off_c, 0, 69, 65
1, 90706, Note_off_c, 0, 66, 58
1, 90780, Note_on_c, 0, 78, 64
1, 90783, Note_on_c, 0, 69, 56
1, 90786, Note_on_c, 0, 61, 52
1, 90790, Note_on_c, 0, 85, 39
1, 90802, Note_on_c, 0, 73, 25
1, 90813, Note_off_c, 0, 78, 60
1, 90834, Note_off_c, 0, 69, 56
1, 90839, Note_off_c, 0, 73, 40
1, 90845, Note_off_c, 0, 85, 41
1, 90878, Note_off_c, 0, 61, 45
1, 90891, Note_on_c, 0, 68, 51
1, 90902, Note_on_c, 0, 77, 62
1, 90915, Note_off_c, 0, 68, 60
1, 90935, Note_off_c, 0, 77, 63
1, 91065, Note_on_c, 0, 85, 60
1, 91071, Note_on_c, 0, 66, 51
1, 91072, Note_on_c, 0, 69, 46
1, 91076, Note_on_c, 0, 78, 52
1, 91080, Note_on_c, 0, 73, 45
1, 91101, Control_c, 0, 64, 49
1, 91108, Note_off_c, 0, 69, 61
1, 91109, Note_off_c, 0, 66, 65
1, 91114, Control_c, 0, 64, 68
1, 91129, Control_c, 0, 64, 74
1, 91137, Note_off_c, 0, 78, 44
1, 91144, Control_c, 0, 64, 78
1, 91159, Control_c, 0, 64, 80
1, 91174, Control_c, 0, 64, 83
1, 91188, Control_c, 0, 64, 85
1, 91203, Control_c, 0, 64, 87
1, 91218, Control_c, 0, 64, 89
1, 91233, Control_c, 0, 64, 90
1, 91248, Control_c, 0, 64, 90
1, 91263, Control_c, 0, 64, 91
1, 91278, Control_c, 0, 64, 92
1, 91293, Control_c, 0, 64, 92
1, 91307, Control_c, 0, 64, 93
1, 91312, Note_on_c, 0, 57, 49
1, 91322, Control_c, 0, 64, 93
1, 91368, Note_off_c, 0, 57, 58
1, 91376, Note_off_c, 0, 73, 9
1, 91429, Note_on_c, 0, 61, 60
1, 91507, Note_off_c, 0, 85, 33
1, 91562, Note_off_c, 0, 61, 57
1, 91563, Note_on_c, 0, 54, 68
1, 91582, Control_c, 0, 64, 94
1, 91588, Note_off_c, 0, 54, 65
1, 91716, Control_c, 0, 64, 94
1, 91790, Control_c, 0, 64, 93
1, 91805, Control_c, 0, 64, 87
1, 91807, Note_on_c, 0, 90, 95
1, 91811, Note_on_c, 0, 78, 100
1, 91811, Note_on_c, 0, 81, 76
1, 91813, Note_on_c, 0, 45, 91
1, 91820, Control_c, 0, 64, 78
1, 91820, Note_on_c, 0, 40, 83
1, 91823, Note_on_c, 0, 33, 74
1, 91835, Note_on_c, 0, 37, 63
1, 91835, Control_c, 0, 64, 65
1, 91836, Poly_aftertouch_c, 0, 39, 0
1, 91841, Note_off_c, 0, 45, 69
1, 91844, Note_on_c, 0, 85, 47
1, 91847, Note_off_c, 0, 81, 62
1, 91850, Control_c, 0, 64, 0
1, 91850, Note_off_c, 0, 78, 61
1, 91852, Note_off_c, 0, 40, 66
1, 91856, Note_off_c, 0, 90, 66
1, 91860, Note_off_c, 0, 37, 61
1, 91865, Note_off_c, 0, 33, 67
1, 91868, Note_off_c, 0, 85, 50
1, 91937, Note_on_c, 0, 88, 85
1, 91941, Note_on_c, 0, 76, 80
1, 91977, Note_off_c, 0, 76, 64
1, 91986, Note_off_c, 0, 88, 62
1, 92071, Note_on_c, 0, 38, 95
1, 92072, Control_c, 0, 64, 58
1, 92074, Note_on_c, 0, 78, 88
1, 92075, Note_on_c, 0, 26, 79
1, 92076, Note_on_c, 0, 88, 88
1, 92077, Note_on_c, 0, 76, 90
1, 92080, Note_on_c, 0, 33, 81
1, 92081, Note_on_c, 0, 30, 80
1, 92087, Control_c, 0, 64, 68
1, 92102, Control_c, 0, 64, 73
1, 92107, Poly_aftertouch_c, 0, 34, 0
1, 92111, Note_off_c, 0, 26, 66
1, 92114, Note_off_c, 0, 33, 67
1, 92117, Control_c, 0, 64, 78
1, 92120, Note_off_c, 0, 88, 64
1, 92122, Note_off_c, 0, 78, 63
1, 92124, Note_off_c, 0, 30, 62
1, 92126, Note_off_c, 0, 76, 64
1, 92127, Note_off_c, 0, 38, 61
1, 92131, Control_c, 0, 64, 82
1, 92146, Control_c, 0, 64, 84
1, 92161, Control_c, 0, 64, 86
1, 92176, Control_c, 0, 64, 86
1, 92199, Control_c, 0, 64, 87
1, 92208, Note_on_c, 0, 74, 81
1, 92209, Note_on_c, 0, 86, 78
1, 92213, Control_c, 0, 64, 88
1, 92228, Control_c, 0, 64, 89
1, 92243, Note_off_c, 0, 74, 54
1, 92243, Control_c, 0, 64, 91
1, 92250, Note_off_c, 0, 86, 57
1, 92258, Control_c, 0, 64, 92
1, 92317, Note_on_c, 0, 43, 76
1, 92324, Note_on_c, 0, 74, 87
1, 92327, Note_on_c, 0, 34, 68
1, 92327, Note_on_c, 0, 86, 82
1, 92332, Control_c, 0, 64, 92
1, 92333, Note_on_c, 0, 82, 77
1, 92333, Note_on_c, 0, 31, 73
1, 92338, Note_on_c, 0, 79, 66
1, 92346, Control_c, 0, 64, 87
1, 92357, Note_off_c, 0, 31, 65
1, 92361, Control_c, 0, 64, 79
1, 92363, Note_off_c, 0, 74, 64
1, 92366, Note_off_c, 0, 34, 66
1, 92366, Note_off_c, 0, 86, 64
1, 92368, Note_off_c, 0, 43, 61
1, 92369, Note_off_c, 0, 79, 62
1, 92376, Control_c, 0, 64, 67
1, 92391, Control_c, 0, 64, 0
1, 92398, Note_off_c, 0, 82, 63
1, 92440, Note_on_c, 0, 73, 83
1, 92448, Note_on_c, 0, 85, 76
1, 92472, Note_off_c, 0, 85, 64
1, 92475, Note_off_c, 0, 73, 63
1, 92560, Note_on_c, 0, 50, 85
1, 92564, Note_on_c, 0, 38, 78
1, 92570, Note_on_c, 0, 42, 70
1, 92570, Note_on_c, 0, 76, 93
1, 92571, Note_on_c, 0, 78, 89
1, 92574, Note_on_c, 0, 88, 88
1, 92586, Note_on_c, 0, 85, 61
1, 92603, Note_off_c, 0, 38, 66
1, 92608, Note_off_c, 0, 42, 66
1, 92608, Note_off_c, 0, 50, 62
1, 92608, Note_off_c, 0, 78, 62
1, 92612, Note_off_c, 0, 85, 68
1, 92618, Note_off_c, 0, 76, 67
1, 92621, Note_off_c, 0, 88, 64
1, 92702, Note_on_c, 0, 74, 82
1, 92704, Note_on_c, 0, 86, 77
1, 92718, Note_on_c, 0, 43, 66
1, 92750, Note_off_c, 0, 86, 60
1, 92753, Note_off_c, 0, 74, 63
1, 92757, Note_on_c, 0, 50, 49
1, 92765, Note_off_c, 0, 43, 62
1, 92813, Note_on_c, 0, 58, 95
1, 92819, Note_on_c, 0, 74, 85
1, 92822, Note_on_c, 0, 82, 82
1, 92824, Note_on_c, 0, 86, 78
1, 92827, Note_on_c, 0, 79, 77
1, 92838, Note_off_c, 0, 50, 62
1, 92852, Note_off_c, 0, 58, 62
1, 92855, Note_off_c, 0, 74, 67
1, 92856, Note_off_c, 0, 86, 63
1, 92869, Note_off_c, 0, 79, 60
1, 92894, Note_off_c, 0, 82, 65
1, 92947, Note_on_c, 0, 73, 86
1, 92950, Note_on_c, 0, 85, 79
1, 92981, Note_off_c, 0, 73, 61
1, 93007, Note_off_c, 0, 85, 62
1, 93107, Note_on_c, 0, 81, 73
1, 93108, Note_on_c, 0, 57, 81
1, 93111, Note_on_c, 0, 50, 73
1, 93111, Note_on_c, 0, 78, 89
1, 93111, Note_on_c, 0, 86, 89
1, 93112, Note_on_c, 0, 54, 78
1, 93113, Note_on_c, 0, 74, 91
1, 93134, Note_off_c, 0, 57, 67
1, 93140, Control_c, 0, 64, 64
1, 93144, Note_off_c, 0, 50, 66
1, 93144, Note_off_c, 0, 54, 65
1, 93155, Control_c, 0, 64, 70
1, 93169, Control_c, 0, 64, 75
1, 93184, Control_c, 0, 64, 79
1, 93199, Control_c, 0, 64, 81
1, 93213, Control_c, 0, 64, 83
1, 93228, Control_c, 0, 64, 85
1, 93243, Control_c, 0, 64, 86
1, 93258, Control_c, 0, 64, 88
1, 93273, Control_c, 0, 64, 89
1, 93287, Control_c, 0, 64, 91
1, 93302, Control_c, 0, 64, 93
1, 93318, Control_c, 0, 64, 95
1, 93333, Control_c, 0, 64, 96
1, 93348, Control_c, 0, 64, 97
1, 93363, Control_c, 0, 64, 98
1, 93371, Note_on_c, 0, 54, 80
1, 93372, Note_on_c, 0, 42, 79
1, 93405, Note_off_c, 0, 54, 61
1, 93412, Note_off_c, 0, 42, 64
1, 93452, Control_c, 0, 64, 97
1, 93466, Control_c, 0, 64, 94
1, 93481, Control_c, 0, 64, 87
1, 93496, Control_c, 0, 64, 75
1, 93502, Note_on_c, 0, 57, 77
1, 93506, Note_on_c, 0, 45, 77
1, 93511, Control_c, 0, 64, 64
1, 93526, Control_c, 0, 64, 0
1, 93531, Note_off_c, 0, 57, 65
1, 93546, Note_off_c, 0, 86, 54
1, 93549, Note_off_c, 0, 45, 65
1, 93574, Note_off_c, 0, 81, 58
1, 93597, Note_off_c, 0, 74, 57
1, 93598, Note_off_c, 0, 78, 59
1, 93677, Note_on_c, 0, 50, 72
1, 93686, Note_on_c, 0, 38, 71
1, 93748, Note_off_c, 0, 50, 61
1, 93752, Note_off_c, 0, 38, 60
1, 94037, Note_on_c, 0, 74, 47
1, 94206, Note_on_c, 0, 78, 53
1, 94252, Note_off_c, 0, 74, 51
1, 94423, Note_on_c, 0, 71, 46
1, 94467, Note_off_c, 0, 78, 52
1, 94474, Control_c, 0, 64, 47
1, 94489, Control_c, 0, 64, 64
1, 94504, Control_c, 0, 64, 67
1, 94519, Control_c, 0, 64, 69
1, 94521, Note_off_c, 0, 71, 60
1, 94534, Control_c, 0, 64, 71
1, 94548, Control_c, 0, 64, 75
1, 94563, Control_c, 0, 64, 78
1, 94578, Control_c, 0, 64, 81
1, 94593, Control_c, 0, 64, 84
1, 94608, Control_c, 0, 64, 85
1, 94622, Control_c, 0, 64, 87
1, 94637, Control_c, 0, 64, 89
1, 94652, Control_c, 0, 64, 90
1, 94667, Control_c, 0, 64, 92
1, 94682, Control_c, 0, 64, 93
1, 94697, Control_c, 0, 64, 94
1, 94711, Note_on_c, 0, 54, 28
1, 94712, Control_c, 0, 64, 95
1, 94727, Control_c, 0, 64, 96
1, 94741, Control_c, 0, 64, 96
1, 94750, Note_on_c, 0, 62, 24
1, 94756, Control_c, 0, 64, 97
1, 94786, Control_c, 0, 64, 97
1, 94801, Control_c, 0, 64, 98
1, 94830, Control_c, 0, 64, 98
1, 94867, Note_on_c, 0, 47, 41
1, 94874, Control_c, 0, 64, 99
1, 94883, Note_off_c, 0, 54, 31
1, 94884, Note_on_c, 0, 66, 37
1, 94907, Note_off_c, 0, 62, 24
1, 94968, Note_off_c, 0, 47, 37
1, 95024, Control_c, 0, 64, 99
1, 95043, Note_on_c, 0, 59, 48
1, 95062, Note_on_c, 0, 50, 22
1, 95063, Note_off_c, 0, 66, 27
1, 95085, Note_off_c, 0, 59, 60
1, 95112, Control_c, 0, 64, 100
1, 95138, Note_off_c, 0, 50, 40
1, 95171, Control_c, 0, 64, 100
1, 95253, Control_c, 0, 64, 101
1, 95386, Control_c, 0, 64, 101
1, 95389, Note_on_c, 0, 86, 61
1, 95532, Note_on_c, 0, 90, 64
1, 95576, Note_off_c, 0, 86, 32
1, 95608, Control_c, 0, 64, 102
1, 95656, Note_on_c, 0, 66, 36
1, 95675, Note_on_c, 0, 83, 53
1, 95684, Note_on_c, 0, 74, 39
1, 95684, Note_off_c, 0, 90, 60
1, 95693, Note_off_c, 0, 66, 51
1, 95708, Note_off_c, 0, 83, 64
1, 95805, Note_on_c, 0, 78, 46
1, 95810, Note_on_c, 0, 71, 44
1, 95828, Note_off_c, 0, 74, 52
1, 95829, Note_off_c, 0, 78, 51
1, 95837, Note_off_c, 0, 71, 56
1, 95973, Note_on_c, 0, 62, 50
1, 95993, Note_on_c, 0, 54, 29
1, 96032, Note_off_c, 0, 54, 47
1, 96111, Note_on_c, 0, 66, 52
1, 96143, Note_off_c, 0, 62, 50
1, 96181, Note_off_c, 0, 66, 57
1, 96268, Control_c, 0, 64, 101
1, 96296, Note_on_c, 0, 47, 43
1, 96298, Control_c, 0, 64, 101
1, 96313, Control_c, 0, 64, 99
1, 96313, Note_on_c, 0, 59, 35
1, 96325, Note_on_c, 0, 50, 30
1, 96328, Control_c, 0, 64, 94
1, 96342, Control_c, 0, 64, 85
1, 96357, Control_c, 0, 64, 74
1, 96372, Control_c, 0, 64, 48
1, 96387, Control_c, 0, 64, 0
1, 96446, Control_c, 0, 64, 49
1, 96461, Control_c, 0, 64, 63
1, 96476, Control_c, 0, 64, 65
1, 96478, Note_off_c, 0, 59, 38
1, 96480, Note_off_c, 0, 47, 43
1, 96491, Control_c, 0, 64, 66
1, 96506, Control_c, 0, 64, 67
1, 96513, Note_off_c, 0, 50, 39
1, 96521, Control_c, 0, 64, 69
1, 96536, Control_c, 0, 64, 71
1, 96551, Control_c, 0, 64, 73
1, 96566, Control_c, 0, 64, 74
1, 96581, Control_c, 0, 64, 75
1, 96596, Control_c, 0, 64, 76
1, 96610, Control_c, 0, 64, 77
1, 96625, Control_c, 0, 64, 78
1, 96642, Note_on_c, 0, 86, 53
1, 96643, Note_on_c, 0, 95, 60
1, 96663, Note_on_c, 0, 94, 47
1, 96667, Note_off_c, 0, 86, 56
1, 96669, Control_c, 0, 64, 77
1, 96691, Control_c, 0, 64, 74
1, 96706, Control_c, 0, 64, 65
1, 96721, Control_c, 0, 64, 0
1, 96770, Note_off_c, 0, 94, 26
1, 96784, Note_on_c, 0, 98, 67
1, 96785, Note_on_c, 0, 40, 56
1, 96796, Note_off_c, 0, 95, 27
1, 96805, Note_on_c, 0, 90, 26
1, 96821, Note_off_c, 0, 40, 58
1, 96831, Note_off_c, 0, 90, 33
1, 96837, Note_off_c, 0, 98, 65
1, 96879, Note_on_c, 0, 49, 31
1, 96899, Note_on_c, 0, 98, 64
1, 96911, Note_on_c, 0, 97, 74
1, 96914, Note_off_c, 0, 49, 55
1, 96918, Note_on_c, 0, 57, 56
1, 96919, Note_on_c, 0, 88, 61
1, 96939, Note_off_c, 0, 98, 62
1, 96940, Note_off_c, 0, 57, 57
1, 96943, Note_off_c, 0, 97, 57
1, 96949, Note_off_c, 0, 88, 64
1, 97039, Note_on_c, 0, 86, 72
1, 97041, Note_on_c, 0, 95, 70
1, 97061, Note_off_c, 0, 86, 69
1, 97067, Note_off_c, 0, 95, 69
1, 97152, Note_on_c, 0, 61, 63
1, 97161, Note_on_c, 0, 85, 66
1, 97163, Note_on_c, 0, 93, 75
1, 97179, Note_off_c, 0, 85, 66
1, 97180, Note_off_c, 0, 61, 65
1, 97195, Control_c, 0, 64, 13
1, 97210, Control_c, 0, 64, 18
1, 97216, Note_off_c, 0, 93, 61
1, 97225, Control_c, 0, 64, 10
1, 97240, Control_c, 0, 64, 0
1, 97279, Note_on_c, 0, 97, 81
1, 97285, Note_on_c, 0, 88, 76
1, 97317, Note_off_c, 0, 88, 59
1, 97329, Note_off_c, 0, 97, 62
1, 97402, Note_on_c, 0, 95, 76
1, 97404, Note_on_c, 0, 86, 80
1, 97407, Note_on_c, 0, 56, 49
1, 97433, Note_on_c, 0, 59, 16
1, 97437, Note_off_c, 0, 56, 60
1, 97441, Note_off_c, 0, 86, 64
1, 97471, Note_off_c, 0, 59, 30
1, 97484, Note_off_c, 0, 95, 53
1, 97529, Note_on_c, 0, 93, 76
1, 97538, Note_on_c, 0, 85, 76
1, 97560, Note_off_c, 0, 85, 65
1, 97586, Note_off_c, 0, 93, 59
1, 97651, Note_on_c, 0, 92, 77
1, 97657, Note_on_c, 0, 68, 50
1, 97664, Note_on_c, 0, 74, 35
1, 97669, Note_on_c, 0, 64, 26
1, 97679, Note_off_c, 0, 68, 60
1, 97680, Note_on_c, 0, 84, 37
1, 97681, Note_on_c, 0, 83, 37
1, 97689, Note_off_c, 0, 74, 50
1, 97702, Note_off_c, 0, 92, 63
1, 97705, Note_off_c, 0, 64, 31
1, 97705, Note_off_c, 0, 84, 48
1, 97711, Note_off_c, 0, 83, 35
1, 97767, Note_on_c, 0, 95, 71
1, 97807, Note_on_c, 0, 86, 23
1, 97821, Note_off_c, 0, 86, 39
1, 97821, Note_off_c, 0, 95, 62
1, 97895, Note_on_c, 0, 76, 65
1, 97896, Note_on_c, 0, 69, 56
1, 97898, Control_c, 0, 64, 10
1, 97901, Note_on_c, 0, 85, 72
1, 97901, Note_on_c, 0, 93, 82
1, 97913, Control_c, 0, 64, 20
1, 97922, Note_off_c, 0, 76, 69
1, 97925, Note_off_c, 0, 85, 67
1, 97928, Control_c, 0, 64, 24
1, 97933, Note_off_c, 0, 69, 65
1, 97943, Control_c, 0, 64, 25
1, 97962, Note_off_c, 0, 93, 55
1, 97973, Control_c, 0, 64, 24
1, 98002, Control_c, 0, 64, 25
1, 98021, Note_on_c, 0, 97, 71
1, 98032, Control_c, 0, 64, 23
1, 98086, Note_off_c, 0, 97, 61
1, 98137, Control_c, 0, 64, 21
1, 98152, Note_on_c, 0, 92, 75
1, 98155, Note_on_c, 0, 86, 67
1, 98155, Note_on_c, 0, 76, 58
1, 98171, Note_on_c, 0, 83, 38
1, 98182, Note_off_c, 0, 76, 66
1, 98188, Note_off_c, 0, 86, 68
1, 98207, Note_off_c, 0, 83, 34
1, 98207, Note_off_c, 0, 92, 46
1, 98218, Control_c, 0, 64, 20
1, 98232, Control_c, 0, 64, 18
1, 98287, Note_on_c, 0, 95, 65
1, 98366, Control_c, 0, 64, 20
1, 98411, Note_off_c, 0, 95, 62
1, 98446, Note_on_c, 0, 93, 69
1, 98456, Note_on_c, 0, 69, 48
1, 98459, Note_on_c, 0, 85, 58
1, 98462, Note_on_c, 0, 76, 56
1, 98470, Control_c, 0, 64, 18
1, 98473, Note_off_c, 0, 93, 66
1, 98478, Note_off_c, 0, 85, 65
1, 98482, Note_off_c, 0, 76, 62
1, 98485, Control_c, 0, 64, 16
1, 98488, Note_off_c, 0, 69, 66
1, 98499, Control_c, 0, 64, 13
1, 98529, Control_c, 0, 64, 10
1, 98559, Control_c, 0, 64, 0
1, 98763, Note_on_c, 0, 57, 91
1, 98766, Note_on_c, 0, 69, 90
1, 98782, Note_off_c, 0, 57, 70
1, 98793, Note_off_c, 0, 69, 67
1, 99034, Note_on_c, 0, 56, 103
1, 99036, Note_on_c, 0, 68, 92
1, 99041, Control_c, 0, 64, 71
1, 99055, Control_c, 0, 64, 83
1, 99069, Note_off_c, 0, 56, 68
1, 99070, Control_c, 0, 64, 91
1, 99073, Note_off_c, 0, 68, 67
1, 99085, Control_c, 0, 64, 94
1, 99100, Control_c, 0, 64, 97
1, 99115, Control_c, 0, 64, 100
1, 99130, Control_c, 0, 64, 102
1, 99145, Control_c, 0, 64, 104
1, 99159, Control_c, 0, 64, 104
1, 99174, Control_c, 0, 64, 105
1, 99189, Control_c, 0, 64, 106
1, 99204, Control_c, 0, 64, 107
1, 99219, Control_c, 0, 64, 108
1, 99249, Control_c, 0, 64, 107
1, 99263, Control_c, 0, 64, 104
1, 99278, Control_c, 0, 64, 93
1, 99285, Note_on_c, 0, 53, 91
1, 99286, Note_on_c, 0, 65, 84
1, 99288, Note_on_c, 0, 45, 90
1, 99288, Note_on_c, 0, 60, 84
1, 99293, Control_c, 0, 64, 78
1, 99295, Note_on_c, 0, 33, 86
1, 99308, Control_c, 0, 64, 59
1, 99311, Note_off_c, 0, 53, 67
1, 99313, Note_off_c, 0, 60, 68
1, 99315, Note_off_c, 0, 45, 69
1, 99323, Control_c, 0, 64, 0
1, 99323, Note_off_c, 0, 33, 69
1, 99326, Note_off_c, 0, 65, 64
1, 99524, Note_on_c, 0, 44, 93
1, 99535, Note_on_c, 0, 52, 92
1, 99538, Note_on_c, 0, 59, 79
1, 99541, Note_on_c, 0, 32, 73
1, 99541, Note_on_c, 0, 64, 76
1, 99551, Note_off_c, 0, 44, 69
1, 99555, Note_off_c, 0, 52, 74
1, 99560, Note_off_c, 0, 59, 70
1, 99578, Note_off_c, 0, 32, 65
1, 99582, Note_off_c, 0, 64, 64
1, 99786, Note_on_c, 0, 41, 92
1, 99788, Note_on_c, 0, 29, 80
1, 99791, Note_on_c, 0, 57, 88
1, 99793, Note_on_c, 0, 62, 85
1, 99794, Note_on_c, 0, 69, 84
1, 99815, Note_off_c, 0, 41, 71
1, 99815, Note_off_c, 0, 57, 65
1, 99815, Note_off_c, 0, 62, 67
1, 99828, Note_off_c, 0, 69, 68
1, 99829, Note_off_c, 0, 29, 65
1, 100046, Note_on_c, 0, 40, 97
1, 100046, Note_on_c, 0, 56, 92
1, 100047, Note_on_c, 0, 68, 83
1, 100048, Note_on_c, 0, 61, 81
1, 100051, Note_on_c, 0, 28, 87
1, 100057, Control_c, 0, 64, 59
1, 100072, Control_c, 0, 64, 69
1, 100086, Control_c, 0, 64, 71
1, 100090, Note_off_c, 0, 61, 61
1, 100093, Note_off_c, 0, 56, 62
1, 100101, Control_c, 0, 64, 73
1, 100104, Note_off_c, 0, 68, 63
1, 100116, Control_c, 0, 64, 76
1, 100131, Control_c, 0, 64, 79
1, 100146, Control_c, 0, 64, 82
1, 100160, Control_c, 0, 64, 83
1, 100175, Control_c, 0, 64, 84
1, 100190, Control_c, 0, 64, 85
1, 100204, Control_c, 0, 64, 86
1, 100219, Control_c, 0, 64, 87
1, 100234, Control_c, 0, 64, 87
1, 100253, Note_off_c, 0, 40, 59
1, 100259, Note_off_c, 0, 28, 58
1, 100281, Note_on_c, 0, 53, 91
1, 100283, Note_on_c, 0, 65, 81
1, 100289, Note_on_c, 0, 62, 76
1, 100308, Control_c, 0, 64, 86
1, 100313, Note_off_c, 0, 53, 65
1, 100314, Note_off_c, 0, 62, 67
1, 100323, Control_c, 0, 64, 82
1, 100329, Note_off_c, 0, 65, 63
1, 100338, Control_c, 0, 64, 75
1, 100352, Control_c, 0, 64, 66
1, 100367, Control_c, 0, 64, 0
1, 100387, Note_on_c, 0, 38, 83
1, 100405, Note_on_c, 0, 26, 64
1, 100441, Note_off_c, 0, 38, 62
1, 100443, Note_off_c, 0, 26, 64
1, 100534, Note_on_c, 0, 37, 82
1, 100537, Note_on_c, 0, 33, 79
1, 100541, Note_on_c, 0, 28, 69
1, 100541, Note_on_c, 0, 52, 88
1, 100541, Note_on_c, 0, 61, 71
1, 100543, Note_on_c, 0, 57, 78
1, 100549, Note_on_c, 0, 64, 73
1, 100556, Note_on_c, 0, 25, 68
1, 100569, Control_c, 0, 64, 21
1, 100581, Note_off_c, 0, 52, 67
1, 100583, Control_c, 0, 64, 67
1, 100588, Note_off_c, 0, 37, 65
1, 100594, Note_off_c, 0, 57, 62
1, 100596, Note_off_c, 0, 33, 64
1, 100598, Control_c, 0, 64, 69
1, 100612, Note_off_c, 0, 61, 63
1, 100613, Control_c, 0, 64, 70
1, 100615, Note_off_c, 0, 28, 62
1, 100617, Note_off_c, 0, 25, 63
1, 100617, Note_off_c, 0, 64, 64
1, 100627, Control_c, 0, 64, 72
1, 100642, Control_c, 0, 64, 76
1, 100657, Control_c, 0, 64, 79
1, 100672, Control_c, 0, 64, 80
1, 100687, Control_c, 0, 64, 81
1, 100701, Control_c, 0, 64, 82
1, 100716, Control_c, 0, 64, 84
1, 100731, Control_c, 0, 64, 85
1, 100746, Control_c, 0, 64, 86
1, 100761, Control_c, 0, 64, 87
1, 100784, Note_on_c, 0, 33, 92
1, 100790, Control_c, 0, 64, 88
1, 100793, Note_on_c, 0, 21, 80
1, 100820, Control_c, 0, 64, 87
1, 100850, Control_c, 0, 64, 86
1, 100864, Control_c, 0, 64, 81
1, 100879, Control_c, 0, 64, 72
1, 100894, Control_c, 0, 64, 57
1, 100909, Control_c, 0, 64, 0
1, 100912, Note_on_c, 0, 57, 85
1, 100913, Note_on_c, 0, 69, 74
1, 100947, Note_off_c, 0, 69, 68
1, 100957, Note_off_c, 0, 57, 64
1, 100966, Note_off_c, 0, 21, 60
1, 100986, Note_off_c, 0, 33, 65
1, 101043, Note_on_c, 0, 64, 80
1, 101044, Note_on_c, 0, 52, 91
1, 101049, Note_on_c, 0, 61, 76
1, 101049, Note_on_c, 0, 57, 77
1, 101118, Note_off_c, 0, 52, 56
1, 101159, Note_off_c, 0, 57, 60
1, 101161, Note_on_c, 0, 45, 86
1, 101163, Note_off_c, 0, 64, 61
1, 101172, Note_on_c, 0, 33, 78
1, 101189, Note_off_c, 0, 61, 61
1, 101204, Note_off_c, 0, 45, 68
1, 101222, Note_off_c, 0, 33, 65
1, 101289, Note_on_c, 0, 40, 88
1, 101292, Note_on_c, 0, 28, 86
1, 101403, Note_on_c, 0, 57, 86
1, 101405, Note_on_c, 0, 69, 77
1, 101434, Note_off_c, 0, 28, 62
1, 101434, Note_off_c, 0, 69, 65
1, 101447, Note_off_c, 0, 57, 65
1, 101457, Note_off_c, 0, 40, 63
1, 101522, Note_on_c, 0, 64, 86
1, 101522, Note_on_c, 0, 52, 95
1, 101527, Note_on_c, 0, 61, 79
1, 101528, Note_on_c, 0, 57, 77
1, 101610, Note_off_c, 0, 52, 62
1, 101628, Note_on_c, 0, 45, 90
1, 101633, Note_on_c, 0, 33, 79
1, 101640, Note_off_c, 0, 57, 60
1, 101647, Note_off_c, 0, 64, 63
1, 101661, Note_off_c, 0, 45, 67
1, 101666, Note_off_c, 0, 61, 63
1, 101687, Note_off_c, 0, 33, 65
1, 101753, Note_on_c, 0, 40, 93
1, 101754, Note_on_c, 0, 28, 90
1, 101872, Note_on_c, 0, 57, 87
1, 101872, Note_on_c, 0, 69, 82
1, 101908, Note_off_c, 0, 69, 69
1, 101917, Note_off_c, 0, 57, 61
1, 101955, Note_off_c, 0, 28, 61
1, 101968, Note_off_c, 0, 40, 61
1, 102036, Note_on_c, 0, 52, 95
1, 102036, Note_on_c, 0, 57, 79
1, 102036, Note_on_c, 0, 64, 82
1, 102042, Note_on_c, 0, 61, 79
1, 102080, Control_c, 0, 64, 56
1, 102095, Control_c, 0, 64, 64
1, 102111, Control_c, 0, 64, 66
1, 102125, Control_c, 0, 64, 67
1, 102140, Note_off_c, 0, 52, 46
1, 102140, Control_c, 0, 64, 68
1, 102155, Control_c, 0, 64, 69
1, 102158, Note_off_c, 0, 64, 58
1, 102170, Control_c, 0, 64, 70
1, 102185, Control_c, 0, 64, 70
1, 102190, Note_off_c, 0, 61, 56
1, 102200, Control_c, 0, 64, 72
1, 102201, Note_off_c, 0, 57, 58
1, 102215, Control_c, 0, 64, 73
1, 102229, Control_c, 0, 64, 73
1, 102259, Control_c, 0, 64, 74
1, 102280, Note_on_c, 0, 53, 86
1, 102281, Note_on_c, 0, 41, 81
1, 102303, Control_c, 0, 64, 73
1, 102333, Control_c, 0, 64, 73
1, 102336, Note_off_c, 0, 53, 65
1, 102370, Note_off_c, 0, 41, 65
1, 102391, Control_c, 0, 64, 72
1, 102404, Note_on_c, 0, 51, 78
1, 102404, Note_on_c, 0, 63, 74
1, 102406, Control_c, 0, 64, 71
1, 102421, Control_c, 0, 64, 70
1, 102436, Control_c, 0, 64, 67
1, 102437, Note_off_c, 0, 51, 63
1, 102451, Control_c, 0, 64, 64
1, 102458, Note_off_c, 0, 63, 65
1, 102465, Control_c, 0, 64, 54
1, 102480, Control_c, 0, 64, 23
1, 102495, Control_c, 0, 64, 0
1, 102513, Note_on_c, 0, 43, 72
1, 102529, Note_on_c, 0, 55, 78
1, 102534, Note_on_c, 0, 48, 62
1, 102536, Note_on_c, 0, 52, 76
1, 102541, Note_on_c, 0, 64, 76
1, 102547, Note_on_c, 0, 60, 60
1, 102558, Note_off_c, 0, 52, 70
1, 102569, Note_off_c, 0, 60, 64
1, 102570, Note_off_c, 0, 55, 60
1, 102576, Note_off_c, 0, 64, 67
1, 102600, Note_off_c, 0, 48, 61
1, 102616, Note_off_c, 0, 43, 61
1, 102663, Note_on_c, 0, 69, 72
1, 102702, Note_off_c, 0, 69, 66
1, 102781, Note_on_c, 0, 60, 85
1, 102782, Note_on_c, 0, 48, 78
1, 102787, Note_on_c, 0, 72, 79
1, 102798, Note_on_c, 0, 63, 65
1, 102799, Note_on_c, 0, 54, 59
1, 102805, Note_on_c, 0, 59, 48
1, 102807, Note_off_c, 0, 72, 72
1, 102817, Note_off_c, 0, 63, 64
1, 102820, Note_off_c, 0, 60, 52
1, 102828, Note_off_c, 0, 54, 61
1, 102830, Note_off_c, 0, 59, 37
1, 102880, Note_off_c, 0, 48, 60
1, 102893, Note_on_c, 0, 63, 82
1, 102900, Note_on_c, 0, 75, 75
1, 102916, Note_off_c, 0, 63, 69
1, 102926, Note_off_c, 0, 75, 66
1, 103004, Note_on_c, 0, 48, 72
1, 103006, Note_on_c, 0, 55, 82
1, 103008, Note_on_c, 0, 60, 83
1, 103011, Note_on_c, 0, 64, 86
1, 103017, Note_on_c, 0, 76, 81
1, 103026, Note_on_c, 0, 72, 56
1, 103032, Note_off_c, 0, 64, 72
1, 103040, Note_off_c, 0, 60, 59
1, 103041, Note_off_c, 0, 55, 65
1, 103044, Note_off_c, 0, 72, 63
1, 103054, Note_off_c, 0, 76, 68
1, 103077, Note_off_c, 0, 48, 63
1, 103136, Note_on_c, 0, 69, 68
1, 103136, Note_on_c, 0, 81, 74
1, 103154, Note_off_c, 0, 69, 69
1, 103159, Note_off_c, 0, 81, 68
1, 103241, Note_on_c, 0, 48, 69
1, 103246, Note_on_c, 0, 60, 76
1, 103246, Note_on_c, 0, 72, 81
1, 103248, Note_on_c, 0, 54, 70
1, 103250, Note_on_c, 0, 84, 78
1, 103255, Note_on_c, 0, 75, 71
1, 103267, Note_off_c, 0, 72, 72
1, 103268, Note_off_c, 0, 60, 69
1, 103270, Note_off_c, 0, 75, 69
1, 103272, Note_off_c, 0, 84, 71
1, 103273, Note_off_c, 0, 54, 65
1, 103279, Note_off_c, 0, 48, 65
1, 103361, Note_on_c, 0, 75, 76
1, 103361, Note_on_c, 0, 87, 82
1, 103382, Note_off_c, 0, 87, 67
1, 103383, Note_off_c, 0, 75, 70
1, 103505, Note_on_c, 0, 61, 86
1, 103505, Note_on_c, 0, 81, 87
1, 103506, Note_on_c, 0, 93, 97
1, 103508, Note_on_c, 0, 84, 89
1, 103510, Note_on_c, 0, 55, 60
1, 103511, Note_on_c, 0, 49, 65
1, 103525, Note_off_c, 0, 61, 71
1, 103525, Note_off_c, 0, 84, 75
1, 103526, Note_on_c, 0, 57, 51
1, 103536, Note_off_c, 0, 81, 62
1, 103539, Note_off_c, 0, 93, 60
1, 103547, Note_off_c, 0, 55, 68
1, 103551, Note_off_c, 0, 57, 54
1, 103561, Note_off_c, 0, 49, 62
1, 103810, Note_on_c, 0, 81, 82
1, 103814, Note_on_c, 0, 69, 74
1, 103815, Note_on_c, 0, 72, 73
1, 103819, Note_on_c, 0, 48, 60
1, 103824, Note_on_c, 0, 57, 69
1, 103860, Control_c, 0, 64, 56
1, 103875, Control_c, 0, 64, 64
1, 103890, Control_c, 0, 64, 66
1, 103896, Note_off_c, 0, 48, 62
1, 103905, Control_c, 0, 64, 66
1, 103909, Note_off_c, 0, 57, 59
1, 103919, Control_c, 0, 64, 67
1, 103934, Control_c, 0, 64, 69
1, 103941, Note_off_c, 0, 72, 56
1, 103946, Note_off_c, 0, 81, 56
1, 103949, Control_c, 0, 64, 70
1, 103964, Control_c, 0, 64, 71
1, 103978, Note_off_c, 0, 69, 61
1, 103979, Control_c, 0, 64, 73
1, 103993, Control_c, 0, 64, 74
1, 104008, Control_c, 0, 64, 75
1, 104054, Note_on_c, 0, 64, 67
1, 104061, Note_on_c, 0, 79, 65
1, 104062, Note_on_c, 0, 72, 69
1, 104063, Note_on_c, 0, 55, 59
1, 104067, Control_c, 0, 64, 73
1, 104082, Control_c, 0, 64, 70
1, 104083, Note_off_c, 0, 64, 68
1, 104086, Note_off_c, 0, 55, 65
1, 104088, Note_off_c, 0, 72, 68
1, 104097, Control_c, 0, 64, 62
1, 104112, Control_c, 0, 64, 0
1, 104119, Note_off_c, 0, 79, 60
1, 104182, Note_on_c, 0, 76, 72
1, 104184, Note_on_c, 0, 67, 67
1, 104185, Note_on_c, 0, 55, 60
1, 104194, Note_on_c, 0, 64, 49
1, 104212, Note_off_c, 0, 67, 66
1, 104216, Note_off_c, 0, 76, 64
1, 104217, Note_off_c, 0, 55, 65
1, 104218, Note_off_c, 0, 64, 58
1, 104299, Note_on_c, 0, 77, 78
1, 104301, Note_on_c, 0, 69, 78
1, 104326, Note_off_c, 0, 69, 67
1, 104355, Note_off_c, 0, 77, 61
1, 104411, Note_on_c, 0, 74, 75
1, 104412, Note_on_c, 0, 65, 76
1, 104438, Note_off_c, 0, 65, 69
1, 104447, Note_off_c, 0, 74, 64
1, 104521, Note_on_c, 0, 62, 72
1, 104522, Note_on_c, 0, 53, 70
1, 104528, Note_on_c, 0, 67, 84
1, 104531, Note_on_c, 0, 76, 76
1, 104546, Note_off_c, 0, 62, 66
1, 104549, Note_off_c, 0, 53, 69
1, 104555, Note_off_c, 0, 67, 62
1, 104588, Note_off_c, 0, 76, 65
1, 104643, Note_on_c, 0, 64, 68
1, 104643, Note_on_c, 0, 72, 72
1, 104670, Note_off_c, 0, 64, 67
1, 104675, Note_off_c, 0, 72, 59
1, 104749, Note_on_c, 0, 43, 69
1, 104750, Note_on_c, 0, 53, 69
1, 104756, Note_on_c, 0, 74, 78
1, 104758, Note_on_c, 0, 65, 77
1, 104772, Note_off_c, 0, 53, 67
1, 104778, Note_off_c, 0, 43, 63
1, 104781, Note_off_c, 0, 65, 72
1, 104806, Note_off_c, 0, 74, 63
1, 104862, Note_on_c, 0, 71, 68
1, 104865, Note_on_c, 0, 62, 67
1, 104897, Note_off_c, 0, 62, 64
1, 104922, Note_off_c, 0, 71, 59
1, 105008, Note_on_c, 0, 48, 84
1, 105016, Note_on_c, 0, 36, 55
1, 105017, Note_on_c, 0, 60, 77
1, 105018, Note_on_c, 0, 72, 77
1, 105023, Note_on_c, 0, 64, 65
1, 105025, Note_on_c, 0, 40, 44
1, 105026, Note_on_c, 0, 67, 65
1, 105032, Control_c, 0, 64, 62
1, 105032, Note_off_c, 0, 48, 71
1, 105040, Note_off_c, 0, 60, 70
1, 105041, Note_off_c, 0, 64, 65
1, 105044, Note_off_c, 0, 36, 54
1, 105044, Note_off_c, 0, 67, 65
1, 105047, Control_c, 0, 64, 68
1, 105056, Note_off_c, 0, 72, 64
1, 105061, Note_off_c, 0, 40, 53
1, 105062, Control_c, 0, 64, 71
1, 105076, Control_c, 0, 64, 74
1, 105091, Control_c, 0, 64, 75
1, 105106, Control_c, 0, 64, 77
1, 105121, Control_c, 0, 64, 78
1, 105136, Control_c, 0, 64, 78
1, 105165, Control_c, 0, 64, 79
1, 105194, Control_c, 0, 64, 79
1, 105209, Control_c, 0, 64, 80
1, 105237, Note_on_c, 0, 60, 60
1, 105239, Control_c, 0, 64, 80
1, 105267, Note_on_c, 0, 63, 76
1, 105267, Note_off_c, 0, 60, 60
1, 105270, Note_on_c, 0, 62, 36
1, 105287, Note_on_c, 0, 66, 81
1, 105302, Note_on_c, 0, 64, 74
1, 105305, Note_off_c, 0, 62, 42
1, 105306, Note_off_c, 0, 63, 64
1, 105310, Note_off_c, 0, 66, 72
1, 105314, Control_c, 0, 64, 81
1, 105336, Note_on_c, 0, 67, 63
1, 105336, Note_off_c, 0, 64, 67
1, 105372, Control_c, 0, 64, 81
1, 105374, Note_off_c, 0, 67, 66
1, 105387, Control_c, 0, 64, 82
1, 105389, Note_on_c, 0, 72, 74
1, 105402, Control_c, 0, 64, 82
1, 105409, Note_off_c, 0, 72, 72
1, 105463, Note_on_c, 0, 72, 77
1, 105503, Note_on_c, 0, 78, 89
1, 105512, Note_off_c, 0, 72, 63
1, 105513, Note_on_c, 0, 75, 74
1, 105521, Note_off_c, 0, 78, 73
1, 105535, Note_off_c, 0, 75, 72
1, 105558, Note_on_c, 0, 76, 76
1, 105565, Control_c, 0, 64, 83
1, 105595, Note_on_c, 0, 79, 76
1, 105610, Control_c, 0, 64, 82
1, 105614, Note_on_c, 0, 84, 76
1, 105624, Control_c, 0, 64, 75
1, 105625, Note_off_c, 0, 76, 65
1, 105639, Control_c, 0, 64, 53
1, 105645, Note_off_c, 0, 79, 64
1, 105653, Note_off_c, 0, 84, 65
1, 105654, Control_c, 0, 64, 0
1, 105655, Note_on_c, 0, 55, 70
1, 105665, Note_on_c, 0, 62, 74
1, 105690, Note_off_c, 0, 55, 66
1, 105692, Note_off_c, 0, 62, 66
1, 105705, Control_c, 0, 64, 40
1, 105720, Control_c, 0, 64, 69
1, 105724, Note_on_c, 0, 88, 102
1, 105731, Note_on_c, 0, 71, 83
1, 105732, Note_on_c, 0, 77, 84
1, 105735, Control_c, 0, 64, 78
1, 105740, Note_on_c, 0, 83, 74
1, 105750, Note_off_c, 0, 77, 71
1, 105750, Control_c, 0, 64, 86
1, 105751, Note_off_c, 0, 71, 70
1, 105754, Note_off_c, 0, 83, 66
1, 105765, Control_c, 0, 64, 89
1, 105780, Control_c, 0, 64, 91
1, 105791, Note_off_c, 0, 88, 60
1, 105795, Control_c, 0, 64, 94
1, 105810, Control_c, 0, 64, 96
1, 105824, Control_c, 0, 64, 99
1, 105839, Control_c, 0, 64, 102
1, 105854, Control_c, 0, 64, 103
1, 105898, Control_c, 0, 64, 103
1, 105910, Note_on_c, 0, 86, 91
1, 105913, Control_c, 0, 64, 97
1, 105928, Control_c, 0, 64, 80
1, 105942, Control_c, 0, 64, 0
1, 105966, Note_on_c, 0, 60, 78
1, 105968, Note_on_c, 0, 67, 88
1, 105972, Note_on_c, 0, 84, 93
1, 105973, Note_on_c, 0, 64, 73
1, 105977, Note_on_c, 0, 76, 93
1, 105978, Note_on_c, 0, 79, 95
1, 105987, Control_c, 0, 64, 34
1, 105988, Note_off_c, 0, 67, 72
1, 105995, Note_off_c, 0, 60, 65
1, 105995, Note_off_c, 0, 64, 68
1, 106002, Control_c, 0, 64, 71
1, 106004, Note_off_c, 0, 86, 65
1, 106016, Control_c, 0, 64, 82
1, 106025, Note_off_c, 0, 79, 61
1, 106028, Note_off_c, 0, 76, 65
1, 106031, Control_c, 0, 64, 92
1, 106044, Note_off_c, 0, 84, 64
1, 106046, Control_c, 0, 64, 93
1, 106061, Control_c, 0, 64, 95
1, 106076, Control_c, 0, 64, 96
1, 106092, Control_c, 0, 64, 98
1, 106107, Control_c, 0, 64, 100
1, 106121, Control_c, 0, 64, 102
1, 106136, Control_c, 0, 64, 103
1, 106151, Control_c, 0, 64, 104
1, 106166, Control_c, 0, 64, 105
1, 106196, Note_on_c, 0, 72, 68
1, 106209, Note_on_c, 0, 75, 80
1, 106210, Control_c, 0, 64, 106
1, 106225, Note_off_c, 0, 72, 65
1, 106235, Note_on_c, 0, 78, 79
1, 106247, Note_on_c, 0, 76, 75
1, 106251, Note_off_c, 0, 75, 63
1, 106254, Control_c, 0, 64, 106
1, 106260, Note_off_c, 0, 78, 64
1, 106283, Note_off_c, 0, 76, 69
1, 106284, Note_on_c, 0, 79, 74
1, 106314, Control_c, 0, 64, 107
1, 106317, Note_off_c, 0, 79, 64
1, 106320, Note_on_c, 0, 84, 79
1, 106341, Note_off_c, 0, 84, 71
1, 106343, Control_c, 0, 64, 107
1, 106373, Control_c, 0, 64, 108
1, 106397, Note_on_c, 0, 84, 77
1, 106425, Control_c, 0, 64, 108
1, 106440, Control_c, 0, 64, 109
1, 106443, Note_on_c, 0, 90, 87
1, 106454, Note_off_c, 0, 84, 63
1, 106454, Control_c, 0, 64, 111
1, 106457, Note_on_c, 0, 87, 73
1, 106466, Note_off_c, 0, 90, 67
1, 106469, Control_c, 0, 64, 113
1, 106479, Note_off_c, 0, 87, 69
1, 106484, Control_c, 0, 64, 118
1, 106489, Note_on_c, 0, 88, 78
1, 106499, Control_c, 0, 64, 124
1, 106513, Control_c, 0, 64, 127
1, 106525, Note_on_c, 0, 91, 83
1, 106550, Note_off_c, 0, 88, 62
1, 106558, Note_on_c, 0, 96, 79
1, 106558, Control_c, 0, 64, 127
1, 106573, Control_c, 0, 64, 109
1, 106577, Note_off_c, 0, 91, 61
1, 106588, Control_c, 0, 64, 87
1, 106598, Note_off_c, 0, 96, 64
1, 106600, Note_on_c, 0, 74, 73
1, 106603, Control_c, 0, 64, 62
1, 106604, Note_on_c, 0, 67, 64
1, 106618, Control_c, 0, 64, 0
1, 106621, Note_off_c, 0, 67, 63
1, 106624, Note_off_c, 0, 74, 68
1, 106647, Control_c, 0, 64, 64
1, 106658, Note_on_c, 0, 100, 105
1, 106662, Control_c, 0, 64, 78
1, 106665, Note_on_c, 0, 83, 85
1, 106666, Note_on_c, 0, 89, 85
1, 106670, Note_on_c, 0, 95, 84
1, 106677, Control_c, 0, 64, 91
1, 106688, Note_off_c, 0, 83, 65
1, 106689, Note_off_c, 0, 95, 72
1, 106691, Note_off_c, 0, 89, 64
1, 106692, Control_c, 0, 64, 102
1, 106707, Control_c, 0, 64, 105
1, 106721, Control_c, 0, 64, 107
1, 106736, Control_c, 0, 64, 112
1, 106749, Note_off_c, 0, 100, 57
1, 106751, Control_c, 0, 64, 116
1, 106765, Control_c, 0, 64, 121
1, 106780, Control_c, 0, 64, 124
1, 106795, Control_c, 0, 64, 127
1, 106839, Note_on_c, 0, 98, 84
1, 106884, Control_c, 0, 64, 114
1, 106900, Control_c, 0, 64, 88
1, 106906, Note_off_c, 0, 98, 59
1, 106915, Control_c, 0, 64, 61
1, 106919, Note_on_c, 0, 91, 59
1, 106925, Note_on_c, 0, 96, 91
1, 106925, Note_on_c, 0, 79, 91
1, 106929, Note_on_c, 0, 88, 82
1, 106930, Note_on_c, 0, 72, 66
1, 106930, Control_c, 0, 64, 0
1, 106934, Note_on_c, 0, 76, 79
1, 106943, Note_on_c, 0, 98, 30
1, 106954, Note_off_c, 0, 88, 65
1, 106961, Note_off_c, 0, 91, 61
1, 106965, Note_off_c, 0, 98, 57
1, 106974, Control_c, 0, 64, 69
1, 106980, Note_off_c, 0, 96, 65
1, 106988, Control_c, 0, 64, 84
1, 107003, Control_c, 0, 64, 94
1, 107018, Control_c, 0, 64, 97
1, 107033, Control_c, 0, 64, 98
1, 107048, Control_c, 0, 64, 101
1, 107062, Control_c, 0, 64, 104
1, 107077, Control_c, 0, 64, 107
1, 107092, Control_c, 0, 64, 109
1, 107107, Control_c, 0, 64, 109
1, 107122, Control_c, 0, 64, 110
1, 107136, Control_c, 0, 64, 111
1, 107151, Control_c, 0, 64, 111
1, 107181, Note_off_c, 0, 79, 57
1, 107201, Note_off_c, 0, 76, 63
1, 107209, Note_off_c, 0, 72, 59
1, 107228, Note_on_c, 0, 107, 100
1, 107233, Control_c, 0, 64, 112
1, 107235, Note_on_c, 0, 104, 94
1, 107273, Note_off_c, 0, 104, 65
1, 107328, Note_on_c, 0, 103, 86
1, 107337, Note_on_c, 0, 106, 82
1, 107358, Note_off_c, 0, 107, 61
1, 107366, Control_c, 0, 64, 112
1, 107372, Note_off_c, 0, 103, 64
1, 107381, Control_c, 0, 64, 113
1, 107426, Note_on_c, 0, 102, 77
1, 107431, Note_on_c, 0, 105, 82
1, 107440, Control_c, 0, 64, 104
1, 107452, Note_off_c, 0, 102, 66
1, 107455, Control_c, 0, 64, 84
1, 107470, Control_c, 0, 64, 0
1, 107479, Note_off_c, 0, 106, 46
1, 107494, Note_on_c, 0, 104, 80
1, 107501, Note_off_c, 0, 105, 60
1, 107509, Note_on_c, 0, 56, 73
1, 107510, Note_on_c, 0, 62, 78
1, 107515, Control_c, 0, 64, 69
1, 107521, Note_on_c, 0, 100, 61
1, 107524, Note_on_c, 0, 52, 59
1, 107530, Control_c, 0, 64, 84
1, 107534, Note_off_c, 0, 62, 67
1, 107535, Note_on_c, 0, 59, 37
1, 107537, Note_off_c, 0, 56, 65
1, 107538, Note_off_c, 0, 104, 67
1, 107544, Control_c, 0, 64, 101
1, 107546, Note_off_c, 0, 52, 59
1, 107548, Note_off_c, 0, 100, 68
1, 107559, Control_c, 0, 64, 112
1, 107563, Note_off_c, 0, 59, 51
1, 107574, Control_c, 0, 64, 115
1, 107589, Control_c, 0, 64, 121
1, 107593, Note_on_c, 0, 103, 84
1, 107604, Control_c, 0, 64, 127
1, 107668, Note_on_c, 0, 98, 26
1, 107691, Note_on_c, 0, 102, 78
1, 107715, Note_off_c, 0, 103, 63
1, 107719, Note_off_c, 0, 98, 66
1, 107760, Note_on_c, 0, 74, 67
1, 107760, Note_on_c, 0, 68, 67
1, 107764, Note_on_c, 0, 71, 62
1, 107769, Note_on_c, 0, 97, 76
1, 107770, Note_on_c, 0, 64, 48
1, 107778, Note_on_c, 0, 100, 78
1, 107783, Note_off_c, 0, 71, 65
1, 107783, Note_off_c, 0, 74, 70
1, 107791, Note_off_c, 0, 68, 67
1, 107792, Note_off_c, 0, 64, 58
1, 107817, Note_off_c, 0, 102, 60
1, 107837, Note_off_c, 0, 97, 61
1, 107849, Note_off_c, 0, 100, 63
1, 107852, Note_on_c, 0, 99, 70
1, 107877, Note_off_c, 0, 99, 71
1, 107953, Note_on_c, 0, 98, 76
1, 107964, Note_on_c, 0, 95, 59
1, 107985, Note_off_c, 0, 95, 64
1, 108019, Note_on_c, 0, 93, 67
1, 108048, Note_on_c, 0, 76, 70
1, 108049, Note_on_c, 0, 68, 64
1, 108050, Note_on_c, 0, 97, 76
1, 108057, Note_off_c, 0, 93, 60
1, 108058, Note_on_c, 0, 71, 53
1, 108061, Note_off_c, 0, 98, 60
1, 108063, Note_on_c, 0, 74, 42
1, 108072, Note_off_c, 0, 76, 71
1, 108079, Note_off_c, 0, 71, 63
1, 108084, Note_off_c, 0, 68, 62
1, 108087, Note_off_c, 0, 74, 57
1, 108119, Note_on_c, 0, 92, 72
1, 108141, Note_on_c, 0, 95, 69
1, 108144, Note_off_c, 0, 97, 55
1, 108165, Note_off_c, 0, 92, 60
1, 108197, Note_on_c, 0, 94, 61
1, 108206, Note_off_c, 0, 95, 64
1, 108206, Note_on_c, 0, 91, 69
1, 108233, Note_off_c, 0, 91, 62
1, 108240, Note_off_c, 0, 94, 65
1, 108296, Note_on_c, 0, 95, 78
1, 108302, Note_on_c, 0, 80, 72
1, 108304, Note_on_c, 0, 92, 67
1, 108313, Note_on_c, 0, 71, 53
1, 108331, Note_off_c, 0, 80, 64
1, 108347, Note_off_c, 0, 71, 63
1, 108364, Note_off_c, 0, 92, 54
1, 108376, Note_off_c, 0, 95, 63
1, 108379, Note_on_c, 0, 91, 74
1, 108385, Note_on_c, 0, 94, 72
1, 108421, Note_off_c, 0, 91, 58
1, 108473, Note_on_c, 0, 90, 70
1, 108475, Note_on_c, 0, 93, 75
1, 108511, Note_off_c, 0, 94, 42
1, 108520, Note_off_c, 0, 90, 60
1, 108556, Note_on_c, 0, 92, 76
1, 108567, Note_off_c, 0, 93, 57
1, 108577, Note_on_c, 0, 89, 55
1, 108578, Note_on_c, 0, 80, 66
1, 108579, Note_on_c, 0, 83, 57
1, 108579, Note_on_c, 0, 76, 57
1, 108593, Note_off_c, 0, 80, 67
1, 108597, Note_off_c, 0, 83, 60
1, 108597, Note_off_c, 0, 76, 67
1, 108597, Note_off_c, 0, 89, 66
1, 108598, Note_on_c, 0, 74, 25
1, 108600, Note_off_c, 0, 92, 64
1, 108632, Note_off_c, 0, 74, 47
1, 108671, Note_on_c, 0, 91, 77
1, 108688, Note_on_c, 0, 88, 58
1, 108712, Note_off_c, 0, 88, 57
1, 108763, Note_on_c, 0, 87, 71
1, 108782, Note_on_c, 0, 90, 68
1, 108785, Note_off_c, 0, 91, 46
1, 108820, Note_off_c, 0, 87, 62
1, 108855, Note_off_c, 0, 90, 62
1, 108862, Note_on_c, 0, 86, 63
1, 108867, Note_on_c, 0, 89, 47
1, 108889, Note_off_c, 0, 89, 55
1, 108892, Note_off_c, 0, 86, 63
1, 108965, Note_on_c, 0, 88, 73
1, 108984, Note_on_c, 0, 85, 53
1, 109005, Note_off_c, 0, 85, 61
1, 109047, Note_off_c, 0, 88, 54
1, 109064, Note_on_c, 0, 87, 65
1, 109068, Note_on_c, 0, 84, 48
1, 109090, Note_off_c, 0, 84, 60
1, 109107, Note_off_c, 0, 87, 63
1, 109190, Control_c, 0, 64, 111
1, 109199, Note_on_c, 0, 83, 52
1, 109200, Note_on_c, 0, 86, 65
1, 109205, Control_c, 0, 64, 101
1, 109220, Control_c, 0, 64, 90
1, 109233, Note_off_c, 0, 83, 63
1, 109235, Control_c, 0, 64, 81
1, 109250, Control_c, 0, 64, 72
1, 109250, Note_off_c, 0, 86, 64
1, 109265, Control_c, 0, 64, 63
1, 109280, Control_c, 0, 64, 34
1, 109295, Control_c, 0, 64, 0
1, 109507, Note_on_c, 0, 97, 60
1, 109534, Note_off_c, 0, 97, 65
1, 109547, Note_on_c, 0, 100, 61
1, 109569, Control_c, 0, 64, 41
1, 109584, Control_c, 0, 64, 67
1, 109593, Note_on_c, 0, 97, 71
1, 109597, Note_off_c, 0, 100, 61
1, 109599, Control_c, 0, 64, 72
1, 109613, Control_c, 0, 64, 76
1, 109628, Control_c, 0, 64, 79
1, 109639, Note_off_c, 0, 97, 62
1, 109643, Control_c, 0, 64, 83
1, 109655, Note_on_c, 0, 88, 64
1, 109658, Control_c, 0, 64, 87
1, 109673, Control_c, 0, 64, 92
1, 109680, Note_off_c, 0, 88, 68
1, 109688, Control_c, 0, 64, 95
1, 109703, Control_c, 0, 64, 98
1, 109718, Control_c, 0, 64, 100
1, 109733, Note_on_c, 0, 86, 70
1, 109733, Control_c, 0, 64, 103
1, 109747, Control_c, 0, 64, 105
1, 109762, Control_c, 0, 64, 107
1, 109768, Note_off_c, 0, 86, 55
1, 109769, Note_on_c, 0, 85, 61
1, 109777, Control_c, 0, 64, 109
1, 109791, Control_c, 0, 64, 110
1, 109804, Note_off_c, 0, 85, 62
1, 109806, Control_c, 0, 64, 112
1, 109813, Note_on_c, 0, 83, 54
1, 109821, Control_c, 0, 64, 114
1, 109835, Control_c, 0, 64, 116
1, 109840, Note_off_c, 0, 83, 63
1, 109840, Note_on_c, 0, 81, 69
1, 109850, Control_c, 0, 64, 118
1, 109864, Control_c, 0, 64, 119
1, 109869, Note_off_c, 0, 81, 62
1, 109879, Control_c, 0, 64, 120
1, 109886, Note_on_c, 0, 85, 57
1, 109894, Control_c, 0, 64, 121
1, 109909, Control_c, 0, 64, 122
1, 109912, Note_off_c, 0, 85, 59
1, 109924, Control_c, 0, 64, 122
1, 109938, Control_c, 0, 64, 123
1, 109940, Note_on_c, 0, 81, 51
1, 109953, Control_c, 0, 64, 124
1, 109962, Note_off_c, 0, 81, 58
1, 109986, Note_on_c, 0, 85, 63
1, 109998, Control_c, 0, 64, 124
1, 110006, Note_off_c, 0, 85, 63
1, 110034, Note_on_c, 0, 81, 69
1, 110057, Control_c, 0, 64, 125
1, 110058, Note_off_c, 0, 81, 57
1, 110075, Note_on_c, 0, 85, 64
1, 110101, Note_off_c, 0, 85, 57
1, 110132, Note_on_c, 0, 73, 29
1, 110140, Note_on_c, 0, 81, 57
1, 110165, Note_off_c, 0, 81, 61
1, 110185, Note_on_c, 0, 85, 61
1, 110207, Note_off_c, 0, 85, 57
1, 110236, Note_on_c, 0, 81, 67
1, 110251, Note_on_c, 0, 76, 37
1, 110258, Control_c, 0, 64, 125
1, 110260, Note_off_c, 0, 81, 57
1, 110265, Note_off_c, 0, 73, 54
1, 110278, Note_off_c, 0, 76, 49
1, 110286, Note_on_c, 0, 85, 58
1, 110308, Note_off_c, 0, 85, 61
1, 110341, Note_on_c, 0, 81, 63
1, 110375, Note_off_c, 0, 81, 59
1, 110386, Note_on_c, 0, 85, 62
1, 110421, Note_off_c, 0, 85, 59
1, 110436, Note_on_c, 0, 57, 41
1, 110441, Note_on_c, 0, 69, 34
1, 110442, Note_on_c, 0, 81, 57
1, 110463, Note_on_c, 0, 64, 9
1, 110476, Note_off_c, 0, 81, 55
1, 110499, Note_on_c, 0, 85, 59
1, 110540, Note_off_c, 0, 85, 58
1, 110565, Note_on_c, 0, 81, 14
1, 110598, Control_c, 0, 64, 125
1, 110607, Note_off_c, 0, 81, 38
1, 110634, Note_off_c, 0, 69, 40
1, 110665, Note_off_c, 0, 57, 26
1, 110681, Note_on_c, 0, 85, 61
1, 110694, Note_off_c, 0, 64, 33
1, 110710, Note_on_c, 0, 88, 58
1, 110711, Note_off_c, 0, 85, 56
1, 110767, Poly_aftertouch_c, 0, 85, 127
1, 110770, Note_off_c, 0, 88, 63
1, 110788, Poly_aftertouch_c, 0, 85, 0
1, 110821, Note_on_c, 0, 76, 52
1, 110842, Note_off_c, 0, 76, 56
1, 110850, Control_c, 0, 64, 124
1, 110880, Control_c, 0, 64, 124
1, 110887, Note_on_c, 0, 74, 64
1, 110895, Control_c, 0, 64, 123
1, 110917, Control_c, 0, 64, 117
1, 110931, Note_on_c, 0, 73, 69
1, 110932, Control_c, 0, 64, 106
1, 110935, Note_off_c, 0, 74, 56
1, 110947, Control_c, 0, 64, 93
1, 110962, Control_c, 0, 64, 80
1, 110970, Note_on_c, 0, 71, 60
1, 110973, Note_off_c, 0, 73, 62
1, 110977, Control_c, 0, 64, 66
1, 110991, Control_c, 0, 64, 0
1, 111003, Note_off_c, 0, 71, 64
1, 111012, Note_on_c, 0, 69, 56
1, 111021, Control_c, 0, 64, 57
1, 111035, Control_c, 0, 64, 68
1, 111044, Note_off_c, 0, 69, 60
1, 111050, Control_c, 0, 64, 73
1, 111053, Note_on_c, 0, 73, 57
1, 111065, Control_c, 0, 64, 78
1, 111080, Control_c, 0, 64, 82
1, 111091, Note_off_c, 0, 73, 64
1, 111095, Control_c, 0, 64, 85
1, 111110, Control_c, 0, 64, 89
1, 111116, Note_on_c, 0, 69, 54
1, 111125, Control_c, 0, 64, 92
1, 111138, Note_off_c, 0, 69, 62
1, 111140, Control_c, 0, 64, 96
1, 111155, Control_c, 0, 64, 98
1, 111165, Note_on_c, 0, 73, 51
1, 111169, Control_c, 0, 64, 101
1, 111184, Control_c, 0, 64, 103
1, 111187, Note_off_c, 0, 73, 59
1, 111199, Control_c, 0, 64, 105
1, 111212, Note_on_c, 0, 69, 66
1, 111214, Control_c, 0, 64, 106
1, 111229, Control_c, 0, 64, 108
1, 111241, Note_off_c, 0, 69, 67
1, 111243, Control_c, 0, 64, 109
1, 111258, Control_c, 0, 64, 110
1, 111263, Note_on_c, 0, 73, 62
1, 111273, Note_on_c, 0, 61, 25
1, 111273, Control_c, 0, 64, 111
1, 111294, Note_off_c, 0, 73, 59
1, 111303, Control_c, 0, 64, 112
1, 111317, Control_c, 0, 64, 112
1, 111318, Note_on_c, 0, 69, 61
1, 111348, Control_c, 0, 64, 113
1, 111354, Note_off_c, 0, 69, 66
1, 111372, Note_on_c, 0, 64, 52
1, 111372, Note_on_c, 0, 73, 63
1, 111396, Note_off_c, 0, 64, 60
1, 111396, Note_off_c, 0, 73, 60
1, 111396, Note_off_c, 0, 61, 56
1, 111432, Note_on_c, 0, 69, 61
1, 111459, Note_off_c, 0, 69, 61
1, 111469, Note_on_c, 0, 73, 67
1, 111505, Note_off_c, 0, 73, 62
1, 111535, Note_on_c, 0, 69, 62
1, 111566, Note_on_c, 0, 57, 37
1, 111572, Note_off_c, 0, 69, 63
1, 111575, Note_on_c, 0, 45, 29
1, 111579, Note_on_c, 0, 73, 60
1, 111602, Note_off_c, 0, 57, 51
1, 111614, Note_off_c, 0, 45, 47
1, 111617, Note_off_c, 0, 73, 64
1, 111659, Note_on_c, 0, 69, 48
1, 111685, Note_off_c, 0, 69, 58
1, 111874, Control_c, 0, 64, 111
1, 111878, Note_on_c, 0, 93, 69
1, 111889, Control_c, 0, 64, 103
1, 111891, Note_on_c, 0, 77, 63
1, 111901, Note_on_c, 0, 83, 44
1, 111904, Control_c, 0, 64, 93
1, 111906, Note_off_c, 0, 93, 66
1, 111912, Note_off_c, 0, 77, 65
1, 111919, Note_on_c, 0, 97, 64
1, 111919, Control_c, 0, 64, 81
1, 111926, Note_off_c, 0, 83, 51
1, 111933, Control_c, 0, 64, 68
1, 111948, Control_c, 0, 64, 0
1, 111976, Note_on_c, 0, 93, 69
1, 111992, Note_off_c, 0, 97, 59
1, 112016, Note_on_c, 0, 92, 65
1, 112025, Note_off_c, 0, 93, 60
1, 112060, Note_off_c, 0, 92, 64
1, 112062, Note_on_c, 0, 85, 60
1, 112099, Note_off_c, 0, 85, 61
1, 112131, Note_on_c, 0, 78, 60
1, 112131, Note_on_c, 0, 92, 63
1, 112159, Note_off_c, 0, 92, 68
1, 112165, Note_off_c, 0, 78, 64
1, 112171, Note_on_c, 0, 97, 58
1, 112225, Note_on_c, 0, 92, 70
1, 112242, Note_off_c, 0, 97, 59
1, 112261, Note_on_c, 0, 90, 61
1, 112275, Note_on_c, 0, 81, 41
1, 112275, Note_off_c, 0, 92, 54
1, 112295, Note_off_c, 0, 90, 62
1, 112297, Note_on_c, 0, 85, 59
1, 112300, Note_off_c, 0, 81, 53
1, 112341, Note_off_c, 0, 85, 59
1, 112372, Note_on_c, 0, 73, 50
1, 112377, Note_on_c, 0, 93, 68
1, 112405, Note_off_c, 0, 73, 58
1, 112413, Note_off_c, 0, 93, 65
1, 112429, Note_on_c, 0, 97, 58
1, 112472, Note_on_c, 0, 93, 61
1, 112502, Note_off_c, 0, 97, 61
1, 112507, Note_on_c, 0, 80, 52
1, 112513, Note_on_c, 0, 92, 66
1, 112520, Note_off_c, 0, 93, 56
1, 112526, Note_off_c, 0, 80, 63
1, 112553, Note_on_c, 0, 85, 57
1, 112559, Note_off_c, 0, 92, 61
1, 112591, Note_off_c, 0, 85, 61
1, 112630, Note_on_c, 0, 92, 65
1, 112632, Note_on_c, 0, 78, 59
1, 112657, Note_off_c, 0, 92, 68
1, 112658, Note_off_c, 0, 78, 64
1, 112669, Note_on_c, 0, 97, 55
1, 112714, Note_on_c, 0, 92, 73
1, 112719, Note_off_c, 0, 97, 55
1, 112757, Note_on_c, 0, 90, 57
1, 112765, Note_on_c, 0, 81, 42
1, 112766, Note_off_c, 0, 92, 61
1, 112789, Note_on_c, 0, 85, 62
1, 112791, Note_off_c, 0, 81, 54
1, 112792, Note_off_c, 0, 90, 64
1, 112839, Note_off_c, 0, 85, 55
1, 112866, Note_on_c, 0, 73, 49
1, 112866, Note_on_c, 0, 93, 68
1, 112895, Note_off_c, 0, 73, 56
1, 112898, Note_off_c, 0, 93, 62
1, 112923, Note_on_c, 0, 97, 54
1, 112955, Note_on_c, 0, 93, 61
1, 112989, Note_off_c, 0, 97, 58
1, 112993, Note_on_c, 0, 83, 39
1, 112994, Note_on_c, 0, 80, 43
1, 113001, Note_on_c, 0, 92, 67
1, 113007, Note_off_c, 0, 93, 59
1, 113018, Note_off_c, 0, 80, 57
1, 113018, Note_off_c, 0, 83, 51
1, 113023, Note_on_c, 0, 85, 64
1, 113045, Note_off_c, 0, 92, 61
1, 113054, Note_off_c, 0, 85, 63
1, 113099, Note_on_c, 0, 92, 53
1, 113116, Note_on_c, 0, 78, 53
1, 113121, Note_on_c, 0, 81, 46
1, 113128, Note_off_c, 0, 92, 67
1, 113136, Note_off_c, 0, 78, 54
1, 113137, Note_on_c, 0, 97, 64
1, 113146, Note_off_c, 0, 81, 36
1, 113199, Note_on_c, 0, 92, 71
1, 113212, Note_off_c, 0, 97, 60
1, 113225, Note_on_c, 0, 90, 69
1, 113232, Note_off_c, 0, 92, 59
1, 113259, Note_off_c, 0, 90, 63
1, 113262, Note_on_c, 0, 85, 67
1, 113287, Note_off_c, 0, 85, 69
1, 113383, Note_on_c, 0, 81, 66
1, 113410, Note_off_c, 0, 81, 66
1, 113427, Note_on_c, 0, 80, 66
1, 113468, Note_on_c, 0, 78, 65
1, 113490, Note_off_c, 0, 80, 59
1, 113520, Note_on_c, 0, 73, 48
1, 113526, Note_off_c, 0, 78, 61
1, 113550, Note_on_c, 0, 69, 72
1, 113566, Note_off_c, 0, 73, 64
1, 113572, Note_off_c, 0, 69, 72
1, 113610, Note_on_c, 0, 66, 82
1, 113633, Note_off_c, 0, 66, 70
1, 113858, Note_on_c, 0, 102, 56
1, 113866, Note_on_c, 0, 57, 61
1, 113905, Note_off_c, 0, 57, 64
1, 113924, Note_off_c, 0, 102, 60
1, 113925, Note_on_c, 0, 100, 63
1, 113950, Note_off_c, 0, 100, 66
1, 114002, Note_on_c, 0, 102, 52
1, 114018, Note_on_c, 0, 64, 46
1, 114035, Note_on_c, 0, 67, 29
1, 114037, Note_off_c, 0, 102, 65
1, 114041, Note_off_c, 0, 64, 56
1, 114054, Note_on_c, 0, 100, 27
1, 114069, Note_on_c, 0, 93, 58
1, 114070, Note_off_c, 0, 67, 42
1, 114074, Note_off_c, 0, 100, 46
1, 114090, Note_off_c, 0, 93, 59
1, 114124, Note_on_c, 0, 62, 61
1, 114139, Note_on_c, 0, 100, 71
1, 114159, Note_off_c, 0, 62, 63
1, 114180, Note_on_c, 0, 98, 72
1, 114182, Note_off_c, 0, 100, 60
1, 114223, Note_off_c, 0, 98, 59
1, 114251, Note_on_c, 0, 66, 46
1, 114255, Note_on_c, 0, 100, 62
1, 114256, Note_on_c, 0, 69, 45
1, 114275, Note_off_c, 0, 66, 58
1, 114279, Note_off_c, 0, 69, 56
1, 114293, Note_on_c, 0, 95, 50
1, 114303, Note_off_c, 0, 100, 63
1, 114333, Note_on_c, 0, 93, 64
1, 114341, Note_off_c, 0, 95, 66
1, 114369, Note_on_c, 0, 69, 66
1, 114371, Note_off_c, 0, 93, 61
1, 114406, Note_off_c, 0, 69, 66
1, 114409, Note_on_c, 0, 98, 71
1, 114434, Note_on_c, 0, 97, 73
1, 114461, Note_off_c, 0, 98, 58
1, 114502, Note_off_c, 0, 97, 63
1, 114504, Note_on_c, 0, 95, 63
1, 114507, Note_on_c, 0, 76, 58
1, 114520, Note_on_c, 0, 93, 74
1, 114521, Note_on_c, 0, 79, 45
1, 114529, Note_off_c, 0, 76, 65
1, 114534, Note_off_c, 0, 95, 68
1, 114543, Note_off_c, 0, 79, 57
1, 114563, Note_off_c, 0, 93, 61
1, 114601, Note_on_c, 0, 100, 74
1, 114617, Note_on_c, 0, 74, 57
1, 114645, Note_off_c, 0, 100, 62
1, 114645, Note_off_c, 0, 74, 69
1, 114654, Note_on_c, 0, 98, 69
1, 114693, Note_off_c, 0, 98, 58
1, 114719, Note_on_c, 0, 100, 67
1, 114757, Note_on_c, 0, 78, 47
1, 114764, Note_on_c, 0, 81, 31
1, 114773, Note_on_c, 0, 98, 54
1, 114779, Note_off_c, 0, 78, 52
1, 114791, Note_on_c, 0, 95, 69
1, 114791, Note_off_c, 0, 100, 63
1, 114795, Note_off_c, 0, 81, 33
1, 114809, Note_off_c, 0, 98, 64
1, 114820, Note_off_c, 0, 95, 67
1, 114824, Note_on_c, 0, 93, 71
1, 114848, Note_off_c, 0, 93, 67
1, 114854, Note_on_c, 0, 69, 66
1, 114882, Note_on_c, 0, 98, 82
1, 114883, Note_off_c, 0, 69, 69
1, 114907, Note_on_c, 0, 97, 69
1, 114963, Note_off_c, 0, 98, 63
1, 114969, Note_on_c, 0, 95, 65
1, 114985, Note_on_c, 0, 76, 56
1, 114996, Note_on_c, 0, 79, 44
1, 114999, Note_on_c, 0, 93, 80
1, 115003, Note_off_c, 0, 76, 64
1, 115018, Note_off_c, 0, 79, 56
1, 115028, Note_off_c, 0, 95, 65
1, 115042, Note_off_c, 0, 97, 64
1, 115043, Note_off_c, 0, 93, 63
1, 115101, Note_on_c, 0, 100, 86
1, 115103, Note_on_c, 0, 74, 44
1, 115107, Control_c, 0, 64, 59
1, 115107, Note_on_c, 0, 78, 80
1, 115120, Note_on_c, 0, 81, 60
1, 115122, Control_c, 0, 64, 69
1, 115128, Note_on_c, 0, 98, 68
1, 115128, Note_off_c, 0, 74, 64
1, 115135, Note_off_c, 0, 78, 62
1, 115136, Control_c, 0, 64, 73
1, 115138, Note_off_c, 0, 81, 63
1, 115151, Control_c, 0, 64, 76
1, 115166, Control_c, 0, 64, 77
1, 115173, Note_off_c, 0, 100, 65
1, 115174, Note_on_c, 0, 93, 74
1, 115181, Control_c, 0, 64, 78
1, 115188, Note_off_c, 0, 98, 66
1, 115196, Control_c, 0, 64, 80
1, 115210, Control_c, 0, 64, 81
1, 115225, Control_c, 0, 64, 82
1, 115240, Control_c, 0, 64, 83
1, 115241, Note_on_c, 0, 90, 80
1, 115250, Note_off_c, 0, 93, 59
1, 115255, Control_c, 0, 64, 84
1, 115267, Note_off_c, 0, 90, 63
1, 115270, Control_c, 0, 64, 84
1, 115284, Control_c, 0, 64, 85
1, 115299, Control_c, 0, 64, 86
1, 115314, Control_c, 0, 64, 86
1, 115330, Note_on_c, 0, 86, 55
1, 115343, Control_c, 0, 64, 87
1, 115351, Note_off_c, 0, 86, 59
1, 115362, Note_on_c, 0, 88, 69
1, 115405, Note_off_c, 0, 88, 61
1, 115428, Note_on_c, 0, 86, 65
1, 115447, Note_off_c, 0, 86, 66
1, 115467, Note_on_c, 0, 81, 65
1, 115483, Note_off_c, 0, 81, 62
1, 115484, Control_c, 0, 64, 86
1, 115499, Control_c, 0, 64, 84
1, 115502, Note_on_c, 0, 78, 71
1, 115514, Control_c, 0, 64, 78
1, 115528, Control_c, 0, 64, 70
1, 115530, Note_off_c, 0, 78, 58
1, 115535, Note_on_c, 0, 76, 59
1, 115543, Control_c, 0, 64, 58
1, 115558, Control_c, 0, 64, 0
1, 115574, Note_off_c, 0, 76, 61
1, 115589, Note_on_c, 0, 74, 73
1, 115610, Note_off_c, 0, 74, 71
1, 115855, Control_c, 0, 64, 48
1, 115858, Note_on_c, 0, 98, 59
1, 115870, Control_c, 0, 64, 65
1, 115879, Note_off_c, 0, 98, 66
1, 115885, Control_c, 0, 64, 68
1, 115885, Note_on_c, 0, 102, 72
1, 115899, Control_c, 0, 64, 71
1, 115914, Control_c, 0, 64, 75
1, 115929, Control_c, 0, 64, 79
1, 115940, Note_on_c, 0, 98, 72
1, 115944, Control_c, 0, 64, 83
1, 115954, Note_off_c, 0, 102, 62
1, 115958, Control_c, 0, 64, 86
1, 115963, Note_off_c, 0, 98, 69
1, 115973, Control_c, 0, 64, 89
1, 115988, Control_c, 0, 64, 92
1, 115993, Note_on_c, 0, 90, 57
1, 116003, Control_c, 0, 64, 95
1, 116013, Note_off_c, 0, 90, 58
1, 116018, Control_c, 0, 64, 97
1, 116032, Control_c, 0, 64, 100
1, 116047, Control_c, 0, 64, 101
1, 116062, Control_c, 0, 64, 102
1, 116068, Note_on_c, 0, 88, 70
1, 116077, Control_c, 0, 64, 102
1, 116092, Control_c, 0, 64, 103
1, 116103, Note_off_c, 0, 88, 57
1, 116106, Control_c, 0, 64, 103
1, 116108, Note_on_c, 0, 86, 57
1, 116121, Control_c, 0, 64, 104
1, 116134, Note_on_c, 0, 85, 67
1, 116136, Control_c, 0, 64, 104
1, 116138, Note_off_c, 0, 86, 65
1, 116158, Control_c, 0, 64, 105
1, 116173, Control_c, 0, 64, 107
1, 116176, Note_off_c, 0, 85, 59
1, 116188, Control_c, 0, 64, 108
1, 116194, Note_on_c, 0, 83, 59
1, 116203, Control_c, 0, 64, 109
1, 116218, Control_c, 0, 64, 110
1, 116222, Note_off_c, 0, 83, 60
1, 116231, Note_on_c, 0, 86, 62
1, 116232, Control_c, 0, 64, 111
1, 116262, Control_c, 0, 64, 111
1, 116267, Note_off_c, 0, 86, 57
1, 116317, Note_on_c, 0, 83, 34
1, 116336, Control_c, 0, 64, 112
1, 116348, Note_off_c, 0, 83, 44
1, 116363, Note_on_c, 0, 86, 34
1, 116395, Note_off_c, 0, 86, 46
1, 116410, Note_on_c, 0, 83, 44
1, 116427, Note_on_c, 0, 74, 33
1, 116442, Note_off_c, 0, 83, 51
1, 116484, Note_on_c, 0, 86, 39
1, 116514, Note_off_c, 0, 86, 49
1, 116537, Note_on_c, 0, 83, 49
1, 116559, Note_off_c, 0, 83, 56
1, 116568, Note_on_c, 0, 78, 53
1, 116588, Note_on_c, 0, 86, 50
1, 116589, Note_off_c, 0, 78, 62
1, 116605, Note_off_c, 0, 74, 55
1, 116610, Note_off_c, 0, 86, 59
1, 116637, Note_on_c, 0, 83, 64
1, 116672, Note_off_c, 0, 83, 56
1, 116681, Note_on_c, 0, 86, 66
1, 116723, Note_off_c, 0, 86, 55
1, 116753, Note_on_c, 0, 83, 63
1, 116785, Note_on_c, 0, 71, 39
1, 116788, Note_on_c, 0, 62, 41
1, 116791, Note_off_c, 0, 83, 59
1, 116801, Note_on_c, 0, 86, 59
1, 116803, Note_on_c, 0, 66, 36
1, 116835, Note_off_c, 0, 86, 59
1, 116856, Note_on_c, 0, 83, 61
1, 116912, Note_off_c, 0, 83, 59
1, 116929, Note_on_c, 0, 86, 63
1, 116961, Note_off_c, 0, 86, 62
1, 116983, Note_on_c, 0, 83, 48
1, 117006, Note_off_c, 0, 83, 60
1, 117065, Note_on_c, 0, 86, 67
1, 117072, Note_off_c, 0, 71, 34
1, 117086, Note_off_c, 0, 86, 65
1, 117098, Note_on_c, 0, 90, 72
1, 117110, Note_off_c, 0, 66, 43
1, 117116, Note_off_c, 0, 62, 39
1, 117148, Note_on_c, 0, 86, 78
1, 117160, Note_off_c, 0, 90, 61
1, 117191, Note_off_c, 0, 86, 60
1, 117205, Note_on_c, 0, 78, 66
1, 117222, Note_off_c, 0, 78, 66
1, 117290, Note_on_c, 0, 76, 64
1, 117308, Control_c, 0, 64, 110
1, 117313, Note_on_c, 0, 74, 66
1, 117323, Control_c, 0, 64, 102
1, 117327, Note_off_c, 0, 76, 61
1, 117338, Control_c, 0, 64, 90
1, 117352, Control_c, 0, 64, 74
1, 117361, Note_off_c, 0, 74, 63
1, 117366, Note_on_c, 0, 73, 65
1, 117367, Control_c, 0, 64, 44
1, 117382, Control_c, 0, 64, 0
1, 117400, Note_off_c, 0, 73, 60
1, 117411, Control_c, 0, 64, 49
1, 117414, Note_on_c, 0, 71, 58
1, 117426, Control_c, 0, 64, 69
1, 117441, Control_c, 0, 64, 75
1, 117448, Note_off_c, 0, 71, 64
1, 117456, Control_c, 0, 64, 79
1, 117459, Note_on_c, 0, 74, 52
1, 117471, Control_c, 0, 64, 80
1, 117484, Note_off_c, 0, 74, 58
1, 117486, Control_c, 0, 64, 82
1, 117501, Control_c, 0, 64, 83
1, 117516, Control_c, 0, 64, 85
1, 117525, Note_on_c, 0, 71, 50
1, 117531, Control_c, 0, 64, 86
1, 117545, Control_c, 0, 64, 87
1, 117547, Note_off_c, 0, 71, 57
1, 117560, Control_c, 0, 64, 87
1, 117575, Control_c, 0, 64, 88
1, 117575, Note_on_c, 0, 74, 37
1, 117589, Control_c, 0, 64, 89
1, 117601, Note_off_c, 0, 74, 54
1, 117604, Control_c, 0, 64, 90
1, 117619, Control_c, 0, 64, 90
1, 117620, Note_on_c, 0, 71, 64
1, 117634, Control_c, 0, 64, 91
1, 117659, Note_off_c, 0, 71, 56
1, 117671, Control_c, 0, 64, 92
1, 117672, Note_on_c, 0, 62, 41
1, 117680, Note_on_c, 0, 74, 52
1, 117713, Note_off_c, 0, 74, 66
1, 117728, Note_on_c, 0, 73, 62
1, 117739, Note_on_c, 0, 71, 32
1, 117773, Note_off_c, 0, 71, 43
1, 117775, Note_on_c, 0, 74, 49
1, 117790, Note_on_c, 0, 66, 62
1, 117793, Note_off_c, 0, 73, 64
1, 117798, Note_off_c, 0, 74, 64
1, 117812, Note_off_c, 0, 66, 68
1, 117834, Note_off_c, 0, 62, 46
1, 117853, Note_on_c, 0, 76, 66
1, 117884, Note_off_c, 0, 76, 64
1, 117895, Note_on_c, 0, 78, 69
1, 117908, Control_c, 0, 64, 91
1, 117922, Control_c, 0, 64, 88
1, 117927, Note_on_c, 0, 80, 64
1, 117937, Control_c, 0, 64, 82
1, 117948, Note_on_c, 0, 59, 59
1, 117951, Note_on_c, 0, 54, 62
1, 117952, Control_c, 0, 64, 73
1, 117955, Note_on_c, 0, 50, 55
1, 117967, Note_off_c, 0, 59, 61
1, 117967, Note_off_c, 0, 78, 62
1, 117967, Control_c, 0, 64, 62
1, 117971, Note_off_c, 0, 54, 60
1, 117981, Note_off_c, 0, 50, 54
1, 117982, Control_c, 0, 64, 0
1, 117990, Note_off_c, 0, 80, 32
1, 118044, Note_on_c, 0, 83, 65
1, 118062, Note_off_c, 0, 83, 62
1, 118097, Note_on_c, 0, 85, 69
1, 118124, Note_off_c, 0, 85, 65
1, 118191, Control_c, 0, 64, 13
1, 118192, Note_on_c, 0, 88, 59
1, 118206, Control_c, 0, 64, 28
1, 118220, Control_c, 0, 64, 32
1, 118222, Note_on_c, 0, 57, 58
1, 118223, Note_on_c, 0, 66, 70
1, 118231, Note_off_c, 0, 88, 51
1, 118244, Note_off_c, 0, 57, 61
1, 118249, Note_off_c, 0, 66, 69
1, 118250, Control_c, 0, 64, 31
1, 118280, Control_c, 0, 64, 33
1, 118294, Control_c, 0, 64, 34
1, 118324, Control_c, 0, 64, 32
1, 118353, Control_c, 0, 64, 34
1, 118368, Control_c, 0, 64, 39
1, 118372, Note_on_c, 0, 95, 68
1, 118383, Control_c, 0, 64, 44
1, 118389, Note_off_c, 0, 95, 65
1, 118406, Control_c, 0, 64, 44
1, 118450, Control_c, 0, 64, 46
1, 118465, Control_c, 0, 64, 50
1, 118480, Control_c, 0, 64, 52
1, 118481, Note_on_c, 0, 98, 29
1, 118485, Note_on_c, 0, 85, 71
1, 118494, Control_c, 0, 64, 51
1, 118509, Control_c, 0, 64, 48
1, 118515, Note_off_c, 0, 85, 62
1, 118521, Note_on_c, 0, 76, 40
1, 118524, Control_c, 0, 64, 47
1, 118529, Note_on_c, 0, 100, 34
1, 118542, Note_off_c, 0, 76, 50
1, 118544, Note_off_c, 0, 98, 49
1, 118550, Note_on_c, 0, 102, 74
1, 118553, Control_c, 0, 64, 48
1, 118583, Control_c, 0, 64, 47
1, 118598, Control_c, 0, 64, 46
1, 118606, Note_off_c, 0, 100, 0
1, 118606, Note_on_c, 0, 100, 30
1, 118613, Control_c, 0, 64, 45
1, 118628, Control_c, 0, 64, 43
1, 118628, Note_on_c, 0, 83, 64
1, 118634, Note_off_c, 0, 102, 61
1, 118640, Note_off_c, 0, 100, 47
1, 118643, Control_c, 0, 64, 43
1, 118652, Note_on_c, 0, 74, 35
1, 118652, Note_off_c, 0, 83, 64
1, 118654, Note_on_c, 0, 96, 53
1, 118658, Control_c, 0, 64, 41
1, 118672, Note_on_c, 0, 93, 61
1, 118672, Control_c, 0, 64, 37
1, 118675, Note_off_c, 0, 96, 56
1, 118680, Note_off_c, 0, 74, 48
1, 118687, Control_c, 0, 64, 35
1, 118692, Note_off_c, 0, 93, 60
1, 118702, Control_c, 0, 64, 34
1, 118732, Note_on_c, 0, 98, 82
1, 118732, Control_c, 0, 64, 35
1, 118743, Note_on_c, 0, 73, 76
1, 118744, Note_on_c, 0, 81, 67
1, 118758, Note_off_c, 0, 73, 69
1, 118761, Note_off_c, 0, 81, 65
1, 118776, Control_c, 0, 64, 34
1, 118777, Note_on_c, 0, 97, 71
1, 118791, Control_c, 0, 64, 35
1, 118794, Note_off_c, 0, 98, 58
1, 118806, Control_c, 0, 64, 37
1, 118813, Note_on_c, 0, 93, 51
1, 118835, Control_c, 0, 64, 36
1, 118850, Control_c, 0, 64, 34
1, 118878, Note_off_c, 0, 97, 61
1, 118878, Note_on_c, 0, 88, 38
1, 118881, Control_c, 0, 64, 36
1, 118890, Note_off_c, 0, 93, 62
1, 118895, Note_on_c, 0, 89, 17
1, 118896, Control_c, 0, 64, 38
1, 118908, Note_off_c, 0, 88, 33
1, 118930, Note_off_c, 0, 89, 31
1, 118940, Control_c, 0, 64, 38
1, 118968, Note_on_c, 0, 102, 80
1, 118982, Note_on_c, 0, 83, 71
1, 118984, Control_c, 0, 64, 39
1, 118985, Note_on_c, 0, 74, 67
1, 119008, Note_off_c, 0, 83, 64
1, 119011, Note_off_c, 0, 74, 67
1, 119029, Note_on_c, 0, 100, 71
1, 119042, Note_off_c, 0, 102, 55
1, 119058, Control_c, 0, 64, 39
1, 119088, Control_c, 0, 64, 39
1, 119096, Note_on_c, 0, 97, 72
1, 119117, Control_c, 0, 64, 40
1, 119128, Note_on_c, 0, 81, 69
1, 119132, Control_c, 0, 64, 41
1, 119137, Note_on_c, 0, 73, 60
1, 119137, Note_off_c, 0, 100, 62
1, 119155, Control_c, 0, 64, 39
1, 119160, Note_on_c, 0, 93, 78
1, 119160, Note_off_c, 0, 81, 68
1, 119162, Note_off_c, 0, 73, 62
1, 119169, Control_c, 0, 64, 38
1, 119170, Note_off_c, 0, 97, 63
1, 119209, Note_off_c, 0, 93, 63
1, 119229, Control_c, 0, 64, 37
1, 119243, Control_c, 0, 64, 36
1, 119246, Note_on_c, 0, 97, 77
1, 119255, Note_on_c, 0, 80, 87
1, 119258, Control_c, 0, 64, 38
1, 119268, Note_on_c, 0, 71, 64
1, 119273, Note_off_c, 0, 80, 72
1, 119273, Control_c, 0, 64, 43
1, 119285, Note_off_c, 0, 71, 63
1, 119288, Control_c, 0, 64, 45
1, 119303, Control_c, 0, 64, 45
1, 119316, Note_on_c, 0, 95, 52
1, 119317, Control_c, 0, 64, 44
1, 119332, Control_c, 0, 64, 42
1, 119339, Note_on_c, 0, 92, 74
1, 119347, Control_c, 0, 64, 42
1, 119349, Note_off_c, 0, 97, 62
1, 119362, Control_c, 0, 64, 43
1, 119377, Note_on_c, 0, 88, 68
1, 119377, Note_off_c, 0, 95, 65
1, 119405, Note_off_c, 0, 92, 65
1, 119406, Control_c, 0, 64, 41
1, 119421, Control_c, 0, 64, 40
1, 119422, Note_off_c, 0, 88, 62
1, 119436, Control_c, 0, 64, 41
1, 119450, Control_c, 0, 64, 42
1, 119464, Note_on_c, 0, 95, 70
1, 119489, Note_on_c, 0, 83, 94
1, 119490, Note_on_c, 0, 76, 83
1, 119493, Note_on_c, 0, 93, 74
1, 119495, Control_c, 0, 64, 41
1, 119510, Control_c, 0, 64, 39
1, 119510, Note_off_c, 0, 83, 65
1, 119511, Note_off_c, 0, 76, 70
1, 119516, Note_off_c, 0, 95, 65
1, 119525, Control_c, 0, 64, 38
1, 119534, Note_on_c, 0, 88, 75
1, 119540, Control_c, 0, 64, 38
1, 119543, Note_off_c, 0, 93, 62
1, 119569, Control_c, 0, 64, 37
1, 119581, Note_on_c, 0, 90, 68
1, 119584, Control_c, 0, 64, 36
1, 119585, Note_off_c, 0, 88, 61
1, 119626, Note_on_c, 0, 92, 79
1, 119629, Control_c, 0, 64, 34
1, 119643, Control_c, 0, 64, 29
1, 119646, Note_off_c, 0, 90, 64
1, 119665, Note_off_c, 0, 92, 63
1, 119674, Control_c, 0, 64, 33
1, 119687, Note_on_c, 0, 93, 85
1, 119689, Control_c, 0, 64, 35
1, 119719, Control_c, 0, 64, 34
1, 119734, Note_on_c, 0, 95, 78
1, 119734, Control_c, 0, 64, 32
1, 119735, Note_off_c, 0, 93, 61
1, 119736, Note_on_c, 0, 76, 93
1, 119740, Note_on_c, 0, 68, 74
1, 119740, Note_on_c, 0, 64, 75
1, 119748, Control_c, 0, 64, 33
1, 119751, Note_off_c, 0, 76, 75
1, 119759, Note_on_c, 0, 97, 86
1, 119763, Control_c, 0, 64, 34
1, 119768, Note_off_c, 0, 64, 69
1, 119769, Note_off_c, 0, 68, 66
1, 119773, Note_on_c, 0, 71, 14
1, 119778, Control_c, 0, 64, 34
1, 119778, Note_off_c, 0, 95, 67
1, 119793, Control_c, 0, 64, 33
1, 119797, Note_off_c, 0, 97, 66
1, 119807, Control_c, 0, 64, 29
1, 119816, Note_off_c, 0, 71, 28
1, 119829, Note_on_c, 0, 98, 84
1, 119837, Control_c, 0, 64, 36
1, 119852, Control_c, 0, 64, 39
1, 119881, Control_c, 0, 64, 38
1, 119883, Note_on_c, 0, 100, 89
1, 119895, Note_off_c, 0, 98, 66
1, 119904, Control_c, 0, 64, 29
1, 119904, Note_on_c, 0, 102, 85
1, 119918, Control_c, 0, 64, 0
1, 119939, Note_on_c, 0, 104, 75
1, 119958, Note_off_c, 0, 100, 63
1, 119988, Note_off_c, 0, 102, 65
1, 119999, Note_off_c, 0, 104, 66
1, 120007, Control_c, 0, 64, 52
1, 120022, Control_c, 0, 64, 76
1, 120026, Note_on_c, 0, 69, 102
1, 120029, Note_on_c, 0, 57, 85
1, 120030, Note_on_c, 0, 105, 108
1, 120031, Note_on_c, 0, 93, 105
1, 120034, Note_on_c, 0, 100, 94
1, 120035, Note_on_c, 0, 97, 99
1, 120035, Note_on_c, 0, 61, 85
1, 120037, Control_c, 0, 64, 90
1, 120044, Note_on_c, 0, 64, 69
1, 120052, Control_c, 0, 64, 102
1, 120055, Note_off_c, 0, 69, 70
1, 120056, Note_off_c, 0, 57, 65
1, 120056, Note_off_c, 0, 61, 71
1, 120061, Note_on_c, 0, 101, 49
1, 120061, Note_off_c, 0, 64, 65
1, 120061, Note_off_c, 0, 93, 67
1, 120061, Note_off_c, 0, 105, 69
1, 120064, Note_on_c, 0, 103, 39
1, 120065, Note_off_c, 0, 103, 127
1, 120066, Control_c, 0, 64, 107
1, 120067, Note_off_c, 0, 100, 63
1, 120073, Note_off_c, 0, 97, 66
1, 120081, Control_c, 0, 64, 110
1, 120089, Note_off_c, 0, 101, 35
1, 120096, Control_c, 0, 64, 113
1, 120111, Control_c, 0, 64, 116
1, 120125, Control_c, 0, 64, 119
1, 120140, Control_c, 0, 64, 121
1, 120155, Control_c, 0, 64, 121
1, 120170, Control_c, 0, 64, 122
1, 120185, Control_c, 0, 64, 122
1, 120244, Control_c, 0, 64, 122
1, 120259, Control_c, 0, 64, 121
1, 120273, Control_c, 0, 64, 113
1, 120288, Control_c, 0, 64, 99
1, 120303, Control_c, 0, 64, 85
1, 120317, Control_c, 0, 64, 70
1, 120331, Note_on_c, 0, 57, 96
1, 120332, Control_c, 0, 64, 0
1, 120336, Note_on_c, 0, 69, 88
1, 120352, Note_off_c, 0, 57, 71
1, 120357, Note_off_c, 0, 69, 72
1, 120588, Note_on_c, 0, 56, 102
1, 120589, Note_on_c, 0, 68, 94
1, 120600, Control_c, 0, 64, 64
1, 120614, Control_c, 0, 64, 73
1, 120625, Note_off_c, 0, 56, 66
1, 120629, Note_off_c, 0, 68, 68
1, 120629, Control_c, 0, 64, 79
1, 120652, Control_c, 0, 64, 85
1, 120667, Control_c, 0, 64, 90
1, 120682, Control_c, 0, 64, 97
1, 120696, Control_c, 0, 64, 101
1, 120711, Control_c, 0, 64, 104
1, 120726, Control_c, 0, 64, 106
1, 120741, Control_c, 0, 64, 109
1, 120755, Control_c, 0, 64, 112
1, 120770, Control_c, 0, 64, 114
1, 120785, Control_c, 0, 64, 115
1, 120829, Control_c, 0, 64, 113
1, 120844, Control_c, 0, 64, 104
1, 120857, Note_on_c, 0, 53, 93
1, 120858, Note_on_c, 0, 65, 86
1, 120859, Note_on_c, 0, 45, 92
1, 120859, Control_c, 0, 64, 89
1, 120861, Note_on_c, 0, 60, 83
1, 120866, Note_on_c, 0, 33, 89
1, 120874, Control_c, 0, 64, 69
1, 120885, Note_off_c, 0, 53, 67
1, 120887, Note_off_c, 0, 60, 68
1, 120889, Control_c, 0, 64, 0
1, 120891, Note_off_c, 0, 65, 65
1, 120893, Note_off_c, 0, 45, 68
1, 120893, Note_off_c, 0, 33, 70
1, 121115, Note_on_c, 0, 44, 97
1, 121116, Note_on_c, 0, 52, 99
1, 121120, Note_on_c, 0, 59, 85
1, 121122, Note_on_c, 0, 32, 84
1, 121123, Note_on_c, 0, 64, 80
1, 121139, Note_off_c, 0, 44, 70
1, 121141, Note_off_c, 0, 52, 68
1, 121146, Note_off_c, 0, 59, 67
1, 121158, Note_off_c, 0, 32, 66
1, 121170, Note_off_c, 0, 64, 63
1, 121371, Note_on_c, 0, 41, 97
1, 121373, Note_on_c, 0, 29, 82
1, 121377, Note_on_c, 0, 57, 97
1, 121379, Note_on_c, 0, 69, 86
1, 121381, Note_on_c, 0, 62, 85
1, 121404, Note_off_c, 0, 41, 72
1, 121409, Note_off_c, 0, 57, 65
1, 121412, Note_off_c, 0, 62, 69
1, 121417, Note_off_c, 0, 29, 67
1, 121424, Note_off_c, 0, 69, 69
1, 121638, Control_c, 0, 64, 65
1, 121648, Note_on_c, 0, 40, 97
1, 121648, Note_on_c, 0, 56, 92
1, 121649, Note_on_c, 0, 68, 87
1, 121650, Note_on_c, 0, 61, 83
1, 121653, Control_c, 0, 64, 72
1, 121656, Note_on_c, 0, 28, 83
1, 121668, Control_c, 0, 64, 72
1, 121683, Control_c, 0, 64, 74
1, 121689, Note_off_c, 0, 61, 62
1, 121690, Note_off_c, 0, 56, 63
1, 121692, Note_on_c, 0, 29, 37
1, 121697, Control_c, 0, 64, 78
1, 121701, Note_off_c, 0, 68, 67
1, 121712, Control_c, 0, 64, 85
1, 121727, Control_c, 0, 64, 91
1, 121742, Control_c, 0, 64, 94
1, 121744, Note_off_c, 0, 29, 29
1, 121757, Control_c, 0, 64, 95
1, 121771, Control_c, 0, 64, 96
1, 121786, Control_c, 0, 64, 98
1, 121801, Control_c, 0, 64, 100
1, 121816, Control_c, 0, 64, 101
1, 121831, Control_c, 0, 64, 102
1, 121853, Note_off_c, 0, 40, 59
1, 121858, Note_off_c, 0, 28, 57
1, 121889, Control_c, 0, 64, 101
1, 121892, Note_on_c, 0, 53, 90
1, 121894, Note_on_c, 0, 65, 84
1, 121898, Note_on_c, 0, 62, 78
1, 121904, Control_c, 0, 64, 100
1, 121919, Control_c, 0, 64, 91
1, 121924, Note_off_c, 0, 62, 67
1, 121926, Note_off_c, 0, 53, 65
1, 121934, Control_c, 0, 64, 79
1, 121939, Note_off_c, 0, 65, 66
1, 121949, Control_c, 0, 64, 64
1, 121963, Control_c, 0, 64, 0
1, 121995, Note_on_c, 0, 38, 88
1, 122011, Note_on_c, 0, 26, 70
1, 122036, Note_off_c, 0, 26, 64
1, 122047, Note_off_c, 0, 38, 62
1, 122143, Note_on_c, 0, 33, 81
1, 122143, Note_on_c, 0, 37, 85
1, 122148, Note_on_c, 0, 28, 69
1, 122152, Note_on_c, 0, 52, 94
1, 122152, Note_on_c, 0, 61, 74
1, 122157, Note_on_c, 0, 57, 81
1, 122157, Note_on_c, 0, 64, 79
1, 122158, Note_on_c, 0, 25, 74
1, 122180, Control_c, 0, 64, 64
1, 122189, Note_off_c, 0, 52, 68
1, 122194, Control_c, 0, 64, 70
1, 122196, Note_off_c, 0, 57, 61
1, 122201, Note_off_c, 0, 37, 66
1, 122206, Note_off_c, 0, 33, 64
1, 122209, Control_c, 0, 64, 73
1, 122222, Note_off_c, 0, 64, 64
1, 122224, Control_c, 0, 64, 75
1, 122226, Note_off_c, 0, 28, 62
1, 122226, Note_off_c, 0, 61, 63
1, 122229, Note_off_c, 0, 25, 63
1, 122239, Control_c, 0, 64, 79
1, 122254, Control_c, 0, 64, 83
1, 122268, Control_c, 0, 64, 86
1, 122283, Control_c, 0, 64, 87
1, 122298, Control_c, 0, 64, 88
1, 122312, Control_c, 0, 64, 89
1, 122327, Control_c, 0, 64, 90
1, 122342, Control_c, 0, 64, 91
1, 122357, Control_c, 0, 64, 93
1, 122372, Control_c, 0, 64, 94
1, 122387, Control_c, 0, 64, 94
1, 122409, Note_on_c, 0, 33, 92
1, 122416, Note_on_c, 0, 21, 89
1, 122476, Control_c, 0, 64, 93
1, 122491, Control_c, 0, 64, 90
1, 122506, Control_c, 0, 64, 82
1, 122518, Note_on_c, 0, 57, 84
1, 122520, Note_on_c, 0, 69, 77
1, 122520, Control_c, 0, 64, 72
1, 122535, Control_c, 0, 64, 57
1, 122550, Control_c, 0, 64, 0
1, 122554, Note_off_c, 0, 69, 67
1, 122564, Note_off_c, 0, 57, 64
1, 122587, Note_off_c, 0, 21, 60
1, 122607, Note_off_c, 0, 33, 64
1, 122650, Note_on_c, 0, 64, 80
1, 122651, Note_on_c, 0, 52, 87
1, 122656, Note_on_c, 0, 61, 78
1, 122657, Note_on_c, 0, 57, 72
1, 122719, Note_off_c, 0, 52, 59
1, 122762, Note_off_c, 0, 57, 60
1, 122769, Note_off_c, 0, 64, 62
1, 122770, Note_on_c, 0, 45, 88
1, 122773, Note_on_c, 0, 33, 75
1, 122792, Note_off_c, 0, 61, 62
1, 122802, Note_off_c, 0, 45, 68
1, 122823, Note_off_c, 0, 33, 65
1, 122899, Note_on_c, 0, 40, 94
1, 122901, Note_on_c, 0, 28, 92
1, 123012, Note_on_c, 0, 57, 86
1, 123012, Note_on_c, 0, 69, 81
1, 123037, Note_off_c, 0, 69, 63
1, 123049, Note_off_c, 0, 28, 61
1, 123057, Note_off_c, 0, 57, 64
1, 123079, Note_off_c, 0, 40, 63
1, 123133, Note_on_c, 0, 52, 96
1, 123135, Note_on_c, 0, 64, 86
1, 123139, Note_on_c, 0, 57, 80
1, 123140, Note_on_c, 0, 61, 83
1, 123227, Note_off_c, 0, 52, 61
1, 123252, Note_on_c, 0, 45, 93
1, 123255, Note_on_c, 0, 33, 85
1, 123260, Note_off_c, 0, 57, 60
1, 123263, Note_off_c, 0, 64, 62
1, 123287, Note_off_c, 0, 45, 66
1, 123290, Note_off_c, 0, 61, 63
1, 123309, Note_off_c, 0, 33, 66
1, 123383, Note_on_c, 0, 28, 95
1, 123383, Note_on_c, 0, 40, 92
1, 123504, Note_on_c, 0, 57, 86
1, 123504, Note_on_c, 0, 69, 83
1, 123542, Note_off_c, 0, 69, 67
1, 123551, Note_off_c, 0, 57, 65
1, 123611, Note_off_c, 0, 28, 61
1, 123612, Note_off_c, 0, 40, 62
1, 123672, Note_on_c, 0, 64, 84
1, 123673, Note_on_c, 0, 52, 93
1, 123674, Note_on_c, 0, 57, 81
1, 123683, Note_on_c, 0, 61, 76
1, 123720, Control_c, 0, 64, 28
1, 123735, Control_c, 0, 64, 61
1, 123750, Control_c, 0, 64, 65
1, 123764, Control_c, 0, 64, 66
1, 123779, Control_c, 0, 64, 67
1, 123793, Note_off_c, 0, 52, 57
1, 123794, Control_c, 0, 64, 68
1, 123809, Control_c, 0, 64, 69
1, 123811, Note_off_c, 0, 64, 55
1, 123824, Control_c, 0, 64, 70
1, 123838, Control_c, 0, 64, 71
1, 123851, Note_off_c, 0, 61, 54
1, 123853, Control_c, 0, 64, 72
1, 123855, Note_off_c, 0, 57, 59
1, 123868, Control_c, 0, 64, 72
1, 123883, Control_c, 0, 64, 73
1, 123935, Note_on_c, 0, 53, 82
1, 123937, Note_on_c, 0, 41, 79
1, 123972, Control_c, 0, 64, 71
1, 123987, Control_c, 0, 64, 65
1, 123999, Note_off_c, 0, 53, 62
1, 124002, Control_c, 0, 64, 0
1, 124050, Note_off_c, 0, 41, 59
1, 124062, Control_c, 0, 64, 27
1, 124062, Note_on_c, 0, 63, 72
1, 124068, Note_on_c, 0, 51, 78
1, 124077, Control_c, 0, 64, 61
1, 124091, Control_c, 0, 64, 64
1, 124106, Note_off_c, 0, 51, 62
1, 124122, Note_off_c, 0, 63, 64
1, 124186, Note_on_c, 0, 43, 73
1, 124193, Note_on_c, 0, 48, 77
1, 124197, Note_on_c, 0, 52, 82
1, 124201, Note_on_c, 0, 55, 73
1, 124205, Note_on_c, 0, 64, 78
1, 124210, Control_c, 0, 64, 64
1, 124225, Note_off_c, 0, 52, 66
1, 124225, Control_c, 0, 64, 61
1, 124229, Note_off_c, 0, 55, 65
1, 124232, Note_on_c, 0, 60, 31
1, 124239, Control_c, 0, 64, 54
1, 124250, Note_off_c, 0, 64, 63
1, 124254, Control_c, 0, 64, 43
1, 124259, Note_off_c, 0, 48, 63
1, 124263, Note_off_c, 0, 60, 33
1, 124269, Control_c, 0, 64, 34
1, 124280, Note_off_c, 0, 43, 62
1, 124283, Control_c, 0, 64, 32
1, 124298, Control_c, 0, 64, 18
1, 124313, Control_c, 0, 64, 0
1, 124327, Note_on_c, 0, 69, 81
1, 124333, Note_on_c, 0, 57, 71
1, 124357, Note_off_c, 0, 57, 65
1, 124360, Note_off_c, 0, 69, 68
1, 124452, Note_on_c, 0, 60, 87
1, 124455, Note_on_c, 0, 72, 83
1, 124456, Note_on_c, 0, 48, 78
1, 124460, Note_on_c, 0, 63, 77
1, 124468, Note_on_c, 0, 54, 72
1, 124476, Note_off_c, 0, 72, 71
1, 124483, Note_off_c, 0, 63, 69
1, 124506, Note_off_c, 0, 60, 59
1, 124508, Note_off_c, 0, 54, 56
1, 124565, Note_on_c, 0, 63, 81
1, 124571, Note_on_c, 0, 75, 80
1, 124574, Control_c, 0, 64, 16
1, 124584, Note_off_c, 0, 48, 53
1, 124588, Control_c, 0, 64, 18
1, 124590, Note_off_c, 0, 63, 68
1, 124608, Note_off_c, 0, 75, 62
1, 124633, Control_c, 0, 64, 16
1, 124648, Control_c, 0, 64, 13
1, 124662, Control_c, 0, 64, 10
1, 124677, Control_c, 0, 64, 0
1, 124688, Note_on_c, 0, 55, 77
1, 124689, Note_on_c, 0, 60, 86
1, 124689, Note_on_c, 0, 64, 83
1, 124693, Note_on_c, 0, 76, 84
1, 124694, Note_on_c, 0, 48, 77
1, 124702, Note_on_c, 0, 72, 63
1, 124711, Note_off_c, 0, 64, 70
1, 124718, Note_off_c, 0, 72, 66
1, 124734, Note_off_c, 0, 76, 66
1, 124742, Note_off_c, 0, 55, 59
1, 124745, Note_off_c, 0, 60, 56
1, 124788, Note_off_c, 0, 48, 61
1, 124819, Note_on_c, 0, 81, 81
1, 124823, Note_on_c, 0, 69, 70
1, 124845, Note_off_c, 0, 81, 62
1, 124849, Note_off_c, 0, 69, 69
1, 124938, Note_on_c, 0, 48, 73
1, 124939, Note_on_c, 0, 60, 83
1, 124945, Note_on_c, 0, 54, 72
1, 124947, Note_on_c, 0, 84, 77
1, 124959, Control_c, 0, 64, 13
1, 124962, Note_on_c, 0, 72, 50
1, 124962, Note_off_c, 0, 60, 68
1, 124968, Note_off_c, 0, 84, 69
1, 124977, Note_off_c, 0, 54, 65
1, 124983, Note_off_c, 0, 72, 39
1, 124983, Note_off_c, 0, 48, 65
1, 124988, Control_c, 0, 64, 10
1, 125048, Control_c, 0, 64, 13
1, 125062, Control_c, 0, 64, 20
1, 125071, Note_on_c, 0, 87, 76
1, 125077, Control_c, 0, 64, 27
1, 125078, Note_on_c, 0, 75, 64
1, 125092, Control_c, 0, 64, 33
1, 125093, Note_off_c, 0, 87, 70
1, 125096, Note_off_c, 0, 75, 64
1, 125106, Control_c, 0, 64, 36
1, 125121, Control_c, 0, 64, 38
1, 125144, Control_c, 0, 64, 40
1, 125159, Control_c, 0, 64, 42
1, 125174, Control_c, 0, 64, 42
1, 125188, Control_c, 0, 64, 41
1, 125203, Control_c, 0, 64, 38
1, 125218, Control_c, 0, 64, 36
1, 125237, Note_on_c, 0, 93, 86
1, 125239, Note_on_c, 0, 61, 79
1, 125239, Note_on_c, 0, 81, 79
1, 125242, Note_on_c, 0, 49, 61
1, 125242, Note_on_c, 0, 84, 75
1, 125248, Control_c, 0, 64, 36
1, 125252, Note_on_c, 0, 55, 53
1, 125262, Note_on_c, 0, 57, 50
1, 125264, Note_off_c, 0, 61, 68
1, 125266, Note_off_c, 0, 84, 70
1, 125274, Note_off_c, 0, 81, 59
1, 125278, Note_off_c, 0, 93, 61
1, 125282, Note_off_c, 0, 55, 66
1, 125285, Note_off_c, 0, 57, 56
1, 125293, Control_c, 0, 64, 36
1, 125305, Note_off_c, 0, 49, 61
1, 125308, Control_c, 0, 64, 34
1, 125323, Control_c, 0, 64, 34
1, 125367, Control_c, 0, 64, 29
1, 125382, Control_c, 0, 64, 23
1, 125397, Control_c, 0, 64, 13
1, 125411, Control_c, 0, 64, 0
1, 125592, Note_on_c, 0, 81, 73
1, 125606, Note_on_c, 0, 69, 56
1, 125609, Note_on_c, 0, 72, 53
1, 125609, Note_on_c, 0, 48, 40
1, 125621, Note_on_c, 0, 57, 45
1, 125692, Control_c, 0, 64, 55
1, 125696, Note_off_c, 0, 69, 0
1, 125696, Note_on_c, 0, 69, 21
1, 125707, Control_c, 0, 64, 65
1, 125719, Note_off_c, 0, 48, 40
1, 125722, Note_off_c, 0, 57, 60
1, 125722, Control_c, 0, 64, 67
1, 125733, Note_off_c, 0, 72, 51
1, 125737, Control_c, 0, 64, 68
1, 125752, Control_c, 0, 64, 69
1, 125756, Note_off_c, 0, 81, 56
1, 125767, Control_c, 0, 64, 71
1, 125782, Control_c, 0, 64, 73
1, 125797, Control_c, 0, 64, 75
1, 125799, Note_off_c, 0, 69, 57
1, 125811, Control_c, 0, 64, 76
1, 125826, Control_c, 0, 64, 77
1, 125867, Note_on_c, 0, 72, 64
1, 125867, Note_on_c, 0, 79, 64
1, 125868, Note_on_c, 0, 64, 58
1, 125874, Note_on_c, 0, 55, 56
1, 125892, Control_c, 0, 64, 76
1, 125898, Note_off_c, 0, 64, 64
1, 125903, Note_off_c, 0, 55, 62
1, 125903, Note_off_c, 0, 72, 69
1, 125907, Control_c, 0, 64, 73
1, 125922, Control_c, 0, 64, 67
1, 125927, Note_off_c, 0, 79, 58
1, 125937, Control_c, 0, 64, 47
1, 125952, Control_c, 0, 64, 0
1, 125998, Note_on_c, 0, 55, 58
1, 125999, Note_on_c, 0, 76, 68
1, 126005, Note_on_c, 0, 67, 62
1, 126022, Note_on_c, 0, 64, 14
1, 126028, Note_off_c, 0, 76, 66
1, 126034, Note_off_c, 0, 55, 63
1, 126035, Note_off_c, 0, 67, 65
1, 126047, Note_off_c, 0, 64, 45
1, 126119, Note_on_c, 0, 77, 76
1, 126120, Note_on_c, 0, 69, 75
1, 126144, Note_off_c, 0, 69, 71
1, 126178, Note_off_c, 0, 77, 60
1, 126230, Note_on_c, 0, 74, 72
1, 126232, Note_on_c, 0, 65, 74
1, 126259, Note_off_c, 0, 65, 68
1, 126270, Note_off_c, 0, 74, 63
1, 126341, Note_on_c, 0, 62, 69
1, 126348, Note_on_c, 0, 67, 79
1, 126348, Note_on_c, 0, 76, 75
1, 126366, Note_off_c, 0, 62, 65
1, 126375, Note_off_c, 0, 67, 63
1, 126402, Note_on_c, 0, 53, 3
1, 126403, Note_off_c, 0, 76, 64
1, 126436, Note_off_c, 0, 53, 27
1, 126456, Note_on_c, 0, 64, 69
1, 126457, Note_on_c, 0, 72, 72
1, 126485, Note_off_c, 0, 64, 66
1, 126495, Note_off_c, 0, 72, 64
1, 126572, Note_on_c, 0, 43, 75
1, 126575, Note_on_c, 0, 53, 66
1, 126580, Note_on_c, 0, 74, 73
1, 126584, Note_on_c, 0, 65, 74
1, 126594, Note_off_c, 0, 53, 67
1, 126596, Note_off_c, 0, 43, 64
1, 126611, Note_off_c, 0, 65, 69
1, 126634, Note_off_c, 0, 74, 64
1, 126697, Note_on_c, 0, 71, 74
1, 126699, Note_on_c, 0, 62, 69
1, 126727, Note_off_c, 0, 62, 67
1, 126749, Note_off_c, 0, 71, 58
1, 126834, Note_on_c, 0, 48, 88
1, 126844, Note_on_c, 0, 60, 79
1, 126845, Note_on_c, 0, 72, 78
1, 126847, Note_on_c, 0, 36, 55
1, 126847, Note_on_c, 0, 40, 61
1, 126847, Note_on_c, 0, 64, 66
1, 126848, Note_on_c, 0, 67, 70
1, 126848, Control_c, 0, 64, 27
1, 126859, Note_off_c, 0, 48, 72
1, 126864, Control_c, 0, 64, 64
1, 126867, Note_off_c, 0, 60, 69
1, 126871, Note_off_c, 0, 64, 66
1, 126874, Note_off_c, 0, 40, 59
1, 126875, Note_off_c, 0, 36, 56
1, 126875, Note_off_c, 0, 67, 67
1, 126879, Control_c, 0, 64, 69
1, 126892, Note_off_c, 0, 72, 63
1, 126894, Control_c, 0, 64, 71
1, 126908, Control_c, 0, 64, 72
1, 126923, Control_c, 0, 64, 73
1, 126938, Control_c, 0, 64, 74
1, 126968, Control_c, 0, 64, 74
1, 126997, Control_c, 0, 64, 75
1, 127056, Control_c, 0, 64, 75
1, 127063, Note_on_c, 0, 63, 83
1, 127064, Note_on_c, 0, 59, 51
1, 127070, Note_on_c, 0, 56, 68
1, 127090, Note_off_c, 0, 63, 68
1, 127096, Note_off_c, 0, 59, 64
1, 127102, Note_off_c, 0, 56, 64
1, 127135, Note_on_c, 0, 68, 77
1, 127138, Note_on_c, 0, 60, 66
1, 127138, Note_on_c, 0, 63, 66
1, 127154, Note_off_c, 0, 60, 68
1, 127167, Note_off_c, 0, 63, 68
1, 127175, Control_c, 0, 64, 75
1, 127189, Control_c, 0, 64, 74
1, 127203, Note_off_c, 0, 68, 62
1, 127204, Control_c, 0, 64, 71
1, 127217, Note_on_c, 0, 72, 74
1, 127219, Control_c, 0, 64, 66
1, 127234, Control_c, 0, 64, 51
1, 127247, Note_off_c, 0, 72, 67
1, 127249, Control_c, 0, 64, 0
1, 127284, Note_on_c, 0, 68, 89
1, 127295, Note_on_c, 0, 61, 74
1, 127295, Note_on_c, 0, 65, 63
1, 127309, Note_off_c, 0, 68, 66
1, 127323, Note_off_c, 0, 65, 68
1, 127323, Note_off_c, 0, 61, 65
1, 127357, Note_on_c, 0, 73, 79
1, 127368, Note_on_c, 0, 68, 55
1, 127381, Note_on_c, 0, 65, 48
1, 127396, Note_off_c, 0, 68, 61
1, 127406, Note_off_c, 0, 65, 56
1, 127412, Note_off_c, 0, 73, 62
1, 127442, Note_on_c, 0, 77, 73
1, 127460, Note_off_c, 0, 77, 70
1, 127535, Note_on_c, 0, 68, 63
1, 127537, Note_on_c, 0, 77, 85
1, 127538, Note_on_c, 0, 65, 51
1, 127538, Note_on_c, 0, 71, 68
1, 127542, Note_on_c, 0, 80, 84
1, 127558, Note_off_c, 0, 77, 67
1, 127560, Note_off_c, 0, 80, 73
1, 127567, Note_off_c, 0, 71, 61
1, 127574, Note_off_c, 0, 68, 58
1, 127620, Note_on_c, 0, 88, 91
1, 127630, Note_on_c, 0, 76, 77
1, 127644, Note_off_c, 0, 65, 0
1, 127651, Note_off_c, 0, 76, 73
1, 127654, Note_on_c, 0, 86, 45
1, 127670, Note_off_c, 0, 88, 62
1, 127671, Note_on_c, 0, 68, 26
1, 127672, Note_on_c, 0, 65, 30
1, 127681, Note_off_c, 0, 86, 54
1, 127684, Note_on_c, 0, 71, 49
1, 127711, Note_on_c, 0, 79, 24
1, 127713, Note_on_c, 0, 86, 82
1, 127714, Note_on_c, 0, 76, 83
1, 127733, Note_off_c, 0, 76, 73
1, 127739, Note_off_c, 0, 79, 63
1, 127742, Note_off_c, 0, 71, 61
1, 127743, Note_off_c, 0, 68, 63
1, 127745, Note_off_c, 0, 65, 65
1, 127747, Note_off_c, 0, 86, 61
1, 127788, Note_on_c, 0, 76, 91
1, 127791, Note_on_c, 0, 79, 88
1, 127791, Note_on_c, 0, 84, 89
1, 127794, Note_on_c, 0, 60, 89
1, 127797, Note_on_c, 0, 67, 94
1, 127806, Control_c, 0, 64, 64
1, 127811, Note_on_c, 0, 64, 68
1, 127812, Note_off_c, 0, 79, 66
1, 127815, Note_on_c, 0, 86, 22
1, 127821, Note_off_c, 0, 76, 64
1, 127821, Control_c, 0, 64, 70
1, 127828, Note_off_c, 0, 67, 64
1, 127830, Note_off_c, 0, 60, 58
1, 127833, Note_off_c, 0, 64, 66
1, 127835, Note_off_c, 0, 84, 65
1, 127836, Control_c, 0, 64, 74
1, 127851, Control_c, 0, 64, 77
1, 127852, Note_off_c, 0, 86, 42
1, 127866, Control_c, 0, 64, 79
1, 127880, Control_c, 0, 64, 81
1, 127895, Control_c, 0, 64, 82
1, 127910, Control_c, 0, 64, 83
1, 127925, Control_c, 0, 64, 84
1, 127939, Control_c, 0, 64, 85
1, 127954, Control_c, 0, 64, 86
1, 127969, Control_c, 0, 64, 87
1, 127984, Control_c, 0, 64, 89
1, 127999, Control_c, 0, 64, 90
1, 128013, Control_c, 0, 64, 91
1, 128027, Note_on_c, 0, 71, 66
1, 128027, Note_on_c, 0, 75, 89
1, 128031, Note_on_c, 0, 68, 80
1, 128043, Control_c, 0, 64, 88
1, 128058, Control_c, 0, 64, 79
1, 128067, Note_off_c, 0, 75, 66
1, 128070, Note_off_c, 0, 71, 63
1, 128073, Control_c, 0, 64, 69
1, 128075, Note_off_c, 0, 68, 62
1, 128087, Control_c, 0, 64, 63
1, 128092, Note_on_c, 0, 72, 73
1, 128096, Note_on_c, 0, 80, 75
1, 128102, Control_c, 0, 64, 66
1, 128103, Note_on_c, 0, 75, 45
1, 128117, Control_c, 0, 64, 71
1, 128119, Note_off_c, 0, 72, 68
1, 128139, Control_c, 0, 64, 78
1, 128145, Note_off_c, 0, 75, 67
1, 128154, Control_c, 0, 64, 85
1, 128169, Control_c, 0, 64, 89
1, 128184, Control_c, 0, 64, 91
1, 128186, Note_on_c, 0, 84, 79
1, 128186, Note_off_c, 0, 80, 60
1, 128199, Control_c, 0, 64, 90
1, 128213, Control_c, 0, 64, 86
1, 128220, Note_off_c, 0, 84, 65
1, 128228, Control_c, 0, 64, 73
1, 128243, Control_c, 0, 64, 49
1, 128257, Control_c, 0, 64, 56
1, 128265, Note_on_c, 0, 80, 93
1, 128267, Note_on_c, 0, 77, 83
1, 128272, Control_c, 0, 64, 68
1, 128274, Note_on_c, 0, 73, 74
1, 128287, Control_c, 0, 64, 77
1, 128292, Note_off_c, 0, 77, 63
1, 128293, Note_off_c, 0, 80, 66
1, 128302, Control_c, 0, 64, 86
1, 128310, Note_off_c, 0, 73, 64
1, 128317, Control_c, 0, 64, 92
1, 128322, Note_on_c, 0, 77, 66
1, 128325, Note_on_c, 0, 85, 84
1, 128328, Poly_aftertouch_c, 0, 80, 0
1, 128331, Control_c, 0, 64, 96
1, 128332, Note_on_c, 0, 80, 59
1, 128346, Control_c, 0, 64, 97
1, 128348, Note_off_c, 0, 77, 64
1, 128358, Note_off_c, 0, 80, 69
1, 128361, Control_c, 0, 64, 98
1, 128376, Control_c, 0, 64, 98
1, 128399, Note_off_c, 0, 85, 63
1, 128402, Note_on_c, 0, 89, 84
1, 128420, Control_c, 0, 64, 99
1, 128426, Note_off_c, 0, 89, 67
1, 128496, Control_c, 0, 64, 99
1, 128506, Note_on_c, 0, 89, 84
1, 128510, Control_c, 0, 64, 100
1, 128512, Note_on_c, 0, 92, 89
1, 128521, Note_on_c, 0, 83, 70
1, 128525, Control_c, 0, 64, 101
1, 128527, Note_on_c, 0, 80, 67
1, 128530, Note_off_c, 0, 92, 72
1, 128530, Note_on_c, 0, 77, 58
1, 128536, Note_off_c, 0, 89, 62
1, 128540, Control_c, 0, 64, 101
1, 128551, Note_off_c, 0, 83, 59
1, 128554, Control_c, 0, 64, 102
1, 128562, Note_off_c, 0, 80, 58
1, 128569, Control_c, 0, 64, 103
1, 128583, Note_on_c, 0, 100, 91
1, 128584, Control_c, 0, 64, 103
1, 128599, Note_on_c, 0, 88, 78
1, 128599, Control_c, 0, 64, 104
1, 128614, Control_c, 0, 64, 105
1, 128620, Note_off_c, 0, 88, 68
1, 128629, Control_c, 0, 64, 107
1, 128644, Note_off_c, 0, 100, 64
1, 128644, Control_c, 0, 64, 109
1, 128658, Control_c, 0, 64, 111
1, 128664, Note_on_c, 0, 80, 38
1, 128664, Note_on_c, 0, 83, 72
1, 128670, Note_on_c, 0, 98, 89
1, 128673, Control_c, 0, 64, 111
1, 128675, Note_on_c, 0, 88, 93
1, 128679, Note_on_c, 0, 91, 87
1, 128697, Note_off_c, 0, 91, 68
1, 128700, Note_off_c, 0, 88, 61
1, 128703, Control_c, 0, 64, 111
1, 128709, Note_off_c, 0, 83, 63
1, 128713, Note_off_c, 0, 80, 64
1, 128718, Control_c, 0, 64, 103
1, 128721, Note_off_c, 0, 77, 60
1, 128723, Note_off_c, 0, 98, 66
1, 128733, Control_c, 0, 64, 85
1, 128748, Control_c, 0, 64, 62
1, 128763, Control_c, 0, 64, 0
1, 128763, Note_on_c, 0, 88, 99
1, 128766, Note_on_c, 0, 91, 101
1, 128766, Note_on_c, 0, 96, 100
1, 128772, Note_on_c, 0, 79, 96
1, 128778, Note_on_c, 0, 72, 79
1, 128784, Note_on_c, 0, 76, 76
1, 128799, Note_off_c, 0, 88, 65
1, 128805, Note_off_c, 0, 91, 59
1, 128807, Control_c, 0, 64, 65
1, 128822, Control_c, 0, 64, 77
1, 128825, Note_off_c, 0, 96, 66
1, 128837, Control_c, 0, 64, 86
1, 128852, Control_c, 0, 64, 91
1, 128867, Control_c, 0, 64, 93
1, 128888, Control_c, 0, 64, 96
1, 128903, Control_c, 0, 64, 99
1, 128918, Control_c, 0, 64, 103
1, 128933, Control_c, 0, 64, 108
1, 128948, Control_c, 0, 64, 110
1, 128962, Control_c, 0, 64, 112
1, 129007, Control_c, 0, 64, 112
1, 129037, Control_c, 0, 64, 113
1, 129089, Note_off_c, 0, 79, 58
1, 129108, Note_off_c, 0, 76, 64
1, 129109, Note_on_c, 0, 107, 92
1, 129110, Note_on_c, 0, 104, 92
1, 129112, Note_on_c, 0, 108, 91
1, 129117, Note_off_c, 0, 72, 61
1, 129126, Note_on_c, 0, 105, 76
1, 129141, Note_off_c, 0, 105, 66
1, 129150, Note_off_c, 0, 104, 65
1, 129154, Note_off_c, 0, 108, 58
1, 129200, Note_off_c, 0, 107, 0
1, 129216, Note_on_c, 0, 107, 27
1, 129226, Note_on_c, 0, 103, 87
1, 129231, Note_on_c, 0, 106, 83
1, 129258, Note_off_c, 0, 107, 61
1, 129270, Note_off_c, 0, 103, 64
1, 129304, Control_c, 0, 64, 114
1, 129319, Control_c, 0, 64, 114
1, 129332, Note_on_c, 0, 102, 86
1, 129335, Note_on_c, 0, 105, 87
1, 129364, Control_c, 0, 64, 111
1, 129365, Note_off_c, 0, 106, 60
1, 129378, Note_off_c, 0, 102, 64
1, 129378, Control_c, 0, 64, 91
1, 129393, Control_c, 0, 64, 68
1, 129408, Control_c, 0, 64, 0
1, 129419, Note_on_c, 0, 104, 79
1, 129425, Note_on_c, 0, 62, 83
1, 129431, Note_on_c, 0, 52, 63
1, 129432, Note_on_c, 0, 59, 65
1, 129433, Note_on_c, 0, 100, 72
1, 129433, Note_on_c, 0, 56, 70
1, 129438, Note_off_c, 0, 105, 37
1, 129438, Control_c, 0, 64, 51
1, 129451, Note_off_c, 0, 62, 65
1, 129452, Control_c, 0, 64, 73
1, 129457, Note_off_c, 0, 59, 66
1, 129461, Note_off_c, 0, 52, 65
1, 129463, Note_off_c, 0, 56, 65
1, 129463, Note_off_c, 0, 104, 66
1, 129467, Control_c, 0, 64, 86
1, 129469, Note_off_c, 0, 100, 62
1, 129482, Control_c, 0, 64, 99
1, 129496, Control_c, 0, 64, 105
1, 129511, Control_c, 0, 64, 111
1, 129520, Note_on_c, 0, 103, 86
1, 129526, Control_c, 0, 64, 118
1, 129541, Control_c, 0, 64, 127
1, 129598, Note_on_c, 0, 98, 17
1, 129618, Note_on_c, 0, 102, 79
1, 129647, Note_off_c, 0, 103, 61
1, 129653, Note_off_c, 0, 98, 66
1, 129710, Note_on_c, 0, 74, 70
1, 129711, Note_on_c, 0, 97, 78
1, 129713, Note_on_c, 0, 68, 66
1, 129713, Note_on_c, 0, 71, 63
1, 129715, Note_on_c, 0, 100, 78
1, 129719, Note_on_c, 0, 64, 56
1, 129734, Note_off_c, 0, 74, 71
1, 129736, Note_off_c, 0, 71, 65
1, 129741, Note_off_c, 0, 64, 64
1, 129741, Note_off_c, 0, 68, 67
1, 129752, Note_off_c, 0, 102, 61
1, 129758, Note_off_c, 0, 97, 60
1, 129796, Note_on_c, 0, 99, 71
1, 129801, Note_off_c, 0, 100, 63
1, 129812, Note_on_c, 0, 96, 46
1, 129820, Note_off_c, 0, 99, 72
1, 129834, Note_off_c, 0, 96, 50
1, 129887, Note_on_c, 0, 98, 81
1, 129900, Note_on_c, 0, 95, 67
1, 129930, Note_off_c, 0, 95, 67
1, 129970, Note_on_c, 0, 93, 72
1, 129985, Note_on_c, 0, 97, 78
1, 129996, Note_on_c, 0, 68, 64
1, 129996, Note_off_c, 0, 93, 64
1, 129997, Note_on_c, 0, 76, 64
1, 129999, Note_off_c, 0, 98, 60
1, 130005, Note_on_c, 0, 74, 53
1, 130017, Note_off_c, 0, 76, 68
1, 130018, Note_on_c, 0, 71, 35
1, 130024, Note_off_c, 0, 74, 63
1, 130030, Note_off_c, 0, 68, 65
1, 130047, Note_off_c, 0, 71, 46
1, 130062, Note_on_c, 0, 92, 74
1, 130074, Note_on_c, 0, 95, 76
1, 130089, Note_off_c, 0, 92, 62
1, 130090, Note_off_c, 0, 97, 53
1, 130148, Note_on_c, 0, 94, 77
1, 130149, Note_off_c, 0, 95, 65
1, 130156, Note_on_c, 0, 91, 67
1, 130185, Note_off_c, 0, 91, 61
1, 130193, Note_off_c, 0, 94, 66
1, 130254, Note_on_c, 0, 95, 81
1, 130258, Note_on_c, 0, 92, 77
1, 130270, Note_on_c, 0, 80, 64
1, 130289, Note_on_c, 0, 71, 41
1, 130298, Note_off_c, 0, 80, 66
1, 130316, Note_off_c, 0, 71, 52
1, 130339, Note_off_c, 0, 95, 62
1, 130346, Note_on_c, 0, 94, 73
1, 130352, Note_on_c, 0, 91, 69
1, 130356, Note_off_c, 0, 92, 32
1, 130390, Note_off_c, 0, 91, 61
1, 130439, Note_on_c, 0, 90, 69
1, 130447, Note_on_c, 0, 93, 69
1, 130494, Note_off_c, 0, 90, 62
1, 130498, Note_off_c, 0, 94, 29
1, 130537, Note_on_c, 0, 92, 78
1, 130542, Note_off_c, 0, 93, 58
1, 130543, Note_on_c, 0, 89, 67
1, 130561, Note_on_c, 0, 80, 55
1, 130564, Note_on_c, 0, 83, 39
1, 130569, Note_on_c, 0, 76, 42
1, 130575, Note_on_c, 0, 74, 29
1, 130576, Note_off_c, 0, 89, 63
1, 130581, Note_off_c, 0, 92, 64
1, 130581, Note_off_c, 0, 80, 61
1, 130593, Note_off_c, 0, 83, 46
1, 130596, Note_off_c, 0, 76, 46
1, 130606, Note_off_c, 0, 74, 50
1, 130646, Note_on_c, 0, 91, 77
1, 130662, Note_on_c, 0, 88, 57
1, 130698, Note_off_c, 0, 88, 50
1, 130736, Note_on_c, 0, 87, 71
1, 130747, Note_off_c, 0, 91, 49
1, 130756, Note_on_c, 0, 90, 66
1, 130799, Note_off_c, 0, 87, 62
1, 130834, Note_on_c, 0, 89, 62
1, 130840, Note_on_c, 0, 86, 66
1, 130843, Note_off_c, 0, 90, 45
1, 130881, Note_off_c, 0, 89, 63
1, 130887, Note_off_c, 0, 86, 59
1, 130956, Note_on_c, 0, 88, 76
1, 130982, Note_on_c, 0, 85, 52
1, 131004, Note_off_c, 0, 85, 57
1, 131013, Note_off_c, 0, 88, 55
1, 131039, Control_c, 0, 64, 125
1, 131054, Control_c, 0, 64, 122
1, 131065, Note_on_c, 0, 87, 69
1, 131066, Note_on_c, 0, 84, 59
1, 131069, Control_c, 0, 64, 119
1, 131083, Control_c, 0, 64, 117
1, 131092, Note_off_c, 0, 84, 60
1, 131098, Control_c, 0, 64, 115
1, 131108, Note_off_c, 0, 87, 62
1, 131113, Control_c, 0, 64, 112
1, 131136, Control_c, 0, 64, 110
1, 131150, Control_c, 0, 64, 107
1, 131165, Control_c, 0, 64, 104
1, 131180, Control_c, 0, 64, 101
1, 131195, Control_c, 0, 64, 97
1, 131210, Control_c, 0, 64, 91
1, 131223, Note_on_c, 0, 86, 65
1, 131225, Control_c, 0, 64, 85
1, 131234, Note_on_c, 0, 83, 53
1, 131239, Control_c, 0, 64, 79
1, 131254, Control_c, 0, 64, 72
1, 131269, Control_c, 0, 64, 65
1, 131279, Note_off_c, 0, 83, 59
1, 131283, Control_c, 0, 64, 49
1, 131292, Note_off_c, 0, 86, 62
1, 131298, Control_c, 0, 64, 0
1, 131571, Note_on_c, 0, 97, 60
1, 131601, Note_off_c, 0, 97, 66
1, 131624, Control_c, 0, 64, 53
1, 131627, Note_on_c, 0, 100, 50
1, 131639, Control_c, 0, 64, 67
1, 131654, Control_c, 0, 64, 72
1, 131669, Control_c, 0, 64, 76
1, 131674, Note_on_c, 0, 97, 67
1, 131675, Note_off_c, 0, 100, 50
1, 131684, Control_c, 0, 64, 80
1, 131699, Control_c, 0, 64, 84
1, 131714, Control_c, 0, 64, 88
1, 131720, Note_off_c, 0, 97, 60
1, 131729, Control_c, 0, 64, 92
1, 131744, Control_c, 0, 64, 95
1, 131747, Note_on_c, 0, 88, 61
1, 131759, Control_c, 0, 64, 98
1, 131772, Note_off_c, 0, 88, 65
1, 131773, Control_c, 0, 64, 101
1, 131788, Control_c, 0, 64, 105
1, 131803, Control_c, 0, 64, 108
1, 131818, Control_c, 0, 64, 110
1, 131830, Note_on_c, 0, 86, 62
1, 131833, Control_c, 0, 64, 112
1, 131847, Control_c, 0, 64, 114
1, 131860, Note_on_c, 0, 85, 64
1, 131862, Control_c, 0, 64, 115
1, 131863, Note_off_c, 0, 86, 61
1, 131884, Control_c, 0, 64, 117
1, 131899, Control_c, 0, 64, 119
1, 131914, Note_off_c, 0, 85, 60
1, 131914, Control_c, 0, 64, 120
1, 131920, Note_on_c, 0, 83, 43
1, 131928, Control_c, 0, 64, 121
1, 131943, Note_off_c, 0, 83, 59
1, 131943, Control_c, 0, 64, 121
1, 131946, Note_on_c, 0, 81, 67
1, 131958, Control_c, 0, 64, 122
1, 131973, Control_c, 0, 64, 124
1, 131982, Note_off_c, 0, 81, 58
1, 131995, Note_on_c, 0, 85, 59
1, 132003, Control_c, 0, 64, 124
1, 132021, Note_off_c, 0, 85, 63
1, 132033, Control_c, 0, 64, 125
1, 132041, Note_on_c, 0, 81, 59
1, 132077, Control_c, 0, 64, 125
1, 132083, Note_off_c, 0, 81, 59
1, 132096, Note_on_c, 0, 85, 62
1, 132116, Note_off_c, 0, 85, 65
1, 132137, Note_on_c, 0, 81, 58
1, 132182, Note_off_c, 0, 81, 58
1, 132191, Note_on_c, 0, 85, 63
1, 132218, Note_off_c, 0, 85, 65
1, 132237, Note_on_c, 0, 81, 59
1, 132250, Note_on_c, 0, 73, 27
1, 132288, Note_off_c, 0, 81, 57
1, 132307, Note_on_c, 0, 85, 56
1, 132328, Note_off_c, 0, 85, 60
1, 132343, Note_on_c, 0, 81, 57
1, 132386, Note_off_c, 0, 73, 57
1, 132389, Note_off_c, 0, 81, 60
1, 132395, Note_on_c, 0, 76, 15
1, 132396, Note_on_c, 0, 85, 64
1, 132423, Note_off_c, 0, 85, 65
1, 132438, Note_off_c, 0, 76, 35
1, 132450, Note_on_c, 0, 81, 66
1, 132502, Note_off_c, 0, 81, 60
1, 132510, Note_on_c, 0, 85, 64
1, 132528, Note_off_c, 0, 85, 64
1, 132554, Note_on_c, 0, 81, 60
1, 132585, Note_on_c, 0, 57, 38
1, 132594, Note_on_c, 0, 69, 34
1, 132600, Note_off_c, 0, 81, 53
1, 132609, Note_on_c, 0, 64, 17
1, 132611, Note_on_c, 0, 85, 65
1, 132655, Note_off_c, 0, 85, 61
1, 132665, Note_on_c, 0, 81, 58
1, 132742, Note_off_c, 0, 81, 47
1, 132745, Note_on_c, 0, 85, 50
1, 132766, Note_off_c, 0, 85, 62
1, 132838, Note_off_c, 0, 69, 38
1, 132851, Note_on_c, 0, 85, 63
1, 132881, Note_off_c, 0, 85, 63
1, 132898, Note_on_c, 0, 88, 59
1, 132904, Note_off_c, 0, 64, 37
1, 132932, Note_off_c, 0, 57, 29
1, 132933, Note_on_c, 0, 85, 62
1, 132942, Note_off_c, 0, 88, 57
1, 132974, Note_off_c, 0, 85, 62
1, 132997, Note_on_c, 0, 76, 61
1, 133015, Note_off_c, 0, 76, 66
1, 133074, Note_on_c, 0, 74, 63
1, 133098, Note_on_c, 0, 73, 67
1, 133107, Note_off_c, 0, 74, 62
1, 133136, Control_c, 0, 64, 124
1, 133151, Control_c, 0, 64, 118
1, 133152, Note_on_c, 0, 71, 55
1, 133156, Note_off_c, 0, 73, 63
1, 133166, Control_c, 0, 64, 104
1, 133181, Control_c, 0, 64, 88
1, 133188, Note_off_c, 0, 71, 64
1, 133189, Note_on_c, 0, 69, 67
1, 133195, Control_c, 0, 64, 70
1, 133210, Control_c, 0, 64, 0
1, 133228, Note_on_c, 0, 73, 51
1, 133234, Note_off_c, 0, 69, 61
1, 133256, Control_c, 0, 64, 66
1, 133270, Control_c, 0, 64, 74
1, 133276, Note_off_c, 0, 73, 63
1, 133285, Control_c, 0, 64, 79
1, 133291, Note_on_c, 0, 69, 50
1, 133300, Control_c, 0, 64, 82
1, 133315, Control_c, 0, 64, 84
1, 133330, Control_c, 0, 64, 87
1, 133338, Note_on_c, 0, 73, 52
1, 133338, Note_off_c, 0, 69, 62
1, 133344, Control_c, 0, 64, 90
1, 133359, Control_c, 0, 64, 93
1, 133381, Note_off_c, 0, 73, 55
1, 133382, Control_c, 0, 64, 95
1, 133397, Control_c, 0, 64, 97
1, 133401, Note_on_c, 0, 69, 54
1, 133412, Control_c, 0, 64, 99
1, 133426, Control_c, 0, 64, 100
1, 133441, Control_c, 0, 64, 101
1, 133443, Note_off_c, 0, 69, 63
1, 133456, Control_c, 0, 64, 102
1, 133457, Note_on_c, 0, 73, 53
1, 133471, Control_c, 0, 64, 104
1, 133485, Note_on_c, 0, 61, 33
1, 133485, Control_c, 0, 64, 104
1, 133493, Note_off_c, 0, 73, 51
1, 133500, Control_c, 0, 64, 105
1, 133514, Note_on_c, 0, 69, 57
1, 133515, Control_c, 0, 64, 105
1, 133530, Control_c, 0, 64, 106
1, 133550, Note_off_c, 0, 69, 62
1, 133559, Control_c, 0, 64, 106
1, 133562, Note_on_c, 0, 73, 55
1, 133604, Note_off_c, 0, 73, 59
1, 133626, Note_on_c, 0, 64, 41
1, 133633, Note_on_c, 0, 69, 54
1, 133653, Note_off_c, 0, 61, 39
1, 133654, Note_off_c, 0, 64, 58
1, 133667, Note_off_c, 0, 69, 63
1, 133688, Note_on_c, 0, 73, 58
1, 133730, Note_off_c, 0, 73, 47
1, 133762, Note_on_c, 0, 69, 51
1, 133788, Note_on_c, 0, 73, 49
1, 133790, Note_off_c, 0, 69, 57
1, 133827, Note_off_c, 0, 73, 62
1, 133839, Note_on_c, 0, 57, 30
1, 133843, Note_on_c, 0, 45, 29
1, 133883, Note_off_c, 0, 57, 46
1, 133884, Note_off_c, 0, 45, 50
1, 133902, Note_on_c, 0, 69, 12
1, 133902, Poly_aftertouch_c, 0, 52, 127
1, 133904, Note_on_c, 0, 73, 43
1, 133926, Poly_aftertouch_c, 0, 52, 0
1, 133958, Note_off_c, 0, 73, 43
1, 134006, Note_off_c, 0, 69, 41
1, 134176, Control_c, 0, 64, 106
1, 134191, Control_c, 0, 64, 102
1, 134194, Note_on_c, 0, 81, 61
1, 134195, Note_on_c, 0, 71, 42
1, 134206, Control_c, 0, 64, 95
1, 134221, Control_c, 0, 64, 85
1, 134236, Control_c, 0, 64, 75
1, 134242, Note_off_c, 0, 81, 46
1, 134250, Control_c, 0, 64, 63
1, 134265, Control_c, 0, 64, 0
1, 134275, Note_on_c, 0, 80, 66
1, 134294, Note_off_c, 0, 80, 66
1, 134323, Note_off_c, 0, 71, 49
1, 134357, Note_on_c, 0, 74, 53
1, 134368, Note_on_c, 0, 85, 62
1, 134403, Note_off_c, 0, 85, 62
1, 134412, Note_off_c, 0, 74, 56
1, 134429, Note_on_c, 0, 93, 65
1, 134430, Note_on_c, 0, 73, 48
1, 134481, Note_off_c, 0, 73, 52
1, 134497, Note_off_c, 0, 93, 62
1, 134507, Note_on_c, 0, 92, 71
1, 134518, Note_on_c, 0, 69, 46
1, 134542, Note_off_c, 0, 92, 62
1, 134572, Note_on_c, 0, 90, 77
1, 134595, Note_off_c, 0, 69, 58
1, 134609, Note_off_c, 0, 90, 60
1, 134625, Note_on_c, 0, 74, 47
1, 134644, Note_on_c, 0, 97, 74
1, 134671, Note_off_c, 0, 74, 60
1, 134691, Note_on_c, 0, 73, 39
1, 134706, Note_on_c, 0, 104, 73
1, 134712, Note_off_c, 0, 97, 56
1, 134725, Note_off_c, 0, 73, 53
1, 134753, Note_on_c, 0, 68, 47
1, 134769, Note_on_c, 0, 102, 70
1, 134821, Note_off_c, 0, 104, 60
1, 134828, Note_on_c, 0, 101, 72
1, 134869, Note_off_c, 0, 68, 48
1, 134889, Note_off_c, 0, 102, 55
1, 134898, Note_on_c, 0, 74, 41
1, 134916, Note_off_c, 0, 101, 64
1, 134918, Note_on_c, 0, 97, 68
1, 134944, Note_off_c, 0, 97, 68
1, 134945, Note_off_c, 0, 74, 58
1, 134949, Note_on_c, 0, 95, 72
1, 134969, Note_on_c, 0, 73, 37
1, 134975, Note_off_c, 0, 95, 69
1, 135002, Note_off_c, 0, 73, 53
1, 135026, Note_on_c, 0, 69, 48
1, 135046, Note_on_c, 0, 93, 52
1, 135048, Note_on_c, 0, 95, 61
1, 135078, Note_off_c, 0, 69, 60
1, 135118, Note_off_c, 0, 95, 61
1, 135157, Note_on_c, 0, 90, 59
1, 135175, Note_on_c, 0, 74, 33
1, 135181, Note_off_c, 0, 93, 59
1, 135190, Control_c, 0, 64, 10
1, 135210, Note_on_c, 0, 85, 67
1, 135235, Note_off_c, 0, 90, 56
1, 135246, Note_off_c, 0, 85, 60
1, 135251, Note_off_c, 0, 74, 34
1, 135266, Note_on_c, 0, 83, 68
1, 135278, Note_on_c, 0, 69, 53
1, 135293, Note_off_c, 0, 83, 63
1, 135298, Note_off_c, 0, 69, 62
1, 135300, Poly_aftertouch_c, 0, 73, 0
1, 135339, Note_on_c, 0, 81, 68
1, 135368, Control_c, 0, 64, 0
1, 135380, Note_on_c, 0, 80, 68
1, 135405, Note_off_c, 0, 81, 60
1, 135412, Control_c, 0, 64, 10
1, 135427, Control_c, 0, 64, 13
1, 135437, Note_on_c, 0, 78, 71
1, 135464, Note_off_c, 0, 80, 60
1, 135495, Note_off_c, 0, 78, 62
1, 135506, Note_on_c, 0, 77, 69
1, 135515, Control_c, 0, 64, 0
1, 135528, Note_on_c, 0, 69, 54
1, 135535, Note_on_c, 0, 66, 43
1, 135550, Note_off_c, 0, 69, 65
1, 135559, Note_off_c, 0, 66, 59
1, 135560, Note_off_c, 0, 77, 56
1, 135568, Note_on_c, 0, 78, 66
1, 135652, Note_off_c, 0, 78, 62
1, 135652, Note_on_c, 0, 81, 71
1, 135725, Note_on_c, 0, 80, 71
1, 135730, Note_off_c, 0, 81, 58
1, 135778, Note_on_c, 0, 78, 70
1, 135810, Note_off_c, 0, 80, 59
1, 135849, Note_on_c, 0, 73, 59
1, 135851, Note_off_c, 0, 78, 64
1, 135896, Note_on_c, 0, 69, 71
1, 135901, Note_off_c, 0, 73, 58
1, 135926, Note_off_c, 0, 69, 68
1, 135934, Note_on_c, 0, 66, 63
1, 135980, Note_off_c, 0, 66, 58
1, 136015, Note_on_c, 0, 54, 69
1, 136055, Note_off_c, 0, 54, 62
1, 136264, Control_c, 0, 64, 10
1, 136279, Control_c, 0, 64, 16
1, 136285, Note_on_c, 0, 57, 67
1, 136294, Control_c, 0, 64, 18
1, 136298, Note_on_c, 0, 102, 64
1, 136322, Note_off_c, 0, 57, 62
1, 136324, Control_c, 0, 64, 20
1, 136376, Control_c, 0, 64, 21
1, 136391, Control_c, 0, 64, 23
1, 136391, Note_on_c, 0, 101, 57
1, 136405, Control_c, 0, 64, 25
1, 136420, Control_c, 0, 64, 26
1, 136424, Note_off_c, 0, 101, 63
1, 136424, Note_off_c, 0, 102, 63
1, 136430, Note_on_c, 0, 64, 55
1, 136435, Control_c, 0, 64, 27
1, 136436, Note_on_c, 0, 100, 73
1, 136446, Note_on_c, 0, 67, 37
1, 136451, Note_off_c, 0, 64, 61
1, 136462, Note_off_c, 0, 100, 67
1, 136476, Note_off_c, 0, 67, 47
1, 136510, Note_on_c, 0, 99, 76
1, 136546, Note_off_c, 0, 99, 61
1, 136558, Note_on_c, 0, 62, 61
1, 136558, Note_on_c, 0, 98, 73
1, 136580, Note_off_c, 0, 98, 70
1, 136585, Note_on_c, 0, 100, 60
1, 136588, Note_off_c, 0, 62, 63
1, 136623, Note_on_c, 0, 98, 65
1, 136652, Note_off_c, 0, 100, 63
1, 136677, Note_on_c, 0, 97, 59
1, 136698, Note_on_c, 0, 66, 60
1, 136698, Note_off_c, 0, 98, 64
1, 136707, Note_off_c, 0, 97, 66
1, 136712, Note_on_c, 0, 69, 48
1, 136712, Note_on_c, 0, 96, 74
1, 136725, Note_off_c, 0, 66, 68
1, 136734, Note_off_c, 0, 69, 55
1, 136741, Note_off_c, 0, 96, 64
1, 136762, Control_c, 0, 64, 26
1, 136793, Note_on_c, 0, 95, 72
1, 136817, Note_off_c, 0, 95, 66
1, 136824, Note_on_c, 0, 69, 70
1, 136839, Note_on_c, 0, 93, 69
1, 136859, Note_off_c, 0, 69, 69
1, 136865, Note_off_c, 0, 93, 65
1, 136893, Note_on_c, 0, 95, 25
1, 136909, Note_on_c, 0, 94, 72
1, 136909, Control_c, 0, 64, 27
1, 136924, Control_c, 0, 64, 28
1, 136925, Poly_aftertouch_c, 0, 96, 0
1, 136932, Note_off_c, 0, 95, 39
1, 136945, Note_off_c, 0, 94, 61
1, 136966, Note_on_c, 0, 93, 75
1, 136968, Control_c, 0, 64, 29
1, 136976, Note_on_c, 0, 76, 59
1, 136981, Note_on_c, 0, 79, 58
1, 136983, Control_c, 0, 64, 32
1, 136992, Note_off_c, 0, 93, 64
1, 136994, Note_off_c, 0, 76, 66
1, 136998, Control_c, 0, 64, 34
1, 137000, Note_off_c, 0, 79, 63
1, 137012, Control_c, 0, 64, 34
1, 137030, Note_on_c, 0, 92, 71
1, 137059, Note_off_c, 0, 92, 65
1, 137072, Control_c, 0, 64, 35
1, 137076, Note_on_c, 0, 91, 74
1, 137086, Control_c, 0, 64, 36
1, 137094, Note_on_c, 0, 74, 56
1, 137099, Note_off_c, 0, 91, 65
1, 137126, Note_off_c, 0, 74, 66
1, 137145, Note_on_c, 0, 90, 70
1, 137170, Note_off_c, 0, 90, 66
1, 137183, Control_c, 0, 64, 35
1, 137187, Note_on_c, 0, 91, 58
1, 137232, Note_on_c, 0, 90, 81
1, 137236, Note_on_c, 0, 78, 74
1, 137243, Control_c, 0, 64, 36
1, 137245, Note_on_c, 0, 81, 64
1, 137251, Note_off_c, 0, 91, 60
1, 137258, Control_c, 0, 64, 36
1, 137261, Note_off_c, 0, 78, 68
1, 137262, Note_off_c, 0, 81, 65
1, 137273, Control_c, 0, 64, 34
1, 137286, Note_off_c, 0, 90, 63
1, 137288, Control_c, 0, 64, 0
1, 137294, Note_on_c, 0, 89, 65
1, 137309, Note_off_c, 0, 89, 65
1, 137344, Note_on_c, 0, 88, 77
1, 137371, Note_on_c, 0, 69, 70
1, 137372, Note_on_c, 0, 79, 71
1, 137377, Control_c, 0, 64, 28
1, 137381, Note_on_c, 0, 76, 61
1, 137381, Note_on_c, 0, 87, 68
1, 137391, Control_c, 0, 64, 64
1, 137400, Note_off_c, 0, 79, 62
1, 137403, Note_off_c, 0, 76, 64
1, 137406, Control_c, 0, 64, 68
1, 137410, Note_off_c, 0, 88, 59
1, 137418, Note_off_c, 0, 69, 58
1, 137421, Control_c, 0, 64, 70
1, 137436, Note_off_c, 0, 87, 62
1, 137436, Control_c, 0, 64, 71
1, 137450, Control_c, 0, 64, 73
1, 137453, Note_on_c, 0, 86, 53
1, 137461, Note_on_c, 0, 84, 52
1, 137465, Control_c, 0, 64, 74
1, 137476, Note_off_c, 0, 86, 55
1, 137482, Note_off_c, 0, 84, 58
1, 137488, Note_on_c, 0, 88, 36
1, 137524, Note_on_c, 0, 86, 67
1, 137540, Note_off_c, 0, 88, 58
1, 137540, Control_c, 0, 64, 70
1, 137555, Control_c, 0, 64, 59
1, 137558, Note_off_c, 0, 86, 59
1, 137570, Control_c, 0, 64, 0
1, 137586, Note_on_c, 0, 81, 62
1, 137617, Note_on_c, 0, 78, 77
1, 137629, Control_c, 0, 64, 65
1, 137633, Note_on_c, 0, 83, 41
1, 137638, Note_off_c, 0, 78, 70
1, 137643, Control_c, 0, 64, 74
1, 137644, Note_off_c, 0, 81, 51
1, 137646, Note_on_c, 0, 74, 15
1, 137658, Control_c, 0, 64, 80
1, 137673, Control_c, 0, 64, 84
1, 137675, Note_off_c, 0, 83, 63
1, 137684, Note_off_c, 0, 74, 54
1, 137688, Control_c, 0, 64, 87
1, 137693, Note_on_c, 0, 86, 64
1, 137703, Control_c, 0, 64, 90
1, 137704, Note_on_c, 0, 81, 22
1, 137717, Control_c, 0, 64, 94
1, 137732, Note_off_c, 0, 86, 62
1, 137732, Control_c, 0, 64, 97
1, 137741, Note_off_c, 0, 81, 36
1, 137747, Control_c, 0, 64, 98
1, 137762, Control_c, 0, 64, 99
1, 137777, Control_c, 0, 64, 99
1, 137787, Note_on_c, 0, 90, 65
1, 137792, Note_on_c, 0, 92, 69
1, 137792, Control_c, 0, 64, 100
1, 137807, Control_c, 0, 64, 101
1, 137822, Note_off_c, 0, 90, 65
1, 137839, Note_off_c, 0, 92, 67
1, 137867, Note_on_c, 0, 91, 47
1, 137873, Control_c, 0, 64, 102
1, 137881, Note_on_c, 0, 92, 70
1, 137891, Note_off_c, 0, 91, 47
1, 137900, Note_on_c, 0, 93, 89
1, 137903, Control_c, 0, 64, 103
1, 137909, Note_on_c, 0, 97, 69
1, 137917, Control_c, 0, 64, 104
1, 137920, Note_off_c, 0, 93, 65
1, 137923, Note_off_c, 0, 92, 63
1, 137932, Control_c, 0, 64, 105
1, 137936, Note_off_c, 0, 97, 65
1, 137947, Control_c, 0, 64, 106
1, 137962, Control_c, 0, 64, 109
1, 137969, Note_on_c, 0, 98, 69
1, 137977, Control_c, 0, 64, 111
1, 137992, Control_c, 0, 64, 113
1, 137994, Note_off_c, 0, 98, 66
1, 138031, Note_on_c, 0, 102, 76
1, 138052, Control_c, 0, 64, 113
1, 138084, Note_off_c, 0, 102, 64
1, 138088, Note_on_c, 0, 104, 71
1, 138095, Note_on_c, 0, 103, 77
1, 138141, Control_c, 0, 64, 111
1, 138152, Note_on_c, 0, 105, 89
1, 138156, Control_c, 0, 64, 101
1, 138157, Note_on_c, 0, 102, 86
1, 138170, Control_c, 0, 64, 87
1, 138171, Note_off_c, 0, 103, 39
1, 138182, Note_off_c, 0, 104, 67
1, 138185, Control_c, 0, 64, 72
1, 138191, Note_off_c, 0, 102, 67
1, 138198, Note_off_c, 0, 105, 66
1, 138200, Control_c, 0, 64, 0
1, 138510, Note_on_c, 0, 98, 58
1, 138526, Control_c, 0, 64, 51
1, 138540, Control_c, 0, 64, 66
1, 138542, Note_off_c, 0, 98, 66
1, 138555, Control_c, 0, 64, 71
1, 138563, Note_on_c, 0, 102, 60
1, 138570, Control_c, 0, 64, 77
1, 138585, Control_c, 0, 64, 83
1, 138600, Control_c, 0, 64, 87
1, 138617, Note_on_c, 0, 98, 64
1, 138622, Control_c, 0, 64, 91
1, 138627, Note_off_c, 0, 102, 60
1, 138637, Control_c, 0, 64, 94
1, 138639, Note_off_c, 0, 98, 67
1, 138652, Control_c, 0, 64, 97
1, 138663, Note_on_c, 0, 90, 52
1, 138666, Control_c, 0, 64, 101
1, 138681, Control_c, 0, 64, 105
1, 138686, Note_off_c, 0, 90, 55
1, 138696, Control_c, 0, 64, 108
1, 138711, Control_c, 0, 64, 111
1, 138726, Control_c, 0, 64, 112
1, 138740, Control_c, 0, 64, 113
1, 138741, Note_on_c, 0, 89, 69
1, 138755, Control_c, 0, 64, 114
1, 138770, Control_c, 0, 64, 115
1, 138785, Control_c, 0, 64, 116
1, 138799, Control_c, 0, 64, 117
1, 138800, Note_on_c, 0, 86, 66
1, 138814, Control_c, 0, 64, 119
1, 138825, Note_off_c, 0, 89, 61
1, 138829, Control_c, 0, 64, 120
1, 138835, Note_on_c, 0, 85, 65
1, 138845, Control_c, 0, 64, 122
1, 138858, Note_off_c, 0, 86, 60
1, 138860, Control_c, 0, 64, 125
1, 138875, Control_c, 0, 64, 127
1, 138889, Note_off_c, 0, 85, 60
1, 138899, Note_on_c, 0, 83, 62
1, 138930, Note_off_c, 0, 83, 60
1, 138966, Note_on_c, 0, 86, 52
1, 138989, Note_off_c, 0, 86, 57
1, 139023, Note_on_c, 0, 83, 58
1, 139045, Note_off_c, 0, 83, 59
1, 139058, Note_on_c, 0, 86, 63
1, 139101, Note_off_c, 0, 86, 57
1, 139132, Note_on_c, 0, 83, 49
1, 139160, Note_off_c, 0, 83, 52
1, 139177, Note_on_c, 0, 86, 59
1, 139188, Note_on_c, 0, 74, 44
1, 139216, Note_off_c, 0, 86, 59
1, 139253, Note_on_c, 0, 83, 53
1, 139282, Note_off_c, 0, 83, 54
1, 139300, Note_on_c, 0, 86, 52
1, 139333, Note_off_c, 0, 86, 53
1, 139358, Note_on_c, 0, 78, 50
1, 139387, Note_off_c, 0, 78, 62
1, 139389, Note_on_c, 0, 83, 46
1, 139405, Note_off_c, 0, 74, 55
1, 139414, Note_off_c, 0, 83, 54
1, 139430, Note_on_c, 0, 86, 58
1, 139460, Note_off_c, 0, 86, 58
1, 139506, Note_on_c, 0, 83, 53
1, 139536, Note_off_c, 0, 83, 53
1, 139546, Note_on_c, 0, 86, 63
1, 139597, Note_off_c, 0, 86, 54
1, 139624, Note_on_c, 0, 62, 37
1, 139632, Note_on_c, 0, 71, 22
1, 139633, Note_on_c, 0, 83, 50
1, 139664, Note_off_c, 0, 83, 54
1, 139676, Note_on_c, 0, 66, 19
1, 139682, Note_on_c, 0, 86, 47
1, 139730, Note_off_c, 0, 86, 59
1, 139755, Note_on_c, 0, 83, 61
1, 139791, Note_off_c, 0, 83, 60
1, 139903, Note_on_c, 0, 86, 62
1, 139932, Note_off_c, 0, 86, 67
1, 139947, Note_off_c, 0, 71, 36
1, 139951, Note_on_c, 0, 90, 64
1, 139979, Note_off_c, 0, 62, 34
1, 139989, Note_off_c, 0, 66, 42
1, 140008, Note_on_c, 0, 86, 66
1, 140008, Note_off_c, 0, 90, 62
1, 140039, Note_off_c, 0, 86, 64
1, 140061, Note_on_c, 0, 78, 59
1, 140081, Note_off_c, 0, 78, 60
1, 140158, Note_on_c, 0, 77, 71
1, 140209, Note_on_c, 0, 74, 62
1, 140242, Note_off_c, 0, 77, 55
1, 140265, Note_on_c, 0, 73, 61
1, 140273, Note_off_c, 0, 74, 62
1, 140310, Note_off_c, 0, 73, 59
1, 140316, Note_on_c, 0, 71, 59
1, 140354, Note_off_c, 0, 71, 59
1, 140381, Note_on_c, 0, 74, 57
1, 140404, Note_off_c, 0, 74, 62
1, 140445, Note_on_c, 0, 71, 54
1, 140479, Note_off_c, 0, 71, 60
1, 140485, Note_on_c, 0, 74, 59
1, 140521, Control_c, 0, 64, 118
1, 140534, Note_off_c, 0, 74, 57
1, 140536, Control_c, 0, 64, 107
1, 140551, Control_c, 0, 64, 95
1, 140566, Control_c, 0, 64, 82
1, 140571, Note_on_c, 0, 71, 56
1, 140581, Control_c, 0, 64, 69
1, 140596, Control_c, 0, 64, 0
1, 140606, Note_off_c, 0, 71, 53
1, 140625, Control_c, 0, 64, 36
1, 140633, Note_on_c, 0, 62, 32
1, 140634, Note_on_c, 0, 74, 43
1, 140640, Control_c, 0, 64, 64
1, 140654, Control_c, 0, 64, 69
1, 140668, Note_off_c, 0, 74, 57
1, 140669, Control_c, 0, 64, 73
1, 140684, Control_c, 0, 64, 76
1, 140699, Control_c, 0, 64, 79
1, 140710, Note_on_c, 0, 71, 53
1, 140714, Control_c, 0, 64, 82
1, 140728, Control_c, 0, 64, 85
1, 140743, Control_c, 0, 64, 88
1, 140750, Note_off_c, 0, 71, 60
1, 140758, Control_c, 0, 64, 90
1, 140773, Control_c, 0, 64, 93
1, 140776, Note_on_c, 0, 74, 49
1, 140788, Control_c, 0, 64, 94
1, 140803, Control_c, 0, 64, 96
1, 140811, Note_off_c, 0, 74, 61
1, 140818, Control_c, 0, 64, 97
1, 140831, Note_on_c, 0, 66, 35
1, 140832, Control_c, 0, 64, 97
1, 140847, Control_c, 0, 64, 98
1, 140862, Note_on_c, 0, 71, 53
1, 140869, Control_c, 0, 64, 98
1, 140870, Note_off_c, 0, 66, 56
1, 140884, Control_c, 0, 64, 99
1, 140890, Note_off_c, 0, 62, 48
1, 140898, Note_off_c, 0, 71, 55
1, 140899, Control_c, 0, 64, 99
1, 140920, Note_on_c, 0, 74, 48
1, 140964, Note_off_c, 0, 74, 60
1, 141004, Note_on_c, 0, 71, 49
1, 141047, Note_off_c, 0, 71, 58
1, 141073, Note_on_c, 0, 74, 35
1, 141102, Note_off_c, 0, 74, 56
1, 141148, Note_on_c, 0, 71, 48
1, 141180, Note_off_c, 0, 71, 54
1, 141187, Note_on_c, 0, 59, 14
1, 141193, Note_on_c, 0, 50, 24
1, 141201, Note_on_c, 0, 54, 26
1, 141210, Note_on_c, 0, 74, 42
1, 141210, Control_c, 0, 64, 97
1, 141225, Control_c, 0, 64, 90
1, 141241, Control_c, 0, 64, 79
1, 141253, Note_off_c, 0, 74, 53
1, 141256, Control_c, 0, 64, 63
1, 141271, Control_c, 0, 64, 0
1, 141296, Note_on_c, 0, 71, 37
1, 141314, Control_c, 0, 64, 42
1, 141329, Control_c, 0, 64, 65
1, 141344, Control_c, 0, 64, 71
1, 141358, Control_c, 0, 64, 76
1, 141370, Note_off_c, 0, 71, 48
1, 141373, Control_c, 0, 64, 79
1, 141388, Control_c, 0, 64, 82
1, 141403, Control_c, 0, 64, 85
1, 141418, Control_c, 0, 64, 87
1, 141432, Control_c, 0, 64, 90
1, 141447, Control_c, 0, 64, 93
1, 141462, Control_c, 0, 64, 94
1, 141477, Control_c, 0, 64, 96
1, 141491, Control_c, 0, 64, 97
1, 141506, Control_c, 0, 64, 98
1, 141521, Control_c, 0, 64, 98
1, 141551, Control_c, 0, 64, 99
1, 141647, Control_c, 0, 64, 99
1, 141708, Note_on_c, 0, 98, 55
1, 141731, Note_off_c, 0, 98, 63
1, 141732, Note_off_c, 0, 59, 38
1, 141750, Note_off_c, 0, 50, 37
1, 141753, Note_on_c, 0, 101, 56
1, 141759, Note_off_c, 0, 54, 40
1, 141799, Note_off_c, 0, 101, 61
1, 141812, Note_on_c, 0, 98, 62
1, 141842, Note_off_c, 0, 98, 66
1, 141864, Note_on_c, 0, 89, 69
1, 141890, Note_off_c, 0, 89, 67
1, 141929, Control_c, 0, 64, 99
1, 141950, Note_on_c, 0, 88, 66
1, 141971, Note_on_c, 0, 86, 60
1, 141976, Note_off_c, 0, 88, 59
1, 141988, Control_c, 0, 64, 98
1, 142003, Control_c, 0, 64, 94
1, 142016, Note_off_c, 0, 86, 59
1, 142017, Control_c, 0, 64, 85
1, 142021, Note_on_c, 0, 85, 64
1, 142034, Control_c, 0, 64, 73
1, 142049, Control_c, 0, 64, 56
1, 142053, Note_off_c, 0, 85, 64
1, 142063, Control_c, 0, 64, 0
1, 142070, Note_on_c, 0, 82, 72
1, 142107, Control_c, 0, 64, 58
1, 142122, Control_c, 0, 64, 69
1, 142124, Note_off_c, 0, 82, 62
1, 142137, Control_c, 0, 64, 73
1, 142141, Note_on_c, 0, 86, 63
1, 142152, Control_c, 0, 64, 77
1, 142167, Control_c, 0, 64, 81
1, 142181, Control_c, 0, 64, 84
1, 142196, Control_c, 0, 64, 88
1, 142201, Note_off_c, 0, 86, 59
1, 142211, Control_c, 0, 64, 91
1, 142216, Note_on_c, 0, 82, 62
1, 142226, Control_c, 0, 64, 93
1, 142240, Control_c, 0, 64, 96
1, 142252, Note_off_c, 0, 82, 61
1, 142255, Control_c, 0, 64, 98
1, 142259, Note_on_c, 0, 86, 45
1, 142270, Control_c, 0, 64, 100
1, 142285, Control_c, 0, 64, 102
1, 142300, Control_c, 0, 64, 103
1, 142314, Control_c, 0, 64, 105
1, 142324, Note_off_c, 0, 86, 63
1, 142329, Control_c, 0, 64, 105
1, 142343, Note_on_c, 0, 82, 60
1, 142344, Control_c, 0, 64, 106
1, 142367, Control_c, 0, 64, 107
1, 142382, Control_c, 0, 64, 107
1, 142390, Note_on_c, 0, 74, 47
1, 142404, Note_on_c, 0, 86, 56
1, 142408, Note_off_c, 0, 82, 60
1, 142440, Control_c, 0, 64, 108
1, 142487, Note_off_c, 0, 86, 59
1, 142511, Note_on_c, 0, 82, 50
1, 142559, Note_off_c, 0, 82, 60
1, 142567, Note_on_c, 0, 77, 62
1, 142567, Note_on_c, 0, 86, 59
1, 142593, Note_off_c, 0, 77, 66
1, 142601, Note_off_c, 0, 74, 64
1, 142636, Note_off_c, 0, 86, 58
1, 142662, Note_on_c, 0, 82, 60
1, 142718, Note_off_c, 0, 82, 57
1, 142728, Note_on_c, 0, 86, 56
1, 142784, Note_off_c, 0, 86, 56
1, 142811, Note_on_c, 0, 62, 32
1, 142811, Control_c, 0, 64, 105
1, 142814, Note_on_c, 0, 82, 54
1, 142826, Control_c, 0, 64, 96
1, 142842, Control_c, 0, 64, 83
1, 142856, Control_c, 0, 64, 70
1, 142857, Note_on_c, 0, 65, 46
1, 142859, Note_off_c, 0, 82, 60
1, 142865, Note_on_c, 0, 86, 55
1, 142871, Control_c, 0, 64, 29
1, 142880, Note_on_c, 0, 70, 40
1, 142886, Control_c, 0, 64, 0
1, 142901, Control_c, 0, 64, 57
1, 142907, Note_off_c, 0, 86, 60
1, 142916, Control_c, 0, 64, 69
1, 142930, Control_c, 0, 64, 75
1, 142940, Note_on_c, 0, 82, 65
1, 142945, Control_c, 0, 64, 81
1, 142960, Control_c, 0, 64, 84
1, 142975, Control_c, 0, 64, 87
1, 142985, Note_off_c, 0, 82, 59
1, 142990, Control_c, 0, 64, 90
1, 143004, Note_on_c, 0, 86, 52
1, 143004, Control_c, 0, 64, 93
1, 143019, Control_c, 0, 64, 96
1, 143034, Control_c, 0, 64, 99
1, 143049, Control_c, 0, 64, 101
1, 143050, Note_off_c, 0, 86, 59
1, 143063, Control_c, 0, 64, 103
1, 143068, Note_on_c, 0, 82, 55
1, 143078, Control_c, 0, 64, 103
1, 143093, Control_c, 0, 64, 104
1, 143114, Note_off_c, 0, 82, 63
1, 143116, Control_c, 0, 64, 105
1, 143131, Control_c, 0, 64, 105
1, 143145, Control_c, 0, 64, 106
1, 143174, Note_off_c, 0, 70, 52
1, 143175, Control_c, 0, 64, 106
1, 143217, Note_on_c, 0, 86, 62
1, 143236, Note_off_c, 0, 86, 64
1, 143243, Note_on_c, 0, 89, 62
1, 143292, Note_off_c, 0, 65, 40
1, 143294, Note_off_c, 0, 89, 63
1, 143301, Note_off_c, 0, 62, 40
1, 143307, Note_on_c, 0, 86, 68
1, 143331, Note_off_c, 0, 86, 67
1, 143355, Note_on_c, 0, 77, 64
1, 143385, Note_off_c, 0, 77, 63
1, 143441, Note_on_c, 0, 76, 66
1, 143471, Note_on_c, 0, 74, 57
1, 143473, Note_off_c, 0, 76, 63
1, 143522, Note_off_c, 0, 74, 60
1, 143528, Note_on_c, 0, 73, 61
1, 143564, Note_off_c, 0, 73, 62
1, 143587, Note_on_c, 0, 70, 65
1, 143604, Control_c, 0, 64, 106
1, 143634, Control_c, 0, 64, 105
1, 143646, Note_off_c, 0, 70, 58
1, 143648, Note_on_c, 0, 74, 58
1, 143649, Control_c, 0, 64, 103
1, 143664, Control_c, 0, 64, 98
1, 143679, Control_c, 0, 64, 92
1, 143694, Control_c, 0, 64, 83
1, 143709, Control_c, 0, 64, 73
1, 143717, Note_off_c, 0, 74, 62
1, 143724, Control_c, 0, 64, 58
1, 143739, Control_c, 0, 64, 0
1, 143742, Note_on_c, 0, 70, 56
1, 143786, Note_off_c, 0, 70, 60
1, 143798, Note_on_c, 0, 74, 41
1, 143813, Control_c, 0, 64, 57
1, 143827, Control_c, 0, 64, 65
1, 143842, Control_c, 0, 64, 69
1, 143858, Note_off_c, 0, 74, 60
1, 143864, Control_c, 0, 64, 72
1, 143879, Control_c, 0, 64, 75
1, 143894, Note_on_c, 0, 70, 54
1, 143894, Control_c, 0, 64, 78
1, 143909, Control_c, 0, 64, 81
1, 143924, Control_c, 0, 64, 83
1, 143931, Note_off_c, 0, 70, 50
1, 143939, Control_c, 0, 64, 85
1, 143953, Control_c, 0, 64, 87
1, 143956, Note_on_c, 0, 74, 43
1, 143963, Note_on_c, 0, 62, 39
1, 143968, Control_c, 0, 64, 88
1, 143983, Control_c, 0, 64, 89
1, 143998, Control_c, 0, 64, 89
1, 144012, Control_c, 0, 64, 90
1, 144027, Control_c, 0, 64, 91
1, 144031, Note_off_c, 0, 74, 47
1, 144040, Note_on_c, 0, 70, 51
1, 144042, Control_c, 0, 64, 91
1, 144057, Control_c, 0, 64, 92
1, 144072, Control_c, 0, 64, 93
1, 144086, Control_c, 0, 64, 93
1, 144103, Note_off_c, 0, 70, 56
1, 144112, Note_on_c, 0, 74, 34
1, 144146, Control_c, 0, 64, 94
1, 144224, Note_off_c, 0, 74, 48
1, 144228, Note_on_c, 0, 65, 41
1, 144239, Note_on_c, 0, 70, 49
1, 144291, Note_off_c, 0, 65, 63
1, 144319, Note_off_c, 0, 62, 40
1, 144323, Note_off_c, 0, 70, 54
1, 144324, Control_c, 0, 64, 94
1, 144332, Note_on_c, 0, 74, 36
1, 144457, Note_off_c, 0, 74, 35
1, 144467, Note_on_c, 0, 70, 48
1, 144531, Note_off_c, 0, 70, 52
1, 144553, Note_on_c, 0, 74, 34
1, 144803, Note_on_c, 0, 70, 43
1, 144831, Note_on_c, 0, 58, 31
1, 144845, Note_on_c, 0, 50, 31
1, 144863, Note_on_c, 0, 53, 22
1, 144866, Control_c, 0, 64, 93
1, 144881, Control_c, 0, 64, 90
1, 144895, Control_c, 0, 64, 83
1, 144900, Note_off_c, 0, 74, 29
1, 144910, Control_c, 0, 64, 76
1, 144925, Control_c, 0, 64, 69
1, 144940, Control_c, 0, 64, 52
1, 144955, Control_c, 0, 64, 0
1, 145236, Control_c, 0, 64, 38
1, 145250, Control_c, 0, 64, 64
1, 145265, Control_c, 0, 64, 67
1, 145280, Control_c, 0, 64, 70
1, 145295, Control_c, 0, 64, 72
1, 145310, Control_c, 0, 64, 75
1, 145325, Control_c, 0, 64, 78
1, 145340, Control_c, 0, 64, 80
1, 145362, Control_c, 0, 64, 82
1, 145377, Control_c, 0, 64, 84
1, 145392, Control_c, 0, 64, 86
1, 145406, Control_c, 0, 64, 87
1, 145421, Control_c, 0, 64, 88
1, 145436, Control_c, 0, 64, 89
1, 145450, Control_c, 0, 64, 90
1, 145465, Control_c, 0, 64, 91
1, 145480, Control_c, 0, 64, 92
1, 145486, Note_off_c, 0, 70, 33
1, 145495, Control_c, 0, 64, 93
1, 145510, Control_c, 0, 64, 93
1, 145554, Control_c, 0, 64, 94
1, 145599, Control_c, 0, 64, 94
1, 145658, Note_off_c, 0, 58, 34
1, 145766, Note_off_c, 0, 50, 31
1, 145772, Note_off_c, 0, 53, 23
1, 145924, Control_c, 0, 64, 95
1, 146453, Note_on_c, 0, 86, 43
1, 146466, Control_c, 0, 64, 94
1, 146496, Control_c, 0, 64, 94
1, 146511, Control_c, 0, 64, 91
1, 146526, Control_c, 0, 64, 85
1, 146541, Control_c, 0, 64, 76
1, 146555, Control_c, 0, 64, 64
1, 146570, Control_c, 0, 64, 0
1, 146593, Note_off_c, 0, 86, 55
1, 146618, Note_on_c, 0, 89, 46
1, 146629, Control_c, 0, 64, 63
1, 146644, Control_c, 0, 64, 70
1, 146659, Control_c, 0, 64, 76
1, 146673, Control_c, 0, 64, 82
1, 146675, Note_off_c, 0, 89, 49
1, 146688, Control_c, 0, 64, 86
1, 146703, Control_c, 0, 64, 91
1, 146718, Control_c, 0, 64, 94
1, 146724, Note_on_c, 0, 86, 49
1, 146733, Control_c, 0, 64, 97
1, 146747, Control_c, 0, 64, 99
1, 146762, Control_c, 0, 64, 102
1, 146777, Control_c, 0, 64, 104
1, 146779, Note_off_c, 0, 86, 57
1, 146792, Control_c, 0, 64, 106
1, 146806, Control_c, 0, 64, 108
1, 146815, Note_on_c, 0, 77, 50
1, 146822, Control_c, 0, 64, 110
1, 146837, Control_c, 0, 64, 111
1, 146860, Note_off_c, 0, 77, 62
1, 146860, Control_c, 0, 64, 112
1, 146875, Control_c, 0, 64, 112
1, 146890, Control_c, 0, 64, 113
1, 146919, Control_c, 0, 64, 113
1, 146952, Note_on_c, 0, 76, 46
1, 146980, Note_off_c, 0, 76, 59
1, 146986, Note_on_c, 0, 74, 53
1, 146993, Control_c, 0, 64, 114
1, 147055, Note_off_c, 0, 74, 61
1, 147069, Note_on_c, 0, 73, 56
1, 147100, Note_off_c, 0, 73, 60
1, 147117, Note_on_c, 0, 70, 60
1, 147156, Note_off_c, 0, 70, 60
1, 147185, Note_on_c, 0, 74, 48
1, 147222, Note_off_c, 0, 74, 64
1, 147256, Note_on_c, 0, 70, 60
1, 147289, Note_off_c, 0, 70, 50
1, 147311, Note_on_c, 0, 74, 46
1, 147341, Note_off_c, 0, 74, 66
1, 147444, Note_on_c, 0, 74, 53
1, 147465, Note_off_c, 0, 74, 66
1, 147477, Note_on_c, 0, 77, 63
1, 147521, Note_off_c, 0, 77, 57
1, 147524, Note_on_c, 0, 74, 77
1, 147572, Note_off_c, 0, 74, 62
1, 147592, Note_on_c, 0, 65, 64
1, 147629, Note_off_c, 0, 65, 67
1, 147639, Control_c, 0, 64, 113
1, 147653, Control_c, 0, 64, 107
1, 147668, Control_c, 0, 64, 91
1, 147683, Note_on_c, 0, 64, 50
1, 147683, Control_c, 0, 64, 75
1, 147698, Control_c, 0, 64, 51
1, 147705, Note_on_c, 0, 62, 41
1, 147706, Note_off_c, 0, 64, 54
1, 147713, Control_c, 0, 64, 0
1, 147742, Control_c, 0, 64, 56
1, 147747, Note_off_c, 0, 62, 57
1, 147757, Control_c, 0, 64, 71
1, 147766, Note_on_c, 0, 61, 57
1, 147772, Note_on_c, 0, 58, 68
1, 147772, Control_c, 0, 64, 81
1, 147778, Note_on_c, 0, 53, 65
1, 147787, Note_off_c, 0, 61, 63
1, 147787, Control_c, 0, 64, 87
1, 147801, Note_off_c, 0, 58, 67
1, 147802, Control_c, 0, 64, 90
1, 147807, Note_off_c, 0, 53, 68
1, 147817, Control_c, 0, 64, 92
1, 147832, Control_c, 0, 64, 95
1, 147841, Note_on_c, 0, 62, 75
1, 147847, Control_c, 0, 64, 99
1, 147861, Control_c, 0, 64, 103
1, 147873, Note_off_c, 0, 62, 58
1, 147876, Control_c, 0, 64, 105
1, 147891, Control_c, 0, 64, 107
1, 147906, Control_c, 0, 64, 108
1, 147919, Note_on_c, 0, 58, 62
1, 147921, Control_c, 0, 64, 109
1, 147935, Control_c, 0, 64, 110
1, 147950, Control_c, 0, 64, 110
1, 147957, Note_off_c, 0, 58, 62
1, 147965, Control_c, 0, 64, 111
1, 147967, Note_on_c, 0, 62, 51
1, 147987, Note_off_c, 0, 62, 62
1, 147995, Control_c, 0, 64, 111
1, 148030, Note_on_c, 0, 58, 65
1, 148044, Note_off_c, 0, 58, 70
1, 148091, Note_on_c, 0, 62, 53
1, 148124, Note_on_c, 0, 65, 74
1, 148125, Note_off_c, 0, 62, 62
1, 148172, Note_on_c, 0, 62, 70
1, 148179, Note_off_c, 0, 65, 63
1, 148205, Note_off_c, 0, 62, 61
1, 148228, Note_on_c, 0, 53, 73
1, 148255, Note_off_c, 0, 53, 67
1, 148304, Control_c, 0, 64, 111
1, 148306, Note_on_c, 0, 52, 70
1, 148319, Control_c, 0, 64, 110
1, 148319, Note_on_c, 0, 50, 69
1, 148333, Control_c, 0, 64, 98
1, 148339, Note_off_c, 0, 52, 62
1, 148356, Control_c, 0, 64, 82
1, 148371, Control_c, 0, 64, 64
1, 148383, Note_off_c, 0, 50, 64
1, 148385, Control_c, 0, 64, 0
1, 148392, Note_on_c, 0, 49, 67
1, 148409, Note_on_c, 0, 46, 82
1, 148416, Note_on_c, 0, 41, 73
1, 148425, Note_off_c, 0, 49, 64
1, 148431, Control_c, 0, 64, 67
1, 148434, Note_off_c, 0, 46, 65
1, 148445, Note_off_c, 0, 41, 67
1, 148446, Control_c, 0, 64, 80
1, 148461, Control_c, 0, 64, 87
1, 148475, Control_c, 0, 64, 90
1, 148482, Note_on_c, 0, 50, 66
1, 148490, Control_c, 0, 64, 92
1, 148505, Control_c, 0, 64, 95
1, 148520, Control_c, 0, 64, 98
1, 148521, Note_off_c, 0, 50, 61
1, 148535, Control_c, 0, 64, 100
1, 148543, Note_on_c, 0, 46, 61
1, 148549, Control_c, 0, 64, 102
1, 148564, Control_c, 0, 64, 103
1, 148579, Control_c, 0, 64, 104
1, 148585, Note_on_c, 0, 50, 61
1, 148590, Note_off_c, 0, 46, 62
1, 148594, Control_c, 0, 64, 105
1, 148608, Control_c, 0, 64, 105
1, 148623, Control_c, 0, 64, 106
1, 148625, Note_off_c, 0, 50, 59
1, 148648, Note_on_c, 0, 46, 78
1, 148678, Note_off_c, 0, 46, 63
1, 148723, Note_on_c, 0, 50, 78
1, 148761, Note_on_c, 0, 54, 47
1, 148762, Note_off_c, 0, 54, 127
1, 148763, Note_off_c, 0, 50, 60
1, 148780, Note_on_c, 0, 53, 66
1, 148801, Note_on_c, 0, 50, 64
1, 148815, Note_off_c, 0, 53, 67
1, 148854, Note_off_c, 0, 50, 63
1, 148870, Note_on_c, 0, 41, 76
1, 148907, Note_off_c, 0, 41, 67
1, 148949, Note_on_c, 0, 40, 80
1, 148964, Note_on_c, 0, 38, 75
1, 148993, Control_c, 0, 64, 105
1, 148995, Note_off_c, 0, 40, 63
1, 149008, Control_c, 0, 64, 97
1, 149023, Control_c, 0, 64, 82
1, 149033, Note_off_c, 0, 38, 61
1, 149038, Control_c, 0, 64, 64
1, 149041, Note_on_c, 0, 37, 62
1, 149053, Control_c, 0, 64, 0
1, 149059, Note_on_c, 0, 34, 85
1, 149061, Note_on_c, 0, 29, 78
1, 149070, Note_off_c, 0, 37, 66
1, 149097, Note_off_c, 0, 34, 69
1, 149104, Control_c, 0, 64, 62
1, 149108, Note_off_c, 0, 29, 64
1, 149119, Control_c, 0, 64, 71
1, 149134, Control_c, 0, 64, 78
1, 149149, Control_c, 0, 64, 83
1, 149150, Note_on_c, 0, 38, 74
1, 149164, Control_c, 0, 64, 85
1, 149179, Control_c, 0, 64, 88
1, 149193, Control_c, 0, 64, 90
1, 149200, Note_off_c, 0, 38, 59
1, 149208, Control_c, 0, 64, 92
1, 149221, Note_on_c, 0, 34, 73
1, 149224, Control_c, 0, 64, 94
1, 149239, Control_c, 0, 64, 95
1, 149253, Control_c, 0, 64, 96
1, 149268, Control_c, 0, 64, 97
1, 149274, Note_off_c, 0, 34, 60
1, 149283, Control_c, 0, 64, 98
1, 149284, Note_on_c, 0, 38, 75
1, 149298, Control_c, 0, 64, 98
1, 149313, Control_c, 0, 64, 99
1, 149342, Note_on_c, 0, 34, 72
1, 149343, Control_c, 0, 64, 99
1, 149355, Note_off_c, 0, 38, 61
1, 149372, Control_c, 0, 64, 100
1, 149387, Control_c, 0, 64, 100
1, 149408, Note_on_c, 0, 38, 73
1, 149410, Note_off_c, 0, 34, 64
1, 149477, Note_on_c, 0, 41, 78
1, 149510, Note_off_c, 0, 38, 61
1, 149535, Control_c, 0, 64, 101
1, 149558, Note_on_c, 0, 38, 72
1, 149587, Note_off_c, 0, 41, 65
1, 149641, Note_off_c, 0, 38, 62
1, 149646, Note_on_c, 0, 29, 88
1, 149727, Control_c, 0, 64, 100
1, 149756, Note_on_c, 0, 28, 83
1, 149757, Control_c, 0, 64, 100
1, 149772, Control_c, 0, 64, 98
1, 149780, Note_off_c, 0, 29, 61
1, 149787, Control_c, 0, 64, 93
1, 149802, Control_c, 0, 64, 87
1, 149816, Control_c, 0, 64, 79
1, 149831, Control_c, 0, 64, 71
1, 149853, Control_c, 0, 64, 59
1, 149868, Note_on_c, 0, 26, 79
1, 149868, Control_c, 0, 64, 0
1, 149892, Note_off_c, 0, 28, 62
1, 149985, Note_on_c, 0, 25, 80
1, 150018, Note_off_c, 0, 26, 64
1, 150046, Control_c, 0, 64, 30
1, 150061, Control_c, 0, 64, 34
1, 150076, Control_c, 0, 64, 35
1, 150106, Control_c, 0, 64, 34
1, 150121, Control_c, 0, 64, 32
1, 150136, Control_c, 0, 64, 31
1, 150149, Note_on_c, 0, 34, 74
1, 150149, Note_on_c, 0, 45, 74
1, 150152, Note_on_c, 0, 22, 79
1, 150156, Note_on_c, 0, 46, 82
1, 150166, Note_off_c, 0, 25, 63
1, 150181, Control_c, 0, 64, 28
1, 150195, Control_c, 0, 64, 25
1, 150210, Control_c, 0, 64, 20
1, 150240, Control_c, 0, 64, 18
1, 150257, Note_off_c, 0, 22, 59
1, 150270, Control_c, 0, 64, 20
1, 150285, Control_c, 0, 64, 21
1, 150321, Note_off_c, 0, 45, 60
1, 150344, Control_c, 0, 64, 23
1, 150403, Control_c, 0, 64, 25
1, 150418, Control_c, 0, 64, 26
1, 150447, Control_c, 0, 64, 24
1, 150456, Note_on_c, 0, 21, 55
1, 150462, Control_c, 0, 64, 18
1, 150464, Note_off_c, 0, 46, 55
1, 150471, Note_on_c, 0, 22, 54
1, 150477, Control_c, 0, 64, 0
1, 150512, Note_off_c, 0, 21, 57
1, 150524, Note_off_c, 0, 22, 61
1, 150763, Note_on_c, 0, 21, 55
1, 150783, Note_on_c, 0, 22, 53
1, 150810, Note_off_c, 0, 21, 55
1, 150828, Note_off_c, 0, 22, 58
1, 151072, Note_on_c, 0, 21, 43
1, 151078, Note_on_c, 0, 22, 53
1, 151117, Note_off_c, 0, 21, 60
1, 151129, Note_off_c, 0, 22, 61
1, 151384, Note_on_c, 0, 22, 53
1, 151389, Note_on_c, 0, 21, 36
1, 151431, Note_off_c, 0, 21, 58
1, 151437, Note_off_c, 0, 22, 61
1, 151681, Note_on_c, 0, 21, 38
1, 151688, Note_on_c, 0, 22, 50
1, 151723, Note_off_c, 0, 21, 57
1, 151732, Note_off_c, 0, 22, 58
1, 151969, Note_on_c, 0, 21, 44
1, 151978, Note_on_c, 0, 22, 48
1, 152019, Note_off_c, 0, 21, 57
1, 152026, Note_off_c, 0, 22, 58
1, 152274, Note_on_c, 0, 21, 49
1, 152299, Note_on_c, 0, 45, 61
1, 152315, Note_on_c, 0, 22, 44
1, 152328, Note_off_c, 0, 21, 55
1, 152337, Note_off_c, 0, 45, 64
1, 152357, Note_off_c, 0, 22, 60
1, 152626, Note_on_c, 0, 44, 63
1, 152636, Note_on_c, 0, 21, 28
1, 152651, Note_on_c, 0, 22, 46
1, 152701, Note_off_c, 0, 21, 49
1, 152717, Note_off_c, 0, 22, 54
1, 152920, Note_on_c, 0, 41, 71
1, 152930, Note_on_c, 0, 21, 41
1, 152932, Note_on_c, 0, 22, 55
1, 152951, Note_off_c, 0, 41, 67
1, 152953, Note_off_c, 0, 44, 64
1, 152975, Note_off_c, 0, 21, 57
1, 152984, Note_off_c, 0, 22, 59
1, 153196, Note_on_c, 0, 40, 77
1, 153203, Note_on_c, 0, 22, 53
1, 153218, Note_on_c, 0, 21, 34
1, 153231, Note_off_c, 0, 40, 66
1, 153254, Note_off_c, 0, 22, 58
1, 153256, Note_off_c, 0, 21, 49
1, 153485, Note_on_c, 0, 22, 52
1, 153493, Note_on_c, 0, 21, 30
1, 153494, Note_on_c, 0, 38, 63
1, 153525, Note_off_c, 0, 38, 64
1, 153537, Note_off_c, 0, 21, 54
1, 153546, Note_off_c, 0, 22, 57
1, 153809, Note_on_c, 0, 37, 57
1, 153813, Note_on_c, 0, 22, 47
1, 153817, Note_on_c, 0, 21, 34
1, 153869, Note_off_c, 0, 21, 53
1, 153877, Note_off_c, 0, 22, 54
1, 154083, Note_on_c, 0, 22, 50
1, 154096, Note_on_c, 0, 21, 36
1, 154142, Note_off_c, 0, 21, 50
1, 154169, Note_off_c, 0, 22, 49
1, 154222, Note_on_c, 0, 38, 56
1, 154223, Note_off_c, 0, 37, 63
1, 154366, Note_on_c, 0, 40, 68
1, 154375, Note_on_c, 0, 22, 53
1, 154390, Note_on_c, 0, 21, 38
1, 154397, Note_off_c, 0, 38, 55
1, 154429, Note_off_c, 0, 40, 63
1, 154434, Note_off_c, 0, 21, 54
1, 154452, Note_off_c, 0, 22, 58
1, 154660, Note_on_c, 0, 22, 50
1, 154676, Note_on_c, 0, 21, 34
1, 154718, Note_off_c, 0, 21, 54
1, 154728, Note_off_c, 0, 22, 55
1, 154747, Control_c, 0, 64, 13
1, 154762, Control_c, 0, 64, 20
1, 154777, Control_c, 0, 64, 21
1, 154780, Note_on_c, 0, 61, 68
1, 154792, Control_c, 0, 64, 24
1, 154807, Control_c, 0, 64, 25
1, 154822, Control_c, 0, 64, 27
1, 154837, Control_c, 0, 64, 29
1, 154852, Control_c, 0, 64, 31
1, 154867, Control_c, 0, 64, 33
1, 154881, Control_c, 0, 64, 34
1, 154896, Control_c, 0, 64, 35
1, 154911, Control_c, 0, 64, 36
1, 154926, Control_c, 0, 64, 37
1, 154941, Control_c, 0, 64, 38
1, 154950, Note_on_c, 0, 58, 70
1, 154956, Note_on_c, 0, 53, 62
1, 154956, Control_c, 0, 64, 40
1, 154959, Note_on_c, 0, 22, 53
1, 154969, Note_on_c, 0, 21, 37
1, 154971, Control_c, 0, 64, 41
1, 154985, Control_c, 0, 64, 42
1, 154995, Note_off_c, 0, 61, 52
1, 155000, Control_c, 0, 64, 43
1, 155015, Control_c, 0, 64, 43
1, 155018, Note_off_c, 0, 21, 55
1, 155036, Note_off_c, 0, 22, 54
1, 155141, Control_c, 0, 64, 44
1, 155230, Control_c, 0, 64, 43
1, 155239, Note_on_c, 0, 22, 46
1, 155244, Control_c, 0, 64, 43
1, 155261, Note_on_c, 0, 21, 24
1, 155308, Note_off_c, 0, 21, 42
1, 155322, Note_off_c, 0, 22, 49
1, 155333, Control_c, 0, 64, 42
1, 155362, Note_on_c, 0, 62, 55
1, 155397, Note_off_c, 0, 53, 39
1, 155493, Note_off_c, 0, 58, 48
1, 155534, Note_on_c, 0, 22, 46
1, 155539, Note_on_c, 0, 56, 49
1, 155553, Note_on_c, 0, 52, 47
1, 155569, Note_on_c, 0, 21, 4
1, 155580, Note_off_c, 0, 62, 58
1, 155592, Note_off_c, 0, 22, 56
1, 155609, Note_off_c, 0, 52, 62
1, 155612, Note_off_c, 0, 56, 60
1, 155621, Note_off_c, 0, 21, 32
1, 155645, Control_c, 0, 64, 42
1, 155843, Note_on_c, 0, 22, 45
1, 155874, Control_c, 0, 64, 41
1, 155912, Note_off_c, 0, 22, 54
1, 155934, Control_c, 0, 64, 41
1, 155972, Note_on_c, 0, 49, 47
1, 156037, Control_c, 0, 64, 40
1, 156052, Control_c, 0, 64, 39
1, 156066, Control_c, 0, 64, 39
1, 156096, Control_c, 0, 64, 38
1, 156148, Note_on_c, 0, 46, 51
1, 156151, Note_off_c, 0, 49, 35
1, 156154, Note_on_c, 0, 41, 46
1, 156160, Note_on_c, 0, 22, 41
1, 156170, Control_c, 0, 64, 38
1, 156172, Note_on_c, 0, 21, 25
1, 156184, Control_c, 0, 64, 37
1, 156228, Note_off_c, 0, 21, 53
1, 156246, Note_off_c, 0, 22, 53
1, 156259, Control_c, 0, 64, 38
1, 156363, Control_c, 0, 64, 37
1, 156378, Control_c, 0, 64, 36
1, 156408, Control_c, 0, 64, 36
1, 156437, Control_c, 0, 64, 35
1, 156459, Note_on_c, 0, 21, 32
1, 156462, Note_on_c, 0, 22, 44
1, 156515, Note_off_c, 0, 21, 54
1, 156522, Note_off_c, 0, 22, 57
1, 156542, Control_c, 0, 64, 36
1, 156565, Note_on_c, 0, 50, 45
1, 156571, Control_c, 0, 64, 36
1, 156607, Control_c, 0, 64, 37
1, 156643, Note_off_c, 0, 41, 46
1, 156727, Control_c, 0, 64, 38
1, 156736, Note_off_c, 0, 46, 35
1, 156756, Note_off_c, 0, 50, 40
1, 156756, Control_c, 0, 64, 38
1, 156777, Note_on_c, 0, 22, 41
1, 156780, Note_on_c, 0, 44, 50
1, 156787, Note_on_c, 0, 21, 25
1, 156788, Note_on_c, 0, 40, 49
1, 156825, Note_off_c, 0, 44, 63
1, 156826, Note_off_c, 0, 40, 64
1, 156831, Note_off_c, 0, 21, 48
1, 156836, Note_off_c, 0, 22, 57
1, 156860, Control_c, 0, 64, 38
1, 156904, Control_c, 0, 64, 37
1, 157084, Note_on_c, 0, 57, 52
1, 157084, Note_on_c, 0, 22, 41
1, 157093, Note_on_c, 0, 21, 29
1, 157127, Control_c, 0, 64, 38
1, 157129, Note_off_c, 0, 57, 58
1, 157135, Note_off_c, 0, 21, 44
1, 157136, Note_off_c, 0, 22, 57
1, 157156, Control_c, 0, 64, 38
1, 157217, Control_c, 0, 64, 39
1, 157231, Control_c, 0, 64, 39
1, 157291, Control_c, 0, 64, 40
1, 157415, Note_on_c, 0, 56, 48
1, 157417, Control_c, 0, 64, 38
1, 157432, Control_c, 0, 64, 0
1, 157433, Note_on_c, 0, 22, 34
1, 157464, Poly_aftertouch_c, 0, 21, 127
1, 157500, Note_off_c, 0, 22, 52
1, 157501, Poly_aftertouch_c, 0, 21, 0
1, 157594, Control_c, 0, 64, 13
1, 157609, Control_c, 0, 64, 16
1, 157639, Control_c, 0, 64, 18
1, 157654, Control_c, 0, 64, 20
1, 157669, Control_c, 0, 64, 23
1, 157683, Control_c, 0, 64, 24
1, 157689, Note_on_c, 0, 53, 53
1, 157698, Control_c, 0, 64, 25
1, 157702, Note_on_c, 0, 22, 37
1, 157728, Control_c, 0, 64, 26
1, 157733, Note_off_c, 0, 53, 64
1, 157735, Note_off_c, 0, 56, 55
1, 157752, Note_off_c, 0, 22, 57
1, 157776, Poly_aftertouch_c, 0, 21, 0
1, 157787, Control_c, 0, 64, 24
1, 157802, Control_c, 0, 64, 23
1, 157817, Control_c, 0, 64, 21
1, 157846, Control_c, 0, 64, 20
1, 157861, Control_c, 0, 64, 18
1, 157876, Control_c, 0, 64, 16
1, 157891, Control_c, 0, 64, 10
1, 157905, Control_c, 0, 64, 0
1, 157962, Note_on_c, 0, 22, 49
1, 157964, Note_on_c, 0, 52, 54
1, 157973, Note_on_c, 0, 21, 25
1, 157996, Note_off_c, 0, 52, 66
1, 158018, Note_off_c, 0, 21, 52
1, 158025, Note_off_c, 0, 22, 58
1, 158249, Note_on_c, 0, 22, 47
1, 158251, Note_on_c, 0, 21, 28
1, 158252, Note_on_c, 0, 50, 47
1, 158253, Note_on_c, 0, 45, 48
1, 158283, Note_off_c, 0, 45, 62
1, 158292, Note_off_c, 0, 21, 55
1, 158293, Note_off_c, 0, 50, 63
1, 158298, Note_off_c, 0, 22, 58
1, 158542, Note_on_c, 0, 22, 46
1, 158549, Note_on_c, 0, 49, 47
1, 158550, Note_on_c, 0, 44, 43
1, 158554, Note_on_c, 0, 21, 31
1, 158614, Note_off_c, 0, 21, 51
1, 158643, Note_off_c, 0, 22, 55
1, 158684, Control_c, 0, 64, 56
1, 158699, Control_c, 0, 64, 63
1, 158713, Control_c, 0, 64, 65
1, 158728, Control_c, 0, 64, 65
1, 158743, Control_c, 0, 64, 66
1, 158758, Control_c, 0, 64, 68
1, 158773, Control_c, 0, 64, 70
1, 158787, Control_c, 0, 64, 71
1, 158803, Control_c, 0, 64, 72
1, 158818, Control_c, 0, 64, 73
1, 158819, Note_on_c, 0, 22, 46
1, 158825, Note_on_c, 0, 21, 28
1, 158840, Control_c, 0, 64, 73
1, 158845, Note_on_c, 0, 41, 54
1, 158855, Control_c, 0, 64, 74
1, 158867, Note_off_c, 0, 49, 28
1, 158880, Note_off_c, 0, 21, 52
1, 158915, Note_off_c, 0, 22, 52
1, 158915, Control_c, 0, 64, 74
1, 158954, Note_on_c, 0, 50, 50
1, 158988, Note_off_c, 0, 41, 55
1, 158997, Note_off_c, 0, 50, 62
1, 159004, Control_c, 0, 64, 74
1, 159004, Note_off_c, 0, 44, 21
1, 159018, Control_c, 0, 64, 71
1, 159033, Control_c, 0, 64, 63
1, 159048, Control_c, 0, 64, 0
1, 159078, Control_c, 0, 64, 48
1, 159092, Control_c, 0, 64, 66
1, 159107, Note_on_c, 0, 52, 63
1, 159107, Control_c, 0, 64, 71
1, 159114, Note_on_c, 0, 40, 47
1, 159122, Control_c, 0, 64, 75
1, 159126, Note_on_c, 0, 21, 37
1, 159136, Control_c, 0, 64, 78
1, 159147, Note_off_c, 0, 40, 52
1, 159151, Control_c, 0, 64, 79
1, 159153, Note_off_c, 0, 52, 59
1, 159156, Note_on_c, 0, 22, 8
1, 159166, Control_c, 0, 64, 80
1, 159181, Control_c, 0, 64, 81
1, 159210, Control_c, 0, 64, 81
1, 159214, Note_off_c, 0, 22, 46
1, 159314, Note_off_c, 0, 34, 56
1, 159338, Note_off_c, 0, 21, 50
1, 159359, Note_on_c, 0, 57, 61
1, 159446, Note_on_c, 0, 38, 48
1, 159481, Note_off_c, 0, 38, 45
1, 159551, Control_c, 0, 64, 81
1, 159566, Control_c, 0, 64, 78
1, 159588, Control_c, 0, 64, 70
1, 159603, Control_c, 0, 64, 51
1, 159608, Note_on_c, 0, 56, 58
1, 159611, Note_on_c, 0, 37, 45
1, 159619, Control_c, 0, 64, 0
1, 159648, Control_c, 0, 64, 64
1, 159657, Note_off_c, 0, 57, 52
1, 159663, Control_c, 0, 64, 72
1, 159675, Note_off_c, 0, 37, 57
1, 159678, Control_c, 0, 64, 77
1, 159693, Control_c, 0, 64, 80
1, 159708, Control_c, 0, 64, 81
1, 159722, Control_c, 0, 64, 82
1, 159737, Control_c, 0, 64, 84
1, 159752, Control_c, 0, 64, 85
1, 159767, Control_c, 0, 64, 86
1, 159782, Control_c, 0, 64, 87
1, 159797, Control_c, 0, 64, 87
1, 159812, Control_c, 0, 64, 88
1, 159827, Control_c, 0, 64, 89
1, 159868, Note_on_c, 0, 38, 57
1, 159868, Note_on_c, 0, 53, 63
1, 159871, Control_c, 0, 64, 89
1, 159903, Note_on_c, 0, 34, 28
1, 159940, Note_off_c, 0, 56, 36
1, 159943, Note_off_c, 0, 38, 60
1, 159948, Note_off_c, 0, 34, 51
1, 159949, Note_off_c, 0, 53, 56
1, 159974, Control_c, 0, 64, 90
1, 160018, Control_c, 0, 64, 90
1, 160107, Control_c, 0, 64, 87
1, 160120, Note_on_c, 0, 40, 61
1, 160122, Control_c, 0, 64, 80
1, 160123, Note_on_c, 0, 52, 68
1, 160137, Control_c, 0, 64, 72
1, 160151, Control_c, 0, 64, 66
1, 160152, Note_on_c, 0, 34, 35
1, 160166, Control_c, 0, 64, 66
1, 160181, Control_c, 0, 64, 69
1, 160196, Control_c, 0, 64, 74
1, 160208, Note_off_c, 0, 52, 58
1, 160211, Control_c, 0, 64, 82
1, 160217, Note_off_c, 0, 34, 56
1, 160225, Control_c, 0, 64, 87
1, 160232, Note_off_c, 0, 40, 54
1, 160240, Control_c, 0, 64, 90
1, 160255, Control_c, 0, 64, 92
1, 160270, Control_c, 0, 64, 94
1, 160285, Control_c, 0, 64, 96
1, 160299, Control_c, 0, 64, 97
1, 160314, Control_c, 0, 64, 98
1, 160336, Control_c, 0, 64, 98
1, 160351, Control_c, 0, 64, 99
1, 160366, Control_c, 0, 64, 99
1, 160381, Note_on_c, 0, 34, 53
1, 160385, Note_on_c, 0, 50, 71
1, 160386, Note_on_c, 0, 41, 62
1, 160396, Control_c, 0, 64, 100
1, 160426, Control_c, 0, 64, 100
1, 160445, Note_off_c, 0, 41, 57
1, 160447, Note_off_c, 0, 50, 62
1, 160463, Note_off_c, 0, 34, 52
1, 160471, Control_c, 0, 64, 101
1, 160515, Control_c, 0, 64, 101
1, 160634, Control_c, 0, 64, 98
1, 160641, Note_on_c, 0, 61, 66
1, 160644, Note_on_c, 0, 34, 56
1, 160644, Note_on_c, 0, 43, 62
1, 160644, Note_on_c, 0, 49, 64
1, 160649, Control_c, 0, 64, 88
1, 160663, Control_c, 0, 64, 74
1, 160678, Control_c, 0, 64, 43
1, 160693, Control_c, 0, 64, 0
1, 160723, Control_c, 0, 64, 67
1, 160737, Control_c, 0, 64, 78
1, 160749, Note_off_c, 0, 43, 60
1, 160752, Control_c, 0, 64, 89
1, 160767, Control_c, 0, 64, 96
1, 160781, Control_c, 0, 64, 99
1, 160782, Note_off_c, 0, 49, 54
1, 160796, Control_c, 0, 64, 101
1, 160801, Note_off_c, 0, 61, 54
1, 160802, Note_off_c, 0, 34, 43
1, 160811, Control_c, 0, 64, 104
1, 160826, Control_c, 0, 64, 107
1, 160841, Control_c, 0, 64, 109
1, 160855, Control_c, 0, 64, 109
1, 160870, Control_c, 0, 64, 110
1, 160885, Note_on_c, 0, 46, 72
1, 160885, Control_c, 0, 64, 111
1, 160890, Note_on_c, 0, 34, 55
1, 160900, Control_c, 0, 64, 111
1, 160915, Control_c, 0, 64, 112
1, 160930, Control_c, 0, 64, 112
1, 160951, Note_off_c, 0, 34, 56
1, 160958, Note_off_c, 0, 46, 51
1, 160974, Control_c, 0, 64, 113
1, 160986, Note_on_c, 0, 50, 62
1, 160987, Note_on_c, 0, 62, 65
1, 161018, Note_off_c, 0, 50, 64
1, 161029, Note_off_c, 0, 62, 61
1, 161034, Control_c, 0, 64, 113
1, 161118, Note_on_c, 0, 49, 73
1, 161125, Note_on_c, 0, 52, 73
1, 161129, Note_on_c, 0, 64, 69
1, 161142, Note_off_c, 0, 49, 66
1, 161144, Note_on_c, 0, 34, 54
1, 161152, Note_off_c, 0, 52, 69
1, 161159, Note_off_c, 0, 64, 65
1, 161184, Note_off_c, 0, 34, 65
1, 161357, Note_on_c, 0, 34, 70
1, 161372, Note_on_c, 0, 69, 78
1, 161373, Note_on_c, 0, 57, 73
1, 161388, Note_off_c, 0, 34, 65
1, 161410, Note_off_c, 0, 57, 62
1, 161419, Note_off_c, 0, 69, 63
1, 161507, Note_on_c, 0, 22, 62
1, 161533, Note_on_c, 0, 29, 58
1, 161575, Control_c, 0, 64, 112
1, 161590, Control_c, 0, 64, 105
1, 161604, Control_c, 0, 64, 91
1, 161619, Control_c, 0, 64, 73
1, 161623, Note_on_c, 0, 68, 74
1, 161626, Note_on_c, 0, 56, 73
1, 161634, Control_c, 0, 64, 0
1, 161641, Note_on_c, 0, 34, 70
1, 161673, Note_off_c, 0, 22, 58
1, 161677, Note_off_c, 0, 29, 61
1, 161678, Control_c, 0, 64, 69
1, 161693, Control_c, 0, 64, 83
1, 161708, Control_c, 0, 64, 95
1, 161713, Note_off_c, 0, 68, 63
1, 161715, Note_off_c, 0, 34, 63
1, 161723, Control_c, 0, 64, 100
1, 161728, Note_off_c, 0, 56, 47
1, 161738, Control_c, 0, 64, 103
1, 161752, Control_c, 0, 64, 106
1, 161767, Control_c, 0, 64, 110
1, 161782, Control_c, 0, 64, 113
1, 161797, Control_c, 0, 64, 115
1, 161812, Control_c, 0, 64, 116
1, 161834, Control_c, 0, 64, 117
1, 161849, Control_c, 0, 64, 117
1, 161864, Control_c, 0, 64, 118
1, 161877, Note_on_c, 0, 34, 73
1, 161877, Note_on_c, 0, 65, 75
1, 161877, Note_on_c, 0, 57, 70
1, 161878, Control_c, 0, 64, 119
1, 161908, Control_c, 0, 64, 119
1, 161927, Note_off_c, 0, 57, 61
1, 161933, Note_off_c, 0, 65, 64
1, 161950, Note_off_c, 0, 34, 61
1, 161952, Control_c, 0, 64, 120
1, 162119, Note_on_c, 0, 64, 78
1, 162120, Note_on_c, 0, 34, 74
1, 162125, Note_on_c, 0, 55, 77
1, 162158, Note_off_c, 0, 55, 64
1, 162173, Note_off_c, 0, 64, 64
1, 162205, Note_off_c, 0, 34, 60
1, 162338, Control_c, 0, 64, 119
1, 162352, Control_c, 0, 64, 113
1, 162358, Note_on_c, 0, 62, 76
1, 162362, Note_on_c, 0, 53, 73
1, 162363, Note_on_c, 0, 34, 62
1, 162363, Note_on_c, 0, 45, 73
1, 162367, Control_c, 0, 64, 98
1, 162382, Control_c, 0, 64, 81
1, 162397, Control_c, 0, 64, 66
1, 162412, Control_c, 0, 64, 56
1, 162426, Control_c, 0, 64, 67
1, 162441, Note_off_c, 0, 53, 56
1, 162441, Control_c, 0, 64, 76
1, 162449, Note_off_c, 0, 45, 58
1, 162456, Control_c, 0, 64, 87
1, 162471, Control_c, 0, 64, 95
1, 162486, Note_off_c, 0, 34, 51
1, 162486, Control_c, 0, 64, 99
1, 162501, Control_c, 0, 64, 103
1, 162502, Note_off_c, 0, 62, 54
1, 162516, Control_c, 0, 64, 107
1, 162530, Control_c, 0, 64, 111
1, 162545, Control_c, 0, 64, 114
1, 162560, Control_c, 0, 64, 115
1, 162582, Control_c, 0, 64, 115
1, 162597, Control_c, 0, 64, 116
1, 162608, Note_on_c, 0, 34, 58
1, 162612, Note_on_c, 0, 52, 79
1, 162612, Control_c, 0, 64, 116
1, 162614, Note_on_c, 0, 61, 77
1, 162614, Note_on_c, 0, 43, 75
1, 162626, Control_c, 0, 64, 117
1, 162678, Note_off_c, 0, 52, 63
1, 162686, Control_c, 0, 64, 117
1, 162693, Note_off_c, 0, 43, 52
1, 162715, Control_c, 0, 64, 118
1, 162730, Control_c, 0, 64, 118
1, 162745, Control_c, 0, 64, 119
1, 162751, Note_off_c, 0, 34, 59
1, 162760, Control_c, 0, 64, 120
1, 162775, Control_c, 0, 64, 122
1, 162790, Control_c, 0, 64, 125
1, 162805, Control_c, 0, 64, 126
1, 162835, Control_c, 0, 64, 127
1, 162848, Note_on_c, 0, 50, 72
1, 162849, Control_c, 0, 64, 127
1, 162853, Note_on_c, 0, 41, 81
1, 162867, Note_off_c, 0, 61, 59
1, 162880, Note_on_c, 0, 34, 53
1, 162906, Note_off_c, 0, 41, 63
1, 162932, Note_off_c, 0, 34, 56
1, 162941, Note_on_c, 0, 62, 81
1, 162957, Note_off_c, 0, 50, 47
1, 162997, Note_off_c, 0, 62, 61
1, 163013, Control_c, 0, 64, 106
1, 163028, Control_c, 0, 64, 85
1, 163043, Control_c, 0, 64, 66
1, 163051, Note_on_c, 0, 40, 79
1, 163057, Control_c, 0, 64, 0
1, 163067, Note_on_c, 0, 64, 83
1, 163070, Note_on_c, 0, 52, 85
1, 163072, Control_c, 0, 64, 59
1, 163086, Note_on_c, 0, 61, 43
1, 163087, Control_c, 0, 64, 74
1, 163094, Note_off_c, 0, 52, 71
1, 163102, Control_c, 0, 64, 88
1, 163115, Note_on_c, 0, 60, 25
1, 163115, Note_off_c, 0, 61, 55
1, 163117, Control_c, 0, 64, 101
1, 163124, Note_off_c, 0, 64, 61
1, 163131, Control_c, 0, 64, 104
1, 163142, Note_off_c, 0, 40, 58
1, 163146, Control_c, 0, 64, 105
1, 163150, Note_off_c, 0, 60, 42
1, 163161, Control_c, 0, 64, 106
1, 163175, Control_c, 0, 64, 108
1, 163190, Control_c, 0, 64, 110
1, 163205, Control_c, 0, 64, 111
1, 163220, Control_c, 0, 64, 111
1, 163249, Control_c, 0, 64, 112
1, 163258, Note_on_c, 0, 34, 66
1, 163261, Note_on_c, 0, 38, 58
1, 163279, Control_c, 0, 64, 112
1, 163288, Note_on_c, 0, 57, 84
1, 163290, Note_off_c, 0, 38, 63
1, 163294, Note_on_c, 0, 69, 84
1, 163311, Note_off_c, 0, 34, 64
1, 163326, Note_off_c, 0, 57, 64
1, 163331, Note_off_c, 0, 69, 62
1, 163346, Control_c, 0, 64, 113
1, 163361, Control_c, 0, 64, 113
1, 163375, Control_c, 0, 64, 115
1, 163390, Control_c, 0, 64, 117
1, 163405, Control_c, 0, 64, 119
1, 163420, Control_c, 0, 64, 124
1, 163422, Note_on_c, 0, 22, 75
1, 163435, Control_c, 0, 64, 127
1, 163479, Control_c, 0, 64, 122
1, 163494, Control_c, 0, 64, 101
1, 163508, Control_c, 0, 64, 78
1, 163510, Note_off_c, 0, 22, 62
1, 163523, Control_c, 0, 64, 0
1, 163527, Note_on_c, 0, 37, 84
1, 163530, Note_on_c, 0, 61, 61
1, 163530, Note_on_c, 0, 68, 84
1, 163532, Note_on_c, 0, 56, 91
1, 163553, Control_c, 0, 64, 46
1, 163560, Note_off_c, 0, 56, 66
1, 163563, Note_off_c, 0, 61, 66
1, 163568, Control_c, 0, 64, 72
1, 163579, Note_off_c, 0, 37, 65
1, 163579, Note_off_c, 0, 68, 64
1, 163583, Control_c, 0, 64, 86
1, 163598, Control_c, 0, 64, 101
1, 163613, Control_c, 0, 64, 105
1, 163643, Control_c, 0, 64, 105
1, 163672, Control_c, 0, 64, 106
1, 163687, Control_c, 0, 64, 107
1, 163702, Control_c, 0, 64, 108
1, 163717, Control_c, 0, 64, 109
1, 163732, Control_c, 0, 64, 110
1, 163747, Control_c, 0, 64, 112
1, 163749, Note_on_c, 0, 34, 85
1, 163750, Note_on_c, 0, 65, 79
1, 163753, Note_on_c, 0, 53, 78
1, 163758, Note_on_c, 0, 57, 74
1, 163762, Control_c, 0, 64, 113
1, 163777, Control_c, 0, 64, 115
1, 163785, Note_off_c, 0, 53, 64
1, 163785, Note_off_c, 0, 57, 66
1, 163792, Control_c, 0, 64, 116
1, 163806, Control_c, 0, 64, 117
1, 163809, Note_off_c, 0, 65, 64
1, 163842, Note_on_c, 0, 38, 75
1, 163846, Note_off_c, 0, 34, 60
1, 163896, Control_c, 0, 64, 113
1, 163911, Control_c, 0, 64, 104
1, 163925, Control_c, 0, 64, 91
1, 163937, Note_off_c, 0, 38, 61
1, 163940, Control_c, 0, 64, 73
1, 163955, Note_on_c, 0, 40, 86
1, 163955, Control_c, 0, 64, 10
1, 163964, Note_on_c, 0, 52, 80
1, 163964, Note_on_c, 0, 61, 75
1, 163966, Note_on_c, 0, 34, 67
1, 163967, Note_on_c, 0, 56, 69
1, 163968, Note_on_c, 0, 64, 71
1, 163970, Control_c, 0, 64, 0
1, 163989, Note_off_c, 0, 52, 70
1, 163991, Note_off_c, 0, 56, 65
1, 163992, Note_on_c, 0, 41, 24
1, 163993, Note_off_c, 0, 41, 127
1, 163995, Note_off_c, 0, 34, 64
1, 163997, Note_off_c, 0, 40, 62
1, 163997, Note_off_c, 0, 64, 67
1, 164003, Note_off_c, 0, 61, 62
1, 164216, Note_on_c, 0, 41, 89
1, 164218, Note_on_c, 0, 50, 87
1, 164218, Note_on_c, 0, 62, 80
1, 164219, Note_on_c, 0, 34, 76
1, 164223, Note_on_c, 0, 58, 75
1, 164243, Note_off_c, 0, 41, 70
1, 164243, Note_off_c, 0, 50, 69
1, 164254, Note_off_c, 0, 62, 63
1, 164257, Note_off_c, 0, 58, 63
1, 164276, Note_off_c, 0, 34, 50
1, 164477, Note_on_c, 0, 52, 78
1, 164480, Note_on_c, 0, 61, 81
1, 164482, Control_c, 0, 64, 61
1, 164485, Note_on_c, 0, 43, 91
1, 164486, Note_on_c, 0, 34, 85
1, 164486, Note_on_c, 0, 49, 86
1, 164496, Control_c, 0, 64, 73
1, 164511, Control_c, 0, 64, 79
1, 164526, Control_c, 0, 64, 84
1, 164537, Note_off_c, 0, 43, 61
1, 164541, Control_c, 0, 64, 90
1, 164551, Note_on_c, 0, 59, 3
1, 164555, Control_c, 0, 64, 97
1, 164568, Note_off_c, 0, 34, 44
1, 164570, Control_c, 0, 64, 104
1, 164585, Control_c, 0, 64, 108
1, 164592, Note_off_c, 0, 59, 45
1, 164600, Control_c, 0, 64, 110
1, 164601, Note_off_c, 0, 52, 59
1, 164615, Control_c, 0, 64, 112
1, 164620, Note_off_c, 0, 61, 59
1, 164629, Control_c, 0, 64, 115
1, 164644, Control_c, 0, 64, 117
1, 164659, Control_c, 0, 64, 119
1, 164662, Note_off_c, 0, 49, 34
1, 164674, Control_c, 0, 64, 120
1, 164689, Control_c, 0, 64, 121
1, 164704, Control_c, 0, 64, 121
1, 164718, Control_c, 0, 64, 122
1, 164722, Note_on_c, 0, 46, 89
1, 164727, Note_on_c, 0, 34, 69
1, 164748, Control_c, 0, 64, 123
1, 164763, Control_c, 0, 64, 123
1, 164772, Note_off_c, 0, 46, 62
1, 164778, Control_c, 0, 64, 124
1, 164792, Note_on_c, 0, 62, 79
1, 164794, Note_on_c, 0, 50, 82
1, 164799, Note_off_c, 0, 34, 64
1, 164808, Control_c, 0, 64, 125
1, 164829, Note_off_c, 0, 50, 66
1, 164829, Control_c, 0, 64, 125
1, 164848, Note_off_c, 0, 62, 63
1, 164859, Control_c, 0, 64, 126
1, 164889, Control_c, 0, 64, 126
1, 164921, Note_on_c, 0, 64, 91
1, 164922, Note_on_c, 0, 49, 88
1, 164924, Note_on_c, 0, 52, 87
1, 164928, Note_on_c, 0, 61, 80
1, 164940, Note_on_c, 0, 34, 67
1, 164942, Note_off_c, 0, 49, 69
1, 164945, Note_off_c, 0, 52, 71
1, 164951, Note_off_c, 0, 61, 64
1, 164960, Note_off_c, 0, 64, 64
1, 164978, Control_c, 0, 64, 127
1, 164984, Note_off_c, 0, 34, 65
1, 165026, Note_on_c, 0, 49, 3
1, 165060, Note_off_c, 0, 49, 38
1, 165155, Control_c, 0, 64, 126
1, 165166, Note_on_c, 0, 29, 44
1, 165170, Control_c, 0, 64, 125
1, 165172, Note_on_c, 0, 69, 101
1, 165175, Note_on_c, 0, 81, 95
1, 165177, Note_on_c, 0, 22, 78
1, 165177, Note_on_c, 0, 34, 88
1, 165185, Control_c, 0, 64, 115
1, 165201, Control_c, 0, 64, 103
1, 165209, Note_off_c, 0, 81, 67
1, 165211, Note_off_c, 0, 69, 66
1, 165216, Control_c, 0, 64, 87
1, 165221, Note_off_c, 0, 29, 62
1, 165225, Note_off_c, 0, 22, 64
1, 165231, Control_c, 0, 64, 70
1, 165232, Note_off_c, 0, 34, 64
1, 165245, Control_c, 0, 64, 0
1, 165430, Note_on_c, 0, 28, 89
1, 165431, Note_on_c, 0, 40, 102
1, 165435, Note_on_c, 0, 68, 95
1, 165436, Note_on_c, 0, 77, 50
1, 165437, Note_on_c, 0, 80, 93
1, 165443, Note_on_c, 0, 74, 68
1, 165452, Control_c, 0, 64, 74
1, 165464, Note_off_c, 0, 74, 72
1, 165467, Control_c, 0, 64, 86
1, 165473, Note_off_c, 0, 77, 62
1, 165473, Note_off_c, 0, 40, 66
1, 165476, Note_off_c, 0, 28, 63
1, 165481, Note_off_c, 0, 68, 61
1, 165482, Control_c, 0, 64, 94
1, 165488, Note_off_c, 0, 80, 64
1, 165497, Control_c, 0, 64, 99
1, 165512, Control_c, 0, 64, 105
1, 165526, Control_c, 0, 64, 109
1, 165541, Control_c, 0, 64, 112
1, 165556, Control_c, 0, 64, 114
1, 165578, Control_c, 0, 64, 115
1, 165593, Control_c, 0, 64, 117
1, 165608, Control_c, 0, 64, 119
1, 165623, Control_c, 0, 64, 122
1, 165638, Control_c, 0, 64, 125
1, 165652, Control_c, 0, 64, 127
1, 165667, Control_c, 0, 64, 127
1, 165678, Note_on_c, 0, 77, 91
1, 165678, Note_on_c, 0, 65, 89
1, 165683, Note_on_c, 0, 57, 86
1, 165690, Note_on_c, 0, 45, 73
1, 165716, Note_off_c, 0, 77, 65
1, 165719, Note_off_c, 0, 65, 64
1, 165722, Note_off_c, 0, 57, 60
1, 165723, Note_off_c, 0, 45, 66
1, 165875, Note_on_c, 0, 49, 33
1, 165889, Note_on_c, 0, 56, 92
1, 165891, Note_on_c, 0, 52, 75
1, 165893, Note_on_c, 0, 73, 34
1, 165896, Note_on_c, 0, 64, 92
1, 165899, Note_on_c, 0, 68, 79
1, 165899, Note_on_c, 0, 76, 85
1, 165904, Note_on_c, 0, 44, 73
1, 165904, Control_c, 0, 64, 105
1, 165916, Note_off_c, 0, 52, 71
1, 165919, Note_off_c, 0, 56, 65
1, 165919, Control_c, 0, 64, 86
1, 165923, Note_off_c, 0, 68, 68
1, 165934, Note_off_c, 0, 64, 66
1, 165934, Control_c, 0, 64, 67
1, 165937, Note_off_c, 0, 73, 66
1, 165940, Note_off_c, 0, 76, 67
1, 165940, Note_off_c, 0, 44, 67
1, 165944, Note_off_c, 0, 49, 64
1, 165949, Control_c, 0, 64, 0
1, 166143, Note_on_c, 0, 62, 97
1, 166143, Note_on_c, 0, 53, 93
1, 166145, Note_on_c, 0, 74, 83
1, 166146, Note_on_c, 0, 41, 92
1, 166172, Note_off_c, 0, 53, 69
1, 166175, Note_off_c, 0, 41, 71
1, 166181, Note_off_c, 0, 62, 62
1, 166182, Note_off_c, 0, 74, 67
1, 166390, Note_on_c, 0, 49, 64
1, 166391, Note_on_c, 0, 68, 59
1, 166391, Note_on_c, 0, 61, 99
1, 166392, Note_on_c, 0, 56, 94
1, 166395, Note_on_c, 0, 65, 85
1, 166395, Note_on_c, 0, 73, 86
1, 166398, Note_on_c, 0, 52, 70
1, 166402, Note_on_c, 0, 44, 68
1, 166416, Control_c, 0, 64, 68
1, 166417, Note_off_c, 0, 56, 68
1, 166421, Note_off_c, 0, 52, 69
1, 166431, Control_c, 0, 64, 79
1, 166446, Control_c, 0, 64, 86
1, 166449, Note_off_c, 0, 49, 64
1, 166456, Note_off_c, 0, 44, 63
1, 166461, Control_c, 0, 64, 91
1, 166475, Control_c, 0, 64, 95
1, 166490, Control_c, 0, 64, 99
1, 166495, Note_off_c, 0, 61, 0
1, 166505, Control_c, 0, 64, 103
1, 166519, Control_c, 0, 64, 106
1, 166528, Note_off_c, 0, 65, 54
1, 166532, Poly_aftertouch_c, 0, 61, 127
1, 166534, Control_c, 0, 64, 108
1, 166548, Note_off_c, 0, 73, 56
1, 166549, Control_c, 0, 64, 110
1, 166564, Control_c, 0, 64, 111
1, 166568, Note_off_c, 0, 68, 61
1, 166569, Poly_aftertouch_c, 0, 61, 0
1, 166579, Control_c, 0, 64, 112
1, 166593, Control_c, 0, 64, 113
1, 166608, Control_c, 0, 64, 114
1, 166620, Note_on_c, 0, 34, 93
1, 166623, Control_c, 0, 64, 115
1, 166638, Control_c, 0, 64, 115
1, 166644, Note_on_c, 0, 22, 63
1, 166658, Note_off_c, 0, 34, 62
1, 166684, Note_off_c, 0, 22, 50
1, 166698, Control_c, 0, 64, 116
1, 166713, Control_c, 0, 64, 118
1, 166727, Control_c, 0, 64, 121
1, 166736, Note_on_c, 0, 74, 70
1, 166737, Note_on_c, 0, 72, 71
1, 166739, Note_on_c, 0, 60, 70
1, 166739, Note_on_c, 0, 62, 65
1, 166742, Control_c, 0, 64, 126
1, 166757, Control_c, 0, 64, 127
1, 166766, Note_off_c, 0, 60, 67
1, 166767, Note_off_c, 0, 74, 63
1, 166768, Note_off_c, 0, 72, 61
1, 166769, Note_off_c, 0, 62, 64
1, 166817, Control_c, 0, 64, 105
1, 166832, Control_c, 0, 64, 82
1, 166847, Control_c, 0, 64, 63
1, 166862, Control_c, 0, 64, 54
1, 166865, Note_on_c, 0, 52, 50
1, 166868, Note_on_c, 0, 56, 84
1, 166868, Note_on_c, 0, 61, 97
1, 166870, Note_on_c, 0, 64, 92
1, 166874, Note_on_c, 0, 76, 87
1, 166877, Note_on_c, 0, 73, 79
1, 166877, Control_c, 0, 64, 70
1, 166879, Note_on_c, 0, 68, 78
1, 166881, Note_on_c, 0, 49, 70
1, 166890, Note_off_c, 0, 64, 71
1, 166892, Note_off_c, 0, 61, 66
1, 166892, Control_c, 0, 64, 87
1, 166900, Note_off_c, 0, 73, 67
1, 166901, Note_off_c, 0, 56, 62
1, 166902, Note_off_c, 0, 68, 70
1, 166906, Control_c, 0, 64, 110
1, 166918, Note_off_c, 0, 76, 63
1, 166921, Control_c, 0, 64, 118
1, 166924, Note_off_c, 0, 52, 67
1, 166936, Note_off_c, 0, 49, 62
1, 166936, Control_c, 0, 64, 120
1, 166951, Control_c, 0, 64, 123
1, 166966, Control_c, 0, 64, 127
1, 167125, Note_on_c, 0, 34, 92
1, 167130, Note_on_c, 0, 81, 91
1, 167132, Note_on_c, 0, 69, 89
1, 167136, Note_on_c, 0, 22, 83
1, 167154, Note_off_c, 0, 34, 67
1, 167163, Note_off_c, 0, 22, 59
1, 167172, Note_off_c, 0, 69, 65
1, 167187, Note_off_c, 0, 81, 53
1, 167354, Poly_aftertouch_c, 0, 77, 127
1, 167358, Control_c, 0, 64, 109
1, 167373, Control_c, 0, 64, 83
1, 167377, Poly_aftertouch_c, 0, 77, 0
1, 167388, Control_c, 0, 64, 0
1, 167395, Note_on_c, 0, 77, 23
1, 167397, Note_on_c, 0, 52, 100
1, 167398, Note_on_c, 0, 68, 94
1, 167399, Note_on_c, 0, 80, 90
1, 167401, Note_on_c, 0, 74, 65
1, 167401, Note_on_c, 0, 46, 90
1, 167404, Note_on_c, 0, 40, 82
1, 167432, Control_c, 0, 64, 64
1, 167446, Note_off_c, 0, 52, 65
1, 167447, Control_c, 0, 64, 82
1, 167450, Note_off_c, 0, 74, 61
1, 167462, Control_c, 0, 64, 102
1, 167468, Note_off_c, 0, 46, 59
1, 167469, Note_off_c, 0, 77, 59
1, 167477, Control_c, 0, 64, 116
1, 167481, Note_off_c, 0, 80, 64
1, 167490, Note_off_c, 0, 40, 63
1, 167497, Note_off_c, 0, 68, 35
1, 167506, Control_c, 0, 64, 116
1, 167521, Control_c, 0, 64, 117
1, 167536, Control_c, 0, 64, 118
1, 167550, Control_c, 0, 64, 119
1, 167565, Control_c, 0, 64, 121
1, 167580, Control_c, 0, 64, 122
1, 167596, Control_c, 0, 64, 124
1, 167611, Control_c, 0, 64, 125
1, 167626, Control_c, 0, 64, 126
1, 167635, Note_on_c, 0, 34, 92
1, 167640, Control_c, 0, 64, 127
1, 167643, Note_on_c, 0, 77, 73
1, 167646, Note_on_c, 0, 22, 80
1, 167649, Note_on_c, 0, 65, 79
1, 167663, Note_on_c, 0, 67, 67
1, 167670, Control_c, 0, 64, 127
1, 167674, Note_off_c, 0, 22, 60
1, 167675, Note_off_c, 0, 34, 62
1, 167682, Note_off_c, 0, 67, 62
1, 167683, Note_off_c, 0, 65, 65
1, 167692, Note_off_c, 0, 77, 63
1, 167873, Note_on_c, 0, 56, 98
1, 167877, Note_on_c, 0, 64, 95
1, 167879, Note_on_c, 0, 73, 59
1, 167881, Note_on_c, 0, 44, 90
1, 167881, Note_on_c, 0, 76, 83
1, 167883, Note_on_c, 0, 68, 71
1, 167885, Control_c, 0, 64, 113
1, 167900, Control_c, 0, 64, 93
1, 167908, Note_off_c, 0, 56, 66
1, 167914, Note_off_c, 0, 68, 67
1, 167915, Control_c, 0, 64, 73
1, 167917, Note_off_c, 0, 44, 63
1, 167920, Note_off_c, 0, 64, 66
1, 167929, Control_c, 0, 64, 0
1, 167933, Note_off_c, 0, 73, 64
1, 167935, Note_off_c, 0, 76, 66
1, 168120, Note_on_c, 0, 62, 97
1, 168122, Note_on_c, 0, 53, 93
1, 168124, Note_on_c, 0, 74, 82
1, 168130, Note_on_c, 0, 41, 91
1, 168155, Note_off_c, 0, 53, 68
1, 168159, Note_off_c, 0, 74, 67
1, 168161, Note_off_c, 0, 41, 68
1, 168161, Note_off_c, 0, 62, 63
1, 168364, Note_on_c, 0, 68, 51
1, 168366, Note_on_c, 0, 61, 97
1, 168367, Note_on_c, 0, 65, 82
1, 168369, Note_on_c, 0, 73, 87
1, 168370, Note_on_c, 0, 53, 97
1, 168371, Note_on_c, 0, 49, 86
1, 168373, Control_c, 0, 64, 41
1, 168377, Note_on_c, 0, 44, 64
1, 168380, Note_on_c, 0, 41, 69
1, 168389, Control_c, 0, 64, 70
1, 168404, Control_c, 0, 64, 78
1, 168405, Note_off_c, 0, 53, 69
1, 168416, Note_off_c, 0, 49, 62
1, 168419, Control_c, 0, 64, 86
1, 168433, Note_off_c, 0, 41, 65
1, 168434, Control_c, 0, 64, 93
1, 168441, Note_off_c, 0, 44, 64
1, 168449, Control_c, 0, 64, 99
1, 168463, Control_c, 0, 64, 104
1, 168478, Control_c, 0, 64, 107
1, 168493, Control_c, 0, 64, 109
1, 168508, Control_c, 0, 64, 111
1, 168523, Control_c, 0, 64, 112
1, 168537, Control_c, 0, 64, 114
1, 168552, Control_c, 0, 64, 116
1, 168558, Note_off_c, 0, 65, 59
1, 168559, Note_off_c, 0, 61, 58
1, 168575, Control_c, 0, 64, 117
1, 168584, Note_off_c, 0, 73, 57
1, 168590, Control_c, 0, 64, 119
1, 168600, Note_off_c, 0, 68, 62
1, 168604, Control_c, 0, 64, 119
1, 168619, Control_c, 0, 64, 120
1, 168632, Note_on_c, 0, 34, 97
1, 168634, Control_c, 0, 64, 120
1, 168644, Note_on_c, 0, 22, 87
1, 168649, Control_c, 0, 64, 121
1, 168669, Note_off_c, 0, 22, 64
1, 168681, Note_off_c, 0, 34, 64
1, 168693, Control_c, 0, 64, 121
1, 168737, Control_c, 0, 64, 122
1, 168745, Note_on_c, 0, 74, 88
1, 168747, Note_on_c, 0, 62, 89
1, 168767, Control_c, 0, 64, 122
1, 168793, Note_off_c, 0, 62, 59
1, 168796, Control_c, 0, 64, 123
1, 168811, Control_c, 0, 64, 126
1, 168822, Note_off_c, 0, 74, 55
1, 168826, Control_c, 0, 64, 127
1, 168886, Control_c, 0, 64, 121
1, 168901, Control_c, 0, 64, 95
1, 168916, Control_c, 0, 64, 63
1, 168930, Control_c, 0, 64, 0
1, 168937, Note_on_c, 0, 64, 98
1, 168939, Note_on_c, 0, 59, 96
1, 168940, Note_on_c, 0, 76, 91
1, 168942, Note_on_c, 0, 56, 92
1, 168943, Note_on_c, 0, 73, 84
1, 168945, Note_on_c, 0, 52, 76
1, 168947, Note_on_c, 0, 47, 75
1, 168948, Note_on_c, 0, 68, 77
1, 168960, Control_c, 0, 64, 62
1, 168969, Note_off_c, 0, 59, 67
1, 168971, Note_off_c, 0, 64, 66
1, 168973, Note_off_c, 0, 56, 63
1, 168975, Control_c, 0, 64, 79
1, 168975, Note_off_c, 0, 68, 65
1, 168989, Control_c, 0, 64, 98
1, 168991, Note_off_c, 0, 52, 66
1, 168996, Note_off_c, 0, 76, 69
1, 168996, Note_off_c, 0, 73, 63
1, 169004, Control_c, 0, 64, 117
1, 169005, Note_off_c, 0, 47, 66
1, 169019, Control_c, 0, 64, 119
1, 169034, Control_c, 0, 64, 121
1, 169049, Control_c, 0, 64, 127
1, 169063, Control_c, 0, 64, 127
1, 169233, Note_on_c, 0, 28, 85
1, 169233, Note_on_c, 0, 81, 98
1, 169234, Note_on_c, 0, 93, 103
1, 169234, Note_on_c, 0, 40, 93
1, 169272, Note_off_c, 0, 40, 64
1, 169276, Note_off_c, 0, 28, 62
1, 169336, Note_on_c, 0, 40, 96
1, 169339, Note_on_c, 0, 28, 89
1, 169363, Note_off_c, 0, 93, 60
1, 169383, Note_off_c, 0, 28, 61
1, 169388, Note_off_c, 0, 40, 66
1, 169391, Note_off_c, 0, 81, 58
1, 169503, Note_on_c, 0, 89, 10
1, 169506, Note_on_c, 0, 86, 22
1, 169545, Control_c, 0, 64, 102
1, 169551, Note_on_c, 0, 46, 98
1, 169554, Note_on_c, 0, 80, 95
1, 169554, Note_on_c, 0, 92, 92
1, 169555, Note_off_c, 0, 86, 0
1, 169555, Note_on_c, 0, 86, 37
1, 169560, Control_c, 0, 64, 71
1, 169564, Note_on_c, 0, 34, 84
1, 169575, Control_c, 0, 64, 0
1, 169601, Note_off_c, 0, 46, 63
1, 169605, Control_c, 0, 64, 53
1, 169617, Note_off_c, 0, 86, 62
1, 169619, Note_off_c, 0, 34, 54
1, 169619, Control_c, 0, 64, 77
1, 169622, Note_off_c, 0, 89, 62
1, 169625, Note_off_c, 0, 80, 62
1, 169626, Note_off_c, 0, 92, 67
1, 169634, Control_c, 0, 64, 97
1, 169649, Control_c, 0, 64, 127
1, 169661, Note_on_c, 0, 46, 101
1, 169667, Note_on_c, 0, 34, 81
1, 169711, Note_off_c, 0, 34, 63
1, 169711, Note_off_c, 0, 46, 62
1, 169836, Note_on_c, 0, 89, 87
1, 169837, Note_on_c, 0, 77, 90
1, 169837, Note_on_c, 0, 80, 82
1, 169844, Note_on_c, 0, 62, 89
1, 169849, Note_on_c, 0, 50, 85
1, 169876, Note_off_c, 0, 62, 59
1, 169882, Note_off_c, 0, 50, 61
1, 169901, Note_off_c, 0, 89, 62
1, 169921, Note_off_c, 0, 77, 50
1, 169929, Note_off_c, 0, 80, 60
1, 169941, Note_on_c, 0, 62, 91
1, 169944, Note_on_c, 0, 50, 83
1, 169989, Note_off_c, 0, 50, 62
1, 169993, Note_off_c, 0, 62, 63
1, 170110, Note_on_c, 0, 68, 94
1, 170114, Note_on_c, 0, 56, 83
1, 170116, Note_on_c, 0, 88, 88
1, 170120, Note_on_c, 0, 76, 91
1, 170152, Note_off_c, 0, 68, 65
1, 170159, Note_off_c, 0, 56, 62
1, 170202, Note_off_c, 0, 88, 59
1, 170216, Note_on_c, 0, 68, 96
1, 170219, Note_on_c, 0, 56, 80
1, 170250, Note_off_c, 0, 76, 59
1, 170266, Note_off_c, 0, 68, 62
1, 170272, Note_off_c, 0, 56, 64
1, 170361, Note_on_c, 0, 65, 90
1, 170370, Note_on_c, 0, 53, 89
1, 170379, Note_on_c, 0, 86, 88
1, 170385, Note_on_c, 0, 74, 84
1, 170391, Note_on_c, 0, 77, 72
1, 170413, Note_on_c, 0, 78, 54
1, 170413, Note_off_c, 0, 65, 65
1, 170416, Note_off_c, 0, 53, 65
1, 170434, Note_off_c, 0, 78, 38
1, 170454, Note_off_c, 0, 86, 57
1, 170456, Note_off_c, 0, 74, 61
1, 170457, Note_off_c, 0, 77, 59
1, 170472, Note_on_c, 0, 65, 92
1, 170475, Note_on_c, 0, 53, 86
1, 170528, Note_off_c, 0, 65, 62
1, 170533, Note_off_c, 0, 53, 63
1, 170680, Control_c, 0, 64, 97
1, 170694, Control_c, 0, 64, 71
1, 170697, Note_on_c, 0, 85, 87
1, 170698, Note_on_c, 0, 61, 68
1, 170700, Note_on_c, 0, 76, 83
1, 170701, Note_on_c, 0, 80, 50
1, 170701, Note_on_c, 0, 73, 90
1, 170709, Control_c, 0, 64, 0
1, 170710, Note_on_c, 0, 52, 78
1, 170710, Note_on_c, 0, 64, 95
1, 170720, Note_on_c, 0, 56, 66
1, 170739, Control_c, 0, 64, 36
1, 170754, Control_c, 0, 64, 72
1, 170758, Note_off_c, 0, 64, 65
1, 170768, Control_c, 0, 64, 88
1, 170774, Note_off_c, 0, 61, 64
1, 170782, Note_off_c, 0, 52, 66
1, 170784, Control_c, 0, 64, 105
1, 170787, Note_off_c, 0, 56, 63
1, 170799, Control_c, 0, 64, 109
1, 170821, Control_c, 0, 64, 109
1, 170836, Control_c, 0, 64, 110
1, 170851, Control_c, 0, 64, 113
1, 170865, Control_c, 0, 64, 117
1, 170872, Note_off_c, 0, 76, 62
1, 170880, Control_c, 0, 64, 120
1, 170886, Note_off_c, 0, 73, 57
1, 170887, Note_off_c, 0, 85, 60
1, 170895, Note_off_c, 0, 80, 61
1, 170895, Control_c, 0, 64, 123
1, 170910, Control_c, 0, 64, 124
1, 170925, Control_c, 0, 64, 127
1, 170940, Control_c, 0, 64, 127
1, 170954, Note_on_c, 0, 62, 94
1, 170963, Note_on_c, 0, 50, 88
1, 171001, Note_off_c, 0, 62, 64
1, 171004, Note_off_c, 0, 50, 59
1, 171044, Note_on_c, 0, 74, 86
1, 171046, Note_on_c, 0, 86, 85
1, 171089, Note_off_c, 0, 74, 66
1, 171098, Note_off_c, 0, 86, 65
1, 171177, Note_on_c, 0, 52, 57
1, 171178, Note_on_c, 0, 61, 95
1, 171181, Note_on_c, 0, 88, 90
1, 171183, Note_on_c, 0, 81, 82
1, 171183, Note_on_c, 0, 85, 81
1, 171184, Note_on_c, 0, 76, 83
1, 171189, Note_on_c, 0, 56, 72
1, 171194, Note_on_c, 0, 49, 78
1, 171207, Note_off_c, 0, 61, 64
1, 171207, Note_off_c, 0, 81, 61
1, 171213, Note_on_c, 0, 77, 45
1, 171214, Note_off_c, 0, 77, 127
1, 171214, Note_off_c, 0, 56, 65
1, 171223, Note_off_c, 0, 88, 61
1, 171224, Note_off_c, 0, 76, 62
1, 171229, Note_off_c, 0, 52, 67
1, 171231, Note_off_c, 0, 85, 62
1, 171243, Note_off_c, 0, 49, 62
1, 171399, Control_c, 0, 64, 126
1, 171414, Control_c, 0, 64, 113
1, 171429, Control_c, 0, 64, 99
1, 171435, Note_on_c, 0, 43, 95
1, 171438, Note_on_c, 0, 82, 85
1, 171439, Note_on_c, 0, 70, 96
1, 171442, Note_on_c, 0, 31, 75
1, 171443, Note_on_c, 0, 74, 78
1, 171444, Control_c, 0, 64, 85
1, 171449, Note_on_c, 0, 40, 65
1, 171449, Note_on_c, 0, 77, 70
1, 171458, Control_c, 0, 64, 70
1, 171467, Note_on_c, 0, 80, 51
1, 171468, Note_off_c, 0, 74, 65
1, 171471, Note_off_c, 0, 70, 61
1, 171473, Control_c, 0, 64, 0
1, 171476, Note_off_c, 0, 40, 58
1, 171476, Note_off_c, 0, 77, 63
1, 171479, Note_off_c, 0, 31, 65
1, 171482, Note_off_c, 0, 43, 61
1, 171489, Note_off_c, 0, 80, 57
1, 171493, Note_off_c, 0, 82, 65
1, 171684, Note_on_c, 0, 45, 97
1, 171685, Note_on_c, 0, 37, 68
1, 171685, Note_on_c, 0, 33, 72
1, 171685, Note_on_c, 0, 76, 83
1, 171686, Note_on_c, 0, 69, 100
1, 171689, Control_c, 0, 64, 68
1, 171691, Note_on_c, 0, 81, 81
1, 171694, Note_on_c, 0, 40, 78
1, 171701, Note_on_c, 0, 72, 75
1, 171704, Control_c, 0, 64, 76
1, 171718, Note_on_c, 0, 78, 48
1, 171719, Control_c, 0, 64, 83
1, 171720, Note_off_c, 0, 69, 64
1, 171720, Note_off_c, 0, 81, 57
1, 171724, Note_on_c, 0, 79, 40
1, 171725, Note_off_c, 0, 79, 127
1, 171725, Note_off_c, 0, 40, 64
1, 171725, Note_off_c, 0, 72, 71
1, 171725, Note_off_c, 0, 33, 66
1, 171730, Note_off_c, 0, 76, 66
1, 171731, Note_off_c, 0, 45, 64
1, 171735, Note_off_c, 0, 37, 63
1, 171735, Control_c, 0, 64, 88
1, 171743, Note_off_c, 0, 78, 36
1, 171749, Control_c, 0, 64, 92
1, 171764, Control_c, 0, 64, 96
1, 171779, Control_c, 0, 64, 98
1, 171794, Control_c, 0, 64, 100
1, 171809, Control_c, 0, 64, 101
1, 171823, Control_c, 0, 64, 103
1, 171838, Control_c, 0, 64, 105
1, 171853, Control_c, 0, 64, 107
1, 171868, Control_c, 0, 64, 109
1, 171883, Control_c, 0, 64, 110
1, 171886, Poly_aftertouch_c, 0, 40, 127
1, 171927, Note_on_c, 0, 46, 99
1, 171927, Control_c, 0, 64, 110
1, 171929, Note_on_c, 0, 74, 60
1, 171930, Note_on_c, 0, 34, 78
1, 171930, Note_on_c, 0, 65, 90
1, 171933, Note_on_c, 0, 77, 84
1, 171933, Note_on_c, 0, 70, 82
1, 171942, Control_c, 0, 64, 103
1, 171953, Poly_aftertouch_c, 0, 40, 0
1, 171957, Control_c, 0, 64, 89
1, 171960, Note_off_c, 0, 65, 62
1, 171964, Note_off_c, 0, 70, 64
1, 171968, Note_off_c, 0, 74, 64
1, 171972, Control_c, 0, 64, 73
1, 171973, Note_off_c, 0, 34, 64
1, 171976, Note_off_c, 0, 46, 63
1, 171977, Note_off_c, 0, 77, 62
1, 171987, Control_c, 0, 64, 0
1, 172175, Note_on_c, 0, 64, 94
1, 172177, Note_on_c, 0, 49, 95
1, 172177, Note_on_c, 0, 73, 74
1, 172178, Note_on_c, 0, 44, 80
1, 172178, Note_on_c, 0, 69, 85
1, 172180, Note_on_c, 0, 76, 82
1, 172181, Note_on_c, 0, 40, 54
1, 172183, Note_on_c, 0, 37, 70
1, 172213, Note_off_c, 0, 64, 64
1, 172215, Note_off_c, 0, 69, 68
1, 172216, Note_off_c, 0, 76, 69
1, 172219, Note_off_c, 0, 49, 63
1, 172225, Note_off_c, 0, 44, 62
1, 172227, Note_off_c, 0, 73, 66
1, 172229, Note_off_c, 0, 37, 64
1, 172230, Note_off_c, 0, 40, 63
1, 172440, Note_on_c, 0, 53, 93
1, 172441, Note_on_c, 0, 44, 63
1, 172442, Note_on_c, 0, 68, 78
1, 172444, Note_on_c, 0, 61, 95
1, 172445, Note_on_c, 0, 73, 80
1, 172446, Note_on_c, 0, 48, 79
1, 172449, Note_on_c, 0, 65, 83
1, 172454, Note_on_c, 0, 41, 70
1, 172477, Note_off_c, 0, 61, 63
1, 172479, Note_off_c, 0, 48, 68
1, 172479, Note_off_c, 0, 53, 67
1, 172489, Note_off_c, 0, 65, 64
1, 172491, Note_off_c, 0, 41, 65
1, 172506, Note_off_c, 0, 44, 64
1, 172512, Note_off_c, 0, 73, 64
1, 172512, Note_off_c, 0, 68, 63
1, 172707, Note_on_c, 0, 48, 64
1, 172710, Note_on_c, 0, 52, 78
1, 172711, Note_on_c, 0, 55, 87
1, 172717, Note_on_c, 0, 67, 76
1, 172718, Note_on_c, 0, 60, 91
1, 172718, Note_on_c, 0, 64, 85
1, 172719, Note_on_c, 0, 72, 85
1, 172720, Control_c, 0, 64, 64
1, 172725, Note_on_c, 0, 43, 69
1, 172730, Note_off_c, 0, 55, 74
1, 172734, Control_c, 0, 64, 74
1, 172738, Note_off_c, 0, 52, 69
1, 172749, Control_c, 0, 64, 84
1, 172755, Note_off_c, 0, 48, 67
1, 172763, Control_c, 0, 64, 91
1, 172765, Note_off_c, 0, 43, 63
1, 172778, Control_c, 0, 64, 95
1, 172793, Control_c, 0, 64, 99
1, 172808, Control_c, 0, 64, 103
1, 172823, Control_c, 0, 64, 106
1, 172837, Control_c, 0, 64, 108
1, 172852, Control_c, 0, 64, 108
1, 172867, Control_c, 0, 64, 109
1, 172881, Control_c, 0, 64, 110
1, 172890, Note_off_c, 0, 72, 61
1, 172896, Control_c, 0, 64, 111
1, 172911, Control_c, 0, 64, 111
1, 172922, Note_off_c, 0, 60, 55
1, 172926, Control_c, 0, 64, 112
1, 172956, Control_c, 0, 64, 112
1, 172967, Note_on_c, 0, 34, 73
1, 172968, Note_on_c, 0, 43, 91
1, 172976, Note_on_c, 0, 38, 78
1, 172977, Note_on_c, 0, 31, 72
1, 172985, Control_c, 0, 64, 113
1, 173000, Control_c, 0, 64, 113
1, 173030, Control_c, 0, 64, 114
1, 173041, Note_off_c, 0, 38, 62
1, 173041, Note_off_c, 0, 64, 57
1, 173045, Control_c, 0, 64, 115
1, 173058, Note_off_c, 0, 31, 61
1, 173060, Note_off_c, 0, 43, 60
1, 173064, Note_off_c, 0, 34, 64
1, 173067, Control_c, 0, 64, 116
1, 173080, Note_off_c, 0, 67, 60
1, 173082, Control_c, 0, 64, 117
1, 173090, Note_on_c, 0, 70, 81
1, 173096, Control_c, 0, 64, 117
1, 173097, Note_on_c, 0, 58, 86
1, 173111, Control_c, 0, 64, 118
1, 173126, Control_c, 0, 64, 119
1, 173141, Control_c, 0, 64, 120
1, 173143, Note_off_c, 0, 58, 63
1, 173144, Note_off_c, 0, 70, 65
1, 173156, Control_c, 0, 64, 122
1, 173170, Control_c, 0, 64, 124
1, 173186, Control_c, 0, 64, 125
1, 173201, Control_c, 0, 64, 127
1, 173216, Control_c, 0, 64, 127
1, 173260, Control_c, 0, 64, 125
1, 173275, Control_c, 0, 64, 107
1, 173289, Note_on_c, 0, 64, 39
1, 173290, Control_c, 0, 64, 82
1, 173294, Note_on_c, 0, 45, 88
1, 173295, Note_on_c, 0, 33, 71
1, 173295, Note_on_c, 0, 57, 85
1, 173296, Note_on_c, 0, 69, 83
1, 173298, Note_on_c, 0, 37, 72
1, 173299, Note_on_c, 0, 40, 78
1, 173303, Note_on_c, 0, 61, 75
1, 173305, Control_c, 0, 64, 0
1, 173349, Control_c, 0, 64, 61
1, 173364, Control_c, 0, 64, 77
1, 173376, Note_off_c, 0, 57, 59
1, 173379, Control_c, 0, 64, 92
1, 173393, Note_off_c, 0, 69, 62
1, 173394, Control_c, 0, 64, 102
1, 173405, Note_off_c, 0, 37, 61
1, 173409, Control_c, 0, 64, 104
1, 173415, Note_off_c, 0, 45, 59
1, 173423, Note_off_c, 0, 61, 51
1, 173424, Note_off_c, 0, 33, 56
1, 173424, Control_c, 0, 64, 105
1, 173439, Control_c, 0, 64, 107
1, 173453, Control_c, 0, 64, 111
1, 173468, Control_c, 0, 64, 117
1, 173480, Note_off_c, 0, 40, 35
1, 173483, Control_c, 0, 64, 127
1, 173498, Control_c, 0, 64, 127
1, 173499, Note_off_c, 0, 64, 32
1, 173573, Control_c, 0, 64, 117
1, 173579, Note_on_c, 0, 34, 73
1, 173579, Note_on_c, 0, 46, 90
1, 173579, Note_on_c, 0, 69, 78
1, 173581, Note_on_c, 0, 58, 82
1, 173587, Control_c, 0, 64, 93
1, 173602, Control_c, 0, 64, 71
1, 173617, Control_c, 0, 64, 0
1, 173646, Note_off_c, 0, 58, 55
1, 173647, Control_c, 0, 64, 68
1, 173661, Control_c, 0, 64, 83
1, 173671, Note_off_c, 0, 46, 60
1, 173674, Note_off_c, 0, 34, 65
1, 173676, Control_c, 0, 64, 100
1, 173680, Note_on_c, 0, 65, 68
1, 173683, Note_on_c, 0, 62, 56
1, 173691, Control_c, 0, 64, 110
1, 173705, Control_c, 0, 64, 111
1, 173716, Note_off_c, 0, 69, 57
1, 173720, Control_c, 0, 64, 113
1, 173735, Control_c, 0, 64, 119
1, 173750, Control_c, 0, 64, 127
1, 173758, Note_on_c, 0, 58, 72
1, 173784, Note_off_c, 0, 62, 50
1, 173785, Note_off_c, 0, 65, 59
1, 173814, Note_off_c, 0, 58, 63
1, 173861, Control_c, 0, 64, 121
1, 173868, Note_on_c, 0, 50, 79
1, 173876, Control_c, 0, 64, 92
1, 173880, Note_on_c, 0, 45, 70
1, 173882, Note_on_c, 0, 38, 63
1, 173883, Note_on_c, 0, 69, 79
1, 173889, Note_on_c, 0, 41, 57
1, 173890, Note_on_c, 0, 57, 78
1, 173891, Control_c, 0, 64, 69
1, 173906, Control_c, 0, 64, 0
1, 173920, Control_c, 0, 64, 18
1, 173935, Control_c, 0, 64, 69
1, 173948, Note_off_c, 0, 57, 59
1, 173950, Control_c, 0, 64, 84
1, 173965, Control_c, 0, 64, 100
1, 173975, Note_off_c, 0, 50, 59
1, 173976, Note_on_c, 0, 62, 47
1, 173978, Note_on_c, 0, 65, 59
1, 173980, Control_c, 0, 64, 108
1, 173983, Note_off_c, 0, 45, 61
1, 173996, Control_c, 0, 64, 109
1, 174006, Note_off_c, 0, 41, 63
1, 174010, Control_c, 0, 64, 111
1, 174025, Control_c, 0, 64, 115
1, 174026, Note_off_c, 0, 38, 62
1, 174031, Note_off_c, 0, 62, 56
1, 174040, Control_c, 0, 64, 120
1, 174043, Note_off_c, 0, 69, 62
1, 174051, Note_on_c, 0, 57, 72
1, 174055, Note_off_c, 0, 65, 64
1, 174055, Control_c, 0, 64, 125
1, 174070, Control_c, 0, 64, 127
1, 174076, Note_off_c, 0, 57, 64
1, 174154, Note_on_c, 0, 65, 76
1, 174161, Note_on_c, 0, 53, 77
1, 174226, Note_off_c, 0, 53, 53
1, 174227, Note_on_c, 0, 33, 61
1, 174229, Note_on_c, 0, 45, 66
1, 174240, Note_on_c, 0, 57, 57
1, 174241, Note_on_c, 0, 62, 65
1, 174243, Note_on_c, 0, 40, 54
1, 174265, Note_off_c, 0, 45, 64
1, 174276, Note_off_c, 0, 33, 63
1, 174282, Note_off_c, 0, 57, 60
1, 174285, Note_off_c, 0, 65, 53
1, 174304, Note_off_c, 0, 40, 56
1, 174325, Note_on_c, 0, 53, 69
1, 174361, Note_off_c, 0, 53, 63
1, 174363, Note_off_c, 0, 62, 59
1, 174381, Control_c, 0, 64, 103
1, 174394, Note_on_c, 0, 32, 68
1, 174395, Control_c, 0, 64, 79
1, 174407, Note_on_c, 0, 44, 74
1, 174410, Control_c, 0, 64, 0
1, 174419, Note_on_c, 0, 64, 71
1, 174423, Note_on_c, 0, 40, 56
1, 174435, Note_on_c, 0, 52, 79
1, 174440, Control_c, 0, 64, 36
1, 174454, Control_c, 0, 64, 70
1, 174469, Control_c, 0, 64, 89
1, 174484, Control_c, 0, 64, 105
1, 174494, Note_off_c, 0, 52, 44
1, 174499, Control_c, 0, 64, 109
1, 174514, Control_c, 0, 64, 110
1, 174522, Note_on_c, 0, 59, 52
1, 174527, Note_on_c, 0, 56, 53
1, 174529, Control_c, 0, 64, 112
1, 174533, Note_off_c, 0, 64, 55
1, 174543, Control_c, 0, 64, 117
1, 174560, Note_off_c, 0, 44, 56
1, 174565, Control_c, 0, 64, 124
1, 174577, Note_off_c, 0, 32, 54
1, 174579, Note_off_c, 0, 56, 54
1, 174580, Control_c, 0, 64, 127
1, 174605, Note_on_c, 0, 52, 72
1, 174611, Note_off_c, 0, 40, 39
1, 174631, Note_off_c, 0, 52, 70
1, 174636, Note_off_c, 0, 59, 59
1, 174699, Control_c, 0, 64, 110
1, 174700, Note_on_c, 0, 44, 71
1, 174708, Note_on_c, 0, 62, 80
1, 174714, Control_c, 0, 64, 86
1, 174718, Note_on_c, 0, 50, 76
1, 174729, Control_c, 0, 64, 64
1, 174743, Control_c, 0, 64, 0
1, 174758, Control_c, 0, 64, 44
1, 174773, Control_c, 0, 64, 69
1, 174777, Note_off_c, 0, 50, 56
1, 174789, Control_c, 0, 64, 82
1, 174793, Note_on_c, 0, 40, 56
1, 174797, Note_on_c, 0, 53, 64
1, 174804, Control_c, 0, 64, 96
1, 174809, Note_on_c, 0, 58, 62
1, 174811, Note_off_c, 0, 62, 54
1, 174819, Control_c, 0, 64, 103
1, 174833, Control_c, 0, 64, 105
1, 174846, Note_off_c, 0, 53, 61
1, 174848, Control_c, 0, 64, 107
1, 174854, Note_off_c, 0, 44, 47
1, 174856, Note_on_c, 0, 32, 32
1, 174863, Control_c, 0, 64, 112
1, 174878, Control_c, 0, 64, 117
1, 174884, Note_on_c, 0, 50, 71
1, 174890, Note_off_c, 0, 40, 62
1, 174893, Control_c, 0, 64, 124
1, 174907, Control_c, 0, 64, 127
1, 174916, Note_off_c, 0, 32, 62
1, 174916, Note_off_c, 0, 58, 61
1, 174929, Note_off_c, 0, 50, 58
1, 175011, Control_c, 0, 64, 104
1, 175012, Note_on_c, 0, 61, 78
1, 175015, Note_on_c, 0, 41, 65
1, 175018, Note_on_c, 0, 29, 63
1, 175026, Control_c, 0, 64, 83
1, 175031, Note_on_c, 0, 49, 76
1, 175040, Control_c, 0, 64, 52
1, 175055, Control_c, 0, 64, 0
1, 175067, Note_off_c, 0, 41, 55
1, 175070, Control_c, 0, 64, 38
1, 175084, Control_c, 0, 64, 69
1, 175099, Control_c, 0, 64, 81
1, 175108, Note_off_c, 0, 49, 54
1, 175114, Control_c, 0, 64, 95
1, 175128, Note_on_c, 0, 56, 61
1, 175129, Control_c, 0, 64, 102
1, 175131, Note_on_c, 0, 53, 48
1, 175132, Note_on_c, 0, 32, 56
1, 175144, Control_c, 0, 64, 104
1, 175150, Note_off_c, 0, 61, 60
1, 175159, Control_c, 0, 64, 106
1, 175173, Control_c, 0, 64, 111
1, 175188, Control_c, 0, 64, 117
1, 175203, Control_c, 0, 64, 125
1, 175214, Note_off_c, 0, 29, 39
1, 175218, Control_c, 0, 64, 127
1, 175228, Note_on_c, 0, 49, 59
1, 175236, Note_off_c, 0, 56, 61
1, 175239, Note_off_c, 0, 53, 53
1, 175252, Note_off_c, 0, 32, 61
1, 175259, Note_on_c, 0, 41, 25
1, 175260, Note_off_c, 0, 49, 61
1, 175295, Note_off_c, 0, 41, 57
1, 175314, Control_c, 0, 64, 120
1, 175325, Note_on_c, 0, 28, 69
1, 175329, Control_c, 0, 64, 90
1, 175344, Control_c, 0, 64, 68
1, 175349, Note_on_c, 0, 57, 54
1, 175355, Note_on_c, 0, 53, 54
1, 175359, Control_c, 0, 64, 0
1, 175388, Control_c, 0, 64, 35
1, 175403, Control_c, 0, 64, 69
1, 175418, Control_c, 0, 64, 80
1, 175433, Control_c, 0, 64, 91
1, 175436, Note_on_c, 0, 62, 76
1, 175448, Control_c, 0, 64, 93
1, 175453, Note_off_c, 0, 57, 55
1, 175463, Control_c, 0, 64, 95
1, 175478, Control_c, 0, 64, 98
1, 175492, Control_c, 0, 64, 102
1, 175507, Control_c, 0, 64, 106
1, 175516, Poly_aftertouch_c, 0, 50, 127
1, 175522, Control_c, 0, 64, 109
1, 175531, Note_on_c, 0, 40, 53
1, 175537, Note_on_c, 0, 32, 56
1, 175537, Control_c, 0, 64, 110
1, 175552, Control_c, 0, 64, 111
1, 175560, Poly_aftertouch_c, 0, 50, 0
1, 175562, Note_on_c, 0, 57, 39
1, 175566, Control_c, 0, 64, 112
1, 175567, Note_off_c, 0, 40, 63
1, 175582, Control_c, 0, 64, 113
1, 175586, Note_off_c, 0, 53, 44
1, 175590, Note_off_c, 0, 32, 62
1, 175592, Note_off_c, 0, 57, 54
1, 175595, Note_off_c, 0, 62, 54
1, 175597, Control_c, 0, 64, 114
1, 175620, Note_off_c, 0, 28, 38
1, 175641, Control_c, 0, 64, 115
1, 175671, Control_c, 0, 64, 115
1, 175730, Control_c, 0, 64, 114
1, 175738, Note_on_c, 0, 64, 72
1, 175745, Control_c, 0, 64, 110
1, 175749, Note_on_c, 0, 61, 63
1, 175750, Note_on_c, 0, 25, 49
1, 175760, Control_c, 0, 64, 101
1, 175763, Note_on_c, 0, 37, 40
1, 175766, Note_on_c, 0, 32, 45
1, 175767, Note_on_c, 0, 52, 42
1, 175775, Control_c, 0, 64, 87
1, 175789, Control_c, 0, 64, 71
1, 175804, Control_c, 0, 64, 0
1, 175811, Note_off_c, 0, 52, 46
1, 175893, Control_c, 0, 64, 44
1, 175907, Control_c, 0, 64, 67
1, 175922, Control_c, 0, 64, 72
1, 175937, Control_c, 0, 64, 77
1, 175943, Note_off_c, 0, 64, 55
1, 175952, Control_c, 0, 64, 80
1, 175967, Control_c, 0, 64, 82
1, 175972, Note_off_c, 0, 61, 58
1, 175981, Control_c, 0, 64, 86
1, 175996, Control_c, 0, 64, 89
1, 176004, Note_off_c, 0, 25, 40
1, 176011, Control_c, 0, 64, 92
1, 176016, Note_off_c, 0, 37, 41
1, 176026, Control_c, 0, 64, 93
1, 176036, Note_off_c, 0, 32, 41
1, 176041, Control_c, 0, 64, 95
1, 176063, Control_c, 0, 64, 97
1, 176078, Control_c, 0, 64, 99
1, 176093, Control_c, 0, 64, 100
1, 176107, Control_c, 0, 64, 101
1, 176129, Note_on_c, 0, 50, 60
1, 176182, Control_c, 0, 64, 100
1, 176196, Control_c, 0, 64, 94
1, 176211, Control_c, 0, 64, 86
1, 176226, Control_c, 0, 64, 76
1, 176241, Control_c, 0, 64, 65
1, 176256, Control_c, 0, 64, 0
1, 176527, Note_on_c, 0, 49, 53
1, 176528, Note_on_c, 0, 46, 58
1, 176532, Note_on_c, 0, 41, 51
1, 176537, Note_on_c, 0, 34, 45
1, 176569, Note_off_c, 0, 41, 64
1, 176569, Note_off_c, 0, 46, 60
1, 176601, Note_off_c, 0, 50, 28
1, 177010, Note_on_c, 0, 43, 40
1, 177010, Note_on_c, 0, 40, 45
1, 177041, Note_off_c, 0, 40, 56
1, 177047, Note_off_c, 0, 43, 50
1, 177312, Note_on_c, 0, 50, 43
1, 177360, Note_off_c, 0, 49, 35
1, 177361, Control_c, 0, 64, 58
1, 177376, Control_c, 0, 64, 67
1, 177391, Control_c, 0, 64, 70
1, 177406, Control_c, 0, 64, 73
1, 177421, Control_c, 0, 64, 75
1, 177435, Control_c, 0, 64, 78
1, 177450, Control_c, 0, 64, 80
1, 177465, Control_c, 0, 64, 82
1, 177479, Control_c, 0, 64, 84
1, 177494, Control_c, 0, 64, 86
1, 177500, Note_off_c, 0, 34, 39
1, 177509, Control_c, 0, 64, 87
1, 177524, Control_c, 0, 64, 89
1, 177525, Note_off_c, 0, 50, 35
1, 177539, Control_c, 0, 64, 90
1, 177561, Control_c, 0, 64, 91
1, 177576, Control_c, 0, 64, 92
1, 177591, Control_c, 0, 64, 93
1, 177606, Control_c, 0, 64, 93
1, 177635, Control_c, 0, 64, 94
1, 177650, Control_c, 0, 64, 94
1, 177694, Control_c, 0, 64, 95
1, 177865, Note_on_c, 0, 47, 43
1, 177867, Note_on_c, 0, 52, 42
1, 177881, Note_on_c, 0, 32, 34
1, 177883, Note_on_c, 0, 44, 35
1, 177895, Note_on_c, 0, 38, 32
1, 177916, Control_c, 0, 64, 94
1, 177931, Control_c, 0, 64, 92
1, 177946, Control_c, 0, 64, 87
1, 177961, Control_c, 0, 64, 81
1, 177976, Control_c, 0, 64, 72
1, 177991, Control_c, 0, 64, 60
1, 178006, Control_c, 0, 64, 0
1, 178139, Control_c, 0, 64, 58
1, 178154, Control_c, 0, 64, 66
1, 178169, Control_c, 0, 64, 69
1, 178184, Control_c, 0, 64, 71
1, 178199, Control_c, 0, 64, 74
1, 178214, Control_c, 0, 64, 77
1, 178229, Control_c, 0, 64, 80
1, 178244, Control_c, 0, 64, 82
1, 178258, Control_c, 0, 64, 84
1, 178273, Control_c, 0, 64, 85
1, 178288, Control_c, 0, 64, 87
1, 178309, Control_c, 0, 64, 90
1, 178324, Control_c, 0, 64, 92
1, 178339, Control_c, 0, 64, 93
1, 178353, Note_off_c, 0, 44, 37
1, 178354, Control_c, 0, 64, 94
1, 178357, Note_off_c, 0, 32, 39
1, 178367, Note_off_c, 0, 47, 42
1, 178369, Note_off_c, 0, 38, 28
1, 178369, Control_c, 0, 64, 96
1, 178384, Control_c, 0, 64, 97
1, 178387, Note_off_c, 0, 52, 62
1, 178399, Control_c, 0, 64, 98
1, 178414, Control_c, 0, 64, 99
1, 178429, Control_c, 0, 64, 99
1, 178444, Control_c, 0, 64, 100
1, 178458, Control_c, 0, 64, 100
1, 178473, Control_c, 0, 64, 101
1, 178517, Control_c, 0, 64, 101
1, 178591, Control_c, 0, 64, 102
1, 178636, Control_c, 0, 64, 102
1, 178646, Note_on_c, 0, 33, 47
1, 178654, Note_on_c, 0, 45, 42
1, 178687, Note_off_c, 0, 33, 61
1, 178687, Note_off_c, 0, 45, 58
1, 178769, Control_c, 0, 64, 102
1, 178785, Control_c, 0, 64, 99
1, 178799, Control_c, 0, 64, 93
1, 178810, Note_on_c, 0, 62, 54
1, 178814, Control_c, 0, 64, 85
1, 178820, Note_on_c, 0, 32, 58
1, 178822, Note_on_c, 0, 53, 48
1, 178825, Note_on_c, 0, 50, 46
1, 178829, Control_c, 0, 64, 74
1, 178837, Note_on_c, 0, 44, 29
1, 178844, Control_c, 0, 64, 62
1, 178854, Note_off_c, 0, 50, 55
1, 178859, Control_c, 0, 64, 0
1, 178860, Note_off_c, 0, 53, 50
1, 178867, Note_off_c, 0, 62, 50
1, 178870, Note_off_c, 0, 32, 61
1, 178873, Note_off_c, 0, 44, 41
1, 178983, Note_on_c, 0, 62, 57
1, 178986, Note_on_c, 0, 53, 53
1, 178988, Note_on_c, 0, 41, 58
1, 178994, Note_on_c, 0, 50, 40
1, 178995, Note_on_c, 0, 29, 53
1, 179017, Note_off_c, 0, 62, 57
1, 179019, Note_off_c, 0, 41, 66
1, 179021, Note_off_c, 0, 50, 52
1, 179035, Note_off_c, 0, 29, 60
1, 179038, Note_off_c, 0, 53, 60
1, 179153, Note_on_c, 0, 61, 55
1, 179156, Note_on_c, 0, 49, 49
1, 179161, Note_on_c, 0, 53, 50
1, 179174, Note_on_c, 0, 40, 52
1, 179180, Note_on_c, 0, 28, 51
1, 179182, Note_off_c, 0, 49, 58
1, 179186, Note_off_c, 0, 53, 62
1, 179206, Note_off_c, 0, 40, 62
1, 179213, Note_off_c, 0, 28, 60
1, 179222, Note_off_c, 0, 61, 59
1, 179370, Control_c, 0, 64, 47
1, 179385, Control_c, 0, 64, 67
1, 179388, Note_on_c, 0, 25, 62
1, 179391, Note_on_c, 0, 62, 60
1, 179394, Note_on_c, 0, 37, 49
1, 179396, Note_on_c, 0, 53, 55
1, 179399, Control_c, 0, 64, 76
1, 179404, Note_on_c, 0, 59, 43
1, 179414, Control_c, 0, 64, 84
1, 179418, Note_off_c, 0, 53, 61
1, 179420, Note_off_c, 0, 25, 63
1, 179427, Note_off_c, 0, 37, 63
1, 179428, Note_off_c, 0, 59, 58
1, 179429, Control_c, 0, 64, 90
1, 179439, Note_off_c, 0, 62, 60
1, 179444, Control_c, 0, 64, 94
1, 179458, Control_c, 0, 64, 96
1, 179473, Control_c, 0, 64, 99
1, 179477, Poly_aftertouch_c, 0, 56, 0
1, 179488, Control_c, 0, 64, 102
1, 179503, Control_c, 0, 64, 105
1, 179518, Control_c, 0, 64, 107
1, 179532, Control_c, 0, 64, 109
1, 179547, Control_c, 0, 64, 111
1, 179562, Control_c, 0, 64, 112
1, 179578, Control_c, 0, 64, 114
1, 179593, Control_c, 0, 64, 115
1, 179608, Control_c, 0, 64, 117
1, 179622, Control_c, 0, 64, 118
1, 179637, Control_c, 0, 64, 119
1, 179652, Control_c, 0, 64, 120
1, 179663, Note_on_c, 0, 80, 61
1, 179667, Control_c, 0, 64, 121
1, 179681, Note_on_c, 0, 65, 53
1, 179681, Control_c, 0, 64, 121
1, 179693, Note_on_c, 0, 56, 41
1, 179700, Note_on_c, 0, 74, 45
1, 179704, Note_off_c, 0, 65, 64
1, 179711, Control_c, 0, 64, 122
1, 179724, Note_off_c, 0, 56, 53
1, 179761, Note_off_c, 0, 74, 0
1, 179779, Note_off_c, 0, 80, 58
1, 179785, Note_on_c, 0, 77, 70
1, 179791, Note_on_c, 0, 62, 50
1, 179803, Note_on_c, 0, 68, 62
1, 179817, Note_off_c, 0, 77, 66
1, 179818, Note_on_c, 0, 53, 57
1, 179821, Note_off_c, 0, 62, 61
1, 179836, Note_off_c, 0, 68, 66
1, 179840, Poly_aftertouch_c, 0, 74, 0
1, 179847, Note_off_c, 0, 53, 67
1, 180023, Note_on_c, 0, 68, 52
1, 180024, Note_on_c, 0, 53, 48
1, 180029, Note_on_c, 0, 44, 46
1, 180044, Note_on_c, 0, 62, 47
1, 180046, Note_off_c, 0, 53, 65
1, 180074, Note_off_c, 0, 44, 61
1, 180092, Note_off_c, 0, 68, 57
1, 180133, Note_on_c, 0, 65, 64
1, 180134, Note_on_c, 0, 50, 58
1, 180141, Note_on_c, 0, 56, 63
1, 180145, Note_off_c, 0, 62, 31
1, 180162, Note_off_c, 0, 50, 66
1, 180164, Note_off_c, 0, 65, 65
1, 180168, Note_on_c, 0, 41, 51
1, 180173, Note_off_c, 0, 56, 64
1, 180199, Note_off_c, 0, 41, 60
1, 180338, Note_on_c, 0, 45, 69
1, 180361, Note_on_c, 0, 33, 45
1, 180370, Note_off_c, 0, 45, 65
1, 180399, Note_off_c, 0, 33, 54
1, 180417, Control_c, 0, 64, 121
1, 180432, Control_c, 0, 64, 119
1, 180446, Control_c, 0, 64, 112
1, 180461, Note_on_c, 0, 44, 72
1, 180461, Control_c, 0, 64, 104
1, 180471, Note_on_c, 0, 53, 69
1, 180471, Note_on_c, 0, 62, 67
1, 180476, Note_on_c, 0, 50, 65
1, 180476, Control_c, 0, 64, 95
1, 180478, Note_on_c, 0, 32, 62
1, 180490, Note_off_c, 0, 44, 65
1, 180491, Control_c, 0, 64, 84
1, 180505, Control_c, 0, 64, 72
1, 180506, Note_off_c, 0, 50, 66
1, 180512, Note_off_c, 0, 32, 63
1, 180513, Note_off_c, 0, 62, 59
1, 180518, Note_off_c, 0, 53, 63
1, 180520, Control_c, 0, 64, 54
1, 180535, Control_c, 0, 64, 0
1, 180590, Note_on_c, 0, 41, 76
1, 180592, Note_on_c, 0, 50, 66
1, 180592, Note_on_c, 0, 62, 71
1, 180595, Note_on_c, 0, 53, 58
1, 180604, Note_on_c, 0, 29, 63
1, 180623, Note_off_c, 0, 62, 64
1, 180624, Note_off_c, 0, 41, 67
1, 180627, Note_off_c, 0, 50, 63
1, 180637, Note_off_c, 0, 29, 62
1, 180638, Note_off_c, 0, 53, 66
1, 180706, Note_on_c, 0, 50, 69
1, 180708, Note_on_c, 0, 53, 57
1, 180708, Note_on_c, 0, 61, 77
1, 180718, Note_on_c, 0, 37, 58
1, 180722, Note_on_c, 0, 25, 62
1, 180735, Note_off_c, 0, 50, 65
1, 180750, Note_off_c, 0, 37, 65
1, 180752, Note_off_c, 0, 53, 60
1, 180760, Note_off_c, 0, 25, 63
1, 180771, Note_off_c, 0, 61, 61
1, 180868, Control_c, 0, 64, 63
1, 180871, Note_on_c, 0, 35, 72
1, 180876, Note_on_c, 0, 53, 69
1, 180879, Note_on_c, 0, 23, 58
1, 180879, Note_on_c, 0, 50, 69
1, 180879, Note_on_c, 0, 62, 75
1, 180883, Control_c, 0, 64, 73
1, 180897, Control_c, 0, 64, 81
1, 180903, Note_off_c, 0, 53, 67
1, 180907, Note_off_c, 0, 50, 66
1, 180909, Note_off_c, 0, 35, 66
1, 180912, Control_c, 0, 64, 89
1, 180919, Note_off_c, 0, 23, 43
1, 180927, Control_c, 0, 64, 93
1, 180936, Note_off_c, 0, 62, 62
1, 180942, Control_c, 0, 64, 96
1, 180957, Control_c, 0, 64, 98
1, 180971, Control_c, 0, 64, 101
1, 180986, Control_c, 0, 64, 104
1, 181001, Control_c, 0, 64, 105
1, 181016, Control_c, 0, 64, 106
1, 181030, Control_c, 0, 64, 107
1, 181045, Control_c, 0, 64, 108
1, 181060, Control_c, 0, 64, 109
1, 181075, Control_c, 0, 64, 110
1, 181090, Control_c, 0, 64, 111
1, 181104, Control_c, 0, 64, 112
1, 181119, Control_c, 0, 64, 112
1, 181123, Note_on_c, 0, 81, 71
1, 181130, Note_on_c, 0, 74, 69
1, 181134, Control_c, 0, 64, 113
1, 181143, Note_on_c, 0, 57, 40
1, 181144, Note_on_c, 0, 65, 37
1, 181149, Control_c, 0, 64, 113
1, 181164, Control_c, 0, 64, 114
1, 181174, Note_off_c, 0, 65, 50
1, 181177, Note_off_c, 0, 74, 49
1, 181186, Note_off_c, 0, 57, 48
1, 181191, Note_off_c, 0, 81, 53
1, 181194, Control_c, 0, 64, 115
1, 181209, Control_c, 0, 64, 115
1, 181230, Note_on_c, 0, 77, 75
1, 181239, Control_c, 0, 64, 116
1, 181240, Note_on_c, 0, 69, 71
1, 181243, Note_on_c, 0, 62, 52
1, 181255, Note_on_c, 0, 53, 53
1, 181271, Note_off_c, 0, 62, 51
1, 181278, Note_off_c, 0, 77, 59
1, 181278, Note_off_c, 0, 53, 62
1, 181282, Note_off_c, 0, 69, 61
1, 181446, Note_on_c, 0, 69, 70
1, 181450, Note_on_c, 0, 62, 68
1, 181451, Note_on_c, 0, 45, 56
1, 181454, Note_on_c, 0, 53, 44
1, 181475, Note_off_c, 0, 53, 66
1, 181490, Note_off_c, 0, 62, 54
1, 181514, Note_off_c, 0, 45, 53
1, 181524, Note_off_c, 0, 69, 58
1, 181547, Note_on_c, 0, 50, 74
1, 181553, Note_on_c, 0, 65, 74
1, 181560, Note_on_c, 0, 57, 69
1, 181572, Note_off_c, 0, 50, 65
1, 181582, Note_on_c, 0, 41, 56
1, 181588, Note_off_c, 0, 57, 65
1, 181591, Note_off_c, 0, 65, 62
1, 181612, Note_off_c, 0, 41, 61
1, 181742, Note_on_c, 0, 45, 74
1, 181770, Note_on_c, 0, 33, 49
1, 181776, Note_off_c, 0, 45, 66
1, 181807, Note_off_c, 0, 33, 54
1, 181824, Control_c, 0, 64, 115
1, 181839, Control_c, 0, 64, 114
1, 181853, Control_c, 0, 64, 108
1, 181854, Note_on_c, 0, 44, 75
1, 181862, Note_on_c, 0, 62, 69
1, 181863, Note_on_c, 0, 53, 72
1, 181867, Note_on_c, 0, 32, 68
1, 181867, Note_on_c, 0, 50, 69
1, 181868, Control_c, 0, 64, 100
1, 181880, Note_off_c, 0, 44, 66
1, 181883, Control_c, 0, 64, 90
1, 181897, Note_off_c, 0, 32, 63
1, 181898, Note_off_c, 0, 50, 64
1, 181898, Control_c, 0, 64, 79
1, 181906, Note_off_c, 0, 62, 59
1, 181913, Control_c, 0, 64, 67
1, 181919, Note_off_c, 0, 53, 61
1, 181927, Control_c, 0, 64, 0
1, 181961, Note_on_c, 0, 53, 56
1, 181964, Note_on_c, 0, 41, 80
1, 181968, Note_on_c, 0, 50, 74
1, 181968, Note_on_c, 0, 62, 73
1, 181979, Note_on_c, 0, 29, 65
1, 181994, Note_off_c, 0, 50, 65
1, 181997, Note_off_c, 0, 62, 66
1, 181998, Note_off_c, 0, 41, 68
1, 182010, Note_off_c, 0, 53, 67
1, 182012, Note_off_c, 0, 29, 60
1, 182071, Note_on_c, 0, 50, 73
1, 182074, Note_on_c, 0, 61, 85
1, 182080, Note_on_c, 0, 37, 73
1, 182080, Note_on_c, 0, 53, 59
1, 182086, Note_on_c, 0, 25, 71
1, 182106, Note_off_c, 0, 50, 62
1, 182107, Note_off_c, 0, 37, 65
1, 182125, Note_off_c, 0, 53, 60
1, 182133, Note_off_c, 0, 61, 62
1, 182138, Note_off_c, 0, 25, 62
1, 182202, Control_c, 0, 64, 58
1, 182211, Note_on_c, 0, 34, 88
1, 182214, Note_on_c, 0, 22, 78
1, 182216, Note_on_c, 0, 62, 82
1, 182217, Note_on_c, 0, 50, 77
1, 182217, Control_c, 0, 64, 69
1, 182219, Note_on_c, 0, 53, 63
1, 182226, Note_on_c, 0, 58, 68
1, 182232, Control_c, 0, 64, 75
1, 182235, Note_off_c, 0, 22, 64
1, 182244, Note_off_c, 0, 50, 67
1, 182245, Note_off_c, 0, 34, 63
1, 182246, Note_off_c, 0, 53, 68
1, 182247, Control_c, 0, 64, 84
1, 182260, Note_off_c, 0, 58, 65
1, 182262, Control_c, 0, 64, 90
1, 182273, Note_off_c, 0, 62, 62
1, 182276, Control_c, 0, 64, 96
1, 182291, Control_c, 0, 64, 99
1, 182306, Control_c, 0, 64, 102
1, 182321, Control_c, 0, 64, 106
1, 182336, Control_c, 0, 64, 109
1, 182350, Control_c, 0, 64, 111
1, 182365, Control_c, 0, 64, 113
1, 182380, Control_c, 0, 64, 115
1, 182395, Control_c, 0, 64, 118
1, 182410, Control_c, 0, 64, 123
1, 182424, Control_c, 0, 64, 127
1, 182438, Note_on_c, 0, 73, 71
1, 182439, Note_on_c, 0, 65, 67
1, 182445, Note_on_c, 0, 58, 59
1, 182467, Note_off_c, 0, 65, 68
1, 182478, Note_off_c, 0, 58, 59
1, 182486, Note_on_c, 0, 80, 14
1, 182506, Note_off_c, 0, 73, 63
1, 182531, Note_off_c, 0, 80, 50
1, 182545, Note_on_c, 0, 77, 73
1, 182549, Note_on_c, 0, 62, 71
1, 182549, Note_on_c, 0, 70, 80
1, 182560, Note_on_c, 0, 53, 66
1, 182574, Note_off_c, 0, 62, 66
1, 182584, Note_off_c, 0, 53, 69
1, 182590, Note_off_c, 0, 77, 60
1, 182597, Note_off_c, 0, 70, 63
1, 182740, Note_on_c, 0, 53, 70
1, 182747, Note_on_c, 0, 46, 72
1, 182748, Note_on_c, 0, 70, 69
1, 182753, Note_on_c, 0, 62, 65
1, 182771, Note_off_c, 0, 53, 66
1, 182825, Note_off_c, 0, 46, 60
1, 182827, Note_off_c, 0, 62, 56
1, 182844, Note_off_c, 0, 70, 60
1, 182852, Note_on_c, 0, 50, 80
1, 182855, Note_on_c, 0, 58, 85
1, 182856, Note_on_c, 0, 65, 75
1, 182883, Note_on_c, 0, 41, 66
1, 182885, Note_off_c, 0, 50, 66
1, 182897, Note_off_c, 0, 65, 63
1, 182900, Note_off_c, 0, 58, 59
1, 182913, Note_off_c, 0, 41, 65
1, 183041, Note_on_c, 0, 45, 76
1, 183069, Note_on_c, 0, 33, 51
1, 183076, Note_off_c, 0, 45, 65
1, 183102, Note_off_c, 0, 33, 55
1, 183148, Note_on_c, 0, 44, 82
1, 183150, Note_on_c, 0, 53, 79
1, 183150, Note_on_c, 0, 62, 77
1, 183155, Note_on_c, 0, 50, 76
1, 183159, Note_on_c, 0, 38, 31
1, 183161, Note_on_c, 0, 32, 74
1, 183171, Note_off_c, 0, 44, 66
1, 183173, Control_c, 0, 64, 118
1, 183184, Note_off_c, 0, 50, 65
1, 183186, Note_off_c, 0, 32, 64
1, 183188, Control_c, 0, 64, 103
1, 183197, Note_off_c, 0, 62, 61
1, 183199, Note_off_c, 0, 38, 45
1, 183203, Control_c, 0, 64, 92
1, 183204, Note_off_c, 0, 53, 64
1, 183218, Control_c, 0, 64, 80
1, 183233, Control_c, 0, 64, 68
1, 183246, Poly_aftertouch_c, 0, 53, 0
1, 183248, Control_c, 0, 64, 0
1, 183252, Note_on_c, 0, 53, 72
1, 183253, Note_on_c, 0, 50, 84
1, 183255, Note_on_c, 0, 62, 76
1, 183255, Note_on_c, 0, 41, 85
1, 183271, Note_on_c, 0, 29, 67
1, 183283, Note_off_c, 0, 50, 62
1, 183287, Note_off_c, 0, 62, 62
1, 183287, Note_off_c, 0, 41, 68
1, 183302, Note_off_c, 0, 29, 62
1, 183303, Note_off_c, 0, 53, 61
1, 183305, Note_on_c, 0, 57, 25
1, 183350, Note_on_c, 0, 50, 85
1, 183351, Note_on_c, 0, 53, 64
1, 183356, Note_on_c, 0, 61, 85
1, 183358, Note_on_c, 0, 37, 81
1, 183368, Note_on_c, 0, 25, 71
1, 183387, Note_off_c, 0, 37, 68
1, 183392, Note_on_c, 0, 27, 36
1, 183395, Note_off_c, 0, 50, 63
1, 183399, Note_off_c, 0, 57, 25
1, 183409, Note_off_c, 0, 25, 64
1, 183414, Note_off_c, 0, 61, 63
1, 183417, Note_off_c, 0, 53, 63
1, 183428, Note_off_c, 0, 27, 45
1, 183495, Note_on_c, 0, 53, 87
1, 183496, Note_on_c, 0, 50, 91
1, 183497, Note_on_c, 0, 33, 95
1, 183499, Control_c, 0, 64, 66
1, 183501, Note_on_c, 0, 21, 80
1, 183502, Note_on_c, 0, 62, 81
1, 183514, Control_c, 0, 64, 72
1, 183517, Note_off_c, 0, 50, 72
1, 183522, Note_off_c, 0, 21, 62
1, 183529, Control_c, 0, 64, 78
1, 183533, Note_off_c, 0, 53, 67
1, 183550, Note_off_c, 0, 33, 67
1, 183552, Control_c, 0, 64, 84
1, 183567, Control_c, 0, 64, 91
1, 183571, Note_off_c, 0, 62, 63
1, 183583, Control_c, 0, 64, 95
1, 183597, Control_c, 0, 64, 99
1, 183612, Control_c, 0, 64, 102
1, 183627, Control_c, 0, 64, 104
1, 183642, Control_c, 0, 64, 106
1, 183657, Control_c, 0, 64, 107
1, 183671, Control_c, 0, 64, 109
1, 183686, Control_c, 0, 64, 111
1, 183701, Control_c, 0, 64, 115
1, 183716, Control_c, 0, 64, 119
1, 183730, Control_c, 0, 64, 123
1, 183741, Note_on_c, 0, 74, 94
1, 183745, Note_on_c, 0, 83, 88
1, 183745, Control_c, 0, 64, 127
1, 183756, Note_on_c, 0, 65, 68
1, 183760, Control_c, 0, 64, 127
1, 183774, Note_on_c, 0, 59, 44
1, 183782, Note_off_c, 0, 65, 69
1, 183782, Note_off_c, 0, 74, 66
1, 183845, Note_on_c, 0, 77, 91
1, 183848, Note_on_c, 0, 71, 88
1, 183849, Note_off_c, 0, 83, 41
1, 183851, Note_on_c, 0, 62, 68
1, 183864, Note_off_c, 0, 59, 61
1, 183878, Note_off_c, 0, 62, 67
1, 183887, Note_off_c, 0, 77, 63
1, 183893, Note_off_c, 0, 71, 62
1, 183902, Note_on_c, 0, 53, 8
1, 183944, Note_off_c, 0, 53, 42
1, 184039, Note_on_c, 0, 62, 86
1, 184040, Note_on_c, 0, 71, 84
1, 184045, Note_on_c, 0, 53, 60
1, 184056, Note_on_c, 0, 47, 72
1, 184071, Note_off_c, 0, 53, 70
1, 184095, Note_off_c, 0, 62, 61
1, 184119, Note_off_c, 0, 71, 57
1, 184134, Note_on_c, 0, 50, 89
1, 184141, Note_on_c, 0, 65, 82
1, 184143, Note_on_c, 0, 59, 85
1, 184158, Note_on_c, 0, 41, 72
1, 184162, Note_off_c, 0, 50, 68
1, 184163, Note_off_c, 0, 47, 58
1, 184184, Note_off_c, 0, 59, 62
1, 184184, Note_off_c, 0, 65, 66
1, 184188, Note_off_c, 0, 41, 67
1, 184328, Note_on_c, 0, 45, 82
1, 184366, Note_off_c, 0, 45, 64
1, 184380, Note_on_c, 0, 33, 22
1, 184421, Note_off_c, 0, 33, 52
1, 184444, Note_on_c, 0, 44, 85
1, 184444, Note_on_c, 0, 53, 78
1, 184445, Note_on_c, 0, 62, 75
1, 184446, Note_on_c, 0, 50, 79
1, 184448, Note_on_c, 0, 32, 79
1, 184465, Control_c, 0, 64, 123
1, 184470, Note_off_c, 0, 44, 65
1, 184477, Note_off_c, 0, 50, 66
1, 184479, Control_c, 0, 64, 108
1, 184484, Note_off_c, 0, 62, 62
1, 184486, Note_off_c, 0, 32, 65
1, 184494, Control_c, 0, 64, 96
1, 184501, Note_off_c, 0, 53, 63
1, 184509, Control_c, 0, 64, 83
1, 184524, Control_c, 0, 64, 68
1, 184536, Note_on_c, 0, 57, 9
1, 184537, Poly_aftertouch_c, 0, 53, 0
1, 184537, Note_off_c, 0, 57, 0
1, 184539, Control_c, 0, 64, 0
1, 184543, Note_on_c, 0, 53, 68
1, 184545, Note_on_c, 0, 50, 84
1, 184548, Note_on_c, 0, 41, 86
1, 184552, Note_on_c, 0, 61, 84
1, 184577, Note_off_c, 0, 50, 62
1, 184583, Note_off_c, 0, 41, 66
1, 184595, Note_off_c, 0, 61, 61
1, 184596, Poly_aftertouch_c, 0, 57, 0
1, 184599, Note_off_c, 0, 53, 63
1, 184644, Note_on_c, 0, 61, 84
1, 184647, Note_on_c, 0, 50, 87
1, 184654, Note_on_c, 0, 53, 65
1, 184657, Note_on_c, 0, 37, 86
1, 184667, Note_on_c, 0, 25, 73
1, 184686, Note_off_c, 0, 37, 68
1, 184686, Note_off_c, 0, 53, 68
1, 184688, Note_off_c, 0, 50, 64
1, 184709, Note_off_c, 0, 61, 63
1, 184712, Note_off_c, 0, 25, 56
1, 184794, Note_on_c, 0, 34, 96
1, 184796, Note_on_c, 0, 62, 92
1, 184796, Note_on_c, 0, 60, 82
1, 184798, Note_on_c, 0, 50, 92
1, 184799, Note_on_c, 0, 22, 85
1, 184804, Control_c, 0, 64, 67
1, 184809, Note_on_c, 0, 56, 72
1, 184818, Control_c, 0, 64, 76
1, 184822, Note_off_c, 0, 50, 68
1, 184832, Note_off_c, 0, 56, 66
1, 184832, Note_off_c, 0, 22, 64
1, 184833, Control_c, 0, 64, 86
1, 184841, Note_off_c, 0, 60, 62
1, 184842, Note_off_c, 0, 34, 63
1, 184848, Note_off_c, 0, 62, 62
1, 184848, Control_c, 0, 64, 94
1, 184862, Control_c, 0, 64, 101
1, 184877, Control_c, 0, 64, 108
1, 184892, Control_c, 0, 64, 112
1, 184907, Control_c, 0, 64, 116
1, 184922, Control_c, 0, 64, 119
1, 184936, Control_c, 0, 64, 123
1, 184951, Control_c, 0, 64, 126
1, 184966, Control_c, 0, 64, 127
1, 185053, Note_on_c, 0, 77, 97
1, 185056, Note_on_c, 0, 65, 75
1, 185056, Note_on_c, 0, 84, 89
1, 185066, Note_on_c, 0, 56, 64
1, 185082, Note_off_c, 0, 65, 68
1, 185094, Note_off_c, 0, 77, 62
1, 185096, Note_off_c, 0, 56, 63
1, 185169, Note_on_c, 0, 80, 88
1, 185171, Note_on_c, 0, 72, 81
1, 185173, Note_on_c, 0, 62, 73
1, 185177, Note_off_c, 0, 84, 63
1, 185180, Note_on_c, 0, 53, 74
1, 185193, Note_off_c, 0, 62, 66
1, 185206, Note_off_c, 0, 53, 68
1, 185219, Note_off_c, 0, 72, 65
1, 185219, Note_off_c, 0, 80, 66
1, 185354, Note_on_c, 0, 53, 77
1, 185357, Note_on_c, 0, 65, 87
1, 185357, Note_on_c, 0, 72, 86
1, 185362, Note_on_c, 0, 44, 71
1, 185388, Note_off_c, 0, 53, 64
1, 185406, Note_off_c, 0, 65, 65
1, 185409, Note_off_c, 0, 44, 60
1, 185443, Note_off_c, 0, 72, 60
1, 185461, Note_on_c, 0, 68, 91
1, 185462, Note_on_c, 0, 60, 89
1, 185463, Note_on_c, 0, 50, 83
1, 185484, Note_on_c, 0, 41, 77
1, 185496, Note_off_c, 0, 50, 65
1, 185500, Note_off_c, 0, 60, 63
1, 185500, Note_off_c, 0, 68, 66
1, 185520, Note_off_c, 0, 41, 66
1, 185640, Note_on_c, 0, 45, 84
1, 185671, Note_on_c, 0, 33, 56
1, 185686, Note_off_c, 0, 45, 62
1, 185702, Note_off_c, 0, 33, 57
1, 185754, Note_on_c, 0, 53, 75
1, 185754, Note_on_c, 0, 62, 80
1, 185755, Note_on_c, 0, 44, 84
1, 185757, Note_on_c, 0, 50, 83
1, 185762, Note_on_c, 0, 32, 81
1, 185778, Note_on_c, 0, 38, 21
1, 185792, Note_off_c, 0, 44, 64
1, 185796, Note_off_c, 0, 50, 61
1, 185808, Note_off_c, 0, 32, 64
1, 185815, Note_off_c, 0, 62, 63
1, 185816, Note_off_c, 0, 53, 64
1, 185824, Note_off_c, 0, 38, 53
1, 185842, Control_c, 0, 64, 116
1, 185857, Control_c, 0, 64, 103
1, 185860, Note_on_c, 0, 53, 74
1, 185865, Note_on_c, 0, 50, 84
1, 185866, Note_on_c, 0, 41, 89
1, 185872, Control_c, 0, 64, 91
1, 185881, Note_on_c, 0, 29, 73
1, 185887, Control_c, 0, 64, 78
1, 185899, Note_off_c, 0, 50, 65
1, 185901, Note_off_c, 0, 41, 66
1, 185901, Control_c, 0, 64, 64
1, 185908, Note_off_c, 0, 29, 64
1, 185916, Control_c, 0, 64, 0
1, 185927, Note_off_c, 0, 53, 61
1, 185969, Note_on_c, 0, 53, 54
1, 185973, Note_on_c, 0, 61, 88
1, 185975, Note_on_c, 0, 50, 70
1, 185977, Note_on_c, 0, 37, 87
1, 185985, Note_on_c, 0, 25, 74
1, 186006, Note_off_c, 0, 37, 69
1, 186013, Note_off_c, 0, 50, 64
1, 186018, Note_off_c, 0, 53, 64
1, 186031, Note_off_c, 0, 61, 62
1, 186039, Note_off_c, 0, 25, 61
1, 186108, Note_on_c, 0, 62, 89
1, 186109, Note_on_c, 0, 50, 99
1, 186110, Control_c, 0, 64, 64
1, 186112, Note_on_c, 0, 34, 97
1, 186114, Note_on_c, 0, 22, 89
1, 186117, Note_on_c, 0, 61, 78
1, 186123, Note_on_c, 0, 56, 67
1, 186124, Control_c, 0, 64, 74
1, 186131, Note_off_c, 0, 50, 70
1, 186139, Control_c, 0, 64, 83
1, 186140, Note_on_c, 0, 58, 37
1, 186141, Note_off_c, 0, 58, 127
1, 186146, Note_off_c, 0, 22, 64
1, 186150, Note_off_c, 0, 56, 65
1, 186154, Control_c, 0, 64, 91
1, 186155, Note_off_c, 0, 34, 64
1, 186157, Note_off_c, 0, 62, 63
1, 186165, Note_off_c, 0, 61, 61
1, 186169, Control_c, 0, 64, 97
1, 186184, Control_c, 0, 64, 104
1, 186198, Control_c, 0, 64, 111
1, 186214, Control_c, 0, 64, 115
1, 186229, Control_c, 0, 64, 119
1, 186243, Control_c, 0, 64, 124
1, 186258, Control_c, 0, 64, 127
1, 186378, Note_on_c, 0, 80, 87
1, 186379, Note_on_c, 0, 56, 65
1, 186380, Note_on_c, 0, 85, 79
1, 186387, Note_on_c, 0, 61, 74
1, 186396, Note_off_c, 0, 80, 70
1, 186433, Note_off_c, 0, 61, 58
1, 186436, Note_off_c, 0, 56, 60
1, 186458, Note_off_c, 0, 85, 59
1, 186491, Note_on_c, 0, 80, 94
1, 186495, Note_on_c, 0, 61, 80
1, 186503, Note_on_c, 0, 74, 64
1, 186504, Note_on_c, 0, 59, 65
1, 186512, Note_on_c, 0, 56, 56
1, 186541, Note_off_c, 0, 80, 64
1, 186542, Note_off_c, 0, 74, 62
1, 186546, Note_off_c, 0, 59, 60
1, 186552, Note_off_c, 0, 61, 61
1, 186562, Note_off_c, 0, 56, 59
1, 186606, Poly_aftertouch_c, 0, 76, 0
1, 186705, Note_on_c, 0, 61, 64
1, 186705, Note_on_c, 0, 73, 74
1, 186707, Note_on_c, 0, 68, 71
1, 186713, Note_on_c, 0, 59, 60
1, 186731, Note_on_c, 0, 56, 31
1, 186733, Note_off_c, 0, 68, 68
1, 186735, Note_off_c, 0, 61, 63
1, 186756, Note_off_c, 0, 59, 58
1, 186768, Note_off_c, 0, 56, 46
1, 186779, Note_off_c, 0, 73, 60
1, 186805, Note_on_c, 0, 61, 72
1, 186808, Note_on_c, 0, 68, 77
1, 186816, Note_on_c, 0, 62, 70
1, 186829, Note_off_c, 0, 61, 65
1, 186839, Note_on_c, 0, 56, 19
1, 186844, Note_off_c, 0, 68, 62
1, 186850, Note_off_c, 0, 62, 63
1, 186875, Note_off_c, 0, 56, 41
1, 186933, Control_c, 0, 64, 119
1, 186948, Control_c, 0, 64, 112
1, 186962, Control_c, 0, 64, 106
1, 186977, Note_on_c, 0, 45, 72
1, 186977, Control_c, 0, 64, 98
1, 186992, Control_c, 0, 64, 90
1, 187007, Control_c, 0, 64, 80
1, 187011, Note_off_c, 0, 45, 65
1, 187015, Note_on_c, 0, 33, 29
1, 187021, Control_c, 0, 64, 71
1, 187036, Control_c, 0, 64, 61
1, 187051, Control_c, 0, 64, 21
1, 187061, Note_off_c, 0, 33, 45
1, 187065, Control_c, 0, 64, 0
1, 187080, Control_c, 0, 64, 13
1, 187095, Control_c, 0, 64, 21
1, 187097, Note_on_c, 0, 44, 77
1, 187109, Note_on_c, 0, 32, 64
1, 187110, Control_c, 0, 64, 16
1, 187116, Note_on_c, 0, 60, 39
1, 187125, Note_off_c, 0, 44, 65
1, 187125, Control_c, 0, 64, 10
1, 187139, Control_c, 0, 64, 0
1, 187141, Note_off_c, 0, 32, 62
1, 187210, Note_on_c, 0, 43, 70
1, 187213, Note_on_c, 0, 59, 58
1, 187219, Note_on_c, 0, 31, 58
1, 187236, Note_off_c, 0, 43, 64
1, 187249, Note_off_c, 0, 31, 55
1, 187252, Note_off_c, 0, 60, 36
1, 187295, Note_off_c, 0, 59, 58
1, 187311, Note_on_c, 0, 58, 60
1, 187319, Note_on_c, 0, 42, 66
1, 187321, Note_on_c, 0, 30, 68
1, 187325, Control_c, 0, 64, 10
1, 187342, Note_off_c, 0, 58, 66
1, 187348, Note_off_c, 0, 42, 63
1, 187349, Note_off_c, 0, 30, 63
1, 187354, Control_c, 0, 64, 13
1, 187369, Control_c, 0, 64, 18
1, 187384, Control_c, 0, 64, 25
1, 187398, Control_c, 0, 64, 31
1, 187410, Note_on_c, 0, 41, 75
1, 187413, Control_c, 0, 64, 32
1, 187416, Note_on_c, 0, 62, 71
1, 187419, Note_on_c, 0, 50, 71
1, 187420, Note_on_c, 0, 29, 66
1, 187428, Control_c, 0, 64, 29
1, 187429, Note_on_c, 0, 57, 58
1, 187437, Note_off_c, 0, 41, 68
1, 187443, Control_c, 0, 64, 26
1, 187453, Note_off_c, 0, 29, 61
1, 187462, Note_off_c, 0, 50, 53
1, 187488, Control_c, 0, 64, 28
1, 187502, Control_c, 0, 64, 29
1, 187505, Note_on_c, 0, 56, 72
1, 187507, Note_off_c, 0, 57, 55
1, 187519, Note_on_c, 0, 40, 70
1, 187524, Note_on_c, 0, 28, 60
1, 187528, Note_off_c, 0, 62, 44
1, 187534, Note_off_c, 0, 56, 68
1, 187543, Note_off_c, 0, 40, 60
1, 187555, Note_off_c, 0, 28, 54
1, 187577, Control_c, 0, 64, 30
1, 187592, Control_c, 0, 64, 31
1, 187621, Note_on_c, 0, 74, 79
1, 187622, Control_c, 0, 64, 27
1, 187623, Note_on_c, 0, 41, 71
1, 187629, Note_on_c, 0, 29, 52
1, 187630, Note_on_c, 0, 62, 78
1, 187632, Note_on_c, 0, 69, 69
1, 187637, Control_c, 0, 64, 21
1, 187646, Note_on_c, 0, 64, 43
1, 187650, Note_off_c, 0, 41, 66
1, 187666, Note_off_c, 0, 29, 48
1, 187666, Control_c, 0, 64, 23
1, 187673, Note_off_c, 0, 62, 0
1, 187673, Note_off_c, 0, 64, 37
1, 187681, Control_c, 0, 64, 27
1, 187696, Control_c, 0, 64, 28
1, 187708, Note_on_c, 0, 68, 76
1, 187721, Poly_aftertouch_c, 0, 62, 0
1, 187722, Note_on_c, 0, 28, 64
1, 187728, Note_on_c, 0, 40, 56
1, 187729, Note_off_c, 0, 69, 55
1, 187747, Note_off_c, 0, 74, 62
1, 187750, Note_off_c, 0, 68, 65
1, 187754, Note_off_c, 0, 28, 63
1, 187757, Note_off_c, 0, 40, 56
1, 187785, Control_c, 0, 64, 29
1, 187822, Note_on_c, 0, 41, 73
1, 187824, Note_on_c, 0, 74, 91
1, 187826, Note_on_c, 0, 86, 87
1, 187827, Note_on_c, 0, 29, 53
1, 187829, Note_on_c, 0, 81, 86
1, 187830, Control_c, 0, 64, 30
1, 187844, Control_c, 0, 64, 31
1, 187851, Note_off_c, 0, 41, 67
1, 187859, Control_c, 0, 64, 34
1, 187862, Note_off_c, 0, 29, 62
1, 187874, Control_c, 0, 64, 36
1, 187888, Control_c, 0, 64, 39
1, 187903, Control_c, 0, 64, 39
1, 187911, Note_on_c, 0, 80, 79
1, 187913, Note_on_c, 0, 40, 52
1, 187918, Control_c, 0, 64, 41
1, 187919, Note_off_c, 0, 81, 61
1, 187928, Note_on_c, 0, 28, 69
1, 187928, Note_off_c, 0, 74, 65
1, 187933, Control_c, 0, 64, 42
1, 187948, Control_c, 0, 64, 43
1, 187950, Note_off_c, 0, 40, 65
1, 187956, Note_off_c, 0, 28, 60
1, 187956, Note_off_c, 0, 80, 65
1, 187959, Note_off_c, 0, 86, 61
1, 187962, Control_c, 0, 64, 44
1, 187977, Control_c, 0, 64, 45
1, 188006, Control_c, 0, 64, 45
1, 188021, Control_c, 0, 64, 48
1, 188030, Note_on_c, 0, 46, 87
1, 188043, Note_on_c, 0, 86, 100
1, 188044, Note_on_c, 0, 98, 91
1, 188044, Control_c, 0, 64, 53
1, 188047, Note_on_c, 0, 94, 93
1, 188049, Note_on_c, 0, 34, 58
1, 188059, Control_c, 0, 64, 56
1, 188060, Note_off_c, 0, 98, 74
1, 188064, Note_off_c, 0, 94, 73
1, 188065, Note_off_c, 0, 46, 64
1, 188066, Note_off_c, 0, 86, 67
1, 188078, Note_off_c, 0, 34, 63
1, 188080, Note_on_c, 0, 97, 30
1, 188081, Note_off_c, 0, 97, 127
1, 188088, Control_c, 0, 64, 56
1, 188103, Control_c, 0, 64, 55
1, 188118, Control_c, 0, 64, 54
1, 188133, Control_c, 0, 64, 53
1, 188143, Note_on_c, 0, 45, 72
1, 188148, Control_c, 0, 64, 52
1, 188172, Note_on_c, 0, 33, 40
1, 188177, Control_c, 0, 64, 53
1, 188179, Note_off_c, 0, 45, 68
1, 188192, Control_c, 0, 64, 53
1, 188209, Note_off_c, 0, 33, 47
1, 188227, Poly_aftertouch_c, 0, 38, 127
1, 188253, Note_on_c, 0, 44, 65
1, 188255, Note_on_c, 0, 32, 72
1, 188281, Control_c, 0, 64, 52
1, 188285, Note_off_c, 0, 32, 63
1, 188285, Note_off_c, 0, 44, 65
1, 188288, Poly_aftertouch_c, 0, 38, 0
1, 188295, Control_c, 0, 64, 52
1, 188325, Control_c, 0, 64, 52
1, 188354, Note_on_c, 0, 41, 81
1, 188355, Control_c, 0, 64, 51
1, 188362, Note_on_c, 0, 61, 63
1, 188367, Note_on_c, 0, 29, 60
1, 188369, Note_on_c, 0, 52, 63
1, 188371, Control_c, 0, 64, 50
1, 188374, Note_on_c, 0, 56, 57
1, 188385, Note_off_c, 0, 41, 67
1, 188399, Note_off_c, 0, 29, 58
1, 188400, Control_c, 0, 64, 49
1, 188412, Note_off_c, 0, 56, 60
1, 188415, Control_c, 0, 64, 48
1, 188430, Control_c, 0, 64, 47
1, 188444, Control_c, 0, 64, 46
1, 188450, Note_on_c, 0, 40, 81
1, 188459, Control_c, 0, 64, 46
1, 188462, Note_on_c, 0, 28, 71
1, 188474, Control_c, 0, 64, 45
1, 188479, Note_off_c, 0, 40, 65
1, 188489, Control_c, 0, 64, 43
1, 188494, Note_off_c, 0, 28, 63
1, 188516, Note_off_c, 0, 52, 0
1, 188516, Note_on_c, 0, 52, 19
1, 188528, Note_on_c, 0, 64, 62
1, 188534, Control_c, 0, 64, 42
1, 188548, Note_on_c, 0, 25, 80
1, 188549, Control_c, 0, 64, 42
1, 188558, Note_off_c, 0, 61, 59
1, 188559, Note_on_c, 0, 37, 64
1, 188564, Note_off_c, 0, 64, 64
1, 188564, Control_c, 0, 64, 41
1, 188571, Note_off_c, 0, 52, 65
1, 188576, Note_off_c, 0, 25, 65
1, 188583, Note_off_c, 0, 37, 59
1, 188593, Control_c, 0, 64, 42
1, 188608, Control_c, 0, 64, 43
1, 188623, Control_c, 0, 64, 45
1, 188645, Note_on_c, 0, 41, 81
1, 188652, Note_on_c, 0, 29, 70
1, 188660, Note_on_c, 0, 57, 64
1, 188660, Note_on_c, 0, 62, 62
1, 188661, Note_on_c, 0, 50, 70
1, 188667, Control_c, 0, 64, 44
1, 188676, Note_off_c, 0, 41, 67
1, 188682, Control_c, 0, 64, 45
1, 188683, Note_off_c, 0, 29, 61
1, 188697, Control_c, 0, 64, 46
1, 188703, Note_off_c, 0, 50, 55
1, 188711, Control_c, 0, 64, 47
1, 188726, Control_c, 0, 64, 48
1, 188741, Control_c, 0, 64, 47
1, 188746, Note_on_c, 0, 56, 67
1, 188748, Note_off_c, 0, 57, 60
1, 188758, Note_off_c, 0, 62, 59
1, 188760, Note_on_c, 0, 28, 67
1, 188771, Note_off_c, 0, 56, 65
1, 188771, Control_c, 0, 64, 47
1, 188772, Note_on_c, 0, 40, 51
1, 188797, Note_off_c, 0, 28, 61
1, 188808, Control_c, 0, 64, 46
1, 188809, Note_off_c, 0, 40, 55
1, 188810, Note_on_c, 0, 38, 3
1, 188811, Note_off_c, 0, 38, 127
1, 188823, Control_c, 0, 64, 46
1, 188837, Control_c, 0, 64, 45
1, 188852, Control_c, 0, 64, 44
1, 188854, Note_on_c, 0, 74, 88
1, 188857, Note_on_c, 0, 41, 86
1, 188857, Note_on_c, 0, 62, 87
1, 188859, Note_on_c, 0, 69, 81
1, 188860, Note_on_c, 0, 29, 72
1, 188882, Control_c, 0, 64, 43
1, 188886, Note_off_c, 0, 41, 69
1, 188888, Note_off_c, 0, 29, 63
1, 188897, Control_c, 0, 64, 43
1, 188898, Note_on_c, 0, 34, 10
1, 188899, Note_off_c, 0, 34, 127
1, 188918, Note_off_c, 0, 69, 0
1, 188926, Control_c, 0, 64, 44
1, 188940, Note_on_c, 0, 68, 77
1, 188951, Note_on_c, 0, 69, 19
1, 188952, Note_off_c, 0, 62, 60
1, 188955, Note_on_c, 0, 40, 73
1, 188962, Note_off_c, 0, 69, 46
1, 188969, Note_off_c, 0, 74, 62
1, 188971, Control_c, 0, 64, 43
1, 188972, Note_on_c, 0, 38, 49
1, 188973, Note_on_c, 0, 28, 50
1, 188977, Note_off_c, 0, 68, 66
1, 188981, Note_on_c, 0, 26, 35
1, 188985, Control_c, 0, 64, 43
1, 188987, Note_off_c, 0, 40, 65
1, 189003, Note_off_c, 0, 38, 47
1, 189009, Note_off_c, 0, 28, 46
1, 189024, Note_off_c, 0, 26, 30
1, 189030, Control_c, 0, 64, 43
1, 189044, Control_c, 0, 64, 44
1, 189050, Note_on_c, 0, 41, 87
1, 189051, Note_on_c, 0, 74, 98
1, 189053, Note_on_c, 0, 86, 90
1, 189053, Note_on_c, 0, 29, 63
1, 189053, Note_on_c, 0, 81, 92
1, 189079, Note_off_c, 0, 41, 69
1, 189083, Note_on_c, 0, 34, 25
1, 189084, Note_off_c, 0, 34, 127
1, 189089, Control_c, 0, 64, 45
1, 189090, Note_off_c, 0, 29, 60
1, 189100, Note_off_c, 0, 81, 0
1, 189104, Control_c, 0, 64, 45
1, 189118, Control_c, 0, 64, 46
1, 189133, Control_c, 0, 64, 46
1, 189134, Note_on_c, 0, 80, 84
1, 189137, Poly_aftertouch_c, 0, 81, 127
1, 189147, Note_on_c, 0, 81, 6
1, 189148, Control_c, 0, 64, 47
1, 189151, Note_on_c, 0, 40, 79
1, 189160, Note_off_c, 0, 74, 61
1, 189161, Note_on_c, 0, 28, 63
1, 189161, Note_off_c, 0, 81, 58
1, 189164, Control_c, 0, 64, 47
1, 189179, Control_c, 0, 64, 48
1, 189184, Note_off_c, 0, 40, 65
1, 189184, Note_off_c, 0, 80, 66
1, 189189, Note_off_c, 0, 86, 61
1, 189191, Note_off_c, 0, 28, 60
1, 189223, Control_c, 0, 64, 47
1, 189253, Control_c, 0, 64, 48
1, 189265, Note_on_c, 0, 46, 76
1, 189267, Note_on_c, 0, 34, 73
1, 189267, Control_c, 0, 64, 50
1, 189269, Note_on_c, 0, 86, 93
1, 189271, Note_on_c, 0, 98, 90
1, 189273, Note_on_c, 0, 94, 91
1, 189282, Control_c, 0, 64, 51
1, 189288, Note_on_c, 0, 44, 41
1, 189288, Note_off_c, 0, 94, 75
1, 189289, Note_off_c, 0, 98, 72
1, 189292, Note_off_c, 0, 86, 66
1, 189297, Note_off_c, 0, 46, 63
1, 189301, Note_off_c, 0, 34, 63
1, 189312, Control_c, 0, 64, 51
1, 189318, Note_on_c, 0, 96, 10
1, 189319, Note_off_c, 0, 96, 127
1, 189323, Note_off_c, 0, 44, 34
1, 189342, Control_c, 0, 64, 50
1, 189371, Note_on_c, 0, 45, 81
1, 189371, Control_c, 0, 64, 48
1, 189386, Control_c, 0, 64, 46
1, 189401, Note_on_c, 0, 33, 45
1, 189401, Control_c, 0, 64, 45
1, 189407, Note_off_c, 0, 45, 68
1, 189416, Control_c, 0, 64, 46
1, 189416, Note_on_c, 0, 38, 17
1, 189431, Control_c, 0, 64, 47
1, 189435, Note_off_c, 0, 33, 49
1, 189460, Control_c, 0, 64, 46
1, 189475, Control_c, 0, 64, 46
1, 189476, Note_on_c, 0, 44, 72
1, 189489, Note_on_c, 0, 32, 71
1, 189490, Control_c, 0, 64, 45
1, 189494, Note_off_c, 0, 38, 27
1, 189500, Note_off_c, 0, 44, 66
1, 189520, Note_off_c, 0, 32, 63
1, 189586, Control_c, 0, 64, 45
1, 189588, Note_on_c, 0, 41, 81
1, 189601, Control_c, 0, 64, 44
1, 189602, Note_on_c, 0, 61, 66
1, 189606, Note_on_c, 0, 29, 64
1, 189607, Note_on_c, 0, 52, 62
1, 189614, Note_on_c, 0, 56, 53
1, 189616, Control_c, 0, 64, 43
1, 189620, Note_off_c, 0, 41, 68
1, 189631, Control_c, 0, 64, 43
1, 189638, Note_off_c, 0, 29, 62
1, 189641, Note_off_c, 0, 56, 63
1, 189646, Control_c, 0, 64, 41
1, 189660, Control_c, 0, 64, 39
1, 189675, Control_c, 0, 64, 38
1, 189690, Note_on_c, 0, 40, 81
1, 189702, Note_on_c, 0, 28, 69
1, 189705, Control_c, 0, 64, 39
1, 189722, Note_off_c, 0, 40, 65
1, 189729, Note_off_c, 0, 28, 62
1, 189734, Control_c, 0, 64, 40
1, 189749, Control_c, 0, 64, 41
1, 189756, Note_on_c, 0, 64, 65
1, 189792, Note_on_c, 0, 25, 74
1, 189794, Note_on_c, 0, 37, 71
1, 189802, Note_off_c, 0, 64, 60
1, 189811, Note_off_c, 0, 61, 54
1, 189818, Note_off_c, 0, 52, 62
1, 189821, Note_off_c, 0, 37, 66
1, 189823, Note_off_c, 0, 25, 68
1, 189831, Note_on_c, 0, 27, 14
1, 189832, Note_off_c, 0, 27, 127
1, 189838, Control_c, 0, 64, 42
1, 189853, Control_c, 0, 64, 43
1, 189867, Control_c, 0, 64, 43
1, 189882, Control_c, 0, 64, 44
1, 189899, Note_on_c, 0, 41, 79
1, 189901, Note_on_c, 0, 50, 70
1, 189902, Note_on_c, 0, 62, 71
1, 189907, Note_on_c, 0, 57, 49
1, 189915, Note_on_c, 0, 29, 54
1, 189932, Note_off_c, 0, 50, 65
1, 189932, Note_off_c, 0, 41, 67
1, 189933, Note_off_c, 0, 57, 61
1, 189941, Control_c, 0, 64, 43
1, 189950, Note_off_c, 0, 29, 56
1, 189968, Note_off_c, 0, 62, 58
1, 189973, Control_c, 0, 64, 43
1, 190006, Note_on_c, 0, 40, 68
1, 190017, Note_on_c, 0, 28, 34
1, 190026, Note_on_c, 0, 29, 35
1, 190033, Note_off_c, 0, 40, 64
1, 190060, Note_off_c, 0, 28, 30
1, 190062, Control_c, 0, 64, 42
1, 190072, Note_off_c, 0, 29, 30
1, 190077, Control_c, 0, 64, 40
1, 190091, Control_c, 0, 64, 39
1, 190106, Control_c, 0, 64, 40
1, 190108, Note_on_c, 0, 49, 85
1, 190121, Note_on_c, 0, 37, 58
1, 190121, Control_c, 0, 64, 41
1, 190136, Control_c, 0, 64, 41
1, 190137, Note_off_c, 0, 49, 63
1, 190151, Control_c, 0, 64, 42
1, 190152, Note_off_c, 0, 37, 65
1, 190180, Control_c, 0, 64, 42
1, 190206, Note_on_c, 0, 61, 65
1, 190211, Note_on_c, 0, 46, 76
1, 190224, Note_on_c, 0, 34, 65
1, 190229, Note_on_c, 0, 52, 49
1, 190233, Note_off_c, 0, 46, 66
1, 190239, Control_c, 0, 64, 44
1, 190241, Note_on_c, 0, 56, 36
1, 190254, Control_c, 0, 64, 45
1, 190256, Note_off_c, 0, 34, 65
1, 190269, Control_c, 0, 64, 46
1, 190275, Note_off_c, 0, 56, 46
1, 190306, Control_c, 0, 64, 45
1, 190310, Note_on_c, 0, 45, 80
1, 190321, Control_c, 0, 64, 44
1, 190336, Control_c, 0, 64, 44
1, 190343, Note_off_c, 0, 45, 69
1, 190351, Control_c, 0, 64, 43
1, 190355, Note_off_c, 0, 52, 0
1, 190365, Control_c, 0, 64, 42
1, 190380, Note_on_c, 0, 52, 29
1, 190380, Control_c, 0, 64, 41
1, 190391, Note_on_c, 0, 64, 58
1, 190395, Control_c, 0, 64, 40
1, 190413, Note_on_c, 0, 44, 73
1, 190419, Note_on_c, 0, 32, 71
1, 190427, Note_off_c, 0, 61, 55
1, 190431, Note_off_c, 0, 64, 57
1, 190433, Note_off_c, 0, 52, 65
1, 190441, Note_off_c, 0, 44, 66
1, 190445, Note_off_c, 0, 32, 64
1, 190454, Control_c, 0, 64, 41
1, 190469, Control_c, 0, 64, 42
1, 190510, Note_on_c, 0, 41, 77
1, 190513, Control_c, 0, 64, 41
1, 190516, Note_on_c, 0, 62, 71
1, 190519, Note_on_c, 0, 50, 72
1, 190525, Note_on_c, 0, 57, 53
1, 190528, Control_c, 0, 64, 40
1, 190531, Note_on_c, 0, 29, 48
1, 190541, Note_off_c, 0, 41, 67
1, 190546, Note_off_c, 0, 50, 65
1, 190549, Note_off_c, 0, 57, 61
1, 190558, Control_c, 0, 64, 42
1, 190564, Note_off_c, 0, 62, 61
1, 190566, Note_off_c, 0, 29, 52
1, 190573, Control_c, 0, 64, 42
1, 190598, Note_on_c, 0, 40, 67
1, 190603, Control_c, 0, 64, 41
1, 190612, Poly_aftertouch_c, 0, 32, 0
1, 190632, Control_c, 0, 64, 43
1, 190636, Note_off_c, 0, 40, 65
1, 190644, Poly_aftertouch_c, 0, 28, 0
1, 190646, Note_on_c, 0, 29, 16
1, 190647, Control_c, 0, 64, 45
1, 190662, Control_c, 0, 64, 46
1, 190677, Control_c, 0, 64, 45
1, 190691, Control_c, 0, 64, 44
1, 190692, Note_on_c, 0, 70, 50
1, 190692, Note_off_c, 0, 29, 29
1, 190706, Control_c, 0, 64, 46
1, 190714, Note_on_c, 0, 49, 80
1, 190721, Control_c, 0, 64, 48
1, 190725, Note_off_c, 0, 70, 53
1, 190731, Note_on_c, 0, 37, 57
1, 190736, Control_c, 0, 64, 50
1, 190739, Note_off_c, 0, 49, 67
1, 190751, Control_c, 0, 64, 50
1, 190764, Note_off_c, 0, 37, 64
1, 190781, Control_c, 0, 64, 49
1, 190796, Control_c, 0, 64, 47
1, 190805, Note_on_c, 0, 73, 77
1, 190809, Note_on_c, 0, 70, 69
1, 190811, Control_c, 0, 64, 48
1, 190811, Note_on_c, 0, 61, 70
1, 190813, Note_on_c, 0, 46, 78
1, 190826, Control_c, 0, 64, 51
1, 190830, Note_on_c, 0, 34, 62
1, 190837, Note_off_c, 0, 46, 65
1, 190839, Note_off_c, 0, 61, 65
1, 190840, Control_c, 0, 64, 55
1, 190855, Control_c, 0, 64, 57
1, 190856, Note_off_c, 0, 34, 63
1, 190870, Control_c, 0, 64, 57
1, 190880, Note_off_c, 0, 70, 61
1, 190885, Control_c, 0, 64, 58
1, 190900, Control_c, 0, 64, 58
1, 190907, Note_on_c, 0, 45, 84
1, 190929, Control_c, 0, 64, 58
1, 190931, Note_on_c, 0, 33, 55
1, 190942, Note_off_c, 0, 45, 67
1, 190944, Control_c, 0, 64, 56
1, 190959, Control_c, 0, 64, 52
1, 190960, Note_off_c, 0, 33, 58
1, 190974, Control_c, 0, 64, 36
1, 190977, Note_on_c, 0, 64, 75
1, 190979, Note_on_c, 0, 76, 71
1, 190988, Control_c, 0, 64, 0
1, 191023, Note_off_c, 0, 64, 62
1, 191026, Note_off_c, 0, 73, 23
1, 191037, Note_off_c, 0, 76, 65
1, 191100, Control_c, 0, 64, 66
1, 191109, Note_on_c, 0, 62, 90
1, 191112, Note_on_c, 0, 74, 85
1, 191114, Note_on_c, 0, 70, 78
1, 191114, Control_c, 0, 64, 74
1, 191117, Note_on_c, 0, 40, 82
1, 191118, Note_on_c, 0, 68, 72
1, 191128, Note_off_c, 0, 62, 71
1, 191129, Control_c, 0, 64, 81
1, 191135, Note_on_c, 0, 28, 69
1, 191135, Note_off_c, 0, 68, 67
1, 191139, Note_off_c, 0, 70, 66
1, 191144, Control_c, 0, 64, 83
1, 191148, Note_off_c, 0, 40, 67
1, 191159, Note_on_c, 0, 32, 30
1, 191160, Note_off_c, 0, 32, 127
1, 191160, Control_c, 0, 64, 84
1, 191161, Note_on_c, 0, 73, 18
1, 191163, Note_off_c, 0, 28, 57
1, 191169, Note_off_c, 0, 74, 67
1, 191174, Control_c, 0, 64, 85
1, 191188, Control_c, 0, 64, 86
1, 191200, Poly_aftertouch_c, 0, 32, 0
1, 191202, Note_off_c, 0, 73, 29
1, 191203, Control_c, 0, 64, 87
1, 191218, Control_c, 0, 64, 87
1, 191285, Note_on_c, 0, 51, 58
1, 191292, Control_c, 0, 64, 88
1, 191302, Note_on_c, 0, 39, 31
1, 191306, Note_off_c, 0, 51, 58
1, 191343, Note_off_c, 0, 39, 41
1, 191375, Note_on_c, 0, 85, 87
1, 191378, Note_on_c, 0, 73, 87
1, 191381, Control_c, 0, 64, 88
1, 191384, Note_on_c, 0, 82, 73
1, 191405, Note_off_c, 0, 73, 59
1, 191453, Note_off_c, 0, 82, 61
1, 191512, Note_on_c, 0, 88, 84
1, 191519, Note_on_c, 0, 76, 82
1, 191540, Note_off_c, 0, 85, 0
1, 191540, Note_on_c, 0, 85, 7
1, 191554, Note_off_c, 0, 85, 59
1, 191559, Control_c, 0, 64, 84
1, 191564, Note_off_c, 0, 76, 62
1, 191569, Note_off_c, 0, 88, 64
1, 191574, Control_c, 0, 64, 71
1, 191589, Control_c, 0, 64, 0
1, 191633, Control_c, 0, 64, 66
1, 191642, Note_on_c, 0, 41, 85
1, 191648, Note_on_c, 0, 29, 72
1, 191648, Control_c, 0, 64, 82
1, 191652, Note_on_c, 0, 86, 88
1, 191652, Note_on_c, 0, 74, 81
1, 191652, Note_on_c, 0, 82, 84
1, 191655, Note_on_c, 0, 80, 78
1, 191662, Control_c, 0, 64, 98
1, 191672, Note_off_c, 0, 41, 69
1, 191673, Note_off_c, 0, 74, 72
1, 191677, Control_c, 0, 64, 105
1, 191679, Note_off_c, 0, 80, 67
1, 191685, Note_off_c, 0, 29, 63
1, 191688, Note_off_c, 0, 82, 55
1, 191692, Control_c, 0, 64, 107
1, 191707, Control_c, 0, 64, 109
1, 191709, Note_off_c, 0, 86, 66
1, 191722, Control_c, 0, 64, 111
1, 191736, Control_c, 0, 64, 115
1, 191743, Note_on_c, 0, 40, 84
1, 191751, Control_c, 0, 64, 119
1, 191757, Note_on_c, 0, 28, 59
1, 191766, Control_c, 0, 64, 121
1, 191768, Note_off_c, 0, 40, 66
1, 191789, Control_c, 0, 64, 122
1, 191795, Note_off_c, 0, 28, 56
1, 191804, Control_c, 0, 64, 123
1, 191818, Control_c, 0, 64, 124
1, 191848, Control_c, 0, 64, 124
1, 191864, Note_on_c, 0, 49, 80
1, 191869, Note_on_c, 0, 39, 74
1, 191877, Control_c, 0, 64, 125
1, 191889, Note_off_c, 0, 49, 67
1, 191892, Control_c, 0, 64, 125
1, 191902, Note_off_c, 0, 39, 64
1, 191907, Control_c, 0, 64, 126
1, 191942, Note_on_c, 0, 97, 100
1, 191947, Note_on_c, 0, 85, 90
1, 191950, Note_on_c, 0, 94, 87
1, 191966, Control_c, 0, 64, 126
1, 191968, Note_on_c, 0, 46, 74
1, 191980, Control_c, 0, 64, 127
1, 191988, Note_off_c, 0, 85, 63
1, 191995, Note_off_c, 0, 46, 65
1, 191995, Control_c, 0, 64, 127
1, 192004, Note_on_c, 0, 35, 36
1, 192040, Note_off_c, 0, 94, 64
1, 192045, Note_off_c, 0, 35, 50
1, 192051, Poly_aftertouch_c, 0, 37, 0
1, 192074, Poly_aftertouch_c, 0, 37, 0
1, 192086, Note_on_c, 0, 88, 84
1, 192087, Note_on_c, 0, 100, 91
1, 192129, Note_off_c, 0, 97, 63
1, 192129, Control_c, 0, 64, 117
1, 192141, Note_off_c, 0, 100, 65
1, 192142, Note_off_c, 0, 88, 63
1, 192144, Control_c, 0, 64, 92
1, 192159, Control_c, 0, 64, 65
1, 192174, Control_c, 0, 64, 0
1, 192194, Note_on_c, 0, 41, 84
1, 192203, Control_c, 0, 64, 64
1, 192207, Note_on_c, 0, 98, 96
1, 192209, Note_on_c, 0, 29, 66
1, 192212, Note_on_c, 0, 86, 92
1, 192213, Note_on_c, 0, 94, 92
1, 192218, Note_on_c, 0, 92, 82
1, 192218, Control_c, 0, 64, 80
1, 192233, Control_c, 0, 64, 98
1, 192233, Note_off_c, 0, 41, 65
1, 192239, Note_off_c, 0, 86, 58
1, 192242, Note_off_c, 0, 29, 60
1, 192247, Note_off_c, 0, 92, 57
1, 192248, Control_c, 0, 64, 115
1, 192262, Control_c, 0, 64, 119
1, 192264, Note_off_c, 0, 94, 62
1, 192271, Note_off_c, 0, 98, 63
1, 192277, Control_c, 0, 64, 123
1, 192292, Control_c, 0, 64, 127
1, 192303, Note_on_c, 0, 40, 85
1, 192319, Note_on_c, 0, 28, 61
1, 192330, Note_off_c, 0, 40, 67
1, 192348, Note_off_c, 0, 28, 56
1, 192410, Note_on_c, 0, 49, 86
1, 192427, Note_on_c, 0, 37, 66
1, 192436, Note_off_c, 0, 49, 65
1, 192454, Note_on_c, 0, 39, 19
1, 192455, Note_off_c, 0, 37, 66
1, 192495, Note_on_c, 0, 97, 99
1, 192498, Note_on_c, 0, 85, 90
1, 192499, Note_off_c, 0, 39, 37
1, 192500, Note_on_c, 0, 94, 89
1, 192511, Note_on_c, 0, 46, 87
1, 192525, Note_on_c, 0, 34, 75
1, 192547, Note_off_c, 0, 46, 66
1, 192547, Note_off_c, 0, 85, 65
1, 192557, Note_off_c, 0, 34, 66
1, 192596, Note_off_c, 0, 94, 62
1, 192597, Poly_aftertouch_c, 0, 37, 0
1, 192615, Note_on_c, 0, 45, 95
1, 192634, Poly_aftertouch_c, 0, 37, 127
1, 192636, Note_on_c, 0, 33, 69
1, 192659, Note_on_c, 0, 38, 43
1, 192662, Note_off_c, 0, 45, 64
1, 192665, Note_off_c, 0, 33, 65
1, 192671, Note_on_c, 0, 100, 93
1, 192675, Note_on_c, 0, 88, 93
1, 192678, Note_on_c, 0, 36, 27
1, 192692, Note_off_c, 0, 38, 54
1, 192707, Poly_aftertouch_c, 0, 37, 0
1, 192722, Note_off_c, 0, 97, 63
1, 192725, Note_off_c, 0, 100, 66
1, 192725, Note_off_c, 0, 88, 64
1, 192734, Note_on_c, 0, 44, 77
1, 192741, Note_on_c, 0, 32, 74
1, 192745, Control_c, 0, 64, 97
1, 192750, Note_off_c, 0, 36, 0
1, 192750, Note_on_c, 0, 36, 5
1, 192759, Control_c, 0, 64, 62
1, 192762, Note_off_c, 0, 44, 64
1, 192766, Note_off_c, 0, 32, 64
1, 192771, Note_off_c, 0, 36, 49
1, 192774, Control_c, 0, 64, 0
1, 192796, Note_on_c, 0, 98, 97
1, 192797, Note_on_c, 0, 86, 106
1, 192803, Note_on_c, 0, 92, 95
1, 192803, Note_on_c, 0, 94, 100
1, 192803, Control_c, 0, 64, 50
1, 192816, Note_on_c, 0, 41, 93
1, 192818, Control_c, 0, 64, 76
1, 192829, Note_on_c, 0, 29, 83
1, 192833, Control_c, 0, 64, 93
1, 192835, Note_off_c, 0, 86, 64
1, 192848, Control_c, 0, 64, 121
1, 192853, Note_off_c, 0, 92, 64
1, 192859, Note_off_c, 0, 98, 65
1, 192859, Note_off_c, 0, 41, 65
1, 192862, Note_off_c, 0, 29, 63
1, 192863, Control_c, 0, 64, 126
1, 192868, Note_off_c, 0, 94, 64
1, 192877, Control_c, 0, 64, 127
1, 192915, Note_on_c, 0, 41, 83
1, 192929, Note_on_c, 0, 31, 70
1, 192947, Note_off_c, 0, 41, 69
1, 192956, Note_off_c, 0, 31, 62
1, 192968, Note_on_c, 0, 96, 51
1, 193029, Note_on_c, 0, 49, 97
1, 193037, Note_on_c, 0, 37, 56
1, 193054, Note_on_c, 0, 39, 50
1, 193056, Note_off_c, 0, 96, 49
1, 193066, Note_off_c, 0, 49, 62
1, 193076, Note_off_c, 0, 37, 62
1, 193083, Note_off_c, 0, 39, 53
1, 193103, Note_on_c, 0, 97, 98
1, 193105, Note_on_c, 0, 85, 95
1, 193105, Note_on_c, 0, 94, 92
1, 193126, Note_on_c, 0, 46, 96
1, 193130, Note_on_c, 0, 34, 89
1, 193145, Note_off_c, 0, 85, 61
1, 193168, Note_off_c, 0, 46, 62
1, 193172, Note_off_c, 0, 34, 66
1, 193211, Note_off_c, 0, 94, 59
1, 193222, Poly_aftertouch_c, 0, 33, 127
1, 193232, Note_on_c, 0, 45, 94
1, 193240, Note_on_c, 0, 33, 26
1, 193251, Poly_aftertouch_c, 0, 37, 0
1, 193260, Note_on_c, 0, 38, 59
1, 193271, Note_off_c, 0, 33, 60
1, 193273, Note_off_c, 0, 45, 65
1, 193302, Note_on_c, 0, 36, 19
1, 193312, Note_off_c, 0, 38, 60
1, 193317, Note_on_c, 0, 88, 101
1, 193317, Note_on_c, 0, 100, 94
1, 193346, Note_on_c, 0, 44, 101
1, 193352, Note_on_c, 0, 32, 94
1, 193369, Note_off_c, 0, 100, 67
1, 193370, Note_off_c, 0, 97, 63
1, 193371, Note_off_c, 0, 88, 63
1, 193374, Note_off_c, 0, 36, 0
1, 193374, Note_on_c, 0, 36, 25
1, 193393, Note_off_c, 0, 44, 65
1, 193408, Note_off_c, 0, 32, 62
1, 193408, Note_off_c, 0, 36, 59
1, 193426, Poly_aftertouch_c, 0, 38, 0
1, 193448, Poly_aftertouch_c, 0, 38, 0
1, 193452, Note_on_c, 0, 43, 97
1, 193466, Poly_aftertouch_c, 0, 38, 0
1, 193479, Note_on_c, 0, 31, 51
1, 193480, Note_off_c, 0, 31, 127
1, 193491, Note_off_c, 0, 43, 63
1, 193506, Poly_aftertouch_c, 0, 31, 0
1, 193687, Poly_aftertouch_c, 0, 94, 0
1, 193701, Note_on_c, 0, 94, 41
1, 193704, Note_on_c, 0, 86, 106
1, 193706, Note_on_c, 0, 58, 88
1, 193708, Note_on_c, 0, 98, 96
1, 193709, Note_on_c, 0, 70, 95
1, 193709, Note_on_c, 0, 68, 93
1, 193709, Note_on_c, 0, 92, 94
1, 193713, Note_on_c, 0, 62, 71
1, 193716, Control_c, 0, 64, 110
1, 193731, Control_c, 0, 64, 87
1, 193742, Note_on_c, 0, 63, 42
1, 193743, Note_off_c, 0, 63, 127
1, 193746, Control_c, 0, 64, 63
1, 193747, Note_on_c, 0, 69, 43
1, 193749, Note_on_c, 0, 96, 40
1, 193760, Control_c, 0, 64, 0
1, 193774, Note_off_c, 0, 69, 58
1, 193780, Note_off_c, 0, 96, 43
1, 194065, Control_c, 0, 64, 24
1, 194080, Control_c, 0, 64, 63
1, 194095, Control_c, 0, 64, 67
1, 194110, Control_c, 0, 64, 71
1, 194125, Control_c, 0, 64, 78
1, 194139, Control_c, 0, 64, 87
1, 194154, Control_c, 0, 64, 97
1, 194169, Control_c, 0, 64, 105
1, 194184, Control_c, 0, 64, 114
1, 194199, Control_c, 0, 64, 122
1, 194213, Note_off_c, 0, 70, 59
1, 194213, Control_c, 0, 64, 127
1, 194219, Note_off_c, 0, 68, 62
1, 194238, Note_off_c, 0, 98, 58
1, 194260, Note_off_c, 0, 62, 56
1, 194278, Note_off_c, 0, 58, 58
1, 194290, Note_off_c, 0, 94, 62
1, 194295, Note_off_c, 0, 92, 64
1, 194314, Note_off_c, 0, 86, 55
1, 194640, Note_on_c, 0, 33, 73
1, 194649, Note_on_c, 0, 21, 67
1, 194691, Note_off_c, 0, 33, 60
1, 194707, Note_off_c, 0, 21, 58
1, 194730, Note_on_c, 0, 34, 77
1, 194761, Note_on_c, 0, 44, 28
1, 194764, Note_off_c, 0, 34, 65
1, 194765, Note_on_c, 0, 46, 33
1, 194799, Note_on_c, 0, 35, 72
1, 194806, Note_on_c, 0, 23, 63
1, 194809, Note_off_c, 0, 46, 45
1, 194810, Note_off_c, 0, 44, 43
1, 194832, Note_off_c, 0, 35, 65
1, 194836, Note_off_c, 0, 23, 60
1, 194858, Note_on_c, 0, 36, 76
1, 194862, Note_on_c, 0, 48, 77
1, 194889, Note_off_c, 0, 36, 63
1, 194892, Note_off_c, 0, 48, 68
1, 194913, Note_on_c, 0, 37, 86
1, 194922, Note_on_c, 0, 25, 73
1, 194954, Note_off_c, 0, 37, 62
1, 194968, Note_off_c, 0, 25, 64
1, 194969, Note_on_c, 0, 38, 77
1, 194970, Note_on_c, 0, 50, 76
1, 195000, Note_off_c, 0, 38, 62
1, 195001, Note_off_c, 0, 50, 67
1, 195021, Control_c, 0, 64, 105
1, 195027, Note_on_c, 0, 39, 89
1, 195028, Note_on_c, 0, 27, 68
1, 195036, Control_c, 0, 64, 81
1, 195051, Control_c, 0, 64, 66
1, 195066, Control_c, 0, 64, 69
1, 195067, Note_off_c, 0, 39, 62
1, 195070, Note_on_c, 0, 40, 73
1, 195072, Note_on_c, 0, 52, 82
1, 195080, Control_c, 0, 64, 80
1, 195085, Note_off_c, 0, 27, 65
1, 195095, Control_c, 0, 64, 96
1, 195097, Note_off_c, 0, 52, 71
1, 195101, Note_off_c, 0, 40, 65
1, 195110, Control_c, 0, 64, 113
1, 195125, Control_c, 0, 64, 124
1, 195140, Control_c, 0, 64, 127
1, 195153, Note_on_c, 0, 41, 89
1, 195158, Note_on_c, 0, 29, 83
1, 195191, Note_off_c, 0, 41, 66
1, 195193, Note_on_c, 0, 42, 84
1, 195198, Note_off_c, 0, 29, 64
1, 195216, Note_on_c, 0, 54, 51
1, 195219, Note_off_c, 0, 42, 65
1, 195241, Note_off_c, 0, 54, 54
1, 195268, Note_on_c, 0, 43, 90
1, 195270, Note_on_c, 0, 31, 84
1, 195301, Poly_aftertouch_c, 0, 51, 0
1, 195304, Note_on_c, 0, 44, 85
1, 195309, Note_off_c, 0, 31, 65
1, 195311, Note_on_c, 0, 56, 72
1, 195312, Note_off_c, 0, 43, 61
1, 195327, Note_on_c, 0, 54, 42
1, 195332, Note_off_c, 0, 44, 66
1, 195334, Note_off_c, 0, 56, 66
1, 195362, Note_off_c, 0, 54, 48
1, 195375, Note_on_c, 0, 33, 88
1, 195375, Note_on_c, 0, 45, 88
1, 195400, Note_on_c, 0, 46, 88
1, 195405, Note_on_c, 0, 58, 83
1, 195411, Note_off_c, 0, 45, 64
1, 195419, Note_off_c, 0, 33, 61
1, 195434, Note_off_c, 0, 46, 63
1, 195436, Note_off_c, 0, 58, 65
1, 195477, Note_on_c, 0, 47, 93
1, 195480, Note_on_c, 0, 35, 85
1, 195514, Note_off_c, 0, 47, 64
1, 195520, Note_on_c, 0, 48, 82
1, 195520, Note_off_c, 0, 35, 64
1, 195530, Note_on_c, 0, 60, 79
1, 195555, Note_off_c, 0, 48, 70
1, 195568, Note_off_c, 0, 60, 62
1, 195593, Note_on_c, 0, 49, 95
1, 195601, Note_on_c, 0, 37, 78
1, 195630, Note_off_c, 0, 49, 60
1, 195632, Note_off_c, 0, 37, 66
1, 195635, Note_on_c, 0, 39, 38
1, 195639, Note_on_c, 0, 62, 80
1, 195640, Note_on_c, 0, 50, 77
1, 195668, Note_off_c, 0, 39, 49
1, 195669, Note_off_c, 0, 50, 68
1, 195680, Note_on_c, 0, 52, 24
1, 195681, Note_off_c, 0, 52, 127
1, 195682, Note_off_c, 0, 62, 63
1, 195697, Note_on_c, 0, 51, 97
1, 195700, Note_on_c, 0, 39, 77
1, 195718, Poly_aftertouch_c, 0, 52, 0
1, 195736, Note_on_c, 0, 52, 51
1, 195736, Note_off_c, 0, 51, 64
1, 195740, Control_c, 0, 64, 103
1, 195741, Note_on_c, 0, 64, 80
1, 195748, Note_off_c, 0, 39, 63
1, 195755, Control_c, 0, 64, 74
1, 195764, Note_off_c, 0, 52, 67
1, 195770, Control_c, 0, 64, 0
1, 195772, Note_off_c, 0, 64, 66
1, 195799, Control_c, 0, 64, 56
1, 195806, Note_on_c, 0, 53, 28
1, 195814, Control_c, 0, 64, 81
1, 195816, Note_on_c, 0, 41, 92
1, 195828, Control_c, 0, 64, 103
1, 195843, Control_c, 0, 64, 127
1, 195858, Note_off_c, 0, 41, 65
1, 195858, Note_off_c, 0, 53, 66
1, 195861, Note_on_c, 0, 54, 86
1, 195867, Note_on_c, 0, 66, 80
1, 195882, Note_off_c, 0, 54, 67
1, 195890, Note_off_c, 0, 66, 71
1, 195926, Note_on_c, 0, 55, 92
1, 195928, Note_on_c, 0, 43, 92
1, 195970, Note_on_c, 0, 56, 90
1, 195972, Note_off_c, 0, 55, 66
1, 195973, Note_on_c, 0, 68, 82
1, 195976, Note_off_c, 0, 43, 62
1, 195987, Poly_aftertouch_c, 0, 49, 0
1, 195989, Note_on_c, 0, 66, 47
1, 195992, Note_off_c, 0, 56, 69
1, 195995, Note_off_c, 0, 68, 70
1, 196007, Note_off_c, 0, 66, 64
1, 196032, Note_on_c, 0, 57, 90
1, 196034, Note_on_c, 0, 45, 93
1, 196071, Note_on_c, 0, 70, 81
1, 196073, Note_on_c, 0, 58, 80
1, 196073, Note_off_c, 0, 57, 66
1, 196076, Note_off_c, 0, 45, 66
1, 196093, Note_off_c, 0, 58, 71
1, 196099, Note_off_c, 0, 70, 63
1, 196135, Note_on_c, 0, 47, 94
1, 196135, Note_on_c, 0, 59, 89
1, 196170, Note_off_c, 0, 59, 67
1, 196171, Note_off_c, 0, 47, 64
1, 196179, Note_on_c, 0, 60, 86
1, 196186, Note_on_c, 0, 72, 86
1, 196204, Note_off_c, 0, 60, 64
1, 196222, Note_off_c, 0, 72, 62
1, 196236, Note_on_c, 0, 49, 73
1, 196240, Note_on_c, 0, 61, 94
1, 196263, Note_on_c, 0, 51, 56
1, 196286, Note_off_c, 0, 61, 62
1, 196291, Note_on_c, 0, 62, 88
1, 196293, Note_on_c, 0, 74, 86
1, 196295, Note_off_c, 0, 51, 62
1, 196298, Note_off_c, 0, 49, 62
1, 196329, Note_off_c, 0, 62, 58
1, 196336, Note_off_c, 0, 74, 68
1, 196355, Note_on_c, 0, 51, 94
1, 196355, Note_on_c, 0, 63, 94
1, 196389, Note_on_c, 0, 64, 86
1, 196392, Note_off_c, 0, 63, 67
1, 196396, Note_on_c, 0, 76, 87
1, 196401, Note_off_c, 0, 51, 63
1, 196414, Note_off_c, 0, 64, 67
1, 196430, Note_off_c, 0, 76, 67
1, 196468, Note_on_c, 0, 65, 96
1, 196469, Note_on_c, 0, 53, 94
1, 196514, Note_off_c, 0, 65, 66
1, 196514, Note_on_c, 0, 66, 99
1, 196515, Note_off_c, 0, 53, 67
1, 196520, Note_on_c, 0, 78, 87
1, 196535, Note_off_c, 0, 66, 70
1, 196538, Note_off_c, 0, 78, 70
1, 196579, Note_on_c, 0, 67, 98
1, 196581, Note_on_c, 0, 55, 90
1, 196624, Note_off_c, 0, 67, 65
1, 196627, Note_on_c, 0, 68, 90
1, 196628, Note_on_c, 0, 80, 84
1, 196630, Note_off_c, 0, 55, 65
1, 196646, Note_off_c, 0, 68, 68
1, 196648, Note_off_c, 0, 80, 67
1, 196653, Poly_aftertouch_c, 0, 61, 0
1, 196687, Note_on_c, 0, 57, 95
1, 196687, Note_on_c, 0, 69, 101
1, 196731, Note_off_c, 0, 69, 69
1, 196733, Note_on_c, 0, 82, 88
1, 196734, Note_on_c, 0, 70, 92
1, 196734, Note_off_c, 0, 57, 66
1, 196754, Note_off_c, 0, 70, 67
1, 196776, Note_off_c, 0, 82, 62
1, 196801, Note_on_c, 0, 71, 98
1, 196803, Note_on_c, 0, 59, 93
1, 196803, Poly_aftertouch_c, 0, 58, 0
1, 196841, Note_off_c, 0, 71, 65
1, 196842, Note_off_c, 0, 59, 67
1, 196856, Note_on_c, 0, 72, 89
1, 196862, Note_on_c, 0, 84, 87
1, 196883, Note_off_c, 0, 72, 64
1, 196898, Note_off_c, 0, 84, 65
1, 196925, Note_on_c, 0, 73, 98
1, 196928, Note_on_c, 0, 61, 98
1, 196971, Note_off_c, 0, 73, 64
1, 196976, Note_off_c, 0, 61, 63
1, 196992, Note_on_c, 0, 74, 87
1, 196993, Note_on_c, 0, 86, 91
1, 197028, Note_off_c, 0, 74, 63
1, 197038, Note_off_c, 0, 86, 66
1, 197077, Note_on_c, 0, 75, 91
1, 197083, Note_on_c, 0, 63, 84
1, 197114, Note_on_c, 0, 88, 95
1, 197117, Note_on_c, 0, 76, 94
1, 197125, Note_on_c, 0, 66, 39
1, 197138, Note_off_c, 0, 75, 63
1, 197145, Note_off_c, 0, 63, 64
1, 197146, Note_off_c, 0, 66, 64
1, 197152, Note_off_c, 0, 76, 65
1, 197158, Note_off_c, 0, 88, 65
1, 197223, Control_c, 0, 64, 87
1, 197238, Control_c, 0, 64, 0
1, 197249, Note_on_c, 0, 77, 105
1, 197252, Note_on_c, 0, 89, 100
1, 197253, Note_on_c, 0, 86, 86
1, 197255, Note_on_c, 0, 64, 85
1, 197256, Note_on_c, 0, 82, 93
1, 197257, Note_on_c, 0, 70, 97
1, 197258, Note_on_c, 0, 74, 90
1, 197261, Note_on_c, 0, 76, 94
1, 197280, Note_on_c, 0, 65, 56
1, 197281, Note_off_c, 0, 77, 67
1, 197283, Note_off_c, 0, 82, 61
1, 197290, Note_on_c, 0, 67, 42
1, 197292, Note_off_c, 0, 86, 65
1, 197298, Control_c, 0, 64, 67
1, 197307, Note_off_c, 0, 89, 66
1, 197313, Control_c, 0, 64, 84
1, 197328, Control_c, 0, 64, 102
1, 197342, Control_c, 0, 64, 115
1, 197348, Note_off_c, 0, 67, 36
1, 197357, Control_c, 0, 64, 117
1, 197372, Control_c, 0, 64, 123
1, 197387, Control_c, 0, 64, 127
1, 197408, Note_off_c, 0, 76, 42
1, 197424, Note_off_c, 0, 74, 54
1, 197432, Note_off_c, 0, 64, 55
1, 197432, Note_off_c, 0, 65, 37
1, 197438, Note_off_c, 0, 70, 56
1, 197481, Note_on_c, 0, 89, 94
1, 197489, Note_on_c, 0, 101, 97
1, 197522, Note_off_c, 0, 101, 68
1, 197523, Note_off_c, 0, 89, 67
1, 197572, Note_on_c, 0, 89, 92
1, 197573, Note_on_c, 0, 101, 100
1, 197609, Note_off_c, 0, 89, 67
1, 197613, Note_off_c, 0, 101, 67
1, 197662, Note_on_c, 0, 89, 98
1, 197664, Note_on_c, 0, 98, 94
1, 197665, Note_on_c, 0, 101, 90
1, 197668, Note_on_c, 0, 94, 93
1, 197677, Note_on_c, 0, 70, 90
1, 197678, Note_on_c, 0, 64, 70
1, 197678, Note_on_c, 0, 74, 86
1, 197684, Note_on_c, 0, 76, 90
1, 197691, Note_off_c, 0, 94, 63
1, 197693, Note_off_c, 0, 101, 64
1, 197694, Note_on_c, 0, 65, 71
1, 197697, Note_off_c, 0, 89, 68
1, 197701, Note_off_c, 0, 76, 71
1, 197701, Note_off_c, 0, 98, 66
1, 197712, Note_off_c, 0, 74, 66
1, 197718, Note_off_c, 0, 70, 64
1, 197722, Note_off_c, 0, 65, 67
1, 197724, Note_off_c, 0, 64, 60
1, 197764, Note_on_c, 0, 64, 58
1, 197775, Note_on_c, 0, 74, 67
1, 197787, Note_on_c, 0, 65, 72
1, 197793, Note_off_c, 0, 74, 67
1, 197806, Note_off_c, 0, 65, 73
1, 197807, Note_off_c, 0, 64, 61
1, 197836, Note_on_c, 0, 77, 89
1, 197842, Note_on_c, 0, 89, 93
1, 197868, Poly_aftertouch_c, 0, 66, 0
1, 197869, Note_off_c, 0, 89, 64
1, 197870, Note_off_c, 0, 77, 61
1, 197913, Note_on_c, 0, 89, 95
1, 197915, Note_on_c, 0, 77, 91
1, 197948, Note_off_c, 0, 77, 65
1, 197954, Note_off_c, 0, 89, 67
1, 197992, Note_on_c, 0, 77, 91
1, 197996, Note_on_c, 0, 82, 88
1, 197996, Note_on_c, 0, 86, 88
1, 197999, Note_on_c, 0, 89, 79
1, 198001, Note_on_c, 0, 52, 76
1, 198002, Note_on_c, 0, 62, 79
1, 198004, Note_on_c, 0, 58, 82
1, 198008, Note_on_c, 0, 64, 78
1, 198009, Note_off_c, 0, 77, 70
1, 198013, Note_off_c, 0, 82, 72
1, 198020, Note_on_c, 0, 53, 55
1, 198022, Note_off_c, 0, 86, 63
1, 198028, Note_off_c, 0, 58, 68
1, 198028, Note_off_c, 0, 62, 66
1, 198028, Note_off_c, 0, 64, 72
1, 198029, Note_off_c, 0, 52, 66
1, 198039, Note_off_c, 0, 89, 65
1, 198043, Note_off_c, 0, 53, 61
1, 198090, Note_on_c, 0, 62, 80
1, 198094, Note_on_c, 0, 52, 67
1, 198095, Note_on_c, 0, 64, 77
1, 198103, Note_on_c, 0, 58, 60
1, 198112, Note_off_c, 0, 62, 67
1, 198115, Note_off_c, 0, 52, 66
1, 198117, Note_off_c, 0, 64, 71
1, 198119, Note_off_c, 0, 58, 67
1, 198138, Note_on_c, 0, 89, 91
1, 198147, Note_on_c, 0, 101, 94
1, 198167, Note_off_c, 0, 101, 69
1, 198172, Note_off_c, 0, 89, 68
1, 198221, Note_on_c, 0, 89, 96
1, 198221, Note_on_c, 0, 101, 100
1, 198253, Note_off_c, 0, 89, 70
1, 198255, Note_off_c, 0, 101, 66
1, 198286, Note_on_c, 0, 89, 85
1, 198287, Note_on_c, 0, 98, 74
1, 198290, Note_on_c, 0, 94, 94
1, 198293, Note_on_c, 0, 101, 67
1, 198295, Note_on_c, 0, 70, 88
1, 198296, Note_on_c, 0, 76, 84
1, 198301, Note_on_c, 0, 74, 76
1, 198302, Note_on_c, 0, 64, 67
1, 198312, Note_on_c, 0, 65, 69
1, 198314, Note_off_c, 0, 101, 67
1, 198318, Note_off_c, 0, 94, 64
1, 198320, Note_off_c, 0, 74, 73
1, 198320, Note_off_c, 0, 76, 66
1, 198323, Note_off_c, 0, 98, 67
1, 198326, Note_off_c, 0, 89, 65
1, 198330, Note_off_c, 0, 70, 58
1, 198332, Note_off_c, 0, 64, 66
1, 198378, Note_on_c, 0, 74, 75
1, 198382, Note_on_c, 0, 70, 67
1, 198390, Note_on_c, 0, 64, 64
1, 198392, Note_on_c, 0, 76, 57
1, 198393, Note_off_c, 0, 76, 127
1, 198400, Note_off_c, 0, 74, 72
1, 198404, Note_off_c, 0, 70, 70
1, 198407, Note_off_c, 0, 65, 66
1, 198410, Note_off_c, 0, 64, 67
1, 198433, Note_on_c, 0, 77, 95
1, 198442, Note_on_c, 0, 89, 92
1, 198462, Note_off_c, 0, 89, 69
1, 198468, Note_off_c, 0, 77, 63
1, 198523, Note_on_c, 0, 77, 94
1, 198529, Note_on_c, 0, 89, 90
1, 198548, Note_off_c, 0, 89, 68
1, 198556, Note_off_c, 0, 77, 66
1, 198594, Note_on_c, 0, 77, 92
1, 198597, Note_on_c, 0, 82, 97
1, 198597, Note_on_c, 0, 86, 87
1, 198603, Note_on_c, 0, 52, 79
1, 198606, Note_on_c, 0, 62, 80
1, 198606, Note_on_c, 0, 89, 86
1, 198610, Note_on_c, 0, 58, 84
1, 198613, Note_on_c, 0, 64, 80
1, 198615, Note_off_c, 0, 77, 63
1, 198618, Poly_aftertouch_c, 0, 54, 127
1, 198618, Note_on_c, 0, 53, 66
1, 198618, Note_off_c, 0, 82, 62
1, 198630, Note_off_c, 0, 86, 61
1, 198636, Note_off_c, 0, 62, 61
1, 198637, Note_off_c, 0, 58, 65
1, 198638, Note_off_c, 0, 64, 68
1, 198644, Note_off_c, 0, 89, 66
1, 198645, Note_off_c, 0, 53, 68
1, 198651, Note_off_c, 0, 52, 64
1, 198662, Poly_aftertouch_c, 0, 54, 0
1, 198699, Note_on_c, 0, 62, 79
1, 198700, Note_on_c, 0, 64, 76
1, 198705, Note_on_c, 0, 52, 49
1, 198710, Note_on_c, 0, 58, 62
1, 198721, Note_off_c, 0, 62, 69
1, 198723, Note_off_c, 0, 58, 72
1, 198723, Note_off_c, 0, 52, 66
1, 198728, Note_off_c, 0, 64, 66
1, 198734, Note_on_c, 0, 53, 38
1, 198761, Note_off_c, 0, 53, 56
1, 198771, Note_on_c, 0, 89, 90
1, 198773, Note_on_c, 0, 101, 96
1, 198787, Note_on_c, 0, 91, 69
1, 198803, Note_off_c, 0, 91, 44
1, 198806, Note_off_c, 0, 89, 68
1, 198806, Note_off_c, 0, 101, 65
1, 198848, Note_on_c, 0, 89, 92
1, 198848, Note_on_c, 0, 101, 90
1, 198881, Note_off_c, 0, 89, 68
1, 198888, Note_off_c, 0, 101, 67
1, 198901, Note_on_c, 0, 99, 20
1, 198902, Note_off_c, 0, 99, 127
1, 198931, Note_on_c, 0, 89, 95
1, 198931, Note_on_c, 0, 98, 93
1, 198933, Note_on_c, 0, 94, 92
1, 198934, Note_on_c, 0, 101, 89
1, 198939, Note_on_c, 0, 70, 90
1, 198939, Note_on_c, 0, 74, 84
1, 198942, Note_on_c, 0, 76, 88
1, 198943, Note_on_c, 0, 65, 77
1, 198946, Note_on_c, 0, 64, 67
1, 198955, Note_off_c, 0, 101, 68
1, 198962, Note_off_c, 0, 76, 67
1, 198964, Note_off_c, 0, 74, 67
1, 198967, Note_off_c, 0, 98, 68
1, 198967, Note_off_c, 0, 94, 63
1, 198969, Note_off_c, 0, 89, 62
1, 198973, Note_off_c, 0, 64, 67
1, 198978, Note_off_c, 0, 70, 62
1, 198996, Note_off_c, 0, 65, 63
1, 199027, Note_on_c, 0, 65, 64
1, 199033, Note_on_c, 0, 64, 80
1, 199039, Note_on_c, 0, 74, 67
1, 199048, Note_on_c, 0, 70, 48
1, 199055, Note_off_c, 0, 74, 68
1, 199067, Note_off_c, 0, 70, 63
1, 199071, Note_off_c, 0, 65, 67
1, 199075, Note_off_c, 0, 64, 63
1, 199103, Note_on_c, 0, 77, 98
1, 199107, Note_on_c, 0, 89, 97
1, 199137, Note_off_c, 0, 77, 66
1, 199140, Note_off_c, 0, 89, 66
1, 199188, Note_on_c, 0, 89, 98
1, 199188, Note_on_c, 0, 77, 94
1, 199225, Note_off_c, 0, 77, 67
1, 199233, Note_off_c, 0, 89, 66
1, 199288, Note_on_c, 0, 77, 102
1, 199291, Note_on_c, 0, 86, 98
1, 199291, Note_on_c, 0, 89, 94
1, 199294, Note_on_c, 0, 82, 94
1, 199297, Note_on_c, 0, 62, 88
1, 199299, Note_on_c, 0, 52, 74
1, 199301, Note_on_c, 0, 58, 84
1, 199304, Note_on_c, 0, 64, 84
1, 199312, Note_on_c, 0, 53, 72
1, 199314, Note_off_c, 0, 82, 67
1, 199320, Note_off_c, 0, 77, 65
1, 199323, Note_off_c, 0, 64, 70
1, 199323, Note_off_c, 0, 89, 63
1, 199327, Note_off_c, 0, 86, 63
1, 199337, Note_off_c, 0, 62, 62
1, 199341, Note_off_c, 0, 53, 67
1, 199342, Note_off_c, 0, 58, 62
1, 199349, Note_off_c, 0, 52, 65
1, 199396, Note_on_c, 0, 62, 75
1, 199400, Note_on_c, 0, 52, 61
1, 199408, Note_on_c, 0, 64, 62
1, 199408, Note_on_c, 0, 58, 57
1, 199411, Note_on_c, 0, 53, 71
1, 199414, Note_off_c, 0, 62, 65
1, 199422, Note_off_c, 0, 64, 70
1, 199433, Note_off_c, 0, 58, 58
1, 199435, Note_off_c, 0, 52, 65
1, 199441, Note_off_c, 0, 53, 68
1, 199480, Note_on_c, 0, 65, 91
1, 199488, Note_on_c, 0, 77, 97
1, 199519, Note_off_c, 0, 77, 67
1, 199521, Note_off_c, 0, 65, 67
1, 199578, Note_on_c, 0, 65, 93
1, 199580, Note_on_c, 0, 77, 95
1, 199619, Note_off_c, 0, 65, 67
1, 199622, Note_off_c, 0, 77, 65
1, 199675, Note_on_c, 0, 65, 104
1, 199679, Note_on_c, 0, 74, 91
1, 199680, Note_on_c, 0, 77, 96
1, 199681, Note_on_c, 0, 70, 96
1, 199687, Note_on_c, 0, 52, 100
1, 199688, Note_on_c, 0, 50, 92
1, 199688, Note_on_c, 0, 46, 93
1, 199691, Note_on_c, 0, 40, 78
1, 199700, Note_on_c, 0, 41, 77
1, 199714, Note_off_c, 0, 65, 67
1, 199715, Note_off_c, 0, 77, 60
1, 199715, Note_off_c, 0, 50, 61
1, 199716, Note_off_c, 0, 74, 69
1, 199718, Note_off_c, 0, 52, 67
1, 199723, Note_off_c, 0, 70, 59
1, 199726, Note_off_c, 0, 40, 63
1, 199727, Note_on_c, 0, 43, 30
1, 199733, Note_off_c, 0, 46, 59
1, 199751, Note_off_c, 0, 41, 59
1, 199768, Note_off_c, 0, 43, 49
1, 199793, Note_on_c, 0, 50, 81
1, 199794, Note_on_c, 0, 41, 60
1, 199805, Note_on_c, 0, 46, 69
1, 199809, Note_on_c, 0, 52, 73
1, 199817, Note_on_c, 0, 40, 54
1, 199825, Note_off_c, 0, 50, 64
1, 199826, Note_off_c, 0, 52, 70
1, 199831, Note_off_c, 0, 46, 65
1, 199846, Note_off_c, 0, 40, 62
1, 199852, Note_off_c, 0, 41, 66
1, 199900, Note_on_c, 0, 53, 97
1, 199903, Note_on_c, 0, 65, 99
1, 199935, Note_off_c, 0, 65, 72
1, 199942, Note_off_c, 0, 53, 69
1, 200007, Note_on_c, 0, 53, 96
1, 200008, Note_on_c, 0, 65, 95
1, 200060, Note_off_c, 0, 53, 66
1, 200064, Note_off_c, 0, 65, 67
1, 200085, Control_c, 0, 64, 108
1, 200100, Control_c, 0, 64, 80
1, 200115, Control_c, 0, 64, 13
1, 200130, Control_c, 0, 64, 0
1, 200131, Note_on_c, 0, 53, 99
1, 200132, Note_on_c, 0, 65, 97
1, 200134, Note_on_c, 0, 62, 88
1, 200136, Note_on_c, 0, 38, 88
1, 200137, Note_on_c, 0, 58, 89
1, 200138, Note_on_c, 0, 34, 90
1, 200140, Note_on_c, 0, 28, 79
1, 200141, Note_on_c, 0, 40, 84
1, 200143, Note_on_c, 0, 29, 76
1, 200144, Control_c, 0, 64, 43
1, 200159, Control_c, 0, 64, 74
1, 200162, Note_on_c, 0, 31, 52
1, 200168, Note_off_c, 0, 53, 66
1, 200174, Note_off_c, 0, 28, 65
1, 200174, Control_c, 0, 64, 93
1, 200175, Note_off_c, 0, 58, 63
1, 200176, Note_off_c, 0, 65, 65
1, 200181, Note_off_c, 0, 62, 62
1, 200182, Note_off_c, 0, 40, 56
1, 200189, Control_c, 0, 64, 121
1, 200191, Note_off_c, 0, 38, 61
1, 200193, Note_off_c, 0, 31, 52
1, 200203, Control_c, 0, 64, 127
1, 200204, Note_off_c, 0, 34, 63
1, 200219, Note_off_c, 0, 29, 52
1, 200267, Note_on_c, 0, 38, 74
1, 200269, Note_on_c, 0, 29, 55
1, 200274, Note_on_c, 0, 34, 72
1, 200277, Note_on_c, 0, 28, 62
1, 200279, Note_on_c, 0, 40, 78
1, 200327, Note_off_c, 0, 40, 41
1, 200348, Note_off_c, 0, 34, 59
1, 200356, Note_off_c, 0, 38, 52
1, 200365, Note_off_c, 0, 28, 54
1, 200370, Note_on_c, 0, 53, 98
1, 200373, Note_on_c, 0, 65, 99
1, 200388, Poly_aftertouch_c, 0, 31, 0
1, 200409, Note_off_c, 0, 65, 69
1, 200410, Note_off_c, 0, 53, 68
1, 200430, Note_off_c, 0, 29, 31
1, 200478, Note_on_c, 0, 53, 97
1, 200480, Note_on_c, 0, 65, 95
1, 200518, Note_off_c, 0, 53, 67
1, 200521, Note_off_c, 0, 65, 66
1, 200560, Control_c, 0, 64, 121
1, 200574, Control_c, 0, 64, 91
1, 200589, Control_c, 0, 64, 64
1, 200595, Note_on_c, 0, 53, 103
1, 200596, Note_on_c, 0, 65, 98
1, 200598, Note_on_c, 0, 62, 88
1, 200600, Note_on_c, 0, 38, 92
1, 200603, Note_on_c, 0, 58, 88
1, 200604, Note_on_c, 0, 34, 87
1, 200604, Control_c, 0, 64, 0
1, 200605, Note_on_c, 0, 28, 81
1, 200605, Note_on_c, 0, 29, 75
1, 200605, Note_on_c, 0, 40, 89
1, 200633, Note_on_c, 0, 31, 41
1, 200633, Control_c, 0, 64, 68
1, 200636, Note_off_c, 0, 53, 68
1, 200642, Note_off_c, 0, 58, 60
1, 200642, Note_off_c, 0, 65, 67
1, 200646, Note_off_c, 0, 62, 64
1, 200648, Control_c, 0, 64, 86
1, 200657, Note_off_c, 0, 28, 45
1, 200663, Control_c, 0, 64, 109
1, 200664, Note_off_c, 0, 40, 61
1, 200669, Note_off_c, 0, 38, 61
1, 200674, Note_off_c, 0, 31, 51
1, 200678, Control_c, 0, 64, 125
1, 200681, Note_off_c, 0, 34, 62
1, 200693, Control_c, 0, 64, 126
1, 200708, Control_c, 0, 64, 127
1, 200731, Note_on_c, 0, 28, 58
1, 200731, Note_on_c, 0, 38, 69
1, 200737, Note_on_c, 0, 34, 63
1, 200741, Note_on_c, 0, 40, 74
1, 200812, Note_off_c, 0, 40, 48
1, 200848, Note_off_c, 0, 34, 59
1, 200856, Note_off_c, 0, 38, 36
1, 200866, Note_on_c, 0, 53, 94
1, 200872, Note_on_c, 0, 65, 96
1, 200907, Note_off_c, 0, 65, 69
1, 200911, Note_off_c, 0, 53, 67
1, 200931, Note_off_c, 0, 28, 33
1, 200990, Note_on_c, 0, 53, 96
1, 200992, Note_on_c, 0, 65, 93
1, 201037, Note_off_c, 0, 53, 64
1, 201060, Note_off_c, 0, 65, 53
1, 201100, Control_c, 0, 64, 110
1, 201115, Control_c, 0, 64, 82
1, 201130, Control_c, 0, 64, 0
1, 201142, Note_on_c, 0, 53, 96
1, 201144, Note_off_c, 0, 29, 0
1, 201144, Note_on_c, 0, 29, 21
1, 201146, Note_on_c, 0, 62, 79
1, 201148, Note_on_c, 0, 38, 89
1, 201148, Note_on_c, 0, 65, 94
1, 201149, Note_on_c, 0, 34, 90
1, 201152, Note_on_c, 0, 58, 82
1, 201152, Note_on_c, 0, 28, 83
1, 201155, Note_on_c, 0, 40, 82
1, 201174, Note_on_c, 0, 31, 54
1, 201176, Control_c, 0, 64, 67
1, 201181, Note_off_c, 0, 53, 68
1, 201186, Note_off_c, 0, 58, 65
1, 201190, Control_c, 0, 64, 86
1, 201201, Note_off_c, 0, 62, 63
1, 201201, Note_off_c, 0, 65, 67
1, 201205, Control_c, 0, 64, 114
1, 201209, Note_off_c, 0, 31, 50
1, 201220, Control_c, 0, 64, 127
1, 201295, Note_off_c, 0, 28, 59
1, 201309, Note_off_c, 0, 38, 60
1, 201313, Note_off_c, 0, 34, 62
1, 201320, Note_off_c, 0, 40, 62
1, 201338, Note_off_c, 0, 29, 40
1, 201429, Note_on_c, 0, 65, 95
1, 201434, Note_on_c, 0, 77, 96
1, 201471, Note_off_c, 0, 65, 68
1, 201476, Note_off_c, 0, 77, 64
1, 201551, Note_on_c, 0, 65, 94
1, 201553, Note_on_c, 0, 77, 90
1, 201594, Note_off_c, 0, 65, 65
1, 201604, Note_off_c, 0, 77, 62
1, 201659, Note_on_c, 0, 58, 103
1, 201661, Note_on_c, 0, 65, 100
1, 201662, Note_on_c, 0, 56, 96
1, 201665, Note_on_c, 0, 50, 77
1, 201665, Note_on_c, 0, 74, 83
1, 201665, Note_on_c, 0, 77, 90
1, 201668, Note_on_c, 0, 70, 91
1, 201672, Note_on_c, 0, 53, 78
1, 201688, Note_off_c, 0, 58, 72
1, 201701, Note_off_c, 0, 56, 65
1, 201705, Note_off_c, 0, 53, 67
1, 201706, Note_off_c, 0, 65, 65
1, 201710, Note_off_c, 0, 50, 64
1, 201712, Note_off_c, 0, 70, 63
1, 201725, Note_off_c, 0, 74, 63
1, 201725, Note_off_c, 0, 77, 61
1, 201894, Control_c, 0, 64, 111
1, 201909, Control_c, 0, 64, 83
1, 201923, Control_c, 0, 64, 62
1, 201938, Control_c, 0, 64, 59
1, 201951, Note_on_c, 0, 40, 102
1, 201953, Control_c, 0, 64, 74
1, 201959, Note_on_c, 0, 77, 92
1, 201960, Note_on_c, 0, 28, 94
1, 201960, Note_on_c, 0, 65, 94
1, 201968, Control_c, 0, 64, 94
1, 201983, Control_c, 0, 64, 127
1, 201984, Note_off_c, 0, 28, 65
1, 201992, Note_on_c, 0, 32, 31
1, 201996, Note_off_c, 0, 40, 66
1, 202012, Note_off_c, 0, 65, 64
1, 202019, Note_off_c, 0, 77, 63
1, 202034, Note_off_c, 0, 32, 48
1, 202088, Note_on_c, 0, 65, 92
1, 202089, Note_on_c, 0, 77, 87
1, 202148, Note_off_c, 0, 65, 60
1, 202158, Note_off_c, 0, 77, 54
1, 202234, Control_c, 0, 64, 93
1, 202246, Note_on_c, 0, 65, 99
1, 202246, Note_on_c, 0, 56, 96
1, 202246, Note_on_c, 0, 59, 97
1, 202246, Note_on_c, 0, 77, 94
1, 202249, Note_on_c, 0, 68, 90
1, 202249, Control_c, 0, 64, 66
1, 202253, Note_on_c, 0, 50, 79
1, 202258, Note_on_c, 0, 48, 77
1, 202271, Control_c, 0, 64, 0
1, 202286, Control_c, 0, 64, 48
1, 202291, Note_off_c, 0, 59, 67
1, 202299, Note_off_c, 0, 56, 66
1, 202301, Control_c, 0, 64, 73
1, 202309, Note_off_c, 0, 65, 60
1, 202310, Note_on_c, 0, 71, 24
1, 202316, Control_c, 0, 64, 92
1, 202318, Note_off_c, 0, 50, 65
1, 202318, Note_off_c, 0, 48, 65
1, 202319, Note_off_c, 0, 68, 62
1, 202331, Control_c, 0, 64, 127
1, 202336, Note_on_c, 0, 72, 3
1, 202344, Note_off_c, 0, 71, 50
1, 202349, Note_off_c, 0, 77, 51
1, 202370, Note_off_c, 0, 72, 35
1, 202568, Note_on_c, 0, 40, 101
1, 202577, Note_on_c, 0, 28, 94
1, 202586, Note_on_c, 0, 65, 94
1, 202586, Note_on_c, 0, 77, 88
1, 202597, Note_off_c, 0, 28, 70
1, 202608, Note_on_c, 0, 32, 28
1, 202614, Note_off_c, 0, 40, 64
1, 202640, Note_off_c, 0, 65, 64
1, 202649, Note_off_c, 0, 77, 59
1, 202654, Note_off_c, 0, 32, 43
1, 202729, Note_on_c, 0, 65, 95
1, 202733, Note_on_c, 0, 77, 92
1, 202747, Poly_aftertouch_c, 0, 28, 0
1, 202796, Note_off_c, 0, 65, 54
1, 202821, Note_off_c, 0, 77, 58
1, 202881, Control_c, 0, 64, 95
1, 202895, Control_c, 0, 64, 52
1, 202907, Note_on_c, 0, 56, 97
1, 202907, Note_on_c, 0, 60, 96
1, 202908, Note_on_c, 0, 65, 106
1, 202910, Control_c, 0, 64, 0
1, 202911, Note_on_c, 0, 77, 96
1, 202913, Note_on_c, 0, 48, 79
1, 202914, Note_on_c, 0, 68, 89
1, 202918, Note_on_c, 0, 50, 74
1, 202940, Control_c, 0, 64, 65
1, 202941, Note_off_c, 0, 60, 68
1, 202946, Note_on_c, 0, 74, 37
1, 202952, Note_off_c, 0, 56, 65
1, 202955, Control_c, 0, 64, 81
1, 202964, Note_on_c, 0, 52, 22
1, 202964, Note_off_c, 0, 48, 67
1, 202965, Note_off_c, 0, 50, 64
1, 202969, Control_c, 0, 64, 97
1, 202974, Note_off_c, 0, 74, 55
1, 202976, Note_off_c, 0, 77, 65
1, 202980, Note_off_c, 0, 65, 65
1, 202984, Control_c, 0, 64, 114
1, 202997, Note_off_c, 0, 68, 63
1, 202999, Control_c, 0, 64, 115
1, 203015, Note_off_c, 0, 52, 48
1, 203051, Control_c, 0, 64, 112
1, 203066, Control_c, 0, 64, 98
1, 203081, Control_c, 0, 64, 80
1, 203095, Control_c, 0, 64, 0
1, 203369, Note_on_c, 0, 64, 96
1, 203369, Note_on_c, 0, 76, 93
1, 203370, Note_on_c, 0, 68, 98
1, 203371, Note_on_c, 0, 28, 91
1, 203371, Note_on_c, 0, 40, 99
1, 203373, Note_on_c, 0, 62, 100
1, 203375, Note_on_c, 0, 35, 98
1, 203391, Control_c, 0, 64, 70
1, 203406, Control_c, 0, 64, 81
1, 203409, Note_on_c, 0, 29, 42
1, 203412, Note_off_c, 0, 62, 65
1, 203412, Note_off_c, 0, 64, 64
1, 203420, Note_off_c, 0, 28, 63
1, 203420, Control_c, 0, 64, 88
1, 203425, Note_off_c, 0, 40, 64
1, 203426, Note_off_c, 0, 35, 66
1, 203429, Note_off_c, 0, 68, 66
1, 203432, Note_off_c, 0, 76, 68
1, 203435, Control_c, 0, 64, 94
1, 203450, Control_c, 0, 64, 101
1, 203452, Note_off_c, 0, 29, 50
1, 203465, Control_c, 0, 64, 119
1, 203480, Control_c, 0, 64, 127
1, 203482, Poly_aftertouch_c, 0, 74, 0
1, 203599, Control_c, 0, 64, 123
1, 203614, Control_c, 0, 64, 104
1, 203629, Control_c, 0, 64, 88
1, 203644, Control_c, 0, 64, 71
1, 203659, Control_c, 0, 64, 0
1, 203917, Note_on_c, 0, 45, 97
1, 203918, Note_on_c, 0, 81, 96
1, 203918, Note_on_c, 0, 69, 101
1, 203921, Note_on_c, 0, 33, 87
1, 203922, Note_on_c, 0, 76, 84
1, 203923, Note_on_c, 0, 40, 91
1, 203924, Note_on_c, 0, 72, 87
1, 203945, Note_on_c, 0, 37, 53
1, 203948, Control_c, 0, 64, 70
1, 203951, Note_off_c, 0, 33, 70
1, 203952, Note_off_c, 0, 69, 68
1, 203955, Note_off_c, 0, 40, 67
1, 203955, Note_off_c, 0, 72, 68
1, 203960, Note_off_c, 0, 45, 65
1, 203962, Control_c, 0, 64, 82
1, 203972, Note_off_c, 0, 37, 57
1, 203974, Note_off_c, 0, 81, 62
1, 203975, Note_off_c, 0, 76, 65
1, 203977, Control_c, 0, 64, 89
1, 203992, Control_c, 0, 64, 93
1, 204007, Control_c, 0, 64, 99
1, 204022, Control_c, 0, 64, 105
1, 204031, Poly_aftertouch_c, 0, 34, 0
1, 204036, Control_c, 0, 64, 110
1, 204051, Control_c, 0, 64, 113
1, 204066, Control_c, 0, 64, 116
1, 204081, Control_c, 0, 64, 119
1, 204096, Control_c, 0, 64, 122
1, 204110, Control_c, 0, 64, 124
1, 204125, Control_c, 0, 64, 126
1, 204140, Control_c, 0, 64, 127
1, 204176, Poly_aftertouch_c, 0, 77, 127
1, 204184, Note_on_c, 0, 62, 95
1, 204189, Note_on_c, 0, 68, 102
1, 204193, Note_on_c, 0, 56, 82
1, 204194, Note_on_c, 0, 59, 71
1, 204194, Note_on_c, 0, 80, 86
1, 204197, Note_on_c, 0, 52, 70
1, 204204, Note_on_c, 0, 74, 63
1, 204204, Note_off_c, 0, 62, 71
1, 204219, Note_off_c, 0, 59, 65
1, 204225, Note_off_c, 0, 74, 68
1, 204227, Note_off_c, 0, 52, 67
1, 204227, Note_off_c, 0, 68, 63
1, 204228, Note_off_c, 0, 56, 64
1, 204234, Poly_aftertouch_c, 0, 77, 0
1, 204244, Note_off_c, 0, 80, 65
1, 204300, Note_on_c, 0, 83, 92
1, 204303, Note_on_c, 0, 71, 85
1, 204345, Note_off_c, 0, 71, 62
1, 204345, Note_off_c, 0, 83, 62
1, 204378, Control_c, 0, 64, 94
1, 204392, Control_c, 0, 64, 66
1, 204407, Control_c, 0, 64, 0
1, 204413, Note_on_c, 0, 45, 102
1, 204418, Note_on_c, 0, 33, 87
1, 204419, Note_on_c, 0, 40, 83
1, 204420, Note_on_c, 0, 69, 100
1, 204422, Note_on_c, 0, 81, 101
1, 204423, Note_on_c, 0, 76, 88
1, 204426, Note_on_c, 0, 72, 85
1, 204437, Control_c, 0, 64, 42
1, 204446, Note_off_c, 0, 72, 71
1, 204451, Note_off_c, 0, 33, 69
1, 204452, Control_c, 0, 64, 75
1, 204456, Note_off_c, 0, 40, 67
1, 204461, Note_off_c, 0, 69, 63
1, 204464, Note_off_c, 0, 45, 65
1, 204467, Control_c, 0, 64, 92
1, 204469, Note_off_c, 0, 81, 63
1, 204470, Note_off_c, 0, 76, 63
1, 204482, Control_c, 0, 64, 110
1, 204497, Control_c, 0, 64, 112
1, 204534, Control_c, 0, 64, 113
1, 204535, Poly_aftertouch_c, 0, 35, 0
1, 204548, Control_c, 0, 64, 114
1, 204563, Control_c, 0, 64, 117
1, 204578, Control_c, 0, 64, 121
1, 204592, Control_c, 0, 64, 127
1, 204607, Control_c, 0, 64, 127
1, 204619, Note_on_c, 0, 77, 30
1, 204664, Note_on_c, 0, 62, 94
1, 204666, Note_on_c, 0, 68, 97
1, 204672, Note_on_c, 0, 80, 89
1, 204672, Note_on_c, 0, 56, 77
1, 204672, Note_on_c, 0, 59, 77
1, 204677, Note_off_c, 0, 77, 37
1, 204683, Note_on_c, 0, 78, 68
1, 204684, Note_on_c, 0, 52, 62
1, 204686, Note_off_c, 0, 62, 67
1, 204694, Note_off_c, 0, 59, 68
1, 204699, Note_off_c, 0, 78, 65
1, 204702, Note_off_c, 0, 56, 67
1, 204705, Note_off_c, 0, 68, 66
1, 204715, Note_off_c, 0, 52, 68
1, 204721, Note_off_c, 0, 80, 66
1, 204780, Note_on_c, 0, 83, 93
1, 204781, Note_on_c, 0, 71, 87
1, 204819, Note_off_c, 0, 71, 64
1, 204826, Note_off_c, 0, 83, 63
1, 204833, Note_on_c, 0, 38, 71
1, 204863, Note_on_c, 0, 45, 64
1, 204874, Control_c, 0, 64, 107
1, 204885, Note_on_c, 0, 42, 47
1, 204889, Control_c, 0, 64, 86
1, 204893, Note_on_c, 0, 69, 104
1, 204893, Note_off_c, 0, 38, 64
1, 204894, Note_on_c, 0, 81, 99
1, 204896, Note_on_c, 0, 77, 95
1, 204898, Note_on_c, 0, 74, 91
1, 204904, Control_c, 0, 64, 59
1, 204906, Note_on_c, 0, 53, 95
1, 204917, Note_off_c, 0, 42, 62
1, 204918, Control_c, 0, 64, 0
1, 204926, Note_off_c, 0, 45, 65
1, 204929, Note_off_c, 0, 69, 69
1, 204931, Note_off_c, 0, 74, 62
1, 204940, Note_off_c, 0, 81, 63
1, 204943, Note_off_c, 0, 53, 67
1, 204946, Note_off_c, 0, 77, 63
1, 205170, Note_on_c, 0, 77, 50
1, 205176, Note_on_c, 0, 68, 100
1, 205178, Note_on_c, 0, 80, 99
1, 205179, Note_on_c, 0, 74, 87
1, 205181, Note_on_c, 0, 62, 97
1, 205183, Note_on_c, 0, 59, 91
1, 205188, Note_on_c, 0, 52, 75
1, 205190, Note_on_c, 0, 56, 80
1, 205203, Note_off_c, 0, 59, 70
1, 205206, Note_off_c, 0, 62, 66
1, 205206, Note_off_c, 0, 68, 66
1, 205216, Note_off_c, 0, 74, 66
1, 205225, Note_off_c, 0, 56, 65
1, 205226, Note_off_c, 0, 52, 68
1, 205227, Note_off_c, 0, 77, 62
1, 205227, Note_off_c, 0, 80, 67
1, 205514, Note_on_c, 0, 76, 63
1, 205517, Note_on_c, 0, 69, 95
1, 205519, Note_on_c, 0, 81, 96
1, 205522, Note_on_c, 0, 45, 97
1, 205524, Note_on_c, 0, 72, 90
1, 205525, Note_on_c, 0, 33, 85
1, 205528, Note_on_c, 0, 40, 87
1, 205530, Note_on_c, 0, 36, 74
1, 205534, Control_c, 0, 64, 64
1, 205549, Control_c, 0, 64, 73
1, 205564, Control_c, 0, 64, 77
1, 205579, Control_c, 0, 64, 81
1, 205594, Control_c, 0, 64, 86
1, 205608, Control_c, 0, 64, 92
1, 205623, Control_c, 0, 64, 98
1, 205638, Control_c, 0, 64, 104
1, 205653, Control_c, 0, 64, 109
1, 205668, Control_c, 0, 64, 112
1, 205681, Control_c, 0, 64, 112
1, 205711, Control_c, 0, 64, 113
1, 205726, Control_c, 0, 64, 113
1, 205734, Note_off_c, 0, 69, 60
1, 205738, Note_off_c, 0, 33, 62
1, 205740, Control_c, 0, 64, 116
1, 205744, Note_off_c, 0, 81, 54
1, 205747, Note_off_c, 0, 72, 61
1, 205752, Note_off_c, 0, 36, 63
1, 205755, Control_c, 0, 64, 119
1, 205756, Note_off_c, 0, 40, 62
1, 205765, Note_off_c, 0, 45, 63
1, 205769, Note_off_c, 0, 76, 64
1, 205770, Control_c, 0, 64, 122
1, 205785, Control_c, 0, 64, 124
1, 205800, Control_c, 0, 64, 125
1, 205814, Control_c, 0, 64, 127
1, 205829, Control_c, 0, 64, 127
1, 205993, Control_c, 0, 64, 122
1, 206016, Control_c, 0, 64, 95
1, 206031, Control_c, 0, 64, 69
1, 206037, Note_on_c, 0, 69, 99
1, 206037, Note_on_c, 0, 81, 89
1, 206039, Note_on_c, 0, 57, 47
1, 206041, Note_on_c, 0, 65, 94
1, 206042, Note_on_c, 0, 62, 81
1, 206042, Note_on_c, 0, 74, 80
1, 206043, Note_on_c, 0, 77, 78
1, 206045, Control_c, 0, 64, 0
1, 206050, Note_on_c, 0, 53, 70
1, 206075, Control_c, 0, 64, 56
1, 206082, Note_off_c, 0, 62, 64
1, 206083, Note_off_c, 0, 69, 66
1, 206085, Note_off_c, 0, 65, 67
1, 206090, Control_c, 0, 64, 77
1, 206097, Note_off_c, 0, 81, 62
1, 206100, Note_off_c, 0, 53, 66
1, 206103, Note_off_c, 0, 57, 63
1, 206104, Note_off_c, 0, 74, 63
1, 206105, Control_c, 0, 64, 95
1, 206119, Control_c, 0, 64, 115
1, 206120, Note_off_c, 0, 77, 60
1, 206134, Control_c, 0, 64, 119
1, 206149, Control_c, 0, 64, 124
1, 206163, Control_c, 0, 64, 127
1, 206190, Note_on_c, 0, 68, 97
1, 206190, Note_on_c, 0, 80, 91
1, 206198, Note_on_c, 0, 64, 87
1, 206210, Note_on_c, 0, 52, 76
1, 206229, Note_on_c, 0, 78, 37
1, 206230, Note_off_c, 0, 78, 127
1, 206234, Note_off_c, 0, 68, 62
1, 206237, Note_off_c, 0, 52, 68
1, 206245, Note_off_c, 0, 64, 64
1, 206246, Note_off_c, 0, 80, 64
1, 206307, Note_on_c, 0, 69, 98
1, 206311, Note_on_c, 0, 81, 100
1, 206317, Note_on_c, 0, 65, 94
1, 206324, Note_on_c, 0, 53, 82
1, 206350, Note_off_c, 0, 69, 69
1, 206353, Note_off_c, 0, 53, 69
1, 206355, Note_off_c, 0, 65, 67
1, 206357, Note_off_c, 0, 81, 66
1, 206422, Note_on_c, 0, 71, 91
1, 206423, Note_on_c, 0, 83, 93
1, 206434, Note_on_c, 0, 62, 94
1, 206448, Note_on_c, 0, 50, 73
1, 206461, Note_off_c, 0, 71, 63
1, 206476, Note_off_c, 0, 50, 67
1, 206482, Note_off_c, 0, 62, 61
1, 206483, Note_off_c, 0, 83, 56
1, 206594, Control_c, 0, 64, 117
1, 206604, Note_on_c, 0, 60, 99
1, 206605, Note_on_c, 0, 79, 84
1, 206607, Note_on_c, 0, 72, 103
1, 206608, Note_on_c, 0, 76, 93
1, 206609, Note_on_c, 0, 48, 89
1, 206609, Control_c, 0, 64, 89
1, 206610, Note_on_c, 0, 52, 83
1, 206610, Note_on_c, 0, 84, 101
1, 206611, Note_on_c, 0, 55, 83
1, 206624, Control_c, 0, 64, 38
1, 206632, Note_on_c, 0, 81, 62
1, 206638, Control_c, 0, 64, 0
1, 206649, Note_off_c, 0, 81, 64
1, 206712, Control_c, 0, 64, 65
1, 206728, Control_c, 0, 64, 74
1, 206743, Control_c, 0, 64, 81
1, 206765, Control_c, 0, 64, 88
1, 206780, Control_c, 0, 64, 94
1, 206795, Control_c, 0, 64, 99
1, 206810, Control_c, 0, 64, 103
1, 206825, Control_c, 0, 64, 108
1, 206834, Note_off_c, 0, 60, 57
1, 206840, Control_c, 0, 64, 113
1, 206844, Note_off_c, 0, 55, 59
1, 206854, Note_off_c, 0, 84, 57
1, 206854, Control_c, 0, 64, 119
1, 206861, Note_off_c, 0, 72, 54
1, 206869, Note_off_c, 0, 52, 63
1, 206869, Control_c, 0, 64, 126
1, 206875, Note_off_c, 0, 76, 61
1, 206884, Control_c, 0, 64, 127
1, 206887, Note_off_c, 0, 48, 65
1, 206892, Note_off_c, 0, 79, 59
1, 207150, Control_c, 0, 64, 116
1, 207165, Note_on_c, 0, 72, 97
1, 207165, Note_on_c, 0, 84, 88
1, 207165, Control_c, 0, 64, 84
1, 207166, Note_on_c, 0, 41, 97
1, 207167, Note_on_c, 0, 77, 89
1, 207167, Note_on_c, 0, 80, 83
1, 207170, Note_on_c, 0, 29, 76
1, 207172, Note_on_c, 0, 32, 81
1, 207180, Control_c, 0, 64, 0
1, 207182, Note_on_c, 0, 35, 71
1, 207217, Note_off_c, 0, 72, 61
1, 207220, Note_off_c, 0, 41, 66
1, 207224, Control_c, 0, 64, 65
1, 207233, Note_off_c, 0, 77, 58
1, 207234, Note_off_c, 0, 84, 63
1, 207237, Note_off_c, 0, 29, 62
1, 207239, Control_c, 0, 64, 83
1, 207246, Note_off_c, 0, 35, 58
1, 207249, Note_off_c, 0, 80, 63
1, 207253, Note_off_c, 0, 32, 61
1, 207254, Control_c, 0, 64, 102
1, 207269, Control_c, 0, 64, 116
1, 207284, Control_c, 0, 64, 117
1, 207299, Control_c, 0, 64, 119
1, 207313, Control_c, 0, 64, 124
1, 207323, Note_on_c, 0, 83, 90
1, 207324, Note_on_c, 0, 71, 88
1, 207328, Control_c, 0, 64, 127
1, 207331, Note_on_c, 0, 40, 84
1, 207331, Note_on_c, 0, 28, 80
1, 207376, Note_off_c, 0, 71, 59
1, 207376, Note_off_c, 0, 28, 61
1, 207379, Note_off_c, 0, 40, 63
1, 207380, Note_off_c, 0, 83, 64
1, 207457, Note_on_c, 0, 41, 90
1, 207460, Note_on_c, 0, 69, 95
1, 207460, Note_on_c, 0, 81, 98
1, 207466, Note_on_c, 0, 29, 78
1, 207510, Note_off_c, 0, 81, 65
1, 207512, Note_off_c, 0, 29, 64
1, 207512, Note_off_c, 0, 41, 67
1, 207512, Note_off_c, 0, 69, 68
1, 207589, Note_on_c, 0, 68, 100
1, 207593, Note_on_c, 0, 80, 90
1, 207596, Note_on_c, 0, 44, 86
1, 207612, Note_on_c, 0, 32, 67
1, 207623, Note_off_c, 0, 44, 68
1, 207628, Note_off_c, 0, 68, 66
1, 207638, Note_off_c, 0, 32, 65
1, 207641, Note_off_c, 0, 80, 63
1, 207781, Control_c, 0, 64, 95
1, 207796, Control_c, 0, 64, 67
1, 207796, Note_on_c, 0, 28, 31
1, 207798, Note_on_c, 0, 69, 102
1, 207799, Note_on_c, 0, 76, 79
1, 207801, Note_on_c, 0, 72, 84
1, 207802, Note_on_c, 0, 33, 90
1, 207802, Note_on_c, 0, 81, 98
1, 207802, Note_on_c, 0, 24, 64
1, 207808, Note_on_c, 0, 21, 85
1, 207810, Control_c, 0, 64, 0
1, 207822, Note_on_c, 0, 78, 70
1, 207838, Note_on_c, 0, 79, 44
1, 207839, Note_off_c, 0, 79, 127
1, 207846, Note_off_c, 0, 78, 56
1, 207870, Control_c, 0, 64, 21
1, 207884, Control_c, 0, 64, 76
1, 207899, Control_c, 0, 64, 89
1, 207914, Control_c, 0, 64, 99
1, 207929, Control_c, 0, 64, 102
1, 207931, Note_off_c, 0, 69, 47
1, 207943, Note_off_c, 0, 72, 58
1, 207943, Control_c, 0, 64, 105
1, 207958, Control_c, 0, 64, 108
1, 207972, Note_off_c, 0, 76, 64
1, 207973, Control_c, 0, 64, 112
1, 207988, Control_c, 0, 64, 115
1, 207995, Note_off_c, 0, 81, 60
1, 208003, Control_c, 0, 64, 117
1, 208017, Control_c, 0, 64, 117
1, 208023, Note_off_c, 0, 21, 58
1, 208032, Control_c, 0, 64, 119
1, 208047, Control_c, 0, 64, 120
1, 208062, Note_off_c, 0, 24, 39
1, 208062, Note_off_c, 0, 33, 65
1, 208062, Control_c, 0, 64, 121
1, 208077, Control_c, 0, 64, 122
1, 208079, Note_off_c, 0, 28, 39
1, 208106, Control_c, 0, 64, 123
1, 208121, Control_c, 0, 64, 124
1, 208136, Control_c, 0, 64, 124
1, 208166, Control_c, 0, 64, 125
1, 208181, Control_c, 0, 64, 125
1, 208196, Control_c, 0, 64, 126
1, 208210, Control_c, 0, 64, 127
1, 208225, Control_c, 0, 64, 127
1, 208229, Note_on_c, 0, 84, 96
1, 208229, Note_on_c, 0, 96, 94
1, 208281, Note_off_c, 0, 84, 65
1, 208288, Note_off_c, 0, 96, 65
1, 208381, Control_c, 0, 64, 108
1, 208396, Control_c, 0, 64, 80
1, 208406, Note_on_c, 0, 95, 89
1, 208408, Note_on_c, 0, 71, 97
1, 208408, Note_on_c, 0, 68, 92
1, 208409, Note_on_c, 0, 83, 90
1, 208411, Note_on_c, 0, 59, 68
1, 208411, Control_c, 0, 64, 0
1, 208412, Note_on_c, 0, 64, 70
1, 208412, Note_on_c, 0, 92, 85
1, 208417, Note_on_c, 0, 88, 65
1, 208444, Note_off_c, 0, 71, 63
1, 208452, Note_off_c, 0, 68, 64
1, 208452, Note_off_c, 0, 88, 59
1, 208455, Control_c, 0, 64, 68
1, 208465, Note_off_c, 0, 83, 59
1, 208470, Note_off_c, 0, 64, 66
1, 208470, Control_c, 0, 64, 84
1, 208473, Note_off_c, 0, 95, 63
1, 208479, Note_off_c, 0, 59, 64
1, 208485, Control_c, 0, 64, 101
1, 208497, Note_off_c, 0, 92, 64
1, 208500, Control_c, 0, 64, 111
1, 208515, Control_c, 0, 64, 112
1, 208530, Control_c, 0, 64, 114
1, 208545, Control_c, 0, 64, 118
1, 208551, Note_on_c, 0, 81, 88
1, 208554, Note_on_c, 0, 93, 90
1, 208559, Control_c, 0, 64, 121
1, 208574, Control_c, 0, 64, 123
1, 208589, Control_c, 0, 64, 124
1, 208596, Note_off_c, 0, 81, 64
1, 208601, Note_off_c, 0, 93, 63
1, 208604, Control_c, 0, 64, 124
1, 208619, Control_c, 0, 64, 126
1, 208633, Control_c, 0, 64, 127
1, 208674, Note_on_c, 0, 40, 96
1, 208682, Note_on_c, 0, 80, 92
1, 208683, Note_on_c, 0, 92, 94
1, 208700, Note_on_c, 0, 28, 51
1, 208706, Note_off_c, 0, 40, 67
1, 208720, Note_off_c, 0, 80, 59
1, 208727, Note_off_c, 0, 92, 65
1, 208732, Note_off_c, 0, 28, 53
1, 208808, Note_on_c, 0, 95, 82
1, 208811, Note_on_c, 0, 83, 78
1, 208851, Note_off_c, 0, 83, 58
1, 208852, Note_off_c, 0, 95, 64
1, 208900, Control_c, 0, 64, 109
1, 208914, Control_c, 0, 64, 77
1, 208929, Control_c, 0, 64, 0
1, 208940, Note_on_c, 0, 73, 92
1, 208940, Note_on_c, 0, 93, 90
1, 208941, Note_on_c, 0, 69, 86
1, 208941, Note_on_c, 0, 66, 71
1, 208941, Note_on_c, 0, 81, 95
1, 208943, Note_on_c, 0, 61, 69
1, 208947, Note_on_c, 0, 85, 78
1, 208947, Note_on_c, 0, 90, 86
1, 208974, Control_c, 0, 64, 65
1, 208978, Note_off_c, 0, 73, 60
1, 208980, Note_off_c, 0, 93, 64
1, 208985, Note_off_c, 0, 81, 60
1, 208986, Note_off_c, 0, 85, 58
1, 208989, Control_c, 0, 64, 85
1, 208992, Note_off_c, 0, 90, 61
1, 209011, Control_c, 0, 64, 109
1, 209016, Note_off_c, 0, 69, 51
1, 209026, Control_c, 0, 64, 123
1, 209040, Control_c, 0, 64, 124
1, 209055, Control_c, 0, 64, 127
1, 209060, Note_off_c, 0, 66, 65
1, 209067, Note_off_c, 0, 61, 62
1, 209084, Note_on_c, 0, 73, 93
1, 209096, Note_on_c, 0, 85, 79
1, 209116, Note_off_c, 0, 73, 63
1, 209132, Note_off_c, 0, 85, 64
1, 209198, Note_on_c, 0, 78, 94
1, 209206, Note_on_c, 0, 90, 91
1, 209235, Note_off_c, 0, 78, 64
1, 209248, Note_off_c, 0, 90, 62
1, 209311, Note_on_c, 0, 81, 103
1, 209320, Note_on_c, 0, 93, 84
1, 209335, Note_on_c, 0, 91, 70
1, 209347, Note_off_c, 0, 81, 65
1, 209350, Note_off_c, 0, 91, 43
1, 209350, Note_off_c, 0, 93, 62
1, 209382, Control_c, 0, 64, 105
1, 209397, Control_c, 0, 64, 75
1, 209412, Control_c, 0, 64, 0
1, 209421, Note_on_c, 0, 68, 96
1, 209427, Note_on_c, 0, 64, 78
1, 209429, Note_on_c, 0, 56, 66
1, 209430, Note_on_c, 0, 80, 100
1, 209433, Note_on_c, 0, 92, 92
1, 209440, Note_on_c, 0, 59, 49
1, 209442, Control_c, 0, 64, 69
1, 209443, Note_off_c, 0, 68, 68
1, 209444, Note_on_c, 0, 90, 75
1, 209448, Note_off_c, 0, 64, 68
1, 209457, Control_c, 0, 64, 88
1, 209458, Note_off_c, 0, 90, 68
1, 209468, Note_off_c, 0, 80, 66
1, 209472, Control_c, 0, 64, 116
1, 209473, Note_on_c, 0, 60, 33
1, 209473, Note_off_c, 0, 59, 64
1, 209474, Note_off_c, 0, 92, 65
1, 209484, Note_off_c, 0, 56, 64
1, 209487, Control_c, 0, 64, 127
1, 209505, Note_off_c, 0, 60, 48
1, 209544, Note_on_c, 0, 78, 82
1, 209544, Note_on_c, 0, 90, 90
1, 209566, Note_off_c, 0, 78, 65
1, 209568, Note_on_c, 0, 80, 57
1, 209588, Note_off_c, 0, 80, 60
1, 209592, Note_off_c, 0, 90, 64
1, 209658, Note_on_c, 0, 76, 95
1, 209664, Note_on_c, 0, 88, 91
1, 209665, Note_on_c, 0, 40, 70
1, 209667, Note_on_c, 0, 41, 73
1, 209673, Note_on_c, 0, 29, 60
1, 209688, Note_off_c, 0, 76, 71
1, 209691, Note_off_c, 0, 41, 65
1, 209696, Note_off_c, 0, 88, 67
1, 209698, Note_off_c, 0, 40, 65
1, 209714, Note_off_c, 0, 29, 47
1, 209777, Note_on_c, 0, 92, 99
1, 209779, Note_on_c, 0, 80, 86
1, 209804, Note_on_c, 0, 82, 53
1, 209807, Note_off_c, 0, 80, 59
1, 209819, Note_off_c, 0, 92, 63
1, 209829, Note_off_c, 0, 82, 40
1, 209864, Control_c, 0, 64, 100
1, 209879, Control_c, 0, 64, 69
1, 209888, Note_on_c, 0, 57, 51
1, 209894, Control_c, 0, 64, 0
1, 209896, Note_on_c, 0, 66, 98
1, 209898, Note_on_c, 0, 60, 75
1, 209902, Note_on_c, 0, 90, 89
1, 209904, Note_on_c, 0, 54, 67
1, 209904, Note_on_c, 0, 87, 82
1, 209907, Note_on_c, 0, 78, 83
1, 209907, Note_on_c, 0, 80, 73
1, 209921, Note_off_c, 0, 80, 69
1, 209922, Note_off_c, 0, 87, 62
1, 209923, Control_c, 0, 64, 67
1, 209931, Note_off_c, 0, 78, 64
1, 209939, Note_off_c, 0, 90, 58
1, 209940, Control_c, 0, 64, 84
1, 209954, Control_c, 0, 64, 103
1, 209969, Control_c, 0, 64, 119
1, 209981, Note_off_c, 0, 66, 64
1, 209984, Control_c, 0, 64, 120
1, 209999, Control_c, 0, 64, 121
1, 210002, Note_off_c, 0, 60, 59
1, 210013, Control_c, 0, 64, 122
1, 210028, Control_c, 0, 64, 125
1, 210029, Note_off_c, 0, 57, 61
1, 210032, Note_on_c, 0, 81, 89
1, 210034, Note_on_c, 0, 69, 84
1, 210043, Control_c, 0, 64, 127
1, 210046, Note_off_c, 0, 54, 61
1, 210056, Note_off_c, 0, 69, 69
1, 210070, Note_off_c, 0, 81, 65
1, 210142, Note_on_c, 0, 84, 86
1, 210142, Note_on_c, 0, 72, 76
1, 210158, Note_on_c, 0, 71, 50
1, 210160, Note_off_c, 0, 84, 73
1, 210165, Note_off_c, 0, 72, 71
1, 210178, Note_off_c, 0, 71, 59
1, 210204, Control_c, 0, 64, 127
1, 210241, Note_on_c, 0, 87, 94
1, 210244, Note_on_c, 0, 75, 95
1, 210260, Note_off_c, 0, 75, 72
1, 210273, Note_off_c, 0, 87, 54
1, 210276, Note_on_c, 0, 88, 46
1, 210277, Note_off_c, 0, 88, 127
1, 210308, Control_c, 0, 64, 106
1, 210322, Control_c, 0, 64, 80
1, 210337, Control_c, 0, 64, 0
1, 210364, Note_on_c, 0, 40, 88
1, 210365, Note_on_c, 0, 28, 74
1, 210366, Note_on_c, 0, 90, 100
1, 210366, Note_on_c, 0, 32, 80
1, 210367, Control_c, 0, 64, 56
1, 210369, Note_on_c, 0, 78, 90
1, 210372, Note_on_c, 0, 80, 84
1, 210379, Note_on_c, 0, 35, 64
1, 210382, Control_c, 0, 64, 74
1, 210390, Note_off_c, 0, 80, 72
1, 210396, Control_c, 0, 64, 88
1, 210398, Note_off_c, 0, 28, 64
1, 210400, Note_off_c, 0, 32, 65
1, 210400, Note_off_c, 0, 40, 65
1, 210400, Note_off_c, 0, 78, 64
1, 210404, Note_off_c, 0, 35, 62
1, 210407, Note_off_c, 0, 90, 63
1, 210411, Control_c, 0, 64, 101
1, 210426, Control_c, 0, 64, 103
1, 210441, Control_c, 0, 64, 104
1, 210456, Control_c, 0, 64, 105
1, 210470, Control_c, 0, 64, 107
1, 210481, Note_on_c, 0, 76, 94
1, 210483, Note_on_c, 0, 88, 88
1, 210485, Control_c, 0, 64, 110
1, 210508, Control_c, 0, 64, 113
1, 210523, Control_c, 0, 64, 116
1, 210525, Note_off_c, 0, 88, 57
1, 210527, Note_off_c, 0, 76, 65
1, 210537, Control_c, 0, 64, 118
1, 210582, Control_c, 0, 64, 118
1, 210588, Note_on_c, 0, 76, 94
1, 210594, Note_on_c, 0, 84, 85
1, 210595, Note_on_c, 0, 40, 82
1, 210596, Note_on_c, 0, 45, 94
1, 210597, Note_on_c, 0, 88, 85
1, 210598, Note_on_c, 0, 81, 83
1, 210601, Note_on_c, 0, 33, 77
1, 210605, Note_on_c, 0, 36, 64
1, 210619, Note_off_c, 0, 40, 69
1, 210619, Note_off_c, 0, 76, 69
1, 210619, Note_off_c, 0, 88, 66
1, 210625, Note_on_c, 0, 86, 34
1, 210625, Note_off_c, 0, 33, 66
1, 210625, Note_off_c, 0, 45, 64
1, 210629, Note_off_c, 0, 36, 66
1, 210635, Note_off_c, 0, 84, 66
1, 210637, Note_off_c, 0, 81, 59
1, 210656, Control_c, 0, 64, 117
1, 210657, Note_off_c, 0, 86, 32
1, 210671, Control_c, 0, 64, 112
1, 210685, Control_c, 0, 64, 99
1, 210700, Control_c, 0, 64, 80
1, 210702, Note_on_c, 0, 75, 86
1, 210702, Note_on_c, 0, 87, 92
1, 210715, Control_c, 0, 64, 0
1, 210724, Note_off_c, 0, 75, 64
1, 210736, Note_on_c, 0, 88, 48
1, 210737, Note_off_c, 0, 88, 127
1, 210737, Note_off_c, 0, 87, 56
1, 210739, Note_on_c, 0, 78, 33
1, 210740, Note_off_c, 0, 78, 127
1, 210741, Note_on_c, 0, 85, 27
1, 210742, Note_off_c, 0, 85, 127
1, 210790, Control_c, 0, 64, 65
1, 210805, Control_c, 0, 64, 78
1, 210808, Note_on_c, 0, 52, 106
1, 210812, Note_on_c, 0, 47, 85
1, 210813, Note_on_c, 0, 44, 64
1, 210813, Note_on_c, 0, 90, 102
1, 210816, Note_on_c, 0, 40, 73
1, 210820, Control_c, 0, 64, 90
1, 210821, Note_on_c, 0, 78, 91
1, 210828, Note_on_c, 0, 80, 73
1, 210834, Control_c, 0, 64, 101
1, 210842, Note_off_c, 0, 80, 70
1, 210844, Note_off_c, 0, 52, 69
1, 210846, Note_off_c, 0, 47, 65
1, 210848, Note_off_c, 0, 40, 63
1, 210849, Control_c, 0, 64, 108
1, 210851, Note_off_c, 0, 78, 60
1, 210852, Note_off_c, 0, 44, 65
1, 210853, Note_off_c, 0, 90, 65
1, 210864, Control_c, 0, 64, 111
1, 210879, Control_c, 0, 64, 114
1, 210894, Control_c, 0, 64, 116
1, 210909, Control_c, 0, 64, 117
1, 210923, Control_c, 0, 64, 117
1, 210927, Note_on_c, 0, 76, 95
1, 210929, Note_on_c, 0, 88, 93
1, 210938, Control_c, 0, 64, 118
1, 210953, Control_c, 0, 64, 119
1, 210965, Note_off_c, 0, 76, 65
1, 210968, Note_off_c, 0, 88, 61
1, 210968, Control_c, 0, 64, 119
1, 210983, Control_c, 0, 64, 120
1, 211027, Control_c, 0, 64, 120
1, 211029, Note_on_c, 0, 76, 90
1, 211031, Note_on_c, 0, 57, 96
1, 211033, Note_on_c, 0, 88, 84
1, 211034, Note_on_c, 0, 52, 78
1, 211040, Note_on_c, 0, 48, 62
1, 211040, Note_on_c, 0, 45, 74
1, 211055, Note_off_c, 0, 52, 72
1, 211057, Control_c, 0, 64, 121
1, 211064, Note_off_c, 0, 76, 69
1, 211066, Note_off_c, 0, 45, 66
1, 211067, Note_off_c, 0, 48, 66
1, 211068, Note_on_c, 0, 86, 17
1, 211069, Note_off_c, 0, 57, 62
1, 211069, Note_off_c, 0, 88, 63
1, 211072, Control_c, 0, 64, 120
1, 211101, Control_c, 0, 64, 120
1, 211110, Note_off_c, 0, 86, 28
1, 211116, Control_c, 0, 64, 118
1, 211131, Control_c, 0, 64, 110
1, 211132, Note_on_c, 0, 75, 103
1, 211137, Note_on_c, 0, 87, 87
1, 211145, Control_c, 0, 64, 98
1, 211160, Control_c, 0, 64, 81
1, 211168, Note_off_c, 0, 75, 68
1, 211175, Control_c, 0, 64, 51
1, 211189, Note_off_c, 0, 87, 63
1, 211190, Control_c, 0, 64, 0
1, 211281, Note_on_c, 0, 56, 58
1, 211283, Note_on_c, 0, 83, 71
1, 211285, Note_on_c, 0, 76, 99
1, 211287, Note_on_c, 0, 64, 98
1, 211287, Note_on_c, 0, 80, 88
1, 211292, Note_on_c, 0, 88, 91
1, 211293, Note_on_c, 0, 52, 74
1, 211295, Note_on_c, 0, 59, 71
1, 211301, Control_c, 0, 64, 68
1, 211308, Note_off_c, 0, 64, 71
1, 211314, Note_off_c, 0, 59, 68
1, 211316, Control_c, 0, 64, 86
1, 211317, Note_off_c, 0, 76, 69
1, 211329, Note_off_c, 0, 52, 66
1, 211331, Note_on_c, 0, 86, 21
1, 211331, Control_c, 0, 64, 97
1, 211333, Note_off_c, 0, 80, 65
1, 211335, Note_off_c, 0, 56, 65
1, 211337, Note_off_c, 0, 83, 63
1, 211346, Control_c, 0, 64, 104
1, 211347, Note_off_c, 0, 88, 65
1, 211360, Control_c, 0, 64, 109
1, 211369, Note_off_c, 0, 86, 33
1, 211375, Control_c, 0, 64, 114
1, 211390, Control_c, 0, 64, 119
1, 211405, Control_c, 0, 64, 127
1, 211420, Control_c, 0, 64, 127
1, 211541, Note_on_c, 0, 87, 97
1, 211542, Note_on_c, 0, 99, 102
1, 211548, Note_on_c, 0, 39, 88
1, 211559, Note_on_c, 0, 27, 76
1, 211580, Note_off_c, 0, 87, 61
1, 211585, Note_off_c, 0, 39, 64
1, 211586, Note_off_c, 0, 99, 67
1, 211593, Note_off_c, 0, 27, 61
1, 211659, Note_on_c, 0, 38, 89
1, 211661, Note_on_c, 0, 88, 94
1, 211662, Note_on_c, 0, 100, 102
1, 211690, Note_on_c, 0, 26, 49
1, 211703, Note_off_c, 0, 88, 64
1, 211707, Note_off_c, 0, 38, 63
1, 211707, Note_off_c, 0, 100, 67
1, 211727, Note_off_c, 0, 26, 55
1, 211771, Note_on_c, 0, 37, 96
1, 211771, Note_on_c, 0, 89, 103
1, 211773, Note_on_c, 0, 101, 103
1, 211776, Poly_aftertouch_c, 0, 29, 127
1, 211783, Note_on_c, 0, 25, 84
1, 211808, Note_off_c, 0, 89, 68
1, 211809, Note_off_c, 0, 101, 68
1, 211816, Note_on_c, 0, 100, 36
1, 211817, Note_off_c, 0, 100, 127
1, 211817, Note_off_c, 0, 37, 64
1, 211822, Note_off_c, 0, 25, 66
1, 211847, Poly_aftertouch_c, 0, 29, 0
1, 211875, Note_on_c, 0, 90, 106
1, 211876, Note_on_c, 0, 102, 104
1, 211881, Note_on_c, 0, 36, 91
1, 211896, Note_on_c, 0, 24, 80
1, 211906, Note_off_c, 0, 90, 67
1, 211918, Note_off_c, 0, 36, 63
1, 211921, Note_off_c, 0, 102, 67
1, 211922, Note_off_c, 0, 24, 60
1, 211990, Note_on_c, 0, 35, 93
1, 211991, Note_on_c, 0, 91, 103
1, 212003, Note_on_c, 0, 103, 107
1, 212017, Note_on_c, 0, 23, 77
1, 212025, Note_on_c, 0, 102, 65
1, 212035, Note_off_c, 0, 35, 64
1, 212037, Note_off_c, 0, 91, 65
1, 212039, Note_off_c, 0, 103, 65
1, 212048, Note_off_c, 0, 102, 37
1, 212050, Note_off_c, 0, 23, 61
1, 212107, Note_on_c, 0, 92, 103
1, 212109, Note_on_c, 0, 34, 88
1, 212113, Note_on_c, 0, 104, 100
1, 212136, Note_on_c, 0, 102, 57
1, 212137, Note_off_c, 0, 102, 127
1, 212139, Note_on_c, 0, 22, 57
1, 212143, Note_off_c, 0, 92, 67
1, 212155, Note_off_c, 0, 34, 62
1, 212176, Note_off_c, 0, 22, 50
1, 212176, Note_off_c, 0, 104, 64
1, 212214, Control_c, 0, 64, 111
1, 212229, Control_c, 0, 64, 78
1, 212244, Control_c, 0, 64, 0
1, 212282, Note_on_c, 0, 33, 91
1, 212282, Note_on_c, 0, 100, 100
1, 212286, Note_on_c, 0, 25, 84
1, 212286, Note_on_c, 0, 105, 102
1, 212288, Control_c, 0, 64, 73
1, 212289, Note_on_c, 0, 93, 99
1, 212289, Note_on_c, 0, 21, 83
1, 212289, Note_on_c, 0, 97, 98
1, 212295, Note_on_c, 0, 28, 81
1, 212296, Note_on_c, 0, 95, 92
1, 212302, Control_c, 0, 64, 100
1, 212310, Note_off_c, 0, 21, 62
1, 212314, Note_off_c, 0, 105, 70
1, 212317, Control_c, 0, 64, 127
1, 212318, Note_off_c, 0, 95, 66
1, 212326, Note_off_c, 0, 100, 68
1, 212327, Note_off_c, 0, 28, 62
1, 212327, Note_off_c, 0, 93, 63
1, 212332, Note_off_c, 0, 25, 64
1, 212332, Note_off_c, 0, 33, 67
1, 212336, Note_off_c, 0, 97, 66
1, 212382, Poly_aftertouch_c, 0, 22, 0
1, 212569, Note_on_c, 0, 76, 69
1, 212569, Note_on_c, 0, 69, 83
1, 212570, Note_on_c, 0, 73, 82
1, 212572, Note_on_c, 0, 81, 81
1, 212578, Note_on_c, 0, 61, 78
1, 212580, Note_on_c, 0, 64, 82
1, 212590, Note_off_c, 0, 69, 73
1, 212594, Note_on_c, 0, 57, 61
1, 212596, Note_off_c, 0, 73, 67
1, 212596, Note_off_c, 0, 81, 65
1, 212602, Note_off_c, 0, 64, 69
1, 212610, Note_off_c, 0, 61, 62
1, 212611, Note_on_c, 0, 52, 46
1, 212613, Note_off_c, 0, 76, 66
1, 212621, Note_off_c, 0, 57, 65
1, 212648, Note_on_c, 0, 76, 73
1, 212649, Note_on_c, 0, 81, 82
1, 212650, Note_on_c, 0, 69, 85
1, 212652, Note_on_c, 0, 73, 78
1, 212665, Note_on_c, 0, 61, 82
1, 212670, Note_off_c, 0, 69, 72
1, 212671, Note_off_c, 0, 73, 69
1, 212672, Note_off_c, 0, 52, 0
1, 212672, Note_on_c, 0, 52, 31
1, 212672, Note_on_c, 0, 64, 74
1, 212682, Note_on_c, 0, 57, 73
1, 212687, Note_off_c, 0, 81, 56
1, 212688, Note_on_c, 0, 78, 31
1, 212691, Note_off_c, 0, 64, 73
1, 212691, Note_off_c, 0, 61, 60
1, 212700, Note_off_c, 0, 76, 64
1, 212704, Note_off_c, 0, 57, 69
1, 212706, Note_off_c, 0, 52, 54
1, 212719, Note_off_c, 0, 78, 33
1, 212728, Note_on_c, 0, 76, 77
1, 212733, Note_on_c, 0, 81, 80
1, 212734, Note_on_c, 0, 69, 95
1, 212736, Note_on_c, 0, 73, 88
1, 212751, Note_on_c, 0, 52, 70
1, 212753, Note_on_c, 0, 64, 93
1, 212754, Note_on_c, 0, 61, 92
1, 212763, Note_off_c, 0, 73, 68
1, 212764, Note_on_c, 0, 57, 77
1, 212768, Note_off_c, 0, 69, 67
1, 212781, Note_off_c, 0, 81, 62
1, 212782, Note_off_c, 0, 64, 62
1, 212792, Note_off_c, 0, 61, 62
1, 212797, Note_off_c, 0, 52, 62
1, 212813, Note_on_c, 0, 81, 78
1, 212813, Note_on_c, 0, 69, 95
1, 212818, Note_on_c, 0, 73, 98
1, 212825, Note_off_c, 0, 57, 0
1, 212831, Note_on_c, 0, 52, 51
1, 212833, Note_on_c, 0, 64, 88
1, 212834, Note_on_c, 0, 61, 80
1, 212837, Note_on_c, 0, 57, 63
1, 212844, Note_off_c, 0, 69, 71
1, 212856, Note_off_c, 0, 73, 63
1, 212865, Note_off_c, 0, 76, 68
1, 212867, Note_off_c, 0, 64, 62
1, 212867, Note_off_c, 0, 61, 63
1, 212871, Note_on_c, 0, 79, 5
1, 212872, Note_off_c, 0, 79, 127
1, 212872, Note_off_c, 0, 52, 65
1, 212875, Note_off_c, 0, 81, 64
1, 212878, Note_off_c, 0, 57, 63
1, 212934, Poly_aftertouch_c, 0, 53, 0
1, 213065, Note_on_c, 0, 80, 96
1, 213066, Note_on_c, 0, 92, 97
1, 213067, Control_c, 0, 64, 124
1, 213068, Note_on_c, 0, 86, 82
1, 213076, Note_on_c, 0, 65, 97
1, 213078, Note_on_c, 0, 56, 76
1, 213080, Note_on_c, 0, 90, 75
1, 213081, Control_c, 0, 64, 98
1, 213096, Control_c, 0, 64, 77
1, 213099, Note_off_c, 0, 80, 64
1, 213105, Note_off_c, 0, 86, 64
1, 213106, Note_off_c, 0, 90, 67
1, 213111, Note_off_c, 0, 56, 63
1, 213111, Note_off_c, 0, 65, 67
1, 213111, Control_c, 0, 64, 0
1, 213129, Note_off_c, 0, 92, 67
1, 213199, Note_on_c, 0, 83, 92
1, 213207, Note_on_c, 0, 68, 82
1, 213207, Note_on_c, 0, 95, 75
1, 213222, Note_off_c, 0, 95, 67
1, 213230, Note_on_c, 0, 64, 51
1, 213243, Note_off_c, 0, 83, 59
1, 213249, Note_off_c, 0, 68, 62
1, 213265, Note_off_c, 0, 64, 55
1, 213334, Control_c, 0, 64, 50
1, 213344, Note_on_c, 0, 88, 92
1, 213345, Note_on_c, 0, 69, 94
1, 213345, Note_on_c, 0, 81, 102
1, 213347, Note_on_c, 0, 93, 96
1, 213347, Note_on_c, 0, 57, 73
1, 213348, Note_on_c, 0, 61, 79
1, 213348, Control_c, 0, 64, 75
1, 213349, Note_on_c, 0, 85, 95
1, 213359, Note_on_c, 0, 64, 70
1, 213363, Note_off_c, 0, 69, 72
1, 213363, Control_c, 0, 64, 86
1, 213376, Note_on_c, 0, 91, 49
1, 213377, Note_off_c, 0, 81, 64
1, 213378, Note_off_c, 0, 64, 67
1, 213378, Control_c, 0, 64, 97
1, 213381, Note_off_c, 0, 57, 64
1, 213383, Note_off_c, 0, 93, 60
1, 213384, Note_off_c, 0, 88, 65
1, 213386, Note_off_c, 0, 61, 63
1, 213389, Note_off_c, 0, 85, 65
1, 213393, Control_c, 0, 64, 104
1, 213405, Note_off_c, 0, 91, 36
1, 213408, Control_c, 0, 64, 111
1, 213422, Control_c, 0, 64, 118
1, 213437, Control_c, 0, 64, 124
1, 213452, Control_c, 0, 64, 127
1, 213619, Note_on_c, 0, 53, 96
1, 213621, Note_on_c, 0, 68, 104
1, 213623, Note_on_c, 0, 80, 88
1, 213624, Note_on_c, 0, 44, 79
1, 213624, Note_on_c, 0, 74, 76
1, 213654, Note_off_c, 0, 68, 61
1, 213657, Note_off_c, 0, 44, 64
1, 213657, Note_off_c, 0, 74, 64
1, 213657, Note_on_c, 0, 78, 40
1, 213659, Note_off_c, 0, 53, 67
1, 213678, Note_off_c, 0, 80, 65
1, 213685, Note_off_c, 0, 78, 49
1, 213749, Note_on_c, 0, 71, 91
1, 213753, Note_on_c, 0, 56, 84
1, 213755, Note_on_c, 0, 83, 79
1, 213773, Note_on_c, 0, 81, 72
1, 213791, Note_off_c, 0, 81, 42
1, 213792, Note_off_c, 0, 71, 63
1, 213801, Note_off_c, 0, 56, 62
1, 213801, Note_off_c, 0, 83, 57
1, 213811, Note_on_c, 0, 52, 14
1, 213830, Control_c, 0, 64, 119
1, 213845, Control_c, 0, 64, 92
1, 213860, Control_c, 0, 64, 64
1, 213867, Note_off_c, 0, 52, 48
1, 213874, Control_c, 0, 64, 0
1, 213885, Note_on_c, 0, 75, 25
1, 213913, Note_on_c, 0, 52, 73
1, 213913, Note_on_c, 0, 57, 96
1, 213920, Note_on_c, 0, 45, 78
1, 213921, Note_on_c, 0, 49, 80
1, 213922, Note_on_c, 0, 69, 100
1, 213925, Note_on_c, 0, 81, 86
1, 213929, Note_on_c, 0, 73, 76
1, 213934, Control_c, 0, 64, 65
1, 213939, Note_on_c, 0, 76, 65
1, 213948, Note_on_c, 0, 72, 69
1, 213948, Note_off_c, 0, 57, 65
1, 213949, Note_off_c, 0, 73, 43
1, 213949, Control_c, 0, 64, 82
1, 213955, Note_off_c, 0, 52, 67
1, 213961, Note_off_c, 0, 69, 66
1, 213964, Note_off_c, 0, 72, 66
1, 213964, Control_c, 0, 64, 100
1, 213967, Note_off_c, 0, 45, 64
1, 213970, Note_off_c, 0, 49, 65
1, 213979, Control_c, 0, 64, 116
1, 213994, Control_c, 0, 64, 119
1, 213997, Note_off_c, 0, 81, 62
1, 213999, Note_off_c, 0, 75, 59
1, 213999, Note_off_c, 0, 76, 64
1, 214009, Control_c, 0, 64, 124
1, 214024, Control_c, 0, 64, 127
1, 214177, Note_on_c, 0, 45, 97
1, 214184, Note_on_c, 0, 33, 93
1, 214209, Note_off_c, 0, 45, 64
1, 214216, Note_off_c, 0, 33, 68
1, 214286, Note_on_c, 0, 45, 92
1, 214291, Note_on_c, 0, 33, 87
1, 214328, Note_off_c, 0, 45, 66
1, 214333, Note_off_c, 0, 33, 62
1, 214387, Note_on_c, 0, 45, 88
1, 214398, Note_on_c, 0, 33, 76
1, 214434, Note_off_c, 0, 33, 66
1, 214436, Note_off_c, 0, 45, 65
1, 214490, Control_c, 0, 64, 121
1, 214504, Control_c, 0, 64, 95
1, 214514, Note_on_c, 0, 38, 54
1, 214518, Note_on_c, 0, 81, 95
1, 214519, Control_c, 0, 64, 67
1, 214520, Note_on_c, 0, 42, 95
1, 214521, Note_on_c, 0, 93, 93
1, 214526, Note_on_c, 0, 85, 81
1, 214527, Note_on_c, 0, 90, 78
1, 214531, Note_on_c, 0, 30, 81
1, 214534, Control_c, 0, 64, 0
1, 214540, Note_on_c, 0, 34, 51
1, 214570, Note_off_c, 0, 81, 63
1, 214572, Note_on_c, 0, 41, 24
1, 214584, Note_off_c, 0, 93, 61
1, 214592, Note_off_c, 0, 34, 41
1, 214597, Note_off_c, 0, 85, 66
1, 214608, Note_off_c, 0, 90, 64
1, 214608, Control_c, 0, 64, 68
1, 214616, Note_off_c, 0, 41, 55
1, 214623, Control_c, 0, 64, 78
1, 214638, Control_c, 0, 64, 86
1, 214653, Control_c, 0, 64, 92
1, 214667, Control_c, 0, 64, 101
1, 214670, Note_on_c, 0, 80, 92
1, 214673, Note_on_c, 0, 92, 93
1, 214682, Control_c, 0, 64, 109
1, 214697, Control_c, 0, 64, 115
1, 214712, Control_c, 0, 64, 119
1, 214713, Note_off_c, 0, 80, 64
1, 214720, Note_off_c, 0, 30, 62
1, 214728, Control_c, 0, 64, 122
1, 214731, Note_off_c, 0, 92, 64
1, 214742, Note_off_c, 0, 38, 48
1, 214742, Control_c, 0, 64, 124
1, 214743, Note_off_c, 0, 42, 63
1, 214757, Control_c, 0, 64, 125
1, 214772, Control_c, 0, 64, 127
1, 214799, Note_on_c, 0, 81, 96
1, 214799, Note_on_c, 0, 93, 98
1, 214840, Note_off_c, 0, 81, 63
1, 214845, Note_off_c, 0, 93, 63
1, 214908, Note_on_c, 0, 83, 94
1, 214909, Note_on_c, 0, 95, 95
1, 214943, Note_off_c, 0, 83, 66
1, 214949, Note_off_c, 0, 95, 68
1, 215034, Note_on_c, 0, 66, 80
1, 215034, Note_on_c, 0, 69, 89
1, 215034, Note_on_c, 0, 85, 95
1, 215035, Note_on_c, 0, 97, 95
1, 215040, Note_on_c, 0, 61, 74
1, 215040, Note_on_c, 0, 90, 85
1, 215040, Note_on_c, 0, 93, 77
1, 215051, Note_on_c, 0, 57, 39
1, 215073, Note_off_c, 0, 69, 67
1, 215075, Note_off_c, 0, 66, 66
1, 215082, Note_off_c, 0, 57, 51
1, 215091, Note_off_c, 0, 61, 63
1, 215150, Note_on_c, 0, 68, 95
1, 215159, Note_on_c, 0, 56, 84
1, 215177, Note_off_c, 0, 85, 52
1, 215184, Note_off_c, 0, 97, 59
1, 215188, Note_off_c, 0, 56, 66
1, 215188, Note_off_c, 0, 68, 67
1, 215196, Note_off_c, 0, 90, 54
1, 215199, Note_off_c, 0, 93, 28
1, 215264, Note_on_c, 0, 69, 99
1, 215271, Note_on_c, 0, 57, 86
1, 215309, Note_off_c, 0, 69, 69
1, 215314, Note_off_c, 0, 57, 62
1, 215381, Note_on_c, 0, 71, 98
1, 215387, Note_on_c, 0, 59, 84
1, 215418, Note_off_c, 0, 59, 59
1, 215429, Note_off_c, 0, 71, 63
1, 215490, Control_c, 0, 64, 100
1, 215505, Control_c, 0, 64, 70
1, 215514, Note_on_c, 0, 85, 94
1, 215514, Note_on_c, 0, 97, 90
1, 215518, Note_on_c, 0, 90, 82
1, 215520, Note_on_c, 0, 73, 90
1, 215521, Note_on_c, 0, 93, 79
1, 215521, Control_c, 0, 64, 0
1, 215522, Note_on_c, 0, 61, 79
1, 215526, Note_on_c, 0, 66, 76
1, 215531, Note_on_c, 0, 69, 72
1, 215557, Note_off_c, 0, 85, 63
1, 215565, Control_c, 0, 64, 66
1, 215566, Note_off_c, 0, 97, 67
1, 215568, Note_off_c, 0, 90, 61
1, 215570, Note_off_c, 0, 93, 60
1, 215580, Control_c, 0, 64, 81
1, 215595, Control_c, 0, 64, 96
1, 215610, Control_c, 0, 64, 106
1, 215624, Control_c, 0, 64, 109
1, 215639, Control_c, 0, 64, 111
1, 215650, Note_on_c, 0, 83, 85
1, 215652, Note_on_c, 0, 95, 93
1, 215654, Control_c, 0, 64, 115
1, 215669, Control_c, 0, 64, 118
1, 215684, Control_c, 0, 64, 120
1, 215696, Note_off_c, 0, 95, 65
1, 215699, Control_c, 0, 64, 122
1, 215699, Note_off_c, 0, 83, 61
1, 215714, Control_c, 0, 64, 124
1, 215729, Control_c, 0, 64, 126
1, 215750, Control_c, 0, 64, 127
1, 215770, Note_off_c, 0, 73, 60
1, 215779, Note_on_c, 0, 81, 94
1, 215782, Note_on_c, 0, 93, 95
1, 215788, Note_off_c, 0, 69, 50
1, 215802, Note_off_c, 0, 66, 62
1, 215817, Note_off_c, 0, 93, 65
1, 215818, Note_off_c, 0, 81, 66
1, 215821, Note_off_c, 0, 61, 59
1, 215892, Note_on_c, 0, 80, 96
1, 215896, Note_on_c, 0, 92, 86
1, 215910, Note_on_c, 0, 90, 71
1, 215927, Note_off_c, 0, 90, 64
1, 215929, Note_off_c, 0, 80, 66
1, 215947, Note_off_c, 0, 92, 65
1, 215973, Control_c, 0, 64, 111
1, 215988, Control_c, 0, 64, 81
1, 216003, Control_c, 0, 64, 0
1, 216010, Note_on_c, 0, 81, 93
1, 216012, Note_on_c, 0, 69, 73
1, 216012, Note_on_c, 0, 72, 91
1, 216016, Note_on_c, 0, 65, 64
1, 216016, Note_on_c, 0, 84, 85
1, 216017, Note_on_c, 0, 89, 79
1, 216019, Note_on_c, 0, 60, 61
1, 216019, Note_on_c, 0, 93, 91
1, 216032, Control_c, 0, 64, 23
1, 216047, Control_c, 0, 64, 71
1, 216050, Note_off_c, 0, 69, 68
1, 216054, Note_off_c, 0, 72, 64
1, 216058, Note_off_c, 0, 60, 62
1, 216062, Control_c, 0, 64, 88
1, 216066, Note_off_c, 0, 65, 66
1, 216076, Control_c, 0, 64, 109
1, 216091, Control_c, 0, 64, 121
1, 216106, Control_c, 0, 64, 123
1, 216121, Control_c, 0, 64, 127
1, 216137, Note_on_c, 0, 71, 95
1, 216146, Note_on_c, 0, 59, 85
1, 216156, Note_off_c, 0, 84, 60
1, 216179, Note_off_c, 0, 81, 55
1, 216191, Note_off_c, 0, 59, 63
1, 216192, Note_off_c, 0, 71, 61
1, 216220, Note_off_c, 0, 89, 64
1, 216225, Note_off_c, 0, 93, 60
1, 216262, Note_on_c, 0, 69, 92
1, 216273, Note_on_c, 0, 57, 84
1, 216306, Note_off_c, 0, 57, 61
1, 216307, Note_off_c, 0, 69, 69
1, 216382, Note_on_c, 0, 101, 107
1, 216384, Note_on_c, 0, 89, 100
1, 216406, Note_on_c, 0, 68, 76
1, 216419, Note_on_c, 0, 56, 60
1, 216429, Note_off_c, 0, 89, 67
1, 216431, Note_off_c, 0, 101, 68
1, 216443, Note_off_c, 0, 68, 55
1, 216457, Note_off_c, 0, 56, 63
1, 216544, Control_c, 0, 64, 106
1, 216559, Control_c, 0, 64, 76
1, 216573, Control_c, 0, 64, 0
1, 216575, Note_on_c, 0, 61, 82
1, 216577, Note_on_c, 0, 69, 94
1, 216578, Note_on_c, 0, 88, 101
1, 216580, Note_on_c, 0, 100, 98
1, 216581, Note_on_c, 0, 57, 80
1, 216582, Note_on_c, 0, 97, 100
1, 216584, Note_on_c, 0, 64, 83
1, 216587, Note_on_c, 0, 93, 90
1, 216617, Note_on_c, 0, 99, 28
1, 216618, Note_off_c, 0, 99, 127
1, 216618, Control_c, 0, 64, 63
1, 216632, Note_on_c, 0, 94, 4
1, 216633, Note_off_c, 0, 94, 127
1, 216633, Note_off_c, 0, 69, 61
1, 216634, Control_c, 0, 64, 80
1, 216641, Note_off_c, 0, 88, 52
1, 216648, Control_c, 0, 64, 98
1, 216654, Note_off_c, 0, 100, 63
1, 216655, Note_off_c, 0, 64, 60
1, 216658, Note_off_c, 0, 93, 58
1, 216663, Control_c, 0, 64, 109
1, 216672, Note_off_c, 0, 97, 63
1, 216678, Control_c, 0, 64, 110
1, 216690, Note_off_c, 0, 61, 62
1, 216690, Note_off_c, 0, 57, 61
1, 216693, Control_c, 0, 64, 111
1, 216707, Control_c, 0, 64, 115
1, 216722, Control_c, 0, 64, 120
1, 216735, Note_on_c, 0, 86, 92
1, 216736, Note_on_c, 0, 98, 90
1, 216737, Control_c, 0, 64, 125
1, 216752, Control_c, 0, 64, 127
1, 216781, Note_off_c, 0, 86, 65
1, 216788, Note_off_c, 0, 98, 66
1, 216877, Note_on_c, 0, 85, 94
1, 216877, Note_on_c, 0, 97, 92
1, 216882, Note_on_c, 0, 45, 98
1, 216890, Note_on_c, 0, 33, 82
1, 216914, Note_off_c, 0, 85, 65
1, 216916, Note_off_c, 0, 33, 66
1, 216925, Note_off_c, 0, 45, 65
1, 216925, Note_off_c, 0, 97, 65
1, 217007, Note_on_c, 0, 100, 93
1, 217010, Note_on_c, 0, 88, 88
1, 217053, Note_off_c, 0, 88, 63
1, 217056, Note_off_c, 0, 100, 65
1, 217123, Control_c, 0, 64, 107
1, 217138, Control_c, 0, 64, 78
1, 217140, Note_on_c, 0, 64, 91
1, 217141, Note_on_c, 0, 52, 77
1, 217142, Note_on_c, 0, 56, 71
1, 217143, Note_on_c, 0, 98, 80
1, 217144, Note_on_c, 0, 86, 90
1, 217148, Note_on_c, 0, 59, 79
1, 217149, Note_on_c, 0, 92, 85
1, 217153, Control_c, 0, 64, 0
1, 217158, Note_on_c, 0, 95, 69
1, 217183, Note_off_c, 0, 95, 67
1, 217187, Note_off_c, 0, 86, 64
1, 217192, Note_off_c, 0, 98, 65
1, 217196, Note_off_c, 0, 92, 66
1, 217197, Control_c, 0, 64, 63
1, 217212, Control_c, 0, 64, 80
1, 217227, Control_c, 0, 64, 102
1, 217250, Control_c, 0, 64, 123
1, 217265, Control_c, 0, 64, 127
1, 217279, Control_c, 0, 64, 127
1, 217281, Note_on_c, 0, 85, 85
1, 217283, Note_on_c, 0, 97, 87
1, 217313, Note_off_c, 0, 85, 57
1, 217324, Note_off_c, 0, 97, 64
1, 217376, Note_off_c, 0, 64, 61
1, 217393, Note_off_c, 0, 52, 63
1, 217396, Note_off_c, 0, 59, 59
1, 217399, Note_on_c, 0, 95, 93
1, 217399, Note_on_c, 0, 83, 83
1, 217407, Note_off_c, 0, 56, 60
1, 217423, Note_off_c, 0, 83, 62
1, 217443, Note_off_c, 0, 95, 65
1, 217504, Note_on_c, 0, 65, 75
1, 217507, Note_on_c, 0, 86, 94
1, 217510, Note_on_c, 0, 98, 90
1, 217512, Note_on_c, 0, 53, 61
1, 217536, Note_off_c, 0, 65, 62
1, 217542, Note_off_c, 0, 86, 67
1, 217546, Note_off_c, 0, 53, 66
1, 217547, Note_off_c, 0, 98, 69
1, 217620, Note_on_c, 0, 64, 82
1, 217622, Note_on_c, 0, 85, 92
1, 217623, Note_on_c, 0, 97, 95
1, 217634, Note_on_c, 0, 52, 76
1, 217660, Note_off_c, 0, 85, 62
1, 217661, Note_off_c, 0, 52, 67
1, 217661, Note_off_c, 0, 97, 67
1, 217667, Note_off_c, 0, 64, 62
1, 217733, Note_on_c, 0, 83, 90
1, 217733, Note_on_c, 0, 95, 89
1, 217739, Note_on_c, 0, 62, 81
1, 217754, Note_on_c, 0, 50, 66
1, 217769, Note_off_c, 0, 62, 62
1, 217772, Note_off_c, 0, 95, 67
1, 217775, Note_off_c, 0, 83, 59
1, 217776, Note_off_c, 0, 50, 65
1, 217838, Note_on_c, 0, 81, 98
1, 217845, Note_on_c, 0, 93, 92
1, 217848, Note_on_c, 0, 61, 79
1, 217865, Note_on_c, 0, 49, 54
1, 217866, Note_off_c, 0, 49, 127
1, 217867, Note_on_c, 0, 63, 57
1, 217870, Note_on_c, 0, 51, 53
1, 217870, Note_off_c, 0, 61, 69
1, 217872, Note_off_c, 0, 81, 65
1, 217876, Note_off_c, 0, 93, 62
1, 217888, Note_off_c, 0, 63, 60
1, 217894, Note_off_c, 0, 51, 57
1, 217941, Note_on_c, 0, 97, 102
1, 217942, Note_on_c, 0, 85, 99
1, 217959, Note_on_c, 0, 64, 73
1, 217960, Note_on_c, 0, 90, 67
1, 217961, Note_off_c, 0, 90, 127
1, 217965, Note_on_c, 0, 52, 76
1, 217974, Note_on_c, 0, 92, 43
1, 217975, Note_off_c, 0, 92, 127
1, 217975, Note_off_c, 0, 85, 65
1, 217976, Note_off_c, 0, 97, 68
1, 217982, Note_off_c, 0, 64, 66
1, 217997, Note_off_c, 0, 52, 71
1, 218046, Poly_aftertouch_c, 0, 62, 0
1, 218056, Note_on_c, 0, 62, 45
1, 218058, Note_on_c, 0, 95, 96
1, 218058, Note_on_c, 0, 83, 95
1, 218094, Note_on_c, 0, 52, 33
1, 218096, Note_off_c, 0, 83, 63
1, 218101, Note_off_c, 0, 62, 61
1, 218101, Note_off_c, 0, 95, 66
1, 218119, Note_off_c, 0, 52, 59
1, 218135, Note_on_c, 0, 50, 3
1, 218158, Note_off_c, 0, 50, 0
1, 218162, Note_on_c, 0, 81, 98
1, 218163, Note_on_c, 0, 61, 90
1, 218168, Note_on_c, 0, 93, 93
1, 218174, Note_on_c, 0, 49, 88
1, 218176, Poly_aftertouch_c, 0, 50, 0
1, 218185, Note_off_c, 0, 61, 70
1, 218189, Note_off_c, 0, 93, 67
1, 218195, Note_off_c, 0, 49, 66
1, 218195, Note_off_c, 0, 81, 67
1, 218235, Control_c, 0, 64, 104
1, 218250, Control_c, 0, 64, 86
1, 218260, Note_on_c, 0, 80, 97
1, 218264, Note_on_c, 0, 92, 90
1, 218265, Control_c, 0, 64, 68
1, 218266, Note_on_c, 0, 57, 86
1, 218274, Note_on_c, 0, 90, 79
1, 218278, Note_on_c, 0, 47, 69
1, 218279, Control_c, 0, 64, 0
1, 218287, Note_off_c, 0, 80, 65
1, 218287, Note_on_c, 0, 45, 63
1, 218289, Note_off_c, 0, 90, 43
1, 218300, Note_off_c, 0, 92, 68
1, 218301, Note_off_c, 0, 57, 62
1, 218305, Note_off_c, 0, 47, 66
1, 218311, Note_off_c, 0, 45, 61
1, 218368, Note_on_c, 0, 83, 90
1, 218372, Note_on_c, 0, 95, 90
1, 218398, Note_off_c, 0, 83, 62
1, 218404, Note_off_c, 0, 95, 64
1, 218457, Control_c, 0, 64, 66
1, 218469, Note_on_c, 0, 54, 84
1, 218471, Note_on_c, 0, 57, 89
1, 218472, Control_c, 0, 64, 73
1, 218473, Note_on_c, 0, 93, 82
1, 218475, Note_on_c, 0, 81, 106
1, 218478, Note_on_c, 0, 90, 92
1, 218479, Note_on_c, 0, 85, 92
1, 218484, Note_on_c, 0, 49, 77
1, 218487, Note_on_c, 0, 45, 55
1, 218487, Control_c, 0, 64, 77
1, 218494, Note_on_c, 0, 47, 52
1, 218498, Note_off_c, 0, 57, 65
1, 218499, Note_off_c, 0, 85, 66
1, 218502, Control_c, 0, 64, 82
1, 218505, Note_off_c, 0, 81, 59
1, 218505, Note_off_c, 0, 93, 61
1, 218507, Note_off_c, 0, 54, 64
1, 218517, Control_c, 0, 64, 85
1, 218520, Note_off_c, 0, 45, 65
1, 218520, Note_off_c, 0, 49, 65
1, 218520, Note_off_c, 0, 90, 62
1, 218524, Note_off_c, 0, 47, 55
1, 218532, Control_c, 0, 64, 88
1, 218546, Control_c, 0, 64, 90
1, 218561, Control_c, 0, 64, 94
1, 218576, Control_c, 0, 64, 97
1, 218585, Note_on_c, 0, 80, 94
1, 218588, Note_on_c, 0, 92, 94
1, 218591, Control_c, 0, 64, 100
1, 218606, Control_c, 0, 64, 102
1, 218620, Control_c, 0, 64, 103
1, 218622, Note_off_c, 0, 80, 64
1, 218624, Note_on_c, 0, 90, 27
1, 218625, Note_off_c, 0, 90, 127
1, 218631, Note_off_c, 0, 92, 66
1, 218635, Control_c, 0, 64, 104
1, 218650, Control_c, 0, 64, 105
1, 218664, Control_c, 0, 64, 107
1, 218679, Control_c, 0, 64, 107
1, 218689, Note_on_c, 0, 42, 82
1, 218696, Note_on_c, 0, 81, 101
1, 218698, Note_on_c, 0, 93, 96
1, 218709, Note_on_c, 0, 30, 56
1, 218710, Control_c, 0, 64, 108
1, 218717, Note_off_c, 0, 42, 69
1, 218740, Note_off_c, 0, 81, 64
1, 218742, Note_on_c, 0, 41, 26
1, 218747, Note_off_c, 0, 93, 64
1, 218747, Control_c, 0, 64, 108
1, 218749, Note_off_c, 0, 30, 53
1, 218762, Control_c, 0, 64, 110
1, 218776, Control_c, 0, 64, 113
1, 218785, Note_off_c, 0, 41, 56
1, 218791, Control_c, 0, 64, 118
1, 218803, Note_on_c, 0, 83, 91
1, 218806, Control_c, 0, 64, 125
1, 218807, Note_on_c, 0, 95, 93
1, 218821, Control_c, 0, 64, 127
1, 218840, Note_off_c, 0, 83, 65
1, 218845, Note_off_c, 0, 95, 66
1, 218850, Note_on_c, 0, 84, 24
1, 218851, Note_off_c, 0, 84, 127
1, 218866, Control_c, 0, 64, 111
1, 218880, Control_c, 0, 64, 87
1, 218895, Control_c, 0, 64, 53
1, 218910, Control_c, 0, 64, 0
1, 218915, Note_on_c, 0, 69, 95
1, 218916, Note_on_c, 0, 66, 90
1, 218917, Note_on_c, 0, 97, 95
1, 218918, Note_on_c, 0, 85, 96
1, 218922, Note_on_c, 0, 61, 73
1, 218925, Note_on_c, 0, 93, 83
1, 218925, Control_c, 0, 64, 56
1, 218927, Note_on_c, 0, 90, 86
1, 218940, Control_c, 0, 64, 78
1, 218943, Note_off_c, 0, 66, 63
1, 218944, Note_off_c, 0, 69, 67
1, 218955, Control_c, 0, 64, 100
1, 218958, Note_off_c, 0, 61, 61
1, 218969, Control_c, 0, 64, 127
1, 219029, Note_on_c, 0, 68, 98
1, 219037, Note_on_c, 0, 56, 84
1, 219059, Note_off_c, 0, 56, 69
1, 219061, Note_off_c, 0, 68, 64
1, 219076, Note_off_c, 0, 97, 56
1, 219080, Note_off_c, 0, 90, 59
1, 219086, Note_off_c, 0, 93, 45
1, 219089, Note_off_c, 0, 85, 57
1, 219129, Note_on_c, 0, 69, 104
1, 219137, Note_on_c, 0, 57, 83
1, 219171, Note_off_c, 0, 69, 69
1, 219174, Note_off_c, 0, 57, 60
1, 219248, Note_on_c, 0, 59, 80
1, 219251, Note_on_c, 0, 71, 76
1, 219256, Note_on_c, 0, 72, 88
1, 219274, Note_off_c, 0, 72, 73
1, 219283, Note_off_c, 0, 59, 64
1, 219292, Note_off_c, 0, 71, 63
1, 219295, Note_on_c, 0, 60, 13
1, 219296, Note_off_c, 0, 60, 127
1, 219325, Control_c, 0, 64, 122
1, 219337, Poly_aftertouch_c, 0, 60, 0
1, 219340, Control_c, 0, 64, 91
1, 219355, Control_c, 0, 64, 0
1, 219364, Note_on_c, 0, 85, 97
1, 219366, Note_on_c, 0, 90, 88
1, 219366, Note_on_c, 0, 97, 96
1, 219367, Note_on_c, 0, 93, 81
1, 219369, Note_on_c, 0, 73, 94
1, 219372, Note_on_c, 0, 61, 80
1, 219376, Note_on_c, 0, 69, 81
1, 219379, Note_on_c, 0, 66, 80
1, 219406, Note_off_c, 0, 85, 65
1, 219414, Control_c, 0, 64, 68
1, 219417, Note_off_c, 0, 93, 60
1, 219418, Note_off_c, 0, 90, 63
1, 219418, Note_off_c, 0, 97, 66
1, 219429, Control_c, 0, 64, 82
1, 219444, Control_c, 0, 64, 92
1, 219459, Control_c, 0, 64, 95
1, 219474, Control_c, 0, 64, 96
1, 219495, Control_c, 0, 64, 98
1, 219502, Note_on_c, 0, 95, 89
1, 219503, Note_on_c, 0, 83, 86
1, 219510, Control_c, 0, 64, 100
1, 219526, Control_c, 0, 64, 104
1, 219541, Control_c, 0, 64, 106
1, 219549, Note_off_c, 0, 83, 62
1, 219550, Note_off_c, 0, 95, 66
1, 219556, Control_c, 0, 64, 107
1, 219586, Control_c, 0, 64, 108
1, 219600, Control_c, 0, 64, 111
1, 219613, Note_off_c, 0, 73, 62
1, 219615, Control_c, 0, 64, 114
1, 219618, Note_off_c, 0, 69, 57
1, 219623, Note_on_c, 0, 81, 98
1, 219627, Note_on_c, 0, 93, 99
1, 219630, Control_c, 0, 64, 114
1, 219638, Note_off_c, 0, 66, 62
1, 219645, Control_c, 0, 64, 115
1, 219650, Note_off_c, 0, 61, 60
1, 219660, Note_off_c, 0, 81, 68
1, 219660, Control_c, 0, 64, 115
1, 219662, Note_off_c, 0, 93, 64
1, 219674, Control_c, 0, 64, 117
1, 219689, Control_c, 0, 64, 120
1, 219704, Control_c, 0, 64, 124
1, 219718, Control_c, 0, 64, 127
1, 219731, Note_on_c, 0, 80, 101
1, 219736, Note_on_c, 0, 92, 97
1, 219769, Note_off_c, 0, 80, 67
1, 219788, Note_off_c, 0, 92, 65
1, 219808, Control_c, 0, 64, 103
1, 219822, Control_c, 0, 64, 75
1, 219837, Control_c, 0, 64, 0
1, 219840, Note_on_c, 0, 69, 50
1, 219845, Note_on_c, 0, 72, 98
1, 219846, Note_on_c, 0, 81, 97
1, 219848, Note_on_c, 0, 65, 68
1, 219850, Note_on_c, 0, 60, 67
1, 219850, Note_on_c, 0, 84, 89
1, 219852, Note_on_c, 0, 89, 88
1, 219855, Note_on_c, 0, 93, 95
1, 219867, Control_c, 0, 64, 42
1, 219882, Control_c, 0, 64, 73
1, 219884, Note_off_c, 0, 69, 67
1, 219888, Note_off_c, 0, 72, 66
1, 219892, Note_off_c, 0, 60, 62
1, 219897, Control_c, 0, 64, 88
1, 219897, Note_on_c, 0, 91, 21
1, 219898, Note_off_c, 0, 91, 127
1, 219905, Note_off_c, 0, 65, 66
1, 219911, Control_c, 0, 64, 105
1, 219926, Control_c, 0, 64, 110
1, 219941, Control_c, 0, 64, 111
1, 219956, Control_c, 0, 64, 115
1, 219971, Note_on_c, 0, 71, 93
1, 219971, Control_c, 0, 64, 123
1, 219981, Note_on_c, 0, 59, 81
1, 219986, Control_c, 0, 64, 127
1, 220019, Note_on_c, 0, 60, 37
1, 220019, Note_off_c, 0, 59, 63
1, 220019, Note_off_c, 0, 84, 60
1, 220021, Note_off_c, 0, 81, 58
1, 220022, Note_off_c, 0, 71, 63
1, 220044, Note_off_c, 0, 60, 57
1, 220050, Note_off_c, 0, 89, 64
1, 220054, Note_off_c, 0, 93, 61
1, 220099, Note_on_c, 0, 69, 98
1, 220108, Note_on_c, 0, 57, 87
1, 220141, Note_off_c, 0, 57, 60
1, 220143, Note_off_c, 0, 69, 68
1, 220228, Note_on_c, 0, 101, 106
1, 220230, Note_on_c, 0, 89, 97
1, 220251, Note_on_c, 0, 68, 82
1, 220258, Note_on_c, 0, 56, 69
1, 220273, Note_off_c, 0, 68, 68
1, 220280, Note_off_c, 0, 101, 68
1, 220281, Note_off_c, 0, 89, 66
1, 220291, Note_off_c, 0, 56, 62
1, 220335, Control_c, 0, 64, 126
1, 220349, Control_c, 0, 64, 95
1, 220364, Control_c, 0, 64, 68
1, 220379, Control_c, 0, 64, 0
1, 220397, Note_on_c, 0, 61, 85
1, 220397, Note_on_c, 0, 88, 102
1, 220398, Note_on_c, 0, 69, 96
1, 220399, Note_on_c, 0, 100, 100
1, 220402, Note_on_c, 0, 64, 84
1, 220402, Note_on_c, 0, 97, 95
1, 220404, Note_on_c, 0, 57, 78
1, 220405, Note_on_c, 0, 93, 87
1, 220423, Control_c, 0, 64, 62
1, 220438, Control_c, 0, 64, 77
1, 220440, Note_off_c, 0, 69, 68
1, 220451, Note_off_c, 0, 64, 63
1, 220453, Control_c, 0, 64, 89
1, 220461, Note_off_c, 0, 100, 61
1, 220464, Note_off_c, 0, 88, 57
1, 220468, Control_c, 0, 64, 98
1, 220470, Note_off_c, 0, 57, 65
1, 220471, Note_off_c, 0, 61, 63
1, 220473, Note_off_c, 0, 93, 59
1, 220483, Note_off_c, 0, 97, 64
1, 220483, Control_c, 0, 64, 100
1, 220497, Control_c, 0, 64, 102
1, 220512, Control_c, 0, 64, 105
1, 220527, Control_c, 0, 64, 110
1, 220541, Control_c, 0, 64, 112
1, 220545, Note_on_c, 0, 86, 93
1, 220547, Note_on_c, 0, 98, 97
1, 220556, Control_c, 0, 64, 113
1, 220589, Note_off_c, 0, 86, 67
1, 220599, Note_off_c, 0, 98, 66
1, 220601, Control_c, 0, 64, 114
1, 220615, Control_c, 0, 64, 116
1, 220630, Control_c, 0, 64, 117
1, 220645, Control_c, 0, 64, 117
1, 220660, Control_c, 0, 64, 118
1, 220675, Control_c, 0, 64, 119
1, 220689, Control_c, 0, 64, 121
1, 220690, Note_on_c, 0, 85, 94
1, 220690, Note_on_c, 0, 97, 104
1, 220699, Note_on_c, 0, 45, 107
1, 220704, Control_c, 0, 64, 123
1, 220714, Note_on_c, 0, 33, 83
1, 220726, Note_off_c, 0, 85, 65
1, 220728, Note_on_c, 0, 98, 41
1, 220735, Note_off_c, 0, 45, 68
1, 220737, Note_off_c, 0, 33, 67
1, 220745, Note_off_c, 0, 97, 63
1, 220755, Note_off_c, 0, 98, 46
1, 220763, Control_c, 0, 64, 122
1, 220778, Control_c, 0, 64, 116
1, 220793, Control_c, 0, 64, 100
1, 220807, Control_c, 0, 64, 83
1, 220822, Control_c, 0, 64, 65
1, 220837, Control_c, 0, 64, 0
1, 220842, Note_on_c, 0, 88, 96
1, 220843, Note_on_c, 0, 100, 99
1, 220871, Note_on_c, 0, 98, 44
1, 220875, Note_off_c, 0, 100, 62
1, 220879, Note_off_c, 0, 88, 64
1, 220901, Note_off_c, 0, 98, 37
1, 221092, Note_on_c, 0, 58, 78
1, 221096, Control_c, 0, 64, 59
1, 221098, Note_on_c, 0, 68, 99
1, 221098, Note_on_c, 0, 62, 77
1, 221103, Note_on_c, 0, 86, 105
1, 221103, Note_on_c, 0, 94, 94
1, 221103, Note_on_c, 0, 98, 103
1, 221104, Note_on_c, 0, 92, 99
1, 221110, Note_on_c, 0, 70, 83
1, 221111, Control_c, 0, 64, 79
1, 221127, Control_c, 0, 64, 92
1, 221129, Note_on_c, 0, 96, 61
1, 221131, Note_off_c, 0, 70, 73
1, 221137, Note_off_c, 0, 68, 69
1, 221142, Control_c, 0, 64, 102
1, 221143, Note_off_c, 0, 86, 68
1, 221147, Note_on_c, 0, 64, 26
1, 221149, Note_off_c, 0, 96, 62
1, 221150, Note_off_c, 0, 98, 69
1, 221152, Note_off_c, 0, 58, 66
1, 221152, Note_off_c, 0, 62, 65
1, 221157, Control_c, 0, 64, 106
1, 221160, Note_off_c, 0, 92, 67
1, 221164, Note_off_c, 0, 94, 68
1, 221171, Control_c, 0, 64, 110
1, 221185, Note_off_c, 0, 64, 41
1, 221186, Control_c, 0, 64, 115
1, 221201, Control_c, 0, 64, 121
1, 221216, Control_c, 0, 64, 127
1, 221556, Control_c, 0, 64, 127
1, 221571, Control_c, 0, 64, 99
1, 221586, Control_c, 0, 64, 76
1, 221601, Control_c, 0, 64, 0
1, 221643, Note_on_c, 0, 33, 58
1, 221645, Control_c, 0, 64, 64
1, 221660, Control_c, 0, 64, 78
1, 221675, Control_c, 0, 64, 87
1, 221689, Control_c, 0, 64, 93
1, 221700, Note_on_c, 0, 34, 62
1, 221704, Control_c, 0, 64, 95
1, 221716, Note_on_c, 0, 37, 57
1, 221719, Control_c, 0, 64, 97
1, 221723, Note_off_c, 0, 33, 63
1, 221742, Note_off_c, 0, 34, 65
1, 221742, Control_c, 0, 64, 100
1, 221751, Note_off_c, 0, 37, 57
1, 221757, Control_c, 0, 64, 102
1, 221771, Control_c, 0, 64, 104
1, 221786, Control_c, 0, 64, 104
1, 221790, Note_on_c, 0, 38, 49
1, 221801, Control_c, 0, 64, 105
1, 221808, Note_on_c, 0, 40, 60
1, 221816, Control_c, 0, 64, 106
1, 221831, Control_c, 0, 64, 109
1, 221834, Note_off_c, 0, 38, 61
1, 221845, Control_c, 0, 64, 112
1, 221850, Note_on_c, 0, 41, 58
1, 221858, Note_on_c, 0, 44, 64
1, 221860, Control_c, 0, 64, 116
1, 221872, Note_off_c, 0, 40, 62
1, 221875, Control_c, 0, 64, 116
1, 221879, Note_on_c, 0, 45, 61
1, 221880, Note_off_c, 0, 41, 65
1, 221888, Note_off_c, 0, 44, 64
1, 221916, Note_off_c, 0, 45, 54
1, 221961, Note_on_c, 0, 46, 75
1, 221972, Note_on_c, 0, 49, 70
1, 221994, Note_off_c, 0, 46, 63
1, 221994, Control_c, 0, 64, 117
1, 221997, Note_off_c, 0, 49, 65
1, 222009, Control_c, 0, 64, 125
1, 222024, Control_c, 0, 64, 127
1, 222029, Note_on_c, 0, 50, 56
1, 222043, Note_on_c, 0, 52, 67
1, 222058, Note_off_c, 0, 50, 59
1, 222079, Note_on_c, 0, 53, 63
1, 222094, Note_on_c, 0, 56, 67
1, 222120, Note_off_c, 0, 52, 65
1, 222121, Note_on_c, 0, 57, 63
1, 222136, Note_off_c, 0, 53, 66
1, 222148, Note_off_c, 0, 56, 65
1, 222150, Note_off_c, 0, 57, 63
1, 222192, Note_on_c, 0, 58, 82
1, 222201, Note_on_c, 0, 61, 76
1, 222216, Control_c, 0, 64, 97
1, 222219, Note_off_c, 0, 58, 61
1, 222225, Note_off_c, 0, 61, 68
1, 222231, Control_c, 0, 64, 72
1, 222246, Note_on_c, 0, 57, 10
1, 222246, Control_c, 0, 64, 64
1, 222246, Note_on_c, 0, 62, 77
1, 222260, Control_c, 0, 64, 72
1, 222262, Note_on_c, 0, 64, 77
1, 222275, Control_c, 0, 64, 85
1, 222281, Note_off_c, 0, 62, 61
1, 222286, Note_off_c, 0, 57, 29
1, 222290, Control_c, 0, 64, 104
1, 222305, Control_c, 0, 64, 127
1, 222306, Note_on_c, 0, 65, 70
1, 222323, Note_on_c, 0, 68, 70
1, 222336, Note_on_c, 0, 69, 71
1, 222338, Note_off_c, 0, 64, 63
1, 222360, Note_off_c, 0, 65, 65
1, 222372, Note_off_c, 0, 68, 66
1, 222381, Note_off_c, 0, 69, 67
1, 222393, Control_c, 0, 64, 111
1, 222408, Control_c, 0, 64, 108
1, 222413, Note_on_c, 0, 70, 101
1, 222423, Control_c, 0, 64, 108
1, 222425, Note_on_c, 0, 73, 82
1, 222438, Control_c, 0, 64, 109
1, 222445, Note_off_c, 0, 73, 72
1, 222446, Note_off_c, 0, 70, 61
1, 222452, Control_c, 0, 64, 112
1, 222467, Control_c, 0, 64, 118
1, 222472, Note_on_c, 0, 74, 74
1, 222490, Control_c, 0, 64, 127
1, 222499, Note_on_c, 0, 76, 79
1, 222517, Note_off_c, 0, 74, 61
1, 222535, Note_on_c, 0, 77, 72
1, 222559, Note_on_c, 0, 80, 72
1, 222562, Note_off_c, 0, 76, 68
1, 222566, Note_on_c, 0, 81, 78
1, 222586, Note_off_c, 0, 77, 61
1, 222604, Note_off_c, 0, 80, 66
1, 222607, Note_off_c, 0, 81, 64
1, 222645, Note_on_c, 0, 82, 102
1, 222648, Note_on_c, 0, 85, 88
1, 222665, Note_off_c, 0, 85, 72
1, 222666, Note_off_c, 0, 82, 59
1, 222690, Note_on_c, 0, 86, 83
1, 222714, Note_on_c, 0, 88, 86
1, 222726, Note_off_c, 0, 86, 59
1, 222741, Note_on_c, 0, 89, 76
1, 222772, Note_on_c, 0, 92, 81
1, 222785, Note_off_c, 0, 88, 62
1, 222800, Note_on_c, 0, 93, 82
1, 222830, Note_off_c, 0, 89, 64
1, 222848, Note_off_c, 0, 92, 67
1, 222869, Note_on_c, 0, 94, 118
1, 222873, Note_off_c, 0, 93, 62
1, 222876, Control_c, 0, 64, 126
1, 222890, Control_c, 0, 64, 106
1, 222894, Note_off_c, 0, 94, 73
1, 222905, Control_c, 0, 64, 91
1, 222920, Control_c, 0, 64, 80
1, 222934, Control_c, 0, 64, 69
1, 222949, Control_c, 0, 64, 60
1, 222964, Control_c, 0, 64, 46
1, 222979, Control_c, 0, 64, 43
1, 222994, Control_c, 0, 64, 20
1, 223009, Control_c, 0, 64, 0
1, 223253, Control_c, 0, 64, 51
1, 223268, Control_c, 0, 64, 69
1, 223283, Control_c, 0, 64, 79
1, 223283, Note_on_c, 0, 69, 91
1, 223284, Note_on_c, 0, 77, 84
1, 223285, Note_on_c, 0, 57, 78
1, 223288, Note_on_c, 0, 81, 80
1, 223292, Note_on_c, 0, 74, 68
1, 223297, Note_on_c, 0, 46, 58
1, 223298, Control_c, 0, 64, 87
1, 223304, Note_off_c, 0, 69, 71
1, 223310, Note_off_c, 0, 74, 67
1, 223310, Note_off_c, 0, 81, 64
1, 223311, Note_off_c, 0, 57, 66
1, 223313, Control_c, 0, 64, 94
1, 223320, Note_on_c, 0, 55, 37
1, 223322, Note_off_c, 0, 77, 55
1, 223324, Note_off_c, 0, 46, 55
1, 223328, Control_c, 0, 64, 100
1, 223342, Control_c, 0, 64, 106
1, 223349, Note_off_c, 0, 55, 57
1, 223357, Control_c, 0, 64, 110
1, 223365, Note_on_c, 0, 69, 91
1, 223367, Note_on_c, 0, 81, 89
1, 223368, Note_on_c, 0, 74, 79
1, 223368, Note_on_c, 0, 78, 79
1, 223370, Note_on_c, 0, 57, 99
1, 223371, Note_on_c, 0, 53, 75
1, 223372, Control_c, 0, 64, 115
1, 223381, Note_on_c, 0, 46, 82
1, 223381, Note_on_c, 0, 77, 66
1, 223381, Note_off_c, 0, 69, 75
1, 223382, Note_on_c, 0, 50, 47
1, 223385, Note_off_c, 0, 78, 64
1, 223387, Control_c, 0, 64, 119
1, 223391, Note_off_c, 0, 74, 70
1, 223393, Note_off_c, 0, 81, 58
1, 223396, Note_off_c, 0, 57, 63
1, 223401, Note_off_c, 0, 53, 68
1, 223402, Control_c, 0, 64, 126
1, 223403, Note_off_c, 0, 77, 63
1, 223405, Note_off_c, 0, 46, 65
1, 223412, Note_off_c, 0, 50, 65
1, 223416, Control_c, 0, 64, 127
1, 223441, Note_on_c, 0, 69, 101
1, 223442, Note_on_c, 0, 81, 93
1, 223446, Note_on_c, 0, 74, 80
1, 223451, Note_on_c, 0, 78, 63
1, 223454, Note_on_c, 0, 57, 100
1, 223454, Note_on_c, 0, 77, 79
1, 223459, Note_on_c, 0, 46, 88
1, 223460, Note_off_c, 0, 69, 70
1, 223463, Note_off_c, 0, 74, 74
1, 223466, Note_on_c, 0, 53, 65
1, 223474, Note_off_c, 0, 77, 70
1, 223478, Note_off_c, 0, 78, 66
1, 223479, Note_off_c, 0, 81, 66
1, 223483, Note_off_c, 0, 53, 70
1, 223487, Note_off_c, 0, 46, 65
1, 223491, Note_off_c, 0, 57, 62
1, 223667, Note_on_c, 0, 70, 98
1, 223668, Note_on_c, 0, 74, 71
1, 223670, Note_on_c, 0, 77, 59
1, 223670, Note_on_c, 0, 82, 87
1, 223671, Note_on_c, 0, 58, 92
1, 223678, Note_on_c, 0, 46, 72
1, 223680, Note_on_c, 0, 53, 81
1, 223686, Note_off_c, 0, 70, 67
1, 223696, Note_off_c, 0, 74, 65
1, 223699, Note_on_c, 0, 50, 52
1, 223703, Note_off_c, 0, 46, 68
1, 223707, Note_off_c, 0, 58, 66
1, 223708, Note_off_c, 0, 77, 59
1, 223710, Note_off_c, 0, 53, 67
1, 223712, Note_off_c, 0, 82, 62
1, 223748, Poly_aftertouch_c, 0, 77, 0
1, 223751, Note_on_c, 0, 70, 97
1, 223751, Note_on_c, 0, 82, 81
1, 223753, Note_on_c, 0, 77, 69
1, 223754, Note_on_c, 0, 74, 86
1, 223757, Note_on_c, 0, 58, 93
1, 223763, Note_off_c, 0, 50, 0
1, 223764, Note_on_c, 0, 46, 80
1, 223770, Note_on_c, 0, 53, 72
1, 223777, Note_on_c, 0, 50, 38
1, 223782, Note_off_c, 0, 74, 61
1, 223784, Note_off_c, 0, 70, 61
1, 223796, Note_off_c, 0, 82, 64
1, 223800, Note_off_c, 0, 58, 66
1, 223803, Note_off_c, 0, 77, 62
1, 223813, Note_off_c, 0, 46, 60
1, 223814, Note_off_c, 0, 53, 56
1, 223840, Note_on_c, 0, 70, 101
1, 223841, Note_on_c, 0, 82, 90
1, 223843, Note_on_c, 0, 77, 78
1, 223847, Note_on_c, 0, 74, 86
1, 223850, Note_on_c, 0, 46, 72
1, 223850, Note_on_c, 0, 58, 100
1, 223853, Note_on_c, 0, 53, 73
1, 223867, Note_off_c, 0, 74, 68
1, 223876, Note_off_c, 0, 70, 62
1, 223886, Note_off_c, 0, 77, 64
1, 223888, Note_off_c, 0, 82, 66
1, 223895, Note_off_c, 0, 58, 61
1, 223908, Note_off_c, 0, 53, 59
1, 223909, Note_off_c, 0, 46, 61
1, 223958, Note_off_c, 0, 50, 56
1, 224047, Control_c, 0, 64, 104
1, 224062, Control_c, 0, 64, 73
1, 224077, Control_c, 0, 64, 0
1, 224104, Note_on_c, 0, 71, 98
1, 224105, Note_on_c, 0, 45, 71
1, 224106, Note_on_c, 0, 74, 94
1, 224106, Note_on_c, 0, 77, 91
1, 224106, Note_on_c, 0, 53, 89
1, 224106, Control_c, 0, 64, 65
1, 224108, Note_on_c, 0, 57, 94
1, 224108, Note_on_c, 0, 83, 93
1, 224110, Note_on_c, 0, 50, 76
1, 224121, Control_c, 0, 64, 88
1, 224136, Control_c, 0, 64, 127
1, 224138, Note_on_c, 0, 55, 39
1, 224139, Note_off_c, 0, 74, 63
1, 224142, Note_off_c, 0, 71, 61
1, 224155, Note_off_c, 0, 57, 63
1, 224163, Note_off_c, 0, 83, 60
1, 224167, Note_off_c, 0, 77, 58
1, 224169, Note_off_c, 0, 53, 64
1, 224169, Note_off_c, 0, 55, 56
1, 224174, Note_off_c, 0, 45, 64
1, 224189, Note_off_c, 0, 50, 63
1, 224226, Note_on_c, 0, 71, 95
1, 224226, Note_on_c, 0, 77, 83
1, 224227, Note_on_c, 0, 74, 93
1, 224228, Note_on_c, 0, 83, 86
1, 224228, Poly_aftertouch_c, 0, 50, 0
1, 224230, Note_on_c, 0, 53, 85
1, 224231, Note_on_c, 0, 57, 99
1, 224231, Note_on_c, 0, 45, 64
1, 224234, Note_on_c, 0, 50, 67
1, 224276, Note_off_c, 0, 71, 57
1, 224279, Note_off_c, 0, 57, 60
1, 224285, Note_off_c, 0, 83, 63
1, 224286, Note_off_c, 0, 45, 62
1, 224287, Note_off_c, 0, 74, 63
1, 224296, Note_off_c, 0, 77, 63
1, 224314, Note_off_c, 0, 53, 64
1, 224339, Note_off_c, 0, 50, 0
1, 224350, Note_on_c, 0, 53, 83
1, 224352, Note_on_c, 0, 50, 58
1, 224353, Note_on_c, 0, 57, 105
1, 224357, Note_on_c, 0, 45, 80
1, 224357, Note_on_c, 0, 71, 107
1, 224359, Note_on_c, 0, 83, 103
1, 224359, Note_on_c, 0, 74, 102
1, 224361, Note_on_c, 0, 77, 87
1, 224386, Note_off_c, 0, 71, 68
1, 224389, Note_off_c, 0, 74, 70
1, 224399, Note_off_c, 0, 77, 60
1, 224400, Note_off_c, 0, 45, 63
1, 224401, Note_off_c, 0, 83, 65
1, 224403, Note_off_c, 0, 57, 65
1, 224412, Note_off_c, 0, 53, 66
1, 224416, Note_off_c, 0, 50, 64
1, 224661, Note_on_c, 0, 62, 54
1, 224669, Note_on_c, 0, 68, 98
1, 224670, Note_on_c, 0, 65, 85
1, 224673, Note_on_c, 0, 72, 103
1, 224676, Note_on_c, 0, 84, 109
1, 224677, Note_on_c, 0, 56, 70
1, 224699, Note_off_c, 0, 68, 71
1, 224705, Note_off_c, 0, 72, 72
1, 224707, Note_off_c, 0, 84, 71
1, 224708, Note_off_c, 0, 65, 67
1, 224723, Note_off_c, 0, 62, 63
1, 224737, Note_off_c, 0, 56, 67
1, 224935, Note_on_c, 0, 33, 95
1, 225056, Poly_aftertouch_c, 0, 34, 0
1, 225108, Control_c, 0, 64, 116
1, 225123, Control_c, 0, 64, 93
1, 225137, Control_c, 0, 64, 70
1, 225152, Control_c, 0, 64, 0
1, 225166, Note_on_c, 0, 76, 21
1, 225193, Note_on_c, 0, 73, 107
1, 225197, Note_on_c, 0, 85, 94
1, 225197, Note_on_c, 0, 40, 82
1, 225197, Note_on_c, 0, 45, 95
1, 225197, Note_on_c, 0, 81, 78
1, 225257, Control_c, 0, 64, 49
1, 225272, Control_c, 0, 64, 75
1, 225286, Control_c, 0, 64, 88
1, 225292, Note_off_c, 0, 33, 64
1, 225301, Control_c, 0, 64, 112
1, 225316, Control_c, 0, 64, 127
1, 225316, Note_off_c, 0, 40, 64
1, 225325, Note_off_c, 0, 45, 67
1, 225340, Note_off_c, 0, 85, 57
1, 225361, Note_off_c, 0, 73, 61
1, 225400, Note_off_c, 0, 76, 52
1, 225468, Note_off_c, 0, 81, 22
1, 225616, Note_on_c, 0, 76, 64
1, 225621, Note_on_c, 0, 88, 92
1, 225631, Poly_aftertouch_c, 0, 80, 127
1, 225638, Note_on_c, 0, 82, 22
1, 225668, Poly_aftertouch_c, 0, 80, 0
1, 225675, Note_off_c, 0, 88, 62
1, 225679, Note_off_c, 0, 82, 50
1, 225683, Note_on_c, 0, 89, 73
1, 225686, Note_on_c, 0, 101, 81
1, 225727, Note_off_c, 0, 89, 62
1, 225733, Note_off_c, 0, 101, 64
1, 225736, Note_on_c, 0, 88, 75
1, 225762, Note_off_c, 0, 88, 63
1, 225769, Note_off_c, 0, 76, 64
1, 225781, Note_on_c, 0, 81, 10
1, 225783, Note_on_c, 0, 101, 71
1, 225787, Note_on_c, 0, 89, 76
1, 225808, Note_on_c, 0, 93, 40
1, 225826, Note_off_c, 0, 89, 63
1, 225826, Note_off_c, 0, 101, 65
1, 225839, Note_off_c, 0, 81, 0
1, 225840, Note_off_c, 0, 93, 42
1, 225848, Note_on_c, 0, 81, 70
1, 225853, Note_on_c, 0, 85, 88
1, 225865, Note_on_c, 0, 78, 60
1, 225900, Note_off_c, 0, 85, 63
1, 225908, Note_on_c, 0, 86, 87
1, 225909, Note_on_c, 0, 98, 80
1, 225911, Note_on_c, 0, 94, 81
1, 225912, Note_off_c, 0, 78, 42
1, 225946, Note_off_c, 0, 94, 61
1, 225947, Note_off_c, 0, 86, 59
1, 225948, Poly_aftertouch_c, 0, 73, 0
1, 225951, Note_off_c, 0, 98, 63
1, 225966, Note_on_c, 0, 85, 87
1, 225971, Note_on_c, 0, 73, 16
1, 225978, Note_on_c, 0, 78, 47
1, 225993, Note_off_c, 0, 81, 53
1, 226004, Note_off_c, 0, 78, 64
1, 226005, Note_off_c, 0, 85, 67
1, 226014, Note_on_c, 0, 94, 74
1, 226019, Note_on_c, 0, 86, 79
1, 226019, Note_on_c, 0, 98, 72
1, 226023, Note_off_c, 0, 73, 63
1, 226043, Note_off_c, 0, 98, 69
1, 226044, Note_off_c, 0, 86, 65
1, 226060, Note_off_c, 0, 94, 66
1, 226073, Note_on_c, 0, 82, 93
1, 226081, Note_on_c, 0, 70, 77
1, 226088, Note_on_c, 0, 76, 76
1, 226128, Note_on_c, 0, 85, 85
1, 226131, Note_off_c, 0, 82, 58
1, 226133, Note_on_c, 0, 97, 84
1, 226136, Note_off_c, 0, 70, 61
1, 226153, Note_on_c, 0, 74, 5
1, 226171, Note_off_c, 0, 97, 61
1, 226172, Note_off_c, 0, 85, 64
1, 226175, Note_off_c, 0, 76, 0
1, 226187, Note_on_c, 0, 82, 90
1, 226189, Note_on_c, 0, 76, 54
1, 226190, Note_on_c, 0, 70, 71
1, 226242, Note_on_c, 0, 97, 80
1, 226244, Note_off_c, 0, 82, 64
1, 226249, Note_on_c, 0, 85, 76
1, 226251, Note_off_c, 0, 70, 62
1, 226268, Note_off_c, 0, 74, 41
1, 226274, Note_off_c, 0, 85, 65
1, 226288, Note_off_c, 0, 97, 65
1, 226300, Note_on_c, 0, 81, 98
1, 226309, Note_on_c, 0, 69, 89
1, 226352, Note_off_c, 0, 81, 63
1, 226360, Note_on_c, 0, 94, 81
1, 226363, Note_on_c, 0, 82, 76
1, 226364, Note_off_c, 0, 69, 64
1, 226377, Note_off_c, 0, 76, 64
1, 226385, Note_off_c, 0, 82, 69
1, 226387, Note_off_c, 0, 94, 59
1, 226410, Note_on_c, 0, 69, 73
1, 226412, Note_on_c, 0, 81, 90
1, 226440, Note_off_c, 0, 81, 62
1, 226452, Note_on_c, 0, 82, 68
1, 226458, Note_off_c, 0, 69, 67
1, 226462, Note_on_c, 0, 94, 52
1, 226477, Note_off_c, 0, 82, 66
1, 226482, Note_off_c, 0, 94, 53
1, 226524, Note_on_c, 0, 76, 90
1, 226527, Note_on_c, 0, 64, 88
1, 226556, Note_on_c, 0, 77, 89
1, 226558, Note_on_c, 0, 89, 81
1, 226563, Note_on_c, 0, 69, 37
1, 226563, Note_on_c, 0, 82, 71
1, 226566, Note_off_c, 0, 76, 66
1, 226576, Note_off_c, 0, 77, 65
1, 226586, Note_off_c, 0, 89, 58
1, 226588, Note_off_c, 0, 69, 56
1, 226589, Note_off_c, 0, 82, 67
1, 226597, Note_off_c, 0, 64, 53
1, 226631, Note_on_c, 0, 76, 89
1, 226638, Note_on_c, 0, 64, 44
1, 226650, Note_on_c, 0, 89, 71
1, 226651, Note_on_c, 0, 82, 81
1, 226652, Note_on_c, 0, 69, 76
1, 226655, Note_on_c, 0, 77, 72
1, 226660, Note_off_c, 0, 76, 64
1, 226661, Note_off_c, 0, 64, 60
1, 226672, Note_off_c, 0, 69, 74
1, 226673, Note_off_c, 0, 89, 71
1, 226675, Note_off_c, 0, 82, 65
1, 226682, Note_on_c, 0, 67, 17
1, 226683, Note_off_c, 0, 77, 62
1, 226726, Note_off_c, 0, 67, 40
1, 226732, Note_on_c, 0, 73, 96
1, 226742, Note_on_c, 0, 69, 85
1, 226756, Note_on_c, 0, 66, 59
1, 226762, Note_on_c, 0, 61, 57
1, 226765, Note_on_c, 0, 74, 83
1, 226769, Note_on_c, 0, 82, 84
1, 226770, Note_on_c, 0, 86, 71
1, 226779, Note_off_c, 0, 73, 61
1, 226783, Note_off_c, 0, 61, 62
1, 226795, Note_off_c, 0, 86, 65
1, 226804, Note_off_c, 0, 74, 61
1, 226804, Note_off_c, 0, 69, 61
1, 226818, Note_off_c, 0, 82, 62
1, 226839, Note_on_c, 0, 73, 82
1, 226845, Poly_aftertouch_c, 0, 63, 0
1, 226849, Note_on_c, 0, 61, 79
1, 226864, Note_on_c, 0, 82, 72
1, 226868, Note_on_c, 0, 74, 81
1, 226868, Note_off_c, 0, 73, 61
1, 226878, Note_off_c, 0, 66, 63
1, 226879, Note_off_c, 0, 61, 65
1, 226880, Note_on_c, 0, 86, 71
1, 226895, Note_off_c, 0, 74, 67
1, 226898, Note_off_c, 0, 86, 67
1, 226910, Poly_aftertouch_c, 0, 69, 0
1, 226912, Note_off_c, 0, 82, 63
1, 226939, Note_on_c, 0, 70, 97
1, 226948, Note_on_c, 0, 64, 79
1, 226952, Note_on_c, 0, 58, 74
1, 226984, Note_on_c, 0, 73, 88
1, 226994, Note_on_c, 0, 85, 76
1, 227009, Note_off_c, 0, 70, 57
1, 227011, Note_off_c, 0, 58, 59
1, 227015, Note_off_c, 0, 85, 70
1, 227024, Note_off_c, 0, 73, 58
1, 227026, Note_off_c, 0, 64, 62
1, 227057, Note_on_c, 0, 70, 89
1, 227060, Note_on_c, 0, 58, 68
1, 227060, Poly_aftertouch_c, 0, 64, 0
1, 227066, Note_on_c, 0, 64, 70
1, 227087, Note_on_c, 0, 73, 78
1, 227093, Note_on_c, 0, 85, 77
1, 227099, Note_off_c, 0, 70, 61
1, 227114, Note_off_c, 0, 58, 63
1, 227114, Note_off_c, 0, 85, 69
1, 227123, Note_off_c, 0, 64, 59
1, 227126, Note_off_c, 0, 73, 62
1, 227156, Note_on_c, 0, 64, 66
1, 227158, Note_on_c, 0, 69, 102
1, 227169, Note_on_c, 0, 57, 81
1, 227200, Note_on_c, 0, 70, 89
1, 227204, Note_off_c, 0, 69, 68
1, 227206, Note_on_c, 0, 61, 33
1, 227213, Note_on_c, 0, 82, 62
1, 227215, Note_off_c, 0, 57, 63
1, 227225, Note_off_c, 0, 64, 63
1, 227232, Note_off_c, 0, 61, 53
1, 227239, Note_on_c, 0, 80, 38
1, 227239, Note_off_c, 0, 70, 61
1, 227239, Note_off_c, 0, 82, 66
1, 227267, Note_on_c, 0, 69, 86
1, 227268, Note_on_c, 0, 57, 76
1, 227268, Note_off_c, 0, 80, 39
1, 227282, Note_off_c, 0, 69, 78
1, 227288, Note_on_c, 0, 70, 78
1, 227301, Note_on_c, 0, 82, 75
1, 227303, Note_off_c, 0, 57, 62
1, 227323, Note_off_c, 0, 82, 68
1, 227324, Control_c, 0, 64, 95
1, 227325, Note_off_c, 0, 70, 61
1, 227339, Control_c, 0, 64, 71
1, 227354, Control_c, 0, 64, 63
1, 227369, Control_c, 0, 64, 74
1, 227376, Note_on_c, 0, 64, 84
1, 227376, Note_on_c, 0, 52, 90
1, 227383, Control_c, 0, 64, 93
1, 227398, Control_c, 0, 64, 127
1, 227405, Note_on_c, 0, 65, 90
1, 227410, Note_on_c, 0, 77, 81
1, 227421, Note_off_c, 0, 64, 61
1, 227423, Note_on_c, 0, 70, 67
1, 227424, Note_on_c, 0, 57, 25
1, 227430, Note_off_c, 0, 52, 61
1, 227445, Note_off_c, 0, 65, 60
1, 227445, Note_off_c, 0, 70, 66
1, 227452, Note_off_c, 0, 57, 48
1, 227459, Note_off_c, 0, 77, 60
1, 227477, Note_on_c, 0, 64, 79
1, 227484, Note_on_c, 0, 52, 59
1, 227499, Note_on_c, 0, 77, 62
1, 227499, Note_off_c, 0, 64, 71
1, 227501, Note_on_c, 0, 57, 60
1, 227501, Note_on_c, 0, 70, 76
1, 227507, Note_on_c, 0, 65, 71
1, 227513, Note_off_c, 0, 52, 70
1, 227520, Note_off_c, 0, 57, 65
1, 227525, Note_on_c, 0, 55, 11
1, 227528, Note_off_c, 0, 77, 59
1, 227530, Note_off_c, 0, 70, 60
1, 227544, Note_off_c, 0, 65, 63
1, 227575, Note_off_c, 0, 55, 50
1, 227582, Note_on_c, 0, 61, 91
1, 227591, Note_on_c, 0, 57, 77
1, 227594, Note_on_c, 0, 56, 49
1, 227610, Note_on_c, 0, 54, 51
1, 227612, Note_on_c, 0, 49, 54
1, 227614, Note_on_c, 0, 62, 84
1, 227615, Note_on_c, 0, 74, 72
1, 227621, Note_on_c, 0, 70, 75
1, 227624, Note_off_c, 0, 61, 62
1, 227632, Note_off_c, 0, 56, 46
1, 227642, Note_off_c, 0, 49, 52
1, 227645, Note_off_c, 0, 57, 56
1, 227653, Note_off_c, 0, 54, 45
1, 227654, Note_off_c, 0, 74, 57
1, 227659, Note_off_c, 0, 62, 57
1, 227668, Note_off_c, 0, 70, 49
1, 227698, Note_on_c, 0, 61, 83
1, 227703, Note_on_c, 0, 49, 75
1, 227715, Note_off_c, 0, 61, 73
1, 227716, Note_on_c, 0, 62, 79
1, 227719, Note_on_c, 0, 70, 67
1, 227728, Note_on_c, 0, 74, 64
1, 227737, Note_off_c, 0, 49, 67
1, 227751, Note_off_c, 0, 74, 70
1, 227761, Note_off_c, 0, 62, 62
1, 227769, Note_off_c, 0, 70, 60
1, 227799, Note_on_c, 0, 52, 90
1, 227799, Note_on_c, 0, 58, 90
1, 227811, Note_on_c, 0, 46, 77
1, 227821, Control_c, 0, 64, 116
1, 227836, Note_on_c, 0, 61, 83
1, 227836, Control_c, 0, 64, 96
1, 227838, Note_on_c, 0, 73, 63
1, 227850, Control_c, 0, 64, 95
1, 227854, Note_off_c, 0, 58, 61
1, 227857, Note_off_c, 0, 46, 57
1, 227858, Note_off_c, 0, 52, 64
1, 227865, Control_c, 0, 64, 97
1, 227869, Note_off_c, 0, 73, 64
1, 227880, Control_c, 0, 64, 108
1, 227885, Note_off_c, 0, 61, 60
1, 227895, Control_c, 0, 64, 127
1, 227905, Note_on_c, 0, 58, 82
1, 227909, Note_on_c, 0, 46, 76
1, 227912, Note_on_c, 0, 52, 74
1, 227941, Note_on_c, 0, 73, 82
1, 227945, Note_on_c, 0, 61, 71
1, 227945, Note_off_c, 0, 58, 66
1, 227960, Note_off_c, 0, 46, 63
1, 227967, Note_off_c, 0, 52, 65
1, 227967, Note_off_c, 0, 73, 60
1, 227979, Note_off_c, 0, 61, 62
1, 228008, Note_on_c, 0, 57, 98
1, 228014, Note_on_c, 0, 52, 61
1, 228014, Control_c, 0, 64, 102
1, 228023, Note_on_c, 0, 53, 70
1, 228026, Note_on_c, 0, 45, 68
1, 228029, Control_c, 0, 64, 81
1, 228041, Note_off_c, 0, 53, 65
1, 228044, Control_c, 0, 64, 78
1, 228048, Note_on_c, 0, 47, 54
1, 228050, Note_on_c, 0, 58, 89
1, 228051, Note_off_c, 0, 57, 64
1, 228054, Note_on_c, 0, 70, 71
1, 228058, Control_c, 0, 64, 90
1, 228061, Note_off_c, 0, 45, 64
1, 228065, Note_off_c, 0, 52, 66
1, 228073, Control_c, 0, 64, 127
1, 228077, Note_off_c, 0, 47, 57
1, 228087, Note_on_c, 0, 68, 35
1, 228087, Note_off_c, 0, 70, 64
1, 228088, Note_off_c, 0, 58, 61
1, 228116, Note_on_c, 0, 57, 90
1, 228117, Note_off_c, 0, 68, 54
1, 228122, Note_on_c, 0, 45, 87
1, 228139, Note_on_c, 0, 58, 78
1, 228142, Note_on_c, 0, 70, 78
1, 228146, Note_off_c, 0, 57, 63
1, 228156, Note_off_c, 0, 45, 64
1, 228174, Note_off_c, 0, 70, 55
1, 228183, Note_off_c, 0, 58, 63
1, 228192, Control_c, 0, 64, 110
1, 228206, Control_c, 0, 64, 82
1, 228221, Control_c, 0, 64, 74
1, 228228, Note_on_c, 0, 52, 91
1, 228233, Note_on_c, 0, 40, 86
1, 228236, Control_c, 0, 64, 81
1, 228250, Control_c, 0, 64, 100
1, 228262, Note_on_c, 0, 53, 85
1, 228265, Note_on_c, 0, 65, 85
1, 228265, Control_c, 0, 64, 127
1, 228267, Note_off_c, 0, 40, 64
1, 228268, Note_off_c, 0, 52, 66
1, 228310, Note_off_c, 0, 53, 65
1, 228312, Note_off_c, 0, 65, 65
1, 228336, Note_on_c, 0, 52, 85
1, 228345, Note_on_c, 0, 40, 82
1, 228363, Note_off_c, 0, 52, 64
1, 228367, Note_on_c, 0, 65, 73
1, 228369, Note_off_c, 0, 40, 65
1, 228372, Note_on_c, 0, 53, 78
1, 228410, Note_off_c, 0, 65, 63
1, 228416, Note_off_c, 0, 53, 66
1, 228443, Note_on_c, 0, 49, 93
1, 228452, Note_on_c, 0, 37, 78
1, 228480, Note_on_c, 0, 39, 48
1, 228488, Note_off_c, 0, 49, 58
1, 228497, Note_off_c, 0, 37, 63
1, 228498, Note_on_c, 0, 62, 83
1, 228500, Note_on_c, 0, 50, 85
1, 228515, Note_off_c, 0, 39, 47
1, 228535, Note_off_c, 0, 50, 61
1, 228545, Note_off_c, 0, 62, 62
1, 228557, Note_on_c, 0, 49, 89
1, 228565, Note_on_c, 0, 37, 83
1, 228598, Note_off_c, 0, 49, 61
1, 228604, Note_on_c, 0, 62, 80
1, 228605, Note_on_c, 0, 50, 84
1, 228613, Note_off_c, 0, 37, 63
1, 228643, Note_off_c, 0, 50, 62
1, 228649, Note_off_c, 0, 62, 60
1, 228669, Note_on_c, 0, 46, 100
1, 228683, Note_on_c, 0, 34, 75
1, 228711, Note_on_c, 0, 49, 96
1, 228714, Note_on_c, 0, 61, 82
1, 228716, Note_off_c, 0, 46, 62
1, 228720, Note_on_c, 0, 39, 15
1, 228727, Note_off_c, 0, 34, 61
1, 228751, Note_off_c, 0, 49, 60
1, 228759, Note_off_c, 0, 61, 59
1, 228763, Note_off_c, 0, 39, 37
1, 228826, Note_on_c, 0, 46, 92
1, 228828, Note_on_c, 0, 49, 93
1, 228828, Note_on_c, 0, 61, 87
1, 228837, Control_c, 0, 64, 109
1, 228838, Note_on_c, 0, 34, 66
1, 228852, Control_c, 0, 64, 76
1, 228861, Note_off_c, 0, 49, 64
1, 228866, Control_c, 0, 64, 0
1, 228868, Note_on_c, 0, 39, 40
1, 228873, Note_off_c, 0, 46, 62
1, 228879, Note_off_c, 0, 34, 65
1, 228884, Note_off_c, 0, 61, 62
1, 228899, Note_off_c, 0, 39, 52
1, 228926, Note_on_c, 0, 45, 102
1, 228926, Control_c, 0, 64, 61
1, 228937, Note_on_c, 0, 33, 91
1, 228941, Control_c, 0, 64, 82
1, 228944, Poly_aftertouch_c, 0, 37, 0
1, 228956, Control_c, 0, 64, 96
1, 228962, Note_off_c, 0, 33, 67
1, 228965, Note_off_c, 0, 45, 68
1, 228968, Note_on_c, 0, 34, 38
1, 228971, Control_c, 0, 64, 108
1, 228986, Control_c, 0, 64, 114
1, 229000, Control_c, 0, 64, 127
1, 229002, Note_off_c, 0, 34, 47
1, 229156, Note_on_c, 0, 64, 79
1, 229157, Note_on_c, 0, 57, 91
1, 229159, Note_on_c, 0, 52, 98
1, 229159, Note_on_c, 0, 61, 86
1, 229161, Note_on_c, 0, 69, 91
1, 229162, Note_on_c, 0, 49, 86
1, 229171, Note_on_c, 0, 45, 71
1, 229171, Note_on_c, 0, 40, 69
1, 229174, Note_off_c, 0, 57, 73
1, 229179, Note_off_c, 0, 61, 70
1, 229185, Note_off_c, 0, 64, 67
1, 229191, Note_off_c, 0, 45, 71
1, 229192, Note_off_c, 0, 49, 64
1, 229195, Note_off_c, 0, 52, 68
1, 229196, Note_off_c, 0, 40, 60
1, 229197, Note_off_c, 0, 69, 69
1, 229271, Poly_aftertouch_c, 0, 67, 0
1, 229370, Note_on_c, 0, 57, 28
1, 229393, Note_on_c, 0, 61, 90
1, 229393, Note_on_c, 0, 76, 80
1, 229394, Note_on_c, 0, 64, 101
1, 229394, Note_on_c, 0, 69, 103
1, 229395, Note_on_c, 0, 52, 83
1, 229398, Note_on_c, 0, 81, 99
1, 229399, Note_on_c, 0, 73, 95
1, 229418, Note_off_c, 0, 69, 66
1, 229421, Note_off_c, 0, 52, 70
1, 229424, Note_off_c, 0, 73, 65
1, 229427, Note_off_c, 0, 76, 70
1, 229431, Note_on_c, 0, 79, 45
1, 229431, Note_off_c, 0, 64, 67
1, 229432, Note_off_c, 0, 61, 65
1, 229439, Note_off_c, 0, 57, 63
1, 229442, Note_off_c, 0, 81, 65
1, 229456, Note_off_c, 0, 79, 36
1, 229616, Control_c, 0, 64, 114
1, 229627, Note_on_c, 0, 89, 50
1, 229630, Control_c, 0, 64, 81
1, 229631, Note_on_c, 0, 81, 103
1, 229633, Note_on_c, 0, 86, 96
1, 229634, Note_on_c, 0, 65, 81
1, 229634, Note_on_c, 0, 93, 97
1, 229636, Note_on_c, 0, 77, 102
1, 229638, Note_on_c, 0, 74, 82
1, 229639, Note_on_c, 0, 71, 63
1, 229645, Control_c, 0, 64, 65
1, 229656, Note_off_c, 0, 81, 71
1, 229660, Control_c, 0, 64, 66
1, 229670, Note_off_c, 0, 77, 67
1, 229671, Note_off_c, 0, 86, 63
1, 229674, Note_off_c, 0, 65, 66
1, 229675, Note_off_c, 0, 74, 66
1, 229675, Control_c, 0, 64, 74
1, 229683, Note_off_c, 0, 71, 63
1, 229683, Note_off_c, 0, 89, 66
1, 229685, Note_off_c, 0, 93, 66
1, 229690, Control_c, 0, 64, 86
1, 229704, Control_c, 0, 64, 123
1, 229719, Control_c, 0, 64, 127
1, 229933, Note_on_c, 0, 100, 61
1, 229942, Note_on_c, 0, 76, 83
1, 229947, Note_on_c, 0, 93, 105
1, 229949, Note_on_c, 0, 105, 105
1, 229950, Note_on_c, 0, 88, 101
1, 229950, Note_on_c, 0, 97, 105
1, 229951, Note_on_c, 0, 85, 102
1, 229955, Note_on_c, 0, 81, 78
1, 229958, Control_c, 0, 64, 97
1, 229980, Note_on_c, 0, 78, 18
1, 229980, Control_c, 0, 64, 63
1, 229984, Note_off_c, 0, 78, 38
1, 229988, Note_on_c, 0, 103, 62
1, 229995, Control_c, 0, 64, 0
1, 229999, Note_off_c, 0, 88, 66
1, 230008, Note_off_c, 0, 85, 68
1, 230009, Note_off_c, 0, 93, 61
1, 230010, Note_off_c, 0, 76, 68
1, 230010, Note_off_c, 0, 103, 61
1, 230014, Note_off_c, 0, 105, 67
1, 230016, Note_off_c, 0, 81, 66
1, 230024, Control_c, 0, 64, 61
1, 230026, Note_off_c, 0, 97, 66
1, 230028, Note_off_c, 0, 100, 66
1, 230039, Control_c, 0, 64, 79
1, 230053, Control_c, 0, 64, 98
1, 230068, Control_c, 0, 64, 127
1, 230380, Control_c, 0, 64, 118
1, 230395, Control_c, 0, 64, 108
1, 230409, Control_c, 0, 64, 99
1, 230424, Control_c, 0, 64, 85
1, 230439, Control_c, 0, 64, 66
1, 230453, Control_c, 0, 64, 0
1, 230492, Note_on_c, 0, 64, 102
1, 230495, Note_on_c, 0, 52, 80
1, 230495, Note_on_c, 0, 61, 101
1, 230497, Note_on_c, 0, 57, 70
1, 230498, Note_on_c, 0, 81, 93
1, 230499, Note_on_c, 0, 76, 75
1, 230500, Note_on_c, 0, 69, 97
1, 230501, Note_on_c, 0, 73, 88
1, 230521, Note_off_c, 0, 64, 69
1, 230527, Control_c, 0, 64, 72
1, 230533, Note_off_c, 0, 61, 64
1, 230534, Note_off_c, 0, 69, 67
1, 230539, Note_off_c, 0, 81, 66
1, 230542, Control_c, 0, 64, 84
1, 230545, Note_off_c, 0, 57, 64
1, 230545, Note_off_c, 0, 76, 70
1, 230551, Note_off_c, 0, 73, 65
1, 230552, Note_off_c, 0, 52, 67
1, 230557, Control_c, 0, 64, 98
1, 230572, Control_c, 0, 64, 107
1, 230587, Control_c, 0, 64, 124
1, 230601, Control_c, 0, 64, 127
1, 230708, Note_on_c, 0, 58, 40
1, 230760, Note_off_c, 0, 58, 46
1, 230809, Note_on_c, 0, 50, 91
1, 230814, Note_on_c, 0, 53, 81
1, 230816, Note_on_c, 0, 56, 84
1, 230819, Note_on_c, 0, 44, 100
1, 230822, Note_on_c, 0, 32, 87
1, 230843, Note_on_c, 0, 34, 48
1, 230849, Note_on_c, 0, 37, 42
1, 230854, Note_off_c, 0, 44, 67
1, 230868, Note_off_c, 0, 32, 62
1, 230873, Note_off_c, 0, 34, 58
1, 230888, Note_off_c, 0, 37, 49
1, 230924, Note_off_c, 0, 53, 58
1, 230947, Note_on_c, 0, 59, 89
1, 230950, Control_c, 0, 64, 126
1, 230956, Note_off_c, 0, 56, 60
1, 230965, Control_c, 0, 64, 109
1, 230980, Note_off_c, 0, 50, 62
1, 230980, Control_c, 0, 64, 95
1, 230995, Control_c, 0, 64, 80
1, 231010, Control_c, 0, 64, 65
1, 231025, Control_c, 0, 64, 0
1, 231041, Note_off_c, 0, 59, 36
1, 231182, Note_on_c, 0, 33, 95
1, 231183, Note_on_c, 0, 21, 84
1, 231183, Note_on_c, 0, 45, 90
1, 231187, Note_on_c, 0, 57, 83
1, 231189, Note_on_c, 0, 28, 82
1, 231198, Note_on_c, 0, 49, 81
1, 231200, Note_on_c, 0, 52, 69
1, 231212, Note_on_c, 0, 26, 58
1, 231213, Note_on_c, 0, 50, 76
1, 231213, Note_on_c, 0, 55, 59
1, 231218, Note_on_c, 0, 53, 45
1, 231237, Note_off_c, 0, 55, 60
1, 231249, Note_off_c, 0, 26, 54
1, 231249, Note_off_c, 0, 53, 50
1, 231325, Note_off_c, 0, 50, 57
1, 231331, Note_off_c, 0, 45, 64
1, 231334, Note_off_c, 0, 49, 55
1, 231381, Note_off_c, 0, 28, 43
1, 231381, Note_off_c, 0, 52, 60
1, 231404, Note_off_c, 0, 33, 66
1, 231412, Note_off_c, 0, 21, 63
1, 231445, Note_off_c, 0, 57, 61
1, 231445, End_track
0, 0, End_of_file
