0, 0, Header, 0, 1, 384
1, 0, Start_track
1, 0, Title_t, "Prelude & Fugue--VladimirLevitsk"
1, 0, Text_t, "2008 e-Piano Junior Competition recital round"
1, 0, Text_t, "recorded July 2008"
1, 0, Text_t, "http://www.piano-e-competition.com/"
1, 0, Text_t, "File processed for distribution by software from Zenph Studios, Inc., http://www.zenph.com"
1, 0, Instrument_name_t, "Yamaha Disklavier Pro Mark IV concert grand piano, model DCFIIISM4PRO"
1, 0, Sequencer_specific, 39, 67, 113, 0, 1, 0, 1, 0, 80, 114, 101, 108, 117, 100, 101, 32, 38, 32, 70, 117, 103, 117, 101, 32, 86, 108, 97, 100, 105, 109, 105, 114, 76, 101, 118, 105, 116, 115, 107, 121
1, 0, Sequencer_specific, 6, 67, 113, 0, 0, 0, 69
1, 0, System_exclusive, 21, 67, 113, 126, 21, 0, 2, 2, 0, 3, 14, 1, 4, 1, 13, 13, 10, 11, 9, 2, 7, 247
1, 0, Sequencer_specific, 5, 67, 123, 12, 2, 1
1, 0, Tempo, 512820
1, 0, Time_signature, 4, 2, 24, 8
1, 0, System_exclusive, 5, 126, 127, 9, 1, 247
1, 1, System_exclusive, 8, 67, 16, 76, 0, 0, 126, 0, 247
1, 2, System_exclusive, 8, 67, 16, 76, 8, 9, 7, 1, 247
1, 3, Control_c, 0, 0, 0
1, 3, Control_c, 1, 0, 0
1, 3, Control_c, 2, 0, 0
1, 3, Control_c, 3, 0, 0
1, 3, Control_c, 4, 0, 0
1, 3, Control_c, 5, 0, 0
1, 3, Control_c, 6, 0, 0
1, 3, Control_c, 7, 0, 0
1, 3, Control_c, 8, 0, 0
1, 3, Control_c, 9, 0, 127
1, 3, Control_c, 10, 0, 0
1, 3, Control_c, 11, 0, 0
1, 3, Control_c, 12, 0, 0
1, 3, Control_c, 13, 0, 0
1, 3, Control_c, 14, 0, 0
1, 3, Control_c, 15, 0, 0
1, 4, Control_c, 0, 32, 0
1, 4, Control_c, 1, 32, 0
1, 4, Control_c, 2, 32, 0
1, 4, Control_c, 3, 32, 0
1, 4, Control_c, 4, 32, 0
1, 4, Control_c, 5, 32, 0
1, 4, Control_c, 6, 32, 0
1, 4, Control_c, 7, 32, 0
1, 4, Control_c, 8, 32, 0
1, 4, Control_c, 9, 32, 0
1, 4, Control_c, 10, 32, 0
1, 4, Control_c, 11, 32, 0
1, 4, Control_c, 12, 32, 0
1, 4, Control_c, 13, 32, 0
1, 4, Control_c, 14, 32, 0
1, 4, Control_c, 15, 32, 0
1, 5, Program_c, 0, 0
1, 5, Program_c, 1, 0
1, 5, Program_c, 2, 0
1, 5, Program_c, 3, 0
1, 5, Program_c, 4, 0
1, 5, Program_c, 5, 0
1, 5, Program_c, 6, 0
1, 5, Program_c, 7, 0
1, 5, Program_c, 8, 0
1, 5, Program_c, 9, 0
1, 5, Program_c, 10, 0
1, 5, Program_c, 11, 0
1, 5, Program_c, 12, 0
1, 5, Program_c, 13, 0
1, 5, Program_c, 14, 0
1, 5, Program_c, 15, 0
1, 6, Control_c, 0, 7, 100
1, 6, Control_c, 1, 7, 100
1, 6, Control_c, 2, 7, 100
1, 6, Control_c, 3, 7, 100
1, 6, Control_c, 4, 7, 100
1, 6, Control_c, 5, 7, 100
1, 6, Control_c, 6, 7, 100
1, 6, Control_c, 7, 7, 100
1, 6, Control_c, 8, 7, 100
1, 6, Control_c, 9, 7, 100
1, 6, Control_c, 10, 7, 100
1, 6, Control_c, 11, 7, 100
1, 6, Control_c, 12, 7, 100
1, 6, Control_c, 13, 7, 100
1, 6, Control_c, 14, 7, 100
1, 6, Control_c, 15, 7, 100
1, 117, Control_c, 0, 64, 9
1, 229, Control_c, 0, 64, 19
1, 341, Control_c, 0, 64, 28
1, 452, Control_c, 0, 64, 38
1, 564, Control_c, 0, 64, 47
1, 676, Control_c, 0, 64, 57
1, 787, Control_c, 0, 64, 66
1, 899, Control_c, 0, 64, 77
1, 1131, Note_on_c, 0, 62, 45
1, 1132, Control_c, 0, 64, 75
1, 1141, Note_on_c, 0, 47, 42
1, 1147, Control_c, 0, 64, 74
1, 1162, Control_c, 0, 64, 70
1, 1176, Control_c, 0, 64, 65
1, 1191, Control_c, 0, 64, 53
1, 1206, Control_c, 0, 64, 34
1, 1221, Control_c, 0, 64, 29
1, 1236, Control_c, 0, 64, 29
1, 1251, Control_c, 0, 64, 18
1, 1266, Control_c, 0, 64, 0
1, 1323, Note_on_c, 0, 66, 46
1, 1378, Note_off_c, 0, 62, 48
1, 1476, Note_off_c, 0, 66, 51
1, 1479, Note_on_c, 0, 50, 55
1, 1481, Note_on_c, 0, 59, 52
1, 1577, Note_off_c, 0, 47, 42
1, 1646, Note_on_c, 0, 61, 63
1, 1672, Note_off_c, 0, 59, 52
1, 1808, Note_off_c, 0, 61, 59
1, 1811, Note_on_c, 0, 54, 63
1, 1811, Note_on_c, 0, 62, 67
1, 1844, Note_off_c, 0, 50, 51
1, 1971, Note_on_c, 0, 66, 65
1, 2008, Note_off_c, 0, 62, 49
1, 2130, Note_on_c, 0, 59, 62
1, 2144, Note_off_c, 0, 66, 59
1, 2187, Note_off_c, 0, 54, 62
1, 2206, Note_on_c, 0, 55, 67
1, 2267, Note_off_c, 0, 59, 59
1, 2280, Note_off_c, 0, 55, 60
1, 2282, Note_on_c, 0, 54, 61
1, 2282, Note_on_c, 0, 62, 59
1, 2339, Note_off_c, 0, 54, 62
1, 2356, Note_on_c, 0, 53, 65
1, 2443, Note_off_c, 0, 53, 65
1, 2449, Note_on_c, 0, 61, 64
1, 2452, Note_off_c, 0, 62, 59
1, 2457, Note_on_c, 0, 54, 62
1, 2623, Note_on_c, 0, 66, 63
1, 2656, Note_off_c, 0, 61, 58
1, 2703, Note_off_c, 0, 66, 63
1, 2785, Note_on_c, 0, 67, 60
1, 2795, Note_on_c, 0, 46, 54
1, 2867, Note_off_c, 0, 54, 37
1, 2877, Note_on_c, 0, 66, 54
1, 2905, Note_off_c, 0, 67, 62
1, 2918, Note_off_c, 0, 66, 68
1, 2940, Note_on_c, 0, 65, 68
1, 3011, Note_on_c, 0, 66, 73
1, 3011, Note_off_c, 0, 65, 61
1, 3099, Note_on_c, 0, 49, 53
1, 3108, Note_on_c, 0, 70, 67
1, 3144, Note_off_c, 0, 66, 59
1, 3183, Note_off_c, 0, 46, 35
1, 3281, Note_on_c, 0, 66, 69
1, 3325, Note_off_c, 0, 70, 62
1, 3468, Note_on_c, 0, 54, 48
1, 3469, Note_on_c, 0, 73, 66
1, 3522, Note_off_c, 0, 49, 58
1, 3562, Note_off_c, 0, 66, 59
1, 3627, Note_on_c, 0, 64, 67
1, 3631, Note_off_c, 0, 73, 62
1, 3814, Note_on_c, 0, 62, 63
1, 3817, Note_on_c, 0, 47, 62
1, 3867, Note_off_c, 0, 64, 56
1, 3898, Note_off_c, 0, 54, 38
1, 3989, Note_on_c, 0, 66, 66
1, 4086, Note_off_c, 0, 62, 51
1, 4146, Note_on_c, 0, 59, 66
1, 4157, Note_on_c, 0, 50, 55
1, 4172, Note_off_c, 0, 66, 56
1, 4210, Note_off_c, 0, 47, 52
1, 4311, Note_on_c, 0, 61, 69
1, 4345, Note_off_c, 0, 59, 55
1, 4479, Note_on_c, 0, 54, 62
1, 4481, Note_on_c, 0, 62, 63
1, 4504, Note_off_c, 0, 61, 56
1, 4509, Note_off_c, 0, 50, 58
1, 4649, Note_on_c, 0, 66, 60
1, 4673, Note_off_c, 0, 62, 53
1, 4807, Note_on_c, 0, 59, 59
1, 4854, Note_off_c, 0, 66, 36
1, 4857, Note_off_c, 0, 54, 62
1, 4877, Note_on_c, 0, 55, 60
1, 4939, Note_off_c, 0, 55, 58
1, 4944, Note_on_c, 0, 54, 56
1, 4951, Note_off_c, 0, 59, 56
1, 4968, Note_on_c, 0, 62, 54
1, 5008, Note_off_c, 0, 54, 62
1, 5021, Note_on_c, 0, 53, 61
1, 5112, Note_off_c, 0, 53, 65
1, 5121, Note_on_c, 0, 61, 59
1, 5131, Note_on_c, 0, 54, 60
1, 5159, Note_off_c, 0, 62, 51
1, 5296, Note_on_c, 0, 66, 54
1, 5311, Note_off_c, 0, 61, 59
1, 5471, Note_on_c, 0, 61, 52
1, 5486, Note_on_c, 0, 42, 41
1, 5535, Note_off_c, 0, 66, 39
1, 5590, Note_off_c, 0, 54, 35
1, 5633, Note_on_c, 0, 58, 56
1, 5714, Note_off_c, 0, 42, 61
1, 5756, Note_off_c, 0, 61, 37
1, 5815, Note_on_c, 0, 54, 55
1, 5908, Note_off_c, 0, 58, 33
1, 5981, Note_on_c, 0, 52, 59
1, 6071, Note_off_c, 0, 54, 55
1, 6153, Note_on_c, 0, 50, 58
1, 6171, Note_off_c, 0, 52, 60
1, 6324, Note_on_c, 0, 49, 61
1, 6333, Note_off_c, 0, 50, 59
1, 6493, Note_on_c, 0, 50, 61
1, 6512, Note_off_c, 0, 49, 54
1, 6648, Note_on_c, 0, 54, 59
1, 6673, Note_off_c, 0, 50, 49
1, 6843, Note_on_c, 0, 74, 63
1, 6852, Note_on_c, 0, 47, 47
1, 6921, Note_off_c, 0, 54, 31
1, 7002, Note_on_c, 0, 49, 54
1, 7057, Note_off_c, 0, 47, 40
1, 7175, Note_off_c, 0, 49, 54
1, 7184, Note_on_c, 0, 71, 62
1, 7188, Note_on_c, 0, 50, 50
1, 7281, Note_off_c, 0, 74, 48
1, 7347, Note_on_c, 0, 54, 50
1, 7380, Note_off_c, 0, 50, 35
1, 7513, Note_on_c, 0, 66, 58
1, 7520, Note_on_c, 0, 47, 51
1, 7574, Note_off_c, 0, 54, 37
1, 7598, Note_off_c, 0, 71, 48
1, 7681, Note_on_c, 0, 50, 61
1, 7682, Note_off_c, 0, 47, 58
1, 7778, Note_off_c, 0, 66, 63
1, 7846, Note_off_c, 0, 50, 61
1, 7851, Note_on_c, 0, 49, 65
1, 7999, Note_on_c, 0, 54, 67
1, 8020, Note_off_c, 0, 49, 54
1, 8170, Note_off_c, 0, 54, 62
1, 8180, Note_on_c, 0, 76, 68
1, 8182, Note_on_c, 0, 55, 66
1, 8261, Note_off_c, 0, 55, 61
1, 8262, Note_on_c, 0, 54, 60
1, 8311, Note_off_c, 0, 54, 63
1, 8320, Note_on_c, 0, 53, 68
1, 8411, Note_off_c, 0, 53, 66
1, 8417, Note_on_c, 0, 54, 65
1, 8504, Note_off_c, 0, 54, 62
1, 8512, Note_on_c, 0, 73, 67
1, 8513, Note_on_c, 0, 58, 63
1, 8596, Note_off_c, 0, 76, 59
1, 8676, Note_on_c, 0, 54, 60
1, 8701, Note_off_c, 0, 58, 61
1, 8841, Note_on_c, 0, 66, 66
1, 8850, Note_on_c, 0, 61, 59
1, 8868, Note_off_c, 0, 54, 48
1, 9005, Note_on_c, 0, 52, 66
1, 9046, Note_off_c, 0, 61, 59
1, 9143, Note_off_c, 0, 66, 63
1, 9154, Note_off_c, 0, 73, 15
1, 9179, Note_on_c, 0, 50, 68
1, 9192, Note_off_c, 0, 52, 55
1, 9340, Note_on_c, 0, 54, 62
1, 9341, Note_off_c, 0, 50, 61
1, 9539, Note_on_c, 0, 78, 74
1, 9542, Note_on_c, 0, 47, 52
1, 9629, Note_off_c, 0, 54, 36
1, 9712, Note_on_c, 0, 49, 59
1, 9748, Note_off_c, 0, 47, 38
1, 9881, Note_off_c, 0, 49, 59
1, 9883, Note_on_c, 0, 50, 58
1, 10036, Note_off_c, 0, 78, 61
1, 10044, Note_on_c, 0, 54, 55
1, 10044, Note_on_c, 0, 76, 61
1, 10060, Note_off_c, 0, 50, 53
1, 10113, Note_off_c, 0, 76, 63
1, 10119, Note_on_c, 0, 74, 63
1, 10194, Note_off_c, 0, 74, 64
1, 10200, Note_on_c, 0, 47, 51
1, 10209, Note_on_c, 0, 76, 58
1, 10225, Note_off_c, 0, 54, 34
1, 10287, Note_on_c, 0, 74, 63
1, 10325, Note_off_c, 0, 76, 62
1, 10331, Note_off_c, 0, 47, 57
1, 10350, Note_on_c, 0, 50, 49
1, 10356, Note_on_c, 0, 73, 67
1, 10374, Note_off_c, 0, 74, 61
1, 10425, Note_off_c, 0, 73, 60
1, 10434, Note_on_c, 0, 71, 68
1, 10474, Note_off_c, 0, 71, 62
1, 10542, Note_off_c, 0, 50, 55
1, 10547, Note_on_c, 0, 71, 57
1, 10550, Note_on_c, 0, 49, 51
1, 10699, Note_off_c, 0, 49, 56
1, 10721, Note_on_c, 0, 54, 55
1, 10885, Note_on_c, 0, 70, 53
1, 10904, Note_on_c, 0, 49, 43
1, 10940, Note_off_c, 0, 54, 37
1, 10946, Note_off_c, 0, 71, 51
1, 11059, Note_on_c, 0, 46, 50
1, 11064, Note_off_c, 0, 49, 47
1, 11079, Note_off_c, 0, 70, 63
1, 11243, Note_off_c, 0, 46, 55
1, 11255, Note_on_c, 0, 42, 45
1, 11437, Note_on_c, 0, 64, 44
1, 11446, Note_off_c, 0, 42, 61
1, 11514, Note_off_c, 0, 64, 54
1, 11523, Note_on_c, 0, 62, 48
1, 11583, Note_off_c, 0, 62, 60
1, 11600, Note_on_c, 0, 61, 57
1, 11602, Note_on_c, 0, 58, 44
1, 11654, Note_off_c, 0, 61, 58
1, 11681, Note_off_c, 0, 58, 51
1, 11684, Note_on_c, 0, 62, 54
1, 11773, Note_on_c, 0, 64, 51
1, 11778, Note_off_c, 0, 62, 58
1, 11815, Note_off_c, 0, 64, 64
1, 11973, Note_on_c, 0, 62, 53
1, 11977, Note_on_c, 0, 47, 36
1, 12000, Control_c, 0, 64, 47
1, 12015, Control_c, 0, 64, 63
1, 12027, Note_off_c, 0, 62, 53
1, 12029, Control_c, 0, 64, 67
1, 12044, Control_c, 0, 64, 70
1, 12059, Control_c, 0, 64, 74
1, 12081, Control_c, 0, 64, 79
1, 12096, Control_c, 0, 64, 84
1, 12112, Control_c, 0, 64, 85
1, 12126, Control_c, 0, 64, 86
1, 12141, Control_c, 0, 64, 86
1, 12184, Note_on_c, 0, 71, 53
1, 12185, Control_c, 0, 64, 87
1, 12228, Note_off_c, 0, 71, 49
1, 12256, Note_on_c, 0, 73, 66
1, 12319, Control_c, 0, 64, 86
1, 12349, Control_c, 0, 64, 86
1, 12349, Note_off_c, 0, 73, 61
1, 12352, Note_on_c, 0, 74, 67
1, 12359, Note_on_c, 0, 59, 52
1, 12364, Control_c, 0, 64, 84
1, 12371, Note_off_c, 0, 47, 44
1, 12378, Control_c, 0, 64, 79
1, 12393, Control_c, 0, 64, 73
1, 12408, Control_c, 0, 64, 63
1, 12423, Control_c, 0, 64, 0
1, 12433, Note_on_c, 0, 73, 70
1, 12441, Note_off_c, 0, 74, 63
1, 12534, Note_on_c, 0, 71, 65
1, 12556, Note_off_c, 0, 73, 54
1, 12691, Note_on_c, 0, 61, 58
1, 12785, Note_off_c, 0, 59, 55
1, 12875, Note_on_c, 0, 78, 72
1, 12959, Note_off_c, 0, 71, 57
1, 13043, Note_on_c, 0, 63, 62
1, 13133, Note_off_c, 0, 61, 57
1, 13215, Note_on_c, 0, 69, 67
1, 13247, Note_off_c, 0, 78, 64
1, 13382, Note_off_c, 0, 63, 61
1, 13390, Note_on_c, 0, 64, 63
1, 13494, Note_off_c, 0, 69, 59
1, 13557, Note_on_c, 0, 71, 60
1, 13641, Note_on_c, 0, 69, 72
1, 13663, Note_off_c, 0, 71, 51
1, 13724, Note_off_c, 0, 69, 63
1, 13731, Note_on_c, 0, 68, 68
1, 13735, Note_on_c, 0, 52, 48
1, 13795, Note_off_c, 0, 64, 47
1, 13807, Note_off_c, 0, 68, 63
1, 13812, Note_on_c, 0, 69, 67
1, 13911, Note_on_c, 0, 71, 56
1, 13935, Note_off_c, 0, 69, 58
1, 14082, Note_on_c, 0, 54, 48
1, 14159, Note_off_c, 0, 52, 30
1, 14255, Note_on_c, 0, 62, 55
1, 14284, Note_off_c, 0, 71, 49
1, 14429, Note_off_c, 0, 54, 52
1, 14432, Note_on_c, 0, 56, 47
1, 14491, Control_c, 0, 64, 55
1, 14507, Control_c, 0, 64, 64
1, 14522, Control_c, 0, 64, 67
1, 14532, Note_off_c, 0, 62, 56
1, 14537, Control_c, 0, 64, 70
1, 14552, Control_c, 0, 64, 72
1, 14566, Control_c, 0, 64, 76
1, 14573, Note_off_c, 0, 56, 61
1, 14581, Control_c, 0, 64, 80
1, 14593, Note_on_c, 0, 71, 52
1, 14596, Control_c, 0, 64, 83
1, 14611, Control_c, 0, 64, 84
1, 14626, Control_c, 0, 64, 84
1, 14640, Control_c, 0, 64, 85
1, 14655, Control_c, 0, 64, 86
1, 14670, Control_c, 0, 64, 87
1, 14684, Note_off_c, 0, 71, 41
1, 14685, Control_c, 0, 64, 88
1, 14699, Control_c, 0, 64, 88
1, 14729, Control_c, 0, 64, 89
1, 14788, Control_c, 0, 64, 88
1, 14802, Note_on_c, 0, 61, 50
1, 14802, Note_on_c, 0, 45, 44
1, 14803, Control_c, 0, 64, 88
1, 14818, Control_c, 0, 64, 84
1, 14833, Control_c, 0, 64, 78
1, 14847, Control_c, 0, 64, 68
1, 14862, Control_c, 0, 64, 47
1, 14877, Control_c, 0, 64, 0
1, 14892, Control_c, 0, 64, 54
1, 14907, Control_c, 0, 64, 66
1, 14908, Note_off_c, 0, 61, 61
1, 14921, Control_c, 0, 64, 72
1, 14936, Control_c, 0, 64, 77
1, 14951, Control_c, 0, 64, 80
1, 14966, Control_c, 0, 64, 81
1, 14978, Note_on_c, 0, 69, 64
1, 14981, Control_c, 0, 64, 81
1, 14996, Control_c, 0, 64, 82
1, 15011, Control_c, 0, 64, 83
1, 15026, Control_c, 0, 64, 84
1, 15040, Control_c, 0, 64, 84
1, 15046, Note_off_c, 0, 69, 61
1, 15053, Note_on_c, 0, 71, 63
1, 15136, Control_c, 0, 64, 84
1, 15151, Control_c, 0, 64, 83
1, 15153, Note_off_c, 0, 71, 60
1, 15156, Note_on_c, 0, 73, 65
1, 15166, Note_on_c, 0, 57, 56
1, 15166, Control_c, 0, 64, 80
1, 15181, Note_off_c, 0, 45, 43
1, 15181, Control_c, 0, 64, 75
1, 15196, Control_c, 0, 64, 66
1, 15211, Control_c, 0, 64, 25
1, 15225, Control_c, 0, 64, 0
1, 15232, Note_on_c, 0, 71, 64
1, 15253, Note_off_c, 0, 73, 55
1, 15333, Note_on_c, 0, 69, 65
1, 15392, Note_off_c, 0, 71, 49
1, 15500, Note_on_c, 0, 59, 60
1, 15589, Note_off_c, 0, 57, 54
1, 15677, Note_on_c, 0, 76, 70
1, 15831, Note_off_c, 0, 69, 52
1, 15848, Note_on_c, 0, 61, 60
1, 15914, Note_off_c, 0, 59, 61
1, 16013, Note_on_c, 0, 67, 69
1, 16049, Note_off_c, 0, 76, 50
1, 16199, Note_on_c, 0, 62, 65
1, 16224, Note_off_c, 0, 61, 58
1, 16365, Note_off_c, 0, 67, 55
1, 16367, Note_on_c, 0, 69, 64
1, 16450, Note_on_c, 0, 67, 65
1, 16457, Note_off_c, 0, 69, 59
1, 16528, Note_off_c, 0, 67, 62
1, 16535, Note_on_c, 0, 66, 70
1, 16543, Note_on_c, 0, 50, 50
1, 16612, Note_off_c, 0, 66, 65
1, 16621, Note_on_c, 0, 67, 67
1, 16623, Note_off_c, 0, 62, 48
1, 16722, Note_on_c, 0, 69, 61
1, 16730, Note_off_c, 0, 67, 58
1, 16899, Note_on_c, 0, 52, 55
1, 17014, Note_off_c, 0, 50, 36
1, 17068, Note_on_c, 0, 61, 57
1, 17097, Note_off_c, 0, 69, 54
1, 17234, Note_off_c, 0, 52, 59
1, 17235, Note_on_c, 0, 54, 54
1, 17286, Control_c, 0, 64, 21
1, 17301, Control_c, 0, 64, 59
1, 17324, Control_c, 0, 64, 64
1, 17339, Control_c, 0, 64, 66
1, 17354, Control_c, 0, 64, 68
1, 17368, Control_c, 0, 64, 70
1, 17383, Control_c, 0, 64, 73
1, 17398, Control_c, 0, 64, 76
1, 17405, Note_off_c, 0, 54, 62
1, 17413, Control_c, 0, 64, 79
1, 17425, Note_on_c, 0, 69, 54
1, 17428, Control_c, 0, 64, 80
1, 17442, Control_c, 0, 64, 81
1, 17452, Note_off_c, 0, 61, 56
1, 17457, Control_c, 0, 64, 82
1, 17472, Control_c, 0, 64, 82
1, 17620, Note_on_c, 0, 59, 55
1, 17620, Control_c, 0, 64, 81
1, 17634, Note_on_c, 0, 43, 47
1, 17635, Control_c, 0, 64, 80
1, 17649, Control_c, 0, 64, 77
1, 17664, Control_c, 0, 64, 71
1, 17679, Control_c, 0, 64, 61
1, 17695, Control_c, 0, 64, 0
1, 17720, Note_off_c, 0, 69, 36
1, 17794, Note_off_c, 0, 59, 37
1, 17812, Note_on_c, 0, 66, 60
1, 17978, Note_on_c, 0, 47, 58
1, 18168, Note_on_c, 0, 69, 63
1, 18177, Note_off_c, 0, 43, 41
1, 18240, Note_off_c, 0, 66, 59
1, 18338, Note_on_c, 0, 50, 63
1, 18424, Note_off_c, 0, 47, 38
1, 18503, Note_on_c, 0, 67, 60
1, 18513, Note_off_c, 0, 69, 57
1, 18575, Note_off_c, 0, 67, 62
1, 18579, Note_on_c, 0, 66, 66
1, 18636, Note_off_c, 0, 66, 60
1, 18666, Note_on_c, 0, 67, 59
1, 18674, Note_on_c, 0, 52, 61
1, 18701, Note_off_c, 0, 50, 57
1, 18746, Note_on_c, 0, 66, 69
1, 18770, Note_off_c, 0, 67, 57
1, 18835, Note_on_c, 0, 64, 65
1, 18844, Note_off_c, 0, 66, 59
1, 18904, Note_off_c, 0, 64, 63
1, 18908, Note_on_c, 0, 62, 71
1, 18978, Note_off_c, 0, 62, 54
1, 19014, Note_on_c, 0, 61, 67
1, 19015, Note_on_c, 0, 45, 51
1, 19086, Note_off_c, 0, 52, 46
1, 19160, Note_off_c, 0, 61, 60
1, 19205, Note_on_c, 0, 67, 64
1, 19360, Note_on_c, 0, 49, 60
1, 19467, Note_off_c, 0, 45, 56
1, 19544, Note_on_c, 0, 71, 68
1, 19622, Note_off_c, 0, 67, 56
1, 19714, Note_on_c, 0, 52, 63
1, 19765, Note_off_c, 0, 49, 53
1, 19866, Note_on_c, 0, 69, 67
1, 19882, Note_off_c, 0, 71, 56
1, 19940, Note_off_c, 0, 69, 63
1, 19944, Note_on_c, 0, 67, 68
1, 20018, Note_off_c, 0, 67, 61
1, 20022, Note_on_c, 0, 54, 57
1, 20025, Note_on_c, 0, 69, 72
1, 20062, Note_off_c, 0, 52, 38
1, 20113, Note_on_c, 0, 67, 70
1, 20127, Note_off_c, 0, 69, 59
1, 20191, Note_on_c, 0, 66, 70
1, 20201, Note_off_c, 0, 67, 59
1, 20256, Note_on_c, 0, 64, 71
1, 20269, Note_off_c, 0, 66, 62
1, 20355, Note_off_c, 0, 64, 60
1, 20370, Note_on_c, 0, 47, 59
1, 20373, Note_on_c, 0, 62, 70
1, 20397, Note_off_c, 0, 54, 52
1, 20511, Note_off_c, 0, 62, 57
1, 20562, Note_on_c, 0, 69, 70
1, 20719, Note_on_c, 0, 50, 66
1, 20815, Note_off_c, 0, 47, 50
1, 20908, Note_on_c, 0, 72, 74
1, 20985, Note_off_c, 0, 69, 59
1, 21085, Note_on_c, 0, 54, 73
1, 21117, Note_off_c, 0, 50, 56
1, 21252, Note_on_c, 0, 71, 66
1, 21259, Note_off_c, 0, 72, 58
1, 21327, Note_on_c, 0, 69, 77
1, 21333, Note_off_c, 0, 71, 60
1, 21408, Note_off_c, 0, 69, 59
1, 21418, Note_on_c, 0, 71, 71
1, 21422, Note_on_c, 0, 55, 62
1, 21444, Note_off_c, 0, 54, 55
1, 21503, Note_on_c, 0, 69, 77
1, 21517, Note_off_c, 0, 71, 55
1, 21581, Note_on_c, 0, 67, 74
1, 21602, Note_off_c, 0, 69, 58
1, 21651, Note_on_c, 0, 66, 80
1, 21654, Note_off_c, 0, 67, 62
1, 21754, Note_off_c, 0, 66, 58
1, 21763, Note_on_c, 0, 49, 58
1, 21766, Note_on_c, 0, 64, 73
1, 21822, Note_off_c, 0, 55, 54
1, 21928, Note_off_c, 0, 64, 58
1, 21969, Note_on_c, 0, 71, 70
1, 22137, Note_on_c, 0, 52, 66
1, 22223, Note_off_c, 0, 49, 37
1, 22314, Note_on_c, 0, 74, 67
1, 22448, Note_off_c, 0, 71, 38
1, 22494, Note_on_c, 0, 55, 58
1, 22572, Note_off_c, 0, 52, 60
1, 22673, Note_on_c, 0, 73, 61
1, 22696, Note_off_c, 0, 74, 55
1, 22751, Note_off_c, 0, 73, 62
1, 22753, Note_on_c, 0, 71, 67
1, 22837, Note_off_c, 0, 71, 58
1, 22840, Note_on_c, 0, 73, 69
1, 22846, Note_on_c, 0, 57, 57
1, 22910, Note_off_c, 0, 55, 53
1, 22922, Note_on_c, 0, 71, 67
1, 22931, Note_off_c, 0, 73, 57
1, 23005, Note_on_c, 0, 69, 73
1, 23021, Note_off_c, 0, 71, 58
1, 23073, Note_off_c, 0, 69, 64
1, 23087, Note_on_c, 0, 67, 68
1, 23221, Note_on_c, 0, 50, 58
1, 23232, Note_on_c, 0, 66, 68
1, 23275, Note_off_c, 0, 67, 59
1, 23327, Note_off_c, 0, 57, 51
1, 23435, Note_on_c, 0, 69, 62
1, 23544, Note_off_c, 0, 66, 53
1, 23602, Note_on_c, 0, 54, 60
1, 23602, Note_on_c, 0, 62, 67
1, 23664, Note_off_c, 0, 50, 55
1, 23666, Note_off_c, 0, 69, 37
1, 23774, Note_on_c, 0, 64, 67
1, 23816, Note_off_c, 0, 62, 54
1, 23945, Note_on_c, 0, 57, 60
1, 23952, Note_on_c, 0, 66, 72
1, 23988, Note_off_c, 0, 54, 60
1, 23992, Note_off_c, 0, 64, 63
1, 24126, Note_on_c, 0, 69, 63
1, 24164, Note_off_c, 0, 66, 56
1, 24286, Note_on_c, 0, 62, 67
1, 24321, Note_off_c, 0, 69, 54
1, 24331, Note_off_c, 0, 57, 58
1, 24357, Note_on_c, 0, 59, 60
1, 24430, Note_on_c, 0, 57, 60
1, 24430, Note_off_c, 0, 59, 58
1, 24433, Note_off_c, 0, 62, 56
1, 24443, Note_on_c, 0, 66, 63
1, 24512, Note_off_c, 0, 57, 62
1, 24520, Note_on_c, 0, 56, 63
1, 24610, Note_off_c, 0, 56, 61
1, 24612, Note_off_c, 0, 66, 64
1, 24615, Note_on_c, 0, 64, 59
1, 24618, Note_on_c, 0, 57, 65
1, 24814, Note_on_c, 0, 69, 62
1, 24851, Note_off_c, 0, 64, 56
1, 24891, Note_off_c, 0, 69, 63
1, 24970, Note_on_c, 0, 49, 49
1, 24976, Note_on_c, 0, 71, 62
1, 25048, Note_on_c, 0, 69, 69
1, 25051, Note_off_c, 0, 57, 34
1, 25051, Note_off_c, 0, 71, 56
1, 25119, Note_off_c, 0, 69, 64
1, 25124, Note_on_c, 0, 68, 72
1, 25185, Note_off_c, 0, 68, 63
1, 25200, Note_on_c, 0, 69, 68
1, 25293, Note_on_c, 0, 73, 67
1, 25298, Note_on_c, 0, 52, 52
1, 25320, Note_off_c, 0, 69, 54
1, 25368, Note_off_c, 0, 49, 56
1, 25482, Note_on_c, 0, 69, 66
1, 25517, Note_off_c, 0, 73, 54
1, 25670, Note_on_c, 0, 57, 52
1, 25676, Note_on_c, 0, 76, 63
1, 25699, Note_off_c, 0, 69, 60
1, 25738, Note_off_c, 0, 52, 52
1, 25835, Note_off_c, 0, 76, 62
1, 25843, Note_on_c, 0, 67, 67
1, 26021, Note_on_c, 0, 66, 63
1, 26028, Note_on_c, 0, 50, 56
1, 26068, Note_off_c, 0, 67, 58
1, 26099, Note_off_c, 0, 57, 53
1, 26205, Note_on_c, 0, 69, 64
1, 26285, Note_off_c, 0, 66, 54
1, 26363, Note_on_c, 0, 62, 65
1, 26370, Note_on_c, 0, 54, 60
1, 26377, Note_off_c, 0, 69, 54
1, 26415, Note_off_c, 0, 50, 53
1, 26533, Note_on_c, 0, 64, 66
1, 26579, Note_off_c, 0, 62, 53
1, 26708, Note_on_c, 0, 57, 63
1, 26714, Note_on_c, 0, 66, 69
1, 26747, Note_off_c, 0, 54, 58
1, 26747, Note_off_c, 0, 64, 60
1, 26876, Note_on_c, 0, 69, 60
1, 26911, Note_off_c, 0, 66, 56
1, 27026, Note_on_c, 0, 62, 58
1, 27102, Note_off_c, 0, 57, 58
1, 27111, Note_off_c, 0, 69, 27
1, 27133, Note_on_c, 0, 59, 56
1, 27187, Note_off_c, 0, 59, 57
1, 27196, Note_on_c, 0, 57, 59
1, 27209, Note_on_c, 0, 66, 57
1, 27212, Note_off_c, 0, 62, 56
1, 27263, Note_off_c, 0, 57, 62
1, 27279, Note_on_c, 0, 56, 63
1, 27358, Note_off_c, 0, 56, 59
1, 27371, Note_on_c, 0, 57, 60
1, 27376, Note_on_c, 0, 64, 60
1, 27420, Note_off_c, 0, 66, 55
1, 27563, Note_on_c, 0, 69, 55
1, 27582, Note_off_c, 0, 64, 57
1, 27739, Note_on_c, 0, 45, 42
1, 27739, Note_on_c, 0, 64, 53
1, 27772, Note_off_c, 0, 57, 29
1, 27808, Note_off_c, 0, 69, 37
1, 27918, Note_on_c, 0, 61, 52
1, 27969, Note_off_c, 0, 64, 58
1, 27984, Note_off_c, 0, 45, 48
1, 28095, Note_on_c, 0, 57, 54
1, 28139, Note_off_c, 0, 61, 35
1, 28257, Note_on_c, 0, 55, 54
1, 28324, Note_off_c, 0, 57, 55
1, 28430, Note_on_c, 0, 54, 62
1, 28440, Note_off_c, 0, 55, 56
1, 28606, Note_on_c, 0, 52, 64
1, 28617, Note_off_c, 0, 54, 57
1, 28780, Note_on_c, 0, 54, 60
1, 28786, Note_off_c, 0, 52, 59
1, 28950, Note_on_c, 0, 57, 55
1, 28989, Note_off_c, 0, 54, 47
1, 29122, Note_on_c, 0, 69, 60
1, 29143, Note_on_c, 0, 50, 44
1, 29194, Note_off_c, 0, 57, 33
1, 29277, Note_off_c, 0, 50, 47
1, 29281, Note_on_c, 0, 52, 56
1, 29329, Note_off_c, 0, 69, 60
1, 29444, Note_on_c, 0, 71, 59
1, 29447, Note_off_c, 0, 52, 59
1, 29447, Note_on_c, 0, 54, 54
1, 29519, Note_on_c, 0, 69, 64
1, 29522, Note_off_c, 0, 71, 54
1, 29569, Note_off_c, 0, 54, 54
1, 29588, Note_off_c, 0, 69, 66
1, 29591, Note_on_c, 0, 68, 68
1, 29614, Note_on_c, 0, 57, 50
1, 29656, Note_off_c, 0, 68, 63
1, 29668, Note_on_c, 0, 69, 69
1, 29780, Note_on_c, 0, 78, 66
1, 29787, Note_on_c, 0, 50, 44
1, 29795, Note_off_c, 0, 57, 36
1, 29820, Note_off_c, 0, 69, 52
1, 29959, Note_on_c, 0, 54, 55
1, 29962, Note_off_c, 0, 50, 46
1, 30099, Note_off_c, 0, 78, 59
1, 30136, Note_on_c, 0, 52, 62
1, 30142, Note_off_c, 0, 54, 57
1, 30306, Note_on_c, 0, 57, 62
1, 30306, Note_off_c, 0, 52, 62
1, 30452, Note_off_c, 0, 57, 63
1, 30457, Note_on_c, 0, 69, 62
1, 30470, Note_on_c, 0, 59, 66
1, 30538, Note_off_c, 0, 59, 62
1, 30551, Note_on_c, 0, 57, 60
1, 30602, Note_off_c, 0, 57, 63
1, 30619, Note_on_c, 0, 56, 64
1, 30664, Note_off_c, 0, 69, 60
1, 30679, Note_off_c, 0, 56, 64
1, 30684, Note_on_c, 0, 57, 68
1, 30771, Note_off_c, 0, 57, 59
1, 30785, Note_on_c, 0, 71, 65
1, 30789, Note_on_c, 0, 61, 72
1, 30866, Note_on_c, 0, 69, 73
1, 30873, Note_off_c, 0, 71, 57
1, 30940, Note_on_c, 0, 57, 56
1, 30941, Note_on_c, 0, 68, 73
1, 30941, Note_off_c, 0, 69, 64
1, 30965, Note_off_c, 0, 61, 58
1, 31009, Note_off_c, 0, 68, 64
1, 31012, Note_on_c, 0, 69, 72
1, 31134, Note_on_c, 0, 79, 73
1, 31135, Note_on_c, 0, 64, 55
1, 31152, Note_off_c, 0, 57, 37
1, 31170, Note_off_c, 0, 69, 60
1, 31299, Note_on_c, 0, 55, 59
1, 31310, Note_off_c, 0, 64, 59
1, 31445, Note_off_c, 0, 79, 60
1, 31474, Note_off_c, 0, 55, 59
1, 31482, Note_on_c, 0, 54, 66
1, 31657, Note_on_c, 0, 57, 66
1, 31701, Note_off_c, 0, 54, 56
1, 31814, Note_on_c, 0, 69, 69
1, 31830, Note_on_c, 0, 50, 54
1, 31968, Note_off_c, 0, 57, 36
1, 31978, Note_off_c, 0, 50, 56
1, 31982, Note_on_c, 0, 52, 63
1, 32053, Note_off_c, 0, 69, 61
1, 32156, Note_on_c, 0, 71, 67
1, 32168, Note_on_c, 0, 54, 52
1, 32169, Note_off_c, 0, 52, 59
1, 32229, Note_on_c, 0, 69, 70
1, 32229, Note_off_c, 0, 71, 58
1, 32304, Note_on_c, 0, 68, 73
1, 32309, Note_off_c, 0, 69, 65
1, 32336, Note_on_c, 0, 57, 53
1, 32366, Note_off_c, 0, 68, 63
1, 32378, Note_on_c, 0, 69, 71
1, 32387, Note_off_c, 0, 54, 35
1, 32490, Note_on_c, 0, 50, 48
1, 32490, Note_on_c, 0, 81, 72
1, 32516, Note_off_c, 0, 57, 35
1, 32527, Note_off_c, 0, 69, 43
1, 32649, Note_on_c, 0, 54, 51
1, 32658, Note_on_c, 0, 74, 62
1, 32686, Note_off_c, 0, 81, 50
1, 32691, Note_off_c, 0, 50, 37
1, 32721, Note_off_c, 0, 74, 64
1, 32849, Note_on_c, 0, 74, 64
1, 32860, Note_on_c, 0, 52, 53
1, 32888, Note_off_c, 0, 54, 37
1, 33008, Note_off_c, 0, 52, 62
1, 33017, Note_on_c, 0, 57, 55
1, 33185, Note_on_c, 0, 52, 52
1, 33195, Note_on_c, 0, 73, 65
1, 33249, Note_off_c, 0, 74, 58
1, 33256, Note_off_c, 0, 57, 33
1, 33357, Note_on_c, 0, 49, 51
1, 33389, Note_off_c, 0, 52, 39
1, 33514, Note_off_c, 0, 49, 54
1, 33516, Note_on_c, 0, 45, 54
1, 33595, Note_off_c, 0, 73, 61
1, 33603, Note_on_c, 0, 71, 56
1, 33686, Note_off_c, 0, 45, 58
1, 33692, Note_on_c, 0, 57, 48
1, 33692, Note_on_c, 0, 73, 64
1, 33693, Note_off_c, 0, 71, 57
1, 33767, Note_on_c, 0, 75, 67
1, 33794, Note_off_c, 0, 73, 58
1, 33841, Note_on_c, 0, 55, 52
1, 33859, Note_off_c, 0, 57, 49
1, 33865, Note_off_c, 0, 75, 65
1, 33868, Note_on_c, 0, 76, 65
1, 33939, Note_on_c, 0, 75, 64
1, 33951, Note_off_c, 0, 76, 61
1, 33998, Note_on_c, 0, 54, 59
1, 34008, Note_off_c, 0, 55, 58
1, 34018, Note_off_c, 0, 75, 65
1, 34020, Note_on_c, 0, 73, 74
1, 34080, Note_on_c, 0, 75, 74
1, 34098, Note_off_c, 0, 73, 60
1, 34148, Note_on_c, 0, 55, 58
1, 34172, Note_on_c, 0, 76, 71
1, 34183, Note_off_c, 0, 54, 54
1, 34199, Note_off_c, 0, 75, 62
1, 34345, Note_on_c, 0, 59, 51
1, 34348, Note_on_c, 0, 79, 67
1, 34362, Note_off_c, 0, 76, 59
1, 34431, Note_off_c, 0, 55, 36
1, 34512, Note_on_c, 0, 52, 54
1, 34517, Note_on_c, 0, 71, 64
1, 34543, Note_off_c, 0, 79, 52
1, 34580, Note_off_c, 0, 59, 31
1, 34684, Note_on_c, 0, 54, 52
1, 34694, Note_on_c, 0, 75, 71
1, 34715, Note_off_c, 0, 71, 52
1, 34720, Note_off_c, 0, 52, 35
1, 34858, Note_on_c, 0, 76, 76
1, 34863, Note_on_c, 0, 55, 54
1, 34867, Note_off_c, 0, 54, 55
1, 34883, Note_off_c, 0, 75, 62
1, 35020, Note_on_c, 0, 79, 71
1, 35031, Note_on_c, 0, 59, 52
1, 35048, Note_off_c, 0, 76, 59
1, 35049, Note_off_c, 0, 55, 51
1, 35184, Note_on_c, 0, 71, 69
1, 35186, Note_on_c, 0, 52, 54
1, 35239, Note_off_c, 0, 59, 35
1, 35287, Note_off_c, 0, 79, 48
1, 35361, Note_on_c, 0, 76, 66
1, 35361, Note_on_c, 0, 55, 47
1, 35365, Note_off_c, 0, 52, 58
1, 35371, Note_off_c, 0, 71, 58
1, 35403, Note_off_c, 0, 76, 66
1, 35545, Note_off_c, 0, 55, 61
1, 35550, Note_on_c, 0, 76, 66
1, 35555, Note_on_c, 0, 54, 56
1, 35719, Note_on_c, 0, 59, 62
1, 35724, Note_off_c, 0, 54, 54
1, 35862, Note_off_c, 0, 59, 62
1, 35877, Note_on_c, 0, 60, 62
1, 35898, Note_on_c, 0, 75, 61
1, 35898, Note_off_c, 0, 76, 64
1, 35937, Note_off_c, 0, 75, 60
1, 35952, Note_off_c, 0, 60, 59
1, 35958, Note_on_c, 0, 59, 60
1, 36026, Note_off_c, 0, 59, 62
1, 36043, Note_on_c, 0, 58, 70
1, 36053, Note_on_c, 0, 78, 67
1, 36117, Note_off_c, 0, 78, 59
1, 36126, Note_off_c, 0, 58, 64
1, 36137, Note_on_c, 0, 59, 68
1, 36231, Note_off_c, 0, 59, 60
1, 36233, Note_on_c, 0, 71, 68
1, 36249, Note_on_c, 0, 63, 60
1, 36412, Note_on_c, 0, 59, 53
1, 36416, Note_off_c, 0, 63, 60
1, 36573, Note_off_c, 0, 71, 51
1, 36579, Note_on_c, 0, 66, 55
1, 36584, Note_off_c, 0, 59, 44
1, 36587, Note_on_c, 0, 69, 70
1, 36648, Note_off_c, 0, 69, 58
1, 36745, Note_on_c, 0, 57, 55
1, 36754, Note_on_c, 0, 78, 66
1, 36778, Note_off_c, 0, 66, 62
1, 36819, Note_off_c, 0, 78, 62
1, 36927, Note_on_c, 0, 78, 71
1, 36938, Note_on_c, 0, 55, 49
1, 36954, Note_off_c, 0, 57, 49
1, 37007, Note_on_c, 0, 76, 72
1, 37049, Note_off_c, 0, 78, 56
1, 37075, Note_off_c, 0, 55, 56
1, 37087, Note_on_c, 0, 59, 50
1, 37096, Note_on_c, 0, 75, 72
1, 37120, Note_off_c, 0, 76, 61
1, 37279, Note_on_c, 0, 76, 65
1, 37289, Note_off_c, 0, 75, 59
1, 37294, Note_on_c, 0, 52, 44
1, 37379, Note_off_c, 0, 59, 34
1, 37438, Note_off_c, 0, 52, 55
1, 37454, Note_on_c, 0, 54, 48
1, 37454, Note_on_c, 0, 69, 64
1, 37502, Note_off_c, 0, 76, 49
1, 37545, Note_off_c, 0, 69, 63
1, 37621, Note_off_c, 0, 54, 50
1, 37633, Note_on_c, 0, 55, 50
1, 37639, Note_on_c, 0, 69, 61
1, 37809, Note_on_c, 0, 59, 48
1, 37861, Note_off_c, 0, 55, 31
1, 37971, Note_on_c, 0, 67, 60
1, 37982, Note_on_c, 0, 52, 46
1, 37992, Note_off_c, 0, 69, 56
1, 38077, Note_off_c, 0, 67, 58
1, 38082, Note_off_c, 0, 59, 32
1, 38136, Note_on_c, 0, 55, 45
1, 38146, Note_on_c, 0, 76, 68
1, 38154, Note_off_c, 0, 52, 37
1, 38217, Note_off_c, 0, 76, 64
1, 38323, Note_off_c, 0, 55, 57
1, 38327, Note_on_c, 0, 54, 50
1, 38336, Note_on_c, 0, 76, 76
1, 38451, Control_c, 0, 64, 32
1, 38467, Control_c, 0, 64, 58
1, 38482, Control_c, 0, 64, 62
1, 38489, Note_off_c, 0, 54, 53
1, 38497, Control_c, 0, 64, 63
1, 38500, Note_on_c, 0, 75, 67
1, 38507, Note_off_c, 0, 76, 63
1, 38508, Note_on_c, 0, 59, 45
1, 38512, Control_c, 0, 64, 65
1, 38527, Control_c, 0, 64, 67
1, 38541, Control_c, 0, 64, 69
1, 38556, Control_c, 0, 64, 72
1, 38560, Note_off_c, 0, 75, 64
1, 38571, Control_c, 0, 64, 74
1, 38586, Control_c, 0, 64, 75
1, 38601, Control_c, 0, 64, 76
1, 38615, Control_c, 0, 64, 77
1, 38710, Note_on_c, 0, 81, 74
1, 38733, Control_c, 0, 64, 76
1, 38738, Note_on_c, 0, 54, 46
1, 38748, Control_c, 0, 64, 76
1, 38763, Control_c, 0, 64, 75
1, 38778, Control_c, 0, 64, 72
1, 38792, Control_c, 0, 64, 66
1, 38807, Control_c, 0, 64, 49
1, 38822, Control_c, 0, 64, 0
1, 38900, Note_off_c, 0, 59, 24
1, 38902, Note_on_c, 0, 51, 43
1, 39052, Note_off_c, 0, 54, 20
1, 39055, Note_off_c, 0, 51, 48
1, 39081, Note_on_c, 0, 47, 44
1, 39147, Note_off_c, 0, 81, 55
1, 39164, Note_on_c, 0, 79, 53
1, 39243, Note_on_c, 0, 78, 66
1, 39257, Note_off_c, 0, 79, 55
1, 39316, Note_off_c, 0, 78, 62
1, 39335, Note_on_c, 0, 76, 62
1, 39421, Note_on_c, 0, 75, 63
1, 39427, Note_off_c, 0, 76, 64
1, 39482, Note_off_c, 0, 47, 43
1, 39505, Note_on_c, 0, 73, 60
1, 39570, Note_off_c, 0, 75, 58
1, 39587, Note_on_c, 0, 71, 59
1, 39620, Note_off_c, 0, 73, 59
1, 39653, Note_off_c, 0, 71, 60
1, 39655, Note_on_c, 0, 69, 62
1, 39767, Note_on_c, 0, 67, 62
1, 39785, Note_off_c, 0, 69, 58
1, 39973, Note_on_c, 0, 71, 51
1, 40071, Note_off_c, 0, 67, 31
1, 40107, Note_off_c, 0, 71, 46
1, 40137, Note_on_c, 0, 64, 56
1, 40152, Note_on_c, 0, 55, 44
1, 40324, Note_on_c, 0, 66, 57
1, 40354, Note_off_c, 0, 64, 48
1, 40492, Note_on_c, 0, 67, 61
1, 40499, Note_on_c, 0, 52, 49
1, 40504, Note_off_c, 0, 66, 60
1, 40609, Note_off_c, 0, 55, 36
1, 40676, Note_on_c, 0, 71, 58
1, 40711, Note_off_c, 0, 67, 47
1, 40843, Note_on_c, 0, 64, 65
1, 40847, Note_on_c, 0, 47, 49
1, 40870, Note_off_c, 0, 71, 48
1, 40942, Note_off_c, 0, 52, 37
1, 41018, Note_on_c, 0, 67, 64
1, 41019, Note_off_c, 0, 64, 55
1, 41100, Note_off_c, 0, 47, 43
1, 41195, Note_on_c, 0, 66, 65
1, 41213, Note_off_c, 0, 67, 57
1, 41377, Note_on_c, 0, 71, 59
1, 41401, Note_off_c, 0, 66, 60
1, 41523, Note_off_c, 0, 71, 59
1, 41535, Note_on_c, 0, 57, 51
1, 41535, Note_on_c, 0, 72, 63
1, 41624, Note_on_c, 0, 71, 61
1, 41642, Note_off_c, 0, 72, 54
1, 41695, Note_on_c, 0, 70, 69
1, 41701, Note_off_c, 0, 71, 59
1, 41758, Note_off_c, 0, 70, 62
1, 41774, Note_on_c, 0, 71, 69
1, 41867, Note_on_c, 0, 54, 51
1, 41872, Note_on_c, 0, 75, 74
1, 41905, Note_off_c, 0, 71, 53
1, 41943, Note_off_c, 0, 57, 55
1, 42056, Note_on_c, 0, 71, 64
1, 42059, Note_off_c, 0, 75, 58
1, 42231, Note_on_c, 0, 78, 70
1, 42235, Note_on_c, 0, 47, 50
1, 42249, Note_off_c, 0, 71, 53
1, 42269, Note_off_c, 0, 54, 47
1, 42397, Note_on_c, 0, 69, 71
1, 42406, Note_off_c, 0, 78, 62
1, 42544, Note_off_c, 0, 47, 61
1, 42580, Note_on_c, 0, 67, 71
1, 42618, Note_off_c, 0, 69, 59
1, 42751, Note_on_c, 0, 71, 64
1, 42815, Note_off_c, 0, 67, 54
1, 42919, Note_on_c, 0, 59, 62
1, 42921, Note_on_c, 0, 64, 66
1, 42945, Note_off_c, 0, 71, 34
1, 42948, Note_off_c, 0, 59, 64
1, 42948, Note_on_c, 0, 57, 63
1, 42976, Note_off_c, 0, 57, 60
1, 43007, Note_on_c, 0, 59, 75
1, 43067, Note_on_c, 0, 66, 62
1, 43091, Note_off_c, 0, 64, 48
1, 43242, Note_off_c, 0, 66, 59
1, 43244, Note_on_c, 0, 67, 57
1, 43400, Note_off_c, 0, 59, 59
1, 43410, Note_on_c, 0, 57, 59
1, 43413, Note_on_c, 0, 71, 54
1, 43421, Note_off_c, 0, 67, 53
1, 43477, Note_off_c, 0, 57, 61
1, 43493, Note_on_c, 0, 55, 58
1, 43556, Note_off_c, 0, 55, 63
1, 43575, Note_on_c, 0, 64, 64
1, 43580, Note_on_c, 0, 57, 66
1, 43642, Note_off_c, 0, 71, 24
1, 43645, Note_off_c, 0, 57, 60
1, 43651, Note_on_c, 0, 55, 60
1, 43728, Note_off_c, 0, 55, 64
1, 43729, Note_off_c, 0, 64, 56
1, 43734, Note_on_c, 0, 54, 61
1, 43737, Note_on_c, 0, 67, 54
1, 43803, Note_on_c, 0, 52, 57
1, 43809, Note_off_c, 0, 54, 61
1, 43840, Note_off_c, 0, 52, 65
1, 43923, Note_on_c, 0, 66, 56
1, 43940, Note_on_c, 0, 52, 49
1, 43967, Note_off_c, 0, 67, 44
1, 44127, Note_off_c, 0, 66, 54
1, 44131, Note_on_c, 0, 71, 46
1, 44263, Note_off_c, 0, 52, 50
1, 44289, Note_on_c, 0, 51, 43
1, 44313, Note_on_c, 0, 66, 53
1, 44352, Note_off_c, 0, 71, 35
1, 44474, Note_on_c, 0, 63, 54
1, 44531, Note_off_c, 0, 66, 36
1, 44543, Note_off_c, 0, 51, 59
1, 44550, Note_off_c, 0, 63, 53
1, 44650, Note_on_c, 0, 59, 53
1, 44679, Control_c, 0, 64, 54
1, 44694, Control_c, 0, 64, 64
1, 44709, Control_c, 0, 64, 67
1, 44723, Control_c, 0, 64, 69
1, 44738, Control_c, 0, 64, 72
1, 44742, Note_off_c, 0, 59, 60
1, 44753, Control_c, 0, 64, 75
1, 44768, Control_c, 0, 64, 78
1, 44783, Control_c, 0, 64, 80
1, 44797, Control_c, 0, 64, 81
1, 44811, Note_on_c, 0, 57, 52
1, 44827, Control_c, 0, 64, 81
1, 44865, Note_off_c, 0, 57, 58
1, 44897, Note_on_c, 0, 55, 48
1, 44935, Note_off_c, 0, 55, 65
1, 44947, Control_c, 0, 64, 81
1, 44955, Note_on_c, 0, 76, 55
1, 44971, Note_on_c, 0, 54, 48
1, 44976, Control_c, 0, 64, 79
1, 44991, Control_c, 0, 64, 77
1, 45006, Control_c, 0, 64, 71
1, 45018, Note_off_c, 0, 76, 57
1, 45020, Note_on_c, 0, 75, 56
1, 45028, Control_c, 0, 64, 60
1, 45031, Note_off_c, 0, 54, 55
1, 45043, Control_c, 0, 64, 0
1, 45058, Note_off_c, 0, 75, 65
1, 45060, Note_on_c, 0, 73, 64
1, 45061, Note_on_c, 0, 55, 41
1, 45091, Note_off_c, 0, 55, 58
1, 45096, Note_on_c, 0, 57, 47
1, 45121, Note_on_c, 0, 75, 60
1, 45136, Note_off_c, 0, 73, 59
1, 45149, Note_off_c, 0, 57, 48
1, 45311, Note_on_c, 0, 55, 49
1, 45321, Note_on_c, 0, 76, 60
1, 45328, Note_off_c, 0, 75, 64
1, 45339, Control_c, 0, 64, 51
1, 45344, Note_off_c, 0, 55, 65
1, 45353, Control_c, 0, 64, 62
1, 45368, Control_c, 0, 64, 64
1, 45383, Control_c, 0, 64, 65
1, 45398, Control_c, 0, 64, 67
1, 45413, Control_c, 0, 64, 68
1, 45428, Control_c, 0, 64, 70
1, 45443, Control_c, 0, 64, 71
1, 45458, Control_c, 0, 64, 71
1, 45488, Control_c, 0, 64, 72
1, 45493, Note_on_c, 0, 64, 62
1, 45546, Control_c, 0, 64, 71
1, 45561, Control_c, 0, 64, 71
1, 45565, Note_off_c, 0, 64, 64
1, 45576, Control_c, 0, 64, 69
1, 45577, Note_on_c, 0, 66, 66
1, 45591, Control_c, 0, 64, 64
1, 45606, Control_c, 0, 64, 41
1, 45620, Control_c, 0, 64, 0
1, 45644, Note_off_c, 0, 66, 65
1, 45668, Note_on_c, 0, 67, 69
1, 45674, Note_on_c, 0, 71, 63
1, 45741, Note_off_c, 0, 76, 37
1, 45742, Note_on_c, 0, 66, 68
1, 45785, Note_off_c, 0, 67, 45
1, 45804, Note_off_c, 0, 71, 59
1, 45836, Note_on_c, 0, 64, 71
1, 45860, Note_off_c, 0, 66, 59
1, 46039, Note_on_c, 0, 79, 66
1, 46118, Note_on_c, 0, 78, 73
1, 46123, Note_off_c, 0, 79, 57
1, 46194, Note_off_c, 0, 78, 63
1, 46198, Note_on_c, 0, 76, 71
1, 46201, Note_off_c, 0, 64, 56
1, 46204, Note_on_c, 0, 71, 64
1, 46267, Note_on_c, 0, 78, 76
1, 46273, Note_off_c, 0, 76, 65
1, 46362, Note_on_c, 0, 79, 73
1, 46382, Note_off_c, 0, 78, 59
1, 46422, Note_off_c, 0, 71, 55
1, 46474, Control_c, 0, 64, 46
1, 46489, Control_c, 0, 64, 62
1, 46504, Control_c, 0, 64, 64
1, 46537, Note_off_c, 0, 79, 52
1, 46540, Note_on_c, 0, 62, 51
1, 46541, Control_c, 0, 64, 65
1, 46543, Note_on_c, 0, 71, 72
1, 46555, Control_c, 0, 64, 66
1, 46570, Control_c, 0, 64, 67
1, 46585, Note_off_c, 0, 71, 58
1, 46585, Control_c, 0, 64, 68
1, 46599, Control_c, 0, 64, 69
1, 46614, Control_c, 0, 64, 69
1, 46689, Note_on_c, 0, 69, 73
1, 46716, Note_off_c, 0, 69, 67
1, 46737, Note_on_c, 0, 71, 56
1, 46748, Control_c, 0, 64, 69
1, 46762, Control_c, 0, 64, 68
1, 46774, Note_on_c, 0, 69, 73
1, 46777, Control_c, 0, 64, 67
1, 46791, Control_c, 0, 64, 65
1, 46806, Control_c, 0, 64, 62
1, 46810, Note_off_c, 0, 71, 60
1, 46821, Control_c, 0, 64, 55
1, 46826, Note_off_c, 0, 62, 60
1, 46836, Control_c, 0, 64, 27
1, 46851, Control_c, 0, 64, 0
1, 46854, Note_on_c, 0, 64, 59
1, 46874, Note_on_c, 0, 68, 73
1, 46877, Note_off_c, 0, 69, 63
1, 46921, Note_off_c, 0, 64, 62
1, 46936, Note_on_c, 0, 62, 62
1, 46993, Note_off_c, 0, 62, 60
1, 47016, Note_on_c, 0, 61, 66
1, 47028, Note_off_c, 0, 68, 62
1, 47036, Note_on_c, 0, 69, 66
1, 47105, Note_off_c, 0, 61, 58
1, 47107, Note_on_c, 0, 62, 62
1, 47194, Note_on_c, 0, 73, 66
1, 47198, Note_off_c, 0, 62, 55
1, 47201, Note_on_c, 0, 64, 57
1, 47201, Note_off_c, 0, 69, 51
1, 47286, Note_off_c, 0, 73, 61
1, 47386, Note_on_c, 0, 73, 61
1, 47568, Note_on_c, 0, 55, 41
1, 47568, Note_on_c, 0, 76, 59
1, 47594, Note_off_c, 0, 73, 53
1, 47683, Note_off_c, 0, 64, 49
1, 47750, Note_on_c, 0, 81, 67
1, 47790, Note_off_c, 0, 76, 58
1, 47866, Control_c, 0, 64, 52
1, 47876, Note_off_c, 0, 55, 52
1, 47881, Control_c, 0, 64, 62
1, 47896, Control_c, 0, 64, 64
1, 47911, Control_c, 0, 64, 65
1, 47920, Note_on_c, 0, 73, 66
1, 47926, Control_c, 0, 64, 67
1, 47938, Note_on_c, 0, 64, 44
1, 47940, Control_c, 0, 64, 69
1, 47955, Control_c, 0, 64, 71
1, 47958, Note_off_c, 0, 81, 32
1, 47970, Control_c, 0, 64, 72
1, 47985, Control_c, 0, 64, 74
1, 47999, Note_off_c, 0, 64, 58
1, 48000, Control_c, 0, 64, 75
1, 48112, Control_c, 0, 64, 72
1, 48126, Control_c, 0, 64, 66
1, 48135, Note_on_c, 0, 54, 47
1, 48138, Note_on_c, 0, 74, 61
1, 48141, Control_c, 0, 64, 10
1, 48156, Control_c, 0, 64, 0
1, 48166, Note_off_c, 0, 73, 54
1, 48178, Note_off_c, 0, 54, 51
1, 48230, Control_c, 0, 64, 31
1, 48245, Control_c, 0, 64, 59
1, 48260, Control_c, 0, 64, 63
1, 48275, Control_c, 0, 64, 64
1, 48290, Control_c, 0, 64, 64
1, 48305, Control_c, 0, 64, 65
1, 48317, Note_on_c, 0, 62, 56
1, 48319, Control_c, 0, 64, 67
1, 48334, Control_c, 0, 64, 68
1, 48349, Control_c, 0, 64, 68
1, 48382, Note_off_c, 0, 62, 61
1, 48401, Note_on_c, 0, 64, 66
1, 48423, Control_c, 0, 64, 67
1, 48438, Control_c, 0, 64, 64
1, 48452, Control_c, 0, 64, 54
1, 48467, Control_c, 0, 64, 0
1, 48472, Note_off_c, 0, 64, 61
1, 48480, Note_on_c, 0, 69, 60
1, 48501, Note_on_c, 0, 66, 68
1, 48525, Note_off_c, 0, 74, 38
1, 48561, Note_on_c, 0, 64, 68
1, 48571, Note_off_c, 0, 69, 63
1, 48575, Note_off_c, 0, 66, 63
1, 48664, Note_on_c, 0, 62, 69
1, 48692, Note_off_c, 0, 64, 58
1, 48848, Note_on_c, 0, 78, 66
1, 48932, Note_on_c, 0, 76, 70
1, 48934, Note_off_c, 0, 78, 51
1, 49001, Note_off_c, 0, 76, 64
1, 49015, Note_on_c, 0, 74, 70
1, 49022, Note_on_c, 0, 69, 72
1, 49058, Note_off_c, 0, 62, 51
1, 49081, Note_on_c, 0, 76, 74
1, 49086, Note_off_c, 0, 74, 65
1, 49184, Note_on_c, 0, 78, 78
1, 49193, Note_off_c, 0, 76, 61
1, 49276, Control_c, 0, 64, 59
1, 49282, Note_off_c, 0, 69, 62
1, 49291, Control_c, 0, 64, 64
1, 49306, Control_c, 0, 64, 65
1, 49320, Control_c, 0, 64, 66
1, 49335, Control_c, 0, 64, 68
1, 49350, Control_c, 0, 64, 71
1, 49358, Note_on_c, 0, 60, 60
1, 49361, Note_on_c, 0, 69, 72
1, 49363, Note_off_c, 0, 78, 61
1, 49365, Control_c, 0, 64, 73
1, 49380, Control_c, 0, 64, 75
1, 49394, Control_c, 0, 64, 75
1, 49409, Control_c, 0, 64, 76
1, 49413, Note_off_c, 0, 69, 63
1, 49439, Control_c, 0, 64, 76
1, 49526, Note_on_c, 0, 67, 65
1, 49535, Control_c, 0, 64, 76
1, 49545, Note_off_c, 0, 67, 64
1, 49559, Note_on_c, 0, 69, 65
1, 49565, Control_c, 0, 64, 74
1, 49580, Control_c, 0, 64, 71
1, 49594, Control_c, 0, 64, 64
1, 49609, Control_c, 0, 64, 30
1, 49613, Note_on_c, 0, 67, 72
1, 49624, Control_c, 0, 64, 0
1, 49654, Note_off_c, 0, 69, 63
1, 49684, Note_off_c, 0, 60, 58
1, 49700, Note_on_c, 0, 66, 72
1, 49706, Note_on_c, 0, 62, 60
1, 49707, Note_off_c, 0, 67, 56
1, 49776, Note_off_c, 0, 62, 59
1, 49797, Note_on_c, 0, 60, 59
1, 49857, Note_off_c, 0, 66, 60
1, 49865, Note_on_c, 0, 67, 67
1, 49867, Note_off_c, 0, 60, 62
1, 49877, Note_on_c, 0, 59, 63
1, 49961, Note_off_c, 0, 59, 62
1, 49977, Note_on_c, 0, 60, 60
1, 50040, Note_off_c, 0, 60, 59
1, 50043, Note_on_c, 0, 71, 66
1, 50060, Note_on_c, 0, 62, 58
1, 50076, Note_off_c, 0, 67, 49
1, 50143, Note_off_c, 0, 71, 59
1, 50233, Note_on_c, 0, 71, 60
1, 50417, Note_on_c, 0, 74, 59
1, 50424, Note_on_c, 0, 54, 42
1, 50434, Note_off_c, 0, 71, 59
1, 50530, Note_off_c, 0, 62, 48
1, 50600, Note_on_c, 0, 79, 63
1, 50624, Note_off_c, 0, 74, 58
1, 50776, Note_on_c, 0, 62, 45
1, 50777, Note_on_c, 0, 71, 58
1, 50782, Note_off_c, 0, 54, 35
1, 50871, Note_off_c, 0, 79, 35
1, 50941, Note_off_c, 0, 71, 47
1, 50967, Note_on_c, 0, 73, 58
1, 50986, Note_on_c, 0, 52, 47
1, 51053, Note_off_c, 0, 62, 37
1, 51053, Note_off_c, 0, 73, 62
1, 51180, Note_on_c, 0, 79, 64
1, 51345, Note_on_c, 0, 50, 51
1, 51385, Note_off_c, 0, 52, 33
1, 51418, Control_c, 0, 64, 47
1, 51433, Control_c, 0, 64, 58
1, 51448, Control_c, 0, 64, 60
1, 51462, Control_c, 0, 64, 62
1, 51477, Control_c, 0, 64, 63
1, 51492, Control_c, 0, 64, 65
1, 51507, Control_c, 0, 64, 66
1, 51522, Control_c, 0, 64, 67
1, 51527, Note_on_c, 0, 78, 58
1, 51536, Control_c, 0, 64, 68
1, 51551, Control_c, 0, 64, 69
1, 51566, Control_c, 0, 64, 70
1, 51581, Control_c, 0, 64, 71
1, 51584, Note_off_c, 0, 79, 55
1, 51681, Note_off_c, 0, 50, 35
1, 51685, Control_c, 0, 64, 70
1, 51700, Note_on_c, 0, 70, 59
1, 51700, Control_c, 0, 64, 69
1, 51714, Control_c, 0, 64, 66
1, 51715, Note_on_c, 0, 49, 47
1, 51729, Note_off_c, 0, 78, 29
1, 51729, Control_c, 0, 64, 61
1, 51744, Control_c, 0, 64, 40
1, 51766, Control_c, 0, 64, 0
1, 51832, Note_off_c, 0, 70, 59
1, 51903, Note_on_c, 0, 76, 56
1, 52059, Note_off_c, 0, 49, 51
1, 52069, Note_on_c, 0, 47, 54
1, 52168, Control_c, 0, 64, 39
1, 52183, Control_c, 0, 64, 58
1, 52198, Control_c, 0, 64, 61
1, 52212, Control_c, 0, 64, 62
1, 52227, Control_c, 0, 64, 64
1, 52242, Control_c, 0, 64, 65
1, 52250, Note_on_c, 0, 74, 49
1, 52257, Control_c, 0, 64, 67
1, 52272, Control_c, 0, 64, 69
1, 52286, Control_c, 0, 64, 71
1, 52297, Note_off_c, 0, 76, 55
1, 52301, Control_c, 0, 64, 72
1, 52316, Control_c, 0, 64, 73
1, 52318, Note_off_c, 0, 74, 62
1, 52330, Control_c, 0, 64, 74
1, 52345, Control_c, 0, 64, 75
1, 52437, Note_on_c, 0, 65, 58
1, 52443, Note_off_c, 0, 47, 38
1, 52464, Control_c, 0, 64, 75
1, 52478, Control_c, 0, 64, 74
1, 52493, Control_c, 0, 64, 73
1, 52516, Control_c, 0, 64, 70
1, 52531, Control_c, 0, 64, 67
1, 52545, Control_c, 0, 64, 60
1, 52560, Control_c, 0, 64, 36
1, 52575, Control_c, 0, 64, 0
1, 52617, Note_on_c, 0, 62, 57
1, 52806, Note_on_c, 0, 66, 67
1, 52915, Note_off_c, 0, 65, 58
1, 52965, Note_on_c, 0, 61, 62
1, 53023, Note_off_c, 0, 62, 58
1, 53146, Note_on_c, 0, 68, 68
1, 53149, Note_on_c, 0, 53, 55
1, 53201, Note_off_c, 0, 61, 58
1, 53222, Note_off_c, 0, 53, 58
1, 53278, Note_off_c, 0, 66, 52
1, 53329, Note_on_c, 0, 59, 64
1, 53506, Note_on_c, 0, 69, 74
1, 53555, Note_off_c, 0, 68, 63
1, 53663, Note_on_c, 0, 57, 66
1, 53736, Note_off_c, 0, 59, 58
1, 53850, Note_on_c, 0, 71, 71
1, 53855, Note_on_c, 0, 50, 56
1, 53872, Note_off_c, 0, 57, 55
1, 53914, Note_off_c, 0, 50, 55
1, 53965, Note_off_c, 0, 69, 52
1, 54034, Note_on_c, 0, 56, 64
1, 54202, Note_on_c, 0, 73, 75
1, 54308, Note_off_c, 0, 71, 53
1, 54366, Note_on_c, 0, 54, 60
1, 54395, Note_off_c, 0, 56, 56
1, 54431, Note_off_c, 0, 54, 60
1, 54444, Control_c, 0, 64, 18
1, 54459, Control_c, 0, 64, 53
1, 54474, Control_c, 0, 64, 60
1, 54488, Control_c, 0, 64, 62
1, 54503, Control_c, 0, 64, 63
1, 54518, Control_c, 0, 64, 64
1, 54532, Control_c, 0, 64, 64
1, 54547, Control_c, 0, 64, 65
1, 54561, Note_on_c, 0, 74, 56
1, 54578, Note_on_c, 0, 47, 52
1, 54603, Note_off_c, 0, 73, 57
1, 54606, Control_c, 0, 64, 64
1, 54621, Control_c, 0, 64, 63
1, 54636, Control_c, 0, 64, 61
1, 54651, Control_c, 0, 64, 56
1, 54666, Control_c, 0, 64, 46
1, 54673, Note_off_c, 0, 74, 60
1, 54681, Control_c, 0, 64, 0
1, 54761, Note_on_c, 0, 65, 59
1, 54934, Note_on_c, 0, 59, 53
1, 55091, Note_off_c, 0, 47, 43
1, 55103, Control_c, 0, 64, 44
1, 55110, Note_on_c, 0, 66, 64
1, 55118, Control_c, 0, 64, 58
1, 55132, Control_c, 0, 64, 61
1, 55147, Control_c, 0, 64, 62
1, 55162, Control_c, 0, 64, 63
1, 55172, Note_off_c, 0, 65, 55
1, 55177, Control_c, 0, 64, 64
1, 55192, Control_c, 0, 64, 65
1, 55206, Control_c, 0, 64, 65
1, 55282, Note_off_c, 0, 59, 53
1, 55294, Note_on_c, 0, 68, 62
1, 55297, Control_c, 0, 64, 65
1, 55299, Note_on_c, 0, 53, 53
1, 55311, Control_c, 0, 64, 64
1, 55326, Control_c, 0, 64, 63
1, 55329, Note_off_c, 0, 66, 59
1, 55341, Control_c, 0, 64, 61
1, 55355, Control_c, 0, 64, 57
1, 55370, Control_c, 0, 64, 54
1, 55385, Control_c, 0, 64, 48
1, 55400, Control_c, 0, 64, 36
1, 55415, Control_c, 0, 64, 0
1, 55486, Note_on_c, 0, 59, 65
1, 55535, Note_off_c, 0, 68, 63
1, 55663, Note_on_c, 0, 56, 58
1, 55793, Note_off_c, 0, 53, 36
1, 55850, Note_on_c, 0, 62, 61
1, 55979, Note_off_c, 0, 59, 38
1, 56014, Note_on_c, 0, 49, 57
1, 56051, Note_off_c, 0, 56, 36
1, 56195, Note_on_c, 0, 61, 59
1, 56249, Note_off_c, 0, 62, 54
1, 56370, Note_on_c, 0, 53, 51
1, 56405, Note_off_c, 0, 49, 50
1, 56438, Control_c, 0, 64, 57
1, 56452, Control_c, 0, 64, 64
1, 56454, Note_off_c, 0, 61, 52
1, 56467, Control_c, 0, 64, 66
1, 56482, Control_c, 0, 64, 67
1, 56497, Control_c, 0, 64, 68
1, 56511, Control_c, 0, 64, 70
1, 56526, Control_c, 0, 64, 73
1, 56541, Control_c, 0, 64, 75
1, 56547, Note_on_c, 0, 59, 55
1, 56556, Control_c, 0, 64, 76
1, 56571, Control_c, 0, 64, 76
1, 56586, Control_c, 0, 64, 77
1, 56637, Note_off_c, 0, 59, 55
1, 56702, Note_off_c, 0, 53, 32
1, 56719, Control_c, 0, 64, 76
1, 56734, Control_c, 0, 64, 76
1, 56747, Note_on_c, 0, 42, 53
1, 56748, Note_on_c, 0, 57, 56
1, 56749, Control_c, 0, 64, 75
1, 56764, Control_c, 0, 64, 74
1, 56778, Control_c, 0, 64, 71
1, 56793, Control_c, 0, 64, 64
1, 56808, Control_c, 0, 64, 39
1, 56824, Control_c, 0, 64, 0
1, 56922, Note_off_c, 0, 57, 54
1, 56928, Note_on_c, 0, 61, 60
1, 57101, Note_on_c, 0, 45, 63
1, 57112, Note_on_c, 0, 54, 64
1, 57160, Note_off_c, 0, 61, 33
1, 57164, Note_off_c, 0, 42, 56
1, 57272, Note_on_c, 0, 56, 67
1, 57335, Note_off_c, 0, 54, 38
1, 57462, Note_on_c, 0, 49, 60
1, 57465, Note_on_c, 0, 57, 65
1, 57475, Note_off_c, 0, 45, 61
1, 57488, Note_off_c, 0, 56, 60
1, 57635, Note_on_c, 0, 61, 67
1, 57662, Note_off_c, 0, 57, 57
1, 57806, Note_on_c, 0, 54, 62
1, 57861, Note_off_c, 0, 49, 63
1, 57876, Note_on_c, 0, 50, 60
1, 57903, Note_off_c, 0, 61, 34
1, 57954, Note_on_c, 0, 49, 61
1, 57954, Note_off_c, 0, 50, 57
1, 57970, Note_on_c, 0, 57, 58
1, 57994, Note_off_c, 0, 54, 55
1, 58013, Note_off_c, 0, 49, 60
1, 58025, Note_on_c, 0, 48, 66
1, 58130, Note_on_c, 0, 49, 64
1, 58131, Note_off_c, 0, 48, 65
1, 58134, Note_off_c, 0, 57, 60
1, 58139, Note_on_c, 0, 56, 60
1, 58315, Note_on_c, 0, 61, 65
1, 58349, Note_off_c, 0, 56, 59
1, 58407, Note_off_c, 0, 61, 59
1, 58479, Note_on_c, 0, 62, 57
1, 58489, Note_on_c, 0, 41, 60
1, 58526, Note_off_c, 0, 49, 50
1, 58565, Note_on_c, 0, 61, 58
1, 58593, Note_off_c, 0, 62, 60
1, 58624, Note_off_c, 0, 61, 63
1, 58646, Note_on_c, 0, 60, 69
1, 58719, Note_on_c, 0, 61, 73
1, 58732, Note_off_c, 0, 60, 47
1, 58805, Note_on_c, 0, 44, 55
1, 58819, Note_on_c, 0, 65, 70
1, 58843, Note_off_c, 0, 61, 57
1, 58869, Note_off_c, 0, 41, 54
1, 58999, Note_on_c, 0, 61, 66
1, 59050, Note_off_c, 0, 65, 61
1, 59172, Note_on_c, 0, 49, 59
1, 59182, Note_on_c, 0, 68, 69
1, 59182, Note_off_c, 0, 44, 52
1, 59226, Note_off_c, 0, 61, 62
1, 59358, Note_on_c, 0, 59, 66
1, 59494, Note_off_c, 0, 68, 36
1, 59553, Note_on_c, 0, 42, 53
1, 59554, Note_off_c, 0, 49, 54
1, 59555, Note_on_c, 0, 57, 62
1, 59570, Note_off_c, 0, 59, 53
1, 59725, Note_on_c, 0, 49, 61
1, 59774, Note_off_c, 0, 42, 61
1, 59887, Note_off_c, 0, 49, 61
1, 59894, Note_on_c, 0, 54, 59
1, 59908, Note_on_c, 0, 61, 69
1, 59990, Note_off_c, 0, 57, 37
1, 60081, Note_on_c, 0, 56, 67
1, 60095, Note_off_c, 0, 54, 58
1, 60237, Note_off_c, 0, 56, 58
1, 60247, Note_on_c, 0, 66, 68
1, 60249, Note_on_c, 0, 57, 63
1, 60300, Note_off_c, 0, 61, 62
1, 60422, Note_on_c, 0, 61, 69
1, 60434, Note_off_c, 0, 57, 58
1, 60595, Note_on_c, 0, 69, 69
1, 60602, Note_on_c, 0, 54, 55
1, 60633, Note_off_c, 0, 66, 64
1, 60666, Note_off_c, 0, 61, 52
1, 60769, Note_off_c, 0, 54, 60
1, 60771, Note_on_c, 0, 57, 67
1, 60940, Note_on_c, 0, 65, 62
1, 60947, Note_off_c, 0, 57, 60
1, 60947, Note_off_c, 0, 69, 61
1, 60956, Note_on_c, 0, 56, 62
1, 61117, Note_off_c, 0, 56, 58
1, 61120, Note_on_c, 0, 61, 63
1, 61260, Note_off_c, 0, 61, 62
1, 61278, Note_off_c, 0, 65, 61
1, 61284, Note_on_c, 0, 62, 66
1, 61287, Note_on_c, 0, 68, 63
1, 61347, Note_off_c, 0, 62, 54
1, 61348, Note_on_c, 0, 61, 55
1, 61408, Note_off_c, 0, 61, 63
1, 61415, Note_on_c, 0, 60, 65
1, 61499, Note_off_c, 0, 60, 62
1, 61504, Note_on_c, 0, 61, 65
1, 61590, Note_on_c, 0, 71, 68
1, 61593, Note_off_c, 0, 61, 61
1, 61610, Note_on_c, 0, 65, 60
1, 61626, Note_off_c, 0, 68, 59
1, 61769, Note_off_c, 0, 65, 61
1, 61770, Note_on_c, 0, 61, 61
1, 61925, Note_off_c, 0, 61, 53
1, 61954, Note_on_c, 0, 74, 58
1, 61961, Note_on_c, 0, 68, 44
1, 61993, Note_off_c, 0, 71, 57
1, 62108, Note_off_c, 0, 68, 58
1, 62116, Note_on_c, 0, 59, 48
1, 62306, Note_off_c, 0, 59, 52
1, 62315, Note_on_c, 0, 73, 53
1, 62338, Control_c, 0, 64, 29
1, 62339, Note_on_c, 0, 57, 44
1, 62351, Note_off_c, 0, 74, 64
1, 62353, Control_c, 0, 64, 62
1, 62368, Control_c, 0, 64, 65
1, 62383, Control_c, 0, 64, 67
1, 62391, Note_off_c, 0, 73, 62
1, 62397, Control_c, 0, 64, 69
1, 62412, Control_c, 0, 64, 71
1, 62428, Control_c, 0, 64, 74
1, 62438, Note_off_c, 0, 57, 60
1, 62443, Control_c, 0, 64, 77
1, 62458, Control_c, 0, 64, 78
1, 62473, Control_c, 0, 64, 79
1, 62488, Control_c, 0, 64, 79
1, 62513, Note_on_c, 0, 66, 63
1, 62517, Control_c, 0, 64, 80
1, 62568, Note_off_c, 0, 66, 50
1, 62592, Note_on_c, 0, 68, 66
1, 62635, Control_c, 0, 64, 79
1, 62650, Control_c, 0, 64, 78
1, 62665, Control_c, 0, 64, 75
1, 62666, Note_on_c, 0, 54, 51
1, 62680, Control_c, 0, 64, 69
1, 62684, Note_off_c, 0, 68, 63
1, 62688, Note_on_c, 0, 69, 64
1, 62694, Control_c, 0, 64, 57
1, 62709, Control_c, 0, 64, 0
1, 62762, Note_on_c, 0, 68, 68
1, 62777, Note_off_c, 0, 69, 61
1, 62866, Note_on_c, 0, 66, 72
1, 62901, Note_off_c, 0, 68, 54
1, 63039, Note_on_c, 0, 56, 59
1, 63135, Note_off_c, 0, 54, 56
1, 63228, Note_on_c, 0, 73, 71
1, 63365, Note_off_c, 0, 66, 50
1, 63403, Note_on_c, 0, 58, 58
1, 63454, Note_off_c, 0, 56, 52
1, 63581, Note_on_c, 0, 64, 62
1, 63637, Note_off_c, 0, 73, 62
1, 63772, Note_on_c, 0, 59, 48
1, 63790, Note_off_c, 0, 58, 59
1, 63892, Note_off_c, 0, 64, 51
1, 63941, Note_on_c, 0, 66, 55
1, 64025, Note_on_c, 0, 64, 62
1, 64057, Note_off_c, 0, 66, 38
1, 64099, Note_off_c, 0, 64, 63
1, 64109, Note_on_c, 0, 62, 65
1, 64115, Note_on_c, 0, 47, 52
1, 64186, Note_on_c, 0, 64, 60
1, 64186, Note_off_c, 0, 62, 59
1, 64220, Note_off_c, 0, 59, 40
1, 64288, Note_on_c, 0, 66, 58
1, 64324, Note_off_c, 0, 64, 59
1, 64479, Note_on_c, 0, 49, 49
1, 64547, Note_off_c, 0, 47, 32
1, 64643, Note_on_c, 0, 57, 53
1, 64703, Note_off_c, 0, 66, 38
1, 64807, Note_off_c, 0, 49, 53
1, 64819, Note_on_c, 0, 51, 45
1, 64926, Control_c, 0, 64, 57
1, 64941, Control_c, 0, 64, 62
1, 64956, Control_c, 0, 64, 64
1, 64971, Control_c, 0, 64, 66
1, 64981, Note_off_c, 0, 51, 60
1, 64983, Note_on_c, 0, 66, 53
1, 64986, Control_c, 0, 64, 68
1, 65001, Control_c, 0, 64, 71
1, 65015, Control_c, 0, 64, 75
1, 65025, Note_off_c, 0, 57, 35
1, 65030, Control_c, 0, 64, 78
1, 65045, Control_c, 0, 64, 80
1, 65060, Control_c, 0, 64, 81
1, 65075, Control_c, 0, 64, 82
1, 65089, Control_c, 0, 64, 82
1, 65096, Note_off_c, 0, 66, 45
1, 65193, Control_c, 0, 64, 81
1, 65200, Note_on_c, 0, 55, 54
1, 65208, Control_c, 0, 64, 76
1, 65212, Note_on_c, 0, 40, 46
1, 65222, Control_c, 0, 64, 67
1, 65245, Control_c, 0, 64, 0
1, 65319, Control_c, 0, 64, 58
1, 65325, Note_off_c, 0, 55, 60
1, 65334, Control_c, 0, 64, 65
1, 65348, Control_c, 0, 64, 68
1, 65363, Control_c, 0, 64, 69
1, 65378, Control_c, 0, 64, 71
1, 65393, Control_c, 0, 64, 73
1, 65408, Control_c, 0, 64, 75
1, 65422, Control_c, 0, 64, 76
1, 65424, Note_on_c, 0, 64, 53
1, 65486, Note_off_c, 0, 64, 55
1, 65491, Note_on_c, 0, 66, 68
1, 65540, Control_c, 0, 64, 75
1, 65555, Control_c, 0, 64, 74
1, 65570, Control_c, 0, 64, 72
1, 65585, Control_c, 0, 64, 67
1, 65587, Note_off_c, 0, 66, 64
1, 65588, Note_on_c, 0, 67, 66
1, 65597, Note_off_c, 0, 40, 42
1, 65600, Note_on_c, 0, 52, 56
1, 65600, Control_c, 0, 64, 47
1, 65616, Control_c, 0, 64, 0
1, 65668, Note_on_c, 0, 66, 68
1, 65681, Note_off_c, 0, 67, 56
1, 65767, Note_on_c, 0, 64, 69
1, 65812, Note_off_c, 0, 66, 58
1, 65940, Note_on_c, 0, 54, 58
1, 66038, Note_off_c, 0, 52, 61
1, 66132, Note_on_c, 0, 71, 67
1, 66242, Note_off_c, 0, 64, 57
1, 66307, Note_on_c, 0, 56, 61
1, 66375, Note_off_c, 0, 54, 55
1, 66479, Note_on_c, 0, 62, 63
1, 66522, Note_off_c, 0, 71, 54
1, 66664, Note_on_c, 0, 57, 57
1, 66688, Note_off_c, 0, 56, 58
1, 66832, Note_off_c, 0, 62, 42
1, 66841, Note_on_c, 0, 64, 55
1, 66931, Note_on_c, 0, 62, 62
1, 66936, Note_off_c, 0, 64, 59
1, 67010, Note_off_c, 0, 62, 61
1, 67015, Note_on_c, 0, 61, 65
1, 67025, Note_on_c, 0, 45, 46
1, 67085, Note_off_c, 0, 61, 61
1, 67090, Note_on_c, 0, 62, 66
1, 67117, Note_off_c, 0, 57, 36
1, 67192, Note_on_c, 0, 64, 59
1, 67224, Note_off_c, 0, 62, 56
1, 67376, Note_on_c, 0, 47, 54
1, 67443, Note_off_c, 0, 45, 35
1, 67564, Note_on_c, 0, 55, 57
1, 67576, Note_off_c, 0, 64, 55
1, 67728, Note_off_c, 0, 47, 56
1, 67737, Note_on_c, 0, 49, 53
1, 67773, Control_c, 0, 64, 54
1, 67788, Control_c, 0, 64, 64
1, 67803, Control_c, 0, 64, 67
1, 67817, Control_c, 0, 64, 69
1, 67832, Control_c, 0, 64, 71
1, 67847, Control_c, 0, 64, 74
1, 67861, Control_c, 0, 64, 76
1, 67876, Control_c, 0, 64, 78
1, 67883, Note_off_c, 0, 49, 61
1, 67891, Control_c, 0, 64, 79
1, 67906, Control_c, 0, 64, 80
1, 67913, Note_on_c, 0, 64, 52
1, 67921, Control_c, 0, 64, 80
1, 67935, Control_c, 0, 64, 81
1, 67937, Note_off_c, 0, 55, 31
1, 67965, Control_c, 0, 64, 81
1, 68084, Control_c, 0, 64, 81
1, 68109, Note_on_c, 0, 54, 54
1, 68114, Control_c, 0, 64, 80
1, 68129, Control_c, 0, 64, 78
1, 68132, Note_off_c, 0, 64, 33
1, 68135, Note_on_c, 0, 38, 46
1, 68144, Control_c, 0, 64, 74
1, 68158, Control_c, 0, 64, 66
1, 68173, Control_c, 0, 64, 0
1, 68306, Note_on_c, 0, 61, 57
1, 68321, Note_off_c, 0, 54, 55
1, 68476, Note_on_c, 0, 42, 56
1, 68634, Note_off_c, 0, 38, 41
1, 68638, Note_on_c, 0, 64, 64
1, 68696, Note_off_c, 0, 61, 52
1, 68815, Note_on_c, 0, 45, 61
1, 68897, Note_off_c, 0, 42, 54
1, 68975, Note_off_c, 0, 64, 60
1, 68989, Note_on_c, 0, 62, 56
1, 69058, Note_off_c, 0, 62, 60
1, 69061, Note_on_c, 0, 61, 63
1, 69145, Note_off_c, 0, 61, 61
1, 69150, Note_on_c, 0, 50, 58
1, 69150, Note_off_c, 0, 45, 62
1, 69151, Note_on_c, 0, 62, 59
1, 69214, Note_on_c, 0, 61, 65
1, 69239, Note_off_c, 0, 62, 59
1, 69297, Note_off_c, 0, 61, 60
1, 69308, Note_on_c, 0, 59, 66
1, 69376, Note_off_c, 0, 59, 60
1, 69381, Note_on_c, 0, 58, 66
1, 69463, Note_off_c, 0, 58, 62
1, 69481, Note_on_c, 0, 59, 69
1, 69484, Note_on_c, 0, 43, 58
1, 69541, Note_off_c, 0, 50, 35
1, 69628, Note_off_c, 0, 59, 56
1, 69681, Note_on_c, 0, 66, 67
1, 69854, Note_on_c, 0, 47, 62
1, 69965, Note_off_c, 0, 43, 36
1, 70024, Note_on_c, 0, 69, 70
1, 70120, Note_off_c, 0, 66, 59
1, 70192, Note_on_c, 0, 50, 64
1, 70241, Note_off_c, 0, 47, 62
1, 70357, Note_on_c, 0, 67, 64
1, 70360, Note_off_c, 0, 69, 60
1, 70432, Note_on_c, 0, 66, 73
1, 70433, Note_off_c, 0, 67, 61
1, 70511, Note_off_c, 0, 50, 63
1, 70521, Note_on_c, 0, 55, 58
1, 70527, Note_off_c, 0, 66, 65
1, 70530, Note_on_c, 0, 67, 67
1, 70594, Note_on_c, 0, 66, 73
1, 70616, Note_off_c, 0, 67, 60
1, 70682, Note_on_c, 0, 64, 70
1, 70695, Note_off_c, 0, 66, 63
1, 70751, Note_on_c, 0, 62, 72
1, 70752, Note_off_c, 0, 64, 62
1, 70851, Note_on_c, 0, 49, 58
1, 70852, Note_off_c, 0, 55, 58
1, 70864, Note_on_c, 0, 64, 67
1, 70900, Control_c, 0, 64, 52
1, 70902, Note_off_c, 0, 62, 50
1, 70915, Control_c, 0, 64, 63
1, 70930, Control_c, 0, 64, 65
1, 70945, Control_c, 0, 64, 67
1, 70956, Note_off_c, 0, 64, 65
1, 70959, Control_c, 0, 64, 69
1, 70974, Control_c, 0, 64, 71
1, 70989, Control_c, 0, 64, 74
1, 71004, Control_c, 0, 64, 77
1, 71019, Control_c, 0, 64, 77
1, 71055, Note_on_c, 0, 71, 68
1, 71108, Control_c, 0, 64, 77
1, 71123, Control_c, 0, 64, 76
1, 71138, Control_c, 0, 64, 74
1, 71152, Control_c, 0, 64, 68
1, 71167, Control_c, 0, 64, 56
1, 71182, Control_c, 0, 64, 0
1, 71216, Note_on_c, 0, 52, 72
1, 71258, Note_off_c, 0, 49, 56
1, 71413, Note_on_c, 0, 74, 74
1, 71508, Note_off_c, 0, 71, 52
1, 71571, Note_on_c, 0, 55, 68
1, 71606, Note_off_c, 0, 52, 59
1, 71740, Note_on_c, 0, 73, 67
1, 71752, Note_off_c, 0, 74, 57
1, 71814, Note_on_c, 0, 71, 71
1, 71819, Note_off_c, 0, 73, 57
1, 71892, Note_off_c, 0, 55, 63
1, 71900, Note_on_c, 0, 73, 73
1, 71906, Note_on_c, 0, 61, 65
1, 71906, Note_off_c, 0, 71, 61
1, 71980, Note_on_c, 0, 71, 71
1, 72009, Note_off_c, 0, 73, 60
1, 72070, Note_on_c, 0, 70, 79
1, 72077, Note_off_c, 0, 71, 60
1, 72146, Note_on_c, 0, 68, 75
1, 72149, Note_off_c, 0, 70, 57
1, 72249, Note_off_c, 0, 61, 57
1, 72250, Note_on_c, 0, 54, 57
1, 72252, Note_on_c, 0, 70, 76
1, 72286, Note_off_c, 0, 68, 60
1, 72339, Control_c, 0, 64, 20
1, 72347, Note_off_c, 0, 70, 62
1, 72354, Control_c, 0, 64, 50
1, 72369, Control_c, 0, 64, 57
1, 72384, Control_c, 0, 64, 61
1, 72398, Control_c, 0, 64, 63
1, 72413, Control_c, 0, 64, 65
1, 72428, Control_c, 0, 64, 66
1, 72443, Control_c, 0, 64, 67
1, 72447, Note_on_c, 0, 76, 75
1, 72457, Control_c, 0, 64, 69
1, 72472, Control_c, 0, 64, 70
1, 72487, Control_c, 0, 64, 71
1, 72502, Control_c, 0, 64, 72
1, 72591, Control_c, 0, 64, 71
1, 72605, Control_c, 0, 64, 70
1, 72615, Note_on_c, 0, 58, 69
1, 72620, Control_c, 0, 64, 65
1, 72635, Control_c, 0, 64, 52
1, 72650, Control_c, 0, 64, 0
1, 72699, Note_off_c, 0, 54, 58
1, 72817, Note_on_c, 0, 79, 81
1, 72921, Note_off_c, 0, 76, 49
1, 72985, Note_on_c, 0, 61, 68
1, 73037, Note_off_c, 0, 58, 57
1, 73152, Note_on_c, 0, 78, 68
1, 73187, Note_off_c, 0, 79, 60
1, 73231, Note_on_c, 0, 76, 75
1, 73238, Note_off_c, 0, 78, 59
1, 73320, Note_on_c, 0, 66, 62
1, 73320, Note_off_c, 0, 76, 66
1, 73323, Note_on_c, 0, 78, 78
1, 73346, Note_off_c, 0, 61, 59
1, 73392, Note_on_c, 0, 76, 74
1, 73428, Note_off_c, 0, 78, 61
1, 73466, Note_off_c, 0, 76, 64
1, 73489, Note_on_c, 0, 74, 71
1, 73564, Note_on_c, 0, 73, 75
1, 73576, Note_off_c, 0, 74, 63
1, 73687, Note_on_c, 0, 74, 76
1, 73699, Note_on_c, 0, 59, 56
1, 73721, Note_off_c, 0, 73, 59
1, 73732, Note_off_c, 0, 66, 54
1, 73828, Note_off_c, 0, 74, 54
1, 73912, Note_on_c, 0, 70, 72
1, 74088, Note_on_c, 0, 67, 69
1, 74120, Note_off_c, 0, 59, 53
1, 74262, Note_on_c, 0, 71, 69
1, 74269, Note_off_c, 0, 70, 59
1, 74441, Note_on_c, 0, 73, 69
1, 74447, Note_on_c, 0, 57, 46
1, 74459, Note_off_c, 0, 71, 49
1, 74469, Note_off_c, 0, 67, 51
1, 74560, Note_off_c, 0, 57, 54
1, 74607, Note_on_c, 0, 67, 58
1, 74614, Note_on_c, 0, 75, 72
1, 74628, Note_off_c, 0, 73, 58
1, 74773, Note_off_c, 0, 75, 63
1, 74775, Note_on_c, 0, 76, 69
1, 74784, Note_on_c, 0, 66, 60
1, 74835, Note_off_c, 0, 67, 46
1, 74851, Note_on_c, 0, 75, 70
1, 74867, Control_c, 0, 64, 41
1, 74879, Note_off_c, 0, 76, 62
1, 74882, Control_c, 0, 64, 58
1, 74897, Control_c, 0, 64, 61
1, 74912, Control_c, 0, 64, 63
1, 74926, Control_c, 0, 64, 65
1, 74933, Note_on_c, 0, 73, 76
1, 74933, Note_off_c, 0, 75, 65
1, 74937, Note_on_c, 0, 57, 52
1, 74941, Control_c, 0, 64, 66
1, 74953, Note_off_c, 0, 66, 61
1, 74956, Control_c, 0, 64, 67
1, 74978, Control_c, 0, 64, 68
1, 74992, Note_off_c, 0, 57, 59
1, 74993, Control_c, 0, 64, 68
1, 75012, Note_on_c, 0, 75, 72
1, 75043, Note_off_c, 0, 73, 59
1, 75082, Control_c, 0, 64, 68
1, 75112, Control_c, 0, 64, 67
1, 75126, Control_c, 0, 64, 66
1, 75129, Note_on_c, 0, 76, 71
1, 75141, Control_c, 0, 64, 64
1, 75145, Note_on_c, 0, 55, 56
1, 75151, Note_off_c, 0, 75, 60
1, 75156, Control_c, 0, 64, 61
1, 75171, Control_c, 0, 64, 56
1, 75186, Control_c, 0, 64, 51
1, 75201, Control_c, 0, 64, 43
1, 75217, Control_c, 0, 64, 24
1, 75231, Control_c, 0, 64, 0
1, 75244, Note_off_c, 0, 76, 61
1, 75325, Note_on_c, 0, 70, 66
1, 75511, Note_on_c, 0, 64, 54
1, 75572, Control_c, 0, 64, 20
1, 75587, Control_c, 0, 64, 55
1, 75590, Note_off_c, 0, 55, 57
1, 75602, Control_c, 0, 64, 61
1, 75616, Control_c, 0, 64, 63
1, 75631, Control_c, 0, 64, 64
1, 75646, Control_c, 0, 64, 65
1, 75661, Control_c, 0, 64, 66
1, 75675, Control_c, 0, 64, 68
1, 75676, Note_on_c, 0, 71, 59
1, 75690, Control_c, 0, 64, 70
1, 75705, Control_c, 0, 64, 71
1, 75728, Control_c, 0, 64, 72
1, 75729, Note_off_c, 0, 70, 36
1, 75743, Control_c, 0, 64, 73
1, 75757, Control_c, 0, 64, 73
1, 75787, Control_c, 0, 64, 74
1, 75810, Note_off_c, 0, 71, 54
1, 75831, Control_c, 0, 64, 73
1, 75861, Control_c, 0, 64, 73
1, 75864, Note_on_c, 0, 74, 59
1, 75867, Note_on_c, 0, 54, 44
1, 75875, Control_c, 0, 64, 72
1, 75886, Note_off_c, 0, 64, 36
1, 75890, Control_c, 0, 64, 71
1, 75905, Control_c, 0, 64, 70
1, 75920, Control_c, 0, 64, 67
1, 75935, Control_c, 0, 64, 63
1, 75949, Control_c, 0, 64, 58
1, 75956, Note_off_c, 0, 74, 59
1, 75964, Control_c, 0, 64, 54
1, 75979, Control_c, 0, 64, 50
1, 75994, Control_c, 0, 64, 46
1, 76009, Control_c, 0, 64, 35
1, 76024, Control_c, 0, 64, 0
1, 76050, Note_on_c, 0, 70, 66
1, 76053, Note_on_c, 0, 64, 49
1, 76073, Note_off_c, 0, 54, 29
1, 76224, Note_on_c, 0, 62, 65
1, 76236, Note_off_c, 0, 64, 60
1, 76246, Control_c, 0, 64, 42
1, 76261, Control_c, 0, 64, 61
1, 76276, Control_c, 0, 64, 64
1, 76291, Control_c, 0, 64, 66
1, 76305, Control_c, 0, 64, 67
1, 76320, Control_c, 0, 64, 69
1, 76335, Control_c, 0, 64, 70
1, 76350, Control_c, 0, 64, 72
1, 76365, Control_c, 0, 64, 73
1, 76379, Control_c, 0, 64, 75
1, 76392, Note_off_c, 0, 62, 60
1, 76394, Control_c, 0, 64, 76
1, 76397, Note_on_c, 0, 54, 53
1, 76401, Note_off_c, 0, 70, 59
1, 76407, Note_on_c, 0, 71, 69
1, 76409, Control_c, 0, 64, 78
1, 76423, Control_c, 0, 64, 78
1, 76438, Control_c, 0, 64, 79
1, 76453, Control_c, 0, 64, 79
1, 76489, Note_off_c, 0, 71, 57
1, 76493, Note_off_c, 0, 54, 57
1, 76535, Control_c, 0, 64, 80
1, 76622, Note_on_c, 0, 79, 69
1, 76623, Control_c, 0, 64, 79
1, 76629, Note_on_c, 0, 52, 55
1, 76653, Control_c, 0, 64, 79
1, 76668, Control_c, 0, 64, 77
1, 76683, Control_c, 0, 64, 73
1, 76698, Control_c, 0, 64, 63
1, 76710, Note_on_c, 0, 78, 77
1, 76713, Control_c, 0, 64, 0
1, 76750, Note_off_c, 0, 79, 60
1, 76812, Note_on_c, 0, 62, 59
1, 76814, Note_on_c, 0, 76, 78
1, 76832, Control_c, 0, 64, 60
1, 76847, Control_c, 0, 64, 65
1, 76851, Note_off_c, 0, 78, 61
1, 76862, Control_c, 0, 64, 67
1, 76877, Control_c, 0, 64, 68
1, 76879, Note_off_c, 0, 52, 33
1, 76891, Control_c, 0, 64, 72
1, 76906, Control_c, 0, 64, 76
1, 76921, Control_c, 0, 64, 81
1, 76936, Control_c, 0, 64, 83
1, 76951, Control_c, 0, 64, 84
1, 76966, Control_c, 0, 64, 84
1, 76981, Note_off_c, 0, 76, 59
1, 76981, Control_c, 0, 64, 85
1, 76984, Note_on_c, 0, 60, 71
1, 77010, Control_c, 0, 64, 86
1, 77025, Control_c, 0, 64, 86
1, 77032, Note_off_c, 0, 62, 51
1, 77040, Control_c, 0, 64, 87
1, 77084, Control_c, 0, 64, 87
1, 77158, Control_c, 0, 64, 88
1, 77162, Note_on_c, 0, 52, 61
1, 77163, Note_on_c, 0, 76, 81
1, 77180, Note_off_c, 0, 60, 60
1, 77233, Note_off_c, 0, 52, 56
1, 77348, Note_on_c, 0, 50, 63
1, 77388, Control_c, 0, 64, 86
1, 77402, Control_c, 0, 64, 84
1, 77417, Control_c, 0, 64, 76
1, 77425, Note_off_c, 0, 76, 63
1, 77428, Note_on_c, 0, 78, 69
1, 77432, Control_c, 0, 64, 63
1, 77446, Control_c, 0, 64, 0
1, 77506, Note_on_c, 0, 60, 54
1, 77520, Control_c, 0, 64, 55
1, 77528, Note_on_c, 0, 76, 67
1, 77535, Control_c, 0, 64, 67
1, 77550, Control_c, 0, 64, 73
1, 77565, Control_c, 0, 64, 80
1, 77580, Control_c, 0, 64, 83
1, 77586, Note_off_c, 0, 50, 29
1, 77596, Control_c, 0, 64, 85
1, 77603, Note_off_c, 0, 78, 60
1, 77611, Control_c, 0, 64, 87
1, 77612, Note_on_c, 0, 75, 74
1, 77614, Note_off_c, 0, 76, 64
1, 77625, Control_c, 0, 64, 90
1, 77640, Control_c, 0, 64, 94
1, 77655, Control_c, 0, 64, 96
1, 77669, Control_c, 0, 64, 97
1, 77678, Note_on_c, 0, 59, 61
1, 77684, Control_c, 0, 64, 97
1, 77695, Note_on_c, 0, 76, 81
1, 77699, Control_c, 0, 64, 98
1, 77702, Note_off_c, 0, 75, 60
1, 77714, Control_c, 0, 64, 98
1, 77717, Note_off_c, 0, 60, 57
1, 77752, Note_off_c, 0, 76, 66
1, 77897, Note_on_c, 0, 76, 77
1, 77908, Note_on_c, 0, 50, 52
1, 77914, Note_off_c, 0, 59, 61
1, 77945, Note_off_c, 0, 50, 62
1, 77973, Control_c, 0, 64, 99
1, 78092, Note_on_c, 0, 49, 62
1, 78122, Control_c, 0, 64, 98
1, 78137, Control_c, 0, 64, 97
1, 78151, Control_c, 0, 64, 94
1, 78152, Note_on_c, 0, 69, 66
1, 78166, Control_c, 0, 64, 89
1, 78181, Control_c, 0, 64, 81
1, 78196, Control_c, 0, 64, 70
1, 78212, Control_c, 0, 64, 50
1, 78226, Control_c, 0, 64, 0
1, 78238, Note_off_c, 0, 76, 53
1, 78241, Note_off_c, 0, 69, 65
1, 78257, Note_on_c, 0, 67, 71
1, 78266, Note_on_c, 0, 59, 61
1, 78275, Note_off_c, 0, 49, 54
1, 78347, Note_on_c, 0, 66, 76
1, 78349, Note_off_c, 0, 67, 58
1, 78449, Note_on_c, 0, 67, 80
1, 78456, Note_off_c, 0, 66, 63
1, 78467, Note_on_c, 0, 58, 63
1, 78528, Note_off_c, 0, 59, 40
1, 78707, Note_off_c, 0, 58, 59
1, 78711, Note_on_c, 0, 76, 79
1, 78727, Note_on_c, 0, 49, 54
1, 78763, Note_off_c, 0, 67, 53
1, 78905, Note_off_c, 0, 49, 57
1, 78924, Note_on_c, 0, 47, 66
1, 79178, Note_on_c, 0, 67, 74
1, 79188, Note_on_c, 0, 64, 63
1, 79194, Note_on_c, 0, 58, 57
1, 79253, Note_off_c, 0, 47, 43
1, 79264, Note_off_c, 0, 76, 45
1, 79468, Note_on_c, 0, 59, 63
1, 79510, Note_off_c, 0, 58, 61
1, 79562, Note_off_c, 0, 64, 49
1, 79587, Note_off_c, 0, 67, 58
1, 79605, Control_c, 0, 64, 36
1, 79620, Control_c, 0, 64, 62
1, 79635, Control_c, 0, 64, 66
1, 79649, Control_c, 0, 64, 68
1, 79664, Control_c, 0, 64, 72
1, 79679, Control_c, 0, 64, 74
1, 79694, Control_c, 0, 64, 77
1, 79709, Control_c, 0, 64, 78
1, 79723, Control_c, 0, 64, 80
1, 79738, Control_c, 0, 64, 80
1, 79753, Control_c, 0, 64, 81
1, 79768, Control_c, 0, 64, 82
1, 79798, Control_c, 0, 64, 82
1, 79828, Note_on_c, 0, 67, 66
1, 79840, Note_on_c, 0, 64, 50
1, 79842, Note_on_c, 0, 47, 51
1, 79857, Control_c, 0, 64, 81
1, 79872, Control_c, 0, 64, 78
1, 79887, Control_c, 0, 64, 68
1, 79902, Control_c, 0, 64, 0
1, 79961, Control_c, 0, 64, 48
1, 79976, Control_c, 0, 64, 65
1, 79992, Control_c, 0, 64, 71
1, 80006, Control_c, 0, 64, 76
1, 80018, Note_off_c, 0, 47, 49
1, 80021, Control_c, 0, 64, 80
1, 80036, Control_c, 0, 64, 82
1, 80051, Control_c, 0, 64, 84
1, 80052, Note_off_c, 0, 59, 29
1, 80065, Control_c, 0, 64, 85
1, 80080, Control_c, 0, 64, 87
1, 80095, Control_c, 0, 64, 88
1, 80110, Control_c, 0, 64, 89
1, 80125, Control_c, 0, 64, 90
1, 80139, Control_c, 0, 64, 90
1, 80154, Control_c, 0, 64, 91
1, 80273, Note_on_c, 0, 46, 45
1, 80295, Control_c, 0, 64, 90
1, 80310, Control_c, 0, 64, 89
1, 80325, Control_c, 0, 64, 86
1, 80340, Control_c, 0, 64, 81
1, 80354, Control_c, 0, 64, 73
1, 80369, Control_c, 0, 64, 62
1, 80384, Control_c, 0, 64, 0
1, 80731, Note_on_c, 0, 66, 52
1, 80741, Note_off_c, 0, 67, 56
1, 80970, Note_off_c, 0, 66, 37
1, 81005, Note_on_c, 0, 74, 47
1, 81102, Control_c, 0, 64, 53
1, 81117, Control_c, 0, 64, 64
1, 81129, Note_off_c, 0, 74, 56
1, 81132, Control_c, 0, 64, 66
1, 81147, Control_c, 0, 64, 68
1, 81162, Control_c, 0, 64, 70
1, 81176, Control_c, 0, 64, 74
1, 81191, Control_c, 0, 64, 78
1, 81207, Control_c, 0, 64, 81
1, 81221, Control_c, 0, 64, 82
1, 81236, Control_c, 0, 64, 83
1, 81251, Control_c, 0, 64, 84
1, 81266, Control_c, 0, 64, 85
1, 81281, Control_c, 0, 64, 85
1, 81295, Control_c, 0, 64, 86
1, 81355, Control_c, 0, 64, 86
1, 81460, Note_on_c, 0, 74, 50
1, 81473, Control_c, 0, 64, 86
1, 81488, Control_c, 0, 64, 84
1, 81503, Control_c, 0, 64, 81
1, 81518, Control_c, 0, 64, 75
1, 81533, Control_c, 0, 64, 65
1, 81548, Control_c, 0, 64, 0
1, 81652, Control_c, 0, 64, 53
1, 81667, Control_c, 0, 64, 62
1, 81682, Control_c, 0, 64, 64
1, 81697, Control_c, 0, 64, 66
1, 81718, Control_c, 0, 64, 69
1, 81733, Control_c, 0, 64, 72
1, 81748, Control_c, 0, 64, 75
1, 81763, Control_c, 0, 64, 78
1, 81778, Control_c, 0, 64, 79
1, 81792, Control_c, 0, 64, 80
1, 81807, Control_c, 0, 64, 81
1, 81822, Control_c, 0, 64, 81
1, 81837, Control_c, 0, 64, 82
1, 81852, Control_c, 0, 64, 82
1, 81867, Control_c, 0, 64, 83
1, 81881, Control_c, 0, 64, 84
1, 81896, Control_c, 0, 64, 84
1, 81926, Control_c, 0, 64, 85
1, 81970, Control_c, 0, 64, 85
1, 81986, Note_off_c, 0, 74, 34
1, 82088, Control_c, 0, 64, 86
1, 82355, Control_c, 0, 64, 85
1, 82385, Control_c, 0, 64, 85
1, 82388, Note_on_c, 0, 73, 48
1, 82400, Control_c, 0, 64, 83
1, 82415, Control_c, 0, 64, 81
1, 82430, Control_c, 0, 64, 77
1, 82445, Control_c, 0, 64, 70
1, 82466, Control_c, 0, 64, 61
1, 82481, Control_c, 0, 64, 0
1, 83443, Note_off_c, 0, 73, 52
1, 83452, Note_off_c, 0, 64, 44
1, 83461, Note_off_c, 0, 46, 42
1, 84016, Note_on_c, 0, 64, 37
1, 84081, Note_off_c, 0, 64, 56
1, 84096, Note_on_c, 0, 66, 48
1, 84170, Note_off_c, 0, 66, 63
1, 84174, Note_on_c, 0, 67, 53
1, 84185, Note_on_c, 0, 58, 42
1, 84260, Note_on_c, 0, 66, 58
1, 84283, Note_off_c, 0, 67, 49
1, 84368, Note_on_c, 0, 64, 55
1, 84421, Note_off_c, 0, 66, 39
1, 84514, Note_off_c, 0, 64, 56
1, 84541, Note_on_c, 0, 62, 57
1, 84551, Note_on_c, 0, 59, 43
1, 84582, Note_off_c, 0, 58, 45
1, 84725, Note_on_c, 0, 66, 59
1, 84826, Note_off_c, 0, 62, 28
1, 84887, Note_on_c, 0, 55, 48
1, 84903, Note_on_c, 0, 70, 62
1, 84970, Note_off_c, 0, 66, 52
1, 84989, Note_off_c, 0, 59, 36
1, 85071, Note_on_c, 0, 71, 60
1, 85101, Note_off_c, 0, 70, 58
1, 85250, Note_on_c, 0, 52, 44
1, 85258, Note_on_c, 0, 74, 53
1, 85268, Note_off_c, 0, 71, 53
1, 85270, Note_off_c, 0, 55, 34
1, 85428, Note_on_c, 0, 73, 58
1, 85496, Note_off_c, 0, 74, 51
1, 85598, Note_off_c, 0, 52, 57
1, 85607, Note_on_c, 0, 54, 48
1, 85609, Note_on_c, 0, 71, 60
1, 85715, Note_off_c, 0, 73, 27
1, 85780, Note_on_c, 0, 70, 61
1, 85812, Note_off_c, 0, 71, 50
1, 85931, Note_off_c, 0, 54, 51
1, 85955, Note_on_c, 0, 50, 43
1, 85959, Note_on_c, 0, 71, 57
1, 85972, Note_off_c, 0, 70, 53
1, 86122, Note_off_c, 0, 50, 53
1, 86128, Note_on_c, 0, 54, 51
1, 86303, Note_on_c, 0, 66, 60
1, 86313, Note_on_c, 0, 47, 56
1, 86343, Note_off_c, 0, 71, 56
1, 86351, Note_off_c, 0, 54, 36
1, 86472, Note_on_c, 0, 49, 57
1, 86491, Note_off_c, 0, 66, 64
1, 86520, Note_off_c, 0, 47, 36
1, 86629, Note_on_c, 0, 67, 63
1, 86637, Note_off_c, 0, 49, 60
1, 86643, Note_on_c, 0, 50, 53
1, 86705, Note_off_c, 0, 67, 60
1, 86708, Note_on_c, 0, 66, 64
1, 86773, Note_off_c, 0, 66, 65
1, 86780, Note_on_c, 0, 65, 65
1, 86798, Note_on_c, 0, 54, 52
1, 86817, Note_off_c, 0, 50, 49
1, 86857, Note_on_c, 0, 66, 65
1, 86872, Note_off_c, 0, 65, 57
1, 86970, Note_off_c, 0, 66, 54
1, 86978, Note_on_c, 0, 74, 58
1, 86980, Note_on_c, 0, 47, 52
1, 87021, Note_off_c, 0, 54, 35
1, 87131, Note_off_c, 0, 47, 57
1, 87142, Note_on_c, 0, 50, 57
1, 87313, Note_on_c, 0, 49, 64
1, 87314, Note_off_c, 0, 50, 61
1, 87319, Note_off_c, 0, 74, 59
1, 87483, Note_on_c, 0, 54, 63
1, 87509, Note_off_c, 0, 49, 55
1, 87637, Note_off_c, 0, 54, 61
1, 87645, Note_on_c, 0, 66, 67
1, 87652, Note_on_c, 0, 55, 64
1, 87732, Note_off_c, 0, 55, 60
1, 87735, Note_on_c, 0, 54, 59
1, 87795, Note_off_c, 0, 54, 62
1, 87798, Note_on_c, 0, 53, 70
1, 87837, Note_off_c, 0, 66, 63
1, 87885, Note_off_c, 0, 53, 66
1, 87887, Note_on_c, 0, 54, 71
1, 87977, Note_off_c, 0, 54, 62
1, 87980, Note_on_c, 0, 58, 70
1, 87988, Note_on_c, 0, 67, 66
1, 88065, Note_on_c, 0, 66, 72
1, 88081, Note_off_c, 0, 67, 59
1, 88141, Note_off_c, 0, 66, 64
1, 88142, Note_on_c, 0, 65, 75
1, 88147, Note_on_c, 0, 54, 64
1, 88178, Note_off_c, 0, 58, 64
1, 88212, Note_on_c, 0, 66, 78
1, 88235, Note_off_c, 0, 65, 60
1, 88284, Note_off_c, 0, 66, 66
1, 88332, Note_on_c, 0, 61, 62
1, 88336, Note_on_c, 0, 76, 72
1, 88347, Note_off_c, 0, 54, 52
1, 88509, Note_on_c, 0, 52, 68
1, 88542, Note_off_c, 0, 61, 61
1, 88681, Note_on_c, 0, 50, 70
1, 88704, Note_off_c, 0, 52, 61
1, 88705, Note_off_c, 0, 76, 61
1, 88851, Note_on_c, 0, 54, 69
1, 88854, Note_off_c, 0, 50, 61
1, 89021, Note_on_c, 0, 66, 77
1, 89028, Note_on_c, 0, 47, 63
1, 89091, Note_off_c, 0, 54, 51
1, 89200, Note_on_c, 0, 49, 73
1, 89237, Note_off_c, 0, 47, 60
1, 89250, Note_off_c, 0, 66, 63
1, 89358, Note_on_c, 0, 50, 72
1, 89360, Note_on_c, 0, 67, 77
1, 89362, Note_off_c, 0, 49, 61
1, 89447, Note_on_c, 0, 66, 77
1, 89447, Note_off_c, 0, 67, 60
1, 89520, Note_on_c, 0, 54, 64
1, 89521, Note_off_c, 0, 66, 64
1, 89527, Note_on_c, 0, 65, 78
1, 89563, Note_off_c, 0, 50, 58
1, 89596, Note_on_c, 0, 66, 79
1, 89613, Note_off_c, 0, 65, 63
1, 89644, Note_off_c, 0, 66, 67
1, 89687, Note_off_c, 0, 54, 58
1, 89721, Note_on_c, 0, 47, 76
1, 89722, Note_on_c, 0, 78, 87
1, 89739, Control_c, 0, 64, 64
1, 89754, Control_c, 0, 64, 70
1, 89769, Control_c, 0, 64, 75
1, 89784, Control_c, 0, 64, 80
1, 89799, Control_c, 0, 64, 82
1, 89814, Control_c, 0, 64, 86
1, 89829, Control_c, 0, 64, 89
1, 89843, Control_c, 0, 64, 92
1, 89858, Control_c, 0, 64, 95
1, 89873, Control_c, 0, 64, 98
1, 89888, Control_c, 0, 64, 101
1, 89903, Control_c, 0, 64, 105
1, 89917, Control_c, 0, 64, 108
1, 89932, Control_c, 0, 64, 111
1, 89954, Control_c, 0, 64, 113
1, 89959, Note_on_c, 0, 69, 88
1, 89962, Note_on_c, 0, 49, 78
1, 89969, Control_c, 0, 64, 116
1, 89982, Note_off_c, 0, 47, 56
1, 89984, Control_c, 0, 64, 119
1, 89990, Note_off_c, 0, 78, 63
1, 89998, Control_c, 0, 64, 123
1, 90001, Note_off_c, 0, 69, 66
1, 90013, Control_c, 0, 64, 127
1, 90028, Control_c, 0, 64, 127
1, 90261, Note_on_c, 0, 64, 73
1, 90261, Note_on_c, 0, 69, 82
1, 90266, Note_on_c, 0, 59, 79
1, 90267, Note_on_c, 0, 50, 78
1, 90276, Note_off_c, 0, 49, 60
1, 90280, Control_c, 0, 64, 115
1, 90295, Control_c, 0, 64, 103
1, 90310, Control_c, 0, 64, 91
1, 90324, Control_c, 0, 64, 78
1, 90339, Control_c, 0, 64, 64
1, 90354, Control_c, 0, 64, 0
1, 90788, Note_on_c, 0, 68, 77
1, 90791, Note_on_c, 0, 38, 76
1, 90845, Note_off_c, 0, 69, 60
1, 90864, Note_off_c, 0, 50, 60
1, 91191, Note_off_c, 0, 59, 60
1, 91209, Note_off_c, 0, 64, 65
1, 91231, Note_off_c, 0, 68, 63
1, 91244, Note_off_c, 0, 38, 63
1, 91450, Note_on_c, 0, 68, 80
1, 91531, Note_on_c, 0, 70, 78
1, 91545, Note_off_c, 0, 68, 62
1, 91589, Note_off_c, 0, 70, 63
1, 91629, Note_on_c, 0, 50, 77
1, 91629, Note_on_c, 0, 71, 85
1, 91674, Control_c, 0, 64, 62
1, 91689, Control_c, 0, 64, 67
1, 91704, Control_c, 0, 64, 70
1, 91715, Note_on_c, 0, 73, 81
1, 91718, Control_c, 0, 64, 73
1, 91730, Note_off_c, 0, 71, 56
1, 91733, Control_c, 0, 64, 79
1, 91748, Control_c, 0, 64, 84
1, 91763, Control_c, 0, 64, 87
1, 91778, Control_c, 0, 64, 90
1, 91793, Control_c, 0, 64, 93
1, 91807, Note_on_c, 0, 74, 80
1, 91808, Control_c, 0, 64, 96
1, 91822, Control_c, 0, 64, 99
1, 91827, Note_off_c, 0, 73, 60
1, 91837, Control_c, 0, 64, 102
1, 91852, Control_c, 0, 64, 105
1, 91856, Note_off_c, 0, 50, 62
1, 91867, Control_c, 0, 64, 108
1, 91882, Control_c, 0, 64, 110
1, 91896, Control_c, 0, 64, 113
1, 91902, Note_on_c, 0, 76, 83
1, 91911, Control_c, 0, 64, 115
1, 91926, Control_c, 0, 64, 117
1, 91932, Note_off_c, 0, 74, 65
1, 91941, Control_c, 0, 64, 118
1, 91955, Control_c, 0, 64, 118
1, 91957, Note_off_c, 0, 76, 68
1, 91972, Control_c, 0, 64, 120
1, 91987, Control_c, 0, 64, 122
1, 92001, Control_c, 0, 64, 126
1, 92016, Control_c, 0, 64, 127
1, 92087, Note_on_c, 0, 71, 85
1, 92089, Note_on_c, 0, 49, 82
1, 92089, Note_on_c, 0, 64, 82
1, 92089, Note_on_c, 0, 67, 81
1, 92090, Control_c, 0, 64, 122
1, 92105, Control_c, 0, 64, 108
1, 92119, Control_c, 0, 64, 95
1, 92134, Control_c, 0, 64, 81
1, 92149, Control_c, 0, 64, 67
1, 92164, Control_c, 0, 64, 0
1, 92620, Note_on_c, 0, 70, 79
1, 92621, Note_on_c, 0, 61, 77
1, 92660, Note_off_c, 0, 71, 53
1, 92923, Note_off_c, 0, 64, 60
1, 92935, Note_off_c, 0, 67, 59
1, 92937, Note_off_c, 0, 49, 60
1, 92968, Note_off_c, 0, 70, 62
1, 92971, Note_off_c, 0, 61, 61
1, 93218, Note_on_c, 0, 61, 72
1, 93230, Note_on_c, 0, 70, 78
1, 93311, Note_on_c, 0, 62, 79
1, 93318, Note_on_c, 0, 71, 79
1, 93330, Note_off_c, 0, 61, 56
1, 93389, Note_off_c, 0, 62, 62
1, 93391, Note_on_c, 0, 64, 78
1, 93397, Note_off_c, 0, 70, 59
1, 93409, Note_on_c, 0, 73, 79
1, 93426, Note_off_c, 0, 71, 59
1, 93481, Note_on_c, 0, 62, 85
1, 93489, Note_on_c, 0, 71, 76
1, 93492, Note_off_c, 0, 64, 60
1, 93528, Note_off_c, 0, 73, 57
1, 93579, Note_on_c, 0, 61, 81
1, 93579, Note_off_c, 0, 62, 62
1, 93587, Note_on_c, 0, 70, 90
1, 93600, Note_off_c, 0, 71, 59
1, 93620, Note_off_c, 0, 61, 65
1, 93634, Note_off_c, 0, 70, 66
1, 93849, Note_on_c, 0, 77, 85
1, 93853, Note_on_c, 0, 71, 85
1, 93853, Note_on_c, 0, 74, 82
1, 93855, Note_on_c, 0, 68, 87
1, 93859, Note_on_c, 0, 59, 79
1, 93877, Control_c, 0, 64, 44
1, 93892, Control_c, 0, 64, 67
1, 93906, Control_c, 0, 64, 76
1, 93921, Control_c, 0, 64, 89
1, 93936, Control_c, 0, 64, 97
1, 93948, Note_off_c, 0, 68, 62
1, 93951, Control_c, 0, 64, 102
1, 93957, Note_off_c, 0, 59, 61
1, 93966, Control_c, 0, 64, 105
1, 93980, Control_c, 0, 64, 107
1, 93992, Note_off_c, 0, 71, 58
1, 93995, Note_off_c, 0, 74, 64
1, 93995, Control_c, 0, 64, 109
1, 94002, Note_off_c, 0, 77, 61
1, 94010, Control_c, 0, 64, 110
1, 94024, Control_c, 0, 64, 110
1, 94084, Control_c, 0, 64, 108
1, 94098, Control_c, 0, 64, 103
1, 94113, Control_c, 0, 64, 93
1, 94128, Control_c, 0, 64, 83
1, 94142, Control_c, 0, 64, 73
1, 94157, Control_c, 0, 64, 61
1, 94172, Control_c, 0, 64, 0
1, 94395, Control_c, 0, 64, 61
1, 94410, Control_c, 0, 64, 72
1, 94413, Note_on_c, 0, 78, 89
1, 94415, Note_on_c, 0, 66, 91
1, 94416, Note_on_c, 0, 73, 82
1, 94418, Note_on_c, 0, 61, 86
1, 94422, Note_on_c, 0, 58, 79
1, 94425, Control_c, 0, 64, 81
1, 94447, Control_c, 0, 64, 89
1, 94462, Control_c, 0, 64, 94
1, 94466, Note_off_c, 0, 66, 67
1, 94477, Control_c, 0, 64, 98
1, 94478, Note_off_c, 0, 73, 65
1, 94479, Note_off_c, 0, 61, 64
1, 94485, Note_off_c, 0, 58, 64
1, 94490, Note_off_c, 0, 78, 66
1, 94492, Control_c, 0, 64, 102
1, 94507, Control_c, 0, 64, 106
1, 94521, Control_c, 0, 64, 109
1, 94536, Control_c, 0, 64, 111
1, 94551, Control_c, 0, 64, 113
1, 94565, Control_c, 0, 64, 114
1, 94580, Control_c, 0, 64, 116
1, 94595, Control_c, 0, 64, 117
1, 94625, Control_c, 0, 64, 118
1, 94640, Control_c, 0, 64, 118
1, 94655, Control_c, 0, 64, 119
1, 94670, Control_c, 0, 64, 120
1, 94684, Control_c, 0, 64, 120
1, 94713, Control_c, 0, 64, 121
1, 94832, Control_c, 0, 64, 120
1, 94846, Control_c, 0, 64, 119
1, 94861, Control_c, 0, 64, 114
1, 94876, Control_c, 0, 64, 104
1, 94891, Control_c, 0, 64, 93
1, 94906, Control_c, 0, 64, 80
1, 94920, Control_c, 0, 64, 66
1, 94935, Control_c, 0, 64, 0
1, 95260, Note_on_c, 0, 54, 48
1, 95369, Note_on_c, 0, 56, 51
1, 95375, Note_off_c, 0, 54, 54
1, 95493, Note_on_c, 0, 58, 59
1, 95499, Note_off_c, 0, 56, 56
1, 95594, Note_off_c, 0, 58, 62
1, 95601, Note_on_c, 0, 59, 58
1, 95723, Note_off_c, 0, 59, 57
1, 95732, Note_on_c, 0, 61, 56
1, 96053, Note_on_c, 0, 50, 51
1, 96092, Note_off_c, 0, 61, 42
1, 96369, Note_on_c, 0, 71, 51
1, 96477, Note_on_c, 0, 69, 56
1, 96493, Note_off_c, 0, 71, 47
1, 96573, Note_off_c, 0, 69, 63
1, 96594, Note_on_c, 0, 52, 47
1, 96602, Note_on_c, 0, 67, 51
1, 96707, Note_off_c, 0, 50, 36
1, 96725, Note_on_c, 0, 66, 60
1, 96727, Note_off_c, 0, 67, 58
1, 96859, Note_on_c, 0, 64, 56
1, 96903, Note_off_c, 0, 66, 39
1, 97225, Note_on_c, 0, 62, 55
1, 97229, Note_on_c, 0, 54, 43
1, 97236, Note_off_c, 0, 52, 35
1, 97247, Note_off_c, 0, 64, 49
1, 97650, Note_on_c, 0, 71, 63
1, 97679, Control_c, 0, 64, 48
1, 97694, Control_c, 0, 64, 63
1, 97709, Control_c, 0, 64, 66
1, 97710, Note_off_c, 0, 62, 54
1, 97724, Control_c, 0, 64, 69
1, 97738, Control_c, 0, 64, 72
1, 97753, Control_c, 0, 64, 78
1, 97768, Control_c, 0, 64, 82
1, 97783, Control_c, 0, 64, 84
1, 97797, Control_c, 0, 64, 85
1, 97812, Control_c, 0, 64, 86
1, 97827, Control_c, 0, 64, 87
1, 97842, Control_c, 0, 64, 88
1, 97857, Control_c, 0, 64, 90
1, 97871, Control_c, 0, 64, 90
1, 97886, Control_c, 0, 64, 91
1, 97901, Control_c, 0, 64, 91
1, 97916, Control_c, 0, 64, 92
1, 97930, Note_off_c, 0, 54, 33
1, 97931, Control_c, 0, 64, 92
1, 97946, Control_c, 0, 64, 93
1, 97990, Control_c, 0, 64, 93
1, 98094, Note_on_c, 0, 64, 46
1, 98109, Control_c, 0, 64, 92
1, 98114, Note_on_c, 0, 61, 39
1, 98119, Note_on_c, 0, 42, 38
1, 98124, Control_c, 0, 64, 90
1, 98138, Control_c, 0, 64, 83
1, 98153, Control_c, 0, 64, 73
1, 98168, Control_c, 0, 64, 55
1, 98190, Control_c, 0, 64, 0
1, 98612, Note_on_c, 0, 70, 55
1, 98650, Note_off_c, 0, 71, 47
1, 98768, Note_off_c, 0, 64, 56
1, 98783, Control_c, 0, 64, 32
1, 98798, Control_c, 0, 64, 57
1, 98813, Control_c, 0, 64, 63
1, 98828, Control_c, 0, 64, 67
1, 98832, Note_off_c, 0, 61, 55
1, 98843, Control_c, 0, 64, 73
1, 98858, Control_c, 0, 64, 81
1, 98873, Control_c, 0, 64, 87
1, 98887, Control_c, 0, 64, 89
1, 98902, Control_c, 0, 64, 90
1, 98917, Control_c, 0, 64, 92
1, 98938, Control_c, 0, 64, 94
1, 98949, Note_off_c, 0, 70, 37
1, 98953, Control_c, 0, 64, 96
1, 98968, Control_c, 0, 64, 98
1, 98983, Control_c, 0, 64, 99
1, 98986, Note_off_c, 0, 42, 54
1, 98998, Control_c, 0, 64, 100
1, 99013, Control_c, 0, 64, 101
1, 99028, Control_c, 0, 64, 101
1, 99043, Control_c, 0, 64, 102
1, 99072, Control_c, 0, 64, 102
1, 99087, Control_c, 0, 64, 103
1, 99132, Control_c, 0, 64, 103
1, 99369, Control_c, 0, 64, 103
1, 99384, Control_c, 0, 64, 101
1, 99391, Note_on_c, 0, 66, 55
1, 99396, Note_on_c, 0, 71, 57
1, 99399, Control_c, 0, 64, 97
1, 99401, Note_on_c, 0, 62, 51
1, 99403, Note_on_c, 0, 59, 48
1, 99405, Note_on_c, 0, 47, 54
1, 99414, Control_c, 0, 64, 91
1, 99429, Control_c, 0, 64, 85
1, 99443, Control_c, 0, 64, 77
1, 99458, Control_c, 0, 64, 67
1, 99473, Control_c, 0, 64, 0
1, 101895, Note_off_c, 0, 71, 49
1, 101900, Note_off_c, 0, 62, 47
1, 101901, Note_off_c, 0, 47, 58
1, 101902, Note_off_c, 0, 59, 55
1, 101916, Note_off_c, 0, 66, 38
1, 102646, Note_on_c, 0, 66, 75
1, 102862, Note_off_c, 0, 66, 63
1, 102870, Note_on_c, 0, 62, 87
1, 102889, Note_off_c, 0, 62, 70
1, 103093, Note_on_c, 0, 59, 83
1, 103111, Note_off_c, 0, 59, 70
1, 103309, Note_on_c, 0, 58, 83
1, 103338, Note_off_c, 0, 58, 69
1, 103534, Note_on_c, 0, 59, 88
1, 103556, Note_off_c, 0, 59, 69
1, 103745, Note_on_c, 0, 61, 79
1, 103785, Note_off_c, 0, 61, 64
1, 103848, Note_on_c, 0, 62, 82
1, 103876, Note_off_c, 0, 62, 63
1, 103948, Note_on_c, 0, 64, 80
1, 103977, Note_off_c, 0, 64, 67
1, 104036, Note_on_c, 0, 66, 83
1, 104080, Note_off_c, 0, 66, 66
1, 104149, Note_on_c, 0, 67, 92
1, 104179, Note_off_c, 0, 67, 67
1, 104369, Note_on_c, 0, 55, 84
1, 104390, Note_off_c, 0, 55, 71
1, 104578, Note_on_c, 0, 67, 88
1, 104604, Note_off_c, 0, 67, 65
1, 104784, Note_on_c, 0, 66, 94
1, 104811, Note_off_c, 0, 66, 67
1, 104996, Note_on_c, 0, 54, 82
1, 105034, Note_off_c, 0, 54, 65
1, 105206, Note_on_c, 0, 66, 85
1, 105233, Note_off_c, 0, 66, 66
1, 105412, Note_on_c, 0, 64, 81
1, 105445, Note_off_c, 0, 64, 66
1, 105623, Note_on_c, 0, 66, 75
1, 105651, Note_off_c, 0, 66, 69
1, 105734, Note_on_c, 0, 64, 70
1, 105758, Note_off_c, 0, 64, 67
1, 105831, Note_on_c, 0, 62, 76
1, 105875, Note_off_c, 0, 62, 57
1, 105931, Note_on_c, 0, 61, 72
1, 105973, Note_off_c, 0, 61, 65
1, 106033, Note_on_c, 0, 62, 77
1, 106084, Note_off_c, 0, 62, 60
1, 106139, Note_on_c, 0, 66, 79
1, 106181, Note_off_c, 0, 66, 65
1, 106239, Note_on_c, 0, 64, 79
1, 106270, Note_off_c, 0, 64, 66
1, 106337, Note_on_c, 0, 62, 75
1, 106382, Note_off_c, 0, 62, 61
1, 106450, Note_on_c, 0, 61, 70
1, 106459, Note_on_c, 0, 71, 81
1, 106495, Note_off_c, 0, 61, 59
1, 106555, Note_on_c, 0, 59, 69
1, 106586, Note_off_c, 0, 59, 66
1, 106660, Note_on_c, 0, 61, 76
1, 106662, Note_on_c, 0, 69, 89
1, 106674, Note_off_c, 0, 71, 59
1, 106692, Note_off_c, 0, 69, 69
1, 106703, Note_off_c, 0, 61, 61
1, 106766, Note_on_c, 0, 59, 70
1, 106806, Note_off_c, 0, 59, 61
1, 106870, Note_on_c, 0, 61, 79
1, 106872, Note_on_c, 0, 66, 84
1, 106891, Note_off_c, 0, 66, 74
1, 106922, Note_off_c, 0, 61, 58
1, 106972, Note_on_c, 0, 62, 78
1, 107013, Note_off_c, 0, 62, 61
1, 107074, Note_on_c, 0, 61, 85
1, 107074, Note_on_c, 0, 65, 92
1, 107102, Note_off_c, 0, 65, 67
1, 107118, Note_off_c, 0, 61, 63
1, 107180, Note_on_c, 0, 59, 82
1, 107220, Note_off_c, 0, 59, 63
1, 107284, Note_on_c, 0, 57, 90
1, 107289, Note_on_c, 0, 66, 96
1, 107310, Note_off_c, 0, 57, 66
1, 107320, Note_off_c, 0, 66, 70
1, 107494, Note_on_c, 0, 54, 81
1, 107496, Note_on_c, 0, 68, 88
1, 107523, Note_off_c, 0, 54, 66
1, 107532, Note_off_c, 0, 68, 68
1, 107598, Note_on_c, 0, 69, 87
1, 107634, Note_off_c, 0, 69, 67
1, 107699, Note_on_c, 0, 53, 77
1, 107701, Note_on_c, 0, 71, 89
1, 107723, Note_off_c, 0, 53, 69
1, 107731, Note_off_c, 0, 71, 62
1, 107797, Note_on_c, 0, 73, 90
1, 107818, Note_off_c, 0, 73, 69
1, 107894, Note_on_c, 0, 54, 62
1, 107896, Note_on_c, 0, 74, 89
1, 107918, Note_off_c, 0, 74, 77
1, 108000, Note_on_c, 0, 56, 63
1, 108028, Note_off_c, 0, 54, 52
1, 108078, Note_off_c, 0, 56, 63
1, 108104, Note_on_c, 0, 57, 70
1, 108122, Note_on_c, 0, 62, 82
1, 108146, Note_off_c, 0, 62, 68
1, 108149, Note_off_c, 0, 57, 58
1, 108161, Note_on_c, 0, 56, 68
1, 108211, Note_off_c, 0, 56, 62
1, 108224, Note_on_c, 0, 57, 76
1, 108266, Note_on_c, 0, 56, 66
1, 108281, Note_off_c, 0, 57, 60
1, 108334, Note_on_c, 0, 74, 77
1, 108335, Note_on_c, 0, 57, 66
1, 108339, Note_off_c, 0, 56, 0
1, 108352, Note_off_c, 0, 74, 74
1, 108355, Note_on_c, 0, 56, 40
1, 108388, Note_off_c, 0, 57, 55
1, 108423, Note_on_c, 0, 54, 62
1, 108509, Note_off_c, 0, 54, 59
1, 108523, Note_on_c, 0, 57, 70
1, 108541, Note_on_c, 0, 73, 87
1, 108546, Note_off_c, 0, 56, 61
1, 108558, Note_off_c, 0, 73, 72
1, 108583, Note_off_c, 0, 57, 63
1, 108645, Note_on_c, 0, 59, 77
1, 108680, Note_off_c, 0, 59, 65
1, 108749, Note_on_c, 0, 61, 90
1, 108754, Note_on_c, 0, 57, 77
1, 108781, Note_off_c, 0, 61, 64
1, 108784, Note_off_c, 0, 57, 66
1, 108858, Note_on_c, 0, 56, 79
1, 108912, Note_off_c, 0, 56, 63
1, 108956, Note_on_c, 0, 54, 76
1, 108956, Note_on_c, 0, 73, 89
1, 108975, Note_off_c, 0, 73, 70
1, 108998, Note_off_c, 0, 54, 64
1, 109063, Note_on_c, 0, 52, 78
1, 109089, Note_off_c, 0, 52, 68
1, 109160, Note_on_c, 0, 51, 74
1, 109162, Note_on_c, 0, 71, 92
1, 109184, Note_off_c, 0, 71, 65
1, 109261, Note_off_c, 0, 51, 61
1, 109262, Note_on_c, 0, 53, 69
1, 109343, Note_off_c, 0, 53, 65
1, 109360, Note_on_c, 0, 54, 69
1, 109370, Note_on_c, 0, 73, 77
1, 109408, Note_off_c, 0, 73, 64
1, 109426, Note_on_c, 0, 53, 63
1, 109434, Note_off_c, 0, 54, 56
1, 109473, Note_on_c, 0, 71, 78
1, 109491, Note_on_c, 0, 54, 63
1, 109499, Note_off_c, 0, 71, 61
1, 109544, Note_off_c, 0, 54, 58
1, 109583, Note_on_c, 0, 69, 81
1, 109607, Note_off_c, 0, 69, 65
1, 109630, Note_off_c, 0, 53, 66
1, 109643, Note_on_c, 0, 51, 56
1, 109672, Note_on_c, 0, 68, 80
1, 109709, Note_off_c, 0, 68, 65
1, 109726, Note_on_c, 0, 53, 64
1, 109773, Note_off_c, 0, 51, 53
1, 109780, Note_on_c, 0, 69, 89
1, 109789, Note_on_c, 0, 54, 84
1, 109798, Note_off_c, 0, 53, 64
1, 109817, Note_off_c, 0, 54, 67
1, 109817, Note_off_c, 0, 69, 66
1, 109887, Note_on_c, 0, 73, 77
1, 109934, Note_off_c, 0, 73, 62
1, 109986, Note_on_c, 0, 56, 87
1, 109993, Note_on_c, 0, 71, 83
1, 110025, Note_off_c, 0, 56, 66
1, 110030, Note_off_c, 0, 71, 62
1, 110094, Note_on_c, 0, 69, 82
1, 110132, Note_off_c, 0, 69, 65
1, 110204, Note_on_c, 0, 68, 86
1, 110207, Note_on_c, 0, 57, 82
1, 110236, Note_off_c, 0, 57, 65
1, 110254, Note_off_c, 0, 68, 65
1, 110312, Note_on_c, 0, 66, 83
1, 110349, Note_off_c, 0, 66, 67
1, 110415, Note_on_c, 0, 59, 69
1, 110417, Note_on_c, 0, 67, 87
1, 110450, Note_off_c, 0, 67, 63
1, 110514, Note_on_c, 0, 61, 73
1, 110515, Note_off_c, 0, 59, 62
1, 110585, Note_off_c, 0, 61, 62
1, 110609, Note_on_c, 0, 62, 75
1, 110620, Note_on_c, 0, 69, 78
1, 110651, Note_off_c, 0, 69, 64
1, 110652, Note_on_c, 0, 61, 62
1, 110661, Note_off_c, 0, 62, 59
1, 110692, Note_off_c, 0, 61, 64
1, 110716, Note_on_c, 0, 67, 81
1, 110721, Note_on_c, 0, 62, 65
1, 110756, Note_off_c, 0, 67, 62
1, 110757, Note_on_c, 0, 61, 54
1, 110781, Note_off_c, 0, 62, 50
1, 110822, Note_on_c, 0, 66, 85
1, 110849, Note_off_c, 0, 61, 61
1, 110855, Note_on_c, 0, 59, 64
1, 110867, Note_off_c, 0, 66, 65
1, 110931, Note_on_c, 0, 64, 81
1, 110972, Note_on_c, 0, 61, 72
1, 110972, Note_off_c, 0, 64, 64
1, 110984, Note_off_c, 0, 59, 61
1, 111030, Note_on_c, 0, 66, 84
1, 111035, Note_on_c, 0, 62, 86
1, 111052, Note_off_c, 0, 61, 64
1, 111070, Note_off_c, 0, 62, 63
1, 111083, Note_off_c, 0, 66, 66
1, 111144, Note_on_c, 0, 69, 79
1, 111183, Note_off_c, 0, 69, 65
1, 111249, Note_on_c, 0, 67, 81
1, 111252, Note_on_c, 0, 58, 88
1, 111282, Note_off_c, 0, 58, 69
1, 111291, Note_off_c, 0, 67, 62
1, 111351, Note_on_c, 0, 66, 84
1, 111395, Note_off_c, 0, 66, 68
1, 111462, Note_on_c, 0, 59, 87
1, 111467, Note_on_c, 0, 64, 85
1, 111507, Note_off_c, 0, 64, 65
1, 111558, Note_on_c, 0, 62, 84
1, 111613, Note_off_c, 0, 62, 63
1, 111679, Note_on_c, 0, 64, 85
1, 111727, Note_off_c, 0, 64, 65
1, 111894, Note_on_c, 0, 66, 76
1, 111897, Note_on_c, 0, 58, 83
1, 111919, Note_off_c, 0, 59, 61
1, 111944, Note_off_c, 0, 58, 65
1, 111990, Note_on_c, 0, 56, 85
1, 111997, Note_on_c, 0, 64, 71
1, 112008, Note_off_c, 0, 56, 69
1, 112012, Note_off_c, 0, 66, 52
1, 112074, Note_off_c, 0, 64, 62
1, 112102, Note_on_c, 0, 54, 89
1, 112103, Note_on_c, 0, 58, 86
1, 112105, Note_on_c, 0, 62, 84
1, 112191, Note_off_c, 0, 62, 60
1, 112202, Note_on_c, 0, 61, 79
1, 112243, Note_off_c, 0, 58, 64
1, 112263, Note_off_c, 0, 61, 64
1, 112322, Note_on_c, 0, 50, 97
1, 112322, Note_on_c, 0, 59, 83
1, 112322, Note_on_c, 0, 62, 87
1, 112331, Note_off_c, 0, 54, 55
1, 112349, Note_off_c, 0, 50, 61
1, 112353, Note_off_c, 0, 59, 64
1, 112374, Note_off_c, 0, 62, 62
1, 112436, Note_on_c, 0, 64, 77
1, 112480, Note_off_c, 0, 64, 62
1, 112539, Note_on_c, 0, 47, 92
1, 112550, Note_on_c, 0, 66, 82
1, 112581, Note_off_c, 0, 47, 65
1, 112604, Note_off_c, 0, 66, 65
1, 112654, Note_on_c, 0, 67, 81
1, 112766, Note_on_c, 0, 46, 90
1, 112766, Note_off_c, 0, 67, 32
1, 112767, Note_on_c, 0, 66, 81
1, 112820, Note_off_c, 0, 46, 63
1, 112870, Note_on_c, 0, 64, 79
1, 112988, Note_on_c, 0, 47, 94
1, 112990, Note_on_c, 0, 62, 88
1, 113016, Note_off_c, 0, 64, 65
1, 113024, Note_off_c, 0, 62, 64
1, 113037, Note_off_c, 0, 47, 64
1, 113210, Note_on_c, 0, 49, 84
1, 113215, Note_on_c, 0, 59, 84
1, 113247, Note_off_c, 0, 66, 62
1, 113251, Note_off_c, 0, 59, 64
1, 113253, Note_off_c, 0, 49, 63
1, 113321, Note_on_c, 0, 50, 83
1, 113360, Note_off_c, 0, 50, 66
1, 113416, Note_on_c, 0, 58, 85
1, 113419, Note_on_c, 0, 52, 86
1, 113455, Note_off_c, 0, 58, 64
1, 113455, Note_off_c, 0, 52, 70
1, 113521, Note_on_c, 0, 54, 88
1, 113555, Note_off_c, 0, 54, 66
1, 113628, Note_on_c, 0, 59, 80
1, 113629, Note_on_c, 0, 55, 92
1, 113655, Note_off_c, 0, 59, 64
1, 113659, Note_off_c, 0, 55, 69
1, 113732, Note_on_c, 0, 61, 75
1, 113762, Note_off_c, 0, 61, 64
1, 113840, Note_on_c, 0, 64, 73
1, 113841, Note_on_c, 0, 43, 92
1, 113843, Note_on_c, 0, 62, 71
1, 113868, Note_off_c, 0, 43, 67
1, 113870, Note_off_c, 0, 62, 66
1, 113874, Note_off_c, 0, 64, 61
1, 113889, Note_on_c, 0, 61, 66
1, 113947, Note_off_c, 0, 61, 63
1, 113962, Note_on_c, 0, 62, 71
1, 114003, Note_off_c, 0, 62, 61
1, 114004, Note_on_c, 0, 61, 58
1, 114060, Note_on_c, 0, 55, 88
1, 114062, Note_off_c, 0, 61, 63
1, 114064, Note_on_c, 0, 69, 69
1, 114069, Note_on_c, 0, 62, 67
1, 114094, Note_off_c, 0, 55, 67
1, 114108, Note_off_c, 0, 62, 58
1, 114110, Note_on_c, 0, 61, 60
1, 114172, Note_off_c, 0, 61, 60
1, 114183, Note_on_c, 0, 59, 80
1, 114218, Note_off_c, 0, 59, 61
1, 114222, Note_on_c, 0, 61, 52
1, 114230, Note_off_c, 0, 69, 27
1, 114287, Note_on_c, 0, 62, 87
1, 114287, Note_on_c, 0, 69, 72
1, 114289, Note_on_c, 0, 54, 88
1, 114302, Note_off_c, 0, 61, 64
1, 114319, Note_off_c, 0, 54, 66
1, 114322, Note_off_c, 0, 62, 63
1, 114326, Note_off_c, 0, 69, 66
1, 114403, Note_on_c, 0, 64, 85
1, 114435, Note_off_c, 0, 64, 66
1, 114510, Note_on_c, 0, 62, 80
1, 114513, Note_on_c, 0, 66, 83
1, 114514, Note_on_c, 0, 42, 91
1, 114536, Note_off_c, 0, 62, 66
1, 114548, Note_off_c, 0, 42, 66
1, 114556, Note_off_c, 0, 66, 65
1, 114612, Note_on_c, 0, 61, 82
1, 114641, Note_off_c, 0, 61, 66
1, 114728, Note_on_c, 0, 54, 85
1, 114728, Note_on_c, 0, 59, 80
1, 114730, Note_on_c, 0, 62, 76
1, 114756, Note_off_c, 0, 54, 64
1, 114833, Note_on_c, 0, 57, 77
1, 114841, Note_off_c, 0, 59, 58
1, 114886, Note_off_c, 0, 57, 63
1, 114953, Note_on_c, 0, 52, 96
1, 114956, Note_on_c, 0, 56, 82
1, 114987, Note_off_c, 0, 52, 67
1, 114998, Note_off_c, 0, 56, 60
1, 115010, Note_off_c, 0, 62, 57
1, 115041, Note_on_c, 0, 58, 74
1, 115075, Note_off_c, 0, 58, 64
1, 115157, Note_on_c, 0, 59, 63
1, 115163, Note_on_c, 0, 54, 79
1, 115169, Note_on_c, 0, 61, 58
1, 115185, Note_off_c, 0, 59, 64
1, 115186, Note_on_c, 0, 58, 70
1, 115197, Note_off_c, 0, 54, 65
1, 115248, Note_off_c, 0, 61, 60
1, 115250, Note_off_c, 0, 58, 64
1, 115262, Note_on_c, 0, 59, 65
1, 115264, Note_on_c, 0, 52, 78
1, 115298, Note_off_c, 0, 52, 69
1, 115310, Note_on_c, 0, 58, 61
1, 115349, Note_off_c, 0, 59, 0
1, 115364, Note_off_c, 0, 58, 62
1, 115366, Note_on_c, 0, 59, 47
1, 115374, Note_on_c, 0, 50, 78
1, 115381, Note_on_c, 0, 66, 66
1, 115412, Note_off_c, 0, 59, 65
1, 115420, Note_on_c, 0, 58, 51
1, 115423, Note_off_c, 0, 50, 64
1, 115483, Note_off_c, 0, 58, 62
1, 115491, Note_on_c, 0, 56, 79
1, 115499, Note_on_c, 0, 49, 78
1, 115529, Note_on_c, 0, 58, 51
1, 115542, Note_off_c, 0, 49, 63
1, 115542, Note_off_c, 0, 56, 61
1, 115605, Note_on_c, 0, 50, 78
1, 115606, Note_on_c, 0, 59, 80
1, 115618, Note_off_c, 0, 58, 64
1, 115646, Note_off_c, 0, 50, 64
1, 115712, Note_on_c, 0, 54, 77
1, 115749, Note_off_c, 0, 54, 64
1, 115785, Note_off_c, 0, 59, 58
1, 115804, Note_off_c, 0, 66, 60
1, 115819, Note_on_c, 0, 52, 77
1, 115850, Note_off_c, 0, 52, 66
1, 115923, Note_on_c, 0, 50, 73
1, 115953, Note_off_c, 0, 50, 66
1, 116032, Note_on_c, 0, 49, 73
1, 116042, Note_on_c, 0, 68, 76
1, 116064, Note_off_c, 0, 49, 66
1, 116138, Note_on_c, 0, 47, 73
1, 116168, Note_off_c, 0, 47, 67
1, 116245, Note_off_c, 0, 68, 53
1, 116260, Note_on_c, 0, 69, 72
1, 116266, Note_on_c, 0, 49, 63
1, 116285, Note_off_c, 0, 69, 68
1, 116358, Note_on_c, 0, 51, 63
1, 116371, Note_on_c, 0, 73, 67
1, 116390, Note_off_c, 0, 49, 49
1, 116400, Note_off_c, 0, 73, 65
1, 116436, Note_off_c, 0, 51, 62
1, 116461, Note_on_c, 0, 52, 73
1, 116487, Note_on_c, 0, 71, 64
1, 116499, Note_off_c, 0, 52, 59
1, 116515, Note_off_c, 0, 71, 66
1, 116523, Note_on_c, 0, 51, 63
1, 116561, Note_off_c, 0, 51, 63
1, 116583, Note_on_c, 0, 69, 73
1, 116585, Note_on_c, 0, 52, 80
1, 116607, Note_off_c, 0, 69, 69
1, 116627, Note_off_c, 0, 52, 66
1, 116631, Note_on_c, 0, 51, 69
1, 116683, Note_on_c, 0, 68, 80
1, 116690, Note_off_c, 0, 51, 58
1, 116695, Note_on_c, 0, 52, 69
1, 116717, Note_off_c, 0, 68, 65
1, 116752, Note_off_c, 0, 52, 57
1, 116767, Note_on_c, 0, 49, 54
1, 116784, Note_on_c, 0, 66, 77
1, 116809, Note_on_c, 0, 51, 65
1, 116815, Note_off_c, 0, 66, 65
1, 116865, Note_off_c, 0, 49, 51
1, 116882, Note_on_c, 0, 52, 68
1, 116889, Note_on_c, 0, 68, 82
1, 116940, Note_off_c, 0, 68, 63
1, 116948, Note_off_c, 0, 51, 58
1, 116968, Note_off_c, 0, 52, 66
1, 117006, Note_on_c, 0, 70, 76
1, 117010, Note_on_c, 0, 55, 74
1, 117038, Note_off_c, 0, 55, 67
1, 117042, Note_off_c, 0, 70, 61
1, 117107, Note_on_c, 0, 54, 81
1, 117112, Note_on_c, 0, 71, 68
1, 117143, Note_off_c, 0, 71, 60
1, 117146, Note_off_c, 0, 54, 63
1, 117157, Note_on_c, 0, 70, 66
1, 117205, Note_off_c, 0, 70, 63
1, 117220, Note_on_c, 0, 52, 79
1, 117228, Note_on_c, 0, 71, 53
1, 117251, Note_off_c, 0, 52, 67
1, 117276, Note_off_c, 0, 71, 54
1, 117282, Note_on_c, 0, 70, 67
1, 117320, Note_on_c, 0, 50, 76
1, 117337, Note_off_c, 0, 70, 61
1, 117339, Note_on_c, 0, 71, 49
1, 117348, Note_off_c, 0, 50, 66
1, 117402, Note_off_c, 0, 71, 59
1, 117414, Note_on_c, 0, 68, 73
1, 117433, Note_on_c, 0, 49, 74
1, 117453, Note_on_c, 0, 70, 28
1, 117462, Note_off_c, 0, 49, 62
1, 117478, Note_off_c, 0, 68, 62
1, 117524, Note_on_c, 0, 51, 78
1, 117526, Note_on_c, 0, 71, 81
1, 117558, Note_off_c, 0, 70, 63
1, 117569, Note_off_c, 0, 71, 60
1, 117641, Note_on_c, 0, 53, 73
1, 117650, Note_on_c, 0, 74, 70
1, 117677, Note_off_c, 0, 51, 61
1, 117681, Note_off_c, 0, 74, 67
1, 117704, Note_off_c, 0, 53, 64
1, 117723, Note_on_c, 0, 54, 57
1, 117753, Note_off_c, 0, 54, 64
1, 117761, Note_on_c, 0, 73, 79
1, 117786, Note_on_c, 0, 53, 55
1, 117798, Note_off_c, 0, 73, 64
1, 117860, Note_on_c, 0, 54, 57
1, 117866, Note_on_c, 0, 71, 77
1, 117879, Note_off_c, 0, 53, 61
1, 117900, Note_off_c, 0, 71, 59
1, 117941, Note_off_c, 0, 54, 61
1, 117955, Note_on_c, 0, 53, 36
1, 117968, Note_on_c, 0, 69, 88
1, 118003, Note_off_c, 0, 69, 62
1, 118016, Note_on_c, 0, 51, 34
1, 118070, Note_on_c, 0, 68, 80
1, 118092, Note_on_c, 0, 54, 52
1, 118105, Note_off_c, 0, 68, 65
1, 118135, Note_off_c, 0, 53, 54
1, 118153, Note_off_c, 0, 51, 33
1, 118180, Note_on_c, 0, 69, 88
1, 118224, Note_off_c, 0, 69, 61
1, 118240, Note_on_c, 0, 57, 56
1, 118251, Note_off_c, 0, 54, 62
1, 118269, Note_off_c, 0, 57, 63
1, 118289, Note_on_c, 0, 71, 76
1, 118310, Note_off_c, 0, 71, 67
1, 118379, Note_on_c, 0, 56, 78
1, 118380, Note_on_c, 0, 73, 79
1, 118415, Note_off_c, 0, 56, 64
1, 118437, Note_off_c, 0, 73, 58
1, 118452, Note_on_c, 0, 71, 75
1, 118499, Note_on_c, 0, 54, 76
1, 118522, Note_on_c, 0, 73, 58
1, 118527, Note_off_c, 0, 54, 65
1, 118532, Note_off_c, 0, 71, 0
1, 118546, Note_on_c, 0, 71, 53
1, 118565, Note_off_c, 0, 73, 52
1, 118591, Note_on_c, 0, 53, 83
1, 118621, Note_on_c, 0, 73, 57
1, 118624, Note_off_c, 0, 53, 68
1, 118624, Note_off_c, 0, 71, 61
1, 118675, Note_on_c, 0, 71, 58
1, 118693, Note_off_c, 0, 73, 60
1, 118700, Note_on_c, 0, 51, 79
1, 118705, Note_on_c, 0, 69, 48
1, 118716, Note_off_c, 0, 71, 60
1, 118728, Note_off_c, 0, 51, 64
1, 118752, Note_off_c, 0, 69, 0
1, 118763, Note_on_c, 0, 69, 50
1, 118782, Note_on_c, 0, 71, 69
1, 118793, Note_off_c, 0, 69, 67
1, 118797, Note_on_c, 0, 53, 82
1, 118851, Note_on_c, 0, 73, 80
1, 118852, Note_off_c, 0, 53, 66
1, 118869, Note_off_c, 0, 71, 62
1, 118914, Note_on_c, 0, 56, 81
1, 118945, Note_off_c, 0, 56, 65
1, 119033, Note_on_c, 0, 54, 79
1, 119077, Note_off_c, 0, 54, 63
1, 119140, Note_on_c, 0, 53, 89
1, 119186, Note_off_c, 0, 53, 67
1, 119244, Note_off_c, 0, 73, 60
1, 119259, Note_on_c, 0, 51, 87
1, 119271, Note_on_c, 0, 61, 88
1, 119310, Note_off_c, 0, 51, 61
1, 119368, Note_on_c, 0, 49, 85
1, 119414, Note_off_c, 0, 49, 60
1, 119482, Note_on_c, 0, 57, 92
1, 119490, Note_on_c, 0, 54, 85
1, 119492, Note_off_c, 0, 61, 60
1, 119521, Note_off_c, 0, 57, 66
1, 119523, Note_off_c, 0, 54, 62
1, 119600, Note_on_c, 0, 74, 73
1, 119640, Note_off_c, 0, 74, 64
1, 119710, Note_on_c, 0, 54, 92
1, 119713, Note_on_c, 0, 73, 84
1, 119714, Note_on_c, 0, 45, 87
1, 119742, Note_off_c, 0, 54, 65
1, 119747, Note_off_c, 0, 45, 68
1, 119760, Note_off_c, 0, 73, 65
1, 119822, Note_on_c, 0, 71, 87
1, 119861, Note_off_c, 0, 71, 61
1, 119933, Note_on_c, 0, 53, 82
1, 119934, Note_on_c, 0, 69, 88
1, 119942, Note_on_c, 0, 49, 84
1, 119972, Note_off_c, 0, 53, 68
1, 119976, Note_off_c, 0, 49, 64
1, 119985, Note_off_c, 0, 69, 63
1, 120032, Note_on_c, 0, 68, 82
1, 120086, Note_off_c, 0, 68, 65
1, 120148, Note_on_c, 0, 54, 88
1, 120152, Note_on_c, 0, 42, 80
1, 120152, Note_on_c, 0, 69, 97
1, 120183, Note_off_c, 0, 42, 69
1, 120185, Note_off_c, 0, 69, 68
1, 120195, Note_off_c, 0, 54, 61
1, 120370, Note_on_c, 0, 66, 91
1, 120372, Note_on_c, 0, 56, 74
1, 120400, Note_off_c, 0, 66, 69
1, 120413, Note_off_c, 0, 56, 61
1, 120480, Note_on_c, 0, 57, 83
1, 120523, Note_off_c, 0, 57, 63
1, 120585, Note_on_c, 0, 59, 88
1, 120585, Note_on_c, 0, 65, 97
1, 120618, Note_off_c, 0, 65, 65
1, 120623, Note_off_c, 0, 59, 65
1, 120702, Note_on_c, 0, 61, 86
1, 120734, Note_off_c, 0, 61, 66
1, 120802, Note_on_c, 0, 62, 89
1, 120806, Note_on_c, 0, 66, 87
1, 120828, Note_off_c, 0, 62, 65
1, 120836, Note_off_c, 0, 66, 70
1, 120927, Note_on_c, 0, 57, 69
1, 120961, Note_off_c, 0, 57, 62
1, 121026, Note_on_c, 0, 50, 80
1, 121027, Note_on_c, 0, 47, 78
1, 121069, Note_off_c, 0, 50, 62
1, 121073, Note_off_c, 0, 47, 62
1, 121131, Note_on_c, 0, 57, 64
1, 121213, Note_off_c, 0, 57, 34
1, 121236, Note_on_c, 0, 50, 56
1, 121237, Note_on_c, 0, 47, 51
1, 121241, Note_on_c, 0, 62, 83
1, 121241, Note_on_c, 0, 71, 75
1, 121277, Note_off_c, 0, 47, 56
1, 121277, Note_off_c, 0, 62, 63
1, 121280, Note_off_c, 0, 50, 64
1, 121349, Note_on_c, 0, 56, 62
1, 121405, Note_off_c, 0, 56, 59
1, 121419, Note_off_c, 0, 71, 56
1, 121467, Note_on_c, 0, 45, 75
1, 121469, Note_on_c, 0, 61, 87
1, 121497, Note_off_c, 0, 61, 64
1, 121509, Note_off_c, 0, 45, 66
1, 121568, Note_on_c, 0, 56, 65
1, 121609, Note_off_c, 0, 56, 59
1, 121678, Note_on_c, 0, 49, 75
1, 121681, Note_on_c, 0, 45, 61
1, 121685, Note_on_c, 0, 65, 82
1, 121718, Note_off_c, 0, 45, 64
1, 121724, Note_off_c, 0, 65, 65
1, 121728, Note_off_c, 0, 49, 61
1, 121776, Note_on_c, 0, 56, 72
1, 121838, Note_off_c, 0, 56, 61
1, 121885, Note_on_c, 0, 45, 64
1, 121893, Note_on_c, 0, 66, 74
1, 121897, Note_on_c, 0, 61, 79
1, 121927, Note_off_c, 0, 45, 63
1, 121947, Note_off_c, 0, 61, 60
1, 121997, Note_on_c, 0, 54, 64
1, 122070, Note_off_c, 0, 54, 56
1, 122109, Note_on_c, 0, 62, 77
1, 122114, Note_on_c, 0, 59, 73
1, 122117, Note_on_c, 0, 44, 78
1, 122130, Note_off_c, 0, 66, 62
1, 122138, Note_off_c, 0, 59, 67
1, 122140, Note_off_c, 0, 62, 65
1, 122164, Note_off_c, 0, 44, 62
1, 122220, Note_on_c, 0, 54, 64
1, 122281, Note_off_c, 0, 54, 55
1, 122321, Note_on_c, 0, 53, 77
1, 122329, Note_on_c, 0, 61, 70
1, 122382, Note_off_c, 0, 53, 64
1, 122425, Note_on_c, 0, 56, 69
1, 122431, Note_on_c, 0, 59, 70
1, 122464, Note_off_c, 0, 56, 61
1, 122496, Note_off_c, 0, 59, 55
1, 122530, Note_on_c, 0, 49, 65
1, 122539, Note_on_c, 0, 57, 74
1, 122572, Note_off_c, 0, 57, 63
1, 122580, Note_off_c, 0, 49, 61
1, 122633, Note_on_c, 0, 53, 60
1, 122633, Note_on_c, 0, 56, 69
1, 122663, Note_off_c, 0, 56, 66
1, 122673, Note_off_c, 0, 53, 65
1, 122747, Note_on_c, 0, 42, 73
1, 122750, Note_on_c, 0, 57, 77
1, 122773, Note_off_c, 0, 57, 68
1, 122815, Note_off_c, 0, 42, 57
1, 122851, Note_on_c, 0, 54, 52
1, 122908, Note_off_c, 0, 54, 55
1, 122970, Note_on_c, 0, 44, 65
1, 122973, Note_on_c, 0, 59, 73
1, 122993, Note_off_c, 0, 61, 58
1, 122996, Note_off_c, 0, 59, 67
1, 123041, Note_off_c, 0, 44, 57
1, 123066, Note_on_c, 0, 54, 62
1, 123149, Note_off_c, 0, 54, 53
1, 123180, Note_on_c, 0, 61, 63
1, 123188, Note_on_c, 0, 66, 74
1, 123194, Note_on_c, 0, 45, 69
1, 123242, Note_off_c, 0, 66, 65
1, 123278, Note_off_c, 0, 45, 58
1, 123298, Note_on_c, 0, 54, 57
1, 123367, Note_off_c, 0, 54, 53
1, 123402, Note_on_c, 0, 62, 79
1, 123411, Note_on_c, 0, 47, 65
1, 123447, Note_off_c, 0, 62, 54
1, 123475, Note_off_c, 0, 47, 62
1, 123501, Note_on_c, 0, 54, 65
1, 123569, Note_off_c, 0, 54, 52
1, 123612, Note_on_c, 0, 49, 69
1, 123620, Note_off_c, 0, 61, 43
1, 123621, Note_on_c, 0, 59, 72
1, 123623, Note_on_c, 0, 64, 71
1, 123652, Note_off_c, 0, 59, 66
1, 123655, Note_off_c, 0, 64, 69
1, 123680, Note_off_c, 0, 49, 60
1, 123709, Note_on_c, 0, 54, 61
1, 123790, Note_off_c, 0, 54, 51
1, 123822, Note_on_c, 0, 50, 57
1, 123836, Note_on_c, 0, 66, 70
1, 123840, Note_on_c, 0, 57, 65
1, 123869, Note_off_c, 0, 57, 64
1, 123901, Note_off_c, 0, 50, 59
1, 123915, Note_on_c, 0, 54, 62
1, 123960, Note_off_c, 0, 54, 63
1, 124051, Note_on_c, 0, 40, 70
1, 124055, Note_on_c, 0, 55, 73
1, 124081, Note_off_c, 0, 55, 66
1, 124091, Note_off_c, 0, 40, 64
1, 124169, Note_on_c, 0, 52, 46
1, 124207, Note_off_c, 0, 52, 59
1, 124269, Note_on_c, 0, 57, 73
1, 124270, Note_on_c, 0, 64, 69
1, 124273, Note_on_c, 0, 42, 59
1, 124295, Note_off_c, 0, 57, 65
1, 124295, Note_off_c, 0, 66, 64
1, 124297, Note_off_c, 0, 64, 68
1, 124324, Note_off_c, 0, 42, 62
1, 124370, Note_on_c, 0, 52, 56
1, 124426, Note_off_c, 0, 52, 57
1, 124488, Note_on_c, 0, 62, 74
1, 124491, Note_on_c, 0, 59, 62
1, 124497, Note_on_c, 0, 43, 61
1, 124520, Note_off_c, 0, 62, 63
1, 124545, Note_off_c, 0, 43, 60
1, 124607, Note_on_c, 0, 52, 52
1, 124660, Note_off_c, 0, 52, 57
1, 124710, Note_on_c, 0, 61, 76
1, 124717, Note_on_c, 0, 45, 62
1, 124766, Note_off_c, 0, 45, 64
1, 124822, Note_on_c, 0, 52, 56
1, 124898, Note_off_c, 0, 59, 37
1, 124904, Note_off_c, 0, 52, 50
1, 124926, Note_off_c, 0, 61, 55
1, 124926, Note_on_c, 0, 57, 71
1, 124931, Note_on_c, 0, 47, 62
1, 124950, Note_off_c, 0, 57, 66
1, 125000, Note_off_c, 0, 47, 62
1, 125037, Note_on_c, 0, 52, 61
1, 125090, Note_off_c, 0, 52, 59
1, 125153, Note_on_c, 0, 81, 83
1, 125164, Note_on_c, 0, 49, 63
1, 125233, Note_off_c, 0, 49, 54
1, 125262, Note_on_c, 0, 52, 62
1, 125293, Note_off_c, 0, 52, 67
1, 125368, Note_on_c, 0, 78, 88
1, 125370, Note_off_c, 0, 81, 55
1, 125371, Note_on_c, 0, 50, 67
1, 125386, Note_off_c, 0, 78, 72
1, 125416, Note_off_c, 0, 50, 58
1, 125474, Note_on_c, 0, 52, 65
1, 125513, Note_off_c, 0, 52, 64
1, 125583, Note_on_c, 0, 74, 88
1, 125586, Note_on_c, 0, 54, 69
1, 125602, Note_off_c, 0, 74, 70
1, 125629, Note_off_c, 0, 54, 57
1, 125692, Note_on_c, 0, 55, 71
1, 125734, Note_off_c, 0, 55, 63
1, 125796, Note_on_c, 0, 73, 92
1, 125801, Note_on_c, 0, 57, 67
1, 125813, Note_off_c, 0, 73, 73
1, 125834, Note_off_c, 0, 57, 63
1, 125902, Note_on_c, 0, 55, 64
1, 125934, Note_off_c, 0, 55, 64
1, 126011, Note_on_c, 0, 54, 67
1, 126012, Note_on_c, 0, 74, 90
1, 126032, Note_off_c, 0, 74, 69
1, 126048, Note_off_c, 0, 54, 62
1, 126124, Note_on_c, 0, 57, 63
1, 126157, Note_off_c, 0, 57, 63
1, 126220, Note_on_c, 0, 76, 81
1, 126224, Note_on_c, 0, 55, 61
1, 126254, Note_off_c, 0, 76, 68
1, 126264, Note_off_c, 0, 55, 61
1, 126318, Note_on_c, 0, 78, 87
1, 126330, Note_on_c, 0, 54, 57
1, 126346, Note_off_c, 0, 78, 68
1, 126384, Note_off_c, 0, 54, 58
1, 126419, Note_on_c, 0, 79, 87
1, 126436, Note_on_c, 0, 52, 61
1, 126456, Note_off_c, 0, 79, 64
1, 126480, Note_off_c, 0, 52, 62
1, 126518, Note_on_c, 0, 81, 87
1, 126545, Note_on_c, 0, 50, 41
1, 126556, Note_off_c, 0, 81, 61
1, 126576, Note_off_c, 0, 50, 50
1, 126625, Note_on_c, 0, 55, 70
1, 126627, Note_on_c, 0, 83, 87
1, 126650, Note_off_c, 0, 83, 72
1, 126659, Note_off_c, 0, 55, 66
1, 126771, Note_on_c, 0, 66, 59
1, 126809, Note_off_c, 0, 66, 62
1, 126851, Note_on_c, 0, 71, 75
1, 126866, Note_on_c, 0, 55, 58
1, 126871, Note_off_c, 0, 71, 69
1, 126908, Note_off_c, 0, 55, 63
1, 126949, Note_on_c, 0, 66, 62
1, 126984, Note_off_c, 0, 66, 66
1, 127060, Note_on_c, 0, 83, 89
1, 127062, Note_on_c, 0, 52, 59
1, 127070, Note_on_c, 0, 55, 42
1, 127089, Note_off_c, 0, 83, 64
1, 127096, Note_off_c, 0, 52, 65
1, 127099, Note_off_c, 0, 55, 59
1, 127145, Note_on_c, 0, 64, 63
1, 127210, Note_off_c, 0, 64, 44
1, 127269, Note_on_c, 0, 54, 63
1, 127278, Note_on_c, 0, 81, 81
1, 127279, Note_on_c, 0, 83, 78
1, 127293, Note_off_c, 0, 83, 68
1, 127295, Note_off_c, 0, 81, 70
1, 127318, Note_off_c, 0, 54, 61
1, 127373, Note_on_c, 0, 64, 54
1, 127451, Note_off_c, 0, 64, 46
1, 127495, Note_on_c, 0, 54, 62
1, 127503, Note_on_c, 0, 69, 83
1, 127528, Note_off_c, 0, 69, 68
1, 127540, Note_off_c, 0, 54, 61
1, 127598, Note_on_c, 0, 64, 57
1, 127659, Note_off_c, 0, 64, 59
1, 127705, Note_on_c, 0, 81, 89
1, 127715, Note_on_c, 0, 54, 52
1, 127718, Note_on_c, 0, 50, 51
1, 127738, Note_off_c, 0, 81, 66
1, 127769, Note_off_c, 0, 54, 56
1, 127774, Note_off_c, 0, 50, 55
1, 127820, Note_on_c, 0, 62, 57
1, 127910, Note_off_c, 0, 62, 53
1, 127919, Note_on_c, 0, 79, 86
1, 127922, Note_on_c, 0, 52, 64
1, 127951, Note_off_c, 0, 79, 65
1, 127973, Note_off_c, 0, 52, 64
1, 128027, Note_on_c, 0, 62, 58
1, 128072, Note_off_c, 0, 62, 56
1, 128125, Note_on_c, 0, 57, 60
1, 128128, Note_on_c, 0, 81, 82
1, 128129, Note_on_c, 0, 61, 64
1, 128170, Note_off_c, 0, 81, 62
1, 128179, Note_off_c, 0, 57, 60
1, 128182, Note_off_c, 0, 61, 58
1, 128235, Note_on_c, 0, 64, 64
1, 128241, Note_on_c, 0, 79, 73
1, 128275, Note_off_c, 0, 79, 59
1, 128308, Note_off_c, 0, 64, 59
1, 128321, Note_on_c, 0, 57, 59
1, 128341, Note_on_c, 0, 78, 80
1, 128367, Note_off_c, 0, 57, 60
1, 128388, Note_off_c, 0, 78, 62
1, 128428, Note_on_c, 0, 61, 58
1, 128433, Note_on_c, 0, 76, 79
1, 128460, Note_off_c, 0, 61, 64
1, 128471, Note_off_c, 0, 76, 67
1, 128535, Note_on_c, 0, 50, 65
1, 128539, Note_on_c, 0, 78, 83
1, 128544, Note_on_c, 0, 62, 60
1, 128573, Note_off_c, 0, 50, 62
1, 128586, Note_off_c, 0, 62, 59
1, 128586, Note_off_c, 0, 78, 62
1, 128636, Note_on_c, 0, 81, 80
1, 128661, Note_on_c, 0, 61, 67
1, 128688, Note_off_c, 0, 81, 59
1, 128694, Note_off_c, 0, 61, 60
1, 128747, Note_on_c, 0, 79, 75
1, 128759, Note_on_c, 0, 62, 65
1, 128785, Note_off_c, 0, 79, 62
1, 128791, Note_off_c, 0, 62, 63
1, 128829, Note_on_c, 0, 64, 75
1, 128838, Note_on_c, 0, 78, 82
1, 128861, Note_off_c, 0, 64, 66
1, 128893, Note_off_c, 0, 78, 61
1, 128950, Note_on_c, 0, 76, 83
1, 128950, Note_on_c, 0, 59, 68
1, 128967, Note_on_c, 0, 66, 72
1, 128983, Note_off_c, 0, 59, 61
1, 128987, Note_off_c, 0, 76, 67
1, 129004, Note_off_c, 0, 66, 67
1, 129043, Note_on_c, 0, 74, 75
1, 129069, Note_on_c, 0, 68, 72
1, 129085, Note_off_c, 0, 74, 65
1, 129135, Note_off_c, 0, 68, 61
1, 129152, Note_on_c, 0, 73, 83
1, 129167, Note_on_c, 0, 69, 77
1, 129168, Note_on_c, 0, 66, 66
1, 129182, Note_off_c, 0, 73, 63
1, 129203, Note_off_c, 0, 69, 65
1, 129211, Note_off_c, 0, 66, 63
1, 129261, Note_on_c, 0, 68, 73
1, 129319, Note_off_c, 0, 68, 60
1, 129360, Note_on_c, 0, 69, 72
1, 129367, Note_on_c, 0, 74, 83
1, 129386, Note_off_c, 0, 74, 70
1, 129403, Note_off_c, 0, 69, 65
1, 129456, Note_on_c, 0, 71, 70
1, 129481, Note_off_c, 0, 71, 66
1, 129564, Note_on_c, 0, 76, 86
1, 129567, Note_on_c, 0, 69, 73
1, 129573, Note_on_c, 0, 61, 71
1, 129596, Note_off_c, 0, 69, 64
1, 129615, Note_off_c, 0, 61, 55
1, 129668, Note_on_c, 0, 68, 75
1, 129725, Note_off_c, 0, 68, 63
1, 129775, Note_on_c, 0, 66, 80
1, 129784, Note_on_c, 0, 62, 79
1, 129826, Note_off_c, 0, 66, 64
1, 129854, Note_off_c, 0, 62, 56
1, 129878, Note_on_c, 0, 64, 72
1, 129952, Note_off_c, 0, 64, 62
1, 129988, Note_on_c, 0, 66, 75
1, 129990, Note_on_c, 0, 74, 76
1, 129996, Note_off_c, 0, 76, 65
1, 130009, Note_off_c, 0, 74, 71
1, 130047, Note_off_c, 0, 66, 65
1, 130090, Note_on_c, 0, 68, 69
1, 130137, Note_off_c, 0, 68, 59
1, 130193, Note_on_c, 0, 69, 69
1, 130195, Note_on_c, 0, 73, 80
1, 130198, Note_on_c, 0, 63, 63
1, 130217, Note_off_c, 0, 69, 70
1, 130227, Note_off_c, 0, 73, 65
1, 130232, Note_off_c, 0, 63, 65
1, 130304, Note_on_c, 0, 66, 68
1, 130339, Note_off_c, 0, 66, 66
1, 130419, Note_on_c, 0, 68, 79
1, 130421, Note_on_c, 0, 64, 81
1, 130422, Note_on_c, 0, 71, 69
1, 130441, Note_off_c, 0, 64, 72
1, 130451, Note_off_c, 0, 68, 66
1, 130455, Note_off_c, 0, 71, 58
1, 130530, Note_on_c, 0, 64, 72
1, 130573, Note_off_c, 0, 64, 58
1, 130631, Note_on_c, 0, 66, 75
1, 130633, Note_on_c, 0, 69, 76
1, 130656, Note_off_c, 0, 66, 70
1, 130658, Note_off_c, 0, 69, 67
1, 130726, Note_on_c, 0, 64, 69
1, 130784, Note_off_c, 0, 64, 44
1, 130833, Note_on_c, 0, 52, 86
1, 130835, Note_on_c, 0, 68, 78
1, 130842, Note_on_c, 0, 71, 71
1, 130870, Note_off_c, 0, 68, 67
1, 130876, Note_off_c, 0, 71, 58
1, 130950, Note_on_c, 0, 64, 69
1, 131048, Note_on_c, 0, 49, 86
1, 131054, Note_on_c, 0, 69, 75
1, 131055, Note_on_c, 0, 73, 79
1, 131062, Note_off_c, 0, 52, 67
1, 131070, Note_off_c, 0, 64, 61
1, 131072, Note_off_c, 0, 49, 70
1, 131077, Note_off_c, 0, 69, 70
1, 131093, Note_off_c, 0, 73, 64
1, 131169, Note_on_c, 0, 64, 72
1, 131227, Note_off_c, 0, 64, 61
1, 131272, Note_on_c, 0, 45, 86
1, 131279, Note_on_c, 0, 73, 75
1, 131281, Note_on_c, 0, 76, 73
1, 131296, Note_off_c, 0, 45, 70
1, 131315, Note_off_c, 0, 73, 64
1, 131325, Note_off_c, 0, 76, 63
1, 131381, Note_on_c, 0, 64, 71
1, 131426, Note_off_c, 0, 64, 57
1, 131486, Note_on_c, 0, 44, 81
1, 131488, Note_on_c, 0, 74, 74
1, 131490, Note_on_c, 0, 71, 75
1, 131514, Note_off_c, 0, 44, 69
1, 131514, Note_off_c, 0, 71, 65
1, 131531, Note_off_c, 0, 74, 63
1, 131587, Note_on_c, 0, 64, 68
1, 131627, Note_off_c, 0, 64, 57
1, 131690, Note_on_c, 0, 71, 69
1, 131702, Note_on_c, 0, 45, 90
1, 131707, Note_on_c, 0, 73, 80
1, 131733, Note_off_c, 0, 45, 68
1, 131810, Note_off_c, 0, 71, 48
1, 131816, Note_on_c, 0, 69, 76
1, 131869, Note_off_c, 0, 69, 64
1, 131923, Note_on_c, 0, 47, 87
1, 131960, Note_off_c, 0, 47, 67
1, 132025, Note_on_c, 0, 68, 82
1, 132027, Note_on_c, 0, 49, 78
1, 132041, Note_off_c, 0, 73, 21
1, 132068, Note_off_c, 0, 68, 64
1, 132074, Note_off_c, 0, 49, 61
1, 132133, Note_on_c, 0, 50, 88
1, 132136, Note_on_c, 0, 66, 86
1, 132156, Note_off_c, 0, 66, 70
1, 132166, Note_off_c, 0, 50, 66
1, 132235, Note_on_c, 0, 52, 92
1, 132235, Note_on_c, 0, 64, 77
1, 132262, Note_off_c, 0, 52, 68
1, 132268, Note_off_c, 0, 64, 66
1, 132342, Note_on_c, 0, 62, 82
1, 132345, Note_on_c, 0, 54, 95
1, 132379, Note_off_c, 0, 54, 63
1, 132387, Note_off_c, 0, 62, 62
1, 132450, Note_on_c, 0, 73, 66
1, 132515, Note_off_c, 0, 73, 53
1, 132552, Note_on_c, 0, 42, 95
1, 132556, Note_on_c, 0, 62, 82
1, 132559, Note_on_c, 0, 69, 76
1, 132592, Note_off_c, 0, 42, 62
1, 132593, Note_off_c, 0, 62, 62
1, 132655, Note_off_c, 0, 69, 59
1, 132667, Note_on_c, 0, 73, 69
1, 132751, Note_off_c, 0, 73, 51
1, 132776, Note_on_c, 0, 54, 90
1, 132780, Note_on_c, 0, 62, 82
1, 132784, Note_on_c, 0, 68, 75
1, 132810, Note_off_c, 0, 54, 64
1, 132824, Note_off_c, 0, 62, 62
1, 132831, Note_off_c, 0, 68, 57
1, 132884, Note_on_c, 0, 71, 70
1, 132950, Note_off_c, 0, 71, 60
1, 132992, Note_on_c, 0, 52, 88
1, 132997, Note_on_c, 0, 61, 84
1, 133026, Note_off_c, 0, 52, 69
1, 133045, Note_off_c, 0, 61, 62
1, 133096, Note_on_c, 0, 71, 62
1, 133170, Note_off_c, 0, 71, 58
1, 133205, Note_on_c, 0, 40, 80
1, 133213, Note_on_c, 0, 68, 65
1, 133217, Note_on_c, 0, 61, 74
1, 133249, Note_off_c, 0, 40, 65
1, 133253, Note_off_c, 0, 61, 60
1, 133299, Note_off_c, 0, 68, 60
1, 133308, Note_on_c, 0, 71, 60
1, 133406, Note_off_c, 0, 71, 60
1, 133425, Note_on_c, 0, 52, 86
1, 133427, Note_on_c, 0, 61, 69
1, 133428, Note_on_c, 0, 66, 67
1, 133459, Note_off_c, 0, 52, 70
1, 133466, Note_off_c, 0, 61, 64
1, 133475, Note_off_c, 0, 66, 61
1, 133529, Note_on_c, 0, 69, 66
1, 133597, Note_off_c, 0, 69, 61
1, 133635, Note_on_c, 0, 50, 82
1, 133643, Note_on_c, 0, 59, 75
1, 133669, Note_off_c, 0, 50, 67
1, 133699, Note_off_c, 0, 59, 58
1, 133739, Note_on_c, 0, 69, 68
1, 133815, Note_off_c, 0, 69, 52
1, 133845, Note_on_c, 0, 52, 74
1, 133854, Note_on_c, 0, 64, 69
1, 133856, Note_on_c, 0, 68, 67
1, 133875, Note_off_c, 0, 52, 68
1, 133895, Note_off_c, 0, 64, 61
1, 133948, Note_on_c, 0, 50, 75
1, 133961, Note_on_c, 0, 71, 66
1, 133976, Note_off_c, 0, 68, 56
1, 133981, Note_off_c, 0, 50, 66
1, 134062, Note_on_c, 0, 49, 75
1, 134069, Note_on_c, 0, 64, 68
1, 134069, Note_off_c, 0, 71, 36
1, 134071, Note_on_c, 0, 62, 65
1, 134094, Note_off_c, 0, 49, 64
1, 134105, Note_off_c, 0, 62, 61
1, 134137, Note_off_c, 0, 64, 47
1, 134170, Note_on_c, 0, 47, 74
1, 134178, Note_on_c, 0, 68, 66
1, 134208, Note_off_c, 0, 47, 65
1, 134261, Note_off_c, 0, 68, 62
1, 134292, Note_on_c, 0, 49, 73
1, 134298, Note_on_c, 0, 69, 69
1, 134336, Note_off_c, 0, 49, 62
1, 134401, Note_on_c, 0, 52, 76
1, 134429, Note_off_c, 0, 52, 70
1, 134512, Note_on_c, 0, 57, 67
1, 134521, Note_on_c, 0, 61, 73
1, 134524, Note_on_c, 0, 64, 65
1, 134540, Note_off_c, 0, 69, 34
1, 134543, Note_off_c, 0, 57, 64
1, 134551, Note_off_c, 0, 61, 64
1, 134557, Note_off_c, 0, 64, 65
1, 134617, Note_on_c, 0, 52, 71
1, 134647, Note_off_c, 0, 52, 67
1, 134729, Note_on_c, 0, 51, 66
1, 134732, Note_on_c, 0, 60, 69
1, 134734, Note_on_c, 0, 66, 66
1, 134766, Note_off_c, 0, 51, 64
1, 134770, Note_off_c, 0, 66, 63
1, 134833, Note_on_c, 0, 57, 68
1, 134869, Note_off_c, 0, 57, 62
1, 134945, Note_on_c, 0, 67, 79
1, 134947, Note_on_c, 0, 52, 74
1, 134979, Note_off_c, 0, 60, 60
1, 134980, Note_off_c, 0, 67, 65
1, 134982, Note_off_c, 0, 52, 65
1, 135048, Note_on_c, 0, 55, 73
1, 135090, Note_off_c, 0, 55, 62
1, 135147, Note_on_c, 0, 54, 72
1, 135161, Note_on_c, 0, 59, 68
1, 135162, Note_on_c, 0, 68, 69
1, 135187, Note_off_c, 0, 59, 67
1, 135196, Note_off_c, 0, 54, 61
1, 135204, Note_off_c, 0, 68, 62
1, 135255, Note_on_c, 0, 52, 68
1, 135308, Note_off_c, 0, 52, 64
1, 135361, Note_on_c, 0, 50, 71
1, 135371, Note_on_c, 0, 64, 68
1, 135374, Note_on_c, 0, 70, 73
1, 135401, Note_off_c, 0, 50, 62
1, 135407, Note_off_c, 0, 70, 68
1, 135463, Note_on_c, 0, 49, 79
1, 135532, Note_off_c, 0, 49, 58
1, 135582, Note_on_c, 0, 50, 71
1, 135585, Note_on_c, 0, 71, 79
1, 135589, Note_off_c, 0, 64, 64
1, 135636, Note_off_c, 0, 50, 62
1, 135689, Note_on_c, 0, 54, 77
1, 135740, Note_off_c, 0, 54, 60
1, 135806, Note_on_c, 0, 66, 82
1, 135809, Note_on_c, 0, 59, 72
1, 135809, Note_on_c, 0, 63, 75
1, 135839, Note_off_c, 0, 63, 63
1, 135842, Note_off_c, 0, 71, 52
1, 135848, Note_off_c, 0, 66, 66
1, 135854, Note_off_c, 0, 59, 60
1, 135903, Note_on_c, 0, 54, 76
1, 135953, Note_off_c, 0, 54, 61
1, 136010, Note_on_c, 0, 53, 85
1, 136015, Note_on_c, 0, 68, 80
1, 136020, Note_on_c, 0, 62, 77
1, 136053, Note_off_c, 0, 53, 67
1, 136070, Note_off_c, 0, 68, 63
1, 136117, Note_on_c, 0, 59, 78
1, 136169, Note_off_c, 0, 59, 63
1, 136220, Note_on_c, 0, 54, 86
1, 136226, Note_on_c, 0, 69, 84
1, 136260, Note_off_c, 0, 62, 63
1, 136272, Note_off_c, 0, 69, 63
1, 136283, Note_off_c, 0, 54, 60
1, 136324, Note_on_c, 0, 57, 85
1, 136387, Note_off_c, 0, 57, 62
1, 136438, Note_on_c, 0, 56, 85
1, 136442, Note_on_c, 0, 61, 83
1, 136443, Note_on_c, 0, 70, 82
1, 136474, Note_off_c, 0, 61, 66
1, 136487, Note_off_c, 0, 70, 60
1, 136493, Note_off_c, 0, 56, 62
1, 136536, Note_on_c, 0, 54, 83
1, 136599, Note_off_c, 0, 54, 61
1, 136643, Note_on_c, 0, 72, 70
1, 136644, Note_on_c, 0, 53, 90
1, 136650, Note_on_c, 0, 66, 79
1, 136693, Note_off_c, 0, 53, 66
1, 136715, Note_off_c, 0, 72, 63
1, 136754, Note_on_c, 0, 51, 91
1, 136804, Note_off_c, 0, 51, 62
1, 136861, Note_on_c, 0, 49, 92
1, 136861, Note_on_c, 0, 73, 81
1, 136918, Note_off_c, 0, 49, 62
1, 136962, Note_on_c, 0, 50, 88
1, 136998, Note_off_c, 0, 50, 67
1, 137042, Note_off_c, 0, 66, 55
1, 137070, Note_on_c, 0, 65, 82
1, 137071, Note_on_c, 0, 49, 91
1, 137096, Note_off_c, 0, 73, 58
1, 137123, Note_off_c, 0, 65, 64
1, 137132, Note_off_c, 0, 49, 63
1, 137175, Note_on_c, 0, 47, 94
1, 137222, Note_off_c, 0, 47, 64
1, 137279, Note_on_c, 0, 45, 89
1, 137299, Note_on_c, 0, 73, 85
1, 137316, Note_off_c, 0, 45, 66
1, 137383, Note_on_c, 0, 44, 88
1, 137437, Note_off_c, 0, 44, 65
1, 137506, Note_on_c, 0, 42, 87
1, 137509, Note_on_c, 0, 69, 86
1, 137545, Note_off_c, 0, 69, 68
1, 137547, Note_off_c, 0, 73, 60
1, 137549, Note_off_c, 0, 42, 57
1, 137605, Note_on_c, 0, 54, 82
1, 137636, Note_off_c, 0, 54, 63
1, 137709, Note_on_c, 0, 56, 84
1, 137717, Note_on_c, 0, 69, 77
1, 137718, Note_on_c, 0, 66, 79
1, 137742, Note_off_c, 0, 66, 70
1, 137752, Note_off_c, 0, 69, 67
1, 137764, Note_off_c, 0, 56, 63
1, 137814, Note_on_c, 0, 57, 85
1, 137854, Note_off_c, 0, 57, 64
1, 137925, Note_on_c, 0, 68, 80
1, 137926, Note_on_c, 0, 65, 81
1, 137929, Note_on_c, 0, 59, 86
1, 137956, Note_off_c, 0, 65, 67
1, 137961, Note_off_c, 0, 68, 66
1, 137967, Note_off_c, 0, 59, 64
1, 138030, Note_on_c, 0, 61, 85
1, 138084, Note_off_c, 0, 61, 61
1, 138133, Note_on_c, 0, 62, 88
1, 138134, Note_on_c, 0, 66, 90
1, 138170, Note_off_c, 0, 66, 67
1, 138179, Note_off_c, 0, 62, 63
1, 138240, Note_on_c, 0, 64, 79
1, 138283, Note_off_c, 0, 64, 62
1, 138335, Note_on_c, 0, 62, 82
1, 138337, Note_on_c, 0, 68, 79
1, 138374, Note_off_c, 0, 62, 63
1, 138393, Note_off_c, 0, 68, 61
1, 138438, Note_on_c, 0, 70, 73
1, 138443, Note_on_c, 0, 61, 79
1, 138463, Note_off_c, 0, 70, 69
1, 138470, Note_off_c, 0, 61, 66
1, 138545, Note_on_c, 0, 71, 73
1, 138550, Note_on_c, 0, 59, 73
1, 138577, Note_off_c, 0, 59, 65
1, 138586, Note_off_c, 0, 71, 61
1, 138650, Note_on_c, 0, 58, 73
1, 138651, Note_on_c, 0, 73, 78
1, 138683, Note_off_c, 0, 73, 61
1, 138688, Note_off_c, 0, 58, 64
1, 138766, Note_on_c, 0, 59, 82
1, 138766, Note_on_c, 0, 74, 79
1, 138785, Note_off_c, 0, 59, 70
1, 138801, Note_off_c, 0, 74, 65
1, 138862, Note_on_c, 0, 81, 76
1, 138912, Note_off_c, 0, 81, 55
1, 138975, Note_on_c, 0, 71, 79
1, 138980, Note_on_c, 0, 62, 79
1, 139007, Note_off_c, 0, 62, 65
1, 139013, Note_off_c, 0, 71, 62
1, 139075, Note_on_c, 0, 81, 74
1, 139132, Note_off_c, 0, 81, 59
1, 139181, Note_on_c, 0, 74, 76
1, 139182, Note_on_c, 0, 71, 74
1, 139183, Note_on_c, 0, 52, 71
1, 139207, Note_off_c, 0, 71, 65
1, 139216, Note_off_c, 0, 52, 66
1, 139222, Note_off_c, 0, 74, 64
1, 139285, Note_on_c, 0, 80, 73
1, 139386, Note_off_c, 0, 80, 52
1, 139399, Note_on_c, 0, 73, 76
1, 139401, Note_on_c, 0, 57, 75
1, 139404, Note_on_c, 0, 69, 78
1, 139423, Note_off_c, 0, 57, 67
1, 139428, Note_off_c, 0, 69, 68
1, 139437, Note_off_c, 0, 73, 62
1, 139505, Note_on_c, 0, 80, 74
1, 139592, Note_off_c, 0, 80, 59
1, 139616, Note_on_c, 0, 69, 81
1, 139616, Note_on_c, 0, 61, 76
1, 139648, Note_off_c, 0, 61, 66
1, 139652, Note_off_c, 0, 69, 65
1, 139724, Note_on_c, 0, 80, 66
1, 139812, Note_off_c, 0, 80, 59
1, 139818, Note_on_c, 0, 62, 76
1, 139825, Note_on_c, 0, 73, 75
1, 139829, Note_on_c, 0, 69, 73
1, 139866, Note_off_c, 0, 69, 63
1, 139911, Note_off_c, 0, 73, 51
1, 139929, Note_on_c, 0, 78, 77
1, 140033, Note_on_c, 0, 71, 75
1, 140038, Note_on_c, 0, 68, 78
1, 140044, Note_off_c, 0, 78, 62
1, 140087, Note_off_c, 0, 68, 55
1, 140110, Note_off_c, 0, 71, 58
1, 140151, Note_on_c, 0, 78, 77
1, 140209, Note_off_c, 0, 78, 63
1, 140259, Note_on_c, 0, 73, 76
1, 140259, Note_on_c, 0, 77, 76
1, 140269, Note_on_c, 0, 61, 71
1, 140291, Note_off_c, 0, 62, 61
1, 140321, Note_off_c, 0, 73, 61
1, 140330, Note_off_c, 0, 61, 63
1, 140358, Note_off_c, 0, 77, 56
1, 140363, Note_on_c, 0, 80, 75
1, 140370, Note_on_c, 0, 71, 75
1, 140414, Note_off_c, 0, 71, 61
1, 140474, Note_on_c, 0, 73, 81
1, 140477, Note_on_c, 0, 69, 76
1, 140500, Note_off_c, 0, 80, 59
1, 140516, Note_off_c, 0, 69, 62
1, 140544, Note_off_c, 0, 73, 59
1, 140570, Note_on_c, 0, 68, 83
1, 140575, Note_on_c, 0, 77, 78
1, 140605, Note_off_c, 0, 68, 67
1, 140637, Note_off_c, 0, 77, 60
1, 140686, Note_on_c, 0, 69, 77
1, 140688, Note_on_c, 0, 78, 80
1, 140708, Note_off_c, 0, 78, 71
1, 140772, Note_on_c, 0, 59, 78
1, 140806, Note_off_c, 0, 59, 62
1, 140889, Note_on_c, 0, 57, 75
1, 140900, Note_on_c, 0, 73, 82
1, 140925, Note_off_c, 0, 73, 63
1, 140926, Note_off_c, 0, 57, 61
1, 140996, Note_on_c, 0, 56, 77
1, 141041, Note_off_c, 0, 56, 60
1, 141096, Note_on_c, 0, 54, 74
1, 141106, Note_on_c, 0, 78, 83
1, 141142, Note_off_c, 0, 54, 61
1, 141197, Note_on_c, 0, 52, 76
1, 141225, Note_off_c, 0, 52, 69
1, 141314, Note_on_c, 0, 51, 91
1, 141349, Note_off_c, 0, 51, 63
1, 141359, Note_off_c, 0, 78, 58
1, 141404, Control_c, 0, 64, 10
1, 141410, Note_on_c, 0, 76, 69
1, 141419, Control_c, 0, 64, 13
1, 141433, Note_off_c, 0, 76, 72
1, 141434, Control_c, 0, 64, 0
1, 141529, Note_on_c, 0, 75, 77
1, 141529, Note_on_c, 0, 59, 92
1, 141568, Note_off_c, 0, 75, 62
1, 141583, Note_off_c, 0, 69, 50
1, 141632, Note_on_c, 0, 69, 35
1, 141637, Note_on_c, 0, 73, 81
1, 141669, Note_off_c, 0, 73, 66
1, 141676, Note_off_c, 0, 69, 65
1, 141752, Note_on_c, 0, 71, 82
1, 141845, Note_on_c, 0, 69, 87
1, 141866, Note_off_c, 0, 71, 55
1, 141950, Note_on_c, 0, 67, 82
1, 141981, Note_off_c, 0, 69, 50
1, 142045, Note_on_c, 0, 66, 81
1, 142049, Note_on_c, 0, 57, 75
1, 142060, Note_off_c, 0, 67, 59
1, 142068, Note_off_c, 0, 59, 61
1, 142079, Note_off_c, 0, 57, 66
1, 142088, Note_off_c, 0, 66, 66
1, 142158, Note_on_c, 0, 64, 83
1, 142158, Note_on_c, 0, 71, 81
1, 142159, Note_on_c, 0, 55, 84
1, 142179, Note_off_c, 0, 64, 70
1, 142182, Note_off_c, 0, 71, 65
1, 142197, Note_off_c, 0, 55, 67
1, 142259, Note_on_c, 0, 54, 83
1, 142294, Note_off_c, 0, 54, 64
1, 142373, Note_on_c, 0, 76, 86
1, 142374, Note_on_c, 0, 67, 82
1, 142380, Note_on_c, 0, 52, 91
1, 142415, Note_off_c, 0, 52, 68
1, 142481, Note_on_c, 0, 50, 83
1, 142515, Note_off_c, 0, 50, 66
1, 142592, Note_on_c, 0, 49, 97
1, 142617, Note_off_c, 0, 49, 64
1, 142694, Note_on_c, 0, 74, 66
1, 142697, Note_off_c, 0, 76, 63
1, 142724, Note_off_c, 0, 74, 62
1, 142805, Note_on_c, 0, 57, 90
1, 142814, Note_on_c, 0, 73, 71
1, 142906, Note_on_c, 0, 71, 74
1, 142909, Note_off_c, 0, 73, 53
1, 142927, Note_off_c, 0, 67, 52
1, 142942, Note_off_c, 0, 71, 62
1, 143021, Note_on_c, 0, 69, 85
1, 143130, Note_on_c, 0, 67, 82
1, 143185, Note_off_c, 0, 69, 59
1, 143237, Note_on_c, 0, 66, 85
1, 143247, Note_off_c, 0, 67, 56
1, 143251, Control_c, 0, 64, 21
1, 143266, Control_c, 0, 64, 20
1, 143281, Control_c, 0, 64, 0
1, 143311, Control_c, 0, 64, 23
1, 143325, Control_c, 0, 64, 32
1, 143330, Note_on_c, 0, 55, 68
1, 143335, Note_on_c, 0, 64, 75
1, 143340, Control_c, 0, 64, 33
1, 143345, Note_off_c, 0, 66, 53
1, 143354, Control_c, 0, 64, 29
1, 143364, Note_off_c, 0, 57, 59
1, 143369, Control_c, 0, 64, 18
1, 143384, Control_c, 0, 64, 24
1, 143386, Note_off_c, 0, 64, 65
1, 143397, Note_off_c, 0, 55, 65
1, 143398, Control_c, 0, 64, 37
1, 143413, Control_c, 0, 64, 42
1, 143428, Control_c, 0, 64, 43
1, 143443, Control_c, 0, 64, 40
1, 143444, Note_on_c, 0, 54, 89
1, 143447, Note_on_c, 0, 69, 88
1, 143449, Note_on_c, 0, 62, 84
1, 143458, Control_c, 0, 64, 35
1, 143471, Note_off_c, 0, 62, 70
1, 143473, Control_c, 0, 64, 39
1, 143479, Note_off_c, 0, 69, 67
1, 143482, Note_off_c, 0, 54, 65
1, 143488, Control_c, 0, 64, 46
1, 143503, Control_c, 0, 64, 47
1, 143517, Control_c, 0, 64, 44
1, 143532, Control_c, 0, 64, 35
1, 143547, Control_c, 0, 64, 32
1, 143549, Note_on_c, 0, 52, 93
1, 143562, Control_c, 0, 64, 39
1, 143576, Control_c, 0, 64, 41
1, 143583, Note_off_c, 0, 52, 69
1, 143591, Control_c, 0, 64, 36
1, 143606, Control_c, 0, 64, 20
1, 143621, Control_c, 0, 64, 0
1, 143646, Note_on_c, 0, 66, 85
1, 143652, Note_on_c, 0, 74, 82
1, 143652, Note_on_c, 0, 50, 88
1, 143689, Note_off_c, 0, 50, 67
1, 143754, Note_on_c, 0, 49, 89
1, 143758, Note_off_c, 0, 66, 61
1, 143792, Note_off_c, 0, 49, 65
1, 143872, Note_on_c, 0, 47, 97
1, 143893, Note_off_c, 0, 47, 74
1, 143959, Note_on_c, 0, 66, 83
1, 143968, Note_off_c, 0, 74, 58
1, 144005, Note_off_c, 0, 66, 65
1, 144087, Note_on_c, 0, 64, 82
1, 144088, Note_on_c, 0, 55, 90
1, 144198, Note_on_c, 0, 74, 76
1, 144309, Note_on_c, 0, 73, 80
1, 144340, Control_c, 0, 64, 54
1, 144349, Note_off_c, 0, 74, 60
1, 144350, Note_off_c, 0, 64, 61
1, 144355, Control_c, 0, 64, 63
1, 144370, Control_c, 0, 64, 65
1, 144384, Control_c, 0, 64, 68
1, 144399, Control_c, 0, 64, 71
1, 144411, Note_on_c, 0, 71, 82
1, 144414, Control_c, 0, 64, 75
1, 144429, Control_c, 0, 64, 79
1, 144443, Note_off_c, 0, 73, 56
1, 144444, Control_c, 0, 64, 81
1, 144458, Control_c, 0, 64, 82
1, 144473, Control_c, 0, 64, 84
1, 144488, Control_c, 0, 64, 85
1, 144503, Control_c, 0, 64, 87
1, 144516, Note_on_c, 0, 70, 89
1, 144518, Control_c, 0, 64, 89
1, 144527, Note_off_c, 0, 55, 57
1, 144531, Note_off_c, 0, 71, 57
1, 144532, Control_c, 0, 64, 90
1, 144547, Control_c, 0, 64, 90
1, 144562, Control_c, 0, 64, 91
1, 144577, Control_c, 0, 64, 91
1, 144582, Note_off_c, 0, 70, 61
1, 144614, Control_c, 0, 64, 92
1, 144623, Note_on_c, 0, 64, 82
1, 144671, Note_off_c, 0, 64, 63
1, 144704, Control_c, 0, 64, 91
1, 144719, Control_c, 0, 64, 88
1, 144732, Note_on_c, 0, 62, 84
1, 144734, Control_c, 0, 64, 78
1, 144735, Note_on_c, 0, 71, 86
1, 144740, Note_on_c, 0, 54, 73
1, 144749, Control_c, 0, 64, 66
1, 144755, Note_off_c, 0, 71, 68
1, 144763, Control_c, 0, 64, 0
1, 144775, Note_off_c, 0, 62, 59
1, 144841, Note_on_c, 0, 61, 83
1, 144873, Note_off_c, 0, 61, 65
1, 144941, Note_on_c, 0, 59, 88
1, 144951, Note_on_c, 0, 73, 87
1, 144978, Note_off_c, 0, 73, 69
1, 144983, Note_off_c, 0, 59, 62
1, 145045, Note_on_c, 0, 58, 82
1, 145086, Note_off_c, 0, 58, 63
1, 145148, Note_on_c, 0, 59, 89
1, 145155, Note_on_c, 0, 74, 86
1, 145175, Note_off_c, 0, 54, 61
1, 145195, Note_off_c, 0, 59, 62
1, 145250, Note_on_c, 0, 52, 83
1, 145283, Note_off_c, 0, 52, 71
1, 145369, Note_on_c, 0, 50, 89
1, 145376, Note_on_c, 0, 66, 88
1, 145412, Note_off_c, 0, 50, 63
1, 145413, Note_off_c, 0, 66, 67
1, 145470, Note_on_c, 0, 49, 81
1, 145510, Note_off_c, 0, 49, 64
1, 145575, Note_on_c, 0, 47, 87
1, 145583, Note_on_c, 0, 71, 83
1, 145631, Note_off_c, 0, 47, 63
1, 145673, Note_on_c, 0, 45, 88
1, 145719, Note_off_c, 0, 45, 64
1, 145784, Note_on_c, 0, 43, 97
1, 145828, Note_off_c, 0, 43, 65
1, 145887, Note_on_c, 0, 73, 82
1, 145909, Note_off_c, 0, 74, 61
1, 145911, Note_off_c, 0, 71, 59
1, 145929, Note_off_c, 0, 73, 64
1, 145998, Note_on_c, 0, 59, 81
1, 146004, Note_on_c, 0, 55, 73
1, 146006, Note_on_c, 0, 74, 90
1, 146025, Note_off_c, 0, 59, 66
1, 146039, Note_off_c, 0, 74, 68
1, 146112, Note_on_c, 0, 76, 94
1, 146153, Note_off_c, 0, 76, 67
1, 146219, Note_on_c, 0, 78, 94
1, 146220, Note_on_c, 0, 64, 76
1, 146245, Note_off_c, 0, 64, 67
1, 146269, Note_off_c, 0, 78, 67
1, 146317, Note_on_c, 0, 79, 80
1, 146359, Note_off_c, 0, 79, 62
1, 146446, Note_on_c, 0, 54, 84
1, 146449, Note_on_c, 0, 70, 86
1, 146471, Note_off_c, 0, 55, 60
1, 146513, Note_off_c, 0, 70, 56
1, 146559, Note_on_c, 0, 67, 81
1, 146613, Note_off_c, 0, 67, 64
1, 146670, Note_on_c, 0, 66, 80
1, 146729, Note_off_c, 0, 66, 65
1, 146761, Note_on_c, 0, 64, 78
1, 146802, Note_off_c, 0, 64, 64
1, 146835, Note_off_c, 0, 54, 61
1, 146883, Note_on_c, 0, 62, 82
1, 146929, Note_off_c, 0, 62, 63
1, 146980, Note_on_c, 0, 61, 80
1, 147035, Note_off_c, 0, 61, 64
1, 147092, Note_on_c, 0, 62, 85
1, 147127, Note_off_c, 0, 62, 63
1, 147183, Note_on_c, 0, 47, 75
1, 147219, Note_off_c, 0, 47, 67
1, 147291, Note_on_c, 0, 49, 77
1, 147300, Note_on_c, 0, 59, 81
1, 147330, Note_off_c, 0, 59, 66
1, 147334, Note_off_c, 0, 49, 63
1, 147400, Note_on_c, 0, 50, 82
1, 147438, Note_off_c, 0, 50, 65
1, 147500, Note_on_c, 0, 58, 83
1, 147501, Note_on_c, 0, 52, 85
1, 147534, Note_off_c, 0, 52, 70
1, 147534, Note_off_c, 0, 58, 65
1, 147600, Note_on_c, 0, 54, 89
1, 147651, Note_off_c, 0, 54, 63
1, 147718, Note_on_c, 0, 55, 91
1, 147718, Note_on_c, 0, 59, 89
1, 147751, Note_off_c, 0, 55, 68
1, 147753, Note_off_c, 0, 59, 65
1, 147926, Note_on_c, 0, 61, 79
1, 147931, Note_on_c, 0, 52, 88
1, 147968, Note_off_c, 0, 52, 69
1, 147972, Note_off_c, 0, 61, 62
1, 148028, Note_on_c, 0, 63, 81
1, 148078, Note_off_c, 0, 63, 63
1, 148126, Note_on_c, 0, 64, 83
1, 148138, Note_on_c, 0, 51, 82
1, 148172, Note_off_c, 0, 64, 65
1, 148187, Note_off_c, 0, 51, 59
1, 148218, Note_on_c, 0, 66, 88
1, 148274, Note_off_c, 0, 66, 66
1, 148337, Note_on_c, 0, 67, 95
1, 148338, Note_on_c, 0, 52, 83
1, 148370, Note_off_c, 0, 52, 68
1, 148377, Note_off_c, 0, 67, 66
1, 148549, Note_on_c, 0, 54, 72
1, 148561, Note_on_c, 0, 64, 92
1, 148589, Note_off_c, 0, 64, 67
1, 148592, Note_off_c, 0, 54, 62
1, 148653, Note_on_c, 0, 55, 85
1, 148693, Note_off_c, 0, 55, 67
1, 148754, Note_on_c, 0, 57, 84
1, 148758, Note_on_c, 0, 63, 94
1, 148787, Note_off_c, 0, 63, 67
1, 148797, Note_off_c, 0, 57, 64
1, 148854, Note_on_c, 0, 59, 90
1, 148891, Note_off_c, 0, 59, 67
1, 148961, Note_on_c, 0, 64, 93
1, 148964, Note_on_c, 0, 60, 94
1, 148992, Note_off_c, 0, 60, 63
1, 148997, Note_off_c, 0, 64, 65
1, 149067, Note_on_c, 0, 79, 76
1, 149116, Note_off_c, 0, 79, 63
1, 149185, Note_on_c, 0, 48, 90
1, 149189, Note_on_c, 0, 69, 84
1, 149218, Note_off_c, 0, 48, 71
1, 149232, Note_off_c, 0, 69, 65
1, 149294, Note_on_c, 0, 79, 73
1, 149358, Note_off_c, 0, 79, 61
1, 149388, Control_c, 0, 64, 17
1, 149396, Note_on_c, 0, 64, 78
1, 149398, Note_on_c, 0, 60, 79
1, 149399, Note_on_c, 0, 69, 77
1, 149403, Control_c, 0, 64, 15
1, 149418, Control_c, 0, 64, 0
1, 149420, Note_off_c, 0, 60, 69
1, 149426, Note_off_c, 0, 64, 67
1, 149458, Note_off_c, 0, 69, 54
1, 149462, Control_c, 0, 64, 13
1, 149478, Control_c, 0, 64, 18
1, 149493, Control_c, 0, 64, 13
1, 149500, Note_on_c, 0, 78, 74
1, 149508, Control_c, 0, 64, 0
1, 149552, Control_c, 0, 64, 10
1, 149567, Control_c, 0, 64, 13
1, 149582, Control_c, 0, 64, 0
1, 149592, Note_off_c, 0, 78, 60
1, 149607, Note_on_c, 0, 63, 82
1, 149608, Note_on_c, 0, 59, 82
1, 149609, Note_on_c, 0, 67, 87
1, 149628, Note_off_c, 0, 63, 71
1, 149641, Note_off_c, 0, 59, 64
1, 149641, Control_c, 0, 64, 23
1, 149656, Control_c, 0, 64, 18
1, 149657, Note_off_c, 0, 67, 61
1, 149671, Control_c, 0, 64, 0
1, 149705, Note_on_c, 0, 78, 74
1, 149715, Control_c, 0, 64, 20
1, 149730, Control_c, 0, 64, 21
1, 149745, Control_c, 0, 64, 0
1, 149798, Note_off_c, 0, 78, 57
1, 149804, Control_c, 0, 64, 20
1, 149819, Control_c, 0, 64, 17
1, 149822, Note_on_c, 0, 47, 82
1, 149825, Note_on_c, 0, 67, 80
1, 149834, Control_c, 0, 64, 0
1, 149855, Note_off_c, 0, 47, 69
1, 149882, Note_off_c, 0, 67, 61
1, 149938, Note_on_c, 0, 78, 71
1, 149974, Control_c, 0, 64, 17
1, 149989, Control_c, 0, 64, 15
1, 150004, Control_c, 0, 64, 0
1, 150031, Note_off_c, 0, 78, 59
1, 150039, Note_on_c, 0, 64, 74
1, 150043, Note_on_c, 0, 59, 75
1, 150046, Note_on_c, 0, 67, 82
1, 150049, Control_c, 0, 64, 17
1, 150064, Control_c, 0, 64, 18
1, 150064, Note_off_c, 0, 64, 68
1, 150075, Note_off_c, 0, 59, 65
1, 150078, Control_c, 0, 64, 10
1, 150093, Control_c, 0, 64, 0
1, 150096, Note_off_c, 0, 67, 61
1, 150123, Control_c, 0, 64, 13
1, 150138, Control_c, 0, 64, 26
1, 150152, Note_on_c, 0, 76, 73
1, 150153, Control_c, 0, 64, 27
1, 150168, Control_c, 0, 64, 20
1, 150183, Control_c, 0, 64, 0
1, 150198, Control_c, 0, 64, 25
1, 150212, Control_c, 0, 64, 37
1, 150227, Control_c, 0, 64, 43
1, 150233, Note_off_c, 0, 76, 57
1, 150242, Control_c, 0, 64, 41
1, 150254, Note_on_c, 0, 66, 84
1, 150257, Control_c, 0, 64, 31
1, 150263, Note_on_c, 0, 57, 79
1, 150272, Control_c, 0, 64, 26
1, 150287, Control_c, 0, 64, 35
1, 150290, Note_off_c, 0, 57, 67
1, 150302, Control_c, 0, 64, 39
1, 150317, Control_c, 0, 64, 38
1, 150332, Control_c, 0, 64, 28
1, 150347, Control_c, 0, 64, 0
1, 150368, Note_on_c, 0, 76, 71
1, 150376, Control_c, 0, 64, 36
1, 150391, Control_c, 0, 64, 42
1, 150406, Control_c, 0, 64, 38
1, 150418, Note_off_c, 0, 76, 60
1, 150421, Control_c, 0, 64, 27
1, 150435, Control_c, 0, 64, 17
1, 150441, Note_off_c, 0, 66, 0
1, 150450, Control_c, 0, 64, 34
1, 150455, Note_on_c, 0, 59, 72
1, 150460, Note_on_c, 0, 66, 39
1, 150465, Control_c, 0, 64, 46
1, 150469, Note_on_c, 0, 75, 73
1, 150480, Control_c, 0, 64, 45
1, 150495, Control_c, 0, 64, 36
1, 150496, Note_off_c, 0, 59, 61
1, 150509, Control_c, 0, 64, 13
1, 150511, Note_off_c, 0, 66, 58
1, 150524, Control_c, 0, 64, 25
1, 150531, Note_off_c, 0, 75, 61
1, 150539, Control_c, 0, 64, 43
1, 150553, Control_c, 0, 64, 46
1, 150558, Note_on_c, 0, 57, 69
1, 150568, Control_c, 0, 64, 43
1, 150570, Note_on_c, 0, 78, 76
1, 150583, Control_c, 0, 64, 36
1, 150584, Note_on_c, 0, 66, 23
1, 150590, Note_off_c, 0, 57, 64
1, 150598, Control_c, 0, 64, 27
1, 150615, Note_off_c, 0, 66, 50
1, 150621, Control_c, 0, 64, 30
1, 150635, Control_c, 0, 64, 34
1, 150649, Note_off_c, 0, 78, 58
1, 150650, Control_c, 0, 64, 32
1, 150665, Control_c, 0, 64, 15
1, 150672, Note_on_c, 0, 55, 74
1, 150680, Control_c, 0, 64, 0
1, 150693, Note_on_c, 0, 71, 68
1, 150709, Control_c, 0, 64, 21
1, 150716, Note_off_c, 0, 55, 63
1, 150717, Note_off_c, 0, 71, 67
1, 150724, Control_c, 0, 64, 26
1, 150739, Control_c, 0, 64, 13
1, 150753, Control_c, 0, 64, 0
1, 150778, Note_on_c, 0, 54, 51
1, 150791, Note_on_c, 0, 75, 63
1, 150798, Control_c, 0, 64, 10
1, 150815, Note_off_c, 0, 54, 62
1, 150823, Note_off_c, 0, 75, 66
1, 150827, Control_c, 0, 64, 0
1, 150875, Note_on_c, 0, 59, 68
1, 150876, Note_on_c, 0, 55, 72
1, 150887, Control_c, 0, 64, 20
1, 150891, Note_on_c, 0, 76, 78
1, 150901, Control_c, 0, 64, 13
1, 150903, Note_off_c, 0, 59, 64
1, 150904, Note_off_c, 0, 55, 67
1, 150916, Control_c, 0, 64, 0
1, 150928, Note_off_c, 0, 76, 67
1, 150961, Control_c, 0, 64, 18
1, 150976, Control_c, 0, 64, 21
1, 150982, Note_on_c, 0, 75, 81
1, 150991, Control_c, 0, 64, 0
1, 151025, Note_off_c, 0, 75, 62
1, 151035, Control_c, 0, 64, 21
1, 151050, Control_c, 0, 64, 37
1, 151065, Control_c, 0, 64, 39
1, 151080, Control_c, 0, 64, 31
1, 151085, Note_on_c, 0, 43, 82
1, 151094, Note_on_c, 0, 76, 83
1, 151095, Control_c, 0, 64, 0
1, 151115, Note_off_c, 0, 43, 67
1, 151125, Control_c, 0, 64, 34
1, 151137, Note_off_c, 0, 76, 66
1, 151140, Control_c, 0, 64, 45
1, 151155, Control_c, 0, 64, 44
1, 151170, Control_c, 0, 64, 37
1, 151184, Control_c, 0, 64, 21
1, 151184, Note_on_c, 0, 79, 80
1, 151199, Control_c, 0, 64, 23
1, 151214, Control_c, 0, 64, 32
1, 151225, Note_off_c, 0, 79, 64
1, 151244, Control_c, 0, 64, 0
1, 151293, Note_on_c, 0, 64, 76
1, 151296, Note_on_c, 0, 55, 71
1, 151301, Note_on_c, 0, 83, 81
1, 151363, Note_off_c, 0, 83, 58
1, 151384, Control_c, 0, 64, 51
1, 151399, Control_c, 0, 64, 60
1, 151412, Note_on_c, 0, 74, 75
1, 151414, Control_c, 0, 64, 62
1, 151429, Control_c, 0, 64, 64
1, 151444, Control_c, 0, 64, 66
1, 151456, Note_off_c, 0, 74, 65
1, 151458, Control_c, 0, 64, 68
1, 151473, Control_c, 0, 64, 71
1, 151488, Control_c, 0, 64, 74
1, 151503, Control_c, 0, 64, 77
1, 151518, Control_c, 0, 64, 78
1, 151525, Note_on_c, 0, 69, 79
1, 151525, Note_on_c, 0, 73, 78
1, 151532, Control_c, 0, 64, 79
1, 151547, Control_c, 0, 64, 80
1, 151551, Note_off_c, 0, 69, 66
1, 151561, Note_off_c, 0, 64, 58
1, 151562, Control_c, 0, 64, 81
1, 151583, Note_off_c, 0, 73, 61
1, 151620, Control_c, 0, 64, 82
1, 151625, Note_on_c, 0, 71, 77
1, 151626, Note_off_c, 0, 55, 63
1, 151650, Control_c, 0, 64, 82
1, 151673, Note_off_c, 0, 71, 59
1, 151731, Note_on_c, 0, 57, 75
1, 151733, Note_on_c, 0, 73, 79
1, 151739, Control_c, 0, 64, 82
1, 151754, Control_c, 0, 64, 79
1, 151766, Note_off_c, 0, 57, 61
1, 151769, Control_c, 0, 64, 73
1, 151783, Control_c, 0, 64, 64
1, 151790, Note_off_c, 0, 73, 62
1, 151798, Control_c, 0, 64, 0
1, 151819, Note_on_c, 0, 55, 77
1, 151835, Note_on_c, 0, 76, 78
1, 151860, Note_off_c, 0, 55, 64
1, 151877, Note_off_c, 0, 76, 67
1, 151930, Note_on_c, 0, 54, 81
1, 151939, Note_on_c, 0, 69, 88
1, 151971, Note_off_c, 0, 54, 60
1, 151974, Note_off_c, 0, 69, 66
1, 152034, Note_on_c, 0, 73, 84
1, 152034, Note_on_c, 0, 52, 82
1, 152065, Note_off_c, 0, 52, 68
1, 152076, Note_off_c, 0, 73, 62
1, 152152, Note_on_c, 0, 74, 88
1, 152155, Note_on_c, 0, 57, 81
1, 152158, Note_on_c, 0, 54, 83
1, 152180, Note_off_c, 0, 57, 67
1, 152188, Note_off_c, 0, 54, 64
1, 152189, Note_off_c, 0, 74, 66
1, 152257, Note_on_c, 0, 73, 87
1, 152291, Note_off_c, 0, 73, 64
1, 152365, Note_on_c, 0, 42, 93
1, 152368, Note_on_c, 0, 74, 92
1, 152392, Note_off_c, 0, 42, 69
1, 152409, Note_off_c, 0, 74, 67
1, 152469, Note_on_c, 0, 78, 92
1, 152517, Note_off_c, 0, 78, 62
1, 152580, Note_on_c, 0, 62, 86
1, 152581, Note_on_c, 0, 81, 85
1, 152585, Note_on_c, 0, 54, 82
1, 152623, Note_off_c, 0, 81, 61
1, 152687, Note_on_c, 0, 73, 86
1, 152732, Note_off_c, 0, 73, 62
1, 152796, Note_on_c, 0, 67, 89
1, 152801, Note_on_c, 0, 71, 85
1, 152868, Note_off_c, 0, 71, 49
1, 152916, Note_on_c, 0, 70, 82
1, 152940, Control_c, 0, 64, 27
1, 152955, Note_off_c, 0, 54, 57
1, 152955, Control_c, 0, 64, 20
1, 152969, Note_off_c, 0, 70, 61
1, 152970, Control_c, 0, 64, 0
1, 153015, Control_c, 0, 64, 18
1, 153028, Note_on_c, 0, 71, 81
1, 153029, Control_c, 0, 64, 23
1, 153031, Note_on_c, 0, 52, 73
1, 153044, Control_c, 0, 64, 0
1, 153070, Note_off_c, 0, 71, 58
1, 153072, Note_off_c, 0, 52, 68
1, 153143, Note_on_c, 0, 74, 63
1, 153167, Note_off_c, 0, 74, 69
1, 153246, Note_on_c, 0, 50, 68
1, 153246, Note_on_c, 0, 73, 77
1, 153263, Note_off_c, 0, 62, 56
1, 153287, Note_off_c, 0, 67, 59
1, 153289, Note_off_c, 0, 73, 63
1, 153306, Note_off_c, 0, 50, 49
1, 153348, Note_on_c, 0, 71, 78
1, 153392, Note_off_c, 0, 71, 60
1, 153460, Note_on_c, 0, 49, 68
1, 153460, Note_on_c, 0, 70, 82
1, 153504, Note_off_c, 0, 70, 62
1, 153507, Note_off_c, 0, 49, 61
1, 153565, Note_on_c, 0, 71, 78
1, 153569, Note_on_c, 0, 50, 67
1, 153618, Note_off_c, 0, 71, 61
1, 153623, Note_off_c, 0, 50, 63
1, 153674, Note_on_c, 0, 73, 83
1, 153679, Note_on_c, 0, 52, 75
1, 153718, Note_off_c, 0, 52, 66
1, 153728, Note_off_c, 0, 73, 63
1, 153772, Note_on_c, 0, 54, 75
1, 153776, Note_on_c, 0, 74, 80
1, 153815, Note_off_c, 0, 54, 63
1, 153826, Note_off_c, 0, 74, 64
1, 153881, Note_on_c, 0, 55, 74
1, 153889, Note_on_c, 0, 76, 80
1, 153924, Note_off_c, 0, 55, 65
1, 153981, Note_on_c, 0, 67, 84
1, 153984, Note_on_c, 0, 47, 78
1, 154020, Note_off_c, 0, 67, 64
1, 154022, Note_off_c, 0, 47, 64
1, 154099, Note_on_c, 0, 46, 85
1, 154102, Note_on_c, 0, 66, 92
1, 154119, Control_c, 0, 64, 15
1, 154134, Note_off_c, 0, 66, 65
1, 154134, Control_c, 0, 64, 0
1, 154159, Note_off_c, 0, 46, 63
1, 154202, Note_on_c, 0, 55, 79
1, 154246, Note_off_c, 0, 55, 63
1, 154303, Note_off_c, 0, 76, 62
1, 154308, Note_on_c, 0, 70, 79
1, 154309, Note_on_c, 0, 54, 83
1, 154313, Note_on_c, 0, 73, 82
1, 154359, Note_off_c, 0, 54, 61
1, 154369, Note_off_c, 0, 73, 61
1, 154422, Note_on_c, 0, 52, 83
1, 154458, Note_off_c, 0, 52, 68
1, 154528, Note_off_c, 0, 70, 60
1, 154529, Note_on_c, 0, 50, 86
1, 154541, Note_on_c, 0, 78, 91
1, 154565, Note_off_c, 0, 50, 66
1, 154641, Note_on_c, 0, 49, 84
1, 154687, Note_off_c, 0, 49, 62
1, 154741, Note_off_c, 0, 78, 56
1, 154746, Note_on_c, 0, 47, 85
1, 154756, Note_on_c, 0, 71, 91
1, 154756, Note_on_c, 0, 74, 87
1, 154777, Note_off_c, 0, 71, 65
1, 154785, Note_off_c, 0, 74, 68
1, 154796, Note_off_c, 0, 47, 63
1, 154860, Note_on_c, 0, 49, 81
1, 154914, Note_off_c, 0, 49, 60
1, 154967, Note_on_c, 0, 50, 80
1, 154973, Note_on_c, 0, 71, 93
1, 155000, Note_off_c, 0, 50, 63
1, 155002, Note_off_c, 0, 71, 62
1, 155065, Note_on_c, 0, 52, 78
1, 155115, Note_off_c, 0, 52, 66
1, 155128, Control_c, 0, 64, 10
1, 155143, Control_c, 0, 64, 0
1, 155173, Note_on_c, 0, 54, 78
1, 155188, Note_on_c, 0, 70, 92
1, 155203, Control_c, 0, 64, 15
1, 155218, Note_off_c, 0, 70, 65
1, 155218, Control_c, 0, 64, 21
1, 155221, Note_off_c, 0, 54, 60
1, 155232, Control_c, 0, 64, 0
1, 155288, Note_on_c, 0, 52, 82
1, 155340, Note_off_c, 0, 52, 64
1, 155387, Note_on_c, 0, 50, 78
1, 155404, Note_on_c, 0, 71, 84
1, 155433, Note_off_c, 0, 50, 61
1, 155434, Note_off_c, 0, 71, 61
1, 155495, Note_on_c, 0, 54, 77
1, 155533, Note_off_c, 0, 54, 63
1, 155601, Note_on_c, 0, 73, 85
1, 155602, Note_on_c, 0, 52, 81
1, 155631, Note_off_c, 0, 73, 62
1, 155636, Note_off_c, 0, 52, 66
1, 155698, Note_on_c, 0, 50, 70
1, 155703, Note_on_c, 0, 74, 82
1, 155738, Note_off_c, 0, 74, 67
1, 155745, Note_off_c, 0, 50, 62
1, 155807, Note_on_c, 0, 49, 74
1, 155808, Note_on_c, 0, 76, 87
1, 155854, Note_off_c, 0, 76, 66
1, 155869, Note_off_c, 0, 49, 59
1, 155911, Note_on_c, 0, 78, 90
1, 155915, Note_on_c, 0, 47, 73
1, 155947, Note_off_c, 0, 47, 67
1, 155956, Note_off_c, 0, 78, 67
1, 156022, Note_on_c, 0, 52, 88
1, 156025, Note_on_c, 0, 79, 92
1, 156046, Note_off_c, 0, 52, 69
1, 156066, Note_off_c, 0, 79, 65
1, 156127, Note_on_c, 0, 74, 77
1, 156142, Control_c, 0, 64, 10
1, 156156, Note_off_c, 0, 74, 63
1, 156157, Control_c, 0, 64, 0
1, 156231, Control_c, 0, 64, 10
1, 156243, Note_on_c, 0, 67, 84
1, 156246, Note_on_c, 0, 64, 70
1, 156246, Control_c, 0, 64, 0
1, 156274, Note_off_c, 0, 64, 67
1, 156282, Note_off_c, 0, 67, 64
1, 156306, Control_c, 0, 64, 24
1, 156321, Control_c, 0, 64, 15
1, 156335, Control_c, 0, 64, 0
1, 156341, Note_on_c, 0, 74, 78
1, 156377, Note_off_c, 0, 74, 66
1, 156449, Note_on_c, 0, 79, 86
1, 156450, Note_on_c, 0, 64, 77
1, 156454, Note_on_c, 0, 57, 72
1, 156469, Control_c, 0, 64, 32
1, 156474, Note_off_c, 0, 64, 69
1, 156479, Note_off_c, 0, 57, 64
1, 156484, Control_c, 0, 64, 34
1, 156496, Note_off_c, 0, 79, 61
1, 156498, Control_c, 0, 64, 21
1, 156513, Control_c, 0, 64, 0
1, 156558, Control_c, 0, 64, 13
1, 156562, Note_on_c, 0, 73, 73
1, 156595, Control_c, 0, 64, 0
1, 156601, Note_off_c, 0, 73, 61
1, 156640, Control_c, 0, 64, 15
1, 156654, Control_c, 0, 64, 32
1, 156669, Control_c, 0, 64, 29
1, 156678, Note_on_c, 0, 78, 86
1, 156683, Note_on_c, 0, 62, 78
1, 156684, Note_on_c, 0, 50, 73
1, 156684, Control_c, 0, 64, 0
1, 156712, Note_off_c, 0, 62, 63
1, 156715, Note_off_c, 0, 50, 66
1, 156729, Control_c, 0, 64, 21
1, 156733, Note_off_c, 0, 78, 63
1, 156744, Control_c, 0, 64, 23
1, 156759, Control_c, 0, 64, 0
1, 156785, Note_on_c, 0, 73, 79
1, 156826, Note_off_c, 0, 73, 62
1, 156893, Control_c, 0, 64, 24
1, 156900, Note_on_c, 0, 66, 87
1, 156905, Note_on_c, 0, 62, 73
1, 156908, Control_c, 0, 64, 23
1, 156923, Control_c, 0, 64, 0
1, 156930, Note_off_c, 0, 66, 67
1, 156940, Note_off_c, 0, 62, 61
1, 156995, Note_on_c, 0, 73, 78
1, 157044, Note_off_c, 0, 73, 64
1, 157103, Note_on_c, 0, 78, 83
1, 157109, Note_on_c, 0, 62, 72
1, 157119, Note_on_c, 0, 55, 58
1, 157138, Note_off_c, 0, 62, 64
1, 157146, Note_off_c, 0, 55, 65
1, 157164, Note_off_c, 0, 78, 63
1, 157209, Note_on_c, 0, 71, 82
1, 157242, Note_off_c, 0, 71, 62
1, 157313, Note_on_c, 0, 61, 69
1, 157316, Note_on_c, 0, 49, 67
1, 157319, Note_on_c, 0, 76, 83
1, 157352, Note_off_c, 0, 61, 63
1, 157359, Note_off_c, 0, 49, 63
1, 157367, Note_off_c, 0, 76, 68
1, 157436, Note_on_c, 0, 59, 75
1, 157460, Note_off_c, 0, 59, 66
1, 157539, Note_on_c, 0, 78, 75
1, 157543, Note_on_c, 0, 73, 73
1, 157553, Note_on_c, 0, 58, 77
1, 157569, Note_off_c, 0, 73, 67
1, 157587, Note_off_c, 0, 58, 62
1, 157649, Note_on_c, 0, 61, 70
1, 157651, Note_on_c, 0, 76, 69
1, 157680, Note_off_c, 0, 61, 62
1, 157707, Note_off_c, 0, 76, 64
1, 157719, Note_off_c, 0, 78, 47
1, 157755, Note_on_c, 0, 74, 77
1, 157760, Note_on_c, 0, 54, 63
1, 157793, Note_off_c, 0, 54, 62
1, 157793, Note_off_c, 0, 74, 61
1, 157852, Note_on_c, 0, 73, 81
1, 157854, Note_on_c, 0, 58, 64
1, 157883, Note_off_c, 0, 58, 67
1, 157883, Note_off_c, 0, 73, 66
1, 157962, Note_on_c, 0, 47, 77
1, 157969, Note_on_c, 0, 74, 76
1, 157989, Note_off_c, 0, 74, 71
1, 157993, Note_off_c, 0, 47, 67
1, 158064, Note_on_c, 0, 59, 58
1, 158106, Note_off_c, 0, 59, 59
1, 158181, Note_on_c, 0, 49, 66
1, 158184, Note_on_c, 0, 76, 77
1, 158185, Note_on_c, 0, 71, 71
1, 158205, Note_off_c, 0, 76, 70
1, 158209, Note_off_c, 0, 71, 68
1, 158225, Note_off_c, 0, 49, 63
1, 158281, Note_on_c, 0, 59, 61
1, 158319, Note_off_c, 0, 59, 58
1, 158397, Note_on_c, 0, 50, 66
1, 158400, Note_on_c, 0, 78, 78
1, 158406, Note_on_c, 0, 69, 75
1, 158431, Note_off_c, 0, 69, 68
1, 158446, Note_off_c, 0, 50, 59
1, 158503, Note_on_c, 0, 59, 57
1, 158543, Note_off_c, 0, 59, 58
1, 158611, Note_on_c, 0, 52, 70
1, 158613, Note_on_c, 0, 67, 83
1, 158646, Note_off_c, 0, 67, 65
1, 158654, Note_off_c, 0, 52, 65
1, 158720, Note_on_c, 0, 59, 58
1, 158731, Control_c, 0, 64, 25
1, 158746, Control_c, 0, 64, 24
1, 158760, Control_c, 0, 64, 0
1, 158805, Control_c, 0, 64, 24
1, 158808, Note_off_c, 0, 59, 37
1, 158820, Control_c, 0, 64, 28
1, 158827, Note_on_c, 0, 54, 68
1, 158828, Note_on_c, 0, 69, 73
1, 158832, Note_on_c, 0, 76, 70
1, 158842, Control_c, 0, 64, 18
1, 158855, Note_off_c, 0, 78, 63
1, 158857, Control_c, 0, 64, 0
1, 158857, Note_off_c, 0, 69, 71
1, 158862, Note_off_c, 0, 76, 70
1, 158881, Note_off_c, 0, 54, 61
1, 158887, Control_c, 0, 64, 15
1, 158901, Control_c, 0, 64, 24
1, 158916, Control_c, 0, 64, 20
1, 158931, Control_c, 0, 64, 0
1, 158953, Note_on_c, 0, 59, 52
1, 158990, Control_c, 0, 64, 10
1, 159005, Control_c, 0, 64, 0
1, 159018, Note_off_c, 0, 59, 49
1, 159042, Note_on_c, 0, 55, 62
1, 159045, Note_on_c, 0, 71, 66
1, 159045, Note_on_c, 0, 74, 68
1, 159072, Note_off_c, 0, 74, 67
1, 159076, Note_off_c, 0, 55, 64
1, 159140, Note_on_c, 0, 59, 60
1, 159182, Note_off_c, 0, 59, 59
1, 159257, Note_on_c, 0, 73, 70
1, 159263, Note_on_c, 0, 45, 64
1, 159282, Note_off_c, 0, 73, 68
1, 159304, Note_off_c, 0, 45, 64
1, 159366, Note_on_c, 0, 57, 57
1, 159408, Note_off_c, 0, 57, 56
1, 159462, Note_off_c, 0, 71, 54
1, 159472, Note_on_c, 0, 47, 64
1, 159477, Note_on_c, 0, 74, 69
1, 159479, Note_on_c, 0, 69, 73
1, 159501, Note_off_c, 0, 74, 69
1, 159504, Note_off_c, 0, 69, 68
1, 159515, Note_off_c, 0, 47, 65
1, 159576, Note_on_c, 0, 57, 58
1, 159656, Note_off_c, 0, 57, 49
1, 159692, Note_on_c, 0, 49, 62
1, 159701, Note_on_c, 0, 76, 72
1, 159702, Note_on_c, 0, 67, 66
1, 159728, Note_off_c, 0, 67, 67
1, 159757, Note_off_c, 0, 49, 58
1, 159798, Note_on_c, 0, 57, 58
1, 159850, Note_off_c, 0, 57, 56
1, 159915, Note_on_c, 0, 66, 80
1, 159916, Note_on_c, 0, 50, 67
1, 159934, Note_off_c, 0, 76, 45
1, 159945, Note_off_c, 0, 66, 65
1, 159969, Note_off_c, 0, 50, 62
1, 160023, Note_on_c, 0, 57, 57
1, 160074, Note_off_c, 0, 57, 52
1, 160123, Note_on_c, 0, 52, 65
1, 160124, Note_on_c, 0, 67, 76
1, 160126, Note_on_c, 0, 74, 68
1, 160146, Note_off_c, 0, 67, 68
1, 160154, Note_off_c, 0, 74, 64
1, 160168, Note_off_c, 0, 52, 65
1, 160229, Note_on_c, 0, 57, 60
1, 160289, Note_off_c, 0, 57, 51
1, 160341, Note_on_c, 0, 69, 72
1, 160345, Note_on_c, 0, 73, 68
1, 160348, Note_on_c, 0, 54, 63
1, 160385, Note_off_c, 0, 73, 65
1, 160400, Note_off_c, 0, 54, 59
1, 160444, Note_on_c, 0, 57, 61
1, 160503, Note_off_c, 0, 57, 59
1, 160552, Note_on_c, 0, 71, 67
1, 160557, Note_on_c, 0, 55, 70
1, 160610, Note_off_c, 0, 55, 61
1, 160660, Note_on_c, 0, 59, 65
1, 160700, Note_off_c, 0, 59, 61
1, 160765, Note_on_c, 0, 57, 67
1, 160768, Note_on_c, 0, 62, 69
1, 160799, Note_off_c, 0, 62, 63
1, 160807, Note_off_c, 0, 57, 58
1, 160863, Note_on_c, 0, 55, 69
1, 160889, Note_off_c, 0, 69, 0
1, 160920, Note_off_c, 0, 55, 62
1, 160926, Poly_aftertouch_c, 0, 69, 127
1, 160971, Note_on_c, 0, 73, 66
1, 160976, Note_on_c, 0, 67, 62
1, 160979, Poly_aftertouch_c, 0, 69, 0
1, 160980, Note_on_c, 0, 54, 65
1, 160997, Note_off_c, 0, 71, 48
1, 161007, Note_off_c, 0, 73, 64
1, 161016, Note_off_c, 0, 54, 63
1, 161093, Note_on_c, 0, 52, 69
1, 161140, Note_off_c, 0, 52, 62
1, 161200, Note_on_c, 0, 74, 69
1, 161207, Note_on_c, 0, 54, 70
1, 161221, Note_off_c, 0, 67, 58
1, 161253, Note_off_c, 0, 54, 61
1, 161308, Note_on_c, 0, 57, 68
1, 161348, Note_off_c, 0, 57, 60
1, 161422, Note_on_c, 0, 62, 68
1, 161422, Note_on_c, 0, 69, 74
1, 161424, Note_on_c, 0, 66, 76
1, 161430, Control_c, 0, 64, 10
1, 161445, Control_c, 0, 64, 17
1, 161448, Note_off_c, 0, 66, 69
1, 161450, Note_off_c, 0, 74, 60
1, 161457, Note_off_c, 0, 69, 67
1, 161460, Control_c, 0, 64, 0
1, 161463, Note_off_c, 0, 62, 60
1, 161520, Control_c, 0, 64, 17
1, 161521, Note_on_c, 0, 57, 65
1, 161534, Control_c, 0, 64, 0
1, 161558, Note_off_c, 0, 57, 62
1, 161609, Control_c, 0, 64, 10
1, 161624, Control_c, 0, 64, 0
1, 161630, Note_on_c, 0, 71, 75
1, 161634, Note_on_c, 0, 56, 70
1, 161635, Note_on_c, 0, 65, 71
1, 161671, Note_off_c, 0, 71, 55
1, 161680, Note_off_c, 0, 56, 58
1, 161683, Control_c, 0, 64, 10
1, 161712, Control_c, 0, 64, 0
1, 161737, Note_on_c, 0, 62, 70
1, 161757, Control_c, 0, 64, 10
1, 161772, Control_c, 0, 64, 25
1, 161784, Note_off_c, 0, 62, 56
1, 161786, Control_c, 0, 64, 13
1, 161801, Control_c, 0, 64, 0
1, 161843, Note_on_c, 0, 57, 76
1, 161848, Note_on_c, 0, 72, 82
1, 161853, Control_c, 0, 64, 23
1, 161868, Control_c, 0, 64, 21
1, 161877, Note_off_c, 0, 72, 67
1, 161879, Note_off_c, 0, 65, 64
1, 161883, Control_c, 0, 64, 0
1, 161898, Note_off_c, 0, 57, 60
1, 161946, Note_on_c, 0, 60, 74
1, 161986, Note_off_c, 0, 60, 59
1, 162049, Note_on_c, 0, 59, 69
1, 162058, Note_on_c, 0, 73, 75
1, 162060, Note_on_c, 0, 64, 72
1, 162086, Note_off_c, 0, 64, 68
1, 162098, Note_off_c, 0, 73, 64
1, 162101, Note_off_c, 0, 59, 61
1, 162145, Note_on_c, 0, 57, 76
1, 162211, Note_off_c, 0, 57, 61
1, 162254, Note_on_c, 0, 69, 59
1, 162256, Note_on_c, 0, 55, 70
1, 162268, Note_on_c, 0, 75, 73
1, 162300, Note_off_c, 0, 75, 68
1, 162305, Note_off_c, 0, 55, 61
1, 162363, Note_on_c, 0, 54, 74
1, 162420, Note_off_c, 0, 54, 60
1, 162473, Note_off_c, 0, 69, 65
1, 162479, Note_on_c, 0, 55, 76
1, 162483, Note_on_c, 0, 76, 81
1, 162525, Note_off_c, 0, 55, 65
1, 162579, Note_on_c, 0, 59, 82
1, 162622, Note_off_c, 0, 59, 63
1, 162697, Note_on_c, 0, 64, 75
1, 162702, Note_on_c, 0, 68, 82
1, 162702, Note_on_c, 0, 71, 79
1, 162725, Note_off_c, 0, 68, 68
1, 162730, Note_off_c, 0, 76, 64
1, 162735, Note_off_c, 0, 71, 63
1, 162753, Note_off_c, 0, 64, 64
1, 162795, Note_on_c, 0, 59, 75
1, 162849, Note_off_c, 0, 59, 62
1, 162902, Note_on_c, 0, 67, 82
1, 162905, Note_on_c, 0, 58, 80
1, 162905, Note_on_c, 0, 73, 81
1, 162952, Note_off_c, 0, 73, 62
1, 162956, Control_c, 0, 64, 17
1, 162962, Note_off_c, 0, 58, 64
1, 162971, Control_c, 0, 64, 10
1, 162986, Control_c, 0, 64, 0
1, 163009, Note_on_c, 0, 64, 80
1, 163031, Control_c, 0, 64, 18
1, 163045, Control_c, 0, 64, 21
1, 163061, Control_c, 0, 64, 0
1, 163072, Note_off_c, 0, 64, 62
1, 163108, Note_on_c, 0, 59, 86
1, 163120, Control_c, 0, 64, 23
1, 163127, Note_on_c, 0, 74, 80
1, 163150, Control_c, 0, 64, 0
1, 163160, Note_off_c, 0, 59, 63
1, 163162, Note_off_c, 0, 67, 63
1, 163172, Note_off_c, 0, 74, 63
1, 163209, Control_c, 0, 64, 20
1, 163213, Note_on_c, 0, 62, 84
1, 163224, Control_c, 0, 64, 18
1, 163239, Control_c, 0, 64, 0
1, 163276, Note_off_c, 0, 62, 60
1, 163284, Control_c, 0, 64, 17
1, 163299, Control_c, 0, 64, 24
1, 163313, Control_c, 0, 64, 17
1, 163320, Note_on_c, 0, 61, 88
1, 163326, Note_on_c, 0, 66, 89
1, 163335, Control_c, 0, 64, 0
1, 163337, Note_on_c, 0, 75, 81
1, 163362, Note_off_c, 0, 66, 69
1, 163364, Note_off_c, 0, 75, 62
1, 163374, Note_off_c, 0, 61, 65
1, 163379, Control_c, 0, 64, 20
1, 163409, Control_c, 0, 64, 0
1, 163430, Note_on_c, 0, 59, 87
1, 163481, Note_off_c, 0, 59, 64
1, 163534, Note_on_c, 0, 58, 92
1, 163534, Note_on_c, 0, 77, 79
1, 163537, Note_on_c, 0, 71, 78
1, 163557, Control_c, 0, 64, 18
1, 163573, Control_c, 0, 64, 0
1, 163588, Note_off_c, 0, 58, 66
1, 163590, Note_off_c, 0, 77, 62
1, 163633, Control_c, 0, 64, 18
1, 163640, Note_on_c, 0, 56, 88
1, 163647, Control_c, 0, 64, 30
1, 163662, Control_c, 0, 64, 23
1, 163677, Control_c, 0, 64, 0
1, 163694, Note_off_c, 0, 56, 65
1, 163721, Control_c, 0, 64, 33
1, 163736, Control_c, 0, 64, 37
1, 163739, Note_off_c, 0, 71, 53
1, 163747, Note_on_c, 0, 78, 86
1, 163748, Note_on_c, 0, 54, 85
1, 163751, Control_c, 0, 64, 27
1, 163765, Control_c, 0, 64, 0
1, 163806, Note_off_c, 0, 54, 60
1, 163810, Control_c, 0, 64, 27
1, 163825, Control_c, 0, 64, 24
1, 163839, Control_c, 0, 64, 0
1, 163853, Note_on_c, 0, 55, 93
1, 163893, Note_off_c, 0, 55, 66
1, 163900, Control_c, 0, 64, 18
1, 163915, Control_c, 0, 64, 0
1, 163962, Note_on_c, 0, 70, 84
1, 163966, Note_on_c, 0, 54, 90
1, 163980, Note_off_c, 0, 78, 63
1, 163999, Note_off_c, 0, 70, 65
1, 164014, Note_off_c, 0, 54, 64
1, 164069, Note_on_c, 0, 52, 90
1, 164122, Note_off_c, 0, 52, 64
1, 164180, Note_on_c, 0, 50, 95
1, 164187, Note_on_c, 0, 66, 90
1, 164226, Note_off_c, 0, 50, 62
1, 164285, Note_on_c, 0, 49, 90
1, 164337, Note_off_c, 0, 49, 64
1, 164395, Note_on_c, 0, 47, 92
1, 164401, Note_on_c, 0, 62, 96
1, 164427, Note_off_c, 0, 66, 58
1, 164437, Note_off_c, 0, 62, 65
1, 164454, Note_off_c, 0, 47, 63
1, 164506, Note_on_c, 0, 49, 89
1, 164560, Note_off_c, 0, 49, 63
1, 164611, Note_on_c, 0, 50, 91
1, 164622, Note_on_c, 0, 59, 93
1, 164652, Note_off_c, 0, 59, 66
1, 164659, Note_off_c, 0, 50, 63
1, 164718, Note_on_c, 0, 52, 86
1, 164756, Note_off_c, 0, 52, 68
1, 164831, Note_on_c, 0, 54, 88
1, 164838, Note_on_c, 0, 58, 92
1, 164873, Note_off_c, 0, 58, 67
1, 164880, Note_off_c, 0, 54, 61
1, 164937, Note_on_c, 0, 52, 90
1, 164975, Note_off_c, 0, 52, 68
1, 165046, Note_on_c, 0, 59, 87
1, 165055, Note_on_c, 0, 50, 94
1, 165077, Note_off_c, 0, 59, 66
1, 165092, Note_off_c, 0, 50, 65
1, 165162, Note_on_c, 0, 71, 89
1, 165192, Note_off_c, 0, 71, 58
1, 165273, Note_on_c, 0, 70, 92
1, 165278, Note_on_c, 0, 47, 98
1, 165314, Note_off_c, 0, 70, 63
1, 165314, Note_off_c, 0, 47, 66
1, 165385, Note_on_c, 0, 71, 88
1, 165431, Note_off_c, 0, 71, 63
1, 165509, Note_on_c, 0, 73, 94
1, 165511, Note_on_c, 0, 46, 97
1, 165549, Note_off_c, 0, 73, 67
1, 165558, Note_off_c, 0, 46, 65
1, 165638, Note_on_c, 0, 78, 93
1, 165692, Note_off_c, 0, 78, 64
1, 165763, Note_on_c, 0, 47, 96
1, 165770, Note_on_c, 0, 76, 93
1, 165809, Note_off_c, 0, 47, 65
1, 165821, Note_off_c, 0, 76, 68
1, 165898, Note_on_c, 0, 74, 93
1, 165941, Note_off_c, 0, 74, 68
1, 166041, Note_on_c, 0, 73, 95
1, 166041, Note_on_c, 0, 66, 98
1, 166043, Note_on_c, 0, 38, 89
1, 166069, Note_off_c, 0, 66, 69
1, 166080, Note_off_c, 0, 38, 66
1, 166108, Note_off_c, 0, 73, 59
1, 166191, Note_on_c, 0, 71, 88
1, 166238, Note_off_c, 0, 71, 63
1, 166360, Note_on_c, 0, 42, 89
1, 166362, Note_on_c, 0, 64, 86
1, 166363, Note_on_c, 0, 73, 98
1, 166390, Note_off_c, 0, 64, 62
1, 166410, Note_off_c, 0, 73, 64
1, 166411, Note_off_c, 0, 42, 64
1, 166551, Note_on_c, 0, 70, 96
1, 166595, Note_off_c, 0, 70, 60
1, 166841, Note_on_c, 0, 70, 90
1, 166845, Note_on_c, 0, 64, 80
1, 166846, Note_on_c, 0, 35, 75
1, 166924, Control_c, 0, 64, 62
1, 166939, Control_c, 0, 64, 67
1, 166953, Control_c, 0, 64, 72
1, 166968, Control_c, 0, 64, 79
1, 166983, Control_c, 0, 64, 84
1, 166998, Control_c, 0, 64, 87
1, 167013, Control_c, 0, 64, 89
1, 167028, Control_c, 0, 64, 91
1, 167034, Note_off_c, 0, 64, 53
1, 167043, Control_c, 0, 64, 93
1, 167058, Control_c, 0, 64, 94
1, 167080, Control_c, 0, 64, 95
1, 167095, Control_c, 0, 64, 97
1, 167110, Control_c, 0, 64, 98
1, 167125, Control_c, 0, 64, 99
1, 167139, Control_c, 0, 64, 100
1, 167154, Control_c, 0, 64, 101
1, 167169, Control_c, 0, 64, 101
1, 167184, Control_c, 0, 64, 102
1, 167199, Control_c, 0, 64, 103
1, 167213, Control_c, 0, 64, 103
1, 167243, Control_c, 0, 64, 104
1, 167317, Control_c, 0, 64, 104
1, 167347, Control_c, 0, 64, 105
1, 167466, Control_c, 0, 64, 105
1, 167516, Note_on_c, 0, 71, 81
1, 167523, Note_on_c, 0, 63, 70
1, 167525, Control_c, 0, 64, 105
1, 167539, Control_c, 0, 64, 102
1, 167541, Note_off_c, 0, 70, 57
1, 167554, Control_c, 0, 64, 99
1, 167569, Control_c, 0, 64, 94
1, 167584, Control_c, 0, 64, 87
1, 167598, Control_c, 0, 64, 77
1, 167613, Control_c, 0, 64, 66
1, 167628, Control_c, 0, 64, 47
1, 167643, Control_c, 0, 64, 0
1, 168817, Note_off_c, 0, 35, 63
1, 168824, Note_off_c, 0, 63, 61
1, 168825, Note_off_c, 0, 71, 59
1, 170089, Control_c, 0, 64, 32
1, 170104, Control_c, 0, 64, 42
1, 170133, Control_c, 0, 64, 39
1, 170148, Control_c, 0, 64, 42
1, 170163, Control_c, 0, 64, 47
1, 170178, Control_c, 0, 64, 52
1, 170193, Control_c, 0, 64, 53
1, 170207, Control_c, 0, 64, 51
1, 170222, Control_c, 0, 64, 50
1, 170237, Control_c, 0, 64, 52
1, 170253, Control_c, 0, 64, 54
1, 170268, Control_c, 0, 64, 56
1, 170283, Control_c, 0, 64, 55
1, 170297, Control_c, 0, 64, 53
1, 170312, Control_c, 0, 64, 52
1, 170327, Control_c, 0, 64, 53
1, 170342, Control_c, 0, 64, 55
1, 170371, Control_c, 0, 64, 54
1, 170386, Control_c, 0, 64, 51
1, 170401, Control_c, 0, 64, 51
1, 170416, Control_c, 0, 64, 52
1, 170430, Control_c, 0, 64, 53
1, 170445, Control_c, 0, 64, 52
1, 170460, Control_c, 0, 64, 51
1, 170475, Control_c, 0, 64, 48
1, 170490, Control_c, 0, 64, 46
1, 170504, Control_c, 0, 64, 46
1, 170548, Control_c, 0, 64, 45
1, 170563, Control_c, 0, 64, 42
1, 170578, Control_c, 0, 64, 41
1, 170712, Control_c, 0, 64, 41
1, 170771, Control_c, 0, 64, 42
1, 170852, Control_c, 0, 64, 41
1, 170882, Control_c, 0, 64, 41
1, 170897, Control_c, 0, 64, 40
1, 170912, Control_c, 0, 64, 39
1, 170927, Control_c, 0, 64, 38
1, 170942, Control_c, 0, 64, 36
1, 170956, Control_c, 0, 64, 34
1, 170971, Control_c, 0, 64, 31
1, 170986, Control_c, 0, 64, 26
1, 171001, Control_c, 0, 64, 18
1, 171016, Control_c, 0, 64, 0
1, 171016, End_track
0, 0, End_of_file
