0, 0, Header, 0, 1, 384
1, 0, Start_track
1, 0, Title_t, "La Campanella--Vladimir Levitsky"
1, 0, Text_t, "2008 e-Piano Junior Competition recital round"
1, 0, Text_t, "recorded July 2008"
1, 0, Text_t, "http://www.piano-e-competition.com/"
1, 0, Text_t, "File processed for distribution by software from Zenph Studios, Inc., http://www.zenph.com"
1, 0, Instrument_name_t, "Yamaha Disklavier Pro Mark IV concert grand piano, model DCFIIISM4PRO"
1, 0, Sequencer_specific, 39, 67, 113, 0, 1, 0, 1, 0, 76, 97, 32, 67, 97, 109, 112, 97, 110, 101, 108, 108, 97, 32, 32, 32, 86, 108, 97, 100, 105, 109, 105, 114, 76, 101, 118, 105, 116, 115, 107, 121
1, 0, Sequencer_specific, 6, 67, 113, 0, 0, 0, 69
1, 0, System_exclusive, 21, 67, 113, 126, 21, 0, 2, 2, 0, 3, 14, 1, 4, 1, 13, 13, 10, 11, 9, 2, 7, 247
1, 0, Sequencer_specific, 5, 67, 123, 12, 2, 1
1, 0, Tempo, 512820
1, 0, Time_signature, 4, 2, 24, 8
1, 0, System_exclusive, 5, 126, 127, 9, 1, 247
1, 1, System_exclusive, 8, 67, 16, 76, 0, 0, 126, 0, 247
1, 2, System_exclusive, 8, 67, 16, 76, 8, 9, 7, 1, 247
1, 3, Control_c, 0, 0, 0
1, 3, Control_c, 1, 0, 0
1, 3, Control_c, 2, 0, 0
1, 3, Control_c, 3, 0, 0
1, 3, Control_c, 4, 0, 0
1, 3, Control_c, 5, 0, 0
1, 3, Control_c, 6, 0, 0
1, 3, Control_c, 7, 0, 0
1, 3, Control_c, 8, 0, 0
1, 3, Control_c, 9, 0, 127
1, 3, Control_c, 10, 0, 0
1, 3, Control_c, 11, 0, 0
1, 3, Control_c, 12, 0, 0
1, 3, Control_c, 13, 0, 0
1, 3, Control_c, 14, 0, 0
1, 3, Control_c, 15, 0, 0
1, 4, Control_c, 0, 32, 0
1, 4, Control_c, 1, 32, 0
1, 4, Control_c, 2, 32, 0
1, 4, Control_c, 3, 32, 0
1, 4, Control_c, 4, 32, 0
1, 4, Control_c, 5, 32, 0
1, 4, Control_c, 6, 32, 0
1, 4, Control_c, 7, 32, 0
1, 4, Control_c, 8, 32, 0
1, 4, Control_c, 9, 32, 0
1, 4, Control_c, 10, 32, 0
1, 4, Control_c, 11, 32, 0
1, 4, Control_c, 12, 32, 0
1, 4, Control_c, 13, 32, 0
1, 4, Control_c, 14, 32, 0
1, 4, Control_c, 15, 32, 0
1, 5, Program_c, 0, 0
1, 5, Program_c, 1, 0
1, 5, Program_c, 2, 0
1, 5, Program_c, 3, 0
1, 5, Program_c, 4, 0
1, 5, Program_c, 5, 0
1, 5, Program_c, 6, 0
1, 5, Program_c, 7, 0
1, 5, Program_c, 8, 0
1, 5, Program_c, 9, 0
1, 5, Program_c, 10, 0
1, 5, Program_c, 11, 0
1, 5, Program_c, 12, 0
1, 5, Program_c, 13, 0
1, 5, Program_c, 14, 0
1, 5, Program_c, 15, 0
1, 6, Control_c, 0, 7, 100
1, 6, Control_c, 1, 7, 100
1, 6, Control_c, 2, 7, 100
1, 6, Control_c, 3, 7, 100
1, 6, Control_c, 4, 7, 100
1, 6, Control_c, 5, 7, 100
1, 6, Control_c, 6, 7, 100
1, 6, Control_c, 7, 7, 100
1, 6, Control_c, 8, 7, 100
1, 6, Control_c, 9, 7, 100
1, 6, Control_c, 10, 7, 100
1, 6, Control_c, 11, 7, 100
1, 6, Control_c, 12, 7, 100
1, 6, Control_c, 13, 7, 100
1, 6, Control_c, 14, 7, 100
1, 6, Control_c, 15, 7, 100
1, 117, Control_c, 0, 64, 15
1, 117, Control_c, 0, 67, 15
1, 229, Control_c, 0, 64, 31
1, 229, Control_c, 0, 67, 31
1, 341, Control_c, 0, 64, 46
1, 341, Control_c, 0, 67, 46
1, 452, Control_c, 0, 64, 63
1, 452, Control_c, 0, 67, 63
1, 564, Control_c, 0, 64, 77
1, 564, Control_c, 0, 67, 77
1, 676, Control_c, 0, 64, 94
1, 676, Control_c, 0, 67, 94
1, 787, Control_c, 0, 64, 108
1, 787, Control_c, 0, 67, 108
1, 899, Control_c, 0, 64, 127
1, 899, Control_c, 0, 67, 127
1, 1137, Note_on_c, 0, 63, 28
1, 1152, Note_on_c, 0, 75, 14
1, 1252, Note_off_c, 0, 63, 41
1, 1288, Note_off_c, 0, 75, 37
1, 1526, Note_on_c, 0, 75, 33
1, 1553, Note_on_c, 0, 63, 21
1, 1619, Note_off_c, 0, 63, 42
1, 1657, Note_off_c, 0, 75, 37
1, 1837, Note_on_c, 0, 75, 36
1, 1869, Note_on_c, 0, 63, 28
1, 2075, Note_off_c, 0, 63, 31
1, 2173, Note_on_c, 0, 99, 54
1, 2188, Note_on_c, 0, 87, 39
1, 2271, Note_off_c, 0, 87, 37
1, 2274, Note_off_c, 0, 99, 57
1, 2350, Note_off_c, 0, 75, 16
1, 2448, Note_on_c, 0, 99, 56
1, 2462, Note_on_c, 0, 87, 48
1, 2505, Note_off_c, 0, 87, 49
1, 2543, Note_off_c, 0, 99, 50
1, 2707, Note_on_c, 0, 99, 52
1, 2722, Note_on_c, 0, 87, 47
1, 2769, Note_off_c, 0, 87, 55
1, 2806, Note_off_c, 0, 99, 53
1, 2967, Note_on_c, 0, 75, 31
1, 2981, Note_on_c, 0, 63, 22
1, 3061, Note_off_c, 0, 63, 40
1, 3094, Note_off_c, 0, 75, 35
1, 3203, Note_on_c, 0, 75, 22
1, 3225, Note_on_c, 0, 63, 25
1, 3319, Note_off_c, 0, 63, 36
1, 3336, Note_off_c, 0, 75, 40
1, 3460, Note_on_c, 0, 75, 39
1, 3476, Note_on_c, 0, 63, 28
1, 3637, Note_off_c, 0, 63, 34
1, 3674, Note_off_c, 0, 75, 34
1, 3723, Note_on_c, 0, 99, 49
1, 3738, Note_on_c, 0, 87, 36
1, 3804, Note_off_c, 0, 87, 51
1, 3850, Note_off_c, 0, 99, 37
1, 3976, Note_on_c, 0, 99, 49
1, 3997, Note_on_c, 0, 87, 43
1, 4051, Note_off_c, 0, 87, 56
1, 4078, Note_off_c, 0, 99, 53
1, 4236, Note_on_c, 0, 99, 54
1, 4249, Note_on_c, 0, 87, 50
1, 4287, Note_off_c, 0, 87, 50
1, 4346, Note_off_c, 0, 99, 47
1, 4524, Note_on_c, 0, 75, 32
1, 4536, Note_on_c, 0, 63, 29
1, 4699, Note_off_c, 0, 63, 36
1, 4741, Note_off_c, 0, 75, 34
1, 4821, Note_on_c, 0, 99, 43
1, 4833, Note_on_c, 0, 87, 35
1, 4893, Note_off_c, 0, 87, 39
1, 4929, Note_off_c, 0, 99, 39
1, 5139, Note_on_c, 0, 99, 48
1, 5147, Note_on_c, 0, 87, 39
1, 5209, Note_off_c, 0, 87, 46
1, 5259, Note_off_c, 0, 99, 41
1, 5480, Note_on_c, 0, 75, 27
1, 5503, Note_on_c, 0, 63, 21
1, 5758, Note_off_c, 0, 63, 32
1, 5869, Note_on_c, 0, 99, 42
1, 5881, Note_on_c, 0, 87, 40
1, 5931, Note_off_c, 0, 87, 45
1, 5951, Note_off_c, 0, 75, 28
1, 5992, Note_off_c, 0, 99, 37
1, 6333, Note_on_c, 0, 99, 38
1, 6341, Note_on_c, 0, 87, 25
1, 6483, Note_off_c, 0, 87, 33
1, 6488, Note_off_c, 0, 99, 40
1, 7083, Note_on_c, 0, 75, 20
1, 7139, Note_off_c, 0, 75, 44
1, 7270, Note_on_c, 0, 87, 45
1, 7321, Note_off_c, 0, 87, 61
1, 7438, Note_on_c, 0, 87, 50
1, 7466, Note_off_c, 0, 87, 57
1, 7586, Note_on_c, 0, 99, 46
1, 7626, Note_off_c, 0, 99, 48
1, 7700, Note_on_c, 0, 87, 61
1, 7739, Note_off_c, 0, 87, 58
1, 7804, Note_on_c, 0, 99, 59
1, 7852, Note_off_c, 0, 99, 64
1, 7921, Note_on_c, 0, 85, 61
1, 7939, Note_off_c, 0, 85, 63
1, 8022, Note_on_c, 0, 99, 48
1, 8044, Note_on_c, 0, 56, 46
1, 8053, Note_off_c, 0, 99, 65
1, 8075, Control_c, 0, 64, 117
1, 8088, Note_off_c, 0, 56, 51
1, 8090, Control_c, 0, 64, 104
1, 8105, Control_c, 0, 64, 91
1, 8119, Note_on_c, 0, 63, 20
1, 8121, Control_c, 0, 64, 81
1, 8136, Control_c, 0, 64, 73
1, 8151, Control_c, 0, 64, 70
1, 8166, Control_c, 0, 64, 71
1, 8173, Note_on_c, 0, 83, 51
1, 8180, Control_c, 0, 64, 75
1, 8193, Note_off_c, 0, 83, 59
1, 8195, Control_c, 0, 64, 80
1, 8210, Control_c, 0, 64, 84
1, 8224, Note_on_c, 0, 71, 19
1, 8225, Control_c, 0, 64, 87
1, 8240, Control_c, 0, 64, 89
1, 8249, Note_off_c, 0, 63, 25
1, 8254, Control_c, 0, 64, 92
1, 8269, Control_c, 0, 64, 95
1, 8273, Note_off_c, 0, 71, 44
1, 8277, Note_on_c, 0, 99, 62
1, 8285, Control_c, 0, 64, 97
1, 8298, Note_off_c, 0, 99, 66
1, 8299, Control_c, 0, 64, 99
1, 8314, Control_c, 0, 64, 100
1, 8329, Control_c, 0, 64, 101
1, 8344, Control_c, 0, 64, 102
1, 8359, Control_c, 0, 64, 102
1, 8391, Note_on_c, 0, 83, 62
1, 8408, Note_off_c, 0, 83, 64
1, 8478, Control_c, 0, 64, 103
1, 8489, Note_on_c, 0, 99, 58
1, 8508, Note_off_c, 0, 99, 62
1, 8581, Note_on_c, 0, 82, 71
1, 8600, Note_off_c, 0, 82, 67
1, 8681, Note_on_c, 0, 99, 69
1, 8683, Note_on_c, 0, 59, 47
1, 8685, Control_c, 0, 64, 100
1, 8699, Control_c, 0, 64, 93
1, 8705, Note_off_c, 0, 99, 56
1, 8714, Control_c, 0, 64, 83
1, 8716, Note_off_c, 0, 59, 50
1, 8729, Control_c, 0, 64, 70
1, 8744, Control_c, 0, 64, 51
1, 8753, Note_on_c, 0, 68, 49
1, 8759, Control_c, 0, 64, 31
1, 8773, Control_c, 0, 64, 60
1, 8788, Control_c, 0, 64, 67
1, 8809, Note_on_c, 0, 80, 72
1, 8811, Control_c, 0, 64, 73
1, 8824, Note_off_c, 0, 80, 69
1, 8825, Control_c, 0, 64, 80
1, 8840, Control_c, 0, 64, 84
1, 8853, Note_on_c, 0, 75, 39
1, 8855, Control_c, 0, 64, 86
1, 8870, Control_c, 0, 64, 88
1, 8878, Note_off_c, 0, 75, 54
1, 8885, Control_c, 0, 64, 90
1, 8895, Note_off_c, 0, 68, 37
1, 8899, Control_c, 0, 64, 92
1, 8914, Control_c, 0, 64, 94
1, 8916, Note_on_c, 0, 99, 64
1, 8930, Control_c, 0, 64, 95
1, 8939, Note_off_c, 0, 99, 67
1, 8945, Control_c, 0, 64, 96
1, 8960, Control_c, 0, 64, 96
1, 8975, Control_c, 0, 64, 97
1, 9028, Note_on_c, 0, 79, 73
1, 9044, Note_off_c, 0, 79, 67
1, 9049, Control_c, 0, 64, 97
1, 9124, Note_on_c, 0, 99, 76
1, 9148, Note_off_c, 0, 99, 71
1, 9237, Note_on_c, 0, 80, 68
1, 9253, Note_off_c, 0, 80, 65
1, 9311, Note_on_c, 0, 63, 55
1, 9315, Control_c, 0, 64, 96
1, 9330, Control_c, 0, 64, 91
1, 9335, Note_on_c, 0, 99, 65
1, 9345, Control_c, 0, 64, 78
1, 9351, Note_off_c, 0, 99, 68
1, 9354, Note_off_c, 0, 63, 65
1, 9360, Control_c, 0, 64, 64
1, 9375, Control_c, 0, 64, 0
1, 9385, Note_on_c, 0, 70, 50
1, 9419, Control_c, 0, 64, 61
1, 9431, Note_on_c, 0, 82, 75
1, 9434, Control_c, 0, 64, 70
1, 9445, Note_on_c, 0, 79, 57
1, 9448, Control_c, 0, 64, 76
1, 9452, Note_off_c, 0, 82, 70
1, 9463, Control_c, 0, 64, 82
1, 9464, Note_off_c, 0, 70, 62
1, 9465, Note_off_c, 0, 79, 59
1, 9478, Control_c, 0, 64, 85
1, 9493, Control_c, 0, 64, 86
1, 9508, Control_c, 0, 64, 88
1, 9522, Control_c, 0, 64, 90
1, 9545, Control_c, 0, 64, 92
1, 9550, Note_on_c, 0, 99, 64
1, 9560, Control_c, 0, 64, 94
1, 9567, Note_off_c, 0, 99, 68
1, 9575, Control_c, 0, 64, 94
1, 9590, Control_c, 0, 64, 95
1, 9604, Control_c, 0, 64, 95
1, 9619, Control_c, 0, 64, 97
1, 9634, Control_c, 0, 64, 98
1, 9648, Control_c, 0, 64, 99
1, 9663, Note_on_c, 0, 75, 71
1, 9663, Control_c, 0, 64, 99
1, 9678, Control_c, 0, 64, 100
1, 9679, Note_off_c, 0, 75, 66
1, 9693, Control_c, 0, 64, 100
1, 9708, Control_c, 0, 64, 101
1, 9724, Control_c, 0, 64, 101
1, 9768, Note_on_c, 0, 99, 72
1, 9785, Note_off_c, 0, 99, 68
1, 9813, Control_c, 0, 64, 102
1, 9879, Note_on_c, 0, 75, 71
1, 9897, Note_off_c, 0, 75, 69
1, 9901, Control_c, 0, 64, 102
1, 9962, Note_on_c, 0, 87, 60
1, 10028, Note_off_c, 0, 87, 53
1, 10034, Control_c, 0, 64, 101
1, 10049, Control_c, 0, 64, 98
1, 10049, Control_c, 0, 67, 126
1, 10064, Control_c, 0, 64, 91
1, 10064, Control_c, 0, 67, 119
1, 10067, Note_on_c, 0, 70, 60
1, 10069, Note_on_c, 0, 67, 55
1, 10078, Control_c, 0, 64, 82
1, 10078, Control_c, 0, 67, 113
1, 10084, Note_on_c, 0, 76, 63
1, 10087, Note_off_c, 0, 70, 62
1, 10090, Note_off_c, 0, 67, 63
1, 10093, Control_c, 0, 64, 71
1, 10093, Control_c, 0, 67, 107
1, 10108, Note_off_c, 0, 76, 67
1, 10108, Control_c, 0, 64, 0
1, 10108, Control_c, 0, 67, 97
1, 10123, Control_c, 0, 67, 83
1, 10138, Control_c, 0, 67, 65
1, 10153, Control_c, 0, 67, 42
1, 10168, Control_c, 0, 67, 22
1, 10178, Note_on_c, 0, 87, 52
1, 10183, Control_c, 0, 67, 0
1, 10257, Note_off_c, 0, 87, 59
1, 10299, Note_on_c, 0, 75, 65
1, 10320, Note_off_c, 0, 75, 68
1, 10394, Note_on_c, 0, 87, 57
1, 10431, Note_off_c, 0, 87, 61
1, 10494, Note_on_c, 0, 73, 65
1, 10514, Note_off_c, 0, 73, 66
1, 10582, Note_on_c, 0, 87, 60
1, 10611, Note_off_c, 0, 87, 65
1, 10693, Note_on_c, 0, 71, 65
1, 10693, Note_on_c, 0, 68, 54
1, 10715, Note_off_c, 0, 68, 64
1, 10719, Note_off_c, 0, 71, 66
1, 10790, Note_on_c, 0, 87, 64
1, 10818, Note_off_c, 0, 87, 67
1, 10897, Note_on_c, 0, 71, 65
1, 10915, Note_off_c, 0, 71, 64
1, 10994, Note_on_c, 0, 87, 65
1, 11008, Note_off_c, 0, 87, 65
1, 11105, Note_on_c, 0, 70, 70
1, 11122, Note_off_c, 0, 70, 67
1, 11201, Note_on_c, 0, 87, 62
1, 11217, Note_off_c, 0, 87, 66
1, 11238, Note_on_c, 0, 59, 45
1, 11305, Note_on_c, 0, 62, 32
1, 11317, Note_on_c, 0, 68, 70
1, 11318, Note_on_c, 0, 65, 45
1, 11322, Note_off_c, 0, 59, 48
1, 11335, Note_off_c, 0, 62, 51
1, 11335, Note_off_c, 0, 68, 68
1, 11341, Note_off_c, 0, 65, 58
1, 11435, Note_on_c, 0, 87, 45
1, 11459, Note_off_c, 0, 87, 36
1, 11527, Note_on_c, 0, 67, 70
1, 11554, Note_off_c, 0, 67, 67
1, 11632, Note_on_c, 0, 87, 72
1, 11649, Note_off_c, 0, 87, 67
1, 11751, Note_on_c, 0, 68, 55
1, 11773, Note_off_c, 0, 68, 59
1, 11850, Note_on_c, 0, 87, 63
1, 11870, Note_off_c, 0, 87, 61
1, 11919, Note_on_c, 0, 63, 28
1, 11970, Control_c, 0, 64, 41
1, 11980, Note_on_c, 0, 70, 67
1, 11985, Control_c, 0, 64, 62
1, 11995, Note_on_c, 0, 67, 45
1, 11999, Control_c, 0, 64, 66
1, 12004, Note_off_c, 0, 70, 66
1, 12014, Control_c, 0, 64, 68
1, 12018, Note_off_c, 0, 63, 51
1, 12021, Note_off_c, 0, 67, 53
1, 12028, Control_c, 0, 64, 72
1, 12043, Control_c, 0, 64, 76
1, 12058, Control_c, 0, 64, 80
1, 12073, Control_c, 0, 64, 83
1, 12088, Control_c, 0, 64, 85
1, 12102, Note_on_c, 0, 87, 64
1, 12102, Control_c, 0, 64, 86
1, 12118, Control_c, 0, 64, 88
1, 12119, Note_off_c, 0, 87, 66
1, 12133, Control_c, 0, 64, 90
1, 12147, Control_c, 0, 64, 91
1, 12162, Control_c, 0, 64, 91
1, 12192, Control_c, 0, 64, 92
1, 12207, Control_c, 0, 64, 93
1, 12222, Control_c, 0, 64, 93
1, 12255, Note_on_c, 0, 63, 42
1, 12280, Note_off_c, 0, 63, 57
1, 12359, Note_on_c, 0, 75, 52
1, 12382, Note_off_c, 0, 75, 65
1, 12472, Note_on_c, 0, 75, 56
1, 12493, Note_off_c, 0, 75, 65
1, 12564, Note_on_c, 0, 87, 63
1, 12602, Note_off_c, 0, 87, 59
1, 12684, Note_on_c, 0, 87, 65
1, 12715, Note_off_c, 0, 87, 65
1, 12774, Note_on_c, 0, 99, 68
1, 12842, Note_off_c, 0, 99, 62
1, 12877, Note_on_c, 0, 87, 72
1, 12904, Note_off_c, 0, 87, 65
1, 12966, Note_on_c, 0, 99, 67
1, 13020, Note_off_c, 0, 99, 66
1, 13062, Note_on_c, 0, 85, 70
1, 13086, Note_off_c, 0, 85, 67
1, 13134, Control_c, 0, 64, 91
1, 13149, Control_c, 0, 64, 86
1, 13155, Note_on_c, 0, 99, 58
1, 13161, Note_on_c, 0, 56, 49
1, 13163, Control_c, 0, 64, 75
1, 13178, Control_c, 0, 64, 63
1, 13186, Note_off_c, 0, 99, 70
1, 13193, Control_c, 0, 64, 0
1, 13198, Note_off_c, 0, 56, 53
1, 13211, Note_on_c, 0, 63, 34
1, 13223, Control_c, 0, 64, 52
1, 13237, Control_c, 0, 64, 66
1, 13252, Control_c, 0, 64, 71
1, 13267, Control_c, 0, 64, 77
1, 13279, Note_on_c, 0, 83, 53
1, 13289, Control_c, 0, 64, 81
1, 13304, Control_c, 0, 64, 83
1, 13306, Note_off_c, 0, 83, 56
1, 13310, Note_on_c, 0, 71, 34
1, 13319, Control_c, 0, 64, 85
1, 13334, Control_c, 0, 64, 87
1, 13343, Note_off_c, 0, 63, 33
1, 13348, Note_off_c, 0, 71, 47
1, 13349, Control_c, 0, 64, 88
1, 13363, Control_c, 0, 64, 90
1, 13378, Control_c, 0, 64, 92
1, 13381, Note_on_c, 0, 99, 61
1, 13393, Control_c, 0, 64, 93
1, 13408, Control_c, 0, 64, 94
1, 13411, Note_off_c, 0, 99, 70
1, 13422, Control_c, 0, 64, 95
1, 13437, Control_c, 0, 64, 95
1, 13495, Note_on_c, 0, 83, 68
1, 13510, Note_off_c, 0, 83, 65
1, 13582, Note_on_c, 0, 99, 72
1, 13608, Note_off_c, 0, 99, 71
1, 13629, Control_c, 0, 64, 96
1, 13679, Note_on_c, 0, 82, 76
1, 13701, Note_off_c, 0, 82, 69
1, 13771, Note_on_c, 0, 59, 47
1, 13778, Note_on_c, 0, 99, 71
1, 13793, Control_c, 0, 64, 93
1, 13794, Note_off_c, 0, 99, 70
1, 13798, Note_off_c, 0, 59, 53
1, 13808, Control_c, 0, 64, 85
1, 13823, Control_c, 0, 64, 73
1, 13836, Note_on_c, 0, 68, 55
1, 13838, Control_c, 0, 64, 37
1, 13853, Control_c, 0, 64, 0
1, 13882, Control_c, 0, 64, 54
1, 13885, Note_on_c, 0, 80, 75
1, 13897, Control_c, 0, 64, 67
1, 13907, Note_off_c, 0, 80, 70
1, 13912, Control_c, 0, 64, 73
1, 13915, Note_on_c, 0, 75, 39
1, 13924, Note_off_c, 0, 68, 62
1, 13927, Control_c, 0, 64, 80
1, 13942, Note_off_c, 0, 75, 48
1, 13942, Control_c, 0, 64, 84
1, 13957, Control_c, 0, 64, 86
1, 13972, Control_c, 0, 64, 87
1, 13986, Control_c, 0, 64, 89
1, 13989, Note_on_c, 0, 99, 69
1, 14001, Control_c, 0, 64, 90
1, 14013, Note_off_c, 0, 99, 72
1, 14016, Control_c, 0, 64, 91
1, 14037, Control_c, 0, 64, 92
1, 14052, Control_c, 0, 64, 93
1, 14097, Control_c, 0, 64, 93
1, 14099, Note_on_c, 0, 79, 76
1, 14120, Note_off_c, 0, 79, 70
1, 14192, Note_on_c, 0, 99, 80
1, 14215, Note_off_c, 0, 99, 73
1, 14299, Note_on_c, 0, 80, 76
1, 14316, Note_off_c, 0, 80, 68
1, 14379, Control_c, 0, 64, 91
1, 14393, Control_c, 0, 64, 85
1, 14401, Note_on_c, 0, 99, 67
1, 14402, Note_on_c, 0, 63, 57
1, 14408, Control_c, 0, 64, 71
1, 14418, Note_off_c, 0, 99, 69
1, 14423, Control_c, 0, 64, 0
1, 14436, Note_off_c, 0, 63, 66
1, 14460, Note_on_c, 0, 70, 52
1, 14482, Control_c, 0, 64, 62
1, 14497, Control_c, 0, 64, 69
1, 14504, Note_on_c, 0, 82, 72
1, 14513, Control_c, 0, 64, 76
1, 14526, Note_on_c, 0, 79, 39
1, 14526, Note_off_c, 0, 82, 67
1, 14526, Note_off_c, 0, 70, 61
1, 14528, Control_c, 0, 64, 82
1, 14542, Control_c, 0, 64, 86
1, 14555, Note_off_c, 0, 79, 33
1, 14557, Control_c, 0, 64, 88
1, 14572, Control_c, 0, 64, 89
1, 14587, Control_c, 0, 64, 92
1, 14602, Control_c, 0, 64, 94
1, 14608, Note_on_c, 0, 99, 69
1, 14616, Control_c, 0, 64, 96
1, 14631, Control_c, 0, 64, 97
1, 14632, Note_off_c, 0, 99, 68
1, 14646, Control_c, 0, 64, 98
1, 14660, Control_c, 0, 64, 99
1, 14675, Control_c, 0, 64, 101
1, 14690, Control_c, 0, 64, 103
1, 14705, Control_c, 0, 64, 105
1, 14720, Control_c, 0, 64, 106
1, 14732, Note_on_c, 0, 75, 53
1, 14735, Control_c, 0, 64, 107
1, 14755, Note_off_c, 0, 75, 58
1, 14764, Control_c, 0, 64, 107
1, 14833, Note_on_c, 0, 99, 72
1, 14859, Note_off_c, 0, 99, 68
1, 14934, Control_c, 0, 64, 108
1, 14943, Note_on_c, 0, 75, 75
1, 14964, Note_off_c, 0, 75, 67
1, 15033, Note_on_c, 0, 87, 63
1, 15054, Control_c, 0, 64, 107
1, 15068, Control_c, 0, 64, 107
1, 15083, Control_c, 0, 64, 102
1, 15095, Note_off_c, 0, 87, 59
1, 15098, Control_c, 0, 64, 94
1, 15113, Control_c, 0, 64, 83
1, 15125, Note_on_c, 0, 70, 64
1, 15128, Control_c, 0, 64, 69
1, 15129, Note_on_c, 0, 67, 54
1, 15136, Note_on_c, 0, 76, 71
1, 15142, Note_off_c, 0, 70, 65
1, 15143, Control_c, 0, 64, 0
1, 15152, Note_off_c, 0, 67, 56
1, 15158, Note_off_c, 0, 76, 73
1, 15228, Note_on_c, 0, 87, 64
1, 15299, Note_off_c, 0, 87, 60
1, 15335, Note_on_c, 0, 75, 71
1, 15352, Note_off_c, 0, 75, 68
1, 15426, Note_on_c, 0, 87, 62
1, 15485, Note_off_c, 0, 87, 59
1, 15524, Note_on_c, 0, 75, 57
1, 15542, Note_on_c, 0, 73, 65
1, 15559, Note_off_c, 0, 73, 65
1, 15567, Note_off_c, 0, 75, 54
1, 15617, Note_on_c, 0, 87, 67
1, 15697, Note_off_c, 0, 87, 58
1, 15733, Note_on_c, 0, 68, 61
1, 15736, Note_on_c, 0, 75, 62
1, 15737, Note_on_c, 0, 71, 58
1, 15756, Note_off_c, 0, 75, 64
1, 15757, Note_off_c, 0, 71, 60
1, 15763, Note_off_c, 0, 68, 66
1, 15822, Note_on_c, 0, 87, 63
1, 15914, Note_off_c, 0, 87, 56
1, 15927, Note_on_c, 0, 80, 66
1, 15951, Note_off_c, 0, 80, 65
1, 16016, Note_on_c, 0, 83, 56
1, 16037, Note_off_c, 0, 83, 62
1, 16126, Note_on_c, 0, 87, 69
1, 16154, Note_off_c, 0, 87, 65
1, 16213, Note_on_c, 0, 99, 72
1, 16234, Note_on_c, 0, 63, 52
1, 16237, Note_off_c, 0, 99, 72
1, 16335, Note_on_c, 0, 67, 55
1, 16341, Note_on_c, 0, 73, 67
1, 16356, Note_on_c, 0, 75, 70
1, 16359, Note_off_c, 0, 73, 66
1, 16367, Note_off_c, 0, 67, 65
1, 16371, Note_off_c, 0, 63, 61
1, 16374, Note_off_c, 0, 75, 68
1, 16436, Note_on_c, 0, 87, 61
1, 16481, Note_off_c, 0, 87, 51
1, 16537, Note_on_c, 0, 79, 63
1, 16562, Note_off_c, 0, 79, 61
1, 16625, Note_on_c, 0, 82, 66
1, 16650, Note_off_c, 0, 82, 68
1, 16732, Note_on_c, 0, 87, 73
1, 16765, Note_off_c, 0, 87, 62
1, 16835, Note_on_c, 0, 99, 63
1, 16863, Note_off_c, 0, 99, 70
1, 16932, Note_on_c, 0, 56, 41
1, 16937, Control_c, 0, 64, 58
1, 16952, Control_c, 0, 64, 65
1, 16967, Control_c, 0, 64, 69
1, 16982, Control_c, 0, 64, 74
1, 16997, Control_c, 0, 64, 79
1, 17011, Control_c, 0, 64, 82
1, 17033, Control_c, 0, 64, 84
1, 17039, Note_on_c, 0, 63, 51
1, 17048, Control_c, 0, 64, 86
1, 17057, Note_off_c, 0, 56, 33
1, 17063, Control_c, 0, 64, 88
1, 17078, Control_c, 0, 64, 90
1, 17093, Control_c, 0, 64, 92
1, 17107, Note_off_c, 0, 63, 60
1, 17107, Control_c, 0, 64, 94
1, 17122, Control_c, 0, 64, 95
1, 17137, Control_c, 0, 64, 96
1, 17146, Note_on_c, 0, 71, 67
1, 17152, Control_c, 0, 64, 96
1, 17167, Control_c, 0, 64, 97
1, 17171, Note_off_c, 0, 71, 67
1, 17182, Control_c, 0, 64, 97
1, 17211, Control_c, 0, 64, 98
1, 17236, Note_on_c, 0, 80, 68
1, 17262, Note_off_c, 0, 80, 69
1, 17270, Control_c, 0, 64, 98
1, 17349, Note_on_c, 0, 75, 74
1, 17375, Note_off_c, 0, 75, 68
1, 17438, Note_on_c, 0, 87, 75
1, 17462, Note_off_c, 0, 87, 67
1, 17522, Control_c, 0, 64, 97
1, 17537, Control_c, 0, 64, 94
1, 17552, Control_c, 0, 64, 87
1, 17560, Note_on_c, 0, 99, 83
1, 17566, Control_c, 0, 64, 74
1, 17581, Control_c, 0, 64, 58
1, 17587, Note_off_c, 0, 99, 59
1, 17596, Control_c, 0, 64, 0
1, 17666, Note_on_c, 0, 87, 66
1, 17695, Note_off_c, 0, 87, 66
1, 17772, Note_on_c, 0, 99, 74
1, 17829, Note_off_c, 0, 99, 60
1, 17873, Note_on_c, 0, 87, 65
1, 17900, Note_off_c, 0, 87, 66
1, 17975, Note_on_c, 0, 99, 73
1, 18006, Note_off_c, 0, 99, 66
1, 18065, Note_on_c, 0, 85, 53
1, 18086, Note_off_c, 0, 85, 59
1, 18171, Note_on_c, 0, 85, 60
1, 18203, Note_on_c, 0, 44, 43
1, 18214, Note_on_c, 0, 83, 56
1, 18217, Note_off_c, 0, 85, 59
1, 18225, Control_c, 0, 64, 59
1, 18233, Note_off_c, 0, 44, 55
1, 18240, Control_c, 0, 64, 65
1, 18246, Note_off_c, 0, 83, 64
1, 18255, Control_c, 0, 64, 67
1, 18270, Control_c, 0, 64, 69
1, 18285, Control_c, 0, 64, 71
1, 18300, Control_c, 0, 64, 73
1, 18315, Control_c, 0, 64, 75
1, 18356, Note_on_c, 0, 99, 72
1, 18359, Control_c, 0, 64, 74
1, 18374, Control_c, 0, 64, 71
1, 18383, Note_off_c, 0, 99, 70
1, 18389, Control_c, 0, 64, 65
1, 18403, Control_c, 0, 64, 44
1, 18418, Control_c, 0, 64, 0
1, 18463, Note_on_c, 0, 83, 73
1, 18464, Note_on_c, 0, 59, 45
1, 18470, Note_on_c, 0, 51, 42
1, 18485, Note_off_c, 0, 83, 67
1, 18489, Note_off_c, 0, 59, 53
1, 18497, Note_off_c, 0, 51, 49
1, 18571, Note_on_c, 0, 99, 78
1, 18593, Note_off_c, 0, 99, 73
1, 18672, Note_on_c, 0, 82, 74
1, 18694, Note_off_c, 0, 82, 70
1, 18774, Note_on_c, 0, 99, 57
1, 18793, Note_off_c, 0, 99, 62
1, 18877, Note_on_c, 0, 82, 69
1, 18882, Note_on_c, 0, 47, 57
1, 18891, Note_on_c, 0, 80, 71
1, 18894, Note_off_c, 0, 82, 67
1, 18908, Note_off_c, 0, 47, 64
1, 18914, Note_off_c, 0, 80, 70
1, 19017, Note_on_c, 0, 99, 74
1, 19042, Note_off_c, 0, 99, 69
1, 19121, Note_on_c, 0, 79, 75
1, 19123, Note_on_c, 0, 63, 48
1, 19133, Note_on_c, 0, 56, 41
1, 19143, Note_off_c, 0, 79, 69
1, 19146, Note_off_c, 0, 63, 60
1, 19159, Note_off_c, 0, 56, 57
1, 19223, Note_on_c, 0, 99, 85
1, 19244, Note_off_c, 0, 99, 72
1, 19336, Note_on_c, 0, 80, 73
1, 19352, Note_off_c, 0, 80, 69
1, 19429, Note_on_c, 0, 99, 71
1, 19454, Note_off_c, 0, 99, 70
1, 19526, Note_on_c, 0, 79, 68
1, 19554, Note_on_c, 0, 80, 67
1, 19555, Note_off_c, 0, 79, 64
1, 19555, Note_on_c, 0, 51, 49
1, 19572, Note_on_c, 0, 82, 62
1, 19589, Note_off_c, 0, 80, 62
1, 19591, Note_off_c, 0, 51, 62
1, 19626, Note_off_c, 0, 82, 64
1, 19721, Note_on_c, 0, 99, 66
1, 19739, Note_off_c, 0, 99, 67
1, 19825, Note_on_c, 0, 75, 75
1, 19831, Note_on_c, 0, 58, 50
1, 19834, Note_on_c, 0, 67, 41
1, 19843, Note_off_c, 0, 75, 69
1, 19853, Note_off_c, 0, 58, 61
1, 19860, Note_off_c, 0, 67, 51
1, 19938, Note_on_c, 0, 99, 76
1, 19953, Note_off_c, 0, 99, 71
1, 20057, Note_on_c, 0, 75, 72
1, 20082, Note_off_c, 0, 75, 71
1, 20247, Note_on_c, 0, 78, 71
1, 20254, Note_on_c, 0, 76, 71
1, 20258, Note_on_c, 0, 67, 52
1, 20258, Note_on_c, 0, 70, 51
1, 20272, Note_off_c, 0, 78, 69
1, 20276, Note_off_c, 0, 76, 73
1, 20280, Note_off_c, 0, 67, 57
1, 20280, Note_off_c, 0, 70, 54
1, 20399, Note_on_c, 0, 87, 39
1, 20421, Note_off_c, 0, 87, 36
1, 20479, Note_on_c, 0, 67, 51
1, 20481, Note_on_c, 0, 75, 67
1, 20492, Note_on_c, 0, 70, 48
1, 20501, Note_off_c, 0, 67, 62
1, 20508, Note_off_c, 0, 75, 67
1, 20518, Note_off_c, 0, 70, 52
1, 20575, Note_on_c, 0, 87, 66
1, 20598, Note_off_c, 0, 87, 64
1, 20688, Note_on_c, 0, 73, 68
1, 20715, Note_off_c, 0, 73, 66
1, 20788, Note_on_c, 0, 87, 65
1, 20813, Note_off_c, 0, 87, 65
1, 20892, Note_on_c, 0, 73, 71
1, 20902, Note_on_c, 0, 68, 61
1, 20902, Note_on_c, 0, 71, 60
1, 20922, Note_off_c, 0, 71, 64
1, 20922, Note_off_c, 0, 73, 65
1, 20923, Note_off_c, 0, 68, 66
1, 21027, Note_on_c, 0, 87, 75
1, 21049, Note_off_c, 0, 87, 70
1, 21126, Note_on_c, 0, 68, 70
1, 21133, Note_on_c, 0, 71, 70
1, 21152, Note_off_c, 0, 68, 68
1, 21158, Note_off_c, 0, 71, 67
1, 21233, Note_on_c, 0, 87, 73
1, 21260, Note_off_c, 0, 87, 66
1, 21337, Note_on_c, 0, 70, 75
1, 21359, Note_off_c, 0, 70, 69
1, 21441, Note_on_c, 0, 87, 59
1, 21459, Note_off_c, 0, 87, 61
1, 21559, Note_on_c, 0, 70, 70
1, 21565, Note_on_c, 0, 59, 58
1, 21566, Note_on_c, 0, 68, 75
1, 21569, Note_on_c, 0, 65, 55
1, 21573, Note_on_c, 0, 62, 47
1, 21585, Note_off_c, 0, 70, 66
1, 21588, Note_off_c, 0, 65, 62
1, 21591, Note_off_c, 0, 68, 66
1, 21593, Note_off_c, 0, 59, 64
1, 21599, Note_off_c, 0, 62, 49
1, 21699, Note_on_c, 0, 87, 70
1, 21716, Note_off_c, 0, 87, 67
1, 21803, Note_on_c, 0, 67, 75
1, 21807, Note_on_c, 0, 65, 54
1, 21808, Note_on_c, 0, 59, 53
1, 21826, Note_off_c, 0, 67, 67
1, 21827, Note_on_c, 0, 62, 22
1, 21829, Note_off_c, 0, 65, 62
1, 21832, Note_off_c, 0, 59, 61
1, 21868, Note_off_c, 0, 62, 30
1, 21910, Note_on_c, 0, 87, 71
1, 21925, Note_off_c, 0, 87, 67
1, 22021, Note_on_c, 0, 68, 75
1, 22044, Note_off_c, 0, 68, 70
1, 22125, Note_on_c, 0, 51, 42
1, 22137, Note_on_c, 0, 87, 63
1, 22148, Control_c, 0, 64, 32
1, 22156, Note_off_c, 0, 87, 66
1, 22163, Control_c, 0, 64, 60
1, 22178, Control_c, 0, 64, 65
1, 22190, Note_off_c, 0, 51, 61
1, 22193, Control_c, 0, 64, 67
1, 22208, Control_c, 0, 64, 71
1, 22223, Control_c, 0, 64, 75
1, 22238, Control_c, 0, 64, 80
1, 22252, Control_c, 0, 64, 83
1, 22274, Control_c, 0, 64, 85
1, 22289, Control_c, 0, 64, 86
1, 22303, Note_on_c, 0, 70, 65
1, 22304, Control_c, 0, 64, 87
1, 22308, Note_on_c, 0, 67, 56
1, 22319, Control_c, 0, 64, 89
1, 22329, Note_off_c, 0, 70, 68
1, 22333, Control_c, 0, 64, 91
1, 22342, Note_off_c, 0, 67, 64
1, 22348, Control_c, 0, 64, 92
1, 22363, Control_c, 0, 64, 93
1, 22378, Control_c, 0, 64, 93
1, 22393, Control_c, 0, 64, 94
1, 22407, Control_c, 0, 64, 95
1, 22422, Control_c, 0, 64, 95
1, 22460, Note_on_c, 0, 87, 59
1, 22479, Note_off_c, 0, 87, 64
1, 22614, Note_on_c, 0, 63, 53
1, 22635, Note_off_c, 0, 63, 60
1, 22728, Note_on_c, 0, 75, 52
1, 22752, Note_off_c, 0, 75, 65
1, 22837, Note_on_c, 0, 75, 70
1, 22866, Note_off_c, 0, 75, 65
1, 22932, Note_on_c, 0, 87, 64
1, 22962, Note_off_c, 0, 87, 64
1, 23049, Note_on_c, 0, 87, 74
1, 23089, Note_off_c, 0, 87, 57
1, 23141, Control_c, 0, 64, 94
1, 23153, Note_on_c, 0, 99, 64
1, 23156, Control_c, 0, 64, 90
1, 23171, Control_c, 0, 64, 84
1, 23183, Note_off_c, 0, 99, 69
1, 23185, Control_c, 0, 64, 76
1, 23200, Control_c, 0, 64, 66
1, 23215, Control_c, 0, 64, 0
1, 23257, Note_on_c, 0, 87, 66
1, 23283, Note_off_c, 0, 87, 66
1, 23353, Note_on_c, 0, 99, 69
1, 23379, Note_off_c, 0, 99, 71
1, 23451, Note_on_c, 0, 85, 70
1, 23475, Note_off_c, 0, 85, 70
1, 23537, Note_on_c, 0, 99, 69
1, 23564, Note_off_c, 0, 99, 71
1, 23654, Note_on_c, 0, 85, 60
1, 23658, Note_on_c, 0, 83, 59
1, 23660, Control_c, 0, 64, 31
1, 23662, Note_on_c, 0, 44, 41
1, 23675, Control_c, 0, 64, 60
1, 23681, Note_off_c, 0, 85, 68
1, 23686, Note_off_c, 0, 83, 62
1, 23689, Note_off_c, 0, 44, 51
1, 23690, Control_c, 0, 64, 64
1, 23734, Control_c, 0, 64, 64
1, 23786, Control_c, 0, 64, 63
1, 23799, Note_on_c, 0, 99, 63
1, 23801, Control_c, 0, 64, 60
1, 23816, Control_c, 0, 64, 52
1, 23828, Note_off_c, 0, 99, 68
1, 23830, Control_c, 0, 64, 37
1, 23845, Control_c, 0, 64, 0
1, 23900, Note_on_c, 0, 83, 72
1, 23913, Note_on_c, 0, 59, 29
1, 23916, Note_on_c, 0, 51, 38
1, 23922, Note_off_c, 0, 83, 67
1, 23945, Note_off_c, 0, 51, 46
1, 23947, Note_off_c, 0, 59, 44
1, 24003, Note_on_c, 0, 99, 75
1, 24018, Note_off_c, 0, 99, 70
1, 24103, Note_on_c, 0, 82, 74
1, 24123, Note_off_c, 0, 82, 71
1, 24202, Note_on_c, 0, 99, 62
1, 24220, Note_off_c, 0, 99, 66
1, 24303, Note_on_c, 0, 82, 74
1, 24308, Note_on_c, 0, 47, 62
1, 24316, Note_on_c, 0, 80, 70
1, 24324, Note_off_c, 0, 82, 70
1, 24335, Note_off_c, 0, 47, 65
1, 24342, Note_off_c, 0, 80, 69
1, 24435, Note_on_c, 0, 99, 87
1, 24455, Note_off_c, 0, 99, 72
1, 24548, Note_on_c, 0, 63, 59
1, 24550, Note_on_c, 0, 79, 81
1, 24551, Note_on_c, 0, 56, 56
1, 24569, Note_off_c, 0, 63, 65
1, 24570, Note_off_c, 0, 79, 69
1, 24580, Note_off_c, 0, 56, 64
1, 24659, Note_on_c, 0, 99, 72
1, 24675, Note_off_c, 0, 99, 69
1, 24747, Note_on_c, 0, 80, 80
1, 24767, Note_off_c, 0, 80, 72
1, 24854, Note_on_c, 0, 99, 59
1, 24874, Note_off_c, 0, 99, 60
1, 24940, Note_on_c, 0, 79, 71
1, 24968, Note_on_c, 0, 51, 52
1, 24971, Note_on_c, 0, 80, 65
1, 24973, Note_off_c, 0, 79, 66
1, 24980, Note_on_c, 0, 82, 64
1, 25001, Note_off_c, 0, 51, 64
1, 25002, Note_off_c, 0, 80, 66
1, 25028, Note_off_c, 0, 82, 65
1, 25126, Note_on_c, 0, 99, 75
1, 25140, Note_off_c, 0, 99, 70
1, 25235, Note_on_c, 0, 75, 74
1, 25252, Note_on_c, 0, 58, 46
1, 25257, Note_off_c, 0, 75, 71
1, 25257, Note_on_c, 0, 67, 32
1, 25283, Note_off_c, 0, 58, 57
1, 25298, Note_off_c, 0, 67, 44
1, 25359, Note_on_c, 0, 99, 77
1, 25373, Note_off_c, 0, 99, 71
1, 25468, Note_on_c, 0, 75, 75
1, 25490, Note_off_c, 0, 75, 71
1, 25554, Note_on_c, 0, 87, 58
1, 25575, Note_off_c, 0, 87, 60
1, 25655, Note_on_c, 0, 78, 70
1, 25660, Note_on_c, 0, 76, 66
1, 25663, Note_on_c, 0, 61, 53
1, 25677, Note_on_c, 0, 70, 34
1, 25681, Note_off_c, 0, 78, 67
1, 25683, Note_off_c, 0, 76, 71
1, 25698, Note_off_c, 0, 61, 64
1, 25708, Note_off_c, 0, 70, 33
1, 25791, Note_on_c, 0, 92, 65
1, 25807, Note_off_c, 0, 92, 64
1, 25889, Note_on_c, 0, 75, 73
1, 25914, Note_off_c, 0, 75, 70
1, 25919, Note_on_c, 0, 70, 39
1, 25927, Note_on_c, 0, 63, 24
1, 25948, Note_off_c, 0, 70, 47
1, 25958, Note_off_c, 0, 63, 42
1, 25997, Note_on_c, 0, 92, 70
1, 26019, Note_off_c, 0, 92, 66
1, 26107, Note_on_c, 0, 70, 44
1, 26108, Note_on_c, 0, 64, 47
1, 26112, Note_on_c, 0, 73, 71
1, 26128, Note_off_c, 0, 73, 67
1, 26131, Note_off_c, 0, 70, 56
1, 26131, Note_off_c, 0, 64, 62
1, 26214, Note_on_c, 0, 92, 75
1, 26230, Note_off_c, 0, 92, 69
1, 26327, Note_on_c, 0, 75, 77
1, 26337, Note_on_c, 0, 71, 45
1, 26340, Note_on_c, 0, 63, 43
1, 26343, Note_on_c, 0, 68, 37
1, 26348, Note_off_c, 0, 75, 71
1, 26373, Note_off_c, 0, 71, 46
1, 26392, Note_off_c, 0, 63, 61
1, 26411, Note_off_c, 0, 68, 51
1, 26415, Note_on_c, 0, 87, 70
1, 26500, Note_off_c, 0, 87, 50
1, 26534, Note_on_c, 0, 80, 63
1, 26551, Note_off_c, 0, 80, 65
1, 26629, Note_on_c, 0, 83, 56
1, 26647, Note_off_c, 0, 83, 60
1, 26731, Note_on_c, 0, 87, 73
1, 26766, Note_off_c, 0, 87, 62
1, 26853, Note_on_c, 0, 51, 55
1, 26860, Note_on_c, 0, 99, 34
1, 26894, Note_off_c, 0, 99, 32
1, 26903, Note_off_c, 0, 51, 62
1, 26928, Note_on_c, 0, 61, 45
1, 26989, Note_on_c, 0, 67, 52
1, 26995, Note_on_c, 0, 75, 65
1, 27008, Note_off_c, 0, 61, 62
1, 27010, Note_off_c, 0, 67, 60
1, 27015, Note_off_c, 0, 75, 65
1, 27098, Note_on_c, 0, 87, 54
1, 27174, Note_off_c, 0, 87, 60
1, 27224, Note_on_c, 0, 79, 57
1, 27254, Note_off_c, 0, 79, 55
1, 27346, Note_on_c, 0, 82, 60
1, 27376, Note_off_c, 0, 82, 65
1, 27484, Note_on_c, 0, 87, 58
1, 27528, Note_off_c, 0, 87, 62
1, 27659, Note_on_c, 0, 99, 60
1, 27694, Note_off_c, 0, 99, 67
1, 27816, Note_on_c, 0, 44, 45
1, 27860, Note_off_c, 0, 44, 63
1, 27901, Control_c, 0, 64, 53
1, 27916, Control_c, 0, 64, 64
1, 27931, Control_c, 0, 64, 68
1, 27946, Control_c, 0, 64, 72
1, 27961, Control_c, 0, 64, 77
1, 27976, Control_c, 0, 64, 81
1, 27980, Note_on_c, 0, 59, 42
1, 27990, Control_c, 0, 64, 85
1, 28005, Control_c, 0, 64, 87
1, 28008, Note_off_c, 0, 59, 53
1, 28020, Control_c, 0, 64, 89
1, 28035, Control_c, 0, 64, 90
1, 28050, Control_c, 0, 64, 91
1, 28064, Control_c, 0, 64, 92
1, 28105, Note_on_c, 0, 63, 55
1, 28128, Note_off_c, 0, 63, 62
1, 28203, Note_on_c, 0, 68, 61
1, 28235, Note_off_c, 0, 68, 66
1, 28339, Note_on_c, 0, 75, 59
1, 28363, Note_off_c, 0, 75, 66
1, 28449, Note_on_c, 0, 80, 56
1, 28471, Note_off_c, 0, 80, 63
1, 28488, Control_c, 0, 64, 91
1, 28502, Control_c, 0, 64, 90
1, 28517, Control_c, 0, 64, 87
1, 28532, Control_c, 0, 64, 83
1, 28547, Control_c, 0, 64, 78
1, 28561, Control_c, 0, 64, 69
1, 28573, Note_on_c, 0, 83, 59
1, 28576, Control_c, 0, 64, 42
1, 28591, Control_c, 0, 64, 0
1, 28593, Note_off_c, 0, 83, 63
1, 28738, Note_on_c, 0, 87, 49
1, 28760, Note_off_c, 0, 87, 54
1, 28965, Note_on_c, 0, 92, 55
1, 28984, Note_off_c, 0, 92, 59
1, 29384, Note_on_c, 0, 71, 59
1, 29415, Note_off_c, 0, 71, 64
1, 29571, Note_on_c, 0, 70, 61
1, 29575, Note_on_c, 0, 67, 57
1, 29597, Note_off_c, 0, 67, 64
1, 29603, Note_off_c, 0, 70, 66
1, 29708, Note_on_c, 0, 71, 65
1, 29733, Note_off_c, 0, 71, 65
1, 29829, Note_on_c, 0, 69, 71
1, 29833, Note_on_c, 0, 66, 61
1, 29855, Note_off_c, 0, 69, 68
1, 29859, Note_off_c, 0, 66, 67
1, 29943, Note_on_c, 0, 71, 72
1, 29967, Note_off_c, 0, 71, 67
1, 30062, Note_on_c, 0, 68, 66
1, 30074, Note_on_c, 0, 65, 47
1, 30088, Note_off_c, 0, 68, 67
1, 30098, Note_off_c, 0, 65, 54
1, 30192, Note_on_c, 0, 71, 66
1, 30218, Note_off_c, 0, 71, 66
1, 30322, Note_on_c, 0, 67, 54
1, 30324, Note_on_c, 0, 64, 48
1, 30345, Note_off_c, 0, 67, 64
1, 30346, Note_off_c, 0, 64, 54
1, 30478, Note_on_c, 0, 73, 58
1, 30546, Note_on_c, 0, 71, 55
1, 30560, Note_off_c, 0, 73, 51
1, 30590, Note_off_c, 0, 71, 61
1, 30599, Note_on_c, 0, 70, 67
1, 30641, Note_on_c, 0, 71, 54
1, 30648, Note_off_c, 0, 70, 57
1, 30680, Note_off_c, 0, 71, 61
1, 30700, Note_on_c, 0, 59, 46
1, 30701, Note_on_c, 0, 66, 80
1, 30705, Note_on_c, 0, 63, 55
1, 30723, Note_off_c, 0, 66, 71
1, 30724, Note_off_c, 0, 59, 56
1, 30726, Note_off_c, 0, 63, 61
1, 30836, Note_on_c, 0, 90, 75
1, 30858, Note_off_c, 0, 90, 69
1, 30950, Note_on_c, 0, 71, 75
1, 30951, Note_on_c, 0, 54, 53
1, 30956, Note_on_c, 0, 63, 49
1, 30960, Note_on_c, 0, 66, 45
1, 30972, Note_off_c, 0, 71, 69
1, 30976, Note_off_c, 0, 54, 62
1, 30980, Note_off_c, 0, 63, 56
1, 30985, Note_off_c, 0, 66, 55
1, 31061, Note_on_c, 0, 90, 64
1, 31078, Note_off_c, 0, 90, 65
1, 31183, Note_on_c, 0, 75, 64
1, 31242, Note_off_c, 0, 75, 63
1, 31243, Note_on_c, 0, 73, 52
1, 31272, Note_off_c, 0, 73, 62
1, 31285, Note_on_c, 0, 72, 65
1, 31331, Note_off_c, 0, 72, 65
1, 31335, Note_on_c, 0, 73, 77
1, 31377, Note_off_c, 0, 73, 63
1, 31390, Note_on_c, 0, 58, 66
1, 31392, Note_on_c, 0, 66, 80
1, 31400, Note_on_c, 0, 64, 56
1, 31413, Note_off_c, 0, 66, 72
1, 31416, Note_off_c, 0, 58, 68
1, 31419, Note_off_c, 0, 64, 63
1, 31523, Note_on_c, 0, 90, 78
1, 31544, Note_off_c, 0, 90, 69
1, 31632, Note_on_c, 0, 73, 78
1, 31636, Note_on_c, 0, 64, 55
1, 31644, Note_on_c, 0, 54, 52
1, 31645, Note_on_c, 0, 66, 62
1, 31653, Note_off_c, 0, 73, 69
1, 31657, Note_off_c, 0, 64, 63
1, 31663, Note_off_c, 0, 66, 64
1, 31672, Note_off_c, 0, 54, 62
1, 31773, Note_on_c, 0, 90, 18
1, 31774, Note_off_c, 0, 90, 127
1, 31865, Note_on_c, 0, 76, 65
1, 31893, Note_off_c, 0, 76, 69
1, 31913, Note_on_c, 0, 75, 64
1, 31941, Note_off_c, 0, 75, 65
1, 31953, Note_on_c, 0, 74, 68
1, 32000, Note_on_c, 0, 75, 73
1, 32010, Note_off_c, 0, 74, 65
1, 32040, Note_on_c, 0, 59, 62
1, 32045, Note_off_c, 0, 75, 66
1, 32045, Note_on_c, 0, 63, 61
1, 32052, Note_on_c, 0, 71, 80
1, 32064, Note_off_c, 0, 63, 63
1, 32069, Note_off_c, 0, 59, 64
1, 32072, Note_off_c, 0, 71, 69
1, 32182, Note_on_c, 0, 90, 82
1, 32200, Note_off_c, 0, 90, 71
1, 32307, Note_on_c, 0, 75, 93
1, 32325, Note_off_c, 0, 75, 73
1, 32430, Note_on_c, 0, 74, 65
1, 32437, Note_on_c, 0, 71, 61
1, 32457, Note_off_c, 0, 74, 65
1, 32459, Note_off_c, 0, 71, 63
1, 32549, Note_on_c, 0, 75, 80
1, 32572, Note_off_c, 0, 75, 66
1, 32658, Note_on_c, 0, 70, 62
1, 32658, Note_on_c, 0, 73, 64
1, 32683, Note_off_c, 0, 73, 67
1, 32687, Note_off_c, 0, 70, 66
1, 32785, Note_on_c, 0, 75, 77
1, 32811, Note_off_c, 0, 75, 66
1, 32902, Note_on_c, 0, 69, 65
1, 32909, Note_on_c, 0, 72, 60
1, 32930, Note_off_c, 0, 72, 66
1, 32931, Note_off_c, 0, 69, 68
1, 33028, Note_on_c, 0, 75, 73
1, 33054, Note_off_c, 0, 75, 70
1, 33144, Note_on_c, 0, 71, 52
1, 33151, Note_on_c, 0, 68, 54
1, 33166, Note_off_c, 0, 71, 63
1, 33172, Note_off_c, 0, 68, 60
1, 33290, Note_on_c, 0, 77, 67
1, 33339, Note_off_c, 0, 77, 60
1, 33349, Note_on_c, 0, 75, 62
1, 33378, Note_off_c, 0, 75, 68
1, 33392, Note_on_c, 0, 74, 67
1, 33436, Note_on_c, 0, 75, 74
1, 33438, Note_off_c, 0, 74, 67
1, 33465, Note_off_c, 0, 75, 64
1, 33490, Note_on_c, 0, 70, 80
1, 33508, Note_on_c, 0, 66, 44
1, 33508, Note_on_c, 0, 63, 38
1, 33517, Note_off_c, 0, 70, 70
1, 33533, Note_off_c, 0, 66, 53
1, 33535, Note_off_c, 0, 63, 48
1, 33630, Note_on_c, 0, 94, 77
1, 33653, Note_off_c, 0, 94, 66
1, 33733, Note_on_c, 0, 75, 86
1, 33738, Note_on_c, 0, 58, 61
1, 33743, Note_on_c, 0, 70, 58
1, 33748, Note_on_c, 0, 66, 49
1, 33753, Note_off_c, 0, 75, 72
1, 33762, Note_off_c, 0, 70, 61
1, 33769, Note_off_c, 0, 58, 66
1, 33771, Note_off_c, 0, 66, 59
1, 33856, Note_on_c, 0, 94, 46
1, 33882, Note_off_c, 0, 94, 37
1, 33956, Note_on_c, 0, 78, 79
1, 33999, Note_off_c, 0, 78, 64
1, 34034, Note_on_c, 0, 77, 47
1, 34057, Note_off_c, 0, 77, 53
1, 34063, Note_on_c, 0, 76, 75
1, 34103, Note_off_c, 0, 76, 68
1, 34116, Note_on_c, 0, 77, 72
1, 34149, Note_off_c, 0, 77, 60
1, 34171, Note_on_c, 0, 68, 73
1, 34173, Note_on_c, 0, 70, 84
1, 34191, Note_on_c, 0, 62, 37
1, 34192, Note_off_c, 0, 70, 71
1, 34197, Note_off_c, 0, 68, 69
1, 34224, Note_off_c, 0, 62, 42
1, 34304, Note_on_c, 0, 94, 76
1, 34328, Note_off_c, 0, 94, 66
1, 34406, Note_on_c, 0, 58, 60
1, 34412, Note_on_c, 0, 77, 88
1, 34420, Note_on_c, 0, 70, 64
1, 34424, Note_on_c, 0, 68, 55
1, 34437, Note_off_c, 0, 70, 65
1, 34439, Note_off_c, 0, 77, 62
1, 34441, Note_off_c, 0, 58, 67
1, 34444, Note_off_c, 0, 68, 61
1, 34529, Note_on_c, 0, 94, 74
1, 34552, Note_off_c, 0, 94, 70
1, 34655, Note_on_c, 0, 80, 69
1, 34708, Note_on_c, 0, 78, 62
1, 34713, Note_off_c, 0, 80, 63
1, 34738, Note_off_c, 0, 78, 64
1, 34749, Note_on_c, 0, 77, 71
1, 34791, Note_on_c, 0, 78, 75
1, 34796, Note_off_c, 0, 77, 63
1, 34832, Note_off_c, 0, 78, 63
1, 34837, Note_on_c, 0, 63, 62
1, 34838, Note_on_c, 0, 66, 58
1, 34845, Note_on_c, 0, 75, 86
1, 34854, Note_off_c, 0, 63, 63
1, 34857, Note_off_c, 0, 66, 63
1, 34867, Note_off_c, 0, 75, 69
1, 34972, Note_on_c, 0, 94, 85
1, 34989, Note_off_c, 0, 94, 73
1, 35077, Note_on_c, 0, 78, 106
1, 35101, Note_off_c, 0, 78, 67
1, 35209, Note_on_c, 0, 77, 68
1, 35213, Note_on_c, 0, 74, 57
1, 35237, Note_off_c, 0, 77, 64
1, 35240, Note_off_c, 0, 74, 69
1, 35308, Note_on_c, 0, 78, 80
1, 35340, Note_off_c, 0, 78, 61
1, 35429, Note_on_c, 0, 76, 59
1, 35431, Note_on_c, 0, 73, 60
1, 35452, Note_off_c, 0, 73, 65
1, 35455, Note_off_c, 0, 76, 64
1, 35541, Note_on_c, 0, 78, 70
1, 35565, Note_off_c, 0, 78, 59
1, 35655, Note_on_c, 0, 75, 55
1, 35666, Note_on_c, 0, 72, 49
1, 35680, Note_off_c, 0, 75, 65
1, 35684, Note_off_c, 0, 72, 59
1, 35777, Note_on_c, 0, 78, 78
1, 35798, Note_off_c, 0, 78, 69
1, 35878, Note_on_c, 0, 74, 54
1, 35899, Note_off_c, 0, 74, 67
1, 36020, Note_on_c, 0, 80, 66
1, 36080, Note_on_c, 0, 78, 59
1, 36080, Note_off_c, 0, 80, 61
1, 36099, Note_off_c, 0, 78, 66
1, 36117, Note_on_c, 0, 77, 61
1, 36158, Note_on_c, 0, 78, 80
1, 36163, Note_off_c, 0, 77, 63
1, 36186, Note_off_c, 0, 78, 59
1, 36215, Note_on_c, 0, 73, 79
1, 36218, Note_on_c, 0, 66, 50
1, 36223, Note_on_c, 0, 70, 44
1, 36236, Note_off_c, 0, 73, 70
1, 36239, Note_off_c, 0, 66, 62
1, 36249, Note_off_c, 0, 70, 50
1, 36347, Note_on_c, 0, 97, 83
1, 36367, Note_off_c, 0, 97, 71
1, 36453, Note_on_c, 0, 78, 87
1, 36456, Note_on_c, 0, 61, 64
1, 36471, Note_off_c, 0, 78, 71
1, 36472, Note_on_c, 0, 73, 49
1, 36489, Note_off_c, 0, 61, 65
1, 36502, Note_off_c, 0, 73, 51
1, 36567, Note_on_c, 0, 97, 79
1, 36586, Note_off_c, 0, 97, 71
1, 36689, Note_on_c, 0, 82, 71
1, 36737, Note_on_c, 0, 80, 67
1, 36741, Note_off_c, 0, 82, 63
1, 36767, Note_off_c, 0, 80, 65
1, 36781, Note_on_c, 0, 79, 70
1, 36835, Note_off_c, 0, 79, 63
1, 36837, Note_on_c, 0, 80, 66
1, 36877, Note_on_c, 0, 73, 83
1, 36882, Note_on_c, 0, 71, 56
1, 36887, Note_off_c, 0, 80, 63
1, 36889, Note_on_c, 0, 65, 48
1, 36899, Note_off_c, 0, 73, 68
1, 36902, Note_off_c, 0, 71, 58
1, 36912, Note_off_c, 0, 65, 59
1, 37012, Note_on_c, 0, 97, 82
1, 37031, Note_off_c, 0, 97, 72
1, 37120, Note_on_c, 0, 61, 55
1, 37122, Note_on_c, 0, 73, 60
1, 37122, Note_on_c, 0, 80, 87
1, 37144, Note_off_c, 0, 73, 64
1, 37146, Note_off_c, 0, 80, 65
1, 37148, Note_off_c, 0, 61, 63
1, 37234, Note_on_c, 0, 97, 83
1, 37267, Note_off_c, 0, 97, 63
1, 37356, Note_on_c, 0, 82, 82
1, 37366, Note_on_c, 0, 78, 66
1, 37375, Note_off_c, 0, 82, 71
1, 37392, Note_off_c, 0, 78, 68
1, 37476, Note_on_c, 0, 83, 72
1, 37483, Note_on_c, 0, 80, 55
1, 37503, Note_off_c, 0, 80, 62
1, 37503, Note_off_c, 0, 83, 64
1, 37574, Note_on_c, 0, 66, 63
1, 37592, Note_off_c, 0, 66, 68
1, 37605, Control_c, 0, 64, 26
1, 37620, Control_c, 0, 64, 65
1, 37633, Note_on_c, 0, 85, 78
1, 37635, Control_c, 0, 64, 72
1, 37649, Control_c, 0, 64, 78
1, 37656, Note_on_c, 0, 82, 65
1, 37664, Control_c, 0, 64, 83
1, 37674, Note_off_c, 0, 82, 66
1, 37680, Control_c, 0, 64, 86
1, 37695, Control_c, 0, 64, 88
1, 37710, Control_c, 0, 64, 90
1, 37725, Control_c, 0, 64, 92
1, 37740, Control_c, 0, 64, 94
1, 37753, Note_off_c, 0, 85, 31
1, 37754, Control_c, 0, 64, 96
1, 37769, Control_c, 0, 64, 96
1, 37778, Note_on_c, 0, 97, 75
1, 37780, Note_on_c, 0, 94, 73
1, 37801, Note_off_c, 0, 94, 70
1, 37804, Note_off_c, 0, 97, 67
1, 37858, Control_c, 0, 64, 94
1, 37872, Control_c, 0, 64, 88
1, 37887, Control_c, 0, 64, 79
1, 37901, Note_on_c, 0, 80, 67
1, 37902, Control_c, 0, 64, 68
1, 37911, Note_on_c, 0, 83, 78
1, 37917, Note_off_c, 0, 80, 66
1, 37917, Control_c, 0, 64, 0
1, 37932, Note_off_c, 0, 83, 66
1, 38036, Note_on_c, 0, 78, 62
1, 38038, Note_on_c, 0, 82, 74
1, 38054, Note_off_c, 0, 78, 64
1, 38062, Note_off_c, 0, 82, 68
1, 38151, Note_on_c, 0, 80, 81
1, 38160, Note_on_c, 0, 71, 51
1, 38171, Note_off_c, 0, 80, 72
1, 38198, Note_off_c, 0, 71, 60
1, 38260, Note_on_c, 0, 73, 57
1, 38269, Note_on_c, 0, 82, 69
1, 38280, Note_off_c, 0, 73, 56
1, 38296, Note_off_c, 0, 82, 67
1, 38354, Control_c, 0, 64, 48
1, 38369, Control_c, 0, 64, 64
1, 38379, Note_on_c, 0, 59, 20
1, 38380, Note_off_c, 0, 59, 127
1, 38384, Control_c, 0, 64, 68
1, 38398, Control_c, 0, 64, 72
1, 38413, Control_c, 0, 64, 75
1, 38417, Note_on_c, 0, 83, 72
1, 38428, Control_c, 0, 64, 79
1, 38430, Note_on_c, 0, 75, 64
1, 38443, Control_c, 0, 64, 82
1, 38448, Note_off_c, 0, 75, 66
1, 38458, Control_c, 0, 64, 84
1, 38463, Note_off_c, 0, 83, 56
1, 38474, Control_c, 0, 64, 85
1, 38489, Control_c, 0, 64, 86
1, 38503, Control_c, 0, 64, 87
1, 38518, Control_c, 0, 64, 88
1, 38533, Control_c, 0, 64, 88
1, 38540, Note_on_c, 0, 95, 73
1, 38547, Note_on_c, 0, 87, 76
1, 38548, Control_c, 0, 64, 89
1, 38571, Note_off_c, 0, 95, 65
1, 38576, Note_off_c, 0, 87, 62
1, 38636, Control_c, 0, 64, 88
1, 38651, Control_c, 0, 64, 85
1, 38662, Note_on_c, 0, 73, 69
1, 38666, Control_c, 0, 64, 79
1, 38677, Note_on_c, 0, 82, 74
1, 38681, Control_c, 0, 64, 71
1, 38686, Note_off_c, 0, 73, 65
1, 38695, Control_c, 0, 64, 60
1, 38706, Note_off_c, 0, 82, 61
1, 38710, Control_c, 0, 64, 0
1, 38795, Note_on_c, 0, 71, 55
1, 38796, Note_on_c, 0, 80, 71
1, 38815, Note_off_c, 0, 71, 58
1, 38820, Note_off_c, 0, 80, 69
1, 38900, Note_on_c, 0, 70, 59
1, 38908, Note_on_c, 0, 78, 79
1, 38930, Note_off_c, 0, 78, 69
1, 38935, Note_off_c, 0, 70, 61
1, 39014, Note_on_c, 0, 80, 72
1, 39020, Note_on_c, 0, 71, 55
1, 39037, Note_off_c, 0, 80, 70
1, 39039, Note_off_c, 0, 71, 59
1, 39103, Control_c, 0, 64, 44
1, 39118, Control_c, 0, 64, 62
1, 39131, Note_on_c, 0, 61, 59
1, 39132, Note_on_c, 0, 82, 77
1, 39133, Control_c, 0, 64, 66
1, 39145, Note_on_c, 0, 73, 57
1, 39147, Control_c, 0, 64, 69
1, 39157, Note_off_c, 0, 82, 66
1, 39162, Note_off_c, 0, 61, 64
1, 39162, Control_c, 0, 64, 73
1, 39164, Note_off_c, 0, 73, 63
1, 39177, Control_c, 0, 64, 77
1, 39192, Control_c, 0, 64, 80
1, 39207, Control_c, 0, 64, 81
1, 39240, Note_on_c, 0, 94, 70
1, 39247, Note_on_c, 0, 85, 68
1, 39264, Note_off_c, 0, 94, 70
1, 39273, Note_off_c, 0, 85, 69
1, 39341, Control_c, 0, 64, 80
1, 39356, Control_c, 0, 64, 79
1, 39366, Note_on_c, 0, 71, 52
1, 39370, Control_c, 0, 64, 75
1, 39372, Note_on_c, 0, 80, 72
1, 39385, Control_c, 0, 64, 68
1, 39387, Note_off_c, 0, 71, 53
1, 39400, Control_c, 0, 64, 55
1, 39401, Note_off_c, 0, 80, 67
1, 39415, Control_c, 0, 64, 0
1, 39485, Note_on_c, 0, 78, 70
1, 39498, Note_on_c, 0, 70, 60
1, 39518, Note_off_c, 0, 78, 67
1, 39519, Note_off_c, 0, 70, 64
1, 39611, Note_on_c, 0, 77, 69
1, 39620, Note_on_c, 0, 68, 56
1, 39642, Note_off_c, 0, 68, 64
1, 39643, Note_off_c, 0, 77, 62
1, 39724, Note_on_c, 0, 78, 68
1, 39734, Note_on_c, 0, 70, 55
1, 39753, Note_off_c, 0, 78, 64
1, 39755, Note_off_c, 0, 70, 62
1, 39837, Control_c, 0, 64, 44
1, 39852, Control_c, 0, 64, 61
1, 39861, Note_on_c, 0, 61, 59
1, 39861, Note_on_c, 0, 80, 69
1, 39867, Control_c, 0, 64, 64
1, 39882, Control_c, 0, 64, 66
1, 39885, Note_on_c, 0, 71, 32
1, 39893, Note_off_c, 0, 80, 63
1, 39895, Note_off_c, 0, 61, 63
1, 39896, Control_c, 0, 64, 68
1, 39911, Control_c, 0, 64, 71
1, 39915, Note_off_c, 0, 71, 33
1, 39926, Control_c, 0, 64, 74
1, 39941, Control_c, 0, 64, 76
1, 39956, Control_c, 0, 64, 77
1, 39997, Note_on_c, 0, 92, 67
1, 40003, Note_on_c, 0, 83, 60
1, 40024, Note_off_c, 0, 92, 67
1, 40034, Note_off_c, 0, 83, 64
1, 40044, Control_c, 0, 64, 76
1, 40059, Control_c, 0, 64, 75
1, 40075, Control_c, 0, 64, 73
1, 40090, Control_c, 0, 64, 70
1, 40105, Control_c, 0, 64, 65
1, 40120, Control_c, 0, 64, 56
1, 40135, Control_c, 0, 64, 37
1, 40149, Control_c, 0, 64, 26
1, 40152, Note_on_c, 0, 75, 65
1, 40162, Note_on_c, 0, 66, 53
1, 40164, Control_c, 0, 64, 0
1, 40180, Note_off_c, 0, 75, 68
1, 40200, Note_off_c, 0, 66, 65
1, 40300, Note_on_c, 0, 68, 52
1, 40316, Note_on_c, 0, 77, 62
1, 40322, Note_off_c, 0, 68, 59
1, 40344, Note_off_c, 0, 77, 66
1, 40426, Note_on_c, 0, 54, 55
1, 40450, Note_off_c, 0, 54, 58
1, 40453, Control_c, 0, 64, 36
1, 40468, Control_c, 0, 64, 60
1, 40482, Control_c, 0, 64, 64
1, 40497, Control_c, 0, 64, 67
1, 40512, Control_c, 0, 64, 69
1, 40526, Control_c, 0, 64, 74
1, 40540, Note_on_c, 0, 78, 58
1, 40541, Control_c, 0, 64, 78
1, 40548, Note_on_c, 0, 70, 55
1, 40556, Control_c, 0, 64, 80
1, 40571, Control_c, 0, 64, 82
1, 40574, Note_off_c, 0, 70, 58
1, 40581, Note_off_c, 0, 78, 51
1, 40586, Control_c, 0, 64, 83
1, 40600, Control_c, 0, 64, 84
1, 40615, Control_c, 0, 64, 86
1, 40630, Control_c, 0, 64, 87
1, 40645, Control_c, 0, 64, 88
1, 40660, Control_c, 0, 64, 88
1, 40674, Control_c, 0, 64, 89
1, 40689, Control_c, 0, 64, 89
1, 40734, Control_c, 0, 64, 90
1, 40773, Note_on_c, 0, 90, 61
1, 40785, Note_on_c, 0, 82, 49
1, 40793, Control_c, 0, 64, 90
1, 40823, Note_off_c, 0, 82, 57
1, 40871, Note_off_c, 0, 90, 50
1, 40946, Note_on_c, 0, 66, 55
1, 41003, Note_off_c, 0, 66, 59
1, 41117, Note_on_c, 0, 78, 65
1, 41145, Note_off_c, 0, 78, 66
1, 41232, Note_on_c, 0, 67, 65
1, 41284, Note_off_c, 0, 67, 55
1, 41354, Note_on_c, 0, 79, 63
1, 41381, Note_off_c, 0, 79, 66
1, 41453, Control_c, 0, 64, 89
1, 41467, Note_on_c, 0, 68, 76
1, 41468, Control_c, 0, 64, 84
1, 41483, Control_c, 0, 64, 75
1, 41497, Control_c, 0, 64, 64
1, 41500, Note_off_c, 0, 68, 61
1, 41512, Control_c, 0, 64, 0
1, 41584, Note_on_c, 0, 80, 63
1, 41616, Note_off_c, 0, 80, 64
1, 41727, Note_on_c, 0, 64, 57
1, 41727, Note_on_c, 0, 92, 77
1, 41743, Note_on_c, 0, 68, 44
1, 41758, Note_off_c, 0, 64, 65
1, 41764, Note_off_c, 0, 92, 58
1, 41768, Note_off_c, 0, 68, 53
1, 41856, Note_on_c, 0, 80, 66
1, 41874, Note_off_c, 0, 80, 65
1, 41970, Note_on_c, 0, 63, 57
1, 41970, Note_on_c, 0, 92, 74
1, 41978, Note_on_c, 0, 68, 42
1, 41992, Note_off_c, 0, 63, 64
1, 42000, Note_off_c, 0, 92, 62
1, 42004, Note_off_c, 0, 68, 52
1, 42073, Note_on_c, 0, 78, 72
1, 42097, Note_off_c, 0, 78, 69
1, 42187, Note_on_c, 0, 92, 72
1, 42188, Note_on_c, 0, 61, 60
1, 42205, Note_on_c, 0, 68, 38
1, 42213, Note_off_c, 0, 92, 66
1, 42218, Note_off_c, 0, 61, 65
1, 42235, Note_off_c, 0, 68, 47
1, 42307, Note_on_c, 0, 76, 37
1, 42334, Note_off_c, 0, 76, 39
1, 42415, Note_on_c, 0, 102, 82
1, 42436, Note_off_c, 0, 102, 65
1, 42438, Note_on_c, 0, 75, 51
1, 42460, Note_off_c, 0, 75, 57
1, 42540, Note_on_c, 0, 80, 68
1, 42557, Note_off_c, 0, 80, 66
1, 42654, Note_on_c, 0, 73, 61
1, 42672, Note_off_c, 0, 73, 64
1, 42676, Note_on_c, 0, 98, 52
1, 42692, Note_on_c, 0, 100, 24
1, 42693, Note_off_c, 0, 100, 127
1, 42698, Note_off_c, 0, 98, 57
1, 42780, Note_on_c, 0, 56, 65
1, 42785, Note_on_c, 0, 80, 62
1, 42802, Note_off_c, 0, 80, 65
1, 42806, Note_off_c, 0, 56, 66
1, 42892, Note_on_c, 0, 72, 64
1, 42893, Note_on_c, 0, 99, 75
1, 42917, Note_off_c, 0, 99, 71
1, 42919, Note_off_c, 0, 72, 68
1, 42999, Note_on_c, 0, 80, 71
1, 43017, Note_off_c, 0, 80, 67
1, 43098, Note_on_c, 0, 70, 64
1, 43106, Note_on_c, 0, 97, 73
1, 43120, Note_off_c, 0, 70, 64
1, 43127, Note_off_c, 0, 97, 69
1, 43197, Note_on_c, 0, 80, 70
1, 43221, Note_off_c, 0, 80, 70
1, 43306, Note_on_c, 0, 72, 60
1, 43310, Note_on_c, 0, 99, 84
1, 43322, Note_off_c, 0, 72, 63
1, 43332, Note_off_c, 0, 99, 73
1, 43414, Note_on_c, 0, 80, 65
1, 43430, Note_off_c, 0, 80, 66
1, 43511, Note_on_c, 0, 100, 84
1, 43515, Note_on_c, 0, 73, 54
1, 43516, Note_on_c, 0, 61, 47
1, 43532, Note_off_c, 0, 100, 68
1, 43536, Note_off_c, 0, 73, 63
1, 43540, Note_off_c, 0, 61, 60
1, 43622, Note_on_c, 0, 80, 79
1, 43641, Note_off_c, 0, 80, 72
1, 43723, Note_on_c, 0, 97, 85
1, 43731, Note_on_c, 0, 76, 64
1, 43747, Note_off_c, 0, 97, 64
1, 43750, Note_off_c, 0, 76, 69
1, 43817, Note_on_c, 0, 80, 77
1, 43838, Note_off_c, 0, 80, 71
1, 43909, Note_on_c, 0, 67, 93
1, 43987, Control_c, 0, 64, 48
1, 44002, Control_c, 0, 64, 65
1, 44007, Note_off_c, 0, 67, 54
1, 44009, Note_on_c, 0, 79, 71
1, 44016, Control_c, 0, 64, 69
1, 44031, Control_c, 0, 64, 73
1, 44037, Note_off_c, 0, 79, 66
1, 44046, Control_c, 0, 64, 77
1, 44061, Control_c, 0, 64, 80
1, 44077, Control_c, 0, 64, 82
1, 44092, Control_c, 0, 64, 82
1, 44111, Note_on_c, 0, 66, 80
1, 44136, Control_c, 0, 64, 80
1, 44137, Note_off_c, 0, 66, 67
1, 44151, Control_c, 0, 64, 74
1, 44165, Control_c, 0, 64, 63
1, 44180, Control_c, 0, 64, 0
1, 44204, Note_on_c, 0, 78, 70
1, 44234, Note_off_c, 0, 78, 64
1, 44320, Note_on_c, 0, 63, 62
1, 44324, Note_on_c, 0, 66, 48
1, 44338, Note_on_c, 0, 90, 65
1, 44346, Note_off_c, 0, 66, 61
1, 44348, Note_off_c, 0, 63, 67
1, 44362, Note_off_c, 0, 90, 67
1, 44440, Note_on_c, 0, 78, 62
1, 44461, Note_off_c, 0, 78, 61
1, 44541, Note_on_c, 0, 61, 58
1, 44552, Note_on_c, 0, 90, 68
1, 44556, Note_on_c, 0, 66, 43
1, 44570, Note_off_c, 0, 61, 65
1, 44577, Note_off_c, 0, 90, 67
1, 44580, Note_off_c, 0, 66, 54
1, 44655, Note_on_c, 0, 76, 62
1, 44676, Note_off_c, 0, 76, 68
1, 44785, Note_on_c, 0, 90, 76
1, 44786, Note_on_c, 0, 59, 51
1, 44797, Note_on_c, 0, 66, 34
1, 44813, Note_off_c, 0, 90, 64
1, 44821, Note_off_c, 0, 59, 63
1, 44825, Note_off_c, 0, 66, 54
1, 44909, Note_on_c, 0, 75, 56
1, 44928, Note_off_c, 0, 75, 60
1, 45048, Note_on_c, 0, 100, 77
1, 45058, Note_on_c, 0, 73, 55
1, 45067, Note_off_c, 0, 100, 71
1, 45077, Note_off_c, 0, 73, 62
1, 45182, Note_on_c, 0, 78, 57
1, 45202, Note_off_c, 0, 78, 57
1, 45290, Note_on_c, 0, 99, 84
1, 45306, Note_on_c, 0, 71, 32
1, 45313, Note_off_c, 0, 99, 71
1, 45338, Note_off_c, 0, 71, 33
1, 45412, Note_on_c, 0, 78, 61
1, 45413, Note_on_c, 0, 54, 68
1, 45430, Note_off_c, 0, 78, 62
1, 45445, Note_off_c, 0, 54, 63
1, 45528, Note_on_c, 0, 97, 82
1, 45547, Note_on_c, 0, 70, 56
1, 45549, Note_off_c, 0, 97, 68
1, 45566, Note_off_c, 0, 70, 61
1, 45635, Note_on_c, 0, 78, 70
1, 45657, Note_off_c, 0, 78, 67
1, 45749, Note_on_c, 0, 95, 75
1, 45751, Note_on_c, 0, 68, 58
1, 45771, Note_off_c, 0, 68, 62
1, 45774, Note_off_c, 0, 95, 70
1, 45849, Note_on_c, 0, 78, 72
1, 45865, Note_off_c, 0, 78, 68
1, 45943, Note_on_c, 0, 97, 82
1, 45954, Note_on_c, 0, 70, 56
1, 45963, Note_off_c, 0, 97, 70
1, 45975, Note_off_c, 0, 70, 60
1, 46043, Note_on_c, 0, 78, 72
1, 46058, Note_off_c, 0, 78, 66
1, 46135, Note_on_c, 0, 59, 45
1, 46144, Note_on_c, 0, 99, 80
1, 46153, Note_on_c, 0, 71, 54
1, 46158, Note_off_c, 0, 99, 72
1, 46164, Note_off_c, 0, 59, 54
1, 46250, Note_on_c, 0, 78, 78
1, 46273, Note_off_c, 0, 78, 70
1, 46348, Note_on_c, 0, 75, 71
1, 46356, Note_on_c, 0, 95, 79
1, 46356, Note_off_c, 0, 71, 61
1, 46373, Note_off_c, 0, 75, 69
1, 46374, Note_off_c, 0, 95, 66
1, 46439, Note_on_c, 0, 78, 84
1, 46460, Note_off_c, 0, 78, 70
1, 46532, Note_on_c, 0, 62, 88
1, 46618, Note_off_c, 0, 62, 45
1, 46619, Note_on_c, 0, 74, 78
1, 46638, Note_off_c, 0, 74, 72
1, 46710, Note_on_c, 0, 63, 83
1, 46740, Note_off_c, 0, 63, 65
1, 46798, Note_on_c, 0, 75, 69
1, 46827, Note_off_c, 0, 75, 68
1, 46904, Note_on_c, 0, 55, 57
1, 46904, Note_on_c, 0, 63, 68
1, 46908, Note_on_c, 0, 87, 84
1, 46933, Note_off_c, 0, 63, 67
1, 46939, Note_off_c, 0, 55, 65
1, 46958, Note_off_c, 0, 87, 58
1, 47006, Note_on_c, 0, 75, 73
1, 47033, Note_off_c, 0, 75, 66
1, 47095, Note_on_c, 0, 65, 72
1, 47099, Note_on_c, 0, 87, 79
1, 47107, Note_on_c, 0, 56, 59
1, 47120, Note_off_c, 0, 65, 69
1, 47129, Note_off_c, 0, 56, 63
1, 47167, Note_off_c, 0, 87, 62
1, 47185, Note_on_c, 0, 74, 80
1, 47224, Note_off_c, 0, 74, 67
1, 47282, Note_on_c, 0, 87, 82
1, 47284, Note_on_c, 0, 67, 78
1, 47289, Note_on_c, 0, 58, 72
1, 47307, Note_off_c, 0, 67, 68
1, 47318, Note_off_c, 0, 58, 66
1, 47341, Note_off_c, 0, 87, 64
1, 47372, Note_on_c, 0, 73, 85
1, 47409, Note_off_c, 0, 73, 62
1, 47476, Note_on_c, 0, 58, 77
1, 47476, Note_on_c, 0, 67, 74
1, 47476, Note_on_c, 0, 87, 75
1, 47507, Note_off_c, 0, 67, 61
1, 47507, Note_off_c, 0, 58, 62
1, 47532, Note_off_c, 0, 87, 64
1, 47554, Note_on_c, 0, 73, 81
1, 47591, Note_off_c, 0, 73, 63
1, 47644, Note_on_c, 0, 87, 79
1, 47648, Note_on_c, 0, 59, 73
1, 47648, Note_on_c, 0, 68, 81
1, 47679, Note_off_c, 0, 87, 65
1, 47680, Note_off_c, 0, 68, 62
1, 47683, Note_off_c, 0, 59, 62
1, 47741, Note_on_c, 0, 71, 78
1, 47766, Note_off_c, 0, 71, 65
1, 47849, Note_on_c, 0, 70, 89
1, 47852, Note_on_c, 0, 88, 89
1, 47855, Note_on_c, 0, 76, 82
1, 47860, Note_on_c, 0, 61, 72
1, 47870, Note_off_c, 0, 70, 69
1, 47883, Note_off_c, 0, 76, 66
1, 47887, Note_off_c, 0, 61, 67
1, 47888, Note_off_c, 0, 88, 62
1, 47940, Note_on_c, 0, 82, 76
1, 47945, Note_on_c, 0, 87, 77
1, 47970, Note_off_c, 0, 82, 63
1, 47979, Note_off_c, 0, 87, 64
1, 48044, Note_on_c, 0, 85, 91
1, 48052, Note_on_c, 0, 73, 81
1, 48073, Note_off_c, 0, 73, 71
1, 48077, Note_off_c, 0, 85, 64
1, 48132, Note_on_c, 0, 83, 84
1, 48148, Note_on_c, 0, 76, 63
1, 48165, Note_off_c, 0, 76, 67
1, 48176, Note_on_c, 0, 77, 25
1, 48178, Note_off_c, 0, 83, 61
1, 48199, Note_off_c, 0, 77, 36
1, 48229, Note_on_c, 0, 62, 74
1, 48232, Note_on_c, 0, 65, 73
1, 48243, Note_on_c, 0, 82, 94
1, 48249, Note_on_c, 0, 71, 82
1, 48255, Note_off_c, 0, 62, 65
1, 48255, Note_off_c, 0, 65, 69
1, 48268, Note_off_c, 0, 71, 69
1, 48300, Note_off_c, 0, 82, 57
1, 48333, Note_on_c, 0, 77, 80
1, 48334, Note_on_c, 0, 80, 79
1, 48384, Note_off_c, 0, 77, 60
1, 48387, Note_off_c, 0, 80, 63
1, 48428, Note_on_c, 0, 67, 86
1, 48434, Note_on_c, 0, 63, 85
1, 48438, Note_on_c, 0, 79, 89
1, 48440, Note_on_c, 0, 70, 84
1, 48447, Note_off_c, 0, 67, 71
1, 48458, Note_off_c, 0, 63, 70
1, 48461, Note_off_c, 0, 70, 69
1, 48481, Note_off_c, 0, 79, 63
1, 48540, Note_on_c, 0, 82, 86
1, 48553, Note_on_c, 0, 75, 67
1, 48570, Note_off_c, 0, 75, 67
1, 48577, Note_off_c, 0, 82, 68
1, 48636, Note_on_c, 0, 83, 79
1, 48640, Note_on_c, 0, 79, 80
1, 48664, Note_off_c, 0, 79, 66
1, 48669, Note_off_c, 0, 83, 61
1, 48717, Note_on_c, 0, 82, 90
1, 48734, Note_on_c, 0, 75, 56
1, 48751, Note_off_c, 0, 82, 66
1, 48757, Note_off_c, 0, 75, 41
1, 48811, Note_on_c, 0, 74, 69
1, 48901, Note_on_c, 0, 86, 57
1, 48912, Note_off_c, 0, 74, 54
1, 48921, Note_off_c, 0, 86, 59
1, 48982, Note_on_c, 0, 75, 72
1, 49007, Note_off_c, 0, 75, 70
1, 49050, Note_on_c, 0, 87, 69
1, 49080, Note_off_c, 0, 87, 64
1, 49163, Note_on_c, 0, 67, 49
1, 49171, Note_on_c, 0, 99, 76
1, 49190, Note_off_c, 0, 67, 56
1, 49242, Note_off_c, 0, 99, 65
1, 49271, Note_on_c, 0, 87, 58
1, 49303, Note_off_c, 0, 87, 62
1, 49352, Note_on_c, 0, 77, 56
1, 49361, Note_on_c, 0, 68, 46
1, 49367, Note_on_c, 0, 99, 65
1, 49376, Note_off_c, 0, 77, 59
1, 49389, Note_off_c, 0, 68, 57
1, 49427, Note_off_c, 0, 99, 67
1, 49470, Note_on_c, 0, 86, 62
1, 49501, Note_off_c, 0, 86, 65
1, 49569, Note_on_c, 0, 70, 50
1, 49574, Note_on_c, 0, 99, 70
1, 49582, Note_on_c, 0, 79, 39
1, 49601, Note_off_c, 0, 70, 53
1, 49612, Note_off_c, 0, 79, 53
1, 49616, Control_c, 0, 64, 46
1, 49630, Control_c, 0, 64, 60
1, 49632, Note_off_c, 0, 99, 65
1, 49645, Control_c, 0, 64, 64
1, 49659, Note_on_c, 0, 97, 6
1, 49661, Control_c, 0, 64, 66
1, 49676, Control_c, 0, 64, 68
1, 49680, Note_on_c, 0, 85, 65
1, 49691, Control_c, 0, 64, 71
1, 49706, Control_c, 0, 64, 74
1, 49713, Note_off_c, 0, 85, 63
1, 49714, Note_off_c, 0, 97, 47
1, 49721, Control_c, 0, 64, 77
1, 49735, Control_c, 0, 64, 77
1, 49750, Control_c, 0, 64, 78
1, 49791, Note_on_c, 0, 99, 71
1, 49799, Note_on_c, 0, 70, 57
1, 49809, Control_c, 0, 64, 78
1, 49814, Note_on_c, 0, 79, 43
1, 49833, Note_off_c, 0, 70, 49
1, 49839, Control_c, 0, 64, 79
1, 49841, Note_off_c, 0, 79, 54
1, 49848, Note_off_c, 0, 99, 66
1, 49868, Control_c, 0, 64, 79
1, 49891, Note_on_c, 0, 85, 63
1, 49912, Note_off_c, 0, 85, 62
1, 49927, Control_c, 0, 64, 80
1, 49942, Control_c, 0, 64, 80
1, 49972, Control_c, 0, 64, 81
1, 50008, Note_on_c, 0, 99, 63
1, 50026, Note_on_c, 0, 71, 48
1, 50033, Note_on_c, 0, 80, 45
1, 50039, Control_c, 0, 64, 78
1, 50044, Note_off_c, 0, 99, 67
1, 50053, Control_c, 0, 64, 71
1, 50068, Control_c, 0, 64, 57
1, 50077, Note_off_c, 0, 80, 47
1, 50083, Control_c, 0, 64, 0
1, 50091, Note_off_c, 0, 71, 40
1, 50098, Control_c, 0, 64, 23
1, 50112, Control_c, 0, 64, 59
1, 50127, Control_c, 0, 64, 66
1, 50130, Note_on_c, 0, 83, 61
1, 50142, Control_c, 0, 64, 70
1, 50157, Control_c, 0, 64, 76
1, 50158, Note_off_c, 0, 83, 62
1, 50172, Control_c, 0, 64, 81
1, 50187, Control_c, 0, 64, 86
1, 50201, Control_c, 0, 64, 88
1, 50216, Control_c, 0, 64, 89
1, 50231, Control_c, 0, 64, 91
1, 50246, Control_c, 0, 64, 92
1, 50276, Control_c, 0, 64, 90
1, 50279, Note_on_c, 0, 73, 46
1, 50291, Control_c, 0, 64, 82
1, 50292, Note_on_c, 0, 100, 70
1, 50304, Note_on_c, 0, 88, 58
1, 50305, Control_c, 0, 64, 73
1, 50320, Control_c, 0, 64, 67
1, 50323, Note_off_c, 0, 88, 61
1, 50324, Note_on_c, 0, 81, 18
1, 50335, Control_c, 0, 64, 66
1, 50350, Control_c, 0, 64, 70
1, 50365, Control_c, 0, 64, 76
1, 50366, Note_off_c, 0, 100, 33
1, 50371, Note_off_c, 0, 81, 45
1, 50379, Control_c, 0, 64, 83
1, 50394, Control_c, 0, 64, 87
1, 50397, Note_on_c, 0, 99, 64
1, 50404, Note_on_c, 0, 93, 56
1, 50409, Control_c, 0, 64, 90
1, 50424, Control_c, 0, 64, 92
1, 50426, Note_off_c, 0, 93, 61
1, 50431, Note_off_c, 0, 99, 68
1, 50439, Control_c, 0, 64, 95
1, 50455, Control_c, 0, 64, 98
1, 50462, Note_off_c, 0, 73, 30
1, 50470, Control_c, 0, 64, 101
1, 50484, Control_c, 0, 64, 102
1, 50499, Control_c, 0, 64, 103
1, 50511, Note_on_c, 0, 97, 76
1, 50514, Control_c, 0, 64, 103
1, 50528, Control_c, 0, 64, 104
1, 50533, Note_on_c, 0, 85, 38
1, 50537, Note_off_c, 0, 97, 61
1, 50543, Control_c, 0, 64, 104
1, 50563, Note_off_c, 0, 85, 52
1, 50573, Control_c, 0, 64, 105
1, 50615, Note_on_c, 0, 95, 71
1, 50621, Note_on_c, 0, 88, 53
1, 50632, Control_c, 0, 64, 105
1, 50643, Note_off_c, 0, 88, 61
1, 50663, Note_off_c, 0, 95, 64
1, 50721, Control_c, 0, 64, 101
1, 50743, Control_c, 0, 64, 91
1, 50750, Note_on_c, 0, 94, 78
1, 50751, Note_on_c, 0, 77, 48
1, 50756, Note_on_c, 0, 74, 43
1, 50758, Control_c, 0, 64, 78
1, 50765, Note_on_c, 0, 83, 45
1, 50773, Control_c, 0, 64, 61
1, 50788, Control_c, 0, 64, 0
1, 50790, Note_off_c, 0, 83, 36
1, 50803, Control_c, 0, 64, 46
1, 50809, Note_off_c, 0, 74, 43
1, 50817, Control_c, 0, 64, 65
1, 50832, Control_c, 0, 64, 73
1, 50847, Control_c, 0, 64, 80
1, 50862, Control_c, 0, 64, 86
1, 50871, Note_off_c, 0, 77, 25
1, 50873, Note_on_c, 0, 92, 65
1, 50876, Control_c, 0, 64, 88
1, 50878, Note_off_c, 0, 94, 33
1, 50881, Note_on_c, 0, 89, 57
1, 50891, Control_c, 0, 64, 91
1, 50906, Control_c, 0, 64, 95
1, 50921, Control_c, 0, 64, 99
1, 50932, Note_off_c, 0, 89, 53
1, 50935, Control_c, 0, 64, 103
1, 50950, Control_c, 0, 64, 107
1, 50966, Control_c, 0, 64, 110
1, 50968, Note_off_c, 0, 92, 62
1, 50981, Control_c, 0, 64, 111
1, 50996, Control_c, 0, 64, 111
1, 51010, Control_c, 0, 64, 111
1, 51023, Note_on_c, 0, 91, 61
1, 51025, Control_c, 0, 64, 110
1, 51033, Note_on_c, 0, 82, 44
1, 51040, Control_c, 0, 64, 106
1, 51048, Note_on_c, 0, 75, 45
1, 51055, Control_c, 0, 64, 94
1, 51059, Note_off_c, 0, 82, 56
1, 51070, Control_c, 0, 64, 81
1, 51084, Control_c, 0, 64, 66
1, 51085, Note_on_c, 0, 79, 33
1, 51099, Control_c, 0, 64, 0
1, 51141, Note_off_c, 0, 75, 44
1, 51143, Control_c, 0, 64, 62
1, 51158, Control_c, 0, 64, 72
1, 51173, Control_c, 0, 64, 80
1, 51185, Note_on_c, 0, 94, 51
1, 51188, Control_c, 0, 64, 87
1, 51202, Note_on_c, 0, 87, 17
1, 51203, Control_c, 0, 64, 92
1, 51213, Note_off_c, 0, 91, 29
1, 51218, Control_c, 0, 64, 96
1, 51222, Note_off_c, 0, 79, 37
1, 51225, Note_off_c, 0, 87, 45
1, 51227, Note_off_c, 0, 94, 61
1, 51233, Control_c, 0, 64, 100
1, 51248, Control_c, 0, 64, 105
1, 51263, Control_c, 0, 64, 109
1, 51278, Control_c, 0, 64, 113
1, 51293, Control_c, 0, 64, 116
1, 51304, Note_on_c, 0, 74, 51
1, 51307, Control_c, 0, 64, 120
1, 51322, Control_c, 0, 64, 124
1, 51336, Note_off_c, 0, 74, 68
1, 51337, Control_c, 0, 64, 127
1, 51400, Note_on_c, 0, 86, 55
1, 51435, Note_off_c, 0, 86, 63
1, 51501, Note_on_c, 0, 75, 49
1, 51525, Note_off_c, 0, 75, 59
1, 51570, Note_on_c, 0, 87, 57
1, 51592, Note_off_c, 0, 87, 62
1, 51656, Note_on_c, 0, 99, 60
1, 51671, Control_c, 0, 64, 112
1, 51685, Control_c, 0, 64, 100
1, 51700, Control_c, 0, 64, 89
1, 51714, Note_on_c, 0, 87, 55
1, 51714, Control_c, 0, 64, 82
1, 51729, Control_c, 0, 64, 80
1, 51736, Note_off_c, 0, 87, 63
1, 51744, Control_c, 0, 64, 80
1, 51746, Note_off_c, 0, 99, 58
1, 51758, Control_c, 0, 64, 84
1, 51773, Control_c, 0, 64, 92
1, 51788, Control_c, 0, 64, 101
1, 51792, Note_on_c, 0, 75, 61
1, 51803, Control_c, 0, 64, 109
1, 51818, Control_c, 0, 64, 114
1, 51832, Control_c, 0, 64, 121
1, 51847, Control_c, 0, 64, 127
1, 51857, Note_off_c, 0, 75, 62
1, 51872, Note_on_c, 0, 87, 56
1, 51890, Note_off_c, 0, 87, 62
1, 51919, Note_on_c, 0, 76, 64
1, 51972, Note_off_c, 0, 76, 46
1, 51993, Note_on_c, 0, 88, 66
1, 52024, Note_off_c, 0, 88, 55
1, 52076, Note_on_c, 0, 99, 68
1, 52138, Note_on_c, 0, 87, 59
1, 52156, Note_off_c, 0, 99, 66
1, 52165, Note_off_c, 0, 87, 64
1, 52208, Note_on_c, 0, 76, 68
1, 52267, Note_off_c, 0, 76, 61
1, 52281, Note_on_c, 0, 88, 67
1, 52315, Note_off_c, 0, 88, 55
1, 52351, Note_on_c, 0, 77, 70
1, 52374, Note_off_c, 0, 77, 67
1, 52419, Note_on_c, 0, 89, 68
1, 52446, Note_off_c, 0, 89, 67
1, 52485, Note_on_c, 0, 99, 74
1, 52493, Control_c, 0, 64, 115
1, 52507, Control_c, 0, 64, 96
1, 52522, Control_c, 0, 64, 81
1, 52537, Control_c, 0, 64, 67
1, 52547, Note_on_c, 0, 87, 62
1, 52552, Control_c, 0, 64, 61
1, 52567, Control_c, 0, 64, 67
1, 52568, Note_off_c, 0, 87, 61
1, 52571, Note_off_c, 0, 99, 62
1, 52581, Control_c, 0, 64, 80
1, 52596, Control_c, 0, 64, 93
1, 52609, Note_on_c, 0, 78, 73
1, 52611, Control_c, 0, 64, 101
1, 52626, Control_c, 0, 64, 105
1, 52641, Control_c, 0, 64, 109
1, 52655, Control_c, 0, 64, 116
1, 52663, Note_off_c, 0, 78, 63
1, 52670, Control_c, 0, 64, 127
1, 52677, Note_on_c, 0, 90, 76
1, 52700, Note_off_c, 0, 90, 67
1, 52741, Note_on_c, 0, 99, 79
1, 52804, Note_on_c, 0, 87, 65
1, 52821, Note_off_c, 0, 87, 64
1, 52840, Note_off_c, 0, 99, 55
1, 52858, Note_on_c, 0, 79, 68
1, 52885, Note_off_c, 0, 79, 62
1, 52908, Note_on_c, 0, 91, 81
1, 52944, Note_off_c, 0, 91, 56
1, 52992, Note_on_c, 0, 99, 83
1, 53055, Note_on_c, 0, 87, 79
1, 53078, Note_off_c, 0, 87, 66
1, 53080, Note_off_c, 0, 99, 58
1, 53120, Note_on_c, 0, 80, 66
1, 53164, Note_off_c, 0, 80, 58
1, 53188, Note_on_c, 0, 92, 70
1, 53210, Note_off_c, 0, 92, 66
1, 53227, Control_c, 0, 64, 103
1, 53242, Control_c, 0, 64, 86
1, 53257, Control_c, 0, 64, 70
1, 53262, Note_on_c, 0, 99, 74
1, 53271, Control_c, 0, 64, 59
1, 53286, Control_c, 0, 64, 64
1, 53290, Note_off_c, 0, 99, 70
1, 53301, Control_c, 0, 64, 73
1, 53316, Control_c, 0, 64, 84
1, 53330, Control_c, 0, 64, 95
1, 53345, Control_c, 0, 64, 101
1, 53359, Note_on_c, 0, 81, 73
1, 53360, Control_c, 0, 64, 104
1, 53375, Control_c, 0, 64, 109
1, 53380, Note_off_c, 0, 81, 69
1, 53390, Control_c, 0, 64, 117
1, 53404, Control_c, 0, 64, 127
1, 53453, Note_on_c, 0, 99, 82
1, 53477, Note_off_c, 0, 99, 70
1, 53537, Note_on_c, 0, 82, 78
1, 53560, Note_off_c, 0, 82, 67
1, 53620, Note_on_c, 0, 99, 81
1, 53641, Note_off_c, 0, 99, 73
1, 53656, Note_on_c, 0, 97, 61
1, 53673, Note_off_c, 0, 97, 60
1, 53696, Note_on_c, 0, 83, 69
1, 53727, Note_off_c, 0, 83, 67
1, 53775, Note_on_c, 0, 99, 92
1, 53812, Note_off_c, 0, 99, 70
1, 53848, Note_on_c, 0, 84, 81
1, 53883, Note_off_c, 0, 84, 64
1, 53922, Note_on_c, 0, 99, 92
1, 53975, Note_off_c, 0, 99, 67
1, 53990, Note_on_c, 0, 85, 82
1, 53990, Note_on_c, 0, 97, 37
1, 54009, Note_off_c, 0, 97, 51
1, 54020, Note_off_c, 0, 85, 58
1, 54067, Note_on_c, 0, 99, 90
1, 54134, Note_on_c, 0, 86, 82
1, 54142, Note_off_c, 0, 99, 66
1, 54178, Note_off_c, 0, 86, 64
1, 54199, Control_c, 0, 64, 110
1, 54214, Control_c, 0, 64, 88
1, 54228, Control_c, 0, 64, 69
1, 54239, Note_on_c, 0, 99, 87
1, 54243, Control_c, 0, 64, 0
1, 54287, Control_c, 0, 64, 42
1, 54302, Control_c, 0, 64, 67
1, 54317, Control_c, 0, 64, 75
1, 54322, Note_on_c, 0, 87, 72
1, 54332, Control_c, 0, 64, 84
1, 54340, Note_off_c, 0, 99, 67
1, 54346, Control_c, 0, 64, 90
1, 54353, Note_off_c, 0, 87, 60
1, 54361, Control_c, 0, 64, 94
1, 54376, Control_c, 0, 64, 97
1, 54391, Control_c, 0, 64, 102
1, 54406, Control_c, 0, 64, 109
1, 54410, Note_on_c, 0, 99, 66
1, 54420, Control_c, 0, 64, 114
1, 54435, Control_c, 0, 64, 118
1, 54451, Control_c, 0, 64, 123
1, 54466, Control_c, 0, 64, 127
1, 54495, Note_off_c, 0, 99, 61
1, 54506, Note_on_c, 0, 87, 63
1, 54541, Note_off_c, 0, 87, 61
1, 54604, Note_on_c, 0, 99, 67
1, 54665, Note_off_c, 0, 99, 64
1, 54685, Note_on_c, 0, 87, 67
1, 54726, Note_off_c, 0, 87, 56
1, 54790, Note_on_c, 0, 99, 68
1, 54859, Note_off_c, 0, 99, 60
1, 54881, Note_on_c, 0, 87, 59
1, 54923, Note_off_c, 0, 87, 58
1, 54985, Note_on_c, 0, 99, 64
1, 55053, Note_off_c, 0, 99, 61
1, 55081, Note_on_c, 0, 87, 58
1, 55129, Note_off_c, 0, 87, 55
1, 55184, Note_on_c, 0, 99, 63
1, 55277, Note_on_c, 0, 87, 63
1, 55277, Note_off_c, 0, 99, 57
1, 55314, Note_off_c, 0, 87, 59
1, 55399, Note_on_c, 0, 99, 66
1, 55427, Note_off_c, 0, 99, 70
1, 55517, Note_on_c, 0, 87, 67
1, 55543, Note_off_c, 0, 87, 63
1, 55637, Note_on_c, 0, 75, 58
1, 55656, Note_off_c, 0, 75, 64
1, 55740, Note_on_c, 0, 87, 47
1, 55762, Note_off_c, 0, 87, 54
1, 55845, Note_on_c, 0, 99, 72
1, 55874, Note_off_c, 0, 99, 69
1, 55968, Note_on_c, 0, 87, 58
1, 55991, Note_off_c, 0, 87, 61
1, 56074, Note_on_c, 0, 75, 56
1, 56094, Note_off_c, 0, 75, 62
1, 56161, Note_on_c, 0, 87, 70
1, 56186, Note_off_c, 0, 87, 67
1, 56288, Note_on_c, 0, 99, 75
1, 56315, Note_off_c, 0, 99, 71
1, 56408, Note_on_c, 0, 87, 57
1, 56427, Note_off_c, 0, 87, 60
1, 56495, Note_on_c, 0, 63, 53
1, 56515, Note_on_c, 0, 75, 64
1, 56529, Note_off_c, 0, 63, 65
1, 56538, Note_off_c, 0, 75, 67
1, 56616, Note_on_c, 0, 87, 66
1, 56643, Note_off_c, 0, 87, 67
1, 56718, Control_c, 0, 64, 120
1, 56733, Control_c, 0, 64, 107
1, 56747, Control_c, 0, 64, 96
1, 56754, Note_on_c, 0, 99, 75
1, 56756, Note_on_c, 0, 75, 58
1, 56762, Control_c, 0, 64, 86
1, 56776, Note_off_c, 0, 75, 62
1, 56777, Control_c, 0, 64, 76
1, 56780, Note_off_c, 0, 99, 71
1, 56792, Control_c, 0, 64, 64
1, 56807, Control_c, 0, 64, 0
1, 56882, Note_on_c, 0, 87, 59
1, 56907, Note_off_c, 0, 87, 63
1, 57024, Note_on_c, 0, 75, 51
1, 57045, Note_off_c, 0, 75, 60
1, 57120, Note_on_c, 0, 87, 59
1, 57152, Note_off_c, 0, 87, 66
1, 57258, Note_on_c, 0, 99, 68
1, 57259, Note_on_c, 0, 73, 52
1, 57281, Note_off_c, 0, 73, 60
1, 57284, Note_off_c, 0, 99, 71
1, 57394, Note_on_c, 0, 87, 57
1, 57409, Note_on_c, 0, 56, 51
1, 57416, Note_off_c, 0, 87, 61
1, 57433, Note_off_c, 0, 56, 62
1, 57526, Note_on_c, 0, 71, 57
1, 57531, Note_on_c, 0, 75, 58
1, 57551, Note_off_c, 0, 71, 62
1, 57553, Note_off_c, 0, 75, 67
1, 57629, Note_on_c, 0, 87, 65
1, 57657, Note_off_c, 0, 87, 67
1, 57749, Note_on_c, 0, 71, 60
1, 57750, Note_on_c, 0, 99, 74
1, 57772, Note_off_c, 0, 71, 63
1, 57778, Note_off_c, 0, 99, 70
1, 57869, Note_on_c, 0, 87, 54
1, 57889, Note_off_c, 0, 87, 61
1, 57948, Note_on_c, 0, 70, 68
1, 57956, Note_on_c, 0, 75, 70
1, 57974, Note_off_c, 0, 70, 66
1, 57978, Note_off_c, 0, 75, 68
1, 58040, Note_on_c, 0, 87, 72
1, 58062, Note_off_c, 0, 87, 69
1, 58149, Note_on_c, 0, 68, 61
1, 58151, Note_on_c, 0, 99, 74
1, 58155, Note_on_c, 0, 59, 53
1, 58172, Note_off_c, 0, 68, 65
1, 58176, Note_off_c, 0, 99, 67
1, 58184, Note_off_c, 0, 59, 64
1, 58263, Note_on_c, 0, 87, 64
1, 58291, Note_off_c, 0, 87, 66
1, 58353, Note_on_c, 0, 67, 69
1, 58361, Note_on_c, 0, 75, 71
1, 58376, Note_off_c, 0, 67, 65
1, 58387, Note_off_c, 0, 75, 70
1, 58444, Note_on_c, 0, 87, 71
1, 58467, Note_off_c, 0, 87, 69
1, 58550, Note_on_c, 0, 68, 71
1, 58551, Note_on_c, 0, 99, 79
1, 58572, Note_off_c, 0, 99, 74
1, 58577, Note_off_c, 0, 68, 68
1, 58664, Note_on_c, 0, 87, 63
1, 58694, Note_off_c, 0, 87, 65
1, 58739, Note_on_c, 0, 70, 66
1, 58741, Note_on_c, 0, 67, 56
1, 58757, Note_on_c, 0, 75, 71
1, 58782, Note_off_c, 0, 75, 71
1, 58837, Note_on_c, 0, 87, 74
1, 58867, Note_off_c, 0, 87, 64
1, 58932, Note_on_c, 0, 63, 70
1, 58937, Note_off_c, 0, 67, 61
1, 58938, Note_off_c, 0, 70, 60
1, 58948, Note_on_c, 0, 99, 76
1, 58952, Note_off_c, 0, 63, 69
1, 58980, Note_off_c, 0, 99, 72
1, 59058, Note_on_c, 0, 87, 70
1, 59085, Note_off_c, 0, 87, 64
1, 59144, Note_on_c, 0, 63, 82
1, 59156, Note_on_c, 0, 75, 67
1, 59165, Note_off_c, 0, 63, 72
1, 59176, Note_off_c, 0, 75, 68
1, 59230, Note_on_c, 0, 87, 74
1, 59255, Note_off_c, 0, 87, 66
1, 59338, Note_on_c, 0, 64, 66
1, 59342, Note_on_c, 0, 55, 62
1, 59347, Note_on_c, 0, 99, 74
1, 59364, Note_off_c, 0, 64, 67
1, 59367, Note_off_c, 0, 99, 68
1, 59369, Note_off_c, 0, 55, 67
1, 59469, Note_on_c, 0, 87, 46
1, 59493, Note_off_c, 0, 87, 49
1, 59542, Note_on_c, 0, 63, 68
1, 59555, Note_on_c, 0, 75, 66
1, 59567, Note_off_c, 0, 63, 68
1, 59575, Note_off_c, 0, 75, 67
1, 59630, Note_on_c, 0, 87, 71
1, 59663, Note_off_c, 0, 87, 65
1, 59752, Note_on_c, 0, 61, 65
1, 59762, Note_on_c, 0, 99, 77
1, 59779, Note_off_c, 0, 61, 63
1, 59786, Note_off_c, 0, 99, 72
1, 59880, Note_on_c, 0, 87, 57
1, 59900, Note_off_c, 0, 87, 60
1, 59962, Note_on_c, 0, 59, 58
1, 59973, Note_on_c, 0, 75, 64
1, 59982, Note_on_c, 0, 56, 41
1, 59990, Note_off_c, 0, 59, 64
1, 59993, Note_off_c, 0, 75, 67
1, 60008, Note_off_c, 0, 56, 50
1, 60066, Note_on_c, 0, 87, 59
1, 60094, Note_off_c, 0, 87, 64
1, 60184, Note_on_c, 0, 99, 69
1, 60187, Note_on_c, 0, 59, 50
1, 60209, Note_off_c, 0, 99, 72
1, 60211, Note_off_c, 0, 59, 57
1, 60303, Note_on_c, 0, 87, 63
1, 60332, Note_off_c, 0, 87, 66
1, 60396, Note_on_c, 0, 58, 53
1, 60414, Note_on_c, 0, 75, 57
1, 60433, Note_off_c, 0, 58, 64
1, 60434, Note_off_c, 0, 75, 65
1, 60515, Note_on_c, 0, 87, 63
1, 60542, Note_off_c, 0, 87, 67
1, 60638, Note_on_c, 0, 52, 49
1, 60639, Note_on_c, 0, 56, 42
1, 60642, Note_on_c, 0, 99, 68
1, 60665, Note_off_c, 0, 99, 67
1, 60668, Note_off_c, 0, 56, 59
1, 60676, Note_off_c, 0, 52, 66
1, 60760, Note_on_c, 0, 87, 69
1, 60790, Note_off_c, 0, 87, 60
1, 60898, Note_on_c, 0, 75, 49
1, 60899, Note_on_c, 0, 55, 48
1, 60924, Note_off_c, 0, 75, 62
1, 60939, Note_off_c, 0, 55, 63
1, 61001, Note_on_c, 0, 87, 62
1, 61029, Note_off_c, 0, 87, 65
1, 61126, Note_on_c, 0, 56, 47
1, 61132, Note_on_c, 0, 99, 65
1, 61157, Note_off_c, 0, 56, 64
1, 61157, Note_off_c, 0, 99, 67
1, 61259, Note_on_c, 0, 87, 64
1, 61288, Note_off_c, 0, 87, 63
1, 61382, Note_on_c, 0, 58, 41
1, 61392, Note_on_c, 0, 55, 40
1, 61410, Note_on_c, 0, 75, 48
1, 61432, Note_off_c, 0, 75, 58
1, 61502, Note_on_c, 0, 87, 64
1, 61529, Note_off_c, 0, 87, 68
1, 61619, Note_on_c, 0, 51, 51
1, 61622, Note_on_c, 0, 99, 62
1, 61638, Note_off_c, 0, 55, 43
1, 61639, Note_off_c, 0, 58, 35
1, 61642, Note_off_c, 0, 99, 67
1, 61645, Note_off_c, 0, 51, 59
1, 61746, Note_on_c, 0, 87, 40
1, 61767, Note_off_c, 0, 87, 52
1, 61830, Note_on_c, 0, 75, 61
1, 61848, Note_off_c, 0, 75, 65
1, 61904, Note_on_c, 0, 87, 64
1, 61914, Note_on_c, 0, 63, 53
1, 61931, Note_off_c, 0, 87, 66
1, 62015, Note_on_c, 0, 75, 70
1, 62020, Note_off_c, 0, 63, 36
1, 62024, Note_on_c, 0, 99, 78
1, 62039, Note_off_c, 0, 75, 70
1, 62049, Note_off_c, 0, 99, 71
1, 62132, Note_on_c, 0, 87, 63
1, 62159, Note_off_c, 0, 87, 61
1, 62224, Note_on_c, 0, 75, 69
1, 62251, Note_off_c, 0, 75, 68
1, 62298, Note_on_c, 0, 87, 74
1, 62321, Note_off_c, 0, 87, 68
1, 62396, Note_on_c, 0, 73, 67
1, 62411, Note_on_c, 0, 99, 77
1, 62420, Note_off_c, 0, 73, 66
1, 62438, Note_off_c, 0, 99, 71
1, 62513, Note_on_c, 0, 87, 73
1, 62527, Note_on_c, 0, 56, 60
1, 62540, Note_off_c, 0, 87, 63
1, 62556, Note_off_c, 0, 56, 64
1, 62607, Note_on_c, 0, 75, 71
1, 62612, Note_on_c, 0, 71, 65
1, 62631, Note_off_c, 0, 75, 71
1, 62640, Note_off_c, 0, 71, 66
1, 62684, Note_on_c, 0, 87, 76
1, 62715, Note_off_c, 0, 87, 66
1, 62800, Note_on_c, 0, 99, 81
1, 62822, Note_off_c, 0, 99, 74
1, 62825, Note_on_c, 0, 71, 46
1, 62847, Note_off_c, 0, 71, 56
1, 62909, Note_on_c, 0, 87, 65
1, 62939, Note_off_c, 0, 87, 64
1, 62993, Note_on_c, 0, 70, 60
1, 62998, Note_on_c, 0, 75, 69
1, 63013, Note_off_c, 0, 70, 66
1, 63019, Note_off_c, 0, 75, 68
1, 63070, Note_on_c, 0, 87, 74
1, 63093, Note_off_c, 0, 87, 68
1, 63177, Note_on_c, 0, 68, 65
1, 63180, Note_on_c, 0, 99, 74
1, 63183, Note_on_c, 0, 59, 56
1, 63203, Note_off_c, 0, 99, 73
1, 63205, Note_off_c, 0, 68, 66
1, 63213, Note_off_c, 0, 59, 64
1, 63294, Note_on_c, 0, 87, 54
1, 63314, Note_off_c, 0, 87, 59
1, 63373, Note_on_c, 0, 67, 61
1, 63378, Note_on_c, 0, 75, 65
1, 63392, Note_off_c, 0, 67, 64
1, 63396, Note_off_c, 0, 75, 67
1, 63443, Note_on_c, 0, 87, 65
1, 63476, Note_off_c, 0, 87, 67
1, 63561, Note_on_c, 0, 99, 82
1, 63567, Note_on_c, 0, 68, 61
1, 63576, Note_off_c, 0, 99, 73
1, 63585, Note_off_c, 0, 68, 65
1, 63672, Note_on_c, 0, 87, 55
1, 63697, Note_off_c, 0, 87, 58
1, 63752, Note_on_c, 0, 70, 57
1, 63755, Note_on_c, 0, 67, 48
1, 63762, Note_on_c, 0, 75, 70
1, 63788, Note_off_c, 0, 75, 70
1, 63839, Note_on_c, 0, 87, 66
1, 63864, Note_off_c, 0, 87, 68
1, 63940, Note_on_c, 0, 63, 58
1, 63941, Note_off_c, 0, 70, 55
1, 63942, Note_off_c, 0, 67, 53
1, 63949, Note_on_c, 0, 99, 71
1, 63964, Note_off_c, 0, 99, 66
1, 63967, Note_off_c, 0, 63, 66
1, 64134, Note_on_c, 0, 75, 65
1, 64152, Note_off_c, 0, 75, 64
1, 64219, Note_on_c, 0, 87, 65
1, 64287, Note_off_c, 0, 87, 50
1, 64320, Note_on_c, 0, 61, 59
1, 64325, Note_on_c, 0, 76, 76
1, 64328, Note_on_c, 0, 70, 49
1, 64349, Note_off_c, 0, 76, 70
1, 64352, Note_off_c, 0, 61, 64
1, 64353, Note_off_c, 0, 70, 54
1, 64413, Note_on_c, 0, 87, 65
1, 64490, Note_off_c, 0, 87, 62
1, 64513, Note_on_c, 0, 75, 71
1, 64525, Note_on_c, 0, 63, 56
1, 64528, Note_on_c, 0, 68, 47
1, 64530, Note_on_c, 0, 70, 53
1, 64539, Note_off_c, 0, 75, 70
1, 64549, Note_off_c, 0, 63, 63
1, 64551, Note_off_c, 0, 70, 59
1, 64552, Note_off_c, 0, 68, 58
1, 64599, Note_on_c, 0, 87, 67
1, 64658, Note_off_c, 0, 87, 63
1, 64695, Note_on_c, 0, 70, 57
1, 64698, Note_on_c, 0, 64, 67
1, 64698, Note_on_c, 0, 68, 39
1, 64698, Note_on_c, 0, 73, 78
1, 64721, Note_off_c, 0, 73, 66
1, 64724, Note_off_c, 0, 70, 65
1, 64730, Note_off_c, 0, 64, 65
1, 64731, Note_off_c, 0, 68, 65
1, 64782, Note_on_c, 0, 87, 71
1, 64865, Note_off_c, 0, 87, 61
1, 64885, Note_on_c, 0, 71, 65
1, 64888, Note_on_c, 0, 63, 61
1, 64889, Note_on_c, 0, 68, 65
1, 64889, Note_on_c, 0, 75, 78
1, 64911, Note_off_c, 0, 71, 63
1, 64912, Note_off_c, 0, 75, 70
1, 64914, Note_off_c, 0, 68, 65
1, 64918, Note_off_c, 0, 63, 66
1, 64989, Note_on_c, 0, 87, 66
1, 65079, Note_off_c, 0, 87, 49
1, 65083, Note_on_c, 0, 80, 71
1, 65109, Note_off_c, 0, 80, 67
1, 65172, Note_on_c, 0, 83, 56
1, 65195, Note_off_c, 0, 83, 62
1, 65282, Note_on_c, 0, 87, 71
1, 65309, Note_off_c, 0, 87, 64
1, 65370, Note_on_c, 0, 99, 71
1, 65383, Note_on_c, 0, 63, 56
1, 65395, Note_off_c, 0, 99, 72
1, 65478, Note_on_c, 0, 67, 51
1, 65487, Note_on_c, 0, 73, 64
1, 65493, Note_on_c, 0, 75, 79
1, 65504, Note_off_c, 0, 73, 64
1, 65508, Note_off_c, 0, 67, 65
1, 65512, Note_off_c, 0, 63, 61
1, 65514, Note_off_c, 0, 75, 71
1, 65578, Note_on_c, 0, 87, 61
1, 65639, Note_off_c, 0, 87, 50
1, 65680, Note_on_c, 0, 79, 65
1, 65719, Note_off_c, 0, 79, 61
1, 65772, Note_on_c, 0, 82, 66
1, 65800, Note_off_c, 0, 82, 67
1, 65881, Note_on_c, 0, 87, 71
1, 65917, Note_off_c, 0, 87, 60
1, 65979, Note_on_c, 0, 99, 67
1, 66005, Note_off_c, 0, 99, 71
1, 66059, Control_c, 0, 64, 29
1, 66074, Control_c, 0, 64, 64
1, 66081, Note_on_c, 0, 56, 45
1, 66089, Control_c, 0, 64, 68
1, 66104, Control_c, 0, 64, 72
1, 66119, Control_c, 0, 64, 76
1, 66133, Control_c, 0, 64, 80
1, 66148, Control_c, 0, 64, 83
1, 66163, Control_c, 0, 64, 86
1, 66178, Control_c, 0, 64, 88
1, 66193, Control_c, 0, 64, 90
1, 66203, Note_on_c, 0, 63, 45
1, 66207, Control_c, 0, 64, 92
1, 66222, Control_c, 0, 64, 94
1, 66237, Control_c, 0, 64, 96
1, 66251, Control_c, 0, 64, 98
1, 66266, Control_c, 0, 64, 100
1, 66276, Note_off_c, 0, 63, 59
1, 66281, Control_c, 0, 64, 101
1, 66296, Control_c, 0, 64, 102
1, 66301, Note_on_c, 0, 71, 54
1, 66305, Note_off_c, 0, 56, 36
1, 66321, Note_off_c, 0, 71, 61
1, 66325, Control_c, 0, 64, 103
1, 66340, Control_c, 0, 64, 104
1, 66355, Control_c, 0, 64, 105
1, 66370, Control_c, 0, 64, 106
1, 66385, Control_c, 0, 64, 106
1, 66394, Note_on_c, 0, 80, 60
1, 66400, Control_c, 0, 64, 107
1, 66414, Note_off_c, 0, 80, 64
1, 66415, Control_c, 0, 64, 107
1, 66430, Control_c, 0, 64, 108
1, 66445, Control_c, 0, 64, 109
1, 66468, Control_c, 0, 64, 110
1, 66482, Control_c, 0, 64, 111
1, 66497, Control_c, 0, 64, 112
1, 66510, Note_on_c, 0, 75, 61
1, 66512, Control_c, 0, 64, 113
1, 66527, Control_c, 0, 64, 114
1, 66531, Note_off_c, 0, 75, 65
1, 66556, Control_c, 0, 64, 115
1, 66582, Note_on_c, 0, 87, 62
1, 66603, Note_off_c, 0, 87, 61
1, 66662, Note_on_c, 0, 87, 61
1, 66680, Note_off_c, 0, 87, 60
1, 66723, Note_on_c, 0, 87, 65
1, 66739, Note_off_c, 0, 87, 65
1, 66810, Note_on_c, 0, 87, 48
1, 66835, Note_off_c, 0, 87, 48
1, 66849, Note_on_c, 0, 99, 62
1, 66873, Note_off_c, 0, 99, 69
1, 66930, Note_on_c, 0, 87, 66
1, 66955, Note_off_c, 0, 87, 66
1, 67004, Note_on_c, 0, 87, 73
1, 67029, Note_off_c, 0, 87, 64
1, 67051, Note_on_c, 0, 99, 70
1, 67076, Note_off_c, 0, 99, 72
1, 67152, Note_on_c, 0, 85, 67
1, 67176, Note_off_c, 0, 85, 70
1, 67231, Note_on_c, 0, 85, 70
1, 67263, Note_off_c, 0, 85, 62
1, 67297, Note_on_c, 0, 97, 61
1, 67305, Control_c, 0, 64, 114
1, 67320, Control_c, 0, 64, 109
1, 67323, Note_off_c, 0, 97, 67
1, 67335, Control_c, 0, 64, 99
1, 67350, Control_c, 0, 64, 87
1, 67365, Control_c, 0, 64, 73
1, 67379, Control_c, 0, 64, 56
1, 67394, Control_c, 0, 64, 29
1, 67395, Note_on_c, 0, 44, 38
1, 67409, Control_c, 0, 64, 60
1, 67417, Note_on_c, 0, 83, 58
1, 67424, Control_c, 0, 64, 70
1, 67439, Control_c, 0, 64, 79
1, 67447, Note_off_c, 0, 83, 63
1, 67453, Control_c, 0, 64, 86
1, 67468, Control_c, 0, 64, 90
1, 67483, Control_c, 0, 64, 94
1, 67498, Control_c, 0, 64, 98
1, 67507, Note_off_c, 0, 44, 55
1, 67511, Note_on_c, 0, 83, 58
1, 67512, Control_c, 0, 64, 103
1, 67527, Control_c, 0, 64, 107
1, 67540, Note_off_c, 0, 83, 54
1, 67542, Control_c, 0, 64, 111
1, 67557, Control_c, 0, 64, 113
1, 67568, Note_on_c, 0, 95, 72
1, 67572, Control_c, 0, 64, 115
1, 67586, Control_c, 0, 64, 116
1, 67591, Note_off_c, 0, 95, 70
1, 67601, Control_c, 0, 64, 118
1, 67616, Control_c, 0, 64, 120
1, 67631, Control_c, 0, 64, 121
1, 67646, Control_c, 0, 64, 122
1, 67671, Note_on_c, 0, 83, 64
1, 67683, Note_on_c, 0, 51, 46
1, 67688, Note_on_c, 0, 59, 33
1, 67697, Note_off_c, 0, 83, 65
1, 67714, Note_off_c, 0, 51, 53
1, 67726, Note_off_c, 0, 59, 48
1, 67749, Note_on_c, 0, 83, 64
1, 67777, Note_off_c, 0, 83, 63
1, 67796, Note_on_c, 0, 95, 65
1, 67812, Note_off_c, 0, 95, 65
1, 67892, Note_on_c, 0, 82, 68
1, 67899, Note_on_c, 0, 59, 37
1, 67899, Note_on_c, 0, 51, 41
1, 67910, Note_off_c, 0, 82, 68
1, 67937, Note_off_c, 0, 51, 62
1, 67938, Note_off_c, 0, 59, 48
1, 67962, Note_on_c, 0, 82, 77
1, 68002, Note_off_c, 0, 82, 52
1, 68009, Control_c, 0, 64, 121
1, 68020, Note_on_c, 0, 94, 60
1, 68024, Control_c, 0, 64, 113
1, 68039, Note_off_c, 0, 94, 64
1, 68039, Control_c, 0, 64, 98
1, 68054, Control_c, 0, 64, 80
1, 68069, Control_c, 0, 64, 60
1, 68084, Control_c, 0, 64, 0
1, 68114, Control_c, 0, 64, 59
1, 68117, Note_on_c, 0, 47, 55
1, 68120, Note_on_c, 0, 80, 67
1, 68128, Control_c, 0, 64, 72
1, 68142, Note_off_c, 0, 80, 66
1, 68143, Control_c, 0, 64, 82
1, 68158, Control_c, 0, 64, 90
1, 68170, Note_off_c, 0, 47, 62
1, 68173, Control_c, 0, 64, 94
1, 68187, Control_c, 0, 64, 97
1, 68196, Note_on_c, 0, 80, 65
1, 68201, Control_c, 0, 64, 102
1, 68214, Note_off_c, 0, 80, 68
1, 68216, Control_c, 0, 64, 108
1, 68231, Control_c, 0, 64, 114
1, 68237, Note_on_c, 0, 92, 70
1, 68246, Control_c, 0, 64, 119
1, 68260, Note_off_c, 0, 92, 70
1, 68260, Control_c, 0, 64, 121
1, 68275, Control_c, 0, 64, 123
1, 68290, Control_c, 0, 64, 127
1, 68336, Note_on_c, 0, 79, 72
1, 68353, Note_on_c, 0, 63, 42
1, 68359, Note_on_c, 0, 56, 40
1, 68359, Note_off_c, 0, 79, 68
1, 68385, Note_off_c, 0, 63, 52
1, 68389, Note_off_c, 0, 56, 57
1, 68402, Note_on_c, 0, 79, 76
1, 68434, Note_off_c, 0, 79, 62
1, 68456, Note_on_c, 0, 91, 73
1, 68477, Note_off_c, 0, 91, 67
1, 68550, Note_on_c, 0, 80, 78
1, 68552, Note_on_c, 0, 56, 46
1, 68553, Note_on_c, 0, 63, 41
1, 68571, Note_off_c, 0, 80, 71
1, 68586, Note_off_c, 0, 63, 56
1, 68602, Note_off_c, 0, 56, 60
1, 68619, Note_on_c, 0, 80, 71
1, 68646, Note_off_c, 0, 80, 63
1, 68662, Note_on_c, 0, 92, 75
1, 68675, Control_c, 0, 64, 120
1, 68690, Control_c, 0, 64, 105
1, 68691, Note_off_c, 0, 92, 59
1, 68713, Control_c, 0, 64, 88
1, 68727, Control_c, 0, 64, 69
1, 68742, Control_c, 0, 64, 0
1, 68772, Control_c, 0, 64, 17
1, 68775, Note_on_c, 0, 82, 70
1, 68779, Note_on_c, 0, 51, 52
1, 68787, Control_c, 0, 64, 67
1, 68799, Note_off_c, 0, 82, 68
1, 68801, Control_c, 0, 64, 77
1, 68816, Control_c, 0, 64, 86
1, 68828, Note_off_c, 0, 51, 59
1, 68832, Control_c, 0, 64, 92
1, 68847, Control_c, 0, 64, 96
1, 68850, Note_on_c, 0, 82, 73
1, 68862, Control_c, 0, 64, 100
1, 68876, Note_off_c, 0, 82, 62
1, 68876, Control_c, 0, 64, 105
1, 68891, Control_c, 0, 64, 111
1, 68897, Note_on_c, 0, 94, 73
1, 68906, Control_c, 0, 64, 117
1, 68919, Note_off_c, 0, 94, 71
1, 68921, Control_c, 0, 64, 123
1, 68936, Control_c, 0, 64, 127
1, 69019, Note_on_c, 0, 75, 72
1, 69034, Note_on_c, 0, 67, 47
1, 69038, Note_on_c, 0, 58, 42
1, 69044, Note_off_c, 0, 75, 70
1, 69059, Note_off_c, 0, 67, 58
1, 69065, Note_off_c, 0, 58, 55
1, 69087, Note_on_c, 0, 75, 68
1, 69119, Note_off_c, 0, 75, 60
1, 69136, Note_on_c, 0, 87, 73
1, 69171, Note_off_c, 0, 87, 57
1, 69241, Note_on_c, 0, 75, 74
1, 69246, Note_on_c, 0, 58, 49
1, 69262, Note_on_c, 0, 67, 30
1, 69265, Note_off_c, 0, 75, 68
1, 69280, Note_off_c, 0, 58, 63
1, 69294, Note_off_c, 0, 67, 48
1, 69313, Note_on_c, 0, 75, 76
1, 69343, Note_off_c, 0, 75, 63
1, 69359, Note_on_c, 0, 87, 70
1, 69381, Note_off_c, 0, 87, 68
1, 69394, Control_c, 0, 64, 107
1, 69409, Control_c, 0, 64, 89
1, 69424, Control_c, 0, 64, 67
1, 69439, Control_c, 0, 64, 0
1, 69468, Note_on_c, 0, 55, 51
1, 69471, Note_on_c, 0, 76, 69
1, 69476, Control_c, 0, 64, 27
1, 69491, Control_c, 0, 64, 67
1, 69494, Note_off_c, 0, 76, 70
1, 69506, Control_c, 0, 64, 77
1, 69521, Control_c, 0, 64, 88
1, 69536, Note_on_c, 0, 76, 64
1, 69536, Control_c, 0, 64, 94
1, 69542, Note_off_c, 0, 55, 61
1, 69550, Control_c, 0, 64, 98
1, 69565, Control_c, 0, 64, 103
1, 69580, Control_c, 0, 64, 109
1, 69585, Note_off_c, 0, 76, 65
1, 69595, Control_c, 0, 64, 116
1, 69598, Note_on_c, 0, 88, 71
1, 69609, Control_c, 0, 64, 125
1, 69624, Note_off_c, 0, 88, 65
1, 69625, Control_c, 0, 64, 127
1, 69706, Note_on_c, 0, 75, 67
1, 69708, Note_on_c, 0, 70, 52
1, 69720, Note_on_c, 0, 63, 47
1, 69734, Note_off_c, 0, 70, 58
1, 69734, Note_off_c, 0, 75, 69
1, 69751, Note_off_c, 0, 63, 53
1, 69777, Note_on_c, 0, 75, 66
1, 69814, Note_off_c, 0, 75, 60
1, 69825, Note_on_c, 0, 87, 65
1, 69850, Note_off_c, 0, 87, 67
1, 69919, Note_on_c, 0, 70, 55
1, 69924, Note_on_c, 0, 73, 72
1, 69929, Note_on_c, 0, 63, 49
1, 69940, Note_off_c, 0, 70, 63
1, 69950, Note_off_c, 0, 73, 66
1, 69957, Note_off_c, 0, 63, 61
1, 69992, Note_on_c, 0, 73, 69
1, 70031, Note_off_c, 0, 73, 56
1, 70037, Note_on_c, 0, 85, 63
1, 70054, Note_off_c, 0, 85, 65
1, 70069, Control_c, 0, 64, 111
1, 70084, Control_c, 0, 64, 89
1, 70099, Control_c, 0, 64, 69
1, 70114, Control_c, 0, 64, 0
1, 70134, Note_on_c, 0, 56, 57
1, 70141, Note_on_c, 0, 71, 66
1, 70159, Control_c, 0, 64, 67
1, 70167, Note_off_c, 0, 71, 67
1, 70173, Control_c, 0, 64, 77
1, 70184, Note_off_c, 0, 56, 58
1, 70188, Control_c, 0, 64, 88
1, 70210, Control_c, 0, 64, 92
1, 70217, Note_on_c, 0, 71, 60
1, 70224, Control_c, 0, 64, 94
1, 70239, Control_c, 0, 64, 97
1, 70254, Control_c, 0, 64, 102
1, 70260, Note_off_c, 0, 71, 55
1, 70269, Control_c, 0, 64, 107
1, 70278, Note_on_c, 0, 83, 73
1, 70284, Control_c, 0, 64, 111
1, 70299, Control_c, 0, 64, 112
1, 70300, Note_off_c, 0, 83, 67
1, 70314, Control_c, 0, 64, 112
1, 70328, Control_c, 0, 64, 113
1, 70343, Control_c, 0, 64, 114
1, 70358, Note_on_c, 0, 68, 60
1, 70358, Control_c, 0, 64, 115
1, 70368, Note_on_c, 0, 63, 51
1, 70373, Note_on_c, 0, 71, 70
1, 70388, Control_c, 0, 64, 115
1, 70397, Note_off_c, 0, 71, 66
1, 70400, Note_off_c, 0, 68, 56
1, 70405, Note_off_c, 0, 63, 64
1, 70434, Control_c, 0, 64, 116
1, 70454, Note_on_c, 0, 71, 68
1, 70483, Note_off_c, 0, 71, 59
1, 70492, Note_on_c, 0, 83, 61
1, 70510, Note_off_c, 0, 83, 40
1, 70573, Note_on_c, 0, 68, 60
1, 70579, Note_on_c, 0, 63, 58
1, 70591, Note_on_c, 0, 70, 71
1, 70593, Note_off_c, 0, 68, 63
1, 70609, Note_off_c, 0, 63, 66
1, 70615, Note_off_c, 0, 70, 69
1, 70641, Control_c, 0, 64, 116
1, 70651, Note_on_c, 0, 70, 68
1, 70701, Control_c, 0, 64, 116
1, 70704, Note_off_c, 0, 70, 41
1, 70706, Note_on_c, 0, 82, 65
1, 70716, Control_c, 0, 64, 115
1, 70729, Note_off_c, 0, 82, 66
1, 70730, Control_c, 0, 64, 109
1, 70745, Control_c, 0, 64, 94
1, 70760, Control_c, 0, 64, 72
1, 70775, Control_c, 0, 64, 0
1, 70791, Note_on_c, 0, 59, 57
1, 70801, Note_on_c, 0, 68, 73
1, 70819, Control_c, 0, 64, 10
1, 70824, Note_off_c, 0, 68, 69
1, 70834, Control_c, 0, 64, 65
1, 70848, Note_off_c, 0, 59, 53
1, 70848, Control_c, 0, 64, 74
1, 70863, Control_c, 0, 64, 82
1, 70874, Note_on_c, 0, 68, 78
1, 70878, Control_c, 0, 64, 87
1, 70893, Control_c, 0, 64, 91
1, 70900, Note_off_c, 0, 68, 58
1, 70908, Control_c, 0, 64, 94
1, 70918, Note_on_c, 0, 80, 68
1, 70922, Control_c, 0, 64, 97
1, 70945, Control_c, 0, 64, 99
1, 70950, Note_off_c, 0, 80, 69
1, 70960, Control_c, 0, 64, 102
1, 70975, Control_c, 0, 64, 103
1, 70990, Control_c, 0, 64, 104
1, 71004, Control_c, 0, 64, 105
1, 71019, Control_c, 0, 64, 105
1, 71020, Note_on_c, 0, 67, 76
1, 71039, Note_on_c, 0, 62, 61
1, 71041, Note_on_c, 0, 65, 62
1, 71043, Note_off_c, 0, 67, 69
1, 71067, Note_off_c, 0, 65, 66
1, 71073, Note_off_c, 0, 62, 62
1, 71094, Note_on_c, 0, 67, 73
1, 71144, Note_off_c, 0, 67, 58
1, 71158, Note_on_c, 0, 79, 78
1, 71184, Note_off_c, 0, 79, 65
1, 71256, Note_on_c, 0, 68, 75
1, 71264, Note_on_c, 0, 65, 58
1, 71270, Note_on_c, 0, 62, 52
1, 71276, Note_off_c, 0, 68, 71
1, 71283, Note_off_c, 0, 65, 67
1, 71295, Note_off_c, 0, 62, 61
1, 71316, Control_c, 0, 64, 106
1, 71327, Note_on_c, 0, 68, 77
1, 71360, Note_off_c, 0, 68, 56
1, 71385, Note_on_c, 0, 80, 66
1, 71416, Note_off_c, 0, 80, 64
1, 71434, Control_c, 0, 64, 101
1, 71449, Control_c, 0, 64, 89
1, 71464, Control_c, 0, 64, 72
1, 71479, Control_c, 0, 64, 0
1, 71490, Note_on_c, 0, 51, 49
1, 71495, Note_on_c, 0, 70, 66
1, 71523, Note_off_c, 0, 70, 67
1, 71538, Control_c, 0, 64, 59
1, 71553, Control_c, 0, 64, 70
1, 71568, Control_c, 0, 64, 78
1, 71572, Note_on_c, 0, 70, 73
1, 71583, Control_c, 0, 64, 88
1, 71598, Control_c, 0, 64, 95
1, 71599, Note_off_c, 0, 70, 64
1, 71612, Control_c, 0, 64, 100
1, 71621, Note_off_c, 0, 51, 54
1, 71627, Control_c, 0, 64, 104
1, 71642, Control_c, 0, 64, 107
1, 71649, Note_on_c, 0, 82, 76
1, 71657, Control_c, 0, 64, 112
1, 71671, Control_c, 0, 64, 116
1, 71672, Note_off_c, 0, 82, 68
1, 71694, Control_c, 0, 64, 120
1, 71709, Control_c, 0, 64, 124
1, 71724, Control_c, 0, 64, 127
1, 71796, Note_on_c, 0, 63, 68
1, 71798, Note_on_c, 0, 58, 57
1, 71816, Note_off_c, 0, 63, 66
1, 71819, Note_off_c, 0, 58, 64
1, 71875, Poly_aftertouch_c, 0, 67, 0
1, 71879, Note_on_c, 0, 63, 67
1, 71908, Note_off_c, 0, 63, 66
1, 71958, Note_on_c, 0, 75, 61
1, 71979, Note_off_c, 0, 75, 67
1, 72043, Note_on_c, 0, 75, 60
1, 72060, Note_off_c, 0, 75, 65
1, 72121, Note_on_c, 0, 75, 55
1, 72161, Note_off_c, 0, 75, 0
1, 72171, Note_on_c, 0, 75, 59
1, 72203, Note_off_c, 0, 75, 67
1, 72256, Note_on_c, 0, 87, 69
1, 72281, Note_off_c, 0, 87, 69
1, 72333, Note_on_c, 0, 87, 74
1, 72381, Note_off_c, 0, 87, 62
1, 72415, Note_on_c, 0, 99, 67
1, 72436, Note_off_c, 0, 99, 67
1, 72512, Note_on_c, 0, 87, 77
1, 72532, Note_off_c, 0, 87, 70
1, 72581, Note_on_c, 0, 87, 76
1, 72612, Note_off_c, 0, 87, 56
1, 72626, Note_on_c, 0, 99, 73
1, 72649, Note_off_c, 0, 99, 73
1, 72716, Note_on_c, 0, 85, 81
1, 72735, Note_off_c, 0, 85, 71
1, 72779, Note_on_c, 0, 85, 77
1, 72832, Note_on_c, 0, 97, 71
1, 72832, Note_off_c, 0, 85, 60
1, 72853, Note_off_c, 0, 97, 69
1, 72857, Control_c, 0, 64, 106
1, 72872, Control_c, 0, 64, 85
1, 72887, Control_c, 0, 64, 66
1, 72902, Control_c, 0, 64, 0
1, 72926, Note_on_c, 0, 44, 48
1, 72946, Note_on_c, 0, 83, 64
1, 72946, Control_c, 0, 64, 64
1, 72961, Control_c, 0, 64, 74
1, 72972, Note_off_c, 0, 83, 65
1, 72976, Control_c, 0, 64, 82
1, 72990, Control_c, 0, 64, 87
1, 73005, Note_off_c, 0, 44, 59
1, 73005, Control_c, 0, 64, 91
1, 73019, Note_on_c, 0, 83, 72
1, 73020, Control_c, 0, 64, 95
1, 73035, Control_c, 0, 64, 99
1, 73050, Control_c, 0, 64, 105
1, 73062, Note_off_c, 0, 83, 56
1, 73065, Control_c, 0, 64, 109
1, 73080, Control_c, 0, 64, 112
1, 73082, Note_on_c, 0, 95, 79
1, 73095, Control_c, 0, 64, 114
1, 73103, Note_off_c, 0, 95, 70
1, 73110, Control_c, 0, 64, 115
1, 73124, Control_c, 0, 64, 116
1, 73139, Control_c, 0, 64, 117
1, 73154, Control_c, 0, 64, 118
1, 73183, Note_on_c, 0, 83, 68
1, 73184, Control_c, 0, 64, 118
1, 73184, Note_on_c, 0, 51, 48
1, 73193, Note_on_c, 0, 59, 41
1, 73215, Note_off_c, 0, 83, 65
1, 73221, Note_off_c, 0, 51, 54
1, 73226, Note_off_c, 0, 59, 52
1, 73262, Note_on_c, 0, 83, 69
1, 73286, Note_off_c, 0, 83, 66
1, 73312, Note_on_c, 0, 95, 71
1, 73325, Note_off_c, 0, 95, 66
1, 73399, Note_on_c, 0, 51, 49
1, 73401, Note_on_c, 0, 82, 74
1, 73423, Note_off_c, 0, 82, 69
1, 73437, Note_off_c, 0, 51, 62
1, 73438, Poly_aftertouch_c, 0, 59, 127
1, 73470, Note_on_c, 0, 82, 84
1, 73478, Poly_aftertouch_c, 0, 59, 0
1, 73517, Control_c, 0, 64, 118
1, 73518, Note_off_c, 0, 82, 56
1, 73521, Note_on_c, 0, 94, 69
1, 73532, Control_c, 0, 64, 111
1, 73545, Note_off_c, 0, 94, 70
1, 73547, Control_c, 0, 64, 93
1, 73561, Control_c, 0, 64, 74
1, 73576, Control_c, 0, 64, 0
1, 73608, Note_on_c, 0, 47, 54
1, 73620, Note_on_c, 0, 80, 74
1, 73622, Control_c, 0, 64, 58
1, 73637, Control_c, 0, 64, 72
1, 73642, Note_off_c, 0, 80, 70
1, 73652, Control_c, 0, 64, 80
1, 73659, Note_off_c, 0, 47, 63
1, 73666, Control_c, 0, 64, 87
1, 73681, Control_c, 0, 64, 90
1, 73689, Note_on_c, 0, 80, 74
1, 73696, Control_c, 0, 64, 93
1, 73711, Control_c, 0, 64, 97
1, 73726, Control_c, 0, 64, 101
1, 73733, Note_on_c, 0, 92, 75
1, 73740, Control_c, 0, 64, 106
1, 73742, Note_off_c, 0, 80, 58
1, 73754, Note_off_c, 0, 92, 72
1, 73755, Control_c, 0, 64, 109
1, 73770, Control_c, 0, 64, 109
1, 73785, Control_c, 0, 64, 110
1, 73800, Control_c, 0, 64, 111
1, 73814, Control_c, 0, 64, 112
1, 73829, Control_c, 0, 64, 112
1, 73834, Note_on_c, 0, 79, 70
1, 73840, Note_on_c, 0, 63, 50
1, 73843, Note_on_c, 0, 56, 46
1, 73858, Note_off_c, 0, 79, 68
1, 73867, Note_off_c, 0, 63, 60
1, 73868, Note_off_c, 0, 56, 57
1, 73906, Note_on_c, 0, 79, 73
1, 73931, Note_off_c, 0, 79, 67
1, 73960, Note_on_c, 0, 91, 73
1, 73986, Note_off_c, 0, 91, 63
1, 74043, Note_on_c, 0, 56, 50
1, 74044, Control_c, 0, 64, 113
1, 74055, Note_on_c, 0, 80, 77
1, 74057, Note_on_c, 0, 63, 36
1, 74077, Note_off_c, 0, 80, 69
1, 74087, Note_off_c, 0, 63, 53
1, 74087, Note_off_c, 0, 56, 59
1, 74118, Note_on_c, 0, 80, 76
1, 74162, Control_c, 0, 64, 111
1, 74167, Note_off_c, 0, 80, 63
1, 74174, Note_on_c, 0, 92, 76
1, 74177, Control_c, 0, 64, 103
1, 74192, Control_c, 0, 64, 90
1, 74201, Note_off_c, 0, 92, 62
1, 74207, Control_c, 0, 64, 70
1, 74222, Control_c, 0, 64, 0
1, 74276, Note_on_c, 0, 51, 49
1, 74279, Note_on_c, 0, 82, 71
1, 74281, Control_c, 0, 64, 52
1, 74296, Control_c, 0, 64, 66
1, 74302, Note_off_c, 0, 82, 70
1, 74311, Control_c, 0, 64, 73
1, 74326, Control_c, 0, 64, 80
1, 74332, Note_off_c, 0, 51, 57
1, 74340, Control_c, 0, 64, 87
1, 74349, Note_on_c, 0, 82, 72
1, 74355, Control_c, 0, 64, 90
1, 74370, Control_c, 0, 64, 93
1, 74385, Control_c, 0, 64, 95
1, 74397, Note_off_c, 0, 82, 54
1, 74399, Control_c, 0, 64, 98
1, 74411, Note_on_c, 0, 94, 70
1, 74415, Control_c, 0, 64, 101
1, 74430, Control_c, 0, 64, 104
1, 74437, Note_off_c, 0, 94, 70
1, 74445, Control_c, 0, 64, 106
1, 74460, Control_c, 0, 64, 107
1, 74475, Control_c, 0, 64, 108
1, 74489, Control_c, 0, 64, 109
1, 74547, Note_on_c, 0, 67, 50
1, 74549, Control_c, 0, 64, 110
1, 74549, Note_on_c, 0, 75, 70
1, 74555, Note_on_c, 0, 58, 46
1, 74563, Control_c, 0, 64, 110
1, 74571, Note_off_c, 0, 67, 60
1, 74573, Note_off_c, 0, 75, 67
1, 74579, Note_off_c, 0, 58, 59
1, 74607, Control_c, 0, 64, 111
1, 74622, Control_c, 0, 64, 111
1, 74633, Note_on_c, 0, 75, 40
1, 74652, Control_c, 0, 64, 112
1, 74657, Note_off_c, 0, 75, 59
1, 74680, Note_on_c, 0, 87, 67
1, 74704, Control_c, 0, 64, 112
1, 74712, Note_off_c, 0, 87, 68
1, 74781, Note_on_c, 0, 70, 66
1, 74789, Note_on_c, 0, 67, 52
1, 74790, Note_on_c, 0, 75, 68
1, 74809, Note_off_c, 0, 75, 66
1, 74810, Note_off_c, 0, 70, 67
1, 74813, Note_off_c, 0, 67, 64
1, 74837, Control_c, 0, 64, 113
1, 74852, Note_on_c, 0, 75, 67
1, 74852, Control_c, 0, 64, 113
1, 74888, Note_off_c, 0, 75, 55
1, 74903, Note_on_c, 0, 87, 68
1, 74928, Note_off_c, 0, 87, 69
1, 74941, Control_c, 0, 64, 113
1, 74956, Control_c, 0, 64, 107
1, 74970, Control_c, 0, 64, 93
1, 74985, Control_c, 0, 64, 78
1, 74989, Note_on_c, 0, 68, 70
1, 74994, Note_on_c, 0, 76, 78
1, 74997, Note_on_c, 0, 71, 58
1, 75000, Control_c, 0, 64, 60
1, 75014, Control_c, 0, 64, 0
1, 75015, Note_off_c, 0, 68, 69
1, 75015, Note_off_c, 0, 71, 60
1, 75015, Note_off_c, 0, 76, 70
1, 75071, Note_on_c, 0, 76, 62
1, 75116, Note_on_c, 0, 88, 72
1, 75120, Note_off_c, 0, 76, 63
1, 75139, Note_off_c, 0, 88, 69
1, 75226, Note_on_c, 0, 66, 57
1, 75232, Note_on_c, 0, 75, 55
1, 75234, Note_on_c, 0, 70, 53
1, 75253, Note_off_c, 0, 75, 59
1, 75256, Note_off_c, 0, 70, 61
1, 75259, Note_off_c, 0, 66, 67
1, 75289, Note_on_c, 0, 75, 53
1, 75331, Note_off_c, 0, 75, 62
1, 75342, Note_on_c, 0, 87, 62
1, 75372, Note_off_c, 0, 87, 66
1, 75450, Note_on_c, 0, 68, 58
1, 75453, Note_on_c, 0, 73, 70
1, 75459, Note_on_c, 0, 64, 43
1, 75474, Note_off_c, 0, 68, 62
1, 75480, Note_off_c, 0, 73, 66
1, 75482, Note_off_c, 0, 64, 60
1, 75545, Poly_aftertouch_c, 0, 73, 0
1, 75581, Note_on_c, 0, 85, 60
1, 75612, Note_off_c, 0, 85, 67
1, 75657, Note_on_c, 0, 63, 33
1, 75667, Note_on_c, 0, 68, 43
1, 75699, Note_on_c, 0, 75, 65
1, 75711, Note_on_c, 0, 71, 43
1, 75720, Note_off_c, 0, 75, 67
1, 75734, Control_c, 0, 64, 60
1, 75749, Control_c, 0, 64, 69
1, 75764, Control_c, 0, 64, 77
1, 75779, Control_c, 0, 64, 85
1, 75781, Note_on_c, 0, 75, 59
1, 75793, Control_c, 0, 64, 90
1, 75801, Note_off_c, 0, 75, 63
1, 75808, Control_c, 0, 64, 93
1, 75823, Control_c, 0, 64, 97
1, 75825, Note_on_c, 0, 87, 66
1, 75837, Control_c, 0, 64, 101
1, 75850, Note_off_c, 0, 87, 68
1, 75852, Control_c, 0, 64, 105
1, 75867, Control_c, 0, 64, 109
1, 75882, Control_c, 0, 64, 112
1, 75897, Control_c, 0, 64, 115
1, 75912, Control_c, 0, 64, 118
1, 75927, Control_c, 0, 64, 119
1, 75933, Note_on_c, 0, 76, 70
1, 75942, Control_c, 0, 64, 121
1, 75955, Note_off_c, 0, 76, 73
1, 75956, Control_c, 0, 64, 121
1, 75971, Control_c, 0, 64, 122
1, 75986, Control_c, 0, 64, 123
1, 76001, Control_c, 0, 64, 125
1, 76001, Note_on_c, 0, 76, 69
1, 76016, Control_c, 0, 64, 127
1, 76025, Note_off_c, 0, 76, 69
1, 76058, Note_on_c, 0, 87, 72
1, 76081, Note_off_c, 0, 87, 69
1, 76121, Note_off_c, 0, 71, 26
1, 76156, Note_on_c, 0, 77, 74
1, 76187, Note_off_c, 0, 77, 69
1, 76226, Note_on_c, 0, 77, 64
1, 76250, Note_off_c, 0, 68, 43
1, 76259, Note_off_c, 0, 77, 60
1, 76281, Note_off_c, 0, 63, 51
1, 76284, Note_on_c, 0, 87, 77
1, 76312, Note_off_c, 0, 87, 64
1, 76380, Note_on_c, 0, 78, 78
1, 76402, Note_off_c, 0, 78, 69
1, 76439, Note_on_c, 0, 78, 76
1, 76483, Note_off_c, 0, 78, 58
1, 76495, Note_on_c, 0, 87, 75
1, 76518, Note_off_c, 0, 87, 68
1, 76583, Note_on_c, 0, 79, 78
1, 76610, Note_off_c, 0, 79, 63
1, 76654, Note_on_c, 0, 79, 67
1, 76699, Note_off_c, 0, 79, 58
1, 76704, Note_on_c, 0, 87, 75
1, 76749, Note_off_c, 0, 87, 58
1, 76786, Note_on_c, 0, 80, 71
1, 76809, Note_off_c, 0, 80, 70
1, 76854, Note_on_c, 0, 80, 76
1, 76900, Note_off_c, 0, 80, 57
1, 76913, Control_c, 0, 64, 111
1, 76913, Note_on_c, 0, 87, 73
1, 76928, Control_c, 0, 64, 92
1, 76950, Control_c, 0, 64, 72
1, 76955, Note_on_c, 0, 51, 54
1, 76964, Control_c, 0, 64, 0
1, 76973, Note_off_c, 0, 87, 63
1, 76994, Control_c, 0, 64, 42
1, 76997, Note_off_c, 0, 51, 64
1, 77009, Control_c, 0, 64, 68
1, 77024, Control_c, 0, 64, 79
1, 77036, Note_on_c, 0, 61, 44
1, 77036, Note_on_c, 0, 81, 72
1, 77038, Control_c, 0, 64, 90
1, 77053, Control_c, 0, 64, 97
1, 77068, Note_off_c, 0, 81, 59
1, 77068, Control_c, 0, 64, 100
1, 77083, Control_c, 0, 64, 104
1, 77098, Control_c, 0, 64, 110
1, 77103, Note_on_c, 0, 67, 48
1, 77107, Note_on_c, 0, 81, 61
1, 77113, Control_c, 0, 64, 117
1, 77128, Control_c, 0, 64, 127
1, 77143, Control_c, 0, 64, 127
1, 77146, Note_off_c, 0, 67, 44
1, 77156, Note_off_c, 0, 81, 57
1, 77186, Note_off_c, 0, 61, 0
1, 77188, Note_on_c, 0, 87, 67
1, 77241, Note_off_c, 0, 87, 62
1, 77265, Note_on_c, 0, 82, 61
1, 77283, Note_off_c, 0, 82, 65
1, 77330, Note_on_c, 0, 82, 65
1, 77354, Poly_aftertouch_c, 0, 61, 0
1, 77362, Note_off_c, 0, 82, 59
1, 77380, Note_on_c, 0, 87, 72
1, 77432, Note_off_c, 0, 87, 62
1, 77478, Note_on_c, 0, 83, 71
1, 77503, Note_off_c, 0, 83, 63
1, 77550, Note_on_c, 0, 83, 66
1, 77589, Note_off_c, 0, 83, 54
1, 77606, Note_on_c, 0, 87, 63
1, 77632, Note_off_c, 0, 87, 66
1, 77692, Note_on_c, 0, 84, 72
1, 77718, Note_off_c, 0, 84, 66
1, 77770, Note_on_c, 0, 84, 64
1, 77805, Note_off_c, 0, 84, 56
1, 77831, Note_on_c, 0, 87, 72
1, 77875, Note_off_c, 0, 87, 60
1, 77909, Note_on_c, 0, 85, 68
1, 77932, Note_off_c, 0, 85, 68
1, 77983, Note_on_c, 0, 85, 68
1, 78014, Note_off_c, 0, 85, 60
1, 78043, Note_on_c, 0, 87, 71
1, 78081, Note_off_c, 0, 87, 57
1, 78152, Note_on_c, 0, 86, 67
1, 78185, Note_off_c, 0, 86, 60
1, 78203, Control_c, 0, 64, 126
1, 78218, Control_c, 0, 64, 101
1, 78225, Note_on_c, 0, 86, 53
1, 78232, Control_c, 0, 64, 83
1, 78247, Control_c, 0, 64, 64
1, 78262, Control_c, 0, 64, 0
1, 78267, Note_off_c, 0, 86, 60
1, 78276, Note_on_c, 0, 44, 40
1, 78292, Control_c, 0, 64, 34
1, 78306, Control_c, 0, 64, 68
1, 78321, Control_c, 0, 64, 80
1, 78323, Note_on_c, 0, 87, 67
1, 78336, Control_c, 0, 64, 91
1, 78350, Note_on_c, 0, 51, 38
1, 78351, Control_c, 0, 64, 98
1, 78361, Note_off_c, 0, 44, 60
1, 78365, Control_c, 0, 64, 104
1, 78380, Control_c, 0, 64, 110
1, 78384, Note_off_c, 0, 87, 62
1, 78395, Control_c, 0, 64, 119
1, 78399, Note_off_c, 0, 51, 60
1, 78411, Control_c, 0, 64, 127
1, 78449, Note_on_c, 0, 59, 20
1, 78488, Note_off_c, 0, 59, 41
1, 78514, Note_on_c, 0, 87, 57
1, 78541, Note_off_c, 0, 87, 64
1, 78574, Note_on_c, 0, 68, 60
1, 78600, Note_on_c, 0, 87, 60
1, 78604, Note_off_c, 0, 68, 53
1, 78639, Note_off_c, 0, 87, 58
1, 78669, Note_on_c, 0, 99, 65
1, 78696, Note_off_c, 0, 99, 71
1, 78800, Note_on_c, 0, 88, 64
1, 78826, Note_off_c, 0, 88, 67
1, 78871, Note_on_c, 0, 88, 64
1, 78903, Note_off_c, 0, 88, 61
1, 78943, Note_on_c, 0, 99, 61
1, 78972, Note_off_c, 0, 99, 71
1, 79051, Note_on_c, 0, 89, 61
1, 79077, Note_off_c, 0, 89, 66
1, 79137, Note_on_c, 0, 89, 57
1, 79167, Note_off_c, 0, 89, 61
1, 79218, Note_on_c, 0, 99, 61
1, 79252, Note_off_c, 0, 99, 68
1, 79348, Note_on_c, 0, 90, 58
1, 79381, Note_off_c, 0, 90, 65
1, 79435, Note_on_c, 0, 90, 59
1, 79537, Note_off_c, 0, 90, 32
1, 79538, Note_on_c, 0, 99, 46
1, 79571, Note_off_c, 0, 99, 63
1, 79672, Note_on_c, 0, 91, 53
1, 79709, Note_off_c, 0, 91, 59
1, 79775, Note_on_c, 0, 91, 42
1, 79912, Note_on_c, 0, 99, 60
1, 79942, Note_off_c, 0, 91, 31
1, 79967, Note_off_c, 0, 99, 56
1, 80120, Note_on_c, 0, 92, 55
1, 80189, Note_off_c, 0, 92, 56
1, 80310, Note_on_c, 0, 92, 52
1, 80353, Note_off_c, 0, 92, 50
1, 80578, Note_on_c, 0, 99, 53
1, 80625, Note_off_c, 0, 99, 64
1, 80626, Control_c, 0, 64, 117
1, 80641, Control_c, 0, 64, 107
1, 80656, Control_c, 0, 64, 99
1, 80671, Control_c, 0, 64, 90
1, 80693, Control_c, 0, 64, 80
1, 80708, Control_c, 0, 64, 69
1, 80723, Control_c, 0, 64, 0
1, 81122, Note_on_c, 0, 71, 85
1, 81124, Note_on_c, 0, 68, 82
1, 81268, Note_off_c, 0, 68, 60
1, 81280, Note_off_c, 0, 71, 54
1, 81282, Note_on_c, 0, 70, 68
1, 81284, Note_on_c, 0, 67, 60
1, 81431, Note_off_c, 0, 67, 53
1, 81436, Note_on_c, 0, 71, 66
1, 81437, Note_on_c, 0, 66, 69
1, 81438, Note_on_c, 0, 69, 67
1, 81453, Note_off_c, 0, 70, 61
1, 81460, Note_off_c, 0, 66, 69
1, 81463, Note_off_c, 0, 71, 66
1, 81465, Note_off_c, 0, 69, 70
1, 81598, Note_on_c, 0, 65, 66
1, 81605, Note_on_c, 0, 68, 65
1, 81605, Note_on_c, 0, 71, 66
1, 81623, Note_off_c, 0, 68, 66
1, 81625, Note_off_c, 0, 65, 68
1, 81632, Note_off_c, 0, 71, 66
1, 81725, Note_on_c, 0, 64, 67
1, 81731, Note_on_c, 0, 67, 78
1, 81733, Note_on_c, 0, 71, 70
1, 81750, Note_off_c, 0, 64, 68
1, 81753, Note_off_c, 0, 67, 69
1, 81759, Note_off_c, 0, 71, 65
1, 81852, Note_on_c, 0, 63, 73
1, 81854, Note_on_c, 0, 66, 71
1, 81865, Note_on_c, 0, 71, 59
1, 81878, Note_off_c, 0, 63, 68
1, 81879, Note_off_c, 0, 66, 69
1, 81891, Note_off_c, 0, 71, 62
1, 81980, Note_on_c, 0, 62, 64
1, 81982, Note_on_c, 0, 65, 73
1, 81982, Note_on_c, 0, 71, 64
1, 82000, Note_off_c, 0, 62, 63
1, 82008, Note_off_c, 0, 65, 67
1, 82010, Note_off_c, 0, 71, 66
1, 82103, Note_on_c, 0, 61, 64
1, 82110, Note_on_c, 0, 71, 62
1, 82112, Note_on_c, 0, 64, 65
1, 82129, Note_off_c, 0, 71, 63
1, 82130, Note_off_c, 0, 61, 66
1, 82132, Note_off_c, 0, 64, 66
1, 82248, Note_on_c, 0, 73, 65
1, 82316, Note_off_c, 0, 73, 57
1, 82329, Note_on_c, 0, 71, 54
1, 82359, Note_off_c, 0, 71, 56
1, 82381, Note_on_c, 0, 70, 63
1, 82422, Note_off_c, 0, 70, 58
1, 82427, Note_on_c, 0, 71, 62
1, 82456, Note_off_c, 0, 71, 66
1, 82498, Note_on_c, 0, 66, 70
1, 82517, Note_on_c, 0, 63, 59
1, 82521, Note_off_c, 0, 66, 68
1, 82524, Note_on_c, 0, 59, 37
1, 82535, Note_off_c, 0, 63, 62
1, 82556, Note_off_c, 0, 59, 47
1, 82572, Note_on_c, 0, 78, 63
1, 82589, Note_off_c, 0, 78, 65
1, 82643, Note_on_c, 0, 78, 70
1, 82660, Note_off_c, 0, 78, 66
1, 82732, Note_on_c, 0, 78, 16
1, 82743, Note_off_c, 0, 78, 39
1, 82753, Note_on_c, 0, 71, 65
1, 82771, Note_on_c, 0, 54, 53
1, 82773, Note_on_c, 0, 66, 57
1, 82780, Note_off_c, 0, 71, 66
1, 82781, Note_on_c, 0, 63, 51
1, 82792, Note_off_c, 0, 66, 63
1, 82803, Note_off_c, 0, 63, 59
1, 82806, Note_off_c, 0, 54, 63
1, 82823, Note_on_c, 0, 83, 72
1, 82845, Note_off_c, 0, 83, 67
1, 82888, Note_on_c, 0, 83, 70
1, 82912, Note_off_c, 0, 83, 67
1, 82959, Note_on_c, 0, 83, 67
1, 82982, Note_off_c, 0, 83, 66
1, 83047, Note_on_c, 0, 73, 78
1, 83075, Note_off_c, 0, 73, 63
1, 83112, Note_on_c, 0, 85, 73
1, 83136, Note_off_c, 0, 85, 67
1, 83185, Note_on_c, 0, 85, 64
1, 83203, Note_off_c, 0, 85, 66
1, 83242, Note_on_c, 0, 85, 67
1, 83278, Note_off_c, 0, 85, 62
1, 83303, Note_on_c, 0, 78, 85
1, 83306, Note_on_c, 0, 58, 59
1, 83312, Note_on_c, 0, 64, 48
1, 83332, Note_off_c, 0, 64, 58
1, 83337, Note_off_c, 0, 58, 65
1, 83339, Note_off_c, 0, 78, 64
1, 83382, Note_on_c, 0, 90, 68
1, 83397, Note_off_c, 0, 90, 66
1, 83449, Note_on_c, 0, 90, 69
1, 83467, Note_off_c, 0, 90, 66
1, 83580, Note_on_c, 0, 85, 80
1, 83587, Note_on_c, 0, 54, 50
1, 83591, Note_on_c, 0, 66, 40
1, 83593, Note_on_c, 0, 58, 48
1, 83616, Note_off_c, 0, 85, 64
1, 83617, Note_off_c, 0, 66, 54
1, 83617, Note_off_c, 0, 58, 63
1, 83624, Note_off_c, 0, 54, 62
1, 83665, Note_on_c, 0, 97, 82
1, 83689, Note_on_c, 0, 90, 69
1, 83713, Note_off_c, 0, 97, 61
1, 83715, Note_off_c, 0, 90, 68
1, 83778, Note_on_c, 0, 97, 76
1, 83786, Note_on_c, 0, 90, 76
1, 83808, Note_off_c, 0, 90, 68
1, 83855, Note_off_c, 0, 97, 57
1, 83866, Control_c, 0, 64, 61
1, 83881, Control_c, 0, 64, 70
1, 83895, Note_on_c, 0, 47, 54
1, 83896, Control_c, 0, 64, 78
1, 83902, Note_on_c, 0, 87, 84
1, 83911, Control_c, 0, 64, 85
1, 83925, Control_c, 0, 64, 90
1, 83931, Note_off_c, 0, 47, 63
1, 83935, Note_off_c, 0, 87, 61
1, 83940, Control_c, 0, 64, 92
1, 83955, Control_c, 0, 64, 94
1, 83970, Control_c, 0, 64, 97
1, 83984, Control_c, 0, 64, 99
1, 84000, Control_c, 0, 64, 101
1, 84013, Note_on_c, 0, 99, 77
1, 84015, Control_c, 0, 64, 102
1, 84017, Note_on_c, 0, 90, 78
1, 84030, Control_c, 0, 64, 103
1, 84041, Note_off_c, 0, 90, 66
1, 84045, Note_off_c, 0, 99, 62
1, 84045, Control_c, 0, 64, 104
1, 84060, Control_c, 0, 64, 105
1, 84119, Control_c, 0, 64, 106
1, 84123, Note_on_c, 0, 99, 72
1, 84125, Note_on_c, 0, 90, 71
1, 84163, Note_off_c, 0, 90, 57
1, 84172, Note_off_c, 0, 99, 65
1, 84208, Control_c, 0, 64, 105
1, 84222, Control_c, 0, 64, 101
1, 84237, Control_c, 0, 64, 93
1, 84246, Note_on_c, 0, 54, 57
1, 84249, Note_on_c, 0, 83, 78
1, 84251, Note_on_c, 0, 63, 51
1, 84252, Control_c, 0, 64, 81
1, 84267, Control_c, 0, 64, 68
1, 84270, Note_off_c, 0, 54, 62
1, 84274, Note_off_c, 0, 63, 60
1, 84279, Note_off_c, 0, 83, 63
1, 84282, Control_c, 0, 64, 0
1, 84530, Note_on_c, 0, 75, 80
1, 84535, Note_on_c, 0, 71, 81
1, 84664, Note_on_c, 0, 74, 73
1, 84681, Note_off_c, 0, 75, 55
1, 84735, Note_off_c, 0, 74, 55
1, 84789, Note_on_c, 0, 70, 66
1, 84789, Note_off_c, 0, 71, 58
1, 84792, Note_on_c, 0, 73, 70
1, 84799, Note_on_c, 0, 75, 66
1, 84818, Note_off_c, 0, 70, 67
1, 84821, Note_off_c, 0, 73, 67
1, 84828, Note_off_c, 0, 75, 68
1, 84917, Note_on_c, 0, 69, 67
1, 84923, Note_on_c, 0, 72, 74
1, 84929, Note_on_c, 0, 75, 61
1, 84936, Note_off_c, 0, 69, 68
1, 84947, Note_off_c, 0, 72, 69
1, 84954, Note_off_c, 0, 75, 66
1, 85035, Note_on_c, 0, 68, 67
1, 85045, Note_on_c, 0, 75, 67
1, 85052, Note_on_c, 0, 71, 57
1, 85064, Note_off_c, 0, 68, 67
1, 85071, Note_off_c, 0, 71, 60
1, 85074, Note_off_c, 0, 75, 67
1, 85155, Note_on_c, 0, 67, 68
1, 85164, Note_on_c, 0, 75, 68
1, 85179, Note_on_c, 0, 70, 56
1, 85190, Note_off_c, 0, 67, 67
1, 85199, Note_off_c, 0, 70, 61
1, 85200, Note_off_c, 0, 75, 68
1, 85282, Note_on_c, 0, 66, 67
1, 85288, Note_on_c, 0, 69, 73
1, 85290, Note_on_c, 0, 75, 68
1, 85311, Note_off_c, 0, 66, 67
1, 85311, Note_off_c, 0, 69, 71
1, 85319, Note_off_c, 0, 75, 67
1, 85408, Note_on_c, 0, 75, 67
1, 85409, Note_on_c, 0, 65, 62
1, 85411, Note_on_c, 0, 68, 64
1, 85429, Note_off_c, 0, 65, 67
1, 85429, Note_off_c, 0, 68, 64
1, 85440, Note_off_c, 0, 75, 65
1, 85534, Note_on_c, 0, 77, 78
1, 85597, Note_off_c, 0, 77, 60
1, 85603, Note_on_c, 0, 75, 66
1, 85638, Note_off_c, 0, 75, 66
1, 85648, Note_on_c, 0, 74, 63
1, 85700, Note_on_c, 0, 75, 64
1, 85701, Note_off_c, 0, 74, 65
1, 85737, Note_off_c, 0, 75, 67
1, 85761, Note_on_c, 0, 70, 71
1, 85781, Note_on_c, 0, 63, 59
1, 85786, Note_off_c, 0, 70, 68
1, 85800, Note_off_c, 0, 63, 62
1, 85805, Note_on_c, 0, 66, 22
1, 85810, Note_off_c, 0, 66, 40
1, 85847, Note_on_c, 0, 82, 50
1, 85873, Note_off_c, 0, 82, 36
1, 85907, Note_on_c, 0, 82, 68
1, 85937, Note_off_c, 0, 82, 68
1, 85979, Note_on_c, 0, 82, 76
1, 86008, Note_off_c, 0, 82, 62
1, 86038, Note_on_c, 0, 75, 76
1, 86041, Note_on_c, 0, 58, 57
1, 86041, Note_on_c, 0, 70, 61
1, 86044, Note_on_c, 0, 66, 61
1, 86059, Note_off_c, 0, 70, 65
1, 86065, Note_off_c, 0, 66, 68
1, 86065, Note_off_c, 0, 75, 64
1, 86074, Note_off_c, 0, 58, 65
1, 86104, Note_on_c, 0, 87, 69
1, 86129, Note_off_c, 0, 87, 64
1, 86179, Note_on_c, 0, 87, 70
1, 86196, Note_off_c, 0, 87, 66
1, 86241, Note_on_c, 0, 87, 53
1, 86261, Note_off_c, 0, 87, 61
1, 86304, Note_on_c, 0, 77, 71
1, 86325, Note_off_c, 0, 77, 64
1, 86366, Note_on_c, 0, 89, 69
1, 86389, Note_off_c, 0, 89, 70
1, 86431, Note_on_c, 0, 89, 71
1, 86455, Note_off_c, 0, 89, 70
1, 86500, Note_on_c, 0, 89, 76
1, 86528, Note_off_c, 0, 89, 65
1, 86568, Note_on_c, 0, 82, 81
1, 86581, Note_on_c, 0, 68, 62
1, 86586, Note_on_c, 0, 62, 57
1, 86599, Note_off_c, 0, 68, 64
1, 86601, Note_off_c, 0, 82, 61
1, 86611, Note_off_c, 0, 62, 63
1, 86649, Note_on_c, 0, 94, 63
1, 86673, Note_off_c, 0, 94, 63
1, 86731, Note_on_c, 0, 94, 62
1, 86747, Note_off_c, 0, 94, 60
1, 86792, Note_on_c, 0, 94, 57
1, 86813, Note_off_c, 0, 94, 58
1, 86859, Note_on_c, 0, 89, 71
1, 86865, Note_on_c, 0, 70, 58
1, 86867, Note_on_c, 0, 58, 54
1, 86884, Note_off_c, 0, 70, 64
1, 86886, Note_off_c, 0, 89, 66
1, 86903, Note_off_c, 0, 58, 65
1, 86952, Note_on_c, 0, 101, 74
1, 86968, Note_on_c, 0, 94, 70
1, 86987, Note_off_c, 0, 101, 58
1, 86992, Note_off_c, 0, 94, 66
1, 87064, Note_on_c, 0, 101, 72
1, 87075, Note_on_c, 0, 94, 60
1, 87093, Note_off_c, 0, 94, 63
1, 87117, Note_off_c, 0, 101, 60
1, 87193, Note_on_c, 0, 90, 69
1, 87196, Note_on_c, 0, 51, 46
1, 87218, Control_c, 0, 64, 62
1, 87227, Note_off_c, 0, 90, 63
1, 87233, Control_c, 0, 64, 69
1, 87239, Note_off_c, 0, 51, 60
1, 87248, Control_c, 0, 64, 75
1, 87263, Control_c, 0, 64, 81
1, 87278, Control_c, 0, 64, 84
1, 87292, Control_c, 0, 64, 87
1, 87307, Control_c, 0, 64, 89
1, 87316, Note_on_c, 0, 94, 63
1, 87316, Note_on_c, 0, 102, 64
1, 87322, Control_c, 0, 64, 91
1, 87337, Control_c, 0, 64, 93
1, 87343, Note_off_c, 0, 94, 67
1, 87349, Note_off_c, 0, 102, 65
1, 87352, Control_c, 0, 64, 94
1, 87366, Control_c, 0, 64, 95
1, 87381, Control_c, 0, 64, 96
1, 87396, Control_c, 0, 64, 97
1, 87418, Control_c, 0, 64, 99
1, 87422, Note_on_c, 0, 102, 72
1, 87432, Note_on_c, 0, 94, 60
1, 87433, Control_c, 0, 64, 100
1, 87468, Note_off_c, 0, 102, 60
1, 87469, Note_off_c, 0, 94, 60
1, 87492, Control_c, 0, 64, 100
1, 87507, Control_c, 0, 64, 98
1, 87522, Control_c, 0, 64, 92
1, 87523, Note_on_c, 0, 58, 60
1, 87525, Note_on_c, 0, 87, 78
1, 87527, Note_on_c, 0, 66, 57
1, 87537, Control_c, 0, 64, 82
1, 87546, Note_off_c, 0, 87, 68
1, 87547, Note_off_c, 0, 66, 66
1, 87551, Control_c, 0, 64, 70
1, 87552, Note_off_c, 0, 58, 65
1, 87566, Control_c, 0, 64, 45
1, 87581, Control_c, 0, 64, 0
1, 87794, Note_on_c, 0, 75, 86
1, 87794, Note_on_c, 0, 78, 82
1, 87916, Note_off_c, 0, 75, 62
1, 87928, Note_on_c, 0, 74, 67
1, 87929, Note_on_c, 0, 77, 76
1, 87945, Note_off_c, 0, 78, 37
1, 88003, Note_off_c, 0, 77, 55
1, 88049, Note_on_c, 0, 73, 71
1, 88050, Note_on_c, 0, 78, 77
1, 88056, Note_on_c, 0, 76, 62
1, 88059, Note_off_c, 0, 74, 60
1, 88072, Note_off_c, 0, 73, 67
1, 88075, Note_off_c, 0, 76, 68
1, 88089, Note_off_c, 0, 78, 63
1, 88187, Note_on_c, 0, 75, 77
1, 88193, Note_on_c, 0, 78, 69
1, 88195, Note_on_c, 0, 72, 61
1, 88209, Note_off_c, 0, 75, 71
1, 88212, Note_off_c, 0, 72, 66
1, 88219, Note_off_c, 0, 78, 68
1, 88309, Note_on_c, 0, 71, 70
1, 88311, Note_on_c, 0, 78, 75
1, 88314, Note_on_c, 0, 74, 67
1, 88333, Note_off_c, 0, 71, 67
1, 88337, Note_off_c, 0, 74, 71
1, 88337, Note_off_c, 0, 78, 63
1, 88424, Note_on_c, 0, 70, 71
1, 88426, Note_on_c, 0, 73, 72
1, 88432, Note_on_c, 0, 78, 72
1, 88448, Note_off_c, 0, 70, 69
1, 88451, Note_off_c, 0, 73, 67
1, 88458, Note_off_c, 0, 78, 64
1, 88546, Note_on_c, 0, 78, 74
1, 88547, Note_on_c, 0, 69, 70
1, 88549, Note_on_c, 0, 72, 69
1, 88572, Note_off_c, 0, 69, 71
1, 88572, Note_off_c, 0, 78, 64
1, 88574, Note_off_c, 0, 72, 69
1, 88663, Note_on_c, 0, 68, 72
1, 88670, Note_on_c, 0, 78, 72
1, 88679, Note_on_c, 0, 71, 52
1, 88688, Note_off_c, 0, 68, 68
1, 88694, Note_off_c, 0, 78, 69
1, 88700, Note_off_c, 0, 71, 54
1, 88792, Note_on_c, 0, 80, 75
1, 88863, Note_on_c, 0, 78, 71
1, 88881, Note_off_c, 0, 80, 62
1, 88908, Note_off_c, 0, 78, 63
1, 88928, Note_on_c, 0, 77, 70
1, 88972, Note_on_c, 0, 78, 63
1, 88975, Note_off_c, 0, 77, 62
1, 89003, Note_off_c, 0, 78, 65
1, 89034, Note_on_c, 0, 73, 73
1, 89050, Note_on_c, 0, 66, 61
1, 89052, Note_on_c, 0, 70, 61
1, 89060, Note_off_c, 0, 73, 66
1, 89068, Note_off_c, 0, 66, 65
1, 89069, Note_off_c, 0, 70, 63
1, 89117, Note_on_c, 0, 85, 64
1, 89135, Note_off_c, 0, 85, 67
1, 89186, Note_on_c, 0, 85, 73
1, 89209, Note_off_c, 0, 85, 67
1, 89248, Note_on_c, 0, 85, 86
1, 89269, Note_off_c, 0, 85, 65
1, 89305, Note_on_c, 0, 73, 65
1, 89305, Note_on_c, 0, 78, 80
1, 89308, Note_on_c, 0, 61, 60
1, 89311, Note_on_c, 0, 70, 57
1, 89323, Note_off_c, 0, 73, 65
1, 89331, Note_off_c, 0, 70, 63
1, 89332, Note_off_c, 0, 78, 59
1, 89340, Note_off_c, 0, 61, 64
1, 89376, Note_on_c, 0, 90, 64
1, 89404, Note_off_c, 0, 90, 65
1, 89446, Note_on_c, 0, 90, 65
1, 89463, Note_off_c, 0, 90, 64
1, 89508, Note_on_c, 0, 90, 80
1, 89527, Note_off_c, 0, 90, 70
1, 89573, Note_on_c, 0, 80, 78
1, 89604, Note_off_c, 0, 80, 63
1, 89639, Note_on_c, 0, 92, 76
1, 89668, Note_off_c, 0, 92, 69
1, 89710, Note_on_c, 0, 92, 73
1, 89733, Note_off_c, 0, 92, 69
1, 89772, Note_on_c, 0, 92, 77
1, 89821, Note_off_c, 0, 92, 61
1, 89838, Note_on_c, 0, 85, 75
1, 89845, Note_on_c, 0, 71, 62
1, 89851, Note_on_c, 0, 65, 60
1, 89869, Note_off_c, 0, 85, 63
1, 89875, Note_off_c, 0, 71, 63
1, 89882, Note_off_c, 0, 65, 67
1, 89925, Note_on_c, 0, 97, 80
1, 89931, Note_on_c, 0, 92, 81
1, 89952, Note_off_c, 0, 92, 67
1, 89961, Note_off_c, 0, 97, 60
1, 90029, Note_on_c, 0, 97, 83
1, 90032, Note_on_c, 0, 92, 87
1, 90052, Note_off_c, 0, 92, 66
1, 90071, Note_off_c, 0, 97, 65
1, 90126, Note_on_c, 0, 97, 78
1, 90128, Note_on_c, 0, 61, 60
1, 90133, Note_on_c, 0, 92, 87
1, 90134, Note_on_c, 0, 73, 58
1, 90151, Note_off_c, 0, 92, 67
1, 90156, Note_off_c, 0, 73, 62
1, 90163, Note_off_c, 0, 61, 62
1, 90169, Note_off_c, 0, 97, 65
1, 90224, Note_on_c, 0, 97, 74
1, 90230, Note_on_c, 0, 92, 82
1, 90248, Note_off_c, 0, 92, 71
1, 90273, Note_off_c, 0, 97, 64
1, 90287, Control_c, 0, 64, 10
1, 90302, Control_c, 0, 64, 18
1, 90315, Note_on_c, 0, 97, 69
1, 90317, Control_c, 0, 64, 23
1, 90321, Note_on_c, 0, 92, 86
1, 90331, Control_c, 0, 64, 0
1, 90342, Note_off_c, 0, 92, 65
1, 90366, Note_off_c, 0, 97, 65
1, 90429, Control_c, 0, 64, 18
1, 90440, Note_on_c, 0, 66, 69
1, 90441, Note_on_c, 0, 97, 78
1, 90444, Control_c, 0, 64, 64
1, 90448, Note_on_c, 0, 94, 79
1, 90459, Control_c, 0, 64, 71
1, 90467, Note_off_c, 0, 66, 68
1, 90470, Note_off_c, 0, 94, 68
1, 90473, Control_c, 0, 64, 79
1, 90488, Control_c, 0, 64, 83
1, 90503, Control_c, 0, 64, 84
1, 90516, Note_off_c, 0, 97, 64
1, 90518, Control_c, 0, 64, 85
1, 90524, Note_on_c, 0, 99, 74
1, 90533, Control_c, 0, 64, 86
1, 90548, Control_c, 0, 64, 87
1, 90563, Control_c, 0, 64, 87
1, 90585, Note_off_c, 0, 99, 37
1, 90592, Control_c, 0, 64, 88
1, 90603, Note_on_c, 0, 97, 69
1, 90619, Note_on_c, 0, 93, 59
1, 90637, Note_off_c, 0, 93, 58
1, 90643, Note_off_c, 0, 97, 57
1, 90664, Note_on_c, 0, 99, 70
1, 90704, Note_on_c, 0, 82, 64
1, 90709, Note_on_c, 0, 78, 58
1, 90711, Control_c, 0, 64, 86
1, 90722, Note_on_c, 0, 92, 73
1, 90725, Control_c, 0, 64, 83
1, 90729, Note_off_c, 0, 82, 65
1, 90730, Note_on_c, 0, 97, 71
1, 90730, Note_off_c, 0, 78, 63
1, 90730, Note_off_c, 0, 99, 60
1, 90740, Control_c, 0, 64, 78
1, 90744, Note_off_c, 0, 92, 69
1, 90755, Control_c, 0, 64, 69
1, 90769, Control_c, 0, 64, 55
1, 90777, Note_on_c, 0, 99, 46
1, 90778, Note_off_c, 0, 97, 58
1, 90784, Control_c, 0, 64, 0
1, 90839, Note_on_c, 0, 83, 69
1, 90840, Note_on_c, 0, 91, 74
1, 90843, Note_on_c, 0, 80, 71
1, 90847, Note_on_c, 0, 97, 69
1, 90854, Note_off_c, 0, 83, 64
1, 90860, Note_off_c, 0, 99, 56
1, 90861, Note_off_c, 0, 91, 67
1, 90867, Note_off_c, 0, 80, 70
1, 90890, Note_off_c, 0, 97, 59
1, 90898, Note_on_c, 0, 99, 38
1, 90963, Note_on_c, 0, 85, 73
1, 90964, Note_on_c, 0, 90, 72
1, 90967, Note_on_c, 0, 82, 62
1, 90970, Note_on_c, 0, 97, 66
1, 90974, Note_off_c, 0, 99, 67
1, 90978, Note_off_c, 0, 85, 68
1, 90985, Note_off_c, 0, 82, 64
1, 90989, Note_off_c, 0, 90, 65
1, 91005, Note_off_c, 0, 97, 58
1, 91027, Note_on_c, 0, 99, 59
1, 91101, Note_off_c, 0, 99, 0
1, 91103, Note_on_c, 0, 97, 73
1, 91123, Note_on_c, 0, 99, 23
1, 91159, Note_off_c, 0, 97, 63
1, 91193, Note_off_c, 0, 99, 66
1, 91222, Control_c, 0, 64, 51
1, 91230, Note_on_c, 0, 92, 78
1, 91237, Control_c, 0, 64, 66
1, 91239, Note_on_c, 0, 95, 68
1, 91240, Note_on_c, 0, 59, 62
1, 91252, Control_c, 0, 64, 71
1, 91263, Note_off_c, 0, 59, 64
1, 91266, Control_c, 0, 64, 75
1, 91275, Note_off_c, 0, 92, 63
1, 91281, Control_c, 0, 64, 78
1, 91296, Control_c, 0, 64, 80
1, 91311, Control_c, 0, 64, 81
1, 91313, Note_on_c, 0, 97, 72
1, 91316, Note_off_c, 0, 95, 65
1, 91341, Control_c, 0, 64, 81
1, 91356, Control_c, 0, 64, 82
1, 91368, Note_on_c, 0, 91, 77
1, 91370, Note_on_c, 0, 95, 63
1, 91371, Control_c, 0, 64, 83
1, 91386, Note_off_c, 0, 97, 61
1, 91386, Control_c, 0, 64, 84
1, 91398, Note_off_c, 0, 91, 60
1, 91398, Control_c, 0, 64, 85
1, 91423, Note_on_c, 0, 97, 59
1, 91443, Note_off_c, 0, 95, 65
1, 91485, Note_on_c, 0, 71, 59
1, 91487, Control_c, 0, 64, 85
1, 91490, Note_on_c, 0, 90, 85
1, 91490, Note_on_c, 0, 95, 63
1, 91492, Note_on_c, 0, 80, 60
1, 91502, Control_c, 0, 64, 82
1, 91511, Note_off_c, 0, 97, 64
1, 91514, Note_off_c, 0, 80, 61
1, 91517, Control_c, 0, 64, 74
1, 91520, Note_off_c, 0, 71, 61
1, 91520, Note_off_c, 0, 90, 61
1, 91532, Control_c, 0, 64, 64
1, 91547, Control_c, 0, 64, 0
1, 91560, Note_on_c, 0, 97, 61
1, 91570, Note_off_c, 0, 95, 66
1, 91623, Note_on_c, 0, 95, 59
1, 91625, Note_on_c, 0, 73, 62
1, 91626, Note_on_c, 0, 82, 64
1, 91629, Note_on_c, 0, 89, 75
1, 91639, Note_off_c, 0, 97, 63
1, 91649, Note_off_c, 0, 82, 66
1, 91652, Note_off_c, 0, 73, 65
1, 91659, Note_off_c, 0, 89, 65
1, 91688, Note_on_c, 0, 97, 61
1, 91699, Note_off_c, 0, 95, 65
1, 91756, Note_on_c, 0, 95, 70
1, 91764, Note_on_c, 0, 87, 75
1, 91765, Note_on_c, 0, 83, 58
1, 91769, Note_on_c, 0, 75, 64
1, 91774, Note_off_c, 0, 97, 63
1, 91782, Note_off_c, 0, 83, 63
1, 91788, Note_off_c, 0, 87, 66
1, 91796, Note_off_c, 0, 75, 69
1, 91835, Note_on_c, 0, 97, 66
1, 91835, Note_off_c, 0, 95, 65
1, 91904, Note_on_c, 0, 95, 72
1, 91922, Note_off_c, 0, 97, 59
1, 91968, Note_on_c, 0, 97, 34
1, 91976, Note_off_c, 0, 95, 65
1, 92013, Note_off_c, 0, 97, 64
1, 92044, Control_c, 0, 64, 46
1, 92055, Note_on_c, 0, 90, 75
1, 92059, Control_c, 0, 64, 63
1, 92063, Note_on_c, 0, 61, 51
1, 92067, Note_on_c, 0, 94, 59
1, 92074, Control_c, 0, 64, 66
1, 92088, Control_c, 0, 64, 69
1, 92089, Note_off_c, 0, 61, 62
1, 92103, Control_c, 0, 64, 72
1, 92107, Note_off_c, 0, 90, 61
1, 92118, Control_c, 0, 64, 76
1, 92119, Note_on_c, 0, 95, 72
1, 92127, Note_off_c, 0, 94, 63
1, 92132, Control_c, 0, 64, 79
1, 92147, Control_c, 0, 64, 81
1, 92162, Control_c, 0, 64, 81
1, 92177, Control_c, 0, 64, 82
1, 92192, Control_c, 0, 64, 82
1, 92203, Note_on_c, 0, 89, 67
1, 92209, Note_on_c, 0, 94, 60
1, 92221, Control_c, 0, 64, 83
1, 92222, Note_off_c, 0, 95, 0
1, 92229, Note_off_c, 0, 89, 69
1, 92242, Note_on_c, 0, 95, 26
1, 92271, Note_off_c, 0, 94, 65
1, 92325, Note_on_c, 0, 87, 80
1, 92325, Control_c, 0, 64, 82
1, 92328, Note_on_c, 0, 78, 56
1, 92329, Note_on_c, 0, 94, 59
1, 92334, Note_off_c, 0, 95, 61
1, 92339, Control_c, 0, 64, 80
1, 92342, Note_on_c, 0, 70, 35
1, 92348, Note_off_c, 0, 78, 61
1, 92354, Control_c, 0, 64, 75
1, 92363, Note_off_c, 0, 87, 57
1, 92369, Control_c, 0, 64, 68
1, 92372, Note_off_c, 0, 70, 48
1, 92384, Control_c, 0, 64, 50
1, 92395, Note_on_c, 0, 95, 58
1, 92399, Note_off_c, 0, 94, 64
1, 92399, Control_c, 0, 64, 0
1, 92461, Note_on_c, 0, 94, 61
1, 92469, Note_on_c, 0, 86, 69
1, 92469, Note_off_c, 0, 95, 58
1, 92474, Note_on_c, 0, 71, 47
1, 92474, Note_on_c, 0, 80, 49
1, 92494, Note_off_c, 0, 80, 59
1, 92494, Note_off_c, 0, 86, 67
1, 92494, Note_off_c, 0, 71, 53
1, 92521, Note_on_c, 0, 95, 52
1, 92533, Note_off_c, 0, 94, 62
1, 92591, Note_off_c, 0, 95, 62
1, 92596, Note_on_c, 0, 94, 65
1, 92600, Note_on_c, 0, 82, 61
1, 92605, Note_on_c, 0, 85, 70
1, 92612, Note_on_c, 0, 73, 50
1, 92618, Note_off_c, 0, 82, 66
1, 92634, Note_off_c, 0, 85, 64
1, 92636, Note_off_c, 0, 73, 60
1, 92676, Note_off_c, 0, 94, 66
1, 92684, Note_on_c, 0, 95, 63
1, 92726, Note_off_c, 0, 95, 56
1, 92745, Note_on_c, 0, 94, 69
1, 92805, Note_off_c, 0, 94, 65
1, 92812, Note_on_c, 0, 95, 65
1, 92846, Note_off_c, 0, 95, 60
1, 92867, Control_c, 0, 64, 15
1, 92882, Control_c, 0, 64, 58
1, 92891, Note_on_c, 0, 61, 52
1, 92893, Note_on_c, 0, 89, 68
1, 92897, Note_on_c, 0, 92, 68
1, 92897, Control_c, 0, 64, 64
1, 92911, Control_c, 0, 64, 67
1, 92915, Note_off_c, 0, 61, 62
1, 92926, Control_c, 0, 64, 69
1, 92930, Note_off_c, 0, 89, 64
1, 92941, Control_c, 0, 64, 73
1, 92956, Control_c, 0, 64, 78
1, 92969, Note_off_c, 0, 92, 64
1, 92970, Control_c, 0, 64, 81
1, 92978, Note_on_c, 0, 94, 71
1, 92985, Control_c, 0, 64, 83
1, 93000, Control_c, 0, 64, 84
1, 93015, Control_c, 0, 64, 85
1, 93029, Control_c, 0, 64, 87
1, 93044, Control_c, 0, 64, 89
1, 93047, Note_off_c, 0, 94, 64
1, 93054, Note_on_c, 0, 92, 64
1, 93059, Control_c, 0, 64, 90
1, 93070, Note_on_c, 0, 87, 30
1, 93074, Control_c, 0, 64, 91
1, 93089, Control_c, 0, 64, 92
1, 93103, Note_off_c, 0, 87, 40
1, 93104, Control_c, 0, 64, 92
1, 93113, Note_off_c, 0, 92, 64
1, 93117, Note_on_c, 0, 94, 58
1, 93118, Control_c, 0, 64, 93
1, 93171, Note_on_c, 0, 68, 56
1, 93184, Note_on_c, 0, 77, 45
1, 93184, Note_off_c, 0, 94, 65
1, 93186, Note_on_c, 0, 86, 64
1, 93192, Control_c, 0, 64, 93
1, 93196, Note_on_c, 0, 92, 59
1, 93205, Note_off_c, 0, 68, 58
1, 93208, Note_off_c, 0, 77, 55
1, 93213, Note_off_c, 0, 86, 66
1, 93237, Note_off_c, 0, 92, 60
1, 93249, Note_on_c, 0, 94, 52
1, 93330, Note_off_c, 0, 94, 64
1, 93331, Note_on_c, 0, 92, 68
1, 93332, Note_on_c, 0, 78, 59
1, 93332, Note_on_c, 0, 85, 57
1, 93337, Note_on_c, 0, 70, 45
1, 93354, Note_off_c, 0, 78, 60
1, 93356, Control_c, 0, 64, 93
1, 93358, Note_off_c, 0, 85, 59
1, 93362, Note_off_c, 0, 70, 56
1, 93370, Control_c, 0, 64, 90
1, 93374, Note_off_c, 0, 92, 54
1, 93385, Control_c, 0, 64, 83
1, 93392, Note_on_c, 0, 94, 58
1, 93400, Control_c, 0, 64, 72
1, 93422, Control_c, 0, 64, 52
1, 93436, Control_c, 0, 64, 0
1, 93451, Control_c, 0, 64, 51
1, 93466, Control_c, 0, 64, 66
1, 93469, Note_off_c, 0, 94, 62
1, 93481, Control_c, 0, 64, 72
1, 93483, Note_on_c, 0, 92, 59
1, 93489, Note_on_c, 0, 71, 46
1, 93496, Control_c, 0, 64, 78
1, 93499, Note_on_c, 0, 80, 51
1, 93500, Note_on_c, 0, 83, 63
1, 93511, Control_c, 0, 64, 84
1, 93522, Note_off_c, 0, 80, 58
1, 93525, Note_off_c, 0, 83, 65
1, 93526, Control_c, 0, 64, 88
1, 93534, Note_off_c, 0, 71, 60
1, 93541, Control_c, 0, 64, 90
1, 93553, Note_on_c, 0, 87, 65
1, 93556, Control_c, 0, 64, 92
1, 93570, Control_c, 0, 64, 94
1, 93585, Control_c, 0, 64, 97
1, 93600, Control_c, 0, 64, 101
1, 93613, Note_off_c, 0, 92, 34
1, 93615, Control_c, 0, 64, 103
1, 93627, Note_off_c, 0, 87, 63
1, 93630, Control_c, 0, 64, 105
1, 93645, Control_c, 0, 64, 106
1, 93648, Note_on_c, 0, 88, 64
1, 93695, Note_on_c, 0, 89, 70
1, 93705, Control_c, 0, 64, 105
1, 93708, Note_off_c, 0, 88, 57
1, 93709, Note_on_c, 0, 66, 57
1, 93720, Control_c, 0, 64, 100
1, 93734, Control_c, 0, 64, 89
1, 93743, Note_off_c, 0, 89, 64
1, 93749, Note_off_c, 0, 66, 52
1, 93749, Control_c, 0, 64, 75
1, 93764, Control_c, 0, 64, 49
1, 93776, Note_on_c, 0, 73, 40
1, 93779, Control_c, 0, 64, 0
1, 93808, Control_c, 0, 64, 59
1, 93823, Control_c, 0, 64, 73
1, 93836, Note_on_c, 0, 90, 72
1, 93838, Control_c, 0, 64, 84
1, 93853, Control_c, 0, 64, 93
1, 93862, Note_off_c, 0, 90, 67
1, 93866, Note_on_c, 0, 82, 57
1, 93867, Control_c, 0, 64, 98
1, 93882, Control_c, 0, 64, 101
1, 93886, Note_on_c, 0, 92, 58
1, 93890, Note_off_c, 0, 82, 64
1, 93897, Control_c, 0, 64, 106
1, 93906, Note_off_c, 0, 73, 55
1, 93912, Control_c, 0, 64, 112
1, 93927, Control_c, 0, 64, 117
1, 93928, Note_off_c, 0, 92, 60
1, 93941, Control_c, 0, 64, 123
1, 93943, Note_on_c, 0, 90, 73
1, 93956, Control_c, 0, 64, 127
1, 93970, Note_off_c, 0, 90, 64
1, 93988, Note_on_c, 0, 92, 55
1, 94024, Note_off_c, 0, 92, 65
1, 94043, Note_on_c, 0, 90, 62
1, 94089, Note_on_c, 0, 92, 53
1, 94137, Note_off_c, 0, 92, 60
1, 94143, Note_off_c, 0, 90, 63
1, 94215, Note_on_c, 0, 78, 79
1, 94244, Note_off_c, 0, 78, 61
1, 94298, Note_on_c, 0, 90, 55
1, 94334, Note_off_c, 0, 90, 65
1, 94344, Note_on_c, 0, 92, 62
1, 94402, Note_on_c, 0, 90, 61
1, 94405, Note_off_c, 0, 92, 51
1, 94452, Note_off_c, 0, 90, 60
1, 94468, Note_on_c, 0, 79, 76
1, 94492, Note_off_c, 0, 79, 67
1, 94548, Note_on_c, 0, 91, 71
1, 94604, Note_on_c, 0, 92, 73
1, 94604, Note_off_c, 0, 91, 60
1, 94690, Note_on_c, 0, 91, 66
1, 94720, Note_off_c, 0, 92, 55
1, 94772, Note_on_c, 0, 80, 76
1, 94788, Note_off_c, 0, 91, 37
1, 94794, Control_c, 0, 64, 115
1, 94808, Note_off_c, 0, 80, 57
1, 94808, Control_c, 0, 64, 102
1, 94823, Control_c, 0, 64, 89
1, 94838, Control_c, 0, 64, 75
1, 94853, Control_c, 0, 64, 60
1, 94868, Control_c, 0, 64, 0
1, 94879, Note_on_c, 0, 92, 64
1, 94882, Control_c, 0, 64, 59
1, 94897, Control_c, 0, 64, 70
1, 94920, Control_c, 0, 64, 78
1, 94934, Control_c, 0, 64, 85
1, 94935, Note_off_c, 0, 92, 61
1, 94938, Note_on_c, 0, 64, 47
1, 94949, Control_c, 0, 64, 88
1, 94959, Note_on_c, 0, 93, 59
1, 94964, Control_c, 0, 64, 94
1, 94973, Note_off_c, 0, 64, 64
1, 94979, Control_c, 0, 64, 101
1, 94994, Control_c, 0, 64, 109
1, 94998, Note_off_c, 0, 93, 60
1, 95008, Control_c, 0, 64, 117
1, 95018, Note_on_c, 0, 92, 59
1, 95023, Control_c, 0, 64, 123
1, 95038, Control_c, 0, 64, 127
1, 95055, Note_off_c, 0, 92, 62
1, 95079, Note_on_c, 0, 93, 61
1, 95101, Note_on_c, 0, 80, 53
1, 95121, Note_off_c, 0, 80, 61
1, 95122, Note_off_c, 0, 93, 59
1, 95149, Note_on_c, 0, 92, 63
1, 95172, Note_off_c, 0, 92, 57
1, 95211, Note_on_c, 0, 93, 57
1, 95231, Control_c, 0, 64, 105
1, 95236, Note_off_c, 0, 93, 57
1, 95241, Note_on_c, 0, 63, 50
1, 95246, Control_c, 0, 64, 89
1, 95261, Control_c, 0, 64, 83
1, 95262, Note_on_c, 0, 92, 66
1, 95268, Note_off_c, 0, 63, 57
1, 95291, Control_c, 0, 64, 85
1, 95295, Note_off_c, 0, 92, 60
1, 95305, Control_c, 0, 64, 91
1, 95317, Note_on_c, 0, 93, 70
1, 95320, Control_c, 0, 64, 101
1, 95335, Control_c, 0, 64, 115
1, 95350, Note_off_c, 0, 93, 57
1, 95350, Control_c, 0, 64, 127
1, 95353, Note_on_c, 0, 78, 66
1, 95379, Note_on_c, 0, 92, 78
1, 95380, Note_off_c, 0, 78, 67
1, 95411, Note_off_c, 0, 92, 58
1, 95428, Note_on_c, 0, 93, 57
1, 95484, Control_c, 0, 64, 107
1, 95495, Note_on_c, 0, 61, 63
1, 95499, Control_c, 0, 64, 94
1, 95499, Note_on_c, 0, 92, 64
1, 95502, Note_off_c, 0, 93, 60
1, 95514, Control_c, 0, 64, 86
1, 95526, Note_off_c, 0, 61, 64
1, 95529, Control_c, 0, 64, 82
1, 95541, Note_off_c, 0, 92, 63
1, 95558, Control_c, 0, 64, 83
1, 95573, Control_c, 0, 64, 88
1, 95588, Control_c, 0, 64, 97
1, 95600, Note_on_c, 0, 92, 69
1, 95603, Control_c, 0, 64, 107
1, 95604, Note_on_c, 0, 76, 61
1, 95618, Control_c, 0, 64, 114
1, 95623, Note_off_c, 0, 76, 67
1, 95633, Control_c, 0, 64, 121
1, 95642, Note_off_c, 0, 92, 63
1, 95648, Control_c, 0, 64, 127
1, 95663, Note_on_c, 0, 93, 60
1, 95703, Note_off_c, 0, 93, 57
1, 95734, Note_on_c, 0, 92, 58
1, 95762, Note_off_c, 0, 92, 58
1, 95776, Note_on_c, 0, 93, 61
1, 95788, Control_c, 0, 64, 122
1, 95803, Control_c, 0, 64, 105
1, 95808, Note_off_c, 0, 93, 61
1, 95818, Control_c, 0, 64, 90
1, 95833, Control_c, 0, 64, 72
1, 95838, Note_on_c, 0, 102, 80
1, 95842, Note_on_c, 0, 92, 73
1, 95843, Note_on_c, 0, 87, 76
1, 95848, Control_c, 0, 64, 31
1, 95863, Control_c, 0, 64, 0
1, 95865, Note_off_c, 0, 87, 70
1, 95892, Note_off_c, 0, 102, 64
1, 95901, Note_off_c, 0, 92, 55
1, 95919, Note_on_c, 0, 93, 67
1, 95950, Note_off_c, 0, 93, 61
1, 95962, Note_on_c, 0, 92, 64
1, 96010, Note_off_c, 0, 92, 63
1, 96024, Note_on_c, 0, 93, 55
1, 96065, Note_off_c, 0, 93, 59
1, 96072, Note_on_c, 0, 100, 78
1, 96075, Note_on_c, 0, 92, 73
1, 96078, Note_on_c, 0, 85, 66
1, 96104, Note_off_c, 0, 85, 68
1, 96120, Note_off_c, 0, 92, 57
1, 96140, Note_off_c, 0, 100, 64
1, 96149, Note_on_c, 0, 93, 70
1, 96179, Note_off_c, 0, 93, 61
1, 96211, Note_on_c, 0, 92, 66
1, 96213, Note_on_c, 0, 68, 58
1, 96234, Note_off_c, 0, 68, 64
1, 96236, Note_off_c, 0, 92, 58
1, 96264, Note_on_c, 0, 93, 59
1, 96298, Note_off_c, 0, 93, 61
1, 96304, Note_on_c, 0, 99, 79
1, 96312, Note_on_c, 0, 92, 71
1, 96314, Note_on_c, 0, 84, 58
1, 96333, Note_off_c, 0, 84, 65
1, 96349, Note_off_c, 0, 92, 54
1, 96380, Note_on_c, 0, 93, 66
1, 96415, Note_off_c, 0, 99, 52
1, 96421, Note_off_c, 0, 93, 60
1, 96442, Note_on_c, 0, 92, 64
1, 96476, Note_off_c, 0, 92, 62
1, 96519, Note_on_c, 0, 93, 40
1, 96546, Note_on_c, 0, 97, 65
1, 96548, Note_off_c, 0, 93, 42
1, 96554, Note_on_c, 0, 82, 62
1, 96566, Note_on_c, 0, 92, 62
1, 96578, Note_off_c, 0, 82, 66
1, 96592, Note_off_c, 0, 92, 54
1, 96620, Note_on_c, 0, 93, 72
1, 96656, Note_off_c, 0, 93, 56
1, 96684, Note_on_c, 0, 92, 61
1, 96712, Note_off_c, 0, 92, 57
1, 96740, Note_off_c, 0, 97, 21
1, 96754, Note_on_c, 0, 84, 60
1, 96769, Note_on_c, 0, 99, 75
1, 96773, Note_off_c, 0, 84, 65
1, 96775, Note_on_c, 0, 93, 18
1, 96790, Note_on_c, 0, 92, 63
1, 96823, Note_off_c, 0, 92, 48
1, 96852, Note_off_c, 0, 93, 0
1, 96852, Note_on_c, 0, 93, 49
1, 96867, Note_off_c, 0, 99, 66
1, 96897, Note_off_c, 0, 93, 60
1, 96908, Note_on_c, 0, 92, 64
1, 96915, Note_on_c, 0, 73, 48
1, 96944, Note_off_c, 0, 92, 57
1, 96989, Note_on_c, 0, 85, 47
1, 97002, Note_on_c, 0, 93, 41
1, 97011, Note_on_c, 0, 100, 63
1, 97013, Control_c, 0, 64, 47
1, 97028, Control_c, 0, 64, 66
1, 97031, Note_off_c, 0, 93, 34
1, 97043, Control_c, 0, 64, 71
1, 97045, Note_on_c, 0, 92, 54
1, 97055, Note_off_c, 0, 73, 49
1, 97058, Control_c, 0, 64, 77
1, 97070, Note_off_c, 0, 85, 58
1, 97073, Control_c, 0, 64, 80
1, 97074, Note_off_c, 0, 92, 53
1, 97087, Control_c, 0, 64, 82
1, 97091, Note_off_c, 0, 100, 59
1, 97102, Control_c, 0, 64, 83
1, 97112, Note_on_c, 0, 93, 57
1, 97117, Control_c, 0, 64, 83
1, 97131, Control_c, 0, 64, 84
1, 97134, Note_off_c, 0, 93, 54
1, 97146, Control_c, 0, 64, 85
1, 97169, Control_c, 0, 64, 86
1, 97183, Note_on_c, 0, 92, 41
1, 97183, Control_c, 0, 64, 87
1, 97213, Control_c, 0, 64, 87
1, 97218, Note_off_c, 0, 92, 46
1, 97243, Control_c, 0, 64, 88
1, 97273, Control_c, 0, 64, 88
1, 97276, Note_on_c, 0, 97, 65
1, 97285, Note_on_c, 0, 88, 51
1, 97309, Note_off_c, 0, 88, 64
1, 97309, Poly_aftertouch_c, 0, 93, 0
1, 97320, Note_off_c, 0, 97, 60
1, 97329, Poly_aftertouch_c, 0, 92, 0
1, 97346, Control_c, 0, 64, 88
1, 97361, Control_c, 0, 64, 87
1, 97376, Control_c, 0, 64, 84
1, 97390, Control_c, 0, 64, 78
1, 97404, Control_c, 0, 64, 71
1, 97419, Control_c, 0, 64, 59
1, 97434, Control_c, 0, 64, 0
1, 97532, Note_on_c, 0, 79, 83
1, 97564, Note_off_c, 0, 79, 65
1, 97617, Note_on_c, 0, 91, 68
1, 97639, Note_on_c, 0, 93, 77
1, 97644, Note_off_c, 0, 91, 63
1, 97703, Note_off_c, 0, 93, 52
1, 97724, Note_on_c, 0, 91, 75
1, 97790, Note_on_c, 0, 78, 79
1, 97814, Note_off_c, 0, 78, 64
1, 97818, Note_off_c, 0, 91, 59
1, 97884, Note_on_c, 0, 90, 71
1, 97934, Note_off_c, 0, 90, 59
1, 97940, Note_on_c, 0, 63, 44
1, 97950, Note_on_c, 0, 92, 60
1, 97979, Note_off_c, 0, 63, 59
1, 97997, Note_off_c, 0, 92, 59
1, 98006, Control_c, 0, 64, 56
1, 98021, Control_c, 0, 64, 65
1, 98023, Note_on_c, 0, 90, 57
1, 98035, Control_c, 0, 64, 70
1, 98050, Control_c, 0, 64, 74
1, 98059, Note_off_c, 0, 90, 64
1, 98065, Control_c, 0, 64, 79
1, 98071, Note_on_c, 0, 92, 55
1, 98072, Note_on_c, 0, 78, 63
1, 98080, Control_c, 0, 64, 82
1, 98092, Note_off_c, 0, 78, 66
1, 98095, Control_c, 0, 64, 85
1, 98109, Note_off_c, 0, 92, 63
1, 98109, Control_c, 0, 64, 87
1, 98124, Control_c, 0, 64, 88
1, 98145, Note_on_c, 0, 90, 63
1, 98168, Control_c, 0, 64, 85
1, 98170, Note_off_c, 0, 90, 57
1, 98183, Control_c, 0, 64, 77
1, 98198, Note_on_c, 0, 92, 58
1, 98198, Control_c, 0, 64, 66
1, 98213, Control_c, 0, 64, 33
1, 98217, Note_on_c, 0, 61, 42
1, 98221, Note_off_c, 0, 92, 56
1, 98227, Control_c, 0, 64, 54
1, 98242, Control_c, 0, 64, 66
1, 98244, Note_off_c, 0, 61, 54
1, 98251, Note_on_c, 0, 90, 64
1, 98257, Control_c, 0, 64, 73
1, 98272, Control_c, 0, 64, 80
1, 98280, Note_off_c, 0, 90, 66
1, 98286, Control_c, 0, 64, 85
1, 98292, Note_on_c, 0, 92, 72
1, 98301, Control_c, 0, 64, 88
1, 98312, Note_on_c, 0, 76, 61
1, 98316, Control_c, 0, 64, 93
1, 98331, Note_off_c, 0, 76, 67
1, 98331, Control_c, 0, 64, 98
1, 98338, Note_off_c, 0, 92, 61
1, 98346, Control_c, 0, 64, 103
1, 98355, Note_on_c, 0, 90, 70
1, 98361, Control_c, 0, 64, 107
1, 98377, Control_c, 0, 64, 107
1, 98391, Note_off_c, 0, 90, 55
1, 98407, Control_c, 0, 64, 105
1, 98408, Note_on_c, 0, 92, 48
1, 98422, Control_c, 0, 64, 96
1, 98437, Control_c, 0, 64, 82
1, 98451, Note_on_c, 0, 90, 55
1, 98451, Control_c, 0, 64, 66
1, 98459, Note_on_c, 0, 59, 23
1, 98466, Control_c, 0, 64, 0
1, 98471, Note_off_c, 0, 92, 62
1, 98488, Note_off_c, 0, 90, 65
1, 98495, Note_off_c, 0, 59, 41
1, 98496, Control_c, 0, 64, 57
1, 98511, Control_c, 0, 64, 71
1, 98526, Control_c, 0, 64, 79
1, 98540, Control_c, 0, 64, 85
1, 98550, Note_on_c, 0, 75, 61
1, 98555, Note_on_c, 0, 90, 63
1, 98555, Control_c, 0, 64, 88
1, 98568, Note_off_c, 0, 75, 65
1, 98570, Control_c, 0, 64, 91
1, 98584, Control_c, 0, 64, 94
1, 98587, Note_off_c, 0, 90, 62
1, 98594, Note_on_c, 0, 92, 71
1, 98599, Control_c, 0, 64, 99
1, 98614, Control_c, 0, 64, 101
1, 98622, Note_off_c, 0, 92, 64
1, 98629, Control_c, 0, 64, 101
1, 98666, Control_c, 0, 64, 101
1, 98679, Note_on_c, 0, 90, 63
1, 98696, Note_off_c, 0, 90, 62
1, 98696, Control_c, 0, 64, 99
1, 98702, Note_on_c, 0, 92, 64
1, 98710, Control_c, 0, 64, 94
1, 98725, Control_c, 0, 64, 84
1, 98740, Control_c, 0, 64, 71
1, 98746, Note_off_c, 0, 92, 59
1, 98755, Control_c, 0, 64, 18
1, 98770, Control_c, 0, 64, 0
1, 98778, Note_on_c, 0, 90, 68
1, 98780, Note_on_c, 0, 100, 73
1, 98793, Note_on_c, 0, 85, 54
1, 98816, Note_off_c, 0, 85, 57
1, 98823, Note_off_c, 0, 100, 51
1, 98826, Note_off_c, 0, 90, 57
1, 98846, Note_on_c, 0, 92, 54
1, 98883, Note_off_c, 0, 92, 64
1, 98906, Note_on_c, 0, 90, 50
1, 98936, Note_off_c, 0, 90, 54
1, 98947, Note_on_c, 0, 92, 61
1, 98986, Note_off_c, 0, 92, 61
1, 99000, Note_on_c, 0, 83, 56
1, 99011, Note_on_c, 0, 99, 75
1, 99017, Note_on_c, 0, 90, 68
1, 99018, Note_off_c, 0, 83, 59
1, 99062, Note_off_c, 0, 90, 55
1, 99071, Note_on_c, 0, 92, 61
1, 99117, Note_off_c, 0, 92, 62
1, 99121, Note_off_c, 0, 99, 62
1, 99137, Note_on_c, 0, 66, 56
1, 99148, Note_on_c, 0, 90, 50
1, 99157, Note_off_c, 0, 66, 63
1, 99175, Note_off_c, 0, 90, 53
1, 99210, Note_on_c, 0, 92, 53
1, 99234, Note_off_c, 0, 92, 62
1, 99246, Note_on_c, 0, 90, 69
1, 99246, Note_on_c, 0, 97, 71
1, 99247, Note_on_c, 0, 82, 56
1, 99266, Note_off_c, 0, 82, 63
1, 99291, Note_off_c, 0, 90, 59
1, 99315, Note_on_c, 0, 92, 72
1, 99356, Note_off_c, 0, 92, 59
1, 99357, Note_off_c, 0, 97, 43
1, 99374, Note_on_c, 0, 90, 64
1, 99427, Note_off_c, 0, 90, 60
1, 99460, Note_on_c, 0, 92, 45
1, 99480, Note_on_c, 0, 80, 63
1, 99484, Note_on_c, 0, 95, 65
1, 99484, Note_off_c, 0, 92, 52
1, 99497, Note_off_c, 0, 80, 67
1, 99500, Note_on_c, 0, 90, 53
1, 99530, Note_off_c, 0, 90, 49
1, 99555, Note_on_c, 0, 92, 72
1, 99560, Note_off_c, 0, 95, 61
1, 99602, Note_off_c, 0, 92, 63
1, 99622, Note_on_c, 0, 90, 56
1, 99663, Note_off_c, 0, 90, 60
1, 99671, Note_on_c, 0, 92, 63
1, 99685, Note_on_c, 0, 82, 63
1, 99708, Note_off_c, 0, 92, 60
1, 99712, Note_on_c, 0, 97, 65
1, 99713, Note_off_c, 0, 82, 66
1, 99734, Note_on_c, 0, 90, 64
1, 99783, Note_off_c, 0, 90, 60
1, 99794, Note_on_c, 0, 92, 70
1, 99795, Note_off_c, 0, 97, 60
1, 99827, Note_on_c, 0, 71, 53
1, 99842, Note_off_c, 0, 92, 61
1, 99860, Note_on_c, 0, 90, 60
1, 99869, Note_off_c, 0, 71, 60
1, 99904, Note_off_c, 0, 90, 61
1, 99914, Note_on_c, 0, 92, 65
1, 99933, Note_on_c, 0, 83, 55
1, 99944, Note_on_c, 0, 99, 70
1, 99954, Note_off_c, 0, 92, 58
1, 99980, Control_c, 0, 64, 57
1, 99981, Note_on_c, 0, 90, 65
1, 99994, Control_c, 0, 64, 63
1, 100009, Control_c, 0, 64, 66
1, 100024, Control_c, 0, 64, 68
1, 100033, Note_off_c, 0, 90, 62
1, 100039, Control_c, 0, 64, 72
1, 100039, Note_off_c, 0, 99, 66
1, 100044, Note_on_c, 0, 92, 70
1, 100054, Control_c, 0, 64, 75
1, 100069, Control_c, 0, 64, 77
1, 100084, Control_c, 0, 64, 78
1, 100099, Note_off_c, 0, 92, 61
1, 100155, Note_on_c, 0, 90, 24
1, 100179, Control_c, 0, 64, 77
1, 100194, Control_c, 0, 64, 74
1, 100197, Note_on_c, 0, 92, 47
1, 100203, Note_on_c, 0, 95, 80
1, 100209, Control_c, 0, 64, 67
1, 100216, Note_off_c, 0, 83, 32
1, 100224, Control_c, 0, 64, 49
1, 100233, Note_off_c, 0, 92, 65
1, 100236, Note_off_c, 0, 95, 64
1, 100239, Control_c, 0, 64, 0
1, 100258, Note_off_c, 0, 90, 45
1, 100457, Note_on_c, 0, 74, 81
1, 100490, Note_off_c, 0, 74, 67
1, 100541, Note_on_c, 0, 86, 71
1, 100585, Note_on_c, 0, 87, 70
1, 100588, Note_off_c, 0, 86, 61
1, 100662, Note_on_c, 0, 86, 61
1, 100686, Note_off_c, 0, 87, 49
1, 100710, Note_on_c, 0, 75, 93
1, 100736, Note_off_c, 0, 86, 64
1, 100747, Note_off_c, 0, 75, 62
1, 100808, Note_on_c, 0, 87, 69
1, 100861, Note_off_c, 0, 87, 55
1, 100874, Note_on_c, 0, 88, 60
1, 100927, Note_off_c, 0, 88, 60
1, 100941, Note_on_c, 0, 87, 72
1, 100949, Note_on_c, 0, 75, 90
1, 100957, Note_on_c, 0, 63, 75
1, 100966, Note_on_c, 0, 67, 67
1, 100969, Note_off_c, 0, 75, 70
1, 100985, Note_off_c, 0, 63, 66
1, 100985, Note_off_c, 0, 67, 66
1, 100995, Note_off_c, 0, 87, 62
1, 101005, Note_on_c, 0, 88, 61
1, 101056, Note_off_c, 0, 88, 62
1, 101065, Note_on_c, 0, 87, 63
1, 101112, Note_off_c, 0, 87, 59
1, 101124, Note_on_c, 0, 88, 51
1, 101160, Note_off_c, 0, 88, 63
1, 101179, Note_on_c, 0, 74, 90
1, 101182, Note_on_c, 0, 65, 82
1, 101189, Note_on_c, 0, 87, 59
1, 101194, Note_on_c, 0, 68, 69
1, 101202, Note_off_c, 0, 74, 66
1, 101211, Note_off_c, 0, 65, 62
1, 101220, Note_off_c, 0, 87, 66
1, 101223, Note_off_c, 0, 68, 68
1, 101233, Note_on_c, 0, 88, 60
1, 101275, Note_off_c, 0, 88, 58
1, 101297, Note_on_c, 0, 87, 68
1, 101326, Note_off_c, 0, 87, 63
1, 101352, Note_on_c, 0, 88, 43
1, 101398, Note_on_c, 0, 73, 85
1, 101403, Note_off_c, 0, 88, 60
1, 101407, Note_on_c, 0, 67, 63
1, 101407, Note_on_c, 0, 70, 77
1, 101410, Note_on_c, 0, 87, 59
1, 101446, Note_off_c, 0, 87, 62
1, 101461, Control_c, 0, 64, 41
1, 101472, Note_on_c, 0, 86, 54
1, 101476, Control_c, 0, 64, 67
1, 101491, Control_c, 0, 64, 74
1, 101494, Note_off_c, 0, 86, 58
1, 101506, Control_c, 0, 64, 81
1, 101509, Note_on_c, 0, 87, 60
1, 101521, Control_c, 0, 64, 84
1, 101527, Note_off_c, 0, 70, 57
1, 101528, Note_off_c, 0, 73, 57
1, 101536, Control_c, 0, 64, 86
1, 101549, Note_off_c, 0, 67, 59
1, 101550, Control_c, 0, 64, 88
1, 101555, Note_off_c, 0, 87, 62
1, 101566, Control_c, 0, 64, 90
1, 101574, Note_on_c, 0, 88, 70
1, 101581, Control_c, 0, 64, 92
1, 101595, Control_c, 0, 64, 93
1, 101610, Control_c, 0, 64, 93
1, 101611, Note_off_c, 0, 88, 61
1, 101625, Control_c, 0, 64, 94
1, 101628, Note_on_c, 0, 89, 64
1, 101640, Control_c, 0, 64, 94
1, 101663, Control_c, 0, 64, 95
1, 101667, Note_off_c, 0, 89, 64
1, 101672, Note_on_c, 0, 90, 64
1, 101677, Control_c, 0, 64, 95
1, 101702, Note_off_c, 0, 90, 67
1, 101722, Control_c, 0, 64, 96
1, 101729, Note_on_c, 0, 91, 67
1, 101736, Control_c, 0, 64, 96
1, 101744, Note_off_c, 0, 91, 63
1, 101751, Control_c, 0, 64, 97
1, 101792, Note_on_c, 0, 92, 55
1, 101813, Note_off_c, 0, 92, 55
1, 101825, Control_c, 0, 64, 98
1, 101830, Note_on_c, 0, 93, 78
1, 101852, Note_off_c, 0, 93, 65
1, 101880, Note_on_c, 0, 94, 65
1, 101899, Note_off_c, 0, 94, 66
1, 101917, Note_on_c, 0, 95, 81
1, 101958, Control_c, 0, 64, 98
1, 101968, Note_off_c, 0, 95, 59
1, 101971, Note_on_c, 0, 96, 75
1, 102005, Note_on_c, 0, 97, 69
1, 102009, Note_off_c, 0, 96, 62
1, 102030, Note_off_c, 0, 97, 68
1, 102032, Control_c, 0, 64, 99
1, 102047, Control_c, 0, 64, 99
1, 102057, Note_on_c, 0, 98, 81
1, 102062, Control_c, 0, 64, 100
1, 102091, Note_off_c, 0, 98, 59
1, 102117, Note_on_c, 0, 99, 77
1, 102150, Control_c, 0, 64, 95
1, 102161, Note_on_c, 0, 100, 70
1, 102165, Control_c, 0, 64, 83
1, 102180, Control_c, 0, 64, 65
1, 102181, Note_on_c, 0, 76, 67
1, 102186, Note_on_c, 0, 68, 57
1, 102188, Note_on_c, 0, 71, 57
1, 102194, Control_c, 0, 64, 0
1, 102206, Note_off_c, 0, 99, 65
1, 102239, Control_c, 0, 64, 47
1, 102240, Note_on_c, 0, 102, 74
1, 102254, Control_c, 0, 64, 66
1, 102268, Note_off_c, 0, 100, 51
1, 102269, Control_c, 0, 64, 74
1, 102284, Control_c, 0, 64, 82
1, 102299, Control_c, 0, 64, 89
1, 102314, Control_c, 0, 64, 92
1, 102324, Note_on_c, 0, 99, 63
1, 102328, Control_c, 0, 64, 95
1, 102329, Note_off_c, 0, 102, 62
1, 102343, Control_c, 0, 64, 96
1, 102358, Control_c, 0, 64, 98
1, 102370, Note_off_c, 0, 99, 65
1, 102373, Control_c, 0, 64, 100
1, 102375, Note_on_c, 0, 98, 70
1, 102396, Control_c, 0, 64, 102
1, 102405, Note_off_c, 0, 98, 71
1, 102411, Control_c, 0, 64, 103
1, 102425, Control_c, 0, 64, 104
1, 102437, Note_off_c, 0, 76, 46
1, 102440, Control_c, 0, 64, 105
1, 102444, Note_on_c, 0, 97, 73
1, 102452, Note_off_c, 0, 68, 53
1, 102455, Control_c, 0, 64, 106
1, 102457, Note_off_c, 0, 71, 59
1, 102470, Control_c, 0, 64, 107
1, 102492, Note_on_c, 0, 96, 71
1, 102499, Control_c, 0, 64, 107
1, 102513, Note_off_c, 0, 97, 62
1, 102528, Note_off_c, 0, 96, 61
1, 102529, Control_c, 0, 64, 108
1, 102545, Note_on_c, 0, 95, 70
1, 102576, Note_off_c, 0, 95, 62
1, 102610, Note_on_c, 0, 94, 69
1, 102662, Note_off_c, 0, 94, 63
1, 102672, Note_on_c, 0, 93, 71
1, 102698, Note_off_c, 0, 93, 64
1, 102738, Note_on_c, 0, 92, 65
1, 102776, Note_off_c, 0, 92, 60
1, 102791, Note_on_c, 0, 91, 72
1, 102821, Note_off_c, 0, 91, 58
1, 102855, Control_c, 0, 64, 107
1, 102858, Note_on_c, 0, 90, 69
1, 102869, Control_c, 0, 64, 103
1, 102884, Control_c, 0, 64, 94
1, 102899, Control_c, 0, 64, 82
1, 102909, Note_off_c, 0, 90, 62
1, 102914, Control_c, 0, 64, 62
1, 102915, Note_on_c, 0, 89, 69
1, 102929, Control_c, 0, 64, 0
1, 102946, Note_on_c, 0, 63, 47
1, 102957, Note_off_c, 0, 89, 60
1, 102991, Note_on_c, 0, 88, 70
1, 103003, Control_c, 0, 64, 29
1, 103017, Control_c, 0, 64, 62
1, 103032, Control_c, 0, 64, 68
1, 103040, Note_off_c, 0, 63, 64
1, 103047, Control_c, 0, 64, 74
1, 103062, Control_c, 0, 64, 79
1, 103077, Control_c, 0, 64, 84
1, 103092, Control_c, 0, 64, 86
1, 103106, Control_c, 0, 64, 89
1, 103112, Note_off_c, 0, 88, 52
1, 103121, Control_c, 0, 64, 91
1, 103130, Note_on_c, 0, 87, 59
1, 103136, Control_c, 0, 64, 94
1, 103158, Control_c, 0, 64, 96
1, 103174, Control_c, 0, 64, 99
1, 103179, Note_on_c, 0, 79, 47
1, 103188, Note_off_c, 0, 87, 61
1, 103189, Control_c, 0, 64, 101
1, 103204, Control_c, 0, 64, 102
1, 103205, Note_off_c, 0, 79, 56
1, 103219, Control_c, 0, 64, 104
1, 103234, Control_c, 0, 64, 105
1, 103248, Control_c, 0, 64, 106
1, 103263, Control_c, 0, 64, 107
1, 103293, Control_c, 0, 64, 107
1, 103322, Control_c, 0, 64, 108
1, 103427, Control_c, 0, 64, 107
1, 103441, Note_on_c, 0, 70, 58
1, 103442, Control_c, 0, 64, 107
1, 103456, Control_c, 0, 64, 104
1, 103470, Note_off_c, 0, 70, 58
1, 103471, Control_c, 0, 64, 98
1, 103486, Control_c, 0, 64, 88
1, 103500, Control_c, 0, 64, 77
1, 103502, Note_on_c, 0, 82, 59
1, 103515, Control_c, 0, 64, 64
1, 103530, Note_off_c, 0, 82, 54
1, 103530, Control_c, 0, 64, 0
1, 103539, Note_on_c, 0, 83, 57
1, 103600, Note_off_c, 0, 83, 55
1, 103604, Note_on_c, 0, 82, 54
1, 103634, Note_off_c, 0, 82, 66
1, 103653, Note_on_c, 0, 74, 71
1, 103675, Note_off_c, 0, 74, 73
1, 103735, Note_on_c, 0, 86, 68
1, 103782, Note_off_c, 0, 86, 62
1, 103795, Note_on_c, 0, 87, 54
1, 103850, Note_on_c, 0, 86, 58
1, 103865, Note_off_c, 0, 87, 59
1, 103929, Note_off_c, 0, 86, 39
1, 103933, Note_on_c, 0, 75, 64
1, 103964, Note_off_c, 0, 75, 66
1, 104042, Note_on_c, 0, 87, 54
1, 104094, Note_off_c, 0, 87, 59
1, 104125, Note_on_c, 0, 88, 43
1, 104166, Note_off_c, 0, 88, 61
1, 104174, Control_c, 0, 64, 42
1, 104183, Note_on_c, 0, 87, 50
1, 104189, Control_c, 0, 64, 55
1, 104203, Control_c, 0, 64, 60
1, 104218, Control_c, 0, 64, 63
1, 104227, Note_off_c, 0, 87, 61
1, 104233, Note_on_c, 0, 63, 40
1, 104233, Control_c, 0, 64, 65
1, 104244, Note_on_c, 0, 75, 32
1, 104248, Control_c, 0, 64, 69
1, 104255, Note_on_c, 0, 88, 56
1, 104262, Note_on_c, 0, 67, 23
1, 104263, Control_c, 0, 64, 73
1, 104278, Control_c, 0, 64, 77
1, 104293, Control_c, 0, 64, 79
1, 104299, Note_off_c, 0, 88, 59
1, 104308, Control_c, 0, 64, 81
1, 104322, Control_c, 0, 64, 82
1, 104337, Note_on_c, 0, 87, 43
1, 104337, Control_c, 0, 64, 84
1, 104345, Note_off_c, 0, 67, 39
1, 104352, Control_c, 0, 64, 86
1, 104357, Note_off_c, 0, 75, 48
1, 104367, Note_off_c, 0, 87, 53
1, 104367, Control_c, 0, 64, 87
1, 104382, Control_c, 0, 64, 89
1, 104382, Note_off_c, 0, 63, 40
1, 104396, Control_c, 0, 64, 90
1, 104398, Note_on_c, 0, 88, 52
1, 104411, Control_c, 0, 64, 91
1, 104426, Control_c, 0, 64, 92
1, 104440, Note_off_c, 0, 88, 60
1, 104441, Control_c, 0, 64, 92
1, 104455, Control_c, 0, 64, 93
1, 104460, Note_on_c, 0, 87, 51
1, 104507, Note_off_c, 0, 87, 59
1, 104529, Control_c, 0, 64, 92
1, 104542, Note_on_c, 0, 88, 47
1, 104544, Control_c, 0, 64, 87
1, 104552, Note_on_c, 0, 68, 37
1, 104553, Note_on_c, 0, 65, 37
1, 104559, Control_c, 0, 64, 77
1, 104561, Note_on_c, 0, 74, 30
1, 104571, Note_off_c, 0, 88, 58
1, 104574, Control_c, 0, 64, 64
1, 104588, Control_c, 0, 64, 0
1, 104612, Note_on_c, 0, 87, 38
1, 104618, Control_c, 0, 64, 58
1, 104633, Control_c, 0, 64, 68
1, 104648, Note_off_c, 0, 87, 54
1, 104656, Control_c, 0, 64, 75
1, 104668, Note_on_c, 0, 88, 57
1, 104670, Control_c, 0, 64, 83
1, 104671, Note_off_c, 0, 68, 41
1, 104677, Note_off_c, 0, 65, 53
1, 104685, Note_off_c, 0, 74, 58
1, 104685, Control_c, 0, 64, 88
1, 104700, Control_c, 0, 64, 91
1, 104705, Note_off_c, 0, 88, 58
1, 104715, Control_c, 0, 64, 94
1, 104725, Note_on_c, 0, 87, 59
1, 104729, Control_c, 0, 64, 97
1, 104744, Control_c, 0, 64, 101
1, 104757, Note_off_c, 0, 87, 64
1, 104759, Control_c, 0, 64, 104
1, 104775, Control_c, 0, 64, 106
1, 104788, Note_on_c, 0, 88, 49
1, 104790, Control_c, 0, 64, 107
1, 104805, Control_c, 0, 64, 108
1, 104815, Note_off_c, 0, 88, 54
1, 104819, Control_c, 0, 64, 109
1, 104834, Control_c, 0, 64, 110
1, 104837, Note_on_c, 0, 87, 64
1, 104838, Note_on_c, 0, 67, 37
1, 104856, Note_on_c, 0, 70, 47
1, 104856, Note_off_c, 0, 87, 64
1, 104864, Control_c, 0, 64, 111
1, 104874, Note_on_c, 0, 73, 46
1, 104893, Control_c, 0, 64, 110
1, 104898, Note_on_c, 0, 88, 43
1, 104908, Control_c, 0, 64, 110
1, 104923, Control_c, 0, 64, 103
1, 104931, Note_on_c, 0, 87, 65
1, 104933, Note_off_c, 0, 88, 57
1, 104938, Control_c, 0, 64, 92
1, 104952, Control_c, 0, 64, 77
1, 104967, Control_c, 0, 64, 62
1, 104979, Note_off_c, 0, 87, 61
1, 104982, Control_c, 0, 64, 0
1, 105009, Note_on_c, 0, 86, 49
1, 105012, Control_c, 0, 64, 29
1, 105026, Control_c, 0, 64, 64
1, 105032, Note_off_c, 0, 86, 55
1, 105041, Control_c, 0, 64, 72
1, 105044, Note_on_c, 0, 87, 53
1, 105056, Control_c, 0, 64, 79
1, 105071, Control_c, 0, 64, 86
1, 105086, Control_c, 0, 64, 90
1, 105101, Control_c, 0, 64, 93
1, 105101, Note_off_c, 0, 87, 64
1, 105116, Control_c, 0, 64, 96
1, 105116, Note_on_c, 0, 88, 68
1, 105131, Control_c, 0, 64, 100
1, 105145, Control_c, 0, 64, 103
1, 105148, Note_off_c, 0, 88, 63
1, 105160, Control_c, 0, 64, 106
1, 105175, Control_c, 0, 64, 107
1, 105178, Note_on_c, 0, 89, 44
1, 105190, Control_c, 0, 64, 108
1, 105202, Note_off_c, 0, 89, 58
1, 105205, Control_c, 0, 64, 109
1, 105205, Note_on_c, 0, 90, 67
1, 105219, Note_off_c, 0, 70, 39
1, 105219, Control_c, 0, 64, 110
1, 105234, Control_c, 0, 64, 111
1, 105243, Note_off_c, 0, 90, 64
1, 105249, Control_c, 0, 64, 112
1, 105253, Note_off_c, 0, 67, 41
1, 105259, Note_off_c, 0, 73, 33
1, 105263, Control_c, 0, 64, 112
1, 105265, Note_on_c, 0, 91, 68
1, 105283, Note_off_c, 0, 91, 63
1, 105308, Control_c, 0, 64, 113
1, 105330, Note_on_c, 0, 92, 51
1, 105352, Note_off_c, 0, 92, 50
1, 105364, Note_on_c, 0, 93, 76
1, 105382, Control_c, 0, 64, 113
1, 105395, Note_off_c, 0, 93, 68
1, 105432, Note_on_c, 0, 94, 62
1, 105448, Note_off_c, 0, 94, 62
1, 105472, Note_on_c, 0, 95, 75
1, 105515, Note_off_c, 0, 95, 63
1, 105521, Note_on_c, 0, 96, 71
1, 105565, Note_off_c, 0, 96, 62
1, 105566, Note_on_c, 0, 97, 61
1, 105584, Note_off_c, 0, 97, 64
1, 105615, Note_on_c, 0, 98, 71
1, 105649, Note_off_c, 0, 98, 55
1, 105652, Note_on_c, 0, 68, 43
1, 105672, Control_c, 0, 64, 110
1, 105682, Note_on_c, 0, 99, 68
1, 105687, Control_c, 0, 64, 101
1, 105701, Control_c, 0, 64, 89
1, 105703, Note_on_c, 0, 71, 38
1, 105716, Control_c, 0, 64, 75
1, 105731, Control_c, 0, 64, 50
1, 105746, Control_c, 0, 64, 0
1, 105749, Note_on_c, 0, 100, 66
1, 105760, Note_on_c, 0, 76, 39
1, 105774, Note_off_c, 0, 99, 62
1, 105775, Control_c, 0, 64, 55
1, 105790, Control_c, 0, 64, 68
1, 105805, Control_c, 0, 64, 77
1, 105820, Control_c, 0, 64, 86
1, 105823, Note_off_c, 0, 100, 64
1, 105835, Control_c, 0, 64, 93
1, 105837, Note_on_c, 0, 102, 68
1, 105849, Control_c, 0, 64, 98
1, 105864, Control_c, 0, 64, 101
1, 105879, Control_c, 0, 64, 107
1, 105894, Control_c, 0, 64, 112
1, 105894, Note_on_c, 0, 100, 42
1, 105909, Control_c, 0, 64, 116
1, 105913, Note_off_c, 0, 102, 56
1, 105923, Control_c, 0, 64, 119
1, 105938, Control_c, 0, 64, 120
1, 105953, Control_c, 0, 64, 121
1, 105958, Note_on_c, 0, 99, 66
1, 105968, Note_off_c, 0, 100, 64
1, 105968, Control_c, 0, 64, 122
1, 105982, Note_off_c, 0, 71, 50
1, 105983, Control_c, 0, 64, 124
1, 105992, Note_off_c, 0, 76, 38
1, 105998, Control_c, 0, 64, 125
1, 106008, Note_off_c, 0, 68, 59
1, 106011, Note_off_c, 0, 99, 67
1, 106018, Note_on_c, 0, 98, 62
1, 106036, Note_off_c, 0, 98, 66
1, 106042, Control_c, 0, 64, 125
1, 106073, Note_on_c, 0, 97, 73
1, 106113, Note_on_c, 0, 96, 66
1, 106144, Note_off_c, 0, 97, 61
1, 106152, Note_off_c, 0, 96, 63
1, 106169, Note_on_c, 0, 95, 71
1, 106205, Note_off_c, 0, 95, 64
1, 106246, Note_on_c, 0, 94, 63
1, 106277, Note_off_c, 0, 94, 65
1, 106296, Note_on_c, 0, 93, 74
1, 106323, Note_off_c, 0, 93, 63
1, 106356, Note_on_c, 0, 92, 63
1, 106398, Note_off_c, 0, 92, 60
1, 106406, Control_c, 0, 64, 124
1, 106412, Note_on_c, 0, 91, 70
1, 106421, Control_c, 0, 64, 117
1, 106436, Note_off_c, 0, 91, 66
1, 106436, Control_c, 0, 64, 105
1, 106451, Control_c, 0, 64, 86
1, 106466, Control_c, 0, 64, 67
1, 106475, Note_on_c, 0, 90, 64
1, 106481, Control_c, 0, 64, 0
1, 106483, Note_on_c, 0, 63, 39
1, 106505, Note_off_c, 0, 90, 50
1, 106511, Control_c, 0, 64, 41
1, 106517, Note_on_c, 0, 89, 65
1, 106525, Control_c, 0, 64, 68
1, 106540, Control_c, 0, 64, 80
1, 106543, Note_off_c, 0, 63, 62
1, 106544, Note_off_c, 0, 89, 69
1, 106555, Control_c, 0, 64, 90
1, 106570, Control_c, 0, 64, 95
1, 106585, Note_on_c, 0, 88, 71
1, 106585, Control_c, 0, 64, 98
1, 106599, Control_c, 0, 64, 101
1, 106614, Control_c, 0, 64, 107
1, 106621, Note_off_c, 0, 88, 58
1, 106629, Note_on_c, 0, 87, 67
1, 106629, Control_c, 0, 64, 115
1, 106644, Control_c, 0, 64, 122
1, 106659, Control_c, 0, 64, 127
1, 106661, Note_on_c, 0, 79, 50
1, 106670, Note_off_c, 0, 87, 56
1, 106682, Note_off_c, 0, 79, 60
1, 106691, Note_on_c, 0, 88, 56
1, 106748, Note_off_c, 0, 88, 62
1, 106766, Note_on_c, 0, 87, 57
1, 106786, Note_off_c, 0, 87, 62
1, 106796, Note_on_c, 0, 86, 61
1, 106818, Note_off_c, 0, 86, 65
1, 106859, Note_on_c, 0, 87, 67
1, 106894, Note_off_c, 0, 87, 67
1, 106917, Note_on_c, 0, 88, 72
1, 106947, Note_off_c, 0, 88, 58
1, 106981, Note_on_c, 0, 89, 62
1, 107010, Note_off_c, 0, 89, 68
1, 107017, Note_on_c, 0, 90, 65
1, 107034, Note_off_c, 0, 90, 65
1, 107062, Note_on_c, 0, 91, 76
1, 107083, Note_off_c, 0, 91, 64
1, 107126, Note_on_c, 0, 92, 65
1, 107143, Note_off_c, 0, 92, 63
1, 107169, Note_on_c, 0, 93, 74
1, 107193, Note_off_c, 0, 93, 68
1, 107223, Note_on_c, 0, 94, 68
1, 107238, Note_off_c, 0, 94, 62
1, 107267, Note_on_c, 0, 95, 77
1, 107297, Note_off_c, 0, 95, 58
1, 107322, Note_on_c, 0, 96, 62
1, 107348, Note_on_c, 0, 97, 67
1, 107348, Control_c, 0, 64, 126
1, 107349, Note_off_c, 0, 96, 66
1, 107363, Control_c, 0, 64, 105
1, 107365, Note_off_c, 0, 97, 66
1, 107378, Control_c, 0, 64, 87
1, 107393, Control_c, 0, 64, 67
1, 107396, Note_on_c, 0, 56, 38
1, 107399, Note_on_c, 0, 98, 75
1, 107408, Control_c, 0, 64, 0
1, 107428, Note_off_c, 0, 98, 59
1, 107437, Control_c, 0, 64, 44
1, 107452, Control_c, 0, 64, 68
1, 107454, Note_on_c, 0, 99, 68
1, 107454, Note_off_c, 0, 56, 49
1, 107467, Control_c, 0, 64, 78
1, 107482, Control_c, 0, 64, 89
1, 107496, Control_c, 0, 64, 99
1, 107511, Control_c, 0, 64, 104
1, 107526, Control_c, 0, 64, 110
1, 107532, Note_off_c, 0, 99, 61
1, 107533, Note_on_c, 0, 100, 66
1, 107540, Control_c, 0, 64, 119
1, 107547, Note_on_c, 0, 71, 46
1, 107555, Control_c, 0, 64, 127
1, 107579, Note_off_c, 0, 71, 53
1, 107595, Note_off_c, 0, 100, 65
1, 107609, Note_on_c, 0, 102, 71
1, 107691, Note_on_c, 0, 100, 42
1, 107694, Note_off_c, 0, 102, 61
1, 107736, Note_on_c, 0, 99, 67
1, 107750, Note_off_c, 0, 100, 62
1, 107783, Note_off_c, 0, 99, 65
1, 107792, Note_on_c, 0, 98, 68
1, 107818, Note_off_c, 0, 98, 67
1, 107852, Note_on_c, 0, 97, 67
1, 107879, Note_on_c, 0, 96, 68
1, 107920, Note_off_c, 0, 97, 59
1, 107922, Note_off_c, 0, 96, 61
1, 107939, Note_on_c, 0, 95, 71
1, 107983, Note_off_c, 0, 95, 63
1, 108009, Note_on_c, 0, 94, 70
1, 108055, Note_off_c, 0, 94, 61
1, 108064, Note_on_c, 0, 93, 73
1, 108095, Note_off_c, 0, 93, 58
1, 108127, Note_on_c, 0, 92, 70
1, 108174, Note_off_c, 0, 92, 60
1, 108186, Note_on_c, 0, 91, 65
1, 108212, Note_off_c, 0, 91, 63
1, 108215, Control_c, 0, 64, 102
1, 108230, Control_c, 0, 64, 84
1, 108242, Note_on_c, 0, 90, 66
1, 108244, Control_c, 0, 64, 65
1, 108259, Control_c, 0, 64, 0
1, 108293, Note_off_c, 0, 90, 58
1, 108297, Note_on_c, 0, 51, 26
1, 108303, Control_c, 0, 64, 64
1, 108305, Note_on_c, 0, 89, 60
1, 108318, Control_c, 0, 64, 71
1, 108333, Control_c, 0, 64, 78
1, 108341, Note_off_c, 0, 89, 60
1, 108348, Control_c, 0, 64, 84
1, 108362, Control_c, 0, 64, 88
1, 108366, Note_off_c, 0, 51, 58
1, 108377, Control_c, 0, 64, 92
1, 108389, Note_on_c, 0, 88, 59
1, 108400, Control_c, 0, 64, 96
1, 108415, Control_c, 0, 64, 101
1, 108430, Control_c, 0, 64, 106
1, 108433, Note_off_c, 0, 88, 59
1, 108444, Control_c, 0, 64, 110
1, 108456, Note_on_c, 0, 87, 54
1, 108459, Control_c, 0, 64, 115
1, 108474, Control_c, 0, 64, 119
1, 108488, Control_c, 0, 64, 123
1, 108498, Note_off_c, 0, 87, 60
1, 108503, Control_c, 0, 64, 127
1, 108509, Note_on_c, 0, 67, 48
1, 108536, Note_on_c, 0, 88, 50
1, 108564, Note_off_c, 0, 67, 55
1, 108579, Note_off_c, 0, 88, 56
1, 108605, Note_on_c, 0, 87, 56
1, 108636, Note_off_c, 0, 87, 65
1, 108654, Note_on_c, 0, 86, 60
1, 108684, Note_off_c, 0, 86, 65
1, 108724, Note_on_c, 0, 87, 57
1, 108755, Note_off_c, 0, 87, 66
1, 108773, Note_on_c, 0, 88, 70
1, 108812, Note_off_c, 0, 88, 54
1, 108843, Note_on_c, 0, 89, 61
1, 108872, Note_off_c, 0, 89, 66
1, 108881, Note_on_c, 0, 90, 57
1, 108902, Note_off_c, 0, 90, 61
1, 108935, Note_on_c, 0, 91, 69
1, 108959, Note_off_c, 0, 91, 64
1, 109015, Note_on_c, 0, 92, 39
1, 109044, Note_off_c, 0, 92, 34
1, 109049, Note_on_c, 0, 93, 66
1, 109074, Note_off_c, 0, 93, 63
1, 109107, Note_on_c, 0, 94, 61
1, 109124, Note_off_c, 0, 94, 65
1, 109164, Note_on_c, 0, 95, 68
1, 109198, Note_off_c, 0, 95, 63
1, 109226, Note_on_c, 0, 96, 52
1, 109270, Note_off_c, 0, 96, 59
1, 109271, Note_on_c, 0, 97, 62
1, 109303, Note_off_c, 0, 97, 66
1, 109326, Control_c, 0, 64, 119
1, 109333, Note_on_c, 0, 44, 35
1, 109337, Note_on_c, 0, 98, 62
1, 109341, Control_c, 0, 64, 103
1, 109356, Control_c, 0, 64, 87
1, 109372, Control_c, 0, 64, 70
1, 109386, Control_c, 0, 64, 0
1, 109394, Note_off_c, 0, 98, 54
1, 109407, Note_on_c, 0, 99, 58
1, 109431, Control_c, 0, 64, 58
1, 109445, Control_c, 0, 64, 68
1, 109460, Control_c, 0, 64, 74
1, 109475, Control_c, 0, 64, 83
1, 109490, Control_c, 0, 64, 90
1, 109504, Note_off_c, 0, 44, 42
1, 109505, Control_c, 0, 64, 95
1, 109519, Control_c, 0, 64, 100
1, 109534, Control_c, 0, 64, 105
1, 109546, Note_off_c, 0, 99, 52
1, 109549, Control_c, 0, 64, 109
1, 109565, Control_c, 0, 64, 113
1, 109577, Note_on_c, 0, 100, 57
1, 109580, Control_c, 0, 64, 118
1, 109595, Control_c, 0, 64, 125
1, 109609, Control_c, 0, 64, 127
1, 109614, Note_on_c, 0, 59, 31
1, 109680, Note_off_c, 0, 100, 63
1, 109703, Note_on_c, 0, 102, 57
1, 109727, Note_off_c, 0, 59, 34
1, 109782, Note_off_c, 0, 102, 60
1, 109805, Note_on_c, 0, 100, 41
1, 109851, Note_off_c, 0, 100, 58
1, 109853, Note_on_c, 0, 99, 53
1, 109908, Note_off_c, 0, 99, 66
1, 109927, Note_on_c, 0, 98, 54
1, 109955, Note_off_c, 0, 98, 51
1, 109988, Note_on_c, 0, 99, 60
1, 110053, Note_on_c, 0, 98, 51
1, 110055, Note_off_c, 0, 99, 66
1, 110061, Note_on_c, 0, 97, 61
1, 110085, Note_off_c, 0, 98, 67
1, 110117, Note_off_c, 0, 97, 64
1, 110121, Note_on_c, 0, 96, 64
1, 110146, Note_off_c, 0, 96, 63
1, 110175, Note_on_c, 0, 97, 59
1, 110216, Note_on_c, 0, 96, 67
1, 110236, Note_off_c, 0, 97, 59
1, 110263, Note_on_c, 0, 95, 70
1, 110268, Note_off_c, 0, 96, 60
1, 110294, Note_off_c, 0, 95, 63
1, 110318, Note_on_c, 0, 94, 68
1, 110341, Note_off_c, 0, 94, 70
1, 110401, Note_on_c, 0, 95, 66
1, 110433, Note_on_c, 0, 94, 70
1, 110444, Note_off_c, 0, 95, 58
1, 110480, Note_on_c, 0, 93, 71
1, 110491, Note_off_c, 0, 94, 64
1, 110513, Note_off_c, 0, 93, 61
1, 110543, Note_on_c, 0, 92, 70
1, 110566, Note_off_c, 0, 92, 70
1, 110619, Note_on_c, 0, 93, 73
1, 110664, Note_on_c, 0, 92, 73
1, 110684, Note_off_c, 0, 93, 61
1, 110714, Note_on_c, 0, 91, 65
1, 110732, Note_off_c, 0, 92, 55
1, 110747, Note_off_c, 0, 91, 60
1, 110774, Note_on_c, 0, 90, 61
1, 110792, Note_off_c, 0, 90, 62
1, 110851, Note_on_c, 0, 91, 69
1, 110885, Note_on_c, 0, 90, 58
1, 110913, Note_off_c, 0, 91, 60
1, 110936, Note_on_c, 0, 89, 64
1, 110972, Note_off_c, 0, 90, 61
1, 110987, Note_off_c, 0, 89, 65
1, 110991, Note_on_c, 0, 88, 65
1, 111018, Note_off_c, 0, 88, 65
1, 111047, Note_on_c, 0, 89, 60
1, 111096, Note_on_c, 0, 88, 63
1, 111116, Note_off_c, 0, 89, 63
1, 111127, Note_on_c, 0, 87, 68
1, 111141, Note_off_c, 0, 88, 59
1, 111167, Control_c, 0, 64, 119
1, 111174, Note_off_c, 0, 87, 60
1, 111179, Note_on_c, 0, 86, 69
1, 111181, Control_c, 0, 64, 114
1, 111196, Control_c, 0, 64, 110
1, 111211, Control_c, 0, 64, 106
1, 111224, Note_off_c, 0, 86, 50
1, 111226, Control_c, 0, 64, 102
1, 111235, Note_on_c, 0, 87, 62
1, 111241, Control_c, 0, 64, 98
1, 111255, Control_c, 0, 64, 94
1, 111270, Control_c, 0, 64, 89
1, 111273, Note_on_c, 0, 86, 52
1, 111285, Control_c, 0, 64, 84
1, 111300, Control_c, 0, 64, 79
1, 111314, Control_c, 0, 64, 73
1, 111315, Note_off_c, 0, 87, 61
1, 111319, Note_on_c, 0, 85, 64
1, 111329, Control_c, 0, 64, 65
1, 111342, Note_off_c, 0, 86, 64
1, 111344, Control_c, 0, 64, 55
1, 111359, Control_c, 0, 64, 44
1, 111373, Note_off_c, 0, 85, 65
1, 111374, Note_on_c, 0, 84, 67
1, 111374, Control_c, 0, 64, 45
1, 111396, Control_c, 0, 64, 46
1, 111410, Note_off_c, 0, 84, 66
1, 111411, Control_c, 0, 64, 45
1, 111426, Control_c, 0, 64, 44
1, 111432, Note_on_c, 0, 85, 60
1, 111441, Control_c, 0, 64, 42
1, 111485, Control_c, 0, 64, 42
1, 111486, Note_on_c, 0, 84, 56
1, 111511, Note_off_c, 0, 85, 62
1, 111523, Note_on_c, 0, 83, 67
1, 111528, Note_off_c, 0, 84, 65
1, 111568, Note_off_c, 0, 83, 60
1, 111584, Note_on_c, 0, 82, 62
1, 111609, Note_off_c, 0, 82, 67
1, 111632, Control_c, 0, 64, 41
1, 111647, Control_c, 0, 64, 41
1, 111653, Note_on_c, 0, 83, 72
1, 111662, Control_c, 0, 64, 40
1, 111691, Note_on_c, 0, 82, 69
1, 111706, Note_off_c, 0, 83, 58
1, 111736, Note_on_c, 0, 81, 74
1, 111736, Control_c, 0, 64, 41
1, 111751, Note_off_c, 0, 82, 63
1, 111751, Control_c, 0, 64, 41
1, 111766, Control_c, 0, 64, 42
1, 111775, Note_off_c, 0, 81, 58
1, 111781, Control_c, 0, 64, 44
1, 111796, Note_on_c, 0, 80, 73
1, 111796, Control_c, 0, 64, 44
1, 111811, Control_c, 0, 64, 45
1, 111817, Note_off_c, 0, 80, 70
1, 111826, Control_c, 0, 64, 46
1, 111873, Note_on_c, 0, 81, 72
1, 111885, Control_c, 0, 64, 45
1, 111900, Control_c, 0, 64, 44
1, 111906, Note_on_c, 0, 80, 73
1, 111925, Note_off_c, 0, 81, 56
1, 111944, Control_c, 0, 64, 45
1, 111959, Note_on_c, 0, 79, 66
1, 111960, Control_c, 0, 64, 46
1, 111971, Note_off_c, 0, 80, 62
1, 111975, Control_c, 0, 64, 47
1, 111990, Control_c, 0, 64, 49
1, 112002, Note_off_c, 0, 79, 61
1, 112004, Control_c, 0, 64, 50
1, 112017, Note_on_c, 0, 78, 66
1, 112019, Control_c, 0, 64, 50
1, 112034, Control_c, 0, 64, 51
1, 112034, Note_off_c, 0, 78, 65
1, 112084, Note_on_c, 0, 79, 68
1, 112093, Control_c, 0, 64, 50
1, 112108, Control_c, 0, 64, 50
1, 112123, Control_c, 0, 64, 49
1, 112124, Note_on_c, 0, 78, 64
1, 112145, Control_c, 0, 64, 48
1, 112170, Note_off_c, 0, 79, 62
1, 112183, Note_on_c, 0, 77, 63
1, 112204, Control_c, 0, 64, 49
1, 112208, Note_off_c, 0, 78, 62
1, 112237, Note_off_c, 0, 77, 61
1, 112240, Note_on_c, 0, 76, 66
1, 112249, Control_c, 0, 64, 48
1, 112264, Control_c, 0, 64, 48
1, 112268, Note_off_c, 0, 76, 66
1, 112279, Control_c, 0, 64, 47
1, 112293, Control_c, 0, 64, 46
1, 112294, Note_on_c, 0, 77, 57
1, 112308, Control_c, 0, 64, 45
1, 112323, Control_c, 0, 64, 45
1, 112338, Note_on_c, 0, 76, 59
1, 112352, Control_c, 0, 64, 45
1, 112366, Control_c, 0, 64, 46
1, 112368, Note_off_c, 0, 77, 62
1, 112376, Note_on_c, 0, 75, 64
1, 112388, Note_off_c, 0, 76, 64
1, 112396, Control_c, 0, 64, 47
1, 112425, Control_c, 0, 64, 47
1, 112428, Note_on_c, 0, 74, 65
1, 112428, Note_off_c, 0, 75, 64
1, 112460, Note_off_c, 0, 74, 60
1, 112484, Note_on_c, 0, 75, 61
1, 112529, Control_c, 0, 64, 48
1, 112531, Note_on_c, 0, 74, 50
1, 112568, Note_off_c, 0, 75, 64
1, 112570, Note_on_c, 0, 73, 66
1, 112574, Control_c, 0, 64, 48
1, 112589, Control_c, 0, 64, 49
1, 112593, Note_off_c, 0, 74, 63
1, 112603, Control_c, 0, 64, 50
1, 112625, Note_on_c, 0, 72, 65
1, 112627, Note_off_c, 0, 73, 64
1, 112633, Control_c, 0, 64, 49
1, 112648, Control_c, 0, 64, 49
1, 112654, Note_off_c, 0, 72, 64
1, 112685, Note_on_c, 0, 73, 60
1, 112692, Control_c, 0, 64, 49
1, 112727, Note_on_c, 0, 72, 67
1, 112752, Control_c, 0, 64, 50
1, 112768, Note_off_c, 0, 73, 59
1, 112773, Note_on_c, 0, 71, 61
1, 112788, Note_off_c, 0, 72, 60
1, 112827, Control_c, 0, 64, 50
1, 112828, Note_on_c, 0, 70, 69
1, 112830, Note_off_c, 0, 71, 56
1, 112841, Control_c, 0, 64, 51
1, 112856, Note_off_c, 0, 70, 67
1, 112893, Control_c, 0, 64, 51
1, 112919, Note_on_c, 0, 71, 64
1, 112959, Note_on_c, 0, 70, 71
1, 112982, Note_off_c, 0, 71, 57
1, 113009, Note_on_c, 0, 69, 70
1, 113027, Note_off_c, 0, 70, 60
1, 113051, Note_off_c, 0, 69, 64
1, 113056, Control_c, 0, 64, 51
1, 113067, Note_on_c, 0, 68, 68
1, 113071, Control_c, 0, 64, 52
1, 113086, Note_off_c, 0, 68, 67
1, 113100, Control_c, 0, 64, 52
1, 113116, Control_c, 0, 64, 51
1, 113143, Note_on_c, 0, 69, 70
1, 113160, Control_c, 0, 64, 50
1, 113175, Control_c, 0, 64, 49
1, 113186, Note_on_c, 0, 68, 62
1, 113190, Control_c, 0, 64, 48
1, 113203, Note_off_c, 0, 69, 58
1, 113234, Note_on_c, 0, 67, 68
1, 113258, Note_off_c, 0, 68, 60
1, 113264, Control_c, 0, 64, 49
1, 113269, Note_off_c, 0, 67, 61
1, 113278, Control_c, 0, 64, 49
1, 113293, Control_c, 0, 64, 47
1, 113295, Note_on_c, 0, 66, 65
1, 113308, Control_c, 0, 64, 38
1, 113313, Note_off_c, 0, 66, 68
1, 113323, Control_c, 0, 64, 0
1, 113368, Note_on_c, 0, 67, 66
1, 113404, Note_on_c, 0, 43, 45
1, 113422, Note_on_c, 0, 66, 59
1, 113426, Control_c, 0, 64, 24
1, 113441, Note_off_c, 0, 43, 59
1, 113441, Note_off_c, 0, 67, 55
1, 113441, Control_c, 0, 64, 65
1, 113456, Control_c, 0, 64, 72
1, 113471, Control_c, 0, 64, 78
1, 113479, Note_off_c, 0, 66, 63
1, 113486, Control_c, 0, 64, 82
1, 113488, Note_on_c, 0, 65, 57
1, 113501, Control_c, 0, 64, 84
1, 113516, Control_c, 0, 64, 86
1, 113519, Note_off_c, 0, 65, 67
1, 113531, Control_c, 0, 64, 88
1, 113546, Control_c, 0, 64, 90
1, 113561, Control_c, 0, 64, 91
1, 113569, Note_on_c, 0, 64, 66
1, 113575, Control_c, 0, 64, 92
1, 113581, Note_on_c, 0, 61, 48
1, 113590, Control_c, 0, 64, 92
1, 113600, Note_on_c, 0, 58, 35
1, 113605, Note_off_c, 0, 61, 59
1, 113606, Note_off_c, 0, 64, 59
1, 113620, Control_c, 0, 64, 93
1, 113638, Note_off_c, 0, 58, 50
1, 113643, Control_c, 0, 64, 93
1, 113650, Note_on_c, 0, 62, 62
1, 113657, Control_c, 0, 64, 94
1, 113672, Control_c, 0, 64, 94
1, 113693, Note_off_c, 0, 62, 56
1, 113704, Note_on_c, 0, 64, 51
1, 113742, Note_on_c, 0, 63, 61
1, 113765, Note_off_c, 0, 64, 44
1, 113799, Note_on_c, 0, 65, 55
1, 113808, Note_off_c, 0, 63, 63
1, 113836, Note_off_c, 0, 65, 66
1, 113837, Note_on_c, 0, 64, 55
1, 113883, Note_off_c, 0, 64, 62
1, 113903, Note_on_c, 0, 66, 57
1, 113939, Note_off_c, 0, 66, 67
1, 113954, Note_on_c, 0, 65, 67
1, 114006, Note_off_c, 0, 65, 64
1, 114022, Note_on_c, 0, 67, 60
1, 114069, Note_on_c, 0, 66, 67
1, 114092, Note_off_c, 0, 67, 40
1, 114123, Note_on_c, 0, 68, 64
1, 114142, Note_off_c, 0, 66, 64
1, 114161, Control_c, 0, 64, 94
1, 114166, Note_off_c, 0, 68, 64
1, 114175, Control_c, 0, 64, 93
1, 114190, Control_c, 0, 64, 93
1, 114191, Note_on_c, 0, 67, 68
1, 114205, Control_c, 0, 64, 92
1, 114220, Control_c, 0, 64, 91
1, 114234, Control_c, 0, 64, 90
1, 114239, Note_off_c, 0, 67, 54
1, 114249, Note_on_c, 0, 69, 68
1, 114249, Control_c, 0, 64, 88
1, 114264, Control_c, 0, 64, 86
1, 114279, Control_c, 0, 64, 83
1, 114289, Note_on_c, 0, 68, 68
1, 114294, Control_c, 0, 64, 78
1, 114309, Control_c, 0, 64, 72
1, 114324, Control_c, 0, 64, 65
1, 114328, Note_off_c, 0, 69, 61
1, 114339, Control_c, 0, 64, 48
1, 114339, Note_on_c, 0, 70, 61
1, 114354, Control_c, 0, 64, 0
1, 114366, Note_off_c, 0, 68, 63
1, 114369, Control_c, 0, 64, 10
1, 114383, Note_off_c, 0, 70, 65
1, 114392, Control_c, 0, 64, 18
1, 114404, Note_on_c, 0, 69, 64
1, 114406, Control_c, 0, 64, 13
1, 114421, Control_c, 0, 64, 0
1, 114452, Note_off_c, 0, 69, 60
1, 114467, Note_on_c, 0, 71, 64
1, 114497, Note_on_c, 0, 70, 70
1, 114539, Note_off_c, 0, 71, 57
1, 114559, Note_on_c, 0, 72, 57
1, 114564, Note_off_c, 0, 70, 62
1, 114593, Note_off_c, 0, 72, 66
1, 114599, Note_on_c, 0, 71, 53
1, 114643, Note_off_c, 0, 71, 61
1, 114654, Note_on_c, 0, 73, 65
1, 114703, Note_off_c, 0, 73, 64
1, 114706, Note_on_c, 0, 72, 69
1, 114769, Note_on_c, 0, 74, 68
1, 114776, Note_off_c, 0, 72, 58
1, 114824, Note_on_c, 0, 73, 70
1, 114851, Note_off_c, 0, 74, 63
1, 114858, Note_on_c, 0, 75, 64
1, 114892, Note_off_c, 0, 73, 61
1, 114914, Note_off_c, 0, 75, 65
1, 114934, Note_on_c, 0, 74, 66
1, 114976, Note_off_c, 0, 74, 61
1, 114989, Note_on_c, 0, 76, 65
1, 115028, Note_on_c, 0, 75, 66
1, 115059, Note_off_c, 0, 76, 63
1, 115074, Note_on_c, 0, 77, 54
1, 115088, Note_off_c, 0, 75, 64
1, 115104, Note_off_c, 0, 77, 60
1, 115119, Note_on_c, 0, 76, 58
1, 115167, Note_off_c, 0, 76, 66
1, 115184, Note_on_c, 0, 78, 64
1, 115227, Note_off_c, 0, 78, 65
1, 115236, Note_on_c, 0, 77, 70
1, 115300, Note_on_c, 0, 79, 69
1, 115306, Note_off_c, 0, 77, 60
1, 115344, Note_on_c, 0, 78, 72
1, 115386, Note_off_c, 0, 79, 55
1, 115391, Note_on_c, 0, 80, 66
1, 115407, Note_off_c, 0, 78, 64
1, 115425, Note_off_c, 0, 80, 65
1, 115446, Note_on_c, 0, 79, 63
1, 115498, Note_off_c, 0, 79, 59
1, 115507, Note_on_c, 0, 81, 72
1, 115539, Note_on_c, 0, 80, 73
1, 115585, Note_off_c, 0, 81, 58
1, 115594, Note_on_c, 0, 82, 66
1, 115606, Note_off_c, 0, 80, 63
1, 115614, Control_c, 0, 64, 10
1, 115620, Note_off_c, 0, 82, 68
1, 115644, Note_on_c, 0, 81, 69
1, 115696, Note_off_c, 0, 81, 61
1, 115704, Note_on_c, 0, 83, 72
1, 115733, Note_on_c, 0, 82, 71
1, 115769, Note_off_c, 0, 83, 57
1, 115798, Note_on_c, 0, 84, 58
1, 115804, Note_off_c, 0, 82, 62
1, 115807, Control_c, 0, 64, 17
1, 115821, Control_c, 0, 64, 20
1, 115826, Note_on_c, 0, 83, 58
1, 115829, Note_off_c, 0, 84, 68
1, 115836, Control_c, 0, 64, 21
1, 115867, Note_off_c, 0, 83, 55
1, 115888, Control_c, 0, 64, 20
1, 115892, Note_on_c, 0, 85, 67
1, 115933, Control_c, 0, 64, 18
1, 115933, Note_off_c, 0, 85, 66
1, 115939, Note_on_c, 0, 84, 71
1, 116008, Note_on_c, 0, 86, 73
1, 116009, Note_off_c, 0, 84, 53
1, 116045, Note_on_c, 0, 85, 69
1, 116052, Control_c, 0, 64, 20
1, 116086, Note_off_c, 0, 86, 59
1, 116091, Note_on_c, 0, 87, 70
1, 116097, Control_c, 0, 64, 21
1, 116109, Note_off_c, 0, 85, 63
1, 116111, Control_c, 0, 64, 24
1, 116126, Control_c, 0, 64, 28
1, 116129, Note_off_c, 0, 87, 65
1, 116141, Control_c, 0, 64, 29
1, 116156, Note_on_c, 0, 86, 71
1, 116208, Note_on_c, 0, 88, 71
1, 116210, Note_off_c, 0, 86, 62
1, 116250, Note_on_c, 0, 87, 69
1, 116285, Note_off_c, 0, 88, 62
1, 116289, Control_c, 0, 64, 30
1, 116297, Note_on_c, 0, 89, 59
1, 116303, Control_c, 0, 64, 32
1, 116306, Note_off_c, 0, 87, 64
1, 116318, Control_c, 0, 64, 35
1, 116328, Note_off_c, 0, 89, 67
1, 116333, Control_c, 0, 64, 38
1, 116341, Note_on_c, 0, 88, 60
1, 116348, Control_c, 0, 64, 39
1, 116374, Note_off_c, 0, 88, 62
1, 116377, Control_c, 0, 64, 39
1, 116392, Control_c, 0, 64, 38
1, 116398, Note_on_c, 0, 90, 67
1, 116425, Note_off_c, 0, 90, 66
1, 116449, Note_on_c, 0, 89, 67
1, 116496, Control_c, 0, 64, 39
1, 116506, Note_on_c, 0, 91, 75
1, 116511, Note_off_c, 0, 89, 63
1, 116511, Control_c, 0, 64, 39
1, 116553, Note_on_c, 0, 90, 69
1, 116585, Control_c, 0, 64, 40
1, 116590, Note_off_c, 0, 91, 60
1, 116600, Control_c, 0, 64, 42
1, 116603, Note_on_c, 0, 92, 70
1, 116615, Control_c, 0, 64, 44
1, 116625, Note_off_c, 0, 90, 63
1, 116637, Control_c, 0, 64, 44
1, 116637, Note_off_c, 0, 92, 66
1, 116666, Note_on_c, 0, 91, 61
1, 116667, Control_c, 0, 64, 44
1, 116721, Note_off_c, 0, 91, 60
1, 116723, Note_on_c, 0, 93, 71
1, 116741, Control_c, 0, 64, 43
1, 116756, Note_on_c, 0, 92, 75
1, 116756, Control_c, 0, 64, 43
1, 116786, Control_c, 0, 64, 43
1, 116801, Control_c, 0, 64, 44
1, 116810, Note_off_c, 0, 93, 62
1, 116816, Note_on_c, 0, 94, 69
1, 116832, Note_off_c, 0, 92, 63
1, 116848, Note_off_c, 0, 94, 64
1, 116860, Control_c, 0, 64, 45
1, 116872, Note_on_c, 0, 93, 71
1, 116874, Control_c, 0, 64, 45
1, 116889, Control_c, 0, 64, 46
1, 116906, Note_off_c, 0, 93, 58
1, 116919, Control_c, 0, 64, 45
1, 116933, Control_c, 0, 64, 44
1, 116935, Note_on_c, 0, 95, 82
1, 116948, Control_c, 0, 64, 44
1, 116958, Note_on_c, 0, 94, 76
1, 116963, Control_c, 0, 64, 45
1, 116978, Control_c, 0, 64, 46
1, 117020, Note_off_c, 0, 95, 64
1, 117023, Note_on_c, 0, 96, 66
1, 117037, Control_c, 0, 64, 47
1, 117038, Note_off_c, 0, 94, 64
1, 117051, Control_c, 0, 64, 49
1, 117052, Note_off_c, 0, 96, 64
1, 117065, Note_on_c, 0, 95, 51
1, 117081, Control_c, 0, 64, 48
1, 117104, Note_off_c, 0, 95, 57
1, 117116, Note_on_c, 0, 97, 77
1, 117155, Control_c, 0, 64, 47
1, 117170, Note_off_c, 0, 97, 63
1, 117170, Control_c, 0, 64, 44
1, 117176, Note_on_c, 0, 95, 57
1, 117185, Control_c, 0, 64, 39
1, 117200, Control_c, 0, 64, 30
1, 117209, Note_on_c, 0, 96, 26
1, 117215, Control_c, 0, 64, 17
1, 117227, Note_on_c, 0, 98, 77
1, 117230, Control_c, 0, 64, 0
1, 117231, Note_off_c, 0, 95, 60
1, 117247, Note_on_c, 0, 97, 72
1, 117251, Note_off_c, 0, 96, 30
1, 117316, Note_on_c, 0, 99, 77
1, 117325, Note_off_c, 0, 97, 63
1, 117339, Note_off_c, 0, 98, 54
1, 117346, Note_off_c, 0, 99, 68
1, 117363, Control_c, 0, 64, 60
1, 117385, Control_c, 0, 64, 66
1, 117400, Control_c, 0, 64, 69
1, 117414, Note_on_c, 0, 98, 59
1, 117415, Control_c, 0, 64, 73
1, 117430, Control_c, 0, 64, 79
1, 117445, Control_c, 0, 64, 85
1, 117459, Control_c, 0, 64, 90
1, 117464, Note_off_c, 0, 98, 64
1, 117465, Note_on_c, 0, 100, 79
1, 117474, Control_c, 0, 64, 93
1, 117489, Note_off_c, 0, 100, 67
1, 117489, Control_c, 0, 64, 95
1, 117504, Control_c, 0, 64, 98
1, 117519, Control_c, 0, 64, 103
1, 117533, Control_c, 0, 64, 108
1, 117537, Note_on_c, 0, 98, 67
1, 117549, Control_c, 0, 64, 113
1, 117564, Control_c, 0, 64, 118
1, 117567, Note_off_c, 0, 98, 66
1, 117577, Note_on_c, 0, 99, 82
1, 117579, Control_c, 0, 64, 126
1, 117594, Control_c, 0, 64, 127
1, 117609, Note_off_c, 0, 99, 59
1, 117653, Note_on_c, 0, 98, 72
1, 117676, Note_off_c, 0, 98, 67
1, 117684, Note_on_c, 0, 100, 80
1, 117709, Note_off_c, 0, 100, 66
1, 117753, Note_on_c, 0, 98, 75
1, 117778, Note_off_c, 0, 98, 65
1, 117790, Note_on_c, 0, 99, 87
1, 117841, Note_off_c, 0, 99, 66
1, 117854, Note_on_c, 0, 98, 78
1, 117880, Note_off_c, 0, 98, 60
1, 117898, Note_on_c, 0, 100, 89
1, 117937, Note_off_c, 0, 100, 66
1, 117962, Note_on_c, 0, 98, 73
1, 117984, Note_off_c, 0, 98, 70
1, 118005, Note_on_c, 0, 99, 94
1, 118053, Note_off_c, 0, 99, 67
1, 118071, Note_on_c, 0, 98, 78
1, 118105, Note_off_c, 0, 98, 63
1, 118108, Note_on_c, 0, 100, 98
1, 118156, Note_off_c, 0, 100, 65
1, 118194, Note_on_c, 0, 98, 81
1, 118226, Note_off_c, 0, 98, 63
1, 118229, Note_on_c, 0, 99, 96
1, 118280, Note_off_c, 0, 99, 67
1, 118297, Note_on_c, 0, 98, 85
1, 118339, Note_on_c, 0, 100, 100
1, 118342, Note_off_c, 0, 98, 66
1, 118379, Note_off_c, 0, 100, 66
1, 118404, Note_on_c, 0, 98, 85
1, 118453, Note_off_c, 0, 98, 66
1, 118458, Note_on_c, 0, 99, 101
1, 118506, Note_off_c, 0, 99, 67
1, 118521, Note_on_c, 0, 98, 84
1, 118571, Note_off_c, 0, 98, 66
1, 118575, Note_on_c, 0, 100, 102
1, 118615, Note_off_c, 0, 100, 66
1, 118643, Note_on_c, 0, 98, 89
1, 118698, Note_on_c, 0, 99, 103
1, 118698, Note_off_c, 0, 98, 65
1, 118747, Note_off_c, 0, 99, 68
1, 118767, Note_on_c, 0, 98, 84
1, 118830, Note_off_c, 0, 98, 64
1, 118839, Note_on_c, 0, 100, 102
1, 118847, Note_on_c, 0, 98, 70
1, 118890, Note_off_c, 0, 100, 66
1, 118947, Note_off_c, 0, 98, 66
1, 119022, Note_on_c, 0, 100, 106
1, 119030, Control_c, 0, 64, 113
1, 119045, Control_c, 0, 64, 93
1, 119060, Control_c, 0, 64, 75
1, 119075, Control_c, 0, 64, 0
1, 119078, Note_off_c, 0, 100, 63
1, 119105, Control_c, 0, 64, 13
1, 119120, Control_c, 0, 64, 67
1, 119130, Note_on_c, 0, 99, 86
1, 119135, Control_c, 0, 64, 80
1, 119150, Control_c, 0, 64, 93
1, 119165, Control_c, 0, 64, 103
1, 119180, Control_c, 0, 64, 111
1, 119187, Note_off_c, 0, 99, 68
1, 119194, Control_c, 0, 64, 121
1, 119209, Control_c, 0, 64, 127
1, 119210, Note_on_c, 0, 100, 96
1, 119248, Note_off_c, 0, 100, 66
1, 119266, Note_on_c, 0, 99, 79
1, 119319, Note_off_c, 0, 99, 66
1, 119335, Note_on_c, 0, 100, 93
1, 119375, Note_off_c, 0, 100, 64
1, 119385, Note_on_c, 0, 99, 72
1, 119428, Note_off_c, 0, 99, 65
1, 119439, Note_on_c, 0, 100, 92
1, 119478, Note_off_c, 0, 100, 65
1, 119493, Note_on_c, 0, 99, 76
1, 119537, Note_off_c, 0, 99, 65
1, 119542, Note_on_c, 0, 100, 94
1, 119580, Note_off_c, 0, 100, 66
1, 119592, Note_on_c, 0, 99, 75
1, 119644, Note_off_c, 0, 99, 68
1, 119650, Note_on_c, 0, 100, 90
1, 119689, Note_off_c, 0, 100, 65
1, 119701, Note_on_c, 0, 99, 79
1, 119749, Note_off_c, 0, 99, 67
1, 119749, Note_on_c, 0, 100, 92
1, 119789, Note_off_c, 0, 100, 65
1, 119804, Note_on_c, 0, 99, 78
1, 119853, Note_on_c, 0, 100, 92
1, 119857, Note_off_c, 0, 99, 67
1, 119890, Note_off_c, 0, 100, 66
1, 119906, Note_on_c, 0, 99, 71
1, 119958, Note_off_c, 0, 99, 68
1, 119959, Note_on_c, 0, 100, 96
1, 119995, Note_off_c, 0, 100, 66
1, 120011, Note_on_c, 0, 99, 77
1, 120059, Note_off_c, 0, 99, 70
1, 120061, Note_on_c, 0, 100, 97
1, 120097, Note_off_c, 0, 100, 66
1, 120110, Note_on_c, 0, 99, 78
1, 120162, Note_off_c, 0, 99, 67
1, 120163, Note_on_c, 0, 100, 98
1, 120199, Note_off_c, 0, 100, 66
1, 120212, Note_on_c, 0, 99, 71
1, 120267, Note_off_c, 0, 99, 67
1, 120271, Note_on_c, 0, 100, 95
1, 120307, Note_off_c, 0, 100, 65
1, 120323, Note_on_c, 0, 99, 76
1, 120381, Note_off_c, 0, 99, 67
1, 120387, Note_on_c, 0, 100, 90
1, 120424, Note_off_c, 0, 100, 63
1, 120442, Note_on_c, 0, 99, 77
1, 120491, Note_off_c, 0, 99, 66
1, 120498, Note_on_c, 0, 100, 84
1, 120538, Note_off_c, 0, 100, 63
1, 120562, Note_on_c, 0, 99, 70
1, 120612, Note_off_c, 0, 99, 65
1, 120619, Note_on_c, 0, 100, 75
1, 120649, Note_off_c, 0, 100, 61
1, 120690, Note_on_c, 0, 99, 68
1, 120734, Note_off_c, 0, 99, 64
1, 120743, Note_on_c, 0, 100, 73
1, 120768, Note_off_c, 0, 100, 64
1, 120822, Note_on_c, 0, 99, 64
1, 120853, Note_off_c, 0, 99, 67
1, 120867, Note_on_c, 0, 100, 71
1, 120893, Note_off_c, 0, 100, 67
1, 120953, Note_on_c, 0, 99, 64
1, 120986, Note_off_c, 0, 99, 64
1, 120996, Note_on_c, 0, 100, 65
1, 121023, Note_off_c, 0, 100, 67
1, 121092, Note_on_c, 0, 99, 58
1, 121120, Note_off_c, 0, 99, 63
1, 121134, Note_on_c, 0, 100, 65
1, 121162, Note_off_c, 0, 100, 68
1, 121218, Note_on_c, 0, 99, 60
1, 121254, Note_off_c, 0, 99, 65
1, 121266, Note_on_c, 0, 100, 63
1, 121293, Note_off_c, 0, 100, 66
1, 121357, Note_on_c, 0, 99, 55
1, 121379, Note_off_c, 0, 99, 62
1, 121389, Note_on_c, 0, 100, 65
1, 121418, Note_off_c, 0, 100, 64
1, 121468, Note_on_c, 0, 99, 62
1, 121499, Note_off_c, 0, 99, 69
1, 121538, Note_on_c, 0, 100, 33
1, 121574, Note_off_c, 0, 100, 32
1, 121576, Note_on_c, 0, 99, 67
1, 121603, Note_off_c, 0, 99, 68
1, 121640, Note_on_c, 0, 100, 51
1, 121666, Note_off_c, 0, 100, 58
1, 121692, Note_on_c, 0, 99, 59
1, 121737, Note_off_c, 0, 99, 62
1, 121756, Note_on_c, 0, 100, 59
1, 121805, Note_off_c, 0, 100, 58
1, 121829, Note_on_c, 0, 99, 60
1, 121874, Note_off_c, 0, 99, 63
1, 121907, Note_on_c, 0, 100, 46
1, 121940, Note_off_c, 0, 100, 63
1, 121973, Note_on_c, 0, 99, 49
1, 121999, Note_off_c, 0, 99, 58
1, 122040, Note_on_c, 0, 100, 52
1, 122069, Note_off_c, 0, 100, 60
1, 122085, Note_on_c, 0, 99, 58
1, 122126, Note_off_c, 0, 99, 63
1, 122166, Note_on_c, 0, 100, 52
1, 122204, Note_off_c, 0, 100, 63
1, 122245, Note_on_c, 0, 99, 43
1, 122272, Note_off_c, 0, 99, 54
1, 122325, Note_on_c, 0, 100, 33
1, 122351, Note_off_c, 0, 100, 50
1, 122358, Note_on_c, 0, 99, 55
1, 122403, Note_off_c, 0, 99, 62
1, 122442, Note_on_c, 0, 100, 50
1, 122482, Note_off_c, 0, 100, 63
1, 122521, Note_on_c, 0, 99, 43
1, 122546, Note_off_c, 0, 99, 58
1, 122599, Note_on_c, 0, 100, 37
1, 122635, Note_off_c, 0, 100, 53
1, 122643, Note_on_c, 0, 99, 52
1, 122687, Note_off_c, 0, 99, 62
1, 122724, Note_on_c, 0, 100, 48
1, 122769, Note_off_c, 0, 100, 61
1, 122811, Note_on_c, 0, 99, 41
1, 122840, Note_off_c, 0, 99, 55
1, 122898, Note_on_c, 0, 100, 36
1, 122925, Note_off_c, 0, 100, 51
1, 122930, Note_on_c, 0, 99, 50
1, 122986, Note_off_c, 0, 99, 58
1, 123019, Note_on_c, 0, 100, 46
1, 123063, Note_off_c, 0, 100, 61
1, 123097, Note_on_c, 0, 99, 47
1, 123134, Note_off_c, 0, 99, 62
1, 123183, Note_on_c, 0, 100, 44
1, 123214, Note_off_c, 0, 100, 57
1, 123238, Note_on_c, 0, 99, 56
1, 123278, Note_off_c, 0, 99, 63
1, 123310, Note_on_c, 0, 100, 52
1, 123379, Note_off_c, 0, 100, 56
1, 123404, Note_on_c, 0, 99, 53
1, 123445, Note_off_c, 0, 99, 64
1, 123458, Note_on_c, 0, 75, 42
1, 123491, Note_off_c, 0, 75, 54
1, 123492, Note_on_c, 0, 100, 50
1, 123527, Note_off_c, 0, 100, 63
1, 123552, Note_on_c, 0, 99, 53
1, 123582, Note_off_c, 0, 99, 61
1, 123625, Note_on_c, 0, 100, 58
1, 123734, Note_off_c, 0, 100, 53
1, 123758, Note_on_c, 0, 99, 55
1, 123809, Note_off_c, 0, 99, 59
1, 123848, Note_on_c, 0, 100, 57
1, 123860, Note_on_c, 0, 87, 50
1, 123890, Note_off_c, 0, 87, 55
1, 123916, Note_off_c, 0, 100, 59
1, 123943, Note_on_c, 0, 99, 51
1, 123977, Note_off_c, 0, 99, 63
1, 124035, Note_on_c, 0, 100, 50
1, 124066, Note_off_c, 0, 100, 55
1, 124113, Note_on_c, 0, 99, 51
1, 124143, Note_off_c, 0, 99, 58
1, 124180, Note_on_c, 0, 100, 54
1, 124202, Note_on_c, 0, 87, 49
1, 124220, Note_off_c, 0, 100, 60
1, 124224, Note_off_c, 0, 87, 57
1, 124244, Note_on_c, 0, 99, 58
1, 124281, Note_off_c, 0, 99, 66
1, 124333, Note_on_c, 0, 100, 48
1, 124357, Note_off_c, 0, 100, 52
1, 124385, Note_on_c, 0, 99, 60
1, 124408, Note_off_c, 0, 99, 61
1, 124432, Note_on_c, 0, 100, 63
1, 124464, Note_off_c, 0, 100, 62
1, 124467, Note_on_c, 0, 85, 53
1, 124474, Note_on_c, 0, 87, 43
1, 124489, Note_off_c, 0, 85, 65
1, 124491, Note_on_c, 0, 99, 63
1, 124497, Note_off_c, 0, 87, 55
1, 124542, Note_off_c, 0, 99, 55
1, 124659, Note_on_c, 0, 68, 51
1, 124684, Note_off_c, 0, 68, 62
1, 124733, Control_c, 0, 64, 124
1, 124741, Note_on_c, 0, 87, 49
1, 124748, Control_c, 0, 64, 101
1, 124749, Note_on_c, 0, 99, 45
1, 124763, Control_c, 0, 64, 86
1, 124764, Note_off_c, 0, 87, 51
1, 124775, Note_on_c, 0, 83, 47
1, 124778, Control_c, 0, 64, 75
1, 124793, Control_c, 0, 64, 69
1, 124802, Note_off_c, 0, 99, 66
1, 124807, Control_c, 0, 64, 70
1, 124819, Note_on_c, 0, 100, 53
1, 124820, Note_off_c, 0, 83, 40
1, 124822, Control_c, 0, 64, 76
1, 124837, Control_c, 0, 64, 85
1, 124852, Control_c, 0, 64, 93
1, 124863, Note_off_c, 0, 100, 50
1, 124873, Control_c, 0, 64, 97
1, 124888, Control_c, 0, 64, 101
1, 124903, Control_c, 0, 64, 105
1, 124908, Note_on_c, 0, 99, 47
1, 124918, Control_c, 0, 64, 111
1, 124933, Control_c, 0, 64, 118
1, 124934, Note_off_c, 0, 99, 61
1, 124948, Control_c, 0, 64, 125
1, 124962, Control_c, 0, 64, 127
1, 124965, Note_on_c, 0, 100, 40
1, 124995, Note_off_c, 0, 100, 51
1, 125022, Note_on_c, 0, 87, 66
1, 125024, Note_on_c, 0, 99, 65
1, 125049, Note_on_c, 0, 83, 48
1, 125050, Note_off_c, 0, 87, 66
1, 125062, Note_off_c, 0, 99, 60
1, 125076, Note_on_c, 0, 100, 65
1, 125076, Note_off_c, 0, 83, 51
1, 125131, Note_off_c, 0, 100, 60
1, 125163, Note_on_c, 0, 99, 60
1, 125195, Note_off_c, 0, 99, 68
1, 125201, Note_on_c, 0, 100, 48
1, 125229, Note_off_c, 0, 100, 54
1, 125264, Note_on_c, 0, 87, 71
1, 125270, Note_on_c, 0, 99, 63
1, 125277, Note_on_c, 0, 82, 60
1, 125289, Note_off_c, 0, 87, 68
1, 125308, Note_off_c, 0, 82, 65
1, 125322, Note_on_c, 0, 100, 66
1, 125323, Note_off_c, 0, 99, 64
1, 125381, Note_off_c, 0, 100, 59
1, 125398, Note_on_c, 0, 99, 56
1, 125445, Note_off_c, 0, 99, 65
1, 125451, Note_on_c, 0, 100, 54
1, 125494, Note_off_c, 0, 100, 56
1, 125511, Control_c, 0, 64, 111
1, 125526, Control_c, 0, 64, 99
1, 125528, Note_on_c, 0, 87, 64
1, 125538, Note_on_c, 0, 99, 56
1, 125541, Control_c, 0, 64, 88
1, 125550, Note_on_c, 0, 80, 48
1, 125554, Note_off_c, 0, 87, 65
1, 125556, Control_c, 0, 64, 77
1, 125571, Control_c, 0, 64, 65
1, 125583, Note_on_c, 0, 71, 31
1, 125585, Note_off_c, 0, 99, 63
1, 125585, Control_c, 0, 64, 0
1, 125601, Note_on_c, 0, 100, 65
1, 125623, Control_c, 0, 64, 56
1, 125637, Control_c, 0, 64, 66
1, 125652, Control_c, 0, 64, 72
1, 125659, Note_off_c, 0, 100, 60
1, 125667, Control_c, 0, 64, 79
1, 125677, Note_off_c, 0, 80, 52
1, 125679, Note_on_c, 0, 99, 60
1, 125682, Control_c, 0, 64, 84
1, 125696, Control_c, 0, 64, 87
1, 125702, Note_off_c, 0, 71, 30
1, 125711, Control_c, 0, 64, 90
1, 125726, Control_c, 0, 64, 93
1, 125730, Note_off_c, 0, 99, 65
1, 125737, Note_on_c, 0, 100, 55
1, 125741, Control_c, 0, 64, 96
1, 125755, Control_c, 0, 64, 99
1, 125770, Control_c, 0, 64, 101
1, 125784, Note_off_c, 0, 100, 53
1, 125785, Control_c, 0, 64, 103
1, 125800, Control_c, 0, 64, 104
1, 125815, Control_c, 0, 64, 105
1, 125816, Note_on_c, 0, 87, 62
1, 125816, Note_on_c, 0, 99, 57
1, 125830, Control_c, 0, 64, 106
1, 125831, Note_on_c, 0, 79, 55
1, 125834, Note_off_c, 0, 87, 64
1, 125845, Control_c, 0, 64, 107
1, 125860, Control_c, 0, 64, 108
1, 125868, Note_off_c, 0, 99, 63
1, 125875, Note_off_c, 0, 79, 58
1, 125875, Control_c, 0, 64, 108
1, 125890, Control_c, 0, 64, 109
1, 125893, Note_on_c, 0, 100, 56
1, 125904, Control_c, 0, 64, 109
1, 125934, Note_off_c, 0, 100, 50
1, 125949, Control_c, 0, 64, 110
1, 125964, Note_on_c, 0, 99, 55
1, 125994, Control_c, 0, 64, 110
1, 126001, Note_off_c, 0, 99, 67
1, 126022, Note_on_c, 0, 100, 57
1, 126059, Note_off_c, 0, 100, 53
1, 126089, Note_on_c, 0, 87, 63
1, 126097, Control_c, 0, 64, 111
1, 126102, Note_on_c, 0, 99, 50
1, 126116, Note_off_c, 0, 87, 65
1, 126117, Note_on_c, 0, 80, 51
1, 126127, Control_c, 0, 64, 111
1, 126137, Note_off_c, 0, 99, 55
1, 126152, Note_off_c, 0, 80, 51
1, 126161, Note_on_c, 0, 100, 59
1, 126203, Note_off_c, 0, 100, 58
1, 126229, Note_on_c, 0, 99, 59
1, 126278, Note_off_c, 0, 99, 62
1, 126319, Note_on_c, 0, 100, 41
1, 126354, Note_off_c, 0, 100, 52
1, 126387, Control_c, 0, 64, 110
1, 126399, Note_on_c, 0, 87, 56
1, 126402, Control_c, 0, 64, 105
1, 126412, Note_on_c, 0, 99, 47
1, 126417, Control_c, 0, 64, 95
1, 126421, Note_off_c, 0, 87, 60
1, 126423, Note_on_c, 0, 82, 48
1, 126428, Note_on_c, 0, 79, 43
1, 126432, Control_c, 0, 64, 83
1, 126446, Control_c, 0, 64, 67
1, 126455, Note_off_c, 0, 99, 53
1, 126461, Control_c, 0, 64, 0
1, 126468, Note_on_c, 0, 100, 55
1, 126506, Control_c, 0, 64, 58
1, 126520, Control_c, 0, 64, 67
1, 126533, Note_off_c, 0, 100, 62
1, 126535, Control_c, 0, 64, 72
1, 126550, Control_c, 0, 64, 78
1, 126557, Note_on_c, 0, 99, 55
1, 126565, Control_c, 0, 64, 82
1, 126580, Control_c, 0, 64, 86
1, 126593, Control_c, 0, 64, 88
1, 126602, Note_off_c, 0, 99, 64
1, 126608, Control_c, 0, 64, 91
1, 126621, Note_on_c, 0, 100, 47
1, 126623, Control_c, 0, 64, 94
1, 126638, Control_c, 0, 64, 96
1, 126653, Control_c, 0, 64, 98
1, 126662, Note_off_c, 0, 100, 53
1, 126668, Control_c, 0, 64, 100
1, 126682, Control_c, 0, 64, 101
1, 126697, Control_c, 0, 64, 103
1, 126705, Note_on_c, 0, 87, 50
1, 126705, Note_on_c, 0, 99, 59
1, 126712, Control_c, 0, 64, 105
1, 126717, Note_on_c, 0, 75, 53
1, 126727, Control_c, 0, 64, 106
1, 126727, Note_off_c, 0, 87, 50
1, 126728, Note_off_c, 0, 79, 40
1, 126742, Control_c, 0, 64, 107
1, 126745, Note_off_c, 0, 99, 66
1, 126750, Note_off_c, 0, 82, 40
1, 126757, Control_c, 0, 64, 107
1, 126759, Note_off_c, 0, 75, 61
1, 126761, Note_on_c, 0, 100, 58
1, 126772, Control_c, 0, 64, 108
1, 126786, Control_c, 0, 64, 109
1, 126801, Control_c, 0, 64, 111
1, 126802, Note_off_c, 0, 100, 52
1, 126816, Control_c, 0, 64, 112
1, 126830, Note_on_c, 0, 99, 60
1, 126845, Control_c, 0, 64, 112
1, 126860, Control_c, 0, 64, 113
1, 126866, Note_off_c, 0, 99, 66
1, 126875, Control_c, 0, 64, 114
1, 126890, Control_c, 0, 64, 115
1, 126892, Note_on_c, 0, 100, 54
1, 126918, Note_off_c, 0, 100, 52
1, 126934, Control_c, 0, 64, 116
1, 126949, Control_c, 0, 64, 117
1, 126950, Note_on_c, 0, 87, 65
1, 126953, Note_on_c, 0, 99, 61
1, 126958, Note_on_c, 0, 75, 59
1, 126964, Control_c, 0, 64, 117
1, 126970, Note_off_c, 0, 87, 65
1, 126989, Note_off_c, 0, 75, 66
1, 126991, Note_off_c, 0, 99, 62
1, 127008, Control_c, 0, 64, 118
1, 127016, Note_on_c, 0, 100, 57
1, 127023, Control_c, 0, 64, 118
1, 127058, Note_off_c, 0, 100, 59
1, 127082, Control_c, 0, 64, 119
1, 127088, Note_on_c, 0, 99, 55
1, 127132, Note_off_c, 0, 99, 68
1, 127147, Note_on_c, 0, 100, 50
1, 127180, Control_c, 0, 64, 118
1, 127181, Note_off_c, 0, 100, 49
1, 127195, Control_c, 0, 64, 117
1, 127209, Control_c, 0, 64, 105
1, 127210, Note_on_c, 0, 87, 65
1, 127218, Note_on_c, 0, 99, 58
1, 127224, Control_c, 0, 64, 91
1, 127225, Note_on_c, 0, 76, 43
1, 127227, Note_on_c, 0, 67, 43
1, 127232, Note_off_c, 0, 87, 64
1, 127239, Control_c, 0, 64, 76
1, 127254, Control_c, 0, 64, 61
1, 127260, Note_off_c, 0, 99, 65
1, 127268, Control_c, 0, 64, 0
1, 127276, Note_on_c, 0, 100, 65
1, 127283, Control_c, 0, 64, 56
1, 127298, Control_c, 0, 64, 68
1, 127313, Control_c, 0, 64, 77
1, 127328, Note_off_c, 0, 100, 56
1, 127328, Control_c, 0, 64, 84
1, 127342, Note_off_c, 0, 67, 47
1, 127342, Control_c, 0, 64, 88
1, 127346, Note_off_c, 0, 76, 55
1, 127355, Note_on_c, 0, 99, 55
1, 127357, Control_c, 0, 64, 91
1, 127372, Control_c, 0, 64, 93
1, 127387, Control_c, 0, 64, 96
1, 127393, Note_off_c, 0, 99, 68
1, 127402, Control_c, 0, 64, 100
1, 127404, Note_on_c, 0, 100, 56
1, 127416, Control_c, 0, 64, 103
1, 127431, Control_c, 0, 64, 105
1, 127446, Control_c, 0, 64, 107
1, 127450, Note_off_c, 0, 100, 51
1, 127460, Control_c, 0, 64, 108
1, 127467, Note_on_c, 0, 99, 60
1, 127468, Note_on_c, 0, 87, 64
1, 127475, Control_c, 0, 64, 109
1, 127481, Note_on_c, 0, 75, 59
1, 127490, Control_c, 0, 64, 110
1, 127493, Note_off_c, 0, 87, 64
1, 127505, Control_c, 0, 64, 111
1, 127509, Note_off_c, 0, 99, 59
1, 127518, Note_off_c, 0, 75, 64
1, 127520, Control_c, 0, 64, 111
1, 127537, Note_on_c, 0, 100, 63
1, 127565, Control_c, 0, 64, 112
1, 127569, Note_off_c, 0, 100, 62
1, 127594, Control_c, 0, 64, 112
1, 127602, Note_on_c, 0, 99, 62
1, 127636, Note_off_c, 0, 99, 67
1, 127639, Control_c, 0, 64, 113
1, 127654, Control_c, 0, 64, 113
1, 127657, Note_on_c, 0, 100, 58
1, 127683, Note_off_c, 0, 100, 55
1, 127713, Control_c, 0, 64, 114
1, 127717, Note_on_c, 0, 87, 69
1, 127719, Note_on_c, 0, 73, 56
1, 127729, Note_on_c, 0, 99, 55
1, 127742, Note_off_c, 0, 87, 66
1, 127752, Note_off_c, 0, 73, 63
1, 127768, Note_off_c, 0, 99, 65
1, 127779, Note_on_c, 0, 100, 61
1, 127786, Control_c, 0, 64, 114
1, 127818, Note_off_c, 0, 100, 55
1, 127861, Note_on_c, 0, 99, 57
1, 127898, Note_off_c, 0, 99, 67
1, 127926, Note_on_c, 0, 100, 49
1, 127952, Note_off_c, 0, 100, 54
1, 127958, Control_c, 0, 64, 114
1, 127973, Control_c, 0, 64, 108
1, 127986, Note_on_c, 0, 87, 62
1, 127988, Control_c, 0, 64, 97
1, 127988, Note_on_c, 0, 99, 61
1, 127999, Note_on_c, 0, 71, 46
1, 128003, Control_c, 0, 64, 82
1, 128003, Note_off_c, 0, 87, 63
1, 128008, Note_on_c, 0, 68, 42
1, 128018, Control_c, 0, 64, 67
1, 128032, Control_c, 0, 64, 0
1, 128034, Note_off_c, 0, 99, 61
1, 128045, Note_on_c, 0, 100, 58
1, 128062, Control_c, 0, 64, 47
1, 128077, Control_c, 0, 64, 68
1, 128091, Control_c, 0, 64, 75
1, 128095, Note_off_c, 0, 100, 55
1, 128106, Control_c, 0, 64, 81
1, 128121, Control_c, 0, 64, 84
1, 128125, Note_on_c, 0, 99, 61
1, 128128, Note_off_c, 0, 68, 39
1, 128136, Control_c, 0, 64, 87
1, 128147, Note_off_c, 0, 71, 34
1, 128151, Control_c, 0, 64, 89
1, 128162, Note_off_c, 0, 99, 65
1, 128165, Control_c, 0, 64, 92
1, 128180, Control_c, 0, 64, 95
1, 128182, Note_on_c, 0, 100, 50
1, 128195, Control_c, 0, 64, 97
1, 128209, Control_c, 0, 64, 98
1, 128212, Note_off_c, 0, 100, 54
1, 128224, Control_c, 0, 64, 99
1, 128239, Control_c, 0, 64, 100
1, 128249, Note_on_c, 0, 87, 67
1, 128253, Note_on_c, 0, 99, 64
1, 128254, Control_c, 0, 64, 101
1, 128269, Note_off_c, 0, 87, 65
1, 128269, Control_c, 0, 64, 102
1, 128270, Note_on_c, 0, 68, 49
1, 128280, Note_on_c, 0, 71, 38
1, 128295, Note_off_c, 0, 99, 59
1, 128298, Control_c, 0, 64, 102
1, 128312, Note_on_c, 0, 100, 59
1, 128328, Note_off_c, 0, 68, 58
1, 128328, Control_c, 0, 64, 103
1, 128337, Note_off_c, 0, 71, 42
1, 128361, Note_off_c, 0, 100, 55
1, 128388, Control_c, 0, 64, 103
1, 128394, Note_on_c, 0, 99, 63
1, 128429, Note_off_c, 0, 99, 66
1, 128454, Note_on_c, 0, 100, 38
1, 128486, Note_off_c, 0, 100, 47
1, 128506, Control_c, 0, 64, 103
1, 128516, Note_on_c, 0, 87, 63
1, 128521, Control_c, 0, 64, 97
1, 128527, Note_on_c, 0, 99, 59
1, 128531, Note_on_c, 0, 66, 48
1, 128532, Note_on_c, 0, 70, 46
1, 128535, Note_off_c, 0, 87, 65
1, 128536, Control_c, 0, 64, 86
1, 128550, Control_c, 0, 64, 68
1, 128565, Control_c, 0, 64, 0
1, 128569, Note_off_c, 0, 99, 63
1, 128586, Note_on_c, 0, 100, 56
1, 128593, Note_off_c, 0, 70, 40
1, 128595, Control_c, 0, 64, 29
1, 128617, Control_c, 0, 64, 65
1, 128632, Control_c, 0, 64, 71
1, 128642, Note_off_c, 0, 66, 56
1, 128647, Note_off_c, 0, 100, 53
1, 128647, Control_c, 0, 64, 77
1, 128662, Control_c, 0, 64, 81
1, 128677, Control_c, 0, 64, 85
1, 128689, Note_on_c, 0, 99, 53
1, 128691, Control_c, 0, 64, 88
1, 128706, Control_c, 0, 64, 90
1, 128721, Control_c, 0, 64, 93
1, 128723, Note_off_c, 0, 99, 66
1, 128736, Control_c, 0, 64, 95
1, 128742, Note_on_c, 0, 100, 50
1, 128751, Control_c, 0, 64, 97
1, 128766, Control_c, 0, 64, 97
1, 128775, Note_off_c, 0, 100, 52
1, 128816, Note_on_c, 0, 87, 60
1, 128820, Note_on_c, 0, 99, 61
1, 128826, Control_c, 0, 64, 96
1, 128835, Note_off_c, 0, 87, 64
1, 128838, Control_c, 0, 64, 89
1, 128842, Note_on_c, 0, 68, 42
1, 128853, Control_c, 0, 64, 76
1, 128862, Note_on_c, 0, 64, 39
1, 128868, Control_c, 0, 64, 60
1, 128873, Note_off_c, 0, 99, 61
1, 128882, Note_on_c, 0, 100, 57
1, 128883, Control_c, 0, 64, 0
1, 128912, Control_c, 0, 64, 49
1, 128927, Control_c, 0, 64, 68
1, 128933, Note_off_c, 0, 100, 54
1, 128942, Control_c, 0, 64, 73
1, 128957, Control_c, 0, 64, 78
1, 128960, Note_off_c, 0, 68, 36
1, 128972, Control_c, 0, 64, 82
1, 128984, Note_on_c, 0, 99, 51
1, 128987, Control_c, 0, 64, 86
1, 129002, Control_c, 0, 64, 89
1, 129015, Note_off_c, 0, 99, 66
1, 129017, Control_c, 0, 64, 91
1, 129026, Note_off_c, 0, 64, 28
1, 129031, Control_c, 0, 64, 94
1, 129046, Note_on_c, 0, 100, 43
1, 129046, Control_c, 0, 64, 96
1, 129061, Control_c, 0, 64, 97
1, 129075, Note_off_c, 0, 100, 54
1, 129116, Note_on_c, 0, 99, 59
1, 129120, Note_on_c, 0, 87, 54
1, 129120, Control_c, 0, 64, 95
1, 129135, Control_c, 0, 64, 89
1, 129140, Note_off_c, 0, 87, 56
1, 129149, Note_on_c, 0, 67, 42
1, 129150, Control_c, 0, 64, 77
1, 129164, Note_off_c, 0, 99, 59
1, 129165, Control_c, 0, 64, 63
1, 129179, Control_c, 0, 64, 0
1, 129184, Note_on_c, 0, 100, 50
1, 129187, Note_off_c, 0, 67, 47
1, 129209, Control_c, 0, 64, 57
1, 129223, Control_c, 0, 64, 68
1, 129236, Note_off_c, 0, 100, 58
1, 129238, Control_c, 0, 64, 73
1, 129253, Control_c, 0, 64, 77
1, 129268, Control_c, 0, 64, 79
1, 129283, Control_c, 0, 64, 82
1, 129287, Note_on_c, 0, 99, 48
1, 129297, Control_c, 0, 64, 84
1, 129312, Note_off_c, 0, 99, 62
1, 129312, Control_c, 0, 64, 86
1, 129327, Control_c, 0, 64, 88
1, 129338, Note_on_c, 0, 100, 39
1, 129342, Control_c, 0, 64, 89
1, 129365, Control_c, 0, 64, 90
1, 129379, Control_c, 0, 64, 91
1, 129380, Note_off_c, 0, 100, 51
1, 129394, Control_c, 0, 64, 93
1, 129418, Note_on_c, 0, 99, 56
1, 129423, Note_on_c, 0, 87, 57
1, 129425, Note_on_c, 0, 68, 47
1, 129441, Note_off_c, 0, 87, 62
1, 129453, Control_c, 0, 64, 93
1, 129459, Note_off_c, 0, 68, 53
1, 129464, Note_off_c, 0, 99, 61
1, 129486, Note_on_c, 0, 100, 49
1, 129528, Control_c, 0, 64, 94
1, 129532, Note_off_c, 0, 100, 48
1, 129585, Note_on_c, 0, 99, 49
1, 129610, Note_off_c, 0, 99, 61
1, 129647, Note_on_c, 0, 100, 38
1, 129679, Note_off_c, 0, 100, 51
1, 129717, Note_on_c, 0, 99, 56
1, 129733, Note_on_c, 0, 87, 53
1, 129736, Control_c, 0, 64, 92
1, 129751, Control_c, 0, 64, 88
1, 129753, Note_off_c, 0, 87, 60
1, 129754, Note_on_c, 0, 70, 36
1, 129756, Note_on_c, 0, 67, 35
1, 129766, Control_c, 0, 64, 79
1, 129777, Note_off_c, 0, 99, 57
1, 129781, Control_c, 0, 64, 66
1, 129796, Control_c, 0, 64, 0
1, 129803, Note_on_c, 0, 100, 53
1, 129840, Control_c, 0, 64, 61
1, 129848, Note_off_c, 0, 100, 60
1, 129854, Control_c, 0, 64, 67
1, 129869, Control_c, 0, 64, 71
1, 129884, Control_c, 0, 64, 76
1, 129890, Note_on_c, 0, 99, 56
1, 129899, Control_c, 0, 64, 79
1, 129914, Control_c, 0, 64, 83
1, 129926, Note_off_c, 0, 99, 68
1, 129929, Control_c, 0, 64, 85
1, 129944, Control_c, 0, 64, 87
1, 129953, Note_on_c, 0, 100, 37
1, 129958, Control_c, 0, 64, 88
1, 129973, Control_c, 0, 64, 89
1, 129985, Note_off_c, 0, 100, 47
1, 129988, Control_c, 0, 64, 90
1, 130003, Control_c, 0, 64, 92
1, 130005, Note_on_c, 0, 63, 43
1, 130005, Note_on_c, 0, 99, 68
1, 130006, Note_off_c, 0, 67, 38
1, 130012, Note_on_c, 0, 87, 56
1, 130018, Control_c, 0, 64, 92
1, 130033, Control_c, 0, 64, 93
1, 130033, Note_off_c, 0, 87, 55
1, 130033, Note_off_c, 0, 63, 56
1, 130037, Note_off_c, 0, 99, 63
1, 130040, Note_off_c, 0, 70, 40
1, 130047, Control_c, 0, 64, 93
1, 130062, Control_c, 0, 64, 94
1, 130071, Note_on_c, 0, 100, 61
1, 130077, Control_c, 0, 64, 94
1, 130108, Note_off_c, 0, 100, 51
1, 130128, Control_c, 0, 64, 95
1, 130143, Control_c, 0, 64, 95
1, 130147, Note_on_c, 0, 99, 56
1, 130170, Note_off_c, 0, 99, 64
1, 130173, Control_c, 0, 64, 96
1, 130196, Note_on_c, 0, 100, 53
1, 130218, Control_c, 0, 64, 96
1, 130222, Note_off_c, 0, 100, 53
1, 130233, Control_c, 0, 64, 97
1, 130270, Note_on_c, 0, 99, 45
1, 130292, Control_c, 0, 64, 98
1, 130297, Note_off_c, 0, 99, 52
1, 130307, Control_c, 0, 64, 98
1, 130310, Note_on_c, 0, 100, 55
1, 130352, Note_off_c, 0, 100, 55
1, 130361, Note_on_c, 0, 63, 47
1, 130382, Note_on_c, 0, 99, 49
1, 130409, Note_off_c, 0, 99, 61
1, 130412, Note_off_c, 0, 63, 58
1, 130412, Control_c, 0, 64, 98
1, 130426, Control_c, 0, 64, 95
1, 130432, Note_on_c, 0, 100, 52
1, 130441, Control_c, 0, 64, 88
1, 130456, Control_c, 0, 64, 77
1, 130457, Note_off_c, 0, 100, 56
1, 130471, Control_c, 0, 64, 64
1, 130480, Note_on_c, 0, 87, 73
1, 130485, Control_c, 0, 64, 0
1, 130489, Note_on_c, 0, 75, 45
1, 130495, Note_on_c, 0, 99, 54
1, 130504, Note_off_c, 0, 87, 70
1, 130515, Note_off_c, 0, 75, 48
1, 130519, Note_off_c, 0, 99, 58
1, 130536, Note_on_c, 0, 100, 68
1, 130581, Note_off_c, 0, 100, 57
1, 130599, Note_on_c, 0, 99, 66
1, 130644, Note_off_c, 0, 99, 64
1, 130653, Note_on_c, 0, 100, 47
1, 130687, Note_off_c, 0, 100, 49
1, 130715, Note_on_c, 0, 87, 70
1, 130728, Note_on_c, 0, 99, 50
1, 130731, Note_on_c, 0, 75, 70
1, 130739, Note_off_c, 0, 87, 69
1, 130750, Note_off_c, 0, 75, 68
1, 130754, Note_off_c, 0, 99, 56
1, 130777, Note_on_c, 0, 100, 73
1, 130820, Note_off_c, 0, 100, 48
1, 130838, Note_on_c, 0, 99, 63
1, 130883, Note_off_c, 0, 99, 64
1, 130906, Note_on_c, 0, 100, 44
1, 130947, Note_off_c, 0, 100, 50
1, 130960, Note_on_c, 0, 99, 67
1, 130963, Note_on_c, 0, 73, 57
1, 130983, Note_off_c, 0, 73, 62
1, 130996, Note_off_c, 0, 99, 63
1, 131022, Note_on_c, 0, 100, 46
1, 131066, Note_off_c, 0, 100, 51
1, 131076, Note_on_c, 0, 99, 65
1, 131097, Note_on_c, 0, 56, 60
1, 131110, Note_off_c, 0, 99, 67
1, 131124, Note_off_c, 0, 56, 64
1, 131149, Note_on_c, 0, 100, 38
1, 131181, Note_off_c, 0, 100, 56
1, 131201, Note_on_c, 0, 71, 66
1, 131228, Note_off_c, 0, 71, 66
1, 131232, Note_on_c, 0, 99, 12
1, 131243, Note_on_c, 0, 100, 62
1, 131306, Note_off_c, 0, 100, 63
1, 131334, Note_off_c, 0, 99, 57
1, 131336, Note_on_c, 0, 87, 68
1, 131362, Note_off_c, 0, 87, 67
1, 131425, Note_on_c, 0, 71, 65
1, 131440, Note_on_c, 0, 87, 64
1, 131446, Note_off_c, 0, 71, 64
1, 131487, Note_off_c, 0, 87, 53
1, 131491, Note_on_c, 0, 88, 67
1, 131557, Note_off_c, 0, 88, 62
1, 131586, Note_on_c, 0, 75, 78
1, 131628, Note_off_c, 0, 75, 64
1, 131661, Note_on_c, 0, 70, 64
1, 131670, Note_on_c, 0, 87, 55
1, 131682, Note_off_c, 0, 70, 66
1, 131748, Note_off_c, 0, 87, 63
1, 131817, Note_on_c, 0, 87, 59
1, 131846, Note_off_c, 0, 87, 66
1, 131866, Note_on_c, 0, 68, 68
1, 131877, Note_on_c, 0, 59, 60
1, 131877, Note_on_c, 0, 99, 75
1, 131893, Note_off_c, 0, 68, 67
1, 131904, Note_off_c, 0, 59, 65
1, 131926, Note_on_c, 0, 100, 72
1, 131926, Note_off_c, 0, 99, 63
1, 131983, Note_on_c, 0, 99, 53
1, 131983, Note_off_c, 0, 100, 62
1, 132015, Note_off_c, 0, 99, 69
1, 132024, Note_on_c, 0, 87, 63
1, 132044, Note_off_c, 0, 87, 65
1, 132111, Note_on_c, 0, 67, 63
1, 132116, Note_on_c, 0, 87, 62
1, 132131, Note_off_c, 0, 67, 65
1, 132146, Note_off_c, 0, 87, 47
1, 132162, Note_on_c, 0, 88, 66
1, 132230, Note_off_c, 0, 88, 60
1, 132266, Note_on_c, 0, 75, 71
1, 132296, Note_off_c, 0, 75, 62
1, 132322, Note_on_c, 0, 68, 65
1, 132349, Note_on_c, 0, 87, 53
1, 132359, Note_off_c, 0, 68, 66
1, 132410, Note_on_c, 0, 88, 65
1, 132424, Note_off_c, 0, 87, 61
1, 132430, Note_off_c, 0, 88, 65
1, 132494, Note_on_c, 0, 87, 66
1, 132528, Note_off_c, 0, 87, 62
1, 132552, Note_on_c, 0, 70, 59
1, 132558, Note_on_c, 0, 67, 56
1, 132560, Note_on_c, 0, 99, 84
1, 132617, Note_on_c, 0, 100, 63
1, 132620, Note_off_c, 0, 99, 67
1, 132675, Note_on_c, 0, 99, 52
1, 132675, Note_off_c, 0, 100, 64
1, 132701, Note_off_c, 0, 99, 67
1, 132706, Note_on_c, 0, 87, 66
1, 132742, Note_off_c, 0, 87, 61
1, 132758, Note_off_c, 0, 70, 36
1, 132770, Note_on_c, 0, 63, 54
1, 132772, Note_off_c, 0, 67, 45
1, 132796, Note_off_c, 0, 63, 64
1, 132847, Note_on_c, 0, 88, 68
1, 132924, Note_off_c, 0, 88, 62
1, 132969, Note_on_c, 0, 75, 69
1, 132993, Note_off_c, 0, 75, 70
1, 133009, Note_on_c, 0, 63, 62
1, 133026, Note_on_c, 0, 87, 49
1, 133037, Note_off_c, 0, 63, 67
1, 133097, Note_off_c, 0, 87, 62
1, 133127, Note_on_c, 0, 88, 33
1, 133157, Note_off_c, 0, 88, 33
1, 133190, Note_on_c, 0, 87, 67
1, 133229, Note_off_c, 0, 87, 62
1, 133232, Note_on_c, 0, 68, 60
1, 133236, Note_on_c, 0, 59, 55
1, 133255, Note_off_c, 0, 68, 64
1, 133258, Note_off_c, 0, 59, 61
1, 133260, Note_on_c, 0, 99, 71
1, 133297, Note_off_c, 0, 99, 61
1, 133298, Note_on_c, 0, 100, 67
1, 133361, Note_off_c, 0, 100, 62
1, 133365, Note_on_c, 0, 99, 63
1, 133392, Note_off_c, 0, 99, 71
1, 133400, Note_on_c, 0, 87, 61
1, 133430, Note_off_c, 0, 87, 66
1, 133471, Note_on_c, 0, 60, 55
1, 133473, Note_on_c, 0, 66, 66
1, 133488, Note_on_c, 0, 87, 71
1, 133504, Note_off_c, 0, 66, 66
1, 133506, Note_off_c, 0, 60, 64
1, 133537, Note_on_c, 0, 88, 66
1, 133544, Note_off_c, 0, 87, 63
1, 133613, Note_off_c, 0, 88, 61
1, 133614, Note_on_c, 0, 87, 40
1, 133638, Note_off_c, 0, 87, 58
1, 133658, Note_on_c, 0, 75, 70
1, 133685, Note_off_c, 0, 75, 66
1, 133713, Note_on_c, 0, 87, 67
1, 133715, Note_on_c, 0, 61, 50
1, 133728, Note_on_c, 0, 64, 36
1, 133738, Note_off_c, 0, 61, 61
1, 133751, Note_off_c, 0, 64, 49
1, 133786, Note_on_c, 0, 88, 61
1, 133791, Note_off_c, 0, 87, 62
1, 133812, Note_off_c, 0, 88, 64
1, 133878, Note_on_c, 0, 87, 68
1, 133917, Note_off_c, 0, 87, 63
1, 133940, Note_on_c, 0, 63, 55
1, 133949, Note_on_c, 0, 99, 78
1, 133965, Note_off_c, 0, 63, 66
1, 133997, Note_off_c, 0, 99, 66
1, 134002, Note_on_c, 0, 100, 60
1, 134007, Control_c, 0, 64, 59
1, 134021, Control_c, 0, 64, 66
1, 134036, Control_c, 0, 64, 69
1, 134051, Control_c, 0, 64, 72
1, 134066, Control_c, 0, 64, 74
1, 134067, Note_on_c, 0, 99, 65
1, 134072, Note_off_c, 0, 100, 59
1, 134081, Control_c, 0, 64, 77
1, 134087, Note_on_c, 0, 87, 71
1, 134095, Control_c, 0, 64, 79
1, 134110, Control_c, 0, 64, 81
1, 134116, Note_off_c, 0, 87, 64
1, 134116, Note_off_c, 0, 99, 68
1, 134169, Control_c, 0, 64, 79
1, 134175, Note_on_c, 0, 80, 68
1, 134182, Note_on_c, 0, 71, 56
1, 134184, Control_c, 0, 64, 75
1, 134199, Control_c, 0, 64, 66
1, 134202, Note_off_c, 0, 80, 68
1, 134206, Note_off_c, 0, 71, 62
1, 134214, Control_c, 0, 64, 0
1, 134305, Note_on_c, 0, 83, 58
1, 134313, Note_on_c, 0, 75, 52
1, 134334, Note_off_c, 0, 75, 65
1, 134334, Note_off_c, 0, 83, 63
1, 134418, Note_on_c, 0, 87, 71
1, 134419, Note_on_c, 0, 80, 63
1, 134437, Note_off_c, 0, 80, 67
1, 134442, Note_off_c, 0, 87, 67
1, 134653, Note_on_c, 0, 63, 49
1, 134658, Note_on_c, 0, 99, 62
1, 134679, Note_off_c, 0, 63, 59
1, 134681, Control_c, 0, 64, 49
1, 134694, Note_off_c, 0, 99, 65
1, 134696, Control_c, 0, 64, 64
1, 134706, Note_on_c, 0, 100, 63
1, 134711, Control_c, 0, 64, 67
1, 134725, Control_c, 0, 64, 70
1, 134740, Control_c, 0, 64, 74
1, 134755, Control_c, 0, 64, 77
1, 134770, Control_c, 0, 64, 80
1, 134773, Note_off_c, 0, 100, 59
1, 134781, Note_on_c, 0, 99, 68
1, 134785, Control_c, 0, 64, 82
1, 134799, Control_c, 0, 64, 83
1, 134802, Note_on_c, 0, 87, 69
1, 134831, Note_off_c, 0, 87, 64
1, 134832, Note_off_c, 0, 99, 67
1, 134874, Control_c, 0, 64, 82
1, 134889, Control_c, 0, 64, 80
1, 134904, Note_on_c, 0, 70, 60
1, 134904, Control_c, 0, 64, 75
1, 134909, Note_on_c, 0, 79, 58
1, 134918, Control_c, 0, 64, 67
1, 134925, Note_off_c, 0, 70, 61
1, 134928, Note_off_c, 0, 79, 63
1, 134933, Control_c, 0, 64, 44
1, 134948, Control_c, 0, 64, 0
1, 135070, Note_on_c, 0, 82, 59
1, 135071, Note_on_c, 0, 73, 55
1, 135098, Note_off_c, 0, 82, 66
1, 135100, Note_off_c, 0, 73, 57
1, 135252, Note_on_c, 0, 87, 53
1, 135260, Note_on_c, 0, 79, 54
1, 135284, Note_off_c, 0, 79, 60
1, 135295, Note_off_c, 0, 87, 63
1, 135569, Note_on_c, 0, 56, 49
1, 135608, Control_c, 0, 64, 39
1, 135623, Control_c, 0, 64, 64
1, 135638, Control_c, 0, 64, 68
1, 135653, Control_c, 0, 64, 72
1, 135667, Control_c, 0, 64, 75
1, 135682, Control_c, 0, 64, 78
1, 135697, Control_c, 0, 64, 81
1, 135712, Control_c, 0, 64, 82
1, 135727, Control_c, 0, 64, 83
1, 135741, Control_c, 0, 64, 85
1, 135756, Control_c, 0, 64, 86
1, 135771, Control_c, 0, 64, 87
1, 135786, Control_c, 0, 64, 88
1, 135799, Note_on_c, 0, 63, 47
1, 135801, Control_c, 0, 64, 88
1, 135816, Control_c, 0, 64, 89
1, 135844, Note_off_c, 0, 63, 61
1, 135873, Note_on_c, 0, 71, 47
1, 135890, Note_off_c, 0, 56, 33
1, 135923, Note_off_c, 0, 71, 58
1, 135923, Note_on_c, 0, 80, 56
1, 135961, Note_off_c, 0, 80, 63
1, 136195, Control_c, 0, 64, 89
1, 136209, Control_c, 0, 64, 88
1, 136224, Control_c, 0, 64, 87
1, 136239, Control_c, 0, 64, 87
1, 136254, Control_c, 0, 64, 86
1, 136269, Control_c, 0, 64, 85
1, 136284, Control_c, 0, 64, 82
1, 136298, Control_c, 0, 64, 79
1, 136313, Control_c, 0, 64, 74
1, 136328, Control_c, 0, 64, 67
1, 136330, Note_on_c, 0, 75, 50
1, 136343, Control_c, 0, 64, 56
1, 136358, Control_c, 0, 64, 0
1, 136377, Note_off_c, 0, 75, 57
1, 136401, Note_on_c, 0, 87, 54
1, 136438, Note_off_c, 0, 87, 62
1, 136455, Note_on_c, 0, 88, 51
1, 136526, Note_off_c, 0, 88, 56
1, 136534, Note_on_c, 0, 87, 46
1, 136557, Note_off_c, 0, 87, 37
1, 136624, Note_on_c, 0, 87, 59
1, 136654, Control_c, 0, 64, 36
1, 136654, Note_off_c, 0, 87, 60
1, 136668, Control_c, 0, 64, 59
1, 136683, Control_c, 0, 64, 64
1, 136688, Note_on_c, 0, 99, 68
1, 136698, Control_c, 0, 64, 66
1, 136713, Control_c, 0, 64, 68
1, 136727, Note_off_c, 0, 99, 61
1, 136728, Control_c, 0, 64, 72
1, 136743, Note_on_c, 0, 100, 61
1, 136743, Control_c, 0, 64, 76
1, 136758, Control_c, 0, 64, 80
1, 136773, Control_c, 0, 64, 83
1, 136788, Control_c, 0, 64, 84
1, 136803, Control_c, 0, 64, 85
1, 136805, Note_on_c, 0, 99, 66
1, 136812, Note_off_c, 0, 100, 54
1, 136818, Control_c, 0, 64, 88
1, 136832, Control_c, 0, 64, 91
1, 136844, Note_off_c, 0, 99, 66
1, 136854, Control_c, 0, 64, 93
1, 136869, Control_c, 0, 64, 95
1, 136874, Note_on_c, 0, 87, 71
1, 136884, Control_c, 0, 64, 97
1, 136899, Control_c, 0, 64, 99
1, 136906, Note_off_c, 0, 87, 61
1, 136913, Control_c, 0, 64, 100
1, 136928, Control_c, 0, 64, 101
1, 136939, Note_on_c, 0, 99, 65
1, 136943, Control_c, 0, 64, 101
1, 136958, Control_c, 0, 64, 102
1, 136973, Control_c, 0, 64, 103
1, 136981, Note_off_c, 0, 99, 66
1, 136987, Control_c, 0, 64, 103
1, 136988, Note_on_c, 0, 100, 67
1, 137002, Control_c, 0, 64, 104
1, 137032, Control_c, 0, 64, 105
1, 137038, Note_off_c, 0, 100, 59
1, 137043, Note_on_c, 0, 99, 57
1, 137047, Control_c, 0, 64, 105
1, 137062, Control_c, 0, 64, 106
1, 137074, Note_off_c, 0, 99, 69
1, 137076, Control_c, 0, 64, 106
1, 137091, Control_c, 0, 64, 107
1, 137106, Control_c, 0, 64, 107
1, 137111, Note_on_c, 0, 85, 72
1, 137135, Control_c, 0, 64, 108
1, 137143, Note_off_c, 0, 85, 63
1, 137150, Control_c, 0, 64, 109
1, 137179, Control_c, 0, 64, 109
1, 137181, Note_on_c, 0, 97, 67
1, 137238, Note_off_c, 0, 97, 63
1, 137239, Control_c, 0, 64, 110
1, 137244, Note_on_c, 0, 99, 64
1, 137298, Control_c, 0, 64, 109
1, 137308, Note_on_c, 0, 97, 54
1, 137313, Note_off_c, 0, 99, 65
1, 137327, Control_c, 0, 64, 104
1, 137342, Control_c, 0, 64, 91
1, 137348, Note_off_c, 0, 97, 65
1, 137357, Control_c, 0, 64, 76
1, 137372, Control_c, 0, 64, 56
1, 137387, Control_c, 0, 64, 0
1, 137416, Note_on_c, 0, 32, 50
1, 137417, Control_c, 0, 64, 55
1, 137423, Note_on_c, 0, 83, 53
1, 137432, Control_c, 0, 64, 70
1, 137442, Note_off_c, 0, 83, 58
1, 137446, Control_c, 0, 64, 81
1, 137452, Note_off_c, 0, 32, 63
1, 137461, Control_c, 0, 64, 90
1, 137476, Control_c, 0, 64, 96
1, 137491, Control_c, 0, 64, 100
1, 137506, Poly_aftertouch_c, 0, 44, 0
1, 137506, Control_c, 0, 64, 106
1, 137514, Note_on_c, 0, 95, 59
1, 137521, Control_c, 0, 64, 114
1, 137536, Control_c, 0, 64, 127
1, 137551, Control_c, 0, 64, 127
1, 137575, Note_off_c, 0, 95, 65
1, 137584, Note_on_c, 0, 97, 67
1, 137660, Note_off_c, 0, 97, 59
1, 137665, Note_on_c, 0, 95, 55
1, 137690, Note_off_c, 0, 95, 60
1, 137725, Note_on_c, 0, 51, 45
1, 137727, Note_on_c, 0, 63, 51
1, 137733, Note_on_c, 0, 83, 68
1, 137737, Note_on_c, 0, 59, 49
1, 137748, Note_off_c, 0, 83, 64
1, 137751, Note_off_c, 0, 51, 58
1, 137753, Note_off_c, 0, 63, 59
1, 137761, Note_off_c, 0, 59, 58
1, 137799, Note_on_c, 0, 95, 67
1, 137855, Note_off_c, 0, 95, 65
1, 137856, Note_on_c, 0, 97, 73
1, 137912, Note_on_c, 0, 95, 64
1, 137932, Note_off_c, 0, 97, 59
1, 137943, Note_off_c, 0, 95, 67
1, 137956, Note_on_c, 0, 59, 10
1, 137959, Note_on_c, 0, 56, 58
1, 137962, Note_on_c, 0, 63, 47
1, 137983, Note_off_c, 0, 63, 59
1, 137985, Note_on_c, 0, 82, 72
1, 137988, Note_off_c, 0, 56, 64
1, 137994, Note_off_c, 0, 59, 43
1, 138014, Note_off_c, 0, 82, 60
1, 138053, Note_on_c, 0, 94, 64
1, 138095, Note_off_c, 0, 94, 61
1, 138102, Note_on_c, 0, 95, 67
1, 138121, Control_c, 0, 64, 116
1, 138136, Control_c, 0, 64, 97
1, 138150, Control_c, 0, 64, 79
1, 138162, Note_on_c, 0, 94, 59
1, 138163, Note_off_c, 0, 95, 63
1, 138165, Control_c, 0, 64, 57
1, 138180, Control_c, 0, 64, 0
1, 138193, Note_off_c, 0, 94, 67
1, 138210, Control_c, 0, 64, 60
1, 138224, Note_on_c, 0, 47, 61
1, 138225, Control_c, 0, 64, 71
1, 138229, Note_on_c, 0, 80, 70
1, 138239, Note_on_c, 0, 35, 48
1, 138239, Control_c, 0, 64, 81
1, 138254, Control_c, 0, 64, 90
1, 138258, Note_off_c, 0, 80, 64
1, 138266, Note_off_c, 0, 47, 64
1, 138269, Control_c, 0, 64, 95
1, 138271, Note_off_c, 0, 35, 52
1, 138284, Control_c, 0, 64, 99
1, 138299, Control_c, 0, 64, 106
1, 138302, Note_on_c, 0, 92, 66
1, 138314, Control_c, 0, 64, 112
1, 138329, Control_c, 0, 64, 118
1, 138349, Note_off_c, 0, 92, 61
1, 138352, Control_c, 0, 64, 126
1, 138357, Note_on_c, 0, 94, 70
1, 138366, Control_c, 0, 64, 127
1, 138418, Note_off_c, 0, 94, 62
1, 138423, Note_on_c, 0, 92, 61
1, 138451, Note_off_c, 0, 92, 68
1, 138482, Note_on_c, 0, 79, 73
1, 138484, Note_on_c, 0, 63, 64
1, 138490, Note_on_c, 0, 51, 51
1, 138503, Note_off_c, 0, 79, 69
1, 138507, Note_on_c, 0, 59, 36
1, 138513, Note_off_c, 0, 63, 66
1, 138517, Note_off_c, 0, 51, 61
1, 138538, Note_off_c, 0, 59, 47
1, 138545, Note_on_c, 0, 91, 67
1, 138598, Note_on_c, 0, 92, 75
1, 138599, Note_off_c, 0, 91, 61
1, 138653, Note_on_c, 0, 91, 64
1, 138674, Note_off_c, 0, 92, 60
1, 138697, Note_off_c, 0, 91, 61
1, 138703, Note_on_c, 0, 63, 69
1, 138709, Note_on_c, 0, 56, 67
1, 138724, Note_on_c, 0, 80, 71
1, 138731, Note_off_c, 0, 63, 66
1, 138739, Note_off_c, 0, 56, 64
1, 138758, Note_off_c, 0, 80, 64
1, 138783, Note_on_c, 0, 92, 77
1, 138835, Note_off_c, 0, 92, 62
1, 138840, Control_c, 0, 64, 116
1, 138841, Note_on_c, 0, 94, 73
1, 138855, Control_c, 0, 64, 101
1, 138870, Control_c, 0, 64, 81
1, 138884, Control_c, 0, 64, 61
1, 138899, Control_c, 0, 64, 0
1, 138906, Note_on_c, 0, 92, 52
1, 138916, Note_off_c, 0, 94, 60
1, 138943, Note_off_c, 0, 92, 65
1, 138943, Control_c, 0, 64, 63
1, 138949, Note_on_c, 0, 82, 61
1, 138958, Control_c, 0, 64, 72
1, 138973, Control_c, 0, 64, 85
1, 138988, Control_c, 0, 64, 94
1, 139000, Note_off_c, 0, 82, 60
1, 139003, Control_c, 0, 64, 99
1, 139017, Control_c, 0, 64, 104
1, 139029, Note_on_c, 0, 94, 70
1, 139032, Control_c, 0, 64, 108
1, 139047, Control_c, 0, 64, 113
1, 139062, Control_c, 0, 64, 117
1, 139073, Note_on_c, 0, 95, 70
1, 139077, Note_off_c, 0, 94, 60
1, 139077, Control_c, 0, 64, 120
1, 139099, Control_c, 0, 64, 122
1, 139115, Control_c, 0, 64, 124
1, 139130, Control_c, 0, 64, 127
1, 139131, Note_off_c, 0, 95, 66
1, 139137, Note_on_c, 0, 94, 42
1, 139159, Note_off_c, 0, 94, 58
1, 139222, Note_on_c, 0, 55, 51
1, 139222, Note_on_c, 0, 75, 78
1, 139230, Note_on_c, 0, 63, 47
1, 139232, Note_on_c, 0, 67, 29
1, 139247, Note_off_c, 0, 55, 57
1, 139255, Note_off_c, 0, 63, 55
1, 139261, Note_off_c, 0, 75, 52
1, 139267, Note_off_c, 0, 67, 45
1, 139284, Note_on_c, 0, 87, 54
1, 139315, Note_on_c, 0, 88, 69
1, 139323, Note_off_c, 0, 87, 61
1, 139389, Note_off_c, 0, 88, 53
1, 139395, Note_on_c, 0, 87, 68
1, 139422, Note_off_c, 0, 87, 67
1, 139438, Note_on_c, 0, 67, 59
1, 139442, Note_on_c, 0, 63, 46
1, 139444, Note_on_c, 0, 58, 65
1, 139445, Note_on_c, 0, 75, 74
1, 139468, Note_off_c, 0, 67, 64
1, 139469, Note_off_c, 0, 63, 65
1, 139475, Note_off_c, 0, 58, 65
1, 139485, Note_off_c, 0, 75, 59
1, 139520, Note_on_c, 0, 87, 60
1, 139542, Note_on_c, 0, 88, 67
1, 139548, Note_off_c, 0, 87, 61
1, 139575, Control_c, 0, 64, 120
1, 139590, Control_c, 0, 64, 105
1, 139605, Control_c, 0, 64, 88
1, 139614, Note_off_c, 0, 88, 56
1, 139620, Control_c, 0, 64, 68
1, 139634, Control_c, 0, 64, 0
1, 139640, Note_on_c, 0, 87, 39
1, 139667, Note_off_c, 0, 87, 45
1, 139673, Note_on_c, 0, 76, 68
1, 139679, Control_c, 0, 64, 63
1, 139686, Note_on_c, 0, 43, 58
1, 139688, Note_on_c, 0, 55, 55
1, 139694, Control_c, 0, 64, 73
1, 139697, Note_off_c, 0, 76, 71
1, 139708, Control_c, 0, 64, 85
1, 139714, Note_off_c, 0, 43, 60
1, 139717, Note_off_c, 0, 55, 66
1, 139723, Control_c, 0, 64, 94
1, 139738, Control_c, 0, 64, 101
1, 139744, Note_on_c, 0, 88, 71
1, 139753, Control_c, 0, 64, 106
1, 139767, Control_c, 0, 64, 112
1, 139782, Control_c, 0, 64, 122
1, 139797, Control_c, 0, 64, 127
1, 139801, Note_on_c, 0, 90, 71
1, 139804, Note_off_c, 0, 88, 61
1, 139867, Note_on_c, 0, 88, 65
1, 139887, Note_off_c, 0, 90, 62
1, 139896, Note_off_c, 0, 88, 67
1, 139934, Note_on_c, 0, 75, 77
1, 139935, Note_on_c, 0, 70, 63
1, 139954, Note_on_c, 0, 63, 43
1, 139960, Note_on_c, 0, 61, 36
1, 139965, Note_off_c, 0, 70, 67
1, 139974, Note_off_c, 0, 75, 61
1, 139982, Note_off_c, 0, 63, 53
1, 139989, Note_off_c, 0, 61, 48
1, 139998, Note_on_c, 0, 87, 74
1, 140050, Note_on_c, 0, 88, 69
1, 140051, Note_off_c, 0, 87, 61
1, 140111, Note_on_c, 0, 87, 58
1, 140117, Note_off_c, 0, 88, 62
1, 140141, Note_off_c, 0, 87, 65
1, 140172, Note_on_c, 0, 73, 80
1, 140173, Note_on_c, 0, 58, 61
1, 140174, Note_on_c, 0, 70, 53
1, 140192, Note_on_c, 0, 63, 36
1, 140193, Note_off_c, 0, 70, 60
1, 140210, Note_off_c, 0, 73, 58
1, 140210, Note_off_c, 0, 58, 64
1, 140218, Note_off_c, 0, 63, 52
1, 140243, Note_on_c, 0, 85, 68
1, 140276, Note_off_c, 0, 85, 60
1, 140283, Note_on_c, 0, 87, 69
1, 140294, Control_c, 0, 64, 119
1, 140309, Control_c, 0, 64, 99
1, 140324, Control_c, 0, 64, 75
1, 140338, Control_c, 0, 64, 0
1, 140352, Note_on_c, 0, 85, 61
1, 140353, Note_off_c, 0, 87, 61
1, 140378, Note_off_c, 0, 85, 68
1, 140398, Control_c, 0, 64, 63
1, 140404, Note_on_c, 0, 44, 70
1, 140413, Control_c, 0, 64, 76
1, 140421, Note_on_c, 0, 71, 67
1, 140427, Control_c, 0, 64, 87
1, 140431, Note_off_c, 0, 44, 66
1, 140440, Note_off_c, 0, 71, 65
1, 140442, Control_c, 0, 64, 95
1, 140457, Control_c, 0, 64, 98
1, 140472, Control_c, 0, 64, 102
1, 140487, Control_c, 0, 64, 107
1, 140491, Note_on_c, 0, 83, 70
1, 140502, Control_c, 0, 64, 114
1, 140517, Control_c, 0, 64, 121
1, 140531, Control_c, 0, 64, 127
1, 140553, Note_off_c, 0, 83, 60
1, 140555, Note_on_c, 0, 85, 71
1, 140622, Note_on_c, 0, 83, 56
1, 140630, Note_off_c, 0, 85, 61
1, 140640, Note_off_c, 0, 83, 59
1, 140675, Note_on_c, 0, 68, 59
1, 140680, Note_on_c, 0, 71, 73
1, 140681, Note_on_c, 0, 63, 56
1, 140696, Note_off_c, 0, 68, 65
1, 140704, Note_off_c, 0, 63, 60
1, 140705, Note_off_c, 0, 71, 64
1, 140712, Poly_aftertouch_c, 0, 82, 127
1, 140755, Note_on_c, 0, 83, 58
1, 140795, Poly_aftertouch_c, 0, 82, 0
1, 140806, Note_on_c, 0, 85, 70
1, 140809, Note_off_c, 0, 83, 61
1, 140869, Note_on_c, 0, 83, 56
1, 140878, Note_off_c, 0, 85, 62
1, 140897, Note_off_c, 0, 83, 63
1, 140903, Note_on_c, 0, 82, 46
1, 140917, Note_on_c, 0, 59, 49
1, 140917, Note_on_c, 0, 63, 61
1, 140929, Note_off_c, 0, 82, 56
1, 140931, Note_on_c, 0, 70, 78
1, 140941, Note_off_c, 0, 63, 65
1, 140958, Note_off_c, 0, 59, 62
1, 140973, Note_off_c, 0, 70, 60
1, 140992, Note_on_c, 0, 82, 77
1, 141048, Note_off_c, 0, 82, 62
1, 141058, Note_on_c, 0, 83, 66
1, 141058, Control_c, 0, 64, 127
1, 141073, Control_c, 0, 64, 108
1, 141087, Control_c, 0, 64, 90
1, 141102, Control_c, 0, 64, 71
1, 141116, Note_on_c, 0, 82, 61
1, 141117, Control_c, 0, 64, 0
1, 141121, Note_off_c, 0, 83, 58
1, 141149, Note_off_c, 0, 82, 66
1, 141176, Control_c, 0, 64, 53
1, 141182, Note_on_c, 0, 68, 72
1, 141191, Control_c, 0, 64, 67
1, 141192, Note_on_c, 0, 40, 49
1, 141205, Control_c, 0, 64, 75
1, 141209, Note_off_c, 0, 68, 68
1, 141220, Control_c, 0, 64, 83
1, 141223, Note_off_c, 0, 40, 53
1, 141235, Control_c, 0, 64, 88
1, 141250, Control_c, 0, 64, 91
1, 141255, Note_on_c, 0, 80, 64
1, 141265, Control_c, 0, 64, 94
1, 141280, Control_c, 0, 64, 97
1, 141283, Note_on_c, 0, 82, 65
1, 141290, Note_off_c, 0, 80, 61
1, 141295, Control_c, 0, 64, 101
1, 141310, Control_c, 0, 64, 104
1, 141325, Control_c, 0, 64, 107
1, 141346, Control_c, 0, 64, 108
1, 141361, Control_c, 0, 64, 109
1, 141376, Control_c, 0, 64, 110
1, 141378, Note_on_c, 0, 80, 59
1, 141379, Note_off_c, 0, 82, 61
1, 141391, Control_c, 0, 64, 111
1, 141406, Note_off_c, 0, 80, 66
1, 141406, Control_c, 0, 64, 112
1, 141420, Control_c, 0, 64, 113
1, 141435, Note_on_c, 0, 67, 75
1, 141447, Note_on_c, 0, 59, 48
1, 141450, Control_c, 0, 64, 113
1, 141452, Note_on_c, 0, 62, 50
1, 141461, Note_off_c, 0, 67, 68
1, 141470, Note_off_c, 0, 59, 58
1, 141479, Note_off_c, 0, 62, 53
1, 141498, Note_on_c, 0, 79, 63
1, 141562, Note_on_c, 0, 80, 71
1, 141563, Note_off_c, 0, 79, 63
1, 141626, Note_on_c, 0, 79, 60
1, 141639, Note_off_c, 0, 80, 60
1, 141663, Note_off_c, 0, 79, 63
1, 141685, Note_on_c, 0, 62, 45
1, 141688, Note_on_c, 0, 68, 71
1, 141698, Note_on_c, 0, 58, 51
1, 141709, Note_off_c, 0, 62, 57
1, 141721, Note_off_c, 0, 58, 62
1, 141726, Note_off_c, 0, 68, 62
1, 141755, Note_on_c, 0, 80, 75
1, 141814, Note_off_c, 0, 80, 63
1, 141825, Note_on_c, 0, 82, 59
1, 141849, Control_c, 0, 64, 113
1, 141864, Control_c, 0, 64, 107
1, 141879, Control_c, 0, 64, 96
1, 141889, Note_on_c, 0, 80, 61
1, 141894, Control_c, 0, 64, 80
1, 141902, Note_off_c, 0, 82, 56
1, 141909, Control_c, 0, 64, 56
1, 141924, Control_c, 0, 64, 0
1, 141926, Note_off_c, 0, 80, 62
1, 141953, Note_on_c, 0, 70, 68
1, 141956, Note_on_c, 0, 39, 61
1, 141990, Note_off_c, 0, 39, 63
1, 141996, Note_off_c, 0, 70, 59
1, 141998, Control_c, 0, 64, 59
1, 142013, Control_c, 0, 64, 68
1, 142025, Note_on_c, 0, 82, 71
1, 142027, Control_c, 0, 64, 77
1, 142042, Control_c, 0, 64, 86
1, 142057, Control_c, 0, 64, 93
1, 142072, Control_c, 0, 64, 96
1, 142094, Note_on_c, 0, 83, 65
1, 142094, Note_off_c, 0, 82, 62
1, 142094, Control_c, 0, 64, 98
1, 142109, Control_c, 0, 64, 101
1, 142124, Control_c, 0, 64, 105
1, 142138, Control_c, 0, 64, 109
1, 142152, Note_on_c, 0, 82, 67
1, 142153, Control_c, 0, 64, 112
1, 142162, Note_off_c, 0, 83, 58
1, 142168, Control_c, 0, 64, 113
1, 142183, Control_c, 0, 64, 115
1, 142188, Note_off_c, 0, 82, 63
1, 142198, Control_c, 0, 64, 117
1, 142213, Control_c, 0, 64, 119
1, 142228, Control_c, 0, 64, 121
1, 142242, Control_c, 0, 64, 122
1, 142257, Control_c, 0, 64, 123
1, 142264, Note_on_c, 0, 55, 58
1, 142267, Note_on_c, 0, 58, 52
1, 142272, Control_c, 0, 64, 127
1, 142282, Note_on_c, 0, 63, 64
1, 142290, Note_off_c, 0, 58, 61
1, 142293, Note_off_c, 0, 55, 66
1, 142319, Note_off_c, 0, 63, 62
1, 142350, Note_on_c, 0, 75, 56
1, 142385, Note_off_c, 0, 75, 64
1, 142388, Note_on_c, 0, 76, 58
1, 142454, Note_off_c, 0, 76, 53
1, 142474, Note_on_c, 0, 75, 41
1, 142501, Note_off_c, 0, 75, 51
1, 142532, Note_on_c, 0, 70, 69
1, 142541, Note_on_c, 0, 67, 60
1, 142543, Note_on_c, 0, 75, 55
1, 142556, Note_off_c, 0, 70, 68
1, 142564, Note_off_c, 0, 67, 65
1, 142579, Note_off_c, 0, 75, 64
1, 142603, Note_on_c, 0, 87, 68
1, 142651, Note_on_c, 0, 88, 65
1, 142656, Note_off_c, 0, 87, 59
1, 142715, Note_on_c, 0, 87, 61
1, 142729, Note_off_c, 0, 88, 63
1, 142742, Note_off_c, 0, 87, 67
1, 142799, Note_on_c, 0, 82, 73
1, 142807, Note_on_c, 0, 87, 76
1, 142812, Note_on_c, 0, 79, 55
1, 142821, Note_off_c, 0, 82, 68
1, 142839, Note_off_c, 0, 79, 58
1, 142856, Note_off_c, 0, 87, 57
1, 142875, Note_on_c, 0, 99, 72
1, 142923, Note_on_c, 0, 100, 68
1, 142927, Note_off_c, 0, 99, 66
1, 142981, Note_on_c, 0, 99, 62
1, 143002, Note_off_c, 0, 100, 58
1, 143033, Note_off_c, 0, 99, 68
1, 143048, Note_on_c, 0, 87, 69
1, 143074, Note_off_c, 0, 87, 66
1, 143114, Note_on_c, 0, 99, 69
1, 143155, Control_c, 0, 64, 125
1, 143158, Note_on_c, 0, 100, 71
1, 143159, Note_off_c, 0, 99, 67
1, 143170, Control_c, 0, 64, 124
1, 143185, Control_c, 0, 64, 123
1, 143215, Control_c, 0, 64, 123
1, 143223, Note_off_c, 0, 100, 65
1, 143223, Note_on_c, 0, 99, 55
1, 143229, Control_c, 0, 64, 122
1, 143244, Control_c, 0, 64, 122
1, 143255, Note_off_c, 0, 99, 69
1, 143259, Control_c, 0, 64, 121
1, 143280, Note_on_c, 0, 85, 73
1, 143304, Note_off_c, 0, 85, 65
1, 143319, Control_c, 0, 64, 121
1, 143334, Control_c, 0, 64, 120
1, 143349, Control_c, 0, 64, 120
1, 143352, Note_on_c, 0, 97, 73
1, 143363, Control_c, 0, 64, 119
1, 143378, Control_c, 0, 64, 117
1, 143393, Control_c, 0, 64, 115
1, 143398, Note_on_c, 0, 99, 70
1, 143401, Note_off_c, 0, 97, 63
1, 143407, Control_c, 0, 64, 111
1, 143422, Control_c, 0, 64, 105
1, 143437, Control_c, 0, 64, 96
1, 143452, Control_c, 0, 64, 83
1, 143467, Note_on_c, 0, 97, 57
1, 143467, Control_c, 0, 64, 63
1, 143480, Note_off_c, 0, 99, 66
1, 143481, Control_c, 0, 64, 0
1, 143522, Note_off_c, 0, 97, 65
1, 143555, Control_c, 0, 64, 59
1, 143558, Note_on_c, 0, 84, 66
1, 143569, Note_on_c, 0, 44, 47
1, 143570, Control_c, 0, 64, 69
1, 143593, Control_c, 0, 64, 77
1, 143593, Note_off_c, 0, 84, 67
1, 143607, Control_c, 0, 64, 87
1, 143622, Control_c, 0, 64, 94
1, 143624, Note_off_c, 0, 44, 62
1, 143637, Control_c, 0, 64, 98
1, 143651, Note_on_c, 0, 96, 58
1, 143652, Control_c, 0, 64, 101
1, 143667, Control_c, 0, 64, 105
1, 143682, Control_c, 0, 64, 110
1, 143696, Control_c, 0, 64, 115
1, 143704, Note_off_c, 0, 96, 64
1, 143709, Note_on_c, 0, 97, 64
1, 143711, Control_c, 0, 64, 120
1, 143726, Control_c, 0, 64, 127
1, 143740, Control_c, 0, 64, 127
1, 143772, Note_on_c, 0, 96, 57
1, 143779, Note_off_c, 0, 97, 62
1, 143820, Note_off_c, 0, 96, 62
1, 143844, Note_on_c, 0, 84, 70
1, 143847, Note_on_c, 0, 66, 62
1, 143853, Note_on_c, 0, 57, 55
1, 143867, Note_off_c, 0, 84, 70
1, 143880, Note_off_c, 0, 66, 65
1, 143885, Note_off_c, 0, 57, 62
1, 143905, Note_on_c, 0, 96, 68
1, 143963, Note_off_c, 0, 96, 62
1, 143969, Note_on_c, 0, 97, 74
1, 144019, Note_on_c, 0, 96, 59
1, 144039, Note_off_c, 0, 97, 62
1, 144049, Note_off_c, 0, 96, 66
1, 144102, Note_on_c, 0, 60, 58
1, 144103, Note_on_c, 0, 81, 74
1, 144109, Note_on_c, 0, 66, 44
1, 144130, Note_off_c, 0, 66, 60
1, 144136, Note_off_c, 0, 60, 64
1, 144139, Note_off_c, 0, 81, 60
1, 144142, Note_on_c, 0, 63, 9
1, 144171, Note_on_c, 0, 93, 73
1, 144190, Note_off_c, 0, 63, 52
1, 144222, Note_on_c, 0, 95, 74
1, 144225, Note_off_c, 0, 93, 62
1, 144274, Control_c, 0, 64, 125
1, 144289, Control_c, 0, 64, 108
1, 144296, Note_on_c, 0, 93, 68
1, 144300, Note_off_c, 0, 95, 58
1, 144303, Control_c, 0, 64, 91
1, 144318, Control_c, 0, 64, 71
1, 144341, Control_c, 0, 64, 0
1, 144347, Note_off_c, 0, 93, 62
1, 144383, Note_on_c, 0, 80, 73
1, 144385, Note_on_c, 0, 48, 44
1, 144385, Control_c, 0, 64, 59
1, 144400, Control_c, 0, 64, 70
1, 144413, Note_off_c, 0, 48, 60
1, 144413, Note_off_c, 0, 80, 64
1, 144415, Control_c, 0, 64, 80
1, 144429, Control_c, 0, 64, 90
1, 144437, Note_on_c, 0, 92, 74
1, 144444, Control_c, 0, 64, 95
1, 144459, Control_c, 0, 64, 98
1, 144474, Control_c, 0, 64, 101
1, 144489, Control_c, 0, 64, 105
1, 144499, Note_off_c, 0, 92, 64
1, 144504, Control_c, 0, 64, 110
1, 144507, Note_on_c, 0, 93, 63
1, 144518, Control_c, 0, 64, 113
1, 144533, Control_c, 0, 64, 114
1, 144548, Control_c, 0, 64, 115
1, 144562, Note_on_c, 0, 92, 63
1, 144562, Control_c, 0, 64, 117
1, 144566, Note_off_c, 0, 93, 62
1, 144577, Control_c, 0, 64, 120
1, 144592, Control_c, 0, 64, 122
1, 144605, Note_off_c, 0, 92, 63
1, 144607, Control_c, 0, 64, 122
1, 144622, Note_on_c, 0, 56, 52
1, 144626, Note_on_c, 0, 80, 76
1, 144630, Note_on_c, 0, 66, 53
1, 144636, Control_c, 0, 64, 123
1, 144651, Note_off_c, 0, 66, 63
1, 144651, Control_c, 0, 64, 125
1, 144663, Note_off_c, 0, 56, 62
1, 144665, Note_off_c, 0, 80, 61
1, 144666, Control_c, 0, 64, 126
1, 144694, Note_on_c, 0, 92, 73
1, 144712, Control_c, 0, 64, 127
1, 144726, Control_c, 0, 64, 127
1, 144742, Note_off_c, 0, 92, 66
1, 144747, Note_on_c, 0, 93, 69
1, 144800, Note_off_c, 0, 93, 62
1, 144803, Note_on_c, 0, 92, 61
1, 144836, Note_off_c, 0, 92, 66
1, 144868, Note_on_c, 0, 78, 79
1, 144875, Note_on_c, 0, 66, 49
1, 144878, Note_on_c, 0, 60, 53
1, 144897, Note_off_c, 0, 66, 61
1, 144900, Note_on_c, 0, 63, 27
1, 144914, Note_off_c, 0, 78, 62
1, 144914, Note_off_c, 0, 60, 64
1, 144935, Note_off_c, 0, 63, 43
1, 144938, Note_on_c, 0, 90, 75
1, 144986, Note_on_c, 0, 92, 72
1, 144990, Note_off_c, 0, 90, 61
1, 145052, Control_c, 0, 64, 127
1, 145064, Note_on_c, 0, 90, 56
1, 145066, Note_off_c, 0, 92, 62
1, 145067, Control_c, 0, 64, 117
1, 145090, Control_c, 0, 64, 106
1, 145104, Control_c, 0, 64, 91
1, 145106, Note_off_c, 0, 90, 65
1, 145119, Control_c, 0, 64, 75
1, 145134, Control_c, 0, 64, 34
1, 145149, Control_c, 0, 64, 0
1, 145167, Note_on_c, 0, 76, 62
1, 145173, Note_on_c, 0, 49, 46
1, 145185, Note_off_c, 0, 76, 68
1, 145193, Control_c, 0, 64, 38
1, 145208, Control_c, 0, 64, 64
1, 145223, Control_c, 0, 64, 70
1, 145238, Control_c, 0, 64, 77
1, 145251, Note_on_c, 0, 88, 68
1, 145252, Control_c, 0, 64, 84
1, 145266, Note_off_c, 0, 49, 58
1, 145267, Control_c, 0, 64, 89
1, 145282, Control_c, 0, 64, 92
1, 145297, Control_c, 0, 64, 95
1, 145312, Control_c, 0, 64, 97
1, 145327, Control_c, 0, 64, 100
1, 145328, Note_off_c, 0, 88, 62
1, 145334, Note_on_c, 0, 90, 67
1, 145342, Control_c, 0, 64, 103
1, 145357, Control_c, 0, 64, 104
1, 145372, Control_c, 0, 64, 105
1, 145386, Control_c, 0, 64, 105
1, 145401, Control_c, 0, 64, 106
1, 145411, Note_on_c, 0, 88, 60
1, 145413, Note_off_c, 0, 90, 61
1, 145416, Control_c, 0, 64, 106
1, 145439, Note_off_c, 0, 88, 65
1, 145460, Control_c, 0, 64, 107
1, 145475, Control_c, 0, 64, 107
1, 145490, Control_c, 0, 64, 108
1, 145502, Note_on_c, 0, 69, 48
1, 145510, Note_on_c, 0, 64, 39
1, 145520, Note_on_c, 0, 73, 61
1, 145536, Control_c, 0, 64, 108
1, 145540, Note_off_c, 0, 73, 63
1, 145559, Note_off_c, 0, 69, 53
1, 145579, Note_on_c, 0, 85, 58
1, 145617, Note_off_c, 0, 85, 62
1, 145632, Note_on_c, 0, 87, 64
1, 145638, Note_off_c, 0, 64, 38
1, 145683, Control_c, 0, 64, 109
1, 145694, Note_on_c, 0, 85, 58
1, 145698, Control_c, 0, 64, 109
1, 145713, Control_c, 0, 64, 110
1, 145715, Note_off_c, 0, 87, 52
1, 145727, Note_off_c, 0, 85, 65
1, 145754, Note_on_c, 0, 75, 70
1, 145757, Control_c, 0, 64, 107
1, 145759, Note_on_c, 0, 69, 52
1, 145761, Note_on_c, 0, 60, 55
1, 145772, Control_c, 0, 64, 96
1, 145787, Control_c, 0, 64, 82
1, 145800, Note_off_c, 0, 75, 55
1, 145802, Control_c, 0, 64, 65
1, 145817, Note_on_c, 0, 87, 71
1, 145817, Control_c, 0, 64, 0
1, 145854, Control_c, 0, 64, 51
1, 145869, Control_c, 0, 64, 71
1, 145881, Note_off_c, 0, 87, 63
1, 145884, Control_c, 0, 64, 80
1, 145886, Note_on_c, 0, 88, 63
1, 145893, Note_off_c, 0, 60, 50
1, 145895, Note_off_c, 0, 69, 58
1, 145898, Control_c, 0, 64, 87
1, 145913, Control_c, 0, 64, 90
1, 145927, Control_c, 0, 64, 94
1, 145942, Control_c, 0, 64, 98
1, 145957, Control_c, 0, 64, 104
1, 145958, Note_on_c, 0, 87, 55
1, 145963, Note_off_c, 0, 88, 57
1, 145972, Control_c, 0, 64, 106
1, 145987, Control_c, 0, 64, 107
1, 145999, Note_off_c, 0, 87, 57
1, 146017, Control_c, 0, 64, 106
1, 146023, Note_on_c, 0, 76, 70
1, 146032, Control_c, 0, 64, 104
1, 146043, Note_on_c, 0, 69, 45
1, 146044, Note_off_c, 0, 76, 72
1, 146045, Note_on_c, 0, 61, 52
1, 146046, Control_c, 0, 64, 95
1, 146061, Control_c, 0, 64, 78
1, 146076, Control_c, 0, 64, 62
1, 146091, Control_c, 0, 64, 0
1, 146100, Note_on_c, 0, 88, 65
1, 146106, Control_c, 0, 64, 57
1, 146121, Control_c, 0, 64, 69
1, 146122, Note_off_c, 0, 69, 45
1, 146135, Control_c, 0, 64, 79
1, 146150, Control_c, 0, 64, 90
1, 146165, Control_c, 0, 64, 93
1, 146178, Note_off_c, 0, 88, 63
1, 146180, Control_c, 0, 64, 96
1, 146188, Note_on_c, 0, 90, 62
1, 146195, Control_c, 0, 64, 100
1, 146209, Control_c, 0, 64, 104
1, 146224, Control_c, 0, 64, 109
1, 146239, Control_c, 0, 64, 114
1, 146249, Note_on_c, 0, 88, 64
1, 146250, Note_off_c, 0, 90, 59
1, 146254, Control_c, 0, 64, 115
1, 146255, Note_off_c, 0, 61, 36
1, 146286, Note_off_c, 0, 88, 63
1, 146299, Control_c, 0, 64, 113
1, 146314, Control_c, 0, 64, 102
1, 146329, Control_c, 0, 64, 87
1, 146340, Note_on_c, 0, 75, 72
1, 146344, Control_c, 0, 64, 65
1, 146358, Control_c, 0, 64, 0
1, 146359, Note_on_c, 0, 66, 51
1, 146378, Note_off_c, 0, 75, 62
1, 146387, Note_on_c, 0, 69, 37
1, 146388, Control_c, 0, 64, 50
1, 146403, Control_c, 0, 64, 71
1, 146418, Control_c, 0, 64, 82
1, 146420, Note_on_c, 0, 87, 62
1, 146432, Control_c, 0, 64, 93
1, 146447, Control_c, 0, 64, 95
1, 146453, Note_off_c, 0, 87, 63
1, 146460, Note_off_c, 0, 66, 56
1, 146461, Note_on_c, 0, 88, 68
1, 146462, Control_c, 0, 64, 98
1, 146477, Control_c, 0, 64, 103
1, 146479, Note_off_c, 0, 69, 56
1, 146492, Control_c, 0, 64, 110
1, 146506, Control_c, 0, 64, 122
1, 146521, Control_c, 0, 64, 127
1, 146529, Note_off_c, 0, 88, 59
1, 146541, Note_on_c, 0, 87, 69
1, 146568, Note_off_c, 0, 87, 66
1, 146588, Control_c, 0, 64, 117
1, 146603, Control_c, 0, 64, 101
1, 146618, Control_c, 0, 64, 83
1, 146624, Note_on_c, 0, 73, 73
1, 146630, Note_on_c, 0, 69, 47
1, 146632, Control_c, 0, 64, 58
1, 146638, Note_on_c, 0, 64, 47
1, 146647, Control_c, 0, 64, 0
1, 146657, Note_off_c, 0, 73, 61
1, 146672, Note_off_c, 0, 64, 56
1, 146677, Control_c, 0, 64, 59
1, 146692, Control_c, 0, 64, 73
1, 146697, Note_on_c, 0, 85, 60
1, 146698, Note_off_c, 0, 69, 40
1, 146706, Control_c, 0, 64, 84
1, 146721, Control_c, 0, 64, 92
1, 146736, Control_c, 0, 64, 93
1, 146744, Note_off_c, 0, 85, 62
1, 146750, Note_on_c, 0, 87, 63
1, 146750, Control_c, 0, 64, 95
1, 146765, Control_c, 0, 64, 98
1, 146780, Control_c, 0, 64, 102
1, 146795, Control_c, 0, 64, 106
1, 146810, Control_c, 0, 64, 108
1, 146822, Note_on_c, 0, 85, 54
1, 146824, Control_c, 0, 64, 110
1, 146831, Note_off_c, 0, 87, 60
1, 146839, Control_c, 0, 64, 112
1, 146854, Control_c, 0, 64, 115
1, 146869, Control_c, 0, 64, 115
1, 146874, Note_on_c, 0, 63, 38
1, 146899, Control_c, 0, 64, 115
1, 146902, Note_on_c, 0, 68, 38
1, 146905, Note_off_c, 0, 85, 54
1, 146914, Control_c, 0, 64, 113
1, 146924, Note_on_c, 0, 75, 62
1, 146929, Control_c, 0, 64, 104
1, 146944, Control_c, 0, 64, 88
1, 146951, Note_on_c, 0, 71, 45
1, 146958, Control_c, 0, 64, 69
1, 146973, Control_c, 0, 64, 0
1, 146984, Note_off_c, 0, 75, 57
1, 147003, Note_on_c, 0, 87, 53
1, 147018, Control_c, 0, 64, 60
1, 147032, Control_c, 0, 64, 71
1, 147047, Control_c, 0, 64, 80
1, 147051, Note_off_c, 0, 87, 58
1, 147062, Control_c, 0, 64, 86
1, 147077, Control_c, 0, 64, 88
1, 147092, Note_on_c, 0, 75, 66
1, 147092, Control_c, 0, 64, 91
1, 147108, Control_c, 0, 64, 94
1, 147122, Control_c, 0, 64, 98
1, 147137, Control_c, 0, 64, 99
1, 147140, Note_off_c, 0, 75, 62
1, 147152, Control_c, 0, 64, 100
1, 147155, Note_off_c, 0, 68, 50
1, 147158, Note_off_c, 0, 71, 37
1, 147167, Control_c, 0, 64, 101
1, 147176, Note_off_c, 0, 63, 49
1, 147181, Control_c, 0, 64, 101
1, 147185, Note_on_c, 0, 76, 51
1, 147221, Note_off_c, 0, 76, 62
1, 147227, Note_on_c, 0, 77, 69
1, 147266, Note_off_c, 0, 77, 58
1, 147278, Note_on_c, 0, 78, 62
1, 147326, Note_off_c, 0, 78, 62
1, 147358, Note_on_c, 0, 79, 62
1, 147375, Note_off_c, 0, 79, 64
1, 147406, Note_on_c, 0, 80, 66
1, 147432, Note_off_c, 0, 80, 66
1, 147460, Note_on_c, 0, 81, 76
1, 147483, Note_off_c, 0, 81, 69
1, 147513, Note_on_c, 0, 82, 70
1, 147532, Note_off_c, 0, 82, 67
1, 147558, Control_c, 0, 64, 101
1, 147562, Note_on_c, 0, 83, 75
1, 147588, Control_c, 0, 64, 100
1, 147599, Note_off_c, 0, 83, 58
1, 147602, Control_c, 0, 64, 100
1, 147610, Note_on_c, 0, 84, 67
1, 147617, Control_c, 0, 64, 98
1, 147632, Control_c, 0, 64, 97
1, 147647, Control_c, 0, 64, 95
1, 147650, Note_on_c, 0, 85, 70
1, 147650, Note_off_c, 0, 84, 61
1, 147662, Control_c, 0, 64, 93
1, 147677, Control_c, 0, 64, 91
1, 147683, Note_off_c, 0, 85, 64
1, 147692, Control_c, 0, 64, 89
1, 147706, Control_c, 0, 64, 88
1, 147716, Note_on_c, 0, 86, 65
1, 147721, Control_c, 0, 64, 86
1, 147734, Note_off_c, 0, 86, 65
1, 147736, Control_c, 0, 64, 84
1, 147751, Control_c, 0, 64, 82
1, 147765, Note_on_c, 0, 87, 64
1, 147766, Control_c, 0, 64, 79
1, 147780, Note_off_c, 0, 87, 63
1, 147780, Control_c, 0, 64, 76
1, 147795, Control_c, 0, 64, 73
1, 147810, Control_c, 0, 64, 69
1, 147820, Note_on_c, 0, 88, 63
1, 147825, Control_c, 0, 64, 65
1, 147840, Control_c, 0, 64, 62
1, 147847, Note_off_c, 0, 88, 52
1, 147854, Control_c, 0, 64, 61
1, 147865, Note_on_c, 0, 89, 69
1, 147884, Control_c, 0, 64, 61
1, 147900, Control_c, 0, 64, 59
1, 147915, Control_c, 0, 64, 57
1, 147918, Note_off_c, 0, 89, 63
1, 147920, Note_on_c, 0, 90, 69
1, 147930, Control_c, 0, 64, 54
1, 147944, Control_c, 0, 64, 53
1, 147946, Note_off_c, 0, 90, 67
1, 147974, Control_c, 0, 64, 52
1, 147975, Note_on_c, 0, 91, 66
1, 147989, Control_c, 0, 64, 52
1, 147991, Note_off_c, 0, 91, 63
1, 148003, Control_c, 0, 64, 51
1, 148018, Control_c, 0, 64, 50
1, 148032, Note_on_c, 0, 92, 68
1, 148033, Control_c, 0, 64, 49
1, 148053, Note_off_c, 0, 92, 64
1, 148063, Control_c, 0, 64, 47
1, 148085, Note_on_c, 0, 93, 77
1, 148085, Control_c, 0, 64, 46
1, 148100, Control_c, 0, 64, 44
1, 148108, Note_off_c, 0, 93, 69
1, 148130, Control_c, 0, 64, 45
1, 148159, Control_c, 0, 64, 44
1, 148162, Note_on_c, 0, 94, 26
1, 148163, Note_off_c, 0, 94, 127
1, 148174, Control_c, 0, 64, 41
1, 148189, Control_c, 0, 64, 36
1, 148203, Note_on_c, 0, 93, 72
1, 148203, Control_c, 0, 64, 21
1, 148217, Note_off_c, 0, 93, 64
1, 148218, Control_c, 0, 64, 0
1, 148266, Note_on_c, 0, 95, 57
1, 148284, Note_off_c, 0, 95, 64
1, 148344, Note_on_c, 0, 96, 65
1, 148357, Note_on_c, 0, 51, 57
1, 148360, Note_off_c, 0, 96, 62
1, 148366, Control_c, 0, 64, 47
1, 148381, Control_c, 0, 64, 61
1, 148389, Note_on_c, 0, 99, 68
1, 148396, Control_c, 0, 64, 65
1, 148398, Note_off_c, 0, 51, 65
1, 148410, Control_c, 0, 64, 67
1, 148425, Control_c, 0, 64, 72
1, 148426, Note_on_c, 0, 100, 63
1, 148427, Note_on_c, 0, 61, 60
1, 148440, Control_c, 0, 64, 77
1, 148455, Control_c, 0, 64, 83
1, 148466, Note_off_c, 0, 99, 58
1, 148470, Control_c, 0, 64, 85
1, 148484, Note_off_c, 0, 100, 65
1, 148485, Note_on_c, 0, 67, 72
1, 148485, Control_c, 0, 64, 87
1, 148485, Note_on_c, 0, 102, 81
1, 148500, Control_c, 0, 64, 90
1, 148509, Note_off_c, 0, 67, 68
1, 148509, Note_off_c, 0, 61, 60
1, 148515, Control_c, 0, 64, 94
1, 148529, Control_c, 0, 64, 98
1, 148544, Control_c, 0, 64, 101
1, 148551, Note_on_c, 0, 100, 48
1, 148559, Control_c, 0, 64, 104
1, 148574, Control_c, 0, 64, 106
1, 148589, Control_c, 0, 64, 109
1, 148595, Note_off_c, 0, 102, 62
1, 148603, Control_c, 0, 64, 111
1, 148604, Note_on_c, 0, 97, 72
1, 148618, Control_c, 0, 64, 113
1, 148621, Note_on_c, 0, 94, 72
1, 148621, Note_off_c, 0, 100, 65
1, 148633, Control_c, 0, 64, 115
1, 148648, Control_c, 0, 64, 117
1, 148663, Control_c, 0, 64, 118
1, 148667, Note_off_c, 0, 97, 61
1, 148677, Control_c, 0, 64, 119
1, 148682, Note_off_c, 0, 94, 63
1, 148693, Control_c, 0, 64, 119
1, 148698, Note_on_c, 0, 91, 69
1, 148725, Note_off_c, 0, 91, 63
1, 148776, Note_on_c, 0, 86, 66
1, 148808, Note_off_c, 0, 86, 61
1, 148834, Note_on_c, 0, 87, 71
1, 148873, Note_off_c, 0, 87, 61
1, 148881, Note_on_c, 0, 90, 72
1, 148944, Note_on_c, 0, 88, 60
1, 148971, Note_off_c, 0, 90, 59
1, 148981, Note_on_c, 0, 85, 76
1, 149012, Control_c, 0, 64, 119
1, 149015, Note_off_c, 0, 88, 61
1, 149019, Note_on_c, 0, 82, 63
1, 149026, Control_c, 0, 64, 118
1, 149041, Control_c, 0, 64, 117
1, 149057, Control_c, 0, 64, 116
1, 149062, Note_off_c, 0, 85, 64
1, 149072, Control_c, 0, 64, 116
1, 149076, Note_off_c, 0, 82, 63
1, 149079, Note_on_c, 0, 79, 70
1, 149087, Control_c, 0, 64, 114
1, 149101, Control_c, 0, 64, 112
1, 149115, Note_off_c, 0, 79, 61
1, 149116, Control_c, 0, 64, 109
1, 149131, Control_c, 0, 64, 106
1, 149146, Control_c, 0, 64, 102
1, 149152, Note_on_c, 0, 76, 76
1, 149160, Control_c, 0, 64, 99
1, 149175, Control_c, 0, 64, 95
1, 149190, Control_c, 0, 64, 90
1, 149199, Note_on_c, 0, 73, 70
1, 149205, Control_c, 0, 64, 85
1, 149220, Control_c, 0, 64, 78
1, 149234, Control_c, 0, 64, 71
1, 149237, Note_off_c, 0, 76, 65
1, 149240, Note_on_c, 0, 70, 72
1, 149249, Control_c, 0, 64, 62
1, 149264, Control_c, 0, 64, 23
1, 149279, Control_c, 0, 64, 0
1, 149281, Note_off_c, 0, 73, 60
1, 149294, Note_off_c, 0, 70, 60
1, 149303, Note_on_c, 0, 67, 67
1, 149331, Note_off_c, 0, 67, 66
1, 149373, Note_on_c, 0, 64, 70
1, 149425, Note_on_c, 0, 61, 65
1, 149439, Note_off_c, 0, 64, 61
1, 149462, Note_on_c, 0, 58, 74
1, 149488, Note_off_c, 0, 61, 60
1, 149501, Note_on_c, 0, 44, 52
1, 149502, Note_off_c, 0, 58, 63
1, 149555, Note_on_c, 0, 51, 61
1, 149576, Note_off_c, 0, 44, 61
1, 149600, Note_off_c, 0, 51, 63
1, 149603, Note_on_c, 0, 56, 50
1, 149627, Note_off_c, 0, 56, 37
1, 149646, Note_on_c, 0, 59, 67
1, 149680, Note_on_c, 0, 63, 63
1, 149695, Note_off_c, 0, 59, 61
1, 149722, Note_on_c, 0, 68, 61
1, 149723, Note_off_c, 0, 63, 65
1, 149753, Note_off_c, 0, 68, 66
1, 149799, Note_on_c, 0, 71, 52
1, 149840, Note_off_c, 0, 71, 49
1, 149892, Note_on_c, 0, 75, 34
1, 149910, Note_on_c, 0, 80, 68
1, 149935, Note_off_c, 0, 75, 52
1, 149935, Note_off_c, 0, 80, 68
1, 149961, Note_on_c, 0, 83, 46
1, 149987, Note_on_c, 0, 87, 63
1, 149998, Note_off_c, 0, 83, 51
1, 150026, Note_on_c, 0, 95, 73
1, 150068, Note_on_c, 0, 92, 70
1, 150080, Note_off_c, 0, 87, 61
1, 150088, Note_off_c, 0, 95, 64
1, 150099, Note_off_c, 0, 92, 62
1, 150523, Note_on_c, 0, 83, 59
1, 150524, Note_on_c, 0, 68, 61
1, 150532, Note_on_c, 0, 71, 46
1, 150541, Note_off_c, 0, 83, 60
1, 150556, Note_off_c, 0, 71, 49
1, 150563, Note_off_c, 0, 68, 62
1, 150659, Note_on_c, 0, 71, 60
1, 150660, Note_on_c, 0, 67, 63
1, 150663, Note_on_c, 0, 70, 62
1, 150664, Note_on_c, 0, 83, 57
1, 150682, Note_off_c, 0, 70, 65
1, 150688, Note_off_c, 0, 83, 60
1, 150689, Note_off_c, 0, 71, 64
1, 150691, Note_off_c, 0, 67, 64
1, 150762, Note_on_c, 0, 69, 73
1, 150775, Note_on_c, 0, 83, 68
1, 150777, Note_on_c, 0, 66, 65
1, 150778, Note_on_c, 0, 71, 71
1, 150786, Note_off_c, 0, 69, 70
1, 150801, Note_off_c, 0, 83, 66
1, 150801, Note_off_c, 0, 71, 67
1, 150802, Note_off_c, 0, 66, 68
1, 150875, Note_on_c, 0, 68, 71
1, 150880, Note_on_c, 0, 71, 82
1, 150881, Note_on_c, 0, 65, 60
1, 150882, Note_on_c, 0, 83, 81
1, 150904, Note_off_c, 0, 68, 68
1, 150906, Note_off_c, 0, 65, 61
1, 150907, Note_off_c, 0, 71, 60
1, 150913, Note_off_c, 0, 83, 53
1, 150979, Note_on_c, 0, 64, 70
1, 150983, Note_on_c, 0, 83, 84
1, 150986, Note_on_c, 0, 67, 65
1, 150986, Note_on_c, 0, 71, 77
1, 151004, Note_off_c, 0, 67, 64
1, 151005, Note_off_c, 0, 64, 68
1, 151008, Note_off_c, 0, 71, 68
1, 151013, Note_off_c, 0, 83, 50
1, 151105, Note_on_c, 0, 83, 86
1, 151110, Note_on_c, 0, 47, 81
1, 151128, Note_off_c, 0, 83, 63
1, 151135, Note_off_c, 0, 47, 67
1, 151224, Note_on_c, 0, 66, 68
1, 151229, Note_on_c, 0, 63, 53
1, 151240, Note_off_c, 0, 66, 65
1, 151251, Note_off_c, 0, 63, 60
1, 151311, Note_on_c, 0, 71, 69
1, 151314, Note_on_c, 0, 78, 73
1, 151320, Note_on_c, 0, 59, 47
1, 151337, Note_on_c, 0, 54, 43
1, 151339, Note_off_c, 0, 71, 64
1, 151344, Note_off_c, 0, 59, 60
1, 151365, Note_off_c, 0, 54, 54
1, 151367, Note_off_c, 0, 78, 60
1, 151406, Note_on_c, 0, 63, 63
1, 151408, Note_on_c, 0, 66, 73
1, 151431, Note_off_c, 0, 66, 69
1, 151434, Note_off_c, 0, 63, 67
1, 151513, Note_on_c, 0, 83, 82
1, 151519, Note_on_c, 0, 47, 63
1, 151531, Note_off_c, 0, 83, 70
1, 151543, Note_off_c, 0, 47, 60
1, 151609, Note_on_c, 0, 66, 77
1, 151612, Note_on_c, 0, 63, 74
1, 151631, Note_off_c, 0, 66, 72
1, 151637, Note_off_c, 0, 63, 69
1, 151707, Note_on_c, 0, 42, 85
1, 151707, Note_on_c, 0, 85, 87
1, 151731, Note_off_c, 0, 42, 67
1, 151736, Note_off_c, 0, 85, 67
1, 151821, Note_on_c, 0, 66, 78
1, 151831, Note_on_c, 0, 64, 61
1, 151844, Note_off_c, 0, 66, 71
1, 151849, Note_off_c, 0, 64, 63
1, 151919, Note_on_c, 0, 78, 74
1, 151925, Note_on_c, 0, 73, 63
1, 151932, Note_on_c, 0, 54, 42
1, 151937, Note_on_c, 0, 58, 37
1, 151952, Note_off_c, 0, 73, 65
1, 151962, Note_off_c, 0, 54, 45
1, 151966, Note_off_c, 0, 58, 49
1, 151973, Note_off_c, 0, 78, 61
1, 152001, Note_on_c, 0, 64, 60
1, 152011, Note_on_c, 0, 66, 73
1, 152020, Note_off_c, 0, 64, 63
1, 152035, Note_off_c, 0, 66, 69
1, 152104, Note_on_c, 0, 42, 76
1, 152112, Note_on_c, 0, 85, 80
1, 152131, Note_off_c, 0, 85, 71
1, 152133, Note_off_c, 0, 42, 65
1, 152216, Note_on_c, 0, 66, 70
1, 152219, Note_on_c, 0, 64, 58
1, 152233, Note_off_c, 0, 66, 69
1, 152240, Note_off_c, 0, 64, 40
1, 152318, Note_on_c, 0, 87, 85
1, 152327, Note_on_c, 0, 47, 55
1, 152339, Note_off_c, 0, 87, 70
1, 152354, Note_off_c, 0, 47, 60
1, 152357, Note_on_c, 0, 45, 17
1, 152404, Note_off_c, 0, 45, 31
1, 152420, Note_on_c, 0, 66, 80
1, 152427, Note_on_c, 0, 63, 62
1, 152441, Note_off_c, 0, 66, 71
1, 152455, Note_off_c, 0, 63, 66
1, 152518, Note_on_c, 0, 54, 59
1, 152535, Note_on_c, 0, 74, 47
1, 152544, Note_off_c, 0, 54, 65
1, 152557, Note_off_c, 0, 74, 40
1, 152639, Note_on_c, 0, 83, 58
1, 152640, Note_on_c, 0, 47, 54
1, 152667, Note_off_c, 0, 83, 64
1, 152668, Note_off_c, 0, 47, 64
1, 152744, Note_on_c, 0, 87, 79
1, 152747, Note_on_c, 0, 42, 59
1, 152773, Note_off_c, 0, 87, 65
1, 152783, Note_off_c, 0, 42, 64
1, 152879, Note_on_c, 0, 35, 70
1, 152885, Note_on_c, 0, 95, 84
1, 152905, Note_off_c, 0, 35, 65
1, 152909, Note_off_c, 0, 95, 67
1, 153129, Note_on_c, 0, 87, 71
1, 153135, Note_on_c, 0, 75, 62
1, 153137, Note_on_c, 0, 71, 65
1, 153159, Note_off_c, 0, 75, 67
1, 153161, Note_off_c, 0, 87, 60
1, 153174, Note_off_c, 0, 71, 57
1, 153238, Note_on_c, 0, 75, 75
1, 153248, Note_on_c, 0, 87, 71
1, 153261, Note_off_c, 0, 75, 69
1, 153268, Note_on_c, 0, 70, 43
1, 153271, Note_on_c, 0, 74, 31
1, 153271, Note_off_c, 0, 87, 69
1, 153298, Note_off_c, 0, 74, 46
1, 153308, Note_off_c, 0, 70, 54
1, 153341, Note_on_c, 0, 75, 81
1, 153347, Note_on_c, 0, 87, 71
1, 153364, Note_off_c, 0, 75, 70
1, 153370, Note_off_c, 0, 87, 68
1, 153426, Note_on_c, 0, 71, 34
1, 153437, Note_on_c, 0, 75, 75
1, 153437, Note_on_c, 0, 87, 83
1, 153458, Note_off_c, 0, 75, 71
1, 153462, Note_off_c, 0, 71, 50
1, 153465, Note_off_c, 0, 87, 57
1, 153536, Note_on_c, 0, 87, 77
1, 153568, Note_off_c, 0, 87, 62
1, 153624, Note_on_c, 0, 87, 85
1, 153629, Note_on_c, 0, 51, 81
1, 153651, Note_off_c, 0, 51, 67
1, 153667, Note_off_c, 0, 87, 63
1, 153731, Note_on_c, 0, 70, 75
1, 153743, Note_on_c, 0, 66, 68
1, 153752, Note_off_c, 0, 70, 69
1, 153770, Note_off_c, 0, 66, 66
1, 153828, Note_on_c, 0, 75, 67
1, 153831, Note_on_c, 0, 82, 71
1, 153832, Note_on_c, 0, 58, 62
1, 153845, Note_on_c, 0, 63, 33
1, 153855, Note_off_c, 0, 75, 68
1, 153863, Note_off_c, 0, 58, 65
1, 153868, Note_off_c, 0, 63, 37
1, 153880, Note_off_c, 0, 82, 62
1, 153913, Note_on_c, 0, 70, 82
1, 153930, Note_on_c, 0, 66, 58
1, 153934, Note_off_c, 0, 70, 70
1, 153949, Note_off_c, 0, 66, 63
1, 154014, Note_on_c, 0, 51, 79
1, 154023, Note_on_c, 0, 87, 82
1, 154038, Note_off_c, 0, 51, 68
1, 154044, Note_off_c, 0, 87, 69
1, 154116, Note_on_c, 0, 70, 82
1, 154125, Note_on_c, 0, 66, 66
1, 154137, Note_off_c, 0, 70, 70
1, 154143, Note_off_c, 0, 66, 68
1, 154219, Note_on_c, 0, 89, 92
1, 154223, Note_on_c, 0, 46, 77
1, 154235, Note_off_c, 0, 89, 76
1, 154251, Note_off_c, 0, 46, 65
1, 154326, Note_on_c, 0, 68, 77
1, 154327, Note_on_c, 0, 70, 81
1, 154348, Note_off_c, 0, 70, 71
1, 154357, Note_off_c, 0, 68, 64
1, 154419, Note_on_c, 0, 82, 72
1, 154425, Note_on_c, 0, 77, 61
1, 154453, Note_on_c, 0, 58, 36
1, 154467, Note_off_c, 0, 77, 59
1, 154481, Note_off_c, 0, 58, 52
1, 154484, Note_off_c, 0, 82, 63
1, 154494, Note_on_c, 0, 70, 77
1, 154516, Note_off_c, 0, 70, 68
1, 154517, Note_on_c, 0, 68, 53
1, 154542, Note_off_c, 0, 68, 37
1, 154602, Note_on_c, 0, 46, 87
1, 154602, Note_on_c, 0, 89, 87
1, 154618, Note_off_c, 0, 89, 75
1, 154628, Note_off_c, 0, 46, 66
1, 154701, Note_on_c, 0, 70, 84
1, 154709, Note_on_c, 0, 68, 80
1, 154721, Note_off_c, 0, 70, 71
1, 154732, Note_off_c, 0, 68, 69
1, 154816, Note_on_c, 0, 51, 83
1, 154816, Note_on_c, 0, 90, 96
1, 154836, Note_off_c, 0, 90, 67
1, 154843, Note_off_c, 0, 51, 64
1, 154915, Note_on_c, 0, 70, 81
1, 154928, Note_on_c, 0, 66, 66
1, 154939, Note_off_c, 0, 70, 64
1, 154955, Note_off_c, 0, 66, 68
1, 155007, Note_on_c, 0, 78, 62
1, 155030, Note_on_c, 0, 58, 51
1, 155046, Note_off_c, 0, 78, 65
1, 155052, Note_off_c, 0, 58, 58
1, 155111, Note_on_c, 0, 82, 83
1, 155125, Note_on_c, 0, 54, 61
1, 155144, Note_off_c, 0, 82, 66
1, 155147, Note_off_c, 0, 54, 61
1, 155228, Note_on_c, 0, 87, 76
1, 155250, Note_on_c, 0, 46, 55
1, 155259, Note_off_c, 0, 87, 65
1, 155275, Note_off_c, 0, 46, 57
1, 155359, Note_on_c, 0, 99, 101
1, 155368, Note_on_c, 0, 39, 73
1, 155387, Note_off_c, 0, 99, 64
1, 155389, Note_off_c, 0, 39, 63
1, 155622, Note_on_c, 0, 78, 69
1, 155624, Note_on_c, 0, 90, 69
1, 155627, Note_on_c, 0, 75, 67
1, 155649, Note_off_c, 0, 78, 66
1, 155662, Note_off_c, 0, 90, 59
1, 155671, Note_off_c, 0, 75, 65
1, 155737, Note_on_c, 0, 78, 81
1, 155742, Note_on_c, 0, 90, 72
1, 155750, Note_on_c, 0, 77, 72
1, 155757, Note_on_c, 0, 74, 61
1, 155761, Note_off_c, 0, 78, 65
1, 155776, Note_off_c, 0, 90, 63
1, 155776, Note_off_c, 0, 77, 64
1, 155785, Note_off_c, 0, 74, 65
1, 155842, Note_on_c, 0, 90, 76
1, 155844, Note_on_c, 0, 78, 84
1, 155851, Note_on_c, 0, 76, 66
1, 155856, Note_on_c, 0, 73, 69
1, 155867, Note_off_c, 0, 76, 66
1, 155869, Note_off_c, 0, 78, 63
1, 155880, Note_off_c, 0, 73, 68
1, 155889, Note_off_c, 0, 90, 62
1, 155947, Note_on_c, 0, 90, 78
1, 155949, Note_on_c, 0, 78, 89
1, 155953, Note_on_c, 0, 75, 74
1, 155964, Note_on_c, 0, 72, 65
1, 155977, Note_off_c, 0, 75, 70
1, 155980, Note_off_c, 0, 72, 66
1, 155983, Note_off_c, 0, 78, 63
1, 155994, Note_off_c, 0, 90, 64
1, 156040, Note_on_c, 0, 71, 73
1, 156047, Note_on_c, 0, 90, 78
1, 156054, Note_on_c, 0, 78, 77
1, 156062, Note_off_c, 0, 71, 67
1, 156075, Note_off_c, 0, 78, 71
1, 156098, Note_off_c, 0, 90, 63
1, 156146, Note_on_c, 0, 90, 81
1, 156166, Note_on_c, 0, 54, 56
1, 156188, Note_off_c, 0, 90, 64
1, 156189, Note_off_c, 0, 54, 57
1, 156256, Note_on_c, 0, 73, 75
1, 156257, Note_on_c, 0, 70, 67
1, 156279, Note_off_c, 0, 73, 69
1, 156283, Note_off_c, 0, 70, 65
1, 156360, Note_on_c, 0, 61, 57
1, 156361, Note_on_c, 0, 78, 73
1, 156363, Note_on_c, 0, 85, 72
1, 156364, Note_on_c, 0, 66, 48
1, 156381, Note_off_c, 0, 61, 59
1, 156385, Note_off_c, 0, 78, 67
1, 156389, Note_off_c, 0, 66, 36
1, 156417, Note_off_c, 0, 85, 62
1, 156451, Note_on_c, 0, 73, 77
1, 156453, Note_on_c, 0, 70, 67
1, 156472, Note_off_c, 0, 73, 69
1, 156480, Note_off_c, 0, 70, 66
1, 156543, Note_on_c, 0, 54, 78
1, 156551, Note_on_c, 0, 90, 87
1, 156570, Note_off_c, 0, 54, 64
1, 156576, Note_off_c, 0, 90, 65
1, 156648, Note_on_c, 0, 73, 78
1, 156649, Note_on_c, 0, 70, 66
1, 156665, Note_off_c, 0, 70, 66
1, 156669, Note_off_c, 0, 73, 70
1, 156742, Note_on_c, 0, 49, 88
1, 156749, Note_on_c, 0, 92, 95
1, 156764, Note_off_c, 0, 49, 68
1, 156769, Note_off_c, 0, 92, 63
1, 156857, Note_on_c, 0, 73, 80
1, 156861, Note_on_c, 0, 71, 65
1, 156885, Note_off_c, 0, 73, 62
1, 156887, Note_off_c, 0, 71, 63
1, 156951, Note_on_c, 0, 80, 68
1, 156951, Note_on_c, 0, 85, 74
1, 156963, Note_on_c, 0, 61, 51
1, 156977, Note_off_c, 0, 80, 68
1, 156989, Note_off_c, 0, 61, 59
1, 157007, Note_off_c, 0, 85, 65
1, 157048, Note_on_c, 0, 73, 70
1, 157052, Note_on_c, 0, 71, 55
1, 157080, Note_off_c, 0, 71, 57
1, 157081, Note_off_c, 0, 73, 65
1, 157156, Note_on_c, 0, 92, 81
1, 157162, Note_on_c, 0, 49, 76
1, 157177, Note_off_c, 0, 92, 70
1, 157180, Note_off_c, 0, 49, 65
1, 157261, Note_on_c, 0, 73, 70
1, 157276, Note_off_c, 0, 73, 65
1, 157287, Note_on_c, 0, 71, 40
1, 157315, Note_off_c, 0, 71, 37
1, 157386, Note_on_c, 0, 54, 72
1, 157394, Note_on_c, 0, 85, 80
1, 157395, Note_on_c, 0, 94, 80
1, 157406, Note_off_c, 0, 54, 65
1, 157413, Note_off_c, 0, 85, 72
1, 157418, Note_off_c, 0, 94, 64
1, 157502, Note_on_c, 0, 96, 75
1, 157513, Note_on_c, 0, 85, 58
1, 157525, Note_off_c, 0, 96, 68
1, 157532, Note_off_c, 0, 85, 60
1, 157597, Note_on_c, 0, 61, 65
1, 157603, Note_on_c, 0, 97, 79
1, 157609, Note_on_c, 0, 94, 75
1, 157610, Note_on_c, 0, 85, 55
1, 157630, Note_off_c, 0, 61, 62
1, 157630, Note_off_c, 0, 97, 59
1, 157630, Note_off_c, 0, 85, 62
1, 157632, Note_off_c, 0, 94, 69
1, 157708, Note_on_c, 0, 85, 70
1, 157711, Note_on_c, 0, 70, 66
1, 157720, Note_on_c, 0, 96, 63
1, 157729, Note_on_c, 0, 92, 45
1, 157731, Note_off_c, 0, 85, 70
1, 157738, Note_off_c, 0, 96, 60
1, 157746, Note_off_c, 0, 70, 61
1, 157755, Note_off_c, 0, 92, 36
1, 157814, Note_on_c, 0, 78, 70
1, 157825, Note_on_c, 0, 94, 74
1, 157830, Note_on_c, 0, 90, 69
1, 157834, Note_on_c, 0, 85, 51
1, 157842, Note_off_c, 0, 78, 59
1, 157854, Note_off_c, 0, 90, 68
1, 157854, Note_off_c, 0, 94, 63
1, 157856, Note_off_c, 0, 85, 55
1, 157907, Note_on_c, 0, 82, 61
1, 157908, Note_off_c, 0, 82, 127
1, 157926, Note_on_c, 0, 92, 88
1, 157942, Note_on_c, 0, 87, 64
1, 157949, Note_on_c, 0, 83, 48
1, 157969, Note_off_c, 0, 87, 67
1, 157973, Note_off_c, 0, 83, 38
1, 157979, Note_off_c, 0, 92, 64
1, 158043, Note_on_c, 0, 94, 83
1, 158045, Note_on_c, 0, 85, 79
1, 158052, Note_on_c, 0, 47, 71
1, 158052, Note_on_c, 0, 87, 67
1, 158059, Note_off_c, 0, 85, 71
1, 158069, Note_off_c, 0, 87, 66
1, 158078, Note_off_c, 0, 47, 66
1, 158080, Note_off_c, 0, 94, 59
1, 158160, Note_on_c, 0, 95, 72
1, 158182, Note_on_c, 0, 87, 26
1, 158185, Note_off_c, 0, 95, 69
1, 158194, Note_off_c, 0, 87, 38
1, 158259, Note_on_c, 0, 59, 27
1, 158260, Note_on_c, 0, 95, 79
1, 158296, Note_off_c, 0, 95, 62
1, 158298, Note_off_c, 0, 59, 42
1, 158349, Note_on_c, 0, 68, 49
1, 158369, Note_on_c, 0, 95, 74
1, 158374, Note_off_c, 0, 68, 37
1, 158395, Note_off_c, 0, 95, 68
1, 158433, Note_on_c, 0, 75, 70
1, 158461, Note_off_c, 0, 75, 69
1, 158487, Note_on_c, 0, 84, 40
1, 158518, Note_off_c, 0, 84, 35
1, 158604, Note_on_c, 0, 90, 81
1, 158608, Note_on_c, 0, 82, 72
1, 158633, Note_off_c, 0, 82, 67
1, 158641, Note_on_c, 0, 49, 81
1, 158641, Note_off_c, 0, 90, 60
1, 158666, Note_off_c, 0, 49, 68
1, 158706, Note_on_c, 0, 92, 72
1, 158714, Note_on_c, 0, 83, 69
1, 158738, Note_off_c, 0, 83, 66
1, 158748, Note_off_c, 0, 92, 60
1, 158813, Note_on_c, 0, 94, 86
1, 158820, Note_on_c, 0, 85, 76
1, 158826, Note_on_c, 0, 58, 53
1, 158838, Note_off_c, 0, 94, 62
1, 158841, Note_off_c, 0, 85, 72
1, 158848, Note_off_c, 0, 58, 60
1, 158912, Note_on_c, 0, 94, 84
1, 158914, Note_on_c, 0, 66, 60
1, 158917, Note_on_c, 0, 85, 74
1, 158932, Note_off_c, 0, 66, 63
1, 158938, Note_off_c, 0, 85, 71
1, 158954, Note_off_c, 0, 94, 62
1, 159002, Note_on_c, 0, 73, 66
1, 159012, Note_on_c, 0, 83, 79
1, 159015, Note_on_c, 0, 92, 80
1, 159021, Note_on_c, 0, 85, 67
1, 159029, Note_off_c, 0, 73, 65
1, 159034, Note_off_c, 0, 83, 65
1, 159040, Note_off_c, 0, 85, 65
1, 159047, Note_off_c, 0, 92, 56
1, 159091, Note_on_c, 0, 78, 79
1, 159108, Note_on_c, 0, 90, 87
1, 159110, Note_off_c, 0, 78, 70
1, 159113, Note_on_c, 0, 85, 54
1, 159133, Note_on_c, 0, 82, 52
1, 159133, Note_off_c, 0, 85, 63
1, 159156, Note_off_c, 0, 82, 37
1, 159161, Note_off_c, 0, 90, 64
1, 159216, Note_on_c, 0, 80, 88
1, 159218, Note_on_c, 0, 85, 66
1, 159219, Note_on_c, 0, 89, 76
1, 159223, Note_on_c, 0, 49, 74
1, 159235, Note_off_c, 0, 80, 70
1, 159242, Note_off_c, 0, 49, 64
1, 159243, Note_off_c, 0, 85, 68
1, 159267, Note_off_c, 0, 89, 64
1, 159331, Note_on_c, 0, 90, 77
1, 159332, Note_on_c, 0, 85, 77
1, 159338, Note_on_c, 0, 82, 69
1, 159353, Note_off_c, 0, 85, 70
1, 159353, Note_off_c, 0, 82, 66
1, 159371, Note_off_c, 0, 90, 61
1, 159430, Note_on_c, 0, 77, 74
1, 159438, Note_on_c, 0, 92, 85
1, 159444, Note_on_c, 0, 85, 69
1, 159450, Note_on_c, 0, 83, 65
1, 159455, Note_off_c, 0, 77, 67
1, 159472, Note_off_c, 0, 85, 66
1, 159472, Note_off_c, 0, 92, 61
1, 159478, Note_off_c, 0, 83, 64
1, 159552, Note_on_c, 0, 85, 72
1, 159556, Note_on_c, 0, 92, 72
1, 159568, Note_on_c, 0, 83, 53
1, 159577, Note_off_c, 0, 85, 66
1, 159579, Note_off_c, 0, 92, 70
1, 159589, Note_off_c, 0, 83, 39
1, 159675, Note_on_c, 0, 78, 79
1, 159675, Note_on_c, 0, 87, 68
1, 159677, Note_on_c, 0, 61, 51
1, 159682, Note_on_c, 0, 85, 55
1, 159694, Note_off_c, 0, 78, 71
1, 159700, Note_off_c, 0, 61, 55
1, 159702, Note_off_c, 0, 85, 62
1, 159705, Note_off_c, 0, 87, 60
1, 159790, Note_on_c, 0, 89, 73
1, 159801, Note_on_c, 0, 80, 67
1, 159804, Note_on_c, 0, 71, 32
1, 159818, Note_off_c, 0, 80, 69
1, 159833, Note_off_c, 0, 71, 33
1, 159838, Note_off_c, 0, 89, 62
1, 159896, Control_c, 0, 64, 38
1, 159911, Control_c, 0, 64, 62
1, 159925, Control_c, 0, 64, 66
1, 159940, Control_c, 0, 64, 70
1, 159955, Control_c, 0, 64, 74
1, 159959, Note_on_c, 0, 85, 68
1, 159960, Note_on_c, 0, 90, 77
1, 159961, Note_on_c, 0, 78, 75
1, 159965, Note_on_c, 0, 70, 49
1, 159970, Note_on_c, 0, 66, 52
1, 159970, Control_c, 0, 64, 79
1, 159979, Note_off_c, 0, 85, 64
1, 159984, Note_off_c, 0, 78, 68
1, 159985, Control_c, 0, 64, 83
1, 159988, Note_off_c, 0, 70, 58
1, 159998, Note_off_c, 0, 66, 58
1, 160000, Control_c, 0, 64, 85
1, 160009, Note_off_c, 0, 90, 60
1, 160015, Control_c, 0, 64, 85
1, 160045, Control_c, 0, 64, 86
1, 160066, Control_c, 0, 64, 86
1, 160235, Note_on_c, 0, 54, 74
1, 160241, Note_on_c, 0, 42, 70
1, 160273, Note_off_c, 0, 54, 57
1, 160274, Control_c, 0, 64, 86
1, 160280, Note_off_c, 0, 42, 62
1, 160289, Control_c, 0, 64, 85
1, 160304, Control_c, 0, 64, 85
1, 160318, Control_c, 0, 64, 83
1, 160333, Control_c, 0, 64, 81
1, 160346, Note_on_c, 0, 54, 78
1, 160348, Control_c, 0, 64, 78
1, 160352, Note_on_c, 0, 42, 65
1, 160363, Control_c, 0, 64, 74
1, 160373, Note_off_c, 0, 54, 64
1, 160378, Control_c, 0, 64, 68
1, 160387, Note_off_c, 0, 42, 63
1, 160392, Control_c, 0, 64, 59
1, 160407, Control_c, 0, 64, 26
1, 160422, Control_c, 0, 64, 24
1, 160437, Control_c, 0, 64, 31
1, 160447, Note_on_c, 0, 55, 86
1, 160452, Control_c, 0, 64, 29
1, 160459, Note_on_c, 0, 43, 67
1, 160466, Control_c, 0, 64, 21
1, 160481, Control_c, 0, 64, 0
1, 160483, Note_off_c, 0, 55, 66
1, 160488, Note_off_c, 0, 43, 63
1, 160535, Note_on_c, 0, 55, 78
1, 160559, Note_on_c, 0, 43, 55
1, 160573, Note_off_c, 0, 55, 66
1, 160586, Note_off_c, 0, 43, 55
1, 160632, Note_on_c, 0, 56, 94
1, 160647, Note_on_c, 0, 44, 69
1, 160673, Note_off_c, 0, 56, 62
1, 160680, Note_off_c, 0, 44, 65
1, 160715, Note_on_c, 0, 56, 80
1, 160730, Note_on_c, 0, 44, 71
1, 160755, Note_off_c, 0, 56, 63
1, 160761, Note_off_c, 0, 44, 65
1, 160818, Note_on_c, 0, 56, 73
1, 160822, Note_on_c, 0, 68, 70
1, 160848, Note_off_c, 0, 56, 66
1, 160851, Note_off_c, 0, 68, 67
1, 160897, Note_on_c, 0, 56, 68
1, 160899, Note_on_c, 0, 68, 80
1, 160927, Note_off_c, 0, 56, 67
1, 160949, Note_off_c, 0, 68, 65
1, 160996, Note_on_c, 0, 80, 81
1, 161005, Note_on_c, 0, 68, 58
1, 161020, Note_off_c, 0, 80, 63
1, 161031, Note_off_c, 0, 68, 57
1, 161085, Note_on_c, 0, 80, 83
1, 161097, Note_on_c, 0, 68, 74
1, 161103, Note_off_c, 0, 80, 72
1, 161124, Note_off_c, 0, 68, 69
1, 161186, Note_on_c, 0, 92, 84
1, 161194, Note_on_c, 0, 80, 61
1, 161204, Note_off_c, 0, 92, 72
1, 161211, Note_off_c, 0, 80, 64
1, 161386, Note_on_c, 0, 75, 62
1, 161388, Note_on_c, 0, 90, 67
1, 161392, Note_on_c, 0, 102, 72
1, 161398, Note_on_c, 0, 80, 46
1, 161416, Note_off_c, 0, 90, 65
1, 161418, Note_off_c, 0, 75, 68
1, 161422, Note_off_c, 0, 80, 57
1, 161422, Note_off_c, 0, 102, 63
1, 161489, Note_on_c, 0, 102, 63
1, 161491, Note_on_c, 0, 80, 65
1, 161495, Note_on_c, 0, 90, 57
1, 161496, Note_on_c, 0, 75, 55
1, 161515, Note_off_c, 0, 90, 60
1, 161517, Note_off_c, 0, 80, 68
1, 161519, Note_off_c, 0, 102, 66
1, 161520, Note_off_c, 0, 75, 63
1, 161602, Note_on_c, 0, 100, 77
1, 161604, Note_on_c, 0, 88, 69
1, 161607, Note_on_c, 0, 80, 64
1, 161611, Note_on_c, 0, 73, 56
1, 161628, Note_off_c, 0, 80, 66
1, 161628, Note_off_c, 0, 100, 63
1, 161631, Note_off_c, 0, 88, 64
1, 161632, Note_off_c, 0, 73, 63
1, 161702, Note_on_c, 0, 100, 66
1, 161705, Note_on_c, 0, 88, 56
1, 161707, Note_on_c, 0, 73, 59
1, 161709, Note_on_c, 0, 80, 55
1, 161719, Note_off_c, 0, 100, 65
1, 161725, Note_off_c, 0, 88, 61
1, 161729, Note_off_c, 0, 80, 62
1, 161729, Note_off_c, 0, 73, 64
1, 161799, Note_on_c, 0, 99, 78
1, 161801, Note_on_c, 0, 87, 75
1, 161802, Note_on_c, 0, 80, 64
1, 161803, Note_on_c, 0, 72, 58
1, 161821, Note_off_c, 0, 80, 66
1, 161824, Note_off_c, 0, 99, 69
1, 161825, Note_off_c, 0, 72, 64
1, 161825, Note_off_c, 0, 87, 66
1, 161902, Note_on_c, 0, 80, 56
1, 161903, Note_on_c, 0, 99, 70
1, 161906, Note_on_c, 0, 87, 64
1, 161910, Note_on_c, 0, 72, 54
1, 161922, Note_off_c, 0, 80, 62
1, 161929, Note_off_c, 0, 99, 68
1, 161929, Note_off_c, 0, 72, 61
1, 161934, Note_off_c, 0, 87, 67
1, 161991, Note_on_c, 0, 80, 74
1, 161997, Note_on_c, 0, 70, 69
1, 161997, Note_on_c, 0, 85, 75
1, 162012, Note_on_c, 0, 97, 63
1, 162017, Note_off_c, 0, 80, 66
1, 162019, Note_off_c, 0, 85, 69
1, 162024, Note_off_c, 0, 70, 65
1, 162031, Note_off_c, 0, 97, 65
1, 162096, Note_on_c, 0, 97, 83
1, 162096, Note_on_c, 0, 70, 64
1, 162099, Note_on_c, 0, 85, 70
1, 162104, Note_on_c, 0, 80, 63
1, 162114, Note_off_c, 0, 97, 71
1, 162123, Note_off_c, 0, 85, 67
1, 162125, Note_off_c, 0, 80, 64
1, 162128, Note_off_c, 0, 70, 62
1, 162187, Control_c, 0, 64, 17
1, 162189, Note_on_c, 0, 87, 77
1, 162194, Note_on_c, 0, 99, 75
1, 162196, Note_on_c, 0, 72, 64
1, 162196, Note_on_c, 0, 80, 67
1, 162202, Control_c, 0, 64, 26
1, 162211, Note_on_c, 0, 97, 45
1, 162211, Note_off_c, 0, 87, 70
1, 162216, Note_off_c, 0, 80, 66
1, 162216, Note_off_c, 0, 99, 76
1, 162217, Control_c, 0, 64, 27
1, 162227, Note_off_c, 0, 72, 63
1, 162231, Control_c, 0, 64, 26
1, 162237, Note_off_c, 0, 97, 36
1, 162261, Control_c, 0, 64, 29
1, 162277, Control_c, 0, 64, 32
1, 162280, Note_on_c, 0, 72, 60
1, 162282, Note_on_c, 0, 99, 81
1, 162283, Note_on_c, 0, 87, 76
1, 162287, Note_on_c, 0, 80, 72
1, 162292, Control_c, 0, 64, 35
1, 162316, Note_off_c, 0, 87, 63
1, 162320, Note_off_c, 0, 80, 65
1, 162328, Note_off_c, 0, 72, 62
1, 162328, Control_c, 0, 64, 29
1, 162338, Note_off_c, 0, 99, 67
1, 162343, Control_c, 0, 64, 10
1, 162358, Control_c, 0, 64, 0
1, 162388, Note_on_c, 0, 80, 85
1, 162395, Note_on_c, 0, 73, 72
1, 162398, Note_on_c, 0, 100, 92
1, 162400, Note_on_c, 0, 88, 85
1, 162407, Note_off_c, 0, 80, 73
1, 162426, Note_off_c, 0, 73, 64
1, 162438, Note_off_c, 0, 100, 67
1, 162438, Note_off_c, 0, 88, 63
1, 162477, Control_c, 0, 64, 43
1, 162492, Control_c, 0, 64, 57
1, 162506, Control_c, 0, 64, 61
1, 162521, Control_c, 0, 64, 63
1, 162535, Control_c, 0, 64, 64
1, 162550, Control_c, 0, 64, 65
1, 162609, Note_on_c, 0, 56, 88
1, 162609, Control_c, 0, 64, 64
1, 162620, Note_on_c, 0, 44, 78
1, 162624, Control_c, 0, 64, 64
1, 162633, Note_off_c, 0, 56, 67
1, 162639, Control_c, 0, 64, 62
1, 162650, Note_off_c, 0, 44, 63
1, 162653, Control_c, 0, 64, 58
1, 162668, Control_c, 0, 64, 51
1, 162683, Control_c, 0, 64, 38
1, 162695, Note_on_c, 0, 56, 84
1, 162698, Control_c, 0, 64, 18
1, 162707, Note_on_c, 0, 44, 75
1, 162713, Control_c, 0, 64, 0
1, 162728, Note_off_c, 0, 56, 64
1, 162740, Note_off_c, 0, 44, 66
1, 162784, Note_on_c, 0, 55, 91
1, 162796, Note_on_c, 0, 43, 75
1, 162824, Note_off_c, 0, 55, 65
1, 162831, Note_off_c, 0, 43, 64
1, 162873, Note_on_c, 0, 55, 83
1, 162883, Note_on_c, 0, 43, 76
1, 162909, Note_off_c, 0, 43, 63
1, 162910, Note_off_c, 0, 55, 67
1, 162966, Note_on_c, 0, 54, 93
1, 162972, Note_on_c, 0, 42, 85
1, 163006, Note_off_c, 0, 42, 65
1, 163010, Note_off_c, 0, 54, 62
1, 163058, Note_on_c, 0, 54, 88
1, 163066, Note_on_c, 0, 42, 78
1, 163094, Note_off_c, 0, 42, 68
1, 163100, Note_off_c, 0, 54, 61
1, 163145, Note_on_c, 0, 54, 83
1, 163151, Note_on_c, 0, 66, 74
1, 163177, Note_off_c, 0, 54, 65
1, 163178, Note_off_c, 0, 66, 69
1, 163234, Note_on_c, 0, 66, 84
1, 163235, Note_on_c, 0, 54, 74
1, 163256, Note_off_c, 0, 54, 66
1, 163281, Note_off_c, 0, 66, 67
1, 163326, Note_on_c, 0, 78, 86
1, 163341, Note_on_c, 0, 66, 54
1, 163351, Note_off_c, 0, 78, 63
1, 163363, Note_off_c, 0, 66, 60
1, 163406, Note_on_c, 0, 78, 89
1, 163419, Note_on_c, 0, 66, 76
1, 163434, Note_off_c, 0, 78, 67
1, 163442, Note_off_c, 0, 66, 71
1, 163506, Note_on_c, 0, 78, 80
1, 163511, Note_on_c, 0, 90, 86
1, 163523, Note_off_c, 0, 78, 72
1, 163529, Note_off_c, 0, 90, 71
1, 163691, Note_on_c, 0, 73, 68
1, 163693, Note_on_c, 0, 78, 64
1, 163699, Note_on_c, 0, 88, 73
1, 163703, Note_on_c, 0, 100, 70
1, 163717, Note_off_c, 0, 78, 64
1, 163720, Note_off_c, 0, 73, 64
1, 163722, Note_off_c, 0, 88, 67
1, 163726, Note_off_c, 0, 100, 68
1, 163792, Note_on_c, 0, 78, 72
1, 163809, Note_on_c, 0, 73, 64
1, 163810, Note_on_c, 0, 88, 67
1, 163813, Note_on_c, 0, 100, 67
1, 163825, Note_off_c, 0, 78, 65
1, 163830, Note_off_c, 0, 100, 66
1, 163833, Note_off_c, 0, 88, 68
1, 163837, Note_off_c, 0, 73, 66
1, 163907, Note_on_c, 0, 71, 60
1, 163907, Note_on_c, 0, 78, 71
1, 163911, Note_on_c, 0, 99, 81
1, 163912, Note_on_c, 0, 87, 80
1, 163934, Note_off_c, 0, 78, 64
1, 163935, Note_off_c, 0, 87, 66
1, 163938, Note_off_c, 0, 71, 64
1, 163948, Note_off_c, 0, 99, 63
1, 164009, Note_on_c, 0, 71, 57
1, 164011, Note_on_c, 0, 87, 76
1, 164012, Note_on_c, 0, 78, 60
1, 164015, Note_on_c, 0, 99, 63
1, 164032, Note_off_c, 0, 71, 63
1, 164033, Note_off_c, 0, 78, 62
1, 164033, Note_off_c, 0, 99, 67
1, 164033, Note_off_c, 0, 87, 67
1, 164102, Note_on_c, 0, 97, 35
1, 164105, Note_on_c, 0, 70, 66
1, 164108, Note_on_c, 0, 78, 68
1, 164111, Note_on_c, 0, 85, 69
1, 164133, Note_off_c, 0, 70, 66
1, 164135, Note_off_c, 0, 78, 66
1, 164138, Note_off_c, 0, 85, 67
1, 164152, Note_off_c, 0, 97, 65
1, 164207, Note_on_c, 0, 97, 75
1, 164208, Note_on_c, 0, 85, 74
1, 164210, Note_on_c, 0, 78, 66
1, 164216, Note_on_c, 0, 70, 62
1, 164233, Note_off_c, 0, 78, 65
1, 164234, Note_off_c, 0, 70, 66
1, 164236, Note_off_c, 0, 85, 63
1, 164250, Note_off_c, 0, 97, 65
1, 164307, Note_on_c, 0, 78, 66
1, 164307, Note_on_c, 0, 68, 69
1, 164314, Note_on_c, 0, 83, 78
1, 164315, Note_on_c, 0, 95, 81
1, 164330, Note_off_c, 0, 78, 64
1, 164339, Note_off_c, 0, 68, 62
1, 164343, Note_off_c, 0, 83, 59
1, 164356, Note_off_c, 0, 95, 64
1, 164391, Note_on_c, 0, 68, 69
1, 164398, Note_on_c, 0, 78, 75
1, 164398, Note_on_c, 0, 95, 73
1, 164400, Note_on_c, 0, 83, 68
1, 164424, Note_off_c, 0, 78, 63
1, 164427, Note_off_c, 0, 83, 64
1, 164434, Note_off_c, 0, 95, 66
1, 164451, Note_off_c, 0, 68, 60
1, 164493, Note_on_c, 0, 78, 76
1, 164498, Note_on_c, 0, 97, 94
1, 164500, Note_on_c, 0, 70, 70
1, 164504, Note_on_c, 0, 85, 81
1, 164525, Note_off_c, 0, 78, 57
1, 164529, Note_off_c, 0, 85, 64
1, 164530, Note_off_c, 0, 70, 63
1, 164540, Note_off_c, 0, 97, 62
1, 164588, Control_c, 0, 64, 15
1, 164594, Note_on_c, 0, 78, 76
1, 164600, Note_on_c, 0, 70, 68
1, 164600, Note_on_c, 0, 97, 84
1, 164603, Control_c, 0, 64, 0
1, 164609, Note_on_c, 0, 85, 73
1, 164631, Note_off_c, 0, 85, 70
1, 164640, Note_off_c, 0, 70, 62
1, 164642, Note_off_c, 0, 78, 61
1, 164644, Note_off_c, 0, 97, 63
1, 164696, Note_on_c, 0, 78, 78
1, 164707, Note_on_c, 0, 71, 78
1, 164711, Note_on_c, 0, 99, 100
1, 164718, Note_on_c, 0, 87, 81
1, 164721, Note_off_c, 0, 78, 67
1, 164722, Control_c, 0, 64, 49
1, 164737, Control_c, 0, 64, 57
1, 164742, Note_off_c, 0, 71, 63
1, 164745, Note_off_c, 0, 87, 63
1, 164752, Note_off_c, 0, 99, 68
1, 164752, Control_c, 0, 64, 60
1, 164767, Control_c, 0, 64, 60
1, 164811, Control_c, 0, 64, 61
1, 164826, Control_c, 0, 64, 60
1, 164841, Control_c, 0, 64, 59
1, 164856, Control_c, 0, 64, 57
1, 164871, Control_c, 0, 64, 53
1, 164886, Control_c, 0, 64, 47
1, 164900, Control_c, 0, 64, 41
1, 164915, Control_c, 0, 64, 27
1, 164917, Note_on_c, 0, 53, 86
1, 164930, Note_on_c, 0, 41, 76
1, 164930, Control_c, 0, 64, 0
1, 164954, Note_off_c, 0, 53, 67
1, 164961, Note_off_c, 0, 41, 65
1, 165016, Note_on_c, 0, 53, 80
1, 165029, Note_on_c, 0, 41, 68
1, 165049, Note_off_c, 0, 53, 66
1, 165056, Note_off_c, 0, 41, 67
1, 165073, Note_on_c, 0, 40, 8
1, 165095, Note_off_c, 0, 40, 0
1, 165113, Note_on_c, 0, 52, 84
1, 165115, Note_on_c, 0, 40, 32
1, 165147, Note_off_c, 0, 52, 67
1, 165151, Note_off_c, 0, 40, 63
1, 165203, Note_on_c, 0, 52, 84
1, 165223, Note_on_c, 0, 40, 65
1, 165237, Note_off_c, 0, 52, 67
1, 165246, Note_off_c, 0, 40, 59
1, 165299, Note_on_c, 0, 51, 93
1, 165329, Note_on_c, 0, 39, 42
1, 165338, Note_off_c, 0, 51, 63
1, 165386, Note_on_c, 0, 51, 88
1, 165387, Note_off_c, 0, 39, 0
1, 165387, Note_on_c, 0, 39, 69
1, 165416, Note_off_c, 0, 51, 66
1, 165422, Note_off_c, 0, 39, 66
1, 165476, Note_on_c, 0, 51, 82
1, 165481, Note_on_c, 0, 63, 68
1, 165502, Note_off_c, 0, 51, 67
1, 165508, Note_off_c, 0, 63, 68
1, 165563, Note_on_c, 0, 51, 80
1, 165563, Note_on_c, 0, 63, 88
1, 165588, Note_off_c, 0, 51, 67
1, 165610, Note_off_c, 0, 63, 66
1, 165662, Note_on_c, 0, 75, 80
1, 165685, Note_off_c, 0, 75, 66
1, 165688, Note_on_c, 0, 63, 37
1, 165717, Note_off_c, 0, 63, 48
1, 165745, Note_on_c, 0, 75, 87
1, 165751, Note_on_c, 0, 63, 69
1, 165769, Note_off_c, 0, 75, 69
1, 165793, Note_off_c, 0, 63, 63
1, 165834, Note_on_c, 0, 75, 90
1, 165840, Note_on_c, 0, 87, 85
1, 165856, Note_off_c, 0, 75, 70
1, 165857, Control_c, 0, 64, 57
1, 165857, Note_off_c, 0, 87, 72
1, 165872, Control_c, 0, 64, 63
1, 165887, Control_c, 0, 64, 64
1, 165917, Control_c, 0, 64, 63
1, 165946, Control_c, 0, 64, 64
1, 165961, Control_c, 0, 64, 66
1, 165976, Control_c, 0, 64, 68
1, 165991, Control_c, 0, 64, 70
1, 166005, Control_c, 0, 64, 72
1, 166009, Note_on_c, 0, 75, 85
1, 166013, Note_on_c, 0, 67, 69
1, 166015, Note_on_c, 0, 87, 83
1, 166020, Control_c, 0, 64, 75
1, 166026, Note_on_c, 0, 63, 55
1, 166030, Note_off_c, 0, 75, 68
1, 166035, Control_c, 0, 64, 77
1, 166051, Note_off_c, 0, 87, 59
1, 166055, Note_off_c, 0, 67, 59
1, 166057, Control_c, 0, 64, 78
1, 166070, Note_off_c, 0, 63, 60
1, 166072, Control_c, 0, 64, 78
1, 166087, Control_c, 0, 64, 79
1, 166102, Control_c, 0, 64, 79
1, 166109, Note_on_c, 0, 75, 88
1, 166117, Control_c, 0, 64, 81
1, 166117, Note_on_c, 0, 87, 77
1, 166129, Note_on_c, 0, 63, 55
1, 166131, Control_c, 0, 64, 82
1, 166132, Note_on_c, 0, 67, 66
1, 166141, Note_off_c, 0, 75, 60
1, 166145, Note_off_c, 0, 87, 62
1, 166146, Control_c, 0, 64, 84
1, 166156, Note_off_c, 0, 67, 69
1, 166158, Note_off_c, 0, 63, 64
1, 166161, Control_c, 0, 64, 84
1, 166162, Note_on_c, 0, 85, 16
1, 166176, Control_c, 0, 64, 85
1, 166191, Control_c, 0, 64, 86
1, 166200, Note_on_c, 0, 68, 82
1, 166202, Note_on_c, 0, 75, 84
1, 166203, Note_on_c, 0, 87, 88
1, 166205, Control_c, 0, 64, 87
1, 166206, Note_on_c, 0, 65, 75
1, 166220, Control_c, 0, 64, 88
1, 166235, Control_c, 0, 64, 90
1, 166238, Note_off_c, 0, 65, 60
1, 166242, Note_off_c, 0, 75, 63
1, 166246, Note_off_c, 0, 87, 64
1, 166248, Note_off_c, 0, 68, 61
1, 166249, Control_c, 0, 64, 91
1, 166264, Control_c, 0, 64, 93
1, 166279, Control_c, 0, 64, 93
1, 166289, Note_on_c, 0, 65, 65
1, 166291, Note_on_c, 0, 75, 82
1, 166293, Note_on_c, 0, 68, 74
1, 166296, Note_on_c, 0, 87, 82
1, 166311, Note_off_c, 0, 85, 23
1, 166324, Control_c, 0, 64, 90
1, 166334, Note_off_c, 0, 65, 62
1, 166337, Note_off_c, 0, 75, 64
1, 166338, Note_off_c, 0, 87, 64
1, 166339, Control_c, 0, 64, 77
1, 166341, Note_off_c, 0, 68, 63
1, 166353, Control_c, 0, 64, 60
1, 166368, Control_c, 0, 64, 0
1, 166383, Control_c, 0, 64, 10
1, 166398, Control_c, 0, 64, 64
1, 166399, Note_on_c, 0, 66, 81
1, 166399, Note_on_c, 0, 76, 92
1, 166402, Note_on_c, 0, 88, 91
1, 166405, Note_on_c, 0, 69, 80
1, 166413, Control_c, 0, 64, 72
1, 166423, Note_off_c, 0, 66, 67
1, 166424, Note_off_c, 0, 69, 71
1, 166427, Control_c, 0, 64, 83
1, 166433, Note_off_c, 0, 88, 64
1, 166436, Note_off_c, 0, 76, 67
1, 166442, Control_c, 0, 64, 91
1, 166457, Control_c, 0, 64, 94
1, 166472, Control_c, 0, 64, 96
1, 166486, Control_c, 0, 64, 99
1, 166498, Note_on_c, 0, 69, 73
1, 166499, Note_on_c, 0, 75, 98
1, 166501, Control_c, 0, 64, 103
1, 166502, Note_on_c, 0, 87, 94
1, 166516, Control_c, 0, 64, 110
1, 166522, Note_off_c, 0, 69, 65
1, 166528, Note_off_c, 0, 87, 62
1, 166530, Note_off_c, 0, 75, 58
1, 166531, Control_c, 0, 64, 115
1, 166543, Note_on_c, 0, 85, 21
1, 166546, Note_on_c, 0, 64, 15
1, 166546, Control_c, 0, 64, 117
1, 166561, Control_c, 0, 64, 117
1, 166575, Note_off_c, 0, 64, 0
1, 166587, Note_off_c, 0, 85, 0
1, 166587, Note_on_c, 0, 85, 63
1, 166589, Note_on_c, 0, 73, 93
1, 166591, Control_c, 0, 64, 118
1, 166593, Note_on_c, 0, 64, 44
1, 166595, Note_on_c, 0, 67, 84
1, 166595, Poly_aftertouch_c, 0, 66, 0
1, 166606, Control_c, 0, 64, 120
1, 166620, Control_c, 0, 64, 120
1, 166627, Note_off_c, 0, 73, 60
1, 166627, Note_off_c, 0, 85, 66
1, 166628, Note_off_c, 0, 67, 59
1, 166634, Note_off_c, 0, 64, 65
1, 166678, Note_on_c, 0, 71, 93
1, 166684, Note_on_c, 0, 83, 90
1, 166701, Note_on_c, 0, 67, 54
1, 166710, Note_on_c, 0, 62, 54
1, 166714, Note_off_c, 0, 71, 64
1, 166719, Note_off_c, 0, 67, 63
1, 166723, Note_off_c, 0, 83, 58
1, 166735, Note_off_c, 0, 62, 62
1, 166772, Note_on_c, 0, 70, 100
1, 166779, Note_on_c, 0, 82, 90
1, 166782, Note_on_c, 0, 65, 68
1, 166783, Control_c, 0, 64, 121
1, 166790, Note_on_c, 0, 62, 86
1, 166799, Note_on_c, 0, 80, 74
1, 166814, Note_off_c, 0, 80, 68
1, 166821, Note_on_c, 0, 68, 39
1, 166821, Note_off_c, 0, 70, 61
1, 166822, Note_off_c, 0, 82, 62
1, 166827, Note_off_c, 0, 65, 65
1, 166827, Note_off_c, 0, 62, 57
1, 166835, Control_c, 0, 64, 121
1, 166850, Note_off_c, 0, 68, 54
1, 166868, Note_on_c, 0, 68, 81
1, 166872, Note_on_c, 0, 80, 92
1, 166887, Note_on_c, 0, 62, 76
1, 166889, Note_on_c, 0, 65, 82
1, 166894, Control_c, 0, 64, 114
1, 166909, Control_c, 0, 64, 99
1, 166920, Note_off_c, 0, 62, 62
1, 166920, Note_off_c, 0, 65, 67
1, 166920, Note_off_c, 0, 68, 65
1, 166922, Note_off_c, 0, 80, 67
1, 166924, Control_c, 0, 64, 76
1, 166939, Control_c, 0, 64, 0
1, 166981, Note_on_c, 0, 63, 92
1, 166984, Note_on_c, 0, 67, 95
1, 166988, Note_on_c, 0, 79, 99
1, 167012, Control_c, 0, 64, 61
1, 167016, Note_off_c, 0, 63, 67
1, 167023, Note_off_c, 0, 67, 64
1, 167027, Control_c, 0, 64, 71
1, 167029, Note_off_c, 0, 79, 66
1, 167042, Control_c, 0, 64, 78
1, 167057, Control_c, 0, 64, 84
1, 167073, Control_c, 0, 64, 87
1, 167088, Control_c, 0, 64, 89
1, 167102, Control_c, 0, 64, 93
1, 167117, Control_c, 0, 64, 96
1, 167132, Control_c, 0, 64, 100
1, 167147, Control_c, 0, 64, 102
1, 167162, Control_c, 0, 64, 104
1, 167176, Control_c, 0, 64, 105
1, 167180, Note_on_c, 0, 46, 96
1, 167191, Control_c, 0, 64, 107
1, 167193, Note_on_c, 0, 34, 79
1, 167206, Control_c, 0, 64, 109
1, 167213, Note_off_c, 0, 46, 64
1, 167221, Control_c, 0, 64, 109
1, 167223, Note_off_c, 0, 34, 65
1, 167274, Note_on_c, 0, 46, 85
1, 167279, Note_on_c, 0, 34, 87
1, 167300, Note_off_c, 0, 46, 65
1, 167308, Note_off_c, 0, 34, 69
1, 167372, Note_on_c, 0, 50, 96
1, 167380, Note_on_c, 0, 38, 87
1, 167412, Note_off_c, 0, 50, 65
1, 167414, Note_off_c, 0, 38, 65
1, 167462, Note_on_c, 0, 50, 91
1, 167474, Note_on_c, 0, 38, 70
1, 167487, Control_c, 0, 64, 106
1, 167488, Note_on_c, 0, 44, 4
1, 167501, Note_off_c, 0, 50, 65
1, 167502, Control_c, 0, 64, 100
1, 167507, Note_off_c, 0, 38, 62
1, 167517, Control_c, 0, 64, 91
1, 167521, Note_off_c, 0, 44, 0
1, 167532, Control_c, 0, 64, 76
1, 167551, Poly_aftertouch_c, 0, 44, 0
1, 167554, Control_c, 0, 64, 37
1, 167563, Note_on_c, 0, 51, 95
1, 167569, Control_c, 0, 64, 0
1, 167575, Note_on_c, 0, 39, 77
1, 167583, Poly_aftertouch_c, 0, 40, 0
1, 167609, Note_off_c, 0, 51, 64
1, 167614, Note_off_c, 0, 39, 61
1, 167653, Note_on_c, 0, 51, 90
1, 167662, Note_on_c, 0, 39, 82
1, 167688, Control_c, 0, 64, 53
1, 167692, Note_off_c, 0, 39, 63
1, 167697, Note_off_c, 0, 51, 61
1, 167702, Control_c, 0, 64, 69
1, 167717, Control_c, 0, 64, 73
1, 167732, Control_c, 0, 64, 78
1, 167737, Note_on_c, 0, 51, 84
1, 167743, Note_on_c, 0, 63, 68
1, 167747, Control_c, 0, 64, 83
1, 167762, Control_c, 0, 64, 88
1, 167771, Note_off_c, 0, 63, 68
1, 167776, Control_c, 0, 64, 92
1, 167777, Note_off_c, 0, 51, 59
1, 167786, Note_on_c, 0, 61, 14
1, 167791, Control_c, 0, 64, 94
1, 167806, Control_c, 0, 64, 96
1, 167816, Note_on_c, 0, 51, 78
1, 167820, Note_on_c, 0, 63, 83
1, 167820, Control_c, 0, 64, 99
1, 167830, Note_off_c, 0, 61, 38
1, 167835, Control_c, 0, 64, 102
1, 167850, Control_c, 0, 64, 105
1, 167851, Note_off_c, 0, 51, 67
1, 167865, Control_c, 0, 64, 110
1, 167876, Note_off_c, 0, 63, 66
1, 167881, Control_c, 0, 64, 112
1, 167896, Control_c, 0, 64, 113
1, 167911, Control_c, 0, 64, 113
1, 167921, Note_on_c, 0, 75, 85
1, 167929, Note_on_c, 0, 63, 63
1, 167942, Note_off_c, 0, 75, 68
1, 167948, Note_off_c, 0, 63, 64
1, 167991, Note_on_c, 0, 75, 88
1, 167999, Control_c, 0, 64, 114
1, 168005, Note_on_c, 0, 63, 83
1, 168026, Note_off_c, 0, 63, 72
1, 168031, Note_off_c, 0, 75, 66
1, 168058, Control_c, 0, 64, 112
1, 168095, Note_on_c, 0, 75, 90
1, 168097, Note_on_c, 0, 87, 95
1, 168103, Control_c, 0, 64, 113
1, 168111, Note_off_c, 0, 75, 75
1, 168111, Note_off_c, 0, 87, 74
1, 168117, Control_c, 0, 64, 118
1, 168132, Control_c, 0, 64, 127
1, 168147, Control_c, 0, 64, 127
1, 168271, Note_on_c, 0, 67, 64
1, 168271, Note_on_c, 0, 75, 74
1, 168272, Note_on_c, 0, 87, 90
1, 168277, Note_on_c, 0, 99, 90
1, 168301, Note_on_c, 0, 94, 60
1, 168302, Note_off_c, 0, 94, 127
1, 168302, Note_off_c, 0, 87, 66
1, 168306, Note_off_c, 0, 75, 68
1, 168317, Note_off_c, 0, 67, 56
1, 168321, Note_off_c, 0, 99, 66
1, 168323, Note_on_c, 0, 92, 15
1, 168324, Note_off_c, 0, 92, 127
1, 168371, Note_on_c, 0, 67, 56
1, 168376, Note_on_c, 0, 99, 89
1, 168377, Note_on_c, 0, 87, 96
1, 168380, Note_on_c, 0, 75, 71
1, 168403, Note_off_c, 0, 67, 60
1, 168406, Note_off_c, 0, 87, 61
1, 168411, Note_off_c, 0, 75, 62
1, 168416, Note_off_c, 0, 99, 68
1, 168458, Note_on_c, 0, 77, 74
1, 168468, Note_on_c, 0, 99, 85
1, 168471, Note_on_c, 0, 87, 91
1, 168496, Note_on_c, 0, 97, 55
1, 168509, Note_off_c, 0, 87, 61
1, 168513, Note_off_c, 0, 77, 60
1, 168517, Note_off_c, 0, 99, 68
1, 168518, Note_off_c, 0, 97, 41
1, 168555, Note_on_c, 0, 77, 70
1, 168567, Note_on_c, 0, 87, 89
1, 168568, Note_on_c, 0, 99, 85
1, 168579, Poly_aftertouch_c, 0, 67, 0
1, 168581, Note_on_c, 0, 97, 79
1, 168593, Note_off_c, 0, 97, 69
1, 168597, Note_off_c, 0, 77, 64
1, 168606, Note_off_c, 0, 87, 65
1, 168618, Note_off_c, 0, 99, 68
1, 168629, Control_c, 0, 64, 102
1, 168643, Control_c, 0, 64, 77
1, 168658, Control_c, 0, 64, 0
1, 168683, Note_on_c, 0, 78, 97
1, 168692, Note_on_c, 0, 88, 93
1, 168695, Note_on_c, 0, 100, 97
1, 168695, Note_on_c, 0, 69, 72
1, 168704, Control_c, 0, 64, 60
1, 168715, Note_off_c, 0, 78, 63
1, 168719, Control_c, 0, 64, 75
1, 168721, Note_off_c, 0, 69, 70
1, 168731, Note_off_c, 0, 100, 67
1, 168733, Note_off_c, 0, 88, 66
1, 168734, Control_c, 0, 64, 95
1, 168748, Control_c, 0, 64, 108
1, 168763, Control_c, 0, 64, 112
1, 168778, Control_c, 0, 64, 119
1, 168793, Control_c, 0, 64, 127
1, 168800, Note_on_c, 0, 78, 78
1, 168802, Note_on_c, 0, 87, 96
1, 168807, Note_on_c, 0, 99, 86
1, 168822, Note_on_c, 0, 97, 64
1, 168826, Note_off_c, 0, 78, 64
1, 168835, Note_off_c, 0, 99, 68
1, 168838, Note_off_c, 0, 87, 61
1, 168839, Note_off_c, 0, 97, 62
1, 168890, Note_on_c, 0, 79, 81
1, 168893, Note_on_c, 0, 85, 93
1, 168895, Note_on_c, 0, 97, 95
1, 168898, Note_on_c, 0, 70, 76
1, 168925, Note_off_c, 0, 70, 64
1, 168931, Note_off_c, 0, 79, 61
1, 168934, Note_off_c, 0, 97, 66
1, 168935, Note_off_c, 0, 85, 65
1, 168987, Note_on_c, 0, 79, 78
1, 168990, Note_on_c, 0, 83, 88
1, 168992, Note_on_c, 0, 95, 95
1, 169002, Note_on_c, 0, 70, 61
1, 169022, Note_off_c, 0, 70, 62
1, 169024, Note_off_c, 0, 83, 64
1, 169026, Note_off_c, 0, 79, 62
1, 169027, Note_off_c, 0, 95, 63
1, 169083, Note_on_c, 0, 82, 99
1, 169083, Note_on_c, 0, 77, 81
1, 169085, Note_on_c, 0, 94, 98
1, 169104, Note_on_c, 0, 74, 68
1, 169120, Note_off_c, 0, 82, 64
1, 169121, Note_off_c, 0, 94, 68
1, 169126, Note_on_c, 0, 92, 34
1, 169127, Note_off_c, 0, 92, 127
1, 169130, Note_off_c, 0, 77, 63
1, 169137, Note_off_c, 0, 74, 61
1, 169176, Note_on_c, 0, 80, 94
1, 169183, Note_on_c, 0, 92, 80
1, 169193, Note_on_c, 0, 90, 80
1, 169207, Note_off_c, 0, 90, 68
1, 169218, Note_on_c, 0, 74, 47
1, 169220, Note_on_c, 0, 85, 30
1, 169221, Note_off_c, 0, 85, 127
1, 169221, Note_off_c, 0, 80, 64
1, 169224, Note_on_c, 0, 78, 30
1, 169226, Note_off_c, 0, 92, 66
1, 169239, Note_off_c, 0, 74, 62
1, 169258, Note_off_c, 0, 78, 41
1, 169260, Control_c, 0, 64, 102
1, 169275, Control_c, 0, 64, 78
1, 169290, Control_c, 0, 64, 50
1, 169295, Note_on_c, 0, 79, 94
1, 169302, Note_on_c, 0, 91, 92
1, 169304, Control_c, 0, 64, 34
1, 169319, Note_on_c, 0, 75, 88
1, 169319, Control_c, 0, 64, 67
1, 169328, Note_off_c, 0, 91, 60
1, 169330, Note_off_c, 0, 79, 66
1, 169331, Note_on_c, 0, 70, 71
1, 169334, Control_c, 0, 64, 81
1, 169340, Note_off_c, 0, 75, 69
1, 169349, Note_off_c, 0, 70, 66
1, 169349, Control_c, 0, 64, 98
1, 169364, Control_c, 0, 64, 113
1, 169379, Control_c, 0, 64, 123
1, 169392, Note_on_c, 0, 78, 95
1, 169394, Control_c, 0, 64, 127
1, 169394, Note_on_c, 0, 90, 96
1, 169420, Note_on_c, 0, 70, 69
1, 169427, Note_off_c, 0, 78, 63
1, 169433, Note_off_c, 0, 90, 63
1, 169448, Note_off_c, 0, 70, 65
1, 169485, Note_on_c, 0, 77, 92
1, 169491, Note_on_c, 0, 89, 85
1, 169501, Note_on_c, 0, 68, 78
1, 169503, Note_on_c, 0, 71, 78
1, 169523, Note_on_c, 0, 88, 32
1, 169528, Note_off_c, 0, 71, 61
1, 169528, Note_off_c, 0, 77, 62
1, 169530, Note_off_c, 0, 89, 66
1, 169534, Note_off_c, 0, 68, 60
1, 169559, Note_off_c, 0, 88, 33
1, 169580, Note_on_c, 0, 76, 95
1, 169586, Note_on_c, 0, 88, 76
1, 169601, Note_on_c, 0, 86, 57
1, 169608, Note_on_c, 0, 68, 57
1, 169620, Note_on_c, 0, 69, 52
1, 169621, Note_off_c, 0, 76, 67
1, 169621, Note_off_c, 0, 86, 60
1, 169623, Note_off_c, 0, 88, 61
1, 169625, Note_off_c, 0, 68, 66
1, 169638, Note_on_c, 0, 71, 16
1, 169642, Note_off_c, 0, 69, 54
1, 169674, Note_on_c, 0, 74, 92
1, 169679, Note_on_c, 0, 86, 90
1, 169680, Note_off_c, 0, 71, 37
1, 169691, Note_on_c, 0, 69, 89
1, 169694, Note_on_c, 0, 66, 71
1, 169707, Note_off_c, 0, 74, 71
1, 169707, Note_off_c, 0, 86, 64
1, 169711, Note_off_c, 0, 69, 70
1, 169728, Note_off_c, 0, 66, 64
1, 169766, Note_on_c, 0, 75, 96
1, 169769, Note_on_c, 0, 87, 97
1, 169781, Note_on_c, 0, 70, 79
1, 169802, Note_off_c, 0, 87, 59
1, 169806, Note_on_c, 0, 67, 56
1, 169814, Note_off_c, 0, 75, 63
1, 169818, Note_off_c, 0, 70, 56
1, 169829, Note_off_c, 0, 67, 60
1, 169872, Note_on_c, 0, 70, 75
1, 169872, Note_on_c, 0, 88, 84
1, 169873, Note_on_c, 0, 76, 99
1, 169883, Note_on_c, 0, 67, 68
1, 169899, Note_off_c, 0, 70, 67
1, 169906, Note_off_c, 0, 76, 71
1, 169909, Note_on_c, 0, 86, 35
1, 169909, Note_off_c, 0, 88, 63
1, 169911, Note_off_c, 0, 67, 65
1, 169941, Note_off_c, 0, 86, 53
1, 169968, Note_on_c, 0, 67, 92
1, 169971, Note_on_c, 0, 75, 87
1, 169978, Note_on_c, 0, 85, 85
1, 169981, Note_on_c, 0, 64, 76
1, 169983, Note_on_c, 0, 73, 82
1, 169987, Note_on_c, 0, 87, 48
1, 169988, Note_off_c, 0, 87, 127
1, 169991, Note_off_c, 0, 85, 72
1, 169995, Note_off_c, 0, 75, 64
1, 170003, Note_off_c, 0, 73, 71
1, 170005, Note_off_c, 0, 64, 67
1, 170008, Note_off_c, 0, 67, 62
1, 170057, Note_on_c, 0, 85, 78
1, 170059, Note_on_c, 0, 64, 81
1, 170060, Note_on_c, 0, 73, 80
1, 170062, Note_on_c, 0, 67, 87
1, 170076, Note_off_c, 0, 85, 73
1, 170085, Note_off_c, 0, 73, 69
1, 170088, Note_off_c, 0, 67, 60
1, 170089, Note_on_c, 0, 82, 45
1, 170091, Note_on_c, 0, 72, 49
1, 170097, Note_on_c, 0, 84, 47
1, 170097, Control_c, 0, 64, 107
1, 170100, Note_off_c, 0, 64, 65
1, 170112, Note_off_c, 0, 72, 60
1, 170112, Control_c, 0, 64, 80
1, 170116, Note_off_c, 0, 82, 39
1, 170122, Note_off_c, 0, 84, 61
1, 170127, Control_c, 0, 64, 58
1, 170142, Control_c, 0, 64, 36
1, 170145, Note_on_c, 0, 71, 61
1, 170156, Note_on_c, 0, 83, 86
1, 170157, Control_c, 0, 64, 67
1, 170162, Note_on_c, 0, 62, 77
1, 170163, Note_on_c, 0, 65, 80
1, 170172, Control_c, 0, 64, 79
1, 170187, Control_c, 0, 64, 94
1, 170187, Note_off_c, 0, 65, 69
1, 170188, Note_off_c, 0, 62, 65
1, 170190, Note_off_c, 0, 83, 60
1, 170193, Note_off_c, 0, 71, 63
1, 170202, Control_c, 0, 64, 109
1, 170216, Control_c, 0, 64, 122
1, 170231, Control_c, 0, 64, 127
1, 170246, Note_on_c, 0, 62, 86
1, 170247, Note_on_c, 0, 70, 100
1, 170249, Note_on_c, 0, 82, 86
1, 170256, Note_on_c, 0, 65, 79
1, 170276, Note_off_c, 0, 65, 75
1, 170282, Note_off_c, 0, 62, 59
1, 170283, Note_off_c, 0, 70, 67
1, 170288, Note_off_c, 0, 82, 66
1, 170347, Note_on_c, 0, 66, 94
1, 170351, Note_on_c, 0, 78, 87
1, 170357, Note_on_c, 0, 63, 82
1, 170360, Note_on_c, 0, 68, 47
1, 170372, Note_on_c, 0, 79, 71
1, 170379, Note_off_c, 0, 63, 70
1, 170381, Note_on_c, 0, 58, 59
1, 170384, Note_off_c, 0, 66, 57
1, 170384, Note_off_c, 0, 68, 60
1, 170387, Note_off_c, 0, 79, 65
1, 170392, Note_off_c, 0, 78, 58
1, 170401, Note_off_c, 0, 58, 65
1, 170425, Control_c, 0, 64, 100
1, 170440, Control_c, 0, 64, 75
1, 170445, Note_on_c, 0, 63, 86
1, 170449, Note_on_c, 0, 67, 96
1, 170454, Note_on_c, 0, 79, 84
1, 170455, Control_c, 0, 64, 0
1, 170464, Note_on_c, 0, 58, 63
1, 170468, Note_off_c, 0, 63, 70
1, 170476, Note_on_c, 0, 54, 38
1, 170482, Note_off_c, 0, 67, 63
1, 170483, Note_off_c, 0, 58, 67
1, 170484, Control_c, 0, 64, 59
1, 170485, Note_on_c, 0, 77, 21
1, 170490, Note_off_c, 0, 79, 64
1, 170499, Control_c, 0, 64, 78
1, 170508, Note_off_c, 0, 54, 33
1, 170513, Control_c, 0, 64, 103
1, 170524, Note_off_c, 0, 77, 34
1, 170528, Control_c, 0, 64, 127
1, 170551, Note_on_c, 0, 66, 100
1, 170555, Note_on_c, 0, 78, 92
1, 170559, Note_on_c, 0, 60, 63
1, 170562, Note_on_c, 0, 56, 71
1, 170571, Note_on_c, 0, 58, 46
1, 170577, Note_off_c, 0, 66, 64
1, 170578, Note_off_c, 0, 60, 64
1, 170583, Note_off_c, 0, 78, 63
1, 170597, Note_off_c, 0, 58, 54
1, 170622, Note_off_c, 0, 56, 0
1, 170640, Note_on_c, 0, 65, 91
1, 170643, Note_on_c, 0, 56, 44
1, 170643, Note_on_c, 0, 77, 89
1, 170663, Note_on_c, 0, 59, 60
1, 170678, Note_off_c, 0, 77, 66
1, 170681, Note_off_c, 0, 65, 67
1, 170682, Note_off_c, 0, 59, 63
1, 170704, Note_off_c, 0, 56, 63
1, 170739, Note_on_c, 0, 64, 95
1, 170747, Note_on_c, 0, 74, 69
1, 170751, Note_on_c, 0, 57, 85
1, 170756, Note_on_c, 0, 76, 69
1, 170760, Note_on_c, 0, 54, 67
1, 170772, Note_off_c, 0, 76, 66
1, 170774, Note_off_c, 0, 74, 68
1, 170778, Note_off_c, 0, 57, 63
1, 170779, Note_off_c, 0, 64, 66
1, 170780, Note_on_c, 0, 62, 31
1, 170781, Note_off_c, 0, 62, 127
1, 170789, Note_on_c, 0, 73, 18
1, 170789, Note_off_c, 0, 54, 64
1, 170814, Poly_aftertouch_c, 0, 62, 0
1, 170829, Note_off_c, 0, 73, 32
1, 170836, Note_on_c, 0, 62, 76
1, 170843, Note_on_c, 0, 57, 82
1, 170847, Note_on_c, 0, 54, 78
1, 170852, Note_on_c, 0, 74, 71
1, 170866, Note_on_c, 0, 76, 48
1, 170869, Note_off_c, 0, 74, 71
1, 170875, Note_off_c, 0, 62, 63
1, 170878, Note_off_c, 0, 54, 55
1, 170879, Note_off_c, 0, 57, 59
1, 170894, Note_off_c, 0, 76, 46
1, 170933, Note_on_c, 0, 63, 94
1, 170941, Note_on_c, 0, 75, 89
1, 170947, Note_on_c, 0, 58, 83
1, 170950, Note_on_c, 0, 55, 64
1, 170968, Note_off_c, 0, 63, 66
1, 170974, Note_off_c, 0, 75, 64
1, 170980, Control_c, 0, 64, 125
1, 170982, Note_off_c, 0, 58, 60
1, 170995, Control_c, 0, 64, 89
1, 170996, Note_off_c, 0, 55, 55
1, 171009, Control_c, 0, 64, 69
1, 171024, Control_c, 0, 64, 63
1, 171027, Poly_aftertouch_c, 0, 73, 0
1, 171034, Note_on_c, 0, 58, 78
1, 171039, Control_c, 0, 64, 72
1, 171040, Note_on_c, 0, 64, 99
1, 171046, Note_on_c, 0, 76, 87
1, 171048, Note_on_c, 0, 55, 59
1, 171054, Control_c, 0, 64, 85
1, 171069, Control_c, 0, 64, 101
1, 171078, Note_off_c, 0, 64, 68
1, 171080, Note_off_c, 0, 76, 65
1, 171081, Note_off_c, 0, 58, 66
1, 171084, Control_c, 0, 64, 116
1, 171099, Control_c, 0, 64, 127
1, 171106, Note_off_c, 0, 55, 64
1, 171140, Note_on_c, 0, 63, 95
1, 171150, Note_on_c, 0, 75, 79
1, 171162, Note_off_c, 0, 63, 64
1, 171165, Note_on_c, 0, 73, 57
1, 171171, Note_off_c, 0, 75, 72
1, 171179, Note_on_c, 0, 61, 43
1, 171184, Note_off_c, 0, 73, 59
1, 171205, Note_off_c, 0, 61, 54
1, 171236, Note_on_c, 0, 60, 94
1, 171240, Poly_aftertouch_c, 0, 55, 127
1, 171243, Note_on_c, 0, 72, 81
1, 171253, Note_on_c, 0, 52, 42
1, 171257, Note_on_c, 0, 73, 48
1, 171260, Note_off_c, 0, 60, 65
1, 171262, Note_off_c, 0, 72, 73
1, 171291, Note_off_c, 0, 73, 54
1, 171293, Poly_aftertouch_c, 0, 55, 0
1, 171296, Note_off_c, 0, 52, 65
1, 171343, Note_on_c, 0, 59, 72
1, 171343, Note_on_c, 0, 71, 80
1, 171347, Note_on_c, 0, 58, 73
1, 171357, Note_on_c, 0, 57, 61
1, 171365, Note_off_c, 0, 71, 69
1, 171367, Note_off_c, 0, 59, 67
1, 171376, Note_off_c, 0, 58, 67
1, 171380, Note_off_c, 0, 57, 60
1, 171441, Poly_aftertouch_c, 0, 50, 127
1, 171443, Note_on_c, 0, 58, 71
1, 171445, Note_on_c, 0, 70, 68
1, 171446, Note_on_c, 0, 56, 81
1, 171448, Note_on_c, 0, 68, 79
1, 171452, Note_on_c, 0, 50, 15
1, 171453, Note_on_c, 0, 53, 44
1, 171461, Note_off_c, 0, 70, 66
1, 171463, Note_off_c, 0, 68, 69
1, 171464, Note_off_c, 0, 58, 62
1, 171467, Note_off_c, 0, 56, 68
1, 171484, Note_off_c, 0, 53, 66
1, 171489, Note_off_c, 0, 50, 60
1, 171597, Control_c, 0, 64, 101
1, 171612, Control_c, 0, 64, 70
1, 171626, Control_c, 0, 64, 0
1, 171632, Note_on_c, 0, 51, 83
1, 171636, Note_on_c, 0, 46, 83
1, 171645, Note_on_c, 0, 55, 91
1, 171646, Note_on_c, 0, 67, 93
1, 171670, Control_c, 0, 64, 52
1, 171671, Note_off_c, 0, 55, 66
1, 171672, Note_off_c, 0, 46, 65
1, 171672, Note_off_c, 0, 51, 62
1, 171676, Note_off_c, 0, 67, 65
1, 171685, Control_c, 0, 64, 78
1, 171700, Control_c, 0, 64, 101
1, 171715, Control_c, 0, 64, 122
1, 171730, Control_c, 0, 64, 127
1, 171740, Note_on_c, 0, 51, 87
1, 171744, Note_on_c, 0, 54, 92
1, 171749, Note_on_c, 0, 66, 86
1, 171756, Note_on_c, 0, 46, 73
1, 171762, Note_off_c, 0, 51, 66
1, 171774, Note_off_c, 0, 54, 61
1, 171779, Note_off_c, 0, 66, 60
1, 171781, Note_off_c, 0, 46, 68
1, 171847, Note_on_c, 0, 47, 85
1, 171847, Note_on_c, 0, 53, 93
1, 171849, Note_on_c, 0, 44, 79
1, 171856, Note_on_c, 0, 65, 82
1, 171874, Note_on_c, 0, 64, 57
1, 171878, Note_off_c, 0, 47, 67
1, 171879, Note_off_c, 0, 65, 71
1, 171884, Note_off_c, 0, 53, 63
1, 171892, Note_off_c, 0, 44, 62
1, 171892, Note_off_c, 0, 64, 60
1, 171954, Note_on_c, 0, 44, 68
1, 171957, Note_on_c, 0, 52, 91
1, 171958, Note_on_c, 0, 62, 74
1, 171963, Note_on_c, 0, 47, 72
1, 171972, Note_on_c, 0, 64, 60
1, 171984, Note_off_c, 0, 52, 68
1, 171988, Note_off_c, 0, 64, 64
1, 171990, Note_off_c, 0, 62, 64
1, 171991, Note_off_c, 0, 47, 67
1, 171996, Note_off_c, 0, 44, 64
1, 171997, Note_on_c, 0, 45, 33
1, 172042, Note_off_c, 0, 45, 50
1, 172047, Poly_aftertouch_c, 0, 50, 0
1, 172057, Note_on_c, 0, 50, 66
1, 172065, Note_on_c, 0, 45, 78
1, 172068, Note_on_c, 0, 62, 93
1, 172076, Note_on_c, 0, 42, 82
1, 172093, Control_c, 0, 64, 113
1, 172099, Note_off_c, 0, 62, 63
1, 172103, Note_off_c, 0, 50, 64
1, 172108, Control_c, 0, 64, 88
1, 172110, Note_off_c, 0, 45, 65
1, 172112, Note_off_c, 0, 42, 65
1, 172123, Control_c, 0, 64, 64
1, 172138, Control_c, 0, 64, 0
1, 172163, Note_on_c, 0, 51, 96
1, 172167, Note_on_c, 0, 45, 83
1, 172172, Note_on_c, 0, 63, 83
1, 172182, Control_c, 0, 64, 52
1, 172185, Note_on_c, 0, 42, 62
1, 172189, Note_on_c, 0, 61, 53
1, 172197, Control_c, 0, 64, 73
1, 172199, Note_off_c, 0, 51, 61
1, 172202, Note_off_c, 0, 63, 66
1, 172207, Note_off_c, 0, 45, 67
1, 172211, Control_c, 0, 64, 81
1, 172212, Note_off_c, 0, 61, 40
1, 172221, Note_off_c, 0, 42, 63
1, 172226, Control_c, 0, 64, 86
1, 172241, Control_c, 0, 64, 87
1, 172256, Control_c, 0, 64, 87
1, 172270, Note_on_c, 0, 52, 94
1, 172271, Control_c, 0, 64, 88
1, 172274, Note_on_c, 0, 46, 95
1, 172276, Note_on_c, 0, 43, 76
1, 172276, Note_on_c, 0, 64, 91
1, 172285, Control_c, 0, 64, 89
1, 172300, Control_c, 0, 64, 89
1, 172310, Note_off_c, 0, 52, 66
1, 172312, Note_off_c, 0, 64, 61
1, 172315, Control_c, 0, 64, 90
1, 172325, Note_off_c, 0, 46, 61
1, 172327, Note_off_c, 0, 43, 56
1, 172330, Control_c, 0, 64, 91
1, 172345, Control_c, 0, 64, 91
1, 172360, Control_c, 0, 64, 92
1, 172372, Note_on_c, 0, 46, 75
1, 172372, Note_on_c, 0, 51, 100
1, 172375, Control_c, 0, 64, 92
1, 172377, Note_on_c, 0, 63, 85
1, 172387, Note_on_c, 0, 43, 63
1, 172399, Note_on_c, 0, 61, 61
1, 172405, Control_c, 0, 64, 93
1, 172407, Note_off_c, 0, 63, 64
1, 172412, Note_off_c, 0, 51, 61
1, 172419, Note_off_c, 0, 61, 63
1, 172419, Control_c, 0, 64, 94
1, 172422, Note_off_c, 0, 46, 64
1, 172430, Note_off_c, 0, 43, 59
1, 172434, Control_c, 0, 64, 96
1, 172449, Control_c, 0, 64, 97
1, 172469, Poly_aftertouch_c, 0, 56, 0
1, 172473, Note_on_c, 0, 49, 99
1, 172478, Note_on_c, 0, 61, 96
1, 172479, Note_on_c, 0, 46, 77
1, 172483, Note_on_c, 0, 43, 65
1, 172508, Control_c, 0, 64, 98
1, 172515, Note_on_c, 0, 54, 36
1, 172516, Note_off_c, 0, 54, 127
1, 172516, Note_off_c, 0, 61, 67
1, 172520, Note_off_c, 0, 49, 63
1, 172523, Control_c, 0, 64, 98
1, 172524, Note_off_c, 0, 46, 63
1, 172532, Note_on_c, 0, 48, 10
1, 172533, Note_off_c, 0, 43, 59
1, 172554, Poly_aftertouch_c, 0, 54, 0
1, 172581, Note_off_c, 0, 48, 36
1, 172586, Note_on_c, 0, 47, 98
1, 172589, Note_on_c, 0, 46, 84
1, 172592, Note_on_c, 0, 43, 77
1, 172592, Note_on_c, 0, 59, 88
1, 172625, Note_off_c, 0, 46, 65
1, 172632, Note_off_c, 0, 47, 66
1, 172633, Note_off_c, 0, 59, 65
1, 172637, Note_off_c, 0, 43, 59
1, 172687, Control_c, 0, 64, 99
1, 172704, Note_on_c, 0, 46, 103
1, 172709, Note_on_c, 0, 58, 89
1, 172715, Note_on_c, 0, 47, 95
1, 172716, Control_c, 0, 64, 98
1, 172721, Note_on_c, 0, 38, 86
1, 172744, Note_off_c, 0, 46, 63
1, 172746, Control_c, 0, 64, 99
1, 172757, Note_off_c, 0, 47, 65
1, 172757, Note_off_c, 0, 58, 64
1, 172760, Note_off_c, 0, 38, 62
1, 172819, Poly_aftertouch_c, 0, 56, 0
1, 172828, Note_on_c, 0, 56, 74
1, 172846, Note_on_c, 0, 47, 91
1, 172849, Note_on_c, 0, 38, 83
1, 172889, Note_off_c, 0, 56, 64
1, 172892, Note_off_c, 0, 47, 62
1, 172912, Note_off_c, 0, 38, 59
1, 172961, Control_c, 0, 64, 95
1, 172976, Control_c, 0, 64, 85
1, 172990, Control_c, 0, 64, 66
1, 173005, Control_c, 0, 64, 0
1, 173017, Note_on_c, 0, 46, 95
1, 173021, Note_on_c, 0, 55, 96
1, 173023, Note_on_c, 0, 39, 78
1, 173093, Control_c, 0, 64, 62
1, 173108, Control_c, 0, 64, 72
1, 173123, Control_c, 0, 64, 77
1, 173124, Note_off_c, 0, 55, 55
1, 173138, Control_c, 0, 64, 80
1, 173153, Control_c, 0, 64, 82
1, 173168, Control_c, 0, 64, 84
1, 173182, Control_c, 0, 64, 86
1, 173197, Control_c, 0, 64, 89
1, 173212, Control_c, 0, 64, 91
1, 173218, Note_off_c, 0, 46, 61
1, 173227, Control_c, 0, 64, 93
1, 173228, Note_off_c, 0, 39, 62
1, 173241, Control_c, 0, 64, 94
1, 173254, Note_on_c, 0, 50, 84
1, 173256, Control_c, 0, 64, 95
1, 173257, Note_on_c, 0, 62, 81
1, 173271, Control_c, 0, 64, 96
1, 173285, Note_off_c, 0, 50, 64
1, 173286, Control_c, 0, 64, 97
1, 173301, Note_off_c, 0, 62, 62
1, 173301, Control_c, 0, 64, 98
1, 173315, Control_c, 0, 64, 99
1, 173330, Control_c, 0, 64, 99
1, 173348, Note_on_c, 0, 50, 84
1, 173375, Control_c, 0, 64, 100
1, 173389, Control_c, 0, 64, 100
1, 173396, Note_off_c, 0, 50, 62
1, 173404, Control_c, 0, 64, 101
1, 173408, Note_on_c, 0, 63, 87
1, 173409, Note_on_c, 0, 51, 82
1, 173419, Control_c, 0, 64, 103
1, 173431, Note_off_c, 0, 51, 68
1, 173431, Note_off_c, 0, 63, 66
1, 173433, Control_c, 0, 64, 104
1, 173448, Control_c, 0, 64, 104
1, 173464, Control_c, 0, 64, 105
1, 173479, Control_c, 0, 64, 107
1, 173482, Note_on_c, 0, 51, 82
1, 173494, Control_c, 0, 64, 108
1, 173524, Control_c, 0, 64, 108
1, 173539, Note_off_c, 0, 51, 61
1, 173551, Note_on_c, 0, 57, 82
1, 173553, Note_on_c, 0, 69, 85
1, 173561, Control_c, 0, 64, 109
1, 173576, Control_c, 0, 64, 110
1, 173576, Note_off_c, 0, 57, 65
1, 173577, Note_off_c, 0, 69, 66
1, 173591, Control_c, 0, 64, 110
1, 173606, Control_c, 0, 64, 111
1, 173618, Note_on_c, 0, 57, 81
1, 173620, Control_c, 0, 64, 112
1, 173635, Control_c, 0, 64, 117
1, 173650, Control_c, 0, 64, 127
1, 173656, Note_off_c, 0, 57, 63
1, 173675, Note_on_c, 0, 58, 93
1, 173675, Note_on_c, 0, 70, 90
1, 173697, Note_off_c, 0, 58, 68
1, 173708, Note_off_c, 0, 70, 55
1, 173727, Poly_aftertouch_c, 0, 58, 0
1, 173732, Note_on_c, 0, 58, 84
1, 173738, Control_c, 0, 64, 110
1, 173753, Control_c, 0, 64, 87
1, 173768, Control_c, 0, 64, 62
1, 173779, Note_off_c, 0, 58, 65
1, 173783, Control_c, 0, 64, 0
1, 173797, Note_on_c, 0, 62, 92
1, 173801, Note_on_c, 0, 74, 83
1, 173812, Control_c, 0, 64, 60
1, 173827, Control_c, 0, 64, 76
1, 173832, Note_off_c, 0, 62, 62
1, 173835, Note_off_c, 0, 74, 68
1, 173841, Note_on_c, 0, 73, 28
1, 173842, Note_off_c, 0, 73, 127
1, 173842, Control_c, 0, 64, 92
1, 173856, Control_c, 0, 64, 107
1, 173867, Note_on_c, 0, 62, 88
1, 173871, Control_c, 0, 64, 112
1, 173884, Note_on_c, 0, 50, 74
1, 173886, Control_c, 0, 64, 117
1, 173901, Control_c, 0, 64, 127
1, 173908, Note_off_c, 0, 50, 67
1, 173913, Note_off_c, 0, 62, 59
1, 173919, Note_on_c, 0, 63, 96
1, 173922, Note_on_c, 0, 75, 95
1, 173946, Note_off_c, 0, 63, 64
1, 173957, Note_off_c, 0, 75, 61
1, 173984, Note_on_c, 0, 63, 83
1, 173991, Note_on_c, 0, 51, 84
1, 174017, Note_off_c, 0, 63, 64
1, 174018, Note_off_c, 0, 51, 67
1, 174044, Note_on_c, 0, 69, 89
1, 174050, Note_on_c, 0, 81, 90
1, 174077, Note_off_c, 0, 69, 64
1, 174079, Note_off_c, 0, 81, 61
1, 174108, Note_on_c, 0, 69, 86
1, 174117, Note_on_c, 0, 57, 80
1, 174146, Note_off_c, 0, 57, 65
1, 174150, Note_off_c, 0, 69, 66
1, 174158, Note_on_c, 0, 70, 98
1, 174163, Note_on_c, 0, 82, 86
1, 174189, Note_off_c, 0, 70, 60
1, 174202, Note_off_c, 0, 82, 63
1, 174202, Note_on_c, 0, 80, 28
1, 174211, Poly_aftertouch_c, 0, 63, 0
1, 174232, Note_on_c, 0, 70, 83
1, 174236, Note_off_c, 0, 80, 56
1, 174241, Note_on_c, 0, 61, 78
1, 174247, Note_off_c, 0, 70, 74
1, 174259, Note_on_c, 0, 59, 56
1, 174265, Note_off_c, 0, 61, 69
1, 174285, Note_on_c, 0, 76, 87
1, 174287, Note_off_c, 0, 59, 59
1, 174291, Note_on_c, 0, 86, 84
1, 174315, Note_on_c, 0, 74, 53
1, 174316, Note_off_c, 0, 74, 127
1, 174320, Note_off_c, 0, 76, 69
1, 174323, Note_on_c, 0, 85, 34
1, 174325, Note_off_c, 0, 86, 67
1, 174356, Note_off_c, 0, 85, 34
1, 174363, Note_on_c, 0, 74, 79
1, 174374, Note_on_c, 0, 62, 75
1, 174396, Note_off_c, 0, 62, 69
1, 174399, Note_off_c, 0, 74, 65
1, 174402, Note_on_c, 0, 87, 94
1, 174403, Note_on_c, 0, 75, 98
1, 174425, Note_off_c, 0, 75, 65
1, 174428, Note_on_c, 0, 85, 58
1, 174429, Note_off_c, 0, 85, 127
1, 174436, Note_off_c, 0, 87, 65
1, 174475, Note_on_c, 0, 75, 94
1, 174479, Note_on_c, 0, 63, 90
1, 174499, Note_off_c, 0, 75, 65
1, 174505, Note_off_c, 0, 63, 67
1, 174523, Note_on_c, 0, 81, 91
1, 174525, Note_on_c, 0, 93, 98
1, 174557, Note_off_c, 0, 81, 65
1, 174559, Note_off_c, 0, 93, 65
1, 174590, Poly_aftertouch_c, 0, 81, 0
1, 174593, Note_on_c, 0, 81, 83
1, 174601, Note_on_c, 0, 69, 81
1, 174640, Note_off_c, 0, 81, 62
1, 174642, Note_off_c, 0, 69, 63
1, 174644, Note_on_c, 0, 82, 99
1, 174646, Note_on_c, 0, 94, 98
1, 174676, Note_off_c, 0, 82, 67
1, 174682, Note_on_c, 0, 95, 51
1, 174688, Note_off_c, 0, 94, 65
1, 174703, Note_off_c, 0, 95, 38
1, 174723, Note_on_c, 0, 82, 90
1, 174724, Note_on_c, 0, 70, 84
1, 174747, Note_off_c, 0, 82, 62
1, 174761, Note_off_c, 0, 70, 65
1, 174777, Note_on_c, 0, 86, 97
1, 174777, Note_on_c, 0, 98, 100
1, 174795, Note_on_c, 0, 97, 69
1, 174798, Control_c, 0, 64, 105
1, 174807, Note_off_c, 0, 86, 69
1, 174810, Note_off_c, 0, 97, 42
1, 174813, Control_c, 0, 64, 80
1, 174815, Note_off_c, 0, 98, 67
1, 174828, Control_c, 0, 64, 0
1, 174850, Note_on_c, 0, 86, 90
1, 174858, Note_on_c, 0, 74, 77
1, 174873, Control_c, 0, 64, 32
1, 174887, Note_off_c, 0, 74, 57
1, 174887, Control_c, 0, 64, 71
1, 174892, Note_off_c, 0, 86, 64
1, 174902, Control_c, 0, 64, 89
1, 174908, Note_on_c, 0, 87, 101
1, 174908, Note_on_c, 0, 99, 106
1, 174917, Control_c, 0, 64, 108
1, 174932, Control_c, 0, 64, 121
1, 174945, Note_off_c, 0, 87, 64
1, 174947, Control_c, 0, 64, 127
1, 174953, Note_off_c, 0, 99, 69
1, 174981, Poly_aftertouch_c, 0, 87, 0
1, 174985, Note_on_c, 0, 87, 90
1, 174994, Note_on_c, 0, 75, 80
1, 175020, Note_off_c, 0, 87, 65
1, 175045, Note_off_c, 0, 75, 66
1, 175066, Note_on_c, 0, 86, 96
1, 175068, Note_on_c, 0, 98, 101
1, 175093, Note_on_c, 0, 97, 55
1, 175102, Note_off_c, 0, 86, 67
1, 175109, Note_off_c, 0, 98, 66
1, 175117, Note_off_c, 0, 97, 38
1, 175135, Note_on_c, 0, 86, 92
1, 175144, Note_on_c, 0, 74, 86
1, 175183, Note_off_c, 0, 86, 66
1, 175185, Note_off_c, 0, 74, 67
1, 175215, Note_on_c, 0, 87, 107
1, 175216, Note_on_c, 0, 99, 104
1, 175248, Note_off_c, 0, 87, 65
1, 175258, Note_off_c, 0, 99, 68
1, 175299, Note_on_c, 0, 87, 94
1, 175304, Note_on_c, 0, 75, 88
1, 175335, Note_off_c, 0, 87, 68
1, 175352, Note_off_c, 0, 75, 67
1, 175376, Note_on_c, 0, 86, 96
1, 175379, Note_on_c, 0, 98, 98
1, 175403, Note_on_c, 0, 97, 61
1, 175411, Note_off_c, 0, 86, 69
1, 175415, Note_off_c, 0, 98, 67
1, 175423, Note_off_c, 0, 97, 39
1, 175466, Note_on_c, 0, 86, 97
1, 175471, Note_on_c, 0, 74, 89
1, 175508, Note_off_c, 0, 86, 70
1, 175518, Control_c, 0, 64, 101
1, 175532, Note_off_c, 0, 74, 60
1, 175533, Control_c, 0, 64, 75
1, 175548, Control_c, 0, 64, 0
1, 175581, Note_on_c, 0, 87, 100
1, 175582, Note_on_c, 0, 99, 97
1, 175592, Control_c, 0, 64, 46
1, 175607, Control_c, 0, 64, 76
1, 175617, Note_off_c, 0, 87, 66
1, 175622, Control_c, 0, 64, 104
1, 175625, Note_off_c, 0, 99, 67
1, 175636, Control_c, 0, 64, 127
1, 175696, Note_on_c, 0, 87, 92
1, 175709, Note_on_c, 0, 75, 71
1, 175737, Note_off_c, 0, 87, 62
1, 175748, Note_off_c, 0, 75, 59
1, 175770, Note_on_c, 0, 87, 90
1, 175776, Note_on_c, 0, 99, 93
1, 175814, Note_off_c, 0, 87, 66
1, 175826, Note_off_c, 0, 99, 68
1, 175859, Note_on_c, 0, 85, 89
1, 175873, Note_on_c, 0, 73, 75
1, 175900, Note_off_c, 0, 85, 66
1, 175910, Note_off_c, 0, 73, 57
1, 175925, Note_on_c, 0, 87, 88
1, 175928, Note_on_c, 0, 99, 93
1, 175964, Note_off_c, 0, 87, 62
1, 175970, Note_off_c, 0, 99, 68
1, 175994, Note_on_c, 0, 82, 88
1, 176003, Note_on_c, 0, 70, 83
1, 176031, Note_off_c, 0, 82, 62
1, 176033, Note_off_c, 0, 70, 61
1, 176053, Note_on_c, 0, 99, 91
1, 176054, Note_on_c, 0, 87, 98
1, 176095, Note_off_c, 0, 87, 62
1, 176095, Note_off_c, 0, 99, 70
1, 176120, Note_on_c, 0, 79, 86
1, 176127, Note_on_c, 0, 67, 81
1, 176146, Note_off_c, 0, 79, 58
1, 176151, Note_off_c, 0, 67, 66
1, 176172, Note_on_c, 0, 87, 99
1, 176176, Note_on_c, 0, 99, 98
1, 176205, Note_off_c, 0, 87, 66
1, 176217, Note_off_c, 0, 99, 68
1, 176241, Note_on_c, 0, 75, 87
1, 176249, Note_on_c, 0, 63, 80
1, 176284, Note_off_c, 0, 75, 63
1, 176289, Note_off_c, 0, 63, 54
1, 176295, Note_on_c, 0, 87, 98
1, 176296, Note_on_c, 0, 99, 98
1, 176327, Note_off_c, 0, 87, 66
1, 176342, Note_off_c, 0, 99, 68
1, 176357, Note_on_c, 0, 73, 90
1, 176362, Note_on_c, 0, 61, 83
1, 176399, Note_off_c, 0, 73, 63
1, 176415, Note_on_c, 0, 87, 100
1, 176415, Note_on_c, 0, 99, 101
1, 176419, Note_off_c, 0, 61, 63
1, 176448, Note_off_c, 0, 87, 65
1, 176460, Note_off_c, 0, 99, 67
1, 176474, Note_on_c, 0, 70, 93
1, 176490, Note_on_c, 0, 58, 78
1, 176512, Note_off_c, 0, 70, 65
1, 176535, Note_off_c, 0, 58, 58
1, 176548, Note_on_c, 0, 87, 102
1, 176549, Note_on_c, 0, 99, 103
1, 176583, Note_off_c, 0, 87, 64
1, 176593, Poly_aftertouch_c, 0, 63, 0
1, 176596, Note_off_c, 0, 99, 68
1, 176603, Note_on_c, 0, 67, 90
1, 176615, Note_on_c, 0, 55, 83
1, 176645, Note_off_c, 0, 67, 64
1, 176658, Note_off_c, 0, 55, 63
1, 176675, Note_on_c, 0, 87, 107
1, 176676, Note_on_c, 0, 99, 100
1, 176709, Note_off_c, 0, 87, 65
1, 176725, Note_off_c, 0, 99, 68
1, 176735, Note_on_c, 0, 63, 91
1, 176748, Note_on_c, 0, 51, 80
1, 176788, Note_off_c, 0, 63, 65
1, 176810, Note_on_c, 0, 87, 104
1, 176813, Note_on_c, 0, 99, 100
1, 176816, Note_off_c, 0, 51, 62
1, 176844, Poly_aftertouch_c, 0, 56, 0
1, 176844, Note_off_c, 0, 87, 66
1, 176862, Note_off_c, 0, 99, 67
1, 176882, Note_on_c, 0, 61, 91
1, 176890, Note_on_c, 0, 49, 83
1, 176936, Note_off_c, 0, 61, 63
1, 176955, Note_off_c, 0, 49, 61
1, 176961, Note_on_c, 0, 87, 104
1, 176962, Note_on_c, 0, 99, 105
1, 176996, Note_off_c, 0, 87, 66
1, 177010, Note_off_c, 0, 99, 67
1, 177026, Note_on_c, 0, 58, 87
1, 177035, Note_on_c, 0, 46, 85
1, 177068, Note_off_c, 0, 58, 66
1, 177095, Note_off_c, 0, 46, 61
1, 177123, Note_on_c, 0, 87, 107
1, 177126, Note_on_c, 0, 99, 101
1, 177141, Note_on_c, 0, 97, 69
1, 177142, Note_off_c, 0, 97, 127
1, 177161, Note_off_c, 0, 87, 65
1, 177174, Note_on_c, 0, 55, 91
1, 177174, Note_off_c, 0, 99, 67
1, 177180, Note_on_c, 0, 43, 85
1, 177220, Note_off_c, 0, 55, 64
1, 177231, Note_off_c, 0, 43, 62
1, 177296, Note_on_c, 0, 87, 103
1, 177297, Note_on_c, 0, 99, 104
1, 177331, Note_off_c, 0, 87, 65
1, 177344, Note_off_c, 0, 99, 69
1, 177394, Note_on_c, 0, 51, 95
1, 177401, Note_on_c, 0, 39, 84
1, 177437, Control_c, 0, 64, 109
1, 177453, Control_c, 0, 64, 83
1, 177468, Control_c, 0, 64, 49
1, 177483, Control_c, 0, 64, 0
1, 177534, Note_on_c, 0, 87, 92
1, 177534, Note_on_c, 0, 99, 96
1, 177552, Note_on_c, 0, 94, 68
1, 177553, Note_off_c, 0, 94, 127
1, 177563, Note_off_c, 0, 87, 63
1, 177567, Note_on_c, 0, 97, 42
1, 177568, Note_off_c, 0, 97, 127
1, 177572, Control_c, 0, 64, 42
1, 177576, Note_off_c, 0, 99, 68
1, 177586, Control_c, 0, 64, 62
1, 177601, Control_c, 0, 64, 67
1, 177616, Control_c, 0, 64, 72
1, 177630, Control_c, 0, 64, 81
1, 177645, Control_c, 0, 64, 90
1, 177660, Control_c, 0, 64, 96
1, 177663, Note_on_c, 0, 87, 93
1, 177666, Note_off_c, 0, 39, 61
1, 177669, Note_on_c, 0, 99, 87
1, 177675, Control_c, 0, 64, 99
1, 177679, Note_off_c, 0, 51, 61
1, 177687, Note_off_c, 0, 87, 64
1, 177690, Control_c, 0, 64, 101
1, 177700, Note_off_c, 0, 99, 66
1, 177705, Control_c, 0, 64, 105
1, 177720, Control_c, 0, 64, 111
1, 177734, Control_c, 0, 64, 116
1, 177749, Control_c, 0, 64, 121
1, 177764, Control_c, 0, 64, 127
1, 177770, Note_on_c, 0, 87, 89
1, 177771, Note_on_c, 0, 99, 95
1, 177779, Control_c, 0, 64, 127
1, 177786, Note_off_c, 0, 87, 72
1, 177800, Note_off_c, 0, 99, 63
1, 177862, Note_on_c, 0, 87, 87
1, 177866, Note_on_c, 0, 99, 84
1, 177880, Note_off_c, 0, 87, 71
1, 177887, Note_off_c, 0, 99, 72
1, 177950, Note_on_c, 0, 87, 90
1, 177954, Note_on_c, 0, 99, 81
1, 177970, Note_off_c, 0, 87, 68
1, 177979, Note_off_c, 0, 99, 66
1, 178044, Note_on_c, 0, 87, 96
1, 178053, Note_on_c, 0, 99, 85
1, 178071, Note_off_c, 0, 87, 59
1, 178075, Note_off_c, 0, 99, 70
1, 178137, Note_on_c, 0, 87, 93
1, 178143, Note_on_c, 0, 99, 87
1, 178165, Note_off_c, 0, 99, 71
1, 178167, Note_off_c, 0, 87, 60
1, 178231, Note_on_c, 0, 87, 88
1, 178233, Note_on_c, 0, 99, 87
1, 178254, Note_off_c, 0, 87, 66
1, 178256, Note_off_c, 0, 99, 69
1, 178326, Note_on_c, 0, 87, 87
1, 178328, Note_on_c, 0, 99, 87
1, 178344, Note_off_c, 0, 87, 72
1, 178347, Note_off_c, 0, 99, 71
1, 178415, Note_on_c, 0, 87, 82
1, 178417, Note_on_c, 0, 99, 88
1, 178435, Note_off_c, 0, 87, 71
1, 178437, Note_off_c, 0, 99, 71
1, 178506, Note_on_c, 0, 87, 88
1, 178508, Note_on_c, 0, 99, 89
1, 178524, Note_off_c, 0, 87, 68
1, 178527, Note_off_c, 0, 99, 69
1, 178593, Note_on_c, 0, 87, 84
1, 178596, Note_on_c, 0, 99, 84
1, 178612, Note_off_c, 0, 87, 68
1, 178619, Note_off_c, 0, 99, 67
1, 178677, Note_on_c, 0, 87, 87
1, 178679, Note_on_c, 0, 99, 92
1, 178702, Note_off_c, 0, 87, 62
1, 178716, Note_off_c, 0, 99, 64
1, 178765, Note_on_c, 0, 99, 89
1, 178766, Note_on_c, 0, 87, 89
1, 178802, Note_off_c, 0, 87, 61
1, 178819, Note_off_c, 0, 99, 63
1, 178859, Note_on_c, 0, 99, 84
1, 178861, Note_on_c, 0, 87, 85
1, 178895, Note_off_c, 0, 87, 62
1, 178903, Note_off_c, 0, 99, 68
1, 178953, Note_on_c, 0, 99, 89
1, 178954, Note_on_c, 0, 87, 88
1, 178991, Note_off_c, 0, 87, 64
1, 179001, Note_off_c, 0, 99, 67
1, 179023, Control_c, 0, 64, 102
1, 179038, Control_c, 0, 64, 78
1, 179039, Note_on_c, 0, 63, 89
1, 179046, Note_on_c, 0, 87, 91
1, 179046, Note_on_c, 0, 99, 90
1, 179054, Control_c, 0, 64, 0
1, 179078, Note_on_c, 0, 97, 51
1, 179079, Note_off_c, 0, 97, 127
1, 179083, Control_c, 0, 64, 40
1, 179085, Note_off_c, 0, 87, 66
1, 179098, Control_c, 0, 64, 72
1, 179099, Note_off_c, 0, 63, 65
1, 179107, Note_off_c, 0, 99, 67
1, 179113, Control_c, 0, 64, 91
1, 179128, Control_c, 0, 64, 122
1, 179143, Control_c, 0, 64, 127
1, 179155, Note_on_c, 0, 99, 87
1, 179158, Note_on_c, 0, 87, 92
1, 179192, Note_off_c, 0, 87, 61
1, 179208, Note_off_c, 0, 99, 67
1, 179283, Note_on_c, 0, 87, 104
1, 179284, Note_on_c, 0, 75, 105
1, 179284, Note_on_c, 0, 99, 96
1, 179302, Note_on_c, 0, 97, 71
1, 179314, Note_off_c, 0, 75, 66
1, 179317, Note_off_c, 0, 87, 66
1, 179319, Note_off_c, 0, 97, 44
1, 179324, Note_off_c, 0, 99, 69
1, 179407, Note_on_c, 0, 87, 97
1, 179408, Note_on_c, 0, 99, 97
1, 179445, Note_off_c, 0, 87, 65
1, 179457, Note_off_c, 0, 99, 68
1, 179529, Note_on_c, 0, 87, 97
1, 179532, Note_on_c, 0, 99, 91
1, 179576, Note_off_c, 0, 87, 64
1, 179588, Note_off_c, 0, 99, 67
1, 179647, Note_on_c, 0, 87, 99
1, 179651, Note_on_c, 0, 99, 88
1, 179699, Note_off_c, 0, 87, 62
1, 179708, Note_off_c, 0, 99, 68
1, 179784, Note_on_c, 0, 85, 96
1, 179788, Note_on_c, 0, 97, 96
1, 179821, Note_off_c, 0, 85, 66
1, 179835, Note_off_c, 0, 97, 65
1, 179905, Note_on_c, 0, 85, 86
1, 179905, Note_on_c, 0, 97, 87
1, 179947, Note_off_c, 0, 85, 61
1, 179955, Note_off_c, 0, 97, 63
1, 179980, Control_c, 0, 64, 114
1, 179995, Control_c, 0, 64, 87
1, 180010, Control_c, 0, 64, 59
1, 180024, Control_c, 0, 64, 0
1, 180051, Note_on_c, 0, 44, 88
1, 180052, Note_on_c, 0, 32, 78
1, 180054, Control_c, 0, 64, 47
1, 180063, Note_on_c, 0, 83, 89
1, 180064, Note_on_c, 0, 95, 94
1, 180069, Control_c, 0, 64, 77
1, 180080, Note_off_c, 0, 44, 67
1, 180082, Note_off_c, 0, 32, 64
1, 180084, Control_c, 0, 64, 99
1, 180098, Control_c, 0, 64, 127
1, 180102, Note_off_c, 0, 95, 68
1, 180103, Note_off_c, 0, 83, 59
1, 180185, Note_on_c, 0, 83, 87
1, 180188, Note_on_c, 0, 95, 88
1, 180223, Note_off_c, 0, 83, 58
1, 180228, Note_off_c, 0, 95, 64
1, 180292, Note_on_c, 0, 83, 84
1, 180293, Note_on_c, 0, 95, 82
1, 180299, Note_on_c, 0, 51, 64
1, 180300, Note_on_c, 0, 63, 71
1, 180320, Note_off_c, 0, 51, 62
1, 180321, Note_on_c, 0, 59, 43
1, 180326, Note_off_c, 0, 63, 68
1, 180337, Note_off_c, 0, 83, 61
1, 180337, Note_off_c, 0, 95, 64
1, 180349, Note_off_c, 0, 59, 53
1, 180384, Note_on_c, 0, 83, 77
1, 180386, Note_on_c, 0, 95, 79
1, 180399, Note_on_c, 0, 63, 75
1, 180407, Note_on_c, 0, 59, 69
1, 180422, Note_off_c, 0, 83, 63
1, 180424, Note_off_c, 0, 95, 65
1, 180433, Note_off_c, 0, 59, 64
1, 180433, Note_off_c, 0, 63, 61
1, 180485, Note_on_c, 0, 82, 101
1, 180489, Note_on_c, 0, 63, 80
1, 180489, Note_on_c, 0, 94, 88
1, 180501, Note_on_c, 0, 56, 74
1, 180507, Note_on_c, 0, 92, 69
1, 180514, Note_off_c, 0, 63, 68
1, 180520, Note_off_c, 0, 82, 66
1, 180524, Note_off_c, 0, 92, 42
1, 180526, Note_off_c, 0, 94, 66
1, 180534, Note_off_c, 0, 56, 65
1, 180535, Note_on_c, 0, 59, 4
1, 180571, Note_off_c, 0, 59, 44
1, 180593, Note_on_c, 0, 82, 77
1, 180593, Note_on_c, 0, 94, 76
1, 180610, Control_c, 0, 64, 123
1, 180617, Note_off_c, 0, 82, 65
1, 180620, Note_off_c, 0, 94, 62
1, 180624, Control_c, 0, 64, 91
1, 180639, Control_c, 0, 64, 62
1, 180655, Control_c, 0, 64, 0
1, 180696, Note_on_c, 0, 47, 98
1, 180697, Note_on_c, 0, 80, 93
1, 180699, Note_on_c, 0, 92, 88
1, 180700, Control_c, 0, 64, 67
1, 180706, Note_on_c, 0, 35, 83
1, 180715, Control_c, 0, 64, 87
1, 180728, Note_off_c, 0, 35, 67
1, 180729, Note_on_c, 0, 90, 51
1, 180730, Note_off_c, 0, 90, 127
1, 180730, Control_c, 0, 64, 113
1, 180732, Note_off_c, 0, 47, 63
1, 180742, Note_off_c, 0, 80, 63
1, 180742, Note_off_c, 0, 92, 63
1, 180744, Control_c, 0, 64, 127
1, 180795, Note_on_c, 0, 80, 79
1, 180799, Note_on_c, 0, 92, 84
1, 180839, Note_off_c, 0, 80, 64
1, 180841, Note_off_c, 0, 92, 66
1, 180893, Note_on_c, 0, 63, 77
1, 180900, Note_on_c, 0, 79, 91
1, 180904, Note_on_c, 0, 51, 57
1, 180906, Note_on_c, 0, 91, 91
1, 180916, Note_off_c, 0, 63, 70
1, 180918, Note_on_c, 0, 59, 43
1, 180933, Note_off_c, 0, 51, 61
1, 180937, Note_off_c, 0, 79, 65
1, 180939, Note_off_c, 0, 91, 59
1, 180946, Note_off_c, 0, 59, 52
1, 180987, Note_on_c, 0, 79, 83
1, 180991, Note_on_c, 0, 63, 81
1, 180995, Note_on_c, 0, 91, 84
1, 181002, Note_on_c, 0, 59, 71
1, 181027, Note_off_c, 0, 79, 66
1, 181029, Note_off_c, 0, 91, 60
1, 181038, Note_off_c, 0, 59, 61
1, 181040, Note_off_c, 0, 63, 58
1, 181089, Note_on_c, 0, 80, 96
1, 181093, Note_on_c, 0, 92, 94
1, 181095, Note_on_c, 0, 56, 43
1, 181101, Note_on_c, 0, 63, 77
1, 181121, Note_on_c, 0, 90, 52
1, 181122, Note_off_c, 0, 90, 127
1, 181128, Note_off_c, 0, 80, 61
1, 181129, Note_off_c, 0, 92, 67
1, 181130, Note_off_c, 0, 63, 68
1, 181151, Note_off_c, 0, 56, 64
1, 181192, Note_on_c, 0, 92, 93
1, 181196, Control_c, 0, 64, 122
1, 181198, Note_on_c, 0, 80, 78
1, 181208, Note_on_c, 0, 82, 60
1, 181210, Control_c, 0, 64, 85
1, 181218, Note_off_c, 0, 80, 71
1, 181225, Note_off_c, 0, 82, 64
1, 181225, Control_c, 0, 64, 0
1, 181228, Note_off_c, 0, 92, 62
1, 181279, Note_on_c, 0, 51, 86
1, 181284, Note_on_c, 0, 82, 88
1, 181285, Note_on_c, 0, 94, 87
1, 181285, Control_c, 0, 64, 73
1, 181291, Note_on_c, 0, 39, 71
1, 181300, Control_c, 0, 64, 94
1, 181302, Note_off_c, 0, 51, 67
1, 181312, Note_off_c, 0, 39, 60
1, 181315, Note_on_c, 0, 92, 48
1, 181316, Note_off_c, 0, 92, 127
1, 181316, Control_c, 0, 64, 120
1, 181323, Note_off_c, 0, 82, 61
1, 181323, Note_off_c, 0, 94, 64
1, 181329, Control_c, 0, 64, 127
1, 181378, Note_on_c, 0, 94, 74
1, 181383, Note_on_c, 0, 82, 82
1, 181404, Note_off_c, 0, 94, 66
1, 181407, Note_off_c, 0, 82, 67
1, 181476, Note_on_c, 0, 67, 70
1, 181477, Note_on_c, 0, 58, 66
1, 181478, Note_on_c, 0, 63, 63
1, 181480, Note_on_c, 0, 87, 84
1, 181481, Note_on_c, 0, 75, 94
1, 181497, Note_off_c, 0, 63, 66
1, 181497, Note_off_c, 0, 67, 67
1, 181502, Note_off_c, 0, 75, 67
1, 181507, Note_off_c, 0, 58, 66
1, 181521, Note_off_c, 0, 87, 64
1, 181560, Note_on_c, 0, 67, 81
1, 181562, Note_on_c, 0, 75, 87
1, 181562, Note_on_c, 0, 63, 79
1, 181562, Note_on_c, 0, 87, 76
1, 181569, Note_on_c, 0, 58, 68
1, 181594, Note_off_c, 0, 63, 61
1, 181596, Note_off_c, 0, 58, 65
1, 181601, Note_off_c, 0, 75, 64
1, 181608, Note_off_c, 0, 87, 63
1, 181610, Note_off_c, 0, 67, 58
1, 181645, Note_on_c, 0, 67, 71
1, 181648, Note_on_c, 0, 75, 84
1, 181651, Note_on_c, 0, 87, 77
1, 181655, Note_on_c, 0, 63, 73
1, 181660, Note_on_c, 0, 58, 74
1, 181666, Note_off_c, 0, 67, 69
1, 181676, Note_on_c, 0, 85, 51
1, 181680, Note_off_c, 0, 63, 67
1, 181682, Note_off_c, 0, 58, 69
1, 181693, Note_off_c, 0, 75, 65
1, 181698, Note_off_c, 0, 87, 63
1, 181699, Note_off_c, 0, 85, 39
1, 181744, Note_on_c, 0, 75, 75
1, 181747, Note_on_c, 0, 87, 76
1, 181797, Note_off_c, 0, 87, 65
1, 181797, Note_off_c, 0, 75, 63
1, 181797, Control_c, 0, 64, 112
1, 181812, Control_c, 0, 64, 81
1, 181827, Control_c, 0, 64, 0
1, 181857, Note_on_c, 0, 55, 90
1, 181857, Note_on_c, 0, 76, 91
1, 181862, Note_on_c, 0, 88, 89
1, 181868, Note_on_c, 0, 43, 78
1, 181872, Control_c, 0, 64, 69
1, 181886, Control_c, 0, 64, 89
1, 181888, Note_off_c, 0, 55, 66
1, 181892, Note_off_c, 0, 43, 65
1, 181901, Note_off_c, 0, 76, 68
1, 181901, Control_c, 0, 64, 127
1, 181904, Note_off_c, 0, 88, 62
1, 181954, Note_on_c, 0, 76, 79
1, 181957, Note_on_c, 0, 88, 79
1, 181964, Poly_aftertouch_c, 0, 86, 0
1, 181996, Note_off_c, 0, 76, 68
1, 181997, Note_off_c, 0, 88, 65
1, 182051, Note_on_c, 0, 70, 83
1, 182051, Note_on_c, 0, 61, 72
1, 182058, Note_on_c, 0, 63, 69
1, 182067, Note_on_c, 0, 75, 84
1, 182069, Note_on_c, 0, 87, 89
1, 182078, Note_off_c, 0, 70, 60
1, 182085, Note_off_c, 0, 61, 60
1, 182089, Note_off_c, 0, 63, 64
1, 182094, Note_off_c, 0, 87, 60
1, 182104, Note_off_c, 0, 75, 61
1, 182152, Note_on_c, 0, 70, 81
1, 182153, Note_on_c, 0, 75, 82
1, 182155, Note_on_c, 0, 63, 69
1, 182159, Note_on_c, 0, 61, 59
1, 182164, Note_on_c, 0, 87, 80
1, 182185, Note_off_c, 0, 87, 70
1, 182188, Note_off_c, 0, 61, 64
1, 182190, Note_off_c, 0, 63, 66
1, 182194, Note_off_c, 0, 70, 44
1, 182195, Note_off_c, 0, 75, 63
1, 182207, Note_on_c, 0, 85, 17
1, 182231, Note_off_c, 0, 85, 0
1, 182243, Note_on_c, 0, 70, 79
1, 182245, Note_on_c, 0, 85, 37
1, 182247, Note_on_c, 0, 73, 96
1, 182254, Note_on_c, 0, 63, 76
1, 182262, Note_on_c, 0, 61, 66
1, 182274, Note_on_c, 0, 82, 53
1, 182275, Note_off_c, 0, 82, 127
1, 182275, Note_off_c, 0, 70, 60
1, 182287, Note_off_c, 0, 73, 60
1, 182289, Note_off_c, 0, 61, 66
1, 182290, Note_off_c, 0, 85, 65
1, 182291, Note_off_c, 0, 63, 66
1, 182340, Note_on_c, 0, 73, 84
1, 182344, Note_on_c, 0, 85, 83
1, 182385, Note_off_c, 0, 73, 64
1, 182385, Note_off_c, 0, 85, 66
1, 182405, Control_c, 0, 64, 94
1, 182420, Control_c, 0, 64, 65
1, 182435, Control_c, 0, 64, 0
1, 182453, Note_on_c, 0, 56, 80
1, 182456, Note_on_c, 0, 71, 90
1, 182456, Note_on_c, 0, 44, 80
1, 182456, Note_on_c, 0, 83, 88
1, 182480, Control_c, 0, 64, 71
1, 182481, Note_off_c, 0, 56, 67
1, 182486, Note_off_c, 0, 44, 68
1, 182494, Control_c, 0, 64, 95
1, 182498, Note_off_c, 0, 71, 62
1, 182503, Note_off_c, 0, 83, 61
1, 182509, Control_c, 0, 64, 127
1, 182511, Note_on_c, 0, 54, 3
1, 182550, Note_off_c, 0, 54, 49
1, 182566, Note_on_c, 0, 71, 84
1, 182566, Note_on_c, 0, 83, 79
1, 182608, Note_off_c, 0, 71, 61
1, 182613, Note_off_c, 0, 83, 60
1, 182649, Note_on_c, 0, 68, 80
1, 182669, Note_on_c, 0, 83, 81
1, 182670, Note_on_c, 0, 71, 83
1, 182671, Note_on_c, 0, 59, 43
1, 182674, Note_on_c, 0, 63, 43
1, 182683, Note_off_c, 0, 68, 60
1, 182696, Note_off_c, 0, 59, 55
1, 182700, Note_off_c, 0, 63, 54
1, 182709, Note_off_c, 0, 83, 61
1, 182712, Note_off_c, 0, 71, 63
1, 182760, Note_on_c, 0, 68, 85
1, 182765, Note_on_c, 0, 59, 73
1, 182770, Note_on_c, 0, 63, 73
1, 182770, Note_on_c, 0, 71, 78
1, 182774, Note_on_c, 0, 83, 78
1, 182794, Note_off_c, 0, 63, 67
1, 182794, Note_off_c, 0, 83, 67
1, 182798, Note_off_c, 0, 71, 64
1, 182800, Note_off_c, 0, 59, 63
1, 182805, Note_off_c, 0, 68, 59
1, 182856, Note_on_c, 0, 59, 78
1, 182856, Note_on_c, 0, 68, 83
1, 182862, Note_on_c, 0, 63, 81
1, 182863, Note_on_c, 0, 70, 96
1, 182866, Note_on_c, 0, 82, 89
1, 182881, Note_off_c, 0, 68, 69
1, 182894, Note_off_c, 0, 63, 66
1, 182897, Note_off_c, 0, 59, 65
1, 182903, Note_off_c, 0, 70, 63
1, 182906, Note_off_c, 0, 82, 62
1, 182909, Note_on_c, 0, 80, 26
1, 182910, Note_off_c, 0, 80, 127
1, 182966, Note_on_c, 0, 70, 87
1, 182971, Note_on_c, 0, 82, 76
1, 183002, Note_off_c, 0, 82, 60
1, 183010, Note_off_c, 0, 70, 57
1, 183020, Control_c, 0, 64, 95
1, 183034, Control_c, 0, 64, 66
1, 183050, Control_c, 0, 64, 0
1, 183076, Note_on_c, 0, 40, 95
1, 183079, Note_on_c, 0, 68, 95
1, 183085, Note_on_c, 0, 80, 80
1, 183095, Control_c, 0, 64, 65
1, 183105, Note_off_c, 0, 40, 67
1, 183110, Control_c, 0, 64, 88
1, 183120, Note_on_c, 0, 78, 39
1, 183121, Note_off_c, 0, 78, 127
1, 183124, Note_off_c, 0, 68, 62
1, 183124, Control_c, 0, 64, 118
1, 183125, Note_off_c, 0, 80, 63
1, 183139, Control_c, 0, 64, 127
1, 183175, Note_on_c, 0, 68, 79
1, 183180, Note_on_c, 0, 80, 78
1, 183219, Note_off_c, 0, 68, 64
1, 183219, Note_off_c, 0, 80, 66
1, 183276, Note_on_c, 0, 62, 88
1, 183284, Note_on_c, 0, 58, 72
1, 183286, Note_on_c, 0, 67, 88
1, 183292, Note_on_c, 0, 79, 82
1, 183301, Note_off_c, 0, 62, 64
1, 183310, Note_off_c, 0, 58, 67
1, 183329, Note_off_c, 0, 67, 63
1, 183333, Note_off_c, 0, 79, 63
1, 183382, Note_on_c, 0, 67, 84
1, 183387, Note_on_c, 0, 62, 87
1, 183388, Note_on_c, 0, 79, 79
1, 183395, Note_on_c, 0, 58, 70
1, 183419, Note_off_c, 0, 67, 64
1, 183419, Note_off_c, 0, 58, 69
1, 183421, Note_off_c, 0, 79, 62
1, 183423, Note_off_c, 0, 62, 56
1, 183489, Note_on_c, 0, 68, 85
1, 183489, Note_on_c, 0, 80, 91
1, 183493, Note_on_c, 0, 62, 93
1, 183499, Note_on_c, 0, 58, 76
1, 183515, Note_on_c, 0, 70, 46
1, 183519, Note_off_c, 0, 62, 64
1, 183531, Note_off_c, 0, 68, 62
1, 183533, Note_off_c, 0, 80, 61
1, 183538, Note_off_c, 0, 70, 59
1, 183544, Note_off_c, 0, 58, 62
1, 183593, Note_on_c, 0, 68, 76
1, 183594, Note_on_c, 0, 80, 82
1, 183634, Note_off_c, 0, 68, 63
1, 183641, Note_off_c, 0, 80, 61
1, 183664, Control_c, 0, 64, 100
1, 183679, Control_c, 0, 64, 70
1, 183694, Poly_aftertouch_c, 0, 70, 0
1, 183694, Control_c, 0, 64, 0
1, 183707, Note_on_c, 0, 70, 66
1, 183711, Note_on_c, 0, 39, 93
1, 183715, Note_on_c, 0, 82, 79
1, 183735, Note_off_c, 0, 39, 71
1, 183738, Control_c, 0, 64, 58
1, 183747, Note_off_c, 0, 82, 63
1, 183753, Control_c, 0, 64, 86
1, 183756, Note_off_c, 0, 70, 63
1, 183768, Control_c, 0, 64, 117
1, 183783, Control_c, 0, 64, 127
1, 183821, Note_on_c, 0, 82, 75
1, 183824, Note_on_c, 0, 70, 79
1, 183842, Note_off_c, 0, 82, 71
1, 183859, Note_off_c, 0, 70, 61
1, 183921, Note_on_c, 0, 58, 89
1, 183933, Note_on_c, 0, 55, 68
1, 183941, Note_on_c, 0, 63, 92
1, 183949, Note_on_c, 0, 75, 73
1, 183959, Note_off_c, 0, 58, 59
1, 183961, Note_off_c, 0, 55, 65
1, 183967, Note_off_c, 0, 63, 63
1, 183973, Note_off_c, 0, 75, 69
1, 184048, Poly_aftertouch_c, 0, 73, 0
1, 184049, Note_on_c, 0, 63, 82
1, 184051, Note_on_c, 0, 75, 84
1, 184063, Note_on_c, 0, 55, 45
1, 184066, Note_on_c, 0, 58, 71
1, 184070, Note_off_c, 0, 63, 68
1, 184072, Note_off_c, 0, 75, 70
1, 184083, Note_off_c, 0, 55, 62
1, 184087, Note_off_c, 0, 58, 72
1, 184103, Note_on_c, 0, 57, 20
1, 184152, Note_off_c, 0, 57, 35
1, 184161, Note_on_c, 0, 63, 88
1, 184163, Note_on_c, 0, 55, 59
1, 184170, Note_on_c, 0, 58, 82
1, 184174, Note_on_c, 0, 75, 97
1, 184174, Note_on_c, 0, 87, 94
1, 184192, Note_off_c, 0, 87, 64
1, 184195, Note_off_c, 0, 55, 64
1, 184197, Note_off_c, 0, 58, 67
1, 184203, Note_off_c, 0, 75, 61
1, 184206, Note_off_c, 0, 63, 66
1, 184272, Note_on_c, 0, 87, 97
1, 184276, Note_on_c, 0, 75, 94
1, 184294, Note_off_c, 0, 75, 72
1, 184312, Note_off_c, 0, 87, 65
1, 184412, Note_on_c, 0, 75, 95
1, 184415, Note_on_c, 0, 87, 95
1, 184416, Note_on_c, 0, 99, 104
1, 184421, Note_on_c, 0, 67, 75
1, 184424, Note_on_c, 0, 70, 75
1, 184437, Note_off_c, 0, 75, 66
1, 184444, Note_on_c, 0, 88, 59
1, 184445, Note_off_c, 0, 88, 127
1, 184445, Note_off_c, 0, 67, 68
1, 184447, Note_off_c, 0, 70, 68
1, 184450, Note_off_c, 0, 87, 65
1, 184453, Note_off_c, 0, 99, 69
1, 184456, Note_on_c, 0, 94, 33
1, 184457, Note_off_c, 0, 94, 127
1, 184464, Note_on_c, 0, 92, 26
1, 184465, Note_off_c, 0, 92, 127
1, 184520, Note_on_c, 0, 99, 94
1, 184523, Note_on_c, 0, 87, 92
1, 184561, Note_off_c, 0, 99, 68
1, 184563, Note_off_c, 0, 87, 62
1, 184612, Note_on_c, 0, 87, 76
1, 184618, Note_on_c, 0, 99, 85
1, 184663, Note_off_c, 0, 87, 64
1, 184667, Note_off_c, 0, 99, 68
1, 184716, Note_on_c, 0, 87, 82
1, 184722, Note_on_c, 0, 99, 75
1, 184736, Note_on_c, 0, 97, 72
1, 184750, Note_off_c, 0, 97, 65
1, 184768, Note_off_c, 0, 87, 64
1, 184770, Note_off_c, 0, 99, 69
1, 184820, Note_on_c, 0, 85, 100
1, 184822, Note_on_c, 0, 97, 94
1, 184861, Note_off_c, 0, 85, 66
1, 184869, Note_off_c, 0, 97, 65
1, 184915, Note_on_c, 0, 85, 81
1, 184918, Note_on_c, 0, 97, 79
1, 184960, Note_off_c, 0, 85, 65
1, 184969, Control_c, 0, 64, 118
1, 184973, Note_off_c, 0, 97, 65
1, 184984, Control_c, 0, 64, 89
1, 185000, Control_c, 0, 64, 0
1, 185047, Note_on_c, 0, 32, 77
1, 185050, Note_on_c, 0, 44, 90
1, 185057, Note_on_c, 0, 96, 91
1, 185058, Note_on_c, 0, 84, 92
1, 185059, Control_c, 0, 64, 43
1, 185074, Control_c, 0, 64, 81
1, 185076, Note_off_c, 0, 32, 67
1, 185077, Note_off_c, 0, 44, 70
1, 185088, Control_c, 0, 64, 114
1, 185099, Note_off_c, 0, 84, 66
1, 185100, Note_off_c, 0, 96, 65
1, 185103, Control_c, 0, 64, 127
1, 185175, Note_on_c, 0, 84, 90
1, 185176, Note_on_c, 0, 96, 86
1, 185214, Note_off_c, 0, 96, 66
1, 185214, Note_off_c, 0, 84, 65
1, 185273, Note_on_c, 0, 96, 84
1, 185273, Note_on_c, 0, 63, 88
1, 185275, Note_on_c, 0, 84, 87
1, 185283, Note_on_c, 0, 57, 63
1, 185284, Note_on_c, 0, 54, 62
1, 185304, Note_off_c, 0, 63, 60
1, 185305, Note_on_c, 0, 59, 19
1, 185312, Note_off_c, 0, 54, 63
1, 185315, Note_off_c, 0, 57, 62
1, 185315, Note_off_c, 0, 84, 66
1, 185318, Note_off_c, 0, 96, 64
1, 185346, Note_off_c, 0, 59, 41
1, 185371, Note_on_c, 0, 63, 85
1, 185371, Note_on_c, 0, 84, 88
1, 185372, Note_on_c, 0, 96, 86
1, 185386, Note_on_c, 0, 54, 67
1, 185386, Note_on_c, 0, 57, 75
1, 185409, Note_off_c, 0, 96, 65
1, 185415, Note_off_c, 0, 54, 62
1, 185416, Note_off_c, 0, 84, 65
1, 185416, Note_off_c, 0, 63, 63
1, 185427, Note_off_c, 0, 57, 58
1, 185474, Note_on_c, 0, 63, 88
1, 185478, Note_on_c, 0, 81, 98
1, 185479, Note_on_c, 0, 54, 83
1, 185479, Note_on_c, 0, 93, 96
1, 185485, Note_on_c, 0, 57, 69
1, 185500, Note_off_c, 0, 63, 67
1, 185514, Note_off_c, 0, 57, 68
1, 185530, Note_off_c, 0, 93, 64
1, 185532, Note_off_c, 0, 81, 62
1, 185538, Note_off_c, 0, 54, 63
1, 185589, Note_on_c, 0, 81, 88
1, 185600, Note_on_c, 0, 93, 86
1, 185628, Note_off_c, 0, 93, 62
1, 185631, Note_off_c, 0, 81, 64
1, 185631, Control_c, 0, 64, 115
1, 185645, Control_c, 0, 64, 85
1, 185660, Control_c, 0, 64, 28
1, 185675, Control_c, 0, 64, 0
1, 185710, Note_on_c, 0, 80, 96
1, 185712, Note_on_c, 0, 48, 101
1, 185716, Note_on_c, 0, 92, 81
1, 185719, Control_c, 0, 64, 71
1, 185721, Note_on_c, 0, 36, 84
1, 185727, Note_on_c, 0, 90, 79
1, 185734, Control_c, 0, 64, 94
1, 185741, Note_off_c, 0, 90, 67
1, 185745, Note_off_c, 0, 36, 67
1, 185748, Note_off_c, 0, 48, 66
1, 185749, Control_c, 0, 64, 127
1, 185753, Note_off_c, 0, 80, 64
1, 185757, Note_off_c, 0, 92, 66
1, 185819, Note_on_c, 0, 80, 88
1, 185825, Note_on_c, 0, 92, 83
1, 185852, Note_on_c, 0, 90, 42
1, 185862, Note_off_c, 0, 80, 64
1, 185869, Note_off_c, 0, 92, 65
1, 185883, Note_off_c, 0, 90, 33
1, 185925, Note_on_c, 0, 69, 84
1, 185926, Note_on_c, 0, 80, 89
1, 185928, Note_on_c, 0, 63, 81
1, 185932, Note_on_c, 0, 57, 74
1, 185933, Note_on_c, 0, 92, 75
1, 185945, Note_off_c, 0, 69, 72
1, 185950, Note_off_c, 0, 63, 70
1, 185957, Note_on_c, 0, 90, 60
1, 185964, Note_off_c, 0, 57, 59
1, 185976, Note_off_c, 0, 90, 63
1, 185977, Note_off_c, 0, 80, 64
1, 185979, Note_off_c, 0, 92, 66
1, 186030, Note_on_c, 0, 80, 84
1, 186030, Note_on_c, 0, 63, 91
1, 186031, Note_on_c, 0, 69, 92
1, 186036, Note_on_c, 0, 92, 74
1, 186039, Note_on_c, 0, 57, 75
1, 186060, Note_on_c, 0, 90, 60
1, 186069, Note_off_c, 0, 57, 64
1, 186071, Note_off_c, 0, 69, 62
1, 186071, Note_off_c, 0, 63, 65
1, 186080, Note_off_c, 0, 80, 65
1, 186082, Note_off_c, 0, 92, 65
1, 186082, Note_off_c, 0, 90, 40
1, 186137, Note_on_c, 0, 69, 86
1, 186139, Note_on_c, 0, 63, 83
1, 186144, Note_on_c, 0, 78, 98
1, 186144, Note_on_c, 0, 57, 77
1, 186146, Note_on_c, 0, 90, 93
1, 186161, Note_off_c, 0, 69, 71
1, 186183, Note_off_c, 0, 63, 61
1, 186189, Note_off_c, 0, 57, 60
1, 186191, Note_off_c, 0, 78, 64
1, 186191, Note_off_c, 0, 90, 66
1, 186260, Note_on_c, 0, 78, 94
1, 186271, Note_on_c, 0, 90, 87
1, 186320, Note_off_c, 0, 78, 62
1, 186338, Note_off_c, 0, 90, 64
1, 186379, Control_c, 0, 64, 106
1, 186394, Control_c, 0, 64, 79
1, 186409, Control_c, 0, 64, 0
1, 186433, Note_on_c, 0, 49, 94
1, 186436, Note_on_c, 0, 76, 96
1, 186438, Note_on_c, 0, 88, 93
1, 186441, Note_on_c, 0, 37, 80
1, 186454, Control_c, 0, 64, 38
1, 186468, Control_c, 0, 64, 75
1, 186470, Note_off_c, 0, 49, 64
1, 186474, Note_off_c, 0, 37, 69
1, 186482, Note_off_c, 0, 76, 67
1, 186483, Control_c, 0, 64, 97
1, 186485, Note_off_c, 0, 88, 66
1, 186498, Control_c, 0, 64, 127
1, 186707, Note_on_c, 0, 73, 83
1, 186711, Note_on_c, 0, 69, 68
1, 186713, Note_on_c, 0, 64, 76
1, 186723, Note_on_c, 0, 52, 66
1, 186724, Note_on_c, 0, 61, 77
1, 186730, Note_on_c, 0, 57, 66
1, 186748, Note_off_c, 0, 64, 60
1, 186761, Note_off_c, 0, 61, 56
1, 186767, Note_off_c, 0, 73, 60
1, 186770, Note_off_c, 0, 69, 63
1, 186780, Note_off_c, 0, 57, 52
1, 186783, Note_off_c, 0, 52, 62
1, 186843, Note_on_c, 0, 73, 77
1, 186844, Note_on_c, 0, 52, 53
1, 186847, Note_on_c, 0, 64, 79
1, 186850, Note_on_c, 0, 69, 66
1, 186852, Note_on_c, 0, 61, 79
1, 186859, Note_on_c, 0, 57, 62
1, 186883, Note_off_c, 0, 61, 62
1, 186887, Note_off_c, 0, 57, 64
1, 186889, Note_off_c, 0, 64, 62
1, 186897, Note_off_c, 0, 52, 65
1, 186900, Note_off_c, 0, 69, 61
1, 186907, Note_off_c, 0, 73, 60
1, 186957, Note_on_c, 0, 64, 83
1, 186959, Note_on_c, 0, 69, 78
1, 186959, Note_on_c, 0, 75, 92
1, 186960, Note_on_c, 0, 61, 87
1, 186969, Note_on_c, 0, 57, 71
1, 186972, Note_on_c, 0, 51, 68
1, 186994, Note_off_c, 0, 57, 66
1, 186998, Note_off_c, 0, 64, 62
1, 187015, Note_off_c, 0, 75, 63
1, 187016, Note_off_c, 0, 61, 59
1, 187017, Note_off_c, 0, 51, 60
1, 187020, Note_off_c, 0, 69, 62
1, 187068, Note_on_c, 0, 75, 86
1, 187068, Note_on_c, 0, 61, 77
1, 187068, Note_on_c, 0, 64, 84
1, 187069, Note_on_c, 0, 69, 76
1, 187073, Note_on_c, 0, 51, 73
1, 187078, Note_on_c, 0, 57, 69
1, 187109, Note_off_c, 0, 57, 62
1, 187117, Note_off_c, 0, 64, 65
1, 187118, Note_off_c, 0, 61, 63
1, 187124, Note_off_c, 0, 75, 63
1, 187130, Note_off_c, 0, 69, 63
1, 187133, Note_off_c, 0, 51, 62
1, 187173, Note_on_c, 0, 61, 85
1, 187175, Note_on_c, 0, 64, 91
1, 187177, Note_on_c, 0, 69, 80
1, 187180, Note_on_c, 0, 76, 90
1, 187184, Note_on_c, 0, 49, 79
1, 187189, Note_on_c, 0, 57, 76
1, 187223, Note_off_c, 0, 57, 57
1, 187228, Note_off_c, 0, 61, 61
1, 187228, Note_off_c, 0, 64, 63
1, 187228, Note_off_c, 0, 76, 66
1, 187241, Note_off_c, 0, 49, 61
1, 187243, Note_off_c, 0, 69, 65
1, 187286, Note_on_c, 0, 64, 91
1, 187289, Note_on_c, 0, 69, 79
1, 187290, Note_on_c, 0, 76, 88
1, 187294, Note_on_c, 0, 61, 88
1, 187297, Note_on_c, 0, 51, 82
1, 187309, Note_on_c, 0, 57, 70
1, 187335, Note_off_c, 0, 76, 66
1, 187340, Note_off_c, 0, 57, 60
1, 187346, Note_off_c, 0, 61, 62
1, 187346, Note_off_c, 0, 64, 60
1, 187348, Note_off_c, 0, 51, 60
1, 187358, Note_off_c, 0, 69, 64
1, 187404, Note_on_c, 0, 69, 87
1, 187404, Note_on_c, 0, 64, 94
1, 187405, Note_on_c, 0, 61, 81
1, 187406, Note_on_c, 0, 51, 73
1, 187407, Note_on_c, 0, 75, 90
1, 187419, Note_on_c, 0, 57, 73
1, 187455, Note_off_c, 0, 64, 62
1, 187458, Note_off_c, 0, 57, 49
1, 187459, Note_off_c, 0, 61, 62
1, 187466, Note_off_c, 0, 75, 64
1, 187477, Note_off_c, 0, 69, 64
1, 187485, Note_off_c, 0, 51, 57
1, 187525, Note_on_c, 0, 51, 58
1, 187528, Note_on_c, 0, 69, 82
1, 187528, Note_on_c, 0, 75, 93
1, 187530, Note_on_c, 0, 64, 99
1, 187532, Note_on_c, 0, 61, 92
1, 187545, Note_on_c, 0, 57, 81
1, 187583, Note_off_c, 0, 64, 61
1, 187595, Note_off_c, 0, 61, 61
1, 187598, Note_off_c, 0, 75, 65
1, 187606, Note_off_c, 0, 57, 61
1, 187612, Note_off_c, 0, 51, 62
1, 187614, Note_off_c, 0, 69, 65
1, 187665, Note_on_c, 0, 57, 77
1, 187665, Note_on_c, 0, 61, 88
1, 187666, Note_on_c, 0, 64, 103
1, 187667, Note_on_c, 0, 73, 91
1, 187668, Note_on_c, 0, 69, 80
1, 187670, Note_on_c, 0, 52, 84
1, 187726, Note_off_c, 0, 64, 60
1, 187739, Note_off_c, 0, 61, 62
1, 187747, Note_off_c, 0, 69, 63
1, 187750, Note_off_c, 0, 73, 60
1, 187753, Note_off_c, 0, 57, 61
1, 187768, Note_off_c, 0, 52, 59
1, 187807, Note_on_c, 0, 61, 85
1, 187808, Note_on_c, 0, 52, 57
1, 187813, Note_on_c, 0, 57, 70
1, 187815, Note_on_c, 0, 73, 87
1, 187816, Note_on_c, 0, 64, 93
1, 187816, Note_on_c, 0, 69, 84
1, 187872, Note_off_c, 0, 61, 58
1, 187880, Note_off_c, 0, 57, 61
1, 187884, Note_off_c, 0, 64, 61
1, 187896, Note_off_c, 0, 69, 64
1, 187904, Note_off_c, 0, 52, 66
1, 187922, Note_off_c, 0, 73, 58
1, 188025, Control_c, 0, 64, 118
1, 188027, Note_on_c, 0, 59, 86
1, 188030, Note_on_c, 0, 51, 84
1, 188033, Note_on_c, 0, 63, 101
1, 188033, Note_on_c, 0, 68, 86
1, 188038, Note_on_c, 0, 75, 88
1, 188039, Control_c, 0, 64, 85
1, 188042, Note_on_c, 0, 56, 75
1, 188045, Note_on_c, 0, 71, 70
1, 188054, Control_c, 0, 64, 0
1, 188099, Control_c, 0, 64, 36
1, 188108, Note_off_c, 0, 59, 62
1, 188114, Control_c, 0, 64, 77
1, 188115, Note_off_c, 0, 56, 58
1, 188117, Note_off_c, 0, 63, 63
1, 188123, Note_off_c, 0, 51, 61
1, 188127, Note_off_c, 0, 68, 61
1, 188129, Control_c, 0, 64, 104
1, 188130, Note_off_c, 0, 75, 63
1, 188134, Note_off_c, 0, 71, 56
1, 188144, Control_c, 0, 64, 127
1, 188215, Note_on_c, 0, 64, 80
1, 188217, Note_on_c, 0, 62, 72
1, 188221, Note_on_c, 0, 50, 61
1, 188228, Note_on_c, 0, 76, 68
1, 188245, Note_off_c, 0, 62, 65
1, 188247, Note_off_c, 0, 50, 61
1, 188269, Note_off_c, 0, 64, 62
1, 188274, Note_off_c, 0, 76, 62
1, 188335, Note_on_c, 0, 61, 80
1, 188344, Note_on_c, 0, 65, 81
1, 188349, Note_on_c, 0, 77, 77
1, 188349, Note_on_c, 0, 49, 69
1, 188361, Note_off_c, 0, 61, 65
1, 188370, Note_off_c, 0, 77, 67
1, 188376, Note_off_c, 0, 65, 64
1, 188382, Note_off_c, 0, 49, 65
1, 188451, Note_on_c, 0, 66, 84
1, 188454, Note_on_c, 0, 60, 78
1, 188455, Note_on_c, 0, 78, 84
1, 188464, Note_on_c, 0, 48, 64
1, 188478, Note_off_c, 0, 66, 64
1, 188481, Note_off_c, 0, 60, 65
1, 188482, Note_off_c, 0, 78, 62
1, 188494, Note_off_c, 0, 48, 65
1, 188562, Note_on_c, 0, 67, 91
1, 188570, Note_on_c, 0, 59, 79
1, 188570, Note_on_c, 0, 79, 83
1, 188585, Note_on_c, 0, 47, 62
1, 188592, Note_off_c, 0, 79, 68
1, 188597, Note_off_c, 0, 59, 65
1, 188599, Note_off_c, 0, 67, 61
1, 188611, Note_off_c, 0, 47, 63
1, 188658, Note_on_c, 0, 68, 92
1, 188662, Note_on_c, 0, 80, 84
1, 188665, Note_on_c, 0, 58, 86
1, 188681, Note_on_c, 0, 46, 64
1, 188685, Note_off_c, 0, 58, 72
1, 188692, Note_off_c, 0, 80, 64
1, 188695, Note_off_c, 0, 68, 62
1, 188711, Note_off_c, 0, 46, 64
1, 188757, Note_on_c, 0, 57, 87
1, 188758, Note_on_c, 0, 69, 96
1, 188763, Note_on_c, 0, 81, 93
1, 188776, Note_on_c, 0, 45, 62
1, 188792, Note_off_c, 0, 57, 65
1, 188794, Note_off_c, 0, 69, 68
1, 188797, Note_off_c, 0, 81, 61
1, 188799, Note_off_c, 0, 45, 61
1, 188849, Note_on_c, 0, 56, 88
1, 188852, Note_on_c, 0, 70, 94
1, 188853, Note_on_c, 0, 82, 99
1, 188857, Note_on_c, 0, 44, 81
1, 188874, Note_off_c, 0, 56, 66
1, 188880, Note_off_c, 0, 82, 61
1, 188885, Note_off_c, 0, 70, 63
1, 188889, Note_off_c, 0, 44, 67
1, 188919, Poly_aftertouch_c, 0, 50, 0
1, 188944, Note_on_c, 0, 55, 89
1, 188949, Note_on_c, 0, 43, 85
1, 188951, Note_on_c, 0, 83, 83
1, 188952, Note_on_c, 0, 71, 100
1, 188981, Note_off_c, 0, 43, 65
1, 188983, Note_off_c, 0, 55, 65
1, 188984, Note_off_c, 0, 71, 64
1, 188995, Note_off_c, 0, 83, 59
1, 189044, Note_on_c, 0, 54, 94
1, 189049, Note_on_c, 0, 42, 84
1, 189049, Note_on_c, 0, 72, 99
1, 189055, Note_on_c, 0, 84, 94
1, 189071, Note_off_c, 0, 54, 64
1, 189075, Note_off_c, 0, 42, 67
1, 189077, Note_off_c, 0, 84, 66
1, 189080, Note_off_c, 0, 72, 70
1, 189107, Note_on_c, 0, 41, 15
1, 189134, Note_on_c, 0, 73, 107
1, 189135, Note_on_c, 0, 53, 96
1, 189137, Note_on_c, 0, 85, 105
1, 189141, Note_off_c, 0, 41, 0
1, 189141, Note_on_c, 0, 41, 32
1, 189161, Note_off_c, 0, 73, 69
1, 189168, Note_off_c, 0, 85, 67
1, 189172, Note_on_c, 0, 43, 25
1, 189174, Note_off_c, 0, 53, 68
1, 189181, Note_off_c, 0, 41, 61
1, 189202, Note_off_c, 0, 43, 53
1, 189232, Note_on_c, 0, 52, 93
1, 189232, Note_on_c, 0, 74, 93
1, 189236, Note_on_c, 0, 86, 98
1, 189242, Note_on_c, 0, 40, 74
1, 189273, Note_off_c, 0, 40, 66
1, 189276, Note_off_c, 0, 74, 71
1, 189276, Note_off_c, 0, 86, 69
1, 189284, Note_off_c, 0, 52, 67
1, 189300, Control_c, 0, 64, 94
1, 189315, Control_c, 0, 64, 62
1, 189330, Control_c, 0, 64, 0
1, 189351, Note_on_c, 0, 51, 94
1, 189352, Note_on_c, 0, 75, 106
1, 189354, Note_on_c, 0, 79, 89
1, 189354, Note_on_c, 0, 87, 89
1, 189355, Note_on_c, 0, 46, 84
1, 189359, Note_on_c, 0, 82, 81
1, 189362, Note_on_c, 0, 39, 84
1, 189364, Note_on_c, 0, 43, 66
1, 189374, Control_c, 0, 64, 75
1, 189388, Control_c, 0, 64, 103
1, 189391, Note_off_c, 0, 75, 65
1, 189392, Note_off_c, 0, 46, 61
1, 189401, Note_off_c, 0, 51, 65
1, 189403, Control_c, 0, 64, 127
1, 189404, Note_off_c, 0, 87, 66
1, 189410, Note_off_c, 0, 79, 62
1, 189412, Note_off_c, 0, 43, 60
1, 189414, Note_off_c, 0, 82, 63
1, 189416, Note_on_c, 0, 40, 3
1, 189419, Note_off_c, 0, 39, 63
1, 189451, Note_off_c, 0, 40, 52
1, 189476, Note_on_c, 0, 50, 90
1, 189478, Note_on_c, 0, 76, 92
1, 189479, Note_on_c, 0, 88, 98
1, 189488, Note_on_c, 0, 38, 77
1, 189514, Note_off_c, 0, 38, 65
1, 189515, Note_off_c, 0, 50, 65
1, 189515, Note_off_c, 0, 76, 67
1, 189522, Note_off_c, 0, 88, 65
1, 189583, Note_on_c, 0, 49, 94
1, 189583, Note_on_c, 0, 77, 97
1, 189587, Note_on_c, 0, 89, 98
1, 189596, Note_on_c, 0, 37, 76
1, 189615, Note_off_c, 0, 49, 61
1, 189619, Note_off_c, 0, 77, 68
1, 189620, Note_off_c, 0, 89, 68
1, 189633, Note_off_c, 0, 37, 67
1, 189655, Poly_aftertouch_c, 0, 43, 127
1, 189682, Note_on_c, 0, 78, 97
1, 189684, Note_on_c, 0, 90, 99
1, 189686, Note_on_c, 0, 48, 97
1, 189702, Note_on_c, 0, 36, 71
1, 189708, Poly_aftertouch_c, 0, 43, 0
1, 189719, Note_off_c, 0, 78, 65
1, 189721, Note_off_c, 0, 48, 64
1, 189727, Note_off_c, 0, 36, 66
1, 189733, Note_off_c, 0, 90, 66
1, 189792, Note_on_c, 0, 47, 99
1, 189794, Note_on_c, 0, 79, 97
1, 189797, Note_on_c, 0, 91, 92
1, 189802, Note_on_c, 0, 35, 83
1, 189834, Note_off_c, 0, 47, 65
1, 189834, Note_off_c, 0, 35, 64
1, 189837, Note_off_c, 0, 79, 67
1, 189839, Note_off_c, 0, 91, 62
1, 189849, Control_c, 0, 64, 102
1, 189864, Control_c, 0, 64, 82
1, 189878, Control_c, 0, 64, 72
1, 189893, Control_c, 0, 64, 77
1, 189901, Note_on_c, 0, 80, 96
1, 189904, Note_on_c, 0, 46, 88
1, 189908, Note_on_c, 0, 92, 96
1, 189908, Control_c, 0, 64, 92
1, 189911, Note_on_c, 0, 34, 81
1, 189923, Control_c, 0, 64, 127
1, 189923, Note_on_c, 0, 90, 71
1, 189924, Note_on_c, 0, 44, 55
1, 189941, Note_off_c, 0, 90, 43
1, 189947, Note_off_c, 0, 46, 63
1, 189948, Note_off_c, 0, 80, 65
1, 189950, Note_off_c, 0, 44, 57
1, 189953, Note_off_c, 0, 34, 65
1, 189953, Note_on_c, 0, 37, 22
1, 189961, Note_off_c, 0, 92, 67
1, 189982, Control_c, 0, 64, 96
1, 189991, Note_off_c, 0, 37, 50
1, 189997, Control_c, 0, 64, 85
1, 190019, Control_c, 0, 64, 86
1, 190023, Note_on_c, 0, 45, 96
1, 190031, Note_on_c, 0, 81, 98
1, 190034, Control_c, 0, 64, 98
1, 190034, Note_on_c, 0, 33, 84
1, 190037, Note_on_c, 0, 93, 99
1, 190049, Control_c, 0, 64, 120
1, 190063, Control_c, 0, 64, 127
1, 190066, Note_off_c, 0, 33, 69
1, 190075, Note_on_c, 0, 38, 34
1, 190075, Note_off_c, 0, 81, 64
1, 190076, Note_off_c, 0, 45, 63
1, 190081, Note_off_c, 0, 93, 65
1, 190093, Control_c, 0, 64, 102
1, 190108, Control_c, 0, 64, 82
1, 190114, Note_off_c, 0, 38, 47
1, 190123, Control_c, 0, 64, 73
1, 190137, Control_c, 0, 64, 79
1, 190147, Note_on_c, 0, 44, 95
1, 190150, Note_on_c, 0, 82, 98
1, 190152, Control_c, 0, 64, 97
1, 190153, Note_on_c, 0, 94, 100
1, 190156, Note_on_c, 0, 32, 86
1, 190167, Control_c, 0, 64, 127
1, 190192, Note_off_c, 0, 44, 65
1, 190201, Note_off_c, 0, 82, 64
1, 190215, Note_off_c, 0, 94, 64
1, 190216, Note_off_c, 0, 32, 62
1, 190226, Control_c, 0, 64, 118
1, 190242, Control_c, 0, 64, 88
1, 190257, Control_c, 0, 64, 64
1, 190272, Control_c, 0, 64, 58
1, 190284, Note_on_c, 0, 43, 93
1, 190287, Control_c, 0, 64, 74
1, 190288, Note_on_c, 0, 83, 98
1, 190293, Note_on_c, 0, 31, 81
1, 190295, Note_on_c, 0, 95, 103
1, 190302, Control_c, 0, 64, 92
1, 190316, Control_c, 0, 64, 127
1, 190333, Note_off_c, 0, 31, 65
1, 190334, Note_off_c, 0, 83, 61
1, 190337, Note_off_c, 0, 43, 62
1, 190341, Note_off_c, 0, 95, 67
1, 190361, Control_c, 0, 64, 123
1, 190376, Control_c, 0, 64, 87
1, 190390, Control_c, 0, 64, 56
1, 190405, Control_c, 0, 64, 0
1, 190420, Control_c, 0, 64, 58
1, 190424, Note_on_c, 0, 42, 92
1, 190428, Note_on_c, 0, 85, 96
1, 190430, Note_on_c, 0, 30, 90
1, 190431, Note_on_c, 0, 97, 103
1, 190434, Control_c, 0, 64, 79
1, 190449, Control_c, 0, 64, 127
1, 190470, Note_off_c, 0, 42, 65
1, 190476, Note_off_c, 0, 85, 65
1, 190504, Note_off_c, 0, 97, 61
1, 190509, Note_off_c, 0, 30, 60
1, 190515, Poly_aftertouch_c, 0, 41, 127
1, 190538, Control_c, 0, 64, 99
1, 190550, Poly_aftertouch_c, 0, 41, 0
1, 190553, Control_c, 0, 64, 75
1, 190567, Control_c, 0, 64, 0
1, 190591, Note_on_c, 0, 86, 102
1, 190592, Note_on_c, 0, 98, 94
1, 190594, Note_on_c, 0, 40, 84
1, 190597, Note_on_c, 0, 28, 84
1, 190597, Control_c, 0, 64, 68
1, 190601, Note_on_c, 0, 41, 93
1, 190612, Control_c, 0, 64, 91
1, 190621, Note_off_c, 0, 41, 68
1, 190627, Control_c, 0, 64, 127
1, 190643, Note_off_c, 0, 86, 61
1, 190646, Note_off_c, 0, 40, 65
1, 190646, Note_off_c, 0, 98, 66
1, 190654, Note_off_c, 0, 28, 61
1, 190672, Control_c, 0, 64, 89
1, 190686, Control_c, 0, 64, 52
1, 190701, Control_c, 0, 64, 0
1, 190731, Control_c, 0, 64, 38
1, 190746, Control_c, 0, 64, 78
1, 190761, Note_on_c, 0, 94, 15
1, 190767, Control_c, 0, 64, 103
1, 190780, Note_on_c, 0, 99, 96
1, 190782, Note_on_c, 0, 39, 104
1, 190782, Control_c, 0, 64, 127
1, 190784, Note_on_c, 0, 91, 84
1, 190785, Note_on_c, 0, 87, 103
1, 190786, Note_on_c, 0, 27, 92
1, 190826, Note_off_c, 0, 99, 70
1, 190837, Note_off_c, 0, 39, 59
1, 190842, Note_off_c, 0, 91, 62
1, 190845, Note_off_c, 0, 27, 63
1, 190845, Note_off_c, 0, 94, 65
1, 190850, Note_off_c, 0, 87, 60
1, 191003, Control_c, 0, 64, 115
1, 191018, Control_c, 0, 64, 89
1, 191034, Control_c, 0, 64, 62
1, 191049, Control_c, 0, 64, 0
1, 191077, Note_on_c, 0, 68, 101
1, 191083, Note_on_c, 0, 44, 91
1, 191083, Note_on_c, 0, 59, 89
1, 191085, Note_on_c, 0, 39, 84
1, 191086, Note_on_c, 0, 32, 79
1, 191086, Note_on_c, 0, 63, 84
1, 191104, Note_off_c, 0, 59, 68
1, 191108, Control_c, 0, 64, 74
1, 191110, Note_off_c, 0, 63, 70
1, 191122, Note_off_c, 0, 68, 66
1, 191123, Control_c, 0, 64, 104
1, 191124, Note_off_c, 0, 32, 64
1, 191127, Note_off_c, 0, 39, 60
1, 191129, Note_off_c, 0, 44, 63
1, 191137, Control_c, 0, 64, 127
1, 191294, Note_on_c, 0, 51, 90
1, 191306, Note_on_c, 0, 39, 72
1, 191327, Note_off_c, 0, 51, 61
1, 191330, Note_off_c, 0, 39, 65
1, 191336, Note_on_c, 0, 42, 23
1, 191379, Note_off_c, 0, 42, 41
1, 191405, Note_on_c, 0, 44, 87
1, 191405, Note_on_c, 0, 56, 96
1, 191432, Note_off_c, 0, 56, 65
1, 191438, Note_on_c, 0, 46, 50
1, 191449, Note_off_c, 0, 44, 63
1, 191469, Note_off_c, 0, 46, 49
1, 191517, Note_on_c, 0, 71, 93
1, 191518, Note_on_c, 0, 75, 93
1, 191518, Note_on_c, 0, 83, 91
1, 191518, Note_on_c, 0, 63, 88
1, 191532, Note_on_c, 0, 51, 68
1, 191536, Note_off_c, 0, 63, 72
1, 191551, Note_off_c, 0, 71, 60
1, 191559, Note_off_c, 0, 51, 67
1, 191560, Note_off_c, 0, 75, 55
1, 191566, Note_off_c, 0, 83, 57
1, 191679, Note_on_c, 0, 39, 43
1, 191693, Control_c, 0, 64, 95
1, 191708, Note_on_c, 0, 70, 92
1, 191708, Control_c, 0, 64, 67
1, 191712, Note_on_c, 0, 82, 80
1, 191715, Note_on_c, 0, 75, 77
1, 191717, Note_on_c, 0, 44, 84
1, 191723, Control_c, 0, 64, 0
1, 191725, Note_on_c, 0, 32, 72
1, 191737, Note_off_c, 0, 75, 68
1, 191745, Note_off_c, 0, 70, 61
1, 191753, Control_c, 0, 64, 62
1, 191759, Note_off_c, 0, 44, 64
1, 191761, Note_off_c, 0, 82, 65
1, 191766, Note_off_c, 0, 32, 65
1, 191766, Note_off_c, 0, 39, 63
1, 191768, Control_c, 0, 64, 82
1, 191782, Control_c, 0, 64, 116
1, 191797, Control_c, 0, 64, 127
1, 191816, Note_on_c, 0, 71, 78
1, 191825, Note_on_c, 0, 83, 64
1, 191830, Note_on_c, 0, 84, 81
1, 191835, Note_on_c, 0, 72, 61
1, 191839, Note_off_c, 0, 71, 67
1, 191850, Note_off_c, 0, 83, 64
1, 191852, Note_off_c, 0, 84, 67
1, 191853, Note_off_c, 0, 72, 41
1, 191901, Note_on_c, 0, 51, 91
1, 191909, Note_on_c, 0, 39, 77
1, 191912, Note_on_c, 0, 85, 97
1, 191917, Note_on_c, 0, 73, 89
1, 191932, Note_off_c, 0, 51, 63
1, 191944, Note_off_c, 0, 73, 59
1, 191947, Note_off_c, 0, 39, 64
1, 191951, Note_off_c, 0, 85, 68
1, 191980, Poly_aftertouch_c, 0, 42, 127
1, 192004, Note_on_c, 0, 44, 84
1, 192007, Note_on_c, 0, 56, 87
1, 192013, Poly_aftertouch_c, 0, 42, 0
1, 192028, Note_on_c, 0, 46, 60
1, 192031, Note_off_c, 0, 56, 69
1, 192050, Note_on_c, 0, 49, 23
1, 192052, Note_off_c, 0, 44, 63
1, 192053, Note_off_c, 0, 46, 61
1, 192091, Note_off_c, 0, 49, 39
1, 192103, Note_on_c, 0, 71, 85
1, 192106, Note_on_c, 0, 75, 83
1, 192109, Note_on_c, 0, 83, 77
1, 192120, Note_on_c, 0, 63, 75
1, 192128, Note_off_c, 0, 71, 62
1, 192130, Note_off_c, 0, 83, 68
1, 192132, Note_on_c, 0, 51, 56
1, 192136, Note_off_c, 0, 63, 68
1, 192144, Note_off_c, 0, 75, 66
1, 192149, Note_off_c, 0, 51, 65
1, 192198, Note_on_c, 0, 70, 94
1, 192201, Note_on_c, 0, 82, 88
1, 192221, Note_off_c, 0, 70, 63
1, 192238, Note_off_c, 0, 82, 62
1, 192242, Control_c, 0, 64, 102
1, 192265, Control_c, 0, 64, 68
1, 192280, Control_c, 0, 64, 0
1, 192298, Note_on_c, 0, 71, 96
1, 192305, Note_on_c, 0, 75, 87
1, 192308, Note_on_c, 0, 83, 84
1, 192309, Control_c, 0, 64, 55
1, 192311, Note_on_c, 0, 44, 81
1, 192312, Note_on_c, 0, 32, 72
1, 192316, Note_on_c, 0, 39, 62
1, 192323, Note_off_c, 0, 75, 73
1, 192324, Control_c, 0, 64, 76
1, 192329, Note_off_c, 0, 71, 61
1, 192330, Note_off_c, 0, 83, 63
1, 192338, Note_off_c, 0, 44, 66
1, 192338, Control_c, 0, 64, 103
1, 192341, Note_off_c, 0, 39, 65
1, 192353, Note_off_c, 0, 32, 64
1, 192353, Control_c, 0, 64, 127
1, 192392, Note_on_c, 0, 73, 99
1, 192397, Note_on_c, 0, 85, 93
1, 192427, Note_off_c, 0, 73, 62
1, 192428, Note_off_c, 0, 85, 63
1, 192481, Note_on_c, 0, 51, 88
1, 192488, Note_on_c, 0, 75, 94
1, 192488, Note_on_c, 0, 87, 99
1, 192491, Note_on_c, 0, 39, 78
1, 192508, Note_off_c, 0, 51, 65
1, 192517, Note_off_c, 0, 39, 64
1, 192527, Note_off_c, 0, 75, 64
1, 192527, Note_off_c, 0, 87, 64
1, 192587, Note_on_c, 0, 56, 96
1, 192588, Note_on_c, 0, 44, 81
1, 192590, Poly_aftertouch_c, 0, 42, 0
1, 192616, Note_on_c, 0, 46, 54
1, 192616, Note_off_c, 0, 56, 64
1, 192617, Note_off_c, 0, 44, 66
1, 192646, Note_off_c, 0, 46, 53
1, 192678, Note_on_c, 0, 73, 102
1, 192679, Note_on_c, 0, 85, 91
1, 192690, Note_on_c, 0, 63, 93
1, 192708, Note_off_c, 0, 63, 72
1, 192710, Note_on_c, 0, 78, 49
1, 192711, Note_off_c, 0, 78, 127
1, 192712, Note_on_c, 0, 51, 45
1, 192721, Note_off_c, 0, 85, 66
1, 192723, Note_off_c, 0, 73, 62
1, 192737, Note_off_c, 0, 51, 53
1, 192781, Note_on_c, 0, 71, 92
1, 192783, Note_on_c, 0, 83, 83
1, 192799, Control_c, 0, 64, 108
1, 192814, Control_c, 0, 64, 80
1, 192815, Note_off_c, 0, 71, 64
1, 192818, Note_off_c, 0, 83, 59
1, 192824, Note_on_c, 0, 81, 34
1, 192825, Note_off_c, 0, 81, 127
1, 192828, Control_c, 0, 64, 0
1, 192839, Note_on_c, 0, 37, 42
1, 192840, Note_off_c, 0, 37, 127
1, 192858, Control_c, 0, 64, 53
1, 192869, Note_on_c, 0, 70, 100
1, 192873, Control_c, 0, 64, 75
1, 192875, Note_on_c, 0, 44, 92
1, 192875, Note_on_c, 0, 82, 90
1, 192878, Note_on_c, 0, 75, 83
1, 192880, Note_on_c, 0, 32, 71
1, 192884, Note_on_c, 0, 39, 76
1, 192888, Control_c, 0, 64, 104
1, 192897, Note_off_c, 0, 75, 71
1, 192900, Note_off_c, 0, 70, 61
1, 192902, Control_c, 0, 64, 127
1, 192908, Note_off_c, 0, 39, 66
1, 192915, Note_off_c, 0, 44, 64
1, 192916, Note_off_c, 0, 82, 66
1, 192921, Note_off_c, 0, 32, 64
1, 192970, Note_on_c, 0, 71, 92
1, 192983, Note_on_c, 0, 83, 69
1, 192985, Note_on_c, 0, 84, 81
1, 192993, Note_on_c, 0, 72, 63
1, 192994, Note_off_c, 0, 72, 127
1, 193012, Note_off_c, 0, 84, 73
1, 193013, Note_off_c, 0, 71, 62
1, 193013, Note_off_c, 0, 83, 66
1, 193057, Note_on_c, 0, 51, 84
1, 193071, Note_on_c, 0, 39, 66
1, 193082, Note_on_c, 0, 85, 87
1, 193083, Note_on_c, 0, 73, 90
1, 193086, Note_off_c, 0, 51, 63
1, 193098, Note_off_c, 0, 85, 74
1, 193103, Note_off_c, 0, 39, 63
1, 193106, Note_on_c, 0, 42, 17
1, 193109, Note_off_c, 0, 73, 60
1, 193146, Note_off_c, 0, 42, 42
1, 193146, Poly_aftertouch_c, 0, 44, 127
1, 193164, Note_on_c, 0, 44, 33
1, 193169, Note_on_c, 0, 56, 90
1, 193178, Note_on_c, 0, 46, 75
1, 193190, Note_off_c, 0, 56, 68
1, 193202, Note_off_c, 0, 44, 64
1, 193208, Note_off_c, 0, 46, 64
1, 193259, Note_on_c, 0, 71, 90
1, 193263, Note_on_c, 0, 75, 86
1, 193268, Note_on_c, 0, 83, 77
1, 193280, Note_on_c, 0, 63, 65
1, 193287, Note_on_c, 0, 54, 54
1, 193289, Note_off_c, 0, 71, 60
1, 193289, Note_off_c, 0, 83, 67
1, 193298, Note_off_c, 0, 63, 64
1, 193305, Note_off_c, 0, 75, 66
1, 193310, Note_off_c, 0, 54, 58
1, 193354, Note_on_c, 0, 70, 96
1, 193361, Note_on_c, 0, 82, 80
1, 193395, Note_off_c, 0, 70, 61
1, 193405, Note_off_c, 0, 82, 62
1, 193414, Control_c, 0, 64, 102
1, 193420, Note_on_c, 0, 39, 47
1, 193429, Control_c, 0, 64, 71
1, 193444, Control_c, 0, 64, 0
1, 193457, Note_on_c, 0, 71, 96
1, 193459, Note_on_c, 0, 44, 83
1, 193462, Note_on_c, 0, 75, 87
1, 193465, Note_on_c, 0, 32, 75
1, 193466, Note_on_c, 0, 83, 84
1, 193478, Note_off_c, 0, 39, 0
1, 193478, Note_on_c, 0, 39, 8
1, 193488, Control_c, 0, 64, 70
1, 193493, Note_off_c, 0, 75, 64
1, 193495, Note_off_c, 0, 83, 59
1, 193500, Note_off_c, 0, 71, 60
1, 193502, Note_off_c, 0, 32, 65
1, 193502, Note_off_c, 0, 39, 60
1, 193503, Control_c, 0, 64, 97
1, 193504, Note_off_c, 0, 44, 63
1, 193518, Control_c, 0, 64, 127
1, 193560, Note_on_c, 0, 70, 95
1, 193560, Note_on_c, 0, 82, 92
1, 193595, Note_off_c, 0, 70, 63
1, 193598, Note_off_c, 0, 82, 63
1, 193645, Note_on_c, 0, 51, 81
1, 193649, Note_on_c, 0, 39, 70
1, 193651, Note_on_c, 0, 80, 97
1, 193652, Note_on_c, 0, 68, 95
1, 193670, Note_off_c, 0, 68, 70
1, 193670, Note_off_c, 0, 51, 67
1, 193685, Note_off_c, 0, 39, 64
1, 193696, Note_off_c, 0, 80, 64
1, 193763, Note_on_c, 0, 56, 88
1, 193765, Note_on_c, 0, 44, 67
1, 193772, Note_on_c, 0, 46, 76
1, 193784, Note_off_c, 0, 56, 68
1, 193787, Note_off_c, 0, 44, 67
1, 193796, Note_on_c, 0, 58, 44
1, 193799, Note_off_c, 0, 46, 64
1, 193822, Note_off_c, 0, 58, 57
1, 193849, Note_on_c, 0, 95, 89
1, 193857, Note_on_c, 0, 87, 81
1, 193861, Note_on_c, 0, 83, 86
1, 193866, Note_on_c, 0, 84, 58
1, 193872, Note_on_c, 0, 51, 71
1, 193872, Note_on_c, 0, 63, 83
1, 193876, Note_off_c, 0, 87, 60
1, 193879, Note_off_c, 0, 83, 67
1, 193885, Note_off_c, 0, 84, 65
1, 193885, Note_off_c, 0, 63, 71
1, 193894, Note_off_c, 0, 95, 66
1, 193898, Note_off_c, 0, 51, 62
1, 194013, Control_c, 0, 64, 101
1, 194028, Control_c, 0, 64, 71
1, 194039, Note_on_c, 0, 82, 91
1, 194043, Control_c, 0, 64, 0
1, 194046, Note_on_c, 0, 87, 83
1, 194046, Note_on_c, 0, 94, 92
1, 194050, Note_on_c, 0, 44, 79
1, 194056, Note_on_c, 0, 32, 73
1, 194064, Note_on_c, 0, 39, 41
1, 194078, Note_off_c, 0, 87, 64
1, 194084, Note_off_c, 0, 82, 62
1, 194088, Control_c, 0, 64, 72
1, 194090, Note_off_c, 0, 32, 64
1, 194093, Note_off_c, 0, 94, 67
1, 194095, Note_off_c, 0, 44, 63
1, 194097, Note_off_c, 0, 39, 53
1, 194102, Control_c, 0, 64, 95
1, 194117, Control_c, 0, 64, 127
1, 194144, Note_on_c, 0, 83, 89
1, 194149, Note_on_c, 0, 95, 93
1, 194179, Note_off_c, 0, 83, 59
1, 194183, Note_off_c, 0, 95, 66
1, 194224, Note_on_c, 0, 51, 85
1, 194234, Note_on_c, 0, 39, 66
1, 194242, Note_on_c, 0, 97, 102
1, 194243, Note_on_c, 0, 85, 91
1, 194249, Note_off_c, 0, 51, 68
1, 194267, Note_off_c, 0, 39, 64
1, 194271, Note_off_c, 0, 85, 62
1, 194279, Note_off_c, 0, 97, 67
1, 194326, Note_on_c, 0, 56, 91
1, 194333, Note_on_c, 0, 44, 78
1, 194353, Note_off_c, 0, 56, 66
1, 194359, Note_on_c, 0, 46, 46
1, 194365, Note_off_c, 0, 44, 64
1, 194389, Note_on_c, 0, 92, 4
1, 194390, Note_off_c, 0, 92, 127
1, 194392, Note_off_c, 0, 46, 49
1, 194421, Note_on_c, 0, 83, 87
1, 194423, Note_on_c, 0, 95, 84
1, 194424, Note_on_c, 0, 87, 84
1, 194431, Note_on_c, 0, 63, 89
1, 194444, Note_off_c, 0, 95, 68
1, 194445, Note_off_c, 0, 83, 61
1, 194448, Note_off_c, 0, 63, 73
1, 194453, Note_on_c, 0, 51, 46
1, 194458, Note_off_c, 0, 87, 59
1, 194478, Note_off_c, 0, 51, 53
1, 194523, Note_on_c, 0, 82, 96
1, 194530, Note_on_c, 0, 94, 85
1, 194542, Note_on_c, 0, 91, 4
1, 194563, Note_off_c, 0, 82, 65
1, 194569, Note_off_c, 0, 91, 47
1, 194576, Note_off_c, 0, 94, 65
1, 194585, Control_c, 0, 64, 104
1, 194594, Note_on_c, 0, 39, 37
1, 194600, Control_c, 0, 64, 75
1, 194614, Note_off_c, 0, 39, 0
1, 194614, Control_c, 0, 64, 0
1, 194627, Note_on_c, 0, 83, 89
1, 194630, Note_on_c, 0, 87, 85
1, 194631, Note_on_c, 0, 39, 33
1, 194634, Note_on_c, 0, 44, 79
1, 194636, Note_on_c, 0, 95, 84
1, 194641, Note_on_c, 0, 32, 72
1, 194644, Control_c, 0, 64, 44
1, 194652, Note_off_c, 0, 87, 65
1, 194657, Note_off_c, 0, 95, 70
1, 194659, Control_c, 0, 64, 75
1, 194663, Note_off_c, 0, 83, 62
1, 194672, Note_off_c, 0, 44, 64
1, 194674, Note_off_c, 0, 32, 65
1, 194674, Control_c, 0, 64, 101
1, 194675, Note_off_c, 0, 39, 62
1, 194688, Control_c, 0, 64, 127
1, 194725, Note_on_c, 0, 85, 97
1, 194728, Note_on_c, 0, 97, 100
1, 194758, Note_on_c, 0, 98, 56
1, 194760, Note_off_c, 0, 85, 65
1, 194765, Note_off_c, 0, 97, 65
1, 194783, Note_off_c, 0, 98, 43
1, 194812, Note_on_c, 0, 51, 86
1, 194824, Note_on_c, 0, 87, 86
1, 194824, Note_on_c, 0, 99, 96
1, 194827, Note_on_c, 0, 39, 66
1, 194839, Note_off_c, 0, 51, 66
1, 194851, Note_on_c, 0, 42, 29
1, 194860, Note_off_c, 0, 39, 63
1, 194865, Note_off_c, 0, 87, 64
1, 194866, Note_off_c, 0, 99, 68
1, 194888, Note_off_c, 0, 42, 46
1, 194917, Note_on_c, 0, 56, 93
1, 194922, Note_on_c, 0, 44, 77
1, 194944, Note_off_c, 0, 56, 66
1, 194950, Note_on_c, 0, 46, 47
1, 194955, Note_off_c, 0, 44, 67
1, 194979, Note_off_c, 0, 46, 53
1, 195015, Note_on_c, 0, 85, 97
1, 195016, Note_on_c, 0, 97, 92
1, 195021, Note_on_c, 0, 63, 98
1, 195039, Note_off_c, 0, 63, 74
1, 195041, Note_on_c, 0, 51, 55
1, 195056, Note_off_c, 0, 85, 67
1, 195056, Note_off_c, 0, 51, 64
1, 195062, Note_off_c, 0, 97, 66
1, 195119, Note_on_c, 0, 83, 91
1, 195122, Note_on_c, 0, 95, 89
1, 195155, Note_off_c, 0, 83, 62
1, 195159, Note_off_c, 0, 95, 68
1, 195179, Control_c, 0, 64, 94
1, 195184, Note_on_c, 0, 39, 37
1, 195194, Control_c, 0, 64, 65
1, 195208, Control_c, 0, 64, 0
1, 195221, Note_on_c, 0, 82, 91
1, 195223, Note_on_c, 0, 44, 87
1, 195223, Note_off_c, 0, 39, 0
1, 195223, Note_on_c, 0, 39, 35
1, 195227, Note_on_c, 0, 94, 89
1, 195229, Note_on_c, 0, 32, 75
1, 195232, Note_on_c, 0, 87, 80
1, 195238, Control_c, 0, 64, 67
1, 195261, Control_c, 0, 64, 91
1, 195263, Note_off_c, 0, 82, 65
1, 195272, Poly_aftertouch_c, 0, 91, 0
1, 195275, Note_off_c, 0, 39, 63
1, 195276, Control_c, 0, 64, 127
1, 195281, Note_off_c, 0, 32, 62
1, 195281, Note_off_c, 0, 94, 68
1, 195283, Note_off_c, 0, 44, 63
1, 195283, Note_off_c, 0, 87, 61
1, 195342, Note_on_c, 0, 83, 91
1, 195344, Note_on_c, 0, 95, 96
1, 195375, Note_off_c, 0, 95, 68
1, 195379, Note_off_c, 0, 83, 64
1, 195429, Note_on_c, 0, 51, 89
1, 195441, Note_on_c, 0, 97, 96
1, 195444, Note_on_c, 0, 39, 69
1, 195445, Note_on_c, 0, 85, 96
1, 195456, Note_off_c, 0, 51, 65
1, 195474, Note_off_c, 0, 39, 64
1, 195486, Note_off_c, 0, 85, 65
1, 195489, Note_off_c, 0, 97, 65
1, 195540, Poly_aftertouch_c, 0, 42, 0
1, 195542, Note_on_c, 0, 46, 85
1, 195548, Note_on_c, 0, 58, 78
1, 195550, Note_on_c, 0, 56, 63
1, 195568, Note_on_c, 0, 92, 54
1, 195571, Note_off_c, 0, 56, 61
1, 195571, Note_off_c, 0, 58, 70
1, 195578, Note_off_c, 0, 46, 60
1, 195641, Note_on_c, 0, 83, 99
1, 195644, Note_on_c, 0, 95, 88
1, 195650, Note_on_c, 0, 87, 84
1, 195652, Note_on_c, 0, 63, 85
1, 195663, Note_on_c, 0, 61, 47
1, 195664, Note_on_c, 0, 51, 60
1, 195667, Note_off_c, 0, 92, 61
1, 195671, Note_off_c, 0, 63, 72
1, 195679, Note_off_c, 0, 83, 64
1, 195685, Note_off_c, 0, 95, 66
1, 195687, Note_off_c, 0, 51, 64
1, 195688, Note_off_c, 0, 61, 57
1, 195700, Note_off_c, 0, 87, 61
1, 195755, Note_on_c, 0, 82, 95
1, 195758, Note_on_c, 0, 94, 86
1, 195791, Note_off_c, 0, 82, 66
1, 195815, Note_off_c, 0, 94, 66
1, 195825, Control_c, 0, 64, 112
1, 195840, Control_c, 0, 64, 78
1, 195840, Note_on_c, 0, 39, 4
1, 195854, Control_c, 0, 64, 0
1, 195855, Note_off_c, 0, 39, 0
1, 195872, Note_on_c, 0, 44, 81
1, 195872, Note_on_c, 0, 95, 86
1, 195873, Note_on_c, 0, 83, 99
1, 195874, Note_on_c, 0, 39, 16
1, 195874, Note_on_c, 0, 87, 80
1, 195876, Note_on_c, 0, 32, 76
1, 195884, Control_c, 0, 64, 53
1, 195899, Control_c, 0, 64, 75
1, 195913, Note_off_c, 0, 44, 64
1, 195914, Control_c, 0, 64, 101
1, 195918, Note_off_c, 0, 83, 62
1, 195918, Note_off_c, 0, 87, 60
1, 195918, Note_off_c, 0, 95, 67
1, 195920, Note_off_c, 0, 39, 63
1, 195921, Note_off_c, 0, 32, 63
1, 195928, Control_c, 0, 64, 127
1, 195984, Note_on_c, 0, 82, 96
1, 195984, Note_on_c, 0, 94, 95
1, 196031, Note_off_c, 0, 82, 66
1, 196037, Note_off_c, 0, 94, 66
1, 196085, Note_on_c, 0, 51, 87
1, 196091, Note_on_c, 0, 39, 81
1, 196097, Note_on_c, 0, 92, 63
1, 196102, Note_on_c, 0, 80, 96
1, 196124, Note_on_c, 0, 90, 59
1, 196127, Note_off_c, 0, 92, 67
1, 196129, Note_off_c, 0, 39, 63
1, 196130, Note_off_c, 0, 51, 62
1, 196142, Note_off_c, 0, 80, 62
1, 196142, Note_off_c, 0, 90, 63
1, 196147, Note_on_c, 0, 78, 39
1, 196177, Note_off_c, 0, 78, 34
1, 196201, Note_on_c, 0, 56, 95
1, 196207, Note_on_c, 0, 44, 77
1, 196239, Note_off_c, 0, 44, 66
1, 196243, Note_off_c, 0, 56, 64
1, 196270, Note_on_c, 0, 70, 47
1, 196305, Note_off_c, 0, 70, 48
1, 196350, Control_c, 0, 64, 91
1, 196356, Note_on_c, 0, 59, 91
1, 196362, Note_on_c, 0, 63, 103
1, 196365, Control_c, 0, 64, 64
1, 196368, Note_on_c, 0, 47, 80
1, 196369, Note_on_c, 0, 51, 81
1, 196373, Note_on_c, 0, 75, 78
1, 196377, Note_on_c, 0, 71, 64
1, 196380, Control_c, 0, 64, 0
1, 196393, Note_on_c, 0, 70, 61
1, 196408, Note_on_c, 0, 73, 32
1, 196410, Control_c, 0, 64, 59
1, 196411, Note_off_c, 0, 63, 63
1, 196423, Note_off_c, 0, 70, 36
1, 196425, Control_c, 0, 64, 77
1, 196438, Note_off_c, 0, 75, 64
1, 196440, Control_c, 0, 64, 95
1, 196444, Note_off_c, 0, 73, 49
1, 196454, Control_c, 0, 64, 117
1, 196466, Note_off_c, 0, 71, 48
1, 196469, Control_c, 0, 64, 125
1, 196469, Note_off_c, 0, 47, 63
1, 196469, Note_off_c, 0, 59, 62
1, 196479, Note_off_c, 0, 51, 60
1, 196484, Control_c, 0, 64, 127
1, 196582, Note_on_c, 0, 58, 82
1, 196585, Note_on_c, 0, 46, 78
1, 196586, Note_on_c, 0, 70, 77
1, 196589, Note_on_c, 0, 63, 83
1, 196608, Note_on_c, 0, 51, 45
1, 196609, Note_off_c, 0, 58, 67
1, 196622, Note_off_c, 0, 46, 65
1, 196623, Note_off_c, 0, 63, 59
1, 196630, Note_off_c, 0, 51, 61
1, 196638, Note_off_c, 0, 70, 60
1, 196686, Note_on_c, 0, 63, 96
1, 196687, Note_on_c, 0, 59, 88
1, 196688, Note_on_c, 0, 71, 78
1, 196688, Note_on_c, 0, 75, 30
1, 196692, Control_c, 0, 64, 95
1, 196701, Note_on_c, 0, 47, 63
1, 196703, Note_on_c, 0, 51, 56
1, 196707, Control_c, 0, 64, 71
1, 196719, Note_off_c, 0, 59, 66
1, 196722, Note_off_c, 0, 63, 64
1, 196722, Control_c, 0, 64, 0
1, 196723, Note_off_c, 0, 47, 62
1, 196725, Note_off_c, 0, 51, 56
1, 196726, Note_off_c, 0, 71, 57
1, 196744, Note_off_c, 0, 75, 65
1, 196759, Control_c, 0, 64, 68
1, 196773, Control_c, 0, 64, 86
1, 196786, Note_on_c, 0, 75, 81
1, 196788, Note_on_c, 0, 61, 97
1, 196788, Control_c, 0, 64, 120
1, 196791, Note_on_c, 0, 63, 98
1, 196799, Note_on_c, 0, 49, 74
1, 196800, Note_on_c, 0, 73, 84
1, 196803, Control_c, 0, 64, 127
1, 196804, Note_on_c, 0, 51, 53
1, 196826, Note_off_c, 0, 61, 65
1, 196828, Note_off_c, 0, 51, 61
1, 196831, Note_off_c, 0, 49, 65
1, 196837, Note_off_c, 0, 63, 64
1, 196858, Note_off_c, 0, 75, 62
1, 196879, Note_off_c, 0, 73, 58
1, 196957, Note_on_c, 0, 59, 74
1, 196958, Note_on_c, 0, 47, 69
1, 196969, Note_on_c, 0, 63, 85
1, 196972, Note_on_c, 0, 71, 69
1, 196990, Note_off_c, 0, 59, 64
1, 196992, Note_off_c, 0, 47, 65
1, 196996, Note_on_c, 0, 51, 42
1, 197010, Control_c, 0, 64, 99
1, 197011, Note_off_c, 0, 63, 63
1, 197023, Note_off_c, 0, 71, 60
1, 197025, Control_c, 0, 64, 74
1, 197033, Note_off_c, 0, 51, 43
1, 197040, Control_c, 0, 64, 0
1, 197057, Note_on_c, 0, 58, 92
1, 197059, Note_on_c, 0, 63, 94
1, 197066, Note_on_c, 0, 75, 75
1, 197068, Note_on_c, 0, 70, 84
1, 197069, Note_on_c, 0, 51, 62
1, 197069, Note_on_c, 0, 46, 67
1, 197069, Control_c, 0, 64, 69
1, 197076, Note_on_c, 0, 71, 51
1, 197076, Note_off_c, 0, 58, 72
1, 197082, Note_on_c, 0, 49, 49
1, 197083, Note_off_c, 0, 49, 127
1, 197084, Control_c, 0, 64, 88
1, 197094, Note_off_c, 0, 46, 66
1, 197097, Note_off_c, 0, 70, 60
1, 197099, Control_c, 0, 64, 127
1, 197100, Note_off_c, 0, 71, 62
1, 197101, Note_off_c, 0, 51, 61
1, 197101, Note_off_c, 0, 63, 66
1, 197108, Poly_aftertouch_c, 0, 49, 0
1, 197118, Note_off_c, 0, 75, 63
1, 197146, Note_on_c, 0, 59, 88
1, 197157, Note_on_c, 0, 63, 94
1, 197160, Note_on_c, 0, 71, 90
1, 197162, Poly_aftertouch_c, 0, 75, 0
1, 197164, Note_on_c, 0, 51, 76
1, 197167, Note_on_c, 0, 75, 62
1, 197176, Note_on_c, 0, 47, 50
1, 197191, Note_off_c, 0, 59, 65
1, 197192, Note_off_c, 0, 51, 65
1, 197193, Note_off_c, 0, 75, 66
1, 197203, Note_off_c, 0, 63, 62
1, 197205, Note_on_c, 0, 70, 41
1, 197209, Note_off_c, 0, 47, 53
1, 197239, Note_off_c, 0, 71, 0
1, 197246, Note_off_c, 0, 70, 0
1, 197250, Note_on_c, 0, 58, 88
1, 197252, Note_on_c, 0, 63, 89
1, 197255, Note_on_c, 0, 70, 74
1, 197262, Note_on_c, 0, 75, 78
1, 197264, Note_on_c, 0, 51, 70
1, 197276, Poly_aftertouch_c, 0, 71, 127
1, 197288, Poly_aftertouch_c, 0, 71, 0
1, 197290, Note_off_c, 0, 58, 63
1, 197292, Control_c, 0, 64, 106
1, 197293, Note_off_c, 0, 51, 64
1, 197294, Note_off_c, 0, 63, 66
1, 197306, Note_off_c, 0, 70, 62
1, 197307, Control_c, 0, 64, 91
1, 197309, Note_off_c, 0, 75, 62
1, 197321, Control_c, 0, 64, 74
1, 197336, Control_c, 0, 64, 0
1, 197348, Note_on_c, 0, 56, 76
1, 197354, Note_on_c, 0, 63, 89
1, 197355, Note_on_c, 0, 68, 96
1, 197358, Note_on_c, 0, 75, 71
1, 197361, Note_on_c, 0, 49, 23
1, 197375, Note_off_c, 0, 56, 63
1, 197375, Note_off_c, 0, 63, 71
1, 197386, Note_off_c, 0, 68, 66
1, 197388, Note_off_c, 0, 49, 47
1, 197393, Note_on_c, 0, 45, 32
1, 197403, Note_off_c, 0, 75, 66
1, 197405, Poly_aftertouch_c, 0, 46, 0
1, 197434, Note_off_c, 0, 45, 31
1, 197551, Control_c, 0, 64, 59
1, 197566, Control_c, 0, 64, 73
1, 197579, Note_on_c, 0, 44, 93
1, 197579, Note_on_c, 0, 87, 100
1, 197581, Control_c, 0, 64, 85
1, 197582, Note_on_c, 0, 75, 101
1, 197587, Note_on_c, 0, 32, 77
1, 197588, Note_on_c, 0, 39, 73
1, 197596, Note_on_c, 0, 81, 72
1, 197596, Control_c, 0, 64, 100
1, 197602, Note_off_c, 0, 75, 68
1, 197605, Note_off_c, 0, 87, 62
1, 197611, Note_off_c, 0, 81, 66
1, 197611, Control_c, 0, 64, 115
1, 197619, Note_off_c, 0, 39, 63
1, 197620, Note_off_c, 0, 32, 64
1, 197626, Control_c, 0, 64, 127
1, 197628, Note_off_c, 0, 44, 62
1, 197775, Note_on_c, 0, 58, 78
1, 197780, Note_on_c, 0, 46, 72
1, 197783, Note_on_c, 0, 63, 90
1, 197787, Note_on_c, 0, 70, 76
1, 197795, Note_on_c, 0, 75, 69
1, 197798, Note_off_c, 0, 58, 70
1, 197805, Note_off_c, 0, 63, 68
1, 197808, Note_off_c, 0, 46, 64
1, 197814, Note_off_c, 0, 70, 64
1, 197817, Note_off_c, 0, 75, 71
1, 197863, Control_c, 0, 64, 112
1, 197866, Note_on_c, 0, 59, 88
1, 197871, Note_on_c, 0, 71, 85
1, 197873, Note_on_c, 0, 47, 73
1, 197873, Note_on_c, 0, 63, 97
1, 197877, Note_on_c, 0, 75, 76
1, 197878, Control_c, 0, 64, 88
1, 197893, Control_c, 0, 64, 65
1, 197897, Note_off_c, 0, 47, 66
1, 197898, Note_off_c, 0, 59, 65
1, 197902, Note_off_c, 0, 63, 64
1, 197904, Note_off_c, 0, 71, 60
1, 197907, Control_c, 0, 64, 0
1, 197911, Note_on_c, 0, 49, 28
1, 197914, Note_off_c, 0, 75, 62
1, 197922, Control_c, 0, 64, 51
1, 197937, Control_c, 0, 64, 72
1, 197951, Control_c, 0, 64, 90
1, 197959, Note_on_c, 0, 75, 81
1, 197960, Note_on_c, 0, 61, 94
1, 197962, Note_on_c, 0, 63, 94
1, 197963, Note_off_c, 0, 49, 0
1, 197963, Note_on_c, 0, 49, 57
1, 197966, Control_c, 0, 64, 121
1, 197968, Note_on_c, 0, 73, 72
1, 197981, Control_c, 0, 64, 127
1, 197999, Note_off_c, 0, 61, 64
1, 198005, Note_off_c, 0, 63, 63
1, 198014, Note_off_c, 0, 49, 61
1, 198016, Note_off_c, 0, 73, 64
1, 198016, Note_off_c, 0, 75, 64
1, 198126, Note_on_c, 0, 59, 73
1, 198129, Note_on_c, 0, 47, 66
1, 198138, Note_on_c, 0, 71, 74
1, 198141, Note_on_c, 0, 63, 79
1, 198152, Note_on_c, 0, 51, 59
1, 198157, Note_off_c, 0, 59, 64
1, 198160, Note_off_c, 0, 47, 65
1, 198169, Note_off_c, 0, 63, 62
1, 198180, Note_off_c, 0, 51, 65
1, 198189, Note_off_c, 0, 71, 58
1, 198204, Control_c, 0, 64, 98
1, 198219, Control_c, 0, 64, 75
1, 198222, Note_on_c, 0, 63, 89
1, 198228, Note_on_c, 0, 58, 89
1, 198231, Note_on_c, 0, 70, 78
1, 198234, Control_c, 0, 64, 0
1, 198235, Note_on_c, 0, 46, 81
1, 198235, Note_on_c, 0, 71, 42
1, 198236, Note_on_c, 0, 75, 71
1, 198240, Note_on_c, 0, 51, 73
1, 198253, Note_off_c, 0, 58, 72
1, 198270, Note_off_c, 0, 70, 63
1, 198271, Control_c, 0, 64, 59
1, 198272, Note_off_c, 0, 51, 66
1, 198273, Note_on_c, 0, 49, 25
1, 198274, Note_off_c, 0, 49, 127
1, 198274, Note_off_c, 0, 46, 65
1, 198274, Note_off_c, 0, 71, 63
1, 198275, Note_off_c, 0, 75, 65
1, 198278, Note_off_c, 0, 63, 64
1, 198286, Control_c, 0, 64, 74
1, 198301, Control_c, 0, 64, 98
1, 198310, Poly_aftertouch_c, 0, 49, 0
1, 198316, Control_c, 0, 64, 123
1, 198324, Note_on_c, 0, 59, 91
1, 198326, Note_on_c, 0, 63, 82
1, 198327, Note_on_c, 0, 71, 88
1, 198330, Control_c, 0, 64, 127
1, 198334, Note_on_c, 0, 51, 71
1, 198341, Note_on_c, 0, 75, 60
1, 198350, Note_on_c, 0, 47, 52
1, 198362, Note_off_c, 0, 75, 67
1, 198363, Note_off_c, 0, 59, 66
1, 198367, Note_off_c, 0, 63, 64
1, 198368, Note_off_c, 0, 51, 58
1, 198379, Note_off_c, 0, 47, 57
1, 198419, Control_c, 0, 64, 122
1, 198423, Note_on_c, 0, 63, 82
1, 198425, Note_on_c, 0, 58, 89
1, 198425, Note_on_c, 0, 70, 84
1, 198434, Note_on_c, 0, 51, 65
1, 198434, Control_c, 0, 64, 108
1, 198437, Note_on_c, 0, 75, 68
1, 198449, Control_c, 0, 64, 95
1, 198461, Note_off_c, 0, 75, 68
1, 198462, Note_off_c, 0, 63, 65
1, 198464, Note_off_c, 0, 58, 59
1, 198464, Control_c, 0, 64, 79
1, 198464, Note_off_c, 0, 51, 63
1, 198465, Note_off_c, 0, 71, 55
1, 198473, Note_off_c, 0, 70, 64
1, 198479, Control_c, 0, 64, 62
1, 198493, Control_c, 0, 64, 0
1, 198516, Note_on_c, 0, 56, 84
1, 198521, Note_on_c, 0, 44, 76
1, 198521, Note_on_c, 0, 63, 91
1, 198524, Note_on_c, 0, 68, 90
1, 198525, Note_on_c, 0, 51, 70
1, 198535, Note_on_c, 0, 75, 70
1, 198538, Note_off_c, 0, 56, 69
1, 198539, Note_off_c, 0, 63, 74
1, 198550, Note_off_c, 0, 51, 65
1, 198550, Note_off_c, 0, 68, 64
1, 198568, Note_off_c, 0, 44, 63
1, 198570, Note_off_c, 0, 75, 68
1, 198701, Control_c, 0, 64, 53
1, 198716, Control_c, 0, 64, 68
1, 198730, Control_c, 0, 64, 77
1, 198735, Note_on_c, 0, 75, 90
1, 198735, Note_on_c, 0, 87, 88
1, 198738, Note_on_c, 0, 80, 81
1, 198741, Note_on_c, 0, 32, 74
1, 198741, Note_on_c, 0, 44, 79
1, 198743, Note_on_c, 0, 39, 69
1, 198745, Control_c, 0, 64, 89
1, 198753, Note_off_c, 0, 75, 72
1, 198753, Note_off_c, 0, 87, 72
1, 198756, Note_off_c, 0, 80, 73
1, 198760, Control_c, 0, 64, 100
1, 198774, Note_off_c, 0, 39, 62
1, 198774, Control_c, 0, 64, 106
1, 198775, Note_off_c, 0, 32, 63
1, 198775, Note_off_c, 0, 44, 64
1, 198789, Control_c, 0, 64, 108
1, 198804, Control_c, 0, 64, 111
1, 198819, Control_c, 0, 64, 113
1, 198834, Control_c, 0, 64, 117
1, 198848, Control_c, 0, 64, 121
1, 198863, Control_c, 0, 64, 127
1, 198915, Note_on_c, 0, 59, 80
1, 198929, Note_on_c, 0, 63, 86
1, 198931, Note_on_c, 0, 51, 66
1, 198932, Note_on_c, 0, 71, 71
1, 198934, Note_on_c, 0, 47, 59
1, 198947, Note_off_c, 0, 59, 64
1, 198950, Note_off_c, 0, 63, 69
1, 198953, Note_on_c, 0, 75, 49
1, 198960, Note_off_c, 0, 47, 61
1, 198962, Note_off_c, 0, 51, 62
1, 198969, Note_off_c, 0, 71, 58
1, 198977, Note_off_c, 0, 75, 55
1, 199022, Note_on_c, 0, 63, 102
1, 199027, Note_on_c, 0, 70, 90
1, 199030, Note_on_c, 0, 58, 90
1, 199035, Control_c, 0, 64, 127
1, 199037, Note_on_c, 0, 51, 72
1, 199042, Note_on_c, 0, 75, 71
1, 199048, Note_on_c, 0, 46, 65
1, 199050, Control_c, 0, 64, 108
1, 199052, Note_off_c, 0, 58, 69
1, 199053, Note_off_c, 0, 63, 66
1, 199064, Note_off_c, 0, 51, 65
1, 199065, Control_c, 0, 64, 90
1, 199066, Note_off_c, 0, 75, 66
1, 199072, Note_off_c, 0, 70, 61
1, 199073, Note_off_c, 0, 46, 63
1, 199079, Control_c, 0, 64, 72
1, 199094, Control_c, 0, 64, 0
1, 199119, Note_on_c, 0, 56, 93
1, 199123, Note_on_c, 0, 63, 101
1, 199131, Note_on_c, 0, 44, 67
1, 199131, Note_on_c, 0, 51, 78
1, 199131, Note_on_c, 0, 75, 85
1, 199134, Note_on_c, 0, 68, 80
1, 199140, Note_off_c, 0, 63, 72
1, 199143, Note_off_c, 0, 56, 68
1, 199153, Note_off_c, 0, 44, 59
1, 199153, Note_off_c, 0, 51, 69
1, 199155, Note_off_c, 0, 68, 71
1, 199167, Note_on_c, 0, 45, 47
1, 199168, Note_off_c, 0, 45, 127
1, 199177, Note_off_c, 0, 75, 64
1, 199301, Control_c, 0, 64, 64
1, 199316, Control_c, 0, 64, 79
1, 199331, Control_c, 0, 64, 99
1, 199338, Note_on_c, 0, 80, 102
1, 199338, Note_on_c, 0, 92, 104
1, 199340, Note_on_c, 0, 46, 98
1, 199341, Note_on_c, 0, 87, 95
1, 199343, Note_on_c, 0, 34, 74
1, 199346, Control_c, 0, 64, 127
1, 199352, Note_off_c, 0, 87, 75
1, 199358, Note_on_c, 0, 37, 19
1, 199366, Note_off_c, 0, 80, 62
1, 199372, Note_off_c, 0, 92, 63
1, 199373, Note_on_c, 0, 40, 48
1, 199377, Note_off_c, 0, 46, 61
1, 199379, Note_on_c, 0, 33, 44
1, 199382, Note_on_c, 0, 90, 21
1, 199383, Note_off_c, 0, 90, 127
1, 199385, Note_off_c, 0, 34, 66
1, 199402, Note_off_c, 0, 37, 43
1, 199406, Note_off_c, 0, 40, 53
1, 199414, Note_off_c, 0, 33, 53
1, 199455, Poly_aftertouch_c, 0, 44, 0
1, 199544, Note_on_c, 0, 59, 80
1, 199547, Note_on_c, 0, 71, 80
1, 199549, Note_on_c, 0, 63, 92
1, 199560, Note_on_c, 0, 47, 69
1, 199563, Note_on_c, 0, 75, 72
1, 199567, Note_on_c, 0, 51, 55
1, 199574, Note_off_c, 0, 63, 66
1, 199577, Note_off_c, 0, 59, 61
1, 199586, Note_off_c, 0, 47, 66
1, 199588, Note_off_c, 0, 75, 69
1, 199594, Note_off_c, 0, 71, 57
1, 199598, Note_off_c, 0, 51, 63
1, 199641, Note_on_c, 0, 63, 94
1, 199644, Note_on_c, 0, 70, 86
1, 199656, Note_on_c, 0, 75, 72
1, 199657, Control_c, 0, 64, 112
1, 199661, Note_on_c, 0, 58, 80
1, 199662, Note_on_c, 0, 51, 76
1, 199669, Note_off_c, 0, 63, 59
1, 199671, Control_c, 0, 64, 96
1, 199680, Note_off_c, 0, 75, 68
1, 199683, Note_off_c, 0, 58, 70
1, 199683, Note_on_c, 0, 46, 50
1, 199686, Control_c, 0, 64, 78
1, 199692, Note_off_c, 0, 70, 61
1, 199701, Note_off_c, 0, 51, 64
1, 199701, Control_c, 0, 64, 54
1, 199702, Note_off_c, 0, 46, 61
1, 199716, Control_c, 0, 64, 0
1, 199748, Note_on_c, 0, 63, 104
1, 199751, Note_on_c, 0, 56, 76
1, 199755, Note_on_c, 0, 68, 71
1, 199757, Note_on_c, 0, 51, 72
1, 199759, Note_on_c, 0, 75, 82
1, 199765, Note_on_c, 0, 44, 71
1, 199766, Note_off_c, 0, 63, 73
1, 199774, Note_off_c, 0, 56, 67
1, 199780, Note_off_c, 0, 68, 69
1, 199784, Note_off_c, 0, 51, 65
1, 199799, Note_off_c, 0, 44, 68
1, 199806, Note_off_c, 0, 75, 66
1, 199932, Note_on_c, 0, 90, 43
1, 199951, Note_on_c, 0, 39, 3
1, 199952, Note_off_c, 0, 39, 127
1, 199971, Note_off_c, 0, 90, 47
1, 200006, Note_on_c, 0, 83, 98
1, 200006, Control_c, 0, 64, 72
1, 200008, Note_on_c, 0, 95, 97
1, 200011, Note_on_c, 0, 44, 96
1, 200012, Note_on_c, 0, 87, 89
1, 200014, Note_on_c, 0, 39, 74
1, 200016, Note_on_c, 0, 32, 80
1, 200020, Control_c, 0, 64, 90
1, 200035, Control_c, 0, 64, 113
1, 200038, Note_off_c, 0, 95, 70
1, 200049, Note_off_c, 0, 83, 58
1, 200050, Control_c, 0, 64, 127
1, 200052, Note_off_c, 0, 32, 64
1, 200052, Note_off_c, 0, 39, 65
1, 200052, Note_off_c, 0, 87, 65
1, 200055, Note_off_c, 0, 44, 65
1, 200247, Note_on_c, 0, 59, 77
1, 200264, Note_on_c, 0, 71, 69
1, 200267, Note_on_c, 0, 63, 92
1, 200273, Note_on_c, 0, 51, 59
1, 200278, Note_on_c, 0, 75, 73
1, 200282, Note_on_c, 0, 47, 37
1, 200282, Note_off_c, 0, 59, 63
1, 200310, Note_off_c, 0, 63, 63
1, 200316, Note_off_c, 0, 75, 53
1, 200318, Note_off_c, 0, 47, 54
1, 200327, Poly_aftertouch_c, 0, 48, 127
1, 200329, Note_off_c, 0, 51, 52
1, 200339, Note_off_c, 0, 71, 54
1, 200351, Poly_aftertouch_c, 0, 48, 0
1, 200374, Note_on_c, 0, 63, 95
1, 200374, Note_on_c, 0, 58, 82
1, 200380, Note_on_c, 0, 70, 79
1, 200383, Note_on_c, 0, 51, 63
1, 200383, Note_on_c, 0, 75, 73
1, 200399, Note_on_c, 0, 68, 62
1, 200413, Note_on_c, 0, 46, 38
1, 200413, Note_off_c, 0, 63, 67
1, 200416, Note_off_c, 0, 68, 64
1, 200419, Note_off_c, 0, 58, 62
1, 200434, Note_off_c, 0, 75, 64
1, 200437, Note_off_c, 0, 70, 63
1, 200438, Note_off_c, 0, 51, 60
1, 200448, Note_off_c, 0, 46, 46
1, 200450, Control_c, 0, 64, 111
1, 200465, Control_c, 0, 64, 95
1, 200480, Control_c, 0, 64, 78
1, 200485, Note_on_c, 0, 51, 78
1, 200485, Note_on_c, 0, 56, 94
1, 200497, Note_on_c, 0, 44, 79
1, 200501, Note_on_c, 0, 68, 85
1, 200502, Control_c, 0, 64, 52
1, 200503, Note_on_c, 0, 63, 92
1, 200505, Note_on_c, 0, 75, 80
1, 200517, Control_c, 0, 64, 0
1, 200519, Note_off_c, 0, 63, 76
1, 200521, Note_off_c, 0, 56, 62
1, 200528, Note_off_c, 0, 51, 62
1, 200532, Note_off_c, 0, 68, 63
1, 200552, Note_off_c, 0, 44, 65
1, 200557, Note_off_c, 0, 75, 66
1, 200766, Poly_aftertouch_c, 0, 37, 127
1, 200806, Note_on_c, 0, 87, 94
1, 200806, Note_on_c, 0, 99, 98
1, 200807, Note_on_c, 0, 92, 97
1, 200808, Note_on_c, 0, 44, 95
1, 200809, Note_on_c, 0, 39, 84
1, 200814, Note_on_c, 0, 32, 78
1, 200814, Control_c, 0, 64, 69
1, 200829, Control_c, 0, 64, 86
1, 200843, Control_c, 0, 64, 112
1, 200845, Note_off_c, 0, 32, 65
1, 200848, Poly_aftertouch_c, 0, 37, 0
1, 200857, Note_off_c, 0, 44, 65
1, 200858, Control_c, 0, 64, 127
1, 200861, Note_off_c, 0, 39, 60
1, 200869, Note_off_c, 0, 87, 62
1, 200888, Note_off_c, 0, 92, 63
1, 200888, Note_off_c, 0, 99, 68
1, 201108, Note_on_c, 0, 92, 97
1, 201108, Note_on_c, 0, 56, 81
1, 201109, Note_on_c, 0, 51, 73
1, 201109, Note_on_c, 0, 87, 92
1, 201109, Note_on_c, 0, 99, 93
1, 201126, Note_on_c, 0, 44, 54
1, 201132, Note_off_c, 0, 56, 68
1, 201137, Note_off_c, 0, 51, 63
1, 201149, Note_off_c, 0, 44, 57
1, 201154, Note_off_c, 0, 87, 61
1, 201181, Note_off_c, 0, 92, 64
1, 201187, Note_off_c, 0, 99, 67
1, 201275, Note_on_c, 0, 68, 85
1, 201277, Note_on_c, 0, 87, 91
1, 201277, Note_on_c, 0, 99, 88
1, 201279, Note_on_c, 0, 92, 92
1, 201281, Note_on_c, 0, 63, 77
1, 201300, Note_off_c, 0, 68, 65
1, 201304, Note_off_c, 0, 63, 70
1, 201305, Note_on_c, 0, 56, 43
1, 201330, Note_off_c, 0, 56, 55
1, 201334, Note_off_c, 0, 87, 54
1, 201361, Note_off_c, 0, 99, 68
1, 201364, Note_off_c, 0, 92, 62
1, 201449, Note_on_c, 0, 80, 89
1, 201455, Note_on_c, 0, 75, 83
1, 201460, Note_on_c, 0, 87, 92
1, 201461, Note_on_c, 0, 92, 92
1, 201462, Note_on_c, 0, 99, 89
1, 201465, Note_off_c, 0, 80, 74
1, 201476, Note_off_c, 0, 75, 72
1, 201491, Note_on_c, 0, 68, 36
1, 201505, Note_off_c, 0, 87, 63
1, 201512, Note_off_c, 0, 68, 62
1, 201533, Note_off_c, 0, 99, 67
1, 201538, Note_off_c, 0, 92, 62
1, 201596, Note_on_c, 0, 68, 83
1, 201608, Note_on_c, 0, 99, 90
1, 201608, Note_on_c, 0, 87, 92
1, 201613, Note_on_c, 0, 92, 88
1, 201619, Note_off_c, 0, 68, 68
1, 201620, Note_on_c, 0, 63, 58
1, 201638, Note_on_c, 0, 56, 37
1, 201638, Note_off_c, 0, 63, 63
1, 201651, Note_off_c, 0, 87, 64
1, 201667, Note_off_c, 0, 56, 54
1, 201680, Note_off_c, 0, 99, 67
1, 201682, Note_off_c, 0, 92, 64
1, 201728, Note_on_c, 0, 56, 90
1, 201731, Note_on_c, 0, 92, 85
1, 201731, Note_on_c, 0, 99, 85
1, 201733, Note_on_c, 0, 87, 101
1, 201746, Note_on_c, 0, 51, 63
1, 201749, Note_off_c, 0, 56, 70
1, 201764, Note_off_c, 0, 51, 64
1, 201784, Note_off_c, 0, 87, 60
1, 201807, Poly_aftertouch_c, 0, 44, 0
1, 201812, Note_off_c, 0, 92, 65
1, 201821, Note_off_c, 0, 99, 67
1, 201841, Poly_aftertouch_c, 0, 44, 0
1, 201950, Note_on_c, 0, 87, 107
1, 201950, Note_on_c, 0, 99, 100
1, 201954, Note_on_c, 0, 44, 87
1, 201954, Note_on_c, 0, 92, 94
1, 201956, Note_on_c, 0, 39, 82
1, 201960, Note_on_c, 0, 32, 81
1, 202008, Note_off_c, 0, 32, 64
1, 202012, Note_off_c, 0, 99, 69
1, 202017, Note_off_c, 0, 44, 64
1, 202019, Note_off_c, 0, 87, 59
1, 202024, Note_off_c, 0, 39, 63
1, 202035, Note_off_c, 0, 92, 65
1, 202074, Control_c, 0, 64, 117
1, 202089, Control_c, 0, 64, 109
1, 202104, Control_c, 0, 64, 102
1, 202118, Control_c, 0, 64, 95
1, 202133, Control_c, 0, 64, 88
1, 202148, Control_c, 0, 64, 81
1, 202163, Control_c, 0, 64, 72
1, 202178, Control_c, 0, 64, 60
1, 202193, Control_c, 0, 64, 0
1, 202952, Note_on_c, 0, 59, 48
1, 202952, Note_on_c, 0, 68, 46
1, 202953, Note_on_c, 0, 63, 51
1, 202954, Note_on_c, 0, 44, 47
1, 202962, Note_on_c, 0, 56, 42
1, 202973, Note_on_c, 0, 51, 37
1, 202992, Note_off_c, 0, 63, 65
1, 202995, Note_off_c, 0, 44, 64
1, 202995, Note_off_c, 0, 59, 62
1, 202996, Note_off_c, 0, 56, 63
1, 203002, Note_off_c, 0, 51, 56
1, 203021, Note_off_c, 0, 68, 63
1, 203898, Control_c, 0, 64, 28
1, 203913, Control_c, 0, 64, 42
1, 203928, Control_c, 0, 64, 51
1, 203942, Control_c, 0, 64, 58
1, 203957, Control_c, 0, 64, 62
1, 203972, Control_c, 0, 64, 64
1, 203983, Note_on_c, 0, 92, 53
1, 203986, Control_c, 0, 64, 66
1, 203995, Note_on_c, 0, 83, 45
1, 203996, Note_on_c, 0, 59, 26
1, 204001, Control_c, 0, 64, 69
1, 204005, Note_on_c, 0, 87, 38
1, 204010, Note_on_c, 0, 68, 32
1, 204016, Note_on_c, 0, 80, 30
1, 204016, Control_c, 0, 64, 72
1, 204027, Note_on_c, 0, 71, 26
1, 204029, Note_on_c, 0, 63, 31
1, 204031, Control_c, 0, 64, 77
1, 204046, Control_c, 0, 64, 80
1, 204060, Control_c, 0, 64, 82
1, 204075, Control_c, 0, 64, 83
1, 204090, Control_c, 0, 64, 85
1, 204105, Control_c, 0, 64, 86
1, 204119, Control_c, 0, 64, 88
1, 204134, Control_c, 0, 64, 90
1, 204149, Control_c, 0, 64, 91
1, 204164, Control_c, 0, 64, 92
1, 204179, Control_c, 0, 64, 92
1, 204193, Control_c, 0, 64, 93
1, 204223, Control_c, 0, 64, 93
1, 204261, Control_c, 0, 64, 94
1, 204298, Note_off_c, 0, 92, 30
1, 204314, Note_off_c, 0, 87, 27
1, 204323, Note_off_c, 0, 83, 24
1, 204366, Note_off_c, 0, 80, 33
1, 204574, Note_off_c, 0, 59, 29
1, 204718, Note_off_c, 0, 63, 12
1, 204895, Note_off_c, 0, 71, 9
1, 204932, Note_off_c, 0, 68, 27
1, 206069, Control_c, 0, 64, 93
1, 206128, Control_c, 0, 64, 93
1, 206157, Control_c, 0, 64, 92
1, 206202, Control_c, 0, 64, 92
1, 206218, Control_c, 0, 64, 91
1, 206233, Control_c, 0, 64, 91
1, 206248, Control_c, 0, 64, 90
1, 206262, Control_c, 0, 64, 89
1, 206277, Control_c, 0, 64, 88
1, 206292, Control_c, 0, 64, 87
1, 206307, Control_c, 0, 64, 86
1, 206322, Control_c, 0, 64, 84
1, 206336, Control_c, 0, 64, 81
1, 206351, Control_c, 0, 64, 78
1, 206366, Control_c, 0, 64, 73
1, 206381, Control_c, 0, 64, 68
1, 206396, Control_c, 0, 64, 58
1, 206411, Control_c, 0, 64, 21
1, 206426, Control_c, 0, 64, 0
1, 206426, End_track
0, 0, End_of_file
