0, 0, Header, 0, 1, 384
1, 0, Start_track
1, 0, Title_t, "32 Variations--Vladimir Levitsky"
1, 0, Text_t, "2008 e-Piano Junior Competition recital round"
1, 0, Text_t, "recorded July 2008"
1, 0, Text_t, "http://www.piano-e-competition.com/"
1, 0, Text_t, "File processed for distribution by software from Zenph Studios, Inc., http://www.zenph.com"
1, 0, Instrument_name_t, "Yamaha Disklavier Pro Mark IV concert grand piano, model DCFIIISM4PRO"
1, 0, Sequencer_specific, 39, 67, 113, 0, 1, 0, 1, 0, 51, 50, 32, 86, 97, 114, 105, 97, 116, 105, 111, 110, 115, 32, 32, 32, 86, 108, 97, 100, 105, 109, 105, 114, 76, 101, 118, 105, 116, 115, 107, 121
1, 0, Sequencer_specific, 6, 67, 113, 0, 0, 0, 69
1, 0, System_exclusive, 21, 67, 113, 126, 21, 0, 2, 2, 0, 3, 14, 1, 4, 1, 13, 13, 10, 11, 9, 2, 7, 247
1, 0, Sequencer_specific, 5, 67, 123, 12, 2, 1
1, 0, Tempo, 512820
1, 0, Time_signature, 4, 2, 24, 8
1, 0, System_exclusive, 5, 126, 127, 9, 1, 247
1, 1, System_exclusive, 8, 67, 16, 76, 0, 0, 126, 0, 247
1, 2, System_exclusive, 8, 67, 16, 76, 8, 9, 7, 1, 247
1, 3, Control_c, 0, 0, 0
1, 3, Control_c, 1, 0, 0
1, 3, Control_c, 2, 0, 0
1, 3, Control_c, 3, 0, 0
1, 3, Control_c, 4, 0, 0
1, 3, Control_c, 5, 0, 0
1, 3, Control_c, 6, 0, 0
1, 3, Control_c, 7, 0, 0
1, 3, Control_c, 8, 0, 0
1, 3, Control_c, 9, 0, 127
1, 3, Control_c, 10, 0, 0
1, 3, Control_c, 11, 0, 0
1, 3, Control_c, 12, 0, 0
1, 3, Control_c, 13, 0, 0
1, 3, Control_c, 14, 0, 0
1, 3, Control_c, 15, 0, 0
1, 4, Control_c, 0, 32, 0
1, 4, Control_c, 1, 32, 0
1, 4, Control_c, 2, 32, 0
1, 4, Control_c, 3, 32, 0
1, 4, Control_c, 4, 32, 0
1, 4, Control_c, 5, 32, 0
1, 4, Control_c, 6, 32, 0
1, 4, Control_c, 7, 32, 0
1, 4, Control_c, 8, 32, 0
1, 4, Control_c, 9, 32, 0
1, 4, Control_c, 10, 32, 0
1, 4, Control_c, 11, 32, 0
1, 4, Control_c, 12, 32, 0
1, 4, Control_c, 13, 32, 0
1, 4, Control_c, 14, 32, 0
1, 4, Control_c, 15, 32, 0
1, 5, Program_c, 0, 0
1, 5, Program_c, 1, 0
1, 5, Program_c, 2, 0
1, 5, Program_c, 3, 0
1, 5, Program_c, 4, 0
1, 5, Program_c, 5, 0
1, 5, Program_c, 6, 0
1, 5, Program_c, 7, 0
1, 5, Program_c, 8, 0
1, 5, Program_c, 9, 0
1, 5, Program_c, 10, 0
1, 5, Program_c, 11, 0
1, 5, Program_c, 12, 0
1, 5, Program_c, 13, 0
1, 5, Program_c, 14, 0
1, 5, Program_c, 15, 0
1, 6, Control_c, 0, 7, 100
1, 6, Control_c, 1, 7, 100
1, 6, Control_c, 2, 7, 100
1, 6, Control_c, 3, 7, 100
1, 6, Control_c, 4, 7, 100
1, 6, Control_c, 5, 7, 100
1, 6, Control_c, 6, 7, 100
1, 6, Control_c, 7, 7, 100
1, 6, Control_c, 8, 7, 100
1, 6, Control_c, 9, 7, 100
1, 6, Control_c, 10, 7, 100
1, 6, Control_c, 11, 7, 100
1, 6, Control_c, 12, 7, 100
1, 6, Control_c, 13, 7, 100
1, 6, Control_c, 14, 7, 100
1, 6, Control_c, 15, 7, 100
1, 1137, Note_on_c, 0, 55, 74
1, 1139, Note_on_c, 0, 51, 71
1, 1145, Note_on_c, 0, 48, 64
1, 1595, Note_on_c, 0, 72, 84
1, 1820, Control_c, 0, 64, 56
1, 1835, Control_c, 0, 64, 64
1, 1849, Control_c, 0, 64, 66
1, 1864, Control_c, 0, 64, 68
1, 1887, Control_c, 0, 64, 70
1, 1902, Control_c, 0, 64, 74
1, 1917, Control_c, 0, 64, 79
1, 1931, Control_c, 0, 64, 83
1, 1946, Control_c, 0, 64, 85
1, 1961, Control_c, 0, 64, 88
1, 1976, Control_c, 0, 64, 91
1, 1991, Control_c, 0, 64, 94
1, 2005, Control_c, 0, 64, 97
1, 2020, Control_c, 0, 64, 100
1, 2035, Control_c, 0, 64, 103
1, 2050, Control_c, 0, 64, 106
1, 2064, Control_c, 0, 64, 109
1, 2079, Control_c, 0, 64, 112
1, 2094, Control_c, 0, 64, 114
1, 2102, Note_off_c, 0, 72, 58
1, 2109, Control_c, 0, 64, 117
1, 2116, Note_off_c, 0, 48, 62
1, 2117, Note_off_c, 0, 51, 57
1, 2122, Note_off_c, 0, 55, 37
1, 2124, Control_c, 0, 64, 120
1, 2138, Control_c, 0, 64, 124
1, 2153, Control_c, 0, 64, 127
1, 2258, Note_on_c, 0, 75, 81
1, 2332, Control_c, 0, 64, 118
1, 2347, Control_c, 0, 64, 105
1, 2357, Note_on_c, 0, 74, 86
1, 2362, Control_c, 0, 64, 89
1, 2369, Note_on_c, 0, 50, 70
1, 2370, Note_on_c, 0, 55, 74
1, 2373, Note_on_c, 0, 47, 65
1, 2376, Control_c, 0, 64, 73
1, 2385, Note_off_c, 0, 75, 64
1, 2391, Control_c, 0, 64, 0
1, 2618, Note_off_c, 0, 74, 62
1, 2871, Note_on_c, 0, 67, 86
1, 3125, Control_c, 0, 64, 62
1, 3140, Control_c, 0, 64, 67
1, 3155, Control_c, 0, 64, 70
1, 3170, Control_c, 0, 64, 73
1, 3184, Control_c, 0, 64, 76
1, 3199, Control_c, 0, 64, 78
1, 3214, Control_c, 0, 64, 81
1, 3229, Control_c, 0, 64, 83
1, 3244, Control_c, 0, 64, 84
1, 3259, Control_c, 0, 64, 86
1, 3262, Note_off_c, 0, 67, 49
1, 3274, Control_c, 0, 64, 88
1, 3289, Control_c, 0, 64, 90
1, 3304, Control_c, 0, 64, 92
1, 3319, Control_c, 0, 64, 92
1, 3334, Control_c, 0, 64, 93
1, 3348, Control_c, 0, 64, 94
1, 3363, Control_c, 0, 64, 95
1, 3385, Control_c, 0, 64, 96
1, 3400, Control_c, 0, 64, 97
1, 3415, Control_c, 0, 64, 98
1, 3429, Control_c, 0, 64, 98
1, 3444, Control_c, 0, 64, 99
1, 3459, Control_c, 0, 64, 100
1, 3472, Note_on_c, 0, 67, 64
1, 3474, Control_c, 0, 64, 101
1, 3494, Note_off_c, 0, 55, 50
1, 3503, Control_c, 0, 64, 101
1, 3525, Note_on_c, 0, 69, 73
1, 3530, Note_off_c, 0, 67, 61
1, 3554, Note_off_c, 0, 50, 61
1, 3555, Note_off_c, 0, 47, 63
1, 3563, Control_c, 0, 64, 102
1, 3586, Note_on_c, 0, 71, 74
1, 3592, Note_off_c, 0, 69, 65
1, 3614, Note_off_c, 0, 71, 62
1, 3637, Control_c, 0, 64, 102
1, 3646, Note_on_c, 0, 72, 79
1, 3697, Note_on_c, 0, 74, 84
1, 3711, Control_c, 0, 64, 101
1, 3714, Note_off_c, 0, 72, 62
1, 3726, Control_c, 0, 64, 97
1, 3741, Control_c, 0, 64, 88
1, 3756, Control_c, 0, 64, 75
1, 3761, Note_on_c, 0, 76, 94
1, 3764, Note_on_c, 0, 55, 77
1, 3766, Note_on_c, 0, 46, 79
1, 3766, Note_on_c, 0, 52, 77
1, 3771, Control_c, 0, 64, 55
1, 3780, Note_on_c, 0, 48, 71
1, 3785, Control_c, 0, 64, 0
1, 3794, Note_off_c, 0, 74, 67
1, 3968, Note_off_c, 0, 76, 63
1, 4251, Note_on_c, 0, 76, 94
1, 4474, Control_c, 0, 64, 58
1, 4489, Control_c, 0, 64, 66
1, 4504, Control_c, 0, 64, 68
1, 4519, Control_c, 0, 64, 71
1, 4533, Control_c, 0, 64, 74
1, 4548, Control_c, 0, 64, 78
1, 4563, Control_c, 0, 64, 81
1, 4578, Control_c, 0, 64, 83
1, 4593, Control_c, 0, 64, 85
1, 4607, Control_c, 0, 64, 88
1, 4622, Control_c, 0, 64, 90
1, 4637, Control_c, 0, 64, 93
1, 4651, Control_c, 0, 64, 96
1, 4666, Control_c, 0, 64, 98
1, 4681, Control_c, 0, 64, 100
1, 4696, Control_c, 0, 64, 102
1, 4711, Control_c, 0, 64, 103
1, 4726, Control_c, 0, 64, 104
1, 4741, Control_c, 0, 64, 106
1, 4755, Control_c, 0, 64, 107
1, 4770, Control_c, 0, 64, 108
1, 4785, Control_c, 0, 64, 108
1, 4792, Note_off_c, 0, 52, 60
1, 4798, Note_off_c, 0, 48, 62
1, 4800, Control_c, 0, 64, 109
1, 4815, Control_c, 0, 64, 110
1, 4817, Note_off_c, 0, 55, 55
1, 4820, Note_off_c, 0, 76, 61
1, 4830, Control_c, 0, 64, 111
1, 4836, Note_off_c, 0, 46, 57
1, 4845, Control_c, 0, 64, 111
1, 4882, Control_c, 0, 64, 112
1, 4912, Control_c, 0, 64, 112
1, 4973, Note_on_c, 0, 79, 83
1, 5030, Control_c, 0, 64, 111
1, 5045, Control_c, 0, 64, 102
1, 5060, Control_c, 0, 64, 89
1, 5061, Note_on_c, 0, 77, 97
1, 5068, Note_on_c, 0, 53, 82
1, 5069, Note_on_c, 0, 48, 77
1, 5073, Note_on_c, 0, 45, 69
1, 5074, Control_c, 0, 64, 74
1, 5089, Control_c, 0, 64, 16
1, 5090, Note_off_c, 0, 79, 63
1, 5104, Control_c, 0, 64, 0
1, 5296, Note_off_c, 0, 77, 61
1, 5563, Note_on_c, 0, 65, 84
1, 5810, Control_c, 0, 64, 64
1, 5824, Control_c, 0, 64, 68
1, 5839, Control_c, 0, 64, 71
1, 5854, Control_c, 0, 64, 74
1, 5869, Control_c, 0, 64, 77
1, 5884, Control_c, 0, 64, 80
1, 5898, Control_c, 0, 64, 83
1, 5900, Note_off_c, 0, 65, 66
1, 5913, Control_c, 0, 64, 85
1, 5928, Control_c, 0, 64, 87
1, 5943, Control_c, 0, 64, 89
1, 5958, Control_c, 0, 64, 90
1, 5972, Control_c, 0, 64, 92
1, 5987, Control_c, 0, 64, 92
1, 6002, Control_c, 0, 64, 93
1, 6017, Control_c, 0, 64, 93
1, 6046, Control_c, 0, 64, 94
1, 6076, Control_c, 0, 64, 94
1, 6222, Note_on_c, 0, 72, 62
1, 6233, Note_off_c, 0, 53, 62
1, 6236, Note_off_c, 0, 45, 63
1, 6240, Note_off_c, 0, 48, 62
1, 6264, Note_on_c, 0, 74, 67
1, 6284, Note_off_c, 0, 72, 64
1, 6307, Note_on_c, 0, 75, 69
1, 6349, Note_off_c, 0, 74, 63
1, 6358, Note_on_c, 0, 77, 85
1, 6384, Note_off_c, 0, 75, 63
1, 6410, Control_c, 0, 64, 93
1, 6424, Control_c, 0, 64, 88
1, 6439, Control_c, 0, 64, 78
1, 6455, Control_c, 0, 64, 65
1, 6469, Note_on_c, 0, 78, 94
1, 6469, Control_c, 0, 64, 0
1, 6470, Note_on_c, 0, 54, 88
1, 6472, Note_on_c, 0, 51, 82
1, 6475, Note_on_c, 0, 48, 71
1, 6478, Note_on_c, 0, 44, 74
1, 6520, Note_off_c, 0, 77, 59
1, 6685, Note_off_c, 0, 78, 63
1, 6972, Note_on_c, 0, 66, 94
1, 7233, Control_c, 0, 64, 61
1, 7248, Control_c, 0, 64, 67
1, 7263, Control_c, 0, 64, 69
1, 7277, Control_c, 0, 64, 72
1, 7292, Control_c, 0, 64, 75
1, 7307, Control_c, 0, 64, 79
1, 7322, Control_c, 0, 64, 82
1, 7337, Control_c, 0, 64, 85
1, 7349, Note_off_c, 0, 66, 65
1, 7352, Control_c, 0, 64, 87
1, 7367, Control_c, 0, 64, 89
1, 7382, Control_c, 0, 64, 91
1, 7396, Control_c, 0, 64, 93
1, 7411, Control_c, 0, 64, 94
1, 7426, Control_c, 0, 64, 95
1, 7441, Control_c, 0, 64, 95
1, 7622, Note_off_c, 0, 51, 53
1, 7628, Note_on_c, 0, 72, 74
1, 7640, Note_off_c, 0, 48, 57
1, 7670, Note_off_c, 0, 44, 60
1, 7673, Note_on_c, 0, 74, 69
1, 7678, Note_off_c, 0, 54, 59
1, 7702, Note_off_c, 0, 72, 63
1, 7732, Note_on_c, 0, 75, 75
1, 7751, Control_c, 0, 64, 94
1, 7766, Control_c, 0, 64, 91
1, 7766, Note_off_c, 0, 74, 65
1, 7778, Note_on_c, 0, 78, 82
1, 7781, Control_c, 0, 64, 85
1, 7795, Control_c, 0, 64, 76
1, 7798, Note_off_c, 0, 75, 65
1, 7810, Control_c, 0, 64, 63
1, 7825, Control_c, 0, 64, 0
1, 7860, Note_on_c, 0, 55, 92
1, 7864, Note_on_c, 0, 51, 87
1, 7865, Note_on_c, 0, 79, 92
1, 7866, Note_on_c, 0, 43, 82
1, 7876, Note_on_c, 0, 48, 85
1, 7897, Note_off_c, 0, 78, 64
1, 8043, Note_off_c, 0, 55, 64
1, 8048, Note_off_c, 0, 51, 61
1, 8051, Note_off_c, 0, 48, 64
1, 8064, Note_off_c, 0, 43, 61
1, 8065, Note_off_c, 0, 79, 61
1, 8457, Note_on_c, 0, 53, 92
1, 8458, Note_on_c, 0, 68, 90
1, 8461, Note_on_c, 0, 80, 89
1, 8463, Note_on_c, 0, 72, 79
1, 8465, Note_on_c, 0, 77, 79
1, 8466, Note_on_c, 0, 48, 83
1, 8470, Note_on_c, 0, 41, 82
1, 8470, Note_on_c, 0, 44, 77
1, 9515, Note_off_c, 0, 48, 61
1, 9528, Note_off_c, 0, 53, 62
1, 9535, Note_off_c, 0, 77, 59
1, 9542, Note_off_c, 0, 41, 62
1, 9543, Note_off_c, 0, 80, 62
1, 9545, Note_off_c, 0, 44, 61
1, 9546, Note_off_c, 0, 72, 63
1, 9567, Note_off_c, 0, 68, 61
1, 9897, Note_on_c, 0, 68, 55
1, 9903, Note_on_c, 0, 44, 39
1, 9968, Note_off_c, 0, 44, 58
1, 9972, Note_off_c, 0, 68, 53
1, 10026, Note_on_c, 0, 41, 49
1, 10026, Note_on_c, 0, 65, 48
1, 10069, Note_off_c, 0, 41, 60
1, 10130, Note_off_c, 0, 65, 52
1, 10488, Note_on_c, 0, 67, 49
1, 10504, Note_on_c, 0, 43, 41
1, 10571, Note_off_c, 0, 67, 58
1, 10579, Note_off_c, 0, 43, 58
1, 10989, Note_on_c, 0, 60, 42
1, 11013, Note_on_c, 0, 48, 40
1, 11102, Note_off_c, 0, 60, 51
1, 11108, Note_off_c, 0, 48, 52
1, 11482, Note_on_c, 0, 43, 37
1, 11585, Note_off_c, 0, 43, 52
1, 11997, Note_on_c, 0, 36, 35
1, 12138, Note_off_c, 0, 36, 47
1, 12897, Note_on_c, 0, 55, 21
1, 12983, Note_off_c, 0, 55, 54
1, 13022, Note_on_c, 0, 60, 26
1, 13087, Note_off_c, 0, 60, 48
1, 13136, Note_on_c, 0, 63, 40
1, 13162, Note_off_c, 0, 63, 54
1, 13230, Note_on_c, 0, 67, 51
1, 13255, Note_off_c, 0, 67, 58
1, 13342, Note_on_c, 0, 72, 55
1, 13362, Note_off_c, 0, 72, 64
1, 13438, Note_on_c, 0, 75, 56
1, 13466, Note_off_c, 0, 75, 66
1, 13551, Note_on_c, 0, 79, 46
1, 13572, Note_off_c, 0, 79, 51
1, 13649, Note_on_c, 0, 79, 54
1, 13668, Note_off_c, 0, 79, 61
1, 13746, Note_on_c, 0, 60, 45
1, 13748, Note_on_c, 0, 63, 50
1, 13748, Note_on_c, 0, 67, 47
1, 13752, Note_on_c, 0, 79, 57
1, 13770, Note_off_c, 0, 60, 59
1, 13771, Note_off_c, 0, 63, 60
1, 13772, Note_off_c, 0, 67, 57
1, 13774, Note_off_c, 0, 79, 61
1, 13863, Note_on_c, 0, 79, 62
1, 13883, Note_off_c, 0, 79, 64
1, 13962, Note_on_c, 0, 79, 60
1, 13992, Note_off_c, 0, 79, 56
1, 14051, Note_on_c, 0, 79, 56
1, 14072, Note_off_c, 0, 79, 61
1, 14163, Note_on_c, 0, 67, 59
1, 14163, Note_on_c, 0, 79, 58
1, 14166, Note_on_c, 0, 62, 56
1, 14169, Note_on_c, 0, 59, 51
1, 14184, Note_off_c, 0, 67, 64
1, 14190, Note_off_c, 0, 62, 61
1, 14193, Note_off_c, 0, 59, 61
1, 14257, Note_off_c, 0, 79, 36
1, 14267, Note_on_c, 0, 74, 59
1, 14366, Note_on_c, 0, 71, 64
1, 14381, Note_off_c, 0, 74, 56
1, 14425, Note_off_c, 0, 71, 57
1, 14467, Note_on_c, 0, 67, 57
1, 14498, Note_off_c, 0, 67, 65
1, 14576, Note_on_c, 0, 62, 62
1, 14622, Note_off_c, 0, 62, 59
1, 14675, Note_on_c, 0, 59, 52
1, 14702, Note_off_c, 0, 59, 61
1, 14782, Note_on_c, 0, 55, 57
1, 14805, Note_off_c, 0, 55, 64
1, 14885, Note_on_c, 0, 55, 57
1, 14906, Note_off_c, 0, 55, 61
1, 14981, Note_on_c, 0, 55, 61
1, 14992, Note_on_c, 0, 50, 58
1, 14996, Note_on_c, 0, 47, 55
1, 15015, Note_off_c, 0, 55, 65
1, 15022, Note_off_c, 0, 50, 63
1, 15023, Note_off_c, 0, 47, 63
1, 15087, Note_on_c, 0, 55, 56
1, 15110, Note_off_c, 0, 55, 60
1, 15182, Note_on_c, 0, 55, 65
1, 15214, Note_off_c, 0, 55, 66
1, 15285, Note_on_c, 0, 55, 59
1, 15317, Note_off_c, 0, 55, 66
1, 15403, Note_on_c, 0, 46, 62
1, 15405, Note_on_c, 0, 55, 63
1, 15406, Note_on_c, 0, 52, 61
1, 15411, Note_on_c, 0, 49, 54
1, 15434, Note_off_c, 0, 46, 63
1, 15436, Note_off_c, 0, 52, 68
1, 15438, Note_off_c, 0, 49, 61
1, 15506, Note_on_c, 0, 58, 59
1, 15530, Note_off_c, 0, 55, 37
1, 15606, Note_off_c, 0, 58, 62
1, 15615, Note_on_c, 0, 61, 58
1, 15716, Note_off_c, 0, 61, 62
1, 15716, Note_on_c, 0, 64, 54
1, 15742, Note_off_c, 0, 64, 64
1, 15824, Note_on_c, 0, 67, 59
1, 15856, Note_off_c, 0, 67, 63
1, 15919, Note_on_c, 0, 70, 60
1, 15949, Note_off_c, 0, 70, 66
1, 16023, Note_on_c, 0, 73, 60
1, 16051, Note_off_c, 0, 73, 66
1, 16128, Note_on_c, 0, 76, 50
1, 16149, Note_off_c, 0, 76, 61
1, 16231, Note_on_c, 0, 58, 56
1, 16231, Note_on_c, 0, 67, 57
1, 16233, Note_on_c, 0, 61, 50
1, 16234, Note_on_c, 0, 76, 60
1, 16253, Note_off_c, 0, 67, 63
1, 16260, Note_off_c, 0, 61, 62
1, 16262, Note_off_c, 0, 76, 68
1, 16267, Note_off_c, 0, 58, 65
1, 16344, Note_on_c, 0, 76, 50
1, 16365, Note_off_c, 0, 76, 60
1, 16433, Note_on_c, 0, 76, 69
1, 16473, Note_off_c, 0, 76, 58
1, 16535, Note_on_c, 0, 76, 51
1, 16575, Note_off_c, 0, 76, 62
1, 16631, Note_on_c, 0, 57, 58
1, 16631, Note_on_c, 0, 65, 63
1, 16645, Note_on_c, 0, 60, 45
1, 16649, Note_on_c, 0, 77, 66
1, 16661, Note_off_c, 0, 65, 68
1, 16667, Note_off_c, 0, 57, 64
1, 16670, Note_off_c, 0, 60, 52
1, 16729, Note_off_c, 0, 77, 56
1, 16746, Note_on_c, 0, 72, 63
1, 16849, Note_on_c, 0, 69, 64
1, 16873, Note_off_c, 0, 72, 58
1, 16917, Note_off_c, 0, 69, 62
1, 16956, Note_on_c, 0, 65, 62
1, 16991, Note_off_c, 0, 65, 66
1, 17064, Note_on_c, 0, 60, 63
1, 17111, Note_off_c, 0, 60, 55
1, 17155, Note_on_c, 0, 57, 63
1, 17189, Note_off_c, 0, 57, 63
1, 17266, Note_on_c, 0, 53, 61
1, 17296, Note_off_c, 0, 53, 68
1, 17366, Note_on_c, 0, 53, 65
1, 17385, Note_off_c, 0, 53, 65
1, 17464, Note_on_c, 0, 53, 66
1, 17466, Note_on_c, 0, 48, 68
1, 17466, Note_on_c, 0, 45, 62
1, 17491, Note_off_c, 0, 48, 68
1, 17498, Note_off_c, 0, 53, 68
1, 17499, Note_off_c, 0, 45, 65
1, 17565, Note_on_c, 0, 53, 58
1, 17595, Note_off_c, 0, 53, 68
1, 17682, Note_on_c, 0, 53, 60
1, 17711, Note_off_c, 0, 53, 67
1, 17772, Note_on_c, 0, 53, 63
1, 17805, Note_off_c, 0, 53, 67
1, 17874, Note_on_c, 0, 54, 67
1, 17884, Note_on_c, 0, 48, 75
1, 17886, Note_on_c, 0, 44, 69
1, 17907, Note_off_c, 0, 48, 69
1, 17917, Note_off_c, 0, 44, 65
1, 17922, Note_off_c, 0, 54, 65
1, 18000, Note_on_c, 0, 60, 57
1, 18046, Note_off_c, 0, 60, 53
1, 18101, Note_on_c, 0, 63, 65
1, 18184, Note_off_c, 0, 63, 62
1, 18199, Note_on_c, 0, 66, 65
1, 18230, Note_off_c, 0, 66, 69
1, 18304, Note_on_c, 0, 72, 68
1, 18337, Note_off_c, 0, 72, 61
1, 18411, Note_on_c, 0, 75, 61
1, 18442, Note_off_c, 0, 75, 67
1, 18512, Note_on_c, 0, 78, 68
1, 18539, Note_off_c, 0, 78, 67
1, 18620, Note_on_c, 0, 78, 68
1, 18644, Note_off_c, 0, 78, 68
1, 18711, Note_on_c, 0, 66, 77
1, 18718, Note_on_c, 0, 78, 76
1, 18718, Note_on_c, 0, 63, 67
1, 18721, Note_on_c, 0, 56, 60
1, 18735, Note_off_c, 0, 66, 71
1, 18747, Note_off_c, 0, 63, 67
1, 18751, Note_on_c, 0, 60, 22
1, 18754, Note_off_c, 0, 56, 63
1, 18754, Note_off_c, 0, 78, 60
1, 18790, Note_off_c, 0, 60, 31
1, 18825, Note_on_c, 0, 78, 68
1, 18852, Note_off_c, 0, 78, 65
1, 18925, Note_on_c, 0, 78, 71
1, 18966, Note_off_c, 0, 78, 62
1, 19008, Note_on_c, 0, 78, 66
1, 19055, Note_off_c, 0, 78, 60
1, 19123, Note_on_c, 0, 79, 77
1, 19126, Note_on_c, 0, 67, 79
1, 19129, Note_on_c, 0, 63, 71
1, 19132, Note_on_c, 0, 55, 63
1, 19146, Note_on_c, 0, 60, 53
1, 19147, Note_off_c, 0, 67, 70
1, 19153, Note_off_c, 0, 63, 68
1, 19166, Note_off_c, 0, 55, 67
1, 19167, Note_off_c, 0, 60, 58
1, 19234, Note_on_c, 0, 75, 70
1, 19248, Note_off_c, 0, 79, 58
1, 19341, Note_on_c, 0, 72, 70
1, 19354, Note_off_c, 0, 75, 63
1, 19394, Note_off_c, 0, 72, 63
1, 19425, Note_on_c, 0, 67, 66
1, 19462, Note_off_c, 0, 67, 58
1, 19552, Note_on_c, 0, 65, 86
1, 19553, Note_on_c, 0, 68, 80
1, 19558, Note_on_c, 0, 60, 76
1, 19559, Note_on_c, 0, 53, 77
1, 19563, Note_on_c, 0, 56, 73
1, 19652, Note_off_c, 0, 68, 63
1, 19671, Note_on_c, 0, 72, 73
1, 19782, Note_off_c, 0, 72, 59
1, 19783, Note_on_c, 0, 77, 68
1, 19792, Note_off_c, 0, 60, 62
1, 19792, Note_off_c, 0, 65, 63
1, 19802, Note_off_c, 0, 53, 65
1, 19806, Note_off_c, 0, 56, 64
1, 19880, Note_off_c, 0, 77, 60
1, 19881, Note_on_c, 0, 80, 70
1, 19934, Note_off_c, 0, 80, 65
1, 19994, Note_on_c, 0, 84, 66
1, 20080, Note_off_c, 0, 84, 35
1, 20094, Note_on_c, 0, 89, 63
1, 20185, Note_off_c, 0, 89, 63
1, 20190, Note_on_c, 0, 92, 65
1, 20295, Note_on_c, 0, 89, 66
1, 20316, Note_off_c, 0, 92, 52
1, 20351, Note_off_c, 0, 89, 62
1, 20396, Note_on_c, 0, 84, 59
1, 20445, Note_off_c, 0, 84, 61
1, 20493, Note_on_c, 0, 80, 64
1, 20593, Note_on_c, 0, 77, 63
1, 20623, Note_off_c, 0, 80, 61
1, 20671, Note_off_c, 0, 77, 61
1, 20699, Note_on_c, 0, 72, 60
1, 20767, Note_off_c, 0, 72, 60
1, 20803, Note_on_c, 0, 68, 63
1, 20906, Note_on_c, 0, 65, 53
1, 20913, Note_off_c, 0, 68, 58
1, 20961, Note_off_c, 0, 65, 62
1, 21006, Note_on_c, 0, 60, 53
1, 21056, Note_off_c, 0, 60, 51
1, 21094, Note_on_c, 0, 56, 55
1, 21098, Note_on_c, 0, 41, 50
1, 21132, Note_off_c, 0, 41, 66
1, 21183, Note_off_c, 0, 56, 59
1, 21197, Note_on_c, 0, 43, 68
1, 21211, Note_on_c, 0, 55, 55
1, 21222, Note_off_c, 0, 43, 63
1, 21299, Note_off_c, 0, 55, 63
1, 21315, Note_on_c, 0, 59, 51
1, 21413, Note_off_c, 0, 59, 61
1, 21422, Note_on_c, 0, 62, 54
1, 21505, Note_on_c, 0, 67, 56
1, 21505, Note_off_c, 0, 62, 61
1, 21618, Note_off_c, 0, 67, 62
1, 21622, Note_on_c, 0, 48, 50
1, 21634, Note_on_c, 0, 63, 52
1, 21654, Note_off_c, 0, 48, 66
1, 21717, Note_off_c, 0, 63, 64
1, 21729, Note_on_c, 0, 60, 53
1, 21778, Note_off_c, 0, 60, 62
1, 21842, Note_on_c, 0, 55, 52
1, 21912, Note_off_c, 0, 55, 51
1, 21931, Note_on_c, 0, 51, 57
1, 21968, Note_off_c, 0, 51, 63
1, 22038, Note_on_c, 0, 55, 56
1, 22134, Note_off_c, 0, 55, 56
1, 22140, Note_on_c, 0, 51, 53
1, 22227, Note_off_c, 0, 51, 60
1, 22242, Note_on_c, 0, 48, 58
1, 22298, Note_off_c, 0, 48, 62
1, 22338, Note_on_c, 0, 43, 58
1, 22427, Note_off_c, 0, 43, 50
1, 22450, Note_on_c, 0, 48, 46
1, 22543, Note_on_c, 0, 51, 57
1, 22545, Note_off_c, 0, 48, 62
1, 22626, Note_off_c, 0, 51, 61
1, 22668, Note_on_c, 0, 55, 45
1, 22747, Note_off_c, 0, 55, 58
1, 22761, Note_on_c, 0, 51, 49
1, 22841, Note_off_c, 0, 51, 60
1, 22873, Note_on_c, 0, 48, 59
1, 22977, Note_off_c, 0, 48, 59
1, 22985, Note_on_c, 0, 51, 52
1, 23077, Note_on_c, 0, 55, 52
1, 23103, Note_off_c, 0, 51, 56
1, 23119, Note_off_c, 0, 55, 66
1, 23169, Note_on_c, 0, 60, 55
1, 23245, Note_off_c, 0, 60, 58
1, 23277, Note_on_c, 0, 63, 60
1, 23344, Note_off_c, 0, 63, 64
1, 23375, Note_on_c, 0, 67, 58
1, 23404, Note_off_c, 0, 67, 65
1, 23477, Note_on_c, 0, 67, 61
1, 23499, Note_off_c, 0, 67, 65
1, 23568, Note_on_c, 0, 67, 60
1, 23586, Note_off_c, 0, 67, 64
1, 23673, Note_on_c, 0, 67, 66
1, 23694, Note_on_c, 0, 72, 64
1, 23694, Note_on_c, 0, 75, 61
1, 23711, Note_off_c, 0, 67, 60
1, 23721, Note_off_c, 0, 72, 69
1, 23731, Note_off_c, 0, 75, 67
1, 23789, Note_on_c, 0, 67, 58
1, 23818, Note_off_c, 0, 67, 59
1, 23896, Note_on_c, 0, 67, 66
1, 23915, Note_off_c, 0, 67, 66
1, 23981, Note_on_c, 0, 67, 72
1, 24010, Note_off_c, 0, 67, 63
1, 24098, Note_on_c, 0, 74, 59
1, 24101, Note_on_c, 0, 71, 60
1, 24111, Note_on_c, 0, 67, 63
1, 24149, Note_off_c, 0, 71, 56
1, 24182, Note_off_c, 0, 67, 60
1, 24183, Note_off_c, 0, 74, 58
1, 24192, Note_on_c, 0, 62, 62
1, 24289, Note_off_c, 0, 62, 59
1, 24293, Note_on_c, 0, 59, 63
1, 24328, Note_off_c, 0, 59, 65
1, 24409, Note_on_c, 0, 55, 65
1, 24443, Note_off_c, 0, 55, 65
1, 24505, Note_on_c, 0, 50, 63
1, 24540, Note_off_c, 0, 50, 63
1, 24597, Note_on_c, 0, 47, 63
1, 24625, Note_off_c, 0, 47, 66
1, 24701, Note_on_c, 0, 47, 70
1, 24734, Note_off_c, 0, 47, 66
1, 24797, Note_on_c, 0, 47, 67
1, 24826, Note_off_c, 0, 47, 65
1, 24911, Note_on_c, 0, 74, 69
1, 24912, Note_on_c, 0, 47, 64
1, 24918, Note_on_c, 0, 67, 65
1, 24951, Note_off_c, 0, 67, 61
1, 24955, Note_off_c, 0, 47, 66
1, 24973, Note_off_c, 0, 74, 65
1, 25017, Note_on_c, 0, 47, 58
1, 25055, Note_off_c, 0, 47, 64
1, 25125, Note_on_c, 0, 47, 61
1, 25162, Note_off_c, 0, 47, 64
1, 25220, Note_on_c, 0, 47, 66
1, 25267, Note_off_c, 0, 47, 57
1, 25330, Note_on_c, 0, 76, 68
1, 25331, Note_on_c, 0, 46, 62
1, 25334, Note_on_c, 0, 73, 64
1, 25339, Note_on_c, 0, 67, 57
1, 25430, Note_off_c, 0, 73, 51
1, 25437, Note_off_c, 0, 67, 31
1, 25437, Note_on_c, 0, 49, 65
1, 25459, Note_off_c, 0, 46, 55
1, 25487, Note_off_c, 0, 76, 58
1, 25536, Note_on_c, 0, 52, 64
1, 25582, Note_off_c, 0, 49, 50
1, 25611, Note_off_c, 0, 52, 65
1, 25634, Note_on_c, 0, 55, 60
1, 25717, Note_off_c, 0, 55, 57
1, 25741, Note_on_c, 0, 58, 67
1, 25829, Note_on_c, 0, 61, 73
1, 25830, Note_off_c, 0, 58, 64
1, 25897, Note_off_c, 0, 61, 62
1, 25940, Note_on_c, 0, 64, 65
1, 25971, Note_off_c, 0, 64, 65
1, 26035, Note_on_c, 0, 64, 73
1, 26068, Note_off_c, 0, 64, 63
1, 26143, Note_on_c, 0, 64, 63
1, 26144, Note_on_c, 0, 73, 75
1, 26154, Note_on_c, 0, 67, 67
1, 26179, Note_off_c, 0, 64, 62
1, 26191, Note_off_c, 0, 67, 60
1, 26197, Note_off_c, 0, 73, 66
1, 26254, Note_on_c, 0, 64, 71
1, 26286, Note_off_c, 0, 64, 62
1, 26351, Note_on_c, 0, 64, 59
1, 26399, Note_off_c, 0, 64, 56
1, 26440, Note_on_c, 0, 64, 60
1, 26482, Note_off_c, 0, 64, 64
1, 26552, Note_on_c, 0, 72, 71
1, 26559, Note_on_c, 0, 69, 64
1, 26569, Note_on_c, 0, 65, 64
1, 26648, Note_off_c, 0, 65, 64
1, 26660, Note_on_c, 0, 60, 65
1, 26681, Note_off_c, 0, 69, 54
1, 26709, Note_off_c, 0, 72, 55
1, 26754, Note_off_c, 0, 60, 61
1, 26765, Note_on_c, 0, 57, 62
1, 26796, Note_off_c, 0, 57, 64
1, 26861, Note_on_c, 0, 53, 69
1, 26896, Note_off_c, 0, 53, 65
1, 26960, Note_on_c, 0, 48, 65
1, 27000, Note_off_c, 0, 48, 66
1, 27055, Note_on_c, 0, 45, 64
1, 27084, Note_off_c, 0, 45, 65
1, 27164, Note_on_c, 0, 45, 65
1, 27199, Note_off_c, 0, 45, 63
1, 27277, Note_on_c, 0, 45, 53
1, 27302, Note_off_c, 0, 45, 58
1, 27368, Note_on_c, 0, 72, 69
1, 27374, Note_on_c, 0, 65, 66
1, 27378, Note_on_c, 0, 45, 67
1, 27410, Note_off_c, 0, 65, 61
1, 27417, Note_off_c, 0, 45, 64
1, 27446, Note_off_c, 0, 72, 55
1, 27485, Note_on_c, 0, 45, 61
1, 27535, Note_off_c, 0, 45, 63
1, 27588, Note_on_c, 0, 45, 60
1, 27646, Note_off_c, 0, 45, 63
1, 27682, Note_on_c, 0, 45, 54
1, 27711, Note_off_c, 0, 45, 65
1, 27787, Note_on_c, 0, 72, 70
1, 27794, Note_on_c, 0, 66, 68
1, 27821, Note_on_c, 0, 44, 51
1, 27883, Note_off_c, 0, 66, 54
1, 27905, Note_on_c, 0, 48, 64
1, 27919, Note_off_c, 0, 44, 61
1, 27989, Note_off_c, 0, 72, 55
1, 28006, Note_on_c, 0, 51, 76
1, 28036, Note_off_c, 0, 48, 55
1, 28109, Note_on_c, 0, 56, 73
1, 28120, Note_off_c, 0, 51, 62
1, 28136, Note_off_c, 0, 56, 65
1, 28222, Note_on_c, 0, 60, 77
1, 28273, Note_off_c, 0, 60, 62
1, 28319, Note_on_c, 0, 63, 78
1, 28356, Note_off_c, 0, 63, 65
1, 28420, Note_on_c, 0, 66, 78
1, 28452, Note_off_c, 0, 66, 63
1, 28522, Note_on_c, 0, 66, 72
1, 28556, Note_off_c, 0, 66, 68
1, 28625, Note_on_c, 0, 66, 78
1, 28632, Note_on_c, 0, 75, 78
1, 28635, Note_on_c, 0, 72, 76
1, 28650, Note_off_c, 0, 66, 72
1, 28657, Note_off_c, 0, 72, 69
1, 28672, Note_off_c, 0, 75, 68
1, 28734, Note_on_c, 0, 66, 78
1, 28765, Note_off_c, 0, 66, 63
1, 28824, Note_on_c, 0, 66, 74
1, 28887, Note_off_c, 0, 66, 62
1, 28921, Note_on_c, 0, 66, 69
1, 28976, Note_off_c, 0, 66, 66
1, 29039, Note_on_c, 0, 67, 80
1, 29039, Note_on_c, 0, 74, 84
1, 29044, Note_on_c, 0, 71, 81
1, 29108, Note_off_c, 0, 67, 58
1, 29140, Note_on_c, 0, 62, 79
1, 29146, Note_off_c, 0, 71, 59
1, 29184, Note_off_c, 0, 74, 60
1, 29234, Note_off_c, 0, 62, 62
1, 29235, Note_on_c, 0, 59, 69
1, 29343, Note_on_c, 0, 55, 74
1, 29346, Note_off_c, 0, 59, 61
1, 29387, Note_off_c, 0, 55, 66
1, 29467, Note_on_c, 0, 77, 88
1, 29474, Note_on_c, 0, 72, 85
1, 29482, Note_on_c, 0, 56, 73
1, 29597, Note_on_c, 0, 60, 73
1, 29622, Note_off_c, 0, 56, 59
1, 29664, Note_off_c, 0, 60, 62
1, 29696, Note_on_c, 0, 65, 63
1, 29701, Note_off_c, 0, 72, 54
1, 29756, Note_off_c, 0, 77, 49
1, 29786, Note_off_c, 0, 65, 60
1, 29796, Note_on_c, 0, 68, 68
1, 29862, Note_off_c, 0, 68, 61
1, 29903, Note_on_c, 0, 65, 60
1, 29961, Note_off_c, 0, 65, 57
1, 29992, Note_on_c, 0, 60, 61
1, 30080, Note_off_c, 0, 60, 60
1, 30101, Note_on_c, 0, 56, 58
1, 30143, Note_off_c, 0, 56, 64
1, 30192, Note_on_c, 0, 53, 68
1, 30239, Note_off_c, 0, 53, 59
1, 30281, Note_on_c, 0, 48, 60
1, 30377, Note_off_c, 0, 48, 65
1, 30395, Note_on_c, 0, 44, 57
1, 30439, Note_off_c, 0, 44, 67
1, 30495, Note_on_c, 0, 41, 65
1, 30557, Note_off_c, 0, 41, 55
1, 30576, Note_on_c, 0, 36, 58
1, 30665, Note_off_c, 0, 36, 62
1, 30707, Note_on_c, 0, 33, 47
1, 30767, Note_off_c, 0, 33, 53
1, 30794, Note_on_c, 0, 36, 53
1, 30838, Note_off_c, 0, 36, 63
1, 30885, Note_on_c, 0, 41, 56
1, 30973, Note_off_c, 0, 41, 62
1, 30983, Note_on_c, 0, 72, 55
1, 30985, Note_on_c, 0, 77, 57
1, 30995, Note_on_c, 0, 44, 55
1, 31034, Note_off_c, 0, 72, 54
1, 31055, Note_off_c, 0, 44, 60
1, 31104, Note_on_c, 0, 79, 59
1, 31106, Note_on_c, 0, 43, 50
1, 31112, Note_on_c, 0, 71, 48
1, 31124, Note_off_c, 0, 77, 53
1, 31169, Note_off_c, 0, 43, 53
1, 31194, Note_on_c, 0, 38, 61
1, 31266, Note_off_c, 0, 71, 34
1, 31281, Note_off_c, 0, 38, 61
1, 31302, Note_on_c, 0, 35, 58
1, 31378, Note_off_c, 0, 35, 64
1, 31396, Note_on_c, 0, 31, 61
1, 31431, Note_off_c, 0, 79, 34
1, 31490, Note_off_c, 0, 31, 51
1, 31511, Note_on_c, 0, 72, 55
1, 31515, Note_on_c, 0, 36, 55
1, 31606, Note_on_c, 0, 39, 60
1, 31624, Note_off_c, 0, 36, 58
1, 31684, Note_off_c, 0, 39, 62
1, 31702, Note_on_c, 0, 43, 63
1, 31761, Note_off_c, 0, 43, 57
1, 31795, Note_on_c, 0, 48, 61
1, 31888, Note_off_c, 0, 48, 63
1, 31899, Note_on_c, 0, 43, 65
1, 31906, Note_off_c, 0, 72, 24
1, 32004, Note_off_c, 0, 43, 58
1, 32008, Note_on_c, 0, 48, 70
1, 32096, Note_off_c, 0, 48, 66
1, 32103, Note_on_c, 0, 51, 62
1, 32174, Note_off_c, 0, 51, 61
1, 32196, Note_on_c, 0, 55, 54
1, 32210, Control_c, 0, 64, 13
1, 32224, Control_c, 0, 64, 20
1, 32286, Note_off_c, 0, 55, 59
1, 32299, Note_on_c, 0, 51, 65
1, 32313, Control_c, 0, 64, 16
1, 32328, Control_c, 0, 64, 13
1, 32343, Control_c, 0, 64, 10
1, 32366, Note_off_c, 0, 51, 61
1, 32373, Control_c, 0, 64, 0
1, 32427, Note_on_c, 0, 48, 53
1, 32484, Note_off_c, 0, 48, 51
1, 32508, Note_on_c, 0, 43, 54
1, 32585, Note_off_c, 0, 43, 61
1, 32612, Note_on_c, 0, 39, 52
1, 32703, Note_off_c, 0, 39, 60
1, 32711, Note_on_c, 0, 87, 57
1, 32722, Note_on_c, 0, 36, 52
1, 32765, Control_c, 0, 64, 60
1, 32780, Control_c, 0, 64, 64
1, 32794, Control_c, 0, 64, 65
1, 32810, Control_c, 0, 64, 67
1, 32813, Note_off_c, 0, 87, 60
1, 32825, Control_c, 0, 64, 69
1, 32828, Note_on_c, 0, 84, 57
1, 32840, Control_c, 0, 64, 72
1, 32843, Note_on_c, 0, 39, 52
1, 32855, Control_c, 0, 64, 76
1, 32870, Control_c, 0, 64, 78
1, 32881, Note_off_c, 0, 36, 36
1, 32884, Control_c, 0, 64, 80
1, 32899, Control_c, 0, 64, 81
1, 32914, Control_c, 0, 64, 82
1, 32915, Note_on_c, 0, 43, 57
1, 32928, Control_c, 0, 64, 83
1, 32930, Note_on_c, 0, 79, 61
1, 32941, Note_off_c, 0, 39, 59
1, 32942, Note_off_c, 0, 84, 53
1, 32943, Control_c, 0, 64, 84
1, 32951, Note_off_c, 0, 43, 62
1, 32958, Control_c, 0, 64, 84
1, 32973, Control_c, 0, 64, 85
1, 33001, Note_off_c, 0, 79, 57
1, 33007, Note_on_c, 0, 48, 51
1, 33012, Note_on_c, 0, 75, 64
1, 33029, Note_off_c, 0, 75, 65
1, 33042, Note_off_c, 0, 48, 64
1, 33107, Note_on_c, 0, 51, 61
1, 33117, Note_on_c, 0, 72, 61
1, 33193, Note_off_c, 0, 51, 35
1, 33196, Note_off_c, 0, 72, 59
1, 33201, Note_on_c, 0, 55, 59
1, 33209, Note_on_c, 0, 67, 71
1, 33243, Note_off_c, 0, 67, 60
1, 33252, Note_off_c, 0, 55, 63
1, 33298, Control_c, 0, 64, 84
1, 33309, Note_on_c, 0, 60, 60
1, 33315, Note_on_c, 0, 63, 69
1, 33335, Control_c, 0, 64, 83
1, 33349, Note_off_c, 0, 63, 68
1, 33350, Note_off_c, 0, 60, 64
1, 33350, Control_c, 0, 64, 81
1, 33365, Control_c, 0, 64, 75
1, 33380, Control_c, 0, 64, 68
1, 33395, Control_c, 0, 64, 55
1, 33409, Control_c, 0, 64, 0
1, 33423, Note_on_c, 0, 63, 67
1, 33426, Note_on_c, 0, 60, 59
1, 33449, Note_off_c, 0, 63, 66
1, 33455, Note_off_c, 0, 60, 64
1, 33515, Note_on_c, 0, 63, 72
1, 33519, Note_on_c, 0, 60, 70
1, 33542, Note_off_c, 0, 63, 68
1, 33545, Note_off_c, 0, 60, 67
1, 33606, Note_on_c, 0, 63, 72
1, 33622, Note_on_c, 0, 60, 69
1, 33635, Note_off_c, 0, 63, 64
1, 33650, Note_off_c, 0, 60, 64
1, 33719, Note_on_c, 0, 63, 68
1, 33720, Note_on_c, 0, 60, 62
1, 33747, Note_off_c, 0, 63, 67
1, 33752, Note_off_c, 0, 60, 61
1, 33797, Note_on_c, 0, 60, 56
1, 33807, Note_on_c, 0, 63, 68
1, 33818, Note_off_c, 0, 60, 62
1, 33837, Note_off_c, 0, 63, 65
1, 33909, Note_on_c, 0, 59, 63
1, 33914, Note_on_c, 0, 62, 68
1, 33991, Note_off_c, 0, 59, 58
1, 34003, Control_c, 0, 64, 43
1, 34005, Note_on_c, 0, 55, 60
1, 34018, Control_c, 0, 64, 62
1, 34019, Note_on_c, 0, 67, 70
1, 34023, Note_off_c, 0, 62, 62
1, 34032, Control_c, 0, 64, 64
1, 34047, Control_c, 0, 64, 64
1, 34062, Control_c, 0, 64, 65
1, 34084, Control_c, 0, 64, 65
1, 34099, Control_c, 0, 64, 66
1, 34100, Note_off_c, 0, 55, 65
1, 34114, Note_off_c, 0, 67, 61
1, 34114, Control_c, 0, 64, 67
1, 34117, Note_on_c, 0, 50, 56
1, 34123, Note_on_c, 0, 71, 71
1, 34147, Note_off_c, 0, 50, 66
1, 34158, Control_c, 0, 64, 67
1, 34159, Note_off_c, 0, 71, 64
1, 34213, Note_on_c, 0, 47, 66
1, 34216, Note_on_c, 0, 74, 75
1, 34232, Control_c, 0, 64, 68
1, 34257, Note_off_c, 0, 47, 62
1, 34299, Note_on_c, 0, 43, 62
1, 34306, Control_c, 0, 64, 67
1, 34312, Note_on_c, 0, 79, 73
1, 34312, Note_off_c, 0, 74, 39
1, 34336, Control_c, 0, 64, 67
1, 34365, Control_c, 0, 64, 66
1, 34372, Note_off_c, 0, 43, 60
1, 34380, Control_c, 0, 64, 65
1, 34395, Control_c, 0, 64, 64
1, 34397, Note_off_c, 0, 79, 61
1, 34398, Note_on_c, 0, 38, 59
1, 34398, Note_on_c, 0, 83, 71
1, 34411, Control_c, 0, 64, 63
1, 34426, Control_c, 0, 64, 61
1, 34437, Note_off_c, 0, 83, 57
1, 34439, Note_off_c, 0, 38, 63
1, 34441, Control_c, 0, 64, 58
1, 34455, Control_c, 0, 64, 52
1, 34470, Control_c, 0, 64, 42
1, 34485, Control_c, 0, 64, 28
1, 34500, Control_c, 0, 64, 0
1, 34502, Note_on_c, 0, 35, 69
1, 34502, Note_on_c, 0, 86, 73
1, 34539, Note_off_c, 0, 35, 65
1, 34540, Note_off_c, 0, 86, 59
1, 34607, Note_on_c, 0, 35, 74
1, 34610, Note_on_c, 0, 86, 69
1, 34633, Note_off_c, 0, 35, 65
1, 34636, Note_off_c, 0, 86, 66
1, 34696, Note_on_c, 0, 35, 76
1, 34708, Note_on_c, 0, 86, 79
1, 34730, Note_off_c, 0, 86, 69
1, 34734, Note_off_c, 0, 35, 63
1, 34785, Note_on_c, 0, 35, 70
1, 34798, Note_on_c, 0, 86, 81
1, 34820, Note_off_c, 0, 35, 67
1, 34839, Note_off_c, 0, 86, 62
1, 34898, Note_on_c, 0, 35, 76
1, 34904, Note_on_c, 0, 86, 71
1, 34943, Note_off_c, 0, 35, 60
1, 34946, Note_off_c, 0, 86, 63
1, 34976, Note_on_c, 0, 35, 64
1, 34991, Note_on_c, 0, 86, 73
1, 35012, Note_off_c, 0, 35, 65
1, 35023, Note_off_c, 0, 86, 63
1, 35100, Control_c, 0, 64, 51
1, 35105, Note_on_c, 0, 34, 74
1, 35114, Control_c, 0, 64, 64
1, 35119, Note_on_c, 0, 85, 75
1, 35129, Control_c, 0, 64, 66
1, 35144, Control_c, 0, 64, 67
1, 35159, Control_c, 0, 64, 68
1, 35173, Control_c, 0, 64, 69
1, 35188, Control_c, 0, 64, 72
1, 35204, Control_c, 0, 64, 74
1, 35212, Note_on_c, 0, 82, 68
1, 35219, Note_on_c, 0, 37, 65
1, 35219, Control_c, 0, 64, 74
1, 35232, Note_off_c, 0, 34, 61
1, 35234, Control_c, 0, 64, 75
1, 35248, Note_off_c, 0, 85, 59
1, 35250, Control_c, 0, 64, 76
1, 35279, Control_c, 0, 64, 76
1, 35309, Control_c, 0, 64, 77
1, 35310, Note_on_c, 0, 42, 70
1, 35313, Note_on_c, 0, 78, 75
1, 35324, Control_c, 0, 64, 77
1, 35338, Control_c, 0, 64, 78
1, 35354, Note_off_c, 0, 82, 63
1, 35367, Note_off_c, 0, 37, 48
1, 35398, Note_on_c, 0, 46, 66
1, 35399, Note_off_c, 0, 78, 61
1, 35400, Note_on_c, 0, 73, 72
1, 35407, Note_off_c, 0, 42, 63
1, 35419, Note_off_c, 0, 46, 59
1, 35426, Note_off_c, 0, 73, 68
1, 35502, Note_on_c, 0, 70, 73
1, 35507, Note_on_c, 0, 49, 70
1, 35530, Control_c, 0, 64, 77
1, 35545, Control_c, 0, 64, 76
1, 35560, Control_c, 0, 64, 72
1, 35583, Control_c, 0, 64, 67
1, 35598, Control_c, 0, 64, 61
1, 35599, Note_on_c, 0, 54, 68
1, 35599, Note_on_c, 0, 66, 76
1, 35602, Note_off_c, 0, 49, 58
1, 35612, Control_c, 0, 64, 46
1, 35622, Note_off_c, 0, 70, 55
1, 35627, Control_c, 0, 64, 26
1, 35642, Control_c, 0, 64, 20
1, 35657, Control_c, 0, 64, 0
1, 35666, Note_off_c, 0, 66, 63
1, 35680, Note_off_c, 0, 54, 57
1, 35692, Note_on_c, 0, 58, 76
1, 35703, Note_on_c, 0, 61, 77
1, 35722, Note_off_c, 0, 58, 67
1, 35736, Note_off_c, 0, 61, 64
1, 35805, Note_on_c, 0, 61, 76
1, 35808, Note_on_c, 0, 58, 72
1, 35834, Note_off_c, 0, 58, 67
1, 35840, Note_off_c, 0, 61, 65
1, 35890, Note_on_c, 0, 58, 78
1, 35902, Note_on_c, 0, 61, 73
1, 35924, Note_off_c, 0, 58, 65
1, 35935, Note_off_c, 0, 61, 66
1, 35990, Note_on_c, 0, 61, 72
1, 35998, Note_on_c, 0, 58, 73
1, 36027, Note_off_c, 0, 58, 65
1, 36029, Note_off_c, 0, 61, 65
1, 36096, Note_on_c, 0, 61, 74
1, 36097, Note_on_c, 0, 58, 72
1, 36128, Note_off_c, 0, 58, 68
1, 36141, Note_off_c, 0, 61, 62
1, 36185, Note_on_c, 0, 61, 75
1, 36195, Note_on_c, 0, 58, 73
1, 36220, Note_off_c, 0, 58, 68
1, 36239, Note_off_c, 0, 61, 62
1, 36299, Note_on_c, 0, 60, 82
1, 36300, Note_on_c, 0, 57, 72
1, 36377, Control_c, 0, 64, 58
1, 36392, Control_c, 0, 64, 65
1, 36405, Note_on_c, 0, 65, 77
1, 36407, Control_c, 0, 64, 66
1, 36409, Note_off_c, 0, 57, 62
1, 36409, Note_off_c, 0, 60, 63
1, 36410, Note_on_c, 0, 53, 72
1, 36422, Control_c, 0, 64, 66
1, 36436, Control_c, 0, 64, 68
1, 36451, Control_c, 0, 64, 69
1, 36466, Control_c, 0, 64, 71
1, 36481, Control_c, 0, 64, 73
1, 36496, Control_c, 0, 64, 74
1, 36502, Note_off_c, 0, 53, 65
1, 36505, Note_on_c, 0, 48, 72
1, 36511, Note_on_c, 0, 69, 80
1, 36511, Control_c, 0, 64, 74
1, 36519, Note_off_c, 0, 65, 62
1, 36545, Note_off_c, 0, 48, 66
1, 36555, Note_off_c, 0, 69, 68
1, 36570, Control_c, 0, 64, 75
1, 36603, Note_on_c, 0, 72, 84
1, 36609, Note_on_c, 0, 45, 77
1, 36681, Note_off_c, 0, 45, 61
1, 36687, Note_on_c, 0, 41, 77
1, 36693, Note_on_c, 0, 77, 81
1, 36714, Note_off_c, 0, 72, 56
1, 36766, Note_off_c, 0, 41, 62
1, 36781, Note_on_c, 0, 81, 84
1, 36794, Note_off_c, 0, 77, 61
1, 36797, Note_on_c, 0, 36, 51
1, 36803, Note_on_c, 0, 38, 55
1, 36830, Note_off_c, 0, 36, 64
1, 36832, Note_off_c, 0, 38, 59
1, 36833, Note_off_c, 0, 81, 62
1, 36891, Note_on_c, 0, 84, 85
1, 36893, Note_on_c, 0, 33, 79
1, 36896, Control_c, 0, 64, 73
1, 36910, Control_c, 0, 64, 69
1, 36925, Control_c, 0, 64, 62
1, 36928, Note_off_c, 0, 33, 66
1, 36937, Note_off_c, 0, 84, 65
1, 36940, Control_c, 0, 64, 0
1, 36993, Note_on_c, 0, 33, 79
1, 36995, Note_on_c, 0, 84, 83
1, 37028, Note_off_c, 0, 33, 68
1, 37033, Note_off_c, 0, 84, 66
1, 37100, Note_on_c, 0, 33, 89
1, 37110, Note_on_c, 0, 84, 90
1, 37137, Note_off_c, 0, 33, 62
1, 37142, Note_off_c, 0, 84, 66
1, 37185, Note_on_c, 0, 33, 72
1, 37203, Note_on_c, 0, 84, 82
1, 37226, Note_off_c, 0, 33, 63
1, 37239, Note_off_c, 0, 84, 65
1, 37295, Note_on_c, 0, 33, 79
1, 37304, Note_on_c, 0, 84, 83
1, 37338, Note_off_c, 0, 33, 63
1, 37346, Note_off_c, 0, 84, 66
1, 37375, Note_on_c, 0, 33, 68
1, 37394, Note_on_c, 0, 84, 80
1, 37423, Note_off_c, 0, 33, 64
1, 37435, Note_off_c, 0, 84, 65
1, 37505, Note_on_c, 0, 32, 90
1, 37517, Note_on_c, 0, 84, 86
1, 37526, Control_c, 0, 64, 20
1, 37541, Control_c, 0, 64, 64
1, 37556, Control_c, 0, 64, 68
1, 37571, Control_c, 0, 64, 70
1, 37585, Control_c, 0, 64, 71
1, 37601, Control_c, 0, 64, 73
1, 37612, Note_off_c, 0, 32, 58
1, 37616, Note_on_c, 0, 80, 76
1, 37616, Control_c, 0, 64, 75
1, 37630, Note_on_c, 0, 36, 56
1, 37631, Control_c, 0, 64, 76
1, 37646, Control_c, 0, 64, 77
1, 37652, Note_off_c, 0, 84, 62
1, 37661, Control_c, 0, 64, 78
1, 37705, Note_on_c, 0, 77, 79
1, 37705, Control_c, 0, 64, 78
1, 37709, Note_on_c, 0, 41, 74
1, 37729, Note_off_c, 0, 36, 59
1, 37743, Note_off_c, 0, 80, 62
1, 37784, Note_off_c, 0, 77, 59
1, 37789, Note_on_c, 0, 44, 74
1, 37799, Note_off_c, 0, 41, 65
1, 37802, Note_on_c, 0, 72, 74
1, 37811, Note_off_c, 0, 44, 68
1, 37869, Note_off_c, 0, 72, 65
1, 37911, Note_on_c, 0, 48, 71
1, 37912, Note_on_c, 0, 68, 80
1, 37934, Control_c, 0, 64, 77
1, 37949, Control_c, 0, 64, 72
1, 37964, Control_c, 0, 64, 61
1, 37979, Control_c, 0, 64, 0
1, 38005, Note_off_c, 0, 48, 64
1, 38007, Note_on_c, 0, 53, 78
1, 38007, Note_on_c, 0, 65, 75
1, 38034, Note_off_c, 0, 68, 57
1, 38063, Note_off_c, 0, 53, 64
1, 38085, Note_off_c, 0, 65, 65
1, 38107, Note_on_c, 0, 56, 81
1, 38110, Note_on_c, 0, 60, 78
1, 38136, Note_off_c, 0, 56, 67
1, 38153, Note_off_c, 0, 60, 59
1, 38210, Note_on_c, 0, 60, 71
1, 38218, Note_on_c, 0, 56, 69
1, 38245, Note_off_c, 0, 60, 65
1, 38249, Note_off_c, 0, 56, 64
1, 38308, Note_on_c, 0, 56, 81
1, 38318, Note_on_c, 0, 60, 76
1, 38344, Note_off_c, 0, 56, 62
1, 38352, Note_off_c, 0, 60, 64
1, 38407, Note_on_c, 0, 60, 70
1, 38414, Note_on_c, 0, 56, 75
1, 38445, Note_off_c, 0, 56, 65
1, 38455, Note_off_c, 0, 60, 62
1, 38508, Note_on_c, 0, 60, 73
1, 38510, Note_on_c, 0, 56, 73
1, 38545, Note_off_c, 0, 56, 63
1, 38550, Note_off_c, 0, 60, 62
1, 38604, Note_on_c, 0, 60, 75
1, 38610, Note_on_c, 0, 56, 73
1, 38641, Note_off_c, 0, 56, 66
1, 38653, Note_off_c, 0, 60, 62
1, 38720, Note_on_c, 0, 59, 81
1, 38721, Note_on_c, 0, 55, 80
1, 38758, Control_c, 0, 64, 61
1, 38773, Control_c, 0, 64, 67
1, 38788, Control_c, 0, 64, 69
1, 38803, Control_c, 0, 64, 70
1, 38818, Control_c, 0, 64, 72
1, 38821, Note_on_c, 0, 62, 83
1, 38825, Note_on_c, 0, 50, 75
1, 38830, Note_off_c, 0, 55, 61
1, 38832, Control_c, 0, 64, 74
1, 38847, Control_c, 0, 64, 76
1, 38851, Note_off_c, 0, 59, 61
1, 38862, Control_c, 0, 64, 77
1, 38876, Control_c, 0, 64, 77
1, 38891, Control_c, 0, 64, 78
1, 38918, Note_on_c, 0, 67, 80
1, 38921, Note_off_c, 0, 50, 62
1, 38921, Control_c, 0, 64, 79
1, 38923, Note_on_c, 0, 47, 76
1, 38931, Note_off_c, 0, 62, 59
1, 38936, Control_c, 0, 64, 80
1, 38950, Control_c, 0, 64, 80
1, 38965, Control_c, 0, 64, 81
1, 38980, Control_c, 0, 64, 81
1, 39014, Note_on_c, 0, 43, 78
1, 39015, Note_on_c, 0, 71, 76
1, 39018, Note_off_c, 0, 47, 63
1, 39023, Control_c, 0, 64, 82
1, 39029, Note_off_c, 0, 67, 58
1, 39053, Control_c, 0, 64, 82
1, 39112, Control_c, 0, 64, 81
1, 39122, Note_off_c, 0, 71, 56
1, 39127, Control_c, 0, 64, 73
1, 39137, Note_on_c, 0, 68, 83
1, 39142, Note_on_c, 0, 53, 81
1, 39142, Control_c, 0, 64, 33
1, 39156, Control_c, 0, 64, 0
1, 39167, Note_off_c, 0, 43, 58
1, 39202, Control_c, 0, 64, 56
1, 39217, Control_c, 0, 64, 70
1, 39232, Control_c, 0, 64, 76
1, 39236, Note_off_c, 0, 53, 64
1, 39238, Note_on_c, 0, 50, 70
1, 39242, Note_off_c, 0, 68, 60
1, 39246, Control_c, 0, 64, 79
1, 39249, Note_on_c, 0, 71, 76
1, 39261, Control_c, 0, 64, 81
1, 39276, Control_c, 0, 64, 82
1, 39290, Control_c, 0, 64, 83
1, 39305, Control_c, 0, 64, 84
1, 39326, Note_off_c, 0, 50, 63
1, 39328, Control_c, 0, 64, 84
1, 39334, Note_on_c, 0, 47, 77
1, 39355, Note_on_c, 0, 74, 83
1, 39358, Control_c, 0, 64, 85
1, 39358, Note_off_c, 0, 71, 38
1, 39372, Control_c, 0, 64, 85
1, 39387, Control_c, 0, 64, 86
1, 39438, Note_on_c, 0, 44, 70
1, 39441, Note_on_c, 0, 77, 83
1, 39446, Control_c, 0, 64, 86
1, 39452, Note_off_c, 0, 47, 63
1, 39456, Note_off_c, 0, 74, 64
1, 39476, Control_c, 0, 64, 87
1, 39495, Note_off_c, 0, 44, 64
1, 39534, Note_on_c, 0, 80, 80
1, 39538, Note_on_c, 0, 41, 85
1, 39549, Note_off_c, 0, 77, 62
1, 39550, Control_c, 0, 64, 87
1, 39592, Note_off_c, 0, 80, 66
1, 39614, Note_off_c, 0, 41, 63
1, 39623, Note_on_c, 0, 38, 72
1, 39626, Note_on_c, 0, 83, 87
1, 39689, Note_off_c, 0, 38, 62
1, 39689, Note_off_c, 0, 83, 56
1, 39694, Note_on_c, 0, 35, 70
1, 39712, Control_c, 0, 64, 88
1, 39721, Note_on_c, 0, 86, 88
1, 39787, Control_c, 0, 64, 88
1, 39791, Note_on_c, 0, 32, 76
1, 39795, Note_off_c, 0, 35, 58
1, 39796, Note_on_c, 0, 89, 86
1, 39816, Note_off_c, 0, 86, 63
1, 39890, Control_c, 0, 64, 86
1, 39893, Note_off_c, 0, 32, 55
1, 39905, Control_c, 0, 64, 76
1, 39918, Note_on_c, 0, 29, 83
1, 39920, Control_c, 0, 64, 53
1, 39927, Note_on_c, 0, 92, 91
1, 39935, Control_c, 0, 64, 0
1, 39936, Note_off_c, 0, 89, 59
1, 39979, Control_c, 0, 64, 64
1, 39995, Control_c, 0, 64, 74
1, 40010, Control_c, 0, 64, 81
1, 40025, Control_c, 0, 64, 84
1, 40031, Note_on_c, 0, 32, 66
1, 40031, Note_on_c, 0, 89, 81
1, 40040, Control_c, 0, 64, 84
1, 40042, Note_off_c, 0, 92, 63
1, 40055, Control_c, 0, 64, 85
1, 40071, Note_off_c, 0, 29, 60
1, 40076, Control_c, 0, 64, 86
1, 40091, Control_c, 0, 64, 86
1, 40093, Note_on_c, 0, 35, 61
1, 40106, Control_c, 0, 64, 87
1, 40113, Note_on_c, 0, 86, 72
1, 40115, Note_off_c, 0, 89, 63
1, 40121, Control_c, 0, 64, 87
1, 40136, Control_c, 0, 64, 88
1, 40137, Note_on_c, 0, 38, 69
1, 40137, Note_off_c, 0, 32, 59
1, 40151, Control_c, 0, 64, 89
1, 40152, Note_off_c, 0, 86, 56
1, 40163, Note_off_c, 0, 35, 62
1, 40166, Control_c, 0, 64, 89
1, 40177, Note_on_c, 0, 83, 64
1, 40195, Note_off_c, 0, 38, 60
1, 40219, Note_on_c, 0, 41, 70
1, 40240, Note_off_c, 0, 83, 56
1, 40240, Control_c, 0, 64, 90
1, 40243, Note_on_c, 0, 80, 81
1, 40308, Note_off_c, 0, 41, 66
1, 40309, Note_on_c, 0, 44, 73
1, 40330, Note_on_c, 0, 77, 84
1, 40332, Note_off_c, 0, 80, 60
1, 40397, Note_off_c, 0, 44, 63
1, 40415, Note_on_c, 0, 41, 73
1, 40422, Note_on_c, 0, 83, 81
1, 40425, Note_off_c, 0, 77, 62
1, 40508, Note_on_c, 0, 86, 86
1, 40529, Note_off_c, 0, 83, 60
1, 40539, Note_on_c, 0, 38, 61
1, 40577, Note_on_c, 0, 32, 56
1, 40580, Note_off_c, 0, 41, 34
1, 40597, Note_off_c, 0, 86, 63
1, 40598, Note_on_c, 0, 89, 83
1, 40638, Note_off_c, 0, 32, 51
1, 40639, Control_c, 0, 64, 87
1, 40654, Note_off_c, 0, 38, 52
1, 40654, Control_c, 0, 64, 76
1, 40669, Control_c, 0, 64, 39
1, 40684, Control_c, 0, 64, 0
1, 40708, Note_on_c, 0, 31, 77
1, 40711, Note_on_c, 0, 91, 87
1, 40727, Note_off_c, 0, 89, 60
1, 40728, Control_c, 0, 64, 32
1, 40743, Control_c, 0, 64, 68
1, 40758, Control_c, 0, 64, 74
1, 40773, Control_c, 0, 64, 78
1, 40788, Control_c, 0, 64, 79
1, 40791, Note_off_c, 0, 91, 51
1, 40801, Note_on_c, 0, 35, 65
1, 40803, Control_c, 0, 64, 80
1, 40820, Note_on_c, 0, 86, 80
1, 40825, Control_c, 0, 64, 82
1, 40840, Control_c, 0, 64, 83
1, 40851, Note_off_c, 0, 31, 53
1, 40855, Control_c, 0, 64, 84
1, 40869, Control_c, 0, 64, 84
1, 40884, Control_c, 0, 64, 85
1, 40896, Note_on_c, 0, 38, 75
1, 40899, Control_c, 0, 64, 86
1, 40913, Note_off_c, 0, 86, 62
1, 40914, Control_c, 0, 64, 86
1, 40920, Note_on_c, 0, 83, 76
1, 40929, Control_c, 0, 64, 87
1, 40953, Note_off_c, 0, 35, 59
1, 40958, Control_c, 0, 64, 87
1, 40976, Note_off_c, 0, 38, 62
1, 40989, Note_off_c, 0, 83, 57
1, 40996, Note_on_c, 0, 43, 66
1, 41006, Note_on_c, 0, 79, 75
1, 41077, Control_c, 0, 64, 83
1, 41090, Note_on_c, 0, 36, 74
1, 41092, Control_c, 0, 64, 71
1, 41102, Note_off_c, 0, 43, 35
1, 41107, Control_c, 0, 64, 0
1, 41108, Note_on_c, 0, 87, 78
1, 41122, Note_off_c, 0, 79, 58
1, 41166, Control_c, 0, 64, 64
1, 41181, Control_c, 0, 64, 70
1, 41196, Control_c, 0, 64, 72
1, 41211, Control_c, 0, 64, 72
1, 41212, Note_on_c, 0, 84, 74
1, 41215, Note_on_c, 0, 39, 68
1, 41225, Control_c, 0, 64, 73
1, 41240, Control_c, 0, 64, 75
1, 41248, Note_off_c, 0, 36, 61
1, 41249, Note_off_c, 0, 87, 56
1, 41255, Control_c, 0, 64, 76
1, 41269, Control_c, 0, 64, 77
1, 41299, Note_off_c, 0, 84, 63
1, 41301, Note_on_c, 0, 43, 74
1, 41312, Note_on_c, 0, 79, 71
1, 41314, Control_c, 0, 64, 77
1, 41329, Control_c, 0, 64, 78
1, 41343, Control_c, 0, 64, 78
1, 41359, Note_off_c, 0, 39, 61
1, 41365, Note_off_c, 0, 79, 62
1, 41376, Note_off_c, 0, 43, 61
1, 41403, Note_on_c, 0, 75, 74
1, 41404, Note_on_c, 0, 48, 74
1, 41447, Control_c, 0, 64, 77
1, 41462, Control_c, 0, 64, 73
1, 41477, Control_c, 0, 64, 67
1, 41492, Control_c, 0, 64, 43
1, 41507, Control_c, 0, 64, 0
1, 41516, Note_on_c, 0, 72, 75
1, 41519, Note_on_c, 0, 51, 78
1, 41526, Note_off_c, 0, 48, 65
1, 41529, Note_off_c, 0, 75, 59
1, 41614, Note_off_c, 0, 51, 62
1, 41632, Note_on_c, 0, 48, 76
1, 41742, Note_off_c, 0, 72, 57
1, 41743, Note_on_c, 0, 43, 75
1, 41752, Note_off_c, 0, 48, 59
1, 41862, Note_on_c, 0, 39, 74
1, 41864, Note_off_c, 0, 43, 59
1, 41995, Note_off_c, 0, 39, 60
1, 42004, Note_on_c, 0, 36, 68
1, 42288, Note_off_c, 0, 36, 63
1, 42980, Note_on_c, 0, 67, 48
1, 42985, Note_on_c, 0, 36, 39
1, 42985, Note_on_c, 0, 55, 39
1, 43017, Note_off_c, 0, 36, 55
1, 43027, Note_off_c, 0, 55, 47
1, 43158, Note_on_c, 0, 60, 39
1, 43187, Note_off_c, 0, 60, 56
1, 43252, Note_off_c, 0, 67, 37
1, 43287, Note_on_c, 0, 63, 46
1, 43326, Note_off_c, 0, 63, 65
1, 43435, Note_on_c, 0, 62, 53
1, 43442, Note_on_c, 0, 67, 50
1, 43447, Note_on_c, 0, 36, 31
1, 43461, Note_off_c, 0, 62, 61
1, 43485, Note_off_c, 0, 36, 48
1, 43591, Note_on_c, 0, 63, 46
1, 43628, Note_off_c, 0, 63, 64
1, 43701, Note_off_c, 0, 67, 29
1, 43727, Note_on_c, 0, 60, 49
1, 43763, Note_off_c, 0, 60, 62
1, 43883, Note_on_c, 0, 67, 54
1, 43886, Note_on_c, 0, 36, 36
1, 43889, Note_on_c, 0, 55, 52
1, 43930, Note_off_c, 0, 55, 59
1, 43953, Note_off_c, 0, 36, 42
1, 44044, Note_on_c, 0, 60, 49
1, 44079, Note_off_c, 0, 60, 60
1, 44100, Note_off_c, 0, 67, 37
1, 44165, Note_on_c, 0, 63, 49
1, 44204, Note_off_c, 0, 63, 61
1, 44323, Note_on_c, 0, 67, 56
1, 44327, Note_on_c, 0, 35, 42
1, 44332, Note_on_c, 0, 55, 45
1, 44374, Note_off_c, 0, 55, 50
1, 44462, Note_off_c, 0, 35, 33
1, 44474, Note_on_c, 0, 59, 49
1, 44505, Note_off_c, 0, 59, 60
1, 44580, Note_off_c, 0, 67, 18
1, 44615, Note_on_c, 0, 62, 49
1, 44655, Note_off_c, 0, 62, 60
1, 44759, Note_on_c, 0, 61, 58
1, 44792, Note_off_c, 0, 61, 64
1, 44896, Note_on_c, 0, 62, 54
1, 44935, Note_off_c, 0, 62, 60
1, 45031, Note_on_c, 0, 59, 54
1, 45065, Note_off_c, 0, 59, 62
1, 45176, Note_on_c, 0, 55, 55
1, 45205, Note_off_c, 0, 55, 66
1, 45323, Note_on_c, 0, 59, 51
1, 45354, Note_off_c, 0, 59, 61
1, 45456, Note_on_c, 0, 62, 37
1, 45485, Note_off_c, 0, 62, 48
1, 45609, Note_on_c, 0, 61, 53
1, 45609, Note_on_c, 0, 73, 60
1, 45611, Note_on_c, 0, 34, 38
1, 45640, Note_off_c, 0, 61, 59
1, 45682, Note_off_c, 0, 34, 53
1, 45768, Note_on_c, 0, 64, 54
1, 45802, Note_off_c, 0, 64, 63
1, 45811, Note_off_c, 0, 73, 51
1, 45905, Note_on_c, 0, 67, 51
1, 45948, Note_off_c, 0, 67, 61
1, 46037, Note_on_c, 0, 34, 49
1, 46038, Note_on_c, 0, 73, 69
1, 46051, Note_on_c, 0, 66, 63
1, 46093, Note_off_c, 0, 66, 65
1, 46112, Note_off_c, 0, 34, 59
1, 46205, Note_on_c, 0, 67, 55
1, 46227, Note_off_c, 0, 73, 57
1, 46253, Note_off_c, 0, 67, 56
1, 46329, Note_on_c, 0, 64, 58
1, 46366, Note_off_c, 0, 64, 63
1, 46476, Note_on_c, 0, 73, 72
1, 46482, Note_on_c, 0, 34, 52
1, 46488, Note_on_c, 0, 61, 62
1, 46529, Note_off_c, 0, 61, 55
1, 46548, Note_off_c, 0, 34, 60
1, 46625, Note_on_c, 0, 64, 61
1, 46639, Note_off_c, 0, 73, 59
1, 46666, Note_off_c, 0, 64, 61
1, 46757, Note_on_c, 0, 67, 59
1, 46789, Note_off_c, 0, 67, 66
1, 46919, Note_on_c, 0, 72, 70
1, 46923, Note_on_c, 0, 33, 45
1, 46927, Note_on_c, 0, 60, 55
1, 46969, Note_off_c, 0, 60, 58
1, 47072, Note_on_c, 0, 65, 64
1, 47104, Note_off_c, 0, 65, 66
1, 47122, Note_off_c, 0, 72, 57
1, 47126, Note_off_c, 0, 33, 42
1, 47209, Note_on_c, 0, 69, 63
1, 47243, Note_off_c, 0, 69, 64
1, 47353, Note_on_c, 0, 68, 67
1, 47382, Note_off_c, 0, 68, 68
1, 47490, Note_on_c, 0, 69, 59
1, 47526, Note_off_c, 0, 69, 62
1, 47634, Note_on_c, 0, 65, 59
1, 47668, Note_off_c, 0, 65, 65
1, 47784, Note_on_c, 0, 60, 60
1, 47816, Note_off_c, 0, 60, 65
1, 47929, Note_on_c, 0, 65, 47
1, 47954, Note_off_c, 0, 65, 61
1, 48058, Note_on_c, 0, 69, 53
1, 48083, Note_off_c, 0, 69, 63
1, 48191, Note_on_c, 0, 32, 36
1, 48211, Note_on_c, 0, 72, 60
1, 48214, Note_on_c, 0, 60, 51
1, 48250, Note_off_c, 0, 60, 54
1, 48326, Note_off_c, 0, 32, 53
1, 48357, Note_on_c, 0, 63, 58
1, 48395, Note_off_c, 0, 63, 64
1, 48502, Note_on_c, 0, 66, 61
1, 48535, Note_off_c, 0, 72, 40
1, 48541, Note_off_c, 0, 66, 63
1, 48641, Note_on_c, 0, 72, 67
1, 48646, Note_on_c, 0, 32, 55
1, 48653, Note_on_c, 0, 65, 64
1, 48683, Note_off_c, 0, 65, 67
1, 48715, Note_off_c, 0, 32, 60
1, 48787, Note_on_c, 0, 66, 67
1, 48827, Note_off_c, 0, 66, 61
1, 48927, Note_on_c, 0, 63, 72
1, 48953, Note_off_c, 0, 63, 67
1, 48961, Note_off_c, 0, 72, 22
1, 49075, Note_on_c, 0, 32, 63
1, 49078, Note_on_c, 0, 72, 75
1, 49085, Note_on_c, 0, 60, 73
1, 49109, Note_off_c, 0, 60, 68
1, 49141, Note_off_c, 0, 32, 61
1, 49221, Note_on_c, 0, 63, 72
1, 49251, Note_off_c, 0, 63, 64
1, 49269, Note_off_c, 0, 72, 57
1, 49359, Note_on_c, 0, 66, 71
1, 49392, Note_off_c, 0, 66, 66
1, 49499, Note_on_c, 0, 31, 62
1, 49503, Note_on_c, 0, 72, 83
1, 49506, Note_on_c, 0, 60, 81
1, 49536, Note_off_c, 0, 60, 65
1, 49589, Note_off_c, 0, 31, 62
1, 49642, Note_on_c, 0, 63, 81
1, 49694, Note_off_c, 0, 63, 64
1, 49696, Note_off_c, 0, 72, 59
1, 49775, Note_on_c, 0, 67, 75
1, 49800, Note_off_c, 0, 67, 68
1, 49964, Note_on_c, 0, 29, 71
1, 49969, Note_on_c, 0, 80, 88
1, 49971, Note_on_c, 0, 68, 84
1, 50008, Note_off_c, 0, 68, 62
1, 50077, Note_off_c, 0, 80, 59
1, 50143, Note_off_c, 0, 29, 57
1, 50159, Note_on_c, 0, 72, 65
1, 50189, Note_off_c, 0, 72, 63
1, 50304, Note_on_c, 0, 74, 67
1, 50327, Note_off_c, 0, 74, 70
1, 50442, Note_on_c, 0, 77, 64
1, 50476, Note_off_c, 0, 77, 60
1, 50587, Note_on_c, 0, 80, 63
1, 50616, Note_off_c, 0, 80, 66
1, 50729, Note_on_c, 0, 77, 63
1, 50766, Note_off_c, 0, 77, 56
1, 50873, Note_on_c, 0, 74, 62
1, 50900, Note_off_c, 0, 74, 69
1, 51003, Note_on_c, 0, 72, 54
1, 51031, Note_off_c, 0, 72, 64
1, 51132, Note_on_c, 0, 68, 65
1, 51165, Note_off_c, 0, 68, 65
1, 51272, Note_on_c, 0, 65, 61
1, 51309, Note_off_c, 0, 65, 68
1, 51416, Note_on_c, 0, 62, 52
1, 51450, Note_off_c, 0, 62, 63
1, 51536, Note_on_c, 0, 60, 53
1, 51570, Note_off_c, 0, 60, 63
1, 51608, Note_on_c, 0, 53, 54
1, 51643, Note_off_c, 0, 53, 66
1, 51683, Note_on_c, 0, 67, 56
1, 51689, Note_on_c, 0, 59, 54
1, 51708, Note_on_c, 0, 55, 46
1, 51731, Note_off_c, 0, 59, 58
1, 51838, Note_on_c, 0, 62, 42
1, 51869, Note_off_c, 0, 67, 40
1, 51875, Note_off_c, 0, 55, 37
1, 51892, Note_off_c, 0, 62, 54
1, 51972, Note_on_c, 0, 59, 49
1, 52001, Note_off_c, 0, 59, 57
1, 52136, Note_on_c, 0, 48, 42
1, 52138, Note_on_c, 0, 67, 44
1, 52139, Note_on_c, 0, 60, 50
1, 52182, Note_off_c, 0, 60, 59
1, 52253, Note_off_c, 0, 48, 58
1, 52292, Note_on_c, 0, 63, 48
1, 52298, Note_off_c, 0, 67, 29
1, 52343, Note_off_c, 0, 63, 57
1, 52436, Note_on_c, 0, 60, 40
1, 52467, Note_off_c, 0, 60, 55
1, 52593, Note_on_c, 0, 67, 49
1, 52593, Note_on_c, 0, 43, 37
1, 52602, Note_on_c, 0, 59, 44
1, 52650, Note_off_c, 0, 59, 44
1, 52689, Note_off_c, 0, 43, 46
1, 52721, Note_off_c, 0, 67, 28
1, 52755, Note_on_c, 0, 62, 41
1, 52817, Note_off_c, 0, 62, 45
1, 52911, Note_on_c, 0, 59, 42
1, 52949, Note_off_c, 0, 59, 48
1, 53083, Note_on_c, 0, 67, 44
1, 53089, Note_on_c, 0, 60, 41
1, 53108, Note_on_c, 0, 36, 28
1, 53124, Note_off_c, 0, 60, 54
1, 53150, Note_off_c, 0, 67, 49
1, 53259, Note_off_c, 0, 36, 35
1, 53270, Note_on_c, 0, 63, 45
1, 53309, Note_off_c, 0, 63, 56
1, 53493, Note_on_c, 0, 60, 38
1, 53528, Note_off_c, 0, 60, 56
1, 54162, Control_c, 0, 64, 46
1, 54177, Control_c, 0, 64, 53
1, 54192, Control_c, 0, 64, 57
1, 54206, Control_c, 0, 64, 61
1, 54221, Control_c, 0, 64, 63
1, 54236, Control_c, 0, 64, 65
1, 54251, Control_c, 0, 64, 67
1, 54266, Control_c, 0, 64, 69
1, 54280, Control_c, 0, 64, 70
1, 54303, Control_c, 0, 64, 73
1, 54318, Control_c, 0, 64, 75
1, 54333, Control_c, 0, 64, 78
1, 54348, Control_c, 0, 64, 80
1, 54359, Note_on_c, 0, 48, 38
1, 54362, Control_c, 0, 64, 82
1, 54378, Control_c, 0, 64, 84
1, 54393, Control_c, 0, 64, 87
1, 54394, Note_off_c, 0, 48, 52
1, 54408, Control_c, 0, 64, 89
1, 54422, Control_c, 0, 64, 91
1, 54437, Control_c, 0, 64, 93
1, 54452, Control_c, 0, 64, 94
1, 54467, Control_c, 0, 64, 96
1, 54482, Control_c, 0, 64, 97
1, 54496, Control_c, 0, 64, 98
1, 54511, Control_c, 0, 64, 99
1, 54526, Control_c, 0, 64, 100
1, 54541, Control_c, 0, 64, 101
1, 54551, Note_on_c, 0, 67, 42
1, 54556, Control_c, 0, 64, 101
1, 54570, Control_c, 0, 64, 102
1, 54571, Note_on_c, 0, 60, 43
1, 54585, Note_on_c, 0, 63, 19
1, 54600, Control_c, 0, 64, 102
1, 54602, Note_off_c, 0, 60, 57
1, 54617, Note_off_c, 0, 67, 40
1, 54626, Note_off_c, 0, 63, 43
1, 54659, Control_c, 0, 64, 103
1, 54691, Note_on_c, 0, 72, 54
1, 54722, Note_on_c, 0, 60, 29
1, 54722, Note_on_c, 0, 63, 36
1, 54757, Note_off_c, 0, 63, 48
1, 54758, Note_off_c, 0, 60, 42
1, 54766, Poly_aftertouch_c, 0, 55, 127
1, 54806, Note_on_c, 0, 75, 60
1, 54808, Note_off_c, 0, 72, 56
1, 54842, Note_on_c, 0, 63, 36
1, 54859, Note_on_c, 0, 60, 10
1, 54873, Note_off_c, 0, 63, 53
1, 54893, Poly_aftertouch_c, 0, 55, 0
1, 54911, Note_off_c, 0, 60, 33
1, 54953, Note_on_c, 0, 79, 63
1, 54954, Note_on_c, 0, 55, 24
1, 54960, Note_on_c, 0, 63, 51
1, 54974, Note_on_c, 0, 60, 31
1, 54987, Note_off_c, 0, 75, 64
1, 55010, Note_off_c, 0, 79, 62
1, 55248, Note_on_c, 0, 87, 71
1, 55280, Note_on_c, 0, 75, 39
1, 55307, Note_off_c, 0, 75, 53
1, 55312, Note_off_c, 0, 87, 64
1, 55571, Control_c, 0, 64, 102
1, 55586, Control_c, 0, 64, 101
1, 55595, Note_on_c, 0, 83, 65
1, 55601, Control_c, 0, 64, 95
1, 55616, Control_c, 0, 64, 85
1, 55618, Note_on_c, 0, 71, 44
1, 55631, Control_c, 0, 64, 74
1, 55645, Control_c, 0, 64, 64
1, 55660, Control_c, 0, 64, 46
1, 55675, Control_c, 0, 64, 60
1, 55690, Control_c, 0, 64, 67
1, 55705, Control_c, 0, 64, 72
1, 55720, Control_c, 0, 64, 77
1, 55735, Control_c, 0, 64, 80
1, 55750, Control_c, 0, 64, 83
1, 55750, Note_off_c, 0, 71, 22
1, 55753, Note_off_c, 0, 83, 52
1, 55765, Control_c, 0, 64, 86
1, 55779, Control_c, 0, 64, 88
1, 55801, Control_c, 0, 64, 89
1, 55816, Control_c, 0, 64, 91
1, 55831, Control_c, 0, 64, 92
1, 55846, Control_c, 0, 64, 93
1, 55860, Control_c, 0, 64, 94
1, 55875, Control_c, 0, 64, 95
1, 55890, Control_c, 0, 64, 95
1, 55920, Control_c, 0, 64, 96
1, 55944, Note_on_c, 0, 84, 55
1, 55947, Note_off_c, 0, 63, 58
1, 55948, Note_on_c, 0, 72, 48
1, 55949, Control_c, 0, 64, 96
1, 55961, Note_off_c, 0, 60, 39
1, 55976, Note_off_c, 0, 55, 45
1, 55980, Control_c, 0, 64, 97
1, 55999, Note_off_c, 0, 84, 55
1, 56000, Note_off_c, 0, 72, 55
1, 56054, Control_c, 0, 64, 97
1, 56084, Control_c, 0, 64, 98
1, 56173, Control_c, 0, 64, 95
1, 56188, Control_c, 0, 64, 84
1, 56202, Control_c, 0, 64, 68
1, 56217, Control_c, 0, 64, 0
1, 56246, Note_on_c, 0, 43, 42
1, 56262, Control_c, 0, 64, 61
1, 56276, Control_c, 0, 64, 73
1, 56280, Note_off_c, 0, 43, 54
1, 56291, Control_c, 0, 64, 82
1, 56306, Control_c, 0, 64, 88
1, 56321, Control_c, 0, 64, 91
1, 56336, Control_c, 0, 64, 95
1, 56350, Control_c, 0, 64, 99
1, 56365, Control_c, 0, 64, 102
1, 56380, Control_c, 0, 64, 106
1, 56394, Control_c, 0, 64, 109
1, 56409, Control_c, 0, 64, 111
1, 56418, Note_on_c, 0, 67, 45
1, 56424, Control_c, 0, 64, 113
1, 56427, Note_on_c, 0, 59, 49
1, 56439, Control_c, 0, 64, 115
1, 56454, Control_c, 0, 64, 117
1, 56455, Note_on_c, 0, 55, 24
1, 56456, Note_on_c, 0, 62, 17
1, 56458, Note_off_c, 0, 59, 58
1, 56468, Control_c, 0, 64, 118
1, 56483, Control_c, 0, 64, 120
1, 56493, Note_off_c, 0, 55, 45
1, 56498, Control_c, 0, 64, 122
1, 56500, Note_off_c, 0, 62, 38
1, 56513, Control_c, 0, 64, 123
1, 56528, Control_c, 0, 64, 124
1, 56561, Note_on_c, 0, 59, 51
1, 56564, Note_on_c, 0, 71, 58
1, 56565, Control_c, 0, 64, 124
1, 56580, Control_c, 0, 64, 125
1, 56585, Note_off_c, 0, 59, 57
1, 56603, Note_on_c, 0, 55, 8
1, 56614, Note_off_c, 0, 67, 42
1, 56662, Poly_aftertouch_c, 0, 62, 0
1, 56672, Note_on_c, 0, 59, 57
1, 56674, Note_on_c, 0, 74, 64
1, 56679, Note_on_c, 0, 62, 19
1, 56689, Note_off_c, 0, 55, 0
1, 56689, Note_on_c, 0, 55, 3
1, 56707, Note_off_c, 0, 59, 61
1, 56716, Note_off_c, 0, 71, 56
1, 56722, Note_off_c, 0, 62, 52
1, 56724, Note_off_c, 0, 55, 56
1, 56809, Note_on_c, 0, 79, 75
1, 56812, Note_on_c, 0, 59, 45
1, 56822, Note_on_c, 0, 62, 53
1, 56830, Note_off_c, 0, 74, 66
1, 56832, Note_on_c, 0, 55, 48
1, 56871, Note_off_c, 0, 79, 61
1, 57103, Note_on_c, 0, 86, 71
1, 57124, Note_on_c, 0, 74, 51
1, 57147, Note_off_c, 0, 74, 64
1, 57163, Note_off_c, 0, 86, 63
1, 57432, Control_c, 0, 64, 124
1, 57444, Note_on_c, 0, 78, 66
1, 57447, Control_c, 0, 64, 121
1, 57462, Control_c, 0, 64, 113
1, 57468, Note_on_c, 0, 66, 44
1, 57477, Control_c, 0, 64, 100
1, 57491, Control_c, 0, 64, 84
1, 57506, Control_c, 0, 64, 70
1, 57521, Control_c, 0, 64, 13
1, 57536, Control_c, 0, 64, 0
1, 57550, Control_c, 0, 64, 25
1, 57565, Control_c, 0, 64, 65
1, 57582, Control_c, 0, 64, 73
1, 57596, Control_c, 0, 64, 79
1, 57611, Control_c, 0, 64, 83
1, 57626, Control_c, 0, 64, 86
1, 57641, Control_c, 0, 64, 89
1, 57649, Note_off_c, 0, 78, 61
1, 57655, Control_c, 0, 64, 92
1, 57670, Control_c, 0, 64, 95
1, 57682, Note_off_c, 0, 66, 43
1, 57685, Control_c, 0, 64, 97
1, 57700, Control_c, 0, 64, 98
1, 57715, Control_c, 0, 64, 99
1, 57728, Note_off_c, 0, 62, 55
1, 57729, Control_c, 0, 64, 100
1, 57736, Note_off_c, 0, 59, 53
1, 57744, Control_c, 0, 64, 101
1, 57759, Control_c, 0, 64, 101
1, 57762, Note_off_c, 0, 55, 62
1, 57774, Control_c, 0, 64, 102
1, 57786, Note_on_c, 0, 79, 54
1, 57789, Control_c, 0, 64, 102
1, 57799, Note_on_c, 0, 67, 38
1, 57804, Control_c, 0, 64, 103
1, 57818, Control_c, 0, 64, 104
1, 57833, Control_c, 0, 64, 105
1, 57848, Control_c, 0, 64, 106
1, 57863, Control_c, 0, 64, 108
1, 57878, Control_c, 0, 64, 111
1, 57884, Note_off_c, 0, 79, 52
1, 57893, Control_c, 0, 64, 113
1, 57908, Control_c, 0, 64, 113
1, 57952, Control_c, 0, 64, 108
1, 57962, Note_off_c, 0, 67, 20
1, 57967, Control_c, 0, 64, 90
1, 57982, Control_c, 0, 64, 69
1, 57996, Control_c, 0, 64, 0
1, 58026, Note_on_c, 0, 48, 53
1, 58048, Control_c, 0, 64, 66
1, 58063, Control_c, 0, 64, 77
1, 58077, Note_off_c, 0, 48, 66
1, 58078, Control_c, 0, 64, 87
1, 58093, Control_c, 0, 64, 97
1, 58108, Control_c, 0, 64, 104
1, 58122, Control_c, 0, 64, 112
1, 58137, Control_c, 0, 64, 119
1, 58152, Control_c, 0, 64, 127
1, 58211, Note_on_c, 0, 60, 48
1, 58215, Note_on_c, 0, 67, 57
1, 58217, Note_on_c, 0, 55, 45
1, 58226, Note_on_c, 0, 64, 26
1, 58240, Note_on_c, 0, 58, 20
1, 58250, Note_off_c, 0, 60, 62
1, 58252, Note_off_c, 0, 55, 51
1, 58260, Note_off_c, 0, 64, 44
1, 58276, Note_off_c, 0, 58, 42
1, 58333, Note_on_c, 0, 70, 72
1, 58353, Note_on_c, 0, 58, 44
1, 58359, Note_on_c, 0, 55, 35
1, 58361, Note_on_c, 0, 60, 35
1, 58379, Note_off_c, 0, 58, 59
1, 58388, Note_off_c, 0, 60, 51
1, 58390, Note_off_c, 0, 55, 52
1, 58431, Poly_aftertouch_c, 0, 64, 0
1, 58441, Note_on_c, 0, 76, 74
1, 58451, Note_off_c, 0, 67, 27
1, 58453, Note_on_c, 0, 64, 21
1, 58456, Note_off_c, 0, 70, 63
1, 58481, Note_on_c, 0, 58, 44
1, 58489, Note_on_c, 0, 55, 23
1, 58491, Note_off_c, 0, 64, 59
1, 58493, Note_on_c, 0, 60, 28
1, 58506, Note_off_c, 0, 58, 57
1, 58531, Note_off_c, 0, 60, 41
1, 58567, Note_off_c, 0, 55, 0
1, 58576, Note_on_c, 0, 79, 81
1, 58582, Note_on_c, 0, 55, 38
1, 58587, Note_on_c, 0, 64, 63
1, 58596, Note_on_c, 0, 58, 55
1, 58596, Note_off_c, 0, 76, 65
1, 58599, Note_on_c, 0, 60, 46
1, 58631, Note_off_c, 0, 79, 65
1, 58858, Note_on_c, 0, 88, 79
1, 58877, Note_on_c, 0, 76, 69
1, 58901, Note_off_c, 0, 76, 70
1, 58910, Note_off_c, 0, 88, 64
1, 59180, Note_on_c, 0, 81, 75
1, 59196, Note_on_c, 0, 69, 61
1, 59198, Control_c, 0, 64, 120
1, 59212, Control_c, 0, 64, 104
1, 59227, Control_c, 0, 64, 92
1, 59242, Control_c, 0, 64, 80
1, 59257, Control_c, 0, 64, 68
1, 59272, Control_c, 0, 64, 0
1, 59301, Control_c, 0, 64, 43
1, 59316, Control_c, 0, 64, 66
1, 59331, Control_c, 0, 64, 73
1, 59346, Control_c, 0, 64, 80
1, 59347, Note_off_c, 0, 69, 63
1, 59360, Control_c, 0, 64, 85
1, 59363, Note_off_c, 0, 81, 60
1, 59375, Control_c, 0, 64, 88
1, 59390, Control_c, 0, 64, 91
1, 59405, Control_c, 0, 64, 96
1, 59419, Control_c, 0, 64, 99
1, 59434, Control_c, 0, 64, 103
1, 59449, Control_c, 0, 64, 107
1, 59464, Control_c, 0, 64, 110
1, 59479, Control_c, 0, 64, 113
1, 59494, Control_c, 0, 64, 115
1, 59500, Note_on_c, 0, 82, 63
1, 59502, Note_off_c, 0, 64, 55
1, 59504, Note_off_c, 0, 55, 60
1, 59507, Note_off_c, 0, 60, 57
1, 59509, Control_c, 0, 64, 117
1, 59511, Note_on_c, 0, 70, 57
1, 59513, Note_off_c, 0, 58, 60
1, 59524, Control_c, 0, 64, 120
1, 59546, Control_c, 0, 64, 122
1, 59561, Note_off_c, 0, 70, 58
1, 59561, Control_c, 0, 64, 124
1, 59575, Control_c, 0, 64, 125
1, 59590, Control_c, 0, 64, 127
1, 59611, Note_off_c, 0, 82, 59
1, 59738, Control_c, 0, 64, 108
1, 59753, Control_c, 0, 64, 88
1, 59768, Control_c, 0, 64, 67
1, 59771, Note_on_c, 0, 53, 58
1, 59783, Control_c, 0, 64, 0
1, 59811, Note_off_c, 0, 53, 64
1, 59813, Control_c, 0, 64, 54
1, 59827, Control_c, 0, 64, 73
1, 59842, Control_c, 0, 64, 86
1, 59857, Control_c, 0, 64, 98
1, 59872, Control_c, 0, 64, 106
1, 59887, Control_c, 0, 64, 118
1, 59901, Control_c, 0, 64, 127
1, 59923, Note_on_c, 0, 69, 69
1, 59928, Note_on_c, 0, 60, 54
1, 59935, Note_on_c, 0, 65, 39
1, 59938, Note_on_c, 0, 57, 48
1, 59961, Note_off_c, 0, 60, 59
1, 59966, Note_off_c, 0, 65, 53
1, 59970, Note_off_c, 0, 57, 58
1, 60045, Note_on_c, 0, 72, 72
1, 60058, Note_on_c, 0, 65, 48
1, 60060, Note_on_c, 0, 57, 45
1, 60069, Note_on_c, 0, 60, 40
1, 60080, Note_off_c, 0, 69, 58
1, 60084, Note_off_c, 0, 65, 57
1, 60092, Note_off_c, 0, 60, 57
1, 60095, Note_off_c, 0, 57, 50
1, 60151, Note_on_c, 0, 77, 79
1, 60171, Note_on_c, 0, 57, 57
1, 60172, Note_on_c, 0, 65, 54
1, 60173, Note_off_c, 0, 72, 61
1, 60181, Note_on_c, 0, 60, 55
1, 60191, Note_off_c, 0, 65, 64
1, 60200, Note_off_c, 0, 60, 62
1, 60213, Note_off_c, 0, 57, 57
1, 60292, Note_on_c, 0, 81, 85
1, 60293, Note_on_c, 0, 65, 59
1, 60296, Note_on_c, 0, 60, 62
1, 60306, Note_on_c, 0, 57, 59
1, 60318, Note_off_c, 0, 77, 61
1, 60352, Note_off_c, 0, 81, 63
1, 60567, Note_on_c, 0, 89, 84
1, 60582, Note_on_c, 0, 77, 76
1, 60605, Note_off_c, 0, 77, 67
1, 60619, Note_off_c, 0, 89, 66
1, 60883, Note_on_c, 0, 83, 74
1, 60898, Note_on_c, 0, 71, 62
1, 60903, Control_c, 0, 64, 110
1, 60918, Control_c, 0, 64, 94
1, 60932, Control_c, 0, 64, 75
1, 60947, Control_c, 0, 64, 52
1, 60962, Control_c, 0, 64, 0
1, 61006, Control_c, 0, 64, 65
1, 61021, Control_c, 0, 64, 73
1, 61044, Control_c, 0, 64, 79
1, 61059, Note_off_c, 0, 71, 55
1, 61059, Control_c, 0, 64, 84
1, 61073, Control_c, 0, 64, 88
1, 61088, Control_c, 0, 64, 92
1, 61094, Note_off_c, 0, 83, 58
1, 61103, Control_c, 0, 64, 96
1, 61118, Control_c, 0, 64, 100
1, 61133, Control_c, 0, 64, 105
1, 61147, Control_c, 0, 64, 109
1, 61154, Note_off_c, 0, 65, 58
1, 61162, Control_c, 0, 64, 112
1, 61177, Control_c, 0, 64, 114
1, 61187, Note_off_c, 0, 60, 58
1, 61191, Control_c, 0, 64, 116
1, 61206, Control_c, 0, 64, 119
1, 61208, Note_on_c, 0, 84, 72
1, 61220, Note_off_c, 0, 57, 53
1, 61221, Control_c, 0, 64, 124
1, 61225, Note_on_c, 0, 72, 55
1, 61236, Control_c, 0, 64, 127
1, 61255, Note_off_c, 0, 72, 50
1, 61270, Note_off_c, 0, 84, 62
1, 61399, Control_c, 0, 64, 109
1, 61413, Control_c, 0, 64, 83
1, 61428, Control_c, 0, 64, 58
1, 61443, Control_c, 0, 64, 0
1, 61465, Note_on_c, 0, 50, 60
1, 61473, Control_c, 0, 64, 61
1, 61488, Control_c, 0, 64, 78
1, 61499, Note_off_c, 0, 50, 64
1, 61503, Control_c, 0, 64, 98
1, 61518, Control_c, 0, 64, 113
1, 61533, Control_c, 0, 64, 118
1, 61548, Control_c, 0, 64, 127
1, 61645, Note_on_c, 0, 66, 57
1, 61656, Note_on_c, 0, 69, 62
1, 61677, Note_on_c, 0, 62, 24
1, 61682, Note_off_c, 0, 66, 63
1, 61688, Note_on_c, 0, 60, 19
1, 61715, Note_off_c, 0, 62, 42
1, 61728, Note_off_c, 0, 60, 39
1, 61767, Note_on_c, 0, 72, 74
1, 61774, Note_on_c, 0, 66, 62
1, 61795, Note_on_c, 0, 57, 47
1, 61803, Note_on_c, 0, 60, 40
1, 61805, Note_on_c, 0, 62, 48
1, 61813, Note_off_c, 0, 66, 65
1, 61816, Note_off_c, 0, 69, 60
1, 61824, Note_off_c, 0, 57, 55
1, 61828, Note_off_c, 0, 60, 57
1, 61830, Note_off_c, 0, 62, 56
1, 61886, Note_on_c, 0, 78, 76
1, 61900, Note_on_c, 0, 66, 67
1, 61902, Note_off_c, 0, 72, 63
1, 61912, Note_on_c, 0, 62, 56
1, 61914, Note_on_c, 0, 57, 48
1, 61920, Note_on_c, 0, 60, 61
1, 61933, Note_off_c, 0, 66, 58
1, 61947, Note_off_c, 0, 57, 51
1, 61947, Note_off_c, 0, 62, 63
1, 61951, Note_off_c, 0, 60, 65
1, 62023, Note_on_c, 0, 66, 74
1, 62024, Note_on_c, 0, 81, 85
1, 62031, Note_on_c, 0, 62, 59
1, 62040, Note_on_c, 0, 57, 59
1, 62043, Note_on_c, 0, 60, 59
1, 62053, Note_off_c, 0, 78, 65
1, 62076, Note_off_c, 0, 81, 65
1, 62293, Note_on_c, 0, 90, 86
1, 62308, Note_on_c, 0, 78, 77
1, 62318, Note_off_c, 0, 62, 51
1, 62323, Note_off_c, 0, 60, 56
1, 62331, Note_off_c, 0, 90, 66
1, 62332, Note_off_c, 0, 78, 67
1, 62335, Note_off_c, 0, 57, 56
1, 62353, Note_off_c, 0, 66, 63
1, 62369, Note_on_c, 0, 89, 7
1, 62416, Note_off_c, 0, 89, 34
1, 62609, Note_on_c, 0, 83, 79
1, 62617, Note_on_c, 0, 71, 68
1, 62645, Control_c, 0, 64, 102
1, 62659, Control_c, 0, 64, 83
1, 62674, Control_c, 0, 64, 70
1, 62689, Control_c, 0, 64, 64
1, 62704, Control_c, 0, 64, 67
1, 62719, Control_c, 0, 64, 74
1, 62734, Control_c, 0, 64, 84
1, 62735, Note_off_c, 0, 71, 50
1, 62749, Control_c, 0, 64, 94
1, 62763, Note_off_c, 0, 83, 59
1, 62763, Control_c, 0, 64, 100
1, 62778, Control_c, 0, 64, 105
1, 62793, Control_c, 0, 64, 113
1, 62808, Control_c, 0, 64, 127
1, 62862, Note_on_c, 0, 66, 65
1, 62871, Note_on_c, 0, 62, 60
1, 62876, Note_on_c, 0, 84, 82
1, 62879, Note_on_c, 0, 72, 73
1, 62901, Note_off_c, 0, 72, 71
1, 62937, Note_off_c, 0, 84, 62
1, 62956, Note_off_c, 0, 66, 61
1, 62993, Note_off_c, 0, 62, 56
1, 63179, Control_c, 0, 64, 114
1, 63193, Control_c, 0, 64, 97
1, 63201, Note_on_c, 0, 91, 83
1, 63204, Note_on_c, 0, 63, 59
1, 63205, Note_on_c, 0, 67, 62
1, 63208, Control_c, 0, 64, 78
1, 63211, Note_on_c, 0, 79, 75
1, 63223, Control_c, 0, 64, 0
1, 63305, Control_c, 0, 64, 64
1, 63320, Control_c, 0, 64, 74
1, 63331, Note_off_c, 0, 91, 61
1, 63335, Control_c, 0, 64, 84
1, 63349, Control_c, 0, 64, 92
1, 63355, Note_off_c, 0, 79, 61
1, 63364, Control_c, 0, 64, 98
1, 63379, Control_c, 0, 64, 105
1, 63393, Control_c, 0, 64, 112
1, 63408, Control_c, 0, 64, 121
1, 63423, Note_off_c, 0, 67, 59
1, 63423, Control_c, 0, 64, 127
1, 63426, Note_off_c, 0, 63, 63
1, 63579, Note_on_c, 0, 83, 82
1, 63588, Note_on_c, 0, 71, 74
1, 63592, Note_on_c, 0, 67, 66
1, 63601, Control_c, 0, 64, 124
1, 63603, Note_on_c, 0, 64, 60
1, 63616, Control_c, 0, 64, 92
1, 63631, Control_c, 0, 64, 68
1, 63646, Control_c, 0, 64, 0
1, 63690, Control_c, 0, 64, 65
1, 63704, Control_c, 0, 64, 79
1, 63719, Control_c, 0, 64, 91
1, 63730, Note_off_c, 0, 71, 57
1, 63733, Control_c, 0, 64, 99
1, 63745, Note_off_c, 0, 83, 59
1, 63748, Control_c, 0, 64, 105
1, 63763, Control_c, 0, 64, 114
1, 63777, Control_c, 0, 64, 126
1, 63792, Control_c, 0, 64, 127
1, 63842, Note_off_c, 0, 67, 58
1, 63862, Note_off_c, 0, 64, 61
1, 63863, Note_on_c, 0, 84, 88
1, 63869, Note_on_c, 0, 72, 76
1, 63894, Note_off_c, 0, 72, 67
1, 63932, Note_off_c, 0, 84, 64
1, 64198, Note_on_c, 0, 92, 89
1, 64201, Control_c, 0, 64, 121
1, 64202, Note_on_c, 0, 68, 58
1, 64207, Note_on_c, 0, 80, 78
1, 64215, Control_c, 0, 64, 98
1, 64216, Note_on_c, 0, 65, 49
1, 64230, Control_c, 0, 64, 78
1, 64245, Control_c, 0, 64, 10
1, 64260, Control_c, 0, 64, 0
1, 64290, Control_c, 0, 64, 53
1, 64305, Control_c, 0, 64, 71
1, 64320, Control_c, 0, 64, 81
1, 64335, Control_c, 0, 64, 88
1, 64344, Note_off_c, 0, 92, 66
1, 64345, Note_off_c, 0, 68, 62
1, 64350, Control_c, 0, 64, 92
1, 64358, Note_off_c, 0, 80, 59
1, 64364, Control_c, 0, 64, 96
1, 64379, Control_c, 0, 64, 101
1, 64394, Control_c, 0, 64, 106
1, 64408, Control_c, 0, 64, 111
1, 64418, Note_off_c, 0, 65, 55
1, 64423, Control_c, 0, 64, 115
1, 64438, Control_c, 0, 64, 117
1, 64453, Control_c, 0, 64, 118
1, 64468, Control_c, 0, 64, 120
1, 64482, Control_c, 0, 64, 122
1, 64497, Control_c, 0, 64, 122
1, 64527, Control_c, 0, 64, 122
1, 64541, Control_c, 0, 64, 117
1, 64550, Note_on_c, 0, 88, 70
1, 64556, Control_c, 0, 64, 107
1, 64564, Note_on_c, 0, 76, 56
1, 64567, Note_on_c, 0, 70, 46
1, 64571, Control_c, 0, 64, 88
1, 64575, Note_on_c, 0, 67, 52
1, 64586, Control_c, 0, 64, 70
1, 64601, Control_c, 0, 64, 0
1, 64645, Control_c, 0, 64, 49
1, 64660, Control_c, 0, 64, 71
1, 64675, Control_c, 0, 64, 80
1, 64689, Control_c, 0, 64, 87
1, 64704, Control_c, 0, 64, 90
1, 64709, Note_off_c, 0, 88, 59
1, 64719, Control_c, 0, 64, 94
1, 64734, Control_c, 0, 64, 100
1, 64747, Note_off_c, 0, 67, 59
1, 64750, Control_c, 0, 64, 107
1, 64753, Note_off_c, 0, 76, 34
1, 64765, Note_off_c, 0, 70, 53
1, 64765, Control_c, 0, 64, 114
1, 64787, Control_c, 0, 64, 121
1, 64802, Control_c, 0, 64, 127
1, 64920, Control_c, 0, 64, 110
1, 64933, Note_on_c, 0, 89, 74
1, 64935, Control_c, 0, 64, 94
1, 64937, Note_on_c, 0, 68, 64
1, 64946, Note_on_c, 0, 77, 56
1, 64950, Control_c, 0, 64, 74
1, 64964, Control_c, 0, 64, 0
1, 65009, Control_c, 0, 64, 51
1, 65024, Control_c, 0, 64, 70
1, 65035, Note_off_c, 0, 68, 61
1, 65038, Control_c, 0, 64, 78
1, 65053, Control_c, 0, 64, 84
1, 65068, Control_c, 0, 64, 87
1, 65083, Control_c, 0, 64, 90
1, 65088, Note_off_c, 0, 89, 63
1, 65098, Control_c, 0, 64, 94
1, 65113, Control_c, 0, 64, 97
1, 65128, Control_c, 0, 64, 101
1, 65139, Note_off_c, 0, 77, 37
1, 65143, Control_c, 0, 64, 104
1, 65157, Control_c, 0, 64, 105
1, 65172, Control_c, 0, 64, 106
1, 65187, Control_c, 0, 64, 107
1, 65202, Control_c, 0, 64, 107
1, 65217, Control_c, 0, 64, 108
1, 65231, Control_c, 0, 64, 108
1, 65245, Note_on_c, 0, 64, 53
1, 65335, Control_c, 0, 64, 106
1, 65350, Control_c, 0, 64, 101
1, 65364, Control_c, 0, 64, 94
1, 65379, Control_c, 0, 64, 85
1, 65394, Control_c, 0, 64, 76
1, 65409, Control_c, 0, 64, 66
1, 65424, Control_c, 0, 64, 0
1, 65567, Note_on_c, 0, 61, 63
1, 65574, Note_on_c, 0, 65, 61
1, 65602, Note_off_c, 0, 64, 56
1, 65787, Control_c, 0, 64, 60
1, 65802, Control_c, 0, 64, 65
1, 65816, Note_off_c, 0, 65, 55
1, 65817, Control_c, 0, 64, 68
1, 65832, Control_c, 0, 64, 70
1, 65847, Control_c, 0, 64, 72
1, 65861, Control_c, 0, 64, 75
1, 65876, Control_c, 0, 64, 78
1, 65891, Control_c, 0, 64, 80
1, 65893, Note_on_c, 0, 58, 54
1, 65906, Control_c, 0, 64, 82
1, 65921, Control_c, 0, 64, 84
1, 65935, Control_c, 0, 64, 85
1, 65950, Control_c, 0, 64, 86
1, 65965, Control_c, 0, 64, 87
1, 65980, Control_c, 0, 64, 88
1, 65980, Note_off_c, 0, 61, 37
1, 66025, Control_c, 0, 64, 88
1, 66143, Control_c, 0, 64, 87
1, 66158, Control_c, 0, 64, 86
1, 66166, Note_on_c, 0, 59, 63
1, 66173, Note_on_c, 0, 56, 61
1, 66173, Control_c, 0, 64, 82
1, 66187, Control_c, 0, 64, 75
1, 66198, Note_off_c, 0, 58, 57
1, 66202, Control_c, 0, 64, 60
1, 66217, Control_c, 0, 64, 0
1, 66328, Control_c, 0, 64, 46
1, 66343, Control_c, 0, 64, 64
1, 66351, Note_off_c, 0, 59, 62
1, 66359, Control_c, 0, 64, 67
1, 66374, Control_c, 0, 64, 68
1, 66389, Control_c, 0, 64, 70
1, 66403, Control_c, 0, 64, 72
1, 66418, Control_c, 0, 64, 75
1, 66433, Control_c, 0, 64, 77
1, 66448, Control_c, 0, 64, 79
1, 66462, Note_on_c, 0, 54, 51
1, 66463, Control_c, 0, 64, 80
1, 66477, Control_c, 0, 64, 81
1, 66492, Control_c, 0, 64, 81
1, 66499, Note_off_c, 0, 56, 34
1, 66507, Control_c, 0, 64, 82
1, 66537, Control_c, 0, 64, 83
1, 66670, Control_c, 0, 64, 82
1, 66699, Control_c, 0, 64, 81
1, 66714, Control_c, 0, 64, 79
1, 66728, Control_c, 0, 64, 76
1, 66743, Control_c, 0, 64, 70
1, 66758, Control_c, 0, 64, 60
1, 66760, Note_off_c, 0, 54, 55
1, 66768, Note_on_c, 0, 51, 53
1, 66772, Note_on_c, 0, 55, 47
1, 66773, Control_c, 0, 64, 0
1, 66977, Note_off_c, 0, 55, 52
1, 67079, Note_on_c, 0, 47, 54
1, 67125, Note_off_c, 0, 51, 54
1, 67388, Note_on_c, 0, 48, 53
1, 67390, Note_on_c, 0, 44, 50
1, 67448, Note_off_c, 0, 47, 36
1, 67703, Note_on_c, 0, 42, 50
1, 67720, Note_off_c, 0, 44, 50
1, 67759, Note_off_c, 0, 48, 26
1, 68060, Note_on_c, 0, 43, 41
1, 68069, Note_off_c, 0, 42, 47
1, 68475, Note_off_c, 0, 43, 43
1, 68488, Note_on_c, 0, 36, 20
1, 68756, Note_off_c, 0, 36, 48
1, 69146, Note_on_c, 0, 87, 89
1, 69148, Note_on_c, 0, 48, 95
1, 69149, Note_on_c, 0, 75, 95
1, 69150, Note_on_c, 0, 79, 85
1, 69152, Note_on_c, 0, 43, 87
1, 69153, Control_c, 0, 64, 64
1, 69155, Note_on_c, 0, 39, 75
1, 69156, Note_on_c, 0, 36, 74
1, 69158, Note_on_c, 0, 84, 79
1, 69168, Control_c, 0, 64, 74
1, 69183, Control_c, 0, 64, 84
1, 69191, Note_off_c, 0, 75, 67
1, 69195, Note_off_c, 0, 36, 65
1, 69197, Control_c, 0, 64, 91
1, 69198, Note_off_c, 0, 48, 66
1, 69203, Note_off_c, 0, 87, 63
1, 69206, Note_off_c, 0, 43, 61
1, 69209, Note_off_c, 0, 79, 60
1, 69212, Control_c, 0, 64, 95
1, 69220, Note_off_c, 0, 39, 60
1, 69220, Note_off_c, 0, 84, 65
1, 69227, Control_c, 0, 64, 98
1, 69242, Control_c, 0, 64, 102
1, 69255, Note_on_c, 0, 87, 84
1, 69256, Note_on_c, 0, 75, 90
1, 69257, Control_c, 0, 64, 109
1, 69258, Note_on_c, 0, 48, 89
1, 69259, Note_on_c, 0, 79, 80
1, 69260, Note_on_c, 0, 43, 80
1, 69262, Note_on_c, 0, 84, 67
1, 69268, Note_on_c, 0, 39, 54
1, 69279, Control_c, 0, 64, 114
1, 69280, Note_on_c, 0, 36, 67
1, 69294, Control_c, 0, 64, 117
1, 69304, Note_off_c, 0, 75, 64
1, 69309, Control_c, 0, 64, 117
1, 69314, Note_off_c, 0, 48, 66
1, 69319, Note_off_c, 0, 87, 63
1, 69322, Note_off_c, 0, 36, 63
1, 69323, Note_off_c, 0, 79, 59
1, 69323, Control_c, 0, 64, 118
1, 69325, Note_off_c, 0, 43, 60
1, 69333, Note_off_c, 0, 84, 61
1, 69338, Control_c, 0, 64, 118
1, 69352, Note_off_c, 0, 39, 0
1, 69353, Control_c, 0, 64, 119
1, 69369, Note_on_c, 0, 75, 94
1, 69369, Note_on_c, 0, 43, 65
1, 69370, Note_on_c, 0, 48, 78
1, 69370, Note_on_c, 0, 84, 67
1, 69375, Note_on_c, 0, 79, 70
1, 69385, Note_on_c, 0, 87, 69
1, 69390, Poly_aftertouch_c, 0, 39, 127
1, 69393, Note_on_c, 0, 36, 66
1, 69399, Note_on_c, 0, 39, 3
1, 69411, Note_off_c, 0, 87, 64
1, 69414, Note_off_c, 0, 75, 63
1, 69417, Note_off_c, 0, 48, 66
1, 69420, Note_off_c, 0, 36, 65
1, 69432, Note_off_c, 0, 43, 60
1, 69438, Note_off_c, 0, 79, 61
1, 69439, Note_off_c, 0, 84, 64
1, 69465, Note_off_c, 0, 39, 0
1, 69471, Note_on_c, 0, 48, 94
1, 69473, Note_on_c, 0, 43, 77
1, 69473, Note_on_c, 0, 75, 96
1, 69473, Poly_aftertouch_c, 0, 79, 0
1, 69475, Note_on_c, 0, 87, 100
1, 69476, Note_on_c, 0, 39, 65
1, 69478, Note_on_c, 0, 79, 70
1, 69478, Note_on_c, 0, 84, 67
1, 69482, Note_on_c, 0, 36, 85
1, 69507, Note_off_c, 0, 84, 67
1, 69507, Note_off_c, 0, 87, 65
1, 69510, Note_off_c, 0, 36, 66
1, 69513, Note_off_c, 0, 79, 63
1, 69516, Note_off_c, 0, 75, 63
1, 69517, Note_off_c, 0, 43, 64
1, 69521, Note_off_c, 0, 48, 67
1, 69529, Note_off_c, 0, 39, 62
1, 69621, Control_c, 0, 64, 119
1, 69622, Note_on_c, 0, 60, 72
1, 69626, Note_on_c, 0, 55, 74
1, 69645, Note_off_c, 0, 60, 68
1, 69650, Control_c, 0, 64, 119
1, 69652, Note_off_c, 0, 55, 67
1, 69665, Control_c, 0, 64, 118
1, 69680, Control_c, 0, 64, 114
1, 69695, Control_c, 0, 64, 108
1, 69709, Control_c, 0, 64, 99
1, 69724, Note_on_c, 0, 63, 80
1, 69724, Control_c, 0, 64, 88
1, 69739, Control_c, 0, 64, 73
1, 69745, Note_on_c, 0, 51, 70
1, 69754, Control_c, 0, 64, 51
1, 69755, Note_off_c, 0, 63, 65
1, 69769, Control_c, 0, 64, 0
1, 69773, Note_off_c, 0, 51, 65
1, 69826, Note_on_c, 0, 48, 82
1, 69826, Note_on_c, 0, 67, 88
1, 69873, Note_off_c, 0, 67, 62
1, 69876, Note_off_c, 0, 48, 60
1, 69939, Note_on_c, 0, 63, 74
1, 69941, Note_on_c, 0, 51, 69
1, 69965, Note_off_c, 0, 63, 68
1, 69975, Note_off_c, 0, 51, 60
1, 70035, Note_on_c, 0, 67, 75
1, 70051, Note_on_c, 0, 48, 68
1, 70078, Note_off_c, 0, 67, 63
1, 70082, Note_off_c, 0, 48, 66
1, 70141, Note_on_c, 0, 47, 89
1, 70150, Note_on_c, 0, 62, 83
1, 70188, Note_off_c, 0, 62, 63
1, 70192, Note_off_c, 0, 47, 64
1, 70258, Note_on_c, 0, 67, 76
1, 70261, Note_on_c, 0, 59, 61
1, 70284, Note_off_c, 0, 67, 66
1, 70290, Note_off_c, 0, 59, 64
1, 70358, Note_on_c, 0, 62, 76
1, 70366, Note_on_c, 0, 55, 63
1, 70390, Note_off_c, 0, 55, 68
1, 70393, Note_off_c, 0, 62, 64
1, 70456, Note_on_c, 0, 50, 80
1, 70465, Note_on_c, 0, 71, 86
1, 70508, Note_off_c, 0, 50, 61
1, 70517, Note_off_c, 0, 71, 59
1, 70571, Note_on_c, 0, 55, 68
1, 70571, Note_on_c, 0, 67, 77
1, 70598, Note_off_c, 0, 55, 67
1, 70600, Note_off_c, 0, 67, 64
1, 70664, Note_on_c, 0, 71, 73
1, 70680, Note_on_c, 0, 50, 65
1, 70705, Note_off_c, 0, 71, 61
1, 70716, Note_off_c, 0, 50, 64
1, 70778, Note_on_c, 0, 59, 77
1, 70778, Note_on_c, 0, 67, 85
1, 70820, Note_off_c, 0, 67, 62
1, 70828, Note_off_c, 0, 59, 62
1, 70884, Note_on_c, 0, 55, 74
1, 70885, Note_on_c, 0, 74, 66
1, 70919, Note_off_c, 0, 55, 63
1, 70928, Note_off_c, 0, 74, 57
1, 70991, Note_on_c, 0, 67, 69
1, 70998, Note_on_c, 0, 59, 63
1, 71035, Note_off_c, 0, 59, 61
1, 71035, Note_off_c, 0, 67, 61
1, 71094, Note_on_c, 0, 58, 74
1, 71098, Note_on_c, 0, 64, 77
1, 71129, Note_off_c, 0, 58, 64
1, 71135, Note_off_c, 0, 64, 64
1, 71202, Note_on_c, 0, 67, 71
1, 71209, Note_on_c, 0, 55, 65
1, 71245, Note_off_c, 0, 67, 62
1, 71267, Note_off_c, 0, 55, 60
1, 71308, Note_on_c, 0, 64, 68
1, 71313, Note_on_c, 0, 58, 69
1, 71343, Note_off_c, 0, 64, 62
1, 71355, Note_off_c, 0, 58, 58
1, 71405, Note_on_c, 0, 73, 74
1, 71410, Note_on_c, 0, 55, 72
1, 71453, Note_off_c, 0, 73, 61
1, 71456, Note_off_c, 0, 55, 66
1, 71521, Note_on_c, 0, 67, 75
1, 71525, Note_on_c, 0, 52, 68
1, 71554, Note_off_c, 0, 67, 64
1, 71556, Note_off_c, 0, 52, 69
1, 71624, Note_on_c, 0, 73, 75
1, 71631, Note_on_c, 0, 55, 71
1, 71672, Note_off_c, 0, 55, 59
1, 71672, Note_off_c, 0, 73, 61
1, 71721, Note_on_c, 0, 52, 79
1, 71730, Note_on_c, 0, 67, 85
1, 71771, Note_off_c, 0, 67, 63
1, 71788, Note_off_c, 0, 52, 65
1, 71835, Note_on_c, 0, 46, 72
1, 71837, Note_on_c, 0, 76, 72
1, 71882, Note_off_c, 0, 76, 64
1, 71899, Note_off_c, 0, 46, 50
1, 71931, Note_on_c, 0, 52, 72
1, 71933, Note_on_c, 0, 67, 75
1, 71980, Note_off_c, 0, 67, 62
1, 71983, Note_off_c, 0, 52, 65
1, 72046, Note_on_c, 0, 65, 83
1, 72046, Note_on_c, 0, 57, 74
1, 72087, Note_off_c, 0, 65, 65
1, 72090, Note_off_c, 0, 57, 55
1, 72136, Note_on_c, 0, 53, 71
1, 72148, Note_on_c, 0, 69, 78
1, 72183, Note_off_c, 0, 53, 66
1, 72194, Note_off_c, 0, 69, 63
1, 72251, Note_on_c, 0, 57, 67
1, 72256, Note_on_c, 0, 65, 79
1, 72294, Note_off_c, 0, 57, 61
1, 72297, Note_off_c, 0, 65, 67
1, 72360, Note_on_c, 0, 53, 71
1, 72368, Note_on_c, 0, 72, 85
1, 72407, Note_off_c, 0, 53, 66
1, 72419, Note_off_c, 0, 72, 61
1, 72464, Note_on_c, 0, 48, 67
1, 72472, Note_on_c, 0, 69, 83
1, 72508, Note_off_c, 0, 69, 66
1, 72512, Note_off_c, 0, 48, 63
1, 72562, Note_on_c, 0, 53, 77
1, 72575, Note_on_c, 0, 72, 77
1, 72600, Note_off_c, 0, 53, 66
1, 72619, Note_off_c, 0, 72, 61
1, 72666, Note_on_c, 0, 48, 76
1, 72678, Note_on_c, 0, 69, 89
1, 72720, Note_off_c, 0, 48, 63
1, 72726, Note_off_c, 0, 69, 64
1, 72780, Note_on_c, 0, 77, 72
1, 72789, Note_on_c, 0, 45, 70
1, 72828, Note_off_c, 0, 45, 62
1, 72829, Note_off_c, 0, 77, 57
1, 72884, Note_on_c, 0, 48, 73
1, 72888, Note_on_c, 0, 69, 79
1, 72917, Note_off_c, 0, 48, 67
1, 72928, Note_off_c, 0, 69, 62
1, 73001, Note_on_c, 0, 66, 80
1, 73006, Note_on_c, 0, 56, 74
1, 73051, Note_off_c, 0, 66, 63
1, 73061, Note_off_c, 0, 56, 56
1, 73111, Note_on_c, 0, 72, 70
1, 73111, Note_on_c, 0, 51, 69
1, 73159, Note_off_c, 0, 51, 57
1, 73161, Note_off_c, 0, 72, 61
1, 73213, Note_on_c, 0, 56, 72
1, 73215, Note_on_c, 0, 66, 82
1, 73244, Note_off_c, 0, 56, 66
1, 73261, Note_off_c, 0, 66, 65
1, 73313, Note_on_c, 0, 48, 77
1, 73334, Note_on_c, 0, 74, 59
1, 73358, Note_off_c, 0, 74, 67
1, 73364, Note_off_c, 0, 48, 65
1, 73415, Note_on_c, 0, 66, 73
1, 73418, Note_on_c, 0, 51, 77
1, 73442, Note_off_c, 0, 66, 68
1, 73479, Note_off_c, 0, 51, 63
1, 73513, Note_on_c, 0, 75, 71
1, 73525, Note_on_c, 0, 48, 78
1, 73548, Note_off_c, 0, 75, 61
1, 73589, Note_off_c, 0, 48, 64
1, 73626, Note_on_c, 0, 72, 74
1, 73628, Note_on_c, 0, 51, 82
1, 73665, Note_off_c, 0, 72, 65
1, 73693, Note_off_c, 0, 51, 57
1, 73722, Note_on_c, 0, 48, 71
1, 73723, Note_on_c, 0, 78, 78
1, 73805, Note_off_c, 0, 78, 60
1, 73831, Note_on_c, 0, 44, 75
1, 73832, Note_off_c, 0, 48, 54
1, 73835, Note_on_c, 0, 72, 71
1, 73874, Note_off_c, 0, 72, 65
1, 73879, Note_off_c, 0, 44, 61
1, 73945, Note_on_c, 0, 43, 83
1, 73945, Note_on_c, 0, 79, 81
1, 73992, Note_off_c, 0, 43, 60
1, 73994, Note_off_c, 0, 79, 60
1, 74044, Note_on_c, 0, 55, 76
1, 74054, Note_on_c, 0, 71, 68
1, 74086, Note_off_c, 0, 71, 60
1, 74097, Note_off_c, 0, 55, 62
1, 74139, Note_on_c, 0, 53, 83
1, 74146, Note_on_c, 0, 80, 81
1, 74186, Note_off_c, 0, 53, 60
1, 74209, Note_off_c, 0, 80, 60
1, 74251, Note_on_c, 0, 74, 80
1, 74253, Note_on_c, 0, 56, 80
1, 74294, Note_off_c, 0, 74, 65
1, 74298, Note_off_c, 0, 56, 66
1, 74351, Note_on_c, 0, 83, 83
1, 74353, Note_on_c, 0, 50, 77
1, 74394, Note_off_c, 0, 83, 62
1, 74412, Note_off_c, 0, 50, 62
1, 74446, Note_on_c, 0, 77, 83
1, 74452, Note_on_c, 0, 53, 85
1, 74486, Note_off_c, 0, 77, 63
1, 74494, Note_off_c, 0, 53, 66
1, 74556, Note_on_c, 0, 86, 84
1, 74560, Note_on_c, 0, 47, 84
1, 74610, Note_off_c, 0, 86, 62
1, 74614, Note_off_c, 0, 47, 64
1, 74653, Note_on_c, 0, 80, 85
1, 74661, Note_on_c, 0, 50, 84
1, 74691, Note_off_c, 0, 80, 65
1, 74729, Note_off_c, 0, 50, 63
1, 74766, Note_on_c, 0, 89, 88
1, 74767, Note_on_c, 0, 44, 84
1, 74824, Note_off_c, 0, 44, 63
1, 74830, Note_off_c, 0, 89, 65
1, 74885, Note_on_c, 0, 43, 90
1, 74895, Note_on_c, 0, 83, 88
1, 74938, Note_off_c, 0, 43, 63
1, 74940, Note_off_c, 0, 83, 65
1, 75002, Note_on_c, 0, 53, 87
1, 75003, Note_on_c, 0, 92, 89
1, 75047, Note_off_c, 0, 53, 65
1, 75054, Note_off_c, 0, 92, 65
1, 75108, Note_on_c, 0, 55, 80
1, 75122, Note_on_c, 0, 91, 88
1, 75152, Note_off_c, 0, 55, 66
1, 75167, Note_off_c, 0, 91, 59
1, 75216, Note_on_c, 0, 56, 79
1, 75228, Note_on_c, 0, 89, 83
1, 75281, Note_off_c, 0, 89, 63
1, 75287, Note_off_c, 0, 56, 61
1, 75328, Note_on_c, 0, 59, 76
1, 75341, Note_on_c, 0, 86, 70
1, 75366, Note_off_c, 0, 86, 68
1, 75369, Note_off_c, 0, 59, 63
1, 75430, Note_on_c, 0, 60, 79
1, 75445, Note_on_c, 0, 87, 66
1, 75464, Note_off_c, 0, 60, 63
1, 75464, Note_off_c, 0, 87, 66
1, 75537, Note_on_c, 0, 53, 80
1, 75551, Note_on_c, 0, 80, 83
1, 75582, Note_off_c, 0, 53, 65
1, 75601, Note_off_c, 0, 80, 55
1, 75645, Note_on_c, 0, 56, 78
1, 75653, Note_on_c, 0, 77, 81
1, 75690, Note_off_c, 0, 56, 62
1, 75697, Note_off_c, 0, 77, 61
1, 75750, Note_on_c, 0, 79, 84
1, 75766, Note_on_c, 0, 55, 73
1, 75798, Note_off_c, 0, 55, 65
1, 75825, Note_off_c, 0, 79, 54
1, 75859, Note_on_c, 0, 72, 78
1, 75868, Note_on_c, 0, 48, 82
1, 75907, Note_off_c, 0, 48, 68
1, 75913, Note_off_c, 0, 72, 65
1, 75980, Note_on_c, 0, 51, 80
1, 76044, Note_off_c, 0, 51, 61
1, 76096, Note_on_c, 0, 47, 88
1, 76140, Note_off_c, 0, 47, 64
1, 76218, Note_on_c, 0, 48, 90
1, 76267, Note_off_c, 0, 48, 67
1, 76351, Note_on_c, 0, 39, 82
1, 76407, Note_off_c, 0, 39, 62
1, 76484, Note_on_c, 0, 43, 91
1, 76509, Note_off_c, 0, 43, 68
1, 76679, Note_on_c, 0, 36, 86
1, 77024, Note_off_c, 0, 36, 62
1, 77738, Control_c, 0, 64, 34
1, 77753, Control_c, 0, 64, 56
1, 77767, Control_c, 0, 64, 62
1, 77782, Control_c, 0, 64, 64
1, 77797, Control_c, 0, 64, 66
1, 77812, Control_c, 0, 64, 69
1, 77827, Control_c, 0, 64, 72
1, 77841, Control_c, 0, 64, 76
1, 77856, Control_c, 0, 64, 79
1, 77871, Control_c, 0, 64, 82
1, 77886, Control_c, 0, 64, 84
1, 77901, Control_c, 0, 64, 86
1, 77903, Note_on_c, 0, 36, 32
1, 77916, Control_c, 0, 64, 89
1, 77931, Control_c, 0, 64, 93
1, 77946, Control_c, 0, 64, 96
1, 77960, Control_c, 0, 64, 99
1, 77975, Control_c, 0, 64, 103
1, 77990, Control_c, 0, 64, 106
1, 77996, Note_off_c, 0, 36, 53
1, 78005, Control_c, 0, 64, 109
1, 78020, Control_c, 0, 64, 112
1, 78035, Control_c, 0, 64, 115
1, 78050, Control_c, 0, 64, 118
1, 78065, Control_c, 0, 64, 121
1, 78080, Control_c, 0, 64, 124
1, 78094, Control_c, 0, 64, 127
1, 78217, Note_on_c, 0, 48, 22
1, 78233, Poly_aftertouch_c, 0, 51, 127
1, 78390, Poly_aftertouch_c, 0, 51, 0
1, 78394, Note_off_c, 0, 48, 44
1, 78445, Note_on_c, 0, 55, 25
1, 78449, Note_on_c, 0, 79, 47
1, 78476, Note_on_c, 0, 43, 16
1, 78493, Note_on_c, 0, 67, 20
1, 78562, Note_off_c, 0, 79, 53
1, 78619, Note_off_c, 0, 43, 34
1, 78620, Note_on_c, 0, 48, 39
1, 78620, Note_off_c, 0, 55, 40
1, 78633, Note_on_c, 0, 51, 17
1, 78644, Note_off_c, 0, 67, 39
1, 78775, Note_on_c, 0, 77, 62
1, 78783, Note_off_c, 0, 51, 41
1, 78786, Note_off_c, 0, 48, 43
1, 78810, Note_on_c, 0, 43, 30
1, 78825, Note_on_c, 0, 65, 24
1, 78831, Note_on_c, 0, 55, 26
1, 78866, Note_off_c, 0, 65, 50
1, 78876, Note_off_c, 0, 77, 59
1, 78937, Note_on_c, 0, 48, 36
1, 78938, Note_on_c, 0, 51, 25
1, 78938, Note_off_c, 0, 43, 42
1, 78951, Note_off_c, 0, 55, 41
1, 79058, Note_on_c, 0, 75, 64
1, 79087, Note_off_c, 0, 48, 38
1, 79088, Note_on_c, 0, 63, 35
1, 79090, Note_on_c, 0, 43, 34
1, 79093, Note_off_c, 0, 51, 38
1, 79100, Note_on_c, 0, 55, 37
1, 79126, Note_off_c, 0, 63, 47
1, 79159, Note_off_c, 0, 75, 58
1, 79219, Note_on_c, 0, 51, 33
1, 79224, Note_on_c, 0, 48, 39
1, 79236, Note_off_c, 0, 43, 37
1, 79248, Note_off_c, 0, 55, 41
1, 79339, Control_c, 0, 64, 122
1, 79353, Note_on_c, 0, 74, 55
1, 79354, Control_c, 0, 64, 108
1, 79369, Control_c, 0, 64, 94
1, 79377, Note_on_c, 0, 43, 31
1, 79381, Note_off_c, 0, 48, 35
1, 79381, Note_off_c, 0, 51, 39
1, 79384, Control_c, 0, 64, 79
1, 79385, Note_on_c, 0, 62, 38
1, 79389, Note_on_c, 0, 55, 39
1, 79399, Control_c, 0, 64, 65
1, 79413, Control_c, 0, 64, 0
1, 79443, Control_c, 0, 64, 64
1, 79458, Control_c, 0, 64, 71
1, 79466, Note_off_c, 0, 74, 56
1, 79473, Control_c, 0, 64, 77
1, 79487, Control_c, 0, 64, 80
1, 79502, Control_c, 0, 64, 83
1, 79513, Note_on_c, 0, 48, 45
1, 79513, Note_on_c, 0, 51, 38
1, 79517, Control_c, 0, 64, 86
1, 79528, Note_off_c, 0, 43, 43
1, 79530, Note_off_c, 0, 62, 40
1, 79531, Control_c, 0, 64, 90
1, 79539, Note_off_c, 0, 55, 43
1, 79546, Control_c, 0, 64, 94
1, 79561, Control_c, 0, 64, 98
1, 79576, Control_c, 0, 64, 101
1, 79591, Control_c, 0, 64, 103
1, 79606, Control_c, 0, 64, 104
1, 79651, Control_c, 0, 64, 104
1, 79653, Note_on_c, 0, 72, 51
1, 79661, Note_on_c, 0, 60, 44
1, 79662, Note_on_c, 0, 43, 36
1, 79666, Control_c, 0, 64, 100
1, 79672, Note_off_c, 0, 48, 35
1, 79673, Note_off_c, 0, 51, 35
1, 79675, Note_on_c, 0, 55, 36
1, 79680, Control_c, 0, 64, 90
1, 79695, Control_c, 0, 64, 73
1, 79710, Control_c, 0, 64, 47
1, 79724, Control_c, 0, 64, 0
1, 79730, Note_off_c, 0, 60, 35
1, 79739, Control_c, 0, 64, 53
1, 79761, Control_c, 0, 64, 68
1, 79776, Control_c, 0, 64, 75
1, 79791, Control_c, 0, 64, 83
1, 79806, Control_c, 0, 64, 88
1, 79812, Note_on_c, 0, 48, 50
1, 79815, Note_off_c, 0, 55, 59
1, 79816, Note_on_c, 0, 51, 30
1, 79821, Control_c, 0, 64, 92
1, 79835, Control_c, 0, 64, 98
1, 79849, Note_off_c, 0, 51, 55
1, 79850, Control_c, 0, 64, 104
1, 79856, Note_off_c, 0, 48, 64
1, 79865, Control_c, 0, 64, 112
1, 79880, Control_c, 0, 64, 119
1, 79885, Note_off_c, 0, 72, 39
1, 79893, Note_off_c, 0, 43, 40
1, 79895, Control_c, 0, 64, 124
1, 79910, Control_c, 0, 64, 125
1, 79940, Control_c, 0, 64, 122
1, 79955, Control_c, 0, 64, 109
1, 79970, Control_c, 0, 64, 91
1, 79984, Control_c, 0, 64, 68
1, 79999, Control_c, 0, 64, 0
1, 80005, Note_on_c, 0, 43, 50
1, 80012, Note_on_c, 0, 31, 57
1, 80044, Control_c, 0, 64, 69
1, 80059, Control_c, 0, 64, 80
1, 80068, Note_off_c, 0, 31, 62
1, 80074, Control_c, 0, 64, 93
1, 80083, Note_off_c, 0, 43, 56
1, 80088, Control_c, 0, 64, 97
1, 80103, Control_c, 0, 64, 101
1, 80118, Control_c, 0, 64, 106
1, 80133, Control_c, 0, 64, 112
1, 80148, Control_c, 0, 64, 120
1, 80162, Control_c, 0, 64, 127
1, 80226, Note_on_c, 0, 47, 45
1, 80226, Note_on_c, 0, 50, 32
1, 80306, Note_off_c, 0, 47, 53
1, 80318, Note_off_c, 0, 50, 32
1, 80363, Note_on_c, 0, 86, 63
1, 80386, Note_on_c, 0, 74, 38
1, 80388, Note_on_c, 0, 43, 22
1, 80443, Note_on_c, 0, 55, 4
1, 80494, Note_off_c, 0, 86, 55
1, 80513, Note_off_c, 0, 55, 43
1, 80525, Note_off_c, 0, 43, 41
1, 80526, Note_on_c, 0, 47, 42
1, 80539, Note_off_c, 0, 74, 43
1, 80548, Note_on_c, 0, 50, 18
1, 80651, Note_off_c, 0, 47, 54
1, 80664, Note_on_c, 0, 84, 75
1, 80679, Note_on_c, 0, 43, 40
1, 80679, Note_off_c, 0, 50, 41
1, 80684, Note_on_c, 0, 72, 55
1, 80719, Note_on_c, 0, 55, 29
1, 80794, Note_off_c, 0, 72, 28
1, 80807, Note_off_c, 0, 43, 0
1, 80815, Note_off_c, 0, 84, 57
1, 80818, Note_on_c, 0, 47, 42
1, 80821, Note_on_c, 0, 50, 38
1, 80836, Poly_aftertouch_c, 0, 43, 0
1, 80842, Note_off_c, 0, 55, 42
1, 80953, Note_on_c, 0, 83, 72
1, 80970, Note_on_c, 0, 71, 52
1, 80971, Note_on_c, 0, 43, 37
1, 80977, Note_off_c, 0, 50, 40
1, 80979, Note_off_c, 0, 47, 38
1, 80986, Note_on_c, 0, 55, 35
1, 81052, Note_off_c, 0, 71, 51
1, 81062, Note_off_c, 0, 83, 56
1, 81101, Note_on_c, 0, 47, 42
1, 81109, Note_on_c, 0, 50, 40
1, 81117, Note_off_c, 0, 43, 36
1, 81130, Note_off_c, 0, 55, 44
1, 81239, Note_on_c, 0, 81, 68
1, 81260, Control_c, 0, 64, 108
1, 81261, Note_off_c, 0, 50, 52
1, 81265, Note_on_c, 0, 69, 55
1, 81266, Note_on_c, 0, 43, 37
1, 81275, Control_c, 0, 64, 91
1, 81275, Note_off_c, 0, 47, 41
1, 81283, Note_on_c, 0, 55, 37
1, 81290, Control_c, 0, 64, 76
1, 81305, Control_c, 0, 64, 63
1, 81319, Control_c, 0, 64, 46
1, 81334, Control_c, 0, 64, 64
1, 81349, Control_c, 0, 64, 71
1, 81364, Control_c, 0, 64, 77
1, 81378, Note_off_c, 0, 81, 56
1, 81379, Control_c, 0, 64, 82
1, 81393, Control_c, 0, 64, 85
1, 81397, Note_on_c, 0, 47, 40
1, 81400, Note_off_c, 0, 69, 59
1, 81403, Note_on_c, 0, 50, 42
1, 81408, Control_c, 0, 64, 88
1, 81411, Note_off_c, 0, 43, 35
1, 81423, Control_c, 0, 64, 92
1, 81425, Note_off_c, 0, 55, 44
1, 81437, Control_c, 0, 64, 98
1, 81452, Control_c, 0, 64, 103
1, 81467, Control_c, 0, 64, 108
1, 81482, Control_c, 0, 64, 111
1, 81497, Control_c, 0, 64, 113
1, 81527, Control_c, 0, 64, 113
1, 81541, Note_on_c, 0, 67, 51
1, 81543, Note_on_c, 0, 79, 57
1, 81544, Note_off_c, 0, 50, 48
1, 81555, Note_on_c, 0, 43, 35
1, 81558, Note_off_c, 0, 47, 41
1, 81564, Note_on_c, 0, 55, 40
1, 81631, Control_c, 0, 64, 114
1, 81680, Note_on_c, 0, 47, 45
1, 81689, Note_off_c, 0, 67, 37
1, 81690, Control_c, 0, 64, 114
1, 81693, Note_on_c, 0, 50, 29
1, 81698, Note_off_c, 0, 55, 50
1, 81705, Control_c, 0, 64, 115
1, 81716, Note_off_c, 0, 79, 34
1, 81720, Control_c, 0, 64, 115
1, 81728, Note_off_c, 0, 47, 64
1, 81735, Note_off_c, 0, 50, 40
1, 81746, Note_off_c, 0, 43, 42
1, 81794, Control_c, 0, 64, 111
1, 81809, Control_c, 0, 64, 98
1, 81824, Control_c, 0, 64, 79
1, 81839, Control_c, 0, 64, 36
1, 81851, Note_on_c, 0, 36, 57
1, 81853, Control_c, 0, 64, 0
1, 81860, Note_on_c, 0, 48, 48
1, 81892, Note_off_c, 0, 36, 61
1, 81898, Control_c, 0, 64, 67
1, 81913, Control_c, 0, 64, 78
1, 81920, Note_off_c, 0, 48, 60
1, 81927, Control_c, 0, 64, 88
1, 81942, Control_c, 0, 64, 94
1, 81957, Control_c, 0, 64, 97
1, 81972, Control_c, 0, 64, 102
1, 81987, Control_c, 0, 64, 108
1, 82009, Control_c, 0, 64, 115
1, 82023, Control_c, 0, 64, 124
1, 82038, Control_c, 0, 64, 127
1, 82044, Note_on_c, 0, 46, 41
1, 82049, Note_on_c, 0, 48, 38
1, 82131, Note_off_c, 0, 48, 50
1, 82154, Note_off_c, 0, 46, 37
1, 82157, Note_on_c, 0, 85, 68
1, 82173, Note_on_c, 0, 73, 58
1, 82183, Note_on_c, 0, 43, 42
1, 82211, Note_on_c, 0, 52, 27
1, 82280, Note_off_c, 0, 52, 54
1, 82292, Note_on_c, 0, 46, 41
1, 82301, Note_on_c, 0, 48, 37
1, 82312, Note_off_c, 0, 85, 63
1, 82317, Note_off_c, 0, 73, 55
1, 82342, Note_off_c, 0, 43, 38
1, 82446, Note_off_c, 0, 46, 41
1, 82450, Note_off_c, 0, 48, 42
1, 82452, Note_on_c, 0, 84, 75
1, 82456, Note_on_c, 0, 43, 45
1, 82471, Note_on_c, 0, 52, 46
1, 82472, Note_on_c, 0, 72, 53
1, 82528, Note_off_c, 0, 72, 62
1, 82560, Note_off_c, 0, 84, 63
1, 82573, Note_on_c, 0, 48, 42
1, 82582, Note_off_c, 0, 43, 0
1, 82590, Note_on_c, 0, 46, 38
1, 82606, Note_off_c, 0, 52, 50
1, 82617, Poly_aftertouch_c, 0, 43, 0
1, 82710, Note_off_c, 0, 46, 56
1, 82719, Note_on_c, 0, 82, 80
1, 82732, Note_on_c, 0, 43, 49
1, 82733, Note_off_c, 0, 48, 40
1, 82736, Note_on_c, 0, 70, 64
1, 82754, Note_on_c, 0, 52, 54
1, 82793, Note_off_c, 0, 70, 45
1, 82849, Note_off_c, 0, 82, 62
1, 82861, Note_off_c, 0, 43, 49
1, 82870, Note_on_c, 0, 46, 44
1, 82875, Note_off_c, 0, 52, 55
1, 82878, Note_on_c, 0, 48, 33
1, 83004, Note_off_c, 0, 46, 53
1, 83010, Control_c, 0, 64, 117
1, 83013, Note_on_c, 0, 81, 70
1, 83025, Control_c, 0, 64, 96
1, 83027, Note_on_c, 0, 69, 59
1, 83028, Note_on_c, 0, 43, 44
1, 83034, Note_on_c, 0, 52, 50
1, 83038, Note_off_c, 0, 48, 37
1, 83040, Control_c, 0, 64, 75
1, 83055, Control_c, 0, 64, 50
1, 83070, Control_c, 0, 64, 0
1, 83084, Control_c, 0, 64, 56
1, 83099, Control_c, 0, 64, 69
1, 83114, Control_c, 0, 64, 77
1, 83115, Note_off_c, 0, 81, 53
1, 83129, Control_c, 0, 64, 84
1, 83144, Control_c, 0, 64, 88
1, 83159, Note_on_c, 0, 46, 43
1, 83159, Control_c, 0, 64, 92
1, 83162, Note_on_c, 0, 48, 42
1, 83169, Note_off_c, 0, 43, 37
1, 83174, Control_c, 0, 64, 96
1, 83188, Control_c, 0, 64, 102
1, 83189, Note_off_c, 0, 69, 36
1, 83190, Note_off_c, 0, 52, 38
1, 83203, Control_c, 0, 64, 108
1, 83218, Control_c, 0, 64, 113
1, 83233, Control_c, 0, 64, 118
1, 83248, Control_c, 0, 64, 121
1, 83262, Control_c, 0, 64, 122
1, 83306, Note_on_c, 0, 79, 57
1, 83306, Control_c, 0, 64, 119
1, 83309, Note_on_c, 0, 52, 50
1, 83316, Note_off_c, 0, 48, 38
1, 83320, Note_on_c, 0, 67, 40
1, 83320, Note_on_c, 0, 43, 39
1, 83321, Control_c, 0, 64, 106
1, 83325, Note_off_c, 0, 46, 36
1, 83336, Control_c, 0, 64, 87
1, 83351, Control_c, 0, 64, 70
1, 83366, Control_c, 0, 64, 0
1, 83395, Control_c, 0, 64, 64
1, 83410, Control_c, 0, 64, 77
1, 83416, Note_off_c, 0, 67, 34
1, 83422, Note_on_c, 0, 46, 52
1, 83425, Control_c, 0, 64, 92
1, 83440, Control_c, 0, 64, 102
1, 83441, Note_off_c, 0, 52, 60
1, 83452, Note_on_c, 0, 48, 23
1, 83454, Control_c, 0, 64, 109
1, 83458, Note_off_c, 0, 79, 33
1, 83469, Control_c, 0, 64, 119
1, 83478, Note_off_c, 0, 46, 62
1, 83484, Control_c, 0, 64, 127
1, 83491, Note_off_c, 0, 48, 54
1, 83510, Note_off_c, 0, 43, 41
1, 83566, Control_c, 0, 64, 119
1, 83580, Control_c, 0, 64, 93
1, 83595, Control_c, 0, 64, 69
1, 83610, Control_c, 0, 64, 0
1, 83632, Note_on_c, 0, 29, 64
1, 83640, Control_c, 0, 64, 56
1, 83654, Control_c, 0, 64, 76
1, 83669, Control_c, 0, 64, 90
1, 83684, Control_c, 0, 64, 103
1, 83686, Note_off_c, 0, 29, 61
1, 83699, Control_c, 0, 64, 108
1, 83714, Control_c, 0, 64, 112
1, 83728, Control_c, 0, 64, 118
1, 83743, Control_c, 0, 64, 127
1, 83818, Note_on_c, 0, 48, 50
1, 83831, Note_on_c, 0, 45, 44
1, 83884, Note_off_c, 0, 48, 42
1, 83892, Note_off_c, 0, 45, 57
1, 83939, Note_on_c, 0, 84, 66
1, 83960, Note_on_c, 0, 72, 53
1, 83962, Note_on_c, 0, 41, 47
1, 83988, Note_on_c, 0, 53, 30
1, 84000, Note_off_c, 0, 72, 50
1, 84033, Note_off_c, 0, 84, 62
1, 84077, Note_off_c, 0, 41, 0
1, 84098, Note_on_c, 0, 48, 29
1, 84101, Note_off_c, 0, 53, 41
1, 84101, Poly_aftertouch_c, 0, 41, 0
1, 84104, Note_on_c, 0, 45, 36
1, 84241, Note_on_c, 0, 82, 76
1, 84243, Note_on_c, 0, 41, 43
1, 84266, Note_on_c, 0, 70, 59
1, 84266, Note_off_c, 0, 48, 49
1, 84267, Note_off_c, 0, 45, 34
1, 84297, Note_on_c, 0, 53, 35
1, 84384, Note_off_c, 0, 70, 0
1, 84384, Note_on_c, 0, 70, 10
1, 84398, Note_on_c, 0, 45, 41
1, 84398, Note_on_c, 0, 48, 42
1, 84413, Note_off_c, 0, 41, 42
1, 84423, Note_off_c, 0, 82, 63
1, 84425, Note_off_c, 0, 53, 36
1, 84427, Note_off_c, 0, 70, 55
1, 84532, Note_on_c, 0, 81, 79
1, 84534, Note_off_c, 0, 48, 60
1, 84537, Note_off_c, 0, 45, 57
1, 84554, Note_on_c, 0, 69, 60
1, 84567, Note_on_c, 0, 41, 45
1, 84567, Note_on_c, 0, 53, 43
1, 84626, Note_off_c, 0, 69, 48
1, 84639, Note_off_c, 0, 81, 56
1, 84682, Note_on_c, 0, 48, 46
1, 84686, Note_on_c, 0, 45, 40
1, 84691, Note_off_c, 0, 53, 52
1, 84706, Note_off_c, 0, 41, 34
1, 84814, Note_off_c, 0, 45, 56
1, 84823, Note_on_c, 0, 79, 72
1, 84833, Note_on_c, 0, 67, 59
1, 84834, Control_c, 0, 64, 104
1, 84837, Note_on_c, 0, 41, 45
1, 84849, Control_c, 0, 64, 86
1, 84852, Note_off_c, 0, 48, 39
1, 84858, Note_on_c, 0, 53, 41
1, 84864, Control_c, 0, 64, 67
1, 84879, Control_c, 0, 64, 0
1, 84909, Control_c, 0, 64, 57
1, 84924, Control_c, 0, 64, 71
1, 84939, Control_c, 0, 64, 81
1, 84952, Note_off_c, 0, 41, 59
1, 84953, Control_c, 0, 64, 88
1, 84956, Note_off_c, 0, 79, 50
1, 84966, Note_on_c, 0, 48, 48
1, 84968, Control_c, 0, 64, 92
1, 84979, Note_on_c, 0, 45, 41
1, 84983, Control_c, 0, 64, 96
1, 84985, Note_off_c, 0, 67, 54
1, 85005, Control_c, 0, 64, 102
1, 85010, Note_off_c, 0, 53, 41
1, 85020, Control_c, 0, 64, 110
1, 85034, Control_c, 0, 64, 119
1, 85049, Control_c, 0, 64, 127
1, 85127, Note_on_c, 0, 77, 63
1, 85127, Note_off_c, 0, 48, 59
1, 85143, Note_on_c, 0, 65, 51
1, 85147, Note_on_c, 0, 53, 47
1, 85151, Note_on_c, 0, 41, 51
1, 85154, Note_off_c, 0, 45, 39
1, 85168, Control_c, 0, 64, 106
1, 85183, Control_c, 0, 64, 86
1, 85198, Control_c, 0, 64, 67
1, 85213, Control_c, 0, 64, 0
1, 85242, Control_c, 0, 64, 65
1, 85257, Control_c, 0, 64, 78
1, 85271, Note_on_c, 0, 45, 47
1, 85271, Control_c, 0, 64, 91
1, 85282, Note_on_c, 0, 48, 43
1, 85286, Control_c, 0, 64, 101
1, 85290, Note_off_c, 0, 41, 35
1, 85296, Note_off_c, 0, 53, 52
1, 85301, Control_c, 0, 64, 109
1, 85316, Control_c, 0, 64, 122
1, 85317, Note_off_c, 0, 48, 65
1, 85317, Note_off_c, 0, 65, 22
1, 85331, Control_c, 0, 64, 127
1, 85338, Note_off_c, 0, 45, 64
1, 85400, Note_off_c, 0, 77, 31
1, 85405, Control_c, 0, 64, 108
1, 85420, Control_c, 0, 64, 85
1, 85434, Control_c, 0, 64, 57
1, 85449, Control_c, 0, 64, 0
1, 85451, Note_on_c, 0, 38, 59
1, 85478, Control_c, 0, 64, 65
1, 85493, Control_c, 0, 64, 79
1, 85502, Note_off_c, 0, 38, 63
1, 85508, Control_c, 0, 64, 93
1, 85524, Control_c, 0, 64, 103
1, 85539, Control_c, 0, 64, 107
1, 85554, Control_c, 0, 64, 114
1, 85569, Control_c, 0, 64, 125
1, 85583, Control_c, 0, 64, 127
1, 85622, Note_on_c, 0, 50, 43
1, 85636, Note_on_c, 0, 48, 39
1, 85669, Note_off_c, 0, 50, 44
1, 85680, Note_off_c, 0, 48, 46
1, 85768, Note_on_c, 0, 87, 72
1, 85794, Note_on_c, 0, 75, 46
1, 85798, Note_on_c, 0, 54, 46
1, 85835, Note_on_c, 0, 45, 39
1, 85900, Note_off_c, 0, 45, 57
1, 85921, Note_off_c, 0, 87, 62
1, 85924, Note_off_c, 0, 75, 58
1, 85938, Note_on_c, 0, 50, 37
1, 85948, Note_on_c, 0, 48, 41
1, 85964, Note_off_c, 0, 54, 35
1, 86060, Note_on_c, 0, 86, 79
1, 86074, Note_on_c, 0, 74, 62
1, 86085, Note_on_c, 0, 54, 47
1, 86090, Note_off_c, 0, 50, 43
1, 86099, Note_on_c, 0, 45, 41
1, 86101, Note_off_c, 0, 48, 35
1, 86188, Note_off_c, 0, 45, 57
1, 86190, Note_off_c, 0, 86, 59
1, 86200, Note_off_c, 0, 74, 59
1, 86210, Note_on_c, 0, 50, 42
1, 86216, Note_on_c, 0, 48, 54
1, 86216, Note_off_c, 0, 54, 52
1, 86343, Note_off_c, 0, 48, 59
1, 86346, Note_on_c, 0, 84, 80
1, 86358, Note_on_c, 0, 72, 64
1, 86369, Note_off_c, 0, 50, 50
1, 86370, Note_on_c, 0, 54, 47
1, 86388, Note_on_c, 0, 45, 37
1, 86458, Note_off_c, 0, 84, 59
1, 86467, Note_off_c, 0, 45, 56
1, 86468, Note_off_c, 0, 72, 57
1, 86501, Note_off_c, 0, 54, 56
1, 86505, Note_on_c, 0, 50, 39
1, 86513, Note_on_c, 0, 48, 39
1, 86631, Note_off_c, 0, 48, 52
1, 86632, Note_on_c, 0, 83, 79
1, 86647, Note_on_c, 0, 71, 68
1, 86651, Note_on_c, 0, 54, 55
1, 86655, Note_off_c, 0, 50, 40
1, 86664, Note_on_c, 0, 45, 49
1, 86725, Note_off_c, 0, 83, 54
1, 86754, Note_off_c, 0, 45, 57
1, 86766, Note_off_c, 0, 54, 56
1, 86776, Note_on_c, 0, 48, 52
1, 86781, Note_off_c, 0, 71, 34
1, 86785, Note_on_c, 0, 50, 42
1, 86899, Note_on_c, 0, 81, 87
1, 86899, Note_off_c, 0, 48, 61
1, 86908, Note_on_c, 0, 69, 76
1, 86909, Note_off_c, 0, 50, 51
1, 86921, Note_on_c, 0, 54, 54
1, 86922, Note_on_c, 0, 45, 47
1, 86954, Note_off_c, 0, 69, 56
1, 87008, Note_off_c, 0, 81, 54
1, 87012, Note_off_c, 0, 45, 62
1, 87045, Note_on_c, 0, 48, 48
1, 87064, Note_on_c, 0, 50, 43
1, 87073, Note_off_c, 0, 54, 55
1, 87150, Note_off_c, 0, 48, 37
1, 87185, Control_c, 0, 64, 111
1, 87198, Note_off_c, 0, 50, 34
1, 87200, Control_c, 0, 64, 92
1, 87215, Note_on_c, 0, 83, 83
1, 87215, Control_c, 0, 64, 72
1, 87222, Note_on_c, 0, 43, 56
1, 87226, Note_on_c, 0, 71, 71
1, 87229, Control_c, 0, 64, 0
1, 87235, Note_on_c, 0, 55, 47
1, 87296, Control_c, 0, 64, 64
1, 87311, Control_c, 0, 64, 75
1, 87326, Control_c, 0, 64, 85
1, 87339, Note_off_c, 0, 71, 56
1, 87341, Control_c, 0, 64, 93
1, 87354, Note_off_c, 0, 43, 55
1, 87355, Control_c, 0, 64, 99
1, 87370, Control_c, 0, 64, 104
1, 87385, Control_c, 0, 64, 110
1, 87386, Note_off_c, 0, 83, 62
1, 87391, Note_on_c, 0, 47, 53
1, 87395, Note_on_c, 0, 50, 28
1, 87400, Control_c, 0, 64, 117
1, 87415, Control_c, 0, 64, 125
1, 87425, Note_off_c, 0, 55, 50
1, 87429, Control_c, 0, 64, 127
1, 87609, Note_off_c, 0, 47, 32
1, 87628, Note_on_c, 0, 92, 88
1, 87630, Note_off_c, 0, 50, 37
1, 87641, Note_on_c, 0, 41, 49
1, 87642, Note_on_c, 0, 80, 74
1, 87642, Note_on_c, 0, 53, 47
1, 87681, Control_c, 0, 64, 108
1, 87696, Control_c, 0, 64, 91
1, 87711, Control_c, 0, 64, 73
1, 87726, Control_c, 0, 64, 0
1, 87783, Note_off_c, 0, 53, 50
1, 87785, Control_c, 0, 64, 65
1, 87797, Note_on_c, 0, 47, 42
1, 87797, Note_on_c, 0, 50, 28
1, 87800, Control_c, 0, 64, 73
1, 87815, Note_off_c, 0, 41, 44
1, 87815, Control_c, 0, 64, 78
1, 87830, Control_c, 0, 64, 83
1, 87845, Control_c, 0, 64, 86
1, 87860, Control_c, 0, 64, 91
1, 87874, Control_c, 0, 64, 95
1, 87889, Control_c, 0, 64, 100
1, 87904, Control_c, 0, 64, 104
1, 87920, Control_c, 0, 64, 107
1, 87935, Control_c, 0, 64, 109
1, 87949, Control_c, 0, 64, 110
1, 87964, Control_c, 0, 64, 112
1, 87976, Note_on_c, 0, 53, 40
1, 87979, Control_c, 0, 64, 113
1, 87982, Note_off_c, 0, 47, 45
1, 87986, Note_on_c, 0, 41, 42
1, 88001, Note_off_c, 0, 50, 36
1, 88001, Control_c, 0, 64, 114
1, 88016, Control_c, 0, 64, 115
1, 88031, Control_c, 0, 64, 116
1, 88045, Control_c, 0, 64, 116
1, 88049, Note_off_c, 0, 92, 61
1, 88060, Control_c, 0, 64, 117
1, 88067, Note_off_c, 0, 80, 52
1, 88090, Control_c, 0, 64, 117
1, 88119, Control_c, 0, 64, 118
1, 88120, Note_on_c, 0, 47, 45
1, 88122, Note_off_c, 0, 53, 60
1, 88134, Control_c, 0, 64, 119
1, 88145, Note_off_c, 0, 41, 45
1, 88149, Control_c, 0, 64, 119
1, 88155, Note_on_c, 0, 50, 24
1, 88239, Control_c, 0, 64, 116
1, 88253, Control_c, 0, 64, 106
1, 88268, Control_c, 0, 64, 90
1, 88274, Note_on_c, 0, 91, 67
1, 88283, Control_c, 0, 64, 73
1, 88289, Note_on_c, 0, 79, 53
1, 88296, Note_off_c, 0, 47, 50
1, 88297, Control_c, 0, 64, 0
1, 88298, Note_off_c, 0, 50, 42
1, 88313, Note_on_c, 0, 55, 33
1, 88326, Note_on_c, 0, 43, 28
1, 88342, Control_c, 0, 64, 63
1, 88357, Control_c, 0, 64, 74
1, 88371, Control_c, 0, 64, 82
1, 88386, Control_c, 0, 64, 88
1, 88401, Control_c, 0, 64, 93
1, 88410, Note_off_c, 0, 91, 49
1, 88416, Control_c, 0, 64, 98
1, 88429, Control_c, 0, 64, 103
1, 88432, Note_on_c, 0, 50, 42
1, 88441, Note_on_c, 0, 47, 31
1, 88444, Control_c, 0, 64, 110
1, 88455, Note_off_c, 0, 43, 39
1, 88459, Control_c, 0, 64, 116
1, 88462, Note_off_c, 0, 79, 36
1, 88472, Note_off_c, 0, 55, 41
1, 88474, Control_c, 0, 64, 121
1, 88489, Control_c, 0, 64, 127
1, 88544, Note_off_c, 0, 47, 33
1, 88594, Note_off_c, 0, 50, 39
1, 88597, Note_on_c, 0, 89, 67
1, 88608, Control_c, 0, 64, 114
1, 88615, Note_on_c, 0, 56, 53
1, 88618, Note_on_c, 0, 77, 51
1, 88622, Control_c, 0, 64, 96
1, 88628, Note_on_c, 0, 44, 43
1, 88637, Control_c, 0, 64, 79
1, 88652, Control_c, 0, 64, 62
1, 88667, Control_c, 0, 64, 0
1, 88696, Control_c, 0, 64, 68
1, 88711, Control_c, 0, 64, 78
1, 88724, Note_off_c, 0, 44, 58
1, 88727, Control_c, 0, 64, 88
1, 88731, Note_off_c, 0, 56, 56
1, 88749, Control_c, 0, 64, 95
1, 88751, Note_off_c, 0, 89, 62
1, 88757, Note_on_c, 0, 50, 41
1, 88764, Control_c, 0, 64, 99
1, 88779, Control_c, 0, 64, 105
1, 88780, Note_on_c, 0, 47, 43
1, 88794, Note_off_c, 0, 77, 38
1, 88794, Control_c, 0, 64, 113
1, 88808, Control_c, 0, 64, 124
1, 88823, Control_c, 0, 64, 127
1, 88838, Note_off_c, 0, 50, 53
1, 88844, Note_off_c, 0, 47, 54
1, 88896, Note_on_c, 0, 91, 69
1, 88903, Note_on_c, 0, 43, 48
1, 88909, Note_on_c, 0, 55, 45
1, 88911, Note_on_c, 0, 79, 56
1, 88912, Control_c, 0, 64, 111
1, 88927, Control_c, 0, 64, 92
1, 88942, Control_c, 0, 64, 74
1, 88957, Control_c, 0, 64, 33
1, 88972, Control_c, 0, 64, 0
1, 88985, Note_off_c, 0, 43, 57
1, 88987, Control_c, 0, 64, 58
1, 88996, Note_off_c, 0, 79, 56
1, 89001, Control_c, 0, 64, 72
1, 89003, Note_off_c, 0, 91, 57
1, 89016, Control_c, 0, 64, 83
1, 89019, Note_on_c, 0, 50, 33
1, 89023, Note_on_c, 0, 47, 33
1, 89031, Control_c, 0, 64, 93
1, 89045, Control_c, 0, 64, 97
1, 89046, Note_off_c, 0, 55, 34
1, 89060, Control_c, 0, 64, 100
1, 89075, Control_c, 0, 64, 106
1, 89090, Control_c, 0, 64, 114
1, 89105, Control_c, 0, 64, 123
1, 89119, Control_c, 0, 64, 127
1, 89178, Control_c, 0, 64, 122
1, 89186, Note_on_c, 0, 92, 71
1, 89190, Note_on_c, 0, 41, 53
1, 89192, Control_c, 0, 64, 105
1, 89195, Note_on_c, 0, 80, 58
1, 89203, Note_on_c, 0, 53, 44
1, 89207, Control_c, 0, 64, 87
1, 89222, Control_c, 0, 64, 70
1, 89225, Note_off_c, 0, 50, 38
1, 89234, Note_off_c, 0, 47, 42
1, 89237, Control_c, 0, 64, 0
1, 89267, Control_c, 0, 64, 66
1, 89282, Control_c, 0, 64, 77
1, 89297, Control_c, 0, 64, 89
1, 89312, Control_c, 0, 64, 98
1, 89321, Note_off_c, 0, 41, 49
1, 89326, Control_c, 0, 64, 102
1, 89339, Note_on_c, 0, 47, 37
1, 89341, Control_c, 0, 64, 107
1, 89342, Note_off_c, 0, 53, 53
1, 89355, Note_off_c, 0, 80, 60
1, 89356, Note_off_c, 0, 92, 63
1, 89356, Control_c, 0, 64, 114
1, 89371, Control_c, 0, 64, 124
1, 89386, Control_c, 0, 64, 127
1, 89397, Poly_aftertouch_c, 0, 50, 127
1, 89453, Poly_aftertouch_c, 0, 50, 0
1, 89459, Control_c, 0, 64, 113
1, 89467, Note_on_c, 0, 91, 70
1, 89474, Control_c, 0, 64, 92
1, 89477, Note_on_c, 0, 79, 57
1, 89478, Note_off_c, 0, 47, 44
1, 89481, Note_on_c, 0, 43, 46
1, 89481, Note_on_c, 0, 55, 51
1, 89497, Control_c, 0, 64, 72
1, 89511, Control_c, 0, 64, 0
1, 89533, Note_off_c, 0, 79, 0
1, 89542, Control_c, 0, 64, 42
1, 89556, Control_c, 0, 64, 72
1, 89570, Poly_aftertouch_c, 0, 79, 127
1, 89571, Control_c, 0, 64, 85
1, 89586, Control_c, 0, 64, 97
1, 89596, Note_off_c, 0, 55, 59
1, 89599, Note_off_c, 0, 91, 46
1, 89601, Control_c, 0, 64, 102
1, 89604, Note_on_c, 0, 50, 46
1, 89610, Note_off_c, 0, 43, 41
1, 89615, Note_on_c, 0, 47, 34
1, 89616, Control_c, 0, 64, 105
1, 89631, Control_c, 0, 64, 110
1, 89640, Poly_aftertouch_c, 0, 79, 0
1, 89646, Control_c, 0, 64, 121
1, 89660, Control_c, 0, 64, 127
1, 89736, Note_off_c, 0, 47, 38
1, 89749, Control_c, 0, 64, 109
1, 89754, Note_on_c, 0, 89, 65
1, 89756, Note_on_c, 0, 44, 54
1, 89758, Note_off_c, 0, 50, 35
1, 89762, Note_on_c, 0, 77, 62
1, 89764, Control_c, 0, 64, 89
1, 89765, Note_on_c, 0, 56, 55
1, 89779, Control_c, 0, 64, 70
1, 89794, Control_c, 0, 64, 0
1, 89809, Control_c, 0, 64, 30
1, 89823, Control_c, 0, 64, 66
1, 89830, Note_off_c, 0, 56, 62
1, 89835, Note_off_c, 0, 89, 64
1, 89838, Control_c, 0, 64, 78
1, 89842, Note_off_c, 0, 77, 60
1, 89853, Control_c, 0, 64, 89
1, 89854, Note_off_c, 0, 44, 61
1, 89867, Control_c, 0, 64, 97
1, 89881, Note_on_c, 0, 50, 51
1, 89882, Control_c, 0, 64, 100
1, 89897, Control_c, 0, 64, 105
1, 89912, Control_c, 0, 64, 113
1, 89927, Control_c, 0, 64, 125
1, 89936, Note_off_c, 0, 50, 53
1, 89941, Control_c, 0, 64, 127
1, 90030, Control_c, 0, 64, 110
1, 90035, Note_on_c, 0, 92, 70
1, 90041, Note_on_c, 0, 41, 51
1, 90042, Note_on_c, 0, 80, 61
1, 90045, Control_c, 0, 64, 90
1, 90052, Note_on_c, 0, 53, 50
1, 90060, Control_c, 0, 64, 70
1, 90075, Control_c, 0, 64, 0
1, 90105, Control_c, 0, 64, 60
1, 90120, Control_c, 0, 64, 75
1, 90134, Control_c, 0, 64, 88
1, 90149, Control_c, 0, 64, 99
1, 90155, Note_off_c, 0, 41, 62
1, 90159, Note_off_c, 0, 53, 62
1, 90164, Control_c, 0, 64, 103
1, 90167, Note_on_c, 0, 47, 50
1, 90172, Note_on_c, 0, 50, 36
1, 90179, Control_c, 0, 64, 106
1, 90194, Control_c, 0, 64, 111
1, 90197, Note_off_c, 0, 92, 63
1, 90206, Note_off_c, 0, 80, 60
1, 90209, Control_c, 0, 64, 124
1, 90220, Note_off_c, 0, 50, 45
1, 90223, Control_c, 0, 64, 127
1, 90247, Note_off_c, 0, 47, 53
1, 90313, Note_on_c, 0, 43, 53
1, 90316, Note_on_c, 0, 91, 73
1, 90319, Note_on_c, 0, 55, 53
1, 90320, Control_c, 0, 64, 103
1, 90327, Note_on_c, 0, 79, 61
1, 90335, Control_c, 0, 64, 82
1, 90350, Control_c, 0, 64, 60
1, 90365, Control_c, 0, 64, 0
1, 90394, Control_c, 0, 64, 56
1, 90409, Control_c, 0, 64, 73
1, 90424, Control_c, 0, 64, 85
1, 90439, Control_c, 0, 64, 94
1, 90447, Note_off_c, 0, 91, 50
1, 90453, Control_c, 0, 64, 97
1, 90457, Note_on_c, 0, 50, 42
1, 90466, Note_off_c, 0, 55, 63
1, 90468, Control_c, 0, 64, 101
1, 90474, Note_on_c, 0, 47, 26
1, 90476, Note_off_c, 0, 43, 60
1, 90482, Note_off_c, 0, 79, 53
1, 90483, Control_c, 0, 64, 105
1, 90486, Note_off_c, 0, 50, 58
1, 90498, Control_c, 0, 64, 110
1, 90513, Control_c, 0, 64, 116
1, 90516, Note_off_c, 0, 47, 54
1, 90528, Control_c, 0, 64, 119
1, 90543, Control_c, 0, 64, 123
1, 90558, Control_c, 0, 64, 126
1, 90572, Control_c, 0, 64, 127
1, 90604, Note_on_c, 0, 89, 70
1, 90608, Note_on_c, 0, 47, 60
1, 90609, Note_on_c, 0, 59, 55
1, 90612, Note_on_c, 0, 77, 60
1, 90617, Control_c, 0, 64, 124
1, 90632, Control_c, 0, 64, 112
1, 90646, Control_c, 0, 64, 94
1, 90661, Control_c, 0, 64, 75
1, 90677, Control_c, 0, 64, 0
1, 90721, Control_c, 0, 64, 63
1, 90731, Note_off_c, 0, 89, 57
1, 90736, Control_c, 0, 64, 74
1, 90748, Note_off_c, 0, 77, 60
1, 90751, Control_c, 0, 64, 82
1, 90757, Note_on_c, 0, 55, 51
1, 90763, Note_on_c, 0, 50, 42
1, 90765, Control_c, 0, 64, 87
1, 90775, Note_off_c, 0, 59, 47
1, 90778, Note_off_c, 0, 47, 38
1, 90780, Control_c, 0, 64, 90
1, 90795, Control_c, 0, 64, 94
1, 90799, Note_off_c, 0, 55, 61
1, 90802, Note_off_c, 0, 50, 51
1, 90809, Control_c, 0, 64, 98
1, 90824, Control_c, 0, 64, 102
1, 90839, Control_c, 0, 64, 108
1, 90854, Control_c, 0, 64, 112
1, 90869, Control_c, 0, 64, 114
1, 90884, Control_c, 0, 64, 115
1, 90926, Note_on_c, 0, 87, 62
1, 90932, Note_on_c, 0, 60, 59
1, 90939, Note_on_c, 0, 75, 51
1, 90943, Control_c, 0, 64, 111
1, 90957, Control_c, 0, 64, 99
1, 90972, Control_c, 0, 64, 82
1, 90995, Control_c, 0, 64, 51
1, 91010, Control_c, 0, 64, 0
1, 91039, Control_c, 0, 64, 49
1, 91054, Control_c, 0, 64, 70
1, 91059, Note_off_c, 0, 60, 54
1, 91063, Note_off_c, 0, 87, 62
1, 91069, Control_c, 0, 64, 79
1, 91074, Note_off_c, 0, 75, 58
1, 91084, Control_c, 0, 64, 86
1, 91091, Note_on_c, 0, 48, 55
1, 91098, Control_c, 0, 64, 89
1, 91113, Control_c, 0, 64, 93
1, 91129, Control_c, 0, 64, 97
1, 91131, Note_off_c, 0, 48, 65
1, 91144, Control_c, 0, 64, 103
1, 91159, Control_c, 0, 64, 110
1, 91174, Control_c, 0, 64, 116
1, 91189, Control_c, 0, 64, 120
1, 91203, Control_c, 0, 64, 121
1, 91233, Control_c, 0, 64, 119
1, 91239, Note_on_c, 0, 86, 61
1, 91248, Control_c, 0, 64, 108
1, 91255, Note_on_c, 0, 55, 51
1, 91258, Note_on_c, 0, 74, 45
1, 91263, Control_c, 0, 64, 91
1, 91277, Control_c, 0, 64, 73
1, 91292, Control_c, 0, 64, 65
1, 91307, Control_c, 0, 64, 67
1, 91321, Control_c, 0, 64, 72
1, 91322, Note_off_c, 0, 55, 54
1, 91332, Note_off_c, 0, 86, 54
1, 91336, Control_c, 0, 64, 80
1, 91351, Control_c, 0, 64, 89
1, 91366, Note_off_c, 0, 74, 54
1, 91366, Control_c, 0, 64, 96
1, 91381, Control_c, 0, 64, 100
1, 91395, Control_c, 0, 64, 104
1, 91410, Control_c, 0, 64, 108
1, 91425, Control_c, 0, 64, 113
1, 91440, Control_c, 0, 64, 116
1, 91455, Control_c, 0, 64, 117
1, 91500, Control_c, 0, 64, 112
1, 91514, Control_c, 0, 64, 96
1, 91521, Note_on_c, 0, 84, 64
1, 91529, Control_c, 0, 64, 78
1, 91533, Note_on_c, 0, 72, 50
1, 91544, Control_c, 0, 64, 54
1, 91559, Control_c, 0, 64, 0
1, 91588, Control_c, 0, 64, 64
1, 91592, Poly_aftertouch_c, 0, 48, 127
1, 91603, Control_c, 0, 64, 74
1, 91618, Control_c, 0, 64, 84
1, 91622, Note_off_c, 0, 84, 55
1, 91633, Control_c, 0, 64, 91
1, 91639, Poly_aftertouch_c, 0, 48, 0
1, 91647, Control_c, 0, 64, 92
1, 91652, Note_on_c, 0, 36, 42
1, 91662, Control_c, 0, 64, 94
1, 91677, Note_off_c, 0, 72, 41
1, 91677, Control_c, 0, 64, 97
1, 91692, Note_off_c, 0, 36, 51
1, 91692, Control_c, 0, 64, 101
1, 91707, Control_c, 0, 64, 106
1, 91721, Control_c, 0, 64, 109
1, 91744, Control_c, 0, 64, 110
1, 91803, Control_c, 0, 64, 108
1, 91808, Note_on_c, 0, 83, 58
1, 91812, Note_on_c, 0, 71, 50
1, 91818, Control_c, 0, 64, 100
1, 91821, Note_on_c, 0, 43, 48
1, 91833, Control_c, 0, 64, 84
1, 91847, Control_c, 0, 64, 62
1, 91862, Control_c, 0, 64, 0
1, 91907, Control_c, 0, 64, 62
1, 91923, Control_c, 0, 64, 71
1, 91937, Control_c, 0, 64, 76
1, 91952, Control_c, 0, 64, 78
1, 91959, Note_on_c, 0, 31, 46
1, 91962, Note_off_c, 0, 83, 51
1, 91967, Control_c, 0, 64, 80
1, 91982, Control_c, 0, 64, 83
1, 91997, Control_c, 0, 64, 85
1, 92006, Note_off_c, 0, 71, 32
1, 92012, Control_c, 0, 64, 88
1, 92026, Control_c, 0, 64, 90
1, 92037, Note_off_c, 0, 43, 38
1, 92041, Control_c, 0, 64, 92
1, 92056, Control_c, 0, 64, 94
1, 92070, Control_c, 0, 64, 95
1, 92085, Control_c, 0, 64, 96
1, 92100, Control_c, 0, 64, 97
1, 92115, Control_c, 0, 64, 97
1, 92124, Note_off_c, 0, 31, 34
1, 92130, Control_c, 0, 64, 98
1, 92189, Control_c, 0, 64, 96
1, 92196, Note_on_c, 0, 84, 62
1, 92201, Note_on_c, 0, 72, 52
1, 92204, Control_c, 0, 64, 92
1, 92218, Control_c, 0, 64, 82
1, 92224, Note_on_c, 0, 36, 38
1, 92233, Control_c, 0, 64, 65
1, 92248, Control_c, 0, 64, 0
1, 92352, Control_c, 0, 64, 61
1, 92367, Control_c, 0, 64, 68
1, 92382, Control_c, 0, 64, 73
1, 92397, Control_c, 0, 64, 78
1, 92411, Control_c, 0, 64, 83
1, 92426, Control_c, 0, 64, 89
1, 92427, Note_off_c, 0, 84, 55
1, 92441, Control_c, 0, 64, 94
1, 92456, Control_c, 0, 64, 99
1, 92470, Control_c, 0, 64, 102
1, 92492, Control_c, 0, 64, 105
1, 92497, Note_off_c, 0, 72, 58
1, 92507, Control_c, 0, 64, 108
1, 92522, Control_c, 0, 64, 110
1, 92529, Note_off_c, 0, 36, 40
1, 92537, Control_c, 0, 64, 110
1, 92611, Control_c, 0, 64, 109
1, 92626, Control_c, 0, 64, 104
1, 92641, Control_c, 0, 64, 96
1, 92656, Control_c, 0, 64, 84
1, 92670, Control_c, 0, 64, 71
1, 92685, Control_c, 0, 64, 0
1, 92865, Note_on_c, 0, 36, 73
1, 92893, Control_c, 0, 64, 38
1, 92908, Control_c, 0, 64, 72
1, 92916, Note_off_c, 0, 36, 61
1, 92923, Control_c, 0, 64, 81
1, 92938, Control_c, 0, 64, 90
1, 92953, Control_c, 0, 64, 98
1, 92967, Control_c, 0, 64, 105
1, 92982, Control_c, 0, 64, 110
1, 92997, Control_c, 0, 64, 116
1, 93011, Note_on_c, 0, 67, 54
1, 93012, Note_on_c, 0, 63, 50
1, 93012, Control_c, 0, 64, 123
1, 93027, Control_c, 0, 64, 127
1, 93034, Note_on_c, 0, 51, 50
1, 93050, Note_on_c, 0, 48, 48
1, 93084, Note_off_c, 0, 63, 50
1, 93123, Note_off_c, 0, 51, 56
1, 93129, Note_off_c, 0, 48, 59
1, 93147, Note_on_c, 0, 72, 69
1, 93148, Note_on_c, 0, 60, 64
1, 93153, Note_off_c, 0, 67, 58
1, 93165, Note_on_c, 0, 43, 54
1, 93167, Note_on_c, 0, 55, 47
1, 93212, Note_off_c, 0, 72, 54
1, 93282, Note_on_c, 0, 63, 59
1, 93282, Note_on_c, 0, 67, 66
1, 93285, Note_on_c, 0, 51, 53
1, 93285, Note_off_c, 0, 43, 37
1, 93288, Note_off_c, 0, 60, 53
1, 93294, Note_on_c, 0, 48, 44
1, 93312, Note_off_c, 0, 55, 46
1, 93314, Note_off_c, 0, 63, 66
1, 93321, Note_off_c, 0, 51, 60
1, 93330, Note_off_c, 0, 48, 65
1, 93333, Note_off_c, 0, 67, 62
1, 93410, Note_on_c, 0, 43, 64
1, 93410, Note_on_c, 0, 55, 70
1, 93413, Note_on_c, 0, 63, 73
1, 93414, Note_on_c, 0, 75, 74
1, 93437, Note_off_c, 0, 63, 68
1, 93465, Note_off_c, 0, 75, 59
1, 93535, Note_on_c, 0, 67, 66
1, 93536, Note_on_c, 0, 72, 61
1, 93543, Note_on_c, 0, 51, 60
1, 93545, Note_off_c, 0, 43, 54
1, 93547, Note_on_c, 0, 48, 59
1, 93558, Note_off_c, 0, 55, 62
1, 93561, Note_off_c, 0, 67, 68
1, 93580, Note_off_c, 0, 51, 62
1, 93580, Note_off_c, 0, 72, 62
1, 93588, Note_off_c, 0, 48, 64
1, 93658, Note_on_c, 0, 43, 72
1, 93663, Note_on_c, 0, 79, 83
1, 93666, Note_on_c, 0, 67, 79
1, 93667, Note_on_c, 0, 55, 74
1, 93768, Note_off_c, 0, 79, 61
1, 93773, Note_on_c, 0, 75, 70
1, 93783, Note_on_c, 0, 72, 48
1, 93788, Note_on_c, 0, 51, 65
1, 93789, Note_off_c, 0, 43, 56
1, 93790, Note_on_c, 0, 48, 65
1, 93791, Note_off_c, 0, 67, 58
1, 93807, Note_off_c, 0, 72, 62
1, 93809, Note_off_c, 0, 55, 60
1, 93821, Note_off_c, 0, 51, 61
1, 93832, Note_off_c, 0, 75, 66
1, 93834, Note_off_c, 0, 48, 65
1, 93899, Note_on_c, 0, 72, 84
1, 93903, Note_on_c, 0, 43, 74
1, 93903, Note_on_c, 0, 55, 84
1, 93903, Note_on_c, 0, 84, 87
1, 93966, Note_off_c, 0, 84, 56
1, 94012, Note_on_c, 0, 79, 68
1, 94016, Note_on_c, 0, 75, 72
1, 94018, Note_off_c, 0, 43, 58
1, 94022, Note_on_c, 0, 51, 73
1, 94029, Note_on_c, 0, 48, 67
1, 94041, Note_off_c, 0, 72, 62
1, 94043, Note_off_c, 0, 55, 63
1, 94061, Note_off_c, 0, 51, 60
1, 94063, Note_off_c, 0, 48, 62
1, 94063, Note_off_c, 0, 75, 64
1, 94075, Note_off_c, 0, 79, 63
1, 94147, Note_on_c, 0, 43, 77
1, 94147, Note_on_c, 0, 55, 87
1, 94153, Note_on_c, 0, 75, 89
1, 94154, Note_on_c, 0, 87, 82
1, 94176, Note_off_c, 0, 75, 65
1, 94199, Note_off_c, 0, 87, 59
1, 94261, Note_on_c, 0, 84, 67
1, 94274, Note_on_c, 0, 48, 65
1, 94278, Note_on_c, 0, 51, 56
1, 94284, Note_off_c, 0, 55, 63
1, 94285, Note_on_c, 0, 79, 56
1, 94305, Note_off_c, 0, 51, 67
1, 94315, Note_off_c, 0, 48, 68
1, 94317, Note_off_c, 0, 79, 50
1, 94319, Note_off_c, 0, 43, 60
1, 94338, Note_off_c, 0, 84, 61
1, 94421, Control_c, 0, 64, 106
1, 94436, Control_c, 0, 64, 77
1, 94439, Note_on_c, 0, 43, 84
1, 94445, Note_on_c, 0, 31, 81
1, 94451, Control_c, 0, 64, 0
1, 94452, Note_on_c, 0, 74, 83
1, 94455, Note_on_c, 0, 86, 78
1, 94505, Note_off_c, 0, 31, 63
1, 94510, Control_c, 0, 64, 70
1, 94519, Note_off_c, 0, 43, 63
1, 94525, Control_c, 0, 64, 88
1, 94540, Control_c, 0, 64, 105
1, 94555, Control_c, 0, 64, 115
1, 94570, Control_c, 0, 64, 123
1, 94575, Note_off_c, 0, 86, 49
1, 94585, Control_c, 0, 64, 127
1, 94598, Note_on_c, 0, 79, 53
1, 94611, Note_on_c, 0, 83, 49
1, 94621, Note_on_c, 0, 50, 67
1, 94631, Note_off_c, 0, 79, 64
1, 94634, Note_on_c, 0, 47, 58
1, 94634, Note_off_c, 0, 83, 59
1, 94635, Note_off_c, 0, 74, 62
1, 94661, Note_off_c, 0, 50, 58
1, 94666, Note_off_c, 0, 47, 65
1, 94722, Note_on_c, 0, 83, 68
1, 94729, Note_on_c, 0, 55, 63
1, 94740, Note_on_c, 0, 71, 72
1, 94750, Note_on_c, 0, 43, 52
1, 94788, Note_off_c, 0, 83, 55
1, 94823, Note_off_c, 0, 43, 56
1, 94846, Note_on_c, 0, 79, 57
1, 94852, Note_on_c, 0, 50, 60
1, 94859, Note_on_c, 0, 74, 58
1, 94869, Note_on_c, 0, 47, 56
1, 94874, Note_off_c, 0, 55, 61
1, 94887, Note_off_c, 0, 74, 69
1, 94887, Note_off_c, 0, 79, 56
1, 94889, Note_off_c, 0, 71, 60
1, 94897, Note_off_c, 0, 50, 62
1, 94906, Note_off_c, 0, 47, 63
1, 94979, Note_on_c, 0, 43, 65
1, 94980, Note_on_c, 0, 67, 77
1, 94981, Note_on_c, 0, 55, 71
1, 94986, Note_on_c, 0, 79, 62
1, 95010, Note_on_c, 0, 77, 51
1, 95035, Note_off_c, 0, 77, 37
1, 95084, Note_on_c, 0, 74, 60
1, 95085, Note_off_c, 0, 43, 56
1, 95093, Note_off_c, 0, 79, 32
1, 95099, Note_on_c, 0, 71, 59
1, 95105, Note_on_c, 0, 47, 58
1, 95105, Note_on_c, 0, 50, 52
1, 95131, Note_off_c, 0, 55, 60
1, 95138, Note_off_c, 0, 71, 59
1, 95141, Note_off_c, 0, 67, 61
1, 95141, Note_off_c, 0, 74, 63
1, 95145, Note_off_c, 0, 50, 63
1, 95161, Note_off_c, 0, 47, 62
1, 95220, Note_on_c, 0, 43, 67
1, 95222, Note_on_c, 0, 74, 69
1, 95223, Note_on_c, 0, 62, 79
1, 95227, Note_on_c, 0, 55, 70
1, 95308, Note_off_c, 0, 74, 56
1, 95327, Note_on_c, 0, 71, 66
1, 95336, Note_on_c, 0, 67, 59
1, 95340, Note_off_c, 0, 43, 58
1, 95342, Note_on_c, 0, 47, 61
1, 95343, Note_on_c, 0, 50, 57
1, 95365, Note_off_c, 0, 55, 63
1, 95369, Note_off_c, 0, 67, 61
1, 95379, Note_off_c, 0, 62, 61
1, 95380, Note_off_c, 0, 71, 61
1, 95385, Note_off_c, 0, 50, 61
1, 95402, Note_off_c, 0, 47, 61
1, 95452, Note_on_c, 0, 43, 69
1, 95462, Note_on_c, 0, 55, 71
1, 95464, Note_on_c, 0, 71, 73
1, 95466, Note_on_c, 0, 59, 74
1, 95539, Note_off_c, 0, 71, 58
1, 95581, Note_on_c, 0, 47, 65
1, 95581, Note_on_c, 0, 67, 66
1, 95582, Note_off_c, 0, 43, 59
1, 95584, Note_on_c, 0, 50, 57
1, 95584, Note_on_c, 0, 62, 68
1, 95598, Note_off_c, 0, 55, 59
1, 95624, Note_off_c, 0, 62, 59
1, 95628, Note_off_c, 0, 59, 60
1, 95637, Note_off_c, 0, 67, 62
1, 95642, Note_off_c, 0, 50, 59
1, 95654, Note_off_c, 0, 47, 63
1, 95709, Note_on_c, 0, 43, 69
1, 95713, Note_on_c, 0, 55, 84
1, 95727, Note_on_c, 0, 67, 77
1, 95808, Note_off_c, 0, 67, 43
1, 95826, Note_off_c, 0, 55, 59
1, 95829, Note_on_c, 0, 62, 67
1, 95835, Note_on_c, 0, 47, 66
1, 95837, Note_on_c, 0, 50, 50
1, 95839, Note_on_c, 0, 59, 65
1, 95868, Note_off_c, 0, 50, 65
1, 95872, Note_off_c, 0, 59, 63
1, 95880, Note_off_c, 0, 43, 58
1, 95884, Note_off_c, 0, 47, 64
1, 95884, Note_off_c, 0, 62, 61
1, 95949, Control_c, 0, 64, 107
1, 95964, Control_c, 0, 64, 76
1, 95979, Control_c, 0, 64, 0
1, 95984, Note_on_c, 0, 36, 79
1, 95985, Note_on_c, 0, 48, 84
1, 96023, Control_c, 0, 64, 23
1, 96036, Note_off_c, 0, 36, 62
1, 96037, Control_c, 0, 64, 73
1, 96052, Note_off_c, 0, 48, 65
1, 96052, Control_c, 0, 64, 91
1, 96067, Control_c, 0, 64, 116
1, 96082, Control_c, 0, 64, 127
1, 96120, Note_on_c, 0, 70, 66
1, 96124, Note_on_c, 0, 48, 65
1, 96128, Note_on_c, 0, 67, 58
1, 96139, Note_on_c, 0, 46, 67
1, 96195, Note_off_c, 0, 67, 61
1, 96218, Note_off_c, 0, 48, 52
1, 96241, Note_off_c, 0, 70, 49
1, 96243, Note_off_c, 0, 46, 58
1, 96254, Note_on_c, 0, 64, 76
1, 96257, Note_on_c, 0, 52, 76
1, 96258, Note_on_c, 0, 76, 77
1, 96260, Note_on_c, 0, 43, 69
1, 96360, Note_on_c, 0, 70, 71
1, 96361, Note_on_c, 0, 67, 59
1, 96365, Note_on_c, 0, 46, 69
1, 96371, Note_on_c, 0, 48, 63
1, 96375, Note_off_c, 0, 64, 55
1, 96397, Note_off_c, 0, 43, 58
1, 96398, Note_off_c, 0, 52, 61
1, 96399, Note_off_c, 0, 67, 63
1, 96399, Note_off_c, 0, 76, 62
1, 96408, Note_off_c, 0, 48, 62
1, 96418, Note_off_c, 0, 70, 63
1, 96430, Note_off_c, 0, 46, 62
1, 96492, Note_on_c, 0, 67, 83
1, 96492, Note_on_c, 0, 79, 86
1, 96494, Note_on_c, 0, 43, 82
1, 96497, Note_on_c, 0, 52, 81
1, 96573, Note_off_c, 0, 79, 56
1, 96603, Note_on_c, 0, 70, 65
1, 96608, Note_on_c, 0, 76, 49
1, 96618, Note_on_c, 0, 48, 66
1, 96619, Note_on_c, 0, 46, 71
1, 96619, Note_off_c, 0, 67, 59
1, 96630, Note_off_c, 0, 43, 58
1, 96640, Note_off_c, 0, 70, 63
1, 96644, Note_off_c, 0, 52, 63
1, 96649, Note_off_c, 0, 48, 66
1, 96660, Note_off_c, 0, 76, 66
1, 96678, Note_off_c, 0, 46, 62
1, 96725, Note_on_c, 0, 82, 92
1, 96727, Note_on_c, 0, 70, 89
1, 96732, Note_on_c, 0, 43, 81
1, 96734, Note_on_c, 0, 52, 89
1, 96767, Note_off_c, 0, 70, 59
1, 96791, Note_off_c, 0, 82, 62
1, 96831, Note_on_c, 0, 79, 65
1, 96841, Note_on_c, 0, 76, 72
1, 96853, Note_on_c, 0, 48, 71
1, 96857, Note_on_c, 0, 46, 74
1, 96872, Note_off_c, 0, 76, 63
1, 96879, Note_off_c, 0, 52, 64
1, 96881, Note_off_c, 0, 43, 58
1, 96889, Note_off_c, 0, 48, 66
1, 96892, Note_off_c, 0, 79, 63
1, 96915, Note_off_c, 0, 46, 62
1, 96973, Note_on_c, 0, 88, 93
1, 96973, Note_on_c, 0, 52, 90
1, 96975, Note_on_c, 0, 43, 81
1, 96984, Note_on_c, 0, 76, 91
1, 97100, Note_on_c, 0, 79, 68
1, 97101, Note_on_c, 0, 82, 74
1, 97103, Note_on_c, 0, 48, 77
1, 97104, Note_on_c, 0, 46, 75
1, 97108, Note_off_c, 0, 43, 55
1, 97109, Note_off_c, 0, 88, 39
1, 97113, Note_off_c, 0, 76, 62
1, 97120, Note_off_c, 0, 52, 65
1, 97130, Note_off_c, 0, 79, 62
1, 97136, Note_off_c, 0, 48, 64
1, 97157, Note_off_c, 0, 82, 64
1, 97159, Note_off_c, 0, 46, 62
1, 97225, Note_on_c, 0, 43, 78
1, 97228, Note_on_c, 0, 52, 87
1, 97231, Note_on_c, 0, 91, 92
1, 97236, Note_on_c, 0, 79, 89
1, 97334, Note_off_c, 0, 91, 58
1, 97340, Note_on_c, 0, 88, 67
1, 97345, Note_on_c, 0, 46, 78
1, 97349, Note_on_c, 0, 82, 71
1, 97357, Note_on_c, 0, 48, 52
1, 97357, Note_off_c, 0, 52, 65
1, 97381, Note_off_c, 0, 43, 60
1, 97392, Note_off_c, 0, 48, 50
1, 97394, Note_off_c, 0, 46, 63
1, 97411, Note_off_c, 0, 79, 58
1, 97413, Note_off_c, 0, 82, 63
1, 97424, Note_off_c, 0, 88, 62
1, 97446, Control_c, 0, 64, 126
1, 97460, Control_c, 0, 64, 93
1, 97475, Control_c, 0, 64, 64
1, 97490, Control_c, 0, 64, 0
1, 97501, Note_on_c, 0, 29, 86
1, 97509, Note_on_c, 0, 89, 82
1, 97516, Note_on_c, 0, 77, 83
1, 97536, Control_c, 0, 64, 55
1, 97551, Control_c, 0, 64, 77
1, 97560, Note_off_c, 0, 29, 64
1, 97565, Control_c, 0, 64, 92
1, 97580, Control_c, 0, 64, 107
1, 97595, Control_c, 0, 64, 117
1, 97610, Note_off_c, 0, 89, 37
1, 97610, Control_c, 0, 64, 127
1, 97652, Note_on_c, 0, 81, 59
1, 97655, Note_on_c, 0, 84, 66
1, 97667, Note_on_c, 0, 48, 72
1, 97683, Note_on_c, 0, 45, 57
1, 97690, Note_off_c, 0, 84, 62
1, 97691, Note_off_c, 0, 81, 57
1, 97697, Note_off_c, 0, 48, 65
1, 97698, Note_off_c, 0, 77, 59
1, 97717, Note_off_c, 0, 45, 64
1, 97788, Note_on_c, 0, 41, 65
1, 97789, Note_on_c, 0, 53, 67
1, 97789, Note_on_c, 0, 84, 75
1, 97798, Note_on_c, 0, 72, 72
1, 97861, Note_off_c, 0, 41, 55
1, 97888, Note_off_c, 0, 84, 61
1, 97894, Note_on_c, 0, 81, 68
1, 97895, Note_on_c, 0, 77, 64
1, 97896, Note_on_c, 0, 48, 64
1, 97906, Note_on_c, 0, 45, 59
1, 97918, Note_off_c, 0, 53, 61
1, 97932, Note_off_c, 0, 77, 56
1, 97941, Note_off_c, 0, 72, 64
1, 97942, Note_off_c, 0, 48, 64
1, 97947, Note_off_c, 0, 81, 60
1, 97953, Note_off_c, 0, 45, 61
1, 98022, Note_on_c, 0, 41, 71
1, 98022, Note_on_c, 0, 81, 78
1, 98023, Note_on_c, 0, 53, 76
1, 98024, Note_on_c, 0, 69, 80
1, 98084, Note_off_c, 0, 81, 54
1, 98123, Note_off_c, 0, 41, 62
1, 98135, Note_on_c, 0, 77, 64
1, 98142, Note_on_c, 0, 48, 62
1, 98144, Note_on_c, 0, 45, 60
1, 98147, Note_on_c, 0, 72, 66
1, 98172, Note_off_c, 0, 72, 68
1, 98174, Note_off_c, 0, 53, 63
1, 98183, Note_off_c, 0, 69, 63
1, 98187, Note_off_c, 0, 48, 63
1, 98189, Note_off_c, 0, 77, 61
1, 98201, Note_off_c, 0, 45, 61
1, 98266, Note_on_c, 0, 41, 69
1, 98266, Note_on_c, 0, 65, 80
1, 98267, Note_on_c, 0, 53, 79
1, 98269, Note_on_c, 0, 77, 71
1, 98329, Note_off_c, 0, 77, 53
1, 98377, Note_on_c, 0, 69, 63
1, 98381, Note_on_c, 0, 72, 63
1, 98390, Note_on_c, 0, 48, 62
1, 98392, Note_off_c, 0, 41, 62
1, 98394, Note_on_c, 0, 45, 61
1, 98420, Note_off_c, 0, 65, 62
1, 98421, Note_off_c, 0, 53, 61
1, 98422, Note_off_c, 0, 69, 60
1, 98423, Note_off_c, 0, 72, 58
1, 98436, Note_off_c, 0, 48, 64
1, 98457, Note_off_c, 0, 45, 62
1, 98516, Note_on_c, 0, 41, 70
1, 98518, Note_on_c, 0, 60, 79
1, 98520, Note_on_c, 0, 53, 80
1, 98520, Note_on_c, 0, 72, 76
1, 98624, Note_off_c, 0, 72, 58
1, 98624, Note_off_c, 0, 41, 62
1, 98629, Note_on_c, 0, 69, 66
1, 98632, Note_on_c, 0, 48, 66
1, 98636, Note_on_c, 0, 65, 64
1, 98643, Note_on_c, 0, 45, 61
1, 98663, Note_off_c, 0, 53, 62
1, 98672, Note_off_c, 0, 60, 59
1, 98678, Note_off_c, 0, 65, 64
1, 98686, Note_off_c, 0, 69, 64
1, 98696, Note_off_c, 0, 48, 64
1, 98719, Note_off_c, 0, 45, 60
1, 98762, Note_on_c, 0, 53, 78
1, 98763, Note_on_c, 0, 41, 70
1, 98763, Note_on_c, 0, 69, 73
1, 98767, Note_on_c, 0, 57, 71
1, 98824, Note_off_c, 0, 57, 53
1, 98839, Note_off_c, 0, 69, 60
1, 98868, Note_on_c, 0, 65, 68
1, 98879, Note_on_c, 0, 60, 62
1, 98888, Note_on_c, 0, 45, 60
1, 98889, Note_on_c, 0, 48, 61
1, 98896, Note_off_c, 0, 53, 61
1, 98904, Note_off_c, 0, 60, 67
1, 98908, Note_off_c, 0, 41, 53
1, 98914, Note_off_c, 0, 48, 67
1, 98930, Note_off_c, 0, 65, 64
1, 98933, Note_off_c, 0, 45, 64
1, 98958, Control_c, 0, 64, 117
1, 98973, Control_c, 0, 64, 89
1, 98988, Control_c, 0, 64, 58
1, 99003, Control_c, 0, 64, 0
1, 99023, Note_on_c, 0, 38, 86
1, 99047, Control_c, 0, 64, 58
1, 99062, Control_c, 0, 64, 78
1, 99077, Control_c, 0, 64, 95
1, 99080, Note_off_c, 0, 38, 63
1, 99092, Control_c, 0, 64, 113
1, 99107, Control_c, 0, 64, 121
1, 99122, Control_c, 0, 64, 127
1, 99167, Note_on_c, 0, 69, 67
1, 99171, Note_on_c, 0, 66, 62
1, 99177, Note_on_c, 0, 50, 66
1, 99196, Note_on_c, 0, 48, 56
1, 99209, Note_off_c, 0, 50, 61
1, 99224, Note_off_c, 0, 48, 64
1, 99265, Note_off_c, 0, 66, 59
1, 99288, Note_off_c, 0, 69, 59
1, 99306, Note_on_c, 0, 72, 67
1, 99307, Note_on_c, 0, 60, 76
1, 99316, Note_on_c, 0, 54, 64
1, 99332, Note_on_c, 0, 45, 49
1, 99401, Note_off_c, 0, 60, 41
1, 99405, Note_off_c, 0, 45, 62
1, 99405, Note_on_c, 0, 69, 70
1, 99407, Note_off_c, 0, 72, 62
1, 99414, Note_on_c, 0, 66, 63
1, 99416, Note_off_c, 0, 54, 54
1, 99420, Note_on_c, 0, 50, 55
1, 99441, Note_off_c, 0, 69, 64
1, 99442, Note_on_c, 0, 48, 56
1, 99444, Note_off_c, 0, 66, 68
1, 99522, Note_off_c, 0, 48, 58
1, 99528, Note_off_c, 0, 50, 49
1, 99531, Note_on_c, 0, 54, 74
1, 99533, Note_on_c, 0, 66, 85
1, 99535, Note_on_c, 0, 78, 80
1, 99538, Note_on_c, 0, 45, 64
1, 99563, Note_off_c, 0, 66, 64
1, 99584, Note_off_c, 0, 78, 62
1, 99638, Note_off_c, 0, 45, 60
1, 99648, Note_on_c, 0, 50, 64
1, 99648, Note_on_c, 0, 69, 76
1, 99649, Note_on_c, 0, 72, 72
1, 99653, Note_on_c, 0, 48, 59
1, 99665, Note_off_c, 0, 54, 59
1, 99672, Note_off_c, 0, 69, 67
1, 99698, Note_off_c, 0, 72, 65
1, 99754, Note_off_c, 0, 48, 62
1, 99760, Note_off_c, 0, 50, 60
1, 99766, Note_on_c, 0, 45, 68
1, 99769, Note_on_c, 0, 54, 82
1, 99775, Note_on_c, 0, 81, 92
1, 99777, Note_on_c, 0, 69, 83
1, 99881, Note_on_c, 0, 78, 72
1, 99882, Note_off_c, 0, 45, 59
1, 99895, Note_on_c, 0, 50, 56
1, 99899, Note_on_c, 0, 48, 63
1, 99903, Note_off_c, 0, 69, 58
1, 99905, Note_on_c, 0, 72, 43
1, 99908, Note_off_c, 0, 54, 59
1, 99922, Note_off_c, 0, 81, 47
1, 99926, Note_on_c, 0, 74, 14
1, 99935, Note_off_c, 0, 72, 49
1, 99951, Note_off_c, 0, 78, 63
1, 99965, Note_off_c, 0, 74, 42
1, 100013, Note_off_c, 0, 48, 63
1, 100016, Note_on_c, 0, 45, 72
1, 100026, Note_on_c, 0, 54, 80
1, 100031, Note_on_c, 0, 84, 79
1, 100040, Note_on_c, 0, 72, 66
1, 100047, Note_off_c, 0, 50, 35
1, 100052, Note_on_c, 0, 74, 58
1, 100060, Note_on_c, 0, 86, 36
1, 100061, Note_off_c, 0, 86, 127
1, 100077, Note_off_c, 0, 74, 52
1, 100133, Note_off_c, 0, 84, 58
1, 100135, Note_on_c, 0, 81, 65
1, 100138, Note_off_c, 0, 45, 62
1, 100147, Note_off_c, 0, 72, 29
1, 100150, Note_on_c, 0, 78, 68
1, 100150, Note_on_c, 0, 48, 69
1, 100153, Note_on_c, 0, 50, 65
1, 100162, Note_off_c, 0, 54, 58
1, 100194, Note_off_c, 0, 81, 62
1, 100196, Note_off_c, 0, 78, 62
1, 100274, Note_on_c, 0, 90, 85
1, 100276, Note_on_c, 0, 54, 78
1, 100278, Note_on_c, 0, 45, 66
1, 100278, Note_on_c, 0, 78, 95
1, 100278, Note_off_c, 0, 48, 52
1, 100314, Note_off_c, 0, 50, 35
1, 100315, Note_off_c, 0, 78, 64
1, 100327, Note_off_c, 0, 90, 62
1, 100381, Note_off_c, 0, 45, 62
1, 100400, Note_on_c, 0, 81, 73
1, 100401, Note_on_c, 0, 84, 67
1, 100402, Note_on_c, 0, 48, 68
1, 100407, Note_off_c, 0, 54, 58
1, 100413, Note_on_c, 0, 50, 50
1, 100436, Note_off_c, 0, 81, 58
1, 100463, Note_off_c, 0, 84, 63
1, 100508, Note_off_c, 0, 48, 59
1, 100550, Note_off_c, 0, 50, 37
1, 100565, Note_on_c, 0, 91, 93
1, 100568, Note_on_c, 0, 55, 74
1, 100568, Note_on_c, 0, 79, 95
1, 100570, Note_on_c, 0, 43, 73
1, 100604, Control_c, 0, 64, 96
1, 100619, Control_c, 0, 64, 70
1, 100634, Control_c, 0, 64, 0
1, 100678, Control_c, 0, 64, 52
1, 100690, Note_off_c, 0, 91, 54
1, 100693, Control_c, 0, 64, 73
1, 100703, Note_on_c, 0, 86, 54
1, 100709, Control_c, 0, 64, 84
1, 100711, Note_on_c, 0, 50, 54
1, 100712, Note_off_c, 0, 43, 56
1, 100715, Note_on_c, 0, 47, 63
1, 100719, Note_on_c, 0, 83, 49
1, 100732, Control_c, 0, 64, 94
1, 100746, Control_c, 0, 64, 100
1, 100755, Note_off_c, 0, 79, 55
1, 100761, Control_c, 0, 64, 106
1, 100776, Control_c, 0, 64, 114
1, 100778, Note_off_c, 0, 55, 57
1, 100791, Control_c, 0, 64, 127
1, 100881, Note_off_c, 0, 83, 54
1, 100916, Note_on_c, 0, 92, 90
1, 100921, Note_on_c, 0, 80, 85
1, 100929, Note_on_c, 0, 41, 70
1, 100931, Note_on_c, 0, 53, 68
1, 100945, Note_off_c, 0, 50, 52
1, 100949, Note_off_c, 0, 86, 31
1, 100954, Control_c, 0, 64, 109
1, 100966, Note_off_c, 0, 47, 35
1, 100969, Control_c, 0, 64, 84
1, 100983, Control_c, 0, 64, 59
1, 100998, Control_c, 0, 64, 0
1, 101027, Control_c, 0, 64, 62
1, 101042, Control_c, 0, 64, 79
1, 101057, Control_c, 0, 64, 93
1, 101059, Note_on_c, 0, 86, 64
1, 101072, Control_c, 0, 64, 105
1, 101076, Note_on_c, 0, 47, 59
1, 101084, Note_on_c, 0, 50, 56
1, 101085, Note_on_c, 0, 83, 57
1, 101087, Control_c, 0, 64, 111
1, 101098, Note_off_c, 0, 92, 38
1, 101101, Control_c, 0, 64, 119
1, 101114, Note_off_c, 0, 53, 39
1, 101116, Control_c, 0, 64, 127
1, 101118, Note_off_c, 0, 41, 49
1, 101120, Note_off_c, 0, 80, 46
1, 101274, Note_off_c, 0, 83, 48
1, 101274, Note_on_c, 0, 92, 89
1, 101278, Note_on_c, 0, 80, 80
1, 101285, Note_on_c, 0, 53, 62
1, 101286, Note_on_c, 0, 41, 60
1, 101293, Control_c, 0, 64, 116
1, 101295, Note_off_c, 0, 86, 59
1, 101307, Control_c, 0, 64, 91
1, 101309, Note_off_c, 0, 50, 58
1, 101317, Note_off_c, 0, 47, 47
1, 101322, Control_c, 0, 64, 66
1, 101337, Control_c, 0, 64, 0
1, 101367, Control_c, 0, 64, 50
1, 101381, Control_c, 0, 64, 73
1, 101396, Control_c, 0, 64, 86
1, 101411, Control_c, 0, 64, 102
1, 101426, Control_c, 0, 64, 109
1, 101429, Note_on_c, 0, 86, 59
1, 101438, Note_off_c, 0, 41, 60
1, 101440, Note_on_c, 0, 47, 60
1, 101441, Control_c, 0, 64, 119
1, 101441, Note_on_c, 0, 83, 49
1, 101446, Note_off_c, 0, 53, 61
1, 101447, Note_on_c, 0, 50, 47
1, 101456, Control_c, 0, 64, 127
1, 101493, Note_off_c, 0, 80, 62
1, 101494, Note_off_c, 0, 92, 39
1, 101536, Note_off_c, 0, 83, 58
1, 101574, Note_on_c, 0, 91, 82
1, 101581, Note_off_c, 0, 47, 60
1, 101585, Note_on_c, 0, 79, 73
1, 101587, Note_off_c, 0, 86, 54
1, 101592, Note_on_c, 0, 55, 60
1, 101595, Note_on_c, 0, 43, 60
1, 101598, Control_c, 0, 64, 110
1, 101612, Control_c, 0, 64, 80
1, 101619, Note_off_c, 0, 50, 36
1, 101627, Control_c, 0, 64, 43
1, 101642, Control_c, 0, 64, 0
1, 101671, Control_c, 0, 64, 68
1, 101686, Control_c, 0, 64, 84
1, 101687, Note_off_c, 0, 91, 50
1, 101695, Note_off_c, 0, 43, 61
1, 101701, Control_c, 0, 64, 105
1, 101706, Note_on_c, 0, 86, 65
1, 101706, Note_on_c, 0, 50, 59
1, 101709, Note_on_c, 0, 47, 51
1, 101710, Note_on_c, 0, 83, 48
1, 101716, Control_c, 0, 64, 122
1, 101717, Note_off_c, 0, 55, 62
1, 101730, Control_c, 0, 64, 127
1, 101746, Note_off_c, 0, 79, 39
1, 101837, Note_on_c, 0, 89, 74
1, 101838, Note_off_c, 0, 86, 55
1, 101839, Note_off_c, 0, 47, 37
1, 101845, Note_on_c, 0, 56, 63
1, 101845, Note_off_c, 0, 83, 37
1, 101847, Note_on_c, 0, 77, 74
1, 101849, Control_c, 0, 64, 119
1, 101850, Note_on_c, 0, 44, 54
1, 101856, Note_off_c, 0, 50, 36
1, 101864, Control_c, 0, 64, 93
1, 101879, Control_c, 0, 64, 72
1, 101894, Control_c, 0, 64, 0
1, 101923, Control_c, 0, 64, 63
1, 101938, Control_c, 0, 64, 78
1, 101950, Note_off_c, 0, 44, 61
1, 101953, Control_c, 0, 64, 93
1, 101954, Note_off_c, 0, 56, 59
1, 101967, Note_on_c, 0, 86, 59
1, 101968, Control_c, 0, 64, 105
1, 101969, Note_off_c, 0, 89, 60
1, 101971, Note_on_c, 0, 47, 50
1, 101971, Note_on_c, 0, 83, 55
1, 101975, Note_on_c, 0, 50, 52
1, 101982, Control_c, 0, 64, 111
1, 101997, Control_c, 0, 64, 125
1, 102010, Note_off_c, 0, 77, 39
1, 102012, Control_c, 0, 64, 127
1, 102046, Note_off_c, 0, 50, 51
1, 102057, Note_off_c, 0, 47, 53
1, 102074, Note_off_c, 0, 83, 53
1, 102097, Note_on_c, 0, 91, 76
1, 102100, Note_off_c, 0, 86, 58
1, 102106, Note_on_c, 0, 43, 52
1, 102107, Note_on_c, 0, 55, 51
1, 102111, Note_on_c, 0, 79, 65
1, 102116, Control_c, 0, 64, 125
1, 102130, Control_c, 0, 64, 95
1, 102145, Control_c, 0, 64, 73
1, 102160, Control_c, 0, 64, 0
1, 102189, Note_off_c, 0, 43, 59
1, 102189, Control_c, 0, 64, 56
1, 102192, Note_off_c, 0, 91, 59
1, 102203, Note_off_c, 0, 79, 58
1, 102204, Control_c, 0, 64, 74
1, 102205, Note_off_c, 0, 55, 59
1, 102211, Note_on_c, 0, 47, 44
1, 102212, Note_on_c, 0, 50, 44
1, 102219, Control_c, 0, 64, 89
1, 102230, Note_on_c, 0, 83, 47
1, 102236, Note_on_c, 0, 86, 54
1, 102242, Control_c, 0, 64, 106
1, 102256, Control_c, 0, 64, 114
1, 102271, Control_c, 0, 64, 119
1, 102286, Control_c, 0, 64, 127
1, 102328, Note_off_c, 0, 83, 50
1, 102345, Note_off_c, 0, 86, 49
1, 102362, Note_on_c, 0, 92, 71
1, 102374, Note_on_c, 0, 80, 65
1, 102381, Note_on_c, 0, 41, 58
1, 102388, Note_off_c, 0, 47, 44
1, 102391, Control_c, 0, 64, 98
1, 102395, Note_on_c, 0, 53, 46
1, 102396, Note_off_c, 0, 50, 41
1, 102405, Control_c, 0, 64, 77
1, 102420, Control_c, 0, 64, 48
1, 102435, Control_c, 0, 64, 0
1, 102450, Control_c, 0, 64, 61
1, 102465, Control_c, 0, 64, 74
1, 102479, Control_c, 0, 64, 94
1, 102483, Note_off_c, 0, 41, 62
1, 102485, Note_on_c, 0, 86, 47
1, 102490, Note_off_c, 0, 92, 53
1, 102494, Control_c, 0, 64, 113
1, 102500, Note_on_c, 0, 83, 41
1, 102503, Note_on_c, 0, 47, 45
1, 102509, Control_c, 0, 64, 124
1, 102510, Note_off_c, 0, 53, 58
1, 102512, Note_off_c, 0, 80, 56
1, 102524, Control_c, 0, 64, 127
1, 102525, Note_on_c, 0, 50, 31
1, 102553, Note_off_c, 0, 83, 57
1, 102586, Note_off_c, 0, 50, 41
1, 102618, Note_on_c, 0, 91, 69
1, 102626, Note_off_c, 0, 47, 35
1, 102627, Control_c, 0, 64, 97
1, 102628, Note_on_c, 0, 43, 50
1, 102630, Note_on_c, 0, 79, 64
1, 102632, Note_on_c, 0, 55, 55
1, 102642, Control_c, 0, 64, 75
1, 102650, Note_off_c, 0, 86, 27
1, 102657, Control_c, 0, 64, 0
1, 102672, Control_c, 0, 64, 13
1, 102687, Control_c, 0, 64, 66
1, 102702, Control_c, 0, 64, 79
1, 102716, Note_off_c, 0, 43, 56
1, 102717, Control_c, 0, 64, 98
1, 102721, Note_off_c, 0, 91, 35
1, 102729, Note_off_c, 0, 55, 59
1, 102732, Control_c, 0, 64, 121
1, 102741, Note_on_c, 0, 50, 47
1, 102746, Control_c, 0, 64, 127
1, 102750, Note_on_c, 0, 86, 59
1, 102751, Note_on_c, 0, 83, 49
1, 102761, Note_off_c, 0, 79, 48
1, 102770, Note_on_c, 0, 47, 19
1, 102823, Note_off_c, 0, 47, 46
1, 102845, Note_off_c, 0, 83, 56
1, 102851, Note_off_c, 0, 50, 54
1, 102865, Control_c, 0, 64, 104
1, 102871, Note_on_c, 0, 89, 69
1, 102879, Note_on_c, 0, 77, 66
1, 102879, Control_c, 0, 64, 82
1, 102881, Note_on_c, 0, 44, 57
1, 102882, Note_on_c, 0, 56, 59
1, 102894, Control_c, 0, 64, 59
1, 102899, Note_off_c, 0, 86, 42
1, 102909, Control_c, 0, 64, 0
1, 102939, Control_c, 0, 64, 67
1, 102952, Note_off_c, 0, 56, 62
1, 102953, Control_c, 0, 64, 83
1, 102967, Note_off_c, 0, 77, 57
1, 102968, Control_c, 0, 64, 97
1, 102979, Note_off_c, 0, 44, 62
1, 102981, Note_off_c, 0, 89, 64
1, 102991, Control_c, 0, 64, 107
1, 103000, Note_on_c, 0, 83, 46
1, 103003, Note_on_c, 0, 50, 56
1, 103005, Control_c, 0, 64, 112
1, 103015, Note_on_c, 0, 86, 53
1, 103020, Control_c, 0, 64, 121
1, 103035, Control_c, 0, 64, 127
1, 103083, Poly_aftertouch_c, 0, 47, 127
1, 103084, Note_off_c, 0, 83, 58
1, 103134, Note_off_c, 0, 50, 32
1, 103135, Poly_aftertouch_c, 0, 47, 0
1, 103140, Control_c, 0, 64, 113
1, 103146, Note_on_c, 0, 92, 68
1, 103154, Note_on_c, 0, 41, 58
1, 103155, Control_c, 0, 64, 84
1, 103155, Note_off_c, 0, 86, 37
1, 103156, Note_on_c, 0, 80, 71
1, 103157, Note_on_c, 0, 53, 58
1, 103170, Control_c, 0, 64, 62
1, 103184, Control_c, 0, 64, 0
1, 103214, Control_c, 0, 64, 65
1, 103228, Control_c, 0, 64, 79
1, 103243, Control_c, 0, 64, 101
1, 103258, Control_c, 0, 64, 116
1, 103268, Note_off_c, 0, 92, 53
1, 103270, Note_on_c, 0, 86, 58
1, 103273, Control_c, 0, 64, 121
1, 103274, Note_on_c, 0, 47, 56
1, 103275, Note_off_c, 0, 53, 63
1, 103276, Note_off_c, 0, 41, 61
1, 103280, Note_on_c, 0, 50, 55
1, 103283, Note_off_c, 0, 80, 59
1, 103287, Note_on_c, 0, 83, 52
1, 103288, Control_c, 0, 64, 127
1, 103318, Note_off_c, 0, 50, 61
1, 103341, Note_off_c, 0, 83, 57
1, 103357, Note_off_c, 0, 47, 56
1, 103367, Note_off_c, 0, 86, 52
1, 103391, Control_c, 0, 64, 119
1, 103403, Note_on_c, 0, 91, 76
1, 103404, Note_on_c, 0, 43, 63
1, 103405, Note_on_c, 0, 55, 67
1, 103406, Control_c, 0, 64, 90
1, 103408, Note_on_c, 0, 79, 75
1, 103420, Control_c, 0, 64, 67
1, 103435, Control_c, 0, 64, 0
1, 103465, Control_c, 0, 64, 64
1, 103480, Control_c, 0, 64, 80
1, 103495, Control_c, 0, 64, 99
1, 103510, Control_c, 0, 64, 118
1, 103520, Note_on_c, 0, 50, 59
1, 103525, Control_c, 0, 64, 124
1, 103531, Note_off_c, 0, 91, 35
1, 103537, Note_on_c, 0, 47, 50
1, 103537, Note_on_c, 0, 86, 50
1, 103540, Control_c, 0, 64, 127
1, 103540, Note_on_c, 0, 83, 57
1, 103550, Note_off_c, 0, 43, 60
1, 103550, Note_off_c, 0, 55, 64
1, 103562, Note_off_c, 0, 50, 63
1, 103565, Note_off_c, 0, 79, 55
1, 103568, Note_off_c, 0, 47, 64
1, 103587, Note_off_c, 0, 86, 53
1, 103593, Note_off_c, 0, 83, 58
1, 103660, Note_on_c, 0, 47, 69
1, 103662, Note_on_c, 0, 89, 70
1, 103671, Note_on_c, 0, 59, 68
1, 103679, Note_on_c, 0, 77, 64
1, 103688, Control_c, 0, 64, 97
1, 103702, Control_c, 0, 64, 72
1, 103706, Note_off_c, 0, 77, 65
1, 103724, Control_c, 0, 64, 0
1, 103742, Note_off_c, 0, 89, 59
1, 103754, Control_c, 0, 64, 43
1, 103769, Control_c, 0, 64, 72
1, 103784, Control_c, 0, 64, 85
1, 103799, Control_c, 0, 64, 99
1, 103805, Note_on_c, 0, 79, 68
1, 103812, Note_on_c, 0, 55, 65
1, 103814, Control_c, 0, 64, 106
1, 103817, Note_on_c, 0, 50, 53
1, 103827, Note_on_c, 0, 86, 51
1, 103828, Control_c, 0, 64, 110
1, 103833, Note_off_c, 0, 47, 60
1, 103841, Note_off_c, 0, 59, 57
1, 103843, Control_c, 0, 64, 116
1, 103851, Note_off_c, 0, 79, 57
1, 103852, Note_off_c, 0, 55, 64
1, 103855, Note_off_c, 0, 86, 57
1, 103856, Note_off_c, 0, 50, 61
1, 103858, Control_c, 0, 64, 127
1, 103974, Note_on_c, 0, 87, 69
1, 103976, Note_on_c, 0, 60, 70
1, 103978, Note_on_c, 0, 75, 71
1, 103978, Note_on_c, 0, 48, 68
1, 103992, Control_c, 0, 64, 116
1, 104007, Control_c, 0, 64, 85
1, 104008, Note_off_c, 0, 75, 63
1, 104022, Control_c, 0, 64, 63
1, 104028, Note_off_c, 0, 87, 63
1, 104037, Control_c, 0, 64, 0
1, 104066, Control_c, 0, 64, 65
1, 104081, Control_c, 0, 64, 77
1, 104096, Control_c, 0, 64, 92
1, 104107, Note_off_c, 0, 60, 58
1, 104111, Control_c, 0, 64, 101
1, 104115, Note_on_c, 0, 55, 45
1, 104116, Note_on_c, 0, 51, 56
1, 104117, Note_on_c, 0, 84, 61
1, 104121, Note_on_c, 0, 79, 54
1, 104125, Control_c, 0, 64, 104
1, 104130, Note_off_c, 0, 48, 59
1, 104140, Control_c, 0, 64, 109
1, 104142, Note_off_c, 0, 55, 55
1, 104151, Note_off_c, 0, 51, 63
1, 104155, Control_c, 0, 64, 116
1, 104163, Note_off_c, 0, 79, 46
1, 104169, Control_c, 0, 64, 127
1, 104189, Note_off_c, 0, 84, 58
1, 104245, Note_on_c, 0, 55, 61
1, 104247, Note_on_c, 0, 86, 68
1, 104250, Note_on_c, 0, 74, 67
1, 104252, Note_on_c, 0, 43, 62
1, 104258, Control_c, 0, 64, 113
1, 104273, Control_c, 0, 64, 87
1, 104288, Control_c, 0, 64, 61
1, 104289, Note_off_c, 0, 86, 49
1, 104303, Control_c, 0, 64, 0
1, 104318, Control_c, 0, 64, 63
1, 104332, Control_c, 0, 64, 72
1, 104347, Control_c, 0, 64, 85
1, 104362, Note_on_c, 0, 50, 47
1, 104362, Control_c, 0, 64, 99
1, 104365, Note_off_c, 0, 55, 60
1, 104370, Note_on_c, 0, 47, 56
1, 104377, Control_c, 0, 64, 109
1, 104378, Note_on_c, 0, 79, 56
1, 104387, Note_on_c, 0, 77, 52
1, 104392, Note_off_c, 0, 50, 61
1, 104392, Control_c, 0, 64, 113
1, 104403, Note_off_c, 0, 74, 62
1, 104405, Note_off_c, 0, 43, 61
1, 104407, Control_c, 0, 64, 120
1, 104412, Note_off_c, 0, 47, 65
1, 104422, Control_c, 0, 64, 127
1, 104440, Note_off_c, 0, 77, 56
1, 104501, Note_off_c, 0, 79, 51
1, 104515, Note_on_c, 0, 84, 67
1, 104518, Control_c, 0, 64, 118
1, 104523, Note_on_c, 0, 48, 67
1, 104526, Note_on_c, 0, 72, 59
1, 104529, Note_on_c, 0, 36, 61
1, 104532, Control_c, 0, 64, 91
1, 104547, Control_c, 0, 64, 67
1, 104562, Control_c, 0, 64, 0
1, 104589, Note_off_c, 0, 84, 52
1, 104592, Control_c, 0, 64, 13
1, 104607, Control_c, 0, 64, 69
1, 104622, Control_c, 0, 64, 80
1, 104637, Control_c, 0, 64, 92
1, 104651, Control_c, 0, 64, 100
1, 104651, Note_on_c, 0, 39, 58
1, 104655, Note_on_c, 0, 75, 55
1, 104656, Note_on_c, 0, 79, 44
1, 104663, Note_off_c, 0, 48, 59
1, 104666, Control_c, 0, 64, 106
1, 104681, Control_c, 0, 64, 115
1, 104682, Note_off_c, 0, 36, 53
1, 104684, Note_on_c, 0, 43, 9
1, 104696, Control_c, 0, 64, 127
1, 104699, Note_off_c, 0, 72, 44
1, 104712, Note_off_c, 0, 39, 62
1, 104718, Note_off_c, 0, 75, 59
1, 104740, Note_off_c, 0, 43, 46
1, 104800, Note_on_c, 0, 83, 70
1, 104812, Note_on_c, 0, 71, 63
1, 104814, Note_off_c, 0, 79, 30
1, 104815, Control_c, 0, 64, 109
1, 104818, Note_on_c, 0, 43, 59
1, 104820, Note_on_c, 0, 31, 61
1, 104830, Control_c, 0, 64, 86
1, 104845, Control_c, 0, 64, 63
1, 104860, Control_c, 0, 64, 0
1, 104904, Control_c, 0, 64, 58
1, 104919, Control_c, 0, 64, 71
1, 104934, Control_c, 0, 64, 77
1, 104948, Control_c, 0, 64, 80
1, 104961, Note_on_c, 0, 38, 59
1, 104963, Note_on_c, 0, 79, 54
1, 104963, Control_c, 0, 64, 82
1, 104964, Note_on_c, 0, 74, 49
1, 104967, Note_off_c, 0, 83, 28
1, 104978, Control_c, 0, 64, 85
1, 104982, Note_off_c, 0, 31, 58
1, 104992, Control_c, 0, 64, 89
1, 104995, Note_off_c, 0, 74, 63
1, 104998, Note_off_c, 0, 43, 59
1, 105003, Note_off_c, 0, 38, 61
1, 105003, Note_off_c, 0, 71, 23
1, 105007, Control_c, 0, 64, 92
1, 105022, Control_c, 0, 64, 96
1, 105037, Control_c, 0, 64, 98
1, 105039, Note_off_c, 0, 79, 58
1, 105052, Control_c, 0, 64, 100
1, 105066, Control_c, 0, 64, 102
1, 105081, Control_c, 0, 64, 104
1, 105096, Control_c, 0, 64, 106
1, 105111, Control_c, 0, 64, 107
1, 105126, Control_c, 0, 64, 108
1, 105140, Control_c, 0, 64, 109
1, 105200, Control_c, 0, 64, 108
1, 105222, Control_c, 0, 64, 104
1, 105224, Note_on_c, 0, 84, 72
1, 105226, Note_on_c, 0, 72, 65
1, 105230, Note_on_c, 0, 75, 60
1, 105234, Note_on_c, 0, 43, 44
1, 105235, Note_on_c, 0, 39, 57
1, 105236, Note_on_c, 0, 79, 50
1, 105237, Control_c, 0, 64, 96
1, 105243, Note_on_c, 0, 36, 50
1, 105245, Note_on_c, 0, 48, 56
1, 105252, Control_c, 0, 64, 83
1, 105267, Control_c, 0, 64, 71
1, 105281, Control_c, 0, 64, 54
1, 105296, Control_c, 0, 64, 0
1, 105699, Note_off_c, 0, 79, 47
1, 105714, Note_off_c, 0, 72, 24
1, 105751, Note_off_c, 0, 84, 40
1, 105777, Note_off_c, 0, 75, 28
1, 105802, Note_off_c, 0, 36, 45
1, 105802, Note_off_c, 0, 48, 45
1, 105805, Note_off_c, 0, 39, 55
1, 105809, Note_off_c, 0, 43, 41
1, 106535, Control_c, 0, 67, 11
1, 106550, Control_c, 0, 67, 18
1, 106564, Control_c, 0, 67, 28
1, 106579, Control_c, 0, 67, 38
1, 106594, Control_c, 0, 67, 51
1, 106609, Control_c, 0, 67, 65
1, 106624, Control_c, 0, 67, 78
1, 106638, Control_c, 0, 67, 93
1, 106653, Control_c, 0, 67, 105
1, 106668, Control_c, 0, 67, 117
1, 106683, Control_c, 0, 67, 127
1, 106735, Control_c, 0, 64, 29
1, 106750, Control_c, 0, 64, 39
1, 106765, Control_c, 0, 64, 47
1, 106779, Control_c, 0, 64, 54
1, 106794, Control_c, 0, 64, 58
1, 106809, Control_c, 0, 64, 61
1, 106824, Control_c, 0, 64, 63
1, 106839, Control_c, 0, 64, 64
1, 106853, Control_c, 0, 64, 65
1, 106868, Control_c, 0, 64, 66
1, 106883, Control_c, 0, 64, 68
1, 106898, Control_c, 0, 64, 69
1, 106913, Control_c, 0, 64, 70
1, 106927, Control_c, 0, 64, 72
1, 106942, Control_c, 0, 64, 75
1, 106957, Control_c, 0, 64, 77
1, 106971, Control_c, 0, 64, 79
1, 106986, Control_c, 0, 64, 80
1, 107001, Control_c, 0, 64, 81
1, 107016, Control_c, 0, 64, 83
1, 107031, Control_c, 0, 64, 84
1, 107045, Control_c, 0, 64, 86
1, 107060, Control_c, 0, 64, 87
1, 107075, Control_c, 0, 64, 88
1, 107091, Control_c, 0, 64, 90
1, 107106, Control_c, 0, 64, 91
1, 107121, Control_c, 0, 64, 92
1, 107136, Control_c, 0, 64, 94
1, 107151, Control_c, 0, 64, 95
1, 107166, Control_c, 0, 64, 95
1, 107181, Control_c, 0, 64, 96
1, 107195, Control_c, 0, 64, 97
1, 107210, Control_c, 0, 64, 97
1, 107225, Control_c, 0, 64, 98
1, 107240, Control_c, 0, 64, 98
1, 107269, Control_c, 0, 64, 99
1, 107299, Control_c, 0, 64, 99
1, 107305, Note_on_c, 0, 60, 32
1, 107316, Note_on_c, 0, 67, 20
1, 107329, Control_c, 0, 64, 100
1, 107373, Control_c, 0, 64, 100
1, 107403, Control_c, 0, 64, 101
1, 107433, Control_c, 0, 64, 101
1, 107436, Note_off_c, 0, 60, 37
1, 107471, Note_off_c, 0, 67, 38
1, 107479, Note_on_c, 0, 68, 37
1, 107484, Control_c, 0, 64, 102
1, 107553, Note_on_c, 0, 63, 44
1, 107604, Note_on_c, 0, 67, 43
1, 107606, Note_off_c, 0, 68, 41
1, 107628, Note_off_c, 0, 63, 40
1, 107741, Note_on_c, 0, 68, 44
1, 107743, Note_off_c, 0, 67, 37
1, 107758, Note_on_c, 0, 60, 29
1, 107803, Note_off_c, 0, 60, 46
1, 107859, Note_off_c, 0, 68, 53
1, 107886, Note_on_c, 0, 67, 38
1, 107954, Note_on_c, 0, 63, 19
1, 108003, Note_on_c, 0, 68, 43
1, 108020, Note_off_c, 0, 67, 33
1, 108029, Note_off_c, 0, 63, 35
1, 108151, Control_c, 0, 64, 101
1, 108166, Control_c, 0, 64, 101
1, 108181, Control_c, 0, 64, 97
1, 108184, Note_on_c, 0, 75, 60
1, 108189, Note_off_c, 0, 68, 52
1, 108196, Control_c, 0, 64, 91
1, 108200, Note_on_c, 0, 60, 37
1, 108217, Control_c, 0, 64, 78
1, 108232, Control_c, 0, 64, 65
1, 108247, Control_c, 0, 64, 0
1, 108271, Poly_aftertouch_c, 0, 67, 127
1, 108291, Control_c, 0, 64, 51
1, 108306, Control_c, 0, 64, 67
1, 108312, Poly_aftertouch_c, 0, 67, 0
1, 108321, Control_c, 0, 64, 73
1, 108336, Control_c, 0, 64, 77
1, 108342, Note_on_c, 0, 68, 38
1, 108351, Control_c, 0, 64, 79
1, 108355, Note_off_c, 0, 60, 35
1, 108366, Control_c, 0, 64, 82
1, 108381, Control_c, 0, 64, 84
1, 108395, Control_c, 0, 64, 87
1, 108410, Note_on_c, 0, 63, 37
1, 108410, Control_c, 0, 64, 89
1, 108425, Control_c, 0, 64, 91
1, 108440, Control_c, 0, 64, 92
1, 108455, Control_c, 0, 64, 93
1, 108470, Control_c, 0, 64, 94
1, 108476, Note_off_c, 0, 68, 40
1, 108485, Control_c, 0, 64, 94
1, 108486, Note_on_c, 0, 67, 38
1, 108499, Control_c, 0, 64, 95
1, 108524, Note_off_c, 0, 63, 34
1, 108529, Control_c, 0, 64, 95
1, 108543, Control_c, 0, 64, 96
1, 108573, Control_c, 0, 64, 96
1, 108583, Note_on_c, 0, 60, 41
1, 108593, Note_off_c, 0, 67, 35
1, 108606, Note_on_c, 0, 68, 43
1, 108655, Note_off_c, 0, 60, 45
1, 108708, Note_off_c, 0, 68, 55
1, 108747, Note_on_c, 0, 67, 34
1, 108786, Note_on_c, 0, 63, 31
1, 108860, Note_off_c, 0, 63, 38
1, 108863, Note_on_c, 0, 68, 38
1, 108873, Note_off_c, 0, 67, 35
1, 108962, Note_off_c, 0, 75, 32
1, 108978, Note_off_c, 0, 68, 55
1, 108981, Control_c, 0, 64, 96
1, 108996, Control_c, 0, 64, 94
1, 109011, Control_c, 0, 64, 90
1, 109018, Note_on_c, 0, 72, 46
1, 109020, Note_on_c, 0, 67, 36
1, 109026, Control_c, 0, 64, 83
1, 109032, Note_on_c, 0, 60, 34
1, 109040, Control_c, 0, 64, 72
1, 109055, Control_c, 0, 64, 54
1, 109070, Control_c, 0, 64, 0
1, 109114, Control_c, 0, 64, 53
1, 109129, Control_c, 0, 64, 65
1, 109141, Note_off_c, 0, 67, 32
1, 109144, Control_c, 0, 64, 68
1, 109159, Control_c, 0, 64, 70
1, 109168, Note_off_c, 0, 60, 23
1, 109170, Note_on_c, 0, 68, 40
1, 109173, Control_c, 0, 64, 73
1, 109188, Control_c, 0, 64, 76
1, 109203, Control_c, 0, 64, 79
1, 109218, Control_c, 0, 64, 82
1, 109233, Control_c, 0, 64, 84
1, 109236, Note_on_c, 0, 63, 36
1, 109248, Control_c, 0, 64, 85
1, 109263, Control_c, 0, 64, 86
1, 109278, Control_c, 0, 64, 88
1, 109279, Note_on_c, 0, 67, 40
1, 109286, Note_off_c, 0, 68, 42
1, 109293, Control_c, 0, 64, 89
1, 109308, Control_c, 0, 64, 90
1, 109322, Control_c, 0, 64, 90
1, 109352, Control_c, 0, 64, 91
1, 109356, Note_off_c, 0, 63, 27
1, 109366, Control_c, 0, 64, 92
1, 109367, Note_off_c, 0, 72, 18
1, 109400, Note_on_c, 0, 60, 37
1, 109411, Control_c, 0, 64, 92
1, 109423, Note_on_c, 0, 68, 43
1, 109445, Note_off_c, 0, 67, 34
1, 109519, Note_off_c, 0, 60, 50
1, 109540, Note_off_c, 0, 68, 56
1, 109573, Note_on_c, 0, 67, 45
1, 109603, Note_on_c, 0, 63, 33
1, 109692, Note_off_c, 0, 63, 36
1, 109695, Note_on_c, 0, 68, 42
1, 109719, Note_off_c, 0, 67, 35
1, 109819, Control_c, 0, 64, 91
1, 109829, Note_on_c, 0, 59, 38
1, 109833, Note_off_c, 0, 68, 53
1, 109834, Control_c, 0, 64, 88
1, 109849, Control_c, 0, 64, 80
1, 109852, Note_on_c, 0, 67, 46
1, 109863, Control_c, 0, 64, 69
1, 109878, Control_c, 0, 64, 0
1, 109937, Control_c, 0, 64, 53
1, 109952, Control_c, 0, 64, 66
1, 109967, Control_c, 0, 64, 70
1, 109973, Note_off_c, 0, 59, 41
1, 109982, Control_c, 0, 64, 72
1, 109996, Control_c, 0, 64, 75
1, 109997, Note_on_c, 0, 68, 40
1, 109999, Note_off_c, 0, 67, 40
1, 110011, Control_c, 0, 64, 78
1, 110026, Control_c, 0, 64, 81
1, 110041, Control_c, 0, 64, 84
1, 110047, Note_on_c, 0, 62, 32
1, 110056, Control_c, 0, 64, 86
1, 110071, Control_c, 0, 64, 87
1, 110086, Control_c, 0, 64, 89
1, 110101, Control_c, 0, 64, 89
1, 110106, Note_off_c, 0, 68, 54
1, 110115, Control_c, 0, 64, 90
1, 110130, Note_on_c, 0, 67, 43
1, 110130, Control_c, 0, 64, 91
1, 110145, Control_c, 0, 64, 92
1, 110160, Control_c, 0, 64, 92
1, 110172, Note_off_c, 0, 62, 36
1, 110220, Control_c, 0, 64, 93
1, 110264, Note_on_c, 0, 59, 27
1, 110267, Note_on_c, 0, 68, 46
1, 110281, Note_off_c, 0, 67, 35
1, 110372, Note_off_c, 0, 68, 58
1, 110390, Note_off_c, 0, 59, 41
1, 110404, Note_on_c, 0, 67, 50
1, 110466, Note_on_c, 0, 62, 33
1, 110521, Note_off_c, 0, 62, 41
1, 110530, Note_on_c, 0, 68, 42
1, 110544, Note_off_c, 0, 67, 36
1, 110665, Note_off_c, 0, 68, 53
1, 110706, Note_on_c, 0, 74, 59
1, 110717, Control_c, 0, 64, 90
1, 110730, Note_on_c, 0, 67, 37
1, 110732, Note_on_c, 0, 59, 35
1, 110732, Control_c, 0, 64, 81
1, 110746, Control_c, 0, 64, 67
1, 110761, Control_c, 0, 64, 0
1, 110771, Note_off_c, 0, 67, 46
1, 110820, Control_c, 0, 64, 62
1, 110835, Control_c, 0, 64, 68
1, 110850, Control_c, 0, 64, 71
1, 110865, Control_c, 0, 64, 74
1, 110871, Note_on_c, 0, 68, 38
1, 110879, Note_off_c, 0, 59, 38
1, 110880, Control_c, 0, 64, 76
1, 110894, Control_c, 0, 64, 79
1, 110909, Control_c, 0, 64, 82
1, 110914, Note_on_c, 0, 62, 36
1, 110924, Control_c, 0, 64, 84
1, 110938, Control_c, 0, 64, 86
1, 110953, Control_c, 0, 64, 88
1, 110968, Control_c, 0, 64, 89
1, 110978, Note_off_c, 0, 68, 38
1, 110983, Control_c, 0, 64, 90
1, 110988, Note_on_c, 0, 67, 43
1, 110998, Control_c, 0, 64, 91
1, 111007, Note_off_c, 0, 62, 30
1, 111013, Control_c, 0, 64, 92
1, 111043, Control_c, 0, 64, 93
1, 111072, Control_c, 0, 64, 93
1, 111088, Control_c, 0, 64, 94
1, 111097, Note_off_c, 0, 67, 35
1, 111112, Note_on_c, 0, 68, 45
1, 111116, Note_on_c, 0, 59, 23
1, 111162, Control_c, 0, 64, 94
1, 111197, Note_off_c, 0, 74, 41
1, 111200, Note_off_c, 0, 68, 57
1, 111237, Note_on_c, 0, 67, 49
1, 111266, Note_off_c, 0, 59, 38
1, 111302, Note_on_c, 0, 62, 38
1, 111357, Note_off_c, 0, 62, 42
1, 111364, Note_on_c, 0, 68, 50
1, 111402, Note_off_c, 0, 67, 35
1, 111406, Note_off_c, 0, 68, 58
1, 111496, Control_c, 0, 64, 94
1, 111510, Control_c, 0, 64, 91
1, 111525, Control_c, 0, 64, 85
1, 111534, Note_on_c, 0, 79, 69
1, 111540, Control_c, 0, 64, 75
1, 111555, Control_c, 0, 64, 63
1, 111563, Note_on_c, 0, 67, 35
1, 111567, Note_on_c, 0, 59, 25
1, 111569, Control_c, 0, 64, 0
1, 111599, Control_c, 0, 64, 51
1, 111609, Note_off_c, 0, 79, 61
1, 111614, Control_c, 0, 64, 66
1, 111629, Control_c, 0, 64, 71
1, 111643, Control_c, 0, 64, 74
1, 111658, Control_c, 0, 64, 76
1, 111673, Control_c, 0, 64, 78
1, 111688, Control_c, 0, 64, 80
1, 111703, Control_c, 0, 64, 82
1, 111716, Note_off_c, 0, 59, 37
1, 111717, Control_c, 0, 64, 84
1, 111722, Note_off_c, 0, 67, 39
1, 111732, Control_c, 0, 64, 86
1, 111747, Control_c, 0, 64, 87
1, 111761, Control_c, 0, 64, 88
1, 111764, Note_on_c, 0, 62, 31
1, 111776, Control_c, 0, 64, 89
1, 111791, Control_c, 0, 64, 90
1, 111806, Control_c, 0, 64, 91
1, 111821, Control_c, 0, 64, 91
1, 111839, Note_on_c, 0, 67, 49
1, 111865, Note_off_c, 0, 62, 30
1, 111865, Control_c, 0, 64, 92
1, 111913, Note_off_c, 0, 67, 43
1, 111942, Note_on_c, 0, 59, 36
1, 111961, Note_on_c, 0, 68, 48
1, 112062, Note_off_c, 0, 68, 57
1, 112095, Note_on_c, 0, 67, 41
1, 112113, Note_off_c, 0, 59, 20
1, 112132, Note_on_c, 0, 62, 37
1, 112175, Note_off_c, 0, 62, 46
1, 112207, Note_off_c, 0, 67, 52
1, 112226, Note_on_c, 0, 68, 45
1, 112330, Note_off_c, 0, 68, 56
1, 112348, Control_c, 0, 64, 90
1, 112363, Control_c, 0, 64, 87
1, 112367, Note_on_c, 0, 67, 43
1, 112369, Note_on_c, 0, 58, 35
1, 112378, Control_c, 0, 64, 79
1, 112391, Control_c, 0, 64, 67
1, 112406, Control_c, 0, 64, 0
1, 112451, Control_c, 0, 64, 13
1, 112465, Control_c, 0, 64, 64
1, 112480, Control_c, 0, 64, 69
1, 112482, Note_off_c, 0, 67, 45
1, 112495, Control_c, 0, 64, 72
1, 112504, Note_off_c, 0, 58, 24
1, 112509, Control_c, 0, 64, 74
1, 112513, Note_on_c, 0, 69, 47
1, 112524, Control_c, 0, 64, 78
1, 112539, Control_c, 0, 64, 80
1, 112554, Control_c, 0, 64, 83
1, 112569, Control_c, 0, 64, 85
1, 112570, Note_on_c, 0, 61, 37
1, 112584, Control_c, 0, 64, 87
1, 112599, Control_c, 0, 64, 88
1, 112613, Control_c, 0, 64, 90
1, 112628, Control_c, 0, 64, 91
1, 112634, Note_on_c, 0, 67, 45
1, 112635, Note_off_c, 0, 61, 40
1, 112643, Control_c, 0, 64, 92
1, 112649, Note_off_c, 0, 69, 34
1, 112658, Control_c, 0, 64, 93
1, 112688, Control_c, 0, 64, 93
1, 112726, Control_c, 0, 64, 94
1, 112756, Control_c, 0, 64, 94
1, 112763, Note_off_c, 0, 67, 57
1, 112768, Note_on_c, 0, 58, 29
1, 112780, Note_on_c, 0, 69, 51
1, 112859, Control_c, 0, 64, 95
1, 112883, Note_off_c, 0, 69, 60
1, 112894, Note_off_c, 0, 58, 31
1, 112917, Note_on_c, 0, 67, 42
1, 112947, Note_on_c, 0, 61, 36
1, 113028, Note_off_c, 0, 61, 36
1, 113034, Note_off_c, 0, 67, 54
1, 113041, Note_on_c, 0, 69, 42
1, 113067, Control_c, 0, 64, 95
1, 113213, Note_on_c, 0, 75, 68
1, 113220, Note_off_c, 0, 69, 58
1, 113229, Control_c, 0, 64, 94
1, 113236, Note_on_c, 0, 58, 35
1, 113244, Control_c, 0, 64, 91
1, 113257, Note_on_c, 0, 67, 29
1, 113259, Control_c, 0, 64, 84
1, 113274, Control_c, 0, 64, 74
1, 113288, Control_c, 0, 64, 50
1, 113296, Note_off_c, 0, 67, 47
1, 113303, Control_c, 0, 64, 0
1, 113332, Control_c, 0, 64, 35
1, 113347, Control_c, 0, 64, 65
1, 113362, Control_c, 0, 64, 70
1, 113364, Note_on_c, 0, 69, 42
1, 113377, Control_c, 0, 64, 74
1, 113380, Note_off_c, 0, 58, 36
1, 113392, Control_c, 0, 64, 76
1, 113406, Control_c, 0, 64, 78
1, 113421, Control_c, 0, 64, 81
1, 113435, Note_on_c, 0, 61, 35
1, 113436, Control_c, 0, 64, 83
1, 113451, Control_c, 0, 64, 85
1, 113474, Control_c, 0, 64, 87
1, 113490, Control_c, 0, 64, 88
1, 113505, Control_c, 0, 64, 89
1, 113518, Note_on_c, 0, 67, 41
1, 113519, Control_c, 0, 64, 90
1, 113525, Note_off_c, 0, 69, 34
1, 113534, Control_c, 0, 64, 91
1, 113546, Note_off_c, 0, 61, 28
1, 113549, Control_c, 0, 64, 91
1, 113563, Control_c, 0, 64, 92
1, 113593, Control_c, 0, 64, 92
1, 113603, Note_off_c, 0, 67, 53
1, 113608, Control_c, 0, 64, 93
1, 113627, Note_on_c, 0, 58, 37
1, 113648, Note_on_c, 0, 69, 50
1, 113667, Control_c, 0, 64, 93
1, 113741, Control_c, 0, 64, 94
1, 113755, Note_off_c, 0, 69, 49
1, 113761, Note_off_c, 0, 75, 29
1, 113770, Note_off_c, 0, 58, 37
1, 113775, Note_on_c, 0, 67, 38
1, 113824, Note_on_c, 0, 61, 35
1, 113899, Note_on_c, 0, 69, 46
1, 113904, Control_c, 0, 64, 94
1, 113912, Note_off_c, 0, 61, 31
1, 113912, Note_off_c, 0, 67, 35
1, 114029, Note_off_c, 0, 69, 58
1, 114050, Note_on_c, 0, 76, 56
1, 114067, Control_c, 0, 64, 94
1, 114068, Note_on_c, 0, 67, 33
1, 114071, Note_on_c, 0, 58, 31
1, 114082, Control_c, 0, 64, 93
1, 114097, Control_c, 0, 64, 88
1, 114111, Control_c, 0, 64, 79
1, 114126, Control_c, 0, 64, 68
1, 114141, Control_c, 0, 64, 0
1, 114155, Note_off_c, 0, 67, 36
1, 114185, Control_c, 0, 64, 57
1, 114190, Note_on_c, 0, 69, 39
1, 114208, Control_c, 0, 64, 68
1, 114220, Note_off_c, 0, 58, 31
1, 114223, Control_c, 0, 64, 72
1, 114237, Control_c, 0, 64, 75
1, 114252, Control_c, 0, 64, 77
1, 114267, Control_c, 0, 64, 79
1, 114274, Note_on_c, 0, 61, 37
1, 114283, Control_c, 0, 64, 82
1, 114298, Control_c, 0, 64, 85
1, 114313, Control_c, 0, 64, 87
1, 114327, Control_c, 0, 64, 88
1, 114339, Note_off_c, 0, 69, 39
1, 114342, Control_c, 0, 64, 89
1, 114350, Note_on_c, 0, 67, 40
1, 114357, Control_c, 0, 64, 89
1, 114372, Control_c, 0, 64, 90
1, 114386, Control_c, 0, 64, 92
1, 114401, Control_c, 0, 64, 93
1, 114415, Note_off_c, 0, 61, 36
1, 114431, Control_c, 0, 64, 93
1, 114432, Note_off_c, 0, 67, 56
1, 114453, Note_on_c, 0, 58, 38
1, 114460, Control_c, 0, 64, 94
1, 114475, Control_c, 0, 64, 94
1, 114479, Note_on_c, 0, 69, 46
1, 114486, Note_off_c, 0, 76, 11
1, 114534, Control_c, 0, 64, 95
1, 114564, Note_off_c, 0, 69, 57
1, 114609, Note_on_c, 0, 67, 36
1, 114632, Note_off_c, 0, 58, 35
1, 114655, Note_on_c, 0, 61, 39
1, 114682, Control_c, 0, 64, 95
1, 114707, Note_off_c, 0, 67, 52
1, 114711, Note_on_c, 0, 69, 48
1, 114715, Note_off_c, 0, 61, 52
1, 114781, Note_off_c, 0, 69, 60
1, 114845, Control_c, 0, 64, 95
1, 114859, Control_c, 0, 64, 93
1, 114874, Control_c, 0, 64, 89
1, 114879, Note_on_c, 0, 69, 40
1, 114884, Note_on_c, 0, 57, 34
1, 114889, Control_c, 0, 64, 79
1, 114903, Control_c, 0, 64, 67
1, 114918, Control_c, 0, 64, 0
1, 114985, Control_c, 0, 64, 58
1, 114992, Note_off_c, 0, 69, 48
1, 115000, Control_c, 0, 64, 67
1, 115015, Control_c, 0, 64, 71
1, 115020, Note_off_c, 0, 57, 25
1, 115029, Note_on_c, 0, 70, 48
1, 115030, Control_c, 0, 64, 74
1, 115045, Control_c, 0, 64, 77
1, 115059, Control_c, 0, 64, 79
1, 115074, Control_c, 0, 64, 82
1, 115085, Note_on_c, 0, 60, 37
1, 115090, Control_c, 0, 64, 84
1, 115105, Control_c, 0, 64, 86
1, 115120, Control_c, 0, 64, 87
1, 115135, Control_c, 0, 64, 88
1, 115141, Note_off_c, 0, 70, 51
1, 115150, Control_c, 0, 64, 89
1, 115153, Note_on_c, 0, 69, 50
1, 115164, Control_c, 0, 64, 89
1, 115179, Control_c, 0, 64, 90
1, 115194, Control_c, 0, 64, 90
1, 115208, Control_c, 0, 64, 91
1, 115215, Note_off_c, 0, 60, 26
1, 115268, Control_c, 0, 64, 91
1, 115278, Note_off_c, 0, 69, 57
1, 115279, Note_on_c, 0, 70, 52
1, 115293, Note_on_c, 0, 57, 33
1, 115390, Note_off_c, 0, 70, 57
1, 115415, Note_on_c, 0, 69, 52
1, 115437, Note_off_c, 0, 57, 33
1, 115473, Note_on_c, 0, 60, 37
1, 115542, Note_on_c, 0, 70, 50
1, 115546, Note_off_c, 0, 69, 54
1, 115576, Note_off_c, 0, 60, 29
1, 115718, Note_off_c, 0, 70, 54
1, 115749, Note_on_c, 0, 76, 68
1, 115764, Control_c, 0, 64, 90
1, 115779, Note_on_c, 0, 57, 34
1, 115779, Control_c, 0, 64, 84
1, 115783, Note_on_c, 0, 69, 39
1, 115794, Control_c, 0, 64, 76
1, 115808, Control_c, 0, 64, 64
1, 115820, Note_off_c, 0, 69, 49
1, 115823, Control_c, 0, 64, 0
1, 115883, Control_c, 0, 64, 55
1, 115898, Control_c, 0, 64, 66
1, 115913, Control_c, 0, 64, 69
1, 115928, Control_c, 0, 64, 72
1, 115932, Note_on_c, 0, 70, 42
1, 115938, Note_off_c, 0, 57, 39
1, 115943, Control_c, 0, 64, 75
1, 115957, Control_c, 0, 64, 78
1, 115972, Control_c, 0, 64, 81
1, 115975, Note_on_c, 0, 60, 34
1, 115987, Control_c, 0, 64, 83
1, 116002, Control_c, 0, 64, 84
1, 116017, Control_c, 0, 64, 85
1, 116031, Control_c, 0, 64, 86
1, 116046, Control_c, 0, 64, 87
1, 116047, Note_off_c, 0, 70, 43
1, 116050, Note_on_c, 0, 69, 46
1, 116061, Control_c, 0, 64, 88
1, 116076, Control_c, 0, 64, 89
1, 116091, Control_c, 0, 64, 89
1, 116105, Control_c, 0, 64, 90
1, 116107, Note_off_c, 0, 60, 25
1, 116135, Control_c, 0, 64, 90
1, 116159, Note_off_c, 0, 69, 48
1, 116167, Note_on_c, 0, 57, 35
1, 116179, Control_c, 0, 64, 91
1, 116186, Note_on_c, 0, 70, 45
1, 116282, Note_off_c, 0, 70, 57
1, 116314, Note_on_c, 0, 69, 42
1, 116325, Note_off_c, 0, 57, 39
1, 116364, Note_on_c, 0, 60, 32
1, 116431, Control_c, 0, 64, 91
1, 116438, Note_on_c, 0, 70, 46
1, 116474, Note_off_c, 0, 69, 37
1, 116518, Note_off_c, 0, 60, 33
1, 116577, Note_off_c, 0, 70, 57
1, 116587, Control_c, 0, 64, 91
1, 116592, Note_on_c, 0, 77, 60
1, 116602, Control_c, 0, 64, 89
1, 116608, Note_on_c, 0, 57, 29
1, 116611, Note_on_c, 0, 69, 35
1, 116617, Control_c, 0, 64, 84
1, 116631, Control_c, 0, 64, 76
1, 116646, Control_c, 0, 64, 63
1, 116661, Control_c, 0, 64, 0
1, 116662, Note_off_c, 0, 76, 38
1, 116706, Control_c, 0, 64, 41
1, 116721, Control_c, 0, 64, 63
1, 116723, Note_off_c, 0, 69, 35
1, 116736, Control_c, 0, 64, 68
1, 116741, Note_on_c, 0, 70, 41
1, 116751, Control_c, 0, 64, 71
1, 116766, Control_c, 0, 64, 74
1, 116769, Note_off_c, 0, 57, 40
1, 116780, Control_c, 0, 64, 77
1, 116795, Control_c, 0, 64, 80
1, 116810, Control_c, 0, 64, 82
1, 116811, Note_on_c, 0, 60, 32
1, 116825, Control_c, 0, 64, 84
1, 116840, Control_c, 0, 64, 85
1, 116843, Note_off_c, 0, 70, 54
1, 116854, Control_c, 0, 64, 87
1, 116869, Control_c, 0, 64, 88
1, 116879, Note_on_c, 0, 69, 42
1, 116885, Control_c, 0, 64, 89
1, 116900, Control_c, 0, 64, 89
1, 116915, Control_c, 0, 64, 90
1, 116929, Control_c, 0, 64, 90
1, 116936, Note_off_c, 0, 60, 33
1, 116944, Control_c, 0, 64, 91
1, 116988, Control_c, 0, 64, 92
1, 116999, Note_on_c, 0, 57, 35
1, 117002, Note_off_c, 0, 77, 26
1, 117007, Note_off_c, 0, 69, 48
1, 117015, Note_on_c, 0, 70, 46
1, 117018, Control_c, 0, 64, 92
1, 117092, Control_c, 0, 64, 93
1, 117115, Note_off_c, 0, 70, 59
1, 117149, Note_on_c, 0, 69, 51
1, 117151, Note_off_c, 0, 57, 32
1, 117176, Note_on_c, 0, 60, 40
1, 117239, Note_off_c, 0, 60, 56
1, 117248, Control_c, 0, 64, 93
1, 117276, Note_on_c, 0, 70, 48
1, 117277, Note_off_c, 0, 69, 48
1, 117402, Note_off_c, 0, 70, 55
1, 117410, Control_c, 0, 64, 92
1, 117420, Note_on_c, 0, 60, 33
1, 117423, Note_on_c, 0, 69, 49
1, 117425, Control_c, 0, 64, 87
1, 117440, Control_c, 0, 64, 77
1, 117454, Control_c, 0, 64, 63
1, 117469, Control_c, 0, 64, 0
1, 117515, Control_c, 0, 64, 59
1, 117530, Control_c, 0, 64, 68
1, 117545, Control_c, 0, 64, 71
1, 117549, Note_off_c, 0, 60, 35
1, 117558, Note_off_c, 0, 69, 56
1, 117559, Control_c, 0, 64, 74
1, 117564, Note_on_c, 0, 70, 45
1, 117574, Control_c, 0, 64, 77
1, 117589, Control_c, 0, 64, 80
1, 117603, Control_c, 0, 64, 83
1, 117618, Control_c, 0, 64, 84
1, 117623, Note_on_c, 0, 63, 41
1, 117633, Control_c, 0, 64, 86
1, 117648, Control_c, 0, 64, 87
1, 117663, Control_c, 0, 64, 88
1, 117678, Control_c, 0, 64, 89
1, 117679, Note_off_c, 0, 70, 58
1, 117693, Control_c, 0, 64, 91
1, 117700, Note_on_c, 0, 69, 52
1, 117706, Note_off_c, 0, 63, 34
1, 117708, Control_c, 0, 64, 92
1, 117737, Control_c, 0, 64, 92
1, 117767, Control_c, 0, 64, 93
1, 117811, Control_c, 0, 64, 93
1, 117823, Note_on_c, 0, 60, 36
1, 117825, Note_off_c, 0, 69, 55
1, 117839, Note_on_c, 0, 70, 51
1, 117885, Note_off_c, 0, 60, 38
1, 117915, Control_c, 0, 64, 94
1, 117952, Note_off_c, 0, 70, 58
1, 117976, Note_on_c, 0, 69, 50
1, 118011, Control_c, 0, 64, 94
1, 118021, Note_on_c, 0, 63, 38
1, 118063, Note_off_c, 0, 63, 46
1, 118095, Note_on_c, 0, 70, 57
1, 118097, Note_off_c, 0, 69, 59
1, 118262, Note_on_c, 0, 77, 74
1, 118263, Control_c, 0, 64, 93
1, 118265, Note_off_c, 0, 70, 57
1, 118277, Note_on_c, 0, 60, 38
1, 118279, Control_c, 0, 64, 89
1, 118283, Note_on_c, 0, 69, 55
1, 118294, Control_c, 0, 64, 80
1, 118308, Control_c, 0, 64, 68
1, 118322, Note_off_c, 0, 69, 52
1, 118323, Control_c, 0, 64, 0
1, 118367, Control_c, 0, 64, 53
1, 118381, Control_c, 0, 64, 66
1, 118396, Control_c, 0, 64, 71
1, 118401, Note_off_c, 0, 60, 36
1, 118411, Control_c, 0, 64, 74
1, 118423, Note_on_c, 0, 70, 47
1, 118426, Control_c, 0, 64, 76
1, 118441, Control_c, 0, 64, 79
1, 118456, Control_c, 0, 64, 82
1, 118471, Control_c, 0, 64, 84
1, 118486, Control_c, 0, 64, 86
1, 118491, Note_on_c, 0, 63, 39
1, 118500, Control_c, 0, 64, 87
1, 118515, Control_c, 0, 64, 87
1, 118530, Control_c, 0, 64, 88
1, 118533, Note_off_c, 0, 70, 58
1, 118544, Control_c, 0, 64, 89
1, 118557, Note_on_c, 0, 69, 50
1, 118559, Control_c, 0, 64, 91
1, 118589, Control_c, 0, 64, 91
1, 118607, Note_off_c, 0, 63, 35
1, 118618, Control_c, 0, 64, 92
1, 118633, Control_c, 0, 64, 92
1, 118665, Note_off_c, 0, 69, 50
1, 118676, Note_on_c, 0, 60, 39
1, 118678, Control_c, 0, 64, 93
1, 118686, Note_on_c, 0, 70, 50
1, 118700, Control_c, 0, 64, 93
1, 118712, Note_off_c, 0, 77, 46
1, 118715, Control_c, 0, 64, 94
1, 118745, Control_c, 0, 64, 94
1, 118774, Control_c, 0, 64, 95
1, 118789, Control_c, 0, 64, 95
1, 118796, Note_off_c, 0, 60, 36
1, 118796, Note_off_c, 0, 70, 58
1, 118817, Note_on_c, 0, 69, 48
1, 118863, Control_c, 0, 64, 96
1, 118891, Note_on_c, 0, 63, 32
1, 118954, Note_on_c, 0, 70, 53
1, 118963, Note_off_c, 0, 69, 49
1, 119058, Note_off_c, 0, 63, 38
1, 119088, Note_off_c, 0, 70, 56
1, 119100, Note_on_c, 0, 78, 64
1, 119107, Note_on_c, 0, 69, 48
1, 119119, Note_on_c, 0, 60, 35
1, 119130, Control_c, 0, 64, 93
1, 119145, Control_c, 0, 64, 86
1, 119160, Control_c, 0, 64, 75
1, 119174, Control_c, 0, 64, 59
1, 119189, Control_c, 0, 64, 0
1, 119202, Note_off_c, 0, 69, 45
1, 119234, Control_c, 0, 64, 62
1, 119243, Note_on_c, 0, 70, 46
1, 119249, Control_c, 0, 64, 69
1, 119264, Control_c, 0, 64, 72
1, 119267, Note_off_c, 0, 60, 37
1, 119279, Control_c, 0, 64, 75
1, 119294, Control_c, 0, 64, 78
1, 119309, Control_c, 0, 64, 82
1, 119317, Note_on_c, 0, 63, 34
1, 119323, Control_c, 0, 64, 85
1, 119338, Control_c, 0, 64, 87
1, 119352, Note_off_c, 0, 70, 55
1, 119353, Control_c, 0, 64, 89
1, 119367, Control_c, 0, 64, 90
1, 119369, Note_on_c, 0, 69, 50
1, 119382, Control_c, 0, 64, 91
1, 119397, Control_c, 0, 64, 92
1, 119412, Control_c, 0, 64, 93
1, 119427, Control_c, 0, 64, 94
1, 119449, Control_c, 0, 64, 94
1, 119475, Note_off_c, 0, 63, 38
1, 119478, Control_c, 0, 64, 95
1, 119483, Note_off_c, 0, 69, 53
1, 119493, Control_c, 0, 64, 95
1, 119505, Note_on_c, 0, 60, 38
1, 119511, Note_on_c, 0, 70, 53
1, 119538, Control_c, 0, 64, 96
1, 119568, Control_c, 0, 64, 96
1, 119607, Note_off_c, 0, 70, 60
1, 119625, Note_on_c, 0, 69, 55
1, 119627, Control_c, 0, 64, 97
1, 119687, Note_off_c, 0, 78, 24
1, 119699, Note_on_c, 0, 63, 42
1, 119700, Control_c, 0, 64, 97
1, 119708, Note_off_c, 0, 60, 40
1, 119734, Note_off_c, 0, 69, 58
1, 119760, Control_c, 0, 64, 98
1, 119762, Note_on_c, 0, 70, 60
1, 119804, Control_c, 0, 64, 98
1, 119820, Note_off_c, 0, 63, 36
1, 119848, Control_c, 0, 64, 99
1, 119910, Control_c, 0, 64, 98
1, 119920, Note_off_c, 0, 70, 61
1, 119924, Control_c, 0, 64, 96
1, 119938, Note_on_c, 0, 79, 74
1, 119939, Control_c, 0, 64, 90
1, 119954, Note_on_c, 0, 62, 42
1, 119954, Control_c, 0, 64, 78
1, 119959, Note_on_c, 0, 71, 60
1, 119969, Control_c, 0, 64, 64
1, 119984, Control_c, 0, 64, 0
1, 119998, Note_off_c, 0, 71, 56
1, 120028, Control_c, 0, 64, 56
1, 120043, Control_c, 0, 64, 67
1, 120058, Control_c, 0, 64, 72
1, 120072, Control_c, 0, 64, 75
1, 120087, Control_c, 0, 64, 79
1, 120102, Control_c, 0, 64, 82
1, 120111, Note_on_c, 0, 72, 59
1, 120116, Control_c, 0, 64, 85
1, 120122, Note_off_c, 0, 62, 36
1, 120131, Control_c, 0, 64, 87
1, 120146, Control_c, 0, 64, 89
1, 120161, Control_c, 0, 64, 90
1, 120166, Note_on_c, 0, 65, 39
1, 120176, Control_c, 0, 64, 92
1, 120198, Control_c, 0, 64, 93
1, 120213, Control_c, 0, 64, 94
1, 120217, Note_off_c, 0, 72, 60
1, 120228, Control_c, 0, 64, 94
1, 120249, Note_on_c, 0, 71, 55
1, 120258, Control_c, 0, 64, 95
1, 120272, Control_c, 0, 64, 96
1, 120286, Note_off_c, 0, 65, 30
1, 120287, Control_c, 0, 64, 96
1, 120331, Control_c, 0, 64, 97
1, 120361, Control_c, 0, 64, 97
1, 120373, Note_off_c, 0, 71, 59
1, 120377, Note_on_c, 0, 62, 40
1, 120388, Note_on_c, 0, 72, 62
1, 120435, Control_c, 0, 64, 98
1, 120443, Note_off_c, 0, 79, 31
1, 120495, Control_c, 0, 64, 98
1, 120498, Note_off_c, 0, 72, 59
1, 120510, Note_on_c, 0, 71, 60
1, 120519, Note_off_c, 0, 62, 35
1, 120561, Note_on_c, 0, 65, 44
1, 120584, Control_c, 0, 64, 99
1, 120655, Note_on_c, 0, 72, 66
1, 120656, Note_off_c, 0, 71, 59
1, 120733, Control_c, 0, 64, 99
1, 120740, Note_off_c, 0, 65, 25
1, 120851, Control_c, 0, 64, 99
1, 120862, Note_on_c, 0, 80, 83
1, 120866, Control_c, 0, 64, 98
1, 120878, Note_on_c, 0, 71, 65
1, 120881, Control_c, 0, 64, 96
1, 120884, Note_off_c, 0, 72, 60
1, 120885, Note_on_c, 0, 62, 34
1, 120895, Control_c, 0, 64, 90
1, 120910, Control_c, 0, 64, 81
1, 120925, Control_c, 0, 64, 67
1, 120942, Note_off_c, 0, 71, 53
1, 120947, Control_c, 0, 64, 0
1, 121007, Control_c, 0, 64, 44
1, 121021, Control_c, 0, 64, 65
1, 121036, Control_c, 0, 64, 69
1, 121051, Control_c, 0, 64, 74
1, 121060, Note_on_c, 0, 72, 31
1, 121061, Note_off_c, 0, 62, 35
1, 121066, Control_c, 0, 64, 79
1, 121081, Control_c, 0, 64, 83
1, 121095, Control_c, 0, 64, 86
1, 121110, Control_c, 0, 64, 88
1, 121120, Note_on_c, 0, 65, 38
1, 121125, Control_c, 0, 64, 89
1, 121140, Control_c, 0, 64, 91
1, 121150, Note_off_c, 0, 72, 57
1, 121154, Control_c, 0, 64, 93
1, 121169, Control_c, 0, 64, 95
1, 121184, Control_c, 0, 64, 96
1, 121190, Note_on_c, 0, 71, 43
1, 121199, Control_c, 0, 64, 97
1, 121214, Control_c, 0, 64, 98
1, 121228, Control_c, 0, 64, 98
1, 121243, Control_c, 0, 64, 99
1, 121278, Note_off_c, 0, 65, 40
1, 121293, Note_off_c, 0, 71, 47
1, 121303, Control_c, 0, 64, 99
1, 121309, Note_on_c, 0, 72, 48
1, 121322, Note_on_c, 0, 62, 36
1, 121419, Note_off_c, 0, 72, 55
1, 121444, Note_on_c, 0, 71, 47
1, 121467, Note_off_c, 0, 62, 36
1, 121467, Control_c, 0, 64, 100
1, 121531, Note_on_c, 0, 65, 35
1, 121583, Note_on_c, 0, 72, 48
1, 121605, Note_off_c, 0, 71, 36
1, 121674, Control_c, 0, 64, 100
1, 121686, Note_off_c, 0, 72, 58
1, 121700, Note_off_c, 0, 65, 45
1, 121729, Note_on_c, 0, 71, 49
1, 121741, Control_c, 0, 64, 101
1, 121743, Note_on_c, 0, 62, 33
1, 121815, Control_c, 0, 64, 101
1, 121874, Note_on_c, 0, 72, 46
1, 121883, Note_off_c, 0, 71, 35
1, 121888, Note_off_c, 0, 62, 36
1, 121932, Note_on_c, 0, 65, 33
1, 121970, Note_off_c, 0, 72, 57
1, 122008, Note_on_c, 0, 71, 47
1, 122114, Note_off_c, 0, 65, 42
1, 122126, Note_on_c, 0, 62, 35
1, 122147, Note_on_c, 0, 72, 46
1, 122163, Note_off_c, 0, 71, 34
1, 122260, Note_off_c, 0, 72, 57
1, 122281, Note_off_c, 0, 62, 35
1, 122293, Note_on_c, 0, 71, 45
1, 122330, Note_on_c, 0, 65, 33
1, 122422, Note_on_c, 0, 72, 44
1, 122445, Control_c, 0, 64, 101
1, 122460, Note_off_c, 0, 71, 34
1, 122460, Control_c, 0, 64, 100
1, 122474, Control_c, 0, 64, 97
1, 122489, Control_c, 0, 64, 91
1, 122504, Control_c, 0, 64, 81
1, 122519, Control_c, 0, 64, 69
1, 122527, Note_off_c, 0, 65, 43
1, 122534, Control_c, 0, 64, 31
1, 122548, Note_on_c, 0, 55, 41
1, 122549, Control_c, 0, 64, 0
1, 122554, Note_off_c, 0, 72, 58
1, 122588, Note_on_c, 0, 71, 44
1, 122593, Control_c, 0, 64, 55
1, 122608, Control_c, 0, 64, 66
1, 122623, Control_c, 0, 64, 70
1, 122638, Control_c, 0, 64, 74
1, 122653, Control_c, 0, 64, 78
1, 122667, Control_c, 0, 64, 82
1, 122682, Control_c, 0, 64, 85
1, 122697, Control_c, 0, 64, 87
1, 122712, Control_c, 0, 64, 88
1, 122726, Control_c, 0, 64, 89
1, 122731, Note_on_c, 0, 72, 45
1, 122740, Note_off_c, 0, 71, 34
1, 122741, Control_c, 0, 64, 91
1, 122756, Control_c, 0, 64, 93
1, 122757, Note_off_c, 0, 55, 40
1, 122771, Control_c, 0, 64, 95
1, 122772, Note_on_c, 0, 65, 35
1, 122786, Control_c, 0, 64, 95
1, 122800, Control_c, 0, 64, 96
1, 122833, Note_off_c, 0, 72, 58
1, 122845, Control_c, 0, 64, 97
1, 122860, Control_c, 0, 64, 97
1, 122868, Note_on_c, 0, 71, 45
1, 122889, Control_c, 0, 64, 98
1, 122933, Control_c, 0, 64, 98
1, 122939, Note_off_c, 0, 65, 39
1, 122980, Note_on_c, 0, 55, 29
1, 122990, Note_on_c, 0, 72, 45
1, 123008, Note_off_c, 0, 71, 35
1, 123079, Note_off_c, 0, 72, 61
1, 123125, Note_off_c, 0, 55, 26
1, 123136, Note_on_c, 0, 71, 40
1, 123144, Note_off_c, 0, 80, 53
1, 123169, Note_on_c, 0, 65, 35
1, 123234, Note_off_c, 0, 71, 44
1, 123245, Note_on_c, 0, 72, 41
1, 123353, Note_off_c, 0, 72, 60
1, 123386, Control_c, 0, 64, 96
1, 123395, Note_on_c, 0, 77, 59
1, 123398, Note_off_c, 0, 65, 40
1, 123401, Control_c, 0, 64, 90
1, 123404, Note_on_c, 0, 71, 37
1, 123415, Control_c, 0, 64, 81
1, 123420, Note_on_c, 0, 55, 32
1, 123430, Control_c, 0, 64, 66
1, 123445, Control_c, 0, 64, 0
1, 123504, Control_c, 0, 64, 59
1, 123519, Control_c, 0, 64, 68
1, 123530, Note_off_c, 0, 71, 40
1, 123534, Control_c, 0, 64, 71
1, 123548, Control_c, 0, 64, 75
1, 123549, Note_on_c, 0, 72, 42
1, 123563, Control_c, 0, 64, 78
1, 123578, Control_c, 0, 64, 81
1, 123593, Control_c, 0, 64, 84
1, 123608, Control_c, 0, 64, 86
1, 123610, Note_off_c, 0, 55, 17
1, 123619, Note_on_c, 0, 65, 36
1, 123623, Control_c, 0, 64, 88
1, 123633, Note_off_c, 0, 72, 53
1, 123638, Control_c, 0, 64, 90
1, 123653, Control_c, 0, 64, 91
1, 123667, Control_c, 0, 64, 92
1, 123676, Note_on_c, 0, 71, 37
1, 123682, Control_c, 0, 64, 94
1, 123697, Control_c, 0, 64, 94
1, 123712, Control_c, 0, 64, 95
1, 123727, Control_c, 0, 64, 95
1, 123741, Control_c, 0, 64, 96
1, 123771, Control_c, 0, 64, 96
1, 123781, Note_off_c, 0, 65, 39
1, 123786, Control_c, 0, 64, 97
1, 123807, Note_on_c, 0, 55, 28
1, 123820, Note_off_c, 0, 71, 39
1, 123827, Note_on_c, 0, 72, 47
1, 123831, Control_c, 0, 64, 97
1, 123876, Control_c, 0, 64, 98
1, 123904, Note_off_c, 0, 72, 59
1, 123941, Note_off_c, 0, 55, 30
1, 123959, Note_on_c, 0, 71, 38
1, 123971, Note_on_c, 0, 65, 32
1, 124067, Note_on_c, 0, 72, 42
1, 124083, Note_off_c, 0, 71, 36
1, 124164, Control_c, 0, 64, 97
1, 124171, Note_off_c, 0, 65, 39
1, 124175, Note_off_c, 0, 72, 60
1, 124179, Control_c, 0, 64, 95
1, 124192, Note_off_c, 0, 77, 38
1, 124194, Control_c, 0, 64, 87
1, 124203, Note_on_c, 0, 79, 58
1, 124209, Note_on_c, 0, 55, 42
1, 124209, Control_c, 0, 64, 75
1, 124211, Note_on_c, 0, 71, 39
1, 124224, Control_c, 0, 64, 61
1, 124239, Control_c, 0, 64, 0
1, 124257, Note_off_c, 0, 71, 42
1, 124284, Control_c, 0, 64, 54
1, 124298, Control_c, 0, 64, 67
1, 124305, Note_on_c, 0, 72, 50
1, 124313, Control_c, 0, 64, 70
1, 124328, Control_c, 0, 64, 72
1, 124343, Control_c, 0, 64, 73
1, 124345, Note_off_c, 0, 72, 64
1, 124358, Control_c, 0, 64, 75
1, 124372, Control_c, 0, 64, 77
1, 124375, Note_off_c, 0, 55, 37
1, 124382, Note_on_c, 0, 71, 44
1, 124387, Control_c, 0, 64, 78
1, 124388, Note_on_c, 0, 62, 35
1, 124402, Control_c, 0, 64, 79
1, 124417, Control_c, 0, 64, 80
1, 124432, Control_c, 0, 64, 80
1, 124438, Note_off_c, 0, 71, 55
1, 124446, Control_c, 0, 64, 81
1, 124466, Note_on_c, 0, 72, 45
1, 124476, Control_c, 0, 67, 127
1, 124490, Control_c, 0, 64, 81
1, 124490, Control_c, 0, 67, 121
1, 124496, Note_off_c, 0, 72, 54
1, 124505, Control_c, 0, 64, 82
1, 124505, Control_c, 0, 67, 115
1, 124520, Control_c, 0, 67, 109
1, 124535, Control_c, 0, 67, 103
1, 124544, Note_off_c, 0, 62, 35
1, 124550, Control_c, 0, 67, 98
1, 124552, Note_on_c, 0, 71, 39
1, 124564, Control_c, 0, 67, 93
1, 124579, Control_c, 0, 67, 87
1, 124585, Note_off_c, 0, 71, 49
1, 124594, Note_on_c, 0, 55, 40
1, 124594, Control_c, 0, 67, 80
1, 124600, Note_on_c, 0, 72, 54
1, 124609, Control_c, 0, 67, 73
1, 124624, Control_c, 0, 67, 68
1, 124631, Note_off_c, 0, 72, 55
1, 124638, Control_c, 0, 67, 64
1, 124653, Control_c, 0, 67, 60
1, 124669, Control_c, 0, 64, 82
1, 124669, Control_c, 0, 67, 59
1, 124692, Control_c, 0, 67, 57
1, 124701, Note_on_c, 0, 71, 39
1, 124707, Control_c, 0, 67, 56
1, 124721, Control_c, 0, 67, 54
1, 124729, Note_off_c, 0, 71, 52
1, 124736, Control_c, 0, 67, 52
1, 124742, Note_on_c, 0, 72, 56
1, 124751, Control_c, 0, 67, 49
1, 124752, Note_off_c, 0, 55, 26
1, 124766, Control_c, 0, 64, 83
1, 124766, Control_c, 0, 67, 47
1, 124781, Control_c, 0, 67, 44
1, 124784, Note_off_c, 0, 72, 62
1, 124795, Control_c, 0, 67, 41
1, 124798, Note_on_c, 0, 62, 37
1, 124810, Control_c, 0, 67, 38
1, 124825, Control_c, 0, 67, 35
1, 124829, Note_on_c, 0, 71, 44
1, 124840, Control_c, 0, 64, 83
1, 124840, Control_c, 0, 67, 32
1, 124847, Note_off_c, 0, 62, 43
1, 124855, Control_c, 0, 67, 29
1, 124869, Control_c, 0, 67, 26
1, 124871, Note_off_c, 0, 71, 43
1, 124884, Control_c, 0, 67, 22
1, 124899, Control_c, 0, 67, 18
1, 124905, Note_on_c, 0, 72, 30
1, 124913, Control_c, 0, 67, 14
1, 124927, Note_off_c, 0, 79, 51
1, 124928, Control_c, 0, 67, 9
1, 124933, Note_off_c, 0, 72, 47
1, 124943, Control_c, 0, 67, 0
1, 124952, Note_on_c, 0, 71, 5
1, 124997, Note_off_c, 0, 71, 27
1, 125002, Control_c, 0, 64, 82
1, 125017, Control_c, 0, 64, 80
1, 125024, Note_on_c, 0, 72, 59
1, 125032, Control_c, 0, 64, 75
1, 125039, Note_on_c, 0, 79, 58
1, 125047, Control_c, 0, 64, 68
1, 125051, Note_on_c, 0, 60, 40
1, 125062, Control_c, 0, 64, 46
1, 125065, Note_off_c, 0, 72, 62
1, 125077, Control_c, 0, 64, 0
1, 125122, Note_on_c, 0, 74, 55
1, 125126, Note_off_c, 0, 60, 41
1, 125164, Note_off_c, 0, 74, 62
1, 125197, Note_on_c, 0, 72, 48
1, 125223, Note_off_c, 0, 72, 58
1, 125244, Note_on_c, 0, 63, 40
1, 125267, Note_on_c, 0, 74, 49
1, 125295, Note_off_c, 0, 74, 59
1, 125304, Note_off_c, 0, 63, 42
1, 125317, Note_on_c, 0, 72, 51
1, 125348, Note_off_c, 0, 72, 62
1, 125387, Note_on_c, 0, 74, 51
1, 125415, Note_off_c, 0, 74, 61
1, 125457, Note_on_c, 0, 72, 49
1, 125460, Note_on_c, 0, 60, 40
1, 125481, Note_off_c, 0, 72, 59
1, 125506, Note_off_c, 0, 60, 45
1, 125513, Note_on_c, 0, 74, 52
1, 125537, Note_off_c, 0, 74, 62
1, 125568, Note_on_c, 0, 72, 50
1, 125591, Note_off_c, 0, 72, 61
1, 125626, Note_on_c, 0, 74, 58
1, 125653, Note_on_c, 0, 63, 39
1, 125658, Note_off_c, 0, 74, 62
1, 125700, Note_off_c, 0, 63, 45
1, 125729, Note_off_c, 0, 79, 31
1, 125732, Note_on_c, 0, 74, 58
1, 125795, Note_on_c, 0, 72, 30
1, 125800, Note_off_c, 0, 74, 56
1, 125843, Note_off_c, 0, 72, 64
1, 125861, Note_on_c, 0, 71, 44
1, 125869, Note_on_c, 0, 55, 37
1, 125896, Note_off_c, 0, 71, 50
1, 125913, Note_off_c, 0, 55, 46
1, 125950, Note_on_c, 0, 72, 45
1, 125991, Note_off_c, 0, 72, 63
1, 126005, Note_on_c, 0, 71, 50
1, 126058, Note_off_c, 0, 71, 59
1, 126084, Note_on_c, 0, 72, 56
1, 126090, Note_on_c, 0, 62, 30
1, 126124, Note_off_c, 0, 72, 62
1, 126127, Note_off_c, 0, 62, 51
1, 126150, Note_on_c, 0, 71, 54
1, 126195, Note_off_c, 0, 71, 63
1, 126240, Note_on_c, 0, 72, 41
1, 126269, Note_off_c, 0, 72, 59
1, 126299, Note_on_c, 0, 71, 52
1, 126325, Note_on_c, 0, 55, 34
1, 126326, Note_off_c, 0, 71, 59
1, 126371, Note_on_c, 0, 72, 43
1, 126371, Note_off_c, 0, 55, 45
1, 126397, Note_off_c, 0, 72, 58
1, 126422, Note_on_c, 0, 71, 53
1, 126450, Note_off_c, 0, 71, 60
1, 126489, Note_on_c, 0, 72, 52
1, 126549, Note_on_c, 0, 71, 51
1, 126553, Note_off_c, 0, 72, 46
1, 126562, Note_on_c, 0, 62, 39
1, 126601, Note_off_c, 0, 62, 51
1, 126613, Note_off_c, 0, 71, 55
1, 126646, Note_on_c, 0, 69, 50
1, 126714, Note_off_c, 0, 69, 54
1, 126748, Note_on_c, 0, 71, 49
1, 126816, Note_off_c, 0, 71, 53
1, 126953, Note_on_c, 0, 72, 40
1, 126970, Note_on_c, 0, 48, 37
1, 126972, Note_on_c, 0, 60, 33
1, 127249, Control_c, 0, 64, 50
1, 127263, Control_c, 0, 64, 65
1, 127278, Control_c, 0, 64, 67
1, 127293, Control_c, 0, 64, 69
1, 127307, Control_c, 0, 64, 71
1, 127322, Control_c, 0, 64, 74
1, 127337, Control_c, 0, 64, 77
1, 127352, Control_c, 0, 64, 79
1, 127367, Control_c, 0, 64, 80
1, 127382, Control_c, 0, 64, 81
1, 127396, Control_c, 0, 64, 81
1, 127411, Control_c, 0, 64, 82
1, 127426, Control_c, 0, 64, 83
1, 127441, Control_c, 0, 64, 85
1, 127456, Control_c, 0, 64, 86
1, 127458, Note_off_c, 0, 48, 40
1, 127470, Control_c, 0, 64, 86
1, 127482, Note_off_c, 0, 60, 32
1, 127485, Control_c, 0, 64, 87
1, 127500, Control_c, 0, 64, 87
1, 127530, Control_c, 0, 64, 88
1, 127536, Note_off_c, 0, 72, 36
1, 127648, Control_c, 0, 64, 87
1, 127663, Control_c, 0, 64, 84
1, 127685, Control_c, 0, 64, 77
1, 127700, Control_c, 0, 64, 68
1, 127715, Control_c, 0, 64, 44
1, 127730, Control_c, 0, 64, 0
1, 128018, Note_on_c, 0, 36, 78
1, 128099, Note_on_c, 0, 31, 67
1, 128114, Note_off_c, 0, 36, 63
1, 128176, Note_on_c, 0, 33, 69
1, 128196, Note_off_c, 0, 31, 62
1, 128236, Note_on_c, 0, 35, 69
1, 128263, Note_off_c, 0, 33, 62
1, 128309, Note_on_c, 0, 79, 86
1, 128312, Note_on_c, 0, 36, 77
1, 128314, Note_off_c, 0, 35, 64
1, 128315, Note_on_c, 0, 67, 82
1, 128385, Note_off_c, 0, 36, 57
1, 128390, Note_on_c, 0, 31, 64
1, 128459, Note_on_c, 0, 33, 68
1, 128482, Note_off_c, 0, 31, 62
1, 128531, Note_on_c, 0, 35, 70
1, 128552, Note_off_c, 0, 33, 63
1, 128567, Control_c, 0, 64, 57
1, 128582, Control_c, 0, 64, 64
1, 128597, Control_c, 0, 64, 64
1, 128607, Note_off_c, 0, 35, 64
1, 128611, Note_on_c, 0, 36, 71
1, 128627, Control_c, 0, 64, 65
1, 128642, Control_c, 0, 64, 66
1, 128657, Control_c, 0, 64, 67
1, 128672, Note_off_c, 0, 36, 59
1, 128672, Control_c, 0, 64, 68
1, 128679, Note_on_c, 0, 31, 66
1, 128686, Control_c, 0, 64, 68
1, 128701, Control_c, 0, 64, 69
1, 128717, Note_off_c, 0, 79, 48
1, 128747, Note_on_c, 0, 33, 70
1, 128760, Note_off_c, 0, 67, 56
1, 128762, Note_off_c, 0, 31, 60
1, 128806, Control_c, 0, 64, 68
1, 128821, Control_c, 0, 64, 68
1, 128825, Note_on_c, 0, 35, 65
1, 128847, Note_off_c, 0, 33, 62
1, 128850, Control_c, 0, 64, 67
1, 128864, Control_c, 0, 64, 65
1, 128878, Control_c, 0, 64, 62
1, 128886, Note_on_c, 0, 36, 71
1, 128889, Note_on_c, 0, 77, 70
1, 128893, Note_on_c, 0, 65, 76
1, 128893, Control_c, 0, 64, 56
1, 128895, Note_off_c, 0, 35, 64
1, 128908, Control_c, 0, 64, 47
1, 128913, Note_off_c, 0, 77, 67
1, 128918, Note_off_c, 0, 65, 71
1, 128923, Control_c, 0, 64, 38
1, 128928, Note_off_c, 0, 36, 61
1, 128938, Control_c, 0, 64, 29
1, 128952, Control_c, 0, 64, 18
1, 128964, Note_on_c, 0, 31, 67
1, 128967, Control_c, 0, 64, 0
1, 129030, Note_on_c, 0, 33, 64
1, 129053, Note_off_c, 0, 31, 59
1, 129098, Note_on_c, 0, 35, 71
1, 129123, Note_off_c, 0, 33, 62
1, 129160, Note_on_c, 0, 63, 79
1, 129160, Note_on_c, 0, 75, 77
1, 129162, Note_on_c, 0, 36, 65
1, 129166, Note_off_c, 0, 35, 64
1, 129188, Note_off_c, 0, 75, 71
1, 129190, Note_off_c, 0, 63, 70
1, 129220, Note_off_c, 0, 36, 62
1, 129229, Note_on_c, 0, 31, 61
1, 129296, Note_on_c, 0, 33, 65
1, 129320, Note_off_c, 0, 31, 60
1, 129362, Note_on_c, 0, 35, 68
1, 129393, Note_off_c, 0, 33, 64
1, 129423, Note_off_c, 0, 35, 63
1, 129429, Note_on_c, 0, 36, 61
1, 129438, Note_on_c, 0, 60, 78
1, 129440, Note_on_c, 0, 72, 72
1, 129462, Note_off_c, 0, 60, 69
1, 129464, Note_off_c, 0, 72, 70
1, 129467, Note_off_c, 0, 36, 63
1, 129497, Note_on_c, 0, 38, 59
1, 129573, Note_on_c, 0, 39, 70
1, 129581, Note_off_c, 0, 38, 62
1, 129598, Control_c, 0, 64, 16
1, 129661, Note_on_c, 0, 43, 44
1, 129664, Note_on_c, 0, 42, 35
1, 129676, Note_off_c, 0, 39, 61
1, 129702, Note_off_c, 0, 42, 56
1, 129703, Note_off_c, 0, 43, 0
1, 129703, Note_on_c, 0, 43, 38
1, 129706, Note_on_c, 0, 59, 81
1, 129709, Note_on_c, 0, 71, 79
1, 129726, Note_off_c, 0, 59, 69
1, 129731, Control_c, 0, 64, 13
1, 129736, Note_off_c, 0, 71, 65
1, 129746, Control_c, 0, 64, 18
1, 129758, Note_off_c, 0, 43, 62
1, 129761, Control_c, 0, 64, 23
1, 129775, Control_c, 0, 64, 24
1, 129789, Note_on_c, 0, 38, 64
1, 129790, Control_c, 0, 64, 21
1, 129805, Control_c, 0, 64, 16
1, 129835, Control_c, 0, 64, 21
1, 129849, Control_c, 0, 64, 27
1, 129852, Note_on_c, 0, 40, 66
1, 129864, Control_c, 0, 64, 29
1, 129867, Note_off_c, 0, 38, 61
1, 129879, Control_c, 0, 64, 27
1, 129894, Control_c, 0, 64, 24
1, 129900, Note_on_c, 0, 42, 76
1, 129915, Note_off_c, 0, 40, 63
1, 129932, Control_c, 0, 64, 27
1, 129947, Control_c, 0, 64, 32
1, 129962, Control_c, 0, 64, 33
1, 129977, Control_c, 0, 64, 30
1, 129987, Note_on_c, 0, 86, 86
1, 129991, Note_off_c, 0, 42, 63
1, 129991, Control_c, 0, 64, 27
1, 129992, Note_on_c, 0, 43, 77
1, 129992, Note_on_c, 0, 74, 81
1, 130006, Control_c, 0, 64, 26
1, 130021, Control_c, 0, 64, 27
1, 130035, Control_c, 0, 64, 33
1, 130052, Note_off_c, 0, 43, 56
1, 130063, Note_on_c, 0, 38, 67
1, 130065, Control_c, 0, 64, 30
1, 130080, Control_c, 0, 64, 24
1, 130095, Control_c, 0, 64, 18
1, 130124, Control_c, 0, 64, 25
1, 130129, Note_on_c, 0, 40, 71
1, 130139, Control_c, 0, 64, 32
1, 130144, Note_off_c, 0, 38, 58
1, 130154, Control_c, 0, 64, 34
1, 130191, Note_on_c, 0, 42, 77
1, 130198, Control_c, 0, 64, 32
1, 130205, Note_off_c, 0, 40, 63
1, 130228, Control_c, 0, 64, 34
1, 130243, Control_c, 0, 64, 35
1, 130268, Note_on_c, 0, 43, 80
1, 130271, Note_off_c, 0, 42, 64
1, 130318, Control_c, 0, 64, 36
1, 130321, Note_off_c, 0, 43, 55
1, 130332, Control_c, 0, 64, 36
1, 130335, Note_on_c, 0, 38, 71
1, 130347, Control_c, 0, 64, 37
1, 130378, Control_c, 0, 64, 36
1, 130403, Note_on_c, 0, 40, 71
1, 130407, Note_off_c, 0, 86, 53
1, 130407, Control_c, 0, 64, 37
1, 130420, Note_off_c, 0, 38, 61
1, 130422, Control_c, 0, 64, 38
1, 130437, Note_off_c, 0, 74, 57
1, 130452, Control_c, 0, 64, 37
1, 130469, Note_on_c, 0, 42, 74
1, 130489, Note_off_c, 0, 40, 58
1, 130496, Control_c, 0, 64, 38
1, 130511, Control_c, 0, 64, 39
1, 130526, Control_c, 0, 64, 39
1, 130541, Note_on_c, 0, 43, 77
1, 130543, Note_off_c, 0, 42, 63
1, 130547, Note_on_c, 0, 84, 78
1, 130550, Note_on_c, 0, 72, 74
1, 130570, Note_off_c, 0, 84, 69
1, 130573, Note_off_c, 0, 72, 71
1, 130584, Note_off_c, 0, 43, 61
1, 130585, Control_c, 0, 64, 40
1, 130617, Note_on_c, 0, 38, 65
1, 130659, Control_c, 0, 64, 41
1, 130681, Control_c, 0, 64, 42
1, 130696, Control_c, 0, 64, 43
1, 130697, Note_on_c, 0, 40, 71
1, 130703, Note_off_c, 0, 38, 62
1, 130726, Control_c, 0, 64, 42
1, 130740, Control_c, 0, 64, 42
1, 130756, Note_on_c, 0, 42, 77
1, 130769, Note_off_c, 0, 40, 60
1, 130770, Control_c, 0, 64, 42
1, 130800, Control_c, 0, 64, 43
1, 130826, Note_on_c, 0, 83, 77
1, 130828, Note_on_c, 0, 71, 75
1, 130829, Note_on_c, 0, 43, 74
1, 130830, Note_off_c, 0, 42, 64
1, 130845, Control_c, 0, 64, 42
1, 130849, Note_off_c, 0, 83, 65
1, 130850, Note_off_c, 0, 71, 69
1, 130871, Note_off_c, 0, 43, 61
1, 130887, Note_on_c, 0, 38, 66
1, 130904, Control_c, 0, 64, 42
1, 130919, Control_c, 0, 64, 41
1, 130933, Control_c, 0, 64, 41
1, 130957, Note_on_c, 0, 40, 69
1, 130963, Control_c, 0, 64, 41
1, 130977, Note_off_c, 0, 38, 60
1, 130978, Control_c, 0, 64, 42
1, 131014, Note_on_c, 0, 42, 71
1, 131022, Control_c, 0, 64, 41
1, 131047, Note_off_c, 0, 40, 63
1, 131052, Control_c, 0, 64, 41
1, 131068, Control_c, 0, 64, 42
1, 131086, Note_on_c, 0, 43, 78
1, 131087, Note_off_c, 0, 42, 63
1, 131095, Note_on_c, 0, 67, 72
1, 131096, Note_on_c, 0, 79, 72
1, 131097, Control_c, 0, 64, 42
1, 131112, Control_c, 0, 64, 41
1, 131118, Note_off_c, 0, 67, 69
1, 131123, Note_off_c, 0, 79, 64
1, 131127, Control_c, 0, 64, 41
1, 131142, Control_c, 0, 64, 41
1, 131149, Note_off_c, 0, 43, 60
1, 131156, Control_c, 0, 64, 43
1, 131160, Note_on_c, 0, 45, 77
1, 131186, Control_c, 0, 64, 42
1, 131201, Control_c, 0, 64, 42
1, 131230, Control_c, 0, 64, 42
1, 131235, Note_off_c, 0, 45, 64
1, 131241, Note_on_c, 0, 47, 76
1, 131245, Control_c, 0, 64, 44
1, 131260, Control_c, 0, 64, 46
1, 131274, Control_c, 0, 64, 47
1, 131290, Note_on_c, 0, 43, 75
1, 131303, Note_off_c, 0, 47, 64
1, 131304, Control_c, 0, 64, 46
1, 131334, Control_c, 0, 64, 48
1, 131348, Control_c, 0, 64, 50
1, 131353, Note_off_c, 0, 43, 62
1, 131363, Note_on_c, 0, 48, 81
1, 131363, Control_c, 0, 64, 51
1, 131378, Control_c, 0, 64, 51
1, 131393, Control_c, 0, 64, 49
1, 131430, Control_c, 0, 64, 50
1, 131434, Note_off_c, 0, 48, 61
1, 131435, Note_on_c, 0, 43, 79
1, 131445, Control_c, 0, 64, 52
1, 131460, Control_c, 0, 64, 52
1, 131475, Control_c, 0, 64, 52
1, 131489, Control_c, 0, 64, 51
1, 131500, Note_on_c, 0, 45, 74
1, 131504, Control_c, 0, 64, 50
1, 131519, Control_c, 0, 64, 49
1, 131527, Note_off_c, 0, 43, 59
1, 131534, Control_c, 0, 64, 50
1, 131549, Control_c, 0, 64, 50
1, 131567, Note_on_c, 0, 47, 84
1, 131578, Control_c, 0, 64, 49
1, 131581, Note_off_c, 0, 45, 62
1, 131593, Control_c, 0, 64, 48
1, 131608, Control_c, 0, 64, 43
1, 131623, Control_c, 0, 64, 38
1, 131638, Control_c, 0, 64, 36
1, 131638, Note_on_c, 0, 85, 88
1, 131644, Note_on_c, 0, 48, 84
1, 131644, Note_on_c, 0, 73, 84
1, 131646, Note_off_c, 0, 47, 64
1, 131652, Control_c, 0, 64, 35
1, 131667, Control_c, 0, 64, 34
1, 131697, Control_c, 0, 64, 34
1, 131698, Note_off_c, 0, 48, 66
1, 131706, Note_on_c, 0, 43, 67
1, 131712, Control_c, 0, 64, 35
1, 131727, Control_c, 0, 64, 36
1, 131772, Note_on_c, 0, 45, 72
1, 131786, Control_c, 0, 64, 37
1, 131800, Control_c, 0, 64, 39
1, 131815, Control_c, 0, 64, 41
1, 131817, Note_off_c, 0, 43, 61
1, 131846, Note_on_c, 0, 47, 76
1, 131880, Note_off_c, 0, 45, 64
1, 131905, Control_c, 0, 64, 43
1, 131915, Note_on_c, 0, 48, 85
1, 131921, Note_off_c, 0, 47, 64
1, 131965, Control_c, 0, 64, 42
1, 131972, Note_off_c, 0, 48, 63
1, 131980, Note_on_c, 0, 43, 72
1, 131994, Control_c, 0, 64, 43
1, 132028, Note_off_c, 0, 85, 62
1, 132031, Note_off_c, 0, 73, 58
1, 132044, Note_on_c, 0, 45, 72
1, 132083, Note_off_c, 0, 43, 57
1, 132112, Control_c, 0, 64, 42
1, 132117, Note_on_c, 0, 47, 74
1, 132127, Control_c, 0, 64, 42
1, 132150, Note_off_c, 0, 45, 63
1, 132157, Control_c, 0, 64, 43
1, 132186, Note_on_c, 0, 84, 76
1, 132189, Note_on_c, 0, 48, 80
1, 132192, Note_on_c, 0, 72, 74
1, 132192, Note_off_c, 0, 47, 65
1, 132209, Note_off_c, 0, 84, 68
1, 132214, Note_off_c, 0, 72, 70
1, 132231, Note_off_c, 0, 48, 64
1, 132258, Note_on_c, 0, 43, 67
1, 132312, Control_c, 0, 64, 44
1, 132324, Note_on_c, 0, 45, 68
1, 132327, Control_c, 0, 64, 46
1, 132342, Control_c, 0, 64, 48
1, 132360, Note_off_c, 0, 43, 54
1, 132372, Control_c, 0, 64, 48
1, 132386, Control_c, 0, 64, 47
1, 132393, Note_on_c, 0, 47, 77
1, 132419, Note_off_c, 0, 45, 62
1, 132430, Control_c, 0, 64, 48
1, 132440, Note_on_c, 0, 82, 83
1, 132442, Note_on_c, 0, 70, 83
1, 132445, Control_c, 0, 64, 48
1, 132452, Note_off_c, 0, 47, 64
1, 132454, Note_on_c, 0, 48, 74
1, 132460, Control_c, 0, 64, 48
1, 132463, Note_off_c, 0, 82, 68
1, 132464, Note_off_c, 0, 70, 68
1, 132475, Control_c, 0, 64, 46
1, 132490, Control_c, 0, 64, 45
1, 132498, Note_off_c, 0, 48, 67
1, 132505, Control_c, 0, 64, 45
1, 132510, Note_on_c, 0, 43, 65
1, 132520, Control_c, 0, 64, 46
1, 132550, Control_c, 0, 64, 46
1, 132565, Control_c, 0, 64, 45
1, 132577, Note_on_c, 0, 45, 70
1, 132579, Control_c, 0, 64, 45
1, 132597, Note_off_c, 0, 43, 57
1, 132609, Control_c, 0, 64, 46
1, 132623, Control_c, 0, 64, 47
1, 132643, Note_on_c, 0, 47, 73
1, 132654, Control_c, 0, 64, 46
1, 132667, Note_off_c, 0, 45, 62
1, 132669, Control_c, 0, 64, 46
1, 132684, Control_c, 0, 64, 46
1, 132699, Control_c, 0, 64, 47
1, 132702, Note_on_c, 0, 48, 77
1, 132705, Note_off_c, 0, 47, 65
1, 132708, Note_on_c, 0, 72, 77
1, 132710, Note_on_c, 0, 60, 81
1, 132711, Note_on_c, 0, 67, 73
1, 132731, Note_off_c, 0, 60, 70
1, 132735, Note_off_c, 0, 67, 66
1, 132743, Control_c, 0, 64, 47
1, 132747, Note_off_c, 0, 72, 65
1, 132752, Note_off_c, 0, 48, 59
1, 132776, Note_on_c, 0, 50, 76
1, 132788, Control_c, 0, 64, 47
1, 132817, Control_c, 0, 64, 46
1, 132832, Control_c, 0, 64, 46
1, 132841, Note_off_c, 0, 50, 64
1, 132844, Note_on_c, 0, 52, 79
1, 132847, Control_c, 0, 64, 45
1, 132861, Control_c, 0, 64, 46
1, 132876, Control_c, 0, 64, 47
1, 132893, Note_on_c, 0, 48, 77
1, 132907, Note_off_c, 0, 52, 66
1, 132943, Control_c, 0, 64, 47
1, 132958, Control_c, 0, 64, 47
1, 132964, Note_off_c, 0, 48, 66
1, 132976, Note_on_c, 0, 53, 85
1, 133032, Control_c, 0, 64, 48
1, 133041, Note_off_c, 0, 53, 62
1, 133045, Note_on_c, 0, 48, 75
1, 133091, Control_c, 0, 64, 48
1, 133103, Note_on_c, 0, 50, 73
1, 133106, Control_c, 0, 64, 47
1, 133132, Note_off_c, 0, 48, 63
1, 133150, Control_c, 0, 64, 48
1, 133165, Control_c, 0, 64, 47
1, 133174, Note_on_c, 0, 52, 79
1, 133180, Control_c, 0, 64, 47
1, 133195, Control_c, 0, 64, 45
1, 133202, Note_off_c, 0, 50, 60
1, 133209, Control_c, 0, 64, 43
1, 133224, Control_c, 0, 64, 41
1, 133239, Control_c, 0, 64, 39
1, 133249, Note_off_c, 0, 52, 65
1, 133250, Note_on_c, 0, 53, 82
1, 133253, Control_c, 0, 64, 37
1, 133259, Note_on_c, 0, 84, 87
1, 133263, Note_on_c, 0, 72, 85
1, 133268, Control_c, 0, 64, 32
1, 133283, Control_c, 0, 64, 29
1, 133298, Control_c, 0, 64, 33
1, 133304, Note_off_c, 0, 53, 62
1, 133313, Control_c, 0, 64, 36
1, 133319, Note_on_c, 0, 48, 71
1, 133343, Control_c, 0, 64, 34
1, 133358, Control_c, 0, 64, 34
1, 133387, Control_c, 0, 64, 34
1, 133389, Note_on_c, 0, 50, 76
1, 133402, Control_c, 0, 64, 36
1, 133417, Note_off_c, 0, 48, 62
1, 133417, Control_c, 0, 64, 37
1, 133447, Control_c, 0, 64, 38
1, 133461, Note_on_c, 0, 52, 74
1, 133462, Control_c, 0, 64, 39
1, 133477, Control_c, 0, 64, 40
1, 133492, Note_off_c, 0, 50, 60
1, 133521, Control_c, 0, 64, 39
1, 133526, Note_on_c, 0, 53, 81
1, 133532, Note_off_c, 0, 52, 65
1, 133536, Control_c, 0, 64, 39
1, 133551, Control_c, 0, 64, 38
1, 133581, Control_c, 0, 64, 39
1, 133583, Note_off_c, 0, 53, 64
1, 133592, Note_on_c, 0, 48, 73
1, 133596, Control_c, 0, 64, 40
1, 133640, Control_c, 0, 64, 39
1, 133659, Note_on_c, 0, 50, 72
1, 133663, Note_off_c, 0, 72, 61
1, 133677, Control_c, 0, 64, 40
1, 133679, Note_off_c, 0, 84, 63
1, 133691, Note_off_c, 0, 48, 63
1, 133691, Control_c, 0, 64, 41
1, 133706, Control_c, 0, 64, 41
1, 133736, Control_c, 0, 64, 42
1, 133741, Note_on_c, 0, 52, 78
1, 133751, Control_c, 0, 64, 43
1, 133766, Control_c, 0, 64, 46
1, 133770, Note_off_c, 0, 50, 58
1, 133781, Control_c, 0, 64, 48
1, 133796, Control_c, 0, 64, 50
1, 133811, Control_c, 0, 64, 51
1, 133812, Note_on_c, 0, 53, 81
1, 133815, Note_on_c, 0, 82, 83
1, 133816, Note_on_c, 0, 70, 83
1, 133817, Note_off_c, 0, 52, 66
1, 133825, Control_c, 0, 64, 52
1, 133835, Note_off_c, 0, 70, 71
1, 133837, Note_off_c, 0, 82, 67
1, 133855, Control_c, 0, 64, 51
1, 133867, Note_off_c, 0, 53, 63
1, 133870, Control_c, 0, 64, 50
1, 133883, Note_on_c, 0, 48, 71
1, 133899, Control_c, 0, 64, 50
1, 133914, Control_c, 0, 64, 49
1, 133944, Control_c, 0, 64, 48
1, 133950, Note_on_c, 0, 50, 70
1, 133958, Control_c, 0, 64, 48
1, 133973, Control_c, 0, 64, 47
1, 133977, Note_off_c, 0, 48, 57
1, 134022, Note_on_c, 0, 52, 73
1, 134047, Control_c, 0, 64, 48
1, 134049, Note_off_c, 0, 50, 60
1, 134062, Control_c, 0, 64, 48
1, 134083, Note_on_c, 0, 53, 78
1, 134085, Note_off_c, 0, 52, 66
1, 134086, Note_on_c, 0, 81, 82
1, 134088, Note_on_c, 0, 69, 83
1, 134114, Note_off_c, 0, 69, 66
1, 134121, Note_off_c, 0, 81, 63
1, 134121, Control_c, 0, 64, 48
1, 134129, Note_off_c, 0, 53, 64
1, 134153, Note_on_c, 0, 48, 69
1, 134216, Note_on_c, 0, 50, 69
1, 134225, Control_c, 0, 64, 48
1, 134240, Control_c, 0, 64, 49
1, 134240, Note_off_c, 0, 48, 61
1, 134285, Control_c, 0, 64, 49
1, 134287, Note_on_c, 0, 52, 74
1, 134300, Control_c, 0, 64, 49
1, 134308, Note_off_c, 0, 50, 62
1, 134314, Control_c, 0, 64, 50
1, 134329, Control_c, 0, 64, 50
1, 134344, Note_off_c, 0, 52, 66
1, 134349, Note_on_c, 0, 53, 80
1, 134355, Note_on_c, 0, 77, 80
1, 134362, Note_on_c, 0, 65, 76
1, 134385, Note_off_c, 0, 65, 71
1, 134389, Control_c, 0, 64, 51
1, 134391, Note_off_c, 0, 53, 63
1, 134404, Control_c, 0, 64, 51
1, 134407, Note_off_c, 0, 77, 62
1, 134426, Control_c, 0, 64, 52
1, 134432, Note_on_c, 0, 55, 78
1, 134441, Control_c, 0, 64, 51
1, 134455, Control_c, 0, 64, 50
1, 134490, Note_off_c, 0, 55, 64
1, 134493, Note_on_c, 0, 57, 75
1, 134499, Control_c, 0, 64, 51
1, 134547, Note_on_c, 0, 53, 76
1, 134554, Note_off_c, 0, 57, 63
1, 134592, Note_off_c, 0, 53, 66
1, 134604, Control_c, 0, 64, 51
1, 134627, Note_on_c, 0, 57, 76
1, 134648, Control_c, 0, 64, 52
1, 134663, Control_c, 0, 64, 52
1, 134690, Note_off_c, 0, 57, 56
1, 134696, Note_on_c, 0, 54, 71
1, 134707, Control_c, 0, 64, 52
1, 134768, Note_on_c, 0, 57, 72
1, 134781, Control_c, 0, 64, 51
1, 134792, Note_off_c, 0, 54, 57
1, 134796, Control_c, 0, 64, 50
1, 134811, Control_c, 0, 64, 49
1, 134834, Note_on_c, 0, 59, 78
1, 134840, Control_c, 0, 64, 48
1, 134843, Note_off_c, 0, 57, 61
1, 134855, Control_c, 0, 64, 45
1, 134870, Control_c, 0, 64, 41
1, 134885, Control_c, 0, 64, 37
1, 134897, Note_on_c, 0, 87, 91
1, 134899, Control_c, 0, 64, 36
1, 134901, Note_on_c, 0, 60, 83
1, 134901, Note_on_c, 0, 75, 95
1, 134908, Note_off_c, 0, 59, 62
1, 134914, Control_c, 0, 64, 37
1, 134929, Control_c, 0, 64, 38
1, 134944, Control_c, 0, 64, 38
1, 134959, Control_c, 0, 64, 39
1, 134971, Note_on_c, 0, 54, 64
1, 134973, Control_c, 0, 64, 40
1, 134974, Note_off_c, 0, 60, 57
1, 134988, Control_c, 0, 64, 41
1, 135003, Control_c, 0, 64, 42
1, 135033, Control_c, 0, 64, 41
1, 135064, Control_c, 0, 64, 42
1, 135072, Note_on_c, 0, 57, 57
1, 135078, Control_c, 0, 64, 44
1, 135088, Note_off_c, 0, 54, 49
1, 135093, Control_c, 0, 64, 45
1, 135114, Note_on_c, 0, 59, 71
1, 135131, Note_off_c, 0, 57, 61
1, 135137, Control_c, 0, 64, 45
1, 135197, Note_on_c, 0, 60, 79
1, 135206, Note_off_c, 0, 59, 59
1, 135234, Control_c, 0, 64, 46
1, 135248, Control_c, 0, 64, 47
1, 135261, Note_on_c, 0, 54, 63
1, 135272, Note_off_c, 0, 60, 59
1, 135308, Control_c, 0, 64, 47
1, 135337, Note_on_c, 0, 57, 66
1, 135337, Note_off_c, 0, 87, 63
1, 135340, Note_off_c, 0, 75, 60
1, 135359, Note_off_c, 0, 54, 52
1, 135367, Control_c, 0, 64, 46
1, 135382, Control_c, 0, 64, 45
1, 135399, Note_on_c, 0, 59, 76
1, 135404, Note_off_c, 0, 57, 58
1, 135411, Control_c, 0, 64, 46
1, 135445, Note_on_c, 0, 86, 81
1, 135448, Note_on_c, 0, 74, 81
1, 135454, Note_on_c, 0, 60, 76
1, 135456, Control_c, 0, 64, 45
1, 135465, Note_off_c, 0, 59, 61
1, 135470, Note_off_c, 0, 74, 70
1, 135471, Control_c, 0, 64, 45
1, 135474, Note_off_c, 0, 86, 64
1, 135501, Control_c, 0, 64, 46
1, 135516, Control_c, 0, 64, 46
1, 135525, Note_on_c, 0, 54, 66
1, 135530, Control_c, 0, 64, 46
1, 135533, Note_off_c, 0, 60, 60
1, 135545, Control_c, 0, 64, 45
1, 135590, Control_c, 0, 64, 46
1, 135598, Note_on_c, 0, 57, 65
1, 135604, Note_off_c, 0, 54, 55
1, 135634, Control_c, 0, 64, 45
1, 135648, Control_c, 0, 64, 44
1, 135659, Note_on_c, 0, 59, 72
1, 135663, Note_off_c, 0, 57, 61
1, 135663, Control_c, 0, 64, 45
1, 135678, Control_c, 0, 64, 46
1, 135693, Control_c, 0, 64, 46
1, 135719, Note_on_c, 0, 84, 76
1, 135721, Note_on_c, 0, 72, 77
1, 135721, Note_off_c, 0, 59, 63
1, 135722, Control_c, 0, 64, 46
1, 135724, Note_on_c, 0, 60, 78
1, 135737, Control_c, 0, 64, 45
1, 135744, Note_off_c, 0, 72, 68
1, 135744, Note_off_c, 0, 84, 66
1, 135752, Control_c, 0, 64, 46
1, 135767, Control_c, 0, 64, 47
1, 135781, Note_on_c, 0, 54, 64
1, 135782, Control_c, 0, 64, 47
1, 135786, Note_off_c, 0, 60, 57
1, 135796, Control_c, 0, 64, 47
1, 135811, Control_c, 0, 64, 46
1, 135826, Control_c, 0, 64, 46
1, 135842, Control_c, 0, 64, 46
1, 135855, Note_on_c, 0, 57, 65
1, 135857, Control_c, 0, 64, 47
1, 135890, Note_off_c, 0, 54, 56
1, 135901, Control_c, 0, 64, 47
1, 135909, Note_on_c, 0, 59, 65
1, 135939, Control_c, 0, 64, 46
1, 135943, Note_off_c, 0, 57, 62
1, 135953, Control_c, 0, 64, 47
1, 135977, Note_on_c, 0, 60, 77
1, 135984, Note_off_c, 0, 59, 62
1, 135991, Note_on_c, 0, 81, 77
1, 135994, Note_on_c, 0, 69, 75
1, 136021, Note_off_c, 0, 69, 67
1, 136042, Control_c, 0, 64, 47
1, 136043, Note_on_c, 0, 54, 54
1, 136058, Note_off_c, 0, 60, 57
1, 136071, Control_c, 0, 64, 47
1, 136090, Note_on_c, 0, 57, 58
1, 136133, Note_off_c, 0, 54, 61
1, 136136, Note_off_c, 0, 81, 55
1, 136158, Note_off_c, 0, 57, 62
1, 136159, Note_on_c, 0, 60, 81
1, 136190, Control_c, 0, 64, 47
1, 136201, Note_off_c, 0, 60, 60
1, 136234, Control_c, 0, 64, 47
1, 136239, Note_on_c, 0, 62, 82
1, 136249, Control_c, 0, 64, 47
1, 136264, Control_c, 0, 64, 49
1, 136279, Control_c, 0, 64, 50
1, 136294, Control_c, 0, 64, 49
1, 136301, Note_off_c, 0, 62, 62
1, 136309, Control_c, 0, 64, 48
1, 136312, Note_on_c, 0, 59, 76
1, 136338, Control_c, 0, 64, 49
1, 136353, Control_c, 0, 64, 50
1, 136383, Control_c, 0, 64, 49
1, 136386, Note_on_c, 0, 62, 77
1, 136386, Note_off_c, 0, 59, 63
1, 136437, Note_on_c, 0, 63, 75
1, 136443, Control_c, 0, 64, 48
1, 136453, Note_off_c, 0, 62, 56
1, 136458, Control_c, 0, 64, 42
1, 136472, Control_c, 0, 64, 0
1, 136503, Note_on_c, 0, 92, 96
1, 136506, Note_on_c, 0, 80, 98
1, 136511, Note_on_c, 0, 65, 85
1, 136517, Note_off_c, 0, 63, 63
1, 136552, Note_off_c, 0, 65, 66
1, 136591, Note_on_c, 0, 62, 71
1, 136648, Note_on_c, 0, 65, 75
1, 136674, Note_off_c, 0, 62, 63
1, 136714, Note_off_c, 0, 65, 64
1, 136722, Note_on_c, 0, 67, 87
1, 136809, Note_on_c, 0, 68, 83
1, 136816, Note_off_c, 0, 67, 61
1, 136843, Note_off_c, 0, 68, 66
1, 136862, Note_on_c, 0, 62, 68
1, 136931, Note_on_c, 0, 65, 74
1, 136932, Note_on_c, 0, 66, 27
1, 136932, Note_off_c, 0, 62, 63
1, 136943, Note_off_c, 0, 92, 64
1, 136952, Note_off_c, 0, 80, 60
1, 136965, Note_off_c, 0, 66, 52
1, 137000, Note_on_c, 0, 67, 75
1, 137002, Note_off_c, 0, 65, 62
1, 137067, Note_on_c, 0, 68, 82
1, 137069, Note_on_c, 0, 91, 75
1, 137075, Note_on_c, 0, 79, 76
1, 137081, Note_off_c, 0, 67, 62
1, 137093, Note_off_c, 0, 91, 59
1, 137097, Note_off_c, 0, 79, 67
1, 137102, Note_off_c, 0, 68, 66
1, 137134, Note_on_c, 0, 62, 67
1, 137203, Note_on_c, 0, 65, 62
1, 137216, Note_off_c, 0, 62, 62
1, 137261, Note_on_c, 0, 67, 76
1, 137263, Note_off_c, 0, 65, 66
1, 137325, Note_on_c, 0, 68, 77
1, 137328, Note_on_c, 0, 89, 76
1, 137330, Note_on_c, 0, 77, 78
1, 137339, Note_off_c, 0, 67, 60
1, 137352, Note_off_c, 0, 68, 67
1, 137354, Note_off_c, 0, 77, 66
1, 137360, Note_off_c, 0, 89, 65
1, 137389, Note_on_c, 0, 62, 70
1, 137465, Note_on_c, 0, 65, 64
1, 137468, Note_off_c, 0, 62, 62
1, 137526, Note_off_c, 0, 65, 66
1, 137529, Note_on_c, 0, 67, 71
1, 137597, Note_on_c, 0, 68, 75
1, 137600, Note_on_c, 0, 74, 67
1, 137600, Note_on_c, 0, 86, 70
1, 137604, Note_off_c, 0, 67, 63
1, 137623, Note_off_c, 0, 68, 69
1, 137623, Note_off_c, 0, 74, 69
1, 137628, Note_off_c, 0, 86, 63
1, 137629, Control_c, 0, 64, 18
1, 137644, Control_c, 0, 64, 23
1, 137659, Note_on_c, 0, 62, 67
1, 137659, Control_c, 0, 64, 24
1, 137674, Control_c, 0, 64, 20
1, 137689, Control_c, 0, 64, 18
1, 137719, Control_c, 0, 64, 23
1, 137726, Note_on_c, 0, 65, 68
1, 137733, Control_c, 0, 64, 25
1, 137741, Note_off_c, 0, 62, 61
1, 137748, Control_c, 0, 64, 27
1, 137763, Control_c, 0, 64, 29
1, 137778, Control_c, 0, 64, 30
1, 137787, Note_off_c, 0, 65, 65
1, 137789, Note_on_c, 0, 67, 75
1, 137792, Control_c, 0, 64, 33
1, 137807, Control_c, 0, 64, 35
1, 137822, Control_c, 0, 64, 39
1, 137837, Control_c, 0, 64, 42
1, 137848, Note_off_c, 0, 67, 62
1, 137851, Control_c, 0, 64, 45
1, 137858, Note_on_c, 0, 68, 73
1, 137866, Control_c, 0, 64, 45
1, 137881, Control_c, 0, 64, 46
1, 137896, Control_c, 0, 64, 47
1, 137908, Note_off_c, 0, 68, 60
1, 137911, Control_c, 0, 64, 51
1, 137912, Note_on_c, 0, 67, 66
1, 137925, Control_c, 0, 64, 53
1, 137955, Control_c, 0, 64, 52
1, 137972, Note_off_c, 0, 67, 63
1, 137972, Note_on_c, 0, 65, 70
1, 137999, Control_c, 0, 64, 52
1, 138052, Note_on_c, 0, 63, 69
1, 138055, Note_off_c, 0, 65, 64
1, 138058, Control_c, 0, 64, 52
1, 138073, Control_c, 0, 64, 49
1, 138088, Control_c, 0, 64, 34
1, 138103, Control_c, 0, 64, 0
1, 138121, Note_off_c, 0, 63, 63
1, 138126, Note_on_c, 0, 83, 79
1, 138130, Note_on_c, 0, 62, 69
1, 138136, Note_on_c, 0, 71, 72
1, 138199, Control_c, 0, 64, 43
1, 138202, Note_on_c, 0, 63, 69
1, 138214, Control_c, 0, 64, 66
1, 138228, Note_off_c, 0, 62, 60
1, 138229, Control_c, 0, 64, 70
1, 138245, Control_c, 0, 64, 73
1, 138260, Control_c, 0, 64, 75
1, 138268, Note_on_c, 0, 65, 75
1, 138274, Control_c, 0, 64, 77
1, 138289, Control_c, 0, 64, 79
1, 138299, Note_off_c, 0, 63, 63
1, 138304, Control_c, 0, 64, 80
1, 138319, Control_c, 0, 64, 81
1, 138323, Note_off_c, 0, 65, 63
1, 138328, Note_on_c, 0, 67, 81
1, 138334, Control_c, 0, 64, 82
1, 138348, Control_c, 0, 64, 83
1, 138363, Control_c, 0, 64, 83
1, 138369, Note_off_c, 0, 71, 57
1, 138378, Control_c, 0, 64, 84
1, 138398, Note_on_c, 0, 65, 82
1, 138400, Note_off_c, 0, 67, 62
1, 138408, Control_c, 0, 64, 84
1, 138414, Note_off_c, 0, 83, 59
1, 138448, Note_on_c, 0, 63, 79
1, 138461, Note_off_c, 0, 65, 62
1, 138482, Control_c, 0, 64, 85
1, 138516, Note_off_c, 0, 63, 64
1, 138526, Control_c, 0, 64, 85
1, 138527, Note_on_c, 0, 62, 82
1, 138571, Control_c, 0, 64, 86
1, 138585, Note_off_c, 0, 62, 62
1, 138597, Note_on_c, 0, 60, 76
1, 138600, Control_c, 0, 64, 85
1, 138615, Control_c, 0, 64, 84
1, 138629, Control_c, 0, 64, 78
1, 138644, Control_c, 0, 64, 62
1, 138649, Note_on_c, 0, 86, 87
1, 138654, Note_off_c, 0, 60, 64
1, 138655, Note_on_c, 0, 74, 86
1, 138658, Note_on_c, 0, 59, 76
1, 138659, Control_c, 0, 64, 0
1, 138703, Control_c, 0, 64, 60
1, 138718, Control_c, 0, 64, 71
1, 138729, Note_off_c, 0, 59, 61
1, 138733, Control_c, 0, 64, 78
1, 138735, Note_on_c, 0, 60, 81
1, 138747, Control_c, 0, 64, 82
1, 138762, Control_c, 0, 64, 83
1, 138777, Control_c, 0, 64, 84
1, 138785, Note_off_c, 0, 60, 64
1, 138792, Control_c, 0, 64, 85
1, 138795, Note_off_c, 0, 86, 59
1, 138801, Note_on_c, 0, 62, 81
1, 138807, Control_c, 0, 64, 86
1, 138822, Control_c, 0, 64, 87
1, 138836, Control_c, 0, 64, 87
1, 138851, Control_c, 0, 64, 88
1, 138854, Note_off_c, 0, 74, 62
1, 138866, Control_c, 0, 64, 88
1, 138876, Note_on_c, 0, 63, 87
1, 138882, Note_off_c, 0, 62, 62
1, 138935, Note_off_c, 0, 63, 63
1, 138947, Control_c, 0, 64, 89
1, 138961, Note_on_c, 0, 62, 66
1, 138962, Control_c, 0, 64, 89
1, 138997, Note_off_c, 0, 62, 65
1, 139006, Control_c, 0, 64, 90
1, 139012, Note_on_c, 0, 60, 84
1, 139021, Control_c, 0, 64, 91
1, 139036, Control_c, 0, 64, 92
1, 139063, Note_off_c, 0, 60, 62
1, 139067, Control_c, 0, 64, 92
1, 139077, Note_on_c, 0, 59, 69
1, 139096, Control_c, 0, 64, 93
1, 139126, Control_c, 0, 64, 94
1, 139146, Note_off_c, 0, 59, 62
1, 139153, Note_on_c, 0, 56, 68
1, 139156, Control_c, 0, 64, 93
1, 139170, Control_c, 0, 64, 89
1, 139183, Note_on_c, 0, 71, 81
1, 139185, Note_on_c, 0, 59, 81
1, 139185, Control_c, 0, 64, 80
1, 139187, Note_on_c, 0, 62, 85
1, 139198, Note_off_c, 0, 56, 63
1, 139199, Note_on_c, 0, 67, 46
1, 139200, Control_c, 0, 64, 68
1, 139215, Control_c, 0, 64, 0
1, 139220, Note_off_c, 0, 62, 61
1, 139227, Note_on_c, 0, 55, 71
1, 139231, Note_off_c, 0, 59, 62
1, 139259, Note_off_c, 0, 67, 60
1, 139273, Note_off_c, 0, 71, 57
1, 139292, Note_off_c, 0, 55, 65
1, 139296, Note_on_c, 0, 53, 74
1, 139349, Note_on_c, 0, 51, 73
1, 139358, Note_off_c, 0, 53, 64
1, 139434, Note_off_c, 0, 51, 62
1, 139436, Note_on_c, 0, 50, 57
1, 139468, Note_on_c, 0, 72, 93
1, 139469, Note_on_c, 0, 60, 90
1, 139469, Note_on_c, 0, 63, 88
1, 139470, Note_on_c, 0, 67, 76
1, 139480, Note_on_c, 0, 48, 75
1, 139544, Note_off_c, 0, 50, 58
1, 139547, Note_on_c, 0, 51, 72
1, 139552, Note_off_c, 0, 48, 67
1, 139617, Note_on_c, 0, 55, 62
1, 139620, Note_off_c, 0, 51, 63
1, 139700, Note_on_c, 0, 53, 79
1, 139703, Note_off_c, 0, 55, 65
1, 139764, Note_on_c, 0, 51, 70
1, 139769, Note_off_c, 0, 53, 65
1, 139821, Note_off_c, 0, 51, 62
1, 139836, Note_on_c, 0, 50, 71
1, 139883, Note_off_c, 0, 50, 66
1, 139900, Note_on_c, 0, 48, 77
1, 139966, Note_off_c, 0, 48, 63
1, 139975, Note_on_c, 0, 47, 75
1, 139984, Note_off_c, 0, 72, 28
1, 140025, Note_on_c, 0, 48, 69
1, 140029, Note_off_c, 0, 63, 29
1, 140038, Note_off_c, 0, 47, 64
1, 140073, Note_off_c, 0, 48, 66
1, 140091, Note_on_c, 0, 50, 76
1, 140166, Note_on_c, 0, 51, 78
1, 140167, Note_off_c, 0, 50, 63
1, 140196, Note_off_c, 0, 67, 21
1, 140220, Note_off_c, 0, 51, 59
1, 140239, Note_on_c, 0, 50, 70
1, 140305, Note_on_c, 0, 48, 79
1, 140308, Note_off_c, 0, 50, 64
1, 140353, Note_off_c, 0, 48, 65
1, 140361, Note_on_c, 0, 46, 73
1, 140433, Note_on_c, 0, 44, 64
1, 140438, Note_off_c, 0, 46, 63
1, 140463, Note_off_c, 0, 44, 65
1, 140470, Note_off_c, 0, 60, 36
1, 140493, Note_on_c, 0, 43, 82
1, 140565, Note_on_c, 0, 44, 78
1, 140567, Note_off_c, 0, 43, 62
1, 140622, Note_off_c, 0, 44, 64
1, 140638, Note_on_c, 0, 43, 69
1, 140708, Note_on_c, 0, 41, 81
1, 140714, Note_off_c, 0, 43, 62
1, 140762, Note_off_c, 0, 41, 64
1, 140767, Note_on_c, 0, 39, 73
1, 140835, Note_off_c, 0, 39, 65
1, 140837, Note_on_c, 0, 38, 69
1, 140900, Note_on_c, 0, 39, 71
1, 140938, Note_off_c, 0, 38, 62
1, 140949, Note_on_c, 0, 41, 72
1, 140996, Note_off_c, 0, 39, 63
1, 141020, Note_on_c, 0, 43, 76
1, 141027, Note_off_c, 0, 41, 65
1, 141081, Note_on_c, 0, 60, 61
1, 141092, Note_on_c, 0, 36, 78
1, 141106, Note_off_c, 0, 43, 62
1, 141152, Note_off_c, 0, 36, 65
1, 141157, Note_on_c, 0, 55, 55
1, 141175, Note_off_c, 0, 60, 56
1, 141224, Note_on_c, 0, 57, 56
1, 141243, Note_off_c, 0, 55, 61
1, 141293, Note_on_c, 0, 59, 55
1, 141326, Note_off_c, 0, 57, 50
1, 141369, Note_on_c, 0, 60, 66
1, 141370, Note_on_c, 0, 43, 81
1, 141390, Note_off_c, 0, 59, 61
1, 141429, Note_on_c, 0, 55, 63
1, 141448, Note_off_c, 0, 60, 54
1, 141500, Note_on_c, 0, 57, 55
1, 141519, Note_off_c, 0, 55, 59
1, 141562, Note_on_c, 0, 59, 62
1, 141603, Note_off_c, 0, 57, 57
1, 141636, Note_on_c, 0, 60, 64
1, 141661, Note_off_c, 0, 59, 61
1, 141701, Note_on_c, 0, 55, 59
1, 141715, Note_off_c, 0, 60, 58
1, 141768, Note_on_c, 0, 57, 55
1, 141791, Note_off_c, 0, 55, 58
1, 141832, Note_on_c, 0, 59, 58
1, 141859, Note_off_c, 0, 57, 55
1, 141901, Note_on_c, 0, 60, 66
1, 141903, Note_on_c, 0, 41, 83
1, 141928, Note_off_c, 0, 43, 62
1, 141932, Note_off_c, 0, 59, 61
1, 141943, Note_off_c, 0, 41, 68
1, 141978, Note_on_c, 0, 55, 59
1, 141983, Note_off_c, 0, 60, 58
1, 142038, Note_on_c, 0, 57, 54
1, 142065, Note_off_c, 0, 55, 61
1, 142104, Note_on_c, 0, 59, 56
1, 142142, Note_off_c, 0, 57, 54
1, 142169, Note_on_c, 0, 39, 82
1, 142171, Note_on_c, 0, 60, 62
1, 142193, Note_off_c, 0, 59, 62
1, 142201, Note_off_c, 0, 39, 69
1, 142226, Note_on_c, 0, 55, 62
1, 142230, Note_off_c, 0, 60, 60
1, 142294, Note_off_c, 0, 55, 63
1, 142294, Note_on_c, 0, 57, 55
1, 142344, Note_on_c, 0, 59, 61
1, 142376, Note_off_c, 0, 57, 61
1, 142400, Note_off_c, 0, 59, 62
1, 142436, Note_on_c, 0, 60, 71
1, 142443, Note_on_c, 0, 36, 75
1, 142477, Note_off_c, 0, 36, 68
1, 142494, Note_off_c, 0, 60, 57
1, 142506, Note_on_c, 0, 62, 67
1, 142572, Note_on_c, 0, 63, 65
1, 142595, Note_off_c, 0, 62, 60
1, 142641, Note_on_c, 0, 66, 61
1, 142649, Note_off_c, 0, 63, 66
1, 142715, Note_on_c, 0, 35, 79
1, 142716, Note_on_c, 0, 67, 73
1, 142748, Note_off_c, 0, 35, 67
1, 142752, Note_off_c, 0, 66, 66
1, 142795, Note_on_c, 0, 62, 69
1, 142802, Note_off_c, 0, 67, 63
1, 142868, Note_on_c, 0, 64, 69
1, 142869, Note_off_c, 0, 62, 59
1, 142915, Note_on_c, 0, 66, 70
1, 142951, Note_off_c, 0, 64, 61
1, 142989, Note_on_c, 0, 50, 81
1, 142992, Note_on_c, 0, 67, 72
1, 142996, Note_on_c, 0, 38, 70
1, 143021, Note_off_c, 0, 66, 65
1, 143066, Note_on_c, 0, 62, 68
1, 143079, Note_off_c, 0, 67, 60
1, 143093, Control_c, 0, 64, 58
1, 143108, Control_c, 0, 64, 65
1, 143123, Control_c, 0, 64, 68
1, 143134, Note_on_c, 0, 64, 69
1, 143138, Control_c, 0, 64, 70
1, 143153, Control_c, 0, 64, 72
1, 143154, Note_off_c, 0, 62, 57
1, 143168, Control_c, 0, 64, 75
1, 143183, Control_c, 0, 64, 77
1, 143186, Note_on_c, 0, 66, 70
1, 143198, Control_c, 0, 64, 78
1, 143212, Control_c, 0, 64, 79
1, 143219, Note_off_c, 0, 64, 62
1, 143227, Control_c, 0, 64, 79
1, 143242, Control_c, 0, 64, 80
1, 143257, Control_c, 0, 64, 80
1, 143264, Note_on_c, 0, 67, 76
1, 143271, Control_c, 0, 64, 81
1, 143286, Control_c, 0, 64, 81
1, 143290, Note_off_c, 0, 66, 65
1, 143301, Control_c, 0, 64, 82
1, 143331, Note_off_c, 0, 38, 60
1, 143341, Note_on_c, 0, 62, 70
1, 143345, Control_c, 0, 64, 82
1, 143352, Note_off_c, 0, 50, 38
1, 143355, Note_off_c, 0, 67, 59
1, 143404, Note_on_c, 0, 64, 66
1, 143424, Note_off_c, 0, 62, 55
1, 143457, Control_c, 0, 64, 82
1, 143465, Note_on_c, 0, 66, 73
1, 143471, Control_c, 0, 64, 80
1, 143486, Control_c, 0, 64, 75
1, 143490, Note_off_c, 0, 64, 63
1, 143501, Control_c, 0, 64, 67
1, 143516, Control_c, 0, 64, 0
1, 143525, Note_on_c, 0, 48, 87
1, 143531, Note_on_c, 0, 36, 72
1, 143541, Note_on_c, 0, 67, 73
1, 143550, Note_off_c, 0, 48, 69
1, 143564, Note_off_c, 0, 66, 66
1, 143573, Note_off_c, 0, 36, 65
1, 143607, Note_on_c, 0, 62, 63
1, 143618, Note_off_c, 0, 67, 60
1, 143667, Note_on_c, 0, 64, 62
1, 143688, Note_off_c, 0, 62, 58
1, 143718, Note_on_c, 0, 66, 68
1, 143758, Note_off_c, 0, 64, 63
1, 143793, Note_on_c, 0, 67, 73
1, 143794, Note_on_c, 0, 47, 89
1, 143797, Note_on_c, 0, 35, 77
1, 143809, Note_off_c, 0, 66, 67
1, 143822, Note_off_c, 0, 47, 67
1, 143847, Note_on_c, 0, 62, 67
1, 143847, Note_off_c, 0, 35, 62
1, 143856, Note_off_c, 0, 67, 63
1, 143914, Note_off_c, 0, 62, 62
1, 143915, Note_on_c, 0, 64, 64
1, 143969, Note_on_c, 0, 66, 75
1, 143990, Note_off_c, 0, 64, 64
1, 144021, Note_off_c, 0, 66, 67
1, 144052, Note_on_c, 0, 67, 80
1, 144061, Note_on_c, 0, 43, 94
1, 144062, Note_on_c, 0, 31, 78
1, 144094, Note_off_c, 0, 43, 66
1, 144102, Note_off_c, 0, 31, 65
1, 144115, Note_off_c, 0, 67, 61
1, 144119, Note_on_c, 0, 69, 73
1, 144185, Note_on_c, 0, 71, 78
1, 144206, Note_off_c, 0, 69, 64
1, 144255, Note_off_c, 0, 71, 61
1, 144257, Note_on_c, 0, 67, 76
1, 144314, Note_off_c, 0, 67, 59
1, 144326, Note_on_c, 0, 72, 82
1, 144387, Note_on_c, 0, 67, 75
1, 144387, Note_off_c, 0, 72, 64
1, 144449, Note_on_c, 0, 69, 74
1, 144467, Note_off_c, 0, 67, 56
1, 144506, Note_on_c, 0, 71, 72
1, 144539, Note_off_c, 0, 69, 59
1, 144581, Note_on_c, 0, 72, 81
1, 144584, Note_on_c, 0, 55, 88
1, 144585, Note_on_c, 0, 43, 75
1, 144599, Note_off_c, 0, 71, 61
1, 144634, Control_c, 0, 64, 13
1, 144649, Control_c, 0, 64, 60
1, 144650, Note_on_c, 0, 67, 72
1, 144658, Note_off_c, 0, 72, 61
1, 144664, Control_c, 0, 64, 65
1, 144679, Control_c, 0, 64, 66
1, 144694, Control_c, 0, 64, 68
1, 144709, Control_c, 0, 64, 70
1, 144721, Note_on_c, 0, 69, 75
1, 144724, Control_c, 0, 64, 72
1, 144739, Control_c, 0, 64, 74
1, 144740, Note_off_c, 0, 67, 58
1, 144754, Control_c, 0, 64, 75
1, 144768, Control_c, 0, 64, 76
1, 144782, Note_on_c, 0, 71, 76
1, 144783, Control_c, 0, 64, 77
1, 144798, Control_c, 0, 64, 77
1, 144822, Note_off_c, 0, 69, 55
1, 144827, Control_c, 0, 64, 78
1, 144855, Note_on_c, 0, 72, 77
1, 144872, Control_c, 0, 64, 78
1, 144879, Note_off_c, 0, 71, 62
1, 144931, Note_off_c, 0, 55, 58
1, 144932, Note_on_c, 0, 67, 72
1, 144937, Note_off_c, 0, 72, 62
1, 144972, Note_off_c, 0, 43, 59
1, 144995, Note_on_c, 0, 69, 68
1, 145018, Note_off_c, 0, 67, 58
1, 145058, Note_on_c, 0, 71, 71
1, 145072, Control_c, 0, 64, 75
1, 145087, Control_c, 0, 64, 69
1, 145090, Note_off_c, 0, 69, 61
1, 145102, Control_c, 0, 64, 56
1, 145116, Control_c, 0, 64, 0
1, 145126, Note_on_c, 0, 72, 72
1, 145137, Note_on_c, 0, 53, 96
1, 145142, Note_on_c, 0, 41, 86
1, 145155, Note_off_c, 0, 71, 60
1, 145171, Note_off_c, 0, 53, 69
1, 145179, Note_off_c, 0, 41, 66
1, 145196, Note_on_c, 0, 67, 69
1, 145203, Note_off_c, 0, 72, 64
1, 145263, Note_on_c, 0, 69, 69
1, 145282, Note_off_c, 0, 67, 57
1, 145325, Note_on_c, 0, 71, 72
1, 145370, Note_off_c, 0, 69, 59
1, 145399, Note_on_c, 0, 72, 75
1, 145400, Note_on_c, 0, 52, 101
1, 145404, Note_on_c, 0, 40, 83
1, 145427, Note_off_c, 0, 71, 61
1, 145436, Note_off_c, 0, 52, 68
1, 145450, Note_off_c, 0, 40, 64
1, 145459, Note_on_c, 0, 67, 69
1, 145466, Note_off_c, 0, 72, 64
1, 145523, Note_on_c, 0, 69, 68
1, 145528, Note_off_c, 0, 67, 62
1, 145586, Note_on_c, 0, 71, 75
1, 145605, Note_off_c, 0, 69, 65
1, 145627, Note_off_c, 0, 71, 63
1, 145669, Note_on_c, 0, 48, 91
1, 145672, Note_on_c, 0, 72, 86
1, 145672, Note_on_c, 0, 36, 77
1, 145707, Note_off_c, 0, 48, 67
1, 145722, Note_off_c, 0, 36, 63
1, 145731, Note_off_c, 0, 72, 61
1, 145735, Note_on_c, 0, 74, 70
1, 145792, Note_on_c, 0, 76, 79
1, 145816, Note_off_c, 0, 74, 65
1, 145861, Note_on_c, 0, 72, 81
1, 145865, Note_off_c, 0, 76, 66
1, 145911, Note_off_c, 0, 72, 65
1, 145932, Note_on_c, 0, 77, 87
1, 145996, Note_on_c, 0, 72, 80
1, 146000, Note_off_c, 0, 77, 60
1, 146054, Note_on_c, 0, 74, 78
1, 146081, Note_off_c, 0, 72, 62
1, 146116, Note_on_c, 0, 76, 79
1, 146152, Note_off_c, 0, 74, 62
1, 146194, Note_on_c, 0, 48, 84
1, 146196, Note_on_c, 0, 77, 89
1, 146199, Note_on_c, 0, 60, 90
1, 146216, Note_off_c, 0, 76, 66
1, 146236, Control_c, 0, 64, 56
1, 146251, Control_c, 0, 64, 66
1, 146259, Note_on_c, 0, 72, 70
1, 146266, Control_c, 0, 64, 69
1, 146269, Note_off_c, 0, 77, 61
1, 146280, Control_c, 0, 64, 72
1, 146295, Control_c, 0, 64, 74
1, 146310, Control_c, 0, 64, 77
1, 146325, Control_c, 0, 64, 79
1, 146328, Note_on_c, 0, 74, 75
1, 146340, Control_c, 0, 64, 80
1, 146349, Note_off_c, 0, 72, 62
1, 146354, Control_c, 0, 64, 82
1, 146369, Control_c, 0, 64, 83
1, 146384, Control_c, 0, 64, 84
1, 146391, Note_on_c, 0, 76, 75
1, 146406, Control_c, 0, 64, 85
1, 146421, Control_c, 0, 64, 85
1, 146439, Note_off_c, 0, 74, 59
1, 146459, Note_on_c, 0, 77, 79
1, 146487, Note_off_c, 0, 76, 67
1, 146518, Note_off_c, 0, 60, 56
1, 146527, Note_on_c, 0, 72, 75
1, 146542, Note_off_c, 0, 77, 61
1, 146554, Note_off_c, 0, 48, 64
1, 146569, Control_c, 0, 64, 86
1, 146593, Note_on_c, 0, 74, 75
1, 146610, Note_off_c, 0, 72, 60
1, 146643, Control_c, 0, 64, 85
1, 146655, Note_on_c, 0, 76, 76
1, 146658, Control_c, 0, 64, 84
1, 146673, Control_c, 0, 64, 78
1, 146688, Control_c, 0, 64, 67
1, 146689, Note_off_c, 0, 74, 61
1, 146703, Control_c, 0, 64, 0
1, 146715, Note_on_c, 0, 58, 92
1, 146721, Note_on_c, 0, 46, 90
1, 146722, Note_on_c, 0, 77, 79
1, 146740, Note_off_c, 0, 58, 68
1, 146748, Note_off_c, 0, 76, 65
1, 146760, Note_off_c, 0, 46, 60
1, 146794, Note_on_c, 0, 72, 73
1, 146807, Note_off_c, 0, 77, 60
1, 146864, Note_on_c, 0, 74, 67
1, 146875, Note_off_c, 0, 72, 61
1, 146924, Note_on_c, 0, 76, 74
1, 146967, Note_off_c, 0, 74, 62
1, 146980, Note_on_c, 0, 57, 90
1, 146980, Note_on_c, 0, 45, 73
1, 146986, Note_on_c, 0, 77, 71
1, 147006, Note_on_c, 0, 47, 52
1, 147007, Note_off_c, 0, 47, 127
1, 147014, Note_off_c, 0, 76, 67
1, 147019, Note_off_c, 0, 57, 64
1, 147028, Note_off_c, 0, 45, 66
1, 147042, Note_on_c, 0, 72, 65
1, 147052, Note_off_c, 0, 77, 62
1, 147104, Note_on_c, 0, 74, 69
1, 147109, Note_off_c, 0, 72, 64
1, 147171, Note_on_c, 0, 76, 70
1, 147180, Note_off_c, 0, 74, 66
1, 147197, Note_off_c, 0, 76, 68
1, 147241, Note_on_c, 0, 77, 78
1, 147255, Note_on_c, 0, 41, 82
1, 147255, Note_on_c, 0, 53, 99
1, 147300, Note_off_c, 0, 53, 68
1, 147302, Note_on_c, 0, 79, 79
1, 147310, Note_off_c, 0, 41, 67
1, 147364, Note_off_c, 0, 77, 31
1, 147375, Note_on_c, 0, 81, 79
1, 147395, Note_off_c, 0, 79, 61
1, 147437, Note_off_c, 0, 81, 62
1, 147443, Note_on_c, 0, 77, 76
1, 147502, Note_off_c, 0, 77, 62
1, 147504, Note_on_c, 0, 78, 80
1, 147560, Note_off_c, 0, 78, 65
1, 147570, Note_on_c, 0, 79, 81
1, 147636, Note_on_c, 0, 81, 85
1, 147665, Note_off_c, 0, 79, 62
1, 147698, Note_on_c, 0, 83, 73
1, 147737, Note_off_c, 0, 81, 61
1, 147759, Note_on_c, 0, 63, 100
1, 147761, Note_on_c, 0, 51, 86
1, 147765, Note_on_c, 0, 84, 76
1, 147776, Note_off_c, 0, 83, 63
1, 147821, Note_on_c, 0, 78, 76
1, 147822, Control_c, 0, 64, 30
1, 147838, Control_c, 0, 64, 32
1, 147852, Control_c, 0, 64, 40
1, 147867, Control_c, 0, 64, 51
1, 147882, Note_off_c, 0, 84, 61
1, 147882, Control_c, 0, 64, 57
1, 147892, Note_off_c, 0, 78, 59
1, 147895, Note_on_c, 0, 81, 76
1, 147897, Control_c, 0, 64, 60
1, 147949, Control_c, 0, 64, 60
1, 147964, Control_c, 0, 64, 61
1, 147973, Note_on_c, 0, 83, 66
1, 147979, Control_c, 0, 64, 62
1, 147993, Control_c, 0, 64, 63
1, 148008, Control_c, 0, 64, 63
1, 148010, Note_off_c, 0, 81, 56
1, 148023, Control_c, 0, 64, 64
1, 148033, Note_on_c, 0, 84, 70
1, 148050, Note_off_c, 0, 83, 62
1, 148053, Control_c, 0, 64, 64
1, 148067, Control_c, 0, 64, 65
1, 148090, Note_on_c, 0, 78, 69
1, 148097, Control_c, 0, 64, 65
1, 148112, Control_c, 0, 64, 66
1, 148122, Note_off_c, 0, 84, 52
1, 148126, Control_c, 0, 64, 66
1, 148150, Note_off_c, 0, 78, 58
1, 148155, Note_on_c, 0, 81, 77
1, 148166, Note_off_c, 0, 63, 57
1, 148216, Note_on_c, 0, 83, 72
1, 148221, Note_off_c, 0, 51, 57
1, 148245, Control_c, 0, 64, 66
1, 148250, Note_off_c, 0, 81, 55
1, 148259, Control_c, 0, 64, 65
1, 148274, Control_c, 0, 64, 63
1, 148289, Control_c, 0, 64, 57
1, 148291, Note_on_c, 0, 84, 77
1, 148301, Note_on_c, 0, 62, 92
1, 148304, Note_on_c, 0, 50, 75
1, 148304, Note_off_c, 0, 83, 62
1, 148304, Control_c, 0, 64, 26
1, 148319, Control_c, 0, 64, 0
1, 148339, Note_off_c, 0, 50, 66
1, 148340, Note_off_c, 0, 62, 63
1, 148366, Note_on_c, 0, 78, 76
1, 148405, Note_off_c, 0, 84, 57
1, 148406, Note_off_c, 0, 78, 61
1, 148422, Note_on_c, 0, 81, 77
1, 148493, Note_on_c, 0, 83, 72
1, 148520, Note_off_c, 0, 81, 56
1, 148560, Note_on_c, 0, 60, 91
1, 148562, Note_on_c, 0, 84, 78
1, 148565, Note_on_c, 0, 48, 80
1, 148575, Note_off_c, 0, 83, 62
1, 148599, Note_off_c, 0, 60, 65
1, 148611, Note_off_c, 0, 48, 65
1, 148631, Note_on_c, 0, 78, 78
1, 148666, Note_off_c, 0, 78, 62
1, 148688, Note_off_c, 0, 84, 55
1, 148698, Note_on_c, 0, 81, 81
1, 148773, Note_on_c, 0, 83, 68
1, 148806, Note_off_c, 0, 81, 59
1, 148826, Note_on_c, 0, 84, 78
1, 148831, Note_on_c, 0, 57, 93
1, 148834, Note_on_c, 0, 45, 80
1, 148845, Note_off_c, 0, 83, 62
1, 148871, Note_off_c, 0, 57, 66
1, 148882, Note_off_c, 0, 45, 64
1, 148903, Note_on_c, 0, 78, 73
1, 148907, Note_off_c, 0, 84, 64
1, 148927, Note_off_c, 0, 78, 68
1, 148957, Note_on_c, 0, 81, 79
1, 149023, Note_on_c, 0, 84, 68
1, 149046, Note_off_c, 0, 81, 61
1, 149073, Note_off_c, 0, 84, 66
1, 149108, Note_on_c, 0, 83, 83
1, 149167, Note_on_c, 0, 84, 84
1, 149181, Note_off_c, 0, 83, 53
1, 149216, Control_c, 0, 64, 20
1, 149228, Note_on_c, 0, 86, 73
1, 149231, Control_c, 0, 64, 27
1, 149246, Control_c, 0, 64, 26
1, 149256, Note_off_c, 0, 84, 63
1, 149261, Control_c, 0, 64, 0
1, 149272, Note_on_c, 0, 87, 72
1, 149338, Note_on_c, 0, 68, 99
1, 149345, Note_off_c, 0, 86, 63
1, 149346, Note_on_c, 0, 56, 81
1, 149357, Note_on_c, 0, 89, 81
1, 149377, Note_off_c, 0, 87, 65
1, 149401, Control_c, 0, 64, 47
1, 149416, Control_c, 0, 64, 66
1, 149431, Control_c, 0, 64, 71
1, 149434, Note_on_c, 0, 83, 71
1, 149446, Control_c, 0, 64, 75
1, 149459, Note_off_c, 0, 89, 63
1, 149461, Control_c, 0, 64, 79
1, 149476, Control_c, 0, 64, 84
1, 149491, Control_c, 0, 64, 88
1, 149499, Note_on_c, 0, 86, 68
1, 149505, Control_c, 0, 64, 92
1, 149520, Control_c, 0, 64, 95
1, 149535, Control_c, 0, 64, 96
1, 149550, Control_c, 0, 64, 98
1, 149551, Note_off_c, 0, 83, 41
1, 149560, Note_on_c, 0, 87, 75
1, 149565, Control_c, 0, 64, 99
1, 149580, Control_c, 0, 64, 100
1, 149585, Note_off_c, 0, 86, 56
1, 149595, Control_c, 0, 64, 101
1, 149609, Control_c, 0, 64, 103
1, 149624, Control_c, 0, 64, 104
1, 149636, Note_on_c, 0, 89, 74
1, 149639, Control_c, 0, 64, 105
1, 149657, Note_off_c, 0, 87, 65
1, 149669, Control_c, 0, 64, 105
1, 149676, Note_off_c, 0, 89, 64
1, 149679, Note_off_c, 0, 68, 61
1, 149684, Control_c, 0, 64, 106
1, 149696, Note_off_c, 0, 56, 61
1, 149699, Control_c, 0, 64, 107
1, 149702, Note_on_c, 0, 86, 71
1, 149713, Control_c, 0, 64, 108
1, 149728, Control_c, 0, 64, 109
1, 149773, Control_c, 0, 64, 110
1, 149774, Note_on_c, 0, 89, 70
1, 149787, Control_c, 0, 64, 110
1, 149801, Note_off_c, 0, 86, 48
1, 149802, Control_c, 0, 64, 111
1, 149817, Control_c, 0, 64, 111
1, 149831, Note_on_c, 0, 91, 78
1, 149851, Note_off_c, 0, 89, 62
1, 149893, Note_on_c, 0, 65, 74
1, 149899, Note_on_c, 0, 53, 66
1, 149906, Note_on_c, 0, 92, 82
1, 149906, Control_c, 0, 64, 110
1, 149921, Control_c, 0, 64, 102
1, 149933, Note_off_c, 0, 91, 58
1, 149936, Control_c, 0, 64, 89
1, 149950, Control_c, 0, 64, 70
1, 149965, Control_c, 0, 64, 0
1, 149982, Note_off_c, 0, 92, 65
1, 149984, Note_on_c, 0, 86, 64
1, 150010, Control_c, 0, 64, 63
1, 150024, Control_c, 0, 64, 74
1, 150039, Control_c, 0, 64, 85
1, 150045, Note_on_c, 0, 89, 75
1, 150054, Control_c, 0, 64, 92
1, 150069, Control_c, 0, 64, 96
1, 150083, Note_off_c, 0, 86, 44
1, 150084, Control_c, 0, 64, 102
1, 150098, Note_on_c, 0, 91, 83
1, 150098, Control_c, 0, 64, 107
1, 150113, Control_c, 0, 64, 114
1, 150128, Control_c, 0, 64, 121
1, 150130, Note_off_c, 0, 89, 62
1, 150150, Control_c, 0, 64, 127
1, 150174, Note_on_c, 0, 92, 82
1, 150199, Note_off_c, 0, 91, 58
1, 150200, Note_off_c, 0, 65, 60
1, 150232, Note_on_c, 0, 86, 65
1, 150236, Note_off_c, 0, 53, 63
1, 150247, Note_off_c, 0, 92, 64
1, 150298, Note_on_c, 0, 89, 71
1, 150334, Note_off_c, 0, 86, 60
1, 150355, Note_on_c, 0, 91, 83
1, 150382, Note_off_c, 0, 89, 64
1, 150432, Note_on_c, 0, 62, 98
1, 150435, Note_on_c, 0, 92, 80
1, 150438, Note_on_c, 0, 50, 89
1, 150459, Note_off_c, 0, 91, 57
1, 150462, Control_c, 0, 64, 98
1, 150477, Control_c, 0, 64, 76
1, 150492, Control_c, 0, 64, 0
1, 150504, Note_on_c, 0, 86, 65
1, 150512, Note_off_c, 0, 92, 65
1, 150536, Control_c, 0, 64, 65
1, 150551, Control_c, 0, 64, 78
1, 150563, Note_on_c, 0, 89, 65
1, 150566, Control_c, 0, 64, 90
1, 150581, Control_c, 0, 64, 100
1, 150586, Note_off_c, 0, 86, 51
1, 150596, Control_c, 0, 64, 105
1, 150611, Control_c, 0, 64, 113
1, 150623, Note_on_c, 0, 91, 72
1, 150626, Control_c, 0, 64, 120
1, 150629, Note_off_c, 0, 89, 64
1, 150641, Control_c, 0, 64, 127
1, 150663, Note_off_c, 0, 91, 53
1, 150704, Note_on_c, 0, 92, 78
1, 150787, Note_off_c, 0, 92, 65
1, 150790, Note_on_c, 0, 91, 75
1, 150796, Note_off_c, 0, 62, 58
1, 150823, Note_off_c, 0, 50, 63
1, 150852, Note_on_c, 0, 89, 74
1, 150903, Note_off_c, 0, 91, 57
1, 150921, Note_on_c, 0, 87, 74
1, 150951, Note_off_c, 0, 89, 65
1, 150992, Note_on_c, 0, 86, 76
1, 150993, Note_on_c, 0, 59, 91
1, 150996, Note_off_c, 0, 87, 63
1, 150998, Note_on_c, 0, 47, 89
1, 151018, Control_c, 0, 64, 121
1, 151034, Control_c, 0, 64, 97
1, 151049, Control_c, 0, 64, 75
1, 151064, Note_off_c, 0, 86, 53
1, 151064, Control_c, 0, 64, 0
1, 151069, Note_on_c, 0, 87, 61
1, 151123, Control_c, 0, 64, 66
1, 151130, Note_off_c, 0, 87, 64
1, 151132, Note_on_c, 0, 89, 68
1, 151138, Control_c, 0, 64, 78
1, 151152, Control_c, 0, 64, 88
1, 151167, Control_c, 0, 64, 97
1, 151182, Control_c, 0, 64, 103
1, 151195, Note_on_c, 0, 91, 78
1, 151196, Control_c, 0, 64, 111
1, 151207, Note_off_c, 0, 89, 65
1, 151211, Control_c, 0, 64, 118
1, 151226, Control_c, 0, 64, 127
1, 151267, Note_on_c, 0, 89, 69
1, 151304, Note_off_c, 0, 91, 53
1, 151318, Note_off_c, 0, 59, 57
1, 151327, Note_on_c, 0, 87, 79
1, 151352, Note_off_c, 0, 47, 63
1, 151371, Note_off_c, 0, 89, 63
1, 151383, Note_on_c, 0, 86, 75
1, 151422, Note_off_c, 0, 87, 60
1, 151445, Note_on_c, 0, 84, 74
1, 151455, Note_off_c, 0, 86, 63
1, 151526, Note_off_c, 0, 84, 41
1, 151541, Note_on_c, 0, 83, 72
1, 151547, Note_on_c, 0, 55, 97
1, 151550, Note_on_c, 0, 43, 87
1, 151580, Control_c, 0, 64, 95
1, 151595, Control_c, 0, 64, 71
1, 151610, Control_c, 0, 64, 0
1, 151615, Note_on_c, 0, 84, 63
1, 151619, Note_off_c, 0, 83, 59
1, 151639, Control_c, 0, 64, 47
1, 151662, Control_c, 0, 64, 73
1, 151676, Control_c, 0, 64, 90
1, 151682, Note_on_c, 0, 86, 74
1, 151687, Note_off_c, 0, 84, 64
1, 151691, Control_c, 0, 64, 108
1, 151706, Control_c, 0, 64, 115
1, 151721, Control_c, 0, 64, 119
1, 151735, Control_c, 0, 64, 127
1, 151751, Note_on_c, 0, 87, 77
1, 151759, Note_off_c, 0, 86, 62
1, 151806, Note_off_c, 0, 55, 61
1, 151834, Note_on_c, 0, 86, 64
1, 151852, Note_off_c, 0, 43, 63
1, 151853, Note_off_c, 0, 87, 56
1, 151890, Note_on_c, 0, 84, 73
1, 151920, Note_off_c, 0, 86, 62
1, 151942, Note_off_c, 0, 84, 66
1, 151959, Note_on_c, 0, 83, 67
1, 151987, Note_off_c, 0, 83, 63
1, 152030, Note_on_c, 0, 80, 79
1, 152087, Note_on_c, 0, 31, 82
1, 152088, Note_on_c, 0, 43, 100
1, 152100, Note_on_c, 0, 79, 64
1, 152125, Note_off_c, 0, 31, 65
1, 152134, Note_off_c, 0, 43, 60
1, 152137, Note_off_c, 0, 80, 61
1, 152155, Note_off_c, 0, 79, 61
1, 152158, Note_on_c, 0, 77, 71
1, 152231, Note_off_c, 0, 77, 55
1, 152239, Note_on_c, 0, 75, 69
1, 152303, Note_on_c, 0, 74, 68
1, 152310, Note_off_c, 0, 75, 64
1, 152383, Note_on_c, 0, 75, 73
1, 152390, Note_off_c, 0, 74, 63
1, 152408, Note_on_c, 0, 36, 83
1, 152410, Note_on_c, 0, 48, 97
1, 152411, Control_c, 0, 64, 107
1, 152425, Control_c, 0, 64, 89
1, 152440, Control_c, 0, 64, 69
1, 152455, Control_c, 0, 64, 0
1, 152461, Note_off_c, 0, 75, 63
1, 152470, Note_on_c, 0, 72, 70
1, 152513, Note_off_c, 0, 72, 62
1, 152556, Note_on_c, 0, 71, 65
1, 152617, Note_on_c, 0, 68, 73
1, 152669, Note_off_c, 0, 71, 56
1, 152678, Control_c, 0, 64, 13
1, 152685, Note_on_c, 0, 67, 73
1, 152708, Control_c, 0, 64, 0
1, 152729, Note_off_c, 0, 68, 62
1, 152746, Note_off_c, 0, 67, 62
1, 152751, Note_on_c, 0, 65, 71
1, 152801, Note_off_c, 0, 65, 63
1, 152811, Control_c, 0, 64, 16
1, 152827, Control_c, 0, 64, 23
1, 152832, Note_on_c, 0, 63, 65
1, 152841, Control_c, 0, 64, 25
1, 152856, Control_c, 0, 64, 23
1, 152871, Control_c, 0, 64, 16
1, 152884, Note_on_c, 0, 62, 70
1, 152901, Control_c, 0, 64, 18
1, 152915, Control_c, 0, 64, 24
1, 152926, Note_off_c, 0, 63, 64
1, 152930, Control_c, 0, 64, 25
1, 152950, Note_off_c, 0, 62, 62
1, 152956, Note_on_c, 0, 60, 69
1, 152993, Note_off_c, 0, 60, 59
1, 153005, Control_c, 0, 64, 23
1, 153020, Control_c, 0, 64, 18
1, 153026, Note_on_c, 0, 59, 71
1, 153034, Control_c, 0, 64, 16
1, 153049, Note_off_c, 0, 48, 54
1, 153064, Control_c, 0, 64, 18
1, 153079, Control_c, 0, 64, 21
1, 153093, Note_on_c, 0, 56, 72
1, 153094, Control_c, 0, 64, 24
1, 153145, Note_off_c, 0, 36, 58
1, 153145, Control_c, 0, 64, 23
1, 153153, Note_off_c, 0, 59, 59
1, 153170, Note_on_c, 0, 55, 66
1, 153175, Control_c, 0, 64, 21
1, 153189, Control_c, 0, 64, 20
1, 153204, Control_c, 0, 64, 10
1, 153214, Note_off_c, 0, 56, 63
1, 153219, Control_c, 0, 64, 0
1, 153235, Note_on_c, 0, 53, 75
1, 153237, Note_off_c, 0, 55, 64
1, 153291, Note_off_c, 0, 53, 62
1, 153317, Note_on_c, 0, 51, 72
1, 153375, Note_on_c, 0, 50, 69
1, 153421, Note_off_c, 0, 51, 62
1, 153446, Note_off_c, 0, 50, 64
1, 153452, Note_on_c, 0, 48, 73
1, 153526, Note_on_c, 0, 47, 75
1, 153533, Note_off_c, 0, 48, 36
1, 153598, Note_on_c, 0, 44, 70
1, 153649, Note_off_c, 0, 47, 62
1, 153666, Note_on_c, 0, 43, 73
1, 153711, Note_off_c, 0, 44, 62
1, 153732, Note_off_c, 0, 43, 62
1, 153741, Note_on_c, 0, 41, 71
1, 153821, Note_off_c, 0, 41, 64
1, 153826, Note_on_c, 0, 39, 66
1, 153942, Note_on_c, 0, 38, 63
1, 153982, Note_off_c, 0, 39, 55
1, 154183, Note_on_c, 0, 36, 55
1, 154212, Note_off_c, 0, 38, 53
1, 155101, Note_on_c, 0, 60, 61
1, 155111, Note_on_c, 0, 55, 49
1, 155117, Note_on_c, 0, 52, 48
1, 155131, Note_on_c, 0, 43, 41
1, 155383, Control_c, 0, 64, 44
1, 155406, Control_c, 0, 64, 58
1, 155421, Control_c, 0, 64, 63
1, 155436, Control_c, 0, 64, 65
1, 155450, Control_c, 0, 64, 66
1, 155465, Control_c, 0, 64, 68
1, 155480, Control_c, 0, 64, 70
1, 155495, Control_c, 0, 64, 72
1, 155510, Control_c, 0, 64, 73
1, 155524, Control_c, 0, 64, 75
1, 155539, Control_c, 0, 64, 77
1, 155554, Control_c, 0, 64, 78
1, 155568, Control_c, 0, 64, 80
1, 155583, Control_c, 0, 64, 81
1, 155598, Control_c, 0, 64, 83
1, 155613, Control_c, 0, 64, 84
1, 155628, Control_c, 0, 64, 86
1, 155643, Control_c, 0, 64, 87
1, 155658, Control_c, 0, 64, 88
1, 155673, Control_c, 0, 64, 90
1, 155687, Control_c, 0, 64, 91
1, 155702, Control_c, 0, 64, 93
1, 155717, Control_c, 0, 64, 93
1, 155732, Control_c, 0, 64, 94
1, 155747, Control_c, 0, 64, 95
1, 155761, Control_c, 0, 64, 96
1, 155776, Control_c, 0, 64, 97
1, 155791, Note_off_c, 0, 43, 35
1, 155791, Control_c, 0, 64, 98
1, 155806, Control_c, 0, 64, 98
1, 155822, Control_c, 0, 64, 99
1, 155827, Note_on_c, 0, 48, 41
1, 155837, Control_c, 0, 64, 99
1, 155851, Control_c, 0, 64, 100
1, 155866, Control_c, 0, 64, 100
1, 155881, Control_c, 0, 64, 101
1, 155896, Control_c, 0, 64, 102
1, 155911, Control_c, 0, 64, 102
1, 155926, Control_c, 0, 64, 103
1, 155955, Control_c, 0, 64, 103
1, 155966, Note_off_c, 0, 36, 40
1, 155970, Control_c, 0, 64, 104
1, 156058, Control_c, 0, 64, 104
1, 156060, Note_off_c, 0, 48, 40
1, 156236, Note_on_c, 0, 64, 60
1, 156311, Note_off_c, 0, 64, 61
1, 156339, Note_off_c, 0, 55, 16
1, 156343, Note_off_c, 0, 60, 34
1, 156352, Note_off_c, 0, 52, 41
1, 156439, Note_on_c, 0, 62, 62
1, 156451, Note_on_c, 0, 35, 46
1, 156451, Control_c, 0, 64, 104
1, 156458, Note_on_c, 0, 55, 49
1, 156466, Control_c, 0, 64, 102
1, 156474, Note_on_c, 0, 50, 35
1, 156480, Control_c, 0, 64, 99
1, 156495, Control_c, 0, 64, 93
1, 156510, Control_c, 0, 64, 84
1, 156525, Control_c, 0, 64, 72
1, 156540, Control_c, 0, 64, 49
1, 156555, Control_c, 0, 64, 0
1, 156645, Control_c, 0, 64, 63
1, 156660, Control_c, 0, 64, 68
1, 156675, Control_c, 0, 64, 71
1, 156689, Control_c, 0, 64, 74
1, 156704, Control_c, 0, 64, 78
1, 156712, Note_off_c, 0, 55, 27
1, 156719, Control_c, 0, 64, 81
1, 156734, Control_c, 0, 64, 84
1, 156749, Control_c, 0, 64, 87
1, 156764, Control_c, 0, 64, 89
1, 156779, Control_c, 0, 64, 91
1, 156793, Control_c, 0, 64, 93
1, 156808, Control_c, 0, 64, 95
1, 156819, Note_off_c, 0, 50, 38
1, 156823, Control_c, 0, 64, 97
1, 156838, Control_c, 0, 64, 99
1, 156853, Control_c, 0, 64, 101
1, 156868, Control_c, 0, 64, 103
1, 156880, Note_off_c, 0, 62, 30
1, 156889, Control_c, 0, 64, 104
1, 156904, Control_c, 0, 64, 105
1, 156919, Control_c, 0, 64, 106
1, 156934, Control_c, 0, 64, 106
1, 156948, Control_c, 0, 64, 107
1, 156963, Control_c, 0, 64, 107
1, 156978, Control_c, 0, 64, 108
1, 157008, Control_c, 0, 64, 108
1, 157117, Note_on_c, 0, 55, 57
1, 157142, Note_on_c, 0, 43, 44
1, 157201, Control_c, 0, 64, 107
1, 157215, Control_c, 0, 64, 104
1, 157230, Control_c, 0, 64, 97
1, 157245, Control_c, 0, 64, 88
1, 157260, Control_c, 0, 64, 77
1, 157275, Control_c, 0, 64, 64
1, 157289, Control_c, 0, 64, 0
1, 157378, Control_c, 0, 64, 50
1, 157393, Control_c, 0, 64, 65
1, 157408, Control_c, 0, 64, 70
1, 157424, Control_c, 0, 64, 73
1, 157438, Control_c, 0, 64, 77
1, 157453, Control_c, 0, 64, 80
1, 157468, Control_c, 0, 64, 84
1, 157483, Control_c, 0, 64, 87
1, 157498, Control_c, 0, 64, 90
1, 157513, Control_c, 0, 64, 93
1, 157527, Control_c, 0, 64, 96
1, 157542, Control_c, 0, 64, 99
1, 157557, Control_c, 0, 64, 101
1, 157571, Control_c, 0, 64, 103
1, 157586, Control_c, 0, 64, 105
1, 157601, Control_c, 0, 64, 107
1, 157616, Control_c, 0, 64, 108
1, 157638, Control_c, 0, 64, 109
1, 157653, Control_c, 0, 64, 110
1, 157668, Control_c, 0, 64, 111
1, 157683, Control_c, 0, 64, 111
1, 157698, Control_c, 0, 64, 112
1, 157712, Control_c, 0, 64, 113
1, 157742, Control_c, 0, 64, 113
1, 157772, Note_on_c, 0, 47, 52
1, 157786, Control_c, 0, 64, 114
1, 157788, Note_off_c, 0, 55, 0
1, 157803, Note_off_c, 0, 43, 35
1, 157846, Control_c, 0, 64, 114
1, 157852, Poly_aftertouch_c, 0, 55, 0
1, 157953, Note_off_c, 0, 35, 40
1, 157964, Control_c, 0, 64, 115
1, 158108, Note_off_c, 0, 47, 34
1, 158217, Note_on_c, 0, 62, 59
1, 158418, Note_off_c, 0, 62, 49
1, 158419, Note_on_c, 0, 64, 66
1, 158428, Note_on_c, 0, 58, 60
1, 158431, Control_c, 0, 64, 114
1, 158436, Note_on_c, 0, 37, 45
1, 158439, Note_on_c, 0, 55, 47
1, 158446, Control_c, 0, 64, 111
1, 158460, Control_c, 0, 64, 104
1, 158475, Control_c, 0, 64, 96
1, 158490, Control_c, 0, 64, 87
1, 158505, Control_c, 0, 64, 75
1, 158520, Control_c, 0, 64, 61
1, 158534, Control_c, 0, 64, 0
1, 158624, Control_c, 0, 64, 42
1, 158639, Control_c, 0, 64, 65
1, 158653, Control_c, 0, 64, 72
1, 158668, Control_c, 0, 64, 76
1, 158683, Control_c, 0, 64, 79
1, 158698, Control_c, 0, 64, 83
1, 158712, Control_c, 0, 64, 87
1, 158727, Control_c, 0, 64, 90
1, 158736, Note_off_c, 0, 58, 36
1, 158742, Control_c, 0, 64, 93
1, 158757, Control_c, 0, 64, 96
1, 158772, Control_c, 0, 64, 99
1, 158774, Note_off_c, 0, 55, 37
1, 158779, Note_off_c, 0, 64, 52
1, 158786, Control_c, 0, 64, 101
1, 158801, Control_c, 0, 64, 104
1, 158816, Control_c, 0, 64, 106
1, 158831, Control_c, 0, 64, 108
1, 158846, Control_c, 0, 64, 110
1, 158860, Control_c, 0, 64, 111
1, 158875, Control_c, 0, 64, 112
1, 158890, Control_c, 0, 64, 114
1, 158905, Control_c, 0, 64, 114
1, 158919, Control_c, 0, 64, 115
1, 158934, Control_c, 0, 64, 115
1, 158949, Control_c, 0, 64, 116
1, 158964, Control_c, 0, 64, 117
1, 159009, Control_c, 0, 64, 117
1, 159039, Control_c, 0, 64, 118
1, 159208, Note_on_c, 0, 64, 68
1, 159214, Note_on_c, 0, 57, 56
1, 159227, Note_on_c, 0, 55, 47
1, 159239, Note_on_c, 0, 45, 44
1, 159269, Control_c, 0, 64, 117
1, 159283, Control_c, 0, 64, 116
1, 159298, Control_c, 0, 64, 113
1, 159313, Control_c, 0, 64, 106
1, 159328, Control_c, 0, 64, 94
1, 159342, Control_c, 0, 64, 80
1, 159357, Control_c, 0, 64, 66
1, 159372, Control_c, 0, 64, 0
1, 159461, Control_c, 0, 64, 59
1, 159476, Control_c, 0, 64, 67
1, 159491, Control_c, 0, 64, 71
1, 159506, Control_c, 0, 64, 75
1, 159521, Control_c, 0, 64, 79
1, 159535, Control_c, 0, 64, 83
1, 159550, Control_c, 0, 64, 87
1, 159566, Control_c, 0, 64, 90
1, 159581, Control_c, 0, 64, 94
1, 159595, Control_c, 0, 64, 97
1, 159610, Control_c, 0, 64, 101
1, 159625, Control_c, 0, 64, 105
1, 159640, Control_c, 0, 64, 108
1, 159655, Control_c, 0, 64, 110
1, 159670, Control_c, 0, 64, 113
1, 159684, Control_c, 0, 64, 115
1, 159699, Control_c, 0, 64, 117
1, 159714, Control_c, 0, 64, 120
1, 159728, Control_c, 0, 64, 122
1, 159743, Control_c, 0, 64, 124
1, 159745, Note_off_c, 0, 64, 61
1, 159755, Note_off_c, 0, 57, 60
1, 159758, Control_c, 0, 64, 125
1, 159773, Control_c, 0, 64, 127
1, 159788, Control_c, 0, 64, 127
1, 159849, Note_on_c, 0, 49, 48
1, 159979, Note_off_c, 0, 37, 38
1, 159986, Note_off_c, 0, 55, 35
1, 160027, Note_off_c, 0, 45, 34
1, 160071, Note_off_c, 0, 49, 32
1, 160240, Note_on_c, 0, 67, 58
1, 160314, Note_off_c, 0, 67, 57
1, 160469, Note_on_c, 0, 64, 60
1, 160475, Note_on_c, 0, 57, 54
1, 160478, Control_c, 0, 64, 124
1, 160478, Note_on_c, 0, 38, 47
1, 160493, Note_on_c, 0, 53, 43
1, 160493, Control_c, 0, 64, 120
1, 160507, Control_c, 0, 64, 114
1, 160522, Control_c, 0, 64, 107
1, 160537, Control_c, 0, 64, 97
1, 160551, Control_c, 0, 64, 84
1, 160566, Control_c, 0, 64, 68
1, 160581, Control_c, 0, 64, 0
1, 160663, Control_c, 0, 64, 46
1, 160678, Control_c, 0, 64, 66
1, 160693, Control_c, 0, 64, 71
1, 160708, Control_c, 0, 64, 75
1, 160723, Control_c, 0, 64, 79
1, 160737, Control_c, 0, 64, 82
1, 160752, Control_c, 0, 64, 85
1, 160767, Control_c, 0, 64, 89
1, 160773, Note_off_c, 0, 64, 52
1, 160782, Control_c, 0, 64, 92
1, 160797, Control_c, 0, 64, 95
1, 160812, Control_c, 0, 64, 98
1, 160827, Control_c, 0, 64, 100
1, 160841, Control_c, 0, 64, 102
1, 160856, Control_c, 0, 64, 104
1, 160871, Control_c, 0, 64, 106
1, 160886, Control_c, 0, 64, 107
1, 160901, Control_c, 0, 64, 108
1, 160916, Control_c, 0, 64, 110
1, 160931, Control_c, 0, 64, 111
1, 160945, Control_c, 0, 64, 112
1, 160960, Control_c, 0, 64, 112
1, 161004, Control_c, 0, 64, 113
1, 161154, Note_on_c, 0, 65, 61
1, 161191, Note_on_c, 0, 45, 39
1, 161196, Control_c, 0, 64, 112
1, 161211, Control_c, 0, 64, 111
1, 161226, Control_c, 0, 64, 107
1, 161241, Control_c, 0, 64, 101
1, 161256, Control_c, 0, 64, 93
1, 161271, Control_c, 0, 64, 82
1, 161286, Control_c, 0, 64, 68
1, 161301, Control_c, 0, 64, 0
1, 161396, Control_c, 0, 64, 63
1, 161412, Control_c, 0, 64, 70
1, 161427, Control_c, 0, 64, 76
1, 161442, Control_c, 0, 64, 81
1, 161457, Control_c, 0, 64, 85
1, 161472, Control_c, 0, 64, 88
1, 161486, Control_c, 0, 64, 91
1, 161501, Control_c, 0, 64, 94
1, 161516, Control_c, 0, 64, 97
1, 161531, Control_c, 0, 64, 100
1, 161546, Control_c, 0, 64, 103
1, 161560, Control_c, 0, 64, 106
1, 161573, Note_off_c, 0, 53, 43
1, 161575, Control_c, 0, 64, 108
1, 161590, Control_c, 0, 64, 110
1, 161605, Control_c, 0, 64, 112
1, 161614, Note_off_c, 0, 57, 55
1, 161619, Control_c, 0, 64, 113
1, 161634, Control_c, 0, 64, 114
1, 161649, Control_c, 0, 64, 116
1, 161660, Note_off_c, 0, 65, 59
1, 161664, Control_c, 0, 64, 117
1, 161679, Control_c, 0, 64, 118
1, 161694, Control_c, 0, 64, 118
1, 161724, Control_c, 0, 64, 119
1, 161738, Control_c, 0, 64, 119
1, 161785, Note_on_c, 0, 50, 44
1, 161897, Note_off_c, 0, 45, 24
1, 161921, Note_off_c, 0, 38, 35
1, 162027, Note_off_c, 0, 50, 41
1, 162179, Note_on_c, 0, 65, 54
1, 162248, Note_off_c, 0, 65, 59
1, 162324, Control_c, 0, 64, 119
1, 162339, Control_c, 0, 64, 117
1, 162343, Note_on_c, 0, 66, 61
1, 162347, Note_on_c, 0, 39, 47
1, 162353, Control_c, 0, 64, 114
1, 162362, Note_on_c, 0, 57, 42
1, 162364, Note_on_c, 0, 60, 45
1, 162368, Control_c, 0, 64, 110
1, 162383, Control_c, 0, 64, 101
1, 162398, Control_c, 0, 64, 91
1, 162413, Control_c, 0, 64, 77
1, 162427, Control_c, 0, 64, 61
1, 162442, Control_c, 0, 64, 0
1, 162517, Control_c, 0, 64, 60
1, 162532, Control_c, 0, 64, 67
1, 162547, Control_c, 0, 64, 72
1, 162561, Control_c, 0, 64, 77
1, 162576, Control_c, 0, 64, 82
1, 162591, Control_c, 0, 64, 86
1, 162606, Control_c, 0, 64, 89
1, 162621, Control_c, 0, 64, 92
1, 162635, Control_c, 0, 64, 94
1, 162650, Control_c, 0, 64, 97
1, 162665, Control_c, 0, 64, 100
1, 162680, Control_c, 0, 64, 103
1, 162695, Control_c, 0, 64, 106
1, 162709, Control_c, 0, 64, 108
1, 162717, Note_off_c, 0, 66, 34
1, 162724, Control_c, 0, 64, 110
1, 162739, Control_c, 0, 64, 111
1, 162753, Control_c, 0, 64, 112
1, 162768, Control_c, 0, 64, 114
1, 162783, Control_c, 0, 64, 115
1, 162798, Control_c, 0, 64, 115
1, 162827, Control_c, 0, 64, 116
1, 163026, Note_on_c, 0, 66, 61
1, 163042, Note_on_c, 0, 48, 41
1, 163073, Control_c, 0, 64, 115
1, 163088, Control_c, 0, 64, 113
1, 163103, Control_c, 0, 64, 109
1, 163118, Control_c, 0, 64, 102
1, 163132, Control_c, 0, 64, 92
1, 163147, Control_c, 0, 64, 78
1, 163162, Control_c, 0, 64, 64
1, 163176, Control_c, 0, 64, 0
1, 163221, Control_c, 0, 64, 23
1, 163236, Control_c, 0, 64, 64
1, 163250, Control_c, 0, 64, 70
1, 163265, Control_c, 0, 64, 75
1, 163280, Control_c, 0, 64, 79
1, 163295, Control_c, 0, 64, 82
1, 163309, Control_c, 0, 64, 86
1, 163324, Control_c, 0, 64, 88
1, 163339, Control_c, 0, 64, 92
1, 163354, Control_c, 0, 64, 94
1, 163369, Control_c, 0, 64, 97
1, 163383, Control_c, 0, 64, 99
1, 163398, Control_c, 0, 64, 102
1, 163413, Control_c, 0, 64, 104
1, 163428, Control_c, 0, 64, 105
1, 163443, Control_c, 0, 64, 107
1, 163457, Control_c, 0, 64, 108
1, 163472, Control_c, 0, 64, 109
1, 163487, Control_c, 0, 64, 110
1, 163501, Control_c, 0, 64, 110
1, 163516, Control_c, 0, 64, 111
1, 163526, Note_off_c, 0, 66, 38
1, 163531, Control_c, 0, 64, 112
1, 163557, Note_off_c, 0, 60, 30
1, 163575, Control_c, 0, 64, 112
1, 163640, Note_on_c, 0, 51, 42
1, 163741, Note_off_c, 0, 48, 25
1, 163763, Note_off_c, 0, 39, 38
1, 163810, Note_off_c, 0, 57, 32
1, 163888, Note_off_c, 0, 51, 33
1, 164057, Note_on_c, 0, 66, 57
1, 164232, Note_off_c, 0, 66, 38
1, 164266, Control_c, 0, 64, 111
1, 164270, Note_on_c, 0, 67, 60
1, 164280, Control_c, 0, 64, 109
1, 164285, Note_on_c, 0, 60, 46
1, 164287, Note_on_c, 0, 40, 44
1, 164295, Control_c, 0, 64, 106
1, 164299, Note_on_c, 0, 55, 38
1, 164310, Control_c, 0, 64, 102
1, 164324, Control_c, 0, 64, 95
1, 164339, Control_c, 0, 64, 85
1, 164354, Control_c, 0, 64, 71
1, 164377, Control_c, 0, 64, 0
1, 164451, Control_c, 0, 64, 52
1, 164466, Control_c, 0, 64, 66
1, 164480, Control_c, 0, 64, 71
1, 164495, Control_c, 0, 64, 76
1, 164510, Control_c, 0, 64, 80
1, 164525, Control_c, 0, 64, 84
1, 164536, Note_off_c, 0, 67, 54
1, 164539, Control_c, 0, 64, 86
1, 164554, Control_c, 0, 64, 89
1, 164563, Note_off_c, 0, 60, 28
1, 164569, Control_c, 0, 64, 91
1, 164584, Control_c, 0, 64, 94
1, 164599, Control_c, 0, 64, 96
1, 164615, Control_c, 0, 64, 98
1, 164618, Note_off_c, 0, 55, 41
1, 164627, Note_off_c, 0, 40, 39
1, 164629, Control_c, 0, 64, 100
1, 164644, Control_c, 0, 64, 101
1, 164659, Control_c, 0, 64, 102
1, 164674, Control_c, 0, 64, 103
1, 164689, Control_c, 0, 64, 104
1, 164703, Control_c, 0, 64, 105
1, 164718, Control_c, 0, 64, 105
1, 164733, Control_c, 0, 64, 106
1, 164762, Control_c, 0, 64, 107
1, 164806, Control_c, 0, 64, 107
1, 165161, Note_on_c, 0, 69, 55
1, 165169, Control_c, 0, 64, 107
1, 165170, Note_on_c, 0, 29, 39
1, 165176, Note_on_c, 0, 57, 35
1, 165182, Note_on_c, 0, 62, 31
1, 165184, Control_c, 0, 64, 106
1, 165185, Note_on_c, 0, 41, 35
1, 165187, Note_on_c, 0, 60, 33
1, 165199, Control_c, 0, 64, 103
1, 165214, Control_c, 0, 64, 99
1, 165228, Control_c, 0, 64, 92
1, 165243, Control_c, 0, 64, 82
1, 165258, Control_c, 0, 64, 67
1, 165272, Control_c, 0, 64, 0
1, 165361, Control_c, 0, 64, 16
1, 165376, Control_c, 0, 64, 60
1, 165391, Control_c, 0, 64, 66
1, 165407, Control_c, 0, 64, 69
1, 165422, Control_c, 0, 64, 72
1, 165437, Control_c, 0, 64, 75
1, 165451, Control_c, 0, 64, 79
1, 165466, Control_c, 0, 64, 82
1, 165481, Control_c, 0, 64, 85
1, 165491, Note_off_c, 0, 41, 42
1, 165496, Control_c, 0, 64, 87
1, 165511, Control_c, 0, 64, 89
1, 165525, Control_c, 0, 64, 91
1, 165540, Control_c, 0, 64, 93
1, 165555, Control_c, 0, 64, 94
1, 165570, Control_c, 0, 64, 96
1, 165584, Control_c, 0, 64, 97
1, 165599, Control_c, 0, 64, 98
1, 165614, Control_c, 0, 64, 98
1, 165629, Control_c, 0, 64, 99
1, 165641, Note_off_c, 0, 29, 39
1, 165644, Control_c, 0, 64, 99
1, 165674, Control_c, 0, 64, 100
1, 165718, Control_c, 0, 64, 100
1, 166095, Note_on_c, 0, 42, 35
1, 166108, Note_on_c, 0, 30, 33
1, 166169, Control_c, 0, 64, 99
1, 166184, Control_c, 0, 64, 98
1, 166200, Control_c, 0, 64, 95
1, 166215, Control_c, 0, 64, 91
1, 166230, Control_c, 0, 64, 85
1, 166245, Control_c, 0, 64, 77
1, 166260, Control_c, 0, 64, 68
1, 166274, Control_c, 0, 64, 47
1, 166289, Control_c, 0, 64, 0
1, 166482, Control_c, 0, 64, 61
1, 166497, Control_c, 0, 64, 69
1, 166512, Control_c, 0, 64, 74
1, 166526, Control_c, 0, 64, 77
1, 166541, Control_c, 0, 64, 80
1, 166556, Control_c, 0, 64, 83
1, 166568, Note_off_c, 0, 62, 33
1, 166571, Control_c, 0, 64, 86
1, 166586, Control_c, 0, 64, 89
1, 166601, Control_c, 0, 64, 92
1, 166615, Control_c, 0, 64, 94
1, 166638, Control_c, 0, 64, 96
1, 166640, Note_off_c, 0, 60, 32
1, 166653, Control_c, 0, 64, 98
1, 166656, Note_off_c, 0, 57, 38
1, 166668, Control_c, 0, 64, 100
1, 166682, Control_c, 0, 64, 101
1, 166697, Control_c, 0, 64, 103
1, 166712, Control_c, 0, 64, 104
1, 166718, Note_off_c, 0, 69, 39
1, 166726, Control_c, 0, 64, 105
1, 166735, Note_off_c, 0, 30, 34
1, 166741, Control_c, 0, 64, 105
1, 166756, Control_c, 0, 64, 106
1, 166770, Note_off_c, 0, 42, 40
1, 166771, Control_c, 0, 64, 106
1, 166800, Control_c, 0, 64, 107
1, 166845, Control_c, 0, 64, 107
1, 167120, Note_on_c, 0, 69, 39
1, 167276, Control_c, 0, 64, 107
1, 167290, Control_c, 0, 64, 106
1, 167305, Control_c, 0, 64, 105
1, 167313, Note_on_c, 0, 65, 41
1, 167320, Control_c, 0, 64, 103
1, 167325, Note_on_c, 0, 62, 32
1, 167330, Note_on_c, 0, 59, 29
1, 167333, Note_on_c, 0, 31, 35
1, 167335, Control_c, 0, 64, 100
1, 167341, Note_off_c, 0, 69, 27
1, 167347, Note_on_c, 0, 43, 29
1, 167349, Control_c, 0, 64, 96
1, 167364, Control_c, 0, 64, 91
1, 167387, Control_c, 0, 64, 85
1, 167402, Control_c, 0, 64, 79
1, 167417, Control_c, 0, 64, 72
1, 167431, Control_c, 0, 64, 65
1, 167446, Control_c, 0, 64, 45
1, 167461, Control_c, 0, 64, 0
1, 167950, Note_off_c, 0, 62, 27
1, 167955, Note_on_c, 0, 67, 37
1, 168043, Note_off_c, 0, 65, 41
1, 168215, Note_off_c, 0, 59, 32
1, 168538, Note_on_c, 0, 60, 39
1, 168711, Note_off_c, 0, 67, 33
1, 169126, Note_on_c, 0, 40, 38
1, 169127, Note_off_c, 0, 60, 35
1, 169274, Note_off_c, 0, 43, 42
1, 169278, Note_off_c, 0, 31, 41
1, 169739, Note_on_c, 0, 36, 30
1, 169769, Note_off_c, 0, 40, 37
1, 169874, Note_on_c, 0, 67, 41
1, 170003, Note_on_c, 0, 69, 44
1, 170007, Note_off_c, 0, 67, 36
1, 170067, Note_off_c, 0, 36, 52
1, 170114, Note_off_c, 0, 69, 57
1, 170131, Note_on_c, 0, 71, 42
1, 170276, Note_on_c, 0, 72, 52
1, 170296, Note_off_c, 0, 71, 52
1, 170380, Note_off_c, 0, 72, 59
1, 170418, Note_on_c, 0, 67, 46
1, 170544, Note_on_c, 0, 72, 46
1, 170559, Note_off_c, 0, 67, 36
1, 170687, Note_off_c, 0, 72, 56
1, 170691, Note_on_c, 0, 74, 50
1, 170822, Note_off_c, 0, 74, 60
1, 170832, Note_on_c, 0, 76, 51
1, 170836, Note_on_c, 0, 60, 49
1, 170968, Note_on_c, 0, 74, 42
1, 170991, Note_off_c, 0, 76, 36
1, 171122, Note_on_c, 0, 72, 49
1, 171195, Note_off_c, 0, 74, 30
1, 171258, Note_off_c, 0, 72, 52
1, 171260, Note_on_c, 0, 71, 49
1, 171405, Note_on_c, 0, 72, 54
1, 171409, Note_off_c, 0, 71, 54
1, 171540, Note_on_c, 0, 67, 54
1, 171545, Note_off_c, 0, 72, 51
1, 171679, Note_on_c, 0, 76, 52
1, 171697, Note_off_c, 0, 67, 39
1, 171799, Note_on_c, 0, 72, 49
1, 171808, Note_on_c, 0, 64, 42
1, 171815, Note_off_c, 0, 60, 51
1, 171817, Note_off_c, 0, 76, 44
1, 171949, Note_on_c, 0, 71, 53
1, 171960, Note_on_c, 0, 62, 43
1, 171962, Note_off_c, 0, 64, 57
1, 172008, Note_off_c, 0, 72, 47
1, 172085, Note_off_c, 0, 71, 49
1, 172091, Note_on_c, 0, 69, 53
1, 172229, Note_off_c, 0, 69, 59
1, 172236, Note_on_c, 0, 71, 49
1, 172304, Note_off_c, 0, 62, 50
1, 172360, Note_off_c, 0, 71, 56
1, 172364, Note_on_c, 0, 72, 51
1, 172499, Note_on_c, 0, 55, 43
1, 172499, Note_off_c, 0, 72, 56
1, 172506, Note_on_c, 0, 74, 49
1, 172640, Note_off_c, 0, 74, 57
1, 172650, Note_on_c, 0, 72, 54
1, 172784, Note_on_c, 0, 71, 55
1, 172798, Note_off_c, 0, 72, 52
1, 172910, Note_on_c, 0, 69, 58
1, 172998, Note_off_c, 0, 71, 36
1, 173045, Note_off_c, 0, 69, 57
1, 173053, Note_on_c, 0, 67, 62
1, 173182, Note_off_c, 0, 67, 56
1, 173184, Note_on_c, 0, 69, 59
1, 173324, Note_on_c, 0, 71, 56
1, 173331, Note_off_c, 0, 69, 57
1, 173447, Note_on_c, 0, 62, 45
1, 173448, Note_off_c, 0, 71, 58
1, 173468, Note_on_c, 0, 67, 51
1, 173508, Note_off_c, 0, 62, 55
1, 173565, Note_off_c, 0, 55, 41
1, 173585, Note_off_c, 0, 67, 51
1, 173595, Note_on_c, 0, 73, 59
1, 173609, Note_on_c, 0, 64, 52
1, 173731, Note_off_c, 0, 73, 57
1, 173735, Note_on_c, 0, 70, 58
1, 173748, Control_c, 0, 64, 13
1, 173763, Control_c, 0, 64, 61
1, 173778, Control_c, 0, 64, 65
1, 173792, Control_c, 0, 64, 66
1, 173807, Control_c, 0, 64, 67
1, 173822, Control_c, 0, 64, 69
1, 173836, Control_c, 0, 64, 72
1, 173847, Note_off_c, 0, 64, 59
1, 173851, Control_c, 0, 64, 74
1, 173863, Note_off_c, 0, 70, 61
1, 173864, Note_on_c, 0, 73, 63
1, 173866, Control_c, 0, 64, 76
1, 173881, Control_c, 0, 64, 77
1, 173896, Control_c, 0, 64, 78
1, 173910, Control_c, 0, 64, 79
1, 173925, Control_c, 0, 64, 79
1, 173940, Control_c, 0, 64, 80
1, 173950, Note_off_c, 0, 73, 62
1, 173955, Control_c, 0, 64, 80
1, 173970, Control_c, 0, 64, 81
1, 173998, Note_on_c, 0, 76, 63
1, 174014, Control_c, 0, 64, 81
1, 174133, Note_off_c, 0, 76, 36
1, 174140, Control_c, 0, 64, 81
1, 174150, Note_on_c, 0, 79, 67
1, 174151, Note_on_c, 0, 64, 60
1, 174170, Control_c, 0, 64, 80
1, 174185, Control_c, 0, 64, 79
1, 174201, Control_c, 0, 64, 78
1, 174215, Control_c, 0, 64, 77
1, 174230, Control_c, 0, 64, 74
1, 174245, Control_c, 0, 64, 69
1, 174260, Control_c, 0, 64, 62
1, 174275, Control_c, 0, 64, 24
1, 174289, Control_c, 0, 64, 0
1, 174299, Note_on_c, 0, 76, 62
1, 174341, Note_off_c, 0, 79, 50
1, 174430, Note_on_c, 0, 82, 67
1, 174437, Note_off_c, 0, 76, 46
1, 174575, Note_on_c, 0, 79, 62
1, 174583, Note_off_c, 0, 82, 58
1, 174704, Note_on_c, 0, 82, 68
1, 174732, Note_off_c, 0, 79, 57
1, 174733, Control_c, 0, 64, 58
1, 174748, Control_c, 0, 64, 64
1, 174763, Control_c, 0, 64, 65
1, 174778, Control_c, 0, 64, 66
1, 174793, Control_c, 0, 64, 67
1, 174807, Control_c, 0, 64, 68
1, 174822, Control_c, 0, 64, 70
1, 174837, Control_c, 0, 64, 72
1, 174844, Note_on_c, 0, 79, 68
1, 174846, Note_off_c, 0, 82, 57
1, 174852, Control_c, 0, 64, 73
1, 174874, Control_c, 0, 64, 74
1, 174889, Control_c, 0, 64, 74
1, 174904, Control_c, 0, 64, 75
1, 174919, Control_c, 0, 64, 76
1, 174926, Note_off_c, 0, 64, 58
1, 174934, Control_c, 0, 64, 76
1, 174975, Note_on_c, 0, 76, 66
1, 174994, Control_c, 0, 64, 77
1, 175024, Control_c, 0, 64, 77
1, 175037, Note_off_c, 0, 79, 36
1, 175053, Control_c, 0, 64, 78
1, 175097, Note_on_c, 0, 73, 61
1, 175111, Note_off_c, 0, 76, 54
1, 175120, Note_on_c, 0, 67, 52
1, 175213, Note_off_c, 0, 67, 46
1, 175245, Control_c, 0, 64, 77
1, 175251, Note_on_c, 0, 64, 59
1, 175251, Note_on_c, 0, 82, 64
1, 175256, Note_off_c, 0, 73, 33
1, 175260, Control_c, 0, 64, 77
1, 175275, Control_c, 0, 64, 75
1, 175290, Control_c, 0, 64, 71
1, 175305, Control_c, 0, 64, 63
1, 175320, Control_c, 0, 64, 0
1, 175379, Note_on_c, 0, 79, 59
1, 175419, Note_off_c, 0, 82, 38
1, 175438, Control_c, 0, 64, 56
1, 175453, Control_c, 0, 64, 65
1, 175468, Control_c, 0, 64, 67
1, 175482, Control_c, 0, 64, 68
1, 175497, Control_c, 0, 64, 69
1, 175511, Note_on_c, 0, 76, 61
1, 175512, Control_c, 0, 64, 71
1, 175527, Control_c, 0, 64, 73
1, 175542, Control_c, 0, 64, 76
1, 175556, Control_c, 0, 64, 77
1, 175561, Note_off_c, 0, 64, 55
1, 175571, Control_c, 0, 64, 77
1, 175573, Note_off_c, 0, 79, 34
1, 175586, Control_c, 0, 64, 78
1, 175609, Control_c, 0, 64, 79
1, 175624, Control_c, 0, 64, 79
1, 175638, Control_c, 0, 64, 80
1, 175653, Control_c, 0, 64, 80
1, 175654, Note_on_c, 0, 73, 57
1, 175668, Control_c, 0, 64, 81
1, 175671, Note_off_c, 0, 76, 49
1, 175741, Note_off_c, 0, 73, 57
1, 175801, Note_on_c, 0, 81, 64
1, 175811, Note_on_c, 0, 65, 55
1, 175817, Control_c, 0, 64, 80
1, 175832, Control_c, 0, 64, 78
1, 175847, Control_c, 0, 64, 72
1, 175861, Control_c, 0, 64, 61
1, 175876, Control_c, 0, 64, 0
1, 175926, Note_off_c, 0, 81, 56
1, 175948, Note_on_c, 0, 77, 52
1, 175980, Control_c, 0, 64, 62
1, 175994, Control_c, 0, 64, 66
1, 176009, Control_c, 0, 64, 68
1, 176024, Control_c, 0, 64, 69
1, 176038, Control_c, 0, 64, 71
1, 176053, Control_c, 0, 64, 73
1, 176068, Control_c, 0, 64, 75
1, 176080, Note_on_c, 0, 74, 53
1, 176083, Control_c, 0, 64, 77
1, 176098, Control_c, 0, 64, 78
1, 176112, Control_c, 0, 64, 78
1, 176127, Control_c, 0, 64, 79
1, 176142, Control_c, 0, 64, 79
1, 176157, Control_c, 0, 64, 80
1, 176163, Note_off_c, 0, 77, 35
1, 176186, Control_c, 0, 64, 80
1, 176209, Note_on_c, 0, 69, 59
1, 176216, Control_c, 0, 64, 81
1, 176235, Note_off_c, 0, 74, 36
1, 176256, Note_off_c, 0, 69, 58
1, 176334, Control_c, 0, 64, 77
1, 176346, Note_on_c, 0, 81, 68
1, 176357, Control_c, 0, 64, 70
1, 176372, Control_c, 0, 64, 0
1, 176430, Control_c, 0, 64, 61
1, 176445, Control_c, 0, 64, 67
1, 176460, Control_c, 0, 64, 71
1, 176467, Note_off_c, 0, 81, 54
1, 176475, Control_c, 0, 64, 73
1, 176490, Control_c, 0, 64, 75
1, 176491, Note_on_c, 0, 74, 57
1, 176505, Control_c, 0, 64, 77
1, 176519, Control_c, 0, 64, 79
1, 176534, Control_c, 0, 64, 81
1, 176549, Control_c, 0, 64, 82
1, 176564, Control_c, 0, 64, 82
1, 176585, Note_off_c, 0, 74, 53
1, 176593, Note_off_c, 0, 65, 38
1, 176595, Control_c, 0, 64, 83
1, 176609, Control_c, 0, 64, 83
1, 176616, Note_on_c, 0, 83, 71
1, 176639, Control_c, 0, 64, 84
1, 176713, Control_c, 0, 64, 84
1, 176732, Note_on_c, 0, 65, 60
1, 176745, Note_on_c, 0, 74, 61
1, 176768, Note_off_c, 0, 65, 60
1, 176815, Note_off_c, 0, 74, 54
1, 176875, Note_off_c, 0, 83, 29
1, 176876, Control_c, 0, 64, 84
1, 176885, Note_on_c, 0, 84, 67
1, 176889, Note_on_c, 0, 66, 68
1, 176891, Control_c, 0, 64, 82
1, 176906, Control_c, 0, 64, 77
1, 176920, Control_c, 0, 64, 69
1, 176935, Control_c, 0, 64, 0
1, 177031, Note_on_c, 0, 81, 61
1, 177044, Note_off_c, 0, 84, 59
1, 177054, Control_c, 0, 64, 55
1, 177068, Control_c, 0, 64, 65
1, 177083, Control_c, 0, 64, 67
1, 177098, Control_c, 0, 64, 69
1, 177120, Control_c, 0, 64, 71
1, 177135, Control_c, 0, 64, 74
1, 177150, Control_c, 0, 64, 77
1, 177164, Note_on_c, 0, 78, 65
1, 177165, Control_c, 0, 64, 79
1, 177171, Note_off_c, 0, 81, 52
1, 177180, Control_c, 0, 64, 80
1, 177195, Control_c, 0, 64, 81
1, 177209, Control_c, 0, 64, 82
1, 177224, Control_c, 0, 64, 83
1, 177239, Control_c, 0, 64, 84
1, 177253, Control_c, 0, 64, 84
1, 177268, Control_c, 0, 64, 85
1, 177281, Note_off_c, 0, 66, 55
1, 177283, Control_c, 0, 64, 86
1, 177289, Note_off_c, 0, 78, 50
1, 177291, Note_on_c, 0, 75, 59
1, 177298, Control_c, 0, 64, 87
1, 177313, Control_c, 0, 64, 87
1, 177359, Note_off_c, 0, 75, 57
1, 177445, Note_on_c, 0, 83, 64
1, 177448, Note_on_c, 0, 66, 67
1, 177462, Control_c, 0, 64, 87
1, 177477, Control_c, 0, 64, 84
1, 177491, Control_c, 0, 64, 78
1, 177506, Control_c, 0, 64, 67
1, 177521, Control_c, 0, 64, 0
1, 177590, Note_on_c, 0, 81, 58
1, 177606, Note_off_c, 0, 83, 51
1, 177610, Control_c, 0, 64, 48
1, 177625, Control_c, 0, 64, 65
1, 177639, Control_c, 0, 64, 69
1, 177654, Control_c, 0, 64, 71
1, 177669, Control_c, 0, 64, 72
1, 177684, Control_c, 0, 64, 74
1, 177698, Control_c, 0, 64, 77
1, 177710, Note_on_c, 0, 78, 63
1, 177713, Control_c, 0, 64, 79
1, 177728, Control_c, 0, 64, 81
1, 177743, Control_c, 0, 64, 82
1, 177758, Control_c, 0, 64, 83
1, 177773, Control_c, 0, 64, 83
1, 177788, Control_c, 0, 64, 84
1, 177803, Control_c, 0, 64, 85
1, 177818, Control_c, 0, 64, 86
1, 177830, Note_on_c, 0, 75, 59
1, 177832, Control_c, 0, 64, 86
1, 177847, Control_c, 0, 64, 87
1, 177877, Note_off_c, 0, 81, 22
1, 177879, Note_off_c, 0, 78, 38
1, 177943, Control_c, 0, 64, 86
1, 177958, Control_c, 0, 64, 82
1, 177973, Control_c, 0, 64, 74
1, 177982, Note_on_c, 0, 83, 62
1, 177988, Control_c, 0, 64, 58
1, 177989, Note_off_c, 0, 75, 28
1, 178003, Control_c, 0, 64, 0
1, 178047, Control_c, 0, 64, 48
1, 178062, Control_c, 0, 64, 66
1, 178077, Control_c, 0, 64, 70
1, 178091, Control_c, 0, 64, 74
1, 178106, Control_c, 0, 64, 76
1, 178107, Note_on_c, 0, 81, 65
1, 178121, Control_c, 0, 64, 78
1, 178136, Control_c, 0, 64, 80
1, 178151, Control_c, 0, 64, 82
1, 178161, Note_off_c, 0, 66, 55
1, 178165, Control_c, 0, 64, 83
1, 178181, Control_c, 0, 64, 84
1, 178196, Control_c, 0, 64, 84
1, 178208, Note_off_c, 0, 83, 29
1, 178211, Control_c, 0, 64, 85
1, 178226, Control_c, 0, 64, 85
1, 178241, Control_c, 0, 64, 86
1, 178241, Note_on_c, 0, 78, 65
1, 178270, Control_c, 0, 64, 86
1, 178329, Control_c, 0, 64, 87
1, 178358, Note_on_c, 0, 75, 60
1, 178370, Note_on_c, 0, 66, 60
1, 178375, Note_off_c, 0, 78, 52
1, 178411, Note_off_c, 0, 66, 63
1, 178417, Note_off_c, 0, 75, 58
1, 178420, Note_off_c, 0, 81, 37
1, 178504, Note_on_c, 0, 67, 68
1, 178506, Note_on_c, 0, 83, 67
1, 178521, Control_c, 0, 64, 86
1, 178536, Control_c, 0, 64, 83
1, 178551, Control_c, 0, 64, 76
1, 178566, Control_c, 0, 64, 61
1, 178581, Control_c, 0, 64, 0
1, 178617, Note_off_c, 0, 83, 60
1, 178641, Note_on_c, 0, 76, 55
1, 178662, Control_c, 0, 64, 39
1, 178677, Control_c, 0, 64, 63
1, 178692, Control_c, 0, 64, 67
1, 178706, Control_c, 0, 64, 69
1, 178721, Control_c, 0, 64, 70
1, 178736, Control_c, 0, 64, 71
1, 178751, Control_c, 0, 64, 73
1, 178766, Control_c, 0, 64, 75
1, 178781, Control_c, 0, 64, 76
1, 178786, Note_on_c, 0, 82, 66
1, 178795, Control_c, 0, 64, 77
1, 178797, Note_off_c, 0, 76, 55
1, 178810, Control_c, 0, 64, 77
1, 178840, Control_c, 0, 64, 78
1, 178870, Control_c, 0, 64, 78
1, 178885, Control_c, 0, 64, 79
1, 178912, Note_off_c, 0, 82, 57
1, 178918, Note_on_c, 0, 74, 54
1, 178944, Control_c, 0, 64, 80
1, 179082, Note_off_c, 0, 74, 36
1, 179094, Note_on_c, 0, 73, 60
1, 179100, Note_on_c, 0, 69, 63
1, 179122, Control_c, 0, 64, 79
1, 179137, Control_c, 0, 64, 78
1, 179152, Control_c, 0, 64, 75
1, 179167, Note_off_c, 0, 67, 50
1, 179167, Control_c, 0, 64, 69
1, 179182, Control_c, 0, 64, 58
1, 179196, Control_c, 0, 64, 0
1, 179231, Note_off_c, 0, 73, 61
1, 179263, Note_on_c, 0, 76, 52
1, 179380, Note_off_c, 0, 76, 48
1, 179388, Note_on_c, 0, 77, 58
1, 179511, Note_off_c, 0, 77, 60
1, 179526, Note_on_c, 0, 79, 52
1, 179647, Note_off_c, 0, 79, 53
1, 179663, Note_on_c, 0, 81, 58
1, 179800, Note_on_c, 0, 73, 53
1, 179841, Note_off_c, 0, 81, 35
1, 179917, Note_off_c, 0, 73, 59
1, 179943, Note_on_c, 0, 74, 55
1, 180068, Note_off_c, 0, 74, 54
1, 180072, Note_on_c, 0, 76, 57
1, 180211, Note_on_c, 0, 77, 60
1, 180211, Note_off_c, 0, 76, 57
1, 180328, Note_off_c, 0, 69, 55
1, 180346, Note_on_c, 0, 79, 60
1, 180359, Note_off_c, 0, 77, 52
1, 180476, Note_on_c, 0, 81, 60
1, 180477, Note_off_c, 0, 79, 55
1, 180587, Note_on_c, 0, 69, 47
1, 180609, Note_off_c, 0, 81, 52
1, 180612, Note_on_c, 0, 77, 49
1, 180734, Note_on_c, 0, 76, 54
1, 180741, Note_off_c, 0, 69, 39
1, 180748, Note_on_c, 0, 65, 39
1, 180795, Note_off_c, 0, 77, 35
1, 180855, Note_off_c, 0, 76, 63
1, 180874, Note_on_c, 0, 74, 52
1, 180958, Note_off_c, 0, 74, 54
1, 181012, Note_on_c, 0, 77, 57
1, 181033, Note_off_c, 0, 65, 44
1, 181116, Note_off_c, 0, 77, 56
1, 181153, Note_on_c, 0, 69, 49
1, 181219, Note_off_c, 0, 69, 49
1, 181279, Note_on_c, 0, 72, 52
1, 181281, Note_on_c, 0, 67, 41
1, 181400, Note_off_c, 0, 72, 57
1, 181419, Note_on_c, 0, 71, 46
1, 181481, Note_off_c, 0, 67, 53
1, 181527, Note_off_c, 0, 71, 54
1, 181556, Note_on_c, 0, 74, 50
1, 181699, Note_off_c, 0, 74, 38
1, 181702, Note_on_c, 0, 71, 46
1, 181806, Note_on_c, 0, 60, 36
1, 181821, Control_c, 0, 64, 10
1, 181836, Control_c, 0, 64, 13
1, 181841, Note_on_c, 0, 72, 50
1, 181842, Note_off_c, 0, 71, 35
1, 181850, Control_c, 0, 64, 18
1, 181865, Control_c, 0, 64, 20
1, 181880, Control_c, 0, 64, 23
1, 181928, Note_off_c, 0, 72, 57
1, 181973, Note_on_c, 0, 67, 45
1, 182082, Note_off_c, 0, 67, 47
1, 182087, Control_c, 0, 64, 24
1, 182110, Note_on_c, 0, 69, 51
1, 182208, Note_off_c, 0, 69, 53
1, 182215, Note_off_c, 0, 60, 55
1, 182235, Note_on_c, 0, 67, 49
1, 182357, Note_off_c, 0, 67, 45
1, 182378, Note_on_c, 0, 69, 54
1, 182473, Note_off_c, 0, 69, 59
1, 182503, Note_on_c, 0, 67, 49
1, 182584, Control_c, 0, 64, 25
1, 182614, Control_c, 0, 64, 26
1, 182617, Note_off_c, 0, 67, 48
1, 182629, Control_c, 0, 64, 28
1, 182631, Note_on_c, 0, 69, 48
1, 182644, Control_c, 0, 64, 29
1, 182659, Control_c, 0, 64, 30
1, 182673, Control_c, 0, 64, 31
1, 182748, Note_off_c, 0, 69, 39
1, 182765, Note_on_c, 0, 71, 54
1, 182793, Control_c, 0, 64, 30
1, 182861, Note_off_c, 0, 71, 35
1, 182887, Note_on_c, 0, 72, 54
1, 182933, Note_off_c, 0, 72, 57
1, 183001, Control_c, 0, 64, 29
1, 183006, Note_on_c, 0, 71, 52
1, 183007, Note_on_c, 0, 67, 50
1, 183043, Note_off_c, 0, 67, 56
1, 183046, Note_off_c, 0, 71, 55
1, 183137, Note_on_c, 0, 69, 54
1, 183142, Control_c, 0, 64, 28
1, 183145, Note_on_c, 0, 72, 52
1, 183160, Note_off_c, 0, 69, 66
1, 183179, Note_off_c, 0, 72, 65
1, 183270, Note_on_c, 0, 74, 59
1, 183283, Note_on_c, 0, 71, 48
1, 183303, Note_off_c, 0, 74, 62
1, 183310, Note_off_c, 0, 71, 60
1, 183349, Control_c, 0, 64, 27
1, 183405, Note_on_c, 0, 72, 61
1, 183409, Note_on_c, 0, 76, 56
1, 183436, Note_off_c, 0, 72, 66
1, 183449, Note_off_c, 0, 76, 59
1, 183533, Note_on_c, 0, 74, 57
1, 183555, Note_on_c, 0, 71, 40
1, 183575, Note_off_c, 0, 74, 58
1, 183580, Note_off_c, 0, 71, 55
1, 183663, Note_on_c, 0, 72, 59
1, 183667, Note_on_c, 0, 76, 58
1, 183694, Note_off_c, 0, 72, 66
1, 183703, Control_c, 0, 64, 26
1, 183709, Note_off_c, 0, 76, 62
1, 183764, Control_c, 0, 64, 27
1, 183795, Note_on_c, 0, 77, 64
1, 183811, Note_on_c, 0, 74, 41
1, 183832, Note_off_c, 0, 77, 55
1, 183835, Note_off_c, 0, 74, 60
1, 183875, Control_c, 0, 64, 26
1, 183940, Note_on_c, 0, 76, 60
1, 183943, Note_on_c, 0, 48, 54
1, 183948, Note_on_c, 0, 52, 54
1, 183949, Note_on_c, 0, 79, 47
1, 183979, Note_off_c, 0, 76, 61
1, 183989, Note_off_c, 0, 79, 53
1, 184079, Note_on_c, 0, 77, 51
1, 184081, Note_on_c, 0, 74, 50
1, 184107, Note_off_c, 0, 77, 54
1, 184117, Note_off_c, 0, 74, 66
1, 184214, Note_on_c, 0, 76, 53
1, 184221, Note_on_c, 0, 72, 53
1, 184245, Note_off_c, 0, 72, 62
1, 184259, Control_c, 0, 64, 27
1, 184272, Note_off_c, 0, 76, 58
1, 184304, Control_c, 0, 64, 28
1, 184338, Note_on_c, 0, 74, 55
1, 184364, Control_c, 0, 64, 29
1, 184370, Note_on_c, 0, 71, 20
1, 184388, Note_off_c, 0, 74, 56
1, 184395, Note_off_c, 0, 71, 44
1, 184470, Note_on_c, 0, 72, 59
1, 184480, Note_on_c, 0, 76, 55
1, 184509, Note_off_c, 0, 72, 61
1, 184528, Note_off_c, 0, 76, 59
1, 184600, Note_on_c, 0, 74, 59
1, 184612, Note_on_c, 0, 71, 49
1, 184636, Note_off_c, 0, 71, 57
1, 184655, Note_off_c, 0, 74, 57
1, 184730, Note_on_c, 0, 72, 55
1, 184730, Note_off_c, 0, 52, 49
1, 184735, Note_on_c, 0, 76, 57
1, 184742, Control_c, 0, 64, 30
1, 184752, Note_off_c, 0, 72, 64
1, 184772, Control_c, 0, 64, 31
1, 184781, Note_off_c, 0, 76, 62
1, 184787, Control_c, 0, 64, 32
1, 184802, Control_c, 0, 64, 33
1, 184816, Control_c, 0, 64, 34
1, 184831, Control_c, 0, 64, 35
1, 184846, Control_c, 0, 64, 36
1, 184855, Note_on_c, 0, 76, 56
1, 184859, Note_on_c, 0, 73, 58
1, 184861, Control_c, 0, 64, 37
1, 184867, Note_on_c, 0, 52, 52
1, 184876, Control_c, 0, 64, 38
1, 184879, Note_on_c, 0, 55, 45
1, 184891, Control_c, 0, 64, 38
1, 184894, Note_off_c, 0, 73, 64
1, 184903, Note_off_c, 0, 76, 64
1, 184950, Control_c, 0, 64, 38
1, 184976, Note_off_c, 0, 55, 54
1, 184980, Control_c, 0, 64, 37
1, 184991, Note_off_c, 0, 48, 56
1, 185002, Note_on_c, 0, 77, 67
1, 185004, Note_on_c, 0, 53, 50
1, 185008, Note_off_c, 0, 52, 36
1, 185011, Note_on_c, 0, 74, 50
1, 185019, Note_on_c, 0, 50, 45
1, 185024, Control_c, 0, 64, 36
1, 185032, Note_off_c, 0, 74, 66
1, 185054, Control_c, 0, 64, 35
1, 185069, Note_off_c, 0, 77, 57
1, 185083, Control_c, 0, 64, 33
1, 185098, Control_c, 0, 64, 27
1, 185113, Control_c, 0, 64, 0
1, 185137, Note_on_c, 0, 73, 61
1, 185139, Note_on_c, 0, 76, 62
1, 185172, Note_off_c, 0, 73, 63
1, 185196, Note_off_c, 0, 76, 58
1, 185246, Control_c, 0, 64, 38
1, 185258, Note_on_c, 0, 77, 71
1, 185261, Control_c, 0, 64, 64
1, 185268, Note_on_c, 0, 74, 55
1, 185276, Control_c, 0, 64, 65
1, 185300, Note_off_c, 0, 74, 65
1, 185306, Control_c, 0, 64, 66
1, 185317, Note_off_c, 0, 53, 63
1, 185319, Note_off_c, 0, 77, 60
1, 185321, Control_c, 0, 64, 66
1, 185336, Control_c, 0, 64, 67
1, 185353, Note_off_c, 0, 50, 61
1, 185357, Control_c, 0, 64, 67
1, 185373, Control_c, 0, 64, 68
1, 185388, Note_on_c, 0, 76, 63
1, 185388, Control_c, 0, 64, 69
1, 185392, Note_on_c, 0, 79, 63
1, 185403, Control_c, 0, 64, 71
1, 185418, Control_c, 0, 64, 71
1, 185420, Note_off_c, 0, 76, 66
1, 185458, Note_off_c, 0, 79, 57
1, 185534, Note_on_c, 0, 81, 65
1, 185536, Control_c, 0, 64, 70
1, 185538, Note_on_c, 0, 77, 62
1, 185544, Note_on_c, 0, 43, 57
1, 185550, Note_on_c, 0, 50, 59
1, 185551, Control_c, 0, 64, 68
1, 185565, Control_c, 0, 64, 63
1, 185574, Note_off_c, 0, 77, 57
1, 185580, Control_c, 0, 64, 43
1, 185589, Note_off_c, 0, 81, 52
1, 185595, Control_c, 0, 64, 0
1, 185672, Note_on_c, 0, 76, 60
1, 185674, Note_on_c, 0, 79, 59
1, 185708, Note_off_c, 0, 76, 62
1, 185732, Note_off_c, 0, 79, 52
1, 185801, Note_on_c, 0, 77, 66
1, 185813, Note_on_c, 0, 74, 51
1, 185847, Note_off_c, 0, 77, 56
1, 185849, Note_off_c, 0, 74, 65
1, 185939, Note_on_c, 0, 72, 64
1, 185939, Note_on_c, 0, 76, 61
1, 185976, Note_off_c, 0, 72, 60
1, 186000, Note_off_c, 0, 76, 60
1, 186067, Note_on_c, 0, 74, 62
1, 186075, Note_on_c, 0, 71, 55
1, 186110, Note_off_c, 0, 71, 62
1, 186129, Note_off_c, 0, 74, 61
1, 186193, Note_off_c, 0, 50, 51
1, 186200, Note_on_c, 0, 72, 59
1, 186209, Note_on_c, 0, 76, 52
1, 186236, Note_off_c, 0, 72, 63
1, 186267, Note_off_c, 0, 76, 55
1, 186327, Note_on_c, 0, 74, 60
1, 186330, Note_on_c, 0, 77, 66
1, 186358, Note_off_c, 0, 74, 66
1, 186367, Note_off_c, 0, 77, 57
1, 186447, Note_on_c, 0, 50, 57
1, 186460, Note_on_c, 0, 53, 50
1, 186460, Note_on_c, 0, 79, 63
1, 186477, Note_on_c, 0, 71, 42
1, 186487, Note_off_c, 0, 43, 61
1, 186488, Note_off_c, 0, 50, 65
1, 186495, Note_off_c, 0, 79, 48
1, 186501, Note_off_c, 0, 53, 64
1, 186503, Note_off_c, 0, 71, 49
1, 186601, Note_on_c, 0, 70, 67
1, 186601, Note_on_c, 0, 79, 62
1, 186610, Note_on_c, 0, 55, 58
1, 186618, Note_on_c, 0, 52, 52
1, 186626, Control_c, 0, 64, 21
1, 186630, Note_off_c, 0, 70, 66
1, 186641, Control_c, 0, 64, 25
1, 186656, Control_c, 0, 64, 26
1, 186672, Note_off_c, 0, 79, 56
1, 186715, Control_c, 0, 64, 25
1, 186745, Control_c, 0, 64, 23
1, 186755, Note_on_c, 0, 76, 63
1, 186759, Note_on_c, 0, 79, 56
1, 186760, Control_c, 0, 64, 21
1, 186793, Note_off_c, 0, 76, 64
1, 186801, Note_off_c, 0, 79, 57
1, 186856, Control_c, 0, 64, 23
1, 186880, Note_on_c, 0, 82, 71
1, 186886, Control_c, 0, 64, 24
1, 186896, Note_on_c, 0, 79, 63
1, 186901, Control_c, 0, 64, 25
1, 186918, Note_off_c, 0, 79, 61
1, 186936, Note_off_c, 0, 82, 61
1, 186960, Control_c, 0, 64, 24
1, 186975, Control_c, 0, 64, 23
1, 187005, Control_c, 0, 64, 21
1, 187009, Note_on_c, 0, 81, 67
1, 187013, Note_on_c, 0, 77, 64
1, 187020, Control_c, 0, 64, 20
1, 187035, Control_c, 0, 64, 18
1, 187036, Note_off_c, 0, 55, 61
1, 187040, Note_off_c, 0, 52, 64
1, 187041, Note_off_c, 0, 77, 61
1, 187064, Note_off_c, 0, 81, 59
1, 187064, Control_c, 0, 64, 16
1, 187124, Control_c, 0, 64, 18
1, 187145, Note_on_c, 0, 79, 72
1, 187152, Note_on_c, 0, 55, 64
1, 187156, Note_on_c, 0, 76, 50
1, 187160, Note_on_c, 0, 52, 63
1, 187180, Note_off_c, 0, 76, 60
1, 187185, Note_off_c, 0, 79, 60
1, 187270, Control_c, 0, 64, 16
1, 187281, Note_on_c, 0, 77, 64
1, 187290, Note_on_c, 0, 74, 50
1, 187318, Note_off_c, 0, 74, 57
1, 187333, Note_off_c, 0, 77, 59
1, 187419, Note_on_c, 0, 76, 65
1, 187434, Note_on_c, 0, 72, 47
1, 187446, Note_off_c, 0, 76, 68
1, 187449, Control_c, 0, 64, 13
1, 187458, Note_off_c, 0, 72, 61
1, 187493, Control_c, 0, 64, 10
1, 187537, Control_c, 0, 64, 13
1, 187544, Note_on_c, 0, 74, 58
1, 187553, Note_on_c, 0, 70, 63
1, 187593, Note_off_c, 0, 70, 63
1, 187604, Note_off_c, 0, 74, 62
1, 187634, Control_c, 0, 64, 10
1, 187685, Note_on_c, 0, 69, 65
1, 187685, Note_on_c, 0, 72, 67
1, 187693, Control_c, 0, 64, 0
1, 187716, Note_off_c, 0, 69, 67
1, 187741, Note_off_c, 0, 72, 60
1, 187783, Control_c, 0, 64, 10
1, 187813, Control_c, 0, 64, 0
1, 187813, Note_on_c, 0, 70, 64
1, 187816, Note_on_c, 0, 67, 59
1, 187856, Note_off_c, 0, 67, 59
1, 187863, Note_off_c, 0, 70, 61
1, 187901, Note_off_c, 0, 55, 50
1, 187939, Note_on_c, 0, 69, 65
1, 187943, Note_on_c, 0, 65, 67
1, 187961, Control_c, 0, 64, 42
1, 187974, Note_off_c, 0, 65, 65
1, 187975, Control_c, 0, 64, 59
1, 187988, Note_off_c, 0, 69, 62
1, 187990, Control_c, 0, 64, 61
1, 188019, Control_c, 0, 64, 62
1, 188034, Control_c, 0, 64, 63
1, 188049, Control_c, 0, 64, 64
1, 188064, Control_c, 0, 64, 65
1, 188066, Note_on_c, 0, 67, 70
1, 188070, Note_off_c, 0, 52, 37
1, 188073, Note_on_c, 0, 55, 51
1, 188078, Note_on_c, 0, 64, 52
1, 188084, Note_on_c, 0, 58, 52
1, 188093, Control_c, 0, 64, 65
1, 188104, Note_off_c, 0, 64, 63
1, 188108, Note_off_c, 0, 67, 61
1, 188120, Note_off_c, 0, 58, 66
1, 188129, Note_off_c, 0, 55, 64
1, 188197, Control_c, 0, 64, 65
1, 188212, Control_c, 0, 64, 64
1, 188219, Note_on_c, 0, 55, 66
1, 188226, Note_on_c, 0, 52, 61
1, 188227, Control_c, 0, 64, 59
1, 188242, Control_c, 0, 64, 38
1, 188257, Control_c, 0, 64, 0
1, 188349, Note_on_c, 0, 82, 71
1, 188359, Note_on_c, 0, 79, 54
1, 188384, Note_off_c, 0, 79, 57
1, 188397, Note_off_c, 0, 82, 60
1, 188480, Note_on_c, 0, 84, 72
1, 188489, Note_on_c, 0, 81, 67
1, 188516, Note_off_c, 0, 81, 63
1, 188541, Note_off_c, 0, 84, 62
1, 188609, Note_on_c, 0, 82, 69
1, 188613, Note_on_c, 0, 79, 62
1, 188641, Note_off_c, 0, 79, 65
1, 188656, Note_off_c, 0, 82, 64
1, 188749, Note_on_c, 0, 81, 69
1, 188749, Note_on_c, 0, 57, 67
1, 188749, Note_on_c, 0, 77, 72
1, 188759, Note_on_c, 0, 53, 59
1, 188785, Note_off_c, 0, 55, 61
1, 188789, Note_off_c, 0, 77, 56
1, 188806, Note_off_c, 0, 52, 53
1, 188807, Note_off_c, 0, 81, 59
1, 188883, Note_on_c, 0, 79, 67
1, 188888, Note_on_c, 0, 76, 59
1, 188919, Note_off_c, 0, 76, 67
1, 188933, Note_off_c, 0, 79, 57
1, 189013, Note_on_c, 0, 77, 69
1, 189017, Note_on_c, 0, 81, 67
1, 189041, Note_off_c, 0, 77, 64
1, 189068, Note_off_c, 0, 81, 58
1, 189142, Note_on_c, 0, 83, 71
1, 189147, Note_on_c, 0, 80, 66
1, 189178, Note_off_c, 0, 80, 64
1, 189192, Note_off_c, 0, 83, 58
1, 189285, Note_on_c, 0, 84, 72
1, 189291, Note_on_c, 0, 81, 71
1, 189317, Note_off_c, 0, 81, 63
1, 189334, Note_off_c, 0, 84, 61
1, 189412, Note_on_c, 0, 80, 76
1, 189418, Note_on_c, 0, 83, 65
1, 189451, Note_off_c, 0, 80, 63
1, 189458, Note_off_c, 0, 83, 59
1, 189541, Note_on_c, 0, 84, 73
1, 189548, Note_on_c, 0, 81, 71
1, 189561, Control_c, 0, 64, 45
1, 189576, Control_c, 0, 64, 59
1, 189577, Note_off_c, 0, 81, 60
1, 189582, Note_off_c, 0, 57, 56
1, 189583, Note_off_c, 0, 53, 58
1, 189590, Control_c, 0, 64, 60
1, 189598, Note_off_c, 0, 84, 63
1, 189620, Control_c, 0, 64, 61
1, 189635, Control_c, 0, 64, 61
1, 189664, Control_c, 0, 64, 62
1, 189670, Note_on_c, 0, 80, 76
1, 189671, Note_on_c, 0, 57, 62
1, 189672, Note_on_c, 0, 53, 55
1, 189674, Note_on_c, 0, 83, 65
1, 189711, Note_off_c, 0, 80, 63
1, 189715, Note_off_c, 0, 57, 60
1, 189716, Note_off_c, 0, 53, 67
1, 189726, Note_off_c, 0, 83, 59
1, 189753, Control_c, 0, 64, 61
1, 189768, Control_c, 0, 64, 60
1, 189783, Control_c, 0, 64, 58
1, 189798, Control_c, 0, 64, 55
1, 189813, Control_c, 0, 64, 50
1, 189815, Note_on_c, 0, 84, 72
1, 189822, Note_on_c, 0, 81, 70
1, 189827, Note_on_c, 0, 54, 60
1, 189828, Note_on_c, 0, 57, 57
1, 189828, Control_c, 0, 64, 39
1, 189850, Control_c, 0, 64, 18
1, 189860, Note_off_c, 0, 81, 59
1, 189864, Control_c, 0, 64, 0
1, 189884, Note_off_c, 0, 84, 62
1, 189955, Note_on_c, 0, 80, 76
1, 189962, Note_on_c, 0, 83, 67
1, 190001, Note_off_c, 0, 80, 62
1, 190016, Note_off_c, 0, 83, 57
1, 190087, Note_on_c, 0, 84, 76
1, 190093, Note_on_c, 0, 81, 73
1, 190126, Note_off_c, 0, 81, 59
1, 190148, Note_off_c, 0, 84, 63
1, 190212, Note_on_c, 0, 80, 73
1, 190213, Note_on_c, 0, 83, 69
1, 190251, Note_off_c, 0, 57, 62
1, 190251, Note_off_c, 0, 80, 63
1, 190261, Note_off_c, 0, 54, 61
1, 190271, Note_off_c, 0, 83, 60
1, 190349, Note_on_c, 0, 84, 73
1, 190354, Note_on_c, 0, 81, 70
1, 190358, Note_on_c, 0, 57, 66
1, 190360, Note_on_c, 0, 54, 60
1, 190382, Note_off_c, 0, 81, 60
1, 190400, Note_off_c, 0, 84, 61
1, 190491, Note_on_c, 0, 83, 67
1, 190496, Note_on_c, 0, 79, 69
1, 190540, Note_off_c, 0, 79, 61
1, 190548, Note_off_c, 0, 83, 58
1, 190630, Note_on_c, 0, 78, 74
1, 190632, Note_on_c, 0, 81, 73
1, 190665, Note_off_c, 0, 78, 60
1, 190692, Note_off_c, 0, 81, 59
1, 190759, Note_on_c, 0, 76, 72
1, 190761, Note_on_c, 0, 79, 72
1, 190797, Note_off_c, 0, 76, 66
1, 190820, Note_off_c, 0, 79, 61
1, 190896, Note_on_c, 0, 78, 76
1, 190898, Note_on_c, 0, 75, 68
1, 190925, Note_off_c, 0, 75, 68
1, 190944, Note_off_c, 0, 78, 62
1, 191033, Note_on_c, 0, 84, 74
1, 191039, Note_on_c, 0, 81, 63
1, 191069, Note_off_c, 0, 81, 63
1, 191087, Note_off_c, 0, 84, 62
1, 191163, Note_on_c, 0, 83, 68
1, 191169, Note_on_c, 0, 79, 68
1, 191180, Note_off_c, 0, 54, 49
1, 191182, Note_off_c, 0, 57, 39
1, 191203, Note_off_c, 0, 79, 59
1, 191228, Note_off_c, 0, 83, 56
1, 191286, Note_on_c, 0, 81, 68
1, 191289, Note_on_c, 0, 78, 72
1, 191296, Note_on_c, 0, 57, 63
1, 191297, Note_on_c, 0, 54, 60
1, 191341, Note_off_c, 0, 57, 63
1, 191344, Note_off_c, 0, 78, 58
1, 191347, Note_off_c, 0, 54, 62
1, 191348, Note_off_c, 0, 81, 59
1, 191437, Note_on_c, 0, 79, 73
1, 191440, Note_on_c, 0, 59, 73
1, 191443, Note_on_c, 0, 76, 64
1, 191446, Note_on_c, 0, 55, 62
1, 191471, Note_off_c, 0, 76, 68
1, 191504, Note_off_c, 0, 79, 57
1, 191563, Note_on_c, 0, 78, 68
1, 191567, Note_on_c, 0, 75, 63
1, 191607, Note_off_c, 0, 75, 61
1, 191631, Note_off_c, 0, 78, 62
1, 191700, Note_on_c, 0, 79, 76
1, 191702, Note_on_c, 0, 76, 70
1, 191734, Note_off_c, 0, 76, 60
1, 191753, Note_off_c, 0, 79, 59
1, 191829, Note_on_c, 0, 77, 80
1, 191833, Note_on_c, 0, 74, 74
1, 191871, Note_off_c, 0, 59, 62
1, 191873, Note_off_c, 0, 74, 62
1, 191883, Note_off_c, 0, 55, 64
1, 191899, Note_off_c, 0, 77, 58
1, 191975, Note_on_c, 0, 76, 75
1, 191983, Note_on_c, 0, 72, 64
1, 191987, Note_on_c, 0, 60, 69
1, 191989, Note_on_c, 0, 57, 59
1, 192015, Note_off_c, 0, 72, 61
1, 192043, Note_off_c, 0, 76, 60
1, 192118, Note_on_c, 0, 74, 63
1, 192127, Note_on_c, 0, 77, 65
1, 192151, Note_off_c, 0, 74, 62
1, 192251, Note_off_c, 0, 77, 34
1, 192254, Note_on_c, 0, 76, 63
1, 192257, Note_on_c, 0, 79, 69
1, 192281, Note_off_c, 0, 76, 69
1, 192302, Note_off_c, 0, 79, 61
1, 192380, Note_on_c, 0, 77, 65
1, 192384, Note_on_c, 0, 81, 56
1, 192412, Note_off_c, 0, 77, 61
1, 192412, Note_off_c, 0, 81, 50
1, 192427, Note_on_c, 0, 79, 14
1, 192428, Note_off_c, 0, 79, 127
1, 192514, Note_on_c, 0, 83, 66
1, 192520, Note_on_c, 0, 79, 57
1, 192543, Note_off_c, 0, 79, 64
1, 192622, Note_off_c, 0, 83, 34
1, 192638, Note_on_c, 0, 81, 71
1, 192639, Note_on_c, 0, 84, 70
1, 192666, Note_off_c, 0, 81, 63
1, 192689, Note_off_c, 0, 84, 63
1, 192768, Note_on_c, 0, 83, 61
1, 192772, Note_on_c, 0, 86, 71
1, 192816, Note_off_c, 0, 83, 57
1, 192824, Note_off_c, 0, 86, 50
1, 192903, Note_on_c, 0, 88, 73
1, 192906, Note_on_c, 0, 84, 71
1, 192930, Note_off_c, 0, 84, 68
1, 192956, Note_off_c, 0, 88, 63
1, 193047, Note_on_c, 0, 89, 77
1, 193051, Note_on_c, 0, 86, 66
1, 193092, Note_off_c, 0, 86, 60
1, 193103, Note_off_c, 0, 89, 63
1, 193171, Note_on_c, 0, 91, 75
1, 193174, Note_on_c, 0, 88, 69
1, 193207, Note_off_c, 0, 88, 59
1, 193216, Note_off_c, 0, 60, 54
1, 193223, Note_off_c, 0, 57, 51
1, 193240, Note_off_c, 0, 91, 57
1, 193312, Note_on_c, 0, 93, 72
1, 193313, Note_on_c, 0, 89, 65
1, 193355, Note_off_c, 0, 89, 61
1, 193378, Note_off_c, 0, 93, 54
1, 193435, Note_on_c, 0, 57, 46
1, 193437, Note_on_c, 0, 60, 43
1, 193441, Note_on_c, 0, 88, 66
1, 193448, Note_on_c, 0, 91, 57
1, 193464, Note_off_c, 0, 60, 60
1, 193473, Note_off_c, 0, 57, 63
1, 193485, Note_off_c, 0, 88, 58
1, 193491, Note_off_c, 0, 91, 56
1, 193576, Note_on_c, 0, 89, 63
1, 193587, Note_on_c, 0, 86, 58
1, 193596, Note_on_c, 0, 53, 49
1, 193599, Note_on_c, 0, 57, 41
1, 193627, Note_off_c, 0, 89, 62
1, 193635, Note_off_c, 0, 86, 58
1, 193716, Note_on_c, 0, 88, 65
1, 193729, Note_on_c, 0, 84, 57
1, 193752, Note_off_c, 0, 84, 61
1, 193774, Note_off_c, 0, 88, 56
1, 193846, Note_on_c, 0, 86, 65
1, 193856, Note_on_c, 0, 83, 53
1, 193888, Note_off_c, 0, 57, 36
1, 193890, Note_off_c, 0, 86, 61
1, 193899, Note_off_c, 0, 83, 57
1, 193968, Note_off_c, 0, 53, 39
1, 193987, Note_on_c, 0, 84, 62
1, 193989, Note_on_c, 0, 81, 65
1, 194034, Note_off_c, 0, 81, 58
1, 194046, Note_off_c, 0, 84, 57
1, 194123, Note_on_c, 0, 83, 59
1, 194123, Note_on_c, 0, 79, 61
1, 194138, Note_on_c, 0, 55, 38
1, 194143, Note_on_c, 0, 59, 36
1, 194165, Note_off_c, 0, 79, 57
1, 194177, Note_off_c, 0, 83, 55
1, 194248, Note_on_c, 0, 81, 66
1, 194260, Note_on_c, 0, 77, 54
1, 194295, Note_off_c, 0, 81, 59
1, 194306, Note_off_c, 0, 77, 57
1, 194320, Note_off_c, 0, 55, 50
1, 194331, Note_off_c, 0, 59, 54
1, 194406, Note_on_c, 0, 76, 61
1, 194406, Note_on_c, 0, 79, 57
1, 194454, Note_off_c, 0, 76, 63
1, 194460, Note_off_c, 0, 79, 58
1, 194537, Note_on_c, 0, 74, 56
1, 194540, Note_on_c, 0, 77, 54
1, 194576, Note_off_c, 0, 74, 61
1, 194588, Note_off_c, 0, 77, 55
1, 194672, Note_on_c, 0, 76, 60
1, 194683, Note_on_c, 0, 72, 52
1, 194690, Note_on_c, 0, 48, 42
1, 194696, Note_on_c, 0, 60, 38
1, 194717, Note_off_c, 0, 76, 62
1, 194725, Note_off_c, 0, 72, 61
1, 194822, Note_on_c, 0, 74, 51
1, 194831, Note_on_c, 0, 71, 49
1, 194862, Note_off_c, 0, 71, 56
1, 194866, Note_off_c, 0, 74, 61
1, 194964, Note_on_c, 0, 69, 54
1, 194964, Note_on_c, 0, 72, 53
1, 195003, Note_off_c, 0, 69, 64
1, 195011, Note_off_c, 0, 72, 58
1, 195104, Note_on_c, 0, 67, 56
1, 195106, Note_on_c, 0, 71, 51
1, 195132, Note_off_c, 0, 60, 36
1, 195145, Note_off_c, 0, 67, 61
1, 195146, Note_off_c, 0, 71, 55
1, 195200, Note_off_c, 0, 48, 46
1, 195258, Note_on_c, 0, 69, 58
1, 195268, Note_on_c, 0, 65, 50
1, 195296, Note_off_c, 0, 65, 60
1, 195309, Note_off_c, 0, 69, 57
1, 195403, Note_on_c, 0, 67, 56
1, 195411, Note_on_c, 0, 64, 49
1, 195444, Note_off_c, 0, 64, 59
1, 195456, Note_off_c, 0, 67, 54
1, 195560, Note_on_c, 0, 65, 51
1, 195564, Note_on_c, 0, 69, 53
1, 195588, Note_off_c, 0, 65, 61
1, 195612, Note_off_c, 0, 69, 58
1, 195720, Note_on_c, 0, 71, 59
1, 195725, Note_on_c, 0, 43, 37
1, 195734, Note_on_c, 0, 62, 39
1, 195760, Note_off_c, 0, 71, 56
1, 195766, Note_off_c, 0, 62, 46
1, 195790, Note_off_c, 0, 43, 42
1, 195986, Note_on_c, 0, 72, 47
1, 195998, Note_on_c, 0, 64, 37
1, 196057, Poly_aftertouch_c, 0, 36, 127
1, 196108, Control_c, 0, 64, 55
1, 196123, Control_c, 0, 64, 62
1, 196138, Control_c, 0, 64, 64
1, 196152, Control_c, 0, 64, 65
1, 196167, Control_c, 0, 64, 67
1, 196182, Control_c, 0, 64, 70
1, 196197, Control_c, 0, 64, 73
1, 196212, Control_c, 0, 64, 76
1, 196226, Control_c, 0, 64, 78
1, 196241, Control_c, 0, 64, 79
1, 196247, Poly_aftertouch_c, 0, 36, 0
1, 196256, Control_c, 0, 64, 80
1, 196271, Control_c, 0, 64, 81
1, 196286, Control_c, 0, 64, 81
1, 196296, Note_off_c, 0, 72, 60
1, 196300, Control_c, 0, 64, 82
1, 196330, Note_off_c, 0, 64, 49
1, 196433, Control_c, 0, 64, 81
1, 196448, Control_c, 0, 64, 80
1, 196463, Control_c, 0, 64, 77
1, 196478, Control_c, 0, 64, 74
1, 196493, Control_c, 0, 64, 70
1, 196508, Control_c, 0, 64, 65
1, 196523, Control_c, 0, 64, 57
1, 196538, Control_c, 0, 64, 46
1, 196553, Control_c, 0, 64, 44
1, 196591, Control_c, 0, 64, 42
1, 196605, Control_c, 0, 64, 37
1, 196620, Control_c, 0, 64, 31
1, 196635, Control_c, 0, 64, 24
1, 196650, Control_c, 0, 64, 20
1, 196679, Control_c, 0, 64, 18
1, 196709, Control_c, 0, 64, 13
1, 196724, Control_c, 0, 64, 10
1, 196797, Control_c, 0, 64, 13
1, 196812, Control_c, 0, 64, 23
1, 196827, Control_c, 0, 64, 34
1, 196840, Note_on_c, 0, 36, 28
1, 196842, Control_c, 0, 64, 46
1, 196857, Control_c, 0, 64, 54
1, 196872, Control_c, 0, 64, 59
1, 196887, Control_c, 0, 64, 62
1, 196901, Control_c, 0, 64, 64
1, 196916, Control_c, 0, 64, 65
1, 196931, Control_c, 0, 64, 67
1, 196946, Control_c, 0, 64, 69
1, 196961, Control_c, 0, 64, 72
1, 196975, Control_c, 0, 64, 74
1, 196990, Control_c, 0, 64, 75
1, 197005, Control_c, 0, 64, 77
1, 197020, Control_c, 0, 64, 78
1, 197035, Control_c, 0, 64, 80
1, 197049, Control_c, 0, 64, 82
1, 197064, Control_c, 0, 64, 83
1, 197079, Control_c, 0, 64, 84
1, 197094, Control_c, 0, 64, 84
1, 197109, Control_c, 0, 64, 85
1, 197123, Control_c, 0, 64, 85
1, 197144, Note_on_c, 0, 43, 32
1, 197145, Note_on_c, 0, 69, 41
1, 197153, Control_c, 0, 64, 86
1, 197168, Control_c, 0, 64, 86
1, 197170, Note_on_c, 0, 57, 32
1, 197182, Control_c, 0, 64, 87
1, 197197, Control_c, 0, 64, 87
1, 197229, Note_off_c, 0, 57, 43
1, 197266, Note_off_c, 0, 69, 36
1, 197267, Note_off_c, 0, 36, 35
1, 197414, Note_off_c, 0, 43, 32
1, 197428, Note_on_c, 0, 67, 44
1, 197444, Note_on_c, 0, 55, 30
1, 197454, Note_on_c, 0, 52, 18
1, 197513, Note_off_c, 0, 52, 44
1, 197576, Control_c, 0, 64, 86
1, 197591, Control_c, 0, 64, 81
1, 197605, Control_c, 0, 64, 73
1, 197620, Control_c, 0, 64, 56
1, 197635, Control_c, 0, 64, 0
1, 197650, Control_c, 0, 64, 26
1, 197662, Note_off_c, 0, 67, 58
1, 197663, Note_off_c, 0, 55, 42
1, 197665, Control_c, 0, 64, 61
1, 197679, Control_c, 0, 64, 67
1, 197685, Poly_aftertouch_c, 0, 36, 127
1, 197694, Control_c, 0, 64, 70
1, 197709, Control_c, 0, 64, 74
1, 197724, Control_c, 0, 64, 77
1, 197739, Control_c, 0, 64, 80
1, 197753, Control_c, 0, 64, 81
1, 197768, Control_c, 0, 64, 83
1, 197783, Control_c, 0, 64, 84
1, 197797, Control_c, 0, 64, 85
1, 197812, Control_c, 0, 64, 85
1, 197827, Control_c, 0, 64, 86
1, 197842, Control_c, 0, 64, 87
1, 197852, Note_on_c, 0, 43, 39
1, 197855, Note_on_c, 0, 71, 45
1, 197857, Control_c, 0, 64, 87
1, 197871, Control_c, 0, 64, 88
1, 197876, Note_on_c, 0, 59, 23
1, 197886, Control_c, 0, 64, 88
1, 197901, Control_c, 0, 64, 89
1, 197921, Note_off_c, 0, 71, 0
1, 197921, Note_on_c, 0, 71, 4
1, 197926, Note_off_c, 0, 59, 44
1, 197965, Poly_aftertouch_c, 0, 36, 0
1, 198095, Note_on_c, 0, 72, 51
1, 198106, Note_on_c, 0, 52, 28
1, 198111, Note_on_c, 0, 60, 34
1, 198124, Note_off_c, 0, 71, 29
1, 198217, Note_off_c, 0, 52, 36
1, 198250, Control_c, 0, 64, 88
1, 198258, Note_off_c, 0, 43, 21
1, 198265, Control_c, 0, 64, 83
1, 198280, Control_c, 0, 64, 72
1, 198295, Control_c, 0, 64, 60
1, 198309, Control_c, 0, 64, 0
1, 198319, Note_on_c, 0, 36, 27
1, 198324, Control_c, 0, 64, 35
1, 198331, Note_off_c, 0, 60, 37
1, 198339, Control_c, 0, 64, 62
1, 198354, Control_c, 0, 64, 67
1, 198369, Control_c, 0, 64, 71
1, 198374, Note_off_c, 0, 72, 63
1, 198383, Control_c, 0, 64, 76
1, 198398, Control_c, 0, 64, 79
1, 198413, Control_c, 0, 64, 81
1, 198428, Control_c, 0, 64, 83
1, 198443, Control_c, 0, 64, 84
1, 198458, Control_c, 0, 64, 85
1, 198472, Control_c, 0, 64, 87
1, 198487, Control_c, 0, 64, 87
1, 198502, Control_c, 0, 64, 88
1, 198509, Note_on_c, 0, 74, 55
1, 198517, Control_c, 0, 64, 89
1, 198526, Note_on_c, 0, 43, 35
1, 198532, Control_c, 0, 64, 90
1, 198546, Note_on_c, 0, 62, 19
1, 198547, Control_c, 0, 64, 90
1, 198562, Control_c, 0, 64, 91
1, 198577, Control_c, 0, 64, 92
1, 198590, Note_off_c, 0, 62, 50
1, 198607, Control_c, 0, 64, 92
1, 198636, Control_c, 0, 64, 93
1, 198664, Note_off_c, 0, 36, 38
1, 198753, Note_on_c, 0, 52, 32
1, 198757, Note_on_c, 0, 76, 55
1, 198773, Note_on_c, 0, 64, 43
1, 198784, Control_c, 0, 64, 93
1, 198795, Note_off_c, 0, 52, 50
1, 198809, Note_off_c, 0, 74, 34
1, 198903, Note_off_c, 0, 43, 39
1, 198922, Note_off_c, 0, 64, 22
1, 198925, Control_c, 0, 64, 92
1, 198940, Control_c, 0, 64, 89
1, 198955, Control_c, 0, 64, 80
1, 198969, Note_on_c, 0, 35, 44
1, 198970, Control_c, 0, 64, 69
1, 198985, Control_c, 0, 64, 34
1, 199000, Control_c, 0, 64, 0
1, 199030, Control_c, 0, 64, 58
1, 199045, Control_c, 0, 64, 69
1, 199059, Control_c, 0, 64, 74
1, 199074, Control_c, 0, 64, 78
1, 199089, Control_c, 0, 64, 81
1, 199104, Control_c, 0, 64, 83
1, 199119, Control_c, 0, 64, 85
1, 199133, Control_c, 0, 64, 87
1, 199142, Note_off_c, 0, 76, 38
1, 199148, Control_c, 0, 64, 90
1, 199163, Control_c, 0, 64, 92
1, 199164, Note_on_c, 0, 74, 54
1, 199173, Note_on_c, 0, 62, 45
1, 199177, Control_c, 0, 64, 93
1, 199181, Note_on_c, 0, 43, 41
1, 199192, Control_c, 0, 64, 95
1, 199207, Control_c, 0, 64, 96
1, 199222, Control_c, 0, 64, 97
1, 199237, Control_c, 0, 64, 98
1, 199251, Control_c, 0, 64, 99
1, 199263, Note_off_c, 0, 62, 41
1, 199279, Note_off_c, 0, 35, 40
1, 199281, Control_c, 0, 64, 99
1, 199296, Control_c, 0, 64, 100
1, 199311, Control_c, 0, 64, 100
1, 199325, Control_c, 0, 64, 101
1, 199355, Control_c, 0, 64, 101
1, 199388, Note_off_c, 0, 74, 34
1, 199391, Note_on_c, 0, 72, 59
1, 199402, Note_on_c, 0, 50, 42
1, 199407, Note_on_c, 0, 60, 51
1, 199474, Control_c, 0, 64, 102
1, 199533, Note_off_c, 0, 50, 32
1, 199540, Note_off_c, 0, 43, 16
1, 199581, Note_off_c, 0, 60, 52
1, 199584, Control_c, 0, 64, 101
1, 199599, Control_c, 0, 64, 96
1, 199610, Note_on_c, 0, 35, 47
1, 199614, Control_c, 0, 64, 87
1, 199629, Control_c, 0, 64, 72
1, 199644, Control_c, 0, 64, 48
1, 199659, Control_c, 0, 64, 0
1, 199674, Control_c, 0, 64, 18
1, 199689, Control_c, 0, 64, 64
1, 199704, Control_c, 0, 64, 72
1, 199718, Control_c, 0, 64, 79
1, 199733, Control_c, 0, 64, 83
1, 199736, Note_off_c, 0, 72, 49
1, 199748, Control_c, 0, 64, 85
1, 199763, Control_c, 0, 64, 88
1, 199778, Control_c, 0, 64, 91
1, 199793, Control_c, 0, 64, 93
1, 199805, Note_on_c, 0, 71, 60
1, 199808, Control_c, 0, 64, 96
1, 199809, Note_on_c, 0, 43, 43
1, 199814, Note_on_c, 0, 59, 54
1, 199823, Control_c, 0, 64, 97
1, 199838, Control_c, 0, 64, 98
1, 199853, Control_c, 0, 64, 99
1, 199867, Control_c, 0, 64, 100
1, 199882, Control_c, 0, 64, 101
1, 199897, Control_c, 0, 64, 101
1, 199912, Note_off_c, 0, 35, 36
1, 199913, Note_off_c, 0, 59, 39
1, 199927, Control_c, 0, 64, 102
1, 199942, Control_c, 0, 64, 102
1, 199971, Control_c, 0, 64, 103
1, 199988, Note_off_c, 0, 71, 43
1, 200031, Note_on_c, 0, 50, 35
1, 200033, Note_on_c, 0, 69, 59
1, 200044, Note_on_c, 0, 57, 52
1, 200148, Control_c, 0, 64, 103
1, 200151, Note_off_c, 0, 50, 34
1, 200172, Note_off_c, 0, 43, 32
1, 200199, Note_off_c, 0, 57, 53
1, 200222, Control_c, 0, 64, 102
1, 200237, Control_c, 0, 64, 95
1, 200244, Note_on_c, 0, 35, 43
1, 200252, Control_c, 0, 64, 81
1, 200267, Control_c, 0, 64, 63
1, 200282, Control_c, 0, 64, 0
1, 200306, Note_off_c, 0, 69, 52
1, 200312, Control_c, 0, 64, 54
1, 200333, Control_c, 0, 64, 70
1, 200348, Control_c, 0, 64, 79
1, 200363, Control_c, 0, 64, 86
1, 200378, Control_c, 0, 64, 89
1, 200393, Control_c, 0, 64, 92
1, 200407, Control_c, 0, 64, 95
1, 200422, Control_c, 0, 64, 98
1, 200437, Control_c, 0, 64, 101
1, 200446, Note_on_c, 0, 66, 58
1, 200452, Control_c, 0, 64, 103
1, 200453, Note_on_c, 0, 54, 50
1, 200455, Note_on_c, 0, 43, 46
1, 200467, Control_c, 0, 64, 105
1, 200482, Control_c, 0, 64, 107
1, 200496, Control_c, 0, 64, 108
1, 200506, Note_off_c, 0, 35, 35
1, 200511, Control_c, 0, 64, 109
1, 200526, Control_c, 0, 64, 109
1, 200542, Note_off_c, 0, 54, 56
1, 200542, Control_c, 0, 64, 110
1, 200557, Control_c, 0, 64, 110
1, 200571, Control_c, 0, 64, 111
1, 200614, Note_off_c, 0, 43, 35
1, 200647, Note_off_c, 0, 66, 54
1, 200657, Note_on_c, 0, 50, 35
1, 200666, Note_on_c, 0, 67, 66
1, 200686, Note_on_c, 0, 55, 47
1, 200792, Control_c, 0, 64, 110
1, 200807, Control_c, 0, 64, 102
1, 200821, Control_c, 0, 64, 87
1, 200836, Control_c, 0, 64, 70
1, 200851, Control_c, 0, 64, 0
1, 200859, Note_off_c, 0, 50, 26
1, 200873, Note_on_c, 0, 37, 46
1, 200896, Control_c, 0, 64, 67
1, 200911, Control_c, 0, 64, 76
1, 200926, Control_c, 0, 64, 85
1, 200927, Note_off_c, 0, 67, 62
1, 200929, Note_off_c, 0, 55, 48
1, 200940, Control_c, 0, 64, 90
1, 200955, Control_c, 0, 64, 92
1, 200970, Control_c, 0, 64, 95
1, 200985, Control_c, 0, 64, 99
1, 201000, Control_c, 0, 64, 102
1, 201014, Control_c, 0, 64, 106
1, 201029, Control_c, 0, 64, 109
1, 201044, Control_c, 0, 64, 111
1, 201059, Control_c, 0, 64, 112
1, 201081, Control_c, 0, 64, 114
1, 201092, Note_on_c, 0, 70, 66
1, 201096, Control_c, 0, 64, 115
1, 201108, Note_on_c, 0, 43, 44
1, 201111, Control_c, 0, 64, 116
1, 201118, Note_on_c, 0, 58, 44
1, 201125, Control_c, 0, 64, 116
1, 201140, Control_c, 0, 64, 117
1, 201144, Note_off_c, 0, 37, 41
1, 201170, Control_c, 0, 64, 117
1, 201182, Note_off_c, 0, 58, 46
1, 201188, Note_off_c, 0, 70, 62
1, 201322, Note_on_c, 0, 52, 44
1, 201327, Note_on_c, 0, 69, 66
1, 201343, Note_off_c, 0, 43, 37
1, 201350, Note_on_c, 0, 57, 49
1, 201379, Note_off_c, 0, 52, 48
1, 201437, Control_c, 0, 64, 114
1, 201452, Control_c, 0, 64, 103
1, 201467, Control_c, 0, 64, 87
1, 201482, Control_c, 0, 64, 69
1, 201496, Note_off_c, 0, 57, 45
1, 201497, Control_c, 0, 64, 0
1, 201522, Note_on_c, 0, 37, 52
1, 201526, Control_c, 0, 64, 52
1, 201541, Control_c, 0, 64, 71
1, 201556, Control_c, 0, 64, 81
1, 201567, Note_off_c, 0, 69, 66
1, 201570, Control_c, 0, 64, 89
1, 201585, Control_c, 0, 64, 92
1, 201600, Control_c, 0, 64, 95
1, 201615, Control_c, 0, 64, 98
1, 201630, Control_c, 0, 64, 103
1, 201644, Control_c, 0, 64, 107
1, 201659, Control_c, 0, 64, 110
1, 201674, Control_c, 0, 64, 112
1, 201689, Control_c, 0, 64, 114
1, 201704, Control_c, 0, 64, 115
1, 201719, Control_c, 0, 64, 117
1, 201719, Note_on_c, 0, 75, 67
1, 201732, Note_on_c, 0, 63, 58
1, 201734, Control_c, 0, 64, 118
1, 201748, Control_c, 0, 64, 119
1, 201751, Note_on_c, 0, 45, 41
1, 201763, Control_c, 0, 64, 120
1, 201778, Control_c, 0, 64, 121
1, 201781, Note_off_c, 0, 37, 57
1, 201830, Control_c, 0, 64, 122
1, 201833, Note_off_c, 0, 63, 59
1, 201844, Control_c, 0, 64, 122
1, 201957, Note_on_c, 0, 52, 48
1, 201959, Note_on_c, 0, 76, 72
1, 201975, Note_on_c, 0, 64, 55
1, 201999, Note_off_c, 0, 52, 53
1, 202003, Note_off_c, 0, 75, 50
1, 202067, Control_c, 0, 64, 115
1, 202073, Note_off_c, 0, 45, 18
1, 202082, Control_c, 0, 64, 100
1, 202096, Control_c, 0, 64, 82
1, 202111, Control_c, 0, 64, 57
1, 202126, Control_c, 0, 64, 0
1, 202142, Note_off_c, 0, 64, 40
1, 202147, Note_on_c, 0, 37, 54
1, 202157, Control_c, 0, 64, 60
1, 202172, Control_c, 0, 64, 74
1, 202187, Control_c, 0, 64, 84
1, 202201, Control_c, 0, 64, 92
1, 202211, Note_off_c, 0, 76, 62
1, 202216, Control_c, 0, 64, 93
1, 202231, Control_c, 0, 64, 96
1, 202246, Control_c, 0, 64, 99
1, 202261, Control_c, 0, 64, 103
1, 202276, Control_c, 0, 64, 105
1, 202291, Control_c, 0, 64, 108
1, 202306, Control_c, 0, 64, 109
1, 202321, Control_c, 0, 64, 110
1, 202336, Control_c, 0, 64, 111
1, 202350, Control_c, 0, 64, 112
1, 202359, Note_on_c, 0, 77, 75
1, 202365, Note_on_c, 0, 45, 51
1, 202365, Note_off_c, 0, 37, 63
1, 202365, Control_c, 0, 64, 113
1, 202374, Note_on_c, 0, 65, 61
1, 202380, Control_c, 0, 64, 114
1, 202394, Control_c, 0, 64, 115
1, 202424, Control_c, 0, 64, 115
1, 202434, Note_off_c, 0, 65, 45
1, 202556, Note_off_c, 0, 45, 30
1, 202604, Note_on_c, 0, 79, 73
1, 202617, Note_on_c, 0, 52, 43
1, 202634, Note_on_c, 0, 67, 52
1, 202651, Note_off_c, 0, 77, 54
1, 202683, Control_c, 0, 64, 112
1, 202692, Note_off_c, 0, 52, 51
1, 202698, Control_c, 0, 64, 102
1, 202713, Control_c, 0, 64, 86
1, 202727, Control_c, 0, 64, 67
1, 202742, Control_c, 0, 64, 0
1, 202787, Control_c, 0, 64, 59
1, 202801, Control_c, 0, 64, 72
1, 202810, Note_on_c, 0, 38, 45
1, 202816, Control_c, 0, 64, 81
1, 202831, Control_c, 0, 64, 87
1, 202846, Control_c, 0, 64, 90
1, 202860, Note_off_c, 0, 67, 48
1, 202861, Control_c, 0, 64, 93
1, 202870, Note_off_c, 0, 79, 55
1, 202875, Control_c, 0, 64, 98
1, 202890, Control_c, 0, 64, 102
1, 202905, Control_c, 0, 64, 105
1, 202920, Control_c, 0, 64, 108
1, 202935, Control_c, 0, 64, 109
1, 202950, Control_c, 0, 64, 111
1, 202965, Control_c, 0, 64, 112
1, 202980, Control_c, 0, 64, 114
1, 202995, Control_c, 0, 64, 115
1, 203010, Control_c, 0, 64, 115
1, 203021, Note_on_c, 0, 76, 64
1, 203038, Note_on_c, 0, 45, 45
1, 203039, Control_c, 0, 64, 116
1, 203054, Control_c, 0, 64, 116
1, 203055, Note_on_c, 0, 64, 38
1, 203102, Note_off_c, 0, 64, 48
1, 203102, Note_off_c, 0, 38, 39
1, 203248, Note_on_c, 0, 77, 66
1, 203251, Note_on_c, 0, 53, 39
1, 203277, Note_on_c, 0, 65, 44
1, 203290, Note_off_c, 0, 76, 56
1, 203323, Note_off_c, 0, 53, 48
1, 203388, Control_c, 0, 64, 115
1, 203403, Note_off_c, 0, 45, 15
1, 203403, Control_c, 0, 64, 107
1, 203417, Control_c, 0, 64, 94
1, 203432, Control_c, 0, 64, 78
1, 203447, Control_c, 0, 64, 43
1, 203453, Note_on_c, 0, 38, 47
1, 203462, Control_c, 0, 64, 0
1, 203462, Note_off_c, 0, 65, 42
1, 203491, Control_c, 0, 64, 28
1, 203506, Control_c, 0, 64, 67
1, 203521, Control_c, 0, 64, 75
1, 203536, Control_c, 0, 64, 81
1, 203550, Control_c, 0, 64, 84
1, 203565, Control_c, 0, 64, 86
1, 203580, Control_c, 0, 64, 88
1, 203595, Control_c, 0, 64, 90
1, 203610, Control_c, 0, 64, 93
1, 203624, Control_c, 0, 64, 95
1, 203639, Control_c, 0, 64, 97
1, 203642, Note_off_c, 0, 77, 36
1, 203648, Note_on_c, 0, 76, 58
1, 203654, Control_c, 0, 64, 98
1, 203655, Note_on_c, 0, 64, 52
1, 203663, Note_on_c, 0, 45, 46
1, 203669, Control_c, 0, 64, 99
1, 203684, Control_c, 0, 64, 99
1, 203698, Control_c, 0, 64, 100
1, 203713, Note_off_c, 0, 64, 55
1, 203728, Control_c, 0, 64, 101
1, 203739, Note_off_c, 0, 76, 0
1, 203739, Note_on_c, 0, 76, 9
1, 203744, Control_c, 0, 64, 101
1, 203766, Note_off_c, 0, 38, 37
1, 203842, Note_off_c, 0, 76, 38
1, 203864, Note_on_c, 0, 74, 58
1, 203871, Note_off_c, 0, 45, 29
1, 203877, Note_on_c, 0, 62, 55
1, 203879, Note_on_c, 0, 53, 37
1, 203988, Note_off_c, 0, 53, 43
1, 203993, Note_off_c, 0, 62, 48
1, 204040, Control_c, 0, 64, 99
1, 204055, Control_c, 0, 64, 90
1, 204059, Note_on_c, 0, 38, 57
1, 204077, Control_c, 0, 64, 75
1, 204092, Control_c, 0, 64, 36
1, 204107, Control_c, 0, 64, 0
1, 204136, Control_c, 0, 64, 47
1, 204151, Control_c, 0, 64, 69
1, 204166, Control_c, 0, 64, 77
1, 204181, Control_c, 0, 64, 82
1, 204196, Control_c, 0, 64, 85
1, 204211, Control_c, 0, 64, 87
1, 204226, Control_c, 0, 64, 90
1, 204240, Control_c, 0, 64, 93
1, 204255, Control_c, 0, 64, 96
1, 204267, Note_on_c, 0, 76, 69
1, 204270, Control_c, 0, 64, 99
1, 204281, Note_on_c, 0, 64, 58
1, 204285, Control_c, 0, 64, 101
1, 204286, Note_on_c, 0, 45, 46
1, 204300, Control_c, 0, 64, 102
1, 204307, Note_off_c, 0, 74, 62
1, 204314, Control_c, 0, 64, 103
1, 204324, Note_off_c, 0, 64, 59
1, 204329, Control_c, 0, 64, 104
1, 204333, Note_off_c, 0, 76, 64
1, 204344, Control_c, 0, 64, 105
1, 204345, Note_off_c, 0, 38, 57
1, 204373, Control_c, 0, 64, 105
1, 204403, Control_c, 0, 64, 106
1, 204461, Note_off_c, 0, 45, 36
1, 204473, Note_on_c, 0, 72, 68
1, 204486, Note_on_c, 0, 53, 54
1, 204491, Note_on_c, 0, 60, 49
1, 204540, Note_off_c, 0, 53, 58
1, 204595, Control_c, 0, 64, 106
1, 204602, Note_off_c, 0, 60, 53
1, 204670, Control_c, 0, 64, 106
1, 204685, Control_c, 0, 64, 102
1, 204693, Note_on_c, 0, 39, 61
1, 204700, Control_c, 0, 64, 91
1, 204714, Control_c, 0, 64, 75
1, 204729, Control_c, 0, 64, 45
1, 204744, Control_c, 0, 64, 0
1, 204774, Control_c, 0, 64, 34
1, 204788, Control_c, 0, 64, 68
1, 204803, Control_c, 0, 64, 75
1, 204825, Control_c, 0, 64, 81
1, 204840, Control_c, 0, 64, 85
1, 204855, Control_c, 0, 64, 88
1, 204866, Note_off_c, 0, 72, 49
1, 204869, Control_c, 0, 64, 91
1, 204884, Control_c, 0, 64, 96
1, 204894, Note_on_c, 0, 70, 63
1, 204899, Control_c, 0, 64, 101
1, 204910, Note_on_c, 0, 58, 48
1, 204912, Note_on_c, 0, 47, 55
1, 204914, Control_c, 0, 64, 104
1, 204929, Control_c, 0, 64, 107
1, 204944, Control_c, 0, 64, 109
1, 204959, Control_c, 0, 64, 110
1, 204974, Note_off_c, 0, 58, 58
1, 204974, Control_c, 0, 64, 112
1, 204988, Control_c, 0, 64, 114
1, 204992, Note_off_c, 0, 39, 55
1, 205003, Control_c, 0, 64, 115
1, 205018, Control_c, 0, 64, 115
1, 205062, Control_c, 0, 64, 116
1, 205063, Note_off_c, 0, 70, 56
1, 205092, Control_c, 0, 64, 116
1, 205111, Note_on_c, 0, 71, 68
1, 205120, Note_on_c, 0, 59, 57
1, 205120, Note_on_c, 0, 54, 45
1, 205151, Control_c, 0, 64, 117
1, 205167, Note_off_c, 0, 54, 51
1, 205181, Control_c, 0, 64, 117
1, 205195, Control_c, 0, 64, 119
1, 205210, Control_c, 0, 64, 120
1, 205225, Control_c, 0, 64, 121
1, 205251, Note_off_c, 0, 47, 43
1, 205253, Note_off_c, 0, 59, 51
1, 205256, Control_c, 0, 64, 121
1, 205270, Control_c, 0, 64, 112
1, 205285, Control_c, 0, 64, 96
1, 205300, Control_c, 0, 64, 79
1, 205302, Note_off_c, 0, 71, 60
1, 205305, Note_on_c, 0, 39, 60
1, 205314, Control_c, 0, 64, 65
1, 205329, Control_c, 0, 64, 60
1, 205346, Control_c, 0, 64, 66
1, 205360, Control_c, 0, 64, 76
1, 205375, Control_c, 0, 64, 86
1, 205390, Control_c, 0, 64, 94
1, 205405, Control_c, 0, 64, 100
1, 205419, Control_c, 0, 64, 104
1, 205434, Control_c, 0, 64, 108
1, 205449, Control_c, 0, 64, 112
1, 205464, Control_c, 0, 64, 116
1, 205479, Control_c, 0, 64, 119
1, 205493, Control_c, 0, 64, 122
1, 205507, Note_on_c, 0, 77, 75
1, 205508, Control_c, 0, 64, 126
1, 205510, Note_on_c, 0, 47, 58
1, 205523, Control_c, 0, 64, 127
1, 205529, Note_on_c, 0, 65, 51
1, 205552, Note_off_c, 0, 65, 61
1, 205603, Note_off_c, 0, 39, 56
1, 205730, Note_on_c, 0, 78, 77
1, 205742, Note_on_c, 0, 66, 60
1, 205749, Note_on_c, 0, 54, 42
1, 205752, Note_off_c, 0, 77, 56
1, 205792, Note_off_c, 0, 54, 45
1, 205856, Control_c, 0, 64, 124
1, 205871, Control_c, 0, 64, 108
1, 205886, Control_c, 0, 64, 91
1, 205901, Control_c, 0, 64, 73
1, 205913, Note_off_c, 0, 47, 44
1, 205916, Control_c, 0, 64, 0
1, 205921, Note_on_c, 0, 39, 58
1, 205934, Note_off_c, 0, 66, 41
1, 205960, Control_c, 0, 64, 28
1, 205975, Control_c, 0, 64, 67
1, 205990, Control_c, 0, 64, 76
1, 206005, Control_c, 0, 64, 84
1, 206019, Control_c, 0, 64, 89
1, 206034, Control_c, 0, 64, 94
1, 206049, Control_c, 0, 64, 98
1, 206064, Control_c, 0, 64, 103
1, 206079, Control_c, 0, 64, 108
1, 206093, Control_c, 0, 64, 112
1, 206108, Control_c, 0, 64, 115
1, 206123, Control_c, 0, 64, 118
1, 206133, Note_on_c, 0, 48, 56
1, 206134, Note_on_c, 0, 79, 72
1, 206139, Note_on_c, 0, 67, 62
1, 206139, Control_c, 0, 64, 121
1, 206153, Control_c, 0, 64, 126
1, 206154, Note_off_c, 0, 39, 55
1, 206168, Control_c, 0, 64, 127
1, 206199, Note_off_c, 0, 67, 53
1, 206204, Note_off_c, 0, 78, 53
1, 206250, Note_off_c, 0, 79, 58
1, 206381, Note_on_c, 0, 81, 81
1, 206381, Note_on_c, 0, 54, 46
1, 206390, Note_on_c, 0, 69, 67
1, 206431, Note_off_c, 0, 54, 58
1, 206531, Note_off_c, 0, 48, 39
1, 206546, Control_c, 0, 64, 118
1, 206560, Control_c, 0, 64, 99
1, 206575, Control_c, 0, 64, 80
1, 206586, Note_on_c, 0, 40, 63
1, 206590, Control_c, 0, 64, 46
1, 206605, Control_c, 0, 64, 0
1, 206649, Control_c, 0, 64, 65
1, 206655, Note_off_c, 0, 81, 53
1, 206664, Control_c, 0, 64, 76
1, 206666, Note_off_c, 0, 69, 55
1, 206679, Control_c, 0, 64, 87
1, 206694, Control_c, 0, 64, 94
1, 206709, Control_c, 0, 64, 99
1, 206724, Control_c, 0, 64, 105
1, 206738, Control_c, 0, 64, 111
1, 206753, Control_c, 0, 64, 118
1, 206768, Control_c, 0, 64, 124
1, 206783, Control_c, 0, 64, 127
1, 206799, Note_on_c, 0, 79, 77
1, 206816, Note_on_c, 0, 48, 56
1, 206822, Note_on_c, 0, 67, 63
1, 206834, Note_off_c, 0, 40, 49
1, 206858, Note_off_c, 0, 67, 61
1, 206899, Note_off_c, 0, 79, 61
1, 207058, Note_on_c, 0, 55, 47
1, 207065, Note_on_c, 0, 82, 84
1, 207075, Note_on_c, 0, 70, 65
1, 207105, Note_off_c, 0, 48, 20
1, 207133, Note_off_c, 0, 55, 49
1, 207221, Control_c, 0, 64, 117
1, 207236, Control_c, 0, 64, 98
1, 207251, Control_c, 0, 64, 79
1, 207265, Control_c, 0, 64, 48
1, 207272, Note_on_c, 0, 41, 61
1, 207280, Control_c, 0, 64, 0
1, 207324, Control_c, 0, 64, 61
1, 207339, Control_c, 0, 64, 73
1, 207354, Control_c, 0, 64, 83
1, 207369, Control_c, 0, 64, 93
1, 207383, Control_c, 0, 64, 98
1, 207398, Control_c, 0, 64, 103
1, 207412, Note_off_c, 0, 82, 63
1, 207413, Control_c, 0, 64, 109
1, 207417, Note_off_c, 0, 70, 61
1, 207428, Control_c, 0, 64, 114
1, 207443, Control_c, 0, 64, 119
1, 207457, Control_c, 0, 64, 124
1, 207472, Control_c, 0, 64, 127
1, 207502, Note_on_c, 0, 81, 83
1, 207518, Note_on_c, 0, 69, 65
1, 207521, Note_on_c, 0, 48, 51
1, 207580, Note_off_c, 0, 69, 47
1, 207604, Note_off_c, 0, 41, 59
1, 207654, Note_off_c, 0, 81, 56
1, 207762, Note_on_c, 0, 81, 81
1, 207770, Note_on_c, 0, 57, 49
1, 207782, Note_on_c, 0, 69, 59
1, 207838, Note_off_c, 0, 57, 51
1, 207998, Note_off_c, 0, 69, 57
1, 208004, Note_on_c, 0, 41, 62
1, 208010, Note_off_c, 0, 48, 41
1, 208029, Control_c, 0, 64, 103
1, 208044, Control_c, 0, 64, 78
1, 208059, Control_c, 0, 64, 49
1, 208074, Control_c, 0, 64, 0
1, 208083, Note_off_c, 0, 81, 61
1, 208103, Control_c, 0, 64, 65
1, 208118, Control_c, 0, 64, 76
1, 208132, Control_c, 0, 64, 85
1, 208147, Control_c, 0, 64, 93
1, 208162, Control_c, 0, 64, 98
1, 208177, Control_c, 0, 64, 103
1, 208192, Control_c, 0, 64, 109
1, 208206, Control_c, 0, 64, 114
1, 208221, Control_c, 0, 64, 118
1, 208235, Control_c, 0, 64, 124
1, 208250, Control_c, 0, 64, 127
1, 208292, Note_on_c, 0, 49, 47
1, 208297, Note_on_c, 0, 93, 83
1, 208315, Note_on_c, 0, 81, 64
1, 208359, Note_off_c, 0, 81, 46
1, 208438, Note_off_c, 0, 41, 41
1, 208454, Note_off_c, 0, 93, 57
1, 208589, Note_on_c, 0, 57, 38
1, 208600, Note_on_c, 0, 93, 75
1, 208614, Note_on_c, 0, 81, 63
1, 208709, Note_off_c, 0, 57, 36
1, 208822, Control_c, 0, 64, 112
1, 208836, Note_on_c, 0, 41, 51
1, 208836, Control_c, 0, 64, 96
1, 208849, Note_off_c, 0, 81, 33
1, 208851, Control_c, 0, 64, 79
1, 208866, Control_c, 0, 64, 60
1, 208867, Note_off_c, 0, 49, 5
1, 208881, Control_c, 0, 64, 0
1, 208910, Control_c, 0, 64, 32
1, 208925, Control_c, 0, 64, 66
1, 208940, Control_c, 0, 64, 73
1, 208954, Control_c, 0, 64, 78
1, 208969, Control_c, 0, 64, 82
1, 208985, Control_c, 0, 64, 84
1, 209000, Control_c, 0, 64, 87
1, 209015, Control_c, 0, 64, 90
1, 209029, Control_c, 0, 64, 94
1, 209035, Note_off_c, 0, 93, 49
1, 209044, Control_c, 0, 64, 96
1, 209046, Note_on_c, 0, 91, 62
1, 209048, Note_on_c, 0, 50, 48
1, 209051, Note_on_c, 0, 79, 55
1, 209059, Control_c, 0, 64, 99
1, 209074, Control_c, 0, 64, 101
1, 209088, Control_c, 0, 64, 102
1, 209103, Control_c, 0, 64, 103
1, 209118, Control_c, 0, 64, 104
1, 209119, Note_off_c, 0, 41, 44
1, 209121, Note_off_c, 0, 91, 0
1, 209133, Control_c, 0, 64, 105
1, 209148, Control_c, 0, 64, 106
1, 209150, Note_on_c, 0, 91, 26
1, 209162, Control_c, 0, 64, 106
1, 209170, Note_off_c, 0, 79, 55
1, 209192, Control_c, 0, 64, 107
1, 209252, Note_off_c, 0, 91, 49
1, 209268, Note_on_c, 0, 57, 41
1, 209276, Note_on_c, 0, 89, 65
1, 209283, Note_on_c, 0, 77, 57
1, 209421, Note_off_c, 0, 57, 33
1, 209461, Note_off_c, 0, 50, 30
1, 209474, Note_off_c, 0, 77, 37
1, 209479, Note_on_c, 0, 43, 47
1, 209482, Control_c, 0, 64, 104
1, 209497, Control_c, 0, 64, 95
1, 209512, Control_c, 0, 64, 80
1, 209527, Control_c, 0, 64, 63
1, 209541, Control_c, 0, 64, 0
1, 209571, Control_c, 0, 64, 29
1, 209585, Control_c, 0, 64, 67
1, 209600, Control_c, 0, 64, 74
1, 209607, Note_off_c, 0, 89, 36
1, 209615, Control_c, 0, 64, 80
1, 209630, Control_c, 0, 64, 83
1, 209645, Control_c, 0, 64, 86
1, 209660, Control_c, 0, 64, 89
1, 209675, Control_c, 0, 64, 92
1, 209684, Note_on_c, 0, 88, 55
1, 209685, Note_on_c, 0, 76, 48
1, 209690, Control_c, 0, 64, 95
1, 209701, Note_on_c, 0, 50, 35
1, 209704, Control_c, 0, 64, 98
1, 209716, Note_off_c, 0, 76, 51
1, 209719, Control_c, 0, 64, 101
1, 209734, Control_c, 0, 64, 102
1, 209749, Control_c, 0, 64, 103
1, 209764, Control_c, 0, 64, 104
1, 209768, Note_off_c, 0, 43, 41
1, 209778, Control_c, 0, 64, 104
1, 209808, Control_c, 0, 64, 105
1, 209889, Note_on_c, 0, 89, 64
1, 209892, Note_off_c, 0, 88, 34
1, 209901, Note_on_c, 0, 59, 32
1, 209910, Note_on_c, 0, 77, 45
1, 209935, Note_off_c, 0, 59, 52
1, 209942, Note_off_c, 0, 77, 54
1, 209945, Note_off_c, 0, 89, 62
1, 210013, Note_off_c, 0, 50, 16
1, 210097, Control_c, 0, 64, 103
1, 210111, Note_on_c, 0, 86, 64
1, 210111, Control_c, 0, 64, 96
1, 210120, Note_on_c, 0, 43, 41
1, 210126, Note_on_c, 0, 74, 42
1, 210126, Control_c, 0, 64, 83
1, 210142, Control_c, 0, 64, 68
1, 210151, Note_off_c, 0, 74, 57
1, 210157, Control_c, 0, 64, 0
1, 210187, Control_c, 0, 64, 49
1, 210202, Control_c, 0, 64, 68
1, 210202, Note_off_c, 0, 86, 62
1, 210216, Control_c, 0, 64, 75
1, 210231, Control_c, 0, 64, 81
1, 210246, Control_c, 0, 64, 84
1, 210261, Control_c, 0, 64, 86
1, 210276, Control_c, 0, 64, 88
1, 210290, Control_c, 0, 64, 92
1, 210305, Control_c, 0, 64, 94
1, 210320, Control_c, 0, 64, 97
1, 210327, Note_on_c, 0, 53, 45
1, 210334, Note_on_c, 0, 91, 72
1, 210334, Control_c, 0, 64, 98
1, 210349, Control_c, 0, 64, 100
1, 210350, Note_on_c, 0, 79, 49
1, 210364, Control_c, 0, 64, 101
1, 210370, Note_off_c, 0, 43, 41
1, 210374, Note_off_c, 0, 79, 55
1, 210379, Control_c, 0, 64, 102
1, 210394, Control_c, 0, 64, 103
1, 210418, Note_off_c, 0, 91, 52
1, 210438, Control_c, 0, 64, 103
1, 210524, Note_off_c, 0, 53, 32
1, 210545, Note_on_c, 0, 91, 66
1, 210550, Note_on_c, 0, 59, 41
1, 210563, Note_on_c, 0, 79, 58
1, 210572, Control_c, 0, 64, 104
1, 210592, Note_off_c, 0, 79, 55
1, 210602, Note_off_c, 0, 59, 57
1, 210651, Note_off_c, 0, 91, 50
1, 210816, Control_c, 0, 64, 103
1, 210831, Control_c, 0, 64, 103
1, 210846, Control_c, 0, 64, 100
1, 210858, Note_on_c, 0, 91, 66
1, 210860, Control_c, 0, 64, 95
1, 210868, Note_on_c, 0, 60, 39
1, 210869, Note_on_c, 0, 48, 43
1, 210875, Control_c, 0, 64, 84
1, 210878, Note_on_c, 0, 79, 47
1, 210882, Note_on_c, 0, 55, 34
1, 210890, Control_c, 0, 64, 71
1, 210894, Note_on_c, 0, 52, 38
1, 210905, Control_c, 0, 64, 0
1, 210965, Control_c, 0, 64, 21
1, 210980, Control_c, 0, 64, 63
1, 210988, Note_off_c, 0, 91, 59
1, 210995, Control_c, 0, 64, 69
1, 211010, Control_c, 0, 64, 73
1, 211016, Note_off_c, 0, 79, 56
1, 211025, Control_c, 0, 64, 77
1, 211039, Control_c, 0, 64, 80
1, 211054, Control_c, 0, 64, 83
1, 211069, Control_c, 0, 64, 85
1, 211084, Control_c, 0, 64, 87
1, 211099, Control_c, 0, 64, 88
1, 211113, Control_c, 0, 64, 90
1, 211128, Control_c, 0, 64, 91
1, 211143, Control_c, 0, 64, 92
1, 211157, Control_c, 0, 64, 93
1, 211175, Note_on_c, 0, 84, 63
1, 211187, Control_c, 0, 64, 93
1, 211200, Note_on_c, 0, 72, 38
1, 211246, Note_off_c, 0, 72, 44
1, 211277, Note_off_c, 0, 84, 57
1, 211388, Note_on_c, 0, 83, 64
1, 211395, Note_on_c, 0, 71, 53
1, 211395, Note_off_c, 0, 55, 43
1, 211399, Note_off_c, 0, 52, 42
1, 211399, Note_off_c, 0, 60, 37
1, 211408, Note_off_c, 0, 48, 40
1, 211422, Note_off_c, 0, 71, 51
1, 211565, Control_c, 0, 64, 93
1, 211579, Control_c, 0, 64, 89
1, 211594, Control_c, 0, 64, 80
1, 211609, Control_c, 0, 64, 68
1, 211615, Note_on_c, 0, 84, 63
1, 211624, Control_c, 0, 64, 0
1, 211630, Note_off_c, 0, 83, 30
1, 211632, Note_on_c, 0, 72, 49
1, 211669, Control_c, 0, 64, 48
1, 211683, Control_c, 0, 64, 67
1, 211693, Note_off_c, 0, 84, 61
1, 211698, Control_c, 0, 64, 70
1, 211713, Control_c, 0, 64, 73
1, 211715, Note_off_c, 0, 72, 64
1, 211728, Control_c, 0, 64, 75
1, 211743, Control_c, 0, 64, 78
1, 211758, Control_c, 0, 64, 81
1, 211773, Control_c, 0, 64, 84
1, 211788, Control_c, 0, 64, 85
1, 211826, Note_on_c, 0, 81, 68
1, 211840, Note_on_c, 0, 69, 53
1, 211862, Control_c, 0, 64, 83
1, 211877, Control_c, 0, 64, 74
1, 211889, Note_off_c, 0, 69, 50
1, 211892, Control_c, 0, 64, 64
1, 211906, Control_c, 0, 64, 52
1, 211919, Note_off_c, 0, 81, 53
1, 211921, Control_c, 0, 64, 60
1, 211936, Control_c, 0, 64, 66
1, 211951, Control_c, 0, 64, 70
1, 211966, Control_c, 0, 64, 75
1, 211981, Control_c, 0, 64, 79
1, 211996, Control_c, 0, 64, 81
1, 212011, Control_c, 0, 64, 82
1, 212026, Control_c, 0, 64, 80
1, 212027, Note_on_c, 0, 79, 63
1, 212041, Control_c, 0, 64, 75
1, 212044, Note_on_c, 0, 67, 52
1, 212055, Control_c, 0, 64, 64
1, 212070, Control_c, 0, 64, 53
1, 212085, Control_c, 0, 64, 62
1, 212089, Note_off_c, 0, 79, 56
1, 212099, Control_c, 0, 64, 67
1, 212101, Note_off_c, 0, 67, 42
1, 212114, Control_c, 0, 64, 72
1, 212129, Control_c, 0, 64, 75
1, 212144, Control_c, 0, 64, 76
1, 212188, Control_c, 0, 64, 76
1, 212203, Control_c, 0, 64, 72
1, 212218, Control_c, 0, 64, 66
1, 212233, Note_on_c, 0, 77, 61
1, 212233, Control_c, 0, 64, 57
1, 212247, Control_c, 0, 64, 61
1, 212257, Note_on_c, 0, 65, 33
1, 212262, Control_c, 0, 64, 66
1, 212277, Control_c, 0, 64, 69
1, 212292, Control_c, 0, 64, 71
1, 212293, Note_off_c, 0, 65, 52
1, 212310, Note_off_c, 0, 77, 52
1, 212314, Control_c, 0, 64, 72
1, 212329, Control_c, 0, 64, 73
1, 212344, Control_c, 0, 64, 75
1, 212359, Control_c, 0, 64, 77
1, 212388, Control_c, 0, 64, 77
1, 212403, Control_c, 0, 64, 72
1, 212418, Control_c, 0, 64, 63
1, 212433, Control_c, 0, 64, 0
1, 212447, Note_on_c, 0, 74, 53
1, 212448, Control_c, 0, 64, 16
1, 212455, Note_on_c, 0, 62, 51
1, 212462, Control_c, 0, 64, 61
1, 212477, Control_c, 0, 64, 67
1, 212492, Note_off_c, 0, 62, 53
1, 212492, Control_c, 0, 64, 70
1, 212506, Control_c, 0, 64, 72
1, 212521, Control_c, 0, 64, 74
1, 212537, Control_c, 0, 64, 77
1, 212552, Control_c, 0, 64, 80
1, 212567, Control_c, 0, 64, 82
1, 212579, Note_off_c, 0, 74, 56
1, 212582, Control_c, 0, 64, 83
1, 212626, Control_c, 0, 64, 82
1, 212641, Control_c, 0, 64, 78
1, 212656, Control_c, 0, 64, 70
1, 212671, Control_c, 0, 64, 52
1, 212675, Note_on_c, 0, 79, 57
1, 212685, Control_c, 0, 64, 0
1, 212687, Note_on_c, 0, 67, 40
1, 212712, Note_off_c, 0, 79, 59
1, 212715, Control_c, 0, 64, 49
1, 212720, Note_off_c, 0, 67, 52
1, 212729, Control_c, 0, 64, 67
1, 212744, Control_c, 0, 64, 71
1, 212759, Control_c, 0, 64, 73
1, 212774, Control_c, 0, 64, 73
1, 212789, Control_c, 0, 64, 75
1, 212803, Control_c, 0, 64, 76
1, 212818, Control_c, 0, 64, 77
1, 212833, Control_c, 0, 64, 78
1, 212848, Control_c, 0, 64, 79
1, 212863, Control_c, 0, 64, 80
1, 212877, Control_c, 0, 64, 81
1, 212892, Control_c, 0, 64, 81
1, 212907, Control_c, 0, 64, 82
1, 212916, Note_on_c, 0, 72, 54
1, 212921, Note_on_c, 0, 60, 45
1, 212921, Control_c, 0, 64, 83
1, 212931, Note_on_c, 0, 36, 30
1, 212936, Control_c, 0, 64, 83
1, 212938, Note_off_c, 0, 72, 57
1, 212951, Note_off_c, 0, 60, 53
1, 213010, Control_c, 0, 64, 83
1, 213025, Control_c, 0, 64, 80
1, 213040, Control_c, 0, 64, 75
1, 213063, Control_c, 0, 64, 68
1, 213077, Control_c, 0, 64, 50
1, 213092, Control_c, 0, 64, 0
1, 213097, Note_on_c, 0, 67, 59
1, 213098, Note_on_c, 0, 55, 49
1, 213124, Note_off_c, 0, 55, 56
1, 213129, Note_off_c, 0, 67, 64
1, 213180, Note_on_c, 0, 43, 32
1, 213224, Note_off_c, 0, 36, 43
1, 213242, Note_on_c, 0, 69, 63
1, 213245, Note_on_c, 0, 57, 50
1, 213261, Note_off_c, 0, 69, 66
1, 213273, Note_off_c, 0, 57, 59
1, 213335, Note_on_c, 0, 52, 42
1, 213384, Note_on_c, 0, 67, 58
1, 213390, Note_on_c, 0, 55, 45
1, 213401, Note_off_c, 0, 52, 58
1, 213416, Note_off_c, 0, 67, 61
1, 213421, Note_off_c, 0, 55, 53
1, 213478, Note_off_c, 0, 43, 41
1, 213514, Note_on_c, 0, 36, 42
1, 213626, Note_on_c, 0, 59, 47
1, 213637, Note_on_c, 0, 71, 49
1, 213651, Note_off_c, 0, 59, 55
1, 213661, Note_off_c, 0, 71, 60
1, 213710, Note_on_c, 0, 43, 33
1, 213765, Note_on_c, 0, 74, 63
1, 213770, Note_on_c, 0, 62, 52
1, 213782, Note_off_c, 0, 36, 42
1, 213798, Note_off_c, 0, 74, 67
1, 213803, Note_off_c, 0, 62, 60
1, 213860, Note_on_c, 0, 52, 38
1, 213911, Note_on_c, 0, 72, 59
1, 213913, Note_on_c, 0, 60, 53
1, 213916, Note_off_c, 0, 52, 51
1, 213934, Note_off_c, 0, 72, 61
1, 213936, Note_off_c, 0, 60, 59
1, 214024, Note_off_c, 0, 43, 41
1, 214034, Note_on_c, 0, 36, 46
1, 214157, Note_on_c, 0, 72, 56
1, 214158, Note_on_c, 0, 60, 54
1, 214179, Note_off_c, 0, 60, 59
1, 214190, Note_off_c, 0, 72, 65
1, 214216, Note_on_c, 0, 43, 39
1, 214271, Note_off_c, 0, 36, 42
1, 214289, Note_on_c, 0, 74, 69
1, 214291, Note_on_c, 0, 62, 62
1, 214324, Note_off_c, 0, 62, 63
1, 214327, Note_off_c, 0, 74, 64
1, 214369, Note_on_c, 0, 52, 43
1, 214417, Note_off_c, 0, 52, 61
1, 214422, Note_on_c, 0, 64, 60
1, 214424, Note_on_c, 0, 76, 66
1, 214451, Note_off_c, 0, 76, 67
1, 214452, Note_off_c, 0, 64, 65
1, 214507, Note_off_c, 0, 43, 40
1, 214556, Note_on_c, 0, 35, 53
1, 214689, Note_on_c, 0, 76, 54
1, 214691, Note_on_c, 0, 64, 48
1, 214710, Note_off_c, 0, 76, 62
1, 214718, Note_off_c, 0, 64, 58
1, 214748, Note_on_c, 0, 43, 38
1, 214805, Note_off_c, 0, 35, 43
1, 214820, Note_on_c, 0, 62, 61
1, 214825, Note_on_c, 0, 74, 49
1, 214845, Note_off_c, 0, 74, 61
1, 214852, Note_off_c, 0, 62, 64
1, 214911, Note_on_c, 0, 50, 42
1, 214948, Note_on_c, 0, 72, 48
1, 214949, Note_on_c, 0, 60, 58
1, 214970, Note_off_c, 0, 50, 42
1, 214979, Note_off_c, 0, 72, 66
1, 214981, Note_off_c, 0, 60, 64
1, 215046, Note_off_c, 0, 43, 42
1, 215082, Note_on_c, 0, 35, 48
1, 215187, Note_on_c, 0, 60, 55
1, 215192, Note_on_c, 0, 72, 56
1, 215210, Note_off_c, 0, 72, 63
1, 215222, Note_off_c, 0, 60, 64
1, 215245, Note_on_c, 0, 43, 43
1, 215338, Note_off_c, 0, 35, 42
1, 215353, Note_on_c, 0, 59, 22
1, 215383, Note_off_c, 0, 59, 45
1, 215402, Note_on_c, 0, 50, 47
1, 215473, Note_on_c, 0, 69, 50
1, 215474, Note_on_c, 0, 57, 44
1, 215490, Note_off_c, 0, 50, 56
1, 215495, Note_off_c, 0, 69, 60
1, 215501, Note_off_c, 0, 57, 55
1, 215535, Note_off_c, 0, 43, 41
1, 215592, Note_on_c, 0, 35, 48
1, 215705, Note_on_c, 0, 69, 59
1, 215713, Note_on_c, 0, 57, 53
1, 215728, Note_off_c, 0, 69, 66
1, 215744, Note_off_c, 0, 57, 63
1, 215749, Note_on_c, 0, 43, 45
1, 215774, Note_off_c, 0, 35, 43
1, 215830, Note_on_c, 0, 66, 67
1, 215842, Note_on_c, 0, 54, 52
1, 215842, Control_c, 0, 64, 16
1, 215857, Control_c, 0, 64, 20
1, 215868, Note_off_c, 0, 66, 62
1, 215872, Control_c, 0, 64, 21
1, 215875, Note_off_c, 0, 43, 53
1, 215876, Note_off_c, 0, 54, 63
1, 215900, Note_on_c, 0, 50, 45
1, 215961, Control_c, 0, 64, 20
1, 215973, Note_on_c, 0, 55, 57
1, 215976, Note_on_c, 0, 67, 59
1, 215976, Control_c, 0, 64, 18
1, 215991, Control_c, 0, 64, 16
1, 215999, Note_off_c, 0, 67, 58
1, 216003, Note_off_c, 0, 55, 66
1, 216086, Note_on_c, 0, 37, 52
1, 216182, Note_off_c, 0, 50, 28
1, 216207, Note_on_c, 0, 55, 56
1, 216207, Note_on_c, 0, 67, 63
1, 216236, Note_off_c, 0, 55, 66
1, 216238, Note_off_c, 0, 67, 65
1, 216260, Note_on_c, 0, 43, 50
1, 216279, Control_c, 0, 64, 18
1, 216295, Note_off_c, 0, 37, 59
1, 216309, Control_c, 0, 64, 21
1, 216324, Control_c, 0, 64, 24
1, 216339, Note_on_c, 0, 58, 64
1, 216339, Control_c, 0, 64, 27
1, 216340, Note_on_c, 0, 70, 65
1, 216353, Control_c, 0, 64, 29
1, 216368, Control_c, 0, 64, 30
1, 216370, Note_off_c, 0, 58, 64
1, 216377, Note_off_c, 0, 70, 61
1, 216425, Note_on_c, 0, 52, 43
1, 216427, Control_c, 0, 64, 31
1, 216471, Note_on_c, 0, 57, 64
1, 216474, Note_on_c, 0, 69, 66
1, 216500, Note_off_c, 0, 52, 60
1, 216501, Note_off_c, 0, 57, 64
1, 216504, Note_off_c, 0, 69, 66
1, 216521, Note_off_c, 0, 43, 41
1, 216576, Control_c, 0, 64, 32
1, 216583, Note_on_c, 0, 37, 63
1, 216591, Control_c, 0, 64, 33
1, 216636, Control_c, 0, 64, 34
1, 216650, Control_c, 0, 64, 34
1, 216699, Note_on_c, 0, 69, 59
1, 216701, Note_on_c, 0, 57, 48
1, 216724, Control_c, 0, 64, 35
1, 216727, Note_off_c, 0, 57, 51
1, 216733, Note_off_c, 0, 69, 67
1, 216778, Note_on_c, 0, 45, 49
1, 216784, Control_c, 0, 64, 36
1, 216806, Control_c, 0, 64, 38
1, 216821, Control_c, 0, 64, 40
1, 216836, Control_c, 0, 64, 42
1, 216837, Note_off_c, 0, 37, 62
1, 216846, Note_on_c, 0, 63, 70
1, 216848, Note_on_c, 0, 75, 67
1, 216850, Control_c, 0, 64, 44
1, 216865, Control_c, 0, 64, 45
1, 216872, Note_off_c, 0, 63, 65
1, 216881, Note_off_c, 0, 75, 62
1, 216924, Control_c, 0, 64, 44
1, 216939, Control_c, 0, 64, 43
1, 216948, Note_on_c, 0, 52, 52
1, 216969, Control_c, 0, 64, 43
1, 216978, Note_on_c, 0, 64, 62
1, 216980, Note_on_c, 0, 76, 66
1, 217001, Note_off_c, 0, 52, 58
1, 217005, Note_off_c, 0, 76, 69
1, 217008, Note_off_c, 0, 64, 66
1, 217073, Control_c, 0, 64, 42
1, 217079, Note_off_c, 0, 45, 40
1, 217096, Note_on_c, 0, 37, 64
1, 217102, Control_c, 0, 64, 43
1, 217208, Note_on_c, 0, 64, 59
1, 217210, Note_on_c, 0, 76, 67
1, 217237, Note_off_c, 0, 64, 65
1, 217241, Note_off_c, 0, 76, 63
1, 217253, Note_on_c, 0, 45, 51
1, 217294, Note_off_c, 0, 37, 65
1, 217339, Note_on_c, 0, 77, 77
1, 217342, Note_on_c, 0, 65, 66
1, 217371, Note_off_c, 0, 65, 68
1, 217383, Note_off_c, 0, 77, 59
1, 217399, Control_c, 0, 64, 42
1, 217446, Note_on_c, 0, 52, 48
1, 217459, Control_c, 0, 64, 42
1, 217471, Note_on_c, 0, 67, 58
1, 217471, Note_on_c, 0, 79, 67
1, 217494, Note_off_c, 0, 67, 65
1, 217494, Note_off_c, 0, 79, 64
1, 217555, Control_c, 0, 64, 41
1, 217589, Note_off_c, 0, 45, 31
1, 217592, Note_off_c, 0, 52, 34
1, 217596, Note_on_c, 0, 38, 63
1, 217629, Control_c, 0, 64, 41
1, 217703, Control_c, 0, 64, 40
1, 217714, Note_on_c, 0, 67, 59
1, 217720, Note_on_c, 0, 79, 51
1, 217741, Note_off_c, 0, 79, 55
1, 217747, Note_off_c, 0, 67, 65
1, 217785, Note_on_c, 0, 45, 50
1, 217815, Note_off_c, 0, 38, 59
1, 217836, Control_c, 0, 64, 41
1, 217842, Note_on_c, 0, 64, 67
1, 217844, Note_on_c, 0, 76, 68
1, 217872, Note_off_c, 0, 64, 65
1, 217878, Note_off_c, 0, 76, 62
1, 217925, Control_c, 0, 64, 40
1, 217946, Note_on_c, 0, 53, 49
1, 217972, Note_on_c, 0, 77, 62
1, 217973, Note_on_c, 0, 65, 60
1, 217994, Note_off_c, 0, 77, 57
1, 217999, Control_c, 0, 64, 41
1, 218000, Note_off_c, 0, 65, 67
1, 218022, Note_off_c, 0, 53, 54
1, 218086, Note_on_c, 0, 38, 60
1, 218090, Note_off_c, 0, 45, 42
1, 218212, Note_on_c, 0, 77, 66
1, 218215, Note_on_c, 0, 65, 55
1, 218238, Note_off_c, 0, 65, 62
1, 218239, Note_off_c, 0, 77, 66
1, 218266, Note_on_c, 0, 45, 50
1, 218266, Control_c, 0, 64, 40
1, 218319, Control_c, 0, 64, 41
1, 218339, Note_off_c, 0, 38, 56
1, 218342, Note_on_c, 0, 76, 68
1, 218346, Note_on_c, 0, 64, 60
1, 218369, Note_off_c, 0, 76, 66
1, 218379, Note_off_c, 0, 64, 65
1, 218437, Note_on_c, 0, 53, 51
1, 218468, Note_on_c, 0, 74, 64
1, 218472, Note_on_c, 0, 62, 56
1, 218495, Note_off_c, 0, 62, 57
1, 218496, Control_c, 0, 64, 41
1, 218498, Note_off_c, 0, 74, 63
1, 218503, Note_off_c, 0, 53, 57
1, 218511, Control_c, 0, 64, 42
1, 218574, Note_off_c, 0, 45, 50
1, 218582, Note_on_c, 0, 38, 66
1, 218629, Control_c, 0, 64, 41
1, 218695, Note_on_c, 0, 74, 62
1, 218701, Note_on_c, 0, 62, 58
1, 218724, Note_off_c, 0, 62, 61
1, 218728, Note_on_c, 0, 45, 44
1, 218728, Note_off_c, 0, 74, 62
1, 218774, Note_off_c, 0, 38, 61
1, 218830, Note_on_c, 0, 64, 61
1, 218830, Note_on_c, 0, 76, 65
1, 218852, Note_off_c, 0, 76, 68
1, 218852, Control_c, 0, 64, 42
1, 218863, Note_off_c, 0, 64, 65
1, 218893, Note_off_c, 0, 45, 57
1, 218901, Note_on_c, 0, 53, 55
1, 218942, Control_c, 0, 64, 43
1, 218960, Note_on_c, 0, 60, 67
1, 218966, Note_on_c, 0, 72, 65
1, 218988, Note_off_c, 0, 60, 65
1, 218992, Note_off_c, 0, 53, 57
1, 218999, Note_off_c, 0, 72, 61
1, 219091, Note_on_c, 0, 39, 62
1, 219208, Note_on_c, 0, 60, 63
1, 219214, Note_on_c, 0, 72, 54
1, 219235, Note_off_c, 0, 72, 65
1, 219237, Note_off_c, 0, 60, 64
1, 219263, Note_on_c, 0, 47, 60
1, 219304, Control_c, 0, 64, 43
1, 219319, Control_c, 0, 64, 44
1, 219333, Note_off_c, 0, 39, 60
1, 219334, Control_c, 0, 64, 46
1, 219344, Note_on_c, 0, 58, 67
1, 219345, Note_on_c, 0, 70, 67
1, 219349, Control_c, 0, 64, 47
1, 219363, Control_c, 0, 64, 48
1, 219378, Control_c, 0, 64, 49
1, 219380, Note_off_c, 0, 58, 63
1, 219393, Control_c, 0, 64, 49
1, 219395, Note_off_c, 0, 70, 61
1, 219437, Note_on_c, 0, 54, 52
1, 219452, Control_c, 0, 64, 50
1, 219483, Note_on_c, 0, 59, 61
1, 219489, Note_on_c, 0, 71, 64
1, 219497, Control_c, 0, 64, 49
1, 219512, Control_c, 0, 64, 48
1, 219512, Note_off_c, 0, 59, 63
1, 219521, Note_off_c, 0, 54, 58
1, 219521, Note_off_c, 0, 71, 61
1, 219527, Control_c, 0, 64, 47
1, 219541, Control_c, 0, 64, 46
1, 219556, Control_c, 0, 64, 44
1, 219571, Control_c, 0, 64, 43
1, 219586, Note_on_c, 0, 39, 69
1, 219607, Note_off_c, 0, 47, 38
1, 219645, Control_c, 0, 64, 44
1, 219705, Note_on_c, 0, 59, 61
1, 219708, Note_on_c, 0, 71, 65
1, 219723, Note_off_c, 0, 59, 64
1, 219745, Note_off_c, 0, 71, 61
1, 219748, Note_on_c, 0, 47, 55
1, 219816, Control_c, 0, 64, 43
1, 219831, Control_c, 0, 64, 43
1, 219843, Note_off_c, 0, 39, 57
1, 219852, Note_on_c, 0, 65, 75
1, 219853, Note_on_c, 0, 77, 79
1, 219878, Note_off_c, 0, 65, 69
1, 219889, Note_off_c, 0, 77, 61
1, 219905, Control_c, 0, 64, 43
1, 219926, Note_on_c, 0, 54, 52
1, 219950, Control_c, 0, 64, 44
1, 219965, Control_c, 0, 64, 45
1, 219980, Control_c, 0, 64, 46
1, 219981, Note_on_c, 0, 66, 80
1, 219981, Note_on_c, 0, 78, 81
1, 219992, Note_off_c, 0, 54, 55
1, 219994, Control_c, 0, 64, 47
1, 220007, Note_off_c, 0, 66, 67
1, 220029, Note_off_c, 0, 78, 55
1, 220054, Control_c, 0, 64, 46
1, 220068, Control_c, 0, 64, 46
1, 220075, Note_on_c, 0, 39, 67
1, 220081, Note_off_c, 0, 47, 50
1, 220197, Note_on_c, 0, 78, 71
1, 220200, Note_on_c, 0, 66, 61
1, 220228, Note_off_c, 0, 66, 63
1, 220240, Note_off_c, 0, 78, 59
1, 220245, Note_on_c, 0, 48, 55
1, 220323, Note_off_c, 0, 39, 61
1, 220333, Note_on_c, 0, 67, 80
1, 220340, Note_on_c, 0, 79, 80
1, 220349, Control_c, 0, 64, 45
1, 220361, Note_off_c, 0, 67, 62
1, 220379, Note_off_c, 0, 79, 62
1, 220379, Control_c, 0, 64, 45
1, 220430, Note_on_c, 0, 54, 55
1, 220453, Control_c, 0, 64, 44
1, 220466, Note_on_c, 0, 69, 73
1, 220467, Note_on_c, 0, 81, 75
1, 220491, Note_off_c, 0, 54, 61
1, 220492, Note_off_c, 0, 69, 70
1, 220511, Note_off_c, 0, 81, 44
1, 220542, Note_off_c, 0, 48, 52
1, 220550, Control_c, 0, 64, 44
1, 220590, Note_on_c, 0, 40, 75
1, 220610, Control_c, 0, 64, 44
1, 220669, Control_c, 0, 64, 45
1, 220683, Control_c, 0, 64, 45
1, 220713, Note_on_c, 0, 81, 70
1, 220716, Note_on_c, 0, 69, 68
1, 220736, Note_off_c, 0, 81, 68
1, 220741, Note_off_c, 0, 69, 70
1, 220743, Control_c, 0, 64, 46
1, 220753, Note_on_c, 0, 48, 67
1, 220787, Control_c, 0, 64, 46
1, 220811, Note_off_c, 0, 40, 57
1, 220817, Control_c, 0, 64, 47
1, 220832, Control_c, 0, 64, 48
1, 220838, Note_on_c, 0, 78, 81
1, 220842, Note_on_c, 0, 66, 77
1, 220847, Control_c, 0, 64, 50
1, 220861, Control_c, 0, 64, 52
1, 220873, Note_off_c, 0, 66, 63
1, 220891, Control_c, 0, 64, 51
1, 220892, Note_off_c, 0, 78, 61
1, 220906, Control_c, 0, 64, 51
1, 220935, Control_c, 0, 64, 50
1, 220939, Note_on_c, 0, 55, 59
1, 220950, Control_c, 0, 64, 49
1, 220965, Control_c, 0, 64, 48
1, 220967, Note_on_c, 0, 67, 79
1, 220975, Note_on_c, 0, 79, 74
1, 220980, Control_c, 0, 64, 48
1, 220992, Note_off_c, 0, 67, 68
1, 220995, Control_c, 0, 64, 47
1, 221004, Note_off_c, 0, 79, 62
1, 221017, Note_off_c, 0, 48, 37
1, 221024, Control_c, 0, 64, 47
1, 221068, Control_c, 0, 64, 48
1, 221080, Note_off_c, 0, 55, 37
1, 221082, Note_on_c, 0, 41, 79
1, 221098, Control_c, 0, 64, 48
1, 221113, Control_c, 0, 64, 49
1, 221128, Control_c, 0, 64, 49
1, 221142, Control_c, 0, 64, 50
1, 221201, Note_on_c, 0, 68, 77
1, 221203, Note_on_c, 0, 80, 79
1, 221224, Note_off_c, 0, 68, 68
1, 221232, Control_c, 0, 64, 49
1, 221248, Note_off_c, 0, 80, 61
1, 221249, Note_on_c, 0, 48, 64
1, 221298, Control_c, 0, 64, 49
1, 221314, Control_c, 0, 64, 48
1, 221341, Note_off_c, 0, 41, 63
1, 221354, Note_on_c, 0, 83, 81
1, 221360, Note_on_c, 0, 71, 75
1, 221373, Control_c, 0, 64, 48
1, 221388, Note_off_c, 0, 71, 63
1, 221399, Note_off_c, 0, 83, 64
1, 221403, Control_c, 0, 64, 47
1, 221447, Control_c, 0, 64, 47
1, 221454, Note_on_c, 0, 57, 57
1, 221508, Note_on_c, 0, 81, 86
1, 221509, Note_on_c, 0, 69, 78
1, 221533, Note_off_c, 0, 69, 70
1, 221544, Note_off_c, 0, 57, 57
1, 221554, Note_off_c, 0, 81, 57
1, 221565, Control_c, 0, 64, 45
1, 221580, Control_c, 0, 64, 34
1, 221595, Control_c, 0, 64, 0
1, 221628, Note_on_c, 0, 41, 73
1, 221649, Note_off_c, 0, 48, 37
1, 221729, Control_c, 0, 64, 62
1, 221744, Control_c, 0, 64, 67
1, 221759, Control_c, 0, 64, 70
1, 221771, Note_on_c, 0, 81, 82
1, 221774, Control_c, 0, 64, 73
1, 221777, Note_on_c, 0, 69, 72
1, 221789, Control_c, 0, 64, 77
1, 221793, Note_off_c, 0, 69, 69
1, 221804, Control_c, 0, 64, 80
1, 221819, Control_c, 0, 64, 82
1, 221819, Note_off_c, 0, 81, 62
1, 221833, Control_c, 0, 64, 83
1, 221848, Control_c, 0, 64, 84
1, 221853, Note_on_c, 0, 49, 54
1, 221907, Control_c, 0, 64, 84
1, 221922, Control_c, 0, 64, 85
1, 221944, Note_off_c, 0, 41, 38
1, 221977, Note_on_c, 0, 93, 87
1, 221978, Note_on_c, 0, 81, 85
1, 222012, Note_off_c, 0, 81, 55
1, 222029, Note_off_c, 0, 93, 63
1, 222099, Note_off_c, 0, 49, 0
1, 222110, Note_on_c, 0, 57, 43
1, 222138, Poly_aftertouch_c, 0, 49, 127
1, 222168, Note_on_c, 0, 93, 77
1, 222172, Note_on_c, 0, 81, 71
1, 222197, Note_off_c, 0, 81, 66
1, 222212, Control_c, 0, 64, 84
1, 222221, Note_off_c, 0, 93, 56
1, 222230, Note_off_c, 0, 57, 34
1, 222242, Control_c, 0, 64, 84
1, 222257, Control_c, 0, 64, 83
1, 222271, Control_c, 0, 64, 82
1, 222286, Control_c, 0, 64, 80
1, 222301, Control_c, 0, 64, 76
1, 222308, Note_on_c, 0, 41, 58
1, 222315, Control_c, 0, 64, 72
1, 222330, Control_c, 0, 64, 68
1, 222342, Poly_aftertouch_c, 0, 49, 0
1, 222345, Control_c, 0, 64, 63
1, 222360, Control_c, 0, 64, 52
1, 222375, Control_c, 0, 64, 38
1, 222389, Control_c, 0, 64, 38
1, 222404, Control_c, 0, 64, 38
1, 222440, Note_on_c, 0, 93, 68
1, 222451, Note_on_c, 0, 81, 58
1, 222473, Note_off_c, 0, 93, 59
1, 222478, Note_off_c, 0, 81, 61
1, 222501, Note_on_c, 0, 50, 44
1, 222537, Control_c, 0, 64, 39
1, 222552, Control_c, 0, 64, 40
1, 222565, Note_off_c, 0, 41, 49
1, 222592, Note_on_c, 0, 79, 64
1, 222592, Note_on_c, 0, 91, 68
1, 222612, Control_c, 0, 64, 41
1, 222622, Note_off_c, 0, 91, 58
1, 222622, Note_off_c, 0, 79, 64
1, 222627, Control_c, 0, 64, 42
1, 222641, Control_c, 0, 64, 42
1, 222654, Note_on_c, 0, 57, 39
1, 222656, Control_c, 0, 64, 43
1, 222729, Note_on_c, 0, 89, 67
1, 222744, Note_on_c, 0, 77, 36
1, 222764, Note_off_c, 0, 89, 59
1, 222770, Note_off_c, 0, 77, 35
1, 222773, Note_off_c, 0, 57, 48
1, 222842, Note_on_c, 0, 43, 53
1, 222869, Note_off_c, 0, 50, 36
1, 222998, Note_on_c, 0, 89, 31
1, 223026, Note_off_c, 0, 89, 44
1, 223056, Note_on_c, 0, 50, 23
1, 223094, Control_c, 0, 64, 43
1, 223109, Control_c, 0, 64, 44
1, 223111, Note_on_c, 0, 89, 62
1, 223113, Note_off_c, 0, 43, 36
1, 223124, Control_c, 0, 64, 44
1, 223138, Control_c, 0, 64, 45
1, 223141, Note_off_c, 0, 89, 66
1, 223215, Note_on_c, 0, 59, 40
1, 223226, Control_c, 0, 64, 45
1, 223241, Control_c, 0, 64, 46
1, 223255, Note_off_c, 0, 59, 46
1, 223256, Control_c, 0, 64, 46
1, 223265, Note_on_c, 0, 86, 67
1, 223271, Note_on_c, 0, 74, 42
1, 223291, Note_off_c, 0, 86, 68
1, 223295, Note_off_c, 0, 74, 56
1, 223330, Control_c, 0, 64, 46
1, 223360, Control_c, 0, 64, 45
1, 223390, Control_c, 0, 64, 46
1, 223390, Note_off_c, 0, 50, 33
1, 223407, Note_on_c, 0, 43, 52
1, 223508, Control_c, 0, 64, 46
1, 223523, Control_c, 0, 64, 47
1, 223545, Control_c, 0, 64, 48
1, 223560, Control_c, 0, 64, 49
1, 223575, Note_on_c, 0, 53, 51
1, 223648, Control_c, 0, 64, 48
1, 223676, Note_on_c, 0, 88, 30
1, 223688, Note_off_c, 0, 43, 37
1, 223695, Note_off_c, 0, 88, 36
1, 223762, Note_on_c, 0, 59, 47
1, 223764, Note_off_c, 0, 53, 61
1, 223842, Control_c, 0, 64, 49
1, 223845, Note_off_c, 0, 59, 60
1, 223960, Control_c, 0, 64, 48
1, 223975, Control_c, 0, 64, 47
1, 223980, Note_on_c, 0, 60, 44
1, 223990, Control_c, 0, 64, 46
1, 224003, Note_on_c, 0, 48, 41
1, 224004, Note_on_c, 0, 52, 45
1, 224005, Control_c, 0, 64, 46
1, 224012, Note_on_c, 0, 55, 30
1, 224019, Control_c, 0, 64, 44
1, 224034, Control_c, 0, 64, 44
1, 224111, Note_on_c, 0, 91, 58
1, 224131, Note_off_c, 0, 91, 58
1, 224138, Note_on_c, 0, 79, 36
1, 224162, Note_off_c, 0, 79, 48
1, 224227, Control_c, 0, 64, 44
1, 224268, Note_on_c, 0, 84, 68
1, 224281, Note_on_c, 0, 72, 56
1, 224299, Note_off_c, 0, 84, 70
1, 224300, Note_off_c, 0, 72, 64
1, 224338, Control_c, 0, 64, 44
1, 224368, Control_c, 0, 64, 43
1, 224412, Control_c, 0, 64, 44
1, 224418, Note_on_c, 0, 83, 61
1, 224427, Control_c, 0, 64, 44
1, 224427, Note_on_c, 0, 71, 46
1, 224445, Note_off_c, 0, 83, 66
1, 224453, Note_off_c, 0, 71, 47
1, 224457, Control_c, 0, 64, 45
1, 224501, Control_c, 0, 64, 44
1, 224559, Note_off_c, 0, 60, 47
1, 224561, Note_on_c, 0, 86, 62
1, 224567, Note_off_c, 0, 52, 42
1, 224567, Note_off_c, 0, 55, 50
1, 224570, Note_on_c, 0, 74, 50
1, 224579, Note_off_c, 0, 86, 64
1, 224587, Note_off_c, 0, 48, 51
1, 224591, Note_off_c, 0, 74, 63
1, 224698, Note_on_c, 0, 72, 59
1, 224702, Note_on_c, 0, 84, 61
1, 224720, Note_off_c, 0, 84, 63
1, 224731, Note_off_c, 0, 72, 67
1, 224785, Control_c, 0, 64, 44
1, 224857, Note_on_c, 0, 67, 54
1, 224864, Note_on_c, 0, 79, 48
1, 224883, Note_off_c, 0, 67, 63
1, 224888, Note_off_c, 0, 79, 37
1, 224948, Control_c, 0, 64, 43
1, 225014, Note_on_c, 0, 64, 56
1, 225022, Note_on_c, 0, 76, 56
1, 225047, Note_off_c, 0, 76, 64
1, 225056, Note_off_c, 0, 64, 66
1, 225252, Note_on_c, 0, 72, 52
1, 225254, Note_on_c, 0, 60, 47
1, 225401, Control_c, 0, 64, 44
1, 225415, Control_c, 0, 64, 44
1, 225459, Control_c, 0, 64, 45
1, 225489, Control_c, 0, 64, 45
1, 225503, Note_off_c, 0, 60, 36
1, 225504, Control_c, 0, 64, 46
1, 225533, Control_c, 0, 64, 46
1, 225548, Control_c, 0, 64, 47
1, 225561, Note_off_c, 0, 72, 41
1, 225563, Control_c, 0, 64, 47
1, 225593, Control_c, 0, 64, 48
1, 225608, Control_c, 0, 64, 48
1, 225837, Control_c, 0, 64, 48
1, 225956, Control_c, 0, 64, 47
1, 226001, Control_c, 0, 64, 47
1, 226059, Control_c, 0, 64, 47
1, 226074, Control_c, 0, 64, 48
1, 226089, Control_c, 0, 64, 50
1, 226105, Control_c, 0, 64, 54
1, 226120, Control_c, 0, 64, 57
1, 226135, Control_c, 0, 64, 61
1, 226150, Control_c, 0, 64, 63
1, 226164, Control_c, 0, 64, 65
1, 226179, Control_c, 0, 64, 67
1, 226194, Control_c, 0, 64, 69
1, 226207, Control_c, 0, 64, 72
1, 226222, Control_c, 0, 64, 75
1, 226237, Control_c, 0, 64, 78
1, 226251, Control_c, 0, 64, 80
1, 226266, Control_c, 0, 64, 83
1, 226281, Note_on_c, 0, 48, 32
1, 226281, Control_c, 0, 64, 85
1, 226296, Control_c, 0, 64, 88
1, 226311, Control_c, 0, 64, 91
1, 226326, Control_c, 0, 64, 95
1, 226341, Control_c, 0, 64, 97
1, 226355, Control_c, 0, 64, 100
1, 226370, Control_c, 0, 64, 103
1, 226385, Control_c, 0, 64, 105
1, 226393, Note_off_c, 0, 48, 35
1, 226400, Control_c, 0, 64, 108
1, 226415, Control_c, 0, 64, 111
1, 226429, Control_c, 0, 64, 113
1, 226444, Control_c, 0, 64, 114
1, 226459, Control_c, 0, 64, 116
1, 226473, Control_c, 0, 64, 117
1, 226488, Control_c, 0, 64, 119
1, 226503, Control_c, 0, 64, 120
1, 226518, Control_c, 0, 64, 121
1, 226532, Note_on_c, 0, 63, 15
1, 226541, Control_c, 0, 64, 122
1, 226555, Control_c, 0, 64, 123
1, 226570, Control_c, 0, 64, 124
1, 226585, Control_c, 0, 64, 124
1, 226600, Control_c, 0, 64, 125
1, 226645, Note_off_c, 0, 63, 36
1, 226659, Control_c, 0, 64, 125
1, 226676, Note_on_c, 0, 60, 27
1, 226802, Note_on_c, 0, 63, 31
1, 226908, Note_off_c, 0, 60, 28
1, 226964, Note_off_c, 0, 63, 42
1, 227003, Note_on_c, 0, 55, 37
1, 227003, Note_on_c, 0, 84, 62
1, 227133, Note_off_c, 0, 55, 34
1, 227158, Note_on_c, 0, 63, 38
1, 227268, Note_off_c, 0, 63, 48
1, 227316, Note_on_c, 0, 60, 32
1, 227452, Control_c, 0, 64, 125
1, 227459, Note_on_c, 0, 63, 30
1, 227462, Note_off_c, 0, 60, 35
1, 227547, Note_off_c, 0, 63, 53
1, 227571, Control_c, 0, 64, 124
1, 227598, Note_on_c, 0, 55, 31
1, 227674, Control_c, 0, 64, 124
1, 227723, Note_off_c, 0, 55, 27
1, 227733, Note_on_c, 0, 63, 31
1, 227808, Control_c, 0, 64, 123
1, 227832, Note_off_c, 0, 63, 51
1, 227846, Note_on_c, 0, 87, 65
1, 227874, Note_on_c, 0, 60, 37
1, 227886, Note_off_c, 0, 84, 58
1, 227960, Note_off_c, 0, 87, 63
1, 227971, Control_c, 0, 64, 123
1, 227974, Note_on_c, 0, 63, 44
1, 228002, Note_off_c, 0, 63, 61
1, 228009, Note_off_c, 0, 60, 36
1, 228112, Control_c, 0, 64, 122
1, 228126, Control_c, 0, 64, 114
1, 228141, Control_c, 0, 64, 98
1, 228156, Control_c, 0, 64, 81
1, 228171, Control_c, 0, 64, 64
1, 228186, Control_c, 0, 64, 0
1, 228187, Note_on_c, 0, 86, 64
1, 228204, Note_on_c, 0, 43, 41
1, 228216, Control_c, 0, 64, 45
1, 228231, Control_c, 0, 64, 69
1, 228244, Note_off_c, 0, 43, 56
1, 228246, Control_c, 0, 64, 80
1, 228260, Control_c, 0, 64, 87
1, 228275, Control_c, 0, 64, 91
1, 228290, Control_c, 0, 64, 94
1, 228305, Control_c, 0, 64, 98
1, 228320, Control_c, 0, 64, 103
1, 228334, Control_c, 0, 64, 108
1, 228349, Control_c, 0, 64, 111
1, 228364, Control_c, 0, 64, 113
1, 228378, Control_c, 0, 64, 115
1, 228392, Note_on_c, 0, 62, 42
1, 228393, Control_c, 0, 64, 117
1, 228408, Control_c, 0, 64, 120
1, 228423, Control_c, 0, 64, 122
1, 228438, Control_c, 0, 64, 124
1, 228450, Note_off_c, 0, 62, 54
1, 228453, Control_c, 0, 64, 127
1, 228481, Note_on_c, 0, 84, 65
1, 228504, Note_on_c, 0, 59, 39
1, 228563, Note_off_c, 0, 86, 53
1, 228579, Note_off_c, 0, 59, 36
1, 228648, Note_on_c, 0, 62, 29
1, 228731, Note_off_c, 0, 62, 39
1, 228785, Note_on_c, 0, 86, 70
1, 228795, Note_on_c, 0, 83, 66
1, 228803, Note_on_c, 0, 55, 41
1, 228839, Note_off_c, 0, 84, 61
1, 228934, Note_off_c, 0, 55, 36
1, 228935, Note_on_c, 0, 62, 37
1, 229031, Note_off_c, 0, 62, 54
1, 229045, Note_on_c, 0, 81, 68
1, 229051, Note_off_c, 0, 83, 54
1, 229071, Note_on_c, 0, 59, 40
1, 229185, Note_on_c, 0, 62, 43
1, 229204, Note_off_c, 0, 59, 33
1, 229300, Note_off_c, 0, 62, 53
1, 229316, Note_on_c, 0, 83, 68
1, 229340, Note_on_c, 0, 55, 41
1, 229382, Note_off_c, 0, 81, 54
1, 229454, Note_on_c, 0, 62, 39
1, 229474, Note_off_c, 0, 55, 0
1, 229543, Poly_aftertouch_c, 0, 55, 0
1, 229551, Note_off_c, 0, 62, 49
1, 229559, Note_off_c, 0, 86, 40
1, 229587, Note_on_c, 0, 89, 67
1, 229603, Note_on_c, 0, 79, 55
1, 229605, Note_off_c, 0, 83, 58
1, 229607, Note_on_c, 0, 59, 40
1, 229692, Note_off_c, 0, 59, 50
1, 229721, Note_on_c, 0, 62, 32
1, 229775, Note_off_c, 0, 62, 47
1, 229817, Control_c, 0, 64, 112
1, 229832, Control_c, 0, 64, 96
1, 229846, Control_c, 0, 64, 78
1, 229861, Control_c, 0, 64, 36
1, 229866, Note_on_c, 0, 88, 70
1, 229876, Control_c, 0, 64, 0
1, 229890, Note_on_c, 0, 48, 40
1, 229895, Note_off_c, 0, 89, 54
1, 229906, Control_c, 0, 64, 63
1, 229921, Control_c, 0, 64, 73
1, 229936, Control_c, 0, 64, 82
1, 229951, Control_c, 0, 64, 89
1, 229958, Note_off_c, 0, 48, 47
1, 229966, Control_c, 0, 64, 93
1, 229980, Control_c, 0, 64, 98
1, 229985, Note_off_c, 0, 79, 32
1, 229995, Control_c, 0, 64, 103
1, 230010, Control_c, 0, 64, 109
1, 230024, Control_c, 0, 64, 114
1, 230033, Note_on_c, 0, 61, 40
1, 230039, Control_c, 0, 64, 119
1, 230054, Control_c, 0, 64, 124
1, 230069, Control_c, 0, 64, 127
1, 230121, Note_off_c, 0, 61, 49
1, 230131, Note_on_c, 0, 89, 75
1, 230153, Note_on_c, 0, 58, 49
1, 230166, Note_off_c, 0, 88, 56
1, 230283, Note_on_c, 0, 61, 44
1, 230317, Note_off_c, 0, 58, 36
1, 230388, Note_off_c, 0, 61, 55
1, 230425, Note_on_c, 0, 91, 76
1, 230436, Note_on_c, 0, 82, 69
1, 230460, Note_on_c, 0, 55, 45
1, 230462, Control_c, 0, 64, 104
1, 230477, Control_c, 0, 64, 87
1, 230486, Note_off_c, 0, 89, 59
1, 230492, Control_c, 0, 64, 72
1, 230507, Control_c, 0, 64, 51
1, 230521, Control_c, 0, 64, 0
1, 230536, Control_c, 0, 64, 58
1, 230551, Control_c, 0, 64, 71
1, 230566, Control_c, 0, 64, 80
1, 230571, Note_on_c, 0, 61, 43
1, 230581, Control_c, 0, 64, 88
1, 230593, Note_off_c, 0, 55, 33
1, 230596, Control_c, 0, 64, 93
1, 230610, Control_c, 0, 64, 97
1, 230625, Control_c, 0, 64, 101
1, 230640, Control_c, 0, 64, 106
1, 230654, Control_c, 0, 64, 111
1, 230665, Note_off_c, 0, 61, 57
1, 230669, Control_c, 0, 64, 114
1, 230684, Control_c, 0, 64, 117
1, 230691, Note_on_c, 0, 58, 42
1, 230696, Note_on_c, 0, 89, 59
1, 230699, Control_c, 0, 64, 121
1, 230714, Control_c, 0, 64, 124
1, 230729, Control_c, 0, 64, 127
1, 230796, Note_on_c, 0, 61, 52
1, 230863, Note_off_c, 0, 58, 40
1, 230914, Note_off_c, 0, 61, 49
1, 230942, Note_on_c, 0, 88, 69
1, 230951, Note_on_c, 0, 55, 47
1, 230952, Control_c, 0, 64, 118
1, 230964, Note_off_c, 0, 91, 22
1, 230967, Control_c, 0, 64, 101
1, 230982, Control_c, 0, 64, 84
1, 230997, Control_c, 0, 64, 68
1, 231012, Control_c, 0, 64, 0
1, 231049, Control_c, 0, 64, 55
1, 231064, Control_c, 0, 64, 70
1, 231078, Control_c, 0, 64, 79
1, 231085, Note_on_c, 0, 60, 46
1, 231093, Control_c, 0, 64, 87
1, 231108, Control_c, 0, 64, 92
1, 231121, Note_off_c, 0, 88, 57
1, 231123, Control_c, 0, 64, 95
1, 231128, Note_off_c, 0, 89, 30
1, 231138, Control_c, 0, 64, 99
1, 231143, Note_off_c, 0, 55, 40
1, 231152, Control_c, 0, 64, 103
1, 231167, Control_c, 0, 64, 107
1, 231182, Control_c, 0, 64, 110
1, 231183, Note_off_c, 0, 60, 55
1, 231197, Control_c, 0, 64, 113
1, 231212, Control_c, 0, 64, 117
1, 231214, Note_on_c, 0, 58, 44
1, 231216, Note_on_c, 0, 88, 69
1, 231224, Note_on_c, 0, 85, 59
1, 231227, Control_c, 0, 64, 119
1, 231241, Control_c, 0, 64, 121
1, 231256, Control_c, 0, 64, 123
1, 231271, Control_c, 0, 64, 126
1, 231278, Note_off_c, 0, 82, 57
1, 231286, Control_c, 0, 64, 127
1, 231308, Note_off_c, 0, 58, 59
1, 231328, Note_on_c, 0, 60, 49
1, 231352, Note_off_c, 0, 60, 61
1, 231465, Control_c, 0, 64, 117
1, 231469, Note_off_c, 0, 85, 56
1, 231479, Control_c, 0, 64, 99
1, 231494, Control_c, 0, 64, 76
1, 231505, Note_on_c, 0, 89, 66
1, 231507, Note_on_c, 0, 41, 54
1, 231509, Control_c, 0, 64, 40
1, 231515, Note_on_c, 0, 84, 51
1, 231524, Control_c, 0, 64, 0
1, 231530, Note_off_c, 0, 88, 57
1, 231540, Note_off_c, 0, 41, 65
1, 231553, Control_c, 0, 64, 62
1, 231568, Control_c, 0, 64, 73
1, 231583, Control_c, 0, 64, 84
1, 231597, Control_c, 0, 64, 91
1, 231612, Control_c, 0, 64, 93
1, 231627, Control_c, 0, 64, 96
1, 231642, Control_c, 0, 64, 100
1, 231657, Control_c, 0, 64, 104
1, 231670, Note_on_c, 0, 60, 42
1, 231671, Control_c, 0, 64, 107
1, 231686, Control_c, 0, 64, 110
1, 231702, Control_c, 0, 64, 111
1, 231717, Control_c, 0, 64, 112
1, 231732, Control_c, 0, 64, 114
1, 231740, Note_off_c, 0, 60, 49
1, 231747, Control_c, 0, 64, 115
1, 231762, Control_c, 0, 64, 117
1, 231782, Note_on_c, 0, 82, 69
1, 231784, Control_c, 0, 64, 118
1, 231800, Note_on_c, 0, 57, 39
1, 231805, Note_off_c, 0, 89, 62
1, 231811, Note_off_c, 0, 84, 63
1, 231814, Control_c, 0, 64, 118
1, 231828, Control_c, 0, 64, 119
1, 231849, Note_off_c, 0, 82, 63
1, 231873, Control_c, 0, 64, 119
1, 231899, Note_off_c, 0, 57, 53
1, 231914, Note_on_c, 0, 60, 40
1, 232037, Note_off_c, 0, 60, 53
1, 232065, Control_c, 0, 64, 119
1, 232074, Note_on_c, 0, 81, 70
1, 232080, Control_c, 0, 64, 116
1, 232088, Note_on_c, 0, 69, 58
1, 232088, Note_on_c, 0, 53, 47
1, 232094, Control_c, 0, 64, 108
1, 232109, Control_c, 0, 64, 95
1, 232124, Control_c, 0, 64, 78
1, 232139, Control_c, 0, 64, 60
1, 232154, Control_c, 0, 64, 0
1, 232183, Control_c, 0, 64, 45
1, 232197, Note_off_c, 0, 53, 55
1, 232198, Control_c, 0, 64, 68
1, 232212, Note_on_c, 0, 60, 34
1, 232213, Control_c, 0, 64, 76
1, 232228, Control_c, 0, 64, 83
1, 232243, Control_c, 0, 64, 87
1, 232258, Control_c, 0, 64, 90
1, 232273, Control_c, 0, 64, 93
1, 232288, Control_c, 0, 64, 97
1, 232302, Control_c, 0, 64, 101
1, 232315, Note_off_c, 0, 60, 56
1, 232317, Control_c, 0, 64, 104
1, 232332, Control_c, 0, 64, 106
1, 232338, Note_on_c, 0, 57, 37
1, 232347, Control_c, 0, 64, 109
1, 232362, Control_c, 0, 64, 111
1, 232365, Note_on_c, 0, 79, 59
1, 232376, Control_c, 0, 64, 113
1, 232391, Control_c, 0, 64, 115
1, 232406, Control_c, 0, 64, 116
1, 232407, Note_off_c, 0, 81, 52
1, 232420, Control_c, 0, 64, 117
1, 232435, Control_c, 0, 64, 118
1, 232450, Control_c, 0, 64, 118
1, 232465, Control_c, 0, 64, 119
1, 232471, Note_on_c, 0, 60, 38
1, 232484, Note_off_c, 0, 57, 37
1, 232496, Control_c, 0, 64, 119
1, 232599, Note_off_c, 0, 60, 57
1, 232622, Note_on_c, 0, 81, 69
1, 232639, Note_on_c, 0, 53, 42
1, 232742, Note_on_c, 0, 60, 44
1, 232824, Note_off_c, 0, 53, 36
1, 232848, Note_off_c, 0, 60, 57
1, 232870, Note_off_c, 0, 79, 13
1, 232872, Note_off_c, 0, 81, 36
1, 232877, Note_on_c, 0, 77, 63
1, 232885, Note_on_c, 0, 57, 41
1, 232895, Note_on_c, 0, 72, 51
1, 232938, Note_off_c, 0, 72, 58
1, 232945, Note_off_c, 0, 69, 39
1, 232967, Note_off_c, 0, 77, 58
1, 232977, Note_off_c, 0, 57, 56
1, 233008, Note_on_c, 0, 60, 34
1, 233111, Control_c, 0, 64, 119
1, 233125, Control_c, 0, 64, 115
1, 233140, Control_c, 0, 64, 107
1, 233144, Note_off_c, 0, 60, 38
1, 233155, Control_c, 0, 64, 95
1, 233157, Note_on_c, 0, 75, 63
1, 233161, Note_on_c, 0, 50, 45
1, 233169, Control_c, 0, 64, 80
1, 233184, Control_c, 0, 64, 63
1, 233199, Control_c, 0, 64, 0
1, 233229, Control_c, 0, 64, 32
1, 233243, Control_c, 0, 64, 66
1, 233258, Control_c, 0, 64, 74
1, 233260, Note_off_c, 0, 50, 57
1, 233280, Control_c, 0, 64, 81
1, 233296, Control_c, 0, 64, 85
1, 233311, Control_c, 0, 64, 89
1, 233326, Control_c, 0, 64, 92
1, 233341, Control_c, 0, 64, 96
1, 233343, Note_on_c, 0, 62, 18
1, 233355, Control_c, 0, 64, 99
1, 233370, Control_c, 0, 64, 102
1, 233385, Control_c, 0, 64, 104
1, 233400, Control_c, 0, 64, 106
1, 233401, Note_off_c, 0, 62, 46
1, 233411, Note_off_c, 0, 75, 63
1, 233415, Control_c, 0, 64, 108
1, 233426, Note_on_c, 0, 60, 48
1, 233429, Control_c, 0, 64, 109
1, 233438, Note_on_c, 0, 74, 64
1, 233444, Control_c, 0, 64, 110
1, 233459, Control_c, 0, 64, 111
1, 233474, Control_c, 0, 64, 112
1, 233489, Control_c, 0, 64, 113
1, 233504, Control_c, 0, 64, 114
1, 233538, Note_off_c, 0, 60, 53
1, 233548, Control_c, 0, 64, 115
1, 233563, Control_c, 0, 64, 115
1, 233571, Note_on_c, 0, 62, 37
1, 233692, Note_off_c, 0, 62, 56
1, 233739, Note_on_c, 0, 57, 48
1, 233739, Note_on_c, 0, 78, 76
1, 233749, Note_on_c, 0, 72, 63
1, 233754, Control_c, 0, 64, 112
1, 233769, Control_c, 0, 64, 105
1, 233773, Note_off_c, 0, 74, 60
1, 233784, Control_c, 0, 64, 90
1, 233799, Control_c, 0, 64, 74
1, 233814, Control_c, 0, 64, 0
1, 233859, Control_c, 0, 64, 23
1, 233873, Control_c, 0, 64, 65
1, 233883, Note_on_c, 0, 62, 39
1, 233886, Note_off_c, 0, 57, 36
1, 233888, Control_c, 0, 64, 74
1, 233903, Control_c, 0, 64, 81
1, 233918, Control_c, 0, 64, 86
1, 233933, Control_c, 0, 64, 89
1, 233947, Control_c, 0, 64, 92
1, 233962, Control_c, 0, 64, 96
1, 233976, Note_off_c, 0, 62, 55
1, 233977, Control_c, 0, 64, 100
1, 233983, Note_off_c, 0, 72, 51
1, 233991, Control_c, 0, 64, 103
1, 234004, Note_on_c, 0, 60, 40
1, 234006, Control_c, 0, 64, 106
1, 234023, Note_on_c, 0, 71, 53
1, 234029, Control_c, 0, 64, 108
1, 234044, Control_c, 0, 64, 110
1, 234058, Control_c, 0, 64, 111
1, 234073, Control_c, 0, 64, 113
1, 234088, Control_c, 0, 64, 114
1, 234103, Control_c, 0, 64, 116
1, 234118, Control_c, 0, 64, 117
1, 234132, Note_off_c, 0, 60, 51
1, 234133, Control_c, 0, 64, 117
1, 234147, Note_on_c, 0, 62, 37
1, 234148, Control_c, 0, 64, 118
1, 234163, Control_c, 0, 64, 118
1, 234178, Control_c, 0, 64, 119
1, 234193, Control_c, 0, 64, 119
1, 234265, Note_on_c, 0, 72, 63
1, 234265, Note_off_c, 0, 62, 49
1, 234285, Note_on_c, 0, 57, 46
1, 234347, Note_off_c, 0, 71, 34
1, 234416, Note_on_c, 0, 62, 47
1, 234486, Note_off_c, 0, 72, 57
1, 234504, Note_off_c, 0, 62, 59
1, 234508, Note_off_c, 0, 57, 31
1, 234528, Note_on_c, 0, 81, 71
1, 234534, Note_on_c, 0, 69, 59
1, 234539, Note_on_c, 0, 60, 48
1, 234568, Note_off_c, 0, 69, 67
1, 234571, Note_off_c, 0, 78, 62
1, 234619, Note_off_c, 0, 81, 59
1, 234654, Note_off_c, 0, 60, 59
1, 234659, Note_on_c, 0, 62, 44
1, 234708, Note_off_c, 0, 62, 59
1, 234792, Control_c, 0, 64, 119
1, 234807, Control_c, 0, 64, 116
1, 234813, Note_on_c, 0, 59, 50
1, 234822, Control_c, 0, 64, 108
1, 234826, Note_on_c, 0, 86, 70
1, 234828, Note_on_c, 0, 77, 60
1, 234836, Control_c, 0, 64, 96
1, 234837, Note_on_c, 0, 74, 54
1, 234851, Control_c, 0, 64, 78
1, 234866, Control_c, 0, 64, 59
1, 234881, Control_c, 0, 64, 0
1, 234926, Control_c, 0, 64, 56
1, 234941, Control_c, 0, 64, 69
1, 234956, Control_c, 0, 64, 76
1, 234963, Note_on_c, 0, 62, 50
1, 234971, Note_off_c, 0, 59, 55
1, 234971, Control_c, 0, 64, 82
1, 234986, Control_c, 0, 64, 86
1, 235000, Control_c, 0, 64, 89
1, 235015, Control_c, 0, 64, 93
1, 235030, Control_c, 0, 64, 97
1, 235045, Control_c, 0, 64, 100
1, 235059, Note_off_c, 0, 74, 37
1, 235060, Control_c, 0, 64, 103
1, 235063, Note_off_c, 0, 77, 40
1, 235075, Control_c, 0, 64, 105
1, 235090, Control_c, 0, 64, 107
1, 235103, Note_off_c, 0, 62, 57
1, 235105, Note_on_c, 0, 65, 63
1, 235105, Control_c, 0, 64, 109
1, 235119, Control_c, 0, 64, 111
1, 235120, Note_on_c, 0, 84, 71
1, 235131, Note_off_c, 0, 86, 26
1, 235134, Control_c, 0, 64, 113
1, 235149, Control_c, 0, 64, 114
1, 235164, Control_c, 0, 64, 115
1, 235179, Control_c, 0, 64, 116
1, 235194, Control_c, 0, 64, 117
1, 235209, Control_c, 0, 64, 118
1, 235224, Control_c, 0, 64, 119
1, 235239, Control_c, 0, 64, 119
1, 235253, Control_c, 0, 64, 120
1, 235256, Note_on_c, 0, 68, 69
1, 235268, Control_c, 0, 64, 120
1, 235273, Note_off_c, 0, 65, 64
1, 235283, Control_c, 0, 64, 121
1, 235290, Note_off_c, 0, 68, 62
1, 235327, Control_c, 0, 64, 121
1, 235459, Note_on_c, 0, 53, 67
1, 235462, Note_on_c, 0, 83, 64
1, 235475, Control_c, 0, 64, 121
1, 235490, Control_c, 0, 64, 119
1, 235505, Control_c, 0, 64, 115
1, 235508, Note_off_c, 0, 84, 55
1, 235527, Control_c, 0, 64, 108
1, 235542, Control_c, 0, 64, 97
1, 235557, Control_c, 0, 64, 82
1, 235571, Control_c, 0, 64, 64
1, 235586, Control_c, 0, 64, 0
1, 235644, Note_on_c, 0, 86, 56
1, 235675, Control_c, 0, 64, 59
1, 235676, Note_off_c, 0, 83, 52
1, 235691, Control_c, 0, 64, 69
1, 235706, Control_c, 0, 64, 76
1, 235721, Control_c, 0, 64, 81
1, 235736, Control_c, 0, 64, 85
1, 235750, Control_c, 0, 64, 88
1, 235765, Control_c, 0, 64, 92
1, 235780, Control_c, 0, 64, 95
1, 235790, Note_on_c, 0, 80, 59
1, 235795, Control_c, 0, 64, 99
1, 235810, Control_c, 0, 64, 103
1, 235824, Control_c, 0, 64, 105
1, 235839, Control_c, 0, 64, 108
1, 235846, Note_off_c, 0, 86, 35
1, 235854, Control_c, 0, 64, 110
1, 235868, Control_c, 0, 64, 112
1, 235883, Control_c, 0, 64, 114
1, 235898, Control_c, 0, 64, 115
1, 235908, Note_on_c, 0, 83, 56
1, 235913, Control_c, 0, 64, 116
1, 235920, Note_off_c, 0, 80, 53
1, 235928, Control_c, 0, 64, 117
1, 235942, Control_c, 0, 64, 118
1, 235957, Control_c, 0, 64, 119
1, 235972, Control_c, 0, 64, 119
1, 235997, Note_off_c, 0, 83, 58
1, 236002, Control_c, 0, 64, 120
1, 236017, Control_c, 0, 64, 120
1, 236032, Control_c, 0, 64, 121
1, 236044, Note_on_c, 0, 77, 56
1, 236157, Note_on_c, 0, 80, 57
1, 236166, Note_off_c, 0, 77, 25
1, 236288, Note_off_c, 0, 80, 56
1, 236306, Note_off_c, 0, 53, 32
1, 236316, Note_on_c, 0, 56, 54
1, 236331, Note_on_c, 0, 74, 46
1, 236383, Note_off_c, 0, 74, 53
1, 236424, Note_off_c, 0, 56, 56
1, 236449, Note_on_c, 0, 77, 54
1, 236653, Note_on_c, 0, 71, 52
1, 236660, Note_on_c, 0, 56, 66
1, 236691, Control_c, 0, 64, 120
1, 236697, Note_off_c, 0, 77, 22
1, 236706, Control_c, 0, 64, 118
1, 236721, Control_c, 0, 64, 113
1, 236736, Control_c, 0, 64, 104
1, 236751, Control_c, 0, 64, 88
1, 236765, Control_c, 0, 64, 73
1, 236780, Control_c, 0, 64, 31
1, 236795, Control_c, 0, 64, 0
1, 236804, Note_off_c, 0, 71, 44
1, 236807, Note_on_c, 0, 74, 45
1, 236825, Control_c, 0, 64, 56
1, 236840, Control_c, 0, 64, 69
1, 236855, Control_c, 0, 64, 76
1, 236869, Control_c, 0, 64, 81
1, 236884, Control_c, 0, 64, 85
1, 236899, Control_c, 0, 64, 88
1, 236914, Control_c, 0, 64, 91
1, 236929, Control_c, 0, 64, 94
1, 236943, Note_off_c, 0, 74, 36
1, 236944, Control_c, 0, 64, 97
1, 236958, Control_c, 0, 64, 99
1, 236973, Control_c, 0, 64, 101
1, 236980, Note_on_c, 0, 71, 56
1, 236981, Note_on_c, 0, 55, 63
1, 236988, Control_c, 0, 64, 103
1, 237003, Control_c, 0, 64, 105
1, 237024, Control_c, 0, 64, 107
1, 237034, Note_off_c, 0, 56, 53
1, 237039, Control_c, 0, 64, 108
1, 237054, Control_c, 0, 64, 109
1, 237069, Control_c, 0, 64, 110
1, 237078, Note_off_c, 0, 55, 65
1, 237084, Control_c, 0, 64, 111
1, 237099, Control_c, 0, 64, 112
1, 237112, Note_on_c, 0, 74, 51
1, 237114, Control_c, 0, 64, 113
1, 237129, Control_c, 0, 64, 114
1, 237135, Note_off_c, 0, 71, 55
1, 237143, Control_c, 0, 64, 114
1, 237173, Control_c, 0, 64, 115
1, 237188, Control_c, 0, 64, 115
1, 237194, Note_off_c, 0, 74, 52
1, 237203, Control_c, 0, 64, 116
1, 237217, Control_c, 0, 64, 116
1, 237308, Control_c, 0, 64, 116
1, 237311, Note_on_c, 0, 53, 63
1, 237317, Note_on_c, 0, 67, 55
1, 237320, Note_on_c, 0, 41, 58
1, 237322, Control_c, 0, 64, 115
1, 237323, Note_on_c, 0, 74, 58
1, 237323, Note_on_c, 0, 71, 50
1, 237337, Control_c, 0, 64, 110
1, 237352, Control_c, 0, 64, 104
1, 237367, Control_c, 0, 64, 96
1, 237382, Control_c, 0, 64, 86
1, 237396, Control_c, 0, 64, 75
1, 237411, Control_c, 0, 64, 63
1, 237426, Control_c, 0, 64, 0
1, 237474, Note_on_c, 0, 79, 56
1, 237491, Note_off_c, 0, 67, 47
1, 237491, Note_off_c, 0, 71, 57
1, 237496, Note_off_c, 0, 74, 59
1, 237610, Note_off_c, 0, 79, 39
1, 237620, Note_on_c, 0, 51, 48
1, 237624, Note_on_c, 0, 74, 52
1, 237625, Note_on_c, 0, 67, 34
1, 237626, Note_on_c, 0, 71, 41
1, 237627, Note_off_c, 0, 53, 56
1, 237632, Control_c, 0, 64, 62
1, 237647, Control_c, 0, 64, 67
1, 237662, Control_c, 0, 64, 70
1, 237677, Control_c, 0, 64, 73
1, 237692, Control_c, 0, 64, 76
1, 237706, Control_c, 0, 64, 79
1, 237721, Control_c, 0, 64, 81
1, 237736, Control_c, 0, 64, 83
1, 237743, Note_on_c, 0, 79, 53
1, 237751, Control_c, 0, 64, 84
1, 237773, Control_c, 0, 64, 85
1, 237776, Note_off_c, 0, 67, 30
1, 237781, Note_off_c, 0, 74, 58
1, 237788, Control_c, 0, 64, 87
1, 237799, Note_off_c, 0, 71, 33
1, 237802, Control_c, 0, 64, 88
1, 237817, Control_c, 0, 64, 89
1, 237877, Control_c, 0, 64, 88
1, 237883, Note_off_c, 0, 79, 36
1, 237892, Note_on_c, 0, 53, 49
1, 237892, Control_c, 0, 64, 85
1, 237895, Note_on_c, 0, 67, 47
1, 237907, Control_c, 0, 64, 77
1, 237907, Note_on_c, 0, 74, 51
1, 237911, Note_on_c, 0, 71, 47
1, 237912, Note_off_c, 0, 41, 41
1, 237921, Control_c, 0, 64, 66
1, 237936, Control_c, 0, 64, 0
1, 237953, Note_off_c, 0, 51, 41
1, 237965, Control_c, 0, 64, 43
1, 237980, Control_c, 0, 64, 66
1, 237995, Control_c, 0, 64, 72
1, 238010, Control_c, 0, 64, 76
1, 238025, Control_c, 0, 64, 78
1, 238037, Note_on_c, 0, 79, 48
1, 238039, Control_c, 0, 64, 80
1, 238054, Control_c, 0, 64, 83
1, 238056, Note_off_c, 0, 67, 25
1, 238058, Note_off_c, 0, 74, 52
1, 238059, Note_off_c, 0, 71, 36
1, 238069, Control_c, 0, 64, 85
1, 238085, Control_c, 0, 64, 87
1, 238100, Control_c, 0, 64, 88
1, 238115, Control_c, 0, 64, 89
1, 238130, Control_c, 0, 64, 89
1, 238144, Control_c, 0, 64, 90
1, 238159, Control_c, 0, 64, 91
1, 238163, Note_off_c, 0, 79, 36
1, 238174, Control_c, 0, 64, 92
1, 238188, Control_c, 0, 64, 93
1, 238191, Note_on_c, 0, 50, 52
1, 238192, Note_on_c, 0, 43, 53
1, 238192, Note_on_c, 0, 71, 49
1, 238194, Note_on_c, 0, 67, 47
1, 238195, Note_on_c, 0, 74, 58
1, 238203, Control_c, 0, 64, 93
1, 238218, Control_c, 0, 64, 94
1, 238233, Control_c, 0, 64, 94
1, 238248, Control_c, 0, 64, 95
1, 238262, Control_c, 0, 64, 95
1, 238278, Note_off_c, 0, 50, 61
1, 238280, Note_off_c, 0, 53, 41
1, 238307, Note_off_c, 0, 43, 55
1, 238307, Control_c, 0, 64, 96
1, 238330, Note_off_c, 0, 67, 26
1, 238334, Note_on_c, 0, 79, 44
1, 238341, Note_off_c, 0, 74, 61
1, 238344, Note_off_c, 0, 71, 46
1, 238351, Control_c, 0, 64, 96
1, 238396, Control_c, 0, 64, 97
1, 238470, Note_off_c, 0, 79, 35
1, 238516, Note_on_c, 0, 75, 56
1, 238530, Note_on_c, 0, 72, 47
1, 238531, Note_on_c, 0, 43, 58
1, 238533, Note_on_c, 0, 67, 47
1, 238536, Control_c, 0, 64, 95
1, 238541, Note_on_c, 0, 48, 56
1, 238551, Control_c, 0, 64, 90
1, 238566, Control_c, 0, 64, 82
1, 238581, Control_c, 0, 64, 71
1, 238595, Control_c, 0, 64, 57
1, 238610, Control_c, 0, 64, 0
1, 238662, Note_on_c, 0, 79, 51
1, 238676, Note_off_c, 0, 72, 57
1, 238681, Note_off_c, 0, 67, 44
1, 238682, Note_off_c, 0, 75, 56
1, 238780, Note_off_c, 0, 79, 46
1, 238816, Note_on_c, 0, 67, 39
1, 238819, Note_on_c, 0, 75, 53
1, 238822, Note_on_c, 0, 72, 43
1, 238845, Note_off_c, 0, 43, 30
1, 238850, Note_on_c, 0, 41, 14
1, 238930, Note_off_c, 0, 67, 33
1, 238951, Note_on_c, 0, 79, 47
1, 238956, Note_off_c, 0, 72, 38
1, 238965, Note_off_c, 0, 75, 56
1, 239063, Note_off_c, 0, 79, 49
1, 239093, Note_on_c, 0, 72, 43
1, 239097, Note_on_c, 0, 75, 50
1, 239102, Note_on_c, 0, 67, 38
1, 239108, Note_on_c, 0, 39, 43
1, 239153, Note_off_c, 0, 41, 45
1, 239229, Note_on_c, 0, 79, 45
1, 239251, Note_off_c, 0, 75, 56
1, 239269, Note_off_c, 0, 67, 40
1, 239272, Note_off_c, 0, 72, 44
1, 239396, Note_off_c, 0, 79, 35
1, 239402, Note_on_c, 0, 75, 55
1, 239403, Note_on_c, 0, 72, 41
1, 239409, Note_on_c, 0, 67, 34
1, 239415, Note_on_c, 0, 38, 42
1, 239438, Note_off_c, 0, 39, 35
1, 239538, Note_on_c, 0, 79, 49
1, 239558, Note_off_c, 0, 67, 32
1, 239558, Note_off_c, 0, 72, 45
1, 239564, Note_off_c, 0, 75, 55
1, 239689, Note_off_c, 0, 79, 44
1, 239701, Note_on_c, 0, 39, 43
1, 239703, Note_off_c, 0, 38, 39
1, 239706, Note_on_c, 0, 75, 51
1, 239709, Note_on_c, 0, 72, 43
1, 239716, Note_on_c, 0, 67, 37
1, 239861, Note_on_c, 0, 79, 49
1, 239867, Note_off_c, 0, 75, 56
1, 239868, Note_off_c, 0, 67, 25
1, 239868, Note_off_c, 0, 72, 46
1, 239893, Control_c, 0, 64, 62
1, 239907, Control_c, 0, 64, 67
1, 239922, Control_c, 0, 64, 70
1, 239937, Control_c, 0, 64, 73
1, 239952, Control_c, 0, 64, 77
1, 239967, Control_c, 0, 64, 80
1, 239981, Control_c, 0, 64, 83
1, 239996, Control_c, 0, 64, 86
1, 240010, Note_on_c, 0, 72, 48
1, 240019, Control_c, 0, 64, 88
1, 240022, Note_on_c, 0, 75, 54
1, 240023, Note_on_c, 0, 67, 44
1, 240032, Note_on_c, 0, 36, 50
1, 240033, Control_c, 0, 64, 90
1, 240039, Note_off_c, 0, 79, 31
1, 240048, Control_c, 0, 64, 93
1, 240063, Control_c, 0, 64, 95
1, 240078, Control_c, 0, 64, 97
1, 240093, Control_c, 0, 64, 98
1, 240107, Control_c, 0, 64, 100
1, 240113, Note_off_c, 0, 39, 39
1, 240122, Control_c, 0, 64, 101
1, 240136, Note_off_c, 0, 36, 53
1, 240137, Control_c, 0, 64, 102
1, 240152, Control_c, 0, 64, 103
1, 240167, Note_off_c, 0, 48, 36
1, 240181, Control_c, 0, 64, 103
1, 240203, Note_on_c, 0, 79, 56
1, 240211, Control_c, 0, 64, 104
1, 240217, Note_off_c, 0, 72, 61
1, 240227, Note_off_c, 0, 75, 64
1, 240232, Note_off_c, 0, 79, 64
1, 240247, Note_off_c, 0, 67, 23
1, 240300, Control_c, 0, 64, 104
1, 240433, Control_c, 0, 64, 104
1, 240448, Control_c, 0, 64, 101
1, 240461, Note_on_c, 0, 48, 90
1, 240463, Control_c, 0, 64, 95
1, 240465, Note_on_c, 0, 67, 60
1, 240466, Note_on_c, 0, 36, 76
1, 240466, Note_on_c, 0, 43, 79
1, 240467, Note_on_c, 0, 72, 82
1, 240470, Note_on_c, 0, 60, 84
1, 240470, Note_on_c, 0, 39, 73
1, 240471, Note_on_c, 0, 63, 87
1, 240479, Control_c, 0, 64, 84
1, 240494, Control_c, 0, 64, 72
1, 240509, Control_c, 0, 64, 46
1, 240524, Control_c, 0, 64, 0
1, 240559, Note_off_c, 0, 72, 58
1, 240572, Note_off_c, 0, 60, 54
1, 240600, Note_off_c, 0, 67, 63
1, 240605, Note_off_c, 0, 63, 60
1, 240774, Note_on_c, 0, 60, 75
1, 240810, Note_off_c, 0, 60, 62
1, 240906, Note_on_c, 0, 62, 66
1, 240938, Note_off_c, 0, 62, 64
1, 241002, Note_on_c, 0, 63, 81
1, 241046, Note_off_c, 0, 63, 63
1, 241075, Note_on_c, 0, 65, 73
1, 241119, Note_off_c, 0, 65, 62
1, 241134, Note_on_c, 0, 67, 71
1, 241158, Note_on_c, 0, 69, 70
1, 241199, Note_on_c, 0, 71, 64
1, 241199, Note_off_c, 0, 67, 64
1, 241217, Note_off_c, 0, 69, 67
1, 241227, Note_off_c, 0, 71, 64
1, 241265, Note_on_c, 0, 72, 79
1, 241305, Note_off_c, 0, 72, 64
1, 241326, Note_on_c, 0, 74, 76
1, 241342, Note_on_c, 0, 75, 80
1, 241371, Note_off_c, 0, 74, 65
1, 241382, Note_off_c, 0, 75, 67
1, 241409, Note_on_c, 0, 77, 78
1, 241451, Note_on_c, 0, 79, 78
1, 241462, Note_off_c, 0, 77, 59
1, 241471, Note_on_c, 0, 81, 87
1, 241517, Note_on_c, 0, 83, 79
1, 241517, Note_off_c, 0, 79, 64
1, 241555, Note_off_c, 0, 81, 62
1, 241561, Note_on_c, 0, 84, 95
1, 241602, Note_off_c, 0, 83, 62
1, 241606, Control_c, 0, 64, 49
1, 241621, Control_c, 0, 64, 68
1, 241636, Control_c, 0, 64, 78
1, 241651, Control_c, 0, 64, 87
1, 241666, Control_c, 0, 64, 92
1, 241680, Control_c, 0, 64, 96
1, 241695, Control_c, 0, 64, 98
1, 241710, Control_c, 0, 64, 101
1, 241725, Control_c, 0, 64, 104
1, 241740, Control_c, 0, 64, 109
1, 241754, Control_c, 0, 64, 115
1, 241769, Control_c, 0, 64, 122
1, 241784, Control_c, 0, 64, 127
1, 241797, Note_off_c, 0, 48, 60
1, 241799, Note_off_c, 0, 43, 54
1, 241836, Note_off_c, 0, 39, 61
1, 241841, Note_off_c, 0, 36, 62
1, 241971, Note_off_c, 0, 84, 59
1, 242110, Note_on_c, 0, 43, 93
1, 242114, Note_on_c, 0, 31, 77
1, 242114, Note_on_c, 0, 35, 77
1, 242114, Note_on_c, 0, 38, 81
1, 242140, Control_c, 0, 64, 111
1, 242155, Control_c, 0, 64, 99
1, 242170, Control_c, 0, 64, 88
1, 242184, Control_c, 0, 64, 78
1, 242199, Control_c, 0, 64, 68
1, 242214, Control_c, 0, 64, 47
1, 242229, Control_c, 0, 64, 0
1, 242394, Note_on_c, 0, 62, 82
1, 242443, Note_off_c, 0, 62, 60
1, 242444, Control_c, 0, 64, 23
1, 242459, Control_c, 0, 64, 24
1, 242474, Control_c, 0, 64, 25
1, 242488, Control_c, 0, 64, 28
1, 242503, Control_c, 0, 64, 34
1, 242514, Note_on_c, 0, 63, 72
1, 242518, Control_c, 0, 64, 40
1, 242533, Control_c, 0, 64, 41
1, 242554, Note_off_c, 0, 63, 62
1, 242562, Control_c, 0, 64, 41
1, 242577, Control_c, 0, 64, 40
1, 242623, Note_on_c, 0, 65, 71
1, 242649, Note_off_c, 0, 65, 69
1, 242651, Control_c, 0, 64, 42
1, 242666, Control_c, 0, 64, 44
1, 242681, Control_c, 0, 64, 46
1, 242688, Note_on_c, 0, 67, 79
1, 242696, Control_c, 0, 64, 46
1, 242725, Control_c, 0, 64, 46
1, 242730, Note_off_c, 0, 67, 60
1, 242744, Note_on_c, 0, 69, 73
1, 242754, Control_c, 0, 64, 45
1, 242769, Control_c, 0, 64, 45
1, 242778, Note_on_c, 0, 71, 67
1, 242784, Control_c, 0, 64, 46
1, 242803, Note_on_c, 0, 72, 70
1, 242804, Note_off_c, 0, 69, 67
1, 242818, Note_off_c, 0, 71, 64
1, 242826, Note_off_c, 0, 72, 69
1, 242858, Control_c, 0, 64, 47
1, 242876, Note_on_c, 0, 74, 63
1, 242889, Control_c, 0, 64, 47
1, 242950, Note_on_c, 0, 77, 57
1, 242953, Note_off_c, 0, 74, 63
1, 242957, Note_on_c, 0, 76, 58
1, 242963, Control_c, 0, 64, 48
1, 242971, Note_off_c, 0, 77, 63
1, 242975, Note_off_c, 0, 76, 62
1, 242977, Control_c, 0, 64, 50
1, 242992, Control_c, 0, 64, 53
1, 243015, Control_c, 0, 64, 54
1, 243016, Note_on_c, 0, 79, 76
1, 243030, Control_c, 0, 64, 55
1, 243045, Control_c, 0, 64, 56
1, 243057, Note_on_c, 0, 81, 79
1, 243061, Note_off_c, 0, 79, 58
1, 243074, Control_c, 0, 64, 55
1, 243079, Note_on_c, 0, 83, 81
1, 243089, Control_c, 0, 64, 50
1, 243104, Control_c, 0, 64, 27
1, 243113, Note_off_c, 0, 81, 63
1, 243118, Note_on_c, 0, 84, 70
1, 243119, Control_c, 0, 64, 0
1, 243150, Note_off_c, 0, 83, 64
1, 243159, Note_on_c, 0, 86, 99
1, 243192, Note_off_c, 0, 84, 66
1, 243207, Control_c, 0, 64, 38
1, 243222, Control_c, 0, 64, 64
1, 243237, Control_c, 0, 64, 70
1, 243252, Control_c, 0, 64, 75
1, 243266, Control_c, 0, 64, 82
1, 243281, Control_c, 0, 64, 85
1, 243296, Control_c, 0, 64, 89
1, 243311, Control_c, 0, 64, 92
1, 243326, Control_c, 0, 64, 96
1, 243341, Control_c, 0, 64, 101
1, 243356, Control_c, 0, 64, 107
1, 243371, Control_c, 0, 64, 112
1, 243385, Control_c, 0, 64, 115
1, 243390, Note_off_c, 0, 38, 61
1, 243393, Note_off_c, 0, 35, 61
1, 243395, Note_off_c, 0, 31, 62
1, 243400, Control_c, 0, 64, 119
1, 243409, Note_off_c, 0, 43, 59
1, 243415, Control_c, 0, 64, 124
1, 243430, Control_c, 0, 64, 127
1, 243516, Note_off_c, 0, 86, 59
1, 243696, Note_on_c, 0, 36, 72
1, 243702, Note_on_c, 0, 46, 87
1, 243702, Note_on_c, 0, 43, 76
1, 243705, Note_on_c, 0, 48, 92
1, 243742, Control_c, 0, 64, 108
1, 243764, Control_c, 0, 64, 95
1, 243779, Control_c, 0, 64, 83
1, 243794, Control_c, 0, 64, 72
1, 243808, Control_c, 0, 64, 62
1, 243823, Control_c, 0, 64, 0
1, 243868, Control_c, 0, 64, 18
1, 243882, Control_c, 0, 64, 20
1, 243927, Control_c, 0, 64, 21
1, 243942, Control_c, 0, 64, 27
1, 243956, Control_c, 0, 64, 29
1, 243979, Note_on_c, 0, 64, 76
1, 244015, Control_c, 0, 64, 30
1, 244024, Note_off_c, 0, 64, 62
1, 244030, Control_c, 0, 64, 32
1, 244045, Control_c, 0, 64, 33
1, 244060, Control_c, 0, 64, 34
1, 244074, Control_c, 0, 64, 35
1, 244089, Control_c, 0, 64, 38
1, 244098, Note_on_c, 0, 65, 75
1, 244104, Control_c, 0, 64, 41
1, 244119, Control_c, 0, 64, 41
1, 244134, Control_c, 0, 64, 41
1, 244149, Control_c, 0, 64, 40
1, 244155, Note_off_c, 0, 65, 61
1, 244179, Note_on_c, 0, 67, 73
1, 244214, Note_off_c, 0, 67, 65
1, 244222, Control_c, 0, 64, 39
1, 244237, Control_c, 0, 64, 41
1, 244252, Control_c, 0, 64, 43
1, 244256, Note_on_c, 0, 69, 78
1, 244267, Control_c, 0, 64, 44
1, 244296, Control_c, 0, 64, 44
1, 244313, Note_on_c, 0, 70, 73
1, 244319, Note_off_c, 0, 69, 60
1, 244325, Control_c, 0, 64, 45
1, 244340, Control_c, 0, 64, 46
1, 244347, Note_on_c, 0, 72, 70
1, 244370, Control_c, 0, 64, 45
1, 244382, Note_off_c, 0, 70, 63
1, 244385, Control_c, 0, 64, 45
1, 244387, Note_on_c, 0, 74, 66
1, 244399, Control_c, 0, 64, 45
1, 244411, Note_off_c, 0, 72, 65
1, 244414, Note_off_c, 0, 74, 68
1, 244414, Control_c, 0, 64, 47
1, 244429, Control_c, 0, 64, 48
1, 244444, Control_c, 0, 64, 48
1, 244456, Note_on_c, 0, 76, 75
1, 244459, Control_c, 0, 64, 49
1, 244475, Control_c, 0, 64, 50
1, 244490, Control_c, 0, 64, 50
1, 244502, Note_off_c, 0, 76, 68
1, 244509, Note_on_c, 0, 77, 70
1, 244527, Control_c, 0, 64, 51
1, 244542, Note_on_c, 0, 79, 78
1, 244557, Control_c, 0, 64, 51
1, 244566, Note_off_c, 0, 77, 63
1, 244572, Control_c, 0, 64, 51
1, 244574, Note_off_c, 0, 79, 64
1, 244601, Control_c, 0, 64, 52
1, 244609, Note_on_c, 0, 81, 81
1, 244616, Control_c, 0, 64, 55
1, 244630, Control_c, 0, 64, 55
1, 244655, Note_on_c, 0, 82, 84
1, 244660, Control_c, 0, 64, 54
1, 244667, Note_off_c, 0, 81, 59
1, 244675, Control_c, 0, 64, 53
1, 244690, Control_c, 0, 64, 52
1, 244695, Note_on_c, 0, 84, 75
1, 244704, Control_c, 0, 64, 46
1, 244719, Control_c, 0, 64, 0
1, 244730, Note_off_c, 0, 82, 65
1, 244734, Note_on_c, 0, 86, 79
1, 244768, Note_off_c, 0, 84, 66
1, 244773, Note_on_c, 0, 88, 90
1, 244811, Note_off_c, 0, 86, 65
1, 244822, Control_c, 0, 64, 56
1, 244837, Control_c, 0, 64, 70
1, 244852, Control_c, 0, 64, 80
1, 244867, Control_c, 0, 64, 91
1, 244882, Control_c, 0, 64, 97
1, 244897, Control_c, 0, 64, 104
1, 244912, Control_c, 0, 64, 111
1, 244927, Control_c, 0, 64, 118
1, 244942, Control_c, 0, 64, 127
1, 244995, Note_off_c, 0, 48, 59
1, 245007, Note_off_c, 0, 46, 61
1, 245018, Note_off_c, 0, 43, 59
1, 245048, Note_off_c, 0, 36, 62
1, 245130, Note_off_c, 0, 88, 61
1, 245181, Poly_aftertouch_c, 0, 84, 127
1, 245201, Poly_aftertouch_c, 0, 84, 0
1, 245313, Note_on_c, 0, 41, 98
1, 245314, Note_on_c, 0, 36, 78
1, 245316, Note_on_c, 0, 29, 84
1, 245320, Note_on_c, 0, 33, 84
1, 245335, Control_c, 0, 64, 120
1, 245350, Control_c, 0, 64, 103
1, 245365, Control_c, 0, 64, 90
1, 245380, Control_c, 0, 64, 77
1, 245395, Control_c, 0, 64, 67
1, 245410, Control_c, 0, 64, 47
1, 245425, Control_c, 0, 64, 0
1, 245606, Note_on_c, 0, 65, 78
1, 245642, Note_off_c, 0, 65, 65
1, 245721, Control_c, 0, 64, 10
1, 245735, Control_c, 0, 64, 16
1, 245744, Note_on_c, 0, 67, 75
1, 245750, Control_c, 0, 64, 18
1, 245773, Note_off_c, 0, 67, 62
1, 245779, Control_c, 0, 64, 16
1, 245794, Control_c, 0, 64, 13
1, 245824, Control_c, 0, 64, 18
1, 245839, Control_c, 0, 64, 21
1, 245841, Note_on_c, 0, 69, 77
1, 245854, Control_c, 0, 64, 23
1, 245878, Note_on_c, 0, 70, 73
1, 245898, Control_c, 0, 64, 26
1, 245908, Note_off_c, 0, 69, 66
1, 245913, Control_c, 0, 64, 36
1, 245928, Control_c, 0, 64, 43
1, 245931, Note_off_c, 0, 70, 65
1, 245943, Control_c, 0, 64, 43
1, 245962, Note_on_c, 0, 72, 69
1, 245972, Control_c, 0, 64, 43
1, 246009, Control_c, 0, 64, 44
1, 246012, Note_off_c, 0, 72, 66
1, 246018, Note_on_c, 0, 74, 71
1, 246024, Control_c, 0, 64, 46
1, 246039, Control_c, 0, 64, 48
1, 246048, Note_on_c, 0, 76, 69
1, 246054, Control_c, 0, 64, 50
1, 246068, Control_c, 0, 64, 54
1, 246083, Note_on_c, 0, 77, 70
1, 246084, Control_c, 0, 64, 57
1, 246087, Note_off_c, 0, 74, 66
1, 246099, Control_c, 0, 64, 60
1, 246107, Note_off_c, 0, 76, 68
1, 246108, Note_off_c, 0, 77, 66
1, 246114, Control_c, 0, 64, 62
1, 246129, Control_c, 0, 64, 62
1, 246153, Note_on_c, 0, 79, 75
1, 246158, Control_c, 0, 64, 63
1, 246173, Control_c, 0, 64, 63
1, 246190, Note_off_c, 0, 79, 62
1, 246198, Note_on_c, 0, 81, 74
1, 246220, Note_on_c, 0, 82, 85
1, 246239, Note_off_c, 0, 81, 61
1, 246258, Note_off_c, 0, 82, 66
1, 246277, Control_c, 0, 64, 64
1, 246287, Note_on_c, 0, 84, 81
1, 246322, Control_c, 0, 64, 63
1, 246324, Note_on_c, 0, 86, 84
1, 246334, Note_off_c, 0, 84, 60
1, 246337, Control_c, 0, 64, 62
1, 246351, Control_c, 0, 64, 53
1, 246352, Note_on_c, 0, 88, 85
1, 246366, Control_c, 0, 64, 0
1, 246396, Note_on_c, 0, 89, 91
1, 246398, Note_off_c, 0, 86, 64
1, 246427, Note_off_c, 0, 88, 61
1, 246455, Control_c, 0, 64, 35
1, 246470, Control_c, 0, 64, 68
1, 246484, Control_c, 0, 64, 78
1, 246499, Control_c, 0, 64, 90
1, 246514, Control_c, 0, 64, 100
1, 246528, Control_c, 0, 64, 106
1, 246543, Control_c, 0, 64, 111
1, 246558, Control_c, 0, 64, 117
1, 246573, Control_c, 0, 64, 126
1, 246588, Control_c, 0, 64, 127
1, 246632, Note_off_c, 0, 36, 62
1, 246634, Note_off_c, 0, 29, 61
1, 246650, Note_off_c, 0, 41, 64
1, 246667, Note_off_c, 0, 33, 41
1, 246783, Note_off_c, 0, 89, 64
1, 246952, Note_on_c, 0, 50, 98
1, 246954, Note_on_c, 0, 42, 82
1, 246954, Note_on_c, 0, 45, 83
1, 246957, Note_on_c, 0, 38, 78
1, 246981, Control_c, 0, 64, 112
1, 246996, Control_c, 0, 64, 95
1, 247011, Control_c, 0, 64, 83
1, 247025, Control_c, 0, 64, 73
1, 247040, Control_c, 0, 64, 63
1, 247055, Control_c, 0, 64, 24
1, 247070, Control_c, 0, 64, 0
1, 247100, Control_c, 0, 64, 23
1, 247144, Control_c, 0, 64, 26
1, 247159, Control_c, 0, 64, 32
1, 247174, Control_c, 0, 64, 36
1, 247189, Control_c, 0, 64, 36
1, 247231, Note_on_c, 0, 66, 74
1, 247233, Control_c, 0, 64, 37
1, 247248, Control_c, 0, 64, 38
1, 247274, Note_off_c, 0, 66, 62
1, 247292, Control_c, 0, 64, 37
1, 247322, Control_c, 0, 64, 38
1, 247350, Note_on_c, 0, 67, 77
1, 247366, Control_c, 0, 64, 38
1, 247382, Note_off_c, 0, 67, 62
1, 247411, Control_c, 0, 64, 38
1, 247440, Control_c, 0, 64, 37
1, 247452, Note_on_c, 0, 69, 79
1, 247455, Control_c, 0, 64, 36
1, 247485, Control_c, 0, 64, 38
1, 247504, Note_on_c, 0, 71, 70
1, 247507, Control_c, 0, 64, 40
1, 247516, Note_off_c, 0, 69, 63
1, 247522, Control_c, 0, 64, 41
1, 247537, Control_c, 0, 64, 42
1, 247544, Note_off_c, 0, 71, 64
1, 247551, Control_c, 0, 64, 43
1, 247566, Control_c, 0, 64, 46
1, 247581, Control_c, 0, 64, 50
1, 247585, Note_on_c, 0, 72, 75
1, 247596, Control_c, 0, 64, 51
1, 247611, Control_c, 0, 64, 52
1, 247620, Note_off_c, 0, 72, 56
1, 247625, Control_c, 0, 64, 53
1, 247637, Note_on_c, 0, 74, 71
1, 247640, Control_c, 0, 64, 54
1, 247655, Control_c, 0, 64, 55
1, 247664, Note_on_c, 0, 76, 67
1, 247671, Control_c, 0, 64, 56
1, 247701, Control_c, 0, 64, 57
1, 247712, Note_on_c, 0, 78, 72
1, 247715, Note_off_c, 0, 74, 65
1, 247716, Control_c, 0, 64, 58
1, 247729, Note_off_c, 0, 76, 67
1, 247730, Control_c, 0, 64, 59
1, 247745, Control_c, 0, 64, 60
1, 247747, Note_off_c, 0, 78, 67
1, 247780, Note_on_c, 0, 79, 71
1, 247818, Note_off_c, 0, 79, 60
1, 247832, Note_on_c, 0, 81, 69
1, 247856, Note_on_c, 0, 83, 71
1, 247863, Control_c, 0, 64, 59
1, 247868, Note_off_c, 0, 81, 63
1, 247878, Note_off_c, 0, 83, 68
1, 247878, Control_c, 0, 64, 57
1, 247893, Control_c, 0, 64, 49
1, 247908, Control_c, 0, 64, 10
1, 247915, Note_on_c, 0, 84, 76
1, 247923, Control_c, 0, 64, 0
1, 247955, Note_on_c, 0, 86, 82
1, 247975, Note_off_c, 0, 84, 63
1, 247979, Note_on_c, 0, 88, 81
1, 247982, Control_c, 0, 64, 45
1, 247997, Control_c, 0, 64, 66
1, 248012, Control_c, 0, 64, 73
1, 248018, Note_on_c, 0, 90, 93
1, 248021, Note_off_c, 0, 86, 64
1, 248027, Control_c, 0, 64, 79
1, 248041, Control_c, 0, 64, 83
1, 248042, Note_off_c, 0, 88, 65
1, 248056, Control_c, 0, 64, 86
1, 248064, Note_off_c, 0, 90, 67
1, 248071, Control_c, 0, 64, 88
1, 248086, Control_c, 0, 64, 90
1, 248101, Control_c, 0, 64, 92
1, 248115, Control_c, 0, 64, 93
1, 248130, Control_c, 0, 64, 94
1, 248145, Control_c, 0, 64, 96
1, 248160, Control_c, 0, 64, 97
1, 248174, Control_c, 0, 64, 97
1, 248189, Control_c, 0, 64, 98
1, 248191, Note_off_c, 0, 50, 55
1, 248196, Note_off_c, 0, 45, 60
1, 248219, Control_c, 0, 64, 98
1, 248231, Note_on_c, 0, 79, 77
1, 248234, Control_c, 0, 64, 99
1, 248244, Note_off_c, 0, 42, 61
1, 248258, Note_off_c, 0, 38, 62
1, 248281, Note_on_c, 0, 81, 75
1, 248285, Note_off_c, 0, 79, 60
1, 248316, Control_c, 0, 64, 99
1, 248318, Note_on_c, 0, 83, 71
1, 248334, Note_off_c, 0, 81, 62
1, 248340, Note_off_c, 0, 83, 68
1, 248381, Note_on_c, 0, 84, 83
1, 248404, Control_c, 0, 64, 99
1, 248426, Note_off_c, 0, 84, 62
1, 248429, Note_on_c, 0, 86, 78
1, 248434, Control_c, 0, 64, 98
1, 248448, Control_c, 0, 64, 96
1, 248453, Note_on_c, 0, 88, 78
1, 248463, Control_c, 0, 64, 89
1, 248479, Control_c, 0, 64, 77
1, 248485, Note_on_c, 0, 90, 84
1, 248486, Note_off_c, 0, 86, 63
1, 248494, Control_c, 0, 64, 54
1, 248509, Control_c, 0, 64, 0
1, 248537, Note_off_c, 0, 88, 60
1, 248541, Note_on_c, 0, 31, 81
1, 248541, Note_on_c, 0, 43, 93
1, 248547, Note_on_c, 0, 91, 100
1, 248568, Control_c, 0, 64, 57
1, 248572, Note_off_c, 0, 90, 66
1, 248583, Control_c, 0, 64, 70
1, 248584, Note_off_c, 0, 91, 65
1, 248597, Control_c, 0, 64, 79
1, 248612, Control_c, 0, 64, 88
1, 248627, Control_c, 0, 64, 93
1, 248642, Control_c, 0, 64, 94
1, 248657, Control_c, 0, 64, 95
1, 248671, Control_c, 0, 64, 96
1, 248676, Note_off_c, 0, 43, 59
1, 248686, Control_c, 0, 64, 96
1, 248701, Control_c, 0, 64, 97
1, 248705, Note_off_c, 0, 31, 59
1, 248716, Control_c, 0, 64, 98
1, 248731, Control_c, 0, 64, 98
1, 248745, Control_c, 0, 64, 99
1, 248790, Note_on_c, 0, 80, 60
1, 248820, Control_c, 0, 64, 98
1, 248831, Note_on_c, 0, 82, 69
1, 248835, Note_off_c, 0, 80, 61
1, 248835, Control_c, 0, 64, 95
1, 248850, Control_c, 0, 64, 90
1, 248858, Note_off_c, 0, 82, 67
1, 248864, Control_c, 0, 64, 83
1, 248879, Control_c, 0, 64, 76
1, 248894, Control_c, 0, 64, 68
1, 248901, Note_on_c, 0, 84, 68
1, 248909, Control_c, 0, 64, 56
1, 248923, Control_c, 0, 64, 28
1, 248935, Note_off_c, 0, 84, 64
1, 248938, Control_c, 0, 64, 21
1, 248944, Note_on_c, 0, 86, 70
1, 248953, Control_c, 0, 64, 20
1, 248968, Control_c, 0, 64, 0
1, 248973, Note_on_c, 0, 87, 78
1, 248978, Note_off_c, 0, 86, 64
1, 249000, Note_off_c, 0, 87, 70
1, 249043, Note_on_c, 0, 89, 81
1, 249087, Note_on_c, 0, 91, 82
1, 249124, Note_on_c, 0, 44, 88
1, 249124, Note_on_c, 0, 32, 78
1, 249129, Note_on_c, 0, 92, 96
1, 249153, Control_c, 0, 64, 52
1, 249168, Control_c, 0, 64, 68
1, 249174, Note_off_c, 0, 91, 60
1, 249175, Note_off_c, 0, 89, 50
1, 249183, Control_c, 0, 64, 75
1, 249189, Note_off_c, 0, 92, 68
1, 249197, Control_c, 0, 64, 82
1, 249212, Control_c, 0, 64, 85
1, 249227, Control_c, 0, 64, 87
1, 249242, Poly_aftertouch_c, 0, 38, 0
1, 249242, Control_c, 0, 64, 89
1, 249257, Control_c, 0, 64, 90
1, 249273, Control_c, 0, 64, 90
1, 249288, Control_c, 0, 64, 91
1, 249317, Control_c, 0, 64, 91
1, 249332, Note_off_c, 0, 44, 59
1, 249333, Note_off_c, 0, 32, 62
1, 249361, Control_c, 0, 64, 92
1, 249372, Note_on_c, 0, 77, 73
1, 249412, Note_off_c, 0, 77, 61
1, 249416, Note_on_c, 0, 79, 64
1, 249435, Control_c, 0, 64, 91
1, 249450, Control_c, 0, 64, 90
1, 249459, Note_on_c, 0, 80, 73
1, 249465, Control_c, 0, 64, 87
1, 249480, Control_c, 0, 64, 82
1, 249483, Note_off_c, 0, 79, 62
1, 249485, Note_on_c, 0, 82, 67
1, 249494, Control_c, 0, 64, 77
1, 249495, Note_off_c, 0, 80, 65
1, 249508, Note_off_c, 0, 82, 67
1, 249509, Control_c, 0, 64, 72
1, 249524, Control_c, 0, 64, 66
1, 249538, Control_c, 0, 64, 58
1, 249543, Note_on_c, 0, 84, 77
1, 249553, Control_c, 0, 64, 49
1, 249568, Control_c, 0, 64, 49
1, 249583, Control_c, 0, 64, 48
1, 249592, Note_off_c, 0, 84, 63
1, 249598, Control_c, 0, 64, 42
1, 249599, Note_on_c, 0, 86, 73
1, 249613, Control_c, 0, 64, 0
1, 249625, Note_on_c, 0, 87, 77
1, 249633, Note_off_c, 0, 86, 65
1, 249646, Note_off_c, 0, 87, 70
1, 249681, Note_on_c, 0, 89, 96
1, 249753, Note_off_c, 0, 89, 66
1, 249753, Control_c, 0, 64, 60
1, 249768, Control_c, 0, 64, 68
1, 249783, Control_c, 0, 64, 73
1, 249798, Control_c, 0, 64, 75
1, 249813, Control_c, 0, 64, 76
1, 249827, Control_c, 0, 64, 78
1, 249842, Control_c, 0, 64, 80
1, 249857, Control_c, 0, 64, 82
1, 249872, Control_c, 0, 64, 83
1, 249887, Control_c, 0, 64, 83
1, 249902, Control_c, 0, 64, 84
1, 249917, Control_c, 0, 64, 85
1, 249924, Note_on_c, 0, 74, 69
1, 249932, Control_c, 0, 64, 86
1, 249946, Control_c, 0, 64, 87
1, 249958, Note_off_c, 0, 74, 64
1, 249961, Control_c, 0, 64, 87
1, 249968, Note_on_c, 0, 75, 70
1, 250007, Note_off_c, 0, 75, 65
1, 250052, Note_on_c, 0, 77, 75
1, 250081, Control_c, 0, 64, 87
1, 250096, Control_c, 0, 64, 86
1, 250102, Note_on_c, 0, 79, 82
1, 250110, Note_off_c, 0, 77, 60
1, 250111, Control_c, 0, 64, 84
1, 250125, Control_c, 0, 64, 81
1, 250135, Note_on_c, 0, 80, 71
1, 250140, Control_c, 0, 64, 76
1, 250155, Control_c, 0, 64, 66
1, 250157, Note_off_c, 0, 79, 61
1, 250167, Note_on_c, 0, 82, 72
1, 250169, Control_c, 0, 64, 0
1, 250170, Note_off_c, 0, 80, 64
1, 250188, Note_off_c, 0, 82, 65
1, 250216, Note_on_c, 0, 84, 83
1, 250258, Note_on_c, 0, 86, 84
1, 250258, Control_c, 0, 64, 62
1, 250273, Control_c, 0, 64, 69
1, 250274, Note_off_c, 0, 84, 66
1, 250288, Control_c, 0, 64, 73
1, 250291, Note_off_c, 0, 86, 67
1, 250303, Control_c, 0, 64, 76
1, 250317, Control_c, 0, 64, 78
1, 250332, Control_c, 0, 64, 79
1, 250347, Control_c, 0, 64, 81
1, 250361, Control_c, 0, 64, 82
1, 250376, Control_c, 0, 64, 83
1, 250391, Control_c, 0, 64, 85
1, 250406, Control_c, 0, 64, 85
1, 250465, Control_c, 0, 64, 84
1, 250480, Control_c, 0, 64, 80
1, 250503, Control_c, 0, 64, 72
1, 250517, Control_c, 0, 64, 60
1, 250532, Control_c, 0, 64, 0
1, 250537, Note_on_c, 0, 70, 71
1, 250571, Note_off_c, 0, 70, 66
1, 250622, Note_on_c, 0, 72, 61
1, 250650, Note_off_c, 0, 72, 56
1, 250665, Note_on_c, 0, 74, 63
1, 250693, Note_off_c, 0, 74, 63
1, 250694, Note_on_c, 0, 75, 68
1, 250716, Note_off_c, 0, 75, 66
1, 250740, Control_c, 0, 64, 16
1, 250763, Note_on_c, 0, 77, 72
1, 250769, Control_c, 0, 64, 10
1, 250784, Control_c, 0, 64, 0
1, 250796, Note_on_c, 0, 79, 85
1, 250813, Note_off_c, 0, 77, 58
1, 250838, Note_on_c, 0, 80, 81
1, 250843, Control_c, 0, 64, 10
1, 250858, Control_c, 0, 64, 20
1, 250874, Control_c, 0, 64, 27
1, 250889, Control_c, 0, 64, 30
1, 250894, Note_off_c, 0, 79, 62
1, 250904, Control_c, 0, 64, 29
1, 250918, Control_c, 0, 64, 25
1, 250919, Note_off_c, 0, 80, 64
1, 250933, Control_c, 0, 64, 21
1, 250962, Control_c, 0, 64, 23
1, 251041, Note_on_c, 0, 67, 80
1, 251098, Note_on_c, 0, 69, 72
1, 251100, Note_off_c, 0, 67, 62
1, 251142, Note_on_c, 0, 71, 61
1, 251154, Control_c, 0, 64, 24
1, 251157, Note_off_c, 0, 69, 66
1, 251169, Note_off_c, 0, 71, 66
1, 251169, Control_c, 0, 64, 28
1, 251184, Control_c, 0, 64, 31
1, 251202, Note_on_c, 0, 72, 78
1, 251214, Control_c, 0, 64, 29
1, 251228, Control_c, 0, 64, 28
1, 251260, Note_on_c, 0, 74, 79
1, 251261, Note_off_c, 0, 72, 61
1, 251265, Control_c, 0, 64, 31
1, 251280, Control_c, 0, 64, 33
1, 251291, Note_on_c, 0, 75, 73
1, 251295, Control_c, 0, 64, 34
1, 251322, Note_on_c, 0, 77, 78
1, 251324, Control_c, 0, 64, 30
1, 251325, Note_off_c, 0, 74, 66
1, 251339, Control_c, 0, 64, 25
1, 251354, Control_c, 0, 64, 21
1, 251355, Note_off_c, 0, 75, 64
1, 251366, Note_on_c, 0, 79, 84
1, 251369, Control_c, 0, 64, 16
1, 251384, Control_c, 0, 64, 0
1, 251428, Control_c, 0, 64, 16
1, 251439, Note_off_c, 0, 77, 60
1, 251443, Control_c, 0, 64, 18
1, 251452, Note_off_c, 0, 79, 63
1, 251473, Control_c, 0, 64, 20
1, 251503, Control_c, 0, 64, 18
1, 251600, Note_on_c, 0, 60, 76
1, 251621, Control_c, 0, 64, 21
1, 251636, Control_c, 0, 64, 25
1, 251651, Control_c, 0, 64, 29
1, 251652, Note_on_c, 0, 62, 66
1, 251655, Note_off_c, 0, 60, 63
1, 251682, Control_c, 0, 64, 28
1, 251687, Note_on_c, 0, 63, 72
1, 251706, Note_off_c, 0, 62, 52
1, 251711, Control_c, 0, 64, 29
1, 251725, Note_off_c, 0, 63, 66
1, 251760, Note_on_c, 0, 65, 72
1, 251785, Control_c, 0, 64, 30
1, 251859, Control_c, 0, 64, 28
1, 251863, Note_off_c, 0, 65, 65
1, 251866, Note_on_c, 0, 67, 43
1, 251866, Note_on_c, 0, 69, 43
1, 251869, Note_on_c, 0, 71, 66
1, 251874, Control_c, 0, 64, 10
1, 251888, Control_c, 0, 64, 0
1, 251892, Note_off_c, 0, 67, 50
1, 251901, Note_off_c, 0, 69, 65
1, 251918, Note_on_c, 0, 72, 86
1, 251972, Note_off_c, 0, 71, 62
1, 252004, Note_off_c, 0, 72, 66
1, 252015, Control_c, 0, 64, 10
1, 252029, Control_c, 0, 64, 23
1, 252044, Control_c, 0, 64, 25
1, 252074, Control_c, 0, 64, 24
1, 252178, Note_on_c, 0, 48, 82
1, 252192, Control_c, 0, 64, 23
1, 252221, Control_c, 0, 64, 25
1, 252236, Note_on_c, 0, 50, 68
1, 252236, Control_c, 0, 64, 28
1, 252239, Note_off_c, 0, 48, 66
1, 252266, Control_c, 0, 64, 26
1, 252278, Note_on_c, 0, 51, 76
1, 252281, Control_c, 0, 64, 24
1, 252296, Control_c, 0, 64, 23
1, 252304, Note_off_c, 0, 50, 64
1, 252311, Control_c, 0, 64, 21
1, 252325, Control_c, 0, 64, 18
1, 252328, Note_off_c, 0, 51, 64
1, 252340, Control_c, 0, 64, 16
1, 252349, Note_on_c, 0, 53, 76
1, 252355, Control_c, 0, 64, 13
1, 252370, Control_c, 0, 64, 10
1, 252391, Note_off_c, 0, 53, 69
1, 252400, Control_c, 0, 64, 0
1, 252402, Note_on_c, 0, 55, 77
1, 252430, Note_on_c, 0, 57, 72
1, 252460, Note_on_c, 0, 59, 78
1, 252472, Note_off_c, 0, 55, 64
1, 252498, Note_off_c, 0, 57, 62
1, 252509, Note_on_c, 0, 60, 88
1, 252555, Note_off_c, 0, 59, 64
1, 252694, Note_off_c, 0, 60, 47
1, 252775, Note_on_c, 0, 36, 72
1, 252861, Note_on_c, 0, 38, 67
1, 252890, Note_off_c, 0, 36, 60
1, 252928, Note_on_c, 0, 39, 70
1, 252957, Note_off_c, 0, 38, 62
1, 252968, Note_on_c, 0, 41, 78
1, 253002, Note_off_c, 0, 39, 63
1, 253022, Note_on_c, 0, 43, 76
1, 253026, Note_off_c, 0, 41, 65
1, 253088, Note_on_c, 0, 45, 82
1, 253093, Note_off_c, 0, 43, 62
1, 253133, Note_on_c, 0, 47, 84
1, 253148, Note_off_c, 0, 45, 64
1, 253184, Note_on_c, 0, 48, 98
1, 253215, Note_off_c, 0, 47, 65
1, 253478, Note_off_c, 0, 48, 66
1, 253881, Note_on_c, 0, 48, 90
1, 253884, Note_on_c, 0, 55, 73
1, 253887, Note_on_c, 0, 43, 81
1, 253888, Note_on_c, 0, 39, 73
1, 253891, Note_on_c, 0, 36, 75
1, 253945, Note_off_c, 0, 55, 62
1, 253956, Control_c, 0, 64, 45
1, 253958, Note_on_c, 0, 60, 57
1, 253971, Control_c, 0, 64, 63
1, 253986, Control_c, 0, 64, 65
1, 254001, Control_c, 0, 64, 66
1, 254033, Note_on_c, 0, 63, 63
1, 254033, Note_off_c, 0, 60, 62
1, 254088, Note_off_c, 0, 63, 64
1, 254133, Note_on_c, 0, 67, 72
1, 254150, Control_c, 0, 64, 65
1, 254162, Note_off_c, 0, 36, 62
1, 254165, Control_c, 0, 64, 64
1, 254166, Note_off_c, 0, 43, 57
1, 254176, Note_off_c, 0, 39, 60
1, 254180, Control_c, 0, 64, 59
1, 254183, Note_off_c, 0, 48, 63
1, 254194, Control_c, 0, 64, 39
1, 254206, Note_off_c, 0, 67, 52
1, 254209, Control_c, 0, 64, 0
1, 254212, Note_on_c, 0, 72, 65
1, 254284, Note_on_c, 0, 75, 65
1, 254300, Note_off_c, 0, 72, 58
1, 254349, Note_off_c, 0, 75, 64
1, 254352, Note_on_c, 0, 79, 68
1, 254433, Note_on_c, 0, 75, 56
1, 254473, Note_off_c, 0, 79, 56
1, 254515, Note_on_c, 0, 72, 59
1, 254550, Note_off_c, 0, 75, 56
1, 254578, Note_off_c, 0, 72, 62
1, 254586, Note_on_c, 0, 60, 46
1, 254595, Note_on_c, 0, 79, 65
1, 254600, Note_on_c, 0, 63, 36
1, 254666, Note_on_c, 0, 75, 62
1, 254689, Note_off_c, 0, 79, 52
1, 254741, Note_on_c, 0, 72, 51
1, 254776, Note_off_c, 0, 75, 52
1, 254779, Note_off_c, 0, 63, 38
1, 254798, Note_off_c, 0, 72, 60
1, 254803, Note_off_c, 0, 60, 54
1, 254812, Note_on_c, 0, 79, 66
1, 254823, Note_on_c, 0, 59, 47
1, 254823, Note_on_c, 0, 62, 47
1, 254895, Note_on_c, 0, 74, 64
1, 254897, Note_off_c, 0, 79, 53
1, 254985, Note_on_c, 0, 71, 59
1, 255012, Note_off_c, 0, 74, 58
1, 255034, Note_off_c, 0, 71, 61
1, 255053, Note_on_c, 0, 63, 50
1, 255053, Note_on_c, 0, 79, 62
1, 255071, Note_off_c, 0, 62, 24
1, 255074, Note_on_c, 0, 60, 44
1, 255078, Note_off_c, 0, 59, 59
1, 255098, Note_off_c, 0, 63, 64
1, 255101, Note_off_c, 0, 60, 57
1, 255131, Note_on_c, 0, 75, 65
1, 255163, Note_off_c, 0, 79, 55
1, 255202, Note_on_c, 0, 72, 59
1, 255217, Control_c, 0, 64, 20
1, 255232, Control_c, 0, 64, 0
1, 255262, Note_off_c, 0, 75, 57
1, 255265, Note_off_c, 0, 72, 62
1, 255281, Note_on_c, 0, 79, 74
1, 255282, Note_on_c, 0, 62, 78
1, 255286, Note_on_c, 0, 55, 70
1, 255289, Note_on_c, 0, 59, 65
1, 255353, Note_off_c, 0, 79, 59
1, 255360, Note_on_c, 0, 74, 66
1, 255365, Control_c, 0, 64, 54
1, 255380, Control_c, 0, 64, 63
1, 255395, Control_c, 0, 64, 64
1, 255410, Control_c, 0, 64, 65
1, 255425, Control_c, 0, 64, 66
1, 255434, Note_on_c, 0, 71, 66
1, 255438, Note_off_c, 0, 62, 54
1, 255439, Control_c, 0, 64, 67
1, 255454, Control_c, 0, 64, 69
1, 255467, Note_off_c, 0, 74, 62
1, 255469, Control_c, 0, 64, 70
1, 255483, Control_c, 0, 64, 71
1, 255498, Control_c, 0, 64, 71
1, 255500, Note_off_c, 0, 71, 59
1, 255513, Note_on_c, 0, 67, 61
1, 255513, Control_c, 0, 64, 72
1, 255524, Note_off_c, 0, 59, 60
1, 255543, Note_off_c, 0, 55, 62
1, 255547, Note_off_c, 0, 67, 64
1, 255602, Note_on_c, 0, 62, 66
1, 255602, Control_c, 0, 64, 71
1, 255617, Control_c, 0, 64, 67
1, 255631, Control_c, 0, 64, 59
1, 255646, Control_c, 0, 64, 0
1, 255674, Note_on_c, 0, 59, 60
1, 255711, Note_off_c, 0, 62, 54
1, 255742, Note_off_c, 0, 59, 58
1, 255765, Note_on_c, 0, 67, 65
1, 255845, Note_on_c, 0, 62, 57
1, 255866, Note_off_c, 0, 67, 58
1, 255920, Note_on_c, 0, 59, 51
1, 255941, Note_off_c, 0, 62, 50
1, 255965, Note_on_c, 0, 47, 49
1, 255970, Note_on_c, 0, 50, 45
1, 255993, Note_on_c, 0, 67, 63
1, 256008, Note_off_c, 0, 59, 56
1, 256070, Note_on_c, 0, 62, 56
1, 256103, Note_off_c, 0, 67, 58
1, 256152, Note_on_c, 0, 59, 54
1, 256212, Note_off_c, 0, 50, 39
1, 256213, Note_on_c, 0, 46, 54
1, 256213, Note_on_c, 0, 49, 46
1, 256225, Note_off_c, 0, 62, 36
1, 256229, Note_off_c, 0, 47, 51
1, 256242, Note_on_c, 0, 67, 62
1, 256251, Note_off_c, 0, 59, 62
1, 256287, Note_on_c, 0, 61, 65
1, 256308, Note_off_c, 0, 67, 54
1, 256356, Note_off_c, 0, 61, 58
1, 256379, Note_on_c, 0, 58, 68
1, 256407, Note_off_c, 0, 58, 66
1, 256444, Note_on_c, 0, 47, 64
1, 256445, Note_on_c, 0, 50, 61
1, 256446, Note_on_c, 0, 67, 72
1, 256475, Note_off_c, 0, 47, 66
1, 256475, Note_off_c, 0, 49, 50
1, 256477, Note_off_c, 0, 46, 63
1, 256478, Note_off_c, 0, 50, 66
1, 256534, Note_on_c, 0, 62, 63
1, 256548, Note_off_c, 0, 67, 55
1, 256593, Note_on_c, 0, 59, 62
1, 256636, Note_off_c, 0, 59, 61
1, 256645, Note_off_c, 0, 62, 61
1, 256700, Note_on_c, 0, 46, 83
1, 256701, Note_on_c, 0, 36, 72
1, 256701, Note_on_c, 0, 48, 82
1, 256708, Note_on_c, 0, 43, 67
1, 256713, Note_on_c, 0, 64, 81
1, 256797, Note_on_c, 0, 70, 72
1, 256807, Note_off_c, 0, 64, 57
1, 256868, Note_on_c, 0, 73, 65
1, 256877, Note_off_c, 0, 70, 62
1, 256901, Note_off_c, 0, 73, 64
1, 256932, Note_off_c, 0, 36, 62
1, 256954, Note_off_c, 0, 43, 60
1, 256957, Note_on_c, 0, 76, 76
1, 256971, Note_off_c, 0, 46, 62
1, 256972, Note_off_c, 0, 48, 65
1, 257028, Note_on_c, 0, 82, 77
1, 257074, Note_off_c, 0, 76, 59
1, 257107, Note_on_c, 0, 85, 59
1, 257138, Note_off_c, 0, 82, 62
1, 257163, Note_off_c, 0, 85, 64
1, 257163, Note_on_c, 0, 88, 69
1, 257253, Note_on_c, 0, 85, 56
1, 257276, Note_off_c, 0, 88, 50
1, 257333, Note_on_c, 0, 82, 59
1, 257389, Note_off_c, 0, 82, 60
1, 257391, Note_on_c, 0, 70, 49
1, 257391, Note_off_c, 0, 85, 39
1, 257397, Note_on_c, 0, 88, 65
1, 257399, Note_on_c, 0, 73, 49
1, 257467, Note_on_c, 0, 85, 60
1, 257498, Note_off_c, 0, 88, 53
1, 257536, Note_on_c, 0, 82, 61
1, 257594, Note_off_c, 0, 85, 36
1, 257596, Note_off_c, 0, 70, 52
1, 257605, Note_off_c, 0, 82, 61
1, 257608, Note_off_c, 0, 73, 36
1, 257618, Note_on_c, 0, 88, 63
1, 257627, Note_on_c, 0, 72, 57
1, 257628, Note_on_c, 0, 69, 52
1, 257691, Note_on_c, 0, 84, 63
1, 257717, Note_off_c, 0, 88, 51
1, 257772, Note_on_c, 0, 81, 65
1, 257813, Note_off_c, 0, 84, 61
1, 257831, Note_off_c, 0, 81, 61
1, 257842, Note_on_c, 0, 88, 71
1, 257853, Note_on_c, 0, 73, 56
1, 257855, Note_on_c, 0, 70, 60
1, 257867, Note_off_c, 0, 69, 63
1, 257869, Note_off_c, 0, 72, 49
1, 257885, Note_off_c, 0, 73, 64
1, 257888, Note_off_c, 0, 70, 66
1, 257922, Note_on_c, 0, 85, 66
1, 257942, Note_off_c, 0, 88, 59
1, 257984, Note_on_c, 0, 82, 67
1, 258059, Note_off_c, 0, 82, 63
1, 258059, Note_off_c, 0, 85, 57
1, 258078, Note_on_c, 0, 89, 78
1, 258082, Note_on_c, 0, 72, 90
1, 258084, Note_on_c, 0, 69, 70
1, 258089, Note_on_c, 0, 65, 72
1, 258148, Note_on_c, 0, 84, 72
1, 258149, Note_off_c, 0, 89, 60
1, 258222, Note_on_c, 0, 81, 71
1, 258231, Note_off_c, 0, 72, 54
1, 258270, Note_off_c, 0, 84, 61
1, 258296, Note_off_c, 0, 81, 59
1, 258296, Note_on_c, 0, 77, 69
1, 258342, Note_off_c, 0, 77, 60
1, 258344, Note_off_c, 0, 69, 62
1, 258362, Note_off_c, 0, 65, 60
1, 258392, Note_on_c, 0, 72, 72
1, 258459, Note_on_c, 0, 69, 69
1, 258492, Note_off_c, 0, 72, 54
1, 258518, Note_off_c, 0, 69, 64
1, 258544, Note_on_c, 0, 77, 69
1, 258620, Note_on_c, 0, 72, 62
1, 258642, Note_off_c, 0, 77, 57
1, 258692, Note_on_c, 0, 69, 57
1, 258710, Note_off_c, 0, 72, 56
1, 258767, Note_on_c, 0, 57, 46
1, 258771, Note_on_c, 0, 60, 47
1, 258777, Note_on_c, 0, 77, 65
1, 258781, Note_off_c, 0, 69, 62
1, 258844, Note_on_c, 0, 72, 61
1, 258883, Note_off_c, 0, 77, 57
1, 258928, Note_on_c, 0, 69, 59
1, 258981, Note_off_c, 0, 60, 57
1, 258997, Note_off_c, 0, 72, 43
1, 259000, Note_off_c, 0, 57, 52
1, 259002, Note_on_c, 0, 56, 48
1, 259006, Note_on_c, 0, 77, 70
1, 259007, Note_off_c, 0, 69, 60
1, 259022, Note_on_c, 0, 59, 39
1, 259067, Note_on_c, 0, 71, 66
1, 259090, Note_off_c, 0, 77, 57
1, 259154, Note_off_c, 0, 71, 58
1, 259157, Note_on_c, 0, 68, 70
1, 259184, Control_c, 0, 64, 10
1, 259184, Note_off_c, 0, 68, 68
1, 259222, Note_on_c, 0, 77, 74
1, 259228, Control_c, 0, 64, 0
1, 259230, Note_on_c, 0, 57, 63
1, 259235, Note_on_c, 0, 60, 63
1, 259249, Note_off_c, 0, 56, 34
1, 259261, Note_off_c, 0, 59, 34
1, 259262, Note_off_c, 0, 57, 64
1, 259265, Note_off_c, 0, 60, 65
1, 259303, Note_on_c, 0, 72, 69
1, 259328, Note_off_c, 0, 77, 58
1, 259371, Note_off_c, 0, 72, 64
1, 259378, Note_on_c, 0, 69, 69
1, 259444, Note_off_c, 0, 69, 61
1, 259462, Note_on_c, 0, 60, 79
1, 259463, Note_on_c, 0, 66, 73
1, 259466, Note_on_c, 0, 50, 69
1, 259467, Note_on_c, 0, 54, 70
1, 259467, Note_on_c, 0, 57, 69
1, 259536, Note_off_c, 0, 66, 65
1, 259558, Note_on_c, 0, 69, 66
1, 259628, Note_off_c, 0, 69, 59
1, 259635, Note_on_c, 0, 72, 73
1, 259699, Note_off_c, 0, 72, 63
1, 259711, Note_on_c, 0, 78, 71
1, 259750, Note_off_c, 0, 78, 65
1, 259754, Note_off_c, 0, 57, 59
1, 259764, Note_off_c, 0, 50, 63
1, 259771, Note_off_c, 0, 60, 59
1, 259775, Note_off_c, 0, 54, 61
1, 259807, Note_on_c, 0, 81, 66
1, 259852, Note_off_c, 0, 81, 51
1, 259876, Note_on_c, 0, 84, 70
1, 259933, Control_c, 0, 64, 10
1, 259942, Note_off_c, 0, 84, 63
1, 259947, Control_c, 0, 64, 13
1, 259951, Note_on_c, 0, 90, 71
1, 259962, Control_c, 0, 64, 20
1, 259977, Control_c, 0, 64, 21
1, 259992, Control_c, 0, 64, 23
1, 260021, Control_c, 0, 64, 24
1, 260031, Note_on_c, 0, 84, 64
1, 260036, Control_c, 0, 64, 27
1, 260051, Control_c, 0, 64, 33
1, 260057, Note_off_c, 0, 90, 53
1, 260066, Control_c, 0, 64, 38
1, 260080, Control_c, 0, 64, 44
1, 260095, Control_c, 0, 64, 49
1, 260099, Note_off_c, 0, 84, 60
1, 260100, Note_on_c, 0, 81, 60
1, 260110, Control_c, 0, 64, 48
1, 260125, Control_c, 0, 64, 16
1, 260140, Control_c, 0, 64, 0
1, 260144, Note_off_c, 0, 81, 60
1, 260169, Note_on_c, 0, 90, 68
1, 260193, Note_on_c, 0, 72, 44
1, 260196, Note_on_c, 0, 75, 50
1, 260214, Control_c, 0, 64, 46
1, 260236, Control_c, 0, 64, 63
1, 260246, Note_on_c, 0, 84, 62
1, 260251, Control_c, 0, 64, 65
1, 260266, Control_c, 0, 64, 66
1, 260279, Note_off_c, 0, 90, 57
1, 260280, Control_c, 0, 64, 67
1, 260295, Control_c, 0, 64, 68
1, 260296, Note_off_c, 0, 75, 54
1, 260310, Control_c, 0, 64, 69
1, 260317, Note_off_c, 0, 84, 61
1, 260320, Note_on_c, 0, 81, 68
1, 260340, Control_c, 0, 64, 67
1, 260354, Control_c, 0, 64, 62
1, 260362, Note_off_c, 0, 72, 42
1, 260369, Control_c, 0, 64, 0
1, 260372, Note_off_c, 0, 81, 59
1, 260399, Control_c, 0, 64, 16
1, 260406, Note_on_c, 0, 90, 72
1, 260414, Note_on_c, 0, 71, 60
1, 260414, Note_on_c, 0, 74, 61
1, 260414, Control_c, 0, 64, 62
1, 260428, Control_c, 0, 64, 66
1, 260443, Control_c, 0, 64, 69
1, 260459, Control_c, 0, 64, 71
1, 260474, Control_c, 0, 64, 74
1, 260479, Note_on_c, 0, 86, 66
1, 260489, Control_c, 0, 64, 77
1, 260490, Note_off_c, 0, 74, 63
1, 260503, Control_c, 0, 64, 78
1, 260511, Note_off_c, 0, 90, 60
1, 260518, Control_c, 0, 64, 79
1, 260533, Control_c, 0, 64, 79
1, 260550, Note_on_c, 0, 83, 64
1, 260563, Control_c, 0, 64, 80
1, 260569, Note_off_c, 0, 86, 60
1, 260592, Control_c, 0, 64, 80
1, 260600, Note_off_c, 0, 71, 52
1, 260607, Control_c, 0, 64, 81
1, 260616, Note_off_c, 0, 83, 55
1, 260622, Control_c, 0, 64, 81
1, 260626, Note_on_c, 0, 90, 84
1, 260627, Note_on_c, 0, 72, 67
1, 260637, Note_on_c, 0, 75, 69
1, 260637, Control_c, 0, 64, 82
1, 260651, Control_c, 0, 64, 84
1, 260666, Control_c, 0, 64, 85
1, 260678, Note_off_c, 0, 75, 53
1, 260681, Control_c, 0, 64, 86
1, 260694, Note_on_c, 0, 87, 76
1, 260696, Control_c, 0, 64, 86
1, 260711, Control_c, 0, 64, 87
1, 260718, Note_off_c, 0, 72, 51
1, 260726, Control_c, 0, 64, 87
1, 260749, Note_off_c, 0, 90, 57
1, 260756, Control_c, 0, 64, 88
1, 260767, Note_on_c, 0, 84, 72
1, 260782, Note_off_c, 0, 87, 61
1, 260815, Control_c, 0, 64, 87
1, 260825, Note_off_c, 0, 84, 63
1, 260830, Control_c, 0, 64, 81
1, 260845, Control_c, 0, 64, 70
1, 260848, Note_on_c, 0, 91, 84
1, 260855, Note_on_c, 0, 67, 60
1, 260855, Note_on_c, 0, 74, 59
1, 260860, Control_c, 0, 64, 0
1, 260871, Note_on_c, 0, 71, 47
1, 260904, Control_c, 0, 64, 64
1, 260919, Control_c, 0, 64, 71
1, 260923, Note_off_c, 0, 71, 57
1, 260925, Note_off_c, 0, 74, 62
1, 260926, Note_off_c, 0, 67, 61
1, 260928, Note_on_c, 0, 86, 65
1, 260934, Control_c, 0, 64, 77
1, 260949, Control_c, 0, 64, 81
1, 260961, Note_off_c, 0, 91, 58
1, 260964, Control_c, 0, 64, 83
1, 260985, Control_c, 0, 64, 86
1, 261000, Control_c, 0, 64, 88
1, 261001, Note_on_c, 0, 83, 59
1, 261001, Note_off_c, 0, 86, 63
1, 261015, Control_c, 0, 64, 90
1, 261030, Control_c, 0, 64, 92
1, 261045, Control_c, 0, 64, 93
1, 261050, Note_off_c, 0, 83, 55
1, 261059, Control_c, 0, 64, 94
1, 261084, Note_on_c, 0, 92, 87
1, 261089, Control_c, 0, 64, 93
1, 261094, Note_on_c, 0, 80, 80
1, 261104, Control_c, 0, 64, 86
1, 261119, Control_c, 0, 64, 80
1, 261134, Control_c, 0, 64, 79
1, 261149, Control_c, 0, 64, 81
1, 261152, Note_off_c, 0, 80, 63
1, 261164, Control_c, 0, 64, 84
1, 261171, Note_on_c, 0, 89, 70
1, 261178, Control_c, 0, 64, 90
1, 261193, Control_c, 0, 64, 95
1, 261206, Note_off_c, 0, 92, 56
1, 261208, Control_c, 0, 64, 99
1, 261223, Control_c, 0, 64, 101
1, 261237, Control_c, 0, 64, 101
1, 261238, Note_off_c, 0, 89, 64
1, 261241, Note_on_c, 0, 86, 66
1, 261276, Note_off_c, 0, 86, 63
1, 261283, Control_c, 0, 64, 96
1, 261298, Control_c, 0, 64, 85
1, 261313, Control_c, 0, 64, 72
1, 261314, Note_on_c, 0, 77, 63
1, 261314, Note_on_c, 0, 89, 74
1, 261327, Control_c, 0, 64, 60
1, 261342, Control_c, 0, 64, 53
1, 261343, Note_off_c, 0, 77, 63
1, 261357, Control_c, 0, 64, 64
1, 261372, Control_c, 0, 64, 70
1, 261387, Control_c, 0, 64, 77
1, 261389, Note_on_c, 0, 86, 74
1, 261402, Control_c, 0, 64, 82
1, 261411, Note_off_c, 0, 89, 58
1, 261417, Control_c, 0, 64, 86
1, 261432, Control_c, 0, 64, 88
1, 261447, Control_c, 0, 64, 91
1, 261456, Note_off_c, 0, 86, 62
1, 261459, Note_on_c, 0, 83, 67
1, 261462, Control_c, 0, 64, 92
1, 261508, Note_off_c, 0, 83, 58
1, 261524, Note_on_c, 0, 74, 63
1, 261526, Note_on_c, 0, 86, 68
1, 261535, Control_c, 0, 64, 93
1, 261550, Control_c, 0, 64, 93
1, 261566, Note_off_c, 0, 74, 61
1, 261587, Note_on_c, 0, 83, 62
1, 261613, Note_off_c, 0, 86, 61
1, 261624, Control_c, 0, 64, 94
1, 261639, Control_c, 0, 64, 94
1, 261654, Control_c, 0, 64, 95
1, 261656, Note_on_c, 0, 80, 76
1, 261665, Note_off_c, 0, 83, 60
1, 261713, Control_c, 0, 64, 90
1, 261735, Control_c, 0, 64, 78
1, 261736, Note_off_c, 0, 80, 61
1, 261740, Note_on_c, 0, 83, 72
1, 261750, Control_c, 0, 64, 64
1, 261751, Note_on_c, 0, 71, 69
1, 261765, Control_c, 0, 64, 0
1, 261790, Note_off_c, 0, 71, 59
1, 261795, Control_c, 0, 64, 61
1, 261809, Control_c, 0, 64, 70
1, 261814, Note_on_c, 0, 80, 65
1, 261824, Control_c, 0, 64, 76
1, 261839, Control_c, 0, 64, 83
1, 261840, Note_off_c, 0, 83, 58
1, 261853, Control_c, 0, 64, 86
1, 261868, Control_c, 0, 64, 89
1, 261871, Note_on_c, 0, 77, 71
1, 261876, Note_off_c, 0, 80, 63
1, 261883, Control_c, 0, 64, 92
1, 261898, Control_c, 0, 64, 94
1, 261913, Control_c, 0, 64, 97
1, 261927, Control_c, 0, 64, 99
1, 261936, Note_off_c, 0, 77, 59
1, 261942, Control_c, 0, 64, 100
1, 261957, Control_c, 0, 64, 101
1, 261958, Note_on_c, 0, 80, 77
1, 261963, Note_on_c, 0, 68, 74
1, 261972, Control_c, 0, 64, 102
1, 261987, Control_c, 0, 64, 103
1, 262016, Note_off_c, 0, 68, 64
1, 262016, Control_c, 0, 64, 104
1, 262037, Note_on_c, 0, 77, 68
1, 262042, Note_off_c, 0, 80, 60
1, 262092, Control_c, 0, 64, 104
1, 262103, Note_on_c, 0, 74, 68
1, 262105, Note_off_c, 0, 77, 61
1, 262150, Control_c, 0, 64, 103
1, 262155, Note_off_c, 0, 74, 65
1, 262165, Control_c, 0, 64, 95
1, 262180, Control_c, 0, 64, 80
1, 262183, Note_on_c, 0, 77, 76
1, 262184, Note_on_c, 0, 65, 77
1, 262195, Control_c, 0, 64, 64
1, 262210, Control_c, 0, 64, 0
1, 262225, Control_c, 0, 64, 48
1, 262237, Note_off_c, 0, 65, 65
1, 262240, Control_c, 0, 64, 67
1, 262255, Note_on_c, 0, 74, 71
1, 262255, Control_c, 0, 64, 75
1, 262266, Note_off_c, 0, 77, 54
1, 262270, Control_c, 0, 64, 83
1, 262284, Control_c, 0, 64, 88
1, 262299, Control_c, 0, 64, 91
1, 262314, Control_c, 0, 64, 93
1, 262317, Note_off_c, 0, 74, 66
1, 262321, Note_on_c, 0, 71, 70
1, 262329, Control_c, 0, 64, 96
1, 262344, Control_c, 0, 64, 97
1, 262358, Control_c, 0, 64, 99
1, 262373, Control_c, 0, 64, 99
1, 262388, Control_c, 0, 64, 100
1, 262398, Note_off_c, 0, 71, 59
1, 262401, Note_on_c, 0, 74, 74
1, 262403, Note_on_c, 0, 62, 76
1, 262418, Control_c, 0, 64, 100
1, 262432, Note_off_c, 0, 62, 65
1, 262456, Note_on_c, 0, 71, 64
1, 262494, Note_off_c, 0, 74, 62
1, 262529, Control_c, 0, 64, 101
1, 262544, Control_c, 0, 64, 101
1, 262544, Note_on_c, 0, 68, 75
1, 262548, Note_off_c, 0, 71, 60
1, 262603, Control_c, 0, 64, 97
1, 262618, Control_c, 0, 64, 85
1, 262624, Note_off_c, 0, 68, 61
1, 262632, Control_c, 0, 64, 68
1, 262633, Note_on_c, 0, 71, 71
1, 262637, Note_on_c, 0, 59, 67
1, 262647, Control_c, 0, 64, 0
1, 262676, Note_off_c, 0, 59, 63
1, 262676, Control_c, 0, 64, 53
1, 262691, Control_c, 0, 64, 71
1, 262706, Control_c, 0, 64, 80
1, 262709, Note_on_c, 0, 68, 79
1, 262721, Control_c, 0, 64, 88
1, 262733, Note_off_c, 0, 71, 58
1, 262736, Control_c, 0, 64, 92
1, 262750, Control_c, 0, 64, 96
1, 262765, Control_c, 0, 64, 100
1, 262780, Note_on_c, 0, 65, 70
1, 262780, Control_c, 0, 64, 104
1, 262782, Note_off_c, 0, 68, 60
1, 262795, Control_c, 0, 64, 104
1, 262824, Control_c, 0, 64, 101
1, 262839, Control_c, 0, 64, 89
1, 262848, Note_on_c, 0, 56, 76
1, 262855, Control_c, 0, 64, 72
1, 262856, Note_on_c, 0, 71, 72
1, 262866, Note_off_c, 0, 65, 63
1, 262870, Control_c, 0, 64, 27
1, 262885, Control_c, 0, 64, 34
1, 262888, Note_off_c, 0, 56, 61
1, 262899, Control_c, 0, 64, 65
1, 262914, Control_c, 0, 64, 74
1, 262923, Note_on_c, 0, 68, 69
1, 262928, Control_c, 0, 64, 84
1, 262943, Control_c, 0, 64, 93
1, 262952, Note_off_c, 0, 71, 55
1, 262958, Control_c, 0, 64, 98
1, 262973, Control_c, 0, 64, 104
1, 262988, Control_c, 0, 64, 108
1, 262997, Note_on_c, 0, 65, 72
1, 263000, Note_off_c, 0, 68, 61
1, 263003, Control_c, 0, 64, 109
1, 263033, Control_c, 0, 64, 108
1, 263047, Control_c, 0, 64, 98
1, 263062, Control_c, 0, 64, 81
1, 263068, Note_off_c, 0, 65, 52
1, 263077, Control_c, 0, 64, 57
1, 263078, Note_on_c, 0, 55, 78
1, 263081, Note_on_c, 0, 72, 70
1, 263092, Control_c, 0, 64, 0
1, 263106, Control_c, 0, 64, 60
1, 263121, Control_c, 0, 64, 70
1, 263136, Note_off_c, 0, 55, 59
1, 263136, Control_c, 0, 64, 81
1, 263143, Note_on_c, 0, 67, 72
1, 263151, Control_c, 0, 64, 92
1, 263162, Note_off_c, 0, 72, 61
1, 263166, Control_c, 0, 64, 99
1, 263180, Control_c, 0, 64, 103
1, 263195, Control_c, 0, 64, 108
1, 263210, Control_c, 0, 64, 113
1, 263230, Note_off_c, 0, 67, 61
1, 263233, Control_c, 0, 64, 115
1, 263235, Note_on_c, 0, 63, 72
1, 263261, Note_off_c, 0, 63, 68
1, 263262, Control_c, 0, 64, 114
1, 263277, Control_c, 0, 64, 103
1, 263292, Control_c, 0, 64, 84
1, 263294, Note_on_c, 0, 43, 75
1, 263306, Control_c, 0, 64, 66
1, 263312, Note_on_c, 0, 71, 72
1, 263321, Control_c, 0, 64, 0
1, 263336, Control_c, 0, 64, 56
1, 263351, Control_c, 0, 64, 68
1, 263366, Control_c, 0, 64, 80
1, 263370, Note_off_c, 0, 43, 62
1, 263373, Note_on_c, 0, 65, 70
1, 263380, Control_c, 0, 64, 93
1, 263395, Control_c, 0, 64, 103
1, 263410, Control_c, 0, 64, 109
1, 263418, Note_off_c, 0, 71, 60
1, 263425, Control_c, 0, 64, 112
1, 263440, Control_c, 0, 64, 114
1, 263442, Note_off_c, 0, 65, 65
1, 263445, Note_on_c, 0, 62, 71
1, 263469, Control_c, 0, 64, 107
1, 263484, Control_c, 0, 64, 91
1, 263498, Control_c, 0, 64, 75
1, 263504, Note_off_c, 0, 62, 56
1, 263513, Control_c, 0, 64, 65
1, 263516, Note_on_c, 0, 48, 87
1, 263527, Note_on_c, 0, 72, 79
1, 263528, Control_c, 0, 64, 66
1, 263543, Control_c, 0, 64, 73
1, 263552, Note_off_c, 0, 48, 68
1, 263558, Control_c, 0, 64, 86
1, 263572, Control_c, 0, 64, 100
1, 263587, Control_c, 0, 64, 110
1, 263597, Note_on_c, 0, 63, 72
1, 263602, Control_c, 0, 64, 114
1, 263617, Control_c, 0, 64, 115
1, 263632, Note_off_c, 0, 72, 58
1, 263647, Control_c, 0, 64, 113
1, 263662, Control_c, 0, 64, 100
1, 263663, Note_off_c, 0, 63, 64
1, 263667, Note_on_c, 0, 60, 71
1, 263677, Control_c, 0, 64, 82
1, 263692, Control_c, 0, 64, 67
1, 263706, Control_c, 0, 64, 59
1, 263719, Note_off_c, 0, 60, 57
1, 263721, Control_c, 0, 64, 66
1, 263736, Control_c, 0, 64, 73
1, 263739, Note_on_c, 0, 43, 86
1, 263748, Note_on_c, 0, 74, 75
1, 263751, Control_c, 0, 64, 86
1, 263766, Control_c, 0, 64, 95
1, 263780, Note_on_c, 0, 72, 40
1, 263781, Control_c, 0, 64, 99
1, 263783, Note_off_c, 0, 43, 65
1, 263795, Control_c, 0, 64, 100
1, 263810, Control_c, 0, 64, 103
1, 263817, Note_on_c, 0, 65, 69
1, 263818, Note_off_c, 0, 72, 46
1, 263825, Control_c, 0, 64, 107
1, 263827, Note_off_c, 0, 74, 63
1, 263840, Control_c, 0, 64, 113
1, 263855, Control_c, 0, 64, 118
1, 263869, Control_c, 0, 64, 119
1, 263881, Note_off_c, 0, 65, 64
1, 263887, Note_on_c, 0, 62, 67
1, 263899, Control_c, 0, 64, 119
1, 263913, Control_c, 0, 64, 109
1, 263922, Note_off_c, 0, 62, 63
1, 263928, Control_c, 0, 64, 90
1, 263943, Control_c, 0, 64, 66
1, 263958, Control_c, 0, 64, 0
1, 263975, Note_on_c, 0, 75, 76
1, 263979, Note_on_c, 0, 43, 93
1, 263981, Control_c, 0, 64, 42
1, 263995, Control_c, 0, 64, 67
1, 264010, Control_c, 0, 64, 77
1, 264022, Note_off_c, 0, 43, 65
1, 264025, Control_c, 0, 64, 87
1, 264040, Control_c, 0, 64, 94
1, 264049, Note_on_c, 0, 67, 66
1, 264054, Control_c, 0, 64, 96
1, 264064, Note_off_c, 0, 75, 60
1, 264069, Control_c, 0, 64, 98
1, 264084, Control_c, 0, 64, 99
1, 264119, Note_on_c, 0, 63, 64
1, 264126, Note_off_c, 0, 67, 62
1, 264128, Control_c, 0, 64, 98
1, 264143, Control_c, 0, 64, 91
1, 264149, Note_off_c, 0, 63, 66
1, 264158, Control_c, 0, 64, 79
1, 264173, Control_c, 0, 64, 63
1, 264188, Control_c, 0, 64, 0
1, 264195, Note_on_c, 0, 31, 88
1, 264204, Note_on_c, 0, 71, 76
1, 264240, Note_off_c, 0, 31, 66
1, 264270, Note_on_c, 0, 62, 69
1, 264309, Note_off_c, 0, 71, 60
1, 264346, Note_on_c, 0, 59, 66
1, 264359, Note_off_c, 0, 62, 59
1, 264387, Note_off_c, 0, 59, 62
1, 264470, Note_on_c, 0, 36, 94
1, 264474, Note_on_c, 0, 60, 85
1, 264477, Note_on_c, 0, 63, 82
1, 264477, Note_on_c, 0, 72, 80
1, 264482, Note_on_c, 0, 67, 73
1, 264530, Control_c, 0, 64, 55
1, 264544, Control_c, 0, 64, 66
1, 264559, Control_c, 0, 64, 69
1, 264574, Control_c, 0, 64, 71
1, 264589, Control_c, 0, 64, 73
1, 264604, Control_c, 0, 64, 76
1, 264619, Control_c, 0, 64, 78
1, 264634, Control_c, 0, 64, 79
1, 264648, Control_c, 0, 64, 80
1, 264663, Control_c, 0, 64, 81
1, 264678, Control_c, 0, 64, 83
1, 264693, Control_c, 0, 64, 84
1, 264693, Note_off_c, 0, 36, 51
1, 264708, Control_c, 0, 64, 85
1, 264794, Note_off_c, 0, 60, 57
1, 264804, Control_c, 0, 64, 84
1, 264806, Note_off_c, 0, 63, 54
1, 264818, Control_c, 0, 64, 80
1, 264824, Note_off_c, 0, 67, 49
1, 264833, Control_c, 0, 64, 71
1, 264848, Control_c, 0, 64, 47
1, 264851, Note_off_c, 0, 72, 60
1, 264863, Control_c, 0, 64, 0
1, 264961, Note_on_c, 0, 36, 64
1, 265029, Note_off_c, 0, 36, 59
1, 265041, Note_on_c, 0, 35, 71
1, 265127, Note_on_c, 0, 36, 65
1, 265137, Note_off_c, 0, 35, 60
1, 265182, Note_off_c, 0, 36, 63
1, 265193, Note_on_c, 0, 38, 74
1, 265197, Note_on_c, 0, 84, 82
1, 265200, Note_on_c, 0, 75, 67
1, 265200, Note_on_c, 0, 72, 69
1, 265208, Note_on_c, 0, 79, 58
1, 265240, Note_off_c, 0, 38, 55
1, 265277, Note_on_c, 0, 36, 69
1, 265343, Note_on_c, 0, 38, 71
1, 265350, Note_off_c, 0, 36, 63
1, 265408, Note_off_c, 0, 38, 63
1, 265415, Note_on_c, 0, 39, 74
1, 265487, Note_off_c, 0, 79, 50
1, 265502, Note_off_c, 0, 39, 63
1, 265503, Note_on_c, 0, 38, 71
1, 265525, Note_off_c, 0, 75, 55
1, 265526, Note_off_c, 0, 84, 54
1, 265555, Note_off_c, 0, 72, 61
1, 265573, Note_on_c, 0, 39, 70
1, 265600, Note_off_c, 0, 38, 61
1, 265653, Note_on_c, 0, 41, 82
1, 265653, Note_on_c, 0, 84, 78
1, 265653, Note_off_c, 0, 39, 63
1, 265656, Note_on_c, 0, 75, 69
1, 265660, Note_on_c, 0, 72, 71
1, 265668, Note_on_c, 0, 79, 63
1, 265727, Note_on_c, 0, 39, 67
1, 265735, Note_off_c, 0, 41, 63
1, 265793, Note_on_c, 0, 41, 69
1, 265810, Note_off_c, 0, 39, 62
1, 265877, Note_on_c, 0, 43, 92
1, 265889, Note_off_c, 0, 41, 66
1, 265896, Note_off_c, 0, 79, 55
1, 265899, Note_off_c, 0, 84, 57
1, 265908, Note_off_c, 0, 75, 58
1, 265923, Note_off_c, 0, 43, 62
1, 265929, Note_off_c, 0, 72, 52
1, 266123, Note_on_c, 0, 36, 82
1, 266130, Note_on_c, 0, 84, 76
1, 266131, Note_on_c, 0, 72, 69
1, 266133, Note_on_c, 0, 75, 65
1, 266135, Note_on_c, 0, 79, 60
1, 266164, Note_off_c, 0, 36, 63
1, 266340, Note_off_c, 0, 75, 57
1, 266342, Note_off_c, 0, 84, 56
1, 266354, Note_off_c, 0, 79, 57
1, 266362, Note_on_c, 0, 43, 54
1, 266395, Note_off_c, 0, 72, 61
1, 266431, Note_off_c, 0, 43, 63
1, 266433, Note_on_c, 0, 42, 75
1, 266512, Note_on_c, 0, 43, 68
1, 266524, Note_off_c, 0, 42, 62
1, 266577, Note_on_c, 0, 83, 77
1, 266586, Note_on_c, 0, 71, 68
1, 266586, Note_on_c, 0, 79, 61
1, 266588, Note_on_c, 0, 74, 59
1, 266592, Note_on_c, 0, 45, 76
1, 266592, Note_off_c, 0, 43, 62
1, 266671, Note_on_c, 0, 43, 78
1, 266673, Note_off_c, 0, 45, 65
1, 266745, Note_on_c, 0, 45, 82
1, 266775, Note_off_c, 0, 43, 60
1, 266825, Note_on_c, 0, 47, 86
1, 266826, Note_off_c, 0, 45, 64
1, 266866, Note_off_c, 0, 79, 49
1, 266882, Note_off_c, 0, 74, 49
1, 266882, Note_off_c, 0, 83, 47
1, 266894, Note_off_c, 0, 47, 62
1, 266897, Note_on_c, 0, 45, 75
1, 266911, Note_off_c, 0, 71, 53
1, 266979, Note_on_c, 0, 47, 83
1, 267000, Note_off_c, 0, 45, 57
1, 267054, Note_off_c, 0, 47, 65
1, 267057, Note_on_c, 0, 71, 73
1, 267057, Note_on_c, 0, 48, 86
1, 267057, Note_on_c, 0, 83, 77
1, 267060, Note_on_c, 0, 74, 64
1, 267065, Control_c, 0, 64, 10
1, 267068, Note_on_c, 0, 79, 61
1, 267079, Control_c, 0, 64, 13
1, 267128, Note_on_c, 0, 47, 83
1, 267128, Note_off_c, 0, 48, 60
1, 267168, Control_c, 0, 64, 16
1, 267207, Note_on_c, 0, 48, 91
1, 267214, Note_off_c, 0, 47, 62
1, 267227, Control_c, 0, 64, 18
1, 267267, Note_off_c, 0, 48, 65
1, 267275, Note_off_c, 0, 83, 52
1, 267286, Note_off_c, 0, 79, 56
1, 267287, Control_c, 0, 64, 16
1, 267290, Note_on_c, 0, 50, 92
1, 267293, Note_off_c, 0, 74, 58
1, 267299, Note_off_c, 0, 71, 52
1, 267331, Control_c, 0, 64, 13
1, 267337, Note_off_c, 0, 50, 62
1, 267346, Control_c, 0, 64, 10
1, 267361, Control_c, 0, 64, 0
1, 267535, Note_on_c, 0, 43, 81
1, 267539, Note_on_c, 0, 83, 76
1, 267546, Note_on_c, 0, 74, 58
1, 267546, Note_on_c, 0, 71, 68
1, 267546, Note_on_c, 0, 79, 60
1, 267578, Note_off_c, 0, 43, 60
1, 267670, Note_off_c, 0, 83, 58
1, 267680, Note_off_c, 0, 74, 63
1, 267683, Note_off_c, 0, 79, 60
1, 267748, Note_off_c, 0, 71, 60
1, 267764, Note_on_c, 0, 48, 71
1, 267845, Note_on_c, 0, 47, 75
1, 267847, Note_off_c, 0, 48, 65
1, 267916, Note_on_c, 0, 48, 70
1, 267948, Note_off_c, 0, 47, 63
1, 267987, Note_on_c, 0, 82, 81
1, 267991, Note_on_c, 0, 70, 70
1, 267996, Note_on_c, 0, 72, 46
1, 267999, Note_off_c, 0, 48, 66
1, 268001, Note_on_c, 0, 50, 79
1, 268002, Note_on_c, 0, 79, 43
1, 268047, Note_off_c, 0, 72, 0
1, 268047, Note_on_c, 0, 72, 8
1, 268077, Note_on_c, 0, 48, 79
1, 268081, Note_off_c, 0, 50, 64
1, 268145, Note_on_c, 0, 50, 78
1, 268169, Control_c, 0, 64, 10
1, 268171, Note_off_c, 0, 48, 63
1, 268184, Control_c, 0, 64, 16
1, 268199, Control_c, 0, 64, 18
1, 268214, Control_c, 0, 64, 20
1, 268226, Note_on_c, 0, 52, 84
1, 268226, Note_off_c, 0, 50, 64
1, 268229, Note_off_c, 0, 82, 39
1, 268229, Control_c, 0, 64, 23
1, 268243, Control_c, 0, 64, 26
1, 268258, Control_c, 0, 64, 28
1, 268287, Note_on_c, 0, 50, 74
1, 268288, Control_c, 0, 64, 29
1, 268292, Note_off_c, 0, 52, 65
1, 268318, Note_off_c, 0, 70, 48
1, 268318, Control_c, 0, 64, 31
1, 268333, Control_c, 0, 64, 33
1, 268348, Control_c, 0, 64, 34
1, 268370, Note_on_c, 0, 52, 85
1, 268382, Note_off_c, 0, 72, 34
1, 268391, Note_off_c, 0, 50, 59
1, 268423, Note_off_c, 0, 79, 0
1, 268432, Note_on_c, 0, 72, 51
1, 268436, Note_on_c, 0, 70, 79
1, 268436, Note_on_c, 0, 82, 82
1, 268437, Control_c, 0, 64, 33
1, 268438, Note_on_c, 0, 79, 31
1, 268445, Note_off_c, 0, 52, 66
1, 268448, Note_on_c, 0, 53, 86
1, 268452, Control_c, 0, 64, 32
1, 268489, Control_c, 0, 64, 33
1, 268525, Note_on_c, 0, 52, 82
1, 268525, Note_off_c, 0, 53, 63
1, 268533, Control_c, 0, 64, 31
1, 268578, Control_c, 0, 64, 32
1, 268595, Note_on_c, 0, 53, 88
1, 268604, Note_off_c, 0, 52, 63
1, 268622, Control_c, 0, 64, 34
1, 268637, Control_c, 0, 64, 35
1, 268652, Control_c, 0, 64, 37
1, 268661, Note_off_c, 0, 53, 64
1, 268667, Note_off_c, 0, 82, 52
1, 268667, Control_c, 0, 64, 39
1, 268679, Note_on_c, 0, 55, 94
1, 268682, Control_c, 0, 64, 41
1, 268697, Control_c, 0, 64, 42
1, 268704, Note_off_c, 0, 70, 50
1, 268711, Control_c, 0, 64, 43
1, 268726, Note_off_c, 0, 55, 63
1, 268741, Control_c, 0, 64, 44
1, 268746, Note_off_c, 0, 72, 38
1, 268756, Control_c, 0, 64, 45
1, 268771, Control_c, 0, 64, 46
1, 268786, Control_c, 0, 64, 45
1, 268800, Control_c, 0, 64, 45
1, 268815, Control_c, 0, 64, 44
1, 268819, Note_off_c, 0, 79, 0
1, 268844, Control_c, 0, 64, 44
1, 268855, Poly_aftertouch_c, 0, 79, 127
1, 268859, Control_c, 0, 64, 43
1, 268874, Control_c, 0, 64, 41
1, 268888, Control_c, 0, 64, 39
1, 268895, Poly_aftertouch_c, 0, 79, 0
1, 268903, Control_c, 0, 64, 37
1, 268917, Control_c, 0, 64, 33
1, 268922, Note_on_c, 0, 72, 63
1, 268922, Note_on_c, 0, 82, 81
1, 268927, Note_on_c, 0, 48, 80
1, 268928, Note_on_c, 0, 70, 76
1, 268932, Poly_aftertouch_c, 0, 79, 127
1, 268932, Control_c, 0, 64, 26
1, 268947, Control_c, 0, 64, 10
1, 268962, Control_c, 0, 64, 0
1, 268968, Note_off_c, 0, 48, 68
1, 269138, Note_on_c, 0, 53, 79
1, 269179, Note_off_c, 0, 72, 61
1, 269179, Note_off_c, 0, 82, 58
1, 269185, Note_off_c, 0, 70, 63
1, 269187, Poly_aftertouch_c, 0, 79, 0
1, 269214, Note_off_c, 0, 53, 66
1, 269221, Note_on_c, 0, 52, 71
1, 269286, Note_on_c, 0, 53, 72
1, 269316, Note_off_c, 0, 52, 64
1, 269362, Note_off_c, 0, 53, 66
1, 269365, Note_on_c, 0, 55, 78
1, 269375, Note_on_c, 0, 81, 83
1, 269380, Note_on_c, 0, 69, 71
1, 269381, Note_on_c, 0, 72, 63
1, 269390, Note_on_c, 0, 77, 65
1, 269415, Control_c, 0, 64, 13
1, 269430, Control_c, 0, 64, 18
1, 269447, Note_off_c, 0, 55, 64
1, 269449, Note_on_c, 0, 53, 77
1, 269459, Control_c, 0, 64, 20
1, 269474, Control_c, 0, 64, 21
1, 269504, Control_c, 0, 64, 23
1, 269519, Note_on_c, 0, 55, 80
1, 269533, Note_off_c, 0, 53, 59
1, 269534, Control_c, 0, 64, 24
1, 269592, Note_on_c, 0, 57, 80
1, 269596, Note_off_c, 0, 55, 64
1, 269622, Control_c, 0, 64, 23
1, 269637, Control_c, 0, 64, 24
1, 269653, Note_off_c, 0, 57, 46
1, 269656, Note_off_c, 0, 77, 47
1, 269660, Note_on_c, 0, 55, 70
1, 269674, Note_off_c, 0, 72, 53
1, 269681, Control_c, 0, 64, 21
1, 269692, Note_off_c, 0, 69, 48
1, 269696, Control_c, 0, 64, 18
1, 269698, Note_off_c, 0, 81, 31
1, 269740, Note_on_c, 0, 57, 71
1, 269742, Note_off_c, 0, 55, 65
1, 269755, Control_c, 0, 64, 20
1, 269770, Control_c, 0, 64, 21
1, 269800, Control_c, 0, 64, 23
1, 269805, Note_off_c, 0, 57, 61
1, 269806, Note_on_c, 0, 58, 81
1, 269814, Note_on_c, 0, 81, 84
1, 269818, Note_on_c, 0, 69, 75
1, 269821, Note_on_c, 0, 72, 70
1, 269824, Note_on_c, 0, 77, 68
1, 269829, Control_c, 0, 64, 24
1, 269844, Control_c, 0, 64, 25
1, 269874, Control_c, 0, 64, 26
1, 269880, Note_off_c, 0, 58, 65
1, 269889, Note_on_c, 0, 57, 77
1, 269904, Control_c, 0, 64, 27
1, 269919, Control_c, 0, 64, 28
1, 269963, Note_on_c, 0, 58, 89
1, 269970, Note_off_c, 0, 57, 63
1, 269985, Control_c, 0, 64, 29
1, 270000, Control_c, 0, 64, 28
1, 270029, Control_c, 0, 64, 27
1, 270040, Note_on_c, 0, 60, 96
1, 270042, Note_off_c, 0, 81, 54
1, 270045, Control_c, 0, 64, 26
1, 270053, Note_off_c, 0, 69, 56
1, 270055, Note_off_c, 0, 72, 62
1, 270059, Note_off_c, 0, 58, 64
1, 270060, Control_c, 0, 64, 24
1, 270064, Note_off_c, 0, 77, 58
1, 270075, Control_c, 0, 64, 23
1, 270081, Note_off_c, 0, 60, 65
1, 270089, Control_c, 0, 64, 26
1, 270149, Control_c, 0, 64, 25
1, 270163, Control_c, 0, 64, 24
1, 270267, Control_c, 0, 64, 25
1, 270282, Note_on_c, 0, 53, 87
1, 270285, Note_on_c, 0, 81, 86
1, 270288, Note_on_c, 0, 69, 76
1, 270291, Note_on_c, 0, 72, 69
1, 270291, Note_on_c, 0, 77, 67
1, 270312, Control_c, 0, 64, 26
1, 270315, Note_off_c, 0, 53, 71
1, 270327, Control_c, 0, 64, 27
1, 270342, Control_c, 0, 64, 28
1, 270356, Control_c, 0, 64, 29
1, 270371, Control_c, 0, 64, 28
1, 270416, Control_c, 0, 64, 30
1, 270430, Control_c, 0, 64, 32
1, 270445, Control_c, 0, 64, 34
1, 270447, Note_off_c, 0, 81, 56
1, 270460, Control_c, 0, 64, 35
1, 270475, Control_c, 0, 64, 36
1, 270480, Note_off_c, 0, 77, 60
1, 270489, Control_c, 0, 64, 38
1, 270492, Note_off_c, 0, 69, 65
1, 270493, Note_off_c, 0, 72, 62
1, 270504, Control_c, 0, 64, 38
1, 270505, Note_on_c, 0, 57, 79
1, 270519, Control_c, 0, 64, 39
1, 270549, Control_c, 0, 64, 40
1, 270563, Control_c, 0, 64, 43
1, 270578, Control_c, 0, 64, 45
1, 270583, Note_off_c, 0, 57, 61
1, 270586, Note_on_c, 0, 55, 69
1, 270593, Control_c, 0, 64, 47
1, 270622, Control_c, 0, 64, 46
1, 270661, Note_on_c, 0, 57, 67
1, 270667, Control_c, 0, 64, 46
1, 270719, Control_c, 0, 64, 45
1, 270732, Note_on_c, 0, 75, 69
1, 270735, Note_on_c, 0, 78, 79
1, 270735, Note_on_c, 0, 66, 76
1, 270738, Note_on_c, 0, 72, 71
1, 270738, Note_off_c, 0, 55, 37
1, 270748, Note_on_c, 0, 59, 80
1, 270752, Note_off_c, 0, 57, 63
1, 270808, Control_c, 0, 64, 45
1, 270822, Control_c, 0, 64, 44
1, 270837, Note_on_c, 0, 57, 82
1, 270837, Note_off_c, 0, 59, 63
1, 270883, Control_c, 0, 64, 44
1, 270908, Note_on_c, 0, 59, 80
1, 270922, Note_off_c, 0, 57, 59
1, 270957, Control_c, 0, 64, 44
1, 270971, Note_off_c, 0, 59, 62
1, 270982, Note_on_c, 0, 60, 78
1, 270986, Control_c, 0, 64, 44
1, 271014, Note_off_c, 0, 66, 54
1, 271028, Note_off_c, 0, 72, 52
1, 271034, Note_off_c, 0, 78, 50
1, 271045, Control_c, 0, 64, 43
1, 271054, Note_off_c, 0, 60, 61
1, 271057, Note_on_c, 0, 59, 80
1, 271060, Control_c, 0, 64, 43
1, 271075, Control_c, 0, 64, 42
1, 271123, Note_off_c, 0, 75, 55
1, 271126, Note_on_c, 0, 60, 79
1, 271165, Control_c, 0, 64, 43
1, 271180, Note_on_c, 0, 78, 84
1, 271180, Note_on_c, 0, 66, 83
1, 271180, Note_off_c, 0, 59, 29
1, 271183, Note_on_c, 0, 72, 69
1, 271195, Note_off_c, 0, 60, 62
1, 271195, Control_c, 0, 64, 42
1, 271202, Note_on_c, 0, 62, 85
1, 271209, Control_c, 0, 64, 42
1, 271254, Control_c, 0, 64, 41
1, 271260, Poly_aftertouch_c, 0, 75, 127
1, 271269, Control_c, 0, 64, 40
1, 271278, Note_on_c, 0, 60, 83
1, 271281, Note_off_c, 0, 62, 62
1, 271284, Control_c, 0, 64, 39
1, 271299, Control_c, 0, 64, 39
1, 271325, Note_off_c, 0, 60, 65
1, 271328, Control_c, 0, 64, 39
1, 271335, Note_on_c, 0, 62, 80
1, 271385, Note_off_c, 0, 66, 60
1, 271402, Control_c, 0, 64, 39
1, 271417, Control_c, 0, 64, 38
1, 271418, Note_on_c, 0, 63, 96
1, 271424, Note_off_c, 0, 72, 61
1, 271424, Note_off_c, 0, 78, 56
1, 271429, Note_off_c, 0, 62, 64
1, 271431, Control_c, 0, 64, 36
1, 271442, Poly_aftertouch_c, 0, 75, 0
1, 271446, Control_c, 0, 64, 33
1, 271463, Note_off_c, 0, 63, 67
1, 271469, Control_c, 0, 64, 29
1, 271484, Control_c, 0, 64, 26
1, 271513, Control_c, 0, 64, 27
1, 271528, Control_c, 0, 64, 28
1, 271632, Control_c, 0, 64, 29
1, 271648, Control_c, 0, 64, 32
1, 271654, Note_on_c, 0, 57, 83
1, 271663, Control_c, 0, 64, 34
1, 271663, Note_on_c, 0, 66, 92
1, 271666, Note_on_c, 0, 72, 75
1, 271666, Note_on_c, 0, 78, 85
1, 271677, Note_off_c, 0, 57, 69
1, 271677, Control_c, 0, 64, 36
1, 271684, Note_off_c, 0, 66, 71
1, 271687, Note_off_c, 0, 72, 71
1, 271739, Note_off_c, 0, 78, 59
1, 271782, Control_c, 0, 64, 35
1, 271797, Control_c, 0, 64, 34
1, 271826, Control_c, 0, 64, 34
1, 271841, Control_c, 0, 64, 32
1, 271856, Control_c, 0, 64, 28
1, 271861, Note_on_c, 0, 59, 75
1, 271870, Control_c, 0, 64, 16
1, 271884, Note_on_c, 0, 67, 87
1, 271885, Note_on_c, 0, 74, 81
1, 271885, Control_c, 0, 64, 0
1, 271888, Note_on_c, 0, 79, 85
1, 271952, Note_on_c, 0, 57, 68
1, 271952, Note_off_c, 0, 59, 62
1, 272039, Note_on_c, 0, 59, 70
1, 272057, Note_off_c, 0, 57, 61
1, 272062, Control_c, 0, 64, 16
1, 272071, Note_off_c, 0, 67, 56
1, 272098, Note_off_c, 0, 74, 63
1, 272098, Note_off_c, 0, 79, 61
1, 272107, Control_c, 0, 64, 20
1, 272110, Note_off_c, 0, 59, 64
1, 272110, Note_on_c, 0, 60, 81
1, 272122, Control_c, 0, 64, 23
1, 272136, Control_c, 0, 64, 24
1, 272151, Control_c, 0, 64, 23
1, 272166, Control_c, 0, 64, 21
1, 272190, Note_off_c, 0, 60, 63
1, 272192, Note_on_c, 0, 59, 77
1, 272218, Control_c, 0, 64, 20
1, 272262, Control_c, 0, 64, 21
1, 272280, Note_on_c, 0, 60, 80
1, 272307, Control_c, 0, 64, 18
1, 272312, Note_off_c, 0, 59, 57
1, 272322, Control_c, 0, 64, 10
1, 272336, Control_c, 0, 64, 0
1, 272355, Note_off_c, 0, 60, 62
1, 272366, Note_on_c, 0, 74, 76
1, 272369, Note_on_c, 0, 71, 95
1, 272369, Note_on_c, 0, 83, 91
1, 272371, Note_on_c, 0, 62, 85
1, 272377, Note_on_c, 0, 80, 82
1, 272424, Note_off_c, 0, 62, 62
1, 272458, Note_on_c, 0, 60, 73
1, 272534, Note_on_c, 0, 62, 75
1, 272550, Note_off_c, 0, 60, 57
1, 272608, Note_off_c, 0, 62, 63
1, 272610, Note_on_c, 0, 63, 80
1, 272691, Note_off_c, 0, 63, 63
1, 272699, Note_on_c, 0, 62, 77
1, 272738, Control_c, 0, 64, 10
1, 272752, Control_c, 0, 64, 16
1, 272762, Note_on_c, 0, 63, 74
1, 272771, Note_off_c, 0, 62, 59
1, 272797, Control_c, 0, 64, 13
1, 272832, Note_off_c, 0, 63, 65
1, 272841, Note_on_c, 0, 65, 80
1, 272841, Control_c, 0, 64, 16
1, 272871, Control_c, 0, 64, 18
1, 272885, Control_c, 0, 64, 20
1, 272900, Control_c, 0, 64, 21
1, 272903, Note_on_c, 0, 63, 73
1, 272903, Note_off_c, 0, 65, 64
1, 272915, Control_c, 0, 64, 23
1, 272930, Control_c, 0, 64, 24
1, 272983, Note_off_c, 0, 63, 65
1, 272997, Note_on_c, 0, 65, 81
1, 272997, Control_c, 0, 64, 25
1, 273041, Control_c, 0, 64, 26
1, 273045, Note_off_c, 0, 65, 60
1, 273046, Note_off_c, 0, 74, 39
1, 273046, Note_off_c, 0, 71, 54
1, 273050, Note_off_c, 0, 80, 31
1, 273068, Note_on_c, 0, 67, 78
1, 273071, Control_c, 0, 64, 27
1, 273115, Control_c, 0, 64, 26
1, 273125, Note_off_c, 0, 83, 35
1, 273134, Note_off_c, 0, 67, 63
1, 273145, Control_c, 0, 64, 27
1, 273148, Note_on_c, 0, 65, 75
1, 273159, Control_c, 0, 64, 28
1, 273189, Control_c, 0, 64, 27
1, 273219, Control_c, 0, 64, 26
1, 273222, Note_on_c, 0, 67, 80
1, 273230, Note_off_c, 0, 65, 65
1, 273286, Note_off_c, 0, 67, 62
1, 273291, Note_on_c, 0, 68, 83
1, 273323, Control_c, 0, 64, 27
1, 273338, Control_c, 0, 64, 29
1, 273350, Note_on_c, 0, 70, 73
1, 273353, Note_off_c, 0, 68, 64
1, 273353, Control_c, 0, 64, 30
1, 273433, Note_off_c, 0, 70, 61
1, 273434, Note_on_c, 0, 68, 70
1, 273471, Control_c, 0, 64, 31
1, 273486, Control_c, 0, 64, 32
1, 273502, Note_off_c, 0, 68, 63
1, 273515, Note_on_c, 0, 67, 62
1, 273582, Note_off_c, 0, 67, 63
1, 273585, Note_on_c, 0, 68, 82
1, 273604, Control_c, 0, 64, 31
1, 273633, Control_c, 0, 64, 32
1, 273648, Note_off_c, 0, 68, 64
1, 273657, Note_on_c, 0, 67, 69
1, 273678, Control_c, 0, 64, 33
1, 273730, Control_c, 0, 64, 34
1, 273743, Note_on_c, 0, 65, 73
1, 273749, Note_off_c, 0, 67, 62
1, 273760, Control_c, 0, 64, 33
1, 273791, Note_off_c, 0, 65, 65
1, 273812, Note_on_c, 0, 67, 72
1, 273877, Note_off_c, 0, 67, 63
1, 273886, Note_on_c, 0, 65, 76
1, 273948, Note_on_c, 0, 63, 78
1, 273951, Note_off_c, 0, 65, 65
1, 273967, Control_c, 0, 64, 34
1, 273982, Control_c, 0, 64, 34
1, 274017, Note_off_c, 0, 63, 63
1, 274028, Note_on_c, 0, 65, 80
1, 274083, Note_on_c, 0, 63, 69
1, 274102, Note_off_c, 0, 65, 60
1, 274131, Control_c, 0, 64, 34
1, 274161, Control_c, 0, 64, 33
1, 274174, Note_on_c, 0, 83, 83
1, 274176, Control_c, 0, 64, 32
1, 274180, Note_on_c, 0, 62, 74
1, 274180, Note_on_c, 0, 71, 78
1, 274181, Note_on_c, 0, 74, 76
1, 274181, Note_off_c, 0, 63, 64
1, 274182, Note_on_c, 0, 80, 74
1, 274205, Control_c, 0, 64, 31
1, 274220, Control_c, 0, 64, 32
1, 274235, Control_c, 0, 64, 33
1, 274256, Note_off_c, 0, 62, 60
1, 274265, Note_on_c, 0, 63, 79
1, 274310, Control_c, 0, 64, 34
1, 274324, Note_off_c, 0, 63, 64
1, 274334, Note_on_c, 0, 62, 63
1, 274339, Control_c, 0, 64, 35
1, 274354, Control_c, 0, 64, 37
1, 274369, Control_c, 0, 64, 39
1, 274389, Note_on_c, 0, 60, 73
1, 274399, Control_c, 0, 64, 38
1, 274401, Note_off_c, 0, 62, 61
1, 274428, Control_c, 0, 64, 38
1, 274458, Note_off_c, 0, 60, 63
1, 274481, Note_on_c, 0, 62, 79
1, 274509, Control_c, 0, 64, 38
1, 274548, Note_off_c, 0, 62, 60
1, 274554, Control_c, 0, 64, 39
1, 274557, Note_on_c, 0, 60, 80
1, 274617, Note_off_c, 0, 60, 61
1, 274627, Note_on_c, 0, 59, 68
1, 274628, Control_c, 0, 64, 39
1, 274657, Control_c, 0, 64, 40
1, 274672, Control_c, 0, 64, 41
1, 274681, Note_off_c, 0, 59, 64
1, 274687, Control_c, 0, 64, 43
1, 274691, Note_on_c, 0, 60, 76
1, 274702, Control_c, 0, 64, 44
1, 274717, Control_c, 0, 64, 44
1, 274746, Control_c, 0, 64, 45
1, 274765, Note_off_c, 0, 60, 61
1, 274769, Note_on_c, 0, 59, 74
1, 274792, Note_off_c, 0, 74, 62
1, 274795, Note_off_c, 0, 80, 31
1, 274822, Note_off_c, 0, 71, 53
1, 274824, Note_off_c, 0, 59, 63
1, 274827, Note_off_c, 0, 83, 58
1, 274831, Note_on_c, 0, 56, 72
1, 274851, Control_c, 0, 64, 46
1, 274906, Note_on_c, 0, 58, 83
1, 274906, Note_off_c, 0, 56, 64
1, 274925, Control_c, 0, 64, 46
1, 274940, Control_c, 0, 64, 47
1, 274984, Control_c, 0, 64, 47
1, 274991, Note_on_c, 0, 56, 72
1, 274995, Note_off_c, 0, 58, 64
1, 275028, Control_c, 0, 64, 46
1, 275043, Control_c, 0, 64, 44
1, 275058, Control_c, 0, 64, 41
1, 275073, Control_c, 0, 64, 35
1, 275077, Note_on_c, 0, 55, 74
1, 275079, Note_on_c, 0, 84, 92
1, 275079, Note_on_c, 0, 75, 91
1, 275080, Note_on_c, 0, 72, 94
1, 275083, Note_off_c, 0, 56, 63
1, 275086, Note_on_c, 0, 79, 81
1, 275088, Control_c, 0, 64, 30
1, 275102, Control_c, 0, 64, 25
1, 275117, Control_c, 0, 64, 26
1, 275132, Control_c, 0, 64, 34
1, 275146, Note_off_c, 0, 55, 64
1, 275147, Control_c, 0, 64, 38
1, 275162, Control_c, 0, 64, 39
1, 275168, Note_on_c, 0, 56, 75
1, 275177, Control_c, 0, 64, 37
1, 275192, Control_c, 0, 64, 35
1, 275228, Control_c, 0, 64, 36
1, 275243, Control_c, 0, 64, 41
1, 275249, Note_off_c, 0, 56, 64
1, 275258, Control_c, 0, 64, 44
1, 275260, Note_on_c, 0, 55, 66
1, 275273, Control_c, 0, 64, 45
1, 275323, Note_on_c, 0, 53, 70
1, 275337, Note_off_c, 0, 55, 63
1, 275347, Control_c, 0, 64, 44
1, 275362, Control_c, 0, 64, 43
1, 275374, Note_off_c, 0, 53, 65
1, 275377, Control_c, 0, 64, 42
1, 275392, Control_c, 0, 64, 41
1, 275396, Note_on_c, 0, 55, 67
1, 275466, Control_c, 0, 64, 42
1, 275467, Note_off_c, 0, 55, 65
1, 275471, Note_on_c, 0, 53, 75
1, 275480, Control_c, 0, 64, 43
1, 275520, Note_off_c, 0, 53, 65
1, 275526, Note_on_c, 0, 51, 67
1, 275536, Note_off_c, 0, 84, 60
1, 275554, Control_c, 0, 64, 44
1, 275571, Note_off_c, 0, 79, 60
1, 275586, Note_off_c, 0, 51, 61
1, 275592, Note_off_c, 0, 72, 59
1, 275593, Note_off_c, 0, 75, 62
1, 275594, Note_on_c, 0, 53, 70
1, 275599, Control_c, 0, 64, 44
1, 275613, Control_c, 0, 64, 45
1, 275642, Control_c, 0, 64, 45
1, 275653, Note_on_c, 0, 51, 70
1, 275660, Note_off_c, 0, 53, 65
1, 275687, Control_c, 0, 64, 46
1, 275702, Control_c, 0, 64, 46
1, 275728, Note_off_c, 0, 51, 62
1, 275737, Note_on_c, 0, 50, 72
1, 275791, Control_c, 0, 64, 46
1, 275802, Note_off_c, 0, 50, 61
1, 275812, Note_on_c, 0, 51, 78
1, 275820, Control_c, 0, 64, 45
1, 275835, Control_c, 0, 64, 45
1, 275865, Control_c, 0, 64, 44
1, 275875, Note_off_c, 0, 51, 62
1, 275881, Note_on_c, 0, 50, 65
1, 275924, Control_c, 0, 64, 44
1, 275931, Note_on_c, 0, 60, 69
1, 275943, Note_on_c, 0, 48, 83
1, 275961, Control_c, 0, 64, 42
1, 275966, Note_off_c, 0, 50, 64
1, 275974, Note_off_c, 0, 48, 69
1, 275976, Control_c, 0, 64, 39
1, 275991, Control_c, 0, 64, 38
1, 276003, Note_off_c, 0, 60, 60
1, 276025, Note_on_c, 0, 59, 64
1, 276050, Control_c, 0, 64, 37
1, 276065, Control_c, 0, 64, 35
1, 276092, Note_off_c, 0, 59, 61
1, 276095, Control_c, 0, 64, 34
1, 276101, Note_on_c, 0, 60, 72
1, 276109, Control_c, 0, 64, 33
1, 276124, Control_c, 0, 64, 29
1, 276139, Control_c, 0, 64, 24
1, 276154, Control_c, 0, 64, 23
1, 276176, Note_on_c, 0, 62, 77
1, 276181, Note_off_c, 0, 60, 60
1, 276182, Note_on_c, 0, 48, 73
1, 276191, Note_on_c, 0, 43, 67
1, 276194, Note_on_c, 0, 36, 59
1, 276198, Note_on_c, 0, 39, 55
1, 276198, Control_c, 0, 64, 21
1, 276227, Control_c, 0, 64, 23
1, 276233, Note_off_c, 0, 62, 62
1, 276242, Control_c, 0, 64, 25
1, 276264, Note_on_c, 0, 60, 72
1, 276272, Control_c, 0, 64, 26
1, 276301, Control_c, 0, 64, 25
1, 276337, Note_off_c, 0, 60, 61
1, 276341, Note_on_c, 0, 62, 74
1, 276360, Control_c, 0, 64, 24
1, 276390, Control_c, 0, 64, 25
1, 276405, Control_c, 0, 64, 26
1, 276410, Note_on_c, 0, 63, 74
1, 276420, Note_off_c, 0, 62, 61
1, 276421, Control_c, 0, 64, 27
1, 276436, Control_c, 0, 64, 28
1, 276465, Control_c, 0, 64, 29
1, 276471, Note_off_c, 0, 63, 65
1, 276480, Control_c, 0, 64, 31
1, 276486, Note_on_c, 0, 62, 69
1, 276495, Control_c, 0, 64, 33
1, 276503, Note_off_c, 0, 39, 58
1, 276509, Note_off_c, 0, 43, 57
1, 276510, Control_c, 0, 64, 34
1, 276518, Note_off_c, 0, 48, 63
1, 276521, Note_off_c, 0, 36, 61
1, 276524, Control_c, 0, 64, 33
1, 276554, Control_c, 0, 64, 32
1, 276569, Note_on_c, 0, 63, 75
1, 276569, Control_c, 0, 64, 33
1, 276584, Control_c, 0, 64, 34
1, 276596, Note_off_c, 0, 62, 57
1, 276599, Control_c, 0, 64, 35
1, 276626, Note_on_c, 0, 48, 75
1, 276627, Note_on_c, 0, 43, 63
1, 276634, Note_on_c, 0, 39, 59
1, 276641, Note_on_c, 0, 36, 61
1, 276653, Note_on_c, 0, 65, 71
1, 276656, Note_off_c, 0, 63, 64
1, 276729, Note_on_c, 0, 63, 70
1, 276729, Note_off_c, 0, 65, 65
1, 276803, Note_on_c, 0, 65, 75
1, 276808, Note_off_c, 0, 63, 64
1, 276814, Control_c, 0, 64, 36
1, 276843, Control_c, 0, 64, 36
1, 276858, Control_c, 0, 64, 37
1, 276877, Note_off_c, 0, 36, 59
1, 276883, Note_on_c, 0, 67, 87
1, 276885, Note_off_c, 0, 48, 61
1, 276891, Note_off_c, 0, 43, 58
1, 276894, Note_off_c, 0, 65, 65
1, 276895, Note_off_c, 0, 39, 59
1, 276903, Control_c, 0, 64, 36
1, 276906, Note_off_c, 0, 67, 69
1, 276932, Control_c, 0, 64, 35
1, 277006, Control_c, 0, 64, 36
1, 277138, Note_on_c, 0, 48, 73
1, 277140, Note_on_c, 0, 60, 76
1, 277140, Control_c, 0, 64, 36
1, 277141, Note_on_c, 0, 43, 60
1, 277144, Note_on_c, 0, 39, 55
1, 277147, Note_on_c, 0, 36, 53
1, 277164, Note_off_c, 0, 60, 67
1, 277170, Control_c, 0, 64, 38
1, 277199, Control_c, 0, 64, 38
1, 277214, Control_c, 0, 64, 38
1, 277292, Note_off_c, 0, 43, 58
1, 277301, Note_off_c, 0, 48, 62
1, 277331, Note_off_c, 0, 36, 63
1, 277332, Note_off_c, 0, 39, 62
1, 277361, Note_on_c, 0, 67, 75
1, 277423, Note_off_c, 0, 67, 59
1, 277434, Note_on_c, 0, 66, 78
1, 277504, Note_off_c, 0, 66, 66
1, 277512, Note_on_c, 0, 67, 82
1, 277534, Control_c, 0, 64, 37
1, 277548, Control_c, 0, 64, 36
1, 277563, Control_c, 0, 64, 35
1, 277574, Note_on_c, 0, 43, 78
1, 277578, Note_off_c, 0, 67, 45
1, 277578, Control_c, 0, 64, 34
1, 277585, Note_on_c, 0, 35, 64
1, 277585, Note_on_c, 0, 38, 63
1, 277586, Note_on_c, 0, 31, 61
1, 277591, Note_on_c, 0, 69, 80
1, 277593, Control_c, 0, 64, 34
1, 277637, Control_c, 0, 64, 33
1, 277650, Note_off_c, 0, 69, 66
1, 277662, Note_on_c, 0, 67, 74
1, 277681, Control_c, 0, 64, 34
1, 277696, Control_c, 0, 64, 35
1, 277732, Note_on_c, 0, 69, 77
1, 277732, Note_off_c, 0, 67, 63
1, 277770, Control_c, 0, 64, 36
1, 277785, Control_c, 0, 64, 36
1, 277803, Note_on_c, 0, 71, 83
1, 277815, Control_c, 0, 64, 37
1, 277815, Note_off_c, 0, 69, 65
1, 277845, Control_c, 0, 64, 38
1, 277857, Note_off_c, 0, 71, 60
1, 277860, Control_c, 0, 64, 38
1, 277866, Note_off_c, 0, 35, 53
1, 277871, Note_on_c, 0, 69, 80
1, 277874, Note_off_c, 0, 43, 52
1, 277874, Control_c, 0, 64, 39
1, 277878, Note_off_c, 0, 31, 56
1, 277881, Note_off_c, 0, 38, 55
1, 277904, Control_c, 0, 64, 39
1, 277919, Control_c, 0, 64, 40
1, 277934, Control_c, 0, 64, 41
1, 277943, Note_on_c, 0, 71, 80
1, 277948, Note_off_c, 0, 69, 60
1, 277948, Control_c, 0, 64, 41
1, 277963, Control_c, 0, 64, 43
1, 277993, Control_c, 0, 64, 43
1, 278008, Note_on_c, 0, 43, 81
1, 278015, Note_on_c, 0, 31, 64
1, 278016, Note_on_c, 0, 38, 71
1, 278018, Note_on_c, 0, 35, 67
1, 278018, Note_on_c, 0, 72, 84
1, 278023, Control_c, 0, 64, 44
1, 278027, Note_off_c, 0, 71, 59
1, 278038, Control_c, 0, 64, 46
1, 278053, Control_c, 0, 64, 48
1, 278068, Control_c, 0, 64, 51
1, 278083, Control_c, 0, 64, 52
1, 278084, Note_off_c, 0, 72, 64
1, 278090, Note_on_c, 0, 71, 80
1, 278097, Control_c, 0, 64, 52
1, 278112, Control_c, 0, 64, 53
1, 278127, Control_c, 0, 64, 55
1, 278142, Control_c, 0, 64, 56
1, 278157, Control_c, 0, 64, 56
1, 278160, Note_on_c, 0, 72, 83
1, 278173, Note_off_c, 0, 71, 61
1, 278209, Control_c, 0, 64, 57
1, 278224, Control_c, 0, 64, 58
1, 278238, Control_c, 0, 64, 58
1, 278251, Note_on_c, 0, 74, 91
1, 278253, Note_off_c, 0, 31, 57
1, 278256, Note_off_c, 0, 35, 59
1, 278262, Note_off_c, 0, 72, 66
1, 278268, Control_c, 0, 64, 58
1, 278270, Note_off_c, 0, 43, 55
1, 278271, Note_off_c, 0, 74, 71
1, 278273, Note_off_c, 0, 38, 56
1, 278283, Control_c, 0, 64, 57
1, 278298, Control_c, 0, 64, 57
1, 278342, Control_c, 0, 64, 56
1, 278357, Control_c, 0, 64, 55
1, 278372, Control_c, 0, 64, 54
1, 278386, Control_c, 0, 64, 54
1, 278401, Control_c, 0, 64, 53
1, 278430, Control_c, 0, 64, 52
1, 278445, Control_c, 0, 64, 51
1, 278460, Control_c, 0, 64, 50
1, 278482, Note_on_c, 0, 43, 81
1, 278485, Note_on_c, 0, 67, 86
1, 278487, Note_on_c, 0, 31, 64
1, 278489, Note_on_c, 0, 35, 64
1, 278492, Note_on_c, 0, 38, 67
1, 278504, Control_c, 0, 64, 49
1, 278519, Control_c, 0, 64, 44
1, 278521, Note_off_c, 0, 67, 65
1, 278534, Control_c, 0, 64, 36
1, 278549, Control_c, 0, 64, 25
1, 278564, Control_c, 0, 64, 0
1, 278641, Note_off_c, 0, 31, 63
1, 278664, Note_off_c, 0, 35, 63
1, 278665, Note_off_c, 0, 38, 62
1, 278677, Note_off_c, 0, 43, 62
1, 278704, Note_on_c, 0, 72, 83
1, 278761, Note_off_c, 0, 72, 63
1, 278782, Note_on_c, 0, 71, 76
1, 278852, Note_on_c, 0, 72, 75
1, 278858, Note_off_c, 0, 71, 59
1, 278915, Note_on_c, 0, 55, 76
1, 278921, Note_on_c, 0, 74, 82
1, 278922, Note_on_c, 0, 46, 69
1, 278927, Note_on_c, 0, 52, 68
1, 278948, Note_off_c, 0, 72, 64
1, 278957, Note_on_c, 0, 48, 50
1, 278985, Note_off_c, 0, 74, 65
1, 279006, Note_on_c, 0, 72, 80
1, 279076, Note_on_c, 0, 74, 79
1, 279087, Note_off_c, 0, 72, 59
1, 279148, Note_on_c, 0, 76, 81
1, 279159, Note_off_c, 0, 74, 64
1, 279205, Note_off_c, 0, 76, 61
1, 279215, Note_on_c, 0, 74, 78
1, 279243, Note_off_c, 0, 55, 60
1, 279252, Note_off_c, 0, 52, 60
1, 279256, Note_off_c, 0, 46, 57
1, 279258, Note_off_c, 0, 48, 58
1, 279282, Note_on_c, 0, 76, 83
1, 279300, Note_off_c, 0, 74, 61
1, 279350, Note_on_c, 0, 77, 89
1, 279370, Note_on_c, 0, 55, 83
1, 279370, Note_off_c, 0, 76, 64
1, 279374, Note_on_c, 0, 46, 75
1, 279375, Note_on_c, 0, 52, 83
1, 279392, Note_on_c, 0, 48, 65
1, 279422, Note_on_c, 0, 76, 81
1, 279423, Note_off_c, 0, 77, 61
1, 279494, Note_on_c, 0, 77, 87
1, 279517, Note_off_c, 0, 76, 64
1, 279581, Note_on_c, 0, 79, 100
1, 279595, Note_off_c, 0, 77, 63
1, 279610, Note_off_c, 0, 79, 70
1, 279625, Note_off_c, 0, 52, 60
1, 279631, Note_off_c, 0, 55, 58
1, 279645, Note_off_c, 0, 48, 58
1, 279660, Note_off_c, 0, 46, 54
1, 279821, Note_on_c, 0, 46, 76
1, 279822, Note_on_c, 0, 55, 86
1, 279830, Note_on_c, 0, 72, 90
1, 279836, Note_on_c, 0, 52, 73
1, 279845, Note_on_c, 0, 48, 64
1, 279863, Note_off_c, 0, 72, 67
1, 280023, Note_off_c, 0, 52, 63
1, 280039, Note_off_c, 0, 48, 60
1, 280043, Note_off_c, 0, 55, 61
1, 280049, Note_on_c, 0, 77, 94
1, 280054, Note_off_c, 0, 46, 63
1, 280112, Note_off_c, 0, 77, 59
1, 280119, Note_on_c, 0, 76, 81
1, 280184, Note_on_c, 0, 77, 87
1, 280197, Note_off_c, 0, 76, 62
1, 280259, Note_on_c, 0, 79, 90
1, 280260, Note_on_c, 0, 53, 83
1, 280262, Note_on_c, 0, 57, 86
1, 280268, Note_on_c, 0, 48, 68
1, 280271, Note_on_c, 0, 45, 69
1, 280280, Note_off_c, 0, 77, 63
1, 280319, Note_off_c, 0, 79, 56
1, 280334, Note_on_c, 0, 77, 81
1, 280406, Note_on_c, 0, 79, 86
1, 280407, Note_off_c, 0, 77, 57
1, 280486, Note_on_c, 0, 81, 88
1, 280504, Note_off_c, 0, 79, 61
1, 280539, Note_off_c, 0, 81, 62
1, 280558, Note_on_c, 0, 79, 77
1, 280568, Note_off_c, 0, 45, 58
1, 280578, Note_off_c, 0, 57, 58
1, 280581, Note_off_c, 0, 53, 61
1, 280593, Note_off_c, 0, 48, 43
1, 280623, Note_on_c, 0, 81, 86
1, 280641, Note_off_c, 0, 79, 54
1, 280691, Note_on_c, 0, 82, 89
1, 280699, Note_on_c, 0, 57, 83
1, 280700, Note_on_c, 0, 53, 77
1, 280701, Note_off_c, 0, 81, 62
1, 280712, Note_on_c, 0, 48, 69
1, 280713, Note_on_c, 0, 45, 58
1, 280765, Note_off_c, 0, 82, 63
1, 280766, Note_on_c, 0, 81, 86
1, 280833, Note_on_c, 0, 82, 87
1, 280850, Note_off_c, 0, 81, 61
1, 280915, Note_on_c, 0, 84, 100
1, 280923, Note_off_c, 0, 82, 65
1, 280933, Note_off_c, 0, 48, 56
1, 280935, Note_off_c, 0, 57, 61
1, 280938, Note_off_c, 0, 84, 74
1, 280942, Note_off_c, 0, 45, 59
1, 280948, Note_off_c, 0, 53, 63
1, 281158, Note_on_c, 0, 53, 74
1, 281158, Note_on_c, 0, 77, 97
1, 281161, Note_on_c, 0, 45, 57
1, 281163, Note_on_c, 0, 57, 74
1, 281178, Note_on_c, 0, 48, 48
1, 281195, Note_off_c, 0, 77, 67
1, 281337, Note_off_c, 0, 53, 65
1, 281340, Note_off_c, 0, 45, 64
1, 281356, Note_off_c, 0, 48, 46
1, 281363, Note_off_c, 0, 57, 61
1, 281368, Note_on_c, 0, 78, 82
1, 281423, Note_off_c, 0, 78, 63
1, 281441, Note_on_c, 0, 77, 80
1, 281506, Note_on_c, 0, 78, 79
1, 281514, Note_off_c, 0, 77, 59
1, 281581, Note_on_c, 0, 79, 79
1, 281581, Note_off_c, 0, 78, 61
1, 281594, Note_on_c, 0, 60, 90
1, 281598, Note_on_c, 0, 54, 73
1, 281598, Note_on_c, 0, 57, 78
1, 281600, Note_on_c, 0, 50, 73
1, 281653, Note_on_c, 0, 78, 76
1, 281656, Note_off_c, 0, 79, 61
1, 281723, Note_on_c, 0, 79, 81
1, 281723, Note_off_c, 0, 78, 61
1, 281766, Control_c, 0, 64, 10
1, 281781, Control_c, 0, 64, 18
1, 281794, Note_off_c, 0, 79, 47
1, 281796, Note_on_c, 0, 81, 88
1, 281796, Control_c, 0, 64, 26
1, 281811, Control_c, 0, 64, 28
1, 281855, Control_c, 0, 64, 27
1, 281864, Note_on_c, 0, 80, 79
1, 281876, Note_off_c, 0, 81, 55
1, 281885, Control_c, 0, 64, 28
1, 281905, Note_off_c, 0, 60, 60
1, 281908, Note_off_c, 0, 57, 60
1, 281911, Note_off_c, 0, 50, 61
1, 281924, Note_off_c, 0, 54, 60
1, 281945, Note_on_c, 0, 81, 86
1, 281946, Note_off_c, 0, 80, 63
1, 281981, Control_c, 0, 64, 27
1, 282007, Note_on_c, 0, 60, 91
1, 282011, Control_c, 0, 64, 26
1, 282014, Note_on_c, 0, 57, 79
1, 282017, Note_on_c, 0, 83, 86
1, 282019, Note_on_c, 0, 54, 72
1, 282021, Note_on_c, 0, 50, 72
1, 282027, Note_off_c, 0, 81, 58
1, 282027, Control_c, 0, 64, 25
1, 282069, Note_off_c, 0, 83, 60
1, 282071, Control_c, 0, 64, 26
1, 282086, Control_c, 0, 64, 28
1, 282087, Note_on_c, 0, 81, 75
1, 282101, Control_c, 0, 64, 30
1, 282116, Control_c, 0, 64, 29
1, 282131, Control_c, 0, 64, 28
1, 282145, Control_c, 0, 64, 26
1, 282158, Note_on_c, 0, 83, 88
1, 282160, Control_c, 0, 64, 25
1, 282171, Note_off_c, 0, 81, 58
1, 282175, Control_c, 0, 64, 23
1, 282189, Control_c, 0, 64, 16
1, 282204, Control_c, 0, 64, 0
1, 282239, Note_on_c, 0, 84, 96
1, 282253, Note_off_c, 0, 83, 63
1, 282267, Note_off_c, 0, 57, 57
1, 282273, Note_off_c, 0, 84, 68
1, 282274, Note_off_c, 0, 60, 60
1, 282285, Note_off_c, 0, 54, 60
1, 282288, Note_off_c, 0, 50, 59
1, 282471, Control_c, 0, 64, 16
1, 282479, Note_on_c, 0, 78, 98
1, 282482, Note_on_c, 0, 60, 84
1, 282485, Note_on_c, 0, 57, 76
1, 282486, Note_on_c, 0, 50, 68
1, 282486, Control_c, 0, 64, 23
1, 282491, Note_on_c, 0, 54, 71
1, 282501, Control_c, 0, 64, 25
1, 282513, Note_off_c, 0, 78, 66
1, 282516, Control_c, 0, 64, 23
1, 282545, Control_c, 0, 64, 20
1, 282560, Control_c, 0, 64, 13
1, 282575, Control_c, 0, 64, 0
1, 282660, Note_off_c, 0, 57, 62
1, 282664, Note_off_c, 0, 60, 62
1, 282674, Note_off_c, 0, 50, 64
1, 282680, Note_off_c, 0, 54, 62
1, 282715, Note_on_c, 0, 79, 91
1, 282767, Note_off_c, 0, 79, 61
1, 282796, Note_on_c, 0, 81, 90
1, 282876, Note_on_c, 0, 79, 85
1, 282894, Control_c, 0, 64, 16
1, 282909, Control_c, 0, 64, 13
1, 282921, Note_off_c, 0, 81, 54
1, 282924, Control_c, 0, 64, 0
1, 282987, Note_on_c, 0, 65, 94
1, 282991, Note_on_c, 0, 62, 81
1, 282992, Note_on_c, 0, 77, 93
1, 282998, Note_on_c, 0, 55, 70
1, 282999, Note_on_c, 0, 59, 73
1, 283009, Note_off_c, 0, 79, 58
1, 283042, Control_c, 0, 64, 37
1, 283055, Note_off_c, 0, 77, 58
1, 283057, Control_c, 0, 64, 66
1, 283072, Control_c, 0, 64, 71
1, 283087, Control_c, 0, 64, 75
1, 283092, Note_on_c, 0, 79, 77
1, 283101, Control_c, 0, 64, 77
1, 283116, Control_c, 0, 64, 79
1, 283131, Control_c, 0, 64, 81
1, 283146, Control_c, 0, 64, 83
1, 283160, Control_c, 0, 64, 85
1, 283162, Note_off_c, 0, 79, 54
1, 283174, Note_on_c, 0, 77, 74
1, 283175, Control_c, 0, 64, 87
1, 283190, Control_c, 0, 64, 88
1, 283205, Control_c, 0, 64, 89
1, 283219, Control_c, 0, 64, 89
1, 283234, Control_c, 0, 64, 90
1, 283249, Control_c, 0, 64, 91
1, 283257, Note_on_c, 0, 80, 82
1, 283264, Control_c, 0, 64, 91
1, 283285, Note_off_c, 0, 77, 57
1, 283294, Control_c, 0, 64, 92
1, 283309, Control_c, 0, 64, 92
1, 283317, Note_off_c, 0, 65, 58
1, 283324, Note_off_c, 0, 80, 63
1, 283325, Note_on_c, 0, 82, 80
1, 283334, Note_off_c, 0, 59, 57
1, 283336, Note_off_c, 0, 62, 53
1, 283338, Control_c, 0, 64, 93
1, 283344, Note_off_c, 0, 55, 58
1, 283353, Control_c, 0, 64, 94
1, 283368, Control_c, 0, 64, 95
1, 283383, Control_c, 0, 64, 96
1, 283395, Note_on_c, 0, 80, 76
1, 283398, Control_c, 0, 64, 96
1, 283412, Control_c, 0, 64, 97
1, 283449, Control_c, 0, 64, 96
1, 283461, Note_off_c, 0, 82, 61
1, 283464, Control_c, 0, 64, 90
1, 283479, Control_c, 0, 64, 75
1, 283485, Note_on_c, 0, 65, 95
1, 283487, Note_on_c, 0, 79, 81
1, 283488, Note_on_c, 0, 62, 85
1, 283488, Note_on_c, 0, 55, 74
1, 283492, Note_on_c, 0, 59, 71
1, 283494, Control_c, 0, 64, 0
1, 283494, Note_off_c, 0, 80, 63
1, 283538, Control_c, 0, 64, 55
1, 283538, Note_off_c, 0, 79, 63
1, 283553, Control_c, 0, 64, 71
1, 283562, Note_on_c, 0, 80, 62
1, 283568, Control_c, 0, 64, 83
1, 283583, Control_c, 0, 64, 89
1, 283598, Control_c, 0, 64, 91
1, 283613, Control_c, 0, 64, 93
1, 283628, Control_c, 0, 64, 96
1, 283632, Note_off_c, 0, 80, 63
1, 283637, Note_on_c, 0, 79, 77
1, 283643, Control_c, 0, 64, 100
1, 283658, Control_c, 0, 64, 103
1, 283673, Control_c, 0, 64, 105
1, 283682, Note_off_c, 0, 79, 61
1, 283687, Control_c, 0, 64, 105
1, 283702, Control_c, 0, 64, 106
1, 283726, Note_on_c, 0, 77, 80
1, 283732, Control_c, 0, 64, 106
1, 283762, Control_c, 0, 64, 107
1, 283775, Note_off_c, 0, 65, 61
1, 283777, Control_c, 0, 64, 107
1, 283787, Note_off_c, 0, 59, 59
1, 283791, Control_c, 0, 64, 108
1, 283795, Note_off_c, 0, 62, 57
1, 283804, Note_off_c, 0, 55, 54
1, 283806, Note_on_c, 0, 79, 74
1, 283806, Control_c, 0, 64, 109
1, 283807, Note_off_c, 0, 77, 61
1, 283821, Control_c, 0, 64, 110
1, 283836, Control_c, 0, 64, 112
1, 283850, Control_c, 0, 64, 114
1, 283865, Control_c, 0, 64, 117
1, 283874, Note_on_c, 0, 77, 68
1, 283880, Control_c, 0, 64, 118
1, 283895, Control_c, 0, 64, 119
1, 283921, Note_off_c, 0, 79, 58
1, 283924, Control_c, 0, 64, 114
1, 283939, Control_c, 0, 64, 95
1, 283951, Note_on_c, 0, 65, 91
1, 283953, Note_on_c, 0, 62, 83
1, 283954, Note_on_c, 0, 75, 83
1, 283954, Control_c, 0, 64, 74
1, 283959, Note_off_c, 0, 77, 60
1, 283960, Note_on_c, 0, 55, 68
1, 283962, Note_on_c, 0, 59, 68
1, 283968, Control_c, 0, 64, 0
1, 283998, Control_c, 0, 64, 55
1, 284013, Control_c, 0, 64, 74
1, 284026, Note_off_c, 0, 75, 56
1, 284028, Control_c, 0, 64, 88
1, 284039, Note_on_c, 0, 77, 70
1, 284042, Control_c, 0, 64, 103
1, 284057, Control_c, 0, 64, 106
1, 284072, Control_c, 0, 64, 108
1, 284087, Control_c, 0, 64, 112
1, 284102, Control_c, 0, 64, 116
1, 284105, Note_on_c, 0, 75, 67
1, 284117, Control_c, 0, 64, 120
1, 284125, Note_off_c, 0, 65, 63
1, 284132, Control_c, 0, 64, 124
1, 284135, Note_off_c, 0, 62, 60
1, 284140, Note_off_c, 0, 77, 59
1, 284147, Control_c, 0, 64, 127
1, 284155, Note_off_c, 0, 59, 62
1, 284164, Note_off_c, 0, 55, 65
1, 284176, Note_off_c, 0, 75, 63
1, 284179, Note_on_c, 0, 74, 74
1, 284236, Note_off_c, 0, 74, 66
1, 284275, Note_on_c, 0, 74, 51
1, 284389, Note_off_c, 0, 74, 66
1, 284436, Control_c, 0, 64, 126
1, 284442, Note_on_c, 0, 55, 89
1, 284445, Note_on_c, 0, 43, 73
1, 284449, Note_on_c, 0, 47, 73
1, 284451, Control_c, 0, 64, 100
1, 284454, Note_on_c, 0, 50, 68
1, 284460, Note_on_c, 0, 72, 55
1, 284466, Control_c, 0, 64, 78
1, 284467, Note_on_c, 0, 71, 59
1, 284480, Control_c, 0, 64, 44
1, 284495, Control_c, 0, 64, 0
1, 284501, Note_off_c, 0, 71, 52
1, 284510, Control_c, 0, 64, 65
1, 284516, Note_off_c, 0, 72, 62
1, 284525, Control_c, 0, 64, 78
1, 284535, Note_on_c, 0, 74, 56
1, 284540, Control_c, 0, 64, 93
1, 284555, Control_c, 0, 64, 104
1, 284570, Control_c, 0, 64, 107
1, 284585, Control_c, 0, 64, 108
1, 284589, Note_on_c, 0, 72, 69
1, 284599, Control_c, 0, 64, 111
1, 284614, Control_c, 0, 64, 114
1, 284622, Note_off_c, 0, 74, 63
1, 284629, Control_c, 0, 64, 116
1, 284644, Control_c, 0, 64, 117
1, 284658, Note_off_c, 0, 72, 63
1, 284659, Control_c, 0, 64, 118
1, 284667, Note_on_c, 0, 71, 70
1, 284673, Control_c, 0, 64, 119
1, 284688, Control_c, 0, 64, 120
1, 284703, Control_c, 0, 64, 120
1, 284718, Control_c, 0, 64, 121
1, 284731, Note_off_c, 0, 71, 59
1, 284733, Control_c, 0, 64, 121
1, 284736, Note_on_c, 0, 72, 67
1, 284741, Note_off_c, 0, 55, 59
1, 284748, Control_c, 0, 64, 122
1, 284752, Note_off_c, 0, 47, 59
1, 284763, Control_c, 0, 64, 123
1, 284774, Note_off_c, 0, 43, 58
1, 284778, Control_c, 0, 64, 125
1, 284792, Control_c, 0, 64, 127
1, 284793, Note_off_c, 0, 72, 63
1, 284809, Note_off_c, 0, 50, 30
1, 284810, Note_on_c, 0, 71, 63
1, 284881, Control_c, 0, 64, 123
1, 284883, Note_on_c, 0, 68, 82
1, 284884, Note_on_c, 0, 55, 86
1, 284886, Note_on_c, 0, 43, 73
1, 284886, Note_off_c, 0, 71, 61
1, 284891, Note_on_c, 0, 50, 69
1, 284892, Note_on_c, 0, 47, 72
1, 284896, Control_c, 0, 64, 101
1, 284911, Control_c, 0, 64, 78
1, 284926, Control_c, 0, 64, 0
1, 284969, Note_on_c, 0, 70, 80
1, 284973, Note_off_c, 0, 68, 64
1, 284992, Control_c, 0, 64, 64
1, 285007, Control_c, 0, 64, 75
1, 285022, Control_c, 0, 64, 83
1, 285037, Control_c, 0, 64, 90
1, 285048, Note_on_c, 0, 68, 74
1, 285052, Control_c, 0, 64, 94
1, 285066, Control_c, 0, 64, 99
1, 285081, Control_c, 0, 64, 103
1, 285086, Note_off_c, 0, 70, 61
1, 285096, Control_c, 0, 64, 107
1, 285111, Control_c, 0, 64, 111
1, 285126, Control_c, 0, 64, 114
1, 285130, Note_on_c, 0, 67, 80
1, 285140, Control_c, 0, 64, 116
1, 285141, Note_off_c, 0, 68, 63
1, 285155, Control_c, 0, 64, 118
1, 285163, Note_off_c, 0, 55, 54
1, 285169, Note_off_c, 0, 47, 58
1, 285170, Control_c, 0, 64, 122
1, 285179, Note_off_c, 0, 50, 52
1, 285183, Note_off_c, 0, 43, 56
1, 285184, Control_c, 0, 64, 127
1, 285199, Control_c, 0, 64, 127
1, 285205, Note_on_c, 0, 68, 74
1, 285212, Note_off_c, 0, 67, 60
1, 285273, Note_off_c, 0, 68, 64
1, 285282, Note_on_c, 0, 67, 79
1, 285317, Note_off_c, 0, 67, 62
1, 285404, Note_on_c, 0, 55, 94
1, 285407, Note_on_c, 0, 83, 100
1, 285412, Note_on_c, 0, 43, 70
1, 285413, Note_on_c, 0, 47, 74
1, 285416, Note_on_c, 0, 50, 65
1, 285433, Note_off_c, 0, 55, 64
1, 285443, Note_off_c, 0, 50, 66
1, 285449, Note_off_c, 0, 47, 67
1, 285462, Note_off_c, 0, 83, 54
1, 285466, Note_off_c, 0, 43, 61
1, 285497, Note_on_c, 0, 84, 91
1, 285577, Note_on_c, 0, 83, 74
1, 285586, Note_off_c, 0, 84, 63
1, 285630, Note_off_c, 0, 83, 63
1, 285712, Control_c, 0, 64, 114
1, 285723, Note_on_c, 0, 36, 75
1, 285724, Note_on_c, 0, 48, 98
1, 285725, Note_on_c, 0, 43, 77
1, 285726, Control_c, 0, 64, 96
1, 285729, Note_on_c, 0, 39, 78
1, 285733, Note_on_c, 0, 84, 97
1, 285741, Control_c, 0, 64, 75
1, 285756, Control_c, 0, 64, 0
1, 285794, Note_off_c, 0, 84, 57
1, 285822, Note_on_c, 0, 86, 81
1, 285889, Control_c, 0, 64, 49
1, 285890, Note_on_c, 0, 84, 78
1, 285904, Control_c, 0, 64, 62
1, 285915, Note_off_c, 0, 86, 61
1, 285919, Control_c, 0, 64, 63
1, 285934, Control_c, 0, 64, 64
1, 285948, Control_c, 0, 64, 64
1, 285949, Note_off_c, 0, 84, 64
1, 285961, Note_on_c, 0, 79, 73
1, 285963, Control_c, 0, 64, 65
1, 285978, Control_c, 0, 64, 66
1, 285993, Control_c, 0, 64, 67
1, 286016, Note_off_c, 0, 79, 58
1, 286040, Note_on_c, 0, 80, 76
1, 286083, Control_c, 0, 64, 67
1, 286108, Note_off_c, 0, 80, 62
1, 286112, Control_c, 0, 64, 66
1, 286115, Note_on_c, 0, 79, 80
1, 286127, Control_c, 0, 64, 65
1, 286142, Control_c, 0, 64, 64
1, 286157, Note_off_c, 0, 79, 61
1, 286157, Control_c, 0, 64, 62
1, 286172, Control_c, 0, 64, 59
1, 286186, Control_c, 0, 64, 54
1, 286197, Note_on_c, 0, 75, 80
1, 286201, Control_c, 0, 64, 46
1, 286216, Control_c, 0, 64, 31
1, 286230, Control_c, 0, 64, 0
1, 286265, Note_off_c, 0, 75, 64
1, 286269, Note_on_c, 0, 77, 74
1, 286329, Note_on_c, 0, 75, 65
1, 286371, Note_off_c, 0, 77, 58
1, 286406, Note_on_c, 0, 72, 80
1, 286410, Note_off_c, 0, 75, 64
1, 286453, Note_off_c, 0, 72, 65
1, 286492, Note_on_c, 0, 74, 75
1, 286537, Note_off_c, 0, 74, 60
1, 286550, Note_on_c, 0, 72, 69
1, 286576, Note_off_c, 0, 72, 69
1, 286635, Note_on_c, 0, 67, 84
1, 286663, Note_off_c, 0, 48, 53
1, 286675, Note_off_c, 0, 43, 37
1, 286677, Note_off_c, 0, 36, 61
1, 286690, Note_off_c, 0, 39, 57
1, 286693, Note_off_c, 0, 67, 62
1, 286709, Note_on_c, 0, 68, 69
1, 286778, Note_on_c, 0, 67, 73
1, 286803, Note_off_c, 0, 68, 59
1, 286845, Note_off_c, 0, 67, 62
1, 286858, Note_on_c, 0, 63, 75
1, 286928, Note_off_c, 0, 63, 61
1, 286943, Note_on_c, 0, 65, 66
1, 286978, Note_on_c, 0, 63, 70
1, 287002, Note_off_c, 0, 65, 65
1, 287027, Note_off_c, 0, 63, 65
1, 287080, Note_on_c, 0, 60, 83
1, 287084, Note_on_c, 0, 72, 82
1, 287101, Note_off_c, 0, 60, 70
1, 287104, Note_off_c, 0, 72, 71
1, 287199, Poly_aftertouch_c, 0, 36, 0
1, 287319, Note_on_c, 0, 62, 79
1, 287324, Note_on_c, 0, 74, 78
1, 287342, Note_off_c, 0, 62, 68
1, 287342, Note_off_c, 0, 74, 74
1, 287533, Note_on_c, 0, 63, 80
1, 287536, Note_on_c, 0, 75, 79
1, 287542, Note_on_c, 0, 48, 69
1, 287544, Note_on_c, 0, 36, 62
1, 287555, Note_off_c, 0, 63, 70
1, 287564, Note_off_c, 0, 75, 64
1, 287569, Note_off_c, 0, 48, 67
1, 287578, Note_off_c, 0, 36, 62
1, 287765, Note_on_c, 0, 65, 82
1, 287767, Note_on_c, 0, 50, 71
1, 287769, Note_on_c, 0, 77, 81
1, 287770, Note_on_c, 0, 38, 62
1, 287787, Note_off_c, 0, 65, 72
1, 287789, Note_off_c, 0, 77, 69
1, 287798, Note_off_c, 0, 50, 64
1, 287801, Note_off_c, 0, 38, 64
1, 287995, Note_on_c, 0, 67, 90
1, 287996, Note_on_c, 0, 79, 86
1, 288005, Note_on_c, 0, 51, 74
1, 288010, Note_on_c, 0, 39, 69
1, 288041, Note_off_c, 0, 51, 58
1, 288073, Note_off_c, 0, 39, 61
1, 288229, Note_on_c, 0, 53, 89
1, 288236, Note_on_c, 0, 41, 89
1, 288270, Note_off_c, 0, 53, 66
1, 288278, Note_off_c, 0, 41, 62
1, 288299, Note_off_c, 0, 67, 57
1, 288304, Note_off_c, 0, 79, 59
1, 288388, Control_c, 0, 64, 13
1, 288403, Control_c, 0, 64, 20
1, 288449, Note_on_c, 0, 67, 81
1, 288451, Note_on_c, 0, 55, 90
1, 288451, Note_on_c, 0, 79, 84
1, 288455, Note_on_c, 0, 43, 86
1, 288463, Control_c, 0, 64, 23
1, 288471, Note_off_c, 0, 67, 69
1, 288478, Control_c, 0, 64, 27
1, 288484, Note_off_c, 0, 79, 64
1, 288493, Control_c, 0, 64, 29
1, 288537, Control_c, 0, 64, 30
1, 288581, Control_c, 0, 64, 32
1, 288596, Control_c, 0, 64, 34
1, 288611, Control_c, 0, 64, 36
1, 288655, Control_c, 0, 64, 38
1, 288670, Control_c, 0, 64, 41
1, 288692, Control_c, 0, 64, 42
1, 288698, Note_on_c, 0, 81, 85
1, 288698, Note_on_c, 0, 69, 77
1, 288707, Control_c, 0, 64, 43
1, 288719, Note_off_c, 0, 69, 73
1, 288731, Note_off_c, 0, 81, 59
1, 288737, Control_c, 0, 64, 43
1, 288740, Note_off_c, 0, 55, 62
1, 288752, Control_c, 0, 64, 44
1, 288766, Control_c, 0, 64, 45
1, 288776, Note_off_c, 0, 43, 62
1, 288781, Control_c, 0, 64, 45
1, 288826, Control_c, 0, 64, 45
1, 288840, Control_c, 0, 64, 44
1, 288885, Control_c, 0, 64, 44
1, 288910, Note_on_c, 0, 71, 79
1, 288910, Note_on_c, 0, 83, 83
1, 288915, Note_on_c, 0, 43, 81
1, 288919, Note_on_c, 0, 31, 74
1, 288932, Note_off_c, 0, 71, 66
1, 288944, Control_c, 0, 64, 43
1, 288947, Note_off_c, 0, 83, 61
1, 288955, Note_off_c, 0, 43, 63
1, 288958, Control_c, 0, 64, 42
1, 288967, Note_off_c, 0, 31, 62
1, 288973, Control_c, 0, 64, 39
1, 288988, Control_c, 0, 64, 37
1, 289003, Control_c, 0, 64, 36
1, 289018, Control_c, 0, 64, 36
1, 289032, Control_c, 0, 64, 38
1, 289062, Control_c, 0, 64, 38
1, 289077, Control_c, 0, 64, 39
1, 289092, Control_c, 0, 64, 40
1, 289107, Control_c, 0, 64, 42
1, 289122, Control_c, 0, 64, 42
1, 289125, Note_on_c, 0, 72, 86
1, 289128, Note_on_c, 0, 45, 75
1, 289131, Note_on_c, 0, 33, 77
1, 289131, Note_on_c, 0, 84, 86
1, 289151, Note_off_c, 0, 72, 65
1, 289163, Note_off_c, 0, 84, 66
1, 289163, Note_off_c, 0, 45, 65
1, 289173, Note_off_c, 0, 33, 62
1, 289256, Control_c, 0, 64, 43
1, 289301, Control_c, 0, 64, 40
1, 289315, Control_c, 0, 64, 21
1, 289330, Control_c, 0, 64, 0
1, 289356, Note_on_c, 0, 86, 84
1, 289358, Note_on_c, 0, 74, 86
1, 289366, Note_on_c, 0, 47, 86
1, 289369, Note_on_c, 0, 35, 81
1, 289411, Note_off_c, 0, 47, 63
1, 289431, Note_off_c, 0, 35, 60
1, 289441, Control_c, 0, 64, 20
1, 289456, Control_c, 0, 64, 64
1, 289470, Control_c, 0, 64, 67
1, 289485, Control_c, 0, 64, 69
1, 289500, Control_c, 0, 64, 70
1, 289515, Control_c, 0, 64, 72
1, 289530, Control_c, 0, 64, 74
1, 289545, Control_c, 0, 64, 75
1, 289546, Note_off_c, 0, 86, 62
1, 289560, Control_c, 0, 64, 76
1, 289575, Control_c, 0, 64, 77
1, 289582, Note_off_c, 0, 74, 65
1, 289589, Control_c, 0, 64, 77
1, 289596, Note_on_c, 0, 48, 94
1, 289602, Note_on_c, 0, 36, 82
1, 289604, Control_c, 0, 64, 78
1, 289625, Note_off_c, 0, 48, 66
1, 289634, Note_off_c, 0, 36, 66
1, 289678, Control_c, 0, 64, 78
1, 289723, Control_c, 0, 64, 77
1, 289737, Control_c, 0, 64, 74
1, 289752, Control_c, 0, 64, 67
1, 289767, Control_c, 0, 64, 0
1, 289810, Note_on_c, 0, 58, 82
1, 289810, Note_on_c, 0, 70, 84
1, 289818, Note_on_c, 0, 49, 89
1, 289822, Note_on_c, 0, 37, 78
1, 289842, Note_off_c, 0, 58, 64
1, 289862, Note_off_c, 0, 70, 61
1, 290043, Note_on_c, 0, 60, 76
1, 290045, Note_on_c, 0, 72, 78
1, 290066, Note_off_c, 0, 60, 68
1, 290077, Note_off_c, 0, 72, 66
1, 290108, Note_off_c, 0, 49, 60
1, 290133, Note_off_c, 0, 37, 64
1, 290253, Note_on_c, 0, 61, 83
1, 290255, Note_on_c, 0, 34, 71
1, 290255, Note_on_c, 0, 73, 85
1, 290257, Note_on_c, 0, 46, 68
1, 290274, Note_off_c, 0, 61, 69
1, 290285, Note_off_c, 0, 46, 64
1, 290287, Note_off_c, 0, 73, 61
1, 290300, Note_off_c, 0, 34, 63
1, 290479, Note_on_c, 0, 36, 74
1, 290479, Note_on_c, 0, 48, 76
1, 290479, Note_on_c, 0, 63, 82
1, 290481, Note_on_c, 0, 75, 83
1, 290499, Note_off_c, 0, 63, 73
1, 290511, Note_off_c, 0, 48, 68
1, 290511, Note_off_c, 0, 75, 63
1, 290515, Note_off_c, 0, 36, 62
1, 290696, Note_on_c, 0, 77, 95
1, 290698, Note_on_c, 0, 65, 87
1, 290719, Note_on_c, 0, 39, 67
1, 290719, Note_on_c, 0, 51, 68
1, 290727, Note_on_c, 0, 49, 52
1, 290748, Note_off_c, 0, 51, 63
1, 290754, Note_off_c, 0, 49, 55
1, 290774, Note_off_c, 0, 39, 57
1, 290887, Control_c, 0, 64, 21
1, 290901, Control_c, 0, 64, 32
1, 290916, Control_c, 0, 64, 34
1, 290952, Note_on_c, 0, 51, 53
1, 290954, Control_c, 0, 64, 33
1, 290957, Note_on_c, 0, 42, 49
1, 290977, Note_off_c, 0, 51, 55
1, 290983, Control_c, 0, 64, 34
1, 290986, Note_off_c, 0, 42, 54
1, 291013, Control_c, 0, 64, 33
1, 291020, Note_off_c, 0, 65, 55
1, 291026, Note_off_c, 0, 77, 54
1, 291028, Control_c, 0, 64, 32
1, 291042, Control_c, 0, 64, 30
1, 291102, Control_c, 0, 64, 27
1, 291116, Control_c, 0, 64, 0
1, 291159, Note_on_c, 0, 53, 75
1, 291161, Note_on_c, 0, 77, 82
1, 291163, Note_on_c, 0, 65, 78
1, 291165, Note_on_c, 0, 41, 70
1, 291197, Note_off_c, 0, 65, 66
1, 291219, Note_off_c, 0, 77, 62
1, 291235, Control_c, 0, 64, 46
1, 291250, Control_c, 0, 64, 63
1, 291265, Control_c, 0, 64, 64
1, 291295, Control_c, 0, 64, 64
1, 291309, Control_c, 0, 64, 65
1, 291381, Note_on_c, 0, 67, 76
1, 291386, Note_on_c, 0, 79, 71
1, 291398, Control_c, 0, 64, 65
1, 291404, Note_off_c, 0, 67, 69
1, 291409, Note_off_c, 0, 79, 68
1, 291413, Note_off_c, 0, 53, 57
1, 291417, Note_off_c, 0, 41, 38
1, 291442, Control_c, 0, 64, 65
1, 291457, Control_c, 0, 64, 64
1, 291472, Control_c, 0, 64, 64
1, 291487, Control_c, 0, 64, 63
1, 291501, Control_c, 0, 64, 59
1, 291516, Control_c, 0, 64, 48
1, 291531, Control_c, 0, 64, 0
1, 291593, Note_on_c, 0, 80, 85
1, 291594, Note_on_c, 0, 68, 86
1, 291596, Note_on_c, 0, 41, 74
1, 291604, Note_on_c, 0, 53, 69
1, 291615, Note_off_c, 0, 68, 71
1, 291627, Note_off_c, 0, 80, 58
1, 291639, Note_off_c, 0, 53, 64
1, 291649, Note_off_c, 0, 41, 63
1, 291824, Note_on_c, 0, 70, 85
1, 291825, Note_on_c, 0, 82, 89
1, 291828, Note_on_c, 0, 55, 72
1, 291832, Note_on_c, 0, 43, 70
1, 291843, Note_off_c, 0, 70, 72
1, 291853, Note_off_c, 0, 82, 59
1, 291857, Note_off_c, 0, 55, 66
1, 291861, Note_off_c, 0, 43, 62
1, 292035, Note_on_c, 0, 56, 78
1, 292036, Note_on_c, 0, 44, 69
1, 292040, Note_on_c, 0, 72, 88
1, 292040, Note_on_c, 0, 84, 90
1, 292079, Note_off_c, 0, 56, 60
1, 292085, Note_off_c, 0, 44, 61
1, 292250, Note_on_c, 0, 58, 91
1, 292259, Note_on_c, 0, 46, 83
1, 292281, Note_off_c, 0, 84, 63
1, 292295, Note_off_c, 0, 58, 63
1, 292297, Note_off_c, 0, 46, 65
1, 292298, Note_off_c, 0, 72, 64
1, 292479, Note_on_c, 0, 69, 88
1, 292479, Note_on_c, 0, 81, 85
1, 292483, Note_on_c, 0, 60, 87
1, 292487, Note_on_c, 0, 48, 79
1, 292506, Note_off_c, 0, 69, 64
1, 292524, Note_off_c, 0, 81, 63
1, 292708, Note_on_c, 0, 71, 84
1, 292708, Note_on_c, 0, 83, 87
1, 292735, Note_off_c, 0, 71, 62
1, 292746, Note_off_c, 0, 83, 62
1, 292773, Note_off_c, 0, 60, 60
1, 292785, Note_off_c, 0, 48, 65
1, 292913, Note_on_c, 0, 57, 82
1, 292919, Note_on_c, 0, 45, 79
1, 292920, Note_on_c, 0, 72, 91
1, 292922, Note_on_c, 0, 84, 90
1, 292950, Note_off_c, 0, 72, 66
1, 292960, Note_off_c, 0, 84, 67
1, 292967, Note_off_c, 0, 45, 60
1, 292970, Note_off_c, 0, 57, 61
1, 293137, Note_on_c, 0, 74, 86
1, 293139, Note_on_c, 0, 86, 93
1, 293140, Note_on_c, 0, 59, 81
1, 293141, Note_on_c, 0, 47, 79
1, 293164, Note_off_c, 0, 74, 68
1, 293170, Note_off_c, 0, 86, 67
1, 293194, Note_off_c, 0, 59, 62
1, 293200, Note_off_c, 0, 47, 63
1, 293367, Note_on_c, 0, 75, 98
1, 293367, Note_on_c, 0, 87, 95
1, 293373, Note_on_c, 0, 60, 89
1, 293376, Note_on_c, 0, 48, 88
1, 293427, Note_off_c, 0, 60, 58
1, 293449, Note_off_c, 0, 48, 63
1, 293483, Control_c, 0, 64, 43
1, 293497, Control_c, 0, 64, 61
1, 293512, Control_c, 0, 64, 63
1, 293542, Control_c, 0, 64, 64
1, 293556, Control_c, 0, 64, 65
1, 293571, Control_c, 0, 64, 65
1, 293586, Control_c, 0, 64, 66
1, 293602, Control_c, 0, 64, 66
1, 293602, Note_on_c, 0, 62, 98
1, 293607, Note_on_c, 0, 50, 88
1, 293611, Note_off_c, 0, 87, 63
1, 293623, Note_off_c, 0, 75, 62
1, 293646, Note_off_c, 0, 62, 63
1, 293647, Note_off_c, 0, 50, 56
1, 293691, Control_c, 0, 64, 66
1, 293705, Control_c, 0, 64, 65
1, 293720, Control_c, 0, 64, 63
1, 293735, Control_c, 0, 64, 60
1, 293749, Control_c, 0, 64, 50
1, 293764, Control_c, 0, 64, 0
1, 293819, Note_on_c, 0, 63, 97
1, 293819, Note_on_c, 0, 71, 86
1, 293820, Note_on_c, 0, 83, 87
1, 293824, Note_on_c, 0, 51, 84
1, 293857, Note_off_c, 0, 71, 61
1, 293864, Note_off_c, 0, 83, 62
1, 294054, Note_on_c, 0, 72, 85
1, 294057, Note_on_c, 0, 84, 89
1, 294089, Note_off_c, 0, 72, 65
1, 294095, Note_off_c, 0, 84, 66
1, 294112, Note_off_c, 0, 63, 63
1, 294142, Note_off_c, 0, 51, 62
1, 294264, Note_on_c, 0, 59, 79
1, 294265, Note_on_c, 0, 74, 89
1, 294268, Note_on_c, 0, 86, 88
1, 294270, Note_on_c, 0, 47, 75
1, 294300, Note_off_c, 0, 74, 66
1, 294304, Note_off_c, 0, 86, 65
1, 294311, Note_off_c, 0, 47, 65
1, 294315, Note_off_c, 0, 59, 61
1, 294475, Note_on_c, 0, 87, 95
1, 294476, Note_on_c, 0, 75, 90
1, 294478, Note_on_c, 0, 60, 84
1, 294484, Note_on_c, 0, 48, 80
1, 294499, Note_off_c, 0, 75, 66
1, 294520, Note_off_c, 0, 87, 63
1, 294526, Note_off_c, 0, 48, 63
1, 294529, Note_off_c, 0, 60, 61
1, 294699, Note_on_c, 0, 62, 89
1, 294699, Note_on_c, 0, 89, 97
1, 294700, Note_on_c, 0, 77, 95
1, 294701, Note_on_c, 0, 50, 82
1, 294738, Note_off_c, 0, 77, 64
1, 294742, Note_off_c, 0, 89, 66
1, 294747, Note_off_c, 0, 50, 60
1, 294748, Note_off_c, 0, 62, 62
1, 294903, Note_on_c, 0, 63, 88
1, 294909, Note_on_c, 0, 51, 75
1, 294912, Note_on_c, 0, 79, 97
1, 294914, Note_on_c, 0, 91, 96
1, 294947, Note_off_c, 0, 79, 63
1, 294951, Note_off_c, 0, 63, 64
1, 294952, Note_off_c, 0, 91, 62
1, 294967, Note_off_c, 0, 51, 61
1, 294977, Note_on_c, 0, 90, 3
1, 294978, Note_off_c, 0, 90, 127
1, 295132, Note_on_c, 0, 80, 95
1, 295134, Note_on_c, 0, 92, 94
1, 295137, Note_on_c, 0, 65, 96
1, 295140, Note_on_c, 0, 53, 91
1, 295182, Note_off_c, 0, 65, 67
1, 295188, Note_off_c, 0, 53, 64
1, 295356, Note_on_c, 0, 67, 95
1, 295361, Note_on_c, 0, 55, 88
1, 295396, Note_off_c, 0, 55, 68
1, 295396, Note_off_c, 0, 67, 64
1, 295602, Note_on_c, 0, 68, 97
1, 295614, Note_on_c, 0, 56, 80
1, 295643, Note_off_c, 0, 80, 61
1, 295644, Note_off_c, 0, 92, 63
1, 295817, Note_on_c, 0, 91, 72
1, 295826, Note_on_c, 0, 79, 68
1, 295859, Note_off_c, 0, 79, 60
1, 295869, Note_off_c, 0, 91, 59
1, 296037, Note_on_c, 0, 89, 71
1, 296043, Note_on_c, 0, 77, 68
1, 296073, Note_off_c, 0, 77, 64
1, 296074, Note_off_c, 0, 89, 64
1, 296088, Note_off_c, 0, 68, 61
1, 296096, Note_off_c, 0, 56, 57
1, 296240, Control_c, 0, 64, 13
1, 296255, Control_c, 0, 64, 18
1, 296262, Note_on_c, 0, 67, 52
1, 296264, Note_on_c, 0, 87, 65
1, 296265, Note_on_c, 0, 75, 62
1, 296267, Note_on_c, 0, 55, 46
1, 296296, Note_off_c, 0, 75, 66
1, 296296, Note_off_c, 0, 67, 60
1, 296306, Note_off_c, 0, 87, 58
1, 296306, Note_off_c, 0, 55, 63
1, 296343, Control_c, 0, 64, 16
1, 296373, Control_c, 0, 64, 10
1, 296388, Control_c, 0, 64, 0
1, 296419, Control_c, 0, 64, 10
1, 296463, Control_c, 0, 64, 0
1, 296469, Note_on_c, 0, 86, 66
1, 296472, Note_on_c, 0, 74, 59
1, 296477, Note_on_c, 0, 53, 61
1, 296477, Note_on_c, 0, 65, 58
1, 296505, Note_off_c, 0, 74, 64
1, 296512, Note_off_c, 0, 65, 66
1, 296513, Note_off_c, 0, 53, 64
1, 296517, Note_off_c, 0, 86, 57
1, 296687, Note_on_c, 0, 63, 53
1, 296687, Note_on_c, 0, 84, 64
1, 296694, Note_on_c, 0, 51, 51
1, 296695, Note_on_c, 0, 72, 55
1, 296716, Note_off_c, 0, 72, 62
1, 296716, Note_off_c, 0, 84, 65
1, 296726, Note_off_c, 0, 63, 64
1, 296733, Note_off_c, 0, 51, 59
1, 296925, Note_on_c, 0, 62, 48
1, 296927, Note_on_c, 0, 50, 46
1, 296927, Note_on_c, 0, 83, 63
1, 296934, Note_on_c, 0, 71, 49
1, 296955, Note_off_c, 0, 71, 58
1, 296967, Note_off_c, 0, 83, 54
1, 296970, Note_off_c, 0, 62, 59
1, 296979, Note_off_c, 0, 50, 55
1, 297179, Note_on_c, 0, 60, 45
1, 297180, Note_on_c, 0, 72, 44
1, 297180, Note_on_c, 0, 84, 54
1, 297185, Note_on_c, 0, 48, 46
1, 297206, Note_off_c, 0, 72, 58
1, 297214, Note_off_c, 0, 84, 53
1, 297220, Note_off_c, 0, 60, 50
1, 297238, Note_off_c, 0, 48, 57
1, 297459, Note_on_c, 0, 47, 46
1, 297463, Note_on_c, 0, 59, 26
1, 297465, Control_c, 0, 64, 13
1, 297495, Control_c, 0, 64, 16
1, 297509, Note_off_c, 0, 47, 60
1, 297519, Note_off_c, 0, 59, 43
1, 297539, Control_c, 0, 64, 18
1, 297554, Control_c, 0, 64, 20
1, 297628, Control_c, 0, 64, 21
1, 297724, Control_c, 0, 64, 24
1, 297754, Control_c, 0, 64, 25
1, 297798, Control_c, 0, 64, 26
1, 297813, Control_c, 0, 64, 27
1, 297814, Note_on_c, 0, 48, 39
1, 297828, Control_c, 0, 64, 28
1, 297829, Note_on_c, 0, 60, 32
1, 297887, Control_c, 0, 64, 27
1, 297909, Note_off_c, 0, 48, 57
1, 297912, Note_off_c, 0, 60, 58
1, 297961, Control_c, 0, 64, 26
1, 297991, Control_c, 0, 64, 25
1, 298066, Control_c, 0, 64, 24
1, 298081, Control_c, 0, 64, 23
1, 298243, Control_c, 0, 64, 21
1, 298273, Control_c, 0, 64, 20
1, 298287, Control_c, 0, 64, 18
1, 298302, Control_c, 0, 64, 16
1, 298361, Control_c, 0, 64, 18
1, 298376, Control_c, 0, 64, 23
1, 298391, Control_c, 0, 64, 29
1, 298406, Control_c, 0, 64, 36
1, 298428, Control_c, 0, 64, 42
1, 298443, Control_c, 0, 64, 47
1, 298458, Control_c, 0, 64, 51
1, 298473, Control_c, 0, 64, 55
1, 298488, Control_c, 0, 64, 59
1, 298502, Control_c, 0, 64, 62
1, 298517, Control_c, 0, 64, 64
1, 298532, Control_c, 0, 64, 65
1, 298546, Control_c, 0, 64, 67
1, 298561, Control_c, 0, 64, 68
1, 298576, Control_c, 0, 64, 70
1, 298591, Control_c, 0, 64, 72
1, 298606, Control_c, 0, 64, 75
1, 298620, Control_c, 0, 64, 77
1, 298635, Control_c, 0, 64, 79
1, 298650, Control_c, 0, 64, 81
1, 298665, Control_c, 0, 64, 83
1, 298679, Control_c, 0, 64, 84
1, 298694, Control_c, 0, 64, 86
1, 298709, Control_c, 0, 64, 88
1, 298724, Control_c, 0, 64, 89
1, 298739, Control_c, 0, 64, 91
1, 298753, Control_c, 0, 64, 92
1, 298768, Control_c, 0, 64, 94
1, 298783, Control_c, 0, 64, 96
1, 298799, Control_c, 0, 64, 97
1, 298814, Control_c, 0, 64, 99
1, 298829, Control_c, 0, 64, 100
1, 298843, Control_c, 0, 64, 101
1, 298858, Control_c, 0, 64, 102
1, 298873, Control_c, 0, 64, 103
1, 298888, Control_c, 0, 64, 104
1, 298903, Control_c, 0, 64, 105
1, 298917, Control_c, 0, 64, 106
1, 298932, Control_c, 0, 64, 106
1, 298947, Control_c, 0, 64, 107
1, 298962, Control_c, 0, 64, 107
1, 298977, Control_c, 0, 64, 108
1, 298991, Control_c, 0, 64, 108
1, 299021, Control_c, 0, 64, 109
1, 299051, Control_c, 0, 64, 109
1, 299095, Control_c, 0, 64, 110
1, 299176, Control_c, 0, 64, 110
1, 299383, Note_on_c, 0, 63, 34
1, 299422, Note_on_c, 0, 36, 24
1, 299423, Note_on_c, 0, 55, 22
1, 299604, Note_off_c, 0, 36, 40
1, 299631, Note_on_c, 0, 67, 31
1, 299661, Note_off_c, 0, 63, 39
1, 299662, Note_off_c, 0, 55, 42
1, 299774, Note_off_c, 0, 67, 30
1, 299811, Note_on_c, 0, 63, 34
1, 299823, Note_on_c, 0, 55, 24
1, 299841, Note_on_c, 0, 36, 24
1, 299964, Note_off_c, 0, 36, 34
1, 299991, Note_off_c, 0, 55, 42
1, 300005, Note_off_c, 0, 63, 40
1, 300009, Note_on_c, 0, 67, 25
1, 300081, Note_off_c, 0, 67, 37
1, 300152, Note_on_c, 0, 63, 35
1, 300155, Note_on_c, 0, 36, 32
1, 300164, Note_on_c, 0, 55, 25
1, 300305, Note_off_c, 0, 36, 41
1, 300318, Note_off_c, 0, 55, 40
1, 300319, Note_on_c, 0, 67, 34
1, 300327, Note_off_c, 0, 63, 40
1, 300458, Note_off_c, 0, 67, 31
1, 300479, Note_on_c, 0, 63, 41
1, 300500, Note_on_c, 0, 36, 26
1, 300512, Note_on_c, 0, 55, 19
1, 300645, Note_off_c, 0, 55, 29
1, 300648, Note_off_c, 0, 36, 33
1, 300650, Note_off_c, 0, 63, 42
1, 300664, Note_on_c, 0, 67, 27
1, 300789, Note_off_c, 0, 67, 31
1, 300831, Note_on_c, 0, 63, 31
1, 300852, Note_on_c, 0, 36, 20
1, 300853, Note_on_c, 0, 55, 22
1, 300998, Note_off_c, 0, 36, 34
1, 301005, Note_off_c, 0, 63, 41
1, 301010, Note_off_c, 0, 55, 40
1, 301013, Note_on_c, 0, 67, 25
1, 301124, Note_off_c, 0, 67, 29
1, 301172, Note_on_c, 0, 63, 33
1, 301183, Note_on_c, 0, 36, 31
1, 301202, Note_on_c, 0, 55, 20
1, 301334, Note_off_c, 0, 36, 43
1, 301361, Note_on_c, 0, 67, 37
1, 301376, Note_off_c, 0, 63, 39
1, 301379, Note_off_c, 0, 55, 37
1, 301511, Control_c, 0, 64, 110
1, 301526, Control_c, 0, 64, 109
1, 301541, Control_c, 0, 64, 109
1, 301556, Control_c, 0, 64, 105
1, 301558, Note_off_c, 0, 67, 33
1, 301570, Control_c, 0, 64, 99
1, 301585, Control_c, 0, 64, 90
1, 301588, Note_on_c, 0, 62, 40
1, 301600, Control_c, 0, 64, 80
1, 301609, Note_on_c, 0, 55, 29
1, 301615, Control_c, 0, 64, 70
1, 301630, Control_c, 0, 64, 54
1, 301633, Note_on_c, 0, 35, 28
1, 301644, Control_c, 0, 64, 0
1, 301659, Control_c, 0, 64, 52
1, 301674, Control_c, 0, 64, 65
1, 301689, Control_c, 0, 64, 69
1, 301704, Control_c, 0, 64, 73
1, 301719, Control_c, 0, 64, 78
1, 301734, Control_c, 0, 64, 81
1, 301749, Control_c, 0, 64, 86
1, 301763, Control_c, 0, 64, 89
1, 301778, Control_c, 0, 64, 91
1, 301793, Control_c, 0, 64, 94
1, 301794, Note_on_c, 0, 67, 34
1, 301808, Control_c, 0, 64, 96
1, 301814, Note_off_c, 0, 62, 37
1, 301822, Note_off_c, 0, 55, 42
1, 301823, Control_c, 0, 64, 98
1, 301837, Control_c, 0, 64, 100
1, 301841, Note_off_c, 0, 35, 39
1, 301852, Control_c, 0, 64, 101
1, 301867, Control_c, 0, 64, 103
1, 301882, Control_c, 0, 64, 103
1, 301896, Control_c, 0, 64, 104
1, 301911, Control_c, 0, 64, 104
1, 301926, Control_c, 0, 64, 105
1, 301941, Control_c, 0, 64, 105
1, 301949, Note_off_c, 0, 67, 38
1, 301970, Control_c, 0, 64, 106
1, 301974, Note_on_c, 0, 62, 34
1, 301986, Control_c, 0, 64, 106
1, 301990, Note_on_c, 0, 55, 26
1, 302001, Note_on_c, 0, 35, 37
1, 302155, Note_off_c, 0, 35, 42
1, 302171, Note_off_c, 0, 62, 38
1, 302172, Note_on_c, 0, 67, 30
1, 302173, Note_off_c, 0, 55, 40
1, 302291, Note_off_c, 0, 67, 31
1, 302320, Note_on_c, 0, 62, 36
1, 302329, Note_on_c, 0, 55, 34
1, 302330, Note_on_c, 0, 35, 36
1, 302493, Note_off_c, 0, 62, 41
1, 302497, Note_off_c, 0, 55, 34
1, 302506, Note_on_c, 0, 67, 34
1, 302512, Note_off_c, 0, 35, 39
1, 302651, Note_off_c, 0, 67, 26
1, 302656, Note_on_c, 0, 62, 36
1, 302671, Note_on_c, 0, 35, 37
1, 302673, Note_on_c, 0, 55, 27
1, 302830, Note_off_c, 0, 35, 42
1, 302837, Note_on_c, 0, 67, 26
1, 302843, Note_off_c, 0, 55, 39
1, 302843, Note_off_c, 0, 62, 38
1, 302989, Note_off_c, 0, 67, 32
1, 303008, Note_on_c, 0, 62, 35
1, 303030, Note_on_c, 0, 35, 29
1, 303030, Note_on_c, 0, 55, 24
1, 303186, Note_off_c, 0, 62, 41
1, 303192, Note_off_c, 0, 55, 38
1, 303200, Note_on_c, 0, 67, 25
1, 303205, Note_off_c, 0, 35, 37
1, 303332, Note_off_c, 0, 67, 28
1, 303368, Note_on_c, 0, 62, 37
1, 303377, Note_on_c, 0, 35, 36
1, 303390, Note_on_c, 0, 55, 14
1, 303538, Note_on_c, 0, 67, 30
1, 303549, Note_off_c, 0, 55, 23
1, 303553, Note_off_c, 0, 62, 33
1, 303554, Note_off_c, 0, 35, 41
1, 303714, Control_c, 0, 64, 106
1, 303719, Note_off_c, 0, 67, 35
1, 303744, Control_c, 0, 64, 105
1, 303758, Control_c, 0, 64, 103
1, 303773, Control_c, 0, 64, 99
1, 303788, Control_c, 0, 64, 90
1, 303792, Note_on_c, 0, 64, 41
1, 303803, Note_on_c, 0, 61, 38
1, 303803, Control_c, 0, 64, 78
1, 303809, Note_on_c, 0, 34, 35
1, 303818, Control_c, 0, 64, 65
1, 303832, Control_c, 0, 64, 0
1, 303872, Poly_aftertouch_c, 0, 55, 127
1, 303892, Control_c, 0, 64, 59
1, 303907, Control_c, 0, 64, 68
1, 303922, Control_c, 0, 64, 74
1, 303937, Control_c, 0, 64, 79
1, 303952, Control_c, 0, 64, 82
1, 303966, Control_c, 0, 64, 85
1, 303981, Control_c, 0, 64, 88
1, 303996, Control_c, 0, 64, 91
1, 304011, Control_c, 0, 64, 94
1, 304016, Note_on_c, 0, 67, 36
1, 304017, Poly_aftertouch_c, 0, 55, 0
1, 304026, Control_c, 0, 64, 96
1, 304032, Note_off_c, 0, 64, 37
1, 304033, Note_off_c, 0, 61, 37
1, 304039, Note_off_c, 0, 34, 41
1, 304040, Control_c, 0, 64, 98
1, 304055, Control_c, 0, 64, 100
1, 304070, Control_c, 0, 64, 101
1, 304084, Control_c, 0, 64, 102
1, 304099, Control_c, 0, 64, 103
1, 304114, Control_c, 0, 64, 104
1, 304129, Control_c, 0, 64, 104
1, 304142, Note_off_c, 0, 67, 31
1, 304144, Control_c, 0, 64, 105
1, 304158, Control_c, 0, 64, 105
1, 304172, Note_on_c, 0, 64, 46
1, 304173, Control_c, 0, 64, 106
1, 304176, Note_on_c, 0, 61, 36
1, 304181, Note_on_c, 0, 34, 39
1, 304188, Control_c, 0, 64, 106
1, 304196, Note_on_c, 0, 55, 24
1, 304333, Note_off_c, 0, 61, 36
1, 304333, Note_off_c, 0, 64, 55
1, 304339, Note_off_c, 0, 55, 28
1, 304350, Note_off_c, 0, 34, 41
1, 304353, Note_on_c, 0, 67, 37
1, 304502, Note_on_c, 0, 34, 40
1, 304502, Note_on_c, 0, 64, 44
1, 304506, Note_off_c, 0, 67, 27
1, 304507, Note_on_c, 0, 61, 40
1, 304527, Note_on_c, 0, 55, 26
1, 304593, Note_off_c, 0, 55, 40
1, 304634, Note_off_c, 0, 61, 35
1, 304668, Note_on_c, 0, 67, 37
1, 304682, Note_off_c, 0, 34, 42
1, 304683, Note_off_c, 0, 64, 41
1, 304804, Note_off_c, 0, 67, 31
1, 304828, Note_on_c, 0, 64, 40
1, 304844, Note_on_c, 0, 34, 27
1, 304854, Note_on_c, 0, 61, 36
1, 304897, Poly_aftertouch_c, 0, 55, 127
1, 304969, Note_off_c, 0, 61, 42
1, 304970, Poly_aftertouch_c, 0, 55, 0
1, 304974, Note_off_c, 0, 64, 54
1, 305004, Note_on_c, 0, 67, 34
1, 305024, Note_off_c, 0, 34, 39
1, 305111, Note_off_c, 0, 67, 35
1, 305180, Note_on_c, 0, 34, 39
1, 305188, Note_on_c, 0, 64, 40
1, 305192, Note_on_c, 0, 61, 31
1, 305215, Note_on_c, 0, 55, 15
1, 305300, Note_off_c, 0, 55, 33
1, 305337, Note_off_c, 0, 64, 49
1, 305346, Note_off_c, 0, 61, 36
1, 305350, Note_off_c, 0, 34, 36
1, 305359, Note_on_c, 0, 67, 40
1, 305442, Note_off_c, 0, 67, 47
1, 305507, Note_on_c, 0, 34, 40
1, 305514, Note_on_c, 0, 61, 39
1, 305514, Note_on_c, 0, 64, 42
1, 305573, Poly_aftertouch_c, 0, 55, 127
1, 305642, Poly_aftertouch_c, 0, 55, 0
1, 305666, Note_off_c, 0, 64, 52
1, 305678, Note_off_c, 0, 61, 32
1, 305680, Note_off_c, 0, 34, 32
1, 305689, Note_on_c, 0, 67, 40
1, 305833, Control_c, 0, 64, 106
1, 305848, Control_c, 0, 64, 105
1, 305862, Control_c, 0, 64, 103
1, 305877, Note_off_c, 0, 67, 39
1, 305877, Control_c, 0, 64, 99
1, 305887, Note_on_c, 0, 60, 45
1, 305892, Control_c, 0, 64, 90
1, 305893, Note_on_c, 0, 64, 43
1, 305915, Control_c, 0, 64, 78
1, 305919, Note_on_c, 0, 55, 27
1, 305921, Note_on_c, 0, 33, 41
1, 305930, Control_c, 0, 64, 63
1, 305944, Control_c, 0, 64, 0
1, 305990, Control_c, 0, 64, 18
1, 306005, Control_c, 0, 64, 64
1, 306020, Control_c, 0, 64, 71
1, 306034, Control_c, 0, 64, 76
1, 306049, Control_c, 0, 64, 81
1, 306064, Control_c, 0, 64, 83
1, 306079, Control_c, 0, 64, 86
1, 306094, Control_c, 0, 64, 88
1, 306108, Control_c, 0, 64, 90
1, 306112, Note_on_c, 0, 67, 34
1, 306118, Note_off_c, 0, 55, 19
1, 306123, Control_c, 0, 64, 92
1, 306138, Control_c, 0, 64, 94
1, 306140, Note_off_c, 0, 64, 36
1, 306143, Note_off_c, 0, 33, 43
1, 306143, Note_off_c, 0, 60, 35
1, 306153, Control_c, 0, 64, 96
1, 306167, Control_c, 0, 64, 97
1, 306182, Control_c, 0, 64, 97
1, 306197, Control_c, 0, 64, 98
1, 306212, Control_c, 0, 64, 98
1, 306227, Control_c, 0, 64, 99
1, 306256, Control_c, 0, 64, 99
1, 306267, Note_off_c, 0, 67, 39
1, 306274, Note_on_c, 0, 64, 42
1, 306274, Note_on_c, 0, 55, 22
1, 306281, Note_on_c, 0, 33, 37
1, 306286, Note_on_c, 0, 60, 35
1, 306424, Note_off_c, 0, 64, 52
1, 306433, Note_on_c, 0, 67, 37
1, 306435, Note_off_c, 0, 33, 33
1, 306450, Note_off_c, 0, 55, 37
1, 306479, Note_off_c, 0, 60, 24
1, 306612, Control_c, 0, 64, 98
1, 306625, Note_on_c, 0, 60, 37
1, 306626, Control_c, 0, 64, 92
1, 306636, Note_on_c, 0, 65, 45
1, 306641, Control_c, 0, 64, 81
1, 306644, Note_on_c, 0, 55, 28
1, 306644, Note_off_c, 0, 67, 39
1, 306661, Note_on_c, 0, 33, 36
1, 306664, Control_c, 0, 64, 66
1, 306678, Control_c, 0, 64, 0
1, 306738, Control_c, 0, 64, 56
1, 306753, Control_c, 0, 64, 67
1, 306767, Control_c, 0, 64, 73
1, 306783, Control_c, 0, 64, 78
1, 306798, Control_c, 0, 64, 81
1, 306813, Control_c, 0, 64, 84
1, 306828, Control_c, 0, 64, 86
1, 306836, Note_on_c, 0, 67, 33
1, 306843, Control_c, 0, 64, 89
1, 306846, Note_off_c, 0, 65, 37
1, 306853, Note_off_c, 0, 55, 40
1, 306857, Control_c, 0, 64, 92
1, 306868, Note_off_c, 0, 33, 43
1, 306872, Control_c, 0, 64, 93
1, 306879, Note_off_c, 0, 60, 27
1, 306887, Control_c, 0, 64, 95
1, 306902, Control_c, 0, 64, 96
1, 306916, Control_c, 0, 64, 97
1, 306931, Control_c, 0, 64, 98
1, 306946, Control_c, 0, 64, 100
1, 306961, Control_c, 0, 64, 101
1, 306976, Control_c, 0, 64, 102
1, 306987, Note_on_c, 0, 60, 35
1, 306988, Note_on_c, 0, 55, 35
1, 306990, Control_c, 0, 64, 103
1, 306992, Note_on_c, 0, 65, 46
1, 306995, Note_off_c, 0, 67, 39
1, 306999, Note_on_c, 0, 33, 41
1, 307005, Control_c, 0, 64, 103
1, 307020, Control_c, 0, 64, 104
1, 307050, Control_c, 0, 64, 104
1, 307133, Note_off_c, 0, 55, 27
1, 307147, Note_off_c, 0, 60, 27
1, 307150, Note_on_c, 0, 67, 37
1, 307161, Note_off_c, 0, 65, 38
1, 307174, Note_off_c, 0, 33, 40
1, 307297, Note_off_c, 0, 67, 33
1, 307311, Note_on_c, 0, 65, 41
1, 307320, Note_on_c, 0, 60, 40
1, 307326, Note_on_c, 0, 33, 39
1, 307332, Note_on_c, 0, 55, 20
1, 307417, Note_off_c, 0, 55, 37
1, 307429, Note_off_c, 0, 60, 39
1, 307460, Note_off_c, 0, 33, 38
1, 307472, Note_off_c, 0, 65, 51
1, 307484, Note_on_c, 0, 67, 41
1, 307641, Note_on_c, 0, 33, 40
1, 307641, Note_off_c, 0, 67, 32
1, 307644, Note_on_c, 0, 60, 42
1, 307655, Note_on_c, 0, 65, 38
1, 307675, Note_on_c, 0, 55, 14
1, 307732, Note_off_c, 0, 55, 42
1, 307803, Note_off_c, 0, 65, 55
1, 307806, Note_off_c, 0, 60, 28
1, 307807, Note_off_c, 0, 33, 38
1, 307820, Note_on_c, 0, 67, 40
1, 307977, Control_c, 0, 64, 104
1, 307992, Control_c, 0, 64, 102
1, 308006, Control_c, 0, 64, 99
1, 308013, Note_off_c, 0, 67, 40
1, 308018, Note_on_c, 0, 66, 51
1, 308021, Control_c, 0, 64, 91
1, 308024, Note_on_c, 0, 60, 39
1, 308036, Control_c, 0, 64, 79
1, 308041, Note_on_c, 0, 32, 39
1, 308048, Note_on_c, 0, 55, 22
1, 308050, Control_c, 0, 64, 64
1, 308065, Control_c, 0, 64, 0
1, 308125, Control_c, 0, 64, 60
1, 308140, Control_c, 0, 64, 68
1, 308162, Control_c, 0, 64, 74
1, 308177, Control_c, 0, 64, 79
1, 308192, Control_c, 0, 64, 82
1, 308204, Note_off_c, 0, 55, 21
1, 308206, Control_c, 0, 64, 85
1, 308216, Note_on_c, 0, 67, 35
1, 308221, Control_c, 0, 64, 87
1, 308233, Note_off_c, 0, 66, 36
1, 308236, Control_c, 0, 64, 90
1, 308247, Note_off_c, 0, 60, 23
1, 308251, Control_c, 0, 64, 93
1, 308256, Note_off_c, 0, 32, 41
1, 308265, Control_c, 0, 64, 94
1, 308280, Control_c, 0, 64, 96
1, 308295, Control_c, 0, 64, 97
1, 308310, Control_c, 0, 64, 98
1, 308325, Control_c, 0, 64, 99
1, 308340, Control_c, 0, 64, 99
1, 308354, Control_c, 0, 64, 100
1, 308365, Note_on_c, 0, 66, 52
1, 308369, Control_c, 0, 64, 100
1, 308385, Control_c, 0, 64, 101
1, 308387, Note_off_c, 0, 67, 39
1, 308392, Note_on_c, 0, 60, 43
1, 308393, Note_on_c, 0, 32, 36
1, 308394, Note_on_c, 0, 55, 26
1, 308415, Control_c, 0, 64, 101
1, 308444, Control_c, 0, 64, 102
1, 308464, Note_off_c, 0, 60, 44
1, 308502, Note_off_c, 0, 55, 30
1, 308532, Note_on_c, 0, 67, 36
1, 308534, Note_off_c, 0, 66, 53
1, 308560, Note_off_c, 0, 32, 40
1, 308686, Note_on_c, 0, 66, 48
1, 308690, Note_off_c, 0, 67, 31
1, 308703, Note_on_c, 0, 32, 34
1, 308703, Note_on_c, 0, 60, 41
1, 308730, Note_on_c, 0, 55, 22
1, 308814, Note_off_c, 0, 60, 37
1, 308819, Note_off_c, 0, 55, 33
1, 308854, Note_on_c, 0, 67, 35
1, 308876, Note_off_c, 0, 66, 38
1, 308883, Note_off_c, 0, 32, 34
1, 309026, Note_on_c, 0, 66, 46
1, 309041, Note_on_c, 0, 60, 36
1, 309044, Note_off_c, 0, 67, 39
1, 309046, Note_on_c, 0, 32, 33
1, 309076, Note_on_c, 0, 55, 7
1, 309183, Note_on_c, 0, 67, 37
1, 309189, Note_off_c, 0, 66, 54
1, 309199, Note_off_c, 0, 55, 27
1, 309215, Note_off_c, 0, 60, 25
1, 309226, Note_off_c, 0, 32, 39
1, 309359, Note_off_c, 0, 67, 40
1, 309371, Note_on_c, 0, 66, 41
1, 309380, Note_on_c, 0, 60, 39
1, 309382, Note_on_c, 0, 32, 28
1, 309400, Note_on_c, 0, 55, 11
1, 309486, Note_off_c, 0, 55, 34
1, 309524, Note_off_c, 0, 60, 28
1, 309550, Note_off_c, 0, 66, 39
1, 309551, Note_on_c, 0, 67, 37
1, 309568, Note_off_c, 0, 32, 39
1, 309681, Note_off_c, 0, 67, 37
1, 309701, Note_on_c, 0, 66, 43
1, 309709, Note_on_c, 0, 60, 35
1, 309720, Note_on_c, 0, 32, 37
1, 309767, Poly_aftertouch_c, 0, 55, 127
1, 309797, Note_off_c, 0, 60, 48
1, 309827, Note_off_c, 0, 66, 57
1, 309840, Poly_aftertouch_c, 0, 55, 0
1, 309863, Note_on_c, 0, 67, 40
1, 309893, Note_off_c, 0, 32, 29
1, 310015, Control_c, 0, 64, 101
1, 310030, Control_c, 0, 64, 99
1, 310031, Note_off_c, 0, 67, 19
1, 310045, Control_c, 0, 64, 93
1, 310051, Note_on_c, 0, 62, 43
1, 310060, Control_c, 0, 64, 85
1, 310075, Control_c, 0, 64, 70
1, 310076, Note_on_c, 0, 59, 29
1, 310080, Note_on_c, 0, 31, 30
1, 310090, Control_c, 0, 64, 13
1, 310097, Note_on_c, 0, 55, 10
1, 310105, Control_c, 0, 64, 0
1, 310149, Control_c, 0, 64, 26
1, 310164, Control_c, 0, 64, 64
1, 310179, Control_c, 0, 64, 69
1, 310194, Control_c, 0, 64, 73
1, 310209, Control_c, 0, 64, 77
1, 310224, Control_c, 0, 64, 80
1, 310238, Control_c, 0, 64, 83
1, 310244, Note_on_c, 0, 67, 45
1, 310253, Control_c, 0, 64, 85
1, 310266, Note_off_c, 0, 55, 23
1, 310268, Control_c, 0, 64, 88
1, 310271, Note_off_c, 0, 62, 33
1, 310283, Control_c, 0, 64, 89
1, 310289, Note_off_c, 0, 59, 38
1, 310289, Note_off_c, 0, 31, 40
1, 310298, Control_c, 0, 64, 91
1, 310313, Control_c, 0, 64, 92
1, 310327, Control_c, 0, 64, 94
1, 310342, Control_c, 0, 64, 95
1, 310357, Control_c, 0, 64, 96
1, 310372, Control_c, 0, 64, 96
1, 310387, Control_c, 0, 64, 97
1, 310409, Note_off_c, 0, 67, 29
1, 310414, Note_on_c, 0, 62, 45
1, 310422, Note_on_c, 0, 55, 33
1, 310422, Note_on_c, 0, 59, 43
1, 310423, Control_c, 0, 64, 97
1, 310429, Note_on_c, 0, 31, 41
1, 310453, Control_c, 0, 64, 98
1, 310542, Control_c, 0, 64, 98
1, 310593, Note_off_c, 0, 55, 33
1, 310600, Note_off_c, 0, 31, 39
1, 310605, Note_on_c, 0, 67, 41
1, 310632, Note_off_c, 0, 59, 39
1, 310638, Note_off_c, 0, 62, 35
1, 310778, Note_off_c, 0, 67, 39
1, 310839, Control_c, 0, 64, 97
1, 310854, Control_c, 0, 64, 95
1, 310869, Control_c, 0, 64, 88
1, 310875, Note_on_c, 0, 59, 43
1, 310884, Control_c, 0, 64, 78
1, 310885, Note_on_c, 0, 62, 42
1, 310885, Note_on_c, 0, 29, 48
1, 310896, Note_on_c, 0, 55, 37
1, 310899, Control_c, 0, 64, 63
1, 310914, Control_c, 0, 64, 0
1, 310973, Control_c, 0, 64, 38
1, 310981, Note_off_c, 0, 55, 33
1, 310988, Control_c, 0, 64, 64
1, 311003, Control_c, 0, 64, 70
1, 311018, Control_c, 0, 64, 74
1, 311032, Control_c, 0, 64, 79
1, 311047, Control_c, 0, 64, 82
1, 311062, Control_c, 0, 64, 84
1, 311076, Control_c, 0, 64, 86
1, 311090, Note_on_c, 0, 68, 49
1, 311091, Control_c, 0, 64, 88
1, 311106, Control_c, 0, 64, 90
1, 311111, Note_off_c, 0, 62, 36
1, 311121, Control_c, 0, 64, 92
1, 311124, Note_off_c, 0, 59, 40
1, 311135, Note_off_c, 0, 29, 41
1, 311136, Control_c, 0, 64, 93
1, 311158, Control_c, 0, 64, 95
1, 311173, Control_c, 0, 64, 96
1, 311188, Control_c, 0, 64, 96
1, 311203, Control_c, 0, 64, 97
1, 311218, Control_c, 0, 64, 97
1, 311232, Control_c, 0, 64, 98
1, 311234, Note_off_c, 0, 68, 35
1, 311247, Control_c, 0, 64, 98
1, 311270, Note_on_c, 0, 29, 46
1, 311279, Note_on_c, 0, 59, 30
1, 311279, Note_on_c, 0, 62, 38
1, 311291, Control_c, 0, 64, 99
1, 311309, Note_on_c, 0, 55, 21
1, 311353, Note_off_c, 0, 55, 47
1, 311430, Note_off_c, 0, 59, 35
1, 311437, Note_on_c, 0, 68, 40
1, 311443, Note_off_c, 0, 29, 42
1, 311458, Note_off_c, 0, 62, 33
1, 311538, Note_off_c, 0, 68, 38
1, 311589, Note_on_c, 0, 59, 30
1, 311594, Note_on_c, 0, 62, 43
1, 311599, Note_on_c, 0, 29, 36
1, 311634, Note_on_c, 0, 55, 4
1, 311691, Note_off_c, 0, 55, 45
1, 311745, Note_off_c, 0, 29, 31
1, 311750, Note_on_c, 0, 68, 37
1, 311756, Note_off_c, 0, 59, 40
1, 311767, Note_off_c, 0, 62, 33
1, 311875, Note_off_c, 0, 68, 33
1, 311920, Note_on_c, 0, 59, 29
1, 311921, Note_on_c, 0, 62, 37
1, 311938, Note_on_c, 0, 29, 22
1, 311942, Note_on_c, 0, 55, 17
1, 311991, Note_off_c, 0, 55, 46
1, 312057, Note_off_c, 0, 59, 33
1, 312074, Note_off_c, 0, 62, 35
1, 312085, Note_off_c, 0, 29, 35
1, 312086, Note_on_c, 0, 68, 36
1, 312168, Note_off_c, 0, 68, 39
1, 312237, Note_on_c, 0, 62, 34
1, 312242, Note_on_c, 0, 59, 37
1, 312245, Note_on_c, 0, 29, 29
1, 312283, Poly_aftertouch_c, 0, 55, 127
1, 312325, Poly_aftertouch_c, 0, 55, 0
1, 312387, Note_off_c, 0, 29, 33
1, 312404, Note_on_c, 0, 68, 39
1, 312404, Note_off_c, 0, 59, 39
1, 312414, Note_off_c, 0, 62, 38
1, 312528, Note_off_c, 0, 68, 32
1, 312549, Note_on_c, 0, 59, 30
1, 312558, Note_on_c, 0, 62, 36
1, 312561, Note_on_c, 0, 29, 37
1, 312614, Poly_aftertouch_c, 0, 55, 127
1, 312652, Poly_aftertouch_c, 0, 55, 0
1, 312701, Note_off_c, 0, 29, 31
1, 312750, Note_on_c, 0, 68, 33
1, 312759, Note_off_c, 0, 62, 39
1, 312766, Note_off_c, 0, 59, 38
1, 312808, Note_off_c, 0, 68, 44
1, 312910, Note_on_c, 0, 59, 33
1, 312920, Note_on_c, 0, 62, 30
1, 312922, Control_c, 0, 64, 98
1, 312937, Control_c, 0, 64, 96
1, 312948, Note_on_c, 0, 55, 32
1, 312952, Note_on_c, 0, 32, 35
1, 312952, Control_c, 0, 64, 88
1, 312967, Control_c, 0, 64, 77
1, 312982, Control_c, 0, 64, 64
1, 312996, Control_c, 0, 64, 0
1, 313041, Control_c, 0, 64, 62
1, 313055, Control_c, 0, 64, 68
1, 313069, Control_c, 0, 64, 73
1, 313080, Note_off_c, 0, 55, 25
1, 313084, Control_c, 0, 64, 76
1, 313086, Note_off_c, 0, 59, 33
1, 313088, Note_on_c, 0, 65, 48
1, 313099, Control_c, 0, 64, 79
1, 313114, Control_c, 0, 64, 82
1, 313115, Note_off_c, 0, 32, 39
1, 313121, Note_off_c, 0, 62, 35
1, 313128, Control_c, 0, 64, 84
1, 313143, Control_c, 0, 64, 86
1, 313158, Control_c, 0, 64, 88
1, 313174, Control_c, 0, 64, 90
1, 313189, Control_c, 0, 64, 91
1, 313204, Control_c, 0, 64, 92
1, 313218, Control_c, 0, 64, 93
1, 313233, Control_c, 0, 64, 93
1, 313248, Control_c, 0, 64, 94
1, 313249, Note_on_c, 0, 32, 41
1, 313252, Note_on_c, 0, 59, 34
1, 313252, Note_off_c, 0, 65, 28
1, 313263, Control_c, 0, 64, 94
1, 313273, Note_on_c, 0, 62, 33
1, 313291, Poly_aftertouch_c, 0, 55, 127
1, 313307, Control_c, 0, 64, 95
1, 313366, Poly_aftertouch_c, 0, 55, 0
1, 313403, Note_off_c, 0, 32, 33
1, 313416, Note_on_c, 0, 65, 42
1, 313469, Note_off_c, 0, 59, 32
1, 313479, Note_off_c, 0, 62, 33
1, 313514, Note_off_c, 0, 65, 49
1, 313566, Control_c, 0, 64, 92
1, 313581, Control_c, 0, 64, 87
1, 313596, Control_c, 0, 64, 77
1, 313598, Note_on_c, 0, 31, 37
1, 313598, Note_on_c, 0, 62, 33
1, 313600, Note_on_c, 0, 59, 40
1, 313611, Control_c, 0, 64, 62
1, 313616, Note_on_c, 0, 55, 15
1, 313625, Control_c, 0, 64, 0
1, 313669, Control_c, 0, 64, 51
1, 313678, Note_off_c, 0, 55, 39
1, 313684, Control_c, 0, 64, 65
1, 313699, Control_c, 0, 64, 70
1, 313714, Control_c, 0, 64, 73
1, 313729, Control_c, 0, 64, 76
1, 313744, Control_c, 0, 64, 79
1, 313759, Control_c, 0, 64, 81
1, 313762, Note_on_c, 0, 67, 48
1, 313774, Control_c, 0, 64, 83
1, 313779, Note_off_c, 0, 31, 39
1, 313789, Control_c, 0, 64, 85
1, 313804, Control_c, 0, 64, 87
1, 313806, Note_off_c, 0, 59, 16
1, 313818, Control_c, 0, 64, 88
1, 313819, Note_off_c, 0, 62, 34
1, 313833, Control_c, 0, 64, 88
1, 313848, Control_c, 0, 64, 89
1, 313863, Control_c, 0, 64, 90
1, 313878, Control_c, 0, 64, 90
1, 313893, Control_c, 0, 64, 91
1, 313900, Note_off_c, 0, 67, 30
1, 313908, Control_c, 0, 64, 91
1, 313921, Note_on_c, 0, 31, 40
1, 313937, Note_on_c, 0, 59, 40
1, 313938, Control_c, 0, 64, 92
1, 313941, Note_on_c, 0, 62, 42
1, 313953, Note_on_c, 0, 55, 15
1, 314020, Note_off_c, 0, 55, 39
1, 314082, Note_off_c, 0, 31, 41
1, 314097, Note_on_c, 0, 67, 45
1, 314099, Note_off_c, 0, 59, 33
1, 314116, Note_off_c, 0, 62, 39
1, 314272, Control_c, 0, 64, 91
1, 314273, Note_off_c, 0, 67, 36
1, 314281, Note_on_c, 0, 63, 45
1, 314286, Control_c, 0, 64, 88
1, 314292, Note_on_c, 0, 60, 41
1, 314301, Control_c, 0, 64, 83
1, 314316, Note_on_c, 0, 36, 23
1, 314316, Control_c, 0, 64, 73
1, 314320, Note_on_c, 0, 55, 6
1, 314331, Control_c, 0, 64, 62
1, 314346, Control_c, 0, 64, 0
1, 314385, Note_off_c, 0, 55, 41
1, 314390, Control_c, 0, 64, 47
1, 314405, Control_c, 0, 64, 63
1, 314419, Control_c, 0, 64, 67
1, 314434, Control_c, 0, 64, 69
1, 314441, Note_off_c, 0, 36, 32
1, 314444, Note_off_c, 0, 60, 30
1, 314449, Control_c, 0, 64, 71
1, 314464, Control_c, 0, 64, 73
1, 314471, Note_on_c, 0, 67, 41
1, 314474, Note_off_c, 0, 63, 33
1, 314479, Control_c, 0, 64, 76
1, 314493, Control_c, 0, 64, 78
1, 314508, Control_c, 0, 64, 79
1, 314523, Control_c, 0, 64, 80
1, 314538, Control_c, 0, 64, 81
1, 314553, Control_c, 0, 64, 81
1, 314567, Control_c, 0, 64, 82
1, 314582, Control_c, 0, 64, 83
1, 314612, Control_c, 0, 64, 84
1, 314623, Note_on_c, 0, 63, 45
1, 314626, Control_c, 0, 64, 84
1, 314635, Note_on_c, 0, 60, 35
1, 314641, Control_c, 0, 64, 85
1, 314650, Note_off_c, 0, 67, 28
1, 314656, Control_c, 0, 64, 85
1, 314671, Control_c, 0, 64, 86
1, 314680, Poly_aftertouch_c, 0, 36, 127
1, 314725, Poly_aftertouch_c, 0, 55, 127
1, 314746, Control_c, 0, 64, 86
1, 314749, Poly_aftertouch_c, 0, 36, 0
1, 314782, Note_on_c, 0, 67, 48
1, 314787, Note_off_c, 0, 60, 39
1, 314788, Note_off_c, 0, 63, 45
1, 314810, Poly_aftertouch_c, 0, 55, 0
1, 314948, Note_off_c, 0, 67, 26
1, 314961, Control_c, 0, 64, 86
1, 314976, Control_c, 0, 64, 84
1, 314982, Note_on_c, 0, 62, 37
1, 314984, Note_on_c, 0, 31, 40
1, 314990, Control_c, 0, 64, 80
1, 314993, Note_on_c, 0, 59, 31
1, 315004, Note_on_c, 0, 55, 21
1, 315005, Control_c, 0, 64, 73
1, 315020, Control_c, 0, 64, 62
1, 315035, Control_c, 0, 64, 0
1, 315109, Control_c, 0, 64, 59
1, 315124, Control_c, 0, 64, 65
1, 315139, Control_c, 0, 64, 67
1, 315154, Control_c, 0, 64, 69
1, 315162, Note_off_c, 0, 55, 21
1, 315169, Control_c, 0, 64, 71
1, 315175, Note_on_c, 0, 67, 38
1, 315184, Control_c, 0, 64, 73
1, 315187, Note_off_c, 0, 62, 39
1, 315189, Note_off_c, 0, 31, 41
1, 315198, Control_c, 0, 64, 75
1, 315204, Note_off_c, 0, 59, 38
1, 315213, Control_c, 0, 64, 77
1, 315228, Control_c, 0, 64, 78
1, 315242, Control_c, 0, 64, 78
1, 315257, Control_c, 0, 64, 79
1, 315287, Control_c, 0, 64, 80
1, 315302, Control_c, 0, 64, 80
1, 315324, Note_off_c, 0, 67, 23
1, 315345, Note_on_c, 0, 59, 36
1, 315360, Note_on_c, 0, 31, 29
1, 315360, Control_c, 0, 64, 81
1, 315363, Note_on_c, 0, 62, 34
1, 315394, Note_on_c, 0, 55, 19
1, 315404, Control_c, 0, 64, 81
1, 315503, Note_off_c, 0, 31, 31
1, 315523, Control_c, 0, 64, 82
1, 315532, Note_off_c, 0, 55, 24
1, 315541, Note_on_c, 0, 67, 41
1, 315556, Note_off_c, 0, 59, 38
1, 315567, Note_off_c, 0, 62, 39
1, 315735, Note_off_c, 0, 67, 34
1, 315753, Note_on_c, 0, 63, 41
1, 315753, Control_c, 0, 64, 80
1, 315764, Note_on_c, 0, 60, 38
1, 315768, Control_c, 0, 64, 77
1, 315780, Note_on_c, 0, 36, 27
1, 315783, Control_c, 0, 64, 70
1, 315798, Control_c, 0, 64, 60
1, 315813, Control_c, 0, 64, 0
1, 315834, Poly_aftertouch_c, 0, 55, 127
1, 315872, Control_c, 0, 64, 16
1, 315887, Control_c, 0, 64, 58
1, 315902, Control_c, 0, 64, 64
1, 315917, Control_c, 0, 64, 67
1, 315932, Control_c, 0, 64, 68
1, 315946, Control_c, 0, 64, 70
1, 315955, Note_on_c, 0, 67, 35
1, 315961, Control_c, 0, 64, 72
1, 315976, Note_off_c, 0, 36, 41
1, 315976, Control_c, 0, 64, 74
1, 315987, Note_off_c, 0, 60, 29
1, 315987, Note_off_c, 0, 63, 34
1, 315991, Control_c, 0, 64, 75
1, 316006, Control_c, 0, 64, 76
1, 316012, Poly_aftertouch_c, 0, 55, 0
1, 316020, Control_c, 0, 64, 77
1, 316050, Control_c, 0, 64, 77
1, 316064, Control_c, 0, 64, 78
1, 316079, Control_c, 0, 64, 78
1, 316119, Note_off_c, 0, 67, 37
1, 316139, Control_c, 0, 64, 79
1, 316188, Note_on_c, 0, 60, 29
1, 316192, Note_on_c, 0, 63, 43
1, 316209, Note_on_c, 0, 55, 16
1, 316221, Note_on_c, 0, 36, 17
1, 316242, Control_c, 0, 64, 78
1, 316257, Control_c, 0, 64, 77
1, 316272, Control_c, 0, 64, 72
1, 316287, Control_c, 0, 64, 59
1, 316302, Control_c, 0, 64, 0
1, 316328, Note_off_c, 0, 60, 23
1, 316361, Control_c, 0, 64, 26
1, 316373, Note_off_c, 0, 55, 22
1, 316376, Control_c, 0, 64, 62
1, 316399, Control_c, 0, 64, 65
1, 316414, Control_c, 0, 64, 66
1, 316429, Control_c, 0, 64, 68
1, 316443, Control_c, 0, 64, 69
1, 316458, Control_c, 0, 64, 71
1, 316473, Control_c, 0, 64, 73
1, 316486, Note_on_c, 0, 67, 40
1, 316488, Control_c, 0, 64, 75
1, 316502, Control_c, 0, 64, 76
1, 316517, Control_c, 0, 64, 77
1, 316532, Control_c, 0, 64, 77
1, 316547, Control_c, 0, 64, 78
1, 316548, Note_off_c, 0, 63, 32
1, 316549, Note_off_c, 0, 36, 37
1, 316558, Note_off_c, 0, 67, 55
1, 316562, Control_c, 0, 64, 78
1, 316576, Control_c, 0, 64, 79
1, 316606, Control_c, 0, 64, 79
1, 316799, Control_c, 0, 64, 78
1, 316814, Control_c, 0, 64, 76
1, 316829, Control_c, 0, 64, 70
1, 316835, Note_on_c, 0, 63, 52
1, 316844, Control_c, 0, 64, 62
1, 316859, Control_c, 0, 64, 0
1, 316865, Note_off_c, 0, 63, 66
1, 316972, Note_on_c, 0, 67, 56
1, 316997, Note_off_c, 0, 67, 64
1, 317096, Note_on_c, 0, 71, 47
1, 317119, Note_off_c, 0, 71, 57
1, 317225, Note_on_c, 0, 72, 50
1, 317226, Note_on_c, 0, 63, 43
1, 317232, Note_on_c, 0, 60, 43
1, 317246, Note_off_c, 0, 72, 61
1, 317255, Note_off_c, 0, 63, 56
1, 317260, Note_off_c, 0, 60, 57
1, 317345, Note_on_c, 0, 72, 56
1, 317352, Note_on_c, 0, 63, 50
1, 317357, Note_on_c, 0, 60, 47
1, 317362, Note_on_c, 0, 67, 17
1, 317376, Note_off_c, 0, 72, 63
1, 317378, Note_off_c, 0, 63, 58
1, 317384, Note_off_c, 0, 60, 56
1, 317393, Note_off_c, 0, 67, 44
1, 317457, Note_on_c, 0, 72, 62
1, 317467, Note_on_c, 0, 63, 54
1, 317474, Note_on_c, 0, 60, 50
1, 317478, Note_off_c, 0, 72, 67
1, 317491, Note_off_c, 0, 63, 60
1, 317494, Note_on_c, 0, 67, 5
1, 317499, Note_off_c, 0, 60, 59
1, 317555, Note_off_c, 0, 67, 0
1, 317568, Note_on_c, 0, 67, 47
1, 317573, Note_on_c, 0, 72, 59
1, 317577, Note_on_c, 0, 63, 58
1, 317579, Note_on_c, 0, 60, 64
1, 317595, Note_off_c, 0, 67, 63
1, 317595, Note_off_c, 0, 63, 64
1, 317607, Note_off_c, 0, 60, 64
1, 317608, Note_off_c, 0, 72, 64
1, 317700, Note_on_c, 0, 74, 61
1, 317730, Note_off_c, 0, 74, 64
1, 317818, Note_on_c, 0, 75, 55
1, 317849, Note_off_c, 0, 75, 67
1, 317950, Note_on_c, 0, 74, 55
1, 317980, Note_off_c, 0, 74, 67
1, 318064, Note_on_c, 0, 71, 49
1, 318087, Note_off_c, 0, 71, 60
1, 318171, Note_on_c, 0, 67, 56
1, 318199, Note_off_c, 0, 67, 64
1, 318285, Note_on_c, 0, 62, 52
1, 318285, Note_on_c, 0, 67, 63
1, 318289, Note_on_c, 0, 59, 48
1, 318312, Note_off_c, 0, 62, 59
1, 318317, Note_off_c, 0, 67, 66
1, 318319, Note_off_c, 0, 59, 56
1, 318395, Note_on_c, 0, 67, 64
1, 318399, Note_on_c, 0, 62, 55
1, 318409, Note_on_c, 0, 59, 52
1, 318430, Note_off_c, 0, 67, 62
1, 318431, Note_off_c, 0, 62, 61
1, 318439, Note_off_c, 0, 59, 57
1, 318516, Note_on_c, 0, 62, 56
1, 318525, Note_on_c, 0, 67, 53
1, 318532, Note_on_c, 0, 59, 45
1, 318540, Note_off_c, 0, 62, 59
1, 318549, Note_off_c, 0, 67, 60
1, 318557, Note_off_c, 0, 59, 57
1, 318621, Note_on_c, 0, 62, 64
1, 318628, Note_on_c, 0, 68, 53
1, 318639, Note_on_c, 0, 67, 69
1, 318639, Note_on_c, 0, 59, 66
1, 318662, Note_off_c, 0, 62, 64
1, 318665, Note_off_c, 0, 68, 53
1, 318674, Note_off_c, 0, 59, 62
1, 318698, Note_off_c, 0, 67, 62
1, 318751, Note_on_c, 0, 66, 62
1, 318785, Note_off_c, 0, 66, 66
1, 318876, Note_on_c, 0, 67, 62
1, 318907, Note_off_c, 0, 67, 63
1, 318993, Note_on_c, 0, 67, 61
1, 319025, Note_off_c, 0, 67, 65
1, 319095, Note_on_c, 0, 70, 66
1, 319124, Note_off_c, 0, 70, 67
1, 319216, Note_on_c, 0, 73, 57
1, 319242, Note_off_c, 0, 73, 66
1, 319329, Note_on_c, 0, 73, 62
1, 319333, Note_on_c, 0, 70, 58
1, 319338, Note_on_c, 0, 76, 59
1, 319354, Note_on_c, 0, 67, 39
1, 319358, Note_off_c, 0, 73, 66
1, 319360, Note_off_c, 0, 76, 65
1, 319366, Note_off_c, 0, 70, 64
1, 319389, Note_off_c, 0, 67, 53
1, 319453, Note_on_c, 0, 76, 57
1, 319458, Note_on_c, 0, 70, 60
1, 319467, Note_on_c, 0, 73, 48
1, 319472, Note_on_c, 0, 67, 56
1, 319484, Note_off_c, 0, 76, 67
1, 319488, Note_off_c, 0, 70, 63
1, 319489, Note_off_c, 0, 73, 59
1, 319496, Note_off_c, 0, 67, 60
1, 319566, Note_on_c, 0, 73, 63
1, 319569, Note_on_c, 0, 70, 63
1, 319578, Note_on_c, 0, 76, 61
1, 319581, Note_on_c, 0, 67, 55
1, 319597, Note_off_c, 0, 73, 63
1, 319598, Note_off_c, 0, 76, 65
1, 319601, Note_off_c, 0, 70, 62
1, 319605, Note_off_c, 0, 67, 60
1, 319675, Note_on_c, 0, 76, 68
1, 319676, Note_on_c, 0, 73, 70
1, 319684, Note_on_c, 0, 67, 64
1, 319696, Note_on_c, 0, 70, 52
1, 319702, Note_off_c, 0, 73, 68
1, 319712, Note_off_c, 0, 67, 66
1, 319718, Note_off_c, 0, 70, 58
1, 319721, Note_off_c, 0, 76, 64
1, 319791, Note_on_c, 0, 77, 62
1, 319824, Note_off_c, 0, 77, 62
1, 319898, Note_on_c, 0, 79, 64
1, 319928, Note_off_c, 0, 79, 64
1, 320012, Note_on_c, 0, 77, 66
1, 320046, Note_off_c, 0, 77, 58
1, 320124, Note_on_c, 0, 81, 63
1, 320159, Note_off_c, 0, 81, 66
1, 320238, Note_on_c, 0, 84, 62
1, 320267, Note_off_c, 0, 84, 67
1, 320332, Note_on_c, 0, 72, 46
1, 320334, Note_on_c, 0, 77, 48
1, 320339, Note_on_c, 0, 69, 51
1, 320353, Note_on_c, 0, 84, 70
1, 320358, Note_off_c, 0, 72, 58
1, 320359, Note_off_c, 0, 77, 58
1, 320367, Note_off_c, 0, 69, 62
1, 320378, Note_off_c, 0, 84, 68
1, 320448, Note_on_c, 0, 77, 58
1, 320451, Note_on_c, 0, 72, 54
1, 320452, Note_on_c, 0, 69, 60
1, 320469, Note_on_c, 0, 84, 68
1, 320483, Note_off_c, 0, 77, 61
1, 320484, Note_off_c, 0, 72, 66
1, 320487, Note_off_c, 0, 69, 64
1, 320497, Note_off_c, 0, 84, 66
1, 320565, Note_on_c, 0, 84, 68
1, 320570, Note_on_c, 0, 72, 57
1, 320584, Note_on_c, 0, 77, 40
1, 320588, Note_on_c, 0, 69, 36
1, 320591, Note_off_c, 0, 72, 62
1, 320595, Note_off_c, 0, 84, 65
1, 320605, Note_off_c, 0, 77, 48
1, 320612, Note_off_c, 0, 69, 50
1, 320668, Note_on_c, 0, 72, 67
1, 320669, Note_on_c, 0, 86, 70
1, 320677, Note_on_c, 0, 77, 73
1, 320686, Note_on_c, 0, 84, 67
1, 320692, Note_off_c, 0, 72, 70
1, 320693, Note_on_c, 0, 69, 58
1, 320700, Note_off_c, 0, 77, 67
1, 320710, Note_off_c, 0, 86, 62
1, 320713, Note_off_c, 0, 69, 62
1, 320715, Note_off_c, 0, 84, 64
1, 320788, Note_on_c, 0, 83, 64
1, 320819, Note_off_c, 0, 83, 59
1, 320904, Note_on_c, 0, 84, 66
1, 320931, Note_off_c, 0, 84, 67
1, 321025, Note_on_c, 0, 78, 75
1, 321056, Note_off_c, 0, 78, 61
1, 321137, Note_on_c, 0, 81, 69
1, 321170, Note_off_c, 0, 81, 59
1, 321204, Control_c, 0, 64, 10
1, 321219, Control_c, 0, 64, 13
1, 321246, Note_on_c, 0, 84, 71
1, 321270, Note_off_c, 0, 84, 68
1, 321292, Control_c, 0, 64, 16
1, 321307, Control_c, 0, 64, 18
1, 321322, Control_c, 0, 64, 20
1, 321337, Control_c, 0, 64, 21
1, 321352, Note_on_c, 0, 78, 61
1, 321354, Note_on_c, 0, 87, 75
1, 321357, Note_on_c, 0, 72, 51
1, 321363, Note_on_c, 0, 81, 49
1, 321383, Note_off_c, 0, 72, 60
1, 321383, Note_off_c, 0, 78, 64
1, 321385, Note_off_c, 0, 81, 58
1, 321393, Note_off_c, 0, 87, 62
1, 321396, Control_c, 0, 64, 23
1, 321441, Control_c, 0, 64, 24
1, 321466, Note_on_c, 0, 81, 65
1, 321466, Note_on_c, 0, 87, 68
1, 321470, Control_c, 0, 64, 25
1, 321473, Note_on_c, 0, 72, 60
1, 321480, Note_on_c, 0, 78, 59
1, 321485, Control_c, 0, 64, 26
1, 321494, Note_off_c, 0, 87, 63
1, 321498, Note_off_c, 0, 81, 58
1, 321500, Note_off_c, 0, 78, 62
1, 321500, Control_c, 0, 64, 27
1, 321505, Note_off_c, 0, 72, 64
1, 321515, Control_c, 0, 64, 28
1, 321530, Control_c, 0, 64, 30
1, 321574, Control_c, 0, 64, 31
1, 321575, Note_on_c, 0, 78, 68
1, 321575, Note_on_c, 0, 87, 77
1, 321589, Control_c, 0, 64, 32
1, 321594, Note_on_c, 0, 81, 51
1, 321596, Note_on_c, 0, 72, 48
1, 321606, Note_off_c, 0, 87, 63
1, 321608, Note_off_c, 0, 78, 58
1, 321615, Note_off_c, 0, 81, 55
1, 321616, Note_off_c, 0, 72, 60
1, 321618, Control_c, 0, 64, 33
1, 321692, Note_on_c, 0, 81, 69
1, 321694, Note_on_c, 0, 89, 80
1, 321695, Note_on_c, 0, 72, 70
1, 321705, Note_on_c, 0, 78, 67
1, 321709, Note_on_c, 0, 87, 81
1, 321716, Note_off_c, 0, 81, 68
1, 321720, Note_off_c, 0, 72, 69
1, 321721, Note_off_c, 0, 78, 66
1, 321745, Note_off_c, 0, 89, 64
1, 321760, Note_off_c, 0, 87, 60
1, 321816, Note_on_c, 0, 86, 78
1, 321850, Note_off_c, 0, 86, 64
1, 321932, Note_on_c, 0, 87, 86
1, 321982, Control_c, 0, 64, 34
1, 321987, Note_off_c, 0, 87, 61
1, 321997, Control_c, 0, 64, 34
1, 322012, Control_c, 0, 64, 35
1, 322042, Note_on_c, 0, 83, 81
1, 322090, Note_off_c, 0, 83, 61
1, 322145, Note_on_c, 0, 86, 78
1, 322194, Note_off_c, 0, 86, 62
1, 322204, Control_c, 0, 64, 36
1, 322219, Control_c, 0, 64, 38
1, 322234, Control_c, 0, 64, 39
1, 322246, Note_on_c, 0, 89, 75
1, 322248, Control_c, 0, 64, 38
1, 322263, Control_c, 0, 64, 23
1, 322278, Control_c, 0, 64, 0
1, 322281, Note_off_c, 0, 89, 65
1, 322310, Note_on_c, 0, 71, 41
1, 322361, Note_on_c, 0, 74, 48
1, 322362, Note_on_c, 0, 77, 74
1, 322365, Note_on_c, 0, 80, 80
1, 322367, Note_on_c, 0, 94, 87
1, 322368, Control_c, 0, 64, 46
1, 322383, Note_on_c, 0, 92, 84
1, 322389, Control_c, 0, 64, 67
1, 322394, Note_off_c, 0, 77, 66
1, 322394, Note_off_c, 0, 80, 66
1, 322404, Control_c, 0, 64, 72
1, 322406, Note_off_c, 0, 74, 65
1, 322410, Note_off_c, 0, 71, 60
1, 322419, Control_c, 0, 64, 75
1, 322428, Note_off_c, 0, 94, 65
1, 322432, Note_off_c, 0, 92, 65
1, 322433, Control_c, 0, 64, 77
1, 322448, Control_c, 0, 64, 77
1, 322508, Note_on_c, 0, 91, 79
1, 322553, Control_c, 0, 64, 77
1, 322562, Note_off_c, 0, 91, 59
1, 322567, Control_c, 0, 64, 76
1, 322582, Control_c, 0, 64, 75
1, 322597, Control_c, 0, 64, 73
1, 322612, Control_c, 0, 64, 69
1, 322614, Note_on_c, 0, 89, 66
1, 322627, Control_c, 0, 64, 64
1, 322641, Note_off_c, 0, 89, 68
1, 322641, Control_c, 0, 64, 49
1, 322656, Control_c, 0, 64, 0
1, 322711, Note_on_c, 0, 91, 79
1, 322724, Note_on_c, 0, 89, 72
1, 322756, Note_off_c, 0, 91, 59
1, 322779, Note_off_c, 0, 89, 57
1, 322841, Note_on_c, 0, 87, 61
1, 322873, Note_off_c, 0, 87, 64
1, 322894, Control_c, 0, 64, 10
1, 322909, Control_c, 0, 64, 16
1, 322924, Control_c, 0, 64, 18
1, 322941, Note_on_c, 0, 86, 54
1, 322953, Control_c, 0, 64, 20
1, 322961, Note_off_c, 0, 86, 62
1, 322968, Control_c, 0, 64, 23
1, 322983, Control_c, 0, 64, 26
1, 322998, Control_c, 0, 64, 28
1, 323040, Note_on_c, 0, 82, 76
1, 323054, Note_on_c, 0, 80, 69
1, 323086, Control_c, 0, 64, 29
1, 323097, Note_off_c, 0, 82, 62
1, 323101, Control_c, 0, 64, 33
1, 323109, Note_off_c, 0, 80, 52
1, 323116, Control_c, 0, 64, 35
1, 323138, Control_c, 0, 64, 36
1, 323178, Note_on_c, 0, 79, 54
1, 323182, Control_c, 0, 64, 35
1, 323215, Note_off_c, 0, 79, 62
1, 323242, Control_c, 0, 64, 36
1, 323286, Note_on_c, 0, 77, 57
1, 323315, Note_off_c, 0, 77, 66
1, 323345, Control_c, 0, 64, 35
1, 323384, Note_on_c, 0, 79, 72
1, 323389, Note_on_c, 0, 77, 73
1, 323428, Note_off_c, 0, 79, 60
1, 323450, Control_c, 0, 64, 34
1, 323488, Note_off_c, 0, 77, 51
1, 323494, Control_c, 0, 64, 34
1, 323500, Note_on_c, 0, 75, 65
1, 323509, Control_c, 0, 64, 33
1, 323546, Note_off_c, 0, 75, 59
1, 323611, Note_on_c, 0, 74, 48
1, 323632, Note_off_c, 0, 74, 65
1, 323718, Note_on_c, 0, 68, 75
1, 323724, Note_on_c, 0, 67, 72
1, 323748, Control_c, 0, 64, 32
1, 323765, Note_off_c, 0, 68, 63
1, 323772, Note_off_c, 0, 67, 55
1, 323792, Control_c, 0, 64, 31
1, 323806, Control_c, 0, 64, 29
1, 323821, Control_c, 0, 64, 27
1, 323836, Control_c, 0, 64, 26
1, 323841, Note_on_c, 0, 65, 67
1, 323882, Note_off_c, 0, 65, 65
1, 323918, Control_c, 0, 64, 28
1, 323933, Control_c, 0, 64, 29
1, 323948, Control_c, 0, 64, 30
1, 323954, Note_on_c, 0, 63, 64
1, 323983, Note_off_c, 0, 63, 66
1, 324036, Control_c, 0, 64, 29
1, 324051, Control_c, 0, 64, 26
1, 324060, Note_on_c, 0, 65, 75
1, 324066, Control_c, 0, 64, 24
1, 324070, Note_on_c, 0, 63, 68
1, 324080, Control_c, 0, 64, 21
1, 324092, Note_off_c, 0, 65, 63
1, 324095, Control_c, 0, 64, 20
1, 324133, Note_off_c, 0, 63, 64
1, 324184, Control_c, 0, 64, 21
1, 324192, Note_on_c, 0, 62, 57
1, 324199, Control_c, 0, 64, 23
1, 324231, Note_off_c, 0, 62, 63
1, 324287, Note_on_c, 0, 60, 53
1, 324287, Control_c, 0, 64, 21
1, 324312, Note_off_c, 0, 60, 63
1, 324347, Control_c, 0, 64, 20
1, 324412, Note_on_c, 0, 53, 60
1, 324428, Note_on_c, 0, 51, 61
1, 324435, Note_off_c, 0, 53, 66
1, 324466, Note_off_c, 0, 51, 62
1, 324526, Control_c, 0, 64, 18
1, 324565, Note_on_c, 0, 50, 38
1, 324591, Note_off_c, 0, 50, 48
1, 324615, Control_c, 0, 64, 20
1, 324651, Control_c, 0, 64, 21
1, 324666, Control_c, 0, 64, 23
1, 324675, Note_on_c, 0, 48, 58
1, 324681, Control_c, 0, 64, 24
1, 324696, Control_c, 0, 64, 25
1, 324705, Note_off_c, 0, 48, 67
1, 324711, Control_c, 0, 64, 26
1, 324726, Control_c, 0, 64, 27
1, 324779, Note_on_c, 0, 39, 63
1, 324785, Note_on_c, 0, 41, 56
1, 324815, Note_off_c, 0, 39, 60
1, 324815, Note_off_c, 0, 41, 62
1, 324829, Control_c, 0, 64, 26
1, 324844, Control_c, 0, 64, 25
1, 324916, Note_on_c, 0, 38, 53
1, 324958, Note_off_c, 0, 38, 61
1, 325036, Control_c, 0, 64, 26
1, 325054, Note_on_c, 0, 36, 37
1, 325089, Note_off_c, 0, 36, 48
1, 325110, Control_c, 0, 64, 25
1, 325125, Control_c, 0, 64, 0
1, 325198, Note_on_c, 0, 36, 40
1, 325200, Note_on_c, 0, 75, 48
1, 325259, Control_c, 0, 64, 37
1, 325265, Note_off_c, 0, 75, 55
1, 325274, Control_c, 0, 64, 61
1, 325289, Control_c, 0, 64, 64
1, 325307, Note_on_c, 0, 67, 49
1, 325319, Control_c, 0, 64, 64
1, 325334, Control_c, 0, 64, 65
1, 325344, Note_off_c, 0, 67, 56
1, 325348, Note_off_c, 0, 36, 37
1, 325349, Control_c, 0, 64, 65
1, 325364, Control_c, 0, 64, 66
1, 325386, Control_c, 0, 64, 66
1, 325400, Note_on_c, 0, 70, 52
1, 325412, Note_on_c, 0, 68, 43
1, 325455, Note_off_c, 0, 68, 51
1, 325459, Note_off_c, 0, 70, 57
1, 325486, Note_on_c, 0, 67, 49
1, 325504, Control_c, 0, 64, 66
1, 325519, Control_c, 0, 64, 65
1, 325533, Control_c, 0, 64, 65
1, 325548, Control_c, 0, 64, 64
1, 325554, Note_off_c, 0, 67, 55
1, 325592, Note_on_c, 0, 75, 57
1, 325623, Note_on_c, 0, 36, 29
1, 325647, Note_off_c, 0, 75, 54
1, 325685, Note_on_c, 0, 67, 57
1, 325741, Control_c, 0, 64, 64
1, 325746, Note_off_c, 0, 67, 51
1, 325775, Note_off_c, 0, 36, 46
1, 325779, Note_on_c, 0, 70, 52
1, 325785, Control_c, 0, 64, 63
1, 325790, Note_on_c, 0, 68, 48
1, 325829, Control_c, 0, 64, 62
1, 325835, Note_off_c, 0, 68, 62
1, 325839, Note_off_c, 0, 70, 59
1, 325843, Control_c, 0, 64, 59
1, 325858, Control_c, 0, 64, 42
1, 325862, Note_on_c, 0, 67, 59
1, 325873, Control_c, 0, 64, 0
1, 325946, Note_off_c, 0, 67, 52
1, 325965, Note_on_c, 0, 75, 58
1, 325973, Note_on_c, 0, 36, 37
1, 325992, Control_c, 0, 64, 51
1, 326007, Control_c, 0, 64, 61
1, 326022, Control_c, 0, 64, 63
1, 326037, Note_off_c, 0, 75, 51
1, 326052, Control_c, 0, 64, 64
1, 326065, Note_on_c, 0, 67, 57
1, 326067, Control_c, 0, 64, 64
1, 326081, Control_c, 0, 64, 65
1, 326084, Note_off_c, 0, 36, 51
1, 326111, Control_c, 0, 64, 65
1, 326133, Note_off_c, 0, 67, 49
1, 326171, Note_on_c, 0, 70, 46
1, 326171, Note_on_c, 0, 68, 47
1, 326177, Control_c, 0, 64, 66
1, 326229, Note_off_c, 0, 70, 57
1, 326242, Note_off_c, 0, 68, 51
1, 326257, Note_on_c, 0, 67, 49
1, 326267, Control_c, 0, 64, 65
1, 326311, Control_c, 0, 64, 65
1, 326326, Control_c, 0, 64, 64
1, 326335, Note_off_c, 0, 67, 54
1, 326341, Control_c, 0, 64, 62
1, 326355, Control_c, 0, 64, 50
1, 326370, Control_c, 0, 64, 0
1, 326380, Note_on_c, 0, 74, 55
1, 326382, Note_on_c, 0, 35, 33
1, 326470, Note_off_c, 0, 74, 60
1, 326477, Note_on_c, 0, 67, 52
1, 326488, Control_c, 0, 64, 45
1, 326503, Control_c, 0, 64, 58
1, 326518, Control_c, 0, 64, 61
1, 326533, Control_c, 0, 64, 62
1, 326548, Control_c, 0, 64, 62
1, 326560, Note_off_c, 0, 67, 59
1, 326563, Control_c, 0, 64, 63
1, 326575, Note_on_c, 0, 71, 50
1, 326578, Control_c, 0, 64, 63
1, 326590, Note_on_c, 0, 69, 50
1, 326607, Control_c, 0, 64, 64
1, 326637, Control_c, 0, 64, 64
1, 326641, Note_off_c, 0, 71, 54
1, 326660, Note_off_c, 0, 69, 57
1, 326669, Note_on_c, 0, 67, 54
1, 326728, Note_off_c, 0, 67, 59
1, 326729, Note_off_c, 0, 35, 38
1, 326750, Note_on_c, 0, 66, 63
1, 326786, Control_c, 0, 64, 64
1, 326801, Control_c, 0, 64, 63
1, 326816, Control_c, 0, 64, 63
1, 326818, Note_off_c, 0, 66, 65
1, 326830, Control_c, 0, 64, 62
1, 326837, Note_on_c, 0, 67, 68
1, 326845, Control_c, 0, 64, 60
1, 326860, Control_c, 0, 64, 59
1, 326883, Control_c, 0, 64, 56
1, 326898, Control_c, 0, 64, 53
1, 326912, Control_c, 0, 64, 48
1, 326920, Note_off_c, 0, 67, 60
1, 326927, Control_c, 0, 64, 46
1, 326936, Note_on_c, 0, 71, 60
1, 326942, Control_c, 0, 64, 44
1, 326957, Control_c, 0, 64, 42
1, 326972, Control_c, 0, 64, 38
1, 326986, Control_c, 0, 64, 33
1, 327001, Control_c, 0, 64, 30
1, 327008, Note_on_c, 0, 74, 62
1, 327012, Note_off_c, 0, 71, 61
1, 327030, Control_c, 0, 64, 29
1, 327044, Note_off_c, 0, 74, 66
1, 327045, Control_c, 0, 64, 25
1, 327060, Control_c, 0, 64, 0
1, 327110, Note_on_c, 0, 79, 65
1, 327157, Note_off_c, 0, 79, 59
1, 327195, Note_on_c, 0, 83, 69
1, 327209, Control_c, 0, 64, 52
1, 327223, Control_c, 0, 64, 63
1, 327238, Control_c, 0, 64, 64
1, 327268, Control_c, 0, 64, 64
1, 327283, Control_c, 0, 64, 65
1, 327295, Note_on_c, 0, 86, 60
1, 327295, Note_off_c, 0, 83, 56
1, 327298, Control_c, 0, 64, 66
1, 327312, Control_c, 0, 64, 67
1, 327327, Control_c, 0, 64, 68
1, 327349, Note_off_c, 0, 86, 59
1, 327356, Control_c, 0, 64, 68
1, 327373, Note_on_c, 0, 79, 54
1, 327394, Note_off_c, 0, 79, 59
1, 327401, Control_c, 0, 64, 69
1, 327504, Control_c, 0, 64, 68
1, 327511, Note_on_c, 0, 73, 54
1, 327519, Control_c, 0, 64, 66
1, 327522, Note_on_c, 0, 34, 39
1, 327534, Control_c, 0, 64, 58
1, 327550, Control_c, 0, 64, 0
1, 327580, Note_off_c, 0, 73, 54
1, 327616, Note_on_c, 0, 64, 47
1, 327632, Control_c, 0, 64, 54
1, 327647, Control_c, 0, 64, 62
1, 327661, Control_c, 0, 64, 63
1, 327676, Control_c, 0, 64, 64
1, 327680, Note_off_c, 0, 64, 59
1, 327691, Control_c, 0, 64, 64
1, 327706, Control_c, 0, 64, 65
1, 327712, Note_off_c, 0, 34, 44
1, 327721, Control_c, 0, 64, 66
1, 327725, Note_on_c, 0, 67, 52
1, 327730, Note_on_c, 0, 65, 49
1, 327735, Control_c, 0, 64, 66
1, 327765, Control_c, 0, 64, 67
1, 327769, Note_off_c, 0, 67, 62
1, 327787, Note_off_c, 0, 65, 60
1, 327807, Note_on_c, 0, 64, 59
1, 327876, Note_off_c, 0, 64, 55
1, 327904, Note_on_c, 0, 73, 67
1, 327911, Note_on_c, 0, 34, 40
1, 327970, Note_off_c, 0, 73, 61
1, 327987, Control_c, 0, 64, 66
1, 327999, Note_on_c, 0, 64, 57
1, 328034, Note_off_c, 0, 34, 50
1, 328040, Note_off_c, 0, 64, 62
1, 328076, Control_c, 0, 64, 66
1, 328080, Note_on_c, 0, 67, 62
1, 328099, Note_on_c, 0, 65, 51
1, 328127, Note_off_c, 0, 67, 59
1, 328135, Control_c, 0, 64, 65
1, 328150, Control_c, 0, 64, 64
1, 328155, Note_off_c, 0, 65, 62
1, 328165, Control_c, 0, 64, 63
1, 328168, Note_on_c, 0, 64, 63
1, 328179, Control_c, 0, 64, 57
1, 328194, Control_c, 0, 64, 13
1, 328209, Control_c, 0, 64, 0
1, 328243, Note_off_c, 0, 64, 61
1, 328259, Note_on_c, 0, 34, 47
1, 328264, Note_on_c, 0, 73, 66
1, 328313, Control_c, 0, 64, 59
1, 328327, Control_c, 0, 64, 64
1, 328334, Note_off_c, 0, 73, 62
1, 328343, Control_c, 0, 64, 65
1, 328359, Note_on_c, 0, 64, 62
1, 328380, Control_c, 0, 64, 65
1, 328395, Control_c, 0, 64, 66
1, 328410, Control_c, 0, 64, 66
1, 328420, Note_off_c, 0, 34, 35
1, 328425, Control_c, 0, 64, 67
1, 328433, Note_off_c, 0, 64, 47
1, 328453, Note_on_c, 0, 67, 58
1, 328464, Note_on_c, 0, 65, 49
1, 328470, Control_c, 0, 64, 67
1, 328511, Note_off_c, 0, 67, 56
1, 328537, Note_on_c, 0, 64, 62
1, 328548, Note_off_c, 0, 65, 63
1, 328575, Note_off_c, 0, 64, 63
1, 328602, Control_c, 0, 64, 67
1, 328617, Control_c, 0, 64, 66
1, 328632, Control_c, 0, 64, 63
1, 328640, Note_on_c, 0, 72, 65
1, 328647, Note_on_c, 0, 33, 48
1, 328647, Control_c, 0, 64, 23
1, 328662, Control_c, 0, 64, 0
1, 328725, Note_off_c, 0, 72, 63
1, 328740, Note_on_c, 0, 65, 62
1, 328750, Control_c, 0, 64, 43
1, 328765, Control_c, 0, 64, 59
1, 328780, Control_c, 0, 64, 61
1, 328795, Control_c, 0, 64, 61
1, 328809, Note_off_c, 0, 65, 53
1, 328809, Control_c, 0, 64, 62
1, 328824, Control_c, 0, 64, 63
1, 328830, Note_on_c, 0, 69, 62
1, 328839, Control_c, 0, 64, 64
1, 328841, Note_on_c, 0, 67, 60
1, 328869, Control_c, 0, 64, 64
1, 328900, Note_off_c, 0, 69, 61
1, 328910, Note_off_c, 0, 67, 61
1, 328914, Control_c, 0, 64, 65
1, 328926, Note_on_c, 0, 65, 67
1, 328988, Control_c, 0, 64, 64
1, 328993, Note_off_c, 0, 65, 62
1, 329001, Note_off_c, 0, 33, 44
1, 329002, Control_c, 0, 64, 62
1, 329011, Note_on_c, 0, 64, 63
1, 329017, Control_c, 0, 64, 53
1, 329032, Control_c, 0, 64, 32
1, 329047, Control_c, 0, 64, 0
1, 329084, Note_off_c, 0, 64, 63
1, 329100, Note_on_c, 0, 65, 73
1, 329175, Note_off_c, 0, 65, 65
1, 329188, Note_on_c, 0, 69, 73
1, 329263, Note_on_c, 0, 72, 71
1, 329277, Note_off_c, 0, 69, 64
1, 329305, Note_off_c, 0, 72, 66
1, 329361, Note_on_c, 0, 77, 77
1, 329423, Note_off_c, 0, 77, 56
1, 329451, Note_on_c, 0, 81, 71
1, 329528, Note_on_c, 0, 84, 67
1, 329543, Note_off_c, 0, 81, 57
1, 329599, Note_off_c, 0, 84, 63
1, 329618, Note_on_c, 0, 77, 62
1, 329659, Note_off_c, 0, 77, 58
1, 329715, Note_on_c, 0, 32, 48
1, 329717, Note_on_c, 0, 78, 68
1, 329781, Control_c, 0, 64, 25
1, 329796, Control_c, 0, 64, 44
1, 329811, Control_c, 0, 64, 52
1, 329820, Note_off_c, 0, 78, 59
1, 329825, Control_c, 0, 64, 54
1, 329834, Note_on_c, 0, 72, 51
1, 329840, Control_c, 0, 64, 55
1, 329855, Control_c, 0, 64, 56
1, 329877, Control_c, 0, 64, 58
1, 329884, Note_off_c, 0, 72, 60
1, 329892, Control_c, 0, 64, 60
1, 329906, Control_c, 0, 64, 60
1, 329921, Note_on_c, 0, 75, 62
1, 329944, Note_on_c, 0, 74, 49
1, 329944, Note_off_c, 0, 32, 49
1, 329996, Note_off_c, 0, 75, 62
1, 329996, Control_c, 0, 64, 60
1, 330009, Note_on_c, 0, 72, 61
1, 330012, Note_off_c, 0, 74, 54
1, 330026, Control_c, 0, 64, 59
1, 330041, Control_c, 0, 64, 59
1, 330055, Control_c, 0, 64, 58
1, 330070, Control_c, 0, 64, 57
1, 330085, Control_c, 0, 64, 56
1, 330086, Note_on_c, 0, 32, 57
1, 330088, Note_off_c, 0, 72, 61
1, 330100, Control_c, 0, 64, 55
1, 330102, Note_on_c, 0, 78, 73
1, 330115, Control_c, 0, 64, 54
1, 330130, Control_c, 0, 64, 53
1, 330145, Control_c, 0, 64, 52
1, 330160, Control_c, 0, 64, 51
1, 330174, Control_c, 0, 64, 50
1, 330189, Control_c, 0, 64, 49
1, 330196, Note_on_c, 0, 72, 64
1, 330204, Note_off_c, 0, 78, 59
1, 330204, Control_c, 0, 64, 48
1, 330219, Control_c, 0, 64, 47
1, 330234, Control_c, 0, 64, 46
1, 330263, Note_off_c, 0, 32, 57
1, 330279, Note_off_c, 0, 72, 62
1, 330288, Note_on_c, 0, 75, 63
1, 330293, Control_c, 0, 64, 46
1, 330300, Note_on_c, 0, 74, 63
1, 330371, Note_on_c, 0, 72, 65
1, 330376, Note_off_c, 0, 74, 59
1, 330376, Note_off_c, 0, 75, 60
1, 330453, Note_off_c, 0, 72, 61
1, 330456, Note_on_c, 0, 32, 74
1, 330466, Note_on_c, 0, 78, 78
1, 330515, Control_c, 0, 64, 47
1, 330529, Control_c, 0, 64, 47
1, 330554, Note_on_c, 0, 72, 65
1, 330562, Note_off_c, 0, 78, 59
1, 330584, Note_off_c, 0, 32, 58
1, 330626, Control_c, 0, 64, 47
1, 330641, Control_c, 0, 64, 46
1, 330644, Note_off_c, 0, 72, 62
1, 330651, Note_on_c, 0, 75, 64
1, 330661, Note_on_c, 0, 74, 66
1, 330732, Note_off_c, 0, 74, 62
1, 330738, Note_on_c, 0, 72, 68
1, 330750, Note_off_c, 0, 75, 61
1, 330775, Control_c, 0, 64, 45
1, 330789, Control_c, 0, 64, 45
1, 330816, Note_off_c, 0, 72, 56
1, 330825, Note_on_c, 0, 31, 83
1, 330831, Note_on_c, 0, 79, 77
1, 330849, Control_c, 0, 64, 44
1, 330863, Control_c, 0, 64, 43
1, 330908, Control_c, 0, 64, 43
1, 330920, Note_on_c, 0, 72, 70
1, 330923, Control_c, 0, 64, 42
1, 330935, Note_off_c, 0, 79, 58
1, 330938, Control_c, 0, 64, 38
1, 330953, Control_c, 0, 64, 36
1, 330965, Note_off_c, 0, 31, 60
1, 331003, Note_off_c, 0, 72, 63
1, 331012, Control_c, 0, 64, 36
1, 331013, Note_on_c, 0, 74, 59
1, 331015, Note_on_c, 0, 75, 63
1, 331027, Control_c, 0, 64, 35
1, 331071, Control_c, 0, 64, 36
1, 331082, Note_off_c, 0, 74, 60
1, 331086, Control_c, 0, 64, 36
1, 331093, Note_off_c, 0, 75, 63
1, 331101, Control_c, 0, 64, 38
1, 331102, Note_on_c, 0, 72, 71
1, 331116, Control_c, 0, 64, 38
1, 331131, Control_c, 0, 64, 40
1, 331145, Control_c, 0, 64, 42
1, 331160, Control_c, 0, 64, 40
1, 331175, Control_c, 0, 64, 28
1, 331189, Control_c, 0, 64, 0
1, 331206, Note_on_c, 0, 29, 86
1, 331218, Note_on_c, 0, 80, 87
1, 331234, Note_off_c, 0, 72, 50
1, 331319, Note_on_c, 0, 72, 68
1, 331337, Note_off_c, 0, 80, 61
1, 331421, Note_on_c, 0, 74, 64
1, 331431, Note_off_c, 0, 72, 61
1, 331473, Note_off_c, 0, 29, 61
1, 331496, Note_on_c, 0, 77, 70
1, 331512, Note_off_c, 0, 74, 61
1, 331583, Note_on_c, 0, 80, 71
1, 331591, Note_off_c, 0, 77, 62
1, 331611, Note_off_c, 0, 80, 67
1, 331679, Note_on_c, 0, 84, 69
1, 331723, Note_off_c, 0, 84, 57
1, 331772, Note_on_c, 0, 86, 58
1, 331831, Note_off_c, 0, 86, 62
1, 331850, Note_on_c, 0, 89, 59
1, 331951, Note_off_c, 0, 89, 63
1, 331957, Note_on_c, 0, 92, 67
1, 332047, Note_off_c, 0, 92, 61
1, 332050, Note_on_c, 0, 91, 63
1, 332150, Note_on_c, 0, 89, 62
1, 332178, Note_off_c, 0, 91, 37
1, 332225, Note_on_c, 0, 87, 62
1, 332256, Note_off_c, 0, 89, 59
1, 332321, Note_off_c, 0, 87, 61
1, 332332, Note_on_c, 0, 74, 41
1, 332339, Note_on_c, 0, 68, 38
1, 332339, Note_on_c, 0, 86, 64
1, 332343, Note_on_c, 0, 65, 36
1, 332420, Note_off_c, 0, 86, 61
1, 332428, Note_off_c, 0, 68, 54
1, 332435, Note_on_c, 0, 87, 60
1, 332437, Note_off_c, 0, 74, 53
1, 332439, Note_off_c, 0, 65, 54
1, 332524, Note_on_c, 0, 89, 59
1, 332545, Note_off_c, 0, 87, 60
1, 332620, Note_off_c, 0, 89, 60
1, 332625, Note_on_c, 0, 84, 58
1, 332701, Note_off_c, 0, 84, 56
1, 332711, Note_on_c, 0, 83, 61
1, 332712, Note_on_c, 0, 74, 40
1, 332714, Note_on_c, 0, 67, 44
1, 332716, Note_on_c, 0, 71, 44
1, 332808, Note_on_c, 0, 84, 68
1, 332811, Note_off_c, 0, 74, 54
1, 332813, Note_off_c, 0, 83, 53
1, 332815, Note_off_c, 0, 67, 52
1, 332820, Note_off_c, 0, 71, 61
1, 332907, Note_on_c, 0, 86, 62
1, 332916, Note_off_c, 0, 84, 62
1, 332965, Note_off_c, 0, 86, 61
1, 332996, Note_on_c, 0, 77, 60
1, 333083, Note_on_c, 0, 72, 52
1, 333087, Note_off_c, 0, 77, 57
1, 333093, Note_on_c, 0, 67, 40
1, 333096, Note_on_c, 0, 75, 62
1, 333097, Note_on_c, 0, 60, 44
1, 333133, Note_off_c, 0, 72, 53
1, 333168, Note_off_c, 0, 60, 52
1, 333180, Note_off_c, 0, 75, 62
1, 333185, Note_off_c, 0, 67, 30
1, 333190, Note_on_c, 0, 77, 66
1, 333295, Note_on_c, 0, 79, 62
1, 333308, Note_off_c, 0, 77, 57
1, 333363, Control_c, 0, 64, 10
1, 333371, Note_off_c, 0, 79, 58
1, 333384, Note_on_c, 0, 72, 48
1, 333412, Note_off_c, 0, 72, 63
1, 333437, Control_c, 0, 64, 13
1, 333463, Note_on_c, 0, 63, 56
1, 333526, Control_c, 0, 64, 16
1, 333572, Note_off_c, 0, 63, 57
1, 333574, Note_on_c, 0, 65, 55
1, 333659, Note_on_c, 0, 67, 48
1, 333681, Control_c, 0, 64, 13
1, 333696, Control_c, 0, 64, 10
1, 333711, Control_c, 0, 64, 0
1, 333722, Note_off_c, 0, 65, 39
1, 333726, Note_off_c, 0, 67, 62
1, 333751, Note_on_c, 0, 60, 49
1, 333792, Note_off_c, 0, 60, 64
1, 333838, Note_on_c, 0, 51, 62
1, 333901, Note_off_c, 0, 51, 57
1, 333923, Note_on_c, 0, 53, 59
1, 334017, Note_on_c, 0, 55, 60
1, 334031, Note_off_c, 0, 53, 65
1, 334044, Note_off_c, 0, 55, 67
1, 334104, Note_on_c, 0, 48, 60
1, 334140, Note_off_c, 0, 48, 65
1, 334141, Control_c, 0, 64, 13
1, 334156, Control_c, 0, 64, 24
1, 334170, Control_c, 0, 64, 26
1, 334185, Control_c, 0, 64, 0
1, 334275, Note_on_c, 0, 48, 93
1, 334278, Note_on_c, 0, 39, 78
1, 334279, Note_on_c, 0, 72, 90
1, 334280, Note_on_c, 0, 36, 73
1, 334281, Note_on_c, 0, 75, 94
1, 334281, Note_on_c, 0, 84, 89
1, 334284, Note_on_c, 0, 43, 70
1, 334287, Note_on_c, 0, 79, 72
1, 334288, Control_c, 0, 64, 55
1, 334303, Control_c, 0, 64, 72
1, 334305, Note_off_c, 0, 36, 67
1, 334306, Note_off_c, 0, 72, 66
1, 334308, Note_off_c, 0, 48, 66
1, 334309, Note_off_c, 0, 79, 70
1, 334310, Note_off_c, 0, 39, 68
1, 334311, Note_off_c, 0, 43, 64
1, 334315, Note_off_c, 0, 84, 68
1, 334318, Control_c, 0, 64, 82
1, 334321, Note_on_c, 0, 81, 27
1, 334324, Note_off_c, 0, 75, 64
1, 334333, Control_c, 0, 64, 89
1, 334348, Control_c, 0, 64, 93
1, 334363, Note_off_c, 0, 81, 32
1, 334370, Control_c, 0, 64, 94
1, 334385, Control_c, 0, 64, 95
1, 334400, Control_c, 0, 64, 96
1, 334429, Control_c, 0, 64, 97
1, 334444, Control_c, 0, 64, 99
1, 334459, Control_c, 0, 64, 101
1, 334474, Control_c, 0, 64, 103
1, 334488, Control_c, 0, 64, 104
1, 334495, Note_on_c, 0, 75, 71
1, 334495, Note_on_c, 0, 79, 68
1, 334496, Note_on_c, 0, 60, 64
1, 334503, Control_c, 0, 64, 104
1, 334505, Note_on_c, 0, 63, 66
1, 334524, Note_off_c, 0, 75, 63
1, 334527, Note_off_c, 0, 60, 62
1, 334537, Note_off_c, 0, 63, 63
1, 334576, Note_on_c, 0, 77, 80
1, 334577, Control_c, 0, 64, 102
1, 334579, Note_on_c, 0, 74, 79
1, 334582, Note_off_c, 0, 79, 31
1, 334588, Note_on_c, 0, 65, 81
1, 334592, Control_c, 0, 64, 95
1, 334603, Note_on_c, 0, 62, 66
1, 334605, Note_off_c, 0, 74, 65
1, 334607, Control_c, 0, 64, 83
1, 334610, Note_off_c, 0, 65, 71
1, 334622, Control_c, 0, 64, 69
1, 334624, Note_off_c, 0, 77, 62
1, 334632, Note_off_c, 0, 62, 66
1, 334637, Control_c, 0, 64, 0
1, 334668, Note_on_c, 0, 67, 92
1, 334668, Note_on_c, 0, 72, 89
1, 334673, Note_on_c, 0, 75, 88
1, 334673, Note_on_c, 0, 63, 85
1, 334685, Note_off_c, 0, 72, 73
1, 334691, Note_off_c, 0, 75, 73
1, 334697, Note_off_c, 0, 67, 62
1, 334701, Note_off_c, 0, 63, 64
1, 334878, Note_on_c, 0, 60, 72
1, 334879, Note_on_c, 0, 75, 90
1, 334879, Note_on_c, 0, 79, 84
1, 334882, Note_on_c, 0, 63, 76
1, 334896, Note_off_c, 0, 75, 74
1, 334900, Note_off_c, 0, 60, 66
1, 334901, Note_off_c, 0, 79, 67
1, 334907, Note_off_c, 0, 63, 68
1, 335064, Note_on_c, 0, 65, 81
1, 335068, Note_on_c, 0, 62, 71
1, 335069, Note_on_c, 0, 77, 94
1, 335070, Note_on_c, 0, 74, 89
1, 335087, Note_off_c, 0, 65, 71
1, 335087, Note_off_c, 0, 74, 72
1, 335096, Note_off_c, 0, 62, 65
1, 335102, Note_off_c, 0, 77, 64
1, 335271, Note_on_c, 0, 72, 75
1, 335272, Note_on_c, 0, 63, 78
1, 335274, Note_on_c, 0, 75, 87
1, 335278, Note_on_c, 0, 67, 52
1, 335292, Note_off_c, 0, 63, 70
1, 335292, Note_off_c, 0, 75, 73
1, 335293, Note_off_c, 0, 72, 71
1, 335302, Note_off_c, 0, 67, 56
1, 335460, Control_c, 0, 64, 63
1, 335472, Note_on_c, 0, 55, 87
1, 335475, Control_c, 0, 64, 74
1, 335476, Note_on_c, 0, 43, 80
1, 335476, Note_on_c, 0, 74, 87
1, 335477, Note_on_c, 0, 86, 89
1, 335489, Control_c, 0, 64, 83
1, 335504, Control_c, 0, 64, 90
1, 335508, Note_off_c, 0, 43, 66
1, 335508, Note_off_c, 0, 86, 66
1, 335508, Note_off_c, 0, 55, 64
1, 335511, Note_off_c, 0, 74, 67
1, 335519, Control_c, 0, 64, 94
1, 335534, Control_c, 0, 64, 96
1, 335549, Control_c, 0, 64, 98
1, 335564, Control_c, 0, 64, 99
1, 335624, Control_c, 0, 64, 100
1, 335639, Control_c, 0, 64, 100
1, 335654, Control_c, 0, 64, 101
1, 335668, Control_c, 0, 64, 102
1, 335673, Note_on_c, 0, 59, 76
1, 335681, Note_on_c, 0, 55, 59
1, 335681, Note_on_c, 0, 71, 77
1, 335683, Control_c, 0, 64, 103
1, 335686, Note_on_c, 0, 74, 73
1, 335706, Note_off_c, 0, 71, 65
1, 335713, Note_off_c, 0, 55, 66
1, 335721, Note_off_c, 0, 59, 58
1, 335723, Note_off_c, 0, 74, 59
1, 335742, Control_c, 0, 64, 102
1, 335757, Control_c, 0, 64, 98
1, 335767, Note_on_c, 0, 60, 79
1, 335767, Note_on_c, 0, 72, 85
1, 335769, Note_on_c, 0, 57, 74
1, 335769, Note_on_c, 0, 69, 87
1, 335772, Control_c, 0, 64, 88
1, 335786, Control_c, 0, 64, 75
1, 335793, Note_off_c, 0, 60, 65
1, 335795, Note_off_c, 0, 69, 67
1, 335801, Control_c, 0, 64, 60
1, 335806, Note_off_c, 0, 57, 61
1, 335812, Note_off_c, 0, 72, 65
1, 335816, Control_c, 0, 64, 0
1, 335856, Note_on_c, 0, 62, 84
1, 335865, Note_on_c, 0, 67, 88
1, 335865, Note_on_c, 0, 71, 91
1, 335871, Note_on_c, 0, 59, 72
1, 335883, Note_off_c, 0, 67, 71
1, 335886, Note_off_c, 0, 71, 66
1, 335887, Note_off_c, 0, 62, 67
1, 335895, Note_off_c, 0, 59, 68
1, 336073, Note_on_c, 0, 59, 77
1, 336073, Note_on_c, 0, 71, 85
1, 336074, Note_on_c, 0, 55, 71
1, 336077, Note_on_c, 0, 74, 86
1, 336091, Note_off_c, 0, 71, 71
1, 336095, Note_off_c, 0, 55, 69
1, 336099, Note_off_c, 0, 59, 64
1, 336101, Note_off_c, 0, 74, 72
1, 336262, Note_on_c, 0, 60, 84
1, 336264, Note_on_c, 0, 57, 74
1, 336265, Note_on_c, 0, 72, 93
1, 336268, Note_on_c, 0, 69, 87
1, 336288, Note_off_c, 0, 60, 65
1, 336288, Note_off_c, 0, 69, 72
1, 336290, Note_off_c, 0, 57, 66
1, 336299, Note_off_c, 0, 72, 65
1, 336453, Note_on_c, 0, 59, 72
1, 336455, Note_on_c, 0, 71, 80
1, 336458, Note_on_c, 0, 67, 73
1, 336466, Note_on_c, 0, 62, 47
1, 336475, Note_off_c, 0, 59, 66
1, 336476, Note_off_c, 0, 71, 69
1, 336479, Note_off_c, 0, 67, 68
1, 336494, Note_off_c, 0, 62, 35
1, 336662, Control_c, 0, 64, 63
1, 336671, Note_on_c, 0, 48, 92
1, 336676, Note_on_c, 0, 88, 87
1, 336676, Note_on_c, 0, 36, 76
1, 336677, Control_c, 0, 64, 75
1, 336679, Note_on_c, 0, 76, 90
1, 336691, Control_c, 0, 64, 84
1, 336700, Note_off_c, 0, 36, 66
1, 336702, Note_off_c, 0, 48, 66
1, 336705, Note_off_c, 0, 88, 64
1, 336706, Control_c, 0, 64, 90
1, 336708, Note_off_c, 0, 76, 64
1, 336721, Control_c, 0, 64, 93
1, 336736, Control_c, 0, 64, 96
1, 336751, Control_c, 0, 64, 97
1, 336765, Control_c, 0, 64, 99
1, 336780, Control_c, 0, 64, 99
1, 336795, Control_c, 0, 64, 100
1, 336810, Control_c, 0, 64, 100
1, 336825, Control_c, 0, 64, 102
1, 336840, Control_c, 0, 64, 104
1, 336855, Control_c, 0, 64, 106
1, 336870, Control_c, 0, 64, 107
1, 336882, Note_on_c, 0, 70, 70
1, 336884, Note_on_c, 0, 58, 72
1, 336884, Control_c, 0, 64, 108
1, 336886, Note_on_c, 0, 73, 70
1, 336895, Note_on_c, 0, 55, 48
1, 336899, Control_c, 0, 64, 110
1, 336909, Note_off_c, 0, 70, 69
1, 336914, Control_c, 0, 64, 111
1, 336915, Note_off_c, 0, 73, 66
1, 336919, Note_off_c, 0, 55, 61
1, 336920, Note_off_c, 0, 58, 60
1, 336929, Control_c, 0, 64, 112
1, 336964, Note_on_c, 0, 68, 86
1, 336965, Note_on_c, 0, 72, 82
1, 336969, Note_on_c, 0, 60, 90
1, 336973, Control_c, 0, 64, 108
1, 336980, Note_on_c, 0, 56, 73
1, 336988, Control_c, 0, 64, 98
1, 336991, Note_off_c, 0, 68, 64
1, 336998, Note_off_c, 0, 60, 62
1, 337003, Control_c, 0, 64, 83
1, 337008, Note_off_c, 0, 72, 65
1, 337014, Note_off_c, 0, 56, 64
1, 337017, Control_c, 0, 64, 67
1, 337032, Control_c, 0, 64, 0
1, 337054, Note_on_c, 0, 67, 87
1, 337059, Note_on_c, 0, 70, 66
1, 337061, Note_on_c, 0, 61, 84
1, 337062, Note_on_c, 0, 58, 81
1, 337073, Note_off_c, 0, 67, 70
1, 337078, Note_off_c, 0, 70, 61
1, 337083, Note_off_c, 0, 61, 68
1, 337091, Note_off_c, 0, 58, 67
1, 337102, Note_on_c, 0, 71, 24
1, 337139, Note_off_c, 0, 71, 35
1, 337263, Note_on_c, 0, 70, 84
1, 337266, Note_on_c, 0, 58, 78
1, 337266, Note_on_c, 0, 73, 78
1, 337267, Note_on_c, 0, 55, 69
1, 337283, Note_off_c, 0, 70, 72
1, 337290, Note_off_c, 0, 73, 68
1, 337293, Note_off_c, 0, 55, 67
1, 337303, Note_off_c, 0, 58, 64
1, 337457, Note_on_c, 0, 60, 81
1, 337462, Note_on_c, 0, 72, 86
1, 337469, Note_on_c, 0, 56, 68
1, 337479, Note_on_c, 0, 68, 57
1, 337480, Note_off_c, 0, 60, 68
1, 337494, Note_on_c, 0, 67, 55
1, 337496, Note_off_c, 0, 56, 65
1, 337500, Note_off_c, 0, 72, 64
1, 337502, Note_off_c, 0, 68, 42
1, 337516, Note_off_c, 0, 67, 38
1, 337648, Note_on_c, 0, 61, 75
1, 337652, Note_on_c, 0, 58, 65
1, 337656, Note_on_c, 0, 67, 74
1, 337660, Note_on_c, 0, 70, 89
1, 337671, Note_off_c, 0, 61, 66
1, 337678, Note_off_c, 0, 67, 69
1, 337678, Note_off_c, 0, 70, 72
1, 337679, Note_off_c, 0, 58, 67
1, 337839, Control_c, 0, 64, 65
1, 337854, Control_c, 0, 64, 75
1, 337859, Note_on_c, 0, 53, 93
1, 337861, Note_on_c, 0, 89, 87
1, 337864, Note_on_c, 0, 41, 81
1, 337864, Note_on_c, 0, 77, 96
1, 337869, Control_c, 0, 64, 85
1, 337883, Control_c, 0, 64, 92
1, 337886, Note_off_c, 0, 89, 66
1, 337886, Note_off_c, 0, 41, 69
1, 337896, Note_off_c, 0, 53, 65
1, 337898, Control_c, 0, 64, 95
1, 337901, Note_off_c, 0, 77, 62
1, 337913, Control_c, 0, 64, 99
1, 337929, Control_c, 0, 64, 100
1, 337944, Control_c, 0, 64, 102
1, 337959, Control_c, 0, 64, 102
1, 338003, Control_c, 0, 64, 103
1, 338018, Control_c, 0, 64, 104
1, 338033, Control_c, 0, 64, 105
1, 338048, Control_c, 0, 64, 106
1, 338057, Note_on_c, 0, 53, 72
1, 338062, Note_on_c, 0, 68, 87
1, 338062, Control_c, 0, 64, 107
1, 338064, Note_on_c, 0, 56, 68
1, 338069, Note_on_c, 0, 72, 76
1, 338088, Note_off_c, 0, 68, 63
1, 338092, Note_off_c, 0, 53, 54
1, 338092, Control_c, 0, 64, 107
1, 338098, Note_off_c, 0, 72, 62
1, 338110, Note_off_c, 0, 56, 60
1, 338130, Control_c, 0, 64, 107
1, 338144, Control_c, 0, 64, 104
1, 338155, Note_on_c, 0, 70, 89
1, 338158, Note_on_c, 0, 58, 85
1, 338158, Note_on_c, 0, 67, 85
1, 338159, Control_c, 0, 64, 94
1, 338164, Note_on_c, 0, 55, 72
1, 338174, Control_c, 0, 64, 80
1, 338179, Note_off_c, 0, 67, 69
1, 338188, Control_c, 0, 64, 64
1, 338190, Note_off_c, 0, 58, 61
1, 338193, Note_off_c, 0, 55, 67
1, 338195, Note_off_c, 0, 70, 66
1, 338203, Control_c, 0, 64, 0
1, 338245, Note_on_c, 0, 60, 87
1, 338247, Note_on_c, 0, 68, 96
1, 338250, Note_on_c, 0, 65, 91
1, 338252, Note_on_c, 0, 56, 87
1, 338269, Note_off_c, 0, 65, 72
1, 338271, Note_off_c, 0, 60, 64
1, 338278, Note_off_c, 0, 68, 65
1, 338282, Note_off_c, 0, 56, 65
1, 338459, Note_on_c, 0, 53, 79
1, 338459, Note_on_c, 0, 72, 85
1, 338462, Note_on_c, 0, 68, 83
1, 338468, Note_on_c, 0, 56, 76
1, 338480, Note_off_c, 0, 68, 73
1, 338482, Note_off_c, 0, 53, 72
1, 338486, Note_off_c, 0, 72, 64
1, 338494, Note_off_c, 0, 56, 66
1, 338652, Note_on_c, 0, 55, 80
1, 338652, Note_on_c, 0, 58, 89
1, 338655, Note_on_c, 0, 67, 93
1, 338667, Note_on_c, 0, 70, 66
1, 338668, Note_off_c, 0, 70, 127
1, 338674, Note_off_c, 0, 67, 70
1, 338678, Note_off_c, 0, 55, 69
1, 338679, Note_on_c, 0, 69, 68
1, 338685, Note_off_c, 0, 58, 65
1, 338695, Note_off_c, 0, 69, 67
1, 338849, Note_on_c, 0, 60, 69
1, 338852, Note_on_c, 0, 56, 73
1, 338864, Note_on_c, 0, 65, 80
1, 338884, Note_off_c, 0, 60, 67
1, 338884, Note_off_c, 0, 65, 72
1, 338887, Note_off_c, 0, 56, 67
1, 339070, Control_c, 0, 64, 70
1, 339077, Note_on_c, 0, 78, 98
1, 339079, Note_on_c, 0, 38, 79
1, 339081, Note_on_c, 0, 90, 91
1, 339085, Control_c, 0, 64, 79
1, 339085, Note_on_c, 0, 50, 72
1, 339100, Note_on_c, 0, 52, 60
1, 339101, Note_off_c, 0, 52, 127
1, 339101, Control_c, 0, 64, 89
1, 339104, Note_off_c, 0, 90, 66
1, 339107, Note_off_c, 0, 78, 63
1, 339114, Note_off_c, 0, 38, 63
1, 339114, Note_off_c, 0, 50, 65
1, 339114, Control_c, 0, 64, 94
1, 339129, Control_c, 0, 64, 96
1, 339144, Control_c, 0, 64, 98
1, 339159, Control_c, 0, 64, 99
1, 339189, Control_c, 0, 64, 100
1, 339248, Control_c, 0, 64, 100
1, 339286, Note_on_c, 0, 57, 73
1, 339290, Note_on_c, 0, 60, 72
1, 339292, Control_c, 0, 64, 101
1, 339294, Note_on_c, 0, 72, 66
1, 339298, Note_on_c, 0, 75, 67
1, 339307, Control_c, 0, 64, 102
1, 339311, Note_off_c, 0, 72, 65
1, 339322, Control_c, 0, 64, 102
1, 339323, Note_off_c, 0, 75, 69
1, 339326, Note_off_c, 0, 60, 59
1, 339332, Note_off_c, 0, 57, 50
1, 339337, Note_on_c, 0, 73, 14
1, 339366, Control_c, 0, 64, 101
1, 339374, Note_on_c, 0, 74, 81
1, 339374, Note_on_c, 0, 71, 85
1, 339380, Note_off_c, 0, 73, 36
1, 339381, Control_c, 0, 64, 94
1, 339383, Note_on_c, 0, 62, 85
1, 339387, Note_on_c, 0, 59, 75
1, 339396, Control_c, 0, 64, 81
1, 339402, Note_off_c, 0, 71, 63
1, 339407, Note_off_c, 0, 62, 65
1, 339410, Control_c, 0, 64, 64
1, 339416, Note_off_c, 0, 59, 64
1, 339419, Note_off_c, 0, 74, 64
1, 339425, Control_c, 0, 64, 0
1, 339466, Note_on_c, 0, 69, 90
1, 339470, Note_on_c, 0, 63, 90
1, 339470, Note_on_c, 0, 72, 90
1, 339475, Note_on_c, 0, 60, 82
1, 339486, Note_on_c, 0, 73, 44
1, 339487, Note_off_c, 0, 73, 127
1, 339487, Note_off_c, 0, 69, 72
1, 339490, Note_off_c, 0, 72, 69
1, 339495, Note_off_c, 0, 63, 68
1, 339501, Note_off_c, 0, 60, 65
1, 339682, Note_on_c, 0, 60, 87
1, 339685, Note_on_c, 0, 72, 85
1, 339685, Note_on_c, 0, 75, 88
1, 339686, Note_on_c, 0, 57, 75
1, 339705, Note_off_c, 0, 72, 69
1, 339709, Note_off_c, 0, 75, 68
1, 339712, Note_off_c, 0, 57, 67
1, 339718, Note_off_c, 0, 60, 64
1, 339877, Note_on_c, 0, 71, 95
1, 339877, Note_on_c, 0, 74, 93
1, 339879, Note_on_c, 0, 62, 81
1, 339881, Note_on_c, 0, 59, 75
1, 339900, Note_off_c, 0, 71, 64
1, 339905, Note_off_c, 0, 74, 69
1, 339908, Note_off_c, 0, 59, 64
1, 339910, Note_off_c, 0, 62, 66
1, 340071, Note_on_c, 0, 72, 93
1, 340072, Note_on_c, 0, 69, 85
1, 340077, Note_on_c, 0, 60, 82
1, 340077, Note_on_c, 0, 63, 76
1, 340092, Note_off_c, 0, 69, 74
1, 340098, Note_off_c, 0, 60, 69
1, 340098, Note_off_c, 0, 72, 68
1, 340100, Note_off_c, 0, 63, 69
1, 340307, Control_c, 0, 64, 66
1, 340313, Note_on_c, 0, 55, 87
1, 340316, Note_on_c, 0, 43, 77
1, 340322, Note_on_c, 0, 79, 93
1, 340323, Note_on_c, 0, 91, 95
1, 340323, Control_c, 0, 64, 76
1, 340338, Control_c, 0, 64, 86
1, 340357, Note_off_c, 0, 43, 64
1, 340359, Note_off_c, 0, 55, 64
1, 340360, Control_c, 0, 64, 94
1, 340362, Note_off_c, 0, 79, 61
1, 340369, Note_off_c, 0, 91, 63
1, 340375, Control_c, 0, 64, 98
1, 340390, Control_c, 0, 64, 101
1, 340405, Control_c, 0, 64, 103
1, 340420, Control_c, 0, 64, 105
1, 340435, Control_c, 0, 64, 105
1, 340450, Control_c, 0, 64, 106
1, 340464, Control_c, 0, 64, 107
1, 340479, Control_c, 0, 64, 108
1, 340494, Control_c, 0, 64, 109
1, 340509, Control_c, 0, 64, 111
1, 340524, Control_c, 0, 64, 111
1, 340538, Control_c, 0, 64, 112
1, 340553, Control_c, 0, 64, 112
1, 340554, Note_on_c, 0, 77, 65
1, 340560, Note_on_c, 0, 80, 72
1, 340565, Note_on_c, 0, 89, 81
1, 340568, Note_on_c, 0, 86, 70
1, 340568, Control_c, 0, 64, 113
1, 340582, Control_c, 0, 64, 113
1, 340588, Note_off_c, 0, 80, 65
1, 340588, Note_off_c, 0, 86, 66
1, 340602, Note_off_c, 0, 77, 60
1, 340611, Note_off_c, 0, 89, 65
1, 340663, Note_on_c, 0, 75, 76
1, 340665, Note_on_c, 0, 91, 90
1, 340674, Note_on_c, 0, 87, 80
1, 340679, Note_on_c, 0, 79, 69
1, 340705, Note_off_c, 0, 79, 68
1, 340712, Note_off_c, 0, 87, 56
1, 340720, Note_off_c, 0, 75, 63
1, 340732, Note_off_c, 0, 91, 53
1, 340766, Note_on_c, 0, 92, 86
1, 340769, Note_on_c, 0, 77, 85
1, 340771, Note_on_c, 0, 89, 87
1, 340775, Note_on_c, 0, 74, 70
1, 340800, Note_off_c, 0, 77, 58
1, 340802, Note_off_c, 0, 89, 62
1, 340817, Note_off_c, 0, 92, 67
1, 340819, Note_off_c, 0, 74, 62
1, 340923, Control_c, 0, 64, 111
1, 340938, Control_c, 0, 64, 101
1, 340947, Note_on_c, 0, 74, 77
1, 340953, Control_c, 0, 64, 88
1, 340954, Note_on_c, 0, 77, 71
1, 340954, Note_on_c, 0, 83, 82
1, 340957, Note_on_c, 0, 86, 83
1, 340968, Control_c, 0, 64, 79
1, 340982, Control_c, 0, 64, 78
1, 340993, Note_off_c, 0, 83, 55
1, 340995, Note_off_c, 0, 77, 55
1, 340997, Control_c, 0, 64, 80
1, 340998, Note_off_c, 0, 86, 63
1, 341012, Control_c, 0, 64, 84
1, 341027, Control_c, 0, 64, 92
1, 341029, Note_off_c, 0, 74, 62
1, 341040, Note_on_c, 0, 87, 91
1, 341042, Control_c, 0, 64, 100
1, 341045, Note_on_c, 0, 84, 81
1, 341046, Note_on_c, 0, 75, 80
1, 341052, Note_on_c, 0, 72, 70
1, 341056, Control_c, 0, 64, 106
1, 341071, Control_c, 0, 64, 110
1, 341086, Control_c, 0, 64, 113
1, 341090, Note_off_c, 0, 84, 64
1, 341091, Note_off_c, 0, 87, 63
1, 341103, Note_off_c, 0, 75, 67
1, 341108, Control_c, 0, 64, 116
1, 341117, Note_off_c, 0, 72, 60
1, 341123, Control_c, 0, 64, 118
1, 341139, Control_c, 0, 64, 120
1, 341148, Note_on_c, 0, 74, 77
1, 341151, Note_on_c, 0, 71, 81
1, 341152, Note_on_c, 0, 89, 90
1, 341153, Note_on_c, 0, 86, 87
1, 341154, Control_c, 0, 64, 121
1, 341165, Note_off_c, 0, 74, 75
1, 341168, Control_c, 0, 64, 122
1, 341177, Note_off_c, 0, 71, 66
1, 341183, Note_off_c, 0, 86, 60
1, 341183, Control_c, 0, 64, 122
1, 341195, Note_off_c, 0, 89, 64
1, 341341, Note_on_c, 0, 68, 68
1, 341342, Note_on_c, 0, 77, 89
1, 341347, Note_on_c, 0, 74, 74
1, 341354, Note_on_c, 0, 65, 69
1, 341367, Note_off_c, 0, 74, 70
1, 341382, Note_off_c, 0, 68, 59
1, 341396, Note_off_c, 0, 77, 62
1, 341426, Note_off_c, 0, 65, 41
1, 341435, Control_c, 0, 64, 123
1, 341443, Note_on_c, 0, 79, 86
1, 341445, Note_on_c, 0, 67, 80
1, 341448, Note_on_c, 0, 63, 72
1, 341453, Note_on_c, 0, 75, 82
1, 341481, Note_off_c, 0, 75, 57
1, 341489, Note_off_c, 0, 67, 62
1, 341494, Control_c, 0, 64, 123
1, 341497, Note_off_c, 0, 63, 62
1, 341505, Note_off_c, 0, 79, 57
1, 341538, Note_on_c, 0, 65, 92
1, 341541, Note_on_c, 0, 80, 87
1, 341542, Note_on_c, 0, 77, 90
1, 341543, Note_on_c, 0, 62, 84
1, 341565, Note_on_c, 0, 79, 10
1, 341571, Note_off_c, 0, 65, 65
1, 341577, Note_off_c, 0, 77, 63
1, 341586, Note_off_c, 0, 62, 64
1, 341589, Note_off_c, 0, 80, 65
1, 341604, Note_off_c, 0, 79, 27
1, 341722, Note_on_c, 0, 62, 83
1, 341724, Note_on_c, 0, 71, 78
1, 341724, Note_on_c, 0, 74, 84
1, 341728, Note_on_c, 0, 65, 72
1, 341751, Note_off_c, 0, 71, 64
1, 341756, Note_off_c, 0, 65, 56
1, 341766, Note_off_c, 0, 74, 66
1, 341810, Note_on_c, 0, 75, 88
1, 341818, Note_off_c, 0, 62, 57
1, 341822, Note_on_c, 0, 63, 77
1, 341822, Note_on_c, 0, 72, 74
1, 341827, Note_on_c, 0, 60, 64
1, 341865, Note_off_c, 0, 72, 62
1, 341874, Note_off_c, 0, 75, 65
1, 341887, Control_c, 0, 64, 123
1, 341902, Control_c, 0, 64, 115
1, 341908, Note_off_c, 0, 63, 57
1, 341916, Control_c, 0, 64, 98
1, 341922, Note_on_c, 0, 62, 81
1, 341922, Note_on_c, 0, 59, 76
1, 341925, Note_on_c, 0, 77, 86
1, 341927, Note_on_c, 0, 74, 84
1, 341932, Control_c, 0, 64, 77
1, 341943, Note_off_c, 0, 60, 59
1, 341947, Control_c, 0, 64, 0
1, 341948, Note_off_c, 0, 62, 63
1, 341951, Note_off_c, 0, 59, 68
1, 341954, Note_off_c, 0, 74, 67
1, 341961, Note_off_c, 0, 77, 61
1, 341991, Control_c, 0, 64, 66
1, 342006, Control_c, 0, 64, 75
1, 342021, Control_c, 0, 64, 83
1, 342036, Control_c, 0, 64, 88
1, 342051, Control_c, 0, 64, 89
1, 342066, Control_c, 0, 64, 91
1, 342080, Control_c, 0, 64, 93
1, 342095, Control_c, 0, 64, 95
1, 342110, Control_c, 0, 64, 97
1, 342113, Note_on_c, 0, 56, 78
1, 342122, Note_on_c, 0, 65, 71
1, 342124, Note_on_c, 0, 59, 74
1, 342125, Control_c, 0, 64, 98
1, 342134, Note_on_c, 0, 62, 62
1, 342140, Note_off_c, 0, 56, 68
1, 342140, Control_c, 0, 64, 98
1, 342149, Note_off_c, 0, 59, 65
1, 342164, Note_off_c, 0, 62, 63
1, 342169, Control_c, 0, 64, 99
1, 342177, Note_off_c, 0, 65, 64
1, 342206, Note_on_c, 0, 53, 76
1, 342213, Note_on_c, 0, 59, 81
1, 342214, Note_on_c, 0, 68, 84
1, 342215, Note_on_c, 0, 65, 49
1, 342234, Note_off_c, 0, 59, 66
1, 342239, Note_on_c, 0, 62, 47
1, 342256, Note_off_c, 0, 53, 66
1, 342258, Control_c, 0, 64, 98
1, 342261, Note_on_c, 0, 67, 16
1, 342263, Note_off_c, 0, 62, 56
1, 342265, Note_off_c, 0, 65, 63
1, 342265, Note_off_c, 0, 68, 64
1, 342273, Control_c, 0, 64, 90
1, 342288, Control_c, 0, 64, 74
1, 342290, Note_off_c, 0, 67, 0
1, 342302, Control_c, 0, 64, 0
1, 342307, Note_on_c, 0, 50, 88
1, 342307, Note_on_c, 0, 67, 55
1, 342308, Note_on_c, 0, 65, 71
1, 342313, Note_on_c, 0, 59, 87
1, 342325, Note_on_c, 0, 62, 74
1, 342332, Note_off_c, 0, 59, 69
1, 342346, Control_c, 0, 64, 64
1, 342353, Note_off_c, 0, 62, 65
1, 342358, Note_off_c, 0, 50, 65
1, 342361, Control_c, 0, 64, 74
1, 342364, Note_off_c, 0, 65, 66
1, 342369, Note_off_c, 0, 67, 64
1, 342376, Control_c, 0, 64, 81
1, 342391, Control_c, 0, 64, 84
1, 342406, Control_c, 0, 64, 85
1, 342420, Control_c, 0, 64, 86
1, 342435, Control_c, 0, 64, 87
1, 342450, Control_c, 0, 64, 88
1, 342465, Control_c, 0, 64, 88
1, 342480, Control_c, 0, 64, 89
1, 342495, Control_c, 0, 64, 89
1, 342499, Note_on_c, 0, 47, 84
1, 342507, Note_on_c, 0, 65, 77
1, 342510, Note_on_c, 0, 62, 78
1, 342510, Control_c, 0, 64, 90
1, 342510, Note_on_c, 0, 67, 69
1, 342525, Control_c, 0, 64, 91
1, 342539, Control_c, 0, 64, 93
1, 342542, Note_off_c, 0, 67, 64
1, 342544, Note_off_c, 0, 62, 63
1, 342554, Control_c, 0, 64, 94
1, 342560, Note_off_c, 0, 65, 64
1, 342566, Note_off_c, 0, 47, 59
1, 342569, Control_c, 0, 64, 95
1, 342584, Control_c, 0, 64, 96
1, 342588, Note_on_c, 0, 43, 89
1, 342593, Note_on_c, 0, 71, 81
1, 342606, Control_c, 0, 64, 97
1, 342609, Note_on_c, 0, 62, 72
1, 342630, Note_off_c, 0, 62, 69
1, 342643, Note_off_c, 0, 43, 63
1, 342650, Note_off_c, 0, 71, 60
1, 342650, Control_c, 0, 64, 93
1, 342665, Control_c, 0, 64, 80
1, 342680, Control_c, 0, 64, 55
1, 342694, Control_c, 0, 64, 0
1, 342703, Note_on_c, 0, 60, 84
1, 342706, Note_on_c, 0, 48, 89
1, 342706, Note_on_c, 0, 63, 87
1, 342706, Note_on_c, 0, 72, 83
1, 342725, Note_off_c, 0, 60, 69
1, 342733, Note_off_c, 0, 63, 64
1, 342740, Control_c, 0, 64, 67
1, 342749, Note_off_c, 0, 72, 61
1, 342755, Control_c, 0, 64, 77
1, 342758, Note_off_c, 0, 48, 66
1, 342770, Control_c, 0, 64, 84
1, 342784, Control_c, 0, 64, 86
1, 342799, Control_c, 0, 64, 87
1, 342814, Control_c, 0, 64, 89
1, 342829, Control_c, 0, 64, 89
1, 342844, Control_c, 0, 64, 90
1, 342858, Control_c, 0, 64, 91
1, 342873, Control_c, 0, 64, 92
1, 342888, Control_c, 0, 64, 93
1, 342898, Note_on_c, 0, 48, 81
1, 342902, Note_on_c, 0, 60, 79
1, 342902, Note_on_c, 0, 63, 69
1, 342903, Control_c, 0, 64, 95
1, 342904, Note_on_c, 0, 72, 76
1, 342918, Control_c, 0, 64, 98
1, 342927, Note_off_c, 0, 48, 62
1, 342930, Note_off_c, 0, 63, 65
1, 342933, Control_c, 0, 64, 102
1, 342936, Note_off_c, 0, 60, 54
1, 342937, Note_off_c, 0, 72, 62
1, 342948, Control_c, 0, 64, 107
1, 342963, Control_c, 0, 64, 110
1, 342977, Control_c, 0, 64, 110
1, 342985, Note_on_c, 0, 43, 87
1, 342992, Control_c, 0, 64, 105
1, 342999, Note_on_c, 0, 62, 88
1, 343002, Note_on_c, 0, 71, 82
1, 343003, Note_on_c, 0, 74, 79
1, 343007, Control_c, 0, 64, 88
1, 343019, Note_off_c, 0, 62, 70
1, 343022, Control_c, 0, 64, 67
1, 343024, Note_off_c, 0, 74, 73
1, 343025, Note_on_c, 0, 70, 41
1, 343027, Note_off_c, 0, 43, 63
1, 343033, Note_off_c, 0, 71, 63
1, 343037, Control_c, 0, 64, 0
1, 343055, Note_off_c, 0, 70, 33
1, 343067, Control_c, 0, 64, 66
1, 343082, Control_c, 0, 64, 79
1, 343087, Note_on_c, 0, 36, 87
1, 343092, Note_on_c, 0, 63, 103
1, 343095, Note_on_c, 0, 73, 90
1, 343097, Control_c, 0, 64, 97
1, 343097, Note_on_c, 0, 75, 91
1, 343108, Note_off_c, 0, 63, 75
1, 343111, Control_c, 0, 64, 106
1, 343116, Note_off_c, 0, 75, 68
1, 343121, Note_off_c, 0, 36, 65
1, 343126, Control_c, 0, 64, 107
1, 343132, Note_off_c, 0, 73, 61
1, 343141, Control_c, 0, 64, 108
1, 343156, Control_c, 0, 64, 109
1, 343171, Control_c, 0, 64, 109
1, 343274, Control_c, 0, 64, 110
1, 343300, Note_on_c, 0, 67, 90
1, 343301, Note_on_c, 0, 75, 82
1, 343302, Note_on_c, 0, 36, 77
1, 343303, Note_on_c, 0, 79, 82
1, 343321, Note_off_c, 0, 67, 67
1, 343326, Note_off_c, 0, 75, 64
1, 343353, Note_off_c, 0, 79, 59
1, 343372, Note_off_c, 0, 36, 62
1, 343385, Control_c, 0, 64, 110
1, 343394, Note_on_c, 0, 31, 81
1, 343409, Note_on_c, 0, 71, 82
1, 343410, Note_on_c, 0, 83, 89
1, 343415, Control_c, 0, 64, 111
1, 343416, Note_on_c, 0, 74, 71
1, 343424, Note_off_c, 0, 71, 71
1, 343431, Note_off_c, 0, 74, 70
1, 343456, Note_off_c, 0, 31, 62
1, 343457, Note_off_c, 0, 83, 59
1, 343489, Control_c, 0, 64, 110
1, 343503, Control_c, 0, 64, 107
1, 343518, Control_c, 0, 64, 96
1, 343534, Control_c, 0, 64, 78
1, 343549, Control_c, 0, 64, 0
1, 343562, Note_on_c, 0, 36, 96
1, 343563, Note_on_c, 0, 72, 94
1, 343565, Note_on_c, 0, 75, 91
1, 343565, Note_on_c, 0, 79, 78
1, 343566, Note_on_c, 0, 84, 91
1, 343602, Poly_aftertouch_c, 0, 80, 0
1, 343638, Control_c, 0, 64, 58
1, 343653, Control_c, 0, 64, 70
1, 343668, Control_c, 0, 64, 77
1, 343682, Control_c, 0, 64, 82
1, 343697, Control_c, 0, 64, 87
1, 343712, Control_c, 0, 64, 92
1, 343726, Control_c, 0, 64, 96
1, 343729, Note_off_c, 0, 84, 61
1, 343741, Control_c, 0, 64, 100
1, 343756, Note_off_c, 0, 36, 63
1, 343756, Control_c, 0, 64, 103
1, 343762, Note_off_c, 0, 72, 60
1, 343764, Note_off_c, 0, 79, 60
1, 343771, Control_c, 0, 64, 104
1, 343772, Note_off_c, 0, 75, 63
1, 343786, Control_c, 0, 64, 105
1, 343890, Control_c, 0, 64, 104
1, 343905, Control_c, 0, 64, 104
1, 343919, Control_c, 0, 64, 102
1, 343934, Control_c, 0, 64, 99
1, 343949, Control_c, 0, 64, 93
1, 343964, Control_c, 0, 64, 83
1, 343979, Control_c, 0, 64, 71
1, 343994, Control_c, 0, 64, 28
1, 343994, Note_on_c, 0, 48, 93
1, 344000, Note_on_c, 0, 39, 76
1, 344002, Note_on_c, 0, 43, 85
1, 344005, Note_on_c, 0, 36, 77
1, 344008, Control_c, 0, 64, 0
1, 344080, Note_on_c, 0, 72, 67
1, 344083, Note_on_c, 0, 75, 71
1, 344119, Note_off_c, 0, 72, 65
1, 344134, Note_off_c, 0, 75, 62
1, 344194, Note_on_c, 0, 72, 86
1, 344208, Note_on_c, 0, 69, 67
1, 344217, Note_off_c, 0, 36, 62
1, 344227, Note_off_c, 0, 69, 68
1, 344233, Note_off_c, 0, 72, 65
1, 344238, Note_off_c, 0, 43, 60
1, 344241, Note_off_c, 0, 39, 63
1, 344245, Note_off_c, 0, 48, 65
1, 344284, Note_on_c, 0, 74, 80
1, 344287, Note_on_c, 0, 71, 78
1, 344314, Note_off_c, 0, 71, 61
1, 344352, Note_off_c, 0, 74, 61
1, 344388, Note_on_c, 0, 75, 86
1, 344390, Note_on_c, 0, 72, 79
1, 344403, Note_on_c, 0, 74, 27
1, 344439, Note_off_c, 0, 74, 52
1, 344482, Note_on_c, 0, 60, 71
1, 344484, Note_on_c, 0, 63, 72
1, 344510, Note_off_c, 0, 63, 69
1, 344517, Note_off_c, 0, 60, 63
1, 344550, Note_off_c, 0, 72, 64
1, 344574, Note_off_c, 0, 75, 61
1, 344581, Note_on_c, 0, 60, 78
1, 344589, Note_on_c, 0, 57, 73
1, 344623, Note_off_c, 0, 60, 62
1, 344627, Note_off_c, 0, 57, 57
1, 344671, Note_on_c, 0, 62, 91
1, 344685, Note_on_c, 0, 59, 72
1, 344721, Note_off_c, 0, 62, 60
1, 344739, Note_off_c, 0, 59, 61
1, 344773, Note_on_c, 0, 60, 85
1, 344775, Note_on_c, 0, 63, 91
1, 344853, Control_c, 0, 64, 13
1, 344866, Note_on_c, 0, 87, 77
1, 344868, Note_on_c, 0, 84, 77
1, 344868, Control_c, 0, 64, 20
1, 344882, Control_c, 0, 64, 21
1, 344900, Note_off_c, 0, 84, 66
1, 344911, Note_off_c, 0, 63, 64
1, 344921, Note_off_c, 0, 87, 63
1, 344928, Note_off_c, 0, 60, 62
1, 344942, Control_c, 0, 64, 23
1, 344973, Note_on_c, 0, 83, 82
1, 344973, Note_on_c, 0, 86, 76
1, 345002, Note_off_c, 0, 83, 59
1, 345036, Note_off_c, 0, 86, 53
1, 345061, Note_on_c, 0, 84, 84
1, 345062, Note_on_c, 0, 81, 88
1, 345102, Note_off_c, 0, 84, 64
1, 345104, Control_c, 0, 64, 21
1, 345107, Note_off_c, 0, 81, 62
1, 345120, Control_c, 0, 64, 20
1, 345135, Control_c, 0, 64, 18
1, 345150, Control_c, 0, 64, 13
1, 345163, Note_on_c, 0, 55, 91
1, 345169, Note_on_c, 0, 47, 76
1, 345171, Note_on_c, 0, 50, 78
1, 345178, Note_on_c, 0, 43, 67
1, 345254, Note_on_c, 0, 74, 77
1, 345259, Note_on_c, 0, 71, 73
1, 345283, Control_c, 0, 64, 10
1, 345285, Note_off_c, 0, 71, 66
1, 345298, Control_c, 0, 64, 0
1, 345305, Note_off_c, 0, 74, 63
1, 345327, Control_c, 0, 64, 10
1, 345342, Control_c, 0, 64, 13
1, 345357, Control_c, 0, 64, 18
1, 345360, Note_on_c, 0, 71, 85
1, 345364, Note_on_c, 0, 67, 76
1, 345371, Control_c, 0, 64, 21
1, 345386, Control_c, 0, 64, 24
1, 345388, Note_off_c, 0, 67, 68
1, 345393, Note_off_c, 0, 43, 60
1, 345401, Control_c, 0, 64, 27
1, 345406, Note_off_c, 0, 47, 62
1, 345407, Note_off_c, 0, 71, 60
1, 345409, Note_off_c, 0, 50, 58
1, 345416, Control_c, 0, 64, 28
1, 345422, Note_off_c, 0, 55, 61
1, 345431, Control_c, 0, 64, 29
1, 345446, Note_on_c, 0, 69, 91
1, 345447, Note_on_c, 0, 72, 83
1, 345476, Control_c, 0, 64, 28
1, 345476, Note_off_c, 0, 69, 68
1, 345494, Note_off_c, 0, 72, 64
1, 345550, Note_on_c, 0, 71, 83
1, 345550, Note_on_c, 0, 74, 85
1, 345579, Control_c, 0, 64, 27
1, 345616, Control_c, 0, 64, 28
1, 345644, Note_on_c, 0, 59, 75
1, 345647, Note_on_c, 0, 62, 70
1, 345660, Control_c, 0, 64, 27
1, 345675, Control_c, 0, 64, 26
1, 345677, Note_off_c, 0, 62, 65
1, 345695, Note_off_c, 0, 59, 58
1, 345705, Control_c, 0, 64, 25
1, 345744, Note_on_c, 0, 59, 63
1, 345747, Note_on_c, 0, 55, 72
1, 345750, Control_c, 0, 64, 26
1, 345778, Note_off_c, 0, 59, 65
1, 345791, Note_off_c, 0, 55, 66
1, 345798, Note_off_c, 0, 71, 59
1, 345815, Note_off_c, 0, 74, 62
1, 345824, Control_c, 0, 64, 27
1, 345839, Control_c, 0, 64, 28
1, 345844, Note_on_c, 0, 60, 90
1, 345845, Note_on_c, 0, 57, 80
1, 345853, Control_c, 0, 64, 29
1, 345868, Control_c, 0, 64, 30
1, 345878, Note_off_c, 0, 60, 63
1, 345881, Note_off_c, 0, 57, 61
1, 345883, Control_c, 0, 64, 31
1, 345897, Control_c, 0, 64, 32
1, 345912, Control_c, 0, 64, 33
1, 345945, Note_on_c, 0, 62, 92
1, 345946, Note_on_c, 0, 59, 88
1, 346018, Control_c, 0, 64, 34
1, 346052, Note_on_c, 0, 86, 77
1, 346054, Note_on_c, 0, 83, 79
1, 346073, Note_off_c, 0, 62, 60
1, 346090, Note_off_c, 0, 83, 59
1, 346092, Control_c, 0, 64, 33
1, 346098, Note_off_c, 0, 59, 64
1, 346111, Note_off_c, 0, 86, 62
1, 346136, Control_c, 0, 64, 32
1, 346153, Note_on_c, 0, 81, 88
1, 346163, Note_on_c, 0, 84, 75
1, 346181, Control_c, 0, 64, 33
1, 346195, Control_c, 0, 64, 34
1, 346198, Note_off_c, 0, 81, 58
1, 346210, Control_c, 0, 64, 34
1, 346225, Control_c, 0, 64, 35
1, 346245, Note_off_c, 0, 84, 0
1, 346248, Note_on_c, 0, 83, 72
1, 346258, Note_on_c, 0, 79, 75
1, 346263, Note_on_c, 0, 84, 47
1, 346269, Control_c, 0, 64, 34
1, 346281, Note_off_c, 0, 84, 50
1, 346284, Control_c, 0, 64, 34
1, 346286, Note_off_c, 0, 83, 59
1, 346291, Note_off_c, 0, 79, 60
1, 346299, Control_c, 0, 64, 33
1, 346328, Control_c, 0, 64, 32
1, 346364, Note_on_c, 0, 48, 88
1, 346366, Control_c, 0, 64, 33
1, 346371, Note_on_c, 0, 39, 59
1, 346373, Note_on_c, 0, 36, 71
1, 346379, Note_on_c, 0, 43, 71
1, 346381, Control_c, 0, 64, 34
1, 346425, Control_c, 0, 64, 34
1, 346440, Control_c, 0, 64, 34
1, 346459, Note_on_c, 0, 76, 69
1, 346469, Note_on_c, 0, 70, 57
1, 346469, Control_c, 0, 64, 33
1, 346487, Note_off_c, 0, 76, 63
1, 346489, Note_off_c, 0, 70, 63
1, 346499, Control_c, 0, 64, 32
1, 346528, Control_c, 0, 64, 31
1, 346543, Control_c, 0, 64, 32
1, 346556, Note_on_c, 0, 67, 78
1, 346558, Control_c, 0, 64, 33
1, 346561, Note_on_c, 0, 70, 74
1, 346570, Note_off_c, 0, 36, 64
1, 346573, Control_c, 0, 64, 34
1, 346579, Note_off_c, 0, 67, 68
1, 346586, Note_off_c, 0, 43, 60
1, 346588, Note_off_c, 0, 39, 63
1, 346588, Control_c, 0, 64, 34
1, 346589, Note_on_c, 0, 76, 43
1, 346596, Note_off_c, 0, 70, 62
1, 346599, Note_off_c, 0, 48, 65
1, 346614, Note_off_c, 0, 76, 46
1, 346617, Control_c, 0, 64, 35
1, 346632, Control_c, 0, 64, 36
1, 346647, Control_c, 0, 64, 38
1, 346659, Note_on_c, 0, 68, 83
1, 346662, Note_on_c, 0, 72, 74
1, 346662, Control_c, 0, 64, 41
1, 346677, Note_on_c, 0, 76, 52
1, 346677, Control_c, 0, 64, 42
1, 346677, Note_off_c, 0, 68, 72
1, 346687, Note_off_c, 0, 72, 68
1, 346692, Control_c, 0, 64, 42
1, 346697, Note_off_c, 0, 76, 64
1, 346737, Control_c, 0, 64, 43
1, 346754, Note_on_c, 0, 76, 84
1, 346760, Note_on_c, 0, 70, 86
1, 346760, Note_on_c, 0, 73, 79
1, 346781, Control_c, 0, 64, 42
1, 346796, Control_c, 0, 64, 41
1, 346826, Control_c, 0, 64, 42
1, 346834, Note_on_c, 0, 61, 75
1, 346845, Note_on_c, 0, 58, 68
1, 346856, Control_c, 0, 64, 42
1, 346862, Note_off_c, 0, 61, 65
1, 346871, Control_c, 0, 64, 43
1, 346886, Note_off_c, 0, 58, 61
1, 346943, Note_on_c, 0, 55, 77
1, 346944, Control_c, 0, 64, 42
1, 346970, Note_on_c, 0, 58, 58
1, 346974, Control_c, 0, 64, 41
1, 346989, Control_c, 0, 64, 41
1, 346990, Note_off_c, 0, 58, 65
1, 346999, Note_off_c, 0, 70, 52
1, 347005, Note_off_c, 0, 55, 63
1, 347014, Note_off_c, 0, 76, 41
1, 347018, Control_c, 0, 64, 40
1, 347041, Note_off_c, 0, 73, 53
1, 347048, Control_c, 0, 64, 39
1, 347050, Note_on_c, 0, 60, 92
1, 347073, Note_on_c, 0, 56, 68
1, 347099, Note_off_c, 0, 60, 61
1, 347110, Note_off_c, 0, 56, 63
1, 347159, Control_c, 0, 64, 40
1, 347166, Note_on_c, 0, 61, 90
1, 347169, Note_on_c, 0, 58, 86
1, 347174, Control_c, 0, 64, 41
1, 347233, Control_c, 0, 64, 42
1, 347248, Control_c, 0, 64, 43
1, 347255, Note_on_c, 0, 76, 71
1, 347261, Note_on_c, 0, 73, 72
1, 347263, Note_on_c, 0, 70, 71
1, 347288, Note_off_c, 0, 70, 68
1, 347292, Control_c, 0, 64, 42
1, 347294, Note_off_c, 0, 76, 67
1, 347305, Note_off_c, 0, 73, 62
1, 347316, Note_off_c, 0, 61, 62
1, 347334, Note_off_c, 0, 58, 65
1, 347351, Control_c, 0, 64, 43
1, 347360, Note_on_c, 0, 68, 75
1, 347369, Note_on_c, 0, 72, 71
1, 347375, Note_on_c, 0, 76, 64
1, 347376, Note_on_c, 0, 70, 57
1, 347386, Note_off_c, 0, 68, 67
1, 347398, Note_off_c, 0, 70, 62
1, 347404, Note_off_c, 0, 76, 65
1, 347408, Note_off_c, 0, 72, 64
1, 347411, Control_c, 0, 64, 44
1, 347425, Control_c, 0, 64, 45
1, 347440, Control_c, 0, 64, 47
1, 347449, Note_on_c, 0, 72, 65
1, 347455, Control_c, 0, 64, 48
1, 347467, Note_on_c, 0, 67, 72
1, 347485, Control_c, 0, 64, 48
1, 347491, Note_on_c, 0, 70, 33
1, 347492, Note_off_c, 0, 67, 66
1, 347501, Note_on_c, 0, 76, 11
1, 347514, Note_off_c, 0, 72, 61
1, 347515, Control_c, 0, 64, 48
1, 347524, Note_off_c, 0, 76, 33
1, 347525, Note_off_c, 0, 70, 32
1, 347530, Control_c, 0, 64, 47
1, 347545, Control_c, 0, 64, 45
1, 347556, Note_on_c, 0, 53, 91
1, 347559, Note_on_c, 0, 48, 82
1, 347560, Control_c, 0, 64, 43
1, 347561, Note_on_c, 0, 44, 73
1, 347565, Note_on_c, 0, 41, 76
1, 347574, Control_c, 0, 64, 39
1, 347589, Control_c, 0, 64, 36
1, 347604, Control_c, 0, 64, 33
1, 347635, Note_on_c, 0, 77, 76
1, 347637, Note_on_c, 0, 68, 76
1, 347668, Note_off_c, 0, 68, 63
1, 347676, Note_off_c, 0, 77, 61
1, 347693, Control_c, 0, 64, 34
1, 347723, Control_c, 0, 64, 35
1, 347738, Note_on_c, 0, 65, 82
1, 347738, Control_c, 0, 64, 36
1, 347741, Note_on_c, 0, 77, 74
1, 347746, Note_on_c, 0, 68, 76
1, 347765, Note_off_c, 0, 65, 62
1, 347771, Note_off_c, 0, 68, 68
1, 347781, Note_off_c, 0, 77, 61
1, 347783, Note_off_c, 0, 41, 64
1, 347793, Note_off_c, 0, 48, 63
1, 347798, Control_c, 0, 64, 36
1, 347799, Note_off_c, 0, 44, 64
1, 347810, Note_off_c, 0, 53, 61
1, 347813, Control_c, 0, 64, 38
1, 347834, Note_on_c, 0, 77, 76
1, 347848, Note_on_c, 0, 67, 77
1, 347854, Note_on_c, 0, 70, 63
1, 347864, Control_c, 0, 64, 36
1, 347869, Note_off_c, 0, 67, 70
1, 347873, Note_off_c, 0, 70, 66
1, 347879, Control_c, 0, 64, 36
1, 347884, Note_off_c, 0, 77, 62
1, 347893, Control_c, 0, 64, 36
1, 347908, Control_c, 0, 64, 38
1, 347923, Control_c, 0, 64, 39
1, 347938, Control_c, 0, 64, 41
1, 347943, Note_on_c, 0, 73, 85
1, 347944, Note_on_c, 0, 77, 82
1, 347951, Note_on_c, 0, 68, 87
1, 347953, Control_c, 0, 64, 42
1, 347957, Note_off_c, 0, 73, 69
1, 347968, Control_c, 0, 64, 43
1, 347971, Note_on_c, 0, 72, 69
1, 347998, Control_c, 0, 64, 43
1, 348045, Note_on_c, 0, 60, 77
1, 348048, Note_on_c, 0, 56, 81
1, 348057, Control_c, 0, 64, 43
1, 348073, Note_off_c, 0, 60, 64
1, 348102, Note_off_c, 0, 56, 62
1, 348138, Note_on_c, 0, 53, 80
1, 348146, Control_c, 0, 64, 42
1, 348156, Note_on_c, 0, 56, 54
1, 348182, Note_off_c, 0, 56, 65
1, 348188, Note_off_c, 0, 53, 65
1, 348205, Control_c, 0, 64, 42
1, 348209, Note_off_c, 0, 68, 58
1, 348215, Note_off_c, 0, 72, 58
1, 348220, Control_c, 0, 64, 41
1, 348242, Note_on_c, 0, 58, 88
1, 348249, Note_on_c, 0, 55, 77
1, 348251, Note_off_c, 0, 77, 50
1, 348276, Note_off_c, 0, 55, 69
1, 348278, Control_c, 0, 64, 40
1, 348286, Note_off_c, 0, 58, 66
1, 348293, Control_c, 0, 64, 39
1, 348323, Control_c, 0, 64, 41
1, 348338, Control_c, 0, 64, 41
1, 348341, Note_on_c, 0, 60, 89
1, 348347, Note_on_c, 0, 56, 90
1, 348383, Control_c, 0, 64, 41
1, 348397, Control_c, 0, 64, 40
1, 348412, Control_c, 0, 64, 41
1, 348427, Control_c, 0, 64, 41
1, 348435, Note_on_c, 0, 72, 73
1, 348436, Note_on_c, 0, 68, 79
1, 348436, Note_on_c, 0, 77, 72
1, 348463, Note_off_c, 0, 68, 65
1, 348470, Note_off_c, 0, 72, 65
1, 348471, Control_c, 0, 64, 41
1, 348477, Note_off_c, 0, 77, 61
1, 348504, Note_off_c, 0, 60, 58
1, 348516, Control_c, 0, 64, 41
1, 348531, Control_c, 0, 64, 41
1, 348534, Note_off_c, 0, 56, 66
1, 348540, Note_on_c, 0, 77, 79
1, 348546, Control_c, 0, 64, 39
1, 348549, Note_on_c, 0, 67, 81
1, 348554, Note_on_c, 0, 70, 68
1, 348561, Control_c, 0, 64, 39
1, 348570, Note_off_c, 0, 67, 70
1, 348576, Control_c, 0, 64, 38
1, 348582, Note_off_c, 0, 70, 67
1, 348602, Note_off_c, 0, 77, 62
1, 348612, Control_c, 0, 64, 38
1, 348658, Note_on_c, 0, 65, 77
1, 348671, Note_on_c, 0, 69, 56
1, 348680, Note_off_c, 0, 65, 70
1, 348686, Control_c, 0, 64, 38
1, 348692, Note_off_c, 0, 69, 61
1, 348716, Control_c, 0, 64, 39
1, 348731, Control_c, 0, 64, 38
1, 348746, Control_c, 0, 64, 36
1, 348761, Control_c, 0, 64, 32
1, 348765, Note_on_c, 0, 50, 89
1, 348768, Note_on_c, 0, 42, 79
1, 348768, Note_on_c, 0, 45, 84
1, 348776, Control_c, 0, 64, 27
1, 348777, Note_on_c, 0, 38, 77
1, 348790, Control_c, 0, 64, 25
1, 348820, Control_c, 0, 64, 27
1, 348835, Control_c, 0, 64, 29
1, 348850, Control_c, 0, 64, 32
1, 348862, Note_on_c, 0, 78, 79
1, 348864, Control_c, 0, 64, 33
1, 348865, Note_on_c, 0, 72, 76
1, 348879, Control_c, 0, 64, 34
1, 348894, Control_c, 0, 64, 33
1, 348901, Note_off_c, 0, 72, 65
1, 348913, Note_off_c, 0, 78, 62
1, 348938, Control_c, 0, 64, 35
1, 348953, Control_c, 0, 64, 38
1, 348957, Note_on_c, 0, 72, 77
1, 348961, Note_on_c, 0, 78, 77
1, 348968, Note_on_c, 0, 69, 76
1, 348968, Control_c, 0, 64, 40
1, 348983, Control_c, 0, 64, 41
1, 348990, Note_off_c, 0, 69, 72
1, 348996, Note_off_c, 0, 38, 62
1, 348997, Control_c, 0, 64, 40
1, 349003, Note_off_c, 0, 45, 62
1, 349004, Note_off_c, 0, 72, 64
1, 349012, Control_c, 0, 64, 39
1, 349014, Note_off_c, 0, 78, 63
1, 349014, Note_off_c, 0, 50, 61
1, 349021, Note_off_c, 0, 42, 63
1, 349041, Control_c, 0, 64, 41
1, 349054, Note_on_c, 0, 74, 83
1, 349056, Control_c, 0, 64, 43
1, 349059, Note_on_c, 0, 78, 72
1, 349065, Note_on_c, 0, 71, 78
1, 349086, Control_c, 0, 64, 43
1, 349089, Note_off_c, 0, 71, 65
1, 349101, Control_c, 0, 64, 42
1, 349102, Note_off_c, 0, 78, 63
1, 349105, Note_off_c, 0, 74, 64
1, 349117, Control_c, 0, 64, 43
1, 349132, Control_c, 0, 64, 45
1, 349146, Control_c, 0, 64, 46
1, 349163, Note_on_c, 0, 78, 87
1, 349169, Note_on_c, 0, 72, 83
1, 349173, Note_on_c, 0, 75, 83
1, 349176, Control_c, 0, 64, 46
1, 349191, Control_c, 0, 64, 45
1, 349250, Control_c, 0, 64, 46
1, 349264, Note_on_c, 0, 60, 81
1, 349265, Control_c, 0, 64, 46
1, 349267, Note_on_c, 0, 63, 81
1, 349280, Control_c, 0, 64, 47
1, 349288, Note_off_c, 0, 63, 71
1, 349309, Control_c, 0, 64, 46
1, 349311, Note_off_c, 0, 60, 62
1, 349346, Control_c, 0, 64, 46
1, 349361, Control_c, 0, 64, 47
1, 349366, Note_on_c, 0, 60, 81
1, 349379, Note_on_c, 0, 57, 76
1, 349391, Control_c, 0, 64, 46
1, 349415, Note_off_c, 0, 60, 64
1, 349420, Control_c, 0, 64, 45
1, 349427, Note_off_c, 0, 57, 60
1, 349435, Control_c, 0, 64, 45
1, 349450, Control_c, 0, 64, 44
1, 349461, Note_off_c, 0, 72, 51
1, 349464, Note_off_c, 0, 75, 56
1, 349465, Control_c, 0, 64, 44
1, 349468, Note_on_c, 0, 59, 84
1, 349468, Note_on_c, 0, 62, 100
1, 349470, Note_off_c, 0, 78, 53
1, 349509, Note_off_c, 0, 62, 64
1, 349509, Control_c, 0, 64, 43
1, 349516, Note_off_c, 0, 59, 64
1, 349568, Control_c, 0, 64, 44
1, 349574, Note_on_c, 0, 63, 92
1, 349577, Note_on_c, 0, 60, 82
1, 349583, Control_c, 0, 64, 45
1, 349598, Control_c, 0, 64, 46
1, 349643, Control_c, 0, 64, 46
1, 349658, Control_c, 0, 64, 47
1, 349670, Note_on_c, 0, 78, 78
1, 349673, Note_on_c, 0, 75, 77
1, 349679, Note_on_c, 0, 72, 65
1, 349706, Note_off_c, 0, 72, 69
1, 349727, Note_off_c, 0, 78, 63
1, 349729, Note_off_c, 0, 75, 65
1, 349732, Note_off_c, 0, 63, 61
1, 349732, Control_c, 0, 64, 48
1, 349746, Control_c, 0, 64, 49
1, 349750, Note_off_c, 0, 60, 64
1, 349762, Control_c, 0, 64, 49
1, 349788, Note_on_c, 0, 71, 83
1, 349788, Note_on_c, 0, 74, 80
1, 349788, Note_on_c, 0, 78, 81
1, 349807, Control_c, 0, 64, 51
1, 349811, Note_off_c, 0, 71, 64
1, 349821, Control_c, 0, 64, 53
1, 349836, Control_c, 0, 64, 54
1, 349840, Note_off_c, 0, 74, 63
1, 349845, Note_off_c, 0, 78, 63
1, 349865, Control_c, 0, 64, 53
1, 349889, Note_on_c, 0, 78, 77
1, 349895, Control_c, 0, 64, 54
1, 349898, Note_on_c, 0, 69, 83
1, 349900, Note_on_c, 0, 72, 79
1, 349911, Control_c, 0, 64, 55
1, 349926, Control_c, 0, 64, 57
1, 349933, Note_off_c, 0, 69, 66
1, 349941, Control_c, 0, 64, 59
1, 349951, Note_off_c, 0, 72, 61
1, 349956, Control_c, 0, 64, 59
1, 349970, Note_off_c, 0, 78, 63
1, 349970, Control_c, 0, 64, 58
1, 349985, Control_c, 0, 64, 51
1, 350000, Control_c, 0, 64, 0
1, 350038, Note_on_c, 0, 55, 90
1, 350042, Note_on_c, 0, 71, 82
1, 350042, Note_on_c, 0, 74, 84
1, 350045, Note_on_c, 0, 79, 88
1, 350045, Note_on_c, 0, 47, 77
1, 350045, Note_on_c, 0, 50, 77
1, 350048, Note_on_c, 0, 43, 71
1, 350078, Note_off_c, 0, 71, 62
1, 350097, Note_off_c, 0, 74, 61
1, 350149, Note_off_c, 0, 79, 56
1, 350198, Note_on_c, 0, 80, 86
1, 350203, Note_on_c, 0, 77, 66
1, 350251, Note_off_c, 0, 77, 62
1, 350259, Control_c, 0, 64, 10
1, 350266, Note_off_c, 0, 80, 64
1, 350279, Note_off_c, 0, 43, 61
1, 350288, Control_c, 0, 64, 0
1, 350295, Note_off_c, 0, 50, 61
1, 350298, Note_off_c, 0, 47, 64
1, 350313, Note_on_c, 0, 77, 88
1, 350313, Note_off_c, 0, 55, 63
1, 350322, Note_on_c, 0, 74, 77
1, 350343, Note_off_c, 0, 74, 69
1, 350369, Note_off_c, 0, 77, 62
1, 350418, Note_on_c, 0, 75, 87
1, 350418, Note_on_c, 0, 79, 83
1, 350422, Control_c, 0, 64, 13
1, 350436, Control_c, 0, 64, 16
1, 350455, Note_off_c, 0, 75, 65
1, 350466, Control_c, 0, 64, 10
1, 350489, Note_off_c, 0, 79, 55
1, 350496, Control_c, 0, 64, 16
1, 350509, Control_c, 0, 64, 20
1, 350522, Note_on_c, 0, 77, 85
1, 350524, Note_on_c, 0, 79, 41
1, 350524, Note_on_c, 0, 80, 89
1, 350524, Control_c, 0, 64, 21
1, 350539, Control_c, 0, 64, 23
1, 350564, Note_off_c, 0, 79, 57
1, 350568, Control_c, 0, 64, 24
1, 350583, Control_c, 0, 64, 25
1, 350598, Control_c, 0, 64, 26
1, 350608, Note_off_c, 0, 77, 59
1, 350609, Note_on_c, 0, 68, 80
1, 350610, Note_on_c, 0, 65, 78
1, 350615, Note_off_c, 0, 80, 62
1, 350633, Note_off_c, 0, 68, 69
1, 350652, Note_off_c, 0, 65, 62
1, 350657, Control_c, 0, 64, 27
1, 350672, Control_c, 0, 64, 28
1, 350701, Control_c, 0, 64, 25
1, 350703, Note_on_c, 0, 65, 73
1, 350705, Note_on_c, 0, 62, 78
1, 350717, Control_c, 0, 64, 18
1, 350732, Control_c, 0, 64, 10
1, 350747, Control_c, 0, 64, 0
1, 350761, Note_off_c, 0, 62, 59
1, 350762, Note_off_c, 0, 65, 65
1, 350807, Note_on_c, 0, 67, 90
1, 350819, Note_on_c, 0, 63, 75
1, 350866, Note_off_c, 0, 67, 60
1, 350893, Note_off_c, 0, 63, 62
1, 350908, Note_on_c, 0, 65, 84
1, 350908, Note_on_c, 0, 68, 91
1, 350939, Note_off_c, 0, 68, 67
1, 350952, Note_off_c, 0, 65, 66
1, 350977, Control_c, 0, 64, 13
1, 350991, Control_c, 0, 64, 20
1, 351006, Control_c, 0, 64, 21
1, 351021, Control_c, 0, 64, 24
1, 351029, Note_on_c, 0, 68, 74
1, 351034, Note_on_c, 0, 65, 65
1, 351036, Control_c, 0, 64, 23
1, 351051, Control_c, 0, 64, 21
1, 351062, Note_off_c, 0, 65, 61
1, 351065, Control_c, 0, 64, 20
1, 351077, Note_off_c, 0, 68, 60
1, 351124, Control_c, 0, 64, 18
1, 351133, Note_on_c, 0, 65, 86
1, 351137, Note_on_c, 0, 62, 70
1, 351154, Control_c, 0, 64, 13
1, 351163, Note_off_c, 0, 62, 66
1, 351169, Control_c, 0, 64, 10
1, 351177, Note_off_c, 0, 65, 64
1, 351184, Control_c, 0, 64, 13
1, 351199, Control_c, 0, 64, 18
1, 351214, Control_c, 0, 64, 20
1, 351223, Note_on_c, 0, 67, 81
1, 351226, Note_on_c, 0, 63, 79
1, 351229, Control_c, 0, 64, 24
1, 351243, Control_c, 0, 64, 25
1, 351258, Note_off_c, 0, 63, 63
1, 351324, Note_on_c, 0, 68, 86
1, 351325, Note_on_c, 0, 65, 81
1, 351347, Control_c, 0, 64, 26
1, 351360, Note_off_c, 0, 67, 58
1, 351377, Control_c, 0, 64, 27
1, 351383, Note_off_c, 0, 65, 64
1, 351391, Control_c, 0, 64, 29
1, 351400, Note_off_c, 0, 68, 62
1, 351406, Control_c, 0, 64, 30
1, 351415, Note_on_c, 0, 53, 77
1, 351417, Note_on_c, 0, 56, 74
1, 351443, Note_off_c, 0, 56, 66
1, 351450, Control_c, 0, 64, 29
1, 351456, Note_off_c, 0, 53, 66
1, 351515, Note_on_c, 0, 50, 78
1, 351520, Note_on_c, 0, 53, 70
1, 351555, Control_c, 0, 64, 27
1, 351563, Note_off_c, 0, 53, 65
1, 351565, Note_off_c, 0, 50, 60
1, 351570, Control_c, 0, 64, 25
1, 351592, Control_c, 0, 64, 21
1, 351607, Control_c, 0, 64, 18
1, 351619, Note_on_c, 0, 55, 85
1, 351622, Control_c, 0, 64, 16
1, 351633, Note_on_c, 0, 51, 69
1, 351637, Control_c, 0, 64, 13
1, 351667, Control_c, 0, 64, 16
1, 351673, Note_off_c, 0, 55, 61
1, 351689, Note_off_c, 0, 51, 58
1, 351711, Control_c, 0, 64, 13
1, 351721, Note_on_c, 0, 53, 86
1, 351722, Note_on_c, 0, 56, 87
1, 351746, Note_off_c, 0, 56, 68
1, 351756, Note_off_c, 0, 53, 70
1, 351770, Control_c, 0, 64, 16
1, 351785, Control_c, 0, 64, 18
1, 351800, Control_c, 0, 64, 23
1, 351814, Control_c, 0, 64, 26
1, 351829, Control_c, 0, 64, 27
1, 351844, Control_c, 0, 64, 28
1, 351850, Note_on_c, 0, 56, 74
1, 351861, Note_on_c, 0, 53, 54
1, 351884, Note_off_c, 0, 53, 62
1, 351888, Control_c, 0, 64, 27
1, 351894, Note_off_c, 0, 56, 59
1, 351903, Control_c, 0, 64, 25
1, 351918, Control_c, 0, 64, 24
1, 351932, Control_c, 0, 64, 21
1, 351947, Control_c, 0, 64, 18
1, 351950, Note_on_c, 0, 53, 81
1, 351957, Note_on_c, 0, 50, 68
1, 351962, Control_c, 0, 64, 16
1, 351977, Control_c, 0, 64, 10
1, 351983, Note_off_c, 0, 50, 67
1, 351992, Control_c, 0, 64, 0
1, 351997, Note_off_c, 0, 53, 61
1, 352045, Note_on_c, 0, 55, 75
1, 352050, Note_on_c, 0, 51, 75
1, 352085, Note_off_c, 0, 51, 61
1, 352126, Control_c, 0, 64, 10
1, 352140, Control_c, 0, 64, 18
1, 352141, Note_on_c, 0, 53, 77
1, 352143, Note_on_c, 0, 56, 79
1, 352155, Control_c, 0, 64, 20
1, 352177, Note_off_c, 0, 55, 59
1, 352183, Note_off_c, 0, 53, 67
1, 352210, Note_off_c, 0, 56, 63
1, 352214, Control_c, 0, 64, 24
1, 352229, Control_c, 0, 64, 25
1, 352237, Note_on_c, 0, 44, 67
1, 352241, Note_on_c, 0, 41, 73
1, 352258, Control_c, 0, 64, 23
1, 352270, Note_off_c, 0, 44, 64
1, 352272, Note_off_c, 0, 41, 67
1, 352273, Control_c, 0, 64, 20
1, 352288, Control_c, 0, 64, 18
1, 352304, Control_c, 0, 64, 16
1, 352319, Control_c, 0, 64, 13
1, 352341, Control_c, 0, 64, 10
1, 352356, Note_on_c, 0, 55, 56
1, 352356, Control_c, 0, 64, 0
1, 352362, Note_on_c, 0, 43, 75
1, 352363, Note_on_c, 0, 39, 64
1, 352364, Note_on_c, 0, 59, 73
1, 352368, Note_on_c, 0, 53, 68
1, 352370, Note_on_c, 0, 50, 68
1, 352399, Note_off_c, 0, 50, 66
1, 352400, Note_off_c, 0, 43, 63
1, 352400, Note_off_c, 0, 53, 66
1, 352402, Note_off_c, 0, 39, 63
1, 352418, Note_off_c, 0, 55, 64
1, 352431, Note_off_c, 0, 59, 59
1, 352445, Control_c, 0, 64, 10
1, 352464, Note_on_c, 0, 38, 79
1, 352467, Note_on_c, 0, 41, 80
1, 352489, Control_c, 0, 64, 0
1, 352492, Note_off_c, 0, 41, 69
1, 352505, Note_off_c, 0, 38, 63
1, 352579, Note_on_c, 0, 55, 58
1, 352583, Note_on_c, 0, 60, 77
1, 352585, Note_on_c, 0, 51, 82
1, 352676, Note_on_c, 0, 39, 80
1, 352679, Note_off_c, 0, 51, 58
1, 352696, Control_c, 0, 64, 10
1, 352711, Control_c, 0, 64, 13
1, 352716, Note_off_c, 0, 39, 63
1, 352721, Note_off_c, 0, 55, 61
1, 352721, Note_off_c, 0, 60, 60
1, 352726, Control_c, 0, 64, 16
1, 352741, Control_c, 0, 64, 18
1, 352756, Control_c, 0, 64, 21
1, 352771, Control_c, 0, 64, 23
1, 352793, Note_on_c, 0, 38, 82
1, 352801, Control_c, 0, 64, 21
1, 352850, Note_off_c, 0, 38, 63
1, 352889, Control_c, 0, 64, 24
1, 352900, Note_on_c, 0, 36, 85
1, 352904, Control_c, 0, 64, 25
1, 352919, Control_c, 0, 64, 24
1, 352932, Note_off_c, 0, 36, 69
1, 352934, Control_c, 0, 64, 21
1, 352949, Control_c, 0, 64, 20
1, 352979, Control_c, 0, 64, 18
1, 352994, Control_c, 0, 64, 10
1, 353008, Control_c, 0, 64, 0
1, 353015, Note_on_c, 0, 62, 88
1, 353022, Note_on_c, 0, 55, 69
1, 353023, Note_on_c, 0, 53, 79
1, 353132, Note_on_c, 0, 35, 88
1, 353182, Note_off_c, 0, 35, 61
1, 353198, Note_off_c, 0, 53, 61
1, 353214, Note_off_c, 0, 62, 58
1, 353222, Note_off_c, 0, 55, 60
1, 353258, Note_on_c, 0, 33, 83
1, 353376, Note_on_c, 0, 31, 81
1, 353384, Note_off_c, 0, 33, 64
1, 353423, Note_off_c, 0, 31, 63
1, 353540, Note_on_c, 0, 60, 84
1, 353541, Note_on_c, 0, 55, 66
1, 353543, Note_on_c, 0, 51, 87
1, 353724, Note_off_c, 0, 51, 61
1, 353733, Note_off_c, 0, 55, 64
1, 353756, Note_off_c, 0, 60, 58
1, 353912, Note_on_c, 0, 36, 80
1, 354172, Note_off_c, 0, 36, 63
1, 354929, Control_c, 0, 64, 10
1, 354944, Control_c, 0, 64, 28
1, 354958, Control_c, 0, 64, 36
1, 354973, Control_c, 0, 64, 40
1, 354988, Control_c, 0, 64, 45
1, 355003, Control_c, 0, 64, 51
1, 355018, Control_c, 0, 64, 56
1, 355032, Control_c, 0, 64, 59
1, 355047, Control_c, 0, 64, 62
1, 355062, Control_c, 0, 64, 63
1, 355076, Control_c, 0, 64, 64
1, 355091, Control_c, 0, 64, 65
1, 355106, Control_c, 0, 64, 66
1, 355121, Control_c, 0, 64, 67
1, 355136, Control_c, 0, 64, 68
1, 355150, Control_c, 0, 64, 70
1, 355165, Control_c, 0, 64, 72
1, 355180, Control_c, 0, 64, 75
1, 355195, Control_c, 0, 64, 77
1, 355210, Control_c, 0, 64, 79
1, 355225, Control_c, 0, 64, 81
1, 355239, Control_c, 0, 64, 84
1, 355254, Control_c, 0, 64, 85
1, 355269, Control_c, 0, 64, 87
1, 355283, Control_c, 0, 64, 89
1, 355298, Control_c, 0, 64, 91
1, 355313, Control_c, 0, 64, 93
1, 355336, Control_c, 0, 64, 94
1, 355351, Control_c, 0, 64, 96
1, 355365, Control_c, 0, 64, 98
1, 355380, Control_c, 0, 64, 99
1, 355395, Control_c, 0, 64, 101
1, 355410, Control_c, 0, 64, 102
1, 355425, Control_c, 0, 64, 104
1, 355439, Control_c, 0, 64, 106
1, 355454, Control_c, 0, 64, 108
1, 355469, Control_c, 0, 64, 109
1, 355483, Control_c, 0, 64, 111
1, 355498, Control_c, 0, 64, 112
1, 355514, Control_c, 0, 64, 113
1, 355529, Control_c, 0, 64, 114
1, 355544, Control_c, 0, 64, 114
1, 355559, Control_c, 0, 64, 115
1, 355574, Control_c, 0, 64, 116
1, 355588, Control_c, 0, 64, 116
1, 355603, Control_c, 0, 64, 117
1, 355618, Control_c, 0, 64, 117
1, 355633, Control_c, 0, 64, 118
1, 355648, Control_c, 0, 64, 118
1, 355662, Control_c, 0, 64, 119
1, 355685, Note_on_c, 0, 48, 27
1, 355692, Control_c, 0, 64, 119
1, 355701, Note_on_c, 0, 79, 43
1, 355706, Control_c, 0, 64, 120
1, 355736, Control_c, 0, 64, 120
1, 355749, Note_off_c, 0, 48, 44
1, 355767, Control_c, 0, 64, 121
1, 355811, Control_c, 0, 64, 121
1, 355912, Note_on_c, 0, 63, 9
1, 356009, Note_off_c, 0, 63, 38
1, 356047, Note_on_c, 0, 60, 30
1, 356186, Note_on_c, 0, 63, 26
1, 356248, Note_off_c, 0, 60, 26
1, 356323, Note_off_c, 0, 63, 41
1, 356345, Note_on_c, 0, 87, 58
1, 356383, Note_on_c, 0, 55, 12
1, 356444, Note_off_c, 0, 55, 42
1, 356467, Note_on_c, 0, 63, 31
1, 356481, Note_off_c, 0, 79, 34
1, 356600, Note_off_c, 0, 63, 37
1, 356611, Note_on_c, 0, 60, 35
1, 356740, Note_on_c, 0, 63, 33
1, 356771, Note_off_c, 0, 60, 32
1, 356869, Note_off_c, 0, 63, 37
1, 356880, Note_on_c, 0, 84, 57
1, 356899, Note_on_c, 0, 55, 34
1, 356956, Note_off_c, 0, 87, 37
1, 357010, Note_off_c, 0, 55, 34
1, 357036, Note_on_c, 0, 63, 33
1, 357146, Control_c, 0, 64, 121
1, 357148, Note_off_c, 0, 63, 48
1, 357189, Note_on_c, 0, 60, 38
1, 357287, Note_off_c, 0, 60, 55
1, 357289, Note_on_c, 0, 63, 37
1, 357317, Note_off_c, 0, 63, 56
1, 357368, Control_c, 0, 64, 119
1, 357383, Control_c, 0, 64, 114
1, 357398, Control_c, 0, 64, 102
1, 357413, Control_c, 0, 64, 87
1, 357427, Control_c, 0, 64, 70
1, 357442, Control_c, 0, 64, 0
1, 357470, Note_on_c, 0, 83, 48
1, 357471, Control_c, 0, 64, 39
1, 357486, Control_c, 0, 64, 66
1, 357490, Note_on_c, 0, 43, 48
1, 357501, Control_c, 0, 64, 74
1, 357516, Control_c, 0, 64, 81
1, 357524, Note_off_c, 0, 43, 53
1, 357531, Control_c, 0, 64, 86
1, 357545, Control_c, 0, 64, 89
1, 357560, Control_c, 0, 64, 92
1, 357583, Control_c, 0, 64, 96
1, 357598, Control_c, 0, 64, 98
1, 357599, Note_off_c, 0, 84, 28
1, 357613, Control_c, 0, 64, 100
1, 357627, Control_c, 0, 64, 102
1, 357642, Control_c, 0, 64, 104
1, 357657, Control_c, 0, 64, 105
1, 357672, Control_c, 0, 64, 106
1, 357682, Note_on_c, 0, 62, 34
1, 357686, Control_c, 0, 64, 107
1, 357701, Control_c, 0, 64, 108
1, 357716, Control_c, 0, 64, 109
1, 357731, Control_c, 0, 64, 109
1, 357739, Note_off_c, 0, 62, 42
1, 357746, Control_c, 0, 64, 110
1, 357760, Control_c, 0, 64, 110
1, 357790, Control_c, 0, 64, 111
1, 357805, Control_c, 0, 64, 111
1, 357809, Note_on_c, 0, 59, 24
1, 357849, Control_c, 0, 64, 112
1, 357936, Note_off_c, 0, 59, 31
1, 357940, Note_on_c, 0, 62, 19
1, 358012, Note_off_c, 0, 62, 40
1, 358059, Note_on_c, 0, 86, 66
1, 358064, Note_on_c, 0, 55, 40
1, 358139, Note_off_c, 0, 55, 46
1, 358180, Note_off_c, 0, 83, 49
1, 358181, Note_on_c, 0, 62, 37
1, 358297, Note_off_c, 0, 62, 54
1, 358345, Note_on_c, 0, 59, 33
1, 358450, Note_on_c, 0, 62, 42
1, 358473, Note_off_c, 0, 59, 33
1, 358535, Note_off_c, 0, 62, 50
1, 358580, Note_on_c, 0, 79, 62
1, 358595, Note_on_c, 0, 55, 32
1, 358717, Note_on_c, 0, 62, 29
1, 358780, Note_off_c, 0, 55, 39
1, 358815, Note_off_c, 0, 62, 37
1, 358822, Note_off_c, 0, 86, 22
1, 358836, Note_on_c, 0, 59, 37
1, 358927, Note_off_c, 0, 59, 54
1, 358950, Note_on_c, 0, 62, 38
1, 358998, Control_c, 0, 64, 111
1, 359013, Control_c, 0, 64, 110
1, 359018, Note_off_c, 0, 62, 53
1, 359028, Control_c, 0, 64, 105
1, 359042, Control_c, 0, 64, 96
1, 359057, Control_c, 0, 64, 85
1, 359080, Control_c, 0, 64, 70
1, 359095, Control_c, 0, 64, 47
1, 359106, Note_on_c, 0, 82, 62
1, 359110, Control_c, 0, 64, 0
1, 359122, Note_on_c, 0, 48, 40
1, 359139, Control_c, 0, 64, 58
1, 359154, Control_c, 0, 64, 68
1, 359155, Note_off_c, 0, 48, 55
1, 359169, Control_c, 0, 64, 73
1, 359184, Control_c, 0, 64, 78
1, 359198, Control_c, 0, 64, 81
1, 359213, Control_c, 0, 64, 84
1, 359228, Note_off_c, 0, 79, 36
1, 359228, Control_c, 0, 64, 87
1, 359243, Control_c, 0, 64, 90
1, 359257, Control_c, 0, 64, 93
1, 359259, Note_on_c, 0, 64, 37
1, 359272, Control_c, 0, 64, 96
1, 359287, Control_c, 0, 64, 98
1, 359302, Control_c, 0, 64, 100
1, 359317, Control_c, 0, 64, 101
1, 359325, Note_off_c, 0, 64, 43
1, 359331, Control_c, 0, 64, 102
1, 359346, Control_c, 0, 64, 103
1, 359355, Note_on_c, 0, 58, 44
1, 359361, Control_c, 0, 64, 104
1, 359376, Control_c, 0, 64, 104
1, 359391, Control_c, 0, 64, 105
1, 359405, Control_c, 0, 64, 105
1, 359420, Control_c, 0, 64, 106
1, 359434, Note_off_c, 0, 58, 50
1, 359450, Control_c, 0, 64, 106
1, 359482, Note_on_c, 0, 64, 35
1, 359570, Control_c, 0, 64, 107
1, 359573, Note_off_c, 0, 64, 52
1, 359620, Note_on_c, 0, 85, 68
1, 359623, Note_on_c, 0, 55, 41
1, 359729, Note_off_c, 0, 82, 50
1, 359730, Note_on_c, 0, 64, 41
1, 359779, Note_off_c, 0, 55, 34
1, 359857, Note_on_c, 0, 58, 43
1, 359879, Note_off_c, 0, 64, 36
1, 359996, Note_off_c, 0, 58, 37
1, 360004, Note_on_c, 0, 64, 40
1, 360073, Note_off_c, 0, 64, 55
1, 360125, Note_on_c, 0, 82, 65
1, 360140, Note_on_c, 0, 55, 38
1, 360285, Note_on_c, 0, 64, 33
1, 360352, Note_off_c, 0, 55, 38
1, 360353, Note_off_c, 0, 64, 55
1, 360355, Note_off_c, 0, 85, 36
1, 360378, Note_on_c, 0, 58, 39
1, 360467, Control_c, 0, 64, 106
1, 360515, Note_on_c, 0, 64, 33
1, 360555, Note_off_c, 0, 58, 38
1, 360578, Control_c, 0, 64, 106
1, 360593, Control_c, 0, 64, 105
1, 360600, Note_off_c, 0, 64, 55
1, 360608, Control_c, 0, 64, 102
1, 360623, Control_c, 0, 64, 96
1, 360625, Note_on_c, 0, 81, 60
1, 360637, Control_c, 0, 64, 88
1, 360648, Note_on_c, 0, 53, 47
1, 360652, Control_c, 0, 64, 76
1, 360667, Control_c, 0, 64, 63
1, 360682, Control_c, 0, 64, 0
1, 360729, Note_off_c, 0, 82, 35
1, 360741, Control_c, 0, 64, 25
1, 360756, Control_c, 0, 64, 63
1, 360771, Control_c, 0, 64, 68
1, 360786, Control_c, 0, 64, 72
1, 360796, Note_on_c, 0, 65, 30
1, 360800, Control_c, 0, 64, 76
1, 360815, Control_c, 0, 64, 79
1, 360830, Control_c, 0, 64, 83
1, 360845, Control_c, 0, 64, 85
1, 360860, Control_c, 0, 64, 88
1, 360875, Control_c, 0, 64, 89
1, 360890, Control_c, 0, 64, 91
1, 360896, Note_off_c, 0, 65, 37
1, 360897, Note_on_c, 0, 60, 42
1, 360904, Control_c, 0, 64, 93
1, 360919, Control_c, 0, 64, 94
1, 360934, Control_c, 0, 64, 96
1, 360949, Control_c, 0, 64, 97
1, 360964, Control_c, 0, 64, 97
1, 360978, Control_c, 0, 64, 98
1, 360993, Control_c, 0, 64, 99
1, 361008, Control_c, 0, 64, 100
1, 361041, Note_off_c, 0, 60, 33
1, 361045, Note_on_c, 0, 65, 28
1, 361051, Note_off_c, 0, 53, 32
1, 361052, Control_c, 0, 64, 100
1, 361112, Note_off_c, 0, 65, 42
1, 361113, Control_c, 0, 64, 101
1, 361125, Note_on_c, 0, 57, 46
1, 361138, Note_on_c, 0, 84, 63
1, 361210, Note_off_c, 0, 57, 40
1, 361228, Note_off_c, 0, 81, 50
1, 361260, Note_on_c, 0, 65, 32
1, 361372, Note_off_c, 0, 65, 48
1, 361403, Note_on_c, 0, 60, 34
1, 361528, Note_on_c, 0, 65, 36
1, 361554, Note_off_c, 0, 60, 29
1, 361641, Note_off_c, 0, 65, 37
1, 361649, Note_on_c, 0, 77, 59
1, 361665, Note_on_c, 0, 57, 42
1, 361769, Note_off_c, 0, 57, 57
1, 361793, Note_on_c, 0, 65, 40
1, 361793, Note_off_c, 0, 84, 59
1, 361882, Note_off_c, 0, 65, 59
1, 361921, Note_on_c, 0, 60, 44
1, 361999, Note_off_c, 0, 60, 47
1, 362026, Note_on_c, 0, 65, 46
1, 362055, Note_off_c, 0, 65, 58
1, 362150, Control_c, 0, 64, 100
1, 362165, Control_c, 0, 64, 98
1, 362179, Note_on_c, 0, 78, 63
1, 362180, Control_c, 0, 64, 91
1, 362195, Control_c, 0, 64, 79
1, 362210, Note_on_c, 0, 50, 44
1, 362210, Control_c, 0, 64, 65
1, 362224, Control_c, 0, 64, 0
1, 362266, Note_off_c, 0, 77, 51
1, 362283, Control_c, 0, 64, 61
1, 362298, Control_c, 0, 64, 68
1, 362313, Control_c, 0, 64, 73
1, 362328, Control_c, 0, 64, 78
1, 362337, Note_on_c, 0, 60, 35
1, 362342, Control_c, 0, 64, 82
1, 362357, Control_c, 0, 64, 85
1, 362372, Control_c, 0, 64, 87
1, 362384, Note_off_c, 0, 60, 43
1, 362387, Control_c, 0, 64, 90
1, 362402, Control_c, 0, 64, 92
1, 362416, Control_c, 0, 64, 95
1, 362431, Control_c, 0, 64, 96
1, 362446, Control_c, 0, 64, 98
1, 362461, Note_on_c, 0, 57, 33
1, 362461, Control_c, 0, 64, 99
1, 362476, Control_c, 0, 64, 100
1, 362491, Control_c, 0, 64, 101
1, 362506, Control_c, 0, 64, 102
1, 362517, Note_off_c, 0, 57, 41
1, 362521, Control_c, 0, 64, 103
1, 362536, Control_c, 0, 64, 103
1, 362550, Control_c, 0, 64, 104
1, 362580, Control_c, 0, 64, 104
1, 362588, Note_on_c, 0, 60, 29
1, 362653, Note_off_c, 0, 60, 43
1, 362669, Control_c, 0, 64, 105
1, 362694, Note_on_c, 0, 75, 58
1, 362702, Note_on_c, 0, 54, 45
1, 362798, Note_off_c, 0, 54, 51
1, 362833, Note_on_c, 0, 60, 38
1, 362924, Note_off_c, 0, 60, 56
1, 362961, Note_on_c, 0, 57, 39
1, 363048, Note_off_c, 0, 57, 51
1, 363074, Note_on_c, 0, 60, 41
1, 363206, Note_off_c, 0, 78, 28
1, 363219, Note_on_c, 0, 72, 62
1, 363220, Note_off_c, 0, 60, 35
1, 363229, Note_on_c, 0, 54, 46
1, 363273, Note_off_c, 0, 75, 60
1, 363322, Note_off_c, 0, 50, 34
1, 363343, Note_off_c, 0, 54, 52
1, 363349, Note_on_c, 0, 60, 42
1, 363428, Note_off_c, 0, 60, 58
1, 363463, Note_on_c, 0, 57, 40
1, 363550, Note_off_c, 0, 57, 59
1, 363591, Note_on_c, 0, 60, 36
1, 363620, Note_off_c, 0, 60, 51
1, 363692, Control_c, 0, 64, 104
1, 363707, Control_c, 0, 64, 103
1, 363721, Control_c, 0, 64, 97
1, 363736, Control_c, 0, 64, 87
1, 363751, Control_c, 0, 64, 73
1, 363752, Note_on_c, 0, 71, 57
1, 363753, Note_on_c, 0, 43, 55
1, 363766, Control_c, 0, 64, 0
1, 363805, Note_off_c, 0, 72, 58
1, 363810, Control_c, 0, 64, 23
1, 363825, Control_c, 0, 64, 65
1, 363829, Note_off_c, 0, 43, 50
1, 363839, Control_c, 0, 64, 71
1, 363854, Control_c, 0, 64, 76
1, 363869, Control_c, 0, 64, 81
1, 363884, Control_c, 0, 64, 84
1, 363899, Control_c, 0, 64, 87
1, 363904, Note_on_c, 0, 56, 40
1, 363913, Control_c, 0, 64, 90
1, 363928, Control_c, 0, 64, 93
1, 363943, Control_c, 0, 64, 95
1, 363958, Control_c, 0, 64, 97
1, 363973, Control_c, 0, 64, 99
1, 363987, Control_c, 0, 64, 100
1, 364002, Control_c, 0, 64, 101
1, 364017, Control_c, 0, 64, 102
1, 364022, Note_off_c, 0, 56, 39
1, 364032, Control_c, 0, 64, 103
1, 364047, Note_on_c, 0, 53, 31
1, 364047, Control_c, 0, 64, 104
1, 364062, Control_c, 0, 64, 104
1, 364091, Control_c, 0, 64, 105
1, 364110, Note_off_c, 0, 53, 59
1, 364133, Note_on_c, 0, 56, 47
1, 364136, Control_c, 0, 64, 105
1, 364211, Note_off_c, 0, 56, 49
1, 364267, Note_on_c, 0, 68, 68
1, 364291, Note_on_c, 0, 50, 35
1, 364405, Note_on_c, 0, 56, 36
1, 364412, Note_off_c, 0, 50, 38
1, 364512, Note_off_c, 0, 56, 51
1, 364536, Note_on_c, 0, 53, 38
1, 364644, Note_on_c, 0, 56, 42
1, 364683, Note_off_c, 0, 53, 45
1, 364691, Note_off_c, 0, 71, 13
1, 364759, Note_off_c, 0, 56, 55
1, 364789, Note_on_c, 0, 65, 65
1, 364809, Note_on_c, 0, 50, 38
1, 364825, Control_c, 0, 64, 103
1, 364840, Control_c, 0, 64, 98
1, 364855, Control_c, 0, 64, 89
1, 364869, Control_c, 0, 64, 78
1, 364884, Control_c, 0, 64, 67
1, 364893, Note_off_c, 0, 68, 54
1, 364899, Control_c, 0, 64, 16
1, 364907, Note_off_c, 0, 50, 49
1, 364914, Control_c, 0, 64, 0
1, 364917, Note_on_c, 0, 56, 41
1, 364929, Control_c, 0, 64, 50
1, 364944, Control_c, 0, 64, 65
1, 364959, Control_c, 0, 64, 69
1, 364974, Control_c, 0, 64, 72
1, 364988, Control_c, 0, 64, 76
1, 365003, Control_c, 0, 64, 80
1, 365018, Control_c, 0, 64, 83
1, 365033, Control_c, 0, 64, 85
1, 365048, Control_c, 0, 64, 87
1, 365054, Note_on_c, 0, 53, 33
1, 365069, Control_c, 0, 64, 89
1, 365072, Note_off_c, 0, 56, 34
1, 365084, Control_c, 0, 64, 90
1, 365100, Control_c, 0, 64, 92
1, 365115, Control_c, 0, 64, 93
1, 365130, Control_c, 0, 64, 93
1, 365160, Control_c, 0, 64, 94
1, 365188, Note_on_c, 0, 56, 40
1, 365189, Control_c, 0, 64, 94
1, 365247, Note_off_c, 0, 53, 36
1, 365278, Note_off_c, 0, 56, 50
1, 365293, Control_c, 0, 64, 94
1, 365308, Control_c, 0, 64, 92
1, 365323, Control_c, 0, 64, 88
1, 365328, Note_on_c, 0, 62, 52
1, 365333, Note_on_c, 0, 47, 46
1, 365337, Control_c, 0, 64, 80
1, 365352, Control_c, 0, 64, 70
1, 365367, Note_off_c, 0, 65, 60
1, 365367, Control_c, 0, 64, 41
1, 365382, Control_c, 0, 64, 0
1, 365411, Control_c, 0, 64, 50
1, 365426, Control_c, 0, 64, 65
1, 365441, Control_c, 0, 64, 69
1, 365451, Note_on_c, 0, 56, 37
1, 365456, Control_c, 0, 64, 73
1, 365471, Control_c, 0, 64, 77
1, 365486, Control_c, 0, 64, 80
1, 365490, Note_off_c, 0, 47, 33
1, 365500, Control_c, 0, 64, 82
1, 365515, Control_c, 0, 64, 84
1, 365530, Control_c, 0, 64, 86
1, 365545, Control_c, 0, 64, 88
1, 365552, Note_off_c, 0, 56, 46
1, 365560, Control_c, 0, 64, 90
1, 365574, Control_c, 0, 64, 91
1, 365588, Note_on_c, 0, 53, 37
1, 365589, Control_c, 0, 64, 91
1, 365604, Control_c, 0, 64, 92
1, 365618, Control_c, 0, 64, 92
1, 365648, Control_c, 0, 64, 93
1, 365688, Note_on_c, 0, 56, 50
1, 365694, Note_off_c, 0, 53, 37
1, 365722, Note_off_c, 0, 56, 64
1, 365800, Note_off_c, 0, 62, 53
1, 365825, Note_on_c, 0, 53, 52
1, 365848, Control_c, 0, 64, 92
1, 365855, Note_on_c, 0, 44, 47
1, 365863, Control_c, 0, 64, 88
1, 365878, Control_c, 0, 64, 78
1, 365894, Control_c, 0, 64, 67
1, 365909, Control_c, 0, 64, 0
1, 365953, Control_c, 0, 64, 56
1, 365968, Control_c, 0, 64, 66
1, 365983, Control_c, 0, 64, 70
1, 365993, Note_off_c, 0, 44, 35
1, 365997, Control_c, 0, 64, 73
1, 366012, Control_c, 0, 64, 77
1, 366024, Note_on_c, 0, 50, 29
1, 366027, Control_c, 0, 64, 79
1, 366041, Control_c, 0, 64, 82
1, 366056, Control_c, 0, 64, 83
1, 366067, Note_off_c, 0, 50, 48
1, 366071, Control_c, 0, 64, 84
1, 366086, Control_c, 0, 64, 86
1, 366088, Note_on_c, 0, 47, 46
1, 366101, Control_c, 0, 64, 87
1, 366115, Control_c, 0, 64, 88
1, 366130, Control_c, 0, 64, 89
1, 366160, Control_c, 0, 64, 89
1, 366190, Control_c, 0, 64, 90
1, 366211, Note_off_c, 0, 47, 41
1, 366220, Note_on_c, 0, 50, 37
1, 366326, Note_off_c, 0, 50, 33
1, 366352, Note_on_c, 0, 55, 52
1, 366366, Note_on_c, 0, 43, 46
1, 366383, Control_c, 0, 64, 89
1, 366397, Control_c, 0, 64, 84
1, 366412, Control_c, 0, 64, 76
1, 366427, Control_c, 0, 64, 64
1, 366441, Control_c, 0, 64, 0
1, 366458, Note_off_c, 0, 53, 37
1, 366467, Note_off_c, 0, 43, 57
1, 366491, Note_on_c, 0, 44, 46
1, 366501, Control_c, 0, 64, 59
1, 366515, Control_c, 0, 64, 66
1, 366530, Control_c, 0, 64, 68
1, 366545, Control_c, 0, 64, 70
1, 366568, Control_c, 0, 64, 71
1, 366583, Control_c, 0, 64, 73
1, 366594, Note_off_c, 0, 44, 60
1, 366597, Control_c, 0, 64, 75
1, 366612, Control_c, 0, 64, 77
1, 366627, Control_c, 0, 64, 78
1, 366632, Note_on_c, 0, 43, 42
1, 366641, Control_c, 0, 64, 79
1, 366656, Control_c, 0, 64, 80
1, 366671, Control_c, 0, 64, 80
1, 366687, Control_c, 0, 64, 81
1, 366702, Control_c, 0, 64, 82
1, 366717, Control_c, 0, 64, 82
1, 366757, Note_off_c, 0, 43, 0
1, 366767, Note_on_c, 0, 41, 53
1, 366792, Poly_aftertouch_c, 0, 43, 0
1, 366881, Note_off_c, 0, 55, 58
1, 366909, Control_c, 0, 64, 82
1, 366911, Note_on_c, 0, 39, 52
1, 366920, Note_on_c, 0, 48, 55
1, 366924, Control_c, 0, 64, 79
1, 366931, Note_off_c, 0, 41, 35
1, 366938, Control_c, 0, 64, 74
1, 366953, Control_c, 0, 64, 66
1, 366968, Control_c, 0, 64, 35
1, 366983, Control_c, 0, 64, 0
1, 367045, Note_off_c, 0, 39, 60
1, 367080, Note_on_c, 0, 38, 37
1, 367187, Note_off_c, 0, 38, 58
1, 367204, Note_on_c, 0, 39, 42
1, 367338, Note_off_c, 0, 39, 53
1, 367367, Note_on_c, 0, 36, 33
1, 367488, Note_off_c, 0, 48, 59
1, 367536, Note_on_c, 0, 43, 46
1, 367544, Note_on_c, 0, 35, 35
1, 367594, Note_off_c, 0, 36, 38
1, 367707, Note_off_c, 0, 35, 40
1, 367710, Note_on_c, 0, 31, 33
1, 367863, Note_on_c, 0, 33, 47
1, 367892, Note_off_c, 0, 31, 40
1, 368031, Note_on_c, 0, 35, 38
1, 368063, Note_off_c, 0, 33, 42
1, 368271, Note_off_c, 0, 35, 51
1, 368299, Note_on_c, 0, 48, 43
1, 368314, Note_on_c, 0, 36, 32
1, 368416, Note_off_c, 0, 43, 37
1, 368466, Control_c, 0, 64, 52
1, 368481, Control_c, 0, 64, 61
1, 368496, Control_c, 0, 64, 63
1, 368510, Control_c, 0, 64, 64
1, 368525, Control_c, 0, 64, 66
1, 368540, Control_c, 0, 64, 67
1, 368555, Control_c, 0, 64, 70
1, 368570, Control_c, 0, 64, 72
1, 368584, Control_c, 0, 64, 73
1, 368599, Control_c, 0, 64, 75
1, 368614, Control_c, 0, 64, 76
1, 368628, Control_c, 0, 64, 76
1, 368643, Control_c, 0, 64, 77
1, 368649, Note_off_c, 0, 48, 55
1, 368668, Note_off_c, 0, 36, 53
1, 368718, Control_c, 0, 64, 76
1, 368733, Control_c, 0, 64, 73
1, 368748, Control_c, 0, 64, 69
1, 368762, Control_c, 0, 64, 61
1, 368777, Control_c, 0, 64, 0
1, 369166, Note_on_c, 0, 39, 71
1, 369176, Note_on_c, 0, 84, 81
1, 369215, Control_c, 0, 64, 52
1, 369230, Control_c, 0, 64, 70
1, 369233, Note_off_c, 0, 39, 63
1, 369245, Control_c, 0, 64, 78
1, 369248, Note_off_c, 0, 84, 59
1, 369250, Note_on_c, 0, 36, 69
1, 369259, Note_on_c, 0, 87, 73
1, 369259, Control_c, 0, 64, 84
1, 369274, Control_c, 0, 64, 88
1, 369281, Poly_aftertouch_c, 0, 85, 127
1, 369289, Control_c, 0, 64, 90
1, 369304, Control_c, 0, 64, 92
1, 369319, Control_c, 0, 64, 94
1, 369328, Note_off_c, 0, 87, 61
1, 369329, Note_on_c, 0, 84, 68
1, 369333, Control_c, 0, 64, 96
1, 369348, Control_c, 0, 64, 99
1, 369356, Poly_aftertouch_c, 0, 85, 0
1, 369363, Control_c, 0, 64, 101
1, 369372, Note_on_c, 0, 39, 28
1, 369373, Note_off_c, 0, 36, 58
1, 369378, Control_c, 0, 64, 102
1, 369380, Note_on_c, 0, 43, 70
1, 369393, Note_off_c, 0, 84, 59
1, 369393, Control_c, 0, 64, 103
1, 369399, Note_off_c, 0, 39, 49
1, 369407, Control_c, 0, 64, 104
1, 369409, Note_on_c, 0, 79, 72
1, 369418, Note_off_c, 0, 43, 63
1, 369422, Control_c, 0, 64, 104
1, 369450, Note_off_c, 0, 79, 58
1, 369481, Note_on_c, 0, 39, 71
1, 369487, Note_on_c, 0, 84, 67
1, 369541, Note_off_c, 0, 84, 39
1, 369560, Note_on_c, 0, 79, 78
1, 369563, Control_c, 0, 64, 105
1, 369565, Note_on_c, 0, 43, 68
1, 369580, Note_off_c, 0, 39, 59
1, 369632, Note_off_c, 0, 79, 60
1, 369633, Note_on_c, 0, 48, 78
1, 369633, Note_off_c, 0, 43, 61
1, 369640, Note_on_c, 0, 75, 76
1, 369676, Note_off_c, 0, 48, 64
1, 369693, Note_off_c, 0, 75, 64
1, 369702, Note_on_c, 0, 79, 69
1, 369722, Note_on_c, 0, 43, 71
1, 369782, Note_on_c, 0, 75, 66
1, 369787, Note_off_c, 0, 79, 62
1, 369795, Note_on_c, 0, 48, 69
1, 369798, Note_off_c, 0, 43, 52
1, 369853, Note_on_c, 0, 72, 72
1, 369855, Note_off_c, 0, 75, 64
1, 369858, Note_off_c, 0, 48, 65
1, 369873, Note_on_c, 0, 51, 74
1, 369925, Note_on_c, 0, 75, 80
1, 369928, Note_off_c, 0, 72, 64
1, 369938, Note_off_c, 0, 51, 60
1, 369955, Note_on_c, 0, 48, 75
1, 369997, Note_on_c, 0, 72, 71
1, 370023, Note_on_c, 0, 51, 74
1, 370032, Note_off_c, 0, 75, 63
1, 370039, Note_off_c, 0, 48, 61
1, 370070, Note_on_c, 0, 67, 81
1, 370071, Note_off_c, 0, 72, 65
1, 370074, Note_off_c, 0, 51, 62
1, 370090, Note_on_c, 0, 55, 68
1, 370116, Note_off_c, 0, 67, 64
1, 370136, Note_off_c, 0, 55, 56
1, 370151, Note_on_c, 0, 72, 78
1, 370173, Note_on_c, 0, 51, 72
1, 370226, Note_on_c, 0, 67, 79
1, 370229, Note_off_c, 0, 51, 63
1, 370239, Note_on_c, 0, 55, 77
1, 370252, Note_off_c, 0, 72, 61
1, 370316, Note_on_c, 0, 63, 87
1, 370324, Note_off_c, 0, 67, 62
1, 370326, Note_off_c, 0, 55, 61
1, 370336, Note_on_c, 0, 60, 73
1, 370390, Note_off_c, 0, 63, 63
1, 370393, Note_on_c, 0, 67, 71
1, 370397, Note_on_c, 0, 55, 60
1, 370402, Note_off_c, 0, 60, 58
1, 370466, Note_on_c, 0, 63, 78
1, 370467, Note_off_c, 0, 67, 62
1, 370475, Control_c, 0, 64, 103
1, 370489, Control_c, 0, 64, 97
1, 370491, Note_on_c, 0, 60, 86
1, 370504, Control_c, 0, 64, 86
1, 370519, Control_c, 0, 64, 73
1, 370521, Note_off_c, 0, 55, 64
1, 370534, Control_c, 0, 64, 54
1, 370542, Note_on_c, 0, 67, 75
1, 370549, Control_c, 0, 64, 0
1, 370551, Note_off_c, 0, 63, 64
1, 370565, Note_off_c, 0, 60, 0
1, 370578, Control_c, 0, 64, 25
1, 370581, Note_on_c, 0, 47, 80
1, 370593, Control_c, 0, 64, 57
1, 370602, Poly_aftertouch_c, 0, 60, 0
1, 370608, Control_c, 0, 64, 56
1, 370617, Note_off_c, 0, 47, 65
1, 370621, Note_off_c, 0, 67, 62
1, 370623, Control_c, 0, 64, 47
1, 370626, Note_on_c, 0, 62, 70
1, 370637, Control_c, 0, 64, 37
1, 370652, Control_c, 0, 64, 38
1, 370667, Control_c, 0, 64, 43
1, 370683, Control_c, 0, 64, 46
1, 370698, Control_c, 0, 64, 47
1, 370706, Note_on_c, 0, 67, 69
1, 370707, Note_off_c, 0, 62, 62
1, 370727, Control_c, 0, 64, 45
1, 370742, Control_c, 0, 64, 44
1, 370757, Control_c, 0, 64, 44
1, 370772, Control_c, 0, 64, 43
1, 370776, Note_on_c, 0, 71, 70
1, 370787, Control_c, 0, 64, 42
1, 370789, Note_off_c, 0, 67, 61
1, 370791, Note_on_c, 0, 43, 85
1, 370792, Note_on_c, 0, 55, 74
1, 370801, Control_c, 0, 64, 40
1, 370813, Note_off_c, 0, 55, 69
1, 370814, Note_on_c, 0, 53, 42
1, 370816, Control_c, 0, 64, 36
1, 370818, Note_off_c, 0, 43, 66
1, 370831, Control_c, 0, 64, 34
1, 370831, Note_off_c, 0, 71, 60
1, 370844, Note_off_c, 0, 53, 36
1, 370850, Note_on_c, 0, 67, 73
1, 370935, Note_on_c, 0, 71, 81
1, 370939, Note_off_c, 0, 67, 59
1, 370965, Control_c, 0, 64, 33
1, 370994, Control_c, 0, 64, 34
1, 371007, Note_on_c, 0, 74, 72
1, 371009, Control_c, 0, 64, 36
1, 371012, Note_on_c, 0, 50, 95
1, 371015, Note_off_c, 0, 71, 61
1, 371018, Note_on_c, 0, 38, 85
1, 371040, Note_off_c, 0, 50, 68
1, 371055, Note_off_c, 0, 38, 69
1, 371058, Note_off_c, 0, 74, 65
1, 371076, Control_c, 0, 64, 38
1, 371090, Note_on_c, 0, 71, 76
1, 371091, Control_c, 0, 64, 40
1, 371105, Control_c, 0, 64, 41
1, 371135, Control_c, 0, 64, 40
1, 371168, Note_on_c, 0, 74, 71
1, 371170, Note_off_c, 0, 71, 59
1, 371180, Control_c, 0, 64, 41
1, 371194, Control_c, 0, 64, 41
1, 371209, Control_c, 0, 64, 42
1, 371238, Note_on_c, 0, 79, 77
1, 371239, Note_on_c, 0, 47, 92
1, 371247, Note_on_c, 0, 35, 84
1, 371253, Control_c, 0, 64, 41
1, 371258, Note_off_c, 0, 74, 65
1, 371265, Note_off_c, 0, 47, 69
1, 371271, Note_off_c, 0, 35, 67
1, 371283, Control_c, 0, 64, 43
1, 371290, Note_off_c, 0, 79, 60
1, 371298, Control_c, 0, 64, 46
1, 371308, Note_on_c, 0, 74, 72
1, 371312, Control_c, 0, 64, 47
1, 371342, Control_c, 0, 64, 47
1, 371356, Control_c, 0, 64, 46
1, 371371, Control_c, 0, 64, 45
1, 371386, Control_c, 0, 64, 39
1, 371395, Note_on_c, 0, 79, 81
1, 371401, Control_c, 0, 64, 0
1, 371420, Note_off_c, 0, 74, 56
1, 371472, Note_on_c, 0, 43, 95
1, 371478, Note_on_c, 0, 31, 92
1, 371478, Note_on_c, 0, 83, 83
1, 371490, Note_off_c, 0, 79, 61
1, 371506, Control_c, 0, 64, 26
1, 371521, Control_c, 0, 64, 66
1, 371535, Control_c, 0, 64, 71
1, 371550, Control_c, 0, 64, 75
1, 371556, Note_off_c, 0, 83, 59
1, 371559, Note_on_c, 0, 79, 80
1, 371565, Control_c, 0, 64, 77
1, 371580, Control_c, 0, 64, 78
1, 371595, Control_c, 0, 64, 80
1, 371609, Control_c, 0, 64, 82
1, 371624, Control_c, 0, 64, 83
1, 371637, Note_on_c, 0, 83, 75
1, 371639, Control_c, 0, 64, 84
1, 371647, Note_off_c, 0, 79, 59
1, 371654, Control_c, 0, 64, 84
1, 371681, Note_off_c, 0, 43, 51
1, 371711, Note_on_c, 0, 86, 84
1, 371716, Note_off_c, 0, 83, 62
1, 371726, Note_off_c, 0, 31, 51
1, 371758, Control_c, 0, 64, 84
1, 371772, Control_c, 0, 64, 83
1, 371778, Note_off_c, 0, 86, 60
1, 371781, Note_on_c, 0, 83, 77
1, 371787, Control_c, 0, 64, 81
1, 371809, Control_c, 0, 64, 78
1, 371824, Control_c, 0, 64, 73
1, 371839, Control_c, 0, 64, 67
1, 371854, Control_c, 0, 64, 55
1, 371854, Note_off_c, 0, 83, 62
1, 371860, Note_on_c, 0, 86, 70
1, 371869, Control_c, 0, 64, 0
1, 371908, Note_off_c, 0, 86, 64
1, 371942, Note_on_c, 0, 37, 75
1, 371946, Note_on_c, 0, 82, 84
1, 372001, Note_off_c, 0, 37, 65
1, 372011, Note_on_c, 0, 34, 68
1, 372017, Control_c, 0, 64, 67
1, 372018, Note_off_c, 0, 82, 64
1, 372024, Note_on_c, 0, 85, 74
1, 372032, Control_c, 0, 64, 74
1, 372047, Control_c, 0, 64, 78
1, 372061, Control_c, 0, 64, 83
1, 372076, Control_c, 0, 64, 88
1, 372088, Note_on_c, 0, 82, 71
1, 372089, Note_on_c, 0, 37, 74
1, 372091, Control_c, 0, 64, 94
1, 372098, Note_off_c, 0, 85, 55
1, 372099, Note_off_c, 0, 34, 64
1, 372106, Control_c, 0, 64, 98
1, 372121, Control_c, 0, 64, 101
1, 372135, Control_c, 0, 64, 103
1, 372150, Control_c, 0, 64, 104
1, 372161, Note_off_c, 0, 37, 64
1, 372165, Control_c, 0, 64, 106
1, 372167, Note_on_c, 0, 78, 80
1, 372167, Note_off_c, 0, 82, 63
1, 372170, Note_on_c, 0, 42, 78
1, 372179, Control_c, 0, 64, 107
1, 372194, Control_c, 0, 64, 108
1, 372209, Control_c, 0, 64, 109
1, 372239, Note_off_c, 0, 42, 62
1, 372240, Note_on_c, 0, 37, 66
1, 372240, Control_c, 0, 64, 110
1, 372247, Note_on_c, 0, 82, 75
1, 372248, Note_off_c, 0, 78, 61
1, 372269, Control_c, 0, 64, 110
1, 372299, Note_off_c, 0, 37, 64
1, 372300, Control_c, 0, 64, 111
1, 372304, Note_on_c, 0, 42, 67
1, 372320, Note_off_c, 0, 82, 62
1, 372321, Note_on_c, 0, 78, 74
1, 372343, Note_off_c, 0, 42, 65
1, 372389, Control_c, 0, 64, 111
1, 372392, Note_on_c, 0, 46, 82
1, 372401, Note_on_c, 0, 73, 78
1, 372405, Note_off_c, 0, 78, 62
1, 372469, Note_off_c, 0, 46, 61
1, 372471, Note_on_c, 0, 78, 75
1, 372472, Note_off_c, 0, 73, 62
1, 372479, Note_on_c, 0, 42, 74
1, 372545, Note_on_c, 0, 46, 74
1, 372549, Note_on_c, 0, 73, 72
1, 372550, Note_off_c, 0, 42, 63
1, 372568, Note_off_c, 0, 78, 56
1, 372623, Note_off_c, 0, 46, 61
1, 372636, Note_on_c, 0, 70, 79
1, 372638, Note_on_c, 0, 49, 76
1, 372641, Note_off_c, 0, 73, 64
1, 372701, Note_off_c, 0, 49, 62
1, 372706, Note_on_c, 0, 46, 72
1, 372715, Note_on_c, 0, 73, 72
1, 372721, Note_off_c, 0, 70, 63
1, 372778, Note_on_c, 0, 49, 73
1, 372790, Note_on_c, 0, 70, 69
1, 372807, Note_off_c, 0, 73, 55
1, 372820, Note_off_c, 0, 46, 61
1, 372843, Note_off_c, 0, 49, 61
1, 372848, Note_on_c, 0, 54, 77
1, 372867, Note_on_c, 0, 66, 78
1, 372869, Note_off_c, 0, 70, 62
1, 372894, Note_off_c, 0, 54, 55
1, 372937, Note_on_c, 0, 49, 61
1, 372942, Note_on_c, 0, 70, 75
1, 372942, Note_off_c, 0, 66, 63
1, 373002, Note_on_c, 0, 54, 75
1, 373004, Note_off_c, 0, 49, 61
1, 373008, Note_on_c, 0, 66, 76
1, 373022, Note_off_c, 0, 70, 58
1, 373067, Note_off_c, 0, 54, 60
1, 373085, Note_on_c, 0, 58, 76
1, 373088, Note_off_c, 0, 66, 65
1, 373088, Note_on_c, 0, 61, 80
1, 373153, Note_on_c, 0, 54, 68
1, 373159, Note_off_c, 0, 58, 58
1, 373159, Note_off_c, 0, 61, 61
1, 373161, Note_on_c, 0, 66, 79
1, 373217, Note_on_c, 0, 61, 74
1, 373219, Note_on_c, 0, 58, 69
1, 373222, Note_off_c, 0, 66, 63
1, 373241, Control_c, 0, 64, 111
1, 373256, Note_off_c, 0, 58, 63
1, 373256, Control_c, 0, 64, 110
1, 373262, Note_off_c, 0, 54, 63
1, 373271, Control_c, 0, 64, 103
1, 373274, Note_off_c, 0, 61, 61
1, 373286, Control_c, 0, 64, 92
1, 373308, Control_c, 0, 64, 77
1, 373318, Note_on_c, 0, 65, 81
1, 373323, Control_c, 0, 64, 61
1, 373326, Note_on_c, 0, 57, 86
1, 373327, Note_on_c, 0, 45, 82
1, 373338, Control_c, 0, 64, 0
1, 373357, Note_off_c, 0, 57, 62
1, 373365, Note_off_c, 0, 45, 67
1, 373392, Note_off_c, 0, 65, 63
1, 373405, Note_on_c, 0, 60, 75
1, 373412, Control_c, 0, 64, 23
1, 373426, Control_c, 0, 64, 16
1, 373441, Control_c, 0, 64, 18
1, 373456, Control_c, 0, 64, 24
1, 373471, Control_c, 0, 64, 31
1, 373477, Note_off_c, 0, 60, 60
1, 373479, Note_on_c, 0, 65, 78
1, 373486, Control_c, 0, 64, 35
1, 373500, Control_c, 0, 64, 36
1, 373530, Control_c, 0, 64, 36
1, 373552, Note_on_c, 0, 69, 78
1, 373559, Note_on_c, 0, 53, 88
1, 373563, Note_off_c, 0, 65, 63
1, 373565, Note_on_c, 0, 41, 89
1, 373574, Control_c, 0, 64, 36
1, 373589, Control_c, 0, 64, 34
1, 373598, Note_off_c, 0, 53, 69
1, 373604, Control_c, 0, 64, 33
1, 373612, Note_off_c, 0, 69, 65
1, 373613, Note_off_c, 0, 41, 66
1, 373629, Note_on_c, 0, 65, 76
1, 373633, Control_c, 0, 64, 34
1, 373648, Control_c, 0, 64, 36
1, 373663, Control_c, 0, 64, 37
1, 373678, Control_c, 0, 64, 38
1, 373708, Note_on_c, 0, 69, 82
1, 373708, Control_c, 0, 64, 37
1, 373712, Note_off_c, 0, 65, 65
1, 373737, Control_c, 0, 64, 38
1, 373751, Control_c, 0, 64, 38
1, 373778, Note_on_c, 0, 72, 78
1, 373781, Control_c, 0, 64, 38
1, 373788, Note_on_c, 0, 48, 94
1, 373788, Note_off_c, 0, 69, 63
1, 373797, Note_on_c, 0, 36, 86
1, 373811, Control_c, 0, 64, 39
1, 373816, Note_off_c, 0, 48, 70
1, 373825, Control_c, 0, 64, 43
1, 373827, Note_off_c, 0, 36, 70
1, 373830, Note_off_c, 0, 72, 66
1, 373840, Control_c, 0, 64, 46
1, 373855, Control_c, 0, 64, 47
1, 373863, Note_on_c, 0, 69, 81
1, 373930, Control_c, 0, 64, 48
1, 373935, Note_on_c, 0, 72, 82
1, 373939, Note_off_c, 0, 69, 66
1, 373945, Control_c, 0, 64, 49
1, 373960, Control_c, 0, 64, 49
1, 374003, Note_on_c, 0, 77, 80
1, 374006, Note_on_c, 0, 45, 88
1, 374008, Note_on_c, 0, 33, 90
1, 374009, Note_off_c, 0, 72, 65
1, 374019, Control_c, 0, 64, 49
1, 374034, Note_off_c, 0, 45, 68
1, 374034, Control_c, 0, 64, 48
1, 374042, Note_off_c, 0, 33, 65
1, 374069, Note_off_c, 0, 77, 58
1, 374071, Control_c, 0, 64, 49
1, 374088, Note_on_c, 0, 72, 79
1, 374101, Control_c, 0, 64, 50
1, 374116, Control_c, 0, 64, 51
1, 374130, Control_c, 0, 64, 52
1, 374145, Control_c, 0, 64, 53
1, 374160, Control_c, 0, 64, 52
1, 374169, Note_on_c, 0, 77, 85
1, 374174, Control_c, 0, 64, 51
1, 374188, Note_off_c, 0, 72, 55
1, 374189, Control_c, 0, 64, 46
1, 374204, Control_c, 0, 64, 0
1, 374241, Note_on_c, 0, 41, 98
1, 374244, Note_on_c, 0, 29, 90
1, 374248, Note_on_c, 0, 81, 86
1, 374260, Note_off_c, 0, 77, 60
1, 374322, Note_on_c, 0, 77, 79
1, 374326, Note_off_c, 0, 81, 59
1, 374394, Note_on_c, 0, 81, 77
1, 374396, Control_c, 0, 64, 20
1, 374405, Note_off_c, 0, 77, 58
1, 374411, Control_c, 0, 64, 34
1, 374426, Control_c, 0, 64, 38
1, 374453, Note_off_c, 0, 29, 61
1, 374456, Control_c, 0, 64, 36
1, 374474, Note_on_c, 0, 84, 80
1, 374480, Note_off_c, 0, 81, 61
1, 374486, Control_c, 0, 64, 38
1, 374492, Note_off_c, 0, 41, 65
1, 374501, Control_c, 0, 64, 38
1, 374541, Note_off_c, 0, 84, 63
1, 374545, Control_c, 0, 64, 39
1, 374545, Note_on_c, 0, 81, 75
1, 374560, Control_c, 0, 64, 41
1, 374589, Control_c, 0, 64, 39
1, 374604, Control_c, 0, 64, 34
1, 374613, Note_on_c, 0, 84, 68
1, 374619, Control_c, 0, 64, 18
1, 374620, Note_off_c, 0, 81, 62
1, 374634, Control_c, 0, 64, 0
1, 374636, Note_off_c, 0, 84, 70
1, 374721, Note_on_c, 0, 72, 79
1, 374724, Note_on_c, 0, 51, 72
1, 374753, Control_c, 0, 64, 56
1, 374768, Control_c, 0, 64, 63
1, 374770, Note_off_c, 0, 72, 56
1, 374778, Note_off_c, 0, 51, 60
1, 374783, Control_c, 0, 64, 64
1, 374805, Control_c, 0, 64, 65
1, 374813, Note_on_c, 0, 66, 77
1, 374820, Control_c, 0, 64, 66
1, 374826, Note_on_c, 0, 56, 59
1, 374835, Control_c, 0, 64, 68
1, 374846, Note_off_c, 0, 66, 67
1, 374849, Control_c, 0, 64, 70
1, 374864, Control_c, 0, 64, 72
1, 374874, Note_off_c, 0, 56, 61
1, 374879, Control_c, 0, 64, 72
1, 374881, Note_on_c, 0, 72, 79
1, 374885, Note_on_c, 0, 51, 63
1, 374953, Control_c, 0, 64, 73
1, 374957, Note_off_c, 0, 51, 62
1, 374963, Note_on_c, 0, 75, 80
1, 374963, Note_off_c, 0, 72, 64
1, 374972, Note_on_c, 0, 48, 50
1, 375016, Note_off_c, 0, 75, 66
1, 375019, Note_off_c, 0, 48, 65
1, 375035, Note_on_c, 0, 72, 70
1, 375036, Note_on_c, 0, 51, 65
1, 375088, Note_off_c, 0, 51, 59
1, 375098, Note_on_c, 0, 48, 55
1, 375109, Note_on_c, 0, 75, 73
1, 375113, Note_off_c, 0, 72, 57
1, 375149, Note_on_c, 0, 44, 64
1, 375149, Note_off_c, 0, 48, 64
1, 375181, Note_on_c, 0, 78, 88
1, 375190, Note_off_c, 0, 75, 65
1, 375190, Control_c, 0, 64, 73
1, 375202, Note_off_c, 0, 44, 61
1, 375214, Note_on_c, 0, 48, 64
1, 375219, Control_c, 0, 64, 74
1, 375226, Note_off_c, 0, 78, 62
1, 375260, Note_on_c, 0, 75, 78
1, 375288, Note_off_c, 0, 48, 40
1, 375293, Control_c, 0, 64, 74
1, 375301, Note_on_c, 0, 44, 73
1, 375334, Note_off_c, 0, 75, 61
1, 375353, Note_on_c, 0, 79, 60
1, 375370, Note_off_c, 0, 44, 63
1, 375377, Note_on_c, 0, 39, 70
1, 375383, Note_off_c, 0, 79, 55
1, 375403, Note_on_c, 0, 84, 75
1, 375441, Control_c, 0, 64, 75
1, 375452, Note_off_c, 0, 39, 61
1, 375455, Note_on_c, 0, 44, 79
1, 375455, Note_off_c, 0, 84, 66
1, 375456, Control_c, 0, 64, 75
1, 375472, Control_c, 0, 64, 76
1, 375484, Note_on_c, 0, 78, 76
1, 375526, Note_off_c, 0, 44, 63
1, 375533, Note_on_c, 0, 39, 65
1, 375562, Note_on_c, 0, 84, 73
1, 375568, Note_off_c, 0, 78, 58
1, 375595, Note_on_c, 0, 36, 66
1, 375598, Control_c, 0, 64, 76
1, 375599, Note_off_c, 0, 39, 63
1, 375623, Note_on_c, 0, 87, 87
1, 375633, Note_off_c, 0, 36, 66
1, 375639, Note_off_c, 0, 84, 63
1, 375681, Note_on_c, 0, 39, 70
1, 375695, Note_on_c, 0, 84, 75
1, 375702, Note_off_c, 0, 87, 63
1, 375745, Note_on_c, 0, 36, 65
1, 375746, Note_off_c, 0, 39, 61
1, 375746, Control_c, 0, 64, 77
1, 375768, Note_on_c, 0, 87, 75
1, 375775, Control_c, 0, 64, 77
1, 375788, Note_off_c, 0, 84, 63
1, 375805, Control_c, 0, 64, 77
1, 375820, Control_c, 0, 64, 73
1, 375833, Note_off_c, 0, 36, 63
1, 375834, Control_c, 0, 64, 63
1, 375840, Note_on_c, 0, 32, 79
1, 375843, Note_on_c, 0, 90, 83
1, 375849, Note_off_c, 0, 87, 64
1, 375849, Control_c, 0, 64, 0
1, 375879, Control_c, 0, 64, 43
1, 375893, Control_c, 0, 64, 66
1, 375908, Control_c, 0, 64, 72
1, 375915, Note_on_c, 0, 87, 73
1, 375916, Note_on_c, 0, 36, 69
1, 375919, Note_off_c, 0, 32, 61
1, 375923, Control_c, 0, 64, 77
1, 375931, Note_off_c, 0, 90, 58
1, 375938, Control_c, 0, 64, 80
1, 375952, Control_c, 0, 64, 83
1, 375967, Control_c, 0, 64, 86
1, 375976, Note_on_c, 0, 32, 66
1, 375978, Note_on_c, 0, 90, 69
1, 375980, Note_off_c, 0, 36, 64
1, 375982, Control_c, 0, 64, 89
1, 375990, Note_off_c, 0, 87, 63
1, 375997, Control_c, 0, 64, 90
1, 376027, Control_c, 0, 64, 87
1, 376042, Control_c, 0, 64, 82
1, 376047, Note_on_c, 0, 36, 61
1, 376056, Note_on_c, 0, 87, 76
1, 376057, Control_c, 0, 64, 78
1, 376062, Note_off_c, 0, 32, 62
1, 376081, Note_off_c, 0, 90, 62
1, 376087, Control_c, 0, 64, 81
1, 376101, Control_c, 0, 64, 86
1, 376110, Note_on_c, 0, 39, 81
1, 376116, Control_c, 0, 64, 92
1, 376116, Note_off_c, 0, 36, 64
1, 376128, Note_on_c, 0, 84, 83
1, 376131, Note_off_c, 0, 87, 64
1, 376131, Control_c, 0, 64, 96
1, 376145, Control_c, 0, 64, 98
1, 376160, Control_c, 0, 64, 98
1, 376175, Control_c, 0, 64, 99
1, 376190, Control_c, 0, 64, 100
1, 376197, Note_on_c, 0, 36, 73
1, 376199, Note_on_c, 0, 87, 81
1, 376203, Note_off_c, 0, 39, 60
1, 376205, Control_c, 0, 64, 103
1, 376216, Note_off_c, 0, 84, 62
1, 376219, Control_c, 0, 64, 105
1, 376234, Control_c, 0, 64, 107
1, 376265, Control_c, 0, 64, 106
1, 376280, Control_c, 0, 64, 98
1, 376297, Note_on_c, 0, 31, 85
1, 376298, Note_on_c, 0, 91, 89
1, 376298, Note_off_c, 0, 36, 61
1, 376302, Control_c, 0, 64, 76
1, 376310, Note_off_c, 0, 87, 63
1, 376317, Control_c, 0, 64, 0
1, 376361, Control_c, 0, 64, 62
1, 376371, Note_on_c, 0, 36, 78
1, 376371, Note_on_c, 0, 87, 75
1, 376376, Control_c, 0, 64, 74
1, 376379, Note_off_c, 0, 31, 61
1, 376385, Note_off_c, 0, 91, 58
1, 376391, Control_c, 0, 64, 85
1, 376406, Control_c, 0, 64, 93
1, 376420, Control_c, 0, 64, 94
1, 376435, Control_c, 0, 64, 96
1, 376443, Note_on_c, 0, 91, 77
1, 376444, Note_off_c, 0, 36, 60
1, 376450, Control_c, 0, 64, 98
1, 376451, Note_on_c, 0, 31, 78
1, 376457, Note_off_c, 0, 87, 62
1, 376465, Control_c, 0, 64, 100
1, 376480, Control_c, 0, 64, 102
1, 376495, Control_c, 0, 64, 104
1, 376510, Control_c, 0, 64, 104
1, 376518, Note_on_c, 0, 36, 75
1, 376519, Note_on_c, 0, 86, 83
1, 376524, Control_c, 0, 64, 105
1, 376529, Note_off_c, 0, 91, 54
1, 376536, Note_off_c, 0, 31, 59
1, 376539, Control_c, 0, 64, 107
1, 376554, Control_c, 0, 64, 108
1, 376569, Control_c, 0, 64, 109
1, 376583, Note_on_c, 0, 84, 84
1, 376583, Control_c, 0, 64, 110
1, 376585, Note_on_c, 0, 38, 83
1, 376590, Note_off_c, 0, 36, 64
1, 376590, Note_off_c, 0, 86, 64
1, 376598, Control_c, 0, 64, 111
1, 376613, Control_c, 0, 64, 113
1, 376628, Control_c, 0, 64, 116
1, 376643, Control_c, 0, 64, 118
1, 376657, Control_c, 0, 64, 120
1, 376662, Note_on_c, 0, 86, 86
1, 376670, Note_on_c, 0, 36, 81
1, 376672, Control_c, 0, 64, 121
1, 376678, Note_off_c, 0, 38, 62
1, 376680, Note_off_c, 0, 84, 63
1, 376687, Control_c, 0, 64, 123
1, 376702, Control_c, 0, 64, 124
1, 376746, Control_c, 0, 64, 119
1, 376757, Note_off_c, 0, 36, 63
1, 376761, Control_c, 0, 64, 103
1, 376763, Note_on_c, 0, 29, 86
1, 376766, Note_on_c, 0, 92, 95
1, 376775, Control_c, 0, 64, 79
1, 376781, Note_off_c, 0, 86, 60
1, 376790, Control_c, 0, 64, 0
1, 376847, Note_on_c, 0, 36, 75
1, 376850, Control_c, 0, 64, 60
1, 376850, Note_off_c, 0, 29, 62
1, 376851, Note_on_c, 0, 86, 77
1, 376854, Note_off_c, 0, 92, 64
1, 376865, Control_c, 0, 64, 74
1, 376879, Control_c, 0, 64, 80
1, 376894, Control_c, 0, 64, 84
1, 376909, Control_c, 0, 64, 86
1, 376911, Note_off_c, 0, 36, 63
1, 376918, Note_on_c, 0, 29, 75
1, 376924, Control_c, 0, 64, 88
1, 376930, Note_on_c, 0, 92, 89
1, 376936, Note_off_c, 0, 86, 61
1, 376939, Control_c, 0, 64, 92
1, 376954, Control_c, 0, 64, 95
1, 376968, Control_c, 0, 64, 98
1, 376983, Control_c, 0, 64, 100
1, 376996, Note_on_c, 0, 36, 70
1, 376998, Note_off_c, 0, 29, 61
1, 376998, Control_c, 0, 64, 101
1, 377004, Note_on_c, 0, 86, 85
1, 377013, Control_c, 0, 64, 102
1, 377015, Note_off_c, 0, 92, 64
1, 377028, Control_c, 0, 64, 103
1, 377049, Control_c, 0, 64, 104
1, 377061, Note_off_c, 0, 36, 63
1, 377064, Control_c, 0, 64, 104
1, 377073, Note_on_c, 0, 38, 77
1, 377080, Control_c, 0, 64, 105
1, 377082, Note_on_c, 0, 84, 81
1, 377091, Note_off_c, 0, 86, 61
1, 377095, Control_c, 0, 64, 105
1, 377110, Control_c, 0, 64, 106
1, 377125, Control_c, 0, 64, 106
1, 377140, Control_c, 0, 64, 107
1, 377151, Note_on_c, 0, 86, 80
1, 377154, Control_c, 0, 64, 108
1, 377158, Note_on_c, 0, 36, 78
1, 377163, Note_off_c, 0, 38, 62
1, 377169, Note_off_c, 0, 84, 62
1, 377169, Control_c, 0, 64, 109
1, 377184, Control_c, 0, 64, 110
1, 377198, Control_c, 0, 64, 111
1, 377213, Control_c, 0, 64, 112
1, 377234, Note_off_c, 0, 36, 63
1, 377242, Note_on_c, 0, 29, 85
1, 377243, Note_on_c, 0, 92, 91
1, 377243, Control_c, 0, 64, 111
1, 377246, Note_off_c, 0, 86, 61
1, 377258, Control_c, 0, 64, 98
1, 377273, Control_c, 0, 64, 79
1, 377288, Control_c, 0, 64, 46
1, 377303, Control_c, 0, 64, 0
1, 377317, Note_off_c, 0, 29, 62
1, 377318, Note_on_c, 0, 86, 82
1, 377319, Note_on_c, 0, 36, 76
1, 377321, Note_off_c, 0, 92, 62
1, 377333, Control_c, 0, 64, 64
1, 377347, Control_c, 0, 64, 76
1, 377362, Control_c, 0, 64, 87
1, 377377, Control_c, 0, 64, 91
1, 377382, Note_off_c, 0, 36, 63
1, 377392, Control_c, 0, 64, 92
1, 377394, Note_on_c, 0, 92, 85
1, 377398, Note_on_c, 0, 29, 76
1, 377398, Note_off_c, 0, 86, 60
1, 377406, Control_c, 0, 64, 94
1, 377421, Control_c, 0, 64, 97
1, 377436, Control_c, 0, 64, 100
1, 377451, Control_c, 0, 64, 103
1, 377466, Note_on_c, 0, 36, 70
1, 377466, Note_off_c, 0, 29, 61
1, 377466, Control_c, 0, 64, 105
1, 377473, Note_on_c, 0, 86, 82
1, 377480, Control_c, 0, 64, 106
1, 377484, Note_off_c, 0, 92, 64
1, 377495, Control_c, 0, 64, 106
1, 377510, Control_c, 0, 64, 107
1, 377524, Note_off_c, 0, 36, 62
1, 377529, Note_on_c, 0, 38, 74
1, 377536, Note_on_c, 0, 84, 79
1, 377540, Control_c, 0, 64, 108
1, 377541, Note_off_c, 0, 86, 62
1, 377584, Control_c, 0, 64, 108
1, 377601, Note_on_c, 0, 86, 75
1, 377608, Note_off_c, 0, 38, 62
1, 377609, Note_on_c, 0, 36, 72
1, 377613, Control_c, 0, 64, 109
1, 377618, Note_off_c, 0, 84, 63
1, 377628, Control_c, 0, 64, 110
1, 377643, Control_c, 0, 64, 112
1, 377658, Control_c, 0, 64, 113
1, 377672, Control_c, 0, 64, 112
1, 377681, Note_off_c, 0, 36, 63
1, 377687, Note_on_c, 0, 29, 83
1, 377687, Note_on_c, 0, 92, 89
1, 377687, Control_c, 0, 64, 105
1, 377689, Note_off_c, 0, 86, 62
1, 377702, Control_c, 0, 64, 87
1, 377717, Control_c, 0, 64, 64
1, 377732, Control_c, 0, 64, 0
1, 377758, Note_off_c, 0, 29, 62
1, 377761, Note_on_c, 0, 36, 71
1, 377762, Control_c, 0, 64, 65
1, 377766, Note_off_c, 0, 92, 63
1, 377767, Note_on_c, 0, 86, 82
1, 377777, Control_c, 0, 64, 80
1, 377798, Control_c, 0, 64, 93
1, 377813, Control_c, 0, 64, 101
1, 377828, Control_c, 0, 64, 103
1, 377829, Note_off_c, 0, 36, 63
1, 377839, Note_off_c, 0, 86, 61
1, 377842, Note_on_c, 0, 92, 83
1, 377843, Control_c, 0, 64, 106
1, 377850, Note_on_c, 0, 29, 76
1, 377858, Control_c, 0, 64, 109
1, 377874, Control_c, 0, 64, 112
1, 377889, Control_c, 0, 64, 114
1, 377903, Control_c, 0, 64, 115
1, 377908, Note_off_c, 0, 29, 60
1, 377914, Note_on_c, 0, 36, 71
1, 377918, Control_c, 0, 64, 117
1, 377924, Note_on_c, 0, 86, 84
1, 377926, Note_off_c, 0, 92, 64
1, 377933, Control_c, 0, 64, 119
1, 377948, Control_c, 0, 64, 121
1, 377963, Control_c, 0, 64, 123
1, 377968, Note_off_c, 0, 36, 64
1, 377974, Note_on_c, 0, 38, 75
1, 377977, Control_c, 0, 64, 124
1, 377988, Note_on_c, 0, 84, 83
1, 377992, Control_c, 0, 64, 126
1, 377996, Note_off_c, 0, 86, 61
1, 378007, Control_c, 0, 64, 127
1, 378040, Note_off_c, 0, 38, 62
1, 378043, Note_on_c, 0, 36, 68
1, 378069, Note_on_c, 0, 86, 81
1, 378102, Note_off_c, 0, 84, 62
1, 378111, Control_c, 0, 64, 115
1, 378122, Note_off_c, 0, 36, 63
1, 378126, Control_c, 0, 64, 90
1, 378128, Note_on_c, 0, 32, 80
1, 378140, Control_c, 0, 64, 66
1, 378144, Note_on_c, 0, 89, 89
1, 378155, Note_off_c, 0, 86, 63
1, 378155, Control_c, 0, 64, 0
1, 378185, Control_c, 0, 64, 53
1, 378200, Control_c, 0, 64, 73
1, 378212, Note_on_c, 0, 36, 76
1, 378214, Control_c, 0, 64, 87
1, 378215, Note_off_c, 0, 32, 60
1, 378224, Note_on_c, 0, 86, 79
1, 378229, Control_c, 0, 64, 95
1, 378230, Note_off_c, 0, 89, 63
1, 378244, Control_c, 0, 64, 97
1, 378259, Control_c, 0, 64, 99
1, 378269, Note_on_c, 0, 32, 62
1, 378272, Note_off_c, 0, 36, 65
1, 378274, Control_c, 0, 64, 103
1, 378288, Control_c, 0, 64, 108
1, 378295, Note_on_c, 0, 89, 84
1, 378303, Control_c, 0, 64, 114
1, 378308, Note_off_c, 0, 86, 62
1, 378318, Control_c, 0, 64, 121
1, 378333, Control_c, 0, 64, 127
1, 378353, Note_off_c, 0, 32, 59
1, 378364, Note_on_c, 0, 35, 72
1, 378373, Note_on_c, 0, 86, 78
1, 378389, Note_off_c, 0, 89, 60
1, 378407, Control_c, 0, 64, 100
1, 378410, Note_on_c, 0, 38, 74
1, 378421, Control_c, 0, 64, 77
1, 378426, Note_off_c, 0, 35, 58
1, 378436, Note_off_c, 0, 86, 64
1, 378436, Control_c, 0, 64, 0
1, 378441, Note_on_c, 0, 83, 74
1, 378466, Control_c, 0, 64, 58
1, 378481, Control_c, 0, 64, 74
1, 378482, Note_on_c, 0, 35, 64
1, 378482, Note_off_c, 0, 38, 61
1, 378495, Control_c, 0, 64, 92
1, 378497, Note_on_c, 0, 86, 73
1, 378510, Control_c, 0, 64, 106
1, 378525, Control_c, 0, 64, 108
1, 378543, Note_off_c, 0, 83, 59
1, 378547, Control_c, 0, 64, 110
1, 378562, Control_c, 0, 64, 113
1, 378577, Control_c, 0, 64, 119
1, 378588, Note_on_c, 0, 91, 89
1, 378592, Control_c, 0, 64, 126
1, 378594, Note_on_c, 0, 31, 80
1, 378596, Note_off_c, 0, 86, 63
1, 378607, Control_c, 0, 64, 127
1, 378654, Note_on_c, 0, 86, 75
1, 378655, Note_off_c, 0, 91, 58
1, 378709, Note_off_c, 0, 31, 62
1, 378716, Note_off_c, 0, 35, 62
1, 378735, Note_off_c, 0, 86, 63
1, 378736, Note_on_c, 0, 91, 86
1, 378770, Control_c, 0, 64, 112
1, 378785, Control_c, 0, 64, 82
1, 378798, Note_on_c, 0, 36, 84
1, 378800, Control_c, 0, 64, 0
1, 378816, Note_on_c, 0, 87, 82
1, 378823, Note_off_c, 0, 91, 61
1, 378844, Control_c, 0, 64, 64
1, 378859, Control_c, 0, 64, 79
1, 378874, Control_c, 0, 64, 93
1, 378886, Note_on_c, 0, 39, 65
1, 378889, Control_c, 0, 64, 103
1, 378899, Note_on_c, 0, 91, 78
1, 378904, Control_c, 0, 64, 104
1, 378918, Note_on_c, 0, 43, 70
1, 378918, Control_c, 0, 64, 106
1, 378924, Note_off_c, 0, 36, 62
1, 378933, Control_c, 0, 64, 112
1, 378948, Control_c, 0, 64, 121
1, 378949, Note_off_c, 0, 43, 61
1, 378957, Note_off_c, 0, 39, 63
1, 378963, Note_on_c, 0, 84, 79
1, 378963, Control_c, 0, 64, 127
1, 378973, Note_off_c, 0, 91, 54
1, 379005, Note_off_c, 0, 87, 27
1, 379032, Note_off_c, 0, 84, 65
1, 379039, Note_on_c, 0, 39, 77
1, 379043, Note_on_c, 0, 79, 79
1, 379119, Note_on_c, 0, 42, 62
1, 379122, Note_off_c, 0, 79, 40
1, 379129, Note_on_c, 0, 84, 72
1, 379151, Note_off_c, 0, 42, 64
1, 379163, Note_off_c, 0, 39, 61
1, 379167, Note_off_c, 0, 84, 45
1, 379187, Note_on_c, 0, 43, 27
1, 379196, Note_on_c, 0, 75, 74
1, 379217, Note_off_c, 0, 43, 56
1, 379260, Control_c, 0, 64, 99
1, 379266, Note_on_c, 0, 43, 91
1, 379274, Note_on_c, 0, 77, 82
1, 379275, Control_c, 0, 64, 71
1, 379296, Note_off_c, 0, 75, 61
1, 379297, Control_c, 0, 64, 0
1, 379342, Control_c, 0, 64, 55
1, 379357, Control_c, 0, 64, 72
1, 379366, Note_on_c, 0, 80, 81
1, 379369, Note_on_c, 0, 47, 53
1, 379371, Control_c, 0, 64, 82
1, 379386, Control_c, 0, 64, 87
1, 379392, Note_off_c, 0, 77, 60
1, 379401, Control_c, 0, 64, 90
1, 379416, Control_c, 0, 64, 94
1, 379422, Note_on_c, 0, 50, 71
1, 379431, Control_c, 0, 64, 100
1, 379431, Note_off_c, 0, 43, 56
1, 379440, Note_off_c, 0, 80, 63
1, 379441, Note_off_c, 0, 47, 63
1, 379445, Note_on_c, 0, 74, 80
1, 379445, Control_c, 0, 64, 106
1, 379452, Note_off_c, 0, 50, 65
1, 379460, Control_c, 0, 64, 110
1, 379491, Control_c, 0, 64, 109
1, 379491, Note_off_c, 0, 74, 63
1, 379506, Control_c, 0, 64, 98
1, 379515, Note_on_c, 0, 43, 86
1, 379521, Control_c, 0, 64, 77
1, 379529, Note_on_c, 0, 74, 74
1, 379535, Control_c, 0, 64, 0
1, 379580, Control_c, 0, 64, 59
1, 379594, Control_c, 0, 64, 72
1, 379609, Note_on_c, 0, 77, 81
1, 379609, Control_c, 0, 64, 82
1, 379612, Note_on_c, 0, 50, 54
1, 379622, Note_off_c, 0, 74, 63
1, 379624, Control_c, 0, 64, 88
1, 379639, Control_c, 0, 64, 92
1, 379654, Control_c, 0, 64, 97
1, 379655, Note_on_c, 0, 53, 72
1, 379659, Note_off_c, 0, 43, 59
1, 379667, Note_off_c, 0, 50, 61
1, 379668, Control_c, 0, 64, 102
1, 379683, Control_c, 0, 64, 105
1, 379687, Note_off_c, 0, 53, 67
1, 379694, Note_off_c, 0, 77, 60
1, 379698, Control_c, 0, 64, 106
1, 379705, Note_on_c, 0, 69, 63
1, 379727, Control_c, 0, 64, 106
1, 379729, Note_on_c, 0, 71, 42
1, 379737, Note_off_c, 0, 69, 67
1, 379741, Control_c, 0, 64, 95
1, 379756, Note_off_c, 0, 71, 48
1, 379756, Control_c, 0, 64, 77
1, 379771, Control_c, 0, 64, 46
1, 379777, Note_on_c, 0, 48, 60
1, 379779, Note_on_c, 0, 72, 66
1, 379784, Note_on_c, 0, 47, 55
1, 379786, Control_c, 0, 64, 0
1, 379801, Control_c, 0, 64, 50
1, 379807, Note_on_c, 0, 71, 47
1, 379816, Control_c, 0, 64, 68
1, 379823, Note_off_c, 0, 72, 0
1, 379823, Note_on_c, 0, 72, 36
1, 379831, Control_c, 0, 64, 79
1, 379845, Control_c, 0, 64, 86
1, 379858, Note_on_c, 0, 51, 66
1, 379860, Control_c, 0, 64, 87
1, 379863, Note_on_c, 0, 75, 79
1, 379872, Note_off_c, 0, 72, 63
1, 379882, Note_off_c, 0, 47, 56
1, 379887, Note_off_c, 0, 48, 60
1, 379909, Note_off_c, 0, 71, 26
1, 379929, Note_off_c, 0, 75, 63
1, 379950, Note_on_c, 0, 65, 65
1, 379950, Note_on_c, 0, 55, 54
1, 379953, Note_off_c, 0, 51, 61
1, 379964, Control_c, 0, 64, 87
1, 379973, Note_off_c, 0, 55, 62
1, 379979, Note_off_c, 0, 65, 69
1, 379979, Control_c, 0, 64, 84
1, 379993, Control_c, 0, 64, 77
1, 380008, Control_c, 0, 64, 67
1, 380023, Control_c, 0, 64, 0
1, 380025, Note_on_c, 0, 48, 72
1, 380049, Note_on_c, 0, 63, 70
1, 380129, Note_on_c, 0, 67, 63
1, 380160, Note_on_c, 0, 51, 59
1, 380194, Note_off_c, 0, 63, 53
1, 380239, Note_on_c, 0, 60, 68
1, 380254, Note_on_c, 0, 55, 49
1, 380263, Note_off_c, 0, 67, 54
1, 380279, Note_off_c, 0, 51, 50
1, 380284, Control_c, 0, 64, 47
1, 380292, Note_off_c, 0, 48, 33
1, 380295, Note_off_c, 0, 55, 61
1, 380298, Control_c, 0, 64, 61
1, 380307, Note_off_c, 0, 60, 58
1, 380313, Control_c, 0, 64, 65
1, 380328, Control_c, 0, 64, 68
1, 380343, Control_c, 0, 64, 69
1, 380358, Control_c, 0, 64, 70
1, 380372, Control_c, 0, 64, 71
1, 380387, Control_c, 0, 64, 73
1, 380402, Control_c, 0, 64, 74
1, 380416, Control_c, 0, 64, 75
1, 380431, Control_c, 0, 64, 75
1, 380505, Control_c, 0, 64, 74
1, 380520, Control_c, 0, 64, 72
1, 380534, Note_on_c, 0, 60, 45
1, 380535, Control_c, 0, 64, 68
1, 380548, Note_on_c, 0, 51, 42
1, 380549, Control_c, 0, 64, 57
1, 380554, Note_on_c, 0, 48, 43
1, 380557, Note_on_c, 0, 55, 42
1, 380564, Control_c, 0, 64, 0
1, 380809, Control_c, 0, 64, 51
1, 380823, Control_c, 0, 64, 63
1, 380838, Control_c, 0, 64, 66
1, 380853, Control_c, 0, 64, 67
1, 380868, Control_c, 0, 64, 69
1, 380883, Control_c, 0, 64, 72
1, 380898, Control_c, 0, 64, 75
1, 380905, Note_off_c, 0, 51, 33
1, 380913, Control_c, 0, 64, 77
1, 380925, Note_off_c, 0, 55, 31
1, 380926, Note_off_c, 0, 48, 39
1, 380928, Control_c, 0, 64, 77
1, 380942, Control_c, 0, 64, 78
1, 380944, Note_off_c, 0, 60, 32
1, 380957, Control_c, 0, 64, 79
1, 380972, Control_c, 0, 64, 80
1, 380987, Control_c, 0, 64, 81
1, 381002, Control_c, 0, 64, 82
1, 381016, Control_c, 0, 64, 82
1, 381031, Control_c, 0, 64, 83
1, 381046, Control_c, 0, 64, 83
1, 381062, Control_c, 0, 64, 84
1, 381092, Control_c, 0, 64, 84
1, 381151, Control_c, 0, 64, 85
1, 381283, Note_on_c, 0, 59, 42
1, 381299, Control_c, 0, 64, 84
1, 381308, Note_on_c, 0, 55, 36
1, 381313, Control_c, 0, 64, 83
1, 381315, Note_on_c, 0, 53, 38
1, 381325, Note_on_c, 0, 50, 34
1, 381328, Control_c, 0, 64, 80
1, 381343, Control_c, 0, 64, 74
1, 381358, Control_c, 0, 64, 65
1, 381372, Control_c, 0, 64, 0
1, 381461, Control_c, 0, 64, 52
1, 381476, Control_c, 0, 64, 66
1, 381491, Control_c, 0, 64, 70
1, 381506, Control_c, 0, 64, 73
1, 381521, Control_c, 0, 64, 76
1, 381536, Control_c, 0, 64, 78
1, 381558, Control_c, 0, 64, 80
1, 381572, Control_c, 0, 64, 82
1, 381587, Control_c, 0, 64, 83
1, 381602, Control_c, 0, 64, 85
1, 381617, Control_c, 0, 64, 86
1, 381632, Control_c, 0, 64, 88
1, 381646, Control_c, 0, 64, 89
1, 381656, Note_off_c, 0, 53, 37
1, 381661, Note_off_c, 0, 55, 34
1, 381661, Control_c, 0, 64, 91
1, 381667, Note_off_c, 0, 59, 38
1, 381676, Control_c, 0, 64, 92
1, 381691, Control_c, 0, 64, 92
1, 381696, Note_off_c, 0, 50, 32
1, 381706, Control_c, 0, 64, 93
1, 381720, Control_c, 0, 64, 93
1, 381735, Control_c, 0, 64, 94
1, 381750, Control_c, 0, 64, 94
1, 381765, Control_c, 0, 64, 95
1, 381795, Control_c, 0, 64, 95
1, 381870, Control_c, 0, 64, 96
1, 382005, Note_on_c, 0, 60, 47
1, 382027, Note_on_c, 0, 48, 35
1, 382028, Note_on_c, 0, 51, 35
1, 382028, Note_on_c, 0, 55, 34
1, 382033, Control_c, 0, 64, 95
1, 382048, Control_c, 0, 64, 95
1, 382063, Control_c, 0, 64, 93
1, 382078, Control_c, 0, 64, 89
1, 382093, Control_c, 0, 64, 82
1, 382108, Control_c, 0, 64, 72
1, 382123, Control_c, 0, 64, 57
1, 382137, Control_c, 0, 64, 0
1, 382211, Control_c, 0, 64, 58
1, 382226, Control_c, 0, 64, 66
1, 382241, Control_c, 0, 64, 70
1, 382256, Control_c, 0, 64, 73
1, 382270, Control_c, 0, 64, 76
1, 382293, Control_c, 0, 64, 78
1, 382308, Control_c, 0, 64, 80
1, 382323, Control_c, 0, 64, 82
1, 382325, Note_off_c, 0, 60, 35
1, 382338, Control_c, 0, 64, 84
1, 382352, Control_c, 0, 64, 86
1, 382357, Note_off_c, 0, 48, 39
1, 382365, Note_off_c, 0, 51, 33
1, 382367, Control_c, 0, 64, 87
1, 382382, Control_c, 0, 64, 89
1, 382396, Control_c, 0, 64, 90
1, 382411, Control_c, 0, 64, 91
1, 382426, Control_c, 0, 64, 92
1, 382441, Control_c, 0, 64, 93
1, 382456, Control_c, 0, 64, 93
1, 382461, Note_off_c, 0, 55, 34
1, 382470, Control_c, 0, 64, 94
1, 382485, Control_c, 0, 64, 95
1, 382500, Control_c, 0, 64, 95
1, 382514, Control_c, 0, 64, 96
1, 382574, Control_c, 0, 64, 96
1, 382648, Control_c, 0, 64, 97
1, 382923, Note_on_c, 0, 61, 48
1, 382955, Note_on_c, 0, 56, 30
1, 382960, Control_c, 0, 64, 96
1, 382970, Note_on_c, 0, 53, 17
1, 382975, Control_c, 0, 64, 95
1, 382990, Control_c, 0, 64, 92
1, 383004, Control_c, 0, 64, 85
1, 383012, Note_on_c, 0, 47, 34
1, 383019, Control_c, 0, 64, 76
1, 383041, Control_c, 0, 64, 64
1, 383056, Control_c, 0, 64, 0
1, 383145, Control_c, 0, 64, 63
1, 383160, Control_c, 0, 64, 69
1, 383175, Control_c, 0, 64, 73
1, 383190, Control_c, 0, 64, 76
1, 383205, Control_c, 0, 64, 78
1, 383219, Control_c, 0, 64, 81
1, 383234, Control_c, 0, 64, 84
1, 383249, Control_c, 0, 64, 86
1, 383262, Note_off_c, 0, 61, 52
1, 383264, Control_c, 0, 64, 87
1, 383279, Control_c, 0, 64, 89
1, 383293, Control_c, 0, 64, 90
1, 383308, Control_c, 0, 64, 91
1, 383323, Control_c, 0, 64, 92
1, 383337, Control_c, 0, 64, 93
1, 383343, Note_off_c, 0, 56, 34
1, 383352, Control_c, 0, 64, 95
1, 383354, Note_off_c, 0, 47, 41
1, 383367, Control_c, 0, 64, 96
1, 383373, Note_off_c, 0, 53, 39
1, 383382, Control_c, 0, 64, 97
1, 383397, Control_c, 0, 64, 97
1, 383426, Control_c, 0, 64, 98
1, 383441, Control_c, 0, 64, 98
1, 383502, Control_c, 0, 64, 99
1, 383649, Control_c, 0, 64, 98
1, 383664, Control_c, 0, 64, 98
1, 383672, Note_on_c, 0, 62, 47
1, 383678, Note_on_c, 0, 47, 35
1, 383679, Control_c, 0, 64, 95
1, 383684, Note_on_c, 0, 53, 33
1, 383687, Note_on_c, 0, 56, 30
1, 383694, Control_c, 0, 64, 90
1, 383709, Control_c, 0, 64, 81
1, 383724, Control_c, 0, 64, 71
1, 383739, Control_c, 0, 64, 54
1, 383753, Control_c, 0, 64, 0
1, 383820, Control_c, 0, 64, 60
1, 383834, Control_c, 0, 64, 67
1, 383849, Control_c, 0, 64, 71
1, 383864, Control_c, 0, 64, 77
1, 383879, Control_c, 0, 64, 80
1, 383894, Control_c, 0, 64, 83
1, 383908, Control_c, 0, 64, 85
1, 383923, Control_c, 0, 64, 87
1, 383935, Note_off_c, 0, 56, 30
1, 383938, Control_c, 0, 64, 89
1, 383953, Control_c, 0, 64, 92
1, 383968, Note_off_c, 0, 47, 39
1, 383968, Control_c, 0, 64, 93
1, 383974, Note_off_c, 0, 62, 33
1, 383983, Control_c, 0, 64, 95
1, 383990, Note_off_c, 0, 53, 39
1, 383998, Control_c, 0, 64, 96
1, 384013, Control_c, 0, 64, 97
1, 384028, Control_c, 0, 64, 99
1, 384042, Control_c, 0, 64, 100
1, 384057, Control_c, 0, 64, 101
1, 384072, Control_c, 0, 64, 101
1, 384087, Control_c, 0, 64, 102
1, 384102, Control_c, 0, 64, 102
1, 384116, Control_c, 0, 64, 103
1, 384190, Control_c, 0, 64, 103
1, 384354, Note_on_c, 0, 62, 55
1, 384368, Note_on_c, 0, 56, 43
1, 384368, Control_c, 0, 64, 103
1, 384377, Note_on_c, 0, 47, 40
1, 384380, Note_on_c, 0, 53, 36
1, 384382, Control_c, 0, 64, 102
1, 384397, Control_c, 0, 64, 100
1, 384412, Control_c, 0, 64, 94
1, 384427, Control_c, 0, 64, 86
1, 384442, Control_c, 0, 64, 73
1, 384457, Control_c, 0, 64, 56
1, 384472, Control_c, 0, 64, 0
1, 384517, Control_c, 0, 64, 53
1, 384538, Control_c, 0, 64, 67
1, 384553, Control_c, 0, 64, 71
1, 384568, Control_c, 0, 64, 76
1, 384582, Control_c, 0, 64, 80
1, 384587, Note_off_c, 0, 56, 33
1, 384597, Control_c, 0, 64, 83
1, 384612, Control_c, 0, 64, 86
1, 384627, Control_c, 0, 64, 89
1, 384642, Control_c, 0, 64, 92
1, 384654, Note_off_c, 0, 47, 44
1, 384657, Control_c, 0, 64, 94
1, 384672, Control_c, 0, 64, 96
1, 384680, Note_off_c, 0, 53, 37
1, 384686, Control_c, 0, 64, 97
1, 384695, Note_off_c, 0, 62, 49
1, 384701, Control_c, 0, 64, 99
1, 384716, Control_c, 0, 64, 100
1, 384731, Control_c, 0, 64, 102
1, 384746, Control_c, 0, 64, 103
1, 384761, Control_c, 0, 64, 104
1, 384776, Control_c, 0, 64, 105
1, 384805, Control_c, 0, 64, 105
1, 384820, Control_c, 0, 64, 106
1, 384835, Control_c, 0, 64, 107
1, 384864, Control_c, 0, 64, 107
1, 384894, Control_c, 0, 64, 108
1, 384908, Control_c, 0, 64, 108
1, 384938, Control_c, 0, 64, 109
1, 385105, Note_on_c, 0, 63, 55
1, 385127, Note_on_c, 0, 46, 44
1, 385128, Note_on_c, 0, 55, 45
1, 385137, Note_on_c, 0, 48, 40
1, 385146, Control_c, 0, 64, 108
1, 385161, Control_c, 0, 64, 106
1, 385176, Control_c, 0, 64, 101
1, 385191, Control_c, 0, 64, 94
1, 385205, Control_c, 0, 64, 81
1, 385220, Control_c, 0, 64, 67
1, 385235, Control_c, 0, 64, 0
1, 385302, Control_c, 0, 64, 54
1, 385317, Control_c, 0, 64, 66
1, 385332, Control_c, 0, 64, 70
1, 385346, Control_c, 0, 64, 74
1, 385361, Control_c, 0, 64, 78
1, 385376, Control_c, 0, 64, 82
1, 385391, Control_c, 0, 64, 85
1, 385405, Control_c, 0, 64, 88
1, 385420, Control_c, 0, 64, 91
1, 385435, Control_c, 0, 64, 93
1, 385436, Note_off_c, 0, 63, 52
1, 385450, Control_c, 0, 64, 95
1, 385465, Control_c, 0, 64, 97
1, 385479, Control_c, 0, 64, 99
1, 385482, Note_off_c, 0, 55, 40
1, 385494, Control_c, 0, 64, 101
1, 385497, Note_off_c, 0, 48, 39
1, 385497, Note_off_c, 0, 46, 35
1, 385509, Control_c, 0, 64, 103
1, 385524, Control_c, 0, 64, 104
1, 385539, Control_c, 0, 64, 105
1, 385554, Control_c, 0, 64, 106
1, 385569, Control_c, 0, 64, 107
1, 385584, Control_c, 0, 64, 108
1, 385599, Control_c, 0, 64, 109
1, 385613, Control_c, 0, 64, 109
1, 385628, Control_c, 0, 64, 110
1, 385658, Control_c, 0, 64, 110
1, 385810, Note_on_c, 0, 64, 59
1, 385817, Note_on_c, 0, 46, 42
1, 385830, Note_on_c, 0, 55, 45
1, 385836, Control_c, 0, 64, 110
1, 385846, Note_on_c, 0, 48, 42
1, 385851, Control_c, 0, 64, 107
1, 385867, Control_c, 0, 64, 100
1, 385882, Control_c, 0, 64, 89
1, 385897, Control_c, 0, 64, 76
1, 385911, Control_c, 0, 64, 61
1, 385926, Control_c, 0, 64, 0
1, 385970, Control_c, 0, 64, 60
1, 385985, Control_c, 0, 64, 69
1, 386000, Control_c, 0, 64, 74
1, 386015, Control_c, 0, 64, 79
1, 386037, Control_c, 0, 64, 83
1, 386052, Control_c, 0, 64, 87
1, 386067, Control_c, 0, 64, 91
1, 386082, Control_c, 0, 64, 95
1, 386096, Control_c, 0, 64, 98
1, 386111, Control_c, 0, 64, 100
1, 386112, Note_off_c, 0, 55, 30
1, 386126, Control_c, 0, 64, 102
1, 386141, Control_c, 0, 64, 104
1, 386148, Note_off_c, 0, 64, 36
1, 386155, Control_c, 0, 64, 106
1, 386170, Control_c, 0, 64, 107
1, 386173, Note_off_c, 0, 46, 39
1, 386178, Note_off_c, 0, 48, 40
1, 386185, Control_c, 0, 64, 108
1, 386200, Control_c, 0, 64, 110
1, 386215, Control_c, 0, 64, 111
1, 386230, Control_c, 0, 64, 111
1, 386244, Control_c, 0, 64, 112
1, 386259, Control_c, 0, 64, 112
1, 386289, Control_c, 0, 64, 113
1, 386460, Note_on_c, 0, 64, 64
1, 386471, Note_on_c, 0, 46, 45
1, 386484, Note_on_c, 0, 55, 47
1, 386492, Note_on_c, 0, 48, 43
1, 386496, Control_c, 0, 64, 112
1, 386511, Control_c, 0, 64, 108
1, 386526, Control_c, 0, 64, 101
1, 386541, Control_c, 0, 64, 89
1, 386555, Control_c, 0, 64, 75
1, 386570, Control_c, 0, 64, 55
1, 386585, Control_c, 0, 64, 0
1, 386629, Control_c, 0, 64, 30
1, 386644, Control_c, 0, 64, 64
1, 386660, Control_c, 0, 64, 70
1, 386675, Control_c, 0, 64, 75
1, 386690, Control_c, 0, 64, 80
1, 386705, Control_c, 0, 64, 84
1, 386719, Control_c, 0, 64, 87
1, 386734, Control_c, 0, 64, 91
1, 386749, Control_c, 0, 64, 94
1, 386749, Note_off_c, 0, 46, 33
1, 386750, Note_off_c, 0, 55, 34
1, 386764, Control_c, 0, 64, 96
1, 386781, Note_off_c, 0, 64, 39
1, 386785, Control_c, 0, 64, 98
1, 386800, Control_c, 0, 64, 100
1, 386815, Control_c, 0, 64, 101
1, 386830, Control_c, 0, 64, 103
1, 386845, Control_c, 0, 64, 105
1, 386856, Note_off_c, 0, 48, 34
1, 386860, Control_c, 0, 64, 107
1, 386874, Control_c, 0, 64, 108
1, 386889, Control_c, 0, 64, 109
1, 386904, Control_c, 0, 64, 109
1, 386919, Control_c, 0, 64, 110
1, 386934, Control_c, 0, 64, 111
1, 386949, Control_c, 0, 64, 112
1, 386964, Control_c, 0, 64, 112
1, 387008, Control_c, 0, 64, 113
1, 387254, Note_on_c, 0, 64, 56
1, 387259, Control_c, 0, 64, 112
1, 387274, Control_c, 0, 64, 111
1, 387279, Note_on_c, 0, 60, 50
1, 387284, Note_on_c, 0, 48, 37
1, 387289, Control_c, 0, 64, 108
1, 387298, Note_on_c, 0, 45, 38
1, 387304, Control_c, 0, 64, 101
1, 387319, Control_c, 0, 64, 92
1, 387334, Control_c, 0, 64, 81
1, 387348, Control_c, 0, 64, 68
1, 387363, Control_c, 0, 64, 0
1, 387483, Control_c, 0, 64, 62
1, 387497, Control_c, 0, 64, 71
1, 387512, Control_c, 0, 64, 76
1, 387535, Control_c, 0, 64, 81
1, 387550, Control_c, 0, 64, 84
1, 387564, Control_c, 0, 64, 88
1, 387579, Control_c, 0, 64, 91
1, 387588, Note_off_c, 0, 60, 52
1, 387594, Control_c, 0, 64, 94
1, 387603, Note_off_c, 0, 64, 50
1, 387608, Control_c, 0, 64, 97
1, 387623, Control_c, 0, 64, 99
1, 387638, Control_c, 0, 64, 102
1, 387653, Control_c, 0, 64, 104
1, 387668, Control_c, 0, 64, 106
1, 387682, Control_c, 0, 64, 108
1, 387687, Note_off_c, 0, 45, 42
1, 387697, Control_c, 0, 64, 109
1, 387699, Note_off_c, 0, 48, 40
1, 387712, Control_c, 0, 64, 110
1, 387727, Control_c, 0, 64, 111
1, 387742, Control_c, 0, 64, 111
1, 387757, Control_c, 0, 64, 112
1, 387772, Control_c, 0, 64, 112
1, 387816, Control_c, 0, 64, 113
1, 387962, Note_on_c, 0, 65, 57
1, 387971, Note_on_c, 0, 60, 47
1, 387977, Control_c, 0, 64, 112
1, 387984, Note_on_c, 0, 48, 37
1, 387992, Control_c, 0, 64, 112
1, 388005, Note_on_c, 0, 45, 38
1, 388007, Control_c, 0, 64, 108
1, 388022, Control_c, 0, 64, 101
1, 388037, Control_c, 0, 64, 90
1, 388052, Control_c, 0, 64, 76
1, 388067, Control_c, 0, 64, 46
1, 388081, Control_c, 0, 64, 0
1, 388125, Control_c, 0, 64, 39
1, 388140, Control_c, 0, 64, 65
1, 388155, Control_c, 0, 64, 70
1, 388170, Control_c, 0, 64, 75
1, 388185, Control_c, 0, 64, 79
1, 388199, Control_c, 0, 64, 83
1, 388214, Control_c, 0, 64, 86
1, 388229, Control_c, 0, 64, 89
1, 388245, Control_c, 0, 64, 92
1, 388260, Control_c, 0, 64, 95
1, 388269, Note_off_c, 0, 60, 31
1, 388282, Control_c, 0, 64, 97
1, 388297, Control_c, 0, 64, 99
1, 388310, Note_off_c, 0, 65, 36
1, 388311, Control_c, 0, 64, 100
1, 388326, Control_c, 0, 64, 102
1, 388339, Note_off_c, 0, 48, 41
1, 388341, Control_c, 0, 64, 104
1, 388348, Note_off_c, 0, 45, 41
1, 388356, Control_c, 0, 64, 105
1, 388371, Control_c, 0, 64, 107
1, 388386, Control_c, 0, 64, 107
1, 388401, Control_c, 0, 64, 108
1, 388416, Control_c, 0, 64, 109
1, 388430, Control_c, 0, 64, 109
1, 388460, Control_c, 0, 64, 110
1, 388630, Note_on_c, 0, 65, 58
1, 388643, Note_on_c, 0, 60, 45
1, 388658, Note_on_c, 0, 48, 37
1, 388675, Note_on_c, 0, 45, 36
1, 388681, Control_c, 0, 64, 109
1, 388697, Control_c, 0, 64, 105
1, 388712, Control_c, 0, 64, 96
1, 388727, Control_c, 0, 64, 84
1, 388742, Control_c, 0, 64, 67
1, 388756, Control_c, 0, 64, 0
1, 388816, Control_c, 0, 64, 62
1, 388830, Control_c, 0, 64, 68
1, 388845, Control_c, 0, 64, 73
1, 388860, Control_c, 0, 64, 78
1, 388875, Control_c, 0, 64, 82
1, 388890, Control_c, 0, 64, 85
1, 388904, Control_c, 0, 64, 88
1, 388919, Control_c, 0, 64, 90
1, 388928, Note_off_c, 0, 65, 56
1, 388934, Control_c, 0, 64, 93
1, 388949, Control_c, 0, 64, 95
1, 388964, Control_c, 0, 64, 97
1, 388979, Control_c, 0, 64, 99
1, 388981, Note_off_c, 0, 45, 42
1, 388994, Control_c, 0, 64, 101
1, 388995, Note_off_c, 0, 60, 24
1, 389009, Control_c, 0, 64, 102
1, 389027, Note_off_c, 0, 48, 37
1, 389030, Control_c, 0, 64, 104
1, 389045, Control_c, 0, 64, 105
1, 389061, Control_c, 0, 64, 106
1, 389076, Control_c, 0, 64, 107
1, 389091, Control_c, 0, 64, 107
1, 389106, Control_c, 0, 64, 108
1, 389121, Control_c, 0, 64, 108
1, 389135, Control_c, 0, 64, 109
1, 389165, Control_c, 0, 64, 109
1, 389239, Control_c, 0, 64, 110
1, 389425, Note_on_c, 0, 66, 54
1, 389443, Note_on_c, 0, 60, 42
1, 389447, Control_c, 0, 64, 109
1, 389450, Note_on_c, 0, 44, 36
1, 389450, Note_on_c, 0, 51, 31
1, 389461, Control_c, 0, 64, 108
1, 389476, Control_c, 0, 64, 106
1, 389491, Control_c, 0, 64, 102
1, 389505, Control_c, 0, 64, 95
1, 389520, Control_c, 0, 64, 86
1, 389535, Control_c, 0, 64, 74
1, 389550, Control_c, 0, 64, 56
1, 389565, Control_c, 0, 64, 0
1, 389624, Control_c, 0, 64, 56
1, 389639, Control_c, 0, 64, 67
1, 389653, Control_c, 0, 64, 71
1, 389668, Control_c, 0, 64, 76
1, 389683, Control_c, 0, 64, 81
1, 389697, Control_c, 0, 64, 85
1, 389712, Control_c, 0, 64, 89
1, 389727, Control_c, 0, 64, 92
1, 389742, Control_c, 0, 64, 94
1, 389757, Control_c, 0, 64, 97
1, 389779, Control_c, 0, 64, 99
1, 389791, Note_off_c, 0, 44, 37
1, 389794, Control_c, 0, 64, 101
1, 389809, Control_c, 0, 64, 102
1, 389824, Control_c, 0, 64, 104
1, 389832, Note_off_c, 0, 51, 38
1, 389836, Note_off_c, 0, 60, 31
1, 389839, Control_c, 0, 64, 105
1, 389849, Note_off_c, 0, 66, 36
1, 389855, Control_c, 0, 64, 107
1, 389870, Control_c, 0, 64, 107
1, 389884, Control_c, 0, 64, 108
1, 389899, Control_c, 0, 64, 109
1, 389928, Control_c, 0, 64, 110
1, 389958, Control_c, 0, 64, 110
1, 390150, Note_on_c, 0, 66, 69
1, 390165, Note_on_c, 0, 62, 60
1, 390165, Control_c, 0, 64, 109
1, 390170, Note_on_c, 0, 50, 44
1, 390177, Note_on_c, 0, 44, 38
1, 390180, Control_c, 0, 64, 105
1, 390194, Control_c, 0, 64, 97
1, 390209, Control_c, 0, 64, 86
1, 390224, Control_c, 0, 64, 73
1, 390239, Control_c, 0, 64, 41
1, 390254, Control_c, 0, 64, 0
1, 390298, Control_c, 0, 64, 56
1, 390313, Control_c, 0, 64, 67
1, 390327, Control_c, 0, 64, 72
1, 390342, Control_c, 0, 64, 77
1, 390347, Note_off_c, 0, 62, 51
1, 390357, Control_c, 0, 64, 81
1, 390372, Control_c, 0, 64, 85
1, 390387, Control_c, 0, 64, 87
1, 390401, Control_c, 0, 64, 90
1, 390416, Control_c, 0, 64, 93
1, 390431, Control_c, 0, 64, 96
1, 390446, Control_c, 0, 64, 98
1, 390455, Note_off_c, 0, 66, 58
1, 390461, Control_c, 0, 64, 100
1, 390475, Control_c, 0, 64, 101
1, 390478, Note_off_c, 0, 44, 33
1, 390479, Note_off_c, 0, 50, 39
1, 390490, Control_c, 0, 64, 102
1, 390505, Control_c, 0, 64, 103
1, 390527, Control_c, 0, 64, 104
1, 390542, Control_c, 0, 64, 105
1, 390572, Control_c, 0, 64, 105
1, 390587, Control_c, 0, 64, 106
1, 390601, Control_c, 0, 64, 106
1, 390631, Control_c, 0, 64, 107
1, 390692, Control_c, 0, 64, 107
1, 390839, Control_c, 0, 64, 107
1, 390854, Note_on_c, 0, 66, 65
1, 390854, Control_c, 0, 64, 106
1, 390869, Control_c, 0, 64, 105
1, 390872, Note_on_c, 0, 63, 55
1, 390884, Control_c, 0, 64, 102
1, 390885, Note_on_c, 0, 44, 39
1, 390885, Note_on_c, 0, 48, 42
1, 390899, Control_c, 0, 64, 98
1, 390914, Control_c, 0, 64, 91
1, 390928, Control_c, 0, 64, 82
1, 390943, Control_c, 0, 64, 67
1, 390958, Control_c, 0, 64, 0
1, 391077, Control_c, 0, 64, 63
1, 391091, Control_c, 0, 64, 69
1, 391106, Control_c, 0, 64, 73
1, 391121, Control_c, 0, 64, 76
1, 391136, Control_c, 0, 64, 80
1, 391143, Note_off_c, 0, 48, 41
1, 391150, Control_c, 0, 64, 83
1, 391153, Note_off_c, 0, 63, 31
1, 391165, Control_c, 0, 64, 86
1, 391180, Control_c, 0, 64, 88
1, 391195, Control_c, 0, 64, 90
1, 391210, Control_c, 0, 64, 93
1, 391224, Control_c, 0, 64, 95
1, 391239, Control_c, 0, 64, 96
1, 391254, Control_c, 0, 64, 98
1, 391268, Note_off_c, 0, 44, 39
1, 391273, Note_off_c, 0, 66, 31
1, 391276, Control_c, 0, 64, 99
1, 391291, Control_c, 0, 64, 101
1, 391306, Control_c, 0, 64, 102
1, 391321, Control_c, 0, 64, 102
1, 391336, Control_c, 0, 64, 103
1, 391350, Control_c, 0, 64, 103
1, 391410, Control_c, 0, 64, 104
1, 391717, Note_on_c, 0, 67, 46
1, 391722, Control_c, 0, 64, 103
1, 391734, Note_on_c, 0, 50, 27
1, 391736, Note_on_c, 0, 59, 40
1, 391737, Control_c, 0, 64, 103
1, 391745, Note_on_c, 0, 43, 34
1, 391752, Control_c, 0, 64, 100
1, 391767, Control_c, 0, 64, 96
1, 391781, Control_c, 0, 64, 90
1, 391796, Control_c, 0, 64, 80
1, 391811, Control_c, 0, 64, 67
1, 391826, Control_c, 0, 64, 0
1, 391945, Control_c, 0, 64, 63
1, 391960, Control_c, 0, 64, 68
1, 391974, Control_c, 0, 64, 72
1, 391989, Control_c, 0, 64, 76
1, 392004, Control_c, 0, 64, 79
1, 392026, Control_c, 0, 64, 83
1, 392041, Control_c, 0, 64, 85
1, 392055, Control_c, 0, 64, 87
1, 392070, Control_c, 0, 64, 89
1, 392085, Control_c, 0, 64, 92
1, 392100, Control_c, 0, 64, 94
1, 392115, Control_c, 0, 64, 96
1, 392130, Control_c, 0, 64, 97
1, 392136, Note_off_c, 0, 67, 45
1, 392145, Control_c, 0, 64, 98
1, 392160, Control_c, 0, 64, 99
1, 392169, Note_off_c, 0, 43, 37
1, 392174, Control_c, 0, 64, 100
1, 392189, Control_c, 0, 64, 101
1, 392189, Note_off_c, 0, 59, 35
1, 392204, Control_c, 0, 64, 101
1, 392214, Note_off_c, 0, 50, 35
1, 392249, Control_c, 0, 64, 102
1, 392353, Control_c, 0, 64, 102
1, 392695, Note_on_c, 0, 68, 45
1, 392708, Control_c, 0, 64, 102
1, 392718, Note_on_c, 0, 59, 38
1, 392738, Control_c, 0, 64, 100
1, 392741, Note_on_c, 0, 41, 32
1, 392753, Control_c, 0, 64, 95
1, 392761, Note_on_c, 0, 50, 20
1, 392775, Control_c, 0, 64, 84
1, 392790, Control_c, 0, 64, 72
1, 392804, Control_c, 0, 64, 46
1, 392819, Control_c, 0, 64, 0
1, 392864, Control_c, 0, 64, 56
1, 392878, Control_c, 0, 64, 66
1, 392893, Control_c, 0, 64, 70
1, 392908, Control_c, 0, 64, 74
1, 392923, Control_c, 0, 64, 78
1, 392938, Control_c, 0, 64, 82
1, 392953, Control_c, 0, 64, 85
1, 392967, Control_c, 0, 64, 88
1, 392982, Control_c, 0, 64, 90
1, 392997, Control_c, 0, 64, 92
1, 393012, Control_c, 0, 64, 94
1, 393027, Control_c, 0, 64, 96
1, 393030, Note_off_c, 0, 68, 34
1, 393032, Note_off_c, 0, 59, 30
1, 393042, Control_c, 0, 64, 98
1, 393057, Control_c, 0, 64, 100
1, 393064, Note_off_c, 0, 41, 41
1, 393072, Control_c, 0, 64, 101
1, 393087, Control_c, 0, 64, 103
1, 393102, Control_c, 0, 64, 103
1, 393114, Note_off_c, 0, 50, 30
1, 393116, Control_c, 0, 64, 104
1, 393131, Control_c, 0, 64, 105
1, 393146, Control_c, 0, 64, 105
1, 393161, Control_c, 0, 64, 106
1, 393176, Control_c, 0, 64, 106
1, 393220, Control_c, 0, 64, 107
1, 393265, Control_c, 0, 64, 107
1, 393385, Note_on_c, 0, 68, 40
1, 393405, Note_on_c, 0, 59, 34
1, 393422, Note_on_c, 0, 41, 30
1, 393429, Note_on_c, 0, 50, 17
1, 393442, Control_c, 0, 64, 108
1, 393599, Note_off_c, 0, 68, 36
1, 393601, Note_off_c, 0, 59, 34
1, 393647, Note_off_c, 0, 41, 41
1, 393655, Note_off_c, 0, 50, 35
1, 394070, Note_on_c, 0, 68, 43
1, 394087, Note_on_c, 0, 41, 28
1, 394092, Note_on_c, 0, 59, 28
1, 394106, Note_on_c, 0, 50, 17
1, 394292, Note_off_c, 0, 68, 33
1, 394327, Note_off_c, 0, 59, 30
1, 394336, Note_off_c, 0, 50, 33
1, 394351, Note_off_c, 0, 41, 39
1, 394765, Note_on_c, 0, 65, 39
1, 394777, Note_on_c, 0, 59, 33
1, 394777, Control_c, 0, 64, 107
1, 394791, Control_c, 0, 64, 106
1, 394800, Note_on_c, 0, 44, 32
1, 394806, Control_c, 0, 64, 104
1, 394816, Note_on_c, 0, 50, 22
1, 394821, Control_c, 0, 64, 100
1, 394836, Control_c, 0, 64, 93
1, 394851, Control_c, 0, 64, 83
1, 394865, Control_c, 0, 64, 68
1, 394880, Control_c, 0, 64, 0
1, 394954, Control_c, 0, 64, 64
1, 394969, Control_c, 0, 64, 69
1, 394983, Control_c, 0, 64, 74
1, 394998, Control_c, 0, 64, 78
1, 395021, Control_c, 0, 64, 81
1, 395036, Control_c, 0, 64, 84
1, 395051, Control_c, 0, 64, 87
1, 395066, Control_c, 0, 64, 90
1, 395080, Control_c, 0, 64, 92
1, 395095, Control_c, 0, 64, 94
1, 395107, Note_off_c, 0, 65, 38
1, 395110, Control_c, 0, 64, 96
1, 395112, Note_off_c, 0, 59, 32
1, 395120, Note_off_c, 0, 44, 39
1, 395124, Control_c, 0, 64, 98
1, 395139, Control_c, 0, 64, 99
1, 395146, Note_off_c, 0, 50, 35
1, 395154, Control_c, 0, 64, 101
1, 395169, Control_c, 0, 64, 102
1, 395184, Control_c, 0, 64, 103
1, 395198, Control_c, 0, 64, 103
1, 395213, Control_c, 0, 64, 104
1, 395228, Control_c, 0, 64, 104
1, 395257, Control_c, 0, 64, 105
1, 395516, Note_on_c, 0, 67, 37
1, 395519, Note_on_c, 0, 59, 32
1, 395526, Control_c, 0, 64, 104
1, 395534, Note_on_c, 0, 43, 32
1, 395540, Control_c, 0, 64, 102
1, 395555, Control_c, 0, 64, 97
1, 395570, Control_c, 0, 64, 88
1, 395584, Note_on_c, 0, 50, 25
1, 395585, Control_c, 0, 64, 78
1, 395600, Control_c, 0, 64, 66
1, 395614, Control_c, 0, 64, 0
1, 395689, Control_c, 0, 64, 52
1, 395704, Control_c, 0, 64, 65
1, 395719, Control_c, 0, 64, 70
1, 395733, Control_c, 0, 64, 75
1, 395748, Control_c, 0, 64, 78
1, 395770, Control_c, 0, 64, 82
1, 395785, Control_c, 0, 64, 84
1, 395800, Control_c, 0, 64, 87
1, 395813, Note_off_c, 0, 67, 35
1, 395814, Control_c, 0, 64, 89
1, 395829, Control_c, 0, 64, 92
1, 395841, Note_off_c, 0, 43, 39
1, 395844, Control_c, 0, 64, 93
1, 395850, Note_off_c, 0, 50, 36
1, 395850, Note_off_c, 0, 59, 28
1, 395859, Control_c, 0, 64, 95
1, 395874, Control_c, 0, 64, 96
1, 395889, Control_c, 0, 64, 98
1, 395904, Control_c, 0, 64, 99
1, 395919, Control_c, 0, 64, 100
1, 395933, Control_c, 0, 64, 101
1, 395948, Control_c, 0, 64, 101
1, 395963, Control_c, 0, 64, 102
1, 395978, Control_c, 0, 64, 102
1, 395993, Control_c, 0, 64, 103
1, 396022, Control_c, 0, 64, 103
1, 396279, Note_on_c, 0, 60, 35
1, 396282, Note_on_c, 0, 67, 36
1, 396283, Note_on_c, 0, 51, 27
1, 396295, Note_on_c, 0, 48, 38
1, 396304, Control_c, 0, 64, 102
1, 396319, Control_c, 0, 64, 100
1, 396334, Control_c, 0, 64, 96
1, 396349, Control_c, 0, 64, 89
1, 396363, Control_c, 0, 64, 80
1, 396378, Control_c, 0, 64, 69
1, 396393, Control_c, 0, 64, 0
1, 396467, Control_c, 0, 64, 59
1, 396482, Control_c, 0, 64, 66
1, 396497, Control_c, 0, 64, 71
1, 396519, Control_c, 0, 64, 74
1, 396530, Note_off_c, 0, 60, 27
1, 396534, Control_c, 0, 64, 78
1, 396549, Control_c, 0, 64, 82
1, 396564, Control_c, 0, 64, 84
1, 396578, Control_c, 0, 64, 86
1, 396593, Control_c, 0, 64, 88
1, 396601, Note_off_c, 0, 48, 36
1, 396608, Control_c, 0, 64, 90
1, 396623, Control_c, 0, 64, 92
1, 396624, Note_off_c, 0, 51, 36
1, 396637, Control_c, 0, 64, 94
1, 396652, Control_c, 0, 64, 95
1, 396667, Control_c, 0, 64, 95
1, 396675, Note_off_c, 0, 67, 35
1, 396682, Control_c, 0, 64, 96
1, 396697, Control_c, 0, 64, 97
1, 396711, Control_c, 0, 64, 99
1, 396726, Control_c, 0, 64, 99
1, 396756, Control_c, 0, 64, 100
1, 396771, Control_c, 0, 64, 100
1, 396786, Control_c, 0, 64, 101
1, 396831, Control_c, 0, 64, 101
1, 396919, Control_c, 0, 64, 102
1, 397081, Note_on_c, 0, 67, 39
1, 397092, Note_on_c, 0, 59, 32
1, 397107, Note_on_c, 0, 50, 24
1, 397127, Control_c, 0, 64, 101
1, 397128, Note_on_c, 0, 43, 29
1, 397142, Control_c, 0, 64, 100
1, 397157, Control_c, 0, 64, 96
1, 397172, Control_c, 0, 64, 89
1, 397186, Control_c, 0, 64, 79
1, 397201, Control_c, 0, 64, 67
1, 397216, Control_c, 0, 64, 0
1, 397313, Control_c, 0, 64, 59
1, 397327, Control_c, 0, 64, 67
1, 397342, Control_c, 0, 64, 71
1, 397357, Control_c, 0, 64, 75
1, 397372, Control_c, 0, 64, 79
1, 397387, Control_c, 0, 64, 82
1, 397401, Control_c, 0, 64, 84
1, 397414, Note_off_c, 0, 59, 31
1, 397416, Control_c, 0, 64, 86
1, 397431, Control_c, 0, 64, 88
1, 397443, Note_off_c, 0, 67, 26
1, 397446, Control_c, 0, 64, 89
1, 397461, Control_c, 0, 64, 92
1, 397475, Control_c, 0, 64, 93
1, 397490, Control_c, 0, 64, 95
1, 397505, Control_c, 0, 64, 96
1, 397519, Control_c, 0, 64, 97
1, 397520, Note_off_c, 0, 43, 34
1, 397534, Control_c, 0, 64, 99
1, 397548, Note_off_c, 0, 50, 32
1, 397549, Control_c, 0, 64, 99
1, 397564, Control_c, 0, 64, 100
1, 397579, Control_c, 0, 64, 101
1, 397594, Control_c, 0, 64, 101
1, 397624, Control_c, 0, 64, 102
1, 397638, Control_c, 0, 64, 102
1, 397683, Control_c, 0, 64, 103
1, 398124, Note_on_c, 0, 60, 30
1, 398127, Note_on_c, 0, 67, 33
1, 398142, Note_on_c, 0, 48, 21
1, 398150, Control_c, 0, 64, 102
1, 398151, Note_on_c, 0, 36, 23
1, 398165, Control_c, 0, 64, 101
1, 398180, Control_c, 0, 64, 98
1, 398195, Control_c, 0, 64, 94
1, 398210, Control_c, 0, 64, 89
1, 398224, Control_c, 0, 64, 81
1, 398239, Control_c, 0, 64, 73
1, 398254, Control_c, 0, 64, 64
1, 398268, Control_c, 0, 64, 0
1, 398461, Control_c, 0, 64, 57
1, 398476, Control_c, 0, 64, 66
1, 398491, Control_c, 0, 64, 69
1, 398506, Control_c, 0, 64, 73
1, 398521, Control_c, 0, 64, 76
1, 398535, Control_c, 0, 64, 80
1, 398550, Control_c, 0, 64, 84
1, 398565, Control_c, 0, 64, 86
1, 398580, Control_c, 0, 64, 89
1, 398595, Control_c, 0, 64, 92
1, 398609, Control_c, 0, 64, 94
1, 398624, Control_c, 0, 64, 96
1, 398640, Control_c, 0, 64, 98
1, 398655, Control_c, 0, 64, 99
1, 398670, Control_c, 0, 64, 101
1, 398684, Control_c, 0, 64, 103
1, 398694, Note_off_c, 0, 36, 38
1, 398699, Control_c, 0, 64, 105
1, 398714, Control_c, 0, 64, 106
1, 398729, Control_c, 0, 64, 107
1, 398744, Control_c, 0, 64, 108
1, 398765, Control_c, 0, 64, 109
1, 398780, Control_c, 0, 64, 110
1, 398795, Control_c, 0, 64, 111
1, 398810, Control_c, 0, 64, 112
1, 398825, Control_c, 0, 64, 112
1, 398847, Note_off_c, 0, 60, 27
1, 398855, Control_c, 0, 64, 113
1, 398870, Control_c, 0, 64, 113
1, 398885, Note_off_c, 0, 48, 31
1, 398885, Control_c, 0, 64, 114
1, 398914, Control_c, 0, 64, 115
1, 398929, Control_c, 0, 64, 115
1, 398959, Control_c, 0, 64, 116
1, 398973, Control_c, 0, 64, 116
1, 398988, Control_c, 0, 64, 117
1, 398995, Note_on_c, 0, 36, 22
1, 399006, Note_off_c, 0, 67, 20
1, 399018, Control_c, 0, 64, 117
1, 399062, Control_c, 0, 64, 118
1, 399106, Control_c, 0, 64, 118
1, 399165, Control_c, 0, 64, 119
1, 399200, Note_on_c, 0, 39, 24
1, 399226, Note_off_c, 0, 36, 32
1, 399328, Note_on_c, 0, 43, 29
1, 399382, Note_off_c, 0, 39, 34
1, 399445, Note_on_c, 0, 48, 32
1, 399525, Note_off_c, 0, 43, 32
1, 399569, Note_off_c, 0, 48, 40
1, 399574, Note_on_c, 0, 36, 33
1, 399668, Note_off_c, 0, 36, 38
1, 399697, Note_on_c, 0, 39, 26
1, 399744, Note_on_c, 0, 43, 42
1, 399785, Note_off_c, 0, 39, 33
1, 399868, Note_on_c, 0, 48, 38
1, 399996, Note_off_c, 0, 43, 39
1, 400026, Note_off_c, 0, 48, 49
1, 400041, Note_on_c, 0, 72, 53
1, 400051, Note_on_c, 0, 36, 34
1, 400066, Note_on_c, 0, 60, 40
1, 400117, Note_off_c, 0, 36, 53
1, 400153, Note_on_c, 0, 39, 35
1, 400231, Note_on_c, 0, 43, 35
1, 400316, Note_off_c, 0, 39, 32
1, 400332, Note_on_c, 0, 48, 39
1, 400401, Note_off_c, 0, 48, 55
1, 400417, Note_off_c, 0, 43, 39
1, 400447, Note_on_c, 0, 36, 35
1, 400512, Note_off_c, 0, 36, 52
1, 400537, Note_on_c, 0, 39, 33
1, 400616, Note_on_c, 0, 43, 34
1, 400652, Note_off_c, 0, 39, 37
1, 400676, Note_on_c, 0, 48, 43
1, 400745, Note_off_c, 0, 48, 57
1, 400766, Note_off_c, 0, 43, 31
1, 400807, Note_on_c, 0, 36, 37
1, 400860, Note_on_c, 0, 39, 44
1, 400867, Note_off_c, 0, 36, 53
1, 400968, Note_on_c, 0, 43, 27
1, 401008, Note_on_c, 0, 48, 41
1, 401013, Note_off_c, 0, 39, 34
1, 401018, Note_off_c, 0, 60, 58
1, 401045, Note_off_c, 0, 72, 64
1, 401049, Note_off_c, 0, 43, 38
1, 401067, Note_off_c, 0, 48, 50
1, 401129, Note_on_c, 0, 36, 37
1, 401162, Note_on_c, 0, 39, 40
1, 401195, Note_off_c, 0, 36, 54
1, 401316, Poly_aftertouch_c, 0, 43, 127
1, 401318, Note_off_c, 0, 39, 36
1, 401338, Note_on_c, 0, 48, 36
1, 401342, Note_on_c, 0, 75, 59
1, 401353, Note_on_c, 0, 63, 47
1, 401402, Note_off_c, 0, 63, 62
1, 401413, Note_off_c, 0, 75, 64
1, 401418, Note_off_c, 0, 48, 40
1, 401440, Control_c, 0, 64, 118
1, 401455, Control_c, 0, 64, 114
1, 401456, Note_on_c, 0, 36, 43
1, 401456, Poly_aftertouch_c, 0, 43, 0
1, 401462, Note_on_c, 0, 74, 57
1, 401470, Control_c, 0, 64, 106
1, 401484, Note_on_c, 0, 62, 55
1, 401484, Control_c, 0, 64, 97
1, 401499, Control_c, 0, 64, 85
1, 401514, Control_c, 0, 64, 72
1, 401529, Control_c, 0, 64, 42
1, 401544, Control_c, 0, 64, 0
1, 401573, Control_c, 0, 64, 47
1, 401576, Note_on_c, 0, 38, 29
1, 401588, Note_off_c, 0, 36, 49
1, 401588, Control_c, 0, 64, 65
1, 401603, Control_c, 0, 64, 71
1, 401617, Note_on_c, 0, 41, 44
1, 401618, Control_c, 0, 64, 76
1, 401633, Control_c, 0, 64, 80
1, 401648, Control_c, 0, 64, 84
1, 401663, Control_c, 0, 64, 88
1, 401669, Note_off_c, 0, 38, 33
1, 401677, Control_c, 0, 64, 91
1, 401692, Control_c, 0, 64, 94
1, 401698, Note_on_c, 0, 43, 24
1, 401707, Control_c, 0, 64, 97
1, 401722, Control_c, 0, 64, 100
1, 401725, Note_on_c, 0, 47, 49
1, 401735, Note_off_c, 0, 41, 36
1, 401737, Control_c, 0, 64, 101
1, 401758, Control_c, 0, 64, 103
1, 401773, Control_c, 0, 64, 105
1, 401788, Control_c, 0, 64, 107
1, 401797, Note_off_c, 0, 47, 57
1, 401803, Control_c, 0, 64, 109
1, 401818, Control_c, 0, 64, 110
1, 401834, Control_c, 0, 64, 112
1, 401841, Note_off_c, 0, 43, 39
1, 401842, Note_on_c, 0, 36, 45
1, 401849, Control_c, 0, 64, 113
1, 401859, Note_off_c, 0, 74, 33
1, 401863, Control_c, 0, 64, 115
1, 401878, Control_c, 0, 64, 116
1, 401891, Note_off_c, 0, 62, 33
1, 401893, Control_c, 0, 64, 117
1, 401907, Control_c, 0, 64, 119
1, 401921, Note_on_c, 0, 38, 34
1, 401922, Control_c, 0, 64, 120
1, 401937, Control_c, 0, 64, 121
1, 401954, Note_off_c, 0, 36, 37
1, 401959, Note_on_c, 0, 41, 51
1, 401982, Control_c, 0, 64, 122
1, 401991, Note_off_c, 0, 38, 51
1, 402011, Control_c, 0, 64, 123
1, 402023, Note_on_c, 0, 43, 35
1, 402026, Control_c, 0, 64, 124
1, 402052, Note_off_c, 0, 41, 52
1, 402056, Control_c, 0, 64, 124
1, 402071, Control_c, 0, 64, 125
1, 402082, Note_on_c, 0, 47, 47
1, 402101, Control_c, 0, 64, 126
1, 402130, Control_c, 0, 64, 126
1, 402145, Control_c, 0, 64, 127
1, 402205, Control_c, 0, 64, 127
1, 402229, Note_off_c, 0, 43, 42
1, 402244, Note_off_c, 0, 47, 48
1, 402248, Note_on_c, 0, 67, 66
1, 402252, Note_on_c, 0, 36, 41
1, 402338, Note_off_c, 0, 36, 51
1, 402342, Note_on_c, 0, 38, 33
1, 402400, Note_on_c, 0, 41, 40
1, 402442, Note_off_c, 0, 38, 37
1, 402456, Note_on_c, 0, 43, 32
1, 402508, Note_off_c, 0, 41, 38
1, 402515, Note_on_c, 0, 47, 45
1, 402582, Note_off_c, 0, 47, 54
1, 402601, Note_off_c, 0, 43, 40
1, 402632, Note_on_c, 0, 36, 36
1, 402718, Note_on_c, 0, 38, 13
1, 402720, Note_off_c, 0, 36, 39
1, 402742, Note_on_c, 0, 41, 44
1, 402767, Note_off_c, 0, 38, 48
1, 402795, Note_on_c, 0, 43, 40
1, 402840, Note_off_c, 0, 41, 47
1, 402852, Note_on_c, 0, 47, 51
1, 402953, Note_off_c, 0, 43, 33
1, 402953, Note_off_c, 0, 67, 56
1, 402962, Note_off_c, 0, 47, 37
1, 402975, Note_on_c, 0, 36, 49
1, 403075, Note_on_c, 0, 41, 46
1, 403084, Note_off_c, 0, 36, 37
1, 403130, Note_on_c, 0, 43, 40
1, 403160, Note_off_c, 0, 41, 54
1, 403190, Note_on_c, 0, 47, 43
1, 403195, Note_off_c, 0, 43, 52
1, 403218, Note_on_c, 0, 67, 41
1, 403237, Note_off_c, 0, 47, 60
1, 403257, Note_on_c, 0, 36, 39
1, 403258, Note_off_c, 0, 67, 56
1, 403271, Note_on_c, 0, 69, 62
1, 403321, Note_on_c, 0, 71, 62
1, 403330, Note_off_c, 0, 69, 66
1, 403348, Note_off_c, 0, 36, 47
1, 403349, Note_off_c, 0, 71, 65
1, 403351, Note_on_c, 0, 41, 31
1, 403352, Note_on_c, 0, 43, 29
1, 403395, Note_off_c, 0, 41, 60
1, 403397, Note_on_c, 0, 72, 70
1, 403401, Note_off_c, 0, 43, 55
1, 403426, Note_off_c, 0, 72, 61
1, 403428, Note_on_c, 0, 47, 35
1, 403435, Note_on_c, 0, 74, 67
1, 403466, Control_c, 0, 64, 126
1, 403480, Control_c, 0, 64, 117
1, 403487, Note_off_c, 0, 47, 44
1, 403495, Control_c, 0, 64, 106
1, 403510, Control_c, 0, 64, 91
1, 403513, Note_on_c, 0, 76, 75
1, 403525, Control_c, 0, 64, 73
1, 403527, Note_on_c, 0, 36, 50
1, 403531, Note_off_c, 0, 74, 62
1, 403540, Control_c, 0, 64, 0
1, 403599, Control_c, 0, 64, 55
1, 403614, Control_c, 0, 64, 68
1, 403628, Control_c, 0, 64, 75
1, 403643, Control_c, 0, 64, 81
1, 403658, Control_c, 0, 64, 86
1, 403673, Control_c, 0, 64, 91
1, 403687, Control_c, 0, 64, 96
1, 403702, Control_c, 0, 64, 101
1, 403717, Control_c, 0, 64, 106
1, 403726, Poly_aftertouch_c, 0, 40, 127
1, 403728, Note_on_c, 0, 46, 37
1, 403732, Control_c, 0, 64, 109
1, 403736, Note_off_c, 0, 36, 39
1, 403747, Control_c, 0, 64, 113
1, 403761, Poly_aftertouch_c, 0, 40, 0
1, 403761, Control_c, 0, 64, 116
1, 403776, Control_c, 0, 64, 120
1, 403785, Note_off_c, 0, 46, 49
1, 403791, Poly_aftertouch_c, 0, 48, 127
1, 403791, Control_c, 0, 64, 125
1, 403806, Control_c, 0, 64, 127
1, 403826, Poly_aftertouch_c, 0, 48, 0
1, 403826, Note_off_c, 0, 76, 66
1, 403851, Note_on_c, 0, 36, 54
1, 403907, Note_on_c, 0, 40, 48
1, 403994, Note_on_c, 0, 43, 38
1, 404005, Note_off_c, 0, 36, 38
1, 404036, Note_off_c, 0, 40, 37
1, 404051, Note_on_c, 0, 46, 35
1, 404083, Note_on_c, 0, 48, 37
1, 404116, Note_off_c, 0, 46, 53
1, 404121, Note_off_c, 0, 48, 52
1, 404147, Note_off_c, 0, 43, 32
1, 404184, Note_on_c, 0, 76, 76
1, 404197, Note_on_c, 0, 64, 62
1, 404213, Note_on_c, 0, 36, 51
1, 404298, Note_on_c, 0, 40, 48
1, 404365, Note_off_c, 0, 36, 36
1, 404369, Note_off_c, 0, 40, 56
1, 404381, Note_on_c, 0, 43, 33
1, 404412, Note_on_c, 0, 46, 43
1, 404430, Note_on_c, 0, 48, 41
1, 404470, Note_off_c, 0, 48, 49
1, 404472, Note_off_c, 0, 46, 55
1, 404530, Note_off_c, 0, 43, 35
1, 404554, Note_on_c, 0, 36, 40
1, 404577, Note_on_c, 0, 40, 49
1, 404651, Note_on_c, 0, 43, 43
1, 404686, Note_off_c, 0, 36, 35
1, 404706, Note_off_c, 0, 40, 35
1, 404711, Note_on_c, 0, 46, 33
1, 404754, Note_on_c, 0, 48, 43
1, 404778, Note_off_c, 0, 48, 58
1, 404792, Note_off_c, 0, 46, 41
1, 404819, Note_off_c, 0, 43, 31
1, 404868, Note_on_c, 0, 36, 47
1, 404897, Note_on_c, 0, 40, 46
1, 404945, Note_off_c, 0, 64, 63
1, 404979, Note_on_c, 0, 43, 39
1, 404980, Note_off_c, 0, 76, 61
1, 404984, Note_off_c, 0, 36, 34
1, 405019, Note_off_c, 0, 40, 51
1, 405035, Note_on_c, 0, 46, 32
1, 405071, Note_on_c, 0, 48, 35
1, 405077, Note_off_c, 0, 46, 46
1, 405109, Note_off_c, 0, 48, 52
1, 405150, Note_off_c, 0, 43, 40
1, 405152, Note_on_c, 0, 36, 43
1, 405174, Note_on_c, 0, 40, 53
1, 405240, Note_on_c, 0, 43, 52
1, 405264, Note_off_c, 0, 36, 35
1, 405271, Note_on_c, 0, 46, 52
1, 405311, Note_off_c, 0, 40, 35
1, 405317, Note_off_c, 0, 43, 60
1, 405332, Note_on_c, 0, 48, 51
1, 405332, Note_on_c, 0, 79, 60
1, 405335, Note_on_c, 0, 67, 65
1, 405341, Note_off_c, 0, 46, 60
1, 405360, Note_off_c, 0, 79, 57
1, 405368, Note_off_c, 0, 67, 63
1, 405375, Note_off_c, 0, 48, 60
1, 405434, Note_on_c, 0, 77, 76
1, 405451, Note_on_c, 0, 36, 58
1, 405454, Note_on_c, 0, 65, 59
1, 405467, Control_c, 0, 64, 111
1, 405482, Control_c, 0, 64, 97
1, 405505, Control_c, 0, 64, 78
1, 405520, Control_c, 0, 64, 54
1, 405534, Control_c, 0, 64, 0
1, 405569, Note_on_c, 0, 41, 45
1, 405579, Control_c, 0, 64, 29
1, 405587, Note_off_c, 0, 36, 39
1, 405594, Control_c, 0, 64, 66
1, 405608, Control_c, 0, 64, 73
1, 405623, Control_c, 0, 64, 79
1, 405624, Note_on_c, 0, 45, 51
1, 405638, Control_c, 0, 64, 86
1, 405652, Control_c, 0, 64, 91
1, 405665, Note_off_c, 0, 41, 54
1, 405667, Control_c, 0, 64, 95
1, 405679, Note_off_c, 0, 45, 63
1, 405682, Control_c, 0, 64, 99
1, 405697, Control_c, 0, 64, 104
1, 405699, Note_on_c, 0, 48, 44
1, 405712, Control_c, 0, 64, 108
1, 405726, Control_c, 0, 64, 112
1, 405738, Note_off_c, 0, 48, 48
1, 405741, Control_c, 0, 64, 115
1, 405756, Control_c, 0, 64, 119
1, 405771, Note_off_c, 0, 77, 56
1, 405771, Control_c, 0, 64, 125
1, 405776, Note_on_c, 0, 36, 55
1, 405786, Control_c, 0, 64, 127
1, 405836, Note_off_c, 0, 65, 58
1, 405839, Note_off_c, 0, 36, 57
1, 405875, Note_on_c, 0, 41, 38
1, 405908, Note_on_c, 0, 45, 50
1, 405925, Note_off_c, 0, 41, 49
1, 405967, Note_off_c, 0, 45, 61
1, 405976, Note_on_c, 0, 48, 47
1, 406035, Note_off_c, 0, 48, 56
1, 406118, Note_on_c, 0, 36, 49
1, 406118, Note_on_c, 0, 65, 72
1, 406193, Note_off_c, 0, 36, 58
1, 406235, Note_on_c, 0, 41, 45
1, 406289, Note_off_c, 0, 41, 58
1, 406298, Note_on_c, 0, 45, 49
1, 406345, Note_off_c, 0, 45, 60
1, 406358, Note_on_c, 0, 48, 51
1, 406418, Note_off_c, 0, 48, 57
1, 406458, Note_on_c, 0, 36, 54
1, 406528, Note_off_c, 0, 36, 61
1, 406595, Note_on_c, 0, 45, 46
1, 406667, Note_off_c, 0, 45, 63
1, 406683, Note_on_c, 0, 48, 39
1, 406697, Note_off_c, 0, 65, 65
1, 406721, Note_off_c, 0, 48, 50
1, 406775, Note_on_c, 0, 36, 55
1, 406832, Note_off_c, 0, 36, 59
1, 406863, Note_on_c, 0, 41, 48
1, 406900, Note_on_c, 0, 45, 52
1, 406911, Note_off_c, 0, 41, 60
1, 406955, Note_off_c, 0, 45, 62
1, 406972, Note_on_c, 0, 48, 47
1, 407022, Note_off_c, 0, 48, 47
1, 407052, Note_on_c, 0, 36, 56
1, 407052, Note_on_c, 0, 72, 59
1, 407101, Note_off_c, 0, 72, 61
1, 407110, Note_on_c, 0, 74, 65
1, 407143, Note_off_c, 0, 36, 52
1, 407165, Note_on_c, 0, 45, 42
1, 407171, Note_on_c, 0, 75, 74
1, 407178, Poly_aftertouch_c, 0, 41, 127
1, 407204, Note_off_c, 0, 74, 63
1, 407208, Note_off_c, 0, 45, 59
1, 407219, Note_on_c, 0, 48, 46
1, 407222, Poly_aftertouch_c, 0, 41, 0
1, 407236, Note_on_c, 0, 77, 77
1, 407249, Note_off_c, 0, 75, 59
1, 407259, Note_off_c, 0, 48, 47
1, 407358, Control_c, 0, 64, 114
1, 407367, Note_on_c, 0, 78, 84
1, 407370, Note_on_c, 0, 36, 54
1, 407372, Control_c, 0, 64, 94
1, 407380, Note_on_c, 0, 66, 72
1, 407387, Control_c, 0, 64, 75
1, 407402, Control_c, 0, 64, 0
1, 407412, Note_off_c, 0, 77, 56
1, 407462, Control_c, 0, 64, 66
1, 407477, Control_c, 0, 64, 74
1, 407478, Note_on_c, 0, 39, 42
1, 407492, Control_c, 0, 64, 80
1, 407507, Control_c, 0, 64, 85
1, 407519, Note_on_c, 0, 42, 52
1, 407521, Control_c, 0, 64, 90
1, 407529, Note_off_c, 0, 39, 56
1, 407535, Note_off_c, 0, 36, 38
1, 407536, Control_c, 0, 64, 96
1, 407551, Control_c, 0, 64, 101
1, 407562, Note_on_c, 0, 45, 42
1, 407566, Control_c, 0, 64, 107
1, 407580, Note_off_c, 0, 42, 61
1, 407581, Control_c, 0, 64, 111
1, 407592, Note_on_c, 0, 48, 44
1, 407595, Control_c, 0, 64, 117
1, 407610, Control_c, 0, 64, 122
1, 407623, Note_off_c, 0, 48, 53
1, 407625, Note_off_c, 0, 45, 51
1, 407625, Control_c, 0, 64, 127
1, 407642, Note_off_c, 0, 78, 62
1, 407674, Note_on_c, 0, 36, 58
1, 407705, Note_off_c, 0, 66, 59
1, 407764, Note_on_c, 0, 39, 43
1, 407804, Note_on_c, 0, 42, 56
1, 407810, Note_off_c, 0, 36, 52
1, 407815, Note_off_c, 0, 39, 58
1, 407836, Note_on_c, 0, 45, 56
1, 407886, Note_off_c, 0, 42, 62
1, 407887, Note_on_c, 0, 48, 56
1, 407942, Note_off_c, 0, 48, 56
1, 407987, Note_off_c, 0, 45, 37
1, 408046, Note_on_c, 0, 36, 52
1, 408049, Note_on_c, 0, 66, 79
1, 408107, Control_c, 0, 64, 112
1, 408117, Note_on_c, 0, 39, 45
1, 408121, Control_c, 0, 64, 93
1, 408136, Control_c, 0, 64, 74
1, 408151, Control_c, 0, 64, 0
1, 408180, Note_off_c, 0, 39, 56
1, 408180, Note_off_c, 0, 36, 54
1, 408184, Note_on_c, 0, 42, 43
1, 408196, Control_c, 0, 64, 59
1, 408211, Control_c, 0, 64, 71
1, 408227, Control_c, 0, 64, 79
1, 408230, Note_on_c, 0, 45, 46
1, 408242, Control_c, 0, 64, 87
1, 408251, Note_on_c, 0, 48, 47
1, 408256, Control_c, 0, 64, 92
1, 408259, Note_off_c, 0, 42, 60
1, 408271, Control_c, 0, 64, 99
1, 408286, Control_c, 0, 64, 106
1, 408292, Note_off_c, 0, 48, 51
1, 408301, Control_c, 0, 64, 114
1, 408302, Note_off_c, 0, 45, 52
1, 408316, Control_c, 0, 64, 124
1, 408331, Control_c, 0, 64, 127
1, 408373, Note_on_c, 0, 36, 50
1, 408418, Note_on_c, 0, 39, 45
1, 408456, Note_on_c, 0, 42, 57
1, 408501, Note_off_c, 0, 39, 55
1, 408526, Note_off_c, 0, 36, 35
1, 408526, Note_off_c, 0, 66, 65
1, 408546, Note_on_c, 0, 45, 32
1, 408565, Note_off_c, 0, 42, 62
1, 408571, Note_on_c, 0, 48, 55
1, 408614, Note_off_c, 0, 45, 44
1, 408618, Note_off_c, 0, 48, 60
1, 408677, Note_on_c, 0, 36, 49
1, 408707, Note_on_c, 0, 39, 49
1, 408754, Note_on_c, 0, 42, 61
1, 408844, Note_off_c, 0, 39, 54
1, 408864, Note_off_c, 0, 36, 40
1, 408879, Note_on_c, 0, 48, 53
1, 408891, Poly_aftertouch_c, 0, 45, 127
1, 408894, Note_off_c, 0, 42, 62
1, 408912, Note_on_c, 0, 72, 69
1, 408942, Note_off_c, 0, 48, 59
1, 408955, Poly_aftertouch_c, 0, 45, 0
1, 408966, Note_on_c, 0, 36, 59
1, 408972, Note_on_c, 0, 74, 75
1, 408979, Note_off_c, 0, 72, 63
1, 409039, Note_on_c, 0, 75, 75
1, 409052, Note_off_c, 0, 36, 62
1, 409054, Note_on_c, 0, 42, 41
1, 409075, Note_off_c, 0, 74, 66
1, 409088, Note_off_c, 0, 42, 59
1, 409098, Note_on_c, 0, 78, 78
1, 409124, Note_off_c, 0, 75, 66
1, 409129, Poly_aftertouch_c, 0, 48, 127
1, 409169, Poly_aftertouch_c, 0, 48, 0
1, 409184, Note_on_c, 0, 36, 63
1, 409216, Note_on_c, 0, 79, 90
1, 409227, Control_c, 0, 64, 100
1, 409249, Control_c, 0, 64, 79
1, 409256, Note_off_c, 0, 78, 64
1, 409264, Control_c, 0, 64, 53
1, 409279, Control_c, 0, 64, 0
1, 409312, Note_on_c, 0, 40, 56
1, 409323, Control_c, 0, 64, 68
1, 409338, Control_c, 0, 64, 78
1, 409350, Note_on_c, 0, 43, 52
1, 409353, Control_c, 0, 64, 86
1, 409368, Control_c, 0, 64, 91
1, 409382, Control_c, 0, 64, 96
1, 409397, Note_on_c, 0, 46, 50
1, 409397, Note_off_c, 0, 36, 32
1, 409397, Control_c, 0, 64, 101
1, 409412, Control_c, 0, 64, 108
1, 409426, Control_c, 0, 64, 115
1, 409432, Note_off_c, 0, 40, 37
1, 409441, Control_c, 0, 64, 122
1, 409443, Note_on_c, 0, 48, 43
1, 409456, Control_c, 0, 64, 127
1, 409474, Note_off_c, 0, 48, 54
1, 409488, Note_off_c, 0, 46, 49
1, 409508, Note_off_c, 0, 43, 37
1, 409535, Note_on_c, 0, 36, 46
1, 409539, Note_off_c, 0, 79, 61
1, 409548, Note_on_c, 0, 40, 53
1, 409616, Note_on_c, 0, 43, 59
1, 409646, Note_off_c, 0, 36, 37
1, 409647, Note_on_c, 0, 46, 57
1, 409673, Note_off_c, 0, 40, 55
1, 409732, Note_off_c, 0, 43, 58
1, 409735, Note_on_c, 0, 48, 61
1, 409782, Note_off_c, 0, 46, 60
1, 409943, Note_on_c, 0, 36, 53
1, 409944, Note_on_c, 0, 80, 89
1, 409953, Note_off_c, 0, 48, 36
1, 409955, Note_on_c, 0, 68, 80
1, 409976, Control_c, 0, 64, 118
1, 409997, Control_c, 0, 64, 97
1, 410012, Control_c, 0, 64, 79
1, 410027, Control_c, 0, 64, 57
1, 410042, Control_c, 0, 64, 0
1, 410062, Note_on_c, 0, 41, 43
1, 410067, Note_off_c, 0, 36, 58
1, 410102, Control_c, 0, 64, 53
1, 410117, Control_c, 0, 64, 66
1, 410120, Note_on_c, 0, 44, 36
1, 410131, Control_c, 0, 64, 71
1, 410146, Control_c, 0, 64, 74
1, 410161, Control_c, 0, 64, 77
1, 410176, Control_c, 0, 64, 79
1, 410191, Control_c, 0, 64, 83
1, 410199, Note_on_c, 0, 48, 46
1, 410205, Control_c, 0, 64, 86
1, 410217, Note_off_c, 0, 41, 36
1, 410220, Control_c, 0, 64, 90
1, 410235, Control_c, 0, 64, 92
1, 410249, Control_c, 0, 64, 94
1, 410258, Note_off_c, 0, 44, 48
1, 410264, Control_c, 0, 64, 96
1, 410279, Control_c, 0, 64, 98
1, 410287, Note_off_c, 0, 48, 55
1, 410294, Control_c, 0, 64, 100
1, 410297, Note_on_c, 0, 36, 52
1, 410309, Control_c, 0, 64, 103
1, 410323, Control_c, 0, 64, 105
1, 410338, Control_c, 0, 64, 107
1, 410353, Control_c, 0, 64, 107
1, 410368, Control_c, 0, 64, 108
1, 410383, Control_c, 0, 64, 108
1, 410392, Note_off_c, 0, 36, 55
1, 410397, Control_c, 0, 64, 109
1, 410409, Note_on_c, 0, 41, 46
1, 410412, Control_c, 0, 64, 110
1, 410427, Control_c, 0, 64, 110
1, 410436, Note_on_c, 0, 44, 39
1, 410456, Control_c, 0, 64, 111
1, 410486, Control_c, 0, 64, 111
1, 410514, Note_off_c, 0, 41, 48
1, 410527, Note_on_c, 0, 48, 43
1, 410589, Note_off_c, 0, 44, 42
1, 410599, Note_off_c, 0, 48, 41
1, 410617, Note_on_c, 0, 36, 47
1, 410710, Note_off_c, 0, 36, 57
1, 410732, Note_on_c, 0, 41, 42
1, 410766, Note_on_c, 0, 44, 38
1, 410797, Note_off_c, 0, 68, 36
1, 410840, Note_off_c, 0, 41, 54
1, 410856, Note_on_c, 0, 48, 44
1, 410921, Note_off_c, 0, 44, 41
1, 410937, Note_off_c, 0, 48, 55
1, 410955, Note_on_c, 0, 36, 42
1, 411023, Note_off_c, 0, 80, 20
1, 411041, Note_off_c, 0, 36, 51
1, 411053, Note_on_c, 0, 41, 41
1, 411081, Note_on_c, 0, 44, 23
1, 411160, Note_on_c, 0, 48, 41
1, 411177, Note_off_c, 0, 41, 36
1, 411190, Control_c, 0, 64, 111
1, 411208, Note_off_c, 0, 48, 48
1, 411250, Control_c, 0, 64, 110
1, 411253, Note_off_c, 0, 44, 40
1, 411260, Note_on_c, 0, 36, 51
1, 411264, Control_c, 0, 64, 108
1, 411279, Control_c, 0, 64, 105
1, 411294, Control_c, 0, 64, 98
1, 411309, Control_c, 0, 64, 88
1, 411324, Control_c, 0, 64, 74
1, 411339, Control_c, 0, 64, 56
1, 411354, Control_c, 0, 64, 0
1, 411360, Note_off_c, 0, 36, 56
1, 411375, Note_on_c, 0, 38, 27
1, 411383, Control_c, 0, 64, 45
1, 411398, Control_c, 0, 64, 66
1, 411413, Note_on_c, 0, 41, 40
1, 411414, Control_c, 0, 64, 71
1, 411429, Control_c, 0, 64, 75
1, 411438, Note_off_c, 0, 38, 42
1, 411443, Control_c, 0, 64, 78
1, 411452, Note_on_c, 0, 44, 36
1, 411458, Control_c, 0, 64, 80
1, 411473, Control_c, 0, 64, 83
1, 411495, Control_c, 0, 64, 85
1, 411497, Note_off_c, 0, 41, 55
1, 411510, Control_c, 0, 64, 87
1, 411521, Note_on_c, 0, 47, 46
1, 411525, Control_c, 0, 64, 89
1, 411540, Control_c, 0, 64, 91
1, 411544, Note_off_c, 0, 44, 43
1, 411555, Control_c, 0, 64, 92
1, 411569, Control_c, 0, 64, 93
1, 411572, Note_off_c, 0, 47, 50
1, 411584, Control_c, 0, 64, 94
1, 411586, Note_on_c, 0, 36, 51
1, 411599, Control_c, 0, 64, 94
1, 411614, Control_c, 0, 64, 95
1, 411628, Control_c, 0, 64, 95
1, 411653, Note_on_c, 0, 38, 24
1, 411658, Control_c, 0, 64, 96
1, 411693, Note_on_c, 0, 41, 49
1, 411706, Note_off_c, 0, 36, 37
1, 411714, Note_off_c, 0, 38, 42
1, 411717, Control_c, 0, 64, 96
1, 411722, Note_on_c, 0, 44, 43
1, 411762, Note_on_c, 0, 80, 59
1, 411780, Note_on_c, 0, 68, 42
1, 411795, Note_off_c, 0, 80, 66
1, 411801, Note_off_c, 0, 41, 46
1, 411804, Note_on_c, 0, 47, 43
1, 411808, Note_off_c, 0, 68, 58
1, 411859, Note_off_c, 0, 47, 56
1, 411869, Note_off_c, 0, 44, 33
1, 411888, Note_on_c, 0, 77, 66
1, 411888, Note_on_c, 0, 36, 49
1, 411895, Control_c, 0, 64, 96
1, 411906, Note_on_c, 0, 65, 51
1, 411911, Control_c, 0, 64, 93
1, 411926, Control_c, 0, 64, 86
1, 411941, Control_c, 0, 64, 74
1, 411956, Control_c, 0, 64, 58
1, 411970, Control_c, 0, 64, 0
1, 411982, Note_off_c, 0, 36, 47
1, 412006, Note_on_c, 0, 41, 46
1, 412011, Poly_aftertouch_c, 0, 38, 127
1, 412014, Control_c, 0, 64, 28
1, 412029, Control_c, 0, 64, 64
1, 412043, Poly_aftertouch_c, 0, 38, 0
1, 412044, Control_c, 0, 64, 68
1, 412051, Note_on_c, 0, 44, 32
1, 412059, Control_c, 0, 64, 71
1, 412074, Control_c, 0, 64, 74
1, 412088, Control_c, 0, 64, 76
1, 412103, Control_c, 0, 64, 80
1, 412118, Control_c, 0, 64, 82
1, 412133, Note_on_c, 0, 47, 43
1, 412133, Control_c, 0, 64, 84
1, 412146, Note_off_c, 0, 65, 39
1, 412148, Control_c, 0, 64, 86
1, 412154, Note_off_c, 0, 41, 36
1, 412162, Control_c, 0, 64, 87
1, 412177, Control_c, 0, 64, 87
1, 412191, Note_off_c, 0, 44, 34
1, 412191, Note_off_c, 0, 77, 36
1, 412192, Control_c, 0, 64, 88
1, 412207, Control_c, 0, 64, 89
1, 412219, Note_on_c, 0, 36, 47
1, 412222, Note_off_c, 0, 47, 38
1, 412223, Control_c, 0, 64, 90
1, 412275, Control_c, 0, 64, 90
1, 412299, Note_on_c, 0, 38, 25
1, 412332, Note_on_c, 0, 41, 49
1, 412334, Note_off_c, 0, 36, 47
1, 412375, Note_off_c, 0, 38, 39
1, 412379, Note_on_c, 0, 44, 36
1, 412451, Note_on_c, 0, 47, 46
1, 412467, Note_off_c, 0, 41, 34
1, 412536, Note_off_c, 0, 47, 54
1, 412541, Note_off_c, 0, 44, 32
1, 412556, Control_c, 0, 64, 89
1, 412560, Note_on_c, 0, 79, 56
1, 412565, Note_on_c, 0, 36, 43
1, 412571, Control_c, 0, 64, 85
1, 412574, Note_on_c, 0, 67, 46
1, 412585, Control_c, 0, 64, 78
1, 412600, Control_c, 0, 64, 66
1, 412615, Control_c, 0, 64, 0
1, 412634, Note_off_c, 0, 36, 51
1, 412660, Poly_aftertouch_c, 0, 38, 127
1, 412673, Control_c, 0, 64, 49
1, 412676, Note_on_c, 0, 41, 46
1, 412688, Control_c, 0, 64, 66
1, 412703, Control_c, 0, 64, 71
1, 412704, Poly_aftertouch_c, 0, 38, 0
1, 412711, Note_on_c, 0, 44, 38
1, 412717, Control_c, 0, 64, 74
1, 412732, Control_c, 0, 64, 77
1, 412747, Control_c, 0, 64, 80
1, 412761, Control_c, 0, 64, 84
1, 412776, Control_c, 0, 64, 86
1, 412784, Note_on_c, 0, 47, 48
1, 412791, Control_c, 0, 64, 88
1, 412799, Note_off_c, 0, 79, 58
1, 412805, Note_off_c, 0, 41, 36
1, 412806, Control_c, 0, 64, 90
1, 412821, Control_c, 0, 64, 92
1, 412835, Control_c, 0, 64, 93
1, 412849, Note_off_c, 0, 47, 53
1, 412850, Control_c, 0, 64, 94
1, 412859, Note_off_c, 0, 44, 35
1, 412865, Control_c, 0, 64, 95
1, 412878, Note_off_c, 0, 67, 39
1, 412880, Control_c, 0, 64, 95
1, 412895, Note_on_c, 0, 36, 33
1, 412895, Control_c, 0, 64, 96
1, 412910, Control_c, 0, 64, 96
1, 412917, Note_on_c, 0, 38, 36
1, 412956, Note_on_c, 0, 41, 48
1, 412969, Control_c, 0, 64, 97
1, 412999, Note_off_c, 0, 36, 36
1, 413014, Note_on_c, 0, 44, 38
1, 413081, Note_off_c, 0, 38, 32
1, 413088, Note_on_c, 0, 47, 50
1, 413117, Note_off_c, 0, 41, 45
1, 413205, Note_off_c, 0, 44, 38
1, 413214, Control_c, 0, 64, 96
1, 413229, Control_c, 0, 64, 95
1, 413244, Note_on_c, 0, 72, 55
1, 413244, Control_c, 0, 64, 89
1, 413257, Note_on_c, 0, 36, 44
1, 413259, Control_c, 0, 64, 79
1, 413264, Note_off_c, 0, 47, 41
1, 413273, Control_c, 0, 64, 66
1, 413288, Control_c, 0, 64, 0
1, 413361, Note_off_c, 0, 72, 51
1, 413363, Control_c, 0, 64, 54
1, 413363, Note_on_c, 0, 71, 46
1, 413378, Control_c, 0, 64, 66
1, 413386, Note_on_c, 0, 39, 35
1, 413393, Control_c, 0, 64, 71
1, 413407, Control_c, 0, 64, 76
1, 413422, Control_c, 0, 64, 80
1, 413426, Note_off_c, 0, 36, 35
1, 413437, Control_c, 0, 64, 83
1, 413442, Note_on_c, 0, 69, 53
1, 413452, Control_c, 0, 64, 85
1, 413457, Note_on_c, 0, 43, 40
1, 413466, Control_c, 0, 64, 87
1, 413476, Note_off_c, 0, 71, 51
1, 413481, Control_c, 0, 64, 89
1, 413496, Control_c, 0, 64, 92
1, 413511, Control_c, 0, 64, 93
1, 413518, Note_on_c, 0, 67, 57
1, 413526, Control_c, 0, 64, 95
1, 413527, Note_on_c, 0, 48, 34
1, 413528, Note_off_c, 0, 39, 35
1, 413533, Note_off_c, 0, 69, 58
1, 413540, Control_c, 0, 64, 96
1, 413555, Control_c, 0, 64, 96
1, 413561, Note_off_c, 0, 67, 62
1, 413570, Control_c, 0, 64, 97
1, 413581, Note_off_c, 0, 43, 34
1, 413584, Control_c, 0, 64, 97
1, 413586, Note_off_c, 0, 48, 44
1, 413591, Note_on_c, 0, 65, 56
1, 413599, Control_c, 0, 64, 98
1, 413610, Note_on_c, 0, 36, 42
1, 413641, Note_off_c, 0, 65, 59
1, 413644, Control_c, 0, 64, 98
1, 413676, Note_on_c, 0, 63, 58
1, 413694, Note_off_c, 0, 36, 51
1, 413707, Note_on_c, 0, 39, 36
1, 413761, Note_on_c, 0, 43, 39
1, 413762, Note_on_c, 0, 62, 51
1, 413789, Note_off_c, 0, 39, 48
1, 413815, Control_c, 0, 64, 96
1, 413818, Note_off_c, 0, 63, 47
1, 413830, Control_c, 0, 64, 89
1, 413840, Note_off_c, 0, 62, 57
1, 413845, Control_c, 0, 64, 78
1, 413850, Note_on_c, 0, 48, 33
1, 413851, Note_on_c, 0, 60, 63
1, 413860, Control_c, 0, 64, 65
1, 413861, Note_off_c, 0, 43, 47
1, 413875, Control_c, 0, 64, 0
1, 413884, Note_on_c, 0, 36, 45
1, 413890, Note_off_c, 0, 48, 49
1, 413904, Control_c, 0, 64, 59
1, 413919, Control_c, 0, 64, 69
1, 413920, Note_off_c, 0, 60, 60
1, 413934, Control_c, 0, 64, 74
1, 413949, Control_c, 0, 64, 80
1, 413951, Note_on_c, 0, 62, 54
1, 413963, Control_c, 0, 64, 84
1, 413978, Control_c, 0, 64, 87
1, 413993, Control_c, 0, 64, 90
1, 413998, Note_on_c, 0, 39, 41
1, 414001, Note_off_c, 0, 62, 56
1, 414002, Note_on_c, 0, 63, 63
1, 414008, Control_c, 0, 64, 92
1, 414009, Note_on_c, 0, 43, 44
1, 414022, Control_c, 0, 64, 94
1, 414037, Control_c, 0, 64, 96
1, 414040, Note_off_c, 0, 36, 34
1, 414052, Control_c, 0, 64, 98
1, 414063, Note_off_c, 0, 63, 65
1, 414067, Control_c, 0, 64, 100
1, 414074, Note_off_c, 0, 39, 53
1, 414082, Control_c, 0, 64, 100
1, 414094, Note_on_c, 0, 48, 48
1, 414094, Note_on_c, 0, 65, 67
1, 414111, Control_c, 0, 64, 101
1, 414155, Note_off_c, 0, 65, 63
1, 414159, Note_off_c, 0, 48, 59
1, 414164, Note_on_c, 0, 36, 54
1, 414168, Note_on_c, 0, 67, 68
1, 414180, Note_off_c, 0, 43, 36
1, 414224, Note_on_c, 0, 69, 64
1, 414230, Control_c, 0, 64, 101
1, 414254, Note_off_c, 0, 67, 57
1, 414256, Note_on_c, 0, 39, 45
1, 414272, Note_off_c, 0, 36, 53
1, 414281, Note_on_c, 0, 71, 58
1, 414284, Note_on_c, 0, 43, 53
1, 414303, Note_off_c, 0, 69, 65
1, 414317, Note_off_c, 0, 71, 62
1, 414319, Control_c, 0, 64, 100
1, 414334, Control_c, 0, 64, 94
1, 414342, Note_off_c, 0, 39, 55
1, 414349, Control_c, 0, 64, 82
1, 414358, Note_on_c, 0, 72, 74
1, 414363, Control_c, 0, 64, 68
1, 414367, Note_on_c, 0, 48, 46
1, 414378, Control_c, 0, 64, 0
1, 414391, Note_off_c, 0, 43, 57
1, 414405, Note_off_c, 0, 72, 61
1, 414407, Control_c, 0, 64, 61
1, 414421, Note_on_c, 0, 36, 51
1, 414422, Note_off_c, 0, 48, 46
1, 414422, Control_c, 0, 64, 69
1, 414430, Note_on_c, 0, 74, 64
1, 414437, Control_c, 0, 64, 76
1, 414452, Control_c, 0, 64, 82
1, 414467, Control_c, 0, 64, 86
1, 414489, Control_c, 0, 64, 89
1, 414490, Note_on_c, 0, 75, 68
1, 414496, Note_off_c, 0, 74, 62
1, 414504, Control_c, 0, 64, 92
1, 414519, Note_on_c, 0, 39, 41
1, 414519, Control_c, 0, 64, 95
1, 414528, Note_off_c, 0, 36, 57
1, 414534, Control_c, 0, 64, 99
1, 414544, Note_off_c, 0, 75, 66
1, 414549, Control_c, 0, 64, 102
1, 414559, Note_on_c, 0, 43, 47
1, 414563, Control_c, 0, 64, 104
1, 414567, Note_on_c, 0, 77, 72
1, 414578, Control_c, 0, 64, 105
1, 414587, Note_off_c, 0, 39, 54
1, 414593, Control_c, 0, 64, 106
1, 414609, Control_c, 0, 64, 107
1, 414624, Control_c, 0, 64, 107
1, 414625, Note_off_c, 0, 77, 59
1, 414626, Note_on_c, 0, 48, 44
1, 414636, Note_on_c, 0, 79, 70
1, 414638, Control_c, 0, 64, 108
1, 414661, Note_off_c, 0, 43, 54
1, 414684, Note_off_c, 0, 48, 59
1, 414696, Note_on_c, 0, 36, 51
1, 414698, Note_on_c, 0, 81, 72
1, 414712, Control_c, 0, 64, 108
1, 414722, Note_off_c, 0, 79, 62
1, 414758, Note_on_c, 0, 83, 71
1, 414772, Note_off_c, 0, 81, 53
1, 414797, Note_on_c, 0, 39, 46
1, 414799, Note_off_c, 0, 36, 59
1, 414816, Control_c, 0, 64, 105
1, 414821, Note_on_c, 0, 43, 50
1, 414831, Control_c, 0, 64, 95
1, 414844, Note_on_c, 0, 84, 76
1, 414845, Control_c, 0, 64, 81
1, 414850, Note_off_c, 0, 83, 61
1, 414859, Note_off_c, 0, 39, 57
1, 414860, Control_c, 0, 64, 65
1, 414875, Control_c, 0, 64, 0
1, 414890, Control_c, 0, 64, 36
1, 414895, Note_off_c, 0, 43, 57
1, 414896, Note_on_c, 0, 48, 36
1, 414906, Control_c, 0, 64, 66
1, 414920, Control_c, 0, 64, 75
1, 414923, Note_on_c, 0, 83, 60
1, 414935, Control_c, 0, 64, 83
1, 414938, Note_on_c, 0, 36, 55
1, 414944, Note_off_c, 0, 48, 58
1, 414950, Control_c, 0, 64, 89
1, 414960, Note_off_c, 0, 84, 62
1, 414965, Control_c, 0, 64, 92
1, 414980, Control_c, 0, 64, 94
1, 414983, Note_on_c, 0, 81, 70
1, 414994, Control_c, 0, 64, 96
1, 415009, Control_c, 0, 64, 99
1, 415024, Control_c, 0, 64, 102
1, 415027, Note_off_c, 0, 83, 57
1, 415028, Note_on_c, 0, 39, 46
1, 415032, Note_off_c, 0, 36, 53
1, 415038, Control_c, 0, 64, 105
1, 415047, Note_on_c, 0, 79, 70
1, 415053, Control_c, 0, 64, 107
1, 415066, Note_off_c, 0, 81, 59
1, 415068, Note_on_c, 0, 43, 49
1, 415068, Control_c, 0, 64, 108
1, 415083, Control_c, 0, 64, 109
1, 415092, Note_off_c, 0, 39, 58
1, 415098, Control_c, 0, 64, 110
1, 415101, Note_off_c, 0, 79, 61
1, 415105, Note_on_c, 0, 77, 71
1, 415113, Control_c, 0, 64, 111
1, 415119, Note_off_c, 0, 43, 57
1, 415127, Control_c, 0, 64, 112
1, 415140, Note_on_c, 0, 48, 39
1, 415157, Note_off_c, 0, 77, 62
1, 415157, Control_c, 0, 64, 112
1, 415182, Note_on_c, 0, 75, 73
1, 415184, Note_on_c, 0, 36, 55
1, 415187, Control_c, 0, 64, 113
1, 415190, Note_off_c, 0, 48, 46
1, 415238, Control_c, 0, 64, 113
1, 415251, Note_on_c, 0, 74, 70
1, 415267, Note_on_c, 0, 39, 43
1, 415275, Note_off_c, 0, 36, 58
1, 415295, Note_off_c, 0, 75, 62
1, 415298, Control_c, 0, 64, 112
1, 415306, Note_on_c, 0, 43, 56
1, 415312, Control_c, 0, 64, 105
1, 415318, Note_off_c, 0, 74, 65
1, 415320, Note_off_c, 0, 39, 58
1, 415321, Note_on_c, 0, 72, 73
1, 415327, Control_c, 0, 64, 90
1, 415342, Control_c, 0, 64, 73
1, 415349, Note_off_c, 0, 43, 59
1, 415357, Control_c, 0, 64, 0
1, 415360, Note_on_c, 0, 48, 44
1, 415387, Control_c, 0, 64, 58
1, 415391, Note_off_c, 0, 72, 63
1, 415402, Note_on_c, 0, 74, 67
1, 415402, Control_c, 0, 64, 72
1, 415413, Note_off_c, 0, 48, 62
1, 415416, Note_on_c, 0, 36, 52
1, 415417, Control_c, 0, 64, 82
1, 415432, Control_c, 0, 64, 91
1, 415447, Control_c, 0, 64, 96
1, 415456, Note_on_c, 0, 75, 73
1, 415461, Control_c, 0, 64, 99
1, 415467, Note_off_c, 0, 74, 63
1, 415476, Control_c, 0, 64, 103
1, 415491, Control_c, 0, 64, 107
1, 415500, Note_off_c, 0, 36, 58
1, 415500, Note_off_c, 0, 75, 63
1, 415500, Note_on_c, 0, 39, 44
1, 415506, Control_c, 0, 64, 112
1, 415521, Control_c, 0, 64, 115
1, 415524, Note_on_c, 0, 77, 73
1, 415529, Note_on_c, 0, 43, 61
1, 415536, Control_c, 0, 64, 117
1, 415551, Note_off_c, 0, 39, 58
1, 415551, Control_c, 0, 64, 118
1, 415566, Control_c, 0, 64, 119
1, 415581, Control_c, 0, 64, 119
1, 415584, Note_off_c, 0, 77, 60
1, 415590, Note_on_c, 0, 48, 51
1, 415594, Note_on_c, 0, 79, 65
1, 415602, Note_off_c, 0, 43, 56
1, 415610, Control_c, 0, 64, 120
1, 415638, Note_on_c, 0, 36, 57
1, 415643, Note_on_c, 0, 81, 76
1, 415644, Note_off_c, 0, 48, 64
1, 415670, Note_off_c, 0, 79, 61
1, 415683, Control_c, 0, 64, 120
1, 415700, Note_on_c, 0, 83, 74
1, 415713, Control_c, 0, 64, 121
1, 415725, Note_on_c, 0, 39, 53
1, 415730, Note_off_c, 0, 36, 61
1, 415742, Control_c, 0, 64, 120
1, 415754, Note_off_c, 0, 81, 35
1, 415757, Control_c, 0, 64, 118
1, 415762, Note_on_c, 0, 43, 57
1, 415772, Control_c, 0, 64, 107
1, 415782, Note_on_c, 0, 84, 78
1, 415786, Control_c, 0, 64, 89
1, 415791, Note_off_c, 0, 39, 59
1, 415792, Note_off_c, 0, 83, 60
1, 415801, Control_c, 0, 64, 70
1, 415816, Control_c, 0, 64, 0
1, 415819, Note_on_c, 0, 48, 53
1, 415819, Note_off_c, 0, 43, 58
1, 415846, Control_c, 0, 64, 45
1, 415861, Note_on_c, 0, 83, 58
1, 415861, Control_c, 0, 64, 71
1, 415866, Note_on_c, 0, 36, 58
1, 415867, Note_off_c, 0, 48, 62
1, 415876, Control_c, 0, 64, 82
1, 415891, Control_c, 0, 64, 92
1, 415904, Note_off_c, 0, 84, 63
1, 415905, Control_c, 0, 64, 96
1, 415912, Note_on_c, 0, 81, 69
1, 415920, Control_c, 0, 64, 99
1, 415935, Control_c, 0, 64, 103
1, 415939, Note_on_c, 0, 39, 56
1, 415948, Note_off_c, 0, 36, 61
1, 415950, Control_c, 0, 64, 108
1, 415955, Note_off_c, 0, 83, 61
1, 415965, Control_c, 0, 64, 112
1, 415976, Note_on_c, 0, 79, 73
1, 415986, Note_on_c, 0, 43, 59
1, 415986, Control_c, 0, 64, 116
1, 415994, Note_off_c, 0, 81, 59
1, 416001, Control_c, 0, 64, 119
1, 416010, Note_off_c, 0, 39, 61
1, 416016, Control_c, 0, 64, 121
1, 416031, Control_c, 0, 64, 122
1, 416034, Note_off_c, 0, 79, 61
1, 416037, Note_off_c, 0, 43, 60
1, 416039, Note_on_c, 0, 77, 70
1, 416046, Control_c, 0, 64, 123
1, 416048, Note_on_c, 0, 48, 56
1, 416060, Control_c, 0, 64, 126
1, 416073, Note_off_c, 0, 77, 57
1, 416075, Control_c, 0, 64, 127
1, 416101, Note_on_c, 0, 36, 56
1, 416104, Note_on_c, 0, 75, 79
1, 416107, Note_off_c, 0, 48, 60
1, 416139, Note_on_c, 0, 39, 61
1, 416151, Note_on_c, 0, 74, 70
1, 416164, Note_off_c, 0, 36, 57
1, 416173, Note_on_c, 0, 43, 50
1, 416174, Note_off_c, 0, 75, 63
1, 416204, Note_off_c, 0, 74, 66
1, 416205, Note_on_c, 0, 72, 78
1, 416218, Note_off_c, 0, 39, 60
1, 416224, Note_on_c, 0, 48, 60
1, 416254, Note_off_c, 0, 72, 63
1, 416281, Note_off_c, 0, 48, 59
1, 416298, Note_off_c, 0, 43, 54
1, 416310, Note_on_c, 0, 36, 65
1, 416314, Control_c, 0, 64, 106
1, 416316, Note_on_c, 0, 86, 83
1, 416329, Control_c, 0, 64, 87
1, 416344, Control_c, 0, 64, 68
1, 416358, Control_c, 0, 64, 0
1, 416388, Control_c, 0, 64, 27
1, 416400, Note_on_c, 0, 84, 67
1, 416403, Control_c, 0, 64, 71
1, 416409, Note_on_c, 0, 38, 53
1, 416411, Note_off_c, 0, 36, 59
1, 416412, Note_off_c, 0, 86, 52
1, 416417, Control_c, 0, 64, 82
1, 416432, Control_c, 0, 64, 92
1, 416439, Note_on_c, 0, 41, 63
1, 416447, Control_c, 0, 64, 96
1, 416460, Note_on_c, 0, 83, 72
1, 416462, Control_c, 0, 64, 99
1, 416474, Note_off_c, 0, 38, 58
1, 416477, Control_c, 0, 64, 102
1, 416483, Note_on_c, 0, 43, 56
1, 416491, Control_c, 0, 64, 106
1, 416506, Control_c, 0, 64, 110
1, 416514, Note_off_c, 0, 84, 61
1, 416517, Note_off_c, 0, 41, 64
1, 416521, Control_c, 0, 64, 113
1, 416523, Note_on_c, 0, 47, 56
1, 416524, Note_on_c, 0, 80, 76
1, 416536, Control_c, 0, 64, 115
1, 416540, Note_off_c, 0, 83, 53
1, 416547, Note_off_c, 0, 43, 58
1, 416551, Control_c, 0, 64, 118
1, 416565, Control_c, 0, 64, 120
1, 416576, Note_off_c, 0, 47, 61
1, 416579, Note_off_c, 0, 80, 64
1, 416580, Control_c, 0, 64, 122
1, 416583, Note_on_c, 0, 36, 68
1, 416588, Note_on_c, 0, 79, 62
1, 416595, Control_c, 0, 64, 124
1, 416609, Control_c, 0, 64, 124
1, 416619, Note_off_c, 0, 79, 62
1, 416624, Control_c, 0, 64, 125
1, 416639, Control_c, 0, 64, 126
1, 416654, Control_c, 0, 64, 127
1, 416655, Note_on_c, 0, 77, 71
1, 416669, Control_c, 0, 64, 127
1, 416670, Note_on_c, 0, 41, 67
1, 416671, Note_on_c, 0, 38, 25
1, 416686, Note_off_c, 0, 36, 56
1, 416700, Note_on_c, 0, 43, 56
1, 416707, Note_on_c, 0, 75, 74
1, 416714, Note_off_c, 0, 38, 42
1, 416747, Note_off_c, 0, 77, 54
1, 416749, Note_off_c, 0, 41, 65
1, 416763, Note_on_c, 0, 47, 67
1, 416765, Control_c, 0, 64, 127
1, 416780, Control_c, 0, 64, 113
1, 416788, Note_on_c, 0, 74, 71
1, 416788, Note_off_c, 0, 75, 64
1, 416788, Note_off_c, 0, 43, 61
1, 416795, Control_c, 0, 64, 91
1, 416809, Control_c, 0, 64, 71
1, 416818, Note_on_c, 0, 36, 68
1, 416824, Control_c, 0, 64, 0
1, 416825, Note_off_c, 0, 47, 63
1, 416852, Note_on_c, 0, 75, 64
1, 416854, Note_off_c, 0, 74, 63
1, 416854, Control_c, 0, 64, 51
1, 416869, Control_c, 0, 64, 72
1, 416883, Control_c, 0, 64, 88
1, 416898, Control_c, 0, 64, 99
1, 416903, Note_on_c, 0, 41, 69
1, 416906, Note_on_c, 0, 38, 16
1, 416913, Control_c, 0, 64, 103
1, 416916, Note_on_c, 0, 77, 76
1, 416921, Note_on_c, 0, 43, 62
1, 416924, Note_off_c, 0, 36, 57
1, 416928, Control_c, 0, 64, 106
1, 416930, Note_off_c, 0, 75, 65
1, 416943, Control_c, 0, 64, 110
1, 416952, Note_off_c, 0, 38, 40
1, 416958, Control_c, 0, 64, 116
1, 416963, Note_off_c, 0, 77, 59
1, 416973, Control_c, 0, 64, 124
1, 416977, Note_off_c, 0, 41, 64
1, 416984, Note_on_c, 0, 79, 80
1, 416986, Note_on_c, 0, 47, 66
1, 416988, Control_c, 0, 64, 127
1, 417023, Note_off_c, 0, 79, 49
1, 417029, Note_off_c, 0, 43, 60
1, 417044, Note_on_c, 0, 81, 81
1, 417053, Note_on_c, 0, 36, 68
1, 417059, Note_off_c, 0, 47, 64
1, 417101, Note_on_c, 0, 83, 71
1, 417120, Note_off_c, 0, 81, 60
1, 417134, Note_on_c, 0, 41, 68
1, 417137, Note_on_c, 0, 38, 19
1, 417140, Note_on_c, 0, 84, 79
1, 417161, Note_off_c, 0, 36, 60
1, 417172, Note_on_c, 0, 43, 52
1, 417187, Note_off_c, 0, 38, 40
1, 417189, Note_off_c, 0, 83, 39
1, 417209, Note_off_c, 0, 41, 65
1, 417225, Note_on_c, 0, 86, 82
1, 417225, Control_c, 0, 64, 103
1, 417227, Note_off_c, 0, 84, 66
1, 417228, Note_on_c, 0, 47, 66
1, 417240, Control_c, 0, 64, 81
1, 417241, Note_off_c, 0, 43, 61
1, 417255, Control_c, 0, 64, 49
1, 417270, Control_c, 0, 64, 0
1, 417280, Note_on_c, 0, 36, 68
1, 417292, Note_off_c, 0, 47, 62
1, 417299, Note_on_c, 0, 84, 66
1, 417300, Control_c, 0, 64, 69
1, 417314, Control_c, 0, 64, 83
1, 417329, Control_c, 0, 64, 97
1, 417333, Note_on_c, 0, 38, 47
1, 417344, Note_off_c, 0, 86, 59
1, 417344, Control_c, 0, 64, 105
1, 417348, Note_on_c, 0, 83, 70
1, 417359, Control_c, 0, 64, 108
1, 417360, Note_on_c, 0, 41, 65
1, 417374, Control_c, 0, 64, 112
1, 417378, Note_on_c, 0, 43, 62
1, 417384, Note_off_c, 0, 38, 56
1, 417388, Control_c, 0, 64, 119
1, 417391, Note_off_c, 0, 36, 56
1, 417402, Note_off_c, 0, 84, 63
1, 417403, Control_c, 0, 64, 127
1, 417404, Note_on_c, 0, 80, 76
1, 417431, Note_off_c, 0, 83, 60
1, 417434, Note_off_c, 0, 41, 65
1, 417440, Note_on_c, 0, 47, 64
1, 417452, Note_off_c, 0, 43, 60
1, 417459, Note_on_c, 0, 79, 71
1, 417462, Note_off_c, 0, 80, 64
1, 417498, Note_off_c, 0, 79, 62
1, 417511, Note_on_c, 0, 36, 65
1, 417520, Note_off_c, 0, 47, 60
1, 417530, Note_on_c, 0, 77, 84
1, 417562, Note_on_c, 0, 41, 62
1, 417575, Note_on_c, 0, 75, 80
1, 417587, Note_off_c, 0, 77, 58
1, 417590, Note_on_c, 0, 43, 44
1, 417630, Note_on_c, 0, 74, 75
1, 417634, Note_off_c, 0, 75, 63
1, 417645, Note_off_c, 0, 41, 58
1, 417647, Note_on_c, 0, 47, 62
1, 417656, Note_off_c, 0, 36, 60
1, 417671, Note_off_c, 0, 43, 56
1, 417674, Note_off_c, 0, 74, 65
1, 417736, Control_c, 0, 64, 104
1, 417742, Note_off_c, 0, 47, 54
1, 417746, Note_on_c, 0, 88, 92
1, 417751, Control_c, 0, 64, 81
1, 417763, Note_on_c, 0, 36, 68
1, 417766, Control_c, 0, 64, 18
1, 417780, Control_c, 0, 64, 0
1, 417811, Control_c, 0, 64, 61
1, 417826, Control_c, 0, 64, 74
1, 417830, Note_on_c, 0, 86, 75
1, 417841, Control_c, 0, 64, 88
1, 417855, Control_c, 0, 64, 98
1, 417858, Note_off_c, 0, 88, 60
1, 417870, Control_c, 0, 64, 102
1, 417885, Control_c, 0, 64, 105
1, 417890, Note_on_c, 0, 84, 77
1, 417901, Control_c, 0, 64, 108
1, 417908, Note_on_c, 0, 46, 55
1, 417916, Control_c, 0, 64, 113
1, 417930, Control_c, 0, 64, 118
1, 417938, Note_on_c, 0, 48, 55
1, 417941, Note_on_c, 0, 43, 31
1, 417945, Control_c, 0, 64, 122
1, 417954, Note_on_c, 0, 82, 79
1, 417954, Note_off_c, 0, 86, 61
1, 417954, Note_off_c, 0, 36, 59
1, 417960, Control_c, 0, 64, 125
1, 417975, Control_c, 0, 64, 127
1, 417976, Note_off_c, 0, 48, 63
1, 417985, Note_off_c, 0, 84, 60
1, 418013, Note_on_c, 0, 81, 77
1, 418016, Note_off_c, 0, 46, 49
1, 418016, Note_off_c, 0, 82, 64
1, 418035, Note_on_c, 0, 36, 66
1, 418050, Note_off_c, 0, 43, 35
1, 418052, Note_off_c, 0, 81, 58
1, 418080, Note_on_c, 0, 79, 79
1, 418107, Note_on_c, 0, 40, 44
1, 418126, Note_on_c, 0, 43, 59
1, 418129, Note_on_c, 0, 77, 79
1, 418147, Note_off_c, 0, 36, 58
1, 418155, Note_on_c, 0, 46, 61
1, 418157, Note_off_c, 0, 40, 60
1, 418163, Note_off_c, 0, 79, 58
1, 418168, Control_c, 0, 64, 104
1, 418179, Note_on_c, 0, 48, 69
1, 418182, Control_c, 0, 64, 83
1, 418197, Control_c, 0, 64, 65
1, 418198, Note_on_c, 0, 76, 74
1, 418200, Note_off_c, 0, 77, 63
1, 418212, Control_c, 0, 64, 58
1, 418215, Note_off_c, 0, 48, 66
1, 418216, Note_off_c, 0, 43, 56
1, 418234, Control_c, 0, 64, 70
1, 418249, Control_c, 0, 64, 84
1, 418263, Control_c, 0, 64, 103
1, 418267, Note_off_c, 0, 46, 60
1, 418269, Note_on_c, 0, 36, 72
1, 418275, Note_on_c, 0, 77, 77
1, 418278, Note_off_c, 0, 76, 65
1, 418278, Control_c, 0, 64, 121
1, 418287, Note_on_c, 0, 40, 47
1, 418293, Control_c, 0, 64, 127
1, 418336, Note_on_c, 0, 79, 74
1, 418343, Note_on_c, 0, 43, 59
1, 418347, Note_off_c, 0, 77, 60
1, 418366, Note_off_c, 0, 79, 62
1, 418378, Note_off_c, 0, 36, 59
1, 418388, Note_on_c, 0, 46, 62
1, 418390, Note_off_c, 0, 40, 58
1, 418398, Note_on_c, 0, 81, 83
1, 418403, Note_on_c, 0, 48, 71
1, 418451, Note_off_c, 0, 48, 64
1, 418453, Note_off_c, 0, 81, 57
1, 418459, Note_on_c, 0, 82, 85
1, 418469, Note_off_c, 0, 43, 54
1, 418496, Note_off_c, 0, 46, 60
1, 418504, Note_on_c, 0, 36, 68
1, 418509, Note_on_c, 0, 84, 76
1, 418541, Note_on_c, 0, 40, 52
1, 418544, Note_off_c, 0, 82, 62
1, 418570, Note_on_c, 0, 86, 72
1, 418574, Note_on_c, 0, 43, 71
1, 418597, Note_off_c, 0, 84, 57
1, 418605, Control_c, 0, 64, 91
1, 418608, Note_off_c, 0, 36, 60
1, 418611, Note_off_c, 0, 40, 61
1, 418615, Note_on_c, 0, 46, 60
1, 418620, Control_c, 0, 64, 69
1, 418626, Note_on_c, 0, 48, 74
1, 418633, Note_on_c, 0, 88, 78
1, 418635, Control_c, 0, 64, 0
1, 418643, Note_off_c, 0, 86, 64
1, 418656, Note_off_c, 0, 43, 59
1, 418663, Note_off_c, 0, 48, 66
1, 418665, Control_c, 0, 64, 65
1, 418679, Control_c, 0, 64, 80
1, 418694, Control_c, 0, 64, 96
1, 418697, Note_on_c, 0, 86, 71
1, 418707, Note_off_c, 0, 46, 55
1, 418709, Control_c, 0, 64, 113
1, 418719, Note_on_c, 0, 36, 71
1, 418724, Control_c, 0, 64, 116
1, 418730, Note_off_c, 0, 88, 58
1, 418732, Note_on_c, 0, 40, 68
1, 418739, Control_c, 0, 64, 121
1, 418749, Note_on_c, 0, 84, 78
1, 418753, Control_c, 0, 64, 127
1, 418778, Note_on_c, 0, 43, 71
1, 418798, Note_on_c, 0, 82, 77
1, 418803, Note_off_c, 0, 86, 61
1, 418809, Note_off_c, 0, 36, 60
1, 418815, Note_on_c, 0, 46, 66
1, 418839, Note_off_c, 0, 84, 63
1, 418845, Note_off_c, 0, 40, 58
1, 418858, Note_on_c, 0, 81, 80
1, 418865, Note_off_c, 0, 82, 64
1, 418866, Note_on_c, 0, 48, 66
1, 418886, Note_off_c, 0, 81, 62
1, 418906, Note_off_c, 0, 43, 59
1, 418920, Note_on_c, 0, 79, 84
1, 418944, Note_off_c, 0, 46, 60
1, 418967, Note_on_c, 0, 77, 80
1, 419000, Note_off_c, 0, 79, 62
1, 419021, Note_on_c, 0, 76, 82
1, 419036, Note_off_c, 0, 77, 62
1, 419040, Note_off_c, 0, 48, 0
1, 419063, Note_off_c, 0, 76, 68
1, 419077, Poly_aftertouch_c, 0, 48, 127
1, 419100, Note_on_c, 0, 36, 58
1, 419116, Control_c, 0, 64, 124
1, 419119, Poly_aftertouch_c, 0, 48, 0
1, 419131, Control_c, 0, 64, 92
1, 419134, Note_on_c, 0, 89, 91
1, 419146, Control_c, 0, 64, 68
1, 419161, Control_c, 0, 64, 0
1, 419187, Note_on_c, 0, 41, 64
1, 419190, Control_c, 0, 64, 63
1, 419205, Control_c, 0, 64, 77
1, 419215, Note_on_c, 0, 88, 78
1, 419217, Note_off_c, 0, 36, 56
1, 419220, Control_c, 0, 64, 90
1, 419235, Control_c, 0, 64, 101
1, 419249, Note_off_c, 0, 89, 63
1, 419250, Control_c, 0, 64, 105
1, 419256, Note_on_c, 0, 45, 74
1, 419265, Control_c, 0, 64, 108
1, 419274, Note_on_c, 0, 86, 79
1, 419279, Control_c, 0, 64, 113
1, 419292, Note_off_c, 0, 41, 64
1, 419294, Control_c, 0, 64, 119
1, 419298, Note_off_c, 0, 88, 63
1, 419309, Control_c, 0, 64, 125
1, 419321, Note_on_c, 0, 48, 67
1, 419322, Note_off_c, 0, 45, 64
1, 419324, Control_c, 0, 64, 127
1, 419330, Note_on_c, 0, 84, 80
1, 419332, Note_off_c, 0, 86, 64
1, 419379, Note_off_c, 0, 84, 66
1, 419391, Note_on_c, 0, 36, 77
1, 419399, Note_off_c, 0, 48, 63
1, 419409, Note_on_c, 0, 82, 81
1, 419462, Note_on_c, 0, 81, 77
1, 419471, Note_on_c, 0, 41, 71
1, 419476, Note_off_c, 0, 36, 60
1, 419504, Note_on_c, 0, 45, 72
1, 419524, Note_on_c, 0, 79, 79
1, 419524, Note_off_c, 0, 82, 61
1, 419547, Note_off_c, 0, 41, 65
1, 419560, Note_off_c, 0, 81, 59
1, 419575, Note_on_c, 0, 48, 73
1, 419581, Note_off_c, 0, 45, 64
1, 419596, Note_on_c, 0, 77, 83
1, 419602, Note_off_c, 0, 79, 63
1, 419620, Control_c, 0, 64, 96
1, 419626, Note_on_c, 0, 36, 80
1, 419635, Control_c, 0, 64, 73
1, 419639, Note_off_c, 0, 48, 66
1, 419649, Control_c, 0, 64, 0
1, 419671, Note_on_c, 0, 79, 81
1, 419679, Control_c, 0, 64, 66
1, 419682, Note_off_c, 0, 77, 57
1, 419694, Control_c, 0, 64, 84
1, 419709, Control_c, 0, 64, 106
1, 419712, Note_on_c, 0, 41, 75
1, 419730, Note_off_c, 0, 36, 59
1, 419731, Control_c, 0, 64, 127
1, 419733, Note_on_c, 0, 81, 79
1, 419743, Note_on_c, 0, 45, 77
1, 419770, Note_off_c, 0, 79, 57
1, 419790, Note_off_c, 0, 41, 65
1, 419790, Note_on_c, 0, 82, 71
1, 419806, Note_off_c, 0, 81, 61
1, 419813, Note_off_c, 0, 82, 69
1, 419815, Note_on_c, 0, 48, 75
1, 419828, Note_off_c, 0, 45, 63
1, 419837, Note_on_c, 0, 84, 84
1, 419882, Note_off_c, 0, 84, 57
1, 419891, Note_on_c, 0, 36, 76
1, 419892, Note_off_c, 0, 48, 62
1, 419906, Note_on_c, 0, 86, 86
1, 419954, Note_on_c, 0, 88, 78
1, 419965, Note_on_c, 0, 41, 68
1, 419976, Note_off_c, 0, 36, 61
1, 419983, Note_on_c, 0, 45, 75
1, 420001, Note_off_c, 0, 86, 64
1, 420025, Note_off_c, 0, 41, 65
1, 420034, Note_on_c, 0, 89, 86
1, 420041, Note_off_c, 0, 88, 64
1, 420042, Control_c, 0, 64, 118
1, 420049, Note_on_c, 0, 48, 81
1, 420057, Control_c, 0, 64, 89
1, 420061, Note_off_c, 0, 45, 63
1, 420072, Control_c, 0, 64, 65
1, 420087, Control_c, 0, 64, 0
1, 420098, Note_on_c, 0, 88, 78
1, 420105, Note_off_c, 0, 48, 61
1, 420113, Note_on_c, 0, 36, 76
1, 420116, Control_c, 0, 64, 66
1, 420131, Control_c, 0, 64, 87
1, 420146, Control_c, 0, 64, 108
1, 420147, Note_off_c, 0, 89, 63
1, 420160, Control_c, 0, 64, 125
1, 420167, Note_on_c, 0, 86, 74
1, 420175, Control_c, 0, 64, 127
1, 420182, Note_on_c, 0, 41, 68
1, 420196, Note_off_c, 0, 36, 60
1, 420198, Note_off_c, 0, 88, 62
1, 420204, Note_on_c, 0, 45, 75
1, 420215, Note_on_c, 0, 84, 75
1, 420222, Note_off_c, 0, 86, 65
1, 420244, Note_off_c, 0, 41, 65
1, 420261, Note_off_c, 0, 84, 60
1, 420268, Note_on_c, 0, 48, 73
1, 420278, Note_off_c, 0, 45, 63
1, 420288, Note_on_c, 0, 82, 82
1, 420339, Note_on_c, 0, 81, 78
1, 420350, Note_on_c, 0, 36, 67
1, 420350, Note_off_c, 0, 48, 61
1, 420377, Note_on_c, 0, 41, 64
1, 420385, Note_on_c, 0, 79, 82
1, 420401, Note_off_c, 0, 82, 62
1, 420410, Note_on_c, 0, 45, 68
1, 420416, Note_off_c, 0, 81, 62
1, 420438, Note_on_c, 0, 77, 76
1, 420439, Note_off_c, 0, 36, 56
1, 420440, Note_off_c, 0, 41, 63
1, 420445, Note_off_c, 0, 79, 63
1, 420484, Note_on_c, 0, 48, 59
1, 420488, Note_off_c, 0, 77, 61
1, 420490, Note_off_c, 0, 45, 63
1, 420539, Control_c, 0, 64, 113
1, 420549, Note_off_c, 0, 48, 54
1, 420554, Control_c, 0, 64, 85
1, 420556, Note_on_c, 0, 36, 80
1, 420556, Note_on_c, 0, 90, 92
1, 420569, Control_c, 0, 64, 52
1, 420583, Control_c, 0, 64, 0
1, 420613, Control_c, 0, 64, 68
1, 420628, Control_c, 0, 64, 84
1, 420643, Control_c, 0, 64, 102
1, 420648, Note_on_c, 0, 87, 75
1, 420657, Control_c, 0, 64, 113
1, 420672, Control_c, 0, 64, 115
1, 420673, Note_on_c, 0, 39, 62
1, 420687, Control_c, 0, 64, 119
1, 420702, Note_on_c, 0, 42, 67
1, 420702, Control_c, 0, 64, 127
1, 420709, Note_off_c, 0, 90, 55
1, 420713, Note_off_c, 0, 36, 59
1, 420714, Note_on_c, 0, 86, 77
1, 420726, Note_on_c, 0, 45, 52
1, 420734, Note_off_c, 0, 39, 59
1, 420755, Note_off_c, 0, 87, 62
1, 420768, Note_on_c, 0, 48, 69
1, 420776, Note_off_c, 0, 42, 63
1, 420779, Note_on_c, 0, 84, 76
1, 420779, Note_off_c, 0, 86, 61
1, 420805, Note_off_c, 0, 45, 63
1, 420813, Note_off_c, 0, 48, 64
1, 420828, Note_off_c, 0, 84, 64
1, 420842, Note_on_c, 0, 36, 74
1, 420851, Note_on_c, 0, 82, 81
1, 420903, Note_on_c, 0, 81, 70
1, 420905, Note_on_c, 0, 39, 38
1, 420925, Note_on_c, 0, 42, 66
1, 420947, Note_off_c, 0, 39, 60
1, 420952, Note_off_c, 0, 82, 60
1, 420955, Note_off_c, 0, 36, 57
1, 420958, Note_on_c, 0, 79, 80
1, 420958, Note_on_c, 0, 45, 56
1, 420961, Note_off_c, 0, 81, 63
1, 420990, Note_on_c, 0, 48, 69
1, 420994, Note_off_c, 0, 42, 63
1, 421009, Note_off_c, 0, 79, 55
1, 421026, Note_off_c, 0, 48, 63
1, 421034, Note_on_c, 0, 78, 84
1, 421034, Note_off_c, 0, 45, 64
1, 421059, Control_c, 0, 64, 109
1, 421066, Note_on_c, 0, 36, 76
1, 421073, Control_c, 0, 64, 89
1, 421088, Control_c, 0, 64, 81
1, 421101, Note_off_c, 0, 78, 62
1, 421103, Control_c, 0, 64, 82
1, 421109, Note_on_c, 0, 39, 48
1, 421110, Note_on_c, 0, 79, 82
1, 421118, Control_c, 0, 64, 89
1, 421133, Control_c, 0, 64, 101
1, 421142, Note_on_c, 0, 42, 69
1, 421147, Control_c, 0, 64, 119
1, 421162, Control_c, 0, 64, 127
1, 421166, Note_on_c, 0, 45, 59
1, 421170, Note_off_c, 0, 36, 59
1, 421173, Note_on_c, 0, 81, 82
1, 421173, Note_off_c, 0, 39, 60
1, 421173, Note_off_c, 0, 79, 62
1, 421204, Note_on_c, 0, 48, 71
1, 421227, Note_off_c, 0, 42, 63
1, 421228, Note_on_c, 0, 82, 76
1, 421239, Note_off_c, 0, 81, 59
1, 421268, Note_off_c, 0, 82, 64
1, 421274, Note_off_c, 0, 48, 61
1, 421277, Note_off_c, 0, 45, 62
1, 421293, Note_on_c, 0, 84, 76
1, 421301, Note_on_c, 0, 36, 70
1, 421357, Note_on_c, 0, 39, 51
1, 421358, Note_on_c, 0, 86, 82
1, 421361, Note_off_c, 0, 84, 64
1, 421374, Note_on_c, 0, 42, 71
1, 421396, Note_on_c, 0, 87, 71
1, 421405, Note_off_c, 0, 36, 59
1, 421411, Note_off_c, 0, 39, 60
1, 421413, Note_on_c, 0, 45, 60
1, 421427, Note_off_c, 0, 86, 62
1, 421444, Note_on_c, 0, 48, 78
1, 421450, Note_off_c, 0, 42, 63
1, 421456, Note_on_c, 0, 90, 84
1, 421466, Control_c, 0, 64, 106
1, 421468, Note_off_c, 0, 87, 62
1, 421474, Note_off_c, 0, 45, 63
1, 421480, Control_c, 0, 64, 75
1, 421495, Control_c, 0, 64, 0
1, 421502, Note_off_c, 0, 48, 63
1, 421513, Note_on_c, 0, 36, 75
1, 421525, Note_on_c, 0, 87, 65
1, 421525, Control_c, 0, 64, 58
1, 421540, Control_c, 0, 64, 76
1, 421554, Control_c, 0, 64, 94
1, 421556, Note_on_c, 0, 39, 56
1, 421569, Control_c, 0, 64, 116
1, 421574, Note_on_c, 0, 42, 76
1, 421578, Note_on_c, 0, 86, 73
1, 421583, Note_off_c, 0, 90, 60
1, 421584, Control_c, 0, 64, 120
1, 421599, Control_c, 0, 64, 124
1, 421611, Note_off_c, 0, 39, 58
1, 421614, Control_c, 0, 64, 127
1, 421621, Note_off_c, 0, 87, 62
1, 421625, Note_off_c, 0, 36, 61
1, 421626, Note_on_c, 0, 45, 54
1, 421639, Note_on_c, 0, 84, 76
1, 421640, Note_off_c, 0, 86, 63
1, 421654, Note_on_c, 0, 48, 69
1, 421662, Note_off_c, 0, 42, 63
1, 421677, Note_off_c, 0, 84, 61
1, 421713, Note_on_c, 0, 82, 83
1, 421722, Note_on_c, 0, 36, 69
1, 421724, Note_off_c, 0, 48, 65
1, 421757, Note_off_c, 0, 45, 0
1, 421764, Note_on_c, 0, 39, 35
1, 421766, Note_on_c, 0, 42, 68
1, 421777, Note_on_c, 0, 81, 68
1, 421783, Note_off_c, 0, 82, 63
1, 421796, Note_on_c, 0, 45, 25
1, 421807, Note_off_c, 0, 81, 64
1, 421814, Note_on_c, 0, 79, 74
1, 421823, Note_off_c, 0, 39, 40
1, 421862, Note_on_c, 0, 48, 60
1, 421883, Note_on_c, 0, 78, 91
1, 421892, Note_off_c, 0, 36, 61
1, 421901, Note_off_c, 0, 79, 61
1, 421920, Note_off_c, 0, 78, 66
1, 421923, Note_off_c, 0, 42, 49
1, 421937, Note_off_c, 0, 48, 61
1, 421964, Note_off_c, 0, 45, 38
1, 421993, Control_c, 0, 64, 116
1, 422001, Note_on_c, 0, 36, 85
1, 422007, Note_on_c, 0, 91, 91
1, 422008, Control_c, 0, 64, 89
1, 422022, Control_c, 0, 64, 65
1, 422025, Note_on_c, 0, 89, 58
1, 422037, Control_c, 0, 64, 0
1, 422045, Note_off_c, 0, 89, 40
1, 422067, Control_c, 0, 64, 64
1, 422082, Control_c, 0, 64, 77
1, 422090, Note_on_c, 0, 89, 64
1, 422097, Control_c, 0, 64, 92
1, 422112, Control_c, 0, 64, 104
1, 422120, Note_on_c, 0, 40, 56
1, 422125, Note_off_c, 0, 91, 57
1, 422127, Control_c, 0, 64, 107
1, 422137, Note_on_c, 0, 43, 66
1, 422142, Control_c, 0, 64, 111
1, 422153, Note_on_c, 0, 88, 67
1, 422156, Note_off_c, 0, 36, 57
1, 422156, Control_c, 0, 64, 121
1, 422171, Control_c, 0, 64, 127
1, 422177, Note_on_c, 0, 46, 65
1, 422183, Note_off_c, 0, 40, 58
1, 422195, Note_off_c, 0, 89, 64
1, 422208, Note_on_c, 0, 48, 58
1, 422223, Note_on_c, 0, 86, 80
1, 422224, Note_off_c, 0, 88, 63
1, 422237, Note_off_c, 0, 48, 66
1, 422243, Note_off_c, 0, 43, 57
1, 422253, Note_off_c, 0, 86, 62
1, 422276, Note_off_c, 0, 46, 49
1, 422286, Note_on_c, 0, 36, 67
1, 422295, Note_on_c, 0, 84, 83
1, 422307, Note_on_c, 0, 40, 60
1, 422346, Note_on_c, 0, 82, 79
1, 422350, Note_on_c, 0, 43, 71
1, 422371, Note_off_c, 0, 36, 60
1, 422383, Note_on_c, 0, 46, 68
1, 422407, Note_off_c, 0, 40, 57
1, 422407, Note_on_c, 0, 80, 83
1, 422414, Note_off_c, 0, 84, 62
1, 422453, Note_off_c, 0, 43, 60
1, 422457, Note_off_c, 0, 82, 60
1, 422464, Note_on_c, 0, 48, 73
1, 422471, Note_on_c, 0, 79, 79
1, 422487, Note_off_c, 0, 80, 63
1, 422494, Note_off_c, 0, 46, 61
1, 422556, Control_c, 0, 64, 127
1, 422571, Control_c, 0, 64, 94
1, 422575, Note_on_c, 0, 36, 86
1, 422580, Note_off_c, 0, 48, 47
1, 422585, Note_on_c, 0, 80, 88
1, 422586, Control_c, 0, 64, 69
1, 422601, Control_c, 0, 64, 0
1, 422608, Note_off_c, 0, 79, 60
1, 422645, Control_c, 0, 64, 64
1, 422660, Control_c, 0, 64, 78
1, 422675, Control_c, 0, 64, 93
1, 422684, Note_on_c, 0, 82, 84
1, 422690, Control_c, 0, 64, 104
1, 422695, Note_on_c, 0, 41, 73
1, 422698, Note_off_c, 0, 80, 60
1, 422705, Control_c, 0, 64, 107
1, 422727, Control_c, 0, 64, 112
1, 422742, Control_c, 0, 64, 118
1, 422747, Note_off_c, 0, 36, 59
1, 422757, Control_c, 0, 64, 127
1, 422762, Note_off_c, 0, 82, 65
1, 422763, Note_on_c, 0, 44, 71
1, 422794, Note_on_c, 0, 84, 83
1, 422801, Note_off_c, 0, 41, 65
1, 422830, Note_on_c, 0, 48, 64
1, 422851, Note_off_c, 0, 44, 61
1, 422856, Note_off_c, 0, 84, 62
1, 422859, Note_on_c, 0, 86, 80
1, 422907, Note_on_c, 0, 36, 70
1, 422915, Note_off_c, 0, 48, 64
1, 422926, Note_on_c, 0, 88, 81
1, 422932, Note_off_c, 0, 86, 63
1, 422967, Note_off_c, 0, 88, 65
1, 422991, Note_on_c, 0, 41, 64
1, 422999, Note_off_c, 0, 36, 60
1, 423000, Note_on_c, 0, 89, 82
1, 423032, Note_on_c, 0, 44, 68
1, 423060, Note_on_c, 0, 91, 85
1, 423060, Note_off_c, 0, 41, 64
1, 423063, Note_off_c, 0, 89, 65
1, 423089, Note_on_c, 0, 48, 70
1, 423098, Control_c, 0, 64, 102
1, 423113, Control_c, 0, 64, 77
1, 423115, Note_on_c, 0, 92, 84
1, 423121, Note_off_c, 0, 44, 62
1, 423123, Note_off_c, 0, 91, 53
1, 423127, Control_c, 0, 64, 63
1, 423142, Control_c, 0, 64, 66
1, 423149, Note_on_c, 0, 36, 74
1, 423157, Control_c, 0, 64, 77
1, 423158, Note_off_c, 0, 48, 64
1, 423171, Control_c, 0, 64, 96
1, 423186, Control_c, 0, 64, 123
1, 423189, Note_on_c, 0, 91, 76
1, 423201, Control_c, 0, 64, 127
1, 423227, Note_off_c, 0, 92, 63
1, 423230, Note_on_c, 0, 41, 68
1, 423254, Note_off_c, 0, 91, 60
1, 423256, Note_on_c, 0, 89, 73
1, 423260, Note_off_c, 0, 36, 59
1, 423269, Note_on_c, 0, 44, 63
1, 423284, Note_off_c, 0, 89, 66
1, 423316, Note_off_c, 0, 41, 62
1, 423317, Note_on_c, 0, 88, 80
1, 423328, Note_on_c, 0, 48, 64
1, 423381, Note_off_c, 0, 44, 61
1, 423385, Note_on_c, 0, 86, 75
1, 423396, Note_on_c, 0, 36, 72
1, 423403, Note_off_c, 0, 88, 59
1, 423409, Note_off_c, 0, 48, 65
1, 423427, Note_off_c, 0, 86, 62
1, 423438, Note_on_c, 0, 84, 65
1, 423479, Note_on_c, 0, 41, 61
1, 423490, Note_off_c, 0, 84, 63
1, 423512, Note_on_c, 0, 44, 61
1, 423515, Note_off_c, 0, 36, 59
1, 423516, Note_on_c, 0, 82, 80
1, 423559, Note_on_c, 0, 48, 62
1, 423583, Note_off_c, 0, 82, 60
1, 423592, Note_on_c, 0, 81, 56
1, 423619, Note_off_c, 0, 81, 63
1, 423638, Note_off_c, 0, 41, 37
1, 423646, Note_off_c, 0, 48, 56
1, 423654, Control_c, 0, 64, 112
1, 423656, Note_on_c, 0, 83, 71
1, 423656, Note_on_c, 0, 36, 73
1, 423659, Note_off_c, 0, 44, 58
1, 423668, Control_c, 0, 64, 85
1, 423683, Control_c, 0, 64, 34
1, 423698, Control_c, 0, 64, 0
1, 423728, Note_on_c, 0, 80, 78
1, 423728, Control_c, 0, 64, 60
1, 423742, Control_c, 0, 64, 74
1, 423753, Note_on_c, 0, 38, 54
1, 423757, Control_c, 0, 64, 88
1, 423769, Note_off_c, 0, 83, 58
1, 423772, Control_c, 0, 64, 102
1, 423774, Note_on_c, 0, 41, 66
1, 423787, Control_c, 0, 64, 107
1, 423790, Note_off_c, 0, 36, 53
1, 423799, Note_on_c, 0, 79, 71
1, 423802, Control_c, 0, 64, 110
1, 423817, Control_c, 0, 64, 115
1, 423817, Note_on_c, 0, 44, 58
1, 423822, Note_off_c, 0, 38, 59
1, 423832, Control_c, 0, 64, 123
1, 423842, Note_off_c, 0, 80, 62
1, 423847, Control_c, 0, 64, 127
1, 423856, Note_off_c, 0, 79, 60
1, 423860, Note_on_c, 0, 77, 76
1, 423867, Note_on_c, 0, 47, 66
1, 423870, Note_off_c, 0, 41, 64
1, 423912, Note_off_c, 0, 44, 62
1, 423914, Note_off_c, 0, 77, 61
1, 423930, Note_on_c, 0, 36, 70
1, 423938, Note_on_c, 0, 75, 76
1, 423942, Note_off_c, 0, 47, 63
1, 423964, Note_on_c, 0, 38, 49
1, 423986, Note_on_c, 0, 74, 70
1, 424010, Note_on_c, 0, 41, 65
1, 424043, Note_off_c, 0, 75, 62
1, 424047, Note_off_c, 0, 36, 60
1, 424048, Note_on_c, 0, 44, 71
1, 424055, Note_off_c, 0, 38, 55
1, 424059, Note_on_c, 0, 72, 76
1, 424063, Note_off_c, 0, 74, 65
1, 424095, Note_off_c, 0, 41, 65
1, 424113, Note_on_c, 0, 47, 66
1, 424129, Note_off_c, 0, 44, 63
1, 424139, Note_off_c, 0, 72, 55
1, 424145, Note_on_c, 0, 71, 74
1, 424160, Note_on_c, 0, 36, 75
1, 424172, Control_c, 0, 64, 117
1, 424178, Note_off_c, 0, 47, 63
1, 424186, Control_c, 0, 64, 93
1, 424193, Note_on_c, 0, 38, 60
1, 424202, Control_c, 0, 64, 77
1, 424219, Note_off_c, 0, 71, 59
1, 424224, Control_c, 0, 64, 73
1, 424233, Note_on_c, 0, 72, 73
1, 424239, Control_c, 0, 64, 77
1, 424245, Note_on_c, 0, 41, 68
1, 424254, Control_c, 0, 64, 89
1, 424269, Control_c, 0, 64, 104
1, 424280, Note_on_c, 0, 44, 74
1, 424284, Control_c, 0, 64, 118
1, 424285, Note_off_c, 0, 36, 62
1, 424294, Note_off_c, 0, 38, 60
1, 424298, Note_off_c, 0, 72, 63
1, 424298, Control_c, 0, 64, 127
1, 424301, Note_on_c, 0, 74, 76
1, 424313, Control_c, 0, 64, 127
1, 424341, Note_off_c, 0, 41, 65
1, 424347, Note_on_c, 0, 47, 70
1, 424361, Note_on_c, 0, 75, 71
1, 424384, Note_off_c, 0, 74, 61
1, 424395, Note_off_c, 0, 44, 63
1, 424409, Note_off_c, 0, 75, 65
1, 424413, Note_on_c, 0, 36, 76
1, 424428, Note_off_c, 0, 47, 64
1, 424438, Note_on_c, 0, 38, 60
1, 424439, Note_on_c, 0, 77, 79
1, 424487, Note_on_c, 0, 41, 69
1, 424498, Note_off_c, 0, 77, 60
1, 424499, Note_on_c, 0, 79, 77
1, 424513, Note_on_c, 0, 44, 77
1, 424524, Note_off_c, 0, 36, 60
1, 424526, Note_off_c, 0, 38, 60
1, 424566, Note_on_c, 0, 80, 33
1, 424577, Note_on_c, 0, 81, 66
1, 424577, Note_off_c, 0, 41, 64
1, 424580, Note_on_c, 0, 47, 76
1, 424604, Note_off_c, 0, 79, 56
1, 424610, Control_c, 0, 64, 113
1, 424615, Note_off_c, 0, 44, 63
1, 424624, Control_c, 0, 64, 88
1, 424631, Note_on_c, 0, 36, 77
1, 424631, Note_on_c, 0, 83, 55
1, 424634, Note_off_c, 0, 80, 41
1, 424636, Note_off_c, 0, 81, 63
1, 424640, Control_c, 0, 64, 65
1, 424647, Note_on_c, 0, 84, 21
1, 424651, Note_off_c, 0, 83, 61
1, 424654, Control_c, 0, 64, 48
1, 424655, Note_off_c, 0, 47, 64
1, 424656, Note_on_c, 0, 38, 62
1, 424669, Control_c, 0, 64, 67
1, 424681, Note_off_c, 0, 84, 0
1, 424681, Note_on_c, 0, 84, 31
1, 424684, Control_c, 0, 64, 81
1, 424697, Note_on_c, 0, 41, 73
1, 424699, Control_c, 0, 64, 100
1, 424714, Control_c, 0, 64, 124
1, 424729, Control_c, 0, 64, 127
1, 424731, Note_on_c, 0, 44, 74
1, 424739, Note_on_c, 0, 86, 82
1, 424740, Note_off_c, 0, 84, 66
1, 424744, Note_off_c, 0, 36, 61
1, 424756, Note_off_c, 0, 38, 61
1, 424780, Note_on_c, 0, 87, 79
1, 424790, Note_on_c, 0, 47, 76
1, 424806, Note_off_c, 0, 86, 63
1, 424814, Note_off_c, 0, 41, 65
1, 424828, Note_off_c, 0, 87, 66
1, 424845, Note_off_c, 0, 44, 63
1, 424852, Note_on_c, 0, 89, 82
1, 424860, Note_on_c, 0, 36, 66
1, 424883, Note_on_c, 0, 38, 60
1, 424886, Note_off_c, 0, 47, 52
1, 424908, Note_on_c, 0, 41, 66
1, 424912, Note_on_c, 0, 91, 92
1, 424930, Note_off_c, 0, 89, 62
1, 424950, Note_on_c, 0, 47, 70
1, 424953, Note_on_c, 0, 44, 60
1, 424974, Note_on_c, 0, 93, 82
1, 424986, Note_off_c, 0, 44, 68
1, 424989, Note_off_c, 0, 41, 67
1, 425012, Note_off_c, 0, 38, 60
1, 425016, Note_on_c, 0, 95, 90
1, 425018, Note_off_c, 0, 91, 61
1, 425031, Note_off_c, 0, 47, 53
1, 425032, Note_off_c, 0, 36, 57
1, 425044, Note_off_c, 0, 93, 63
1, 425122, Control_c, 0, 64, 90
1, 425137, Control_c, 0, 64, 62
1, 425152, Note_on_c, 0, 39, 37
1, 425152, Control_c, 0, 64, 0
1, 425154, Note_on_c, 0, 96, 100
1, 425155, Note_on_c, 0, 43, 63
1, 425158, Note_on_c, 0, 48, 101
1, 425165, Note_on_c, 0, 36, 79
1, 425179, Note_off_c, 0, 95, 66
1, 425194, Note_off_c, 0, 36, 65
1, 425196, Note_off_c, 0, 43, 66
1, 425196, Control_c, 0, 64, 60
1, 425197, Note_off_c, 0, 48, 67
1, 425206, Note_off_c, 0, 39, 64
1, 425211, Control_c, 0, 64, 78
1, 425226, Control_c, 0, 64, 93
1, 425241, Control_c, 0, 64, 104
1, 425255, Control_c, 0, 64, 106
1, 425270, Control_c, 0, 64, 107
1, 425285, Control_c, 0, 64, 109
1, 425289, Note_on_c, 0, 91, 72
1, 425300, Control_c, 0, 64, 115
1, 425301, Note_on_c, 0, 93, 54
1, 425315, Control_c, 0, 64, 126
1, 425323, Note_off_c, 0, 93, 49
1, 425329, Control_c, 0, 64, 127
1, 425342, Note_off_c, 0, 96, 58
1, 425367, Note_off_c, 0, 91, 61
1, 425373, Note_on_c, 0, 89, 74
1, 425422, Note_off_c, 0, 89, 65
1, 425455, Note_on_c, 0, 63, 91
1, 425457, Note_on_c, 0, 67, 81
1, 425461, Note_on_c, 0, 87, 84
1, 425462, Control_c, 0, 64, 114
1, 425477, Control_c, 0, 64, 95
1, 425477, Note_off_c, 0, 67, 70
1, 425492, Control_c, 0, 64, 74
1, 425496, Note_off_c, 0, 63, 62
1, 425507, Control_c, 0, 64, 24
1, 425521, Control_c, 0, 64, 0
1, 425537, Note_on_c, 0, 86, 78
1, 425570, Note_off_c, 0, 87, 59
1, 425599, Note_on_c, 0, 84, 72
1, 425602, Note_off_c, 0, 86, 63
1, 425676, Note_on_c, 0, 60, 83
1, 425677, Note_on_c, 0, 87, 83
1, 425683, Note_on_c, 0, 63, 84
1, 425700, Note_off_c, 0, 84, 61
1, 425723, Note_off_c, 0, 60, 65
1, 425732, Note_off_c, 0, 63, 64
1, 425760, Note_on_c, 0, 91, 82
1, 425768, Note_off_c, 0, 87, 62
1, 425853, Note_on_c, 0, 89, 73
1, 425891, Note_off_c, 0, 91, 59
1, 425918, Note_on_c, 0, 63, 77
1, 425924, Note_on_c, 0, 87, 78
1, 425928, Note_on_c, 0, 67, 69
1, 425944, Control_c, 0, 64, 13
1, 425946, Note_off_c, 0, 63, 70
1, 425955, Note_off_c, 0, 67, 65
1, 425959, Control_c, 0, 64, 25
1, 425973, Note_off_c, 0, 89, 62
1, 425994, Note_on_c, 0, 86, 77
1, 426003, Control_c, 0, 64, 24
1, 426018, Control_c, 0, 64, 25
1, 426033, Control_c, 0, 64, 26
1, 426036, Note_off_c, 0, 87, 57
1, 426061, Note_on_c, 0, 84, 76
1, 426063, Control_c, 0, 64, 24
1, 426069, Note_off_c, 0, 86, 63
1, 426077, Control_c, 0, 64, 23
1, 426107, Control_c, 0, 64, 24
1, 426143, Note_on_c, 0, 87, 80
1, 426146, Note_on_c, 0, 60, 76
1, 426150, Note_on_c, 0, 63, 84
1, 426151, Control_c, 0, 64, 26
1, 426163, Note_off_c, 0, 84, 61
1, 426166, Control_c, 0, 64, 29
1, 426168, Note_off_c, 0, 60, 66
1, 426184, Note_off_c, 0, 63, 65
1, 426195, Control_c, 0, 64, 30
1, 426210, Control_c, 0, 64, 31
1, 426219, Note_on_c, 0, 91, 78
1, 426225, Control_c, 0, 64, 32
1, 426229, Note_off_c, 0, 87, 63
1, 426284, Control_c, 0, 64, 34
1, 426299, Control_c, 0, 64, 39
1, 426310, Note_on_c, 0, 89, 72
1, 426313, Control_c, 0, 64, 42
1, 426328, Control_c, 0, 64, 45
1, 426343, Control_c, 0, 64, 46
1, 426351, Note_off_c, 0, 91, 58
1, 426358, Control_c, 0, 64, 47
1, 426372, Note_on_c, 0, 63, 68
1, 426374, Note_on_c, 0, 87, 73
1, 426379, Note_on_c, 0, 67, 75
1, 426387, Control_c, 0, 64, 47
1, 426401, Note_off_c, 0, 67, 69
1, 426402, Control_c, 0, 64, 48
1, 426405, Note_off_c, 0, 63, 67
1, 426444, Note_on_c, 0, 86, 75
1, 426446, Note_off_c, 0, 89, 61
1, 426447, Control_c, 0, 64, 47
1, 426505, Note_off_c, 0, 87, 58
1, 426515, Note_on_c, 0, 84, 73
1, 426520, Note_off_c, 0, 86, 63
1, 426528, Control_c, 0, 64, 46
1, 426543, Control_c, 0, 64, 46
1, 426571, Note_off_c, 0, 84, 64
1, 426573, Control_c, 0, 64, 44
1, 426589, Control_c, 0, 64, 42
1, 426604, Control_c, 0, 64, 39
1, 426604, Note_on_c, 0, 62, 94
1, 426607, Note_on_c, 0, 55, 78
1, 426609, Note_on_c, 0, 83, 83
1, 426618, Control_c, 0, 64, 38
1, 426633, Control_c, 0, 64, 36
1, 426637, Note_off_c, 0, 55, 66
1, 426637, Note_off_c, 0, 62, 66
1, 426689, Note_on_c, 0, 86, 74
1, 426692, Control_c, 0, 64, 38
1, 426693, Note_off_c, 0, 83, 61
1, 426737, Control_c, 0, 64, 37
1, 426752, Control_c, 0, 64, 38
1, 426766, Control_c, 0, 64, 39
1, 426780, Note_on_c, 0, 84, 71
1, 426781, Control_c, 0, 64, 41
1, 426796, Control_c, 0, 64, 43
1, 426811, Control_c, 0, 64, 45
1, 426813, Note_off_c, 0, 86, 61
1, 426825, Control_c, 0, 64, 48
1, 426840, Control_c, 0, 64, 50
1, 426846, Note_on_c, 0, 65, 83
1, 426848, Note_on_c, 0, 83, 78
1, 426851, Note_on_c, 0, 62, 79
1, 426867, Note_off_c, 0, 65, 72
1, 426873, Note_off_c, 0, 62, 66
1, 426899, Control_c, 0, 64, 49
1, 426901, Note_off_c, 0, 84, 60
1, 426914, Control_c, 0, 64, 49
1, 426917, Note_on_c, 0, 81, 83
1, 426929, Control_c, 0, 64, 48
1, 426948, Note_off_c, 0, 83, 60
1, 426959, Control_c, 0, 64, 49
1, 426993, Note_on_c, 0, 79, 79
1, 427000, Note_off_c, 0, 81, 62
1, 427018, Control_c, 0, 64, 50
1, 427033, Control_c, 0, 64, 51
1, 427063, Control_c, 0, 64, 51
1, 427076, Note_on_c, 0, 62, 94
1, 427082, Note_on_c, 0, 83, 81
1, 427082, Note_on_c, 0, 55, 75
1, 427085, Note_off_c, 0, 79, 38
1, 427104, Note_off_c, 0, 62, 67
1, 427113, Note_off_c, 0, 55, 65
1, 427151, Control_c, 0, 64, 51
1, 427161, Note_on_c, 0, 86, 78
1, 427167, Note_off_c, 0, 83, 62
1, 427248, Control_c, 0, 64, 52
1, 427256, Note_on_c, 0, 84, 73
1, 427263, Control_c, 0, 64, 54
1, 427278, Control_c, 0, 64, 55
1, 427280, Note_off_c, 0, 86, 60
1, 427324, Note_on_c, 0, 83, 74
1, 427331, Note_on_c, 0, 65, 80
1, 427331, Note_on_c, 0, 62, 76
1, 427351, Control_c, 0, 64, 55
1, 427352, Note_off_c, 0, 65, 72
1, 427356, Note_off_c, 0, 62, 68
1, 427372, Note_off_c, 0, 84, 61
1, 427395, Note_on_c, 0, 81, 77
1, 427420, Note_off_c, 0, 83, 57
1, 427460, Note_off_c, 0, 81, 61
1, 427469, Note_on_c, 0, 79, 71
1, 427486, Control_c, 0, 64, 56
1, 427534, Note_off_c, 0, 79, 57
1, 427545, Control_c, 0, 64, 56
1, 427553, Note_on_c, 0, 62, 88
1, 427557, Note_on_c, 0, 55, 76
1, 427558, Note_on_c, 0, 77, 77
1, 427560, Control_c, 0, 64, 57
1, 427583, Note_off_c, 0, 62, 66
1, 427588, Note_off_c, 0, 55, 65
1, 427629, Note_on_c, 0, 80, 77
1, 427634, Control_c, 0, 64, 57
1, 427635, Note_off_c, 0, 77, 62
1, 427693, Control_c, 0, 64, 57
1, 427722, Note_on_c, 0, 79, 67
1, 427722, Control_c, 0, 64, 58
1, 427752, Control_c, 0, 64, 58
1, 427781, Control_c, 0, 64, 59
1, 427784, Note_on_c, 0, 65, 84
1, 427788, Note_off_c, 0, 80, 54
1, 427791, Note_on_c, 0, 77, 73
1, 427793, Note_on_c, 0, 62, 72
1, 427805, Note_off_c, 0, 65, 73
1, 427811, Control_c, 0, 64, 58
1, 427812, Note_off_c, 0, 62, 65
1, 427853, Note_off_c, 0, 79, 59
1, 427864, Note_on_c, 0, 75, 76
1, 427900, Note_off_c, 0, 77, 59
1, 427901, Control_c, 0, 64, 58
1, 427925, Note_on_c, 0, 74, 69
1, 427934, Note_off_c, 0, 75, 64
1, 427945, Control_c, 0, 64, 57
1, 427966, Control_c, 0, 64, 57
1, 427981, Control_c, 0, 64, 56
1, 427996, Control_c, 0, 64, 55
1, 428011, Control_c, 0, 64, 55
1, 428017, Note_on_c, 0, 51, 83
1, 428017, Note_off_c, 0, 74, 50
1, 428018, Note_on_c, 0, 48, 76
1, 428018, Note_on_c, 0, 75, 75
1, 428041, Control_c, 0, 64, 54
1, 428053, Note_off_c, 0, 51, 65
1, 428054, Note_off_c, 0, 48, 68
1, 428071, Control_c, 0, 64, 55
1, 428092, Note_on_c, 0, 79, 73
1, 428098, Note_off_c, 0, 75, 64
1, 428130, Control_c, 0, 64, 54
1, 428145, Control_c, 0, 64, 54
1, 428174, Control_c, 0, 64, 54
1, 428175, Note_on_c, 0, 77, 70
1, 428205, Control_c, 0, 64, 55
1, 428206, Note_off_c, 0, 79, 60
1, 428253, Note_on_c, 0, 51, 74
1, 428255, Note_on_c, 0, 75, 77
1, 428258, Note_on_c, 0, 55, 72
1, 428264, Control_c, 0, 64, 55
1, 428282, Note_off_c, 0, 51, 67
1, 428285, Note_off_c, 0, 55, 68
1, 428306, Note_off_c, 0, 77, 59
1, 428324, Control_c, 0, 64, 55
1, 428331, Note_on_c, 0, 74, 73
1, 428366, Note_off_c, 0, 75, 57
1, 428398, Control_c, 0, 64, 55
1, 428404, Note_on_c, 0, 72, 74
1, 428407, Note_off_c, 0, 74, 64
1, 428487, Control_c, 0, 64, 55
1, 428488, Note_on_c, 0, 51, 76
1, 428488, Note_on_c, 0, 75, 75
1, 428491, Note_on_c, 0, 48, 71
1, 428499, Note_off_c, 0, 72, 56
1, 428515, Note_off_c, 0, 51, 67
1, 428516, Note_off_c, 0, 48, 68
1, 428565, Note_on_c, 0, 79, 72
1, 428572, Note_off_c, 0, 75, 62
1, 428650, Note_on_c, 0, 77, 72
1, 428650, Control_c, 0, 64, 55
1, 428683, Note_off_c, 0, 79, 61
1, 428726, Note_on_c, 0, 75, 78
1, 428732, Note_on_c, 0, 51, 74
1, 428738, Note_on_c, 0, 55, 67
1, 428756, Note_off_c, 0, 51, 67
1, 428764, Note_off_c, 0, 55, 66
1, 428785, Note_off_c, 0, 77, 57
1, 428790, Control_c, 0, 64, 56
1, 428802, Note_on_c, 0, 74, 74
1, 428846, Note_off_c, 0, 75, 59
1, 428869, Note_on_c, 0, 72, 77
1, 428882, Note_off_c, 0, 74, 63
1, 428938, Control_c, 0, 64, 56
1, 428956, Note_on_c, 0, 48, 80
1, 428959, Note_on_c, 0, 75, 77
1, 428969, Note_off_c, 0, 72, 58
1, 428972, Note_on_c, 0, 51, 61
1, 428987, Note_off_c, 0, 48, 69
1, 429003, Note_off_c, 0, 51, 64
1, 429015, Note_on_c, 0, 79, 61
1, 429043, Control_c, 0, 64, 57
1, 429048, Note_off_c, 0, 75, 63
1, 429117, Control_c, 0, 64, 57
1, 429119, Note_on_c, 0, 77, 64
1, 429132, Control_c, 0, 64, 58
1, 429169, Note_on_c, 0, 51, 63
1, 429183, Note_on_c, 0, 55, 68
1, 429186, Note_off_c, 0, 79, 58
1, 429189, Note_on_c, 0, 75, 68
1, 429203, Note_off_c, 0, 55, 67
1, 429203, Note_off_c, 0, 51, 67
1, 429221, Control_c, 0, 64, 57
1, 429257, Note_on_c, 0, 74, 68
1, 429263, Note_off_c, 0, 77, 57
1, 429305, Note_off_c, 0, 75, 56
1, 429310, Control_c, 0, 64, 57
1, 429320, Note_on_c, 0, 72, 73
1, 429322, Note_off_c, 0, 74, 65
1, 429325, Control_c, 0, 64, 56
1, 429376, Note_off_c, 0, 72, 64
1, 429384, Control_c, 0, 64, 55
1, 429395, Note_on_c, 0, 50, 83
1, 429397, Note_on_c, 0, 43, 71
1, 429399, Control_c, 0, 64, 53
1, 429412, Note_on_c, 0, 71, 77
1, 429413, Control_c, 0, 64, 52
1, 429417, Note_off_c, 0, 50, 67
1, 429432, Note_off_c, 0, 43, 62
1, 429443, Control_c, 0, 64, 52
1, 429494, Note_on_c, 0, 74, 71
1, 429498, Note_off_c, 0, 71, 61
1, 429576, Note_on_c, 0, 72, 69
1, 429584, Control_c, 0, 64, 53
1, 429599, Control_c, 0, 64, 53
1, 429615, Note_off_c, 0, 74, 62
1, 429644, Note_on_c, 0, 50, 75
1, 429644, Note_on_c, 0, 71, 74
1, 429645, Note_on_c, 0, 53, 73
1, 429669, Note_off_c, 0, 50, 67
1, 429670, Note_off_c, 0, 53, 69
1, 429673, Control_c, 0, 64, 54
1, 429707, Note_off_c, 0, 72, 60
1, 429716, Note_on_c, 0, 69, 80
1, 429717, Control_c, 0, 64, 53
1, 429755, Note_off_c, 0, 71, 58
1, 429761, Control_c, 0, 64, 54
1, 429794, Note_on_c, 0, 67, 76
1, 429797, Note_off_c, 0, 69, 66
1, 429857, Note_on_c, 0, 50, 87
1, 429863, Note_on_c, 0, 43, 70
1, 429870, Note_off_c, 0, 67, 55
1, 429871, Note_on_c, 0, 71, 77
1, 429882, Note_off_c, 0, 50, 68
1, 429887, Note_off_c, 0, 43, 64
1, 429910, Control_c, 0, 64, 54
1, 429925, Control_c, 0, 64, 53
1, 429940, Control_c, 0, 64, 52
1, 429940, Note_on_c, 0, 74, 76
1, 429950, Note_off_c, 0, 71, 61
1, 430014, Control_c, 0, 64, 53
1, 430029, Note_on_c, 0, 72, 73
1, 430058, Control_c, 0, 64, 53
1, 430059, Note_off_c, 0, 74, 64
1, 430090, Note_on_c, 0, 53, 79
1, 430095, Note_on_c, 0, 50, 74
1, 430097, Note_on_c, 0, 71, 76
1, 430103, Control_c, 0, 64, 54
1, 430115, Note_off_c, 0, 53, 71
1, 430123, Note_off_c, 0, 50, 66
1, 430147, Control_c, 0, 64, 53
1, 430148, Note_off_c, 0, 72, 59
1, 430169, Note_on_c, 0, 69, 78
1, 430196, Note_off_c, 0, 71, 60
1, 430229, Control_c, 0, 64, 54
1, 430244, Note_off_c, 0, 69, 65
1, 430253, Note_on_c, 0, 67, 73
1, 430288, Control_c, 0, 64, 54
1, 430315, Note_off_c, 0, 67, 58
1, 430332, Note_on_c, 0, 50, 84
1, 430336, Note_on_c, 0, 43, 73
1, 430339, Note_on_c, 0, 65, 83
1, 430360, Note_off_c, 0, 50, 68
1, 430375, Note_off_c, 0, 43, 65
1, 430391, Control_c, 0, 64, 55
1, 430406, Note_on_c, 0, 68, 77
1, 430406, Control_c, 0, 64, 54
1, 430416, Note_off_c, 0, 65, 64
1, 430421, Control_c, 0, 64, 54
1, 430435, Control_c, 0, 64, 53
1, 430494, Control_c, 0, 64, 54
1, 430495, Note_on_c, 0, 67, 70
1, 430524, Control_c, 0, 64, 54
1, 430539, Control_c, 0, 64, 55
1, 430549, Note_off_c, 0, 68, 50
1, 430554, Control_c, 0, 64, 55
1, 430567, Note_on_c, 0, 53, 85
1, 430571, Note_on_c, 0, 50, 76
1, 430573, Note_on_c, 0, 65, 70
1, 430584, Control_c, 0, 64, 55
1, 430592, Note_off_c, 0, 53, 70
1, 430595, Note_off_c, 0, 50, 67
1, 430599, Control_c, 0, 64, 54
1, 430629, Control_c, 0, 64, 55
1, 430643, Note_off_c, 0, 67, 60
1, 430647, Note_on_c, 0, 63, 77
1, 430658, Control_c, 0, 64, 54
1, 430673, Control_c, 0, 64, 53
1, 430685, Note_off_c, 0, 65, 63
1, 430715, Note_on_c, 0, 62, 76
1, 430727, Note_off_c, 0, 63, 63
1, 430802, Note_on_c, 0, 48, 76
1, 430806, Note_on_c, 0, 63, 81
1, 430807, Note_on_c, 0, 51, 80
1, 430810, Note_off_c, 0, 62, 44
1, 430828, Note_off_c, 0, 48, 69
1, 430833, Note_off_c, 0, 51, 68
1, 430852, Control_c, 0, 64, 54
1, 430866, Control_c, 0, 64, 54
1, 430882, Note_on_c, 0, 67, 79
1, 430887, Note_off_c, 0, 63, 65
1, 430896, Control_c, 0, 64, 54
1, 430911, Control_c, 0, 64, 53
1, 430975, Note_on_c, 0, 65, 72
1, 431013, Note_off_c, 0, 67, 57
1, 431022, Control_c, 0, 64, 54
1, 431037, Control_c, 0, 64, 54
1, 431043, Note_on_c, 0, 63, 77
1, 431062, Note_on_c, 0, 51, 75
1, 431063, Note_on_c, 0, 55, 68
1, 431066, Control_c, 0, 64, 55
1, 431087, Note_off_c, 0, 51, 66
1, 431087, Note_off_c, 0, 55, 68
1, 431104, Note_off_c, 0, 65, 62
1, 431110, Control_c, 0, 64, 55
1, 431117, Note_on_c, 0, 62, 78
1, 431125, Control_c, 0, 64, 56
1, 431152, Note_off_c, 0, 63, 63
1, 431155, Control_c, 0, 64, 55
1, 431184, Control_c, 0, 64, 56
1, 431189, Note_on_c, 0, 60, 82
1, 431199, Control_c, 0, 64, 56
1, 431204, Note_off_c, 0, 62, 62
1, 431239, Note_off_c, 0, 60, 61
1, 431244, Control_c, 0, 64, 56
1, 431281, Note_on_c, 0, 43, 85
1, 431317, Control_c, 0, 64, 55
1, 431332, Control_c, 0, 64, 55
1, 431357, Note_on_c, 0, 50, 79
1, 431378, Control_c, 0, 64, 55
1, 431394, Control_c, 0, 64, 56
1, 431423, Control_c, 0, 64, 55
1, 431449, Note_on_c, 0, 53, 80
1, 431482, Control_c, 0, 64, 55
1, 431497, Control_c, 0, 64, 54
1, 431512, Control_c, 0, 64, 53
1, 431527, Control_c, 0, 64, 52
1, 431541, Note_on_c, 0, 59, 75
1, 431543, Note_on_c, 0, 56, 88
1, 431617, Note_on_c, 0, 62, 72
1, 431630, Control_c, 0, 64, 52
1, 431707, Note_off_c, 0, 59, 36
1, 431712, Control_c, 0, 64, 52
1, 431719, Note_on_c, 0, 65, 66
1, 431737, Note_off_c, 0, 62, 59
1, 431786, Control_c, 0, 64, 53
1, 431798, Note_on_c, 0, 68, 75
1, 431806, Note_off_c, 0, 65, 66
1, 431860, Control_c, 0, 64, 53
1, 431873, Note_on_c, 0, 65, 62
1, 431898, Note_off_c, 0, 56, 59
1, 431899, Note_off_c, 0, 68, 59
1, 431934, Note_off_c, 0, 53, 53
1, 431951, Note_off_c, 0, 65, 62
1, 431952, Note_on_c, 0, 62, 66
1, 431999, Note_off_c, 0, 43, 47
1, 432017, Note_on_c, 0, 55, 73
1, 432025, Note_off_c, 0, 50, 52
1, 432037, Note_on_c, 0, 67, 66
1, 432038, Control_c, 0, 64, 53
1, 432039, Note_off_c, 0, 62, 60
1, 432043, Note_off_c, 0, 55, 67
1, 432115, Note_on_c, 0, 65, 66
1, 432141, Control_c, 0, 64, 53
1, 432145, Note_off_c, 0, 67, 59
1, 432171, Control_c, 0, 64, 54
1, 432204, Note_on_c, 0, 62, 72
1, 432210, Note_off_c, 0, 65, 64
1, 432231, Control_c, 0, 64, 55
1, 432246, Control_c, 0, 64, 55
1, 432252, Note_on_c, 0, 48, 76
1, 432258, Note_on_c, 0, 51, 74
1, 432276, Note_on_c, 0, 63, 74
1, 432280, Note_off_c, 0, 51, 67
1, 432284, Note_off_c, 0, 48, 68
1, 432291, Control_c, 0, 64, 55
1, 432295, Note_off_c, 0, 62, 54
1, 432335, Control_c, 0, 64, 55
1, 432351, Note_on_c, 0, 67, 72
1, 432360, Note_off_c, 0, 63, 64
1, 432434, Note_on_c, 0, 65, 68
1, 432488, Note_off_c, 0, 67, 55
1, 432505, Note_on_c, 0, 63, 75
1, 432509, Note_on_c, 0, 51, 73
1, 432509, Note_on_c, 0, 55, 72
1, 432533, Note_off_c, 0, 55, 68
1, 432538, Note_off_c, 0, 51, 67
1, 432566, Note_off_c, 0, 65, 63
1, 432575, Note_on_c, 0, 62, 76
1, 432610, Note_off_c, 0, 63, 63
1, 432643, Note_on_c, 0, 60, 78
1, 432661, Note_off_c, 0, 62, 62
1, 432689, Note_off_c, 0, 60, 59
1, 432712, Control_c, 0, 64, 55
1, 432735, Note_on_c, 0, 43, 85
1, 432757, Control_c, 0, 64, 54
1, 432771, Control_c, 0, 64, 54
1, 432786, Control_c, 0, 64, 53
1, 432801, Note_on_c, 0, 50, 79
1, 432846, Control_c, 0, 64, 53
1, 432861, Control_c, 0, 64, 52
1, 432879, Note_on_c, 0, 53, 83
1, 432890, Control_c, 0, 64, 53
1, 432905, Control_c, 0, 64, 53
1, 432920, Control_c, 0, 64, 53
1, 432935, Control_c, 0, 64, 52
1, 432950, Control_c, 0, 64, 51
1, 432964, Control_c, 0, 64, 49
1, 432987, Note_on_c, 0, 56, 89
1, 432995, Note_on_c, 0, 59, 75
1, 432995, Control_c, 0, 64, 49
1, 433025, Control_c, 0, 64, 48
1, 433054, Control_c, 0, 64, 49
1, 433064, Note_on_c, 0, 62, 69
1, 433069, Control_c, 0, 64, 49
1, 433149, Note_off_c, 0, 59, 40
1, 433150, Note_on_c, 0, 65, 67
1, 433173, Control_c, 0, 64, 50
1, 433180, Note_off_c, 0, 62, 61
1, 433210, Control_c, 0, 64, 50
1, 433234, Note_on_c, 0, 68, 73
1, 433239, Control_c, 0, 64, 51
1, 433245, Note_off_c, 0, 65, 64
1, 433310, Note_on_c, 0, 65, 61
1, 433313, Control_c, 0, 64, 51
1, 433327, Note_off_c, 0, 68, 58
1, 433328, Control_c, 0, 64, 52
1, 433354, Note_off_c, 0, 56, 58
1, 433380, Note_off_c, 0, 53, 54
1, 433381, Note_on_c, 0, 62, 66
1, 433382, Note_off_c, 0, 65, 61
1, 433434, Note_off_c, 0, 43, 49
1, 433456, Note_off_c, 0, 50, 44
1, 433463, Note_on_c, 0, 55, 62
1, 433466, Note_off_c, 0, 62, 60
1, 433471, Note_on_c, 0, 67, 65
1, 433486, Note_off_c, 0, 55, 66
1, 433520, Control_c, 0, 64, 51
1, 433560, Note_on_c, 0, 65, 58
1, 433564, Note_off_c, 0, 67, 54
1, 433594, Control_c, 0, 64, 52
1, 433634, Note_on_c, 0, 62, 60
1, 433635, Note_off_c, 0, 65, 63
1, 433639, Control_c, 0, 64, 52
1, 433654, Control_c, 0, 64, 53
1, 433669, Control_c, 0, 64, 54
1, 433684, Control_c, 0, 64, 54
1, 433702, Note_on_c, 0, 48, 64
1, 433707, Note_on_c, 0, 51, 60
1, 433710, Note_on_c, 0, 63, 63
1, 433716, Note_off_c, 0, 62, 55
1, 433731, Note_off_c, 0, 48, 66
1, 433734, Note_off_c, 0, 51, 64
1, 433773, Note_on_c, 0, 67, 65
1, 433779, Note_off_c, 0, 63, 63
1, 433833, Control_c, 0, 64, 55
1, 433848, Control_c, 0, 64, 55
1, 433865, Note_on_c, 0, 65, 59
1, 433907, Control_c, 0, 64, 56
1, 433916, Note_off_c, 0, 67, 43
1, 433922, Control_c, 0, 64, 57
1, 433930, Note_on_c, 0, 63, 65
1, 433945, Note_on_c, 0, 51, 55
1, 433985, Note_off_c, 0, 65, 62
1, 433995, Note_off_c, 0, 51, 62
1, 434017, Control_c, 0, 64, 58
1, 434020, Note_on_c, 0, 62, 63
1, 434027, Note_off_c, 0, 63, 60
1, 434032, Control_c, 0, 64, 58
1, 434062, Control_c, 0, 64, 58
1, 434072, Note_off_c, 0, 62, 56
1, 434085, Note_on_c, 0, 60, 35
1, 434117, Note_off_c, 0, 60, 33
1, 434151, Control_c, 0, 64, 57
1, 434166, Control_c, 0, 64, 56
1, 434174, Note_on_c, 0, 43, 57
1, 434181, Control_c, 0, 64, 52
1, 434182, Note_on_c, 0, 59, 56
1, 434196, Control_c, 0, 64, 24
1, 434210, Control_c, 0, 64, 0
1, 434233, Note_off_c, 0, 59, 51
1, 434250, Note_on_c, 0, 62, 60
1, 434256, Note_on_c, 0, 50, 59
1, 434314, Control_c, 0, 64, 59
1, 434325, Note_on_c, 0, 65, 60
1, 434328, Control_c, 0, 64, 64
1, 434329, Note_off_c, 0, 62, 59
1, 434335, Note_on_c, 0, 53, 55
1, 434343, Control_c, 0, 64, 65
1, 434358, Control_c, 0, 64, 66
1, 434373, Control_c, 0, 64, 67
1, 434388, Control_c, 0, 64, 68
1, 434393, Note_off_c, 0, 65, 65
1, 434399, Note_on_c, 0, 68, 68
1, 434402, Control_c, 0, 64, 70
1, 434408, Note_on_c, 0, 56, 52
1, 434417, Control_c, 0, 64, 71
1, 434432, Control_c, 0, 64, 71
1, 434447, Control_c, 0, 64, 72
1, 434468, Note_on_c, 0, 65, 51
1, 434475, Note_off_c, 0, 68, 58
1, 434477, Control_c, 0, 64, 72
1, 434506, Control_c, 0, 64, 73
1, 434533, Note_off_c, 0, 65, 65
1, 434549, Note_on_c, 0, 62, 62
1, 434595, Note_off_c, 0, 62, 54
1, 434626, Control_c, 0, 64, 73
1, 434631, Note_on_c, 0, 71, 68
1, 434707, Control_c, 0, 64, 74
1, 434709, Note_on_c, 0, 68, 63
1, 434722, Control_c, 0, 64, 74
1, 434746, Note_off_c, 0, 71, 60
1, 434752, Control_c, 0, 64, 75
1, 434776, Note_on_c, 0, 65, 70
1, 434780, Note_off_c, 0, 68, 62
1, 434796, Control_c, 0, 64, 74
1, 434803, Note_off_c, 0, 65, 69
1, 434868, Note_on_c, 0, 74, 80
1, 434915, Control_c, 0, 64, 75
1, 434942, Note_on_c, 0, 71, 61
1, 434945, Control_c, 0, 64, 75
1, 434965, Note_off_c, 0, 74, 60
1, 434988, Note_on_c, 0, 68, 70
1, 434989, Control_c, 0, 64, 76
1, 435001, Note_off_c, 0, 71, 60
1, 435019, Control_c, 0, 64, 75
1, 435025, Note_off_c, 0, 68, 64
1, 435033, Control_c, 0, 64, 74
1, 435048, Control_c, 0, 64, 69
1, 435063, Control_c, 0, 64, 58
1, 435077, Control_c, 0, 64, 52
1, 435083, Note_on_c, 0, 77, 84
1, 435092, Control_c, 0, 64, 62
1, 435107, Control_c, 0, 64, 66
1, 435122, Control_c, 0, 64, 69
1, 435137, Control_c, 0, 64, 72
1, 435150, Note_on_c, 0, 74, 69
1, 435152, Control_c, 0, 64, 75
1, 435166, Control_c, 0, 64, 78
1, 435176, Note_off_c, 0, 77, 61
1, 435181, Control_c, 0, 64, 80
1, 435196, Control_c, 0, 64, 81
1, 435211, Control_c, 0, 64, 82
1, 435214, Note_off_c, 0, 74, 66
1, 435231, Note_on_c, 0, 71, 69
1, 435248, Note_off_c, 0, 56, 31
1, 435255, Control_c, 0, 64, 83
1, 435270, Control_c, 0, 64, 83
1, 435280, Note_off_c, 0, 53, 57
1, 435287, Note_off_c, 0, 71, 59
1, 435289, Note_off_c, 0, 43, 49
1, 435293, Note_off_c, 0, 50, 60
1, 435299, Control_c, 0, 64, 84
1, 435308, Note_on_c, 0, 80, 79
1, 435341, Note_on_c, 0, 81, 57
1, 435359, Control_c, 0, 64, 84
1, 435362, Note_off_c, 0, 81, 57
1, 435381, Note_off_c, 0, 80, 48
1, 435383, Note_on_c, 0, 77, 73
1, 435469, Note_on_c, 0, 74, 67
1, 435472, Note_off_c, 0, 77, 61
1, 435501, Control_c, 0, 64, 82
1, 435515, Control_c, 0, 64, 74
1, 435530, Control_c, 0, 64, 64
1, 435545, Control_c, 0, 64, 36
1, 435555, Note_on_c, 0, 83, 82
1, 435560, Control_c, 0, 64, 60
1, 435575, Control_c, 0, 64, 67
1, 435582, Note_off_c, 0, 74, 29
1, 435589, Control_c, 0, 64, 72
1, 435604, Control_c, 0, 64, 77
1, 435619, Control_c, 0, 64, 80
1, 435622, Note_on_c, 0, 80, 72
1, 435634, Control_c, 0, 64, 83
1, 435649, Control_c, 0, 64, 85
1, 435656, Note_off_c, 0, 83, 60
1, 435663, Control_c, 0, 64, 87
1, 435678, Control_c, 0, 64, 89
1, 435686, Note_on_c, 0, 77, 74
1, 435693, Control_c, 0, 64, 90
1, 435698, Note_off_c, 0, 80, 63
1, 435720, Note_off_c, 0, 77, 61
1, 435723, Control_c, 0, 64, 88
1, 435737, Control_c, 0, 64, 77
1, 435752, Control_c, 0, 64, 65
1, 435767, Control_c, 0, 64, 56
1, 435782, Control_c, 0, 64, 66
1, 435784, Note_on_c, 0, 86, 88
1, 435797, Control_c, 0, 64, 73
1, 435812, Control_c, 0, 64, 82
1, 435827, Control_c, 0, 64, 89
1, 435842, Control_c, 0, 64, 94
1, 435851, Note_on_c, 0, 83, 69
1, 435856, Control_c, 0, 64, 96
1, 435871, Control_c, 0, 64, 97
1, 435881, Note_off_c, 0, 86, 63
1, 435902, Note_on_c, 0, 80, 79
1, 435911, Note_off_c, 0, 83, 61
1, 435915, Control_c, 0, 64, 95
1, 435930, Control_c, 0, 64, 85
1, 435945, Control_c, 0, 64, 73
1, 435952, Note_off_c, 0, 80, 63
1, 435960, Control_c, 0, 64, 61
1, 435974, Control_c, 0, 64, 53
1, 435989, Control_c, 0, 64, 65
1, 436004, Control_c, 0, 64, 72
1, 436005, Note_on_c, 0, 89, 83
1, 436019, Control_c, 0, 64, 78
1, 436022, Note_on_c, 0, 88, 61
1, 436034, Control_c, 0, 64, 82
1, 436048, Control_c, 0, 64, 83
1, 436063, Control_c, 0, 64, 85
1, 436074, Note_on_c, 0, 86, 74
1, 436078, Control_c, 0, 64, 87
1, 436093, Control_c, 0, 64, 89
1, 436107, Control_c, 0, 64, 90
1, 436109, Note_off_c, 0, 89, 60
1, 436119, Note_off_c, 0, 88, 25
1, 436122, Control_c, 0, 64, 91
1, 436133, Note_off_c, 0, 86, 62
1, 436152, Note_on_c, 0, 83, 70
1, 436183, Control_c, 0, 64, 90
1, 436205, Control_c, 0, 64, 87
1, 436220, Control_c, 0, 64, 77
1, 436235, Control_c, 0, 64, 65
1, 436240, Note_on_c, 0, 92, 89
1, 436250, Control_c, 0, 64, 0
1, 436275, Note_off_c, 0, 83, 55
1, 436324, Note_on_c, 0, 89, 67
1, 436340, Note_off_c, 0, 92, 61
1, 436383, Note_on_c, 0, 86, 71
1, 436403, Note_off_c, 0, 89, 57
1, 436457, Note_off_c, 0, 86, 61
1, 436474, Note_on_c, 0, 83, 69
1, 436486, Control_c, 0, 64, 10
1, 436501, Control_c, 0, 64, 20
1, 436516, Control_c, 0, 64, 21
1, 436524, Note_off_c, 0, 83, 50
1, 436551, Note_on_c, 0, 86, 70
1, 436560, Control_c, 0, 64, 24
1, 436575, Control_c, 0, 64, 27
1, 436590, Control_c, 0, 64, 32
1, 436605, Control_c, 0, 64, 35
1, 436614, Note_on_c, 0, 89, 68
1, 436616, Note_off_c, 0, 86, 62
1, 436620, Control_c, 0, 64, 36
1, 436635, Control_c, 0, 64, 36
1, 436650, Control_c, 0, 64, 39
1, 436664, Control_c, 0, 64, 42
1, 436672, Note_off_c, 0, 89, 65
1, 436679, Control_c, 0, 64, 44
1, 436691, Note_on_c, 0, 80, 78
1, 436694, Control_c, 0, 64, 46
1, 436709, Control_c, 0, 64, 47
1, 436723, Control_c, 0, 64, 49
1, 436733, Note_off_c, 0, 80, 63
1, 436738, Control_c, 0, 64, 50
1, 436768, Control_c, 0, 64, 50
1, 436772, Note_on_c, 0, 83, 61
1, 436783, Control_c, 0, 64, 49
1, 436812, Control_c, 0, 64, 49
1, 436849, Note_on_c, 0, 86, 72
1, 436866, Note_off_c, 0, 83, 59
1, 436909, Note_off_c, 0, 86, 59
1, 436916, Control_c, 0, 64, 48
1, 436930, Control_c, 0, 64, 48
1, 436933, Note_on_c, 0, 77, 78
1, 437010, Note_on_c, 0, 80, 71
1, 437022, Note_off_c, 0, 77, 55
1, 437028, Control_c, 0, 64, 49
1, 437043, Control_c, 0, 64, 49
1, 437082, Note_on_c, 0, 83, 67
1, 437094, Note_off_c, 0, 80, 63
1, 437102, Control_c, 0, 64, 50
1, 437117, Control_c, 0, 64, 51
1, 437132, Control_c, 0, 64, 52
1, 437144, Note_off_c, 0, 83, 61
1, 437164, Note_on_c, 0, 74, 70
1, 437236, Note_on_c, 0, 77, 61
1, 437239, Note_off_c, 0, 74, 62
1, 437265, Control_c, 0, 64, 53
1, 437280, Control_c, 0, 64, 54
1, 437295, Control_c, 0, 64, 54
1, 437309, Note_on_c, 0, 80, 65
1, 437355, Note_off_c, 0, 77, 57
1, 437376, Note_off_c, 0, 80, 63
1, 437383, Control_c, 0, 64, 54
1, 437397, Note_on_c, 0, 71, 67
1, 437441, Note_off_c, 0, 71, 57
1, 437472, Control_c, 0, 64, 53
1, 437473, Note_on_c, 0, 74, 69
1, 437487, Control_c, 0, 64, 53
1, 437532, Control_c, 0, 64, 53
1, 437546, Control_c, 0, 64, 54
1, 437549, Note_on_c, 0, 77, 69
1, 437553, Note_off_c, 0, 74, 64
1, 437561, Control_c, 0, 64, 54
1, 437592, Note_off_c, 0, 77, 60
1, 437620, Control_c, 0, 64, 55
1, 437623, Note_on_c, 0, 68, 73
1, 437635, Control_c, 0, 64, 55
1, 437648, Note_off_c, 0, 68, 67
1, 437705, Note_on_c, 0, 71, 64
1, 437747, Control_c, 0, 64, 54
1, 437768, Note_on_c, 0, 74, 60
1, 437791, Control_c, 0, 64, 54
1, 437806, Note_off_c, 0, 71, 60
1, 437850, Note_on_c, 0, 67, 66
1, 437850, Note_off_c, 0, 74, 63
1, 437918, Note_off_c, 0, 67, 61
1, 437929, Note_on_c, 0, 68, 64
1, 437940, Control_c, 0, 64, 53
1, 437955, Control_c, 0, 64, 53
1, 437984, Control_c, 0, 64, 53
1, 437997, Note_off_c, 0, 68, 64
1, 438015, Note_on_c, 0, 67, 61
1, 438058, Control_c, 0, 64, 53
1, 438088, Note_on_c, 0, 68, 67
1, 438088, Note_off_c, 0, 67, 60
1, 438146, Control_c, 0, 64, 53
1, 438158, Note_off_c, 0, 68, 64
1, 438161, Note_on_c, 0, 70, 67
1, 438161, Control_c, 0, 64, 54
1, 438239, Note_on_c, 0, 68, 66
1, 438250, Note_off_c, 0, 70, 56
1, 438307, Note_off_c, 0, 68, 63
1, 438309, Control_c, 0, 64, 54
1, 438325, Note_on_c, 0, 67, 66
1, 438385, Note_off_c, 0, 67, 60
1, 438407, Note_on_c, 0, 68, 63
1, 438470, Note_off_c, 0, 68, 61
1, 438480, Control_c, 0, 64, 55
1, 438489, Note_on_c, 0, 67, 63
1, 438495, Control_c, 0, 64, 55
1, 438509, Control_c, 0, 64, 56
1, 438558, Note_off_c, 0, 67, 58
1, 438578, Note_on_c, 0, 68, 67
1, 438646, Note_off_c, 0, 68, 63
1, 438657, Note_on_c, 0, 70, 60
1, 438731, Note_on_c, 0, 68, 63
1, 438737, Note_off_c, 0, 70, 57
1, 438747, Control_c, 0, 64, 56
1, 438792, Control_c, 0, 64, 57
1, 438797, Note_off_c, 0, 68, 63
1, 438816, Note_on_c, 0, 67, 62
1, 438821, Control_c, 0, 64, 57
1, 438873, Note_off_c, 0, 67, 58
1, 438893, Note_on_c, 0, 68, 58
1, 438949, Note_off_c, 0, 68, 62
1, 438974, Note_on_c, 0, 67, 63
1, 439040, Note_off_c, 0, 67, 59
1, 439058, Note_on_c, 0, 68, 63
1, 439122, Note_off_c, 0, 68, 63
1, 439129, Note_on_c, 0, 70, 63
1, 439219, Note_on_c, 0, 68, 61
1, 439219, Note_off_c, 0, 70, 57
1, 439282, Note_off_c, 0, 68, 62
1, 439306, Note_on_c, 0, 67, 60
1, 439360, Note_off_c, 0, 67, 57
1, 439383, Note_on_c, 0, 68, 58
1, 439437, Note_off_c, 0, 68, 61
1, 439464, Note_on_c, 0, 67, 60
1, 439513, Note_off_c, 0, 67, 57
1, 439544, Note_on_c, 0, 68, 61
1, 439599, Note_off_c, 0, 68, 61
1, 439616, Note_on_c, 0, 70, 55
1, 439684, Note_on_c, 0, 68, 49
1, 439726, Note_off_c, 0, 70, 37
1, 439741, Note_off_c, 0, 68, 60
1, 439778, Note_on_c, 0, 69, 64
1, 439834, Note_off_c, 0, 69, 58
1, 439851, Control_c, 0, 64, 57
1, 439863, Note_on_c, 0, 70, 51
1, 439898, Note_off_c, 0, 70, 65
1, 439944, Note_on_c, 0, 69, 56
1, 440007, Control_c, 0, 64, 56
1, 440017, Note_on_c, 0, 70, 58
1, 440022, Note_off_c, 0, 69, 54
1, 440098, Note_off_c, 0, 70, 62
1, 440113, Note_on_c, 0, 72, 56
1, 440206, Note_on_c, 0, 70, 53
1, 440225, Note_off_c, 0, 72, 55
1, 440272, Note_off_c, 0, 70, 57
1, 440298, Note_on_c, 0, 71, 58
1, 440349, Control_c, 0, 64, 56
1, 440352, Note_off_c, 0, 71, 52
1, 440387, Note_on_c, 0, 72, 45
1, 440466, Control_c, 0, 64, 56
1, 440486, Note_on_c, 0, 71, 50
1, 440498, Note_off_c, 0, 72, 55
1, 440549, Note_off_c, 0, 71, 52
1, 440585, Note_on_c, 0, 67, 57
1, 440614, Control_c, 0, 64, 57
1, 440647, Note_off_c, 0, 67, 55
1, 440695, Note_on_c, 0, 68, 45
1, 440725, Control_c, 0, 64, 57
1, 440765, Note_off_c, 0, 68, 57
1, 440784, Control_c, 0, 64, 58
1, 440785, Note_on_c, 0, 67, 47
1, 440822, Note_off_c, 0, 67, 54
1, 440871, Note_on_c, 0, 72, 57
1, 440885, Note_on_c, 0, 63, 43
1, 440888, Control_c, 0, 64, 58
1, 440891, Note_on_c, 0, 60, 38
1, 440900, Note_off_c, 0, 72, 65
1, 440918, Control_c, 0, 64, 59
1, 440924, Note_on_c, 0, 67, 28
1, 440948, Control_c, 0, 64, 58
1, 440963, Control_c, 0, 64, 58
1, 440978, Control_c, 0, 64, 57
1, 440993, Control_c, 0, 64, 58
1, 441008, Control_c, 0, 64, 59
1, 441023, Control_c, 0, 64, 59
1, 441037, Control_c, 0, 64, 60
1, 441038, Note_on_c, 0, 71, 52
1, 441087, Note_off_c, 0, 71, 49
1, 441097, Control_c, 0, 64, 60
1, 441139, Note_off_c, 0, 60, 55
1, 441153, Note_off_c, 0, 67, 46
1, 441157, Control_c, 0, 64, 60
1, 441160, Note_off_c, 0, 63, 55
1, 441165, Note_on_c, 0, 72, 56
1, 441184, Note_off_c, 0, 72, 64
1, 441294, Note_on_c, 0, 74, 57
1, 441390, Note_off_c, 0, 74, 33
1, 441408, Control_c, 0, 64, 59
1, 441428, Note_on_c, 0, 75, 45
1, 441431, Note_on_c, 0, 60, 39
1, 441447, Note_on_c, 0, 63, 37
1, 441450, Note_on_c, 0, 67, 32
1, 441462, Note_off_c, 0, 75, 36
1, 441566, Note_on_c, 0, 78, 65
1, 441646, Note_off_c, 0, 78, 55
1, 441693, Note_on_c, 0, 79, 64
1, 441693, Note_off_c, 0, 60, 60
1, 441694, Note_off_c, 0, 67, 56
1, 441700, Note_off_c, 0, 63, 58
1, 441712, Control_c, 0, 64, 59
1, 441720, Note_off_c, 0, 79, 65
1, 441826, Note_on_c, 0, 83, 69
1, 441846, Control_c, 0, 64, 58
1, 441882, Note_off_c, 0, 83, 50
1, 441950, Note_on_c, 0, 84, 63
1, 441977, Note_off_c, 0, 84, 68
1, 442072, Note_on_c, 0, 86, 60
1, 442167, Note_off_c, 0, 86, 30
1, 442185, Note_on_c, 0, 87, 62
1, 442218, Note_off_c, 0, 87, 67
1, 442307, Note_on_c, 0, 63, 57
1, 442311, Note_on_c, 0, 60, 51
1, 442319, Note_on_c, 0, 72, 62
1, 442320, Note_on_c, 0, 67, 45
1, 442334, Note_off_c, 0, 60, 60
1, 442336, Note_off_c, 0, 63, 67
1, 442337, Note_off_c, 0, 72, 67
1, 442346, Note_off_c, 0, 67, 53
1, 442424, Note_on_c, 0, 67, 63
1, 442441, Note_on_c, 0, 59, 52
1, 442449, Note_on_c, 0, 74, 60
1, 442454, Note_on_c, 0, 62, 53
1, 442533, Note_off_c, 0, 74, 50
1, 442576, Note_on_c, 0, 73, 63
1, 442624, Note_off_c, 0, 67, 55
1, 442632, Note_off_c, 0, 59, 58
1, 442635, Note_off_c, 0, 62, 61
1, 442650, Note_off_c, 0, 73, 54
1, 442687, Note_on_c, 0, 74, 47
1, 442709, Note_off_c, 0, 74, 64
1, 442814, Note_on_c, 0, 76, 52
1, 442872, Note_off_c, 0, 76, 38
1, 442932, Note_on_c, 0, 77, 58
1, 442950, Note_on_c, 0, 59, 38
1, 442954, Note_on_c, 0, 67, 41
1, 442961, Note_off_c, 0, 77, 63
1, 442970, Note_on_c, 0, 62, 31
1, 443002, Control_c, 0, 64, 59
1, 443074, Note_on_c, 0, 82, 60
1, 443158, Note_off_c, 0, 82, 53
1, 443185, Note_off_c, 0, 67, 60
1, 443194, Note_on_c, 0, 83, 60
1, 443197, Note_off_c, 0, 62, 56
1, 443201, Note_off_c, 0, 59, 54
1, 443214, Note_off_c, 0, 83, 65
1, 443298, Control_c, 0, 64, 59
1, 443312, Note_on_c, 0, 85, 63
1, 443396, Note_off_c, 0, 85, 50
1, 443403, Control_c, 0, 64, 59
1, 443430, Note_on_c, 0, 86, 68
1, 443454, Note_off_c, 0, 86, 67
1, 443541, Note_on_c, 0, 88, 68
1, 443581, Control_c, 0, 64, 58
1, 443587, Note_off_c, 0, 88, 53
1, 443654, Note_on_c, 0, 89, 68
1, 443679, Note_off_c, 0, 89, 70
1, 443736, Control_c, 0, 64, 59
1, 443769, Note_on_c, 0, 62, 54
1, 443781, Control_c, 0, 64, 59
1, 443786, Note_on_c, 0, 67, 34
1, 443789, Note_on_c, 0, 74, 61
1, 443796, Note_off_c, 0, 62, 61
1, 443806, Note_off_c, 0, 74, 68
1, 443818, Note_off_c, 0, 67, 45
1, 443899, Control_c, 0, 64, 59
1, 443902, Note_on_c, 0, 58, 55
1, 443904, Note_on_c, 0, 76, 64
1, 443905, Note_on_c, 0, 67, 51
1, 443912, Note_on_c, 0, 64, 46
1, 444000, Poly_aftertouch_c, 0, 60, 127
1, 444002, Note_off_c, 0, 76, 58
1, 444039, Note_on_c, 0, 75, 61
1, 444047, Control_c, 0, 64, 59
1, 444086, Note_off_c, 0, 67, 52
1, 444092, Control_c, 0, 64, 59
1, 444093, Note_off_c, 0, 64, 59
1, 444094, Poly_aftertouch_c, 0, 60, 0
1, 444099, Note_off_c, 0, 58, 60
1, 444111, Note_off_c, 0, 75, 60
1, 444135, Note_on_c, 0, 76, 62
1, 444161, Note_off_c, 0, 76, 70
1, 444197, Control_c, 0, 64, 59
1, 444263, Note_on_c, 0, 78, 65
1, 444355, Note_off_c, 0, 78, 53
1, 444379, Note_on_c, 0, 79, 65
1, 444390, Note_on_c, 0, 58, 34
1, 444393, Note_on_c, 0, 67, 43
1, 444399, Note_on_c, 0, 64, 36
1, 444405, Note_off_c, 0, 79, 65
1, 444413, Note_on_c, 0, 60, 33
1, 444517, Note_on_c, 0, 83, 65
1, 444605, Note_off_c, 0, 83, 47
1, 444635, Note_on_c, 0, 84, 67
1, 444659, Note_off_c, 0, 84, 69
1, 444668, Note_off_c, 0, 67, 58
1, 444683, Note_off_c, 0, 64, 57
1, 444688, Note_off_c, 0, 60, 54
1, 444694, Note_off_c, 0, 58, 55
1, 444737, Control_c, 0, 64, 60
1, 444752, Note_on_c, 0, 87, 67
1, 444826, Control_c, 0, 64, 59
1, 444853, Note_off_c, 0, 87, 55
1, 444874, Note_on_c, 0, 88, 70
1, 444895, Note_off_c, 0, 88, 69
1, 444993, Note_on_c, 0, 90, 71
1, 445103, Note_on_c, 0, 91, 68
1, 445120, Note_off_c, 0, 90, 35
1, 445127, Note_off_c, 0, 91, 65
1, 445167, Control_c, 0, 64, 60
1, 445216, Note_on_c, 0, 58, 50
1, 445225, Note_on_c, 0, 67, 43
1, 445232, Note_on_c, 0, 76, 72
1, 445246, Note_off_c, 0, 58, 63
1, 445252, Note_off_c, 0, 67, 51
1, 445253, Note_off_c, 0, 76, 71
1, 445264, Control_c, 0, 64, 59
1, 445357, Note_on_c, 0, 77, 66
1, 445364, Note_on_c, 0, 57, 46
1, 445365, Note_on_c, 0, 65, 47
1, 445372, Note_on_c, 0, 60, 53
1, 445436, Note_off_c, 0, 77, 54
1, 445477, Note_on_c, 0, 76, 65
1, 445536, Note_off_c, 0, 76, 62
1, 445547, Note_off_c, 0, 65, 59
1, 445550, Note_off_c, 0, 57, 55
1, 445550, Note_off_c, 0, 60, 60
1, 445580, Note_on_c, 0, 77, 69
1, 445604, Note_off_c, 0, 77, 68
1, 445664, Control_c, 0, 64, 60
1, 445694, Note_on_c, 0, 80, 73
1, 445776, Note_off_c, 0, 80, 54
1, 445819, Note_on_c, 0, 57, 49
1, 445820, Note_on_c, 0, 60, 54
1, 445820, Note_on_c, 0, 81, 75
1, 445828, Note_on_c, 0, 65, 52
1, 445846, Note_off_c, 0, 81, 63
1, 445887, Control_c, 0, 64, 59
1, 445946, Note_on_c, 0, 83, 74
1, 445953, Control_c, 0, 64, 60
1, 446064, Note_on_c, 0, 84, 74
1, 446066, Note_off_c, 0, 83, 50
1, 446087, Note_off_c, 0, 84, 69
1, 446102, Control_c, 0, 64, 59
1, 446106, Note_off_c, 0, 65, 61
1, 446117, Note_off_c, 0, 57, 59
1, 446119, Note_off_c, 0, 60, 61
1, 446161, Control_c, 0, 64, 60
1, 446188, Note_on_c, 0, 88, 79
1, 446268, Note_off_c, 0, 88, 54
1, 446310, Note_on_c, 0, 89, 67
1, 446335, Note_off_c, 0, 89, 70
1, 446421, Note_on_c, 0, 92, 82
1, 446428, Control_c, 0, 64, 60
1, 446472, Control_c, 0, 64, 60
1, 446531, Note_on_c, 0, 93, 75
1, 446531, Note_off_c, 0, 92, 38
1, 446546, Control_c, 0, 64, 59
1, 446553, Note_off_c, 0, 93, 68
1, 446648, Note_on_c, 0, 60, 60
1, 446651, Control_c, 0, 64, 60
1, 446655, Note_on_c, 0, 65, 48
1, 446655, Note_on_c, 0, 77, 78
1, 446686, Note_off_c, 0, 60, 65
1, 446686, Note_off_c, 0, 65, 58
1, 446690, Note_off_c, 0, 77, 61
1, 446703, Control_c, 0, 64, 59
1, 446777, Control_c, 0, 64, 60
1, 446789, Note_on_c, 0, 66, 64
1, 446790, Note_on_c, 0, 60, 47
1, 446791, Note_on_c, 0, 78, 77
1, 446794, Note_on_c, 0, 56, 56
1, 446797, Note_on_c, 0, 63, 59
1, 446852, Note_off_c, 0, 78, 59
1, 446898, Note_on_c, 0, 77, 73
1, 446966, Note_off_c, 0, 77, 56
1, 447014, Note_off_c, 0, 66, 56
1, 447016, Note_on_c, 0, 78, 76
1, 447030, Note_off_c, 0, 56, 54
1, 447033, Note_off_c, 0, 63, 61
1, 447037, Note_off_c, 0, 60, 62
1, 447040, Note_off_c, 0, 78, 68
1, 447139, Note_on_c, 0, 83, 75
1, 447220, Note_off_c, 0, 83, 51
1, 447236, Control_c, 0, 64, 60
1, 447262, Note_on_c, 0, 84, 70
1, 447266, Note_on_c, 0, 66, 58
1, 447271, Note_on_c, 0, 56, 52
1, 447272, Note_on_c, 0, 60, 52
1, 447275, Note_on_c, 0, 63, 52
1, 447286, Note_off_c, 0, 84, 68
1, 447325, Control_c, 0, 64, 61
1, 447380, Note_on_c, 0, 86, 79
1, 447424, Note_off_c, 0, 86, 60
1, 447496, Control_c, 0, 64, 61
1, 447502, Note_on_c, 0, 87, 78
1, 447511, Control_c, 0, 64, 62
1, 447526, Control_c, 0, 64, 62
1, 447548, Note_off_c, 0, 87, 62
1, 447570, Note_off_c, 0, 66, 54
1, 447570, Control_c, 0, 64, 62
1, 447575, Note_off_c, 0, 56, 54
1, 447575, Note_off_c, 0, 60, 57
1, 447581, Note_off_c, 0, 63, 58
1, 447600, Control_c, 0, 64, 62
1, 447627, Note_on_c, 0, 89, 83
1, 447644, Control_c, 0, 64, 62
1, 447673, Note_off_c, 0, 89, 64
1, 447718, Control_c, 0, 64, 62
1, 447742, Note_on_c, 0, 90, 86
1, 447795, Note_off_c, 0, 90, 64
1, 447852, Note_on_c, 0, 89, 85
1, 447900, Note_off_c, 0, 89, 66
1, 447962, Note_on_c, 0, 90, 89
1, 447986, Control_c, 0, 64, 63
1, 448010, Note_off_c, 0, 90, 64
1, 448069, Note_on_c, 0, 90, 83
1, 448075, Control_c, 0, 64, 63
1, 448077, Note_on_c, 0, 66, 60
1, 448083, Note_on_c, 0, 56, 52
1, 448094, Note_on_c, 0, 63, 46
1, 448109, Note_off_c, 0, 66, 66
1, 448121, Note_off_c, 0, 63, 58
1, 448123, Note_off_c, 0, 56, 62
1, 448134, Control_c, 0, 64, 62
1, 448135, Note_off_c, 0, 90, 63
1, 448149, Control_c, 0, 64, 52
1, 448165, Control_c, 0, 64, 0
1, 448220, Note_on_c, 0, 63, 57
1, 448220, Note_on_c, 0, 91, 94
1, 448222, Note_on_c, 0, 67, 62
1, 448230, Note_on_c, 0, 55, 61
1, 448232, Note_on_c, 0, 60, 29
1, 448246, Control_c, 0, 64, 47
1, 448260, Control_c, 0, 64, 68
1, 448275, Control_c, 0, 64, 74
1, 448290, Control_c, 0, 64, 78
1, 448292, Note_off_c, 0, 91, 58
1, 448305, Control_c, 0, 64, 80
1, 448320, Control_c, 0, 64, 83
1, 448335, Control_c, 0, 64, 86
1, 448350, Control_c, 0, 64, 89
1, 448353, Note_on_c, 0, 79, 72
1, 448365, Control_c, 0, 64, 91
1, 448370, Note_off_c, 0, 67, 48
1, 448379, Control_c, 0, 64, 93
1, 448384, Note_off_c, 0, 63, 61
1, 448388, Note_off_c, 0, 60, 49
1, 448394, Control_c, 0, 64, 94
1, 448405, Note_off_c, 0, 55, 61
1, 448409, Control_c, 0, 64, 95
1, 448424, Control_c, 0, 64, 95
1, 448440, Note_off_c, 0, 79, 50
1, 448454, Control_c, 0, 64, 96
1, 448468, Control_c, 0, 64, 96
1, 448476, Note_on_c, 0, 80, 78
1, 448483, Control_c, 0, 64, 97
1, 448588, Note_off_c, 0, 80, 56
1, 448600, Note_on_c, 0, 79, 73
1, 448635, Note_off_c, 0, 79, 61
1, 448778, Control_c, 0, 64, 96
1, 448793, Control_c, 0, 64, 93
1, 448794, Note_on_c, 0, 80, 83
1, 448804, Note_on_c, 0, 74, 69
1, 448808, Control_c, 0, 64, 87
1, 448815, Note_on_c, 0, 65, 42
1, 448823, Note_on_c, 0, 56, 44
1, 448823, Control_c, 0, 64, 78
1, 448824, Note_on_c, 0, 53, 40
1, 448828, Note_on_c, 0, 60, 37
1, 448837, Control_c, 0, 64, 69
1, 448852, Control_c, 0, 64, 32
1, 448867, Control_c, 0, 64, 0
1, 448925, Note_off_c, 0, 74, 56
1, 448979, Note_on_c, 0, 72, 54
1, 449041, Note_off_c, 0, 72, 45
1, 449122, Note_on_c, 0, 74, 46
1, 449223, Note_off_c, 0, 74, 55
1, 449247, Note_on_c, 0, 72, 50
1, 449333, Note_off_c, 0, 72, 49
1, 449368, Note_on_c, 0, 74, 45
1, 449394, Control_c, 0, 64, 24
1, 449400, Note_off_c, 0, 60, 23
1, 449408, Control_c, 0, 64, 26
1, 449438, Control_c, 0, 64, 25
1, 449473, Note_off_c, 0, 56, 29
1, 449473, Note_off_c, 0, 74, 56
1, 449479, Note_off_c, 0, 53, 40
1, 449482, Control_c, 0, 64, 26
1, 449483, Note_off_c, 0, 65, 39
1, 449497, Note_on_c, 0, 72, 42
1, 449557, Control_c, 0, 64, 27
1, 449599, Note_off_c, 0, 72, 51
1, 449631, Control_c, 0, 64, 29
1, 449633, Note_on_c, 0, 74, 43
1, 449646, Control_c, 0, 64, 33
1, 449660, Control_c, 0, 64, 34
1, 449727, Control_c, 0, 64, 35
1, 449745, Note_off_c, 0, 74, 56
1, 449766, Note_on_c, 0, 72, 43
1, 449825, Note_off_c, 0, 80, 31
1, 449878, Note_off_c, 0, 72, 55
1, 449886, Note_on_c, 0, 74, 47
1, 449891, Control_c, 0, 64, 36
1, 449935, Control_c, 0, 64, 36
1, 449950, Control_c, 0, 64, 39
1, 449965, Control_c, 0, 64, 41
1, 449980, Control_c, 0, 64, 42
1, 449986, Note_off_c, 0, 74, 57
1, 450018, Note_on_c, 0, 72, 49
1, 450054, Control_c, 0, 64, 43
1, 450069, Control_c, 0, 64, 44
1, 450116, Note_off_c, 0, 72, 50
1, 450144, Note_on_c, 0, 74, 42
1, 450232, Note_on_c, 0, 80, 59
1, 450234, Note_off_c, 0, 74, 53
1, 450242, Note_on_c, 0, 65, 43
1, 450253, Note_on_c, 0, 72, 42
1, 450273, Note_off_c, 0, 65, 57
1, 450290, Note_off_c, 0, 72, 47
1, 450347, Note_off_c, 0, 80, 55
1, 450358, Note_on_c, 0, 68, 51
1, 450362, Note_on_c, 0, 77, 55
1, 450365, Note_on_c, 0, 74, 46
1, 450394, Control_c, 0, 64, 43
1, 450398, Note_off_c, 0, 68, 62
1, 450439, Note_off_c, 0, 74, 55
1, 450457, Note_off_c, 0, 77, 46
1, 450490, Note_on_c, 0, 72, 45
1, 450553, Note_off_c, 0, 72, 53
1, 450579, Control_c, 0, 64, 44
1, 450594, Control_c, 0, 64, 44
1, 450606, Note_on_c, 0, 74, 37
1, 450684, Control_c, 0, 64, 45
1, 450696, Note_off_c, 0, 74, 59
1, 450699, Control_c, 0, 64, 45
1, 450713, Control_c, 0, 64, 46
1, 450735, Note_on_c, 0, 72, 40
1, 450829, Note_off_c, 0, 72, 40
1, 450861, Control_c, 0, 64, 46
1, 450863, Note_on_c, 0, 67, 37
1, 450863, Note_on_c, 0, 79, 52
1, 450863, Note_on_c, 0, 74, 43
1, 450876, Control_c, 0, 64, 47
1, 450920, Control_c, 0, 64, 48
1, 450931, Note_off_c, 0, 67, 58
1, 450937, Note_off_c, 0, 74, 54
1, 450979, Control_c, 0, 64, 47
1, 450982, Note_on_c, 0, 72, 47
1, 451020, Note_off_c, 0, 79, 32
1, 451077, Note_off_c, 0, 72, 51
1, 451108, Note_on_c, 0, 74, 45
1, 451128, Control_c, 0, 64, 48
1, 451210, Note_off_c, 0, 74, 58
1, 451234, Note_on_c, 0, 72, 48
1, 451268, Control_c, 0, 64, 47
1, 451350, Note_off_c, 0, 72, 53
1, 451368, Note_on_c, 0, 74, 46
1, 451417, Control_c, 0, 64, 48
1, 451448, Note_off_c, 0, 74, 60
1, 451462, Control_c, 0, 64, 48
1, 451492, Note_on_c, 0, 72, 45
1, 451492, Control_c, 0, 64, 49
1, 451599, Note_off_c, 0, 72, 58
1, 451620, Note_on_c, 0, 74, 43
1, 451712, Note_on_c, 0, 65, 37
1, 451714, Control_c, 0, 64, 50
1, 451717, Note_off_c, 0, 74, 54
1, 451722, Note_on_c, 0, 80, 60
1, 451736, Note_on_c, 0, 72, 45
1, 451743, Control_c, 0, 64, 51
1, 451764, Note_off_c, 0, 65, 48
1, 451775, Note_off_c, 0, 72, 49
1, 451815, Note_off_c, 0, 80, 58
1, 451835, Note_on_c, 0, 68, 58
1, 451841, Note_on_c, 0, 74, 56
1, 451841, Note_on_c, 0, 77, 54
1, 451846, Control_c, 0, 64, 50
1, 451874, Note_off_c, 0, 68, 60
1, 451900, Note_off_c, 0, 74, 57
1, 451968, Note_off_c, 0, 77, 36
1, 451973, Note_on_c, 0, 72, 44
1, 452047, Note_off_c, 0, 72, 50
1, 452091, Note_on_c, 0, 74, 44
1, 452156, Note_off_c, 0, 74, 56
1, 452201, Note_on_c, 0, 72, 45
1, 452272, Note_off_c, 0, 72, 48
1, 452323, Note_on_c, 0, 67, 38
1, 452323, Note_on_c, 0, 74, 44
1, 452326, Note_on_c, 0, 79, 52
1, 452377, Note_off_c, 0, 67, 60
1, 452386, Note_off_c, 0, 74, 56
1, 452440, Note_on_c, 0, 72, 49
1, 452463, Control_c, 0, 64, 50
1, 452467, Note_off_c, 0, 79, 33
1, 452544, Note_off_c, 0, 72, 56
1, 452565, Note_on_c, 0, 74, 48
1, 452651, Note_off_c, 0, 74, 59
1, 452685, Note_on_c, 0, 72, 51
1, 452786, Note_off_c, 0, 72, 52
1, 452800, Note_on_c, 0, 74, 48
1, 452884, Note_off_c, 0, 74, 61
1, 452899, Control_c, 0, 64, 50
1, 452926, Note_on_c, 0, 72, 46
1, 452929, Control_c, 0, 64, 51
1, 453030, Note_off_c, 0, 72, 57
1, 453052, Note_on_c, 0, 74, 42
1, 453078, Control_c, 0, 64, 51
1, 453093, Control_c, 0, 64, 52
1, 453137, Control_c, 0, 64, 52
1, 453150, Note_on_c, 0, 80, 65
1, 453152, Control_c, 0, 64, 53
1, 453156, Note_on_c, 0, 65, 10
1, 453158, Note_off_c, 0, 74, 58
1, 453168, Note_on_c, 0, 72, 45
1, 453197, Control_c, 0, 64, 53
1, 453199, Note_off_c, 0, 72, 53
1, 453200, Note_off_c, 0, 65, 52
1, 453242, Note_off_c, 0, 80, 54
1, 453255, Note_on_c, 0, 68, 66
1, 453268, Note_on_c, 0, 77, 54
1, 453281, Note_on_c, 0, 74, 52
1, 453289, Note_off_c, 0, 68, 62
1, 453327, Note_off_c, 0, 74, 58
1, 453374, Control_c, 0, 64, 53
1, 453390, Note_on_c, 0, 72, 48
1, 453405, Note_off_c, 0, 77, 36
1, 453426, Control_c, 0, 64, 52
1, 453477, Note_off_c, 0, 72, 45
1, 453510, Note_on_c, 0, 74, 48
1, 453594, Note_off_c, 0, 74, 58
1, 453618, Note_on_c, 0, 72, 51
1, 453670, Note_off_c, 0, 72, 53
1, 453722, Control_c, 0, 64, 53
1, 453737, Control_c, 0, 64, 53
1, 453739, Note_on_c, 0, 79, 54
1, 453744, Note_on_c, 0, 74, 45
1, 453754, Note_on_c, 0, 67, 38
1, 453783, Control_c, 0, 64, 54
1, 453797, Control_c, 0, 64, 54
1, 453812, Control_c, 0, 64, 55
1, 453832, Note_off_c, 0, 67, 59
1, 453836, Note_off_c, 0, 74, 56
1, 453878, Note_on_c, 0, 71, 40
1, 453913, Note_off_c, 0, 79, 48
1, 453938, Note_off_c, 0, 71, 52
1, 453972, Note_on_c, 0, 74, 50
1, 454046, Note_off_c, 0, 74, 61
1, 454064, Control_c, 0, 64, 56
1, 454092, Note_on_c, 0, 71, 44
1, 454138, Control_c, 0, 64, 55
1, 454143, Note_off_c, 0, 71, 56
1, 454153, Control_c, 0, 64, 54
1, 454175, Control_c, 0, 64, 52
1, 454190, Control_c, 0, 64, 50
1, 454204, Control_c, 0, 64, 44
1, 454216, Note_on_c, 0, 60, 42
1, 454219, Control_c, 0, 64, 30
1, 454225, Note_on_c, 0, 72, 56
1, 454234, Control_c, 0, 64, 0
1, 454323, Note_off_c, 0, 72, 60
1, 454346, Note_on_c, 0, 75, 59
1, 454378, Note_off_c, 0, 60, 36
1, 454452, Note_off_c, 0, 75, 61
1, 454455, Note_on_c, 0, 79, 59
1, 454575, Note_on_c, 0, 75, 64
1, 454580, Note_off_c, 0, 79, 53
1, 454592, Control_c, 0, 64, 13
1, 454607, Control_c, 0, 64, 26
1, 454621, Control_c, 0, 64, 29
1, 454693, Note_on_c, 0, 72, 64
1, 454695, Control_c, 0, 64, 30
1, 454704, Note_off_c, 0, 75, 59
1, 454725, Control_c, 0, 64, 29
1, 454769, Control_c, 0, 64, 30
1, 454784, Control_c, 0, 64, 31
1, 454796, Note_off_c, 0, 72, 61
1, 454815, Note_on_c, 0, 75, 59
1, 454872, Control_c, 0, 64, 32
1, 454940, Note_on_c, 0, 72, 62
1, 454954, Control_c, 0, 64, 33
1, 454965, Note_off_c, 0, 75, 61
1, 454969, Control_c, 0, 64, 34
1, 455015, Note_off_c, 0, 72, 64
1, 455043, Note_on_c, 0, 67, 65
1, 455117, Control_c, 0, 64, 35
1, 455123, Note_off_c, 0, 67, 59
1, 455132, Control_c, 0, 64, 36
1, 455146, Control_c, 0, 64, 36
1, 455169, Note_on_c, 0, 63, 67
1, 455265, Control_c, 0, 64, 36
1, 455284, Note_off_c, 0, 63, 60
1, 455287, Note_on_c, 0, 67, 49
1, 455355, Control_c, 0, 64, 35
1, 455406, Note_off_c, 0, 67, 54
1, 455408, Note_on_c, 0, 63, 58
1, 455413, Control_c, 0, 64, 34
1, 455495, Note_off_c, 0, 63, 61
1, 455502, Control_c, 0, 64, 34
1, 455520, Note_on_c, 0, 60, 49
1, 455569, Note_off_c, 0, 60, 55
1, 455635, Control_c, 0, 64, 34
1, 455641, Note_on_c, 0, 62, 56
1, 455688, Control_c, 0, 64, 35
1, 455702, Control_c, 0, 64, 36
1, 455727, Note_off_c, 0, 62, 57
1, 455732, Control_c, 0, 64, 36
1, 455762, Control_c, 0, 64, 37
1, 455764, Note_on_c, 0, 60, 45
1, 455791, Control_c, 0, 64, 38
1, 455857, Note_off_c, 0, 60, 50
1, 455880, Control_c, 0, 64, 38
1, 455900, Note_on_c, 0, 62, 52
1, 455924, Control_c, 0, 64, 38
1, 455988, Note_off_c, 0, 62, 52
1, 455999, Control_c, 0, 64, 38
1, 456005, Note_on_c, 0, 60, 48
1, 456006, Note_on_c, 0, 44, 46
1, 456059, Note_off_c, 0, 44, 59
1, 456073, Control_c, 0, 64, 39
1, 456088, Control_c, 0, 64, 39
1, 456115, Note_on_c, 0, 41, 60
1, 456132, Control_c, 0, 64, 40
1, 456148, Note_off_c, 0, 60, 50
1, 456148, Control_c, 0, 64, 41
1, 456154, Note_on_c, 0, 62, 52
1, 456163, Control_c, 0, 64, 42
1, 456222, Control_c, 0, 64, 42
1, 456222, Note_off_c, 0, 41, 50
1, 456258, Note_off_c, 0, 62, 55
1, 456281, Note_on_c, 0, 60, 47
1, 456281, Control_c, 0, 64, 43
1, 456311, Control_c, 0, 64, 43
1, 456370, Control_c, 0, 64, 45
1, 456385, Control_c, 0, 64, 46
1, 456399, Control_c, 0, 64, 47
1, 456407, Note_off_c, 0, 60, 54
1, 456428, Note_on_c, 0, 62, 47
1, 456466, Control_c, 0, 64, 48
1, 456481, Control_c, 0, 64, 49
1, 456518, Note_on_c, 0, 68, 57
1, 456526, Note_off_c, 0, 62, 55
1, 456555, Control_c, 0, 64, 48
1, 456570, Control_c, 0, 64, 46
1, 456585, Control_c, 0, 64, 38
1, 456599, Control_c, 0, 64, 0
1, 456639, Note_off_c, 0, 68, 55
1, 456643, Poly_aftertouch_c, 0, 60, 0
1, 456650, Note_on_c, 0, 65, 54
1, 456660, Note_on_c, 0, 62, 49
1, 456661, Note_on_c, 0, 43, 40
1, 456718, Control_c, 0, 64, 63
1, 456732, Control_c, 0, 64, 67
1, 456737, Note_off_c, 0, 62, 50
1, 456747, Control_c, 0, 64, 70
1, 456762, Control_c, 0, 64, 72
1, 456774, Note_off_c, 0, 65, 56
1, 456777, Control_c, 0, 64, 74
1, 456782, Note_on_c, 0, 60, 44
1, 456792, Control_c, 0, 64, 76
1, 456806, Control_c, 0, 64, 78
1, 456821, Control_c, 0, 64, 78
1, 456836, Control_c, 0, 64, 79
1, 456849, Note_off_c, 0, 60, 48
1, 456887, Note_off_c, 0, 43, 37
1, 456914, Note_on_c, 0, 67, 52
1, 456915, Note_on_c, 0, 62, 47
1, 456955, Control_c, 0, 64, 78
1, 456970, Control_c, 0, 64, 76
1, 456976, Note_off_c, 0, 62, 56
1, 456985, Control_c, 0, 64, 71
1, 457000, Control_c, 0, 64, 64
1, 457015, Control_c, 0, 64, 31
1, 457029, Note_off_c, 0, 67, 37
1, 457030, Control_c, 0, 64, 0
1, 457031, Note_on_c, 0, 60, 44
1, 457131, Note_off_c, 0, 60, 46
1, 457178, Note_on_c, 0, 62, 52
1, 457251, Note_off_c, 0, 62, 56
1, 457285, Note_on_c, 0, 60, 47
1, 457371, Note_off_c, 0, 60, 47
1, 457418, Note_on_c, 0, 62, 48
1, 457504, Note_on_c, 0, 44, 45
1, 457513, Note_off_c, 0, 62, 57
1, 457540, Note_on_c, 0, 60, 48
1, 457564, Note_off_c, 0, 44, 57
1, 457645, Note_off_c, 0, 60, 52
1, 457657, Note_on_c, 0, 41, 48
1, 457661, Note_on_c, 0, 62, 54
1, 457752, Note_off_c, 0, 62, 58
1, 457772, Note_off_c, 0, 41, 38
1, 457778, Note_on_c, 0, 60, 52
1, 457868, Note_off_c, 0, 60, 50
1, 457896, Note_on_c, 0, 62, 48
1, 458010, Note_on_c, 0, 68, 59
1, 458014, Note_off_c, 0, 62, 58
1, 458017, Note_on_c, 0, 60, 45
1, 458077, Note_off_c, 0, 60, 46
1, 458127, Note_off_c, 0, 68, 46
1, 458147, Note_on_c, 0, 62, 49
1, 458152, Note_on_c, 0, 65, 50
1, 458173, Note_on_c, 0, 43, 38
1, 458216, Control_c, 0, 64, 54
1, 458231, Control_c, 0, 64, 64
1, 458239, Note_off_c, 0, 62, 54
1, 458246, Control_c, 0, 64, 65
1, 458260, Note_off_c, 0, 65, 57
1, 458261, Control_c, 0, 64, 66
1, 458276, Control_c, 0, 64, 68
1, 458280, Note_on_c, 0, 60, 45
1, 458290, Control_c, 0, 64, 70
1, 458305, Control_c, 0, 64, 71
1, 458320, Control_c, 0, 64, 73
1, 458350, Control_c, 0, 64, 73
1, 458351, Note_off_c, 0, 60, 46
1, 458377, Note_off_c, 0, 43, 38
1, 458404, Note_on_c, 0, 62, 41
1, 458404, Note_on_c, 0, 67, 49
1, 458438, Control_c, 0, 64, 73
1, 458453, Control_c, 0, 64, 71
1, 458466, Note_off_c, 0, 62, 56
1, 458468, Control_c, 0, 64, 68
1, 458483, Control_c, 0, 64, 60
1, 458492, Note_off_c, 0, 67, 38
1, 458497, Control_c, 0, 64, 0
1, 458518, Note_on_c, 0, 60, 46
1, 458589, Note_off_c, 0, 60, 46
1, 458654, Note_on_c, 0, 62, 47
1, 458739, Note_off_c, 0, 62, 54
1, 458776, Note_on_c, 0, 60, 42
1, 458868, Note_off_c, 0, 60, 41
1, 458904, Note_on_c, 0, 62, 45
1, 459001, Note_off_c, 0, 62, 56
1, 459024, Note_on_c, 0, 44, 39
1, 459030, Note_on_c, 0, 60, 44
1, 459084, Note_off_c, 0, 44, 63
1, 459133, Note_off_c, 0, 60, 52
1, 459141, Note_on_c, 0, 41, 44
1, 459151, Note_on_c, 0, 62, 49
1, 459202, Note_off_c, 0, 41, 55
1, 459240, Note_off_c, 0, 62, 58
1, 459270, Note_on_c, 0, 60, 48
1, 459373, Note_off_c, 0, 60, 51
1, 459393, Note_on_c, 0, 62, 45
1, 459497, Note_off_c, 0, 62, 55
1, 459504, Note_on_c, 0, 68, 55
1, 459513, Note_on_c, 0, 60, 45
1, 459594, Note_off_c, 0, 60, 32
1, 459606, Note_off_c, 0, 68, 50
1, 459640, Note_on_c, 0, 62, 42
1, 459641, Note_on_c, 0, 65, 49
1, 459716, Note_off_c, 0, 62, 54
1, 459753, Note_on_c, 0, 60, 53
1, 459758, Note_off_c, 0, 65, 38
1, 459839, Note_off_c, 0, 60, 50
1, 459871, Note_on_c, 0, 62, 48
1, 459951, Note_off_c, 0, 62, 57
1, 459981, Note_on_c, 0, 60, 51
1, 460043, Note_off_c, 0, 60, 52
1, 460110, Note_on_c, 0, 62, 42
1, 460197, Note_off_c, 0, 62, 56
1, 460244, Note_on_c, 0, 59, 42
1, 460327, Note_off_c, 0, 59, 49
1, 460363, Note_on_c, 0, 62, 42
1, 460441, Note_off_c, 0, 62, 56
1, 460478, Note_on_c, 0, 59, 49
1, 460501, Note_on_c, 0, 43, 41
1, 460589, Note_off_c, 0, 43, 41
1, 460591, Note_off_c, 0, 59, 37
1, 460611, Note_on_c, 0, 62, 53
1, 460614, Note_on_c, 0, 31, 53
1, 460700, Note_off_c, 0, 31, 51
1, 460705, Note_off_c, 0, 62, 53
1, 460720, Note_on_c, 0, 59, 47
1, 460813, Note_off_c, 0, 59, 54
1, 460839, Note_on_c, 0, 62, 53
1, 460939, Note_off_c, 0, 62, 57
1, 460957, Note_on_c, 0, 59, 48
1, 460963, Note_on_c, 0, 66, 56
1, 461004, Note_off_c, 0, 59, 48
1, 461065, Note_off_c, 0, 66, 36
1, 461083, Note_on_c, 0, 62, 51
1, 461102, Note_on_c, 0, 67, 51
1, 461153, Note_off_c, 0, 62, 57
1, 461197, Control_c, 0, 64, 50
1, 461212, Control_c, 0, 64, 61
1, 461227, Control_c, 0, 64, 63
1, 461233, Note_on_c, 0, 59, 40
1, 461241, Control_c, 0, 64, 63
1, 461256, Control_c, 0, 64, 64
1, 461271, Control_c, 0, 64, 65
1, 461273, Note_off_c, 0, 67, 38
1, 461286, Control_c, 0, 64, 66
1, 461298, Note_off_c, 0, 59, 52
1, 461301, Control_c, 0, 64, 66
1, 461315, Control_c, 0, 64, 67
1, 461321, Note_on_c, 0, 62, 46
1, 461330, Control_c, 0, 64, 67
1, 461345, Control_c, 0, 64, 68
1, 461374, Control_c, 0, 64, 68
1, 461415, Note_off_c, 0, 62, 54
1, 461443, Note_on_c, 0, 59, 47
1, 461493, Note_off_c, 0, 59, 59
1, 461567, Control_c, 0, 64, 67
1, 461582, Control_c, 0, 64, 63
1, 461597, Control_c, 0, 64, 31
1, 461612, Control_c, 0, 64, 0
1, 461615, Note_on_c, 0, 67, 52
1, 461621, Note_on_c, 0, 36, 31
1, 461678, Control_c, 0, 64, 24
1, 461693, Control_c, 0, 64, 61
1, 461704, Note_off_c, 0, 67, 53
1, 461708, Control_c, 0, 64, 65
1, 461713, Poly_aftertouch_c, 0, 60, 127
1, 461722, Control_c, 0, 64, 68
1, 461726, Note_on_c, 0, 63, 48
1, 461738, Control_c, 0, 64, 70
1, 461753, Control_c, 0, 64, 73
1, 461768, Control_c, 0, 64, 75
1, 461775, Poly_aftertouch_c, 0, 60, 0
1, 461782, Note_off_c, 0, 63, 58
1, 461783, Control_c, 0, 64, 77
1, 461797, Control_c, 0, 64, 78
1, 461812, Control_c, 0, 64, 79
1, 461819, Note_on_c, 0, 67, 51
1, 461827, Control_c, 0, 64, 80
1, 461842, Control_c, 0, 64, 81
1, 461855, Note_off_c, 0, 36, 40
1, 461857, Control_c, 0, 64, 81
1, 461867, Note_off_c, 0, 67, 61
1, 461871, Control_c, 0, 64, 82
1, 461894, Note_on_c, 0, 60, 22
1, 461901, Note_on_c, 0, 63, 49
1, 461901, Control_c, 0, 64, 82
1, 461940, Note_off_c, 0, 60, 45
1, 461953, Note_off_c, 0, 63, 45
1, 461975, Note_on_c, 0, 67, 56
1, 462019, Note_on_c, 0, 43, 47
1, 462025, Note_off_c, 0, 67, 57
1, 462057, Note_on_c, 0, 63, 59
1, 462078, Note_off_c, 0, 43, 58
1, 462106, Note_off_c, 0, 63, 52
1, 462109, Control_c, 0, 64, 81
1, 462124, Control_c, 0, 64, 77
1, 462127, Note_on_c, 0, 39, 53
1, 462132, Note_on_c, 0, 67, 62
1, 462137, Poly_aftertouch_c, 0, 60, 0
1, 462138, Control_c, 0, 64, 67
1, 462153, Control_c, 0, 64, 0
1, 462190, Note_off_c, 0, 67, 59
1, 462212, Control_c, 0, 64, 60
1, 462219, Note_on_c, 0, 63, 49
1, 462227, Control_c, 0, 64, 67
1, 462242, Control_c, 0, 64, 71
1, 462257, Control_c, 0, 64, 75
1, 462262, Note_off_c, 0, 63, 54
1, 462271, Control_c, 0, 64, 78
1, 462286, Control_c, 0, 64, 80
1, 462287, Note_on_c, 0, 67, 54
1, 462301, Control_c, 0, 64, 81
1, 462316, Control_c, 0, 64, 83
1, 462330, Control_c, 0, 64, 84
1, 462337, Note_off_c, 0, 67, 59
1, 462345, Control_c, 0, 64, 85
1, 462370, Note_on_c, 0, 63, 57
1, 462375, Control_c, 0, 64, 86
1, 462378, Note_off_c, 0, 39, 27
1, 462390, Control_c, 0, 64, 86
1, 462412, Control_c, 0, 64, 87
1, 462424, Note_off_c, 0, 63, 48
1, 462448, Note_on_c, 0, 67, 63
1, 462458, Poly_aftertouch_c, 0, 60, 0
1, 462509, Note_off_c, 0, 67, 60
1, 462522, Note_on_c, 0, 48, 54
1, 462525, Note_on_c, 0, 63, 63
1, 462528, Note_on_c, 0, 60, 34
1, 462553, Note_off_c, 0, 48, 65
1, 462576, Note_off_c, 0, 60, 46
1, 462586, Note_off_c, 0, 63, 60
1, 462591, Note_on_c, 0, 67, 59
1, 462591, Control_c, 0, 64, 84
1, 462606, Control_c, 0, 64, 76
1, 462617, Note_on_c, 0, 43, 64
1, 462620, Control_c, 0, 64, 65
1, 462635, Control_c, 0, 64, 0
1, 462659, Note_off_c, 0, 67, 61
1, 462680, Control_c, 0, 64, 57
1, 462681, Note_on_c, 0, 63, 55
1, 462687, Note_on_c, 0, 60, 43
1, 462694, Control_c, 0, 64, 68
1, 462709, Control_c, 0, 64, 72
1, 462719, Note_off_c, 0, 60, 52
1, 462724, Control_c, 0, 64, 76
1, 462738, Note_off_c, 0, 63, 59
1, 462739, Control_c, 0, 64, 79
1, 462748, Note_on_c, 0, 67, 63
1, 462754, Control_c, 0, 64, 81
1, 462761, Note_off_c, 0, 43, 51
1, 462768, Control_c, 0, 64, 82
1, 462783, Control_c, 0, 64, 84
1, 462798, Control_c, 0, 64, 85
1, 462813, Control_c, 0, 64, 86
1, 462819, Note_off_c, 0, 67, 61
1, 462828, Control_c, 0, 64, 86
1, 462834, Note_on_c, 0, 60, 45
1, 462839, Note_on_c, 0, 63, 61
1, 462841, Control_c, 0, 64, 87
1, 462871, Control_c, 0, 64, 87
1, 462876, Note_off_c, 0, 60, 51
1, 462894, Note_off_c, 0, 63, 53
1, 462900, Control_c, 0, 64, 88
1, 462914, Note_on_c, 0, 67, 64
1, 462959, Control_c, 0, 64, 88
1, 462983, Note_off_c, 0, 67, 61
1, 462993, Note_on_c, 0, 51, 67
1, 463003, Note_on_c, 0, 60, 45
1, 463004, Note_on_c, 0, 63, 64
1, 463027, Note_off_c, 0, 51, 63
1, 463044, Note_off_c, 0, 60, 58
1, 463048, Control_c, 0, 64, 87
1, 463060, Note_off_c, 0, 63, 60
1, 463063, Control_c, 0, 64, 81
1, 463066, Note_on_c, 0, 67, 63
1, 463078, Control_c, 0, 64, 69
1, 463081, Note_on_c, 0, 48, 75
1, 463093, Control_c, 0, 64, 0
1, 463138, Control_c, 0, 64, 31
1, 463140, Note_off_c, 0, 67, 62
1, 463153, Control_c, 0, 64, 66
1, 463165, Note_on_c, 0, 63, 56
1, 463168, Note_on_c, 0, 60, 39
1, 463174, Control_c, 0, 64, 73
1, 463189, Control_c, 0, 64, 79
1, 463204, Control_c, 0, 64, 83
1, 463209, Note_off_c, 0, 60, 46
1, 463218, Control_c, 0, 64, 85
1, 463224, Note_off_c, 0, 63, 59
1, 463231, Note_on_c, 0, 67, 64
1, 463233, Control_c, 0, 64, 87
1, 463248, Control_c, 0, 64, 89
1, 463263, Control_c, 0, 64, 91
1, 463278, Control_c, 0, 64, 93
1, 463293, Control_c, 0, 64, 94
1, 463308, Control_c, 0, 64, 95
1, 463311, Note_off_c, 0, 67, 60
1, 463335, Note_on_c, 0, 63, 64
1, 463335, Note_on_c, 0, 60, 42
1, 463338, Control_c, 0, 64, 96
1, 463353, Control_c, 0, 64, 96
1, 463376, Note_off_c, 0, 60, 46
1, 463376, Note_off_c, 0, 63, 58
1, 463411, Note_on_c, 0, 67, 56
1, 463412, Control_c, 0, 64, 97
1, 463466, Note_off_c, 0, 67, 58
1, 463466, Note_off_c, 0, 48, 63
1, 463468, Note_on_c, 0, 55, 56
1, 463482, Note_on_c, 0, 63, 49
1, 463497, Note_off_c, 0, 55, 66
1, 463506, Note_off_c, 0, 63, 57
1, 463519, Poly_aftertouch_c, 0, 60, 0
1, 463546, Control_c, 0, 64, 96
1, 463561, Control_c, 0, 64, 91
1, 463569, Note_on_c, 0, 72, 75
1, 463576, Control_c, 0, 64, 79
1, 463577, Note_on_c, 0, 51, 73
1, 463590, Control_c, 0, 64, 57
1, 463605, Control_c, 0, 64, 0
1, 463649, Control_c, 0, 64, 64
1, 463659, Note_off_c, 0, 72, 62
1, 463663, Note_on_c, 0, 67, 60
1, 463664, Control_c, 0, 64, 72
1, 463679, Note_on_c, 0, 63, 10
1, 463679, Control_c, 0, 64, 80
1, 463694, Control_c, 0, 64, 84
1, 463708, Control_c, 0, 64, 85
1, 463723, Control_c, 0, 64, 87
1, 463728, Note_off_c, 0, 63, 50
1, 463738, Control_c, 0, 64, 89
1, 463742, Note_on_c, 0, 72, 66
1, 463748, Note_off_c, 0, 67, 60
1, 463752, Control_c, 0, 64, 91
1, 463767, Control_c, 0, 64, 93
1, 463782, Control_c, 0, 64, 94
1, 463797, Control_c, 0, 64, 95
1, 463812, Control_c, 0, 64, 95
1, 463821, Note_off_c, 0, 72, 64
1, 463825, Note_on_c, 0, 63, 58
1, 463826, Control_c, 0, 64, 96
1, 463829, Note_on_c, 0, 67, 58
1, 463841, Control_c, 0, 64, 97
1, 463856, Control_c, 0, 64, 97
1, 463871, Control_c, 0, 64, 98
1, 463872, Note_off_c, 0, 51, 32
1, 463872, Note_off_c, 0, 63, 56
1, 463897, Note_on_c, 0, 72, 65
1, 463897, Note_off_c, 0, 67, 62
1, 463908, Control_c, 0, 64, 98
1, 463941, Note_on_c, 0, 60, 55
1, 463961, Note_off_c, 0, 60, 62
1, 463981, Note_on_c, 0, 63, 69
1, 463982, Control_c, 0, 64, 99
1, 463984, Note_off_c, 0, 72, 64
1, 463985, Note_on_c, 0, 67, 67
1, 464032, Note_off_c, 0, 63, 56
1, 464068, Note_off_c, 0, 67, 57
1, 464071, Note_on_c, 0, 43, 82
1, 464071, Note_on_c, 0, 71, 75
1, 464071, Control_c, 0, 64, 95
1, 464086, Control_c, 0, 64, 85
1, 464101, Control_c, 0, 64, 69
1, 464116, Control_c, 0, 64, 0
1, 464146, Note_off_c, 0, 71, 57
1, 464175, Note_on_c, 0, 62, 61
1, 464175, Note_on_c, 0, 67, 56
1, 464176, Control_c, 0, 64, 50
1, 464191, Control_c, 0, 64, 68
1, 464205, Control_c, 0, 64, 75
1, 464220, Control_c, 0, 64, 81
1, 464223, Note_off_c, 0, 62, 54
1, 464233, Note_on_c, 0, 71, 74
1, 464233, Note_off_c, 0, 67, 59
1, 464235, Control_c, 0, 64, 84
1, 464250, Control_c, 0, 64, 87
1, 464265, Control_c, 0, 64, 89
1, 464280, Control_c, 0, 64, 92
1, 464294, Control_c, 0, 64, 95
1, 464309, Control_c, 0, 64, 97
1, 464311, Note_off_c, 0, 71, 59
1, 464324, Note_on_c, 0, 62, 67
1, 464324, Control_c, 0, 64, 98
1, 464327, Note_on_c, 0, 67, 63
1, 464339, Control_c, 0, 64, 100
1, 464354, Control_c, 0, 64, 101
1, 464369, Control_c, 0, 64, 102
1, 464371, Note_off_c, 0, 62, 53
1, 464381, Note_on_c, 0, 71, 59
1, 464384, Control_c, 0, 64, 103
1, 464390, Note_off_c, 0, 67, 60
1, 464399, Control_c, 0, 64, 104
1, 464414, Control_c, 0, 64, 104
1, 464429, Control_c, 0, 64, 105
1, 464444, Control_c, 0, 64, 105
1, 464455, Note_off_c, 0, 43, 52
1, 464457, Note_on_c, 0, 67, 61
1, 464458, Note_on_c, 0, 62, 65
1, 464458, Control_c, 0, 64, 106
1, 464461, Note_on_c, 0, 53, 65
1, 464473, Control_c, 0, 64, 106
1, 464488, Control_c, 0, 64, 107
1, 464489, Note_off_c, 0, 53, 68
1, 464489, Note_off_c, 0, 62, 65
1, 464489, Note_off_c, 0, 67, 65
1, 464497, Note_off_c, 0, 71, 59
1, 464562, Control_c, 0, 64, 105
1, 464575, Note_on_c, 0, 48, 86
1, 464576, Control_c, 0, 64, 97
1, 464587, Note_on_c, 0, 79, 77
1, 464591, Control_c, 0, 64, 82
1, 464606, Control_c, 0, 64, 62
1, 464621, Control_c, 0, 64, 0
1, 464673, Control_c, 0, 64, 60
1, 464681, Note_off_c, 0, 79, 58
1, 464687, Note_on_c, 0, 75, 73
1, 464688, Control_c, 0, 64, 71
1, 464703, Control_c, 0, 64, 78
1, 464718, Control_c, 0, 64, 83
1, 464732, Control_c, 0, 64, 87
1, 464747, Control_c, 0, 64, 90
1, 464748, Note_off_c, 0, 75, 62
1, 464751, Note_on_c, 0, 79, 72
1, 464762, Control_c, 0, 64, 93
1, 464777, Control_c, 0, 64, 96
1, 464791, Control_c, 0, 64, 100
1, 464806, Control_c, 0, 64, 103
1, 464821, Control_c, 0, 64, 104
1, 464831, Note_off_c, 0, 48, 53
1, 464834, Note_on_c, 0, 75, 71
1, 464836, Control_c, 0, 64, 105
1, 464839, Note_off_c, 0, 79, 60
1, 464850, Control_c, 0, 64, 106
1, 464852, Note_on_c, 0, 72, 60
1, 464865, Control_c, 0, 64, 107
1, 464880, Control_c, 0, 64, 108
1, 464886, Note_off_c, 0, 72, 54
1, 464903, Note_on_c, 0, 79, 69
1, 464904, Note_off_c, 0, 75, 63
1, 464910, Control_c, 0, 64, 108
1, 464955, Control_c, 0, 64, 109
1, 464973, Note_on_c, 0, 55, 68
1, 464987, Note_on_c, 0, 75, 75
1, 464991, Note_off_c, 0, 79, 62
1, 464995, Note_on_c, 0, 72, 65
1, 465015, Note_off_c, 0, 55, 61
1, 465029, Control_c, 0, 64, 108
1, 465034, Note_off_c, 0, 72, 60
1, 465044, Control_c, 0, 64, 105
1, 465053, Note_on_c, 0, 79, 75
1, 465058, Note_on_c, 0, 51, 77
1, 465059, Control_c, 0, 64, 92
1, 465062, Note_off_c, 0, 75, 63
1, 465074, Control_c, 0, 64, 74
1, 465088, Control_c, 0, 64, 0
1, 465133, Control_c, 0, 64, 62
1, 465141, Note_on_c, 0, 75, 71
1, 465143, Note_off_c, 0, 79, 62
1, 465145, Note_on_c, 0, 72, 65
1, 465148, Control_c, 0, 64, 73
1, 465162, Control_c, 0, 64, 81
1, 465177, Control_c, 0, 64, 88
1, 465178, Note_off_c, 0, 72, 62
1, 465192, Control_c, 0, 64, 90
1, 465206, Note_on_c, 0, 79, 74
1, 465207, Control_c, 0, 64, 93
1, 465211, Note_off_c, 0, 75, 62
1, 465222, Control_c, 0, 64, 96
1, 465236, Control_c, 0, 64, 99
1, 465251, Control_c, 0, 64, 101
1, 465263, Note_off_c, 0, 51, 56
1, 465266, Control_c, 0, 64, 103
1, 465281, Control_c, 0, 64, 104
1, 465293, Note_on_c, 0, 75, 76
1, 465294, Note_on_c, 0, 72, 68
1, 465294, Note_off_c, 0, 79, 63
1, 465296, Control_c, 0, 64, 105
1, 465311, Control_c, 0, 64, 106
1, 465326, Control_c, 0, 64, 106
1, 465341, Control_c, 0, 64, 107
1, 465344, Note_off_c, 0, 72, 56
1, 465355, Control_c, 0, 64, 107
1, 465356, Note_on_c, 0, 79, 75
1, 465369, Note_off_c, 0, 75, 64
1, 465370, Control_c, 0, 64, 108
1, 465385, Control_c, 0, 64, 108
1, 465406, Control_c, 0, 64, 109
1, 465426, Note_on_c, 0, 60, 67
1, 465449, Note_on_c, 0, 75, 73
1, 465451, Note_off_c, 0, 79, 63
1, 465454, Note_off_c, 0, 60, 67
1, 465457, Note_on_c, 0, 72, 75
1, 465496, Control_c, 0, 64, 105
1, 465508, Note_off_c, 0, 72, 57
1, 465511, Control_c, 0, 64, 88
1, 465517, Note_on_c, 0, 79, 79
1, 465520, Note_on_c, 0, 55, 86
1, 465526, Control_c, 0, 64, 68
1, 465527, Note_off_c, 0, 75, 63
1, 465540, Control_c, 0, 64, 0
1, 465585, Control_c, 0, 64, 62
1, 465600, Control_c, 0, 64, 74
1, 465601, Note_on_c, 0, 75, 71
1, 465606, Note_off_c, 0, 79, 62
1, 465611, Note_on_c, 0, 72, 68
1, 465614, Control_c, 0, 64, 82
1, 465629, Control_c, 0, 64, 89
1, 465644, Control_c, 0, 64, 91
1, 465647, Note_off_c, 0, 72, 57
1, 465659, Control_c, 0, 64, 94
1, 465665, Note_on_c, 0, 79, 73
1, 465674, Control_c, 0, 64, 98
1, 465679, Note_off_c, 0, 75, 64
1, 465688, Control_c, 0, 64, 102
1, 465703, Control_c, 0, 64, 105
1, 465716, Note_off_c, 0, 55, 55
1, 465718, Control_c, 0, 64, 107
1, 465734, Control_c, 0, 64, 109
1, 465749, Control_c, 0, 64, 110
1, 465751, Note_on_c, 0, 75, 73
1, 465755, Note_off_c, 0, 79, 63
1, 465756, Note_on_c, 0, 72, 75
1, 465764, Control_c, 0, 64, 111
1, 465778, Control_c, 0, 64, 112
1, 465793, Control_c, 0, 64, 113
1, 465819, Note_off_c, 0, 72, 55
1, 465822, Note_on_c, 0, 79, 80
1, 465823, Control_c, 0, 64, 114
1, 465836, Note_off_c, 0, 75, 66
1, 465836, Control_c, 0, 64, 115
1, 465851, Control_c, 0, 64, 116
1, 465866, Control_c, 0, 64, 117
1, 465881, Control_c, 0, 64, 117
1, 465896, Control_c, 0, 64, 118
1, 465899, Note_on_c, 0, 75, 72
1, 465901, Note_on_c, 0, 63, 58
1, 465904, Note_off_c, 0, 79, 62
1, 465910, Control_c, 0, 64, 118
1, 465913, Note_on_c, 0, 72, 68
1, 465923, Note_off_c, 0, 63, 62
1, 465953, Note_off_c, 0, 72, 57
1, 465970, Control_c, 0, 64, 117
1, 465972, Note_on_c, 0, 79, 84
1, 465977, Note_on_c, 0, 60, 95
1, 465985, Control_c, 0, 64, 106
1, 465985, Note_off_c, 0, 75, 64
1, 466000, Control_c, 0, 64, 87
1, 466014, Control_c, 0, 64, 64
1, 466029, Control_c, 0, 64, 0
1, 466055, Note_on_c, 0, 75, 73
1, 466060, Note_off_c, 0, 79, 62
1, 466066, Note_on_c, 0, 72, 64
1, 466074, Control_c, 0, 64, 65
1, 466089, Control_c, 0, 64, 77
1, 466103, Control_c, 0, 64, 87
1, 466105, Note_off_c, 0, 72, 56
1, 466118, Control_c, 0, 64, 94
1, 466122, Note_on_c, 0, 79, 80
1, 466133, Control_c, 0, 64, 97
1, 466134, Note_off_c, 0, 75, 64
1, 466155, Control_c, 0, 64, 101
1, 466169, Control_c, 0, 64, 106
1, 466184, Control_c, 0, 64, 110
1, 466199, Control_c, 0, 64, 113
1, 466212, Note_on_c, 0, 75, 68
1, 466214, Note_off_c, 0, 79, 63
1, 466214, Control_c, 0, 64, 115
1, 466222, Note_on_c, 0, 72, 68
1, 466229, Control_c, 0, 64, 116
1, 466244, Control_c, 0, 64, 117
1, 466259, Control_c, 0, 64, 118
1, 466271, Note_off_c, 0, 72, 52
1, 466273, Note_on_c, 0, 79, 70
1, 466274, Control_c, 0, 64, 119
1, 466280, Note_off_c, 0, 75, 64
1, 466289, Control_c, 0, 64, 120
1, 466303, Control_c, 0, 64, 120
1, 466317, Note_off_c, 0, 60, 59
1, 466318, Control_c, 0, 64, 121
1, 466347, Note_on_c, 0, 75, 67
1, 466353, Note_on_c, 0, 67, 72
1, 466354, Note_on_c, 0, 72, 56
1, 466358, Note_off_c, 0, 79, 61
1, 466362, Control_c, 0, 64, 121
1, 466372, Note_off_c, 0, 72, 63
1, 466373, Note_off_c, 0, 75, 68
1, 466378, Note_off_c, 0, 67, 69
1, 466392, Control_c, 0, 64, 122
1, 466407, Control_c, 0, 64, 122
1, 466436, Control_c, 0, 64, 122
1, 466451, Control_c, 0, 64, 118
1, 466455, Note_on_c, 0, 84, 89
1, 466461, Note_on_c, 0, 63, 88
1, 466466, Control_c, 0, 64, 97
1, 466481, Control_c, 0, 64, 74
1, 466496, Control_c, 0, 64, 0
1, 466526, Control_c, 0, 64, 16
1, 466533, Note_on_c, 0, 75, 56
1, 466541, Control_c, 0, 64, 70
1, 466545, Note_on_c, 0, 79, 68
1, 466556, Control_c, 0, 64, 85
1, 466559, Note_off_c, 0, 84, 55
1, 466571, Control_c, 0, 64, 99
1, 466585, Control_c, 0, 64, 105
1, 466599, Note_off_c, 0, 75, 63
1, 466600, Control_c, 0, 64, 107
1, 466612, Note_on_c, 0, 84, 64
1, 466615, Control_c, 0, 64, 111
1, 466630, Control_c, 0, 64, 115
1, 466643, Note_off_c, 0, 79, 60
1, 466645, Control_c, 0, 64, 121
1, 466659, Control_c, 0, 64, 127
1, 466696, Note_on_c, 0, 79, 63
1, 466700, Note_on_c, 0, 75, 76
1, 466704, Note_off_c, 0, 84, 65
1, 466760, Note_off_c, 0, 75, 62
1, 466762, Note_on_c, 0, 84, 79
1, 466781, Note_off_c, 0, 79, 62
1, 466797, Note_off_c, 0, 63, 0
1, 466804, Note_on_c, 0, 72, 50
1, 466824, Note_off_c, 0, 72, 63
1, 466831, Note_on_c, 0, 79, 65
1, 466834, Note_on_c, 0, 75, 76
1, 466852, Note_off_c, 0, 84, 60
1, 466868, Poly_aftertouch_c, 0, 63, 0
1, 466907, Note_off_c, 0, 75, 64
1, 466938, Note_on_c, 0, 83, 88
1, 466945, Note_on_c, 0, 55, 91
1, 466948, Control_c, 0, 64, 107
1, 466952, Note_off_c, 0, 79, 60
1, 466963, Control_c, 0, 64, 81
1, 466977, Control_c, 0, 64, 0
1, 467022, Control_c, 0, 64, 57
1, 467029, Note_on_c, 0, 74, 75
1, 467031, Note_on_c, 0, 79, 65
1, 467031, Note_off_c, 0, 83, 60
1, 467037, Control_c, 0, 64, 77
1, 467052, Control_c, 0, 64, 91
1, 467067, Control_c, 0, 64, 103
1, 467082, Control_c, 0, 64, 107
1, 467097, Control_c, 0, 64, 112
1, 467107, Note_on_c, 0, 83, 84
1, 467110, Note_off_c, 0, 74, 59
1, 467111, Control_c, 0, 64, 119
1, 467123, Note_off_c, 0, 79, 62
1, 467126, Control_c, 0, 64, 127
1, 467186, Note_on_c, 0, 79, 75
1, 467190, Note_off_c, 0, 83, 60
1, 467199, Note_on_c, 0, 74, 78
1, 467252, Note_off_c, 0, 74, 62
1, 467253, Note_on_c, 0, 65, 77
1, 467259, Note_on_c, 0, 83, 85
1, 467272, Note_off_c, 0, 79, 62
1, 467277, Note_off_c, 0, 65, 71
1, 467283, Note_off_c, 0, 55, 61
1, 467335, Note_on_c, 0, 74, 83
1, 467337, Note_on_c, 0, 79, 75
1, 467351, Note_off_c, 0, 83, 60
1, 467395, Note_off_c, 0, 74, 62
1, 467427, Note_off_c, 0, 79, 62
1, 467454, Control_c, 0, 64, 116
1, 467469, Control_c, 0, 64, 88
1, 467474, Note_on_c, 0, 48, 77
1, 467483, Control_c, 0, 64, 60
1, 467484, Note_on_c, 0, 84, 98
1, 467498, Control_c, 0, 64, 0
1, 467543, Control_c, 0, 64, 67
1, 467557, Control_c, 0, 64, 80
1, 467572, Control_c, 0, 64, 91
1, 467587, Control_c, 0, 64, 97
1, 467594, Note_on_c, 0, 51, 74
1, 467601, Control_c, 0, 64, 99
1, 467612, Note_off_c, 0, 48, 63
1, 467616, Control_c, 0, 64, 102
1, 467631, Control_c, 0, 64, 107
1, 467654, Control_c, 0, 64, 113
1, 467669, Control_c, 0, 64, 120
1, 467683, Control_c, 0, 64, 125
1, 467684, Note_on_c, 0, 55, 71
1, 467698, Control_c, 0, 64, 127
1, 467721, Note_off_c, 0, 51, 61
1, 467732, Note_off_c, 0, 84, 65
1, 467751, Note_off_c, 0, 55, 62
1, 467761, Note_on_c, 0, 60, 64
1, 467835, Note_on_c, 0, 55, 70
1, 467842, Note_off_c, 0, 60, 57
1, 467898, Note_off_c, 0, 55, 65
1, 467904, Note_on_c, 0, 51, 69
1, 467928, Note_off_c, 0, 51, 68
1, 467994, Control_c, 0, 64, 117
1, 468006, Note_on_c, 0, 43, 79
1, 468009, Control_c, 0, 64, 90
1, 468016, Note_on_c, 0, 75, 93
1, 468024, Control_c, 0, 64, 67
1, 468038, Control_c, 0, 64, 0
1, 468043, Note_off_c, 0, 43, 64
1, 468068, Control_c, 0, 64, 54
1, 468083, Control_c, 0, 64, 76
1, 468098, Control_c, 0, 64, 90
1, 468113, Control_c, 0, 64, 103
1, 468128, Control_c, 0, 64, 108
1, 468136, Note_on_c, 0, 51, 69
1, 468143, Control_c, 0, 64, 113
1, 468158, Control_c, 0, 64, 121
1, 468173, Control_c, 0, 64, 127
1, 468247, Note_on_c, 0, 55, 54
1, 468262, Note_off_c, 0, 51, 60
1, 468264, Note_on_c, 0, 60, 63
1, 468271, Note_off_c, 0, 55, 61
1, 468346, Note_on_c, 0, 55, 73
1, 468346, Note_off_c, 0, 60, 60
1, 468436, Note_off_c, 0, 75, 67
1, 468438, Note_off_c, 0, 55, 62
1, 468456, Note_on_c, 0, 51, 62
1, 468519, Note_off_c, 0, 51, 61
1, 468527, Note_on_c, 0, 79, 94
1, 468527, Note_on_c, 0, 48, 65
1, 468536, Control_c, 0, 64, 100
1, 468550, Control_c, 0, 64, 76
1, 468565, Control_c, 0, 64, 0
1, 468610, Control_c, 0, 64, 68
1, 468624, Control_c, 0, 64, 79
1, 468632, Note_on_c, 0, 51, 66
1, 468636, Note_off_c, 0, 48, 63
1, 468639, Control_c, 0, 64, 92
1, 468654, Control_c, 0, 64, 102
1, 468669, Control_c, 0, 64, 108
1, 468684, Control_c, 0, 64, 113
1, 468699, Control_c, 0, 64, 120
1, 468711, Note_on_c, 0, 55, 67
1, 468713, Control_c, 0, 64, 127
1, 468741, Note_off_c, 0, 51, 58
1, 468772, Note_off_c, 0, 55, 63
1, 468794, Note_on_c, 0, 60, 41
1, 468857, Note_on_c, 0, 55, 63
1, 468867, Note_off_c, 0, 60, 59
1, 468943, Note_on_c, 0, 51, 61
1, 468948, Note_off_c, 0, 55, 62
1, 468977, Note_off_c, 0, 79, 53
1, 469025, Control_c, 0, 64, 121
1, 469039, Note_off_c, 0, 51, 56
1, 469040, Note_on_c, 0, 50, 69
1, 469040, Control_c, 0, 64, 89
1, 469045, Note_on_c, 0, 77, 95
1, 469055, Control_c, 0, 64, 64
1, 469070, Control_c, 0, 64, 0
1, 469115, Control_c, 0, 64, 66
1, 469129, Control_c, 0, 64, 79
1, 469151, Control_c, 0, 64, 93
1, 469166, Control_c, 0, 64, 98
1, 469172, Note_off_c, 0, 50, 61
1, 469178, Note_on_c, 0, 55, 68
1, 469180, Control_c, 0, 64, 101
1, 469186, Note_on_c, 0, 53, 47
1, 469195, Control_c, 0, 64, 104
1, 469210, Control_c, 0, 64, 109
1, 469225, Control_c, 0, 64, 114
1, 469239, Note_off_c, 0, 53, 64
1, 469240, Note_off_c, 0, 55, 62
1, 469240, Control_c, 0, 64, 121
1, 469255, Control_c, 0, 64, 124
1, 469268, Note_on_c, 0, 59, 64
1, 469270, Control_c, 0, 64, 127
1, 469352, Note_off_c, 0, 59, 55
1, 469355, Note_on_c, 0, 55, 66
1, 469394, Note_on_c, 0, 53, 66
1, 469403, Note_off_c, 0, 55, 59
1, 469448, Note_off_c, 0, 53, 65
1, 469471, Note_on_c, 0, 75, 84
1, 469491, Note_off_c, 0, 77, 61
1, 469508, Note_off_c, 0, 75, 69
1, 469522, Control_c, 0, 64, 100
1, 469536, Control_c, 0, 64, 76
1, 469544, Note_on_c, 0, 43, 69
1, 469550, Note_on_c, 0, 74, 85
1, 469551, Control_c, 0, 64, 0
1, 469583, Note_off_c, 0, 43, 63
1, 469595, Control_c, 0, 64, 66
1, 469609, Control_c, 0, 64, 80
1, 469624, Control_c, 0, 64, 93
1, 469639, Control_c, 0, 64, 101
1, 469654, Note_on_c, 0, 53, 72
1, 469654, Control_c, 0, 64, 104
1, 469669, Control_c, 0, 64, 108
1, 469684, Control_c, 0, 64, 114
1, 469698, Control_c, 0, 64, 121
1, 469713, Control_c, 0, 64, 127
1, 469736, Note_on_c, 0, 55, 70
1, 469752, Note_off_c, 0, 53, 62
1, 469810, Note_off_c, 0, 55, 64
1, 469815, Note_on_c, 0, 59, 62
1, 469875, Note_on_c, 0, 55, 71
1, 469877, Note_off_c, 0, 59, 60
1, 469967, Note_off_c, 0, 55, 64
1, 469972, Note_on_c, 0, 53, 71
1, 470048, Control_c, 0, 64, 112
1, 470049, Note_on_c, 0, 50, 69
1, 470051, Note_off_c, 0, 53, 66
1, 470055, Note_on_c, 0, 79, 97
1, 470063, Control_c, 0, 64, 86
1, 470075, Note_off_c, 0, 74, 66
1, 470077, Control_c, 0, 64, 61
1, 470092, Control_c, 0, 64, 0
1, 470122, Control_c, 0, 64, 61
1, 470137, Control_c, 0, 64, 75
1, 470146, Note_on_c, 0, 53, 71
1, 470151, Control_c, 0, 64, 86
1, 470152, Note_off_c, 0, 50, 61
1, 470166, Control_c, 0, 64, 96
1, 470181, Control_c, 0, 64, 101
1, 470195, Control_c, 0, 64, 106
1, 470210, Control_c, 0, 64, 112
1, 470225, Control_c, 0, 64, 121
1, 470226, Note_on_c, 0, 55, 73
1, 470233, Note_off_c, 0, 53, 64
1, 470240, Control_c, 0, 64, 127
1, 470295, Note_off_c, 0, 55, 64
1, 470301, Note_off_c, 0, 79, 60
1, 470304, Note_on_c, 0, 59, 71
1, 470386, Note_off_c, 0, 59, 60
1, 470387, Note_on_c, 0, 55, 73
1, 470464, Note_on_c, 0, 53, 74
1, 470464, Note_off_c, 0, 55, 64
1, 470536, Note_off_c, 0, 53, 64
1, 470612, Control_c, 0, 64, 100
1, 470620, Note_on_c, 0, 72, 90
1, 470621, Note_on_c, 0, 48, 75
1, 470623, Note_on_c, 0, 60, 87
1, 470626, Control_c, 0, 64, 75
1, 470649, Control_c, 0, 64, 0
1, 470694, Control_c, 0, 64, 60
1, 470708, Control_c, 0, 64, 76
1, 470723, Control_c, 0, 64, 89
1, 470738, Control_c, 0, 64, 98
1, 470748, Note_on_c, 0, 51, 66
1, 470752, Control_c, 0, 64, 101
1, 470758, Note_off_c, 0, 48, 61
1, 470767, Control_c, 0, 64, 105
1, 470778, Note_off_c, 0, 60, 53
1, 470782, Control_c, 0, 64, 110
1, 470797, Control_c, 0, 64, 116
1, 470812, Control_c, 0, 64, 124
1, 470826, Control_c, 0, 64, 127
1, 470835, Note_on_c, 0, 55, 65
1, 470873, Note_off_c, 0, 51, 59
1, 470892, Note_off_c, 0, 55, 62
1, 470910, Note_on_c, 0, 60, 66
1, 470977, Note_off_c, 0, 60, 57
1, 470987, Note_on_c, 0, 55, 64
1, 471038, Note_off_c, 0, 55, 65
1, 471055, Note_on_c, 0, 51, 60
1, 471085, Note_off_c, 0, 51, 64
1, 471123, Control_c, 0, 64, 117
1, 471138, Control_c, 0, 64, 94
1, 471152, Control_c, 0, 64, 70
1, 471155, Note_on_c, 0, 43, 71
1, 471159, Note_on_c, 0, 63, 81
1, 471167, Control_c, 0, 64, 0
1, 471192, Note_off_c, 0, 43, 63
1, 471197, Control_c, 0, 64, 63
1, 471212, Control_c, 0, 64, 77
1, 471226, Control_c, 0, 64, 92
1, 471241, Control_c, 0, 64, 105
1, 471256, Control_c, 0, 64, 108
1, 471270, Note_on_c, 0, 51, 69
1, 471271, Control_c, 0, 64, 111
1, 471286, Control_c, 0, 64, 117
1, 471300, Control_c, 0, 64, 127
1, 471311, Note_off_c, 0, 63, 62
1, 471316, Control_c, 0, 64, 127
1, 471385, Note_off_c, 0, 51, 58
1, 471405, Note_on_c, 0, 60, 65
1, 471416, Note_on_c, 0, 55, 27
1, 471452, Note_off_c, 0, 55, 52
1, 471488, Note_off_c, 0, 60, 56
1, 471498, Note_on_c, 0, 55, 65
1, 471579, Note_off_c, 0, 55, 63
1, 471601, Note_on_c, 0, 51, 67
1, 471654, Note_on_c, 0, 67, 91
1, 471666, Note_on_c, 0, 48, 70
1, 471666, Note_off_c, 0, 51, 63
1, 471679, Control_c, 0, 64, 102
1, 471694, Control_c, 0, 64, 80
1, 471709, Control_c, 0, 64, 49
1, 471723, Control_c, 0, 64, 0
1, 471746, Note_off_c, 0, 72, 60
1, 471753, Control_c, 0, 64, 69
1, 471766, Note_on_c, 0, 51, 66
1, 471768, Control_c, 0, 64, 83
1, 471769, Note_off_c, 0, 48, 63
1, 471783, Control_c, 0, 64, 96
1, 471797, Control_c, 0, 64, 106
1, 471812, Control_c, 0, 64, 109
1, 471827, Control_c, 0, 64, 115
1, 471842, Control_c, 0, 64, 124
1, 471844, Note_on_c, 0, 55, 66
1, 471857, Control_c, 0, 64, 127
1, 471879, Note_off_c, 0, 51, 56
1, 471908, Note_off_c, 0, 55, 62
1, 471918, Note_on_c, 0, 60, 71
1, 472000, Note_off_c, 0, 60, 58
1, 472002, Note_on_c, 0, 55, 68
1, 472090, Note_on_c, 0, 51, 62
1, 472107, Note_off_c, 0, 55, 53
1, 472127, Note_off_c, 0, 67, 52
1, 472161, Control_c, 0, 64, 118
1, 472170, Note_on_c, 0, 71, 90
1, 472173, Note_on_c, 0, 65, 89
1, 472176, Control_c, 0, 64, 91
1, 472183, Note_on_c, 0, 50, 71
1, 472186, Note_off_c, 0, 51, 57
1, 472191, Control_c, 0, 64, 66
1, 472206, Control_c, 0, 64, 0
1, 472236, Control_c, 0, 64, 35
1, 472251, Control_c, 0, 64, 71
1, 472265, Control_c, 0, 64, 83
1, 472280, Control_c, 0, 64, 93
1, 472292, Note_off_c, 0, 50, 59
1, 472295, Note_on_c, 0, 53, 58
1, 472295, Control_c, 0, 64, 97
1, 472310, Control_c, 0, 64, 99
1, 472325, Control_c, 0, 64, 102
1, 472337, Note_off_c, 0, 65, 61
1, 472340, Control_c, 0, 64, 106
1, 472354, Control_c, 0, 64, 110
1, 472369, Note_on_c, 0, 55, 48
1, 472369, Control_c, 0, 64, 113
1, 472372, Note_off_c, 0, 53, 65
1, 472384, Control_c, 0, 64, 114
1, 472398, Control_c, 0, 64, 116
1, 472413, Control_c, 0, 64, 118
1, 472420, Note_off_c, 0, 55, 63
1, 472426, Note_on_c, 0, 59, 65
1, 472428, Control_c, 0, 64, 121
1, 472443, Control_c, 0, 64, 121
1, 472472, Control_c, 0, 64, 122
1, 472487, Control_c, 0, 64, 122
1, 472499, Note_off_c, 0, 59, 58
1, 472502, Note_on_c, 0, 55, 63
1, 472502, Control_c, 0, 64, 123
1, 472517, Control_c, 0, 64, 124
1, 472532, Control_c, 0, 64, 127
1, 472555, Note_off_c, 0, 55, 64
1, 472559, Note_on_c, 0, 53, 72
1, 472574, Note_on_c, 0, 63, 84
1, 472588, Note_off_c, 0, 53, 67
1, 472605, Note_off_c, 0, 63, 67
1, 472620, Control_c, 0, 64, 120
1, 472635, Control_c, 0, 64, 96
1, 472650, Control_c, 0, 64, 73
1, 472660, Note_on_c, 0, 62, 89
1, 472665, Control_c, 0, 64, 0
1, 472683, Note_on_c, 0, 43, 72
1, 472695, Control_c, 0, 64, 41
1, 472710, Control_c, 0, 64, 72
1, 472721, Note_off_c, 0, 43, 64
1, 472724, Control_c, 0, 64, 85
1, 472739, Control_c, 0, 64, 99
1, 472754, Control_c, 0, 64, 104
1, 472769, Control_c, 0, 64, 107
1, 472784, Control_c, 0, 64, 110
1, 472787, Note_on_c, 0, 53, 72
1, 472798, Control_c, 0, 64, 116
1, 472813, Control_c, 0, 64, 121
1, 472828, Control_c, 0, 64, 127
1, 472865, Note_on_c, 0, 55, 75
1, 472871, Note_off_c, 0, 53, 65
1, 472948, Note_off_c, 0, 55, 63
1, 472960, Note_on_c, 0, 59, 75
1, 473029, Note_off_c, 0, 59, 62
1, 473042, Note_on_c, 0, 55, 75
1, 473110, Note_off_c, 0, 55, 63
1, 473118, Note_on_c, 0, 53, 76
1, 473162, Note_on_c, 0, 67, 87
1, 473162, Control_c, 0, 64, 98
1, 473174, Note_on_c, 0, 50, 69
1, 473177, Control_c, 0, 64, 73
1, 473182, Note_off_c, 0, 53, 66
1, 473192, Control_c, 0, 64, 0
1, 473201, Note_off_c, 0, 62, 61
1, 473236, Control_c, 0, 64, 65
1, 473237, Note_off_c, 0, 71, 42
1, 473251, Control_c, 0, 64, 78
1, 473264, Note_on_c, 0, 53, 72
1, 473266, Control_c, 0, 64, 89
1, 473277, Note_off_c, 0, 50, 61
1, 473281, Control_c, 0, 64, 95
1, 473295, Control_c, 0, 64, 99
1, 473310, Control_c, 0, 64, 103
1, 473325, Control_c, 0, 64, 107
1, 473340, Control_c, 0, 64, 112
1, 473342, Note_on_c, 0, 55, 76
1, 473342, Note_off_c, 0, 53, 65
1, 473354, Control_c, 0, 64, 117
1, 473369, Control_c, 0, 64, 121
1, 473384, Control_c, 0, 64, 122
1, 473399, Control_c, 0, 64, 124
1, 473410, Note_off_c, 0, 55, 64
1, 473414, Control_c, 0, 64, 127
1, 473424, Note_on_c, 0, 59, 78
1, 473428, Control_c, 0, 64, 127
1, 473505, Note_off_c, 0, 59, 60
1, 473508, Note_on_c, 0, 55, 76
1, 473554, Note_on_c, 0, 53, 74
1, 473563, Note_off_c, 0, 55, 65
1, 473581, Note_off_c, 0, 53, 67
1, 473658, Control_c, 0, 64, 118
1, 473672, Control_c, 0, 64, 93
1, 473687, Control_c, 0, 64, 67
1, 473702, Control_c, 0, 64, 0
1, 473712, Note_on_c, 0, 36, 80
1, 473714, Note_on_c, 0, 48, 84
1, 473717, Note_on_c, 0, 60, 93
1, 473760, Note_off_c, 0, 36, 62
1, 473763, Control_c, 0, 64, 65
1, 473777, Control_c, 0, 64, 75
1, 473782, Note_off_c, 0, 48, 64
1, 473792, Control_c, 0, 64, 85
1, 473806, Note_off_c, 0, 67, 0
1, 473807, Control_c, 0, 64, 94
1, 473822, Control_c, 0, 64, 100
1, 473837, Control_c, 0, 64, 107
1, 473842, Poly_aftertouch_c, 0, 67, 127
1, 473851, Control_c, 0, 64, 113
1, 473866, Control_c, 0, 64, 122
1, 473874, Note_off_c, 0, 60, 59
1, 473881, Control_c, 0, 64, 127
1, 473882, Note_on_c, 0, 51, 69
1, 473893, Note_on_c, 0, 48, 56
1, 473938, Poly_aftertouch_c, 0, 67, 0
1, 474000, Note_off_c, 0, 48, 63
1, 474006, Note_off_c, 0, 51, 61
1, 474020, Note_on_c, 0, 55, 70
1, 474021, Note_on_c, 0, 43, 65
1, 474147, Note_on_c, 0, 51, 60
1, 474149, Note_off_c, 0, 43, 55
1, 474158, Note_on_c, 0, 48, 57
1, 474179, Note_off_c, 0, 55, 46
1, 474287, Note_on_c, 0, 84, 99
1, 474290, Note_on_c, 0, 72, 90
1, 474301, Note_off_c, 0, 51, 58
1, 474302, Note_on_c, 0, 43, 64
1, 474307, Note_on_c, 0, 55, 64
1, 474328, Note_off_c, 0, 48, 40
1, 474425, Note_off_c, 0, 43, 57
1, 474438, Note_on_c, 0, 48, 56
1, 474438, Note_on_c, 0, 51, 59
1, 474463, Note_off_c, 0, 55, 59
1, 474563, Note_off_c, 0, 48, 62
1, 474567, Note_off_c, 0, 51, 60
1, 474581, Note_on_c, 0, 43, 58
1, 474585, Note_on_c, 0, 55, 68
1, 474683, Note_off_c, 0, 43, 57
1, 474698, Note_on_c, 0, 51, 67
1, 474704, Note_on_c, 0, 48, 59
1, 474722, Note_off_c, 0, 55, 62
1, 474790, Poly_aftertouch_c, 0, 82, 127
1, 474820, Note_off_c, 0, 72, 60
1, 474824, Note_off_c, 0, 48, 61
1, 474831, Note_off_c, 0, 51, 60
1, 474833, Note_on_c, 0, 43, 66
1, 474833, Note_off_c, 0, 84, 58
1, 474836, Note_on_c, 0, 55, 76
1, 474863, Poly_aftertouch_c, 0, 82, 0
1, 474945, Note_on_c, 0, 51, 72
1, 474947, Note_off_c, 0, 43, 60
1, 474949, Note_on_c, 0, 48, 70
1, 474969, Note_off_c, 0, 55, 59
1, 475055, Note_off_c, 0, 48, 59
1, 475061, Note_off_c, 0, 51, 62
1, 475062, Note_on_c, 0, 43, 68
1, 475066, Note_on_c, 0, 55, 85
1, 475172, Note_on_c, 0, 87, 80
1, 475178, Note_on_c, 0, 48, 70
1, 475178, Note_on_c, 0, 75, 86
1, 475181, Note_on_c, 0, 51, 72
1, 475190, Note_off_c, 0, 55, 62
1, 475194, Note_off_c, 0, 43, 54
1, 475207, Note_off_c, 0, 51, 67
1, 475221, Note_off_c, 0, 48, 67
1, 475228, Note_off_c, 0, 87, 66
1, 475234, Note_off_c, 0, 75, 63
1, 475274, Control_c, 0, 64, 87
1, 475289, Control_c, 0, 64, 52
1, 475304, Control_c, 0, 64, 0
1, 475312, Note_on_c, 0, 84, 95
1, 475316, Note_on_c, 0, 72, 93
1, 475320, Note_on_c, 0, 48, 79
1, 475326, Note_on_c, 0, 36, 77
1, 475350, Control_c, 0, 64, 63
1, 475357, Note_off_c, 0, 36, 64
1, 475364, Control_c, 0, 64, 80
1, 475376, Note_off_c, 0, 48, 65
1, 475379, Control_c, 0, 64, 95
1, 475394, Control_c, 0, 64, 110
1, 475409, Control_c, 0, 64, 117
1, 475423, Control_c, 0, 64, 127
1, 475438, Control_c, 0, 64, 127
1, 475457, Note_on_c, 0, 51, 77
1, 475500, Note_off_c, 0, 84, 61
1, 475503, Note_off_c, 0, 72, 58
1, 475524, Poly_aftertouch_c, 0, 48, 127
1, 475562, Note_off_c, 0, 51, 62
1, 475564, Poly_aftertouch_c, 0, 48, 0
1, 475589, Note_on_c, 0, 43, 68
1, 475592, Note_on_c, 0, 55, 74
1, 475693, Note_on_c, 0, 48, 60
1, 475697, Note_on_c, 0, 51, 67
1, 475699, Note_off_c, 0, 43, 55
1, 475719, Note_off_c, 0, 55, 57
1, 475857, Note_off_c, 0, 48, 61
1, 475863, Note_off_c, 0, 51, 58
1, 475865, Note_on_c, 0, 84, 98
1, 475866, Note_on_c, 0, 72, 91
1, 475867, Note_on_c, 0, 55, 72
1, 475869, Note_on_c, 0, 43, 67
1, 475989, Note_off_c, 0, 43, 56
1, 475999, Note_on_c, 0, 51, 64
1, 476003, Note_on_c, 0, 48, 58
1, 476035, Note_off_c, 0, 55, 60
1, 476118, Note_off_c, 0, 48, 62
1, 476120, Note_off_c, 0, 51, 55
1, 476129, Note_on_c, 0, 43, 64
1, 476135, Note_on_c, 0, 55, 76
1, 476243, Note_on_c, 0, 51, 67
1, 476245, Note_off_c, 0, 43, 58
1, 476245, Note_on_c, 0, 48, 63
1, 476266, Note_off_c, 0, 55, 56
1, 476361, Note_off_c, 0, 72, 58
1, 476370, Note_off_c, 0, 48, 63
1, 476374, Note_off_c, 0, 51, 61
1, 476379, Note_on_c, 0, 43, 70
1, 476379, Note_on_c, 0, 55, 81
1, 476397, Note_off_c, 0, 84, 62
1, 476489, Note_off_c, 0, 43, 59
1, 476493, Note_on_c, 0, 51, 75
1, 476502, Note_on_c, 0, 48, 69
1, 476522, Note_off_c, 0, 55, 62
1, 476607, Note_off_c, 0, 48, 62
1, 476610, Note_off_c, 0, 51, 57
1, 476611, Note_on_c, 0, 43, 73
1, 476619, Note_on_c, 0, 55, 85
1, 476740, Note_on_c, 0, 51, 74
1, 476740, Note_on_c, 0, 87, 85
1, 476745, Note_on_c, 0, 48, 70
1, 476745, Note_on_c, 0, 75, 88
1, 476759, Note_off_c, 0, 55, 61
1, 476767, Note_off_c, 0, 75, 69
1, 476787, Note_off_c, 0, 43, 59
1, 476789, Note_off_c, 0, 51, 62
1, 476793, Note_off_c, 0, 87, 63
1, 476794, Note_off_c, 0, 48, 65
1, 476904, Control_c, 0, 64, 97
1, 476920, Control_c, 0, 64, 72
1, 476934, Control_c, 0, 64, 0
1, 476951, Note_on_c, 0, 91, 97
1, 476951, Note_on_c, 0, 31, 80
1, 476951, Note_on_c, 0, 43, 83
1, 476951, Note_on_c, 0, 79, 97
1, 476979, Control_c, 0, 64, 44
1, 476993, Control_c, 0, 64, 74
1, 477005, Note_off_c, 0, 31, 62
1, 477008, Control_c, 0, 64, 90
1, 477013, Note_off_c, 0, 43, 62
1, 477023, Control_c, 0, 64, 109
1, 477038, Control_c, 0, 64, 117
1, 477053, Control_c, 0, 64, 122
1, 477068, Control_c, 0, 64, 127
1, 477129, Note_on_c, 0, 50, 63
1, 477130, Note_on_c, 0, 47, 62
1, 477212, Note_off_c, 0, 50, 61
1, 477222, Note_off_c, 0, 47, 62
1, 477243, Note_on_c, 0, 43, 67
1, 477251, Note_on_c, 0, 55, 69
1, 477351, Note_off_c, 0, 43, 59
1, 477353, Note_on_c, 0, 50, 75
1, 477358, Note_on_c, 0, 47, 67
1, 477388, Note_off_c, 0, 55, 60
1, 477452, Note_off_c, 0, 91, 60
1, 477471, Note_off_c, 0, 79, 58
1, 477491, Note_on_c, 0, 55, 81
1, 477492, Note_on_c, 0, 43, 71
1, 477494, Note_off_c, 0, 50, 60
1, 477526, Note_off_c, 0, 47, 37
1, 477602, Note_on_c, 0, 50, 76
1, 477606, Note_off_c, 0, 43, 58
1, 477610, Note_on_c, 0, 47, 74
1, 477627, Note_off_c, 0, 55, 60
1, 477744, Note_off_c, 0, 47, 56
1, 477747, Note_on_c, 0, 92, 88
1, 477748, Note_on_c, 0, 55, 78
1, 477750, Note_on_c, 0, 43, 74
1, 477751, Note_on_c, 0, 80, 94
1, 477756, Note_off_c, 0, 50, 62
1, 477798, Note_off_c, 0, 80, 63
1, 477804, Note_off_c, 0, 92, 67
1, 477876, Note_on_c, 0, 50, 74
1, 477877, Note_on_c, 0, 47, 62
1, 477881, Note_off_c, 0, 43, 58
1, 477910, Note_off_c, 0, 55, 61
1, 478030, Note_on_c, 0, 55, 77
1, 478033, Note_on_c, 0, 43, 73
1, 478033, Note_on_c, 0, 89, 88
1, 478034, Note_on_c, 0, 77, 98
1, 478042, Note_off_c, 0, 47, 59
1, 478042, Note_off_c, 0, 50, 61
1, 478078, Note_off_c, 0, 77, 63
1, 478084, Note_off_c, 0, 89, 67
1, 478149, Note_off_c, 0, 43, 60
1, 478153, Note_on_c, 0, 50, 78
1, 478162, Note_on_c, 0, 47, 69
1, 478163, Note_off_c, 0, 55, 58
1, 478253, Note_off_c, 0, 50, 58
1, 478261, Note_off_c, 0, 47, 53
1, 478269, Note_on_c, 0, 55, 79
1, 478275, Note_on_c, 0, 74, 91
1, 478275, Note_on_c, 0, 86, 93
1, 478275, Note_on_c, 0, 43, 66
1, 478314, Note_off_c, 0, 74, 66
1, 478316, Note_off_c, 0, 86, 66
1, 478373, Note_on_c, 0, 50, 68
1, 478378, Note_on_c, 0, 47, 71
1, 478382, Note_off_c, 0, 55, 60
1, 478418, Note_off_c, 0, 50, 63
1, 478427, Note_off_c, 0, 43, 37
1, 478439, Note_off_c, 0, 47, 63
1, 478462, Control_c, 0, 64, 92
1, 478477, Control_c, 0, 64, 65
1, 478491, Control_c, 0, 64, 0
1, 478522, Control_c, 0, 64, 61
1, 478526, Note_on_c, 0, 48, 83
1, 478529, Note_on_c, 0, 36, 75
1, 478536, Note_on_c, 0, 86, 89
1, 478537, Note_on_c, 0, 74, 92
1, 478537, Control_c, 0, 64, 78
1, 478552, Control_c, 0, 64, 96
1, 478558, Note_off_c, 0, 36, 65
1, 478566, Control_c, 0, 64, 114
1, 478573, Note_off_c, 0, 48, 65
1, 478581, Note_off_c, 0, 74, 66
1, 478581, Control_c, 0, 64, 120
1, 478587, Note_off_c, 0, 86, 64
1, 478596, Control_c, 0, 64, 127
1, 478668, Note_on_c, 0, 51, 67
1, 478690, Note_on_c, 0, 48, 56
1, 478772, Note_off_c, 0, 48, 62
1, 478786, Note_off_c, 0, 51, 61
1, 478790, Note_on_c, 0, 43, 67
1, 478794, Note_on_c, 0, 55, 71
1, 478797, Note_on_c, 0, 87, 88
1, 478800, Note_on_c, 0, 75, 94
1, 478824, Note_off_c, 0, 75, 67
1, 478838, Note_off_c, 0, 87, 66
1, 478931, Note_on_c, 0, 51, 63
1, 478934, Note_on_c, 0, 48, 59
1, 478960, Note_off_c, 0, 43, 37
1, 478964, Note_off_c, 0, 55, 56
1, 479100, Note_on_c, 0, 72, 94
1, 479100, Note_on_c, 0, 84, 92
1, 479105, Note_on_c, 0, 43, 66
1, 479106, Note_on_c, 0, 55, 71
1, 479107, Control_c, 0, 64, 103
1, 479121, Note_off_c, 0, 51, 57
1, 479121, Control_c, 0, 64, 81
1, 479129, Note_off_c, 0, 48, 40
1, 479136, Control_c, 0, 64, 55
1, 479151, Control_c, 0, 64, 0
1, 479181, Control_c, 0, 64, 68
1, 479196, Control_c, 0, 64, 86
1, 479211, Control_c, 0, 64, 101
1, 479226, Control_c, 0, 64, 109
1, 479232, Note_on_c, 0, 48, 62
1, 479234, Note_on_c, 0, 51, 67
1, 479238, Note_off_c, 0, 43, 56
1, 479240, Control_c, 0, 64, 113
1, 479255, Control_c, 0, 64, 121
1, 479265, Note_off_c, 0, 55, 59
1, 479270, Control_c, 0, 64, 127
1, 479365, Note_off_c, 0, 48, 62
1, 479374, Note_on_c, 0, 55, 75
1, 479374, Note_off_c, 0, 51, 59
1, 479375, Note_on_c, 0, 43, 62
1, 479492, Note_off_c, 0, 43, 57
1, 479493, Note_on_c, 0, 51, 69
1, 479496, Note_on_c, 0, 48, 67
1, 479522, Note_off_c, 0, 55, 60
1, 479567, Note_off_c, 0, 72, 58
1, 479602, Note_off_c, 0, 84, 62
1, 479614, Note_off_c, 0, 48, 62
1, 479623, Note_on_c, 0, 55, 89
1, 479624, Note_on_c, 0, 43, 73
1, 479636, Note_off_c, 0, 51, 60
1, 479737, Note_on_c, 0, 51, 78
1, 479739, Note_on_c, 0, 48, 68
1, 479743, Note_off_c, 0, 43, 60
1, 479756, Note_off_c, 0, 55, 63
1, 479846, Note_off_c, 0, 48, 64
1, 479855, Note_on_c, 0, 43, 73
1, 479857, Note_on_c, 0, 55, 89
1, 479861, Note_off_c, 0, 51, 62
1, 479962, Note_on_c, 0, 87, 84
1, 479969, Note_on_c, 0, 75, 82
1, 479971, Note_on_c, 0, 51, 77
1, 479974, Note_on_c, 0, 48, 72
1, 479989, Note_off_c, 0, 55, 64
1, 479989, Note_off_c, 0, 75, 70
1, 480002, Note_off_c, 0, 51, 65
1, 480009, Note_off_c, 0, 43, 59
1, 480015, Note_off_c, 0, 48, 67
1, 480017, Note_off_c, 0, 87, 63
1, 480108, Control_c, 0, 64, 118
1, 480123, Control_c, 0, 64, 89
1, 480138, Control_c, 0, 64, 63
1, 480153, Note_on_c, 0, 43, 90
1, 480153, Control_c, 0, 64, 0
1, 480158, Note_on_c, 0, 31, 83
1, 480161, Note_on_c, 0, 91, 92
1, 480162, Note_on_c, 0, 79, 98
1, 480198, Control_c, 0, 64, 66
1, 480201, Note_off_c, 0, 31, 62
1, 480212, Control_c, 0, 64, 83
1, 480215, Note_off_c, 0, 43, 59
1, 480227, Control_c, 0, 64, 104
1, 480242, Control_c, 0, 64, 120
1, 480257, Control_c, 0, 64, 123
1, 480272, Control_c, 0, 64, 127
1, 480321, Note_on_c, 0, 50, 73
1, 480329, Note_on_c, 0, 47, 65
1, 480421, Note_off_c, 0, 50, 60
1, 480426, Note_off_c, 0, 47, 62
1, 480445, Note_on_c, 0, 55, 72
1, 480448, Note_on_c, 0, 43, 69
1, 480548, Note_off_c, 0, 43, 58
1, 480551, Note_on_c, 0, 50, 71
1, 480554, Note_on_c, 0, 47, 67
1, 480576, Note_off_c, 0, 55, 59
1, 480655, Note_off_c, 0, 91, 60
1, 480669, Note_off_c, 0, 79, 59
1, 480678, Note_off_c, 0, 47, 61
1, 480679, Note_on_c, 0, 55, 82
1, 480679, Note_off_c, 0, 50, 62
1, 480682, Note_on_c, 0, 43, 69
1, 480786, Note_on_c, 0, 47, 69
1, 480786, Note_on_c, 0, 50, 76
1, 480798, Note_off_c, 0, 43, 51
1, 480807, Note_off_c, 0, 55, 59
1, 480919, Note_on_c, 0, 92, 90
1, 480922, Note_on_c, 0, 43, 68
1, 480922, Note_off_c, 0, 47, 56
1, 480922, Note_on_c, 0, 80, 90
1, 480924, Note_on_c, 0, 55, 80
1, 480934, Note_off_c, 0, 50, 59
1, 480964, Note_off_c, 0, 80, 63
1, 480969, Note_off_c, 0, 92, 67
1, 481037, Note_off_c, 0, 43, 58
1, 481039, Note_on_c, 0, 47, 66
1, 481042, Note_on_c, 0, 50, 77
1, 481065, Note_off_c, 0, 55, 57
1, 481198, Note_on_c, 0, 55, 76
1, 481198, Note_on_c, 0, 89, 90
1, 481199, Note_on_c, 0, 77, 100
1, 481202, Note_on_c, 0, 43, 73
1, 481209, Note_off_c, 0, 47, 58
1, 481214, Note_off_c, 0, 50, 61
1, 481238, Note_off_c, 0, 77, 65
1, 481246, Note_off_c, 0, 89, 67
1, 481307, Note_off_c, 0, 43, 59
1, 481313, Note_on_c, 0, 50, 78
1, 481319, Note_on_c, 0, 47, 72
1, 481322, Note_off_c, 0, 55, 59
1, 481405, Note_off_c, 0, 50, 59
1, 481415, Note_off_c, 0, 47, 55
1, 481429, Note_on_c, 0, 55, 79
1, 481431, Note_on_c, 0, 43, 61
1, 481432, Note_on_c, 0, 74, 98
1, 481435, Note_on_c, 0, 86, 96
1, 481470, Note_off_c, 0, 74, 68
1, 481475, Note_off_c, 0, 86, 64
1, 481521, Note_on_c, 0, 47, 67
1, 481527, Note_on_c, 0, 50, 67
1, 481536, Note_off_c, 0, 55, 60
1, 481564, Note_off_c, 0, 43, 55
1, 481573, Note_off_c, 0, 50, 63
1, 481596, Note_off_c, 0, 47, 64
1, 481634, Control_c, 0, 64, 112
1, 481649, Control_c, 0, 64, 80
1, 481664, Control_c, 0, 64, 0
1, 481689, Note_on_c, 0, 48, 85
1, 481693, Note_on_c, 0, 36, 74
1, 481697, Note_on_c, 0, 86, 87
1, 481698, Note_on_c, 0, 74, 94
1, 481710, Control_c, 0, 64, 59
1, 481725, Control_c, 0, 64, 76
1, 481727, Note_off_c, 0, 36, 64
1, 481736, Note_off_c, 0, 48, 65
1, 481739, Control_c, 0, 64, 93
1, 481742, Note_off_c, 0, 74, 65
1, 481746, Note_off_c, 0, 86, 64
1, 481754, Control_c, 0, 64, 113
1, 481769, Control_c, 0, 64, 127
1, 481843, Note_on_c, 0, 51, 68
1, 481856, Note_on_c, 0, 48, 55
1, 481954, Note_off_c, 0, 48, 64
1, 481962, Note_off_c, 0, 51, 61
1, 481966, Note_on_c, 0, 75, 96
1, 481966, Note_on_c, 0, 87, 88
1, 481972, Note_on_c, 0, 43, 68
1, 481979, Note_on_c, 0, 55, 70
1, 481998, Note_off_c, 0, 75, 63
1, 482005, Note_off_c, 0, 87, 67
1, 482090, Note_off_c, 0, 43, 54
1, 482093, Note_on_c, 0, 51, 68
1, 482096, Note_on_c, 0, 48, 61
1, 482115, Note_off_c, 0, 55, 55
1, 482249, Note_off_c, 0, 48, 61
1, 482250, Control_c, 0, 64, 107
1, 482257, Note_on_c, 0, 72, 94
1, 482257, Note_on_c, 0, 84, 100
1, 482257, Note_on_c, 0, 43, 71
1, 482263, Note_on_c, 0, 55, 74
1, 482265, Control_c, 0, 64, 81
1, 482277, Note_off_c, 0, 51, 53
1, 482280, Control_c, 0, 64, 0
1, 482339, Control_c, 0, 64, 60
1, 482354, Control_c, 0, 64, 72
1, 482369, Control_c, 0, 64, 82
1, 482383, Control_c, 0, 64, 92
1, 482386, Note_on_c, 0, 48, 64
1, 482386, Note_on_c, 0, 51, 70
1, 482394, Note_off_c, 0, 43, 58
1, 482398, Control_c, 0, 64, 99
1, 482413, Control_c, 0, 64, 106
1, 482418, Note_off_c, 0, 55, 61
1, 482428, Control_c, 0, 64, 114
1, 482443, Control_c, 0, 64, 127
1, 482518, Note_off_c, 0, 48, 62
1, 482523, Note_on_c, 0, 43, 65
1, 482526, Note_on_c, 0, 55, 79
1, 482530, Note_off_c, 0, 51, 62
1, 482652, Note_on_c, 0, 48, 69
1, 482652, Note_on_c, 0, 51, 75
1, 482684, Note_off_c, 0, 43, 35
1, 482684, Note_off_c, 0, 55, 60
1, 482749, Note_off_c, 0, 72, 58
1, 482770, Note_off_c, 0, 48, 61
1, 482777, Note_on_c, 0, 43, 71
1, 482784, Note_on_c, 0, 55, 85
1, 482785, Note_off_c, 0, 84, 61
1, 482795, Note_off_c, 0, 51, 61
1, 482903, Note_off_c, 0, 43, 60
1, 482904, Note_on_c, 0, 48, 71
1, 482906, Note_on_c, 0, 51, 78
1, 482931, Note_off_c, 0, 55, 63
1, 483018, Note_off_c, 0, 48, 64
1, 483031, Note_on_c, 0, 43, 70
1, 483036, Note_on_c, 0, 55, 87
1, 483041, Note_off_c, 0, 51, 61
1, 483158, Note_on_c, 0, 87, 84
1, 483160, Note_on_c, 0, 51, 79
1, 483163, Note_on_c, 0, 75, 91
1, 483184, Note_on_c, 0, 48, 66
1, 483188, Note_off_c, 0, 75, 66
1, 483193, Note_off_c, 0, 55, 61
1, 483210, Note_off_c, 0, 87, 62
1, 483213, Note_off_c, 0, 43, 59
1, 483214, Note_off_c, 0, 48, 66
1, 483226, Note_off_c, 0, 51, 59
1, 483437, Control_c, 0, 64, 126
1, 483452, Control_c, 0, 64, 101
1, 483467, Control_c, 0, 64, 79
1, 483469, Note_on_c, 0, 79, 106
1, 483470, Note_on_c, 0, 91, 97
1, 483474, Note_on_c, 0, 55, 93
1, 483477, Note_on_c, 0, 47, 75
1, 483477, Note_on_c, 0, 50, 83
1, 483479, Note_on_c, 0, 43, 72
1, 483482, Control_c, 0, 64, 0
1, 483555, Control_c, 0, 64, 63
1, 483566, Note_off_c, 0, 43, 61
1, 483570, Control_c, 0, 64, 73
1, 483573, Note_off_c, 0, 50, 63
1, 483577, Note_off_c, 0, 47, 63
1, 483585, Note_off_c, 0, 55, 63
1, 483585, Control_c, 0, 64, 84
1, 483600, Control_c, 0, 64, 92
1, 483615, Control_c, 0, 64, 97
1, 483629, Control_c, 0, 64, 103
1, 483644, Control_c, 0, 64, 108
1, 483659, Control_c, 0, 64, 112
1, 483673, Control_c, 0, 64, 115
1, 483688, Control_c, 0, 64, 117
1, 483703, Control_c, 0, 64, 119
1, 483718, Control_c, 0, 64, 122
1, 483733, Control_c, 0, 64, 127
1, 483802, Note_off_c, 0, 91, 55
1, 483834, Note_off_c, 0, 79, 54
1, 483873, Note_on_c, 0, 68, 99
1, 483881, Note_on_c, 0, 56, 78
1, 483882, Control_c, 0, 64, 112
1, 483897, Control_c, 0, 64, 87
1, 483912, Control_c, 0, 64, 60
1, 483927, Control_c, 0, 64, 0
1, 483956, Control_c, 0, 64, 63
1, 483971, Control_c, 0, 64, 79
1, 483986, Control_c, 0, 64, 94
1, 484001, Control_c, 0, 64, 108
1, 484016, Control_c, 0, 64, 113
1, 484021, Note_off_c, 0, 68, 59
1, 484030, Control_c, 0, 64, 117
1, 484039, Note_off_c, 0, 56, 62
1, 484043, Note_on_c, 0, 80, 91
1, 484043, Note_on_c, 0, 92, 90
1, 484045, Control_c, 0, 64, 125
1, 484060, Control_c, 0, 64, 127
1, 484102, Note_off_c, 0, 80, 58
1, 484128, Note_off_c, 0, 92, 66
1, 484176, Note_on_c, 0, 65, 92
1, 484181, Note_on_c, 0, 53, 86
1, 484186, Control_c, 0, 64, 117
1, 484201, Control_c, 0, 64, 116
1, 484216, Control_c, 0, 64, 117
1, 484231, Control_c, 0, 64, 117
1, 484246, Control_c, 0, 64, 122
1, 484261, Control_c, 0, 64, 127
1, 484275, Note_off_c, 0, 65, 63
1, 484292, Note_off_c, 0, 53, 64
1, 484293, Note_on_c, 0, 89, 86
1, 484295, Note_on_c, 0, 77, 80
1, 484354, Note_off_c, 0, 89, 61
1, 484359, Note_off_c, 0, 77, 54
1, 484410, Note_on_c, 0, 62, 95
1, 484416, Note_on_c, 0, 50, 87
1, 484471, Note_off_c, 0, 62, 60
1, 484503, Note_off_c, 0, 50, 60
1, 484517, Note_on_c, 0, 74, 78
1, 484517, Note_on_c, 0, 86, 84
1, 484570, Note_off_c, 0, 74, 63
1, 484573, Note_off_c, 0, 86, 64
1, 484600, Control_c, 0, 64, 117
1, 484615, Control_c, 0, 64, 89
1, 484630, Control_c, 0, 64, 67
1, 484632, Note_on_c, 0, 59, 95
1, 484636, Note_on_c, 0, 47, 88
1, 484645, Control_c, 0, 64, 0
1, 484660, Control_c, 0, 64, 61
1, 484675, Control_c, 0, 64, 73
1, 484690, Control_c, 0, 64, 88
1, 484696, Note_off_c, 0, 59, 60
1, 484704, Control_c, 0, 64, 105
1, 484719, Control_c, 0, 64, 114
1, 484724, Note_off_c, 0, 47, 62
1, 484734, Control_c, 0, 64, 120
1, 484738, Note_on_c, 0, 83, 79
1, 484742, Note_on_c, 0, 71, 77
1, 484749, Control_c, 0, 64, 127
1, 484790, Note_off_c, 0, 83, 63
1, 484791, Note_off_c, 0, 71, 61
1, 484852, Control_c, 0, 64, 101
1, 484858, Note_on_c, 0, 56, 93
1, 484865, Note_on_c, 0, 44, 87
1, 484867, Control_c, 0, 64, 91
1, 484890, Control_c, 0, 64, 90
1, 484905, Control_c, 0, 64, 94
1, 484920, Control_c, 0, 64, 105
1, 484934, Control_c, 0, 64, 127
1, 484945, Note_off_c, 0, 56, 62
1, 484975, Note_off_c, 0, 44, 63
1, 484978, Note_on_c, 0, 68, 86
1, 484982, Note_on_c, 0, 80, 82
1, 485037, Note_off_c, 0, 68, 58
1, 485056, Note_off_c, 0, 80, 62
1, 485068, Control_c, 0, 64, 118
1, 485083, Control_c, 0, 64, 91
1, 485095, Note_on_c, 0, 53, 95
1, 485098, Control_c, 0, 64, 71
1, 485104, Note_on_c, 0, 41, 87
1, 485113, Control_c, 0, 64, 50
1, 485127, Control_c, 0, 64, 65
1, 485142, Control_c, 0, 64, 75
1, 485157, Control_c, 0, 64, 90
1, 485172, Control_c, 0, 64, 105
1, 485187, Control_c, 0, 64, 112
1, 485198, Note_off_c, 0, 53, 63
1, 485201, Control_c, 0, 64, 116
1, 485206, Note_on_c, 0, 77, 85
1, 485209, Note_on_c, 0, 65, 79
1, 485216, Control_c, 0, 64, 127
1, 485220, Note_off_c, 0, 41, 65
1, 485267, Note_off_c, 0, 65, 62
1, 485268, Note_off_c, 0, 77, 60
1, 485319, Control_c, 0, 64, 94
1, 485329, Note_on_c, 0, 50, 96
1, 485334, Control_c, 0, 64, 71
1, 485336, Note_on_c, 0, 38, 91
1, 485349, Control_c, 0, 64, 0
1, 485364, Control_c, 0, 64, 36
1, 485379, Control_c, 0, 64, 68
1, 485394, Control_c, 0, 64, 82
1, 485405, Note_off_c, 0, 50, 57
1, 485408, Control_c, 0, 64, 104
1, 485423, Note_off_c, 0, 38, 61
1, 485423, Control_c, 0, 64, 120
1, 485438, Control_c, 0, 64, 125
1, 485443, Note_on_c, 0, 74, 83
1, 485444, Note_on_c, 0, 62, 80
1, 485453, Control_c, 0, 64, 127
1, 485492, Note_off_c, 0, 74, 66
1, 485501, Note_off_c, 0, 62, 60
1, 485567, Note_on_c, 0, 47, 101
1, 485572, Note_on_c, 0, 35, 92
1, 485572, Control_c, 0, 64, 94
1, 485587, Control_c, 0, 64, 79
1, 485601, Control_c, 0, 64, 77
1, 485610, Note_off_c, 0, 47, 65
1, 485616, Control_c, 0, 64, 85
1, 485632, Note_off_c, 0, 35, 61
1, 485638, Control_c, 0, 64, 99
1, 485653, Control_c, 0, 64, 122
1, 485668, Control_c, 0, 64, 127
1, 485710, Note_on_c, 0, 71, 79
1, 485714, Note_on_c, 0, 59, 84
1, 485728, Control_c, 0, 64, 126
1, 485743, Control_c, 0, 64, 96
1, 485755, Note_on_c, 0, 39, 34
1, 485757, Note_off_c, 0, 59, 65
1, 485757, Control_c, 0, 64, 74
1, 485764, Note_off_c, 0, 71, 62
1, 485772, Control_c, 0, 64, 52
1, 485787, Control_c, 0, 64, 61
1, 485792, Note_off_c, 0, 39, 51
1, 485802, Control_c, 0, 64, 72
1, 485817, Control_c, 0, 64, 85
1, 485825, Note_on_c, 0, 44, 99
1, 485832, Note_on_c, 0, 32, 88
1, 485832, Control_c, 0, 64, 106
1, 485846, Control_c, 0, 64, 127
1, 485911, Note_off_c, 0, 44, 61
1, 485921, Note_off_c, 0, 32, 63
1, 485945, Note_on_c, 0, 56, 85
1, 485945, Note_on_c, 0, 68, 81
1, 486001, Note_off_c, 0, 56, 60
1, 486010, Control_c, 0, 64, 101
1, 486018, Note_off_c, 0, 68, 64
1, 486024, Control_c, 0, 64, 77
1, 486039, Control_c, 0, 64, 0
1, 486068, Control_c, 0, 64, 53
1, 486072, Note_on_c, 0, 31, 80
1, 486075, Note_on_c, 0, 43, 97
1, 486083, Control_c, 0, 64, 76
1, 486098, Control_c, 0, 64, 94
1, 486113, Control_c, 0, 64, 116
1, 486122, Note_off_c, 0, 31, 63
1, 486128, Control_c, 0, 64, 121
1, 486137, Note_off_c, 0, 43, 63
1, 486142, Control_c, 0, 64, 122
1, 486157, Control_c, 0, 64, 126
1, 486172, Control_c, 0, 64, 127
1, 486190, Note_on_c, 0, 67, 87
1, 486192, Note_on_c, 0, 55, 83
1, 486225, Note_off_c, 0, 55, 65
1, 486243, Note_off_c, 0, 67, 64
1, 486333, Note_on_c, 0, 47, 75
1, 486334, Note_on_c, 0, 55, 99
1, 486335, Control_c, 0, 64, 99
1, 486338, Note_on_c, 0, 50, 80
1, 486340, Note_on_c, 0, 43, 82
1, 486350, Control_c, 0, 64, 71
1, 486365, Control_c, 0, 64, 0
1, 486402, Control_c, 0, 64, 43
1, 486417, Control_c, 0, 64, 72
1, 486431, Control_c, 0, 64, 85
1, 486446, Control_c, 0, 64, 97
1, 486457, Note_off_c, 0, 50, 58
1, 486461, Control_c, 0, 64, 103
1, 486463, Note_off_c, 0, 43, 58
1, 486464, Note_off_c, 0, 47, 63
1, 486471, Note_on_c, 0, 71, 82
1, 486474, Note_on_c, 0, 59, 84
1, 486475, Note_off_c, 0, 55, 57
1, 486475, Control_c, 0, 64, 106
1, 486476, Note_on_c, 0, 62, 76
1, 486484, Note_on_c, 0, 67, 64
1, 486490, Control_c, 0, 64, 110
1, 486505, Note_off_c, 0, 62, 66
1, 486506, Control_c, 0, 64, 116
1, 486510, Note_off_c, 0, 59, 62
1, 486521, Control_c, 0, 64, 123
1, 486532, Note_on_c, 0, 68, 9
1, 486533, Note_off_c, 0, 67, 60
1, 486536, Control_c, 0, 64, 127
1, 486550, Note_off_c, 0, 71, 60
1, 486582, Note_off_c, 0, 68, 51
1, 486699, Control_c, 0, 64, 118
1, 486705, Note_on_c, 0, 67, 60
1, 486708, Note_on_c, 0, 55, 90
1, 486709, Note_on_c, 0, 60, 94
1, 486710, Note_on_c, 0, 48, 80
1, 486711, Note_on_c, 0, 63, 90
1, 486712, Note_on_c, 0, 51, 83
1, 486712, Note_on_c, 0, 72, 87
1, 486714, Control_c, 0, 64, 97
1, 486729, Control_c, 0, 64, 79
1, 486744, Control_c, 0, 64, 34
1, 486759, Control_c, 0, 64, 0
1, 487147, Note_off_c, 0, 72, 58
1, 487170, Note_off_c, 0, 55, 57
1, 487181, Note_off_c, 0, 48, 61
1, 487188, Note_off_c, 0, 67, 59
1, 487191, Note_off_c, 0, 51, 61
1, 487195, Note_off_c, 0, 60, 55
1, 487200, Note_off_c, 0, 63, 60
1, 488207, Note_on_c, 0, 59, 40
1, 488207, Note_on_c, 0, 55, 38
1, 488213, Note_on_c, 0, 43, 44
1, 488222, Note_on_c, 0, 50, 35
1, 488279, Note_off_c, 0, 50, 41
1, 488311, Note_off_c, 0, 43, 57
1, 488338, Note_off_c, 0, 59, 35
1, 488339, Note_off_c, 0, 55, 36
1, 489078, Note_on_c, 0, 60, 44
1, 489087, Note_on_c, 0, 55, 40
1, 489094, Note_on_c, 0, 51, 34
1, 489103, Note_on_c, 0, 36, 33
1, 489167, Control_c, 0, 64, 60
1, 489182, Control_c, 0, 64, 66
1, 489197, Control_c, 0, 64, 68
1, 489212, Control_c, 0, 64, 69
1, 489227, Control_c, 0, 64, 71
1, 489241, Control_c, 0, 64, 73
1, 489256, Control_c, 0, 64, 74
1, 489271, Control_c, 0, 64, 75
1, 489286, Control_c, 0, 64, 76
1, 489287, Note_off_c, 0, 60, 53
1, 489300, Control_c, 0, 64, 77
1, 489310, Note_off_c, 0, 55, 41
1, 489315, Control_c, 0, 64, 78
1, 489321, Note_off_c, 0, 51, 41
1, 489328, Note_off_c, 0, 36, 41
1, 489330, Control_c, 0, 64, 78
1, 489360, Control_c, 0, 64, 79
1, 489397, Control_c, 0, 64, 79
1, 489530, Control_c, 0, 64, 79
1, 489545, Control_c, 0, 64, 77
1, 489560, Control_c, 0, 64, 76
1, 489574, Control_c, 0, 64, 73
1, 489589, Control_c, 0, 64, 69
1, 489604, Control_c, 0, 64, 64
1, 489618, Control_c, 0, 64, 48
1, 489633, Control_c, 0, 64, 0
1, 489633, End_track
0, 0, End_of_file
