0, 0, Header, 0, 1, 384
1, 0, Start_track
1, 0, Title_t, "Ballade No. 4--Vladimir Levitsky"
1, 0, Text_t, "2008 e-Piano Junior Competition recital round"
1, 0, Text_t, "recorded July 2008"
1, 0, Text_t, "http://www.piano-e-competition.com/"
1, 0, Text_t, "File processed for distribution by software from Zenph Studios, Inc., http://www.zenph.com"
1, 0, Instrument_name_t, "Yamaha Disklavier Pro Mark IV concert grand piano, model DCFIIISM4PRO"
1, 0, Sequencer_specific, 39, 67, 113, 0, 1, 0, 1, 0, 66, 97, 108, 108, 97, 100, 101, 32, 78, 111, 46, 32, 52, 32, 32, 32, 86, 108, 97, 100, 105, 109, 105, 114, 76, 101, 118, 105, 116, 115, 107, 121
1, 0, Sequencer_specific, 6, 67, 113, 0, 0, 0, 69
1, 0, System_exclusive, 21, 67, 113, 126, 21, 0, 2, 2, 0, 3, 14, 1, 4, 1, 13, 13, 10, 11, 9, 2, 7, 247
1, 0, Sequencer_specific, 5, 67, 123, 12, 2, 1
1, 0, Tempo, 512820
1, 0, Time_signature, 4, 2, 24, 8
1, 0, System_exclusive, 5, 126, 127, 9, 1, 247
1, 1, System_exclusive, 8, 67, 16, 76, 0, 0, 126, 0, 247
1, 2, System_exclusive, 8, 67, 16, 76, 8, 9, 7, 1, 247
1, 3, Control_c, 0, 0, 0
1, 3, Control_c, 1, 0, 0
1, 3, Control_c, 2, 0, 0
1, 3, Control_c, 3, 0, 0
1, 3, Control_c, 4, 0, 0
1, 3, Control_c, 5, 0, 0
1, 3, Control_c, 6, 0, 0
1, 3, Control_c, 7, 0, 0
1, 3, Control_c, 8, 0, 0
1, 3, Control_c, 9, 0, 127
1, 3, Control_c, 10, 0, 0
1, 3, Control_c, 11, 0, 0
1, 3, Control_c, 12, 0, 0
1, 3, Control_c, 13, 0, 0
1, 3, Control_c, 14, 0, 0
1, 3, Control_c, 15, 0, 0
1, 4, Control_c, 0, 32, 0
1, 4, Control_c, 1, 32, 0
1, 4, Control_c, 2, 32, 0
1, 4, Control_c, 3, 32, 0
1, 4, Control_c, 4, 32, 0
1, 4, Control_c, 5, 32, 0
1, 4, Control_c, 6, 32, 0
1, 4, Control_c, 7, 32, 0
1, 4, Control_c, 8, 32, 0
1, 4, Control_c, 9, 32, 0
1, 4, Control_c, 10, 32, 0
1, 4, Control_c, 11, 32, 0
1, 4, Control_c, 12, 32, 0
1, 4, Control_c, 13, 32, 0
1, 4, Control_c, 14, 32, 0
1, 4, Control_c, 15, 32, 0
1, 5, Program_c, 0, 0
1, 5, Program_c, 1, 0
1, 5, Program_c, 2, 0
1, 5, Program_c, 3, 0
1, 5, Program_c, 4, 0
1, 5, Program_c, 5, 0
1, 5, Program_c, 6, 0
1, 5, Program_c, 7, 0
1, 5, Program_c, 8, 0
1, 5, Program_c, 9, 0
1, 5, Program_c, 10, 0
1, 5, Program_c, 11, 0
1, 5, Program_c, 12, 0
1, 5, Program_c, 13, 0
1, 5, Program_c, 14, 0
1, 5, Program_c, 15, 0
1, 6, Control_c, 0, 7, 100
1, 6, Control_c, 1, 7, 100
1, 6, Control_c, 2, 7, 100
1, 6, Control_c, 3, 7, 100
1, 6, Control_c, 4, 7, 100
1, 6, Control_c, 5, 7, 100
1, 6, Control_c, 6, 7, 100
1, 6, Control_c, 7, 7, 100
1, 6, Control_c, 8, 7, 100
1, 6, Control_c, 9, 7, 100
1, 6, Control_c, 10, 7, 100
1, 6, Control_c, 11, 7, 100
1, 6, Control_c, 12, 7, 100
1, 6, Control_c, 13, 7, 100
1, 6, Control_c, 14, 7, 100
1, 6, Control_c, 15, 7, 100
1, 117, Control_c, 0, 64, 13
1, 229, Control_c, 0, 64, 27
1, 341, Control_c, 0, 64, 40
1, 452, Control_c, 0, 64, 54
1, 564, Control_c, 0, 64, 67
1, 676, Control_c, 0, 64, 81
1, 787, Control_c, 0, 64, 94
1, 899, Control_c, 0, 64, 108
1, 1132, Note_on_c, 0, 79, 37
1, 1141, Note_on_c, 0, 67, 35
1, 1317, Note_off_c, 0, 79, 32
1, 1322, Note_off_c, 0, 67, 36
1, 1673, Note_on_c, 0, 79, 37
1, 1687, Note_on_c, 0, 67, 32
1, 1827, Note_off_c, 0, 79, 35
1, 1852, Note_off_c, 0, 67, 33
1, 2058, Note_on_c, 0, 79, 42
1, 2103, Note_on_c, 0, 67, 9
1, 2167, Note_off_c, 0, 67, 40
1, 2221, Note_off_c, 0, 79, 35
1, 2464, Note_on_c, 0, 79, 40
1, 2478, Note_on_c, 0, 64, 36
1, 2502, Note_on_c, 0, 67, 11
1, 2667, Note_off_c, 0, 79, 34
1, 2687, Note_off_c, 0, 64, 37
1, 2721, Note_on_c, 0, 72, 36
1, 2759, Note_off_c, 0, 67, 14
1, 2810, Note_off_c, 0, 72, 34
1, 2955, Note_on_c, 0, 79, 41
1, 2973, Note_on_c, 0, 64, 33
1, 2979, Note_on_c, 0, 67, 27
1, 3107, Note_off_c, 0, 79, 35
1, 3109, Note_off_c, 0, 64, 37
1, 3139, Note_on_c, 0, 72, 33
1, 3160, Note_off_c, 0, 67, 22
1, 3185, Note_off_c, 0, 72, 44
1, 3286, Control_c, 0, 64, 107
1, 3300, Control_c, 0, 64, 105
1, 3315, Control_c, 0, 64, 99
1, 3318, Note_on_c, 0, 79, 50
1, 3330, Control_c, 0, 64, 92
1, 3333, Note_on_c, 0, 62, 38
1, 3343, Note_on_c, 0, 67, 29
1, 3345, Control_c, 0, 64, 83
1, 3360, Control_c, 0, 64, 75
1, 3376, Control_c, 0, 64, 72
1, 3405, Control_c, 0, 64, 73
1, 3420, Control_c, 0, 64, 75
1, 3435, Control_c, 0, 64, 78
1, 3450, Control_c, 0, 64, 82
1, 3465, Control_c, 0, 64, 86
1, 3479, Control_c, 0, 64, 89
1, 3493, Note_on_c, 0, 72, 40
1, 3494, Control_c, 0, 64, 91
1, 3500, Note_off_c, 0, 62, 35
1, 3504, Note_off_c, 0, 79, 30
1, 3509, Control_c, 0, 64, 93
1, 3517, Note_off_c, 0, 67, 20
1, 3523, Control_c, 0, 64, 95
1, 3529, Note_off_c, 0, 72, 50
1, 3538, Control_c, 0, 64, 97
1, 3553, Control_c, 0, 64, 98
1, 3568, Control_c, 0, 64, 99
1, 3583, Control_c, 0, 64, 99
1, 3597, Control_c, 0, 64, 100
1, 3612, Control_c, 0, 64, 100
1, 3627, Control_c, 0, 64, 101
1, 3642, Control_c, 0, 64, 101
1, 3686, Note_on_c, 0, 79, 50
1, 3686, Control_c, 0, 64, 102
1, 3709, Note_on_c, 0, 62, 39
1, 3722, Note_on_c, 0, 67, 35
1, 3808, Note_off_c, 0, 79, 55
1, 3858, Note_off_c, 0, 62, 37
1, 3899, Note_on_c, 0, 72, 23
1, 3927, Note_off_c, 0, 67, 18
1, 3934, Note_off_c, 0, 72, 52
1, 4064, Control_c, 0, 64, 101
1, 4074, Note_on_c, 0, 79, 55
1, 4079, Control_c, 0, 64, 97
1, 4093, Note_on_c, 0, 67, 35
1, 4094, Control_c, 0, 64, 87
1, 4095, Note_on_c, 0, 60, 42
1, 4109, Control_c, 0, 64, 75
1, 4123, Control_c, 0, 64, 54
1, 4138, Control_c, 0, 64, 0
1, 4153, Control_c, 0, 64, 48
1, 4155, Note_off_c, 0, 79, 60
1, 4168, Control_c, 0, 64, 66
1, 4184, Control_c, 0, 64, 73
1, 4199, Control_c, 0, 64, 79
1, 4214, Control_c, 0, 64, 85
1, 4228, Control_c, 0, 64, 89
1, 4243, Control_c, 0, 64, 92
1, 4258, Control_c, 0, 64, 96
1, 4273, Note_on_c, 0, 70, 47
1, 4273, Control_c, 0, 64, 99
1, 4279, Note_on_c, 0, 72, 42
1, 4288, Control_c, 0, 64, 102
1, 4302, Control_c, 0, 64, 104
1, 4317, Control_c, 0, 64, 106
1, 4327, Note_off_c, 0, 70, 58
1, 4332, Control_c, 0, 64, 107
1, 4337, Note_off_c, 0, 67, 40
1, 4346, Control_c, 0, 64, 108
1, 4351, Note_off_c, 0, 72, 49
1, 4361, Control_c, 0, 64, 108
1, 4376, Control_c, 0, 64, 109
1, 4391, Control_c, 0, 64, 109
1, 4406, Control_c, 0, 64, 110
1, 4420, Control_c, 0, 64, 110
1, 4463, Note_on_c, 0, 79, 67
1, 4467, Note_on_c, 0, 67, 48
1, 4499, Note_off_c, 0, 60, 36
1, 4556, Note_off_c, 0, 79, 57
1, 4677, Note_on_c, 0, 72, 48
1, 4680, Note_on_c, 0, 70, 47
1, 4718, Note_off_c, 0, 67, 37
1, 4727, Note_off_c, 0, 72, 58
1, 4729, Note_off_c, 0, 70, 59
1, 4917, Control_c, 0, 64, 108
1, 4932, Control_c, 0, 64, 101
1, 4947, Control_c, 0, 64, 90
1, 4951, Note_on_c, 0, 79, 58
1, 4955, Note_on_c, 0, 41, 40
1, 4962, Control_c, 0, 64, 76
1, 4977, Note_on_c, 0, 67, 42
1, 4977, Control_c, 0, 64, 57
1, 4992, Control_c, 0, 64, 0
1, 5037, Control_c, 0, 64, 65
1, 5052, Control_c, 0, 64, 73
1, 5062, Note_off_c, 0, 79, 54
1, 5066, Control_c, 0, 64, 80
1, 5080, Note_off_c, 0, 41, 52
1, 5081, Control_c, 0, 64, 86
1, 5096, Control_c, 0, 64, 89
1, 5111, Control_c, 0, 64, 92
1, 5126, Control_c, 0, 64, 95
1, 5141, Control_c, 0, 64, 99
1, 5156, Control_c, 0, 64, 103
1, 5170, Control_c, 0, 64, 105
1, 5185, Control_c, 0, 64, 108
1, 5200, Control_c, 0, 64, 110
1, 5215, Control_c, 0, 64, 112
1, 5222, Note_on_c, 0, 72, 38
1, 5226, Note_off_c, 0, 67, 41
1, 5230, Control_c, 0, 64, 113
1, 5244, Control_c, 0, 64, 115
1, 5248, Note_on_c, 0, 69, 4
1, 5259, Control_c, 0, 64, 116
1, 5274, Control_c, 0, 64, 117
1, 5289, Control_c, 0, 64, 118
1, 5307, Poly_aftertouch_c, 0, 60, 127
1, 5311, Control_c, 0, 64, 118
1, 5329, Note_off_c, 0, 69, 43
1, 5356, Control_c, 0, 64, 119
1, 5391, Poly_aftertouch_c, 0, 60, 0
1, 5402, Note_on_c, 0, 77, 62
1, 5415, Note_on_c, 0, 57, 37
1, 5424, Note_off_c, 0, 72, 50
1, 5430, Note_on_c, 0, 65, 37
1, 5549, Note_off_c, 0, 77, 37
1, 5578, Note_off_c, 0, 57, 34
1, 5579, Note_on_c, 0, 72, 41
1, 5600, Note_on_c, 0, 60, 32
1, 5600, Note_on_c, 0, 69, 39
1, 5607, Note_off_c, 0, 65, 42
1, 5686, Note_off_c, 0, 69, 51
1, 5728, Note_off_c, 0, 60, 31
1, 5742, Note_on_c, 0, 76, 63
1, 5761, Note_on_c, 0, 64, 48
1, 5763, Note_off_c, 0, 72, 53
1, 5768, Note_on_c, 0, 50, 35
1, 5871, Note_off_c, 0, 50, 31
1, 5888, Note_off_c, 0, 76, 55
1, 5892, Note_off_c, 0, 64, 31
1, 5904, Note_on_c, 0, 60, 34
1, 5913, Note_on_c, 0, 69, 33
1, 5914, Note_on_c, 0, 72, 42
1, 5946, Note_off_c, 0, 60, 59
1, 6026, Note_off_c, 0, 69, 39
1, 6037, Control_c, 0, 64, 116
1, 6059, Control_c, 0, 64, 106
1, 6074, Control_c, 0, 64, 93
1, 6089, Control_c, 0, 64, 78
1, 6092, Note_on_c, 0, 76, 62
1, 6101, Note_off_c, 0, 72, 57
1, 6104, Control_c, 0, 64, 62
1, 6115, Note_on_c, 0, 64, 35
1, 6119, Note_on_c, 0, 43, 42
1, 6119, Control_c, 0, 64, 0
1, 6148, Control_c, 0, 64, 47
1, 6160, Note_off_c, 0, 43, 51
1, 6163, Control_c, 0, 64, 67
1, 6178, Control_c, 0, 64, 74
1, 6193, Control_c, 0, 64, 79
1, 6193, Note_off_c, 0, 76, 55
1, 6207, Control_c, 0, 64, 83
1, 6222, Control_c, 0, 64, 85
1, 6237, Control_c, 0, 64, 87
1, 6251, Control_c, 0, 64, 90
1, 6266, Control_c, 0, 64, 92
1, 6281, Control_c, 0, 64, 94
1, 6282, Note_on_c, 0, 71, 43
1, 6287, Note_on_c, 0, 67, 36
1, 6296, Control_c, 0, 64, 96
1, 6298, Note_on_c, 0, 55, 45
1, 6311, Control_c, 0, 64, 97
1, 6312, Note_off_c, 0, 64, 40
1, 6325, Control_c, 0, 64, 97
1, 6340, Control_c, 0, 64, 98
1, 6355, Control_c, 0, 64, 98
1, 6370, Control_c, 0, 64, 99
1, 6415, Note_off_c, 0, 55, 61
1, 6431, Note_off_c, 0, 67, 31
1, 6447, Note_on_c, 0, 74, 60
1, 6480, Note_on_c, 0, 59, 35
1, 6480, Note_on_c, 0, 62, 41
1, 6484, Note_on_c, 0, 53, 36
1, 6486, Note_off_c, 0, 71, 39
1, 6600, Note_off_c, 0, 74, 58
1, 6618, Note_on_c, 0, 71, 43
1, 6639, Note_off_c, 0, 59, 28
1, 6646, Note_off_c, 0, 62, 33
1, 6651, Note_on_c, 0, 55, 34
1, 6664, Note_on_c, 0, 67, 8
1, 6718, Note_off_c, 0, 67, 45
1, 6786, Control_c, 0, 64, 98
1, 6809, Control_c, 0, 64, 96
1, 6819, Note_off_c, 0, 55, 44
1, 6821, Note_on_c, 0, 72, 57
1, 6823, Control_c, 0, 64, 90
1, 6825, Note_off_c, 0, 53, 34
1, 6837, Note_on_c, 0, 52, 45
1, 6838, Control_c, 0, 64, 79
1, 6839, Note_off_c, 0, 71, 31
1, 6853, Control_c, 0, 64, 66
1, 6856, Note_on_c, 0, 60, 36
1, 6868, Control_c, 0, 64, 0
1, 6927, Control_c, 0, 64, 60
1, 6942, Control_c, 0, 64, 67
1, 6956, Control_c, 0, 64, 71
1, 6971, Control_c, 0, 64, 75
1, 6974, Note_off_c, 0, 72, 59
1, 6980, Note_off_c, 0, 60, 23
1, 6986, Control_c, 0, 64, 79
1, 7001, Control_c, 0, 64, 82
1, 7014, Note_on_c, 0, 55, 43
1, 7014, Note_on_c, 0, 67, 32
1, 7016, Control_c, 0, 64, 84
1, 7031, Control_c, 0, 64, 85
1, 7040, Note_off_c, 0, 52, 32
1, 7046, Control_c, 0, 64, 87
1, 7046, Note_off_c, 0, 67, 49
1, 7061, Control_c, 0, 64, 89
1, 7074, Note_off_c, 0, 55, 54
1, 7075, Control_c, 0, 64, 90
1, 7090, Control_c, 0, 64, 91
1, 7105, Control_c, 0, 64, 91
1, 7120, Control_c, 0, 64, 92
1, 7135, Control_c, 0, 64, 92
1, 7258, Note_on_c, 0, 76, 59
1, 7272, Note_on_c, 0, 48, 47
1, 7282, Control_c, 0, 64, 92
1, 7297, Control_c, 0, 64, 89
1, 7299, Note_on_c, 0, 64, 38
1, 7312, Control_c, 0, 64, 83
1, 7327, Control_c, 0, 64, 72
1, 7341, Control_c, 0, 64, 40
1, 7356, Control_c, 0, 64, 0
1, 7432, Control_c, 0, 64, 59
1, 7446, Control_c, 0, 64, 66
1, 7461, Control_c, 0, 64, 69
1, 7469, Note_on_c, 0, 55, 30
1, 7476, Note_off_c, 0, 64, 36
1, 7476, Control_c, 0, 64, 72
1, 7481, Note_on_c, 0, 67, 28
1, 7485, Note_on_c, 0, 72, 35
1, 7490, Control_c, 0, 64, 74
1, 7505, Control_c, 0, 64, 77
1, 7520, Control_c, 0, 64, 79
1, 7543, Control_c, 0, 64, 80
1, 7558, Control_c, 0, 64, 82
1, 7572, Control_c, 0, 64, 83
1, 7587, Control_c, 0, 64, 84
1, 7602, Control_c, 0, 64, 85
1, 7617, Control_c, 0, 64, 85
1, 7618, Note_off_c, 0, 67, 35
1, 7632, Control_c, 0, 64, 86
1, 7646, Control_c, 0, 64, 87
1, 7647, Note_off_c, 0, 55, 43
1, 7651, Note_on_c, 0, 60, 38
1, 7658, Note_off_c, 0, 72, 31
1, 7661, Control_c, 0, 64, 87
1, 7662, Note_on_c, 0, 64, 37
1, 7705, Control_c, 0, 64, 88
1, 7809, Control_c, 0, 64, 88
1, 7857, Note_on_c, 0, 65, 36
1, 7858, Note_on_c, 0, 57, 34
1, 7860, Note_on_c, 0, 72, 26
1, 7909, Note_off_c, 0, 57, 45
1, 7934, Note_off_c, 0, 64, 37
1, 8044, Note_off_c, 0, 65, 41
1, 8076, Control_c, 0, 64, 87
1, 8088, Note_on_c, 0, 55, 32
1, 8089, Note_on_c, 0, 64, 40
1, 8090, Control_c, 0, 64, 86
1, 8105, Control_c, 0, 64, 81
1, 8120, Control_c, 0, 64, 72
1, 8135, Control_c, 0, 64, 57
1, 8142, Note_off_c, 0, 72, 38
1, 8150, Control_c, 0, 64, 0
1, 8152, Note_off_c, 0, 60, 36
1, 8240, Control_c, 0, 64, 57
1, 8255, Control_c, 0, 64, 65
1, 8269, Control_c, 0, 64, 68
1, 8292, Control_c, 0, 64, 71
1, 8307, Control_c, 0, 64, 74
1, 8321, Control_c, 0, 64, 77
1, 8322, Note_off_c, 0, 55, 42
1, 8336, Control_c, 0, 64, 79
1, 8351, Control_c, 0, 64, 81
1, 8359, Note_on_c, 0, 72, 29
1, 8360, Note_off_c, 0, 48, 43
1, 8366, Control_c, 0, 64, 83
1, 8370, Note_on_c, 0, 67, 25
1, 8381, Control_c, 0, 64, 85
1, 8395, Control_c, 0, 64, 86
1, 8410, Control_c, 0, 64, 87
1, 8425, Control_c, 0, 64, 89
1, 8440, Control_c, 0, 64, 90
1, 8455, Control_c, 0, 64, 90
1, 8458, Note_off_c, 0, 64, 36
1, 8469, Control_c, 0, 64, 91
1, 8484, Control_c, 0, 64, 91
1, 8499, Control_c, 0, 64, 92
1, 8513, Control_c, 0, 64, 92
1, 8628, Note_on_c, 0, 36, 34
1, 8639, Note_off_c, 0, 67, 12
1, 8691, Control_c, 0, 64, 91
1, 8703, Note_off_c, 0, 72, 29
1, 8706, Control_c, 0, 64, 87
1, 8721, Control_c, 0, 64, 77
1, 8729, Note_on_c, 0, 64, 38
1, 8736, Control_c, 0, 64, 65
1, 8736, Note_off_c, 0, 76, 18
1, 8751, Control_c, 0, 64, 0
1, 8810, Control_c, 0, 64, 60
1, 8825, Control_c, 0, 64, 70
1, 8839, Control_c, 0, 64, 76
1, 8852, Note_off_c, 0, 64, 49
1, 8854, Control_c, 0, 64, 82
1, 8869, Control_c, 0, 64, 85
1, 8884, Control_c, 0, 64, 88
1, 8899, Control_c, 0, 64, 90
1, 8913, Control_c, 0, 64, 93
1, 8928, Control_c, 0, 64, 96
1, 8943, Control_c, 0, 64, 98
1, 8958, Control_c, 0, 64, 99
1, 8974, Control_c, 0, 64, 100
1, 8989, Control_c, 0, 64, 101
1, 9004, Control_c, 0, 64, 102
1, 9018, Control_c, 0, 64, 103
1, 9033, Control_c, 0, 64, 104
1, 9056, Note_off_c, 0, 36, 40
1, 9070, Control_c, 0, 64, 104
1, 9075, Note_on_c, 0, 79, 45
1, 9085, Control_c, 0, 64, 105
1, 9100, Control_c, 0, 64, 105
1, 9129, Control_c, 0, 64, 106
1, 9144, Control_c, 0, 64, 106
1, 9204, Control_c, 0, 64, 107
1, 9262, Control_c, 0, 64, 107
1, 9322, Control_c, 0, 64, 108
1, 9341, Note_off_c, 0, 79, 29
1, 9343, Note_on_c, 0, 72, 34
1, 9413, Note_off_c, 0, 72, 47
1, 9425, Control_c, 0, 64, 108
1, 9550, Note_on_c, 0, 79, 56
1, 9585, Note_on_c, 0, 60, 39
1, 9594, Note_on_c, 0, 67, 30
1, 9621, Note_off_c, 0, 79, 58
1, 9746, Note_on_c, 0, 70, 43
1, 9749, Note_on_c, 0, 72, 43
1, 9768, Note_on_c, 0, 62, 28
1, 9781, Note_off_c, 0, 67, 38
1, 9806, Note_off_c, 0, 70, 45
1, 9836, Note_off_c, 0, 72, 55
1, 9902, Note_off_c, 0, 60, 32
1, 9933, Note_on_c, 0, 79, 67
1, 9951, Note_off_c, 0, 62, 36
1, 9955, Note_on_c, 0, 67, 46
1, 9968, Note_on_c, 0, 64, 43
1, 10019, Note_off_c, 0, 64, 59
1, 10021, Note_off_c, 0, 79, 58
1, 10130, Note_on_c, 0, 72, 47
1, 10136, Note_on_c, 0, 70, 39
1, 10162, Note_off_c, 0, 67, 39
1, 10168, Note_off_c, 0, 70, 54
1, 10179, Note_off_c, 0, 72, 58
1, 10337, Control_c, 0, 64, 108
1, 10352, Control_c, 0, 64, 104
1, 10366, Control_c, 0, 64, 95
1, 10381, Control_c, 0, 64, 83
1, 10390, Note_on_c, 0, 79, 61
1, 10396, Control_c, 0, 64, 68
1, 10399, Note_on_c, 0, 41, 37
1, 10411, Control_c, 0, 64, 0
1, 10425, Note_on_c, 0, 67, 41
1, 10456, Control_c, 0, 64, 62
1, 10471, Control_c, 0, 64, 72
1, 10485, Control_c, 0, 64, 81
1, 10500, Control_c, 0, 64, 88
1, 10513, Note_off_c, 0, 79, 58
1, 10515, Control_c, 0, 64, 91
1, 10516, Note_off_c, 0, 41, 48
1, 10530, Control_c, 0, 64, 93
1, 10552, Control_c, 0, 64, 96
1, 10568, Control_c, 0, 64, 99
1, 10583, Control_c, 0, 64, 101
1, 10597, Control_c, 0, 64, 104
1, 10612, Control_c, 0, 64, 105
1, 10627, Control_c, 0, 64, 106
1, 10642, Control_c, 0, 64, 107
1, 10657, Control_c, 0, 64, 107
1, 10668, Note_on_c, 0, 72, 39
1, 10671, Control_c, 0, 64, 108
1, 10686, Control_c, 0, 64, 108
1, 10698, Note_on_c, 0, 69, 15
1, 10701, Control_c, 0, 64, 109
1, 10702, Note_off_c, 0, 67, 36
1, 10706, Note_on_c, 0, 60, 17
1, 10730, Control_c, 0, 64, 109
1, 10781, Note_off_c, 0, 60, 37
1, 10837, Note_on_c, 0, 77, 64
1, 10843, Note_on_c, 0, 57, 37
1, 10868, Note_on_c, 0, 65, 42
1, 10871, Note_off_c, 0, 69, 25
1, 10900, Note_off_c, 0, 72, 33
1, 10972, Note_off_c, 0, 57, 51
1, 10975, Note_off_c, 0, 77, 57
1, 11013, Note_on_c, 0, 69, 37
1, 11016, Note_on_c, 0, 60, 32
1, 11032, Note_on_c, 0, 72, 45
1, 11046, Note_off_c, 0, 65, 35
1, 11126, Note_off_c, 0, 69, 38
1, 11140, Note_off_c, 0, 60, 34
1, 11171, Note_on_c, 0, 76, 64
1, 11186, Note_off_c, 0, 72, 55
1, 11189, Note_on_c, 0, 50, 36
1, 11195, Note_on_c, 0, 64, 40
1, 11276, Note_off_c, 0, 50, 34
1, 11292, Note_off_c, 0, 64, 44
1, 11325, Note_off_c, 0, 76, 54
1, 11344, Note_on_c, 0, 60, 34
1, 11353, Note_on_c, 0, 72, 38
1, 11357, Note_on_c, 0, 69, 23
1, 11382, Note_off_c, 0, 60, 50
1, 11460, Note_off_c, 0, 69, 35
1, 11464, Control_c, 0, 64, 109
1, 11479, Control_c, 0, 64, 103
1, 11494, Control_c, 0, 64, 92
1, 11509, Control_c, 0, 64, 74
1, 11524, Control_c, 0, 64, 45
1, 11527, Note_on_c, 0, 76, 59
1, 11530, Note_off_c, 0, 72, 56
1, 11537, Note_on_c, 0, 43, 44
1, 11538, Control_c, 0, 64, 0
1, 11557, Note_on_c, 0, 64, 29
1, 11568, Control_c, 0, 64, 53
1, 11583, Control_c, 0, 64, 68
1, 11589, Note_off_c, 0, 43, 52
1, 11598, Control_c, 0, 64, 75
1, 11613, Control_c, 0, 64, 80
1, 11627, Control_c, 0, 64, 82
1, 11631, Note_off_c, 0, 76, 55
1, 11642, Control_c, 0, 64, 83
1, 11657, Control_c, 0, 64, 85
1, 11672, Control_c, 0, 64, 87
1, 11687, Control_c, 0, 64, 90
1, 11702, Control_c, 0, 64, 92
1, 11717, Control_c, 0, 64, 93
1, 11718, Note_on_c, 0, 71, 39
1, 11732, Control_c, 0, 64, 93
1, 11732, Note_on_c, 0, 67, 28
1, 11737, Note_on_c, 0, 55, 38
1, 11746, Control_c, 0, 64, 94
1, 11749, Note_off_c, 0, 64, 40
1, 11761, Control_c, 0, 64, 94
1, 11776, Control_c, 0, 64, 95
1, 11791, Control_c, 0, 64, 95
1, 11848, Note_off_c, 0, 67, 29
1, 11864, Control_c, 0, 64, 96
1, 11874, Note_off_c, 0, 55, 41
1, 11882, Note_on_c, 0, 74, 57
1, 11909, Note_on_c, 0, 62, 43
1, 11917, Note_on_c, 0, 53, 37
1, 11917, Note_on_c, 0, 59, 29
1, 11928, Note_off_c, 0, 71, 34
1, 12040, Note_off_c, 0, 74, 56
1, 12055, Note_off_c, 0, 59, 29
1, 12072, Note_on_c, 0, 55, 38
1, 12078, Note_off_c, 0, 62, 25
1, 12080, Note_on_c, 0, 71, 39
1, 12131, Poly_aftertouch_c, 0, 67, 127
1, 12176, Poly_aftertouch_c, 0, 67, 0
1, 12212, Note_off_c, 0, 55, 55
1, 12229, Control_c, 0, 64, 95
1, 12241, Note_off_c, 0, 53, 37
1, 12243, Control_c, 0, 64, 94
1, 12251, Note_on_c, 0, 72, 58
1, 12258, Control_c, 0, 64, 90
1, 12260, Note_on_c, 0, 52, 44
1, 12273, Control_c, 0, 64, 78
1, 12278, Note_on_c, 0, 60, 39
1, 12287, Control_c, 0, 64, 65
1, 12292, Note_off_c, 0, 71, 34
1, 12302, Control_c, 0, 64, 0
1, 12361, Control_c, 0, 64, 64
1, 12376, Control_c, 0, 64, 69
1, 12391, Control_c, 0, 64, 73
1, 12406, Control_c, 0, 64, 77
1, 12408, Note_off_c, 0, 72, 59
1, 12418, Note_off_c, 0, 60, 22
1, 12421, Control_c, 0, 64, 79
1, 12431, Note_on_c, 0, 55, 42
1, 12435, Note_off_c, 0, 52, 35
1, 12435, Control_c, 0, 64, 82
1, 12438, Note_on_c, 0, 67, 38
1, 12450, Control_c, 0, 64, 85
1, 12466, Control_c, 0, 64, 87
1, 12470, Note_off_c, 0, 67, 54
1, 12481, Control_c, 0, 64, 89
1, 12493, Note_off_c, 0, 55, 56
1, 12495, Control_c, 0, 64, 90
1, 12510, Control_c, 0, 64, 91
1, 12525, Control_c, 0, 64, 92
1, 12540, Control_c, 0, 64, 92
1, 12569, Control_c, 0, 64, 93
1, 12675, Note_on_c, 0, 76, 59
1, 12698, Note_on_c, 0, 48, 45
1, 12705, Note_on_c, 0, 64, 37
1, 12718, Control_c, 0, 64, 92
1, 12733, Control_c, 0, 64, 87
1, 12748, Control_c, 0, 64, 78
1, 12762, Control_c, 0, 64, 66
1, 12777, Control_c, 0, 64, 0
1, 12844, Control_c, 0, 64, 41
1, 12859, Control_c, 0, 64, 63
1, 12873, Control_c, 0, 64, 66
1, 12888, Control_c, 0, 64, 68
1, 12899, Note_on_c, 0, 55, 36
1, 12903, Control_c, 0, 64, 71
1, 12904, Note_on_c, 0, 67, 25
1, 12909, Note_on_c, 0, 72, 34
1, 12912, Note_off_c, 0, 64, 39
1, 12918, Control_c, 0, 64, 74
1, 12933, Control_c, 0, 64, 77
1, 12948, Control_c, 0, 64, 79
1, 12963, Control_c, 0, 64, 80
1, 12978, Control_c, 0, 64, 81
1, 12993, Control_c, 0, 64, 82
1, 13008, Control_c, 0, 64, 83
1, 13022, Control_c, 0, 64, 83
1, 13031, Note_off_c, 0, 67, 40
1, 13037, Control_c, 0, 64, 84
1, 13052, Control_c, 0, 64, 84
1, 13064, Note_off_c, 0, 72, 35
1, 13070, Note_on_c, 0, 64, 43
1, 13071, Note_on_c, 0, 60, 39
1, 13075, Note_off_c, 0, 55, 43
1, 13082, Control_c, 0, 64, 85
1, 13097, Control_c, 0, 64, 85
1, 13267, Note_on_c, 0, 72, 31
1, 13275, Note_on_c, 0, 57, 36
1, 13283, Note_on_c, 0, 65, 10
1, 13334, Note_off_c, 0, 57, 45
1, 13353, Note_off_c, 0, 64, 36
1, 13479, Note_off_c, 0, 65, 40
1, 13482, Control_c, 0, 64, 84
1, 13492, Note_on_c, 0, 64, 43
1, 13496, Note_on_c, 0, 55, 36
1, 13496, Control_c, 0, 64, 82
1, 13511, Control_c, 0, 64, 75
1, 13526, Control_c, 0, 64, 66
1, 13548, Note_off_c, 0, 72, 38
1, 13548, Control_c, 0, 64, 0
1, 13558, Note_off_c, 0, 60, 26
1, 13637, Control_c, 0, 64, 46
1, 13651, Control_c, 0, 64, 64
1, 13666, Control_c, 0, 64, 68
1, 13681, Control_c, 0, 64, 71
1, 13696, Control_c, 0, 64, 74
1, 13711, Control_c, 0, 64, 76
1, 13711, Note_on_c, 0, 72, 39
1, 13726, Control_c, 0, 64, 79
1, 13733, Note_off_c, 0, 55, 46
1, 13737, Note_on_c, 0, 67, 34
1, 13741, Control_c, 0, 64, 81
1, 13756, Control_c, 0, 64, 83
1, 13771, Control_c, 0, 64, 84
1, 13773, Note_off_c, 0, 64, 22
1, 13783, Note_off_c, 0, 67, 45
1, 13786, Control_c, 0, 64, 85
1, 13791, Note_off_c, 0, 48, 40
1, 13799, Note_off_c, 0, 76, 34
1, 13801, Control_c, 0, 64, 87
1, 13815, Control_c, 0, 64, 88
1, 13830, Control_c, 0, 64, 88
1, 13845, Control_c, 0, 64, 89
1, 13860, Control_c, 0, 64, 89
1, 13941, Note_off_c, 0, 72, 29
1, 13978, Control_c, 0, 64, 89
1, 13993, Control_c, 0, 64, 84
1, 14005, Note_on_c, 0, 76, 48
1, 14007, Control_c, 0, 64, 76
1, 14014, Note_on_c, 0, 43, 36
1, 14022, Control_c, 0, 64, 64
1, 14037, Control_c, 0, 64, 0
1, 14038, Note_on_c, 0, 64, 28
1, 14081, Control_c, 0, 64, 38
1, 14096, Control_c, 0, 64, 65
1, 14111, Control_c, 0, 64, 70
1, 14126, Control_c, 0, 64, 73
1, 14132, Note_off_c, 0, 43, 53
1, 14140, Control_c, 0, 64, 76
1, 14155, Control_c, 0, 64, 79
1, 14170, Control_c, 0, 64, 81
1, 14185, Control_c, 0, 64, 83
1, 14200, Note_off_c, 0, 76, 38
1, 14200, Control_c, 0, 64, 85
1, 14215, Control_c, 0, 64, 87
1, 14230, Control_c, 0, 64, 88
1, 14245, Control_c, 0, 64, 89
1, 14259, Control_c, 0, 64, 90
1, 14274, Control_c, 0, 64, 91
1, 14274, Note_on_c, 0, 71, 39
1, 14288, Note_on_c, 0, 67, 29
1, 14292, Note_on_c, 0, 55, 36
1, 14296, Control_c, 0, 64, 91
1, 14324, Note_off_c, 0, 64, 40
1, 14326, Control_c, 0, 64, 92
1, 14385, Control_c, 0, 64, 92
1, 14444, Note_off_c, 0, 55, 48
1, 14474, Note_on_c, 0, 74, 50
1, 14483, Note_off_c, 0, 67, 34
1, 14492, Note_on_c, 0, 53, 35
1, 14508, Note_on_c, 0, 59, 22
1, 14508, Note_on_c, 0, 62, 35
1, 14525, Note_off_c, 0, 71, 32
1, 14622, Note_off_c, 0, 74, 51
1, 14665, Note_on_c, 0, 71, 38
1, 14668, Note_on_c, 0, 55, 40
1, 14682, Note_off_c, 0, 59, 34
1, 14696, Note_on_c, 0, 67, 9
1, 14699, Note_off_c, 0, 62, 38
1, 14755, Note_off_c, 0, 67, 44
1, 14862, Note_off_c, 0, 55, 43
1, 14874, Note_off_c, 0, 53, 38
1, 14874, Control_c, 0, 64, 92
1, 14879, Note_off_c, 0, 71, 33
1, 14880, Note_on_c, 0, 72, 49
1, 14883, Note_on_c, 0, 52, 45
1, 14889, Control_c, 0, 64, 91
1, 14903, Control_c, 0, 64, 89
1, 14907, Note_on_c, 0, 60, 39
1, 14918, Control_c, 0, 64, 84
1, 14933, Control_c, 0, 64, 75
1, 14948, Control_c, 0, 64, 54
1, 14963, Control_c, 0, 64, 0
1, 15022, Control_c, 0, 64, 39
1, 15044, Control_c, 0, 64, 64
1, 15059, Control_c, 0, 64, 67
1, 15074, Control_c, 0, 64, 70
1, 15075, Note_off_c, 0, 72, 58
1, 15088, Control_c, 0, 64, 73
1, 15091, Note_off_c, 0, 60, 36
1, 15103, Control_c, 0, 64, 75
1, 15108, Note_on_c, 0, 55, 39
1, 15115, Note_on_c, 0, 67, 36
1, 15117, Note_off_c, 0, 52, 32
1, 15118, Control_c, 0, 64, 78
1, 15133, Control_c, 0, 64, 80
1, 15148, Control_c, 0, 64, 82
1, 15163, Control_c, 0, 64, 83
1, 15172, Note_off_c, 0, 67, 43
1, 15178, Control_c, 0, 64, 84
1, 15184, Note_off_c, 0, 55, 58
1, 15193, Control_c, 0, 64, 85
1, 15207, Control_c, 0, 64, 85
1, 15222, Control_c, 0, 64, 86
1, 15237, Control_c, 0, 64, 86
1, 15252, Control_c, 0, 64, 87
1, 15267, Control_c, 0, 64, 87
1, 15281, Control_c, 0, 64, 88
1, 15419, Note_on_c, 0, 76, 52
1, 15438, Note_on_c, 0, 48, 40
1, 15446, Note_on_c, 0, 64, 37
1, 15460, Control_c, 0, 64, 87
1, 15475, Control_c, 0, 64, 86
1, 15490, Control_c, 0, 64, 81
1, 15504, Control_c, 0, 64, 74
1, 15519, Control_c, 0, 64, 56
1, 15534, Control_c, 0, 64, 0
1, 15623, Control_c, 0, 64, 58
1, 15637, Control_c, 0, 64, 64
1, 15652, Control_c, 0, 64, 66
1, 15667, Control_c, 0, 64, 67
1, 15682, Control_c, 0, 64, 69
1, 15696, Control_c, 0, 64, 71
1, 15699, Note_on_c, 0, 55, 31
1, 15711, Control_c, 0, 64, 74
1, 15713, Note_on_c, 0, 67, 38
1, 15723, Note_on_c, 0, 72, 34
1, 15726, Control_c, 0, 64, 77
1, 15732, Note_off_c, 0, 64, 39
1, 15741, Control_c, 0, 64, 78
1, 15756, Control_c, 0, 64, 78
1, 15778, Control_c, 0, 64, 79
1, 15793, Control_c, 0, 64, 80
1, 15808, Control_c, 0, 64, 80
1, 15823, Control_c, 0, 64, 81
1, 15852, Control_c, 0, 64, 81
1, 15866, Note_off_c, 0, 67, 40
1, 15889, Note_off_c, 0, 72, 34
1, 15890, Note_off_c, 0, 55, 42
1, 15907, Note_on_c, 0, 64, 42
1, 15908, Note_on_c, 0, 60, 36
1, 16105, Note_on_c, 0, 65, 39
1, 16108, Note_on_c, 0, 72, 38
1, 16114, Note_on_c, 0, 57, 37
1, 16161, Note_off_c, 0, 57, 45
1, 16197, Note_off_c, 0, 64, 36
1, 16253, Control_c, 0, 64, 81
1, 16268, Control_c, 0, 64, 80
1, 16283, Control_c, 0, 64, 79
1, 16288, Note_off_c, 0, 48, 43
1, 16290, Note_off_c, 0, 65, 41
1, 16298, Control_c, 0, 64, 79
1, 16311, Note_on_c, 0, 55, 39
1, 16313, Control_c, 0, 64, 77
1, 16317, Note_on_c, 0, 64, 53
1, 16327, Control_c, 0, 64, 76
1, 16342, Control_c, 0, 64, 73
1, 16349, Note_off_c, 0, 60, 26
1, 16355, Note_off_c, 0, 72, 30
1, 16357, Control_c, 0, 64, 69
1, 16372, Control_c, 0, 64, 65
1, 16387, Control_c, 0, 64, 57
1, 16401, Control_c, 0, 64, 49
1, 16416, Control_c, 0, 64, 48
1, 16460, Control_c, 0, 64, 47
1, 16475, Control_c, 0, 64, 45
1, 16490, Control_c, 0, 64, 43
1, 16505, Control_c, 0, 64, 39
1, 16511, Note_on_c, 0, 48, 38
1, 16527, Control_c, 0, 64, 37
1, 16542, Control_c, 0, 64, 35
1, 16546, Note_on_c, 0, 72, 28
1, 16551, Note_on_c, 0, 67, 35
1, 16557, Control_c, 0, 64, 34
1, 16561, Note_off_c, 0, 64, 38
1, 16572, Control_c, 0, 64, 29
1, 16587, Control_c, 0, 64, 18
1, 16602, Control_c, 0, 64, 0
1, 16651, Note_off_c, 0, 55, 39
1, 16705, Control_c, 0, 64, 20
1, 16720, Control_c, 0, 64, 56
1, 16721, Note_off_c, 0, 67, 40
1, 16724, Note_off_c, 0, 72, 53
1, 16734, Control_c, 0, 64, 63
1, 16737, Note_on_c, 0, 60, 39
1, 16746, Note_on_c, 0, 64, 37
1, 16749, Control_c, 0, 64, 64
1, 16764, Control_c, 0, 64, 65
1, 16778, Control_c, 0, 64, 67
1, 16793, Control_c, 0, 64, 69
1, 16808, Control_c, 0, 64, 70
1, 16823, Control_c, 0, 64, 72
1, 16838, Control_c, 0, 64, 73
1, 16853, Control_c, 0, 64, 74
1, 16868, Control_c, 0, 64, 75
1, 16883, Control_c, 0, 64, 75
1, 16898, Control_c, 0, 64, 76
1, 16913, Control_c, 0, 64, 76
1, 16927, Control_c, 0, 64, 77
1, 16958, Note_on_c, 0, 72, 40
1, 16970, Note_on_c, 0, 65, 37
1, 16972, Note_on_c, 0, 57, 34
1, 16987, Control_c, 0, 64, 77
1, 17029, Note_off_c, 0, 57, 49
1, 17047, Note_off_c, 0, 64, 38
1, 17151, Note_off_c, 0, 48, 42
1, 17163, Note_off_c, 0, 65, 40
1, 17190, Note_on_c, 0, 64, 45
1, 17194, Note_on_c, 0, 55, 34
1, 17223, Note_off_c, 0, 60, 26
1, 17239, Control_c, 0, 64, 77
1, 17246, Note_off_c, 0, 72, 26
1, 17269, Control_c, 0, 64, 76
1, 17291, Control_c, 0, 64, 75
1, 17306, Control_c, 0, 64, 74
1, 17321, Control_c, 0, 64, 73
1, 17336, Control_c, 0, 64, 70
1, 17351, Control_c, 0, 64, 67
1, 17365, Control_c, 0, 64, 63
1, 17380, Control_c, 0, 64, 58
1, 17395, Control_c, 0, 64, 53
1, 17409, Control_c, 0, 64, 53
1, 17433, Note_on_c, 0, 72, 39
1, 17439, Control_c, 0, 64, 52
1, 17454, Control_c, 0, 64, 49
1, 17455, Note_on_c, 0, 48, 37
1, 17459, Note_on_c, 0, 67, 31
1, 17461, Note_off_c, 0, 64, 36
1, 17469, Control_c, 0, 64, 46
1, 17483, Control_c, 0, 64, 42
1, 17498, Control_c, 0, 64, 36
1, 17513, Control_c, 0, 64, 29
1, 17528, Control_c, 0, 64, 16
1, 17543, Control_c, 0, 64, 0
1, 17601, Note_off_c, 0, 55, 35
1, 17664, Note_off_c, 0, 67, 39
1, 17702, Note_on_c, 0, 64, 43
1, 17714, Note_on_c, 0, 60, 33
1, 17810, Control_c, 0, 64, 53
1, 17825, Control_c, 0, 64, 59
1, 17840, Control_c, 0, 64, 61
1, 17855, Control_c, 0, 64, 63
1, 17868, Note_off_c, 0, 76, 1
1, 17869, Control_c, 0, 64, 64
1, 17884, Control_c, 0, 64, 64
1, 17899, Control_c, 0, 64, 65
1, 17914, Control_c, 0, 64, 66
1, 17929, Control_c, 0, 64, 67
1, 17944, Control_c, 0, 64, 68
1, 17959, Control_c, 0, 64, 69
1, 17973, Control_c, 0, 64, 70
1, 17986, Note_on_c, 0, 65, 41
1, 17988, Control_c, 0, 64, 71
1, 18003, Control_c, 0, 64, 72
1, 18007, Note_on_c, 0, 57, 29
1, 18018, Control_c, 0, 64, 73
1, 18039, Control_c, 0, 64, 74
1, 18054, Control_c, 0, 64, 74
1, 18069, Control_c, 0, 64, 75
1, 18090, Note_off_c, 0, 64, 31
1, 18099, Control_c, 0, 64, 75
1, 18114, Control_c, 0, 64, 76
1, 18129, Control_c, 0, 64, 76
1, 18132, Note_off_c, 0, 57, 37
1, 18159, Control_c, 0, 64, 77
1, 18203, Control_c, 0, 64, 77
1, 18321, Control_c, 0, 64, 78
1, 18424, Note_on_c, 0, 64, 35
1, 18424, Control_c, 0, 64, 77
1, 18433, Note_on_c, 0, 55, 28
1, 18454, Control_c, 0, 64, 77
1, 18456, Note_off_c, 0, 65, 39
1, 18469, Control_c, 0, 64, 76
1, 18482, Note_off_c, 0, 60, 21
1, 18484, Control_c, 0, 64, 74
1, 18498, Control_c, 0, 64, 71
1, 18513, Control_c, 0, 64, 67
1, 18528, Control_c, 0, 64, 61
1, 18544, Control_c, 0, 64, 42
1, 18559, Control_c, 0, 64, 0
1, 18892, Control_c, 0, 64, 53
1, 18907, Control_c, 0, 64, 62
1, 18922, Control_c, 0, 64, 64
1, 18937, Control_c, 0, 64, 65
1, 18951, Control_c, 0, 64, 67
1, 18966, Control_c, 0, 64, 69
1, 18981, Control_c, 0, 64, 71
1, 18996, Control_c, 0, 64, 73
1, 19011, Control_c, 0, 64, 75
1, 19026, Control_c, 0, 64, 76
1, 19041, Control_c, 0, 64, 77
1, 19055, Control_c, 0, 64, 79
1, 19070, Control_c, 0, 64, 80
1, 19077, Note_off_c, 0, 72, 24
1, 19085, Control_c, 0, 64, 80
1, 19100, Control_c, 0, 64, 81
1, 19106, Note_off_c, 0, 64, 32
1, 19115, Control_c, 0, 64, 82
1, 19129, Control_c, 0, 64, 82
1, 19144, Control_c, 0, 64, 83
1, 19159, Control_c, 0, 64, 83
1, 19188, Control_c, 0, 64, 84
1, 19219, Control_c, 0, 64, 84
1, 19234, Control_c, 0, 64, 85
1, 19308, Control_c, 0, 64, 85
1, 19471, Control_c, 0, 64, 86
1, 19870, Note_off_c, 0, 55, 37
1, 19917, Note_off_c, 0, 48, 41
1, 20268, Note_on_c, 0, 72, 48
1, 20301, Control_c, 0, 64, 85
1, 20346, Control_c, 0, 64, 85
1, 20361, Control_c, 0, 64, 84
1, 20375, Control_c, 0, 64, 82
1, 20390, Control_c, 0, 64, 80
1, 20405, Control_c, 0, 64, 77
1, 20419, Control_c, 0, 64, 73
1, 20434, Control_c, 0, 64, 68
1, 20449, Control_c, 0, 64, 61
1, 20464, Control_c, 0, 64, 36
1, 20479, Control_c, 0, 64, 0
1, 20761, Control_c, 0, 64, 23
1, 20775, Control_c, 0, 64, 62
1, 20790, Control_c, 0, 64, 65
1, 20805, Control_c, 0, 64, 67
1, 20819, Control_c, 0, 64, 68
1, 20834, Control_c, 0, 64, 71
1, 20849, Control_c, 0, 64, 74
1, 20864, Control_c, 0, 64, 77
1, 20879, Control_c, 0, 64, 79
1, 20893, Control_c, 0, 64, 81
1, 20908, Control_c, 0, 64, 82
1, 20923, Control_c, 0, 64, 84
1, 20938, Control_c, 0, 64, 86
1, 20954, Control_c, 0, 64, 88
1, 20969, Control_c, 0, 64, 89
1, 20984, Control_c, 0, 64, 91
1, 20998, Control_c, 0, 64, 92
1, 21013, Control_c, 0, 64, 93
1, 21035, Control_c, 0, 64, 93
1, 21050, Control_c, 0, 64, 94
1, 21065, Control_c, 0, 64, 94
1, 21095, Control_c, 0, 64, 95
1, 21104, Note_off_c, 0, 72, 57
1, 21110, Control_c, 0, 64, 95
1, 21154, Control_c, 0, 64, 96
1, 21691, Note_on_c, 0, 73, 42
1, 21799, Control_c, 0, 64, 95
1, 21814, Control_c, 0, 64, 95
1, 21828, Control_c, 0, 64, 94
1, 21843, Control_c, 0, 64, 92
1, 21858, Control_c, 0, 64, 90
1, 21873, Control_c, 0, 64, 87
1, 21888, Control_c, 0, 64, 83
1, 21903, Control_c, 0, 64, 80
1, 21917, Control_c, 0, 64, 76
1, 21932, Control_c, 0, 64, 71
1, 21947, Control_c, 0, 64, 65
1, 21962, Control_c, 0, 64, 57
1, 21977, Control_c, 0, 64, 41
1, 21992, Control_c, 0, 64, 38
1, 22006, Control_c, 0, 64, 39
1, 22021, Control_c, 0, 64, 40
1, 22066, Control_c, 0, 64, 39
1, 22080, Control_c, 0, 64, 39
1, 22095, Control_c, 0, 64, 38
1, 22125, Control_c, 0, 64, 37
1, 22128, Note_on_c, 0, 71, 45
1, 22139, Control_c, 0, 64, 36
1, 22154, Control_c, 0, 64, 35
1, 22169, Control_c, 0, 64, 34
1, 22184, Control_c, 0, 64, 33
1, 22198, Control_c, 0, 64, 32
1, 22213, Control_c, 0, 64, 30
1, 22228, Control_c, 0, 64, 25
1, 22243, Control_c, 0, 64, 18
1, 22246, Note_off_c, 0, 73, 29
1, 22258, Control_c, 0, 64, 10
1, 22272, Control_c, 0, 64, 0
1, 22532, Control_c, 0, 64, 26
1, 22548, Control_c, 0, 64, 44
1, 22563, Control_c, 0, 64, 55
1, 22566, Note_on_c, 0, 41, 32
1, 22577, Control_c, 0, 64, 62
1, 22592, Control_c, 0, 64, 64
1, 22607, Control_c, 0, 64, 67
1, 22621, Control_c, 0, 64, 69
1, 22636, Control_c, 0, 64, 72
1, 22651, Control_c, 0, 64, 76
1, 22666, Control_c, 0, 64, 79
1, 22681, Control_c, 0, 64, 81
1, 22696, Control_c, 0, 64, 84
1, 22710, Control_c, 0, 64, 87
1, 22725, Control_c, 0, 64, 89
1, 22740, Control_c, 0, 64, 92
1, 22755, Control_c, 0, 64, 94
1, 22769, Note_off_c, 0, 41, 42
1, 22770, Control_c, 0, 64, 96
1, 22785, Control_c, 0, 64, 98
1, 22800, Control_c, 0, 64, 99
1, 22815, Control_c, 0, 64, 100
1, 22829, Control_c, 0, 64, 101
1, 22844, Control_c, 0, 64, 102
1, 22859, Control_c, 0, 64, 103
1, 22874, Control_c, 0, 64, 104
1, 22877, Note_off_c, 0, 71, 25
1, 22889, Control_c, 0, 64, 105
1, 22903, Control_c, 0, 64, 105
1, 22918, Control_c, 0, 64, 106
1, 22933, Control_c, 0, 64, 106
1, 22978, Control_c, 0, 64, 107
1, 23022, Control_c, 0, 64, 107
1, 23082, Control_c, 0, 64, 108
1, 23115, Note_on_c, 0, 72, 47
1, 23149, Note_on_c, 0, 68, 29
1, 23169, Note_on_c, 0, 60, 21
1, 23234, Note_off_c, 0, 60, 43
1, 23293, Note_off_c, 0, 68, 36
1, 23542, Note_on_c, 0, 77, 67
1, 23553, Note_on_c, 0, 56, 36
1, 23567, Note_on_c, 0, 65, 28
1, 23640, Note_off_c, 0, 56, 51
1, 23665, Note_off_c, 0, 72, 60
1, 23716, Note_off_c, 0, 77, 52
1, 23739, Note_off_c, 0, 65, 30
1, 23875, Control_c, 0, 64, 107
1, 23890, Control_c, 0, 64, 105
1, 23905, Control_c, 0, 64, 101
1, 23915, Note_on_c, 0, 76, 64
1, 23919, Control_c, 0, 64, 94
1, 23926, Note_on_c, 0, 53, 35
1, 23934, Control_c, 0, 64, 83
1, 23949, Control_c, 0, 64, 74
1, 23963, Control_c, 0, 64, 65
1, 23978, Control_c, 0, 64, 53
1, 23993, Control_c, 0, 64, 58
1, 24008, Control_c, 0, 64, 66
1, 24031, Control_c, 0, 64, 72
1, 24045, Control_c, 0, 64, 78
1, 24060, Control_c, 0, 64, 82
1, 24075, Control_c, 0, 64, 85
1, 24090, Control_c, 0, 64, 87
1, 24091, Note_off_c, 0, 53, 36
1, 24105, Control_c, 0, 64, 90
1, 24119, Control_c, 0, 64, 93
1, 24134, Control_c, 0, 64, 96
1, 24150, Control_c, 0, 64, 97
1, 24165, Control_c, 0, 64, 99
1, 24180, Control_c, 0, 64, 100
1, 24194, Control_c, 0, 64, 101
1, 24209, Control_c, 0, 64, 102
1, 24224, Control_c, 0, 64, 103
1, 24239, Control_c, 0, 64, 104
1, 24254, Note_on_c, 0, 70, 60
1, 24254, Control_c, 0, 64, 104
1, 24268, Control_c, 0, 64, 105
1, 24275, Note_on_c, 0, 61, 40
1, 24278, Note_on_c, 0, 64, 33
1, 24298, Control_c, 0, 64, 105
1, 24336, Poly_aftertouch_c, 0, 67, 127
1, 24342, Control_c, 0, 64, 106
1, 24361, Note_off_c, 0, 61, 49
1, 24372, Poly_aftertouch_c, 0, 67, 0
1, 24381, Note_off_c, 0, 76, 37
1, 24403, Note_off_c, 0, 64, 35
1, 24609, Note_on_c, 0, 73, 61
1, 24625, Note_on_c, 0, 64, 33
1, 24642, Note_on_c, 0, 58, 24
1, 24664, Note_off_c, 0, 64, 54
1, 24691, Note_off_c, 0, 58, 47
1, 24782, Note_off_c, 0, 70, 40
1, 24912, Control_c, 0, 64, 103
1, 24927, Control_c, 0, 64, 95
1, 24943, Control_c, 0, 64, 83
1, 24955, Note_on_c, 0, 41, 40
1, 24958, Control_c, 0, 64, 70
1, 24972, Control_c, 0, 64, 0
1, 25016, Control_c, 0, 64, 60
1, 25031, Control_c, 0, 64, 71
1, 25046, Control_c, 0, 64, 79
1, 25061, Control_c, 0, 64, 86
1, 25071, Note_off_c, 0, 41, 55
1, 25076, Control_c, 0, 64, 89
1, 25090, Control_c, 0, 64, 92
1, 25105, Control_c, 0, 64, 95
1, 25120, Control_c, 0, 64, 99
1, 25135, Control_c, 0, 64, 103
1, 25150, Control_c, 0, 64, 106
1, 25164, Control_c, 0, 64, 108
1, 25179, Control_c, 0, 64, 111
1, 25194, Control_c, 0, 64, 114
1, 25208, Control_c, 0, 64, 115
1, 25223, Control_c, 0, 64, 117
1, 25238, Control_c, 0, 64, 118
1, 25253, Control_c, 0, 64, 119
1, 25268, Control_c, 0, 64, 119
1, 25283, Control_c, 0, 64, 120
1, 25296, Note_on_c, 0, 72, 55
1, 25298, Control_c, 0, 64, 121
1, 25313, Control_c, 0, 64, 121
1, 25322, Note_on_c, 0, 68, 36
1, 25432, Note_off_c, 0, 68, 42
1, 25504, Note_off_c, 0, 73, 33
1, 25642, Note_on_c, 0, 77, 68
1, 25673, Note_on_c, 0, 56, 33
1, 25691, Note_on_c, 0, 65, 20
1, 25744, Note_off_c, 0, 56, 38
1, 25745, Note_off_c, 0, 72, 60
1, 25767, Poly_aftertouch_c, 0, 60, 0
1, 25822, Note_off_c, 0, 77, 53
1, 25825, Note_off_c, 0, 65, 27
1, 25988, Control_c, 0, 64, 121
1, 26003, Control_c, 0, 64, 119
1, 26013, Note_on_c, 0, 76, 61
1, 26018, Control_c, 0, 64, 113
1, 26031, Note_on_c, 0, 53, 33
1, 26033, Control_c, 0, 64, 105
1, 26047, Control_c, 0, 64, 93
1, 26062, Control_c, 0, 64, 82
1, 26077, Control_c, 0, 64, 69
1, 26092, Control_c, 0, 64, 10
1, 26106, Control_c, 0, 64, 0
1, 26136, Control_c, 0, 64, 47
1, 26151, Control_c, 0, 64, 66
1, 26165, Control_c, 0, 64, 72
1, 26171, Note_off_c, 0, 53, 55
1, 26180, Control_c, 0, 64, 78
1, 26195, Control_c, 0, 64, 84
1, 26210, Control_c, 0, 64, 89
1, 26225, Control_c, 0, 64, 93
1, 26240, Control_c, 0, 64, 97
1, 26255, Control_c, 0, 64, 100
1, 26277, Control_c, 0, 64, 103
1, 26292, Control_c, 0, 64, 105
1, 26307, Control_c, 0, 64, 107
1, 26321, Control_c, 0, 64, 109
1, 26336, Control_c, 0, 64, 111
1, 26351, Control_c, 0, 64, 112
1, 26365, Control_c, 0, 64, 113
1, 26370, Note_on_c, 0, 70, 55
1, 26380, Control_c, 0, 64, 113
1, 26395, Control_c, 0, 64, 114
1, 26404, Note_on_c, 0, 61, 34
1, 26405, Note_on_c, 0, 67, 25
1, 26410, Control_c, 0, 64, 115
1, 26418, Note_on_c, 0, 64, 28
1, 26425, Control_c, 0, 64, 115
1, 26440, Control_c, 0, 64, 116
1, 26469, Control_c, 0, 64, 116
1, 26488, Note_off_c, 0, 76, 37
1, 26513, Note_off_c, 0, 67, 35
1, 26529, Control_c, 0, 64, 117
1, 26538, Note_off_c, 0, 61, 36
1, 26540, Note_off_c, 0, 64, 37
1, 26554, Note_off_c, 0, 70, 55
1, 26753, Note_on_c, 0, 73, 51
1, 26785, Note_on_c, 0, 64, 29
1, 26809, Note_on_c, 0, 58, 24
1, 26883, Note_off_c, 0, 64, 57
1, 26885, Note_off_c, 0, 58, 40
1, 26974, Note_off_c, 0, 73, 53
1, 27144, Control_c, 0, 64, 113
1, 27159, Control_c, 0, 64, 106
1, 27167, Note_on_c, 0, 53, 46
1, 27174, Control_c, 0, 64, 95
1, 27188, Control_c, 0, 64, 78
1, 27203, Control_c, 0, 64, 61
1, 27218, Control_c, 0, 64, 0
1, 27262, Control_c, 0, 64, 58
1, 27277, Control_c, 0, 64, 70
1, 27292, Control_c, 0, 64, 79
1, 27307, Control_c, 0, 64, 87
1, 27313, Note_off_c, 0, 53, 54
1, 27322, Control_c, 0, 64, 92
1, 27338, Control_c, 0, 64, 95
1, 27353, Control_c, 0, 64, 98
1, 27367, Control_c, 0, 64, 102
1, 27382, Control_c, 0, 64, 106
1, 27397, Control_c, 0, 64, 109
1, 27411, Control_c, 0, 64, 111
1, 27426, Control_c, 0, 64, 113
1, 27440, Control_c, 0, 64, 114
1, 27455, Control_c, 0, 64, 116
1, 27470, Control_c, 0, 64, 118
1, 27484, Control_c, 0, 64, 120
1, 27499, Control_c, 0, 64, 121
1, 27514, Control_c, 0, 64, 121
1, 27529, Control_c, 0, 64, 122
1, 27544, Control_c, 0, 64, 122
1, 27573, Control_c, 0, 64, 123
1, 27574, Note_on_c, 0, 72, 48
1, 27589, Note_on_c, 0, 68, 34
1, 27605, Note_on_c, 0, 60, 23
1, 27664, Note_off_c, 0, 60, 52
1, 27666, Note_off_c, 0, 68, 41
1, 27669, Note_off_c, 0, 72, 58
1, 27775, Note_on_c, 0, 73, 56
1, 27847, Note_off_c, 0, 73, 61
1, 27917, Note_on_c, 0, 56, 36
1, 27934, Note_on_c, 0, 72, 61
1, 27941, Note_on_c, 0, 65, 37
1, 27948, Note_on_c, 0, 60, 27
1, 28002, Note_off_c, 0, 60, 45
1, 28009, Note_off_c, 0, 65, 53
1, 28016, Note_off_c, 0, 72, 59
1, 28025, Note_off_c, 0, 56, 46
1, 28085, Note_on_c, 0, 73, 66
1, 28162, Note_off_c, 0, 73, 56
1, 28189, Control_c, 0, 64, 122
1, 28219, Control_c, 0, 64, 122
1, 28233, Control_c, 0, 64, 119
1, 28248, Control_c, 0, 64, 112
1, 28263, Control_c, 0, 64, 101
1, 28278, Control_c, 0, 64, 85
1, 28293, Control_c, 0, 64, 68
1, 28295, Note_on_c, 0, 75, 57
1, 28298, Note_on_c, 0, 51, 41
1, 28307, Control_c, 0, 64, 0
1, 28366, Control_c, 0, 64, 63
1, 28381, Control_c, 0, 64, 72
1, 28396, Control_c, 0, 64, 81
1, 28410, Note_off_c, 0, 51, 59
1, 28411, Control_c, 0, 64, 88
1, 28426, Control_c, 0, 64, 92
1, 28440, Control_c, 0, 64, 97
1, 28455, Control_c, 0, 64, 102
1, 28470, Control_c, 0, 64, 107
1, 28478, Note_off_c, 0, 75, 63
1, 28485, Control_c, 0, 64, 111
1, 28500, Control_c, 0, 64, 115
1, 28522, Control_c, 0, 64, 118
1, 28537, Control_c, 0, 64, 122
1, 28552, Control_c, 0, 64, 127
1, 28691, Note_on_c, 0, 75, 65
1, 28705, Note_on_c, 0, 68, 40
1, 28765, Note_off_c, 0, 68, 61
1, 28771, Poly_aftertouch_c, 0, 60, 127
1, 28803, Poly_aftertouch_c, 0, 60, 0
1, 28803, Note_off_c, 0, 75, 55
1, 29075, Note_on_c, 0, 75, 63
1, 29080, Note_on_c, 0, 51, 36
1, 29168, Note_off_c, 0, 51, 54
1, 29200, Note_off_c, 0, 75, 63
1, 29568, Control_c, 0, 64, 121
1, 29582, Control_c, 0, 64, 107
1, 29593, Note_on_c, 0, 39, 30
1, 29596, Note_on_c, 0, 75, 52
1, 29597, Control_c, 0, 64, 94
1, 29612, Control_c, 0, 64, 79
1, 29627, Control_c, 0, 64, 64
1, 29642, Control_c, 0, 64, 0
1, 29686, Control_c, 0, 64, 52
1, 29701, Control_c, 0, 64, 67
1, 29716, Control_c, 0, 64, 73
1, 29732, Control_c, 0, 64, 80
1, 29746, Note_off_c, 0, 39, 52
1, 29747, Control_c, 0, 64, 85
1, 29761, Control_c, 0, 64, 89
1, 29776, Control_c, 0, 64, 94
1, 29791, Control_c, 0, 64, 98
1, 29805, Control_c, 0, 64, 101
1, 29820, Control_c, 0, 64, 105
1, 29835, Control_c, 0, 64, 107
1, 29850, Control_c, 0, 64, 110
1, 29865, Control_c, 0, 64, 112
1, 29879, Control_c, 0, 64, 114
1, 29881, Note_off_c, 0, 75, 31
1, 29894, Control_c, 0, 64, 115
1, 29909, Control_c, 0, 64, 117
1, 29924, Control_c, 0, 64, 118
1, 29939, Control_c, 0, 64, 119
1, 29954, Control_c, 0, 64, 119
1, 29969, Control_c, 0, 64, 120
1, 29984, Control_c, 0, 64, 121
1, 29999, Control_c, 0, 64, 121
1, 30035, Control_c, 0, 64, 122
1, 30050, Control_c, 0, 64, 122
1, 30110, Note_on_c, 0, 73, 46
1, 30127, Note_on_c, 0, 61, 24
1, 30141, Note_on_c, 0, 67, 26
1, 30159, Note_on_c, 0, 63, 21
1, 30265, Note_off_c, 0, 61, 36
1, 30266, Note_off_c, 0, 67, 34
1, 30287, Note_off_c, 0, 63, 37
1, 30368, Note_on_c, 0, 72, 48
1, 30481, Note_off_c, 0, 73, 30
1, 30550, Note_on_c, 0, 61, 33
1, 30555, Note_on_c, 0, 55, 30
1, 30555, Note_on_c, 0, 70, 48
1, 30559, Note_off_c, 0, 72, 37
1, 30570, Note_on_c, 0, 63, 21
1, 30655, Note_off_c, 0, 63, 39
1, 30655, Note_off_c, 0, 61, 57
1, 30657, Note_off_c, 0, 55, 38
1, 30756, Note_on_c, 0, 72, 47
1, 30793, Note_off_c, 0, 70, 35
1, 30976, Control_c, 0, 64, 121
1, 30991, Control_c, 0, 64, 118
1, 31000, Note_on_c, 0, 68, 49
1, 31006, Control_c, 0, 64, 110
1, 31015, Note_off_c, 0, 72, 33
1, 31021, Control_c, 0, 64, 97
1, 31027, Note_on_c, 0, 44, 35
1, 31035, Control_c, 0, 64, 84
1, 31050, Control_c, 0, 64, 69
1, 31065, Control_c, 0, 64, 0
1, 31139, Control_c, 0, 64, 59
1, 31153, Control_c, 0, 64, 69
1, 31168, Control_c, 0, 64, 77
1, 31183, Control_c, 0, 64, 84
1, 31192, Note_off_c, 0, 44, 48
1, 31198, Control_c, 0, 64, 89
1, 31213, Control_c, 0, 64, 94
1, 31227, Control_c, 0, 64, 98
1, 31242, Control_c, 0, 64, 103
1, 31257, Control_c, 0, 64, 107
1, 31272, Control_c, 0, 64, 110
1, 31287, Control_c, 0, 64, 113
1, 31301, Control_c, 0, 64, 117
1, 31316, Control_c, 0, 64, 121
1, 31332, Control_c, 0, 64, 125
1, 31347, Control_c, 0, 64, 127
1, 31513, Note_on_c, 0, 63, 31
1, 31531, Note_on_c, 0, 60, 29
1, 31534, Note_on_c, 0, 56, 31
1, 31641, Note_off_c, 0, 60, 50
1, 31647, Note_off_c, 0, 68, 24
1, 31656, Note_off_c, 0, 63, 42
1, 31679, Note_off_c, 0, 56, 34
1, 31865, Note_on_c, 0, 60, 39
1, 31872, Note_on_c, 0, 51, 39
1, 31922, Note_on_c, 0, 56, 16
1, 31945, Note_off_c, 0, 51, 55
1, 31975, Note_off_c, 0, 56, 45
1, 31991, Note_off_c, 0, 60, 52
1, 32191, Note_on_c, 0, 65, 48
1, 32201, Note_on_c, 0, 60, 34
1, 32225, Note_on_c, 0, 56, 37
1, 32309, Note_off_c, 0, 65, 55
1, 32321, Note_off_c, 0, 56, 49
1, 32359, Note_off_c, 0, 60, 36
1, 32507, Note_on_c, 0, 60, 40
1, 32509, Note_on_c, 0, 63, 49
1, 32515, Note_on_c, 0, 56, 43
1, 32596, Note_off_c, 0, 63, 56
1, 32609, Note_off_c, 0, 60, 55
1, 32649, Note_off_c, 0, 56, 33
1, 32827, Note_on_c, 0, 56, 38
1, 32830, Note_on_c, 0, 60, 36
1, 32833, Note_on_c, 0, 51, 43
1, 32891, Note_off_c, 0, 60, 60
1, 32913, Note_off_c, 0, 56, 57
1, 32936, Note_off_c, 0, 51, 60
1, 33254, Note_on_c, 0, 32, 54
1, 33268, Control_c, 0, 64, 114
1, 33283, Control_c, 0, 64, 100
1, 33298, Control_c, 0, 64, 83
1, 33312, Control_c, 0, 64, 65
1, 33327, Control_c, 0, 64, 0
1, 33371, Control_c, 0, 64, 31
1, 33386, Control_c, 0, 64, 68
1, 33401, Control_c, 0, 64, 78
1, 33416, Control_c, 0, 64, 91
1, 33430, Control_c, 0, 64, 99
1, 33445, Note_off_c, 0, 32, 50
1, 33445, Control_c, 0, 64, 107
1, 33460, Control_c, 0, 64, 115
1, 33475, Control_c, 0, 64, 127
1, 33773, Note_on_c, 0, 75, 64
1, 33784, Note_on_c, 0, 72, 38
1, 33791, Note_on_c, 0, 68, 39
1, 33799, Note_on_c, 0, 63, 32
1, 33899, Note_off_c, 0, 63, 32
1, 33908, Note_off_c, 0, 72, 33
1, 33926, Note_off_c, 0, 68, 36
1, 34169, Note_on_c, 0, 80, 77
1, 34180, Note_on_c, 0, 60, 40
1, 34180, Note_on_c, 0, 68, 48
1, 34212, Note_on_c, 0, 63, 31
1, 34240, Note_off_c, 0, 68, 58
1, 34245, Note_off_c, 0, 60, 54
1, 34252, Note_off_c, 0, 75, 59
1, 34254, Note_off_c, 0, 63, 48
1, 34334, Note_off_c, 0, 80, 62
1, 34461, Control_c, 0, 64, 124
1, 34476, Control_c, 0, 64, 104
1, 34488, Note_on_c, 0, 79, 77
1, 34491, Control_c, 0, 64, 87
1, 34512, Control_c, 0, 64, 71
1, 34514, Note_on_c, 0, 56, 47
1, 34529, Control_c, 0, 64, 0
1, 34573, Control_c, 0, 64, 63
1, 34588, Control_c, 0, 64, 72
1, 34597, Note_off_c, 0, 56, 61
1, 34602, Control_c, 0, 64, 80
1, 34617, Control_c, 0, 64, 87
1, 34632, Control_c, 0, 64, 92
1, 34647, Control_c, 0, 64, 96
1, 34662, Control_c, 0, 64, 102
1, 34676, Control_c, 0, 64, 108
1, 34691, Control_c, 0, 64, 113
1, 34706, Control_c, 0, 64, 118
1, 34721, Control_c, 0, 64, 122
1, 34736, Control_c, 0, 64, 126
1, 34750, Control_c, 0, 64, 127
1, 34816, Note_on_c, 0, 73, 73
1, 34822, Note_on_c, 0, 70, 47
1, 34832, Note_on_c, 0, 64, 49
1, 34875, Note_off_c, 0, 70, 57
1, 34887, Note_off_c, 0, 64, 60
1, 34935, Note_off_c, 0, 79, 53
1, 35159, Note_on_c, 0, 76, 69
1, 35172, Note_on_c, 0, 58, 37
1, 35176, Note_on_c, 0, 61, 45
1, 35183, Note_on_c, 0, 67, 39
1, 35228, Note_off_c, 0, 67, 48
1, 35239, Note_off_c, 0, 58, 58
1, 35242, Note_off_c, 0, 61, 55
1, 35270, Note_off_c, 0, 73, 62
1, 35469, Control_c, 0, 64, 108
1, 35484, Control_c, 0, 64, 90
1, 35490, Note_on_c, 0, 44, 53
1, 35498, Control_c, 0, 64, 71
1, 35513, Control_c, 0, 64, 0
1, 35558, Control_c, 0, 64, 44
1, 35573, Control_c, 0, 64, 68
1, 35588, Control_c, 0, 64, 78
1, 35603, Note_off_c, 0, 44, 62
1, 35603, Control_c, 0, 64, 88
1, 35618, Control_c, 0, 64, 98
1, 35632, Control_c, 0, 64, 105
1, 35647, Control_c, 0, 64, 112
1, 35662, Control_c, 0, 64, 122
1, 35677, Control_c, 0, 64, 127
1, 35822, Note_on_c, 0, 75, 69
1, 35847, Note_on_c, 0, 68, 36
1, 35852, Note_on_c, 0, 63, 37
1, 35853, Note_on_c, 0, 72, 31
1, 35925, Note_off_c, 0, 63, 36
1, 35935, Note_off_c, 0, 72, 38
1, 35950, Note_off_c, 0, 68, 33
1, 35972, Note_off_c, 0, 76, 33
1, 36147, Note_on_c, 0, 80, 81
1, 36170, Note_on_c, 0, 60, 44
1, 36171, Note_on_c, 0, 68, 47
1, 36214, Note_on_c, 0, 63, 22
1, 36217, Note_off_c, 0, 75, 60
1, 36230, Note_off_c, 0, 68, 59
1, 36235, Note_off_c, 0, 60, 50
1, 36254, Note_off_c, 0, 63, 50
1, 36321, Note_off_c, 0, 80, 63
1, 36515, Control_c, 0, 64, 118
1, 36530, Control_c, 0, 64, 101
1, 36536, Note_on_c, 0, 79, 72
1, 36538, Note_on_c, 0, 56, 42
1, 36545, Control_c, 0, 64, 84
1, 36560, Control_c, 0, 64, 66
1, 36574, Control_c, 0, 64, 0
1, 36619, Control_c, 0, 64, 61
1, 36634, Control_c, 0, 64, 70
1, 36642, Note_off_c, 0, 56, 56
1, 36648, Control_c, 0, 64, 78
1, 36663, Control_c, 0, 64, 86
1, 36678, Control_c, 0, 64, 90
1, 36692, Control_c, 0, 64, 94
1, 36707, Control_c, 0, 64, 99
1, 36722, Control_c, 0, 64, 103
1, 36737, Control_c, 0, 64, 107
1, 36759, Control_c, 0, 64, 111
1, 36774, Control_c, 0, 64, 115
1, 36789, Control_c, 0, 64, 118
1, 36804, Control_c, 0, 64, 120
1, 36819, Control_c, 0, 64, 123
1, 36834, Control_c, 0, 64, 126
1, 36848, Control_c, 0, 64, 127
1, 36877, Note_on_c, 0, 73, 65
1, 36882, Note_on_c, 0, 70, 46
1, 36901, Note_on_c, 0, 64, 45
1, 36965, Note_off_c, 0, 70, 60
1, 36967, Note_off_c, 0, 64, 59
1, 36977, Note_off_c, 0, 79, 49
1, 37254, Note_on_c, 0, 76, 60
1, 37257, Note_on_c, 0, 58, 37
1, 37274, Note_on_c, 0, 61, 40
1, 37277, Note_on_c, 0, 67, 35
1, 37304, Note_off_c, 0, 73, 41
1, 37338, Note_off_c, 0, 67, 48
1, 37350, Note_off_c, 0, 61, 56
1, 37359, Note_off_c, 0, 58, 61
1, 37534, Note_off_c, 0, 76, 49
1, 37660, Note_on_c, 0, 44, 47
1, 37671, Control_c, 0, 64, 125
1, 37686, Control_c, 0, 64, 107
1, 37701, Control_c, 0, 64, 90
1, 37716, Control_c, 0, 64, 72
1, 37731, Control_c, 0, 64, 0
1, 37776, Control_c, 0, 64, 59
1, 37791, Control_c, 0, 64, 71
1, 37806, Control_c, 0, 64, 81
1, 37820, Control_c, 0, 64, 90
1, 37824, Note_off_c, 0, 44, 63
1, 37835, Control_c, 0, 64, 94
1, 37850, Control_c, 0, 64, 100
1, 37865, Control_c, 0, 64, 106
1, 37880, Control_c, 0, 64, 114
1, 37894, Control_c, 0, 64, 122
1, 37909, Control_c, 0, 64, 127
1, 38086, Note_on_c, 0, 75, 56
1, 38088, Note_on_c, 0, 68, 40
1, 38089, Note_on_c, 0, 63, 33
1, 38097, Note_on_c, 0, 72, 35
1, 38205, Note_off_c, 0, 72, 37
1, 38220, Note_off_c, 0, 63, 33
1, 38250, Note_off_c, 0, 68, 34
1, 38306, Note_on_c, 0, 77, 68
1, 38340, Note_off_c, 0, 75, 54
1, 38471, Note_on_c, 0, 60, 37
1, 38478, Note_on_c, 0, 68, 46
1, 38482, Note_on_c, 0, 75, 67
1, 38491, Note_on_c, 0, 63, 41
1, 38509, Note_off_c, 0, 77, 54
1, 38533, Note_off_c, 0, 68, 61
1, 38535, Note_off_c, 0, 60, 56
1, 38562, Note_off_c, 0, 63, 60
1, 38642, Note_on_c, 0, 77, 72
1, 38664, Note_off_c, 0, 75, 63
1, 38769, Note_off_c, 0, 77, 59
1, 38850, Control_c, 0, 64, 104
1, 38855, Note_on_c, 0, 78, 72
1, 38862, Note_on_c, 0, 39, 49
1, 38865, Control_c, 0, 64, 82
1, 38880, Control_c, 0, 64, 63
1, 38894, Control_c, 0, 64, 0
1, 38954, Control_c, 0, 64, 62
1, 38968, Control_c, 0, 64, 72
1, 38971, Note_off_c, 0, 39, 62
1, 38983, Control_c, 0, 64, 82
1, 39006, Control_c, 0, 64, 92
1, 39021, Control_c, 0, 64, 100
1, 39036, Control_c, 0, 64, 106
1, 39050, Control_c, 0, 64, 112
1, 39065, Control_c, 0, 64, 122
1, 39080, Note_off_c, 0, 78, 57
1, 39080, Control_c, 0, 64, 127
1, 39257, Note_on_c, 0, 78, 73
1, 39267, Note_on_c, 0, 66, 46
1, 39269, Note_on_c, 0, 70, 47
1, 39290, Note_on_c, 0, 63, 32
1, 39335, Note_off_c, 0, 66, 50
1, 39336, Note_off_c, 0, 63, 46
1, 39344, Note_off_c, 0, 70, 50
1, 39389, Note_off_c, 0, 78, 54
1, 39630, Note_on_c, 0, 78, 68
1, 39634, Note_on_c, 0, 66, 45
1, 39647, Note_on_c, 0, 58, 42
1, 39657, Note_on_c, 0, 63, 35
1, 39719, Note_off_c, 0, 66, 63
1, 39733, Note_off_c, 0, 63, 48
1, 39752, Note_off_c, 0, 58, 59
1, 39779, Note_off_c, 0, 78, 61
1, 40131, Note_on_c, 0, 41, 40
1, 40140, Note_on_c, 0, 78, 65
1, 40155, Control_c, 0, 64, 112
1, 40170, Control_c, 0, 64, 96
1, 40184, Control_c, 0, 64, 79
1, 40199, Control_c, 0, 64, 57
1, 40214, Control_c, 0, 64, 0
1, 40259, Control_c, 0, 64, 57
1, 40274, Control_c, 0, 64, 69
1, 40288, Control_c, 0, 64, 76
1, 40303, Control_c, 0, 64, 84
1, 40318, Control_c, 0, 64, 89
1, 40330, Note_off_c, 0, 41, 38
1, 40333, Control_c, 0, 64, 93
1, 40347, Control_c, 0, 64, 96
1, 40362, Control_c, 0, 64, 100
1, 40377, Control_c, 0, 64, 104
1, 40381, Note_off_c, 0, 78, 59
1, 40392, Control_c, 0, 64, 108
1, 40407, Control_c, 0, 64, 111
1, 40421, Control_c, 0, 64, 113
1, 40436, Control_c, 0, 64, 114
1, 40451, Control_c, 0, 64, 116
1, 40466, Control_c, 0, 64, 117
1, 40481, Control_c, 0, 64, 119
1, 40503, Control_c, 0, 64, 120
1, 40518, Control_c, 0, 64, 120
1, 40533, Control_c, 0, 64, 121
1, 40547, Control_c, 0, 64, 122
1, 40562, Control_c, 0, 64, 123
1, 40577, Control_c, 0, 64, 124
1, 40607, Control_c, 0, 64, 125
1, 40613, Note_on_c, 0, 77, 58
1, 40621, Control_c, 0, 64, 125
1, 40626, Note_on_c, 0, 63, 40
1, 40629, Note_on_c, 0, 69, 39
1, 40636, Control_c, 0, 64, 126
1, 40651, Control_c, 0, 64, 126
1, 40653, Note_on_c, 0, 65, 26
1, 40695, Control_c, 0, 64, 127
1, 40706, Note_off_c, 0, 69, 55
1, 40719, Note_off_c, 0, 65, 46
1, 40720, Note_off_c, 0, 63, 50
1, 40769, Control_c, 0, 64, 127
1, 40874, Note_on_c, 0, 72, 56
1, 40896, Note_off_c, 0, 77, 50
1, 41061, Note_on_c, 0, 63, 40
1, 41061, Note_on_c, 0, 65, 38
1, 41063, Note_on_c, 0, 57, 31
1, 41074, Note_on_c, 0, 75, 58
1, 41126, Note_off_c, 0, 72, 57
1, 41129, Note_off_c, 0, 65, 59
1, 41132, Note_off_c, 0, 57, 54
1, 41140, Note_off_c, 0, 63, 60
1, 41265, Note_on_c, 0, 73, 58
1, 41329, Note_off_c, 0, 75, 51
1, 41399, Control_c, 0, 64, 127
1, 41429, Control_c, 0, 64, 126
1, 41443, Control_c, 0, 64, 124
1, 41458, Control_c, 0, 64, 116
1, 41470, Note_on_c, 0, 70, 50
1, 41473, Control_c, 0, 64, 105
1, 41481, Note_on_c, 0, 46, 43
1, 41487, Control_c, 0, 64, 93
1, 41499, Note_off_c, 0, 73, 33
1, 41502, Control_c, 0, 64, 77
1, 41517, Control_c, 0, 64, 55
1, 41532, Control_c, 0, 64, 0
1, 41591, Control_c, 0, 64, 60
1, 41606, Control_c, 0, 64, 70
1, 41621, Note_off_c, 0, 46, 53
1, 41621, Control_c, 0, 64, 78
1, 41636, Control_c, 0, 64, 87
1, 41651, Control_c, 0, 64, 92
1, 41666, Control_c, 0, 64, 97
1, 41681, Control_c, 0, 64, 101
1, 41695, Control_c, 0, 64, 106
1, 41711, Control_c, 0, 64, 110
1, 41726, Control_c, 0, 64, 113
1, 41740, Control_c, 0, 64, 116
1, 41751, Note_off_c, 0, 70, 52
1, 41755, Control_c, 0, 64, 119
1, 41770, Control_c, 0, 64, 122
1, 41785, Control_c, 0, 64, 125
1, 41800, Control_c, 0, 64, 127
1, 41878, Note_on_c, 0, 65, 41
1, 41887, Note_on_c, 0, 61, 29
1, 41890, Note_on_c, 0, 58, 28
1, 41991, Note_off_c, 0, 61, 44
1, 42019, Note_off_c, 0, 58, 33
1, 42019, Note_off_c, 0, 65, 36
1, 42252, Note_on_c, 0, 61, 42
1, 42253, Note_on_c, 0, 58, 36
1, 42253, Note_on_c, 0, 53, 33
1, 42331, Note_off_c, 0, 53, 53
1, 42342, Note_off_c, 0, 61, 60
1, 42354, Note_off_c, 0, 58, 58
1, 42749, Control_c, 0, 64, 122
1, 42751, Note_on_c, 0, 42, 43
1, 42764, Control_c, 0, 64, 111
1, 42779, Control_c, 0, 64, 99
1, 42794, Control_c, 0, 64, 80
1, 42808, Control_c, 0, 64, 62
1, 42823, Control_c, 0, 64, 0
1, 42883, Control_c, 0, 64, 63
1, 42897, Control_c, 0, 64, 74
1, 42912, Control_c, 0, 64, 82
1, 42927, Control_c, 0, 64, 90
1, 42935, Note_off_c, 0, 42, 61
1, 42942, Control_c, 0, 64, 97
1, 42957, Control_c, 0, 64, 102
1, 42972, Control_c, 0, 64, 108
1, 42987, Control_c, 0, 64, 115
1, 43001, Control_c, 0, 64, 122
1, 43016, Control_c, 0, 64, 127
1, 43219, Note_on_c, 0, 73, 52
1, 43236, Note_on_c, 0, 61, 34
1, 43241, Note_on_c, 0, 66, 41
1, 43256, Note_on_c, 0, 58, 31
1, 43338, Note_off_c, 0, 61, 50
1, 43354, Note_off_c, 0, 58, 34
1, 43362, Note_off_c, 0, 66, 34
1, 43444, Note_off_c, 0, 73, 29
1, 43454, Note_on_c, 0, 75, 56
1, 43642, Note_on_c, 0, 73, 65
1, 43651, Note_on_c, 0, 54, 38
1, 43657, Note_on_c, 0, 58, 39
1, 43663, Note_on_c, 0, 61, 38
1, 43671, Note_off_c, 0, 75, 37
1, 43719, Note_off_c, 0, 61, 56
1, 43728, Note_off_c, 0, 54, 51
1, 43730, Note_off_c, 0, 58, 56
1, 43821, Note_on_c, 0, 75, 64
1, 43838, Note_off_c, 0, 73, 48
1, 44032, Control_c, 0, 64, 111
1, 44045, Note_on_c, 0, 77, 62
1, 44046, Control_c, 0, 64, 96
1, 44059, Note_off_c, 0, 75, 55
1, 44061, Control_c, 0, 64, 79
1, 44066, Note_on_c, 0, 37, 39
1, 44076, Control_c, 0, 64, 57
1, 44090, Control_c, 0, 64, 0
1, 44151, Control_c, 0, 64, 51
1, 44166, Control_c, 0, 64, 67
1, 44180, Control_c, 0, 64, 74
1, 44195, Control_c, 0, 64, 81
1, 44208, Note_off_c, 0, 37, 54
1, 44210, Control_c, 0, 64, 87
1, 44225, Control_c, 0, 64, 92
1, 44247, Control_c, 0, 64, 96
1, 44253, Note_off_c, 0, 77, 47
1, 44262, Control_c, 0, 64, 101
1, 44277, Control_c, 0, 64, 104
1, 44292, Control_c, 0, 64, 107
1, 44307, Control_c, 0, 64, 110
1, 44321, Control_c, 0, 64, 113
1, 44336, Control_c, 0, 64, 115
1, 44351, Control_c, 0, 64, 117
1, 44366, Control_c, 0, 64, 119
1, 44381, Control_c, 0, 64, 120
1, 44395, Control_c, 0, 64, 121
1, 44425, Control_c, 0, 64, 122
1, 44440, Control_c, 0, 64, 123
1, 44455, Control_c, 0, 64, 123
1, 44469, Control_c, 0, 64, 124
1, 44483, Note_on_c, 0, 77, 56
1, 44506, Note_on_c, 0, 61, 29
1, 44513, Control_c, 0, 64, 124
1, 44525, Note_on_c, 0, 65, 25
1, 44533, Note_on_c, 0, 56, 13
1, 44587, Control_c, 0, 64, 125
1, 44612, Note_off_c, 0, 56, 36
1, 44632, Note_off_c, 0, 65, 38
1, 44635, Note_off_c, 0, 77, 48
1, 44646, Note_off_c, 0, 61, 38
1, 44931, Note_on_c, 0, 77, 48
1, 44939, Note_on_c, 0, 53, 28
1, 44950, Note_on_c, 0, 61, 30
1, 44984, Note_on_c, 0, 56, 19
1, 45066, Note_off_c, 0, 61, 53
1, 45090, Note_off_c, 0, 56, 35
1, 45093, Note_off_c, 0, 53, 37
1, 45123, Note_off_c, 0, 77, 36
1, 45470, Control_c, 0, 64, 124
1, 45485, Control_c, 0, 64, 124
1, 45499, Control_c, 0, 64, 123
1, 45514, Control_c, 0, 64, 121
1, 45529, Control_c, 0, 64, 117
1, 45544, Note_on_c, 0, 77, 43
1, 45544, Control_c, 0, 64, 112
1, 45550, Note_on_c, 0, 39, 30
1, 45559, Control_c, 0, 64, 104
1, 45574, Control_c, 0, 64, 92
1, 45589, Control_c, 0, 64, 79
1, 45603, Control_c, 0, 64, 65
1, 45618, Control_c, 0, 64, 0
1, 45677, Control_c, 0, 64, 32
1, 45692, Control_c, 0, 64, 65
1, 45708, Control_c, 0, 64, 72
1, 45723, Control_c, 0, 64, 78
1, 45745, Control_c, 0, 64, 83
1, 45759, Control_c, 0, 64, 87
1, 45763, Note_off_c, 0, 39, 40
1, 45774, Control_c, 0, 64, 91
1, 45789, Control_c, 0, 64, 95
1, 45804, Control_c, 0, 64, 99
1, 45819, Control_c, 0, 64, 102
1, 45833, Control_c, 0, 64, 104
1, 45848, Control_c, 0, 64, 107
1, 45863, Control_c, 0, 64, 108
1, 45870, Note_off_c, 0, 77, 34
1, 45878, Control_c, 0, 64, 109
1, 45893, Control_c, 0, 64, 110
1, 45908, Control_c, 0, 64, 111
1, 45923, Control_c, 0, 64, 112
1, 45938, Control_c, 0, 64, 113
1, 45953, Control_c, 0, 64, 114
1, 45967, Control_c, 0, 64, 114
1, 45997, Control_c, 0, 64, 115
1, 46041, Control_c, 0, 64, 116
1, 46071, Control_c, 0, 64, 116
1, 46119, Note_on_c, 0, 75, 41
1, 46145, Control_c, 0, 64, 117
1, 46154, Note_on_c, 0, 60, 27
1, 46160, Note_on_c, 0, 51, 19
1, 46169, Note_on_c, 0, 58, 20
1, 46243, Note_off_c, 0, 51, 50
1, 46278, Note_off_c, 0, 58, 37
1, 46284, Note_off_c, 0, 60, 39
1, 46414, Note_on_c, 0, 70, 38
1, 46445, Note_off_c, 0, 75, 21
1, 46600, Note_off_c, 0, 70, 33
1, 46621, Note_on_c, 0, 73, 47
1, 46623, Note_on_c, 0, 58, 37
1, 46633, Note_on_c, 0, 66, 29
1, 46645, Note_on_c, 0, 60, 18
1, 46694, Note_off_c, 0, 66, 49
1, 46698, Note_off_c, 0, 60, 45
1, 46716, Note_off_c, 0, 58, 57
1, 46814, Note_on_c, 0, 72, 43
1, 46897, Note_off_c, 0, 73, 29
1, 47027, Control_c, 0, 64, 115
1, 47034, Note_off_c, 0, 72, 35
1, 47042, Control_c, 0, 64, 109
1, 47048, Note_on_c, 0, 69, 47
1, 47056, Control_c, 0, 64, 99
1, 47060, Note_on_c, 0, 41, 34
1, 47071, Control_c, 0, 64, 88
1, 47086, Control_c, 0, 64, 73
1, 47100, Control_c, 0, 64, 0
1, 47160, Control_c, 0, 64, 43
1, 47175, Control_c, 0, 64, 66
1, 47190, Control_c, 0, 64, 73
1, 47204, Control_c, 0, 64, 79
1, 47219, Control_c, 0, 64, 84
1, 47240, Note_off_c, 0, 41, 40
1, 47242, Control_c, 0, 64, 89
1, 47256, Control_c, 0, 64, 94
1, 47271, Control_c, 0, 64, 98
1, 47286, Control_c, 0, 64, 103
1, 47296, Note_off_c, 0, 69, 52
1, 47301, Control_c, 0, 64, 107
1, 47317, Control_c, 0, 64, 110
1, 47331, Control_c, 0, 64, 114
1, 47346, Control_c, 0, 64, 117
1, 47361, Control_c, 0, 64, 120
1, 47376, Control_c, 0, 64, 123
1, 47391, Control_c, 0, 64, 127
1, 47558, Note_on_c, 0, 72, 55
1, 47570, Note_on_c, 0, 60, 31
1, 47577, Note_on_c, 0, 69, 36
1, 47585, Note_on_c, 0, 65, 26
1, 47645, Note_off_c, 0, 69, 58
1, 47667, Note_off_c, 0, 60, 54
1, 47690, Note_off_c, 0, 65, 37
1, 47920, Note_on_c, 0, 77, 72
1, 47929, Note_on_c, 0, 57, 31
1, 47935, Note_on_c, 0, 65, 29
1, 47944, Note_on_c, 0, 60, 25
1, 48008, Note_off_c, 0, 60, 44
1, 48020, Note_off_c, 0, 57, 51
1, 48063, Note_off_c, 0, 72, 58
1, 48121, Note_off_c, 0, 77, 57
1, 48273, Control_c, 0, 64, 122
1, 48274, Note_on_c, 0, 76, 72
1, 48284, Note_on_c, 0, 53, 40
1, 48287, Control_c, 0, 64, 109
1, 48302, Control_c, 0, 64, 96
1, 48317, Control_c, 0, 64, 80
1, 48332, Control_c, 0, 64, 62
1, 48347, Control_c, 0, 64, 0
1, 48391, Control_c, 0, 64, 56
1, 48406, Control_c, 0, 64, 70
1, 48421, Note_off_c, 0, 53, 53
1, 48421, Control_c, 0, 64, 78
1, 48426, Note_off_c, 0, 65, 37
1, 48436, Control_c, 0, 64, 84
1, 48451, Control_c, 0, 64, 86
1, 48465, Control_c, 0, 64, 91
1, 48480, Control_c, 0, 64, 96
1, 48495, Control_c, 0, 64, 101
1, 48510, Control_c, 0, 64, 105
1, 48525, Control_c, 0, 64, 107
1, 48540, Control_c, 0, 64, 110
1, 48554, Control_c, 0, 64, 113
1, 48569, Control_c, 0, 64, 116
1, 48584, Control_c, 0, 64, 118
1, 48599, Control_c, 0, 64, 121
1, 48600, Note_on_c, 0, 70, 63
1, 48614, Note_on_c, 0, 64, 34
1, 48614, Control_c, 0, 64, 124
1, 48628, Control_c, 0, 64, 127
1, 48630, Note_on_c, 0, 61, 37
1, 48634, Note_on_c, 0, 67, 11
1, 48704, Note_off_c, 0, 67, 43
1, 48728, Note_off_c, 0, 76, 47
1, 48731, Note_off_c, 0, 61, 53
1, 48765, Note_off_c, 0, 64, 36
1, 48990, Note_on_c, 0, 73, 64
1, 48996, Note_on_c, 0, 64, 31
1, 49002, Note_on_c, 0, 61, 26
1, 49003, Note_on_c, 0, 58, 33
1, 49053, Note_off_c, 0, 64, 61
1, 49058, Note_off_c, 0, 61, 58
1, 49075, Note_off_c, 0, 58, 59
1, 49144, Note_off_c, 0, 70, 53
1, 49303, Control_c, 0, 64, 118
1, 49318, Control_c, 0, 64, 105
1, 49331, Note_on_c, 0, 41, 44
1, 49333, Control_c, 0, 64, 91
1, 49348, Control_c, 0, 64, 74
1, 49363, Control_c, 0, 64, 36
1, 49377, Control_c, 0, 64, 0
1, 49407, Control_c, 0, 64, 53
1, 49422, Control_c, 0, 64, 69
1, 49437, Control_c, 0, 64, 76
1, 49451, Control_c, 0, 64, 82
1, 49466, Note_off_c, 0, 41, 55
1, 49466, Control_c, 0, 64, 86
1, 49488, Control_c, 0, 64, 90
1, 49503, Control_c, 0, 64, 96
1, 49518, Control_c, 0, 64, 101
1, 49533, Control_c, 0, 64, 105
1, 49547, Control_c, 0, 64, 109
1, 49562, Control_c, 0, 64, 112
1, 49577, Control_c, 0, 64, 114
1, 49592, Control_c, 0, 64, 117
1, 49607, Control_c, 0, 64, 120
1, 49622, Control_c, 0, 64, 121
1, 49636, Control_c, 0, 64, 123
1, 49651, Control_c, 0, 64, 125
1, 49666, Control_c, 0, 64, 127
1, 49711, Note_on_c, 0, 72, 52
1, 49741, Note_on_c, 0, 60, 35
1, 49749, Note_on_c, 0, 69, 24
1, 49796, Note_off_c, 0, 69, 46
1, 49813, Note_off_c, 0, 60, 52
1, 49822, Poly_aftertouch_c, 0, 65, 127
1, 49835, Note_off_c, 0, 73, 59
1, 49849, Poly_aftertouch_c, 0, 65, 0
1, 50061, Note_on_c, 0, 77, 63
1, 50071, Note_on_c, 0, 65, 34
1, 50089, Note_on_c, 0, 57, 16
1, 50089, Note_on_c, 0, 60, 22
1, 50138, Note_off_c, 0, 72, 49
1, 50152, Note_off_c, 0, 60, 51
1, 50172, Note_off_c, 0, 57, 49
1, 50237, Note_off_c, 0, 77, 49
1, 50430, Control_c, 0, 64, 119
1, 50445, Control_c, 0, 64, 109
1, 50445, Note_on_c, 0, 76, 57
1, 50456, Note_on_c, 0, 53, 35
1, 50459, Control_c, 0, 64, 94
1, 50474, Control_c, 0, 64, 79
1, 50489, Control_c, 0, 64, 63
1, 50504, Control_c, 0, 64, 0
1, 50549, Control_c, 0, 64, 47
1, 50564, Control_c, 0, 64, 66
1, 50574, Note_off_c, 0, 65, 24
1, 50579, Control_c, 0, 64, 72
1, 50594, Control_c, 0, 64, 77
1, 50609, Control_c, 0, 64, 80
1, 50612, Note_off_c, 0, 53, 40
1, 50623, Control_c, 0, 64, 83
1, 50638, Control_c, 0, 64, 87
1, 50653, Control_c, 0, 64, 90
1, 50668, Control_c, 0, 64, 94
1, 50682, Control_c, 0, 64, 96
1, 50697, Control_c, 0, 64, 98
1, 50712, Control_c, 0, 64, 100
1, 50727, Control_c, 0, 64, 101
1, 50742, Control_c, 0, 64, 103
1, 50756, Control_c, 0, 64, 105
1, 50771, Control_c, 0, 64, 106
1, 50786, Control_c, 0, 64, 107
1, 50799, Note_on_c, 0, 70, 50
1, 50801, Control_c, 0, 64, 107
1, 50822, Note_on_c, 0, 61, 36
1, 50829, Note_on_c, 0, 67, 25
1, 50830, Note_on_c, 0, 64, 32
1, 50830, Control_c, 0, 64, 108
1, 50834, Note_off_c, 0, 76, 35
1, 50845, Control_c, 0, 64, 108
1, 50860, Control_c, 0, 64, 109
1, 50904, Control_c, 0, 64, 109
1, 50940, Note_off_c, 0, 67, 34
1, 50962, Note_off_c, 0, 61, 36
1, 51001, Note_off_c, 0, 64, 33
1, 51011, Note_off_c, 0, 70, 36
1, 51219, Note_on_c, 0, 73, 49
1, 51238, Note_on_c, 0, 64, 32
1, 51244, Note_on_c, 0, 58, 28
1, 51267, Note_on_c, 0, 61, 9
1, 51302, Note_off_c, 0, 64, 59
1, 51318, Note_off_c, 0, 61, 48
1, 51344, Note_off_c, 0, 58, 39
1, 51394, Note_off_c, 0, 73, 49
1, 51658, Note_on_c, 0, 41, 38
1, 51668, Control_c, 0, 64, 107
1, 51683, Control_c, 0, 64, 99
1, 51697, Control_c, 0, 64, 88
1, 51712, Control_c, 0, 64, 73
1, 51735, Control_c, 0, 64, 34
1, 51750, Control_c, 0, 64, 0
1, 51794, Control_c, 0, 64, 64
1, 51809, Control_c, 0, 64, 71
1, 51824, Control_c, 0, 64, 77
1, 51832, Note_off_c, 0, 41, 49
1, 51839, Control_c, 0, 64, 81
1, 51853, Control_c, 0, 64, 85
1, 51868, Control_c, 0, 64, 90
1, 51883, Control_c, 0, 64, 95
1, 51897, Control_c, 0, 64, 100
1, 51912, Control_c, 0, 64, 103
1, 51927, Control_c, 0, 64, 106
1, 51942, Control_c, 0, 64, 109
1, 51957, Control_c, 0, 64, 111
1, 51971, Control_c, 0, 64, 114
1, 51986, Control_c, 0, 64, 117
1, 52001, Control_c, 0, 64, 118
1, 52016, Control_c, 0, 64, 120
1, 52031, Control_c, 0, 64, 121
1, 52045, Control_c, 0, 64, 122
1, 52060, Control_c, 0, 64, 123
1, 52075, Control_c, 0, 64, 124
1, 52091, Control_c, 0, 64, 124
1, 52106, Control_c, 0, 64, 125
1, 52120, Control_c, 0, 64, 126
1, 52135, Note_on_c, 0, 72, 49
1, 52135, Control_c, 0, 64, 126
1, 52167, Note_on_c, 0, 66, 27
1, 52178, Note_on_c, 0, 63, 22
1, 52216, Poly_aftertouch_c, 0, 60, 127
1, 52227, Note_off_c, 0, 72, 56
1, 52287, Poly_aftertouch_c, 0, 60, 0
1, 52290, Note_off_c, 0, 63, 38
1, 52293, Note_off_c, 0, 66, 37
1, 52353, Note_on_c, 0, 73, 58
1, 52418, Note_off_c, 0, 73, 58
1, 52528, Note_on_c, 0, 72, 58
1, 52539, Note_on_c, 0, 63, 33
1, 52547, Note_on_c, 0, 54, 30
1, 52563, Note_on_c, 0, 58, 27
1, 52609, Note_off_c, 0, 72, 60
1, 52645, Note_off_c, 0, 54, 37
1, 52654, Note_off_c, 0, 58, 38
1, 52704, Note_on_c, 0, 73, 65
1, 52706, Note_off_c, 0, 63, 43
1, 52773, Note_off_c, 0, 73, 58
1, 52868, Control_c, 0, 64, 126
1, 52883, Control_c, 0, 64, 124
1, 52898, Control_c, 0, 64, 117
1, 52913, Control_c, 0, 64, 108
1, 52919, Note_on_c, 0, 53, 40
1, 52923, Note_on_c, 0, 75, 59
1, 52928, Control_c, 0, 64, 97
1, 52943, Control_c, 0, 64, 81
1, 52958, Control_c, 0, 64, 66
1, 52973, Control_c, 0, 64, 0
1, 53017, Control_c, 0, 64, 61
1, 53032, Control_c, 0, 64, 72
1, 53047, Control_c, 0, 64, 79
1, 53061, Control_c, 0, 64, 84
1, 53063, Note_off_c, 0, 53, 56
1, 53076, Control_c, 0, 64, 87
1, 53091, Control_c, 0, 64, 91
1, 53106, Control_c, 0, 64, 95
1, 53121, Control_c, 0, 64, 99
1, 53128, Note_off_c, 0, 75, 64
1, 53136, Control_c, 0, 64, 104
1, 53150, Control_c, 0, 64, 107
1, 53165, Control_c, 0, 64, 109
1, 53180, Control_c, 0, 64, 111
1, 53195, Control_c, 0, 64, 113
1, 53210, Control_c, 0, 64, 115
1, 53232, Control_c, 0, 64, 117
1, 53247, Control_c, 0, 64, 118
1, 53262, Control_c, 0, 64, 119
1, 53276, Control_c, 0, 64, 119
1, 53291, Control_c, 0, 64, 120
1, 53306, Control_c, 0, 64, 121
1, 53321, Control_c, 0, 64, 122
1, 53350, Control_c, 0, 64, 123
1, 53355, Note_on_c, 0, 75, 64
1, 53365, Control_c, 0, 64, 124
1, 53374, Note_on_c, 0, 63, 39
1, 53376, Note_on_c, 0, 70, 38
1, 53380, Control_c, 0, 64, 124
1, 53386, Note_on_c, 0, 66, 29
1, 53395, Control_c, 0, 64, 125
1, 53410, Control_c, 0, 64, 125
1, 53424, Control_c, 0, 64, 126
1, 53468, Control_c, 0, 64, 126
1, 53476, Note_off_c, 0, 66, 36
1, 53494, Note_off_c, 0, 70, 39
1, 53509, Note_off_c, 0, 63, 36
1, 53534, Note_off_c, 0, 75, 39
1, 53792, Note_on_c, 0, 75, 56
1, 53809, Note_on_c, 0, 60, 35
1, 53822, Note_on_c, 0, 63, 33
1, 53825, Note_on_c, 0, 66, 33
1, 53917, Note_off_c, 0, 60, 46
1, 53923, Note_off_c, 0, 66, 57
1, 53972, Note_off_c, 0, 63, 36
1, 54001, Note_off_c, 0, 75, 55
1, 54351, Control_c, 0, 64, 126
1, 54365, Control_c, 0, 64, 125
1, 54378, Note_on_c, 0, 41, 36
1, 54380, Control_c, 0, 64, 122
1, 54395, Control_c, 0, 64, 118
1, 54410, Control_c, 0, 64, 111
1, 54415, Note_on_c, 0, 75, 50
1, 54424, Control_c, 0, 64, 103
1, 54439, Control_c, 0, 64, 92
1, 54454, Control_c, 0, 64, 78
1, 54469, Control_c, 0, 64, 54
1, 54484, Control_c, 0, 64, 0
1, 54529, Control_c, 0, 64, 46
1, 54544, Control_c, 0, 64, 66
1, 54559, Control_c, 0, 64, 73
1, 54574, Control_c, 0, 64, 78
1, 54588, Control_c, 0, 64, 83
1, 54603, Control_c, 0, 64, 87
1, 54618, Control_c, 0, 64, 91
1, 54633, Control_c, 0, 64, 95
1, 54639, Note_off_c, 0, 41, 46
1, 54648, Control_c, 0, 64, 99
1, 54663, Control_c, 0, 64, 102
1, 54678, Control_c, 0, 64, 104
1, 54693, Control_c, 0, 64, 107
1, 54707, Control_c, 0, 64, 109
1, 54729, Control_c, 0, 64, 110
1, 54744, Control_c, 0, 64, 112
1, 54756, Note_off_c, 0, 75, 36
1, 54759, Control_c, 0, 64, 113
1, 54774, Control_c, 0, 64, 115
1, 54789, Control_c, 0, 64, 116
1, 54803, Control_c, 0, 64, 116
1, 54818, Control_c, 0, 64, 117
1, 54833, Control_c, 0, 64, 117
1, 54848, Control_c, 0, 64, 118
1, 54862, Control_c, 0, 64, 119
1, 54877, Control_c, 0, 64, 119
1, 54922, Control_c, 0, 64, 120
1, 54996, Control_c, 0, 64, 120
1, 55096, Note_on_c, 0, 77, 49
1, 55128, Note_on_c, 0, 69, 29
1, 55129, Control_c, 0, 64, 121
1, 55145, Note_on_c, 0, 63, 20
1, 55152, Note_on_c, 0, 65, 25
1, 55274, Note_off_c, 0, 63, 35
1, 55277, Note_off_c, 0, 69, 37
1, 55289, Note_off_c, 0, 65, 36
1, 55297, Note_off_c, 0, 77, 36
1, 55404, Note_on_c, 0, 72, 40
1, 55552, Note_off_c, 0, 72, 34
1, 55603, Note_on_c, 0, 57, 24
1, 55622, Note_on_c, 0, 75, 39
1, 55629, Note_on_c, 0, 63, 32
1, 55646, Note_on_c, 0, 65, 23
1, 55724, Note_off_c, 0, 63, 55
1, 55725, Note_off_c, 0, 65, 41
1, 55730, Note_off_c, 0, 57, 36
1, 55807, Note_on_c, 0, 73, 44
1, 55928, Note_off_c, 0, 75, 32
1, 55967, Control_c, 0, 64, 120
1, 56026, Control_c, 0, 64, 120
1, 56041, Control_c, 0, 64, 117
1, 56056, Control_c, 0, 64, 113
1, 56066, Note_on_c, 0, 70, 41
1, 56070, Control_c, 0, 64, 106
1, 56079, Note_on_c, 0, 46, 34
1, 56086, Control_c, 0, 64, 94
1, 56101, Control_c, 0, 64, 81
1, 56107, Note_off_c, 0, 73, 28
1, 56116, Control_c, 0, 64, 66
1, 56131, Control_c, 0, 64, 0
1, 56190, Control_c, 0, 64, 41
1, 56205, Control_c, 0, 64, 65
1, 56228, Control_c, 0, 64, 71
1, 56242, Control_c, 0, 64, 77
1, 56257, Control_c, 0, 64, 83
1, 56272, Control_c, 0, 64, 88
1, 56287, Control_c, 0, 64, 94
1, 56301, Control_c, 0, 64, 97
1, 56310, Note_off_c, 0, 46, 40
1, 56316, Control_c, 0, 64, 101
1, 56331, Control_c, 0, 64, 104
1, 56346, Control_c, 0, 64, 107
1, 56361, Control_c, 0, 64, 110
1, 56375, Control_c, 0, 64, 112
1, 56390, Control_c, 0, 64, 115
1, 56405, Control_c, 0, 64, 117
1, 56420, Control_c, 0, 64, 118
1, 56435, Control_c, 0, 64, 119
1, 56449, Control_c, 0, 64, 120
1, 56464, Control_c, 0, 64, 121
1, 56479, Control_c, 0, 64, 123
1, 56493, Control_c, 0, 64, 123
1, 56508, Control_c, 0, 64, 124
1, 56523, Control_c, 0, 64, 124
1, 56538, Control_c, 0, 64, 125
1, 56553, Control_c, 0, 64, 125
1, 56568, Control_c, 0, 64, 126
1, 56598, Note_on_c, 0, 65, 29
1, 56599, Note_on_c, 0, 61, 28
1, 56612, Control_c, 0, 64, 126
1, 56614, Note_on_c, 0, 58, 16
1, 56701, Control_c, 0, 64, 127
1, 56711, Note_off_c, 0, 58, 35
1, 56728, Note_off_c, 0, 61, 35
1, 56743, Note_off_c, 0, 65, 41
1, 56979, Note_on_c, 0, 58, 30
1, 56981, Note_on_c, 0, 61, 36
1, 56985, Note_on_c, 0, 53, 26
1, 56997, Note_off_c, 0, 70, 33
1, 57083, Note_off_c, 0, 58, 49
1, 57086, Note_off_c, 0, 61, 52
1, 57104, Note_off_c, 0, 53, 33
1, 57316, Control_c, 0, 64, 126
1, 57346, Control_c, 0, 64, 124
1, 57361, Control_c, 0, 64, 118
1, 57372, Note_on_c, 0, 67, 46
1, 57376, Control_c, 0, 64, 108
1, 57390, Control_c, 0, 64, 95
1, 57396, Note_on_c, 0, 48, 32
1, 57405, Control_c, 0, 64, 79
1, 57420, Control_c, 0, 64, 63
1, 57435, Control_c, 0, 64, 0
1, 57480, Control_c, 0, 64, 58
1, 57495, Control_c, 0, 64, 69
1, 57509, Control_c, 0, 64, 75
1, 57524, Control_c, 0, 64, 79
1, 57539, Control_c, 0, 64, 83
1, 57554, Control_c, 0, 64, 87
1, 57564, Note_off_c, 0, 48, 44
1, 57569, Control_c, 0, 64, 92
1, 57583, Control_c, 0, 64, 97
1, 57598, Control_c, 0, 64, 101
1, 57613, Control_c, 0, 64, 104
1, 57628, Control_c, 0, 64, 107
1, 57642, Control_c, 0, 64, 109
1, 57657, Control_c, 0, 64, 112
1, 57672, Control_c, 0, 64, 114
1, 57688, Control_c, 0, 64, 117
1, 57703, Control_c, 0, 64, 119
1, 57725, Control_c, 0, 64, 122
1, 57739, Control_c, 0, 64, 125
1, 57754, Control_c, 0, 64, 126
1, 57769, Control_c, 0, 64, 127
1, 57806, Note_on_c, 0, 60, 25
1, 57809, Note_on_c, 0, 58, 26
1, 57810, Note_on_c, 0, 64, 30
1, 57912, Note_off_c, 0, 60, 54
1, 57930, Note_off_c, 0, 64, 44
1, 57931, Note_off_c, 0, 58, 39
1, 58198, Note_on_c, 0, 58, 34
1, 58201, Note_on_c, 0, 60, 37
1, 58204, Note_on_c, 0, 52, 36
1, 58297, Note_off_c, 0, 60, 57
1, 58302, Note_off_c, 0, 52, 54
1, 58309, Note_off_c, 0, 58, 57
1, 58310, Note_off_c, 0, 67, 35
1, 58660, Note_on_c, 0, 41, 46
1, 58666, Control_c, 0, 64, 121
1, 58681, Control_c, 0, 64, 107
1, 58696, Control_c, 0, 64, 94
1, 58711, Control_c, 0, 64, 77
1, 58726, Control_c, 0, 64, 44
1, 58741, Control_c, 0, 64, 0
1, 58800, Control_c, 0, 64, 65
1, 58815, Control_c, 0, 64, 75
1, 58830, Control_c, 0, 64, 86
1, 58844, Control_c, 0, 64, 97
1, 58859, Control_c, 0, 64, 105
1, 58866, Note_off_c, 0, 41, 52
1, 58874, Control_c, 0, 64, 115
1, 58889, Control_c, 0, 64, 126
1, 58904, Control_c, 0, 64, 127
1, 59187, Note_on_c, 0, 72, 53
1, 59188, Note_on_c, 0, 68, 41
1, 59203, Note_on_c, 0, 60, 31
1, 59282, Poly_aftertouch_c, 0, 65, 127
1, 59295, Note_off_c, 0, 60, 53
1, 59320, Poly_aftertouch_c, 0, 65, 0
1, 59324, Note_off_c, 0, 68, 57
1, 59576, Note_on_c, 0, 77, 69
1, 59589, Note_on_c, 0, 56, 42
1, 59591, Note_on_c, 0, 65, 39
1, 59663, Note_off_c, 0, 72, 57
1, 59668, Note_off_c, 0, 56, 56
1, 59735, Note_off_c, 0, 65, 28
1, 59736, Note_off_c, 0, 77, 54
1, 59901, Note_on_c, 0, 76, 72
1, 59904, Control_c, 0, 64, 113
1, 59906, Note_on_c, 0, 53, 46
1, 59918, Control_c, 0, 64, 92
1, 59933, Control_c, 0, 64, 75
1, 59948, Control_c, 0, 64, 37
1, 59971, Control_c, 0, 64, 0
1, 60000, Control_c, 0, 64, 25
1, 60015, Control_c, 0, 64, 67
1, 60030, Control_c, 0, 64, 76
1, 60037, Note_off_c, 0, 53, 61
1, 60044, Control_c, 0, 64, 83
1, 60059, Control_c, 0, 64, 88
1, 60074, Control_c, 0, 64, 93
1, 60090, Control_c, 0, 64, 98
1, 60105, Control_c, 0, 64, 103
1, 60120, Control_c, 0, 64, 109
1, 60134, Control_c, 0, 64, 114
1, 60149, Control_c, 0, 64, 118
1, 60164, Control_c, 0, 64, 123
1, 60179, Control_c, 0, 64, 127
1, 60231, Note_on_c, 0, 70, 66
1, 60251, Note_on_c, 0, 64, 39
1, 60255, Note_on_c, 0, 61, 38
1, 60264, Note_on_c, 0, 67, 29
1, 60323, Note_off_c, 0, 67, 44
1, 60344, Note_off_c, 0, 76, 49
1, 60346, Note_off_c, 0, 61, 55
1, 60380, Note_off_c, 0, 64, 35
1, 60610, Note_on_c, 0, 73, 64
1, 60623, Note_on_c, 0, 64, 38
1, 60629, Note_on_c, 0, 58, 37
1, 60659, Note_off_c, 0, 64, 54
1, 60684, Note_off_c, 0, 58, 61
1, 60709, Poly_aftertouch_c, 0, 61, 0
1, 60759, Note_off_c, 0, 70, 58
1, 60913, Control_c, 0, 64, 109
1, 60928, Control_c, 0, 64, 88
1, 60943, Control_c, 0, 64, 67
1, 60944, Note_on_c, 0, 41, 50
1, 60957, Control_c, 0, 64, 0
1, 61002, Control_c, 0, 64, 58
1, 61017, Control_c, 0, 64, 72
1, 61031, Control_c, 0, 64, 82
1, 61046, Control_c, 0, 64, 93
1, 61061, Control_c, 0, 64, 101
1, 61066, Note_off_c, 0, 41, 56
1, 61076, Control_c, 0, 64, 111
1, 61090, Control_c, 0, 64, 121
1, 61105, Control_c, 0, 64, 127
1, 61280, Note_on_c, 0, 72, 62
1, 61303, Note_on_c, 0, 68, 42
1, 61316, Note_on_c, 0, 60, 40
1, 61362, Poly_aftertouch_c, 0, 65, 127
1, 61376, Note_off_c, 0, 60, 57
1, 61384, Note_off_c, 0, 73, 61
1, 61397, Poly_aftertouch_c, 0, 65, 0
1, 61411, Note_off_c, 0, 68, 37
1, 61702, Note_on_c, 0, 77, 72
1, 61704, Note_on_c, 0, 56, 39
1, 61715, Note_on_c, 0, 65, 35
1, 61773, Note_off_c, 0, 56, 54
1, 61863, Note_off_c, 0, 65, 32
1, 62010, Note_on_c, 0, 53, 54
1, 62032, Control_c, 0, 64, 114
1, 62047, Control_c, 0, 64, 92
1, 62062, Note_off_c, 0, 72, 22
1, 62062, Control_c, 0, 64, 72
1, 62077, Control_c, 0, 64, 0
1, 62121, Control_c, 0, 64, 65
1, 62136, Control_c, 0, 64, 76
1, 62151, Control_c, 0, 64, 86
1, 62166, Control_c, 0, 64, 95
1, 62178, Note_on_c, 0, 76, 63
1, 62181, Control_c, 0, 64, 102
1, 62184, Note_off_c, 0, 53, 61
1, 62195, Control_c, 0, 64, 114
1, 62218, Control_c, 0, 64, 127
1, 62259, Note_off_c, 0, 77, 56
1, 62358, Note_on_c, 0, 70, 66
1, 62381, Note_on_c, 0, 64, 43
1, 62385, Note_on_c, 0, 67, 41
1, 62386, Note_on_c, 0, 61, 47
1, 62490, Note_off_c, 0, 67, 38
1, 62500, Note_off_c, 0, 61, 52
1, 62505, Note_off_c, 0, 76, 62
1, 62509, Note_on_c, 0, 72, 68
1, 62535, Note_off_c, 0, 64, 31
1, 62636, Note_off_c, 0, 70, 51
1, 62754, Note_on_c, 0, 75, 67
1, 62780, Note_on_c, 0, 64, 41
1, 62783, Note_on_c, 0, 58, 36
1, 62845, Poly_aftertouch_c, 0, 61, 127
1, 62884, Poly_aftertouch_c, 0, 61, 0
1, 62885, Note_off_c, 0, 64, 62
1, 62893, Note_off_c, 0, 58, 58
1, 62996, Note_on_c, 0, 73, 60
1, 63054, Note_off_c, 0, 75, 57
1, 63069, Note_off_c, 0, 72, 41
1, 63174, Note_off_c, 0, 73, 51
1, 63192, Note_on_c, 0, 53, 63
1, 63203, Control_c, 0, 64, 107
1, 63218, Control_c, 0, 64, 86
1, 63233, Control_c, 0, 64, 65
1, 63248, Control_c, 0, 64, 0
1, 63293, Control_c, 0, 64, 65
1, 63308, Control_c, 0, 64, 78
1, 63323, Control_c, 0, 64, 92
1, 63338, Control_c, 0, 64, 103
1, 63352, Control_c, 0, 64, 110
1, 63359, Note_off_c, 0, 53, 64
1, 63367, Control_c, 0, 64, 119
1, 63382, Control_c, 0, 64, 127
1, 63547, Note_on_c, 0, 72, 61
1, 63572, Note_on_c, 0, 68, 47
1, 63574, Note_on_c, 0, 60, 46
1, 63600, Note_on_c, 0, 65, 26
1, 63635, Note_off_c, 0, 68, 57
1, 63638, Note_off_c, 0, 65, 51
1, 63659, Note_off_c, 0, 60, 59
1, 63692, Note_off_c, 0, 72, 56
1, 63735, Note_on_c, 0, 73, 72
1, 63810, Note_off_c, 0, 73, 60
1, 63897, Note_on_c, 0, 72, 73
1, 63898, Note_on_c, 0, 52, 57
1, 63908, Control_c, 0, 64, 106
1, 63923, Control_c, 0, 64, 84
1, 63938, Control_c, 0, 64, 63
1, 63952, Control_c, 0, 64, 0
1, 63982, Control_c, 0, 64, 59
1, 63997, Control_c, 0, 64, 75
1, 64011, Control_c, 0, 64, 87
1, 64017, Note_off_c, 0, 72, 57
1, 64026, Control_c, 0, 64, 98
1, 64041, Control_c, 0, 64, 104
1, 64056, Control_c, 0, 64, 110
1, 64057, Note_on_c, 0, 73, 73
1, 64059, Note_off_c, 0, 52, 64
1, 64071, Control_c, 0, 64, 117
1, 64087, Control_c, 0, 64, 127
1, 64136, Note_off_c, 0, 73, 59
1, 64264, Control_c, 0, 64, 105
1, 64275, Note_on_c, 0, 75, 69
1, 64279, Control_c, 0, 64, 84
1, 64283, Note_on_c, 0, 51, 50
1, 64294, Control_c, 0, 64, 60
1, 64308, Control_c, 0, 64, 0
1, 64382, Control_c, 0, 64, 65
1, 64397, Control_c, 0, 64, 75
1, 64412, Control_c, 0, 64, 87
1, 64420, Note_off_c, 0, 51, 62
1, 64426, Control_c, 0, 64, 102
1, 64441, Control_c, 0, 64, 113
1, 64464, Control_c, 0, 64, 127
1, 64473, Note_off_c, 0, 75, 62
1, 64650, Note_on_c, 0, 75, 74
1, 64663, Note_on_c, 0, 68, 49
1, 64672, Note_on_c, 0, 60, 50
1, 64723, Note_off_c, 0, 60, 56
1, 64745, Note_off_c, 0, 68, 58
1, 64751, Note_off_c, 0, 75, 59
1, 65018, Note_on_c, 0, 75, 73
1, 65027, Note_on_c, 0, 51, 48
1, 65131, Note_off_c, 0, 51, 60
1, 65132, Note_off_c, 0, 75, 62
1, 65472, Note_on_c, 0, 39, 47
1, 65482, Note_on_c, 0, 75, 69
1, 65494, Control_c, 0, 64, 114
1, 65509, Control_c, 0, 64, 93
1, 65523, Control_c, 0, 64, 72
1, 65538, Control_c, 0, 64, 0
1, 65582, Control_c, 0, 64, 50
1, 65597, Control_c, 0, 64, 71
1, 65612, Control_c, 0, 64, 82
1, 65627, Control_c, 0, 64, 96
1, 65639, Note_off_c, 0, 39, 55
1, 65642, Control_c, 0, 64, 108
1, 65656, Control_c, 0, 64, 122
1, 65672, Control_c, 0, 64, 127
1, 65889, Note_on_c, 0, 73, 68
1, 65920, Note_on_c, 0, 61, 42
1, 65920, Note_on_c, 0, 63, 44
1, 65921, Note_on_c, 0, 67, 44
1, 65983, Note_off_c, 0, 61, 49
1, 65984, Note_off_c, 0, 67, 39
1, 66008, Note_off_c, 0, 75, 17
1, 66076, Note_off_c, 0, 63, 33
1, 66123, Note_on_c, 0, 72, 68
1, 66238, Note_off_c, 0, 73, 34
1, 66290, Note_on_c, 0, 55, 44
1, 66294, Note_on_c, 0, 70, 66
1, 66299, Note_on_c, 0, 61, 52
1, 66302, Note_on_c, 0, 63, 42
1, 66326, Note_off_c, 0, 72, 57
1, 66360, Note_off_c, 0, 63, 58
1, 66374, Note_off_c, 0, 55, 60
1, 66374, Note_off_c, 0, 61, 62
1, 66470, Note_on_c, 0, 72, 67
1, 66497, Note_off_c, 0, 70, 56
1, 66717, Note_on_c, 0, 68, 65
1, 66719, Note_on_c, 0, 44, 55
1, 66754, Control_c, 0, 64, 108
1, 66769, Control_c, 0, 64, 89
1, 66779, Note_off_c, 0, 72, 52
1, 66783, Control_c, 0, 64, 71
1, 66798, Control_c, 0, 64, 0
1, 66843, Control_c, 0, 64, 55
1, 66858, Control_c, 0, 64, 73
1, 66872, Note_off_c, 0, 44, 62
1, 66872, Control_c, 0, 64, 87
1, 66887, Control_c, 0, 64, 103
1, 66902, Control_c, 0, 64, 116
1, 66917, Control_c, 0, 64, 127
1, 67125, Note_on_c, 0, 63, 58
1, 67132, Note_on_c, 0, 60, 55
1, 67141, Note_on_c, 0, 56, 50
1, 67189, Note_off_c, 0, 68, 36
1, 67206, Note_off_c, 0, 63, 55
1, 67225, Note_off_c, 0, 60, 51
1, 67234, Note_off_c, 0, 56, 56
1, 67458, Note_on_c, 0, 60, 55
1, 67471, Note_on_c, 0, 51, 51
1, 67474, Note_on_c, 0, 56, 46
1, 67497, Note_off_c, 0, 60, 60
1, 67520, Note_off_c, 0, 56, 60
1, 67543, Note_off_c, 0, 51, 62
1, 67790, Note_on_c, 0, 44, 68
1, 67814, Control_c, 0, 64, 104
1, 67829, Control_c, 0, 64, 82
1, 67843, Control_c, 0, 64, 62
1, 67858, Control_c, 0, 64, 0
1, 67888, Control_c, 0, 64, 68
1, 67903, Control_c, 0, 64, 85
1, 67917, Control_c, 0, 64, 104
1, 67928, Note_off_c, 0, 44, 62
1, 67932, Control_c, 0, 64, 122
1, 67947, Control_c, 0, 64, 127
1, 68153, Note_on_c, 0, 64, 70
1, 68157, Note_on_c, 0, 60, 63
1, 68167, Note_on_c, 0, 56, 59
1, 68269, Note_off_c, 0, 64, 57
1, 68282, Note_off_c, 0, 56, 56
1, 68284, Note_off_c, 0, 60, 57
1, 68518, Note_on_c, 0, 60, 62
1, 68534, Note_on_c, 0, 56, 53
1, 68539, Note_on_c, 0, 52, 52
1, 68607, Note_off_c, 0, 60, 62
1, 68632, Note_off_c, 0, 56, 63
1, 68634, Note_off_c, 0, 52, 65
1, 68966, Note_on_c, 0, 32, 70
1, 69016, Control_c, 0, 64, 98
1, 69031, Control_c, 0, 64, 75
1, 69046, Control_c, 0, 64, 0
1, 69105, Control_c, 0, 64, 70
1, 69120, Control_c, 0, 64, 87
1, 69135, Control_c, 0, 64, 104
1, 69150, Control_c, 0, 64, 121
1, 69165, Control_c, 0, 64, 127
1, 69168, Note_off_c, 0, 32, 62
1, 69459, Note_on_c, 0, 75, 74
1, 69480, Note_on_c, 0, 68, 52
1, 69483, Note_on_c, 0, 72, 47
1, 69487, Note_on_c, 0, 63, 45
1, 69548, Note_off_c, 0, 72, 40
1, 69564, Note_off_c, 0, 68, 48
1, 69579, Note_off_c, 0, 63, 38
1, 69879, Note_on_c, 0, 68, 49
1, 69879, Note_on_c, 0, 80, 82
1, 69883, Note_on_c, 0, 60, 47
1, 69912, Note_on_c, 0, 63, 29
1, 69933, Note_off_c, 0, 75, 60
1, 69944, Note_off_c, 0, 60, 53
1, 69946, Note_off_c, 0, 68, 62
1, 69956, Note_off_c, 0, 63, 49
1, 70024, Note_off_c, 0, 80, 62
1, 70193, Control_c, 0, 64, 125
1, 70208, Control_c, 0, 64, 97
1, 70211, Note_on_c, 0, 79, 84
1, 70215, Note_on_c, 0, 56, 52
1, 70223, Control_c, 0, 64, 78
1, 70238, Control_c, 0, 64, 48
1, 70253, Control_c, 0, 64, 0
1, 70283, Control_c, 0, 64, 58
1, 70298, Control_c, 0, 64, 74
1, 70299, Note_off_c, 0, 56, 62
1, 70312, Control_c, 0, 64, 85
1, 70327, Control_c, 0, 64, 95
1, 70342, Control_c, 0, 64, 100
1, 70357, Control_c, 0, 64, 109
1, 70371, Control_c, 0, 64, 122
1, 70386, Control_c, 0, 64, 127
1, 70525, Note_on_c, 0, 70, 57
1, 70525, Note_on_c, 0, 73, 78
1, 70542, Note_on_c, 0, 64, 53
1, 70572, Note_off_c, 0, 70, 54
1, 70588, Note_off_c, 0, 64, 62
1, 70630, Note_off_c, 0, 79, 47
1, 70867, Note_on_c, 0, 76, 74
1, 70871, Note_on_c, 0, 58, 47
1, 70877, Note_on_c, 0, 67, 47
1, 70879, Note_on_c, 0, 61, 47
1, 70919, Note_off_c, 0, 67, 53
1, 70939, Note_off_c, 0, 61, 59
1, 70947, Note_off_c, 0, 58, 63
1, 70965, Note_off_c, 0, 73, 59
1, 71180, Control_c, 0, 64, 121
1, 71201, Control_c, 0, 64, 95
1, 71207, Note_on_c, 0, 44, 56
1, 71216, Control_c, 0, 64, 72
1, 71231, Control_c, 0, 64, 0
1, 71291, Control_c, 0, 64, 66
1, 71306, Control_c, 0, 64, 76
1, 71321, Control_c, 0, 64, 89
1, 71336, Control_c, 0, 64, 101
1, 71347, Note_off_c, 0, 44, 63
1, 71351, Control_c, 0, 64, 114
1, 71365, Control_c, 0, 64, 127
1, 71562, Note_on_c, 0, 75, 73
1, 71574, Note_on_c, 0, 68, 47
1, 71593, Note_on_c, 0, 72, 37
1, 71600, Note_on_c, 0, 63, 36
1, 71642, Note_off_c, 0, 63, 47
1, 71643, Note_off_c, 0, 72, 44
1, 71660, Note_off_c, 0, 68, 50
1, 71663, Note_off_c, 0, 76, 57
1, 71979, Note_on_c, 0, 80, 78
1, 71993, Note_on_c, 0, 68, 47
1, 72000, Note_on_c, 0, 60, 37
1, 72022, Note_on_c, 0, 63, 28
1, 72066, Note_off_c, 0, 60, 53
1, 72068, Note_off_c, 0, 68, 61
1, 72071, Note_off_c, 0, 63, 46
1, 72129, Note_off_c, 0, 75, 49
1, 72310, Note_on_c, 0, 56, 53
1, 72338, Control_c, 0, 64, 100
1, 72353, Control_c, 0, 64, 81
1, 72367, Control_c, 0, 64, 60
1, 72382, Control_c, 0, 64, 0
1, 72412, Control_c, 0, 64, 58
1, 72427, Control_c, 0, 64, 73
1, 72439, Note_off_c, 0, 56, 62
1, 72441, Control_c, 0, 64, 84
1, 72456, Control_c, 0, 64, 95
1, 72471, Control_c, 0, 64, 99
1, 72473, Note_on_c, 0, 79, 67
1, 72486, Control_c, 0, 64, 105
1, 72501, Control_c, 0, 64, 113
1, 72515, Control_c, 0, 64, 126
1, 72530, Control_c, 0, 64, 127
1, 72558, Note_off_c, 0, 80, 52
1, 72659, Note_on_c, 0, 73, 70
1, 72661, Note_on_c, 0, 70, 54
1, 72674, Note_on_c, 0, 64, 49
1, 72727, Note_off_c, 0, 70, 52
1, 72732, Note_off_c, 0, 64, 59
1, 72818, Note_off_c, 0, 79, 59
1, 72829, Note_on_c, 0, 75, 72
1, 72948, Note_off_c, 0, 73, 49
1, 73064, Note_on_c, 0, 78, 70
1, 73081, Note_on_c, 0, 58, 44
1, 73083, Note_on_c, 0, 61, 43
1, 73086, Note_on_c, 0, 67, 44
1, 73165, Note_off_c, 0, 67, 56
1, 73187, Note_off_c, 0, 58, 60
1, 73188, Note_off_c, 0, 61, 60
1, 73269, Note_off_c, 0, 75, 53
1, 73312, Note_on_c, 0, 76, 59
1, 73363, Note_off_c, 0, 78, 53
1, 73449, Note_off_c, 0, 76, 59
1, 73547, Note_on_c, 0, 44, 60
1, 73583, Control_c, 0, 64, 100
1, 73597, Control_c, 0, 64, 81
1, 73612, Control_c, 0, 64, 38
1, 73627, Control_c, 0, 64, 0
1, 73673, Control_c, 0, 64, 64
1, 73688, Control_c, 0, 64, 75
1, 73702, Control_c, 0, 64, 87
1, 73717, Control_c, 0, 64, 103
1, 73720, Note_off_c, 0, 44, 63
1, 73732, Control_c, 0, 64, 117
1, 73747, Control_c, 0, 64, 127
1, 73935, Note_on_c, 0, 75, 66
1, 73957, Note_on_c, 0, 72, 50
1, 73967, Note_on_c, 0, 63, 41
1, 73976, Note_on_c, 0, 68, 35
1, 74047, Note_off_c, 0, 72, 52
1, 74049, Note_off_c, 0, 63, 49
1, 74066, Note_off_c, 0, 68, 35
1, 74127, Note_on_c, 0, 77, 75
1, 74164, Note_off_c, 0, 75, 62
1, 74305, Note_on_c, 0, 68, 57
1, 74310, Note_on_c, 0, 75, 76
1, 74312, Note_on_c, 0, 60, 47
1, 74331, Note_off_c, 0, 77, 54
1, 74337, Note_on_c, 0, 63, 41
1, 74372, Note_off_c, 0, 68, 63
1, 74382, Note_off_c, 0, 60, 53
1, 74386, Note_off_c, 0, 63, 62
1, 74435, Note_off_c, 0, 75, 57
1, 74472, Note_on_c, 0, 77, 74
1, 74559, Note_off_c, 0, 77, 56
1, 74699, Note_on_c, 0, 78, 75
1, 74703, Control_c, 0, 64, 105
1, 74704, Note_on_c, 0, 39, 53
1, 74718, Control_c, 0, 64, 85
1, 74733, Control_c, 0, 64, 65
1, 74748, Control_c, 0, 64, 0
1, 74807, Control_c, 0, 64, 60
1, 74822, Control_c, 0, 64, 71
1, 74836, Control_c, 0, 64, 79
1, 74838, Note_off_c, 0, 39, 61
1, 74851, Control_c, 0, 64, 90
1, 74866, Control_c, 0, 64, 99
1, 74881, Control_c, 0, 64, 108
1, 74896, Control_c, 0, 64, 119
1, 74910, Control_c, 0, 64, 127
1, 74927, Note_off_c, 0, 78, 48
1, 75121, Note_on_c, 0, 78, 75
1, 75131, Note_on_c, 0, 66, 50
1, 75139, Note_on_c, 0, 70, 44
1, 75149, Note_on_c, 0, 63, 42
1, 75212, Note_off_c, 0, 63, 53
1, 75225, Note_off_c, 0, 66, 56
1, 75228, Note_off_c, 0, 70, 57
1, 75255, Note_off_c, 0, 78, 56
1, 75502, Note_on_c, 0, 78, 72
1, 75511, Note_on_c, 0, 66, 48
1, 75526, Note_on_c, 0, 58, 38
1, 75528, Note_on_c, 0, 63, 39
1, 75590, Note_off_c, 0, 66, 62
1, 75591, Note_off_c, 0, 63, 56
1, 75621, Note_off_c, 0, 58, 59
1, 75643, Note_off_c, 0, 78, 59
1, 76000, Note_on_c, 0, 78, 66
1, 76002, Note_on_c, 0, 41, 42
1, 76007, Control_c, 0, 64, 117
1, 76022, Control_c, 0, 64, 98
1, 76037, Control_c, 0, 64, 79
1, 76052, Control_c, 0, 64, 54
1, 76068, Control_c, 0, 64, 0
1, 76127, Control_c, 0, 64, 50
1, 76142, Control_c, 0, 64, 67
1, 76156, Control_c, 0, 64, 74
1, 76171, Control_c, 0, 64, 82
1, 76174, Note_off_c, 0, 41, 56
1, 76186, Control_c, 0, 64, 88
1, 76201, Control_c, 0, 64, 94
1, 76215, Control_c, 0, 64, 100
1, 76230, Control_c, 0, 64, 107
1, 76245, Control_c, 0, 64, 113
1, 76246, Note_off_c, 0, 78, 61
1, 76260, Control_c, 0, 64, 119
1, 76275, Control_c, 0, 64, 125
1, 76289, Control_c, 0, 64, 127
1, 76500, Note_on_c, 0, 77, 59
1, 76522, Note_on_c, 0, 63, 36
1, 76527, Note_on_c, 0, 69, 36
1, 76537, Note_on_c, 0, 65, 31
1, 76620, Note_off_c, 0, 65, 57
1, 76641, Note_off_c, 0, 69, 38
1, 76647, Note_off_c, 0, 63, 42
1, 76756, Note_on_c, 0, 72, 59
1, 76775, Note_off_c, 0, 77, 45
1, 76963, Note_on_c, 0, 63, 38
1, 76963, Note_on_c, 0, 75, 61
1, 76971, Note_on_c, 0, 65, 33
1, 76975, Note_on_c, 0, 57, 22
1, 77012, Note_off_c, 0, 72, 58
1, 77044, Note_off_c, 0, 65, 59
1, 77058, Note_off_c, 0, 63, 56
1, 77061, Note_off_c, 0, 57, 54
1, 77150, Note_on_c, 0, 73, 59
1, 77204, Note_off_c, 0, 75, 57
1, 77344, Note_off_c, 0, 73, 52
1, 77386, Note_on_c, 0, 70, 57
1, 77386, Control_c, 0, 64, 115
1, 77391, Note_on_c, 0, 46, 45
1, 77401, Control_c, 0, 64, 101
1, 77416, Control_c, 0, 64, 86
1, 77431, Control_c, 0, 64, 70
1, 77446, Control_c, 0, 64, 0
1, 77520, Control_c, 0, 64, 56
1, 77535, Control_c, 0, 64, 70
1, 77550, Control_c, 0, 64, 77
1, 77559, Note_off_c, 0, 46, 50
1, 77564, Control_c, 0, 64, 84
1, 77579, Control_c, 0, 64, 89
1, 77594, Control_c, 0, 64, 94
1, 77607, Control_c, 0, 64, 99
1, 77622, Control_c, 0, 64, 105
1, 77637, Control_c, 0, 64, 113
1, 77647, Note_off_c, 0, 70, 52
1, 77652, Control_c, 0, 64, 118
1, 77667, Control_c, 0, 64, 124
1, 77682, Control_c, 0, 64, 127
1, 77805, Note_on_c, 0, 65, 44
1, 77818, Note_on_c, 0, 61, 38
1, 77840, Note_on_c, 0, 58, 29
1, 77936, Note_off_c, 0, 65, 50
1, 77985, Note_off_c, 0, 58, 35
1, 77995, Note_off_c, 0, 61, 35
1, 78232, Note_on_c, 0, 53, 30
1, 78236, Note_on_c, 0, 61, 35
1, 78251, Note_on_c, 0, 58, 27
1, 78370, Note_off_c, 0, 61, 54
1, 78379, Note_off_c, 0, 58, 50
1, 78385, Note_off_c, 0, 53, 45
1, 78862, Note_on_c, 0, 42, 32
1, 78883, Control_c, 0, 64, 119
1, 78898, Control_c, 0, 64, 108
1, 78913, Control_c, 0, 64, 95
1, 78927, Control_c, 0, 64, 81
1, 78942, Control_c, 0, 64, 65
1, 78957, Control_c, 0, 64, 0
1, 79047, Control_c, 0, 64, 55
1, 79061, Control_c, 0, 64, 70
1, 79076, Control_c, 0, 64, 76
1, 79091, Control_c, 0, 64, 83
1, 79106, Control_c, 0, 64, 88
1, 79121, Control_c, 0, 64, 93
1, 79129, Note_off_c, 0, 42, 41
1, 79135, Control_c, 0, 64, 98
1, 79150, Control_c, 0, 64, 102
1, 79165, Control_c, 0, 64, 107
1, 79180, Control_c, 0, 64, 111
1, 79195, Control_c, 0, 64, 115
1, 79209, Control_c, 0, 64, 119
1, 79224, Control_c, 0, 64, 122
1, 79239, Control_c, 0, 64, 126
1, 79255, Control_c, 0, 64, 127
1, 79512, Note_on_c, 0, 73, 35
1, 79557, Note_on_c, 0, 58, 19
1, 79573, Note_on_c, 0, 61, 20
1, 79586, Note_on_c, 0, 66, 17
1, 79664, Note_off_c, 0, 73, 38
1, 79702, Note_off_c, 0, 61, 35
1, 79710, Note_off_c, 0, 58, 42
1, 79717, Note_off_c, 0, 66, 42
1, 79784, Note_on_c, 0, 75, 42
1, 79899, Note_off_c, 0, 75, 50
1, 79993, Note_on_c, 0, 73, 50
1, 80000, Note_on_c, 0, 54, 30
1, 80022, Note_on_c, 0, 61, 33
1, 80029, Note_on_c, 0, 58, 20
1, 80095, Note_off_c, 0, 61, 54
1, 80099, Note_off_c, 0, 58, 42
1, 80109, Note_off_c, 0, 54, 37
1, 80167, Note_off_c, 0, 73, 35
1, 80210, Note_on_c, 0, 75, 53
1, 80470, Control_c, 0, 64, 126
1, 80485, Control_c, 0, 64, 113
1, 80495, Note_on_c, 0, 77, 54
1, 80500, Control_c, 0, 64, 100
1, 80515, Control_c, 0, 64, 87
1, 80521, Note_on_c, 0, 37, 31
1, 80529, Control_c, 0, 64, 73
1, 80534, Note_off_c, 0, 75, 27
1, 80544, Control_c, 0, 64, 37
1, 80559, Control_c, 0, 64, 0
1, 80617, Control_c, 0, 64, 60
1, 80632, Control_c, 0, 64, 69
1, 80647, Control_c, 0, 64, 75
1, 80662, Control_c, 0, 64, 82
1, 80677, Control_c, 0, 64, 87
1, 80685, Note_off_c, 0, 37, 44
1, 80692, Control_c, 0, 64, 93
1, 80706, Control_c, 0, 64, 99
1, 80721, Control_c, 0, 64, 105
1, 80736, Control_c, 0, 64, 110
1, 80751, Control_c, 0, 64, 115
1, 80766, Control_c, 0, 64, 119
1, 80773, Note_off_c, 0, 77, 36
1, 80780, Control_c, 0, 64, 124
1, 80795, Control_c, 0, 64, 127
1, 81025, Note_on_c, 0, 77, 56
1, 81038, Note_on_c, 0, 61, 26
1, 81071, Note_on_c, 0, 56, 23
1, 81074, Note_on_c, 0, 65, 22
1, 81191, Note_off_c, 0, 56, 32
1, 81197, Note_off_c, 0, 65, 35
1, 81198, Note_off_c, 0, 61, 37
1, 81251, Note_off_c, 0, 77, 36
1, 81458, Note_on_c, 0, 77, 50
1, 81478, Note_on_c, 0, 53, 24
1, 81506, Note_on_c, 0, 56, 7
1, 81507, Note_on_c, 0, 61, 31
1, 81608, Note_off_c, 0, 61, 52
1, 81643, Note_off_c, 0, 56, 36
1, 81644, Note_off_c, 0, 53, 41
1, 81662, Note_off_c, 0, 77, 36
1, 82039, Note_on_c, 0, 77, 50
1, 82063, Note_on_c, 0, 39, 32
1, 82072, Control_c, 0, 64, 115
1, 82087, Control_c, 0, 64, 103
1, 82101, Control_c, 0, 64, 90
1, 82116, Control_c, 0, 64, 77
1, 82131, Control_c, 0, 64, 56
1, 82146, Control_c, 0, 64, 0
1, 82190, Control_c, 0, 64, 41
1, 82205, Control_c, 0, 64, 65
1, 82220, Control_c, 0, 64, 74
1, 82234, Control_c, 0, 64, 80
1, 82249, Control_c, 0, 64, 86
1, 82260, Note_off_c, 0, 39, 39
1, 82264, Control_c, 0, 64, 91
1, 82278, Control_c, 0, 64, 96
1, 82293, Control_c, 0, 64, 101
1, 82308, Control_c, 0, 64, 107
1, 82323, Control_c, 0, 64, 112
1, 82338, Control_c, 0, 64, 115
1, 82352, Control_c, 0, 64, 119
1, 82358, Note_off_c, 0, 77, 35
1, 82367, Control_c, 0, 64, 122
1, 82382, Control_c, 0, 64, 127
1, 82624, Note_on_c, 0, 75, 44
1, 82644, Note_on_c, 0, 51, 24
1, 82652, Note_on_c, 0, 60, 23
1, 82663, Note_on_c, 0, 58, 13
1, 82728, Note_off_c, 0, 51, 49
1, 82752, Note_off_c, 0, 60, 54
1, 82769, Note_off_c, 0, 58, 37
1, 82894, Note_on_c, 0, 70, 46
1, 82977, Note_off_c, 0, 75, 20
1, 83091, Note_on_c, 0, 58, 35
1, 83091, Note_on_c, 0, 73, 51
1, 83098, Note_off_c, 0, 70, 35
1, 83104, Note_on_c, 0, 66, 31
1, 83108, Note_on_c, 0, 60, 23
1, 83157, Note_off_c, 0, 66, 50
1, 83175, Note_off_c, 0, 60, 56
1, 83198, Note_off_c, 0, 58, 57
1, 83288, Note_on_c, 0, 72, 48
1, 83372, Note_off_c, 0, 73, 35
1, 83527, Note_on_c, 0, 69, 49
1, 83527, Note_off_c, 0, 72, 34
1, 83539, Control_c, 0, 64, 116
1, 83542, Note_on_c, 0, 41, 38
1, 83554, Control_c, 0, 64, 104
1, 83569, Control_c, 0, 64, 88
1, 83584, Control_c, 0, 64, 73
1, 83598, Control_c, 0, 64, 33
1, 83613, Control_c, 0, 64, 0
1, 83658, Control_c, 0, 64, 61
1, 83673, Control_c, 0, 64, 70
1, 83688, Control_c, 0, 64, 78
1, 83696, Note_off_c, 0, 41, 52
1, 83703, Control_c, 0, 64, 85
1, 83717, Control_c, 0, 64, 91
1, 83731, Note_off_c, 0, 69, 56
1, 83732, Control_c, 0, 64, 97
1, 83747, Control_c, 0, 64, 103
1, 83762, Control_c, 0, 64, 111
1, 83777, Control_c, 0, 64, 117
1, 83791, Control_c, 0, 64, 122
1, 83806, Control_c, 0, 64, 127
1, 84022, Note_on_c, 0, 72, 54
1, 84032, Note_on_c, 0, 60, 36
1, 84051, Note_on_c, 0, 69, 29
1, 84054, Note_on_c, 0, 65, 27
1, 84114, Note_off_c, 0, 69, 51
1, 84132, Note_off_c, 0, 60, 56
1, 84160, Note_off_c, 0, 65, 38
1, 84394, Note_on_c, 0, 77, 69
1, 84398, Note_on_c, 0, 57, 32
1, 84398, Note_on_c, 0, 65, 34
1, 84406, Note_on_c, 0, 60, 24
1, 84466, Note_off_c, 0, 60, 58
1, 84467, Note_off_c, 0, 57, 55
1, 84481, Note_off_c, 0, 72, 56
1, 84546, Note_off_c, 0, 77, 53
1, 84739, Note_on_c, 0, 76, 69
1, 84740, Control_c, 0, 64, 117
1, 84755, Note_on_c, 0, 53, 39
1, 84755, Control_c, 0, 64, 105
1, 84770, Control_c, 0, 64, 91
1, 84785, Control_c, 0, 64, 76
1, 84800, Control_c, 0, 64, 59
1, 84815, Control_c, 0, 64, 0
1, 84847, Note_off_c, 0, 65, 23
1, 84859, Control_c, 0, 64, 63
1, 84874, Control_c, 0, 64, 70
1, 84889, Control_c, 0, 64, 76
1, 84904, Control_c, 0, 64, 80
1, 84915, Note_off_c, 0, 53, 44
1, 84919, Control_c, 0, 64, 83
1, 84934, Control_c, 0, 64, 87
1, 84949, Control_c, 0, 64, 90
1, 84964, Control_c, 0, 64, 93
1, 84978, Control_c, 0, 64, 97
1, 84993, Control_c, 0, 64, 100
1, 85008, Control_c, 0, 64, 103
1, 85023, Control_c, 0, 64, 105
1, 85038, Control_c, 0, 64, 107
1, 85052, Control_c, 0, 64, 109
1, 85067, Control_c, 0, 64, 111
1, 85082, Note_on_c, 0, 70, 62
1, 85082, Control_c, 0, 64, 113
1, 85097, Control_c, 0, 64, 114
1, 85112, Control_c, 0, 64, 116
1, 85115, Note_on_c, 0, 61, 33
1, 85122, Note_on_c, 0, 64, 32
1, 85125, Note_on_c, 0, 67, 17
1, 85126, Control_c, 0, 64, 117
1, 85141, Control_c, 0, 64, 118
1, 85156, Control_c, 0, 64, 119
1, 85170, Control_c, 0, 64, 120
1, 85177, Note_off_c, 0, 76, 39
1, 85178, Note_off_c, 0, 67, 45
1, 85200, Control_c, 0, 64, 121
1, 85211, Note_off_c, 0, 61, 50
1, 85215, Control_c, 0, 64, 121
1, 85228, Note_off_c, 0, 64, 39
1, 85259, Control_c, 0, 64, 122
1, 85289, Control_c, 0, 64, 122
1, 85480, Note_on_c, 0, 73, 63
1, 85485, Note_on_c, 0, 58, 35
1, 85506, Note_on_c, 0, 61, 10
1, 85521, Note_on_c, 0, 64, 18
1, 85557, Note_off_c, 0, 61, 53
1, 85563, Note_off_c, 0, 64, 41
1, 85575, Note_off_c, 0, 58, 61
1, 85588, Note_off_c, 0, 70, 54
1, 85816, Control_c, 0, 64, 121
1, 85831, Control_c, 0, 64, 117
1, 85846, Control_c, 0, 64, 105
1, 85852, Note_on_c, 0, 41, 40
1, 85861, Control_c, 0, 64, 87
1, 85875, Control_c, 0, 64, 68
1, 85890, Control_c, 0, 64, 0
1, 85934, Control_c, 0, 64, 33
1, 85949, Control_c, 0, 64, 69
1, 85964, Control_c, 0, 64, 76
1, 85979, Control_c, 0, 64, 82
1, 85993, Control_c, 0, 64, 86
1, 86008, Control_c, 0, 64, 90
1, 86018, Note_off_c, 0, 41, 37
1, 86023, Control_c, 0, 64, 94
1, 86038, Control_c, 0, 64, 99
1, 86053, Control_c, 0, 64, 104
1, 86067, Control_c, 0, 64, 108
1, 86082, Control_c, 0, 64, 111
1, 86097, Control_c, 0, 64, 114
1, 86111, Control_c, 0, 64, 116
1, 86126, Control_c, 0, 64, 118
1, 86141, Control_c, 0, 64, 120
1, 86156, Control_c, 0, 64, 121
1, 86179, Control_c, 0, 64, 122
1, 86193, Control_c, 0, 64, 123
1, 86208, Control_c, 0, 64, 123
1, 86223, Control_c, 0, 64, 124
1, 86253, Control_c, 0, 64, 124
1, 86270, Note_on_c, 0, 72, 46
1, 86310, Note_on_c, 0, 60, 33
1, 86326, Control_c, 0, 64, 125
1, 86328, Note_on_c, 0, 69, 12
1, 86377, Poly_aftertouch_c, 0, 65, 127
1, 86382, Note_off_c, 0, 69, 47
1, 86385, Note_off_c, 0, 73, 50
1, 86402, Note_off_c, 0, 60, 37
1, 86410, Poly_aftertouch_c, 0, 65, 0
1, 86711, Note_on_c, 0, 77, 66
1, 86712, Note_on_c, 0, 57, 29
1, 86716, Note_on_c, 0, 65, 30
1, 86746, Note_on_c, 0, 60, 20
1, 86811, Note_off_c, 0, 60, 41
1, 86873, Note_off_c, 0, 57, 35
1, 86889, Note_off_c, 0, 72, 32
1, 87076, Control_c, 0, 64, 124
1, 87091, Control_c, 0, 64, 124
1, 87105, Control_c, 0, 64, 122
1, 87120, Control_c, 0, 64, 119
1, 87135, Control_c, 0, 64, 113
1, 87140, Note_on_c, 0, 53, 33
1, 87149, Control_c, 0, 64, 104
1, 87164, Control_c, 0, 64, 92
1, 87179, Control_c, 0, 64, 79
1, 87194, Control_c, 0, 64, 65
1, 87209, Control_c, 0, 64, 0
1, 87253, Note_off_c, 0, 65, 18
1, 87254, Control_c, 0, 64, 56
1, 87269, Control_c, 0, 64, 68
1, 87284, Control_c, 0, 64, 73
1, 87299, Control_c, 0, 64, 77
1, 87313, Control_c, 0, 64, 79
1, 87328, Control_c, 0, 64, 82
1, 87343, Control_c, 0, 64, 85
1, 87358, Control_c, 0, 64, 89
1, 87367, Note_off_c, 0, 53, 44
1, 87372, Control_c, 0, 64, 92
1, 87387, Control_c, 0, 64, 94
1, 87402, Control_c, 0, 64, 97
1, 87408, Note_on_c, 0, 76, 51
1, 87417, Control_c, 0, 64, 99
1, 87432, Control_c, 0, 64, 100
1, 87447, Control_c, 0, 64, 101
1, 87462, Control_c, 0, 64, 102
1, 87476, Control_c, 0, 64, 103
1, 87491, Control_c, 0, 64, 104
1, 87493, Note_off_c, 0, 77, 35
1, 87506, Control_c, 0, 64, 105
1, 87521, Control_c, 0, 64, 105
1, 87536, Control_c, 0, 64, 106
1, 87551, Control_c, 0, 64, 106
1, 87565, Control_c, 0, 64, 107
1, 87580, Control_c, 0, 64, 107
1, 87595, Control_c, 0, 64, 108
1, 87613, Note_on_c, 0, 70, 50
1, 87638, Note_on_c, 0, 61, 33
1, 87639, Note_on_c, 0, 64, 32
1, 87639, Control_c, 0, 64, 108
1, 87654, Control_c, 0, 64, 109
1, 87691, Control_c, 0, 64, 109
1, 87713, Poly_aftertouch_c, 0, 67, 127
1, 87743, Note_off_c, 0, 76, 50
1, 87752, Poly_aftertouch_c, 0, 67, 0
1, 87778, Note_off_c, 0, 61, 44
1, 87790, Note_on_c, 0, 72, 51
1, 87802, Note_off_c, 0, 64, 38
1, 87810, Control_c, 0, 64, 110
1, 87895, Note_off_c, 0, 70, 38
1, 87898, Control_c, 0, 64, 110
1, 88038, Note_on_c, 0, 58, 33
1, 88042, Note_on_c, 0, 75, 44
1, 88065, Note_on_c, 0, 64, 29
1, 88067, Note_on_c, 0, 61, 13
1, 88138, Note_off_c, 0, 64, 56
1, 88148, Note_off_c, 0, 61, 39
1, 88155, Note_off_c, 0, 72, 51
1, 88195, Note_off_c, 0, 58, 36
1, 88290, Note_on_c, 0, 73, 48
1, 88347, Note_off_c, 0, 75, 26
1, 88433, Note_off_c, 0, 73, 35
1, 88572, Note_on_c, 0, 41, 42
1, 88574, Control_c, 0, 64, 109
1, 88589, Control_c, 0, 64, 105
1, 88603, Control_c, 0, 64, 95
1, 88618, Control_c, 0, 64, 81
1, 88633, Control_c, 0, 64, 65
1, 88648, Control_c, 0, 64, 0
1, 88693, Control_c, 0, 64, 44
1, 88708, Control_c, 0, 64, 67
1, 88722, Control_c, 0, 64, 75
1, 88737, Control_c, 0, 64, 83
1, 88752, Control_c, 0, 64, 88
1, 88767, Control_c, 0, 64, 92
1, 88779, Note_off_c, 0, 41, 40
1, 88782, Control_c, 0, 64, 98
1, 88796, Control_c, 0, 64, 103
1, 88811, Control_c, 0, 64, 108
1, 88826, Control_c, 0, 64, 112
1, 88841, Control_c, 0, 64, 115
1, 88856, Control_c, 0, 64, 118
1, 88871, Control_c, 0, 64, 121
1, 88885, Control_c, 0, 64, 125
1, 88900, Control_c, 0, 64, 127
1, 89070, Note_on_c, 0, 72, 47
1, 89108, Note_on_c, 0, 60, 34
1, 89111, Note_on_c, 0, 66, 18
1, 89118, Note_on_c, 0, 63, 17
1, 89176, Note_off_c, 0, 72, 57
1, 89232, Note_off_c, 0, 60, 55
1, 89241, Note_off_c, 0, 66, 42
1, 89246, Note_off_c, 0, 63, 37
1, 89293, Note_on_c, 0, 73, 55
1, 89351, Note_off_c, 0, 73, 53
1, 89465, Note_on_c, 0, 72, 59
1, 89486, Note_on_c, 0, 54, 34
1, 89496, Note_on_c, 0, 63, 31
1, 89511, Note_on_c, 0, 58, 30
1, 89539, Note_off_c, 0, 72, 59
1, 89551, Note_off_c, 0, 54, 51
1, 89598, Note_off_c, 0, 58, 37
1, 89630, Note_on_c, 0, 73, 62
1, 89650, Note_off_c, 0, 63, 26
1, 89708, Note_off_c, 0, 73, 58
1, 89796, Control_c, 0, 64, 124
1, 89811, Control_c, 0, 64, 114
1, 89826, Control_c, 0, 64, 103
1, 89840, Control_c, 0, 64, 89
1, 89855, Control_c, 0, 64, 74
1, 89856, Note_on_c, 0, 75, 56
1, 89863, Note_on_c, 0, 53, 36
1, 89870, Control_c, 0, 64, 38
1, 89885, Control_c, 0, 64, 0
1, 89937, Control_c, 0, 64, 57
1, 89952, Control_c, 0, 64, 68
1, 89966, Control_c, 0, 64, 75
1, 89981, Control_c, 0, 64, 83
1, 89996, Control_c, 0, 64, 88
1, 90011, Control_c, 0, 64, 93
1, 90016, Note_off_c, 0, 53, 44
1, 90026, Control_c, 0, 64, 97
1, 90040, Control_c, 0, 64, 101
1, 90042, Note_off_c, 0, 75, 59
1, 90055, Control_c, 0, 64, 105
1, 90070, Control_c, 0, 64, 109
1, 90085, Control_c, 0, 64, 111
1, 90100, Control_c, 0, 64, 113
1, 90115, Control_c, 0, 64, 115
1, 90130, Control_c, 0, 64, 117
1, 90144, Control_c, 0, 64, 118
1, 90159, Control_c, 0, 64, 119
1, 90174, Control_c, 0, 64, 120
1, 90189, Control_c, 0, 64, 121
1, 90204, Control_c, 0, 64, 121
1, 90219, Control_c, 0, 64, 122
1, 90233, Control_c, 0, 64, 122
1, 90263, Control_c, 0, 64, 123
1, 90277, Note_on_c, 0, 75, 62
1, 90278, Control_c, 0, 64, 124
1, 90291, Note_on_c, 0, 66, 38
1, 90295, Note_on_c, 0, 70, 32
1, 90296, Note_on_c, 0, 63, 39
1, 90323, Control_c, 0, 64, 124
1, 90367, Control_c, 0, 64, 125
1, 90404, Note_off_c, 0, 75, 51
1, 90415, Note_off_c, 0, 70, 41
1, 90425, Note_off_c, 0, 66, 40
1, 90430, Note_off_c, 0, 63, 36
1, 90732, Note_on_c, 0, 75, 53
1, 90747, Note_on_c, 0, 60, 31
1, 90758, Note_on_c, 0, 66, 30
1, 90764, Note_on_c, 0, 63, 32
1, 90848, Note_off_c, 0, 66, 59
1, 90861, Note_off_c, 0, 63, 46
1, 90862, Note_off_c, 0, 60, 55
1, 90932, Note_off_c, 0, 75, 38
1, 91265, Control_c, 0, 64, 124
1, 91280, Control_c, 0, 64, 123
1, 91286, Note_on_c, 0, 75, 47
1, 91290, Note_on_c, 0, 41, 30
1, 91295, Control_c, 0, 64, 119
1, 91310, Control_c, 0, 64, 109
1, 91325, Control_c, 0, 64, 99
1, 91339, Control_c, 0, 64, 85
1, 91354, Control_c, 0, 64, 71
1, 91369, Control_c, 0, 64, 16
1, 91384, Control_c, 0, 64, 0
1, 91420, Control_c, 0, 64, 32
1, 91435, Control_c, 0, 64, 65
1, 91450, Control_c, 0, 64, 72
1, 91465, Control_c, 0, 64, 77
1, 91480, Control_c, 0, 64, 82
1, 91495, Control_c, 0, 64, 86
1, 91510, Control_c, 0, 64, 91
1, 91516, Note_off_c, 0, 41, 41
1, 91525, Control_c, 0, 64, 95
1, 91539, Control_c, 0, 64, 99
1, 91554, Control_c, 0, 64, 102
1, 91569, Control_c, 0, 64, 105
1, 91580, Note_off_c, 0, 75, 38
1, 91584, Control_c, 0, 64, 107
1, 91599, Control_c, 0, 64, 108
1, 91613, Control_c, 0, 64, 110
1, 91628, Control_c, 0, 64, 112
1, 91643, Control_c, 0, 64, 114
1, 91658, Control_c, 0, 64, 114
1, 91673, Control_c, 0, 64, 115
1, 91687, Control_c, 0, 64, 115
1, 91702, Control_c, 0, 64, 117
1, 91717, Control_c, 0, 64, 117
1, 91731, Control_c, 0, 64, 118
1, 91746, Control_c, 0, 64, 118
1, 91761, Control_c, 0, 64, 119
1, 91791, Control_c, 0, 64, 119
1, 91805, Control_c, 0, 64, 120
1, 91835, Control_c, 0, 64, 120
1, 91850, Control_c, 0, 64, 121
1, 91879, Control_c, 0, 64, 121
1, 91903, Note_on_c, 0, 77, 49
1, 91931, Note_on_c, 0, 69, 27
1, 91943, Note_on_c, 0, 63, 11
1, 91954, Control_c, 0, 64, 122
1, 91959, Note_on_c, 0, 65, 15
1, 91969, Control_c, 0, 64, 122
1, 92028, Control_c, 0, 64, 123
1, 92057, Note_off_c, 0, 63, 34
1, 92062, Note_off_c, 0, 69, 42
1, 92069, Note_off_c, 0, 65, 34
1, 92073, Control_c, 0, 64, 123
1, 92118, Control_c, 0, 64, 124
1, 92146, Note_off_c, 0, 77, 32
1, 92247, Note_on_c, 0, 72, 45
1, 92416, Note_off_c, 0, 72, 37
1, 92445, Note_on_c, 0, 57, 23
1, 92471, Note_on_c, 0, 63, 27
1, 92490, Note_on_c, 0, 75, 48
1, 92490, Note_on_c, 0, 65, 22
1, 92616, Note_off_c, 0, 63, 42
1, 92617, Note_off_c, 0, 65, 36
1, 92622, Note_off_c, 0, 57, 39
1, 92703, Note_on_c, 0, 73, 48
1, 92791, Note_off_c, 0, 75, 34
1, 92866, Note_off_c, 0, 73, 34
1, 93007, Control_c, 0, 64, 123
1, 93022, Control_c, 0, 64, 122
1, 93037, Control_c, 0, 64, 119
1, 93039, Note_on_c, 0, 46, 36
1, 93039, Note_on_c, 0, 70, 42
1, 93052, Control_c, 0, 64, 114
1, 93066, Control_c, 0, 64, 109
1, 93081, Control_c, 0, 64, 102
1, 93096, Control_c, 0, 64, 93
1, 93110, Control_c, 0, 64, 82
1, 93125, Control_c, 0, 64, 68
1, 93140, Control_c, 0, 64, 0
1, 93230, Control_c, 0, 64, 59
1, 93245, Control_c, 0, 64, 69
1, 93259, Control_c, 0, 64, 75
1, 93274, Control_c, 0, 64, 81
1, 93289, Control_c, 0, 64, 86
1, 93304, Control_c, 0, 64, 91
1, 93318, Control_c, 0, 64, 95
1, 93330, Note_off_c, 0, 46, 41
1, 93333, Control_c, 0, 64, 101
1, 93348, Control_c, 0, 64, 105
1, 93363, Control_c, 0, 64, 110
1, 93378, Control_c, 0, 64, 113
1, 93392, Control_c, 0, 64, 117
1, 93407, Control_c, 0, 64, 120
1, 93422, Control_c, 0, 64, 126
1, 93437, Control_c, 0, 64, 127
1, 93730, Note_on_c, 0, 65, 32
1, 93730, Note_on_c, 0, 61, 27
1, 93745, Note_on_c, 0, 58, 24
1, 93907, Note_off_c, 0, 58, 41
1, 93909, Note_off_c, 0, 65, 41
1, 93917, Note_off_c, 0, 61, 39
1, 94145, Note_on_c, 0, 61, 35
1, 94154, Note_on_c, 0, 53, 29
1, 94187, Note_on_c, 0, 58, 11
1, 94209, Note_off_c, 0, 53, 44
1, 94242, Note_off_c, 0, 58, 44
1, 94321, Note_off_c, 0, 61, 38
1, 94527, Note_on_c, 0, 61, 27
1, 94529, Note_on_c, 0, 66, 37
1, 94550, Note_on_c, 0, 58, 35
1, 94629, Note_off_c, 0, 66, 55
1, 94643, Note_off_c, 0, 58, 48
1, 94663, Note_off_c, 0, 61, 35
1, 94866, Note_on_c, 0, 58, 30
1, 94869, Note_on_c, 0, 65, 39
1, 94880, Note_on_c, 0, 61, 35
1, 94941, Note_off_c, 0, 58, 54
1, 94941, Note_off_c, 0, 61, 50
1, 94950, Note_off_c, 0, 65, 51
1, 95200, Note_on_c, 0, 61, 40
1, 95208, Note_on_c, 0, 53, 36
1, 95220, Note_on_c, 0, 58, 30
1, 95255, Note_off_c, 0, 53, 57
1, 95264, Note_off_c, 0, 61, 59
1, 95268, Note_off_c, 0, 58, 52
1, 95551, Control_c, 0, 64, 120
1, 95566, Control_c, 0, 64, 106
1, 95579, Note_on_c, 0, 58, 33
1, 95579, Control_c, 0, 64, 93
1, 95592, Note_on_c, 0, 49, 33
1, 95594, Control_c, 0, 64, 79
1, 95609, Note_on_c, 0, 53, 29
1, 95609, Control_c, 0, 64, 65
1, 95624, Control_c, 0, 64, 0
1, 95653, Control_c, 0, 64, 60
1, 95668, Control_c, 0, 64, 69
1, 95683, Control_c, 0, 64, 75
1, 95698, Control_c, 0, 64, 82
1, 95713, Control_c, 0, 64, 89
1, 95723, Note_off_c, 0, 58, 46
1, 95728, Note_off_c, 0, 53, 34
1, 95728, Control_c, 0, 64, 93
1, 95743, Control_c, 0, 64, 98
1, 95757, Control_c, 0, 64, 102
1, 95770, Note_off_c, 0, 49, 39
1, 95772, Control_c, 0, 64, 106
1, 95787, Control_c, 0, 64, 110
1, 95802, Control_c, 0, 64, 113
1, 95817, Control_c, 0, 64, 116
1, 95830, Note_off_c, 0, 70, 16
1, 95832, Control_c, 0, 64, 119
1, 95846, Control_c, 0, 64, 120
1, 95861, Control_c, 0, 64, 121
1, 95876, Control_c, 0, 64, 122
1, 95891, Control_c, 0, 64, 123
1, 95912, Control_c, 0, 64, 124
1, 96015, Note_on_c, 0, 46, 36
1, 96033, Note_on_c, 0, 34, 24
1, 96047, Control_c, 0, 64, 121
1, 96062, Control_c, 0, 64, 114
1, 96077, Control_c, 0, 64, 104
1, 96091, Control_c, 0, 64, 93
1, 96106, Control_c, 0, 64, 77
1, 96121, Control_c, 0, 64, 62
1, 96136, Control_c, 0, 64, 0
1, 96166, Control_c, 0, 64, 35
1, 96181, Control_c, 0, 64, 66
1, 96196, Control_c, 0, 64, 75
1, 96210, Control_c, 0, 64, 82
1, 96225, Control_c, 0, 64, 86
1, 96229, Note_off_c, 0, 34, 39
1, 96229, Note_off_c, 0, 46, 40
1, 96240, Control_c, 0, 64, 89
1, 96255, Control_c, 0, 64, 94
1, 96270, Control_c, 0, 64, 98
1, 96284, Control_c, 0, 64, 102
1, 96299, Control_c, 0, 64, 107
1, 96314, Control_c, 0, 64, 110
1, 96328, Control_c, 0, 64, 113
1, 96343, Control_c, 0, 64, 115
1, 96358, Control_c, 0, 64, 117
1, 96373, Control_c, 0, 64, 119
1, 96388, Control_c, 0, 64, 120
1, 96402, Control_c, 0, 64, 121
1, 96452, Note_on_c, 0, 44, 35
1, 96453, Note_on_c, 0, 32, 39
1, 96476, Control_c, 0, 64, 121
1, 96491, Control_c, 0, 64, 113
1, 96506, Control_c, 0, 64, 102
1, 96521, Control_c, 0, 64, 89
1, 96535, Control_c, 0, 64, 75
1, 96550, Control_c, 0, 64, 59
1, 96565, Control_c, 0, 64, 0
1, 96595, Control_c, 0, 64, 39
1, 96610, Control_c, 0, 64, 66
1, 96625, Control_c, 0, 64, 73
1, 96640, Control_c, 0, 64, 80
1, 96661, Control_c, 0, 64, 85
1, 96676, Control_c, 0, 64, 90
1, 96691, Control_c, 0, 64, 94
1, 96706, Control_c, 0, 64, 99
1, 96708, Note_off_c, 0, 44, 41
1, 96721, Control_c, 0, 64, 104
1, 96735, Control_c, 0, 64, 108
1, 96743, Note_off_c, 0, 32, 40
1, 96750, Control_c, 0, 64, 112
1, 96765, Control_c, 0, 64, 116
1, 96780, Control_c, 0, 64, 120
1, 96795, Control_c, 0, 64, 126
1, 96810, Control_c, 0, 64, 127
1, 96991, Note_on_c, 0, 30, 33
1, 97004, Note_on_c, 0, 42, 32
1, 97048, Control_c, 0, 64, 116
1, 97063, Control_c, 0, 64, 101
1, 97077, Control_c, 0, 64, 87
1, 97092, Control_c, 0, 64, 72
1, 97107, Control_c, 0, 64, 10
1, 97122, Control_c, 0, 64, 0
1, 97181, Control_c, 0, 64, 61
1, 97196, Control_c, 0, 64, 71
1, 97211, Control_c, 0, 64, 79
1, 97225, Control_c, 0, 64, 87
1, 97240, Control_c, 0, 64, 93
1, 97255, Control_c, 0, 64, 102
1, 97269, Control_c, 0, 64, 110
1, 97284, Note_off_c, 0, 42, 42
1, 97284, Control_c, 0, 64, 122
1, 97289, Note_off_c, 0, 30, 40
1, 97299, Control_c, 0, 64, 127
1, 97552, Note_on_c, 0, 49, 35
1, 97559, Note_on_c, 0, 37, 36
1, 97704, Note_off_c, 0, 37, 48
1, 97707, Note_off_c, 0, 49, 48
1, 97924, Note_on_c, 0, 54, 45
1, 97936, Note_on_c, 0, 42, 42
1, 98057, Note_off_c, 0, 54, 56
1, 98065, Note_off_c, 0, 42, 50
1, 98352, Note_on_c, 0, 78, 70
1, 98377, Note_on_c, 0, 70, 45
1, 98390, Note_on_c, 0, 58, 34
1, 98392, Note_on_c, 0, 66, 37
1, 98396, Note_on_c, 0, 46, 37
1, 98530, Note_off_c, 0, 58, 58
1, 98539, Note_off_c, 0, 46, 46
1, 98723, Note_on_c, 0, 63, 49
1, 98743, Note_on_c, 0, 51, 36
1, 98758, Note_off_c, 0, 70, 54
1, 98820, Note_off_c, 0, 63, 59
1, 98847, Note_off_c, 0, 51, 50
1, 98875, Note_off_c, 0, 78, 54
1, 98878, Note_off_c, 0, 66, 31
1, 99062, Note_on_c, 0, 78, 78
1, 99084, Note_on_c, 0, 70, 48
1, 99090, Note_on_c, 0, 46, 44
1, 99096, Note_on_c, 0, 66, 41
1, 99100, Note_on_c, 0, 58, 26
1, 99239, Note_off_c, 0, 70, 38
1, 99250, Note_off_c, 0, 58, 39
1, 99251, Note_off_c, 0, 46, 38
1, 99269, Note_off_c, 0, 66, 38
1, 99346, Note_off_c, 0, 78, 39
1, 99531, Note_on_c, 0, 78, 73
1, 99549, Note_on_c, 0, 70, 48
1, 99567, Note_on_c, 0, 49, 39
1, 99573, Note_on_c, 0, 66, 38
1, 99576, Note_on_c, 0, 61, 31
1, 99591, Control_c, 0, 64, 125
1, 99606, Control_c, 0, 64, 107
1, 99620, Control_c, 0, 64, 93
1, 99635, Control_c, 0, 64, 79
1, 99657, Control_c, 0, 64, 61
1, 99671, Control_c, 0, 64, 0
1, 99716, Control_c, 0, 64, 21
1, 99731, Control_c, 0, 64, 67
1, 99746, Control_c, 0, 64, 79
1, 99761, Control_c, 0, 64, 89
1, 99776, Control_c, 0, 64, 97
1, 99791, Control_c, 0, 64, 103
1, 99791, Note_off_c, 0, 61, 46
1, 99806, Control_c, 0, 64, 112
1, 99806, Note_off_c, 0, 49, 40
1, 99820, Control_c, 0, 64, 124
1, 99835, Control_c, 0, 64, 127
1, 99960, Note_on_c, 0, 63, 41
1, 99966, Note_on_c, 0, 51, 41
1, 100050, Note_off_c, 0, 63, 58
1, 100070, Note_off_c, 0, 51, 56
1, 100257, Note_on_c, 0, 58, 37
1, 100266, Note_on_c, 0, 46, 29
1, 100327, Note_off_c, 0, 46, 41
1, 100347, Note_off_c, 0, 58, 54
1, 100533, Note_on_c, 0, 61, 45
1, 100534, Note_on_c, 0, 49, 45
1, 100582, Note_off_c, 0, 61, 51
1, 100606, Note_off_c, 0, 49, 55
1, 100788, Note_on_c, 0, 56, 41
1, 100792, Note_on_c, 0, 44, 43
1, 100822, Control_c, 0, 64, 105
1, 100837, Control_c, 0, 64, 89
1, 100852, Control_c, 0, 64, 76
1, 100867, Control_c, 0, 64, 67
1, 100882, Control_c, 0, 64, 67
1, 100884, Note_off_c, 0, 56, 49
1, 100887, Note_off_c, 0, 44, 57
1, 100897, Control_c, 0, 64, 76
1, 100911, Control_c, 0, 64, 87
1, 100926, Control_c, 0, 64, 98
1, 100941, Control_c, 0, 64, 103
1, 100956, Control_c, 0, 64, 108
1, 100971, Control_c, 0, 64, 113
1, 100986, Control_c, 0, 64, 122
1, 101000, Control_c, 0, 64, 127
1, 101040, Note_on_c, 0, 58, 47
1, 101053, Note_on_c, 0, 46, 45
1, 101095, Note_off_c, 0, 58, 59
1, 101126, Note_off_c, 0, 46, 55
1, 101304, Control_c, 0, 64, 113
1, 101308, Note_on_c, 0, 42, 45
1, 101308, Note_on_c, 0, 54, 44
1, 101318, Control_c, 0, 64, 93
1, 101333, Control_c, 0, 64, 76
1, 101348, Control_c, 0, 64, 51
1, 101363, Control_c, 0, 64, 0
1, 101392, Control_c, 0, 64, 66
1, 101402, Note_off_c, 0, 54, 58
1, 101407, Control_c, 0, 64, 81
1, 101422, Control_c, 0, 64, 94
1, 101433, Note_off_c, 0, 42, 61
1, 101437, Control_c, 0, 64, 103
1, 101451, Control_c, 0, 64, 107
1, 101466, Control_c, 0, 64, 116
1, 101481, Control_c, 0, 64, 127
1, 101570, Note_on_c, 0, 51, 46
1, 101572, Note_on_c, 0, 39, 46
1, 101626, Note_off_c, 0, 51, 55
1, 101660, Note_off_c, 0, 39, 58
1, 101794, Note_off_c, 0, 70, 57
1, 101821, Note_on_c, 0, 34, 49
1, 101823, Note_on_c, 0, 46, 49
1, 101851, Note_off_c, 0, 66, 38
1, 101853, Note_off_c, 0, 78, 41
1, 101904, Note_off_c, 0, 46, 56
1, 101905, Note_off_c, 0, 34, 61
1, 102089, Note_on_c, 0, 78, 73
1, 102119, Note_on_c, 0, 70, 44
1, 102132, Note_on_c, 0, 66, 40
1, 102133, Note_on_c, 0, 49, 39
1, 102139, Note_on_c, 0, 37, 39
1, 102156, Control_c, 0, 64, 102
1, 102171, Control_c, 0, 64, 84
1, 102186, Control_c, 0, 64, 68
1, 102187, Note_off_c, 0, 49, 58
1, 102201, Control_c, 0, 64, 0
1, 102223, Note_off_c, 0, 37, 59
1, 102230, Control_c, 0, 64, 69
1, 102245, Control_c, 0, 64, 82
1, 102260, Control_c, 0, 64, 96
1, 102274, Control_c, 0, 64, 107
1, 102289, Control_c, 0, 64, 113
1, 102304, Control_c, 0, 64, 125
1, 102318, Control_c, 0, 64, 127
1, 102354, Note_on_c, 0, 32, 50
1, 102390, Note_off_c, 0, 70, 37
1, 102420, Poly_aftertouch_c, 0, 44, 127
1, 102427, Note_off_c, 0, 32, 55
1, 102453, Poly_aftertouch_c, 0, 44, 0
1, 102458, Note_off_c, 0, 66, 39
1, 102473, Note_off_c, 0, 78, 58
1, 102606, Note_on_c, 0, 78, 76
1, 102626, Note_on_c, 0, 70, 50
1, 102641, Note_on_c, 0, 66, 45
1, 102650, Note_on_c, 0, 34, 39
1, 102656, Note_on_c, 0, 46, 30
1, 102697, Note_off_c, 0, 46, 42
1, 102704, Note_off_c, 0, 66, 43
1, 102705, Note_off_c, 0, 70, 44
1, 102713, Note_off_c, 0, 34, 50
1, 102801, Note_off_c, 0, 78, 52
1, 102927, Note_on_c, 0, 78, 72
1, 102928, Note_on_c, 0, 42, 48
1, 102936, Note_on_c, 0, 30, 44
1, 102950, Note_on_c, 0, 70, 51
1, 102962, Control_c, 0, 64, 110
1, 102977, Note_on_c, 0, 66, 40
1, 102977, Control_c, 0, 64, 88
1, 102992, Control_c, 0, 64, 66
1, 103007, Control_c, 0, 64, 0
1, 103037, Control_c, 0, 64, 56
1, 103047, Note_off_c, 0, 66, 0
1, 103047, Note_on_c, 0, 66, 5
1, 103050, Note_off_c, 0, 42, 62
1, 103051, Note_off_c, 0, 30, 59
1, 103052, Control_c, 0, 64, 76
1, 103067, Control_c, 0, 64, 92
1, 103082, Control_c, 0, 64, 109
1, 103096, Control_c, 0, 64, 119
1, 103111, Control_c, 0, 64, 127
1, 103278, Note_on_c, 0, 63, 56
1, 103281, Note_on_c, 0, 51, 54
1, 103321, Note_off_c, 0, 63, 62
1, 103357, Note_off_c, 0, 51, 61
1, 103524, Note_on_c, 0, 46, 60
1, 103525, Note_on_c, 0, 58, 53
1, 103526, Note_off_c, 0, 70, 52
1, 103561, Note_off_c, 0, 66, 56
1, 103571, Note_off_c, 0, 78, 56
1, 103605, Note_off_c, 0, 58, 57
1, 103609, Note_off_c, 0, 46, 60
1, 103901, Note_on_c, 0, 77, 69
1, 103924, Note_on_c, 0, 68, 53
1, 103934, Note_on_c, 0, 61, 41
1, 103934, Note_on_c, 0, 65, 52
1, 103934, Control_c, 0, 64, 119
1, 103935, Note_on_c, 0, 49, 42
1, 103949, Control_c, 0, 64, 97
1, 103964, Control_c, 0, 64, 80
1, 103979, Control_c, 0, 64, 64
1, 103993, Control_c, 0, 64, 0
1, 104038, Note_off_c, 0, 61, 60
1, 104038, Control_c, 0, 64, 67
1, 104053, Control_c, 0, 64, 77
1, 104068, Control_c, 0, 64, 86
1, 104072, Note_off_c, 0, 49, 50
1, 104083, Control_c, 0, 64, 91
1, 104098, Control_c, 0, 64, 97
1, 104113, Control_c, 0, 64, 106
1, 104128, Control_c, 0, 64, 117
1, 104149, Control_c, 0, 64, 127
1, 104247, Note_on_c, 0, 44, 47
1, 104247, Note_on_c, 0, 56, 43
1, 104268, Control_c, 0, 64, 121
1, 104283, Control_c, 0, 64, 99
1, 104298, Control_c, 0, 64, 83
1, 104313, Control_c, 0, 64, 73
1, 104328, Control_c, 0, 64, 72
1, 104342, Control_c, 0, 64, 76
1, 104357, Control_c, 0, 64, 85
1, 104369, Note_off_c, 0, 44, 57
1, 104369, Note_off_c, 0, 56, 54
1, 104372, Control_c, 0, 64, 97
1, 104387, Control_c, 0, 64, 109
1, 104402, Control_c, 0, 64, 117
1, 104416, Control_c, 0, 64, 125
1, 104431, Control_c, 0, 64, 127
1, 104537, Note_on_c, 0, 58, 50
1, 104542, Note_on_c, 0, 46, 53
1, 104565, Control_c, 0, 64, 102
1, 104580, Control_c, 0, 64, 83
1, 104595, Control_c, 0, 64, 66
1, 104610, Control_c, 0, 64, 0
1, 104624, Control_c, 0, 64, 26
1, 104639, Control_c, 0, 64, 70
1, 104654, Control_c, 0, 64, 84
1, 104668, Control_c, 0, 64, 96
1, 104680, Note_off_c, 0, 77, 52
1, 104683, Control_c, 0, 64, 103
1, 104691, Note_off_c, 0, 58, 57
1, 104697, Note_off_c, 0, 46, 52
1, 104698, Control_c, 0, 64, 107
1, 104713, Control_c, 0, 64, 116
1, 104718, Note_off_c, 0, 68, 38
1, 104722, Note_off_c, 0, 65, 56
1, 104728, Control_c, 0, 64, 127
1, 104986, Note_on_c, 0, 76, 65
1, 104996, Note_on_c, 0, 68, 49
1, 105011, Note_on_c, 0, 47, 40
1, 105019, Note_on_c, 0, 59, 36
1, 105019, Note_on_c, 0, 64, 40
1, 105047, Control_c, 0, 64, 113
1, 105062, Control_c, 0, 64, 95
1, 105077, Control_c, 0, 64, 76
1, 105091, Control_c, 0, 64, 0
1, 105151, Control_c, 0, 64, 36
1, 105165, Control_c, 0, 64, 68
1, 105180, Control_c, 0, 64, 78
1, 105181, Note_off_c, 0, 59, 48
1, 105195, Control_c, 0, 64, 91
1, 105210, Control_c, 0, 64, 101
1, 105225, Control_c, 0, 64, 109
1, 105240, Control_c, 0, 64, 118
1, 105247, Note_off_c, 0, 47, 40
1, 105255, Control_c, 0, 64, 127
1, 105429, Note_on_c, 0, 47, 54
1, 105439, Note_on_c, 0, 35, 47
1, 105511, Note_off_c, 0, 35, 59
1, 105523, Note_off_c, 0, 47, 62
1, 105729, Note_on_c, 0, 52, 52
1, 105738, Note_on_c, 0, 40, 53
1, 105809, Note_off_c, 0, 64, 57
1, 105810, Note_off_c, 0, 68, 58
1, 105845, Note_off_c, 0, 40, 59
1, 105845, Note_off_c, 0, 52, 64
1, 105857, Note_off_c, 0, 76, 38
1, 106100, Note_on_c, 0, 76, 67
1, 106109, Note_on_c, 0, 68, 58
1, 106136, Note_on_c, 0, 56, 44
1, 106136, Control_c, 0, 64, 126
1, 106137, Note_on_c, 0, 44, 41
1, 106139, Note_on_c, 0, 64, 41
1, 106151, Control_c, 0, 64, 97
1, 106166, Control_c, 0, 64, 78
1, 106180, Control_c, 0, 64, 54
1, 106195, Control_c, 0, 64, 0
1, 106225, Control_c, 0, 64, 58
1, 106239, Control_c, 0, 64, 77
1, 106254, Control_c, 0, 64, 91
1, 106269, Control_c, 0, 64, 104
1, 106276, Note_off_c, 0, 56, 46
1, 106280, Note_off_c, 0, 44, 52
1, 106284, Control_c, 0, 64, 112
1, 106299, Control_c, 0, 64, 123
1, 106313, Control_c, 0, 64, 127
1, 106435, Note_on_c, 0, 61, 58
1, 106445, Note_on_c, 0, 49, 51
1, 106496, Note_off_c, 0, 68, 50
1, 106516, Note_off_c, 0, 61, 59
1, 106537, Note_off_c, 0, 49, 58
1, 106538, Note_off_c, 0, 76, 39
1, 106569, Note_off_c, 0, 64, 37
1, 106721, Note_on_c, 0, 76, 72
1, 106734, Note_on_c, 0, 68, 59
1, 106739, Note_on_c, 0, 44, 49
1, 106741, Note_on_c, 0, 56, 45
1, 106749, Note_on_c, 0, 64, 44
1, 106822, Note_off_c, 0, 68, 58
1, 106823, Note_off_c, 0, 44, 61
1, 106824, Note_off_c, 0, 56, 54
1, 106920, Note_off_c, 0, 64, 30
1, 106931, Note_off_c, 0, 76, 39
1, 107148, Note_on_c, 0, 76, 70
1, 107155, Note_on_c, 0, 68, 59
1, 107174, Note_on_c, 0, 64, 52
1, 107175, Note_on_c, 0, 47, 45
1, 107194, Note_on_c, 0, 59, 34
1, 107203, Control_c, 0, 64, 106
1, 107219, Control_c, 0, 64, 88
1, 107234, Control_c, 0, 64, 70
1, 107249, Control_c, 0, 64, 0
1, 107308, Control_c, 0, 64, 68
1, 107323, Control_c, 0, 64, 79
1, 107338, Control_c, 0, 64, 89
1, 107353, Control_c, 0, 64, 98
1, 107367, Control_c, 0, 64, 107
1, 107382, Control_c, 0, 64, 117
1, 107386, Note_off_c, 0, 59, 40
1, 107397, Control_c, 0, 64, 127
1, 107404, Note_off_c, 0, 47, 40
1, 107574, Note_on_c, 0, 61, 46
1, 107586, Note_on_c, 0, 49, 39
1, 107629, Note_off_c, 0, 61, 57
1, 107648, Note_off_c, 0, 49, 57
1, 107834, Note_on_c, 0, 56, 50
1, 107839, Note_on_c, 0, 44, 48
1, 107893, Note_off_c, 0, 56, 56
1, 107897, Note_off_c, 0, 44, 62
1, 108087, Note_on_c, 0, 47, 55
1, 108087, Note_on_c, 0, 59, 47
1, 108087, Control_c, 0, 64, 109
1, 108102, Control_c, 0, 64, 88
1, 108116, Control_c, 0, 64, 70
1, 108131, Control_c, 0, 64, 32
1, 108146, Control_c, 0, 64, 46
1, 108161, Control_c, 0, 64, 70
1, 108173, Note_off_c, 0, 59, 61
1, 108176, Control_c, 0, 64, 82
1, 108191, Note_off_c, 0, 47, 61
1, 108191, Control_c, 0, 64, 94
1, 108206, Control_c, 0, 64, 103
1, 108221, Control_c, 0, 64, 109
1, 108235, Control_c, 0, 64, 116
1, 108250, Control_c, 0, 64, 127
1, 108331, Note_on_c, 0, 42, 53
1, 108334, Note_on_c, 0, 54, 49
1, 108396, Note_off_c, 0, 54, 50
1, 108490, Note_off_c, 0, 42, 53
1, 108556, Note_on_c, 0, 56, 50
1, 108558, Note_on_c, 0, 44, 50
1, 108605, Note_off_c, 0, 56, 60
1, 108720, Note_off_c, 0, 44, 52
1, 108746, Control_c, 0, 64, 102
1, 108760, Control_c, 0, 64, 83
1, 108775, Control_c, 0, 64, 65
1, 108790, Control_c, 0, 64, 0
1, 108793, Note_on_c, 0, 40, 58
1, 108795, Note_on_c, 0, 52, 57
1, 108821, Control_c, 0, 64, 39
1, 108836, Control_c, 0, 64, 73
1, 108851, Control_c, 0, 64, 86
1, 108864, Note_off_c, 0, 52, 63
1, 108865, Control_c, 0, 64, 98
1, 108880, Control_c, 0, 64, 103
1, 108894, Note_off_c, 0, 40, 60
1, 108895, Control_c, 0, 64, 109
1, 108910, Control_c, 0, 64, 115
1, 108925, Control_c, 0, 64, 127
1, 109028, Note_on_c, 0, 49, 53
1, 109032, Note_on_c, 0, 37, 50
1, 109086, Note_off_c, 0, 49, 59
1, 109114, Note_off_c, 0, 37, 63
1, 109259, Note_on_c, 0, 32, 63
1, 109261, Note_on_c, 0, 44, 58
1, 109273, Note_off_c, 0, 68, 58
1, 109281, Note_off_c, 0, 64, 50
1, 109306, Note_off_c, 0, 76, 38
1, 109314, Note_off_c, 0, 44, 57
1, 109322, Note_off_c, 0, 32, 62
1, 109531, Note_on_c, 0, 76, 74
1, 109540, Control_c, 0, 64, 120
1, 109545, Note_on_c, 0, 68, 61
1, 109546, Note_on_c, 0, 35, 58
1, 109548, Note_on_c, 0, 47, 56
1, 109555, Control_c, 0, 64, 97
1, 109564, Note_on_c, 0, 64, 47
1, 109570, Control_c, 0, 64, 78
1, 109584, Control_c, 0, 64, 56
1, 109599, Control_c, 0, 64, 0
1, 109628, Note_off_c, 0, 47, 65
1, 109630, Control_c, 0, 64, 64
1, 109645, Control_c, 0, 64, 77
1, 109654, Note_off_c, 0, 35, 61
1, 109660, Control_c, 0, 64, 89
1, 109675, Control_c, 0, 64, 100
1, 109689, Control_c, 0, 64, 108
1, 109704, Control_c, 0, 64, 116
1, 109719, Control_c, 0, 64, 127
1, 109783, Note_on_c, 0, 30, 61
1, 109790, Note_on_c, 0, 42, 54
1, 109833, Note_off_c, 0, 68, 54
1, 109856, Note_off_c, 0, 42, 56
1, 109892, Note_off_c, 0, 64, 39
1, 109893, Note_off_c, 0, 76, 51
1, 110015, Note_off_c, 0, 30, 40
1, 110047, Note_on_c, 0, 76, 78
1, 110055, Note_on_c, 0, 32, 59
1, 110061, Note_on_c, 0, 68, 65
1, 110072, Note_on_c, 0, 44, 44
1, 110076, Note_on_c, 0, 64, 52
1, 110105, Note_off_c, 0, 44, 58
1, 110119, Note_off_c, 0, 64, 43
1, 110161, Note_off_c, 0, 68, 55
1, 110193, Note_off_c, 0, 32, 57
1, 110247, Note_off_c, 0, 76, 59
1, 110386, Note_on_c, 0, 76, 76
1, 110391, Note_on_c, 0, 28, 58
1, 110392, Note_on_c, 0, 40, 53
1, 110406, Note_on_c, 0, 68, 61
1, 110409, Control_c, 0, 64, 109
1, 110419, Note_on_c, 0, 64, 53
1, 110423, Control_c, 0, 64, 86
1, 110438, Control_c, 0, 64, 64
1, 110453, Control_c, 0, 64, 0
1, 110481, Note_off_c, 0, 28, 62
1, 110483, Control_c, 0, 64, 41
1, 110495, Note_off_c, 0, 40, 62
1, 110498, Control_c, 0, 64, 72
1, 110512, Control_c, 0, 64, 85
1, 110527, Control_c, 0, 64, 100
1, 110542, Control_c, 0, 64, 111
1, 110557, Control_c, 0, 64, 122
1, 110572, Control_c, 0, 64, 127
1, 110712, Note_on_c, 0, 61, 59
1, 110720, Note_on_c, 0, 49, 53
1, 110760, Note_off_c, 0, 76, 64
1, 110766, Note_off_c, 0, 64, 60
1, 110778, Note_off_c, 0, 61, 60
1, 110804, Note_off_c, 0, 49, 61
1, 110830, Note_off_c, 0, 68, 51
1, 110962, Note_on_c, 0, 44, 65
1, 110963, Note_on_c, 0, 56, 60
1, 111035, Note_off_c, 0, 56, 60
1, 111042, Note_off_c, 0, 44, 63
1, 111345, Note_on_c, 0, 47, 49
1, 111348, Note_on_c, 0, 75, 78
1, 111351, Control_c, 0, 64, 105
1, 111359, Note_on_c, 0, 68, 66
1, 111365, Note_on_c, 0, 59, 43
1, 111365, Control_c, 0, 64, 86
1, 111380, Control_c, 0, 64, 68
1, 111381, Note_on_c, 0, 63, 54
1, 111395, Control_c, 0, 64, 0
1, 111440, Control_c, 0, 64, 63
1, 111454, Control_c, 0, 64, 74
1, 111469, Control_c, 0, 64, 83
1, 111484, Control_c, 0, 64, 91
1, 111498, Note_off_c, 0, 59, 60
1, 111499, Control_c, 0, 64, 96
1, 111514, Control_c, 0, 64, 104
1, 111528, Control_c, 0, 64, 112
1, 111536, Note_off_c, 0, 68, 41
1, 111543, Control_c, 0, 64, 121
1, 111547, Note_off_c, 0, 47, 48
1, 111558, Control_c, 0, 64, 127
1, 111702, Note_on_c, 0, 70, 72
1, 111711, Note_on_c, 0, 58, 48
1, 111714, Control_c, 0, 64, 111
1, 111716, Note_on_c, 0, 46, 48
1, 111728, Control_c, 0, 64, 88
1, 111743, Control_c, 0, 64, 68
1, 111758, Control_c, 0, 64, 0
1, 111802, Control_c, 0, 64, 71
1, 111810, Note_off_c, 0, 58, 53
1, 111817, Control_c, 0, 64, 83
1, 111832, Control_c, 0, 64, 96
1, 111847, Control_c, 0, 64, 104
1, 111861, Control_c, 0, 64, 114
1, 111876, Control_c, 0, 64, 127
1, 111888, Note_off_c, 0, 46, 35
1, 111981, Note_on_c, 0, 71, 70
1, 112003, Note_on_c, 0, 44, 49
1, 112011, Control_c, 0, 64, 112
1, 112012, Note_on_c, 0, 56, 50
1, 112026, Control_c, 0, 64, 89
1, 112040, Control_c, 0, 64, 68
1, 112053, Note_off_c, 0, 75, 59
1, 112055, Control_c, 0, 64, 0
1, 112057, Note_off_c, 0, 70, 60
1, 112072, Note_off_c, 0, 63, 43
1, 112098, Note_off_c, 0, 56, 55
1, 112099, Control_c, 0, 64, 67
1, 112114, Control_c, 0, 64, 78
1, 112129, Control_c, 0, 64, 89
1, 112139, Note_off_c, 0, 44, 62
1, 112144, Control_c, 0, 64, 98
1, 112158, Control_c, 0, 64, 106
1, 112173, Control_c, 0, 64, 121
1, 112188, Control_c, 0, 64, 127
1, 112406, Note_on_c, 0, 62, 64
1, 112433, Note_on_c, 0, 34, 41
1, 112433, Control_c, 0, 64, 115
1, 112438, Note_on_c, 0, 46, 38
1, 112448, Control_c, 0, 64, 98
1, 112462, Control_c, 0, 64, 81
1, 112477, Control_c, 0, 64, 47
1, 112484, Note_off_c, 0, 71, 31
1, 112492, Control_c, 0, 64, 0
1, 112581, Control_c, 0, 64, 66
1, 112596, Control_c, 0, 64, 80
1, 112610, Control_c, 0, 64, 95
1, 112624, Note_off_c, 0, 62, 59
1, 112625, Control_c, 0, 64, 110
1, 112640, Control_c, 0, 64, 125
1, 112653, Note_off_c, 0, 34, 54
1, 112655, Control_c, 0, 64, 127
1, 112662, Note_off_c, 0, 46, 51
1, 112942, Note_on_c, 0, 74, 65
1, 112951, Note_on_c, 0, 56, 38
1, 112960, Note_on_c, 0, 62, 30
1, 113054, Note_off_c, 0, 74, 62
1, 113075, Note_off_c, 0, 62, 40
1, 113169, Note_on_c, 0, 75, 68
1, 113186, Note_off_c, 0, 56, 37
1, 113235, Note_off_c, 0, 75, 63
1, 113324, Note_on_c, 0, 74, 65
1, 113333, Note_on_c, 0, 68, 49
1, 113337, Note_on_c, 0, 62, 45
1, 113399, Note_off_c, 0, 74, 61
1, 113462, Note_on_c, 0, 75, 71
1, 113499, Note_off_c, 0, 62, 37
1, 113501, Note_off_c, 0, 68, 38
1, 113539, Note_off_c, 0, 75, 63
1, 113608, Note_on_c, 0, 77, 79
1, 113698, Note_off_c, 0, 77, 59
1, 113937, Note_on_c, 0, 77, 77
1, 113947, Note_on_c, 0, 68, 57
1, 113950, Note_on_c, 0, 62, 54
1, 114027, Note_off_c, 0, 62, 44
1, 114030, Note_off_c, 0, 68, 56
1, 114043, Note_off_c, 0, 77, 53
1, 114277, Note_on_c, 0, 77, 78
1, 114280, Note_on_c, 0, 62, 57
1, 114287, Note_on_c, 0, 56, 49
1, 114346, Note_off_c, 0, 62, 61
1, 114375, Note_off_c, 0, 56, 61
1, 114379, Note_off_c, 0, 77, 57
1, 114693, Note_on_c, 0, 47, 55
1, 114709, Note_on_c, 0, 77, 80
1, 114709, Control_c, 0, 64, 104
1, 114724, Control_c, 0, 64, 85
1, 114739, Control_c, 0, 64, 65
1, 114753, Control_c, 0, 64, 0
1, 114798, Control_c, 0, 64, 53
1, 114812, Control_c, 0, 64, 71
1, 114827, Control_c, 0, 64, 82
1, 114842, Control_c, 0, 64, 96
1, 114843, Note_off_c, 0, 47, 63
1, 114857, Control_c, 0, 64, 114
1, 114872, Control_c, 0, 64, 127
1, 114949, Note_off_c, 0, 77, 52
1, 115068, Note_on_c, 0, 78, 78
1, 115087, Note_on_c, 0, 68, 49
1, 115090, Note_on_c, 0, 63, 46
1, 115099, Note_on_c, 0, 56, 49
1, 115133, Note_off_c, 0, 68, 62
1, 115149, Note_off_c, 0, 63, 59
1, 115163, Note_off_c, 0, 56, 60
1, 115262, Note_on_c, 0, 77, 83
1, 115310, Note_off_c, 0, 78, 55
1, 115437, Note_on_c, 0, 75, 79
1, 115452, Note_on_c, 0, 53, 51
1, 115454, Note_on_c, 0, 63, 52
1, 115464, Note_on_c, 0, 56, 43
1, 115477, Note_off_c, 0, 77, 59
1, 115497, Note_off_c, 0, 63, 60
1, 115514, Note_off_c, 0, 56, 58
1, 115522, Note_off_c, 0, 53, 63
1, 115610, Note_on_c, 0, 68, 77
1, 115644, Note_off_c, 0, 75, 63
1, 115667, Note_off_c, 0, 68, 62
1, 115895, Note_on_c, 0, 41, 53
1, 115916, Control_c, 0, 64, 122
1, 115931, Control_c, 0, 64, 97
1, 115938, Note_on_c, 0, 83, 86
1, 115945, Control_c, 0, 64, 76
1, 115960, Control_c, 0, 64, 0
1, 116021, Control_c, 0, 64, 65
1, 116036, Control_c, 0, 64, 77
1, 116050, Control_c, 0, 64, 89
1, 116065, Control_c, 0, 64, 103
1, 116080, Note_off_c, 0, 41, 55
1, 116080, Control_c, 0, 64, 117
1, 116095, Control_c, 0, 64, 127
1, 116366, Note_on_c, 0, 68, 54
1, 116382, Note_on_c, 0, 63, 46
1, 116397, Note_on_c, 0, 56, 45
1, 116436, Note_off_c, 0, 68, 62
1, 116442, Note_off_c, 0, 63, 61
1, 116453, Note_off_c, 0, 56, 60
1, 116671, Note_on_c, 0, 63, 59
1, 116676, Note_on_c, 0, 53, 54
1, 116677, Note_on_c, 0, 56, 55
1, 116713, Note_off_c, 0, 63, 62
1, 116727, Note_off_c, 0, 56, 59
1, 116728, Note_off_c, 0, 53, 64
1, 116950, Note_off_c, 0, 83, 56
1, 116985, Note_on_c, 0, 46, 68
1, 116998, Control_c, 0, 64, 110
1, 117013, Control_c, 0, 64, 87
1, 117028, Control_c, 0, 64, 64
1, 117043, Control_c, 0, 64, 0
1, 117072, Control_c, 0, 64, 28
1, 117087, Control_c, 0, 64, 71
1, 117102, Control_c, 0, 64, 87
1, 117117, Control_c, 0, 64, 109
1, 117132, Control_c, 0, 64, 127
1, 117139, Note_off_c, 0, 46, 62
1, 117296, Note_on_c, 0, 74, 71
1, 117307, Note_on_c, 0, 53, 53
1, 117321, Note_on_c, 0, 62, 42
1, 117333, Note_on_c, 0, 58, 42
1, 117375, Note_off_c, 0, 53, 60
1, 117382, Note_off_c, 0, 58, 48
1, 117386, Note_off_c, 0, 62, 57
1, 117406, Note_off_c, 0, 74, 61
1, 117461, Note_on_c, 0, 75, 69
1, 117549, Note_off_c, 0, 75, 61
1, 117602, Note_on_c, 0, 74, 75
1, 117605, Note_on_c, 0, 58, 54
1, 117607, Note_on_c, 0, 68, 61
1, 117622, Note_on_c, 0, 62, 49
1, 117647, Note_off_c, 0, 68, 66
1, 117661, Note_off_c, 0, 62, 62
1, 117679, Note_off_c, 0, 58, 63
1, 117691, Note_off_c, 0, 74, 60
1, 117745, Note_on_c, 0, 75, 76
1, 117821, Note_off_c, 0, 75, 62
1, 117894, Note_on_c, 0, 77, 80
1, 117896, Control_c, 0, 64, 120
1, 117903, Note_on_c, 0, 47, 74
1, 117911, Control_c, 0, 64, 92
1, 117926, Control_c, 0, 64, 64
1, 117941, Control_c, 0, 64, 0
1, 117985, Control_c, 0, 64, 69
1, 118000, Control_c, 0, 64, 84
1, 118014, Control_c, 0, 64, 104
1, 118021, Note_off_c, 0, 47, 64
1, 118026, Note_off_c, 0, 77, 60
1, 118029, Control_c, 0, 64, 127
1, 118233, Note_on_c, 0, 77, 82
1, 118245, Note_on_c, 0, 68, 65
1, 118250, Note_on_c, 0, 63, 62
1, 118255, Note_on_c, 0, 56, 54
1, 118305, Note_off_c, 0, 63, 59
1, 118305, Note_off_c, 0, 68, 62
1, 118325, Note_off_c, 0, 56, 62
1, 118347, Note_off_c, 0, 77, 48
1, 118555, Note_on_c, 0, 77, 86
1, 118557, Note_on_c, 0, 53, 61
1, 118558, Note_on_c, 0, 63, 63
1, 118562, Note_on_c, 0, 56, 60
1, 118618, Note_off_c, 0, 63, 62
1, 118630, Note_off_c, 0, 53, 64
1, 118631, Note_off_c, 0, 56, 62
1, 118680, Note_off_c, 0, 77, 57
1, 118905, Note_on_c, 0, 48, 69
1, 118917, Note_on_c, 0, 77, 82
1, 118926, Control_c, 0, 64, 100
1, 118941, Control_c, 0, 64, 76
1, 118956, Control_c, 0, 64, 0
1, 119015, Control_c, 0, 64, 67
1, 119030, Control_c, 0, 64, 83
1, 119044, Note_off_c, 0, 48, 65
1, 119044, Control_c, 0, 64, 103
1, 119059, Control_c, 0, 64, 127
1, 119175, Note_off_c, 0, 77, 50
1, 119269, Note_on_c, 0, 78, 79
1, 119275, Note_on_c, 0, 57, 57
1, 119275, Note_on_c, 0, 63, 66
1, 119277, Note_on_c, 0, 69, 63
1, 119336, Note_off_c, 0, 69, 57
1, 119355, Note_off_c, 0, 63, 62
1, 119358, Note_off_c, 0, 57, 60
1, 119458, Note_on_c, 0, 77, 86
1, 119534, Note_off_c, 0, 78, 45
1, 119619, Note_on_c, 0, 53, 69
1, 119620, Note_on_c, 0, 75, 81
1, 119634, Note_on_c, 0, 57, 69
1, 119662, Note_off_c, 0, 57, 65
1, 119667, Note_off_c, 0, 77, 57
1, 119681, Note_off_c, 0, 53, 66
1, 119808, Note_on_c, 0, 69, 62
1, 119816, Note_on_c, 0, 67, 58
1, 119831, Note_off_c, 0, 75, 62
1, 119836, Note_off_c, 0, 67, 64
1, 119839, Note_off_c, 0, 69, 68
1, 120065, Note_on_c, 0, 41, 68
1, 120129, Note_on_c, 0, 84, 90
1, 120143, Control_c, 0, 64, 100
1, 120158, Control_c, 0, 64, 78
1, 120172, Control_c, 0, 64, 0
1, 120231, Control_c, 0, 64, 47
1, 120246, Control_c, 0, 64, 72
1, 120261, Control_c, 0, 64, 84
1, 120269, Note_off_c, 0, 41, 65
1, 120276, Control_c, 0, 64, 98
1, 120290, Control_c, 0, 64, 111
1, 120305, Control_c, 0, 64, 127
1, 120534, Note_on_c, 0, 69, 70
1, 120541, Note_on_c, 0, 63, 64
1, 120556, Note_on_c, 0, 57, 54
1, 120591, Note_off_c, 0, 69, 63
1, 120592, Note_off_c, 0, 63, 60
1, 120600, Note_off_c, 0, 57, 60
1, 120834, Note_on_c, 0, 63, 78
1, 120842, Note_on_c, 0, 53, 59
1, 120843, Note_on_c, 0, 57, 60
1, 120863, Note_off_c, 0, 63, 64
1, 120897, Note_off_c, 0, 57, 60
1, 120903, Note_off_c, 0, 53, 62
1, 121171, Note_on_c, 0, 46, 68
1, 121188, Control_c, 0, 64, 124
1, 121202, Control_c, 0, 64, 96
1, 121206, Note_on_c, 0, 82, 91
1, 121217, Control_c, 0, 64, 75
1, 121232, Control_c, 0, 64, 0
1, 121254, Note_off_c, 0, 84, 60
1, 121292, Control_c, 0, 64, 62
1, 121307, Control_c, 0, 64, 76
1, 121316, Note_off_c, 0, 46, 62
1, 121321, Control_c, 0, 64, 91
1, 121336, Control_c, 0, 64, 109
1, 121351, Control_c, 0, 64, 127
1, 121564, Note_on_c, 0, 68, 63
1, 121566, Note_on_c, 0, 62, 61
1, 121575, Note_on_c, 0, 58, 52
1, 121599, Note_off_c, 0, 68, 63
1, 121613, Note_off_c, 0, 62, 54
1, 121641, Note_off_c, 0, 58, 59
1, 121865, Note_on_c, 0, 62, 57
1, 121876, Note_on_c, 0, 53, 53
1, 121888, Note_on_c, 0, 58, 42
1, 121907, Note_off_c, 0, 62, 63
1, 121927, Note_off_c, 0, 53, 64
1, 121927, Note_off_c, 0, 58, 65
1, 122186, Note_on_c, 0, 39, 64
1, 122240, Control_c, 0, 64, 114
1, 122249, Note_on_c, 0, 79, 85
1, 122255, Control_c, 0, 64, 87
1, 122258, Note_on_c, 0, 73, 70
1, 122270, Control_c, 0, 64, 64
1, 122274, Note_off_c, 0, 82, 59
1, 122285, Control_c, 0, 64, 0
1, 122329, Control_c, 0, 64, 70
1, 122344, Control_c, 0, 64, 86
1, 122359, Control_c, 0, 64, 107
1, 122363, Note_off_c, 0, 39, 63
1, 122374, Control_c, 0, 64, 127
1, 122413, Note_on_c, 0, 80, 66
1, 122419, Note_off_c, 0, 79, 60
1, 122482, Note_off_c, 0, 80, 57
1, 122515, Note_on_c, 0, 79, 51
1, 122556, Note_off_c, 0, 79, 49
1, 122562, Note_on_c, 0, 67, 48
1, 122565, Note_on_c, 0, 58, 49
1, 122571, Note_on_c, 0, 61, 42
1, 122576, Note_on_c, 0, 80, 60
1, 122601, Note_off_c, 0, 67, 53
1, 122615, Note_off_c, 0, 80, 52
1, 122623, Note_off_c, 0, 58, 55
1, 122651, Note_on_c, 0, 79, 47
1, 122653, Note_off_c, 0, 61, 55
1, 122675, Note_off_c, 0, 79, 58
1, 122687, Note_on_c, 0, 80, 67
1, 122741, Note_off_c, 0, 80, 59
1, 122751, Note_on_c, 0, 79, 62
1, 122789, Note_on_c, 0, 80, 50
1, 122791, Note_off_c, 0, 79, 51
1, 122844, Note_on_c, 0, 58, 48
1, 122851, Note_on_c, 0, 61, 44
1, 122869, Note_on_c, 0, 79, 77
1, 122876, Note_on_c, 0, 51, 51
1, 122902, Note_off_c, 0, 80, 62
1, 122912, Note_off_c, 0, 61, 60
1, 122928, Note_off_c, 0, 58, 62
1, 122928, Note_off_c, 0, 73, 53
1, 122943, Note_off_c, 0, 51, 55
1, 122964, Note_on_c, 0, 77, 85
1, 122973, Note_off_c, 0, 79, 60
1, 123068, Note_on_c, 0, 79, 87
1, 123089, Note_off_c, 0, 77, 59
1, 123261, Note_on_c, 0, 44, 55
1, 123295, Note_on_c, 0, 82, 87
1, 123304, Note_on_c, 0, 73, 73
1, 123316, Control_c, 0, 64, 97
1, 123331, Control_c, 0, 64, 75
1, 123346, Control_c, 0, 64, 0
1, 123356, Note_off_c, 0, 79, 55
1, 123390, Control_c, 0, 64, 57
1, 123405, Control_c, 0, 64, 75
1, 123420, Control_c, 0, 64, 92
1, 123434, Control_c, 0, 64, 118
1, 123441, Note_off_c, 0, 44, 63
1, 123449, Control_c, 0, 64, 127
1, 123492, Note_off_c, 0, 82, 58
1, 123528, Note_off_c, 0, 73, 56
1, 123733, Note_on_c, 0, 66, 55
1, 123741, Note_on_c, 0, 60, 45
1, 123742, Note_on_c, 0, 80, 83
1, 123745, Note_on_c, 0, 56, 44
1, 123750, Note_on_c, 0, 72, 75
1, 123809, Note_off_c, 0, 66, 55
1, 123844, Note_off_c, 0, 60, 53
1, 123894, Note_off_c, 0, 56, 33
1, 123960, Note_on_c, 0, 75, 84
1, 123981, Note_off_c, 0, 80, 37
1, 124100, Note_on_c, 0, 60, 54
1, 124115, Note_on_c, 0, 51, 51
1, 124124, Note_on_c, 0, 56, 42
1, 124160, Note_off_c, 0, 60, 57
1, 124165, Note_on_c, 0, 80, 84
1, 124186, Note_off_c, 0, 56, 60
1, 124206, Note_off_c, 0, 51, 62
1, 124219, Note_off_c, 0, 75, 55
1, 124310, Note_on_c, 0, 78, 82
1, 124346, Note_off_c, 0, 80, 62
1, 124410, Note_off_c, 0, 78, 61
1, 124485, Note_on_c, 0, 37, 59
1, 124499, Note_on_c, 0, 78, 80
1, 124502, Control_c, 0, 64, 117
1, 124506, Note_on_c, 0, 75, 64
1, 124517, Control_c, 0, 64, 88
1, 124532, Control_c, 0, 64, 49
1, 124547, Control_c, 0, 64, 0
1, 124589, Note_off_c, 0, 72, 58
1, 124591, Control_c, 0, 64, 70
1, 124606, Control_c, 0, 64, 86
1, 124609, Note_off_c, 0, 37, 65
1, 124621, Control_c, 0, 64, 105
1, 124636, Control_c, 0, 64, 127
1, 124809, Note_off_c, 0, 75, 64
1, 124812, Note_on_c, 0, 77, 75
1, 124815, Note_on_c, 0, 73, 71
1, 124820, Note_on_c, 0, 61, 57
1, 124833, Note_on_c, 0, 65, 44
1, 124833, Note_on_c, 0, 56, 44
1, 124870, Note_off_c, 0, 65, 51
1, 124899, Note_off_c, 0, 78, 42
1, 124899, Note_off_c, 0, 56, 50
1, 124905, Note_off_c, 0, 61, 52
1, 124936, Note_off_c, 0, 73, 57
1, 124968, Note_on_c, 0, 68, 78
1, 125065, Note_off_c, 0, 68, 61
1, 125134, Note_on_c, 0, 61, 53
1, 125136, Note_on_c, 0, 73, 82
1, 125137, Note_on_c, 0, 53, 49
1, 125146, Note_on_c, 0, 56, 49
1, 125185, Note_off_c, 0, 61, 59
1, 125196, Note_off_c, 0, 53, 63
1, 125200, Note_off_c, 0, 56, 59
1, 125200, Note_off_c, 0, 77, 52
1, 125288, Note_on_c, 0, 72, 78
1, 125319, Note_off_c, 0, 73, 61
1, 125346, Note_off_c, 0, 72, 60
1, 125486, Note_on_c, 0, 42, 54
1, 125543, Note_on_c, 0, 80, 81
1, 125546, Control_c, 0, 64, 99
1, 125557, Note_on_c, 0, 72, 68
1, 125561, Control_c, 0, 64, 78
1, 125577, Control_c, 0, 64, 0
1, 125622, Control_c, 0, 64, 51
1, 125636, Control_c, 0, 64, 72
1, 125651, Control_c, 0, 64, 86
1, 125662, Note_off_c, 0, 72, 51
1, 125662, Note_off_c, 0, 42, 63
1, 125666, Control_c, 0, 64, 101
1, 125681, Control_c, 0, 64, 121
1, 125696, Control_c, 0, 64, 127
1, 125726, Note_off_c, 0, 80, 62
1, 125888, Note_on_c, 0, 78, 80
1, 125900, Note_on_c, 0, 58, 54
1, 125900, Note_on_c, 0, 61, 49
1, 125900, Note_on_c, 0, 70, 66
1, 125922, Note_on_c, 0, 65, 19
1, 125968, Note_off_c, 0, 65, 48
1, 126002, Note_off_c, 0, 61, 55
1, 126018, Note_off_c, 0, 58, 50
1, 126047, Note_on_c, 0, 73, 74
1, 126061, Note_off_c, 0, 78, 56
1, 126128, Note_off_c, 0, 70, 59
1, 126198, Note_on_c, 0, 78, 79
1, 126198, Note_on_c, 0, 58, 42
1, 126200, Note_on_c, 0, 54, 52
1, 126215, Note_on_c, 0, 61, 47
1, 126249, Note_off_c, 0, 73, 57
1, 126252, Note_off_c, 0, 61, 62
1, 126273, Note_off_c, 0, 58, 64
1, 126281, Note_off_c, 0, 54, 61
1, 126350, Note_on_c, 0, 77, 80
1, 126391, Note_off_c, 0, 78, 57
1, 126419, Note_off_c, 0, 77, 58
1, 126553, Note_on_c, 0, 77, 77
1, 126560, Note_on_c, 0, 36, 55
1, 126562, Note_on_c, 0, 70, 70
1, 126577, Control_c, 0, 64, 120
1, 126592, Control_c, 0, 64, 92
1, 126615, Control_c, 0, 64, 70
1, 126630, Control_c, 0, 64, 0
1, 126674, Control_c, 0, 64, 57
1, 126689, Control_c, 0, 64, 75
1, 126704, Control_c, 0, 64, 92
1, 126713, Note_off_c, 0, 36, 62
1, 126718, Control_c, 0, 64, 113
1, 126729, Note_off_c, 0, 70, 50
1, 126733, Control_c, 0, 64, 127
1, 126937, Note_on_c, 0, 75, 75
1, 126938, Note_on_c, 0, 72, 68
1, 126948, Note_on_c, 0, 63, 53
1, 126953, Note_on_c, 0, 54, 56
1, 126976, Note_off_c, 0, 77, 51
1, 127027, Note_off_c, 0, 72, 63
1, 127116, Note_on_c, 0, 73, 80
1, 127120, Note_on_c, 0, 77, 73
1, 127143, Note_off_c, 0, 75, 63
1, 127278, Note_on_c, 0, 80, 84
1, 127278, Note_off_c, 0, 77, 60
1, 127283, Note_on_c, 0, 70, 77
1, 127334, Note_off_c, 0, 73, 26
1, 127337, Note_off_c, 0, 70, 60
1, 127364, Note_off_c, 0, 63, 61
1, 127420, Note_off_c, 0, 54, 61
1, 127456, Note_on_c, 0, 72, 76
1, 127456, Note_on_c, 0, 78, 83
1, 127472, Note_off_c, 0, 80, 61
1, 127507, Note_off_c, 0, 72, 64
1, 127522, Note_off_c, 0, 78, 62
1, 127726, Note_on_c, 0, 69, 74
1, 127728, Note_on_c, 0, 63, 73
1, 127729, Note_on_c, 0, 41, 66
1, 127778, Control_c, 0, 64, 106
1, 127793, Control_c, 0, 64, 85
1, 127807, Control_c, 0, 64, 67
1, 127822, Control_c, 0, 64, 0
1, 127867, Control_c, 0, 64, 68
1, 127881, Control_c, 0, 64, 85
1, 127896, Control_c, 0, 64, 101
1, 127911, Control_c, 0, 64, 113
1, 127915, Note_off_c, 0, 63, 62
1, 127925, Control_c, 0, 64, 127
1, 127939, Note_off_c, 0, 69, 65
1, 127941, Note_off_c, 0, 41, 64
1, 128219, Note_on_c, 0, 63, 58
1, 128220, Note_on_c, 0, 72, 72
1, 128222, Note_on_c, 0, 66, 68
1, 128222, Note_on_c, 0, 69, 70
1, 128290, Control_c, 0, 64, 103
1, 128304, Control_c, 0, 64, 82
1, 128319, Control_c, 0, 64, 63
1, 128334, Control_c, 0, 64, 0
1, 128378, Control_c, 0, 64, 68
1, 128393, Control_c, 0, 64, 80
1, 128408, Note_on_c, 0, 73, 73
1, 128408, Control_c, 0, 64, 90
1, 128413, Note_on_c, 0, 53, 54
1, 128419, Note_off_c, 0, 63, 55
1, 128423, Control_c, 0, 64, 97
1, 128437, Control_c, 0, 64, 104
1, 128443, Note_off_c, 0, 72, 61
1, 128452, Control_c, 0, 64, 117
1, 128467, Control_c, 0, 64, 127
1, 128542, Note_off_c, 0, 73, 52
1, 128581, Note_on_c, 0, 72, 71
1, 128595, Note_on_c, 0, 63, 48
1, 128727, Note_on_c, 0, 73, 77
1, 128743, Note_on_c, 0, 61, 58
1, 128786, Note_off_c, 0, 72, 60
1, 128790, Note_off_c, 0, 61, 54
1, 128863, Note_off_c, 0, 73, 62
1, 129000, Note_on_c, 0, 75, 80
1, 129006, Note_on_c, 0, 60, 53
1, 129024, Control_c, 0, 64, 119
1, 129039, Control_c, 0, 64, 105
1, 129053, Control_c, 0, 64, 92
1, 129068, Control_c, 0, 64, 78
1, 129083, Control_c, 0, 64, 63
1, 129096, Note_off_c, 0, 63, 42
1, 129098, Control_c, 0, 64, 0
1, 129201, Control_c, 0, 64, 43
1, 129216, Control_c, 0, 64, 67
1, 129231, Control_c, 0, 64, 73
1, 129245, Note_off_c, 0, 66, 42
1, 129246, Control_c, 0, 64, 78
1, 129260, Control_c, 0, 64, 81
1, 129275, Control_c, 0, 64, 85
1, 129290, Control_c, 0, 64, 91
1, 129305, Control_c, 0, 64, 97
1, 129319, Control_c, 0, 64, 102
1, 129334, Control_c, 0, 64, 105
1, 129349, Control_c, 0, 64, 109
1, 129364, Control_c, 0, 64, 112
1, 129379, Control_c, 0, 64, 116
1, 129393, Note_on_c, 0, 65, 55
1, 129394, Control_c, 0, 64, 119
1, 129407, Note_off_c, 0, 69, 51
1, 129409, Control_c, 0, 64, 125
1, 129424, Control_c, 0, 64, 127
1, 129454, Note_off_c, 0, 60, 49
1, 129455, Note_off_c, 0, 53, 34
1, 129471, Note_off_c, 0, 75, 56
1, 129741, Note_on_c, 0, 73, 65
1, 129755, Note_on_c, 0, 58, 44
1, 129756, Note_on_c, 0, 70, 54
1, 129758, Control_c, 0, 64, 117
1, 129773, Control_c, 0, 64, 102
1, 129787, Control_c, 0, 64, 87
1, 129802, Control_c, 0, 64, 70
1, 129817, Control_c, 0, 64, 0
1, 129876, Control_c, 0, 64, 65
1, 129891, Control_c, 0, 64, 74
1, 129906, Control_c, 0, 64, 81
1, 129919, Note_off_c, 0, 70, 56
1, 129921, Control_c, 0, 64, 87
1, 129935, Control_c, 0, 64, 93
1, 129950, Control_c, 0, 64, 98
1, 129960, Note_off_c, 0, 65, 35
1, 129965, Control_c, 0, 64, 104
1, 129967, Note_off_c, 0, 73, 51
1, 129980, Control_c, 0, 64, 109
1, 129995, Control_c, 0, 64, 113
1, 130009, Control_c, 0, 64, 118
1, 130024, Control_c, 0, 64, 122
1, 130026, Note_off_c, 0, 58, 51
1, 130039, Control_c, 0, 64, 127
1, 130230, Note_on_c, 0, 73, 64
1, 130238, Note_on_c, 0, 70, 58
1, 130255, Note_on_c, 0, 65, 52
1, 130265, Note_on_c, 0, 58, 40
1, 130276, Control_c, 0, 64, 117
1, 130291, Control_c, 0, 64, 100
1, 130306, Control_c, 0, 64, 83
1, 130320, Control_c, 0, 64, 65
1, 130335, Control_c, 0, 64, 0
1, 130372, Control_c, 0, 64, 61
1, 130388, Control_c, 0, 64, 74
1, 130403, Note_off_c, 0, 65, 59
1, 130403, Control_c, 0, 64, 84
1, 130418, Control_c, 0, 64, 92
1, 130432, Control_c, 0, 64, 95
1, 130447, Control_c, 0, 64, 99
1, 130452, Note_off_c, 0, 70, 51
1, 130462, Control_c, 0, 64, 104
1, 130469, Note_off_c, 0, 73, 56
1, 130477, Control_c, 0, 64, 109
1, 130492, Control_c, 0, 64, 113
1, 130506, Control_c, 0, 64, 115
1, 130521, Control_c, 0, 64, 118
1, 130536, Control_c, 0, 64, 120
1, 130551, Control_c, 0, 64, 122
1, 130565, Control_c, 0, 64, 125
1, 130580, Control_c, 0, 64, 127
1, 130586, Note_off_c, 0, 58, 37
1, 130610, Note_on_c, 0, 73, 64
1, 130615, Note_on_c, 0, 70, 52
1, 130628, Note_on_c, 0, 64, 48
1, 130628, Note_on_c, 0, 67, 57
1, 130699, Control_c, 0, 64, 117
1, 130714, Control_c, 0, 64, 98
1, 130729, Control_c, 0, 64, 80
1, 130744, Control_c, 0, 64, 54
1, 130758, Control_c, 0, 64, 0
1, 130773, Control_c, 0, 64, 23
1, 130778, Note_off_c, 0, 67, 0
1, 130778, Note_off_c, 0, 70, 38
1, 130788, Control_c, 0, 64, 70
1, 130789, Note_off_c, 0, 73, 55
1, 130792, Note_on_c, 0, 67, 35
1, 130796, Note_on_c, 0, 53, 47
1, 130797, Note_off_c, 0, 64, 54
1, 130800, Note_on_c, 0, 75, 68
1, 130802, Note_on_c, 0, 72, 57
1, 130803, Control_c, 0, 64, 83
1, 130818, Control_c, 0, 64, 95
1, 130832, Control_c, 0, 64, 101
1, 130847, Control_c, 0, 64, 103
1, 130862, Control_c, 0, 64, 107
1, 130876, Control_c, 0, 64, 111
1, 130891, Control_c, 0, 64, 116
1, 130895, Note_off_c, 0, 75, 62
1, 130906, Control_c, 0, 64, 121
1, 130914, Note_off_c, 0, 72, 58
1, 130921, Control_c, 0, 64, 124
1, 130936, Control_c, 0, 64, 127
1, 130961, Note_on_c, 0, 73, 71
1, 130963, Note_on_c, 0, 70, 70
1, 130970, Note_on_c, 0, 64, 50
1, 130971, Note_off_c, 0, 53, 45
1, 131080, Note_off_c, 0, 70, 53
1, 131133, Note_on_c, 0, 75, 75
1, 131144, Note_on_c, 0, 72, 62
1, 131147, Note_on_c, 0, 63, 51
1, 131162, Note_off_c, 0, 64, 39
1, 131179, Note_off_c, 0, 73, 57
1, 131239, Note_off_c, 0, 75, 62
1, 131403, Control_c, 0, 64, 117
1, 131415, Note_on_c, 0, 76, 74
1, 131417, Note_on_c, 0, 61, 50
1, 131418, Control_c, 0, 64, 104
1, 131432, Note_on_c, 0, 70, 56
1, 131433, Control_c, 0, 64, 92
1, 131448, Control_c, 0, 64, 79
1, 131463, Control_c, 0, 64, 65
1, 131466, Note_off_c, 0, 63, 51
1, 131478, Control_c, 0, 64, 0
1, 131514, Note_off_c, 0, 67, 44
1, 131583, Note_off_c, 0, 72, 37
1, 131773, Control_c, 0, 64, 41
1, 131788, Control_c, 0, 64, 64
1, 131803, Control_c, 0, 64, 67
1, 131818, Control_c, 0, 64, 68
1, 131833, Control_c, 0, 64, 69
1, 131855, Control_c, 0, 64, 69
1, 131870, Control_c, 0, 64, 70
1, 131885, Control_c, 0, 64, 72
1, 131899, Note_on_c, 0, 66, 50
1, 131899, Control_c, 0, 64, 74
1, 131914, Control_c, 0, 64, 76
1, 131929, Control_c, 0, 64, 78
1, 131944, Control_c, 0, 64, 80
1, 131946, Note_off_c, 0, 70, 28
1, 131959, Control_c, 0, 64, 82
1, 131975, Control_c, 0, 64, 84
1, 131990, Control_c, 0, 64, 86
1, 132004, Control_c, 0, 64, 88
1, 132019, Control_c, 0, 64, 90
1, 132034, Control_c, 0, 64, 92
1, 132049, Control_c, 0, 64, 93
1, 132064, Control_c, 0, 64, 94
1, 132078, Control_c, 0, 64, 95
1, 132080, Note_off_c, 0, 61, 32
1, 132080, Note_off_c, 0, 76, 53
1, 132093, Control_c, 0, 64, 96
1, 132108, Control_c, 0, 64, 96
1, 132122, Control_c, 0, 64, 97
1, 132137, Control_c, 0, 64, 97
1, 132152, Control_c, 0, 64, 98
1, 132182, Control_c, 0, 64, 98
1, 132211, Control_c, 0, 64, 99
1, 132271, Control_c, 0, 64, 99
1, 132478, Control_c, 0, 64, 99
1, 132487, Note_on_c, 0, 75, 41
1, 132490, Note_on_c, 0, 60, 34
1, 132492, Note_on_c, 0, 72, 39
1, 132508, Control_c, 0, 64, 97
1, 132522, Control_c, 0, 64, 94
1, 132537, Control_c, 0, 64, 89
1, 132552, Control_c, 0, 64, 82
1, 132567, Control_c, 0, 64, 69
1, 132582, Control_c, 0, 64, 13
1, 132604, Control_c, 0, 64, 0
1, 132693, Control_c, 0, 64, 56
1, 132708, Control_c, 0, 64, 67
1, 132722, Control_c, 0, 64, 71
1, 132737, Control_c, 0, 64, 75
1, 132752, Control_c, 0, 64, 79
1, 132767, Control_c, 0, 64, 83
1, 132783, Control_c, 0, 64, 86
1, 132798, Control_c, 0, 64, 89
1, 132813, Control_c, 0, 64, 91
1, 132827, Control_c, 0, 64, 93
1, 132842, Control_c, 0, 64, 96
1, 132846, Note_off_c, 0, 72, 34
1, 132857, Control_c, 0, 64, 98
1, 132872, Control_c, 0, 64, 100
1, 132887, Control_c, 0, 64, 101
1, 132900, Note_off_c, 0, 75, 24
1, 132901, Control_c, 0, 64, 103
1, 132902, Note_off_c, 0, 66, 17
1, 132916, Control_c, 0, 64, 104
1, 132922, Note_off_c, 0, 60, 27
1, 132931, Control_c, 0, 64, 105
1, 132945, Control_c, 0, 64, 106
1, 132960, Control_c, 0, 64, 107
1, 132975, Control_c, 0, 64, 108
1, 132990, Control_c, 0, 64, 108
1, 133005, Control_c, 0, 64, 109
1, 133019, Control_c, 0, 64, 109
1, 133049, Control_c, 0, 64, 110
1, 133093, Control_c, 0, 64, 110
1, 133486, Control_c, 0, 64, 110
1, 133493, Note_on_c, 0, 75, 41
1, 133494, Note_on_c, 0, 70, 37
1, 133501, Control_c, 0, 64, 109
1, 133504, Note_on_c, 0, 60, 24
1, 133516, Control_c, 0, 64, 108
1, 133531, Control_c, 0, 64, 105
1, 133534, Note_on_c, 0, 66, 17
1, 133545, Control_c, 0, 64, 101
1, 133560, Control_c, 0, 64, 94
1, 133576, Control_c, 0, 64, 84
1, 133591, Control_c, 0, 64, 72
1, 133606, Control_c, 0, 64, 51
1, 133621, Control_c, 0, 64, 0
1, 133680, Control_c, 0, 64, 46
1, 133695, Control_c, 0, 64, 64
1, 133710, Control_c, 0, 64, 69
1, 133724, Control_c, 0, 64, 73
1, 133739, Control_c, 0, 64, 77
1, 133754, Control_c, 0, 64, 80
1, 133769, Control_c, 0, 64, 83
1, 133784, Control_c, 0, 64, 85
1, 133799, Control_c, 0, 64, 87
1, 133814, Control_c, 0, 64, 90
1, 133829, Control_c, 0, 64, 92
1, 133843, Control_c, 0, 64, 94
1, 133858, Control_c, 0, 64, 95
1, 133873, Control_c, 0, 64, 96
1, 133884, Note_off_c, 0, 66, 39
1, 133886, Note_off_c, 0, 70, 33
1, 133888, Control_c, 0, 64, 97
1, 133902, Control_c, 0, 64, 98
1, 133917, Control_c, 0, 64, 99
1, 133932, Control_c, 0, 64, 100
1, 133947, Control_c, 0, 64, 101
1, 133961, Control_c, 0, 64, 101
1, 133991, Control_c, 0, 64, 102
1, 134006, Control_c, 0, 64, 103
1, 134047, Note_off_c, 0, 75, 38
1, 134050, Control_c, 0, 64, 103
1, 134176, Control_c, 0, 64, 104
1, 134440, Note_off_c, 0, 60, 32
1, 134533, Control_c, 0, 64, 103
1, 134592, Control_c, 0, 64, 103
1, 134599, Note_on_c, 0, 75, 41
1, 134607, Control_c, 0, 64, 102
1, 134622, Control_c, 0, 64, 101
1, 134637, Control_c, 0, 64, 99
1, 134652, Control_c, 0, 64, 97
1, 134666, Control_c, 0, 64, 93
1, 134681, Control_c, 0, 64, 88
1, 134696, Control_c, 0, 64, 82
1, 134711, Control_c, 0, 64, 75
1, 134725, Control_c, 0, 64, 67
1, 134740, Control_c, 0, 64, 51
1, 134755, Control_c, 0, 64, 0
1, 134915, Note_on_c, 0, 77, 56
1, 134995, Note_off_c, 0, 75, 55
1, 135136, Note_on_c, 0, 75, 60
1, 135173, Note_off_c, 0, 77, 50
1, 135337, Note_on_c, 0, 77, 62
1, 135374, Note_off_c, 0, 75, 59
1, 135601, Note_on_c, 0, 78, 66
1, 135636, Note_off_c, 0, 77, 59
1, 135792, Control_c, 0, 64, 56
1, 135807, Control_c, 0, 64, 67
1, 135821, Control_c, 0, 64, 72
1, 135836, Control_c, 0, 64, 77
1, 135851, Control_c, 0, 64, 81
1, 135866, Control_c, 0, 64, 84
1, 135880, Control_c, 0, 64, 88
1, 135895, Control_c, 0, 64, 91
1, 135896, Note_off_c, 0, 78, 60
1, 135910, Control_c, 0, 64, 95
1, 135925, Control_c, 0, 64, 99
1, 135940, Control_c, 0, 64, 102
1, 135955, Control_c, 0, 64, 104
1, 135970, Control_c, 0, 64, 107
1, 135985, Control_c, 0, 64, 109
1, 136000, Control_c, 0, 64, 112
1, 136015, Control_c, 0, 64, 114
1, 136030, Control_c, 0, 64, 115
1, 136044, Control_c, 0, 64, 116
1, 136059, Control_c, 0, 64, 116
1, 136074, Control_c, 0, 64, 117
1, 136089, Control_c, 0, 64, 118
1, 136119, Control_c, 0, 64, 118
1, 136134, Note_on_c, 0, 78, 64
1, 136178, Control_c, 0, 64, 119
1, 136326, Control_c, 0, 64, 119
1, 136348, Note_off_c, 0, 78, 37
1, 136811, Note_on_c, 0, 78, 53
1, 137106, Note_off_c, 0, 78, 37
1, 137750, Control_c, 0, 64, 120
1, 137937, Note_on_c, 0, 78, 50
1, 138995, Control_c, 0, 64, 120
1, 139143, Control_c, 0, 64, 121
1, 139802, Note_on_c, 0, 41, 30
1, 140034, Note_off_c, 0, 41, 44
1, 140140, Note_off_c, 0, 78, 45
1, 140593, Note_on_c, 0, 77, 45
1, 140622, Note_on_c, 0, 63, 22
1, 140624, Note_on_c, 0, 69, 24
1, 140643, Note_on_c, 0, 65, 23
1, 140775, Note_off_c, 0, 63, 42
1, 140788, Note_off_c, 0, 69, 44
1, 140790, Note_off_c, 0, 65, 42
1, 140856, Note_off_c, 0, 77, 34
1, 140924, Note_on_c, 0, 72, 45
1, 141059, Note_off_c, 0, 72, 54
1, 141145, Note_on_c, 0, 75, 46
1, 141150, Note_on_c, 0, 57, 31
1, 141174, Note_on_c, 0, 63, 27
1, 141184, Note_on_c, 0, 65, 25
1, 141249, Note_off_c, 0, 57, 49
1, 141264, Note_off_c, 0, 63, 52
1, 141265, Note_off_c, 0, 65, 45
1, 141338, Note_on_c, 0, 73, 49
1, 141440, Note_off_c, 0, 75, 33
1, 141525, Note_off_c, 0, 73, 41
1, 141537, Control_c, 0, 64, 120
1, 141553, Control_c, 0, 64, 119
1, 141568, Control_c, 0, 64, 113
1, 141589, Note_on_c, 0, 70, 43
1, 141589, Control_c, 0, 64, 105
1, 141594, Note_on_c, 0, 46, 40
1, 141604, Control_c, 0, 64, 94
1, 141619, Control_c, 0, 64, 80
1, 141634, Control_c, 0, 64, 64
1, 141649, Control_c, 0, 64, 0
1, 141708, Control_c, 0, 64, 61
1, 141723, Control_c, 0, 64, 70
1, 141738, Control_c, 0, 64, 76
1, 141753, Control_c, 0, 64, 84
1, 141768, Control_c, 0, 64, 89
1, 141782, Control_c, 0, 64, 94
1, 141797, Control_c, 0, 64, 99
1, 141798, Note_off_c, 0, 46, 39
1, 141812, Control_c, 0, 64, 104
1, 141827, Control_c, 0, 64, 108
1, 141842, Control_c, 0, 64, 111
1, 141856, Control_c, 0, 64, 114
1, 141871, Control_c, 0, 64, 117
1, 141886, Control_c, 0, 64, 119
1, 141901, Control_c, 0, 64, 121
1, 141915, Control_c, 0, 64, 122
1, 141930, Control_c, 0, 64, 124
1, 141945, Control_c, 0, 64, 127
1, 142078, Note_on_c, 0, 61, 30
1, 142083, Note_on_c, 0, 65, 32
1, 142106, Note_on_c, 0, 58, 15
1, 142185, Note_off_c, 0, 58, 37
1, 142209, Note_off_c, 0, 61, 37
1, 142226, Note_off_c, 0, 65, 39
1, 142467, Note_on_c, 0, 53, 28
1, 142471, Note_on_c, 0, 61, 35
1, 142473, Note_on_c, 0, 58, 24
1, 142566, Note_off_c, 0, 61, 54
1, 142595, Note_off_c, 0, 58, 37
1, 142602, Note_off_c, 0, 53, 31
1, 142856, Control_c, 0, 64, 121
1, 142867, Note_on_c, 0, 67, 43
1, 142871, Control_c, 0, 64, 112
1, 142886, Control_c, 0, 64, 102
1, 142901, Control_c, 0, 64, 87
1, 142903, Note_on_c, 0, 48, 21
1, 142916, Control_c, 0, 64, 73
1, 142918, Note_off_c, 0, 70, 30
1, 142930, Control_c, 0, 64, 20
1, 142945, Control_c, 0, 64, 0
1, 143005, Control_c, 0, 64, 62
1, 143020, Control_c, 0, 64, 71
1, 143035, Control_c, 0, 64, 78
1, 143049, Control_c, 0, 64, 85
1, 143064, Control_c, 0, 64, 89
1, 143086, Control_c, 0, 64, 93
1, 143101, Control_c, 0, 64, 97
1, 143116, Control_c, 0, 64, 101
1, 143119, Note_off_c, 0, 48, 40
1, 143130, Control_c, 0, 64, 104
1, 143145, Control_c, 0, 64, 108
1, 143161, Control_c, 0, 64, 111
1, 143176, Control_c, 0, 64, 113
1, 143191, Control_c, 0, 64, 116
1, 143206, Control_c, 0, 64, 119
1, 143221, Control_c, 0, 64, 121
1, 143235, Control_c, 0, 64, 124
1, 143250, Control_c, 0, 64, 127
1, 143265, Control_c, 0, 64, 127
1, 143333, Note_on_c, 0, 64, 31
1, 143342, Note_on_c, 0, 58, 21
1, 143369, Note_on_c, 0, 60, 20
1, 143425, Note_off_c, 0, 58, 37
1, 143431, Note_off_c, 0, 60, 44
1, 143442, Note_off_c, 0, 64, 53
1, 143732, Note_on_c, 0, 52, 22
1, 143734, Note_on_c, 0, 58, 31
1, 143738, Note_on_c, 0, 60, 34
1, 143813, Note_off_c, 0, 58, 56
1, 143813, Note_off_c, 0, 60, 56
1, 143816, Note_off_c, 0, 52, 55
1, 144160, Note_on_c, 0, 41, 36
1, 144177, Control_c, 0, 64, 118
1, 144192, Control_c, 0, 64, 107
1, 144207, Control_c, 0, 64, 95
1, 144222, Control_c, 0, 64, 80
1, 144237, Control_c, 0, 64, 64
1, 144251, Control_c, 0, 64, 0
1, 144296, Control_c, 0, 64, 51
1, 144310, Control_c, 0, 64, 67
1, 144325, Control_c, 0, 64, 74
1, 144340, Control_c, 0, 64, 84
1, 144355, Control_c, 0, 64, 90
1, 144370, Control_c, 0, 64, 96
1, 144381, Note_off_c, 0, 41, 41
1, 144385, Control_c, 0, 64, 101
1, 144392, Note_on_c, 0, 68, 43
1, 144400, Control_c, 0, 64, 107
1, 144415, Control_c, 0, 64, 114
1, 144429, Control_c, 0, 64, 123
1, 144444, Control_c, 0, 64, 127
1, 144495, Note_off_c, 0, 68, 58
1, 144513, Note_off_c, 0, 67, 39
1, 144680, Note_on_c, 0, 53, 16
1, 144699, Note_on_c, 0, 56, 24
1, 144760, Note_on_c, 0, 72, 50
1, 144764, Note_on_c, 0, 60, 38
1, 144778, Note_on_c, 0, 68, 42
1, 144877, Note_off_c, 0, 53, 48
1, 144877, Note_off_c, 0, 56, 40
1, 144880, Note_off_c, 0, 60, 58
1, 144992, Note_on_c, 0, 67, 49
1, 145020, Note_off_c, 0, 68, 53
1, 145044, Note_off_c, 0, 67, 52
1, 145049, Note_off_c, 0, 72, 61
1, 145106, Note_on_c, 0, 56, 42
1, 145144, Note_on_c, 0, 60, 35
1, 145175, Note_on_c, 0, 77, 69
1, 145183, Note_on_c, 0, 68, 49
1, 145191, Note_on_c, 0, 67, 41
1, 145213, Note_on_c, 0, 72, 35
1, 145223, Note_off_c, 0, 68, 64
1, 145243, Note_off_c, 0, 60, 58
1, 145246, Note_off_c, 0, 67, 51
1, 145255, Note_off_c, 0, 72, 52
1, 145261, Note_off_c, 0, 56, 52
1, 145354, Note_off_c, 0, 77, 58
1, 145358, Note_on_c, 0, 65, 54
1, 145401, Note_off_c, 0, 65, 57
1, 145500, Note_on_c, 0, 41, 48
1, 145616, Control_c, 0, 64, 109
1, 145622, Note_on_c, 0, 76, 63
1, 145631, Control_c, 0, 64, 94
1, 145632, Note_on_c, 0, 49, 37
1, 145640, Note_on_c, 0, 73, 51
1, 145646, Control_c, 0, 64, 78
1, 145651, Note_on_c, 0, 67, 48
1, 145661, Control_c, 0, 64, 64
1, 145672, Note_on_c, 0, 55, 37
1, 145675, Control_c, 0, 64, 0
1, 145705, Control_c, 0, 64, 46
1, 145720, Control_c, 0, 64, 68
1, 145735, Note_off_c, 0, 67, 31
1, 145735, Control_c, 0, 64, 78
1, 145748, Control_c, 0, 64, 88
1, 145763, Control_c, 0, 64, 96
1, 145778, Control_c, 0, 64, 104
1, 145780, Note_off_c, 0, 41, 45
1, 145793, Control_c, 0, 64, 113
1, 145807, Note_off_c, 0, 49, 45
1, 145808, Control_c, 0, 64, 125
1, 145822, Control_c, 0, 64, 127
1, 145823, Note_off_c, 0, 55, 40
1, 145837, Note_on_c, 0, 68, 46
1, 145979, Note_on_c, 0, 70, 67
1, 145986, Note_off_c, 0, 76, 39
1, 146001, Note_on_c, 0, 67, 51
1, 146009, Note_on_c, 0, 61, 50
1, 146012, Note_on_c, 0, 53, 39
1, 146012, Note_off_c, 0, 68, 39
1, 146045, Note_off_c, 0, 73, 40
1, 146057, Note_off_c, 0, 53, 45
1, 146060, Note_off_c, 0, 67, 50
1, 146101, Note_off_c, 0, 61, 58
1, 146133, Note_on_c, 0, 65, 55
1, 146173, Note_off_c, 0, 65, 61
1, 146295, Note_on_c, 0, 73, 68
1, 146300, Note_on_c, 0, 58, 53
1, 146316, Note_on_c, 0, 64, 50
1, 146317, Note_off_c, 0, 70, 57
1, 146337, Note_on_c, 0, 61, 24
1, 146370, Note_off_c, 0, 58, 63
1, 146380, Note_off_c, 0, 61, 39
1, 146402, Note_off_c, 0, 64, 52
1, 146444, Note_on_c, 0, 70, 51
1, 146474, Note_off_c, 0, 70, 61
1, 146571, Control_c, 0, 64, 123
1, 146584, Note_on_c, 0, 70, 53
1, 146586, Control_c, 0, 64, 98
1, 146589, Note_on_c, 0, 41, 53
1, 146601, Control_c, 0, 64, 80
1, 146609, Note_on_c, 0, 60, 47
1, 146616, Control_c, 0, 64, 64
1, 146630, Control_c, 0, 64, 0
1, 146636, Note_off_c, 0, 60, 54
1, 146660, Control_c, 0, 64, 67
1, 146675, Control_c, 0, 64, 81
1, 146683, Note_off_c, 0, 41, 64
1, 146690, Control_c, 0, 64, 96
1, 146704, Control_c, 0, 64, 105
1, 146719, Control_c, 0, 64, 110
1, 146730, Note_on_c, 0, 68, 64
1, 146734, Control_c, 0, 64, 117
1, 146749, Note_off_c, 0, 73, 47
1, 146749, Control_c, 0, 64, 127
1, 146754, Note_off_c, 0, 70, 58
1, 146765, Note_off_c, 0, 68, 64
1, 146866, Note_on_c, 0, 72, 65
1, 146889, Note_on_c, 0, 60, 36
1, 146890, Note_on_c, 0, 68, 49
1, 146894, Note_on_c, 0, 53, 35
1, 146925, Note_off_c, 0, 53, 55
1, 146927, Note_off_c, 0, 60, 49
1, 146954, Note_off_c, 0, 68, 51
1, 147011, Note_on_c, 0, 67, 57
1, 147026, Note_off_c, 0, 72, 60
1, 147046, Note_off_c, 0, 67, 62
1, 147124, Note_on_c, 0, 68, 56
1, 147124, Note_on_c, 0, 77, 79
1, 147130, Note_on_c, 0, 56, 49
1, 147139, Note_on_c, 0, 60, 26
1, 147145, Note_off_c, 0, 68, 62
1, 147145, Note_on_c, 0, 72, 59
1, 147169, Note_off_c, 0, 56, 63
1, 147175, Note_off_c, 0, 60, 42
1, 147176, Note_off_c, 0, 72, 67
1, 147223, Poly_aftertouch_c, 0, 67, 0
1, 147226, Note_off_c, 0, 77, 60
1, 147257, Note_on_c, 0, 65, 53
1, 147284, Note_off_c, 0, 65, 55
1, 147336, Note_on_c, 0, 41, 57
1, 147381, Control_c, 0, 64, 113
1, 147392, Note_on_c, 0, 76, 69
1, 147395, Control_c, 0, 64, 91
1, 147399, Note_on_c, 0, 73, 63
1, 147410, Control_c, 0, 64, 69
1, 147411, Note_on_c, 0, 49, 48
1, 147417, Note_on_c, 0, 70, 52
1, 147425, Control_c, 0, 64, 0
1, 147454, Control_c, 0, 64, 55
1, 147467, Note_off_c, 0, 41, 49
1, 147467, Note_off_c, 0, 70, 42
1, 147469, Control_c, 0, 64, 75
1, 147479, Note_on_c, 0, 55, 34
1, 147484, Control_c, 0, 64, 91
1, 147499, Control_c, 0, 64, 109
1, 147509, Note_off_c, 0, 49, 60
1, 147514, Control_c, 0, 64, 115
1, 147517, Note_off_c, 0, 55, 63
1, 147528, Control_c, 0, 64, 124
1, 147543, Control_c, 0, 64, 127
1, 147558, Note_off_c, 0, 76, 64
1, 147563, Note_on_c, 0, 68, 43
1, 147574, Note_on_c, 0, 72, 37
1, 147586, Note_off_c, 0, 73, 62
1, 147596, Note_off_c, 0, 68, 57
1, 147601, Note_off_c, 0, 72, 49
1, 147672, Note_on_c, 0, 70, 76
1, 147679, Note_on_c, 0, 53, 55
1, 147687, Note_on_c, 0, 67, 64
1, 147690, Note_on_c, 0, 61, 54
1, 147722, Note_off_c, 0, 67, 58
1, 147736, Note_off_c, 0, 53, 51
1, 147747, Note_off_c, 0, 61, 53
1, 147798, Note_on_c, 0, 68, 65
1, 147834, Note_off_c, 0, 70, 57
1, 147885, Note_off_c, 0, 68, 63
1, 147944, Note_on_c, 0, 67, 63
1, 147944, Note_on_c, 0, 73, 80
1, 147947, Note_on_c, 0, 58, 61
1, 147965, Note_on_c, 0, 61, 30
1, 147974, Note_off_c, 0, 67, 63
1, 147989, Note_off_c, 0, 58, 65
1, 147998, Note_off_c, 0, 61, 45
1, 148027, Poly_aftertouch_c, 0, 64, 127
1, 148065, Poly_aftertouch_c, 0, 64, 0
1, 148074, Note_on_c, 0, 70, 53
1, 148104, Note_off_c, 0, 73, 56
1, 148122, Note_off_c, 0, 70, 55
1, 148215, Note_on_c, 0, 41, 49
1, 148269, Note_on_c, 0, 48, 44
1, 148277, Note_on_c, 0, 72, 67
1, 148288, Note_on_c, 0, 70, 63
1, 148292, Control_c, 0, 64, 115
1, 148298, Note_on_c, 0, 67, 56
1, 148307, Control_c, 0, 64, 93
1, 148313, Note_on_c, 0, 60, 33
1, 148329, Control_c, 0, 64, 74
1, 148344, Control_c, 0, 64, 0
1, 148349, Note_off_c, 0, 60, 46
1, 148388, Control_c, 0, 64, 66
1, 148403, Control_c, 0, 64, 80
1, 148418, Control_c, 0, 64, 94
1, 148421, Note_off_c, 0, 41, 52
1, 148433, Control_c, 0, 64, 106
1, 148447, Note_off_c, 0, 48, 40
1, 148448, Control_c, 0, 64, 112
1, 148463, Control_c, 0, 64, 124
1, 148472, Note_on_c, 0, 68, 58
1, 148473, Note_off_c, 0, 67, 35
1, 148477, Control_c, 0, 64, 127
1, 148496, Note_off_c, 0, 72, 57
1, 148519, Note_on_c, 0, 65, 35
1, 148534, Note_off_c, 0, 70, 59
1, 148541, Note_off_c, 0, 68, 63
1, 148549, Note_off_c, 0, 65, 49
1, 148656, Note_on_c, 0, 48, 40
1, 148658, Note_on_c, 0, 72, 67
1, 148667, Note_on_c, 0, 65, 41
1, 148668, Note_on_c, 0, 60, 42
1, 148668, Note_on_c, 0, 68, 51
1, 148675, Note_on_c, 0, 53, 39
1, 148681, Note_on_c, 0, 56, 41
1, 148721, Note_off_c, 0, 60, 46
1, 148746, Note_off_c, 0, 56, 47
1, 148746, Note_off_c, 0, 68, 39
1, 148747, Note_off_c, 0, 53, 59
1, 148778, Note_off_c, 0, 48, 63
1, 148796, Note_off_c, 0, 65, 40
1, 148838, Note_off_c, 0, 72, 61
1, 148841, Note_on_c, 0, 73, 74
1, 148849, Note_on_c, 0, 70, 65
1, 148920, Note_off_c, 0, 70, 60
1, 149000, Note_on_c, 0, 72, 72
1, 149005, Note_on_c, 0, 40, 54
1, 149015, Note_on_c, 0, 64, 59
1, 149017, Note_on_c, 0, 68, 54
1, 149026, Control_c, 0, 64, 109
1, 149035, Note_on_c, 0, 52, 43
1, 149038, Note_off_c, 0, 73, 57
1, 149041, Control_c, 0, 64, 87
1, 149056, Control_c, 0, 64, 67
1, 149078, Control_c, 0, 64, 0
1, 149122, Control_c, 0, 64, 70
1, 149137, Control_c, 0, 64, 84
1, 149139, Note_off_c, 0, 64, 0
1, 149148, Note_off_c, 0, 68, 0
1, 149152, Control_c, 0, 64, 99
1, 149162, Note_on_c, 0, 73, 73
1, 149167, Control_c, 0, 64, 111
1, 149168, Note_off_c, 0, 52, 60
1, 149171, Note_on_c, 0, 70, 68
1, 149181, Control_c, 0, 64, 121
1, 149185, Poly_aftertouch_c, 0, 68, 127
1, 149187, Poly_aftertouch_c, 0, 64, 0
1, 149193, Note_off_c, 0, 72, 62
1, 149196, Control_c, 0, 64, 127
1, 149197, Note_off_c, 0, 40, 60
1, 149226, Poly_aftertouch_c, 0, 68, 0
1, 149235, Note_off_c, 0, 70, 62
1, 149235, Note_off_c, 0, 73, 63
1, 149385, Note_on_c, 0, 75, 69
1, 149393, Note_on_c, 0, 68, 41
1, 149406, Note_on_c, 0, 72, 47
1, 149409, Note_on_c, 0, 63, 45
1, 149411, Note_on_c, 0, 39, 45
1, 149418, Control_c, 0, 64, 104
1, 149420, Note_on_c, 0, 51, 41
1, 149433, Control_c, 0, 64, 81
1, 149448, Control_c, 0, 64, 50
1, 149463, Control_c, 0, 64, 0
1, 149480, Note_off_c, 0, 72, 62
1, 149487, Note_off_c, 0, 63, 58
1, 149501, Note_off_c, 0, 68, 60
1, 149506, Control_c, 0, 64, 72
1, 149521, Control_c, 0, 64, 88
1, 149536, Control_c, 0, 64, 110
1, 149547, Note_off_c, 0, 75, 50
1, 149552, Control_c, 0, 64, 127
1, 149575, Note_off_c, 0, 51, 60
1, 149576, Note_off_c, 0, 39, 61
1, 149587, Note_on_c, 0, 70, 62
1, 149603, Note_on_c, 0, 61, 47
1, 149627, Note_off_c, 0, 61, 58
1, 149649, Note_off_c, 0, 70, 56
1, 149741, Note_on_c, 0, 75, 73
1, 149748, Note_on_c, 0, 61, 49
1, 149761, Note_on_c, 0, 70, 64
1, 149766, Note_on_c, 0, 51, 55
1, 149768, Note_on_c, 0, 63, 48
1, 149801, Note_off_c, 0, 61, 54
1, 149819, Note_off_c, 0, 51, 57
1, 149830, Note_off_c, 0, 63, 41
1, 149891, Note_on_c, 0, 68, 65
1, 149912, Note_off_c, 0, 70, 56
1, 149921, Note_on_c, 0, 51, 52
1, 149929, Note_on_c, 0, 60, 46
1, 149933, Note_off_c, 0, 75, 59
1, 149941, Note_off_c, 0, 68, 49
1, 149953, Note_off_c, 0, 60, 55
1, 149959, Note_off_c, 0, 51, 59
1, 150035, Note_on_c, 0, 68, 27
1, 150041, Note_on_c, 0, 75, 84
1, 150053, Note_on_c, 0, 63, 58
1, 150054, Note_on_c, 0, 60, 47
1, 150061, Note_on_c, 0, 51, 55
1, 150082, Note_off_c, 0, 68, 62
1, 150096, Note_off_c, 0, 63, 54
1, 150179, Note_on_c, 0, 67, 65
1, 150191, Note_on_c, 0, 58, 53
1, 150202, Note_off_c, 0, 60, 59
1, 150217, Note_off_c, 0, 75, 56
1, 150224, Note_off_c, 0, 58, 65
1, 150236, Note_off_c, 0, 51, 46
1, 150248, Note_off_c, 0, 67, 58
1, 150287, Note_on_c, 0, 61, 62
1, 150333, Note_on_c, 0, 67, 62
1, 150395, Note_off_c, 0, 61, 58
1, 150435, Control_c, 0, 64, 126
1, 150445, Note_on_c, 0, 39, 55
1, 150450, Control_c, 0, 64, 94
1, 150451, Note_on_c, 0, 75, 74
1, 150464, Control_c, 0, 64, 66
1, 150479, Control_c, 0, 64, 0
1, 150517, Note_off_c, 0, 67, 57
1, 150524, Control_c, 0, 64, 68
1, 150538, Control_c, 0, 64, 82
1, 150546, Note_off_c, 0, 39, 62
1, 150553, Control_c, 0, 64, 103
1, 150576, Control_c, 0, 64, 118
1, 150591, Control_c, 0, 64, 127
1, 150664, Note_off_c, 0, 75, 63
1, 150665, Note_on_c, 0, 65, 59
1, 150695, Note_on_c, 0, 51, 55
1, 150722, Note_off_c, 0, 65, 61
1, 150829, Note_on_c, 0, 73, 67
1, 150845, Note_on_c, 0, 65, 58
1, 150846, Note_off_c, 0, 51, 57
1, 150853, Note_on_c, 0, 58, 59
1, 150876, Note_off_c, 0, 65, 65
1, 150928, Note_off_c, 0, 73, 54
1, 150991, Note_on_c, 0, 72, 64
1, 151003, Note_on_c, 0, 63, 64
1, 151070, Poly_aftertouch_c, 0, 67, 127
1, 151079, Note_off_c, 0, 63, 40
1, 151097, Poly_aftertouch_c, 0, 67, 0
1, 151140, Note_on_c, 0, 70, 73
1, 151154, Note_on_c, 0, 61, 65
1, 151158, Note_on_c, 0, 65, 54
1, 151163, Note_off_c, 0, 72, 39
1, 151188, Note_off_c, 0, 65, 67
1, 151269, Note_off_c, 0, 70, 53
1, 151284, Note_on_c, 0, 63, 62
1, 151286, Note_on_c, 0, 72, 68
1, 151294, Note_off_c, 0, 61, 59
1, 151317, Note_on_c, 0, 67, 46
1, 151326, Note_off_c, 0, 63, 64
1, 151345, Note_off_c, 0, 67, 52
1, 151432, Note_off_c, 0, 58, 37
1, 151484, Note_on_c, 0, 61, 55
1, 151490, Note_on_c, 0, 56, 50
1, 151492, Note_on_c, 0, 68, 58
1, 151493, Note_on_c, 0, 65, 45
1, 151502, Control_c, 0, 64, 118
1, 151517, Control_c, 0, 64, 93
1, 151529, Note_off_c, 0, 72, 61
1, 151532, Control_c, 0, 64, 74
1, 151547, Control_c, 0, 64, 0
1, 151587, Note_off_c, 0, 61, 55
1, 151591, Control_c, 0, 64, 41
1, 151606, Control_c, 0, 64, 70
1, 151620, Control_c, 0, 64, 84
1, 151635, Control_c, 0, 64, 95
1, 151650, Control_c, 0, 64, 103
1, 151652, Note_off_c, 0, 68, 54
1, 151654, Note_on_c, 0, 60, 55
1, 151656, Note_on_c, 0, 63, 67
1, 151665, Control_c, 0, 64, 110
1, 151680, Control_c, 0, 64, 117
1, 151691, Note_off_c, 0, 60, 61
1, 151694, Control_c, 0, 64, 127
1, 151695, Note_off_c, 0, 65, 57
1, 151708, Note_off_c, 0, 63, 61
1, 151788, Note_on_c, 0, 60, 61
1, 151801, Note_on_c, 0, 63, 70
1, 151865, Note_off_c, 0, 60, 57
1, 151868, Note_off_c, 0, 56, 53
1, 151923, Note_on_c, 0, 62, 68
1, 151924, Note_on_c, 0, 59, 55
1, 151929, Note_on_c, 0, 53, 57
1, 151930, Note_off_c, 0, 63, 50
1, 151953, Note_off_c, 0, 59, 64
1, 151976, Note_off_c, 0, 62, 59
1, 151977, Note_off_c, 0, 53, 65
1, 152070, Note_on_c, 0, 59, 59
1, 152080, Note_on_c, 0, 62, 67
1, 152094, Note_on_c, 0, 53, 52
1, 152187, Note_off_c, 0, 62, 54
1, 152193, Note_on_c, 0, 61, 71
1, 152196, Note_on_c, 0, 56, 62
1, 152198, Note_off_c, 0, 53, 61
1, 152206, Note_on_c, 0, 52, 65
1, 152215, Note_off_c, 0, 59, 52
1, 152231, Note_off_c, 0, 56, 63
1, 152240, Note_off_c, 0, 52, 67
1, 152245, Note_off_c, 0, 61, 61
1, 152323, Note_on_c, 0, 56, 66
1, 152324, Note_on_c, 0, 61, 73
1, 152339, Note_on_c, 0, 52, 58
1, 152385, Control_c, 0, 64, 94
1, 152399, Control_c, 0, 64, 72
1, 152413, Note_off_c, 0, 56, 56
1, 152414, Control_c, 0, 64, 0
1, 152421, Note_off_c, 0, 61, 59
1, 152443, Control_c, 0, 64, 43
1, 152451, Note_on_c, 0, 60, 69
1, 152458, Control_c, 0, 64, 73
1, 152466, Note_on_c, 0, 51, 68
1, 152473, Control_c, 0, 64, 92
1, 152474, Note_off_c, 0, 52, 63
1, 152487, Control_c, 0, 64, 110
1, 152502, Control_c, 0, 64, 118
1, 152514, Note_off_c, 0, 51, 61
1, 152516, Control_c, 0, 64, 127
1, 152523, Note_off_c, 0, 60, 60
1, 152581, Note_on_c, 0, 60, 65
1, 152600, Note_on_c, 0, 51, 71
1, 152637, Note_off_c, 0, 51, 58
1, 152723, Note_on_c, 0, 49, 68
1, 152728, Note_on_c, 0, 65, 70
1, 152741, Note_on_c, 0, 37, 59
1, 152755, Note_off_c, 0, 49, 62
1, 152755, Note_off_c, 0, 60, 58
1, 152775, Note_off_c, 0, 37, 63
1, 152868, Note_on_c, 0, 48, 75
1, 152868, Note_on_c, 0, 63, 78
1, 152880, Note_on_c, 0, 36, 68
1, 152892, Note_off_c, 0, 65, 62
1, 152916, Note_off_c, 0, 48, 63
1, 152925, Note_off_c, 0, 36, 64
1, 152928, Note_off_c, 0, 63, 63
1, 153003, Note_on_c, 0, 70, 78
1, 153009, Note_on_c, 0, 67, 65
1, 153010, Note_on_c, 0, 61, 66
1, 153010, Note_on_c, 0, 46, 73
1, 153019, Note_on_c, 0, 34, 65
1, 153037, Note_off_c, 0, 61, 65
1, 153044, Note_off_c, 0, 67, 61
1, 153051, Note_off_c, 0, 46, 57
1, 153064, Note_off_c, 0, 70, 62
1, 153100, Note_off_c, 0, 34, 60
1, 153196, Note_on_c, 0, 32, 69
1, 153220, Control_c, 0, 64, 112
1, 153223, Note_on_c, 0, 72, 74
1, 153236, Control_c, 0, 64, 86
1, 153238, Note_on_c, 0, 70, 71
1, 153242, Note_on_c, 0, 60, 62
1, 153251, Control_c, 0, 64, 63
1, 153253, Note_on_c, 0, 44, 66
1, 153265, Control_c, 0, 64, 0
1, 153325, Control_c, 0, 64, 64
1, 153340, Control_c, 0, 64, 81
1, 153350, Note_off_c, 0, 72, 60
1, 153354, Control_c, 0, 64, 100
1, 153366, Note_off_c, 0, 32, 62
1, 153369, Control_c, 0, 64, 127
1, 153390, Note_off_c, 0, 44, 63
1, 153398, Note_on_c, 0, 63, 68
1, 153408, Note_off_c, 0, 70, 61
1, 153423, Note_off_c, 0, 60, 41
1, 153424, Note_off_c, 0, 63, 67
1, 153580, Note_on_c, 0, 75, 84
1, 153584, Note_on_c, 0, 51, 56
1, 153590, Note_on_c, 0, 72, 63
1, 153592, Note_on_c, 0, 63, 73
1, 153594, Note_on_c, 0, 60, 58
1, 153638, Note_off_c, 0, 60, 54
1, 153642, Note_off_c, 0, 51, 51
1, 153657, Note_off_c, 0, 63, 37
1, 153715, Note_on_c, 0, 70, 70
1, 153715, Note_off_c, 0, 75, 61
1, 153745, Note_off_c, 0, 72, 63
1, 153753, Note_off_c, 0, 70, 60
1, 153842, Note_on_c, 0, 51, 42
1, 153854, Note_on_c, 0, 80, 85
1, 153865, Note_on_c, 0, 70, 72
1, 153866, Note_on_c, 0, 75, 74
1, 153867, Note_on_c, 0, 56, 53
1, 153894, Note_off_c, 0, 70, 66
1, 153896, Note_on_c, 0, 63, 62
1, 153898, Note_on_c, 0, 60, 48
1, 153921, Note_off_c, 0, 63, 63
1, 153927, Note_off_c, 0, 60, 55
1, 153942, Note_off_c, 0, 56, 62
1, 153948, Note_off_c, 0, 51, 60
1, 153988, Note_off_c, 0, 80, 54
1, 154002, Note_on_c, 0, 72, 62
1, 154016, Note_off_c, 0, 75, 59
1, 154031, Note_off_c, 0, 72, 66
1, 154085, Poly_aftertouch_c, 0, 68, 0
1, 154127, Note_on_c, 0, 44, 53
1, 154178, Note_on_c, 0, 52, 50
1, 154209, Note_on_c, 0, 79, 81
1, 154222, Control_c, 0, 64, 99
1, 154225, Note_on_c, 0, 76, 72
1, 154237, Control_c, 0, 64, 76
1, 154240, Note_on_c, 0, 73, 64
1, 154243, Note_on_c, 0, 58, 50
1, 154252, Control_c, 0, 64, 0
1, 154282, Note_off_c, 0, 73, 41
1, 154296, Control_c, 0, 64, 66
1, 154318, Control_c, 0, 64, 84
1, 154321, Note_off_c, 0, 44, 63
1, 154334, Control_c, 0, 64, 109
1, 154335, Note_off_c, 0, 52, 64
1, 154349, Control_c, 0, 64, 127
1, 154371, Note_off_c, 0, 58, 63
1, 154410, Note_off_c, 0, 79, 59
1, 154412, Note_on_c, 0, 75, 58
1, 154422, Note_off_c, 0, 76, 60
1, 154428, Note_on_c, 0, 72, 40
1, 154454, Note_off_c, 0, 75, 62
1, 154472, Note_off_c, 0, 72, 61
1, 154540, Note_on_c, 0, 73, 75
1, 154550, Note_on_c, 0, 70, 72
1, 154556, Note_on_c, 0, 58, 46
1, 154563, Note_on_c, 0, 61, 60
1, 154564, Note_on_c, 0, 52, 61
1, 154596, Note_off_c, 0, 70, 56
1, 154630, Note_off_c, 0, 52, 64
1, 154632, Note_off_c, 0, 58, 62
1, 154636, Note_off_c, 0, 61, 59
1, 154642, Poly_aftertouch_c, 0, 55, 127
1, 154675, Poly_aftertouch_c, 0, 55, 0
1, 154678, Note_on_c, 0, 72, 68
1, 154685, Note_on_c, 0, 68, 58
1, 154687, Note_off_c, 0, 73, 51
1, 154720, Note_off_c, 0, 68, 57
1, 154808, Note_on_c, 0, 76, 81
1, 154815, Note_on_c, 0, 64, 64
1, 154818, Note_on_c, 0, 55, 47
1, 154821, Note_on_c, 0, 67, 64
1, 154825, Note_on_c, 0, 70, 64
1, 154830, Note_on_c, 0, 58, 59
1, 154834, Note_off_c, 0, 72, 62
1, 154842, Note_on_c, 0, 61, 32
1, 154844, Note_off_c, 0, 64, 66
1, 154852, Note_off_c, 0, 70, 66
1, 154860, Note_off_c, 0, 58, 66
1, 154864, Note_off_c, 0, 55, 65
1, 154864, Note_off_c, 0, 67, 48
1, 154875, Note_off_c, 0, 61, 44
1, 154945, Note_on_c, 0, 70, 64
1, 154949, Note_on_c, 0, 73, 64
1, 154975, Note_off_c, 0, 70, 62
1, 155024, Note_off_c, 0, 73, 61
1, 155092, Note_on_c, 0, 73, 63
1, 155095, Note_on_c, 0, 32, 66
1, 155097, Control_c, 0, 64, 94
1, 155100, Note_on_c, 0, 44, 60
1, 155110, Note_on_c, 0, 63, 67
1, 155111, Control_c, 0, 64, 70
1, 155126, Control_c, 0, 64, 0
1, 155127, Note_off_c, 0, 76, 60
1, 155139, Note_off_c, 0, 63, 58
1, 155157, Control_c, 0, 64, 66
1, 155172, Control_c, 0, 64, 86
1, 155178, Note_off_c, 0, 32, 63
1, 155187, Control_c, 0, 64, 114
1, 155191, Note_off_c, 0, 44, 63
1, 155202, Control_c, 0, 64, 127
1, 155247, Note_on_c, 0, 72, 65
1, 155274, Note_off_c, 0, 73, 54
1, 155283, Note_off_c, 0, 72, 61
1, 155348, Note_on_c, 0, 60, 75
1, 155350, Note_on_c, 0, 75, 78
1, 155361, Note_on_c, 0, 72, 77
1, 155369, Note_on_c, 0, 51, 51
1, 155381, Note_off_c, 0, 60, 57
1, 155408, Note_off_c, 0, 51, 60
1, 155477, Note_on_c, 0, 73, 66
1, 155484, Note_on_c, 0, 70, 54
1, 155498, Note_off_c, 0, 72, 58
1, 155498, Note_off_c, 0, 75, 59
1, 155531, Note_off_c, 0, 73, 63
1, 155581, Note_off_c, 0, 70, 0
1, 155581, Note_on_c, 0, 70, 13
1, 155596, Note_on_c, 0, 56, 61
1, 155598, Note_on_c, 0, 80, 85
1, 155602, Note_on_c, 0, 60, 47
1, 155603, Note_on_c, 0, 63, 60
1, 155606, Note_on_c, 0, 51, 46
1, 155610, Note_on_c, 0, 73, 53
1, 155611, Note_on_c, 0, 75, 71
1, 155622, Note_off_c, 0, 60, 62
1, 155625, Note_off_c, 0, 63, 62
1, 155640, Note_off_c, 0, 73, 59
1, 155641, Note_off_c, 0, 51, 61
1, 155644, Note_off_c, 0, 56, 63
1, 155648, Note_off_c, 0, 70, 60
1, 155723, Note_off_c, 0, 80, 49
1, 155745, Note_off_c, 0, 75, 61
1, 155746, Note_on_c, 0, 68, 42
1, 155749, Note_on_c, 0, 72, 46
1, 155773, Note_off_c, 0, 72, 56
1, 155775, Note_off_c, 0, 68, 54
1, 155812, Note_on_c, 0, 44, 51
1, 155860, Control_c, 0, 64, 98
1, 155870, Note_on_c, 0, 52, 55
1, 155875, Control_c, 0, 64, 75
1, 155877, Note_on_c, 0, 79, 84
1, 155888, Note_on_c, 0, 76, 72
1, 155890, Control_c, 0, 64, 0
1, 155905, Note_on_c, 0, 58, 59
1, 155910, Note_on_c, 0, 73, 52
1, 155920, Control_c, 0, 64, 45
1, 155933, Note_off_c, 0, 44, 62
1, 155936, Control_c, 0, 64, 76
1, 155939, Note_off_c, 0, 73, 52
1, 155951, Control_c, 0, 64, 95
1, 155955, Note_off_c, 0, 52, 64
1, 155965, Control_c, 0, 64, 127
1, 155990, Note_off_c, 0, 58, 61
1, 156010, Note_off_c, 0, 79, 60
1, 156025, Note_off_c, 0, 76, 62
1, 156028, Note_on_c, 0, 72, 49
1, 156039, Note_on_c, 0, 75, 50
1, 156062, Note_off_c, 0, 75, 63
1, 156072, Note_off_c, 0, 72, 62
1, 156138, Note_on_c, 0, 73, 83
1, 156145, Note_on_c, 0, 70, 74
1, 156156, Note_on_c, 0, 58, 55
1, 156159, Note_on_c, 0, 61, 61
1, 156164, Note_on_c, 0, 52, 56
1, 156165, Note_on_c, 0, 55, 32
1, 156199, Note_off_c, 0, 70, 60
1, 156201, Note_off_c, 0, 61, 56
1, 156207, Note_off_c, 0, 55, 48
1, 156208, Note_off_c, 0, 52, 61
1, 156215, Note_off_c, 0, 58, 61
1, 156273, Note_off_c, 0, 73, 59
1, 156274, Note_on_c, 0, 72, 65
1, 156300, Note_on_c, 0, 68, 29
1, 156337, Note_off_c, 0, 68, 52
1, 156419, Note_off_c, 0, 72, 36
1, 156423, Note_on_c, 0, 76, 86
1, 156434, Note_on_c, 0, 55, 58
1, 156434, Note_on_c, 0, 64, 61
1, 156439, Note_on_c, 0, 58, 59
1, 156440, Note_on_c, 0, 70, 62
1, 156444, Note_on_c, 0, 61, 53
1, 156450, Note_on_c, 0, 67, 51
1, 156466, Note_off_c, 0, 64, 66
1, 156472, Note_off_c, 0, 61, 63
1, 156472, Note_off_c, 0, 70, 60
1, 156478, Note_off_c, 0, 67, 52
1, 156479, Note_off_c, 0, 55, 64
1, 156483, Note_off_c, 0, 58, 64
1, 156568, Note_on_c, 0, 70, 57
1, 156570, Note_on_c, 0, 73, 64
1, 156589, Note_off_c, 0, 70, 62
1, 156607, Note_off_c, 0, 73, 62
1, 156634, Note_off_c, 0, 76, 64
1, 156741, Note_on_c, 0, 32, 65
1, 156743, Control_c, 0, 64, 108
1, 156747, Note_on_c, 0, 44, 58
1, 156747, Note_on_c, 0, 68, 72
1, 156749, Note_on_c, 0, 72, 72
1, 156758, Control_c, 0, 64, 84
1, 156767, Note_on_c, 0, 63, 63
1, 156773, Control_c, 0, 64, 63
1, 156785, Note_off_c, 0, 63, 64
1, 156787, Control_c, 0, 64, 0
1, 156802, Control_c, 0, 64, 36
1, 156817, Note_off_c, 0, 68, 64
1, 156817, Control_c, 0, 64, 75
1, 156830, Note_off_c, 0, 72, 65
1, 156831, Control_c, 0, 64, 97
1, 156846, Control_c, 0, 64, 127
1, 156847, Note_off_c, 0, 32, 62
1, 156860, Note_off_c, 0, 44, 63
1, 156920, Note_on_c, 0, 73, 75
1, 156924, Note_on_c, 0, 70, 69
1, 156941, Note_off_c, 0, 70, 67
1, 156997, Note_off_c, 0, 73, 54
1, 157088, Note_on_c, 0, 51, 58
1, 157094, Note_on_c, 0, 75, 81
1, 157104, Note_on_c, 0, 63, 60
1, 157107, Note_on_c, 0, 72, 70
1, 157108, Note_on_c, 0, 60, 57
1, 157122, Note_on_c, 0, 56, 39
1, 157148, Note_off_c, 0, 72, 54
1, 157160, Note_off_c, 0, 56, 63
1, 157161, Note_off_c, 0, 51, 61
1, 157165, Note_off_c, 0, 60, 61
1, 157174, Note_off_c, 0, 63, 62
1, 157242, Note_off_c, 0, 75, 62
1, 157252, Note_on_c, 0, 77, 82
1, 157259, Note_on_c, 0, 73, 76
1, 157309, Note_off_c, 0, 73, 53
1, 157328, Note_on_c, 0, 60, 45
1, 157352, Note_on_c, 0, 59, 30
1, 157385, Note_off_c, 0, 59, 52
1, 157400, Note_on_c, 0, 63, 63
1, 157400, Note_on_c, 0, 75, 90
1, 157403, Note_on_c, 0, 72, 79
1, 157406, Note_on_c, 0, 68, 75
1, 157429, Note_off_c, 0, 77, 59
1, 157432, Note_off_c, 0, 68, 67
1, 157457, Note_off_c, 0, 63, 63
1, 157459, Note_off_c, 0, 60, 63
1, 157465, Note_off_c, 0, 72, 61
1, 157523, Note_off_c, 0, 75, 58
1, 157537, Note_on_c, 0, 77, 87
1, 157539, Note_on_c, 0, 73, 78
1, 157579, Note_off_c, 0, 73, 56
1, 157719, Note_off_c, 0, 77, 58
1, 157724, Note_on_c, 0, 51, 57
1, 157726, Note_on_c, 0, 78, 82
1, 157728, Note_on_c, 0, 39, 55
1, 157730, Note_on_c, 0, 46, 58
1, 157739, Note_on_c, 0, 75, 72
1, 157744, Control_c, 0, 64, 104
1, 157747, Note_on_c, 0, 66, 65
1, 157759, Control_c, 0, 64, 78
1, 157774, Control_c, 0, 64, 0
1, 157803, Note_off_c, 0, 66, 59
1, 157818, Control_c, 0, 64, 44
1, 157833, Control_c, 0, 64, 79
1, 157848, Control_c, 0, 64, 104
1, 157854, Note_off_c, 0, 75, 61
1, 157862, Control_c, 0, 64, 127
1, 157871, Note_off_c, 0, 51, 59
1, 157881, Note_off_c, 0, 39, 62
1, 157886, Note_off_c, 0, 46, 62
1, 157907, Note_on_c, 0, 77, 73
1, 157924, Note_off_c, 0, 78, 58
1, 157995, Note_off_c, 0, 77, 52
1, 158039, Note_on_c, 0, 78, 83
1, 158043, Note_on_c, 0, 60, 63
1, 158043, Note_on_c, 0, 75, 73
1, 158046, Note_on_c, 0, 51, 62
1, 158046, Note_on_c, 0, 66, 77
1, 158078, Note_on_c, 0, 54, 38
1, 158080, Note_off_c, 0, 66, 67
1, 158094, Note_on_c, 0, 58, 25
1, 158115, Note_off_c, 0, 54, 49
1, 158121, Note_off_c, 0, 60, 56
1, 158125, Note_off_c, 0, 51, 59
1, 158131, Note_off_c, 0, 58, 51
1, 158168, Note_off_c, 0, 75, 58
1, 158176, Note_on_c, 0, 73, 72
1, 158184, Note_off_c, 0, 78, 57
1, 158273, Note_off_c, 0, 73, 58
1, 158305, Note_on_c, 0, 78, 86
1, 158309, Note_on_c, 0, 66, 74
1, 158321, Note_on_c, 0, 58, 60
1, 158321, Note_on_c, 0, 60, 52
1, 158322, Note_on_c, 0, 72, 75
1, 158333, Note_off_c, 0, 66, 68
1, 158345, Note_off_c, 0, 72, 71
1, 158352, Note_on_c, 0, 63, 31
1, 158362, Note_off_c, 0, 60, 62
1, 158374, Note_off_c, 0, 58, 61
1, 158386, Note_off_c, 0, 63, 46
1, 158417, Poly_aftertouch_c, 0, 75, 0
1, 158437, Note_on_c, 0, 70, 65
1, 158446, Note_off_c, 0, 78, 58
1, 158476, Note_off_c, 0, 70, 58
1, 158549, Note_on_c, 0, 63, 70
1, 158585, Note_on_c, 0, 69, 68
1, 158615, Note_off_c, 0, 63, 62
1, 158617, Note_on_c, 0, 41, 69
1, 158626, Control_c, 0, 64, 94
1, 158641, Control_c, 0, 64, 70
1, 158656, Control_c, 0, 64, 0
1, 158666, Note_on_c, 0, 78, 85
1, 158696, Note_off_c, 0, 69, 65
1, 158700, Control_c, 0, 64, 73
1, 158704, Note_off_c, 0, 41, 66
1, 158715, Control_c, 0, 64, 92
1, 158730, Control_c, 0, 64, 124
1, 158745, Control_c, 0, 64, 127
1, 158838, Note_on_c, 0, 53, 63
1, 158886, Note_off_c, 0, 78, 58
1, 158927, Note_off_c, 0, 53, 63
1, 158981, Note_on_c, 0, 77, 82
1, 158982, Note_on_c, 0, 60, 59
1, 159131, Note_on_c, 0, 72, 84
1, 159139, Note_on_c, 0, 63, 59
1, 159161, Note_off_c, 0, 77, 57
1, 159316, Note_on_c, 0, 66, 66
1, 159317, Note_off_c, 0, 60, 36
1, 159322, Note_on_c, 0, 75, 80
1, 159325, Note_off_c, 0, 63, 64
1, 159327, Note_on_c, 0, 69, 73
1, 159343, Note_off_c, 0, 72, 59
1, 159355, Note_off_c, 0, 66, 65
1, 159386, Note_off_c, 0, 69, 59
1, 159427, Note_on_c, 0, 53, 52
1, 159480, Note_on_c, 0, 73, 78
1, 159492, Note_on_c, 0, 65, 70
1, 159500, Note_off_c, 0, 53, 42
1, 159518, Note_off_c, 0, 75, 64
1, 159535, Note_off_c, 0, 65, 53
1, 159544, Note_off_c, 0, 73, 62
1, 159663, Note_on_c, 0, 70, 75
1, 159665, Note_on_c, 0, 58, 67
1, 159665, Note_on_c, 0, 65, 66
1, 159680, Note_on_c, 0, 61, 53
1, 159738, Control_c, 0, 64, 100
1, 159752, Control_c, 0, 64, 73
1, 159758, Note_off_c, 0, 65, 64
1, 159761, Note_off_c, 0, 61, 56
1, 159767, Control_c, 0, 64, 0
1, 159797, Control_c, 0, 64, 25
1, 159802, Note_on_c, 0, 54, 60
1, 159811, Note_on_c, 0, 63, 64
1, 159812, Control_c, 0, 64, 71
1, 159826, Control_c, 0, 64, 88
1, 159831, Note_off_c, 0, 58, 62
1, 159841, Control_c, 0, 64, 111
1, 159856, Control_c, 0, 64, 127
1, 159868, Note_off_c, 0, 54, 61
1, 159905, Note_off_c, 0, 63, 59
1, 159943, Note_on_c, 0, 53, 70
1, 159948, Note_on_c, 0, 61, 72
1, 159979, Note_off_c, 0, 53, 64
1, 160004, Note_off_c, 0, 61, 61
1, 160022, Note_off_c, 0, 70, 52
1, 160069, Note_on_c, 0, 51, 75
1, 160073, Note_on_c, 0, 66, 76
1, 160084, Note_on_c, 0, 39, 61
1, 160089, Note_on_c, 0, 58, 63
1, 160102, Note_off_c, 0, 51, 60
1, 160118, Note_off_c, 0, 58, 66
1, 160151, Note_off_c, 0, 39, 59
1, 160177, Note_off_c, 0, 66, 64
1, 160208, Note_on_c, 0, 49, 78
1, 160208, Note_on_c, 0, 65, 75
1, 160215, Note_on_c, 0, 37, 70
1, 160255, Note_off_c, 0, 49, 58
1, 160263, Note_off_c, 0, 65, 65
1, 160264, Note_off_c, 0, 37, 63
1, 160340, Note_on_c, 0, 72, 71
1, 160343, Note_on_c, 0, 48, 79
1, 160343, Note_on_c, 0, 63, 77
1, 160348, Note_on_c, 0, 69, 66
1, 160349, Note_on_c, 0, 36, 71
1, 160377, Note_off_c, 0, 48, 66
1, 160389, Note_off_c, 0, 36, 66
1, 160398, Note_off_c, 0, 63, 62
1, 160418, Note_off_c, 0, 69, 63
1, 160425, Note_off_c, 0, 72, 64
1, 160531, Control_c, 0, 64, 109
1, 160536, Note_on_c, 0, 46, 82
1, 160537, Note_on_c, 0, 61, 80
1, 160540, Note_on_c, 0, 34, 69
1, 160544, Note_on_c, 0, 70, 76
1, 160544, Note_on_c, 0, 73, 79
1, 160546, Control_c, 0, 64, 84
1, 160561, Control_c, 0, 64, 43
1, 160575, Control_c, 0, 64, 0
1, 160599, Note_off_c, 0, 61, 55
1, 160620, Control_c, 0, 64, 60
1, 160635, Control_c, 0, 64, 76
1, 160649, Control_c, 0, 64, 94
1, 160664, Control_c, 0, 64, 126
1, 160676, Note_off_c, 0, 34, 64
1, 160679, Control_c, 0, 64, 127
1, 160694, Note_off_c, 0, 46, 62
1, 160735, Note_on_c, 0, 65, 73
1, 160766, Note_off_c, 0, 65, 65
1, 160779, Note_off_c, 0, 70, 62
1, 160784, Note_off_c, 0, 73, 61
1, 160880, Note_on_c, 0, 73, 84
1, 160881, Note_on_c, 0, 61, 69
1, 160881, Note_on_c, 0, 70, 80
1, 160893, Note_on_c, 0, 53, 56
1, 160899, Note_on_c, 0, 58, 58
1, 160959, Note_off_c, 0, 70, 58
1, 160982, Note_off_c, 0, 58, 60
1, 160997, Note_off_c, 0, 73, 58
1, 160998, Note_off_c, 0, 61, 60
1, 161030, Note_on_c, 0, 75, 79
1, 161034, Note_on_c, 0, 72, 74
1, 161082, Note_off_c, 0, 72, 60
1, 161167, Note_on_c, 0, 70, 83
1, 161170, Note_on_c, 0, 65, 80
1, 161170, Note_on_c, 0, 61, 70
1, 161171, Note_on_c, 0, 73, 83
1, 161173, Note_on_c, 0, 58, 68
1, 161190, Note_off_c, 0, 75, 60
1, 161200, Note_off_c, 0, 65, 63
1, 161224, Note_off_c, 0, 61, 61
1, 161230, Note_off_c, 0, 70, 61
1, 161236, Note_off_c, 0, 58, 65
1, 161237, Note_off_c, 0, 53, 66
1, 161296, Note_on_c, 0, 75, 86
1, 161303, Note_on_c, 0, 72, 76
1, 161305, Note_off_c, 0, 73, 42
1, 161329, Note_off_c, 0, 72, 66
1, 161361, Note_off_c, 0, 75, 60
1, 161461, Note_on_c, 0, 77, 86
1, 161466, Note_on_c, 0, 49, 78
1, 161470, Note_on_c, 0, 37, 66
1, 161470, Note_on_c, 0, 65, 82
1, 161472, Control_c, 0, 64, 99
1, 161475, Note_on_c, 0, 44, 71
1, 161475, Note_on_c, 0, 73, 74
1, 161487, Control_c, 0, 64, 74
1, 161502, Control_c, 0, 64, 0
1, 161525, Note_off_c, 0, 65, 54
1, 161548, Control_c, 0, 64, 67
1, 161563, Control_c, 0, 64, 89
1, 161577, Control_c, 0, 64, 119
1, 161592, Control_c, 0, 64, 127
1, 161600, Note_off_c, 0, 37, 65
1, 161604, Note_off_c, 0, 77, 59
1, 161619, Note_off_c, 0, 44, 63
1, 161621, Note_on_c, 0, 72, 74
1, 161623, Note_off_c, 0, 73, 50
1, 161632, Note_off_c, 0, 49, 61
1, 161720, Note_off_c, 0, 72, 62
1, 161755, Note_on_c, 0, 77, 80
1, 161758, Note_on_c, 0, 70, 86
1, 161759, Note_on_c, 0, 73, 65
1, 161765, Note_on_c, 0, 61, 81
1, 161767, Note_on_c, 0, 53, 65
1, 161823, Note_off_c, 0, 53, 61
1, 161845, Note_off_c, 0, 61, 59
1, 161846, Note_off_c, 0, 73, 61
1, 161883, Note_on_c, 0, 68, 84
1, 161907, Note_off_c, 0, 77, 39
1, 161916, Note_off_c, 0, 70, 56
1, 161945, Note_off_c, 0, 68, 62
1, 162021, Note_on_c, 0, 61, 72
1, 162022, Note_on_c, 0, 77, 83
1, 162023, Note_on_c, 0, 66, 90
1, 162024, Note_on_c, 0, 73, 66
1, 162026, Note_on_c, 0, 56, 71
1, 162032, Note_on_c, 0, 68, 88
1, 162076, Note_off_c, 0, 68, 63
1, 162087, Note_off_c, 0, 61, 61
1, 162090, Note_off_c, 0, 66, 64
1, 162122, Note_off_c, 0, 56, 63
1, 162123, Note_off_c, 0, 73, 61
1, 162152, Note_on_c, 0, 65, 86
1, 162207, Note_off_c, 0, 77, 48
1, 162208, Note_off_c, 0, 65, 66
1, 162311, Note_on_c, 0, 51, 96
1, 162312, Note_on_c, 0, 77, 91
1, 162317, Note_on_c, 0, 66, 91
1, 162320, Note_on_c, 0, 39, 83
1, 162326, Control_c, 0, 64, 90
1, 162341, Control_c, 0, 64, 67
1, 162356, Control_c, 0, 64, 0
1, 162386, Control_c, 0, 64, 55
1, 162400, Control_c, 0, 64, 77
1, 162415, Control_c, 0, 64, 96
1, 162430, Control_c, 0, 64, 127
1, 162451, Note_off_c, 0, 39, 63
1, 162463, Note_on_c, 0, 73, 78
1, 162467, Note_off_c, 0, 77, 53
1, 162470, Note_off_c, 0, 51, 62
1, 162564, Note_off_c, 0, 73, 62
1, 162634, Note_on_c, 0, 75, 86
1, 162639, Note_on_c, 0, 72, 77
1, 162640, Note_on_c, 0, 63, 92
1, 162647, Note_on_c, 0, 54, 67
1, 162647, Note_on_c, 0, 58, 80
1, 162691, Note_off_c, 0, 66, 58
1, 162704, Note_off_c, 0, 63, 61
1, 162732, Note_off_c, 0, 54, 61
1, 162737, Note_off_c, 0, 58, 63
1, 162788, Note_on_c, 0, 66, 85
1, 162791, Note_on_c, 0, 70, 85
1, 162794, Note_off_c, 0, 72, 63
1, 162813, Note_off_c, 0, 75, 59
1, 162873, Note_off_c, 0, 66, 52
1, 162991, Note_on_c, 0, 73, 81
1, 162994, Note_on_c, 0, 63, 81
1, 163004, Note_on_c, 0, 54, 95
1, 163012, Note_on_c, 0, 42, 83
1, 163030, Control_c, 0, 64, 127
1, 163037, Note_off_c, 0, 70, 60
1, 163044, Control_c, 0, 64, 92
1, 163059, Control_c, 0, 64, 66
1, 163074, Control_c, 0, 64, 0
1, 163109, Note_off_c, 0, 63, 57
1, 163120, Control_c, 0, 64, 68
1, 163135, Control_c, 0, 64, 86
1, 163149, Control_c, 0, 64, 107
1, 163159, Note_off_c, 0, 73, 58
1, 163164, Control_c, 0, 64, 127
1, 163189, Note_on_c, 0, 72, 79
1, 163195, Note_on_c, 0, 64, 79
1, 163265, Note_off_c, 0, 64, 53
1, 163334, Note_off_c, 0, 54, 58
1, 163335, Note_off_c, 0, 42, 59
1, 163433, Note_on_c, 0, 53, 77
1, 163434, Note_on_c, 0, 41, 76
1, 163434, Note_on_c, 0, 69, 79
1, 163439, Note_on_c, 0, 65, 74
1, 163453, Control_c, 0, 64, 92
1, 163468, Control_c, 0, 64, 64
1, 163482, Control_c, 0, 64, 0
1, 163510, Note_off_c, 0, 41, 66
1, 163527, Note_off_c, 0, 53, 66
1, 163527, Control_c, 0, 64, 73
1, 163540, Note_off_c, 0, 72, 55
1, 163542, Control_c, 0, 64, 96
1, 163556, Control_c, 0, 64, 127
1, 163597, Note_off_c, 0, 65, 61
1, 163606, Note_off_c, 0, 69, 63
1, 163666, Note_on_c, 0, 54, 64
1, 163668, Note_on_c, 0, 66, 73
1, 163724, Note_off_c, 0, 66, 60
1, 163735, Note_off_c, 0, 54, 61
1, 163813, Note_on_c, 0, 60, 78
1, 163817, Note_on_c, 0, 72, 73
1, 163820, Note_on_c, 0, 69, 64
1, 163823, Note_on_c, 0, 65, 77
1, 163832, Note_on_c, 0, 53, 69
1, 163841, Note_off_c, 0, 60, 66
1, 163866, Note_off_c, 0, 69, 61
1, 163871, Note_off_c, 0, 65, 60
1, 163880, Note_off_c, 0, 53, 65
1, 163882, Note_off_c, 0, 72, 64
1, 163955, Note_on_c, 0, 64, 79
1, 163970, Note_on_c, 0, 52, 70
1, 163998, Note_off_c, 0, 52, 68
1, 164008, Note_off_c, 0, 64, 65
1, 164087, Note_on_c, 0, 77, 86
1, 164088, Note_on_c, 0, 63, 80
1, 164092, Note_on_c, 0, 65, 83
1, 164095, Note_on_c, 0, 69, 75
1, 164101, Note_on_c, 0, 51, 68
1, 164131, Note_on_c, 0, 75, 29
1, 164133, Note_off_c, 0, 63, 63
1, 164134, Note_off_c, 0, 51, 62
1, 164138, Note_off_c, 0, 69, 59
1, 164169, Note_off_c, 0, 75, 39
1, 164171, Note_off_c, 0, 77, 56
1, 164172, Note_off_c, 0, 65, 54
1, 164205, Note_on_c, 0, 60, 84
1, 164217, Note_on_c, 0, 48, 79
1, 164250, Note_off_c, 0, 60, 61
1, 164251, Note_off_c, 0, 48, 65
1, 164291, Control_c, 0, 64, 97
1, 164306, Control_c, 0, 64, 72
1, 164321, Control_c, 0, 64, 0
1, 164326, Note_on_c, 0, 61, 86
1, 164326, Note_on_c, 0, 70, 80
1, 164330, Note_on_c, 0, 64, 83
1, 164330, Note_on_c, 0, 76, 81
1, 164334, Note_on_c, 0, 49, 77
1, 164350, Control_c, 0, 64, 71
1, 164365, Control_c, 0, 64, 92
1, 164371, Note_off_c, 0, 64, 61
1, 164375, Note_off_c, 0, 76, 66
1, 164378, Note_off_c, 0, 61, 61
1, 164380, Control_c, 0, 64, 127
1, 164385, Note_off_c, 0, 70, 63
1, 164396, Note_off_c, 0, 49, 58
1, 164447, Note_on_c, 0, 58, 81
1, 164456, Note_on_c, 0, 46, 86
1, 164488, Note_off_c, 0, 58, 64
1, 164503, Note_off_c, 0, 46, 59
1, 164554, Note_on_c, 0, 58, 88
1, 164560, Note_on_c, 0, 70, 78
1, 164563, Note_on_c, 0, 55, 88
1, 164573, Note_on_c, 0, 43, 81
1, 164589, Note_on_c, 0, 68, 41
1, 164610, Note_off_c, 0, 55, 64
1, 164613, Note_off_c, 0, 58, 64
1, 164616, Note_off_c, 0, 43, 60
1, 164623, Note_off_c, 0, 68, 50
1, 164625, Note_off_c, 0, 70, 65
1, 164629, Poly_aftertouch_c, 0, 64, 127
1, 164673, Note_on_c, 0, 57, 71
1, 164676, Poly_aftertouch_c, 0, 64, 0
1, 164686, Note_on_c, 0, 54, 80
1, 164688, Note_on_c, 0, 64, 50
1, 164698, Note_on_c, 0, 42, 75
1, 164724, Note_off_c, 0, 57, 63
1, 164732, Note_off_c, 0, 54, 60
1, 164749, Note_off_c, 0, 42, 61
1, 164756, Note_off_c, 0, 64, 64
1, 164828, Note_on_c, 0, 73, 90
1, 164834, Note_on_c, 0, 49, 91
1, 164843, Note_on_c, 0, 37, 75
1, 164862, Note_off_c, 0, 49, 64
1, 164875, Note_off_c, 0, 73, 66
1, 164882, Note_off_c, 0, 37, 64
1, 164965, Note_on_c, 0, 58, 86
1, 164971, Note_on_c, 0, 42, 88
1, 164983, Note_on_c, 0, 30, 69
1, 165004, Note_off_c, 0, 42, 63
1, 165011, Note_on_c, 0, 32, 30
1, 165017, Note_off_c, 0, 58, 62
1, 165042, Note_off_c, 0, 30, 59
1, 165060, Note_off_c, 0, 32, 46
1, 165069, Poly_aftertouch_c, 0, 68, 0
1, 165113, Control_c, 0, 64, 92
1, 165127, Control_c, 0, 64, 66
1, 165142, Control_c, 0, 64, 0
1, 165149, Note_on_c, 0, 29, 77
1, 165149, Note_on_c, 0, 69, 84
1, 165152, Note_on_c, 0, 41, 87
1, 165154, Note_on_c, 0, 65, 74
1, 165156, Note_on_c, 0, 60, 84
1, 165171, Control_c, 0, 64, 63
1, 165183, Note_off_c, 0, 29, 67
1, 165184, Note_off_c, 0, 60, 66
1, 165186, Control_c, 0, 64, 83
1, 165201, Note_off_c, 0, 41, 66
1, 165201, Control_c, 0, 64, 120
1, 165216, Note_off_c, 0, 65, 65
1, 165216, Control_c, 0, 64, 127
1, 165235, Note_off_c, 0, 69, 66
1, 165333, Note_on_c, 0, 66, 89
1, 165340, Note_on_c, 0, 54, 71
1, 165383, Note_off_c, 0, 66, 61
1, 165395, Note_off_c, 0, 54, 60
1, 165459, Note_on_c, 0, 84, 90
1, 165463, Note_on_c, 0, 72, 87
1, 165463, Note_on_c, 0, 81, 89
1, 165466, Note_on_c, 0, 65, 85
1, 165484, Note_on_c, 0, 53, 58
1, 165488, Note_off_c, 0, 72, 64
1, 165511, Note_off_c, 0, 65, 63
1, 165511, Note_off_c, 0, 81, 63
1, 165519, Note_off_c, 0, 53, 66
1, 165523, Note_on_c, 0, 55, 25
1, 165528, Note_off_c, 0, 84, 66
1, 165569, Note_off_c, 0, 55, 52
1, 165585, Note_on_c, 0, 64, 85
1, 165599, Note_on_c, 0, 52, 77
1, 165628, Note_off_c, 0, 52, 68
1, 165633, Note_off_c, 0, 64, 65
1, 165706, Note_on_c, 0, 89, 98
1, 165707, Note_on_c, 0, 81, 94
1, 165707, Note_on_c, 0, 77, 95
1, 165710, Note_on_c, 0, 63, 88
1, 165716, Note_on_c, 0, 51, 78
1, 165753, Note_off_c, 0, 63, 63
1, 165755, Note_off_c, 0, 81, 59
1, 165768, Note_off_c, 0, 51, 61
1, 165780, Note_off_c, 0, 89, 61
1, 165788, Note_off_c, 0, 77, 55
1, 165825, Note_on_c, 0, 60, 86
1, 165838, Note_on_c, 0, 48, 82
1, 165868, Note_off_c, 0, 60, 64
1, 165871, Note_off_c, 0, 48, 64
1, 165921, Control_c, 0, 64, 101
1, 165936, Control_c, 0, 64, 74
1, 165946, Note_on_c, 0, 61, 86
1, 165950, Control_c, 0, 64, 0
1, 165952, Note_on_c, 0, 88, 88
1, 165952, Note_on_c, 0, 82, 87
1, 165954, Note_on_c, 0, 76, 99
1, 165955, Note_on_c, 0, 49, 82
1, 165965, Control_c, 0, 64, 34
1, 165980, Control_c, 0, 64, 74
1, 165994, Control_c, 0, 64, 99
1, 166000, Note_off_c, 0, 61, 63
1, 166009, Control_c, 0, 64, 127
1, 166011, Note_off_c, 0, 88, 65
1, 166026, Note_off_c, 0, 49, 60
1, 166026, Note_off_c, 0, 76, 61
1, 166034, Note_off_c, 0, 82, 65
1, 166063, Poly_aftertouch_c, 0, 51, 0
1, 166078, Note_on_c, 0, 58, 87
1, 166086, Note_on_c, 0, 46, 85
1, 166120, Note_off_c, 0, 58, 65
1, 166141, Note_off_c, 0, 46, 61
1, 166194, Note_on_c, 0, 70, 99
1, 166200, Note_on_c, 0, 55, 89
1, 166202, Note_on_c, 0, 82, 89
1, 166209, Note_on_c, 0, 43, 82
1, 166213, Note_on_c, 0, 76, 61
1, 166244, Note_off_c, 0, 76, 60
1, 166246, Note_off_c, 0, 70, 57
1, 166250, Note_off_c, 0, 55, 64
1, 166261, Note_off_c, 0, 43, 60
1, 166266, Note_off_c, 0, 82, 66
1, 166327, Note_on_c, 0, 69, 82
1, 166343, Note_on_c, 0, 54, 80
1, 166348, Note_on_c, 0, 42, 81
1, 166357, Note_on_c, 0, 76, 76
1, 166378, Note_off_c, 0, 54, 62
1, 166379, Note_off_c, 0, 69, 65
1, 166403, Note_off_c, 0, 42, 61
1, 166411, Note_off_c, 0, 76, 68
1, 166488, Note_on_c, 0, 85, 94
1, 166493, Note_on_c, 0, 49, 102
1, 166502, Note_on_c, 0, 37, 79
1, 166527, Note_off_c, 0, 49, 61
1, 166533, Note_on_c, 0, 39, 34
1, 166534, Note_off_c, 0, 85, 67
1, 166536, Note_on_c, 0, 42, 22
1, 166557, Note_off_c, 0, 42, 59
1, 166563, Note_off_c, 0, 37, 63
1, 166569, Note_off_c, 0, 39, 44
1, 166648, Note_on_c, 0, 42, 78
1, 166651, Note_on_c, 0, 70, 96
1, 166664, Note_on_c, 0, 30, 77
1, 166686, Note_on_c, 0, 32, 44
1, 166691, Note_off_c, 0, 70, 65
1, 166696, Note_off_c, 0, 42, 62
1, 166742, Note_off_c, 0, 32, 42
1, 166742, Note_off_c, 0, 30, 61
1, 166877, Control_c, 0, 64, 107
1, 166881, Note_on_c, 0, 28, 84
1, 166884, Note_on_c, 0, 40, 93
1, 166885, Note_on_c, 0, 73, 95
1, 166885, Note_on_c, 0, 82, 90
1, 166885, Note_on_c, 0, 85, 94
1, 166891, Control_c, 0, 64, 78
1, 166906, Control_c, 0, 64, 0
1, 166950, Control_c, 0, 64, 65
1, 166965, Control_c, 0, 64, 85
1, 166978, Note_off_c, 0, 28, 59
1, 166980, Control_c, 0, 64, 114
1, 166995, Control_c, 0, 64, 127
1, 167000, Note_off_c, 0, 40, 61
1, 167004, Note_off_c, 0, 73, 55
1, 167024, Note_off_c, 0, 85, 58
1, 167050, Note_off_c, 0, 82, 61
1, 167114, Note_on_c, 0, 29, 74
1, 167117, Note_on_c, 0, 41, 85
1, 167118, Note_on_c, 0, 72, 99
1, 167121, Note_on_c, 0, 84, 91
1, 167123, Note_on_c, 0, 81, 84
1, 167150, Note_off_c, 0, 29, 62
1, 167166, Note_off_c, 0, 41, 66
1, 167207, Note_off_c, 0, 72, 58
1, 167221, Note_off_c, 0, 84, 61
1, 167232, Note_off_c, 0, 81, 50
1, 167314, Control_c, 0, 64, 96
1, 167326, Note_on_c, 0, 72, 92
1, 167329, Note_on_c, 0, 84, 89
1, 167329, Control_c, 0, 64, 74
1, 167333, Note_on_c, 0, 81, 74
1, 167338, Note_on_c, 0, 54, 72
1, 167340, Note_on_c, 0, 66, 83
1, 167344, Control_c, 0, 64, 56
1, 167359, Control_c, 0, 64, 65
1, 167374, Control_c, 0, 64, 80
1, 167380, Note_off_c, 0, 72, 65
1, 167389, Control_c, 0, 64, 103
1, 167403, Control_c, 0, 64, 127
1, 167407, Note_off_c, 0, 84, 64
1, 167409, Note_off_c, 0, 66, 63
1, 167420, Note_off_c, 0, 81, 62
1, 167429, Note_off_c, 0, 54, 61
1, 167507, Note_on_c, 0, 73, 93
1, 167508, Note_on_c, 0, 82, 82
1, 167509, Note_on_c, 0, 65, 80
1, 167509, Note_on_c, 0, 85, 85
1, 167516, Note_on_c, 0, 53, 72
1, 167546, Note_off_c, 0, 73, 59
1, 167558, Note_off_c, 0, 53, 64
1, 167560, Note_off_c, 0, 65, 64
1, 167575, Note_off_c, 0, 82, 63
1, 167576, Note_off_c, 0, 85, 64
1, 167640, Note_on_c, 0, 75, 91
1, 167642, Note_on_c, 0, 84, 85
1, 167644, Note_on_c, 0, 63, 86
1, 167648, Note_on_c, 0, 87, 82
1, 167651, Note_on_c, 0, 51, 75
1, 167680, Note_off_c, 0, 75, 63
1, 167696, Note_off_c, 0, 63, 63
1, 167703, Note_off_c, 0, 84, 65
1, 167713, Note_off_c, 0, 51, 56
1, 167714, Note_off_c, 0, 87, 62
1, 167770, Note_on_c, 0, 61, 81
1, 167771, Note_on_c, 0, 77, 103
1, 167771, Note_on_c, 0, 89, 92
1, 167776, Note_on_c, 0, 85, 86
1, 167793, Note_on_c, 0, 49, 71
1, 167816, Note_off_c, 0, 77, 64
1, 167835, Note_off_c, 0, 61, 61
1, 167842, Note_off_c, 0, 89, 64
1, 167848, Note_off_c, 0, 49, 62
1, 167857, Note_off_c, 0, 85, 65
1, 167916, Control_c, 0, 64, 113
1, 167922, Note_on_c, 0, 60, 87
1, 167928, Note_on_c, 0, 78, 105
1, 167931, Control_c, 0, 64, 85
1, 167931, Note_on_c, 0, 48, 79
1, 167931, Note_on_c, 0, 90, 98
1, 167934, Note_on_c, 0, 87, 87
1, 167945, Control_c, 0, 64, 64
1, 167960, Control_c, 0, 64, 54
1, 167975, Control_c, 0, 64, 73
1, 167976, Note_off_c, 0, 60, 63
1, 167986, Note_off_c, 0, 48, 64
1, 167989, Control_c, 0, 64, 91
1, 168004, Control_c, 0, 64, 118
1, 168019, Control_c, 0, 64, 127
1, 168056, Note_on_c, 0, 58, 86
1, 168061, Note_on_c, 0, 46, 85
1, 168106, Note_off_c, 0, 58, 63
1, 168119, Note_off_c, 0, 78, 59
1, 168121, Note_off_c, 0, 90, 60
1, 168122, Note_off_c, 0, 46, 61
1, 168153, Note_off_c, 0, 87, 60
1, 168192, Note_on_c, 0, 57, 84
1, 168195, Note_on_c, 0, 78, 101
1, 168196, Note_on_c, 0, 90, 105
1, 168198, Note_on_c, 0, 87, 82
1, 168200, Note_on_c, 0, 45, 78
1, 168237, Note_off_c, 0, 57, 64
1, 168246, Note_off_c, 0, 45, 62
1, 168316, Note_on_c, 0, 54, 87
1, 168325, Note_on_c, 0, 42, 83
1, 168331, Note_off_c, 0, 90, 56
1, 168332, Note_off_c, 0, 78, 50
1, 168368, Note_off_c, 0, 54, 62
1, 168385, Note_off_c, 0, 42, 61
1, 168406, Note_off_c, 0, 87, 57
1, 168459, Note_on_c, 0, 51, 89
1, 168459, Note_on_c, 0, 78, 101
1, 168461, Note_on_c, 0, 90, 100
1, 168464, Note_on_c, 0, 87, 94
1, 168468, Note_on_c, 0, 39, 79
1, 168504, Note_off_c, 0, 51, 63
1, 168548, Note_off_c, 0, 39, 62
1, 168551, Note_off_c, 0, 78, 59
1, 168593, Note_off_c, 0, 87, 59
1, 168607, Note_off_c, 0, 90, 57
1, 168615, Note_on_c, 0, 48, 96
1, 168620, Note_on_c, 0, 36, 86
1, 168658, Note_off_c, 0, 48, 65
1, 168682, Note_off_c, 0, 36, 63
1, 168850, Note_on_c, 0, 45, 91
1, 168851, Note_on_c, 0, 78, 105
1, 168852, Note_on_c, 0, 87, 86
1, 168852, Note_on_c, 0, 90, 97
1, 168855, Note_on_c, 0, 33, 89
1, 168857, Control_c, 0, 64, 98
1, 168872, Control_c, 0, 64, 72
1, 168886, Control_c, 0, 64, 0
1, 168960, Control_c, 0, 64, 63
1, 168975, Control_c, 0, 64, 75
1, 168990, Control_c, 0, 64, 87
1, 169005, Control_c, 0, 64, 94
1, 169018, Note_off_c, 0, 90, 63
1, 169019, Control_c, 0, 64, 110
1, 169034, Note_off_c, 0, 87, 63
1, 169034, Control_c, 0, 64, 127
1, 169046, Note_off_c, 0, 78, 64
1, 169180, Note_off_c, 0, 45, 62
1, 169193, Note_off_c, 0, 33, 63
1, 169275, Note_on_c, 0, 59, 64
1, 169287, Note_on_c, 0, 45, 91
1, 169287, Note_on_c, 0, 54, 94
1, 169287, Note_on_c, 0, 63, 90
1, 169293, Note_on_c, 0, 33, 87
1, 169334, Note_on_c, 0, 64, 41
1, 169363, Note_off_c, 0, 64, 49
1, 169386, Note_off_c, 0, 54, 53
1, 169390, Poly_aftertouch_c, 0, 62, 127
1, 169431, Poly_aftertouch_c, 0, 62, 0
1, 169460, Note_off_c, 0, 63, 58
1, 169527, Note_off_c, 0, 45, 58
1, 169538, Note_off_c, 0, 33, 63
1, 169648, Note_on_c, 0, 58, 86
1, 169648, Note_on_c, 0, 63, 94
1, 169650, Note_on_c, 0, 54, 93
1, 169651, Note_on_c, 0, 46, 96
1, 169653, Note_on_c, 0, 34, 83
1, 169665, Control_c, 0, 64, 90
1, 169678, Note_off_c, 0, 59, 61
1, 169680, Control_c, 0, 64, 60
1, 169695, Control_c, 0, 64, 0
1, 169725, Control_c, 0, 64, 64
1, 169740, Control_c, 0, 64, 85
1, 169755, Control_c, 0, 64, 119
1, 169756, Note_off_c, 0, 54, 51
1, 169769, Control_c, 0, 64, 127
1, 169805, Note_off_c, 0, 58, 59
1, 169815, Note_off_c, 0, 63, 59
1, 169828, Note_off_c, 0, 34, 61
1, 169834, Note_off_c, 0, 46, 59
1, 169912, Note_on_c, 0, 58, 88
1, 169913, Note_on_c, 0, 54, 94
1, 169913, Note_on_c, 0, 63, 91
1, 169921, Note_on_c, 0, 46, 96
1, 169922, Note_on_c, 0, 34, 88
1, 169957, Note_off_c, 0, 54, 63
1, 169975, Note_off_c, 0, 58, 63
1, 170012, Note_off_c, 0, 63, 63
1, 170175, Note_off_c, 0, 34, 61
1, 170181, Note_off_c, 0, 46, 60
1, 170220, Poly_aftertouch_c, 0, 57, 127
1, 170244, Note_on_c, 0, 66, 86
1, 170250, Note_on_c, 0, 51, 83
1, 170253, Note_on_c, 0, 47, 97
1, 170253, Note_on_c, 0, 57, 3
1, 170258, Note_on_c, 0, 35, 87
1, 170272, Note_on_c, 0, 63, 47
1, 170280, Control_c, 0, 64, 101
1, 170295, Control_c, 0, 64, 74
1, 170295, Note_off_c, 0, 63, 59
1, 170311, Control_c, 0, 64, 0
1, 170370, Control_c, 0, 64, 64
1, 170383, Note_off_c, 0, 57, 0
1, 170383, Note_on_c, 0, 57, 5
1, 170385, Control_c, 0, 64, 76
1, 170399, Control_c, 0, 64, 89
1, 170414, Control_c, 0, 64, 102
1, 170428, Note_off_c, 0, 51, 58
1, 170429, Control_c, 0, 64, 113
1, 170432, Note_off_c, 0, 66, 53
1, 170444, Control_c, 0, 64, 127
1, 170477, Note_off_c, 0, 47, 60
1, 170492, Note_off_c, 0, 57, 41
1, 170509, Note_off_c, 0, 35, 62
1, 170684, Note_on_c, 0, 66, 84
1, 170688, Note_on_c, 0, 39, 83
1, 170688, Note_on_c, 0, 57, 66
1, 170691, Note_on_c, 0, 27, 83
1, 170693, Note_on_c, 0, 54, 78
1, 170724, Control_c, 0, 64, 121
1, 170739, Control_c, 0, 64, 92
1, 170754, Control_c, 0, 64, 62
1, 170769, Control_c, 0, 64, 0
1, 170821, Control_c, 0, 64, 28
1, 170836, Control_c, 0, 64, 69
1, 170851, Control_c, 0, 64, 83
1, 170865, Control_c, 0, 64, 97
1, 170880, Control_c, 0, 64, 109
1, 170895, Control_c, 0, 64, 121
1, 170908, Note_off_c, 0, 66, 64
1, 170909, Control_c, 0, 64, 127
1, 170929, Note_off_c, 0, 27, 67
1, 170960, Note_off_c, 0, 39, 60
1, 170960, Note_off_c, 0, 54, 54
1, 171115, Note_off_c, 0, 57, 38
1, 171157, Note_on_c, 0, 42, 81
1, 171159, Note_on_c, 0, 30, 72
1, 171168, Note_on_c, 0, 61, 72
1, 171207, Control_c, 0, 64, 114
1, 171222, Control_c, 0, 64, 88
1, 171237, Control_c, 0, 64, 34
1, 171252, Control_c, 0, 64, 0
1, 171296, Control_c, 0, 64, 35
1, 171311, Control_c, 0, 64, 70
1, 171326, Control_c, 0, 64, 86
1, 171340, Control_c, 0, 64, 106
1, 171355, Control_c, 0, 64, 127
1, 171358, Note_on_c, 0, 59, 58
1, 171358, Note_off_c, 0, 61, 55
1, 171365, Note_off_c, 0, 30, 62
1, 171366, Note_on_c, 0, 57, 55
1, 171368, Note_on_c, 0, 51, 47
1, 171394, Note_off_c, 0, 42, 63
1, 171395, Note_off_c, 0, 51, 52
1, 171412, Note_off_c, 0, 57, 57
1, 171416, Note_off_c, 0, 59, 57
1, 171452, Note_on_c, 0, 64, 64
1, 171556, Note_on_c, 0, 54, 63
1, 171564, Note_on_c, 0, 63, 70
1, 171574, Note_off_c, 0, 64, 59
1, 171579, Note_on_c, 0, 59, 38
1, 171586, Note_on_c, 0, 57, 18
1, 171605, Note_off_c, 0, 59, 54
1, 171615, Note_off_c, 0, 63, 65
1, 171622, Note_off_c, 0, 57, 43
1, 171625, Note_off_c, 0, 54, 52
1, 171678, Note_on_c, 0, 59, 68
1, 171691, Note_on_c, 0, 68, 72
1, 171745, Note_off_c, 0, 68, 59
1, 171753, Note_on_c, 0, 57, 68
1, 171773, Note_on_c, 0, 66, 70
1, 171776, Note_off_c, 0, 57, 65
1, 171784, Note_on_c, 0, 63, 62
1, 171821, Note_off_c, 0, 59, 61
1, 171828, Note_off_c, 0, 63, 52
1, 171863, Note_off_c, 0, 66, 61
1, 171897, Note_on_c, 0, 71, 76
1, 171901, Note_on_c, 0, 44, 86
1, 171911, Note_on_c, 0, 32, 79
1, 171911, Control_c, 0, 64, 96
1, 171926, Control_c, 0, 64, 70
1, 171941, Control_c, 0, 64, 0
1, 171970, Control_c, 0, 64, 38
1, 171972, Note_off_c, 0, 71, 57
1, 171985, Control_c, 0, 64, 72
1, 171995, Note_on_c, 0, 66, 58
1, 172000, Control_c, 0, 64, 94
1, 172005, Note_on_c, 0, 61, 66
1, 172008, Note_on_c, 0, 59, 46
1, 172015, Control_c, 0, 64, 127
1, 172030, Note_off_c, 0, 32, 62
1, 172030, Control_c, 0, 64, 127
1, 172036, Note_off_c, 0, 66, 61
1, 172038, Note_off_c, 0, 59, 54
1, 172048, Note_off_c, 0, 44, 63
1, 172048, Note_off_c, 0, 61, 59
1, 172095, Note_on_c, 0, 66, 70
1, 172170, Note_on_c, 0, 61, 70
1, 172176, Note_on_c, 0, 65, 69
1, 172188, Note_on_c, 0, 56, 61
1, 172198, Note_off_c, 0, 61, 65
1, 172207, Note_off_c, 0, 66, 60
1, 172215, Note_off_c, 0, 65, 65
1, 172275, Note_off_c, 0, 56, 42
1, 172286, Note_on_c, 0, 70, 82
1, 172288, Note_on_c, 0, 61, 75
1, 172349, Note_off_c, 0, 61, 0
1, 172362, Note_on_c, 0, 61, 58
1, 172372, Note_on_c, 0, 59, 59
1, 172374, Note_on_c, 0, 68, 73
1, 172379, Note_on_c, 0, 65, 68
1, 172382, Note_off_c, 0, 70, 59
1, 172393, Note_off_c, 0, 59, 59
1, 172416, Note_off_c, 0, 61, 60
1, 172431, Note_off_c, 0, 65, 60
1, 172461, Note_off_c, 0, 68, 61
1, 172494, Note_on_c, 0, 73, 85
1, 172497, Note_on_c, 0, 46, 96
1, 172497, Control_c, 0, 64, 107
1, 172506, Note_on_c, 0, 34, 85
1, 172511, Control_c, 0, 64, 79
1, 172526, Control_c, 0, 64, 0
1, 172570, Control_c, 0, 64, 66
1, 172581, Note_off_c, 0, 73, 61
1, 172585, Control_c, 0, 64, 84
1, 172593, Note_on_c, 0, 61, 73
1, 172593, Note_on_c, 0, 64, 71
1, 172599, Note_on_c, 0, 68, 63
1, 172600, Control_c, 0, 64, 111
1, 172615, Control_c, 0, 64, 127
1, 172626, Note_off_c, 0, 34, 64
1, 172632, Note_off_c, 0, 61, 58
1, 172649, Note_off_c, 0, 46, 63
1, 172652, Note_off_c, 0, 64, 63
1, 172656, Note_off_c, 0, 68, 63
1, 172694, Note_on_c, 0, 68, 63
1, 172780, Note_on_c, 0, 58, 74
1, 172781, Note_on_c, 0, 67, 66
1, 172785, Note_on_c, 0, 61, 76
1, 172789, Note_on_c, 0, 64, 72
1, 172801, Note_off_c, 0, 68, 61
1, 172814, Note_off_c, 0, 61, 63
1, 172820, Note_off_c, 0, 64, 65
1, 172835, Note_off_c, 0, 67, 63
1, 172856, Note_off_c, 0, 58, 62
1, 172889, Note_on_c, 0, 63, 92
1, 172890, Note_on_c, 0, 71, 80
1, 172972, Note_on_c, 0, 61, 91
1, 172974, Note_off_c, 0, 71, 61
1, 172975, Note_on_c, 0, 67, 72
1, 172977, Note_on_c, 0, 64, 74
1, 172978, Note_on_c, 0, 70, 78
1, 172979, Note_off_c, 0, 63, 63
1, 173003, Note_off_c, 0, 64, 66
1, 173005, Note_off_c, 0, 61, 62
1, 173008, Note_off_c, 0, 67, 66
1, 173059, Note_off_c, 0, 70, 61
1, 173097, Control_c, 0, 64, 116
1, 173110, Note_on_c, 0, 75, 85
1, 173112, Control_c, 0, 64, 83
1, 173116, Note_on_c, 0, 48, 99
1, 173127, Control_c, 0, 64, 0
1, 173127, Note_on_c, 0, 36, 84
1, 173172, Control_c, 0, 64, 50
1, 173186, Control_c, 0, 64, 76
1, 173201, Control_c, 0, 64, 95
1, 173211, Note_off_c, 0, 75, 61
1, 173214, Note_on_c, 0, 70, 70
1, 173216, Control_c, 0, 64, 118
1, 173218, Note_on_c, 0, 66, 72
1, 173221, Note_on_c, 0, 63, 63
1, 173231, Control_c, 0, 64, 127
1, 173266, Note_off_c, 0, 63, 61
1, 173276, Note_off_c, 0, 66, 66
1, 173280, Note_off_c, 0, 36, 63
1, 173280, Note_off_c, 0, 70, 62
1, 173311, Note_off_c, 0, 48, 66
1, 173327, Note_on_c, 0, 70, 77
1, 173418, Note_on_c, 0, 65, 72
1, 173422, Note_on_c, 0, 63, 70
1, 173427, Note_on_c, 0, 69, 72
1, 173432, Note_on_c, 0, 60, 81
1, 173440, Note_off_c, 0, 63, 65
1, 173458, Note_off_c, 0, 65, 64
1, 173477, Note_off_c, 0, 69, 66
1, 173478, Note_off_c, 0, 70, 61
1, 173520, Note_off_c, 0, 60, 58
1, 173542, Note_on_c, 0, 65, 94
1, 173548, Note_on_c, 0, 73, 85
1, 173648, Note_on_c, 0, 63, 88
1, 173650, Note_on_c, 0, 70, 77
1, 173654, Note_off_c, 0, 65, 65
1, 173655, Note_on_c, 0, 72, 75
1, 173658, Poly_aftertouch_c, 0, 62, 0
1, 173661, Note_on_c, 0, 66, 72
1, 173667, Note_off_c, 0, 63, 74
1, 173685, Note_off_c, 0, 70, 49
1, 173687, Note_off_c, 0, 66, 68
1, 173723, Note_off_c, 0, 72, 63
1, 173725, Note_off_c, 0, 73, 62
1, 173817, Control_c, 0, 64, 112
1, 173820, Note_on_c, 0, 41, 98
1, 173825, Note_on_c, 0, 78, 87
1, 173827, Note_on_c, 0, 29, 86
1, 173832, Control_c, 0, 64, 84
1, 173847, Control_c, 0, 64, 39
1, 173862, Control_c, 0, 64, 0
1, 173921, Control_c, 0, 64, 57
1, 173935, Control_c, 0, 64, 70
1, 173947, Poly_aftertouch_c, 0, 34, 0
1, 173950, Control_c, 0, 64, 80
1, 173962, Note_on_c, 0, 77, 65
1, 173965, Control_c, 0, 64, 92
1, 173967, Note_on_c, 0, 69, 69
1, 173970, Note_on_c, 0, 75, 64
1, 173973, Note_off_c, 0, 29, 63
1, 173980, Control_c, 0, 64, 105
1, 173991, Note_off_c, 0, 69, 71
1, 173995, Control_c, 0, 64, 118
1, 174002, Note_off_c, 0, 41, 67
1, 174009, Control_c, 0, 64, 127
1, 174016, Note_off_c, 0, 75, 63
1, 174023, Note_off_c, 0, 77, 62
1, 174030, Note_off_c, 0, 78, 61
1, 174095, Note_on_c, 0, 82, 81
1, 174180, Note_on_c, 0, 72, 61
1, 174182, Note_on_c, 0, 81, 75
1, 174195, Note_on_c, 0, 75, 57
1, 174206, Note_on_c, 0, 77, 51
1, 174215, Note_off_c, 0, 75, 64
1, 174226, Note_off_c, 0, 77, 58
1, 174234, Note_off_c, 0, 82, 62
1, 174236, Note_off_c, 0, 81, 62
1, 174252, Note_off_c, 0, 72, 61
1, 174295, Note_on_c, 0, 77, 68
1, 174306, Note_on_c, 0, 85, 77
1, 174355, Note_off_c, 0, 85, 57
1, 174373, Note_off_c, 0, 77, 0
1, 174375, Note_on_c, 0, 75, 67
1, 174384, Note_on_c, 0, 84, 75
1, 174390, Note_on_c, 0, 77, 36
1, 174395, Note_on_c, 0, 81, 69
1, 174400, Note_off_c, 0, 75, 69
1, 174421, Note_off_c, 0, 81, 65
1, 174426, Note_off_c, 0, 77, 63
1, 174438, Note_off_c, 0, 84, 65
1, 174495, Note_on_c, 0, 89, 85
1, 174497, Note_on_c, 0, 65, 72
1, 174533, Note_off_c, 0, 65, 66
1, 174583, Note_off_c, 0, 89, 52
1, 174589, Note_on_c, 0, 87, 72
1, 174602, Note_on_c, 0, 81, 60
1, 174620, Note_off_c, 0, 81, 62
1, 174640, Note_off_c, 0, 87, 63
1, 174685, Note_on_c, 0, 90, 87
1, 174734, Note_on_c, 0, 81, 57
1, 174746, Note_off_c, 0, 90, 62
1, 174763, Note_on_c, 0, 89, 62
1, 174766, Note_on_c, 0, 84, 67
1, 174777, Note_on_c, 0, 87, 63
1, 174798, Note_off_c, 0, 81, 56
1, 174819, Note_off_c, 0, 84, 55
1, 174822, Note_off_c, 0, 87, 56
1, 174825, Note_on_c, 0, 72, 58
1, 174830, Note_on_c, 0, 91, 78
1, 174856, Note_off_c, 0, 89, 62
1, 174862, Note_off_c, 0, 72, 63
1, 174896, Note_on_c, 0, 89, 47
1, 174899, Note_off_c, 0, 91, 58
1, 174904, Note_on_c, 0, 81, 58
1, 174908, Note_on_c, 0, 84, 67
1, 174911, Note_on_c, 0, 87, 65
1, 174923, Note_off_c, 0, 81, 60
1, 174970, Note_on_c, 0, 90, 88
1, 174973, Note_off_c, 0, 84, 60
1, 174974, Note_off_c, 0, 87, 62
1, 174976, Note_on_c, 0, 65, 71
1, 174996, Note_off_c, 0, 65, 67
1, 175005, Note_off_c, 0, 89, 64
1, 175047, Note_off_c, 0, 90, 60
1, 175049, Note_on_c, 0, 81, 67
1, 175050, Note_on_c, 0, 87, 71
1, 175052, Note_on_c, 0, 89, 50
1, 175053, Note_on_c, 0, 84, 64
1, 175097, Note_off_c, 0, 84, 54
1, 175113, Note_off_c, 0, 87, 60
1, 175116, Note_off_c, 0, 81, 58
1, 175117, Note_on_c, 0, 91, 84
1, 175148, Note_on_c, 0, 72, 36
1, 175149, Note_off_c, 0, 89, 62
1, 175175, Note_off_c, 0, 72, 49
1, 175183, Note_on_c, 0, 89, 42
1, 175183, Note_off_c, 0, 91, 59
1, 175186, Note_on_c, 0, 87, 71
1, 175193, Note_on_c, 0, 84, 73
1, 175196, Note_on_c, 0, 81, 54
1, 175215, Note_off_c, 0, 81, 59
1, 175253, Note_on_c, 0, 90, 88
1, 175255, Note_off_c, 0, 84, 62
1, 175261, Note_on_c, 0, 65, 70
1, 175265, Note_off_c, 0, 87, 60
1, 175287, Note_off_c, 0, 65, 70
1, 175301, Note_off_c, 0, 89, 63
1, 175330, Note_on_c, 0, 87, 78
1, 175333, Note_on_c, 0, 81, 63
1, 175335, Note_off_c, 0, 90, 61
1, 175339, Note_on_c, 0, 89, 44
1, 175340, Note_on_c, 0, 84, 70
1, 175378, Note_off_c, 0, 84, 52
1, 175411, Note_on_c, 0, 91, 87
1, 175412, Note_off_c, 0, 87, 62
1, 175413, Note_off_c, 0, 81, 59
1, 175432, Note_on_c, 0, 72, 55
1, 175444, Note_off_c, 0, 89, 59
1, 175452, Note_off_c, 0, 72, 65
1, 175479, Note_on_c, 0, 87, 68
1, 175479, Note_off_c, 0, 91, 60
1, 175481, Note_on_c, 0, 89, 43
1, 175485, Note_on_c, 0, 84, 71
1, 175550, Note_off_c, 0, 84, 63
1, 175553, Note_on_c, 0, 65, 69
1, 175559, Note_on_c, 0, 90, 81
1, 175565, Note_off_c, 0, 87, 63
1, 175570, Note_off_c, 0, 65, 69
1, 175592, Note_off_c, 0, 89, 64
1, 175630, Note_on_c, 0, 81, 77
1, 175634, Note_on_c, 0, 87, 66
1, 175637, Note_on_c, 0, 84, 69
1, 175639, Note_off_c, 0, 90, 62
1, 175669, Note_off_c, 0, 84, 60
1, 175697, Note_off_c, 0, 87, 55
1, 175702, Note_off_c, 0, 81, 58
1, 175703, Note_on_c, 0, 72, 68
1, 175720, Note_on_c, 0, 91, 83
1, 175796, Note_on_c, 0, 81, 71
1, 175815, Note_on_c, 0, 89, 81
1, 175854, Note_off_c, 0, 91, 56
1, 175938, Note_on_c, 0, 88, 83
1, 175941, Note_off_c, 0, 89, 59
1, 175945, Note_on_c, 0, 75, 60
1, 175956, Note_off_c, 0, 81, 40
1, 176003, Note_off_c, 0, 72, 55
1, 176028, Note_off_c, 0, 75, 63
1, 176069, Note_off_c, 0, 88, 61
1, 176075, Note_on_c, 0, 89, 86
1, 176250, Note_off_c, 0, 89, 64
1, 176287, Note_on_c, 0, 101, 89
1, 176423, Note_on_c, 0, 90, 84
1, 176463, Note_off_c, 0, 101, 63
1, 176511, Note_off_c, 0, 90, 61
1, 176543, Note_on_c, 0, 101, 81
1, 176610, Note_off_c, 0, 101, 64
1, 176630, Note_on_c, 0, 91, 80
1, 176717, Note_off_c, 0, 91, 58
1, 176725, Note_on_c, 0, 92, 77
1, 176819, Note_off_c, 0, 92, 63
1, 176825, Note_on_c, 0, 93, 75
1, 176906, Note_off_c, 0, 93, 54
1, 176914, Note_on_c, 0, 98, 67
1, 176991, Note_on_c, 0, 96, 67
1, 177014, Note_off_c, 0, 98, 60
1, 177066, Note_on_c, 0, 94, 69
1, 177106, Note_off_c, 0, 96, 59
1, 177124, Control_c, 0, 64, 124
1, 177136, Note_on_c, 0, 91, 68
1, 177139, Control_c, 0, 64, 121
1, 177154, Control_c, 0, 64, 118
1, 177163, Note_off_c, 0, 94, 62
1, 177169, Control_c, 0, 64, 115
1, 177184, Control_c, 0, 64, 113
1, 177194, Note_off_c, 0, 91, 60
1, 177197, Control_c, 0, 64, 112
1, 177209, Note_on_c, 0, 89, 64
1, 177212, Control_c, 0, 64, 110
1, 177226, Control_c, 0, 64, 108
1, 177241, Control_c, 0, 64, 106
1, 177249, Note_off_c, 0, 89, 55
1, 177256, Control_c, 0, 64, 104
1, 177270, Control_c, 0, 64, 102
1, 177285, Note_on_c, 0, 86, 67
1, 177285, Control_c, 0, 64, 100
1, 177300, Control_c, 0, 64, 98
1, 177315, Control_c, 0, 64, 97
1, 177330, Control_c, 0, 64, 95
1, 177345, Control_c, 0, 64, 93
1, 177360, Note_on_c, 0, 87, 70
1, 177360, Control_c, 0, 64, 92
1, 177364, Note_off_c, 0, 86, 60
1, 177375, Control_c, 0, 64, 90
1, 177389, Control_c, 0, 64, 89
1, 177404, Control_c, 0, 64, 87
1, 177419, Control_c, 0, 64, 85
1, 177434, Control_c, 0, 64, 84
1, 177438, Note_on_c, 0, 91, 68
1, 177440, Note_off_c, 0, 87, 62
1, 177449, Control_c, 0, 64, 82
1, 177464, Control_c, 0, 64, 81
1, 177478, Control_c, 0, 64, 80
1, 177494, Control_c, 0, 64, 80
1, 177509, Control_c, 0, 64, 79
1, 177531, Control_c, 0, 64, 79
1, 177533, Note_on_c, 0, 89, 66
1, 177546, Control_c, 0, 64, 78
1, 177561, Control_c, 0, 64, 77
1, 177562, Note_off_c, 0, 91, 51
1, 177575, Control_c, 0, 64, 77
1, 177590, Control_c, 0, 64, 76
1, 177620, Control_c, 0, 64, 76
1, 177625, Note_on_c, 0, 87, 65
1, 177635, Control_c, 0, 64, 75
1, 177649, Control_c, 0, 64, 75
1, 177664, Control_c, 0, 64, 74
1, 177671, Note_off_c, 0, 89, 52
1, 177679, Control_c, 0, 64, 74
1, 177694, Control_c, 0, 64, 73
1, 177708, Control_c, 0, 64, 73
1, 177714, Note_on_c, 0, 84, 62
1, 177723, Control_c, 0, 64, 72
1, 177738, Control_c, 0, 64, 72
1, 177743, Note_off_c, 0, 87, 61
1, 177753, Control_c, 0, 64, 71
1, 177768, Control_c, 0, 64, 70
1, 177783, Control_c, 0, 64, 70
1, 177784, Note_off_c, 0, 84, 64
1, 177798, Control_c, 0, 64, 69
1, 177805, Note_on_c, 0, 81, 54
1, 177813, Control_c, 0, 64, 69
1, 177843, Control_c, 0, 64, 68
1, 177872, Control_c, 0, 64, 68
1, 177895, Note_on_c, 0, 82, 62
1, 177895, Note_off_c, 0, 81, 59
1, 177901, Control_c, 0, 64, 67
1, 177931, Control_c, 0, 64, 67
1, 177946, Control_c, 0, 64, 66
1, 177961, Control_c, 0, 64, 66
1, 177975, Control_c, 0, 64, 65
1, 177992, Note_on_c, 0, 86, 57
1, 177998, Note_off_c, 0, 82, 61
1, 178005, Control_c, 0, 64, 65
1, 178020, Control_c, 0, 64, 64
1, 178049, Control_c, 0, 64, 63
1, 178089, Note_on_c, 0, 84, 62
1, 178126, Note_off_c, 0, 86, 37
1, 178182, Note_on_c, 0, 82, 62
1, 178225, Note_off_c, 0, 84, 58
1, 178257, Control_c, 0, 64, 63
1, 178290, Note_on_c, 0, 79, 57
1, 178310, Control_c, 0, 64, 62
1, 178311, Note_off_c, 0, 82, 61
1, 178339, Control_c, 0, 64, 62
1, 178367, Note_off_c, 0, 79, 61
1, 178369, Control_c, 0, 64, 61
1, 178380, Note_on_c, 0, 77, 56
1, 178413, Control_c, 0, 64, 61
1, 178428, Control_c, 0, 64, 60
1, 178443, Control_c, 0, 64, 60
1, 178471, Note_off_c, 0, 77, 59
1, 178482, Note_on_c, 0, 74, 57
1, 178487, Control_c, 0, 64, 59
1, 178517, Control_c, 0, 64, 59
1, 178531, Control_c, 0, 64, 58
1, 178573, Note_off_c, 0, 74, 64
1, 178578, Note_on_c, 0, 75, 62
1, 178606, Control_c, 0, 64, 58
1, 178621, Control_c, 0, 64, 57
1, 178650, Control_c, 0, 64, 57
1, 178665, Control_c, 0, 64, 56
1, 178680, Control_c, 0, 64, 56
1, 178692, Note_on_c, 0, 79, 63
1, 178699, Note_off_c, 0, 75, 62
1, 178799, Note_on_c, 0, 77, 66
1, 178815, Note_off_c, 0, 79, 55
1, 178908, Note_on_c, 0, 75, 61
1, 178957, Note_off_c, 0, 77, 49
1, 179024, Note_on_c, 0, 72, 60
1, 179073, Control_c, 0, 64, 56
1, 179090, Note_off_c, 0, 75, 39
1, 179103, Control_c, 0, 64, 57
1, 179118, Control_c, 0, 64, 57
1, 179147, Control_c, 0, 64, 58
1, 179150, Note_off_c, 0, 72, 63
1, 179165, Note_on_c, 0, 60, 41
1, 179171, Note_on_c, 0, 69, 54
1, 179192, Control_c, 0, 64, 58
1, 179266, Control_c, 0, 64, 59
1, 179279, Note_off_c, 0, 60, 57
1, 179303, Note_on_c, 0, 70, 61
1, 179309, Note_on_c, 0, 62, 49
1, 179317, Note_off_c, 0, 69, 57
1, 179354, Control_c, 0, 64, 59
1, 179395, Note_off_c, 0, 62, 61
1, 179425, Note_on_c, 0, 74, 60
1, 179430, Note_off_c, 0, 70, 61
1, 179434, Note_on_c, 0, 65, 54
1, 179503, Control_c, 0, 64, 60
1, 179518, Note_off_c, 0, 65, 61
1, 179533, Note_on_c, 0, 72, 65
1, 179537, Note_on_c, 0, 63, 57
1, 179540, Note_off_c, 0, 74, 57
1, 179609, Note_off_c, 0, 63, 62
1, 179640, Note_on_c, 0, 70, 66
1, 179656, Note_on_c, 0, 62, 57
1, 179677, Note_off_c, 0, 72, 58
1, 179730, Note_off_c, 0, 62, 45
1, 179744, Note_on_c, 0, 67, 70
1, 179748, Note_on_c, 0, 58, 58
1, 179762, Note_off_c, 0, 70, 61
1, 179840, Note_off_c, 0, 67, 61
1, 179846, Note_off_c, 0, 58, 62
1, 179854, Note_on_c, 0, 65, 63
1, 179856, Note_on_c, 0, 57, 53
1, 179932, Note_off_c, 0, 57, 55
1, 179944, Note_off_c, 0, 65, 64
1, 179947, Note_on_c, 0, 62, 69
1, 179956, Control_c, 0, 64, 59
1, 179958, Note_on_c, 0, 53, 59
1, 180026, Note_off_c, 0, 53, 62
1, 180056, Note_on_c, 0, 55, 52
1, 180056, Note_on_c, 0, 63, 67
1, 180058, Note_off_c, 0, 62, 59
1, 180164, Note_on_c, 0, 67, 64
1, 180170, Note_off_c, 0, 63, 62
1, 180172, Note_on_c, 0, 58, 57
1, 180175, Note_off_c, 0, 55, 60
1, 180248, Note_off_c, 0, 58, 61
1, 180274, Note_off_c, 0, 67, 55
1, 180275, Note_on_c, 0, 65, 63
1, 180297, Note_on_c, 0, 57, 54
1, 180372, Note_off_c, 0, 57, 50
1, 180396, Note_on_c, 0, 63, 61
1, 180401, Note_on_c, 0, 55, 51
1, 180415, Control_c, 0, 64, 59
1, 180428, Note_off_c, 0, 65, 52
1, 180488, Note_off_c, 0, 55, 62
1, 180525, Note_on_c, 0, 60, 62
1, 180529, Note_on_c, 0, 51, 50
1, 180547, Note_off_c, 0, 63, 58
1, 180626, Note_off_c, 0, 60, 59
1, 180641, Note_off_c, 0, 51, 55
1, 180646, Note_on_c, 0, 48, 56
1, 180653, Note_on_c, 0, 57, 54
1, 180720, Control_c, 0, 64, 59
1, 180780, Note_off_c, 0, 57, 50
1, 180791, Note_on_c, 0, 60, 55
1, 180809, Note_off_c, 0, 48, 35
1, 180812, Note_on_c, 0, 51, 44
1, 180904, Note_off_c, 0, 60, 60
1, 180937, Note_on_c, 0, 55, 47
1, 180941, Control_c, 0, 64, 59
1, 181078, Note_off_c, 0, 55, 60
1, 181089, Control_c, 0, 64, 58
1, 181095, Note_on_c, 0, 53, 46
1, 181223, Control_c, 0, 64, 58
1, 181271, Note_off_c, 0, 51, 52
1, 181273, Note_on_c, 0, 50, 43
1, 181333, Control_c, 0, 64, 57
1, 181378, Control_c, 0, 64, 56
1, 181393, Control_c, 0, 64, 56
1, 181408, Control_c, 0, 64, 55
1, 181423, Control_c, 0, 64, 53
1, 181438, Control_c, 0, 64, 47
1, 181450, Note_on_c, 0, 48, 49
1, 181452, Control_c, 0, 64, 34
1, 181467, Control_c, 0, 64, 0
1, 181518, Note_off_c, 0, 50, 27
1, 181631, Control_c, 0, 64, 10
1, 181646, Control_c, 0, 64, 58
1, 181659, Note_off_c, 0, 48, 56
1, 181661, Control_c, 0, 64, 63
1, 181663, Note_on_c, 0, 46, 44
1, 181676, Control_c, 0, 64, 64
1, 181690, Note_off_c, 0, 53, 37
1, 181690, Control_c, 0, 64, 65
1, 181705, Control_c, 0, 64, 67
1, 181720, Control_c, 0, 64, 69
1, 181735, Control_c, 0, 64, 71
1, 181749, Control_c, 0, 64, 73
1, 181764, Control_c, 0, 64, 74
1, 181779, Control_c, 0, 64, 75
1, 181794, Control_c, 0, 64, 75
1, 181809, Control_c, 0, 64, 76
1, 181823, Control_c, 0, 64, 76
1, 181853, Control_c, 0, 64, 77
1, 181971, Control_c, 0, 64, 76
1, 181981, Note_on_c, 0, 62, 54
1, 181986, Control_c, 0, 64, 73
1, 182001, Note_on_c, 0, 41, 43
1, 182001, Control_c, 0, 64, 67
1, 182004, Note_off_c, 0, 46, 37
1, 182004, Note_on_c, 0, 57, 42
1, 182023, Control_c, 0, 64, 34
1, 182038, Control_c, 0, 64, 0
1, 182040, Note_on_c, 0, 53, 11
1, 182127, Control_c, 0, 64, 61
1, 182141, Control_c, 0, 64, 69
1, 182156, Control_c, 0, 64, 73
1, 182171, Control_c, 0, 64, 77
1, 182186, Control_c, 0, 64, 80
1, 182195, Note_off_c, 0, 53, 36
1, 182201, Control_c, 0, 64, 82
1, 182216, Control_c, 0, 64, 85
1, 182230, Control_c, 0, 64, 88
1, 182245, Control_c, 0, 64, 91
1, 182260, Control_c, 0, 64, 93
1, 182263, Note_off_c, 0, 62, 53
1, 182273, Note_off_c, 0, 57, 35
1, 182275, Control_c, 0, 64, 95
1, 182275, Note_off_c, 0, 41, 43
1, 182291, Control_c, 0, 64, 97
1, 182306, Control_c, 0, 64, 98
1, 182320, Control_c, 0, 64, 100
1, 182335, Control_c, 0, 64, 101
1, 182350, Control_c, 0, 64, 102
1, 182365, Control_c, 0, 64, 103
1, 182380, Control_c, 0, 64, 103
1, 182394, Control_c, 0, 64, 104
1, 182409, Control_c, 0, 64, 104
1, 182439, Control_c, 0, 64, 105
1, 182469, Control_c, 0, 64, 105
1, 182607, Note_on_c, 0, 62, 62
1, 182634, Note_on_c, 0, 58, 48
1, 182646, Control_c, 0, 64, 105
1, 182651, Note_on_c, 0, 53, 32
1, 182654, Note_on_c, 0, 46, 38
1, 182661, Control_c, 0, 64, 104
1, 182676, Control_c, 0, 64, 102
1, 182690, Control_c, 0, 64, 96
1, 182705, Control_c, 0, 64, 87
1, 182720, Control_c, 0, 64, 74
1, 182735, Control_c, 0, 64, 62
1, 182750, Control_c, 0, 64, 0
1, 182802, Control_c, 0, 64, 41
1, 182817, Control_c, 0, 64, 65
1, 182832, Control_c, 0, 64, 69
1, 182846, Control_c, 0, 64, 72
1, 182861, Control_c, 0, 64, 76
1, 182876, Control_c, 0, 64, 79
1, 182890, Control_c, 0, 64, 83
1, 182905, Control_c, 0, 64, 86
1, 182920, Control_c, 0, 64, 89
1, 182928, Note_off_c, 0, 58, 36
1, 182935, Control_c, 0, 64, 91
1, 182950, Control_c, 0, 64, 94
1, 182964, Control_c, 0, 64, 96
1, 182972, Note_off_c, 0, 62, 50
1, 182979, Control_c, 0, 64, 98
1, 182994, Control_c, 0, 64, 100
1, 183009, Control_c, 0, 64, 101
1, 183024, Control_c, 0, 64, 102
1, 183030, Note_off_c, 0, 53, 41
1, 183033, Note_off_c, 0, 46, 39
1, 183038, Control_c, 0, 64, 103
1, 183053, Control_c, 0, 64, 103
1, 183068, Control_c, 0, 64, 104
1, 183083, Control_c, 0, 64, 105
1, 183099, Control_c, 0, 64, 105
1, 183113, Control_c, 0, 64, 106
1, 183128, Control_c, 0, 64, 106
1, 183158, Control_c, 0, 64, 107
1, 183366, Control_c, 0, 64, 106
1, 183381, Control_c, 0, 64, 102
1, 183396, Control_c, 0, 64, 92
1, 183397, Note_on_c, 0, 62, 59
1, 183403, Note_on_c, 0, 41, 46
1, 183411, Control_c, 0, 64, 78
1, 183418, Note_on_c, 0, 57, 46
1, 183426, Control_c, 0, 64, 64
1, 183441, Control_c, 0, 64, 0
1, 183447, Note_on_c, 0, 53, 14
1, 183485, Control_c, 0, 64, 67
1, 183500, Control_c, 0, 64, 76
1, 183521, Control_c, 0, 64, 84
1, 183536, Control_c, 0, 64, 89
1, 183545, Note_off_c, 0, 57, 37
1, 183551, Control_c, 0, 64, 93
1, 183566, Control_c, 0, 64, 97
1, 183577, Note_off_c, 0, 62, 55
1, 183581, Control_c, 0, 64, 101
1, 183593, Note_off_c, 0, 53, 42
1, 183596, Control_c, 0, 64, 105
1, 183611, Note_off_c, 0, 41, 46
1, 183611, Control_c, 0, 64, 108
1, 183626, Control_c, 0, 64, 111
1, 183640, Control_c, 0, 64, 112
1, 183655, Control_c, 0, 64, 114
1, 183670, Control_c, 0, 64, 115
1, 183685, Control_c, 0, 64, 117
1, 183700, Control_c, 0, 64, 117
1, 183714, Control_c, 0, 64, 118
1, 183738, Note_on_c, 0, 62, 68
1, 183759, Control_c, 0, 64, 117
1, 183761, Note_on_c, 0, 58, 53
1, 183769, Note_on_c, 0, 46, 41
1, 183774, Control_c, 0, 64, 113
1, 183779, Note_on_c, 0, 53, 24
1, 183788, Control_c, 0, 64, 102
1, 183803, Control_c, 0, 64, 88
1, 183818, Control_c, 0, 64, 73
1, 183833, Control_c, 0, 64, 43
1, 183847, Control_c, 0, 64, 0
1, 183877, Control_c, 0, 64, 36
1, 183893, Control_c, 0, 64, 67
1, 183908, Control_c, 0, 64, 74
1, 183923, Control_c, 0, 64, 81
1, 183937, Control_c, 0, 64, 84
1, 183952, Control_c, 0, 64, 88
1, 183963, Note_off_c, 0, 58, 36
1, 183967, Control_c, 0, 64, 93
1, 183982, Control_c, 0, 64, 97
1, 183997, Control_c, 0, 64, 101
1, 184005, Note_off_c, 0, 62, 61
1, 184011, Control_c, 0, 64, 105
1, 184026, Control_c, 0, 64, 108
1, 184041, Control_c, 0, 64, 111
1, 184056, Control_c, 0, 64, 114
1, 184071, Control_c, 0, 64, 118
1, 184085, Control_c, 0, 64, 122
1, 184090, Note_off_c, 0, 53, 39
1, 184099, Note_off_c, 0, 46, 40
1, 184100, Control_c, 0, 64, 126
1, 184115, Control_c, 0, 64, 127
1, 184480, Note_on_c, 0, 70, 64
1, 184493, Control_c, 0, 64, 127
1, 184495, Note_on_c, 0, 41, 43
1, 184504, Note_on_c, 0, 62, 51
1, 184508, Control_c, 0, 64, 115
1, 184523, Control_c, 0, 64, 103
1, 184538, Control_c, 0, 64, 87
1, 184538, Note_on_c, 0, 53, 8
1, 184552, Control_c, 0, 64, 73
1, 184567, Control_c, 0, 64, 54
1, 184582, Control_c, 0, 64, 0
1, 184612, Control_c, 0, 64, 58
1, 184626, Control_c, 0, 64, 70
1, 184641, Control_c, 0, 64, 79
1, 184656, Control_c, 0, 64, 83
1, 184660, Note_off_c, 0, 62, 34
1, 184670, Control_c, 0, 64, 85
1, 184678, Note_off_c, 0, 53, 33
1, 184686, Control_c, 0, 64, 88
1, 184701, Note_off_c, 0, 41, 44
1, 184701, Control_c, 0, 64, 92
1, 184716, Control_c, 0, 64, 96
1, 184731, Control_c, 0, 64, 101
1, 184746, Control_c, 0, 64, 104
1, 184755, Note_off_c, 0, 70, 37
1, 184760, Control_c, 0, 64, 106
1, 184775, Control_c, 0, 64, 109
1, 184790, Control_c, 0, 64, 111
1, 184805, Control_c, 0, 64, 113
1, 184820, Control_c, 0, 64, 114
1, 184834, Control_c, 0, 64, 115
1, 184849, Control_c, 0, 64, 116
1, 184864, Control_c, 0, 64, 116
1, 184879, Control_c, 0, 64, 117
1, 184982, Note_on_c, 0, 62, 52
1, 184997, Control_c, 0, 64, 116
1, 185000, Note_on_c, 0, 58, 43
1, 185019, Note_on_c, 0, 46, 38
1, 185020, Control_c, 0, 64, 115
1, 185035, Control_c, 0, 64, 112
1, 185040, Note_on_c, 0, 53, 23
1, 185049, Control_c, 0, 64, 109
1, 185064, Control_c, 0, 64, 103
1, 185079, Control_c, 0, 64, 94
1, 185093, Control_c, 0, 64, 83
1, 185108, Control_c, 0, 64, 68
1, 185123, Control_c, 0, 64, 0
1, 185241, Control_c, 0, 64, 58
1, 185256, Control_c, 0, 64, 66
1, 185271, Control_c, 0, 64, 70
1, 185286, Control_c, 0, 64, 73
1, 185301, Control_c, 0, 64, 77
1, 185316, Control_c, 0, 64, 81
1, 185331, Control_c, 0, 64, 84
1, 185346, Control_c, 0, 64, 87
1, 185360, Control_c, 0, 64, 90
1, 185367, Note_off_c, 0, 53, 40
1, 185375, Control_c, 0, 64, 93
1, 185389, Note_off_c, 0, 46, 37
1, 185390, Control_c, 0, 64, 96
1, 185405, Control_c, 0, 64, 99
1, 185420, Control_c, 0, 64, 101
1, 185429, Note_off_c, 0, 58, 33
1, 185434, Control_c, 0, 64, 103
1, 185448, Control_c, 0, 64, 105
1, 185463, Control_c, 0, 64, 106
1, 185478, Control_c, 0, 64, 108
1, 185494, Control_c, 0, 64, 109
1, 185508, Control_c, 0, 64, 110
1, 185523, Control_c, 0, 64, 111
1, 185538, Control_c, 0, 64, 111
1, 185553, Control_c, 0, 64, 112
1, 185597, Control_c, 0, 64, 112
1, 185797, Control_c, 0, 64, 112
1, 185812, Control_c, 0, 64, 111
1, 185827, Control_c, 0, 64, 109
1, 185837, Note_on_c, 0, 56, 33
1, 185842, Control_c, 0, 64, 104
1, 185849, Note_on_c, 0, 40, 35
1, 185857, Control_c, 0, 64, 95
1, 185871, Control_c, 0, 64, 83
1, 185886, Control_c, 0, 64, 68
1, 185901, Control_c, 0, 64, 0
1, 185906, Poly_aftertouch_c, 0, 52, 127
1, 185960, Control_c, 0, 64, 51
1, 185975, Control_c, 0, 64, 67
1, 185988, Poly_aftertouch_c, 0, 52, 0
1, 185989, Control_c, 0, 64, 72
1, 186004, Control_c, 0, 64, 77
1, 186015, Note_off_c, 0, 62, 37
1, 186019, Control_c, 0, 64, 80
1, 186034, Control_c, 0, 64, 83
1, 186049, Control_c, 0, 64, 85
1, 186061, Note_off_c, 0, 40, 41
1, 186064, Control_c, 0, 64, 89
1, 186079, Control_c, 0, 64, 93
1, 186094, Control_c, 0, 64, 95
1, 186108, Control_c, 0, 64, 97
1, 186123, Control_c, 0, 64, 99
1, 186138, Control_c, 0, 64, 101
1, 186153, Control_c, 0, 64, 103
1, 186168, Control_c, 0, 64, 104
1, 186173, Note_off_c, 0, 56, 34
1, 186183, Control_c, 0, 64, 106
1, 186198, Control_c, 0, 64, 107
1, 186213, Control_c, 0, 64, 107
1, 186228, Control_c, 0, 64, 108
1, 186257, Control_c, 0, 64, 108
1, 186410, Note_on_c, 0, 61, 38
1, 186416, Note_on_c, 0, 57, 32
1, 186421, Control_c, 0, 64, 108
1, 186431, Note_on_c, 0, 45, 29
1, 186436, Control_c, 0, 64, 105
1, 186451, Control_c, 0, 64, 97
1, 186463, Note_on_c, 0, 52, 16
1, 186466, Control_c, 0, 64, 87
1, 186480, Control_c, 0, 64, 74
1, 186495, Control_c, 0, 64, 57
1, 186517, Control_c, 0, 64, 0
1, 186562, Control_c, 0, 64, 64
1, 186577, Control_c, 0, 64, 71
1, 186592, Control_c, 0, 64, 77
1, 186606, Control_c, 0, 64, 82
1, 186621, Control_c, 0, 64, 85
1, 186636, Control_c, 0, 64, 88
1, 186651, Control_c, 0, 64, 93
1, 186665, Control_c, 0, 64, 98
1, 186680, Control_c, 0, 64, 102
1, 186695, Control_c, 0, 64, 105
1, 186710, Control_c, 0, 64, 108
1, 186725, Control_c, 0, 64, 111
1, 186739, Control_c, 0, 64, 114
1, 186753, Note_off_c, 0, 45, 40
1, 186754, Note_off_c, 0, 52, 39
1, 186754, Control_c, 0, 64, 117
1, 186760, Note_off_c, 0, 61, 31
1, 186769, Control_c, 0, 64, 119
1, 186784, Control_c, 0, 64, 121
1, 186799, Control_c, 0, 64, 122
1, 186801, Note_off_c, 0, 57, 31
1, 186813, Control_c, 0, 64, 124
1, 186828, Control_c, 0, 64, 125
1, 186843, Control_c, 0, 64, 126
1, 186857, Control_c, 0, 64, 126
1, 186872, Control_c, 0, 64, 127
1, 186887, Control_c, 0, 64, 127
1, 187015, Note_on_c, 0, 69, 50
1, 187027, Note_on_c, 0, 40, 33
1, 187034, Note_on_c, 0, 61, 39
1, 187110, Poly_aftertouch_c, 0, 52, 127
1, 187115, Note_off_c, 0, 61, 47
1, 187116, Note_off_c, 0, 40, 47
1, 187141, Poly_aftertouch_c, 0, 52, 0
1, 187252, Note_off_c, 0, 69, 34
1, 187325, Control_c, 0, 64, 126
1, 187331, Note_on_c, 0, 61, 62
1, 187340, Control_c, 0, 64, 122
1, 187355, Control_c, 0, 64, 117
1, 187370, Note_on_c, 0, 45, 32
1, 187370, Control_c, 0, 64, 109
1, 187378, Note_on_c, 0, 57, 30
1, 187384, Control_c, 0, 64, 99
1, 187386, Note_on_c, 0, 52, 24
1, 187399, Control_c, 0, 64, 85
1, 187414, Control_c, 0, 64, 68
1, 187429, Control_c, 0, 64, 0
1, 187474, Control_c, 0, 64, 61
1, 187488, Control_c, 0, 64, 70
1, 187503, Control_c, 0, 64, 78
1, 187518, Control_c, 0, 64, 83
1, 187533, Control_c, 0, 64, 86
1, 187548, Control_c, 0, 64, 90
1, 187558, Note_off_c, 0, 61, 60
1, 187562, Control_c, 0, 64, 94
1, 187577, Control_c, 0, 64, 98
1, 187592, Control_c, 0, 64, 101
1, 187607, Note_off_c, 0, 57, 39
1, 187607, Control_c, 0, 64, 105
1, 187622, Control_c, 0, 64, 107
1, 187636, Control_c, 0, 64, 109
1, 187651, Control_c, 0, 64, 110
1, 187666, Control_c, 0, 64, 112
1, 187680, Control_c, 0, 64, 113
1, 187695, Control_c, 0, 64, 114
1, 187710, Control_c, 0, 64, 115
1, 187754, Control_c, 0, 64, 116
1, 187903, Control_c, 0, 64, 115
1, 187918, Note_on_c, 0, 60, 54
1, 187918, Control_c, 0, 64, 112
1, 187933, Control_c, 0, 64, 104
1, 187938, Note_on_c, 0, 38, 37
1, 187948, Note_off_c, 0, 45, 34
1, 187948, Control_c, 0, 64, 91
1, 187951, Note_on_c, 0, 54, 31
1, 187963, Control_c, 0, 64, 76
1, 187978, Note_off_c, 0, 52, 28
1, 187978, Control_c, 0, 64, 49
1, 187993, Control_c, 0, 64, 0
1, 188045, Control_c, 0, 64, 60
1, 188060, Control_c, 0, 64, 70
1, 188074, Control_c, 0, 64, 78
1, 188089, Control_c, 0, 64, 84
1, 188097, Note_off_c, 0, 54, 28
1, 188104, Control_c, 0, 64, 88
1, 188118, Control_c, 0, 64, 91
1, 188133, Control_c, 0, 64, 95
1, 188148, Control_c, 0, 64, 98
1, 188152, Note_off_c, 0, 60, 32
1, 188163, Control_c, 0, 64, 101
1, 188178, Control_c, 0, 64, 104
1, 188192, Control_c, 0, 64, 106
1, 188207, Control_c, 0, 64, 106
1, 188221, Note_off_c, 0, 38, 35
1, 188222, Control_c, 0, 64, 107
1, 188261, Note_on_c, 0, 58, 56
1, 188282, Note_on_c, 0, 55, 41
1, 188282, Control_c, 0, 64, 106
1, 188284, Note_on_c, 0, 43, 40
1, 188297, Control_c, 0, 64, 104
1, 188311, Control_c, 0, 64, 97
1, 188326, Control_c, 0, 64, 85
1, 188341, Control_c, 0, 64, 71
1, 188356, Control_c, 0, 64, 0
1, 188429, Control_c, 0, 64, 56
1, 188444, Control_c, 0, 64, 67
1, 188459, Control_c, 0, 64, 73
1, 188474, Control_c, 0, 64, 78
1, 188489, Control_c, 0, 64, 82
1, 188503, Control_c, 0, 64, 85
1, 188518, Control_c, 0, 64, 88
1, 188533, Control_c, 0, 64, 91
1, 188544, Note_off_c, 0, 55, 41
1, 188544, Note_off_c, 0, 58, 61
1, 188548, Control_c, 0, 64, 93
1, 188563, Control_c, 0, 64, 96
1, 188577, Control_c, 0, 64, 98
1, 188592, Control_c, 0, 64, 100
1, 188607, Control_c, 0, 64, 102
1, 188619, Note_off_c, 0, 43, 38
1, 188622, Control_c, 0, 64, 103
1, 188636, Control_c, 0, 64, 104
1, 188651, Control_c, 0, 64, 105
1, 188666, Control_c, 0, 64, 106
1, 188682, Control_c, 0, 64, 107
1, 188697, Control_c, 0, 64, 108
1, 188712, Control_c, 0, 64, 108
1, 188726, Control_c, 0, 64, 109
1, 188779, Control_c, 0, 64, 109
1, 188941, Control_c, 0, 64, 109
1, 188956, Control_c, 0, 64, 108
1, 188971, Control_c, 0, 64, 106
1, 188986, Note_on_c, 0, 63, 47
1, 188986, Control_c, 0, 64, 101
1, 189001, Control_c, 0, 64, 92
1, 189003, Note_on_c, 0, 36, 39
1, 189009, Note_on_c, 0, 60, 32
1, 189011, Note_on_c, 0, 55, 34
1, 189015, Control_c, 0, 64, 80
1, 189030, Control_c, 0, 64, 67
1, 189045, Control_c, 0, 64, 0
1, 189104, Control_c, 0, 64, 60
1, 189119, Control_c, 0, 64, 68
1, 189134, Control_c, 0, 64, 74
1, 189149, Control_c, 0, 64, 79
1, 189164, Control_c, 0, 64, 82
1, 189170, Note_off_c, 0, 55, 44
1, 189175, Note_off_c, 0, 60, 29
1, 189179, Control_c, 0, 64, 85
1, 189194, Control_c, 0, 64, 89
1, 189206, Note_off_c, 0, 63, 35
1, 189208, Control_c, 0, 64, 92
1, 189223, Control_c, 0, 64, 95
1, 189230, Note_off_c, 0, 36, 40
1, 189238, Control_c, 0, 64, 97
1, 189252, Control_c, 0, 64, 100
1, 189267, Control_c, 0, 64, 102
1, 189282, Control_c, 0, 64, 103
1, 189297, Control_c, 0, 64, 104
1, 189312, Control_c, 0, 64, 105
1, 189326, Control_c, 0, 64, 105
1, 189341, Control_c, 0, 64, 106
1, 189356, Control_c, 0, 64, 106
1, 189443, Note_on_c, 0, 62, 43
1, 189450, Note_on_c, 0, 41, 42
1, 189454, Note_on_c, 0, 58, 37
1, 189465, Note_on_c, 0, 53, 33
1, 189475, Control_c, 0, 64, 105
1, 189490, Control_c, 0, 64, 103
1, 189513, Control_c, 0, 64, 97
1, 189528, Control_c, 0, 64, 88
1, 189543, Control_c, 0, 64, 76
1, 189557, Control_c, 0, 64, 62
1, 189572, Control_c, 0, 64, 0
1, 189661, Control_c, 0, 64, 61
1, 189676, Control_c, 0, 64, 68
1, 189690, Control_c, 0, 64, 73
1, 189705, Control_c, 0, 64, 77
1, 189720, Control_c, 0, 64, 80
1, 189735, Control_c, 0, 64, 83
1, 189750, Control_c, 0, 64, 86
1, 189764, Control_c, 0, 64, 89
1, 189779, Control_c, 0, 64, 91
1, 189794, Control_c, 0, 64, 94
1, 189809, Control_c, 0, 64, 96
1, 189824, Control_c, 0, 64, 98
1, 189830, Note_off_c, 0, 58, 27
1, 189838, Control_c, 0, 64, 100
1, 189847, Note_off_c, 0, 53, 36
1, 189853, Control_c, 0, 64, 102
1, 189862, Note_off_c, 0, 62, 35
1, 189868, Control_c, 0, 64, 103
1, 189882, Control_c, 0, 64, 105
1, 189887, Note_off_c, 0, 41, 39
1, 189897, Control_c, 0, 64, 106
1, 189912, Control_c, 0, 64, 106
1, 189927, Control_c, 0, 64, 107
1, 189942, Control_c, 0, 64, 107
1, 189956, Control_c, 0, 64, 108
1, 190001, Control_c, 0, 64, 108
1, 190305, Note_on_c, 0, 60, 36
1, 190305, Control_c, 0, 64, 108
1, 190320, Control_c, 0, 64, 106
1, 190325, Note_on_c, 0, 57, 26
1, 190335, Control_c, 0, 64, 102
1, 190338, Note_on_c, 0, 41, 36
1, 190350, Control_c, 0, 64, 95
1, 190359, Note_on_c, 0, 53, 17
1, 190365, Control_c, 0, 64, 85
1, 190379, Control_c, 0, 64, 70
1, 190394, Control_c, 0, 64, 0
1, 190468, Control_c, 0, 64, 61
1, 190483, Control_c, 0, 64, 68
1, 190497, Note_off_c, 0, 57, 41
1, 190498, Control_c, 0, 64, 74
1, 190512, Control_c, 0, 64, 79
1, 190527, Control_c, 0, 64, 82
1, 190542, Control_c, 0, 64, 85
1, 190557, Control_c, 0, 64, 89
1, 190572, Control_c, 0, 64, 92
1, 190586, Control_c, 0, 64, 95
1, 190594, Note_off_c, 0, 60, 32
1, 190601, Control_c, 0, 64, 97
1, 190608, Note_off_c, 0, 41, 37
1, 190616, Control_c, 0, 64, 99
1, 190631, Control_c, 0, 64, 102
1, 190646, Control_c, 0, 64, 104
1, 190660, Control_c, 0, 64, 106
1, 190663, Note_off_c, 0, 53, 32
1, 190675, Control_c, 0, 64, 107
1, 190690, Control_c, 0, 64, 108
1, 190705, Control_c, 0, 64, 109
1, 190720, Control_c, 0, 64, 109
1, 190750, Control_c, 0, 64, 110
1, 190765, Control_c, 0, 64, 110
1, 190823, Control_c, 0, 64, 111
1, 190942, Control_c, 0, 64, 110
1, 190972, Control_c, 0, 64, 109
1, 190974, Note_on_c, 0, 62, 39
1, 190981, Note_on_c, 0, 34, 28
1, 190986, Control_c, 0, 64, 106
1, 190988, Note_on_c, 0, 58, 32
1, 190993, Note_on_c, 0, 46, 18
1, 191009, Control_c, 0, 64, 101
1, 191024, Control_c, 0, 64, 95
1, 191028, Note_on_c, 0, 53, 21
1, 191038, Control_c, 0, 64, 87
1, 191053, Control_c, 0, 64, 76
1, 191068, Control_c, 0, 64, 65
1, 191084, Control_c, 0, 64, 0
1, 191232, Control_c, 0, 64, 55
1, 191247, Control_c, 0, 64, 69
1, 191261, Control_c, 0, 64, 75
1, 191276, Control_c, 0, 64, 79
1, 191291, Control_c, 0, 64, 83
1, 191306, Control_c, 0, 64, 87
1, 191321, Control_c, 0, 64, 92
1, 191335, Control_c, 0, 64, 96
1, 191350, Control_c, 0, 64, 100
1, 191352, Note_off_c, 0, 53, 40
1, 191365, Control_c, 0, 64, 104
1, 191380, Control_c, 0, 64, 108
1, 191395, Control_c, 0, 64, 112
1, 191409, Control_c, 0, 64, 115
1, 191420, Note_off_c, 0, 58, 40
1, 191424, Control_c, 0, 64, 119
1, 191429, Note_off_c, 0, 62, 38
1, 191436, Note_off_c, 0, 46, 40
1, 191438, Control_c, 0, 64, 124
1, 191453, Control_c, 0, 64, 127
1, 191461, Note_off_c, 0, 34, 40
1, 191986, Note_on_c, 0, 74, 67
1, 192014, Note_on_c, 0, 65, 50
1, 192017, Note_on_c, 0, 46, 41
1, 192018, Note_on_c, 0, 58, 43
1, 192024, Note_on_c, 0, 62, 37
1, 192048, Note_on_c, 0, 53, 25
1, 192058, Note_off_c, 0, 65, 54
1, 192082, Note_off_c, 0, 62, 43
1, 192108, Note_off_c, 0, 53, 44
1, 192126, Note_off_c, 0, 58, 55
1, 192151, Note_off_c, 0, 74, 57
1, 192162, Note_off_c, 0, 46, 35
1, 192405, Note_on_c, 0, 74, 78
1, 192429, Note_on_c, 0, 66, 57
1, 192434, Note_on_c, 0, 45, 48
1, 192446, Note_on_c, 0, 62, 41
1, 192452, Note_on_c, 0, 60, 42
1, 192455, Note_on_c, 0, 57, 38
1, 192456, Note_on_c, 0, 50, 36
1, 192468, Control_c, 0, 64, 117
1, 192483, Control_c, 0, 64, 107
1, 192506, Control_c, 0, 64, 96
1, 192521, Control_c, 0, 64, 83
1, 192535, Control_c, 0, 64, 70
1, 192550, Control_c, 0, 64, 0
1, 192699, Control_c, 0, 64, 39
1, 192714, Control_c, 0, 64, 66
1, 192729, Control_c, 0, 64, 72
1, 192744, Control_c, 0, 64, 77
1, 192759, Control_c, 0, 64, 81
1, 192774, Control_c, 0, 64, 85
1, 192788, Control_c, 0, 64, 89
1, 192803, Control_c, 0, 64, 93
1, 192818, Control_c, 0, 64, 97
1, 192833, Control_c, 0, 64, 100
1, 192847, Control_c, 0, 64, 103
1, 192862, Control_c, 0, 64, 107
1, 192877, Control_c, 0, 64, 111
1, 192892, Control_c, 0, 64, 115
1, 192906, Control_c, 0, 64, 119
1, 192922, Control_c, 0, 64, 123
1, 192937, Control_c, 0, 64, 127
1, 192952, Control_c, 0, 64, 127
1, 192962, Note_off_c, 0, 74, 63
1, 192989, Note_off_c, 0, 66, 64
1, 192995, Note_off_c, 0, 62, 40
1, 193021, Note_off_c, 0, 60, 33
1, 193029, Note_off_c, 0, 45, 34
1, 193606, Note_on_c, 0, 70, 64
1, 193650, Note_on_c, 0, 43, 40
1, 193671, Control_c, 0, 64, 119
1, 193676, Note_on_c, 0, 62, 28
1, 193677, Note_on_c, 0, 67, 34
1, 193686, Control_c, 0, 64, 107
1, 193701, Control_c, 0, 64, 94
1, 193716, Control_c, 0, 64, 80
1, 193726, Poly_aftertouch_c, 0, 58, 127
1, 193730, Control_c, 0, 64, 63
1, 193745, Control_c, 0, 64, 0
1, 193793, Note_off_c, 0, 50, 34
1, 193819, Control_c, 0, 64, 65
1, 193834, Control_c, 0, 64, 75
1, 193848, Control_c, 0, 64, 83
1, 193863, Control_c, 0, 64, 90
1, 193878, Control_c, 0, 64, 94
1, 193893, Control_c, 0, 64, 98
1, 193908, Control_c, 0, 64, 104
1, 193916, Note_off_c, 0, 57, 32
1, 193919, Note_off_c, 0, 62, 46
1, 193922, Control_c, 0, 64, 108
1, 193937, Control_c, 0, 64, 112
1, 193947, Note_off_c, 0, 67, 34
1, 193952, Control_c, 0, 64, 116
1, 193954, Note_off_c, 0, 70, 54
1, 193967, Control_c, 0, 64, 119
1, 193982, Control_c, 0, 64, 123
1, 193984, Poly_aftertouch_c, 0, 58, 0
1, 194004, Control_c, 0, 64, 127
1, 194029, Note_off_c, 0, 43, 42
1, 194231, Note_on_c, 0, 67, 57
1, 194241, Control_c, 0, 64, 120
1, 194242, Note_on_c, 0, 48, 47
1, 194255, Control_c, 0, 64, 104
1, 194259, Note_on_c, 0, 63, 47
1, 194263, Note_on_c, 0, 58, 45
1, 194271, Control_c, 0, 64, 88
1, 194286, Control_c, 0, 64, 72
1, 194301, Control_c, 0, 64, 0
1, 194345, Control_c, 0, 64, 62
1, 194360, Control_c, 0, 64, 74
1, 194375, Control_c, 0, 64, 83
1, 194390, Control_c, 0, 64, 92
1, 194393, Note_off_c, 0, 63, 36
1, 194405, Control_c, 0, 64, 96
1, 194409, Note_off_c, 0, 58, 38
1, 194416, Note_off_c, 0, 67, 53
1, 194420, Control_c, 0, 64, 101
1, 194434, Control_c, 0, 64, 106
1, 194449, Control_c, 0, 64, 112
1, 194464, Control_c, 0, 64, 116
1, 194471, Note_off_c, 0, 48, 43
1, 194479, Control_c, 0, 64, 121
1, 194494, Control_c, 0, 64, 127
1, 194509, Control_c, 0, 64, 127
1, 194603, Note_on_c, 0, 69, 53
1, 194619, Note_on_c, 0, 67, 63
1, 194640, Note_on_c, 0, 63, 47
1, 194646, Note_on_c, 0, 58, 39
1, 194658, Note_on_c, 0, 48, 42
1, 194671, Control_c, 0, 64, 123
1, 194686, Control_c, 0, 64, 105
1, 194701, Control_c, 0, 64, 89
1, 194716, Control_c, 0, 64, 71
1, 194731, Control_c, 0, 64, 0
1, 194783, Control_c, 0, 64, 36
1, 194798, Control_c, 0, 64, 69
1, 194812, Control_c, 0, 64, 79
1, 194819, Note_off_c, 0, 69, 35
1, 194827, Control_c, 0, 64, 87
1, 194829, Note_off_c, 0, 58, 43
1, 194842, Control_c, 0, 64, 92
1, 194857, Control_c, 0, 64, 97
1, 194871, Control_c, 0, 64, 104
1, 194886, Control_c, 0, 64, 110
1, 194901, Control_c, 0, 64, 117
1, 194916, Control_c, 0, 64, 125
1, 194931, Control_c, 0, 64, 127
1, 195022, Note_off_c, 0, 63, 16
1, 195109, Control_c, 0, 64, 119
1, 195124, Control_c, 0, 64, 98
1, 195131, Note_on_c, 0, 63, 17
1, 195139, Control_c, 0, 64, 79
1, 195140, Note_on_c, 0, 65, 57
1, 195148, Note_off_c, 0, 48, 41
1, 195154, Note_on_c, 0, 41, 43
1, 195154, Control_c, 0, 64, 26
1, 195168, Control_c, 0, 64, 0
1, 195173, Note_on_c, 0, 57, 36
1, 195181, Note_on_c, 0, 53, 23
1, 195198, Control_c, 0, 64, 56
1, 195209, Note_off_c, 0, 57, 55
1, 195213, Control_c, 0, 64, 73
1, 195227, Note_off_c, 0, 63, 55
1, 195228, Control_c, 0, 64, 84
1, 195242, Note_off_c, 0, 53, 58
1, 195242, Control_c, 0, 64, 94
1, 195257, Control_c, 0, 64, 99
1, 195272, Control_c, 0, 64, 103
1, 195287, Control_c, 0, 64, 108
1, 195302, Control_c, 0, 64, 115
1, 195308, Note_off_c, 0, 67, 33
1, 195310, Note_off_c, 0, 41, 37
1, 195317, Control_c, 0, 64, 125
1, 195332, Control_c, 0, 64, 127
1, 195450, Control_c, 0, 64, 116
1, 195455, Note_on_c, 0, 62, 49
1, 195460, Note_on_c, 0, 58, 42
1, 195465, Control_c, 0, 64, 95
1, 195471, Note_on_c, 0, 46, 38
1, 195476, Note_on_c, 0, 34, 39
1, 195480, Control_c, 0, 64, 75
1, 195501, Control_c, 0, 64, 0
1, 195546, Control_c, 0, 64, 38
1, 195561, Control_c, 0, 64, 70
1, 195576, Control_c, 0, 64, 83
1, 195591, Control_c, 0, 64, 97
1, 195606, Control_c, 0, 64, 109
1, 195621, Control_c, 0, 64, 122
1, 195624, Note_off_c, 0, 65, 62
1, 195627, Note_off_c, 0, 62, 61
1, 195634, Note_off_c, 0, 58, 41
1, 195635, Control_c, 0, 64, 127
1, 195660, Note_off_c, 0, 34, 55
1, 195663, Note_off_c, 0, 46, 47
1, 195971, Note_on_c, 0, 74, 72
1, 195975, Note_on_c, 0, 46, 52
1, 195989, Note_on_c, 0, 58, 41
1, 195991, Note_on_c, 0, 62, 49
1, 195999, Note_on_c, 0, 65, 41
1, 196002, Note_on_c, 0, 53, 39
1, 196033, Note_off_c, 0, 62, 45
1, 196081, Note_off_c, 0, 58, 35
1, 196103, Note_off_c, 0, 53, 38
1, 196112, Note_off_c, 0, 65, 34
1, 196124, Note_off_c, 0, 46, 35
1, 196274, Note_on_c, 0, 70, 79
1, 196283, Note_on_c, 0, 46, 51
1, 196290, Note_on_c, 0, 65, 55
1, 196296, Note_on_c, 0, 58, 52
1, 196303, Note_on_c, 0, 53, 44
1, 196304, Note_on_c, 0, 62, 50
1, 196318, Note_off_c, 0, 74, 59
1, 196366, Note_off_c, 0, 62, 48
1, 196370, Note_off_c, 0, 65, 60
1, 196473, Note_off_c, 0, 46, 62
1, 196482, Note_off_c, 0, 53, 51
1, 196483, Note_off_c, 0, 70, 61
1, 196509, Note_off_c, 0, 58, 62
1, 196955, Note_on_c, 0, 79, 81
1, 196971, Note_on_c, 0, 61, 44
1, 196971, Note_on_c, 0, 70, 67
1, 196973, Note_on_c, 0, 58, 45
1, 196979, Note_on_c, 0, 67, 60
1, 196992, Note_on_c, 0, 64, 46
1, 197015, Control_c, 0, 64, 114
1, 197029, Control_c, 0, 64, 94
1, 197044, Control_c, 0, 64, 74
1, 197059, Control_c, 0, 64, 0
1, 197118, Control_c, 0, 64, 63
1, 197133, Control_c, 0, 64, 73
1, 197147, Control_c, 0, 64, 83
1, 197162, Control_c, 0, 64, 93
1, 197177, Control_c, 0, 64, 100
1, 197192, Control_c, 0, 64, 107
1, 197207, Control_c, 0, 64, 115
1, 197221, Control_c, 0, 64, 126
1, 197236, Control_c, 0, 64, 127
1, 197239, Note_off_c, 0, 70, 59
1, 197242, Note_off_c, 0, 67, 54
1, 197242, Note_off_c, 0, 79, 55
1, 197250, Note_off_c, 0, 61, 58
1, 197279, Note_off_c, 0, 64, 57
1, 197327, Note_off_c, 0, 58, 48
1, 197560, Note_on_c, 0, 77, 75
1, 197564, Control_c, 0, 64, 103
1, 197572, Note_on_c, 0, 58, 44
1, 197578, Control_c, 0, 64, 84
1, 197579, Note_on_c, 0, 70, 52
1, 197582, Note_on_c, 0, 65, 45
1, 197593, Control_c, 0, 64, 66
1, 197594, Note_on_c, 0, 62, 32
1, 197608, Control_c, 0, 64, 0
1, 197638, Control_c, 0, 64, 36
1, 197652, Control_c, 0, 64, 75
1, 197667, Control_c, 0, 64, 90
1, 197682, Control_c, 0, 64, 105
1, 197696, Control_c, 0, 64, 113
1, 197711, Control_c, 0, 64, 121
1, 197713, Note_off_c, 0, 65, 52
1, 197714, Note_off_c, 0, 58, 60
1, 197726, Control_c, 0, 64, 127
1, 197752, Note_off_c, 0, 62, 37
1, 197758, Note_off_c, 0, 70, 20
1, 197767, Note_off_c, 0, 77, 59
1, 197858, Note_on_c, 0, 76, 75
1, 197865, Note_on_c, 0, 61, 53
1, 197871, Note_on_c, 0, 70, 65
1, 197875, Note_on_c, 0, 58, 45
1, 197882, Control_c, 0, 64, 107
1, 197885, Note_on_c, 0, 67, 45
1, 197896, Control_c, 0, 64, 85
1, 197911, Control_c, 0, 64, 66
1, 197926, Control_c, 0, 64, 0
1, 197949, Note_off_c, 0, 70, 50
1, 197956, Control_c, 0, 64, 52
1, 197970, Control_c, 0, 64, 73
1, 197985, Control_c, 0, 64, 84
1, 198000, Control_c, 0, 64, 92
1, 198014, Control_c, 0, 64, 96
1, 198029, Control_c, 0, 64, 102
1, 198044, Control_c, 0, 64, 110
1, 198059, Control_c, 0, 64, 121
1, 198065, Note_off_c, 0, 58, 37
1, 198070, Note_off_c, 0, 61, 58
1, 198074, Control_c, 0, 64, 127
1, 198077, Note_off_c, 0, 67, 53
1, 198299, Note_on_c, 0, 77, 76
1, 198309, Note_on_c, 0, 70, 63
1, 198314, Note_on_c, 0, 68, 57
1, 198328, Note_on_c, 0, 58, 45
1, 198339, Note_on_c, 0, 62, 44
1, 198345, Note_off_c, 0, 76, 57
1, 198357, Control_c, 0, 64, 117
1, 198372, Control_c, 0, 64, 103
1, 198387, Control_c, 0, 64, 89
1, 198401, Control_c, 0, 64, 75
1, 198416, Control_c, 0, 64, 45
1, 198431, Control_c, 0, 64, 0
1, 198587, Control_c, 0, 64, 60
1, 198601, Control_c, 0, 64, 70
1, 198616, Control_c, 0, 64, 79
1, 198631, Control_c, 0, 64, 86
1, 198640, Note_off_c, 0, 62, 38
1, 198645, Control_c, 0, 64, 92
1, 198660, Control_c, 0, 64, 98
1, 198675, Control_c, 0, 64, 105
1, 198690, Control_c, 0, 64, 111
1, 198698, Note_off_c, 0, 58, 62
1, 198705, Control_c, 0, 64, 118
1, 198719, Control_c, 0, 64, 127
1, 198734, Control_c, 0, 64, 127
1, 199141, Note_on_c, 0, 34, 25
1, 199150, Note_on_c, 0, 46, 25
1, 199272, Note_off_c, 0, 34, 36
1, 199289, Note_off_c, 0, 46, 34
1, 199458, Note_on_c, 0, 46, 36
1, 199473, Note_on_c, 0, 34, 21
1, 199536, Note_off_c, 0, 77, 52
1, 199576, Note_off_c, 0, 70, 58
1, 199577, Note_off_c, 0, 68, 52
1, 199625, Note_off_c, 0, 34, 52
1, 199633, Note_off_c, 0, 46, 47
1, 200098, Note_on_c, 0, 70, 53
1, 200119, Note_on_c, 0, 68, 41
1, 200138, Note_on_c, 0, 46, 33
1, 200149, Note_on_c, 0, 58, 23
1, 200164, Note_on_c, 0, 62, 11
1, 200244, Note_off_c, 0, 68, 48
1, 200268, Note_off_c, 0, 70, 50
1, 200273, Note_off_c, 0, 62, 31
1, 200285, Note_off_c, 0, 58, 42
1, 200286, Note_off_c, 0, 46, 44
1, 200488, Note_on_c, 0, 70, 57
1, 200494, Note_on_c, 0, 68, 54
1, 200500, Note_on_c, 0, 46, 37
1, 200513, Note_on_c, 0, 58, 29
1, 200588, Poly_aftertouch_c, 0, 62, 127
1, 200639, Poly_aftertouch_c, 0, 62, 0
1, 200684, Note_off_c, 0, 68, 37
1, 200731, Note_off_c, 0, 58, 36
1, 200742, Note_off_c, 0, 46, 40
1, 201249, Note_on_c, 0, 67, 38
1, 201255, Note_on_c, 0, 63, 34
1, 201261, Note_on_c, 0, 51, 29
1, 201262, Control_c, 0, 64, 118
1, 201277, Control_c, 0, 64, 103
1, 201292, Note_on_c, 0, 58, 21
1, 201292, Control_c, 0, 64, 87
1, 201307, Control_c, 0, 64, 71
1, 201321, Control_c, 0, 64, 0
1, 201410, Control_c, 0, 64, 63
1, 201425, Control_c, 0, 64, 71
1, 201439, Control_c, 0, 64, 78
1, 201455, Control_c, 0, 64, 84
1, 201470, Control_c, 0, 64, 89
1, 201472, Note_off_c, 0, 63, 36
1, 201493, Control_c, 0, 64, 93
1, 201500, Note_off_c, 0, 58, 38
1, 201502, Note_off_c, 0, 67, 39
1, 201505, Note_off_c, 0, 51, 40
1, 201508, Control_c, 0, 64, 97
1, 201523, Control_c, 0, 64, 101
1, 201537, Control_c, 0, 64, 104
1, 201552, Control_c, 0, 64, 108
1, 201567, Control_c, 0, 64, 110
1, 201582, Control_c, 0, 64, 113
1, 201597, Control_c, 0, 64, 115
1, 201611, Control_c, 0, 64, 117
1, 201626, Control_c, 0, 64, 119
1, 201641, Control_c, 0, 64, 120
1, 201656, Control_c, 0, 64, 122
1, 201660, Note_on_c, 0, 67, 36
1, 201670, Control_c, 0, 64, 124
1, 201683, Note_on_c, 0, 51, 21
1, 201685, Control_c, 0, 64, 126
1, 201698, Note_on_c, 0, 58, 21
1, 201700, Control_c, 0, 64, 127
1, 201715, Control_c, 0, 64, 127
1, 201725, Poly_aftertouch_c, 0, 63, 127
1, 201728, Note_off_c, 0, 70, 25
1, 201824, Poly_aftertouch_c, 0, 63, 0
1, 201875, Note_off_c, 0, 58, 41
1, 201888, Note_off_c, 0, 51, 36
1, 201893, Note_off_c, 0, 67, 49
1, 202439, Note_on_c, 0, 75, 41
1, 202462, Control_c, 0, 64, 126
1, 202477, Control_c, 0, 64, 118
1, 202479, Note_on_c, 0, 60, 22
1, 202486, Note_on_c, 0, 48, 29
1, 202487, Note_on_c, 0, 67, 19
1, 202492, Control_c, 0, 64, 106
1, 202507, Control_c, 0, 64, 91
1, 202521, Control_c, 0, 64, 75
1, 202529, Poly_aftertouch_c, 0, 63, 127
1, 202536, Control_c, 0, 64, 16
1, 202551, Control_c, 0, 64, 0
1, 202596, Control_c, 0, 64, 64
1, 202610, Control_c, 0, 64, 73
1, 202625, Control_c, 0, 64, 82
1, 202640, Control_c, 0, 64, 87
1, 202656, Control_c, 0, 64, 89
1, 202671, Control_c, 0, 64, 93
1, 202685, Control_c, 0, 64, 98
1, 202697, Poly_aftertouch_c, 0, 63, 0
1, 202700, Control_c, 0, 64, 103
1, 202709, Note_off_c, 0, 67, 38
1, 202709, Note_off_c, 0, 75, 34
1, 202715, Control_c, 0, 64, 108
1, 202724, Note_off_c, 0, 60, 40
1, 202730, Note_off_c, 0, 48, 43
1, 202730, Control_c, 0, 64, 111
1, 202745, Control_c, 0, 64, 114
1, 202759, Control_c, 0, 64, 117
1, 202774, Control_c, 0, 64, 119
1, 202789, Control_c, 0, 64, 121
1, 202803, Control_c, 0, 64, 124
1, 202818, Control_c, 0, 64, 127
1, 202833, Control_c, 0, 64, 127
1, 202885, Note_on_c, 0, 75, 52
1, 202903, Note_on_c, 0, 48, 27
1, 202920, Note_on_c, 0, 60, 18
1, 202924, Note_on_c, 0, 67, 34
1, 202996, Poly_aftertouch_c, 0, 63, 127
1, 203093, Note_off_c, 0, 67, 42
1, 203099, Note_off_c, 0, 75, 63
1, 203136, Note_off_c, 0, 48, 39
1, 203138, Note_off_c, 0, 60, 34
1, 203162, Poly_aftertouch_c, 0, 63, 0
1, 203487, Note_on_c, 0, 67, 52
1, 203503, Note_on_c, 0, 63, 40
1, 203511, Note_on_c, 0, 48, 34
1, 203513, Note_on_c, 0, 60, 29
1, 203517, Note_on_c, 0, 55, 29
1, 203560, Note_off_c, 0, 63, 54
1, 203572, Note_off_c, 0, 60, 42
1, 203614, Note_off_c, 0, 67, 53
1, 203655, Note_off_c, 0, 48, 34
1, 203663, Note_off_c, 0, 55, 43
1, 203782, Note_on_c, 0, 67, 59
1, 203801, Note_on_c, 0, 63, 51
1, 203810, Note_on_c, 0, 48, 41
1, 203813, Note_on_c, 0, 60, 41
1, 203817, Note_on_c, 0, 55, 32
1, 203874, Note_off_c, 0, 60, 53
1, 203958, Note_off_c, 0, 63, 57
1, 203985, Note_off_c, 0, 55, 42
1, 204003, Note_off_c, 0, 67, 51
1, 204027, Note_off_c, 0, 48, 42
1, 204333, Note_on_c, 0, 70, 64
1, 204346, Control_c, 0, 64, 105
1, 204351, Note_on_c, 0, 43, 43
1, 204352, Note_on_c, 0, 62, 46
1, 204361, Control_c, 0, 64, 88
1, 204368, Note_on_c, 0, 58, 36
1, 204375, Control_c, 0, 64, 71
1, 204380, Note_on_c, 0, 55, 30
1, 204390, Control_c, 0, 64, 0
1, 204449, Control_c, 0, 64, 64
1, 204464, Control_c, 0, 64, 72
1, 204486, Control_c, 0, 64, 80
1, 204501, Control_c, 0, 64, 87
1, 204507, Note_off_c, 0, 62, 51
1, 204512, Note_off_c, 0, 58, 25
1, 204516, Control_c, 0, 64, 92
1, 204528, Note_off_c, 0, 70, 58
1, 204531, Control_c, 0, 64, 97
1, 204546, Control_c, 0, 64, 103
1, 204560, Note_off_c, 0, 43, 40
1, 204560, Control_c, 0, 64, 109
1, 204567, Note_off_c, 0, 55, 43
1, 204575, Control_c, 0, 64, 115
1, 204590, Control_c, 0, 64, 120
1, 204605, Control_c, 0, 64, 126
1, 204620, Control_c, 0, 64, 127
1, 204657, Note_on_c, 0, 70, 68
1, 204676, Note_on_c, 0, 43, 42
1, 204677, Note_on_c, 0, 62, 48
1, 204711, Note_on_c, 0, 55, 28
1, 204742, Poly_aftertouch_c, 0, 58, 127
1, 204770, Note_off_c, 0, 62, 50
1, 204886, Poly_aftertouch_c, 0, 58, 0
1, 204889, Note_off_c, 0, 70, 59
1, 204942, Note_off_c, 0, 55, 36
1, 204971, Note_off_c, 0, 43, 30
1, 205365, Note_on_c, 0, 48, 40
1, 205386, Note_on_c, 0, 72, 56
1, 205390, Note_on_c, 0, 64, 49
1, 205398, Control_c, 0, 64, 116
1, 205404, Note_on_c, 0, 58, 41
1, 205413, Control_c, 0, 64, 101
1, 205428, Control_c, 0, 64, 84
1, 205443, Control_c, 0, 64, 68
1, 205458, Control_c, 0, 64, 0
1, 205502, Control_c, 0, 64, 64
1, 205517, Control_c, 0, 64, 74
1, 205532, Control_c, 0, 64, 82
1, 205533, Note_off_c, 0, 72, 62
1, 205547, Control_c, 0, 64, 88
1, 205562, Control_c, 0, 64, 91
1, 205564, Note_off_c, 0, 64, 62
1, 205577, Control_c, 0, 64, 96
1, 205592, Control_c, 0, 64, 102
1, 205607, Control_c, 0, 64, 108
1, 205622, Control_c, 0, 64, 112
1, 205636, Control_c, 0, 64, 115
1, 205642, Note_off_c, 0, 48, 41
1, 205651, Control_c, 0, 64, 118
1, 205655, Note_off_c, 0, 58, 40
1, 205666, Control_c, 0, 64, 120
1, 205681, Control_c, 0, 64, 122
1, 205696, Control_c, 0, 64, 125
1, 205711, Control_c, 0, 64, 127
1, 205762, Note_on_c, 0, 41, 32
1, 205839, Note_on_c, 0, 48, 40
1, 205871, Note_on_c, 0, 65, 54
1, 205884, Note_on_c, 0, 63, 52
1, 205885, Note_on_c, 0, 58, 47
1, 205889, Control_c, 0, 64, 122
1, 205903, Control_c, 0, 64, 113
1, 205918, Control_c, 0, 64, 103
1, 205933, Control_c, 0, 64, 90
1, 205948, Control_c, 0, 64, 75
1, 205962, Control_c, 0, 64, 49
1, 205985, Control_c, 0, 64, 0
1, 206044, Control_c, 0, 64, 64
1, 206059, Control_c, 0, 64, 72
1, 206074, Control_c, 0, 64, 79
1, 206089, Control_c, 0, 64, 83
1, 206103, Control_c, 0, 64, 87
1, 206118, Control_c, 0, 64, 91
1, 206133, Control_c, 0, 64, 95
1, 206148, Control_c, 0, 64, 99
1, 206162, Control_c, 0, 64, 102
1, 206177, Control_c, 0, 64, 105
1, 206178, Note_off_c, 0, 58, 37
1, 206192, Control_c, 0, 64, 107
1, 206207, Control_c, 0, 64, 109
1, 206222, Control_c, 0, 64, 110
1, 206236, Control_c, 0, 64, 111
1, 206252, Control_c, 0, 64, 112
1, 206267, Control_c, 0, 64, 113
1, 206282, Control_c, 0, 64, 113
1, 206295, Note_on_c, 0, 57, 55
1, 206297, Control_c, 0, 64, 114
1, 206349, Note_off_c, 0, 63, 31
1, 206429, Control_c, 0, 64, 113
1, 206444, Control_c, 0, 64, 112
1, 206459, Control_c, 0, 64, 108
1, 206474, Control_c, 0, 64, 103
1, 206489, Control_c, 0, 64, 98
1, 206504, Control_c, 0, 64, 91
1, 206519, Control_c, 0, 64, 84
1, 206533, Control_c, 0, 64, 77
1, 206548, Control_c, 0, 64, 68
1, 206563, Control_c, 0, 64, 55
1, 206577, Control_c, 0, 64, 0
1, 206587, Note_on_c, 0, 62, 57
1, 206696, Note_off_c, 0, 57, 51
1, 206874, Note_on_c, 0, 60, 56
1, 206972, Note_off_c, 0, 62, 53
1, 207186, Note_on_c, 0, 55, 46
1, 207219, Note_off_c, 0, 60, 55
1, 207510, Note_on_c, 0, 57, 45
1, 207583, Note_off_c, 0, 55, 36
1, 207615, Control_c, 0, 64, 57
1, 207630, Control_c, 0, 64, 66
1, 207645, Control_c, 0, 64, 70
1, 207655, Note_off_c, 0, 57, 57
1, 207660, Control_c, 0, 64, 74
1, 207675, Control_c, 0, 64, 77
1, 207689, Control_c, 0, 64, 80
1, 207704, Control_c, 0, 64, 83
1, 207719, Control_c, 0, 64, 85
1, 207734, Control_c, 0, 64, 87
1, 207738, Note_off_c, 0, 48, 42
1, 207749, Control_c, 0, 64, 88
1, 207763, Control_c, 0, 64, 89
1, 207778, Control_c, 0, 64, 90
1, 207793, Control_c, 0, 64, 91
1, 207865, Note_off_c, 0, 41, 40
1, 207928, Note_on_c, 0, 62, 46
1, 207952, Note_on_c, 0, 55, 32
1, 207968, Note_on_c, 0, 46, 32
1, 207971, Control_c, 0, 64, 91
1, 207986, Control_c, 0, 64, 89
1, 208001, Control_c, 0, 64, 87
1, 208016, Control_c, 0, 64, 82
1, 208030, Control_c, 0, 64, 76
1, 208039, Note_off_c, 0, 65, 37
1, 208045, Control_c, 0, 64, 68
1, 208060, Control_c, 0, 64, 49
1, 208075, Control_c, 0, 64, 0
1, 208119, Note_off_c, 0, 55, 42
1, 208275, Control_c, 0, 64, 59
1, 208290, Control_c, 0, 64, 66
1, 208304, Control_c, 0, 64, 68
1, 208319, Control_c, 0, 64, 71
1, 208334, Control_c, 0, 64, 74
1, 208349, Control_c, 0, 64, 78
1, 208364, Control_c, 0, 64, 82
1, 208379, Control_c, 0, 64, 86
1, 208383, Note_off_c, 0, 62, 61
1, 208394, Control_c, 0, 64, 88
1, 208409, Control_c, 0, 64, 91
1, 208413, Note_on_c, 0, 53, 39
1, 208423, Control_c, 0, 64, 94
1, 208438, Control_c, 0, 64, 96
1, 208453, Control_c, 0, 64, 99
1, 208468, Control_c, 0, 64, 103
1, 208483, Control_c, 0, 64, 105
1, 208497, Control_c, 0, 64, 107
1, 208512, Control_c, 0, 64, 109
1, 208527, Control_c, 0, 64, 109
1, 208542, Control_c, 0, 64, 110
1, 208556, Control_c, 0, 64, 111
1, 208571, Control_c, 0, 64, 112
1, 208586, Control_c, 0, 64, 112
1, 208661, Control_c, 0, 64, 113
1, 208689, Note_off_c, 0, 46, 40
1, 208707, Note_off_c, 0, 53, 41
1, 208717, Note_on_c, 0, 74, 54
1, 208755, Note_on_c, 0, 62, 40
1, 208828, Note_off_c, 0, 62, 35
1, 208921, Note_off_c, 0, 74, 37
1, 209194, Note_on_c, 0, 74, 61
1, 209202, Control_c, 0, 64, 112
1, 209232, Control_c, 0, 64, 109
1, 209242, Note_on_c, 0, 46, 34
1, 209246, Control_c, 0, 64, 104
1, 209248, Note_on_c, 0, 53, 31
1, 209251, Note_on_c, 0, 62, 24
1, 209261, Control_c, 0, 64, 95
1, 209276, Control_c, 0, 64, 85
1, 209291, Control_c, 0, 64, 73
1, 209306, Control_c, 0, 64, 61
1, 209320, Control_c, 0, 64, 0
1, 209350, Control_c, 0, 64, 54
1, 209365, Control_c, 0, 64, 67
1, 209379, Control_c, 0, 64, 73
1, 209395, Control_c, 0, 64, 79
1, 209410, Control_c, 0, 64, 84
1, 209425, Control_c, 0, 64, 89
1, 209440, Control_c, 0, 64, 93
1, 209455, Control_c, 0, 64, 96
1, 209470, Control_c, 0, 64, 100
1, 209479, Note_off_c, 0, 62, 16
1, 209485, Control_c, 0, 64, 103
1, 209500, Control_c, 0, 64, 106
1, 209515, Control_c, 0, 64, 109
1, 209530, Control_c, 0, 64, 111
1, 209533, Note_off_c, 0, 53, 42
1, 209545, Control_c, 0, 64, 112
1, 209551, Note_off_c, 0, 46, 40
1, 209559, Control_c, 0, 64, 113
1, 209574, Control_c, 0, 64, 115
1, 209589, Control_c, 0, 64, 116
1, 209603, Control_c, 0, 64, 117
1, 209618, Control_c, 0, 64, 118
1, 209648, Control_c, 0, 64, 118
1, 209677, Control_c, 0, 64, 119
1, 209766, Note_on_c, 0, 62, 33
1, 209783, Note_on_c, 0, 46, 26
1, 209807, Note_on_c, 0, 54, 22
1, 209872, Note_off_c, 0, 62, 33
1, 209931, Note_off_c, 0, 54, 35
1, 209932, Note_off_c, 0, 46, 35
1, 210087, Note_on_c, 0, 70, 60
1, 210105, Note_on_c, 0, 54, 29
1, 210117, Note_on_c, 0, 46, 29
1, 210129, Control_c, 0, 64, 116
1, 210143, Control_c, 0, 64, 108
1, 210150, Note_on_c, 0, 62, 26
1, 210158, Control_c, 0, 64, 97
1, 210173, Control_c, 0, 64, 84
1, 210188, Control_c, 0, 64, 68
1, 210202, Control_c, 0, 64, 0
1, 210248, Control_c, 0, 64, 62
1, 210263, Control_c, 0, 64, 72
1, 210278, Control_c, 0, 64, 82
1, 210292, Control_c, 0, 64, 90
1, 210307, Control_c, 0, 64, 95
1, 210322, Control_c, 0, 64, 101
1, 210323, Note_off_c, 0, 62, 25
1, 210337, Control_c, 0, 64, 107
1, 210352, Control_c, 0, 64, 114
1, 210367, Control_c, 0, 64, 121
1, 210381, Control_c, 0, 64, 127
1, 210392, Note_off_c, 0, 54, 37
1, 210394, Note_off_c, 0, 46, 39
1, 210444, Note_off_c, 0, 74, 35
1, 210552, Note_on_c, 0, 46, 42
1, 210555, Note_on_c, 0, 67, 56
1, 210570, Note_on_c, 0, 55, 36
1, 210581, Note_on_c, 0, 62, 42
1, 210587, Note_off_c, 0, 70, 63
1, 210594, Note_off_c, 0, 67, 62
1, 210623, Note_off_c, 0, 62, 62
1, 210638, Note_off_c, 0, 55, 55
1, 210642, Note_off_c, 0, 46, 56
1, 210799, Note_on_c, 0, 69, 59
1, 210820, Note_on_c, 0, 67, 63
1, 210841, Note_on_c, 0, 63, 46
1, 210847, Control_c, 0, 64, 119
1, 210851, Note_on_c, 0, 58, 35
1, 210853, Note_on_c, 0, 48, 48
1, 210853, Note_on_c, 0, 55, 28
1, 210862, Control_c, 0, 64, 98
1, 210877, Control_c, 0, 64, 82
1, 210892, Control_c, 0, 64, 66
1, 210907, Control_c, 0, 64, 0
1, 210951, Control_c, 0, 64, 66
1, 210966, Control_c, 0, 64, 77
1, 210969, Note_off_c, 0, 58, 31
1, 210980, Note_off_c, 0, 63, 36
1, 210981, Control_c, 0, 64, 86
1, 210996, Control_c, 0, 64, 93
1, 211011, Control_c, 0, 64, 97
1, 211025, Control_c, 0, 64, 102
1, 211041, Control_c, 0, 64, 107
1, 211056, Control_c, 0, 64, 114
1, 211071, Control_c, 0, 64, 121
1, 211086, Control_c, 0, 64, 127
1, 211101, Note_off_c, 0, 48, 54
1, 211122, Note_off_c, 0, 69, 30
1, 211210, Note_off_c, 0, 55, 43
1, 211272, Note_on_c, 0, 48, 44
1, 211277, Note_on_c, 0, 65, 62
1, 211286, Note_on_c, 0, 63, 53
1, 211289, Note_on_c, 0, 57, 43
1, 211326, Note_off_c, 0, 63, 61
1, 211360, Note_off_c, 0, 48, 57
1, 211368, Note_off_c, 0, 57, 50
1, 211374, Note_off_c, 0, 67, 36
1, 211378, Note_off_c, 0, 65, 57
1, 211566, Note_on_c, 0, 65, 66
1, 211567, Control_c, 0, 64, 119
1, 211581, Note_on_c, 0, 50, 46
1, 211581, Control_c, 0, 64, 101
1, 211583, Note_on_c, 0, 57, 42
1, 211585, Note_on_c, 0, 62, 52
1, 211596, Control_c, 0, 64, 83
1, 211611, Control_c, 0, 64, 63
1, 211626, Control_c, 0, 64, 0
1, 211685, Control_c, 0, 64, 66
1, 211700, Control_c, 0, 64, 76
1, 211715, Control_c, 0, 64, 87
1, 211730, Control_c, 0, 64, 96
1, 211739, Note_off_c, 0, 65, 65
1, 211744, Control_c, 0, 64, 102
1, 211759, Control_c, 0, 64, 109
1, 211774, Control_c, 0, 64, 117
1, 211786, Note_off_c, 0, 62, 45
1, 211789, Control_c, 0, 64, 127
1, 211838, Note_off_c, 0, 50, 59
1, 211846, Note_off_c, 0, 57, 51
1, 212002, Note_on_c, 0, 74, 69
1, 212021, Note_on_c, 0, 66, 56
1, 212022, Note_on_c, 0, 57, 49
1, 212023, Note_on_c, 0, 60, 51
1, 212026, Note_on_c, 0, 50, 49
1, 212054, Note_off_c, 0, 60, 50
1, 212058, Note_off_c, 0, 66, 64
1, 212072, Note_off_c, 0, 74, 62
1, 212075, Note_off_c, 0, 57, 58
1, 212078, Note_off_c, 0, 50, 60
1, 212290, Note_on_c, 0, 70, 77
1, 212296, Note_on_c, 0, 51, 56
1, 212299, Note_on_c, 0, 67, 63
1, 212305, Note_on_c, 0, 55, 47
1, 212305, Note_on_c, 0, 58, 65
1, 212331, Control_c, 0, 64, 114
1, 212345, Control_c, 0, 64, 95
1, 212360, Control_c, 0, 64, 76
1, 212375, Control_c, 0, 64, 13
1, 212391, Control_c, 0, 64, 0
1, 212450, Control_c, 0, 64, 64
1, 212465, Control_c, 0, 64, 75
1, 212479, Control_c, 0, 64, 88
1, 212494, Control_c, 0, 64, 98
1, 212509, Control_c, 0, 64, 105
1, 212523, Control_c, 0, 64, 112
1, 212530, Note_off_c, 0, 58, 39
1, 212532, Note_off_c, 0, 67, 62
1, 212538, Control_c, 0, 64, 121
1, 212553, Control_c, 0, 64, 127
1, 212566, Note_off_c, 0, 55, 63
1, 212566, Note_off_c, 0, 70, 61
1, 212618, Note_off_c, 0, 51, 61
1, 212969, Note_on_c, 0, 79, 82
1, 212978, Note_on_c, 0, 70, 64
1, 212989, Note_on_c, 0, 52, 51
1, 212993, Note_on_c, 0, 58, 47
1, 212993, Note_on_c, 0, 61, 52
1, 212994, Note_on_c, 0, 67, 57
1, 213006, Control_c, 0, 64, 111
1, 213020, Control_c, 0, 64, 97
1, 213035, Control_c, 0, 64, 82
1, 213050, Control_c, 0, 64, 66
1, 213065, Control_c, 0, 64, 0
1, 213154, Control_c, 0, 64, 64
1, 213169, Control_c, 0, 64, 72
1, 213184, Control_c, 0, 64, 79
1, 213199, Control_c, 0, 64, 84
1, 213214, Control_c, 0, 64, 88
1, 213228, Control_c, 0, 64, 94
1, 213243, Control_c, 0, 64, 103
1, 213258, Control_c, 0, 64, 111
1, 213273, Control_c, 0, 64, 116
1, 213288, Control_c, 0, 64, 122
1, 213302, Control_c, 0, 64, 127
1, 213329, Note_off_c, 0, 70, 55
1, 213330, Note_off_c, 0, 58, 54
1, 213336, Note_off_c, 0, 52, 59
1, 213345, Note_off_c, 0, 79, 52
1, 213363, Note_off_c, 0, 61, 55
1, 213385, Note_off_c, 0, 67, 62
1, 213637, Control_c, 0, 64, 109
1, 213638, Note_on_c, 0, 77, 77
1, 213651, Control_c, 0, 64, 90
1, 213655, Note_on_c, 0, 53, 49
1, 213664, Note_on_c, 0, 70, 52
1, 213665, Note_on_c, 0, 65, 48
1, 213666, Control_c, 0, 64, 72
1, 213671, Note_on_c, 0, 62, 46
1, 213678, Note_on_c, 0, 58, 34
1, 213681, Control_c, 0, 64, 0
1, 213725, Control_c, 0, 64, 63
1, 213740, Control_c, 0, 64, 75
1, 213755, Control_c, 0, 64, 86
1, 213769, Control_c, 0, 64, 96
1, 213783, Note_off_c, 0, 62, 59
1, 213784, Control_c, 0, 64, 103
1, 213799, Control_c, 0, 64, 112
1, 213806, Note_off_c, 0, 53, 60
1, 213810, Note_off_c, 0, 70, 22
1, 213814, Control_c, 0, 64, 121
1, 213815, Note_off_c, 0, 77, 57
1, 213829, Control_c, 0, 64, 127
1, 213833, Note_off_c, 0, 58, 53
1, 213842, Note_off_c, 0, 65, 38
1, 213938, Note_on_c, 0, 76, 79
1, 213948, Note_on_c, 0, 70, 61
1, 213952, Note_on_c, 0, 64, 65
1, 213956, Note_on_c, 0, 61, 55
1, 213967, Note_on_c, 0, 55, 52
1, 213977, Control_c, 0, 64, 107
1, 213977, Note_on_c, 0, 58, 37
1, 213992, Control_c, 0, 64, 87
1, 214007, Control_c, 0, 64, 65
1, 214022, Control_c, 0, 64, 0
1, 214066, Control_c, 0, 64, 66
1, 214081, Control_c, 0, 64, 77
1, 214095, Note_off_c, 0, 70, 38
1, 214096, Control_c, 0, 64, 85
1, 214106, Note_off_c, 0, 64, 30
1, 214111, Control_c, 0, 64, 90
1, 214125, Control_c, 0, 64, 96
1, 214127, Note_off_c, 0, 58, 33
1, 214140, Control_c, 0, 64, 104
1, 214155, Control_c, 0, 64, 113
1, 214156, Note_off_c, 0, 61, 51
1, 214169, Control_c, 0, 64, 122
1, 214183, Note_off_c, 0, 55, 53
1, 214184, Control_c, 0, 64, 127
1, 214427, Note_on_c, 0, 77, 76
1, 214448, Note_on_c, 0, 70, 58
1, 214451, Note_on_c, 0, 58, 40
1, 214452, Note_on_c, 0, 56, 44
1, 214455, Note_on_c, 0, 65, 52
1, 214457, Note_on_c, 0, 62, 43
1, 214460, Control_c, 0, 64, 124
1, 214474, Control_c, 0, 64, 111
1, 214489, Control_c, 0, 64, 100
1, 214490, Note_off_c, 0, 76, 55
1, 214504, Control_c, 0, 64, 87
1, 214519, Control_c, 0, 64, 73
1, 214534, Control_c, 0, 64, 49
1, 214548, Control_c, 0, 64, 0
1, 214709, Control_c, 0, 64, 62
1, 214724, Control_c, 0, 64, 70
1, 214739, Control_c, 0, 64, 76
1, 214754, Control_c, 0, 64, 83
1, 214769, Control_c, 0, 64, 87
1, 214783, Control_c, 0, 64, 93
1, 214798, Control_c, 0, 64, 97
1, 214813, Control_c, 0, 64, 101
1, 214828, Note_off_c, 0, 62, 26
1, 214828, Control_c, 0, 64, 105
1, 214843, Control_c, 0, 64, 109
1, 214857, Control_c, 0, 64, 112
1, 214872, Control_c, 0, 64, 116
1, 214874, Note_off_c, 0, 58, 35
1, 214886, Note_off_c, 0, 56, 37
1, 214887, Control_c, 0, 64, 120
1, 214902, Control_c, 0, 64, 124
1, 214916, Control_c, 0, 64, 127
1, 215398, Note_on_c, 0, 46, 28
1, 215420, Note_on_c, 0, 34, 27
1, 215558, Note_off_c, 0, 46, 40
1, 215565, Note_off_c, 0, 34, 35
1, 215742, Note_on_c, 0, 46, 30
1, 215748, Note_on_c, 0, 34, 24
1, 215877, Note_off_c, 0, 77, 54
1, 215897, Note_off_c, 0, 70, 59
1, 215901, Note_off_c, 0, 34, 50
1, 215912, Note_off_c, 0, 65, 41
1, 215924, Note_off_c, 0, 46, 40
1, 216529, Note_on_c, 0, 70, 54
1, 216554, Note_on_c, 0, 68, 42
1, 216556, Note_on_c, 0, 58, 23
1, 216566, Note_on_c, 0, 62, 24
1, 216569, Note_on_c, 0, 46, 30
1, 216633, Note_off_c, 0, 62, 36
1, 216680, Note_off_c, 0, 68, 35
1, 216700, Note_off_c, 0, 70, 38
1, 216722, Note_off_c, 0, 46, 39
1, 216725, Note_off_c, 0, 58, 40
1, 216904, Note_on_c, 0, 70, 58
1, 216907, Note_on_c, 0, 68, 54
1, 216921, Note_on_c, 0, 58, 25
1, 216922, Note_on_c, 0, 46, 35
1, 216979, Poly_aftertouch_c, 0, 62, 127
1, 217060, Poly_aftertouch_c, 0, 62, 0
1, 217095, Note_off_c, 0, 68, 35
1, 217158, Note_off_c, 0, 46, 40
1, 217182, Note_off_c, 0, 58, 32
1, 217587, Control_c, 0, 64, 116
1, 217602, Control_c, 0, 64, 106
1, 217608, Note_on_c, 0, 67, 35
1, 217616, Control_c, 0, 64, 96
1, 217629, Note_on_c, 0, 51, 30
1, 217631, Control_c, 0, 64, 83
1, 217636, Note_on_c, 0, 63, 19
1, 217639, Note_on_c, 0, 58, 19
1, 217646, Control_c, 0, 64, 66
1, 217661, Control_c, 0, 64, 0
1, 217764, Control_c, 0, 64, 63
1, 217779, Control_c, 0, 64, 71
1, 217794, Control_c, 0, 64, 78
1, 217808, Control_c, 0, 64, 83
1, 217822, Note_off_c, 0, 58, 38
1, 217823, Note_off_c, 0, 63, 36
1, 217823, Control_c, 0, 64, 87
1, 217831, Note_off_c, 0, 51, 37
1, 217838, Control_c, 0, 64, 92
1, 217849, Note_off_c, 0, 67, 39
1, 217853, Control_c, 0, 64, 96
1, 217868, Control_c, 0, 64, 100
1, 217882, Control_c, 0, 64, 103
1, 217897, Control_c, 0, 64, 106
1, 217912, Control_c, 0, 64, 110
1, 217927, Control_c, 0, 64, 113
1, 217942, Control_c, 0, 64, 117
1, 217964, Control_c, 0, 64, 120
1, 217979, Control_c, 0, 64, 122
1, 217994, Control_c, 0, 64, 125
1, 218008, Note_on_c, 0, 67, 37
1, 218009, Control_c, 0, 64, 127
1, 218028, Note_on_c, 0, 51, 20
1, 218034, Note_off_c, 0, 70, 30
1, 218045, Note_on_c, 0, 63, 13
1, 218074, Note_on_c, 0, 58, 16
1, 218156, Note_off_c, 0, 63, 33
1, 218227, Note_off_c, 0, 67, 41
1, 218239, Note_off_c, 0, 51, 35
1, 218248, Note_off_c, 0, 58, 36
1, 218804, Note_on_c, 0, 75, 45
1, 218833, Note_on_c, 0, 67, 35
1, 218834, Note_on_c, 0, 51, 21
1, 218842, Note_on_c, 0, 58, 22
1, 218963, Note_off_c, 0, 67, 30
1, 218983, Note_off_c, 0, 75, 32
1, 218994, Note_off_c, 0, 58, 35
1, 219003, Note_off_c, 0, 51, 38
1, 219356, Note_on_c, 0, 75, 40
1, 219364, Note_on_c, 0, 67, 34
1, 219370, Note_on_c, 0, 51, 18
1, 219390, Note_on_c, 0, 58, 15
1, 219660, Note_off_c, 0, 67, 32
1, 219748, Note_off_c, 0, 75, 30
1, 219826, Note_off_c, 0, 58, 26
1, 219906, Note_off_c, 0, 51, 28
1, 220732, Note_on_c, 0, 67, 48
1, 220742, Note_on_c, 0, 60, 44
1, 220747, Note_on_c, 0, 51, 33
1, 220796, Note_off_c, 0, 60, 57
1, 220836, Note_off_c, 0, 51, 51
1, 220846, Note_off_c, 0, 67, 52
1, 221154, Note_on_c, 0, 70, 59
1, 221167, Control_c, 0, 64, 118
1, 221178, Note_on_c, 0, 62, 43
1, 221181, Note_on_c, 0, 43, 42
1, 221182, Control_c, 0, 64, 108
1, 221191, Note_on_c, 0, 58, 33
1, 221197, Control_c, 0, 64, 96
1, 221200, Note_on_c, 0, 55, 23
1, 221212, Control_c, 0, 64, 83
1, 221226, Control_c, 0, 64, 70
1, 221241, Control_c, 0, 64, 0
1, 221359, Control_c, 0, 64, 61
1, 221374, Control_c, 0, 64, 70
1, 221389, Control_c, 0, 64, 76
1, 221404, Control_c, 0, 64, 81
1, 221419, Control_c, 0, 64, 85
1, 221435, Control_c, 0, 64, 89
1, 221443, Note_off_c, 0, 62, 56
1, 221449, Control_c, 0, 64, 92
1, 221464, Control_c, 0, 64, 96
1, 221479, Control_c, 0, 64, 100
1, 221494, Control_c, 0, 64, 104
1, 221509, Control_c, 0, 64, 107
1, 221513, Note_off_c, 0, 58, 35
1, 221524, Control_c, 0, 64, 110
1, 221535, Note_off_c, 0, 70, 57
1, 221538, Control_c, 0, 64, 112
1, 221553, Control_c, 0, 64, 114
1, 221568, Control_c, 0, 64, 115
1, 221570, Note_off_c, 0, 55, 36
1, 221575, Note_off_c, 0, 43, 36
1, 221582, Control_c, 0, 64, 116
1, 221597, Control_c, 0, 64, 118
1, 221612, Control_c, 0, 64, 119
1, 221627, Control_c, 0, 64, 119
1, 221642, Control_c, 0, 64, 120
1, 221656, Control_c, 0, 64, 120
1, 221671, Control_c, 0, 64, 121
1, 221724, Control_c, 0, 64, 122
1, 221753, Control_c, 0, 64, 122
1, 222049, Control_c, 0, 64, 122
1, 222064, Control_c, 0, 64, 121
1, 222070, Note_on_c, 0, 72, 42
1, 222079, Control_c, 0, 64, 119
1, 222079, Note_on_c, 0, 64, 37
1, 222090, Note_on_c, 0, 48, 34
1, 222094, Control_c, 0, 64, 115
1, 222106, Note_on_c, 0, 58, 25
1, 222108, Control_c, 0, 64, 108
1, 222124, Control_c, 0, 64, 98
1, 222139, Control_c, 0, 64, 87
1, 222154, Control_c, 0, 64, 71
1, 222169, Control_c, 0, 64, 24
1, 222183, Control_c, 0, 64, 0
1, 222228, Control_c, 0, 64, 21
1, 222243, Control_c, 0, 64, 65
1, 222258, Control_c, 0, 64, 70
1, 222273, Control_c, 0, 64, 75
1, 222288, Control_c, 0, 64, 79
1, 222303, Control_c, 0, 64, 83
1, 222318, Control_c, 0, 64, 87
1, 222324, Note_off_c, 0, 48, 39
1, 222332, Control_c, 0, 64, 90
1, 222347, Control_c, 0, 64, 95
1, 222362, Control_c, 0, 64, 98
1, 222369, Note_off_c, 0, 72, 36
1, 222377, Control_c, 0, 64, 100
1, 222392, Control_c, 0, 64, 103
1, 222406, Control_c, 0, 64, 105
1, 222421, Control_c, 0, 64, 108
1, 222436, Control_c, 0, 64, 110
1, 222458, Control_c, 0, 64, 112
1, 222463, Note_off_c, 0, 64, 41
1, 222470, Note_off_c, 0, 58, 51
1, 222473, Control_c, 0, 64, 113
1, 222488, Control_c, 0, 64, 113
1, 222502, Control_c, 0, 64, 114
1, 222517, Control_c, 0, 64, 114
1, 222649, Note_on_c, 0, 41, 37
1, 222651, Control_c, 0, 64, 114
1, 222666, Control_c, 0, 64, 113
1, 222680, Control_c, 0, 64, 108
1, 222695, Control_c, 0, 64, 100
1, 222710, Control_c, 0, 64, 89
1, 222725, Control_c, 0, 64, 73
1, 222739, Control_c, 0, 64, 50
1, 222754, Control_c, 0, 64, 0
1, 222804, Note_on_c, 0, 57, 28
1, 222813, Control_c, 0, 64, 44
1, 222828, Control_c, 0, 64, 66
1, 222843, Control_c, 0, 64, 71
1, 222858, Control_c, 0, 64, 76
1, 222873, Control_c, 0, 64, 81
1, 222887, Control_c, 0, 64, 85
1, 222902, Control_c, 0, 64, 89
1, 222917, Control_c, 0, 64, 94
1, 222932, Control_c, 0, 64, 98
1, 222947, Control_c, 0, 64, 102
1, 222962, Control_c, 0, 64, 105
1, 222965, Note_on_c, 0, 63, 38
1, 222976, Control_c, 0, 64, 109
1, 222991, Control_c, 0, 64, 113
1, 223006, Control_c, 0, 64, 118
1, 223021, Control_c, 0, 64, 122
1, 223026, Note_off_c, 0, 57, 38
1, 223036, Control_c, 0, 64, 127
1, 223051, Control_c, 0, 64, 127
1, 223111, Note_off_c, 0, 63, 36
1, 223312, Note_on_c, 0, 72, 52
1, 223500, Note_off_c, 0, 72, 59
1, 223673, Note_off_c, 0, 41, 42
1, 224345, Note_on_c, 0, 70, 42
1, 224371, Control_c, 0, 64, 117
1, 224385, Note_on_c, 0, 62, 24
1, 224385, Control_c, 0, 64, 106
1, 224392, Note_on_c, 0, 34, 23
1, 224400, Control_c, 0, 64, 94
1, 224414, Note_on_c, 0, 58, 16
1, 224415, Control_c, 0, 64, 81
1, 224430, Control_c, 0, 64, 68
1, 224445, Control_c, 0, 64, 0
1, 224489, Control_c, 0, 64, 59
1, 224503, Control_c, 0, 64, 71
1, 224518, Control_c, 0, 64, 79
1, 224533, Control_c, 0, 64, 85
1, 224548, Control_c, 0, 64, 89
1, 224563, Control_c, 0, 64, 94
1, 224577, Control_c, 0, 64, 98
1, 224592, Note_off_c, 0, 34, 40
1, 224592, Note_off_c, 0, 62, 34
1, 224592, Control_c, 0, 64, 103
1, 224607, Control_c, 0, 64, 107
1, 224609, Note_off_c, 0, 58, 35
1, 224623, Control_c, 0, 64, 111
1, 224624, Note_off_c, 0, 70, 29
1, 224638, Control_c, 0, 64, 114
1, 224653, Control_c, 0, 64, 118
1, 224668, Control_c, 0, 64, 121
1, 224682, Control_c, 0, 64, 125
1, 224705, Control_c, 0, 64, 127
1, 224965, Note_on_c, 0, 70, 42
1, 225004, Note_on_c, 0, 46, 34
1, 225020, Note_on_c, 0, 62, 11
1, 225024, Note_on_c, 0, 58, 11
1, 225077, Poly_aftertouch_c, 0, 53, 127
1, 225175, Poly_aftertouch_c, 0, 53, 0
1, 225207, Note_off_c, 0, 46, 39
1, 225209, Note_off_c, 0, 70, 35
1, 225212, Note_off_c, 0, 58, 40
1, 225243, Note_off_c, 0, 62, 36
1, 225981, Note_on_c, 0, 62, 49
1, 226008, Note_on_c, 0, 50, 23
1, 226381, Note_on_c, 0, 42, 37
1, 226388, Note_on_c, 0, 60, 47
1, 226395, Control_c, 0, 64, 126
1, 226410, Control_c, 0, 64, 117
1, 226425, Control_c, 0, 64, 109
1, 226440, Control_c, 0, 64, 98
1, 226454, Control_c, 0, 64, 83
1, 226469, Control_c, 0, 64, 68
1, 226484, Control_c, 0, 64, 0
1, 226527, Note_off_c, 0, 62, 31
1, 226536, Note_off_c, 0, 50, 34
1, 226543, Control_c, 0, 64, 54
1, 226558, Control_c, 0, 64, 69
1, 226572, Control_c, 0, 64, 74
1, 226583, Note_on_c, 0, 63, 48
1, 226587, Control_c, 0, 64, 79
1, 226593, Note_on_c, 0, 51, 43
1, 226602, Control_c, 0, 64, 83
1, 226616, Control_c, 0, 64, 87
1, 226631, Control_c, 0, 64, 91
1, 226646, Control_c, 0, 64, 96
1, 226661, Control_c, 0, 64, 99
1, 226676, Control_c, 0, 64, 102
1, 226691, Control_c, 0, 64, 104
1, 226705, Control_c, 0, 64, 106
1, 226720, Control_c, 0, 64, 108
1, 226735, Control_c, 0, 64, 110
1, 226748, Note_on_c, 0, 62, 49
1, 226750, Control_c, 0, 64, 111
1, 226751, Note_off_c, 0, 63, 61
1, 226757, Note_on_c, 0, 50, 43
1, 226764, Control_c, 0, 64, 112
1, 226769, Note_off_c, 0, 51, 33
1, 226779, Control_c, 0, 64, 113
1, 226794, Control_c, 0, 64, 113
1, 226809, Control_c, 0, 64, 114
1, 226824, Control_c, 0, 64, 115
1, 226839, Control_c, 0, 64, 115
1, 226853, Note_off_c, 0, 60, 28
1, 226868, Note_on_c, 0, 69, 55
1, 226895, Note_off_c, 0, 42, 41
1, 226897, Note_off_c, 0, 62, 53
1, 226912, Control_c, 0, 64, 116
1, 226968, Note_off_c, 0, 69, 62
1, 226987, Note_on_c, 0, 66, 58
1, 227083, Note_on_c, 0, 63, 60
1, 227109, Note_off_c, 0, 66, 63
1, 227189, Note_on_c, 0, 43, 49
1, 227193, Note_on_c, 0, 62, 63
1, 227202, Note_off_c, 0, 63, 59
1, 227213, Note_on_c, 0, 58, 47
1, 227217, Control_c, 0, 64, 115
1, 227232, Control_c, 0, 64, 108
1, 227247, Control_c, 0, 64, 96
1, 227262, Control_c, 0, 64, 82
1, 227270, Note_off_c, 0, 50, 40
1, 227276, Control_c, 0, 64, 65
1, 227278, Note_off_c, 0, 58, 54
1, 227291, Control_c, 0, 64, 0
1, 227312, Note_on_c, 0, 63, 70
1, 227317, Note_off_c, 0, 62, 58
1, 227349, Note_on_c, 0, 51, 40
1, 227350, Control_c, 0, 64, 64
1, 227364, Control_c, 0, 64, 72
1, 227379, Control_c, 0, 64, 79
1, 227394, Control_c, 0, 64, 84
1, 227409, Control_c, 0, 64, 89
1, 227416, Note_off_c, 0, 63, 60
1, 227421, Note_on_c, 0, 62, 72
1, 227424, Control_c, 0, 64, 94
1, 227439, Control_c, 0, 64, 98
1, 227443, Note_on_c, 0, 50, 48
1, 227454, Control_c, 0, 64, 103
1, 227466, Note_off_c, 0, 51, 37
1, 227468, Control_c, 0, 64, 107
1, 227483, Control_c, 0, 64, 110
1, 227498, Control_c, 0, 64, 113
1, 227513, Control_c, 0, 64, 117
1, 227516, Note_on_c, 0, 70, 73
1, 227527, Control_c, 0, 64, 120
1, 227539, Note_off_c, 0, 62, 58
1, 227542, Control_c, 0, 64, 124
1, 227557, Control_c, 0, 64, 127
1, 227566, Note_off_c, 0, 43, 41
1, 227618, Note_on_c, 0, 67, 63
1, 227621, Note_off_c, 0, 70, 53
1, 227623, Note_off_c, 0, 50, 60
1, 227714, Note_off_c, 0, 67, 59
1, 227720, Note_on_c, 0, 63, 74
1, 227832, Control_c, 0, 64, 126
1, 227835, Note_on_c, 0, 45, 62
1, 227847, Control_c, 0, 64, 106
1, 227849, Note_off_c, 0, 63, 57
1, 227859, Note_on_c, 0, 54, 73
1, 227862, Control_c, 0, 64, 88
1, 227877, Control_c, 0, 64, 69
1, 227891, Control_c, 0, 64, 0
1, 227936, Control_c, 0, 64, 58
1, 227945, Note_off_c, 0, 54, 61
1, 227950, Control_c, 0, 64, 73
1, 227965, Control_c, 0, 64, 86
1, 227980, Control_c, 0, 64, 101
1, 227987, Note_on_c, 0, 63, 64
1, 227995, Control_c, 0, 64, 112
1, 228008, Note_off_c, 0, 45, 63
1, 228010, Control_c, 0, 64, 119
1, 228024, Control_c, 0, 64, 127
1, 228089, Note_off_c, 0, 63, 64
1, 228130, Note_on_c, 0, 62, 70
1, 228139, Note_on_c, 0, 60, 58
1, 228171, Note_off_c, 0, 60, 65
1, 228236, Note_on_c, 0, 66, 69
1, 228248, Note_off_c, 0, 62, 55
1, 228324, Note_off_c, 0, 66, 63
1, 228336, Note_on_c, 0, 72, 73
1, 228380, Note_off_c, 0, 72, 64
1, 228421, Note_on_c, 0, 74, 79
1, 228516, Note_on_c, 0, 78, 81
1, 228548, Note_off_c, 0, 74, 62
1, 228609, Note_off_c, 0, 78, 63
1, 228622, Note_on_c, 0, 84, 81
1, 228671, Note_off_c, 0, 84, 66
1, 228718, Note_on_c, 0, 84, 77
1, 228932, Note_on_c, 0, 93, 88
1, 229029, Note_off_c, 0, 84, 63
1, 229045, Note_off_c, 0, 93, 62
1, 229305, Note_on_c, 0, 91, 81
1, 229314, Note_on_c, 0, 82, 67
1, 229477, Note_off_c, 0, 82, 36
1, 229503, Note_on_c, 0, 38, 48
1, 229537, Control_c, 0, 64, 109
1, 229552, Control_c, 0, 64, 87
1, 229559, Note_on_c, 0, 81, 75
1, 229564, Note_off_c, 0, 91, 59
1, 229567, Control_c, 0, 64, 65
1, 229582, Control_c, 0, 64, 0
1, 229627, Control_c, 0, 64, 58
1, 229642, Control_c, 0, 64, 75
1, 229657, Control_c, 0, 64, 92
1, 229671, Control_c, 0, 64, 114
1, 229686, Control_c, 0, 64, 127
1, 229719, Note_off_c, 0, 38, 39
1, 229732, Note_on_c, 0, 90, 72
1, 229759, Note_off_c, 0, 81, 56
1, 229854, Note_off_c, 0, 90, 57
1, 229897, Note_on_c, 0, 79, 66
1, 229898, Note_on_c, 0, 50, 47
1, 229899, Note_on_c, 0, 87, 60
1, 229929, Note_off_c, 0, 87, 66
1, 230037, Note_on_c, 0, 78, 72
1, 230043, Note_off_c, 0, 79, 58
1, 230101, Note_off_c, 0, 78, 62
1, 230146, Note_on_c, 0, 86, 68
1, 230148, Note_on_c, 0, 57, 46
1, 230240, Note_off_c, 0, 86, 53
1, 230252, Note_on_c, 0, 84, 64
1, 230262, Note_on_c, 0, 75, 57
1, 230301, Note_off_c, 0, 75, 61
1, 230313, Note_off_c, 0, 84, 64
1, 230324, Note_off_c, 0, 57, 53
1, 230363, Note_off_c, 0, 50, 51
1, 230388, Note_on_c, 0, 74, 64
1, 230394, Note_on_c, 0, 60, 49
1, 230467, Note_off_c, 0, 74, 59
1, 230484, Note_on_c, 0, 82, 59
1, 230565, Note_off_c, 0, 82, 58
1, 230594, Note_on_c, 0, 81, 66
1, 230607, Note_off_c, 0, 60, 35
1, 230611, Note_on_c, 0, 66, 53
1, 230638, Note_on_c, 0, 72, 43
1, 230643, Note_off_c, 0, 66, 54
1, 230696, Note_on_c, 0, 75, 65
1, 230700, Note_off_c, 0, 81, 56
1, 230706, Note_off_c, 0, 72, 63
1, 230728, Note_off_c, 0, 75, 65
1, 230810, Note_on_c, 0, 84, 68
1, 230909, Note_on_c, 0, 82, 70
1, 230927, Note_off_c, 0, 84, 59
1, 230938, Note_on_c, 0, 74, 39
1, 230966, Note_off_c, 0, 74, 57
1, 230980, Note_off_c, 0, 82, 61
1, 231021, Control_c, 0, 64, 117
1, 231036, Control_c, 0, 64, 94
1, 231040, Note_on_c, 0, 43, 48
1, 231050, Control_c, 0, 64, 70
1, 231058, Note_on_c, 0, 72, 61
1, 231065, Control_c, 0, 64, 0
1, 231108, Control_c, 0, 64, 66
1, 231114, Note_off_c, 0, 72, 58
1, 231123, Control_c, 0, 64, 79
1, 231138, Control_c, 0, 64, 96
1, 231153, Control_c, 0, 64, 107
1, 231168, Control_c, 0, 64, 115
1, 231183, Note_on_c, 0, 81, 64
1, 231183, Control_c, 0, 64, 127
1, 231296, Note_on_c, 0, 82, 71
1, 231299, Note_off_c, 0, 81, 57
1, 231315, Note_on_c, 0, 74, 47
1, 231323, Note_on_c, 0, 50, 32
1, 231338, Note_off_c, 0, 74, 63
1, 231367, Note_off_c, 0, 82, 62
1, 231398, Note_off_c, 0, 43, 41
1, 231427, Note_on_c, 0, 78, 69
1, 231442, Note_on_c, 0, 69, 66
1, 231471, Note_off_c, 0, 50, 36
1, 231474, Note_off_c, 0, 69, 63
1, 231624, Note_on_c, 0, 81, 73
1, 231636, Note_on_c, 0, 62, 45
1, 231643, Note_on_c, 0, 72, 53
1, 231654, Note_off_c, 0, 78, 56
1, 231678, Note_off_c, 0, 72, 65
1, 231787, Note_off_c, 0, 81, 58
1, 231791, Note_off_c, 0, 62, 60
1, 231805, Note_on_c, 0, 66, 49
1, 231854, Note_on_c, 0, 79, 71
1, 231874, Note_on_c, 0, 70, 46
1, 231905, Note_off_c, 0, 70, 52
1, 231940, Note_off_c, 0, 79, 58
1, 232018, Note_off_c, 0, 66, 54
1, 232036, Control_c, 0, 64, 107
1, 232042, Note_on_c, 0, 79, 70
1, 232051, Control_c, 0, 64, 85
1, 232059, Note_on_c, 0, 67, 55
1, 232062, Note_on_c, 0, 70, 45
1, 232065, Control_c, 0, 64, 66
1, 232080, Control_c, 0, 64, 0
1, 232110, Control_c, 0, 64, 63
1, 232125, Control_c, 0, 64, 78
1, 232136, Note_off_c, 0, 67, 58
1, 232137, Note_off_c, 0, 79, 61
1, 232140, Control_c, 0, 64, 93
1, 232155, Control_c, 0, 64, 107
1, 232170, Control_c, 0, 64, 115
1, 232177, Note_off_c, 0, 70, 58
1, 232191, Control_c, 0, 64, 127
1, 232275, Note_on_c, 0, 66, 72
1, 232278, Note_on_c, 0, 54, 51
1, 232343, Note_off_c, 0, 54, 58
1, 232361, Note_off_c, 0, 66, 64
1, 232439, Note_on_c, 0, 66, 71
1, 232450, Note_on_c, 0, 54, 53
1, 232549, Note_off_c, 0, 54, 60
1, 232587, Note_on_c, 0, 65, 75
1, 232592, Note_on_c, 0, 53, 60
1, 232622, Note_off_c, 0, 66, 56
1, 232632, Note_off_c, 0, 53, 64
1, 232643, Note_off_c, 0, 65, 65
1, 232724, Note_on_c, 0, 65, 74
1, 232728, Note_on_c, 0, 53, 65
1, 232837, Note_on_c, 0, 52, 66
1, 232837, Note_off_c, 0, 53, 61
1, 232840, Note_on_c, 0, 64, 78
1, 232846, Note_off_c, 0, 65, 58
1, 232941, Control_c, 0, 64, 119
1, 232956, Control_c, 0, 64, 107
1, 232971, Control_c, 0, 64, 94
1, 232986, Control_c, 0, 64, 80
1, 232990, Note_on_c, 0, 44, 64
1, 232992, Note_on_c, 0, 62, 71
1, 233001, Control_c, 0, 64, 66
1, 233015, Control_c, 0, 64, 0
1, 233043, Note_off_c, 0, 52, 46
1, 233061, Note_off_c, 0, 64, 53
1, 233110, Note_on_c, 0, 65, 66
1, 233119, Note_on_c, 0, 53, 60
1, 233195, Note_off_c, 0, 62, 53
1, 233222, Control_c, 0, 64, 58
1, 233237, Note_on_c, 0, 52, 64
1, 233237, Control_c, 0, 64, 66
1, 233241, Note_off_c, 0, 53, 64
1, 233242, Note_on_c, 0, 64, 71
1, 233252, Control_c, 0, 64, 72
1, 233267, Control_c, 0, 64, 78
1, 233275, Note_off_c, 0, 65, 61
1, 233281, Control_c, 0, 64, 83
1, 233296, Control_c, 0, 64, 87
1, 233311, Control_c, 0, 64, 89
1, 233326, Control_c, 0, 64, 92
1, 233341, Control_c, 0, 64, 95
1, 233342, Note_on_c, 0, 71, 70
1, 233356, Control_c, 0, 64, 99
1, 233371, Note_off_c, 0, 64, 61
1, 233371, Control_c, 0, 64, 103
1, 233386, Control_c, 0, 64, 107
1, 233401, Control_c, 0, 64, 111
1, 233413, Note_off_c, 0, 44, 57
1, 233416, Control_c, 0, 64, 115
1, 233430, Control_c, 0, 64, 117
1, 233439, Note_on_c, 0, 68, 78
1, 233445, Control_c, 0, 64, 120
1, 233460, Control_c, 0, 64, 123
1, 233475, Control_c, 0, 64, 127
1, 233495, Note_off_c, 0, 71, 54
1, 233532, Note_on_c, 0, 65, 78
1, 233595, Note_off_c, 0, 68, 53
1, 233617, Note_on_c, 0, 45, 62
1, 233626, Note_on_c, 0, 64, 75
1, 233633, Note_on_c, 0, 60, 68
1, 233642, Note_off_c, 0, 65, 62
1, 233653, Control_c, 0, 64, 118
1, 233659, Note_off_c, 0, 52, 60
1, 233668, Control_c, 0, 64, 100
1, 233690, Control_c, 0, 64, 80
1, 233705, Control_c, 0, 64, 0
1, 233732, Note_on_c, 0, 65, 78
1, 233735, Note_off_c, 0, 60, 54
1, 233741, Note_on_c, 0, 53, 62
1, 233755, Note_off_c, 0, 64, 62
1, 233809, Control_c, 0, 64, 65
1, 233824, Control_c, 0, 64, 77
1, 233828, Note_off_c, 0, 53, 65
1, 233832, Note_on_c, 0, 52, 70
1, 233836, Note_on_c, 0, 64, 80
1, 233838, Control_c, 0, 64, 86
1, 233840, Note_off_c, 0, 65, 63
1, 233853, Control_c, 0, 64, 93
1, 233868, Control_c, 0, 64, 100
1, 233883, Control_c, 0, 64, 107
1, 233897, Control_c, 0, 64, 112
1, 233912, Control_c, 0, 64, 117
1, 233927, Control_c, 0, 64, 124
1, 233933, Note_on_c, 0, 72, 80
1, 233934, Note_off_c, 0, 64, 58
1, 233942, Control_c, 0, 64, 127
1, 234015, Note_off_c, 0, 72, 59
1, 234032, Note_on_c, 0, 69, 76
1, 234036, Note_off_c, 0, 45, 54
1, 234038, Note_off_c, 0, 52, 66
1, 234127, Note_on_c, 0, 65, 74
1, 234137, Note_off_c, 0, 69, 62
1, 234181, Note_off_c, 0, 65, 65
1, 234259, Note_on_c, 0, 47, 75
1, 234268, Control_c, 0, 64, 106
1, 234283, Note_on_c, 0, 56, 69
1, 234283, Control_c, 0, 64, 83
1, 234298, Control_c, 0, 64, 42
1, 234313, Control_c, 0, 64, 0
1, 234343, Note_off_c, 0, 56, 63
1, 234358, Control_c, 0, 64, 63
1, 234372, Control_c, 0, 64, 78
1, 234387, Control_c, 0, 64, 93
1, 234402, Control_c, 0, 64, 115
1, 234417, Control_c, 0, 64, 124
1, 234417, Note_on_c, 0, 65, 62
1, 234439, Control_c, 0, 64, 127
1, 234440, Note_off_c, 0, 47, 63
1, 234477, Note_off_c, 0, 65, 64
1, 234524, Note_on_c, 0, 64, 58
1, 234547, Note_on_c, 0, 62, 71
1, 234577, Note_off_c, 0, 62, 64
1, 234630, Note_on_c, 0, 68, 79
1, 234647, Note_off_c, 0, 64, 56
1, 234704, Note_off_c, 0, 68, 63
1, 234722, Note_on_c, 0, 74, 76
1, 234765, Note_off_c, 0, 74, 67
1, 234812, Note_on_c, 0, 76, 84
1, 234897, Note_on_c, 0, 80, 85
1, 234926, Note_off_c, 0, 76, 63
1, 234992, Note_off_c, 0, 80, 63
1, 234995, Note_on_c, 0, 86, 82
1, 235044, Note_off_c, 0, 86, 66
1, 235115, Note_on_c, 0, 86, 90
1, 235352, Note_on_c, 0, 95, 95
1, 235449, Note_off_c, 0, 86, 62
1, 235460, Note_off_c, 0, 95, 65
1, 235747, Note_on_c, 0, 93, 80
1, 235763, Note_on_c, 0, 84, 62
1, 235808, Note_off_c, 0, 84, 58
1, 235951, Note_on_c, 0, 40, 54
1, 235981, Control_c, 0, 64, 126
1, 235996, Control_c, 0, 64, 107
1, 236011, Control_c, 0, 64, 89
1, 236026, Control_c, 0, 64, 69
1, 236040, Control_c, 0, 64, 0
1, 236042, Note_on_c, 0, 84, 70
1, 236057, Note_off_c, 0, 93, 59
1, 236129, Control_c, 0, 64, 43
1, 236144, Control_c, 0, 64, 71
1, 236158, Control_c, 0, 64, 85
1, 236173, Control_c, 0, 64, 105
1, 236188, Control_c, 0, 64, 127
1, 236192, Note_off_c, 0, 40, 60
1, 236246, Note_on_c, 0, 93, 84
1, 236277, Note_off_c, 0, 84, 58
1, 236473, Note_on_c, 0, 92, 80
1, 236477, Note_on_c, 0, 52, 48
1, 236492, Note_on_c, 0, 83, 64
1, 236519, Note_off_c, 0, 93, 56
1, 236561, Note_off_c, 0, 92, 65
1, 236651, Note_on_c, 0, 81, 81
1, 236684, Note_off_c, 0, 83, 57
1, 236726, Note_off_c, 0, 81, 58
1, 236778, Note_on_c, 0, 59, 45
1, 236796, Note_on_c, 0, 89, 74
1, 236926, Note_on_c, 0, 88, 71
1, 236928, Note_on_c, 0, 80, 71
1, 236943, Note_off_c, 0, 89, 63
1, 236982, Note_off_c, 0, 80, 58
1, 236999, Note_off_c, 0, 88, 58
1, 237025, Note_off_c, 0, 59, 56
1, 237058, Note_off_c, 0, 52, 52
1, 237061, Note_on_c, 0, 77, 76
1, 237084, Note_on_c, 0, 62, 51
1, 237128, Note_off_c, 0, 77, 56
1, 237179, Note_on_c, 0, 86, 69
1, 237246, Note_off_c, 0, 86, 54
1, 237300, Note_on_c, 0, 84, 66
1, 237307, Note_on_c, 0, 76, 58
1, 237308, Note_on_c, 0, 68, 59
1, 237311, Note_off_c, 0, 62, 32
1, 237330, Note_off_c, 0, 76, 66
1, 237353, Note_off_c, 0, 84, 59
1, 237362, Note_off_c, 0, 68, 48
1, 237418, Note_on_c, 0, 83, 61
1, 237434, Note_on_c, 0, 74, 60
1, 237455, Note_off_c, 0, 74, 63
1, 237483, Note_off_c, 0, 83, 60
1, 237552, Note_on_c, 0, 86, 73
1, 237571, Note_on_c, 0, 77, 50
1, 237592, Note_off_c, 0, 77, 60
1, 237673, Note_on_c, 0, 84, 67
1, 237676, Note_on_c, 0, 76, 65
1, 237705, Note_off_c, 0, 76, 68
1, 237724, Note_off_c, 0, 86, 35
1, 237758, Note_off_c, 0, 84, 56
1, 237790, Control_c, 0, 64, 114
1, 237803, Note_on_c, 0, 33, 51
1, 237804, Control_c, 0, 64, 88
1, 237819, Control_c, 0, 64, 65
1, 237822, Note_on_c, 0, 74, 60
1, 237834, Control_c, 0, 64, 0
1, 237863, Control_c, 0, 64, 63
1, 237878, Control_c, 0, 64, 79
1, 237893, Control_c, 0, 64, 97
1, 237908, Control_c, 0, 64, 122
1, 237921, Note_off_c, 0, 33, 55
1, 237923, Control_c, 0, 64, 127
1, 237928, Note_off_c, 0, 74, 50
1, 237950, Note_on_c, 0, 83, 66
1, 238052, Note_off_c, 0, 83, 55
1, 238084, Note_on_c, 0, 84, 68
1, 238099, Note_on_c, 0, 45, 45
1, 238104, Note_on_c, 0, 76, 52
1, 238129, Note_off_c, 0, 76, 63
1, 238144, Note_off_c, 0, 84, 60
1, 238149, Note_off_c, 0, 45, 45
1, 238227, Note_on_c, 0, 80, 71
1, 238241, Note_on_c, 0, 52, 47
1, 238266, Note_on_c, 0, 71, 33
1, 238296, Note_off_c, 0, 71, 44
1, 238384, Note_on_c, 0, 83, 70
1, 238388, Note_on_c, 0, 57, 53
1, 238400, Note_on_c, 0, 74, 55
1, 238404, Note_off_c, 0, 52, 54
1, 238408, Note_off_c, 0, 80, 42
1, 238456, Note_off_c, 0, 74, 51
1, 238507, Note_off_c, 0, 57, 60
1, 238541, Note_on_c, 0, 64, 49
1, 238625, Note_on_c, 0, 81, 68
1, 238650, Note_off_c, 0, 83, 55
1, 238651, Note_on_c, 0, 72, 44
1, 238693, Note_off_c, 0, 72, 44
1, 238778, Note_on_c, 0, 69, 58
1, 238880, Note_off_c, 0, 81, 30
1, 238880, Control_c, 0, 64, 107
1, 238895, Control_c, 0, 64, 88
1, 238898, Note_off_c, 0, 64, 39
1, 238910, Control_c, 0, 64, 70
1, 238933, Control_c, 0, 64, 0
1, 238977, Control_c, 0, 64, 31
1, 238992, Control_c, 0, 64, 67
1, 238994, Note_on_c, 0, 81, 68
1, 239008, Control_c, 0, 64, 76
1, 239018, Note_on_c, 0, 72, 43
1, 239023, Control_c, 0, 64, 82
1, 239038, Control_c, 0, 64, 84
1, 239052, Control_c, 0, 64, 86
1, 239067, Control_c, 0, 64, 89
1, 239082, Control_c, 0, 64, 93
1, 239097, Control_c, 0, 64, 98
1, 239111, Control_c, 0, 64, 101
1, 239126, Control_c, 0, 64, 103
1, 239141, Control_c, 0, 64, 104
1, 239156, Control_c, 0, 64, 106
1, 239157, Note_on_c, 0, 64, 58
1, 239171, Control_c, 0, 64, 109
1, 239184, Note_off_c, 0, 72, 17
1, 239185, Control_c, 0, 64, 112
1, 239191, Note_off_c, 0, 69, 62
1, 239200, Control_c, 0, 64, 113
1, 239215, Note_off_c, 0, 81, 50
1, 239215, Control_c, 0, 64, 113
1, 239230, Control_c, 0, 64, 114
1, 239245, Control_c, 0, 64, 115
1, 239259, Control_c, 0, 64, 115
1, 239274, Control_c, 0, 64, 116
1, 239289, Control_c, 0, 64, 116
1, 239318, Control_c, 0, 64, 117
1, 239340, Note_on_c, 0, 81, 72
1, 239347, Control_c, 0, 64, 117
1, 239370, Note_on_c, 0, 72, 42
1, 239421, Control_c, 0, 64, 118
1, 239462, Note_off_c, 0, 72, 0
1, 239462, Note_on_c, 0, 72, 3
1, 239547, Note_off_c, 0, 81, 50
1, 239551, Note_on_c, 0, 63, 57
1, 239643, Control_c, 0, 64, 117
1, 239648, Note_off_c, 0, 72, 37
1, 239661, Note_off_c, 0, 64, 54
1, 239695, Control_c, 0, 64, 117
1, 239709, Control_c, 0, 64, 116
1, 239724, Control_c, 0, 64, 114
1, 239739, Control_c, 0, 64, 113
1, 239754, Control_c, 0, 64, 111
1, 239769, Control_c, 0, 64, 108
1, 239783, Control_c, 0, 64, 106
1, 239796, Note_on_c, 0, 81, 74
1, 239799, Control_c, 0, 64, 103
1, 239814, Control_c, 0, 64, 100
1, 239822, Note_on_c, 0, 72, 49
1, 239829, Control_c, 0, 64, 98
1, 239844, Control_c, 0, 64, 95
1, 239858, Control_c, 0, 64, 91
1, 239873, Control_c, 0, 64, 88
1, 239888, Control_c, 0, 64, 84
1, 239903, Control_c, 0, 64, 80
1, 239918, Control_c, 0, 64, 76
1, 239932, Control_c, 0, 64, 71
1, 239947, Control_c, 0, 64, 65
1, 239962, Control_c, 0, 64, 52
1, 239977, Control_c, 0, 64, 38
1, 239992, Control_c, 0, 64, 37
1, 240036, Control_c, 0, 64, 36
1, 240051, Control_c, 0, 64, 34
1, 240066, Control_c, 0, 64, 32
1, 240081, Control_c, 0, 64, 31
1, 240105, Note_on_c, 0, 62, 43
1, 240107, Note_off_c, 0, 72, 38
1, 240177, Note_off_c, 0, 63, 59
1, 240185, Control_c, 0, 64, 30
1, 240258, Control_c, 0, 64, 26
1, 240273, Control_c, 0, 64, 0
1, 240372, Note_on_c, 0, 82, 65
1, 240397, Note_on_c, 0, 74, 45
1, 240458, Note_off_c, 0, 81, 36
1, 240458, Control_c, 0, 64, 64
1, 240473, Control_c, 0, 64, 70
1, 240488, Control_c, 0, 64, 75
1, 240503, Control_c, 0, 64, 78
1, 240518, Control_c, 0, 64, 82
1, 240531, Note_off_c, 0, 74, 51
1, 240532, Control_c, 0, 64, 86
1, 240547, Control_c, 0, 64, 89
1, 240562, Control_c, 0, 64, 91
1, 240576, Control_c, 0, 64, 93
1, 240591, Control_c, 0, 64, 95
1, 240608, Control_c, 0, 64, 96
1, 240623, Control_c, 0, 64, 97
1, 240637, Control_c, 0, 64, 98
1, 240652, Control_c, 0, 64, 99
1, 240667, Control_c, 0, 64, 100
1, 240696, Control_c, 0, 64, 101
1, 240726, Control_c, 0, 64, 101
1, 240736, Note_on_c, 0, 81, 63
1, 240765, Note_off_c, 0, 82, 61
1, 240770, Control_c, 0, 64, 102
1, 240778, Note_on_c, 0, 72, 12
1, 240815, Control_c, 0, 64, 102
1, 240845, Note_off_c, 0, 72, 36
1, 240901, Note_on_c, 0, 54, 44
1, 240948, Control_c, 0, 64, 101
1, 240963, Control_c, 0, 64, 97
1, 240978, Control_c, 0, 64, 88
1, 240993, Control_c, 0, 64, 77
1, 241008, Control_c, 0, 64, 64
1, 241008, Note_off_c, 0, 62, 48
1, 241022, Control_c, 0, 64, 0
1, 241037, Control_c, 0, 64, 43
1, 241052, Control_c, 0, 64, 66
1, 241067, Control_c, 0, 64, 75
1, 241069, Note_on_c, 0, 84, 65
1, 241079, Note_off_c, 0, 81, 46
1, 241081, Control_c, 0, 64, 82
1, 241089, Note_on_c, 0, 75, 46
1, 241096, Control_c, 0, 64, 86
1, 241111, Control_c, 0, 64, 87
1, 241126, Control_c, 0, 64, 90
1, 241141, Control_c, 0, 64, 93
1, 241155, Control_c, 0, 64, 95
1, 241178, Control_c, 0, 64, 97
1, 241184, Note_off_c, 0, 84, 63
1, 241193, Control_c, 0, 64, 99
1, 241207, Control_c, 0, 64, 100
1, 241220, Note_on_c, 0, 55, 56
1, 241222, Control_c, 0, 64, 100
1, 241237, Control_c, 0, 64, 101
1, 241252, Control_c, 0, 64, 101
1, 241267, Control_c, 0, 64, 102
1, 241281, Control_c, 0, 64, 102
1, 241296, Control_c, 0, 64, 103
1, 241327, Note_off_c, 0, 54, 32
1, 241341, Control_c, 0, 64, 103
1, 241352, Note_on_c, 0, 82, 70
1, 241377, Note_on_c, 0, 74, 56
1, 241418, Note_off_c, 0, 75, 53
1, 241468, Note_off_c, 0, 74, 51
1, 241498, Note_on_c, 0, 57, 65
1, 241578, Control_c, 0, 64, 103
1, 241582, Note_off_c, 0, 55, 57
1, 241622, Control_c, 0, 64, 102
1, 241625, Note_on_c, 0, 78, 70
1, 241637, Control_c, 0, 64, 100
1, 241640, Note_on_c, 0, 72, 58
1, 241649, Note_off_c, 0, 82, 60
1, 241652, Control_c, 0, 64, 98
1, 241667, Control_c, 0, 64, 94
1, 241679, Note_off_c, 0, 72, 61
1, 241682, Control_c, 0, 64, 88
1, 241697, Control_c, 0, 64, 81
1, 241711, Control_c, 0, 64, 72
1, 241726, Control_c, 0, 64, 58
1, 241741, Control_c, 0, 64, 0
1, 241801, Note_on_c, 0, 79, 63
1, 241807, Note_on_c, 0, 58, 48
1, 241822, Note_on_c, 0, 70, 58
1, 241828, Note_off_c, 0, 57, 37
1, 241842, Note_off_c, 0, 78, 57
1, 241889, Control_c, 0, 64, 65
1, 241904, Control_c, 0, 64, 73
1, 241905, Note_off_c, 0, 70, 59
1, 241926, Control_c, 0, 64, 79
1, 241941, Control_c, 0, 64, 83
1, 241956, Control_c, 0, 64, 87
1, 241971, Control_c, 0, 64, 91
1, 241986, Control_c, 0, 64, 95
1, 241991, Note_off_c, 0, 79, 56
1, 241994, Note_on_c, 0, 50, 51
1, 241995, Note_on_c, 0, 82, 66
1, 242001, Control_c, 0, 64, 99
1, 242006, Note_off_c, 0, 58, 54
1, 242007, Note_on_c, 0, 74, 53
1, 242015, Control_c, 0, 64, 102
1, 242030, Control_c, 0, 64, 105
1, 242039, Note_off_c, 0, 50, 62
1, 242045, Control_c, 0, 64, 108
1, 242060, Control_c, 0, 64, 109
1, 242075, Control_c, 0, 64, 111
1, 242090, Control_c, 0, 64, 113
1, 242104, Control_c, 0, 64, 115
1, 242119, Control_c, 0, 64, 117
1, 242134, Control_c, 0, 64, 118
1, 242209, Control_c, 0, 64, 117
1, 242224, Control_c, 0, 64, 108
1, 242230, Note_on_c, 0, 38, 46
1, 242239, Control_c, 0, 64, 93
1, 242253, Control_c, 0, 64, 73
1, 242268, Control_c, 0, 64, 0
1, 242313, Control_c, 0, 64, 60
1, 242327, Control_c, 0, 64, 74
1, 242342, Control_c, 0, 64, 89
1, 242354, Note_off_c, 0, 38, 55
1, 242357, Control_c, 0, 64, 100
1, 242372, Control_c, 0, 64, 106
1, 242387, Note_on_c, 0, 81, 69
1, 242387, Control_c, 0, 64, 114
1, 242401, Control_c, 0, 64, 126
1, 242406, Note_off_c, 0, 82, 37
1, 242416, Control_c, 0, 64, 127
1, 242418, Note_on_c, 0, 72, 40
1, 242447, Note_off_c, 0, 72, 52
1, 242512, Note_off_c, 0, 74, 40
1, 242522, Note_off_c, 0, 81, 51
1, 242537, Note_on_c, 0, 62, 64
1, 242617, Note_on_c, 0, 82, 68
1, 242630, Note_on_c, 0, 74, 58
1, 242652, Note_off_c, 0, 62, 50
1, 242706, Note_off_c, 0, 74, 60
1, 242716, Note_off_c, 0, 82, 60
1, 242779, Note_on_c, 0, 78, 72
1, 242785, Note_on_c, 0, 69, 64
1, 242799, Note_on_c, 0, 66, 46
1, 242814, Note_off_c, 0, 69, 68
1, 242816, Note_on_c, 0, 60, 28
1, 242839, Note_off_c, 0, 66, 48
1, 242869, Note_off_c, 0, 60, 41
1, 242871, Note_off_c, 0, 78, 59
1, 242917, Note_on_c, 0, 81, 72
1, 242929, Note_on_c, 0, 72, 57
1, 242961, Note_off_c, 0, 72, 65
1, 242987, Note_off_c, 0, 81, 56
1, 243076, Control_c, 0, 64, 114
1, 243084, Note_on_c, 0, 55, 45
1, 243091, Note_on_c, 0, 72, 55
1, 243091, Control_c, 0, 64, 97
1, 243094, Note_on_c, 0, 81, 70
1, 243106, Control_c, 0, 64, 80
1, 243121, Control_c, 0, 64, 66
1, 243136, Control_c, 0, 64, 0
1, 243150, Control_c, 0, 64, 36
1, 243157, Note_off_c, 0, 72, 63
1, 243165, Control_c, 0, 64, 65
1, 243180, Control_c, 0, 64, 74
1, 243183, Note_off_c, 0, 81, 57
1, 243195, Control_c, 0, 64, 81
1, 243210, Control_c, 0, 64, 88
1, 243224, Control_c, 0, 64, 91
1, 243239, Control_c, 0, 64, 95
1, 243253, Note_on_c, 0, 79, 62
1, 243254, Control_c, 0, 64, 98
1, 243261, Note_on_c, 0, 70, 63
1, 243268, Control_c, 0, 64, 102
1, 243283, Control_c, 0, 64, 105
1, 243294, Note_off_c, 0, 70, 61
1, 243298, Control_c, 0, 64, 108
1, 243313, Control_c, 0, 64, 110
1, 243320, Note_off_c, 0, 79, 60
1, 243328, Control_c, 0, 64, 111
1, 243342, Control_c, 0, 64, 111
1, 243357, Control_c, 0, 64, 112
1, 243372, Control_c, 0, 64, 113
1, 243386, Note_on_c, 0, 81, 45
1, 243387, Control_c, 0, 64, 113
1, 243402, Control_c, 0, 64, 114
1, 243427, Note_on_c, 0, 79, 65
1, 243435, Note_on_c, 0, 70, 43
1, 243445, Note_on_c, 0, 62, 37
1, 243454, Control_c, 0, 64, 114
1, 243458, Note_off_c, 0, 55, 38
1, 243480, Note_off_c, 0, 70, 43
1, 243513, Control_c, 0, 64, 114
1, 243528, Control_c, 0, 64, 113
1, 243543, Control_c, 0, 64, 108
1, 243548, Note_off_c, 0, 81, 35
1, 243557, Control_c, 0, 64, 101
1, 243572, Control_c, 0, 64, 92
1, 243587, Control_c, 0, 64, 80
1, 243601, Control_c, 0, 64, 69
1, 243608, Note_on_c, 0, 78, 57
1, 243613, Note_off_c, 0, 79, 51
1, 243616, Control_c, 0, 64, 46
1, 243622, Note_on_c, 0, 69, 54
1, 243631, Control_c, 0, 64, 0
1, 243688, Note_off_c, 0, 69, 57
1, 243816, Note_on_c, 0, 61, 43
1, 243947, Note_off_c, 0, 62, 41
1, 244050, Note_on_c, 0, 79, 54
1, 244068, Note_on_c, 0, 70, 37
1, 244103, Note_off_c, 0, 78, 37
1, 244248, Note_off_c, 0, 70, 43
1, 244323, Note_on_c, 0, 60, 39
1, 244403, Note_off_c, 0, 61, 31
1, 244484, Control_c, 0, 64, 59
1, 244499, Control_c, 0, 64, 65
1, 244513, Control_c, 0, 64, 67
1, 244528, Control_c, 0, 64, 68
1, 244543, Control_c, 0, 64, 70
1, 244558, Control_c, 0, 64, 72
1, 244573, Control_c, 0, 64, 74
1, 244587, Note_on_c, 0, 80, 60
1, 244588, Control_c, 0, 64, 76
1, 244603, Control_c, 0, 64, 77
1, 244604, Note_on_c, 0, 72, 41
1, 244618, Control_c, 0, 64, 78
1, 244633, Control_c, 0, 64, 79
1, 244648, Control_c, 0, 64, 80
1, 244663, Control_c, 0, 64, 81
1, 244671, Note_off_c, 0, 79, 32
1, 244677, Control_c, 0, 64, 81
1, 244692, Note_off_c, 0, 72, 35
1, 244692, Control_c, 0, 64, 82
1, 244707, Control_c, 0, 64, 83
1, 244722, Control_c, 0, 64, 83
1, 244737, Control_c, 0, 64, 84
1, 244752, Control_c, 0, 64, 85
1, 244767, Control_c, 0, 64, 85
1, 244782, Control_c, 0, 64, 86
1, 244796, Control_c, 0, 64, 86
1, 244811, Control_c, 0, 64, 87
1, 244840, Control_c, 0, 64, 88
1, 244855, Control_c, 0, 64, 88
1, 244885, Control_c, 0, 64, 89
1, 244922, Control_c, 0, 64, 89
1, 244933, Note_on_c, 0, 70, 51
1, 244935, Note_on_c, 0, 79, 63
1, 244965, Note_off_c, 0, 80, 54
1, 245005, Note_off_c, 0, 70, 46
1, 245026, Control_c, 0, 64, 90
1, 245091, Note_on_c, 0, 52, 49
1, 245174, Control_c, 0, 64, 89
1, 245189, Control_c, 0, 64, 88
1, 245203, Control_c, 0, 64, 85
1, 245218, Control_c, 0, 64, 78
1, 245233, Control_c, 0, 64, 70
1, 245247, Control_c, 0, 64, 59
1, 245262, Control_c, 0, 64, 37
1, 245263, Note_on_c, 0, 82, 64
1, 245277, Control_c, 0, 64, 57
1, 245279, Note_on_c, 0, 73, 44
1, 245292, Control_c, 0, 64, 66
1, 245307, Control_c, 0, 64, 71
1, 245312, Note_off_c, 0, 60, 30
1, 245321, Control_c, 0, 64, 75
1, 245330, Note_off_c, 0, 79, 36
1, 245337, Control_c, 0, 64, 79
1, 245352, Control_c, 0, 64, 82
1, 245366, Control_c, 0, 64, 85
1, 245381, Control_c, 0, 64, 87
1, 245398, Control_c, 0, 64, 88
1, 245412, Control_c, 0, 64, 89
1, 245418, Note_off_c, 0, 82, 61
1, 245427, Control_c, 0, 64, 91
1, 245429, Note_on_c, 0, 53, 48
1, 245442, Control_c, 0, 64, 92
1, 245446, Note_off_c, 0, 73, 35
1, 245457, Note_off_c, 0, 52, 33
1, 245457, Control_c, 0, 64, 93
1, 245471, Control_c, 0, 64, 95
1, 245486, Control_c, 0, 64, 95
1, 245501, Control_c, 0, 64, 96
1, 245545, Control_c, 0, 64, 96
1, 245556, Note_on_c, 0, 80, 68
1, 245569, Note_on_c, 0, 72, 56
1, 245619, Note_off_c, 0, 72, 58
1, 245686, Control_c, 0, 64, 96
1, 245701, Control_c, 0, 64, 95
1, 245715, Note_on_c, 0, 55, 54
1, 245716, Control_c, 0, 64, 93
1, 245731, Control_c, 0, 64, 91
1, 245737, Note_off_c, 0, 53, 55
1, 245745, Control_c, 0, 64, 87
1, 245760, Control_c, 0, 64, 83
1, 245775, Control_c, 0, 64, 78
1, 245790, Control_c, 0, 64, 71
1, 245804, Control_c, 0, 64, 64
1, 245819, Control_c, 0, 64, 44
1, 245829, Note_on_c, 0, 76, 59
1, 245834, Control_c, 0, 64, 0
1, 245836, Note_on_c, 0, 70, 55
1, 245856, Note_off_c, 0, 80, 54
1, 245889, Note_off_c, 0, 70, 55
1, 245990, Note_off_c, 0, 55, 64
1, 246010, Note_on_c, 0, 77, 63
1, 246014, Note_off_c, 0, 76, 60
1, 246022, Note_on_c, 0, 56, 39
1, 246033, Note_on_c, 0, 68, 45
1, 246071, Control_c, 0, 64, 47
1, 246075, Note_off_c, 0, 68, 47
1, 246085, Control_c, 0, 64, 66
1, 246100, Control_c, 0, 64, 70
1, 246115, Control_c, 0, 64, 72
1, 246130, Control_c, 0, 64, 75
1, 246144, Control_c, 0, 64, 78
1, 246159, Control_c, 0, 64, 81
1, 246162, Note_off_c, 0, 77, 53
1, 246168, Note_off_c, 0, 56, 34
1, 246174, Control_c, 0, 64, 84
1, 246180, Note_on_c, 0, 80, 64
1, 246181, Note_on_c, 0, 48, 46
1, 246190, Control_c, 0, 64, 85
1, 246199, Note_on_c, 0, 72, 50
1, 246205, Control_c, 0, 64, 87
1, 246220, Control_c, 0, 64, 89
1, 246221, Note_off_c, 0, 48, 58
1, 246235, Control_c, 0, 64, 90
1, 246249, Control_c, 0, 64, 91
1, 246257, Note_off_c, 0, 72, 51
1, 246264, Control_c, 0, 64, 93
1, 246272, Note_off_c, 0, 80, 57
1, 246279, Control_c, 0, 64, 94
1, 246293, Control_c, 0, 64, 94
1, 246323, Control_c, 0, 64, 95
1, 246419, Control_c, 0, 64, 94
1, 246434, Control_c, 0, 64, 89
1, 246436, Note_on_c, 0, 80, 60
1, 246445, Note_on_c, 0, 36, 45
1, 246449, Control_c, 0, 64, 79
1, 246456, Note_on_c, 0, 72, 51
1, 246464, Control_c, 0, 64, 64
1, 246479, Control_c, 0, 64, 0
1, 246508, Control_c, 0, 64, 35
1, 246523, Control_c, 0, 64, 68
1, 246538, Control_c, 0, 64, 78
1, 246553, Control_c, 0, 64, 86
1, 246555, Note_off_c, 0, 36, 56
1, 246567, Control_c, 0, 64, 89
1, 246582, Control_c, 0, 64, 92
1, 246584, Note_off_c, 0, 80, 57
1, 246597, Control_c, 0, 64, 95
1, 246612, Control_c, 0, 64, 98
1, 246627, Control_c, 0, 64, 102
1, 246639, Note_on_c, 0, 79, 61
1, 246642, Control_c, 0, 64, 104
1, 246650, Note_on_c, 0, 70, 55
1, 246657, Control_c, 0, 64, 107
1, 246672, Control_c, 0, 64, 108
1, 246683, Note_off_c, 0, 70, 58
1, 246687, Control_c, 0, 64, 109
1, 246701, Control_c, 0, 64, 110
1, 246716, Control_c, 0, 64, 111
1, 246746, Control_c, 0, 64, 112
1, 246771, Note_off_c, 0, 72, 38
1, 246776, Note_on_c, 0, 60, 51
1, 246790, Control_c, 0, 64, 112
1, 246797, Note_off_c, 0, 79, 34
1, 246891, Note_off_c, 0, 60, 51
1, 246898, Note_on_c, 0, 80, 62
1, 246900, Note_on_c, 0, 72, 57
1, 246939, Note_off_c, 0, 72, 60
1, 246962, Note_off_c, 0, 80, 61
1, 247040, Note_on_c, 0, 76, 65
1, 247041, Note_on_c, 0, 67, 62
1, 247044, Note_on_c, 0, 58, 45
1, 247060, Note_on_c, 0, 64, 36
1, 247069, Note_off_c, 0, 67, 64
1, 247125, Note_off_c, 0, 58, 45
1, 247138, Note_off_c, 0, 76, 40
1, 247140, Note_off_c, 0, 64, 36
1, 247178, Note_on_c, 0, 79, 67
1, 247192, Note_on_c, 0, 70, 60
1, 247228, Note_off_c, 0, 70, 60
1, 247240, Note_off_c, 0, 79, 59
1, 247242, Control_c, 0, 64, 112
1, 247257, Control_c, 0, 64, 109
1, 247272, Control_c, 0, 64, 103
1, 247287, Control_c, 0, 64, 92
1, 247302, Control_c, 0, 64, 78
1, 247316, Control_c, 0, 64, 63
1, 247323, Note_on_c, 0, 70, 58
1, 247324, Note_on_c, 0, 53, 44
1, 247329, Note_on_c, 0, 79, 56
1, 247331, Control_c, 0, 64, 0
1, 247361, Control_c, 0, 64, 61
1, 247376, Control_c, 0, 64, 70
1, 247378, Note_off_c, 0, 70, 57
1, 247390, Control_c, 0, 64, 75
1, 247405, Control_c, 0, 64, 79
1, 247420, Control_c, 0, 64, 83
1, 247428, Note_off_c, 0, 79, 42
1, 247435, Control_c, 0, 64, 85
1, 247450, Control_c, 0, 64, 88
1, 247457, Note_on_c, 0, 77, 64
1, 247465, Control_c, 0, 64, 90
1, 247479, Control_c, 0, 64, 92
1, 247492, Note_on_c, 0, 68, 32
1, 247494, Control_c, 0, 64, 93
1, 247509, Control_c, 0, 64, 93
1, 247521, Note_off_c, 0, 77, 54
1, 247524, Control_c, 0, 64, 94
1, 247526, Note_off_c, 0, 68, 48
1, 247567, Note_on_c, 0, 79, 54
1, 247606, Note_on_c, 0, 77, 57
1, 247620, Note_on_c, 0, 60, 43
1, 247624, Note_on_c, 0, 68, 51
1, 247628, Control_c, 0, 64, 93
1, 247642, Control_c, 0, 64, 92
1, 247657, Control_c, 0, 64, 88
1, 247662, Note_off_c, 0, 79, 54
1, 247664, Note_off_c, 0, 68, 47
1, 247672, Control_c, 0, 64, 81
1, 247687, Control_c, 0, 64, 73
1, 247700, Note_off_c, 0, 53, 46
1, 247702, Control_c, 0, 64, 62
1, 247716, Control_c, 0, 64, 0
1, 247730, Note_off_c, 0, 77, 54
1, 247786, Note_on_c, 0, 76, 47
1, 247796, Note_on_c, 0, 67, 46
1, 247838, Note_off_c, 0, 67, 49
1, 247949, Note_off_c, 0, 60, 37
1, 247977, Note_on_c, 0, 56, 40
1, 247982, Note_on_c, 0, 65, 33
1, 248065, Control_c, 0, 64, 59
1, 248080, Control_c, 0, 64, 67
1, 248082, Note_off_c, 0, 76, 55
1, 248095, Control_c, 0, 64, 70
1, 248110, Control_c, 0, 64, 73
1, 248125, Control_c, 0, 64, 76
1, 248129, Note_off_c, 0, 65, 36
1, 248139, Control_c, 0, 64, 79
1, 248154, Control_c, 0, 64, 81
1, 248168, Note_off_c, 0, 56, 38
1, 248169, Control_c, 0, 64, 83
1, 248171, Note_on_c, 0, 77, 52
1, 248184, Control_c, 0, 64, 85
1, 248189, Note_on_c, 0, 68, 37
1, 248199, Control_c, 0, 64, 86
1, 248214, Control_c, 0, 64, 87
1, 248229, Control_c, 0, 64, 88
1, 248238, Note_off_c, 0, 68, 45
1, 248244, Control_c, 0, 64, 89
1, 248252, Note_off_c, 0, 77, 53
1, 248258, Control_c, 0, 64, 90
1, 248273, Control_c, 0, 64, 91
1, 248303, Control_c, 0, 64, 92
1, 248392, Control_c, 0, 64, 91
1, 248407, Control_c, 0, 64, 89
1, 248422, Control_c, 0, 64, 82
1, 248429, Note_on_c, 0, 77, 50
1, 248434, Note_on_c, 0, 44, 41
1, 248436, Note_on_c, 0, 68, 49
1, 248437, Control_c, 0, 64, 72
1, 248452, Control_c, 0, 64, 52
1, 248466, Control_c, 0, 64, 0
1, 248469, Note_off_c, 0, 68, 52
1, 248496, Control_c, 0, 64, 62
1, 248511, Control_c, 0, 64, 72
1, 248526, Control_c, 0, 64, 78
1, 248532, Note_off_c, 0, 44, 54
1, 248541, Control_c, 0, 64, 83
1, 248556, Control_c, 0, 64, 85
1, 248570, Control_c, 0, 64, 88
1, 248586, Control_c, 0, 64, 90
1, 248601, Control_c, 0, 64, 93
1, 248615, Control_c, 0, 64, 95
1, 248621, Note_on_c, 0, 78, 60
1, 248630, Control_c, 0, 64, 97
1, 248631, Note_off_c, 0, 77, 31
1, 248637, Note_on_c, 0, 70, 42
1, 248645, Control_c, 0, 64, 98
1, 248668, Control_c, 0, 64, 98
1, 248683, Control_c, 0, 64, 99
1, 248687, Note_off_c, 0, 70, 46
1, 248712, Control_c, 0, 64, 99
1, 248737, Note_on_c, 0, 56, 47
1, 248785, Note_off_c, 0, 56, 59
1, 248830, Note_on_c, 0, 58, 37
1, 248851, Note_on_c, 0, 68, 51
1, 248857, Note_on_c, 0, 77, 48
1, 248858, Note_off_c, 0, 58, 59
1, 248860, Control_c, 0, 64, 99
1, 248866, Note_off_c, 0, 78, 48
1, 248875, Control_c, 0, 64, 96
1, 248880, Note_off_c, 0, 68, 58
1, 248889, Control_c, 0, 64, 91
1, 248904, Control_c, 0, 64, 83
1, 248919, Control_c, 0, 64, 73
1, 248934, Control_c, 0, 64, 63
1, 248949, Control_c, 0, 64, 0
1, 248976, Note_on_c, 0, 48, 45
1, 248981, Note_on_c, 0, 66, 57
1, 248984, Note_on_c, 0, 75, 56
1, 249000, Note_off_c, 0, 66, 64
1, 249006, Note_off_c, 0, 48, 59
1, 249006, Note_off_c, 0, 77, 28
1, 249056, Note_off_c, 0, 75, 56
1, 249099, Note_on_c, 0, 78, 60
1, 249111, Note_on_c, 0, 70, 62
1, 249143, Note_off_c, 0, 70, 66
1, 249232, Note_off_c, 0, 78, 37
1, 249241, Note_on_c, 0, 68, 61
1, 249241, Note_on_c, 0, 77, 60
1, 249246, Note_on_c, 0, 49, 42
1, 249261, Note_off_c, 0, 68, 65
1, 249278, Note_off_c, 0, 49, 52
1, 249319, Control_c, 0, 64, 20
1, 249334, Control_c, 0, 64, 39
1, 249347, Note_off_c, 0, 77, 35
1, 249349, Control_c, 0, 64, 42
1, 249353, Note_on_c, 0, 78, 67
1, 249363, Control_c, 0, 64, 43
1, 249369, Note_on_c, 0, 70, 60
1, 249378, Control_c, 0, 64, 44
1, 249394, Note_off_c, 0, 70, 63
1, 249394, Control_c, 0, 64, 46
1, 249417, Control_c, 0, 64, 46
1, 249446, Control_c, 0, 64, 46
1, 249471, Note_off_c, 0, 78, 50
1, 249476, Note_on_c, 0, 58, 47
1, 249489, Note_on_c, 0, 77, 64
1, 249491, Control_c, 0, 64, 45
1, 249496, Note_on_c, 0, 68, 62
1, 249506, Control_c, 0, 64, 45
1, 249520, Control_c, 0, 64, 44
1, 249526, Note_off_c, 0, 68, 61
1, 249528, Note_on_c, 0, 56, 13
1, 249535, Control_c, 0, 64, 43
1, 249539, Note_off_c, 0, 58, 54
1, 249550, Control_c, 0, 64, 41
1, 249565, Control_c, 0, 64, 39
1, 249567, Note_off_c, 0, 56, 54
1, 249580, Control_c, 0, 64, 38
1, 249594, Control_c, 0, 64, 36
1, 249600, Note_on_c, 0, 72, 65
1, 249605, Note_on_c, 0, 55, 46
1, 249607, Note_on_c, 0, 66, 59
1, 249609, Control_c, 0, 64, 35
1, 249627, Note_off_c, 0, 77, 30
1, 249637, Note_off_c, 0, 66, 65
1, 249642, Note_off_c, 0, 72, 58
1, 249653, Control_c, 0, 64, 34
1, 249659, Note_off_c, 0, 55, 61
1, 249672, Note_on_c, 0, 56, 39
1, 249683, Control_c, 0, 64, 34
1, 249698, Control_c, 0, 64, 32
1, 249712, Control_c, 0, 64, 25
1, 249724, Note_on_c, 0, 73, 69
1, 249727, Control_c, 0, 64, 20
1, 249735, Note_on_c, 0, 61, 55
1, 249737, Note_on_c, 0, 65, 55
1, 249742, Control_c, 0, 64, 16
1, 249757, Note_off_c, 0, 56, 56
1, 249758, Note_off_c, 0, 65, 64
1, 249765, Note_off_c, 0, 61, 64
1, 249772, Control_c, 0, 64, 18
1, 249774, Note_off_c, 0, 73, 62
1, 249787, Control_c, 0, 64, 20
1, 249802, Control_c, 0, 64, 21
1, 249817, Control_c, 0, 64, 23
1, 249845, Control_c, 0, 64, 24
1, 249854, Note_on_c, 0, 77, 67
1, 249872, Note_on_c, 0, 68, 51
1, 249875, Control_c, 0, 64, 25
1, 249890, Control_c, 0, 64, 26
1, 249896, Note_off_c, 0, 68, 58
1, 249900, Note_off_c, 0, 77, 54
1, 249919, Control_c, 0, 64, 25
1, 249934, Control_c, 0, 64, 23
1, 249949, Control_c, 0, 64, 20
1, 249963, Control_c, 0, 64, 16
1, 249978, Control_c, 0, 64, 0
1, 249987, Note_on_c, 0, 75, 67
1, 249991, Note_on_c, 0, 39, 48
1, 249992, Note_on_c, 0, 67, 62
1, 250022, Note_off_c, 0, 67, 66
1, 250063, Note_off_c, 0, 75, 62
1, 250106, Note_on_c, 0, 77, 58
1, 250138, Note_on_c, 0, 68, 56
1, 250166, Note_off_c, 0, 68, 62
1, 250190, Note_off_c, 0, 77, 58
1, 250230, Note_on_c, 0, 51, 57
1, 250237, Note_on_c, 0, 75, 65
1, 250243, Note_off_c, 0, 39, 62
1, 250258, Note_off_c, 0, 51, 63
1, 250264, Note_on_c, 0, 67, 44
1, 250296, Note_off_c, 0, 67, 53
1, 250329, Note_on_c, 0, 77, 68
1, 250330, Note_off_c, 0, 75, 60
1, 250404, Note_off_c, 0, 77, 59
1, 250424, Note_on_c, 0, 55, 57
1, 250430, Note_on_c, 0, 63, 46
1, 250434, Note_on_c, 0, 73, 67
1, 250445, Note_on_c, 0, 65, 62
1, 250454, Note_off_c, 0, 55, 66
1, 250454, Note_off_c, 0, 63, 55
1, 250475, Note_off_c, 0, 65, 67
1, 250476, Note_off_c, 0, 73, 64
1, 250541, Note_on_c, 0, 75, 61
1, 250619, Note_off_c, 0, 75, 64
1, 250634, Note_on_c, 0, 44, 51
1, 250642, Note_on_c, 0, 72, 62
1, 250659, Note_on_c, 0, 63, 56
1, 250667, Note_off_c, 0, 44, 64
1, 250699, Note_off_c, 0, 72, 48
1, 250700, Note_off_c, 0, 63, 62
1, 250744, Note_on_c, 0, 73, 60
1, 250833, Note_off_c, 0, 73, 60
1, 250861, Note_on_c, 0, 51, 49
1, 250863, Note_on_c, 0, 70, 62
1, 250872, Note_on_c, 0, 61, 52
1, 250888, Note_off_c, 0, 51, 61
1, 250894, Note_off_c, 0, 61, 58
1, 250952, Note_off_c, 0, 70, 56
1, 250978, Note_on_c, 0, 72, 53
1, 251063, Note_off_c, 0, 72, 56
1, 251124, Note_on_c, 0, 68, 62
1, 251136, Note_on_c, 0, 56, 46
1, 251142, Note_on_c, 0, 63, 35
1, 251151, Control_c, 0, 64, 47
1, 251153, Note_on_c, 0, 60, 10
1, 251165, Control_c, 0, 64, 68
1, 251170, Note_off_c, 0, 56, 63
1, 251170, Note_off_c, 0, 63, 56
1, 251176, Note_off_c, 0, 68, 63
1, 251180, Control_c, 0, 64, 76
1, 251195, Control_c, 0, 64, 81
1, 251198, Note_off_c, 0, 60, 28
1, 251209, Control_c, 0, 64, 83
1, 251224, Control_c, 0, 64, 84
1, 251239, Control_c, 0, 64, 86
1, 251254, Control_c, 0, 64, 88
1, 251269, Control_c, 0, 64, 90
1, 251283, Control_c, 0, 64, 91
1, 251298, Control_c, 0, 64, 92
1, 251313, Control_c, 0, 64, 93
1, 251328, Control_c, 0, 64, 94
1, 251402, Note_on_c, 0, 44, 54
1, 251402, Control_c, 0, 64, 90
1, 251417, Control_c, 0, 64, 80
1, 251421, Note_on_c, 0, 89, 69
1, 251432, Control_c, 0, 64, 62
1, 251432, Note_on_c, 0, 80, 51
1, 251432, Note_off_c, 0, 44, 60
1, 251447, Control_c, 0, 64, 0
1, 251453, Note_off_c, 0, 80, 60
1, 251477, Control_c, 0, 64, 64
1, 251491, Control_c, 0, 64, 73
1, 251506, Control_c, 0, 64, 80
1, 251521, Control_c, 0, 64, 84
1, 251536, Control_c, 0, 64, 85
1, 251539, Note_on_c, 0, 90, 70
1, 251544, Note_off_c, 0, 89, 56
1, 251551, Control_c, 0, 64, 87
1, 251565, Control_c, 0, 64, 90
1, 251567, Note_on_c, 0, 82, 39
1, 251580, Control_c, 0, 64, 92
1, 251595, Control_c, 0, 64, 93
1, 251596, Note_off_c, 0, 82, 55
1, 251609, Control_c, 0, 64, 94
1, 251624, Control_c, 0, 64, 95
1, 251639, Control_c, 0, 64, 96
1, 251642, Note_on_c, 0, 68, 65
1, 251654, Control_c, 0, 64, 97
1, 251671, Note_on_c, 0, 70, 51
1, 251685, Note_off_c, 0, 68, 60
1, 251692, Note_off_c, 0, 70, 59
1, 251721, Control_c, 0, 64, 96
1, 251727, Note_on_c, 0, 80, 62
1, 251729, Note_on_c, 0, 89, 61
1, 251735, Control_c, 0, 64, 90
1, 251750, Control_c, 0, 64, 81
1, 251751, Note_off_c, 0, 80, 63
1, 251762, Note_off_c, 0, 90, 42
1, 251765, Control_c, 0, 64, 69
1, 251780, Control_c, 0, 64, 30
1, 251796, Control_c, 0, 64, 0
1, 251828, Note_on_c, 0, 60, 55
1, 251832, Note_on_c, 0, 87, 69
1, 251837, Note_on_c, 0, 78, 68
1, 251852, Note_off_c, 0, 78, 65
1, 251854, Note_off_c, 0, 60, 62
1, 251855, Note_off_c, 0, 89, 29
1, 251890, Note_off_c, 0, 87, 62
1, 251936, Note_on_c, 0, 90, 71
1, 251946, Note_on_c, 0, 82, 68
1, 251972, Note_off_c, 0, 82, 67
1, 252032, Control_c, 0, 64, 48
1, 252047, Control_c, 0, 64, 68
1, 252049, Note_on_c, 0, 89, 65
1, 252051, Note_on_c, 0, 80, 74
1, 252055, Note_on_c, 0, 61, 59
1, 252062, Control_c, 0, 64, 74
1, 252073, Note_off_c, 0, 80, 68
1, 252076, Control_c, 0, 64, 78
1, 252078, Note_off_c, 0, 61, 63
1, 252085, Note_off_c, 0, 90, 27
1, 252091, Control_c, 0, 64, 81
1, 252106, Control_c, 0, 64, 83
1, 252113, Note_off_c, 0, 89, 63
1, 252121, Control_c, 0, 64, 86
1, 252136, Control_c, 0, 64, 89
1, 252151, Control_c, 0, 64, 91
1, 252153, Note_on_c, 0, 90, 76
1, 252165, Note_on_c, 0, 82, 67
1, 252165, Control_c, 0, 64, 92
1, 252180, Control_c, 0, 64, 93
1, 252183, Note_off_c, 0, 82, 66
1, 252195, Control_c, 0, 64, 93
1, 252210, Control_c, 0, 64, 94
1, 252225, Control_c, 0, 64, 95
1, 252239, Control_c, 0, 64, 96
1, 252252, Note_on_c, 0, 70, 42
1, 252254, Control_c, 0, 64, 96
1, 252255, Note_on_c, 0, 89, 70
1, 252257, Note_off_c, 0, 90, 34
1, 252258, Note_on_c, 0, 68, 50
1, 252273, Note_on_c, 0, 80, 63
1, 252284, Control_c, 0, 64, 97
1, 252295, Note_off_c, 0, 70, 48
1, 252295, Note_off_c, 0, 80, 61
1, 252310, Note_off_c, 0, 68, 61
1, 252340, Note_on_c, 0, 67, 56
1, 252351, Note_on_c, 0, 84, 74
1, 252360, Note_on_c, 0, 78, 59
1, 252382, Note_off_c, 0, 78, 59
1, 252383, Note_off_c, 0, 89, 51
1, 252396, Note_off_c, 0, 84, 61
1, 252413, Note_off_c, 0, 67, 61
1, 252451, Note_on_c, 0, 68, 50
1, 252472, Note_on_c, 0, 85, 72
1, 252474, Note_on_c, 0, 77, 71
1, 252475, Note_on_c, 0, 73, 63
1, 252492, Note_off_c, 0, 68, 65
1, 252496, Note_off_c, 0, 73, 67
1, 252499, Control_c, 0, 64, 97
1, 252499, Note_off_c, 0, 77, 66
1, 252519, Note_off_c, 0, 85, 63
1, 252582, Note_on_c, 0, 89, 69
1, 252618, Note_on_c, 0, 80, 52
1, 252633, Control_c, 0, 64, 95
1, 252639, Note_off_c, 0, 89, 62
1, 252641, Note_off_c, 0, 80, 57
1, 252648, Control_c, 0, 64, 84
1, 252662, Control_c, 0, 64, 66
1, 252677, Control_c, 0, 64, 0
1, 252678, Note_on_c, 0, 51, 51
1, 252707, Control_c, 0, 64, 44
1, 252708, Note_on_c, 0, 87, 69
1, 252721, Note_on_c, 0, 79, 64
1, 252722, Control_c, 0, 64, 70
1, 252736, Control_c, 0, 64, 80
1, 252748, Note_off_c, 0, 79, 66
1, 252751, Control_c, 0, 64, 91
1, 252766, Control_c, 0, 64, 97
1, 252780, Control_c, 0, 64, 103
1, 252795, Control_c, 0, 64, 108
1, 252803, Note_off_c, 0, 87, 60
1, 252809, Note_on_c, 0, 89, 71
1, 252810, Control_c, 0, 64, 113
1, 252825, Control_c, 0, 64, 118
1, 252840, Control_c, 0, 64, 122
1, 252854, Control_c, 0, 64, 126
1, 252869, Control_c, 0, 64, 127
1, 252876, Note_on_c, 0, 63, 61
1, 252881, Note_off_c, 0, 51, 62
1, 252883, Note_off_c, 0, 89, 56
1, 252896, Note_on_c, 0, 87, 73
1, 252905, Note_off_c, 0, 63, 66
1, 252975, Note_on_c, 0, 89, 79
1, 252980, Note_off_c, 0, 87, 63
1, 253041, Note_off_c, 0, 89, 65
1, 253057, Note_on_c, 0, 67, 59
1, 253066, Note_on_c, 0, 75, 57
1, 253067, Note_on_c, 0, 85, 75
1, 253072, Note_on_c, 0, 77, 75
1, 253085, Note_off_c, 0, 75, 62
1, 253090, Note_off_c, 0, 67, 65
1, 253109, Note_off_c, 0, 77, 57
1, 253112, Note_off_c, 0, 85, 63
1, 253155, Note_on_c, 0, 87, 74
1, 253218, Control_c, 0, 64, 115
1, 253233, Control_c, 0, 64, 96
1, 253237, Note_off_c, 0, 87, 62
1, 253243, Note_on_c, 0, 56, 68
1, 253248, Control_c, 0, 64, 76
1, 253249, Note_on_c, 0, 84, 78
1, 253262, Note_on_c, 0, 75, 74
1, 253262, Control_c, 0, 64, 0
1, 253292, Control_c, 0, 64, 27
1, 253304, Note_off_c, 0, 75, 58
1, 253307, Control_c, 0, 64, 72
1, 253322, Control_c, 0, 64, 87
1, 253336, Control_c, 0, 64, 103
1, 253337, Note_off_c, 0, 84, 60
1, 253340, Note_on_c, 0, 85, 75
1, 253351, Control_c, 0, 64, 114
1, 253366, Control_c, 0, 64, 120
1, 253382, Control_c, 0, 64, 127
1, 253408, Note_off_c, 0, 56, 60
1, 253409, Note_on_c, 0, 63, 70
1, 253423, Note_on_c, 0, 82, 78
1, 253426, Note_off_c, 0, 85, 60
1, 253429, Note_on_c, 0, 73, 76
1, 253441, Note_off_c, 0, 63, 63
1, 253451, Note_off_c, 0, 73, 69
1, 253500, Note_off_c, 0, 82, 61
1, 253513, Note_on_c, 0, 84, 76
1, 253584, Note_on_c, 0, 68, 68
1, 253593, Note_on_c, 0, 75, 59
1, 253599, Note_on_c, 0, 80, 81
1, 253599, Note_off_c, 0, 84, 58
1, 253613, Note_on_c, 0, 72, 56
1, 253613, Note_off_c, 0, 75, 67
1, 253624, Note_off_c, 0, 80, 67
1, 253632, Note_off_c, 0, 72, 63
1, 253639, Note_off_c, 0, 68, 64
1, 253704, Note_on_c, 0, 89, 85
1, 253751, Control_c, 0, 64, 117
1, 253766, Control_c, 0, 64, 93
1, 253781, Control_c, 0, 64, 72
1, 253784, Note_on_c, 0, 51, 75
1, 253796, Note_on_c, 0, 87, 82
1, 253796, Control_c, 0, 64, 0
1, 253804, Note_on_c, 0, 79, 74
1, 253811, Note_off_c, 0, 89, 64
1, 253826, Control_c, 0, 64, 58
1, 253841, Control_c, 0, 64, 77
1, 253856, Note_off_c, 0, 79, 53
1, 253856, Control_c, 0, 64, 96
1, 253870, Control_c, 0, 64, 119
1, 253882, Note_on_c, 0, 89, 79
1, 253885, Control_c, 0, 64, 127
1, 253892, Note_off_c, 0, 87, 62
1, 253969, Note_on_c, 0, 63, 76
1, 253976, Note_on_c, 0, 87, 89
1, 253981, Note_off_c, 0, 51, 63
1, 253984, Note_off_c, 0, 89, 62
1, 253986, Note_on_c, 0, 79, 79
1, 253996, Note_off_c, 0, 63, 66
1, 254057, Note_off_c, 0, 79, 47
1, 254058, Note_on_c, 0, 89, 86
1, 254066, Note_off_c, 0, 87, 64
1, 254139, Note_off_c, 0, 89, 64
1, 254144, Note_on_c, 0, 67, 57
1, 254148, Note_on_c, 0, 85, 80
1, 254151, Note_on_c, 0, 75, 82
1, 254153, Note_on_c, 0, 77, 87
1, 254173, Note_off_c, 0, 75, 69
1, 254200, Note_off_c, 0, 67, 64
1, 254204, Note_off_c, 0, 85, 64
1, 254209, Note_off_c, 0, 77, 59
1, 254237, Note_on_c, 0, 87, 83
1, 254329, Note_on_c, 0, 56, 88
1, 254330, Note_off_c, 0, 87, 60
1, 254333, Note_on_c, 0, 84, 86
1, 254336, Note_on_c, 0, 75, 92
1, 254338, Control_c, 0, 64, 113
1, 254353, Control_c, 0, 64, 85
1, 254368, Control_c, 0, 64, 50
1, 254382, Control_c, 0, 64, 0
1, 254412, Control_c, 0, 64, 69
1, 254414, Note_off_c, 0, 75, 57
1, 254426, Control_c, 0, 64, 86
1, 254434, Note_on_c, 0, 85, 86
1, 254437, Note_off_c, 0, 84, 48
1, 254441, Control_c, 0, 64, 110
1, 254456, Control_c, 0, 64, 127
1, 254517, Note_on_c, 0, 63, 85
1, 254528, Note_on_c, 0, 82, 91
1, 254532, Note_on_c, 0, 73, 87
1, 254544, Note_off_c, 0, 85, 60
1, 254548, Note_off_c, 0, 56, 63
1, 254580, Note_off_c, 0, 63, 63
1, 254581, Note_off_c, 0, 73, 64
1, 254622, Note_on_c, 0, 84, 86
1, 254638, Note_off_c, 0, 82, 58
1, 254748, Note_on_c, 0, 75, 89
1, 254751, Note_on_c, 0, 68, 82
1, 254753, Note_on_c, 0, 80, 97
1, 254756, Note_on_c, 0, 72, 84
1, 254771, Note_off_c, 0, 84, 34
1, 254771, Note_off_c, 0, 75, 68
1, 254776, Note_off_c, 0, 72, 72
1, 254793, Note_off_c, 0, 68, 65
1, 254816, Note_off_c, 0, 80, 63
1, 255119, Note_on_c, 0, 39, 77
1, 255124, Note_on_c, 0, 99, 99
1, 255125, Note_on_c, 0, 91, 86
1, 255176, Control_c, 0, 64, 96
1, 255191, Control_c, 0, 64, 71
1, 255206, Control_c, 0, 64, 0
1, 255265, Control_c, 0, 64, 66
1, 255280, Control_c, 0, 64, 84
1, 255295, Control_c, 0, 64, 114
1, 255301, Note_on_c, 0, 101, 86
1, 255310, Control_c, 0, 64, 127
1, 255317, Note_off_c, 0, 91, 56
1, 255337, Note_off_c, 0, 99, 67
1, 255348, Poly_aftertouch_c, 0, 44, 127
1, 255393, Note_on_c, 0, 51, 76
1, 255418, Note_on_c, 0, 99, 89
1, 255423, Note_off_c, 0, 39, 63
1, 255427, Note_on_c, 0, 91, 85
1, 255438, Poly_aftertouch_c, 0, 44, 0
1, 255440, Note_off_c, 0, 51, 59
1, 255444, Note_off_c, 0, 101, 66
1, 255508, Note_on_c, 0, 101, 78
1, 255522, Note_off_c, 0, 91, 59
1, 255526, Note_off_c, 0, 99, 66
1, 255582, Note_off_c, 0, 101, 65
1, 255590, Note_on_c, 0, 55, 65
1, 255594, Note_on_c, 0, 97, 80
1, 255599, Note_on_c, 0, 89, 81
1, 255622, Note_off_c, 0, 55, 64
1, 255646, Note_off_c, 0, 97, 64
1, 255661, Note_off_c, 0, 89, 63
1, 255683, Note_on_c, 0, 99, 80
1, 255736, Note_on_c, 0, 58, 63
1, 255762, Note_off_c, 0, 99, 67
1, 255767, Note_on_c, 0, 96, 81
1, 255770, Note_off_c, 0, 58, 63
1, 255772, Note_on_c, 0, 87, 86
1, 255844, Note_off_c, 0, 87, 61
1, 255853, Note_on_c, 0, 97, 85
1, 255866, Note_off_c, 0, 96, 61
1, 255933, Note_on_c, 0, 85, 82
1, 255933, Note_on_c, 0, 94, 78
1, 255942, Note_off_c, 0, 97, 59
1, 255975, Note_off_c, 0, 85, 65
1, 256001, Note_on_c, 0, 96, 86
1, 256011, Poly_aftertouch_c, 0, 64, 127
1, 256011, Note_off_c, 0, 94, 64
1, 256038, Poly_aftertouch_c, 0, 64, 0
1, 256073, Note_off_c, 0, 96, 63
1, 256089, Note_on_c, 0, 92, 81
1, 256092, Note_on_c, 0, 84, 82
1, 256135, Note_on_c, 0, 73, 54
1, 256137, Note_off_c, 0, 92, 64
1, 256151, Note_off_c, 0, 84, 61
1, 256168, Note_off_c, 0, 73, 57
1, 256184, Note_on_c, 0, 94, 79
1, 256235, Poly_aftertouch_c, 0, 75, 0
1, 256281, Note_off_c, 0, 94, 64
1, 256292, Note_on_c, 0, 91, 77
1, 256303, Note_on_c, 0, 82, 77
1, 256335, Note_on_c, 0, 75, 64
1, 256336, Note_on_c, 0, 79, 64
1, 256347, Note_off_c, 0, 91, 59
1, 256349, Note_on_c, 0, 73, 51
1, 256369, Note_off_c, 0, 79, 62
1, 256373, Note_off_c, 0, 73, 62
1, 256379, Note_off_c, 0, 75, 61
1, 256390, Note_on_c, 0, 92, 59
1, 256395, Note_off_c, 0, 82, 59
1, 256436, Note_off_c, 0, 92, 62
1, 256483, Note_on_c, 0, 80, 69
1, 256488, Note_on_c, 0, 89, 66
1, 256515, Note_off_c, 0, 80, 59
1, 256567, Note_on_c, 0, 91, 73
1, 256570, Note_off_c, 0, 89, 64
1, 256625, Note_off_c, 0, 91, 56
1, 256659, Note_on_c, 0, 87, 77
1, 256667, Note_on_c, 0, 79, 73
1, 256739, Note_off_c, 0, 79, 55
1, 256749, Note_on_c, 0, 89, 77
1, 256751, Note_off_c, 0, 87, 62
1, 256812, Note_off_c, 0, 89, 64
1, 256833, Note_on_c, 0, 85, 73
1, 256839, Note_on_c, 0, 77, 74
1, 256877, Note_off_c, 0, 85, 65
1, 256905, Note_off_c, 0, 77, 55
1, 256935, Note_on_c, 0, 87, 76
1, 257015, Note_off_c, 0, 87, 62
1, 257026, Note_on_c, 0, 84, 74
1, 257033, Note_on_c, 0, 75, 79
1, 257102, Note_off_c, 0, 75, 59
1, 257118, Note_on_c, 0, 85, 73
1, 257125, Note_off_c, 0, 84, 53
1, 257212, Note_off_c, 0, 85, 53
1, 257212, Note_on_c, 0, 73, 79
1, 257212, Note_on_c, 0, 82, 79
1, 257269, Note_off_c, 0, 73, 59
1, 257312, Note_on_c, 0, 84, 76
1, 257319, Note_off_c, 0, 82, 60
1, 257397, Note_off_c, 0, 84, 63
1, 257415, Note_on_c, 0, 80, 75
1, 257418, Note_on_c, 0, 72, 76
1, 257480, Note_off_c, 0, 80, 63
1, 257491, Note_off_c, 0, 72, 54
1, 257522, Note_on_c, 0, 82, 74
1, 257665, Note_off_c, 0, 82, 54
1, 257667, Note_on_c, 0, 79, 71
1, 257672, Note_on_c, 0, 61, 84
1, 257674, Note_on_c, 0, 70, 74
1, 257681, Control_c, 0, 64, 103
1, 257696, Control_c, 0, 64, 84
1, 257711, Control_c, 0, 64, 67
1, 257725, Control_c, 0, 64, 0
1, 257738, Note_off_c, 0, 79, 55
1, 257755, Control_c, 0, 64, 51
1, 257770, Control_c, 0, 64, 72
1, 257784, Control_c, 0, 64, 84
1, 257787, Note_on_c, 0, 80, 68
1, 257799, Control_c, 0, 64, 97
1, 257812, Note_off_c, 0, 70, 61
1, 257814, Control_c, 0, 64, 107
1, 257829, Control_c, 0, 64, 116
1, 257844, Control_c, 0, 64, 127
1, 257871, Note_off_c, 0, 80, 58
1, 257905, Note_on_c, 0, 77, 66
1, 257907, Note_on_c, 0, 68, 67
1, 257966, Note_off_c, 0, 68, 59
1, 258003, Note_off_c, 0, 77, 58
1, 258010, Note_on_c, 0, 79, 68
1, 258083, Note_off_c, 0, 79, 58
1, 258107, Note_on_c, 0, 75, 72
1, 258118, Note_on_c, 0, 67, 70
1, 258211, Note_on_c, 0, 77, 75
1, 258214, Note_off_c, 0, 75, 63
1, 258223, Note_off_c, 0, 67, 52
1, 258286, Note_off_c, 0, 77, 60
1, 258295, Note_off_c, 0, 61, 59
1, 258314, Note_on_c, 0, 73, 69
1, 258325, Note_on_c, 0, 65, 67
1, 258370, Note_off_c, 0, 73, 64
1, 258378, Note_off_c, 0, 65, 58
1, 258431, Note_on_c, 0, 75, 68
1, 258560, Note_off_c, 0, 75, 61
1, 258576, Note_on_c, 0, 72, 68
1, 258577, Note_on_c, 0, 51, 53
1, 258580, Note_on_c, 0, 63, 68
1, 258593, Control_c, 0, 64, 111
1, 258608, Control_c, 0, 64, 89
1, 258623, Control_c, 0, 64, 66
1, 258638, Control_c, 0, 64, 0
1, 258667, Control_c, 0, 64, 43
1, 258682, Control_c, 0, 64, 73
1, 258697, Control_c, 0, 64, 86
1, 258712, Note_on_c, 0, 73, 66
1, 258712, Control_c, 0, 64, 102
1, 258726, Note_off_c, 0, 72, 47
1, 258726, Control_c, 0, 64, 110
1, 258741, Control_c, 0, 64, 118
1, 258746, Note_off_c, 0, 63, 58
1, 258756, Control_c, 0, 64, 127
1, 258815, Note_off_c, 0, 73, 61
1, 258849, Note_on_c, 0, 70, 61
1, 258855, Note_on_c, 0, 61, 55
1, 258870, Note_on_c, 0, 44, 55
1, 258890, Control_c, 0, 64, 113
1, 258905, Control_c, 0, 64, 87
1, 258919, Control_c, 0, 64, 69
1, 258931, Note_off_c, 0, 70, 62
1, 258934, Control_c, 0, 64, 0
1, 258940, Note_off_c, 0, 51, 58
1, 258945, Note_on_c, 0, 72, 63
1, 258964, Control_c, 0, 64, 68
1, 258980, Control_c, 0, 64, 85
1, 258995, Control_c, 0, 64, 107
1, 259005, Note_off_c, 0, 72, 59
1, 259010, Control_c, 0, 64, 120
1, 259024, Control_c, 0, 64, 125
1, 259030, Note_on_c, 0, 70, 61
1, 259039, Control_c, 0, 64, 127
1, 259065, Note_off_c, 0, 70, 65
1, 259081, Note_on_c, 0, 72, 54
1, 259098, Note_on_c, 0, 52, 53
1, 259123, Note_off_c, 0, 72, 61
1, 259154, Note_on_c, 0, 70, 66
1, 259181, Note_off_c, 0, 70, 66
1, 259196, Note_on_c, 0, 72, 57
1, 259245, Note_off_c, 0, 72, 60
1, 259259, Note_on_c, 0, 70, 63
1, 259289, Note_off_c, 0, 70, 66
1, 259290, Note_on_c, 0, 72, 53
1, 259335, Note_on_c, 0, 53, 55
1, 259354, Note_off_c, 0, 72, 63
1, 259362, Note_on_c, 0, 70, 72
1, 259363, Note_off_c, 0, 52, 37
1, 259396, Note_off_c, 0, 70, 64
1, 259409, Note_on_c, 0, 72, 50
1, 259481, Note_on_c, 0, 70, 75
1, 259507, Note_off_c, 0, 72, 62
1, 259600, Note_on_c, 0, 54, 56
1, 259600, Note_on_c, 0, 69, 74
1, 259618, Note_off_c, 0, 70, 58
1, 259624, Control_c, 0, 64, 106
1, 259639, Control_c, 0, 64, 91
1, 259653, Control_c, 0, 64, 76
1, 259656, Note_off_c, 0, 53, 37
1, 259668, Control_c, 0, 64, 31
1, 259683, Control_c, 0, 64, 0
1, 259742, Control_c, 0, 64, 64
1, 259755, Note_on_c, 0, 70, 73
1, 259757, Control_c, 0, 64, 71
1, 259773, Control_c, 0, 64, 77
1, 259788, Control_c, 0, 64, 82
1, 259803, Control_c, 0, 64, 87
1, 259817, Control_c, 0, 64, 93
1, 259832, Control_c, 0, 64, 99
1, 259847, Control_c, 0, 64, 106
1, 259862, Control_c, 0, 64, 112
1, 259877, Control_c, 0, 64, 115
1, 259899, Control_c, 0, 64, 118
1, 259912, Note_off_c, 0, 69, 62
1, 259914, Control_c, 0, 64, 119
1, 259917, Note_on_c, 0, 72, 78
1, 259922, Note_on_c, 0, 55, 48
1, 259939, Note_off_c, 0, 54, 37
1, 259945, Note_off_c, 0, 70, 63
1, 259958, Control_c, 0, 64, 117
1, 259972, Control_c, 0, 64, 107
1, 259987, Control_c, 0, 64, 93
1, 260002, Control_c, 0, 64, 76
1, 260017, Control_c, 0, 64, 57
1, 260032, Control_c, 0, 64, 0
1, 260062, Control_c, 0, 64, 65
1, 260072, Note_on_c, 0, 70, 78
1, 260077, Control_c, 0, 64, 78
1, 260092, Control_c, 0, 64, 90
1, 260107, Control_c, 0, 64, 98
1, 260107, Note_off_c, 0, 72, 61
1, 260121, Control_c, 0, 64, 101
1, 260136, Control_c, 0, 64, 106
1, 260151, Control_c, 0, 64, 111
1, 260166, Control_c, 0, 64, 116
1, 260180, Control_c, 0, 64, 120
1, 260195, Control_c, 0, 64, 124
1, 260210, Control_c, 0, 64, 127
1, 260235, Note_on_c, 0, 51, 52
1, 260247, Note_on_c, 0, 73, 79
1, 260414, Note_on_c, 0, 67, 74
1, 260425, Note_off_c, 0, 44, 60
1, 260428, Note_off_c, 0, 55, 51
1, 260442, Note_off_c, 0, 70, 55
1, 260443, Note_off_c, 0, 73, 61
1, 260469, Note_off_c, 0, 67, 62
1, 260512, Note_off_c, 0, 51, 36
1, 260536, Note_off_c, 0, 61, 41
1, 260592, Note_on_c, 0, 44, 44
1, 260719, Note_on_c, 0, 68, 78
1, 260721, Control_c, 0, 64, 124
1, 260736, Note_on_c, 0, 56, 46
1, 260736, Control_c, 0, 64, 108
1, 260741, Note_on_c, 0, 60, 59
1, 260750, Control_c, 0, 64, 91
1, 260765, Control_c, 0, 64, 72
1, 260780, Control_c, 0, 64, 0
1, 260840, Control_c, 0, 64, 40
1, 260855, Control_c, 0, 64, 68
1, 260869, Control_c, 0, 64, 77
1, 260884, Control_c, 0, 64, 87
1, 260899, Control_c, 0, 64, 95
1, 260914, Control_c, 0, 64, 101
1, 260929, Control_c, 0, 64, 106
1, 260943, Note_off_c, 0, 60, 54
1, 260943, Control_c, 0, 64, 110
1, 260958, Control_c, 0, 64, 115
1, 260973, Control_c, 0, 64, 120
1, 260981, Note_on_c, 0, 63, 38
1, 260988, Control_c, 0, 64, 125
1, 261002, Control_c, 0, 64, 127
1, 261116, Note_on_c, 0, 51, 46
1, 261129, Note_on_c, 0, 58, 51
1, 261159, Note_off_c, 0, 63, 41
1, 261195, Note_off_c, 0, 56, 34
1, 261257, Note_off_c, 0, 58, 57
1, 261272, Note_on_c, 0, 63, 57
1, 261403, Note_on_c, 0, 54, 55
1, 261407, Note_off_c, 0, 63, 57
1, 261415, Note_on_c, 0, 60, 61
1, 261487, Note_off_c, 0, 54, 51
1, 261506, Note_off_c, 0, 60, 58
1, 261553, Note_on_c, 0, 63, 51
1, 261579, Note_off_c, 0, 51, 31
1, 261677, Note_on_c, 0, 52, 57
1, 261678, Control_c, 0, 64, 102
1, 261681, Note_on_c, 0, 61, 67
1, 261692, Control_c, 0, 64, 83
1, 261702, Note_off_c, 0, 63, 35
1, 261707, Control_c, 0, 64, 64
1, 261722, Control_c, 0, 64, 0
1, 261751, Control_c, 0, 64, 55
1, 261766, Control_c, 0, 64, 73
1, 261781, Control_c, 0, 64, 86
1, 261796, Control_c, 0, 64, 95
1, 261808, Note_on_c, 0, 64, 67
1, 261812, Control_c, 0, 64, 99
1, 261826, Control_c, 0, 64, 103
1, 261841, Control_c, 0, 64, 108
1, 261856, Note_off_c, 0, 64, 62
1, 261856, Control_c, 0, 64, 114
1, 261856, Note_off_c, 0, 68, 59
1, 261871, Control_c, 0, 64, 121
1, 261886, Control_c, 0, 64, 127
1, 261964, Note_on_c, 0, 67, 68
1, 261967, Note_on_c, 0, 48, 55
1, 261967, Note_on_c, 0, 63, 62
1, 261974, Control_c, 0, 64, 116
1, 261989, Control_c, 0, 64, 95
1, 262004, Control_c, 0, 64, 76
1, 262018, Control_c, 0, 64, 62
1, 262020, Note_off_c, 0, 52, 33
1, 262033, Control_c, 0, 64, 62
1, 262048, Control_c, 0, 64, 71
1, 262063, Control_c, 0, 64, 84
1, 262070, Note_off_c, 0, 61, 51
1, 262078, Control_c, 0, 64, 96
1, 262087, Note_off_c, 0, 63, 36
1, 262092, Control_c, 0, 64, 105
1, 262107, Control_c, 0, 64, 112
1, 262113, Note_on_c, 0, 68, 72
1, 262116, Note_on_c, 0, 66, 69
1, 262118, Note_off_c, 0, 67, 57
1, 262122, Control_c, 0, 64, 117
1, 262144, Control_c, 0, 64, 125
1, 262159, Control_c, 0, 64, 127
1, 262200, Note_off_c, 0, 68, 62
1, 262207, Note_off_c, 0, 66, 60
1, 262257, Note_on_c, 0, 67, 82
1, 262259, Note_on_c, 0, 49, 57
1, 262269, Note_on_c, 0, 61, 71
1, 262294, Control_c, 0, 64, 114
1, 262295, Note_off_c, 0, 48, 37
1, 262301, Note_off_c, 0, 61, 56
1, 262309, Control_c, 0, 64, 90
1, 262323, Control_c, 0, 64, 70
1, 262324, Note_off_c, 0, 44, 48
1, 262338, Control_c, 0, 64, 0
1, 262367, Control_c, 0, 64, 69
1, 262382, Control_c, 0, 64, 85
1, 262397, Note_on_c, 0, 68, 79
1, 262397, Control_c, 0, 64, 104
1, 262408, Note_on_c, 0, 61, 17
1, 262412, Note_on_c, 0, 64, 68
1, 262412, Control_c, 0, 64, 119
1, 262427, Control_c, 0, 64, 122
1, 262441, Control_c, 0, 64, 127
1, 262447, Note_off_c, 0, 61, 41
1, 262469, Note_off_c, 0, 67, 38
1, 262484, Note_off_c, 0, 68, 62
1, 262554, Note_off_c, 0, 64, 47
1, 262616, Note_on_c, 0, 69, 77
1, 262628, Note_on_c, 0, 42, 55
1, 262649, Control_c, 0, 64, 101
1, 262650, Note_on_c, 0, 61, 50
1, 262664, Control_c, 0, 64, 80
1, 262679, Control_c, 0, 64, 59
1, 262686, Note_off_c, 0, 49, 51
1, 262689, Note_off_c, 0, 61, 47
1, 262694, Control_c, 0, 64, 0
1, 262723, Control_c, 0, 64, 69
1, 262738, Control_c, 0, 64, 83
1, 262751, Note_off_c, 0, 69, 64
1, 262753, Control_c, 0, 64, 97
1, 262767, Control_c, 0, 64, 106
1, 262782, Control_c, 0, 64, 112
1, 262783, Note_on_c, 0, 63, 47
1, 262797, Control_c, 0, 64, 120
1, 262812, Control_c, 0, 64, 127
1, 262865, Note_off_c, 0, 63, 56
1, 262905, Note_on_c, 0, 68, 84
1, 262922, Note_on_c, 0, 44, 62
1, 262923, Control_c, 0, 64, 123
1, 262930, Note_on_c, 0, 61, 64
1, 262938, Control_c, 0, 64, 93
1, 262953, Control_c, 0, 64, 72
1, 262959, Note_off_c, 0, 61, 59
1, 262968, Note_off_c, 0, 42, 59
1, 262968, Control_c, 0, 64, 46
1, 262983, Control_c, 0, 64, 60
1, 262998, Control_c, 0, 64, 73
1, 263013, Control_c, 0, 64, 93
1, 263021, Note_on_c, 0, 64, 61
1, 263028, Control_c, 0, 64, 119
1, 263043, Control_c, 0, 64, 127
1, 263045, Note_off_c, 0, 68, 61
1, 263140, Note_off_c, 0, 64, 50
1, 263151, Note_on_c, 0, 66, 80
1, 263174, Note_on_c, 0, 45, 57
1, 263179, Note_on_c, 0, 54, 58
1, 263190, Control_c, 0, 64, 124
1, 263204, Note_off_c, 0, 44, 59
1, 263205, Control_c, 0, 64, 88
1, 263220, Control_c, 0, 64, 68
1, 263235, Control_c, 0, 64, 0
1, 263250, Control_c, 0, 64, 56
1, 263265, Control_c, 0, 64, 74
1, 263271, Note_on_c, 0, 61, 48
1, 263278, Note_off_c, 0, 54, 48
1, 263280, Control_c, 0, 64, 92
1, 263295, Control_c, 0, 64, 116
1, 263310, Control_c, 0, 64, 127
1, 263328, Note_off_c, 0, 61, 54
1, 263341, Note_off_c, 0, 66, 55
1, 263476, Note_on_c, 0, 64, 72
1, 263496, Note_on_c, 0, 46, 60
1, 263497, Note_off_c, 0, 45, 59
1, 263529, Note_on_c, 0, 55, 43
1, 263532, Control_c, 0, 64, 103
1, 263547, Control_c, 0, 64, 81
1, 263561, Control_c, 0, 64, 60
1, 263576, Control_c, 0, 64, 0
1, 263606, Control_c, 0, 64, 71
1, 263609, Note_off_c, 0, 55, 34
1, 263621, Control_c, 0, 64, 89
1, 263643, Control_c, 0, 64, 107
1, 263646, Note_on_c, 0, 61, 58
1, 263658, Control_c, 0, 64, 119
1, 263672, Control_c, 0, 64, 125
1, 263687, Control_c, 0, 64, 127
1, 263731, Note_off_c, 0, 46, 59
1, 263734, Note_on_c, 0, 38, 57
1, 263752, Note_off_c, 0, 61, 53
1, 263770, Note_on_c, 0, 55, 53
1, 263852, Note_on_c, 0, 39, 62
1, 263854, Note_on_c, 0, 63, 66
1, 263859, Note_off_c, 0, 55, 56
1, 263862, Note_off_c, 0, 38, 61
1, 263901, Note_on_c, 0, 61, 40
1, 263915, Note_off_c, 0, 64, 62
1, 263931, Note_off_c, 0, 63, 64
1, 263935, Note_off_c, 0, 61, 56
1, 263938, Note_on_c, 0, 66, 65
1, 263992, Note_on_c, 0, 55, 67
1, 264001, Note_on_c, 0, 38, 69
1, 264006, Note_on_c, 0, 64, 77
1, 264023, Note_off_c, 0, 39, 53
1, 264044, Control_c, 0, 64, 103
1, 264057, Control_c, 0, 64, 80
1, 264072, Control_c, 0, 64, 0
1, 264116, Control_c, 0, 64, 64
1, 264131, Control_c, 0, 64, 80
1, 264146, Control_c, 0, 64, 98
1, 264147, Note_off_c, 0, 38, 61
1, 264149, Note_on_c, 0, 39, 72
1, 264152, Note_on_c, 0, 63, 80
1, 264161, Control_c, 0, 64, 121
1, 264162, Note_on_c, 0, 61, 70
1, 264162, Note_off_c, 0, 66, 56
1, 264166, Note_off_c, 0, 55, 33
1, 264176, Control_c, 0, 64, 127
1, 264189, Note_off_c, 0, 64, 62
1, 264230, Note_off_c, 0, 39, 62
1, 264396, Note_on_c, 0, 68, 82
1, 264419, Note_on_c, 0, 32, 61
1, 264420, Note_on_c, 0, 60, 59
1, 264422, Note_on_c, 0, 44, 57
1, 264435, Note_off_c, 0, 61, 54
1, 264454, Note_off_c, 0, 63, 60
1, 264465, Control_c, 0, 64, 99
1, 264480, Control_c, 0, 64, 76
1, 264494, Control_c, 0, 64, 0
1, 264533, Note_off_c, 0, 60, 51
1, 264553, Control_c, 0, 64, 68
1, 264569, Control_c, 0, 64, 83
1, 264584, Control_c, 0, 64, 102
1, 264593, Note_on_c, 0, 63, 49
1, 264599, Control_c, 0, 64, 127
1, 264613, Note_off_c, 0, 44, 62
1, 264620, Note_off_c, 0, 32, 62
1, 264754, Note_on_c, 0, 58, 70
1, 264754, Note_off_c, 0, 63, 51
1, 264755, Note_on_c, 0, 51, 67
1, 264760, Note_on_c, 0, 39, 65
1, 264862, Note_off_c, 0, 58, 60
1, 264872, Note_on_c, 0, 63, 69
1, 264879, Note_off_c, 0, 51, 60
1, 264886, Note_off_c, 0, 39, 61
1, 264888, Note_off_c, 0, 68, 56
1, 265052, Note_on_c, 0, 68, 87
1, 265074, Note_on_c, 0, 60, 66
1, 265075, Note_on_c, 0, 54, 60
1, 265081, Note_on_c, 0, 42, 58
1, 265081, Note_off_c, 0, 63, 33
1, 265103, Control_c, 0, 64, 118
1, 265117, Control_c, 0, 64, 88
1, 265127, Note_off_c, 0, 60, 41
1, 265140, Control_c, 0, 64, 69
1, 265155, Control_c, 0, 64, 61
1, 265169, Control_c, 0, 64, 71
1, 265184, Control_c, 0, 64, 87
1, 265199, Control_c, 0, 64, 114
1, 265210, Note_on_c, 0, 63, 65
1, 265214, Control_c, 0, 64, 127
1, 265222, Note_off_c, 0, 54, 61
1, 265246, Note_off_c, 0, 42, 63
1, 265337, Note_on_c, 0, 56, 76
1, 265338, Note_on_c, 0, 52, 72
1, 265344, Note_on_c, 0, 40, 68
1, 265362, Note_off_c, 0, 63, 58
1, 265363, Control_c, 0, 64, 106
1, 265378, Control_c, 0, 64, 83
1, 265392, Control_c, 0, 64, 70
1, 265407, Control_c, 0, 64, 70
1, 265422, Control_c, 0, 64, 83
1, 265437, Control_c, 0, 64, 105
1, 265452, Control_c, 0, 64, 127
1, 265466, Note_on_c, 0, 61, 68
1, 265480, Note_off_c, 0, 52, 61
1, 265505, Note_off_c, 0, 68, 49
1, 265505, Note_off_c, 0, 40, 62
1, 265512, Note_off_c, 0, 56, 38
1, 265564, Note_off_c, 0, 61, 62
1, 265615, Note_on_c, 0, 48, 73
1, 265616, Note_on_c, 0, 36, 72
1, 265619, Note_on_c, 0, 67, 81
1, 265624, Note_on_c, 0, 56, 73
1, 265645, Control_c, 0, 64, 91
1, 265659, Control_c, 0, 64, 68
1, 265672, Note_off_c, 0, 56, 58
1, 265674, Control_c, 0, 64, 0
1, 265689, Control_c, 0, 64, 65
1, 265704, Control_c, 0, 64, 83
1, 265718, Control_c, 0, 64, 111
1, 265733, Control_c, 0, 64, 127
1, 265764, Note_on_c, 0, 68, 81
1, 265773, Note_on_c, 0, 66, 76
1, 265782, Note_off_c, 0, 48, 63
1, 265785, Note_off_c, 0, 36, 61
1, 265817, Note_off_c, 0, 67, 34
1, 265851, Note_off_c, 0, 68, 61
1, 265854, Note_off_c, 0, 66, 64
1, 265904, Control_c, 0, 64, 106
1, 265911, Note_on_c, 0, 67, 89
1, 265918, Control_c, 0, 64, 83
1, 265922, Note_on_c, 0, 56, 78
1, 265926, Note_on_c, 0, 49, 72
1, 265928, Note_on_c, 0, 37, 67
1, 265933, Control_c, 0, 64, 68
1, 265948, Control_c, 0, 64, 69
1, 265959, Note_off_c, 0, 56, 54
1, 265963, Control_c, 0, 64, 83
1, 265978, Control_c, 0, 64, 117
1, 265992, Control_c, 0, 64, 127
1, 266037, Note_off_c, 0, 49, 60
1, 266056, Note_on_c, 0, 64, 58
1, 266065, Note_on_c, 0, 68, 86
1, 266069, Note_off_c, 0, 37, 65
1, 266096, Note_off_c, 0, 67, 58
1, 266115, Note_off_c, 0, 64, 64
1, 266140, Note_off_c, 0, 68, 62
1, 266268, Note_on_c, 0, 71, 81
1, 266271, Note_on_c, 0, 61, 81
1, 266274, Note_on_c, 0, 30, 64
1, 266275, Control_c, 0, 64, 105
1, 266277, Note_on_c, 0, 42, 72
1, 266289, Control_c, 0, 64, 79
1, 266304, Control_c, 0, 64, 55
1, 266319, Note_off_c, 0, 61, 61
1, 266319, Control_c, 0, 64, 42
1, 266334, Control_c, 0, 64, 69
1, 266349, Control_c, 0, 64, 86
1, 266364, Control_c, 0, 64, 121
1, 266375, Note_off_c, 0, 71, 55
1, 266378, Control_c, 0, 64, 127
1, 266426, Note_on_c, 0, 69, 81
1, 266431, Note_on_c, 0, 63, 81
1, 266460, Note_off_c, 0, 42, 62
1, 266474, Note_off_c, 0, 30, 61
1, 266495, Note_off_c, 0, 63, 61
1, 266501, Note_off_c, 0, 69, 63
1, 266556, Control_c, 0, 64, 106
1, 266566, Note_on_c, 0, 69, 82
1, 266571, Control_c, 0, 64, 91
1, 266572, Note_on_c, 0, 44, 78
1, 266574, Note_on_c, 0, 61, 86
1, 266577, Note_on_c, 0, 32, 73
1, 266586, Control_c, 0, 64, 90
1, 266601, Control_c, 0, 64, 93
1, 266615, Control_c, 0, 64, 104
1, 266638, Control_c, 0, 64, 127
1, 266645, Note_off_c, 0, 61, 55
1, 266697, Note_on_c, 0, 64, 68
1, 266697, Note_on_c, 0, 68, 83
1, 266717, Note_off_c, 0, 32, 60
1, 266721, Note_off_c, 0, 44, 62
1, 266728, Note_off_c, 0, 69, 55
1, 266730, Note_off_c, 0, 64, 63
1, 266766, Note_off_c, 0, 68, 63
1, 266786, Control_c, 0, 64, 99
1, 266801, Control_c, 0, 64, 77
1, 266814, Note_on_c, 0, 45, 74
1, 266815, Note_on_c, 0, 68, 77
1, 266815, Control_c, 0, 64, 67
1, 266819, Note_on_c, 0, 33, 71
1, 266825, Note_on_c, 0, 54, 76
1, 266830, Control_c, 0, 64, 72
1, 266845, Control_c, 0, 64, 87
1, 266860, Control_c, 0, 64, 112
1, 266875, Control_c, 0, 64, 127
1, 266894, Note_off_c, 0, 54, 53
1, 266924, Note_off_c, 0, 45, 62
1, 266933, Note_on_c, 0, 66, 77
1, 266939, Note_off_c, 0, 33, 64
1, 266943, Note_on_c, 0, 61, 75
1, 266954, Note_off_c, 0, 68, 61
1, 266987, Note_off_c, 0, 61, 59
1, 267009, Note_off_c, 0, 66, 65
1, 267052, Control_c, 0, 64, 94
1, 267066, Note_on_c, 0, 46, 87
1, 267067, Control_c, 0, 64, 74
1, 267071, Note_on_c, 0, 34, 77
1, 267071, Note_on_c, 0, 64, 85
1, 267075, Note_on_c, 0, 55, 83
1, 267082, Control_c, 0, 64, 65
1, 267097, Control_c, 0, 64, 72
1, 267112, Control_c, 0, 64, 87
1, 267127, Control_c, 0, 64, 125
1, 267130, Note_off_c, 0, 46, 61
1, 267139, Note_off_c, 0, 55, 60
1, 267142, Control_c, 0, 64, 127
1, 267158, Note_off_c, 0, 34, 64
1, 267194, Note_on_c, 0, 63, 83
1, 267200, Note_on_c, 0, 61, 77
1, 267209, Note_off_c, 0, 64, 62
1, 267225, Note_off_c, 0, 61, 66
1, 267240, Note_off_c, 0, 63, 66
1, 267334, Control_c, 0, 64, 103
1, 267338, Note_on_c, 0, 27, 89
1, 267341, Note_on_c, 0, 39, 84
1, 267342, Note_on_c, 0, 61, 94
1, 267342, Note_on_c, 0, 71, 93
1, 267349, Control_c, 0, 64, 77
1, 267363, Control_c, 0, 64, 61
1, 267386, Control_c, 0, 64, 65
1, 267401, Control_c, 0, 64, 77
1, 267416, Control_c, 0, 64, 97
1, 267431, Control_c, 0, 64, 127
1, 267455, Note_off_c, 0, 27, 64
1, 267460, Note_off_c, 0, 39, 63
1, 267483, Note_on_c, 0, 67, 76
1, 267489, Note_on_c, 0, 70, 86
1, 267504, Note_off_c, 0, 61, 62
1, 267507, Note_off_c, 0, 71, 62
1, 267524, Note_off_c, 0, 67, 63
1, 267546, Note_off_c, 0, 70, 65
1, 267649, Note_on_c, 0, 67, 96
1, 267652, Note_on_c, 0, 76, 91
1, 267657, Note_on_c, 0, 51, 84
1, 267657, Note_on_c, 0, 39, 70
1, 267667, Control_c, 0, 64, 89
1, 267680, Note_on_c, 0, 77, 48
1, 267681, Note_off_c, 0, 77, 127
1, 267681, Control_c, 0, 64, 65
1, 267696, Control_c, 0, 64, 0
1, 267711, Control_c, 0, 64, 59
1, 267726, Control_c, 0, 64, 80
1, 267741, Control_c, 0, 64, 106
1, 267757, Control_c, 0, 64, 127
1, 267806, Note_off_c, 0, 51, 60
1, 267821, Note_on_c, 0, 73, 84
1, 267821, Note_on_c, 0, 75, 81
1, 267837, Note_off_c, 0, 67, 54
1, 267840, Note_off_c, 0, 76, 51
1, 267842, Note_off_c, 0, 39, 62
1, 267863, Note_off_c, 0, 73, 64
1, 267872, Note_off_c, 0, 75, 66
1, 268054, Note_on_c, 0, 32, 71
1, 268054, Note_on_c, 0, 44, 71
1, 268057, Note_on_c, 0, 80, 91
1, 268061, Note_on_c, 0, 75, 84
1, 268063, Note_on_c, 0, 73, 86
1, 268069, Control_c, 0, 64, 103
1, 268083, Control_c, 0, 64, 68
1, 268098, Control_c, 0, 64, 0
1, 268165, Control_c, 0, 64, 64
1, 268180, Control_c, 0, 64, 81
1, 268194, Control_c, 0, 64, 108
1, 268209, Control_c, 0, 64, 127
1, 268222, Note_off_c, 0, 44, 62
1, 268225, Note_off_c, 0, 32, 62
1, 268239, Note_off_c, 0, 73, 58
1, 268241, Note_off_c, 0, 75, 61
1, 268249, Note_on_c, 0, 72, 68
1, 268282, Note_off_c, 0, 72, 63
1, 268295, Note_off_c, 0, 80, 60
1, 268386, Note_on_c, 0, 51, 75
1, 268387, Note_on_c, 0, 80, 92
1, 268391, Note_on_c, 0, 39, 68
1, 268393, Note_on_c, 0, 72, 81
1, 268394, Note_on_c, 0, 75, 78
1, 268430, Note_off_c, 0, 51, 55
1, 268437, Note_off_c, 0, 39, 60
1, 268507, Note_off_c, 0, 72, 45
1, 268523, Note_on_c, 0, 70, 69
1, 268523, Note_off_c, 0, 75, 59
1, 268551, Note_off_c, 0, 80, 53
1, 268559, Note_off_c, 0, 70, 58
1, 268663, Note_on_c, 0, 80, 88
1, 268671, Note_on_c, 0, 72, 71
1, 268674, Note_on_c, 0, 51, 69
1, 268679, Note_on_c, 0, 75, 72
1, 268683, Note_on_c, 0, 44, 63
1, 268684, Control_c, 0, 64, 112
1, 268699, Control_c, 0, 64, 81
1, 268714, Control_c, 0, 64, 0
1, 268724, Note_off_c, 0, 72, 62
1, 268758, Control_c, 0, 64, 74
1, 268773, Control_c, 0, 64, 94
1, 268788, Control_c, 0, 64, 127
1, 268789, Note_on_c, 0, 68, 76
1, 268814, Note_off_c, 0, 75, 61
1, 268815, Note_off_c, 0, 68, 65
1, 268831, Note_off_c, 0, 80, 59
1, 268914, Note_on_c, 0, 80, 85
1, 268930, Note_on_c, 0, 70, 65
1, 268931, Note_on_c, 0, 75, 67
1, 268946, Note_off_c, 0, 70, 65
1, 269007, Note_off_c, 0, 75, 59
1, 269016, Note_off_c, 0, 80, 62
1, 269037, Note_on_c, 0, 68, 75
1, 269064, Note_off_c, 0, 68, 67
1, 269169, Note_on_c, 0, 79, 81
1, 269178, Note_on_c, 0, 70, 73
1, 269180, Note_on_c, 0, 58, 55
1, 269180, Control_c, 0, 64, 92
1, 269183, Note_on_c, 0, 75, 66
1, 269195, Control_c, 0, 64, 67
1, 269210, Control_c, 0, 64, 0
1, 269219, Note_off_c, 0, 70, 60
1, 269225, Control_c, 0, 64, 52
1, 269240, Note_off_c, 0, 79, 63
1, 269240, Control_c, 0, 64, 78
1, 269252, Note_off_c, 0, 75, 64
1, 269254, Control_c, 0, 64, 101
1, 269269, Control_c, 0, 64, 127
1, 269293, Note_on_c, 0, 65, 71
1, 269315, Note_off_c, 0, 58, 56
1, 269321, Note_off_c, 0, 65, 69
1, 269432, Note_on_c, 0, 75, 78
1, 269439, Note_on_c, 0, 70, 68
1, 269443, Note_on_c, 0, 58, 60
1, 269453, Note_on_c, 0, 67, 60
1, 269488, Note_off_c, 0, 67, 64
1, 269549, Note_on_c, 0, 63, 64
1, 269562, Note_off_c, 0, 70, 61
1, 269577, Note_off_c, 0, 63, 67
1, 269578, Note_off_c, 0, 75, 64
1, 269650, Note_off_c, 0, 44, 61
1, 269654, Note_off_c, 0, 51, 55
1, 269687, Note_on_c, 0, 78, 81
1, 269694, Note_on_c, 0, 70, 68
1, 269701, Note_on_c, 0, 75, 67
1, 269726, Note_off_c, 0, 70, 64
1, 269741, Note_off_c, 0, 58, 56
1, 269813, Note_on_c, 0, 69, 67
1, 269842, Note_off_c, 0, 69, 67
1, 269843, Note_off_c, 0, 75, 32
1, 269845, Note_off_c, 0, 78, 59
1, 269950, Note_on_c, 0, 57, 60
1, 269950, Note_on_c, 0, 78, 85
1, 269958, Control_c, 0, 64, 104
1, 269959, Note_on_c, 0, 75, 73
1, 269963, Note_on_c, 0, 70, 65
1, 269973, Control_c, 0, 64, 80
1, 269988, Control_c, 0, 64, 54
1, 270003, Control_c, 0, 64, 0
1, 270018, Control_c, 0, 64, 61
1, 270019, Note_off_c, 0, 70, 52
1, 270033, Control_c, 0, 64, 78
1, 270048, Control_c, 0, 64, 99
1, 270063, Control_c, 0, 64, 127
1, 270065, Note_off_c, 0, 57, 58
1, 270076, Note_on_c, 0, 58, 66
1, 270087, Note_on_c, 0, 66, 55
1, 270115, Note_off_c, 0, 75, 53
1, 270125, Note_off_c, 0, 78, 58
1, 270131, Note_off_c, 0, 66, 61
1, 270199, Note_off_c, 0, 58, 54
1, 270222, Note_on_c, 0, 57, 52
1, 270223, Note_on_c, 0, 78, 88
1, 270247, Note_on_c, 0, 70, 63
1, 270248, Note_on_c, 0, 75, 73
1, 270280, Note_off_c, 0, 70, 60
1, 270370, Note_on_c, 0, 58, 55
1, 270370, Note_on_c, 0, 66, 48
1, 270391, Note_off_c, 0, 75, 56
1, 270396, Note_off_c, 0, 57, 52
1, 270402, Note_off_c, 0, 66, 57
1, 270409, Note_off_c, 0, 78, 57
1, 270423, Note_off_c, 0, 58, 62
1, 270584, Note_on_c, 0, 78, 80
1, 270590, Note_on_c, 0, 63, 53
1, 270605, Note_on_c, 0, 70, 59
1, 270608, Note_on_c, 0, 75, 64
1, 270619, Control_c, 0, 64, 100
1, 270634, Control_c, 0, 64, 78
1, 270649, Control_c, 0, 64, 40
1, 270663, Control_c, 0, 64, 0
1, 270675, Note_off_c, 0, 70, 41
1, 270707, Control_c, 0, 64, 70
1, 270722, Note_off_c, 0, 75, 62
1, 270722, Control_c, 0, 64, 84
1, 270731, Note_on_c, 0, 66, 57
1, 270737, Control_c, 0, 64, 105
1, 270752, Control_c, 0, 64, 127
1, 270773, Note_off_c, 0, 78, 61
1, 270811, Note_off_c, 0, 66, 59
1, 270862, Note_on_c, 0, 74, 69
1, 270876, Note_on_c, 0, 70, 63
1, 270994, Note_off_c, 0, 70, 49
1, 271011, Note_off_c, 0, 63, 62
1, 271015, Note_on_c, 0, 66, 51
1, 271037, Note_off_c, 0, 66, 61
1, 271154, Note_on_c, 0, 73, 78
1, 271162, Note_on_c, 0, 70, 62
1, 271193, Note_off_c, 0, 74, 62
1, 271300, Note_on_c, 0, 66, 60
1, 271315, Note_off_c, 0, 70, 57
1, 271331, Note_off_c, 0, 66, 66
1, 271464, Note_off_c, 0, 73, 33
1, 271489, Note_on_c, 0, 78, 78
1, 271500, Control_c, 0, 64, 98
1, 271509, Note_on_c, 0, 72, 62
1, 271515, Control_c, 0, 64, 76
1, 271520, Note_on_c, 0, 32, 46
1, 271522, Note_on_c, 0, 44, 40
1, 271529, Control_c, 0, 64, 36
1, 271530, Note_on_c, 0, 69, 41
1, 271545, Control_c, 0, 64, 0
1, 271558, Note_off_c, 0, 69, 52
1, 271575, Control_c, 0, 64, 70
1, 271590, Control_c, 0, 64, 87
1, 271604, Control_c, 0, 64, 113
1, 271619, Control_c, 0, 64, 127
1, 271630, Note_off_c, 0, 72, 56
1, 271632, Note_off_c, 0, 44, 55
1, 271639, Note_off_c, 0, 32, 53
1, 271687, Note_on_c, 0, 68, 56
1, 271709, Note_off_c, 0, 68, 61
1, 271729, Note_off_c, 0, 78, 58
1, 271836, Note_on_c, 0, 78, 83
1, 271838, Note_on_c, 0, 68, 64
1, 271840, Note_on_c, 0, 39, 51
1, 271843, Note_on_c, 0, 51, 44
1, 271845, Note_on_c, 0, 72, 60
1, 271890, Note_off_c, 0, 68, 61
1, 271917, Note_off_c, 0, 51, 58
1, 271918, Note_off_c, 0, 39, 61
1, 271934, Note_off_c, 0, 72, 59
1, 271996, Note_off_c, 0, 78, 50
1, 271999, Note_on_c, 0, 67, 62
1, 272029, Note_off_c, 0, 67, 64
1, 272206, Control_c, 0, 64, 108
1, 272207, Note_on_c, 0, 78, 80
1, 272210, Note_on_c, 0, 44, 52
1, 272221, Note_on_c, 0, 56, 48
1, 272221, Note_on_c, 0, 72, 54
1, 272221, Control_c, 0, 64, 85
1, 272227, Note_on_c, 0, 68, 52
1, 272235, Control_c, 0, 64, 66
1, 272250, Control_c, 0, 64, 0
1, 272259, Note_off_c, 0, 68, 50
1, 272279, Control_c, 0, 64, 63
1, 272294, Control_c, 0, 64, 78
1, 272309, Control_c, 0, 64, 97
1, 272316, Note_off_c, 0, 72, 60
1, 272324, Control_c, 0, 64, 118
1, 272339, Control_c, 0, 64, 127
1, 272340, Note_off_c, 0, 78, 61
1, 272401, Note_on_c, 0, 63, 63
1, 272421, Note_off_c, 0, 63, 65
1, 272522, Note_off_c, 0, 56, 39
1, 272525, Note_on_c, 0, 78, 78
1, 272548, Note_on_c, 0, 72, 50
1, 272567, Note_on_c, 0, 68, 36
1, 272599, Note_off_c, 0, 68, 51
1, 272608, Note_off_c, 0, 72, 54
1, 272691, Note_on_c, 0, 67, 60
1, 272691, Note_off_c, 0, 78, 58
1, 272728, Note_off_c, 0, 67, 60
1, 272821, Control_c, 0, 64, 97
1, 272827, Note_on_c, 0, 77, 71
1, 272836, Control_c, 0, 64, 75
1, 272838, Note_on_c, 0, 56, 46
1, 272845, Note_on_c, 0, 72, 57
1, 272850, Control_c, 0, 64, 0
1, 272895, Control_c, 0, 64, 66
1, 272900, Note_off_c, 0, 72, 59
1, 272910, Control_c, 0, 64, 80
1, 272924, Control_c, 0, 64, 95
1, 272936, Note_off_c, 0, 77, 60
1, 272939, Control_c, 0, 64, 110
1, 272954, Control_c, 0, 64, 122
1, 272969, Control_c, 0, 64, 127
1, 272977, Note_on_c, 0, 64, 52
1, 272977, Note_off_c, 0, 56, 39
1, 273005, Note_off_c, 0, 64, 59
1, 273117, Note_on_c, 0, 72, 68
1, 273120, Note_on_c, 0, 56, 43
1, 273127, Note_on_c, 0, 65, 61
1, 273163, Note_off_c, 0, 65, 64
1, 273264, Note_on_c, 0, 60, 58
1, 273284, Note_off_c, 0, 72, 60
1, 273291, Note_off_c, 0, 60, 63
1, 273412, Note_off_c, 0, 44, 60
1, 273416, Note_on_c, 0, 76, 66
1, 273427, Note_on_c, 0, 64, 59
1, 273440, Note_off_c, 0, 56, 57
1, 273449, Note_off_c, 0, 64, 65
1, 273512, Note_off_c, 0, 76, 62
1, 273580, Note_on_c, 0, 63, 56
1, 273602, Note_off_c, 0, 63, 59
1, 273735, Note_on_c, 0, 76, 72
1, 273748, Note_on_c, 0, 55, 40
1, 273757, Note_on_c, 0, 71, 47
1, 273762, Note_on_c, 0, 66, 44
1, 273777, Control_c, 0, 64, 117
1, 273792, Control_c, 0, 64, 94
1, 273807, Control_c, 0, 64, 76
1, 273822, Control_c, 0, 64, 54
1, 273837, Control_c, 0, 64, 0
1, 273852, Control_c, 0, 64, 39
1, 273853, Note_off_c, 0, 71, 44
1, 273866, Control_c, 0, 64, 69
1, 273881, Control_c, 0, 64, 79
1, 273889, Note_off_c, 0, 66, 29
1, 273896, Control_c, 0, 64, 90
1, 273903, Note_on_c, 0, 56, 47
1, 273908, Note_on_c, 0, 59, 46
1, 273911, Control_c, 0, 64, 99
1, 273920, Note_off_c, 0, 55, 37
1, 273925, Control_c, 0, 64, 107
1, 273939, Note_off_c, 0, 76, 53
1, 273940, Control_c, 0, 64, 115
1, 273955, Control_c, 0, 64, 127
1, 273970, Control_c, 0, 64, 127
1, 274039, Note_off_c, 0, 59, 37
1, 274067, Note_on_c, 0, 76, 73
1, 274073, Note_off_c, 0, 56, 53
1, 274081, Note_on_c, 0, 55, 45
1, 274099, Note_on_c, 0, 71, 50
1, 274103, Control_c, 0, 64, 105
1, 274109, Note_on_c, 0, 64, 38
1, 274125, Control_c, 0, 64, 81
1, 274140, Control_c, 0, 64, 61
1, 274156, Control_c, 0, 64, 0
1, 274159, Note_off_c, 0, 64, 46
1, 274177, Note_off_c, 0, 71, 44
1, 274185, Control_c, 0, 64, 55
1, 274200, Control_c, 0, 64, 73
1, 274215, Control_c, 0, 64, 84
1, 274230, Control_c, 0, 64, 96
1, 274245, Control_c, 0, 64, 103
1, 274260, Control_c, 0, 64, 108
1, 274268, Note_on_c, 0, 56, 46
1, 274269, Note_on_c, 0, 59, 39
1, 274275, Control_c, 0, 64, 114
1, 274287, Note_off_c, 0, 55, 60
1, 274287, Note_off_c, 0, 76, 61
1, 274290, Control_c, 0, 64, 124
1, 274298, Note_off_c, 0, 59, 54
1, 274299, Note_off_c, 0, 56, 57
1, 274304, Control_c, 0, 64, 127
1, 274525, Note_on_c, 0, 76, 71
1, 274531, Note_on_c, 0, 68, 49
1, 274568, Note_on_c, 0, 71, 33
1, 274571, Control_c, 0, 64, 106
1, 274586, Control_c, 0, 64, 84
1, 274601, Control_c, 0, 64, 58
1, 274616, Control_c, 0, 64, 0
1, 274633, Note_off_c, 0, 71, 47
1, 274660, Control_c, 0, 64, 57
1, 274674, Control_c, 0, 64, 70
1, 274689, Control_c, 0, 64, 78
1, 274704, Control_c, 0, 64, 86
1, 274719, Control_c, 0, 64, 92
1, 274734, Control_c, 0, 64, 99
1, 274743, Note_off_c, 0, 76, 58
1, 274749, Control_c, 0, 64, 106
1, 274763, Note_on_c, 0, 64, 34
1, 274764, Control_c, 0, 64, 115
1, 274779, Control_c, 0, 64, 127
1, 274779, Note_off_c, 0, 68, 59
1, 274969, Note_on_c, 0, 71, 44
1, 275139, Note_off_c, 0, 64, 35
1, 275172, Note_off_c, 0, 71, 35
1, 275199, Note_on_c, 0, 63, 39
1, 275551, Note_on_c, 0, 71, 55
1, 275638, Control_c, 0, 64, 122
1, 275652, Control_c, 0, 64, 108
1, 275667, Control_c, 0, 64, 98
1, 275682, Control_c, 0, 64, 89
1, 275697, Control_c, 0, 64, 79
1, 275712, Control_c, 0, 64, 69
1, 275727, Control_c, 0, 64, 49
1, 275739, Note_off_c, 0, 63, 38
1, 275741, Control_c, 0, 64, 0
1, 275927, Note_on_c, 0, 62, 30
1, 275950, Control_c, 0, 64, 50
1, 275965, Control_c, 0, 64, 65
1, 275980, Control_c, 0, 64, 70
1, 275994, Control_c, 0, 64, 74
1, 276009, Control_c, 0, 64, 78
1, 276024, Control_c, 0, 64, 82
1, 276039, Control_c, 0, 64, 88
1, 276054, Control_c, 0, 64, 92
1, 276068, Control_c, 0, 64, 95
1, 276083, Control_c, 0, 64, 98
1, 276098, Control_c, 0, 64, 101
1, 276111, Note_off_c, 0, 62, 40
1, 276113, Control_c, 0, 64, 104
1, 276127, Control_c, 0, 64, 108
1, 276142, Control_c, 0, 64, 110
1, 276157, Control_c, 0, 64, 113
1, 276172, Control_c, 0, 64, 115
1, 276187, Control_c, 0, 64, 117
1, 276201, Control_c, 0, 64, 118
1, 276216, Control_c, 0, 64, 119
1, 276231, Control_c, 0, 64, 119
1, 276246, Control_c, 0, 64, 120
1, 276275, Control_c, 0, 64, 120
1, 276401, Note_on_c, 0, 33, 23
1, 276446, Control_c, 0, 64, 120
1, 276451, Note_on_c, 0, 61, 35
1, 276460, Control_c, 0, 64, 117
1, 276475, Control_c, 0, 64, 110
1, 276490, Control_c, 0, 64, 100
1, 276505, Control_c, 0, 64, 88
1, 276519, Control_c, 0, 64, 73
1, 276534, Control_c, 0, 64, 53
1, 276550, Control_c, 0, 64, 0
1, 276580, Control_c, 0, 64, 47
1, 276595, Control_c, 0, 64, 67
1, 276610, Control_c, 0, 64, 75
1, 276624, Control_c, 0, 64, 83
1, 276639, Control_c, 0, 64, 90
1, 276654, Control_c, 0, 64, 97
1, 276668, Control_c, 0, 64, 104
1, 276683, Control_c, 0, 64, 111
1, 276686, Note_off_c, 0, 33, 42
1, 276698, Control_c, 0, 64, 119
1, 276713, Control_c, 0, 64, 127
1, 276753, Note_off_c, 0, 61, 54
1, 276905, Note_off_c, 0, 71, 18
1, 277047, Note_on_c, 0, 69, 39
1, 277083, Note_on_c, 0, 52, 28
1, 277089, Note_on_c, 0, 67, 31
1, 277177, Note_off_c, 0, 69, 58
1, 277193, Note_off_c, 0, 67, 35
1, 277402, Note_on_c, 0, 76, 54
1, 277425, Note_on_c, 0, 57, 31
1, 277483, Note_off_c, 0, 76, 61
1, 277494, Note_on_c, 0, 64, 8
1, 277626, Note_on_c, 0, 69, 36
1, 277631, Note_off_c, 0, 57, 40
1, 277661, Note_on_c, 0, 67, 33
1, 277678, Poly_aftertouch_c, 0, 59, 127
1, 277686, Note_off_c, 0, 64, 35
1, 277708, Note_off_c, 0, 69, 55
1, 277709, Note_off_c, 0, 67, 47
1, 277736, Note_off_c, 0, 52, 32
1, 277835, Note_on_c, 0, 76, 60
1, 277847, Note_on_c, 0, 61, 40
1, 277850, Poly_aftertouch_c, 0, 59, 0
1, 277881, Note_on_c, 0, 64, 21
1, 277916, Note_off_c, 0, 76, 60
1, 277947, Note_off_c, 0, 61, 59
1, 278040, Note_on_c, 0, 69, 43
1, 278079, Note_on_c, 0, 67, 22
1, 278101, Note_off_c, 0, 64, 39
1, 278102, Note_off_c, 0, 69, 59
1, 278117, Note_off_c, 0, 67, 47
1, 278299, Control_c, 0, 64, 117
1, 278314, Control_c, 0, 64, 99
1, 278329, Control_c, 0, 64, 80
1, 278332, Note_on_c, 0, 76, 57
1, 278344, Control_c, 0, 64, 65
1, 278352, Note_on_c, 0, 38, 23
1, 278359, Control_c, 0, 64, 0
1, 278368, Note_on_c, 0, 64, 28
1, 278388, Control_c, 0, 64, 62
1, 278403, Control_c, 0, 64, 73
1, 278418, Control_c, 0, 64, 82
1, 278433, Control_c, 0, 64, 92
1, 278441, Note_off_c, 0, 76, 55
1, 278448, Control_c, 0, 64, 98
1, 278462, Control_c, 0, 64, 104
1, 278463, Note_off_c, 0, 38, 36
1, 278477, Control_c, 0, 64, 110
1, 278492, Control_c, 0, 64, 118
1, 278507, Control_c, 0, 64, 127
1, 278582, Note_on_c, 0, 69, 40
1, 278600, Note_on_c, 0, 57, 35
1, 278615, Note_off_c, 0, 64, 41
1, 278637, Note_on_c, 0, 66, 14
1, 278702, Note_off_c, 0, 66, 43
1, 278735, Note_off_c, 0, 57, 36
1, 278743, Note_off_c, 0, 69, 55
1, 278752, Note_on_c, 0, 74, 57
1, 278787, Note_on_c, 0, 54, 32
1, 278796, Note_on_c, 0, 62, 32
1, 278875, Note_off_c, 0, 74, 55
1, 278928, Note_off_c, 0, 62, 32
1, 278939, Note_off_c, 0, 54, 37
1, 278948, Note_on_c, 0, 66, 35
1, 278949, Note_on_c, 0, 69, 32
1, 278953, Note_on_c, 0, 57, 24
1, 279023, Note_off_c, 0, 66, 40
1, 279035, Note_off_c, 0, 57, 37
1, 279051, Note_off_c, 0, 69, 58
1, 279076, Note_on_c, 0, 73, 65
1, 279101, Note_on_c, 0, 47, 38
1, 279108, Note_on_c, 0, 61, 41
1, 279164, Note_off_c, 0, 61, 42
1, 279175, Note_off_c, 0, 47, 41
1, 279216, Note_off_c, 0, 73, 49
1, 279232, Note_on_c, 0, 57, 27
1, 279256, Note_on_c, 0, 69, 23
1, 279269, Note_off_c, 0, 57, 51
1, 279280, Note_on_c, 0, 66, 13
1, 279345, Control_c, 0, 64, 108
1, 279348, Note_off_c, 0, 66, 41
1, 279367, Control_c, 0, 64, 89
1, 279382, Control_c, 0, 64, 73
1, 279397, Control_c, 0, 64, 0
1, 279403, Note_on_c, 0, 73, 54
1, 279425, Note_off_c, 0, 69, 44
1, 279426, Control_c, 0, 64, 49
1, 279429, Note_on_c, 0, 40, 44
1, 279441, Control_c, 0, 64, 69
1, 279447, Note_on_c, 0, 61, 32
1, 279456, Control_c, 0, 64, 77
1, 279465, Note_off_c, 0, 40, 58
1, 279471, Control_c, 0, 64, 84
1, 279485, Control_c, 0, 64, 89
1, 279500, Control_c, 0, 64, 94
1, 279504, Note_off_c, 0, 73, 62
1, 279515, Control_c, 0, 64, 98
1, 279521, Note_off_c, 0, 61, 59
1, 279530, Control_c, 0, 64, 103
1, 279545, Control_c, 0, 64, 109
1, 279560, Control_c, 0, 64, 114
1, 279575, Control_c, 0, 64, 119
1, 279590, Control_c, 0, 64, 122
1, 279605, Control_c, 0, 64, 125
1, 279609, Note_on_c, 0, 68, 42
1, 279611, Note_on_c, 0, 52, 43
1, 279619, Control_c, 0, 64, 127
1, 279651, Note_off_c, 0, 52, 49
1, 279763, Note_on_c, 0, 71, 56
1, 279802, Note_on_c, 0, 56, 35
1, 279804, Note_on_c, 0, 59, 18
1, 279810, Note_on_c, 0, 50, 34
1, 279819, Note_off_c, 0, 68, 42
1, 279890, Note_off_c, 0, 71, 52
1, 279926, Note_off_c, 0, 59, 24
1, 279934, Note_on_c, 0, 52, 42
1, 279934, Note_on_c, 0, 68, 44
1, 279936, Note_off_c, 0, 56, 24
1, 279989, Note_off_c, 0, 50, 34
1, 280084, Note_off_c, 0, 68, 40
1, 280119, Note_off_c, 0, 52, 43
1, 280120, Note_on_c, 0, 69, 59
1, 280143, Note_on_c, 0, 49, 42
1, 280146, Control_c, 0, 64, 115
1, 280161, Control_c, 0, 64, 97
1, 280175, Control_c, 0, 64, 80
1, 280190, Control_c, 0, 64, 65
1, 280201, Poly_aftertouch_c, 0, 57, 127
1, 280205, Control_c, 0, 64, 0
1, 280235, Poly_aftertouch_c, 0, 57, 0
1, 280249, Control_c, 0, 64, 65
1, 280252, Note_off_c, 0, 69, 59
1, 280264, Control_c, 0, 64, 72
1, 280279, Control_c, 0, 64, 79
1, 280293, Control_c, 0, 64, 83
1, 280308, Control_c, 0, 64, 87
1, 280317, Note_on_c, 0, 64, 34
1, 280323, Control_c, 0, 64, 92
1, 280332, Note_on_c, 0, 52, 39
1, 280338, Note_off_c, 0, 49, 36
1, 280338, Control_c, 0, 64, 97
1, 280353, Control_c, 0, 64, 103
1, 280368, Control_c, 0, 64, 107
1, 280380, Note_off_c, 0, 64, 41
1, 280383, Control_c, 0, 64, 110
1, 280398, Control_c, 0, 64, 111
1, 280412, Control_c, 0, 64, 113
1, 280427, Control_c, 0, 64, 114
1, 280442, Control_c, 0, 64, 116
1, 280457, Control_c, 0, 64, 116
1, 280472, Control_c, 0, 64, 117
1, 280481, Note_off_c, 0, 52, 29
1, 280544, Note_on_c, 0, 73, 57
1, 280576, Control_c, 0, 64, 112
1, 280577, Note_on_c, 0, 45, 38
1, 280591, Control_c, 0, 64, 101
1, 280606, Control_c, 0, 64, 86
1, 280612, Note_on_c, 0, 61, 21
1, 280621, Control_c, 0, 64, 70
1, 280636, Control_c, 0, 64, 0
1, 280660, Note_off_c, 0, 61, 44
1, 280680, Control_c, 0, 64, 60
1, 280695, Control_c, 0, 64, 70
1, 280709, Control_c, 0, 64, 75
1, 280724, Control_c, 0, 64, 80
1, 280739, Control_c, 0, 64, 84
1, 280754, Control_c, 0, 64, 87
1, 280764, Note_off_c, 0, 73, 31
1, 280767, Note_on_c, 0, 52, 35
1, 280769, Control_c, 0, 64, 91
1, 280770, Note_on_c, 0, 69, 38
1, 280783, Control_c, 0, 64, 95
1, 280785, Note_on_c, 0, 64, 29
1, 280798, Control_c, 0, 64, 99
1, 280813, Control_c, 0, 64, 103
1, 280828, Control_c, 0, 64, 105
1, 280842, Control_c, 0, 64, 107
1, 280865, Control_c, 0, 64, 108
1, 280880, Control_c, 0, 64, 110
1, 280884, Note_off_c, 0, 64, 55
1, 280895, Control_c, 0, 64, 111
1, 280898, Note_off_c, 0, 69, 58
1, 280910, Control_c, 0, 64, 113
1, 280913, Note_off_c, 0, 52, 35
1, 280924, Control_c, 0, 64, 113
1, 280937, Note_on_c, 0, 57, 36
1, 280942, Note_on_c, 0, 61, 44
1, 280954, Control_c, 0, 64, 114
1, 280969, Control_c, 0, 64, 114
1, 280984, Control_c, 0, 64, 115
1, 281042, Control_c, 0, 64, 116
1, 281087, Control_c, 0, 64, 116
1, 281116, Note_on_c, 0, 69, 45
1, 281141, Note_on_c, 0, 54, 41
1, 281162, Note_on_c, 0, 62, 26
1, 281173, Note_off_c, 0, 61, 26
1, 281174, Note_off_c, 0, 57, 0
1, 281191, Note_off_c, 0, 54, 57
1, 281211, Poly_aftertouch_c, 0, 57, 127
1, 281353, Note_off_c, 0, 62, 39
1, 281387, Note_on_c, 0, 52, 37
1, 281396, Note_on_c, 0, 61, 42
1, 281399, Control_c, 0, 64, 116
1, 281402, Note_off_c, 0, 69, 23
1, 281414, Control_c, 0, 64, 112
1, 281429, Control_c, 0, 64, 102
1, 281441, Poly_aftertouch_c, 0, 57, 0
1, 281444, Control_c, 0, 64, 90
1, 281458, Control_c, 0, 64, 75
1, 281473, Control_c, 0, 64, 53
1, 281488, Control_c, 0, 64, 0
1, 281532, Control_c, 0, 64, 16
1, 281547, Control_c, 0, 64, 63
1, 281562, Control_c, 0, 64, 69
1, 281572, Note_off_c, 0, 61, 35
1, 281577, Control_c, 0, 64, 73
1, 281592, Control_c, 0, 64, 78
1, 281614, Control_c, 0, 64, 83
1, 281615, Note_off_c, 0, 52, 42
1, 281629, Control_c, 0, 64, 88
1, 281644, Control_c, 0, 64, 92
1, 281659, Control_c, 0, 64, 97
1, 281662, Note_on_c, 0, 69, 39
1, 281673, Control_c, 0, 64, 100
1, 281673, Note_on_c, 0, 64, 32
1, 281688, Control_c, 0, 64, 104
1, 281692, Note_off_c, 0, 45, 40
1, 281703, Control_c, 0, 64, 107
1, 281718, Control_c, 0, 64, 109
1, 281733, Control_c, 0, 64, 111
1, 281747, Control_c, 0, 64, 113
1, 281762, Control_c, 0, 64, 114
1, 281777, Control_c, 0, 64, 116
1, 281792, Control_c, 0, 64, 117
1, 281807, Control_c, 0, 64, 118
1, 281821, Control_c, 0, 64, 118
1, 281836, Control_c, 0, 64, 119
1, 281851, Control_c, 0, 64, 119
1, 281933, Note_on_c, 0, 33, 37
1, 281959, Note_off_c, 0, 69, 33
1, 281969, Control_c, 0, 64, 117
1, 281984, Control_c, 0, 64, 108
1, 281999, Control_c, 0, 64, 94
1, 282002, Note_off_c, 0, 64, 35
1, 282013, Control_c, 0, 64, 77
1, 282028, Control_c, 0, 64, 53
1, 282036, Note_on_c, 0, 61, 34
1, 282043, Control_c, 0, 64, 0
1, 282073, Control_c, 0, 64, 44
1, 282088, Control_c, 0, 64, 69
1, 282103, Control_c, 0, 64, 79
1, 282118, Control_c, 0, 64, 89
1, 282133, Control_c, 0, 64, 97
1, 282148, Control_c, 0, 64, 102
1, 282153, Note_off_c, 0, 61, 58
1, 282162, Control_c, 0, 64, 109
1, 282177, Control_c, 0, 64, 117
1, 282192, Control_c, 0, 64, 127
1, 282207, Note_off_c, 0, 33, 41
1, 282314, Note_on_c, 0, 76, 53
1, 282389, Note_off_c, 0, 76, 60
1, 282552, Note_on_c, 0, 69, 39
1, 282569, Note_on_c, 0, 67, 36
1, 282606, Note_off_c, 0, 69, 49
1, 282617, Note_off_c, 0, 67, 58
1, 282621, Poly_aftertouch_c, 0, 45, 127
1, 282621, Note_on_c, 0, 45, 3
1, 282741, Note_on_c, 0, 76, 58
1, 282767, Note_on_c, 0, 64, 33
1, 282768, Note_on_c, 0, 52, 38
1, 282794, Note_off_c, 0, 45, 42
1, 282806, Note_off_c, 0, 76, 62
1, 282845, Note_off_c, 0, 52, 57
1, 282920, Note_on_c, 0, 69, 49
1, 282936, Note_on_c, 0, 59, 29
1, 282953, Note_on_c, 0, 67, 36
1, 282966, Note_off_c, 0, 64, 39
1, 282992, Note_off_c, 0, 67, 55
1, 282993, Note_off_c, 0, 69, 60
1, 283098, Note_on_c, 0, 76, 63
1, 283117, Note_on_c, 0, 64, 44
1, 283130, Note_off_c, 0, 59, 35
1, 283169, Note_off_c, 0, 76, 63
1, 283270, Note_on_c, 0, 69, 52
1, 283310, Note_off_c, 0, 64, 44
1, 283321, Note_off_c, 0, 69, 57
1, 283351, Poly_aftertouch_c, 0, 67, 0
1, 283375, Poly_aftertouch_c, 0, 67, 0
1, 283482, Control_c, 0, 64, 116
1, 283497, Control_c, 0, 64, 94
1, 283510, Note_on_c, 0, 76, 61
1, 283511, Control_c, 0, 64, 77
1, 283525, Note_on_c, 0, 38, 37
1, 283526, Control_c, 0, 64, 61
1, 283541, Control_c, 0, 64, 0
1, 283566, Note_on_c, 0, 64, 21
1, 283571, Control_c, 0, 64, 60
1, 283585, Control_c, 0, 64, 72
1, 283600, Control_c, 0, 64, 82
1, 283601, Note_off_c, 0, 76, 57
1, 283615, Control_c, 0, 64, 90
1, 283626, Note_off_c, 0, 38, 54
1, 283629, Control_c, 0, 64, 94
1, 283644, Control_c, 0, 64, 99
1, 283659, Control_c, 0, 64, 105
1, 283674, Control_c, 0, 64, 111
1, 283689, Control_c, 0, 64, 119
1, 283703, Control_c, 0, 64, 126
1, 283718, Control_c, 0, 64, 127
1, 283734, Note_on_c, 0, 69, 46
1, 283757, Note_off_c, 0, 64, 41
1, 283759, Note_on_c, 0, 57, 38
1, 283762, Note_on_c, 0, 66, 33
1, 283824, Note_off_c, 0, 57, 49
1, 283827, Note_off_c, 0, 66, 45
1, 283871, Note_off_c, 0, 69, 59
1, 283889, Note_on_c, 0, 74, 63
1, 283918, Note_on_c, 0, 62, 43
1, 283921, Note_on_c, 0, 54, 34
1, 283983, Note_off_c, 0, 62, 52
1, 283992, Note_off_c, 0, 74, 57
1, 283994, Note_off_c, 0, 54, 52
1, 284040, Note_on_c, 0, 57, 42
1, 284062, Note_on_c, 0, 66, 37
1, 284067, Note_off_c, 0, 57, 59
1, 284082, Note_on_c, 0, 69, 25
1, 284139, Note_off_c, 0, 66, 34
1, 284201, Control_c, 0, 64, 121
1, 284205, Note_on_c, 0, 73, 62
1, 284216, Control_c, 0, 64, 101
1, 284228, Note_on_c, 0, 42, 45
1, 284229, Note_on_c, 0, 61, 49
1, 284231, Control_c, 0, 64, 84
1, 284240, Note_off_c, 0, 69, 39
1, 284246, Control_c, 0, 64, 68
1, 284261, Control_c, 0, 64, 0
1, 284276, Control_c, 0, 64, 41
1, 284291, Control_c, 0, 64, 66
1, 284303, Note_off_c, 0, 61, 46
1, 284306, Control_c, 0, 64, 75
1, 284321, Control_c, 0, 64, 83
1, 284335, Control_c, 0, 64, 90
1, 284337, Note_off_c, 0, 73, 55
1, 284350, Control_c, 0, 64, 96
1, 284360, Note_on_c, 0, 69, 46
1, 284364, Note_on_c, 0, 66, 44
1, 284365, Control_c, 0, 64, 105
1, 284380, Control_c, 0, 64, 114
1, 284388, Note_on_c, 0, 49, 38
1, 284395, Control_c, 0, 64, 126
1, 284404, Note_off_c, 0, 42, 39
1, 284410, Control_c, 0, 64, 127
1, 284437, Note_off_c, 0, 66, 54
1, 284460, Note_off_c, 0, 49, 52
1, 284499, Control_c, 0, 64, 105
1, 284509, Note_off_c, 0, 69, 58
1, 284510, Note_on_c, 0, 73, 67
1, 284514, Control_c, 0, 64, 86
1, 284524, Note_on_c, 0, 61, 52
1, 284529, Control_c, 0, 64, 67
1, 284544, Note_on_c, 0, 41, 46
1, 284544, Control_c, 0, 64, 0
1, 284574, Control_c, 0, 64, 61
1, 284589, Control_c, 0, 64, 73
1, 284611, Control_c, 0, 64, 83
1, 284626, Control_c, 0, 64, 92
1, 284634, Note_off_c, 0, 73, 59
1, 284640, Control_c, 0, 64, 96
1, 284648, Note_off_c, 0, 61, 60
1, 284655, Control_c, 0, 64, 101
1, 284670, Control_c, 0, 64, 106
1, 284680, Note_off_c, 0, 41, 36
1, 284685, Control_c, 0, 64, 112
1, 284699, Control_c, 0, 64, 118
1, 284702, Note_on_c, 0, 49, 40
1, 284710, Note_on_c, 0, 68, 42
1, 284714, Control_c, 0, 64, 125
1, 284729, Control_c, 0, 64, 127
1, 284739, Note_on_c, 0, 65, 18
1, 284776, Note_off_c, 0, 49, 47
1, 284780, Note_off_c, 0, 65, 49
1, 284797, Note_off_c, 0, 68, 45
1, 284836, Note_on_c, 0, 71, 63
1, 284855, Note_on_c, 0, 59, 44
1, 284858, Note_on_c, 0, 56, 45
1, 284962, Note_off_c, 0, 71, 54
1, 284967, Note_on_c, 0, 68, 51
1, 284967, Note_off_c, 0, 56, 30
1, 285008, Note_off_c, 0, 59, 20
1, 285015, Note_on_c, 0, 49, 19
1, 285044, Note_off_c, 0, 68, 59
1, 285098, Note_off_c, 0, 49, 34
1, 285155, Note_on_c, 0, 69, 63
1, 285155, Note_on_c, 0, 42, 43
1, 285173, Control_c, 0, 64, 112
1, 285180, Note_on_c, 0, 57, 38
1, 285188, Control_c, 0, 64, 98
1, 285203, Control_c, 0, 64, 82
1, 285218, Control_c, 0, 64, 63
1, 285233, Control_c, 0, 64, 0
1, 285262, Control_c, 0, 64, 40
1, 285277, Control_c, 0, 64, 67
1, 285292, Control_c, 0, 64, 74
1, 285302, Note_off_c, 0, 69, 61
1, 285307, Control_c, 0, 64, 81
1, 285309, Note_off_c, 0, 57, 24
1, 285322, Control_c, 0, 64, 89
1, 285337, Control_c, 0, 64, 95
1, 285341, Note_off_c, 0, 42, 35
1, 285343, Note_on_c, 0, 49, 39
1, 285344, Note_on_c, 0, 66, 47
1, 285346, Note_on_c, 0, 61, 27
1, 285360, Control_c, 0, 64, 99
1, 285375, Control_c, 0, 64, 103
1, 285385, Note_off_c, 0, 49, 61
1, 285389, Control_c, 0, 64, 107
1, 285390, Note_off_c, 0, 61, 41
1, 285401, Note_off_c, 0, 66, 61
1, 285404, Control_c, 0, 64, 111
1, 285419, Control_c, 0, 64, 116
1, 285434, Control_c, 0, 64, 119
1, 285449, Control_c, 0, 64, 123
1, 285463, Control_c, 0, 64, 126
1, 285478, Control_c, 0, 64, 127
1, 285577, Note_on_c, 0, 73, 64
1, 285596, Control_c, 0, 64, 123
1, 285603, Note_on_c, 0, 37, 41
1, 285611, Note_on_c, 0, 61, 37
1, 285611, Control_c, 0, 64, 106
1, 285626, Control_c, 0, 64, 89
1, 285641, Control_c, 0, 64, 71
1, 285656, Control_c, 0, 64, 0
1, 285715, Control_c, 0, 64, 63
1, 285730, Control_c, 0, 64, 70
1, 285745, Control_c, 0, 64, 77
1, 285760, Control_c, 0, 64, 84
1, 285774, Control_c, 0, 64, 91
1, 285787, Note_off_c, 0, 61, 34
1, 285788, Control_c, 0, 64, 97
1, 285789, Note_on_c, 0, 68, 41
1, 285793, Note_on_c, 0, 44, 38
1, 285803, Control_c, 0, 64, 103
1, 285815, Note_off_c, 0, 37, 41
1, 285818, Control_c, 0, 64, 108
1, 285832, Control_c, 0, 64, 112
1, 285847, Control_c, 0, 64, 116
1, 285851, Note_off_c, 0, 44, 56
1, 285862, Control_c, 0, 64, 121
1, 285874, Poly_aftertouch_c, 0, 65, 127
1, 285877, Control_c, 0, 64, 126
1, 285892, Control_c, 0, 64, 127
1, 285911, Poly_aftertouch_c, 0, 65, 0
1, 285923, Note_off_c, 0, 68, 0
1, 285958, Note_on_c, 0, 61, 44
1, 285983, Note_on_c, 0, 56, 31
1, 285990, Poly_aftertouch_c, 0, 68, 0
1, 286020, Note_off_c, 0, 61, 49
1, 286121, Note_off_c, 0, 73, 33
1, 286137, Note_off_c, 0, 56, 22
1, 286178, Note_on_c, 0, 68, 37
1, 286189, Note_on_c, 0, 49, 26
1, 286209, Note_on_c, 0, 65, 29
1, 286231, Note_off_c, 0, 49, 48
1, 286287, Note_off_c, 0, 65, 38
1, 286389, Note_on_c, 0, 61, 47
1, 286403, Note_off_c, 0, 68, 33
1, 286486, Note_off_c, 0, 61, 54
1, 286623, Note_on_c, 0, 68, 36
1, 286643, Note_on_c, 0, 65, 33
1, 286684, Note_off_c, 0, 65, 50
1, 286771, Note_off_c, 0, 68, 34
1, 286946, Control_c, 0, 64, 111
1, 286960, Control_c, 0, 64, 98
1, 286975, Control_c, 0, 64, 84
1, 286976, Note_on_c, 0, 40, 37
1, 286982, Note_on_c, 0, 73, 50
1, 286990, Control_c, 0, 64, 71
1, 287005, Control_c, 0, 64, 42
1, 287010, Note_on_c, 0, 61, 33
1, 287020, Control_c, 0, 64, 0
1, 287049, Control_c, 0, 64, 51
1, 287064, Control_c, 0, 64, 67
1, 287078, Control_c, 0, 64, 73
1, 287093, Control_c, 0, 64, 79
1, 287107, Note_off_c, 0, 40, 43
1, 287108, Control_c, 0, 64, 84
1, 287123, Control_c, 0, 64, 89
1, 287131, Note_off_c, 0, 73, 62
1, 287138, Control_c, 0, 64, 95
1, 287152, Control_c, 0, 64, 99
1, 287167, Control_c, 0, 64, 102
1, 287182, Control_c, 0, 64, 106
1, 287197, Control_c, 0, 64, 108
1, 287201, Note_off_c, 0, 61, 39
1, 287212, Control_c, 0, 64, 111
1, 287227, Control_c, 0, 64, 113
1, 287242, Control_c, 0, 64, 115
1, 287257, Control_c, 0, 64, 117
1, 287269, Note_on_c, 0, 68, 32
1, 287272, Control_c, 0, 64, 117
1, 287281, Note_on_c, 0, 52, 35
1, 287286, Control_c, 0, 64, 118
1, 287301, Control_c, 0, 64, 119
1, 287316, Control_c, 0, 64, 119
1, 287331, Control_c, 0, 64, 120
1, 287332, Note_off_c, 0, 52, 50
1, 287360, Control_c, 0, 64, 120
1, 287404, Control_c, 0, 64, 121
1, 287456, Note_on_c, 0, 71, 56
1, 287481, Note_on_c, 0, 59, 32
1, 287492, Note_on_c, 0, 50, 35
1, 287498, Note_on_c, 0, 56, 14
1, 287522, Note_off_c, 0, 68, 38
1, 287596, Note_off_c, 0, 56, 32
1, 287608, Note_off_c, 0, 71, 55
1, 287645, Note_on_c, 0, 52, 36
1, 287650, Note_on_c, 0, 68, 44
1, 287673, Note_off_c, 0, 59, 18
1, 287717, Note_off_c, 0, 50, 36
1, 287799, Note_off_c, 0, 68, 36
1, 287828, Control_c, 0, 64, 120
1, 287840, Note_off_c, 0, 52, 41
1, 287843, Control_c, 0, 64, 119
1, 287850, Note_on_c, 0, 69, 54
1, 287857, Control_c, 0, 64, 114
1, 287871, Note_on_c, 0, 49, 40
1, 287872, Control_c, 0, 64, 106
1, 287887, Control_c, 0, 64, 95
1, 287895, Note_on_c, 0, 57, 18
1, 287901, Control_c, 0, 64, 78
1, 287916, Control_c, 0, 64, 63
1, 287931, Control_c, 0, 64, 0
1, 287975, Control_c, 0, 64, 42
1, 287990, Control_c, 0, 64, 65
1, 288001, Note_off_c, 0, 57, 27
1, 288005, Control_c, 0, 64, 71
1, 288014, Note_off_c, 0, 69, 60
1, 288021, Control_c, 0, 64, 75
1, 288035, Control_c, 0, 64, 80
1, 288050, Control_c, 0, 64, 84
1, 288060, Note_on_c, 0, 64, 42
1, 288064, Note_off_c, 0, 49, 35
1, 288065, Control_c, 0, 64, 89
1, 288073, Note_on_c, 0, 52, 37
1, 288080, Control_c, 0, 64, 93
1, 288095, Control_c, 0, 64, 97
1, 288109, Control_c, 0, 64, 100
1, 288113, Note_off_c, 0, 64, 59
1, 288124, Control_c, 0, 64, 102
1, 288139, Control_c, 0, 64, 104
1, 288154, Control_c, 0, 64, 105
1, 288169, Control_c, 0, 64, 106
1, 288184, Control_c, 0, 64, 107
1, 288199, Control_c, 0, 64, 108
1, 288214, Control_c, 0, 64, 109
1, 288228, Control_c, 0, 64, 109
1, 288243, Control_c, 0, 64, 110
1, 288273, Control_c, 0, 64, 110
1, 288278, Note_off_c, 0, 52, 21
1, 288392, Note_on_c, 0, 73, 63
1, 288407, Note_on_c, 0, 45, 38
1, 288413, Control_c, 0, 64, 110
1, 288428, Control_c, 0, 64, 107
1, 288443, Control_c, 0, 64, 100
1, 288446, Note_on_c, 0, 61, 14
1, 288458, Control_c, 0, 64, 89
1, 288473, Control_c, 0, 64, 75
1, 288488, Control_c, 0, 64, 50
1, 288502, Control_c, 0, 64, 0
1, 288519, Note_off_c, 0, 61, 40
1, 288547, Control_c, 0, 64, 61
1, 288562, Control_c, 0, 64, 68
1, 288577, Control_c, 0, 64, 73
1, 288592, Control_c, 0, 64, 76
1, 288607, Control_c, 0, 64, 78
1, 288622, Control_c, 0, 64, 81
1, 288637, Control_c, 0, 64, 84
1, 288651, Control_c, 0, 64, 88
1, 288655, Note_on_c, 0, 69, 39
1, 288666, Control_c, 0, 64, 91
1, 288671, Note_on_c, 0, 52, 34
1, 288679, Note_on_c, 0, 64, 26
1, 288681, Control_c, 0, 64, 94
1, 288685, Note_off_c, 0, 73, 27
1, 288696, Control_c, 0, 64, 96
1, 288711, Control_c, 0, 64, 97
1, 288725, Control_c, 0, 64, 98
1, 288740, Control_c, 0, 64, 99
1, 288755, Control_c, 0, 64, 101
1, 288770, Control_c, 0, 64, 102
1, 288785, Control_c, 0, 64, 103
1, 288797, Note_off_c, 0, 64, 50
1, 288799, Control_c, 0, 64, 103
1, 288800, Note_off_c, 0, 69, 60
1, 288814, Control_c, 0, 64, 104
1, 288816, Note_off_c, 0, 52, 34
1, 288829, Control_c, 0, 64, 104
1, 288844, Note_on_c, 0, 61, 46
1, 288844, Control_c, 0, 64, 105
1, 288858, Control_c, 0, 64, 106
1, 288865, Note_on_c, 0, 57, 35
1, 288873, Control_c, 0, 64, 106
1, 288932, Control_c, 0, 64, 107
1, 289032, Note_on_c, 0, 69, 40
1, 289042, Note_on_c, 0, 54, 35
1, 289067, Note_off_c, 0, 57, 0
1, 289070, Note_on_c, 0, 62, 33
1, 289075, Note_off_c, 0, 61, 35
1, 289089, Note_off_c, 0, 54, 59
1, 289112, Poly_aftertouch_c, 0, 57, 127
1, 289214, Note_off_c, 0, 45, 41
1, 289228, Note_off_c, 0, 62, 45
1, 289239, Note_on_c, 0, 52, 41
1, 289247, Note_on_c, 0, 61, 46
1, 289251, Control_c, 0, 64, 106
1, 289266, Control_c, 0, 64, 106
1, 289268, Note_off_c, 0, 69, 35
1, 289281, Control_c, 0, 64, 105
1, 289287, Poly_aftertouch_c, 0, 57, 0
1, 289296, Control_c, 0, 64, 104
1, 289310, Control_c, 0, 64, 103
1, 289326, Control_c, 0, 64, 101
1, 289341, Control_c, 0, 64, 98
1, 289355, Control_c, 0, 64, 95
1, 289370, Control_c, 0, 64, 92
1, 289385, Control_c, 0, 64, 89
1, 289400, Control_c, 0, 64, 86
1, 289415, Control_c, 0, 64, 82
1, 289430, Control_c, 0, 64, 78
1, 289435, Note_off_c, 0, 52, 0
1, 289442, Note_on_c, 0, 45, 43
1, 289445, Control_c, 0, 64, 73
1, 289447, Note_on_c, 0, 69, 44
1, 289458, Note_on_c, 0, 64, 40
1, 289460, Control_c, 0, 64, 68
1, 289474, Control_c, 0, 64, 63
1, 289475, Note_off_c, 0, 61, 31
1, 289489, Control_c, 0, 64, 58
1, 289504, Control_c, 0, 64, 55
1, 289507, Poly_aftertouch_c, 0, 52, 0
1, 289532, Control_c, 0, 64, 52
1, 289546, Control_c, 0, 64, 44
1, 289561, Control_c, 0, 64, 28
1, 289576, Control_c, 0, 64, 0
1, 289590, Note_off_c, 0, 64, 55
1, 289606, Control_c, 0, 64, 10
1, 289617, Note_off_c, 0, 69, 46
1, 289621, Control_c, 0, 64, 41
1, 289635, Control_c, 0, 64, 55
1, 289636, Note_on_c, 0, 57, 37
1, 289641, Note_on_c, 0, 61, 38
1, 289650, Control_c, 0, 64, 62
1, 289665, Control_c, 0, 64, 65
1, 289680, Control_c, 0, 64, 67
1, 289695, Control_c, 0, 64, 69
1, 289710, Control_c, 0, 64, 70
1, 289725, Control_c, 0, 64, 73
1, 289740, Control_c, 0, 64, 74
1, 289754, Control_c, 0, 64, 75
1, 289769, Control_c, 0, 64, 76
1, 289784, Control_c, 0, 64, 77
1, 289813, Control_c, 0, 64, 77
1, 289828, Control_c, 0, 64, 78
1, 289850, Control_c, 0, 64, 78
1, 289862, Note_on_c, 0, 69, 43
1, 289865, Control_c, 0, 64, 79
1, 289869, Note_on_c, 0, 54, 39
1, 289874, Note_on_c, 0, 62, 39
1, 289883, Note_off_c, 0, 61, 30
1, 289895, Control_c, 0, 64, 79
1, 289933, Note_off_c, 0, 54, 40
1, 290013, Control_c, 0, 64, 80
1, 290068, Note_off_c, 0, 62, 40
1, 290092, Note_on_c, 0, 61, 49
1, 290093, Note_off_c, 0, 45, 38
1, 290100, Note_on_c, 0, 52, 36
1, 290125, Note_off_c, 0, 69, 32
1, 290188, Note_off_c, 0, 57, 28
1, 290192, Control_c, 0, 64, 79
1, 290207, Control_c, 0, 64, 78
1, 290221, Control_c, 0, 64, 76
1, 290236, Control_c, 0, 64, 73
1, 290251, Control_c, 0, 64, 69
1, 290266, Control_c, 0, 64, 64
1, 290281, Control_c, 0, 64, 57
1, 290295, Control_c, 0, 64, 48
1, 290325, Control_c, 0, 64, 48
1, 290334, Note_off_c, 0, 61, 33
1, 290340, Control_c, 0, 64, 45
1, 290345, Note_on_c, 0, 69, 38
1, 290346, Note_on_c, 0, 45, 35
1, 290351, Note_on_c, 0, 64, 33
1, 290355, Control_c, 0, 64, 40
1, 290369, Control_c, 0, 64, 35
1, 290384, Control_c, 0, 64, 33
1, 290414, Control_c, 0, 64, 32
1, 290443, Control_c, 0, 64, 31
1, 290458, Control_c, 0, 64, 30
1, 290473, Control_c, 0, 64, 28
1, 290480, Note_off_c, 0, 52, 18
1, 290488, Control_c, 0, 64, 26
1, 290533, Note_off_c, 0, 64, 51
1, 290533, Control_c, 0, 64, 25
1, 290548, Control_c, 0, 64, 21
1, 290562, Control_c, 0, 64, 0
1, 290573, Note_off_c, 0, 69, 35
1, 290591, Note_on_c, 0, 61, 45
1, 290613, Note_on_c, 0, 57, 36
1, 290717, Control_c, 0, 64, 38
1, 290732, Control_c, 0, 64, 59
1, 290747, Control_c, 0, 64, 63
1, 290762, Control_c, 0, 64, 64
1, 290777, Control_c, 0, 64, 66
1, 290792, Control_c, 0, 64, 67
1, 290807, Control_c, 0, 64, 69
1, 290821, Control_c, 0, 64, 71
1, 290836, Control_c, 0, 64, 73
1, 290851, Control_c, 0, 64, 75
1, 290866, Control_c, 0, 64, 76
1, 290881, Control_c, 0, 64, 76
1, 290895, Control_c, 0, 64, 77
1, 290910, Control_c, 0, 64, 78
1, 290911, Note_on_c, 0, 54, 36
1, 290911, Note_on_c, 0, 69, 41
1, 290926, Control_c, 0, 64, 78
1, 290931, Note_on_c, 0, 62, 37
1, 290941, Control_c, 0, 64, 79
1, 290956, Control_c, 0, 64, 80
1, 290971, Control_c, 0, 64, 81
1, 290986, Control_c, 0, 64, 82
1, 291000, Control_c, 0, 64, 82
1, 291001, Note_off_c, 0, 61, 17
1, 291016, Control_c, 0, 64, 83
1, 291030, Control_c, 0, 64, 84
1, 291045, Control_c, 0, 64, 84
1, 291060, Note_off_c, 0, 54, 39
1, 291060, Control_c, 0, 64, 85
1, 291067, Note_off_c, 0, 45, 41
1, 291075, Control_c, 0, 64, 85
1, 291105, Control_c, 0, 64, 86
1, 291134, Control_c, 0, 64, 86
1, 291140, Note_off_c, 0, 57, 30
1, 291164, Control_c, 0, 64, 87
1, 291177, Note_off_c, 0, 69, 31
1, 291193, Control_c, 0, 64, 87
1, 291238, Control_c, 0, 64, 88
1, 291433, Note_off_c, 0, 62, 32
1, 291433, Note_on_c, 0, 61, 41
1, 291447, Note_on_c, 0, 45, 36
1, 291472, Note_on_c, 0, 52, 27
1, 291482, Control_c, 0, 64, 87
1, 291497, Control_c, 0, 64, 86
1, 291512, Control_c, 0, 64, 84
1, 291526, Control_c, 0, 64, 80
1, 291541, Control_c, 0, 64, 73
1, 291556, Control_c, 0, 64, 65
1, 291570, Control_c, 0, 64, 16
1, 291585, Control_c, 0, 64, 0
1, 291897, Control_c, 0, 64, 36
1, 291912, Control_c, 0, 64, 63
1, 291927, Control_c, 0, 64, 67
1, 291941, Control_c, 0, 64, 70
1, 291956, Control_c, 0, 64, 73
1, 291971, Control_c, 0, 64, 77
1, 291986, Control_c, 0, 64, 81
1, 292001, Control_c, 0, 64, 85
1, 292015, Control_c, 0, 64, 89
1, 292030, Control_c, 0, 64, 92
1, 292045, Control_c, 0, 64, 95
1, 292054, Note_off_c, 0, 61, 48
1, 292059, Control_c, 0, 64, 99
1, 292074, Control_c, 0, 64, 103
1, 292097, Control_c, 0, 64, 107
1, 292112, Control_c, 0, 64, 110
1, 292127, Control_c, 0, 64, 114
1, 292142, Control_c, 0, 64, 118
1, 292156, Control_c, 0, 64, 121
1, 292171, Control_c, 0, 64, 126
1, 292186, Control_c, 0, 64, 127
1, 292262, Note_off_c, 0, 45, 33
1, 292282, Note_off_c, 0, 52, 26
1, 292670, Note_on_c, 0, 64, 24
1, 292684, Note_on_c, 0, 57, 10
1, 292734, Note_off_c, 0, 57, 49
1, 292734, Note_off_c, 0, 64, 40
1, 292878, Note_on_c, 0, 69, 34
1, 292891, Note_on_c, 0, 61, 20
1, 292928, Note_off_c, 0, 69, 45
1, 292947, Note_off_c, 0, 61, 42
1, 293006, Note_on_c, 0, 73, 49
1, 293011, Note_on_c, 0, 64, 28
1, 293041, Note_off_c, 0, 73, 64
1, 293046, Note_off_c, 0, 64, 50
1, 293132, Note_on_c, 0, 76, 54
1, 293173, Note_off_c, 0, 76, 60
1, 293245, Note_on_c, 0, 81, 57
1, 293283, Note_on_c, 0, 73, 27
1, 293339, Note_off_c, 0, 81, 47
1, 293364, Note_on_c, 0, 85, 58
1, 293377, Note_on_c, 0, 76, 45
1, 293382, Note_off_c, 0, 73, 34
1, 293400, Note_off_c, 0, 76, 60
1, 293406, Note_off_c, 0, 85, 64
1, 293597, Note_on_c, 0, 93, 65
1, 293597, Note_on_c, 0, 81, 51
1, 293657, Note_off_c, 0, 93, 60
1, 293675, Note_off_c, 0, 81, 47
1, 293794, Note_on_c, 0, 85, 48
1, 293810, Note_on_c, 0, 76, 40
1, 293827, Note_off_c, 0, 85, 54
1, 293859, Note_off_c, 0, 76, 50
1, 294008, Note_on_c, 0, 88, 46
1, 294038, Note_on_c, 0, 77, 38
1, 294039, Control_c, 0, 64, 117
1, 294046, Note_on_c, 0, 86, 47
1, 294053, Control_c, 0, 64, 103
1, 294068, Control_c, 0, 64, 89
1, 294083, Control_c, 0, 64, 74
1, 294098, Control_c, 0, 64, 60
1, 294114, Control_c, 0, 64, 0
1, 294143, Control_c, 0, 64, 49
1, 294158, Control_c, 0, 64, 67
1, 294173, Control_c, 0, 64, 74
1, 294174, Note_off_c, 0, 77, 52
1, 294188, Control_c, 0, 64, 78
1, 294191, Note_on_c, 0, 85, 49
1, 294193, Note_off_c, 0, 88, 23
1, 294198, Note_on_c, 0, 76, 47
1, 294203, Control_c, 0, 64, 81
1, 294217, Control_c, 0, 64, 85
1, 294232, Control_c, 0, 64, 88
1, 294247, Control_c, 0, 64, 92
1, 294262, Control_c, 0, 64, 95
1, 294263, Note_off_c, 0, 86, 33
1, 294277, Control_c, 0, 64, 98
1, 294284, Note_off_c, 0, 85, 56
1, 294292, Control_c, 0, 64, 100
1, 294301, Note_off_c, 0, 76, 47
1, 294306, Control_c, 0, 64, 101
1, 294318, Note_on_c, 0, 81, 59
1, 294321, Control_c, 0, 64, 103
1, 294343, Control_c, 0, 64, 104
1, 294354, Note_on_c, 0, 73, 45
1, 294358, Control_c, 0, 64, 105
1, 294373, Control_c, 0, 64, 106
1, 294381, Note_off_c, 0, 81, 57
1, 294388, Control_c, 0, 64, 106
1, 294429, Note_off_c, 0, 73, 51
1, 294450, Note_on_c, 0, 69, 47
1, 294465, Note_on_c, 0, 76, 33
1, 294511, Note_off_c, 0, 69, 52
1, 294533, Note_off_c, 0, 76, 41
1, 294586, Note_on_c, 0, 79, 48
1, 294604, Note_on_c, 0, 74, 44
1, 294610, Control_c, 0, 64, 105
1, 294611, Note_on_c, 0, 77, 38
1, 294625, Control_c, 0, 64, 101
1, 294640, Control_c, 0, 64, 93
1, 294655, Control_c, 0, 64, 80
1, 294669, Control_c, 0, 64, 67
1, 294684, Control_c, 0, 64, 0
1, 294700, Note_off_c, 0, 79, 35
1, 294716, Note_on_c, 0, 76, 55
1, 294722, Note_on_c, 0, 73, 45
1, 294724, Note_off_c, 0, 74, 37
1, 294729, Control_c, 0, 64, 64
1, 294743, Control_c, 0, 64, 71
1, 294754, Note_off_c, 0, 77, 38
1, 294759, Control_c, 0, 64, 76
1, 294774, Control_c, 0, 64, 79
1, 294788, Control_c, 0, 64, 82
1, 294798, Note_off_c, 0, 73, 62
1, 294803, Control_c, 0, 64, 85
1, 294818, Control_c, 0, 64, 88
1, 294825, Note_off_c, 0, 76, 60
1, 294833, Control_c, 0, 64, 90
1, 294843, Note_on_c, 0, 81, 62
1, 294848, Control_c, 0, 64, 92
1, 294858, Note_on_c, 0, 69, 45
1, 294862, Control_c, 0, 64, 93
1, 294877, Control_c, 0, 64, 94
1, 294892, Control_c, 0, 64, 96
1, 294907, Control_c, 0, 64, 96
1, 294912, Note_off_c, 0, 81, 59
1, 294923, Note_off_c, 0, 69, 51
1, 294923, Control_c, 0, 64, 97
1, 294938, Control_c, 0, 64, 98
1, 294965, Note_on_c, 0, 73, 56
1, 294967, Control_c, 0, 64, 98
1, 294969, Note_on_c, 0, 64, 40
1, 295005, Note_off_c, 0, 73, 61
1, 295016, Note_off_c, 0, 64, 48
1, 295105, Note_on_c, 0, 76, 52
1, 295137, Note_on_c, 0, 65, 29
1, 295138, Control_c, 0, 64, 97
1, 295144, Note_on_c, 0, 74, 41
1, 295153, Control_c, 0, 64, 94
1, 295167, Control_c, 0, 64, 88
1, 295182, Control_c, 0, 64, 76
1, 295197, Control_c, 0, 64, 63
1, 295212, Control_c, 0, 64, 0
1, 295220, Note_off_c, 0, 65, 41
1, 295231, Note_on_c, 0, 64, 46
1, 295235, Note_off_c, 0, 76, 35
1, 295249, Note_on_c, 0, 73, 52
1, 295271, Control_c, 0, 64, 33
1, 295286, Control_c, 0, 64, 60
1, 295300, Note_off_c, 0, 74, 39
1, 295300, Control_c, 0, 64, 64
1, 295315, Control_c, 0, 64, 66
1, 295330, Control_c, 0, 64, 67
1, 295342, Note_off_c, 0, 64, 61
1, 295344, Note_off_c, 0, 73, 57
1, 295345, Control_c, 0, 64, 69
1, 295360, Control_c, 0, 64, 71
1, 295374, Control_c, 0, 64, 72
1, 295380, Note_on_c, 0, 69, 47
1, 295386, Note_on_c, 0, 61, 41
1, 295389, Control_c, 0, 64, 73
1, 295418, Control_c, 0, 64, 74
1, 295424, Note_off_c, 0, 69, 65
1, 295433, Control_c, 0, 64, 74
1, 295448, Control_c, 0, 64, 75
1, 295463, Control_c, 0, 64, 75
1, 295466, Note_off_c, 0, 61, 50
1, 295514, Note_on_c, 0, 64, 47
1, 295515, Note_on_c, 0, 57, 44
1, 295558, Note_off_c, 0, 64, 62
1, 295567, Note_off_c, 0, 57, 54
1, 295597, Control_c, 0, 64, 75
1, 295611, Control_c, 0, 64, 74
1, 295626, Control_c, 0, 64, 72
1, 295641, Control_c, 0, 64, 69
1, 295648, Note_on_c, 0, 67, 50
1, 295656, Control_c, 0, 64, 61
1, 295671, Control_c, 0, 64, 0
1, 295676, Note_on_c, 0, 65, 45
1, 295686, Note_on_c, 0, 62, 33
1, 295770, Note_off_c, 0, 67, 37
1, 295779, Note_off_c, 0, 62, 51
1, 295809, Note_on_c, 0, 61, 46
1, 295812, Note_on_c, 0, 64, 47
1, 295820, Control_c, 0, 64, 51
1, 295842, Control_c, 0, 64, 63
1, 295853, Note_off_c, 0, 61, 64
1, 295857, Control_c, 0, 64, 65
1, 295871, Control_c, 0, 64, 66
1, 295872, Note_off_c, 0, 65, 34
1, 295886, Control_c, 0, 64, 67
1, 295901, Control_c, 0, 64, 68
1, 295916, Control_c, 0, 64, 70
1, 295931, Control_c, 0, 64, 71
1, 295946, Control_c, 0, 64, 72
1, 295956, Note_on_c, 0, 69, 50
1, 295961, Control_c, 0, 64, 72
1, 295970, Note_off_c, 0, 64, 38
1, 295976, Control_c, 0, 64, 73
1, 295990, Control_c, 0, 64, 73
1, 295997, Note_on_c, 0, 52, 34
1, 296020, Control_c, 0, 64, 74
1, 296032, Note_off_c, 0, 52, 41
1, 296064, Control_c, 0, 64, 74
1, 296074, Note_off_c, 0, 69, 38
1, 296120, Note_on_c, 0, 64, 47
1, 296131, Note_on_c, 0, 45, 40
1, 296163, Note_off_c, 0, 45, 48
1, 296169, Note_off_c, 0, 64, 60
1, 296291, Note_on_c, 0, 67, 37
1, 296301, Note_on_c, 0, 65, 44
1, 296313, Note_on_c, 0, 62, 39
1, 296315, Control_c, 0, 64, 74
1, 296330, Control_c, 0, 64, 73
1, 296345, Control_c, 0, 64, 70
1, 296359, Control_c, 0, 64, 65
1, 296374, Control_c, 0, 64, 42
1, 296389, Control_c, 0, 64, 0
1, 296396, Note_off_c, 0, 67, 34
1, 296431, Note_off_c, 0, 62, 48
1, 296458, Note_on_c, 0, 61, 39
1, 296459, Note_on_c, 0, 64, 48
1, 296497, Note_off_c, 0, 61, 64
1, 296506, Note_off_c, 0, 65, 36
1, 296553, Control_c, 0, 64, 29
1, 296568, Control_c, 0, 64, 58
1, 296590, Control_c, 0, 64, 63
1, 296605, Control_c, 0, 64, 64
1, 296620, Control_c, 0, 64, 65
1, 296635, Control_c, 0, 64, 66
1, 296638, Note_on_c, 0, 69, 51
1, 296649, Control_c, 0, 64, 67
1, 296664, Control_c, 0, 64, 69
1, 296669, Note_on_c, 0, 52, 43
1, 296676, Note_off_c, 0, 64, 38
1, 296679, Control_c, 0, 64, 70
1, 296694, Control_c, 0, 64, 72
1, 296698, Note_off_c, 0, 52, 63
1, 296709, Control_c, 0, 64, 73
1, 296724, Control_c, 0, 64, 74
1, 296738, Control_c, 0, 64, 75
1, 296753, Control_c, 0, 64, 76
1, 296768, Control_c, 0, 64, 76
1, 296774, Note_off_c, 0, 69, 39
1, 296783, Control_c, 0, 64, 77
1, 296812, Control_c, 0, 64, 77
1, 296836, Note_on_c, 0, 64, 48
1, 296847, Note_on_c, 0, 45, 36
1, 296857, Control_c, 0, 64, 78
1, 296884, Note_off_c, 0, 45, 52
1, 296886, Control_c, 0, 64, 78
1, 296892, Note_off_c, 0, 64, 60
1, 297077, Note_on_c, 0, 67, 47
1, 297079, Control_c, 0, 64, 78
1, 297094, Control_c, 0, 64, 76
1, 297105, Note_on_c, 0, 65, 48
1, 297109, Control_c, 0, 64, 73
1, 297123, Control_c, 0, 64, 68
1, 297127, Note_on_c, 0, 62, 29
1, 297138, Control_c, 0, 64, 58
1, 297153, Control_c, 0, 64, 0
1, 297206, Note_off_c, 0, 67, 40
1, 297451, Note_on_c, 0, 64, 42
1, 297475, Note_on_c, 0, 61, 27
1, 297511, Note_off_c, 0, 65, 33
1, 297596, Note_off_c, 0, 62, 39
1, 298017, Note_on_c, 0, 69, 48
1, 298135, Note_off_c, 0, 64, 56
1, 298548, Note_off_c, 0, 61, 33
1, 298971, Control_c, 0, 64, 32
1, 298986, Control_c, 0, 64, 52
1, 299001, Control_c, 0, 64, 58
1, 299016, Control_c, 0, 64, 63
1, 299030, Control_c, 0, 64, 64
1, 299045, Control_c, 0, 64, 66
1, 299059, Control_c, 0, 64, 67
1, 299074, Control_c, 0, 64, 67
1, 299089, Control_c, 0, 64, 68
1, 299104, Control_c, 0, 64, 69
1, 299119, Control_c, 0, 64, 71
1, 299133, Control_c, 0, 64, 73
1, 299148, Control_c, 0, 64, 75
1, 299163, Control_c, 0, 64, 77
1, 299178, Control_c, 0, 64, 78
1, 299192, Control_c, 0, 64, 80
1, 299207, Control_c, 0, 64, 82
1, 299222, Control_c, 0, 64, 84
1, 299237, Control_c, 0, 64, 86
1, 299252, Control_c, 0, 64, 88
1, 299267, Control_c, 0, 64, 90
1, 299282, Control_c, 0, 64, 92
1, 299297, Control_c, 0, 64, 94
1, 299311, Control_c, 0, 64, 96
1, 299326, Control_c, 0, 64, 98
1, 299341, Control_c, 0, 64, 99
1, 299356, Control_c, 0, 64, 101
1, 299371, Control_c, 0, 64, 103
1, 299385, Control_c, 0, 64, 105
1, 299400, Control_c, 0, 64, 106
1, 299415, Control_c, 0, 64, 107
1, 299430, Control_c, 0, 64, 108
1, 299445, Control_c, 0, 64, 109
1, 299459, Control_c, 0, 64, 110
1, 299474, Control_c, 0, 64, 110
1, 299489, Control_c, 0, 64, 111
1, 299504, Control_c, 0, 64, 111
1, 299519, Control_c, 0, 64, 112
1, 299563, Control_c, 0, 64, 112
1, 299794, Control_c, 0, 64, 113
1, 299808, Note_off_c, 0, 69, 34
1, 300407, Control_c, 0, 64, 112
1, 300440, Note_on_c, 0, 70, 35
1, 300496, Control_c, 0, 64, 112
1, 300512, Control_c, 0, 64, 111
1, 300527, Control_c, 0, 64, 109
1, 300542, Control_c, 0, 64, 106
1, 300557, Control_c, 0, 64, 103
1, 300572, Control_c, 0, 64, 100
1, 300586, Control_c, 0, 64, 96
1, 300601, Control_c, 0, 64, 92
1, 300616, Control_c, 0, 64, 88
1, 300630, Control_c, 0, 64, 81
1, 300645, Control_c, 0, 64, 76
1, 300660, Control_c, 0, 64, 70
1, 300675, Control_c, 0, 64, 63
1, 300690, Control_c, 0, 64, 46
1, 300705, Control_c, 0, 64, 20
1, 300719, Control_c, 0, 64, 24
1, 300734, Control_c, 0, 64, 31
1, 300750, Control_c, 0, 64, 32
1, 300909, Note_on_c, 0, 68, 33
1, 300980, Note_off_c, 0, 70, 38
1, 301249, Note_on_c, 0, 69, 43
1, 301338, Note_off_c, 0, 68, 35
1, 301548, Note_on_c, 0, 70, 46
1, 301557, Control_c, 0, 64, 31
1, 301619, Note_off_c, 0, 69, 37
1, 301705, Control_c, 0, 64, 30
1, 301824, Control_c, 0, 64, 29
1, 301846, Control_c, 0, 64, 28
1, 301910, Note_on_c, 0, 74, 35
1, 302011, Note_off_c, 0, 70, 33
1, 302128, Control_c, 0, 64, 27
1, 302173, Control_c, 0, 64, 26
1, 302232, Control_c, 0, 64, 25
1, 302343, Note_on_c, 0, 73, 42
1, 302362, Note_on_c, 0, 57, 20
1, 302429, Note_off_c, 0, 74, 40
1, 302734, Note_on_c, 0, 67, 37
1, 302735, Note_on_c, 0, 58, 30
1, 302799, Note_off_c, 0, 57, 27
1, 302817, Note_off_c, 0, 73, 29
1, 302846, Control_c, 0, 64, 24
1, 303005, Note_on_c, 0, 70, 48
1, 303032, Note_on_c, 0, 62, 33
1, 303036, Note_off_c, 0, 58, 38
1, 303178, Note_off_c, 0, 67, 23
1, 303277, Note_on_c, 0, 69, 47
1, 303278, Note_on_c, 0, 61, 34
1, 303342, Note_off_c, 0, 70, 37
1, 303375, Note_off_c, 0, 62, 32
1, 303551, Note_off_c, 0, 61, 38
1, 303565, Note_on_c, 0, 70, 47
1, 303571, Note_on_c, 0, 55, 29
1, 303602, Note_off_c, 0, 69, 38
1, 303759, Control_c, 0, 64, 25
1, 303851, Note_off_c, 0, 55, 40
1, 303862, Note_on_c, 0, 58, 28
1, 303869, Note_on_c, 0, 74, 38
1, 303928, Note_off_c, 0, 70, 50
1, 304211, Note_on_c, 0, 73, 43
1, 304222, Note_off_c, 0, 58, 39
1, 304231, Note_on_c, 0, 57, 25
1, 304283, Note_off_c, 0, 74, 37
1, 304388, Control_c, 0, 64, 24
1, 304525, Note_on_c, 0, 58, 29
1, 304528, Note_on_c, 0, 67, 36
1, 304581, Note_off_c, 0, 73, 32
1, 304622, Note_off_c, 0, 57, 38
1, 304760, Control_c, 0, 64, 25
1, 304850, Note_on_c, 0, 70, 42
1, 304873, Note_on_c, 0, 62, 24
1, 304943, Note_off_c, 0, 58, 38
1, 305012, Note_off_c, 0, 67, 31
1, 305220, Note_on_c, 0, 61, 35
1, 305226, Control_c, 0, 64, 26
1, 305330, Note_off_c, 0, 70, 41
1, 305331, Control_c, 0, 64, 27
1, 305375, Note_off_c, 0, 62, 43
1, 305375, Control_c, 0, 64, 28
1, 305390, Control_c, 0, 64, 29
1, 305434, Control_c, 0, 64, 30
1, 305590, Control_c, 0, 64, 31
1, 305605, Note_on_c, 0, 60, 31
1, 305613, Note_on_c, 0, 69, 37
1, 305664, Control_c, 0, 64, 32
1, 305694, Control_c, 0, 64, 33
1, 305723, Note_off_c, 0, 61, 41
1, 305738, Control_c, 0, 64, 34
1, 305753, Control_c, 0, 64, 34
1, 305783, Control_c, 0, 64, 35
1, 305827, Control_c, 0, 64, 36
1, 305835, Note_on_c, 0, 70, 51
1, 305863, Note_off_c, 0, 69, 56
1, 305887, Control_c, 0, 64, 34
1, 305901, Control_c, 0, 64, 32
1, 305916, Control_c, 0, 64, 29
1, 305931, Control_c, 0, 64, 28
1, 305975, Control_c, 0, 64, 33
1, 305990, Control_c, 0, 64, 41
1, 306005, Control_c, 0, 64, 51
1, 306011, Note_on_c, 0, 69, 54
1, 306019, Note_on_c, 0, 58, 35
1, 306019, Control_c, 0, 64, 59
1, 306022, Note_off_c, 0, 70, 52
1, 306034, Control_c, 0, 64, 64
1, 306047, Note_on_c, 0, 67, 32
1, 306049, Control_c, 0, 64, 66
1, 306064, Control_c, 0, 64, 68
1, 306079, Control_c, 0, 64, 70
1, 306095, Control_c, 0, 64, 72
1, 306110, Control_c, 0, 64, 74
1, 306124, Control_c, 0, 64, 76
1, 306139, Control_c, 0, 64, 78
1, 306146, Note_off_c, 0, 67, 32
1, 306154, Control_c, 0, 64, 80
1, 306160, Note_off_c, 0, 60, 36
1, 306165, Note_on_c, 0, 70, 57
1, 306169, Control_c, 0, 64, 81
1, 306183, Control_c, 0, 64, 82
1, 306188, Note_off_c, 0, 69, 59
1, 306198, Control_c, 0, 64, 83
1, 306213, Control_c, 0, 64, 84
1, 306228, Control_c, 0, 64, 84
1, 306257, Control_c, 0, 64, 85
1, 306398, Control_c, 0, 64, 84
1, 306408, Note_on_c, 0, 72, 57
1, 306413, Control_c, 0, 64, 80
1, 306419, Note_on_c, 0, 60, 40
1, 306428, Control_c, 0, 64, 74
1, 306443, Control_c, 0, 64, 65
1, 306457, Control_c, 0, 64, 0
1, 306486, Note_off_c, 0, 70, 53
1, 306487, Control_c, 0, 64, 34
1, 306502, Control_c, 0, 64, 65
1, 306517, Control_c, 0, 64, 72
1, 306531, Control_c, 0, 64, 79
1, 306546, Control_c, 0, 64, 85
1, 306561, Control_c, 0, 64, 89
1, 306576, Control_c, 0, 64, 94
1, 306591, Control_c, 0, 64, 98
1, 306594, Note_off_c, 0, 60, 34
1, 306606, Control_c, 0, 64, 102
1, 306617, Note_off_c, 0, 72, 59
1, 306621, Control_c, 0, 64, 105
1, 306636, Control_c, 0, 64, 107
1, 306650, Control_c, 0, 64, 108
1, 306665, Control_c, 0, 64, 109
1, 306680, Control_c, 0, 64, 110
1, 306694, Control_c, 0, 64, 111
1, 306709, Control_c, 0, 64, 112
1, 306724, Control_c, 0, 64, 113
1, 306725, Note_off_c, 0, 58, 52
1, 306738, Control_c, 0, 64, 114
1, 306753, Control_c, 0, 64, 114
1, 306757, Note_on_c, 0, 72, 57
1, 306786, Note_on_c, 0, 62, 36
1, 306791, Note_on_c, 0, 57, 37
1, 306812, Control_c, 0, 64, 115
1, 306826, Note_off_c, 0, 62, 47
1, 306907, Note_off_c, 0, 72, 56
1, 307072, Note_on_c, 0, 72, 59
1, 307086, Note_on_c, 0, 50, 36
1, 307095, Note_on_c, 0, 65, 45
1, 307138, Note_off_c, 0, 65, 50
1, 307143, Note_off_c, 0, 50, 55
1, 307178, Note_off_c, 0, 57, 33
1, 307195, Note_off_c, 0, 72, 60
1, 307443, Control_c, 0, 64, 114
1, 307458, Control_c, 0, 64, 111
1, 307466, Note_on_c, 0, 72, 63
1, 307472, Control_c, 0, 64, 104
1, 307485, Note_on_c, 0, 65, 34
1, 307488, Control_c, 0, 64, 95
1, 307495, Note_on_c, 0, 58, 48
1, 307497, Note_on_c, 0, 55, 39
1, 307503, Control_c, 0, 64, 84
1, 307517, Control_c, 0, 64, 75
1, 307532, Control_c, 0, 64, 67
1, 307547, Control_c, 0, 64, 66
1, 307562, Control_c, 0, 64, 69
1, 307577, Control_c, 0, 64, 76
1, 307591, Control_c, 0, 64, 84
1, 307596, Note_off_c, 0, 72, 58
1, 307606, Control_c, 0, 64, 90
1, 307621, Control_c, 0, 64, 95
1, 307632, Note_off_c, 0, 58, 39
1, 307636, Control_c, 0, 64, 99
1, 307651, Control_c, 0, 64, 103
1, 307665, Control_c, 0, 64, 106
1, 307680, Control_c, 0, 64, 109
1, 307696, Control_c, 0, 64, 112
1, 307711, Control_c, 0, 64, 114
1, 307726, Control_c, 0, 64, 115
1, 307740, Control_c, 0, 64, 116
1, 307755, Control_c, 0, 64, 117
1, 307762, Note_off_c, 0, 65, 41
1, 307785, Control_c, 0, 64, 117
1, 307800, Control_c, 0, 64, 118
1, 307806, Note_on_c, 0, 70, 67
1, 307809, Note_on_c, 0, 43, 42
1, 307822, Control_c, 0, 64, 118
1, 307839, Note_on_c, 0, 62, 43
1, 307870, Note_off_c, 0, 62, 52
1, 307882, Control_c, 0, 64, 119
1, 307992, Note_on_c, 0, 69, 63
1, 308001, Note_off_c, 0, 55, 37
1, 308060, Note_off_c, 0, 70, 30
1, 308090, Note_off_c, 0, 43, 39
1, 308177, Control_c, 0, 64, 118
1, 308192, Control_c, 0, 64, 117
1, 308195, Note_on_c, 0, 64, 20
1, 308203, Note_on_c, 0, 67, 62
1, 308207, Control_c, 0, 64, 114
1, 308210, Note_off_c, 0, 69, 55
1, 308215, Note_on_c, 0, 48, 53
1, 308221, Control_c, 0, 64, 108
1, 308222, Note_on_c, 0, 58, 47
1, 308236, Control_c, 0, 64, 99
1, 308251, Control_c, 0, 64, 87
1, 308266, Control_c, 0, 64, 74
1, 308281, Control_c, 0, 64, 60
1, 308296, Control_c, 0, 64, 0
1, 308326, Control_c, 0, 64, 42
1, 308340, Control_c, 0, 64, 66
1, 308355, Control_c, 0, 64, 73
1, 308370, Control_c, 0, 64, 80
1, 308385, Control_c, 0, 64, 86
1, 308388, Note_on_c, 0, 69, 57
1, 308400, Control_c, 0, 64, 90
1, 308409, Note_off_c, 0, 64, 31
1, 308414, Control_c, 0, 64, 94
1, 308429, Control_c, 0, 64, 98
1, 308444, Control_c, 0, 64, 101
1, 308459, Control_c, 0, 64, 104
1, 308461, Note_off_c, 0, 67, 37
1, 308473, Note_off_c, 0, 58, 37
1, 308474, Control_c, 0, 64, 106
1, 308490, Control_c, 0, 64, 108
1, 308505, Control_c, 0, 64, 108
1, 308519, Control_c, 0, 64, 109
1, 308534, Control_c, 0, 64, 110
1, 308549, Control_c, 0, 64, 111
1, 308570, Control_c, 0, 64, 112
1, 308585, Control_c, 0, 64, 112
1, 308660, Note_on_c, 0, 65, 52
1, 308663, Note_on_c, 0, 41, 50
1, 308674, Control_c, 0, 64, 112
1, 308682, Note_off_c, 0, 69, 36
1, 308686, Note_on_c, 0, 57, 45
1, 308704, Control_c, 0, 64, 110
1, 308719, Control_c, 0, 64, 106
1, 308734, Control_c, 0, 64, 100
1, 308749, Control_c, 0, 64, 92
1, 308755, Note_off_c, 0, 48, 41
1, 308764, Control_c, 0, 64, 79
1, 308778, Control_c, 0, 64, 66
1, 308793, Control_c, 0, 64, 0
1, 308912, Control_c, 0, 64, 60
1, 308926, Control_c, 0, 64, 68
1, 308941, Control_c, 0, 64, 73
1, 308956, Control_c, 0, 64, 77
1, 308970, Control_c, 0, 64, 81
1, 308985, Control_c, 0, 64, 85
1, 309000, Control_c, 0, 64, 88
1, 309008, Note_on_c, 0, 49, 53
1, 309015, Control_c, 0, 64, 92
1, 309030, Control_c, 0, 64, 95
1, 309044, Control_c, 0, 64, 98
1, 309059, Control_c, 0, 64, 101
1, 309068, Note_off_c, 0, 57, 33
1, 309074, Control_c, 0, 64, 105
1, 309089, Control_c, 0, 64, 107
1, 309104, Control_c, 0, 64, 110
1, 309119, Control_c, 0, 64, 112
1, 309128, Note_off_c, 0, 65, 60
1, 309134, Control_c, 0, 64, 114
1, 309148, Control_c, 0, 64, 115
1, 309158, Note_off_c, 0, 41, 42
1, 309163, Control_c, 0, 64, 117
1, 309178, Control_c, 0, 64, 119
1, 309193, Control_c, 0, 64, 121
1, 309208, Control_c, 0, 64, 122
1, 309223, Control_c, 0, 64, 123
1, 309238, Control_c, 0, 64, 124
1, 309252, Control_c, 0, 64, 126
1, 309267, Control_c, 0, 64, 127
1, 309306, Note_on_c, 0, 53, 57
1, 309354, Note_off_c, 0, 49, 27
1, 309413, Note_off_c, 0, 53, 61
1, 309527, Control_c, 0, 64, 126
1, 309542, Control_c, 0, 64, 120
1, 309557, Control_c, 0, 64, 114
1, 309572, Control_c, 0, 64, 108
1, 309574, Note_on_c, 0, 60, 57
1, 309579, Note_on_c, 0, 52, 50
1, 309587, Control_c, 0, 64, 102
1, 309601, Control_c, 0, 64, 95
1, 309616, Control_c, 0, 64, 88
1, 309631, Control_c, 0, 64, 78
1, 309646, Control_c, 0, 64, 69
1, 309661, Control_c, 0, 64, 55
1, 309675, Control_c, 0, 64, 0
1, 309835, Note_on_c, 0, 46, 45
1, 309838, Note_on_c, 0, 61, 63
1, 309849, Note_off_c, 0, 52, 49
1, 309897, Control_c, 0, 64, 42
1, 309912, Control_c, 0, 64, 67
1, 309915, Note_off_c, 0, 60, 51
1, 309926, Control_c, 0, 64, 72
1, 309941, Control_c, 0, 64, 77
1, 309956, Control_c, 0, 64, 81
1, 309971, Control_c, 0, 64, 84
1, 309986, Control_c, 0, 64, 87
1, 310001, Control_c, 0, 64, 90
1, 310016, Control_c, 0, 64, 93
1, 310031, Control_c, 0, 64, 96
1, 310046, Control_c, 0, 64, 99
1, 310061, Control_c, 0, 64, 102
1, 310080, Note_on_c, 0, 49, 51
1, 310082, Control_c, 0, 64, 104
1, 310084, Note_on_c, 0, 65, 56
1, 310093, Note_off_c, 0, 61, 61
1, 310098, Control_c, 0, 64, 106
1, 310113, Control_c, 0, 64, 108
1, 310120, Note_off_c, 0, 65, 66
1, 310125, Note_off_c, 0, 46, 40
1, 310128, Control_c, 0, 64, 109
1, 310142, Control_c, 0, 64, 109
1, 310157, Control_c, 0, 64, 110
1, 310172, Control_c, 0, 64, 110
1, 310187, Control_c, 0, 64, 111
1, 310202, Control_c, 0, 64, 111
1, 310350, Control_c, 0, 64, 107
1, 310360, Note_on_c, 0, 48, 52
1, 310363, Note_on_c, 0, 72, 60
1, 310365, Control_c, 0, 64, 97
1, 310368, Note_off_c, 0, 49, 33
1, 310374, Note_on_c, 0, 64, 54
1, 310380, Control_c, 0, 64, 82
1, 310394, Control_c, 0, 64, 62
1, 310409, Control_c, 0, 64, 0
1, 310469, Control_c, 0, 64, 63
1, 310476, Note_off_c, 0, 48, 64
1, 310484, Control_c, 0, 64, 71
1, 310498, Control_c, 0, 64, 78
1, 310513, Control_c, 0, 64, 84
1, 310528, Control_c, 0, 64, 89
1, 310542, Control_c, 0, 64, 93
1, 310557, Control_c, 0, 64, 96
1, 310572, Control_c, 0, 64, 100
1, 310576, Note_off_c, 0, 64, 37
1, 310587, Control_c, 0, 64, 103
1, 310602, Control_c, 0, 64, 106
1, 310616, Control_c, 0, 64, 108
1, 310631, Control_c, 0, 64, 109
1, 310640, Note_on_c, 0, 73, 70
1, 310646, Control_c, 0, 64, 111
1, 310648, Note_on_c, 0, 58, 58
1, 310661, Control_c, 0, 64, 112
1, 310676, Control_c, 0, 64, 114
1, 310690, Control_c, 0, 64, 115
1, 310705, Control_c, 0, 64, 116
1, 310720, Control_c, 0, 64, 117
1, 310764, Control_c, 0, 64, 117
1, 310874, Note_off_c, 0, 58, 37
1, 310886, Note_on_c, 0, 61, 54
1, 310899, Note_on_c, 0, 77, 77
1, 310956, Note_off_c, 0, 61, 54
1, 310961, Note_off_c, 0, 73, 55
1, 310991, Note_off_c, 0, 72, 32
1, 311128, Control_c, 0, 64, 117
1, 311143, Control_c, 0, 64, 116
1, 311158, Control_c, 0, 64, 112
1, 311172, Control_c, 0, 64, 107
1, 311187, Control_c, 0, 64, 101
1, 311202, Control_c, 0, 64, 94
1, 311206, Note_on_c, 0, 60, 31
1, 311206, Note_on_c, 0, 76, 61
1, 311217, Control_c, 0, 64, 86
1, 311232, Control_c, 0, 64, 78
1, 311247, Control_c, 0, 64, 68
1, 311262, Control_c, 0, 64, 31
1, 311277, Control_c, 0, 64, 0
1, 311277, Note_off_c, 0, 77, 53
1, 311484, Note_on_c, 0, 70, 51
1, 311488, Note_on_c, 0, 61, 39
1, 311557, Note_off_c, 0, 76, 54
1, 311586, Note_off_c, 0, 60, 38
1, 311786, Note_on_c, 0, 73, 49
1, 311805, Note_on_c, 0, 65, 33
1, 311831, Note_off_c, 0, 61, 32
1, 311953, Note_off_c, 0, 70, 34
1, 312092, Note_on_c, 0, 64, 43
1, 312122, Note_off_c, 0, 73, 33
1, 312183, Note_off_c, 0, 65, 43
1, 312409, Note_on_c, 0, 72, 56
1, 312412, Note_on_c, 0, 63, 34
1, 312475, Note_off_c, 0, 64, 57
1, 312602, Note_on_c, 0, 73, 60
1, 312632, Note_off_c, 0, 72, 58
1, 312752, Note_on_c, 0, 72, 65
1, 312766, Note_on_c, 0, 61, 41
1, 312766, Note_on_c, 0, 70, 45
1, 312788, Note_off_c, 0, 73, 57
1, 312817, Note_off_c, 0, 63, 41
1, 312833, Control_c, 0, 64, 60
1, 312848, Control_c, 0, 64, 67
1, 312863, Control_c, 0, 64, 70
1, 312878, Control_c, 0, 64, 73
1, 312892, Control_c, 0, 64, 76
1, 312895, Note_off_c, 0, 70, 41
1, 312904, Note_on_c, 0, 73, 70
1, 312907, Control_c, 0, 64, 79
1, 312922, Control_c, 0, 64, 82
1, 312937, Control_c, 0, 64, 83
1, 312939, Note_off_c, 0, 72, 61
1, 312952, Control_c, 0, 64, 85
1, 312967, Control_c, 0, 64, 86
1, 312982, Control_c, 0, 64, 87
1, 312997, Control_c, 0, 64, 88
1, 313011, Control_c, 0, 64, 89
1, 313026, Control_c, 0, 64, 89
1, 313107, Control_c, 0, 64, 89
1, 313122, Control_c, 0, 64, 84
1, 313124, Note_on_c, 0, 75, 72
1, 313137, Control_c, 0, 64, 75
1, 313141, Note_on_c, 0, 63, 51
1, 313152, Control_c, 0, 64, 61
1, 313167, Control_c, 0, 64, 0
1, 313179, Note_off_c, 0, 73, 56
1, 313196, Control_c, 0, 64, 40
1, 313211, Control_c, 0, 64, 68
1, 313226, Control_c, 0, 64, 76
1, 313241, Control_c, 0, 64, 84
1, 313256, Control_c, 0, 64, 88
1, 313270, Control_c, 0, 64, 93
1, 313277, Note_off_c, 0, 63, 40
1, 313286, Control_c, 0, 64, 97
1, 313301, Control_c, 0, 64, 102
1, 313316, Control_c, 0, 64, 107
1, 313326, Note_off_c, 0, 75, 59
1, 313331, Control_c, 0, 64, 110
1, 313346, Control_c, 0, 64, 113
1, 313360, Control_c, 0, 64, 116
1, 313375, Control_c, 0, 64, 118
1, 313390, Control_c, 0, 64, 119
1, 313405, Control_c, 0, 64, 120
1, 313420, Control_c, 0, 64, 121
1, 313435, Note_off_c, 0, 61, 56
1, 313449, Control_c, 0, 64, 122
1, 313462, Note_on_c, 0, 75, 71
1, 313479, Control_c, 0, 64, 123
1, 313483, Note_on_c, 0, 65, 52
1, 313494, Control_c, 0, 64, 123
1, 313496, Note_on_c, 0, 60, 48
1, 313508, Control_c, 0, 64, 124
1, 313513, Note_off_c, 0, 65, 56
1, 313624, Note_off_c, 0, 75, 58
1, 313775, Note_on_c, 0, 75, 70
1, 313780, Note_on_c, 0, 53, 45
1, 313787, Note_on_c, 0, 68, 59
1, 313843, Note_off_c, 0, 68, 54
1, 313856, Note_off_c, 0, 53, 59
1, 313882, Note_off_c, 0, 60, 36
1, 313886, Control_c, 0, 64, 124
1, 313922, Note_off_c, 0, 75, 57
1, 314064, Control_c, 0, 64, 125
1, 314183, Control_c, 0, 64, 124
1, 314198, Control_c, 0, 64, 121
1, 314213, Control_c, 0, 64, 111
1, 314216, Note_on_c, 0, 75, 69
1, 314228, Control_c, 0, 64, 94
1, 314229, Note_on_c, 0, 68, 56
1, 314238, Note_on_c, 0, 58, 41
1, 314242, Control_c, 0, 64, 79
1, 314255, Note_on_c, 0, 61, 25
1, 314256, Control_c, 0, 64, 65
1, 314271, Control_c, 0, 64, 0
1, 314293, Note_off_c, 0, 61, 47
1, 314301, Control_c, 0, 64, 65
1, 314315, Control_c, 0, 64, 76
1, 314330, Control_c, 0, 64, 84
1, 314345, Control_c, 0, 64, 89
1, 314360, Note_off_c, 0, 75, 62
1, 314360, Control_c, 0, 64, 93
1, 314375, Control_c, 0, 64, 97
1, 314389, Control_c, 0, 64, 101
1, 314404, Control_c, 0, 64, 106
1, 314419, Control_c, 0, 64, 110
1, 314434, Control_c, 0, 64, 112
1, 314449, Control_c, 0, 64, 114
1, 314463, Control_c, 0, 64, 116
1, 314478, Control_c, 0, 64, 118
1, 314493, Control_c, 0, 64, 121
1, 314508, Control_c, 0, 64, 122
1, 314523, Control_c, 0, 64, 123
1, 314538, Control_c, 0, 64, 124
1, 314544, Note_on_c, 0, 73, 68
1, 314553, Control_c, 0, 64, 124
1, 314566, Note_off_c, 0, 68, 36
1, 314568, Note_on_c, 0, 46, 50
1, 314575, Control_c, 0, 64, 125
1, 314589, Control_c, 0, 64, 126
1, 314593, Note_on_c, 0, 65, 24
1, 314631, Note_off_c, 0, 65, 42
1, 314708, Control_c, 0, 64, 126
1, 314718, Note_off_c, 0, 58, 41
1, 314729, Note_on_c, 0, 72, 63
1, 314813, Note_off_c, 0, 73, 36
1, 314818, Note_off_c, 0, 46, 33
1, 314887, Control_c, 0, 64, 123
1, 314895, Note_on_c, 0, 67, 48
1, 314902, Control_c, 0, 64, 109
1, 314916, Note_on_c, 0, 70, 64
1, 314916, Control_c, 0, 64, 94
1, 314921, Note_on_c, 0, 51, 50
1, 314926, Note_on_c, 0, 61, 52
1, 314931, Control_c, 0, 64, 76
1, 314943, Note_off_c, 0, 72, 61
1, 314946, Control_c, 0, 64, 51
1, 314961, Control_c, 0, 64, 0
1, 315005, Control_c, 0, 64, 66
1, 315020, Control_c, 0, 64, 76
1, 315035, Control_c, 0, 64, 84
1, 315050, Control_c, 0, 64, 89
1, 315065, Control_c, 0, 64, 92
1, 315079, Control_c, 0, 64, 96
1, 315091, Note_on_c, 0, 72, 70
1, 315094, Control_c, 0, 64, 100
1, 315109, Control_c, 0, 64, 104
1, 315124, Control_c, 0, 64, 108
1, 315138, Control_c, 0, 64, 110
1, 315141, Note_off_c, 0, 70, 60
1, 315153, Control_c, 0, 64, 113
1, 315157, Note_off_c, 0, 61, 49
1, 315168, Control_c, 0, 64, 115
1, 315177, Note_off_c, 0, 67, 40
1, 315183, Control_c, 0, 64, 118
1, 315198, Control_c, 0, 64, 119
1, 315212, Control_c, 0, 64, 120
1, 315227, Control_c, 0, 64, 121
1, 315242, Control_c, 0, 64, 122
1, 315257, Control_c, 0, 64, 123
1, 315346, Note_on_c, 0, 68, 64
1, 315353, Note_on_c, 0, 44, 44
1, 315353, Control_c, 0, 64, 122
1, 315365, Note_on_c, 0, 60, 43
1, 315368, Control_c, 0, 64, 121
1, 315383, Control_c, 0, 64, 115
1, 315398, Control_c, 0, 64, 107
1, 315412, Control_c, 0, 64, 98
1, 315427, Control_c, 0, 64, 86
1, 315437, Note_off_c, 0, 51, 41
1, 315442, Control_c, 0, 64, 72
1, 315457, Control_c, 0, 64, 29
1, 315472, Control_c, 0, 64, 0
1, 315575, Control_c, 0, 64, 32
1, 315590, Control_c, 0, 64, 66
1, 315605, Control_c, 0, 64, 72
1, 315620, Control_c, 0, 64, 76
1, 315635, Control_c, 0, 64, 81
1, 315650, Control_c, 0, 64, 85
1, 315664, Control_c, 0, 64, 91
1, 315665, Note_on_c, 0, 52, 61
1, 315680, Control_c, 0, 64, 95
1, 315695, Control_c, 0, 64, 99
1, 315709, Control_c, 0, 64, 102
1, 315724, Control_c, 0, 64, 105
1, 315739, Control_c, 0, 64, 109
1, 315750, Note_off_c, 0, 60, 57
1, 315754, Control_c, 0, 64, 112
1, 315769, Control_c, 0, 64, 115
1, 315784, Control_c, 0, 64, 119
1, 315798, Note_off_c, 0, 68, 55
1, 315799, Control_c, 0, 64, 122
1, 315805, Note_off_c, 0, 72, 24
1, 315810, Note_off_c, 0, 44, 41
1, 315814, Control_c, 0, 64, 125
1, 315828, Control_c, 0, 64, 127
1, 315939, Note_on_c, 0, 56, 66
1, 316012, Note_off_c, 0, 52, 46
1, 316085, Note_off_c, 0, 56, 53
1, 316201, Note_on_c, 0, 63, 67
1, 316207, Note_on_c, 0, 55, 48
1, 316235, Control_c, 0, 64, 120
1, 316250, Control_c, 0, 64, 107
1, 316265, Control_c, 0, 64, 96
1, 316279, Control_c, 0, 64, 83
1, 316294, Control_c, 0, 64, 69
1, 316309, Control_c, 0, 64, 0
1, 316457, Note_on_c, 0, 49, 51
1, 316474, Note_on_c, 0, 64, 71
1, 316525, Note_off_c, 0, 63, 59
1, 316532, Control_c, 0, 64, 63
1, 316536, Note_off_c, 0, 55, 37
1, 316547, Control_c, 0, 64, 69
1, 316562, Control_c, 0, 64, 74
1, 316577, Control_c, 0, 64, 80
1, 316592, Control_c, 0, 64, 84
1, 316607, Control_c, 0, 64, 87
1, 316622, Control_c, 0, 64, 90
1, 316636, Control_c, 0, 64, 93
1, 316651, Control_c, 0, 64, 96
1, 316666, Control_c, 0, 64, 99
1, 316681, Control_c, 0, 64, 101
1, 316696, Control_c, 0, 64, 103
1, 316702, Note_on_c, 0, 68, 78
1, 316704, Note_on_c, 0, 52, 54
1, 316710, Control_c, 0, 64, 106
1, 316718, Note_off_c, 0, 64, 62
1, 316723, Note_off_c, 0, 49, 44
1, 316725, Control_c, 0, 64, 108
1, 316740, Control_c, 0, 64, 109
1, 316746, Note_off_c, 0, 68, 65
1, 316755, Control_c, 0, 64, 110
1, 316770, Control_c, 0, 64, 111
1, 316784, Control_c, 0, 64, 111
1, 316851, Control_c, 0, 64, 112
1, 316955, Control_c, 0, 64, 111
1, 316970, Control_c, 0, 64, 106
1, 316974, Note_on_c, 0, 75, 73
1, 316982, Note_on_c, 0, 51, 55
1, 316984, Control_c, 0, 64, 91
1, 316985, Note_off_c, 0, 52, 57
1, 316988, Note_on_c, 0, 67, 62
1, 316999, Control_c, 0, 64, 68
1, 317014, Control_c, 0, 64, 0
1, 317026, Note_off_c, 0, 67, 60
1, 317073, Control_c, 0, 64, 65
1, 317088, Control_c, 0, 64, 75
1, 317102, Control_c, 0, 64, 85
1, 317117, Control_c, 0, 64, 90
1, 317132, Control_c, 0, 64, 94
1, 317147, Control_c, 0, 64, 96
1, 317162, Control_c, 0, 64, 101
1, 317176, Control_c, 0, 64, 105
1, 317177, Note_off_c, 0, 51, 61
1, 317191, Control_c, 0, 64, 110
1, 317206, Control_c, 0, 64, 113
1, 317220, Note_on_c, 0, 76, 78
1, 317221, Control_c, 0, 64, 116
1, 317234, Note_on_c, 0, 68, 63
1, 317236, Control_c, 0, 64, 118
1, 317251, Control_c, 0, 64, 120
1, 317256, Note_off_c, 0, 75, 62
1, 317264, Note_off_c, 0, 68, 64
1, 317265, Control_c, 0, 64, 121
1, 317281, Control_c, 0, 64, 122
1, 317296, Control_c, 0, 64, 124
1, 317311, Control_c, 0, 64, 124
1, 317325, Control_c, 0, 64, 125
1, 317400, Control_c, 0, 64, 125
1, 317459, Control_c, 0, 64, 125
1, 317463, Note_on_c, 0, 80, 81
1, 317471, Note_on_c, 0, 62, 55
1, 317474, Control_c, 0, 64, 122
1, 317486, Note_off_c, 0, 76, 55
1, 317487, Note_on_c, 0, 71, 63
1, 317489, Control_c, 0, 64, 109
1, 317504, Control_c, 0, 64, 91
1, 317519, Control_c, 0, 64, 71
1, 317521, Note_off_c, 0, 71, 59
1, 317533, Control_c, 0, 64, 0
1, 317585, Control_c, 0, 64, 43
1, 317600, Control_c, 0, 64, 68
1, 317614, Control_c, 0, 64, 77
1, 317629, Control_c, 0, 64, 83
1, 317644, Control_c, 0, 64, 86
1, 317659, Control_c, 0, 64, 89
1, 317674, Control_c, 0, 64, 92
1, 317689, Control_c, 0, 64, 95
1, 317704, Control_c, 0, 64, 98
1, 317719, Control_c, 0, 64, 101
1, 317733, Control_c, 0, 64, 104
1, 317748, Control_c, 0, 64, 105
1, 317763, Control_c, 0, 64, 105
1, 317822, Note_on_c, 0, 79, 76
1, 317835, Note_on_c, 0, 63, 49
1, 317852, Note_off_c, 0, 62, 50
1, 317856, Note_on_c, 0, 70, 43
1, 317881, Control_c, 0, 64, 105
1, 317896, Control_c, 0, 64, 104
1, 317897, Note_off_c, 0, 70, 45
1, 317911, Control_c, 0, 64, 101
1, 317925, Control_c, 0, 64, 96
1, 317940, Control_c, 0, 64, 89
1, 317955, Control_c, 0, 64, 79
1, 317970, Control_c, 0, 64, 69
1, 317985, Control_c, 0, 64, 48
1, 317995, Note_off_c, 0, 80, 32
1, 317999, Control_c, 0, 64, 0
1, 318058, Control_c, 0, 64, 38
1, 318075, Control_c, 0, 64, 63
1, 318090, Control_c, 0, 64, 68
1, 318104, Control_c, 0, 64, 71
1, 318112, Note_on_c, 0, 64, 54
1, 318118, Note_on_c, 0, 73, 67
1, 318119, Control_c, 0, 64, 74
1, 318130, Note_off_c, 0, 79, 50
1, 318134, Control_c, 0, 64, 76
1, 318146, Note_on_c, 0, 69, 38
1, 318149, Control_c, 0, 64, 79
1, 318163, Control_c, 0, 64, 82
1, 318174, Note_off_c, 0, 63, 36
1, 318174, Note_off_c, 0, 69, 55
1, 318178, Control_c, 0, 64, 84
1, 318193, Control_c, 0, 64, 85
1, 318208, Control_c, 0, 64, 86
1, 318222, Control_c, 0, 64, 87
1, 318237, Control_c, 0, 64, 87
1, 318252, Control_c, 0, 64, 88
1, 318282, Control_c, 0, 64, 88
1, 318363, Note_on_c, 0, 76, 69
1, 318363, Control_c, 0, 64, 88
1, 318371, Note_on_c, 0, 68, 64
1, 318378, Control_c, 0, 64, 87
1, 318393, Control_c, 0, 64, 84
1, 318408, Control_c, 0, 64, 78
1, 318423, Control_c, 0, 64, 71
1, 318425, Note_off_c, 0, 64, 37
1, 318437, Control_c, 0, 64, 55
1, 318449, Note_off_c, 0, 73, 35
1, 318452, Control_c, 0, 64, 0
1, 318652, Note_on_c, 0, 67, 67
1, 318699, Note_off_c, 0, 68, 61
1, 318759, Note_off_c, 0, 76, 53
1, 318936, Note_on_c, 0, 75, 73
1, 318938, Note_on_c, 0, 66, 60
1, 319068, Note_off_c, 0, 67, 40
1, 319083, Control_c, 0, 64, 61
1, 319098, Control_c, 0, 64, 71
1, 319103, Note_on_c, 0, 76, 70
1, 319112, Control_c, 0, 64, 77
1, 319127, Control_c, 0, 64, 82
1, 319138, Note_off_c, 0, 75, 62
1, 319142, Control_c, 0, 64, 85
1, 319157, Control_c, 0, 64, 89
1, 319172, Control_c, 0, 64, 94
1, 319186, Control_c, 0, 64, 98
1, 319201, Control_c, 0, 64, 102
1, 319216, Control_c, 0, 64, 103
1, 319246, Control_c, 0, 64, 102
1, 319251, Note_on_c, 0, 75, 80
1, 319254, Note_on_c, 0, 64, 62
1, 319260, Control_c, 0, 64, 95
1, 319262, Note_on_c, 0, 73, 64
1, 319275, Control_c, 0, 64, 83
1, 319277, Note_off_c, 0, 66, 59
1, 319280, Note_off_c, 0, 76, 62
1, 319290, Control_c, 0, 64, 73
1, 319304, Control_c, 0, 64, 70
1, 319319, Control_c, 0, 64, 73
1, 319334, Control_c, 0, 64, 79
1, 319337, Note_off_c, 0, 73, 51
1, 319349, Control_c, 0, 64, 87
1, 319364, Control_c, 0, 64, 93
1, 319379, Control_c, 0, 64, 98
1, 319390, Note_on_c, 0, 76, 81
1, 319394, Control_c, 0, 64, 102
1, 319409, Control_c, 0, 64, 106
1, 319424, Control_c, 0, 64, 111
1, 319425, Note_off_c, 0, 75, 63
1, 319438, Control_c, 0, 64, 116
1, 319453, Control_c, 0, 64, 119
1, 319468, Control_c, 0, 64, 120
1, 319483, Control_c, 0, 64, 121
1, 319542, Control_c, 0, 64, 120
1, 319557, Control_c, 0, 64, 107
1, 319567, Note_on_c, 0, 78, 86
1, 319571, Control_c, 0, 64, 89
1, 319573, Note_on_c, 0, 63, 61
1, 319581, Note_on_c, 0, 66, 66
1, 319586, Control_c, 0, 64, 66
1, 319592, Note_off_c, 0, 76, 64
1, 319601, Note_off_c, 0, 64, 59
1, 319601, Control_c, 0, 64, 0
1, 319646, Control_c, 0, 64, 56
1, 319660, Control_c, 0, 64, 72
1, 319676, Control_c, 0, 64, 85
1, 319691, Control_c, 0, 64, 94
1, 319697, Note_off_c, 0, 66, 56
1, 319706, Control_c, 0, 64, 99
1, 319720, Control_c, 0, 64, 105
1, 319735, Control_c, 0, 64, 112
1, 319740, Note_off_c, 0, 63, 63
1, 319749, Note_off_c, 0, 78, 60
1, 319750, Control_c, 0, 64, 118
1, 319765, Control_c, 0, 64, 125
1, 319780, Control_c, 0, 64, 127
1, 319918, Note_on_c, 0, 78, 90
1, 319924, Note_on_c, 0, 66, 56
1, 319924, Note_on_c, 0, 71, 69
1, 319935, Control_c, 0, 64, 101
1, 319936, Note_on_c, 0, 62, 57
1, 319950, Control_c, 0, 64, 82
1, 319965, Control_c, 0, 64, 53
1, 319980, Control_c, 0, 64, 0
1, 320009, Control_c, 0, 64, 49
1, 320024, Control_c, 0, 64, 71
1, 320039, Control_c, 0, 64, 82
1, 320053, Control_c, 0, 64, 91
1, 320068, Control_c, 0, 64, 97
1, 320073, Note_off_c, 0, 62, 60
1, 320083, Control_c, 0, 64, 102
1, 320085, Note_off_c, 0, 66, 60
1, 320098, Control_c, 0, 64, 108
1, 320113, Control_c, 0, 64, 116
1, 320127, Control_c, 0, 64, 124
1, 320131, Note_off_c, 0, 78, 55
1, 320142, Control_c, 0, 64, 127
1, 320309, Note_on_c, 0, 78, 88
1, 320316, Note_on_c, 0, 70, 77
1, 320323, Note_on_c, 0, 64, 55
1, 320324, Note_on_c, 0, 61, 55
1, 320336, Control_c, 0, 64, 109
1, 320351, Control_c, 0, 64, 87
1, 320354, Note_off_c, 0, 71, 58
1, 320366, Control_c, 0, 64, 69
1, 320380, Control_c, 0, 64, 0
1, 320440, Control_c, 0, 64, 62
1, 320454, Control_c, 0, 64, 73
1, 320470, Control_c, 0, 64, 81
1, 320485, Control_c, 0, 64, 89
1, 320500, Control_c, 0, 64, 94
1, 320515, Control_c, 0, 64, 99
1, 320530, Control_c, 0, 64, 104
1, 320551, Control_c, 0, 64, 110
1, 320562, Note_off_c, 0, 64, 58
1, 320566, Control_c, 0, 64, 115
1, 320570, Note_off_c, 0, 70, 59
1, 320581, Control_c, 0, 64, 121
1, 320588, Note_off_c, 0, 78, 59
1, 320596, Control_c, 0, 64, 127
1, 320597, Note_off_c, 0, 61, 59
1, 320854, Note_on_c, 0, 78, 86
1, 320870, Note_on_c, 0, 60, 49
1, 320874, Note_on_c, 0, 69, 57
1, 320875, Note_on_c, 0, 63, 46
1, 320878, Control_c, 0, 64, 115
1, 320893, Control_c, 0, 64, 101
1, 320908, Control_c, 0, 64, 87
1, 320923, Control_c, 0, 64, 68
1, 320938, Control_c, 0, 64, 0
1, 320996, Control_c, 0, 64, 43
1, 321011, Control_c, 0, 64, 67
1, 321025, Control_c, 0, 64, 75
1, 321040, Control_c, 0, 64, 82
1, 321055, Control_c, 0, 64, 88
1, 321070, Control_c, 0, 64, 93
1, 321083, Note_off_c, 0, 60, 52
1, 321084, Control_c, 0, 64, 98
1, 321099, Control_c, 0, 64, 104
1, 321114, Control_c, 0, 64, 110
1, 321129, Control_c, 0, 64, 115
1, 321134, Note_off_c, 0, 63, 63
1, 321144, Control_c, 0, 64, 119
1, 321158, Note_off_c, 0, 78, 62
1, 321158, Control_c, 0, 64, 126
1, 321173, Control_c, 0, 64, 127
1, 321382, Note_on_c, 0, 77, 72
1, 321396, Note_on_c, 0, 53, 46
1, 321478, Control_c, 0, 64, 121
1, 321493, Control_c, 0, 64, 106
1, 321507, Control_c, 0, 64, 90
1, 321522, Control_c, 0, 64, 74
1, 321527, Note_off_c, 0, 69, 54
1, 321537, Control_c, 0, 64, 48
1, 321552, Control_c, 0, 64, 0
1, 321641, Note_on_c, 0, 72, 65
1, 321641, Control_c, 0, 64, 29
1, 321656, Control_c, 0, 64, 65
1, 321671, Control_c, 0, 64, 71
1, 321686, Control_c, 0, 64, 75
1, 321700, Control_c, 0, 64, 79
1, 321715, Control_c, 0, 64, 83
1, 321730, Control_c, 0, 64, 88
1, 321745, Control_c, 0, 64, 92
1, 321760, Control_c, 0, 64, 96
1, 321774, Control_c, 0, 64, 99
1, 321789, Control_c, 0, 64, 102
1, 321804, Control_c, 0, 64, 105
1, 321819, Control_c, 0, 64, 109
1, 321834, Control_c, 0, 64, 114
1, 321848, Control_c, 0, 64, 117
1, 321852, Note_on_c, 0, 75, 69
1, 321862, Note_on_c, 0, 65, 40
1, 321863, Control_c, 0, 64, 120
1, 321878, Control_c, 0, 64, 122
1, 321892, Control_c, 0, 64, 124
1, 321907, Control_c, 0, 64, 127
1, 321912, Note_off_c, 0, 65, 47
1, 321923, Note_off_c, 0, 77, 40
1, 321930, Note_off_c, 0, 72, 61
1, 321975, Note_off_c, 0, 53, 36
1, 322052, Note_on_c, 0, 73, 67
1, 322149, Note_off_c, 0, 75, 48
1, 322257, Control_c, 0, 64, 112
1, 322271, Control_c, 0, 64, 96
1, 322272, Note_on_c, 0, 70, 58
1, 322273, Note_on_c, 0, 46, 46
1, 322286, Control_c, 0, 64, 80
1, 322301, Control_c, 0, 64, 63
1, 322309, Note_off_c, 0, 73, 52
1, 322316, Control_c, 0, 64, 0
1, 322375, Control_c, 0, 64, 53
1, 322390, Control_c, 0, 64, 68
1, 322404, Control_c, 0, 64, 75
1, 322419, Note_off_c, 0, 46, 51
1, 322419, Control_c, 0, 64, 81
1, 322434, Control_c, 0, 64, 87
1, 322449, Control_c, 0, 64, 91
1, 322464, Control_c, 0, 64, 96
1, 322479, Control_c, 0, 64, 100
1, 322494, Control_c, 0, 64, 105
1, 322509, Control_c, 0, 64, 108
1, 322523, Control_c, 0, 64, 111
1, 322538, Control_c, 0, 64, 113
1, 322553, Control_c, 0, 64, 116
1, 322568, Control_c, 0, 64, 118
1, 322583, Control_c, 0, 64, 120
1, 322597, Control_c, 0, 64, 122
1, 322612, Control_c, 0, 64, 124
1, 322627, Control_c, 0, 64, 126
1, 322641, Control_c, 0, 64, 127
1, 322670, Note_on_c, 0, 61, 39
1, 322686, Note_on_c, 0, 53, 28
1, 322713, Note_off_c, 0, 70, 34
1, 322765, Note_off_c, 0, 53, 56
1, 322768, Note_off_c, 0, 61, 58
1, 323078, Note_on_c, 0, 44, 34
1, 323094, Control_c, 0, 64, 119
1, 323109, Control_c, 0, 64, 109
1, 323124, Control_c, 0, 64, 93
1, 323139, Control_c, 0, 64, 77
1, 323153, Control_c, 0, 64, 54
1, 323168, Control_c, 0, 64, 0
1, 323213, Control_c, 0, 64, 64
1, 323227, Control_c, 0, 64, 73
1, 323242, Control_c, 0, 64, 80
1, 323257, Control_c, 0, 64, 86
1, 323268, Note_off_c, 0, 44, 36
1, 323272, Control_c, 0, 64, 89
1, 323287, Control_c, 0, 64, 93
1, 323302, Control_c, 0, 64, 96
1, 323317, Control_c, 0, 64, 101
1, 323332, Control_c, 0, 64, 104
1, 323346, Control_c, 0, 64, 106
1, 323361, Control_c, 0, 64, 107
1, 323376, Control_c, 0, 64, 108
1, 323391, Control_c, 0, 64, 109
1, 323406, Control_c, 0, 64, 110
1, 323420, Control_c, 0, 64, 111
1, 323435, Control_c, 0, 64, 112
1, 323546, Control_c, 0, 64, 111
1, 323553, Note_on_c, 0, 42, 40
1, 323561, Control_c, 0, 64, 107
1, 323576, Control_c, 0, 64, 97
1, 323591, Control_c, 0, 64, 83
1, 323606, Control_c, 0, 64, 64
1, 323620, Control_c, 0, 64, 0
1, 323695, Control_c, 0, 64, 62
1, 323710, Control_c, 0, 64, 72
1, 323725, Control_c, 0, 64, 80
1, 323740, Control_c, 0, 64, 86
1, 323755, Control_c, 0, 64, 91
1, 323758, Note_off_c, 0, 42, 40
1, 323769, Control_c, 0, 64, 96
1, 323784, Control_c, 0, 64, 101
1, 323799, Control_c, 0, 64, 108
1, 323814, Control_c, 0, 64, 112
1, 323829, Control_c, 0, 64, 116
1, 323843, Control_c, 0, 64, 121
1, 323858, Control_c, 0, 64, 127
1, 323873, Control_c, 0, 64, 127
1, 324119, Note_on_c, 0, 73, 48
1, 324127, Note_on_c, 0, 49, 29
1, 324158, Poly_aftertouch_c, 0, 58, 127
1, 324174, Note_on_c, 0, 54, 15
1, 324235, Note_off_c, 0, 54, 41
1, 324254, Note_off_c, 0, 49, 35
1, 324265, Poly_aftertouch_c, 0, 58, 0
1, 324268, Note_off_c, 0, 73, 51
1, 324379, Note_on_c, 0, 75, 56
1, 324501, Note_off_c, 0, 75, 54
1, 324566, Note_on_c, 0, 73, 63
1, 324572, Note_on_c, 0, 61, 36
1, 324592, Note_on_c, 0, 58, 14
1, 324592, Note_on_c, 0, 54, 23
1, 324633, Note_off_c, 0, 61, 57
1, 324636, Note_off_c, 0, 58, 50
1, 324644, Note_off_c, 0, 54, 45
1, 324679, Note_off_c, 0, 73, 58
1, 324750, Note_on_c, 0, 75, 68
1, 324941, Note_off_c, 0, 75, 52
1, 324963, Control_c, 0, 64, 116
1, 324978, Control_c, 0, 64, 103
1, 324990, Note_on_c, 0, 77, 70
1, 324992, Control_c, 0, 64, 88
1, 325007, Note_on_c, 0, 37, 37
1, 325007, Control_c, 0, 64, 71
1, 325022, Control_c, 0, 64, 0
1, 325089, Control_c, 0, 64, 58
1, 325104, Control_c, 0, 64, 69
1, 325119, Control_c, 0, 64, 77
1, 325133, Control_c, 0, 64, 85
1, 325138, Note_off_c, 0, 37, 53
1, 325148, Control_c, 0, 64, 91
1, 325163, Control_c, 0, 64, 96
1, 325178, Control_c, 0, 64, 101
1, 325192, Control_c, 0, 64, 106
1, 325207, Control_c, 0, 64, 111
1, 325221, Note_off_c, 0, 77, 35
1, 325222, Control_c, 0, 64, 115
1, 325237, Control_c, 0, 64, 119
1, 325251, Control_c, 0, 64, 122
1, 325267, Control_c, 0, 64, 127
1, 325282, Control_c, 0, 64, 127
1, 325455, Note_on_c, 0, 77, 64
1, 325464, Note_on_c, 0, 61, 38
1, 325484, Note_on_c, 0, 53, 31
1, 325573, Note_off_c, 0, 53, 51
1, 325626, Note_off_c, 0, 61, 36
1, 325627, Note_off_c, 0, 77, 48
1, 325943, Note_on_c, 0, 56, 30
1, 325947, Note_on_c, 0, 61, 22
1, 325950, Note_on_c, 0, 77, 60
1, 325962, Note_on_c, 0, 65, 31
1, 326041, Note_off_c, 0, 65, 53
1, 326087, Note_off_c, 0, 56, 37
1, 326087, Note_off_c, 0, 61, 36
1, 326150, Note_off_c, 0, 77, 50
1, 326599, Note_on_c, 0, 39, 25
1, 326601, Control_c, 0, 64, 124
1, 326614, Note_on_c, 0, 77, 51
1, 326616, Control_c, 0, 64, 115
1, 326631, Control_c, 0, 64, 106
1, 326645, Control_c, 0, 64, 94
1, 326660, Control_c, 0, 64, 81
1, 326675, Control_c, 0, 64, 63
1, 326690, Control_c, 0, 64, 0
1, 326749, Control_c, 0, 64, 34
1, 326764, Control_c, 0, 64, 67
1, 326778, Control_c, 0, 64, 74
1, 326793, Control_c, 0, 64, 81
1, 326808, Control_c, 0, 64, 87
1, 326822, Control_c, 0, 64, 91
1, 326837, Note_off_c, 0, 39, 40
1, 326837, Control_c, 0, 64, 96
1, 326852, Control_c, 0, 64, 99
1, 326868, Control_c, 0, 64, 104
1, 326883, Control_c, 0, 64, 107
1, 326898, Control_c, 0, 64, 110
1, 326912, Control_c, 0, 64, 114
1, 326927, Control_c, 0, 64, 117
1, 326942, Control_c, 0, 64, 119
1, 326957, Control_c, 0, 64, 121
1, 326964, Note_off_c, 0, 77, 37
1, 326972, Control_c, 0, 64, 122
1, 326986, Control_c, 0, 64, 124
1, 327001, Control_c, 0, 64, 125
1, 327016, Control_c, 0, 64, 125
1, 327031, Control_c, 0, 64, 126
1, 327061, Control_c, 0, 64, 126
1, 327090, Control_c, 0, 64, 127
1, 327150, Control_c, 0, 64, 127
1, 327214, Note_on_c, 0, 75, 40
1, 327248, Note_on_c, 0, 60, 21
1, 327254, Note_on_c, 0, 51, 25
1, 327255, Note_on_c, 0, 58, 15
1, 327342, Note_off_c, 0, 51, 49
1, 327378, Note_off_c, 0, 60, 39
1, 327380, Note_off_c, 0, 58, 39
1, 327487, Note_on_c, 0, 70, 40
1, 327616, Note_off_c, 0, 75, 17
1, 327678, Note_on_c, 0, 73, 47
1, 327690, Note_on_c, 0, 58, 33
1, 327706, Note_off_c, 0, 70, 35
1, 327707, Note_on_c, 0, 66, 22
1, 327743, Note_off_c, 0, 66, 51
1, 327751, Note_off_c, 0, 58, 56
1, 327866, Note_on_c, 0, 72, 45
1, 327959, Note_off_c, 0, 73, 28
1, 328038, Control_c, 0, 64, 126
1, 328045, Note_off_c, 0, 72, 51
1, 328053, Control_c, 0, 64, 122
1, 328068, Control_c, 0, 64, 113
1, 328083, Control_c, 0, 64, 101
1, 328093, Note_on_c, 0, 41, 35
1, 328096, Note_on_c, 0, 69, 46
1, 328098, Control_c, 0, 64, 87
1, 328113, Control_c, 0, 64, 70
1, 328128, Control_c, 0, 64, 0
1, 328187, Control_c, 0, 64, 62
1, 328202, Control_c, 0, 64, 71
1, 328216, Control_c, 0, 64, 79
1, 328231, Control_c, 0, 64, 87
1, 328246, Control_c, 0, 64, 93
1, 328258, Note_off_c, 0, 41, 45
1, 328260, Control_c, 0, 64, 98
1, 328275, Control_c, 0, 64, 103
1, 328280, Note_off_c, 0, 69, 41
1, 328290, Control_c, 0, 64, 108
1, 328305, Control_c, 0, 64, 112
1, 328320, Control_c, 0, 64, 117
1, 328334, Control_c, 0, 64, 121
1, 328349, Control_c, 0, 64, 124
1, 328364, Control_c, 0, 64, 127
1, 328571, Note_on_c, 0, 72, 54
1, 328593, Note_on_c, 0, 69, 34
1, 328596, Note_on_c, 0, 65, 31
1, 328599, Note_on_c, 0, 60, 22
1, 328663, Note_off_c, 0, 69, 59
1, 328679, Note_off_c, 0, 65, 57
1, 328701, Note_off_c, 0, 60, 36
1, 328921, Note_on_c, 0, 77, 73
1, 328933, Note_on_c, 0, 57, 35
1, 328955, Note_on_c, 0, 60, 23
1, 328957, Note_on_c, 0, 65, 37
1, 328992, Note_off_c, 0, 57, 53
1, 329011, Note_off_c, 0, 60, 55
1, 329040, Note_off_c, 0, 72, 47
1, 329099, Note_off_c, 0, 77, 53
1, 329216, Control_c, 0, 64, 125
1, 329231, Control_c, 0, 64, 108
1, 329243, Note_on_c, 0, 76, 71
1, 329246, Control_c, 0, 64, 91
1, 329257, Note_on_c, 0, 53, 39
1, 329262, Control_c, 0, 64, 75
1, 329277, Control_c, 0, 64, 42
1, 329292, Control_c, 0, 64, 0
1, 329323, Note_off_c, 0, 65, 24
1, 329336, Control_c, 0, 64, 52
1, 329351, Control_c, 0, 64, 70
1, 329366, Control_c, 0, 64, 77
1, 329380, Control_c, 0, 64, 83
1, 329395, Note_off_c, 0, 53, 40
1, 329395, Control_c, 0, 64, 87
1, 329410, Control_c, 0, 64, 91
1, 329425, Control_c, 0, 64, 95
1, 329439, Control_c, 0, 64, 99
1, 329454, Control_c, 0, 64, 103
1, 329469, Control_c, 0, 64, 106
1, 329484, Control_c, 0, 64, 107
1, 329499, Control_c, 0, 64, 109
1, 329514, Control_c, 0, 64, 110
1, 329529, Control_c, 0, 64, 111
1, 329551, Control_c, 0, 64, 113
1, 329566, Control_c, 0, 64, 114
1, 329581, Control_c, 0, 64, 114
1, 329582, Note_on_c, 0, 70, 60
1, 329595, Control_c, 0, 64, 115
1, 329610, Control_c, 0, 64, 115
1, 329613, Note_on_c, 0, 61, 35
1, 329616, Note_on_c, 0, 64, 30
1, 329625, Control_c, 0, 64, 116
1, 329636, Note_on_c, 0, 67, 5
1, 329654, Control_c, 0, 64, 116
1, 329690, Note_off_c, 0, 61, 50
1, 329692, Note_off_c, 0, 76, 36
1, 329694, Note_off_c, 0, 67, 49
1, 329699, Control_c, 0, 64, 117
1, 329745, Note_off_c, 0, 64, 35
1, 329746, Note_off_c, 0, 70, 52
1, 329957, Note_on_c, 0, 73, 56
1, 329962, Note_on_c, 0, 64, 32
1, 329967, Note_on_c, 0, 58, 36
1, 330018, Note_off_c, 0, 64, 60
1, 330042, Note_off_c, 0, 58, 57
1, 330063, Poly_aftertouch_c, 0, 61, 0
1, 330330, Control_c, 0, 64, 116
1, 330344, Control_c, 0, 64, 114
1, 330359, Control_c, 0, 64, 107
1, 330363, Note_on_c, 0, 41, 40
1, 330374, Control_c, 0, 64, 97
1, 330389, Control_c, 0, 64, 84
1, 330404, Control_c, 0, 64, 67
1, 330418, Control_c, 0, 64, 0
1, 330477, Control_c, 0, 64, 63
1, 330492, Control_c, 0, 64, 71
1, 330507, Control_c, 0, 64, 78
1, 330522, Control_c, 0, 64, 83
1, 330526, Note_off_c, 0, 73, 59
1, 330536, Control_c, 0, 64, 87
1, 330537, Note_off_c, 0, 41, 39
1, 330551, Control_c, 0, 64, 92
1, 330566, Control_c, 0, 64, 95
1, 330581, Control_c, 0, 64, 99
1, 330596, Control_c, 0, 64, 102
1, 330611, Control_c, 0, 64, 104
1, 330626, Control_c, 0, 64, 105
1, 330641, Control_c, 0, 64, 106
1, 330656, Control_c, 0, 64, 107
1, 330670, Control_c, 0, 64, 108
1, 330685, Control_c, 0, 64, 109
1, 330715, Control_c, 0, 64, 109
1, 330745, Control_c, 0, 64, 110
1, 330804, Control_c, 0, 64, 110
1, 330904, Note_on_c, 0, 72, 44
1, 330923, Note_on_c, 0, 60, 28
1, 330924, Note_on_c, 0, 69, 33
1, 330940, Note_on_c, 0, 65, 26
1, 330998, Note_off_c, 0, 69, 57
1, 331004, Note_off_c, 0, 60, 52
1, 331024, Note_off_c, 0, 65, 39
1, 331359, Note_on_c, 0, 57, 26
1, 331369, Note_on_c, 0, 65, 25
1, 331372, Note_on_c, 0, 77, 66
1, 331416, Poly_aftertouch_c, 0, 60, 127
1, 331452, Poly_aftertouch_c, 0, 60, 0
1, 331463, Note_off_c, 0, 57, 38
1, 331613, Note_off_c, 0, 72, 28
1, 331701, Control_c, 0, 64, 110
1, 331716, Control_c, 0, 64, 107
1, 331730, Note_on_c, 0, 53, 35
1, 331731, Control_c, 0, 64, 99
1, 331746, Control_c, 0, 64, 89
1, 331761, Control_c, 0, 64, 76
1, 331782, Control_c, 0, 64, 61
1, 331797, Control_c, 0, 64, 0
1, 331842, Control_c, 0, 64, 63
1, 331854, Note_off_c, 0, 65, 28
1, 331857, Control_c, 0, 64, 70
1, 331872, Control_c, 0, 64, 76
1, 331887, Control_c, 0, 64, 81
1, 331902, Control_c, 0, 64, 84
1, 331916, Control_c, 0, 64, 87
1, 331931, Control_c, 0, 64, 90
1, 331935, Note_off_c, 0, 53, 44
1, 331946, Control_c, 0, 64, 93
1, 331961, Control_c, 0, 64, 97
1, 331976, Control_c, 0, 64, 99
1, 331980, Note_on_c, 0, 76, 55
1, 331990, Control_c, 0, 64, 101
1, 332005, Control_c, 0, 64, 102
1, 332020, Control_c, 0, 64, 103
1, 332032, Note_off_c, 0, 77, 55
1, 332034, Control_c, 0, 64, 104
1, 332049, Control_c, 0, 64, 105
1, 332064, Control_c, 0, 64, 106
1, 332079, Control_c, 0, 64, 106
1, 332123, Control_c, 0, 64, 107
1, 332153, Control_c, 0, 64, 107
1, 332169, Note_on_c, 0, 70, 53
1, 332192, Note_on_c, 0, 64, 32
1, 332197, Control_c, 0, 64, 108
1, 332200, Note_on_c, 0, 61, 34
1, 332207, Note_on_c, 0, 67, 21
1, 332271, Control_c, 0, 64, 108
1, 332274, Note_off_c, 0, 67, 41
1, 332295, Note_off_c, 0, 76, 52
1, 332325, Note_on_c, 0, 72, 52
1, 332330, Note_off_c, 0, 61, 36
1, 332351, Note_off_c, 0, 64, 41
1, 332411, Note_off_c, 0, 70, 37
1, 332560, Note_on_c, 0, 75, 49
1, 332586, Note_on_c, 0, 61, 25
1, 332588, Note_on_c, 0, 58, 30
1, 332596, Note_on_c, 0, 64, 35
1, 332682, Note_off_c, 0, 64, 55
1, 332687, Note_off_c, 0, 72, 51
1, 332698, Note_off_c, 0, 61, 38
1, 332742, Note_off_c, 0, 58, 37
1, 332799, Note_on_c, 0, 73, 45
1, 332860, Note_off_c, 0, 75, 35
1, 332927, Note_off_c, 0, 73, 33
1, 333020, Control_c, 0, 64, 108
1, 333035, Control_c, 0, 64, 102
1, 333038, Note_on_c, 0, 41, 42
1, 333049, Control_c, 0, 64, 92
1, 333064, Control_c, 0, 64, 79
1, 333079, Control_c, 0, 64, 63
1, 333094, Control_c, 0, 64, 0
1, 333139, Control_c, 0, 64, 57
1, 333154, Control_c, 0, 64, 69
1, 333169, Control_c, 0, 64, 77
1, 333183, Control_c, 0, 64, 84
1, 333186, Note_off_c, 0, 41, 53
1, 333198, Control_c, 0, 64, 90
1, 333213, Control_c, 0, 64, 95
1, 333228, Control_c, 0, 64, 101
1, 333243, Control_c, 0, 64, 106
1, 333258, Control_c, 0, 64, 111
1, 333273, Control_c, 0, 64, 116
1, 333295, Control_c, 0, 64, 120
1, 333310, Control_c, 0, 64, 124
1, 333325, Control_c, 0, 64, 126
1, 333340, Control_c, 0, 64, 127
1, 333514, Note_on_c, 0, 72, 46
1, 333516, Note_on_c, 0, 60, 34
1, 333537, Note_on_c, 0, 63, 17
1, 333537, Note_on_c, 0, 66, 27
1, 333611, Note_off_c, 0, 72, 58
1, 333644, Note_off_c, 0, 60, 49
1, 333657, Note_off_c, 0, 63, 39
1, 333660, Note_off_c, 0, 66, 39
1, 333725, Note_on_c, 0, 73, 56
1, 333787, Note_off_c, 0, 73, 54
1, 333899, Note_on_c, 0, 72, 57
1, 333908, Note_on_c, 0, 54, 33
1, 333920, Note_on_c, 0, 63, 24
1, 333923, Note_on_c, 0, 58, 25
1, 333977, Note_off_c, 0, 72, 58
1, 333998, Note_off_c, 0, 58, 40
1, 334000, Note_off_c, 0, 54, 50
1, 334068, Note_on_c, 0, 73, 64
1, 334078, Note_off_c, 0, 63, 42
1, 334140, Note_off_c, 0, 73, 59
1, 334208, Control_c, 0, 64, 126
1, 334223, Control_c, 0, 64, 117
1, 334237, Control_c, 0, 64, 102
1, 334252, Control_c, 0, 64, 87
1, 334267, Control_c, 0, 64, 71
1, 334272, Note_on_c, 0, 53, 40
1, 334276, Note_on_c, 0, 75, 53
1, 334282, Control_c, 0, 64, 0
1, 334326, Control_c, 0, 64, 18
1, 334341, Control_c, 0, 64, 66
1, 334356, Control_c, 0, 64, 75
1, 334371, Control_c, 0, 64, 84
1, 334385, Control_c, 0, 64, 90
1, 334397, Note_off_c, 0, 53, 52
1, 334400, Control_c, 0, 64, 94
1, 334415, Control_c, 0, 64, 99
1, 334429, Control_c, 0, 64, 104
1, 334437, Note_off_c, 0, 75, 59
1, 334444, Control_c, 0, 64, 108
1, 334459, Control_c, 0, 64, 112
1, 334474, Control_c, 0, 64, 114
1, 334489, Control_c, 0, 64, 116
1, 334504, Control_c, 0, 64, 118
1, 334519, Control_c, 0, 64, 121
1, 334534, Control_c, 0, 64, 124
1, 334549, Control_c, 0, 64, 126
1, 334564, Control_c, 0, 64, 127
1, 334578, Control_c, 0, 64, 127
1, 334663, Note_on_c, 0, 75, 60
1, 334673, Note_on_c, 0, 70, 35
1, 334685, Note_on_c, 0, 66, 35
1, 334689, Note_on_c, 0, 63, 36
1, 334784, Note_off_c, 0, 66, 50
1, 334796, Note_off_c, 0, 70, 48
1, 334811, Note_off_c, 0, 63, 38
1, 334813, Note_off_c, 0, 75, 54
1, 335086, Note_on_c, 0, 75, 58
1, 335100, Note_on_c, 0, 66, 37
1, 335109, Note_on_c, 0, 60, 36
1, 335117, Note_on_c, 0, 63, 28
1, 335182, Note_off_c, 0, 60, 51
1, 335199, Note_off_c, 0, 66, 60
1, 335219, Note_off_c, 0, 63, 46
1, 335289, Note_off_c, 0, 75, 54
1, 335616, Control_c, 0, 64, 125
1, 335625, Note_on_c, 0, 41, 32
1, 335631, Control_c, 0, 64, 119
1, 335646, Control_c, 0, 64, 112
1, 335661, Note_on_c, 0, 75, 50
1, 335661, Control_c, 0, 64, 99
1, 335675, Control_c, 0, 64, 86
1, 335690, Control_c, 0, 64, 71
1, 335705, Control_c, 0, 64, 21
1, 335720, Control_c, 0, 64, 0
1, 335765, Control_c, 0, 64, 64
1, 335780, Control_c, 0, 64, 71
1, 335795, Control_c, 0, 64, 77
1, 335810, Control_c, 0, 64, 82
1, 335824, Control_c, 0, 64, 86
1, 335833, Note_off_c, 0, 41, 46
1, 335839, Control_c, 0, 64, 90
1, 335854, Control_c, 0, 64, 95
1, 335869, Control_c, 0, 64, 99
1, 335883, Control_c, 0, 64, 102
1, 335898, Control_c, 0, 64, 104
1, 335902, Note_off_c, 0, 75, 54
1, 335913, Control_c, 0, 64, 106
1, 335928, Control_c, 0, 64, 107
1, 335943, Control_c, 0, 64, 108
1, 335956, Control_c, 0, 64, 109
1, 335971, Control_c, 0, 64, 110
1, 335986, Control_c, 0, 64, 111
1, 336000, Control_c, 0, 64, 112
1, 336015, Control_c, 0, 64, 112
1, 336045, Control_c, 0, 64, 113
1, 336075, Control_c, 0, 64, 113
1, 336223, Control_c, 0, 64, 114
1, 336290, Note_on_c, 0, 69, 35
1, 336300, Note_on_c, 0, 77, 52
1, 336314, Note_on_c, 0, 63, 14
1, 336325, Note_on_c, 0, 65, 28
1, 336447, Note_off_c, 0, 69, 35
1, 336456, Note_off_c, 0, 65, 38
1, 336457, Note_off_c, 0, 63, 40
1, 336600, Note_off_c, 0, 77, 34
1, 336600, Note_on_c, 0, 72, 51
1, 336746, Note_off_c, 0, 72, 57
1, 336811, Note_on_c, 0, 57, 25
1, 336813, Note_on_c, 0, 63, 35
1, 336817, Note_on_c, 0, 75, 52
1, 336824, Note_on_c, 0, 65, 27
1, 336879, Note_off_c, 0, 65, 46
1, 336880, Note_off_c, 0, 63, 56
1, 336881, Note_off_c, 0, 57, 54
1, 336997, Note_on_c, 0, 73, 52
1, 337110, Note_off_c, 0, 75, 33
1, 337173, Control_c, 0, 64, 113
1, 337217, Control_c, 0, 64, 112
1, 337232, Control_c, 0, 64, 107
1, 337246, Note_on_c, 0, 70, 48
1, 337247, Control_c, 0, 64, 99
1, 337253, Note_on_c, 0, 46, 36
1, 337262, Control_c, 0, 64, 87
1, 337277, Control_c, 0, 64, 72
1, 337280, Note_off_c, 0, 73, 30
1, 337292, Control_c, 0, 64, 0
1, 337351, Control_c, 0, 64, 58
1, 337366, Control_c, 0, 64, 68
1, 337381, Control_c, 0, 64, 74
1, 337395, Control_c, 0, 64, 80
1, 337410, Control_c, 0, 64, 84
1, 337411, Note_off_c, 0, 46, 45
1, 337425, Control_c, 0, 64, 88
1, 337440, Control_c, 0, 64, 92
1, 337455, Control_c, 0, 64, 95
1, 337470, Control_c, 0, 64, 99
1, 337485, Control_c, 0, 64, 103
1, 337500, Control_c, 0, 64, 105
1, 337515, Control_c, 0, 64, 107
1, 337529, Control_c, 0, 64, 109
1, 337544, Control_c, 0, 64, 110
1, 337559, Control_c, 0, 64, 111
1, 337574, Control_c, 0, 64, 112
1, 337589, Control_c, 0, 64, 113
1, 337603, Control_c, 0, 64, 113
1, 337618, Control_c, 0, 64, 114
1, 337633, Control_c, 0, 64, 114
1, 337662, Control_c, 0, 64, 115
1, 337677, Control_c, 0, 64, 115
1, 337702, Note_on_c, 0, 65, 28
1, 337708, Note_on_c, 0, 61, 30
1, 337720, Note_on_c, 0, 58, 11
1, 337783, Note_off_c, 0, 61, 49
1, 337791, Note_off_c, 0, 58, 43
1, 337819, Note_off_c, 0, 65, 35
1, 338053, Note_on_c, 0, 58, 34
1, 338060, Note_on_c, 0, 61, 37
1, 338067, Note_on_c, 0, 53, 27
1, 338132, Note_off_c, 0, 61, 55
1, 338138, Note_off_c, 0, 53, 39
1, 338146, Note_off_c, 0, 58, 59
1, 338411, Control_c, 0, 64, 114
1, 338426, Control_c, 0, 64, 111
1, 338437, Note_on_c, 0, 67, 41
1, 338441, Control_c, 0, 64, 104
1, 338443, Note_on_c, 0, 48, 36
1, 338456, Control_c, 0, 64, 93
1, 338470, Control_c, 0, 64, 80
1, 338485, Control_c, 0, 64, 65
1, 338488, Note_off_c, 0, 70, 23
1, 338500, Control_c, 0, 64, 0
1, 338582, Control_c, 0, 64, 64
1, 338596, Control_c, 0, 64, 71
1, 338607, Note_off_c, 0, 48, 50
1, 338611, Control_c, 0, 64, 78
1, 338626, Control_c, 0, 64, 84
1, 338641, Control_c, 0, 64, 89
1, 338656, Control_c, 0, 64, 94
1, 338670, Control_c, 0, 64, 98
1, 338685, Control_c, 0, 64, 102
1, 338700, Control_c, 0, 64, 105
1, 338715, Control_c, 0, 64, 108
1, 338730, Control_c, 0, 64, 111
1, 338745, Control_c, 0, 64, 113
1, 338759, Control_c, 0, 64, 115
1, 338774, Control_c, 0, 64, 116
1, 338789, Control_c, 0, 64, 117
1, 338803, Control_c, 0, 64, 119
1, 338818, Control_c, 0, 64, 120
1, 338833, Control_c, 0, 64, 120
1, 338849, Control_c, 0, 64, 121
1, 338879, Control_c, 0, 64, 121
1, 338893, Note_on_c, 0, 60, 29
1, 338894, Control_c, 0, 64, 122
1, 338898, Note_on_c, 0, 64, 26
1, 338910, Note_on_c, 0, 58, 6
1, 338951, Control_c, 0, 64, 122
1, 338964, Note_off_c, 0, 58, 46
1, 338979, Note_off_c, 0, 60, 53
1, 338999, Note_off_c, 0, 64, 52
1, 339283, Note_on_c, 0, 60, 37
1, 339284, Note_on_c, 0, 52, 31
1, 339289, Note_on_c, 0, 58, 33
1, 339357, Note_off_c, 0, 52, 54
1, 339360, Note_off_c, 0, 58, 58
1, 339363, Note_off_c, 0, 60, 53
1, 339642, Note_off_c, 0, 67, 34
1, 339682, Note_on_c, 0, 41, 45
1, 339685, Control_c, 0, 64, 121
1, 339700, Control_c, 0, 64, 113
1, 339715, Control_c, 0, 64, 100
1, 339730, Control_c, 0, 64, 84
1, 339744, Control_c, 0, 64, 66
1, 339759, Control_c, 0, 64, 0
1, 339804, Control_c, 0, 64, 43
1, 339819, Control_c, 0, 64, 68
1, 339834, Control_c, 0, 64, 77
1, 339848, Control_c, 0, 64, 86
1, 339863, Control_c, 0, 64, 94
1, 339878, Control_c, 0, 64, 100
1, 339893, Control_c, 0, 64, 106
1, 339908, Control_c, 0, 64, 113
1, 339922, Control_c, 0, 64, 120
1, 339937, Control_c, 0, 64, 127
1, 339943, Note_on_c, 0, 48, 41
1, 340007, Note_off_c, 0, 41, 45
1, 340184, Note_off_c, 0, 48, 42
1, 340189, Note_on_c, 0, 56, 40
1, 340231, Note_on_c, 0, 72, 58
1, 340239, Note_off_c, 0, 56, 58
1, 340397, Note_on_c, 0, 53, 42
1, 340504, Note_off_c, 0, 53, 36
1, 340619, Note_on_c, 0, 60, 35
1, 340635, Note_on_c, 0, 77, 72
1, 340757, Note_off_c, 0, 60, 0
1, 340792, Note_on_c, 0, 68, 50
1, 340795, Note_off_c, 0, 72, 57
1, 340801, Poly_aftertouch_c, 0, 60, 127
1, 340813, Note_off_c, 0, 68, 60
1, 340846, Poly_aftertouch_c, 0, 60, 0
1, 340999, Note_on_c, 0, 41, 51
1, 341020, Control_c, 0, 64, 101
1, 341035, Control_c, 0, 64, 81
1, 341050, Control_c, 0, 64, 61
1, 341065, Control_c, 0, 64, 0
1, 341094, Control_c, 0, 64, 39
1, 341109, Control_c, 0, 64, 70
1, 341124, Control_c, 0, 64, 82
1, 341126, Note_on_c, 0, 76, 55
1, 341139, Control_c, 0, 64, 92
1, 341153, Control_c, 0, 64, 98
1, 341157, Note_off_c, 0, 77, 52
1, 341168, Control_c, 0, 64, 105
1, 341183, Control_c, 0, 64, 113
1, 341196, Note_on_c, 0, 49, 46
1, 341197, Control_c, 0, 64, 126
1, 341212, Control_c, 0, 64, 127
1, 341225, Note_off_c, 0, 76, 61
1, 341236, Note_on_c, 0, 69, 61
1, 341267, Note_off_c, 0, 41, 36
1, 341282, Note_off_c, 0, 49, 57
1, 341309, Note_off_c, 0, 69, 64
1, 341325, Note_on_c, 0, 70, 66
1, 341339, Note_on_c, 0, 55, 30
1, 341396, Note_off_c, 0, 55, 43
1, 341398, Note_off_c, 0, 70, 61
1, 341417, Note_on_c, 0, 71, 62
1, 341450, Note_on_c, 0, 52, 30
1, 341500, Note_off_c, 0, 71, 57
1, 341503, Note_off_c, 0, 52, 43
1, 341506, Note_on_c, 0, 72, 62
1, 341579, Note_on_c, 0, 58, 43
1, 341625, Note_on_c, 0, 75, 58
1, 341628, Note_off_c, 0, 72, 63
1, 341697, Note_on_c, 0, 67, 5
1, 341703, Note_off_c, 0, 58, 61
1, 341745, Note_off_c, 0, 67, 36
1, 341759, Note_on_c, 0, 73, 57
1, 341807, Note_off_c, 0, 75, 35
1, 341862, Note_on_c, 0, 41, 65
1, 341862, Note_off_c, 0, 73, 61
1, 341873, Control_c, 0, 64, 105
1, 341888, Control_c, 0, 64, 80
1, 341902, Control_c, 0, 64, 52
1, 341917, Control_c, 0, 64, 0
1, 341945, Control_c, 0, 64, 59
1, 341960, Control_c, 0, 64, 75
1, 341975, Control_c, 0, 64, 91
1, 341982, Note_on_c, 0, 72, 63
1, 341990, Control_c, 0, 64, 106
1, 342005, Control_c, 0, 64, 116
1, 342014, Note_on_c, 0, 48, 47
1, 342016, Note_off_c, 0, 41, 60
1, 342019, Control_c, 0, 64, 127
1, 342090, Note_off_c, 0, 48, 63
1, 342097, Note_on_c, 0, 73, 73
1, 342102, Note_off_c, 0, 72, 64
1, 342112, Note_on_c, 0, 56, 46
1, 342138, Note_off_c, 0, 56, 59
1, 342183, Note_off_c, 0, 73, 61
1, 342187, Note_on_c, 0, 71, 68
1, 342281, Note_on_c, 0, 72, 78
1, 342286, Note_off_c, 0, 71, 62
1, 342321, Note_off_c, 0, 72, 62
1, 342453, Note_on_c, 0, 80, 78
1, 342487, Note_on_c, 0, 60, 42
1, 342562, Note_off_c, 0, 60, 53
1, 342586, Note_on_c, 0, 79, 78
1, 342627, Note_on_c, 0, 68, 55
1, 342630, Note_off_c, 0, 80, 58
1, 342648, Note_off_c, 0, 68, 59
1, 342684, Note_on_c, 0, 77, 82
1, 342712, Note_off_c, 0, 79, 61
1, 342748, Note_off_c, 0, 77, 61
1, 342850, Note_on_c, 0, 41, 55
1, 342862, Note_on_c, 0, 77, 74
1, 342888, Control_c, 0, 64, 104
1, 342903, Control_c, 0, 64, 83
1, 342918, Control_c, 0, 64, 63
1, 342932, Control_c, 0, 64, 0
1, 342962, Control_c, 0, 64, 50
1, 342977, Control_c, 0, 64, 74
1, 342991, Control_c, 0, 64, 90
1, 343014, Control_c, 0, 64, 109
1, 343029, Control_c, 0, 64, 127
1, 343032, Note_on_c, 0, 76, 65
1, 343046, Note_on_c, 0, 49, 46
1, 343062, Note_off_c, 0, 77, 58
1, 343086, Note_off_c, 0, 76, 65
1, 343092, Note_off_c, 0, 41, 37
1, 343113, Note_off_c, 0, 49, 59
1, 343136, Note_on_c, 0, 69, 70
1, 343164, Note_on_c, 0, 55, 45
1, 343203, Note_off_c, 0, 69, 62
1, 343223, Note_on_c, 0, 70, 68
1, 343225, Note_off_c, 0, 55, 56
1, 343266, Note_on_c, 0, 52, 44
1, 343293, Note_off_c, 0, 70, 62
1, 343301, Note_on_c, 0, 71, 67
1, 343305, Note_off_c, 0, 52, 53
1, 343364, Note_on_c, 0, 58, 45
1, 343390, Note_on_c, 0, 72, 67
1, 343399, Note_off_c, 0, 71, 55
1, 343471, Note_on_c, 0, 75, 69
1, 343471, Note_off_c, 0, 72, 64
1, 343483, Note_off_c, 0, 58, 64
1, 343560, Note_on_c, 0, 73, 65
1, 343605, Note_off_c, 0, 75, 56
1, 343636, Note_on_c, 0, 41, 72
1, 343652, Control_c, 0, 64, 119
1, 343667, Control_c, 0, 64, 91
1, 343682, Control_c, 0, 64, 69
1, 343688, Note_off_c, 0, 73, 58
1, 343697, Control_c, 0, 64, 0
1, 343727, Control_c, 0, 64, 47
1, 343742, Control_c, 0, 64, 74
1, 343757, Control_c, 0, 64, 89
1, 343778, Note_on_c, 0, 48, 61
1, 343778, Control_c, 0, 64, 107
1, 343793, Control_c, 0, 64, 118
1, 343798, Note_off_c, 0, 41, 62
1, 343808, Control_c, 0, 64, 127
1, 343888, Note_on_c, 0, 72, 67
1, 343895, Note_on_c, 0, 56, 52
1, 343929, Note_off_c, 0, 56, 64
1, 343981, Note_off_c, 0, 48, 35
1, 343986, Note_on_c, 0, 73, 74
1, 343990, Note_off_c, 0, 72, 63
1, 344039, Note_on_c, 0, 40, 63
1, 344075, Control_c, 0, 64, 107
1, 344084, Note_on_c, 0, 72, 79
1, 344089, Control_c, 0, 64, 76
1, 344104, Control_c, 0, 64, 0
1, 344120, Note_off_c, 0, 73, 62
1, 344149, Control_c, 0, 64, 72
1, 344163, Control_c, 0, 64, 90
1, 344168, Note_off_c, 0, 40, 62
1, 344173, Note_off_c, 0, 72, 63
1, 344174, Note_on_c, 0, 71, 78
1, 344175, Note_on_c, 0, 48, 58
1, 344178, Control_c, 0, 64, 124
1, 344193, Control_c, 0, 64, 127
1, 344262, Note_on_c, 0, 72, 82
1, 344279, Note_off_c, 0, 71, 59
1, 344303, Note_on_c, 0, 56, 51
1, 344329, Note_off_c, 0, 56, 62
1, 344347, Note_on_c, 0, 73, 83
1, 344357, Note_off_c, 0, 72, 63
1, 344386, Note_off_c, 0, 48, 35
1, 344414, Note_off_c, 0, 73, 64
1, 344463, Note_on_c, 0, 74, 81
1, 344484, Note_on_c, 0, 39, 63
1, 344527, Control_c, 0, 64, 109
1, 344542, Control_c, 0, 64, 81
1, 344557, Control_c, 0, 64, 0
1, 344588, Note_on_c, 0, 75, 79
1, 344601, Control_c, 0, 64, 62
1, 344610, Note_off_c, 0, 74, 60
1, 344616, Control_c, 0, 64, 80
1, 344631, Control_c, 0, 64, 100
1, 344641, Note_off_c, 0, 75, 65
1, 344645, Control_c, 0, 64, 127
1, 344646, Note_on_c, 0, 48, 54
1, 344702, Note_off_c, 0, 39, 60
1, 344716, Note_on_c, 0, 84, 83
1, 344847, Note_off_c, 0, 48, 64
1, 344872, Note_on_c, 0, 79, 89
1, 344874, Note_on_c, 0, 56, 52
1, 344881, Note_off_c, 0, 84, 61
1, 344915, Note_off_c, 0, 56, 55
1, 344969, Note_off_c, 0, 79, 62
1, 344972, Note_on_c, 0, 82, 83
1, 345035, Note_on_c, 0, 51, 54
1, 345064, Note_on_c, 0, 80, 82
1, 345098, Note_off_c, 0, 82, 62
1, 345116, Note_off_c, 0, 80, 63
1, 345118, Note_off_c, 0, 51, 59
1, 345162, Note_on_c, 0, 60, 49
1, 345182, Note_on_c, 0, 72, 77
1, 345253, Note_off_c, 0, 72, 65
1, 345255, Note_on_c, 0, 73, 79
1, 345314, Note_on_c, 0, 68, 32
1, 345318, Note_off_c, 0, 60, 43
1, 345346, Note_off_c, 0, 68, 53
1, 345350, Note_off_c, 0, 73, 53
1, 345352, Note_on_c, 0, 74, 75
1, 345424, Note_on_c, 0, 75, 77
1, 345425, Note_off_c, 0, 74, 64
1, 345515, Note_on_c, 0, 39, 53
1, 345527, Note_on_c, 0, 76, 81
1, 345542, Control_c, 0, 64, 119
1, 345554, Note_off_c, 0, 75, 60
1, 345557, Control_c, 0, 64, 90
1, 345572, Control_c, 0, 64, 67
1, 345587, Control_c, 0, 64, 0
1, 345617, Control_c, 0, 64, 59
1, 345632, Control_c, 0, 64, 78
1, 345647, Control_c, 0, 64, 97
1, 345651, Note_on_c, 0, 79, 74
1, 345661, Control_c, 0, 64, 126
1, 345662, Note_off_c, 0, 76, 65
1, 345676, Control_c, 0, 64, 127
1, 345691, Note_on_c, 0, 49, 63
1, 345725, Note_off_c, 0, 39, 60
1, 345739, Note_on_c, 0, 77, 76
1, 345771, Note_off_c, 0, 79, 60
1, 345841, Note_off_c, 0, 49, 60
1, 345844, Note_on_c, 0, 75, 70
1, 345848, Note_on_c, 0, 55, 48
1, 345875, Note_off_c, 0, 55, 65
1, 345876, Note_off_c, 0, 77, 57
1, 345921, Note_off_c, 0, 75, 62
1, 345924, Note_on_c, 0, 72, 73
1, 346016, Note_on_c, 0, 51, 56
1, 346029, Note_off_c, 0, 72, 62
1, 346031, Note_on_c, 0, 75, 73
1, 346119, Note_on_c, 0, 73, 76
1, 346130, Note_off_c, 0, 51, 60
1, 346136, Note_on_c, 0, 61, 69
1, 346162, Note_off_c, 0, 75, 61
1, 346189, Note_off_c, 0, 61, 63
1, 346199, Note_off_c, 0, 73, 59
1, 346210, Note_on_c, 0, 65, 73
1, 346270, Note_off_c, 0, 65, 64
1, 346307, Note_on_c, 0, 67, 75
1, 346308, Note_on_c, 0, 70, 70
1, 346332, Note_off_c, 0, 70, 68
1, 346404, Note_off_c, 0, 67, 59
1, 346407, Note_on_c, 0, 63, 78
1, 346560, Note_on_c, 0, 44, 70
1, 346576, Note_on_c, 0, 68, 75
1, 346588, Control_c, 0, 64, 116
1, 346603, Control_c, 0, 64, 93
1, 346604, Note_off_c, 0, 63, 61
1, 346617, Control_c, 0, 64, 73
1, 346632, Control_c, 0, 64, 0
1, 346677, Control_c, 0, 64, 62
1, 346691, Control_c, 0, 64, 75
1, 346706, Control_c, 0, 64, 88
1, 346721, Control_c, 0, 64, 105
1, 346735, Control_c, 0, 64, 122
1, 346750, Control_c, 0, 64, 127
1, 346776, Note_on_c, 0, 51, 57
1, 346824, Note_off_c, 0, 44, 62
1, 346850, Note_off_c, 0, 51, 61
1, 346934, Note_on_c, 0, 60, 60
1, 346994, Note_off_c, 0, 68, 58
1, 347026, Note_off_c, 0, 60, 52
1, 347055, Note_on_c, 0, 51, 64
1, 347176, Note_off_c, 0, 51, 61
1, 347179, Note_on_c, 0, 60, 66
1, 347302, Note_on_c, 0, 68, 65
1, 347317, Note_off_c, 0, 68, 66
1, 347329, Note_off_c, 0, 60, 62
1, 347444, Note_on_c, 0, 44, 78
1, 347455, Control_c, 0, 64, 112
1, 347470, Control_c, 0, 64, 85
1, 347485, Control_c, 0, 64, 64
1, 347500, Control_c, 0, 64, 0
1, 347536, Control_c, 0, 64, 74
1, 347551, Control_c, 0, 64, 95
1, 347566, Control_c, 0, 64, 127
1, 347587, Note_on_c, 0, 52, 62
1, 347616, Note_off_c, 0, 44, 61
1, 347659, Note_off_c, 0, 52, 65
1, 347712, Note_on_c, 0, 60, 73
1, 347814, Note_off_c, 0, 60, 50
1, 347833, Note_on_c, 0, 52, 74
1, 347958, Note_on_c, 0, 60, 78
1, 347967, Note_off_c, 0, 52, 63
1, 348093, Note_on_c, 0, 68, 80
1, 348115, Note_off_c, 0, 68, 71
1, 348138, Note_off_c, 0, 60, 60
1, 348300, Control_c, 0, 64, 92
1, 348315, Control_c, 0, 64, 68
1, 348317, Note_on_c, 0, 32, 85
1, 348329, Control_c, 0, 64, 0
1, 348359, Control_c, 0, 64, 68
1, 348362, Note_off_c, 0, 32, 63
1, 348374, Control_c, 0, 64, 89
1, 348389, Control_c, 0, 64, 127
1, 348535, Note_on_c, 0, 51, 57
1, 348580, Note_off_c, 0, 51, 58
1, 348677, Note_on_c, 0, 60, 55
1, 348686, Note_on_c, 0, 75, 78
1, 348749, Note_off_c, 0, 60, 53
1, 348837, Note_on_c, 0, 51, 58
1, 349076, Note_off_c, 0, 51, 58
1, 349089, Note_on_c, 0, 80, 86
1, 349104, Note_on_c, 0, 60, 52
1, 349204, Note_off_c, 0, 75, 57
1, 349256, Note_on_c, 0, 68, 58
1, 349277, Note_off_c, 0, 68, 61
1, 349280, Note_off_c, 0, 60, 55
1, 349423, Note_on_c, 0, 44, 64
1, 349465, Control_c, 0, 64, 98
1, 349480, Control_c, 0, 64, 76
1, 349495, Control_c, 0, 64, 0
1, 349539, Control_c, 0, 64, 73
1, 349552, Note_on_c, 0, 79, 73
1, 349553, Control_c, 0, 64, 93
1, 349568, Control_c, 0, 64, 123
1, 349583, Control_c, 0, 64, 127
1, 349615, Note_off_c, 0, 80, 58
1, 349644, Note_on_c, 0, 52, 57
1, 349651, Note_off_c, 0, 44, 59
1, 349686, Note_off_c, 0, 79, 57
1, 349692, Note_on_c, 0, 71, 71
1, 349772, Note_off_c, 0, 52, 62
1, 349798, Note_on_c, 0, 61, 59
1, 349811, Note_on_c, 0, 72, 73
1, 349812, Note_off_c, 0, 71, 60
1, 349828, Note_off_c, 0, 61, 63
1, 349903, Note_on_c, 0, 73, 71
1, 349907, Note_off_c, 0, 72, 63
1, 349927, Note_on_c, 0, 58, 62
1, 349967, Note_off_c, 0, 73, 64
1, 349979, Note_on_c, 0, 74, 71
1, 349994, Note_off_c, 0, 58, 62
1, 350058, Note_on_c, 0, 67, 52
1, 350068, Note_on_c, 0, 75, 73
1, 350078, Note_off_c, 0, 74, 55
1, 350145, Note_on_c, 0, 78, 72
1, 350149, Note_off_c, 0, 75, 64
1, 350163, Note_on_c, 0, 73, 44
1, 350173, Note_off_c, 0, 67, 59
1, 350189, Note_off_c, 0, 73, 50
1, 350223, Note_on_c, 0, 76, 74
1, 350264, Note_off_c, 0, 78, 59
1, 350302, Note_off_c, 0, 76, 61
1, 350315, Note_on_c, 0, 44, 75
1, 350347, Control_c, 0, 64, 96
1, 350362, Control_c, 0, 64, 73
1, 350376, Control_c, 0, 64, 0
1, 350406, Control_c, 0, 64, 47
1, 350421, Control_c, 0, 64, 75
1, 350436, Control_c, 0, 64, 93
1, 350437, Note_on_c, 0, 51, 65
1, 350450, Control_c, 0, 64, 123
1, 350456, Note_on_c, 0, 75, 76
1, 350465, Control_c, 0, 64, 127
1, 350467, Note_off_c, 0, 44, 60
1, 350511, Note_off_c, 0, 51, 61
1, 350562, Note_on_c, 0, 77, 84
1, 350568, Note_on_c, 0, 60, 61
1, 350574, Note_off_c, 0, 75, 61
1, 350648, Note_on_c, 0, 74, 82
1, 350652, Note_off_c, 0, 77, 61
1, 350672, Note_off_c, 0, 60, 0
1, 350710, Note_on_c, 0, 56, 59
1, 350736, Poly_aftertouch_c, 0, 60, 0
1, 350744, Note_on_c, 0, 75, 86
1, 350770, Note_off_c, 0, 74, 61
1, 350791, Note_off_c, 0, 75, 65
1, 350911, Note_on_c, 0, 63, 59
1, 350911, Note_off_c, 0, 56, 60
1, 350916, Note_on_c, 0, 84, 86
1, 351045, Note_on_c, 0, 82, 82
1, 351079, Note_off_c, 0, 84, 61
1, 351088, Note_on_c, 0, 72, 59
1, 351107, Note_off_c, 0, 72, 64
1, 351135, Note_off_c, 0, 63, 65
1, 351150, Note_on_c, 0, 81, 87
1, 351191, Note_off_c, 0, 82, 62
1, 351212, Note_off_c, 0, 81, 62
1, 351302, Note_on_c, 0, 44, 65
1, 351307, Note_on_c, 0, 80, 87
1, 351325, Control_c, 0, 64, 111
1, 351340, Control_c, 0, 64, 87
1, 351355, Control_c, 0, 64, 66
1, 351370, Control_c, 0, 64, 0
1, 351400, Control_c, 0, 64, 71
1, 351414, Control_c, 0, 64, 90
1, 351429, Control_c, 0, 64, 117
1, 351438, Note_on_c, 0, 79, 80
1, 351444, Control_c, 0, 64, 127
1, 351473, Note_off_c, 0, 80, 62
1, 351484, Note_on_c, 0, 52, 52
1, 351503, Note_off_c, 0, 44, 61
1, 351513, Note_off_c, 0, 79, 60
1, 351536, Note_on_c, 0, 71, 74
1, 351593, Note_off_c, 0, 52, 64
1, 351613, Note_on_c, 0, 61, 59
1, 351631, Note_on_c, 0, 72, 78
1, 351634, Note_off_c, 0, 61, 62
1, 351643, Note_off_c, 0, 71, 59
1, 351701, Note_on_c, 0, 73, 78
1, 351715, Note_off_c, 0, 72, 61
1, 351729, Note_on_c, 0, 58, 61
1, 351754, Note_off_c, 0, 73, 66
1, 351766, Note_on_c, 0, 74, 73
1, 351795, Note_off_c, 0, 58, 64
1, 351842, Note_on_c, 0, 67, 63
1, 351844, Note_on_c, 0, 75, 79
1, 351849, Note_off_c, 0, 74, 62
1, 351917, Note_on_c, 0, 78, 77
1, 351918, Note_off_c, 0, 75, 65
1, 351936, Note_on_c, 0, 73, 53
1, 351957, Note_off_c, 0, 67, 61
1, 351957, Note_off_c, 0, 73, 57
1, 351988, Note_on_c, 0, 76, 78
1, 352037, Note_off_c, 0, 78, 60
1, 352062, Note_off_c, 0, 76, 64
1, 352088, Note_on_c, 0, 44, 82
1, 352103, Control_c, 0, 64, 117
1, 352118, Control_c, 0, 64, 86
1, 352133, Control_c, 0, 64, 37
1, 352148, Control_c, 0, 64, 0
1, 352177, Control_c, 0, 64, 69
1, 352192, Control_c, 0, 64, 89
1, 352193, Note_on_c, 0, 51, 70
1, 352207, Control_c, 0, 64, 125
1, 352222, Control_c, 0, 64, 127
1, 352228, Note_off_c, 0, 44, 62
1, 352267, Note_off_c, 0, 51, 61
1, 352301, Note_on_c, 0, 75, 79
1, 352313, Note_on_c, 0, 60, 66
1, 352369, Note_off_c, 0, 60, 58
1, 352392, Note_on_c, 0, 77, 81
1, 352404, Note_off_c, 0, 75, 61
1, 352439, Note_on_c, 0, 56, 61
1, 352476, Note_on_c, 0, 75, 80
1, 352517, Note_off_c, 0, 77, 57
1, 352556, Note_on_c, 0, 63, 71
1, 352558, Note_off_c, 0, 56, 61
1, 352565, Note_on_c, 0, 74, 84
1, 352583, Note_off_c, 0, 75, 61
1, 352646, Note_on_c, 0, 75, 78
1, 352675, Note_on_c, 0, 72, 77
1, 352679, Note_off_c, 0, 74, 62
1, 352696, Note_off_c, 0, 72, 72
1, 352728, Note_on_c, 0, 77, 84
1, 352730, Note_off_c, 0, 63, 65
1, 352750, Note_off_c, 0, 75, 65
1, 352795, Note_off_c, 0, 77, 64
1, 352877, Note_on_c, 0, 78, 94
1, 352880, Note_on_c, 0, 39, 77
1, 352925, Control_c, 0, 64, 97
1, 352940, Control_c, 0, 64, 73
1, 352955, Control_c, 0, 64, 0
1, 352999, Control_c, 0, 64, 72
1, 353014, Control_c, 0, 64, 91
1, 353029, Control_c, 0, 64, 127
1, 353048, Note_on_c, 0, 90, 92
1, 353092, Note_off_c, 0, 78, 60
1, 353118, Note_on_c, 0, 46, 63
1, 353129, Note_off_c, 0, 90, 63
1, 353159, Note_off_c, 0, 39, 61
1, 353190, Note_on_c, 0, 89, 92
1, 353266, Note_on_c, 0, 54, 62
1, 353278, Note_off_c, 0, 46, 61
1, 353297, Note_off_c, 0, 54, 64
1, 353299, Note_on_c, 0, 88, 80
1, 353317, Note_off_c, 0, 89, 61
1, 353388, Note_on_c, 0, 87, 82
1, 353389, Note_on_c, 0, 51, 70
1, 353421, Note_off_c, 0, 88, 61
1, 353457, Note_on_c, 0, 85, 77
1, 353466, Note_off_c, 0, 51, 61
1, 353499, Note_on_c, 0, 58, 60
1, 353522, Note_off_c, 0, 87, 63
1, 353537, Note_on_c, 0, 84, 77
1, 353537, Note_off_c, 0, 85, 64
1, 353582, Note_off_c, 0, 84, 65
1, 353592, Note_on_c, 0, 66, 66
1, 353612, Note_on_c, 0, 82, 79
1, 353616, Note_off_c, 0, 66, 69
1, 353641, Note_off_c, 0, 58, 65
1, 353681, Note_on_c, 0, 80, 75
1, 353749, Note_on_c, 0, 41, 82
1, 353749, Control_c, 0, 64, 96
1, 353752, Note_on_c, 0, 78, 81
1, 353764, Control_c, 0, 64, 70
1, 353776, Note_off_c, 0, 82, 57
1, 353779, Control_c, 0, 64, 0
1, 353808, Control_c, 0, 64, 56
1, 353812, Note_off_c, 0, 80, 61
1, 353823, Control_c, 0, 64, 76
1, 353826, Note_off_c, 0, 78, 62
1, 353827, Note_on_c, 0, 77, 73
1, 353838, Control_c, 0, 64, 93
1, 353853, Control_c, 0, 64, 127
1, 353868, Control_c, 0, 64, 127
1, 353869, Note_off_c, 0, 41, 61
1, 353874, Note_on_c, 0, 48, 70
1, 353880, Note_off_c, 0, 77, 61
1, 353907, Note_on_c, 0, 76, 76
1, 353965, Note_off_c, 0, 48, 64
1, 353977, Note_on_c, 0, 75, 74
1, 353982, Note_on_c, 0, 57, 66
1, 354013, Note_off_c, 0, 76, 62
1, 354044, Note_on_c, 0, 73, 80
1, 354061, Note_off_c, 0, 57, 53
1, 354085, Note_off_c, 0, 75, 63
1, 354098, Note_on_c, 0, 53, 62
1, 354129, Note_on_c, 0, 71, 76
1, 354129, Note_off_c, 0, 73, 61
1, 354166, Note_off_c, 0, 53, 56
1, 354181, Note_on_c, 0, 60, 73
1, 354215, Note_on_c, 0, 72, 81
1, 354229, Note_off_c, 0, 71, 56
1, 354301, Note_off_c, 0, 72, 65
1, 354307, Note_on_c, 0, 69, 71
1, 354308, Note_on_c, 0, 75, 80
1, 354330, Note_off_c, 0, 69, 72
1, 354351, Note_off_c, 0, 60, 63
1, 354396, Note_on_c, 0, 73, 81
1, 354524, Note_off_c, 0, 75, 56
1, 354538, Note_on_c, 0, 34, 64
1, 354542, Control_c, 0, 64, 115
1, 354554, Note_on_c, 0, 72, 74
1, 354557, Control_c, 0, 64, 89
1, 354571, Control_c, 0, 64, 67
1, 354585, Note_off_c, 0, 73, 61
1, 354586, Control_c, 0, 64, 0
1, 354631, Control_c, 0, 64, 65
1, 354646, Control_c, 0, 64, 78
1, 354661, Control_c, 0, 64, 91
1, 354676, Control_c, 0, 64, 102
1, 354691, Control_c, 0, 64, 110
1, 354705, Control_c, 0, 64, 124
1, 354720, Control_c, 0, 64, 127
1, 354722, Note_on_c, 0, 70, 73
1, 354723, Note_on_c, 0, 41, 59
1, 354770, Note_off_c, 0, 72, 61
1, 354791, Note_off_c, 0, 34, 63
1, 354836, Note_off_c, 0, 70, 58
1, 354840, Note_off_c, 0, 41, 65
1, 354849, Note_on_c, 0, 49, 64
1, 354877, Note_off_c, 0, 49, 64
1, 354963, Note_on_c, 0, 46, 75
1, 355067, Note_off_c, 0, 46, 59
1, 355077, Note_on_c, 0, 53, 70
1, 355187, Note_on_c, 0, 61, 70
1, 355215, Note_off_c, 0, 61, 65
1, 355226, Note_off_c, 0, 53, 65
1, 355306, Control_c, 0, 64, 115
1, 355314, Note_on_c, 0, 42, 84
1, 355321, Control_c, 0, 64, 86
1, 355336, Control_c, 0, 64, 55
1, 355351, Control_c, 0, 64, 0
1, 355380, Control_c, 0, 64, 51
1, 355395, Control_c, 0, 64, 75
1, 355410, Control_c, 0, 64, 95
1, 355425, Control_c, 0, 64, 127
1, 355443, Note_on_c, 0, 49, 77
1, 355463, Note_off_c, 0, 42, 62
1, 355532, Note_on_c, 0, 73, 77
1, 355544, Note_off_c, 0, 49, 59
1, 355567, Note_on_c, 0, 58, 60
1, 355589, Note_off_c, 0, 58, 64
1, 355627, Note_on_c, 0, 75, 82
1, 355635, Note_off_c, 0, 73, 61
1, 355677, Note_on_c, 0, 54, 69
1, 355716, Note_on_c, 0, 73, 84
1, 355766, Note_off_c, 0, 75, 61
1, 355785, Note_off_c, 0, 54, 56
1, 355802, Note_on_c, 0, 61, 66
1, 355814, Note_on_c, 0, 72, 86
1, 355824, Note_off_c, 0, 73, 60
1, 355901, Note_on_c, 0, 73, 80
1, 355928, Note_off_c, 0, 72, 62
1, 355931, Note_on_c, 0, 70, 74
1, 355955, Note_off_c, 0, 70, 69
1, 355978, Note_off_c, 0, 61, 63
1, 355990, Note_on_c, 0, 75, 91
1, 356007, Note_off_c, 0, 73, 62
1, 356097, Note_off_c, 0, 75, 60
1, 356119, Note_on_c, 0, 37, 79
1, 356120, Note_on_c, 0, 77, 81
1, 356129, Control_c, 0, 64, 124
1, 356144, Control_c, 0, 64, 87
1, 356159, Control_c, 0, 64, 63
1, 356174, Control_c, 0, 64, 0
1, 356203, Control_c, 0, 64, 43
1, 356218, Control_c, 0, 64, 74
1, 356233, Control_c, 0, 64, 92
1, 356248, Control_c, 0, 64, 126
1, 356262, Control_c, 0, 64, 127
1, 356274, Note_on_c, 0, 89, 85
1, 356323, Note_off_c, 0, 77, 53
1, 356353, Note_on_c, 0, 44, 57
1, 356374, Note_off_c, 0, 37, 63
1, 356399, Note_on_c, 0, 84, 84
1, 356406, Note_off_c, 0, 89, 64
1, 356419, Note_on_c, 0, 77, 3
1, 356453, Note_off_c, 0, 77, 37
1, 356477, Note_off_c, 0, 44, 62
1, 356524, Note_on_c, 0, 53, 68
1, 356530, Note_off_c, 0, 84, 63
1, 356534, Note_on_c, 0, 87, 83
1, 356622, Note_on_c, 0, 85, 79
1, 356652, Note_on_c, 0, 49, 66
1, 356658, Note_off_c, 0, 53, 33
1, 356667, Note_off_c, 0, 87, 59
1, 356702, Note_on_c, 0, 80, 76
1, 356721, Note_off_c, 0, 85, 65
1, 356743, Note_off_c, 0, 49, 56
1, 356750, Note_on_c, 0, 56, 59
1, 356774, Note_off_c, 0, 80, 62
1, 356786, Note_on_c, 0, 77, 75
1, 356843, Note_off_c, 0, 77, 58
1, 356849, Note_on_c, 0, 65, 58
1, 356865, Note_on_c, 0, 75, 78
1, 356870, Note_off_c, 0, 65, 63
1, 356896, Note_off_c, 0, 56, 63
1, 356947, Note_on_c, 0, 73, 69
1, 356977, Note_off_c, 0, 75, 62
1, 357004, Note_off_c, 0, 73, 62
1, 357011, Control_c, 0, 64, 109
1, 357022, Note_on_c, 0, 39, 72
1, 357024, Note_on_c, 0, 71, 68
1, 357026, Control_c, 0, 64, 84
1, 357041, Control_c, 0, 64, 67
1, 357052, Note_off_c, 0, 71, 65
1, 357056, Control_c, 0, 64, 64
1, 357065, Note_on_c, 0, 73, 62
1, 357071, Control_c, 0, 64, 73
1, 357085, Control_c, 0, 64, 86
1, 357100, Control_c, 0, 64, 108
1, 357115, Control_c, 0, 64, 127
1, 357123, Note_on_c, 0, 71, 72
1, 357126, Note_off_c, 0, 73, 64
1, 357161, Note_off_c, 0, 71, 56
1, 357171, Note_on_c, 0, 47, 67
1, 357182, Note_on_c, 0, 73, 52
1, 357226, Note_on_c, 0, 71, 61
1, 357230, Note_off_c, 0, 73, 62
1, 357253, Note_on_c, 0, 70, 75
1, 357258, Note_off_c, 0, 39, 60
1, 357289, Note_off_c, 0, 71, 60
1, 357319, Note_on_c, 0, 54, 60
1, 357326, Note_off_c, 0, 70, 58
1, 357336, Note_on_c, 0, 71, 66
1, 357355, Note_off_c, 0, 54, 62
1, 357406, Note_on_c, 0, 73, 80
1, 357412, Note_off_c, 0, 47, 52
1, 357418, Note_off_c, 0, 71, 55
1, 357433, Note_on_c, 0, 40, 79
1, 357464, Control_c, 0, 64, 95
1, 357479, Control_c, 0, 64, 67
1, 357484, Note_on_c, 0, 75, 74
1, 357494, Control_c, 0, 64, 0
1, 357513, Note_off_c, 0, 73, 62
1, 357523, Control_c, 0, 64, 61
1, 357538, Control_c, 0, 64, 78
1, 357553, Control_c, 0, 64, 96
1, 357558, Note_on_c, 0, 69, 78
1, 357566, Note_off_c, 0, 75, 64
1, 357567, Control_c, 0, 64, 118
1, 357570, Note_on_c, 0, 49, 73
1, 357582, Control_c, 0, 64, 127
1, 357591, Note_off_c, 0, 40, 60
1, 357636, Note_on_c, 0, 72, 80
1, 357646, Note_off_c, 0, 69, 62
1, 357691, Note_on_c, 0, 55, 66
1, 357701, Note_on_c, 0, 70, 79
1, 357722, Note_off_c, 0, 72, 59
1, 357724, Note_off_c, 0, 49, 59
1, 357728, Note_off_c, 0, 55, 63
1, 357798, Note_on_c, 0, 69, 83
1, 357799, Note_off_c, 0, 70, 61
1, 357803, Note_on_c, 0, 41, 80
1, 357820, Control_c, 0, 64, 103
1, 357835, Control_c, 0, 64, 76
1, 357849, Control_c, 0, 64, 0
1, 357881, Note_off_c, 0, 69, 67
1, 357883, Note_on_c, 0, 72, 77
1, 357893, Control_c, 0, 64, 65
1, 357908, Control_c, 0, 64, 81
1, 357913, Note_on_c, 0, 48, 73
1, 357923, Control_c, 0, 64, 100
1, 357938, Control_c, 0, 64, 121
1, 357940, Note_off_c, 0, 41, 58
1, 357943, Note_on_c, 0, 76, 81
1, 357953, Control_c, 0, 64, 127
1, 357963, Note_off_c, 0, 72, 64
1, 358011, Note_off_c, 0, 48, 64
1, 358023, Note_on_c, 0, 57, 69
1, 358029, Note_on_c, 0, 78, 53
1, 358040, Note_on_c, 0, 77, 76
1, 358044, Note_off_c, 0, 76, 66
1, 358064, Note_off_c, 0, 77, 65
1, 358075, Note_off_c, 0, 78, 40
1, 358099, Note_on_c, 0, 77, 60
1, 358101, Note_off_c, 0, 57, 52
1, 358113, Note_on_c, 0, 76, 51
1, 358124, Note_on_c, 0, 53, 70
1, 358131, Note_off_c, 0, 76, 61
1, 358180, Note_on_c, 0, 81, 80
1, 358181, Note_off_c, 0, 77, 61
1, 358191, Note_on_c, 0, 79, 53
1, 358199, Note_on_c, 0, 60, 76
1, 358212, Note_off_c, 0, 53, 63
1, 358214, Note_off_c, 0, 79, 56
1, 358241, Note_on_c, 0, 84, 70
1, 358248, Note_off_c, 0, 81, 62
1, 358253, Note_on_c, 0, 83, 66
1, 358270, Note_off_c, 0, 83, 60
1, 358300, Note_on_c, 0, 77, 88
1, 358303, Note_off_c, 0, 84, 64
1, 358327, Note_on_c, 0, 69, 71
1, 358351, Note_off_c, 0, 69, 72
1, 358363, Note_off_c, 0, 77, 53
1, 358369, Note_off_c, 0, 60, 63
1, 358390, Note_on_c, 0, 89, 86
1, 358464, Control_c, 0, 64, 121
1, 358479, Note_on_c, 0, 41, 85
1, 358479, Control_c, 0, 64, 88
1, 358482, Note_on_c, 0, 88, 82
1, 358494, Control_c, 0, 64, 63
1, 358509, Control_c, 0, 64, 0
1, 358514, Note_off_c, 0, 89, 64
1, 358539, Control_c, 0, 64, 68
1, 358554, Control_c, 0, 64, 85
1, 358555, Note_off_c, 0, 88, 62
1, 358566, Note_on_c, 0, 84, 79
1, 358569, Control_c, 0, 64, 109
1, 358572, Note_off_c, 0, 41, 65
1, 358584, Control_c, 0, 64, 127
1, 358596, Note_on_c, 0, 49, 74
1, 358635, Note_off_c, 0, 84, 64
1, 358638, Note_on_c, 0, 87, 83
1, 358675, Note_on_c, 0, 58, 75
1, 358679, Note_off_c, 0, 49, 62
1, 358709, Note_on_c, 0, 85, 74
1, 358755, Note_off_c, 0, 58, 62
1, 358766, Note_on_c, 0, 82, 78
1, 358772, Note_off_c, 0, 87, 56
1, 358804, Note_off_c, 0, 85, 65
1, 358828, Note_on_c, 0, 79, 79
1, 358831, Note_off_c, 0, 82, 63
1, 358856, Note_off_c, 0, 79, 63
1, 358876, Note_on_c, 0, 61, 70
1, 358899, Note_on_c, 0, 76, 83
1, 358957, Note_on_c, 0, 73, 77
1, 358980, Note_off_c, 0, 61, 64
1, 358989, Note_off_c, 0, 76, 64
1, 359012, Note_on_c, 0, 70, 79
1, 359037, Poly_aftertouch_c, 0, 67, 0
1, 359051, Note_off_c, 0, 73, 61
1, 359079, Note_on_c, 0, 41, 88
1, 359091, Note_on_c, 0, 69, 84
1, 359093, Note_off_c, 0, 70, 61
1, 359095, Control_c, 0, 64, 96
1, 359110, Control_c, 0, 64, 63
1, 359125, Control_c, 0, 64, 0
1, 359154, Note_off_c, 0, 69, 66
1, 359169, Control_c, 0, 64, 69
1, 359170, Note_on_c, 0, 72, 80
1, 359180, Note_on_c, 0, 48, 81
1, 359184, Control_c, 0, 64, 85
1, 359199, Control_c, 0, 64, 105
1, 359208, Note_off_c, 0, 41, 61
1, 359213, Control_c, 0, 64, 127
1, 359217, Note_on_c, 0, 76, 76
1, 359228, Control_c, 0, 64, 127
1, 359245, Note_off_c, 0, 72, 63
1, 359259, Note_on_c, 0, 46, 17
1, 359283, Note_on_c, 0, 78, 80
1, 359284, Note_on_c, 0, 57, 78
1, 359289, Note_off_c, 0, 48, 64
1, 359302, Note_off_c, 0, 76, 66
1, 359303, Note_off_c, 0, 46, 38
1, 359327, Note_off_c, 0, 78, 66
1, 359353, Note_off_c, 0, 57, 60
1, 359353, Note_on_c, 0, 77, 87
1, 359398, Note_on_c, 0, 53, 76
1, 359421, Note_off_c, 0, 77, 59
1, 359421, Note_on_c, 0, 81, 89
1, 359465, Note_on_c, 0, 60, 79
1, 359494, Note_off_c, 0, 53, 63
1, 359496, Note_on_c, 0, 84, 77
1, 359506, Note_on_c, 0, 83, 70
1, 359517, Note_off_c, 0, 81, 62
1, 359527, Note_off_c, 0, 83, 54
1, 359564, Note_on_c, 0, 77, 83
1, 359579, Note_off_c, 0, 84, 65
1, 359601, Note_off_c, 0, 77, 60
1, 359604, Note_on_c, 0, 69, 82
1, 359650, Note_off_c, 0, 69, 64
1, 359693, Note_on_c, 0, 101, 105
1, 359743, Note_off_c, 0, 101, 67
1, 359750, Note_off_c, 0, 60, 50
1, 359857, Note_on_c, 0, 53, 81
1, 359858, Note_on_c, 0, 100, 100
1, 359889, Control_c, 0, 64, 106
1, 359904, Control_c, 0, 64, 77
1, 359919, Control_c, 0, 64, 0
1, 359951, Note_off_c, 0, 100, 62
1, 359963, Control_c, 0, 64, 70
1, 359978, Control_c, 0, 64, 89
1, 359979, Note_on_c, 0, 61, 80
1, 359982, Note_on_c, 0, 96, 83
1, 359982, Note_off_c, 0, 53, 66
1, 359993, Control_c, 0, 64, 114
1, 360008, Control_c, 0, 64, 127
1, 360059, Note_off_c, 0, 96, 64
1, 360071, Note_on_c, 0, 99, 86
1, 360092, Note_on_c, 0, 70, 73
1, 360095, Note_off_c, 0, 61, 64
1, 360128, Note_off_c, 0, 70, 59
1, 360147, Note_on_c, 0, 97, 75
1, 360186, Note_on_c, 0, 94, 73
1, 360200, Note_off_c, 0, 99, 65
1, 360205, Note_on_c, 0, 64, 36
1, 360217, Note_off_c, 0, 97, 64
1, 360243, Note_off_c, 0, 64, 48
1, 360244, Note_on_c, 0, 91, 78
1, 360244, Note_off_c, 0, 94, 64
1, 360268, Note_off_c, 0, 91, 62
1, 360296, Note_on_c, 0, 73, 75
1, 360310, Note_on_c, 0, 88, 82
1, 360371, Note_on_c, 0, 85, 70
1, 360399, Note_off_c, 0, 88, 56
1, 360406, Note_on_c, 0, 82, 83
1, 360409, Note_off_c, 0, 73, 62
1, 360462, Note_off_c, 0, 85, 64
1, 360493, Note_on_c, 0, 81, 82
1, 360498, Note_off_c, 0, 82, 64
1, 360512, Note_on_c, 0, 72, 92
1, 360518, Note_on_c, 0, 65, 76
1, 360519, Control_c, 0, 64, 106
1, 360534, Control_c, 0, 64, 79
1, 360549, Note_on_c, 0, 67, 42
1, 360549, Control_c, 0, 64, 0
1, 360560, Note_off_c, 0, 81, 58
1, 360569, Note_on_c, 0, 84, 74
1, 360580, Note_off_c, 0, 67, 35
1, 360608, Control_c, 0, 64, 66
1, 360623, Control_c, 0, 64, 75
1, 360626, Note_on_c, 0, 87, 74
1, 360626, Note_off_c, 0, 84, 64
1, 360638, Control_c, 0, 64, 82
1, 360653, Control_c, 0, 64, 88
1, 360667, Control_c, 0, 64, 93
1, 360675, Note_off_c, 0, 87, 64
1, 360682, Control_c, 0, 64, 99
1, 360697, Control_c, 0, 64, 105
1, 360711, Control_c, 0, 64, 111
1, 360714, Note_on_c, 0, 89, 75
1, 360726, Control_c, 0, 64, 115
1, 360741, Control_c, 0, 64, 119
1, 360756, Control_c, 0, 64, 121
1, 360771, Control_c, 0, 64, 124
1, 360772, Note_on_c, 0, 92, 79
1, 360778, Note_off_c, 0, 89, 61
1, 360785, Control_c, 0, 64, 127
1, 360837, Note_on_c, 0, 90, 75
1, 360879, Note_on_c, 0, 87, 71
1, 360895, Note_off_c, 0, 92, 59
1, 360923, Note_off_c, 0, 90, 63
1, 360930, Note_off_c, 0, 72, 60
1, 360942, Note_off_c, 0, 87, 63
1, 360944, Note_on_c, 0, 84, 76
1, 360960, Note_off_c, 0, 65, 62
1, 360970, Note_off_c, 0, 84, 67
1, 361025, Note_on_c, 0, 81, 79
1, 361076, Note_on_c, 0, 78, 67
1, 361115, Note_off_c, 0, 81, 59
1, 361123, Note_on_c, 0, 75, 70
1, 361156, Note_off_c, 0, 78, 63
1, 361179, Note_off_c, 0, 75, 63
1, 361186, Note_on_c, 0, 72, 66
1, 361213, Note_off_c, 0, 72, 68
1, 361219, Note_on_c, 0, 60, 59
1, 361262, Note_on_c, 0, 69, 75
1, 361264, Note_off_c, 0, 60, 56
1, 361304, Note_off_c, 0, 69, 63
1, 361306, Note_on_c, 0, 70, 71
1, 361310, Note_on_c, 0, 61, 52
1, 361332, Note_on_c, 0, 62, 60
1, 361332, Note_off_c, 0, 61, 60
1, 361344, Note_off_c, 0, 70, 62
1, 361368, Note_on_c, 0, 71, 71
1, 361413, Note_off_c, 0, 62, 52
1, 361416, Note_on_c, 0, 63, 72
1, 361425, Note_on_c, 0, 72, 74
1, 361428, Note_off_c, 0, 71, 54
1, 361465, Note_off_c, 0, 72, 62
1, 361469, Note_on_c, 0, 73, 72
1, 361532, Note_on_c, 0, 64, 45
1, 361534, Note_on_c, 0, 70, 80
1, 361540, Note_off_c, 0, 63, 38
1, 361549, Control_c, 0, 64, 118
1, 361556, Note_off_c, 0, 73, 62
1, 361557, Note_off_c, 0, 64, 58
1, 361564, Control_c, 0, 64, 97
1, 361579, Control_c, 0, 64, 78
1, 361594, Control_c, 0, 64, 59
1, 361597, Note_off_c, 0, 70, 63
1, 361603, Note_on_c, 0, 69, 78
1, 361608, Control_c, 0, 64, 35
1, 361623, Control_c, 0, 64, 63
1, 361638, Control_c, 0, 64, 71
1, 361653, Control_c, 0, 64, 79
1, 361666, Note_off_c, 0, 69, 65
1, 361668, Control_c, 0, 64, 86
1, 361671, Note_on_c, 0, 72, 73
1, 361682, Control_c, 0, 64, 89
1, 361697, Control_c, 0, 64, 91
1, 361712, Control_c, 0, 64, 93
1, 361721, Note_on_c, 0, 75, 74
1, 361726, Note_off_c, 0, 72, 64
1, 361727, Control_c, 0, 64, 95
1, 361749, Control_c, 0, 64, 97
1, 361764, Control_c, 0, 64, 99
1, 361779, Note_off_c, 0, 75, 66
1, 361800, Note_on_c, 0, 63, 81
1, 361809, Note_on_c, 0, 52, 61
1, 361818, Note_on_c, 0, 77, 77
1, 361823, Control_c, 0, 64, 95
1, 361836, Note_on_c, 0, 53, 49
1, 361838, Control_c, 0, 64, 85
1, 361853, Control_c, 0, 64, 68
1, 361867, Control_c, 0, 64, 0
1, 361878, Note_off_c, 0, 77, 39
1, 361882, Note_on_c, 0, 80, 73
1, 361893, Note_off_c, 0, 53, 0
1, 361893, Note_on_c, 0, 53, 18
1, 361940, Note_off_c, 0, 52, 47
1, 361941, Control_c, 0, 64, 62
1, 361949, Note_on_c, 0, 78, 72
1, 361956, Control_c, 0, 64, 69
1, 361971, Control_c, 0, 64, 72
1, 361986, Control_c, 0, 64, 75
1, 361996, Note_off_c, 0, 80, 59
1, 361999, Note_on_c, 0, 75, 68
1, 362001, Control_c, 0, 64, 76
1, 362017, Control_c, 0, 64, 77
1, 362032, Control_c, 0, 64, 78
1, 362034, Note_off_c, 0, 78, 62
1, 362046, Control_c, 0, 64, 79
1, 362056, Note_off_c, 0, 75, 64
1, 362059, Note_on_c, 0, 72, 67
1, 362062, Note_off_c, 0, 63, 62
1, 362085, Note_off_c, 0, 72, 69
1, 362120, Note_off_c, 0, 53, 65
1, 362120, Control_c, 0, 64, 79
1, 362137, Note_on_c, 0, 69, 71
1, 362188, Note_on_c, 0, 66, 63
1, 362208, Note_off_c, 0, 69, 59
1, 362238, Control_c, 0, 64, 79
1, 362248, Note_on_c, 0, 63, 34
1, 362261, Note_off_c, 0, 66, 65
1, 362279, Note_off_c, 0, 63, 57
1, 362283, Control_c, 0, 64, 78
1, 362298, Control_c, 0, 64, 78
1, 362301, Note_on_c, 0, 60, 63
1, 362313, Control_c, 0, 64, 77
1, 362328, Control_c, 0, 64, 75
1, 362330, Note_off_c, 0, 60, 66
1, 362343, Control_c, 0, 64, 72
1, 362357, Control_c, 0, 64, 67
1, 362366, Note_on_c, 0, 48, 46
1, 362372, Control_c, 0, 64, 58
1, 362381, Note_on_c, 0, 57, 63
1, 362387, Control_c, 0, 64, 44
1, 362402, Control_c, 0, 64, 43
1, 362407, Note_off_c, 0, 48, 65
1, 362415, Note_off_c, 0, 57, 64
1, 362417, Control_c, 0, 64, 45
1, 362420, Note_on_c, 0, 49, 52
1, 362425, Note_on_c, 0, 58, 66
1, 362431, Control_c, 0, 64, 44
1, 362446, Control_c, 0, 64, 44
1, 362447, Note_off_c, 0, 49, 62
1, 362454, Note_off_c, 0, 58, 68
1, 362461, Control_c, 0, 64, 43
1, 362472, Note_on_c, 0, 50, 51
1, 362476, Control_c, 0, 64, 43
1, 362490, Note_on_c, 0, 59, 66
1, 362513, Control_c, 0, 64, 42
1, 362523, Note_off_c, 0, 50, 45
1, 362536, Note_off_c, 0, 59, 55
1, 362537, Note_on_c, 0, 51, 66
1, 362549, Note_on_c, 0, 60, 66
1, 362557, Control_c, 0, 64, 43
1, 362586, Note_off_c, 0, 60, 64
1, 362587, Control_c, 0, 64, 43
1, 362599, Note_on_c, 0, 61, 63
1, 362600, Note_off_c, 0, 51, 63
1, 362617, Control_c, 0, 64, 45
1, 362632, Control_c, 0, 64, 47
1, 362646, Control_c, 0, 64, 48
1, 362661, Control_c, 0, 64, 50
1, 362669, Note_on_c, 0, 58, 70
1, 362676, Control_c, 0, 64, 50
1, 362681, Note_off_c, 0, 61, 61
1, 362690, Control_c, 0, 64, 51
1, 362703, Note_on_c, 0, 41, 62
1, 362705, Control_c, 0, 64, 52
1, 362720, Control_c, 0, 64, 52
1, 362722, Note_off_c, 0, 58, 65
1, 362725, Note_on_c, 0, 57, 64
1, 362780, Note_off_c, 0, 57, 61
1, 362791, Note_on_c, 0, 58, 60
1, 362825, Control_c, 0, 64, 53
1, 362826, Poly_aftertouch_c, 0, 48, 0
1, 362834, Note_off_c, 0, 41, 39
1, 362854, Note_off_c, 0, 58, 64
1, 362867, Note_on_c, 0, 59, 66
1, 362884, Control_c, 0, 64, 52
1, 362918, Note_on_c, 0, 60, 75
1, 362922, Note_on_c, 0, 52, 65
1, 362923, Note_on_c, 0, 49, 60
1, 362936, Note_off_c, 0, 59, 60
1, 362944, Control_c, 0, 64, 53
1, 362972, Note_off_c, 0, 60, 61
1, 362981, Note_on_c, 0, 61, 67
1, 362981, Note_off_c, 0, 52, 58
1, 362992, Note_off_c, 0, 49, 55
1, 363033, Control_c, 0, 64, 53
1, 363043, Note_on_c, 0, 58, 74
1, 363048, Control_c, 0, 64, 54
1, 363062, Control_c, 0, 64, 54
1, 363069, Note_off_c, 0, 61, 62
1, 363077, Control_c, 0, 64, 55
1, 363083, Note_on_c, 0, 48, 76
1, 363085, Note_on_c, 0, 53, 78
1, 363092, Control_c, 0, 64, 56
1, 363098, Note_on_c, 0, 57, 74
1, 363102, Note_off_c, 0, 58, 65
1, 363106, Control_c, 0, 64, 57
1, 363121, Control_c, 0, 64, 58
1, 363136, Control_c, 0, 64, 59
1, 363148, Note_off_c, 0, 57, 60
1, 363151, Control_c, 0, 64, 60
1, 363164, Note_off_c, 0, 53, 61
1, 363165, Note_on_c, 0, 58, 67
1, 363165, Note_off_c, 0, 48, 65
1, 363166, Control_c, 0, 64, 61
1, 363180, Control_c, 0, 64, 61
1, 363195, Control_c, 0, 64, 62
1, 363210, Control_c, 0, 64, 63
1, 363225, Control_c, 0, 64, 63
1, 363238, Note_off_c, 0, 58, 65
1, 363242, Note_on_c, 0, 59, 76
1, 363248, Control_c, 0, 64, 64
1, 363290, Note_on_c, 0, 52, 83
1, 363294, Note_on_c, 0, 49, 78
1, 363302, Note_on_c, 0, 60, 79
1, 363321, Note_off_c, 0, 59, 59
1, 363336, Control_c, 0, 64, 64
1, 363351, Control_c, 0, 64, 65
1, 363355, Note_off_c, 0, 60, 62
1, 363359, Note_on_c, 0, 61, 69
1, 363370, Note_off_c, 0, 52, 57
1, 363385, Note_off_c, 0, 49, 59
1, 363425, Note_on_c, 0, 58, 78
1, 363458, Note_off_c, 0, 61, 61
1, 363484, Note_on_c, 0, 53, 84
1, 363485, Note_on_c, 0, 57, 71
1, 363487, Note_on_c, 0, 48, 78
1, 363493, Note_off_c, 0, 58, 63
1, 363551, Note_on_c, 0, 58, 69
1, 363554, Note_off_c, 0, 57, 62
1, 363572, Note_off_c, 0, 48, 65
1, 363574, Note_off_c, 0, 53, 62
1, 363625, Note_off_c, 0, 58, 64
1, 363633, Note_on_c, 0, 59, 76
1, 363648, Control_c, 0, 64, 64
1, 363693, Note_on_c, 0, 52, 88
1, 363697, Note_on_c, 0, 49, 83
1, 363703, Note_on_c, 0, 60, 78
1, 363726, Note_off_c, 0, 59, 60
1, 363737, Control_c, 0, 64, 64
1, 363753, Note_off_c, 0, 52, 60
1, 363766, Note_on_c, 0, 61, 70
1, 363767, Note_off_c, 0, 60, 62
1, 363780, Note_off_c, 0, 49, 58
1, 363839, Note_on_c, 0, 58, 76
1, 363900, Control_c, 0, 64, 63
1, 363915, Control_c, 0, 64, 62
1, 363920, Note_off_c, 0, 61, 63
1, 363929, Control_c, 0, 64, 49
1, 363944, Control_c, 0, 64, 0
1, 363950, Note_on_c, 0, 41, 73
1, 363952, Note_off_c, 0, 58, 62
1, 363955, Note_on_c, 0, 57, 78
1, 363958, Note_on_c, 0, 51, 85
1, 364046, Note_off_c, 0, 57, 59
1, 364054, Note_on_c, 0, 60, 74
1, 364071, Control_c, 0, 64, 64
1, 364085, Control_c, 0, 64, 71
1, 364100, Control_c, 0, 64, 76
1, 364115, Control_c, 0, 64, 79
1, 364130, Note_off_c, 0, 60, 61
1, 364130, Control_c, 0, 64, 81
1, 364136, Note_on_c, 0, 63, 73
1, 364144, Control_c, 0, 64, 84
1, 364159, Control_c, 0, 64, 87
1, 364174, Control_c, 0, 64, 90
1, 364189, Control_c, 0, 64, 92
1, 364190, Note_off_c, 0, 63, 65
1, 364204, Control_c, 0, 64, 92
1, 364218, Control_c, 0, 64, 93
1, 364233, Control_c, 0, 64, 94
1, 364242, Note_on_c, 0, 65, 75
1, 364248, Control_c, 0, 64, 95
1, 364262, Control_c, 0, 64, 95
1, 364277, Control_c, 0, 64, 96
1, 364292, Control_c, 0, 64, 97
1, 364322, Control_c, 0, 64, 97
1, 364332, Note_on_c, 0, 72, 80
1, 364337, Control_c, 0, 64, 98
1, 364340, Note_off_c, 0, 65, 57
1, 364352, Control_c, 0, 64, 98
1, 364367, Control_c, 0, 64, 99
1, 364396, Control_c, 0, 64, 99
1, 364426, Note_on_c, 0, 68, 71
1, 364439, Note_off_c, 0, 72, 61
1, 364455, Control_c, 0, 64, 100
1, 364492, Note_off_c, 0, 68, 64
1, 364507, Note_on_c, 0, 67, 72
1, 364514, Control_c, 0, 64, 100
1, 364549, Note_off_c, 0, 67, 60
1, 364571, Note_on_c, 0, 66, 70
1, 364612, Note_on_c, 0, 65, 67
1, 364653, Note_off_c, 0, 66, 62
1, 364671, Note_off_c, 0, 65, 63
1, 364673, Note_on_c, 0, 64, 73
1, 364745, Note_off_c, 0, 64, 59
1, 364751, Note_on_c, 0, 63, 76
1, 364807, Note_off_c, 0, 63, 63
1, 364820, Note_on_c, 0, 62, 68
1, 364852, Note_off_c, 0, 51, 51
1, 364861, Note_off_c, 0, 41, 60
1, 364875, Note_off_c, 0, 62, 60
1, 364883, Note_on_c, 0, 61, 68
1, 364943, Note_on_c, 0, 60, 64
1, 364978, Note_off_c, 0, 61, 61
1, 364985, Note_off_c, 0, 60, 58
1, 365017, Note_on_c, 0, 59, 65
1, 365067, Note_off_c, 0, 59, 57
1, 365070, Control_c, 0, 64, 100
1, 365085, Note_on_c, 0, 58, 64
1, 365099, Control_c, 0, 64, 99
1, 365114, Control_c, 0, 64, 97
1, 365129, Control_c, 0, 64, 95
1, 365132, Note_off_c, 0, 58, 59
1, 365144, Control_c, 0, 64, 91
1, 365156, Note_on_c, 0, 57, 59
1, 365158, Control_c, 0, 64, 87
1, 365173, Control_c, 0, 64, 82
1, 365188, Control_c, 0, 64, 76
1, 365201, Note_off_c, 0, 57, 59
1, 365204, Control_c, 0, 64, 71
1, 365219, Control_c, 0, 64, 64
1, 365225, Note_on_c, 0, 56, 62
1, 365234, Control_c, 0, 64, 42
1, 365249, Control_c, 0, 64, 0
1, 365264, Note_off_c, 0, 56, 62
1, 365297, Note_on_c, 0, 55, 61
1, 365344, Note_off_c, 0, 55, 65
1, 365364, Note_on_c, 0, 54, 54
1, 365409, Note_on_c, 0, 53, 62
1, 365446, Note_off_c, 0, 54, 57
1, 365462, Note_off_c, 0, 53, 64
1, 365496, Note_on_c, 0, 52, 63
1, 365547, Note_off_c, 0, 52, 63
1, 365565, Note_on_c, 0, 51, 57
1, 365610, Note_off_c, 0, 51, 61
1, 365635, Note_on_c, 0, 50, 64
1, 365691, Note_off_c, 0, 50, 59
1, 365708, Note_on_c, 0, 49, 60
1, 365768, Note_on_c, 0, 48, 60
1, 365814, Note_off_c, 0, 49, 58
1, 365818, Note_off_c, 0, 48, 64
1, 365850, Note_on_c, 0, 47, 62
1, 365920, Note_off_c, 0, 47, 61
1, 365932, Note_on_c, 0, 46, 61
1, 365986, Note_off_c, 0, 46, 60
1, 366013, Note_on_c, 0, 45, 58
1, 366073, Note_off_c, 0, 45, 59
1, 366093, Note_on_c, 0, 44, 53
1, 366143, Note_off_c, 0, 44, 62
1, 366167, Note_on_c, 0, 43, 58
1, 366264, Note_off_c, 0, 43, 57
1, 366268, Note_on_c, 0, 42, 52
1, 366337, Note_on_c, 0, 41, 59
1, 366397, Note_off_c, 0, 42, 56
1, 366404, Note_off_c, 0, 41, 64
1, 366438, Note_on_c, 0, 40, 59
1, 366530, Note_off_c, 0, 40, 61
1, 366540, Note_on_c, 0, 39, 51
1, 366641, Note_off_c, 0, 39, 52
1, 366642, Note_on_c, 0, 38, 53
1, 366876, Note_on_c, 0, 37, 57
1, 366924, Note_off_c, 0, 38, 40
1, 367065, Control_c, 0, 64, 39
1, 367079, Control_c, 0, 64, 64
1, 367094, Control_c, 0, 64, 69
1, 367109, Control_c, 0, 64, 72
1, 367124, Control_c, 0, 64, 77
1, 367139, Control_c, 0, 64, 83
1, 367154, Control_c, 0, 64, 90
1, 367169, Control_c, 0, 64, 95
1, 367174, Note_on_c, 0, 44, 45
1, 367184, Control_c, 0, 64, 101
1, 367199, Control_c, 0, 64, 107
1, 367206, Note_off_c, 0, 37, 60
1, 367213, Control_c, 0, 64, 115
1, 367228, Control_c, 0, 64, 124
1, 367243, Control_c, 0, 64, 127
1, 367325, Note_on_c, 0, 46, 51
1, 367391, Note_off_c, 0, 44, 35
1, 367393, Note_off_c, 0, 46, 61
1, 367428, Note_on_c, 0, 48, 49
1, 367500, Note_off_c, 0, 48, 60
1, 367518, Note_on_c, 0, 49, 55
1, 367612, Note_on_c, 0, 51, 54
1, 367650, Note_off_c, 0, 49, 52
1, 367667, Note_off_c, 0, 51, 59
1, 367706, Note_on_c, 0, 53, 48
1, 367716, Note_on_c, 0, 77, 76
1, 367744, Note_on_c, 0, 65, 54
1, 367746, Note_on_c, 0, 68, 57
1, 367794, Note_off_c, 0, 53, 61
1, 367802, Note_on_c, 0, 54, 49
1, 367895, Note_off_c, 0, 68, 38
1, 367902, Note_off_c, 0, 54, 54
1, 367908, Note_on_c, 0, 56, 50
1, 367925, Note_off_c, 0, 65, 40
1, 367936, Note_off_c, 0, 77, 53
1, 367985, Note_off_c, 0, 56, 60
1, 368001, Note_on_c, 0, 58, 52
1, 368049, Note_on_c, 0, 77, 82
1, 368064, Note_off_c, 0, 58, 60
1, 368067, Note_on_c, 0, 68, 71
1, 368069, Note_on_c, 0, 65, 60
1, 368101, Note_off_c, 0, 65, 55
1, 368118, Note_on_c, 0, 56, 50
1, 368188, Note_on_c, 0, 58, 52
1, 368193, Note_off_c, 0, 56, 58
1, 368226, Note_off_c, 0, 58, 63
1, 368254, Note_on_c, 0, 60, 61
1, 368303, Note_off_c, 0, 68, 52
1, 368330, Note_off_c, 0, 60, 61
1, 368337, Note_on_c, 0, 61, 62
1, 368401, Note_on_c, 0, 63, 56
1, 368410, Note_off_c, 0, 61, 60
1, 368496, Note_on_c, 0, 65, 61
1, 368527, Note_off_c, 0, 63, 40
1, 368531, Note_off_c, 0, 65, 65
1, 368826, Note_on_c, 0, 73, 75
1, 368842, Note_on_c, 0, 37, 54
1, 368844, Control_c, 0, 64, 103
1, 368856, Note_on_c, 0, 65, 48
1, 368858, Control_c, 0, 64, 83
1, 368873, Control_c, 0, 64, 60
1, 368888, Control_c, 0, 64, 0
1, 368892, Note_off_c, 0, 77, 51
1, 368918, Control_c, 0, 64, 51
1, 368932, Control_c, 0, 64, 73
1, 368939, Note_off_c, 0, 65, 0
1, 368947, Control_c, 0, 64, 88
1, 368962, Control_c, 0, 64, 104
1, 368976, Poly_aftertouch_c, 0, 65, 127
1, 368977, Note_on_c, 0, 65, 9
1, 368977, Control_c, 0, 64, 118
1, 368990, Note_on_c, 0, 44, 48
1, 368990, Note_off_c, 0, 37, 59
1, 368992, Control_c, 0, 64, 127
1, 369056, Note_on_c, 0, 46, 58
1, 369057, Note_off_c, 0, 65, 40
1, 369066, Note_off_c, 0, 44, 57
1, 369098, Note_off_c, 0, 46, 60
1, 369120, Note_on_c, 0, 48, 33
1, 369169, Note_off_c, 0, 48, 47
1, 369201, Note_on_c, 0, 49, 56
1, 369252, Note_on_c, 0, 70, 74
1, 369277, Note_on_c, 0, 51, 55
1, 369286, Note_on_c, 0, 65, 44
1, 369290, Note_off_c, 0, 73, 61
1, 369302, Note_off_c, 0, 49, 61
1, 369313, Note_off_c, 0, 65, 55
1, 369319, Note_off_c, 0, 70, 61
1, 369321, Note_off_c, 0, 51, 61
1, 369348, Note_on_c, 0, 53, 54
1, 369403, Note_off_c, 0, 53, 59
1, 369422, Note_on_c, 0, 54, 52
1, 369503, Note_on_c, 0, 56, 51
1, 369503, Note_off_c, 0, 54, 56
1, 369510, Note_on_c, 0, 70, 79
1, 369526, Note_on_c, 0, 66, 63
1, 369542, Note_on_c, 0, 60, 45
1, 369546, Note_off_c, 0, 56, 62
1, 369559, Note_on_c, 0, 58, 61
1, 369568, Note_off_c, 0, 60, 56
1, 369596, Note_off_c, 0, 58, 63
1, 369601, Note_off_c, 0, 66, 64
1, 369643, Note_on_c, 0, 56, 61
1, 369685, Note_off_c, 0, 56, 61
1, 369699, Note_on_c, 0, 58, 52
1, 369717, Note_off_c, 0, 58, 64
1, 369734, Note_on_c, 0, 61, 65
1, 369797, Note_off_c, 0, 61, 39
1, 369819, Note_on_c, 0, 63, 51
1, 369884, Note_off_c, 0, 63, 56
1, 369900, Note_on_c, 0, 65, 36
1, 369911, Note_on_c, 0, 66, 41
1, 369923, Note_on_c, 0, 68, 78
1, 369933, Note_off_c, 0, 65, 56
1, 369965, Note_off_c, 0, 66, 66
1, 369986, Note_off_c, 0, 68, 63
1, 370230, Note_on_c, 0, 37, 58
1, 370230, Note_on_c, 0, 68, 75
1, 370239, Control_c, 0, 64, 99
1, 370251, Note_on_c, 0, 66, 63
1, 370253, Control_c, 0, 64, 78
1, 370268, Control_c, 0, 64, 51
1, 370283, Control_c, 0, 64, 0
1, 370312, Control_c, 0, 64, 70
1, 370327, Control_c, 0, 64, 89
1, 370342, Control_c, 0, 64, 122
1, 370357, Control_c, 0, 64, 127
1, 370361, Note_off_c, 0, 70, 58
1, 370368, Note_on_c, 0, 44, 55
1, 370382, Note_off_c, 0, 68, 62
1, 370391, Note_off_c, 0, 66, 38
1, 370395, Note_off_c, 0, 37, 62
1, 370457, Note_on_c, 0, 46, 58
1, 370475, Note_off_c, 0, 44, 61
1, 370498, Note_off_c, 0, 46, 60
1, 370522, Note_on_c, 0, 48, 51
1, 370566, Note_on_c, 0, 63, 58
1, 370569, Note_off_c, 0, 48, 59
1, 370592, Note_off_c, 0, 63, 65
1, 370602, Note_on_c, 0, 49, 61
1, 370627, Note_on_c, 0, 77, 83
1, 370660, Poly_aftertouch_c, 0, 68, 0
1, 370678, Note_on_c, 0, 51, 53
1, 370697, Note_off_c, 0, 49, 60
1, 370724, Note_off_c, 0, 77, 59
1, 370725, Note_off_c, 0, 51, 60
1, 370740, Note_on_c, 0, 53, 57
1, 370817, Note_off_c, 0, 53, 63
1, 370824, Note_on_c, 0, 54, 58
1, 370882, Note_on_c, 0, 73, 87
1, 370891, Note_on_c, 0, 61, 72
1, 370892, Note_on_c, 0, 68, 72
1, 370909, Note_off_c, 0, 54, 55
1, 370915, Note_on_c, 0, 56, 55
1, 370921, Note_off_c, 0, 61, 60
1, 370969, Note_off_c, 0, 56, 62
1, 370976, Note_on_c, 0, 58, 62
1, 371019, Note_off_c, 0, 68, 58
1, 371030, Note_off_c, 0, 58, 58
1, 371063, Note_off_c, 0, 73, 61
1, 371065, Note_on_c, 0, 56, 63
1, 371106, Note_on_c, 0, 58, 51
1, 371130, Note_off_c, 0, 56, 63
1, 371152, Note_off_c, 0, 58, 63
1, 371173, Note_on_c, 0, 59, 55
1, 371214, Note_off_c, 0, 59, 56
1, 371240, Note_on_c, 0, 61, 65
1, 371302, Note_on_c, 0, 63, 56
1, 371303, Note_off_c, 0, 61, 60
1, 371346, Note_on_c, 0, 82, 90
1, 371356, Note_off_c, 0, 63, 49
1, 371366, Note_on_c, 0, 65, 61
1, 371375, Note_on_c, 0, 71, 50
1, 371381, Note_on_c, 0, 73, 33
1, 371387, Note_off_c, 0, 65, 66
1, 371403, Note_off_c, 0, 71, 50
1, 371415, Note_off_c, 0, 73, 44
1, 371567, Note_off_c, 0, 82, 56
1, 371689, Note_on_c, 0, 37, 57
1, 371694, Note_on_c, 0, 82, 81
1, 371706, Control_c, 0, 64, 109
1, 371721, Control_c, 0, 64, 84
1, 371724, Note_on_c, 0, 73, 44
1, 371735, Control_c, 0, 64, 63
1, 371750, Control_c, 0, 64, 0
1, 371755, Note_off_c, 0, 73, 50
1, 371780, Control_c, 0, 64, 60
1, 371795, Control_c, 0, 64, 78
1, 371810, Control_c, 0, 64, 97
1, 371815, Note_off_c, 0, 37, 63
1, 371824, Control_c, 0, 64, 127
1, 371831, Note_on_c, 0, 44, 61
1, 371920, Note_on_c, 0, 49, 63
1, 371937, Note_off_c, 0, 44, 57
1, 371956, Note_on_c, 0, 80, 79
1, 371968, Note_off_c, 0, 49, 57
1, 371969, Note_off_c, 0, 82, 39
1, 371974, Note_on_c, 0, 73, 66
1, 371988, Note_on_c, 0, 71, 45
1, 371995, Note_on_c, 0, 53, 58
1, 372013, Note_off_c, 0, 71, 56
1, 372033, Note_off_c, 0, 53, 66
1, 372038, Note_off_c, 0, 73, 60
1, 372115, Note_on_c, 0, 56, 48
1, 372159, Note_on_c, 0, 79, 77
1, 372165, Note_on_c, 0, 73, 65
1, 372168, Note_off_c, 0, 56, 60
1, 372183, Note_off_c, 0, 80, 20
1, 372184, Note_on_c, 0, 71, 46
1, 372190, Note_on_c, 0, 61, 48
1, 372219, Note_off_c, 0, 71, 56
1, 372222, Note_off_c, 0, 73, 56
1, 372252, Note_off_c, 0, 61, 58
1, 372298, Note_on_c, 0, 56, 56
1, 372376, Note_off_c, 0, 56, 57
1, 372430, Note_on_c, 0, 65, 41
1, 372482, Note_on_c, 0, 80, 76
1, 372484, Note_off_c, 0, 65, 47
1, 372492, Note_on_c, 0, 73, 59
1, 372519, Note_on_c, 0, 71, 44
1, 372543, Note_off_c, 0, 79, 46
1, 372545, Note_on_c, 0, 61, 37
1, 372582, Note_on_c, 0, 56, 50
1, 372589, Note_off_c, 0, 61, 59
1, 372663, Note_off_c, 0, 56, 58
1, 372682, Note_on_c, 0, 68, 51
1, 372713, Note_off_c, 0, 68, 56
1, 372778, Note_on_c, 0, 65, 55
1, 372797, Note_off_c, 0, 71, 52
1, 372822, Note_off_c, 0, 65, 62
1, 372868, Note_on_c, 0, 61, 40
1, 372894, Note_off_c, 0, 73, 54
1, 372897, Note_off_c, 0, 61, 60
1, 372911, Note_on_c, 0, 56, 40
1, 372940, Note_off_c, 0, 56, 50
1, 372940, Note_off_c, 0, 80, 62
1, 373014, Note_on_c, 0, 53, 55
1, 373067, Note_off_c, 0, 53, 55
1, 373109, Note_on_c, 0, 49, 43
1, 373123, Note_on_c, 0, 65, 57
1, 373150, Note_off_c, 0, 49, 60
1, 373170, Note_off_c, 0, 65, 60
1, 373183, Note_on_c, 0, 44, 51
1, 373265, Note_on_c, 0, 65, 60
1, 373303, Note_on_c, 0, 56, 48
1, 373331, Note_off_c, 0, 56, 62
1, 373359, Note_on_c, 0, 71, 59
1, 373360, Note_off_c, 0, 44, 34
1, 373427, Note_off_c, 0, 65, 39
1, 373567, Note_on_c, 0, 37, 53
1, 373584, Note_on_c, 0, 80, 80
1, 373604, Control_c, 0, 64, 109
1, 373619, Control_c, 0, 64, 87
1, 373634, Control_c, 0, 64, 67
1, 373648, Control_c, 0, 64, 0
1, 373693, Control_c, 0, 64, 65
1, 373708, Control_c, 0, 64, 78
1, 373730, Control_c, 0, 64, 93
1, 373745, Control_c, 0, 64, 109
1, 373759, Control_c, 0, 64, 124
1, 373774, Control_c, 0, 64, 127
1, 373811, Note_off_c, 0, 37, 62
1, 373826, Note_on_c, 0, 44, 48
1, 373915, Note_off_c, 0, 71, 56
1, 373930, Note_off_c, 0, 80, 61
1, 373950, Note_off_c, 0, 44, 59
1, 373954, Note_on_c, 0, 49, 58
1, 374014, Note_off_c, 0, 49, 58
1, 374043, Note_on_c, 0, 56, 49
1, 374101, Note_off_c, 0, 56, 59
1, 374133, Note_on_c, 0, 49, 50
1, 374179, Note_off_c, 0, 49, 56
1, 374185, Note_on_c, 0, 44, 62
1, 374237, Note_on_c, 0, 73, 72
1, 374253, Note_on_c, 0, 71, 63
1, 374266, Note_on_c, 0, 65, 50
1, 374275, Note_on_c, 0, 49, 40
1, 374275, Note_off_c, 0, 44, 58
1, 374300, Note_off_c, 0, 65, 56
1, 374328, Note_off_c, 0, 49, 60
1, 374346, Note_off_c, 0, 71, 54
1, 374353, Note_on_c, 0, 56, 58
1, 374371, Note_off_c, 0, 73, 59
1, 374457, Note_off_c, 0, 56, 60
1, 374481, Note_on_c, 0, 61, 61
1, 374570, Note_off_c, 0, 61, 58
1, 374583, Note_on_c, 0, 73, 79
1, 374600, Note_on_c, 0, 71, 63
1, 374601, Note_on_c, 0, 65, 60
1, 374603, Note_on_c, 0, 56, 59
1, 374650, Note_off_c, 0, 56, 61
1, 374701, Note_off_c, 0, 65, 0
1, 374701, Note_on_c, 0, 65, 12
1, 374712, Note_on_c, 0, 49, 61
1, 374768, Note_off_c, 0, 49, 58
1, 374783, Note_on_c, 0, 56, 64
1, 374848, Note_off_c, 0, 56, 61
1, 374873, Note_on_c, 0, 61, 67
1, 374920, Note_off_c, 0, 61, 54
1, 374961, Note_on_c, 0, 68, 73
1, 374986, Note_off_c, 0, 68, 68
1, 375041, Note_on_c, 0, 61, 64
1, 375085, Note_off_c, 0, 61, 54
1, 375155, Note_on_c, 0, 54, 40
1, 375183, Note_on_c, 0, 49, 69
1, 375183, Note_off_c, 0, 54, 52
1, 375271, Note_off_c, 0, 49, 60
1, 375273, Note_on_c, 0, 56, 66
1, 375313, Note_off_c, 0, 56, 63
1, 375342, Note_on_c, 0, 61, 68
1, 375393, Note_on_c, 0, 56, 60
1, 375401, Note_off_c, 0, 61, 60
1, 375458, Note_on_c, 0, 49, 72
1, 375459, Note_off_c, 0, 56, 62
1, 375488, Note_off_c, 0, 49, 66
1, 375560, Note_on_c, 0, 44, 80
1, 375650, Note_on_c, 0, 49, 73
1, 375650, Note_off_c, 0, 44, 63
1, 375687, Note_off_c, 0, 65, 43
1, 375712, Note_off_c, 0, 49, 61
1, 375721, Note_on_c, 0, 56, 75
1, 375727, Note_off_c, 0, 73, 57
1, 375754, Note_off_c, 0, 71, 59
1, 375783, Note_off_c, 0, 56, 63
1, 375787, Note_on_c, 0, 49, 58
1, 375824, Note_off_c, 0, 49, 60
1, 375828, Note_on_c, 0, 44, 75
1, 375872, Note_off_c, 0, 44, 64
1, 375943, Note_on_c, 0, 37, 83
1, 376000, Note_off_c, 0, 37, 62
1, 376152, Note_on_c, 0, 73, 79
1, 376153, Control_c, 0, 64, 105
1, 376156, Note_on_c, 0, 30, 84
1, 376162, Note_on_c, 0, 66, 65
1, 376163, Note_on_c, 0, 71, 67
1, 376168, Control_c, 0, 64, 80
1, 376183, Control_c, 0, 64, 45
1, 376198, Control_c, 0, 64, 0
1, 376228, Control_c, 0, 64, 52
1, 376242, Control_c, 0, 64, 78
1, 376257, Control_c, 0, 64, 99
1, 376272, Control_c, 0, 64, 127
1, 376303, Note_off_c, 0, 30, 62
1, 376389, Note_off_c, 0, 66, 59
1, 376420, Note_off_c, 0, 71, 61
1, 376424, Note_on_c, 0, 49, 66
1, 376432, Note_off_c, 0, 73, 62
1, 376469, Note_off_c, 0, 49, 58
1, 376513, Note_on_c, 0, 61, 69
1, 376594, Note_on_c, 0, 56, 68
1, 376596, Note_off_c, 0, 61, 60
1, 376668, Note_off_c, 0, 56, 61
1, 376675, Note_on_c, 0, 49, 58
1, 376695, Note_on_c, 0, 78, 90
1, 376710, Note_on_c, 0, 70, 65
1, 376725, Note_on_c, 0, 66, 54
1, 376746, Note_off_c, 0, 66, 59
1, 376752, Note_off_c, 0, 49, 59
1, 376756, Note_on_c, 0, 58, 69
1, 376777, Note_off_c, 0, 70, 55
1, 376830, Note_on_c, 0, 54, 63
1, 376860, Note_off_c, 0, 78, 60
1, 376862, Note_off_c, 0, 58, 54
1, 376883, Note_on_c, 0, 49, 70
1, 376918, Note_off_c, 0, 54, 61
1, 376944, Note_off_c, 0, 49, 61
1, 377080, Note_on_c, 0, 39, 71
1, 377098, Note_on_c, 0, 78, 79
1, 377125, Control_c, 0, 64, 95
1, 377139, Control_c, 0, 64, 70
1, 377154, Control_c, 0, 64, 0
1, 377199, Control_c, 0, 64, 48
1, 377214, Control_c, 0, 64, 76
1, 377229, Note_on_c, 0, 66, 70
1, 377229, Control_c, 0, 64, 100
1, 377244, Control_c, 0, 64, 127
1, 377295, Note_off_c, 0, 78, 58
1, 377325, Note_on_c, 0, 46, 68
1, 377346, Note_on_c, 0, 70, 62
1, 377357, Note_off_c, 0, 39, 61
1, 377369, Note_off_c, 0, 66, 63
1, 377379, Note_off_c, 0, 70, 62
1, 377492, Note_on_c, 0, 51, 59
1, 377499, Note_off_c, 0, 46, 58
1, 377502, Note_on_c, 0, 58, 65
1, 377572, Note_on_c, 0, 70, 71
1, 377585, Note_off_c, 0, 51, 58
1, 377594, Note_off_c, 0, 58, 57
1, 377602, Note_on_c, 0, 54, 56
1, 377663, Note_on_c, 0, 63, 63
1, 377671, Note_off_c, 0, 54, 53
1, 377700, Note_on_c, 0, 51, 55
1, 377710, Note_off_c, 0, 70, 61
1, 377718, Note_on_c, 0, 66, 62
1, 377730, Note_off_c, 0, 63, 63
1, 377757, Note_off_c, 0, 51, 56
1, 377778, Note_off_c, 0, 66, 65
1, 377779, Note_on_c, 0, 58, 58
1, 377787, Note_on_c, 0, 46, 51
1, 377808, Note_off_c, 0, 58, 65
1, 377843, Control_c, 0, 64, 106
1, 377847, Note_on_c, 0, 72, 75
1, 377858, Control_c, 0, 64, 89
1, 377873, Control_c, 0, 64, 83
1, 377887, Control_c, 0, 64, 85
1, 377894, Note_off_c, 0, 46, 60
1, 377902, Control_c, 0, 64, 93
1, 377903, Note_on_c, 0, 39, 63
1, 377917, Control_c, 0, 64, 115
1, 377932, Control_c, 0, 64, 127
1, 377953, Note_off_c, 0, 72, 59
1, 377989, Note_on_c, 0, 70, 64
1, 377998, Poly_aftertouch_c, 0, 65, 127
1, 378028, Note_on_c, 0, 46, 62
1, 378031, Note_off_c, 0, 39, 62
1, 378031, Poly_aftertouch_c, 0, 65, 0
1, 378034, Note_off_c, 0, 70, 54
1, 378063, Note_on_c, 0, 61, 58
1, 378106, Note_off_c, 0, 61, 56
1, 378109, Note_on_c, 0, 73, 77
1, 378131, Note_on_c, 0, 51, 69
1, 378169, Note_off_c, 0, 46, 56
1, 378184, Note_on_c, 0, 66, 66
1, 378201, Note_off_c, 0, 51, 59
1, 378237, Note_on_c, 0, 58, 59
1, 378249, Note_on_c, 0, 70, 68
1, 378255, Note_off_c, 0, 66, 65
1, 378282, Note_off_c, 0, 73, 31
1, 378288, Note_off_c, 0, 70, 64
1, 378311, Note_off_c, 0, 58, 60
1, 378323, Note_on_c, 0, 66, 69
1, 378326, Note_on_c, 0, 51, 57
1, 378381, Note_on_c, 0, 78, 91
1, 378391, Note_on_c, 0, 46, 62
1, 378401, Note_off_c, 0, 51, 55
1, 378407, Note_off_c, 0, 66, 39
1, 378457, Note_on_c, 0, 70, 71
1, 378473, Control_c, 0, 64, 108
1, 378488, Control_c, 0, 64, 82
1, 378495, Note_on_c, 0, 44, 70
1, 378502, Note_off_c, 0, 46, 62
1, 378502, Control_c, 0, 64, 42
1, 378517, Control_c, 0, 64, 0
1, 378538, Note_on_c, 0, 73, 65
1, 378539, Note_off_c, 0, 70, 61
1, 378547, Control_c, 0, 64, 62
1, 378553, Note_off_c, 0, 78, 54
1, 378562, Control_c, 0, 64, 80
1, 378577, Control_c, 0, 64, 105
1, 378592, Control_c, 0, 64, 127
1, 378600, Note_on_c, 0, 66, 66
1, 378632, Note_off_c, 0, 66, 66
1, 378633, Note_off_c, 0, 73, 59
1, 378664, Note_on_c, 0, 77, 85
1, 378668, Note_on_c, 0, 51, 65
1, 378668, Note_off_c, 0, 44, 61
1, 378738, Note_on_c, 0, 70, 70
1, 378761, Note_on_c, 0, 54, 63
1, 378793, Note_off_c, 0, 70, 61
1, 378797, Note_on_c, 0, 73, 65
1, 378803, Note_off_c, 0, 77, 56
1, 378839, Note_off_c, 0, 54, 60
1, 378840, Note_off_c, 0, 51, 37
1, 378848, Note_on_c, 0, 66, 61
1, 378861, Note_on_c, 0, 61, 65
1, 378866, Note_off_c, 0, 66, 68
1, 378869, Note_off_c, 0, 73, 54
1, 378895, Note_on_c, 0, 77, 90
1, 378926, Note_off_c, 0, 61, 61
1, 378946, Note_on_c, 0, 54, 67
1, 378976, Note_off_c, 0, 77, 58
1, 378979, Note_on_c, 0, 68, 77
1, 379028, Note_on_c, 0, 51, 65
1, 379033, Note_off_c, 0, 68, 63
1, 379047, Note_off_c, 0, 54, 60
1, 379048, Note_on_c, 0, 72, 66
1, 379132, Note_on_c, 0, 44, 80
1, 379134, Control_c, 0, 64, 118
1, 379139, Note_on_c, 0, 63, 48
1, 379146, Note_off_c, 0, 51, 61
1, 379149, Control_c, 0, 64, 87
1, 379162, Note_on_c, 0, 75, 86
1, 379164, Control_c, 0, 64, 64
1, 379167, Note_off_c, 0, 63, 57
1, 379169, Note_off_c, 0, 72, 59
1, 379179, Control_c, 0, 64, 0
1, 379208, Control_c, 0, 64, 68
1, 379223, Control_c, 0, 64, 92
1, 379238, Control_c, 0, 64, 127
1, 379262, Note_on_c, 0, 68, 70
1, 379270, Note_on_c, 0, 51, 68
1, 379302, Note_on_c, 0, 72, 70
1, 379310, Note_off_c, 0, 44, 62
1, 379313, Note_off_c, 0, 75, 59
1, 379319, Note_off_c, 0, 68, 63
1, 379371, Note_on_c, 0, 63, 70
1, 379371, Note_off_c, 0, 72, 64
1, 379394, Note_on_c, 0, 54, 77
1, 379402, Note_off_c, 0, 63, 66
1, 379437, Note_off_c, 0, 51, 56
1, 379442, Note_on_c, 0, 72, 86
1, 379527, Note_on_c, 0, 60, 76
1, 379534, Note_off_c, 0, 54, 60
1, 379536, Note_on_c, 0, 66, 78
1, 379591, Note_off_c, 0, 72, 54
1, 379605, Note_off_c, 0, 60, 56
1, 379620, Note_on_c, 0, 54, 75
1, 379621, Note_on_c, 0, 70, 85
1, 379641, Note_off_c, 0, 66, 61
1, 379731, Note_on_c, 0, 60, 80
1, 379733, Note_on_c, 0, 44, 80
1, 379741, Note_off_c, 0, 54, 60
1, 379755, Note_off_c, 0, 70, 61
1, 379775, Note_off_c, 0, 60, 62
1, 379781, Note_off_c, 0, 44, 65
1, 379974, Note_on_c, 0, 65, 76
1, 379978, Note_on_c, 0, 70, 86
1, 379979, Note_on_c, 0, 37, 79
1, 379982, Note_on_c, 0, 58, 81
1, 380002, Control_c, 0, 64, 108
1, 380016, Control_c, 0, 64, 81
1, 380031, Control_c, 0, 64, 13
1, 380046, Control_c, 0, 64, 0
1, 380091, Control_c, 0, 64, 73
1, 380106, Control_c, 0, 64, 94
1, 380121, Control_c, 0, 64, 127
1, 380143, Note_on_c, 0, 44, 67
1, 380153, Note_off_c, 0, 70, 59
1, 380178, Note_off_c, 0, 37, 62
1, 380180, Note_off_c, 0, 58, 59
1, 380236, Note_on_c, 0, 46, 74
1, 380268, Note_off_c, 0, 65, 56
1, 380286, Note_off_c, 0, 44, 61
1, 380287, Note_on_c, 0, 56, 90
1, 380287, Note_on_c, 0, 68, 87
1, 380319, Note_off_c, 0, 46, 61
1, 380325, Note_off_c, 0, 56, 63
1, 380326, Note_on_c, 0, 48, 72
1, 380363, Note_off_c, 0, 68, 65
1, 380421, Note_on_c, 0, 49, 73
1, 380429, Note_off_c, 0, 48, 63
1, 380535, Note_on_c, 0, 51, 69
1, 380597, Note_off_c, 0, 49, 60
1, 380610, Note_on_c, 0, 89, 89
1, 380612, Note_on_c, 0, 77, 85
1, 380613, Note_on_c, 0, 80, 87
1, 380620, Note_off_c, 0, 51, 62
1, 380628, Note_on_c, 0, 53, 71
1, 380714, Note_on_c, 0, 54, 66
1, 380715, Note_off_c, 0, 53, 65
1, 380770, Note_off_c, 0, 80, 58
1, 380785, Note_off_c, 0, 89, 57
1, 380797, Note_off_c, 0, 77, 53
1, 380803, Note_on_c, 0, 56, 73
1, 380827, Note_off_c, 0, 54, 57
1, 380878, Note_on_c, 0, 89, 94
1, 380880, Note_on_c, 0, 80, 89
1, 380881, Note_on_c, 0, 77, 91
1, 380897, Note_on_c, 0, 58, 75
1, 380906, Note_off_c, 0, 56, 62
1, 380977, Note_off_c, 0, 58, 64
1, 380979, Note_on_c, 0, 56, 70
1, 381036, Note_off_c, 0, 89, 61
1, 381040, Note_on_c, 0, 58, 65
1, 381067, Note_off_c, 0, 77, 61
1, 381071, Note_off_c, 0, 56, 64
1, 381095, Note_off_c, 0, 80, 61
1, 381103, Note_off_c, 0, 58, 62
1, 381104, Note_on_c, 0, 60, 76
1, 381176, Note_on_c, 0, 61, 80
1, 381179, Note_off_c, 0, 60, 61
1, 381239, Note_on_c, 0, 63, 72
1, 381267, Note_off_c, 0, 61, 59
1, 381286, Note_on_c, 0, 80, 67
1, 381297, Note_on_c, 0, 85, 88
1, 381299, Note_on_c, 0, 73, 94
1, 381309, Note_on_c, 0, 65, 85
1, 381328, Note_off_c, 0, 63, 63
1, 381331, Note_off_c, 0, 65, 69
1, 381340, Note_off_c, 0, 73, 63
1, 381366, Note_off_c, 0, 80, 63
1, 381398, Note_off_c, 0, 85, 61
1, 381601, Note_on_c, 0, 37, 69
1, 381604, Control_c, 0, 64, 127
1, 381607, Note_on_c, 0, 77, 75
1, 381608, Note_on_c, 0, 85, 89
1, 381610, Note_on_c, 0, 73, 87
1, 381618, Control_c, 0, 64, 90
1, 381632, Control_c, 0, 64, 66
1, 381647, Control_c, 0, 64, 0
1, 381677, Control_c, 0, 64, 66
1, 381692, Control_c, 0, 64, 87
1, 381703, Note_off_c, 0, 85, 66
1, 381707, Control_c, 0, 64, 127
1, 381722, Note_off_c, 0, 77, 60
1, 381724, Note_on_c, 0, 44, 61
1, 381731, Note_off_c, 0, 37, 61
1, 381736, Note_off_c, 0, 73, 60
1, 381785, Note_on_c, 0, 46, 71
1, 381819, Note_off_c, 0, 44, 59
1, 381847, Note_off_c, 0, 46, 61
1, 381862, Note_on_c, 0, 65, 81
1, 381868, Note_on_c, 0, 48, 62
1, 381903, Note_off_c, 0, 65, 65
1, 381913, Note_off_c, 0, 48, 63
1, 381945, Note_on_c, 0, 49, 68
1, 382022, Note_on_c, 0, 51, 63
1, 382034, Note_on_c, 0, 82, 95
1, 382040, Note_on_c, 0, 73, 84
1, 382045, Note_off_c, 0, 49, 60
1, 382069, Note_off_c, 0, 51, 60
1, 382086, Note_on_c, 0, 53, 64
1, 382089, Note_off_c, 0, 73, 63
1, 382100, Note_on_c, 0, 52, 45
1, 382130, Note_off_c, 0, 52, 48
1, 382130, Note_off_c, 0, 82, 60
1, 382148, Note_off_c, 0, 53, 63
1, 382151, Note_on_c, 0, 54, 66
1, 382218, Note_on_c, 0, 56, 65
1, 382225, Note_off_c, 0, 54, 59
1, 382249, Note_on_c, 0, 82, 85
1, 382252, Note_on_c, 0, 72, 87
1, 382253, Note_on_c, 0, 78, 81
1, 382279, Note_off_c, 0, 56, 64
1, 382281, Note_on_c, 0, 58, 72
1, 382297, Note_off_c, 0, 72, 64
1, 382333, Note_off_c, 0, 58, 64
1, 382352, Note_on_c, 0, 56, 70
1, 382383, Note_off_c, 0, 82, 57
1, 382416, Note_off_c, 0, 56, 64
1, 382424, Note_on_c, 0, 58, 54
1, 382434, Note_on_c, 0, 70, 97
1, 382442, Note_on_c, 0, 61, 77
1, 382449, Note_off_c, 0, 58, 62
1, 382470, Note_off_c, 0, 78, 62
1, 382482, Note_off_c, 0, 61, 58
1, 382500, Note_off_c, 0, 70, 59
1, 382532, Note_on_c, 0, 63, 69
1, 382577, Note_on_c, 0, 65, 60
1, 382589, Note_on_c, 0, 80, 85
1, 382592, Note_on_c, 0, 68, 95
1, 382592, Note_off_c, 0, 63, 63
1, 382597, Note_on_c, 0, 75, 80
1, 382619, Note_on_c, 0, 66, 77
1, 382619, Note_on_c, 0, 78, 53
1, 382634, Note_off_c, 0, 65, 66
1, 382640, Note_off_c, 0, 78, 59
1, 382644, Note_off_c, 0, 66, 70
1, 382656, Note_off_c, 0, 68, 50
1, 382667, Poly_aftertouch_c, 0, 64, 0
1, 382673, Note_off_c, 0, 75, 62
1, 382694, Note_off_c, 0, 80, 59
1, 382804, Control_c, 0, 64, 121
1, 382809, Note_on_c, 0, 80, 87
1, 382813, Note_on_c, 0, 68, 96
1, 382817, Note_on_c, 0, 75, 75
1, 382818, Note_on_c, 0, 37, 75
1, 382818, Note_on_c, 0, 77, 71
1, 382819, Control_c, 0, 64, 89
1, 382833, Control_c, 0, 64, 66
1, 382848, Control_c, 0, 64, 0
1, 382863, Control_c, 0, 64, 27
1, 382878, Control_c, 0, 64, 75
1, 382893, Control_c, 0, 64, 103
1, 382908, Control_c, 0, 64, 127
1, 382935, Note_on_c, 0, 44, 63
1, 382936, Note_off_c, 0, 37, 63
1, 382972, Note_off_c, 0, 80, 58
1, 382977, Note_off_c, 0, 77, 57
1, 382978, Note_off_c, 0, 68, 61
1, 382984, Note_on_c, 0, 73, 66
1, 382994, Note_on_c, 0, 46, 73
1, 382995, Note_off_c, 0, 75, 64
1, 383010, Note_off_c, 0, 73, 67
1, 383025, Note_off_c, 0, 44, 60
1, 383056, Note_off_c, 0, 46, 62
1, 383063, Note_on_c, 0, 48, 67
1, 383129, Note_off_c, 0, 48, 60
1, 383148, Note_on_c, 0, 49, 72
1, 383161, Note_on_c, 0, 89, 91
1, 383164, Note_on_c, 0, 77, 94
1, 383171, Note_on_c, 0, 80, 91
1, 383214, Note_on_c, 0, 51, 69
1, 383233, Note_off_c, 0, 89, 64
1, 383252, Note_off_c, 0, 77, 64
1, 383255, Note_off_c, 0, 49, 60
1, 383281, Note_off_c, 0, 51, 62
1, 383281, Note_on_c, 0, 53, 76
1, 383306, Note_off_c, 0, 80, 62
1, 383358, Note_off_c, 0, 53, 64
1, 383360, Note_on_c, 0, 83, 14
1, 383364, Note_on_c, 0, 54, 70
1, 383374, Note_off_c, 0, 83, 0
1, 383388, Note_on_c, 0, 73, 106
1, 383393, Note_on_c, 0, 85, 92
1, 383395, Note_on_c, 0, 80, 94
1, 383412, Poly_aftertouch_c, 0, 83, 127
1, 383437, Note_on_c, 0, 56, 70
1, 383438, Poly_aftertouch_c, 0, 83, 0
1, 383471, Note_off_c, 0, 73, 59
1, 383472, Note_off_c, 0, 54, 59
1, 383472, Poly_aftertouch_c, 0, 84, 0
1, 383498, Note_off_c, 0, 80, 61
1, 383511, Note_off_c, 0, 85, 64
1, 383512, Note_on_c, 0, 58, 81
1, 383521, Note_off_c, 0, 56, 62
1, 383588, Note_on_c, 0, 56, 74
1, 383593, Note_off_c, 0, 58, 64
1, 383635, Note_on_c, 0, 58, 65
1, 383672, Note_off_c, 0, 56, 64
1, 383695, Note_on_c, 0, 60, 77
1, 383706, Note_off_c, 0, 58, 62
1, 383762, Note_off_c, 0, 60, 61
1, 383771, Note_on_c, 0, 61, 79
1, 383817, Note_on_c, 0, 63, 69
1, 383832, Note_on_c, 0, 82, 104
1, 383832, Note_on_c, 0, 94, 102
1, 383835, Note_on_c, 0, 87, 95
1, 383842, Note_off_c, 0, 61, 61
1, 383870, Note_on_c, 0, 64, 81
1, 383877, Note_off_c, 0, 63, 64
1, 383892, Note_off_c, 0, 64, 71
1, 383924, Note_off_c, 0, 82, 57
1, 383936, Note_off_c, 0, 87, 58
1, 383984, Note_off_c, 0, 94, 56
1, 384141, Note_on_c, 0, 36, 76
1, 384151, Note_on_c, 0, 87, 98
1, 384151, Note_on_c, 0, 82, 104
1, 384151, Note_on_c, 0, 94, 100
1, 384161, Control_c, 0, 64, 89
1, 384175, Control_c, 0, 64, 62
1, 384190, Control_c, 0, 64, 0
1, 384228, Control_c, 0, 64, 67
1, 384235, Note_off_c, 0, 36, 64
1, 384243, Control_c, 0, 64, 93
1, 384257, Control_c, 0, 64, 127
1, 384264, Note_on_c, 0, 48, 69
1, 384271, Note_off_c, 0, 94, 64
1, 384294, Note_off_c, 0, 87, 57
1, 384298, Note_off_c, 0, 82, 58
1, 384312, Note_off_c, 0, 48, 62
1, 384376, Note_on_c, 0, 51, 69
1, 384405, Note_on_c, 0, 80, 98
1, 384406, Note_on_c, 0, 92, 103
1, 384408, Note_on_c, 0, 87, 94
1, 384442, Note_off_c, 0, 80, 63
1, 384448, Note_on_c, 0, 90, 28
1, 384449, Note_off_c, 0, 51, 58
1, 384460, Note_off_c, 0, 87, 56
1, 384468, Note_on_c, 0, 56, 63
1, 384480, Note_off_c, 0, 90, 38
1, 384483, Note_off_c, 0, 92, 65
1, 384497, Note_off_c, 0, 56, 64
1, 384531, Note_on_c, 0, 51, 64
1, 384567, Note_on_c, 0, 79, 101
1, 384567, Note_on_c, 0, 91, 97
1, 384569, Note_on_c, 0, 56, 63
1, 384569, Note_on_c, 0, 87, 95
1, 384582, Note_on_c, 0, 90, 65
1, 384595, Note_off_c, 0, 51, 60
1, 384598, Note_on_c, 0, 81, 46
1, 384599, Note_off_c, 0, 81, 127
1, 384599, Note_off_c, 0, 90, 64
1, 384603, Note_off_c, 0, 79, 63
1, 384615, Note_on_c, 0, 60, 73
1, 384615, Note_off_c, 0, 56, 61
1, 384629, Note_off_c, 0, 87, 61
1, 384635, Note_off_c, 0, 91, 59
1, 384672, Note_off_c, 0, 60, 58
1, 384720, Note_on_c, 0, 63, 69
1, 384777, Note_on_c, 0, 68, 70
1, 384780, Note_off_c, 0, 63, 63
1, 384831, Note_on_c, 0, 92, 91
1, 384832, Note_on_c, 0, 80, 103
1, 384835, Note_on_c, 0, 87, 95
1, 384849, Note_off_c, 0, 68, 60
1, 384863, Note_on_c, 0, 90, 50
1, 384884, Note_on_c, 0, 63, 43
1, 384886, Note_off_c, 0, 90, 57
1, 384905, Note_off_c, 0, 63, 59
1, 384916, Note_on_c, 0, 75, 75
1, 384916, Note_off_c, 0, 92, 67
1, 384959, Note_off_c, 0, 87, 60
1, 384962, Note_off_c, 0, 80, 59
1, 384972, Note_off_c, 0, 75, 64
1, 384996, Note_on_c, 0, 68, 67
1, 385025, Note_on_c, 0, 63, 64
1, 385051, Note_off_c, 0, 68, 64
1, 385061, Note_off_c, 0, 63, 66
1, 385120, Note_on_c, 0, 60, 77
1, 385181, Note_off_c, 0, 60, 55
1, 385188, Note_on_c, 0, 56, 72
1, 385254, Note_on_c, 0, 51, 74
1, 385262, Note_off_c, 0, 56, 62
1, 385266, Note_on_c, 0, 80, 88
1, 385269, Note_on_c, 0, 68, 94
1, 385271, Note_on_c, 0, 75, 79
1, 385291, Note_off_c, 0, 51, 64
1, 385333, Note_off_c, 0, 68, 48
1, 385343, Note_on_c, 0, 48, 86
1, 385367, Note_off_c, 0, 75, 62
1, 385406, Note_off_c, 0, 80, 55
1, 385415, Note_on_c, 0, 44, 78
1, 385421, Note_off_c, 0, 48, 63
1, 385467, Note_off_c, 0, 44, 64
1, 385593, Note_on_c, 0, 35, 86
1, 385594, Note_on_c, 0, 80, 88
1, 385596, Note_on_c, 0, 68, 87
1, 385597, Note_on_c, 0, 75, 80
1, 385600, Control_c, 0, 64, 107
1, 385615, Control_c, 0, 64, 78
1, 385629, Control_c, 0, 64, 0
1, 385674, Control_c, 0, 64, 42
1, 385689, Control_c, 0, 64, 77
1, 385710, Control_c, 0, 64, 100
1, 385725, Control_c, 0, 64, 127
1, 385757, Note_off_c, 0, 35, 64
1, 385798, Note_off_c, 0, 80, 59
1, 385813, Note_off_c, 0, 75, 62
1, 385843, Note_off_c, 0, 68, 58
1, 385872, Note_on_c, 0, 47, 73
1, 385955, Note_off_c, 0, 47, 62
1, 385981, Note_on_c, 0, 49, 28
1, 386003, Note_on_c, 0, 52, 37
1, 386010, Note_on_c, 0, 53, 40
1, 386020, Note_off_c, 0, 49, 48
1, 386035, Note_off_c, 0, 52, 50
1, 386038, Note_off_c, 0, 53, 56
1, 386038, Note_on_c, 0, 73, 83
1, 386040, Note_on_c, 0, 68, 78
1, 386060, Note_on_c, 0, 61, 67
1, 386097, Note_off_c, 0, 68, 57
1, 386117, Note_on_c, 0, 53, 71
1, 386136, Note_off_c, 0, 61, 61
1, 386201, Note_on_c, 0, 49, 65
1, 386221, Note_off_c, 0, 53, 59
1, 386230, Note_off_c, 0, 73, 34
1, 386318, Note_off_c, 0, 49, 60
1, 386330, Note_on_c, 0, 46, 76
1, 386331, Note_on_c, 0, 68, 86
1, 386335, Note_on_c, 0, 73, 87
1, 386348, Control_c, 0, 64, 96
1, 386363, Control_c, 0, 64, 73
1, 386378, Control_c, 0, 64, 0
1, 386395, Poly_aftertouch_c, 0, 76, 127
1, 386407, Control_c, 0, 64, 61
1, 386422, Control_c, 0, 64, 82
1, 386435, Note_on_c, 0, 49, 66
1, 386437, Control_c, 0, 64, 108
1, 386440, Note_off_c, 0, 46, 61
1, 386459, Control_c, 0, 64, 127
1, 386476, Note_off_c, 0, 68, 58
1, 386479, Poly_aftertouch_c, 0, 76, 0
1, 386495, Note_on_c, 0, 54, 58
1, 386535, Note_off_c, 0, 49, 57
1, 386567, Note_off_c, 0, 73, 62
1, 386568, Note_off_c, 0, 54, 60
1, 386583, Note_on_c, 0, 67, 86
1, 386587, Note_on_c, 0, 63, 71
1, 386622, Note_off_c, 0, 63, 61
1, 386633, Note_off_c, 0, 67, 64
1, 386734, Note_on_c, 0, 73, 77
1, 386737, Note_on_c, 0, 78, 86
1, 386740, Note_on_c, 0, 66, 90
1, 386750, Note_on_c, 0, 61, 68
1, 386780, Note_on_c, 0, 54, 71
1, 386798, Note_off_c, 0, 66, 58
1, 386807, Note_off_c, 0, 73, 56
1, 386816, Note_off_c, 0, 61, 60
1, 386823, Note_on_c, 0, 49, 65
1, 386844, Note_off_c, 0, 54, 61
1, 386846, Note_off_c, 0, 78, 62
1, 386868, Note_off_c, 0, 49, 62
1, 386920, Control_c, 0, 64, 99
1, 386929, Note_on_c, 0, 73, 71
1, 386929, Note_on_c, 0, 77, 88
1, 386930, Note_on_c, 0, 65, 92
1, 386934, Note_on_c, 0, 71, 78
1, 386935, Control_c, 0, 64, 76
1, 386939, Note_on_c, 0, 44, 79
1, 386949, Control_c, 0, 64, 0
1, 386979, Control_c, 0, 64, 65
1, 386993, Control_c, 0, 64, 85
1, 387008, Control_c, 0, 64, 121
1, 387023, Control_c, 0, 64, 127
1, 387025, Note_off_c, 0, 65, 61
1, 387027, Note_off_c, 0, 44, 63
1, 387035, Note_on_c, 0, 49, 69
1, 387057, Note_off_c, 0, 71, 59
1, 387069, Note_on_c, 0, 53, 71
1, 387075, Note_off_c, 0, 77, 54
1, 387082, Note_off_c, 0, 73, 63
1, 387115, Note_off_c, 0, 49, 62
1, 387131, Note_off_c, 0, 53, 65
1, 387138, Note_on_c, 0, 60, 80
1, 387226, Note_off_c, 0, 60, 62
1, 387230, Note_on_c, 0, 53, 63
1, 387297, Note_on_c, 0, 73, 85
1, 387298, Note_on_c, 0, 83, 87
1, 387299, Note_on_c, 0, 71, 87
1, 387300, Note_off_c, 0, 53, 66
1, 387306, Note_on_c, 0, 77, 72
1, 387324, Note_on_c, 0, 61, 85
1, 387368, Note_off_c, 0, 77, 60
1, 387386, Note_on_c, 0, 49, 64
1, 387389, Note_off_c, 0, 61, 61
1, 387392, Note_off_c, 0, 73, 59
1, 387393, Note_on_c, 0, 53, 57
1, 387404, Note_off_c, 0, 71, 49
1, 387409, Note_off_c, 0, 83, 51
1, 387415, Poly_aftertouch_c, 0, 55, 127
1, 387429, Note_off_c, 0, 53, 65
1, 387445, Poly_aftertouch_c, 0, 55, 0
1, 387449, Note_off_c, 0, 49, 63
1, 387504, Control_c, 0, 64, 98
1, 387514, Note_on_c, 0, 83, 87
1, 387516, Note_on_c, 0, 73, 83
1, 387517, Note_on_c, 0, 71, 87
1, 387518, Note_on_c, 0, 42, 84
1, 387519, Control_c, 0, 64, 73
1, 387526, Note_on_c, 0, 78, 75
1, 387534, Control_c, 0, 64, 0
1, 387564, Control_c, 0, 64, 66
1, 387579, Control_c, 0, 64, 89
1, 387594, Control_c, 0, 64, 127
1, 387612, Note_off_c, 0, 42, 63
1, 387618, Note_off_c, 0, 83, 58
1, 387627, Note_on_c, 0, 49, 76
1, 387650, Note_off_c, 0, 71, 57
1, 387671, Note_off_c, 0, 78, 62
1, 387684, Note_off_c, 0, 73, 53
1, 387685, Note_on_c, 0, 54, 70
1, 387714, Note_off_c, 0, 49, 59
1, 387764, Note_on_c, 0, 63, 87
1, 387781, Note_off_c, 0, 54, 56
1, 387811, Poly_aftertouch_c, 0, 53, 0
1, 387828, Note_off_c, 0, 63, 62
1, 387856, Note_on_c, 0, 54, 55
1, 387889, Note_on_c, 0, 49, 78
1, 387951, Note_off_c, 0, 49, 63
1, 387972, Note_off_c, 0, 54, 60
1, 387989, Note_on_c, 0, 82, 90
1, 387993, Note_on_c, 0, 70, 96
1, 387994, Note_on_c, 0, 73, 80
1, 387999, Note_on_c, 0, 64, 87
1, 388065, Note_off_c, 0, 64, 58
1, 388070, Note_off_c, 0, 70, 57
1, 388088, Note_on_c, 0, 54, 76
1, 388098, Note_off_c, 0, 73, 57
1, 388104, Note_on_c, 0, 62, 35
1, 388110, Note_off_c, 0, 82, 60
1, 388137, Note_off_c, 0, 62, 47
1, 388146, Note_on_c, 0, 49, 81
1, 388178, Note_off_c, 0, 54, 61
1, 388197, Note_off_c, 0, 49, 63
1, 388282, Note_on_c, 0, 43, 89
1, 388282, Note_on_c, 0, 82, 91
1, 388284, Note_on_c, 0, 75, 68
1, 388285, Note_on_c, 0, 70, 93
1, 388288, Note_on_c, 0, 73, 72
1, 388312, Control_c, 0, 64, 94
1, 388327, Control_c, 0, 64, 69
1, 388342, Control_c, 0, 64, 0
1, 388388, Control_c, 0, 64, 74
1, 388399, Note_on_c, 0, 49, 78
1, 388402, Note_off_c, 0, 82, 65
1, 388402, Control_c, 0, 64, 103
1, 388417, Note_off_c, 0, 43, 58
1, 388417, Control_c, 0, 64, 127
1, 388447, Note_off_c, 0, 70, 62
1, 388452, Note_off_c, 0, 73, 62
1, 388456, Note_off_c, 0, 75, 63
1, 388483, Note_on_c, 0, 51, 71
1, 388501, Note_off_c, 0, 49, 61
1, 388529, Note_on_c, 0, 57, 77
1, 388534, Note_off_c, 0, 51, 64
1, 388604, Note_on_c, 0, 51, 76
1, 388634, Note_off_c, 0, 57, 63
1, 388662, Note_on_c, 0, 49, 71
1, 388679, Note_off_c, 0, 51, 60
1, 388700, Note_on_c, 0, 63, 88
1, 388700, Note_on_c, 0, 75, 80
1, 388703, Note_on_c, 0, 70, 74
1, 388704, Note_on_c, 0, 73, 60
1, 388728, Note_off_c, 0, 49, 62
1, 388733, Note_on_c, 0, 58, 78
1, 388742, Note_off_c, 0, 63, 64
1, 388750, Note_off_c, 0, 73, 59
1, 388763, Note_off_c, 0, 70, 61
1, 388782, Note_off_c, 0, 75, 63
1, 388798, Note_on_c, 0, 51, 73
1, 388825, Note_off_c, 0, 58, 60
1, 388888, Note_off_c, 0, 51, 56
1, 388892, Note_on_c, 0, 49, 60
1, 388928, Control_c, 0, 64, 105
1, 388933, Note_off_c, 0, 49, 57
1, 388943, Control_c, 0, 64, 78
1, 388950, Note_on_c, 0, 63, 92
1, 388950, Note_on_c, 0, 70, 74
1, 388951, Note_on_c, 0, 75, 83
1, 388952, Note_on_c, 0, 72, 59
1, 388953, Note_on_c, 0, 44, 76
1, 388958, Control_c, 0, 64, 0
1, 388987, Control_c, 0, 64, 56
1, 389002, Control_c, 0, 64, 79
1, 389017, Control_c, 0, 64, 108
1, 389032, Control_c, 0, 64, 127
1, 389038, Note_off_c, 0, 63, 61
1, 389049, Note_off_c, 0, 44, 63
1, 389062, Note_on_c, 0, 51, 68
1, 389097, Note_off_c, 0, 75, 60
1, 389118, Note_off_c, 0, 51, 63
1, 389119, Note_on_c, 0, 56, 58
1, 389125, Note_off_c, 0, 72, 61
1, 389150, Note_on_c, 0, 69, 91
1, 389171, Note_off_c, 0, 56, 55
1, 389174, Note_on_c, 0, 65, 83
1, 389183, Note_off_c, 0, 70, 47
1, 389194, Note_off_c, 0, 69, 69
1, 389221, Note_off_c, 0, 65, 62
1, 389260, Note_on_c, 0, 56, 68
1, 389286, Note_on_c, 0, 57, 14
1, 389300, Note_off_c, 0, 56, 58
1, 389308, Note_on_c, 0, 80, 97
1, 389310, Note_on_c, 0, 68, 100
1, 389320, Note_on_c, 0, 63, 86
1, 389326, Note_on_c, 0, 75, 64
1, 389349, Note_off_c, 0, 75, 66
1, 389376, Note_on_c, 0, 56, 61
1, 389388, Note_off_c, 0, 63, 62
1, 389394, Note_on_c, 0, 51, 57
1, 389397, Note_off_c, 0, 57, 33
1, 389404, Note_off_c, 0, 80, 60
1, 389409, Note_off_c, 0, 68, 51
1, 389431, Note_off_c, 0, 56, 63
1, 389454, Note_off_c, 0, 51, 63
1, 389469, Control_c, 0, 64, 117
1, 389484, Control_c, 0, 64, 85
1, 389498, Note_on_c, 0, 68, 94
1, 389498, Note_on_c, 0, 80, 91
1, 389499, Control_c, 0, 64, 61
1, 389501, Note_on_c, 0, 75, 77
1, 389503, Note_on_c, 0, 73, 79
1, 389514, Control_c, 0, 64, 0
1, 389516, Note_on_c, 0, 46, 87
1, 389528, Control_c, 0, 64, 58
1, 389543, Control_c, 0, 64, 78
1, 389549, Note_on_c, 0, 78, 24
1, 389558, Control_c, 0, 64, 113
1, 389573, Control_c, 0, 64, 127
1, 389582, Note_off_c, 0, 68, 59
1, 389590, Note_off_c, 0, 78, 48
1, 389606, Note_off_c, 0, 80, 61
1, 389618, Note_off_c, 0, 46, 62
1, 389618, Note_on_c, 0, 51, 67
1, 389627, Note_off_c, 0, 73, 60
1, 389634, Note_off_c, 0, 75, 58
1, 389652, Note_on_c, 0, 55, 68
1, 389663, Note_on_c, 0, 79, 90
1, 389666, Note_on_c, 0, 67, 92
1, 389679, Note_off_c, 0, 51, 62
1, 389685, Note_off_c, 0, 55, 66
1, 389689, Note_off_c, 0, 67, 62
1, 389696, Note_on_c, 0, 69, 57
1, 389702, Note_on_c, 0, 62, 78
1, 389712, Note_off_c, 0, 79, 63
1, 389716, Note_off_c, 0, 69, 65
1, 389780, Note_off_c, 0, 62, 61
1, 389785, Note_on_c, 0, 55, 72
1, 389821, Note_on_c, 0, 85, 96
1, 389822, Note_on_c, 0, 75, 90
1, 389827, Note_on_c, 0, 73, 88
1, 389833, Note_on_c, 0, 79, 67
1, 389847, Note_off_c, 0, 55, 61
1, 389872, Note_on_c, 0, 57, 27
1, 389875, Note_on_c, 0, 63, 90
1, 389908, Note_on_c, 0, 51, 64
1, 389919, Note_off_c, 0, 57, 44
1, 389925, Poly_aftertouch_c, 0, 83, 127
1, 389930, Note_off_c, 0, 63, 63
1, 389936, Note_off_c, 0, 79, 56
1, 389952, Note_off_c, 0, 73, 41
1, 389952, Note_off_c, 0, 75, 59
1, 389952, Note_off_c, 0, 85, 62
1, 389982, Poly_aftertouch_c, 0, 83, 0
1, 389985, Note_off_c, 0, 51, 63
1, 390017, Control_c, 0, 64, 113
1, 390024, Poly_aftertouch_c, 0, 55, 127
1, 390032, Control_c, 0, 64, 81
1, 390033, Note_on_c, 0, 73, 109
1, 390038, Note_on_c, 0, 80, 94
1, 390038, Note_on_c, 0, 85, 95
1, 390047, Control_c, 0, 64, 28
1, 390050, Poly_aftertouch_c, 0, 55, 0
1, 390055, Note_on_c, 0, 44, 84
1, 390062, Control_c, 0, 64, 0
1, 390092, Control_c, 0, 64, 68
1, 390107, Control_c, 0, 64, 89
1, 390122, Control_c, 0, 64, 127
1, 390144, Note_off_c, 0, 44, 62
1, 390155, Note_on_c, 0, 51, 76
1, 390218, Note_off_c, 0, 80, 63
1, 390223, Note_on_c, 0, 56, 80
1, 390230, Note_off_c, 0, 85, 60
1, 390238, Note_off_c, 0, 73, 55
1, 390244, Note_off_c, 0, 51, 60
1, 390294, Note_on_c, 0, 63, 86
1, 390309, Note_off_c, 0, 56, 64
1, 390412, Note_on_c, 0, 57, 46
1, 390424, Note_off_c, 0, 63, 64
1, 390428, Note_on_c, 0, 51, 40
1, 390439, Note_off_c, 0, 57, 54
1, 390460, Note_off_c, 0, 51, 53
1, 390507, Note_on_c, 0, 84, 93
1, 390509, Note_on_c, 0, 72, 97
1, 390511, Note_on_c, 0, 75, 85
1, 390525, Poly_aftertouch_c, 0, 52, 0
1, 390526, Note_on_c, 0, 80, 57
1, 390531, Note_on_c, 0, 68, 93
1, 390546, Note_off_c, 0, 80, 65
1, 390556, Note_off_c, 0, 75, 64
1, 390565, Note_off_c, 0, 72, 50
1, 390606, Note_off_c, 0, 84, 61
1, 390633, Note_on_c, 0, 63, 78
1, 390659, Note_off_c, 0, 68, 60
1, 390687, Note_on_c, 0, 56, 82
1, 390691, Note_off_c, 0, 63, 63
1, 390696, Note_on_c, 0, 80, 9
1, 390728, Note_off_c, 0, 56, 66
1, 390745, Note_off_c, 0, 80, 27
1, 390831, Note_on_c, 0, 72, 103
1, 390831, Note_on_c, 0, 84, 97
1, 390835, Note_on_c, 0, 46, 93
1, 390840, Control_c, 0, 64, 88
1, 390855, Control_c, 0, 64, 56
1, 390870, Control_c, 0, 64, 0
1, 390885, Control_c, 0, 64, 53
1, 390900, Control_c, 0, 64, 78
1, 390914, Note_off_c, 0, 84, 62
1, 390915, Control_c, 0, 64, 109
1, 390919, Note_off_c, 0, 72, 60
1, 390930, Control_c, 0, 64, 127
1, 390955, Note_on_c, 0, 49, 70
1, 390980, Note_off_c, 0, 46, 61
1, 391032, Note_on_c, 0, 54, 68
1, 391061, Note_off_c, 0, 49, 62
1, 391085, Note_on_c, 0, 82, 92
1, 391086, Note_on_c, 0, 70, 99
1, 391096, Note_off_c, 0, 54, 61
1, 391097, Note_on_c, 0, 73, 78
1, 391105, Note_on_c, 0, 80, 63
1, 391110, Note_on_c, 0, 61, 87
1, 391121, Note_off_c, 0, 82, 67
1, 391124, Note_off_c, 0, 73, 58
1, 391144, Note_on_c, 0, 81, 40
1, 391149, Note_off_c, 0, 70, 46
1, 391164, Note_off_c, 0, 80, 63
1, 391168, Note_off_c, 0, 81, 38
1, 391196, Note_on_c, 0, 54, 69
1, 391223, Note_off_c, 0, 61, 0
1, 391236, Note_on_c, 0, 61, 53
1, 391237, Note_on_c, 0, 66, 101
1, 391238, Note_on_c, 0, 78, 90
1, 391245, Note_on_c, 0, 73, 78
1, 391257, Note_on_c, 0, 49, 78
1, 391260, Note_off_c, 0, 61, 69
1, 391268, Note_off_c, 0, 73, 67
1, 391273, Note_off_c, 0, 54, 62
1, 391276, Note_off_c, 0, 66, 66
1, 391281, Note_off_c, 0, 78, 64
1, 391299, Note_off_c, 0, 49, 61
1, 391455, Control_c, 0, 64, 109
1, 391470, Control_c, 0, 64, 75
1, 391479, Note_on_c, 0, 61, 100
1, 391481, Note_on_c, 0, 73, 92
1, 391483, Note_on_c, 0, 34, 82
1, 391485, Control_c, 0, 64, 0
1, 391487, Note_on_c, 0, 66, 90
1, 391514, Control_c, 0, 64, 61
1, 391529, Control_c, 0, 64, 80
1, 391544, Control_c, 0, 64, 114
1, 391546, Note_off_c, 0, 66, 65
1, 391550, Note_off_c, 0, 73, 66
1, 391559, Note_off_c, 0, 61, 58
1, 391560, Control_c, 0, 64, 127
1, 391667, Note_on_c, 0, 42, 63
1, 391701, Note_off_c, 0, 34, 63
1, 391771, Note_off_c, 0, 42, 63
1, 391779, Note_on_c, 0, 58, 97
1, 391779, Note_on_c, 0, 70, 96
1, 391780, Poly_aftertouch_c, 0, 68, 0
1, 391784, Note_on_c, 0, 61, 88
1, 391789, Note_on_c, 0, 49, 82
1, 391797, Note_on_c, 0, 68, 40
1, 391840, Note_off_c, 0, 68, 58
1, 391867, Note_on_c, 0, 42, 78
1, 391880, Note_off_c, 0, 49, 58
1, 391890, Note_off_c, 0, 70, 59
1, 391913, Note_off_c, 0, 58, 62
1, 391933, Note_off_c, 0, 61, 54
1, 391938, Note_off_c, 0, 42, 62
1, 391965, Note_on_c, 0, 49, 70
1, 392029, Note_on_c, 0, 42, 56
1, 392113, Note_on_c, 0, 68, 85
1, 392114, Note_on_c, 0, 56, 92
1, 392116, Note_on_c, 0, 61, 84
1, 392117, Note_off_c, 0, 49, 57
1, 392135, Note_off_c, 0, 56, 70
1, 392138, Note_off_c, 0, 61, 66
1, 392164, Note_off_c, 0, 68, 62
1, 392177, Note_off_c, 0, 42, 62
1, 392188, Note_on_c, 0, 68, 85
1, 392192, Note_on_c, 0, 56, 103
1, 392195, Note_on_c, 0, 61, 97
1, 392203, Note_on_c, 0, 34, 88
1, 392203, Control_c, 0, 64, 107
1, 392218, Control_c, 0, 64, 79
1, 392233, Control_c, 0, 64, 0
1, 392292, Control_c, 0, 64, 69
1, 392307, Control_c, 0, 64, 82
1, 392322, Control_c, 0, 64, 100
1, 392336, Control_c, 0, 64, 115
1, 392351, Control_c, 0, 64, 127
1, 392420, Note_on_c, 0, 42, 70
1, 392420, Note_off_c, 0, 34, 60
1, 392459, Note_off_c, 0, 68, 60
1, 392481, Note_off_c, 0, 61, 56
1, 392495, Note_off_c, 0, 56, 56
1, 392510, Note_off_c, 0, 42, 63
1, 392517, Note_on_c, 0, 49, 69
1, 392593, Note_on_c, 0, 42, 69
1, 392605, Note_off_c, 0, 49, 60
1, 392635, Note_on_c, 0, 66, 86
1, 392635, Note_on_c, 0, 54, 88
1, 392643, Note_on_c, 0, 61, 75
1, 392654, Note_off_c, 0, 42, 60
1, 392667, Note_on_c, 0, 49, 68
1, 392711, Note_on_c, 0, 42, 62
1, 392747, Note_off_c, 0, 49, 61
1, 392800, Note_off_c, 0, 42, 61
1, 392804, Control_c, 0, 64, 116
1, 392819, Control_c, 0, 64, 86
1, 392828, Note_on_c, 0, 34, 79
1, 392834, Control_c, 0, 64, 58
1, 392849, Control_c, 0, 64, 0
1, 392879, Control_c, 0, 64, 65
1, 392890, Note_off_c, 0, 61, 56
1, 392894, Control_c, 0, 64, 84
1, 392898, Note_off_c, 0, 66, 55
1, 392909, Control_c, 0, 64, 106
1, 392912, Note_off_c, 0, 54, 58
1, 392924, Control_c, 0, 64, 127
1, 392957, Note_on_c, 0, 42, 71
1, 392974, Note_off_c, 0, 34, 63
1, 393016, Note_on_c, 0, 65, 80
1, 393019, Note_on_c, 0, 53, 80
1, 393025, Note_on_c, 0, 61, 76
1, 393039, Note_off_c, 0, 42, 63
1, 393043, Note_on_c, 0, 49, 77
1, 393061, Note_off_c, 0, 53, 64
1, 393082, Note_off_c, 0, 65, 63
1, 393083, Note_off_c, 0, 61, 61
1, 393110, Note_on_c, 0, 42, 70
1, 393129, Note_off_c, 0, 49, 58
1, 393192, Note_off_c, 0, 42, 60
1, 393216, Note_on_c, 0, 49, 60
1, 393264, Note_on_c, 0, 42, 47
1, 393280, Note_on_c, 0, 61, 61
1, 393284, Note_on_c, 0, 66, 74
1, 393286, Note_on_c, 0, 54, 71
1, 393308, Note_off_c, 0, 49, 60
1, 393309, Note_off_c, 0, 61, 65
1, 393311, Note_off_c, 0, 54, 66
1, 393320, Note_off_c, 0, 66, 63
1, 393344, Note_off_c, 0, 42, 62
1, 393383, Note_on_c, 0, 67, 82
1, 393383, Note_on_c, 0, 34, 75
1, 393389, Note_on_c, 0, 65, 69
1, 393390, Note_on_c, 0, 55, 73
1, 393406, Control_c, 0, 64, 96
1, 393421, Control_c, 0, 64, 72
1, 393435, Control_c, 0, 64, 0
1, 393480, Control_c, 0, 64, 49
1, 393495, Control_c, 0, 64, 73
1, 393509, Control_c, 0, 64, 88
1, 393524, Control_c, 0, 64, 105
1, 393539, Control_c, 0, 64, 116
1, 393546, Note_on_c, 0, 41, 65
1, 393554, Control_c, 0, 64, 121
1, 393568, Control_c, 0, 64, 127
1, 393594, Note_off_c, 0, 34, 39
1, 393612, Note_off_c, 0, 41, 63
1, 393633, Note_on_c, 0, 49, 64
1, 393649, Note_off_c, 0, 65, 50
1, 393669, Note_off_c, 0, 67, 54
1, 393677, Note_off_c, 0, 55, 56
1, 393692, Note_off_c, 0, 49, 60
1, 393698, Note_on_c, 0, 41, 63
1, 393735, Note_off_c, 0, 41, 61
1, 393773, Note_on_c, 0, 49, 56
1, 393799, Note_on_c, 0, 67, 67
1, 393801, Note_on_c, 0, 55, 71
1, 393804, Note_on_c, 0, 65, 69
1, 393816, Note_on_c, 0, 61, 60
1, 393817, Note_off_c, 0, 49, 60
1, 393818, Note_on_c, 0, 41, 60
1, 393828, Note_off_c, 0, 55, 63
1, 393838, Note_off_c, 0, 65, 61
1, 393847, Note_off_c, 0, 61, 63
1, 393857, Note_off_c, 0, 41, 62
1, 393860, Note_off_c, 0, 67, 60
1, 393889, Note_on_c, 0, 49, 71
1, 393946, Note_off_c, 0, 49, 60
1, 393947, Note_on_c, 0, 41, 63
1, 394011, Note_on_c, 0, 68, 74
1, 394015, Note_off_c, 0, 41, 61
1, 394017, Note_on_c, 0, 56, 75
1, 394017, Note_on_c, 0, 65, 60
1, 394030, Note_on_c, 0, 36, 72
1, 394036, Control_c, 0, 64, 101
1, 394051, Control_c, 0, 64, 75
1, 394065, Control_c, 0, 64, 0
1, 394095, Control_c, 0, 64, 34
1, 394110, Control_c, 0, 64, 73
1, 394125, Control_c, 0, 64, 90
1, 394131, Note_off_c, 0, 36, 61
1, 394133, Note_on_c, 0, 41, 70
1, 394140, Control_c, 0, 64, 114
1, 394155, Control_c, 0, 64, 127
1, 394182, Note_off_c, 0, 41, 65
1, 394205, Note_off_c, 0, 65, 56
1, 394208, Note_off_c, 0, 56, 53
1, 394209, Note_on_c, 0, 48, 63
1, 394218, Note_off_c, 0, 68, 60
1, 394276, Note_off_c, 0, 48, 60
1, 394283, Note_on_c, 0, 49, 74
1, 394337, Note_off_c, 0, 49, 61
1, 394356, Note_on_c, 0, 50, 74
1, 394387, Note_on_c, 0, 69, 73
1, 394393, Note_on_c, 0, 57, 72
1, 394399, Note_on_c, 0, 65, 69
1, 394418, Note_off_c, 0, 50, 61
1, 394422, Note_on_c, 0, 51, 69
1, 394426, Note_off_c, 0, 57, 63
1, 394437, Note_off_c, 0, 65, 63
1, 394452, Note_on_c, 0, 52, 68
1, 394459, Note_off_c, 0, 69, 64
1, 394483, Note_off_c, 0, 51, 62
1, 394501, Note_off_c, 0, 52, 63
1, 394516, Note_on_c, 0, 53, 64
1, 394534, Note_off_c, 0, 53, 65
1, 394584, Control_c, 0, 64, 122
1, 394599, Control_c, 0, 64, 95
1, 394600, Note_on_c, 0, 72, 82
1, 394603, Note_on_c, 0, 60, 81
1, 394605, Note_on_c, 0, 37, 79
1, 394608, Note_on_c, 0, 65, 72
1, 394614, Control_c, 0, 64, 70
1, 394629, Control_c, 0, 64, 0
1, 394658, Control_c, 0, 64, 60
1, 394673, Control_c, 0, 64, 77
1, 394695, Control_c, 0, 64, 96
1, 394701, Note_on_c, 0, 46, 76
1, 394706, Note_off_c, 0, 37, 65
1, 394709, Control_c, 0, 64, 117
1, 394724, Control_c, 0, 64, 127
1, 394739, Note_off_c, 0, 72, 61
1, 394744, Note_off_c, 0, 46, 62
1, 394769, Note_off_c, 0, 60, 58
1, 394796, Note_on_c, 0, 48, 77
1, 394820, Note_off_c, 0, 65, 60
1, 394858, Note_on_c, 0, 49, 80
1, 394874, Note_off_c, 0, 48, 64
1, 394915, Note_on_c, 0, 50, 73
1, 394918, Note_off_c, 0, 49, 61
1, 394951, Note_on_c, 0, 58, 90
1, 394951, Note_on_c, 0, 65, 83
1, 394953, Note_on_c, 0, 70, 89
1, 394981, Note_off_c, 0, 58, 60
1, 394993, Note_on_c, 0, 51, 81
1, 394993, Note_off_c, 0, 65, 67
1, 394997, Note_off_c, 0, 50, 55
1, 395019, Note_off_c, 0, 70, 60
1, 395027, Note_on_c, 0, 52, 72
1, 395079, Note_off_c, 0, 51, 61
1, 395097, Note_on_c, 0, 53, 81
1, 395103, Note_off_c, 0, 52, 65
1, 395149, Note_off_c, 0, 53, 65
1, 395185, Control_c, 0, 64, 124
1, 395195, Note_on_c, 0, 40, 84
1, 395195, Note_on_c, 0, 73, 87
1, 395197, Note_on_c, 0, 61, 97
1, 395198, Note_on_c, 0, 67, 86
1, 395200, Control_c, 0, 64, 85
1, 395214, Control_c, 0, 64, 55
1, 395229, Control_c, 0, 64, 0
1, 395259, Control_c, 0, 64, 70
1, 395274, Control_c, 0, 64, 90
1, 395275, Note_off_c, 0, 67, 63
1, 395276, Note_off_c, 0, 61, 60
1, 395284, Note_off_c, 0, 73, 64
1, 395288, Control_c, 0, 64, 127
1, 395304, Note_on_c, 0, 48, 78
1, 395333, Note_off_c, 0, 48, 67
1, 395353, Note_off_c, 0, 40, 61
1, 395398, Note_on_c, 0, 59, 95
1, 395403, Note_on_c, 0, 67, 81
1, 395404, Note_on_c, 0, 71, 85
1, 395404, Note_on_c, 0, 50, 79
1, 395417, Note_on_c, 0, 69, 62
1, 395443, Note_off_c, 0, 59, 65
1, 395446, Note_off_c, 0, 69, 61
1, 395456, Note_off_c, 0, 67, 64
1, 395457, Note_off_c, 0, 71, 62
1, 395463, Note_off_c, 0, 50, 63
1, 395480, Note_on_c, 0, 51, 76
1, 395557, Note_off_c, 0, 51, 63
1, 395562, Note_on_c, 0, 60, 98
1, 395564, Note_on_c, 0, 67, 89
1, 395565, Note_on_c, 0, 72, 91
1, 395573, Note_on_c, 0, 53, 81
1, 395599, Note_off_c, 0, 60, 65
1, 395604, Poly_aftertouch_c, 0, 52, 127
1, 395607, Note_off_c, 0, 67, 61
1, 395615, Note_off_c, 0, 72, 62
1, 395628, Poly_aftertouch_c, 0, 52, 0
1, 395646, Note_on_c, 0, 54, 83
1, 395654, Note_off_c, 0, 53, 61
1, 395707, Note_off_c, 0, 54, 62
1, 395732, Note_on_c, 0, 55, 61
1, 395762, Note_off_c, 0, 55, 67
1, 395768, Note_on_c, 0, 53, 26
1, 395770, Control_c, 0, 64, 122
1, 395785, Note_on_c, 0, 63, 98
1, 395785, Control_c, 0, 64, 85
1, 395788, Note_on_c, 0, 68, 92
1, 395788, Note_on_c, 0, 75, 95
1, 395800, Control_c, 0, 64, 25
1, 395805, Note_on_c, 0, 41, 85
1, 395805, Note_off_c, 0, 53, 56
1, 395815, Control_c, 0, 64, 0
1, 395845, Control_c, 0, 64, 66
1, 395860, Control_c, 0, 64, 85
1, 395866, Note_off_c, 0, 41, 66
1, 395875, Control_c, 0, 64, 127
1, 395899, Note_on_c, 0, 49, 80
1, 395908, Note_off_c, 0, 75, 61
1, 395955, Note_off_c, 0, 49, 60
1, 395975, Note_off_c, 0, 63, 55
1, 395977, Note_off_c, 0, 68, 54
1, 395985, Note_on_c, 0, 51, 73
1, 396045, Note_on_c, 0, 52, 77
1, 396065, Note_off_c, 0, 51, 54
1, 396106, Note_on_c, 0, 53, 82
1, 396106, Note_off_c, 0, 52, 66
1, 396143, Note_on_c, 0, 61, 96
1, 396143, Note_on_c, 0, 73, 86
1, 396149, Note_on_c, 0, 68, 83
1, 396197, Note_off_c, 0, 61, 60
1, 396252, Note_off_c, 0, 73, 60
1, 396254, Note_off_c, 0, 68, 64
1, 396256, Note_off_c, 0, 53, 67
1, 396333, Note_on_c, 0, 43, 102
1, 396343, Control_c, 0, 64, 86
1, 396358, Control_c, 0, 64, 0
1, 396402, Control_c, 0, 64, 60
1, 396417, Control_c, 0, 64, 83
1, 396432, Control_c, 0, 64, 114
1, 396447, Control_c, 0, 64, 127
1, 396449, Note_on_c, 0, 52, 84
1, 396451, Note_on_c, 0, 50, 69
1, 396451, Note_off_c, 0, 43, 60
1, 396481, Note_off_c, 0, 50, 59
1, 396538, Note_on_c, 0, 63, 98
1, 396543, Note_on_c, 0, 53, 82
1, 396543, Note_on_c, 0, 75, 88
1, 396546, Note_on_c, 0, 72, 79
1, 396566, Note_off_c, 0, 52, 0
1, 396576, Note_off_c, 0, 63, 65
1, 396584, Note_off_c, 0, 72, 62
1, 396604, Poly_aftertouch_c, 0, 52, 0
1, 396610, Note_off_c, 0, 75, 62
1, 396630, Note_off_c, 0, 53, 59
1, 396632, Note_on_c, 0, 54, 72
1, 396709, Note_off_c, 0, 54, 62
1, 396733, Note_on_c, 0, 72, 82
1, 396736, Note_on_c, 0, 64, 98
1, 396744, Note_on_c, 0, 76, 89
1, 396773, Note_off_c, 0, 64, 67
1, 396776, Note_off_c, 0, 72, 67
1, 396798, Note_off_c, 0, 76, 64
1, 396920, Control_c, 0, 64, 101
1, 396942, Note_on_c, 0, 65, 91
1, 396942, Control_c, 0, 64, 68
1, 396944, Note_on_c, 0, 44, 85
1, 396947, Note_on_c, 0, 72, 82
1, 396947, Note_on_c, 0, 77, 90
1, 396957, Control_c, 0, 64, 0
1, 396987, Control_c, 0, 64, 62
1, 396994, Note_off_c, 0, 65, 58
1, 397002, Control_c, 0, 64, 86
1, 397014, Note_on_c, 0, 53, 71
1, 397017, Control_c, 0, 64, 127
1, 397017, Note_off_c, 0, 44, 63
1, 397041, Note_off_c, 0, 72, 61
1, 397042, Note_on_c, 0, 75, 76
1, 397079, Note_off_c, 0, 77, 62
1, 397085, Note_off_c, 0, 53, 65
1, 397112, Note_on_c, 0, 73, 70
1, 397121, Note_off_c, 0, 75, 63
1, 397128, Note_on_c, 0, 56, 78
1, 397138, Note_off_c, 0, 73, 67
1, 397195, Note_on_c, 0, 70, 105
1, 397199, Note_on_c, 0, 82, 89
1, 397210, Note_on_c, 0, 73, 66
1, 397222, Note_on_c, 0, 61, 76
1, 397227, Note_on_c, 0, 80, 44
1, 397238, Note_off_c, 0, 56, 63
1, 397252, Note_off_c, 0, 80, 59
1, 397265, Note_off_c, 0, 82, 67
1, 397306, Note_off_c, 0, 61, 63
1, 397338, Note_on_c, 0, 65, 85
1, 397345, Note_off_c, 0, 70, 57
1, 397418, Note_off_c, 0, 73, 60
1, 397450, Note_on_c, 0, 68, 105
1, 397455, Note_on_c, 0, 77, 88
1, 397457, Note_on_c, 0, 80, 92
1, 397461, Note_on_c, 0, 61, 83
1, 397482, Note_on_c, 0, 78, 55
1, 397483, Note_off_c, 0, 78, 127
1, 397493, Note_off_c, 0, 65, 63
1, 397505, Note_on_c, 0, 56, 69
1, 397528, Note_off_c, 0, 80, 64
1, 397530, Note_off_c, 0, 61, 63
1, 397532, Note_off_c, 0, 68, 58
1, 397554, Note_off_c, 0, 77, 56
1, 397568, Note_off_c, 0, 56, 64
1, 397642, Note_on_c, 0, 53, 101
1, 397693, Note_off_c, 0, 53, 68
1, 397884, Control_c, 0, 64, 112
1, 397888, Note_on_c, 0, 72, 62
1, 397893, Note_on_c, 0, 66, 101
1, 397896, Note_on_c, 0, 80, 92
1, 397897, Note_on_c, 0, 32, 88
1, 397899, Control_c, 0, 64, 78
1, 397914, Control_c, 0, 64, 0
1, 397950, Note_on_c, 0, 73, 5
1, 397951, Note_off_c, 0, 73, 127
1, 397973, Control_c, 0, 64, 75
1, 397988, Control_c, 0, 64, 101
1, 398003, Control_c, 0, 64, 127
1, 398058, Note_off_c, 0, 32, 62
1, 398127, Note_off_c, 0, 66, 56
1, 398162, Note_on_c, 0, 44, 78
1, 398256, Poly_aftertouch_c, 0, 42, 0
1, 398260, Note_on_c, 0, 51, 79
1, 398266, Note_off_c, 0, 44, 61
1, 398273, Note_off_c, 0, 72, 56
1, 398286, Note_off_c, 0, 80, 60
1, 398331, Note_off_c, 0, 51, 58
1, 398349, Note_on_c, 0, 60, 84
1, 398406, Note_off_c, 0, 60, 60
1, 398434, Note_on_c, 0, 56, 85
1, 398490, Note_off_c, 0, 56, 66
1, 398533, Note_on_c, 0, 66, 88
1, 398553, Note_off_c, 0, 66, 73
1, 398620, Note_on_c, 0, 78, 92
1, 398620, Note_on_c, 0, 66, 98
1, 398622, Note_on_c, 0, 72, 82
1, 398635, Note_on_c, 0, 60, 89
1, 398731, Note_on_c, 0, 56, 85
1, 398736, Note_off_c, 0, 72, 61
1, 398738, Note_off_c, 0, 66, 59
1, 398763, Note_off_c, 0, 78, 55
1, 398772, Note_off_c, 0, 60, 58
1, 398814, Note_on_c, 0, 51, 85
1, 398819, Note_off_c, 0, 56, 67
1, 398856, Note_off_c, 0, 51, 65
1, 399005, Note_on_c, 0, 77, 89
1, 399007, Note_on_c, 0, 37, 93
1, 399007, Note_on_c, 0, 65, 91
1, 399009, Note_on_c, 0, 68, 86
1, 399011, Note_on_c, 0, 73, 74
1, 399020, Control_c, 0, 64, 101
1, 399035, Control_c, 0, 64, 74
1, 399049, Control_c, 0, 64, 0
1, 399138, Control_c, 0, 64, 34
1, 399153, Control_c, 0, 64, 77
1, 399168, Control_c, 0, 64, 94
1, 399190, Control_c, 0, 64, 119
1, 399204, Control_c, 0, 64, 127
1, 399208, Note_on_c, 0, 44, 74
1, 399220, Note_off_c, 0, 65, 61
1, 399246, Note_off_c, 0, 68, 60
1, 399247, Note_off_c, 0, 77, 48
1, 399261, Note_off_c, 0, 37, 62
1, 399263, Note_off_c, 0, 73, 57
1, 399285, Note_on_c, 0, 49, 74
1, 399301, Note_off_c, 0, 44, 64
1, 399312, Note_off_c, 0, 49, 64
1, 399329, Note_on_c, 0, 65, 70
1, 399384, Note_on_c, 0, 49, 68
1, 399392, Note_off_c, 0, 65, 60
1, 399399, Note_on_c, 0, 68, 66
1, 399427, Note_off_c, 0, 49, 53
1, 399440, Note_on_c, 0, 56, 68
1, 399455, Note_off_c, 0, 68, 64
1, 399458, Note_on_c, 0, 77, 74
1, 399481, Note_off_c, 0, 77, 69
1, 399494, Note_on_c, 0, 61, 72
1, 399501, Note_off_c, 0, 56, 63
1, 399517, Note_off_c, 0, 61, 68
1, 399531, Note_on_c, 0, 77, 72
1, 399595, Note_off_c, 0, 77, 63
1, 399598, Note_on_c, 0, 80, 74
1, 399613, Note_on_c, 0, 61, 28
1, 399638, Note_on_c, 0, 68, 52
1, 399646, Note_on_c, 0, 89, 83
1, 399649, Note_off_c, 0, 61, 33
1, 399651, Note_off_c, 0, 80, 57
1, 399671, Note_on_c, 0, 73, 97
1, 399677, Note_off_c, 0, 68, 0
1, 399695, Note_on_c, 0, 68, 43
1, 399715, Note_off_c, 0, 73, 63
1, 399717, Note_on_c, 0, 80, 68
1, 399729, Note_off_c, 0, 68, 50
1, 399755, Note_off_c, 0, 89, 64
1, 399777, Note_on_c, 0, 61, 68
1, 399784, Note_on_c, 0, 77, 69
1, 399789, Note_off_c, 0, 80, 64
1, 399807, Note_off_c, 0, 61, 64
1, 399808, Note_off_c, 0, 77, 67
1, 399866, Note_on_c, 0, 61, 84
1, 399869, Note_on_c, 0, 77, 82
1, 399941, Note_on_c, 0, 68, 77
1, 399950, Note_off_c, 0, 61, 60
1, 399953, Note_on_c, 0, 56, 68
1, 399970, Note_off_c, 0, 77, 59
1, 400004, Note_on_c, 0, 49, 72
1, 400005, Note_on_c, 0, 65, 83
1, 400006, Note_off_c, 0, 56, 62
1, 400015, Note_off_c, 0, 68, 58
1, 400027, Note_off_c, 0, 49, 66
1, 400041, Note_off_c, 0, 65, 64
1, 400081, Note_on_c, 0, 49, 86
1, 400092, Note_on_c, 0, 65, 83
1, 400154, Note_on_c, 0, 44, 68
1, 400158, Note_on_c, 0, 56, 72
1, 400161, Note_off_c, 0, 49, 60
1, 400192, Note_off_c, 0, 65, 60
1, 400215, Note_on_c, 0, 37, 78
1, 400232, Note_on_c, 0, 53, 77
1, 400235, Note_off_c, 0, 56, 61
1, 400236, Note_off_c, 0, 44, 62
1, 400268, Note_off_c, 0, 37, 64
1, 400271, Note_off_c, 0, 53, 65
1, 400295, Control_c, 0, 64, 105
1, 400310, Control_c, 0, 64, 77
1, 400313, Note_on_c, 0, 37, 84
1, 400317, Note_on_c, 0, 65, 88
1, 400324, Control_c, 0, 64, 0
1, 400369, Control_c, 0, 64, 71
1, 400384, Control_c, 0, 64, 89
1, 400396, Note_on_c, 0, 53, 78
1, 400399, Control_c, 0, 64, 122
1, 400414, Control_c, 0, 64, 127
1, 400418, Note_off_c, 0, 65, 59
1, 400453, Note_off_c, 0, 53, 66
1, 400473, Note_on_c, 0, 45, 68
1, 400473, Note_on_c, 0, 57, 68
1, 400498, Note_off_c, 0, 37, 63
1, 400518, Note_on_c, 0, 49, 67
1, 400524, Note_off_c, 0, 45, 64
1, 400528, Note_off_c, 0, 57, 60
1, 400529, Note_on_c, 0, 65, 72
1, 400547, Note_off_c, 0, 49, 64
1, 400558, Note_off_c, 0, 65, 68
1, 400600, Note_on_c, 0, 65, 77
1, 400641, Note_on_c, 0, 49, 37
1, 400657, Note_on_c, 0, 58, 65
1, 400670, Note_off_c, 0, 49, 54
1, 400683, Note_on_c, 0, 69, 83
1, 400686, Note_off_c, 0, 65, 63
1, 400729, Note_off_c, 0, 58, 62
1, 400734, Note_off_c, 0, 69, 65
1, 400738, Note_on_c, 0, 61, 75
1, 400740, Note_on_c, 0, 77, 74
1, 400764, Note_off_c, 0, 61, 67
1, 400773, Note_off_c, 0, 77, 61
1, 400807, Note_on_c, 0, 77, 79
1, 400856, Note_on_c, 0, 69, 74
1, 400868, Note_off_c, 0, 77, 59
1, 400873, Note_on_c, 0, 61, 14
1, 400874, Note_on_c, 0, 81, 84
1, 400898, Note_off_c, 0, 69, 44
1, 400908, Note_on_c, 0, 65, 29
1, 400915, Note_off_c, 0, 61, 39
1, 400918, Note_off_c, 0, 81, 59
1, 400919, Note_on_c, 0, 89, 90
1, 400924, Note_on_c, 0, 73, 93
1, 400947, Note_off_c, 0, 65, 43
1, 400975, Note_off_c, 0, 73, 67
1, 400975, Note_on_c, 0, 69, 24
1, 400990, Note_on_c, 0, 81, 83
1, 400994, Note_off_c, 0, 89, 59
1, 401011, Note_off_c, 0, 69, 56
1, 401031, Note_on_c, 0, 61, 66
1, 401041, Note_on_c, 0, 77, 75
1, 401055, Note_off_c, 0, 81, 60
1, 401056, Note_off_c, 0, 61, 66
1, 401076, Note_off_c, 0, 77, 61
1, 401111, Note_on_c, 0, 61, 83
1, 401121, Note_on_c, 0, 77, 84
1, 401175, Note_off_c, 0, 61, 60
1, 401182, Note_on_c, 0, 69, 79
1, 401197, Note_on_c, 0, 57, 59
1, 401212, Note_off_c, 0, 77, 56
1, 401246, Note_off_c, 0, 57, 61
1, 401247, Note_on_c, 0, 65, 81
1, 401248, Note_off_c, 0, 69, 64
1, 401249, Note_on_c, 0, 49, 72
1, 401275, Note_off_c, 0, 65, 68
1, 401276, Note_off_c, 0, 49, 64
1, 401324, Note_on_c, 0, 49, 92
1, 401330, Note_on_c, 0, 65, 92
1, 401365, Note_on_c, 0, 45, 65
1, 401372, Note_off_c, 0, 49, 60
1, 401389, Note_on_c, 0, 57, 77
1, 401438, Note_off_c, 0, 65, 62
1, 401472, Note_on_c, 0, 37, 77
1, 401477, Note_on_c, 0, 53, 79
1, 401484, Note_off_c, 0, 57, 61
1, 401497, Note_off_c, 0, 45, 64
1, 401519, Note_off_c, 0, 37, 64
1, 401527, Note_off_c, 0, 53, 65
1, 401554, Control_c, 0, 64, 103
1, 401569, Control_c, 0, 64, 75
1, 401574, Note_on_c, 0, 65, 85
1, 401579, Note_on_c, 0, 37, 89
1, 401583, Control_c, 0, 64, 0
1, 401628, Control_c, 0, 64, 63
1, 401643, Control_c, 0, 64, 82
1, 401658, Control_c, 0, 64, 106
1, 401660, Note_on_c, 0, 53, 85
1, 401672, Note_off_c, 0, 65, 58
1, 401673, Control_c, 0, 64, 127
1, 401742, Note_on_c, 0, 58, 74
1, 401744, Note_off_c, 0, 53, 61
1, 401744, Note_on_c, 0, 46, 75
1, 401770, Note_off_c, 0, 37, 61
1, 401780, Poly_aftertouch_c, 0, 41, 127
1, 401803, Note_on_c, 0, 49, 72
1, 401803, Note_on_c, 0, 65, 73
1, 401807, Note_off_c, 0, 58, 65
1, 401814, Note_off_c, 0, 46, 61
1, 401828, Note_off_c, 0, 49, 64
1, 401829, Poly_aftertouch_c, 0, 41, 0
1, 401836, Note_off_c, 0, 65, 65
1, 401881, Note_on_c, 0, 65, 77
1, 401893, Note_on_c, 0, 49, 74
1, 401935, Note_off_c, 0, 49, 49
1, 401955, Note_on_c, 0, 70, 82
1, 401970, Note_on_c, 0, 58, 69
1, 401978, Note_off_c, 0, 65, 61
1, 402023, Note_on_c, 0, 77, 80
1, 402025, Note_off_c, 0, 70, 63
1, 402030, Note_on_c, 0, 61, 80
1, 402046, Note_off_c, 0, 58, 63
1, 402051, Note_off_c, 0, 77, 63
1, 402051, Note_off_c, 0, 61, 69
1, 402101, Note_on_c, 0, 77, 75
1, 402158, Note_on_c, 0, 61, 22
1, 402178, Note_on_c, 0, 82, 84
1, 402185, Note_off_c, 0, 77, 60
1, 402198, Note_on_c, 0, 70, 63
1, 402199, Note_off_c, 0, 61, 43
1, 402236, Note_on_c, 0, 89, 90
1, 402245, Note_on_c, 0, 73, 98
1, 402247, Note_off_c, 0, 82, 61
1, 402247, Poly_aftertouch_c, 0, 65, 127
1, 402275, Note_off_c, 0, 70, 64
1, 402289, Note_off_c, 0, 73, 65
1, 402317, Note_on_c, 0, 82, 85
1, 402339, Note_off_c, 0, 89, 63
1, 402344, Poly_aftertouch_c, 0, 65, 0
1, 402352, Note_on_c, 0, 61, 65
1, 402369, Note_on_c, 0, 77, 76
1, 402375, Note_off_c, 0, 82, 63
1, 402380, Note_off_c, 0, 61, 64
1, 402411, Note_off_c, 0, 77, 61
1, 402443, Note_on_c, 0, 61, 82
1, 402454, Note_on_c, 0, 77, 83
1, 402507, Note_off_c, 0, 61, 59
1, 402526, Note_on_c, 0, 70, 80
1, 402552, Note_on_c, 0, 58, 16
1, 402555, Note_off_c, 0, 77, 57
1, 402579, Note_off_c, 0, 58, 33
1, 402581, Note_on_c, 0, 49, 65
1, 402594, Note_on_c, 0, 65, 84
1, 402597, Note_off_c, 0, 70, 59
1, 402607, Note_off_c, 0, 49, 58
1, 402631, Note_off_c, 0, 65, 63
1, 402641, Poly_aftertouch_c, 0, 57, 0
1, 402673, Note_on_c, 0, 49, 87
1, 402680, Note_on_c, 0, 65, 86
1, 402750, Note_off_c, 0, 49, 57
1, 402755, Note_on_c, 0, 46, 74
1, 402757, Note_on_c, 0, 58, 77
1, 402776, Note_off_c, 0, 65, 61
1, 402811, Note_on_c, 0, 37, 77
1, 402827, Note_off_c, 0, 46, 61
1, 402833, Note_on_c, 0, 53, 82
1, 402848, Note_off_c, 0, 58, 64
1, 402871, Note_off_c, 0, 37, 65
1, 402883, Note_off_c, 0, 53, 66
1, 402911, Control_c, 0, 64, 107
1, 402934, Note_on_c, 0, 37, 90
1, 402934, Control_c, 0, 64, 81
1, 402940, Note_on_c, 0, 67, 89
1, 402948, Control_c, 0, 64, 0
1, 402993, Control_c, 0, 64, 38
1, 402995, Note_off_c, 0, 67, 63
1, 403008, Control_c, 0, 64, 75
1, 403022, Control_c, 0, 64, 92
1, 403034, Note_on_c, 0, 53, 86
1, 403037, Control_c, 0, 64, 115
1, 403052, Control_c, 0, 64, 126
1, 403067, Control_c, 0, 64, 127
1, 403098, Note_off_c, 0, 53, 66
1, 403108, Note_on_c, 0, 43, 69
1, 403115, Note_on_c, 0, 59, 73
1, 403160, Note_off_c, 0, 37, 61
1, 403184, Note_on_c, 0, 49, 71
1, 403184, Note_off_c, 0, 43, 61
1, 403193, Note_on_c, 0, 67, 82
1, 403193, Note_off_c, 0, 59, 62
1, 403211, Note_off_c, 0, 49, 63
1, 403232, Note_off_c, 0, 67, 64
1, 403274, Note_on_c, 0, 65, 89
1, 403276, Note_on_c, 0, 49, 75
1, 403330, Note_off_c, 0, 49, 58
1, 403342, Note_on_c, 0, 55, 69
1, 403345, Note_off_c, 0, 65, 65
1, 403355, Note_on_c, 0, 71, 86
1, 403424, Note_on_c, 0, 61, 82
1, 403425, Note_off_c, 0, 55, 64
1, 403430, Note_on_c, 0, 79, 81
1, 403430, Note_off_c, 0, 71, 60
1, 403443, Note_off_c, 0, 61, 68
1, 403463, Note_off_c, 0, 79, 64
1, 403503, Note_on_c, 0, 77, 91
1, 403526, Note_on_c, 0, 61, 75
1, 403581, Note_off_c, 0, 61, 61
1, 403589, Note_on_c, 0, 83, 89
1, 403590, Note_on_c, 0, 67, 71
1, 403604, Note_off_c, 0, 77, 59
1, 403673, Note_off_c, 0, 67, 61
1, 403673, Note_off_c, 0, 83, 60
1, 403692, Note_on_c, 0, 91, 100
1, 403702, Note_on_c, 0, 73, 94
1, 403765, Note_off_c, 0, 73, 61
1, 403778, Note_on_c, 0, 83, 90
1, 403796, Note_off_c, 0, 91, 57
1, 403807, Note_on_c, 0, 67, 65
1, 403848, Note_off_c, 0, 67, 63
1, 403850, Note_on_c, 0, 61, 72
1, 403861, Note_on_c, 0, 77, 84
1, 403872, Note_off_c, 0, 83, 58
1, 403879, Note_off_c, 0, 61, 65
1, 403902, Note_off_c, 0, 77, 66
1, 403954, Note_on_c, 0, 61, 83
1, 403957, Note_on_c, 0, 79, 94
1, 404013, Note_off_c, 0, 61, 61
1, 404034, Note_on_c, 0, 55, 65
1, 404037, Note_on_c, 0, 71, 80
1, 404061, Note_off_c, 0, 79, 57
1, 404116, Note_on_c, 0, 49, 78
1, 404119, Note_off_c, 0, 55, 65
1, 404123, Note_on_c, 0, 65, 83
1, 404123, Note_off_c, 0, 71, 59
1, 404150, Note_off_c, 0, 49, 65
1, 404159, Note_off_c, 0, 65, 67
1, 404219, Note_on_c, 0, 67, 90
1, 404222, Note_on_c, 0, 49, 86
1, 404291, Note_off_c, 0, 49, 56
1, 404301, Note_on_c, 0, 43, 67
1, 404304, Note_on_c, 0, 59, 83
1, 404315, Note_off_c, 0, 67, 56
1, 404378, Note_off_c, 0, 59, 60
1, 404387, Note_on_c, 0, 37, 81
1, 404399, Note_on_c, 0, 53, 86
1, 404403, Note_off_c, 0, 43, 61
1, 404450, Note_off_c, 0, 53, 66
1, 404456, Note_off_c, 0, 37, 65
1, 404570, Note_on_c, 0, 65, 25
1, 404579, Control_c, 0, 64, 90
1, 404594, Control_c, 0, 64, 64
1, 404607, Note_on_c, 0, 48, 97
1, 404609, Control_c, 0, 64, 0
1, 404610, Note_on_c, 0, 36, 88
1, 404612, Note_on_c, 0, 56, 94
1, 404614, Note_on_c, 0, 68, 88
1, 404615, Note_off_c, 0, 65, 0
1, 404615, Note_on_c, 0, 65, 54
1, 404641, Note_on_c, 0, 54, 57
1, 404654, Control_c, 0, 64, 63
1, 404664, Note_off_c, 0, 54, 58
1, 404668, Control_c, 0, 64, 83
1, 404683, Control_c, 0, 64, 107
1, 404695, Note_off_c, 0, 56, 61
1, 404698, Control_c, 0, 64, 127
1, 404699, Note_off_c, 0, 68, 62
1, 404716, Note_off_c, 0, 65, 64
1, 404792, Note_off_c, 0, 48, 60
1, 404843, Note_off_c, 0, 36, 56
1, 404926, Note_on_c, 0, 36, 100
1, 404934, Control_c, 0, 64, 97
1, 404949, Control_c, 0, 64, 70
1, 404964, Control_c, 0, 64, 0
1, 405023, Control_c, 0, 64, 71
1, 405025, Note_on_c, 0, 48, 71
1, 405038, Control_c, 0, 64, 83
1, 405053, Control_c, 0, 64, 97
1, 405068, Control_c, 0, 64, 105
1, 405083, Control_c, 0, 64, 111
1, 405098, Control_c, 0, 64, 116
1, 405098, Note_off_c, 0, 36, 59
1, 405104, Note_off_c, 0, 48, 64
1, 405107, Note_on_c, 0, 53, 67
1, 405112, Control_c, 0, 64, 124
1, 405122, Note_on_c, 0, 41, 63
1, 405127, Control_c, 0, 64, 127
1, 405177, Note_on_c, 0, 56, 66
1, 405207, Note_on_c, 0, 44, 75
1, 405209, Note_off_c, 0, 53, 63
1, 405215, Note_off_c, 0, 41, 64
1, 405237, Note_on_c, 0, 59, 66
1, 405262, Note_off_c, 0, 56, 64
1, 405271, Note_on_c, 0, 47, 67
1, 405271, Note_off_c, 0, 59, 63
1, 405300, Note_on_c, 0, 48, 65
1, 405309, Note_off_c, 0, 44, 62
1, 405312, Note_off_c, 0, 47, 64
1, 405315, Note_on_c, 0, 60, 79
1, 405330, Note_off_c, 0, 48, 67
1, 405396, Note_on_c, 0, 65, 80
1, 405407, Note_off_c, 0, 60, 54
1, 405410, Note_on_c, 0, 53, 66
1, 405448, Note_on_c, 0, 68, 75
1, 405463, Note_on_c, 0, 56, 74
1, 405475, Note_off_c, 0, 53, 62
1, 405484, Note_off_c, 0, 65, 63
1, 405498, Note_on_c, 0, 71, 68
1, 405512, Note_on_c, 0, 59, 73
1, 405518, Note_off_c, 0, 68, 66
1, 405533, Note_off_c, 0, 71, 60
1, 405549, Note_off_c, 0, 56, 64
1, 405560, Note_off_c, 0, 59, 62
1, 405565, Note_on_c, 0, 60, 56
1, 405574, Note_on_c, 0, 72, 81
1, 405581, Note_off_c, 0, 60, 64
1, 405640, Note_on_c, 0, 77, 86
1, 405646, Note_off_c, 0, 72, 61
1, 405647, Note_on_c, 0, 65, 75
1, 405681, Note_on_c, 0, 80, 77
1, 405703, Note_on_c, 0, 68, 75
1, 405721, Note_off_c, 0, 77, 58
1, 405728, Note_on_c, 0, 83, 68
1, 405731, Note_off_c, 0, 65, 63
1, 405745, Note_on_c, 0, 71, 41
1, 405745, Note_off_c, 0, 80, 67
1, 405753, Note_off_c, 0, 83, 65
1, 405757, Note_off_c, 0, 68, 62
1, 405774, Note_on_c, 0, 72, 70
1, 405774, Note_off_c, 0, 71, 48
1, 405793, Note_on_c, 0, 84, 83
1, 405801, Note_off_c, 0, 72, 68
1, 405850, Note_on_c, 0, 89, 86
1, 405869, Note_on_c, 0, 77, 48
1, 405870, Note_off_c, 0, 84, 57
1, 405906, Note_on_c, 0, 92, 102
1, 405907, Note_on_c, 0, 80, 95
1, 405934, Note_off_c, 0, 80, 68
1, 405935, Note_off_c, 0, 77, 62
1, 405938, Note_off_c, 0, 89, 66
1, 405954, Note_off_c, 0, 92, 68
1, 406137, Control_c, 0, 64, 120
1, 406152, Control_c, 0, 64, 89
1, 406166, Control_c, 0, 64, 72
1, 406178, Note_on_c, 0, 49, 70
1, 406178, Note_on_c, 0, 77, 76
1, 406180, Note_on_c, 0, 61, 83
1, 406181, Control_c, 0, 64, 66
1, 406185, Note_on_c, 0, 65, 73
1, 406185, Note_on_c, 0, 68, 73
1, 406188, Note_on_c, 0, 56, 72
1, 406189, Note_on_c, 0, 73, 40
1, 406196, Control_c, 0, 64, 74
1, 406211, Control_c, 0, 64, 87
1, 406226, Control_c, 0, 64, 112
1, 406229, Note_off_c, 0, 77, 61
1, 406240, Control_c, 0, 64, 127
1, 406241, Note_off_c, 0, 61, 62
1, 406251, Note_off_c, 0, 65, 65
1, 406267, Note_off_c, 0, 73, 62
1, 406270, Control_c, 0, 64, 109
1, 406276, Note_off_c, 0, 56, 56
1, 406282, Note_off_c, 0, 49, 61
1, 406285, Control_c, 0, 64, 87
1, 406290, Note_off_c, 0, 68, 63
1, 406299, Control_c, 0, 64, 78
1, 406314, Control_c, 0, 64, 81
1, 406329, Control_c, 0, 64, 93
1, 406344, Control_c, 0, 64, 118
1, 406359, Control_c, 0, 64, 127
1, 406362, Note_on_c, 0, 61, 86
1, 406368, Note_on_c, 0, 73, 83
1, 406370, Note_on_c, 0, 59, 84
1, 406372, Note_on_c, 0, 56, 67
1, 406376, Note_on_c, 0, 68, 73
1, 406378, Note_on_c, 0, 70, 53
1, 406383, Note_on_c, 0, 53, 70
1, 406396, Note_off_c, 0, 61, 64
1, 406397, Note_on_c, 0, 47, 49
1, 406403, Note_off_c, 0, 70, 55
1, 406411, Note_off_c, 0, 56, 64
1, 406412, Note_off_c, 0, 53, 69
1, 406413, Note_off_c, 0, 59, 63
1, 406415, Note_off_c, 0, 68, 62
1, 406430, Note_off_c, 0, 47, 64
1, 406432, Note_off_c, 0, 73, 61
1, 406434, Control_c, 0, 64, 117
1, 406448, Control_c, 0, 64, 96
1, 406454, Poly_aftertouch_c, 0, 48, 127
1, 406463, Control_c, 0, 64, 93
1, 406478, Control_c, 0, 64, 98
1, 406493, Control_c, 0, 64, 127
1, 406494, Poly_aftertouch_c, 0, 48, 0
1, 406514, Note_on_c, 0, 66, 99
1, 406518, Note_on_c, 0, 78, 85
1, 406519, Note_on_c, 0, 73, 80
1, 406520, Note_on_c, 0, 46, 88
1, 406521, Note_on_c, 0, 58, 98
1, 406535, Note_on_c, 0, 75, 61
1, 406555, Note_off_c, 0, 66, 63
1, 406556, Note_off_c, 0, 73, 52
1, 406557, Note_off_c, 0, 75, 65
1, 406566, Note_off_c, 0, 58, 64
1, 406570, Note_off_c, 0, 78, 65
1, 406576, Note_off_c, 0, 46, 62
1, 406582, Control_c, 0, 64, 101
1, 406597, Control_c, 0, 64, 89
1, 406612, Control_c, 0, 64, 88
1, 406627, Control_c, 0, 64, 96
1, 406641, Control_c, 0, 64, 116
1, 406656, Control_c, 0, 64, 127
1, 406674, Note_on_c, 0, 64, 88
1, 406678, Note_on_c, 0, 72, 79
1, 406683, Note_on_c, 0, 76, 85
1, 406684, Note_on_c, 0, 67, 74
1, 406685, Note_on_c, 0, 60, 99
1, 406691, Note_on_c, 0, 48, 94
1, 406706, Note_off_c, 0, 67, 69
1, 406711, Note_off_c, 0, 64, 65
1, 406721, Note_off_c, 0, 60, 65
1, 406722, Note_off_c, 0, 72, 65
1, 406731, Note_off_c, 0, 48, 67
1, 406736, Note_off_c, 0, 76, 67
1, 406827, Note_on_c, 0, 72, 99
1, 406829, Note_on_c, 0, 79, 88
1, 406830, Note_on_c, 0, 84, 90
1, 406833, Note_on_c, 0, 58, 98
1, 406838, Note_on_c, 0, 46, 93
1, 406856, Note_off_c, 0, 79, 61
1, 406866, Note_off_c, 0, 72, 61
1, 406869, Note_off_c, 0, 84, 65
1, 406871, Note_off_c, 0, 58, 62
1, 406893, Note_off_c, 0, 46, 58
1, 406990, Control_c, 0, 64, 116
1, 407005, Control_c, 0, 64, 85
1, 407020, Control_c, 0, 64, 0
1, 407058, Note_on_c, 0, 53, 82
1, 407063, Note_on_c, 0, 72, 97
1, 407064, Note_on_c, 0, 56, 94
1, 407064, Note_on_c, 0, 84, 95
1, 407065, Note_on_c, 0, 77, 92
1, 407067, Note_on_c, 0, 44, 76
1, 407079, Control_c, 0, 64, 66
1, 407083, Note_on_c, 0, 46, 65
1, 407092, Note_on_c, 0, 50, 39
1, 407093, Control_c, 0, 64, 82
1, 407104, Note_off_c, 0, 46, 60
1, 407108, Control_c, 0, 64, 101
1, 407113, Note_off_c, 0, 56, 65
1, 407117, Note_off_c, 0, 84, 66
1, 407119, Note_off_c, 0, 72, 61
1, 407122, Control_c, 0, 64, 127
1, 407124, Note_off_c, 0, 53, 66
1, 407128, Note_off_c, 0, 50, 46
1, 407130, Note_off_c, 0, 77, 62
1, 407155, Note_off_c, 0, 44, 64
1, 407335, Note_on_c, 0, 36, 98
1, 407345, Control_c, 0, 64, 100
1, 407360, Control_c, 0, 64, 73
1, 407375, Control_c, 0, 64, 0
1, 407456, Control_c, 0, 64, 68
1, 407465, Note_on_c, 0, 48, 75
1, 407471, Control_c, 0, 64, 80
1, 407485, Control_c, 0, 64, 95
1, 407500, Control_c, 0, 64, 113
1, 407515, Control_c, 0, 64, 127
1, 407524, Note_off_c, 0, 36, 59
1, 407533, Note_off_c, 0, 48, 61
1, 407553, Note_on_c, 0, 41, 68
1, 407557, Note_on_c, 0, 53, 68
1, 407617, Note_on_c, 0, 56, 64
1, 407624, Note_off_c, 0, 41, 61
1, 407625, Note_on_c, 0, 44, 75
1, 407638, Note_off_c, 0, 53, 63
1, 407667, Note_on_c, 0, 59, 65
1, 407684, Note_on_c, 0, 47, 69
1, 407690, Note_off_c, 0, 56, 65
1, 407697, Note_off_c, 0, 59, 64
1, 407725, Note_off_c, 0, 44, 63
1, 407727, Note_on_c, 0, 48, 64
1, 407729, Note_off_c, 0, 47, 63
1, 407742, Note_on_c, 0, 60, 77
1, 407753, Note_off_c, 0, 48, 67
1, 407818, Note_on_c, 0, 65, 81
1, 407827, Note_on_c, 0, 53, 67
1, 407834, Note_off_c, 0, 60, 55
1, 407867, Note_on_c, 0, 68, 78
1, 407882, Note_on_c, 0, 56, 73
1, 407885, Note_off_c, 0, 53, 63
1, 407904, Note_off_c, 0, 65, 65
1, 407914, Note_on_c, 0, 71, 72
1, 407933, Note_on_c, 0, 59, 70
1, 407939, Note_off_c, 0, 68, 67
1, 407952, Note_off_c, 0, 71, 58
1, 407962, Note_off_c, 0, 56, 63
1, 407976, Note_off_c, 0, 59, 64
1, 407981, Note_on_c, 0, 60, 57
1, 407990, Note_on_c, 0, 72, 81
1, 407997, Note_off_c, 0, 60, 66
1, 408049, Note_on_c, 0, 77, 84
1, 408061, Note_on_c, 0, 65, 76
1, 408062, Note_off_c, 0, 72, 60
1, 408084, Note_on_c, 0, 80, 79
1, 408117, Note_on_c, 0, 68, 76
1, 408131, Note_off_c, 0, 65, 63
1, 408137, Note_off_c, 0, 77, 62
1, 408142, Note_on_c, 0, 83, 68
1, 408169, Note_on_c, 0, 71, 30
1, 408171, Note_off_c, 0, 80, 66
1, 408177, Note_off_c, 0, 68, 63
1, 408177, Note_off_c, 0, 83, 64
1, 408195, Note_on_c, 0, 72, 68
1, 408201, Note_off_c, 0, 71, 43
1, 408216, Note_on_c, 0, 84, 88
1, 408219, Note_off_c, 0, 72, 70
1, 408269, Note_on_c, 0, 77, 77
1, 408269, Note_on_c, 0, 89, 91
1, 408301, Note_off_c, 0, 84, 63
1, 408308, Note_on_c, 0, 80, 96
1, 408315, Note_on_c, 0, 92, 96
1, 408326, Note_off_c, 0, 77, 62
1, 408338, Note_off_c, 0, 89, 66
1, 408341, Note_off_c, 0, 80, 66
1, 408353, Note_off_c, 0, 92, 69
1, 408561, Control_c, 0, 64, 88
1, 408576, Control_c, 0, 64, 63
1, 408591, Note_on_c, 0, 61, 86
1, 408591, Control_c, 0, 64, 0
1, 408594, Note_on_c, 0, 65, 80
1, 408595, Note_on_c, 0, 77, 79
1, 408597, Note_on_c, 0, 49, 70
1, 408597, Note_on_c, 0, 73, 62
1, 408600, Note_on_c, 0, 56, 76
1, 408600, Note_on_c, 0, 68, 77
1, 408606, Control_c, 0, 64, 63
1, 408612, Note_on_c, 0, 53, 62
1, 408621, Control_c, 0, 64, 76
1, 408633, Note_off_c, 0, 61, 63
1, 408635, Control_c, 0, 64, 99
1, 408645, Note_off_c, 0, 56, 57
1, 408648, Note_off_c, 0, 77, 63
1, 408650, Control_c, 0, 64, 127
1, 408656, Note_off_c, 0, 65, 64
1, 408659, Note_off_c, 0, 53, 65
1, 408664, Note_off_c, 0, 68, 63
1, 408669, Note_off_c, 0, 73, 64
1, 408691, Note_off_c, 0, 49, 62
1, 408826, Note_on_c, 0, 53, 76
1, 408828, Note_on_c, 0, 61, 72
1, 408829, Note_on_c, 0, 65, 71
1, 408831, Note_on_c, 0, 56, 63
1, 408834, Note_on_c, 0, 47, 77
1, 408842, Control_c, 0, 64, 104
1, 408845, Note_on_c, 0, 35, 63
1, 408857, Control_c, 0, 64, 95
1, 408866, Note_off_c, 0, 53, 54
1, 408867, Note_off_c, 0, 56, 59
1, 408886, Control_c, 0, 64, 96
1, 408889, Note_off_c, 0, 65, 63
1, 408899, Note_off_c, 0, 47, 61
1, 408901, Control_c, 0, 64, 102
1, 408914, Note_off_c, 0, 35, 61
1, 408924, Control_c, 0, 64, 110
1, 408935, Note_off_c, 0, 61, 60
1, 408939, Control_c, 0, 64, 111
1, 408954, Control_c, 0, 64, 102
1, 408968, Control_c, 0, 64, 83
1, 408983, Control_c, 0, 64, 65
1, 408998, Control_c, 0, 64, 65
1, 409013, Control_c, 0, 64, 75
1, 409015, Note_on_c, 0, 61, 71
1, 409016, Note_on_c, 0, 46, 83
1, 409017, Note_on_c, 0, 54, 77
1, 409018, Note_on_c, 0, 34, 71
1, 409018, Note_on_c, 0, 66, 73
1, 409028, Control_c, 0, 64, 90
1, 409042, Control_c, 0, 64, 116
1, 409057, Control_c, 0, 64, 127
1, 409076, Note_off_c, 0, 46, 62
1, 409078, Note_off_c, 0, 54, 59
1, 409083, Note_off_c, 0, 34, 65
1, 409085, Note_off_c, 0, 66, 65
1, 409086, Note_off_c, 0, 61, 55
1, 409168, Note_on_c, 0, 55, 73
1, 409170, Note_on_c, 0, 60, 73
1, 409173, Note_on_c, 0, 48, 78
1, 409173, Note_on_c, 0, 64, 70
1, 409182, Note_on_c, 0, 36, 67
1, 409195, Note_off_c, 0, 55, 69
1, 409199, Note_off_c, 0, 60, 63
1, 409218, Note_off_c, 0, 48, 64
1, 409219, Note_off_c, 0, 64, 63
1, 409227, Note_off_c, 0, 36, 64
1, 409251, Control_c, 0, 64, 102
1, 409265, Control_c, 0, 64, 91
1, 409280, Control_c, 0, 64, 91
1, 409295, Control_c, 0, 64, 97
1, 409305, Note_on_c, 0, 67, 80
1, 409309, Note_on_c, 0, 60, 80
1, 409310, Control_c, 0, 64, 114
1, 409313, Note_on_c, 0, 46, 84
1, 409317, Note_on_c, 0, 34, 75
1, 409317, Note_on_c, 0, 72, 73
1, 409325, Control_c, 0, 64, 127
1, 409342, Note_off_c, 0, 60, 62
1, 409349, Note_off_c, 0, 67, 57
1, 409355, Note_off_c, 0, 46, 52
1, 409377, Note_off_c, 0, 72, 61
1, 409384, Control_c, 0, 64, 98
1, 409396, Note_off_c, 0, 34, 63
1, 409399, Control_c, 0, 64, 85
1, 409414, Control_c, 0, 64, 83
1, 409429, Control_c, 0, 64, 89
1, 409444, Control_c, 0, 64, 102
1, 409455, Note_on_c, 0, 44, 83
1, 409455, Note_on_c, 0, 60, 74
1, 409456, Note_on_c, 0, 32, 79
1, 409457, Note_on_c, 0, 65, 76
1, 409458, Note_on_c, 0, 72, 71
1, 409459, Control_c, 0, 64, 127
1, 409484, Note_off_c, 0, 60, 60
1, 409485, Note_on_c, 0, 38, 30
1, 409505, Note_off_c, 0, 65, 64
1, 409513, Note_off_c, 0, 72, 64
1, 409514, Note_off_c, 0, 44, 62
1, 409518, Control_c, 0, 64, 110
1, 409527, Note_off_c, 0, 38, 49
1, 409533, Control_c, 0, 64, 95
1, 409536, Note_off_c, 0, 32, 62
1, 409548, Control_c, 0, 64, 93
1, 409563, Control_c, 0, 64, 96
1, 409578, Control_c, 0, 64, 107
1, 409590, Note_on_c, 0, 62, 81
1, 409592, Control_c, 0, 64, 127
1, 409595, Note_on_c, 0, 43, 89
1, 409595, Note_on_c, 0, 70, 38
1, 409596, Note_on_c, 0, 71, 70
1, 409601, Note_on_c, 0, 31, 80
1, 409605, Note_on_c, 0, 74, 58
1, 409613, Note_off_c, 0, 62, 69
1, 409619, Note_on_c, 0, 65, 32
1, 409625, Note_off_c, 0, 74, 66
1, 409637, Note_off_c, 0, 70, 47
1, 409637, Control_c, 0, 64, 118
1, 409649, Note_off_c, 0, 43, 62
1, 409652, Note_off_c, 0, 71, 59
1, 409652, Control_c, 0, 64, 87
1, 409653, Note_off_c, 0, 31, 62
1, 409662, Note_off_c, 0, 65, 47
1, 409673, Control_c, 0, 64, 75
1, 409688, Control_c, 0, 64, 77
1, 409703, Control_c, 0, 64, 87
1, 409718, Control_c, 0, 64, 107
1, 409725, Note_on_c, 0, 63, 89
1, 409733, Control_c, 0, 64, 127
1, 409733, Note_on_c, 0, 42, 89
1, 409736, Note_on_c, 0, 75, 76
1, 409736, Note_on_c, 0, 30, 80
1, 409745, Note_on_c, 0, 73, 58
1, 409745, Note_off_c, 0, 63, 70
1, 409754, Note_on_c, 0, 67, 43
1, 409772, Note_off_c, 0, 73, 66
1, 409776, Note_off_c, 0, 42, 62
1, 409777, Note_off_c, 0, 67, 56
1, 409778, Note_on_c, 0, 32, 31
1, 409787, Note_off_c, 0, 75, 63
1, 409793, Note_off_c, 0, 30, 58
1, 409841, Note_off_c, 0, 32, 42
1, 409848, Poly_aftertouch_c, 0, 34, 127
1, 409852, Control_c, 0, 64, 109
1, 409855, Note_on_c, 0, 78, 88
1, 409859, Note_on_c, 0, 40, 89
1, 409861, Note_on_c, 0, 66, 69
1, 409864, Note_on_c, 0, 28, 82
1, 409864, Note_on_c, 0, 75, 60
1, 409866, Control_c, 0, 64, 82
1, 409876, Note_off_c, 0, 66, 68
1, 409881, Control_c, 0, 64, 66
1, 409883, Note_off_c, 0, 75, 65
1, 409893, Note_off_c, 0, 78, 61
1, 409896, Control_c, 0, 64, 68
1, 409900, Poly_aftertouch_c, 0, 34, 0
1, 409908, Note_off_c, 0, 40, 63
1, 409910, Control_c, 0, 64, 81
1, 409913, Note_off_c, 0, 28, 61
1, 409925, Control_c, 0, 64, 101
1, 409941, Control_c, 0, 64, 127
1, 409971, Control_c, 0, 64, 94
1, 409986, Control_c, 0, 64, 66
1, 409988, Note_on_c, 0, 39, 92
1, 409990, Note_on_c, 0, 71, 90
1, 409993, Note_on_c, 0, 83, 84
1, 409995, Note_on_c, 0, 27, 78
1, 409998, Note_on_c, 0, 78, 73
1, 410001, Control_c, 0, 64, 34
1, 410013, Note_on_c, 0, 75, 33
1, 410014, Note_off_c, 0, 75, 127
1, 410014, Note_off_c, 0, 78, 64
1, 410015, Control_c, 0, 64, 69
1, 410016, Note_off_c, 0, 71, 54
1, 410022, Note_off_c, 0, 83, 62
1, 410026, Note_off_c, 0, 27, 65
1, 410030, Control_c, 0, 64, 91
1, 410036, Note_off_c, 0, 39, 62
1, 410045, Control_c, 0, 64, 127
1, 410119, Control_c, 0, 64, 104
1, 410123, Note_on_c, 0, 68, 95
1, 410123, Note_on_c, 0, 77, 88
1, 410131, Note_on_c, 0, 80, 83
1, 410133, Control_c, 0, 64, 99
1, 410136, Note_on_c, 0, 50, 90
1, 410147, Note_on_c, 0, 38, 60
1, 410148, Control_c, 0, 64, 104
1, 410163, Control_c, 0, 64, 127
1, 410164, Note_off_c, 0, 68, 59
1, 410172, Note_off_c, 0, 80, 54
1, 410178, Note_on_c, 0, 36, 24
1, 410181, Note_off_c, 0, 38, 63
1, 410189, Note_off_c, 0, 50, 63
1, 410195, Note_off_c, 0, 77, 59
1, 410219, Note_off_c, 0, 36, 44
1, 410222, Control_c, 0, 64, 99
1, 410237, Control_c, 0, 64, 75
1, 410252, Control_c, 0, 64, 68
1, 410258, Note_on_c, 0, 49, 95
1, 410259, Note_on_c, 0, 70, 94
1, 410259, Note_on_c, 0, 78, 94
1, 410267, Control_c, 0, 64, 76
1, 410272, Note_on_c, 0, 37, 80
1, 410272, Note_on_c, 0, 82, 77
1, 410281, Note_on_c, 0, 43, 45
1, 410282, Control_c, 0, 64, 93
1, 410296, Note_off_c, 0, 70, 59
1, 410296, Control_c, 0, 64, 127
1, 410311, Note_off_c, 0, 49, 63
1, 410312, Note_off_c, 0, 43, 52
1, 410320, Note_off_c, 0, 82, 65
1, 410333, Note_off_c, 0, 78, 61
1, 410336, Note_off_c, 0, 37, 64
1, 410371, Control_c, 0, 64, 115
1, 410386, Control_c, 0, 64, 112
1, 410401, Control_c, 0, 64, 117
1, 410410, Note_on_c, 0, 47, 96
1, 410414, Note_on_c, 0, 85, 90
1, 410419, Note_on_c, 0, 35, 88
1, 410420, Note_on_c, 0, 79, 73
1, 410422, Control_c, 0, 64, 127
1, 410424, Note_on_c, 0, 73, 78
1, 410430, Note_on_c, 0, 75, 62
1, 410434, Note_on_c, 0, 82, 60
1, 410441, Note_on_c, 0, 86, 59
1, 410445, Note_off_c, 0, 73, 70
1, 410445, Note_off_c, 0, 79, 66
1, 410447, Note_off_c, 0, 75, 64
1, 410454, Note_off_c, 0, 82, 61
1, 410460, Note_off_c, 0, 47, 64
1, 410463, Note_off_c, 0, 86, 57
1, 410464, Note_off_c, 0, 35, 61
1, 410469, Note_off_c, 0, 85, 64
1, 410526, Control_c, 0, 64, 116
1, 410541, Control_c, 0, 64, 88
1, 410556, Control_c, 0, 64, 79
1, 410566, Note_on_c, 0, 46, 103
1, 410570, Note_on_c, 0, 78, 104
1, 410571, Note_on_c, 0, 90, 102
1, 410571, Control_c, 0, 64, 83
1, 410572, Note_on_c, 0, 34, 86
1, 410576, Note_on_c, 0, 87, 78
1, 410578, Note_on_c, 0, 85, 76
1, 410586, Control_c, 0, 64, 102
1, 410599, Note_off_c, 0, 85, 67
1, 410600, Control_c, 0, 64, 127
1, 410603, Note_off_c, 0, 87, 61
1, 410607, Note_off_c, 0, 78, 61
1, 410613, Note_on_c, 0, 91, 49
1, 410616, Note_off_c, 0, 90, 63
1, 410635, Note_off_c, 0, 46, 56
1, 410640, Note_off_c, 0, 91, 38
1, 410655, Note_off_c, 0, 34, 61
1, 410686, Poly_aftertouch_c, 0, 39, 0
1, 410704, Control_c, 0, 64, 90
1, 410719, Control_c, 0, 64, 70
1, 410735, Control_c, 0, 64, 66
1, 410738, Note_on_c, 0, 88, 93
1, 410740, Note_on_c, 0, 45, 97
1, 410741, Note_on_c, 0, 76, 96
1, 410745, Note_on_c, 0, 33, 85
1, 410747, Note_on_c, 0, 85, 80
1, 410750, Control_c, 0, 64, 78
1, 410760, Note_on_c, 0, 80, 49
1, 410764, Control_c, 0, 64, 99
1, 410778, Note_off_c, 0, 76, 64
1, 410779, Control_c, 0, 64, 127
1, 410782, Note_off_c, 0, 80, 60
1, 410792, Note_off_c, 0, 33, 62
1, 410793, Note_off_c, 0, 45, 59
1, 410804, Note_off_c, 0, 85, 62
1, 410808, Note_off_c, 0, 88, 62
1, 410867, Control_c, 0, 64, 120
1, 410882, Control_c, 0, 64, 89
1, 410897, Control_c, 0, 64, 66
1, 410911, Control_c, 0, 64, 63
1, 410920, Note_on_c, 0, 44, 103
1, 410920, Note_on_c, 0, 89, 97
1, 410922, Note_on_c, 0, 77, 100
1, 410923, Note_on_c, 0, 32, 89
1, 410925, Note_on_c, 0, 84, 90
1, 410926, Control_c, 0, 64, 72
1, 410928, Poly_aftertouch_c, 0, 38, 127
1, 410941, Control_c, 0, 64, 84
1, 410955, Control_c, 0, 64, 102
1, 410966, Note_off_c, 0, 89, 67
1, 410970, Control_c, 0, 64, 127
1, 410973, Note_off_c, 0, 77, 58
1, 410975, Note_off_c, 0, 84, 64
1, 410976, Poly_aftertouch_c, 0, 38, 0
1, 410983, Note_off_c, 0, 32, 64
1, 411010, Note_off_c, 0, 44, 61
1, 411110, Note_on_c, 0, 78, 9
1, 411119, Control_c, 0, 64, 93
1, 411134, Control_c, 0, 64, 69
1, 411147, Note_on_c, 0, 73, 99
1, 411147, Note_on_c, 0, 77, 87
1, 411147, Note_on_c, 0, 85, 88
1, 411149, Control_c, 0, 64, 0
1, 411159, Note_on_c, 0, 34, 87
1, 411159, Note_on_c, 0, 46, 100
1, 411161, Note_on_c, 0, 79, 79
1, 411168, Note_on_c, 0, 82, 69
1, 411169, Note_off_c, 0, 78, 27
1, 411185, Control_c, 0, 64, 42
1, 411200, Control_c, 0, 64, 72
1, 411215, Control_c, 0, 64, 84
1, 411219, Note_off_c, 0, 82, 61
1, 411228, Note_off_c, 0, 85, 68
1, 411230, Control_c, 0, 64, 98
1, 411235, Note_off_c, 0, 73, 59
1, 411244, Control_c, 0, 64, 110
1, 411247, Note_off_c, 0, 77, 56
1, 411256, Note_off_c, 0, 34, 64
1, 411256, Note_off_c, 0, 46, 62
1, 411259, Control_c, 0, 64, 121
1, 411270, Note_off_c, 0, 79, 59
1, 411274, Control_c, 0, 64, 127
1, 411440, Note_on_c, 0, 79, 69
1, 411441, Note_on_c, 0, 72, 101
1, 411443, Note_on_c, 0, 36, 89
1, 411443, Note_on_c, 0, 77, 95
1, 411444, Note_on_c, 0, 48, 102
1, 411445, Note_on_c, 0, 84, 100
1, 411452, Control_c, 0, 64, 95
1, 411467, Control_c, 0, 64, 67
1, 411482, Control_c, 0, 64, 0
1, 411501, Note_on_c, 0, 81, 8
1, 411502, Note_off_c, 0, 81, 127
1, 411557, Control_c, 0, 64, 32
1, 411572, Control_c, 0, 64, 68
1, 411586, Control_c, 0, 64, 77
1, 411601, Control_c, 0, 64, 87
1, 411616, Control_c, 0, 64, 95
1, 411631, Control_c, 0, 64, 102
1, 411646, Control_c, 0, 64, 110
1, 411653, Poly_aftertouch_c, 0, 41, 127
1, 411659, Note_off_c, 0, 84, 59
1, 411660, Control_c, 0, 64, 124
1, 411675, Control_c, 0, 64, 127
1, 411695, Note_off_c, 0, 79, 60
1, 411701, Note_off_c, 0, 77, 58
1, 411707, Note_off_c, 0, 36, 60
1, 411708, Note_off_c, 0, 72, 56
1, 411722, Poly_aftertouch_c, 0, 41, 0
1, 411738, Note_off_c, 0, 48, 63
1, 411808, Control_c, 0, 64, 112
1, 411823, Control_c, 0, 64, 99
1, 411838, Control_c, 0, 64, 85
1, 411852, Control_c, 0, 64, 70
1, 411867, Control_c, 0, 64, 25
1, 411882, Control_c, 0, 64, 0
1, 412033, Note_on_c, 0, 60, 106
1, 412036, Note_on_c, 0, 48, 91
1, 412261, Note_on_c, 0, 49, 93
1, 412263, Note_on_c, 0, 61, 92
1, 412282, Note_off_c, 0, 48, 60
1, 412286, Note_off_c, 0, 60, 60
1, 412319, Control_c, 0, 64, 63
1, 412335, Control_c, 0, 64, 74
1, 412350, Control_c, 0, 64, 83
1, 412365, Control_c, 0, 64, 91
1, 412380, Control_c, 0, 64, 100
1, 412395, Control_c, 0, 64, 111
1, 412408, Note_off_c, 0, 61, 60
1, 412410, Control_c, 0, 64, 121
1, 412425, Control_c, 0, 64, 127
1, 412425, Note_on_c, 0, 53, 97
1, 412428, Note_on_c, 0, 65, 90
1, 412470, Note_off_c, 0, 53, 68
1, 412475, Note_off_c, 0, 49, 63
1, 412500, Note_off_c, 0, 65, 59
1, 412602, Control_c, 0, 64, 97
1, 412617, Control_c, 0, 64, 69
1, 412630, Note_on_c, 0, 64, 60
1, 412632, Control_c, 0, 64, 0
1, 412633, Note_on_c, 0, 55, 100
1, 412635, Note_on_c, 0, 48, 97
1, 412635, Note_on_c, 0, 67, 93
1, 412636, Note_on_c, 0, 60, 83
1, 412642, Note_on_c, 0, 36, 93
1, 412669, Control_c, 0, 64, 60
1, 412684, Control_c, 0, 64, 75
1, 412698, Note_on_c, 0, 65, 4
1, 412699, Control_c, 0, 64, 93
1, 412699, Note_off_c, 0, 60, 58
1, 412699, Note_off_c, 0, 64, 64
1, 412714, Control_c, 0, 64, 127
1, 412744, Note_off_c, 0, 48, 63
1, 412752, Note_off_c, 0, 65, 29
1, 412764, Note_off_c, 0, 36, 64
1, 412764, Note_off_c, 0, 67, 44
1, 412789, Note_off_c, 0, 55, 55
1, 412871, Note_on_c, 0, 62, 24
1, 412876, Control_c, 0, 64, 97
1, 412887, Note_on_c, 0, 43, 100
1, 412888, Note_on_c, 0, 67, 88
1, 412889, Note_on_c, 0, 59, 85
1, 412890, Note_on_c, 0, 55, 92
1, 412891, Control_c, 0, 64, 73
1, 412893, Note_on_c, 0, 31, 97
1, 412893, Note_on_c, 0, 53, 93
1, 412906, Control_c, 0, 64, 0
1, 412950, Control_c, 0, 64, 44
1, 412965, Control_c, 0, 64, 72
1, 412980, Control_c, 0, 64, 81
1, 412989, Note_off_c, 0, 53, 59
1, 412992, Note_off_c, 0, 62, 56
1, 412995, Note_off_c, 0, 55, 60
1, 412995, Note_off_c, 0, 59, 62
1, 412995, Control_c, 0, 64, 88
1, 412998, Note_off_c, 0, 43, 62
1, 413009, Control_c, 0, 64, 89
1, 413018, Note_off_c, 0, 67, 56
1, 413020, Note_off_c, 0, 31, 64
1, 413024, Control_c, 0, 64, 91
1, 413039, Control_c, 0, 64, 95
1, 413054, Control_c, 0, 64, 101
1, 413069, Control_c, 0, 64, 108
1, 413084, Control_c, 0, 64, 115
1, 413098, Control_c, 0, 64, 118
1, 413113, Control_c, 0, 64, 121
1, 413128, Control_c, 0, 64, 126
1, 413144, Control_c, 0, 64, 127
1, 413228, Note_on_c, 0, 55, 97
1, 413228, Note_on_c, 0, 67, 91
1, 413230, Note_on_c, 0, 64, 80
1, 413230, Note_on_c, 0, 24, 88
1, 413230, Note_on_c, 0, 36, 97
1, 413233, Note_on_c, 0, 60, 90
1, 413248, Control_c, 0, 64, 118
1, 413262, Control_c, 0, 64, 105
1, 413277, Control_c, 0, 64, 91
1, 413282, Note_on_c, 0, 65, 27
1, 413292, Control_c, 0, 64, 73
1, 413307, Control_c, 0, 64, 21
1, 413311, Note_off_c, 0, 65, 48
1, 413322, Control_c, 0, 64, 0
1, 413627, Note_off_c, 0, 55, 54
1, 413631, Note_off_c, 0, 60, 54
1, 413634, Note_off_c, 0, 24, 63
1, 413635, Note_off_c, 0, 64, 58
1, 413647, Note_off_c, 0, 36, 59
1, 413667, Note_off_c, 0, 67, 47
1, 415433, Control_c, 0, 64, 13
1, 415447, Control_c, 0, 64, 24
1, 415462, Control_c, 0, 64, 30
1, 415477, Control_c, 0, 64, 37
1, 415492, Control_c, 0, 64, 44
1, 415507, Control_c, 0, 64, 49
1, 415523, Control_c, 0, 64, 53
1, 415538, Control_c, 0, 64, 55
1, 415552, Control_c, 0, 64, 58
1, 415567, Control_c, 0, 64, 60
1, 415582, Control_c, 0, 64, 61
1, 415597, Control_c, 0, 64, 62
1, 415612, Control_c, 0, 64, 63
1, 415626, Control_c, 0, 64, 63
1, 415641, Control_c, 0, 64, 64
1, 415664, Control_c, 0, 64, 64
1, 415678, Control_c, 0, 64, 65
1, 415693, Control_c, 0, 64, 65
1, 415708, Control_c, 0, 64, 66
1, 415723, Control_c, 0, 64, 66
1, 415738, Control_c, 0, 64, 67
1, 415752, Control_c, 0, 64, 68
1, 415767, Control_c, 0, 64, 69
1, 415782, Control_c, 0, 64, 70
1, 415797, Control_c, 0, 64, 72
1, 415812, Control_c, 0, 64, 73
1, 415826, Control_c, 0, 64, 74
1, 415841, Control_c, 0, 64, 75
1, 415856, Control_c, 0, 64, 76
1, 415871, Control_c, 0, 64, 77
1, 415886, Control_c, 0, 64, 78
1, 415901, Control_c, 0, 64, 80
1, 415915, Control_c, 0, 64, 81
1, 415930, Control_c, 0, 64, 82
1, 415945, Control_c, 0, 64, 83
1, 415960, Control_c, 0, 64, 84
1, 415975, Control_c, 0, 64, 84
1, 415990, Control_c, 0, 64, 85
1, 416005, Control_c, 0, 64, 86
1, 416020, Control_c, 0, 64, 87
1, 416034, Control_c, 0, 64, 89
1, 416049, Control_c, 0, 64, 90
1, 416064, Control_c, 0, 64, 92
1, 416078, Control_c, 0, 64, 94
1, 416093, Control_c, 0, 64, 96
1, 416108, Control_c, 0, 64, 97
1, 416123, Control_c, 0, 64, 98
1, 416138, Control_c, 0, 64, 99
1, 416152, Control_c, 0, 64, 100
1, 416167, Control_c, 0, 64, 101
1, 416182, Control_c, 0, 64, 101
1, 416197, Control_c, 0, 64, 102
1, 416212, Control_c, 0, 64, 102
1, 416241, Control_c, 0, 64, 103
1, 416256, Control_c, 0, 64, 103
1, 416285, Control_c, 0, 64, 104
1, 416315, Control_c, 0, 64, 104
1, 416346, Control_c, 0, 64, 105
1, 416375, Control_c, 0, 64, 105
1, 416443, Control_c, 0, 64, 106
1, 416472, Control_c, 0, 64, 106
1, 416531, Control_c, 0, 64, 107
1, 416575, Control_c, 0, 64, 107
1, 416620, Control_c, 0, 64, 108
1, 416828, Control_c, 0, 64, 108
1, 416967, Note_on_c, 0, 84, 41
1, 416974, Note_on_c, 0, 79, 36
1, 416987, Note_on_c, 0, 55, 15
1, 416995, Note_on_c, 0, 72, 27
1, 417004, Note_on_c, 0, 48, 33
1, 417027, Poly_aftertouch_c, 0, 64, 127
1, 417079, Control_c, 0, 64, 109
1, 417176, Control_c, 0, 64, 109
1, 417265, Control_c, 0, 64, 110
1, 417324, Control_c, 0, 64, 110
1, 417354, Control_c, 0, 64, 111
1, 417413, Control_c, 0, 64, 111
1, 417472, Control_c, 0, 64, 112
1, 417531, Control_c, 0, 64, 112
1, 417605, Control_c, 0, 64, 113
1, 417707, Note_off_c, 0, 84, 38
1, 417750, Poly_aftertouch_c, 0, 64, 0
1, 417754, Note_off_c, 0, 79, 30
1, 417764, Note_off_c, 0, 72, 26
1, 417768, Control_c, 0, 64, 113
1, 417773, Note_off_c, 0, 48, 35
1, 417827, Note_off_c, 0, 55, 34
1, 418191, Control_c, 0, 64, 114
1, 418546, Control_c, 0, 64, 114
1, 419197, Note_on_c, 0, 79, 39
1, 419200, Note_on_c, 0, 74, 28
1, 419207, Control_c, 0, 64, 114
1, 419213, Note_on_c, 0, 55, 17
1, 419221, Control_c, 0, 64, 113
1, 419234, Note_on_c, 0, 71, 21
1, 419236, Note_on_c, 0, 62, 22
1, 419236, Control_c, 0, 64, 111
1, 419251, Control_c, 0, 64, 109
1, 419255, Note_on_c, 0, 48, 30
1, 419257, Note_on_c, 0, 67, 19
1, 419259, Note_on_c, 0, 65, 21
1, 419266, Control_c, 0, 64, 106
1, 419281, Control_c, 0, 64, 102
1, 419296, Control_c, 0, 64, 97
1, 419311, Control_c, 0, 64, 90
1, 419326, Control_c, 0, 64, 83
1, 419340, Control_c, 0, 64, 76
1, 419355, Control_c, 0, 64, 68
1, 419370, Control_c, 0, 64, 48
1, 419385, Control_c, 0, 64, 0
1, 419630, Control_c, 0, 64, 47
1, 419645, Control_c, 0, 64, 63
1, 419659, Control_c, 0, 64, 66
1, 419674, Control_c, 0, 64, 69
1, 419689, Control_c, 0, 64, 73
1, 419704, Control_c, 0, 64, 78
1, 419719, Control_c, 0, 64, 82
1, 419734, Control_c, 0, 64, 84
1, 419749, Control_c, 0, 64, 87
1, 419764, Control_c, 0, 64, 89
1, 419779, Control_c, 0, 64, 91
1, 419794, Control_c, 0, 64, 94
1, 419808, Control_c, 0, 64, 96
1, 419823, Control_c, 0, 64, 99
1, 419838, Control_c, 0, 64, 101
1, 419852, Control_c, 0, 64, 103
1, 419867, Control_c, 0, 64, 104
1, 419882, Control_c, 0, 64, 105
1, 419897, Control_c, 0, 64, 106
1, 419912, Control_c, 0, 64, 107
1, 419926, Control_c, 0, 64, 108
1, 419941, Control_c, 0, 64, 109
1, 419956, Control_c, 0, 64, 109
1, 419986, Control_c, 0, 64, 110
1, 420000, Control_c, 0, 64, 110
1, 420015, Control_c, 0, 64, 111
1, 420044, Control_c, 0, 64, 111
1, 420074, Control_c, 0, 64, 112
1, 420104, Control_c, 0, 64, 112
1, 420133, Control_c, 0, 64, 113
1, 420200, Control_c, 0, 64, 113
1, 420259, Control_c, 0, 64, 114
1, 420289, Control_c, 0, 64, 114
1, 420349, Control_c, 0, 64, 115
1, 420356, Note_off_c, 0, 62, 26
1, 420364, Control_c, 0, 64, 115
1, 420372, Note_off_c, 0, 79, 23
1, 420409, Control_c, 0, 64, 116
1, 420423, Note_off_c, 0, 74, 32
1, 420433, Note_off_c, 0, 71, 18
1, 420438, Control_c, 0, 64, 116
1, 420441, Note_off_c, 0, 65, 23
1, 420464, Note_off_c, 0, 67, 25
1, 420468, Control_c, 0, 64, 117
1, 420468, Note_off_c, 0, 55, 36
1, 420479, Note_off_c, 0, 48, 34
1, 420542, Control_c, 0, 64, 117
1, 420601, Control_c, 0, 64, 118
1, 421409, Control_c, 0, 64, 117
1, 421419, Note_on_c, 0, 70, 36
1, 421424, Control_c, 0, 64, 114
1, 421426, Note_on_c, 0, 76, 39
1, 421438, Control_c, 0, 64, 112
1, 421444, Note_on_c, 0, 55, 23
1, 421445, Note_on_c, 0, 60, 25
1, 421446, Note_on_c, 0, 64, 19
1, 421453, Control_c, 0, 64, 109
1, 421460, Note_on_c, 0, 67, 24
1, 421465, Note_on_c, 0, 48, 26
1, 421468, Control_c, 0, 64, 105
1, 421483, Control_c, 0, 64, 101
1, 421497, Control_c, 0, 64, 97
1, 421512, Control_c, 0, 64, 90
1, 421527, Control_c, 0, 64, 84
1, 421542, Control_c, 0, 64, 78
1, 421557, Control_c, 0, 64, 71
1, 421571, Control_c, 0, 64, 63
1, 421586, Control_c, 0, 64, 13
1, 421601, Control_c, 0, 64, 0
1, 421965, Control_c, 0, 64, 44
1, 421980, Control_c, 0, 64, 63
1, 421994, Control_c, 0, 64, 67
1, 422009, Control_c, 0, 64, 69
1, 422024, Control_c, 0, 64, 72
1, 422038, Control_c, 0, 64, 76
1, 422053, Control_c, 0, 64, 80
1, 422069, Control_c, 0, 64, 83
1, 422084, Control_c, 0, 64, 85
1, 422099, Control_c, 0, 64, 87
1, 422113, Control_c, 0, 64, 90
1, 422128, Control_c, 0, 64, 92
1, 422143, Control_c, 0, 64, 95
1, 422158, Control_c, 0, 64, 97
1, 422173, Control_c, 0, 64, 99
1, 422187, Control_c, 0, 64, 100
1, 422202, Control_c, 0, 64, 101
1, 422217, Control_c, 0, 64, 103
1, 422232, Control_c, 0, 64, 104
1, 422247, Control_c, 0, 64, 105
1, 422260, Note_off_c, 0, 76, 37
1, 422262, Control_c, 0, 64, 106
1, 422277, Control_c, 0, 64, 106
1, 422292, Control_c, 0, 64, 107
1, 422306, Control_c, 0, 64, 108
1, 422321, Control_c, 0, 64, 108
1, 422336, Control_c, 0, 64, 109
1, 422351, Control_c, 0, 64, 109
1, 422367, Note_off_c, 0, 70, 37
1, 422381, Control_c, 0, 64, 110
1, 422402, Control_c, 0, 64, 110
1, 422417, Control_c, 0, 64, 111
1, 422428, Note_off_c, 0, 67, 35
1, 422447, Control_c, 0, 64, 111
1, 422459, Note_off_c, 0, 60, 25
1, 422476, Control_c, 0, 64, 112
1, 422491, Note_off_c, 0, 48, 30
1, 422521, Control_c, 0, 64, 112
1, 422528, Note_off_c, 0, 64, 35
1, 422581, Control_c, 0, 64, 113
1, 422584, Note_off_c, 0, 55, 25
1, 422654, Control_c, 0, 64, 113
1, 422730, Control_c, 0, 64, 114
1, 422804, Control_c, 0, 64, 114
1, 423537, Note_on_c, 0, 74, 38
1, 423551, Note_on_c, 0, 65, 25
1, 423553, Control_c, 0, 64, 114
1, 423563, Note_on_c, 0, 62, 25
1, 423567, Note_on_c, 0, 58, 19
1, 423567, Control_c, 0, 64, 113
1, 423570, Note_on_c, 0, 48, 29
1, 423572, Note_on_c, 0, 55, 25
1, 423582, Control_c, 0, 64, 111
1, 423597, Control_c, 0, 64, 108
1, 423612, Control_c, 0, 64, 105
1, 423627, Control_c, 0, 64, 100
1, 423641, Control_c, 0, 64, 95
1, 423656, Control_c, 0, 64, 90
1, 423671, Control_c, 0, 64, 85
1, 423685, Control_c, 0, 64, 78
1, 423700, Control_c, 0, 64, 70
1, 423715, Control_c, 0, 64, 56
1, 423730, Control_c, 0, 64, 0
1, 423930, Control_c, 0, 64, 54
1, 423945, Control_c, 0, 64, 64
1, 423960, Control_c, 0, 64, 67
1, 423974, Control_c, 0, 64, 71
1, 423989, Control_c, 0, 64, 75
1, 424004, Control_c, 0, 64, 79
1, 424018, Control_c, 0, 64, 82
1, 424033, Control_c, 0, 64, 85
1, 424048, Control_c, 0, 64, 87
1, 424063, Control_c, 0, 64, 90
1, 424078, Control_c, 0, 64, 92
1, 424092, Control_c, 0, 64, 95
1, 424107, Control_c, 0, 64, 97
1, 424122, Control_c, 0, 64, 99
1, 424137, Control_c, 0, 64, 101
1, 424152, Control_c, 0, 64, 103
1, 424167, Control_c, 0, 64, 104
1, 424181, Control_c, 0, 64, 105
1, 424196, Control_c, 0, 64, 106
1, 424211, Control_c, 0, 64, 107
1, 424226, Control_c, 0, 64, 108
1, 424241, Control_c, 0, 64, 109
1, 424256, Control_c, 0, 64, 109
1, 424271, Control_c, 0, 64, 110
1, 424285, Control_c, 0, 64, 110
1, 424300, Control_c, 0, 64, 111
1, 424316, Control_c, 0, 64, 111
1, 424331, Control_c, 0, 64, 112
1, 424339, Note_off_c, 0, 55, 35
1, 424348, Note_off_c, 0, 58, 35
1, 424354, Note_off_c, 0, 74, 35
1, 424360, Control_c, 0, 64, 112
1, 424390, Control_c, 0, 64, 113
1, 424449, Control_c, 0, 64, 113
1, 424471, Note_off_c, 0, 65, 31
1, 424471, Note_off_c, 0, 48, 32
1, 424494, Control_c, 0, 64, 114
1, 424518, Note_off_c, 0, 62, 26
1, 424538, Control_c, 0, 64, 114
1, 424627, Control_c, 0, 64, 115
1, 424723, Control_c, 0, 64, 115
1, 424989, Control_c, 0, 64, 116
1, 425689, Note_on_c, 0, 60, 32
1, 425695, Control_c, 0, 64, 115
1, 425711, Note_on_c, 0, 64, 30
1, 425725, Control_c, 0, 64, 113
1, 425726, Note_on_c, 0, 36, 20
1, 425731, Note_on_c, 0, 48, 22
1, 425739, Note_on_c, 0, 55, 17
1, 425739, Control_c, 0, 64, 111
1, 425754, Control_c, 0, 64, 108
1, 425769, Control_c, 0, 64, 105
1, 425783, Control_c, 0, 64, 101
1, 425798, Control_c, 0, 64, 96
1, 425812, Control_c, 0, 64, 91
1, 425827, Control_c, 0, 64, 85
1, 425842, Control_c, 0, 64, 80
1, 425857, Control_c, 0, 64, 75
1, 425872, Control_c, 0, 64, 68
1, 425887, Control_c, 0, 64, 61
1, 425901, Control_c, 0, 64, 29
1, 425917, Control_c, 0, 64, 0
1, 426147, Control_c, 0, 64, 10
1, 426161, Control_c, 0, 64, 25
1, 426176, Control_c, 0, 64, 36
1, 426191, Control_c, 0, 64, 47
1, 426206, Control_c, 0, 64, 55
1, 426220, Control_c, 0, 64, 60
1, 426235, Control_c, 0, 64, 64
1, 426250, Control_c, 0, 64, 66
1, 426265, Control_c, 0, 64, 69
1, 426280, Control_c, 0, 64, 72
1, 426295, Control_c, 0, 64, 75
1, 426310, Control_c, 0, 64, 78
1, 426325, Control_c, 0, 64, 81
1, 426340, Control_c, 0, 64, 83
1, 426355, Control_c, 0, 64, 85
1, 426369, Control_c, 0, 64, 88
1, 426384, Control_c, 0, 64, 90
1, 426399, Control_c, 0, 64, 93
1, 426413, Control_c, 0, 64, 95
1, 426428, Control_c, 0, 64, 97
1, 426443, Control_c, 0, 64, 99
1, 426458, Control_c, 0, 64, 100
1, 426473, Control_c, 0, 64, 102
1, 426487, Control_c, 0, 64, 102
1, 426502, Control_c, 0, 64, 103
1, 426517, Control_c, 0, 64, 104
1, 426532, Control_c, 0, 64, 105
1, 426547, Control_c, 0, 64, 106
1, 426575, Control_c, 0, 64, 106
1, 426590, Control_c, 0, 64, 107
1, 426605, Control_c, 0, 64, 107
1, 426650, Control_c, 0, 64, 108
1, 426754, Control_c, 0, 64, 108
1, 427250, Control_c, 0, 64, 109
1, 428244, Note_off_c, 0, 55, 40
1, 428513, Note_off_c, 0, 64, 30
1, 428871, Note_off_c, 0, 36, 22
1, 428931, Note_off_c, 0, 60, 37
1, 429014, Note_off_c, 0, 48, 35
1, 429245, Control_c, 0, 64, 108
1, 429290, Control_c, 0, 64, 108
1, 429304, Control_c, 0, 64, 106
1, 429319, Control_c, 0, 64, 103
1, 429334, Control_c, 0, 64, 99
1, 429349, Control_c, 0, 64, 95
1, 429364, Control_c, 0, 64, 87
1, 429378, Control_c, 0, 64, 79
1, 429393, Control_c, 0, 64, 70
1, 429408, Control_c, 0, 64, 56
1, 429423, Control_c, 0, 64, 0
1, 429625, Note_on_c, 0, 29, 77
1, 429648, Note_on_c, 0, 56, 85
1, 429778, Control_c, 0, 64, 16
1, 429793, Control_c, 0, 64, 66
1, 429808, Control_c, 0, 64, 71
1, 429815, Note_on_c, 0, 68, 66
1, 429821, Note_on_c, 0, 60, 62
1, 429823, Control_c, 0, 64, 75
1, 429837, Control_c, 0, 64, 80
1, 429840, Note_off_c, 0, 29, 61
1, 429847, Note_off_c, 0, 56, 59
1, 429852, Control_c, 0, 64, 85
1, 429867, Control_c, 0, 64, 88
1, 429890, Control_c, 0, 64, 89
1, 429905, Control_c, 0, 64, 90
1, 429920, Control_c, 0, 64, 91
1, 429932, Note_on_c, 0, 65, 73
1, 429935, Control_c, 0, 64, 93
1, 429950, Control_c, 0, 64, 96
1, 429955, Note_off_c, 0, 60, 61
1, 429960, Note_off_c, 0, 68, 62
1, 429964, Control_c, 0, 64, 98
1, 429979, Control_c, 0, 64, 99
1, 429995, Note_off_c, 0, 65, 64
1, 430030, Note_on_c, 0, 55, 67
1, 430039, Control_c, 0, 64, 96
1, 430054, Control_c, 0, 64, 84
1, 430060, Note_off_c, 0, 55, 66
1, 430068, Control_c, 0, 64, 67
1, 430071, Note_on_c, 0, 49, 45
1, 430083, Control_c, 0, 64, 0
1, 430116, Note_on_c, 0, 59, 61
1, 430123, Note_on_c, 0, 56, 55
1, 430127, Control_c, 0, 64, 66
1, 430136, Note_off_c, 0, 49, 47
1, 430142, Control_c, 0, 64, 78
1, 430156, Note_off_c, 0, 59, 62
1, 430157, Note_off_c, 0, 56, 63
1, 430157, Control_c, 0, 64, 86
1, 430172, Control_c, 0, 64, 90
1, 430187, Control_c, 0, 64, 94
1, 430201, Control_c, 0, 64, 100
1, 430205, Note_on_c, 0, 53, 57
1, 430216, Control_c, 0, 64, 106
1, 430228, Note_off_c, 0, 53, 60
1, 430231, Control_c, 0, 64, 110
1, 430239, Note_on_c, 0, 36, 64
1, 430261, Note_on_c, 0, 61, 60
1, 430267, Note_off_c, 0, 36, 64
1, 430275, Control_c, 0, 64, 107
1, 430290, Control_c, 0, 64, 93
1, 430305, Control_c, 0, 64, 74
1, 430308, Note_off_c, 0, 61, 61
1, 430320, Control_c, 0, 64, 0
1, 430336, Note_on_c, 0, 60, 64
1, 430349, Control_c, 0, 64, 44
1, 430364, Control_c, 0, 64, 71
1, 430367, Note_on_c, 0, 48, 55
1, 430379, Control_c, 0, 64, 84
1, 430394, Control_c, 0, 64, 96
1, 430403, Note_off_c, 0, 60, 61
1, 430409, Control_c, 0, 64, 100
1, 430411, Note_on_c, 0, 67, 75
1, 430415, Note_off_c, 0, 48, 66
1, 430423, Control_c, 0, 64, 102
1, 430438, Control_c, 0, 64, 107
1, 430442, Note_off_c, 0, 67, 64
1, 430453, Control_c, 0, 64, 113
1, 430466, Note_on_c, 0, 56, 66
1, 430468, Control_c, 0, 64, 119
1, 430480, Note_on_c, 0, 60, 71
1, 430483, Control_c, 0, 64, 127
1, 430491, Note_off_c, 0, 56, 65
1, 430498, Control_c, 0, 64, 127
1, 430525, Note_on_c, 0, 48, 59
1, 430552, Note_on_c, 0, 70, 79
1, 430555, Note_on_c, 0, 65, 66
1, 430555, Note_off_c, 0, 48, 67
1, 430558, Note_off_c, 0, 60, 60
1, 430586, Note_on_c, 0, 41, 65
1, 430618, Note_off_c, 0, 41, 66
1, 430620, Note_off_c, 0, 65, 62
1, 430623, Note_on_c, 0, 68, 73
1, 430648, Note_off_c, 0, 70, 60
1, 430681, Note_off_c, 0, 68, 63
1, 430698, Control_c, 0, 64, 118
1, 430713, Control_c, 0, 64, 96
1, 430719, Note_on_c, 0, 49, 61
1, 430728, Control_c, 0, 64, 77
1, 430734, Note_on_c, 0, 67, 81
1, 430743, Control_c, 0, 64, 51
1, 430757, Control_c, 0, 64, 0
1, 430787, Control_c, 0, 64, 68
1, 430802, Control_c, 0, 64, 84
1, 430802, Note_off_c, 0, 67, 62
1, 430817, Control_c, 0, 64, 96
1, 430825, Note_on_c, 0, 57, 59
1, 430832, Control_c, 0, 64, 102
1, 430847, Control_c, 0, 64, 103
1, 430862, Note_on_c, 0, 37, 59
1, 430862, Control_c, 0, 64, 107
1, 430862, Note_off_c, 0, 49, 33
1, 430877, Control_c, 0, 64, 112
1, 430891, Control_c, 0, 64, 118
1, 430896, Note_on_c, 0, 65, 66
1, 430896, Note_off_c, 0, 57, 59
1, 430905, Note_on_c, 0, 58, 60
1, 430906, Control_c, 0, 64, 127
1, 430908, Note_off_c, 0, 37, 64
1, 430973, Note_on_c, 0, 36, 72
1, 430978, Note_off_c, 0, 58, 61
1, 430980, Note_off_c, 0, 65, 65
1, 430981, Note_on_c, 0, 61, 79
1, 431009, Control_c, 0, 64, 103
1, 431011, Note_off_c, 0, 36, 66
1, 431024, Control_c, 0, 64, 81
1, 431039, Control_c, 0, 64, 54
1, 431051, Note_off_c, 0, 61, 64
1, 431054, Control_c, 0, 64, 0
1, 431067, Note_on_c, 0, 60, 76
1, 431077, Note_on_c, 0, 52, 66
1, 431078, Note_on_c, 0, 58, 61
1, 431083, Control_c, 0, 64, 66
1, 431098, Control_c, 0, 64, 81
1, 431105, Note_off_c, 0, 58, 64
1, 431113, Control_c, 0, 64, 93
1, 431128, Control_c, 0, 64, 100
1, 431143, Control_c, 0, 64, 102
1, 431150, Note_on_c, 0, 67, 81
1, 431151, Note_on_c, 0, 48, 68
1, 431154, Note_off_c, 0, 52, 62
1, 431157, Control_c, 0, 64, 105
1, 431161, Note_off_c, 0, 60, 57
1, 431172, Control_c, 0, 64, 110
1, 431187, Control_c, 0, 64, 116
1, 431192, Note_off_c, 0, 48, 67
1, 431202, Control_c, 0, 64, 120
1, 431216, Control_c, 0, 64, 122
1, 431231, Control_c, 0, 64, 122
1, 431237, Note_off_c, 0, 67, 63
1, 431261, Control_c, 0, 64, 122
1, 431276, Control_c, 0, 64, 114
1, 431283, Note_on_c, 0, 41, 70
1, 431285, Note_on_c, 0, 56, 79
1, 431291, Control_c, 0, 64, 96
1, 431306, Control_c, 0, 64, 74
1, 431321, Control_c, 0, 64, 0
1, 431365, Control_c, 0, 64, 60
1, 431366, Note_off_c, 0, 41, 62
1, 431387, Control_c, 0, 64, 75
1, 431401, Control_c, 0, 64, 87
1, 431403, Note_on_c, 0, 68, 77
1, 431416, Note_off_c, 0, 56, 56
1, 431416, Control_c, 0, 64, 95
1, 431422, Note_on_c, 0, 53, 64
1, 431431, Control_c, 0, 64, 97
1, 431446, Control_c, 0, 64, 100
1, 431453, Note_on_c, 0, 63, 60
1, 431461, Control_c, 0, 64, 104
1, 431476, Control_c, 0, 64, 110
1, 431491, Control_c, 0, 64, 116
1, 431506, Control_c, 0, 64, 122
1, 431515, Note_on_c, 0, 44, 64
1, 431517, Note_off_c, 0, 53, 64
1, 431521, Note_off_c, 0, 68, 61
1, 431521, Control_c, 0, 64, 127
1, 431527, Note_off_c, 0, 63, 63
1, 431529, Note_on_c, 0, 61, 69
1, 431550, Note_off_c, 0, 44, 64
1, 431554, Note_off_c, 0, 61, 65
1, 431610, Control_c, 0, 64, 101
1, 431616, Note_on_c, 0, 61, 70
1, 431617, Note_on_c, 0, 63, 72
1, 431622, Note_on_c, 0, 39, 63
1, 431625, Control_c, 0, 64, 80
1, 431640, Control_c, 0, 64, 62
1, 431649, Note_off_c, 0, 39, 62
1, 431653, Note_off_c, 0, 61, 60
1, 431655, Control_c, 0, 64, 25
1, 431670, Control_c, 0, 64, 66
1, 431671, Note_off_c, 0, 63, 64
1, 431684, Control_c, 0, 64, 78
1, 431696, Note_on_c, 0, 60, 76
1, 431699, Control_c, 0, 64, 91
1, 431713, Note_on_c, 0, 54, 62
1, 431714, Control_c, 0, 64, 102
1, 431729, Control_c, 0, 64, 105
1, 431744, Control_c, 0, 64, 109
1, 431754, Note_off_c, 0, 60, 60
1, 431759, Control_c, 0, 64, 114
1, 431771, Note_on_c, 0, 68, 83
1, 431774, Note_off_c, 0, 54, 58
1, 431774, Control_c, 0, 64, 121
1, 431783, Note_on_c, 0, 44, 64
1, 431788, Control_c, 0, 64, 127
1, 431792, Note_on_c, 0, 66, 61
1, 431813, Note_off_c, 0, 44, 65
1, 431819, Note_off_c, 0, 66, 67
1, 431832, Note_off_c, 0, 68, 64
1, 431882, Note_on_c, 0, 68, 75
1, 431886, Note_on_c, 0, 66, 85
1, 431891, Note_on_c, 0, 37, 73
1, 431921, Note_off_c, 0, 37, 65
1, 431936, Control_c, 0, 64, 105
1, 431951, Control_c, 0, 64, 80
1, 431955, Note_off_c, 0, 68, 67
1, 431966, Control_c, 0, 64, 41
1, 431980, Control_c, 0, 64, 0
1, 431984, Note_off_c, 0, 66, 64
1, 431991, Note_on_c, 0, 65, 77
1, 432006, Note_on_c, 0, 53, 65
1, 432010, Control_c, 0, 64, 57
1, 432024, Control_c, 0, 64, 73
1, 432039, Control_c, 0, 64, 86
1, 432054, Control_c, 0, 64, 93
1, 432069, Control_c, 0, 64, 95
1, 432084, Control_c, 0, 64, 97
1, 432099, Control_c, 0, 64, 100
1, 432114, Control_c, 0, 64, 101
1, 432129, Note_off_c, 0, 53, 33
1, 432136, Control_c, 0, 64, 102
1, 432151, Note_on_c, 0, 44, 58
1, 432160, Note_on_c, 0, 73, 81
1, 432165, Control_c, 0, 64, 101
1, 432180, Control_c, 0, 64, 99
1, 432195, Control_c, 0, 64, 88
1, 432210, Control_c, 0, 64, 72
1, 432218, Note_off_c, 0, 65, 54
1, 432224, Control_c, 0, 64, 0
1, 432269, Control_c, 0, 64, 64
1, 432284, Control_c, 0, 64, 77
1, 432295, Note_off_c, 0, 44, 57
1, 432300, Control_c, 0, 64, 87
1, 432315, Note_off_c, 0, 73, 57
1, 432315, Control_c, 0, 64, 91
1, 432317, Note_on_c, 0, 61, 75
1, 432322, Note_on_c, 0, 43, 58
1, 432329, Control_c, 0, 64, 92
1, 432344, Control_c, 0, 64, 96
1, 432359, Control_c, 0, 64, 100
1, 432374, Control_c, 0, 64, 104
1, 432388, Note_off_c, 0, 61, 59
1, 432389, Control_c, 0, 64, 107
1, 432403, Control_c, 0, 64, 108
1, 432418, Control_c, 0, 64, 109
1, 432433, Control_c, 0, 64, 110
1, 432437, Note_on_c, 0, 72, 69
1, 432439, Note_on_c, 0, 65, 69
1, 432448, Control_c, 0, 64, 111
1, 432453, Note_on_c, 0, 44, 64
1, 432462, Control_c, 0, 64, 111
1, 432465, Note_off_c, 0, 43, 58
1, 432496, Note_off_c, 0, 65, 62
1, 432522, Control_c, 0, 64, 112
1, 432536, Note_on_c, 0, 61, 78
1, 432537, Control_c, 0, 64, 112
1, 432546, Note_on_c, 0, 71, 69
1, 432559, Note_on_c, 0, 45, 69
1, 432561, Note_off_c, 0, 44, 63
1, 432581, Control_c, 0, 64, 113
1, 432596, Control_c, 0, 64, 113
1, 432611, Control_c, 0, 64, 114
1, 432623, Note_off_c, 0, 61, 0
1, 432626, Control_c, 0, 64, 115
1, 432638, Note_on_c, 0, 65, 72
1, 432640, Note_on_c, 0, 70, 74
1, 432641, Control_c, 0, 64, 115
1, 432646, Note_off_c, 0, 71, 60
1, 432652, Note_on_c, 0, 46, 78
1, 432655, Note_off_c, 0, 72, 35
1, 432655, Control_c, 0, 64, 116
1, 432664, Note_off_c, 0, 45, 58
1, 432668, Poly_aftertouch_c, 0, 61, 0
1, 432678, Note_off_c, 0, 65, 61
1, 432686, Note_off_c, 0, 70, 59
1, 432716, Poly_aftertouch_c, 0, 61, 0
1, 432728, Note_on_c, 0, 61, 46
1, 432728, Note_off_c, 0, 46, 61
1, 432741, Note_on_c, 0, 47, 80
1, 432744, Note_on_c, 0, 69, 78
1, 432787, Note_off_c, 0, 61, 57
1, 432823, Note_off_c, 0, 69, 64
1, 432825, Note_on_c, 0, 65, 64
1, 432834, Note_on_c, 0, 48, 75
1, 432836, Note_on_c, 0, 68, 73
1, 432840, Note_off_c, 0, 47, 63
1, 432885, Control_c, 0, 64, 109
1, 432898, Note_off_c, 0, 65, 64
1, 432900, Control_c, 0, 64, 93
1, 432913, Note_off_c, 0, 68, 64
1, 432915, Control_c, 0, 64, 70
1, 432924, Note_off_c, 0, 48, 66
1, 432929, Control_c, 0, 64, 0
1, 432933, Note_on_c, 0, 49, 83
1, 432945, Note_on_c, 0, 58, 86
1, 432959, Control_c, 0, 64, 57
1, 432973, Control_c, 0, 64, 75
1, 432988, Control_c, 0, 64, 91
1, 432993, Note_off_c, 0, 58, 64
1, 432999, Note_on_c, 0, 64, 31
1, 433003, Control_c, 0, 64, 106
1, 433018, Control_c, 0, 64, 108
1, 433027, Note_on_c, 0, 48, 88
1, 433030, Note_off_c, 0, 49, 63
1, 433033, Control_c, 0, 64, 109
1, 433041, Note_on_c, 0, 67, 74
1, 433047, Control_c, 0, 64, 111
1, 433057, Note_off_c, 0, 64, 64
1, 433062, Control_c, 0, 64, 113
1, 433076, Note_off_c, 0, 67, 59
1, 433077, Control_c, 0, 64, 115
1, 433092, Control_c, 0, 64, 117
1, 433094, Note_off_c, 0, 48, 61
1, 433108, Control_c, 0, 64, 117
1, 433123, Control_c, 0, 64, 118
1, 433138, Control_c, 0, 64, 119
1, 433141, Note_on_c, 0, 72, 82
1, 433152, Control_c, 0, 64, 120
1, 433164, Note_off_c, 0, 72, 68
1, 433182, Control_c, 0, 64, 120
1, 433196, Control_c, 0, 64, 121
1, 433256, Control_c, 0, 64, 119
1, 433270, Control_c, 0, 64, 107
1, 433285, Control_c, 0, 64, 85
1, 433291, Note_on_c, 0, 68, 97
1, 433296, Note_on_c, 0, 41, 77
1, 433300, Control_c, 0, 64, 63
1, 433315, Control_c, 0, 64, 0
1, 433360, Control_c, 0, 64, 65
1, 433375, Control_c, 0, 64, 77
1, 433389, Control_c, 0, 64, 92
1, 433404, Control_c, 0, 64, 100
1, 433416, Note_on_c, 0, 80, 81
1, 433419, Control_c, 0, 64, 103
1, 433419, Note_on_c, 0, 72, 71
1, 433425, Note_off_c, 0, 41, 65
1, 433434, Control_c, 0, 64, 106
1, 433441, Note_off_c, 0, 68, 58
1, 433449, Control_c, 0, 64, 111
1, 433464, Control_c, 0, 64, 118
1, 433478, Control_c, 0, 64, 127
1, 433504, Note_off_c, 0, 72, 61
1, 433506, Note_on_c, 0, 77, 77
1, 433532, Note_off_c, 0, 80, 61
1, 433560, Note_off_c, 0, 77, 60
1, 433592, Note_on_c, 0, 67, 74
1, 433617, Note_on_c, 0, 61, 59
1, 433634, Control_c, 0, 64, 116
1, 433649, Control_c, 0, 64, 94
1, 433656, Note_off_c, 0, 67, 54
1, 433664, Control_c, 0, 64, 80
1, 433670, Note_on_c, 0, 71, 75
1, 433676, Note_off_c, 0, 61, 57
1, 433678, Control_c, 0, 64, 77
1, 433687, Note_on_c, 0, 68, 59
1, 433693, Control_c, 0, 64, 82
1, 433700, Poly_aftertouch_c, 0, 55, 127
1, 433708, Control_c, 0, 64, 93
1, 433710, Note_off_c, 0, 68, 59
1, 433711, Note_off_c, 0, 71, 58
1, 433723, Control_c, 0, 64, 110
1, 433738, Control_c, 0, 64, 127
1, 433741, Poly_aftertouch_c, 0, 55, 0
1, 433765, Note_on_c, 0, 48, 73
1, 433781, Note_on_c, 0, 65, 47
1, 433798, Note_on_c, 0, 67, 28
1, 433806, Note_off_c, 0, 65, 58
1, 433807, Note_off_c, 0, 48, 64
1, 433833, Note_off_c, 0, 67, 47
1, 433840, Note_on_c, 0, 73, 63
1, 433841, Control_c, 0, 64, 123
1, 433856, Control_c, 0, 64, 91
1, 433858, Note_off_c, 0, 73, 62
1, 433871, Control_c, 0, 64, 62
1, 433885, Control_c, 0, 64, 0
1, 433889, Note_on_c, 0, 74, 25
1, 433905, Note_on_c, 0, 72, 74
1, 433916, Control_c, 0, 64, 61
1, 433923, Note_off_c, 0, 74, 45
1, 433931, Control_c, 0, 64, 77
1, 433932, Note_on_c, 0, 60, 65
1, 433936, Note_on_c, 0, 70, 5
1, 433946, Control_c, 0, 64, 94
1, 433961, Control_c, 0, 64, 110
1, 433975, Note_off_c, 0, 72, 62
1, 433975, Control_c, 0, 64, 113
1, 433977, Note_on_c, 0, 79, 79
1, 433989, Note_off_c, 0, 60, 61
1, 433990, Control_c, 0, 64, 117
1, 433995, Note_off_c, 0, 70, 49
1, 434005, Control_c, 0, 64, 124
1, 434017, Note_off_c, 0, 79, 64
1, 434019, Control_c, 0, 64, 127
1, 434035, Note_on_c, 0, 68, 72
1, 434051, Note_on_c, 0, 72, 75
1, 434060, Note_off_c, 0, 68, 67
1, 434107, Note_on_c, 0, 60, 55
1, 434111, Note_on_c, 0, 77, 81
1, 434127, Note_on_c, 0, 82, 76
1, 434135, Note_off_c, 0, 72, 63
1, 434142, Note_off_c, 0, 60, 64
1, 434166, Note_on_c, 0, 53, 62
1, 434191, Note_on_c, 0, 80, 83
1, 434194, Note_off_c, 0, 77, 60
1, 434198, Note_off_c, 0, 53, 67
1, 434216, Note_off_c, 0, 82, 62
1, 434236, Note_off_c, 0, 80, 64
1, 434257, Control_c, 0, 64, 115
1, 434272, Control_c, 0, 64, 92
1, 434287, Control_c, 0, 64, 69
1, 434288, Note_on_c, 0, 61, 68
1, 434295, Note_on_c, 0, 79, 82
1, 434301, Control_c, 0, 64, 0
1, 434346, Control_c, 0, 64, 64
1, 434361, Control_c, 0, 64, 75
1, 434361, Note_off_c, 0, 79, 63
1, 434382, Control_c, 0, 64, 86
1, 434388, Note_on_c, 0, 69, 74
1, 434397, Control_c, 0, 64, 95
1, 434412, Control_c, 0, 64, 101
1, 434427, Control_c, 0, 64, 107
1, 434431, Note_on_c, 0, 49, 62
1, 434442, Control_c, 0, 64, 118
1, 434456, Note_off_c, 0, 61, 39
1, 434457, Control_c, 0, 64, 127
1, 434460, Note_on_c, 0, 77, 74
1, 434470, Note_on_c, 0, 70, 69
1, 434483, Note_off_c, 0, 69, 61
1, 434492, Note_off_c, 0, 49, 61
1, 434525, Note_off_c, 0, 70, 58
1, 434546, Control_c, 0, 64, 113
1, 434552, Note_on_c, 0, 48, 78
1, 434558, Note_on_c, 0, 73, 83
1, 434560, Control_c, 0, 64, 88
1, 434561, Note_off_c, 0, 77, 60
1, 434575, Control_c, 0, 64, 66
1, 434590, Control_c, 0, 64, 0
1, 434604, Note_off_c, 0, 48, 65
1, 434620, Control_c, 0, 64, 62
1, 434634, Control_c, 0, 64, 81
1, 434638, Note_off_c, 0, 73, 64
1, 434647, Note_on_c, 0, 72, 83
1, 434649, Control_c, 0, 64, 97
1, 434653, Note_on_c, 0, 70, 69
1, 434654, Note_on_c, 0, 64, 71
1, 434664, Control_c, 0, 64, 110
1, 434679, Control_c, 0, 64, 113
1, 434682, Note_off_c, 0, 70, 65
1, 434694, Control_c, 0, 64, 117
1, 434710, Control_c, 0, 64, 127
1, 434724, Control_c, 0, 64, 127
1, 434737, Note_off_c, 0, 72, 54
1, 434742, Note_on_c, 0, 60, 74
1, 434742, Note_on_c, 0, 79, 79
1, 434762, Note_off_c, 0, 64, 60
1, 434788, Note_off_c, 0, 60, 63
1, 434848, Note_off_c, 0, 79, 62
1, 434872, Control_c, 0, 64, 98
1, 434883, Note_on_c, 0, 53, 69
1, 434887, Control_c, 0, 64, 74
1, 434889, Note_on_c, 0, 68, 84
1, 434902, Control_c, 0, 64, 0
1, 434961, Control_c, 0, 64, 68
1, 434975, Control_c, 0, 64, 81
1, 434978, Note_off_c, 0, 53, 62
1, 434990, Control_c, 0, 64, 94
1, 435005, Control_c, 0, 64, 108
1, 435008, Note_on_c, 0, 80, 82
1, 435016, Note_on_c, 0, 65, 66
1, 435020, Control_c, 0, 64, 116
1, 435026, Note_off_c, 0, 68, 59
1, 435035, Control_c, 0, 64, 126
1, 435050, Control_c, 0, 64, 127
1, 435051, Note_on_c, 0, 75, 57
1, 435124, Note_on_c, 0, 56, 66
1, 435127, Note_off_c, 0, 65, 63
1, 435128, Note_on_c, 0, 73, 73
1, 435131, Note_off_c, 0, 80, 62
1, 435134, Note_off_c, 0, 75, 62
1, 435154, Note_off_c, 0, 56, 64
1, 435155, Note_off_c, 0, 73, 65
1, 435205, Control_c, 0, 64, 124
1, 435220, Control_c, 0, 64, 91
1, 435223, Note_on_c, 0, 75, 75
1, 435224, Note_on_c, 0, 51, 74
1, 435235, Control_c, 0, 64, 68
1, 435238, Note_on_c, 0, 73, 63
1, 435250, Control_c, 0, 64, 0
1, 435257, Note_off_c, 0, 51, 63
1, 435264, Note_off_c, 0, 73, 54
1, 435264, Control_c, 0, 64, 42
1, 435279, Control_c, 0, 64, 71
1, 435282, Note_off_c, 0, 75, 64
1, 435294, Control_c, 0, 64, 87
1, 435309, Note_on_c, 0, 72, 78
1, 435309, Control_c, 0, 64, 110
1, 435320, Note_on_c, 0, 66, 65
1, 435324, Control_c, 0, 64, 120
1, 435339, Control_c, 0, 64, 122
1, 435354, Control_c, 0, 64, 127
1, 435364, Note_off_c, 0, 72, 62
1, 435384, Note_off_c, 0, 66, 62
1, 435386, Note_on_c, 0, 80, 91
1, 435387, Note_on_c, 0, 56, 65
1, 435398, Note_on_c, 0, 78, 77
1, 435426, Note_off_c, 0, 56, 64
1, 435426, Note_off_c, 0, 78, 59
1, 435445, Note_off_c, 0, 80, 62
1, 435500, Note_on_c, 0, 49, 79
1, 435501, Note_on_c, 0, 80, 81
1, 435509, Note_on_c, 0, 78, 87
1, 435533, Control_c, 0, 64, 110
1, 435540, Note_off_c, 0, 49, 60
1, 435548, Control_c, 0, 64, 86
1, 435563, Control_c, 0, 64, 65
1, 435577, Control_c, 0, 64, 0
1, 435583, Note_off_c, 0, 80, 65
1, 435604, Note_off_c, 0, 78, 64
1, 435607, Control_c, 0, 64, 62
1, 435613, Note_on_c, 0, 77, 86
1, 435613, Note_on_c, 0, 65, 66
1, 435622, Control_c, 0, 64, 75
1, 435637, Control_c, 0, 64, 87
1, 435652, Control_c, 0, 64, 96
1, 435667, Control_c, 0, 64, 100
1, 435681, Control_c, 0, 64, 103
1, 435696, Control_c, 0, 64, 109
1, 435711, Control_c, 0, 64, 117
1, 435726, Control_c, 0, 64, 123
1, 435740, Control_c, 0, 64, 126
1, 435755, Control_c, 0, 64, 127
1, 435770, Control_c, 0, 64, 126
1, 435771, Note_on_c, 0, 56, 63
1, 435775, Note_on_c, 0, 85, 91
1, 435785, Control_c, 0, 64, 121
1, 435787, Note_off_c, 0, 65, 35
1, 435799, Control_c, 0, 64, 102
1, 435814, Control_c, 0, 64, 79
1, 435825, Note_off_c, 0, 77, 56
1, 435829, Control_c, 0, 64, 10
1, 435844, Control_c, 0, 64, 0
1, 435881, Control_c, 0, 64, 65
1, 435896, Control_c, 0, 64, 80
1, 435911, Control_c, 0, 64, 95
1, 435926, Control_c, 0, 64, 105
1, 435941, Control_c, 0, 64, 109
1, 435947, Note_off_c, 0, 56, 58
1, 435955, Control_c, 0, 64, 115
1, 435957, Note_off_c, 0, 85, 61
1, 435968, Note_on_c, 0, 55, 59
1, 435969, Note_on_c, 0, 73, 76
1, 435970, Control_c, 0, 64, 127
1, 436033, Note_off_c, 0, 73, 62
1, 436095, Note_on_c, 0, 84, 73
1, 436102, Note_on_c, 0, 56, 65
1, 436106, Note_on_c, 0, 77, 68
1, 436116, Note_off_c, 0, 55, 62
1, 436144, Note_off_c, 0, 77, 56
1, 436211, Note_on_c, 0, 83, 73
1, 436212, Note_on_c, 0, 57, 67
1, 436212, Note_on_c, 0, 73, 72
1, 436218, Note_off_c, 0, 56, 61
1, 436253, Note_off_c, 0, 84, 57
1, 436258, Note_off_c, 0, 73, 51
1, 436314, Note_on_c, 0, 58, 74
1, 436316, Note_on_c, 0, 77, 68
1, 436317, Note_on_c, 0, 82, 66
1, 436320, Note_off_c, 0, 57, 61
1, 436322, Note_off_c, 0, 83, 60
1, 436355, Control_c, 0, 64, 119
1, 436363, Note_off_c, 0, 82, 61
1, 436366, Note_off_c, 0, 77, 55
1, 436370, Control_c, 0, 64, 95
1, 436385, Control_c, 0, 64, 77
1, 436391, Note_off_c, 0, 58, 64
1, 436397, Note_on_c, 0, 59, 75
1, 436400, Control_c, 0, 64, 66
1, 436414, Control_c, 0, 64, 69
1, 436429, Control_c, 0, 64, 78
1, 436433, Note_on_c, 0, 81, 69
1, 436444, Control_c, 0, 64, 94
1, 436459, Control_c, 0, 64, 106
1, 436464, Note_off_c, 0, 81, 60
1, 436474, Control_c, 0, 64, 111
1, 436487, Note_on_c, 0, 60, 79
1, 436489, Control_c, 0, 64, 113
1, 436496, Note_off_c, 0, 59, 56
1, 436503, Control_c, 0, 64, 117
1, 436518, Control_c, 0, 64, 121
1, 436533, Control_c, 0, 64, 125
1, 436548, Control_c, 0, 64, 127
1, 436561, Note_on_c, 0, 80, 53
1, 436569, Note_off_c, 0, 60, 60
1, 436571, Note_on_c, 0, 61, 89
1, 436583, Note_off_c, 0, 80, 61
1, 436669, Note_off_c, 0, 61, 61
1, 436673, Note_on_c, 0, 60, 84
1, 436687, Note_on_c, 0, 84, 57
1, 436713, Note_off_c, 0, 84, 66
1, 436721, Note_off_c, 0, 60, 60
1, 436792, Control_c, 0, 64, 124
1, 436807, Control_c, 0, 64, 104
1, 436821, Control_c, 0, 64, 80
1, 436826, Note_on_c, 0, 80, 83
1, 436827, Note_on_c, 0, 74, 69
1, 436836, Control_c, 0, 64, 0
1, 436844, Note_on_c, 0, 53, 78
1, 436855, Note_on_c, 0, 71, 22
1, 436870, Note_off_c, 0, 74, 66
1, 436881, Control_c, 0, 64, 45
1, 436890, Note_off_c, 0, 71, 37
1, 436895, Control_c, 0, 64, 75
1, 436896, Note_off_c, 0, 53, 64
1, 436898, Note_off_c, 0, 80, 60
1, 436910, Control_c, 0, 64, 92
1, 436925, Control_c, 0, 64, 112
1, 436940, Control_c, 0, 64, 117
1, 436943, Note_on_c, 0, 72, 67
1, 436952, Note_on_c, 0, 75, 59
1, 436955, Control_c, 0, 64, 120
1, 436967, Note_off_c, 0, 72, 66
1, 436970, Control_c, 0, 64, 127
1, 436979, Note_on_c, 0, 68, 70
1, 436984, Control_c, 0, 64, 127
1, 436988, Note_off_c, 0, 75, 61
1, 437038, Note_on_c, 0, 76, 66
1, 437044, Note_off_c, 0, 68, 62
1, 437047, Note_on_c, 0, 73, 61
1, 437073, Note_on_c, 0, 62, 51
1, 437078, Note_off_c, 0, 73, 66
1, 437116, Note_on_c, 0, 59, 70
1, 437123, Note_off_c, 0, 62, 60
1, 437125, Note_on_c, 0, 77, 83
1, 437132, Note_off_c, 0, 76, 58
1, 437134, Note_on_c, 0, 74, 66
1, 437157, Note_off_c, 0, 74, 71
1, 437177, Note_off_c, 0, 77, 61
1, 437213, Note_on_c, 0, 78, 80
1, 437214, Note_off_c, 0, 59, 54
1, 437226, Note_on_c, 0, 68, 76
1, 437228, Note_on_c, 0, 75, 55
1, 437246, Note_off_c, 0, 75, 64
1, 437268, Note_on_c, 0, 62, 65
1, 437271, Note_off_c, 0, 68, 63
1, 437271, Note_off_c, 0, 78, 58
1, 437294, Note_off_c, 0, 62, 63
1, 437318, Note_on_c, 0, 79, 22
1, 437341, Control_c, 0, 64, 103
1, 437354, Note_off_c, 0, 79, 30
1, 437356, Control_c, 0, 64, 77
1, 437378, Control_c, 0, 64, 0
1, 437378, Note_on_c, 0, 52, 84
1, 437387, Note_on_c, 0, 80, 86
1, 437390, Note_on_c, 0, 77, 73
1, 437408, Control_c, 0, 64, 54
1, 437412, Note_off_c, 0, 52, 65
1, 437422, Note_off_c, 0, 77, 62
1, 437423, Control_c, 0, 64, 74
1, 437424, Note_off_c, 0, 80, 53
1, 437438, Control_c, 0, 64, 90
1, 437452, Control_c, 0, 64, 112
1, 437467, Control_c, 0, 64, 125
1, 437472, Note_on_c, 0, 79, 77
1, 437479, Note_on_c, 0, 67, 76
1, 437482, Control_c, 0, 64, 127
1, 437554, Note_off_c, 0, 79, 38
1, 437554, Note_on_c, 0, 82, 83
1, 437555, Note_on_c, 0, 61, 74
1, 437558, Note_off_c, 0, 67, 60
1, 437560, Note_on_c, 0, 85, 71
1, 437573, Note_off_c, 0, 82, 70
1, 437583, Note_off_c, 0, 85, 70
1, 437604, Note_off_c, 0, 61, 63
1, 437689, Control_c, 0, 64, 93
1, 437697, Note_on_c, 0, 72, 78
1, 437700, Note_on_c, 0, 51, 76
1, 437700, Note_on_c, 0, 69, 82
1, 437701, Note_on_c, 0, 78, 87
1, 437704, Control_c, 0, 64, 68
1, 437718, Control_c, 0, 64, 0
1, 437724, Note_off_c, 0, 69, 69
1, 437763, Control_c, 0, 64, 64
1, 437771, Note_off_c, 0, 72, 58
1, 437777, Control_c, 0, 64, 81
1, 437783, Note_off_c, 0, 51, 62
1, 437789, Note_off_c, 0, 78, 61
1, 437792, Control_c, 0, 64, 104
1, 437807, Control_c, 0, 64, 121
1, 437822, Control_c, 0, 64, 126
1, 437832, Note_on_c, 0, 73, 80
1, 437837, Note_on_c, 0, 70, 74
1, 437837, Control_c, 0, 64, 127
1, 437840, Note_on_c, 0, 66, 74
1, 437867, Note_off_c, 0, 70, 61
1, 437888, Note_off_c, 0, 73, 61
1, 437914, Note_off_c, 0, 66, 64
1, 437946, Note_on_c, 0, 74, 80
1, 437950, Note_on_c, 0, 60, 65
1, 437950, Note_on_c, 0, 71, 75
1, 437978, Note_off_c, 0, 71, 63
1, 437992, Note_off_c, 0, 74, 63
1, 438037, Note_on_c, 0, 57, 74
1, 438044, Note_on_c, 0, 72, 73
1, 438046, Note_on_c, 0, 75, 77
1, 438050, Note_off_c, 0, 60, 60
1, 438080, Note_off_c, 0, 72, 61
1, 438122, Note_on_c, 0, 73, 65
1, 438137, Note_off_c, 0, 57, 58
1, 438154, Note_on_c, 0, 66, 72
1, 438183, Note_on_c, 0, 76, 56
1, 438199, Note_on_c, 0, 60, 71
1, 438201, Note_off_c, 0, 66, 67
1, 438204, Note_off_c, 0, 76, 63
1, 438205, Note_off_c, 0, 75, 64
1, 438208, Note_off_c, 0, 73, 64
1, 438211, Note_on_c, 0, 74, 50
1, 438211, Note_on_c, 0, 77, 70
1, 438222, Note_off_c, 0, 60, 69
1, 438232, Note_off_c, 0, 74, 63
1, 438242, Note_off_c, 0, 77, 61
1, 438275, Control_c, 0, 64, 106
1, 438290, Note_on_c, 0, 50, 86
1, 438290, Control_c, 0, 64, 77
1, 438305, Control_c, 0, 64, 0
1, 438316, Note_on_c, 0, 76, 63
1, 438326, Note_off_c, 0, 50, 66
1, 438335, Control_c, 0, 64, 55
1, 438349, Control_c, 0, 64, 75
1, 438351, Note_off_c, 0, 76, 59
1, 438364, Control_c, 0, 64, 96
1, 438371, Note_on_c, 0, 78, 33
1, 438379, Control_c, 0, 64, 124
1, 438391, Note_on_c, 0, 65, 80
1, 438393, Control_c, 0, 64, 127
1, 438403, Note_off_c, 0, 78, 42
1, 438451, Note_on_c, 0, 83, 73
1, 438460, Note_on_c, 0, 59, 68
1, 438461, Note_off_c, 0, 65, 63
1, 438475, Note_off_c, 0, 83, 68
1, 438486, Note_off_c, 0, 59, 67
1, 438570, Control_c, 0, 64, 114
1, 438585, Note_on_c, 0, 49, 80
1, 438585, Control_c, 0, 64, 84
1, 438594, Note_on_c, 0, 76, 68
1, 438600, Control_c, 0, 64, 30
1, 438600, Note_on_c, 0, 67, 63
1, 438615, Control_c, 0, 64, 0
1, 438621, Note_off_c, 0, 67, 61
1, 438644, Note_off_c, 0, 76, 64
1, 438648, Note_off_c, 0, 49, 62
1, 438659, Control_c, 0, 64, 72
1, 438674, Control_c, 0, 64, 90
1, 438690, Control_c, 0, 64, 111
1, 438701, Note_on_c, 0, 68, 79
1, 438701, Note_on_c, 0, 71, 43
1, 438703, Note_on_c, 0, 64, 70
1, 438704, Control_c, 0, 64, 122
1, 438719, Control_c, 0, 64, 127
1, 438728, Note_off_c, 0, 68, 63
1, 438782, Note_off_c, 0, 71, 59
1, 438788, Note_on_c, 0, 72, 81
1, 438803, Note_on_c, 0, 58, 69
1, 438803, Note_off_c, 0, 64, 52
1, 438808, Note_on_c, 0, 69, 69
1, 438842, Note_off_c, 0, 69, 63
1, 438878, Note_on_c, 0, 73, 73
1, 438887, Note_on_c, 0, 70, 68
1, 438892, Note_on_c, 0, 55, 72
1, 438892, Note_off_c, 0, 58, 63
1, 438921, Note_off_c, 0, 72, 61
1, 438951, Note_off_c, 0, 70, 61
1, 438958, Note_off_c, 0, 73, 63
1, 438958, Note_on_c, 0, 74, 67
1, 438970, Note_on_c, 0, 64, 64
1, 438972, Note_on_c, 0, 71, 70
1, 438972, Note_off_c, 0, 55, 63
1, 438997, Note_off_c, 0, 71, 67
1, 439001, Note_off_c, 0, 74, 67
1, 439035, Note_on_c, 0, 58, 68
1, 439045, Note_off_c, 0, 64, 63
1, 439057, Note_on_c, 0, 75, 80
1, 439062, Note_off_c, 0, 58, 66
1, 439074, Note_on_c, 0, 72, 67
1, 439083, Control_c, 0, 64, 108
1, 439097, Control_c, 0, 64, 80
1, 439099, Note_off_c, 0, 72, 66
1, 439112, Control_c, 0, 64, 0
1, 439134, Note_on_c, 0, 48, 85
1, 439141, Control_c, 0, 64, 64
1, 439142, Note_on_c, 0, 73, 73
1, 439149, Note_on_c, 0, 76, 72
1, 439156, Control_c, 0, 64, 80
1, 439169, Note_off_c, 0, 48, 68
1, 439169, Note_off_c, 0, 75, 64
1, 439171, Control_c, 0, 64, 102
1, 439186, Control_c, 0, 64, 127
1, 439216, Note_off_c, 0, 73, 63
1, 439229, Note_on_c, 0, 74, 71
1, 439229, Note_on_c, 0, 77, 79
1, 439230, Note_on_c, 0, 64, 81
1, 439239, Note_off_c, 0, 76, 64
1, 439272, Note_off_c, 0, 74, 64
1, 439285, Note_off_c, 0, 77, 66
1, 439291, Note_on_c, 0, 58, 78
1, 439292, Note_off_c, 0, 64, 64
1, 439304, Note_on_c, 0, 78, 78
1, 439308, Note_on_c, 0, 75, 68
1, 439315, Note_off_c, 0, 58, 68
1, 439348, Note_off_c, 0, 75, 60
1, 439365, Note_off_c, 0, 78, 58
1, 439378, Control_c, 0, 64, 96
1, 439393, Control_c, 0, 64, 69
1, 439394, Note_on_c, 0, 47, 88
1, 439397, Note_on_c, 0, 79, 82
1, 439405, Note_on_c, 0, 76, 78
1, 439408, Control_c, 0, 64, 0
1, 439425, Note_off_c, 0, 47, 69
1, 439438, Note_off_c, 0, 76, 66
1, 439438, Control_c, 0, 64, 30
1, 439453, Control_c, 0, 64, 74
1, 439468, Control_c, 0, 64, 93
1, 439482, Note_on_c, 0, 81, 86
1, 439483, Control_c, 0, 64, 119
1, 439491, Note_on_c, 0, 64, 79
1, 439491, Note_on_c, 0, 78, 82
1, 439498, Control_c, 0, 64, 127
1, 439506, Note_off_c, 0, 79, 58
1, 439512, Note_off_c, 0, 78, 68
1, 439569, Note_on_c, 0, 76, 79
1, 439572, Note_on_c, 0, 79, 80
1, 439587, Note_on_c, 0, 59, 79
1, 439590, Note_off_c, 0, 64, 61
1, 439597, Note_off_c, 0, 76, 67
1, 439599, Note_off_c, 0, 81, 60
1, 439635, Note_off_c, 0, 79, 63
1, 439673, Note_off_c, 0, 59, 62
1, 439682, Note_on_c, 0, 55, 85
1, 439685, Note_on_c, 0, 75, 81
1, 439688, Note_on_c, 0, 78, 89
1, 439713, Note_off_c, 0, 75, 62
1, 439769, Note_off_c, 0, 55, 62
1, 439774, Note_on_c, 0, 64, 81
1, 439775, Note_on_c, 0, 79, 88
1, 439776, Note_on_c, 0, 76, 80
1, 439777, Note_off_c, 0, 78, 60
1, 439849, Note_on_c, 0, 59, 73
1, 439852, Note_off_c, 0, 64, 63
1, 439858, Note_on_c, 0, 78, 87
1, 439858, Note_on_c, 0, 81, 84
1, 439870, Note_off_c, 0, 76, 54
1, 439870, Note_off_c, 0, 59, 71
1, 439874, Note_off_c, 0, 79, 63
1, 439896, Note_off_c, 0, 78, 66
1, 439911, Note_off_c, 0, 81, 64
1, 439920, Control_c, 0, 64, 118
1, 439935, Control_c, 0, 64, 87
1, 439950, Control_c, 0, 64, 60
1, 439964, Control_c, 0, 64, 0
1, 439966, Note_on_c, 0, 46, 82
1, 439975, Note_on_c, 0, 79, 91
1, 439977, Note_on_c, 0, 82, 93
1, 439994, Control_c, 0, 64, 63
1, 439999, Note_off_c, 0, 46, 64
1, 440009, Control_c, 0, 64, 79
1, 440024, Note_off_c, 0, 79, 57
1, 440024, Control_c, 0, 64, 95
1, 440038, Control_c, 0, 64, 110
1, 440053, Control_c, 0, 64, 113
1, 440068, Control_c, 0, 64, 117
1, 440073, Note_on_c, 0, 80, 78
1, 440079, Note_off_c, 0, 82, 64
1, 440081, Note_on_c, 0, 64, 72
1, 440083, Control_c, 0, 64, 127
1, 440086, Note_on_c, 0, 84, 69
1, 440161, Note_on_c, 0, 60, 70
1, 440165, Note_on_c, 0, 85, 82
1, 440168, Note_on_c, 0, 82, 85
1, 440170, Note_off_c, 0, 64, 62
1, 440184, Note_off_c, 0, 80, 63
1, 440191, Note_off_c, 0, 84, 65
1, 440197, Note_off_c, 0, 60, 64
1, 440213, Note_off_c, 0, 82, 65
1, 440233, Note_off_c, 0, 85, 65
1, 440306, Control_c, 0, 64, 108
1, 440321, Control_c, 0, 64, 81
1, 440335, Control_c, 0, 64, 0
1, 440338, Note_on_c, 0, 84, 89
1, 440344, Note_on_c, 0, 44, 76
1, 440345, Note_on_c, 0, 80, 72
1, 440379, Note_off_c, 0, 80, 65
1, 440402, Control_c, 0, 64, 66
1, 440417, Control_c, 0, 64, 79
1, 440420, Note_off_c, 0, 44, 63
1, 440429, Note_off_c, 0, 84, 63
1, 440432, Control_c, 0, 64, 93
1, 440447, Control_c, 0, 64, 108
1, 440461, Control_c, 0, 64, 122
1, 440476, Control_c, 0, 64, 127
1, 440559, Note_on_c, 0, 91, 85
1, 440561, Note_on_c, 0, 65, 72
1, 440568, Note_on_c, 0, 87, 81
1, 440606, Note_on_c, 0, 89, 18
1, 440615, Note_off_c, 0, 87, 58
1, 440648, Note_off_c, 0, 89, 31
1, 440693, Note_off_c, 0, 65, 59
1, 440696, Note_on_c, 0, 89, 77
1, 440699, Note_on_c, 0, 60, 64
1, 440700, Note_on_c, 0, 85, 83
1, 440726, Note_off_c, 0, 91, 58
1, 440776, Note_off_c, 0, 85, 59
1, 440785, Note_off_c, 0, 60, 56
1, 440788, Note_off_c, 0, 89, 63
1, 440790, Note_on_c, 0, 56, 66
1, 440810, Note_on_c, 0, 84, 84
1, 440872, Note_off_c, 0, 84, 66
1, 440896, Note_on_c, 0, 65, 69
1, 440905, Note_on_c, 0, 87, 86
1, 440907, Note_off_c, 0, 56, 38
1, 440963, Note_off_c, 0, 65, 64
1, 440970, Note_on_c, 0, 60, 60
1, 440991, Note_on_c, 0, 82, 76
1, 440993, Note_on_c, 0, 85, 69
1, 440999, Note_off_c, 0, 60, 65
1, 441027, Note_off_c, 0, 87, 60
1, 441068, Control_c, 0, 64, 96
1, 441084, Control_c, 0, 64, 74
1, 441087, Note_on_c, 0, 46, 80
1, 441099, Note_on_c, 0, 80, 85
1, 441099, Control_c, 0, 64, 0
1, 441100, Note_off_c, 0, 82, 56
1, 441125, Note_off_c, 0, 46, 64
1, 441128, Note_off_c, 0, 85, 63
1, 441137, Control_c, 0, 64, 64
1, 441152, Note_off_c, 0, 80, 64
1, 441152, Control_c, 0, 64, 82
1, 441166, Control_c, 0, 64, 102
1, 441181, Control_c, 0, 64, 120
1, 441196, Control_c, 0, 64, 121
1, 441209, Note_on_c, 0, 84, 83
1, 441211, Control_c, 0, 64, 123
1, 441216, Note_on_c, 0, 65, 63
1, 441225, Control_c, 0, 64, 127
1, 441281, Note_on_c, 0, 61, 67
1, 441289, Note_on_c, 0, 79, 75
1, 441289, Note_off_c, 0, 65, 63
1, 441291, Note_on_c, 0, 82, 78
1, 441309, Note_off_c, 0, 61, 64
1, 441313, Note_off_c, 0, 84, 63
1, 441327, Note_off_c, 0, 79, 61
1, 441342, Note_off_c, 0, 82, 65
1, 441388, Control_c, 0, 64, 110
1, 441403, Control_c, 0, 64, 86
1, 441410, Note_on_c, 0, 72, 77
1, 441412, Note_on_c, 0, 48, 76
1, 441417, Control_c, 0, 64, 65
1, 441432, Control_c, 0, 64, 0
1, 441443, Note_off_c, 0, 48, 69
1, 441462, Control_c, 0, 64, 66
1, 441477, Control_c, 0, 64, 81
1, 441492, Control_c, 0, 64, 97
1, 441493, Note_off_c, 0, 72, 58
1, 441501, Note_on_c, 0, 79, 63
1, 441506, Control_c, 0, 64, 110
1, 441516, Note_on_c, 0, 82, 75
1, 441521, Control_c, 0, 64, 115
1, 441533, Note_on_c, 0, 65, 67
1, 441536, Control_c, 0, 64, 124
1, 441541, Note_off_c, 0, 79, 58
1, 441551, Control_c, 0, 64, 127
1, 441577, Note_on_c, 0, 77, 74
1, 441595, Note_on_c, 0, 80, 74
1, 441605, Note_off_c, 0, 65, 60
1, 441622, Note_on_c, 0, 60, 49
1, 441625, Note_off_c, 0, 82, 62
1, 441629, Note_off_c, 0, 77, 63
1, 441651, Note_off_c, 0, 80, 65
1, 441662, Note_off_c, 0, 60, 64
1, 441671, Note_on_c, 0, 56, 63
1, 441676, Note_on_c, 0, 68, 80
1, 441720, Note_off_c, 0, 68, 62
1, 441730, Note_off_c, 0, 56, 56
1, 441753, Note_on_c, 0, 79, 72
1, 441766, Note_on_c, 0, 65, 57
1, 441772, Note_on_c, 0, 75, 50
1, 441798, Note_off_c, 0, 65, 67
1, 441803, Note_on_c, 0, 60, 44
1, 441831, Note_on_c, 0, 77, 72
1, 441831, Note_off_c, 0, 75, 48
1, 441831, Note_off_c, 0, 60, 51
1, 441832, Note_on_c, 0, 73, 72
1, 441840, Note_off_c, 0, 79, 56
1, 441896, Note_off_c, 0, 73, 62
1, 441908, Note_off_c, 0, 77, 59
1, 441915, Control_c, 0, 64, 108
1, 441924, Note_on_c, 0, 48, 73
1, 441930, Control_c, 0, 64, 85
1, 441933, Note_on_c, 0, 67, 73
1, 441945, Control_c, 0, 64, 63
1, 441951, Note_off_c, 0, 48, 67
1, 441960, Control_c, 0, 64, 0
1, 441989, Control_c, 0, 64, 26
1, 442004, Control_c, 0, 64, 73
1, 442019, Control_c, 0, 64, 85
1, 442027, Note_on_c, 0, 76, 71
1, 442029, Note_on_c, 0, 64, 64
1, 442030, Note_on_c, 0, 72, 65
1, 442034, Note_off_c, 0, 67, 62
1, 442034, Control_c, 0, 64, 97
1, 442049, Control_c, 0, 64, 101
1, 442064, Control_c, 0, 64, 104
1, 442079, Control_c, 0, 64, 109
1, 442094, Control_c, 0, 64, 118
1, 442105, Note_on_c, 0, 60, 68
1, 442106, Note_off_c, 0, 64, 59
1, 442109, Control_c, 0, 64, 127
1, 442109, Note_off_c, 0, 72, 63
1, 442110, Note_on_c, 0, 70, 77
1, 442110, Note_off_c, 0, 76, 64
1, 442130, Note_off_c, 0, 60, 66
1, 442164, Note_off_c, 0, 70, 61
1, 442250, Note_on_c, 0, 70, 74
1, 442258, Note_on_c, 0, 49, 64
1, 442285, Control_c, 0, 64, 105
1, 442300, Control_c, 0, 64, 85
1, 442314, Control_c, 0, 64, 65
1, 442329, Control_c, 0, 64, 0
1, 442365, Note_off_c, 0, 70, 41
1, 442367, Note_on_c, 0, 79, 64
1, 442374, Control_c, 0, 64, 69
1, 442381, Note_on_c, 0, 76, 47
1, 442385, Note_on_c, 0, 61, 51
1, 442389, Control_c, 0, 64, 82
1, 442404, Control_c, 0, 64, 92
1, 442419, Note_off_c, 0, 76, 48
1, 442419, Control_c, 0, 64, 96
1, 442433, Control_c, 0, 64, 100
1, 442448, Control_c, 0, 64, 104
1, 442454, Note_off_c, 0, 49, 32
1, 442459, Note_on_c, 0, 77, 73
1, 442463, Note_on_c, 0, 56, 52
1, 442463, Control_c, 0, 64, 111
1, 442468, Note_off_c, 0, 61, 53
1, 442469, Note_off_c, 0, 79, 60
1, 442475, Note_on_c, 0, 68, 64
1, 442478, Control_c, 0, 64, 117
1, 442493, Control_c, 0, 64, 121
1, 442507, Control_c, 0, 64, 124
1, 442520, Note_off_c, 0, 77, 57
1, 442522, Control_c, 0, 64, 125
1, 442537, Control_c, 0, 64, 126
1, 442539, Note_off_c, 0, 56, 61
1, 442551, Control_c, 0, 64, 127
1, 442561, Note_on_c, 0, 72, 74
1, 442562, Note_on_c, 0, 53, 57
1, 442640, Note_off_c, 0, 68, 35
1, 442649, Note_on_c, 0, 61, 55
1, 442650, Note_on_c, 0, 75, 71
1, 442651, Note_off_c, 0, 72, 62
1, 442717, Note_off_c, 0, 61, 61
1, 442726, Note_on_c, 0, 56, 51
1, 442731, Note_off_c, 0, 53, 38
1, 442738, Note_on_c, 0, 70, 74
1, 442739, Note_on_c, 0, 73, 67
1, 442755, Note_off_c, 0, 56, 63
1, 442780, Note_off_c, 0, 75, 62
1, 442812, Control_c, 0, 64, 119
1, 442827, Control_c, 0, 64, 98
1, 442842, Control_c, 0, 64, 76
1, 442854, Note_on_c, 0, 46, 68
1, 442856, Note_on_c, 0, 68, 74
1, 442857, Control_c, 0, 64, 0
1, 442857, Note_off_c, 0, 70, 58
1, 442891, Note_off_c, 0, 73, 59
1, 442901, Control_c, 0, 64, 65
1, 442904, Note_off_c, 0, 46, 61
1, 442909, Note_off_c, 0, 68, 64
1, 442916, Control_c, 0, 64, 76
1, 442931, Control_c, 0, 64, 85
1, 442945, Control_c, 0, 64, 90
1, 442960, Control_c, 0, 64, 92
1, 442970, Note_on_c, 0, 72, 74
1, 442975, Control_c, 0, 64, 93
1, 442976, Note_on_c, 0, 61, 59
1, 442989, Control_c, 0, 64, 95
1, 443004, Control_c, 0, 64, 97
1, 443019, Control_c, 0, 64, 99
1, 443034, Control_c, 0, 64, 100
1, 443048, Note_off_c, 0, 61, 59
1, 443049, Control_c, 0, 64, 101
1, 443063, Control_c, 0, 64, 102
1, 443071, Note_on_c, 0, 55, 60
1, 443074, Note_on_c, 0, 70, 70
1, 443074, Note_on_c, 0, 67, 67
1, 443078, Control_c, 0, 64, 103
1, 443093, Control_c, 0, 64, 105
1, 443099, Note_off_c, 0, 72, 61
1, 443108, Control_c, 0, 64, 106
1, 443113, Note_off_c, 0, 55, 65
1, 443123, Control_c, 0, 64, 106
1, 443137, Control_c, 0, 64, 107
1, 443156, Note_off_c, 0, 67, 50
1, 443241, Control_c, 0, 64, 101
1, 443250, Note_on_c, 0, 68, 68
1, 443250, Note_on_c, 0, 48, 57
1, 443253, Note_on_c, 0, 65, 54
1, 443256, Control_c, 0, 64, 90
1, 443271, Control_c, 0, 64, 75
1, 443286, Control_c, 0, 64, 36
1, 443301, Control_c, 0, 64, 0
1, 443326, Note_off_c, 0, 48, 62
1, 443345, Control_c, 0, 64, 67
1, 443367, Control_c, 0, 64, 74
1, 443382, Control_c, 0, 64, 80
1, 443390, Note_on_c, 0, 60, 59
1, 443396, Control_c, 0, 64, 83
1, 443411, Control_c, 0, 64, 86
1, 443426, Control_c, 0, 64, 89
1, 443441, Control_c, 0, 64, 94
1, 443456, Control_c, 0, 64, 98
1, 443471, Note_off_c, 0, 60, 59
1, 443471, Control_c, 0, 64, 102
1, 443483, Note_on_c, 0, 61, 63
1, 443486, Control_c, 0, 64, 105
1, 443501, Control_c, 0, 64, 105
1, 443531, Control_c, 0, 64, 105
1, 443542, Note_off_c, 0, 70, 13
1, 443546, Control_c, 0, 64, 103
1, 443554, Note_off_c, 0, 61, 61
1, 443560, Control_c, 0, 64, 93
1, 443571, Note_on_c, 0, 67, 72
1, 443575, Control_c, 0, 64, 78
1, 443588, Note_on_c, 0, 60, 64
1, 443590, Control_c, 0, 64, 59
1, 443605, Control_c, 0, 64, 0
1, 443608, Note_off_c, 0, 65, 57
1, 443620, Control_c, 0, 64, 52
1, 443635, Control_c, 0, 64, 72
1, 443636, Note_off_c, 0, 60, 48
1, 443650, Control_c, 0, 64, 83
1, 443658, Note_on_c, 0, 59, 63
1, 443665, Control_c, 0, 64, 91
1, 443679, Control_c, 0, 64, 93
1, 443690, Note_off_c, 0, 68, 38
1, 443694, Control_c, 0, 64, 96
1, 443697, Note_off_c, 0, 59, 59
1, 443709, Control_c, 0, 64, 100
1, 443724, Control_c, 0, 64, 108
1, 443738, Control_c, 0, 64, 113
1, 443739, Note_on_c, 0, 60, 63
1, 443753, Control_c, 0, 64, 114
1, 443798, Control_c, 0, 64, 110
1, 443799, Note_off_c, 0, 60, 41
1, 443812, Control_c, 0, 64, 93
1, 443817, Note_on_c, 0, 64, 70
1, 443826, Note_on_c, 0, 55, 61
1, 443827, Control_c, 0, 64, 75
1, 443842, Control_c, 0, 64, 20
1, 443857, Control_c, 0, 64, 0
1, 443869, Note_off_c, 0, 67, 59
1, 443872, Control_c, 0, 64, 50
1, 443883, Note_off_c, 0, 55, 61
1, 443886, Control_c, 0, 64, 71
1, 443894, Note_off_c, 0, 64, 64
1, 443901, Control_c, 0, 64, 82
1, 443916, Control_c, 0, 64, 93
1, 443918, Note_on_c, 0, 60, 64
1, 443930, Control_c, 0, 64, 96
1, 443945, Control_c, 0, 64, 98
1, 443960, Control_c, 0, 64, 102
1, 443975, Control_c, 0, 64, 108
1, 443990, Control_c, 0, 64, 115
1, 443996, Note_on_c, 0, 72, 69
1, 443999, Note_off_c, 0, 60, 57
1, 444002, Note_on_c, 0, 57, 55
1, 444002, Note_on_c, 0, 63, 62
1, 444004, Control_c, 0, 64, 121
1, 444019, Control_c, 0, 64, 122
1, 444030, Note_off_c, 0, 63, 65
1, 444063, Note_off_c, 0, 72, 56
1, 444064, Control_c, 0, 64, 120
1, 444079, Control_c, 0, 64, 107
1, 444094, Control_c, 0, 64, 89
1, 444097, Note_on_c, 0, 58, 60
1, 444097, Note_off_c, 0, 57, 55
1, 444110, Note_on_c, 0, 65, 70
1, 444116, Control_c, 0, 64, 66
1, 444117, Note_on_c, 0, 62, 66
1, 444131, Control_c, 0, 64, 0
1, 444145, Control_c, 0, 64, 52
1, 444160, Control_c, 0, 64, 67
1, 444161, Note_off_c, 0, 62, 57
1, 444168, Note_off_c, 0, 58, 59
1, 444175, Control_c, 0, 64, 77
1, 444188, Note_on_c, 0, 53, 61
1, 444190, Control_c, 0, 64, 87
1, 444205, Control_c, 0, 64, 95
1, 444219, Control_c, 0, 64, 98
1, 444234, Control_c, 0, 64, 104
1, 444238, Note_off_c, 0, 65, 54
1, 444249, Control_c, 0, 64, 111
1, 444264, Note_off_c, 0, 53, 63
1, 444264, Control_c, 0, 64, 116
1, 444279, Note_on_c, 0, 55, 60
1, 444280, Control_c, 0, 64, 117
1, 444286, Note_on_c, 0, 70, 71
1, 444288, Note_on_c, 0, 61, 67
1, 444309, Control_c, 0, 64, 110
1, 444316, Note_off_c, 0, 61, 65
1, 444324, Control_c, 0, 64, 94
1, 444329, Note_off_c, 0, 55, 64
1, 444339, Control_c, 0, 64, 81
1, 444353, Note_on_c, 0, 56, 56
1, 444353, Control_c, 0, 64, 77
1, 444365, Note_off_c, 0, 70, 59
1, 444368, Control_c, 0, 64, 80
1, 444371, Note_on_c, 0, 63, 77
1, 444377, Note_on_c, 0, 60, 76
1, 444383, Control_c, 0, 64, 87
1, 444398, Control_c, 0, 64, 100
1, 444413, Control_c, 0, 64, 110
1, 444428, Control_c, 0, 64, 117
1, 444434, Note_off_c, 0, 56, 63
1, 444439, Note_off_c, 0, 60, 60
1, 444443, Control_c, 0, 64, 119
1, 444448, Note_off_c, 0, 63, 63
1, 444449, Note_on_c, 0, 51, 67
1, 444472, Control_c, 0, 64, 110
1, 444487, Control_c, 0, 64, 87
1, 444502, Control_c, 0, 64, 72
1, 444513, Note_off_c, 0, 51, 60
1, 444517, Control_c, 0, 64, 68
1, 444525, Note_on_c, 0, 53, 67
1, 444532, Control_c, 0, 64, 74
1, 444535, Note_on_c, 0, 68, 72
1, 444539, Note_on_c, 0, 60, 71
1, 444547, Control_c, 0, 64, 86
1, 444561, Control_c, 0, 64, 101
1, 444564, Note_off_c, 0, 60, 69
1, 444576, Control_c, 0, 64, 112
1, 444588, Note_off_c, 0, 53, 66
1, 444591, Control_c, 0, 64, 117
1, 444606, Control_c, 0, 64, 118
1, 444613, Note_off_c, 0, 68, 62
1, 444618, Note_on_c, 0, 55, 75
1, 444619, Note_on_c, 0, 62, 80
1, 444627, Note_on_c, 0, 59, 76
1, 444650, Control_c, 0, 64, 118
1, 444660, Note_off_c, 0, 59, 59
1, 444662, Note_off_c, 0, 55, 61
1, 444665, Control_c, 0, 64, 108
1, 444680, Control_c, 0, 64, 86
1, 444695, Control_c, 0, 64, 65
1, 444702, Note_on_c, 0, 50, 67
1, 444709, Control_c, 0, 64, 0
1, 444735, Note_off_c, 0, 62, 55
1, 444739, Control_c, 0, 64, 24
1, 444753, Control_c, 0, 64, 71
1, 444768, Control_c, 0, 64, 87
1, 444771, Note_on_c, 0, 67, 73
1, 444772, Note_off_c, 0, 50, 63
1, 444776, Note_on_c, 0, 52, 73
1, 444783, Control_c, 0, 64, 99
1, 444787, Note_on_c, 0, 58, 63
1, 444798, Control_c, 0, 64, 101
1, 444813, Control_c, 0, 64, 103
1, 444814, Note_off_c, 0, 67, 59
1, 444816, Note_off_c, 0, 58, 66
1, 444827, Control_c, 0, 64, 106
1, 444842, Control_c, 0, 64, 109
1, 444858, Note_off_c, 0, 52, 66
1, 444865, Control_c, 0, 64, 111
1, 444872, Note_on_c, 0, 53, 72
1, 444880, Control_c, 0, 64, 112
1, 444881, Note_on_c, 0, 60, 77
1, 444888, Note_on_c, 0, 57, 72
1, 444895, Control_c, 0, 64, 113
1, 444926, Note_off_c, 0, 57, 61
1, 444940, Note_off_c, 0, 53, 58
1, 444968, Control_c, 0, 64, 113
1, 444983, Control_c, 0, 64, 115
1, 444994, Note_off_c, 0, 60, 57
1, 444996, Note_on_c, 0, 48, 44
1, 444998, Control_c, 0, 64, 117
1, 445008, Note_on_c, 0, 47, 41
1, 445013, Control_c, 0, 64, 118
1, 445032, Note_on_c, 0, 65, 77
1, 445042, Control_c, 0, 64, 119
1, 445047, Note_off_c, 0, 47, 56
1, 445050, Note_on_c, 0, 56, 66
1, 445051, Note_off_c, 0, 48, 64
1, 445057, Control_c, 0, 64, 119
1, 445070, Note_on_c, 0, 49, 67
1, 445082, Note_off_c, 0, 56, 63
1, 445093, Note_off_c, 0, 65, 63
1, 445118, Control_c, 0, 64, 117
1, 445132, Control_c, 0, 64, 105
1, 445147, Control_c, 0, 64, 88
1, 445162, Control_c, 0, 64, 64
1, 445173, Note_off_c, 0, 49, 60
1, 445176, Control_c, 0, 64, 0
1, 445179, Note_on_c, 0, 65, 73
1, 445189, Note_on_c, 0, 46, 65
1, 445194, Note_on_c, 0, 61, 61
1, 445196, Note_on_c, 0, 55, 55
1, 445221, Control_c, 0, 64, 65
1, 445236, Control_c, 0, 64, 76
1, 445250, Note_off_c, 0, 46, 54
1, 445251, Control_c, 0, 64, 86
1, 445265, Control_c, 0, 64, 91
1, 445281, Control_c, 0, 64, 95
1, 445284, Note_on_c, 0, 45, 61
1, 445296, Control_c, 0, 64, 101
1, 445301, Note_off_c, 0, 61, 54
1, 445311, Control_c, 0, 64, 109
1, 445313, Note_off_c, 0, 55, 30
1, 445325, Control_c, 0, 64, 116
1, 445340, Control_c, 0, 64, 117
1, 445363, Note_on_c, 0, 46, 72
1, 445364, Note_off_c, 0, 45, 65
1, 445370, Control_c, 0, 64, 114
1, 445385, Control_c, 0, 64, 100
1, 445400, Control_c, 0, 64, 83
1, 445414, Control_c, 0, 64, 65
1, 445420, Note_on_c, 0, 64, 71
1, 445425, Note_off_c, 0, 46, 62
1, 445429, Control_c, 0, 64, 0
1, 445436, Note_off_c, 0, 65, 54
1, 445437, Note_on_c, 0, 60, 64
1, 445438, Note_on_c, 0, 55, 65
1, 445444, Control_c, 0, 64, 62
1, 445447, Note_on_c, 0, 48, 75
1, 445459, Control_c, 0, 64, 72
1, 445474, Control_c, 0, 64, 82
1, 445489, Control_c, 0, 64, 93
1, 445501, Note_off_c, 0, 48, 64
1, 445504, Control_c, 0, 64, 99
1, 445509, Note_on_c, 0, 47, 74
1, 445519, Control_c, 0, 64, 102
1, 445533, Control_c, 0, 64, 107
1, 445548, Control_c, 0, 64, 114
1, 445554, Note_off_c, 0, 55, 52
1, 445555, Note_off_c, 0, 60, 61
1, 445563, Control_c, 0, 64, 119
1, 445570, Note_off_c, 0, 47, 63
1, 445584, Note_on_c, 0, 48, 68
1, 445614, Control_c, 0, 64, 111
1, 445629, Control_c, 0, 64, 93
1, 445644, Control_c, 0, 64, 68
1, 445650, Note_off_c, 0, 48, 65
1, 445652, Note_on_c, 0, 63, 77
1, 445654, Note_on_c, 0, 45, 67
1, 445658, Note_off_c, 0, 64, 63
1, 445659, Note_on_c, 0, 53, 67
1, 445659, Control_c, 0, 64, 0
1, 445664, Note_on_c, 0, 60, 68
1, 445689, Control_c, 0, 64, 60
1, 445704, Control_c, 0, 64, 73
1, 445719, Control_c, 0, 64, 86
1, 445721, Note_off_c, 0, 45, 64
1, 445733, Control_c, 0, 64, 100
1, 445740, Note_on_c, 0, 44, 67
1, 445748, Control_c, 0, 64, 106
1, 445763, Control_c, 0, 64, 110
1, 445766, Note_off_c, 0, 60, 61
1, 445778, Control_c, 0, 64, 113
1, 445793, Control_c, 0, 64, 113
1, 445820, Note_on_c, 0, 45, 70
1, 445820, Note_off_c, 0, 44, 63
1, 445823, Control_c, 0, 64, 110
1, 445838, Control_c, 0, 64, 94
1, 445853, Control_c, 0, 64, 73
1, 445867, Control_c, 0, 64, 0
1, 445876, Note_on_c, 0, 61, 78
1, 445886, Note_off_c, 0, 45, 65
1, 445888, Note_on_c, 0, 58, 71
1, 445891, Note_on_c, 0, 46, 72
1, 445897, Control_c, 0, 64, 56
1, 445912, Note_off_c, 0, 63, 62
1, 445912, Control_c, 0, 64, 72
1, 445927, Control_c, 0, 64, 89
1, 445930, Note_off_c, 0, 53, 61
1, 445932, Note_off_c, 0, 46, 63
1, 445940, Note_on_c, 0, 48, 65
1, 445942, Control_c, 0, 64, 104
1, 445957, Control_c, 0, 64, 113
1, 445972, Control_c, 0, 64, 117
1, 445987, Control_c, 0, 64, 127
1, 446001, Control_c, 0, 64, 127
1, 446002, Note_on_c, 0, 44, 70
1, 446012, Note_off_c, 0, 48, 63
1, 446031, Control_c, 0, 64, 109
1, 446046, Control_c, 0, 64, 89
1, 446056, Note_off_c, 0, 58, 64
1, 446061, Control_c, 0, 64, 76
1, 446069, Note_off_c, 0, 44, 63
1, 446076, Control_c, 0, 64, 73
1, 446090, Control_c, 0, 64, 79
1, 446094, Note_on_c, 0, 43, 59
1, 446104, Note_on_c, 0, 52, 70
1, 446105, Control_c, 0, 64, 90
1, 446120, Control_c, 0, 64, 104
1, 446134, Control_c, 0, 64, 110
1, 446137, Note_on_c, 0, 44, 50
1, 446137, Note_off_c, 0, 43, 59
1, 446149, Control_c, 0, 64, 111
1, 446164, Control_c, 0, 64, 112
1, 446179, Control_c, 0, 64, 113
1, 446194, Control_c, 0, 64, 116
1, 446206, Note_off_c, 0, 44, 61
1, 446208, Control_c, 0, 64, 118
1, 446215, Note_on_c, 0, 41, 73
1, 446223, Control_c, 0, 64, 119
1, 446237, Note_on_c, 0, 53, 77
1, 446238, Control_c, 0, 64, 120
1, 446253, Control_c, 0, 64, 122
1, 446261, Note_off_c, 0, 52, 65
1, 446266, Note_off_c, 0, 61, 58
1, 446268, Note_off_c, 0, 53, 66
1, 446268, Control_c, 0, 64, 124
1, 446277, Note_off_c, 0, 41, 63
1, 446297, Control_c, 0, 64, 124
1, 446312, Control_c, 0, 64, 111
1, 446324, Note_on_c, 0, 40, 63
1, 446327, Note_on_c, 0, 60, 81
1, 446327, Control_c, 0, 64, 90
1, 446340, Note_on_c, 0, 58, 71
1, 446342, Control_c, 0, 64, 66
1, 446360, Note_on_c, 0, 55, 63
1, 446364, Control_c, 0, 64, 0
1, 446379, Note_on_c, 0, 41, 70
1, 446380, Note_off_c, 0, 40, 58
1, 446394, Control_c, 0, 64, 61
1, 446408, Control_c, 0, 64, 77
1, 446423, Control_c, 0, 64, 92
1, 446433, Note_off_c, 0, 41, 63
1, 446438, Control_c, 0, 64, 108
1, 446453, Control_c, 0, 64, 115
1, 446456, Note_on_c, 0, 43, 70
1, 446468, Control_c, 0, 64, 118
1, 446470, Note_off_c, 0, 55, 0
1, 446470, Note_on_c, 0, 55, 17
1, 446482, Control_c, 0, 64, 120
1, 446512, Control_c, 0, 64, 117
1, 446513, Note_off_c, 0, 55, 52
1, 446526, Control_c, 0, 64, 100
1, 446529, Note_off_c, 0, 43, 60
1, 446533, Note_on_c, 0, 41, 73
1, 446541, Control_c, 0, 64, 79
1, 446556, Note_on_c, 0, 56, 81
1, 446556, Control_c, 0, 64, 53
1, 446559, Note_on_c, 0, 53, 73
1, 446571, Control_c, 0, 64, 0
1, 446574, Note_off_c, 0, 60, 55
1, 446586, Note_off_c, 0, 41, 66
1, 446586, Control_c, 0, 64, 66
1, 446600, Note_off_c, 0, 53, 62
1, 446601, Note_off_c, 0, 58, 63
1, 446601, Control_c, 0, 64, 83
1, 446606, Note_on_c, 0, 43, 68
1, 446612, Note_off_c, 0, 56, 65
1, 446616, Control_c, 0, 64, 105
1, 446631, Control_c, 0, 64, 127
1, 446689, Note_on_c, 0, 39, 68
1, 446720, Note_off_c, 0, 43, 38
1, 446761, Note_off_c, 0, 39, 62
1, 446765, Control_c, 0, 64, 106
1, 446769, Note_on_c, 0, 65, 79
1, 446773, Note_on_c, 0, 37, 65
1, 446774, Note_on_c, 0, 53, 78
1, 446779, Control_c, 0, 64, 82
1, 446780, Note_on_c, 0, 56, 69
1, 446794, Control_c, 0, 64, 38
1, 446809, Control_c, 0, 64, 0
1, 446818, Note_off_c, 0, 53, 60
1, 446822, Note_off_c, 0, 56, 60
1, 446824, Control_c, 0, 64, 61
1, 446838, Control_c, 0, 64, 75
1, 446851, Note_off_c, 0, 37, 64
1, 446853, Control_c, 0, 64, 91
1, 446855, Note_on_c, 0, 39, 66
1, 446868, Control_c, 0, 64, 110
1, 446883, Control_c, 0, 64, 118
1, 446898, Control_c, 0, 64, 120
1, 446910, Note_off_c, 0, 65, 56
1, 446912, Control_c, 0, 64, 127
1, 446920, Note_off_c, 0, 39, 62
1, 446925, Note_on_c, 0, 36, 53
1, 446979, Note_off_c, 0, 36, 63
1, 447001, Control_c, 0, 64, 110
1, 447014, Note_on_c, 0, 34, 58
1, 447016, Note_on_c, 0, 65, 82
1, 447016, Control_c, 0, 64, 87
1, 447021, Note_on_c, 0, 53, 72
1, 447030, Control_c, 0, 64, 67
1, 447045, Control_c, 0, 64, 0
1, 447060, Control_c, 0, 64, 56
1, 447063, Note_off_c, 0, 34, 63
1, 447075, Control_c, 0, 64, 74
1, 447090, Control_c, 0, 64, 88
1, 447111, Note_on_c, 0, 36, 58
1, 447112, Control_c, 0, 64, 102
1, 447127, Control_c, 0, 64, 110
1, 447142, Note_off_c, 0, 53, 60
1, 447142, Control_c, 0, 64, 113
1, 447156, Control_c, 0, 64, 121
1, 447171, Control_c, 0, 64, 127
1, 447187, Note_off_c, 0, 36, 63
1, 447202, Note_on_c, 0, 37, 59
1, 447216, Control_c, 0, 64, 121
1, 447230, Control_c, 0, 64, 94
1, 447239, Note_on_c, 0, 57, 79
1, 447244, Note_on_c, 0, 53, 78
1, 447245, Control_c, 0, 64, 77
1, 447260, Control_c, 0, 64, 73
1, 447275, Control_c, 0, 64, 82
1, 447283, Note_off_c, 0, 37, 57
1, 447286, Note_off_c, 0, 65, 57
1, 447290, Control_c, 0, 64, 99
1, 447304, Control_c, 0, 64, 127
1, 447314, Note_on_c, 0, 36, 61
1, 447322, Note_off_c, 0, 53, 55
1, 447379, Control_c, 0, 64, 107
1, 447394, Control_c, 0, 64, 82
1, 447406, Note_on_c, 0, 39, 61
1, 447408, Note_off_c, 0, 57, 57
1, 447409, Control_c, 0, 64, 69
1, 447415, Note_off_c, 0, 36, 61
1, 447418, Note_on_c, 0, 37, 54
1, 447424, Control_c, 0, 64, 72
1, 447438, Control_c, 0, 64, 84
1, 447441, Note_on_c, 0, 58, 83
1, 447442, Note_on_c, 0, 53, 77
1, 447453, Control_c, 0, 64, 112
1, 447468, Control_c, 0, 64, 127
1, 447492, Note_off_c, 0, 53, 64
1, 447516, Note_off_c, 0, 37, 63
1, 447526, Note_on_c, 0, 41, 75
1, 447528, Note_off_c, 0, 39, 62
1, 447534, Note_off_c, 0, 58, 61
1, 447543, Control_c, 0, 64, 115
1, 447558, Control_c, 0, 64, 92
1, 447564, Note_off_c, 0, 41, 66
1, 447573, Control_c, 0, 64, 90
1, 447587, Control_c, 0, 64, 93
1, 447602, Control_c, 0, 64, 102
1, 447606, Note_on_c, 0, 40, 70
1, 447617, Control_c, 0, 64, 120
1, 447632, Control_c, 0, 64, 127
1, 447632, Note_on_c, 0, 55, 83
1, 447632, Note_on_c, 0, 60, 83
1, 447639, Note_on_c, 0, 58, 80
1, 447656, Note_off_c, 0, 55, 70
1, 447668, Note_on_c, 0, 41, 68
1, 447671, Note_off_c, 0, 58, 67
1, 447671, Note_off_c, 0, 60, 65
1, 447680, Note_off_c, 0, 40, 62
1, 447736, Note_on_c, 0, 43, 77
1, 447748, Note_off_c, 0, 41, 64
1, 447765, Control_c, 0, 64, 110
1, 447779, Control_c, 0, 64, 83
1, 447794, Control_c, 0, 64, 62
1, 447809, Control_c, 0, 64, 53
1, 447823, Note_off_c, 0, 43, 62
1, 447824, Control_c, 0, 64, 71
1, 447839, Control_c, 0, 64, 90
1, 447841, Note_on_c, 0, 41, 63
1, 447857, Note_on_c, 0, 60, 68
1, 447857, Note_on_c, 0, 68, 91
1, 447861, Note_on_c, 0, 56, 90
1, 447861, Control_c, 0, 64, 127
1, 447880, Note_off_c, 0, 41, 66
1, 447907, Note_on_c, 0, 46, 80
1, 447909, Note_off_c, 0, 60, 63
1, 447910, Note_off_c, 0, 68, 67
1, 447912, Note_off_c, 0, 56, 59
1, 447966, Poly_aftertouch_c, 0, 66, 0
1, 447989, Note_off_c, 0, 46, 56
1, 447996, Note_on_c, 0, 44, 71
1, 448039, Note_off_c, 0, 44, 63
1, 448039, Control_c, 0, 64, 100
1, 448052, Note_on_c, 0, 43, 60
1, 448053, Control_c, 0, 64, 77
1, 448068, Control_c, 0, 64, 65
1, 448071, Note_on_c, 0, 64, 83
1, 448073, Note_on_c, 0, 60, 71
1, 448076, Note_on_c, 0, 55, 84
1, 448082, Note_on_c, 0, 58, 75
1, 448083, Control_c, 0, 64, 69
1, 448097, Control_c, 0, 64, 80
1, 448103, Note_off_c, 0, 55, 66
1, 448112, Control_c, 0, 64, 97
1, 448123, Note_off_c, 0, 43, 61
1, 448124, Note_on_c, 0, 44, 78
1, 448127, Control_c, 0, 64, 127
1, 448142, Control_c, 0, 64, 127
1, 448143, Note_off_c, 0, 58, 54
1, 448152, Note_off_c, 0, 64, 58
1, 448189, Note_on_c, 0, 46, 82
1, 448196, Note_off_c, 0, 44, 62
1, 448258, Note_off_c, 0, 60, 0
1, 448261, Control_c, 0, 64, 105
1, 448271, Note_on_c, 0, 60, 41
1, 448277, Control_c, 0, 64, 83
1, 448282, Note_on_c, 0, 65, 87
1, 448288, Note_on_c, 0, 56, 91
1, 448292, Control_c, 0, 64, 78
1, 448307, Control_c, 0, 64, 83
1, 448313, Note_on_c, 0, 62, 44
1, 448315, Note_on_c, 0, 48, 79
1, 448321, Control_c, 0, 64, 101
1, 448327, Note_off_c, 0, 65, 66
1, 448328, Note_off_c, 0, 56, 66
1, 448336, Control_c, 0, 64, 127
1, 448339, Note_off_c, 0, 60, 62
1, 448342, Note_off_c, 0, 62, 49
1, 448427, Note_off_c, 0, 48, 63
1, 448444, Note_on_c, 0, 60, 44
1, 448445, Note_on_c, 0, 44, 53
1, 448464, Note_off_c, 0, 44, 63
1, 448470, Control_c, 0, 64, 116
1, 448478, Note_off_c, 0, 46, 59
1, 448485, Control_c, 0, 64, 83
1, 448491, Note_on_c, 0, 54, 95
1, 448492, Note_on_c, 0, 63, 90
1, 448497, Note_off_c, 0, 60, 0
1, 448497, Note_on_c, 0, 60, 12
1, 448500, Control_c, 0, 64, 0
1, 448507, Note_on_c, 0, 45, 64
1, 448529, Control_c, 0, 64, 68
1, 448530, Note_off_c, 0, 54, 62
1, 448544, Control_c, 0, 64, 82
1, 448559, Control_c, 0, 64, 106
1, 448567, Note_on_c, 0, 44, 54
1, 448574, Control_c, 0, 64, 127
1, 448589, Note_off_c, 0, 63, 58
1, 448658, Note_on_c, 0, 46, 56
1, 448671, Note_off_c, 0, 45, 61
1, 448673, Note_off_c, 0, 60, 24
1, 448686, Note_off_c, 0, 44, 51
1, 448705, Note_on_c, 0, 48, 75
1, 448707, Note_on_c, 0, 58, 64
1, 448708, Note_on_c, 0, 53, 91
1, 448709, Note_on_c, 0, 61, 88
1, 448732, Note_off_c, 0, 46, 56
1, 448742, Note_off_c, 0, 58, 66
1, 448746, Note_off_c, 0, 53, 66
1, 448754, Note_off_c, 0, 61, 65
1, 448801, Note_off_c, 0, 48, 61
1, 448892, Control_c, 0, 64, 117
1, 448907, Control_c, 0, 64, 84
1, 448922, Control_c, 0, 64, 0
1, 448933, Note_on_c, 0, 56, 86
1, 448935, Note_on_c, 0, 60, 88
1, 448935, Note_on_c, 0, 53, 89
1, 448944, Note_on_c, 0, 48, 85
1, 448981, Control_c, 0, 64, 69
1, 448996, Control_c, 0, 64, 89
1, 449010, Control_c, 0, 64, 117
1, 449025, Control_c, 0, 64, 127
1, 449027, Note_off_c, 0, 48, 60
1, 449034, Note_on_c, 0, 44, 78
1, 449089, Note_off_c, 0, 44, 63
1, 449135, Note_on_c, 0, 41, 82
1, 449162, Note_off_c, 0, 60, 60
1, 449173, Note_off_c, 0, 56, 61
1, 449185, Note_off_c, 0, 53, 53
1, 449199, Note_on_c, 0, 37, 76
1, 449200, Note_off_c, 0, 41, 63
1, 449278, Note_off_c, 0, 37, 65
1, 449293, Note_on_c, 0, 36, 66
1, 449322, Note_on_c, 0, 35, 8
1, 449375, Note_on_c, 0, 37, 82
1, 449381, Note_off_c, 0, 35, 52
1, 449384, Note_off_c, 0, 36, 62
1, 449448, Control_c, 0, 64, 94
1, 449460, Note_on_c, 0, 58, 41
1, 449462, Note_off_c, 0, 37, 63
1, 449463, Control_c, 0, 64, 56
1, 449466, Note_on_c, 0, 36, 79
1, 449468, Note_on_c, 0, 52, 97
1, 449468, Note_on_c, 0, 60, 82
1, 449478, Control_c, 0, 64, 0
1, 449505, Note_on_c, 0, 35, 7
1, 449522, Control_c, 0, 64, 64
1, 449531, Note_off_c, 0, 52, 56
1, 449537, Control_c, 0, 64, 81
1, 449552, Control_c, 0, 64, 101
1, 449561, Note_off_c, 0, 35, 34
1, 449567, Control_c, 0, 64, 123
1, 449567, Note_on_c, 0, 44, 75
1, 449579, Note_off_c, 0, 60, 61
1, 449582, Control_c, 0, 64, 127
1, 449592, Note_off_c, 0, 58, 64
1, 449609, Note_off_c, 0, 36, 62
1, 449618, Note_off_c, 0, 44, 64
1, 449673, Note_on_c, 0, 43, 87
1, 449674, Poly_aftertouch_c, 0, 46, 0
1, 449833, Control_c, 0, 64, 99
1, 449843, Note_off_c, 0, 43, 60
1, 449848, Control_c, 0, 64, 64
1, 449851, Note_on_c, 0, 48, 96
1, 449853, Note_on_c, 0, 65, 84
1, 449856, Note_on_c, 0, 41, 86
1, 449859, Note_on_c, 0, 56, 86
1, 449863, Control_c, 0, 64, 0
1, 449923, Control_c, 0, 64, 53
1, 449938, Control_c, 0, 64, 79
1, 449942, Note_off_c, 0, 56, 57
1, 449953, Control_c, 0, 64, 95
1, 449959, Note_off_c, 0, 41, 65
1, 449967, Control_c, 0, 64, 114
1, 449972, Note_off_c, 0, 48, 66
1, 449982, Control_c, 0, 64, 127
1, 449984, Note_on_c, 0, 57, 72
1, 450021, Note_off_c, 0, 65, 63
1, 450023, Note_off_c, 0, 57, 61
1, 450083, Note_on_c, 0, 51, 90
1, 450106, Note_on_c, 0, 60, 79
1, 450111, Note_on_c, 0, 66, 76
1, 450138, Note_off_c, 0, 66, 66
1, 450159, Note_off_c, 0, 60, 56
1, 450190, Note_on_c, 0, 69, 74
1, 450206, Note_on_c, 0, 54, 81
1, 450213, Note_on_c, 0, 60, 53
1, 450229, Note_on_c, 0, 62, 54
1, 450250, Note_off_c, 0, 60, 63
1, 450252, Note_off_c, 0, 62, 58
1, 450265, Note_off_c, 0, 51, 49
1, 450267, Note_off_c, 0, 69, 62
1, 450345, Note_on_c, 0, 57, 78
1, 450348, Note_off_c, 0, 54, 53
1, 450354, Poly_aftertouch_c, 0, 63, 0
1, 450356, Note_on_c, 0, 72, 83
1, 450381, Note_on_c, 0, 67, 50
1, 450406, Note_off_c, 0, 67, 55
1, 450415, Note_off_c, 0, 57, 63
1, 450422, Note_on_c, 0, 60, 98
1, 450434, Note_on_c, 0, 75, 88
1, 450435, Note_on_c, 0, 68, 82
1, 450455, Note_off_c, 0, 72, 58
1, 450480, Note_off_c, 0, 68, 59
1, 450515, Note_on_c, 0, 69, 77
1, 450527, Note_off_c, 0, 75, 64
1, 450540, Note_off_c, 0, 69, 69
1, 450595, Note_on_c, 0, 63, 85
1, 450604, Note_off_c, 0, 60, 59
1, 450612, Note_on_c, 0, 72, 88
1, 450615, Note_on_c, 0, 78, 88
1, 450634, Note_off_c, 0, 78, 68
1, 450655, Note_off_c, 0, 72, 62
1, 450685, Note_on_c, 0, 81, 81
1, 450691, Note_on_c, 0, 66, 90
1, 450706, Note_on_c, 0, 74, 48
1, 450711, Note_on_c, 0, 72, 50
1, 450729, Note_off_c, 0, 72, 67
1, 450739, Note_on_c, 0, 75, 76
1, 450747, Note_off_c, 0, 74, 65
1, 450760, Note_off_c, 0, 81, 58
1, 450774, Note_off_c, 0, 75, 65
1, 450780, Note_off_c, 0, 63, 60
1, 450836, Note_on_c, 0, 69, 83
1, 450849, Note_on_c, 0, 84, 90
1, 450856, Note_on_c, 0, 79, 79
1, 450881, Note_off_c, 0, 79, 64
1, 450887, Note_off_c, 0, 66, 58
1, 450905, Note_off_c, 0, 69, 65
1, 450919, Note_on_c, 0, 72, 97
1, 450924, Note_on_c, 0, 87, 86
1, 450926, Note_on_c, 0, 80, 86
1, 450938, Note_off_c, 0, 84, 59
1, 450974, Note_off_c, 0, 80, 59
1, 451011, Note_on_c, 0, 81, 86
1, 451025, Note_off_c, 0, 87, 62
1, 451039, Note_off_c, 0, 81, 61
1, 451092, Note_on_c, 0, 75, 83
1, 451100, Note_off_c, 0, 72, 63
1, 451110, Note_on_c, 0, 90, 94
1, 451111, Note_on_c, 0, 84, 84
1, 451130, Note_off_c, 0, 90, 64
1, 451147, Note_on_c, 0, 86, 26
1, 451148, Note_off_c, 0, 86, 127
1, 451148, Note_off_c, 0, 84, 65
1, 451185, Note_on_c, 0, 93, 89
1, 451191, Note_on_c, 0, 78, 93
1, 451195, Note_on_c, 0, 86, 61
1, 451227, Note_off_c, 0, 86, 65
1, 451233, Note_on_c, 0, 87, 61
1, 451260, Note_off_c, 0, 75, 56
1, 451263, Note_off_c, 0, 87, 67
1, 451264, Note_off_c, 0, 93, 61
1, 451332, Note_on_c, 0, 96, 91
1, 451339, Note_on_c, 0, 81, 91
1, 451340, Note_on_c, 0, 91, 74
1, 451351, Note_off_c, 0, 78, 58
1, 451362, Note_off_c, 0, 91, 66
1, 451375, Note_off_c, 0, 96, 65
1, 451424, Note_off_c, 0, 81, 63
1, 451455, Note_on_c, 0, 93, 103
1, 451455, Note_on_c, 0, 99, 112
1, 451460, Note_on_c, 0, 84, 104
1, 451477, Note_off_c, 0, 84, 75
1, 451486, Note_off_c, 0, 99, 72
1, 451489, Note_off_c, 0, 93, 65
1, 451724, Control_c, 0, 64, 98
1, 451739, Control_c, 0, 64, 73
1, 451740, Note_on_c, 0, 63, 66
1, 451743, Note_on_c, 0, 69, 81
1, 451744, Note_on_c, 0, 57, 82
1, 451749, Note_on_c, 0, 54, 74
1, 451750, Note_on_c, 0, 42, 74
1, 451751, Note_on_c, 0, 60, 59
1, 451753, Control_c, 0, 64, 36
1, 451768, Control_c, 0, 64, 65
1, 451770, Note_off_c, 0, 57, 67
1, 451779, Note_off_c, 0, 60, 65
1, 451783, Control_c, 0, 64, 78
1, 451785, Note_off_c, 0, 54, 63
1, 451794, Note_off_c, 0, 63, 64
1, 451798, Control_c, 0, 64, 96
1, 451806, Note_off_c, 0, 42, 63
1, 451813, Control_c, 0, 64, 127
1, 451833, Note_off_c, 0, 69, 52
1, 451856, Note_on_c, 0, 53, 79
1, 451864, Note_on_c, 0, 65, 85
1, 451868, Note_on_c, 0, 41, 73
1, 451892, Note_on_c, 0, 52, 34
1, 451893, Note_off_c, 0, 52, 127
1, 451895, Note_off_c, 0, 41, 68
1, 451901, Note_off_c, 0, 53, 66
1, 451926, Poly_aftertouch_c, 0, 52, 0
1, 451955, Note_on_c, 0, 66, 84
1, 451958, Note_off_c, 0, 65, 63
1, 451965, Note_on_c, 0, 51, 88
1, 451975, Note_on_c, 0, 39, 72
1, 451994, Note_off_c, 0, 51, 63
1, 452012, Note_off_c, 0, 39, 60
1, 452020, Control_c, 0, 64, 101
1, 452035, Control_c, 0, 64, 74
1, 452050, Control_c, 0, 64, 0
1, 452055, Note_on_c, 0, 49, 91
1, 452056, Note_on_c, 0, 70, 91
1, 452056, Note_on_c, 0, 58, 92
1, 452063, Note_on_c, 0, 65, 78
1, 452065, Control_c, 0, 64, 60
1, 452068, Note_on_c, 0, 37, 70
1, 452077, Note_off_c, 0, 49, 70
1, 452079, Control_c, 0, 64, 78
1, 452085, Note_off_c, 0, 58, 61
1, 452089, Note_off_c, 0, 37, 68
1, 452091, Note_on_c, 0, 43, 21
1, 452094, Control_c, 0, 64, 101
1, 452102, Note_off_c, 0, 65, 65
1, 452109, Control_c, 0, 64, 127
1, 452121, Note_off_c, 0, 66, 39
1, 452124, Note_off_c, 0, 70, 61
1, 452139, Note_off_c, 0, 43, 46
1, 452140, Note_on_c, 0, 48, 97
1, 452157, Note_on_c, 0, 36, 72
1, 452184, Note_off_c, 0, 36, 66
1, 452190, Note_off_c, 0, 48, 67
1, 452255, Note_on_c, 0, 46, 81
1, 452259, Note_on_c, 0, 34, 76
1, 452276, Note_on_c, 0, 44, 49
1, 452288, Note_off_c, 0, 46, 66
1, 452303, Control_c, 0, 64, 91
1, 452304, Note_off_c, 0, 44, 55
1, 452305, Note_off_c, 0, 34, 60
1, 452317, Control_c, 0, 64, 65
1, 452332, Control_c, 0, 64, 0
1, 452334, Note_on_c, 0, 61, 100
1, 452344, Note_on_c, 0, 70, 81
1, 452345, Note_on_c, 0, 65, 85
1, 452345, Note_on_c, 0, 73, 89
1, 452351, Note_on_c, 0, 44, 96
1, 452361, Note_on_c, 0, 32, 80
1, 452368, Note_on_c, 0, 38, 37
1, 452369, Control_c, 0, 64, 68
1, 452380, Note_off_c, 0, 61, 64
1, 452384, Control_c, 0, 64, 87
1, 452384, Note_off_c, 0, 65, 65
1, 452385, Note_off_c, 0, 44, 64
1, 452396, Note_off_c, 0, 32, 65
1, 452399, Control_c, 0, 64, 121
1, 452410, Note_off_c, 0, 38, 41
1, 452410, Note_off_c, 0, 73, 62
1, 452412, Note_off_c, 0, 70, 62
1, 452414, Control_c, 0, 64, 127
1, 452442, Note_on_c, 0, 43, 95
1, 452452, Note_on_c, 0, 31, 84
1, 452482, Note_on_c, 0, 38, 21
1, 452494, Note_off_c, 0, 31, 63
1, 452495, Note_off_c, 0, 43, 61
1, 452539, Note_off_c, 0, 38, 0
1, 452543, Note_on_c, 0, 43, 84
1, 452548, Note_on_c, 0, 31, 75
1, 452558, Note_on_c, 0, 38, 34
1, 452598, Note_off_c, 0, 31, 63
1, 452598, Note_off_c, 0, 43, 61
1, 452612, Note_off_c, 0, 38, 55
1, 452621, Control_c, 0, 64, 108
1, 452636, Control_c, 0, 64, 81
1, 452646, Note_on_c, 0, 43, 86
1, 452650, Control_c, 0, 64, 45
1, 452651, Note_on_c, 0, 31, 79
1, 452651, Note_on_c, 0, 60, 97
1, 452652, Note_on_c, 0, 70, 83
1, 452654, Note_on_c, 0, 64, 85
1, 452655, Note_on_c, 0, 72, 88
1, 452665, Control_c, 0, 64, 0
1, 452680, Control_c, 0, 64, 65
1, 452688, Note_off_c, 0, 43, 63
1, 452694, Note_off_c, 0, 72, 65
1, 452694, Control_c, 0, 64, 83
1, 452695, Note_off_c, 0, 60, 60
1, 452700, Note_off_c, 0, 31, 64
1, 452704, Note_off_c, 0, 64, 64
1, 452709, Control_c, 0, 64, 115
1, 452719, Note_off_c, 0, 70, 64
1, 452724, Control_c, 0, 64, 127
1, 452771, Note_on_c, 0, 36, 92
1, 452780, Note_on_c, 0, 24, 87
1, 452819, Note_off_c, 0, 24, 61
1, 452824, Note_off_c, 0, 36, 62
1, 452881, Note_on_c, 0, 36, 85
1, 452895, Note_on_c, 0, 24, 83
1, 452922, Note_on_c, 0, 31, 48
1, 452924, Note_off_c, 0, 24, 63
1, 452934, Note_off_c, 0, 36, 63
1, 452958, Note_off_c, 0, 31, 58
1, 452990, Control_c, 0, 64, 115
1, 452995, Note_on_c, 0, 58, 89
1, 452995, Note_on_c, 0, 64, 85
1, 452996, Note_on_c, 0, 52, 102
1, 452998, Note_on_c, 0, 37, 99
1, 453004, Note_on_c, 0, 25, 96
1, 453005, Control_c, 0, 64, 79
1, 453020, Control_c, 0, 64, 0
1, 453039, Note_on_c, 0, 62, 33
1, 453050, Note_on_c, 0, 31, 5
1, 453052, Note_off_c, 0, 37, 64
1, 453068, Note_off_c, 0, 25, 64
1, 453080, Note_off_c, 0, 62, 31
1, 453080, Control_c, 0, 64, 74
1, 453085, Note_off_c, 0, 52, 56
1, 453100, Note_off_c, 0, 31, 43
1, 453102, Control_c, 0, 64, 94
1, 453117, Control_c, 0, 64, 111
1, 453132, Control_c, 0, 64, 121
1, 453133, Note_on_c, 0, 36, 93
1, 453135, Note_off_c, 0, 64, 62
1, 453136, Note_off_c, 0, 58, 53
1, 453141, Note_on_c, 0, 24, 86
1, 453147, Control_c, 0, 64, 127
1, 453179, Note_off_c, 0, 36, 64
1, 453187, Note_off_c, 0, 24, 62
1, 453218, Poly_aftertouch_c, 0, 31, 127
1, 453252, Note_on_c, 0, 36, 94
1, 453252, Poly_aftertouch_c, 0, 31, 0
1, 453257, Note_on_c, 0, 24, 91
1, 453300, Note_off_c, 0, 36, 64
1, 453307, Note_off_c, 0, 24, 61
1, 453324, Poly_aftertouch_c, 0, 32, 127
1, 453354, Poly_aftertouch_c, 0, 32, 0
1, 453413, Control_c, 0, 64, 118
1, 453428, Control_c, 0, 64, 87
1, 453437, Note_on_c, 0, 65, 85
1, 453443, Control_c, 0, 64, 31
1, 453444, Note_on_c, 0, 56, 86
1, 453449, Note_on_c, 0, 41, 99
1, 453453, Note_on_c, 0, 29, 91
1, 453458, Control_c, 0, 64, 0
1, 453517, Control_c, 0, 64, 73
1, 453531, Note_off_c, 0, 56, 60
1, 453531, Control_c, 0, 64, 91
1, 453542, Note_off_c, 0, 29, 63
1, 453546, Control_c, 0, 64, 115
1, 453561, Control_c, 0, 64, 127
1, 453576, Note_off_c, 0, 41, 67
1, 453576, Note_on_c, 0, 57, 75
1, 453609, Note_off_c, 0, 57, 63
1, 453615, Note_off_c, 0, 65, 63
1, 453688, Note_on_c, 0, 51, 86
1, 453695, Note_on_c, 0, 66, 81
1, 453700, Note_on_c, 0, 60, 77
1, 453722, Note_off_c, 0, 66, 61
1, 453730, Note_off_c, 0, 60, 60
1, 453781, Note_on_c, 0, 69, 77
1, 453793, Note_on_c, 0, 62, 67
1, 453805, Note_on_c, 0, 54, 74
1, 453853, Note_on_c, 0, 63, 72
1, 453856, Note_off_c, 0, 51, 56
1, 453860, Note_off_c, 0, 69, 64
1, 453862, Note_off_c, 0, 62, 62
1, 453883, Note_off_c, 0, 63, 68
1, 453942, Note_on_c, 0, 57, 86
1, 453950, Note_on_c, 0, 72, 85
1, 453955, Note_on_c, 0, 67, 82
1, 453979, Note_off_c, 0, 67, 67
1, 453998, Note_off_c, 0, 54, 61
1, 454008, Note_off_c, 0, 57, 61
1, 454023, Note_on_c, 0, 60, 95
1, 454028, Note_on_c, 0, 75, 90
1, 454030, Note_on_c, 0, 68, 85
1, 454038, Note_off_c, 0, 72, 62
1, 454083, Note_off_c, 0, 68, 63
1, 454107, Note_on_c, 0, 69, 84
1, 454133, Note_off_c, 0, 75, 63
1, 454146, Note_off_c, 0, 69, 67
1, 454193, Note_on_c, 0, 63, 83
1, 454206, Note_off_c, 0, 60, 60
1, 454208, Note_on_c, 0, 72, 91
1, 454211, Note_on_c, 0, 78, 93
1, 454237, Note_off_c, 0, 78, 57
1, 454244, Note_off_c, 0, 72, 67
1, 454283, Note_on_c, 0, 81, 86
1, 454285, Note_on_c, 0, 66, 93
1, 454293, Note_on_c, 0, 74, 82
1, 454350, Note_on_c, 0, 75, 71
1, 454354, Note_off_c, 0, 74, 61
1, 454356, Note_off_c, 0, 81, 60
1, 454363, Note_off_c, 0, 63, 55
1, 454382, Note_off_c, 0, 75, 67
1, 454438, Note_on_c, 0, 69, 94
1, 454447, Note_on_c, 0, 84, 93
1, 454451, Note_on_c, 0, 79, 88
1, 454485, Note_off_c, 0, 66, 58
1, 454490, Note_off_c, 0, 69, 67
1, 454490, Note_off_c, 0, 79, 62
1, 454515, Note_on_c, 0, 72, 96
1, 454523, Note_on_c, 0, 87, 91
1, 454525, Note_on_c, 0, 80, 86
1, 454533, Note_off_c, 0, 84, 60
1, 454594, Note_off_c, 0, 80, 58
1, 454617, Note_on_c, 0, 81, 84
1, 454640, Note_off_c, 0, 87, 62
1, 454655, Note_off_c, 0, 81, 63
1, 454708, Note_on_c, 0, 75, 87
1, 454717, Note_on_c, 0, 90, 94
1, 454718, Note_on_c, 0, 84, 88
1, 454721, Note_off_c, 0, 72, 61
1, 454753, Note_off_c, 0, 84, 67
1, 454759, Note_off_c, 0, 90, 63
1, 454798, Note_on_c, 0, 93, 97
1, 454801, Note_on_c, 0, 86, 71
1, 454804, Note_on_c, 0, 78, 93
1, 454846, Note_off_c, 0, 86, 61
1, 454855, Note_off_c, 0, 93, 57
1, 454867, Note_off_c, 0, 75, 56
1, 454868, Note_on_c, 0, 87, 85
1, 454902, Note_off_c, 0, 87, 67
1, 454967, Note_off_c, 0, 78, 53
1, 454971, Note_on_c, 0, 81, 100
1, 454973, Note_on_c, 0, 96, 103
1, 454976, Note_on_c, 0, 91, 96
1, 455010, Note_off_c, 0, 91, 62
1, 455013, Note_off_c, 0, 96, 66
1, 455050, Note_off_c, 0, 81, 62
1, 455096, Note_on_c, 0, 84, 101
1, 455100, Note_on_c, 0, 93, 101
1, 455100, Note_on_c, 0, 99, 108
1, 455123, Note_off_c, 0, 84, 73
1, 455127, Note_on_c, 0, 97, 58
1, 455128, Note_off_c, 0, 97, 127
1, 455132, Note_off_c, 0, 99, 68
1, 455135, Note_off_c, 0, 93, 65
1, 455364, Control_c, 0, 64, 108
1, 455377, Note_on_c, 0, 72, 70
1, 455378, Note_on_c, 0, 69, 92
1, 455378, Note_on_c, 0, 81, 84
1, 455378, Control_c, 0, 64, 77
1, 455380, Note_on_c, 0, 75, 79
1, 455386, Note_on_c, 0, 54, 77
1, 455387, Note_on_c, 0, 66, 90
1, 455393, Control_c, 0, 64, 0
1, 455408, Note_off_c, 0, 72, 68
1, 455412, Note_off_c, 0, 69, 65
1, 455422, Control_c, 0, 64, 67
1, 455430, Note_off_c, 0, 66, 64
1, 455431, Note_off_c, 0, 75, 65
1, 455437, Control_c, 0, 64, 84
1, 455439, Note_off_c, 0, 54, 62
1, 455452, Control_c, 0, 64, 110
1, 455459, Note_off_c, 0, 81, 62
1, 455468, Control_c, 0, 64, 127
1, 455499, Note_on_c, 0, 65, 86
1, 455502, Note_on_c, 0, 77, 92
1, 455509, Note_on_c, 0, 53, 70
1, 455544, Note_off_c, 0, 53, 67
1, 455545, Note_off_c, 0, 65, 66
1, 455593, Note_on_c, 0, 78, 89
1, 455609, Note_on_c, 0, 63, 92
1, 455621, Note_off_c, 0, 77, 52
1, 455622, Note_on_c, 0, 51, 72
1, 455640, Note_off_c, 0, 63, 61
1, 455652, Note_off_c, 0, 51, 63
1, 455660, Control_c, 0, 64, 112
1, 455675, Control_c, 0, 64, 82
1, 455689, Note_on_c, 0, 52, 2
1, 455690, Note_off_c, 0, 52, 0
1, 455690, Control_c, 0, 64, 64
1, 455698, Note_on_c, 0, 61, 94
1, 455698, Note_on_c, 0, 82, 96
1, 455700, Note_on_c, 0, 70, 93
1, 455701, Note_on_c, 0, 77, 87
1, 455702, Note_on_c, 0, 55, 33
1, 455705, Control_c, 0, 64, 70
1, 455708, Note_on_c, 0, 49, 83
1, 455713, Note_off_c, 0, 78, 54
1, 455719, Control_c, 0, 64, 85
1, 455722, Note_off_c, 0, 61, 66
1, 455727, Note_off_c, 0, 70, 63
1, 455731, Poly_aftertouch_c, 0, 52, 0
1, 455734, Note_off_c, 0, 49, 67
1, 455734, Note_off_c, 0, 55, 64
1, 455734, Control_c, 0, 64, 111
1, 455742, Note_off_c, 0, 77, 63
1, 455749, Control_c, 0, 64, 127
1, 455758, Note_off_c, 0, 82, 64
1, 455787, Note_on_c, 0, 60, 91
1, 455800, Note_on_c, 0, 48, 83
1, 455807, Poly_aftertouch_c, 0, 51, 0
1, 455827, Note_off_c, 0, 48, 70
1, 455828, Note_off_c, 0, 60, 65
1, 455892, Note_on_c, 0, 58, 93
1, 455903, Note_on_c, 0, 46, 80
1, 455927, Control_c, 0, 64, 121
1, 455932, Note_off_c, 0, 58, 62
1, 455942, Control_c, 0, 64, 87
1, 455943, Note_off_c, 0, 46, 56
1, 455957, Control_c, 0, 64, 60
1, 455967, Poly_aftertouch_c, 0, 51, 0
1, 455972, Control_c, 0, 64, 0
1, 455977, Note_on_c, 0, 85, 91
1, 455979, Note_on_c, 0, 82, 89
1, 455980, Note_on_c, 0, 73, 100
1, 455985, Note_on_c, 0, 77, 88
1, 455987, Control_c, 0, 64, 69
1, 455988, Note_on_c, 0, 56, 93
1, 455998, Note_on_c, 0, 44, 82
1, 456002, Control_c, 0, 64, 93
1, 456008, Note_on_c, 0, 50, 61
1, 456017, Control_c, 0, 64, 127
1, 456018, Note_off_c, 0, 73, 66
1, 456018, Note_off_c, 0, 77, 58
1, 456032, Note_off_c, 0, 56, 65
1, 456033, Note_off_c, 0, 50, 64
1, 456043, Note_off_c, 0, 82, 62
1, 456046, Note_off_c, 0, 44, 62
1, 456047, Note_off_c, 0, 85, 64
1, 456084, Note_on_c, 0, 55, 94
1, 456105, Note_on_c, 0, 43, 87
1, 456128, Note_on_c, 0, 51, 35
1, 456140, Note_on_c, 0, 50, 38
1, 456149, Note_off_c, 0, 55, 63
1, 456158, Note_off_c, 0, 51, 47
1, 456161, Note_off_c, 0, 43, 59
1, 456170, Note_off_c, 0, 50, 53
1, 456200, Note_on_c, 0, 55, 77
1, 456202, Note_on_c, 0, 43, 64
1, 456254, Note_off_c, 0, 55, 65
1, 456270, Note_off_c, 0, 43, 58
1, 456292, Control_c, 0, 64, 96
1, 456307, Control_c, 0, 64, 68
1, 456313, Note_on_c, 0, 55, 91
1, 456314, Note_on_c, 0, 43, 72
1, 456320, Note_on_c, 0, 72, 96
1, 456321, Note_on_c, 0, 76, 83
1, 456322, Control_c, 0, 64, 0
1, 456322, Note_on_c, 0, 82, 84
1, 456322, Note_on_c, 0, 84, 92
1, 456336, Control_c, 0, 64, 59
1, 456351, Control_c, 0, 64, 76
1, 456351, Note_off_c, 0, 55, 65
1, 456363, Note_off_c, 0, 84, 65
1, 456366, Poly_aftertouch_c, 0, 50, 0
1, 456366, Control_c, 0, 64, 105
1, 456368, Note_off_c, 0, 72, 59
1, 456372, Note_off_c, 0, 43, 60
1, 456381, Control_c, 0, 64, 127
1, 456381, Note_off_c, 0, 76, 66
1, 456384, Note_off_c, 0, 82, 65
1, 456425, Poly_aftertouch_c, 0, 44, 0
1, 456448, Note_on_c, 0, 48, 98
1, 456456, Note_on_c, 0, 36, 82
1, 456510, Note_off_c, 0, 48, 62
1, 456519, Note_off_c, 0, 36, 61
1, 456541, Poly_aftertouch_c, 0, 44, 0
1, 456563, Note_on_c, 0, 48, 86
1, 456571, Note_on_c, 0, 36, 72
1, 456613, Note_off_c, 0, 36, 62
1, 456620, Note_off_c, 0, 48, 65
1, 456665, Poly_aftertouch_c, 0, 43, 127
1, 456676, Control_c, 0, 64, 120
1, 456690, Note_on_c, 0, 70, 88
1, 456691, Control_c, 0, 64, 88
1, 456692, Note_on_c, 0, 64, 100
1, 456693, Note_on_c, 0, 76, 92
1, 456694, Note_on_c, 0, 49, 97
1, 456701, Note_on_c, 0, 37, 90
1, 456706, Control_c, 0, 64, 64
1, 456714, Note_on_c, 0, 43, 13
1, 456721, Control_c, 0, 64, 0
1, 456739, Note_on_c, 0, 74, 30
1, 456751, Control_c, 0, 64, 70
1, 456751, Note_off_c, 0, 49, 62
1, 456766, Control_c, 0, 64, 92
1, 456770, Note_off_c, 0, 43, 44
1, 456772, Note_off_c, 0, 37, 64
1, 456781, Control_c, 0, 64, 127
1, 456841, Note_on_c, 0, 48, 100
1, 456846, Note_on_c, 0, 36, 83
1, 456861, Note_off_c, 0, 64, 58
1, 456876, Note_off_c, 0, 76, 63
1, 456879, Note_off_c, 0, 74, 22
1, 456885, Note_off_c, 0, 48, 67
1, 456905, Note_off_c, 0, 36, 62
1, 456958, Note_on_c, 0, 48, 94
1, 456962, Note_on_c, 0, 36, 81
1, 456995, Note_off_c, 0, 48, 68
1, 457017, Note_off_c, 0, 36, 64
1, 457144, Note_off_c, 0, 70, 9
1, 457156, Note_on_c, 0, 68, 44
1, 457166, Note_on_c, 0, 29, 88
1, 457174, Note_on_c, 0, 77, 95
1, 457178, Note_on_c, 0, 65, 97
1, 457204, Control_c, 0, 64, 86
1, 457219, Control_c, 0, 64, 0
1, 457228, Note_on_c, 0, 74, 22
1, 457265, Note_off_c, 0, 74, 51
1, 457277, Control_c, 0, 64, 68
1, 457281, Note_off_c, 0, 77, 62
1, 457291, Control_c, 0, 64, 90
1, 457306, Control_c, 0, 64, 127
1, 457311, Note_off_c, 0, 65, 66
1, 457323, Note_off_c, 0, 68, 63
1, 457380, Note_on_c, 0, 36, 81
1, 457451, Note_off_c, 0, 29, 37
1, 457510, Note_on_c, 0, 44, 73
1, 457535, Note_off_c, 0, 36, 61
1, 457536, Note_off_c, 0, 44, 65
1, 457572, Note_on_c, 0, 49, 68
1, 457636, Note_off_c, 0, 49, 62
1, 457653, Note_on_c, 0, 48, 71
1, 457699, Note_off_c, 0, 48, 65
1, 457730, Note_on_c, 0, 53, 68
1, 457774, Note_off_c, 0, 53, 62
1, 457797, Note_on_c, 0, 56, 52
1, 457830, Note_off_c, 0, 56, 53
1, 457851, Note_on_c, 0, 53, 48
1, 457863, Control_c, 0, 64, 114
1, 457875, Note_off_c, 0, 53, 63
1, 457878, Control_c, 0, 64, 89
1, 457883, Note_on_c, 0, 58, 66
1, 457893, Control_c, 0, 64, 46
1, 457907, Control_c, 0, 64, 0
1, 457940, Note_on_c, 0, 36, 68
1, 457952, Control_c, 0, 64, 67
1, 457964, Note_on_c, 0, 56, 48
1, 457967, Control_c, 0, 64, 83
1, 457979, Note_off_c, 0, 58, 62
1, 457982, Control_c, 0, 64, 108
1, 457991, Note_off_c, 0, 56, 57
1, 457996, Control_c, 0, 64, 127
1, 457997, Note_on_c, 0, 52, 59
1, 458031, Note_off_c, 0, 52, 64
1, 458062, Note_off_c, 0, 36, 53
1, 458109, Note_on_c, 0, 46, 28
1, 458131, Note_on_c, 0, 50, 31
1, 458143, Note_on_c, 0, 52, 27
1, 458150, Note_off_c, 0, 46, 42
1, 458153, Poly_aftertouch_c, 0, 55, 127
1, 458173, Note_off_c, 0, 50, 51
1, 458188, Note_off_c, 0, 52, 39
1, 458191, Poly_aftertouch_c, 0, 55, 0
1, 458211, Note_on_c, 0, 40, 59
1, 458215, Note_on_c, 0, 38, 47
1, 458234, Poly_aftertouch_c, 0, 57, 0
1, 458241, Note_off_c, 0, 40, 65
1, 458250, Note_off_c, 0, 38, 48
1, 458256, Poly_aftertouch_c, 0, 57, 0
1, 458256, Note_on_c, 0, 61, 72
1, 458261, Note_on_c, 0, 60, 15
1, 458268, Note_on_c, 0, 48, 48
1, 458285, Note_off_c, 0, 61, 66
1, 458296, Note_off_c, 0, 48, 60
1, 458317, Note_off_c, 0, 60, 53
1, 458347, Note_on_c, 0, 58, 78
1, 458368, Note_off_c, 0, 58, 72
1, 458369, Note_on_c, 0, 68, 78
1, 458387, Note_on_c, 0, 46, 9
1, 458419, Control_c, 0, 64, 116
1, 458434, Control_c, 0, 64, 86
1, 458435, Note_on_c, 0, 67, 66
1, 458447, Note_on_c, 0, 41, 86
1, 458448, Note_off_c, 0, 46, 47
1, 458449, Control_c, 0, 64, 49
1, 458453, Note_off_c, 0, 68, 62
1, 458463, Control_c, 0, 64, 0
1, 458468, Note_off_c, 0, 67, 62
1, 458489, Note_on_c, 0, 59, 67
1, 458493, Control_c, 0, 64, 58
1, 458507, Control_c, 0, 64, 78
1, 458518, Note_off_c, 0, 41, 66
1, 458522, Note_off_c, 0, 59, 60
1, 458522, Control_c, 0, 64, 97
1, 458534, Note_on_c, 0, 48, 70
1, 458537, Control_c, 0, 64, 122
1, 458552, Control_c, 0, 64, 127
1, 458566, Note_on_c, 0, 60, 67
1, 458603, Note_off_c, 0, 60, 61
1, 458607, Note_on_c, 0, 61, 68
1, 458614, Note_on_c, 0, 56, 70
1, 458617, Note_off_c, 0, 48, 64
1, 458634, Note_off_c, 0, 61, 66
1, 458675, Note_off_c, 0, 56, 63
1, 458679, Note_on_c, 0, 60, 53
1, 458680, Note_on_c, 0, 44, 55
1, 458705, Note_off_c, 0, 60, 67
1, 458731, Note_on_c, 0, 65, 73
1, 458739, Note_on_c, 0, 53, 71
1, 458744, Note_off_c, 0, 44, 62
1, 458784, Note_off_c, 0, 65, 65
1, 458786, Note_on_c, 0, 68, 70
1, 458839, Note_on_c, 0, 60, 76
1, 458848, Note_off_c, 0, 53, 64
1, 458849, Note_on_c, 0, 65, 61
1, 458849, Note_off_c, 0, 68, 63
1, 458868, Note_on_c, 0, 70, 68
1, 458888, Note_off_c, 0, 65, 64
1, 458909, Control_c, 0, 64, 95
1, 458924, Control_c, 0, 64, 69
1, 458926, Note_on_c, 0, 48, 93
1, 458933, Note_off_c, 0, 60, 51
1, 458938, Control_c, 0, 64, 0
1, 458944, Note_on_c, 0, 68, 69
1, 458960, Note_off_c, 0, 70, 61
1, 458973, Note_on_c, 0, 64, 57
1, 458978, Note_off_c, 0, 68, 62
1, 458983, Control_c, 0, 64, 71
1, 458998, Control_c, 0, 64, 89
1, 459012, Control_c, 0, 64, 112
1, 459027, Control_c, 0, 64, 127
1, 459030, Note_off_c, 0, 64, 61
1, 459037, Note_off_c, 0, 48, 62
1, 459047, Note_on_c, 0, 67, 61
1, 459052, Note_on_c, 0, 58, 72
1, 459084, Note_on_c, 0, 68, 80
1, 459088, Note_off_c, 0, 67, 63
1, 459113, Note_off_c, 0, 68, 63
1, 459121, Note_off_c, 0, 58, 60
1, 459128, Note_on_c, 0, 64, 58
1, 459149, Note_on_c, 0, 67, 74
1, 459162, Note_off_c, 0, 64, 54
1, 459176, Note_off_c, 0, 67, 64
1, 459186, Note_on_c, 0, 52, 75
1, 459215, Note_on_c, 0, 72, 73
1, 459227, Note_off_c, 0, 52, 63
1, 459242, Note_on_c, 0, 60, 65
1, 459246, Note_off_c, 0, 72, 65
1, 459252, Note_on_c, 0, 73, 72
1, 459287, Note_off_c, 0, 60, 63
1, 459307, Note_on_c, 0, 72, 70
1, 459314, Note_off_c, 0, 73, 55
1, 459319, Note_on_c, 0, 70, 71
1, 459335, Note_off_c, 0, 70, 66
1, 459338, Note_on_c, 0, 58, 43
1, 459353, Note_off_c, 0, 72, 63
1, 459357, Note_off_c, 0, 58, 61
1, 459369, Note_on_c, 0, 79, 76
1, 459419, Control_c, 0, 64, 110
1, 459434, Control_c, 0, 64, 81
1, 459449, Control_c, 0, 64, 0
1, 459452, Note_on_c, 0, 77, 77
1, 459452, Note_off_c, 0, 79, 58
1, 459463, Note_on_c, 0, 41, 87
1, 459493, Note_off_c, 0, 77, 62
1, 459494, Control_c, 0, 64, 53
1, 459509, Control_c, 0, 64, 78
1, 459524, Control_c, 0, 64, 98
1, 459539, Control_c, 0, 64, 122
1, 459553, Control_c, 0, 64, 127
1, 459576, Note_off_c, 0, 41, 66
1, 459579, Note_on_c, 0, 59, 66
1, 459584, Note_on_c, 0, 48, 67
1, 459640, Note_off_c, 0, 59, 61
1, 459644, Note_on_c, 0, 60, 68
1, 459665, Note_off_c, 0, 48, 65
1, 459669, Note_on_c, 0, 56, 69
1, 459692, Note_off_c, 0, 60, 63
1, 459735, Note_off_c, 0, 56, 62
1, 459745, Note_on_c, 0, 60, 67
1, 459752, Note_on_c, 0, 44, 75
1, 459770, Note_off_c, 0, 60, 67
1, 459815, Note_on_c, 0, 53, 71
1, 459817, Note_off_c, 0, 44, 62
1, 459819, Note_on_c, 0, 65, 60
1, 459855, Note_on_c, 0, 64, 28
1, 459865, Note_on_c, 0, 68, 63
1, 459890, Note_off_c, 0, 64, 47
1, 459906, Note_off_c, 0, 65, 58
1, 459915, Note_on_c, 0, 60, 78
1, 459924, Note_off_c, 0, 53, 65
1, 459935, Note_on_c, 0, 70, 66
1, 459937, Note_off_c, 0, 68, 64
1, 459961, Control_c, 0, 64, 100
1, 459976, Control_c, 0, 64, 70
1, 459989, Note_on_c, 0, 48, 92
1, 459991, Control_c, 0, 64, 0
1, 460004, Note_off_c, 0, 60, 61
1, 460013, Note_off_c, 0, 70, 53
1, 460015, Note_on_c, 0, 68, 46
1, 460035, Control_c, 0, 64, 74
1, 460036, Note_off_c, 0, 68, 61
1, 460050, Control_c, 0, 64, 94
1, 460065, Control_c, 0, 64, 127
1, 460080, Control_c, 0, 64, 127
1, 460103, Note_on_c, 0, 67, 64
1, 460113, Note_off_c, 0, 48, 60
1, 460119, Note_on_c, 0, 58, 72
1, 460126, Note_on_c, 0, 68, 67
1, 460136, Note_off_c, 0, 67, 64
1, 460158, Note_off_c, 0, 68, 64
1, 460184, Note_on_c, 0, 64, 60
1, 460188, Note_off_c, 0, 58, 64
1, 460202, Note_on_c, 0, 67, 54
1, 460215, Note_off_c, 0, 64, 57
1, 460230, Note_off_c, 0, 67, 60
1, 460247, Note_on_c, 0, 52, 82
1, 460259, Note_on_c, 0, 72, 73
1, 460297, Note_on_c, 0, 73, 73
1, 460301, Note_on_c, 0, 60, 78
1, 460301, Note_off_c, 0, 52, 65
1, 460307, Note_off_c, 0, 72, 63
1, 460322, Note_off_c, 0, 73, 68
1, 460361, Note_off_c, 0, 60, 63
1, 460388, Note_on_c, 0, 70, 85
1, 460396, Note_on_c, 0, 80, 84
1, 460417, Note_off_c, 0, 70, 64
1, 460435, Note_on_c, 0, 58, 22
1, 460450, Control_c, 0, 64, 109
1, 460462, Note_on_c, 0, 79, 72
1, 460464, Note_off_c, 0, 58, 46
1, 460465, Control_c, 0, 64, 76
1, 460475, Note_on_c, 0, 53, 91
1, 460477, Poly_aftertouch_c, 0, 61, 0
1, 460480, Control_c, 0, 64, 0
1, 460491, Note_off_c, 0, 80, 60
1, 460505, Note_off_c, 0, 79, 61
1, 460512, Note_on_c, 0, 71, 77
1, 460525, Control_c, 0, 64, 66
1, 460540, Control_c, 0, 64, 82
1, 460554, Control_c, 0, 64, 100
1, 460569, Control_c, 0, 64, 113
1, 460574, Note_on_c, 0, 60, 79
1, 460575, Note_off_c, 0, 53, 64
1, 460586, Note_off_c, 0, 71, 38
1, 460591, Note_on_c, 0, 72, 81
1, 460591, Control_c, 0, 64, 115
1, 460606, Control_c, 0, 64, 120
1, 460621, Control_c, 0, 64, 127
1, 460637, Note_on_c, 0, 73, 72
1, 460641, Note_off_c, 0, 72, 66
1, 460663, Note_off_c, 0, 60, 62
1, 460664, Note_on_c, 0, 68, 79
1, 460665, Note_off_c, 0, 73, 68
1, 460696, Note_on_c, 0, 72, 73
1, 460718, Note_off_c, 0, 68, 64
1, 460731, Note_on_c, 0, 56, 78
1, 460739, Note_off_c, 0, 72, 64
1, 460763, Note_on_c, 0, 77, 79
1, 460794, Note_off_c, 0, 56, 62
1, 460802, Note_on_c, 0, 65, 77
1, 460812, Note_on_c, 0, 80, 77
1, 460819, Note_off_c, 0, 77, 63
1, 460865, Note_on_c, 0, 77, 68
1, 460875, Note_off_c, 0, 80, 63
1, 460894, Note_on_c, 0, 72, 78
1, 460903, Note_off_c, 0, 65, 64
1, 460906, Note_on_c, 0, 82, 77
1, 460913, Note_off_c, 0, 77, 62
1, 460948, Note_off_c, 0, 72, 57
1, 460962, Control_c, 0, 64, 117
1, 460977, Control_c, 0, 64, 82
1, 460978, Note_on_c, 0, 80, 80
1, 460981, Note_on_c, 0, 60, 96
1, 460991, Note_off_c, 0, 82, 63
1, 460991, Control_c, 0, 64, 0
1, 461014, Note_on_c, 0, 76, 77
1, 461025, Note_off_c, 0, 80, 63
1, 461035, Control_c, 0, 64, 39
1, 461052, Control_c, 0, 64, 78
1, 461067, Control_c, 0, 64, 96
1, 461076, Note_off_c, 0, 76, 46
1, 461081, Control_c, 0, 64, 116
1, 461083, Note_on_c, 0, 79, 78
1, 461094, Note_on_c, 0, 70, 77
1, 461094, Note_off_c, 0, 60, 53
1, 461096, Control_c, 0, 64, 124
1, 461111, Control_c, 0, 64, 127
1, 461129, Note_on_c, 0, 80, 79
1, 461133, Note_off_c, 0, 79, 65
1, 461164, Note_off_c, 0, 80, 62
1, 461172, Note_off_c, 0, 70, 58
1, 461174, Note_on_c, 0, 76, 71
1, 461186, Note_on_c, 0, 79, 75
1, 461224, Note_off_c, 0, 76, 42
1, 461238, Note_on_c, 0, 64, 74
1, 461252, Note_off_c, 0, 79, 54
1, 461261, Note_on_c, 0, 84, 64
1, 461267, Note_on_c, 0, 72, 68
1, 461268, Note_off_c, 0, 64, 65
1, 461271, Note_on_c, 0, 83, 63
1, 461279, Note_on_c, 0, 85, 81
1, 461289, Note_off_c, 0, 83, 60
1, 461294, Note_off_c, 0, 84, 59
1, 461332, Note_off_c, 0, 72, 64
1, 461344, Note_off_c, 0, 85, 67
1, 461358, Note_on_c, 0, 84, 49
1, 461383, Note_on_c, 0, 82, 68
1, 461384, Note_off_c, 0, 84, 57
1, 461391, Note_on_c, 0, 70, 55
1, 461395, Note_on_c, 0, 91, 90
1, 461400, Note_off_c, 0, 82, 66
1, 461422, Note_off_c, 0, 70, 65
1, 461434, Note_off_c, 0, 91, 63
1, 461487, Note_on_c, 0, 77, 100
1, 461490, Note_on_c, 0, 89, 91
1, 461496, Note_on_c, 0, 72, 78
1, 461501, Note_on_c, 0, 65, 80
1, 461513, Note_on_c, 0, 68, 66
1, 461524, Note_off_c, 0, 77, 66
1, 461525, Note_off_c, 0, 72, 65
1, 461532, Control_c, 0, 64, 108
1, 461535, Note_off_c, 0, 89, 66
1, 461541, Note_off_c, 0, 68, 66
1, 461541, Note_off_c, 0, 65, 61
1, 461547, Control_c, 0, 64, 96
1, 461562, Control_c, 0, 64, 86
1, 461571, Note_on_c, 0, 101, 93
1, 461577, Control_c, 0, 64, 75
1, 461592, Control_c, 0, 64, 64
1, 461607, Control_c, 0, 64, 0
1, 461640, Note_on_c, 0, 100, 69
1, 461679, Note_off_c, 0, 101, 64
1, 461691, Note_on_c, 0, 99, 81
1, 461705, Note_on_c, 0, 77, 99
1, 461707, Note_on_c, 0, 68, 74
1, 461707, Note_on_c, 0, 73, 93
1, 461711, Note_on_c, 0, 65, 82
1, 461726, Control_c, 0, 64, 69
1, 461735, Note_on_c, 0, 97, 73
1, 461740, Note_off_c, 0, 100, 61
1, 461740, Control_c, 0, 64, 82
1, 461755, Control_c, 0, 64, 95
1, 461770, Control_c, 0, 64, 113
1, 461785, Control_c, 0, 64, 122
1, 461798, Note_off_c, 0, 99, 68
1, 461800, Control_c, 0, 64, 127
1, 461801, Note_on_c, 0, 96, 72
1, 461801, Note_off_c, 0, 97, 64
1, 461826, Note_off_c, 0, 96, 67
1, 461847, Note_off_c, 0, 73, 58
1, 461864, Note_off_c, 0, 68, 62
1, 461864, Note_off_c, 0, 77, 58
1, 461866, Note_off_c, 0, 65, 59
1, 461874, Note_on_c, 0, 94, 85
1, 461909, Note_on_c, 0, 92, 71
1, 461952, Note_on_c, 0, 91, 81
1, 461971, Note_off_c, 0, 94, 61
1, 461993, Note_off_c, 0, 92, 65
1, 462009, Note_on_c, 0, 89, 79
1, 462011, Note_off_c, 0, 91, 59
1, 462013, Note_on_c, 0, 77, 90
1, 462020, Note_on_c, 0, 72, 72
1, 462023, Note_on_c, 0, 65, 63
1, 462025, Note_on_c, 0, 68, 71
1, 462036, Note_off_c, 0, 89, 66
1, 462037, Note_off_c, 0, 77, 61
1, 462042, Note_off_c, 0, 72, 70
1, 462054, Note_off_c, 0, 68, 67
1, 462056, Note_off_c, 0, 65, 67
1, 462082, Note_on_c, 0, 88, 81
1, 462119, Control_c, 0, 64, 123
1, 462126, Note_on_c, 0, 87, 76
1, 462134, Control_c, 0, 64, 94
1, 462149, Control_c, 0, 64, 69
1, 462159, Note_off_c, 0, 88, 59
1, 462163, Control_c, 0, 64, 0
1, 462173, Note_on_c, 0, 85, 75
1, 462190, Note_on_c, 0, 77, 100
1, 462193, Note_on_c, 0, 73, 92
1, 462193, Control_c, 0, 64, 63
1, 462194, Note_on_c, 0, 65, 75
1, 462195, Note_on_c, 0, 68, 73
1, 462195, Note_off_c, 0, 87, 66
1, 462208, Control_c, 0, 64, 80
1, 462222, Note_off_c, 0, 77, 67
1, 462223, Note_on_c, 0, 84, 79
1, 462223, Control_c, 0, 64, 101
1, 462230, Note_off_c, 0, 85, 66
1, 462230, Note_off_c, 0, 73, 65
1, 462237, Control_c, 0, 64, 127
1, 462239, Note_off_c, 0, 65, 65
1, 462245, Note_off_c, 0, 68, 65
1, 462264, Note_off_c, 0, 84, 66
1, 462292, Note_on_c, 0, 82, 82
1, 462336, Note_on_c, 0, 80, 73
1, 462376, Note_on_c, 0, 79, 81
1, 462382, Note_off_c, 0, 82, 61
1, 462414, Note_off_c, 0, 80, 63
1, 462429, Note_on_c, 0, 77, 80
1, 462435, Note_off_c, 0, 79, 63
1, 462457, Note_off_c, 0, 77, 64
1, 462532, Note_on_c, 0, 53, 74
1, 462537, Note_on_c, 0, 65, 94
1, 462540, Note_on_c, 0, 92, 98
1, 462540, Note_on_c, 0, 60, 85
1, 462541, Note_on_c, 0, 56, 78
1, 462558, Note_off_c, 0, 65, 68
1, 462559, Note_off_c, 0, 60, 70
1, 462571, Note_off_c, 0, 53, 66
1, 462576, Note_off_c, 0, 56, 64
1, 462587, Note_off_c, 0, 92, 64
1, 462620, Note_on_c, 0, 91, 84
1, 462677, Note_off_c, 0, 91, 60
1, 462684, Note_on_c, 0, 89, 72
1, 462731, Note_off_c, 0, 89, 62
1, 462742, Control_c, 0, 64, 95
1, 462755, Note_on_c, 0, 56, 72
1, 462757, Control_c, 0, 64, 68
1, 462757, Note_on_c, 0, 65, 99
1, 462758, Note_on_c, 0, 61, 99
1, 462764, Note_on_c, 0, 53, 76
1, 462764, Note_on_c, 0, 87, 80
1, 462772, Control_c, 0, 64, 0
1, 462801, Control_c, 0, 64, 42
1, 462816, Control_c, 0, 64, 75
1, 462817, Note_on_c, 0, 85, 75
1, 462838, Control_c, 0, 64, 95
1, 462853, Control_c, 0, 64, 127
1, 462866, Note_off_c, 0, 87, 61
1, 462886, Note_off_c, 0, 85, 64
1, 462891, Note_on_c, 0, 84, 68
1, 462924, Note_off_c, 0, 84, 63
1, 462941, Note_off_c, 0, 61, 61
1, 462947, Note_off_c, 0, 65, 64
1, 462957, Note_on_c, 0, 82, 79
1, 462967, Note_off_c, 0, 53, 52
1, 462969, Note_off_c, 0, 56, 59
1, 463010, Note_on_c, 0, 80, 63
1, 463048, Note_on_c, 0, 79, 76
1, 463054, Note_off_c, 0, 82, 60
1, 463088, Note_off_c, 0, 80, 64
1, 463103, Note_on_c, 0, 65, 96
1, 463105, Note_off_c, 0, 79, 62
1, 463106, Note_on_c, 0, 53, 72
1, 463106, Note_on_c, 0, 77, 75
1, 463108, Note_on_c, 0, 56, 64
1, 463109, Note_on_c, 0, 60, 83
1, 463130, Note_off_c, 0, 60, 70
1, 463134, Note_off_c, 0, 65, 62
1, 463149, Note_off_c, 0, 77, 58
1, 463155, Note_off_c, 0, 53, 62
1, 463162, Note_off_c, 0, 56, 63
1, 463184, Note_on_c, 0, 75, 79
1, 463240, Note_on_c, 0, 73, 64
1, 463279, Note_off_c, 0, 75, 63
1, 463283, Control_c, 0, 64, 101
1, 463298, Control_c, 0, 64, 74
1, 463304, Note_on_c, 0, 72, 73
1, 463304, Note_off_c, 0, 73, 63
1, 463309, Note_on_c, 0, 56, 54
1, 463309, Note_on_c, 0, 65, 97
1, 463312, Note_on_c, 0, 61, 95
1, 463312, Control_c, 0, 64, 0
1, 463318, Note_on_c, 0, 53, 73
1, 463339, Note_off_c, 0, 65, 70
1, 463342, Control_c, 0, 64, 68
1, 463348, Note_off_c, 0, 61, 64
1, 463356, Note_off_c, 0, 72, 62
1, 463357, Control_c, 0, 64, 85
1, 463359, Note_off_c, 0, 53, 68
1, 463366, Note_off_c, 0, 56, 66
1, 463372, Note_on_c, 0, 70, 74
1, 463372, Control_c, 0, 64, 110
1, 463386, Control_c, 0, 64, 127
1, 463428, Note_on_c, 0, 68, 69
1, 463462, Note_off_c, 0, 70, 60
1, 463467, Note_on_c, 0, 67, 60
1, 463491, Note_off_c, 0, 68, 62
1, 463515, Note_off_c, 0, 67, 61
1, 463520, Note_on_c, 0, 65, 69
1, 463544, Note_off_c, 0, 65, 68
1, 463580, Note_on_c, 0, 41, 82
1, 463607, Note_on_c, 0, 61, 77
1, 463616, Note_on_c, 0, 48, 62
1, 463670, Note_off_c, 0, 61, 62
1, 463677, Note_on_c, 0, 56, 97
1, 463683, Note_on_c, 0, 60, 87
1, 463706, Control_c, 0, 64, 102
1, 463721, Control_c, 0, 64, 75
1, 463735, Control_c, 0, 64, 0
1, 463748, Note_off_c, 0, 60, 59
1, 463765, Note_on_c, 0, 65, 76
1, 463795, Control_c, 0, 64, 67
1, 463810, Control_c, 0, 64, 77
1, 463816, Note_on_c, 0, 68, 75
1, 463821, Note_off_c, 0, 65, 64
1, 463825, Control_c, 0, 64, 87
1, 463839, Control_c, 0, 64, 93
1, 463847, Note_off_c, 0, 68, 66
1, 463854, Control_c, 0, 64, 100
1, 463869, Control_c, 0, 64, 106
1, 463884, Control_c, 0, 64, 114
1, 463899, Control_c, 0, 64, 124
1, 463902, Note_on_c, 0, 72, 83
1, 463914, Control_c, 0, 64, 127
1, 463930, Note_off_c, 0, 41, 63
1, 463951, Note_off_c, 0, 72, 59
1, 463962, Note_off_c, 0, 48, 49
1, 463965, Note_on_c, 0, 77, 85
1, 463971, Note_off_c, 0, 56, 64
1, 464003, Note_on_c, 0, 80, 80
1, 464015, Note_off_c, 0, 77, 62
1, 464040, Note_off_c, 0, 80, 66
1, 464087, Note_on_c, 0, 86, 82
1, 464137, Note_on_c, 0, 89, 82
1, 464141, Note_off_c, 0, 86, 65
1, 464193, Note_on_c, 0, 92, 87
1, 464199, Note_off_c, 0, 89, 67
1, 464220, Note_off_c, 0, 92, 63
1, 464294, Note_on_c, 0, 85, 96
1, 464299, Note_on_c, 0, 97, 101
1, 464388, Note_on_c, 0, 96, 76
1, 464393, Note_on_c, 0, 84, 75
1, 464411, Note_off_c, 0, 85, 50
1, 464433, Note_off_c, 0, 97, 59
1, 464445, Note_on_c, 0, 92, 71
1, 464467, Note_off_c, 0, 84, 63
1, 464477, Note_off_c, 0, 96, 62
1, 464505, Note_on_c, 0, 89, 71
1, 464507, Note_on_c, 0, 77, 66
1, 464510, Note_on_c, 0, 80, 30
1, 464510, Note_off_c, 0, 92, 65
1, 464544, Note_off_c, 0, 80, 45
1, 464552, Note_off_c, 0, 77, 59
1, 464590, Note_on_c, 0, 82, 69
1, 464593, Note_on_c, 0, 94, 66
1, 464597, Note_off_c, 0, 89, 37
1, 464620, Note_on_c, 0, 92, 72
1, 464633, Note_off_c, 0, 82, 63
1, 464636, Note_off_c, 0, 94, 48
1, 464644, Note_on_c, 0, 80, 61
1, 464690, Note_on_c, 0, 89, 75
1, 464694, Note_off_c, 0, 80, 61
1, 464706, Note_off_c, 0, 92, 63
1, 464733, Note_on_c, 0, 84, 67
1, 464736, Note_on_c, 0, 72, 61
1, 464737, Note_off_c, 0, 89, 64
1, 464765, Control_c, 0, 64, 120
1, 464766, Note_off_c, 0, 72, 68
1, 464769, Note_on_c, 0, 79, 69
1, 464780, Control_c, 0, 64, 94
1, 464788, Note_off_c, 0, 84, 49
1, 464790, Note_on_c, 0, 91, 80
1, 464794, Note_off_c, 0, 79, 67
1, 464795, Control_c, 0, 64, 79
1, 464810, Control_c, 0, 64, 71
1, 464824, Control_c, 0, 64, 73
1, 464830, Note_on_c, 0, 77, 72
1, 464839, Note_on_c, 0, 89, 71
1, 464839, Control_c, 0, 64, 81
1, 464854, Control_c, 0, 64, 93
1, 464859, Note_off_c, 0, 77, 61
1, 464862, Note_off_c, 0, 91, 52
1, 464868, Control_c, 0, 64, 110
1, 464873, Note_on_c, 0, 72, 53
1, 464883, Control_c, 0, 64, 123
1, 464891, Note_on_c, 0, 84, 75
1, 464895, Note_off_c, 0, 72, 65
1, 464898, Control_c, 0, 64, 127
1, 464906, Note_off_c, 0, 89, 66
1, 464931, Note_off_c, 0, 84, 53
1, 464945, Note_on_c, 0, 80, 81
1, 464954, Note_on_c, 0, 68, 81
1, 465018, Note_on_c, 0, 73, 61
1, 465023, Note_on_c, 0, 85, 78
1, 465026, Note_off_c, 0, 68, 61
1, 465040, Note_off_c, 0, 80, 61
1, 465050, Note_off_c, 0, 73, 67
1, 465078, Note_on_c, 0, 84, 56
1, 465082, Note_on_c, 0, 72, 72
1, 465109, Note_off_c, 0, 85, 57
1, 465133, Note_on_c, 0, 80, 74
1, 465137, Note_off_c, 0, 72, 62
1, 465152, Note_on_c, 0, 68, 62
1, 465160, Note_off_c, 0, 84, 63
1, 465174, Note_on_c, 0, 65, 78
1, 465176, Note_off_c, 0, 68, 67
1, 465178, Note_on_c, 0, 77, 80
1, 465191, Note_off_c, 0, 80, 64
1, 465202, Note_off_c, 0, 65, 67
1, 465246, Note_on_c, 0, 70, 81
1, 465250, Note_off_c, 0, 77, 52
1, 465255, Note_on_c, 0, 82, 78
1, 465285, Note_on_c, 0, 80, 75
1, 465288, Note_off_c, 0, 70, 66
1, 465310, Note_on_c, 0, 68, 69
1, 465324, Note_off_c, 0, 82, 54
1, 465351, Note_on_c, 0, 77, 79
1, 465352, Note_on_c, 0, 65, 60
1, 465354, Note_off_c, 0, 68, 57
1, 465378, Note_on_c, 0, 60, 76
1, 465378, Note_off_c, 0, 65, 70
1, 465379, Note_off_c, 0, 80, 62
1, 465387, Note_on_c, 0, 72, 77
1, 465401, Note_off_c, 0, 77, 60
1, 465416, Note_off_c, 0, 60, 61
1, 465426, Note_on_c, 0, 67, 85
1, 465436, Note_off_c, 0, 72, 63
1, 465449, Note_off_c, 0, 67, 70
1, 465458, Note_on_c, 0, 79, 83
1, 465474, Note_on_c, 0, 65, 81
1, 465498, Note_on_c, 0, 77, 78
1, 465521, Note_on_c, 0, 60, 76
1, 465531, Note_off_c, 0, 65, 63
1, 465536, Note_off_c, 0, 79, 60
1, 465556, Note_on_c, 0, 72, 76
1, 465569, Note_off_c, 0, 60, 61
1, 465571, Note_off_c, 0, 77, 63
1, 465610, Note_on_c, 0, 56, 80
1, 465610, Note_off_c, 0, 72, 63
1, 465612, Note_on_c, 0, 68, 79
1, 465675, Note_on_c, 0, 61, 72
1, 465686, Note_on_c, 0, 73, 79
1, 465694, Note_off_c, 0, 56, 63
1, 465705, Note_off_c, 0, 68, 62
1, 465721, Control_c, 0, 64, 99
1, 465727, Note_off_c, 0, 61, 63
1, 465732, Note_on_c, 0, 72, 65
1, 465736, Control_c, 0, 64, 79
1, 465744, Note_on_c, 0, 60, 59
1, 465751, Control_c, 0, 64, 74
1, 465765, Note_on_c, 0, 59, 39
1, 465766, Control_c, 0, 64, 79
1, 465778, Note_off_c, 0, 73, 58
1, 465780, Control_c, 0, 64, 91
1, 465786, Note_on_c, 0, 68, 79
1, 465794, Note_off_c, 0, 59, 54
1, 465795, Control_c, 0, 64, 112
1, 465801, Note_off_c, 0, 60, 60
1, 465805, Note_on_c, 0, 56, 69
1, 465810, Control_c, 0, 64, 127
1, 465813, Note_off_c, 0, 72, 62
1, 465837, Note_on_c, 0, 53, 80
1, 465843, Note_on_c, 0, 65, 81
1, 465850, Note_off_c, 0, 56, 62
1, 465855, Note_off_c, 0, 68, 65
1, 465875, Note_off_c, 0, 53, 66
1, 465911, Note_on_c, 0, 58, 83
1, 465920, Note_on_c, 0, 70, 75
1, 465926, Note_off_c, 0, 65, 62
1, 465944, Note_on_c, 0, 68, 76
1, 465956, Note_off_c, 0, 58, 66
1, 465966, Note_on_c, 0, 56, 74
1, 465994, Note_off_c, 0, 70, 55
1, 466006, Note_on_c, 0, 65, 82
1, 466013, Note_on_c, 0, 53, 57
1, 466024, Note_off_c, 0, 56, 60
1, 466038, Note_off_c, 0, 68, 62
1, 466044, Note_on_c, 0, 48, 82
1, 466048, Note_off_c, 0, 53, 68
1, 466057, Note_on_c, 0, 60, 80
1, 466062, Note_off_c, 0, 65, 65
1, 466093, Note_off_c, 0, 48, 65
1, 466096, Note_on_c, 0, 55, 75
1, 466100, Control_c, 0, 64, 99
1, 466115, Control_c, 0, 64, 77
1, 466122, Note_on_c, 0, 67, 85
1, 466122, Note_off_c, 0, 55, 69
1, 466125, Note_off_c, 0, 60, 57
1, 466129, Control_c, 0, 64, 49
1, 466137, Note_on_c, 0, 53, 80
1, 466144, Control_c, 0, 64, 58
1, 466159, Control_c, 0, 64, 72
1, 466167, Note_on_c, 0, 65, 71
1, 466174, Control_c, 0, 64, 86
1, 466189, Note_on_c, 0, 48, 67
1, 466189, Control_c, 0, 64, 99
1, 466194, Note_off_c, 0, 53, 65
1, 466203, Note_on_c, 0, 50, 44
1, 466203, Control_c, 0, 64, 104
1, 466207, Note_off_c, 0, 67, 61
1, 466215, Note_off_c, 0, 48, 70
1, 466218, Control_c, 0, 64, 105
1, 466224, Note_on_c, 0, 60, 81
1, 466233, Control_c, 0, 64, 108
1, 466236, Note_off_c, 0, 50, 46
1, 466238, Note_off_c, 0, 65, 65
1, 466248, Control_c, 0, 64, 113
1, 466263, Control_c, 0, 64, 120
1, 466277, Note_on_c, 0, 44, 79
1, 466278, Control_c, 0, 64, 127
1, 466282, Note_off_c, 0, 60, 60
1, 466283, Note_on_c, 0, 56, 82
1, 466329, Note_on_c, 0, 49, 73
1, 466353, Note_off_c, 0, 44, 61
1, 466358, Note_on_c, 0, 61, 82
1, 466376, Note_off_c, 0, 56, 60
1, 466390, Note_off_c, 0, 49, 63
1, 466392, Note_on_c, 0, 48, 71
1, 466394, Note_on_c, 0, 60, 69
1, 466450, Note_off_c, 0, 61, 56
1, 466455, Control_c, 0, 64, 118
1, 466458, Note_on_c, 0, 56, 76
1, 466469, Note_on_c, 0, 44, 70
1, 466469, Note_off_c, 0, 48, 63
1, 466470, Control_c, 0, 64, 93
1, 466484, Note_off_c, 0, 60, 60
1, 466485, Control_c, 0, 64, 74
1, 466494, Note_on_c, 0, 41, 75
1, 466500, Control_c, 0, 64, 24
1, 466502, Note_on_c, 0, 53, 80
1, 466514, Note_off_c, 0, 44, 61
1, 466515, Control_c, 0, 64, 47
1, 466516, Note_off_c, 0, 56, 65
1, 466529, Control_c, 0, 64, 70
1, 466530, Note_off_c, 0, 41, 68
1, 466544, Control_c, 0, 64, 84
1, 466559, Control_c, 0, 64, 96
1, 466561, Note_on_c, 0, 46, 88
1, 466582, Control_c, 0, 64, 98
1, 466588, Note_on_c, 0, 58, 79
1, 466600, Note_off_c, 0, 53, 61
1, 466613, Note_on_c, 0, 56, 70
1, 466623, Note_off_c, 0, 46, 64
1, 466626, Control_c, 0, 64, 100
1, 466633, Note_on_c, 0, 44, 69
1, 466641, Control_c, 0, 64, 102
1, 466656, Control_c, 0, 64, 104
1, 466675, Note_on_c, 0, 41, 61
1, 466676, Note_on_c, 0, 53, 76
1, 466681, Note_off_c, 0, 58, 61
1, 466699, Note_off_c, 0, 44, 59
1, 466701, Note_off_c, 0, 56, 63
1, 466716, Note_on_c, 0, 36, 79
1, 466722, Note_off_c, 0, 41, 66
1, 466729, Note_on_c, 0, 48, 78
1, 466734, Note_off_c, 0, 53, 66
1, 466762, Note_off_c, 0, 36, 62
1, 466767, Note_on_c, 0, 43, 74
1, 466796, Note_off_c, 0, 43, 64
1, 466799, Note_on_c, 0, 55, 84
1, 466805, Note_off_c, 0, 48, 44
1, 466808, Note_on_c, 0, 41, 84
1, 466838, Note_on_c, 0, 53, 73
1, 466862, Note_on_c, 0, 36, 72
1, 466865, Note_off_c, 0, 41, 65
1, 466883, Note_off_c, 0, 55, 63
1, 466899, Note_on_c, 0, 48, 77
1, 466901, Note_off_c, 0, 36, 65
1, 466913, Note_off_c, 0, 53, 67
1, 466949, Note_on_c, 0, 32, 82
1, 466958, Note_off_c, 0, 48, 60
1, 466960, Note_on_c, 0, 44, 79
1, 467017, Note_on_c, 0, 37, 73
1, 467034, Note_off_c, 0, 32, 62
1, 467039, Note_on_c, 0, 49, 74
1, 467059, Note_off_c, 0, 44, 61
1, 467069, Note_on_c, 0, 36, 72
1, 467071, Note_on_c, 0, 48, 70
1, 467077, Note_off_c, 0, 37, 64
1, 467101, Control_c, 0, 64, 103
1, 467115, Control_c, 0, 64, 102
1, 467118, Note_off_c, 0, 49, 59
1, 467130, Control_c, 0, 64, 100
1, 467145, Control_c, 0, 64, 97
1, 467149, Note_on_c, 0, 44, 80
1, 467150, Note_on_c, 0, 32, 75
1, 467160, Control_c, 0, 64, 93
1, 467161, Note_off_c, 0, 36, 61
1, 467175, Control_c, 0, 64, 90
1, 467177, Note_on_c, 0, 29, 73
1, 467178, Note_off_c, 0, 48, 64
1, 467190, Control_c, 0, 64, 86
1, 467193, Note_on_c, 0, 41, 86
1, 467201, Note_on_c, 0, 43, 46
1, 467205, Note_off_c, 0, 32, 62
1, 467205, Control_c, 0, 64, 84
1, 467219, Control_c, 0, 64, 82
1, 467234, Control_c, 0, 64, 80
1, 467235, Note_on_c, 0, 37, 80
1, 467235, Note_off_c, 0, 43, 49
1, 467247, Note_off_c, 0, 44, 60
1, 467249, Note_off_c, 0, 29, 63
1, 467249, Control_c, 0, 64, 79
1, 467256, Note_off_c, 0, 41, 63
1, 467257, Note_on_c, 0, 49, 82
1, 467264, Control_c, 0, 64, 76
1, 467278, Control_c, 0, 64, 74
1, 467291, Note_on_c, 0, 36, 72
1, 467293, Control_c, 0, 64, 71
1, 467308, Control_c, 0, 64, 68
1, 467327, Note_on_c, 0, 48, 79
1, 467330, Control_c, 0, 64, 67
1, 467342, Note_off_c, 0, 37, 57
1, 467360, Control_c, 0, 64, 67
1, 467362, Note_on_c, 0, 32, 68
1, 467369, Note_off_c, 0, 36, 63
1, 467384, Note_off_c, 0, 49, 58
1, 467390, Note_on_c, 0, 29, 76
1, 467390, Control_c, 0, 64, 66
1, 467391, Note_on_c, 0, 44, 79
1, 467418, Note_off_c, 0, 48, 65
1, 467420, Note_off_c, 0, 32, 62
1, 467424, Note_on_c, 0, 41, 81
1, 467452, Note_on_c, 0, 37, 86
1, 467467, Note_off_c, 0, 29, 64
1, 467479, Control_c, 0, 64, 66
1, 467494, Note_on_c, 0, 49, 84
1, 467500, Note_off_c, 0, 44, 62
1, 467503, Note_off_c, 0, 41, 62
1, 467506, Note_on_c, 0, 36, 67
1, 467512, Note_off_c, 0, 37, 61
1, 467554, Note_on_c, 0, 48, 77
1, 467554, Control_c, 0, 64, 66
1, 467566, Note_on_c, 0, 32, 71
1, 467575, Note_off_c, 0, 36, 63
1, 467583, Control_c, 0, 64, 66
1, 467610, Note_on_c, 0, 29, 66
1, 467619, Note_off_c, 0, 49, 57
1, 467623, Note_on_c, 0, 44, 77
1, 467628, Control_c, 0, 64, 65
1, 467640, Note_off_c, 0, 32, 63
1, 467642, Control_c, 0, 64, 65
1, 467655, Note_on_c, 0, 37, 80
1, 467657, Control_c, 0, 64, 64
1, 467663, Note_off_c, 0, 48, 65
1, 467672, Control_c, 0, 64, 63
1, 467676, Note_on_c, 0, 41, 87
1, 467677, Note_off_c, 0, 29, 61
1, 467687, Control_c, 0, 64, 62
1, 467710, Note_on_c, 0, 36, 70
1, 467721, Note_off_c, 0, 44, 63
1, 467745, Note_on_c, 0, 49, 76
1, 467746, Control_c, 0, 64, 62
1, 467753, Note_off_c, 0, 37, 35
1, 467761, Control_c, 0, 64, 61
1, 467762, Note_off_c, 0, 41, 64
1, 467765, Note_on_c, 0, 32, 76
1, 467775, Control_c, 0, 64, 61
1, 467790, Note_off_c, 0, 36, 63
1, 467790, Control_c, 0, 64, 61
1, 467796, Note_on_c, 0, 48, 73
1, 467820, Control_c, 0, 64, 61
1, 467835, Control_c, 0, 64, 60
1, 467849, Control_c, 0, 64, 58
1, 467861, Note_on_c, 0, 44, 78
1, 467862, Note_off_c, 0, 49, 60
1, 467864, Control_c, 0, 64, 56
1, 467879, Control_c, 0, 64, 54
1, 467893, Control_c, 0, 64, 45
1, 467907, Note_off_c, 0, 48, 65
1, 467908, Control_c, 0, 64, 0
1, 467911, Note_off_c, 0, 32, 0
1, 467912, Note_on_c, 0, 29, 95
1, 467927, Note_on_c, 0, 41, 100
1, 467949, Note_off_c, 0, 44, 66
1, 467962, Poly_aftertouch_c, 0, 32, 0
1, 467978, Note_off_c, 0, 41, 67
1, 468094, Note_off_c, 0, 29, 63
1, 468325, Note_on_c, 0, 77, 85
1, 468327, Note_on_c, 0, 65, 90
1, 468334, Note_on_c, 0, 49, 105
1, 468334, Note_on_c, 0, 68, 87
1, 468335, Note_on_c, 0, 73, 79
1, 468338, Note_on_c, 0, 37, 91
1, 468358, Note_off_c, 0, 65, 67
1, 468361, Control_c, 0, 64, 36
1, 468363, Note_on_c, 0, 75, 28
1, 468376, Note_off_c, 0, 68, 64
1, 468376, Control_c, 0, 64, 73
1, 468386, Note_off_c, 0, 77, 64
1, 468391, Note_off_c, 0, 49, 63
1, 468391, Control_c, 0, 64, 85
1, 468392, Note_off_c, 0, 73, 65
1, 468397, Note_off_c, 0, 75, 45
1, 468406, Control_c, 0, 64, 102
1, 468414, Note_off_c, 0, 37, 63
1, 468421, Control_c, 0, 64, 127
1, 468598, Control_c, 0, 64, 107
1, 468613, Control_c, 0, 64, 78
1, 468628, Control_c, 0, 64, 0
1, 468659, Note_on_c, 0, 73, 107
1, 468660, Note_on_c, 0, 85, 96
1, 468660, Note_on_c, 0, 79, 46
1, 468663, Note_on_c, 0, 34, 88
1, 468663, Note_on_c, 0, 77, 89
1, 468665, Note_on_c, 0, 46, 101
1, 468702, Control_c, 0, 64, 69
1, 468709, Note_off_c, 0, 85, 68
1, 468716, Control_c, 0, 64, 79
1, 468723, Note_off_c, 0, 73, 59
1, 468728, Note_off_c, 0, 77, 64
1, 468730, Note_off_c, 0, 79, 63
1, 468731, Control_c, 0, 64, 91
1, 468740, Note_off_c, 0, 46, 64
1, 468746, Control_c, 0, 64, 105
1, 468751, Note_off_c, 0, 34, 65
1, 468761, Control_c, 0, 64, 127
1, 468886, Note_on_c, 0, 61, 46
1, 468921, Note_off_c, 0, 61, 50
1, 468976, Control_c, 0, 64, 113
1, 468991, Control_c, 0, 64, 96
1, 469005, Control_c, 0, 64, 82
1, 469020, Control_c, 0, 64, 68
1, 469035, Control_c, 0, 64, 0
1, 469134, Note_on_c, 0, 36, 86
1, 469134, Note_on_c, 0, 48, 98
1, 469134, Note_on_c, 0, 55, 99
1, 469134, Note_on_c, 0, 64, 87
1, 469137, Note_on_c, 0, 58, 86
1, 469138, Note_on_c, 0, 60, 79
1, 469181, Note_on_c, 0, 43, 24
1, 469182, Note_off_c, 0, 43, 127
1, 469184, Control_c, 0, 64, 75
1, 469199, Control_c, 0, 64, 81
1, 469214, Control_c, 0, 64, 84
1, 469218, Poly_aftertouch_c, 0, 41, 127
1, 469226, Poly_aftertouch_c, 0, 43, 0
1, 469229, Control_c, 0, 64, 86
1, 469242, Note_off_c, 0, 55, 61
1, 469244, Control_c, 0, 64, 92
1, 469251, Note_off_c, 0, 60, 60
1, 469256, Note_off_c, 0, 58, 64
1, 469258, Note_off_c, 0, 64, 63
1, 469259, Control_c, 0, 64, 104
1, 469273, Control_c, 0, 64, 127
1, 469282, Poly_aftertouch_c, 0, 41, 0
1, 469312, Note_off_c, 0, 48, 64
1, 469344, Note_off_c, 0, 36, 63
1, 469451, Control_c, 0, 64, 110
1, 469465, Control_c, 0, 64, 94
1, 469480, Control_c, 0, 64, 80
1, 469495, Control_c, 0, 64, 65
1, 469510, Control_c, 0, 64, 0
1, 469804, Note_on_c, 0, 29, 92
1, 469804, Note_on_c, 0, 41, 97
1, 469804, Note_on_c, 0, 53, 92
1, 469804, Note_on_c, 0, 56, 74
1, 469807, Note_on_c, 0, 65, 84
1, 469811, Note_on_c, 0, 60, 76
1, 470976, Note_off_c, 0, 53, 62
1, 470991, Note_off_c, 0, 65, 61
1, 470996, Note_off_c, 0, 41, 64
1, 471011, Note_off_c, 0, 29, 61
1, 471019, Note_off_c, 0, 56, 62
1, 471020, Note_off_c, 0, 60, 58
1, 471020, End_track
0, 0, End_of_file
