0, 0, Header, 0, 1, 384
1, 0, Start_track
1, 0, Title_t, "Sonata Op.31/3--Vladimir Levitsky  "
1, 0, Text_t, "2008 e-Piano Junior Competition virtual audition round"
1, 0, Text_t, "recorded January and February 2008"
1, 0, Text_t, "http://www.piano-e-competition.com/"
1, 0, Text_t, "File processed for distribution by software from Zenph Studios, Inc., http://www.zenph.com"
1, 0, Instrument_name_t, "Yamaha Disklavier Pro Mark IV concert grand piano, model DCFIIISM4PRO"
1, 0, Sequencer_specific, 39, 67, 113, 0, 1, 0, 1, 0, 83, 111, 110, 97, 116, 97, 32, 79, 112, 46, 32, 51, 49, 47, 51, 32, 86, 108, 97, 100, 105, 109, 105, 114, 76, 101, 118, 105, 116, 115, 107, 121
1, 0, Sequencer_specific, 6, 67, 113, 0, 0, 0, 69
1, 0, System_exclusive, 21, 67, 113, 126, 21, 0, 2, 2, 1, 9, 2, 9, 4, 7, 10, 3, 1, 1, 0, 11, 2, 247
1, 0, Sequencer_specific, 5, 67, 123, 12, 2, 1
1, 0, Tempo, 512820
1, 0, Time_signature, 4, 2, 24, 8
1, 0, System_exclusive, 5, 126, 127, 9, 1, 247
1, 1, System_exclusive, 8, 67, 16, 76, 0, 0, 126, 0, 247
1, 2, System_exclusive, 8, 67, 16, 76, 8, 9, 7, 1, 247
1, 3, Control_c, 0, 0, 0
1, 3, Control_c, 1, 0, 0
1, 3, Control_c, 2, 0, 0
1, 3, Control_c, 3, 0, 0
1, 3, Control_c, 4, 0, 0
1, 3, Control_c, 5, 0, 0
1, 3, Control_c, 6, 0, 0
1, 3, Control_c, 7, 0, 0
1, 3, Control_c, 8, 0, 0
1, 3, Control_c, 9, 0, 127
1, 3, Control_c, 10, 0, 0
1, 3, Control_c, 11, 0, 0
1, 3, Control_c, 12, 0, 0
1, 3, Control_c, 13, 0, 0
1, 3, Control_c, 14, 0, 0
1, 3, Control_c, 15, 0, 0
1, 4, Control_c, 0, 32, 0
1, 4, Control_c, 1, 32, 0
1, 4, Control_c, 2, 32, 0
1, 4, Control_c, 3, 32, 0
1, 4, Control_c, 4, 32, 0
1, 4, Control_c, 5, 32, 0
1, 4, Control_c, 6, 32, 0
1, 4, Control_c, 7, 32, 0
1, 4, Control_c, 8, 32, 0
1, 4, Control_c, 9, 32, 0
1, 4, Control_c, 10, 32, 0
1, 4, Control_c, 11, 32, 0
1, 4, Control_c, 12, 32, 0
1, 4, Control_c, 13, 32, 0
1, 4, Control_c, 14, 32, 0
1, 4, Control_c, 15, 32, 0
1, 5, Program_c, 0, 0
1, 5, Program_c, 1, 0
1, 5, Program_c, 2, 0
1, 5, Program_c, 3, 0
1, 5, Program_c, 4, 0
1, 5, Program_c, 5, 0
1, 5, Program_c, 6, 0
1, 5, Program_c, 7, 0
1, 5, Program_c, 8, 0
1, 5, Program_c, 9, 0
1, 5, Program_c, 10, 0
1, 5, Program_c, 11, 0
1, 5, Program_c, 12, 0
1, 5, Program_c, 13, 0
1, 5, Program_c, 14, 0
1, 5, Program_c, 15, 0
1, 6, Control_c, 0, 7, 100
1, 6, Control_c, 1, 7, 100
1, 6, Control_c, 2, 7, 100
1, 6, Control_c, 3, 7, 100
1, 6, Control_c, 4, 7, 100
1, 6, Control_c, 5, 7, 100
1, 6, Control_c, 6, 7, 100
1, 6, Control_c, 7, 7, 100
1, 6, Control_c, 8, 7, 100
1, 6, Control_c, 9, 7, 100
1, 6, Control_c, 10, 7, 100
1, 6, Control_c, 11, 7, 100
1, 6, Control_c, 12, 7, 100
1, 6, Control_c, 13, 7, 100
1, 6, Control_c, 14, 7, 100
1, 6, Control_c, 15, 7, 100
1, 1129, Control_c, 0, 64, 74
1, 1131, Note_on_c, 0, 72, 48
1, 1144, Note_on_c, 0, 60, 32
1, 1144, Control_c, 0, 64, 76
1, 1158, Note_on_c, 0, 44, 37
1, 1159, Control_c, 0, 64, 79
1, 1161, Note_on_c, 0, 53, 39
1, 1161, Note_on_c, 0, 56, 25
1, 1161, Note_on_c, 0, 63, 45
1, 1169, Note_on_c, 0, 51, 46
1, 1174, Control_c, 0, 64, 84
1, 1189, Control_c, 0, 64, 88
1, 1203, Control_c, 0, 64, 92
1, 1218, Control_c, 0, 64, 95
1, 1233, Control_c, 0, 64, 99
1, 1248, Control_c, 0, 64, 101
1, 1262, Control_c, 0, 64, 103
1, 1278, Note_off_c, 0, 72, 32
1, 1292, Control_c, 0, 64, 103
1, 1313, Note_off_c, 0, 63, 30
1, 1322, Control_c, 0, 64, 104
1, 1425, Control_c, 0, 64, 103
1, 1440, Control_c, 0, 64, 103
1, 1455, Note_on_c, 0, 65, 44
1, 1482, Note_off_c, 0, 65, 57
1, 1484, Control_c, 0, 64, 102
1, 1551, Note_on_c, 0, 65, 51
1, 1559, Note_off_c, 0, 60, 23
1, 1572, Control_c, 0, 64, 102
1, 1679, Note_off_c, 0, 56, 38
1, 1685, Note_off_c, 0, 44, 34
1, 1709, Note_off_c, 0, 65, 43
1, 1716, Note_off_c, 0, 53, 41
1, 1724, Note_off_c, 0, 51, 40
1, 1833, Control_c, 0, 64, 101
1, 1848, Control_c, 0, 64, 99
1, 1863, Control_c, 0, 64, 95
1, 1877, Control_c, 0, 64, 92
1, 1892, Control_c, 0, 64, 88
1, 1907, Control_c, 0, 64, 85
1, 1922, Control_c, 0, 64, 80
1, 1937, Control_c, 0, 64, 74
1, 1951, Control_c, 0, 64, 67
1, 1966, Control_c, 0, 64, 60
1, 1981, Control_c, 0, 64, 51
1, 1996, Control_c, 0, 64, 46
1, 2010, Control_c, 0, 64, 42
1, 2025, Control_c, 0, 64, 38
1, 2040, Control_c, 0, 64, 32
1, 2055, Control_c, 0, 64, 24
1, 2070, Control_c, 0, 64, 0
1, 2277, Control_c, 0, 64, 18
1, 2292, Control_c, 0, 64, 27
1, 2307, Control_c, 0, 64, 34
1, 2321, Control_c, 0, 64, 40
1, 2336, Control_c, 0, 64, 45
1, 2359, Control_c, 0, 64, 48
1, 2374, Control_c, 0, 64, 49
1, 2389, Control_c, 0, 64, 51
1, 2403, Control_c, 0, 64, 53
1, 2418, Control_c, 0, 64, 55
1, 2433, Control_c, 0, 64, 58
1, 2448, Control_c, 0, 64, 61
1, 2463, Control_c, 0, 64, 64
1, 2465, Note_on_c, 0, 72, 48
1, 2475, Note_on_c, 0, 63, 45
1, 2477, Control_c, 0, 64, 66
1, 2489, Note_on_c, 0, 44, 33
1, 2492, Control_c, 0, 64, 70
1, 2505, Note_on_c, 0, 51, 44
1, 2505, Note_on_c, 0, 60, 31
1, 2507, Note_on_c, 0, 53, 38
1, 2507, Note_on_c, 0, 56, 15
1, 2507, Control_c, 0, 64, 74
1, 2522, Control_c, 0, 64, 79
1, 2536, Control_c, 0, 64, 83
1, 2551, Control_c, 0, 64, 86
1, 2561, Note_off_c, 0, 60, 0
1, 2566, Control_c, 0, 64, 89
1, 2581, Control_c, 0, 64, 92
1, 2596, Control_c, 0, 64, 95
1, 2599, Poly_aftertouch_c, 0, 60, 127
1, 2610, Control_c, 0, 64, 97
1, 2611, Note_off_c, 0, 72, 33
1, 2617, Note_off_c, 0, 63, 42
1, 2626, Control_c, 0, 64, 99
1, 2641, Control_c, 0, 64, 99
1, 2656, Control_c, 0, 64, 100
1, 2735, Poly_aftertouch_c, 0, 60, 0
1, 2781, Note_on_c, 0, 65, 43
1, 2811, Note_off_c, 0, 65, 53
1, 2881, Note_on_c, 0, 65, 50
1, 2950, Note_off_c, 0, 65, 50
1, 3007, Note_off_c, 0, 56, 37
1, 3074, Note_off_c, 0, 53, 40
1, 3125, Note_off_c, 0, 51, 40
1, 3159, Note_off_c, 0, 44, 40
1, 3212, Control_c, 0, 64, 99
1, 3227, Control_c, 0, 64, 98
1, 3241, Control_c, 0, 64, 97
1, 3256, Control_c, 0, 64, 94
1, 3271, Control_c, 0, 64, 90
1, 3286, Control_c, 0, 64, 86
1, 3301, Control_c, 0, 64, 82
1, 3316, Control_c, 0, 64, 78
1, 3331, Control_c, 0, 64, 74
1, 3346, Control_c, 0, 64, 70
1, 3360, Control_c, 0, 64, 66
1, 3375, Control_c, 0, 64, 61
1, 3390, Control_c, 0, 64, 56
1, 3405, Control_c, 0, 64, 51
1, 3420, Control_c, 0, 64, 45
1, 3435, Control_c, 0, 64, 41
1, 3450, Control_c, 0, 64, 37
1, 3465, Control_c, 0, 64, 32
1, 3480, Control_c, 0, 64, 25
1, 3495, Control_c, 0, 64, 19
1, 3510, Control_c, 0, 64, 16
1, 3539, Control_c, 0, 64, 17
1, 3554, Control_c, 0, 64, 19
1, 3568, Control_c, 0, 64, 23
1, 3583, Control_c, 0, 64, 28
1, 3598, Control_c, 0, 64, 35
1, 3613, Control_c, 0, 64, 43
1, 3628, Control_c, 0, 64, 49
1, 3642, Control_c, 0, 64, 52
1, 3657, Control_c, 0, 64, 54
1, 3672, Control_c, 0, 64, 55
1, 3687, Control_c, 0, 64, 57
1, 3702, Control_c, 0, 64, 58
1, 3717, Control_c, 0, 64, 60
1, 3731, Control_c, 0, 64, 61
1, 3746, Control_c, 0, 64, 62
1, 3761, Control_c, 0, 64, 63
1, 3775, Control_c, 0, 64, 64
1, 3790, Control_c, 0, 64, 65
1, 3802, Note_on_c, 0, 65, 34
1, 3805, Note_on_c, 0, 63, 29
1, 3805, Control_c, 0, 64, 66
1, 3820, Control_c, 0, 64, 69
1, 3822, Note_on_c, 0, 39, 19
1, 3827, Note_on_c, 0, 60, 24
1, 3829, Note_on_c, 0, 32, 29
1, 3835, Control_c, 0, 64, 72
1, 3857, Control_c, 0, 64, 75
1, 3872, Control_c, 0, 64, 77
1, 3887, Control_c, 0, 64, 80
1, 3902, Control_c, 0, 64, 82
1, 3917, Control_c, 0, 64, 86
1, 3931, Control_c, 0, 64, 92
1, 3946, Control_c, 0, 64, 98
1, 3960, Note_off_c, 0, 63, 27
1, 3961, Control_c, 0, 64, 105
1, 3972, Note_off_c, 0, 60, 23
1, 3975, Control_c, 0, 64, 115
1, 3990, Control_c, 0, 64, 127
1, 4012, Note_off_c, 0, 65, 38
1, 4075, Note_off_c, 0, 32, 31
1, 4075, Note_off_c, 0, 39, 35
1, 4282, Note_on_c, 0, 39, 39
1, 4282, Note_on_c, 0, 65, 49
1, 4284, Note_on_c, 0, 63, 46
1, 4296, Note_on_c, 0, 32, 43
1, 4305, Note_on_c, 0, 60, 34
1, 4400, Note_off_c, 0, 60, 33
1, 4400, Note_off_c, 0, 65, 0
1, 4417, Note_off_c, 0, 63, 42
1, 4472, Poly_aftertouch_c, 0, 65, 0
1, 4474, Note_off_c, 0, 32, 40
1, 4493, Note_off_c, 0, 39, 36
1, 4679, Note_on_c, 0, 39, 46
1, 4679, Note_on_c, 0, 63, 52
1, 4681, Note_on_c, 0, 65, 55
1, 4684, Note_on_c, 0, 32, 49
1, 4697, Note_on_c, 0, 60, 46
1, 4770, Note_off_c, 0, 60, 47
1, 4807, Note_off_c, 0, 65, 55
1, 4842, Note_off_c, 0, 63, 32
1, 4852, Note_off_c, 0, 39, 36
1, 4854, Note_off_c, 0, 32, 42
1, 5221, Note_on_c, 0, 66, 60
1, 5229, Note_on_c, 0, 63, 56
1, 5236, Note_on_c, 0, 60, 52
1, 5239, Note_on_c, 0, 39, 49
1, 5243, Control_c, 0, 64, 102
1, 5253, Note_on_c, 0, 33, 55
1, 5258, Control_c, 0, 64, 89
1, 5273, Control_c, 0, 64, 80
1, 5288, Control_c, 0, 64, 75
1, 5302, Control_c, 0, 64, 71
1, 5317, Control_c, 0, 64, 67
1, 5332, Control_c, 0, 64, 62
1, 5354, Control_c, 0, 64, 54
1, 5369, Control_c, 0, 64, 47
1, 5384, Control_c, 0, 64, 40
1, 5399, Control_c, 0, 64, 33
1, 5414, Control_c, 0, 64, 21
1, 5428, Control_c, 0, 64, 0
1, 5576, Control_c, 0, 64, 13
1, 5591, Control_c, 0, 64, 34
1, 5606, Control_c, 0, 64, 48
1, 5620, Control_c, 0, 64, 57
1, 5635, Control_c, 0, 64, 61
1, 5650, Control_c, 0, 64, 64
1, 5665, Control_c, 0, 64, 67
1, 5680, Control_c, 0, 64, 71
1, 5695, Control_c, 0, 64, 77
1, 5710, Control_c, 0, 64, 84
1, 5725, Control_c, 0, 64, 91
1, 5739, Control_c, 0, 64, 96
1, 5754, Control_c, 0, 64, 106
1, 5769, Control_c, 0, 64, 127
1, 5940, Note_off_c, 0, 60, 28
1, 5984, Note_off_c, 0, 63, 37
1, 6007, Note_off_c, 0, 33, 58
1, 6031, Note_off_c, 0, 66, 40
1, 6059, Note_off_c, 0, 39, 57
1, 6668, Note_on_c, 0, 66, 54
1, 6673, Note_on_c, 0, 63, 53
1, 6681, Note_on_c, 0, 54, 49
1, 6688, Note_on_c, 0, 60, 46
1, 6695, Note_on_c, 0, 51, 50
1, 6697, Note_on_c, 0, 45, 47
1, 6697, Control_c, 0, 64, 115
1, 6712, Control_c, 0, 64, 94
1, 6726, Control_c, 0, 64, 80
1, 6741, Control_c, 0, 64, 69
1, 6756, Control_c, 0, 64, 58
1, 6771, Control_c, 0, 64, 41
1, 6786, Control_c, 0, 64, 32
1, 6801, Control_c, 0, 64, 37
1, 6816, Control_c, 0, 64, 51
1, 6830, Control_c, 0, 64, 64
1, 6853, Control_c, 0, 64, 77
1, 6868, Control_c, 0, 64, 97
1, 6882, Control_c, 0, 64, 127
1, 6972, Note_off_c, 0, 60, 36
1, 6980, Note_off_c, 0, 63, 32
1, 6990, Note_off_c, 0, 51, 48
1, 7004, Note_off_c, 0, 66, 34
1, 7033, Note_off_c, 0, 45, 32
1, 7033, Note_off_c, 0, 54, 34
1, 7164, Note_on_c, 0, 66, 63
1, 7165, Note_on_c, 0, 63, 68
1, 7174, Note_on_c, 0, 45, 55
1, 7174, Note_on_c, 0, 60, 63
1, 7176, Note_on_c, 0, 54, 58
1, 7180, Note_on_c, 0, 51, 56
1, 7430, Note_off_c, 0, 63, 31
1, 7439, Note_off_c, 0, 66, 0
1, 7459, Note_off_c, 0, 60, 24
1, 7483, Poly_aftertouch_c, 0, 66, 0
1, 7484, Note_off_c, 0, 51, 34
1, 7498, Note_off_c, 0, 45, 40
1, 7499, Note_off_c, 0, 54, 33
1, 7703, Note_on_c, 0, 66, 73
1, 7705, Note_on_c, 0, 63, 73
1, 7708, Note_on_c, 0, 60, 70
1, 7709, Note_on_c, 0, 45, 59
1, 7712, Note_on_c, 0, 51, 57
1, 7713, Note_on_c, 0, 54, 65
1, 8002, Note_off_c, 0, 63, 51
1, 8002, Note_off_c, 0, 51, 30
1, 8004, Note_off_c, 0, 45, 40
1, 8011, Note_off_c, 0, 60, 34
1, 8038, Note_off_c, 0, 54, 33
1, 8106, Note_off_c, 0, 66, 36
1, 8451, Note_on_c, 0, 67, 75
1, 8452, Note_on_c, 0, 63, 68
1, 8453, Note_on_c, 0, 58, 70
1, 8458, Note_on_c, 0, 51, 61
1, 8461, Note_on_c, 0, 55, 64
1, 8473, Note_on_c, 0, 46, 57
1, 8513, Control_c, 0, 64, 91
1, 8528, Control_c, 0, 64, 77
1, 8543, Control_c, 0, 64, 67
1, 8558, Control_c, 0, 64, 58
1, 8572, Control_c, 0, 64, 46
1, 8587, Control_c, 0, 64, 36
1, 8602, Control_c, 0, 64, 24
1, 8616, Control_c, 0, 64, 0
1, 8958, Control_c, 0, 64, 30
1, 8972, Control_c, 0, 64, 47
1, 8987, Control_c, 0, 64, 58
1, 9002, Control_c, 0, 64, 64
1, 9018, Control_c, 0, 64, 70
1, 9033, Control_c, 0, 64, 76
1, 9048, Control_c, 0, 64, 86
1, 9062, Control_c, 0, 64, 95
1, 9077, Control_c, 0, 64, 103
1, 9099, Control_c, 0, 64, 112
1, 9114, Control_c, 0, 64, 127
1, 9405, Note_off_c, 0, 58, 28
1, 9432, Note_off_c, 0, 67, 32
1, 9444, Note_off_c, 0, 63, 34
1, 9519, Note_off_c, 0, 51, 28
1, 9524, Note_off_c, 0, 55, 32
1, 9621, Note_off_c, 0, 46, 27
1, 10297, Note_on_c, 0, 67, 49
1, 10311, Note_on_c, 0, 34, 51
1, 10315, Note_on_c, 0, 56, 26
1, 10315, Note_on_c, 0, 62, 37
1, 10318, Note_on_c, 0, 46, 41
1, 10322, Control_c, 0, 64, 103
1, 10336, Control_c, 0, 64, 86
1, 10344, Note_off_c, 0, 46, 50
1, 10345, Note_off_c, 0, 34, 61
1, 10351, Control_c, 0, 64, 72
1, 10366, Control_c, 0, 64, 62
1, 10368, Note_off_c, 0, 56, 41
1, 10374, Note_off_c, 0, 62, 39
1, 10381, Control_c, 0, 64, 51
1, 10396, Control_c, 0, 64, 40
1, 10411, Control_c, 0, 64, 31
1, 10425, Control_c, 0, 64, 25
1, 10440, Control_c, 0, 64, 21
1, 10450, Note_on_c, 0, 65, 48
1, 10455, Control_c, 0, 64, 19
1, 10456, Note_off_c, 0, 67, 36
1, 10470, Control_c, 0, 64, 15
1, 10485, Note_off_c, 0, 65, 65
1, 10485, Control_c, 0, 64, 14
1, 10500, Control_c, 0, 64, 14
1, 10530, Control_c, 0, 64, 13
1, 10601, Note_on_c, 0, 65, 55
1, 10610, Note_on_c, 0, 34, 59
1, 10617, Note_on_c, 0, 46, 47
1, 10619, Note_on_c, 0, 56, 41
1, 10626, Note_on_c, 0, 62, 32
1, 10641, Note_off_c, 0, 46, 48
1, 10644, Note_off_c, 0, 34, 64
1, 10647, Note_off_c, 0, 56, 55
1, 10655, Note_off_c, 0, 65, 61
1, 10656, Control_c, 0, 64, 13
1, 10658, Note_off_c, 0, 62, 47
1, 10670, Note_on_c, 0, 67, 57
1, 10671, Control_c, 0, 64, 15
1, 10686, Control_c, 0, 64, 15
1, 10715, Control_c, 0, 64, 15
1, 10743, Note_off_c, 0, 67, 55
1, 10745, Control_c, 0, 64, 16
1, 10748, Note_on_c, 0, 65, 51
1, 10760, Control_c, 0, 64, 19
1, 10774, Control_c, 0, 64, 20
1, 10794, Note_off_c, 0, 65, 62
1, 10807, Note_on_c, 0, 64, 60
1, 10834, Control_c, 0, 64, 21
1, 10849, Control_c, 0, 64, 21
1, 10868, Note_on_c, 0, 62, 48
1, 10878, Note_on_c, 0, 34, 55
1, 10879, Control_c, 0, 64, 20
1, 10893, Note_on_c, 0, 65, 60
1, 10893, Control_c, 0, 64, 19
1, 10894, Note_on_c, 0, 46, 18
1, 10908, Note_off_c, 0, 64, 35
1, 10911, Note_off_c, 0, 62, 63
1, 10914, Note_off_c, 0, 34, 66
1, 10920, Note_off_c, 0, 46, 55
1, 10938, Control_c, 0, 64, 20
1, 10953, Control_c, 0, 64, 19
1, 10961, Poly_aftertouch_c, 0, 56, 0
1, 10968, Control_c, 0, 64, 18
1, 10983, Control_c, 0, 64, 17
1, 10994, Note_off_c, 0, 65, 57
1, 10998, Control_c, 0, 64, 16
1, 11035, Note_on_c, 0, 67, 55
1, 11042, Control_c, 0, 64, 16
1, 11069, Note_off_c, 0, 67, 65
1, 11072, Control_c, 0, 64, 15
1, 11086, Control_c, 0, 64, 13
1, 11101, Control_c, 0, 64, 10
1, 11146, Control_c, 0, 64, 11
1, 11188, Note_on_c, 0, 51, 47
1, 11189, Note_on_c, 0, 39, 55
1, 11191, Note_on_c, 0, 55, 43
1, 11191, Note_on_c, 0, 63, 48
1, 11212, Note_off_c, 0, 51, 57
1, 11217, Note_off_c, 0, 55, 52
1, 11221, Note_off_c, 0, 39, 64
1, 11234, Note_off_c, 0, 63, 62
1, 11245, Note_on_c, 0, 65, 52
1, 11264, Control_c, 0, 64, 12
1, 11279, Control_c, 0, 64, 14
1, 11290, Note_off_c, 0, 65, 60
1, 11293, Control_c, 0, 64, 15
1, 11308, Control_c, 0, 64, 16
1, 11330, Note_on_c, 0, 63, 62
1, 11385, Note_off_c, 0, 63, 57
1, 11405, Control_c, 0, 64, 16
1, 11406, Note_on_c, 0, 62, 57
1, 11421, Control_c, 0, 64, 17
1, 11455, Note_off_c, 0, 62, 57
1, 11488, Note_on_c, 0, 63, 51
1, 11510, Control_c, 0, 64, 16
1, 11513, Note_off_c, 0, 63, 62
1, 11524, Control_c, 0, 64, 16
1, 11539, Control_c, 0, 64, 15
1, 11582, Note_on_c, 0, 65, 56
1, 11584, Control_c, 0, 64, 14
1, 11598, Control_c, 0, 64, 13
1, 11602, Note_off_c, 0, 65, 64
1, 11613, Control_c, 0, 64, 12
1, 11686, Note_on_c, 0, 67, 61
1, 11687, Control_c, 0, 64, 13
1, 11702, Control_c, 0, 64, 13
1, 11707, Note_off_c, 0, 67, 65
1, 11716, Control_c, 0, 64, 14
1, 11783, Note_on_c, 0, 68, 60
1, 11791, Control_c, 0, 64, 14
1, 11808, Note_off_c, 0, 68, 64
1, 11865, Control_c, 0, 64, 15
1, 11874, Note_on_c, 0, 70, 62
1, 11880, Control_c, 0, 64, 16
1, 11903, Note_off_c, 0, 70, 66
1, 11924, Control_c, 0, 64, 16
1, 11979, Note_on_c, 0, 72, 64
1, 11998, Control_c, 0, 64, 15
1, 12007, Note_off_c, 0, 72, 66
1, 12013, Control_c, 0, 64, 15
1, 12028, Control_c, 0, 64, 15
1, 12042, Control_c, 0, 64, 16
1, 12092, Note_on_c, 0, 74, 65
1, 12095, Control_c, 0, 64, 15
1, 12116, Note_off_c, 0, 74, 68
1, 12168, Control_c, 0, 64, 15
1, 12183, Control_c, 0, 64, 14
1, 12197, Note_on_c, 0, 75, 63
1, 12198, Control_c, 0, 64, 13
1, 12214, Control_c, 0, 64, 13
1, 12225, Note_off_c, 0, 75, 68
1, 12229, Control_c, 0, 64, 10
1, 12244, Control_c, 0, 64, 0
1, 12298, Note_on_c, 0, 77, 68
1, 12324, Note_off_c, 0, 77, 67
1, 12407, Note_on_c, 0, 78, 62
1, 12436, Note_off_c, 0, 78, 65
1, 12518, Note_on_c, 0, 79, 64
1, 12541, Note_off_c, 0, 79, 65
1, 12619, Note_on_c, 0, 80, 65
1, 12649, Note_off_c, 0, 80, 64
1, 12735, Note_on_c, 0, 81, 61
1, 12753, Note_off_c, 0, 81, 64
1, 12850, Note_on_c, 0, 82, 66
1, 12881, Note_off_c, 0, 82, 63
1, 12964, Note_on_c, 0, 83, 70
1, 12986, Note_off_c, 0, 83, 69
1, 13153, Note_on_c, 0, 84, 65
1, 13160, Note_on_c, 0, 75, 37
1, 13167, Note_on_c, 0, 72, 41
1, 13180, Note_on_c, 0, 68, 43
1, 13430, Note_on_c, 0, 77, 53
1, 13449, Note_off_c, 0, 84, 45
1, 13452, Note_off_c, 0, 77, 60
1, 13523, Note_on_c, 0, 77, 62
1, 13860, Note_off_c, 0, 77, 61
1, 13862, Note_off_c, 0, 75, 62
1, 13868, Note_off_c, 0, 72, 61
1, 13895, Note_off_c, 0, 68, 63
1, 14226, Note_on_c, 0, 71, 48
1, 14283, Note_on_c, 0, 72, 50
1, 14299, Note_off_c, 0, 71, 57
1, 14302, Note_on_c, 0, 63, 26
1, 14303, Note_on_c, 0, 60, 40
1, 14304, Note_on_c, 0, 56, 39
1, 14369, Note_off_c, 0, 72, 0
1, 14369, Note_on_c, 0, 72, 7
1, 14590, Note_on_c, 0, 65, 46
1, 14590, Note_off_c, 0, 72, 38
1, 14617, Note_off_c, 0, 65, 56
1, 14688, Note_on_c, 0, 65, 49
1, 14996, Note_off_c, 0, 63, 51
1, 15000, Note_off_c, 0, 65, 59
1, 15013, Note_off_c, 0, 60, 47
1, 15049, Note_off_c, 0, 56, 57
1, 15430, Control_c, 0, 64, 14
1, 15445, Control_c, 0, 64, 22
1, 15460, Control_c, 0, 64, 26
1, 15475, Control_c, 0, 64, 30
1, 15490, Control_c, 0, 64, 35
1, 15505, Control_c, 0, 64, 40
1, 15520, Control_c, 0, 64, 45
1, 15534, Control_c, 0, 64, 49
1, 15549, Control_c, 0, 64, 53
1, 15558, Note_on_c, 0, 53, 38
1, 15564, Control_c, 0, 64, 56
1, 15570, Note_on_c, 0, 51, 32
1, 15579, Control_c, 0, 64, 59
1, 15584, Note_on_c, 0, 44, 16
1, 15591, Note_on_c, 0, 32, 35
1, 15594, Control_c, 0, 64, 62
1, 15607, Control_c, 0, 64, 65
1, 15622, Control_c, 0, 64, 67
1, 15637, Control_c, 0, 64, 72
1, 15652, Control_c, 0, 64, 78
1, 15667, Control_c, 0, 64, 83
1, 15681, Control_c, 0, 64, 88
1, 15696, Control_c, 0, 64, 93
1, 15711, Control_c, 0, 64, 98
1, 15726, Control_c, 0, 64, 105
1, 15728, Note_off_c, 0, 51, 38
1, 15740, Control_c, 0, 64, 127
1, 15778, Note_off_c, 0, 53, 40
1, 15830, Note_off_c, 0, 44, 38
1, 15841, Note_off_c, 0, 32, 28
1, 16000, Note_on_c, 0, 53, 46
1, 16002, Note_on_c, 0, 51, 49
1, 16021, Note_on_c, 0, 44, 47
1, 16024, Note_on_c, 0, 48, 37
1, 16024, Note_on_c, 0, 32, 36
1, 16138, Note_off_c, 0, 51, 35
1, 16194, Note_off_c, 0, 48, 24
1, 16201, Note_off_c, 0, 32, 37
1, 16201, Note_off_c, 0, 44, 30
1, 16226, Note_off_c, 0, 53, 24
1, 16444, Note_on_c, 0, 53, 60
1, 16453, Note_on_c, 0, 51, 57
1, 16457, Note_on_c, 0, 44, 53
1, 16464, Note_on_c, 0, 32, 49
1, 16466, Note_on_c, 0, 48, 47
1, 16570, Note_off_c, 0, 51, 49
1, 16624, Note_off_c, 0, 48, 39
1, 16672, Note_off_c, 0, 53, 34
1, 16673, Note_off_c, 0, 32, 37
1, 16692, Note_off_c, 0, 44, 31
1, 17003, Note_on_c, 0, 51, 56
1, 17003, Note_on_c, 0, 54, 57
1, 17010, Note_on_c, 0, 45, 50
1, 17013, Note_on_c, 0, 48, 43
1, 17017, Control_c, 0, 64, 119
1, 17018, Note_on_c, 0, 33, 48
1, 17032, Control_c, 0, 64, 101
1, 17047, Control_c, 0, 64, 89
1, 17061, Control_c, 0, 64, 78
1, 17076, Control_c, 0, 64, 67
1, 17091, Control_c, 0, 64, 57
1, 17106, Control_c, 0, 64, 44
1, 17121, Control_c, 0, 64, 28
1, 17135, Control_c, 0, 64, 0
1, 17528, Control_c, 0, 64, 31
1, 17543, Control_c, 0, 64, 46
1, 17558, Control_c, 0, 64, 57
1, 17573, Control_c, 0, 64, 62
1, 17587, Control_c, 0, 64, 66
1, 17602, Control_c, 0, 64, 70
1, 17617, Control_c, 0, 64, 76
1, 17632, Control_c, 0, 64, 85
1, 17647, Control_c, 0, 64, 94
1, 17661, Control_c, 0, 64, 102
1, 17676, Control_c, 0, 64, 111
1, 17691, Control_c, 0, 64, 127
1, 17885, Note_off_c, 0, 48, 32
1, 17904, Note_off_c, 0, 51, 35
1, 17913, Note_off_c, 0, 54, 52
1, 17958, Note_off_c, 0, 33, 34
1, 17985, Note_off_c, 0, 45, 57
1, 18712, Note_on_c, 0, 78, 61
1, 18724, Note_on_c, 0, 72, 41
1, 18724, Note_on_c, 0, 69, 46
1, 18724, Note_on_c, 0, 75, 54
1, 18751, Control_c, 0, 64, 99
1, 18766, Control_c, 0, 64, 79
1, 18781, Control_c, 0, 64, 65
1, 18796, Control_c, 0, 64, 48
1, 18811, Control_c, 0, 64, 9
1, 18833, Control_c, 0, 64, 0
1, 18863, Control_c, 0, 64, 21
1, 18877, Control_c, 0, 64, 48
1, 18892, Control_c, 0, 64, 62
1, 18907, Control_c, 0, 64, 72
1, 18922, Control_c, 0, 64, 83
1, 18937, Control_c, 0, 64, 101
1, 18951, Control_c, 0, 64, 120
1, 18966, Control_c, 0, 64, 127
1, 18995, Note_off_c, 0, 75, 25
1, 19016, Note_off_c, 0, 78, 31
1, 19055, Note_off_c, 0, 69, 32
1, 19067, Note_off_c, 0, 72, 40
1, 19206, Note_on_c, 0, 78, 75
1, 19213, Note_on_c, 0, 72, 52
1, 19214, Note_on_c, 0, 69, 51
1, 19214, Note_on_c, 0, 75, 68
1, 19248, Control_c, 0, 64, 86
1, 19263, Control_c, 0, 64, 68
1, 19277, Control_c, 0, 64, 53
1, 19292, Control_c, 0, 64, 38
1, 19307, Control_c, 0, 64, 43
1, 19322, Control_c, 0, 64, 59
1, 19337, Control_c, 0, 64, 70
1, 19352, Control_c, 0, 64, 86
1, 19367, Control_c, 0, 64, 127
1, 19467, Note_off_c, 0, 72, 49
1, 19487, Note_off_c, 0, 69, 34
1, 19529, Note_off_c, 0, 78, 31
1, 19538, Note_off_c, 0, 75, 32
1, 19741, Note_on_c, 0, 78, 80
1, 19749, Note_on_c, 0, 75, 71
1, 19755, Note_on_c, 0, 72, 57
1, 19759, Note_on_c, 0, 69, 57
1, 19761, Control_c, 0, 64, 89
1, 19775, Control_c, 0, 64, 69
1, 19790, Control_c, 0, 64, 55
1, 19805, Control_c, 0, 64, 36
1, 19820, Control_c, 0, 64, 14
1, 19834, Control_c, 0, 64, 0
1, 19849, Control_c, 0, 64, 28
1, 19864, Control_c, 0, 64, 49
1, 19879, Control_c, 0, 64, 63
1, 19894, Control_c, 0, 64, 71
1, 19908, Control_c, 0, 64, 82
1, 19923, Control_c, 0, 64, 104
1, 19938, Control_c, 0, 64, 127
1, 20024, Note_off_c, 0, 75, 42
1, 20064, Note_off_c, 0, 72, 31
1, 20069, Note_off_c, 0, 78, 57
1, 20084, Note_off_c, 0, 69, 30
1, 20472, Note_on_c, 0, 79, 80
1, 20474, Note_on_c, 0, 75, 76
1, 20477, Note_on_c, 0, 70, 69
1, 20523, Control_c, 0, 64, 100
1, 20538, Control_c, 0, 64, 82
1, 20553, Control_c, 0, 64, 69
1, 20568, Control_c, 0, 64, 58
1, 20583, Control_c, 0, 64, 44
1, 20598, Control_c, 0, 64, 29
1, 20612, Control_c, 0, 64, 0
1, 20894, Control_c, 0, 64, 30
1, 20909, Control_c, 0, 64, 46
1, 20923, Control_c, 0, 64, 56
1, 20938, Control_c, 0, 64, 62
1, 20953, Control_c, 0, 64, 65
1, 20967, Control_c, 0, 64, 68
1, 20982, Control_c, 0, 64, 73
1, 20999, Control_c, 0, 64, 82
1, 21014, Control_c, 0, 64, 93
1, 21028, Control_c, 0, 64, 106
1, 21043, Control_c, 0, 64, 127
1, 21282, Note_off_c, 0, 79, 48
1, 21324, Note_off_c, 0, 75, 36
1, 21347, Note_off_c, 0, 70, 31
1, 22302, Control_c, 0, 64, 111
1, 22313, Note_on_c, 0, 67, 41
1, 22314, Note_on_c, 0, 62, 44
1, 22317, Control_c, 0, 64, 96
1, 22319, Note_on_c, 0, 34, 46
1, 22325, Note_on_c, 0, 56, 29
1, 22329, Note_on_c, 0, 46, 33
1, 22332, Control_c, 0, 64, 81
1, 22347, Control_c, 0, 64, 68
1, 22354, Note_off_c, 0, 34, 55
1, 22361, Note_off_c, 0, 46, 42
1, 22362, Control_c, 0, 64, 58
1, 22367, Note_off_c, 0, 56, 47
1, 22376, Note_off_c, 0, 62, 52
1, 22376, Control_c, 0, 64, 41
1, 22391, Control_c, 0, 64, 28
1, 22406, Control_c, 0, 64, 15
1, 22415, Note_off_c, 0, 67, 29
1, 22421, Control_c, 0, 64, 12
1, 22450, Control_c, 0, 64, 12
1, 22458, Note_on_c, 0, 65, 49
1, 22495, Control_c, 0, 64, 13
1, 22496, Note_off_c, 0, 65, 65
1, 22510, Control_c, 0, 64, 15
1, 22554, Control_c, 0, 64, 16
1, 22576, Control_c, 0, 64, 16
1, 22591, Control_c, 0, 64, 19
1, 22607, Control_c, 0, 64, 22
1, 22611, Note_on_c, 0, 65, 53
1, 22618, Note_on_c, 0, 34, 54
1, 22622, Control_c, 0, 64, 23
1, 22626, Note_on_c, 0, 46, 46
1, 22637, Control_c, 0, 64, 24
1, 22646, Note_on_c, 0, 56, 13
1, 22650, Note_off_c, 0, 46, 54
1, 22661, Note_off_c, 0, 34, 61
1, 22666, Control_c, 0, 64, 24
1, 22671, Note_off_c, 0, 56, 47
1, 22673, Note_on_c, 0, 67, 61
1, 22674, Note_off_c, 0, 65, 61
1, 22681, Control_c, 0, 64, 25
1, 22696, Control_c, 0, 64, 26
1, 22725, Control_c, 0, 64, 26
1, 22740, Control_c, 0, 64, 28
1, 22751, Note_on_c, 0, 65, 37
1, 22753, Note_off_c, 0, 67, 47
1, 22755, Control_c, 0, 64, 29
1, 22805, Note_off_c, 0, 65, 61
1, 22811, Note_on_c, 0, 64, 61
1, 22829, Control_c, 0, 64, 30
1, 22844, Control_c, 0, 64, 30
1, 22862, Note_on_c, 0, 62, 48
1, 22874, Control_c, 0, 64, 30
1, 22886, Note_on_c, 0, 34, 57
1, 22891, Note_off_c, 0, 64, 52
1, 22892, Note_on_c, 0, 46, 41
1, 22899, Note_on_c, 0, 65, 58
1, 22905, Poly_aftertouch_c, 0, 56, 127
1, 22912, Note_off_c, 0, 62, 61
1, 22922, Note_off_c, 0, 46, 61
1, 22923, Note_off_c, 0, 34, 64
1, 22933, Control_c, 0, 64, 29
1, 22948, Control_c, 0, 64, 28
1, 22954, Poly_aftertouch_c, 0, 56, 0
1, 22963, Control_c, 0, 64, 26
1, 22977, Control_c, 0, 64, 22
1, 22987, Note_off_c, 0, 65, 55
1, 22992, Control_c, 0, 64, 21
1, 23022, Control_c, 0, 64, 20
1, 23037, Control_c, 0, 64, 19
1, 23047, Note_on_c, 0, 67, 53
1, 23051, Control_c, 0, 64, 15
1, 23066, Control_c, 0, 64, 11
1, 23074, Note_off_c, 0, 67, 64
1, 23081, Control_c, 0, 64, 0
1, 23187, Note_on_c, 0, 39, 54
1, 23189, Note_on_c, 0, 55, 61
1, 23190, Note_on_c, 0, 51, 53
1, 23193, Note_on_c, 0, 63, 54
1, 23214, Note_off_c, 0, 55, 64
1, 23219, Note_off_c, 0, 51, 61
1, 23219, Note_off_c, 0, 63, 64
1, 23221, Note_off_c, 0, 39, 65
1, 23345, Note_on_c, 0, 51, 51
1, 23385, Note_off_c, 0, 51, 62
1, 23485, Note_on_c, 0, 51, 60
1, 23521, Note_off_c, 0, 51, 65
1, 23608, Control_c, 0, 64, 9
1, 23623, Control_c, 0, 64, 10
1, 23632, Note_on_c, 0, 51, 56
1, 23638, Control_c, 0, 64, 11
1, 23667, Control_c, 0, 64, 12
1, 23670, Note_off_c, 0, 51, 63
1, 23682, Control_c, 0, 64, 12
1, 23697, Control_c, 0, 64, 14
1, 23712, Control_c, 0, 64, 16
1, 23727, Control_c, 0, 64, 18
1, 23741, Control_c, 0, 64, 19
1, 23756, Control_c, 0, 64, 19
1, 23768, Note_on_c, 0, 51, 57
1, 23771, Control_c, 0, 64, 20
1, 23786, Control_c, 0, 64, 21
1, 23807, Note_off_c, 0, 51, 60
1, 23921, Note_on_c, 0, 51, 53
1, 23955, Note_off_c, 0, 51, 65
1, 24042, Note_on_c, 0, 86, 50
1, 24054, Note_on_c, 0, 51, 49
1, 24068, Note_on_c, 0, 63, 49
1, 24077, Note_on_c, 0, 87, 69
1, 24085, Note_off_c, 0, 86, 64
1, 24087, Note_on_c, 0, 60, 45
1, 24129, Note_off_c, 0, 51, 58
1, 24236, Note_off_c, 0, 87, 56
1, 24247, Note_on_c, 0, 51, 48
1, 24279, Note_off_c, 0, 51, 62
1, 24294, Note_on_c, 0, 80, 63
1, 24320, Note_off_c, 0, 80, 64
1, 24369, Note_on_c, 0, 51, 57
1, 24379, Note_on_c, 0, 80, 58
1, 24412, Note_off_c, 0, 51, 59
1, 24527, Note_on_c, 0, 51, 52
1, 24570, Note_off_c, 0, 80, 60
1, 24573, Note_off_c, 0, 51, 63
1, 24681, Note_on_c, 0, 51, 50
1, 24716, Note_off_c, 0, 51, 61
1, 24821, Note_on_c, 0, 51, 48
1, 24840, Note_off_c, 0, 60, 60
1, 24850, Note_off_c, 0, 63, 54
1, 24859, Note_off_c, 0, 51, 62
1, 24926, Note_on_c, 0, 74, 50
1, 24965, Note_on_c, 0, 62, 36
1, 24966, Note_on_c, 0, 51, 34
1, 24968, Note_on_c, 0, 75, 61
1, 24973, Note_on_c, 0, 58, 52
1, 24983, Note_off_c, 0, 74, 53
1, 25002, Note_off_c, 0, 51, 49
1, 25110, Note_on_c, 0, 51, 43
1, 25159, Note_off_c, 0, 51, 60
1, 25159, Note_off_c, 0, 75, 34
1, 25200, Note_on_c, 0, 67, 46
1, 25247, Note_off_c, 0, 67, 0
1, 25258, Note_on_c, 0, 67, 51
1, 25264, Note_on_c, 0, 51, 53
1, 25304, Note_off_c, 0, 51, 62
1, 25357, Control_c, 0, 64, 21
1, 25402, Control_c, 0, 64, 21
1, 25413, Note_on_c, 0, 51, 52
1, 25460, Note_off_c, 0, 51, 61
1, 25460, Note_off_c, 0, 67, 61
1, 25574, Note_on_c, 0, 51, 53
1, 25617, Note_off_c, 0, 51, 60
1, 25722, Note_on_c, 0, 51, 47
1, 25730, Note_off_c, 0, 58, 61
1, 25734, Note_off_c, 0, 62, 57
1, 25750, Note_off_c, 0, 51, 56
1, 25857, Note_on_c, 0, 75, 53
1, 25861, Note_on_c, 0, 51, 26
1, 25864, Note_on_c, 0, 60, 49
1, 25884, Note_on_c, 0, 56, 40
1, 25910, Note_off_c, 0, 51, 45
1, 25921, Note_on_c, 0, 65, 47
1, 25941, Note_off_c, 0, 75, 54
1, 25948, Note_off_c, 0, 65, 59
1, 25986, Note_on_c, 0, 51, 50
1, 26018, Note_off_c, 0, 60, 41
1, 26030, Note_off_c, 0, 51, 62
1, 26034, Note_off_c, 0, 56, 54
1, 26061, Control_c, 0, 64, 21
1, 26121, Control_c, 0, 64, 20
1, 26140, Note_on_c, 0, 60, 51
1, 26145, Note_on_c, 0, 56, 52
1, 26147, Note_on_c, 0, 75, 58
1, 26170, Note_on_c, 0, 51, 19
1, 26208, Note_on_c, 0, 65, 58
1, 26210, Control_c, 0, 64, 20
1, 26213, Note_off_c, 0, 51, 42
1, 26221, Note_off_c, 0, 75, 58
1, 26225, Control_c, 0, 64, 19
1, 26242, Note_off_c, 0, 65, 66
1, 26270, Note_on_c, 0, 51, 54
1, 26284, Control_c, 0, 64, 19
1, 26286, Note_off_c, 0, 60, 58
1, 26297, Note_off_c, 0, 56, 35
1, 26324, Note_off_c, 0, 51, 63
1, 26381, Control_c, 0, 64, 18
1, 26395, Control_c, 0, 64, 18
1, 26433, Note_on_c, 0, 56, 41
1, 26438, Note_on_c, 0, 74, 49
1, 26440, Note_on_c, 0, 59, 46
1, 26469, Control_c, 0, 64, 17
1, 26484, Control_c, 0, 64, 16
1, 26490, Note_on_c, 0, 65, 56
1, 26501, Note_off_c, 0, 74, 52
1, 26513, Control_c, 0, 64, 16
1, 26524, Note_off_c, 0, 65, 65
1, 26531, Poly_aftertouch_c, 0, 51, 0
1, 26543, Control_c, 0, 64, 15
1, 26548, Note_off_c, 0, 59, 35
1, 26549, Note_on_c, 0, 51, 31
1, 26588, Note_off_c, 0, 56, 52
1, 26594, Note_off_c, 0, 51, 63
1, 26604, Control_c, 0, 64, 15
1, 26722, Note_on_c, 0, 75, 54
1, 26731, Note_on_c, 0, 58, 50
1, 26739, Note_on_c, 0, 51, 25
1, 26749, Note_on_c, 0, 55, 45
1, 26785, Note_off_c, 0, 51, 49
1, 26794, Note_on_c, 0, 63, 50
1, 26803, Note_off_c, 0, 58, 44
1, 26811, Control_c, 0, 64, 15
1, 26826, Note_off_c, 0, 63, 62
1, 26843, Note_off_c, 0, 55, 47
1, 26844, Note_off_c, 0, 75, 35
1, 26877, Note_on_c, 0, 51, 51
1, 26916, Note_off_c, 0, 51, 62
1, 27020, Note_on_c, 0, 51, 52
1, 27068, Note_off_c, 0, 51, 63
1, 27071, Control_c, 0, 64, 15
1, 27115, Control_c, 0, 64, 14
1, 27130, Control_c, 0, 64, 13
1, 27144, Control_c, 0, 64, 13
1, 27181, Note_on_c, 0, 51, 49
1, 27220, Note_off_c, 0, 51, 62
1, 27330, Note_on_c, 0, 51, 57
1, 27363, Note_off_c, 0, 51, 64
1, 27464, Note_on_c, 0, 51, 57
1, 27486, Control_c, 0, 64, 13
1, 27501, Control_c, 0, 64, 14
1, 27504, Note_off_c, 0, 51, 63
1, 27619, Note_on_c, 0, 87, 63
1, 27620, Note_on_c, 0, 63, 55
1, 27623, Note_on_c, 0, 51, 42
1, 27636, Note_on_c, 0, 60, 46
1, 27646, Note_off_c, 0, 87, 65
1, 27664, Note_on_c, 0, 89, 64
1, 27682, Note_off_c, 0, 51, 58
1, 27723, Note_off_c, 0, 89, 62
1, 27724, Note_on_c, 0, 87, 64
1, 27738, Control_c, 0, 64, 13
1, 27754, Note_off_c, 0, 87, 65
1, 27771, Note_on_c, 0, 86, 55
1, 27780, Note_on_c, 0, 51, 47
1, 27802, Note_off_c, 0, 86, 55
1, 27825, Note_off_c, 0, 51, 64
1, 27857, Note_on_c, 0, 87, 62
1, 27879, Control_c, 0, 64, 13
1, 27932, Note_on_c, 0, 51, 53
1, 27950, Note_on_c, 0, 80, 67
1, 27983, Note_off_c, 0, 51, 60
1, 27988, Note_off_c, 0, 87, 39
1, 28012, Control_c, 0, 64, 13
1, 28095, Note_on_c, 0, 51, 55
1, 28133, Note_off_c, 0, 51, 63
1, 28146, Note_off_c, 0, 80, 60
1, 28160, Control_c, 0, 64, 14
1, 28174, Control_c, 0, 64, 14
1, 28230, Note_on_c, 0, 51, 55
1, 28235, Control_c, 0, 64, 15
1, 28250, Control_c, 0, 64, 16
1, 28266, Note_off_c, 0, 51, 61
1, 28294, Control_c, 0, 64, 16
1, 28360, Note_on_c, 0, 51, 56
1, 28382, Note_off_c, 0, 60, 60
1, 28394, Note_off_c, 0, 63, 49
1, 28406, Note_off_c, 0, 51, 61
1, 28505, Note_on_c, 0, 75, 60
1, 28516, Note_on_c, 0, 51, 37
1, 28516, Note_on_c, 0, 62, 41
1, 28517, Note_on_c, 0, 58, 46
1, 28534, Note_off_c, 0, 75, 65
1, 28559, Note_on_c, 0, 77, 58
1, 28559, Note_off_c, 0, 51, 53
1, 28615, Note_off_c, 0, 77, 61
1, 28657, Note_on_c, 0, 51, 55
1, 28657, Note_on_c, 0, 74, 48
1, 28686, Note_off_c, 0, 74, 52
1, 28698, Note_off_c, 0, 51, 62
1, 28715, Control_c, 0, 64, 15
1, 28725, Note_on_c, 0, 75, 40
1, 28815, Note_on_c, 0, 51, 52
1, 28835, Note_on_c, 0, 67, 55
1, 28863, Note_off_c, 0, 51, 60
1, 28922, Control_c, 0, 64, 15
1, 28937, Control_c, 0, 64, 14
1, 28975, Note_on_c, 0, 51, 54
1, 29011, Note_off_c, 0, 75, 62
1, 29017, Note_off_c, 0, 51, 62
1, 29022, Note_off_c, 0, 67, 41
1, 29126, Note_on_c, 0, 51, 47
1, 29163, Note_off_c, 0, 51, 58
1, 29190, Control_c, 0, 64, 13
1, 29282, Note_on_c, 0, 51, 39
1, 29296, Note_off_c, 0, 62, 56
1, 29298, Note_off_c, 0, 58, 58
1, 29322, Note_off_c, 0, 51, 54
1, 29420, Note_on_c, 0, 75, 57
1, 29429, Note_on_c, 0, 51, 34
1, 29436, Note_on_c, 0, 60, 44
1, 29454, Note_on_c, 0, 56, 40
1, 29473, Note_off_c, 0, 51, 47
1, 29493, Note_on_c, 0, 65, 52
1, 29510, Note_off_c, 0, 75, 50
1, 29523, Note_off_c, 0, 65, 66
1, 29564, Note_on_c, 0, 51, 54
1, 29578, Note_off_c, 0, 60, 43
1, 29605, Note_off_c, 0, 51, 61
1, 29608, Note_off_c, 0, 56, 58
1, 29612, Control_c, 0, 64, 13
1, 29686, Control_c, 0, 64, 12
1, 29721, Note_on_c, 0, 75, 63
1, 29726, Note_on_c, 0, 56, 54
1, 29730, Note_on_c, 0, 60, 39
1, 29748, Note_on_c, 0, 51, 12
1, 29779, Note_on_c, 0, 65, 56
1, 29790, Note_off_c, 0, 75, 60
1, 29798, Note_off_c, 0, 51, 37
1, 29811, Note_off_c, 0, 65, 67
1, 29848, Note_on_c, 0, 51, 51
1, 29865, Control_c, 0, 64, 12
1, 29867, Note_off_c, 0, 60, 53
1, 29886, Note_off_c, 0, 56, 38
1, 29892, Note_off_c, 0, 51, 62
1, 29924, Control_c, 0, 64, 11
1, 30004, Note_on_c, 0, 74, 60
1, 30009, Note_on_c, 0, 56, 43
1, 30024, Note_on_c, 0, 59, 45
1, 30069, Note_off_c, 0, 74, 54
1, 30087, Note_on_c, 0, 65, 54
1, 30111, Poly_aftertouch_c, 0, 51, 0
1, 30114, Note_off_c, 0, 65, 66
1, 30129, Note_on_c, 0, 51, 32
1, 30156, Note_off_c, 0, 59, 31
1, 30174, Note_off_c, 0, 51, 65
1, 30174, Note_off_c, 0, 56, 55
1, 30314, Note_on_c, 0, 63, 53
1, 30315, Note_on_c, 0, 51, 46
1, 30317, Note_on_c, 0, 58, 56
1, 30323, Note_on_c, 0, 55, 53
1, 30379, Note_off_c, 0, 63, 61
1, 30391, Note_on_c, 0, 65, 51
1, 30435, Control_c, 0, 64, 10
1, 30458, Note_off_c, 0, 65, 59
1, 30459, Note_on_c, 0, 63, 51
1, 30521, Note_off_c, 0, 63, 61
1, 30530, Note_on_c, 0, 62, 65
1, 30591, Note_on_c, 0, 63, 57
1, 30594, Note_off_c, 0, 62, 62
1, 30616, Note_off_c, 0, 58, 54
1, 30620, Note_off_c, 0, 55, 60
1, 30627, Note_off_c, 0, 63, 65
1, 30648, Note_off_c, 0, 51, 60
1, 30669, Note_on_c, 0, 65, 62
1, 30699, Note_off_c, 0, 65, 65
1, 30731, Control_c, 0, 64, 9
1, 30740, Note_on_c, 0, 67, 73
1, 30746, Control_c, 0, 64, 0
1, 30782, Note_off_c, 0, 67, 61
1, 30794, Note_on_c, 0, 68, 72
1, 30883, Note_off_c, 0, 68, 64
1, 30883, Note_on_c, 0, 70, 69
1, 30906, Note_off_c, 0, 70, 67
1, 31044, Note_on_c, 0, 67, 66
1, 31047, Note_on_c, 0, 55, 54
1, 31068, Note_off_c, 0, 67, 65
1, 31076, Note_off_c, 0, 55, 64
1, 31197, Note_on_c, 0, 65, 66
1, 31200, Note_on_c, 0, 53, 64
1, 31224, Note_off_c, 0, 65, 68
1, 31229, Note_off_c, 0, 53, 66
1, 31348, Note_on_c, 0, 56, 63
1, 31363, Note_on_c, 0, 68, 59
1, 31387, Note_off_c, 0, 56, 64
1, 31390, Note_off_c, 0, 68, 66
1, 31497, Note_on_c, 0, 50, 64
1, 31497, Note_on_c, 0, 62, 72
1, 31524, Note_off_c, 0, 50, 66
1, 31525, Note_off_c, 0, 62, 65
1, 31654, Note_on_c, 0, 53, 67
1, 31658, Note_on_c, 0, 65, 69
1, 31683, Note_off_c, 0, 65, 68
1, 31692, Note_off_c, 0, 53, 66
1, 31806, Note_on_c, 0, 46, 71
1, 31810, Note_on_c, 0, 58, 72
1, 31835, Note_off_c, 0, 58, 67
1, 31843, Note_off_c, 0, 46, 62
1, 31957, Note_on_c, 0, 62, 71
1, 31959, Note_on_c, 0, 50, 63
1, 31983, Note_off_c, 0, 62, 69
1, 31992, Note_off_c, 0, 50, 64
1, 32115, Note_on_c, 0, 51, 60
1, 32121, Note_on_c, 0, 63, 66
1, 32184, Note_off_c, 0, 63, 63
1, 32192, Note_on_c, 0, 65, 66
1, 32255, Note_on_c, 0, 63, 63
1, 32260, Note_off_c, 0, 65, 63
1, 32325, Note_off_c, 0, 63, 63
1, 32332, Note_on_c, 0, 62, 69
1, 32399, Note_on_c, 0, 63, 70
1, 32404, Note_off_c, 0, 62, 64
1, 32425, Note_off_c, 0, 51, 62
1, 32445, Note_off_c, 0, 63, 63
1, 32475, Note_on_c, 0, 65, 67
1, 32508, Note_off_c, 0, 65, 64
1, 32553, Note_on_c, 0, 67, 67
1, 32609, Note_on_c, 0, 68, 71
1, 32609, Note_off_c, 0, 67, 63
1, 32636, Note_off_c, 0, 68, 69
1, 32700, Note_on_c, 0, 60, 66
1, 32710, Note_on_c, 0, 72, 64
1, 32793, Note_on_c, 0, 70, 71
1, 32796, Note_on_c, 0, 58, 55
1, 32816, Note_off_c, 0, 72, 60
1, 32842, Note_off_c, 0, 60, 33
1, 32866, Note_off_c, 0, 58, 60
1, 32870, Note_on_c, 0, 56, 62
1, 32872, Note_on_c, 0, 68, 67
1, 32900, Note_off_c, 0, 70, 58
1, 32925, Note_on_c, 0, 67, 75
1, 32949, Note_off_c, 0, 56, 57
1, 32952, Note_off_c, 0, 68, 61
1, 32958, Note_on_c, 0, 55, 53
1, 32987, Note_off_c, 0, 67, 61
1, 33006, Note_on_c, 0, 65, 76
1, 33006, Note_off_c, 0, 55, 62
1, 33009, Note_on_c, 0, 53, 62
1, 33030, Note_off_c, 0, 65, 69
1, 33039, Note_off_c, 0, 53, 66
1, 33181, Note_on_c, 0, 56, 58
1, 33186, Note_on_c, 0, 68, 66
1, 33213, Note_off_c, 0, 68, 68
1, 33214, Note_off_c, 0, 56, 64
1, 33321, Note_on_c, 0, 62, 71
1, 33322, Note_on_c, 0, 50, 54
1, 33347, Note_off_c, 0, 62, 67
1, 33356, Note_off_c, 0, 50, 64
1, 33473, Note_on_c, 0, 53, 61
1, 33481, Note_on_c, 0, 65, 64
1, 33505, Note_off_c, 0, 53, 65
1, 33507, Note_off_c, 0, 65, 68
1, 33626, Note_on_c, 0, 46, 65
1, 33630, Note_on_c, 0, 58, 69
1, 33656, Note_off_c, 0, 58, 67
1, 33658, Note_off_c, 0, 46, 64
1, 33782, Note_on_c, 0, 50, 65
1, 33786, Note_on_c, 0, 62, 68
1, 33818, Note_off_c, 0, 62, 68
1, 33825, Note_off_c, 0, 50, 61
1, 33935, Note_on_c, 0, 51, 72
1, 33940, Note_on_c, 0, 63, 69
1, 33971, Note_off_c, 0, 51, 63
1, 33977, Note_off_c, 0, 63, 61
1, 34095, Note_on_c, 0, 67, 65
1, 34103, Note_on_c, 0, 55, 57
1, 34124, Note_off_c, 0, 67, 68
1, 34135, Note_off_c, 0, 55, 62
1, 34235, Note_on_c, 0, 60, 62
1, 34236, Note_on_c, 0, 48, 53
1, 34258, Note_off_c, 0, 60, 66
1, 34273, Note_off_c, 0, 48, 62
1, 34379, Note_on_c, 0, 51, 56
1, 34380, Note_on_c, 0, 63, 57
1, 34412, Note_off_c, 0, 63, 66
1, 34416, Note_off_c, 0, 51, 64
1, 34526, Note_on_c, 0, 45, 55
1, 34536, Note_on_c, 0, 57, 56
1, 34567, Note_off_c, 0, 57, 62
1, 34572, Note_off_c, 0, 45, 64
1, 34681, Note_on_c, 0, 48, 48
1, 34681, Note_on_c, 0, 60, 60
1, 34709, Note_off_c, 0, 60, 67
1, 34710, Note_off_c, 0, 48, 58
1, 34834, Note_on_c, 0, 41, 54
1, 34839, Note_on_c, 0, 53, 61
1, 34871, Note_off_c, 0, 53, 66
1, 34875, Note_off_c, 0, 41, 60
1, 34991, Note_on_c, 0, 57, 56
1, 34993, Note_on_c, 0, 45, 62
1, 35020, Note_off_c, 0, 57, 65
1, 35033, Note_off_c, 0, 45, 63
1, 35139, Note_on_c, 0, 48, 69
1, 35140, Note_on_c, 0, 60, 61
1, 35169, Note_off_c, 0, 60, 66
1, 35174, Note_off_c, 0, 48, 65
1, 35277, Note_on_c, 0, 64, 72
1, 35281, Note_on_c, 0, 52, 73
1, 35322, Note_off_c, 0, 52, 66
1, 35322, Note_off_c, 0, 64, 61
1, 35442, Note_on_c, 0, 53, 70
1, 35446, Note_on_c, 0, 65, 67
1, 35477, Note_off_c, 0, 65, 64
1, 35477, Note_off_c, 0, 53, 66
1, 35603, Note_on_c, 0, 45, 67
1, 35611, Note_on_c, 0, 57, 56
1, 35634, Note_off_c, 0, 45, 65
1, 35638, Note_off_c, 0, 57, 65
1, 35742, Note_on_c, 0, 46, 67
1, 35748, Note_on_c, 0, 58, 68
1, 35775, Note_off_c, 0, 58, 66
1, 35781, Note_off_c, 0, 46, 60
1, 35898, Note_on_c, 0, 50, 60
1, 35903, Note_on_c, 0, 62, 58
1, 35924, Note_off_c, 0, 62, 63
1, 35933, Note_off_c, 0, 50, 64
1, 36057, Note_on_c, 0, 53, 57
1, 36057, Note_on_c, 0, 65, 59
1, 36085, Note_off_c, 0, 65, 66
1, 36088, Note_off_c, 0, 53, 64
1, 36213, Note_on_c, 0, 69, 58
1, 36225, Note_on_c, 0, 57, 53
1, 36338, Note_off_c, 0, 57, 57
1, 36361, Note_on_c, 0, 58, 61
1, 36365, Note_on_c, 0, 70, 69
1, 36380, Note_off_c, 0, 69, 49
1, 36391, Note_off_c, 0, 70, 66
1, 36394, Note_off_c, 0, 58, 64
1, 36525, Note_on_c, 0, 69, 72
1, 36533, Note_on_c, 0, 57, 64
1, 36676, Note_off_c, 0, 57, 59
1, 36681, Note_on_c, 0, 58, 64
1, 36682, Note_on_c, 0, 70, 75
1, 36694, Note_off_c, 0, 69, 62
1, 36712, Note_off_c, 0, 70, 65
1, 36717, Note_off_c, 0, 58, 61
1, 36857, Note_on_c, 0, 69, 71
1, 36868, Note_on_c, 0, 57, 56
1, 37028, Note_on_c, 0, 70, 68
1, 37030, Note_off_c, 0, 57, 54
1, 37032, Note_on_c, 0, 58, 57
1, 37037, Note_off_c, 0, 69, 61
1, 37063, Note_off_c, 0, 70, 60
1, 37070, Note_off_c, 0, 58, 61
1, 37218, Note_on_c, 0, 57, 42
1, 37232, Note_on_c, 0, 69, 55
1, 37441, Note_off_c, 0, 57, 41
1, 37447, Note_on_c, 0, 70, 57
1, 37452, Note_on_c, 0, 58, 43
1, 37469, Note_off_c, 0, 69, 44
1, 37512, Note_off_c, 0, 70, 49
1, 37517, Note_off_c, 0, 58, 50
1, 37611, Control_c, 0, 64, 26
1, 37626, Control_c, 0, 64, 42
1, 37641, Control_c, 0, 64, 53
1, 37656, Control_c, 0, 64, 59
1, 37668, Note_on_c, 0, 70, 55
1, 37671, Control_c, 0, 64, 62
1, 37679, Note_on_c, 0, 58, 42
1, 37686, Control_c, 0, 64, 65
1, 37701, Control_c, 0, 64, 68
1, 37716, Control_c, 0, 64, 72
1, 37730, Control_c, 0, 64, 80
1, 37745, Control_c, 0, 64, 90
1, 37757, Note_off_c, 0, 58, 52
1, 37760, Control_c, 0, 64, 97
1, 37775, Control_c, 0, 64, 101
1, 37782, Note_off_c, 0, 70, 34
1, 37790, Control_c, 0, 64, 103
1, 37805, Control_c, 0, 64, 107
1, 37820, Control_c, 0, 64, 117
1, 37835, Control_c, 0, 64, 127
1, 38020, Note_on_c, 0, 71, 58
1, 38027, Control_c, 0, 64, 113
1, 38032, Note_on_c, 0, 63, 48
1, 38042, Control_c, 0, 64, 96
1, 38044, Note_on_c, 0, 51, 37
1, 38048, Note_on_c, 0, 59, 36
1, 38053, Note_on_c, 0, 44, 44
1, 38057, Control_c, 0, 64, 81
1, 38065, Note_on_c, 0, 53, 37
1, 38070, Note_on_c, 0, 56, 28
1, 38072, Control_c, 0, 64, 67
1, 38087, Control_c, 0, 64, 57
1, 38101, Control_c, 0, 64, 50
1, 38116, Control_c, 0, 64, 53
1, 38131, Control_c, 0, 64, 61
1, 38145, Control_c, 0, 64, 67
1, 38160, Control_c, 0, 64, 73
1, 38162, Note_off_c, 0, 59, 0
1, 38175, Control_c, 0, 64, 81
1, 38190, Control_c, 0, 64, 85
1, 38193, Note_off_c, 0, 63, 37
1, 38199, Poly_aftertouch_c, 0, 59, 127
1, 38205, Control_c, 0, 64, 89
1, 38206, Note_off_c, 0, 71, 32
1, 38219, Control_c, 0, 64, 95
1, 38234, Control_c, 0, 64, 103
1, 38249, Control_c, 0, 64, 112
1, 38264, Control_c, 0, 64, 122
1, 38279, Control_c, 0, 64, 127
1, 38329, Note_on_c, 0, 65, 48
1, 38347, Poly_aftertouch_c, 0, 59, 0
1, 38353, Note_off_c, 0, 65, 61
1, 38430, Note_on_c, 0, 65, 50
1, 38549, Note_off_c, 0, 56, 36
1, 38562, Note_off_c, 0, 44, 29
1, 38575, Note_off_c, 0, 53, 38
1, 38577, Note_off_c, 0, 51, 40
1, 38577, Note_off_c, 0, 65, 21
1, 38776, Control_c, 0, 64, 107
1, 38791, Control_c, 0, 64, 91
1, 38806, Control_c, 0, 64, 80
1, 38820, Control_c, 0, 64, 71
1, 38835, Control_c, 0, 64, 63
1, 38849, Control_c, 0, 64, 55
1, 38864, Control_c, 0, 64, 46
1, 38879, Control_c, 0, 64, 41
1, 38893, Control_c, 0, 64, 37
1, 38908, Control_c, 0, 64, 33
1, 38923, Control_c, 0, 64, 26
1, 38938, Control_c, 0, 64, 13
1, 38953, Control_c, 0, 64, 0
1, 39108, Control_c, 0, 64, 9
1, 39123, Control_c, 0, 64, 22
1, 39138, Control_c, 0, 64, 30
1, 39153, Control_c, 0, 64, 37
1, 39167, Control_c, 0, 64, 44
1, 39182, Control_c, 0, 64, 48
1, 39197, Control_c, 0, 64, 52
1, 39212, Control_c, 0, 64, 54
1, 39227, Control_c, 0, 64, 57
1, 39241, Note_on_c, 0, 71, 51
1, 39242, Control_c, 0, 64, 60
1, 39253, Note_on_c, 0, 56, 18
1, 39254, Note_on_c, 0, 53, 30
1, 39256, Note_on_c, 0, 63, 36
1, 39257, Control_c, 0, 64, 63
1, 39260, Note_on_c, 0, 59, 34
1, 39263, Note_on_c, 0, 44, 33
1, 39264, Note_on_c, 0, 51, 37
1, 39272, Control_c, 0, 64, 65
1, 39287, Control_c, 0, 64, 68
1, 39301, Control_c, 0, 64, 74
1, 39316, Control_c, 0, 64, 80
1, 39331, Control_c, 0, 64, 88
1, 39346, Control_c, 0, 64, 96
1, 39361, Control_c, 0, 64, 102
1, 39376, Control_c, 0, 64, 105
1, 39391, Control_c, 0, 64, 110
1, 39402, Note_off_c, 0, 63, 46
1, 39406, Control_c, 0, 64, 122
1, 39412, Note_off_c, 0, 71, 34
1, 39415, Note_off_c, 0, 59, 26
1, 39421, Control_c, 0, 64, 127
1, 39524, Note_on_c, 0, 65, 47
1, 39552, Note_off_c, 0, 65, 59
1, 39628, Note_on_c, 0, 65, 47
1, 39712, Note_off_c, 0, 65, 47
1, 39746, Note_off_c, 0, 56, 34
1, 39767, Note_off_c, 0, 44, 36
1, 39819, Note_off_c, 0, 53, 51
1, 39840, Note_off_c, 0, 51, 49
1, 39962, Control_c, 0, 64, 111
1, 39977, Control_c, 0, 64, 99
1, 39991, Control_c, 0, 64, 86
1, 40006, Control_c, 0, 64, 74
1, 40021, Control_c, 0, 64, 62
1, 40036, Control_c, 0, 64, 50
1, 40050, Control_c, 0, 64, 40
1, 40065, Control_c, 0, 64, 34
1, 40080, Control_c, 0, 64, 32
1, 40095, Control_c, 0, 64, 30
1, 40110, Control_c, 0, 64, 26
1, 40124, Control_c, 0, 64, 21
1, 40139, Control_c, 0, 64, 17
1, 40154, Control_c, 0, 64, 16
1, 40229, Control_c, 0, 64, 17
1, 40244, Control_c, 0, 64, 19
1, 40259, Control_c, 0, 64, 23
1, 40274, Control_c, 0, 64, 27
1, 40288, Control_c, 0, 64, 32
1, 40303, Control_c, 0, 64, 37
1, 40318, Control_c, 0, 64, 43
1, 40333, Control_c, 0, 64, 49
1, 40348, Control_c, 0, 64, 54
1, 40363, Control_c, 0, 64, 58
1, 40378, Control_c, 0, 64, 60
1, 40392, Control_c, 0, 64, 63
1, 40407, Control_c, 0, 64, 65
1, 40410, Note_on_c, 0, 59, 32
1, 40419, Note_on_c, 0, 56, 35
1, 40422, Control_c, 0, 64, 70
1, 40423, Note_on_c, 0, 65, 26
1, 40427, Note_on_c, 0, 63, 24
1, 40437, Control_c, 0, 64, 76
1, 40452, Control_c, 0, 64, 83
1, 40466, Control_c, 0, 64, 90
1, 40481, Control_c, 0, 64, 95
1, 40496, Control_c, 0, 64, 98
1, 40506, Note_off_c, 0, 63, 33
1, 40511, Control_c, 0, 64, 100
1, 40526, Control_c, 0, 64, 103
1, 40547, Control_c, 0, 64, 109
1, 40562, Control_c, 0, 64, 115
1, 40571, Note_off_c, 0, 65, 40
1, 40577, Control_c, 0, 64, 122
1, 40589, Note_off_c, 0, 56, 51
1, 40592, Control_c, 0, 64, 127
1, 40594, Note_off_c, 0, 59, 39
1, 40740, Note_on_c, 0, 56, 41
1, 40741, Note_on_c, 0, 65, 49
1, 40757, Note_on_c, 0, 59, 38
1, 40759, Note_on_c, 0, 63, 40
1, 40829, Note_off_c, 0, 63, 36
1, 40892, Note_off_c, 0, 56, 32
1, 40910, Note_off_c, 0, 59, 40
1, 40924, Note_off_c, 0, 65, 32
1, 41038, Control_c, 0, 64, 108
1, 41041, Note_on_c, 0, 66, 58
1, 41048, Note_on_c, 0, 59, 44
1, 41052, Control_c, 0, 64, 88
1, 41056, Note_on_c, 0, 63, 48
1, 41063, Note_on_c, 0, 54, 45
1, 41067, Control_c, 0, 64, 72
1, 41082, Control_c, 0, 64, 59
1, 41096, Control_c, 0, 64, 44
1, 41111, Control_c, 0, 64, 40
1, 41122, Note_off_c, 0, 63, 39
1, 41126, Control_c, 0, 64, 49
1, 41141, Control_c, 0, 64, 62
1, 41156, Control_c, 0, 64, 69
1, 41170, Control_c, 0, 64, 77
1, 41185, Control_c, 0, 64, 87
1, 41200, Control_c, 0, 64, 92
1, 41215, Control_c, 0, 64, 94
1, 41230, Control_c, 0, 64, 98
1, 41235, Note_off_c, 0, 54, 33
1, 41243, Note_off_c, 0, 59, 33
1, 41245, Control_c, 0, 64, 105
1, 41260, Control_c, 0, 64, 120
1, 41275, Control_c, 0, 64, 127
1, 41443, Note_on_c, 0, 68, 58
1, 41452, Note_on_c, 0, 63, 48
1, 41453, Note_on_c, 0, 53, 42
1, 41465, Note_on_c, 0, 59, 32
1, 41489, Control_c, 0, 64, 107
1, 41504, Control_c, 0, 64, 94
1, 41519, Control_c, 0, 64, 82
1, 41520, Note_off_c, 0, 66, 41
1, 41534, Control_c, 0, 64, 72
1, 41549, Control_c, 0, 64, 62
1, 41563, Control_c, 0, 64, 52
1, 41578, Control_c, 0, 64, 44
1, 41593, Control_c, 0, 64, 39
1, 41608, Control_c, 0, 64, 36
1, 41622, Control_c, 0, 64, 33
1, 41637, Control_c, 0, 64, 28
1, 41652, Control_c, 0, 64, 19
1, 41667, Control_c, 0, 64, 12
1, 41682, Control_c, 0, 64, 8
1, 41711, Control_c, 0, 64, 0
1, 42060, Control_c, 0, 64, 30
1, 42075, Control_c, 0, 64, 52
1, 42085, Note_on_c, 0, 62, 42
1, 42090, Control_c, 0, 64, 62
1, 42096, Note_off_c, 0, 63, 0
1, 42105, Control_c, 0, 64, 67
1, 42119, Control_c, 0, 64, 72
1, 42134, Control_c, 0, 64, 79
1, 42142, Poly_aftertouch_c, 0, 63, 0
1, 42149, Control_c, 0, 64, 87
1, 42163, Note_off_c, 0, 62, 62
1, 42164, Control_c, 0, 64, 96
1, 42166, Note_off_c, 0, 59, 54
1, 42170, Note_off_c, 0, 53, 61
1, 42179, Control_c, 0, 64, 100
1, 42193, Control_c, 0, 64, 105
1, 42199, Note_off_c, 0, 68, 42
1, 42208, Control_c, 0, 64, 109
1, 42223, Control_c, 0, 64, 112
1, 42238, Control_c, 0, 64, 113
1, 42253, Control_c, 0, 64, 114
1, 42267, Control_c, 0, 64, 117
1, 42282, Control_c, 0, 64, 127
1, 42466, Note_on_c, 0, 77, 51
1, 42475, Control_c, 0, 64, 114
1, 42482, Note_on_c, 0, 71, 37
1, 42484, Note_on_c, 0, 75, 45
1, 42490, Control_c, 0, 64, 92
1, 42494, Note_on_c, 0, 68, 43
1, 42505, Control_c, 0, 64, 75
1, 42519, Control_c, 0, 64, 62
1, 42534, Control_c, 0, 64, 48
1, 42549, Control_c, 0, 64, 40
1, 42565, Control_c, 0, 64, 50
1, 42580, Control_c, 0, 64, 61
1, 42595, Control_c, 0, 64, 68
1, 42609, Control_c, 0, 64, 77
1, 42613, Note_off_c, 0, 75, 40
1, 42624, Control_c, 0, 64, 88
1, 42639, Control_c, 0, 64, 100
1, 42640, Note_off_c, 0, 77, 32
1, 42654, Control_c, 0, 64, 111
1, 42667, Note_off_c, 0, 68, 55
1, 42668, Control_c, 0, 64, 127
1, 42716, Note_off_c, 0, 71, 35
1, 42772, Control_c, 0, 64, 120
1, 42788, Note_on_c, 0, 77, 65
1, 42795, Control_c, 0, 64, 89
1, 42810, Control_c, 0, 64, 71
1, 42812, Note_on_c, 0, 75, 54
1, 42813, Note_on_c, 0, 71, 40
1, 42816, Note_on_c, 0, 68, 52
1, 42824, Control_c, 0, 64, 57
1, 42839, Control_c, 0, 64, 42
1, 42854, Control_c, 0, 64, 39
1, 42861, Note_off_c, 0, 75, 40
1, 42868, Control_c, 0, 64, 52
1, 42883, Control_c, 0, 64, 64
1, 42898, Control_c, 0, 64, 72
1, 42913, Control_c, 0, 64, 84
1, 42928, Control_c, 0, 64, 101
1, 42942, Control_c, 0, 64, 109
1, 42957, Control_c, 0, 64, 112
1, 42972, Control_c, 0, 64, 127
1, 42977, Note_off_c, 0, 68, 35
1, 42985, Note_off_c, 0, 71, 35
1, 43079, Note_on_c, 0, 78, 66
1, 43084, Note_on_c, 0, 71, 42
1, 43089, Note_on_c, 0, 75, 60
1, 43090, Control_c, 0, 64, 96
1, 43099, Note_on_c, 0, 66, 47
1, 43105, Control_c, 0, 64, 74
1, 43120, Control_c, 0, 64, 60
1, 43135, Control_c, 0, 64, 41
1, 43150, Control_c, 0, 64, 25
1, 43154, Note_off_c, 0, 77, 34
1, 43165, Control_c, 0, 64, 24
1, 43180, Control_c, 0, 64, 39
1, 43191, Note_off_c, 0, 75, 34
1, 43194, Control_c, 0, 64, 55
1, 43209, Control_c, 0, 64, 63
1, 43224, Control_c, 0, 64, 68
1, 43239, Control_c, 0, 64, 73
1, 43254, Control_c, 0, 64, 78
1, 43268, Control_c, 0, 64, 84
1, 43279, Note_off_c, 0, 66, 35
1, 43283, Control_c, 0, 64, 91
1, 43290, Note_off_c, 0, 71, 35
1, 43298, Control_c, 0, 64, 98
1, 43313, Control_c, 0, 64, 106
1, 43328, Control_c, 0, 64, 112
1, 43342, Control_c, 0, 64, 115
1, 43358, Control_c, 0, 64, 117
1, 43373, Control_c, 0, 64, 118
1, 43388, Control_c, 0, 64, 122
1, 43403, Control_c, 0, 64, 127
1, 43448, Note_on_c, 0, 80, 59
1, 43451, Note_on_c, 0, 75, 53
1, 43458, Note_on_c, 0, 71, 29
1, 43472, Note_on_c, 0, 65, 45
1, 43477, Control_c, 0, 64, 117
1, 43491, Control_c, 0, 64, 104
1, 43506, Control_c, 0, 64, 91
1, 43521, Control_c, 0, 64, 78
1, 43543, Control_c, 0, 64, 67
1, 43550, Note_off_c, 0, 78, 32
1, 43558, Control_c, 0, 64, 58
1, 43573, Control_c, 0, 64, 47
1, 43588, Control_c, 0, 64, 37
1, 43603, Control_c, 0, 64, 31
1, 43617, Control_c, 0, 64, 27
1, 43632, Control_c, 0, 64, 24
1, 43647, Control_c, 0, 64, 19
1, 43662, Control_c, 0, 64, 13
1, 43677, Control_c, 0, 64, 8
1, 43721, Control_c, 0, 64, 0
1, 43973, Control_c, 0, 64, 18
1, 43987, Control_c, 0, 64, 42
1, 44002, Control_c, 0, 64, 54
1, 44017, Control_c, 0, 64, 61
1, 44032, Control_c, 0, 64, 63
1, 44047, Control_c, 0, 64, 65
1, 44051, Note_on_c, 0, 74, 50
1, 44056, Note_off_c, 0, 75, 0
1, 44062, Control_c, 0, 64, 68
1, 44077, Control_c, 0, 64, 72
1, 44090, Note_off_c, 0, 71, 53
1, 44091, Control_c, 0, 64, 80
1, 44106, Control_c, 0, 64, 87
1, 44107, Poly_aftertouch_c, 0, 75, 0
1, 44116, Note_off_c, 0, 80, 53
1, 44121, Control_c, 0, 64, 94
1, 44134, Note_off_c, 0, 65, 57
1, 44136, Note_off_c, 0, 74, 61
1, 44136, Control_c, 0, 64, 98
1, 44151, Control_c, 0, 64, 100
1, 44166, Control_c, 0, 64, 102
1, 44181, Control_c, 0, 64, 107
1, 44196, Control_c, 0, 64, 114
1, 44211, Control_c, 0, 64, 127
1, 44387, Note_on_c, 0, 67, 55
1, 44390, Note_on_c, 0, 58, 51
1, 44391, Note_on_c, 0, 65, 49
1, 44394, Note_on_c, 0, 61, 44
1, 44396, Control_c, 0, 64, 105
1, 44411, Control_c, 0, 64, 86
1, 44426, Control_c, 0, 64, 70
1, 44440, Control_c, 0, 64, 57
1, 44455, Control_c, 0, 64, 42
1, 44470, Control_c, 0, 64, 43
1, 44485, Control_c, 0, 64, 53
1, 44500, Control_c, 0, 64, 64
1, 44514, Control_c, 0, 64, 72
1, 44529, Control_c, 0, 64, 84
1, 44544, Control_c, 0, 64, 100
1, 44559, Control_c, 0, 64, 112
1, 44567, Note_off_c, 0, 61, 56
1, 44572, Note_off_c, 0, 58, 56
1, 44572, Note_off_c, 0, 65, 34
1, 44574, Control_c, 0, 64, 127
1, 44576, Note_off_c, 0, 67, 34
1, 44686, Note_on_c, 0, 67, 69
1, 44691, Note_on_c, 0, 65, 62
1, 44701, Note_on_c, 0, 61, 62
1, 44706, Note_on_c, 0, 58, 62
1, 44707, Control_c, 0, 64, 95
1, 44721, Control_c, 0, 64, 73
1, 44736, Control_c, 0, 64, 58
1, 44751, Control_c, 0, 64, 41
1, 44766, Control_c, 0, 64, 39
1, 44781, Control_c, 0, 64, 52
1, 44787, Note_off_c, 0, 58, 0
1, 44787, Note_on_c, 0, 58, 7
1, 44795, Control_c, 0, 64, 64
1, 44802, Note_off_c, 0, 65, 49
1, 44810, Control_c, 0, 64, 76
1, 44825, Control_c, 0, 64, 89
1, 44840, Control_c, 0, 64, 105
1, 44855, Control_c, 0, 64, 109
1, 44870, Control_c, 0, 64, 124
1, 44885, Control_c, 0, 64, 127
1, 44885, Note_off_c, 0, 61, 39
1, 44897, Note_off_c, 0, 58, 35
1, 44984, Note_on_c, 0, 65, 65
1, 44985, Note_on_c, 0, 68, 68
1, 44994, Note_on_c, 0, 61, 57
1, 45001, Note_on_c, 0, 56, 58
1, 45004, Control_c, 0, 64, 81
1, 45019, Control_c, 0, 64, 64
1, 45022, Note_off_c, 0, 67, 58
1, 45041, Control_c, 0, 64, 44
1, 45056, Control_c, 0, 64, 0
1, 45085, Control_c, 0, 64, 10
1, 45100, Control_c, 0, 64, 40
1, 45115, Control_c, 0, 64, 60
1, 45127, Note_off_c, 0, 65, 35
1, 45130, Control_c, 0, 64, 68
1, 45144, Control_c, 0, 64, 74
1, 45159, Control_c, 0, 64, 81
1, 45174, Control_c, 0, 64, 88
1, 45189, Control_c, 0, 64, 96
1, 45204, Control_c, 0, 64, 114
1, 45207, Note_off_c, 0, 56, 36
1, 45207, Note_off_c, 0, 61, 31
1, 45219, Control_c, 0, 64, 127
1, 45350, Note_on_c, 0, 70, 68
1, 45353, Note_on_c, 0, 61, 48
1, 45360, Note_on_c, 0, 65, 60
1, 45371, Note_on_c, 0, 55, 51
1, 45411, Control_c, 0, 64, 96
1, 45426, Control_c, 0, 64, 81
1, 45436, Note_off_c, 0, 68, 37
1, 45441, Control_c, 0, 64, 69
1, 45455, Control_c, 0, 64, 59
1, 45470, Control_c, 0, 64, 47
1, 45485, Control_c, 0, 64, 36
1, 45500, Control_c, 0, 64, 28
1, 45515, Control_c, 0, 64, 19
1, 45529, Control_c, 0, 64, 11
1, 45544, Control_c, 0, 64, 0
1, 45967, Note_off_c, 0, 65, 47
1, 45969, Note_on_c, 0, 64, 46
1, 46010, Control_c, 0, 64, 39
1, 46025, Control_c, 0, 64, 59
1, 46040, Control_c, 0, 64, 66
1, 46055, Note_off_c, 0, 64, 60
1, 46055, Note_off_c, 0, 70, 52
1, 46055, Control_c, 0, 64, 71
1, 46070, Control_c, 0, 64, 78
1, 46071, Note_off_c, 0, 61, 60
1, 46080, Note_off_c, 0, 55, 56
1, 46084, Control_c, 0, 64, 86
1, 46099, Control_c, 0, 64, 93
1, 46114, Control_c, 0, 64, 98
1, 46129, Control_c, 0, 64, 102
1, 46144, Control_c, 0, 64, 106
1, 46158, Control_c, 0, 64, 112
1, 46173, Control_c, 0, 64, 120
1, 46188, Control_c, 0, 64, 127
1, 46336, Control_c, 0, 64, 110
1, 46343, Note_on_c, 0, 79, 54
1, 46351, Control_c, 0, 64, 97
1, 46359, Note_on_c, 0, 70, 48
1, 46359, Note_on_c, 0, 73, 47
1, 46360, Note_on_c, 0, 77, 47
1, 46366, Control_c, 0, 64, 81
1, 46381, Control_c, 0, 64, 66
1, 46396, Control_c, 0, 64, 51
1, 46411, Control_c, 0, 64, 34
1, 46426, Control_c, 0, 64, 30
1, 46441, Control_c, 0, 64, 45
1, 46456, Control_c, 0, 64, 60
1, 46471, Control_c, 0, 64, 68
1, 46485, Control_c, 0, 64, 76
1, 46500, Control_c, 0, 64, 87
1, 46509, Note_off_c, 0, 77, 42
1, 46515, Control_c, 0, 64, 101
1, 46534, Note_off_c, 0, 73, 56
1, 46536, Control_c, 0, 64, 127
1, 46539, Note_off_c, 0, 70, 55
1, 46557, Note_off_c, 0, 79, 32
1, 46627, Control_c, 0, 64, 114
1, 46641, Control_c, 0, 64, 84
1, 46656, Control_c, 0, 64, 68
1, 46665, Note_on_c, 0, 79, 61
1, 46671, Control_c, 0, 64, 54
1, 46676, Note_on_c, 0, 73, 50
1, 46685, Note_on_c, 0, 70, 51
1, 46685, Note_on_c, 0, 77, 46
1, 46686, Control_c, 0, 64, 39
1, 46701, Control_c, 0, 64, 36
1, 46715, Control_c, 0, 64, 46
1, 46730, Control_c, 0, 64, 59
1, 46745, Control_c, 0, 64, 67
1, 46760, Control_c, 0, 64, 74
1, 46775, Control_c, 0, 64, 82
1, 46777, Note_off_c, 0, 77, 35
1, 46789, Control_c, 0, 64, 90
1, 46804, Control_c, 0, 64, 97
1, 46815, Note_off_c, 0, 73, 41
1, 46819, Control_c, 0, 64, 108
1, 46834, Control_c, 0, 64, 127
1, 46843, Note_off_c, 0, 70, 43
1, 46952, Control_c, 0, 64, 93
1, 46961, Note_on_c, 0, 80, 60
1, 46967, Note_on_c, 0, 73, 45
1, 46967, Control_c, 0, 64, 73
1, 46982, Control_c, 0, 64, 58
1, 46989, Note_on_c, 0, 77, 43
1, 46989, Note_on_c, 0, 68, 39
1, 46997, Control_c, 0, 64, 35
1, 47012, Control_c, 0, 64, 0
1, 47025, Note_off_c, 0, 79, 34
1, 47041, Control_c, 0, 64, 34
1, 47046, Note_off_c, 0, 77, 52
1, 47056, Control_c, 0, 64, 52
1, 47071, Control_c, 0, 64, 62
1, 47086, Control_c, 0, 64, 67
1, 47100, Control_c, 0, 64, 71
1, 47115, Control_c, 0, 64, 75
1, 47130, Control_c, 0, 64, 79
1, 47133, Note_off_c, 0, 73, 0
1, 47145, Control_c, 0, 64, 85
1, 47159, Control_c, 0, 64, 91
1, 47161, Note_off_c, 0, 68, 47
1, 47171, Poly_aftertouch_c, 0, 73, 0
1, 47174, Control_c, 0, 64, 97
1, 47189, Control_c, 0, 64, 99
1, 47249, Control_c, 0, 64, 100
1, 47263, Control_c, 0, 64, 100
1, 47345, Control_c, 0, 64, 100
1, 47359, Note_on_c, 0, 82, 57
1, 47360, Note_on_c, 0, 73, 29
1, 47361, Control_c, 0, 64, 98
1, 47376, Control_c, 0, 64, 94
1, 47390, Control_c, 0, 64, 90
1, 47391, Note_on_c, 0, 67, 42
1, 47393, Note_on_c, 0, 77, 41
1, 47405, Control_c, 0, 64, 84
1, 47420, Control_c, 0, 64, 77
1, 47435, Control_c, 0, 64, 69
1, 47448, Note_off_c, 0, 80, 31
1, 47450, Control_c, 0, 64, 61
1, 47464, Control_c, 0, 64, 48
1, 47479, Control_c, 0, 64, 38
1, 47494, Control_c, 0, 64, 31
1, 47509, Control_c, 0, 64, 27
1, 47524, Control_c, 0, 64, 22
1, 47538, Control_c, 0, 64, 14
1, 47553, Control_c, 0, 64, 0
1, 47790, Control_c, 0, 64, 9
1, 47805, Control_c, 0, 64, 11
1, 47820, Control_c, 0, 64, 12
1, 47835, Control_c, 0, 64, 13
1, 47850, Control_c, 0, 64, 15
1, 47864, Control_c, 0, 64, 15
1, 47909, Control_c, 0, 64, 16
1, 47923, Control_c, 0, 64, 18
1, 47938, Control_c, 0, 64, 18
1, 47953, Control_c, 0, 64, 19
1, 48002, Note_on_c, 0, 76, 45
1, 48012, Control_c, 0, 64, 19
1, 48046, Note_off_c, 0, 77, 38
1, 48095, Note_off_c, 0, 82, 53
1, 48096, Note_off_c, 0, 76, 52
1, 48098, Note_off_c, 0, 67, 41
1, 48101, Note_off_c, 0, 73, 35
1, 48138, Control_c, 0, 64, 19
1, 48317, Control_c, 0, 64, 18
1, 48318, Note_on_c, 0, 85, 51
1, 48420, Control_c, 0, 64, 18
1, 48613, Note_on_c, 0, 70, 22
1, 48625, Note_on_c, 0, 76, 43
1, 48638, Note_on_c, 0, 66, 33
1, 48744, Note_off_c, 0, 85, 53
1, 48754, Note_off_c, 0, 76, 39
1, 48763, Note_off_c, 0, 66, 48
1, 48792, Note_off_c, 0, 70, 43
1, 48813, Control_c, 0, 64, 17
1, 48843, Control_c, 0, 64, 17
1, 48873, Control_c, 0, 64, 16
1, 48887, Control_c, 0, 64, 15
1, 48902, Control_c, 0, 64, 15
1, 48931, Control_c, 0, 64, 14
1, 48946, Control_c, 0, 64, 13
1, 48962, Control_c, 0, 64, 12
1, 49066, Control_c, 0, 64, 12
1, 49125, Control_c, 0, 64, 10
1, 49140, Control_c, 0, 64, 0
1, 49214, Control_c, 0, 64, 32
1, 49226, Note_on_c, 0, 89, 92
1, 49228, Control_c, 0, 64, 59
1, 49243, Control_c, 0, 64, 73
1, 49258, Control_c, 0, 64, 94
1, 49273, Control_c, 0, 64, 127
1, 49502, Note_on_c, 0, 69, 86
1, 49508, Note_on_c, 0, 77, 93
1, 49511, Note_on_c, 0, 65, 78
1, 49529, Note_off_c, 0, 69, 70
1, 49531, Note_off_c, 0, 89, 30
1, 49541, Note_off_c, 0, 65, 71
1, 49552, Note_off_c, 0, 77, 65
1, 49592, Note_on_c, 0, 69, 28
1, 49630, Note_off_c, 0, 69, 45
1, 49795, Note_on_c, 0, 53, 94
1, 49800, Control_c, 0, 64, 95
1, 49815, Control_c, 0, 64, 72
1, 49821, Note_off_c, 0, 53, 69
1, 49830, Control_c, 0, 64, 58
1, 49845, Control_c, 0, 64, 41
1, 49859, Control_c, 0, 64, 29
1, 49874, Control_c, 0, 64, 23
1, 49889, Control_c, 0, 64, 21
1, 49963, Control_c, 0, 64, 22
1, 50037, Control_c, 0, 64, 21
1, 50051, Control_c, 0, 64, 17
1, 50066, Control_c, 0, 64, 0
1, 50085, Note_on_c, 0, 41, 90
1, 50114, Note_off_c, 0, 41, 69
1, 50408, Note_on_c, 0, 29, 84
1, 50436, Note_off_c, 0, 29, 70
1, 50896, Note_on_c, 0, 77, 52
1, 50919, Note_off_c, 0, 77, 57
1, 51095, Note_on_c, 0, 82, 64
1, 51115, Note_on_c, 0, 50, 40
1, 51144, Note_off_c, 0, 50, 56
1, 51191, Note_on_c, 0, 58, 51
1, 51207, Control_c, 0, 64, 9
1, 51222, Control_c, 0, 64, 12
1, 51230, Note_off_c, 0, 58, 63
1, 51252, Control_c, 0, 64, 10
1, 51263, Note_on_c, 0, 53, 41
1, 51306, Note_off_c, 0, 53, 63
1, 51326, Note_on_c, 0, 58, 56
1, 51369, Note_off_c, 0, 58, 62
1, 51371, Control_c, 0, 64, 8
1, 51386, Control_c, 0, 64, 0
1, 51389, Note_on_c, 0, 50, 55
1, 51428, Note_off_c, 0, 50, 63
1, 51475, Note_on_c, 0, 58, 49
1, 51505, Note_off_c, 0, 58, 59
1, 51514, Note_off_c, 0, 82, 57
1, 51532, Note_on_c, 0, 81, 65
1, 51548, Note_on_c, 0, 53, 39
1, 51584, Note_off_c, 0, 53, 59
1, 51590, Note_off_c, 0, 81, 63
1, 51592, Note_on_c, 0, 82, 64
1, 51597, Note_on_c, 0, 58, 56
1, 51648, Note_off_c, 0, 58, 55
1, 51653, Control_c, 0, 64, 8
1, 51665, Note_off_c, 0, 82, 63
1, 51667, Note_on_c, 0, 84, 63
1, 51675, Note_on_c, 0, 50, 53
1, 51682, Control_c, 0, 64, 0
1, 51710, Note_off_c, 0, 50, 63
1, 51759, Note_on_c, 0, 58, 49
1, 51803, Note_off_c, 0, 58, 60
1, 51824, Note_off_c, 0, 84, 63
1, 51826, Note_on_c, 0, 82, 67
1, 51828, Note_on_c, 0, 53, 47
1, 51851, Note_off_c, 0, 82, 68
1, 51875, Note_off_c, 0, 53, 61
1, 51902, Note_on_c, 0, 58, 49
1, 51965, Note_off_c, 0, 58, 51
1, 51984, Note_on_c, 0, 77, 64
1, 51997, Note_on_c, 0, 50, 51
1, 52035, Note_off_c, 0, 50, 63
1, 52075, Note_on_c, 0, 58, 52
1, 52115, Note_off_c, 0, 58, 63
1, 52143, Note_on_c, 0, 53, 48
1, 52185, Note_off_c, 0, 53, 64
1, 52207, Note_on_c, 0, 58, 61
1, 52255, Note_off_c, 0, 58, 56
1, 52287, Note_on_c, 0, 50, 52
1, 52326, Note_off_c, 0, 50, 63
1, 52369, Note_on_c, 0, 58, 47
1, 52409, Note_off_c, 0, 77, 59
1, 52410, Note_off_c, 0, 58, 60
1, 52427, Note_on_c, 0, 79, 60
1, 52447, Note_on_c, 0, 53, 41
1, 52487, Note_off_c, 0, 53, 58
1, 52495, Note_on_c, 0, 77, 68
1, 52505, Note_off_c, 0, 79, 57
1, 52510, Note_on_c, 0, 58, 56
1, 52563, Note_off_c, 0, 58, 60
1, 52582, Note_on_c, 0, 75, 63
1, 52587, Note_on_c, 0, 50, 54
1, 52597, Note_off_c, 0, 77, 57
1, 52623, Note_off_c, 0, 50, 63
1, 52664, Note_on_c, 0, 58, 55
1, 52706, Note_off_c, 0, 58, 62
1, 52733, Note_on_c, 0, 53, 51
1, 52738, Note_on_c, 0, 74, 60
1, 52753, Note_off_c, 0, 75, 63
1, 52756, Note_off_c, 0, 74, 64
1, 52790, Note_off_c, 0, 53, 59
1, 52819, Note_on_c, 0, 58, 53
1, 52874, Note_off_c, 0, 58, 54
1, 52904, Note_on_c, 0, 51, 49
1, 52909, Note_on_c, 0, 78, 64
1, 52948, Note_off_c, 0, 51, 63
1, 52951, Note_off_c, 0, 78, 55
1, 52977, Note_on_c, 0, 79, 59
1, 52993, Note_on_c, 0, 58, 42
1, 52997, Note_off_c, 0, 79, 64
1, 53021, Note_off_c, 0, 58, 53
1, 53039, Note_on_c, 0, 55, 50
1, 53097, Note_off_c, 0, 55, 56
1, 53109, Note_on_c, 0, 58, 48
1, 53196, Note_on_c, 0, 78, 66
1, 53201, Note_off_c, 0, 58, 56
1, 53204, Note_on_c, 0, 51, 48
1, 53247, Note_off_c, 0, 51, 62
1, 53260, Note_on_c, 0, 79, 70
1, 53261, Note_off_c, 0, 78, 59
1, 53281, Note_on_c, 0, 58, 48
1, 53293, Note_off_c, 0, 79, 67
1, 53323, Note_off_c, 0, 58, 61
1, 53346, Note_on_c, 0, 55, 41
1, 53414, Note_off_c, 0, 55, 53
1, 53416, Note_on_c, 0, 58, 58
1, 53470, Note_off_c, 0, 58, 57
1, 53485, Note_on_c, 0, 74, 73
1, 53491, Note_on_c, 0, 51, 48
1, 53529, Note_off_c, 0, 51, 64
1, 53554, Note_off_c, 0, 74, 60
1, 53556, Note_on_c, 0, 59, 63
1, 53560, Note_on_c, 0, 75, 65
1, 53588, Note_off_c, 0, 75, 67
1, 53600, Note_off_c, 0, 59, 57
1, 53642, Note_on_c, 0, 55, 54
1, 53690, Note_off_c, 0, 55, 58
1, 53711, Note_on_c, 0, 59, 40
1, 53750, Note_off_c, 0, 59, 53
1, 53781, Note_on_c, 0, 51, 58
1, 53781, Note_on_c, 0, 71, 72
1, 53813, Note_off_c, 0, 51, 65
1, 53833, Note_off_c, 0, 71, 52
1, 53853, Note_on_c, 0, 72, 63
1, 53861, Note_on_c, 0, 60, 58
1, 53880, Note_off_c, 0, 72, 67
1, 53917, Note_off_c, 0, 60, 58
1, 53931, Note_on_c, 0, 55, 57
1, 53970, Note_off_c, 0, 55, 60
1, 54021, Note_on_c, 0, 60, 56
1, 54072, Note_off_c, 0, 60, 54
1, 54090, Note_on_c, 0, 51, 58
1, 54123, Note_off_c, 0, 51, 66
1, 54168, Note_on_c, 0, 60, 55
1, 54212, Note_off_c, 0, 60, 62
1, 54218, Control_c, 0, 64, 8
1, 54227, Note_on_c, 0, 55, 55
1, 54263, Note_off_c, 0, 55, 64
1, 54305, Note_on_c, 0, 60, 48
1, 54342, Note_off_c, 0, 60, 54
1, 54351, Control_c, 0, 64, 0
1, 54362, Note_on_c, 0, 52, 62
1, 54397, Note_off_c, 0, 52, 62
1, 54434, Note_on_c, 0, 60, 54
1, 54469, Control_c, 0, 64, 8
1, 54491, Note_off_c, 0, 60, 53
1, 54508, Note_on_c, 0, 84, 63
1, 54512, Note_on_c, 0, 58, 52
1, 54561, Note_off_c, 0, 58, 58
1, 54602, Note_on_c, 0, 60, 46
1, 54656, Note_off_c, 0, 60, 56
1, 54686, Note_on_c, 0, 53, 55
1, 54687, Note_on_c, 0, 87, 68
1, 54693, Note_off_c, 0, 84, 61
1, 54730, Note_off_c, 0, 53, 62
1, 54781, Note_on_c, 0, 60, 50
1, 54789, Control_c, 0, 64, 0
1, 54836, Note_off_c, 0, 60, 58
1, 54843, Note_on_c, 0, 57, 57
1, 54877, Note_off_c, 0, 57, 67
1, 54927, Note_on_c, 0, 60, 56
1, 54974, Note_off_c, 0, 60, 60
1, 54988, Note_on_c, 0, 53, 59
1, 55020, Note_off_c, 0, 53, 64
1, 55069, Note_on_c, 0, 60, 51
1, 55117, Note_off_c, 0, 60, 61
1, 55130, Note_off_c, 0, 87, 62
1, 55136, Note_on_c, 0, 57, 55
1, 55152, Note_on_c, 0, 89, 50
1, 55171, Note_off_c, 0, 57, 65
1, 55211, Note_on_c, 0, 87, 64
1, 55216, Note_on_c, 0, 60, 58
1, 55240, Note_off_c, 0, 89, 45
1, 55260, Note_off_c, 0, 60, 62
1, 55281, Note_on_c, 0, 53, 54
1, 55297, Note_on_c, 0, 86, 61
1, 55318, Note_off_c, 0, 53, 64
1, 55372, Note_on_c, 0, 60, 52
1, 55389, Note_off_c, 0, 87, 51
1, 55410, Note_off_c, 0, 60, 59
1, 55428, Note_off_c, 0, 86, 57
1, 55429, Note_on_c, 0, 57, 51
1, 55449, Note_on_c, 0, 84, 62
1, 55473, Note_off_c, 0, 57, 61
1, 55474, Note_off_c, 0, 84, 69
1, 55502, Note_on_c, 0, 60, 62
1, 55538, Control_c, 0, 64, 8
1, 55553, Control_c, 0, 64, 10
1, 55568, Control_c, 0, 64, 11
1, 55577, Note_off_c, 0, 60, 62
1, 55585, Note_on_c, 0, 53, 48
1, 55601, Note_on_c, 0, 82, 65
1, 55624, Note_off_c, 0, 53, 65
1, 55683, Note_on_c, 0, 63, 59
1, 55701, Control_c, 0, 64, 12
1, 55732, Note_off_c, 0, 63, 54
1, 55737, Note_on_c, 0, 81, 71
1, 55759, Note_on_c, 0, 60, 48
1, 55802, Note_off_c, 0, 82, 0
1, 55813, Note_off_c, 0, 60, 58
1, 55840, Note_on_c, 0, 63, 60
1, 55840, Poly_aftertouch_c, 0, 82, 127
1, 55884, Note_off_c, 0, 63, 57
1, 55889, Note_on_c, 0, 79, 73
1, 55892, Note_on_c, 0, 53, 58
1, 55893, Control_c, 0, 64, 11
1, 55932, Note_off_c, 0, 53, 60
1, 55938, Control_c, 0, 64, 12
1, 55956, Poly_aftertouch_c, 0, 82, 0
1, 55957, Note_off_c, 0, 81, 59
1, 55973, Note_on_c, 0, 63, 53
1, 56012, Control_c, 0, 64, 12
1, 56021, Note_off_c, 0, 63, 58
1, 56036, Note_on_c, 0, 57, 52
1, 56048, Note_on_c, 0, 77, 71
1, 56050, Note_off_c, 0, 79, 62
1, 56080, Note_off_c, 0, 57, 64
1, 56109, Note_on_c, 0, 63, 49
1, 56183, Note_off_c, 0, 63, 53
1, 56194, Note_on_c, 0, 54, 56
1, 56199, Note_off_c, 0, 77, 58
1, 56202, Note_on_c, 0, 75, 69
1, 56233, Note_off_c, 0, 54, 63
1, 56285, Note_on_c, 0, 63, 41
1, 56302, Control_c, 0, 64, 12
1, 56331, Note_off_c, 0, 63, 61
1, 56343, Note_on_c, 0, 57, 53
1, 56359, Note_on_c, 0, 72, 61
1, 56363, Note_off_c, 0, 75, 57
1, 56393, Note_off_c, 0, 57, 60
1, 56425, Note_on_c, 0, 63, 55
1, 56474, Note_off_c, 0, 63, 53
1, 56504, Note_on_c, 0, 55, 55
1, 56514, Note_on_c, 0, 70, 63
1, 56549, Note_off_c, 0, 55, 60
1, 56565, Note_off_c, 0, 72, 36
1, 56610, Note_on_c, 0, 62, 40
1, 56644, Note_off_c, 0, 62, 55
1, 56659, Note_on_c, 0, 58, 51
1, 56671, Note_on_c, 0, 74, 52
1, 56698, Note_off_c, 0, 58, 65
1, 56708, Note_off_c, 0, 70, 46
1, 56731, Note_on_c, 0, 62, 58
1, 56746, Control_c, 0, 64, 12
1, 56776, Note_off_c, 0, 62, 55
1, 56790, Control_c, 0, 64, 12
1, 56808, Note_on_c, 0, 51, 58
1, 56824, Note_on_c, 0, 67, 61
1, 56850, Note_off_c, 0, 51, 62
1, 56897, Note_on_c, 0, 60, 65
1, 56969, Note_off_c, 0, 60, 61
1, 56973, Note_on_c, 0, 55, 50
1, 56975, Note_on_c, 0, 75, 61
1, 56984, Note_off_c, 0, 74, 43
1, 56984, Control_c, 0, 64, 12
1, 57028, Note_off_c, 0, 55, 60
1, 57038, Note_off_c, 0, 67, 48
1, 57076, Note_on_c, 0, 60, 61
1, 57092, Note_off_c, 0, 75, 54
1, 57110, Control_c, 0, 64, 12
1, 57115, Note_off_c, 0, 60, 60
1, 57119, Note_on_c, 0, 69, 65
1, 57143, Note_on_c, 0, 53, 46
1, 57169, Control_c, 0, 64, 11
1, 57209, Note_on_c, 0, 60, 60
1, 57218, Note_off_c, 0, 53, 51
1, 57267, Note_off_c, 0, 60, 62
1, 57277, Note_on_c, 0, 72, 60
1, 57283, Note_on_c, 0, 57, 49
1, 57287, Note_off_c, 0, 69, 56
1, 57310, Note_off_c, 0, 57, 58
1, 57354, Note_on_c, 0, 63, 64
1, 57382, Note_off_c, 0, 63, 64
1, 57421, Control_c, 0, 64, 12
1, 57451, Control_c, 0, 64, 12
1, 57466, Note_on_c, 0, 70, 64
1, 57470, Note_off_c, 0, 72, 57
1, 57479, Note_on_c, 0, 58, 63
1, 57487, Note_on_c, 0, 46, 55
1, 57519, Note_off_c, 0, 70, 55
1, 57562, Note_on_c, 0, 62, 57
1, 57580, Note_off_c, 0, 46, 0
1, 57580, Note_on_c, 0, 46, 2
1, 57583, Control_c, 0, 64, 12
1, 57603, Note_off_c, 0, 62, 59
1, 57639, Note_on_c, 0, 65, 66
1, 57687, Control_c, 0, 64, 13
1, 57695, Note_off_c, 0, 65, 60
1, 57697, Note_on_c, 0, 63, 61
1, 57742, Note_off_c, 0, 63, 61
1, 57766, Note_off_c, 0, 58, 56
1, 57767, Note_on_c, 0, 62, 67
1, 57785, Control_c, 0, 64, 13
1, 57786, Note_off_c, 0, 46, 57
1, 57814, Control_c, 0, 64, 13
1, 57818, Note_off_c, 0, 62, 59
1, 57822, Note_on_c, 0, 63, 60
1, 57874, Note_on_c, 0, 65, 57
1, 57886, Note_off_c, 0, 63, 62
1, 57902, Note_off_c, 0, 65, 67
1, 57903, Control_c, 0, 64, 12
1, 57941, Note_on_c, 0, 67, 67
1, 57974, Note_off_c, 0, 67, 60
1, 57977, Control_c, 0, 64, 12
1, 57992, Control_c, 0, 64, 11
1, 58003, Note_on_c, 0, 69, 68
1, 58044, Note_off_c, 0, 69, 61
1, 58065, Note_on_c, 0, 70, 58
1, 58130, Note_off_c, 0, 70, 61
1, 58140, Control_c, 0, 64, 12
1, 58144, Note_on_c, 0, 69, 59
1, 58180, Note_off_c, 0, 69, 62
1, 58206, Note_on_c, 0, 72, 58
1, 58276, Note_on_c, 0, 70, 57
1, 58308, Note_off_c, 0, 72, 46
1, 58332, Control_c, 0, 64, 12
1, 58338, Note_off_c, 0, 70, 61
1, 58350, Note_on_c, 0, 74, 59
1, 58410, Note_off_c, 0, 74, 49
1, 58411, Note_on_c, 0, 72, 61
1, 58475, Note_on_c, 0, 70, 59
1, 58508, Note_off_c, 0, 72, 58
1, 58538, Note_on_c, 0, 69, 57
1, 58567, Note_off_c, 0, 70, 46
1, 58584, Note_off_c, 0, 69, 61
1, 58609, Note_on_c, 0, 67, 65
1, 58643, Note_off_c, 0, 67, 64
1, 58687, Note_on_c, 0, 65, 62
1, 58752, Note_on_c, 0, 67, 62
1, 58775, Note_off_c, 0, 65, 47
1, 58804, Note_off_c, 0, 67, 56
1, 58814, Note_on_c, 0, 63, 52
1, 58850, Note_off_c, 0, 63, 64
1, 58875, Note_on_c, 0, 62, 60
1, 58923, Note_off_c, 0, 62, 58
1, 58939, Note_on_c, 0, 65, 54
1, 59000, Note_off_c, 0, 65, 58
1, 59002, Note_on_c, 0, 63, 53
1, 59007, Control_c, 0, 64, 13
1, 59041, Note_off_c, 0, 63, 62
1, 59052, Note_on_c, 0, 62, 62
1, 59066, Control_c, 0, 64, 13
1, 59107, Note_off_c, 0, 62, 58
1, 59130, Note_on_c, 0, 63, 54
1, 59140, Control_c, 0, 64, 13
1, 59162, Note_on_c, 0, 65, 57
1, 59170, Control_c, 0, 64, 12
1, 59174, Note_off_c, 0, 63, 64
1, 59184, Control_c, 0, 64, 11
1, 59194, Note_off_c, 0, 65, 66
1, 59199, Control_c, 0, 64, 8
1, 59214, Control_c, 0, 64, 0
1, 59250, Note_on_c, 0, 67, 66
1, 59296, Note_off_c, 0, 67, 61
1, 59318, Note_on_c, 0, 69, 60
1, 59359, Note_off_c, 0, 69, 64
1, 59365, Note_on_c, 0, 70, 68
1, 59434, Note_off_c, 0, 70, 61
1, 59439, Note_on_c, 0, 69, 54
1, 59472, Note_off_c, 0, 69, 64
1, 59492, Note_on_c, 0, 67, 60
1, 59536, Note_off_c, 0, 67, 63
1, 59549, Note_on_c, 0, 65, 63
1, 59588, Note_off_c, 0, 65, 66
1, 59613, Note_on_c, 0, 67, 61
1, 59649, Note_off_c, 0, 67, 62
1, 59667, Note_on_c, 0, 69, 63
1, 59718, Note_on_c, 0, 70, 69
1, 59736, Note_off_c, 0, 69, 61
1, 59774, Note_off_c, 0, 70, 63
1, 59779, Note_on_c, 0, 72, 71
1, 59843, Note_off_c, 0, 72, 60
1, 59846, Note_on_c, 0, 74, 65
1, 59892, Note_on_c, 0, 72, 50
1, 59920, Note_off_c, 0, 74, 60
1, 59934, Control_c, 0, 64, 10
1, 59949, Control_c, 0, 64, 11
1, 59958, Note_on_c, 0, 70, 71
1, 59974, Note_off_c, 0, 72, 61
1, 59979, Control_c, 0, 64, 12
1, 59994, Control_c, 0, 64, 15
1, 60000, Note_off_c, 0, 70, 59
1, 60001, Note_on_c, 0, 69, 68
1, 60016, Control_c, 0, 64, 16
1, 60046, Control_c, 0, 64, 17
1, 60060, Control_c, 0, 64, 18
1, 60066, Note_on_c, 0, 70, 68
1, 60068, Note_off_c, 0, 69, 64
1, 60075, Control_c, 0, 64, 20
1, 60090, Control_c, 0, 64, 21
1, 60093, Note_off_c, 0, 70, 68
1, 60133, Note_on_c, 0, 72, 69
1, 60175, Note_off_c, 0, 72, 61
1, 60180, Control_c, 0, 64, 21
1, 60187, Note_on_c, 0, 74, 75
1, 60195, Control_c, 0, 64, 20
1, 60210, Control_c, 0, 64, 20
1, 60237, Note_on_c, 0, 75, 64
1, 60269, Note_off_c, 0, 74, 47
1, 60311, Note_on_c, 0, 79, 73
1, 60313, Control_c, 0, 64, 20
1, 60315, Note_off_c, 0, 75, 63
1, 60387, Control_c, 0, 64, 20
1, 60400, Note_on_c, 0, 77, 68
1, 60412, Note_off_c, 0, 79, 58
1, 60467, Note_on_c, 0, 75, 67
1, 60499, Note_off_c, 0, 77, 59
1, 60536, Note_on_c, 0, 74, 69
1, 60546, Note_off_c, 0, 75, 59
1, 60615, Note_off_c, 0, 74, 60
1, 60621, Note_on_c, 0, 77, 69
1, 60652, Control_c, 0, 64, 19
1, 60717, Note_on_c, 0, 75, 64
1, 60735, Note_off_c, 0, 77, 53
1, 60778, Control_c, 0, 64, 20
1, 60788, Note_off_c, 0, 75, 63
1, 60803, Note_on_c, 0, 74, 58
1, 60859, Note_off_c, 0, 74, 55
1, 60862, Note_on_c, 0, 75, 60
1, 60882, Control_c, 0, 64, 20
1, 60891, Note_off_c, 0, 75, 67
1, 60936, Note_on_c, 0, 77, 66
1, 60970, Note_off_c, 0, 77, 61
1, 61001, Control_c, 0, 64, 20
1, 61008, Note_on_c, 0, 79, 73
1, 61050, Note_off_c, 0, 79, 60
1, 61061, Note_on_c, 0, 81, 69
1, 61092, Note_off_c, 0, 81, 61
1, 61164, Control_c, 0, 64, 19
1, 61170, Note_on_c, 0, 82, 70
1, 61177, Note_on_c, 0, 50, 47
1, 61217, Note_off_c, 0, 50, 59
1, 61259, Note_on_c, 0, 58, 51
1, 61301, Note_off_c, 0, 58, 63
1, 61331, Note_on_c, 0, 53, 44
1, 61342, Control_c, 0, 64, 20
1, 61375, Note_off_c, 0, 53, 63
1, 61386, Control_c, 0, 64, 19
1, 61403, Note_on_c, 0, 58, 54
1, 61446, Note_off_c, 0, 58, 61
1, 61470, Note_on_c, 0, 50, 49
1, 61475, Control_c, 0, 64, 19
1, 61491, Note_off_c, 0, 82, 55
1, 61513, Note_off_c, 0, 50, 62
1, 61548, Note_on_c, 0, 58, 57
1, 61557, Control_c, 0, 64, 18
1, 61589, Note_off_c, 0, 58, 61
1, 61626, Note_on_c, 0, 53, 47
1, 61630, Note_on_c, 0, 81, 67
1, 61658, Note_off_c, 0, 81, 64
1, 61671, Note_off_c, 0, 53, 62
1, 61693, Note_on_c, 0, 58, 56
1, 61705, Control_c, 0, 64, 19
1, 61706, Note_on_c, 0, 82, 60
1, 61730, Note_off_c, 0, 82, 65
1, 61737, Note_off_c, 0, 58, 59
1, 61774, Note_on_c, 0, 50, 52
1, 61775, Note_on_c, 0, 81, 69
1, 61809, Control_c, 0, 64, 19
1, 61811, Note_off_c, 0, 81, 56
1, 61812, Note_off_c, 0, 50, 62
1, 61841, Note_on_c, 0, 58, 54
1, 61845, Note_on_c, 0, 82, 65
1, 61854, Control_c, 0, 64, 20
1, 61870, Note_off_c, 0, 82, 68
1, 61888, Note_off_c, 0, 58, 58
1, 61915, Note_on_c, 0, 53, 46
1, 61935, Note_on_c, 0, 84, 68
1, 61966, Note_off_c, 0, 53, 59
1, 61998, Note_on_c, 0, 58, 60
1, 62001, Control_c, 0, 64, 20
1, 62010, Note_on_c, 0, 82, 70
1, 62013, Note_off_c, 0, 84, 57
1, 62033, Note_off_c, 0, 82, 70
1, 62070, Note_off_c, 0, 58, 47
1, 62076, Control_c, 0, 64, 21
1, 62102, Note_on_c, 0, 50, 58
1, 62109, Note_on_c, 0, 77, 74
1, 62135, Control_c, 0, 64, 20
1, 62147, Note_off_c, 0, 50, 61
1, 62200, Note_on_c, 0, 58, 44
1, 62234, Note_off_c, 0, 58, 56
1, 62265, Note_on_c, 0, 53, 50
1, 62311, Note_off_c, 0, 53, 63
1, 62335, Note_on_c, 0, 58, 55
1, 62350, Control_c, 0, 64, 21
1, 62380, Control_c, 0, 64, 20
1, 62394, Note_off_c, 0, 58, 53
1, 62414, Note_on_c, 0, 50, 56
1, 62443, Note_off_c, 0, 77, 56
1, 62449, Note_off_c, 0, 50, 63
1, 62468, Control_c, 0, 64, 20
1, 62492, Note_on_c, 0, 58, 54
1, 62543, Note_off_c, 0, 58, 57
1, 62558, Note_on_c, 0, 53, 51
1, 62558, Control_c, 0, 64, 20
1, 62576, Note_on_c, 0, 76, 57
1, 62603, Control_c, 0, 64, 21
1, 62609, Note_off_c, 0, 76, 64
1, 62618, Control_c, 0, 64, 22
1, 62626, Note_off_c, 0, 53, 56
1, 62632, Control_c, 0, 64, 23
1, 62642, Note_on_c, 0, 77, 53
1, 62651, Note_on_c, 0, 58, 56
1, 62666, Note_off_c, 0, 77, 59
1, 62698, Note_off_c, 0, 58, 60
1, 62719, Note_on_c, 0, 50, 60
1, 62719, Note_on_c, 0, 79, 76
1, 62747, Note_off_c, 0, 79, 60
1, 62761, Note_off_c, 0, 50, 59
1, 62785, Note_on_c, 0, 77, 60
1, 62808, Note_on_c, 0, 58, 53
1, 62815, Note_off_c, 0, 77, 65
1, 62851, Note_off_c, 0, 58, 60
1, 62855, Control_c, 0, 64, 24
1, 62870, Control_c, 0, 64, 24
1, 62871, Note_on_c, 0, 53, 55
1, 62874, Note_on_c, 0, 75, 76
1, 62934, Note_off_c, 0, 75, 62
1, 62939, Note_off_c, 0, 53, 57
1, 62940, Note_on_c, 0, 74, 65
1, 62964, Note_off_c, 0, 74, 68
1, 62967, Note_on_c, 0, 58, 50
1, 63043, Note_off_c, 0, 58, 52
1, 63062, Note_on_c, 0, 78, 77
1, 63065, Note_on_c, 0, 51, 52
1, 63099, Control_c, 0, 64, 24
1, 63101, Note_off_c, 0, 78, 53
1, 63114, Note_off_c, 0, 51, 60
1, 63129, Control_c, 0, 64, 23
1, 63140, Note_on_c, 0, 79, 68
1, 63155, Note_on_c, 0, 58, 39
1, 63180, Note_off_c, 0, 79, 56
1, 63195, Note_off_c, 0, 58, 51
1, 63214, Note_on_c, 0, 78, 75
1, 63224, Note_on_c, 0, 55, 40
1, 63232, Control_c, 0, 64, 24
1, 63268, Note_off_c, 0, 78, 56
1, 63283, Note_on_c, 0, 79, 73
1, 63289, Note_off_c, 0, 55, 57
1, 63291, Note_on_c, 0, 58, 56
1, 63307, Control_c, 0, 64, 24
1, 63332, Note_off_c, 0, 79, 52
1, 63352, Control_c, 0, 64, 24
1, 63359, Note_off_c, 0, 58, 55
1, 63367, Control_c, 0, 64, 24
1, 63368, Note_on_c, 0, 78, 79
1, 63380, Note_on_c, 0, 51, 50
1, 63424, Note_off_c, 0, 78, 58
1, 63431, Note_off_c, 0, 51, 61
1, 63444, Note_on_c, 0, 79, 66
1, 63456, Note_on_c, 0, 58, 40
1, 63497, Note_off_c, 0, 58, 53
1, 63497, Note_off_c, 0, 79, 48
1, 63508, Note_on_c, 0, 78, 66
1, 63512, Note_on_c, 0, 55, 50
1, 63529, Control_c, 0, 64, 25
1, 63576, Note_on_c, 0, 79, 59
1, 63576, Note_off_c, 0, 78, 59
1, 63593, Note_on_c, 0, 58, 58
1, 63616, Note_off_c, 0, 79, 63
1, 63628, Note_off_c, 0, 55, 32
1, 63641, Note_off_c, 0, 58, 54
1, 63664, Note_on_c, 0, 51, 52
1, 63677, Control_c, 0, 64, 24
1, 63685, Note_on_c, 0, 74, 72
1, 63705, Note_off_c, 0, 51, 62
1, 63716, Note_off_c, 0, 74, 57
1, 63744, Note_on_c, 0, 59, 52
1, 63748, Note_on_c, 0, 75, 72
1, 63759, Control_c, 0, 64, 24
1, 63808, Note_off_c, 0, 59, 54
1, 63822, Note_off_c, 0, 75, 58
1, 63827, Note_on_c, 0, 55, 47
1, 63834, Note_on_c, 0, 74, 67
1, 63877, Control_c, 0, 64, 24
1, 63897, Note_off_c, 0, 74, 63
1, 63902, Note_on_c, 0, 75, 62
1, 63903, Note_off_c, 0, 55, 47
1, 63906, Control_c, 0, 64, 24
1, 63917, Note_on_c, 0, 59, 38
1, 63930, Note_off_c, 0, 75, 67
1, 63968, Note_off_c, 0, 59, 56
1, 63989, Note_on_c, 0, 71, 73
1, 63990, Note_on_c, 0, 51, 55
1, 64010, Control_c, 0, 64, 23
1, 64025, Note_off_c, 0, 51, 63
1, 64040, Note_off_c, 0, 71, 48
1, 64054, Note_on_c, 0, 72, 70
1, 64070, Note_on_c, 0, 60, 56
1, 64099, Control_c, 0, 64, 23
1, 64106, Note_off_c, 0, 72, 55
1, 64114, Control_c, 0, 64, 24
1, 64129, Control_c, 0, 64, 24
1, 64141, Note_off_c, 0, 60, 53
1, 64144, Note_on_c, 0, 71, 71
1, 64155, Note_on_c, 0, 55, 48
1, 64180, Note_off_c, 0, 71, 56
1, 64204, Control_c, 0, 64, 25
1, 64210, Note_off_c, 0, 55, 56
1, 64217, Note_on_c, 0, 72, 62
1, 64219, Control_c, 0, 64, 24
1, 64230, Note_on_c, 0, 60, 48
1, 64234, Control_c, 0, 64, 24
1, 64237, Note_off_c, 0, 72, 65
1, 64294, Note_off_c, 0, 60, 55
1, 64302, Note_on_c, 0, 51, 62
1, 64337, Note_off_c, 0, 51, 64
1, 64337, Control_c, 0, 64, 23
1, 64352, Control_c, 0, 64, 24
1, 64367, Control_c, 0, 64, 24
1, 64379, Note_on_c, 0, 60, 58
1, 64397, Control_c, 0, 64, 24
1, 64435, Note_off_c, 0, 60, 53
1, 64448, Note_on_c, 0, 55, 62
1, 64455, Control_c, 0, 64, 24
1, 64485, Note_off_c, 0, 55, 62
1, 64485, Control_c, 0, 64, 24
1, 64508, Control_c, 0, 64, 23
1, 64531, Note_on_c, 0, 60, 51
1, 64567, Control_c, 0, 64, 23
1, 64581, Note_off_c, 0, 60, 59
1, 64582, Control_c, 0, 64, 22
1, 64597, Control_c, 0, 64, 21
1, 64600, Note_on_c, 0, 52, 57
1, 64611, Control_c, 0, 64, 22
1, 64636, Note_off_c, 0, 52, 64
1, 64655, Control_c, 0, 64, 21
1, 64670, Control_c, 0, 64, 21
1, 64681, Note_on_c, 0, 60, 49
1, 64726, Note_off_c, 0, 60, 61
1, 64752, Note_on_c, 0, 84, 59
1, 64755, Note_on_c, 0, 58, 49
1, 64774, Control_c, 0, 64, 21
1, 64804, Note_off_c, 0, 58, 57
1, 64833, Note_on_c, 0, 60, 53
1, 64833, Control_c, 0, 64, 22
1, 64848, Control_c, 0, 64, 22
1, 64925, Note_off_c, 0, 60, 47
1, 64936, Note_on_c, 0, 53, 50
1, 64939, Note_on_c, 0, 87, 69
1, 64943, Note_off_c, 0, 84, 59
1, 64952, Control_c, 0, 64, 22
1, 64967, Control_c, 0, 64, 21
1, 64976, Note_off_c, 0, 53, 63
1, 64997, Control_c, 0, 64, 22
1, 65009, Note_on_c, 0, 60, 46
1, 65056, Control_c, 0, 64, 22
1, 65068, Note_off_c, 0, 60, 58
1, 65071, Control_c, 0, 64, 23
1, 65088, Note_on_c, 0, 57, 50
1, 65101, Control_c, 0, 64, 22
1, 65128, Note_off_c, 0, 57, 65
1, 65172, Note_on_c, 0, 60, 54
1, 65175, Control_c, 0, 64, 22
1, 65213, Note_off_c, 0, 60, 61
1, 65231, Note_on_c, 0, 53, 59
1, 65256, Control_c, 0, 64, 21
1, 65271, Control_c, 0, 64, 22
1, 65277, Note_off_c, 0, 53, 63
1, 65314, Note_on_c, 0, 60, 55
1, 65360, Note_off_c, 0, 60, 59
1, 65381, Note_off_c, 0, 87, 53
1, 65389, Note_on_c, 0, 57, 54
1, 65404, Note_on_c, 0, 86, 60
1, 65428, Note_off_c, 0, 57, 64
1, 65459, Note_off_c, 0, 86, 53
1, 65476, Note_on_c, 0, 60, 52
1, 65478, Control_c, 0, 64, 22
1, 65482, Note_on_c, 0, 87, 69
1, 65524, Note_off_c, 0, 60, 60
1, 65539, Note_on_c, 0, 53, 54
1, 65548, Note_off_c, 0, 87, 64
1, 65558, Note_on_c, 0, 89, 64
1, 65574, Note_off_c, 0, 53, 63
1, 65623, Note_on_c, 0, 87, 66
1, 65634, Note_on_c, 0, 60, 55
1, 65644, Note_off_c, 0, 89, 54
1, 65665, Note_off_c, 0, 60, 57
1, 65693, Note_on_c, 0, 57, 44
1, 65700, Note_on_c, 0, 86, 65
1, 65719, Note_off_c, 0, 87, 59
1, 65745, Note_off_c, 0, 57, 61
1, 65753, Note_off_c, 0, 86, 62
1, 65756, Note_on_c, 0, 60, 55
1, 65761, Note_on_c, 0, 84, 67
1, 65811, Note_off_c, 0, 84, 63
1, 65837, Note_on_c, 0, 53, 50
1, 65839, Note_off_c, 0, 60, 64
1, 65846, Note_on_c, 0, 82, 70
1, 65849, Control_c, 0, 64, 23
1, 65880, Note_off_c, 0, 53, 63
1, 65912, Note_on_c, 0, 81, 71
1, 65940, Note_on_c, 0, 63, 57
1, 65965, Note_off_c, 0, 82, 53
1, 65969, Control_c, 0, 64, 23
1, 65983, Control_c, 0, 64, 24
1, 65989, Note_on_c, 0, 86, 70
1, 65989, Note_off_c, 0, 81, 62
1, 66010, Note_off_c, 0, 63, 59
1, 66029, Note_on_c, 0, 60, 42
1, 66034, Control_c, 0, 64, 24
1, 66049, Control_c, 0, 64, 26
1, 66064, Control_c, 0, 64, 26
1, 66073, Note_on_c, 0, 84, 72
1, 66088, Note_off_c, 0, 60, 61
1, 66098, Note_off_c, 0, 86, 59
1, 66106, Note_on_c, 0, 63, 43
1, 66137, Note_off_c, 0, 63, 58
1, 66142, Note_on_c, 0, 53, 55
1, 66151, Note_on_c, 0, 82, 73
1, 66183, Control_c, 0, 64, 26
1, 66184, Note_off_c, 0, 84, 59
1, 66186, Note_off_c, 0, 53, 61
1, 66214, Note_on_c, 0, 81, 75
1, 66218, Note_on_c, 0, 63, 63
1, 66227, Control_c, 0, 64, 26
1, 66249, Note_off_c, 0, 82, 63
1, 66266, Note_off_c, 0, 63, 56
1, 66285, Note_off_c, 0, 81, 61
1, 66288, Note_on_c, 0, 79, 76
1, 66294, Note_on_c, 0, 57, 51
1, 66324, Note_off_c, 0, 79, 60
1, 66335, Note_off_c, 0, 57, 64
1, 66356, Note_on_c, 0, 77, 73
1, 66366, Note_on_c, 0, 63, 51
1, 66427, Note_on_c, 0, 75, 65
1, 66428, Note_off_c, 0, 63, 56
1, 66431, Note_on_c, 0, 54, 58
1, 66457, Note_off_c, 0, 77, 56
1, 66472, Note_off_c, 0, 54, 65
1, 66496, Note_off_c, 0, 75, 62
1, 66497, Note_on_c, 0, 74, 67
1, 66524, Note_on_c, 0, 63, 47
1, 66565, Note_off_c, 0, 63, 60
1, 66575, Note_on_c, 0, 75, 69
1, 66579, Note_on_c, 0, 57, 49
1, 66579, Note_off_c, 0, 74, 61
1, 66627, Note_off_c, 0, 57, 62
1, 66643, Control_c, 0, 64, 27
1, 66648, Note_on_c, 0, 72, 63
1, 66659, Note_on_c, 0, 63, 56
1, 66659, Note_off_c, 0, 75, 59
1, 66703, Control_c, 0, 64, 27
1, 66706, Note_off_c, 0, 63, 56
1, 66717, Control_c, 0, 64, 28
1, 66726, Note_on_c, 0, 55, 57
1, 66777, Note_off_c, 0, 55, 60
1, 66822, Note_on_c, 0, 70, 66
1, 66829, Note_off_c, 0, 72, 56
1, 66829, Control_c, 0, 64, 27
1, 66842, Note_on_c, 0, 62, 43
1, 66858, Control_c, 0, 64, 28
1, 66875, Note_off_c, 0, 62, 58
1, 66887, Note_on_c, 0, 58, 54
1, 66899, Note_on_c, 0, 74, 65
1, 66903, Control_c, 0, 64, 27
1, 66911, Note_off_c, 0, 70, 58
1, 66926, Note_off_c, 0, 58, 63
1, 66932, Control_c, 0, 64, 28
1, 66962, Note_on_c, 0, 62, 60
1, 67004, Note_off_c, 0, 62, 55
1, 67045, Note_on_c, 0, 51, 59
1, 67090, Note_off_c, 0, 51, 62
1, 67131, Note_on_c, 0, 67, 59
1, 67135, Note_on_c, 0, 60, 60
1, 67140, Control_c, 0, 64, 27
1, 67155, Control_c, 0, 64, 27
1, 67203, Note_off_c, 0, 60, 57
1, 67209, Note_off_c, 0, 74, 52
1, 67214, Control_c, 0, 64, 26
1, 67216, Note_on_c, 0, 55, 51
1, 67216, Note_on_c, 0, 75, 62
1, 67229, Control_c, 0, 64, 26
1, 67258, Control_c, 0, 64, 26
1, 67266, Note_off_c, 0, 67, 35
1, 67271, Note_off_c, 0, 55, 61
1, 67288, Control_c, 0, 64, 26
1, 67310, Note_on_c, 0, 60, 53
1, 67346, Note_off_c, 0, 60, 60
1, 67363, Control_c, 0, 64, 25
1, 67373, Note_on_c, 0, 53, 58
1, 67389, Note_off_c, 0, 75, 59
1, 67413, Note_on_c, 0, 69, 53
1, 67437, Control_c, 0, 64, 25
1, 67445, Note_on_c, 0, 60, 60
1, 67452, Control_c, 0, 64, 24
1, 67501, Note_off_c, 0, 53, 35
1, 67510, Note_off_c, 0, 60, 63
1, 67513, Note_on_c, 0, 72, 60
1, 67518, Note_on_c, 0, 57, 56
1, 67542, Note_off_c, 0, 69, 52
1, 67565, Note_off_c, 0, 57, 62
1, 67578, Control_c, 0, 64, 25
1, 67614, Note_on_c, 0, 63, 54
1, 67637, Control_c, 0, 64, 24
1, 67638, Note_off_c, 0, 63, 59
1, 67667, Control_c, 0, 64, 25
1, 67696, Note_on_c, 0, 70, 62
1, 67704, Note_off_c, 0, 72, 61
1, 67708, Note_on_c, 0, 46, 65
1, 67711, Control_c, 0, 64, 25
1, 67726, Control_c, 0, 64, 25
1, 67727, Note_off_c, 0, 70, 65
1, 67778, Note_off_c, 0, 46, 61
1, 67787, Note_on_c, 0, 50, 67
1, 67867, Note_on_c, 0, 51, 69
1, 67871, Note_off_c, 0, 50, 60
1, 67873, Control_c, 0, 64, 24
1, 67927, Note_on_c, 0, 53, 77
1, 67936, Note_off_c, 0, 51, 63
1, 67948, Control_c, 0, 64, 25
1, 67954, Note_off_c, 0, 53, 70
1, 67963, Control_c, 0, 64, 24
1, 68007, Control_c, 0, 64, 25
1, 68019, Note_on_c, 0, 55, 67
1, 68021, Control_c, 0, 64, 25
1, 68036, Control_c, 0, 64, 26
1, 68066, Control_c, 0, 64, 25
1, 68089, Note_on_c, 0, 57, 66
1, 68091, Note_off_c, 0, 55, 61
1, 68141, Control_c, 0, 64, 24
1, 68155, Note_on_c, 0, 58, 69
1, 68156, Control_c, 0, 64, 24
1, 68162, Note_off_c, 0, 57, 64
1, 68206, Note_off_c, 0, 58, 64
1, 68226, Note_on_c, 0, 60, 71
1, 68299, Note_off_c, 0, 60, 52
1, 68311, Note_on_c, 0, 62, 78
1, 68356, Control_c, 0, 64, 23
1, 68382, Note_on_c, 0, 63, 74
1, 68385, Control_c, 0, 64, 24
1, 68398, Note_off_c, 0, 62, 61
1, 68453, Note_on_c, 0, 65, 68
1, 68462, Note_off_c, 0, 63, 65
1, 68474, Control_c, 0, 64, 24
1, 68521, Note_on_c, 0, 67, 74
1, 68533, Control_c, 0, 64, 25
1, 68541, Note_off_c, 0, 65, 65
1, 68547, Control_c, 0, 64, 26
1, 68562, Control_c, 0, 64, 27
1, 68605, Note_on_c, 0, 65, 77
1, 68631, Note_off_c, 0, 67, 60
1, 68637, Control_c, 0, 64, 27
1, 68666, Control_c, 0, 64, 27
1, 68681, Control_c, 0, 64, 27
1, 68763, Note_on_c, 0, 45, 57
1, 68766, Note_on_c, 0, 53, 57
1, 68770, Control_c, 0, 64, 28
1, 68771, Note_on_c, 0, 48, 55
1, 68795, Note_off_c, 0, 53, 63
1, 68799, Note_off_c, 0, 45, 66
1, 68803, Note_off_c, 0, 48, 62
1, 68814, Control_c, 0, 64, 27
1, 68844, Control_c, 0, 64, 28
1, 68889, Control_c, 0, 64, 27
1, 68924, Note_on_c, 0, 53, 58
1, 68929, Note_on_c, 0, 45, 52
1, 68937, Note_on_c, 0, 48, 47
1, 68957, Note_off_c, 0, 53, 64
1, 68966, Note_off_c, 0, 48, 60
1, 68973, Note_off_c, 0, 45, 64
1, 69060, Control_c, 0, 64, 28
1, 69090, Note_on_c, 0, 48, 56
1, 69090, Note_on_c, 0, 45, 57
1, 69093, Note_on_c, 0, 53, 61
1, 69128, Note_off_c, 0, 53, 63
1, 69129, Note_off_c, 0, 45, 62
1, 69133, Note_off_c, 0, 48, 64
1, 69193, Note_off_c, 0, 65, 50
1, 69223, Control_c, 0, 64, 28
1, 69238, Control_c, 0, 64, 29
1, 69242, Note_on_c, 0, 53, 58
1, 69245, Note_on_c, 0, 48, 65
1, 69251, Note_on_c, 0, 45, 41
1, 69252, Control_c, 0, 64, 30
1, 69260, Note_on_c, 0, 63, 63
1, 69281, Note_off_c, 0, 45, 55
1, 69283, Note_off_c, 0, 53, 61
1, 69285, Note_off_c, 0, 48, 64
1, 69289, Note_off_c, 0, 63, 66
1, 69309, Note_on_c, 0, 65, 60
1, 69358, Note_on_c, 0, 63, 72
1, 69367, Note_off_c, 0, 65, 65
1, 69370, Control_c, 0, 64, 31
1, 69374, Note_on_c, 0, 45, 56
1, 69379, Note_on_c, 0, 53, 59
1, 69382, Note_on_c, 0, 48, 58
1, 69385, Control_c, 0, 64, 31
1, 69410, Note_off_c, 0, 63, 62
1, 69418, Note_off_c, 0, 45, 63
1, 69419, Note_on_c, 0, 62, 67
1, 69419, Note_off_c, 0, 48, 62
1, 69426, Note_off_c, 0, 53, 61
1, 69430, Control_c, 0, 64, 32
1, 69444, Control_c, 0, 64, 33
1, 69480, Note_off_c, 0, 62, 57
1, 69481, Note_on_c, 0, 63, 64
1, 69504, Control_c, 0, 64, 33
1, 69519, Control_c, 0, 64, 34
1, 69534, Control_c, 0, 64, 33
1, 69540, Note_off_c, 0, 63, 62
1, 69544, Note_on_c, 0, 62, 70
1, 69549, Control_c, 0, 64, 33
1, 69561, Note_on_c, 0, 58, 66
1, 69568, Note_off_c, 0, 62, 68
1, 69622, Note_off_c, 0, 58, 63
1, 69627, Note_on_c, 0, 62, 70
1, 69668, Control_c, 0, 64, 32
1, 69683, Control_c, 0, 64, 32
1, 69713, Control_c, 0, 64, 32
1, 69716, Note_off_c, 0, 62, 50
1, 69721, Note_on_c, 0, 63, 74
1, 69787, Note_on_c, 0, 65, 74
1, 69787, Note_off_c, 0, 63, 63
1, 69810, Note_off_c, 0, 65, 69
1, 69839, Control_c, 0, 64, 32
1, 69868, Note_on_c, 0, 67, 77
1, 69883, Control_c, 0, 64, 30
1, 69898, Control_c, 0, 64, 29
1, 69913, Control_c, 0, 64, 30
1, 69931, Note_off_c, 0, 67, 54
1, 69934, Note_on_c, 0, 69, 77
1, 69957, Control_c, 0, 64, 29
1, 69972, Control_c, 0, 64, 28
1, 70011, Note_on_c, 0, 70, 78
1, 70014, Note_off_c, 0, 69, 63
1, 70054, Note_off_c, 0, 70, 62
1, 70069, Note_on_c, 0, 72, 73
1, 70140, Note_off_c, 0, 72, 56
1, 70145, Note_on_c, 0, 74, 80
1, 70150, Control_c, 0, 64, 27
1, 70165, Control_c, 0, 64, 26
1, 70194, Control_c, 0, 64, 27
1, 70209, Control_c, 0, 64, 28
1, 70213, Note_on_c, 0, 75, 79
1, 70233, Note_off_c, 0, 74, 62
1, 70239, Control_c, 0, 64, 28
1, 70268, Control_c, 0, 64, 28
1, 70287, Note_on_c, 0, 77, 68
1, 70303, Note_off_c, 0, 75, 65
1, 70351, Note_on_c, 0, 79, 73
1, 70357, Control_c, 0, 64, 28
1, 70376, Note_off_c, 0, 77, 60
1, 70434, Note_on_c, 0, 77, 74
1, 70458, Note_off_c, 0, 79, 50
1, 70476, Control_c, 0, 64, 28
1, 70529, Control_c, 0, 64, 27
1, 70559, Control_c, 0, 64, 28
1, 70603, Control_c, 0, 64, 27
1, 70619, Note_on_c, 0, 57, 40
1, 70620, Note_on_c, 0, 65, 41
1, 70621, Note_on_c, 0, 60, 45
1, 70645, Note_off_c, 0, 57, 54
1, 70646, Note_off_c, 0, 65, 53
1, 70647, Control_c, 0, 64, 28
1, 70648, Note_off_c, 0, 60, 56
1, 70677, Control_c, 0, 64, 27
1, 70721, Control_c, 0, 64, 28
1, 70750, Control_c, 0, 64, 27
1, 70766, Note_on_c, 0, 60, 44
1, 70769, Note_on_c, 0, 57, 41
1, 70770, Note_on_c, 0, 65, 45
1, 70807, Note_off_c, 0, 65, 65
1, 70807, Note_off_c, 0, 60, 65
1, 70810, Note_off_c, 0, 57, 65
1, 70854, Control_c, 0, 64, 27
1, 70924, Note_on_c, 0, 60, 57
1, 70924, Note_off_c, 0, 77, 48
1, 70929, Control_c, 0, 64, 27
1, 70931, Note_on_c, 0, 57, 43
1, 70932, Note_on_c, 0, 65, 44
1, 70959, Note_off_c, 0, 57, 58
1, 70959, Note_off_c, 0, 60, 66
1, 70959, Note_off_c, 0, 65, 58
1, 71066, Note_on_c, 0, 60, 53
1, 71067, Note_on_c, 0, 65, 47
1, 71071, Note_on_c, 0, 57, 35
1, 71075, Note_on_c, 0, 75, 65
1, 71103, Note_off_c, 0, 75, 65
1, 71105, Note_off_c, 0, 65, 64
1, 71107, Note_off_c, 0, 57, 53
1, 71111, Note_off_c, 0, 60, 63
1, 71121, Control_c, 0, 64, 28
1, 71129, Note_on_c, 0, 77, 62
1, 71182, Note_off_c, 0, 77, 59
1, 71195, Control_c, 0, 64, 29
1, 71210, Control_c, 0, 64, 30
1, 71217, Note_on_c, 0, 57, 50
1, 71218, Note_on_c, 0, 65, 51
1, 71220, Note_on_c, 0, 74, 55
1, 71222, Note_on_c, 0, 75, 17
1, 71227, Note_on_c, 0, 60, 56
1, 71259, Note_off_c, 0, 65, 66
1, 71263, Note_off_c, 0, 57, 63
1, 71266, Note_off_c, 0, 60, 65
1, 71278, Note_off_c, 0, 74, 55
1, 71285, Note_off_c, 0, 75, 0
1, 71285, Note_on_c, 0, 75, 16
1, 71306, Control_c, 0, 64, 30
1, 71322, Control_c, 0, 64, 29
1, 71352, Control_c, 0, 64, 30
1, 71358, Note_off_c, 0, 75, 60
1, 71367, Note_on_c, 0, 74, 62
1, 71411, Control_c, 0, 64, 29
1, 71470, Control_c, 0, 64, 29
1, 71485, Control_c, 0, 64, 28
1, 71520, Note_on_c, 0, 62, 56
1, 71520, Note_off_c, 0, 74, 51
1, 71525, Note_on_c, 0, 58, 58
1, 71550, Note_off_c, 0, 62, 66
1, 71560, Note_off_c, 0, 58, 64
1, 71664, Note_on_c, 0, 72, 64
1, 71695, Note_off_c, 0, 72, 64
1, 71716, Note_on_c, 0, 74, 51
1, 71722, Control_c, 0, 64, 29
1, 71737, Control_c, 0, 64, 28
1, 71779, Note_off_c, 0, 74, 63
1, 71780, Control_c, 0, 64, 29
1, 71802, Note_on_c, 0, 71, 40
1, 71806, Note_on_c, 0, 72, 24
1, 71807, Note_on_c, 0, 62, 42
1, 71810, Note_on_c, 0, 54, 41
1, 71810, Control_c, 0, 64, 28
1, 71812, Note_on_c, 0, 57, 46
1, 71833, Note_off_c, 0, 62, 49
1, 71835, Note_off_c, 0, 54, 52
1, 71837, Note_off_c, 0, 57, 58
1, 71839, Control_c, 0, 64, 29
1, 71854, Note_off_c, 0, 72, 0
1, 71854, Note_on_c, 0, 72, 32
1, 71854, Control_c, 0, 64, 29
1, 71856, Note_off_c, 0, 71, 61
1, 71898, Control_c, 0, 64, 29
1, 71913, Control_c, 0, 64, 29
1, 71928, Control_c, 0, 64, 30
1, 71938, Note_off_c, 0, 72, 53
1, 71943, Control_c, 0, 64, 30
1, 71953, Note_on_c, 0, 70, 78
1, 72040, Control_c, 0, 64, 30
1, 72054, Control_c, 0, 64, 29
1, 72084, Control_c, 0, 64, 30
1, 72098, Control_c, 0, 64, 31
1, 72105, Note_on_c, 0, 62, 62
1, 72109, Note_on_c, 0, 58, 61
1, 72121, Note_on_c, 0, 55, 53
1, 72136, Note_off_c, 0, 62, 67
1, 72144, Control_c, 0, 64, 33
1, 72154, Note_off_c, 0, 58, 60
1, 72154, Note_off_c, 0, 55, 64
1, 72159, Control_c, 0, 64, 38
1, 72174, Note_off_c, 0, 70, 59
1, 72174, Control_c, 0, 64, 45
1, 72188, Control_c, 0, 64, 49
1, 72203, Control_c, 0, 64, 50
1, 72218, Control_c, 0, 64, 49
1, 72248, Control_c, 0, 64, 50
1, 72261, Note_on_c, 0, 68, 69
1, 72262, Control_c, 0, 64, 50
1, 72277, Control_c, 0, 64, 51
1, 72288, Note_off_c, 0, 68, 66
1, 72306, Note_on_c, 0, 70, 70
1, 72307, Control_c, 0, 64, 50
1, 72321, Control_c, 0, 64, 48
1, 72336, Control_c, 0, 64, 47
1, 72351, Control_c, 0, 64, 46
1, 72363, Note_on_c, 0, 68, 67
1, 72366, Control_c, 0, 64, 44
1, 72372, Note_off_c, 0, 70, 61
1, 72381, Control_c, 0, 64, 41
1, 72386, Note_on_c, 0, 58, 62
1, 72395, Control_c, 0, 64, 40
1, 72397, Note_on_c, 0, 53, 54
1, 72397, Note_off_c, 0, 68, 66
1, 72402, Note_on_c, 0, 50, 36
1, 72409, Note_on_c, 0, 67, 67
1, 72410, Control_c, 0, 64, 39
1, 72415, Note_off_c, 0, 58, 65
1, 72425, Note_off_c, 0, 53, 63
1, 72425, Control_c, 0, 64, 37
1, 72435, Note_off_c, 0, 50, 43
1, 72440, Control_c, 0, 64, 36
1, 72452, Note_off_c, 0, 67, 55
1, 72467, Note_on_c, 0, 68, 76
1, 72514, Control_c, 0, 64, 36
1, 72525, Note_on_c, 0, 67, 78
1, 72534, Note_off_c, 0, 68, 62
1, 72559, Control_c, 0, 64, 36
1, 72574, Control_c, 0, 64, 35
1, 72588, Control_c, 0, 64, 34
1, 72633, Control_c, 0, 64, 32
1, 72648, Control_c, 0, 64, 30
1, 72662, Control_c, 0, 64, 29
1, 72677, Control_c, 0, 64, 28
1, 72690, Note_on_c, 0, 58, 69
1, 72693, Note_on_c, 0, 55, 63
1, 72695, Note_on_c, 0, 51, 68
1, 72718, Note_off_c, 0, 58, 65
1, 72721, Note_off_c, 0, 55, 66
1, 72730, Note_off_c, 0, 51, 66
1, 72730, Note_off_c, 0, 67, 61
1, 72803, Control_c, 0, 64, 30
1, 72818, Control_c, 0, 64, 30
1, 72849, Note_on_c, 0, 65, 73
1, 72873, Note_off_c, 0, 65, 68
1, 72883, Note_on_c, 0, 67, 65
1, 72892, Control_c, 0, 64, 31
1, 72907, Control_c, 0, 64, 32
1, 72923, Control_c, 0, 64, 32
1, 72941, Note_on_c, 0, 65, 73
1, 72956, Note_off_c, 0, 67, 64
1, 72982, Control_c, 0, 64, 32
1, 72992, Note_off_c, 0, 65, 65
1, 72997, Control_c, 0, 64, 32
1, 72998, Note_on_c, 0, 47, 53
1, 72998, Note_on_c, 0, 50, 61
1, 73000, Note_on_c, 0, 55, 51
1, 73004, Note_on_c, 0, 64, 67
1, 73011, Control_c, 0, 64, 32
1, 73023, Note_off_c, 0, 47, 60
1, 73024, Note_off_c, 0, 55, 58
1, 73030, Note_off_c, 0, 50, 64
1, 73041, Control_c, 0, 64, 31
1, 73052, Note_off_c, 0, 64, 61
1, 73054, Note_on_c, 0, 65, 70
1, 73071, Control_c, 0, 64, 31
1, 73085, Control_c, 0, 64, 30
1, 73100, Control_c, 0, 64, 30
1, 73111, Note_on_c, 0, 64, 81
1, 73117, Note_off_c, 0, 65, 65
1, 73189, Control_c, 0, 64, 30
1, 73218, Control_c, 0, 64, 32
1, 73233, Control_c, 0, 64, 33
1, 73248, Control_c, 0, 64, 34
1, 73263, Control_c, 0, 64, 33
1, 73278, Control_c, 0, 64, 33
1, 73284, Note_on_c, 0, 55, 67
1, 73285, Note_on_c, 0, 52, 68
1, 73290, Note_on_c, 0, 48, 63
1, 73293, Control_c, 0, 64, 33
1, 73311, Note_off_c, 0, 55, 66
1, 73313, Note_off_c, 0, 52, 66
1, 73323, Note_off_c, 0, 64, 57
1, 73328, Note_off_c, 0, 48, 65
1, 73337, Control_c, 0, 64, 33
1, 73352, Control_c, 0, 64, 32
1, 73367, Control_c, 0, 64, 31
1, 73412, Control_c, 0, 64, 30
1, 73427, Note_on_c, 0, 63, 78
1, 73427, Control_c, 0, 64, 28
1, 73442, Control_c, 0, 64, 25
1, 73456, Control_c, 0, 64, 24
1, 73462, Note_off_c, 0, 63, 56
1, 73471, Control_c, 0, 64, 23
1, 73493, Control_c, 0, 64, 21
1, 73494, Note_on_c, 0, 65, 64
1, 73508, Control_c, 0, 64, 17
1, 73523, Control_c, 0, 64, 16
1, 73552, Control_c, 0, 64, 16
1, 73554, Note_off_c, 0, 65, 63
1, 73555, Note_on_c, 0, 63, 51
1, 73588, Note_off_c, 0, 63, 68
1, 73591, Note_on_c, 0, 53, 50
1, 73593, Note_on_c, 0, 45, 49
1, 73594, Note_on_c, 0, 48, 52
1, 73597, Note_on_c, 0, 62, 63
1, 73597, Control_c, 0, 64, 17
1, 73612, Control_c, 0, 64, 17
1, 73619, Note_off_c, 0, 53, 60
1, 73630, Note_off_c, 0, 45, 65
1, 73632, Note_off_c, 0, 48, 62
1, 73634, Note_off_c, 0, 62, 58
1, 73662, Note_on_c, 0, 63, 61
1, 73671, Control_c, 0, 64, 19
1, 73686, Control_c, 0, 64, 20
1, 73701, Control_c, 0, 64, 20
1, 73703, Note_off_c, 0, 63, 63
1, 73714, Note_on_c, 0, 62, 65
1, 73746, Control_c, 0, 64, 21
1, 73761, Control_c, 0, 64, 22
1, 73876, Note_off_c, 0, 62, 44
1, 73877, Note_on_c, 0, 53, 57
1, 73880, Note_on_c, 0, 50, 63
1, 73881, Note_on_c, 0, 46, 57
1, 73901, Note_off_c, 0, 53, 62
1, 73911, Note_off_c, 0, 50, 63
1, 73918, Note_off_c, 0, 46, 64
1, 73924, Control_c, 0, 64, 22
1, 73983, Control_c, 0, 64, 21
1, 74028, Control_c, 0, 64, 22
1, 74032, Note_on_c, 0, 63, 67
1, 74057, Control_c, 0, 64, 21
1, 74059, Note_off_c, 0, 63, 67
1, 74070, Note_on_c, 0, 65, 66
1, 74116, Control_c, 0, 64, 22
1, 74128, Note_on_c, 0, 63, 63
1, 74131, Control_c, 0, 64, 22
1, 74138, Note_off_c, 0, 65, 63
1, 74160, Control_c, 0, 64, 22
1, 74175, Note_off_c, 0, 63, 61
1, 74177, Note_on_c, 0, 53, 49
1, 74182, Note_on_c, 0, 45, 45
1, 74182, Note_on_c, 0, 48, 53
1, 74195, Note_on_c, 0, 62, 55
1, 74203, Note_off_c, 0, 53, 59
1, 74210, Note_off_c, 0, 45, 55
1, 74214, Note_off_c, 0, 48, 62
1, 74241, Note_off_c, 0, 62, 58
1, 74250, Note_on_c, 0, 63, 56
1, 74272, Control_c, 0, 64, 22
1, 74298, Note_off_c, 0, 63, 57
1, 74301, Control_c, 0, 64, 23
1, 74313, Note_on_c, 0, 62, 65
1, 74435, Control_c, 0, 64, 24
1, 74445, Note_off_c, 0, 62, 29
1, 74449, Control_c, 0, 64, 28
1, 74464, Control_c, 0, 64, 31
1, 74467, Note_on_c, 0, 46, 60
1, 74469, Note_on_c, 0, 53, 55
1, 74470, Note_on_c, 0, 50, 58
1, 74479, Control_c, 0, 64, 30
1, 74492, Note_off_c, 0, 53, 58
1, 74494, Control_c, 0, 64, 29
1, 74500, Note_off_c, 0, 46, 63
1, 74500, Note_off_c, 0, 50, 62
1, 74509, Control_c, 0, 64, 29
1, 74569, Control_c, 0, 64, 28
1, 74601, Note_on_c, 0, 63, 59
1, 74613, Control_c, 0, 64, 29
1, 74634, Note_off_c, 0, 63, 65
1, 74666, Note_on_c, 0, 65, 54
1, 74703, Control_c, 0, 64, 28
1, 74711, Note_off_c, 0, 65, 62
1, 74718, Note_on_c, 0, 63, 56
1, 74747, Control_c, 0, 64, 29
1, 74748, Note_on_c, 0, 53, 50
1, 74749, Note_on_c, 0, 45, 46
1, 74753, Note_off_c, 0, 63, 65
1, 74756, Note_on_c, 0, 48, 41
1, 74774, Note_off_c, 0, 53, 53
1, 74777, Note_off_c, 0, 45, 53
1, 74777, Control_c, 0, 64, 28
1, 74780, Note_on_c, 0, 62, 62
1, 74787, Note_off_c, 0, 48, 45
1, 74806, Control_c, 0, 64, 29
1, 74821, Note_off_c, 0, 62, 60
1, 74851, Control_c, 0, 64, 28
1, 74852, Note_on_c, 0, 63, 56
1, 74865, Control_c, 0, 64, 28
1, 74880, Control_c, 0, 64, 28
1, 74891, Note_off_c, 0, 63, 63
1, 74914, Note_on_c, 0, 53, 48
1, 74918, Note_on_c, 0, 46, 65
1, 74923, Note_on_c, 0, 62, 60
1, 74928, Note_on_c, 0, 50, 44
1, 74939, Control_c, 0, 64, 28
1, 74940, Note_off_c, 0, 53, 54
1, 74944, Note_off_c, 0, 46, 67
1, 74958, Note_off_c, 0, 50, 35
1, 74966, Note_off_c, 0, 62, 59
1, 74991, Control_c, 0, 64, 28
1, 75031, Note_on_c, 0, 58, 61
1, 75065, Control_c, 0, 64, 28
1, 75070, Note_off_c, 0, 58, 59
1, 75080, Control_c, 0, 64, 27
1, 75095, Control_c, 0, 64, 26
1, 75131, Note_on_c, 0, 53, 57
1, 75139, Control_c, 0, 64, 25
1, 75154, Control_c, 0, 64, 24
1, 75158, Note_off_c, 0, 53, 57
1, 75169, Control_c, 0, 64, 24
1, 75192, Note_on_c, 0, 58, 63
1, 75230, Note_off_c, 0, 58, 60
1, 75285, Note_on_c, 0, 62, 49
1, 75332, Note_off_c, 0, 62, 60
1, 75344, Note_on_c, 0, 58, 58
1, 75362, Control_c, 0, 64, 24
1, 75389, Note_off_c, 0, 58, 58
1, 75418, Note_on_c, 0, 65, 50
1, 75445, Note_off_c, 0, 65, 63
1, 75493, Note_on_c, 0, 62, 49
1, 75520, Note_off_c, 0, 62, 55
1, 75570, Control_c, 0, 64, 26
1, 75570, Note_on_c, 0, 70, 61
1, 75585, Control_c, 0, 64, 27
1, 75600, Control_c, 0, 64, 27
1, 75640, Note_off_c, 0, 70, 52
1, 75650, Note_on_c, 0, 65, 56
1, 75681, Note_off_c, 0, 65, 65
1, 75703, Control_c, 0, 64, 26
1, 75705, Note_on_c, 0, 74, 62
1, 75755, Control_c, 0, 64, 27
1, 75784, Note_off_c, 0, 74, 57
1, 75785, Control_c, 0, 64, 26
1, 75794, Note_on_c, 0, 70, 59
1, 75814, Control_c, 0, 64, 27
1, 75829, Control_c, 0, 64, 27
1, 75868, Note_off_c, 0, 70, 57
1, 75873, Control_c, 0, 64, 27
1, 75879, Note_on_c, 0, 65, 55
1, 75921, Note_off_c, 0, 65, 61
1, 75948, Note_on_c, 0, 62, 46
1, 75990, Note_off_c, 0, 62, 62
1, 75992, Control_c, 0, 64, 26
1, 76002, Note_on_c, 0, 70, 63
1, 76036, Control_c, 0, 64, 27
1, 76041, Note_off_c, 0, 70, 60
1, 76080, Control_c, 0, 64, 26
1, 76091, Note_on_c, 0, 65, 57
1, 76111, Control_c, 0, 64, 27
1, 76125, Note_off_c, 0, 65, 65
1, 76141, Control_c, 0, 64, 26
1, 76159, Note_on_c, 0, 74, 66
1, 76185, Control_c, 0, 64, 27
1, 76229, Note_on_c, 0, 70, 65
1, 76232, Note_off_c, 0, 74, 53
1, 76276, Note_off_c, 0, 70, 57
1, 76294, Note_on_c, 0, 77, 57
1, 76362, Note_off_c, 0, 77, 57
1, 76369, Note_on_c, 0, 74, 62
1, 76407, Control_c, 0, 64, 27
1, 76436, Control_c, 0, 64, 28
1, 76451, Control_c, 0, 64, 28
1, 76459, Note_on_c, 0, 70, 61
1, 76461, Note_off_c, 0, 74, 56
1, 76515, Note_off_c, 0, 70, 56
1, 76533, Control_c, 0, 64, 29
1, 76534, Note_on_c, 0, 65, 53
1, 76567, Note_off_c, 0, 65, 61
1, 76597, Note_on_c, 0, 74, 62
1, 76607, Control_c, 0, 64, 29
1, 76621, Control_c, 0, 64, 30
1, 76671, Note_on_c, 0, 70, 63
1, 76681, Control_c, 0, 64, 30
1, 76737, Note_off_c, 0, 74, 58
1, 76738, Note_on_c, 0, 77, 63
1, 76740, Control_c, 0, 64, 31
1, 76746, Note_off_c, 0, 70, 57
1, 76754, Control_c, 0, 64, 32
1, 76774, Note_off_c, 0, 77, 61
1, 76813, Control_c, 0, 64, 32
1, 76827, Note_on_c, 0, 74, 56
1, 76828, Control_c, 0, 64, 33
1, 76898, Note_on_c, 0, 82, 60
1, 76910, Note_off_c, 0, 74, 54
1, 76959, Note_off_c, 0, 82, 54
1, 76967, Note_on_c, 0, 77, 63
1, 77038, Note_on_c, 0, 74, 66
1, 77072, Note_off_c, 0, 77, 57
1, 77093, Note_off_c, 0, 74, 56
1, 77111, Control_c, 0, 64, 31
1, 77117, Note_on_c, 0, 70, 69
1, 77126, Control_c, 0, 64, 30
1, 77151, Note_off_c, 0, 70, 60
1, 77171, Control_c, 0, 64, 30
1, 77185, Control_c, 0, 64, 29
1, 77199, Note_on_c, 0, 77, 61
1, 77200, Control_c, 0, 64, 28
1, 77263, Note_on_c, 0, 74, 62
1, 77311, Control_c, 0, 64, 30
1, 77326, Control_c, 0, 64, 30
1, 77329, Note_off_c, 0, 74, 62
1, 77337, Note_on_c, 0, 82, 65
1, 77345, Note_off_c, 0, 77, 32
1, 77356, Control_c, 0, 64, 30
1, 77385, Note_off_c, 0, 82, 61
1, 77427, Note_on_c, 0, 77, 67
1, 77455, Note_off_c, 0, 77, 64
1, 77459, Control_c, 0, 64, 29
1, 77495, Note_on_c, 0, 86, 70
1, 77567, Note_on_c, 0, 82, 72
1, 77592, Control_c, 0, 64, 30
1, 77602, Note_off_c, 0, 86, 46
1, 77607, Control_c, 0, 64, 30
1, 77619, Note_off_c, 0, 82, 58
1, 77622, Control_c, 0, 64, 30
1, 77635, Note_on_c, 0, 89, 76
1, 77636, Control_c, 0, 64, 29
1, 77657, Note_off_c, 0, 89, 70
1, 77666, Control_c, 0, 64, 30
1, 77696, Control_c, 0, 64, 29
1, 77712, Control_c, 0, 64, 29
1, 77726, Control_c, 0, 64, 28
1, 77756, Control_c, 0, 64, 29
1, 77771, Control_c, 0, 64, 29
1, 77800, Control_c, 0, 64, 29
1, 77824, Note_on_c, 0, 77, 52
1, 77833, Note_on_c, 0, 65, 43
1, 77848, Note_off_c, 0, 77, 61
1, 77856, Note_off_c, 0, 65, 54
1, 77874, Control_c, 0, 64, 28
1, 77970, Note_on_c, 0, 70, 57
1, 77986, Note_on_c, 0, 82, 60
1, 78001, Control_c, 0, 64, 29
1, 78011, Note_off_c, 0, 70, 63
1, 78013, Note_off_c, 0, 82, 66
1, 78131, Note_on_c, 0, 86, 69
1, 78131, Note_on_c, 0, 74, 63
1, 78154, Note_off_c, 0, 86, 68
1, 78158, Note_off_c, 0, 74, 67
1, 78223, Control_c, 0, 64, 29
1, 78238, Control_c, 0, 64, 30
1, 78253, Control_c, 0, 64, 31
1, 78267, Control_c, 0, 64, 32
1, 78282, Control_c, 0, 64, 35
1, 78293, Note_on_c, 0, 89, 74
1, 78296, Note_on_c, 0, 77, 71
1, 78297, Control_c, 0, 64, 37
1, 78312, Control_c, 0, 64, 37
1, 78318, Note_off_c, 0, 89, 68
1, 78320, Note_off_c, 0, 77, 67
1, 78327, Control_c, 0, 64, 37
1, 78356, Control_c, 0, 64, 37
1, 78466, Note_on_c, 0, 65, 73
1, 78474, Control_c, 0, 64, 37
1, 78489, Control_c, 0, 64, 36
1, 78491, Note_off_c, 0, 65, 68
1, 78504, Control_c, 0, 64, 35
1, 78519, Control_c, 0, 64, 35
1, 78563, Control_c, 0, 64, 34
1, 78578, Control_c, 0, 64, 33
1, 78593, Control_c, 0, 64, 31
1, 78608, Control_c, 0, 64, 30
1, 78629, Note_on_c, 0, 70, 79
1, 78658, Note_off_c, 0, 70, 66
1, 78734, Control_c, 0, 64, 31
1, 78763, Control_c, 0, 64, 30
1, 78789, Note_on_c, 0, 74, 72
1, 78816, Note_off_c, 0, 74, 64
1, 78882, Control_c, 0, 64, 30
1, 78912, Control_c, 0, 64, 29
1, 78927, Control_c, 0, 64, 29
1, 78943, Note_on_c, 0, 77, 73
1, 78956, Control_c, 0, 64, 28
1, 78968, Note_off_c, 0, 77, 65
1, 78971, Control_c, 0, 64, 27
1, 79000, Control_c, 0, 64, 28
1, 79030, Control_c, 0, 64, 27
1, 79045, Control_c, 0, 64, 26
1, 79060, Control_c, 0, 64, 25
1, 79089, Control_c, 0, 64, 25
1, 79113, Note_on_c, 0, 41, 70
1, 79114, Note_on_c, 0, 53, 73
1, 79119, Control_c, 0, 64, 24
1, 79134, Control_c, 0, 64, 24
1, 79142, Note_off_c, 0, 53, 66
1, 79148, Note_off_c, 0, 41, 67
1, 79149, Control_c, 0, 64, 23
1, 79163, Control_c, 0, 64, 22
1, 79178, Control_c, 0, 64, 19
1, 79193, Control_c, 0, 64, 16
1, 79207, Control_c, 0, 64, 15
1, 79222, Control_c, 0, 64, 16
1, 79268, Note_on_c, 0, 46, 76
1, 79275, Note_on_c, 0, 58, 79
1, 79301, Note_off_c, 0, 58, 70
1, 79313, Control_c, 0, 64, 17
1, 79316, Note_off_c, 0, 46, 62
1, 79328, Control_c, 0, 64, 18
1, 79343, Control_c, 0, 64, 19
1, 79429, Note_on_c, 0, 50, 79
1, 79432, Note_on_c, 0, 62, 79
1, 79453, Note_off_c, 0, 50, 66
1, 79457, Note_off_c, 0, 62, 68
1, 79597, Note_on_c, 0, 53, 78
1, 79601, Note_on_c, 0, 65, 76
1, 79626, Note_off_c, 0, 53, 67
1, 79629, Note_off_c, 0, 65, 66
1, 79749, Control_c, 0, 64, 19
1, 79764, Note_on_c, 0, 70, 69
1, 79764, Control_c, 0, 64, 20
1, 79790, Note_off_c, 0, 70, 66
1, 79824, Control_c, 0, 64, 21
1, 79839, Control_c, 0, 64, 24
1, 79854, Control_c, 0, 64, 25
1, 79913, Control_c, 0, 64, 26
1, 79919, Note_on_c, 0, 74, 64
1, 79928, Control_c, 0, 64, 27
1, 79943, Control_c, 0, 64, 27
1, 79945, Note_off_c, 0, 74, 68
1, 80074, Note_on_c, 0, 77, 64
1, 80091, Control_c, 0, 64, 27
1, 80105, Note_off_c, 0, 77, 64
1, 80107, Control_c, 0, 64, 26
1, 80122, Control_c, 0, 64, 25
1, 80136, Control_c, 0, 64, 24
1, 80151, Control_c, 0, 64, 22
1, 80166, Control_c, 0, 64, 21
1, 80180, Control_c, 0, 64, 20
1, 80239, Note_on_c, 0, 75, 63
1, 80269, Note_off_c, 0, 75, 66
1, 80307, Control_c, 0, 64, 20
1, 80322, Control_c, 0, 64, 18
1, 80336, Control_c, 0, 64, 17
1, 80366, Control_c, 0, 64, 17
1, 80380, Control_c, 0, 64, 18
1, 80403, Note_on_c, 0, 74, 66
1, 80428, Note_off_c, 0, 74, 67
1, 80440, Control_c, 0, 64, 19
1, 80558, Control_c, 0, 64, 19
1, 80570, Note_on_c, 0, 72, 57
1, 80572, Control_c, 0, 64, 20
1, 80647, Control_c, 0, 64, 21
1, 80650, Note_off_c, 0, 72, 54
1, 80662, Control_c, 0, 64, 23
1, 80667, Note_on_c, 0, 74, 50
1, 80706, Control_c, 0, 64, 22
1, 80713, Note_off_c, 0, 74, 57
1, 80727, Note_on_c, 0, 53, 58
1, 80736, Control_c, 0, 64, 23
1, 80738, Note_on_c, 0, 72, 53
1, 80756, Note_off_c, 0, 53, 66
1, 80778, Note_off_c, 0, 72, 61
1, 80780, Control_c, 0, 64, 22
1, 80808, Note_on_c, 0, 74, 41
1, 80825, Control_c, 0, 64, 23
1, 80839, Note_off_c, 0, 74, 55
1, 80861, Note_on_c, 0, 72, 57
1, 80869, Control_c, 0, 64, 22
1, 80882, Note_on_c, 0, 57, 62
1, 80884, Control_c, 0, 64, 23
1, 80897, Note_off_c, 0, 72, 62
1, 80900, Control_c, 0, 64, 23
1, 80912, Note_off_c, 0, 57, 67
1, 80925, Note_on_c, 0, 74, 43
1, 80953, Note_off_c, 0, 74, 56
1, 80995, Note_on_c, 0, 72, 62
1, 81010, Control_c, 0, 64, 23
1, 81025, Control_c, 0, 64, 22
1, 81028, Note_off_c, 0, 72, 62
1, 81038, Note_on_c, 0, 74, 63
1, 81043, Note_on_c, 0, 60, 71
1, 81070, Note_off_c, 0, 60, 67
1, 81102, Note_off_c, 0, 74, 59
1, 81115, Control_c, 0, 64, 23
1, 81130, Control_c, 0, 64, 23
1, 81132, Note_on_c, 0, 72, 60
1, 81166, Note_off_c, 0, 72, 62
1, 81180, Note_on_c, 0, 74, 57
1, 81189, Control_c, 0, 64, 24
1, 81199, Note_on_c, 0, 63, 72
1, 81203, Control_c, 0, 64, 26
1, 81218, Control_c, 0, 64, 26
1, 81220, Note_off_c, 0, 63, 69
1, 81231, Note_off_c, 0, 74, 57
1, 81233, Control_c, 0, 64, 26
1, 81255, Note_on_c, 0, 72, 65
1, 81296, Note_off_c, 0, 72, 58
1, 81315, Note_on_c, 0, 74, 50
1, 81336, Control_c, 0, 64, 26
1, 81351, Control_c, 0, 64, 27
1, 81359, Note_off_c, 0, 74, 58
1, 81362, Note_on_c, 0, 41, 75
1, 81366, Control_c, 0, 64, 28
1, 81381, Control_c, 0, 64, 27
1, 81389, Note_off_c, 0, 41, 66
1, 81390, Note_on_c, 0, 72, 65
1, 81396, Control_c, 0, 64, 26
1, 81410, Control_c, 0, 64, 25
1, 81422, Note_off_c, 0, 72, 62
1, 81452, Note_on_c, 0, 74, 57
1, 81470, Control_c, 0, 64, 25
1, 81484, Control_c, 0, 64, 24
1, 81493, Note_off_c, 0, 74, 58
1, 81518, Note_on_c, 0, 72, 69
1, 81520, Note_on_c, 0, 45, 81
1, 81544, Control_c, 0, 64, 24
1, 81550, Note_off_c, 0, 45, 68
1, 81554, Note_off_c, 0, 72, 59
1, 81559, Control_c, 0, 64, 23
1, 81574, Note_on_c, 0, 74, 55
1, 81574, Control_c, 0, 64, 22
1, 81589, Control_c, 0, 64, 21
1, 81603, Control_c, 0, 64, 21
1, 81621, Note_off_c, 0, 74, 58
1, 81645, Note_on_c, 0, 72, 68
1, 81648, Control_c, 0, 64, 21
1, 81677, Note_on_c, 0, 48, 79
1, 81677, Control_c, 0, 64, 22
1, 81684, Note_off_c, 0, 72, 54
1, 81698, Note_on_c, 0, 74, 58
1, 81708, Control_c, 0, 64, 21
1, 81710, Note_off_c, 0, 48, 65
1, 81745, Control_c, 0, 64, 22
1, 81758, Note_off_c, 0, 74, 59
1, 81759, Control_c, 0, 64, 22
1, 81774, Control_c, 0, 64, 23
1, 81778, Note_on_c, 0, 72, 65
1, 81819, Note_off_c, 0, 72, 54
1, 81833, Note_on_c, 0, 74, 56
1, 81843, Note_on_c, 0, 51, 73
1, 81848, Control_c, 0, 64, 24
1, 81878, Control_c, 0, 64, 24
1, 81882, Note_off_c, 0, 51, 60
1, 81893, Note_off_c, 0, 74, 56
1, 81893, Control_c, 0, 64, 25
1, 81908, Control_c, 0, 64, 26
1, 81918, Note_on_c, 0, 72, 66
1, 81922, Control_c, 0, 64, 27
1, 81960, Note_off_c, 0, 72, 56
1, 81976, Note_on_c, 0, 74, 56
1, 81991, Note_on_c, 0, 42, 74
1, 82012, Control_c, 0, 64, 27
1, 82027, Note_off_c, 0, 42, 66
1, 82029, Note_off_c, 0, 74, 52
1, 82041, Control_c, 0, 64, 26
1, 82056, Control_c, 0, 64, 25
1, 82058, Note_on_c, 0, 72, 63
1, 82071, Control_c, 0, 64, 25
1, 82086, Control_c, 0, 64, 25
1, 82095, Note_off_c, 0, 72, 58
1, 82100, Control_c, 0, 64, 26
1, 82111, Note_on_c, 0, 74, 57
1, 82155, Note_on_c, 0, 45, 59
1, 82170, Note_off_c, 0, 74, 56
1, 82190, Note_off_c, 0, 45, 62
1, 82196, Note_on_c, 0, 72, 63
1, 82204, Control_c, 0, 64, 26
1, 82231, Note_off_c, 0, 72, 58
1, 82250, Note_on_c, 0, 74, 50
1, 82301, Note_off_c, 0, 74, 57
1, 82308, Note_on_c, 0, 48, 52
1, 82328, Note_on_c, 0, 72, 63
1, 82350, Note_off_c, 0, 48, 61
1, 82361, Note_off_c, 0, 72, 60
1, 82379, Note_on_c, 0, 74, 55
1, 82396, Control_c, 0, 64, 25
1, 82425, Control_c, 0, 64, 25
1, 82429, Note_off_c, 0, 74, 57
1, 82440, Control_c, 0, 64, 24
1, 82455, Control_c, 0, 64, 24
1, 82459, Note_on_c, 0, 72, 62
1, 82477, Note_on_c, 0, 51, 55
1, 82492, Control_c, 0, 64, 24
1, 82504, Note_off_c, 0, 72, 61
1, 82519, Note_off_c, 0, 51, 61
1, 82521, Note_on_c, 0, 74, 51
1, 82564, Note_off_c, 0, 74, 59
1, 82598, Note_on_c, 0, 72, 58
1, 82627, Note_off_c, 0, 72, 62
1, 82629, Note_on_c, 0, 41, 54
1, 82644, Note_on_c, 0, 74, 55
1, 82661, Note_off_c, 0, 41, 66
1, 82684, Note_off_c, 0, 74, 59
1, 82710, Note_on_c, 0, 72, 65
1, 82730, Control_c, 0, 64, 24
1, 82752, Note_off_c, 0, 72, 58
1, 82760, Control_c, 0, 64, 24
1, 82771, Note_on_c, 0, 74, 57
1, 82778, Note_on_c, 0, 45, 64
1, 82810, Note_off_c, 0, 74, 60
1, 82818, Note_off_c, 0, 45, 57
1, 82841, Note_on_c, 0, 72, 62
1, 82876, Note_off_c, 0, 72, 60
1, 82895, Note_on_c, 0, 74, 62
1, 82939, Note_off_c, 0, 74, 58
1, 82941, Note_on_c, 0, 48, 66
1, 82971, Note_on_c, 0, 72, 68
1, 82991, Note_off_c, 0, 48, 52
1, 83007, Note_off_c, 0, 72, 59
1, 83022, Note_on_c, 0, 74, 60
1, 83067, Note_off_c, 0, 74, 59
1, 83071, Control_c, 0, 64, 25
1, 83079, Note_on_c, 0, 51, 69
1, 83094, Note_on_c, 0, 72, 66
1, 83104, Note_off_c, 0, 51, 67
1, 83128, Note_off_c, 0, 72, 61
1, 83130, Control_c, 0, 64, 26
1, 83137, Note_on_c, 0, 74, 63
1, 83145, Control_c, 0, 64, 26
1, 83174, Control_c, 0, 64, 26
1, 83179, Note_off_c, 0, 74, 57
1, 83216, Note_on_c, 0, 72, 65
1, 83236, Note_on_c, 0, 53, 70
1, 83252, Note_off_c, 0, 72, 65
1, 83265, Note_on_c, 0, 74, 62
1, 83268, Note_off_c, 0, 53, 67
1, 83271, Control_c, 0, 64, 25
1, 83286, Control_c, 0, 64, 25
1, 83303, Note_off_c, 0, 74, 56
1, 83317, Control_c, 0, 64, 26
1, 83335, Note_on_c, 0, 72, 70
1, 83374, Note_off_c, 0, 72, 62
1, 83395, Note_on_c, 0, 57, 59
1, 83395, Note_on_c, 0, 74, 59
1, 83425, Note_off_c, 0, 57, 65
1, 83428, Note_off_c, 0, 74, 62
1, 83450, Control_c, 0, 64, 26
1, 83458, Note_on_c, 0, 72, 64
1, 83465, Control_c, 0, 64, 27
1, 83479, Control_c, 0, 64, 27
1, 83495, Note_off_c, 0, 72, 62
1, 83505, Note_on_c, 0, 74, 64
1, 83523, Control_c, 0, 64, 28
1, 83534, Note_on_c, 0, 60, 64
1, 83538, Control_c, 0, 64, 29
1, 83553, Control_c, 0, 64, 31
1, 83558, Note_off_c, 0, 74, 55
1, 83562, Note_off_c, 0, 60, 68
1, 83568, Control_c, 0, 64, 32
1, 83583, Note_on_c, 0, 72, 61
1, 83583, Control_c, 0, 64, 32
1, 83598, Control_c, 0, 64, 31
1, 83613, Control_c, 0, 64, 32
1, 83613, Note_off_c, 0, 72, 63
1, 83628, Control_c, 0, 64, 32
1, 83629, Note_on_c, 0, 74, 54
1, 83675, Note_off_c, 0, 74, 62
1, 83693, Note_on_c, 0, 63, 60
1, 83702, Control_c, 0, 64, 33
1, 83706, Note_on_c, 0, 72, 59
1, 83717, Control_c, 0, 64, 35
1, 83728, Note_off_c, 0, 63, 60
1, 83729, Note_off_c, 0, 72, 61
1, 83746, Control_c, 0, 64, 35
1, 83749, Note_on_c, 0, 74, 52
1, 83791, Control_c, 0, 64, 35
1, 83812, Note_on_c, 0, 72, 67
1, 83823, Note_off_c, 0, 74, 60
1, 83835, Control_c, 0, 64, 35
1, 83836, Note_on_c, 0, 53, 56
1, 83859, Note_off_c, 0, 72, 62
1, 83867, Note_off_c, 0, 53, 66
1, 83879, Note_on_c, 0, 71, 54
1, 83894, Control_c, 0, 64, 34
1, 83909, Control_c, 0, 64, 33
1, 83925, Note_on_c, 0, 72, 58
1, 83925, Note_off_c, 0, 71, 54
1, 83938, Control_c, 0, 64, 33
1, 83953, Control_c, 0, 64, 31
1, 83976, Control_c, 0, 64, 29
1, 83998, Note_off_c, 0, 72, 63
1, 83999, Note_on_c, 0, 77, 72
1, 84000, Note_on_c, 0, 63, 55
1, 84005, Control_c, 0, 64, 30
1, 84025, Note_off_c, 0, 77, 64
1, 84033, Note_off_c, 0, 63, 65
1, 84049, Control_c, 0, 64, 29
1, 84079, Control_c, 0, 64, 30
1, 84125, Control_c, 0, 64, 29
1, 84184, Control_c, 0, 64, 29
1, 84191, Note_on_c, 0, 53, 46
1, 84199, Note_on_c, 0, 77, 55
1, 84221, Note_off_c, 0, 77, 61
1, 84223, Note_off_c, 0, 53, 63
1, 84258, Control_c, 0, 64, 28
1, 84361, Control_c, 0, 64, 25
1, 84376, Control_c, 0, 64, 18
1, 84391, Control_c, 0, 64, 0
1, 84426, Note_on_c, 0, 70, 48
1, 84445, Note_on_c, 0, 62, 25
1, 84457, Note_on_c, 0, 58, 36
1, 84465, Control_c, 0, 64, 23
1, 84480, Control_c, 0, 64, 38
1, 84495, Control_c, 0, 64, 50
1, 84510, Control_c, 0, 64, 56
1, 84514, Note_off_c, 0, 70, 44
1, 84525, Control_c, 0, 64, 58
1, 84539, Control_c, 0, 64, 59
1, 84554, Control_c, 0, 64, 61
1, 84569, Control_c, 0, 64, 62
1, 84584, Control_c, 0, 64, 63
1, 84599, Control_c, 0, 64, 64
1, 84613, Control_c, 0, 64, 64
1, 84647, Note_on_c, 0, 70, 46
1, 84671, Note_off_c, 0, 62, 51
1, 84672, Note_off_c, 0, 58, 53
1, 84672, Control_c, 0, 64, 63
1, 84687, Control_c, 0, 64, 62
1, 84702, Control_c, 0, 64, 59
1, 84724, Control_c, 0, 64, 54
1, 84739, Control_c, 0, 64, 47
1, 84754, Control_c, 0, 64, 39
1, 84769, Control_c, 0, 64, 29
1, 84784, Control_c, 0, 64, 21
1, 84799, Control_c, 0, 64, 16
1, 84811, Note_off_c, 0, 70, 51
1, 84814, Control_c, 0, 64, 13
1, 84828, Control_c, 0, 64, 9
1, 84830, Note_on_c, 0, 71, 55
1, 84843, Control_c, 0, 64, 0
1, 85001, Note_on_c, 0, 72, 55
1, 85043, Note_off_c, 0, 71, 33
1, 85161, Note_on_c, 0, 73, 62
1, 85274, Note_off_c, 0, 72, 27
1, 85339, Note_on_c, 0, 74, 65
1, 85372, Note_off_c, 0, 73, 59
1, 85601, Note_on_c, 0, 75, 65
1, 85616, Note_on_c, 0, 55, 43
1, 85623, Note_on_c, 0, 58, 43
1, 85638, Note_off_c, 0, 74, 60
1, 85874, Control_c, 0, 64, 19
1, 85889, Control_c, 0, 64, 43
1, 85904, Control_c, 0, 64, 54
1, 85918, Control_c, 0, 64, 60
1, 85933, Control_c, 0, 64, 62
1, 85948, Control_c, 0, 64, 63
1, 85963, Control_c, 0, 64, 65
1, 85978, Control_c, 0, 64, 68
1, 85993, Control_c, 0, 64, 74
1, 86008, Control_c, 0, 64, 80
1, 86023, Control_c, 0, 64, 85
1, 86038, Control_c, 0, 64, 90
1, 86052, Control_c, 0, 64, 95
1, 86067, Control_c, 0, 64, 99
1, 86082, Control_c, 0, 64, 103
1, 86097, Control_c, 0, 64, 107
1, 86112, Control_c, 0, 64, 112
1, 86126, Control_c, 0, 64, 120
1, 86141, Control_c, 0, 64, 127
1, 86154, Note_off_c, 0, 55, 35
1, 86228, Note_off_c, 0, 75, 43
1, 86272, Note_off_c, 0, 58, 29
1, 86638, Control_c, 0, 64, 124
1, 86653, Control_c, 0, 64, 116
1, 86668, Control_c, 0, 64, 111
1, 86683, Control_c, 0, 64, 109
1, 86698, Note_on_c, 0, 67, 46
1, 86698, Control_c, 0, 64, 107
1, 86701, Note_on_c, 0, 51, 41
1, 86704, Note_on_c, 0, 63, 34
1, 86709, Note_on_c, 0, 60, 27
1, 86713, Control_c, 0, 64, 102
1, 86728, Control_c, 0, 64, 95
1, 86741, Control_c, 0, 64, 88
1, 86756, Control_c, 0, 64, 83
1, 86771, Control_c, 0, 64, 79
1, 86786, Control_c, 0, 64, 76
1, 86801, Control_c, 0, 64, 71
1, 86815, Control_c, 0, 64, 65
1, 86830, Control_c, 0, 64, 57
1, 86845, Control_c, 0, 64, 47
1, 86860, Control_c, 0, 64, 35
1, 86874, Control_c, 0, 64, 20
1, 86889, Control_c, 0, 64, 0
1, 86919, Control_c, 0, 64, 18
1, 86934, Control_c, 0, 64, 36
1, 86948, Control_c, 0, 64, 52
1, 86971, Control_c, 0, 64, 62
1, 86986, Control_c, 0, 64, 66
1, 87001, Control_c, 0, 64, 69
1, 87016, Control_c, 0, 64, 74
1, 87030, Control_c, 0, 64, 80
1, 87045, Control_c, 0, 64, 88
1, 87060, Control_c, 0, 64, 96
1, 87074, Control_c, 0, 64, 105
1, 87089, Control_c, 0, 64, 117
1, 87104, Control_c, 0, 64, 127
1, 87235, Note_off_c, 0, 67, 62
1, 87240, Note_off_c, 0, 63, 41
1, 87254, Note_off_c, 0, 60, 39
1, 87264, Note_off_c, 0, 51, 56
1, 87594, Control_c, 0, 64, 115
1, 87609, Control_c, 0, 64, 97
1, 87624, Control_c, 0, 64, 87
1, 87627, Note_on_c, 0, 60, 42
1, 87628, Note_on_c, 0, 70, 53
1, 87638, Control_c, 0, 64, 78
1, 87644, Note_on_c, 0, 53, 43
1, 87649, Note_on_c, 0, 63, 33
1, 87653, Control_c, 0, 64, 71
1, 87668, Control_c, 0, 64, 65
1, 87683, Control_c, 0, 64, 59
1, 87697, Control_c, 0, 64, 52
1, 87701, Note_off_c, 0, 63, 42
1, 87720, Control_c, 0, 64, 46
1, 87735, Control_c, 0, 64, 42
1, 87750, Control_c, 0, 64, 39
1, 87765, Control_c, 0, 64, 38
1, 87779, Control_c, 0, 64, 36
1, 87794, Control_c, 0, 64, 34
1, 87796, Note_off_c, 0, 60, 43
1, 87807, Note_off_c, 0, 53, 25
1, 87809, Control_c, 0, 64, 31
1, 87812, Note_on_c, 0, 69, 49
1, 87823, Control_c, 0, 64, 28
1, 87838, Control_c, 0, 64, 26
1, 87849, Note_off_c, 0, 69, 61
1, 87853, Control_c, 0, 64, 26
1, 87857, Note_off_c, 0, 70, 47
1, 87897, Control_c, 0, 64, 26
1, 87957, Control_c, 0, 64, 27
1, 87971, Control_c, 0, 64, 29
1, 87975, Note_on_c, 0, 70, 52
1, 87977, Note_on_c, 0, 69, 54
1, 87985, Note_on_c, 0, 53, 47
1, 87986, Control_c, 0, 64, 31
1, 87990, Note_on_c, 0, 60, 39
1, 88001, Control_c, 0, 64, 32
1, 88042, Poly_aftertouch_c, 0, 63, 127
1, 88042, Note_off_c, 0, 70, 47
1, 88045, Control_c, 0, 64, 33
1, 88060, Control_c, 0, 64, 34
1, 88075, Control_c, 0, 64, 37
1, 88077, Poly_aftertouch_c, 0, 63, 0
1, 88091, Control_c, 0, 64, 39
1, 88120, Control_c, 0, 64, 38
1, 88132, Note_on_c, 0, 67, 55
1, 88144, Note_off_c, 0, 53, 49
1, 88154, Note_off_c, 0, 60, 48
1, 88186, Note_off_c, 0, 69, 34
1, 88235, Note_off_c, 0, 67, 34
1, 88239, Control_c, 0, 64, 38
1, 88254, Control_c, 0, 64, 36
1, 88269, Control_c, 0, 64, 34
1, 88284, Control_c, 0, 64, 33
1, 88292, Note_on_c, 0, 60, 54
1, 88294, Note_on_c, 0, 69, 57
1, 88302, Note_on_c, 0, 53, 37
1, 88307, Note_on_c, 0, 63, 45
1, 88328, Control_c, 0, 64, 32
1, 88343, Control_c, 0, 64, 31
1, 88358, Control_c, 0, 64, 28
1, 88373, Control_c, 0, 64, 25
1, 88387, Control_c, 0, 64, 24
1, 88418, Note_off_c, 0, 63, 0
1, 88432, Control_c, 0, 64, 21
1, 88446, Control_c, 0, 64, 14
1, 88451, Note_on_c, 0, 57, 56
1, 88451, Note_off_c, 0, 69, 32
1, 88454, Note_on_c, 0, 72, 59
1, 88454, Poly_aftertouch_c, 0, 63, 127
1, 88467, Note_off_c, 0, 60, 60
1, 88468, Control_c, 0, 64, 0
1, 88483, Note_off_c, 0, 53, 57
1, 88483, Note_off_c, 0, 57, 64
1, 88498, Note_off_c, 0, 72, 59
1, 88501, Poly_aftertouch_c, 0, 63, 0
1, 88632, Control_c, 0, 64, 42
1, 88644, Note_on_c, 0, 70, 62
1, 88646, Control_c, 0, 64, 58
1, 88657, Note_on_c, 0, 46, 55
1, 88661, Control_c, 0, 64, 65
1, 88663, Note_on_c, 0, 62, 46
1, 88667, Note_on_c, 0, 58, 39
1, 88676, Control_c, 0, 64, 69
1, 88691, Control_c, 0, 64, 74
1, 88703, Note_off_c, 0, 46, 62
1, 88704, Note_off_c, 0, 62, 61
1, 88706, Control_c, 0, 64, 80
1, 88713, Note_off_c, 0, 58, 45
1, 88720, Control_c, 0, 64, 86
1, 88735, Control_c, 0, 64, 93
1, 88736, Note_off_c, 0, 70, 56
1, 88750, Control_c, 0, 64, 99
1, 88765, Control_c, 0, 64, 104
1, 88780, Control_c, 0, 64, 108
1, 88794, Control_c, 0, 64, 113
1, 88809, Control_c, 0, 64, 116
1, 88824, Control_c, 0, 64, 117
1, 88826, Note_on_c, 0, 58, 62
1, 88836, Note_on_c, 0, 70, 66
1, 88838, Control_c, 0, 64, 119
1, 88853, Control_c, 0, 64, 122
1, 88868, Control_c, 0, 64, 127
1, 88970, Note_off_c, 0, 70, 56
1, 88981, Note_on_c, 0, 71, 75
1, 88989, Note_on_c, 0, 59, 71
1, 89003, Control_c, 0, 64, 118
1, 89017, Control_c, 0, 64, 114
1, 89031, Note_off_c, 0, 58, 54
1, 89032, Control_c, 0, 64, 112
1, 89047, Control_c, 0, 64, 107
1, 89062, Control_c, 0, 64, 100
1, 89077, Control_c, 0, 64, 91
1, 89092, Control_c, 0, 64, 82
1, 89106, Control_c, 0, 64, 74
1, 89121, Control_c, 0, 64, 66
1, 89136, Control_c, 0, 64, 59
1, 89148, Note_on_c, 0, 72, 73
1, 89151, Note_on_c, 0, 60, 70
1, 89151, Control_c, 0, 64, 49
1, 89151, Note_off_c, 0, 59, 63
1, 89166, Control_c, 0, 64, 43
1, 89181, Control_c, 0, 64, 39
1, 89196, Control_c, 0, 64, 33
1, 89217, Control_c, 0, 64, 22
1, 89232, Control_c, 0, 64, 0
1, 89261, Note_off_c, 0, 71, 31
1, 89323, Note_on_c, 0, 73, 80
1, 89334, Note_on_c, 0, 61, 72
1, 89360, Note_off_c, 0, 60, 62
1, 89428, Note_off_c, 0, 72, 33
1, 89497, Note_on_c, 0, 74, 81
1, 89504, Note_on_c, 0, 62, 74
1, 89533, Note_off_c, 0, 73, 64
1, 89538, Note_off_c, 0, 61, 58
1, 89741, Note_on_c, 0, 75, 79
1, 89747, Note_on_c, 0, 63, 74
1, 89782, Note_off_c, 0, 74, 61
1, 89816, Note_off_c, 0, 62, 57
1, 90130, Control_c, 0, 64, 8
1, 90145, Control_c, 0, 64, 36
1, 90159, Control_c, 0, 64, 52
1, 90174, Control_c, 0, 64, 61
1, 90189, Control_c, 0, 64, 64
1, 90204, Control_c, 0, 64, 65
1, 90218, Control_c, 0, 64, 68
1, 90233, Control_c, 0, 64, 72
1, 90248, Control_c, 0, 64, 79
1, 90263, Control_c, 0, 64, 89
1, 90278, Control_c, 0, 64, 105
1, 90293, Control_c, 0, 64, 127
1, 90363, Note_off_c, 0, 63, 60
1, 90425, Note_off_c, 0, 75, 35
1, 90870, Note_on_c, 0, 67, 74
1, 90874, Note_on_c, 0, 63, 63
1, 90878, Note_on_c, 0, 51, 60
1, 90880, Note_on_c, 0, 55, 62
1, 90937, Control_c, 0, 64, 119
1, 90952, Control_c, 0, 64, 87
1, 90966, Control_c, 0, 64, 70
1, 90981, Control_c, 0, 64, 55
1, 90996, Control_c, 0, 64, 40
1, 91011, Control_c, 0, 64, 30
1, 91026, Control_c, 0, 64, 24
1, 91041, Control_c, 0, 64, 20
1, 91056, Control_c, 0, 64, 12
1, 91071, Control_c, 0, 64, 0
1, 91649, Note_on_c, 0, 68, 55
1, 91665, Note_on_c, 0, 56, 48
1, 91742, Note_off_c, 0, 55, 36
1, 91849, Control_c, 0, 64, 8
1, 91863, Control_c, 0, 64, 38
1, 91878, Control_c, 0, 64, 53
1, 91893, Control_c, 0, 64, 62
1, 91908, Control_c, 0, 64, 65
1, 91919, Note_on_c, 0, 70, 63
1, 91923, Control_c, 0, 64, 68
1, 91934, Note_off_c, 0, 67, 27
1, 91935, Note_on_c, 0, 58, 52
1, 91937, Control_c, 0, 64, 73
1, 91952, Control_c, 0, 64, 79
1, 91967, Control_c, 0, 64, 86
1, 91981, Control_c, 0, 64, 93
1, 91983, Note_off_c, 0, 68, 48
1, 91996, Control_c, 0, 64, 99
1, 92004, Note_off_c, 0, 56, 23
1, 92009, Note_off_c, 0, 51, 24
1, 92011, Control_c, 0, 64, 105
1, 92017, Note_off_c, 0, 63, 57
1, 92026, Control_c, 0, 64, 115
1, 92041, Control_c, 0, 64, 127
1, 92042, Note_off_c, 0, 70, 53
1, 92057, Note_off_c, 0, 58, 33
1, 92434, Control_c, 0, 64, 101
1, 92443, Note_on_c, 0, 72, 57
1, 92449, Control_c, 0, 64, 80
1, 92452, Note_on_c, 0, 63, 49
1, 92464, Control_c, 0, 64, 65
1, 92467, Note_on_c, 0, 60, 46
1, 92471, Note_on_c, 0, 44, 40
1, 92472, Note_on_c, 0, 56, 32
1, 92473, Note_on_c, 0, 53, 44
1, 92479, Note_on_c, 0, 51, 45
1, 92479, Control_c, 0, 64, 51
1, 92493, Control_c, 0, 64, 36
1, 92508, Control_c, 0, 64, 38
1, 92523, Control_c, 0, 64, 51
1, 92537, Control_c, 0, 64, 63
1, 92552, Control_c, 0, 64, 71
1, 92567, Control_c, 0, 64, 81
1, 92582, Control_c, 0, 64, 95
1, 92597, Control_c, 0, 64, 105
1, 92599, Note_off_c, 0, 72, 32
1, 92612, Control_c, 0, 64, 112
1, 92627, Control_c, 0, 64, 127
1, 92659, Note_off_c, 0, 63, 30
1, 92746, Note_on_c, 0, 65, 47
1, 92770, Note_off_c, 0, 65, 59
1, 92822, Note_off_c, 0, 60, 27
1, 92840, Note_on_c, 0, 65, 54
1, 92912, Note_off_c, 0, 56, 35
1, 93002, Note_off_c, 0, 53, 36
1, 93003, Note_off_c, 0, 44, 25
1, 93020, Note_off_c, 0, 65, 45
1, 93030, Note_off_c, 0, 51, 34
1, 93139, Control_c, 0, 64, 109
1, 93154, Control_c, 0, 64, 97
1, 93168, Control_c, 0, 64, 89
1, 93183, Control_c, 0, 64, 82
1, 93198, Control_c, 0, 64, 75
1, 93213, Control_c, 0, 64, 68
1, 93228, Control_c, 0, 64, 61
1, 93242, Control_c, 0, 64, 56
1, 93257, Control_c, 0, 64, 52
1, 93272, Control_c, 0, 64, 48
1, 93287, Control_c, 0, 64, 45
1, 93302, Control_c, 0, 64, 42
1, 93316, Control_c, 0, 64, 37
1, 93331, Control_c, 0, 64, 26
1, 93346, Control_c, 0, 64, 8
1, 93360, Control_c, 0, 64, 0
1, 93583, Control_c, 0, 64, 14
1, 93598, Control_c, 0, 64, 24
1, 93613, Control_c, 0, 64, 32
1, 93627, Control_c, 0, 64, 41
1, 93642, Control_c, 0, 64, 49
1, 93657, Control_c, 0, 64, 55
1, 93673, Control_c, 0, 64, 59
1, 93683, Note_on_c, 0, 72, 51
1, 93685, Note_on_c, 0, 63, 46
1, 93688, Control_c, 0, 64, 62
1, 93710, Control_c, 0, 64, 65
1, 93715, Note_on_c, 0, 53, 38
1, 93715, Note_on_c, 0, 60, 34
1, 93718, Note_on_c, 0, 51, 41
1, 93719, Note_on_c, 0, 44, 33
1, 93722, Note_on_c, 0, 56, 26
1, 93725, Control_c, 0, 64, 68
1, 93739, Control_c, 0, 64, 73
1, 93754, Control_c, 0, 64, 80
1, 93769, Control_c, 0, 64, 89
1, 93783, Control_c, 0, 64, 98
1, 93798, Control_c, 0, 64, 107
1, 93813, Control_c, 0, 64, 117
1, 93828, Control_c, 0, 64, 127
1, 93831, Note_off_c, 0, 72, 34
1, 93862, Note_off_c, 0, 63, 31
1, 93983, Note_on_c, 0, 65, 42
1, 94010, Note_off_c, 0, 65, 55
1, 94061, Note_off_c, 0, 60, 25
1, 94085, Note_on_c, 0, 65, 54
1, 94192, Note_off_c, 0, 56, 40
1, 94228, Note_off_c, 0, 65, 25
1, 94260, Note_off_c, 0, 53, 0
1, 94277, Note_off_c, 0, 44, 28
1, 94302, Poly_aftertouch_c, 0, 53, 0
1, 94312, Note_off_c, 0, 51, 40
1, 94457, Control_c, 0, 64, 108
1, 94472, Control_c, 0, 64, 90
1, 94488, Control_c, 0, 64, 77
1, 94503, Control_c, 0, 64, 67
1, 94518, Control_c, 0, 64, 61
1, 94532, Control_c, 0, 64, 54
1, 94547, Control_c, 0, 64, 49
1, 94562, Control_c, 0, 64, 45
1, 94577, Control_c, 0, 64, 42
1, 94592, Control_c, 0, 64, 36
1, 94606, Control_c, 0, 64, 26
1, 94621, Control_c, 0, 64, 0
1, 94799, Control_c, 0, 64, 24
1, 94814, Control_c, 0, 64, 36
1, 94829, Control_c, 0, 64, 46
1, 94844, Control_c, 0, 64, 54
1, 94859, Control_c, 0, 64, 59
1, 94874, Control_c, 0, 64, 61
1, 94888, Control_c, 0, 64, 62
1, 94903, Control_c, 0, 64, 64
1, 94918, Control_c, 0, 64, 66
1, 94932, Control_c, 0, 64, 69
1, 94947, Control_c, 0, 64, 72
1, 94962, Control_c, 0, 64, 77
1, 94977, Control_c, 0, 64, 82
1, 94992, Control_c, 0, 64, 86
1, 95006, Control_c, 0, 64, 91
1, 95021, Control_c, 0, 64, 96
1, 95029, Note_on_c, 0, 65, 43
1, 95036, Control_c, 0, 64, 102
1, 95044, Note_on_c, 0, 60, 42
1, 95051, Control_c, 0, 64, 116
1, 95056, Note_on_c, 0, 44, 34
1, 95060, Note_on_c, 0, 32, 30
1, 95066, Control_c, 0, 64, 127
1, 95068, Note_on_c, 0, 36, 35
1, 95073, Note_on_c, 0, 53, 12
1, 95075, Note_on_c, 0, 63, 27
1, 95146, Note_off_c, 0, 60, 0
1, 95190, Poly_aftertouch_c, 0, 60, 0
1, 95234, Note_off_c, 0, 63, 22
1, 95263, Note_off_c, 0, 65, 41
1, 95275, Note_off_c, 0, 53, 17
1, 95316, Note_off_c, 0, 36, 34
1, 95325, Note_off_c, 0, 32, 36
1, 95327, Note_off_c, 0, 44, 33
1, 95508, Note_on_c, 0, 65, 51
1, 95518, Note_on_c, 0, 60, 50
1, 95535, Note_on_c, 0, 53, 33
1, 95536, Note_on_c, 0, 44, 37
1, 95539, Note_on_c, 0, 32, 27
1, 95549, Note_on_c, 0, 63, 30
1, 95555, Note_on_c, 0, 36, 38
1, 95619, Note_off_c, 0, 63, 36
1, 95624, Note_off_c, 0, 60, 0
1, 95667, Poly_aftertouch_c, 0, 60, 0
1, 95717, Note_off_c, 0, 53, 20
1, 95719, Note_off_c, 0, 65, 27
1, 95724, Note_off_c, 0, 36, 47
1, 95734, Note_off_c, 0, 44, 34
1, 95745, Note_off_c, 0, 32, 34
1, 95878, Note_on_c, 0, 65, 61
1, 95886, Note_on_c, 0, 60, 57
1, 95887, Note_on_c, 0, 44, 51
1, 95890, Note_on_c, 0, 53, 50
1, 95894, Note_on_c, 0, 32, 44
1, 95900, Note_on_c, 0, 63, 51
1, 95903, Note_on_c, 0, 36, 46
1, 96020, Note_off_c, 0, 65, 59
1, 96038, Note_off_c, 0, 53, 30
1, 96052, Note_off_c, 0, 60, 31
1, 96058, Note_off_c, 0, 63, 55
1, 96091, Note_off_c, 0, 36, 48
1, 96111, Note_off_c, 0, 32, 37
1, 96124, Note_off_c, 0, 44, 31
1, 96348, Note_on_c, 0, 66, 62
1, 96350, Note_on_c, 0, 60, 61
1, 96352, Note_on_c, 0, 63, 57
1, 96362, Note_on_c, 0, 54, 55
1, 96366, Note_on_c, 0, 44, 58
1, 96378, Note_on_c, 0, 36, 54
1, 96380, Note_on_c, 0, 32, 50
1, 96386, Control_c, 0, 64, 122
1, 96401, Control_c, 0, 64, 100
1, 96416, Control_c, 0, 64, 90
1, 96430, Control_c, 0, 64, 80
1, 96445, Control_c, 0, 64, 69
1, 96460, Control_c, 0, 64, 59
1, 96475, Control_c, 0, 64, 42
1, 96490, Control_c, 0, 64, 0
1, 96565, Control_c, 0, 64, 34
1, 96579, Control_c, 0, 64, 53
1, 96594, Control_c, 0, 64, 65
1, 96609, Control_c, 0, 64, 71
1, 96623, Control_c, 0, 64, 80
1, 96638, Control_c, 0, 64, 93
1, 96653, Control_c, 0, 64, 113
1, 96668, Control_c, 0, 64, 127
1, 97146, Note_off_c, 0, 54, 36
1, 97164, Note_off_c, 0, 60, 34
1, 97175, Note_off_c, 0, 63, 35
1, 97179, Note_off_c, 0, 36, 59
1, 97190, Note_off_c, 0, 66, 31
1, 97197, Note_off_c, 0, 32, 41
1, 97253, Note_off_c, 0, 44, 31
1, 97566, Note_on_c, 0, 60, 65
1, 97571, Note_on_c, 0, 66, 67
1, 97575, Note_on_c, 0, 44, 60
1, 97578, Note_on_c, 0, 63, 58
1, 97580, Note_on_c, 0, 54, 65
1, 97581, Note_on_c, 0, 36, 58
1, 97591, Note_on_c, 0, 32, 51
1, 97616, Control_c, 0, 64, 82
1, 97631, Control_c, 0, 64, 65
1, 97646, Control_c, 0, 64, 50
1, 97660, Control_c, 0, 64, 43
1, 97676, Control_c, 0, 64, 53
1, 97691, Control_c, 0, 64, 65
1, 97706, Control_c, 0, 64, 81
1, 97721, Control_c, 0, 64, 127
1, 97854, Note_off_c, 0, 66, 0
1, 97859, Note_off_c, 0, 60, 35
1, 97877, Note_off_c, 0, 63, 35
1, 97882, Note_off_c, 0, 36, 34
1, 97885, Note_off_c, 0, 54, 29
1, 97904, Note_off_c, 0, 32, 34
1, 97904, Note_off_c, 0, 44, 35
1, 97927, Poly_aftertouch_c, 0, 66, 0
1, 98016, Note_on_c, 0, 66, 82
1, 98019, Note_on_c, 0, 44, 77
1, 98020, Note_on_c, 0, 60, 70
1, 98020, Note_on_c, 0, 54, 73
1, 98022, Note_on_c, 0, 63, 62
1, 98031, Note_on_c, 0, 36, 67
1, 98032, Note_on_c, 0, 32, 63
1, 98256, Note_off_c, 0, 63, 50
1, 98268, Note_off_c, 0, 60, 35
1, 98270, Note_off_c, 0, 36, 48
1, 98271, Note_off_c, 0, 54, 32
1, 98275, Note_off_c, 0, 44, 52
1, 98300, Note_off_c, 0, 32, 32
1, 98304, Note_off_c, 0, 66, 32
1, 98439, Note_on_c, 0, 66, 76
1, 98441, Note_on_c, 0, 60, 75
1, 98444, Note_on_c, 0, 54, 78
1, 98446, Note_on_c, 0, 44, 77
1, 98449, Note_on_c, 0, 63, 71
1, 98450, Note_on_c, 0, 36, 69
1, 98456, Note_on_c, 0, 32, 63
1, 98650, Note_off_c, 0, 54, 61
1, 98667, Note_off_c, 0, 60, 55
1, 98682, Note_off_c, 0, 63, 54
1, 98702, Note_off_c, 0, 66, 47
1, 98705, Note_off_c, 0, 36, 35
1, 98747, Note_off_c, 0, 32, 50
1, 98788, Note_off_c, 0, 44, 29
1, 99003, Note_on_c, 0, 43, 80
1, 99003, Note_on_c, 0, 67, 80
1, 99006, Note_on_c, 0, 55, 83
1, 99006, Note_on_c, 0, 60, 80
1, 99011, Note_on_c, 0, 63, 73
1, 99012, Note_on_c, 0, 36, 71
1, 99015, Note_on_c, 0, 31, 69
1, 99039, Control_c, 0, 64, 117
1, 99054, Control_c, 0, 64, 86
1, 99069, Control_c, 0, 64, 70
1, 99084, Control_c, 0, 64, 58
1, 99098, Control_c, 0, 64, 41
1, 99113, Control_c, 0, 64, 18
1, 99128, Control_c, 0, 64, 0
1, 99277, Control_c, 0, 64, 20
1, 99292, Control_c, 0, 64, 45
1, 99307, Control_c, 0, 64, 59
1, 99322, Control_c, 0, 64, 66
1, 99337, Control_c, 0, 64, 74
1, 99352, Control_c, 0, 64, 86
1, 99367, Control_c, 0, 64, 106
1, 99382, Control_c, 0, 64, 127
1, 99885, Note_off_c, 0, 60, 53
1, 99899, Note_off_c, 0, 63, 47
1, 99908, Note_off_c, 0, 55, 32
1, 99913, Note_off_c, 0, 31, 55
1, 99913, Note_off_c, 0, 67, 31
1, 99961, Note_off_c, 0, 36, 31
1, 100010, Note_off_c, 0, 43, 30
1, 100225, Note_on_c, 0, 67, 81
1, 100226, Note_on_c, 0, 43, 80
1, 100227, Note_on_c, 0, 60, 80
1, 100230, Note_on_c, 0, 63, 70
1, 100231, Note_on_c, 0, 55, 80
1, 100234, Note_on_c, 0, 31, 68
1, 100238, Note_on_c, 0, 36, 71
1, 100264, Control_c, 0, 64, 107
1, 100279, Control_c, 0, 64, 79
1, 100294, Control_c, 0, 64, 63
1, 100309, Control_c, 0, 64, 47
1, 100324, Control_c, 0, 64, 36
1, 100338, Control_c, 0, 64, 44
1, 100353, Control_c, 0, 64, 63
1, 100368, Control_c, 0, 64, 78
1, 100383, Control_c, 0, 64, 127
1, 100523, Note_off_c, 0, 60, 57
1, 100529, Note_off_c, 0, 55, 51
1, 100536, Note_off_c, 0, 63, 53
1, 100539, Note_off_c, 0, 36, 56
1, 100539, Note_off_c, 0, 43, 60
1, 100550, Note_off_c, 0, 31, 50
1, 100572, Note_off_c, 0, 67, 33
1, 100660, Note_on_c, 0, 55, 86
1, 100661, Note_on_c, 0, 60, 81
1, 100663, Note_on_c, 0, 67, 89
1, 100664, Note_on_c, 0, 43, 84
1, 100667, Note_on_c, 0, 63, 80
1, 100669, Note_on_c, 0, 36, 79
1, 100675, Note_on_c, 0, 31, 77
1, 100923, Note_off_c, 0, 67, 55
1, 100931, Note_off_c, 0, 60, 54
1, 100933, Note_off_c, 0, 63, 56
1, 100944, Note_off_c, 0, 36, 56
1, 100953, Note_off_c, 0, 43, 60
1, 100961, Note_off_c, 0, 55, 31
1, 100961, Note_off_c, 0, 31, 57
1, 101092, Note_on_c, 0, 67, 88
1, 101093, Note_on_c, 0, 43, 89
1, 101093, Note_on_c, 0, 55, 88
1, 101094, Note_on_c, 0, 60, 78
1, 101097, Note_on_c, 0, 31, 78
1, 101101, Note_on_c, 0, 36, 79
1, 101101, Note_on_c, 0, 63, 77
1, 101278, Note_off_c, 0, 55, 62
1, 101302, Note_off_c, 0, 67, 57
1, 101304, Note_off_c, 0, 60, 62
1, 101321, Note_off_c, 0, 31, 61
1, 101325, Note_off_c, 0, 63, 61
1, 101329, Note_off_c, 0, 43, 61
1, 101357, Note_off_c, 0, 36, 62
1, 101612, Control_c, 0, 64, 82
1, 101626, Control_c, 0, 64, 56
1, 101632, Note_on_c, 0, 42, 87
1, 101635, Note_on_c, 0, 30, 75
1, 101637, Note_on_c, 0, 60, 71
1, 101639, Note_on_c, 0, 36, 72
1, 101640, Note_on_c, 0, 57, 86
1, 101640, Note_on_c, 0, 63, 67
1, 101640, Note_on_c, 0, 69, 83
1, 101641, Control_c, 0, 64, 0
1, 101670, Note_off_c, 0, 57, 67
1, 101680, Note_off_c, 0, 60, 63
1, 101687, Control_c, 0, 64, 48
1, 101695, Note_off_c, 0, 63, 64
1, 101702, Control_c, 0, 64, 70
1, 101704, Note_off_c, 0, 69, 66
1, 101716, Control_c, 0, 64, 102
1, 101731, Control_c, 0, 64, 127
1, 101960, Note_off_c, 0, 42, 63
1, 101962, Note_on_c, 0, 87, 82
1, 101970, Note_off_c, 0, 36, 62
1, 101975, Note_off_c, 0, 30, 62
1, 101990, Control_c, 0, 64, 80
1, 102005, Control_c, 0, 64, 63
1, 102020, Control_c, 0, 64, 48
1, 102035, Control_c, 0, 64, 35
1, 102049, Control_c, 0, 64, 32
1, 102079, Control_c, 0, 64, 32
1, 102094, Control_c, 0, 64, 33
1, 102109, Control_c, 0, 64, 35
1, 102124, Control_c, 0, 64, 38
1, 102139, Control_c, 0, 64, 41
1, 102145, Note_off_c, 0, 87, 0
1, 102154, Control_c, 0, 64, 42
1, 102165, Note_on_c, 0, 81, 75
1, 102183, Control_c, 0, 64, 41
1, 102187, Note_off_c, 0, 81, 69
1, 102198, Control_c, 0, 64, 39
1, 102203, Poly_aftertouch_c, 0, 87, 0
1, 102213, Control_c, 0, 64, 35
1, 102228, Control_c, 0, 64, 29
1, 102231, Note_on_c, 0, 81, 86
1, 102242, Control_c, 0, 64, 28
1, 102287, Control_c, 0, 64, 27
1, 102302, Control_c, 0, 64, 27
1, 102316, Control_c, 0, 64, 26
1, 102331, Control_c, 0, 64, 25
1, 102346, Control_c, 0, 64, 26
1, 102361, Control_c, 0, 64, 27
1, 102373, Note_off_c, 0, 81, 64
1, 102375, Control_c, 0, 64, 26
1, 102390, Control_c, 0, 64, 26
1, 102435, Control_c, 0, 64, 24
1, 102449, Control_c, 0, 64, 21
1, 102465, Control_c, 0, 64, 13
1, 102480, Control_c, 0, 64, 0
1, 102503, Note_on_c, 0, 59, 88
1, 102505, Note_on_c, 0, 53, 76
1, 102770, Note_off_c, 0, 59, 66
1, 102782, Note_off_c, 0, 53, 64
1, 102794, Note_on_c, 0, 68, 81
1, 102985, Note_on_c, 0, 62, 80
1, 103009, Note_off_c, 0, 62, 68
1, 103033, Note_off_c, 0, 68, 46
1, 103061, Note_on_c, 0, 62, 93
1, 103228, Note_off_c, 0, 62, 65
1, 103342, Note_on_c, 0, 43, 87
1, 103346, Note_on_c, 0, 39, 81
1, 103617, Note_off_c, 0, 43, 64
1, 103633, Note_on_c, 0, 55, 82
1, 103635, Note_off_c, 0, 39, 64
1, 103847, Note_on_c, 0, 48, 71
1, 103853, Note_off_c, 0, 55, 58
1, 103874, Note_off_c, 0, 48, 65
1, 103917, Note_on_c, 0, 48, 87
1, 104110, Note_off_c, 0, 48, 63
1, 104217, Note_on_c, 0, 41, 88
1, 104418, Note_on_c, 0, 35, 74
1, 104434, Note_off_c, 0, 41, 64
1, 104452, Note_off_c, 0, 35, 66
1, 104502, Note_on_c, 0, 35, 93
1, 104745, Note_off_c, 0, 35, 64
1, 104787, Note_on_c, 0, 53, 76
1, 104789, Note_on_c, 0, 55, 75
1, 104789, Note_on_c, 0, 50, 75
1, 104932, Note_off_c, 0, 50, 60
1, 104974, Note_off_c, 0, 53, 63
1, 104985, Note_off_c, 0, 55, 61
1, 105079, Note_on_c, 0, 36, 82
1, 105216, Note_off_c, 0, 36, 63
1, 105239, Note_on_c, 0, 48, 47
1, 105266, Note_off_c, 0, 48, 55
1, 105372, Note_on_c, 0, 48, 61
1, 105416, Note_off_c, 0, 48, 61
1, 105527, Note_on_c, 0, 48, 61
1, 105565, Note_off_c, 0, 48, 62
1, 105678, Note_on_c, 0, 48, 49
1, 105731, Note_off_c, 0, 48, 61
1, 105844, Note_on_c, 0, 48, 47
1, 105877, Note_off_c, 0, 48, 60
1, 105946, Note_on_c, 0, 83, 59
1, 105982, Note_on_c, 0, 84, 56
1, 105986, Note_off_c, 0, 83, 59
1, 105987, Note_on_c, 0, 57, 36
1, 105994, Note_on_c, 0, 60, 46
1, 106148, Note_on_c, 0, 48, 44
1, 106179, Note_off_c, 0, 48, 52
1, 106200, Note_on_c, 0, 77, 65
1, 106207, Note_off_c, 0, 84, 33
1, 106228, Note_off_c, 0, 77, 65
1, 106268, Note_on_c, 0, 48, 56
1, 106270, Note_on_c, 0, 77, 66
1, 106319, Note_off_c, 0, 48, 59
1, 106446, Note_on_c, 0, 48, 50
1, 106475, Note_off_c, 0, 77, 60
1, 106490, Note_off_c, 0, 48, 57
1, 106589, Note_on_c, 0, 48, 55
1, 106629, Note_off_c, 0, 48, 62
1, 106727, Note_on_c, 0, 48, 52
1, 106749, Note_off_c, 0, 60, 60
1, 106756, Note_off_c, 0, 57, 48
1, 106773, Note_off_c, 0, 48, 60
1, 106835, Note_on_c, 0, 71, 50
1, 106855, Note_on_c, 0, 59, 47
1, 106870, Note_on_c, 0, 72, 54
1, 106878, Note_off_c, 0, 71, 61
1, 106879, Note_on_c, 0, 55, 30
1, 106922, Note_on_c, 0, 48, 3
1, 106965, Note_off_c, 0, 48, 30
1, 107008, Note_on_c, 0, 48, 38
1, 107051, Note_off_c, 0, 48, 62
1, 107064, Note_off_c, 0, 72, 32
1, 107086, Note_on_c, 0, 64, 48
1, 107113, Note_off_c, 0, 64, 54
1, 107150, Note_on_c, 0, 48, 61
1, 107153, Note_on_c, 0, 64, 59
1, 107203, Note_off_c, 0, 48, 61
1, 107308, Note_on_c, 0, 48, 59
1, 107355, Note_off_c, 0, 64, 57
1, 107355, Note_off_c, 0, 48, 60
1, 107468, Note_on_c, 0, 48, 55
1, 107509, Note_off_c, 0, 48, 62
1, 107606, Note_on_c, 0, 48, 51
1, 107635, Note_off_c, 0, 59, 58
1, 107636, Note_off_c, 0, 55, 59
1, 107651, Note_off_c, 0, 48, 60
1, 107757, Note_on_c, 0, 72, 52
1, 107758, Note_on_c, 0, 57, 46
1, 107761, Note_on_c, 0, 48, 36
1, 107773, Note_on_c, 0, 53, 44
1, 107812, Note_on_c, 0, 62, 46
1, 107812, Note_off_c, 0, 48, 46
1, 107848, Note_off_c, 0, 62, 58
1, 107865, Note_off_c, 0, 72, 33
1, 107885, Note_on_c, 0, 48, 48
1, 107902, Note_off_c, 0, 57, 60
1, 107907, Note_off_c, 0, 53, 54
1, 107925, Note_off_c, 0, 48, 62
1, 108048, Note_on_c, 0, 56, 56
1, 108053, Note_on_c, 0, 72, 57
1, 108053, Note_on_c, 0, 53, 45
1, 108117, Note_on_c, 0, 62, 58
1, 108122, Note_off_c, 0, 72, 52
1, 108154, Note_off_c, 0, 62, 64
1, 108164, Note_off_c, 0, 56, 55
1, 108166, Note_off_c, 0, 53, 41
1, 108178, Note_on_c, 0, 48, 51
1, 108217, Note_off_c, 0, 48, 61
1, 108308, Note_on_c, 0, 53, 44
1, 108332, Note_on_c, 0, 55, 40
1, 108333, Note_on_c, 0, 71, 44
1, 108378, Note_off_c, 0, 71, 47
1, 108395, Note_on_c, 0, 62, 52
1, 108431, Note_off_c, 0, 62, 64
1, 108443, Note_on_c, 0, 48, 49
1, 108451, Note_off_c, 0, 55, 34
1, 108462, Note_off_c, 0, 53, 33
1, 108480, Note_off_c, 0, 48, 61
1, 108604, Note_on_c, 0, 72, 57
1, 108610, Note_on_c, 0, 55, 37
1, 108616, Note_on_c, 0, 52, 45
1, 108667, Note_on_c, 0, 60, 54
1, 108690, Poly_aftertouch_c, 0, 48, 0
1, 108704, Note_off_c, 0, 52, 47
1, 108715, Note_off_c, 0, 60, 61
1, 108742, Note_off_c, 0, 55, 30
1, 108742, Note_off_c, 0, 72, 43
1, 108762, Note_on_c, 0, 48, 46
1, 108809, Note_off_c, 0, 48, 59
1, 108914, Note_on_c, 0, 48, 53
1, 108956, Note_off_c, 0, 48, 62
1, 109066, Note_on_c, 0, 48, 48
1, 109108, Note_off_c, 0, 48, 58
1, 109218, Note_on_c, 0, 48, 53
1, 109257, Note_off_c, 0, 48, 64
1, 109357, Note_on_c, 0, 48, 52
1, 109391, Note_off_c, 0, 48, 63
1, 109493, Note_on_c, 0, 84, 67
1, 109517, Note_off_c, 0, 84, 68
1, 109518, Note_on_c, 0, 60, 43
1, 109523, Note_on_c, 0, 57, 35
1, 109546, Note_on_c, 0, 86, 58
1, 109574, Poly_aftertouch_c, 0, 48, 0
1, 109590, Note_on_c, 0, 84, 65
1, 109599, Note_off_c, 0, 86, 62
1, 109626, Note_off_c, 0, 84, 61
1, 109649, Note_on_c, 0, 83, 57
1, 109658, Note_on_c, 0, 48, 29
1, 109696, Note_off_c, 0, 48, 50
1, 109704, Note_on_c, 0, 84, 59
1, 109731, Note_off_c, 0, 84, 69
1, 109736, Note_off_c, 0, 83, 62
1, 109799, Note_on_c, 0, 48, 47
1, 109820, Note_on_c, 0, 77, 68
1, 109859, Note_off_c, 0, 48, 58
1, 109882, Note_off_c, 0, 77, 0
1, 109901, Note_on_c, 0, 77, 39
1, 109972, Note_on_c, 0, 48, 45
1, 110004, Note_off_c, 0, 48, 52
1, 110043, Note_off_c, 0, 77, 60
1, 110110, Note_on_c, 0, 48, 43
1, 110145, Note_off_c, 0, 48, 54
1, 110251, Note_on_c, 0, 48, 48
1, 110267, Note_off_c, 0, 60, 61
1, 110271, Note_off_c, 0, 57, 60
1, 110289, Note_off_c, 0, 48, 53
1, 110383, Note_on_c, 0, 72, 62
1, 110385, Note_on_c, 0, 59, 50
1, 110397, Note_on_c, 0, 55, 40
1, 110412, Note_off_c, 0, 72, 66
1, 110413, Note_on_c, 0, 48, 21
1, 110431, Note_on_c, 0, 74, 53
1, 110454, Note_off_c, 0, 48, 45
1, 110484, Note_off_c, 0, 74, 55
1, 110493, Note_on_c, 0, 72, 53
1, 110517, Note_off_c, 0, 72, 59
1, 110538, Note_on_c, 0, 71, 64
1, 110549, Note_on_c, 0, 48, 52
1, 110578, Note_off_c, 0, 48, 56
1, 110593, Note_on_c, 0, 72, 53
1, 110615, Note_off_c, 0, 72, 61
1, 110619, Note_off_c, 0, 71, 59
1, 110704, Note_on_c, 0, 48, 41
1, 110721, Note_on_c, 0, 64, 59
1, 110757, Note_off_c, 0, 48, 59
1, 110812, Note_off_c, 0, 64, 0
1, 110812, Note_on_c, 0, 64, 15
1, 110865, Note_on_c, 0, 48, 55
1, 110913, Note_off_c, 0, 48, 59
1, 110929, Note_off_c, 0, 64, 59
1, 111021, Note_on_c, 0, 48, 55
1, 111064, Note_off_c, 0, 48, 60
1, 111167, Note_on_c, 0, 48, 48
1, 111182, Note_off_c, 0, 59, 58
1, 111183, Note_off_c, 0, 55, 58
1, 111196, Note_off_c, 0, 48, 57
1, 111303, Note_on_c, 0, 72, 58
1, 111305, Note_on_c, 0, 48, 41
1, 111320, Note_on_c, 0, 53, 47
1, 111321, Note_on_c, 0, 57, 42
1, 111366, Note_off_c, 0, 48, 55
1, 111369, Note_on_c, 0, 62, 50
1, 111394, Note_off_c, 0, 72, 35
1, 111410, Note_off_c, 0, 62, 63
1, 111436, Note_on_c, 0, 48, 48
1, 111459, Note_off_c, 0, 57, 59
1, 111461, Note_off_c, 0, 53, 50
1, 111478, Note_off_c, 0, 48, 61
1, 111594, Note_on_c, 0, 53, 54
1, 111597, Note_on_c, 0, 56, 54
1, 111597, Note_on_c, 0, 72, 58
1, 111658, Note_off_c, 0, 72, 54
1, 111662, Note_on_c, 0, 62, 60
1, 111710, Note_off_c, 0, 62, 59
1, 111723, Note_off_c, 0, 56, 49
1, 111732, Note_off_c, 0, 53, 41
1, 111746, Note_on_c, 0, 48, 48
1, 111782, Note_off_c, 0, 48, 59
1, 111862, Note_on_c, 0, 53, 52
1, 111874, Note_on_c, 0, 71, 54
1, 111889, Note_on_c, 0, 55, 39
1, 111937, Note_off_c, 0, 71, 57
1, 111950, Note_on_c, 0, 62, 53
1, 111983, Note_off_c, 0, 62, 66
1, 111987, Note_on_c, 0, 48, 57
1, 111998, Note_off_c, 0, 55, 27
1, 112006, Note_off_c, 0, 53, 33
1, 112026, Note_off_c, 0, 48, 60
1, 112151, Note_on_c, 0, 48, 59
1, 112160, Note_on_c, 0, 72, 57
1, 112166, Note_on_c, 0, 55, 43
1, 112166, Note_on_c, 0, 60, 62
1, 112167, Note_on_c, 0, 52, 50
1, 112179, Note_off_c, 0, 48, 65
1, 112179, Note_off_c, 0, 72, 60
1, 112194, Note_off_c, 0, 52, 36
1, 112195, Note_off_c, 0, 60, 68
1, 112196, Note_off_c, 0, 55, 34
1, 112319, Note_on_c, 0, 55, 56
1, 112323, Note_on_c, 0, 52, 45
1, 112351, Note_off_c, 0, 52, 60
1, 112356, Note_off_c, 0, 55, 63
1, 112475, Note_on_c, 0, 52, 49
1, 112483, Note_on_c, 0, 55, 55
1, 112506, Note_off_c, 0, 52, 66
1, 112515, Note_off_c, 0, 55, 65
1, 112627, Note_on_c, 0, 55, 52
1, 112629, Note_on_c, 0, 52, 47
1, 112656, Note_off_c, 0, 52, 58
1, 112665, Note_off_c, 0, 55, 63
1, 112785, Note_on_c, 0, 52, 36
1, 112785, Note_on_c, 0, 55, 53
1, 112814, Note_off_c, 0, 52, 55
1, 112822, Note_off_c, 0, 55, 63
1, 112925, Note_on_c, 0, 52, 49
1, 112930, Note_on_c, 0, 55, 48
1, 112962, Note_off_c, 0, 52, 65
1, 112971, Note_off_c, 0, 55, 63
1, 113079, Note_on_c, 0, 47, 45
1, 113086, Note_on_c, 0, 55, 49
1, 113094, Note_on_c, 0, 53, 52
1, 113119, Note_off_c, 0, 53, 58
1, 113121, Note_off_c, 0, 55, 63
1, 113135, Note_off_c, 0, 47, 49
1, 113158, Note_on_c, 0, 37, 55
1, 113207, Note_off_c, 0, 37, 64
1, 113241, Note_on_c, 0, 53, 44
1, 113243, Note_on_c, 0, 55, 48
1, 113274, Note_off_c, 0, 53, 62
1, 113280, Note_off_c, 0, 55, 64
1, 113398, Note_on_c, 0, 53, 54
1, 113399, Note_on_c, 0, 47, 52
1, 113401, Note_on_c, 0, 55, 52
1, 113436, Note_off_c, 0, 53, 64
1, 113440, Note_off_c, 0, 47, 49
1, 113441, Note_off_c, 0, 55, 62
1, 113479, Note_on_c, 0, 37, 59
1, 113517, Note_off_c, 0, 37, 63
1, 113547, Note_on_c, 0, 53, 53
1, 113547, Note_on_c, 0, 55, 55
1, 113582, Note_off_c, 0, 53, 65
1, 113588, Note_off_c, 0, 55, 62
1, 113695, Note_on_c, 0, 47, 51
1, 113708, Note_on_c, 0, 53, 55
1, 113710, Note_on_c, 0, 55, 54
1, 113744, Note_off_c, 0, 53, 65
1, 113749, Note_off_c, 0, 55, 61
1, 113770, Note_off_c, 0, 47, 53
1, 113776, Note_on_c, 0, 37, 57
1, 113818, Note_off_c, 0, 37, 64
1, 113848, Note_on_c, 0, 53, 54
1, 113861, Note_on_c, 0, 55, 43
1, 113885, Note_off_c, 0, 53, 64
1, 113888, Note_off_c, 0, 55, 58
1, 113985, Note_on_c, 0, 48, 59
1, 113996, Note_on_c, 0, 55, 51
1, 114009, Note_on_c, 0, 52, 52
1, 114021, Note_off_c, 0, 48, 63
1, 114037, Note_off_c, 0, 52, 63
1, 114040, Note_off_c, 0, 55, 63
1, 114063, Note_on_c, 0, 36, 56
1, 114090, Note_off_c, 0, 36, 60
1, 114141, Note_on_c, 0, 55, 55
1, 114143, Note_on_c, 0, 52, 35
1, 114172, Note_off_c, 0, 52, 55
1, 114173, Note_off_c, 0, 55, 64
1, 114271, Note_on_c, 0, 55, 51
1, 114272, Note_on_c, 0, 52, 46
1, 114298, Note_on_c, 0, 67, 62
1, 114316, Note_off_c, 0, 52, 62
1, 114319, Note_off_c, 0, 55, 59
1, 114450, Note_on_c, 0, 55, 47
1, 114452, Note_on_c, 0, 52, 43
1, 114490, Note_off_c, 0, 52, 64
1, 114493, Note_off_c, 0, 55, 62
1, 114585, Note_on_c, 0, 72, 49
1, 114602, Note_on_c, 0, 52, 43
1, 114605, Note_on_c, 0, 55, 47
1, 114629, Note_off_c, 0, 72, 61
1, 114642, Note_off_c, 0, 52, 62
1, 114649, Note_off_c, 0, 55, 61
1, 114654, Note_off_c, 0, 67, 57
1, 114749, Note_on_c, 0, 52, 51
1, 114772, Note_on_c, 0, 55, 40
1, 114787, Note_off_c, 0, 52, 64
1, 114804, Note_off_c, 0, 55, 57
1, 114891, Note_on_c, 0, 47, 55
1, 114904, Note_on_c, 0, 55, 48
1, 114912, Note_on_c, 0, 53, 45
1, 114946, Note_off_c, 0, 55, 61
1, 114949, Note_off_c, 0, 47, 58
1, 114950, Note_off_c, 0, 53, 63
1, 114976, Note_on_c, 0, 37, 50
1, 115012, Note_off_c, 0, 37, 64
1, 115054, Note_on_c, 0, 53, 50
1, 115061, Note_on_c, 0, 55, 46
1, 115091, Note_off_c, 0, 53, 64
1, 115095, Note_off_c, 0, 55, 61
1, 115195, Note_on_c, 0, 47, 54
1, 115197, Note_on_c, 0, 55, 54
1, 115201, Note_on_c, 0, 53, 54
1, 115228, Note_off_c, 0, 47, 59
1, 115239, Note_off_c, 0, 53, 64
1, 115242, Note_off_c, 0, 55, 62
1, 115299, Note_on_c, 0, 37, 47
1, 115331, Note_off_c, 0, 37, 61
1, 115358, Note_on_c, 0, 53, 46
1, 115358, Note_on_c, 0, 55, 48
1, 115395, Note_off_c, 0, 53, 63
1, 115398, Note_off_c, 0, 55, 62
1, 115511, Note_on_c, 0, 47, 54
1, 115521, Note_on_c, 0, 53, 50
1, 115523, Note_on_c, 0, 55, 47
1, 115555, Note_off_c, 0, 47, 52
1, 115561, Note_off_c, 0, 53, 63
1, 115564, Note_off_c, 0, 55, 63
1, 115601, Note_on_c, 0, 37, 51
1, 115645, Note_off_c, 0, 37, 62
1, 115668, Note_on_c, 0, 53, 48
1, 115675, Note_on_c, 0, 55, 50
1, 115706, Note_off_c, 0, 55, 63
1, 115707, Note_off_c, 0, 53, 64
1, 115806, Note_on_c, 0, 48, 55
1, 115811, Note_on_c, 0, 55, 52
1, 115836, Note_on_c, 0, 52, 39
1, 115840, Note_off_c, 0, 48, 63
1, 115851, Note_off_c, 0, 55, 62
1, 115868, Note_off_c, 0, 52, 44
1, 115881, Note_on_c, 0, 36, 62
1, 115911, Note_off_c, 0, 36, 62
1, 115958, Note_on_c, 0, 55, 51
1, 115959, Note_on_c, 0, 52, 44
1, 115998, Note_off_c, 0, 52, 62
1, 115998, Note_off_c, 0, 55, 62
1, 116101, Note_on_c, 0, 52, 51
1, 116109, Note_on_c, 0, 55, 47
1, 116118, Note_on_c, 0, 67, 65
1, 116151, Note_off_c, 0, 52, 60
1, 116156, Note_off_c, 0, 55, 59
1, 116281, Note_on_c, 0, 52, 46
1, 116287, Note_on_c, 0, 55, 43
1, 116325, Note_off_c, 0, 52, 63
1, 116340, Note_off_c, 0, 55, 58
1, 116426, Note_on_c, 0, 76, 57
1, 116438, Note_on_c, 0, 52, 45
1, 116456, Note_off_c, 0, 76, 67
1, 116458, Note_on_c, 0, 55, 45
1, 116481, Note_off_c, 0, 52, 63
1, 116500, Note_off_c, 0, 55, 59
1, 116502, Note_off_c, 0, 67, 56
1, 116587, Note_on_c, 0, 52, 48
1, 116614, Note_on_c, 0, 55, 40
1, 116623, Note_off_c, 0, 52, 65
1, 116645, Note_off_c, 0, 55, 57
1, 116723, Note_on_c, 0, 47, 53
1, 116739, Note_on_c, 0, 55, 53
1, 116750, Note_on_c, 0, 53, 48
1, 116773, Note_off_c, 0, 47, 60
1, 116784, Note_off_c, 0, 55, 61
1, 116787, Note_off_c, 0, 53, 64
1, 116817, Note_on_c, 0, 37, 49
1, 116853, Note_off_c, 0, 37, 63
1, 116889, Note_on_c, 0, 53, 50
1, 116900, Note_on_c, 0, 55, 44
1, 116936, Note_off_c, 0, 53, 64
1, 116942, Note_off_c, 0, 55, 60
1, 117029, Note_on_c, 0, 47, 55
1, 117043, Note_on_c, 0, 55, 54
1, 117050, Note_on_c, 0, 53, 51
1, 117062, Note_off_c, 0, 47, 62
1, 117086, Note_off_c, 0, 53, 64
1, 117091, Note_off_c, 0, 55, 60
1, 117127, Note_on_c, 0, 37, 49
1, 117168, Note_off_c, 0, 37, 63
1, 117194, Note_on_c, 0, 53, 52
1, 117207, Note_on_c, 0, 55, 54
1, 117237, Note_off_c, 0, 53, 64
1, 117245, Note_off_c, 0, 55, 62
1, 117333, Note_on_c, 0, 47, 64
1, 117350, Note_on_c, 0, 53, 58
1, 117352, Note_on_c, 0, 55, 56
1, 117392, Note_off_c, 0, 55, 64
1, 117393, Note_off_c, 0, 53, 62
1, 117395, Note_off_c, 0, 47, 54
1, 117404, Note_on_c, 0, 37, 45
1, 117489, Note_on_c, 0, 53, 61
1, 117491, Note_on_c, 0, 55, 57
1, 117497, Note_off_c, 0, 37, 63
1, 117526, Note_off_c, 0, 53, 64
1, 117527, Note_off_c, 0, 55, 64
1, 117650, Note_on_c, 0, 36, 80
1, 117652, Note_on_c, 0, 48, 86
1, 117739, Note_on_c, 0, 52, 71
1, 117814, Note_on_c, 0, 60, 71
1, 117824, Note_off_c, 0, 52, 64
1, 117884, Note_on_c, 0, 55, 76
1, 117953, Note_off_c, 0, 55, 62
1, 117957, Note_on_c, 0, 64, 73
1, 117962, Note_off_c, 0, 60, 56
1, 117988, Note_off_c, 0, 64, 64
1, 118019, Note_on_c, 0, 60, 62
1, 118096, Note_on_c, 0, 67, 83
1, 118111, Note_off_c, 0, 60, 62
1, 118163, Note_on_c, 0, 64, 76
1, 118176, Note_off_c, 0, 48, 61
1, 118232, Note_off_c, 0, 67, 54
1, 118237, Note_on_c, 0, 72, 79
1, 118240, Note_off_c, 0, 64, 63
1, 118254, Note_off_c, 0, 36, 61
1, 118275, Note_off_c, 0, 72, 62
1, 118322, Note_on_c, 0, 67, 67
1, 118346, Note_on_c, 0, 69, 45
1, 118379, Note_off_c, 0, 69, 50
1, 118385, Note_on_c, 0, 76, 84
1, 118399, Note_off_c, 0, 67, 40
1, 118451, Note_on_c, 0, 72, 80
1, 118477, Note_off_c, 0, 76, 62
1, 118520, Note_off_c, 0, 72, 64
1, 118534, Note_on_c, 0, 79, 90
1, 118664, Note_on_c, 0, 36, 71
1, 118699, Note_off_c, 0, 36, 61
1, 118820, Note_on_c, 0, 40, 75
1, 118860, Note_off_c, 0, 40, 61
1, 118883, Note_off_c, 0, 79, 62
1, 118971, Note_on_c, 0, 43, 78
1, 118998, Note_off_c, 0, 43, 65
1, 119112, Note_on_c, 0, 48, 69
1, 119117, Note_on_c, 0, 70, 74
1, 119143, Note_off_c, 0, 70, 65
1, 119146, Note_off_c, 0, 48, 66
1, 119160, Note_on_c, 0, 72, 67
1, 119234, Note_on_c, 0, 70, 59
1, 119234, Note_off_c, 0, 72, 63
1, 119258, Note_on_c, 0, 52, 73
1, 119258, Note_on_c, 0, 69, 68
1, 119266, Note_off_c, 0, 70, 65
1, 119281, Note_off_c, 0, 52, 68
1, 119317, Note_off_c, 0, 69, 62
1, 119329, Note_on_c, 0, 70, 75
1, 119393, Note_on_c, 0, 53, 87
1, 119395, Note_on_c, 0, 69, 80
1, 119398, Note_off_c, 0, 70, 60
1, 119415, Note_off_c, 0, 53, 68
1, 119419, Note_off_c, 0, 69, 70
1, 119559, Note_on_c, 0, 60, 64
1, 119565, Note_on_c, 0, 57, 53
1, 119589, Note_off_c, 0, 57, 58
1, 119590, Note_off_c, 0, 60, 66
1, 119709, Note_on_c, 0, 57, 50
1, 119720, Note_on_c, 0, 60, 50
1, 119741, Note_off_c, 0, 57, 65
1, 119746, Note_off_c, 0, 60, 65
1, 119869, Note_on_c, 0, 60, 50
1, 119878, Note_on_c, 0, 57, 42
1, 119905, Note_off_c, 0, 57, 57
1, 119921, Note_off_c, 0, 60, 64
1, 120040, Note_on_c, 0, 57, 32
1, 120046, Note_on_c, 0, 60, 51
1, 120065, Note_off_c, 0, 57, 52
1, 120070, Note_off_c, 0, 60, 61
1, 120175, Note_on_c, 0, 60, 39
1, 120180, Note_on_c, 0, 57, 47
1, 120214, Note_off_c, 0, 57, 65
1, 120221, Note_off_c, 0, 60, 62
1, 120343, Note_on_c, 0, 60, 42
1, 120346, Note_on_c, 0, 40, 43
1, 120358, Note_on_c, 0, 58, 31
1, 120371, Note_off_c, 0, 60, 56
1, 120382, Note_off_c, 0, 40, 47
1, 120385, Note_off_c, 0, 58, 48
1, 120416, Note_on_c, 0, 30, 51
1, 120458, Note_off_c, 0, 30, 62
1, 120486, Note_on_c, 0, 58, 50
1, 120494, Note_on_c, 0, 60, 27
1, 120519, Note_off_c, 0, 58, 62
1, 120528, Note_off_c, 0, 60, 54
1, 120645, Note_on_c, 0, 60, 43
1, 120651, Note_on_c, 0, 58, 49
1, 120656, Note_on_c, 0, 40, 47
1, 120692, Note_off_c, 0, 58, 63
1, 120698, Note_off_c, 0, 60, 63
1, 120710, Note_off_c, 0, 40, 50
1, 120745, Note_on_c, 0, 30, 51
1, 120779, Note_off_c, 0, 30, 61
1, 120814, Note_on_c, 0, 60, 52
1, 120817, Note_on_c, 0, 58, 43
1, 120848, Note_off_c, 0, 58, 56
1, 120854, Note_off_c, 0, 60, 63
1, 120948, Note_on_c, 0, 40, 54
1, 120960, Note_on_c, 0, 58, 49
1, 120963, Note_on_c, 0, 60, 50
1, 120985, Note_off_c, 0, 40, 58
1, 120999, Note_off_c, 0, 58, 64
1, 121002, Note_off_c, 0, 60, 64
1, 121032, Note_on_c, 0, 30, 54
1, 121075, Note_off_c, 0, 30, 61
1, 121111, Note_on_c, 0, 58, 54
1, 121121, Note_on_c, 0, 60, 39
1, 121148, Note_off_c, 0, 60, 57
1, 121149, Note_off_c, 0, 58, 64
1, 121247, Note_on_c, 0, 41, 59
1, 121257, Note_on_c, 0, 60, 46
1, 121276, Note_on_c, 0, 57, 48
1, 121279, Note_off_c, 0, 41, 65
1, 121300, Note_off_c, 0, 60, 65
1, 121302, Note_off_c, 0, 57, 58
1, 121315, Note_on_c, 0, 29, 68
1, 121349, Note_off_c, 0, 29, 63
1, 121412, Note_on_c, 0, 60, 56
1, 121421, Note_on_c, 0, 57, 20
1, 121449, Note_off_c, 0, 60, 64
1, 121454, Note_off_c, 0, 57, 47
1, 121554, Note_on_c, 0, 57, 50
1, 121557, Note_on_c, 0, 60, 47
1, 121571, Note_on_c, 0, 72, 64
1, 121610, Note_off_c, 0, 57, 58
1, 121615, Note_off_c, 0, 60, 54
1, 121738, Note_on_c, 0, 60, 37
1, 121738, Note_on_c, 0, 57, 41
1, 121768, Note_off_c, 0, 57, 59
1, 121771, Note_off_c, 0, 60, 56
1, 121862, Note_on_c, 0, 57, 50
1, 121869, Note_on_c, 0, 60, 52
1, 121871, Note_on_c, 0, 77, 57
1, 121907, Note_off_c, 0, 77, 60
1, 121908, Note_off_c, 0, 57, 63
1, 121914, Note_off_c, 0, 60, 60
1, 121932, Note_off_c, 0, 72, 59
1, 122029, Note_on_c, 0, 57, 42
1, 122034, Note_on_c, 0, 60, 48
1, 122058, Note_off_c, 0, 57, 57
1, 122078, Note_off_c, 0, 60, 61
1, 122185, Note_on_c, 0, 40, 45
1, 122192, Note_on_c, 0, 60, 46
1, 122196, Note_on_c, 0, 58, 44
1, 122223, Note_off_c, 0, 40, 51
1, 122225, Note_off_c, 0, 60, 58
1, 122229, Note_off_c, 0, 58, 60
1, 122284, Note_on_c, 0, 30, 30
1, 122327, Note_off_c, 0, 30, 39
1, 122337, Note_on_c, 0, 58, 48
1, 122338, Note_on_c, 0, 60, 44
1, 122378, Note_off_c, 0, 58, 63
1, 122382, Note_off_c, 0, 60, 61
1, 122491, Note_on_c, 0, 40, 54
1, 122496, Note_on_c, 0, 60, 51
1, 122503, Note_on_c, 0, 58, 50
1, 122537, Note_off_c, 0, 58, 63
1, 122541, Note_off_c, 0, 60, 62
1, 122543, Note_off_c, 0, 40, 55
1, 122574, Note_on_c, 0, 30, 54
1, 122617, Note_off_c, 0, 30, 60
1, 122649, Note_on_c, 0, 58, 52
1, 122662, Note_on_c, 0, 60, 48
1, 122686, Note_off_c, 0, 58, 64
1, 122692, Note_off_c, 0, 60, 62
1, 122795, Note_on_c, 0, 40, 51
1, 122799, Note_on_c, 0, 60, 48
1, 122802, Note_on_c, 0, 58, 54
1, 122827, Note_off_c, 0, 40, 50
1, 122843, Note_off_c, 0, 58, 62
1, 122845, Note_off_c, 0, 60, 62
1, 122881, Note_on_c, 0, 30, 52
1, 122926, Note_off_c, 0, 30, 62
1, 122964, Note_on_c, 0, 58, 51
1, 122978, Note_on_c, 0, 60, 41
1, 123002, Note_off_c, 0, 58, 64
1, 123005, Note_off_c, 0, 60, 57
1, 123101, Note_on_c, 0, 41, 50
1, 123106, Note_on_c, 0, 60, 48
1, 123124, Note_on_c, 0, 57, 49
1, 123131, Note_off_c, 0, 41, 61
1, 123152, Note_off_c, 0, 60, 62
1, 123155, Note_off_c, 0, 57, 63
1, 123176, Note_on_c, 0, 29, 53
1, 123205, Note_off_c, 0, 29, 54
1, 123268, Note_on_c, 0, 57, 36
1, 123282, Note_on_c, 0, 60, 43
1, 123302, Note_off_c, 0, 57, 57
1, 123309, Note_off_c, 0, 60, 58
1, 123401, Note_on_c, 0, 60, 52
1, 123406, Note_on_c, 0, 57, 47
1, 123419, Note_on_c, 0, 72, 60
1, 123452, Note_off_c, 0, 60, 55
1, 123456, Note_off_c, 0, 57, 60
1, 123578, Note_on_c, 0, 57, 54
1, 123592, Note_on_c, 0, 60, 43
1, 123617, Note_off_c, 0, 57, 63
1, 123625, Note_off_c, 0, 60, 58
1, 123727, Note_on_c, 0, 81, 61
1, 123734, Note_on_c, 0, 60, 50
1, 123738, Note_on_c, 0, 57, 45
1, 123768, Note_off_c, 0, 81, 59
1, 123780, Note_off_c, 0, 57, 64
1, 123786, Note_off_c, 0, 60, 56
1, 123813, Note_off_c, 0, 72, 53
1, 123894, Note_on_c, 0, 57, 39
1, 123902, Note_on_c, 0, 60, 42
1, 123922, Note_off_c, 0, 57, 56
1, 123937, Note_off_c, 0, 60, 56
1, 124035, Note_on_c, 0, 40, 54
1, 124052, Note_on_c, 0, 58, 45
1, 124053, Note_on_c, 0, 60, 42
1, 124081, Note_off_c, 0, 40, 58
1, 124084, Note_off_c, 0, 60, 54
1, 124086, Note_off_c, 0, 58, 60
1, 124128, Note_on_c, 0, 30, 45
1, 124165, Note_off_c, 0, 30, 51
1, 124187, Note_on_c, 0, 58, 55
1, 124193, Note_on_c, 0, 60, 46
1, 124228, Note_off_c, 0, 58, 62
1, 124239, Note_off_c, 0, 60, 61
1, 124349, Note_on_c, 0, 40, 51
1, 124350, Note_on_c, 0, 60, 55
1, 124356, Note_on_c, 0, 58, 51
1, 124381, Note_off_c, 0, 40, 58
1, 124392, Note_off_c, 0, 58, 64
1, 124393, Note_off_c, 0, 60, 62
1, 124460, Note_on_c, 0, 30, 54
1, 124504, Note_off_c, 0, 30, 61
1, 124508, Note_on_c, 0, 58, 52
1, 124517, Note_on_c, 0, 60, 52
1, 124547, Note_off_c, 0, 58, 63
1, 124555, Note_off_c, 0, 60, 64
1, 124654, Note_on_c, 0, 58, 58
1, 124655, Note_on_c, 0, 60, 55
1, 124657, Note_on_c, 0, 40, 57
1, 124692, Note_off_c, 0, 58, 62
1, 124695, Note_off_c, 0, 60, 64
1, 124704, Note_off_c, 0, 40, 59
1, 124777, Note_on_c, 0, 30, 52
1, 124807, Note_on_c, 0, 60, 52
1, 124814, Note_on_c, 0, 58, 56
1, 124821, Note_off_c, 0, 30, 61
1, 124849, Note_off_c, 0, 60, 66
1, 124851, Note_off_c, 0, 58, 66
1, 124968, Note_on_c, 0, 41, 82
1, 125044, Note_on_c, 0, 29, 79
1, 125055, Note_on_c, 0, 57, 66
1, 125066, Note_off_c, 0, 41, 61
1, 125128, Note_on_c, 0, 65, 70
1, 125132, Note_off_c, 0, 57, 59
1, 125203, Note_on_c, 0, 60, 73
1, 125266, Note_off_c, 0, 60, 64
1, 125271, Note_on_c, 0, 69, 68
1, 125281, Note_off_c, 0, 65, 47
1, 125314, Note_off_c, 0, 69, 61
1, 125341, Note_on_c, 0, 65, 69
1, 125387, Note_off_c, 0, 29, 62
1, 125415, Note_off_c, 0, 65, 55
1, 125423, Note_on_c, 0, 72, 79
1, 125484, Note_on_c, 0, 69, 75
1, 125557, Note_off_c, 0, 72, 58
1, 125561, Note_on_c, 0, 77, 80
1, 125565, Note_off_c, 0, 69, 63
1, 125594, Note_off_c, 0, 77, 63
1, 125639, Note_on_c, 0, 72, 76
1, 125706, Note_on_c, 0, 81, 85
1, 125709, Note_off_c, 0, 72, 57
1, 125771, Note_on_c, 0, 77, 81
1, 125798, Note_off_c, 0, 81, 62
1, 125855, Note_off_c, 0, 77, 58
1, 125864, Note_on_c, 0, 84, 88
1, 126025, Note_on_c, 0, 41, 67
1, 126063, Note_off_c, 0, 41, 66
1, 126177, Note_on_c, 0, 45, 71
1, 126205, Note_off_c, 0, 45, 65
1, 126205, Note_off_c, 0, 84, 65
1, 126311, Note_on_c, 0, 48, 74
1, 126343, Note_off_c, 0, 48, 64
1, 126454, Note_on_c, 0, 75, 64
1, 126458, Note_on_c, 0, 53, 70
1, 126480, Note_off_c, 0, 75, 68
1, 126490, Note_off_c, 0, 53, 66
1, 126495, Note_on_c, 0, 77, 71
1, 126555, Note_off_c, 0, 77, 63
1, 126565, Note_on_c, 0, 75, 67
1, 126588, Control_c, 0, 64, 14
1, 126597, Note_on_c, 0, 73, 69
1, 126603, Note_on_c, 0, 57, 74
1, 126603, Control_c, 0, 64, 16
1, 126604, Note_off_c, 0, 75, 63
1, 126629, Note_off_c, 0, 57, 67
1, 126641, Note_off_c, 0, 73, 61
1, 126670, Control_c, 0, 64, 17
1, 126683, Note_on_c, 0, 75, 72
1, 126715, Control_c, 0, 64, 17
1, 126744, Control_c, 0, 64, 18
1, 126764, Note_on_c, 0, 73, 75
1, 126767, Note_on_c, 0, 58, 83
1, 126795, Note_off_c, 0, 75, 60
1, 126818, Control_c, 0, 64, 18
1, 126830, Note_off_c, 0, 73, 54
1, 126842, Note_on_c, 0, 65, 74
1, 126863, Control_c, 0, 64, 16
1, 126877, Control_c, 0, 64, 16
1, 126907, Control_c, 0, 64, 16
1, 126916, Note_off_c, 0, 65, 65
1, 126918, Note_on_c, 0, 70, 75
1, 126952, Control_c, 0, 64, 16
1, 126981, Control_c, 0, 64, 16
1, 126982, Note_on_c, 0, 65, 71
1, 126982, Note_off_c, 0, 70, 50
1, 126996, Control_c, 0, 64, 17
1, 127026, Control_c, 0, 64, 17
1, 127047, Note_off_c, 0, 65, 62
1, 127050, Note_on_c, 0, 73, 69
1, 127085, Control_c, 0, 64, 17
1, 127099, Control_c, 0, 64, 16
1, 127108, Note_on_c, 0, 70, 74
1, 127127, Note_off_c, 0, 58, 64
1, 127144, Control_c, 0, 64, 17
1, 127159, Control_c, 0, 64, 17
1, 127174, Note_off_c, 0, 70, 62
1, 127176, Note_on_c, 0, 77, 63
1, 127182, Note_off_c, 0, 73, 35
1, 127203, Note_off_c, 0, 77, 66
1, 127218, Control_c, 0, 64, 19
1, 127234, Control_c, 0, 64, 22
1, 127247, Note_on_c, 0, 73, 70
1, 127249, Control_c, 0, 64, 28
1, 127264, Control_c, 0, 64, 34
1, 127278, Control_c, 0, 64, 34
1, 127293, Control_c, 0, 64, 34
1, 127295, Note_off_c, 0, 73, 61
1, 127316, Note_on_c, 0, 82, 83
1, 127352, Control_c, 0, 64, 33
1, 127366, Note_off_c, 0, 82, 63
1, 127367, Control_c, 0, 64, 33
1, 127405, Note_on_c, 0, 77, 80
1, 127449, Control_c, 0, 64, 32
1, 127464, Control_c, 0, 64, 32
1, 127468, Note_off_c, 0, 77, 56
1, 127470, Note_on_c, 0, 85, 82
1, 127478, Control_c, 0, 64, 30
1, 127508, Control_c, 0, 64, 30
1, 127531, Note_on_c, 0, 82, 82
1, 127537, Control_c, 0, 64, 29
1, 127552, Control_c, 0, 64, 28
1, 127554, Note_off_c, 0, 85, 59
1, 127567, Control_c, 0, 64, 26
1, 127582, Control_c, 0, 64, 26
1, 127602, Note_off_c, 0, 82, 63
1, 127626, Control_c, 0, 64, 24
1, 127629, Note_on_c, 0, 89, 96
1, 127641, Control_c, 0, 64, 21
1, 127656, Control_c, 0, 64, 19
1, 127671, Control_c, 0, 64, 21
1, 127685, Control_c, 0, 64, 24
1, 127700, Control_c, 0, 64, 25
1, 127715, Control_c, 0, 64, 24
1, 127730, Control_c, 0, 64, 24
1, 127760, Control_c, 0, 64, 24
1, 127786, Note_on_c, 0, 34, 70
1, 127818, Note_off_c, 0, 34, 62
1, 127896, Note_off_c, 0, 89, 64
1, 127937, Control_c, 0, 64, 25
1, 127940, Note_on_c, 0, 38, 73
1, 127973, Note_off_c, 0, 38, 67
1, 127982, Control_c, 0, 64, 24
1, 128027, Control_c, 0, 64, 23
1, 128042, Control_c, 0, 64, 22
1, 128057, Control_c, 0, 64, 22
1, 128094, Note_on_c, 0, 41, 76
1, 128129, Note_off_c, 0, 41, 64
1, 128213, Control_c, 0, 64, 24
1, 128227, Control_c, 0, 64, 26
1, 128232, Note_on_c, 0, 80, 69
1, 128234, Note_on_c, 0, 46, 66
1, 128242, Control_c, 0, 64, 27
1, 128257, Note_off_c, 0, 80, 64
1, 128257, Control_c, 0, 64, 26
1, 128262, Note_off_c, 0, 46, 66
1, 128284, Note_on_c, 0, 82, 69
1, 128343, Note_on_c, 0, 80, 60
1, 128348, Note_off_c, 0, 82, 62
1, 128371, Note_on_c, 0, 79, 72
1, 128371, Note_off_c, 0, 80, 65
1, 128385, Note_on_c, 0, 48, 57
1, 128390, Control_c, 0, 64, 26
1, 128410, Note_off_c, 0, 48, 54
1, 128434, Control_c, 0, 64, 26
1, 128439, Note_on_c, 0, 80, 79
1, 128440, Note_off_c, 0, 79, 37
1, 128508, Control_c, 0, 64, 26
1, 128518, Note_off_c, 0, 80, 59
1, 128526, Note_on_c, 0, 51, 74
1, 128528, Note_on_c, 0, 79, 82
1, 128554, Note_off_c, 0, 79, 66
1, 128596, Note_on_c, 0, 55, 68
1, 128597, Control_c, 0, 64, 25
1, 128602, Note_off_c, 0, 51, 54
1, 128657, Control_c, 0, 64, 24
1, 128668, Note_on_c, 0, 63, 78
1, 128671, Control_c, 0, 64, 24
1, 128700, Note_off_c, 0, 63, 65
1, 128725, Note_off_c, 0, 55, 62
1, 128745, Control_c, 0, 64, 23
1, 128760, Note_on_c, 0, 58, 72
1, 128760, Control_c, 0, 64, 23
1, 128830, Note_on_c, 0, 67, 66
1, 128836, Control_c, 0, 64, 21
1, 128836, Note_off_c, 0, 58, 61
1, 128880, Control_c, 0, 64, 21
1, 128912, Note_on_c, 0, 63, 71
1, 128946, Control_c, 0, 64, 20
1, 128961, Control_c, 0, 64, 19
1, 128980, Note_off_c, 0, 63, 62
1, 128991, Note_on_c, 0, 70, 64
1, 128991, Control_c, 0, 64, 19
1, 128992, Note_off_c, 0, 67, 45
1, 129021, Control_c, 0, 64, 19
1, 129025, Note_off_c, 0, 70, 64
1, 129036, Control_c, 0, 64, 18
1, 129051, Note_on_c, 0, 67, 67
1, 129080, Control_c, 0, 64, 18
1, 129095, Control_c, 0, 64, 16
1, 129109, Control_c, 0, 64, 10
1, 129115, Note_off_c, 0, 67, 55
1, 129124, Control_c, 0, 64, 0
1, 129129, Note_on_c, 0, 75, 80
1, 129196, Note_on_c, 0, 70, 76
1, 129219, Note_off_c, 0, 75, 55
1, 129259, Note_off_c, 0, 70, 58
1, 129266, Note_on_c, 0, 79, 77
1, 129287, Control_c, 0, 64, 8
1, 129316, Control_c, 0, 64, 0
1, 129331, Note_on_c, 0, 75, 79
1, 129346, Control_c, 0, 64, 9
1, 129355, Note_off_c, 0, 79, 63
1, 129361, Control_c, 0, 64, 10
1, 129375, Note_off_c, 0, 75, 65
1, 129390, Control_c, 0, 64, 9
1, 129421, Control_c, 0, 64, 11
1, 129436, Control_c, 0, 64, 12
1, 129443, Note_on_c, 0, 82, 87
1, 129450, Control_c, 0, 64, 13
1, 129524, Control_c, 0, 64, 12
1, 129554, Control_c, 0, 64, 13
1, 129569, Control_c, 0, 64, 14
1, 129584, Control_c, 0, 64, 13
1, 129596, Note_on_c, 0, 39, 67
1, 129599, Control_c, 0, 64, 12
1, 129629, Control_c, 0, 64, 13
1, 129631, Note_off_c, 0, 39, 61
1, 129652, Control_c, 0, 64, 14
1, 129681, Control_c, 0, 64, 13
1, 129696, Control_c, 0, 64, 12
1, 129741, Note_off_c, 0, 82, 62
1, 129751, Note_on_c, 0, 43, 76
1, 129755, Control_c, 0, 64, 12
1, 129770, Control_c, 0, 64, 8
1, 129778, Note_off_c, 0, 43, 64
1, 129785, Control_c, 0, 64, 0
1, 129900, Note_on_c, 0, 46, 73
1, 129930, Note_off_c, 0, 46, 67
1, 130036, Note_on_c, 0, 51, 67
1, 130046, Note_on_c, 0, 73, 67
1, 130066, Note_off_c, 0, 51, 65
1, 130072, Note_off_c, 0, 73, 67
1, 130094, Note_on_c, 0, 75, 66
1, 130150, Note_off_c, 0, 75, 64
1, 130154, Note_on_c, 0, 73, 65
1, 130179, Note_off_c, 0, 73, 69
1, 130190, Note_on_c, 0, 55, 62
1, 130192, Note_on_c, 0, 72, 61
1, 130216, Note_off_c, 0, 55, 66
1, 130230, Note_off_c, 0, 72, 58
1, 130249, Note_on_c, 0, 73, 65
1, 130314, Note_off_c, 0, 73, 62
1, 130321, Note_on_c, 0, 72, 68
1, 130341, Note_on_c, 0, 56, 53
1, 130365, Note_off_c, 0, 56, 61
1, 130500, Note_on_c, 0, 44, 66
1, 130532, Note_off_c, 0, 44, 64
1, 130648, Note_on_c, 0, 48, 70
1, 130677, Note_off_c, 0, 48, 63
1, 130723, Note_off_c, 0, 72, 37
1, 130803, Note_on_c, 0, 51, 61
1, 130838, Note_off_c, 0, 51, 64
1, 130924, Note_on_c, 0, 56, 58
1, 130928, Note_on_c, 0, 72, 53
1, 130950, Note_off_c, 0, 72, 60
1, 130959, Note_off_c, 0, 56, 64
1, 130964, Note_on_c, 0, 73, 61
1, 131021, Note_off_c, 0, 73, 62
1, 131033, Note_on_c, 0, 72, 63
1, 131052, Note_on_c, 0, 60, 62
1, 131060, Note_off_c, 0, 72, 65
1, 131066, Note_on_c, 0, 71, 62
1, 131071, Note_off_c, 0, 60, 64
1, 131121, Note_on_c, 0, 72, 81
1, 131129, Note_off_c, 0, 71, 59
1, 131154, Note_off_c, 0, 72, 64
1, 131236, Note_on_c, 0, 84, 85
1, 131377, Note_on_c, 0, 44, 68
1, 131414, Note_off_c, 0, 44, 60
1, 131532, Note_on_c, 0, 48, 77
1, 131533, Note_off_c, 0, 84, 64
1, 131563, Note_off_c, 0, 48, 67
1, 131652, Control_c, 0, 64, 10
1, 131682, Control_c, 0, 64, 8
1, 131683, Note_on_c, 0, 52, 77
1, 131711, Note_off_c, 0, 52, 67
1, 131711, Control_c, 0, 64, 10
1, 131726, Control_c, 0, 64, 12
1, 131741, Control_c, 0, 64, 12
1, 131756, Control_c, 0, 64, 11
1, 131785, Control_c, 0, 64, 12
1, 131800, Control_c, 0, 64, 13
1, 131817, Note_on_c, 0, 56, 70
1, 131820, Note_on_c, 0, 72, 63
1, 131829, Control_c, 0, 64, 13
1, 131844, Note_on_c, 0, 73, 71
1, 131844, Control_c, 0, 64, 16
1, 131847, Note_off_c, 0, 56, 64
1, 131847, Note_off_c, 0, 72, 66
1, 131859, Control_c, 0, 64, 20
1, 131874, Control_c, 0, 64, 22
1, 131911, Control_c, 0, 64, 22
1, 131924, Note_off_c, 0, 73, 63
1, 131926, Control_c, 0, 64, 21
1, 131951, Note_on_c, 0, 72, 37
1, 131951, Note_on_c, 0, 71, 64
1, 131954, Note_on_c, 0, 60, 63
1, 131956, Control_c, 0, 64, 22
1, 131970, Control_c, 0, 64, 21
1, 131979, Note_off_c, 0, 60, 66
1, 131985, Control_c, 0, 64, 21
1, 132001, Note_off_c, 0, 72, 0
1, 132001, Note_on_c, 0, 72, 59
1, 132010, Note_off_c, 0, 71, 50
1, 132031, Control_c, 0, 64, 21
1, 132050, Note_off_c, 0, 72, 63
1, 132060, Control_c, 0, 64, 20
1, 132105, Control_c, 0, 64, 20
1, 132133, Note_on_c, 0, 84, 81
1, 132179, Control_c, 0, 64, 19
1, 132193, Control_c, 0, 64, 18
1, 132252, Control_c, 0, 64, 18
1, 132267, Control_c, 0, 64, 16
1, 132285, Note_on_c, 0, 44, 60
1, 132297, Control_c, 0, 64, 17
1, 132324, Note_off_c, 0, 44, 58
1, 132327, Control_c, 0, 64, 16
1, 132341, Control_c, 0, 64, 14
1, 132356, Control_c, 0, 64, 13
1, 132433, Note_on_c, 0, 48, 66
1, 132436, Note_off_c, 0, 84, 62
1, 132445, Control_c, 0, 64, 14
1, 132467, Note_off_c, 0, 48, 65
1, 132549, Control_c, 0, 64, 13
1, 132591, Note_on_c, 0, 53, 56
1, 132594, Control_c, 0, 64, 14
1, 132609, Control_c, 0, 64, 15
1, 132616, Note_off_c, 0, 53, 60
1, 132624, Control_c, 0, 64, 14
1, 132639, Control_c, 0, 64, 13
1, 132675, Control_c, 0, 64, 14
1, 132690, Control_c, 0, 64, 15
1, 132705, Control_c, 0, 64, 15
1, 132719, Note_on_c, 0, 72, 59
1, 132720, Control_c, 0, 64, 15
1, 132726, Note_on_c, 0, 56, 55
1, 132735, Control_c, 0, 64, 14
1, 132747, Note_off_c, 0, 72, 65
1, 132755, Note_off_c, 0, 56, 64
1, 132765, Control_c, 0, 64, 15
1, 132771, Note_on_c, 0, 73, 56
1, 132809, Control_c, 0, 64, 15
1, 132819, Note_off_c, 0, 73, 60
1, 132826, Note_on_c, 0, 72, 66
1, 132854, Note_off_c, 0, 72, 64
1, 132854, Note_on_c, 0, 60, 50
1, 132869, Control_c, 0, 64, 14
1, 132876, Note_on_c, 0, 71, 45
1, 132882, Note_off_c, 0, 60, 64
1, 132884, Control_c, 0, 64, 14
1, 132937, Note_on_c, 0, 72, 63
1, 132941, Note_off_c, 0, 71, 61
1, 132944, Control_c, 0, 64, 13
1, 132954, Note_off_c, 0, 72, 66
1, 132958, Control_c, 0, 64, 13
1, 133048, Control_c, 0, 64, 13
1, 133063, Control_c, 0, 64, 14
1, 133100, Note_on_c, 0, 84, 57
1, 133107, Control_c, 0, 64, 14
1, 133122, Control_c, 0, 64, 15
1, 133151, Control_c, 0, 64, 14
1, 133167, Control_c, 0, 64, 14
1, 133212, Control_c, 0, 64, 14
1, 133249, Note_on_c, 0, 44, 50
1, 133291, Note_off_c, 0, 44, 60
1, 133330, Control_c, 0, 64, 14
1, 133411, Note_on_c, 0, 48, 53
1, 133426, Control_c, 0, 64, 13
1, 133450, Note_off_c, 0, 48, 62
1, 133456, Note_off_c, 0, 84, 54
1, 133515, Control_c, 0, 64, 14
1, 133530, Control_c, 0, 64, 14
1, 133579, Note_on_c, 0, 53, 50
1, 133611, Note_off_c, 0, 53, 62
1, 133620, Control_c, 0, 64, 14
1, 133664, Control_c, 0, 64, 14
1, 133693, Control_c, 0, 64, 13
1, 133708, Control_c, 0, 64, 13
1, 133723, Note_on_c, 0, 56, 51
1, 133738, Control_c, 0, 64, 14
1, 133767, Control_c, 0, 64, 13
1, 133777, Note_off_c, 0, 56, 57
1, 133782, Control_c, 0, 64, 13
1, 133872, Note_on_c, 0, 60, 48
1, 133963, Note_off_c, 0, 60, 0
1, 133975, Control_c, 0, 64, 13
1, 134000, Poly_aftertouch_c, 0, 60, 127
1, 134029, Note_on_c, 0, 65, 49
1, 134047, Poly_aftertouch_c, 0, 60, 0
1, 134064, Control_c, 0, 64, 14
1, 134093, Control_c, 0, 64, 13
1, 134108, Control_c, 0, 64, 12
1, 134196, Note_on_c, 0, 68, 51
1, 134219, Control_c, 0, 64, 13
1, 134261, Note_off_c, 0, 65, 32
1, 134338, Control_c, 0, 64, 13
1, 134355, Note_on_c, 0, 72, 47
1, 134382, Control_c, 0, 64, 15
1, 134397, Control_c, 0, 64, 18
1, 134412, Control_c, 0, 64, 19
1, 134413, Note_off_c, 0, 68, 30
1, 134428, Control_c, 0, 64, 19
1, 134442, Control_c, 0, 64, 18
1, 134472, Control_c, 0, 64, 20
1, 134487, Control_c, 0, 64, 24
1, 134502, Control_c, 0, 64, 26
1, 134505, Note_on_c, 0, 44, 47
1, 134516, Control_c, 0, 64, 25
1, 134531, Control_c, 0, 64, 24
1, 134561, Control_c, 0, 64, 26
1, 134576, Control_c, 0, 64, 29
1, 134590, Control_c, 0, 64, 32
1, 134595, Note_off_c, 0, 72, 39
1, 134605, Control_c, 0, 64, 32
1, 134620, Control_c, 0, 64, 32
1, 134649, Control_c, 0, 64, 32
1, 134663, Note_on_c, 0, 48, 51
1, 134664, Control_c, 0, 64, 35
1, 134678, Control_c, 0, 64, 38
1, 134681, Note_off_c, 0, 44, 47
1, 134693, Control_c, 0, 64, 41
1, 134708, Control_c, 0, 64, 42
1, 134723, Control_c, 0, 64, 42
1, 134738, Control_c, 0, 64, 43
1, 134753, Control_c, 0, 64, 44
1, 134767, Control_c, 0, 64, 44
1, 134797, Control_c, 0, 64, 44
1, 134806, Note_on_c, 0, 53, 57
1, 134812, Control_c, 0, 64, 43
1, 134827, Control_c, 0, 64, 41
1, 134841, Control_c, 0, 64, 39
1, 134856, Control_c, 0, 64, 37
1, 134871, Control_c, 0, 64, 34
1, 134873, Note_off_c, 0, 48, 43
1, 134893, Control_c, 0, 64, 32
1, 134908, Control_c, 0, 64, 31
1, 134953, Control_c, 0, 64, 30
1, 134974, Note_on_c, 0, 56, 57
1, 134982, Control_c, 0, 64, 30
1, 135027, Control_c, 0, 64, 29
1, 135042, Control_c, 0, 64, 28
1, 135056, Control_c, 0, 64, 27
1, 135064, Note_off_c, 0, 53, 45
1, 135071, Control_c, 0, 64, 26
1, 135120, Note_on_c, 0, 60, 54
1, 135141, Note_off_c, 0, 56, 58
1, 135160, Control_c, 0, 64, 26
1, 135263, Note_on_c, 0, 65, 59
1, 135294, Control_c, 0, 64, 25
1, 135309, Control_c, 0, 64, 25
1, 135338, Control_c, 0, 64, 24
1, 135367, Note_off_c, 0, 60, 31
1, 135411, Note_on_c, 0, 68, 63
1, 135427, Control_c, 0, 64, 25
1, 135546, Note_off_c, 0, 65, 0
1, 135546, Control_c, 0, 64, 24
1, 135556, Note_on_c, 0, 72, 60
1, 135582, Poly_aftertouch_c, 0, 65, 127
1, 135590, Control_c, 0, 64, 24
1, 135656, Poly_aftertouch_c, 0, 65, 0
1, 135657, Control_c, 0, 64, 23
1, 135667, Note_off_c, 0, 68, 53
1, 135671, Control_c, 0, 64, 22
1, 135686, Control_c, 0, 64, 21
1, 135713, Note_on_c, 0, 44, 59
1, 135716, Control_c, 0, 64, 20
1, 135731, Control_c, 0, 64, 19
1, 135746, Control_c, 0, 64, 15
1, 135761, Control_c, 0, 64, 12
1, 135775, Control_c, 0, 64, 10
1, 135792, Note_off_c, 0, 72, 33
1, 135805, Control_c, 0, 64, 9
1, 135820, Control_c, 0, 64, 0
1, 135874, Note_on_c, 0, 48, 64
1, 135984, Note_off_c, 0, 44, 34
1, 136014, Note_on_c, 0, 53, 69
1, 136028, Control_c, 0, 64, 14
1, 136043, Control_c, 0, 64, 32
1, 136058, Control_c, 0, 64, 45
1, 136073, Control_c, 0, 64, 53
1, 136087, Control_c, 0, 64, 57
1, 136102, Control_c, 0, 64, 59
1, 136117, Control_c, 0, 64, 60
1, 136121, Note_off_c, 0, 48, 47
1, 136132, Control_c, 0, 64, 62
1, 136147, Control_c, 0, 64, 65
1, 136162, Control_c, 0, 64, 69
1, 136177, Control_c, 0, 64, 74
1, 136178, Note_on_c, 0, 56, 65
1, 136192, Control_c, 0, 64, 81
1, 136207, Control_c, 0, 64, 87
1, 136221, Control_c, 0, 64, 91
1, 136236, Control_c, 0, 64, 96
1, 136238, Note_off_c, 0, 53, 55
1, 136251, Control_c, 0, 64, 105
1, 136266, Control_c, 0, 64, 127
1, 136323, Note_on_c, 0, 44, 61
1, 136331, Note_on_c, 0, 60, 63
1, 136397, Note_off_c, 0, 56, 30
1, 136491, Note_on_c, 0, 48, 60
1, 136492, Note_on_c, 0, 65, 68
1, 136604, Note_off_c, 0, 44, 28
1, 136612, Note_off_c, 0, 60, 0
1, 136634, Note_on_c, 0, 53, 64
1, 136640, Note_on_c, 0, 68, 72
1, 136675, Poly_aftertouch_c, 0, 60, 0
1, 136786, Note_off_c, 0, 48, 28
1, 136792, Control_c, 0, 64, 87
1, 136794, Note_on_c, 0, 72, 75
1, 136801, Note_on_c, 0, 56, 61
1, 136807, Control_c, 0, 64, 69
1, 136822, Control_c, 0, 64, 58
1, 136837, Control_c, 0, 64, 49
1, 136843, Note_off_c, 0, 65, 44
1, 136851, Note_off_c, 0, 68, 54
1, 136852, Control_c, 0, 64, 54
1, 136866, Control_c, 0, 64, 63
1, 136881, Control_c, 0, 64, 70
1, 136896, Control_c, 0, 64, 79
1, 136911, Control_c, 0, 64, 93
1, 136926, Control_c, 0, 64, 112
1, 136937, Note_off_c, 0, 53, 34
1, 136940, Note_on_c, 0, 44, 65
1, 136941, Control_c, 0, 64, 127
1, 136956, Note_on_c, 0, 60, 76
1, 137027, Note_off_c, 0, 56, 32
1, 137099, Note_on_c, 0, 48, 65
1, 137109, Note_on_c, 0, 65, 76
1, 137196, Note_off_c, 0, 72, 29
1, 137257, Note_on_c, 0, 53, 71
1, 137259, Note_off_c, 0, 44, 28
1, 137266, Note_on_c, 0, 68, 80
1, 137325, Note_off_c, 0, 60, 31
1, 137402, Note_off_c, 0, 48, 33
1, 137418, Note_on_c, 0, 72, 79
1, 137422, Note_on_c, 0, 56, 66
1, 137447, Note_off_c, 0, 65, 28
1, 137470, Note_off_c, 0, 68, 54
1, 137567, Note_on_c, 0, 44, 70
1, 137581, Note_on_c, 0, 60, 77
1, 137598, Note_off_c, 0, 53, 32
1, 137624, Note_off_c, 0, 56, 35
1, 137730, Note_on_c, 0, 48, 70
1, 137738, Note_on_c, 0, 65, 79
1, 137800, Note_off_c, 0, 72, 34
1, 137820, Note_off_c, 0, 44, 49
1, 137882, Note_on_c, 0, 53, 71
1, 137892, Note_on_c, 0, 68, 81
1, 137949, Note_off_c, 0, 60, 33
1, 138005, Note_off_c, 0, 48, 30
1, 138026, Note_off_c, 0, 65, 36
1, 138056, Note_on_c, 0, 56, 72
1, 138057, Note_on_c, 0, 72, 84
1, 138095, Note_off_c, 0, 68, 63
1, 138181, Note_off_c, 0, 53, 53
1, 138223, Note_on_c, 0, 44, 72
1, 138223, Note_on_c, 0, 60, 82
1, 138275, Note_off_c, 0, 56, 33
1, 138383, Note_on_c, 0, 48, 69
1, 138387, Note_on_c, 0, 65, 81
1, 138436, Note_off_c, 0, 72, 57
1, 138446, Note_off_c, 0, 60, 53
1, 138554, Note_on_c, 0, 68, 85
1, 138563, Note_on_c, 0, 53, 73
1, 138655, Note_off_c, 0, 65, 35
1, 138814, Control_c, 0, 64, 91
1, 138829, Control_c, 0, 64, 75
1, 138832, Note_on_c, 0, 72, 83
1, 138837, Note_on_c, 0, 56, 69
1, 138844, Control_c, 0, 64, 63
1, 138857, Note_off_c, 0, 68, 63
1, 138859, Control_c, 0, 64, 52
1, 138874, Control_c, 0, 64, 37
1, 138888, Control_c, 0, 64, 0
1, 138992, Control_c, 0, 64, 13
1, 139007, Control_c, 0, 64, 46
1, 139022, Control_c, 0, 64, 59
1, 139037, Control_c, 0, 64, 65
1, 139051, Control_c, 0, 64, 69
1, 139066, Control_c, 0, 64, 73
1, 139081, Control_c, 0, 64, 78
1, 139096, Control_c, 0, 64, 85
1, 139101, Note_off_c, 0, 72, 0
1, 139111, Control_c, 0, 64, 91
1, 139126, Control_c, 0, 64, 97
1, 139138, Poly_aftertouch_c, 0, 72, 127
1, 139140, Control_c, 0, 64, 103
1, 139145, Note_on_c, 0, 65, 61
1, 139155, Control_c, 0, 64, 109
1, 139171, Control_c, 0, 64, 119
1, 139173, Note_off_c, 0, 65, 67
1, 139186, Control_c, 0, 64, 127
1, 139205, Poly_aftertouch_c, 0, 72, 0
1, 139242, Note_on_c, 0, 65, 67
1, 139350, Control_c, 0, 64, 117
1, 139364, Control_c, 0, 64, 104
1, 139386, Control_c, 0, 64, 95
1, 139401, Control_c, 0, 64, 88
1, 139416, Control_c, 0, 64, 84
1, 139431, Control_c, 0, 64, 81
1, 139445, Control_c, 0, 64, 78
1, 139460, Control_c, 0, 64, 73
1, 139475, Control_c, 0, 64, 68
1, 139476, Note_off_c, 0, 56, 49
1, 139490, Control_c, 0, 64, 62
1, 139505, Control_c, 0, 64, 56
1, 139506, Note_off_c, 0, 44, 40
1, 139517, Note_off_c, 0, 53, 58
1, 139519, Control_c, 0, 64, 52
1, 139534, Control_c, 0, 64, 48
1, 139545, Note_off_c, 0, 48, 37
1, 139549, Control_c, 0, 64, 44
1, 139557, Note_off_c, 0, 65, 63
1, 139564, Control_c, 0, 64, 37
1, 139579, Control_c, 0, 64, 22
1, 139594, Control_c, 0, 64, 0
1, 140070, Note_on_c, 0, 72, 59
1, 140071, Note_on_c, 0, 60, 47
1, 140098, Control_c, 0, 64, 33
1, 140113, Control_c, 0, 64, 53
1, 140135, Control_c, 0, 64, 61
1, 140150, Control_c, 0, 64, 64
1, 140165, Control_c, 0, 64, 66
1, 140180, Control_c, 0, 64, 67
1, 140194, Control_c, 0, 64, 70
1, 140209, Control_c, 0, 64, 74
1, 140224, Control_c, 0, 64, 78
1, 140239, Control_c, 0, 64, 83
1, 140254, Control_c, 0, 64, 86
1, 140268, Control_c, 0, 64, 89
1, 140283, Control_c, 0, 64, 91
1, 140298, Control_c, 0, 64, 92
1, 140368, Note_on_c, 0, 53, 39
1, 140371, Note_on_c, 0, 65, 49
1, 140393, Note_off_c, 0, 65, 59
1, 140401, Note_off_c, 0, 53, 50
1, 140411, Note_off_c, 0, 72, 31
1, 140417, Control_c, 0, 64, 91
1, 140432, Control_c, 0, 64, 91
1, 140433, Note_off_c, 0, 60, 42
1, 140447, Control_c, 0, 64, 90
1, 140461, Control_c, 0, 64, 88
1, 140476, Note_on_c, 0, 53, 55
1, 140476, Control_c, 0, 64, 86
1, 140481, Note_on_c, 0, 65, 54
1, 140491, Control_c, 0, 64, 84
1, 140505, Control_c, 0, 64, 82
1, 140520, Control_c, 0, 64, 79
1, 140535, Control_c, 0, 64, 75
1, 140550, Control_c, 0, 64, 71
1, 140565, Control_c, 0, 64, 67
1, 140580, Control_c, 0, 64, 63
1, 140594, Control_c, 0, 64, 59
1, 140609, Control_c, 0, 64, 56
1, 140624, Control_c, 0, 64, 53
1, 140639, Control_c, 0, 64, 51
1, 140654, Control_c, 0, 64, 49
1, 140667, Control_c, 0, 64, 45
1, 140682, Control_c, 0, 64, 39
1, 140697, Control_c, 0, 64, 30
1, 140712, Control_c, 0, 64, 12
1, 140727, Control_c, 0, 64, 0
1, 140744, Note_off_c, 0, 65, 51
1, 140767, Note_off_c, 0, 53, 47
1, 140972, Control_c, 0, 64, 8
1, 140987, Control_c, 0, 64, 10
1, 141031, Control_c, 0, 64, 13
1, 141046, Control_c, 0, 64, 19
1, 141061, Control_c, 0, 64, 25
1, 141076, Control_c, 0, 64, 30
1, 141090, Control_c, 0, 64, 33
1, 141105, Control_c, 0, 64, 35
1, 141120, Control_c, 0, 64, 37
1, 141135, Control_c, 0, 64, 41
1, 141150, Control_c, 0, 64, 44
1, 141165, Control_c, 0, 64, 48
1, 141180, Control_c, 0, 64, 51
1, 141195, Control_c, 0, 64, 53
1, 141209, Control_c, 0, 64, 54
1, 141224, Control_c, 0, 64, 55
1, 141239, Control_c, 0, 64, 57
1, 141253, Control_c, 0, 64, 59
1, 141268, Control_c, 0, 64, 61
1, 141283, Control_c, 0, 64, 62
1, 141298, Control_c, 0, 64, 62
1, 141313, Control_c, 0, 64, 63
1, 141327, Control_c, 0, 64, 65
1, 141342, Control_c, 0, 64, 67
1, 141357, Control_c, 0, 64, 69
1, 141372, Control_c, 0, 64, 73
1, 141376, Note_on_c, 0, 65, 37
1, 141377, Note_on_c, 0, 63, 34
1, 141387, Control_c, 0, 64, 78
1, 141393, Note_on_c, 0, 32, 35
1, 141393, Note_on_c, 0, 39, 19
1, 141393, Note_on_c, 0, 60, 35
1, 141401, Control_c, 0, 64, 83
1, 141416, Control_c, 0, 64, 88
1, 141431, Control_c, 0, 64, 92
1, 141446, Control_c, 0, 64, 96
1, 141460, Control_c, 0, 64, 101
1, 141475, Control_c, 0, 64, 109
1, 141490, Control_c, 0, 64, 127
1, 141551, Note_off_c, 0, 63, 35
1, 141580, Note_off_c, 0, 60, 16
1, 141589, Note_off_c, 0, 32, 40
1, 141633, Note_off_c, 0, 39, 36
1, 141647, Note_off_c, 0, 65, 29
1, 141844, Note_on_c, 0, 63, 45
1, 141845, Note_on_c, 0, 65, 42
1, 141859, Note_on_c, 0, 39, 36
1, 141864, Note_on_c, 0, 32, 37
1, 141866, Note_on_c, 0, 60, 33
1, 141997, Note_off_c, 0, 63, 39
1, 142049, Note_off_c, 0, 60, 21
1, 142058, Note_off_c, 0, 32, 39
1, 142059, Note_off_c, 0, 65, 33
1, 142089, Note_off_c, 0, 39, 32
1, 142231, Note_on_c, 0, 65, 55
1, 142233, Note_on_c, 0, 63, 55
1, 142244, Note_on_c, 0, 60, 51
1, 142247, Note_on_c, 0, 39, 48
1, 142251, Note_on_c, 0, 32, 47
1, 142408, Note_off_c, 0, 65, 57
1, 142441, Note_off_c, 0, 63, 32
1, 142446, Note_off_c, 0, 60, 31
1, 142453, Note_off_c, 0, 39, 32
1, 142477, Note_off_c, 0, 32, 31
1, 142734, Note_on_c, 0, 63, 61
1, 142737, Note_on_c, 0, 66, 63
1, 142746, Note_on_c, 0, 60, 51
1, 142754, Note_on_c, 0, 39, 55
1, 142755, Note_on_c, 0, 33, 58
1, 142766, Control_c, 0, 64, 124
1, 142781, Control_c, 0, 64, 98
1, 142795, Control_c, 0, 64, 85
1, 142810, Control_c, 0, 64, 77
1, 142825, Control_c, 0, 64, 70
1, 142840, Control_c, 0, 64, 64
1, 142855, Control_c, 0, 64, 59
1, 142870, Control_c, 0, 64, 52
1, 142885, Control_c, 0, 64, 48
1, 142899, Control_c, 0, 64, 44
1, 142915, Control_c, 0, 64, 39
1, 142930, Control_c, 0, 64, 30
1, 142945, Control_c, 0, 64, 11
1, 142959, Control_c, 0, 64, 0
1, 143093, Control_c, 0, 64, 32
1, 143107, Control_c, 0, 64, 50
1, 143129, Control_c, 0, 64, 60
1, 143144, Control_c, 0, 64, 64
1, 143159, Control_c, 0, 64, 67
1, 143174, Control_c, 0, 64, 72
1, 143189, Control_c, 0, 64, 80
1, 143204, Control_c, 0, 64, 92
1, 143219, Control_c, 0, 64, 109
1, 143234, Control_c, 0, 64, 127
1, 143386, Note_off_c, 0, 60, 0
1, 143405, Note_off_c, 0, 63, 0
1, 143482, Poly_aftertouch_c, 0, 63, 0
1, 143494, Poly_aftertouch_c, 0, 60, 0
1, 143518, Note_off_c, 0, 33, 35
1, 143527, Note_off_c, 0, 66, 37
1, 143544, Note_off_c, 0, 39, 62
1, 144081, Note_on_c, 0, 66, 65
1, 144083, Note_on_c, 0, 63, 65
1, 144085, Note_on_c, 0, 54, 60
1, 144089, Note_on_c, 0, 60, 58
1, 144095, Note_on_c, 0, 51, 56
1, 144100, Note_on_c, 0, 45, 48
1, 144101, Control_c, 0, 64, 93
1, 144116, Control_c, 0, 64, 74
1, 144131, Control_c, 0, 64, 62
1, 144146, Control_c, 0, 64, 52
1, 144161, Control_c, 0, 64, 49
1, 144176, Control_c, 0, 64, 54
1, 144191, Control_c, 0, 64, 64
1, 144205, Control_c, 0, 64, 73
1, 144220, Control_c, 0, 64, 88
1, 144235, Control_c, 0, 64, 127
1, 144372, Note_off_c, 0, 63, 36
1, 144386, Note_off_c, 0, 51, 54
1, 144405, Note_off_c, 0, 54, 50
1, 144415, Note_off_c, 0, 45, 40
1, 144417, Note_off_c, 0, 66, 35
1, 144435, Note_off_c, 0, 60, 26
1, 144551, Note_on_c, 0, 45, 52
1, 144551, Note_on_c, 0, 51, 64
1, 144552, Note_on_c, 0, 66, 75
1, 144554, Note_on_c, 0, 60, 77
1, 144554, Note_on_c, 0, 63, 75
1, 144554, Note_on_c, 0, 54, 67
1, 144834, Note_off_c, 0, 63, 57
1, 144846, Note_off_c, 0, 51, 56
1, 144867, Note_off_c, 0, 66, 50
1, 144870, Note_off_c, 0, 60, 34
1, 144883, Note_off_c, 0, 45, 38
1, 144891, Note_off_c, 0, 54, 33
1, 145085, Note_on_c, 0, 63, 76
1, 145088, Note_on_c, 0, 66, 78
1, 145091, Note_on_c, 0, 60, 76
1, 145092, Note_on_c, 0, 51, 70
1, 145092, Note_on_c, 0, 54, 74
1, 145100, Note_on_c, 0, 45, 65
1, 145442, Note_off_c, 0, 63, 59
1, 145452, Note_off_c, 0, 60, 35
1, 145477, Note_off_c, 0, 51, 32
1, 145497, Note_off_c, 0, 54, 34
1, 145510, Note_off_c, 0, 66, 52
1, 145511, Note_off_c, 0, 45, 34
1, 145807, Note_on_c, 0, 67, 79
1, 145809, Note_on_c, 0, 63, 73
1, 145811, Note_on_c, 0, 58, 78
1, 145813, Note_on_c, 0, 55, 72
1, 145814, Note_on_c, 0, 51, 70
1, 145829, Note_on_c, 0, 46, 64
1, 145880, Control_c, 0, 64, 100
1, 145895, Control_c, 0, 64, 80
1, 145911, Control_c, 0, 64, 67
1, 145925, Control_c, 0, 64, 56
1, 145940, Control_c, 0, 64, 49
1, 145955, Control_c, 0, 64, 45
1, 145969, Control_c, 0, 64, 40
1, 145984, Control_c, 0, 64, 30
1, 145999, Control_c, 0, 64, 0
1, 146318, Control_c, 0, 64, 19
1, 146332, Control_c, 0, 64, 40
1, 146347, Control_c, 0, 64, 53
1, 146362, Control_c, 0, 64, 60
1, 146376, Control_c, 0, 64, 63
1, 146391, Control_c, 0, 64, 65
1, 146408, Control_c, 0, 64, 68
1, 146422, Control_c, 0, 64, 73
1, 146437, Control_c, 0, 64, 83
1, 146452, Control_c, 0, 64, 96
1, 146467, Control_c, 0, 64, 127
1, 146714, Note_off_c, 0, 67, 26
1, 146758, Note_off_c, 0, 58, 34
1, 146764, Note_off_c, 0, 51, 0
1, 146807, Note_off_c, 0, 63, 37
1, 146856, Note_off_c, 0, 55, 39
1, 146857, Poly_aftertouch_c, 0, 51, 0
1, 146966, Note_off_c, 0, 46, 33
1, 147696, Control_c, 0, 64, 105
1, 147700, Note_on_c, 0, 67, 47
1, 147703, Note_on_c, 0, 34, 55
1, 147706, Note_on_c, 0, 46, 48
1, 147708, Note_on_c, 0, 62, 46
1, 147711, Control_c, 0, 64, 84
1, 147715, Note_on_c, 0, 56, 38
1, 147726, Control_c, 0, 64, 69
1, 147737, Note_off_c, 0, 46, 60
1, 147741, Control_c, 0, 64, 58
1, 147742, Note_off_c, 0, 34, 64
1, 147756, Control_c, 0, 64, 45
1, 147762, Note_off_c, 0, 56, 45
1, 147771, Control_c, 0, 64, 32
1, 147773, Note_off_c, 0, 62, 50
1, 147785, Control_c, 0, 64, 20
1, 147800, Control_c, 0, 64, 11
1, 147815, Control_c, 0, 64, 8
1, 147868, Note_on_c, 0, 65, 48
1, 147881, Note_off_c, 0, 67, 35
1, 147890, Control_c, 0, 64, 9
1, 147904, Control_c, 0, 64, 12
1, 147908, Note_off_c, 0, 65, 64
1, 147919, Control_c, 0, 64, 17
1, 147934, Control_c, 0, 64, 23
1, 147948, Control_c, 0, 64, 26
1, 147993, Control_c, 0, 64, 26
1, 148009, Control_c, 0, 64, 29
1, 148011, Note_on_c, 0, 34, 56
1, 148015, Note_on_c, 0, 65, 54
1, 148020, Note_on_c, 0, 46, 47
1, 148024, Control_c, 0, 64, 32
1, 148039, Control_c, 0, 64, 34
1, 148041, Note_off_c, 0, 34, 61
1, 148044, Note_off_c, 0, 46, 49
1, 148053, Control_c, 0, 64, 33
1, 148059, Note_off_c, 0, 65, 64
1, 148066, Note_on_c, 0, 56, 3
1, 148066, Note_on_c, 0, 67, 57
1, 148068, Control_c, 0, 64, 33
1, 148075, Note_off_c, 0, 56, 42
1, 148113, Control_c, 0, 64, 33
1, 148113, Note_off_c, 0, 67, 41
1, 148152, Note_on_c, 0, 65, 52
1, 148171, Control_c, 0, 64, 33
1, 148200, Note_off_c, 0, 65, 59
1, 148202, Note_on_c, 0, 64, 60
1, 148216, Control_c, 0, 64, 32
1, 148231, Control_c, 0, 64, 32
1, 148245, Control_c, 0, 64, 31
1, 148253, Note_on_c, 0, 62, 54
1, 148260, Control_c, 0, 64, 30
1, 148265, Note_off_c, 0, 64, 54
1, 148275, Control_c, 0, 64, 29
1, 148280, Note_on_c, 0, 65, 46
1, 148283, Note_on_c, 0, 56, 19
1, 148290, Note_on_c, 0, 34, 62
1, 148290, Control_c, 0, 64, 28
1, 148292, Note_on_c, 0, 46, 44
1, 148301, Note_off_c, 0, 62, 60
1, 148305, Control_c, 0, 64, 25
1, 148319, Control_c, 0, 64, 23
1, 148322, Note_off_c, 0, 34, 65
1, 148322, Note_off_c, 0, 46, 63
1, 148334, Control_c, 0, 64, 21
1, 148348, Note_off_c, 0, 56, 39
1, 148371, Control_c, 0, 64, 21
1, 148386, Control_c, 0, 64, 20
1, 148401, Control_c, 0, 64, 18
1, 148406, Note_off_c, 0, 65, 57
1, 148416, Control_c, 0, 64, 15
1, 148429, Note_on_c, 0, 67, 46
1, 148431, Control_c, 0, 64, 13
1, 148466, Note_off_c, 0, 67, 64
1, 148549, Control_c, 0, 64, 14
1, 148581, Note_on_c, 0, 51, 55
1, 148581, Note_on_c, 0, 63, 50
1, 148588, Note_on_c, 0, 39, 53
1, 148591, Note_on_c, 0, 55, 40
1, 148609, Note_off_c, 0, 51, 63
1, 148614, Note_off_c, 0, 63, 59
1, 148618, Note_off_c, 0, 39, 62
1, 148620, Note_off_c, 0, 55, 49
1, 148623, Control_c, 0, 64, 14
1, 148638, Control_c, 0, 64, 16
1, 148645, Note_on_c, 0, 65, 57
1, 148653, Control_c, 0, 64, 17
1, 148668, Control_c, 0, 64, 17
1, 148683, Control_c, 0, 64, 18
1, 148698, Control_c, 0, 64, 18
1, 148701, Note_off_c, 0, 65, 52
1, 148713, Control_c, 0, 64, 19
1, 148715, Note_on_c, 0, 63, 54
1, 148742, Control_c, 0, 64, 19
1, 148757, Control_c, 0, 64, 20
1, 148763, Note_off_c, 0, 63, 61
1, 148782, Note_on_c, 0, 62, 55
1, 148830, Note_off_c, 0, 62, 59
1, 148858, Note_on_c, 0, 63, 56
1, 148887, Note_off_c, 0, 63, 65
1, 148905, Control_c, 0, 64, 20
1, 148920, Control_c, 0, 64, 21
1, 148940, Note_on_c, 0, 65, 61
1, 148969, Note_off_c, 0, 65, 68
1, 149040, Note_on_c, 0, 67, 63
1, 149068, Note_off_c, 0, 67, 66
1, 149146, Note_on_c, 0, 68, 63
1, 149149, Control_c, 0, 64, 21
1, 149164, Control_c, 0, 64, 22
1, 149179, Control_c, 0, 64, 22
1, 149182, Note_off_c, 0, 68, 60
1, 149238, Note_on_c, 0, 70, 62
1, 149265, Note_off_c, 0, 70, 66
1, 149338, Note_on_c, 0, 72, 65
1, 149365, Note_off_c, 0, 72, 66
1, 149401, Control_c, 0, 64, 23
1, 149448, Note_on_c, 0, 74, 54
1, 149467, Note_off_c, 0, 74, 61
1, 149551, Note_on_c, 0, 75, 57
1, 149580, Note_off_c, 0, 75, 66
1, 149658, Note_on_c, 0, 77, 53
1, 149669, Control_c, 0, 64, 24
1, 149681, Note_off_c, 0, 77, 59
1, 149684, Control_c, 0, 64, 24
1, 149714, Control_c, 0, 64, 24
1, 149758, Note_on_c, 0, 78, 62
1, 149786, Note_off_c, 0, 78, 67
1, 149832, Control_c, 0, 64, 24
1, 149873, Note_on_c, 0, 79, 65
1, 149899, Note_off_c, 0, 79, 66
1, 149899, Control_c, 0, 64, 24
1, 149975, Note_on_c, 0, 80, 64
1, 150004, Note_off_c, 0, 80, 62
1, 150083, Note_on_c, 0, 81, 66
1, 150109, Note_off_c, 0, 81, 66
1, 150136, Control_c, 0, 64, 24
1, 150202, Note_on_c, 0, 82, 63
1, 150227, Note_off_c, 0, 82, 68
1, 150313, Control_c, 0, 64, 24
1, 150317, Note_on_c, 0, 83, 71
1, 150342, Note_off_c, 0, 83, 67
1, 150403, Control_c, 0, 64, 23
1, 150504, Note_on_c, 0, 84, 71
1, 150517, Note_on_c, 0, 72, 47
1, 150520, Note_on_c, 0, 75, 45
1, 150531, Note_on_c, 0, 68, 42
1, 150618, Control_c, 0, 64, 23
1, 150633, Control_c, 0, 64, 22
1, 150803, Note_off_c, 0, 84, 29
1, 150805, Note_on_c, 0, 77, 54
1, 150826, Note_off_c, 0, 77, 61
1, 150870, Control_c, 0, 64, 23
1, 150887, Note_on_c, 0, 77, 65
1, 151179, Note_off_c, 0, 75, 62
1, 151182, Note_off_c, 0, 72, 58
1, 151193, Note_off_c, 0, 77, 61
1, 151217, Note_off_c, 0, 68, 62
1, 151315, Control_c, 0, 64, 23
1, 151330, Control_c, 0, 64, 24
1, 151345, Control_c, 0, 64, 26
1, 151367, Control_c, 0, 64, 27
1, 151470, Control_c, 0, 64, 27
1, 151575, Note_on_c, 0, 71, 45
1, 151644, Note_on_c, 0, 72, 51
1, 151649, Note_off_c, 0, 71, 58
1, 151661, Note_on_c, 0, 56, 40
1, 151663, Note_on_c, 0, 63, 25
1, 151672, Note_on_c, 0, 60, 38
1, 151796, Control_c, 0, 64, 26
1, 151935, Note_on_c, 0, 65, 46
1, 151935, Note_off_c, 0, 72, 38
1, 151960, Note_off_c, 0, 65, 58
1, 152036, Note_on_c, 0, 65, 48
1, 152316, Note_off_c, 0, 63, 51
1, 152331, Note_off_c, 0, 60, 43
1, 152337, Note_off_c, 0, 65, 61
1, 152370, Note_off_c, 0, 56, 55
1, 152382, Control_c, 0, 64, 26
1, 152501, Control_c, 0, 64, 26
1, 152605, Control_c, 0, 64, 27
1, 152694, Control_c, 0, 64, 26
1, 152799, Control_c, 0, 64, 27
1, 152814, Control_c, 0, 64, 28
1, 152829, Control_c, 0, 64, 31
1, 152843, Control_c, 0, 64, 36
1, 152865, Control_c, 0, 64, 43
1, 152880, Control_c, 0, 64, 49
1, 152895, Control_c, 0, 64, 54
1, 152910, Control_c, 0, 64, 57
1, 152924, Note_on_c, 0, 53, 33
1, 152925, Control_c, 0, 64, 59
1, 152926, Note_on_c, 0, 51, 32
1, 152939, Control_c, 0, 64, 61
1, 152943, Note_on_c, 0, 44, 25
1, 152950, Note_on_c, 0, 32, 27
1, 152954, Control_c, 0, 64, 63
1, 152969, Control_c, 0, 64, 66
1, 152984, Control_c, 0, 64, 69
1, 152987, Poly_aftertouch_c, 0, 48, 127
1, 152999, Control_c, 0, 64, 74
1, 153014, Control_c, 0, 64, 80
1, 153029, Control_c, 0, 64, 87
1, 153043, Control_c, 0, 64, 94
1, 153058, Control_c, 0, 64, 103
1, 153073, Control_c, 0, 64, 122
1, 153087, Control_c, 0, 64, 127
1, 153100, Note_off_c, 0, 51, 23
1, 153123, Note_off_c, 0, 53, 35
1, 153143, Poly_aftertouch_c, 0, 48, 0
1, 153156, Note_off_c, 0, 32, 33
1, 153158, Note_off_c, 0, 44, 39
1, 153365, Note_on_c, 0, 53, 51
1, 153369, Note_on_c, 0, 51, 48
1, 153384, Note_on_c, 0, 44, 42
1, 153387, Note_on_c, 0, 48, 36
1, 153389, Note_on_c, 0, 32, 41
1, 153478, Note_off_c, 0, 51, 0
1, 153519, Poly_aftertouch_c, 0, 51, 0
1, 153519, Note_off_c, 0, 53, 0
1, 153564, Note_off_c, 0, 32, 36
1, 153571, Note_off_c, 0, 48, 20
1, 153577, Note_off_c, 0, 44, 31
1, 153601, Poly_aftertouch_c, 0, 53, 0
1, 153802, Note_on_c, 0, 51, 56
1, 153802, Note_on_c, 0, 53, 60
1, 153817, Note_on_c, 0, 44, 46
1, 153820, Note_on_c, 0, 48, 52
1, 153822, Note_on_c, 0, 32, 47
1, 153929, Note_off_c, 0, 51, 52
1, 153968, Note_off_c, 0, 53, 53
1, 153974, Note_off_c, 0, 48, 27
1, 154036, Note_off_c, 0, 32, 31
1, 154039, Note_off_c, 0, 44, 31
1, 154361, Note_on_c, 0, 54, 59
1, 154370, Note_on_c, 0, 51, 55
1, 154376, Note_on_c, 0, 45, 50
1, 154376, Note_on_c, 0, 48, 50
1, 154382, Note_on_c, 0, 33, 43
1, 154391, Control_c, 0, 64, 107
1, 154406, Control_c, 0, 64, 92
1, 154421, Control_c, 0, 64, 79
1, 154436, Control_c, 0, 64, 69
1, 154451, Control_c, 0, 64, 61
1, 154465, Control_c, 0, 64, 52
1, 154480, Control_c, 0, 64, 46
1, 154495, Control_c, 0, 64, 39
1, 154510, Control_c, 0, 64, 31
1, 154525, Control_c, 0, 64, 18
1, 154539, Control_c, 0, 64, 0
1, 154865, Control_c, 0, 64, 20
1, 154880, Control_c, 0, 64, 37
1, 154895, Control_c, 0, 64, 52
1, 154910, Control_c, 0, 64, 59
1, 154925, Control_c, 0, 64, 63
1, 154939, Control_c, 0, 64, 66
1, 154954, Control_c, 0, 64, 69
1, 154969, Control_c, 0, 64, 74
1, 154984, Control_c, 0, 64, 82
1, 154999, Control_c, 0, 64, 97
1, 155013, Control_c, 0, 64, 122
1, 155028, Control_c, 0, 64, 127
1, 155086, Note_off_c, 0, 48, 48
1, 155136, Note_off_c, 0, 51, 47
1, 155160, Note_off_c, 0, 54, 52
1, 155210, Note_off_c, 0, 33, 35
1, 155250, Note_off_c, 0, 45, 32
1, 155972, Note_on_c, 0, 78, 62
1, 155976, Control_c, 0, 64, 120
1, 155989, Note_on_c, 0, 72, 44
1, 155989, Note_on_c, 0, 75, 54
1, 155992, Control_c, 0, 64, 95
1, 156002, Note_on_c, 0, 69, 47
1, 156007, Control_c, 0, 64, 81
1, 156022, Control_c, 0, 64, 67
1, 156036, Control_c, 0, 64, 55
1, 156051, Control_c, 0, 64, 38
1, 156066, Control_c, 0, 64, 9
1, 156081, Control_c, 0, 64, 0
1, 156125, Control_c, 0, 64, 42
1, 156140, Control_c, 0, 64, 58
1, 156155, Control_c, 0, 64, 66
1, 156170, Control_c, 0, 64, 73
1, 156184, Control_c, 0, 64, 82
1, 156199, Control_c, 0, 64, 92
1, 156214, Control_c, 0, 64, 104
1, 156227, Note_off_c, 0, 75, 38
1, 156229, Control_c, 0, 64, 127
1, 156266, Note_off_c, 0, 78, 32
1, 156276, Note_off_c, 0, 69, 42
1, 156292, Note_off_c, 0, 72, 32
1, 156447, Note_on_c, 0, 78, 78
1, 156450, Note_on_c, 0, 72, 48
1, 156454, Note_on_c, 0, 75, 67
1, 156458, Note_on_c, 0, 69, 50
1, 156466, Control_c, 0, 64, 93
1, 156481, Control_c, 0, 64, 73
1, 156496, Control_c, 0, 64, 60
1, 156511, Control_c, 0, 64, 45
1, 156526, Control_c, 0, 64, 39
1, 156540, Control_c, 0, 64, 49
1, 156555, Control_c, 0, 64, 62
1, 156570, Control_c, 0, 64, 72
1, 156585, Control_c, 0, 64, 87
1, 156604, Note_off_c, 0, 75, 0
1, 156607, Control_c, 0, 64, 124
1, 156622, Control_c, 0, 64, 127
1, 156661, Poly_aftertouch_c, 0, 75, 0
1, 156719, Note_off_c, 0, 78, 34
1, 156738, Note_off_c, 0, 69, 47
1, 156788, Note_off_c, 0, 72, 29
1, 156964, Control_c, 0, 64, 105
1, 156976, Note_on_c, 0, 78, 81
1, 156979, Control_c, 0, 64, 86
1, 156986, Note_on_c, 0, 75, 70
1, 156987, Note_on_c, 0, 69, 51
1, 156988, Note_on_c, 0, 72, 47
1, 156994, Control_c, 0, 64, 74
1, 157008, Control_c, 0, 64, 65
1, 157023, Control_c, 0, 64, 57
1, 157038, Control_c, 0, 64, 47
1, 157052, Control_c, 0, 64, 43
1, 157067, Control_c, 0, 64, 46
1, 157082, Control_c, 0, 64, 55
1, 157097, Control_c, 0, 64, 63
1, 157112, Control_c, 0, 64, 71
1, 157126, Control_c, 0, 64, 80
1, 157137, Note_off_c, 0, 75, 45
1, 157141, Control_c, 0, 64, 101
1, 157156, Control_c, 0, 64, 127
1, 157282, Note_off_c, 0, 72, 41
1, 157306, Note_off_c, 0, 78, 35
1, 157309, Note_off_c, 0, 69, 29
1, 157713, Note_on_c, 0, 79, 74
1, 157718, Note_on_c, 0, 75, 69
1, 157723, Note_on_c, 0, 70, 60
1, 157742, Control_c, 0, 64, 102
1, 157757, Control_c, 0, 64, 83
1, 157772, Control_c, 0, 64, 72
1, 157786, Control_c, 0, 64, 62
1, 157801, Control_c, 0, 64, 50
1, 157816, Control_c, 0, 64, 36
1, 157831, Control_c, 0, 64, 13
1, 157846, Control_c, 0, 64, 0
1, 158105, Control_c, 0, 64, 13
1, 158120, Control_c, 0, 64, 38
1, 158135, Control_c, 0, 64, 53
1, 158150, Control_c, 0, 64, 60
1, 158164, Control_c, 0, 64, 64
1, 158179, Control_c, 0, 64, 65
1, 158194, Control_c, 0, 64, 68
1, 158208, Control_c, 0, 64, 73
1, 158223, Control_c, 0, 64, 80
1, 158238, Control_c, 0, 64, 89
1, 158253, Control_c, 0, 64, 100
1, 158268, Control_c, 0, 64, 122
1, 158282, Control_c, 0, 64, 127
1, 158553, Note_off_c, 0, 75, 0
1, 158557, Note_off_c, 0, 79, 33
1, 158573, Poly_aftertouch_c, 0, 75, 0
1, 158636, Note_off_c, 0, 70, 34
1, 159432, Control_c, 0, 64, 114
1, 159447, Control_c, 0, 64, 96
1, 159462, Control_c, 0, 64, 83
1, 159467, Note_on_c, 0, 67, 49
1, 159475, Note_on_c, 0, 34, 47
1, 159475, Note_on_c, 0, 62, 44
1, 159477, Control_c, 0, 64, 69
1, 159487, Note_on_c, 0, 56, 32
1, 159490, Note_on_c, 0, 46, 34
1, 159492, Control_c, 0, 64, 60
1, 159506, Control_c, 0, 64, 49
1, 159515, Note_off_c, 0, 34, 54
1, 159517, Note_off_c, 0, 46, 45
1, 159521, Control_c, 0, 64, 39
1, 159523, Note_off_c, 0, 56, 48
1, 159530, Note_off_c, 0, 62, 40
1, 159536, Control_c, 0, 64, 29
1, 159551, Control_c, 0, 64, 22
1, 159566, Control_c, 0, 64, 19
1, 159614, Note_off_c, 0, 67, 26
1, 159628, Note_on_c, 0, 65, 55
1, 159632, Control_c, 0, 64, 18
1, 159647, Control_c, 0, 64, 17
1, 159661, Control_c, 0, 64, 16
1, 159668, Note_off_c, 0, 65, 63
1, 159691, Control_c, 0, 64, 17
1, 159706, Control_c, 0, 64, 18
1, 159721, Control_c, 0, 64, 19
1, 159736, Control_c, 0, 64, 19
1, 159751, Control_c, 0, 64, 21
1, 159766, Control_c, 0, 64, 24
1, 159772, Note_on_c, 0, 34, 55
1, 159773, Note_on_c, 0, 65, 57
1, 159780, Control_c, 0, 64, 26
1, 159784, Note_on_c, 0, 46, 44
1, 159795, Control_c, 0, 64, 27
1, 159809, Note_off_c, 0, 34, 64
1, 159810, Note_off_c, 0, 46, 48
1, 159825, Note_off_c, 0, 65, 63
1, 159836, Note_on_c, 0, 67, 61
1, 159854, Control_c, 0, 64, 27
1, 159906, Note_off_c, 0, 67, 53
1, 159913, Control_c, 0, 64, 28
1, 159914, Note_on_c, 0, 65, 51
1, 159928, Control_c, 0, 64, 28
1, 159956, Note_off_c, 0, 65, 64
1, 159965, Note_on_c, 0, 64, 57
1, 160025, Note_on_c, 0, 62, 43
1, 160033, Control_c, 0, 64, 28
1, 160038, Note_on_c, 0, 34, 59
1, 160040, Note_off_c, 0, 64, 49
1, 160046, Note_on_c, 0, 46, 42
1, 160048, Control_c, 0, 64, 27
1, 160049, Note_on_c, 0, 65, 66
1, 160063, Note_on_c, 0, 56, 23
1, 160063, Control_c, 0, 64, 24
1, 160065, Note_off_c, 0, 62, 54
1, 160071, Note_off_c, 0, 46, 57
1, 160073, Note_off_c, 0, 34, 64
1, 160077, Control_c, 0, 64, 22
1, 160092, Control_c, 0, 64, 19
1, 160100, Note_off_c, 0, 56, 45
1, 160107, Control_c, 0, 64, 18
1, 160122, Control_c, 0, 64, 15
1, 160125, Note_off_c, 0, 65, 58
1, 160136, Control_c, 0, 64, 14
1, 160151, Control_c, 0, 64, 13
1, 160166, Control_c, 0, 64, 13
1, 160194, Note_on_c, 0, 67, 54
1, 160196, Control_c, 0, 64, 12
1, 160210, Control_c, 0, 64, 8
1, 160220, Note_off_c, 0, 67, 63
1, 160225, Control_c, 0, 64, 0
1, 160332, Note_on_c, 0, 39, 56
1, 160338, Note_on_c, 0, 55, 61
1, 160338, Note_on_c, 0, 63, 53
1, 160365, Note_on_c, 0, 51, 24
1, 160371, Note_off_c, 0, 63, 62
1, 160374, Note_off_c, 0, 39, 64
1, 160375, Note_off_c, 0, 55, 65
1, 160404, Note_off_c, 0, 51, 30
1, 160493, Note_on_c, 0, 51, 58
1, 160499, Control_c, 0, 64, 8
1, 160514, Control_c, 0, 64, 10
1, 160529, Control_c, 0, 64, 11
1, 160533, Note_off_c, 0, 51, 62
1, 160630, Note_on_c, 0, 51, 56
1, 160663, Control_c, 0, 64, 12
1, 160664, Note_off_c, 0, 51, 65
1, 160677, Control_c, 0, 64, 13
1, 160692, Control_c, 0, 64, 14
1, 160751, Control_c, 0, 64, 15
1, 160766, Control_c, 0, 64, 16
1, 160780, Note_on_c, 0, 51, 57
1, 160782, Control_c, 0, 64, 18
1, 160797, Control_c, 0, 64, 20
1, 160812, Control_c, 0, 64, 21
1, 160817, Note_off_c, 0, 51, 62
1, 160826, Control_c, 0, 64, 23
1, 160841, Control_c, 0, 64, 23
1, 160856, Control_c, 0, 64, 24
1, 160871, Control_c, 0, 64, 24
1, 160886, Control_c, 0, 64, 26
1, 160900, Control_c, 0, 64, 28
1, 160915, Control_c, 0, 64, 29
1, 160925, Note_on_c, 0, 51, 51
1, 160930, Control_c, 0, 64, 29
1, 160958, Note_off_c, 0, 51, 64
1, 161078, Note_on_c, 0, 51, 50
1, 161120, Note_off_c, 0, 51, 64
1, 161130, Control_c, 0, 64, 29
1, 161174, Control_c, 0, 64, 29
1, 161183, Note_on_c, 0, 86, 57
1, 161225, Note_off_c, 0, 86, 59
1, 161227, Note_on_c, 0, 87, 66
1, 161228, Note_on_c, 0, 63, 44
1, 161239, Note_on_c, 0, 51, 39
1, 161247, Note_on_c, 0, 60, 41
1, 161275, Note_off_c, 0, 51, 60
1, 161278, Control_c, 0, 64, 29
1, 161366, Control_c, 0, 64, 29
1, 161379, Note_on_c, 0, 51, 49
1, 161396, Control_c, 0, 64, 30
1, 161411, Control_c, 0, 64, 31
1, 161427, Note_off_c, 0, 51, 63
1, 161440, Note_on_c, 0, 80, 55
1, 161440, Note_off_c, 0, 87, 35
1, 161460, Note_off_c, 0, 80, 61
1, 161512, Note_on_c, 0, 80, 68
1, 161530, Note_on_c, 0, 51, 56
1, 161571, Note_off_c, 0, 51, 63
1, 161668, Note_on_c, 0, 51, 57
1, 161699, Note_off_c, 0, 80, 61
1, 161708, Note_off_c, 0, 51, 61
1, 161811, Note_on_c, 0, 51, 51
1, 161842, Control_c, 0, 64, 32
1, 161861, Note_off_c, 0, 51, 63
1, 161864, Control_c, 0, 64, 32
1, 161953, Control_c, 0, 64, 33
1, 161965, Note_on_c, 0, 51, 50
1, 161972, Note_off_c, 0, 60, 61
1, 161977, Note_off_c, 0, 63, 56
1, 161990, Note_off_c, 0, 51, 58
1, 161997, Control_c, 0, 64, 32
1, 162052, Note_on_c, 0, 74, 55
1, 162092, Note_on_c, 0, 51, 30
1, 162096, Note_off_c, 0, 74, 60
1, 162102, Note_on_c, 0, 75, 60
1, 162106, Note_on_c, 0, 62, 24
1, 162111, Note_on_c, 0, 58, 41
1, 162133, Note_off_c, 0, 51, 49
1, 162245, Note_on_c, 0, 51, 48
1, 162259, Note_off_c, 0, 75, 35
1, 162281, Note_off_c, 0, 51, 62
1, 162308, Note_on_c, 0, 67, 59
1, 162329, Note_off_c, 0, 67, 64
1, 162377, Note_on_c, 0, 67, 60
1, 162378, Note_on_c, 0, 51, 55
1, 162420, Note_off_c, 0, 51, 60
1, 162457, Control_c, 0, 64, 32
1, 162461, Note_off_c, 0, 67, 0
1, 162461, Note_on_c, 0, 67, 15
1, 162519, Note_on_c, 0, 51, 52
1, 162564, Note_off_c, 0, 51, 62
1, 162664, Note_off_c, 0, 67, 48
1, 162698, Note_on_c, 0, 51, 28
1, 162735, Note_off_c, 0, 51, 51
1, 162830, Note_on_c, 0, 51, 46
1, 162839, Note_off_c, 0, 62, 58
1, 162844, Note_off_c, 0, 58, 60
1, 162860, Note_off_c, 0, 51, 55
1, 162865, Control_c, 0, 64, 31
1, 162963, Note_on_c, 0, 75, 63
1, 162966, Note_on_c, 0, 60, 54
1, 163003, Note_on_c, 0, 56, 30
1, 163035, Note_on_c, 0, 65, 51
1, 163051, Note_off_c, 0, 75, 55
1, 163070, Note_off_c, 0, 65, 62
1, 163113, Note_on_c, 0, 51, 50
1, 163122, Note_off_c, 0, 60, 43
1, 163142, Note_off_c, 0, 51, 55
1, 163146, Note_off_c, 0, 56, 39
1, 163261, Note_on_c, 0, 75, 62
1, 163265, Note_on_c, 0, 56, 50
1, 163267, Note_on_c, 0, 60, 39
1, 163281, Control_c, 0, 64, 31
1, 163310, Control_c, 0, 64, 30
1, 163333, Note_on_c, 0, 65, 52
1, 163333, Note_off_c, 0, 75, 60
1, 163369, Poly_aftertouch_c, 0, 51, 0
1, 163376, Note_off_c, 0, 65, 65
1, 163383, Note_on_c, 0, 51, 35
1, 163392, Control_c, 0, 64, 30
1, 163407, Note_off_c, 0, 60, 50
1, 163420, Note_off_c, 0, 56, 43
1, 163421, Control_c, 0, 64, 29
1, 163433, Note_off_c, 0, 51, 62
1, 163549, Note_on_c, 0, 56, 39
1, 163554, Note_on_c, 0, 74, 50
1, 163559, Note_on_c, 0, 59, 45
1, 163584, Control_c, 0, 64, 29
1, 163608, Note_on_c, 0, 65, 50
1, 163617, Note_off_c, 0, 74, 51
1, 163629, Control_c, 0, 64, 28
1, 163652, Note_off_c, 0, 65, 62
1, 163659, Control_c, 0, 64, 28
1, 163660, Note_on_c, 0, 51, 32
1, 163663, Note_off_c, 0, 59, 36
1, 163673, Control_c, 0, 64, 27
1, 163693, Note_off_c, 0, 56, 53
1, 163704, Note_off_c, 0, 51, 60
1, 163831, Note_on_c, 0, 75, 57
1, 163841, Note_on_c, 0, 51, 25
1, 163853, Note_on_c, 0, 58, 38
1, 163864, Note_on_c, 0, 55, 41
1, 163894, Note_off_c, 0, 51, 47
1, 163899, Note_off_c, 0, 58, 46
1, 163910, Note_on_c, 0, 63, 51
1, 163931, Note_off_c, 0, 75, 54
1, 163951, Note_off_c, 0, 63, 61
1, 163966, Note_off_c, 0, 55, 35
1, 163969, Control_c, 0, 64, 28
1, 163978, Note_on_c, 0, 51, 48
1, 164015, Note_off_c, 0, 51, 63
1, 164073, Control_c, 0, 64, 27
1, 164124, Note_on_c, 0, 51, 54
1, 164159, Note_off_c, 0, 51, 65
1, 164268, Note_on_c, 0, 51, 51
1, 164306, Note_off_c, 0, 51, 64
1, 164318, Control_c, 0, 64, 27
1, 164412, Note_on_c, 0, 51, 56
1, 164451, Control_c, 0, 64, 27
1, 164453, Note_off_c, 0, 51, 62
1, 164495, Control_c, 0, 64, 27
1, 164540, Control_c, 0, 64, 27
1, 164556, Note_on_c, 0, 51, 58
1, 164591, Note_off_c, 0, 51, 64
1, 164629, Control_c, 0, 64, 27
1, 164696, Note_on_c, 0, 51, 43
1, 164702, Note_on_c, 0, 63, 44
1, 164705, Note_on_c, 0, 60, 51
1, 164747, Control_c, 0, 64, 27
1, 164751, Note_off_c, 0, 51, 59
1, 164774, Note_on_c, 0, 87, 53
1, 164857, Note_off_c, 0, 87, 63
1, 164869, Note_on_c, 0, 86, 58
1, 164875, Note_on_c, 0, 51, 50
1, 164906, Note_off_c, 0, 51, 62
1, 164913, Note_off_c, 0, 86, 59
1, 164932, Note_on_c, 0, 87, 67
1, 164933, Control_c, 0, 64, 27
1, 164985, Note_off_c, 0, 87, 56
1, 165006, Note_on_c, 0, 51, 50
1, 165008, Note_on_c, 0, 86, 70
1, 165048, Note_off_c, 0, 86, 50
1, 165050, Note_off_c, 0, 51, 62
1, 165051, Control_c, 0, 64, 26
1, 165080, Note_on_c, 0, 87, 70
1, 165096, Control_c, 0, 64, 26
1, 165125, Control_c, 0, 64, 25
1, 165138, Note_off_c, 0, 87, 64
1, 165149, Note_on_c, 0, 51, 58
1, 165155, Note_on_c, 0, 89, 65
1, 165155, Control_c, 0, 64, 25
1, 165192, Note_off_c, 0, 51, 60
1, 165215, Control_c, 0, 64, 25
1, 165224, Note_on_c, 0, 87, 62
1, 165289, Control_c, 0, 64, 26
1, 165298, Note_on_c, 0, 51, 53
1, 165305, Note_on_c, 0, 80, 65
1, 165325, Note_off_c, 0, 89, 30
1, 165346, Note_off_c, 0, 51, 63
1, 165387, Note_off_c, 0, 87, 60
1, 165404, Note_off_c, 0, 80, 42
1, 165436, Control_c, 0, 64, 26
1, 165448, Note_on_c, 0, 51, 61
1, 165466, Control_c, 0, 64, 27
1, 165472, Note_off_c, 0, 60, 60
1, 165483, Note_off_c, 0, 63, 53
1, 165492, Note_off_c, 0, 51, 60
1, 165510, Control_c, 0, 64, 26
1, 165600, Note_on_c, 0, 62, 55
1, 165605, Note_on_c, 0, 58, 57
1, 165608, Control_c, 0, 64, 26
1, 165620, Note_on_c, 0, 51, 14
1, 165663, Note_on_c, 0, 75, 62
1, 165667, Note_off_c, 0, 51, 37
1, 165749, Note_on_c, 0, 51, 61
1, 165751, Note_off_c, 0, 75, 63
1, 165751, Note_on_c, 0, 74, 69
1, 165778, Note_off_c, 0, 51, 62
1, 165801, Control_c, 0, 64, 25
1, 165814, Note_off_c, 0, 74, 62
1, 165816, Control_c, 0, 64, 25
1, 165821, Note_on_c, 0, 75, 69
1, 165871, Note_on_c, 0, 51, 54
1, 165889, Note_off_c, 0, 75, 63
1, 165897, Note_on_c, 0, 74, 75
1, 165918, Note_off_c, 0, 51, 62
1, 165972, Note_on_c, 0, 75, 70
1, 165973, Note_off_c, 0, 74, 56
1, 166022, Note_on_c, 0, 51, 59
1, 166039, Note_off_c, 0, 75, 63
1, 166042, Note_on_c, 0, 77, 72
1, 166068, Note_off_c, 0, 51, 62
1, 166106, Note_on_c, 0, 75, 63
1, 166127, Control_c, 0, 64, 24
1, 166153, Note_off_c, 0, 77, 48
1, 166189, Note_on_c, 0, 67, 70
1, 166222, Note_on_c, 0, 51, 16
1, 166231, Control_c, 0, 64, 25
1, 166244, Note_off_c, 0, 75, 61
1, 166253, Note_off_c, 0, 67, 61
1, 166263, Note_off_c, 0, 51, 43
1, 166290, Control_c, 0, 64, 24
1, 166350, Note_on_c, 0, 51, 53
1, 166363, Note_off_c, 0, 58, 60
1, 166363, Note_off_c, 0, 62, 59
1, 166383, Note_off_c, 0, 51, 52
1, 166476, Control_c, 0, 64, 25
1, 166481, Note_on_c, 0, 60, 59
1, 166500, Note_on_c, 0, 56, 42
1, 166568, Note_on_c, 0, 65, 53
1, 166622, Note_off_c, 0, 65, 58
1, 166634, Note_on_c, 0, 51, 57
1, 166637, Note_on_c, 0, 74, 61
1, 166652, Note_off_c, 0, 60, 45
1, 166675, Note_off_c, 0, 56, 48
1, 166675, Note_off_c, 0, 51, 63
1, 166692, Note_on_c, 0, 75, 67
1, 166707, Note_off_c, 0, 74, 62
1, 166728, Control_c, 0, 64, 25
1, 166730, Note_off_c, 0, 75, 59
1, 166743, Control_c, 0, 64, 26
1, 166758, Control_c, 0, 64, 26
1, 166784, Note_on_c, 0, 60, 50
1, 166795, Note_on_c, 0, 56, 57
1, 166831, Control_c, 0, 64, 27
1, 166858, Note_on_c, 0, 65, 59
1, 166872, Poly_aftertouch_c, 0, 51, 0
1, 166905, Control_c, 0, 64, 27
1, 166909, Note_on_c, 0, 51, 50
1, 166918, Note_off_c, 0, 65, 58
1, 166932, Note_on_c, 0, 74, 67
1, 166935, Control_c, 0, 64, 28
1, 166937, Note_off_c, 0, 60, 55
1, 166945, Note_off_c, 0, 56, 36
1, 166965, Control_c, 0, 64, 28
1, 166969, Note_off_c, 0, 51, 58
1, 166988, Note_on_c, 0, 75, 67
1, 166994, Note_off_c, 0, 74, 63
1, 167018, Note_off_c, 0, 75, 61
1, 167068, Note_on_c, 0, 56, 53
1, 167078, Note_on_c, 0, 59, 58
1, 167135, Control_c, 0, 64, 29
1, 167143, Note_on_c, 0, 65, 62
1, 167150, Control_c, 0, 64, 30
1, 167166, Control_c, 0, 64, 31
1, 167188, Note_off_c, 0, 65, 57
1, 167193, Note_off_c, 0, 59, 59
1, 167207, Note_on_c, 0, 51, 42
1, 167211, Note_on_c, 0, 73, 67
1, 167225, Control_c, 0, 64, 31
1, 167239, Note_off_c, 0, 56, 55
1, 167247, Note_off_c, 0, 51, 62
1, 167287, Note_on_c, 0, 74, 70
1, 167348, Note_off_c, 0, 73, 30
1, 167369, Note_on_c, 0, 63, 64
1, 167369, Note_on_c, 0, 75, 73
1, 167373, Note_on_c, 0, 51, 55
1, 167376, Note_on_c, 0, 55, 57
1, 167377, Note_off_c, 0, 74, 58
1, 167424, Note_off_c, 0, 75, 63
1, 167435, Note_off_c, 0, 63, 60
1, 167441, Note_on_c, 0, 65, 67
1, 167480, Note_off_c, 0, 65, 63
1, 167533, Note_on_c, 0, 63, 73
1, 167577, Note_off_c, 0, 63, 51
1, 167601, Note_on_c, 0, 62, 73
1, 167638, Control_c, 0, 64, 30
1, 167643, Note_off_c, 0, 62, 61
1, 167677, Note_on_c, 0, 63, 64
1, 167687, Note_off_c, 0, 55, 59
1, 167720, Note_off_c, 0, 51, 53
1, 167722, Note_off_c, 0, 63, 61
1, 167741, Note_on_c, 0, 65, 70
1, 167794, Note_off_c, 0, 65, 53
1, 167818, Note_on_c, 0, 67, 73
1, 167838, Control_c, 0, 64, 29
1, 167853, Control_c, 0, 64, 29
1, 167880, Note_on_c, 0, 68, 75
1, 167880, Note_off_c, 0, 67, 64
1, 167958, Note_on_c, 0, 70, 73
1, 167959, Note_off_c, 0, 68, 65
1, 167982, Note_off_c, 0, 70, 67
1, 168003, Control_c, 0, 64, 28
1, 168047, Control_c, 0, 64, 28
1, 168062, Control_c, 0, 64, 27
1, 168077, Control_c, 0, 64, 26
1, 168125, Note_on_c, 0, 55, 56
1, 168132, Note_on_c, 0, 67, 64
1, 168151, Note_off_c, 0, 67, 65
1, 168151, Control_c, 0, 64, 26
1, 168156, Note_off_c, 0, 55, 65
1, 168166, Control_c, 0, 64, 25
1, 168196, Control_c, 0, 64, 26
1, 168240, Control_c, 0, 64, 25
1, 168269, Control_c, 0, 64, 26
1, 168283, Note_on_c, 0, 65, 68
1, 168289, Note_on_c, 0, 53, 62
1, 168309, Note_off_c, 0, 65, 69
1, 168314, Control_c, 0, 64, 25
1, 168320, Note_off_c, 0, 53, 65
1, 168329, Control_c, 0, 64, 25
1, 168372, Control_c, 0, 64, 24
1, 168401, Control_c, 0, 64, 24
1, 168416, Control_c, 0, 64, 23
1, 168431, Control_c, 0, 64, 22
1, 168433, Note_on_c, 0, 68, 61
1, 168434, Note_on_c, 0, 56, 64
1, 168446, Control_c, 0, 64, 21
1, 168459, Note_off_c, 0, 68, 66
1, 168461, Control_c, 0, 64, 19
1, 168464, Note_off_c, 0, 56, 65
1, 168476, Control_c, 0, 64, 15
1, 168491, Control_c, 0, 64, 13
1, 168506, Control_c, 0, 64, 12
1, 168521, Control_c, 0, 64, 12
1, 168575, Note_on_c, 0, 62, 69
1, 168577, Note_on_c, 0, 50, 65
1, 168608, Note_off_c, 0, 62, 67
1, 168610, Note_off_c, 0, 50, 66
1, 168646, Control_c, 0, 64, 11
1, 168735, Note_on_c, 0, 65, 65
1, 168738, Note_on_c, 0, 53, 65
1, 168762, Note_off_c, 0, 65, 68
1, 168768, Note_off_c, 0, 53, 66
1, 168810, Control_c, 0, 64, 12
1, 168825, Control_c, 0, 64, 12
1, 168840, Control_c, 0, 64, 13
1, 168855, Control_c, 0, 64, 13
1, 168883, Note_on_c, 0, 46, 70
1, 168885, Note_on_c, 0, 58, 70
1, 168899, Control_c, 0, 64, 14
1, 168911, Note_off_c, 0, 46, 65
1, 168912, Note_off_c, 0, 58, 67
1, 169003, Control_c, 0, 64, 13
1, 169031, Note_on_c, 0, 62, 71
1, 169032, Control_c, 0, 64, 13
1, 169033, Note_on_c, 0, 50, 66
1, 169056, Note_off_c, 0, 62, 68
1, 169061, Note_off_c, 0, 50, 65
1, 169186, Note_on_c, 0, 51, 66
1, 169196, Control_c, 0, 64, 13
1, 169197, Note_on_c, 0, 63, 63
1, 169258, Note_off_c, 0, 63, 62
1, 169264, Note_on_c, 0, 65, 66
1, 169270, Control_c, 0, 64, 14
1, 169337, Note_on_c, 0, 63, 64
1, 169344, Note_off_c, 0, 65, 63
1, 169351, Control_c, 0, 64, 14
1, 169366, Control_c, 0, 64, 15
1, 169396, Note_off_c, 0, 63, 63
1, 169400, Note_on_c, 0, 62, 72
1, 169411, Control_c, 0, 64, 15
1, 169425, Control_c, 0, 64, 18
1, 169440, Control_c, 0, 64, 20
1, 169467, Note_on_c, 0, 63, 71
1, 169472, Note_off_c, 0, 62, 64
1, 169486, Note_off_c, 0, 51, 61
1, 169507, Note_off_c, 0, 63, 63
1, 169514, Control_c, 0, 64, 21
1, 169529, Control_c, 0, 64, 21
1, 169537, Note_on_c, 0, 65, 72
1, 169558, Control_c, 0, 64, 22
1, 169572, Note_off_c, 0, 65, 63
1, 169575, Control_c, 0, 64, 23
1, 169589, Control_c, 0, 64, 24
1, 169604, Control_c, 0, 64, 24
1, 169612, Note_on_c, 0, 67, 79
1, 169619, Control_c, 0, 64, 24
1, 169665, Note_off_c, 0, 67, 65
1, 169667, Note_on_c, 0, 68, 75
1, 169698, Note_off_c, 0, 68, 63
1, 169751, Note_on_c, 0, 72, 81
1, 169754, Note_on_c, 0, 60, 64
1, 169826, Control_c, 0, 64, 23
1, 169834, Note_on_c, 0, 70, 75
1, 169839, Note_off_c, 0, 60, 58
1, 169846, Note_on_c, 0, 58, 51
1, 169856, Note_off_c, 0, 72, 59
1, 169900, Note_on_c, 0, 68, 76
1, 169903, Note_on_c, 0, 56, 65
1, 169910, Note_off_c, 0, 58, 58
1, 169937, Note_off_c, 0, 70, 58
1, 169965, Note_on_c, 0, 67, 75
1, 169978, Note_off_c, 0, 56, 58
1, 169980, Note_off_c, 0, 68, 61
1, 169988, Control_c, 0, 64, 23
1, 170005, Note_on_c, 0, 55, 63
1, 170023, Note_off_c, 0, 67, 61
1, 170033, Note_on_c, 0, 65, 77
1, 170036, Note_off_c, 0, 55, 64
1, 170050, Note_on_c, 0, 53, 55
1, 170059, Note_off_c, 0, 65, 69
1, 170062, Control_c, 0, 64, 22
1, 170091, Note_off_c, 0, 53, 64
1, 170188, Control_c, 0, 64, 23
1, 170206, Note_on_c, 0, 56, 54
1, 170209, Note_on_c, 0, 68, 64
1, 170218, Control_c, 0, 64, 22
1, 170238, Note_off_c, 0, 68, 67
1, 170239, Note_off_c, 0, 56, 65
1, 170307, Control_c, 0, 64, 21
1, 170321, Control_c, 0, 64, 21
1, 170336, Control_c, 0, 64, 20
1, 170342, Note_on_c, 0, 50, 61
1, 170342, Note_on_c, 0, 62, 69
1, 170369, Note_off_c, 0, 62, 67
1, 170371, Note_off_c, 0, 50, 65
1, 170382, Control_c, 0, 64, 20
1, 170396, Control_c, 0, 64, 19
1, 170456, Control_c, 0, 64, 18
1, 170470, Control_c, 0, 64, 18
1, 170485, Control_c, 0, 64, 17
1, 170494, Note_on_c, 0, 65, 66
1, 170498, Note_on_c, 0, 53, 58
1, 170521, Note_off_c, 0, 65, 68
1, 170527, Note_off_c, 0, 53, 63
1, 170589, Control_c, 0, 64, 18
1, 170604, Control_c, 0, 64, 19
1, 170639, Note_on_c, 0, 46, 67
1, 170643, Note_on_c, 0, 58, 67
1, 170669, Note_off_c, 0, 46, 64
1, 170669, Note_off_c, 0, 58, 66
1, 170752, Control_c, 0, 64, 18
1, 170767, Control_c, 0, 64, 18
1, 170790, Note_on_c, 0, 62, 68
1, 170794, Note_on_c, 0, 50, 64
1, 170817, Note_off_c, 0, 62, 68
1, 170834, Control_c, 0, 64, 17
1, 170837, Note_off_c, 0, 50, 61
1, 170849, Control_c, 0, 64, 16
1, 170941, Note_on_c, 0, 51, 69
1, 170952, Note_on_c, 0, 63, 67
1, 170980, Note_off_c, 0, 51, 61
1, 170984, Note_off_c, 0, 63, 64
1, 171100, Control_c, 0, 64, 16
1, 171101, Note_on_c, 0, 67, 62
1, 171106, Note_on_c, 0, 55, 50
1, 171130, Note_off_c, 0, 67, 67
1, 171138, Note_off_c, 0, 55, 61
1, 171244, Note_on_c, 0, 48, 52
1, 171245, Note_on_c, 0, 60, 59
1, 171274, Note_off_c, 0, 60, 67
1, 171278, Note_off_c, 0, 48, 62
1, 171392, Note_on_c, 0, 51, 49
1, 171394, Note_on_c, 0, 63, 54
1, 171424, Note_off_c, 0, 63, 66
1, 171429, Note_off_c, 0, 51, 65
1, 171472, Control_c, 0, 64, 16
1, 171537, Note_on_c, 0, 57, 59
1, 171543, Note_on_c, 0, 45, 47
1, 171570, Note_off_c, 0, 57, 66
1, 171596, Note_off_c, 0, 45, 61
1, 171597, Control_c, 0, 64, 16
1, 171612, Control_c, 0, 64, 15
1, 171669, Note_on_c, 0, 48, 53
1, 171680, Note_on_c, 0, 60, 58
1, 171707, Note_off_c, 0, 48, 64
1, 171710, Note_off_c, 0, 60, 67
1, 171825, Note_on_c, 0, 41, 58
1, 171832, Note_on_c, 0, 53, 61
1, 171862, Note_off_c, 0, 53, 66
1, 171864, Control_c, 0, 64, 15
1, 171870, Note_off_c, 0, 41, 62
1, 171980, Note_on_c, 0, 45, 58
1, 171983, Control_c, 0, 64, 14
1, 171989, Note_on_c, 0, 57, 58
1, 171998, Control_c, 0, 64, 13
1, 172017, Note_off_c, 0, 45, 64
1, 172019, Note_off_c, 0, 57, 65
1, 172116, Control_c, 0, 64, 14
1, 172122, Note_on_c, 0, 48, 69
1, 172134, Note_on_c, 0, 60, 57
1, 172158, Note_off_c, 0, 60, 65
1, 172160, Note_off_c, 0, 48, 62
1, 172235, Control_c, 0, 64, 13
1, 172279, Note_on_c, 0, 64, 71
1, 172282, Note_on_c, 0, 52, 72
1, 172309, Control_c, 0, 64, 13
1, 172309, Note_off_c, 0, 64, 64
1, 172310, Note_off_c, 0, 52, 65
1, 172420, Control_c, 0, 64, 13
1, 172431, Note_on_c, 0, 53, 76
1, 172436, Note_on_c, 0, 65, 72
1, 172464, Note_off_c, 0, 65, 67
1, 172465, Note_off_c, 0, 53, 65
1, 172583, Note_on_c, 0, 45, 67
1, 172583, Control_c, 0, 64, 14
1, 172584, Note_on_c, 0, 57, 67
1, 172615, Note_off_c, 0, 57, 65
1, 172622, Note_off_c, 0, 45, 62
1, 172720, Note_on_c, 0, 46, 70
1, 172724, Note_on_c, 0, 58, 76
1, 172752, Note_off_c, 0, 58, 68
1, 172762, Control_c, 0, 64, 13
1, 172776, Note_off_c, 0, 46, 54
1, 172850, Control_c, 0, 64, 13
1, 172865, Note_on_c, 0, 62, 71
1, 172870, Note_on_c, 0, 50, 67
1, 172892, Note_off_c, 0, 62, 67
1, 172896, Control_c, 0, 64, 13
1, 172921, Note_off_c, 0, 50, 58
1, 173004, Note_on_c, 0, 53, 77
1, 173015, Note_on_c, 0, 65, 74
1, 173029, Control_c, 0, 64, 14
1, 173037, Note_off_c, 0, 53, 67
1, 173043, Note_off_c, 0, 65, 66
1, 173155, Control_c, 0, 64, 14
1, 173168, Note_on_c, 0, 69, 78
1, 173169, Note_on_c, 0, 57, 82
1, 173195, Note_off_c, 0, 69, 66
1, 173198, Note_off_c, 0, 57, 67
1, 173229, Control_c, 0, 64, 15
1, 173244, Control_c, 0, 64, 16
1, 173288, Control_c, 0, 64, 17
1, 173303, Control_c, 0, 64, 19
1, 173312, Note_on_c, 0, 70, 86
1, 173314, Note_on_c, 0, 58, 82
1, 173317, Control_c, 0, 64, 20
1, 173332, Control_c, 0, 64, 20
1, 173359, Note_off_c, 0, 70, 64
1, 173367, Note_off_c, 0, 58, 63
1, 173377, Control_c, 0, 64, 21
1, 173455, Note_on_c, 0, 74, 80
1, 173456, Note_on_c, 0, 62, 80
1, 173466, Control_c, 0, 64, 20
1, 173480, Note_off_c, 0, 74, 66
1, 173484, Note_off_c, 0, 62, 69
1, 173556, Control_c, 0, 64, 20
1, 173571, Control_c, 0, 64, 19
1, 173586, Control_c, 0, 64, 19
1, 173599, Note_on_c, 0, 77, 85
1, 173600, Note_on_c, 0, 65, 87
1, 173600, Control_c, 0, 64, 18
1, 173630, Control_c, 0, 64, 18
1, 173632, Note_off_c, 0, 65, 68
1, 173640, Note_off_c, 0, 77, 63
1, 173690, Control_c, 0, 64, 16
1, 173704, Control_c, 0, 64, 11
1, 173719, Control_c, 0, 64, 0
1, 173748, Note_on_c, 0, 81, 80
1, 173757, Note_on_c, 0, 69, 73
1, 173769, Note_off_c, 0, 81, 68
1, 173780, Note_off_c, 0, 69, 67
1, 173845, Control_c, 0, 64, 37
1, 173860, Control_c, 0, 64, 60
1, 173875, Control_c, 0, 64, 68
1, 173889, Control_c, 0, 64, 76
1, 173904, Control_c, 0, 64, 91
1, 173919, Control_c, 0, 64, 127
1, 173934, Note_on_c, 0, 70, 101
1, 173934, Note_on_c, 0, 82, 97
1, 173968, Note_off_c, 0, 70, 64
1, 173971, Note_off_c, 0, 82, 62
1, 174243, Note_on_c, 0, 58, 99
1, 174245, Control_c, 0, 64, 101
1, 174259, Control_c, 0, 64, 73
1, 174274, Control_c, 0, 64, 58
1, 174280, Note_off_c, 0, 58, 66
1, 174289, Control_c, 0, 64, 41
1, 174304, Control_c, 0, 64, 27
1, 174319, Control_c, 0, 64, 15
1, 174333, Control_c, 0, 64, 14
1, 174393, Control_c, 0, 64, 14
1, 174408, Control_c, 0, 64, 15
1, 174423, Control_c, 0, 64, 16
1, 174438, Control_c, 0, 64, 19
1, 174453, Control_c, 0, 64, 22
1, 174468, Control_c, 0, 64, 23
1, 174482, Control_c, 0, 64, 22
1, 174497, Control_c, 0, 64, 21
1, 174512, Control_c, 0, 64, 20
1, 174527, Control_c, 0, 64, 20
1, 174545, Note_on_c, 0, 46, 92
1, 174556, Control_c, 0, 64, 18
1, 174578, Control_c, 0, 64, 12
1, 174593, Control_c, 0, 64, 0
1, 174596, Note_off_c, 0, 46, 65
1, 174875, Note_on_c, 0, 34, 88
1, 174954, Note_off_c, 0, 34, 60
1, 175225, Note_on_c, 0, 32, 86
1, 175257, Note_off_c, 0, 32, 66
1, 175472, Note_on_c, 0, 82, 50
1, 175496, Note_off_c, 0, 82, 59
1, 175679, Note_on_c, 0, 31, 57
1, 175683, Note_on_c, 0, 87, 71
1, 175697, Control_c, 0, 64, 9
1, 175706, Note_off_c, 0, 31, 54
1, 175712, Control_c, 0, 64, 12
1, 175727, Control_c, 0, 64, 14
1, 175742, Control_c, 0, 64, 17
1, 175757, Control_c, 0, 64, 19
1, 175786, Control_c, 0, 64, 18
1, 175861, Control_c, 0, 64, 18
1, 175876, Control_c, 0, 64, 19
1, 175901, Note_on_c, 0, 58, 47
1, 175938, Note_off_c, 0, 58, 53
1, 175981, Control_c, 0, 64, 18
1, 175983, Note_on_c, 0, 63, 47
1, 176033, Note_off_c, 0, 63, 58
1, 176045, Note_on_c, 0, 55, 57
1, 176086, Note_off_c, 0, 55, 65
1, 176092, Control_c, 0, 64, 19
1, 176122, Control_c, 0, 64, 18
1, 176136, Control_c, 0, 64, 17
1, 176141, Note_on_c, 0, 63, 51
1, 176175, Note_off_c, 0, 87, 61
1, 176176, Note_off_c, 0, 63, 61
1, 176200, Note_on_c, 0, 86, 62
1, 176210, Control_c, 0, 64, 16
1, 176215, Note_on_c, 0, 58, 47
1, 176240, Control_c, 0, 64, 17
1, 176250, Note_off_c, 0, 58, 61
1, 176253, Note_off_c, 0, 86, 60
1, 176262, Note_on_c, 0, 87, 73
1, 176272, Note_on_c, 0, 63, 53
1, 176299, Control_c, 0, 64, 16
1, 176316, Note_off_c, 0, 63, 60
1, 176336, Note_on_c, 0, 89, 73
1, 176338, Note_off_c, 0, 87, 63
1, 176349, Note_on_c, 0, 55, 49
1, 176374, Note_off_c, 0, 55, 61
1, 176429, Note_on_c, 0, 63, 46
1, 176447, Control_c, 0, 64, 16
1, 176459, Note_off_c, 0, 63, 56
1, 176462, Control_c, 0, 64, 16
1, 176491, Note_off_c, 0, 89, 61
1, 176492, Note_on_c, 0, 58, 51
1, 176501, Note_on_c, 0, 87, 65
1, 176519, Note_off_c, 0, 87, 65
1, 176533, Note_off_c, 0, 58, 63
1, 176562, Note_on_c, 0, 63, 46
1, 176623, Note_off_c, 0, 63, 54
1, 176640, Control_c, 0, 64, 17
1, 176661, Note_on_c, 0, 55, 49
1, 176665, Note_on_c, 0, 82, 72
1, 176684, Control_c, 0, 64, 17
1, 176693, Note_off_c, 0, 55, 61
1, 176738, Note_on_c, 0, 63, 48
1, 176774, Note_off_c, 0, 63, 60
1, 176789, Control_c, 0, 64, 18
1, 176804, Note_on_c, 0, 58, 51
1, 176851, Note_off_c, 0, 58, 63
1, 176873, Note_on_c, 0, 63, 57
1, 176925, Note_off_c, 0, 63, 52
1, 176964, Note_on_c, 0, 55, 45
1, 176974, Control_c, 0, 64, 17
1, 176989, Control_c, 0, 64, 17
1, 176990, Note_off_c, 0, 55, 56
1, 177019, Control_c, 0, 64, 17
1, 177036, Note_on_c, 0, 63, 46
1, 177073, Note_off_c, 0, 63, 57
1, 177089, Note_off_c, 0, 82, 56
1, 177092, Control_c, 0, 64, 18
1, 177107, Control_c, 0, 64, 19
1, 177109, Note_on_c, 0, 58, 46
1, 177111, Note_on_c, 0, 84, 66
1, 177137, Control_c, 0, 64, 19
1, 177141, Note_off_c, 0, 58, 57
1, 177168, Note_on_c, 0, 63, 54
1, 177177, Note_on_c, 0, 82, 70
1, 177181, Control_c, 0, 64, 19
1, 177195, Note_off_c, 0, 84, 60
1, 177211, Control_c, 0, 64, 19
1, 177217, Note_off_c, 0, 63, 56
1, 177225, Control_c, 0, 64, 18
1, 177243, Note_on_c, 0, 55, 55
1, 177246, Note_on_c, 0, 80, 69
1, 177255, Control_c, 0, 64, 19
1, 177282, Note_off_c, 0, 55, 61
1, 177285, Control_c, 0, 64, 18
1, 177286, Note_off_c, 0, 82, 52
1, 177299, Control_c, 0, 64, 17
1, 177341, Note_on_c, 0, 63, 40
1, 177359, Control_c, 0, 64, 16
1, 177371, Note_off_c, 0, 63, 55
1, 177384, Note_off_c, 0, 80, 57
1, 177389, Note_on_c, 0, 58, 53
1, 177404, Note_on_c, 0, 79, 62
1, 177418, Control_c, 0, 64, 14
1, 177430, Note_off_c, 0, 79, 65
1, 177433, Control_c, 0, 64, 9
1, 177435, Note_off_c, 0, 58, 59
1, 177448, Control_c, 0, 64, 0
1, 177463, Control_c, 0, 64, 8
1, 177466, Note_on_c, 0, 63, 44
1, 177477, Control_c, 0, 64, 9
1, 177507, Control_c, 0, 64, 8
1, 177539, Note_off_c, 0, 63, 56
1, 177553, Control_c, 0, 64, 9
1, 177563, Note_on_c, 0, 83, 66
1, 177565, Note_on_c, 0, 56, 48
1, 177601, Note_off_c, 0, 56, 62
1, 177609, Note_off_c, 0, 83, 63
1, 177622, Note_on_c, 0, 84, 51
1, 177633, Control_c, 0, 64, 10
1, 177639, Note_off_c, 0, 84, 65
1, 177643, Note_on_c, 0, 63, 48
1, 177678, Control_c, 0, 64, 11
1, 177680, Note_off_c, 0, 63, 61
1, 177708, Control_c, 0, 64, 12
1, 177711, Note_on_c, 0, 60, 51
1, 177753, Control_c, 0, 64, 12
1, 177764, Note_off_c, 0, 60, 57
1, 177767, Control_c, 0, 64, 13
1, 177784, Note_on_c, 0, 63, 47
1, 177848, Note_on_c, 0, 83, 77
1, 177856, Note_off_c, 0, 63, 53
1, 177872, Note_on_c, 0, 56, 51
1, 177908, Note_off_c, 0, 83, 64
1, 177911, Note_off_c, 0, 56, 64
1, 177912, Note_on_c, 0, 84, 75
1, 177930, Control_c, 0, 64, 13
1, 177932, Note_off_c, 0, 84, 71
1, 177944, Note_on_c, 0, 63, 49
1, 177988, Note_off_c, 0, 63, 60
1, 177989, Control_c, 0, 64, 14
1, 178004, Control_c, 0, 64, 15
1, 178014, Note_on_c, 0, 60, 47
1, 178033, Control_c, 0, 64, 15
1, 178071, Note_off_c, 0, 60, 56
1, 178083, Note_on_c, 0, 63, 52
1, 178107, Control_c, 0, 64, 14
1, 178123, Note_off_c, 0, 63, 62
1, 178132, Note_on_c, 0, 79, 72
1, 178137, Control_c, 0, 64, 14
1, 178152, Control_c, 0, 64, 15
1, 178157, Note_on_c, 0, 56, 49
1, 178181, Control_c, 0, 64, 14
1, 178185, Note_off_c, 0, 56, 62
1, 178200, Note_on_c, 0, 80, 73
1, 178201, Note_off_c, 0, 79, 62
1, 178220, Note_on_c, 0, 64, 60
1, 178225, Note_off_c, 0, 80, 65
1, 178279, Note_off_c, 0, 64, 47
1, 178298, Note_on_c, 0, 60, 59
1, 178349, Note_off_c, 0, 60, 58
1, 178370, Note_on_c, 0, 64, 40
1, 178382, Control_c, 0, 64, 14
1, 178415, Note_off_c, 0, 64, 60
1, 178446, Note_on_c, 0, 76, 69
1, 178447, Note_on_c, 0, 56, 42
1, 178479, Note_off_c, 0, 56, 61
1, 178486, Control_c, 0, 64, 14
1, 178513, Note_off_c, 0, 76, 61
1, 178514, Note_on_c, 0, 65, 59
1, 178517, Note_on_c, 0, 77, 60
1, 178547, Note_off_c, 0, 77, 62
1, 178560, Control_c, 0, 64, 15
1, 178565, Note_off_c, 0, 65, 53
1, 178589, Note_on_c, 0, 60, 60
1, 178604, Control_c, 0, 64, 14
1, 178625, Note_off_c, 0, 60, 62
1, 178663, Control_c, 0, 64, 13
1, 178677, Note_on_c, 0, 65, 51
1, 178678, Control_c, 0, 64, 12
1, 178693, Control_c, 0, 64, 11
1, 178708, Control_c, 0, 64, 12
1, 178713, Note_off_c, 0, 65, 55
1, 178722, Control_c, 0, 64, 13
1, 178737, Control_c, 0, 64, 13
1, 178740, Note_on_c, 0, 56, 54
1, 178752, Control_c, 0, 64, 12
1, 178772, Note_off_c, 0, 56, 65
1, 178782, Control_c, 0, 64, 13
1, 178796, Control_c, 0, 64, 14
1, 178808, Note_on_c, 0, 65, 60
1, 178826, Control_c, 0, 64, 13
1, 178855, Note_off_c, 0, 65, 59
1, 178855, Control_c, 0, 64, 14
1, 178869, Note_on_c, 0, 60, 55
1, 178907, Note_off_c, 0, 60, 64
1, 178930, Control_c, 0, 64, 15
1, 178954, Note_on_c, 0, 65, 45
1, 178974, Control_c, 0, 64, 14
1, 178995, Note_off_c, 0, 65, 62
1, 179004, Control_c, 0, 64, 15
1, 179010, Note_on_c, 0, 57, 55
1, 179048, Note_off_c, 0, 57, 66
1, 179048, Control_c, 0, 64, 14
1, 179085, Control_c, 0, 64, 15
1, 179100, Note_on_c, 0, 65, 57
1, 179138, Note_off_c, 0, 65, 60
1, 179171, Note_on_c, 0, 63, 46
1, 179171, Note_on_c, 0, 77, 63
1, 179190, Control_c, 0, 64, 15
1, 179222, Note_off_c, 0, 63, 58
1, 179249, Control_c, 0, 64, 16
1, 179252, Note_on_c, 0, 65, 48
1, 179255, Note_off_c, 0, 77, 0
1, 179255, Note_on_c, 0, 77, 11
1, 179264, Control_c, 0, 64, 16
1, 179314, Note_off_c, 0, 65, 52
1, 179335, Note_on_c, 0, 80, 67
1, 179336, Note_on_c, 0, 58, 47
1, 179362, Note_off_c, 0, 58, 59
1, 179390, Note_off_c, 0, 77, 37
1, 179418, Note_on_c, 0, 65, 48
1, 179457, Control_c, 0, 64, 17
1, 179471, Control_c, 0, 64, 17
1, 179473, Note_off_c, 0, 65, 56
1, 179479, Note_on_c, 0, 62, 43
1, 179505, Note_off_c, 0, 62, 57
1, 179539, Note_on_c, 0, 65, 45
1, 179575, Control_c, 0, 64, 17
1, 179582, Note_off_c, 0, 65, 64
1, 179614, Note_on_c, 0, 53, 58
1, 179635, Control_c, 0, 64, 17
1, 179653, Note_off_c, 0, 53, 64
1, 179711, Note_on_c, 0, 62, 57
1, 179773, Note_off_c, 0, 80, 60
1, 179788, Note_on_c, 0, 82, 63
1, 179791, Note_on_c, 0, 58, 40
1, 179824, Note_off_c, 0, 58, 50
1, 179829, Note_off_c, 0, 62, 0
1, 179844, Note_on_c, 0, 62, 29
1, 179856, Note_on_c, 0, 80, 70
1, 179873, Note_off_c, 0, 62, 57
1, 179880, Control_c, 0, 64, 17
1, 179910, Control_c, 0, 64, 17
1, 179916, Note_on_c, 0, 50, 64
1, 179925, Control_c, 0, 64, 18
1, 179930, Note_on_c, 0, 79, 71
1, 179936, Note_off_c, 0, 82, 33
1, 179955, Note_off_c, 0, 50, 61
1, 179976, Note_off_c, 0, 80, 53
1, 180025, Note_on_c, 0, 58, 59
1, 180066, Note_off_c, 0, 79, 59
1, 180067, Note_off_c, 0, 58, 60
1, 180074, Control_c, 0, 64, 17
1, 180081, Note_on_c, 0, 77, 63
1, 180087, Note_on_c, 0, 53, 48
1, 180108, Note_off_c, 0, 77, 65
1, 180125, Note_off_c, 0, 53, 64
1, 180169, Note_on_c, 0, 58, 51
1, 180192, Control_c, 0, 64, 18
1, 180194, Note_off_c, 0, 58, 58
1, 180221, Note_on_c, 0, 75, 63
1, 180240, Note_on_c, 0, 46, 58
1, 180276, Note_off_c, 0, 46, 63
1, 180323, Note_on_c, 0, 56, 50
1, 180367, Note_off_c, 0, 56, 61
1, 180370, Control_c, 0, 64, 17
1, 180380, Note_on_c, 0, 74, 64
1, 180385, Note_on_c, 0, 53, 53
1, 180436, Note_off_c, 0, 53, 60
1, 180459, Control_c, 0, 64, 18
1, 180474, Note_on_c, 0, 56, 51
1, 180484, Note_off_c, 0, 75, 37
1, 180503, Control_c, 0, 64, 17
1, 180520, Note_off_c, 0, 56, 61
1, 180520, Note_off_c, 0, 74, 61
1, 180533, Note_on_c, 0, 72, 65
1, 180535, Note_on_c, 0, 46, 60
1, 180547, Control_c, 0, 64, 18
1, 180581, Note_off_c, 0, 46, 62
1, 180599, Control_c, 0, 64, 17
1, 180623, Note_on_c, 0, 56, 52
1, 180629, Control_c, 0, 64, 17
1, 180674, Control_c, 0, 64, 17
1, 180677, Note_off_c, 0, 56, 57
1, 180689, Note_on_c, 0, 70, 72
1, 180693, Note_on_c, 0, 53, 55
1, 180703, Control_c, 0, 64, 17
1, 180707, Note_off_c, 0, 72, 61
1, 180733, Control_c, 0, 64, 17
1, 180751, Note_off_c, 0, 53, 56
1, 180781, Note_on_c, 0, 56, 53
1, 180823, Control_c, 0, 64, 16
1, 180828, Note_off_c, 0, 56, 60
1, 180834, Note_on_c, 0, 68, 73
1, 180836, Note_on_c, 0, 47, 61
1, 180852, Control_c, 0, 64, 17
1, 180867, Control_c, 0, 64, 17
1, 180883, Note_off_c, 0, 47, 59
1, 180938, Note_on_c, 0, 56, 50
1, 180940, Note_off_c, 0, 70, 43
1, 180981, Note_on_c, 0, 65, 65
1, 180981, Note_off_c, 0, 56, 62
1, 180985, Note_on_c, 0, 50, 50
1, 180992, Note_off_c, 0, 68, 56
1, 181000, Control_c, 0, 64, 18
1, 181030, Control_c, 0, 64, 18
1, 181037, Note_off_c, 0, 50, 61
1, 181059, Control_c, 0, 64, 18
1, 181070, Note_on_c, 0, 56, 56
1, 181119, Note_off_c, 0, 56, 57
1, 181142, Note_on_c, 0, 48, 56
1, 181144, Note_on_c, 0, 63, 61
1, 181163, Control_c, 0, 64, 18
1, 181185, Note_off_c, 0, 65, 50
1, 181189, Note_off_c, 0, 48, 61
1, 181222, Control_c, 0, 64, 19
1, 181261, Note_on_c, 0, 55, 41
1, 181298, Note_off_c, 0, 55, 57
1, 181304, Note_on_c, 0, 67, 54
1, 181306, Note_on_c, 0, 51, 46
1, 181353, Note_off_c, 0, 51, 64
1, 181370, Note_off_c, 0, 63, 35
1, 181398, Note_on_c, 0, 55, 52
1, 181440, Note_off_c, 0, 55, 62
1, 181460, Note_on_c, 0, 60, 62
1, 181463, Note_on_c, 0, 44, 61
1, 181497, Control_c, 0, 64, 18
1, 181502, Note_off_c, 0, 44, 61
1, 181557, Note_on_c, 0, 53, 61
1, 181571, Control_c, 0, 64, 17
1, 181586, Control_c, 0, 64, 17
1, 181616, Control_c, 0, 64, 17
1, 181618, Note_off_c, 0, 53, 54
1, 181623, Note_on_c, 0, 68, 58
1, 181623, Note_off_c, 0, 67, 49
1, 181635, Note_on_c, 0, 48, 43
1, 181660, Control_c, 0, 64, 17
1, 181675, Control_c, 0, 64, 16
1, 181678, Note_off_c, 0, 48, 59
1, 181687, Note_off_c, 0, 60, 42
1, 181690, Control_c, 0, 64, 17
1, 181705, Control_c, 0, 64, 18
1, 181720, Note_on_c, 0, 53, 52
1, 181720, Control_c, 0, 64, 18
1, 181735, Control_c, 0, 64, 16
1, 181746, Note_off_c, 0, 68, 51
1, 181764, Note_on_c, 0, 62, 61
1, 181764, Note_off_c, 0, 53, 63
1, 181770, Note_on_c, 0, 46, 51
1, 181808, Control_c, 0, 64, 16
1, 181823, Note_off_c, 0, 46, 57
1, 181823, Control_c, 0, 64, 15
1, 181853, Control_c, 0, 64, 15
1, 181858, Note_on_c, 0, 53, 63
1, 181867, Control_c, 0, 64, 16
1, 181897, Control_c, 0, 64, 15
1, 181908, Note_off_c, 0, 53, 62
1, 181913, Note_on_c, 0, 50, 50
1, 181929, Note_on_c, 0, 65, 58
1, 181931, Note_off_c, 0, 62, 52
1, 181969, Note_off_c, 0, 50, 57
1, 181971, Control_c, 0, 64, 15
1, 182003, Note_on_c, 0, 56, 62
1, 182032, Note_off_c, 0, 56, 64
1, 182082, Control_c, 0, 64, 15
1, 182097, Control_c, 0, 64, 16
1, 182121, Note_on_c, 0, 63, 60
1, 182137, Note_on_c, 0, 51, 63
1, 182138, Note_off_c, 0, 65, 58
1, 182147, Note_on_c, 0, 39, 58
1, 182180, Note_off_c, 0, 63, 59
1, 182219, Note_on_c, 0, 55, 55
1, 182265, Note_off_c, 0, 55, 59
1, 182284, Note_on_c, 0, 58, 65
1, 182332, Note_off_c, 0, 58, 57
1, 182355, Note_on_c, 0, 56, 60
1, 182393, Note_off_c, 0, 56, 62
1, 182400, Note_on_c, 0, 55, 58
1, 182421, Note_off_c, 0, 51, 57
1, 182453, Note_off_c, 0, 55, 60
1, 182453, Note_off_c, 0, 39, 62
1, 182453, Control_c, 0, 64, 15
1, 182468, Note_on_c, 0, 56, 63
1, 182483, Control_c, 0, 64, 15
1, 182512, Note_on_c, 0, 58, 59
1, 182517, Note_off_c, 0, 56, 60
1, 182528, Control_c, 0, 64, 14
1, 182540, Note_off_c, 0, 58, 66
1, 182585, Note_on_c, 0, 60, 63
1, 182587, Control_c, 0, 64, 13
1, 182602, Control_c, 0, 64, 12
1, 182616, Control_c, 0, 64, 11
1, 182619, Note_off_c, 0, 60, 64
1, 182631, Control_c, 0, 64, 10
1, 182646, Note_on_c, 0, 62, 60
1, 182646, Control_c, 0, 64, 0
1, 182689, Note_off_c, 0, 62, 64
1, 182710, Note_on_c, 0, 63, 54
1, 182770, Note_off_c, 0, 63, 61
1, 182778, Note_on_c, 0, 62, 59
1, 182830, Note_off_c, 0, 62, 64
1, 182831, Control_c, 0, 64, 8
1, 182846, Control_c, 0, 64, 9
1, 182853, Note_on_c, 0, 65, 63
1, 182905, Control_c, 0, 64, 10
1, 182915, Note_on_c, 0, 63, 62
1, 182935, Note_off_c, 0, 65, 57
1, 182975, Note_off_c, 0, 63, 62
1, 182988, Note_on_c, 0, 67, 67
1, 183038, Control_c, 0, 64, 11
1, 183053, Control_c, 0, 64, 12
1, 183055, Note_off_c, 0, 67, 51
1, 183061, Note_on_c, 0, 65, 58
1, 183108, Note_on_c, 0, 63, 61
1, 183127, Control_c, 0, 64, 13
1, 183139, Note_off_c, 0, 65, 61
1, 183168, Note_on_c, 0, 62, 64
1, 183187, Note_off_c, 0, 63, 56
1, 183214, Note_off_c, 0, 62, 62
1, 183239, Note_on_c, 0, 60, 64
1, 183273, Note_off_c, 0, 60, 63
1, 183312, Note_on_c, 0, 58, 58
1, 183365, Note_on_c, 0, 60, 55
1, 183372, Note_off_c, 0, 58, 52
1, 183438, Note_off_c, 0, 60, 61
1, 183469, Control_c, 0, 64, 12
1, 183491, Note_on_c, 0, 55, 57
1, 183534, Note_off_c, 0, 55, 60
1, 183573, Note_on_c, 0, 58, 57
1, 183621, Note_off_c, 0, 58, 57
1, 183626, Note_on_c, 0, 56, 61
1, 183654, Control_c, 0, 64, 13
1, 183662, Note_off_c, 0, 56, 65
1, 183677, Note_on_c, 0, 55, 56
1, 183729, Note_off_c, 0, 55, 59
1, 183749, Note_on_c, 0, 56, 58
1, 183796, Note_on_c, 0, 58, 64
1, 183801, Note_off_c, 0, 56, 60
1, 183825, Note_off_c, 0, 58, 66
1, 183846, Control_c, 0, 64, 13
1, 183875, Note_on_c, 0, 60, 65
1, 183876, Control_c, 0, 64, 14
1, 183915, Note_off_c, 0, 60, 60
1, 183933, Note_on_c, 0, 62, 54
1, 183951, Control_c, 0, 64, 14
1, 183979, Note_off_c, 0, 62, 64
1, 183990, Note_on_c, 0, 63, 56
1, 184010, Control_c, 0, 64, 15
1, 184025, Control_c, 0, 64, 18
1, 184040, Control_c, 0, 64, 20
1, 184047, Note_on_c, 0, 62, 60
1, 184055, Control_c, 0, 64, 21
1, 184057, Note_off_c, 0, 63, 61
1, 184087, Note_off_c, 0, 62, 64
1, 184113, Control_c, 0, 64, 21
1, 184114, Note_on_c, 0, 60, 67
1, 184143, Control_c, 0, 64, 21
1, 184169, Note_off_c, 0, 60, 62
1, 184173, Control_c, 0, 64, 21
1, 184181, Note_on_c, 0, 58, 65
1, 184187, Control_c, 0, 64, 22
1, 184202, Control_c, 0, 64, 23
1, 184217, Control_c, 0, 64, 23
1, 184228, Note_off_c, 0, 58, 61
1, 184236, Note_on_c, 0, 60, 66
1, 184247, Control_c, 0, 64, 24
1, 184261, Control_c, 0, 64, 24
1, 184291, Control_c, 0, 64, 23
1, 184294, Note_off_c, 0, 60, 61
1, 184305, Note_on_c, 0, 62, 69
1, 184306, Control_c, 0, 64, 23
1, 184343, Control_c, 0, 64, 23
1, 184368, Note_off_c, 0, 62, 65
1, 184372, Note_on_c, 0, 63, 63
1, 184373, Control_c, 0, 64, 23
1, 184417, Control_c, 0, 64, 24
1, 184423, Note_on_c, 0, 65, 62
1, 184424, Note_off_c, 0, 63, 64
1, 184478, Note_on_c, 0, 67, 70
1, 184483, Note_off_c, 0, 65, 65
1, 184506, Control_c, 0, 64, 23
1, 184520, Control_c, 0, 64, 23
1, 184535, Control_c, 0, 64, 22
1, 184540, Note_on_c, 0, 65, 64
1, 184555, Note_off_c, 0, 67, 59
1, 184615, Note_on_c, 0, 63, 67
1, 184622, Note_off_c, 0, 65, 63
1, 184655, Note_on_c, 0, 62, 68
1, 184659, Note_off_c, 0, 63, 60
1, 184668, Control_c, 0, 64, 23
1, 184720, Note_off_c, 0, 62, 63
1, 184723, Note_on_c, 0, 63, 60
1, 184752, Note_off_c, 0, 63, 66
1, 184773, Control_c, 0, 64, 23
1, 184782, Note_on_c, 0, 65, 68
1, 184818, Note_off_c, 0, 65, 60
1, 184845, Note_on_c, 0, 67, 74
1, 184877, Control_c, 0, 64, 23
1, 184899, Note_on_c, 0, 68, 70
1, 184926, Note_off_c, 0, 67, 59
1, 184962, Note_off_c, 0, 68, 64
1, 184963, Note_on_c, 0, 72, 69
1, 184965, Control_c, 0, 64, 24
1, 184980, Control_c, 0, 64, 25
1, 185024, Control_c, 0, 64, 24
1, 185039, Control_c, 0, 64, 25
1, 185050, Note_on_c, 0, 70, 63
1, 185054, Control_c, 0, 64, 26
1, 185065, Note_off_c, 0, 72, 57
1, 185077, Control_c, 0, 64, 27
1, 185096, Note_on_c, 0, 68, 64
1, 185106, Note_off_c, 0, 70, 56
1, 185131, Note_off_c, 0, 68, 64
1, 185137, Note_on_c, 0, 67, 71
1, 185198, Note_off_c, 0, 67, 63
1, 185204, Note_on_c, 0, 68, 69
1, 185210, Control_c, 0, 64, 27
1, 185220, Note_on_c, 0, 70, 71
1, 185247, Note_off_c, 0, 68, 65
1, 185262, Note_off_c, 0, 70, 64
1, 185298, Control_c, 0, 64, 27
1, 185300, Note_on_c, 0, 72, 71
1, 185341, Note_off_c, 0, 72, 59
1, 185342, Control_c, 0, 64, 26
1, 185355, Note_on_c, 0, 74, 73
1, 185357, Control_c, 0, 64, 26
1, 185372, Control_c, 0, 64, 24
1, 185387, Control_c, 0, 64, 24
1, 185405, Note_off_c, 0, 74, 64
1, 185410, Note_on_c, 0, 75, 69
1, 185416, Control_c, 0, 64, 24
1, 185470, Note_on_c, 0, 74, 59
1, 185476, Control_c, 0, 64, 26
1, 185485, Note_off_c, 0, 75, 63
1, 185491, Control_c, 0, 64, 27
1, 185506, Control_c, 0, 64, 27
1, 185518, Note_off_c, 0, 74, 62
1, 185533, Note_on_c, 0, 72, 70
1, 185580, Control_c, 0, 64, 27
1, 185589, Note_off_c, 0, 72, 62
1, 185598, Note_on_c, 0, 70, 73
1, 185640, Control_c, 0, 64, 27
1, 185651, Note_off_c, 0, 70, 63
1, 185661, Note_on_c, 0, 72, 68
1, 185713, Note_off_c, 0, 72, 59
1, 185714, Control_c, 0, 64, 27
1, 185724, Note_on_c, 0, 74, 73
1, 185758, Control_c, 0, 64, 26
1, 185769, Note_on_c, 0, 75, 71
1, 185773, Control_c, 0, 64, 26
1, 185778, Note_off_c, 0, 74, 63
1, 185831, Note_on_c, 0, 77, 64
1, 185834, Note_off_c, 0, 75, 66
1, 185887, Note_on_c, 0, 79, 76
1, 185897, Note_off_c, 0, 77, 62
1, 185899, Control_c, 0, 64, 25
1, 185914, Control_c, 0, 64, 23
1, 185929, Control_c, 0, 64, 22
1, 185944, Control_c, 0, 64, 23
1, 185950, Note_on_c, 0, 77, 64
1, 185958, Control_c, 0, 64, 23
1, 185965, Note_off_c, 0, 79, 61
1, 185988, Control_c, 0, 64, 22
1, 186015, Note_on_c, 0, 75, 72
1, 186018, Control_c, 0, 64, 23
1, 186033, Note_off_c, 0, 77, 61
1, 186047, Control_c, 0, 64, 23
1, 186052, Note_on_c, 0, 74, 74
1, 186065, Note_off_c, 0, 75, 62
1, 186091, Control_c, 0, 64, 24
1, 186106, Control_c, 0, 64, 24
1, 186121, Control_c, 0, 64, 25
1, 186122, Note_on_c, 0, 75, 65
1, 186129, Note_off_c, 0, 74, 63
1, 186146, Note_off_c, 0, 75, 69
1, 186151, Control_c, 0, 64, 26
1, 186165, Control_c, 0, 64, 26
1, 186176, Note_on_c, 0, 77, 74
1, 186180, Control_c, 0, 64, 27
1, 186210, Control_c, 0, 64, 26
1, 186225, Control_c, 0, 64, 26
1, 186229, Note_off_c, 0, 77, 50
1, 186236, Note_on_c, 0, 79, 79
1, 186294, Note_on_c, 0, 80, 71
1, 186317, Note_off_c, 0, 79, 57
1, 186329, Control_c, 0, 64, 26
1, 186372, Note_on_c, 0, 84, 69
1, 186379, Note_off_c, 0, 80, 61
1, 186462, Note_on_c, 0, 82, 71
1, 186484, Note_off_c, 0, 84, 62
1, 186507, Control_c, 0, 64, 26
1, 186537, Note_on_c, 0, 80, 64
1, 186575, Control_c, 0, 64, 26
1, 186581, Note_off_c, 0, 82, 58
1, 186603, Note_on_c, 0, 79, 71
1, 186604, Control_c, 0, 64, 25
1, 186607, Note_off_c, 0, 80, 58
1, 186619, Control_c, 0, 64, 25
1, 186689, Note_off_c, 0, 79, 61
1, 186693, Control_c, 0, 64, 24
1, 186705, Note_on_c, 0, 82, 71
1, 186722, Control_c, 0, 64, 25
1, 186806, Note_on_c, 0, 80, 62
1, 186813, Note_off_c, 0, 82, 57
1, 186853, Note_off_c, 0, 80, 59
1, 186856, Control_c, 0, 64, 25
1, 186869, Note_on_c, 0, 79, 64
1, 186871, Control_c, 0, 64, 26
1, 186934, Note_on_c, 0, 80, 65
1, 186935, Note_off_c, 0, 79, 61
1, 186975, Control_c, 0, 64, 25
1, 186989, Note_on_c, 0, 82, 62
1, 186989, Control_c, 0, 64, 25
1, 186993, Note_off_c, 0, 80, 63
1, 187014, Note_off_c, 0, 82, 68
1, 187059, Note_on_c, 0, 84, 68
1, 187089, Note_off_c, 0, 84, 61
1, 187107, Control_c, 0, 64, 24
1, 187121, Note_on_c, 0, 86, 72
1, 187122, Control_c, 0, 64, 23
1, 187138, Control_c, 0, 64, 22
1, 187146, Note_off_c, 0, 86, 66
1, 187198, Control_c, 0, 64, 21
1, 187212, Control_c, 0, 64, 20
1, 187237, Note_on_c, 0, 87, 74
1, 187239, Note_on_c, 0, 55, 44
1, 187257, Control_c, 0, 64, 19
1, 187272, Control_c, 0, 64, 14
1, 187273, Note_off_c, 0, 55, 58
1, 187286, Control_c, 0, 64, 0
1, 187327, Note_on_c, 0, 63, 46
1, 187361, Note_off_c, 0, 63, 57
1, 187401, Note_on_c, 0, 58, 43
1, 187438, Note_off_c, 0, 58, 59
1, 187468, Note_on_c, 0, 63, 42
1, 187509, Note_off_c, 0, 63, 52
1, 187535, Note_on_c, 0, 55, 45
1, 187545, Note_off_c, 0, 87, 57
1, 187566, Note_off_c, 0, 55, 60
1, 187613, Note_on_c, 0, 63, 47
1, 187650, Note_off_c, 0, 63, 59
1, 187677, Note_on_c, 0, 58, 48
1, 187698, Note_on_c, 0, 86, 52
1, 187718, Note_off_c, 0, 86, 62
1, 187722, Note_off_c, 0, 58, 61
1, 187750, Note_on_c, 0, 63, 50
1, 187759, Note_on_c, 0, 87, 62
1, 187787, Note_off_c, 0, 87, 67
1, 187803, Note_off_c, 0, 63, 55
1, 187829, Note_on_c, 0, 86, 64
1, 187837, Note_on_c, 0, 55, 46
1, 187864, Note_off_c, 0, 55, 57
1, 187868, Note_off_c, 0, 86, 62
1, 187908, Note_on_c, 0, 87, 64
1, 187921, Note_on_c, 0, 63, 44
1, 187935, Note_off_c, 0, 87, 68
1, 187953, Note_off_c, 0, 63, 55
1, 187977, Note_on_c, 0, 58, 49
1, 187991, Note_on_c, 0, 89, 74
1, 188020, Note_off_c, 0, 58, 62
1, 188050, Note_on_c, 0, 63, 51
1, 188069, Note_on_c, 0, 87, 74
1, 188075, Note_off_c, 0, 89, 60
1, 188092, Note_off_c, 0, 87, 69
1, 188139, Note_off_c, 0, 63, 42
1, 188171, Note_on_c, 0, 55, 55
1, 188175, Note_on_c, 0, 82, 77
1, 188210, Note_off_c, 0, 55, 64
1, 188258, Note_on_c, 0, 63, 48
1, 188293, Note_off_c, 0, 63, 57
1, 188329, Note_on_c, 0, 58, 50
1, 188369, Note_off_c, 0, 58, 62
1, 188400, Note_on_c, 0, 63, 51
1, 188454, Note_off_c, 0, 63, 54
1, 188479, Note_on_c, 0, 55, 53
1, 188514, Note_off_c, 0, 55, 64
1, 188524, Note_off_c, 0, 82, 57
1, 188570, Note_on_c, 0, 63, 39
1, 188599, Note_off_c, 0, 63, 54
1, 188621, Note_on_c, 0, 58, 48
1, 188627, Note_on_c, 0, 81, 60
1, 188657, Note_off_c, 0, 81, 64
1, 188664, Note_off_c, 0, 58, 61
1, 188689, Note_on_c, 0, 82, 65
1, 188691, Note_on_c, 0, 63, 44
1, 188716, Note_off_c, 0, 82, 67
1, 188723, Control_c, 0, 64, 8
1, 188746, Note_off_c, 0, 63, 57
1, 188754, Control_c, 0, 64, 9
1, 188774, Note_on_c, 0, 55, 55
1, 188783, Control_c, 0, 64, 10
1, 188785, Note_on_c, 0, 84, 73
1, 188824, Note_off_c, 0, 84, 59
1, 188826, Note_off_c, 0, 55, 62
1, 188836, Control_c, 0, 64, 9
1, 188865, Note_on_c, 0, 82, 76
1, 188874, Note_on_c, 0, 63, 44
1, 188889, Note_off_c, 0, 82, 66
1, 188908, Note_off_c, 0, 63, 55
1, 188924, Control_c, 0, 64, 10
1, 188942, Note_on_c, 0, 58, 48
1, 188953, Note_on_c, 0, 80, 72
1, 188954, Control_c, 0, 64, 9
1, 188991, Note_off_c, 0, 58, 58
1, 188998, Control_c, 0, 64, 10
1, 189005, Note_off_c, 0, 80, 62
1, 189010, Note_on_c, 0, 79, 71
1, 189021, Note_on_c, 0, 63, 42
1, 189032, Note_off_c, 0, 79, 69
1, 189095, Note_off_c, 0, 63, 51
1, 189102, Control_c, 0, 64, 8
1, 189110, Note_on_c, 0, 83, 86
1, 189123, Note_on_c, 0, 56, 51
1, 189144, Note_off_c, 0, 83, 63
1, 189146, Control_c, 0, 64, 9
1, 189161, Control_c, 0, 64, 8
1, 189162, Note_off_c, 0, 56, 63
1, 189176, Control_c, 0, 64, 0
1, 189183, Note_on_c, 0, 84, 73
1, 189210, Note_on_c, 0, 63, 51
1, 189223, Note_off_c, 0, 84, 62
1, 189241, Note_off_c, 0, 63, 55
1, 189270, Note_on_c, 0, 83, 75
1, 189285, Note_on_c, 0, 60, 45
1, 189305, Note_off_c, 0, 83, 58
1, 189324, Note_off_c, 0, 60, 49
1, 189337, Note_on_c, 0, 84, 66
1, 189351, Note_on_c, 0, 63, 50
1, 189381, Note_off_c, 0, 84, 57
1, 189408, Note_off_c, 0, 63, 53
1, 189415, Note_on_c, 0, 83, 74
1, 189435, Note_on_c, 0, 56, 47
1, 189458, Note_off_c, 0, 83, 58
1, 189473, Control_c, 0, 64, 8
1, 189478, Note_off_c, 0, 56, 63
1, 189487, Note_on_c, 0, 84, 62
1, 189521, Note_on_c, 0, 63, 32
1, 189543, Note_off_c, 0, 84, 54
1, 189564, Note_off_c, 0, 63, 54
1, 189569, Note_on_c, 0, 83, 70
1, 189570, Control_c, 0, 64, 9
1, 189583, Note_on_c, 0, 60, 47
1, 189585, Control_c, 0, 64, 11
1, 189610, Note_off_c, 0, 83, 51
1, 189629, Control_c, 0, 64, 10
1, 189634, Note_on_c, 0, 84, 62
1, 189651, Note_on_c, 0, 63, 62
1, 189657, Note_off_c, 0, 60, 47
1, 189661, Note_off_c, 0, 84, 70
1, 189688, Control_c, 0, 64, 9
1, 189703, Control_c, 0, 64, 8
1, 189709, Note_off_c, 0, 63, 56
1, 189729, Note_on_c, 0, 79, 77
1, 189733, Control_c, 0, 64, 9
1, 189734, Note_on_c, 0, 56, 48
1, 189766, Note_off_c, 0, 79, 62
1, 189769, Note_off_c, 0, 56, 63
1, 189777, Control_c, 0, 64, 8
1, 189804, Note_on_c, 0, 80, 71
1, 189810, Note_on_c, 0, 64, 51
1, 189855, Note_off_c, 0, 64, 51
1, 189865, Note_off_c, 0, 80, 55
1, 189866, Control_c, 0, 64, 0
1, 189881, Note_on_c, 0, 60, 56
1, 189887, Note_on_c, 0, 79, 69
1, 189896, Control_c, 0, 64, 8
1, 189924, Note_off_c, 0, 60, 62
1, 189944, Note_off_c, 0, 79, 57
1, 189948, Note_on_c, 0, 80, 65
1, 189962, Note_on_c, 0, 64, 51
1, 189970, Control_c, 0, 64, 9
1, 189973, Note_off_c, 0, 80, 67
1, 190006, Note_off_c, 0, 64, 60
1, 190029, Control_c, 0, 64, 8
1, 190036, Note_on_c, 0, 76, 78
1, 190040, Note_on_c, 0, 56, 49
1, 190070, Note_off_c, 0, 56, 63
1, 190084, Note_off_c, 0, 76, 57
1, 190103, Note_on_c, 0, 77, 69
1, 190103, Control_c, 0, 64, 0
1, 190120, Note_on_c, 0, 65, 56
1, 190165, Note_off_c, 0, 77, 57
1, 190173, Note_off_c, 0, 65, 56
1, 190177, Control_c, 0, 64, 8
1, 190186, Note_on_c, 0, 76, 68
1, 190199, Note_on_c, 0, 60, 47
1, 190207, Control_c, 0, 64, 9
1, 190219, Note_off_c, 0, 76, 58
1, 190245, Note_off_c, 0, 60, 61
1, 190251, Control_c, 0, 64, 8
1, 190256, Note_on_c, 0, 77, 61
1, 190281, Control_c, 0, 64, 9
1, 190289, Note_off_c, 0, 77, 63
1, 190290, Note_on_c, 0, 65, 46
1, 190334, Control_c, 0, 64, 8
1, 190335, Note_off_c, 0, 65, 57
1, 190349, Control_c, 0, 64, 0
1, 190360, Note_on_c, 0, 56, 52
1, 190378, Control_c, 0, 64, 9
1, 190393, Control_c, 0, 64, 10
1, 190394, Note_off_c, 0, 56, 65
1, 190422, Control_c, 0, 64, 9
1, 190424, Note_on_c, 0, 65, 60
1, 190452, Control_c, 0, 64, 10
1, 190467, Control_c, 0, 64, 11
1, 190475, Note_off_c, 0, 65, 55
1, 190481, Control_c, 0, 64, 12
1, 190499, Note_on_c, 0, 60, 53
1, 190535, Note_off_c, 0, 60, 64
1, 190570, Control_c, 0, 64, 12
1, 190574, Note_on_c, 0, 65, 53
1, 190600, Control_c, 0, 64, 12
1, 190617, Note_off_c, 0, 65, 61
1, 190645, Note_on_c, 0, 57, 60
1, 190681, Note_off_c, 0, 57, 65
1, 190723, Note_on_c, 0, 65, 55
1, 190734, Control_c, 0, 64, 12
1, 190766, Note_off_c, 0, 65, 63
1, 190778, Control_c, 0, 64, 12
1, 190791, Note_on_c, 0, 77, 64
1, 190803, Note_on_c, 0, 63, 45
1, 190846, Note_off_c, 0, 63, 56
1, 190888, Note_on_c, 0, 65, 48
1, 190896, Control_c, 0, 64, 12
1, 190926, Control_c, 0, 64, 12
1, 190938, Note_off_c, 0, 65, 59
1, 190956, Note_on_c, 0, 80, 70
1, 190964, Note_on_c, 0, 58, 50
1, 190970, Control_c, 0, 64, 12
1, 190974, Note_off_c, 0, 77, 56
1, 190994, Note_off_c, 0, 58, 63
1, 191000, Control_c, 0, 64, 12
1, 191029, Control_c, 0, 64, 12
1, 191044, Control_c, 0, 64, 13
1, 191056, Note_on_c, 0, 65, 52
1, 191067, Control_c, 0, 64, 13
1, 191096, Control_c, 0, 64, 13
1, 191098, Note_off_c, 0, 65, 63
1, 191111, Control_c, 0, 64, 13
1, 191125, Note_on_c, 0, 62, 49
1, 191127, Control_c, 0, 64, 14
1, 191142, Control_c, 0, 64, 14
1, 191161, Note_off_c, 0, 62, 65
1, 191172, Control_c, 0, 64, 14
1, 191187, Note_on_c, 0, 65, 54
1, 191201, Control_c, 0, 64, 14
1, 191216, Control_c, 0, 64, 15
1, 191224, Note_off_c, 0, 65, 64
1, 191259, Note_on_c, 0, 53, 65
1, 191301, Note_off_c, 0, 53, 64
1, 191358, Note_on_c, 0, 62, 52
1, 191393, Control_c, 0, 64, 15
1, 191397, Note_off_c, 0, 80, 61
1, 191408, Note_on_c, 0, 79, 69
1, 191423, Note_on_c, 0, 58, 53
1, 191459, Note_off_c, 0, 58, 65
1, 191474, Note_off_c, 0, 62, 0
1, 191481, Note_off_c, 0, 79, 61
1, 191482, Note_on_c, 0, 80, 69
1, 191493, Note_on_c, 0, 62, 12
1, 191518, Note_off_c, 0, 62, 52
1, 191552, Note_on_c, 0, 50, 65
1, 191560, Note_off_c, 0, 80, 61
1, 191566, Note_on_c, 0, 82, 67
1, 191571, Control_c, 0, 64, 15
1, 191589, Note_off_c, 0, 50, 62
1, 191626, Note_on_c, 0, 80, 64
1, 191649, Note_on_c, 0, 58, 62
1, 191665, Note_off_c, 0, 82, 57
1, 191686, Note_off_c, 0, 58, 61
1, 191706, Note_on_c, 0, 79, 72
1, 191727, Note_on_c, 0, 53, 23
1, 191728, Note_off_c, 0, 80, 58
1, 191734, Control_c, 0, 64, 16
1, 191754, Note_off_c, 0, 53, 49
1, 191768, Note_off_c, 0, 79, 62
1, 191769, Note_on_c, 0, 58, 62
1, 191771, Note_on_c, 0, 77, 74
1, 191813, Note_off_c, 0, 58, 64
1, 191834, Note_off_c, 0, 77, 63
1, 191869, Note_on_c, 0, 46, 57
1, 191870, Note_on_c, 0, 75, 73
1, 191912, Note_off_c, 0, 46, 64
1, 191935, Control_c, 0, 64, 15
1, 191937, Note_on_c, 0, 74, 70
1, 191943, Note_on_c, 0, 56, 52
1, 191988, Note_off_c, 0, 75, 56
1, 191989, Note_off_c, 0, 56, 62
1, 192009, Note_off_c, 0, 74, 63
1, 192009, Control_c, 0, 64, 14
1, 192012, Note_on_c, 0, 79, 70
1, 192013, Note_on_c, 0, 53, 51
1, 192024, Control_c, 0, 64, 14
1, 192053, Control_c, 0, 64, 15
1, 192066, Note_off_c, 0, 53, 60
1, 192086, Note_on_c, 0, 77, 72
1, 192100, Note_on_c, 0, 56, 53
1, 192108, Note_off_c, 0, 79, 59
1, 192144, Note_off_c, 0, 56, 63
1, 192160, Note_on_c, 0, 46, 58
1, 192168, Note_on_c, 0, 75, 75
1, 192203, Note_off_c, 0, 46, 61
1, 192209, Note_off_c, 0, 77, 60
1, 192233, Note_on_c, 0, 74, 71
1, 192238, Note_on_c, 0, 56, 62
1, 192261, Note_off_c, 0, 75, 63
1, 192281, Note_off_c, 0, 56, 60
1, 192295, Note_off_c, 0, 74, 62
1, 192304, Note_on_c, 0, 53, 54
1, 192309, Note_on_c, 0, 72, 69
1, 192357, Note_off_c, 0, 53, 59
1, 192368, Note_off_c, 0, 72, 52
1, 192386, Note_on_c, 0, 70, 75
1, 192388, Note_on_c, 0, 56, 54
1, 192409, Control_c, 0, 64, 15
1, 192444, Note_on_c, 0, 47, 57
1, 192444, Note_off_c, 0, 56, 58
1, 192462, Note_on_c, 0, 68, 69
1, 192486, Note_off_c, 0, 70, 57
1, 192487, Note_off_c, 0, 47, 60
1, 192526, Note_off_c, 0, 68, 63
1, 192535, Note_on_c, 0, 67, 69
1, 192579, Control_c, 0, 64, 15
1, 192588, Note_on_c, 0, 56, 9
1, 192594, Control_c, 0, 64, 14
1, 192594, Note_on_c, 0, 50, 49
1, 192609, Note_off_c, 0, 67, 62
1, 192611, Note_on_c, 0, 68, 59
1, 192624, Control_c, 0, 64, 15
1, 192661, Note_off_c, 0, 50, 60
1, 192679, Note_off_c, 0, 56, 0
1, 192679, Note_on_c, 0, 56, 38
1, 192683, Note_on_c, 0, 65, 64
1, 192683, Control_c, 0, 64, 15
1, 192688, Note_off_c, 0, 68, 57
1, 192698, Control_c, 0, 64, 16
1, 192743, Control_c, 0, 64, 15
1, 192758, Note_off_c, 0, 56, 51
1, 192758, Control_c, 0, 64, 15
1, 192771, Note_on_c, 0, 48, 57
1, 192788, Control_c, 0, 64, 15
1, 192824, Note_off_c, 0, 48, 54
1, 192841, Note_off_c, 0, 65, 56
1, 192843, Note_on_c, 0, 63, 62
1, 192847, Control_c, 0, 64, 15
1, 192876, Control_c, 0, 64, 15
1, 192878, Note_on_c, 0, 55, 43
1, 192891, Control_c, 0, 64, 16
1, 192925, Note_off_c, 0, 55, 61
1, 192931, Note_on_c, 0, 51, 52
1, 192934, Note_on_c, 0, 67, 63
1, 192940, Note_off_c, 0, 63, 56
1, 192970, Note_off_c, 0, 51, 64
1, 193009, Note_on_c, 0, 55, 57
1, 193056, Note_off_c, 0, 55, 60
1, 193092, Note_on_c, 0, 44, 65
1, 193128, Note_off_c, 0, 44, 61
1, 193128, Control_c, 0, 64, 16
1, 193170, Note_on_c, 0, 60, 60
1, 193180, Note_on_c, 0, 53, 66
1, 193217, Control_c, 0, 64, 16
1, 193247, Control_c, 0, 64, 15
1, 193248, Note_off_c, 0, 53, 58
1, 193254, Note_off_c, 0, 67, 57
1, 193258, Note_on_c, 0, 68, 62
1, 193265, Note_on_c, 0, 48, 57
1, 193271, Note_off_c, 0, 60, 57
1, 193276, Control_c, 0, 64, 16
1, 193313, Control_c, 0, 64, 15
1, 193315, Note_off_c, 0, 48, 64
1, 193355, Note_on_c, 0, 53, 60
1, 193402, Note_off_c, 0, 53, 59
1, 193417, Note_on_c, 0, 46, 57
1, 193447, Control_c, 0, 64, 16
1, 193455, Note_off_c, 0, 68, 56
1, 193480, Note_on_c, 0, 62, 63
1, 193501, Note_on_c, 0, 53, 62
1, 193521, Control_c, 0, 64, 15
1, 193536, Control_c, 0, 64, 15
1, 193554, Note_off_c, 0, 46, 51
1, 193566, Note_off_c, 0, 53, 64
1, 193575, Note_on_c, 0, 65, 66
1, 193581, Control_c, 0, 64, 15
1, 193582, Note_on_c, 0, 50, 63
1, 193596, Note_off_c, 0, 62, 50
1, 193633, Note_off_c, 0, 50, 60
1, 193640, Control_c, 0, 64, 16
1, 193659, Note_on_c, 0, 56, 66
1, 193699, Control_c, 0, 64, 15
1, 193720, Note_off_c, 0, 56, 58
1, 193737, Note_on_c, 0, 63, 72
1, 193749, Note_on_c, 0, 51, 62
1, 193749, Note_off_c, 0, 65, 63
1, 193758, Control_c, 0, 64, 15
1, 193766, Note_off_c, 0, 63, 64
1, 193773, Control_c, 0, 64, 14
1, 193801, Note_off_c, 0, 51, 60
1, 193822, Note_on_c, 0, 55, 71
1, 193877, Control_c, 0, 64, 14
1, 193892, Control_c, 0, 64, 15
1, 193902, Note_off_c, 0, 55, 54
1, 193909, Note_on_c, 0, 56, 72
1, 193936, Control_c, 0, 64, 14
1, 193951, Control_c, 0, 64, 15
1, 193966, Control_c, 0, 64, 16
1, 193969, Note_on_c, 0, 58, 76
1, 193970, Note_off_c, 0, 56, 64
1, 193994, Note_off_c, 0, 58, 69
1, 193995, Control_c, 0, 64, 15
1, 194010, Control_c, 0, 64, 14
1, 194025, Control_c, 0, 64, 14
1, 194038, Note_on_c, 0, 60, 70
1, 194062, Control_c, 0, 64, 14
1, 194077, Control_c, 0, 64, 15
1, 194106, Control_c, 0, 64, 14
1, 194115, Note_off_c, 0, 60, 63
1, 194117, Note_on_c, 0, 62, 72
1, 194121, Control_c, 0, 64, 14
1, 194165, Control_c, 0, 64, 14
1, 194187, Note_on_c, 0, 63, 71
1, 194191, Note_off_c, 0, 62, 64
1, 194195, Control_c, 0, 64, 14
1, 194228, Note_off_c, 0, 63, 65
1, 194240, Control_c, 0, 64, 15
1, 194252, Note_on_c, 0, 65, 68
1, 194255, Control_c, 0, 64, 16
1, 194325, Note_off_c, 0, 65, 61
1, 194329, Note_on_c, 0, 67, 77
1, 194399, Note_on_c, 0, 68, 79
1, 194416, Note_off_c, 0, 67, 62
1, 194448, Control_c, 0, 64, 17
1, 194463, Control_c, 0, 64, 18
1, 194473, Note_on_c, 0, 70, 73
1, 194491, Note_off_c, 0, 68, 62
1, 194522, Control_c, 0, 64, 18
1, 194532, Note_on_c, 0, 72, 73
1, 194537, Control_c, 0, 64, 20
1, 194552, Control_c, 0, 64, 20
1, 194559, Note_off_c, 0, 70, 62
1, 194567, Control_c, 0, 64, 20
1, 194596, Control_c, 0, 64, 20
1, 194611, Control_c, 0, 64, 21
1, 194618, Note_on_c, 0, 70, 79
1, 194626, Control_c, 0, 64, 22
1, 194648, Note_off_c, 0, 72, 60
1, 194773, Note_on_c, 0, 50, 53
1, 194774, Note_on_c, 0, 58, 53
1, 194779, Note_on_c, 0, 53, 55
1, 194806, Note_off_c, 0, 58, 58
1, 194815, Note_off_c, 0, 50, 63
1, 194818, Note_off_c, 0, 53, 64
1, 194870, Control_c, 0, 64, 23
1, 194928, Note_on_c, 0, 58, 51
1, 194931, Note_on_c, 0, 53, 53
1, 194937, Note_on_c, 0, 50, 48
1, 194944, Control_c, 0, 64, 23
1, 194968, Note_off_c, 0, 58, 61
1, 194973, Note_off_c, 0, 50, 64
1, 194973, Note_off_c, 0, 53, 66
1, 194973, Control_c, 0, 64, 24
1, 195018, Control_c, 0, 64, 23
1, 195033, Control_c, 0, 64, 24
1, 195048, Control_c, 0, 64, 24
1, 195063, Control_c, 0, 64, 25
1, 195083, Note_on_c, 0, 58, 66
1, 195090, Note_on_c, 0, 53, 59
1, 195095, Note_on_c, 0, 50, 44
1, 195107, Note_off_c, 0, 70, 50
1, 195119, Note_off_c, 0, 58, 62
1, 195129, Note_off_c, 0, 50, 61
1, 195132, Note_off_c, 0, 53, 63
1, 195167, Control_c, 0, 64, 24
1, 195230, Note_on_c, 0, 50, 49
1, 195230, Note_on_c, 0, 58, 68
1, 195238, Note_on_c, 0, 53, 56
1, 195241, Note_on_c, 0, 68, 68
1, 195265, Note_off_c, 0, 58, 60
1, 195269, Note_off_c, 0, 68, 65
1, 195274, Note_off_c, 0, 50, 59
1, 195274, Note_off_c, 0, 53, 62
1, 195291, Note_on_c, 0, 70, 65
1, 195346, Note_on_c, 0, 68, 68
1, 195356, Note_off_c, 0, 70, 61
1, 195364, Note_on_c, 0, 58, 67
1, 195371, Note_on_c, 0, 53, 56
1, 195375, Control_c, 0, 64, 25
1, 195385, Note_off_c, 0, 68, 61
1, 195398, Note_off_c, 0, 58, 62
1, 195403, Note_off_c, 0, 53, 65
1, 195409, Note_on_c, 0, 67, 72
1, 195463, Note_off_c, 0, 67, 61
1, 195478, Control_c, 0, 64, 24
1, 195482, Note_on_c, 0, 68, 63
1, 195508, Control_c, 0, 64, 24
1, 195529, Note_on_c, 0, 67, 69
1, 195534, Note_off_c, 0, 68, 60
1, 195535, Note_on_c, 0, 63, 69
1, 195560, Note_off_c, 0, 67, 68
1, 195590, Control_c, 0, 64, 24
1, 195605, Note_off_c, 0, 63, 61
1, 195621, Note_on_c, 0, 67, 68
1, 195634, Control_c, 0, 64, 24
1, 195649, Control_c, 0, 64, 23
1, 195664, Control_c, 0, 64, 22
1, 195693, Control_c, 0, 64, 23
1, 195711, Note_on_c, 0, 68, 72
1, 195715, Note_off_c, 0, 67, 39
1, 195763, Note_on_c, 0, 70, 87
1, 195769, Note_off_c, 0, 68, 64
1, 195792, Note_off_c, 0, 70, 64
1, 195841, Note_on_c, 0, 72, 68
1, 195841, Control_c, 0, 64, 24
1, 195908, Note_on_c, 0, 74, 75
1, 195915, Note_off_c, 0, 72, 56
1, 195916, Control_c, 0, 64, 23
1, 195931, Control_c, 0, 64, 22
1, 195945, Control_c, 0, 64, 22
1, 195975, Control_c, 0, 64, 22
1, 195977, Note_off_c, 0, 74, 61
1, 195978, Note_on_c, 0, 75, 73
1, 196011, Note_off_c, 0, 75, 66
1, 196037, Note_on_c, 0, 77, 73
1, 196106, Note_off_c, 0, 77, 57
1, 196108, Note_on_c, 0, 79, 79
1, 196179, Note_on_c, 0, 80, 80
1, 196190, Note_off_c, 0, 79, 60
1, 196243, Note_on_c, 0, 82, 72
1, 196243, Control_c, 0, 64, 23
1, 196258, Control_c, 0, 64, 23
1, 196258, Note_off_c, 0, 80, 63
1, 196316, Note_on_c, 0, 84, 73
1, 196336, Note_off_c, 0, 82, 63
1, 196368, Control_c, 0, 64, 23
1, 196397, Note_on_c, 0, 82, 82
1, 196398, Control_c, 0, 64, 24
1, 196413, Control_c, 0, 64, 24
1, 196428, Control_c, 0, 64, 25
1, 196430, Note_off_c, 0, 84, 62
1, 196443, Control_c, 0, 64, 24
1, 196487, Control_c, 0, 64, 25
1, 196517, Control_c, 0, 64, 24
1, 196551, Note_on_c, 0, 70, 51
1, 196555, Note_on_c, 0, 62, 42
1, 196567, Note_on_c, 0, 65, 36
1, 196578, Note_off_c, 0, 70, 54
1, 196581, Note_off_c, 0, 62, 56
1, 196591, Control_c, 0, 64, 24
1, 196595, Note_off_c, 0, 65, 49
1, 196606, Control_c, 0, 64, 23
1, 196620, Control_c, 0, 64, 22
1, 196635, Control_c, 0, 64, 21
1, 196705, Note_on_c, 0, 70, 54
1, 196708, Note_on_c, 0, 62, 40
1, 196709, Control_c, 0, 64, 22
1, 196712, Note_on_c, 0, 65, 39
1, 196725, Control_c, 0, 64, 22
1, 196746, Note_off_c, 0, 70, 62
1, 196747, Note_off_c, 0, 65, 64
1, 196751, Note_off_c, 0, 62, 62
1, 196755, Control_c, 0, 64, 21
1, 196799, Control_c, 0, 64, 22
1, 196825, Note_off_c, 0, 82, 51
1, 196866, Note_on_c, 0, 70, 55
1, 196877, Note_on_c, 0, 65, 38
1, 196884, Note_on_c, 0, 62, 23
1, 196901, Note_off_c, 0, 70, 56
1, 196905, Note_off_c, 0, 65, 56
1, 196917, Control_c, 0, 64, 21
1, 196922, Note_off_c, 0, 62, 39
1, 196996, Note_on_c, 0, 80, 64
1, 197003, Note_on_c, 0, 70, 57
1, 197006, Control_c, 0, 64, 22
1, 197007, Note_on_c, 0, 65, 42
1, 197010, Note_on_c, 0, 62, 50
1, 197021, Control_c, 0, 64, 22
1, 197024, Note_off_c, 0, 80, 63
1, 197042, Control_c, 0, 64, 23
1, 197049, Note_off_c, 0, 62, 58
1, 197052, Note_off_c, 0, 70, 60
1, 197053, Note_off_c, 0, 65, 64
1, 197057, Control_c, 0, 64, 23
1, 197068, Note_on_c, 0, 82, 60
1, 197072, Control_c, 0, 64, 23
1, 197116, Note_off_c, 0, 82, 60
1, 197122, Note_on_c, 0, 80, 52
1, 197131, Control_c, 0, 64, 23
1, 197144, Note_off_c, 0, 80, 59
1, 197161, Note_on_c, 0, 70, 52
1, 197164, Note_on_c, 0, 62, 45
1, 197173, Note_on_c, 0, 79, 55
1, 197175, Note_on_c, 0, 65, 39
1, 197191, Control_c, 0, 64, 24
1, 197194, Note_off_c, 0, 79, 61
1, 197207, Note_off_c, 0, 62, 56
1, 197208, Note_off_c, 0, 70, 45
1, 197211, Note_off_c, 0, 65, 64
1, 197221, Control_c, 0, 64, 23
1, 197224, Note_on_c, 0, 80, 69
1, 197265, Control_c, 0, 64, 24
1, 197285, Note_on_c, 0, 79, 57
1, 197286, Note_off_c, 0, 80, 57
1, 197368, Control_c, 0, 64, 23
1, 197442, Control_c, 0, 64, 22
1, 197458, Note_on_c, 0, 63, 53
1, 197467, Note_on_c, 0, 67, 56
1, 197468, Note_off_c, 0, 79, 55
1, 197495, Note_off_c, 0, 67, 67
1, 197513, Note_off_c, 0, 63, 59
1, 197577, Control_c, 0, 64, 23
1, 197590, Note_on_c, 0, 77, 67
1, 197617, Note_off_c, 0, 77, 66
1, 197636, Note_on_c, 0, 79, 60
1, 197693, Note_off_c, 0, 79, 61
1, 197699, Note_on_c, 0, 77, 64
1, 197710, Control_c, 0, 64, 23
1, 197725, Control_c, 0, 64, 24
1, 197725, Note_off_c, 0, 77, 67
1, 197736, Note_on_c, 0, 76, 64
1, 197739, Note_on_c, 0, 59, 57
1, 197739, Control_c, 0, 64, 24
1, 197745, Note_on_c, 0, 62, 56
1, 197766, Note_off_c, 0, 59, 65
1, 197766, Note_off_c, 0, 62, 63
1, 197771, Note_off_c, 0, 76, 57
1, 197801, Note_on_c, 0, 77, 75
1, 197821, Control_c, 0, 64, 25
1, 197851, Control_c, 0, 64, 24
1, 197865, Note_off_c, 0, 77, 57
1, 197880, Control_c, 0, 64, 25
1, 197890, Note_on_c, 0, 75, 74
1, 197895, Control_c, 0, 64, 25
1, 197924, Control_c, 0, 64, 26
1, 198032, Note_on_c, 0, 63, 66
1, 198035, Note_on_c, 0, 67, 57
1, 198037, Note_on_c, 0, 60, 51
1, 198055, Note_off_c, 0, 67, 64
1, 198064, Note_off_c, 0, 60, 66
1, 198066, Note_off_c, 0, 63, 64
1, 198073, Control_c, 0, 64, 25
1, 198094, Note_off_c, 0, 75, 62
1, 198180, Note_on_c, 0, 73, 70
1, 198208, Note_off_c, 0, 73, 62
1, 198231, Note_on_c, 0, 75, 65
1, 198265, Control_c, 0, 64, 26
1, 198291, Note_off_c, 0, 75, 63
1, 198297, Note_on_c, 0, 73, 62
1, 198307, Note_on_c, 0, 63, 61
1, 198318, Note_on_c, 0, 55, 36
1, 198318, Note_on_c, 0, 58, 56
1, 198324, Note_off_c, 0, 73, 66
1, 198331, Note_on_c, 0, 72, 64
1, 198336, Note_off_c, 0, 63, 66
1, 198346, Note_off_c, 0, 58, 64
1, 198347, Note_off_c, 0, 55, 45
1, 198375, Note_off_c, 0, 72, 59
1, 198385, Control_c, 0, 64, 25
1, 198387, Note_on_c, 0, 73, 76
1, 198444, Control_c, 0, 64, 26
1, 198451, Note_on_c, 0, 72, 71
1, 198458, Note_off_c, 0, 73, 63
1, 198555, Control_c, 0, 64, 25
1, 198585, Control_c, 0, 64, 26
1, 198604, Note_on_c, 0, 63, 66
1, 198609, Note_on_c, 0, 56, 63
1, 198609, Note_on_c, 0, 60, 61
1, 198629, Control_c, 0, 64, 25
1, 198630, Note_off_c, 0, 60, 65
1, 198630, Note_off_c, 0, 63, 67
1, 198645, Note_off_c, 0, 56, 66
1, 198652, Note_off_c, 0, 72, 61
1, 198659, Control_c, 0, 64, 26
1, 198744, Note_on_c, 0, 70, 71
1, 198772, Note_off_c, 0, 70, 65
1, 198789, Note_on_c, 0, 72, 63
1, 198852, Note_on_c, 0, 70, 66
1, 198860, Note_off_c, 0, 72, 62
1, 198881, Control_c, 0, 64, 26
1, 198887, Note_on_c, 0, 60, 57
1, 198890, Note_on_c, 0, 52, 53
1, 198891, Note_on_c, 0, 55, 60
1, 198896, Note_off_c, 0, 70, 61
1, 198898, Note_on_c, 0, 69, 68
1, 198913, Note_off_c, 0, 60, 65
1, 198920, Note_off_c, 0, 55, 64
1, 198925, Note_off_c, 0, 52, 65
1, 198952, Note_off_c, 0, 69, 57
1, 198954, Note_on_c, 0, 70, 73
1, 199010, Note_on_c, 0, 69, 72
1, 199024, Note_off_c, 0, 70, 61
1, 199059, Control_c, 0, 64, 26
1, 199164, Note_on_c, 0, 60, 66
1, 199164, Note_on_c, 0, 57, 70
1, 199170, Note_on_c, 0, 53, 61
1, 199191, Note_off_c, 0, 57, 68
1, 199191, Note_off_c, 0, 60, 66
1, 199193, Control_c, 0, 64, 25
1, 199201, Note_off_c, 0, 53, 64
1, 199206, Note_off_c, 0, 69, 57
1, 199223, Control_c, 0, 64, 26
1, 199267, Control_c, 0, 64, 25
1, 199301, Note_on_c, 0, 68, 72
1, 199329, Note_off_c, 0, 68, 65
1, 199358, Note_on_c, 0, 70, 70
1, 199364, Control_c, 0, 64, 26
1, 199414, Note_on_c, 0, 68, 64
1, 199422, Note_off_c, 0, 70, 62
1, 199443, Note_on_c, 0, 58, 66
1, 199444, Note_off_c, 0, 68, 65
1, 199452, Control_c, 0, 64, 26
1, 199453, Note_on_c, 0, 67, 70
1, 199455, Note_on_c, 0, 50, 32
1, 199474, Note_off_c, 0, 58, 66
1, 199478, Note_on_c, 0, 53, 31
1, 199490, Note_off_c, 0, 50, 41
1, 199496, Control_c, 0, 64, 26
1, 199508, Note_off_c, 0, 67, 59
1, 199518, Note_off_c, 0, 53, 30
1, 199519, Note_on_c, 0, 68, 80
1, 199526, Control_c, 0, 64, 26
1, 199556, Control_c, 0, 64, 26
1, 199570, Control_c, 0, 64, 25
1, 199573, Note_on_c, 0, 67, 76
1, 199582, Note_off_c, 0, 68, 62
1, 199585, Control_c, 0, 64, 25
1, 199600, Control_c, 0, 64, 26
1, 199629, Control_c, 0, 64, 25
1, 199674, Control_c, 0, 64, 26
1, 199722, Note_on_c, 0, 58, 76
1, 199727, Note_off_c, 0, 67, 58
1, 199729, Note_on_c, 0, 51, 66
1, 199733, Note_on_c, 0, 55, 60
1, 199749, Control_c, 0, 64, 26
1, 199750, Note_off_c, 0, 58, 67
1, 199761, Note_off_c, 0, 55, 64
1, 199763, Control_c, 0, 64, 27
1, 199767, Note_off_c, 0, 51, 64
1, 199778, Control_c, 0, 64, 28
1, 199793, Control_c, 0, 64, 29
1, 199821, Control_c, 0, 64, 29
1, 199836, Control_c, 0, 64, 30
1, 199851, Control_c, 0, 64, 31
1, 199852, Note_on_c, 0, 65, 71
1, 199880, Note_off_c, 0, 65, 67
1, 199892, Note_on_c, 0, 67, 61
1, 199895, Control_c, 0, 64, 32
1, 199911, Control_c, 0, 64, 33
1, 199926, Control_c, 0, 64, 34
1, 199956, Control_c, 0, 64, 34
1, 199957, Note_on_c, 0, 65, 68
1, 199958, Note_off_c, 0, 67, 64
1, 199971, Control_c, 0, 64, 35
1, 199984, Note_on_c, 0, 55, 57
1, 199984, Note_off_c, 0, 65, 67
1, 199985, Control_c, 0, 64, 36
1, 199987, Note_on_c, 0, 47, 62
1, 199990, Note_on_c, 0, 50, 62
1, 199995, Note_on_c, 0, 64, 68
1, 200000, Control_c, 0, 64, 36
1, 200013, Note_off_c, 0, 47, 66
1, 200014, Note_off_c, 0, 50, 61
1, 200016, Note_off_c, 0, 55, 65
1, 200052, Control_c, 0, 64, 36
1, 200055, Note_off_c, 0, 64, 59
1, 200060, Note_on_c, 0, 65, 77
1, 200067, Control_c, 0, 64, 36
1, 200112, Control_c, 0, 64, 36
1, 200123, Note_off_c, 0, 65, 59
1, 200126, Control_c, 0, 64, 35
1, 200136, Note_on_c, 0, 63, 85
1, 200141, Control_c, 0, 64, 34
1, 200156, Control_c, 0, 64, 33
1, 200171, Control_c, 0, 64, 30
1, 200186, Control_c, 0, 64, 20
1, 200200, Control_c, 0, 64, 0
1, 200274, Control_c, 0, 64, 33
1, 200289, Control_c, 0, 64, 49
1, 200291, Note_on_c, 0, 51, 68
1, 200291, Note_on_c, 0, 55, 71
1, 200303, Note_on_c, 0, 48, 59
1, 200304, Control_c, 0, 64, 57
1, 200318, Note_off_c, 0, 55, 67
1, 200318, Control_c, 0, 64, 60
1, 200326, Note_off_c, 0, 51, 66
1, 200333, Control_c, 0, 64, 61
1, 200336, Note_off_c, 0, 48, 63
1, 200348, Control_c, 0, 64, 62
1, 200353, Note_off_c, 0, 63, 62
1, 200363, Control_c, 0, 64, 62
1, 200437, Control_c, 0, 64, 62
1, 200439, Note_on_c, 0, 61, 76
1, 200452, Control_c, 0, 64, 61
1, 200467, Control_c, 0, 64, 59
1, 200474, Note_off_c, 0, 61, 58
1, 200482, Control_c, 0, 64, 57
1, 200491, Note_on_c, 0, 63, 63
1, 200497, Control_c, 0, 64, 54
1, 200511, Control_c, 0, 64, 50
1, 200526, Control_c, 0, 64, 46
1, 200541, Control_c, 0, 64, 40
1, 200554, Note_on_c, 0, 61, 71
1, 200556, Control_c, 0, 64, 32
1, 200561, Note_off_c, 0, 63, 63
1, 200565, Note_on_c, 0, 51, 72
1, 200569, Note_on_c, 0, 46, 60
1, 200571, Control_c, 0, 64, 23
1, 200575, Note_on_c, 0, 43, 51
1, 200585, Note_on_c, 0, 60, 69
1, 200585, Control_c, 0, 64, 13
1, 200586, Note_off_c, 0, 61, 63
1, 200592, Note_off_c, 0, 51, 66
1, 200600, Note_off_c, 0, 46, 65
1, 200600, Control_c, 0, 64, 0
1, 200601, Note_off_c, 0, 43, 54
1, 200651, Note_off_c, 0, 60, 63
1, 200652, Note_on_c, 0, 61, 81
1, 200706, Note_on_c, 0, 60, 76
1, 200720, Control_c, 0, 64, 10
1, 200726, Note_off_c, 0, 61, 63
1, 200734, Control_c, 0, 64, 9
1, 200749, Control_c, 0, 64, 8
1, 200786, Control_c, 0, 64, 9
1, 200801, Control_c, 0, 64, 11
1, 200857, Note_on_c, 0, 51, 76
1, 200859, Note_on_c, 0, 48, 67
1, 200866, Note_on_c, 0, 44, 68
1, 200875, Control_c, 0, 64, 12
1, 200882, Note_off_c, 0, 51, 67
1, 200887, Note_off_c, 0, 48, 65
1, 200890, Control_c, 0, 64, 11
1, 200910, Note_off_c, 0, 44, 61
1, 200911, Note_off_c, 0, 60, 62
1, 200920, Control_c, 0, 64, 13
1, 200935, Control_c, 0, 64, 18
1, 200949, Control_c, 0, 64, 21
1, 200964, Control_c, 0, 64, 21
1, 200979, Control_c, 0, 64, 20
1, 200993, Note_on_c, 0, 58, 76
1, 201027, Note_off_c, 0, 58, 60
1, 201039, Note_on_c, 0, 60, 66
1, 201053, Control_c, 0, 64, 19
1, 201067, Control_c, 0, 64, 19
1, 201097, Control_c, 0, 64, 18
1, 201112, Control_c, 0, 64, 16
1, 201114, Note_off_c, 0, 60, 65
1, 201115, Note_on_c, 0, 58, 75
1, 201120, Note_on_c, 0, 48, 65
1, 201127, Control_c, 0, 64, 12
1, 201129, Note_on_c, 0, 40, 62
1, 201130, Note_on_c, 0, 43, 64
1, 201135, Note_on_c, 0, 57, 70
1, 201141, Control_c, 0, 64, 12
1, 201143, Note_off_c, 0, 58, 67
1, 201148, Note_off_c, 0, 48, 64
1, 201159, Note_off_c, 0, 43, 66
1, 201159, Note_off_c, 0, 40, 65
1, 201191, Note_off_c, 0, 57, 63
1, 201212, Note_on_c, 0, 58, 73
1, 201259, Note_on_c, 0, 57, 86
1, 201261, Note_off_c, 0, 58, 64
1, 201320, Control_c, 0, 64, 11
1, 201334, Control_c, 0, 64, 10
1, 201349, Control_c, 0, 64, 12
1, 201364, Control_c, 0, 64, 13
1, 201379, Control_c, 0, 64, 14
1, 201419, Note_on_c, 0, 45, 75
1, 201420, Note_on_c, 0, 48, 76
1, 201423, Control_c, 0, 64, 14
1, 201427, Note_on_c, 0, 41, 65
1, 201438, Control_c, 0, 64, 15
1, 201443, Note_off_c, 0, 45, 67
1, 201445, Note_off_c, 0, 48, 66
1, 201455, Note_off_c, 0, 41, 66
1, 201457, Note_off_c, 0, 57, 63
1, 201535, Control_c, 0, 64, 15
1, 201564, Note_on_c, 0, 56, 84
1, 201579, Control_c, 0, 64, 17
1, 201594, Control_c, 0, 64, 18
1, 201609, Control_c, 0, 64, 18
1, 201615, Note_off_c, 0, 56, 64
1, 201623, Note_on_c, 0, 58, 68
1, 201638, Control_c, 0, 64, 18
1, 201668, Control_c, 0, 64, 17
1, 201683, Control_c, 0, 64, 16
1, 201687, Note_on_c, 0, 46, 72
1, 201692, Note_on_c, 0, 38, 59
1, 201692, Note_on_c, 0, 41, 54
1, 201694, Note_on_c, 0, 56, 68
1, 201697, Note_off_c, 0, 58, 64
1, 201713, Note_off_c, 0, 46, 67
1, 201713, Control_c, 0, 64, 17
1, 201722, Note_on_c, 0, 55, 70
1, 201725, Note_off_c, 0, 38, 65
1, 201725, Note_off_c, 0, 41, 65
1, 201726, Note_off_c, 0, 56, 66
1, 201728, Control_c, 0, 64, 18
1, 201758, Control_c, 0, 64, 17
1, 201788, Control_c, 0, 64, 18
1, 201790, Note_off_c, 0, 55, 63
1, 201794, Note_on_c, 0, 56, 80
1, 201802, Control_c, 0, 64, 19
1, 201832, Control_c, 0, 64, 17
1, 201845, Note_on_c, 0, 55, 84
1, 201847, Control_c, 0, 64, 16
1, 201862, Control_c, 0, 64, 15
1, 201868, Note_off_c, 0, 56, 63
1, 201877, Control_c, 0, 64, 15
1, 201906, Control_c, 0, 64, 16
1, 201910, Note_off_c, 0, 55, 63
1, 201921, Control_c, 0, 64, 17
1, 201936, Control_c, 0, 64, 17
1, 201965, Control_c, 0, 64, 17
1, 201980, Control_c, 0, 64, 16
1, 201995, Control_c, 0, 64, 15
1, 201996, Note_on_c, 0, 46, 62
1, 202001, Note_on_c, 0, 39, 57
1, 202003, Note_on_c, 0, 43, 48
1, 202009, Control_c, 0, 64, 15
1, 202024, Control_c, 0, 64, 18
1, 202027, Note_off_c, 0, 46, 65
1, 202029, Note_off_c, 0, 43, 53
1, 202034, Note_off_c, 0, 39, 67
1, 202039, Control_c, 0, 64, 23
1, 202054, Control_c, 0, 64, 27
1, 202069, Control_c, 0, 64, 26
1, 202083, Control_c, 0, 64, 24
1, 202098, Control_c, 0, 64, 21
1, 202113, Control_c, 0, 64, 19
1, 202128, Control_c, 0, 64, 20
1, 202143, Control_c, 0, 64, 21
1, 202150, Note_on_c, 0, 68, 58
1, 202172, Control_c, 0, 64, 21
1, 202175, Note_off_c, 0, 68, 63
1, 202187, Control_c, 0, 64, 20
1, 202207, Note_on_c, 0, 70, 63
1, 202217, Control_c, 0, 64, 21
1, 202232, Control_c, 0, 64, 22
1, 202253, Note_on_c, 0, 68, 57
1, 202256, Note_off_c, 0, 70, 57
1, 202272, Note_on_c, 0, 46, 49
1, 202290, Note_off_c, 0, 68, 66
1, 202297, Note_on_c, 0, 38, 21
1, 202297, Note_on_c, 0, 41, 37
1, 202308, Note_off_c, 0, 46, 61
1, 202312, Note_on_c, 0, 67, 50
1, 202323, Note_off_c, 0, 41, 46
1, 202332, Note_off_c, 0, 38, 32
1, 202345, Note_off_c, 0, 67, 53
1, 202368, Note_on_c, 0, 68, 61
1, 202403, Control_c, 0, 64, 23
1, 202408, Note_off_c, 0, 68, 61
1, 202417, Note_on_c, 0, 67, 68
1, 202443, Note_off_c, 0, 67, 68
1, 202447, Control_c, 0, 64, 22
1, 202462, Control_c, 0, 64, 21
1, 202536, Control_c, 0, 64, 20
1, 202572, Note_on_c, 0, 46, 65
1, 202580, Note_on_c, 0, 43, 59
1, 202581, Control_c, 0, 64, 21
1, 202582, Note_on_c, 0, 39, 56
1, 202604, Note_off_c, 0, 43, 59
1, 202604, Note_off_c, 0, 46, 65
1, 202617, Note_off_c, 0, 39, 65
1, 202685, Control_c, 0, 64, 22
1, 202718, Note_on_c, 0, 56, 83
1, 202758, Control_c, 0, 64, 23
1, 202771, Note_off_c, 0, 56, 64
1, 202773, Control_c, 0, 64, 25
1, 202777, Note_on_c, 0, 58, 71
1, 202788, Control_c, 0, 64, 26
1, 202803, Control_c, 0, 64, 27
1, 202833, Control_c, 0, 64, 28
1, 202846, Note_on_c, 0, 56, 66
1, 202847, Note_on_c, 0, 46, 69
1, 202848, Control_c, 0, 64, 31
1, 202854, Note_on_c, 0, 38, 56
1, 202855, Note_off_c, 0, 58, 63
1, 202858, Note_on_c, 0, 41, 56
1, 202863, Control_c, 0, 64, 35
1, 202876, Note_off_c, 0, 46, 66
1, 202878, Control_c, 0, 64, 39
1, 202881, Note_on_c, 0, 55, 73
1, 202882, Note_off_c, 0, 38, 62
1, 202885, Note_off_c, 0, 41, 57
1, 202886, Note_off_c, 0, 56, 63
1, 202893, Control_c, 0, 64, 42
1, 202907, Control_c, 0, 64, 43
1, 202922, Control_c, 0, 64, 44
1, 202941, Note_on_c, 0, 56, 73
1, 202943, Note_off_c, 0, 55, 60
1, 202966, Control_c, 0, 64, 43
1, 202981, Control_c, 0, 64, 42
1, 202994, Note_on_c, 0, 55, 84
1, 202996, Control_c, 0, 64, 38
1, 203011, Control_c, 0, 64, 36
1, 203022, Note_off_c, 0, 56, 64
1, 203026, Control_c, 0, 64, 35
1, 203048, Control_c, 0, 64, 34
1, 203063, Control_c, 0, 64, 35
1, 203078, Control_c, 0, 64, 35
1, 203093, Control_c, 0, 64, 36
1, 203108, Control_c, 0, 64, 36
1, 203112, Note_off_c, 0, 55, 62
1, 203123, Control_c, 0, 64, 36
1, 203138, Control_c, 0, 64, 35
1, 203153, Control_c, 0, 64, 33
1, 203168, Control_c, 0, 64, 33
1, 203174, Note_on_c, 0, 43, 53
1, 203174, Note_on_c, 0, 46, 52
1, 203176, Note_on_c, 0, 39, 55
1, 203183, Control_c, 0, 64, 35
1, 203197, Control_c, 0, 64, 35
1, 203206, Note_off_c, 0, 43, 64
1, 203206, Note_off_c, 0, 46, 61
1, 203212, Control_c, 0, 64, 34
1, 203215, Note_off_c, 0, 39, 62
1, 203227, Control_c, 0, 64, 32
1, 203242, Control_c, 0, 64, 30
1, 203330, Note_on_c, 0, 68, 57
1, 203330, Control_c, 0, 64, 31
1, 203345, Control_c, 0, 64, 31
1, 203360, Note_off_c, 0, 68, 65
1, 203374, Note_on_c, 0, 70, 63
1, 203436, Note_off_c, 0, 70, 58
1, 203439, Note_on_c, 0, 68, 63
1, 203440, Note_on_c, 0, 46, 54
1, 203451, Note_on_c, 0, 38, 42
1, 203452, Note_on_c, 0, 41, 46
1, 203463, Control_c, 0, 64, 32
1, 203466, Note_off_c, 0, 68, 67
1, 203471, Note_off_c, 0, 46, 63
1, 203476, Note_off_c, 0, 38, 52
1, 203477, Note_off_c, 0, 41, 54
1, 203478, Note_on_c, 0, 67, 58
1, 203493, Control_c, 0, 64, 31
1, 203508, Control_c, 0, 64, 31
1, 203509, Note_off_c, 0, 67, 65
1, 203523, Control_c, 0, 64, 31
1, 203537, Control_c, 0, 64, 32
1, 203545, Note_on_c, 0, 68, 58
1, 203581, Note_on_c, 0, 67, 73
1, 203582, Note_off_c, 0, 68, 62
1, 203611, Control_c, 0, 64, 32
1, 203612, Note_off_c, 0, 67, 65
1, 203670, Control_c, 0, 64, 33
1, 203700, Control_c, 0, 64, 33
1, 203740, Note_on_c, 0, 46, 50
1, 203748, Note_on_c, 0, 43, 44
1, 203749, Note_on_c, 0, 39, 44
1, 203759, Control_c, 0, 64, 33
1, 203765, Note_off_c, 0, 46, 55
1, 203774, Note_off_c, 0, 43, 49
1, 203774, Control_c, 0, 64, 32
1, 203785, Note_off_c, 0, 39, 57
1, 203796, Control_c, 0, 64, 32
1, 203894, Note_on_c, 0, 56, 58
1, 203928, Note_off_c, 0, 56, 65
1, 203962, Note_on_c, 0, 58, 49
1, 203975, Control_c, 0, 64, 32
1, 204006, Note_on_c, 0, 56, 62
1, 204008, Note_off_c, 0, 58, 59
1, 204017, Note_on_c, 0, 46, 52
1, 204026, Note_on_c, 0, 41, 45
1, 204040, Note_off_c, 0, 56, 63
1, 204041, Note_off_c, 0, 46, 57
1, 204051, Note_off_c, 0, 41, 50
1, 204062, Note_on_c, 0, 38, 3
1, 204071, Note_on_c, 0, 55, 43
1, 204079, Control_c, 0, 64, 33
1, 204101, Note_off_c, 0, 38, 26
1, 204102, Note_off_c, 0, 55, 53
1, 204108, Control_c, 0, 64, 32
1, 204124, Note_on_c, 0, 56, 56
1, 204176, Note_off_c, 0, 56, 60
1, 204186, Note_on_c, 0, 46, 44
1, 204198, Note_on_c, 0, 39, 55
1, 204199, Note_on_c, 0, 43, 46
1, 204202, Note_on_c, 0, 55, 62
1, 204211, Note_off_c, 0, 46, 58
1, 204226, Note_off_c, 0, 39, 58
1, 204229, Note_off_c, 0, 43, 35
1, 204241, Control_c, 0, 64, 32
1, 204253, Note_off_c, 0, 55, 57
1, 204271, Control_c, 0, 64, 31
1, 204286, Control_c, 0, 64, 32
1, 204300, Note_on_c, 0, 51, 66
1, 204330, Control_c, 0, 64, 31
1, 204333, Note_off_c, 0, 51, 62
1, 204345, Control_c, 0, 64, 30
1, 204360, Control_c, 0, 64, 29
1, 204405, Note_on_c, 0, 46, 64
1, 204434, Control_c, 0, 64, 28
1, 204438, Note_off_c, 0, 46, 66
1, 204449, Control_c, 0, 64, 27
1, 204478, Control_c, 0, 64, 28
1, 204485, Note_on_c, 0, 51, 61
1, 204508, Control_c, 0, 64, 27
1, 204535, Note_off_c, 0, 51, 60
1, 204580, Note_on_c, 0, 55, 58
1, 204590, Control_c, 0, 64, 27
1, 204649, Control_c, 0, 64, 27
1, 204652, Note_on_c, 0, 51, 61
1, 204652, Note_off_c, 0, 55, 48
1, 204664, Control_c, 0, 64, 27
1, 204697, Note_off_c, 0, 51, 62
1, 204715, Note_on_c, 0, 58, 62
1, 204751, Note_off_c, 0, 58, 65
1, 204801, Note_on_c, 0, 55, 60
1, 204828, Control_c, 0, 64, 26
1, 204838, Note_off_c, 0, 55, 60
1, 204842, Control_c, 0, 64, 26
1, 204872, Control_c, 0, 64, 25
1, 204876, Note_on_c, 0, 63, 58
1, 204887, Control_c, 0, 64, 25
1, 204955, Note_on_c, 0, 58, 59
1, 204975, Control_c, 0, 64, 25
1, 204998, Note_off_c, 0, 58, 61
1, 205001, Note_off_c, 0, 63, 32
1, 205022, Note_on_c, 0, 67, 58
1, 205079, Control_c, 0, 64, 26
1, 205084, Note_off_c, 0, 67, 56
1, 205094, Control_c, 0, 64, 26
1, 205096, Note_on_c, 0, 63, 60
1, 205108, Control_c, 0, 64, 27
1, 205123, Control_c, 0, 64, 27
1, 205153, Control_c, 0, 64, 27
1, 205180, Note_on_c, 0, 58, 55
1, 205181, Note_off_c, 0, 63, 57
1, 205227, Note_off_c, 0, 58, 58
1, 205242, Control_c, 0, 64, 26
1, 205242, Note_on_c, 0, 55, 60
1, 205257, Control_c, 0, 64, 25
1, 205287, Note_off_c, 0, 55, 64
1, 205308, Control_c, 0, 64, 25
1, 205323, Note_on_c, 0, 63, 60
1, 205338, Control_c, 0, 64, 24
1, 205354, Note_off_c, 0, 63, 65
1, 205368, Control_c, 0, 64, 25
1, 205383, Control_c, 0, 64, 26
1, 205405, Note_on_c, 0, 58, 56
1, 205442, Note_off_c, 0, 58, 62
1, 205481, Note_on_c, 0, 67, 61
1, 205502, Control_c, 0, 64, 26
1, 205532, Control_c, 0, 64, 26
1, 205551, Note_off_c, 0, 67, 51
1, 205552, Note_on_c, 0, 63, 57
1, 205602, Note_off_c, 0, 63, 55
1, 205615, Note_on_c, 0, 70, 60
1, 205621, Control_c, 0, 64, 27
1, 205665, Control_c, 0, 64, 26
1, 205687, Note_off_c, 0, 70, 59
1, 205695, Note_on_c, 0, 67, 54
1, 205695, Control_c, 0, 64, 27
1, 205739, Control_c, 0, 64, 27
1, 205758, Note_on_c, 0, 63, 57
1, 205775, Note_off_c, 0, 67, 60
1, 205809, Note_off_c, 0, 63, 54
1, 205824, Note_on_c, 0, 58, 61
1, 205871, Note_off_c, 0, 58, 57
1, 205903, Note_on_c, 0, 67, 65
1, 205971, Note_on_c, 0, 63, 58
1, 206021, Control_c, 0, 64, 27
1, 206042, Note_off_c, 0, 67, 29
1, 206052, Note_on_c, 0, 70, 67
1, 206054, Note_off_c, 0, 63, 61
1, 206073, Control_c, 0, 64, 28
1, 206088, Control_c, 0, 64, 28
1, 206092, Note_off_c, 0, 70, 60
1, 206103, Control_c, 0, 64, 29
1, 206117, Control_c, 0, 64, 30
1, 206135, Note_on_c, 0, 67, 67
1, 206202, Note_on_c, 0, 75, 68
1, 206208, Note_off_c, 0, 67, 38
1, 206221, Control_c, 0, 64, 29
1, 206274, Note_off_c, 0, 75, 56
1, 206278, Note_on_c, 0, 70, 68
1, 206326, Control_c, 0, 64, 29
1, 206340, Note_on_c, 0, 67, 66
1, 206374, Note_off_c, 0, 70, 60
1, 206385, Control_c, 0, 64, 28
1, 206413, Note_off_c, 0, 67, 52
1, 206414, Control_c, 0, 64, 29
1, 206425, Note_on_c, 0, 63, 64
1, 206459, Note_off_c, 0, 63, 61
1, 206504, Note_on_c, 0, 70, 58
1, 206548, Note_on_c, 0, 67, 64
1, 206616, Note_off_c, 0, 67, 61
1, 206623, Note_off_c, 0, 70, 53
1, 206631, Note_on_c, 0, 75, 70
1, 206637, Control_c, 0, 64, 29
1, 206652, Control_c, 0, 64, 30
1, 206664, Note_off_c, 0, 75, 64
1, 206681, Control_c, 0, 64, 30
1, 206726, Note_on_c, 0, 70, 63
1, 206755, Note_off_c, 0, 70, 65
1, 206792, Control_c, 0, 64, 29
1, 206798, Note_on_c, 0, 79, 63
1, 206861, Note_on_c, 0, 75, 67
1, 206867, Control_c, 0, 64, 29
1, 206881, Control_c, 0, 64, 28
1, 206923, Note_off_c, 0, 75, 62
1, 206927, Note_off_c, 0, 79, 29
1, 206936, Note_on_c, 0, 82, 74
1, 206940, Control_c, 0, 64, 27
1, 206955, Control_c, 0, 64, 26
1, 206957, Note_off_c, 0, 82, 69
1, 206970, Control_c, 0, 64, 26
1, 207014, Control_c, 0, 64, 24
1, 207029, Control_c, 0, 64, 23
1, 207044, Control_c, 0, 64, 22
1, 207058, Control_c, 0, 64, 23
1, 207073, Control_c, 0, 64, 23
1, 207108, Note_on_c, 0, 70, 63
1, 207119, Control_c, 0, 64, 24
1, 207123, Note_on_c, 0, 58, 47
1, 207134, Control_c, 0, 64, 25
1, 207135, Note_off_c, 0, 70, 64
1, 207149, Note_off_c, 0, 58, 58
1, 207163, Control_c, 0, 64, 24
1, 207178, Control_c, 0, 64, 22
1, 207252, Control_c, 0, 64, 21
1, 207269, Note_on_c, 0, 63, 56
1, 207269, Note_on_c, 0, 75, 68
1, 207293, Note_off_c, 0, 75, 69
1, 207299, Note_off_c, 0, 63, 65
1, 207370, Control_c, 0, 64, 22
1, 207385, Control_c, 0, 64, 23
1, 207421, Note_on_c, 0, 79, 66
1, 207430, Note_on_c, 0, 67, 49
1, 207447, Note_off_c, 0, 79, 66
1, 207454, Note_off_c, 0, 67, 56
1, 207588, Note_on_c, 0, 82, 69
1, 207588, Note_on_c, 0, 70, 65
1, 207608, Note_off_c, 0, 70, 65
1, 207612, Note_off_c, 0, 82, 70
1, 207615, Control_c, 0, 64, 21
1, 207629, Control_c, 0, 64, 20
1, 207644, Control_c, 0, 64, 18
1, 207659, Control_c, 0, 64, 18
1, 207703, Control_c, 0, 64, 17
1, 207751, Note_on_c, 0, 58, 69
1, 207762, Control_c, 0, 64, 16
1, 207777, Note_off_c, 0, 58, 66
1, 207822, Control_c, 0, 64, 17
1, 207916, Note_on_c, 0, 63, 71
1, 207926, Control_c, 0, 64, 18
1, 207942, Note_off_c, 0, 63, 66
1, 207956, Control_c, 0, 64, 17
1, 207985, Control_c, 0, 64, 18
1, 208000, Control_c, 0, 64, 19
1, 208067, Note_on_c, 0, 67, 69
1, 208097, Note_off_c, 0, 67, 60
1, 208208, Control_c, 0, 64, 18
1, 208229, Note_on_c, 0, 70, 62
1, 208252, Control_c, 0, 64, 18
1, 208258, Note_off_c, 0, 70, 65
1, 208267, Control_c, 0, 64, 17
1, 208289, Control_c, 0, 64, 17
1, 208304, Control_c, 0, 64, 17
1, 208319, Control_c, 0, 64, 18
1, 208393, Control_c, 0, 64, 19
1, 208405, Note_on_c, 0, 46, 63
1, 208408, Control_c, 0, 64, 20
1, 208409, Note_on_c, 0, 34, 60
1, 208435, Note_off_c, 0, 46, 66
1, 208449, Note_off_c, 0, 34, 62
1, 208497, Control_c, 0, 64, 20
1, 208557, Note_on_c, 0, 51, 60
1, 208557, Note_on_c, 0, 39, 64
1, 208571, Control_c, 0, 64, 19
1, 208585, Control_c, 0, 64, 18
1, 208588, Note_off_c, 0, 39, 68
1, 208596, Note_off_c, 0, 51, 64
1, 208615, Control_c, 0, 64, 19
1, 208708, Note_on_c, 0, 43, 64
1, 208711, Note_on_c, 0, 55, 66
1, 208720, Control_c, 0, 64, 19
1, 208734, Control_c, 0, 64, 20
1, 208735, Note_off_c, 0, 43, 66
1, 208739, Note_off_c, 0, 55, 66
1, 208864, Note_on_c, 0, 58, 75
1, 208872, Note_on_c, 0, 46, 68
1, 208889, Note_off_c, 0, 58, 66
1, 208911, Note_off_c, 0, 46, 62
1, 208927, Control_c, 0, 64, 19
1, 209007, Note_on_c, 0, 63, 72
1, 209013, Note_on_c, 0, 51, 61
1, 209016, Control_c, 0, 64, 20
1, 209055, Note_off_c, 0, 51, 62
1, 209058, Note_off_c, 0, 63, 60
1, 209112, Control_c, 0, 64, 20
1, 209141, Control_c, 0, 64, 21
1, 209161, Note_on_c, 0, 55, 70
1, 209165, Note_on_c, 0, 67, 79
1, 209190, Note_off_c, 0, 55, 65
1, 209194, Note_off_c, 0, 67, 68
1, 209201, Control_c, 0, 64, 22
1, 209216, Control_c, 0, 64, 23
1, 209231, Control_c, 0, 64, 23
1, 209246, Control_c, 0, 64, 23
1, 209290, Control_c, 0, 64, 24
1, 209320, Control_c, 0, 64, 24
1, 209320, Note_on_c, 0, 70, 82
1, 209327, Note_on_c, 0, 58, 64
1, 209351, Note_off_c, 0, 70, 63
1, 209363, Note_off_c, 0, 58, 63
1, 209408, Control_c, 0, 64, 24
1, 209470, Note_on_c, 0, 75, 83
1, 209472, Note_on_c, 0, 63, 61
1, 209508, Note_off_c, 0, 63, 61
1, 209513, Control_c, 0, 64, 24
1, 209515, Note_off_c, 0, 75, 65
1, 209528, Control_c, 0, 64, 26
1, 209543, Control_c, 0, 64, 27
1, 209588, Control_c, 0, 64, 26
1, 209603, Control_c, 0, 64, 27
1, 209618, Control_c, 0, 64, 27
1, 209624, Note_on_c, 0, 79, 79
1, 209626, Note_on_c, 0, 67, 60
1, 209652, Note_off_c, 0, 79, 66
1, 209656, Note_off_c, 0, 67, 67
1, 209662, Control_c, 0, 64, 27
1, 209706, Control_c, 0, 64, 28
1, 209721, Control_c, 0, 64, 28
1, 209736, Control_c, 0, 64, 28
1, 209750, Control_c, 0, 64, 27
1, 209800, Note_on_c, 0, 70, 55
1, 209800, Note_on_c, 0, 82, 69
1, 209803, Control_c, 0, 64, 28
1, 209821, Note_off_c, 0, 70, 61
1, 209824, Note_off_c, 0, 82, 68
1, 209847, Control_c, 0, 64, 27
1, 209906, Control_c, 0, 64, 26
1, 209921, Control_c, 0, 64, 24
1, 209936, Control_c, 0, 64, 22
1, 209965, Control_c, 0, 64, 22
1, 209980, Control_c, 0, 64, 23
1, 209994, Note_on_c, 0, 81, 55
1, 210039, Control_c, 0, 64, 23
1, 210054, Control_c, 0, 64, 24
1, 210128, Control_c, 0, 64, 24
1, 210143, Control_c, 0, 64, 26
1, 210157, Note_off_c, 0, 81, 35
1, 210167, Note_on_c, 0, 84, 55
1, 210173, Control_c, 0, 64, 25
1, 210188, Control_c, 0, 64, 25
1, 210197, Note_off_c, 0, 84, 67
1, 210218, Control_c, 0, 64, 26
1, 210262, Control_c, 0, 64, 25
1, 210291, Control_c, 0, 64, 26
1, 210307, Control_c, 0, 64, 26
1, 210337, Control_c, 0, 64, 26
1, 210340, Note_on_c, 0, 82, 59
1, 210367, Control_c, 0, 64, 26
1, 210370, Note_off_c, 0, 82, 66
1, 210411, Control_c, 0, 64, 26
1, 210426, Control_c, 0, 64, 25
1, 210441, Control_c, 0, 64, 26
1, 210455, Control_c, 0, 64, 27
1, 210490, Note_on_c, 0, 80, 61
1, 210515, Note_off_c, 0, 80, 64
1, 210536, Control_c, 0, 64, 27
1, 210581, Control_c, 0, 64, 27
1, 210611, Control_c, 0, 64, 27
1, 210626, Control_c, 0, 64, 28
1, 210655, Control_c, 0, 64, 27
1, 210657, Note_on_c, 0, 79, 60
1, 210686, Note_off_c, 0, 79, 66
1, 210729, Control_c, 0, 64, 27
1, 210759, Control_c, 0, 64, 27
1, 210773, Control_c, 0, 64, 28
1, 210823, Note_on_c, 0, 77, 59
1, 210892, Control_c, 0, 64, 27
1, 210906, Control_c, 0, 64, 28
1, 210921, Control_c, 0, 64, 28
1, 210927, Note_off_c, 0, 77, 49
1, 210939, Note_on_c, 0, 79, 52
1, 210984, Note_off_c, 0, 79, 57
1, 210988, Note_on_c, 0, 58, 48
1, 210996, Control_c, 0, 64, 29
1, 211010, Control_c, 0, 64, 29
1, 211014, Note_off_c, 0, 58, 60
1, 211022, Note_on_c, 0, 77, 38
1, 211053, Note_off_c, 0, 77, 51
1, 211066, Note_on_c, 0, 79, 50
1, 211085, Control_c, 0, 64, 29
1, 211103, Note_off_c, 0, 79, 58
1, 211126, Note_on_c, 0, 77, 64
1, 211130, Control_c, 0, 64, 28
1, 211145, Note_on_c, 0, 62, 56
1, 211159, Note_off_c, 0, 77, 60
1, 211160, Control_c, 0, 64, 29
1, 211179, Note_off_c, 0, 62, 64
1, 211187, Note_on_c, 0, 79, 48
1, 211204, Control_c, 0, 64, 28
1, 211220, Note_off_c, 0, 79, 53
1, 211248, Control_c, 0, 64, 29
1, 211250, Note_on_c, 0, 77, 63
1, 211285, Control_c, 0, 64, 28
1, 211289, Note_off_c, 0, 77, 62
1, 211297, Note_on_c, 0, 65, 60
1, 211313, Note_on_c, 0, 79, 61
1, 211326, Note_off_c, 0, 65, 67
1, 211329, Control_c, 0, 64, 29
1, 211344, Control_c, 0, 64, 29
1, 211353, Note_off_c, 0, 79, 56
1, 211383, Note_on_c, 0, 77, 66
1, 211389, Control_c, 0, 64, 29
1, 211422, Note_off_c, 0, 77, 55
1, 211448, Note_on_c, 0, 68, 68
1, 211448, Control_c, 0, 64, 28
1, 211450, Note_on_c, 0, 79, 57
1, 211463, Control_c, 0, 64, 28
1, 211475, Note_off_c, 0, 68, 66
1, 211493, Control_c, 0, 64, 28
1, 211495, Note_off_c, 0, 79, 59
1, 211526, Note_on_c, 0, 77, 61
1, 211552, Control_c, 0, 64, 29
1, 211560, Note_off_c, 0, 77, 62
1, 211567, Control_c, 0, 64, 30
1, 211580, Note_on_c, 0, 79, 62
1, 211597, Note_on_c, 0, 46, 72
1, 211628, Note_off_c, 0, 46, 64
1, 211628, Note_off_c, 0, 79, 55
1, 211654, Note_on_c, 0, 77, 64
1, 211670, Control_c, 0, 64, 29
1, 211685, Control_c, 0, 64, 29
1, 211694, Note_off_c, 0, 77, 57
1, 211715, Control_c, 0, 64, 29
1, 211717, Note_on_c, 0, 79, 52
1, 211753, Note_on_c, 0, 50, 69
1, 211758, Note_off_c, 0, 79, 60
1, 211759, Control_c, 0, 64, 29
1, 211788, Note_on_c, 0, 77, 69
1, 211788, Note_off_c, 0, 50, 64
1, 211788, Control_c, 0, 64, 29
1, 211818, Control_c, 0, 64, 29
1, 211825, Note_off_c, 0, 77, 55
1, 211833, Control_c, 0, 64, 28
1, 211845, Note_on_c, 0, 79, 60
1, 211847, Control_c, 0, 64, 27
1, 211877, Control_c, 0, 64, 27
1, 211894, Note_off_c, 0, 79, 59
1, 211908, Control_c, 0, 64, 27
1, 211908, Note_on_c, 0, 53, 71
1, 211917, Note_on_c, 0, 77, 71
1, 211938, Control_c, 0, 64, 27
1, 211945, Note_off_c, 0, 53, 63
1, 211952, Control_c, 0, 64, 28
1, 211954, Note_off_c, 0, 77, 55
1, 211964, Note_on_c, 0, 79, 57
1, 211982, Control_c, 0, 64, 27
1, 212012, Control_c, 0, 64, 28
1, 212025, Note_off_c, 0, 79, 55
1, 212048, Control_c, 0, 64, 28
1, 212051, Note_on_c, 0, 77, 68
1, 212069, Note_on_c, 0, 56, 69
1, 212093, Note_off_c, 0, 77, 58
1, 212101, Note_off_c, 0, 56, 66
1, 212104, Note_on_c, 0, 79, 59
1, 212107, Control_c, 0, 64, 29
1, 212137, Control_c, 0, 64, 28
1, 212151, Note_off_c, 0, 79, 56
1, 212179, Note_on_c, 0, 77, 67
1, 212216, Note_on_c, 0, 47, 68
1, 212223, Note_off_c, 0, 77, 58
1, 212234, Note_on_c, 0, 79, 61
1, 212250, Note_off_c, 0, 47, 64
1, 212256, Control_c, 0, 64, 29
1, 212270, Control_c, 0, 64, 29
1, 212278, Note_off_c, 0, 79, 55
1, 212285, Control_c, 0, 64, 29
1, 212300, Control_c, 0, 64, 28
1, 212310, Note_on_c, 0, 77, 66
1, 212330, Control_c, 0, 64, 29
1, 212344, Note_off_c, 0, 77, 59
1, 212361, Note_on_c, 0, 79, 54
1, 212378, Note_on_c, 0, 50, 57
1, 212389, Control_c, 0, 64, 28
1, 212410, Note_off_c, 0, 79, 55
1, 212411, Note_off_c, 0, 50, 64
1, 212418, Control_c, 0, 64, 29
1, 212437, Note_on_c, 0, 77, 68
1, 212448, Control_c, 0, 64, 28
1, 212471, Note_off_c, 0, 77, 58
1, 212492, Note_on_c, 0, 79, 48
1, 212507, Control_c, 0, 64, 29
1, 212530, Note_on_c, 0, 53, 55
1, 212537, Control_c, 0, 64, 28
1, 212543, Note_off_c, 0, 79, 57
1, 212564, Note_on_c, 0, 77, 67
1, 212566, Note_off_c, 0, 53, 63
1, 212582, Control_c, 0, 64, 29
1, 212603, Note_off_c, 0, 77, 55
1, 212621, Note_on_c, 0, 79, 52
1, 212626, Control_c, 0, 64, 28
1, 212656, Control_c, 0, 64, 29
1, 212674, Note_off_c, 0, 79, 54
1, 212686, Note_on_c, 0, 56, 54
1, 212701, Note_on_c, 0, 77, 68
1, 212716, Control_c, 0, 64, 28
1, 212719, Note_off_c, 0, 56, 62
1, 212736, Note_off_c, 0, 77, 57
1, 212746, Control_c, 0, 64, 29
1, 212754, Note_on_c, 0, 79, 50
1, 212783, Control_c, 0, 64, 28
1, 212798, Control_c, 0, 64, 27
1, 212809, Note_off_c, 0, 79, 57
1, 212827, Control_c, 0, 64, 28
1, 212834, Note_on_c, 0, 77, 69
1, 212838, Note_on_c, 0, 46, 56
1, 212842, Control_c, 0, 64, 28
1, 212857, Control_c, 0, 64, 28
1, 212871, Note_off_c, 0, 46, 66
1, 212872, Note_off_c, 0, 77, 56
1, 212872, Control_c, 0, 64, 27
1, 212885, Note_on_c, 0, 79, 54
1, 212901, Control_c, 0, 64, 28
1, 212916, Control_c, 0, 64, 28
1, 212931, Note_off_c, 0, 79, 56
1, 212962, Note_on_c, 0, 77, 65
1, 212985, Note_on_c, 0, 50, 64
1, 212994, Note_off_c, 0, 77, 60
1, 213014, Note_on_c, 0, 79, 55
1, 213024, Note_off_c, 0, 50, 61
1, 213054, Note_off_c, 0, 79, 59
1, 213084, Note_on_c, 0, 77, 69
1, 213122, Note_off_c, 0, 77, 58
1, 213124, Control_c, 0, 64, 28
1, 213136, Note_on_c, 0, 53, 66
1, 213138, Note_on_c, 0, 79, 59
1, 213167, Note_off_c, 0, 53, 64
1, 213179, Note_off_c, 0, 79, 57
1, 213213, Note_on_c, 0, 77, 66
1, 213247, Note_off_c, 0, 77, 59
1, 213261, Note_on_c, 0, 79, 59
1, 213281, Note_on_c, 0, 56, 69
1, 213300, Note_off_c, 0, 79, 56
1, 213301, Control_c, 0, 64, 28
1, 213308, Note_off_c, 0, 56, 66
1, 213338, Note_on_c, 0, 77, 66
1, 213371, Note_off_c, 0, 77, 60
1, 213385, Note_on_c, 0, 79, 64
1, 213422, Note_off_c, 0, 79, 55
1, 213434, Note_on_c, 0, 58, 66
1, 213464, Note_on_c, 0, 77, 66
1, 213468, Note_off_c, 0, 58, 61
1, 213495, Note_off_c, 0, 77, 64
1, 213520, Note_on_c, 0, 79, 62
1, 213547, Control_c, 0, 64, 29
1, 213557, Note_off_c, 0, 79, 59
1, 213591, Note_on_c, 0, 62, 61
1, 213593, Note_on_c, 0, 77, 66
1, 213606, Control_c, 0, 64, 29
1, 213625, Note_off_c, 0, 62, 63
1, 213631, Note_off_c, 0, 77, 58
1, 213636, Control_c, 0, 64, 30
1, 213646, Note_on_c, 0, 79, 64
1, 213682, Note_off_c, 0, 79, 57
1, 213695, Control_c, 0, 64, 30
1, 213710, Control_c, 0, 64, 31
1, 213720, Note_on_c, 0, 77, 65
1, 213724, Control_c, 0, 64, 33
1, 213729, Note_on_c, 0, 65, 62
1, 213739, Control_c, 0, 64, 34
1, 213753, Note_off_c, 0, 77, 61
1, 213760, Note_off_c, 0, 65, 65
1, 213782, Note_on_c, 0, 79, 57
1, 213798, Control_c, 0, 64, 36
1, 213813, Note_off_c, 0, 79, 54
1, 213813, Control_c, 0, 64, 38
1, 213845, Note_on_c, 0, 77, 68
1, 213857, Control_c, 0, 64, 38
1, 213868, Note_on_c, 0, 68, 63
1, 213871, Note_off_c, 0, 77, 67
1, 213872, Control_c, 0, 64, 39
1, 213887, Control_c, 0, 64, 41
1, 213895, Note_off_c, 0, 68, 66
1, 213899, Note_on_c, 0, 79, 51
1, 213917, Control_c, 0, 64, 40
1, 213921, Note_off_c, 0, 79, 57
1, 213942, Note_on_c, 0, 77, 65
1, 213947, Control_c, 0, 64, 41
1, 213967, Note_off_c, 0, 77, 67
1, 213991, Control_c, 0, 64, 40
1, 214003, Note_on_c, 0, 58, 53
1, 214016, Note_on_c, 0, 79, 11
1, 214036, Note_off_c, 0, 58, 63
1, 214043, Note_on_c, 0, 77, 51
1, 214050, Control_c, 0, 64, 40
1, 214052, Note_on_c, 0, 76, 65
1, 214065, Control_c, 0, 64, 39
1, 214066, Note_off_c, 0, 79, 28
1, 214078, Note_off_c, 0, 77, 47
1, 214080, Control_c, 0, 64, 38
1, 214088, Note_off_c, 0, 76, 60
1, 214117, Note_on_c, 0, 77, 60
1, 214124, Control_c, 0, 64, 37
1, 214139, Control_c, 0, 64, 36
1, 214154, Control_c, 0, 64, 35
1, 214168, Control_c, 0, 64, 34
1, 214181, Note_on_c, 0, 68, 54
1, 214183, Control_c, 0, 64, 34
1, 214193, Note_off_c, 0, 77, 59
1, 214198, Control_c, 0, 64, 33
1, 214201, Note_on_c, 0, 82, 61
1, 214209, Note_off_c, 0, 68, 64
1, 214220, Note_off_c, 0, 82, 64
1, 214228, Control_c, 0, 64, 32
1, 214242, Control_c, 0, 64, 29
1, 214257, Control_c, 0, 64, 26
1, 214280, Control_c, 0, 64, 24
1, 214325, Control_c, 0, 64, 23
1, 214340, Control_c, 0, 64, 23
1, 214355, Control_c, 0, 64, 22
1, 214370, Control_c, 0, 64, 21
1, 214386, Note_on_c, 0, 58, 45
1, 214407, Note_on_c, 0, 82, 60
1, 214419, Note_off_c, 0, 58, 60
1, 214435, Note_off_c, 0, 82, 68
1, 214444, Control_c, 0, 64, 20
1, 214473, Control_c, 0, 64, 19
1, 214488, Control_c, 0, 64, 18
1, 214503, Control_c, 0, 64, 13
1, 214518, Control_c, 0, 64, 0
1, 214626, Note_on_c, 0, 75, 56
1, 214636, Control_c, 0, 64, 19
1, 214644, Note_on_c, 0, 67, 28
1, 214648, Note_on_c, 0, 63, 31
1, 214651, Control_c, 0, 64, 32
1, 214665, Control_c, 0, 64, 44
1, 214680, Control_c, 0, 64, 52
1, 214695, Control_c, 0, 64, 56
1, 214708, Note_off_c, 0, 75, 58
1, 214710, Control_c, 0, 64, 58
1, 214725, Control_c, 0, 64, 59
1, 214740, Control_c, 0, 64, 60
1, 214754, Control_c, 0, 64, 61
1, 214769, Control_c, 0, 64, 63
1, 214784, Control_c, 0, 64, 64
1, 214797, Control_c, 0, 64, 64
1, 214827, Control_c, 0, 64, 65
1, 214841, Note_on_c, 0, 75, 51
1, 214846, Note_off_c, 0, 67, 51
1, 214857, Note_off_c, 0, 63, 41
1, 214901, Control_c, 0, 64, 64
1, 214916, Control_c, 0, 64, 64
1, 214931, Control_c, 0, 64, 62
1, 214945, Control_c, 0, 64, 60
1, 214960, Control_c, 0, 64, 57
1, 214975, Control_c, 0, 64, 53
1, 214976, Note_off_c, 0, 75, 55
1, 214990, Control_c, 0, 64, 49
1, 215001, Note_on_c, 0, 76, 59
1, 215005, Control_c, 0, 64, 44
1, 215027, Control_c, 0, 64, 39
1, 215042, Control_c, 0, 64, 33
1, 215057, Control_c, 0, 64, 25
1, 215071, Control_c, 0, 64, 15
1, 215086, Control_c, 0, 64, 0
1, 215170, Note_on_c, 0, 77, 63
1, 215217, Note_off_c, 0, 76, 33
1, 215336, Note_on_c, 0, 78, 67
1, 215419, Note_off_c, 0, 77, 34
1, 215506, Note_on_c, 0, 79, 66
1, 215533, Note_off_c, 0, 78, 59
1, 215744, Note_on_c, 0, 80, 64
1, 215768, Note_on_c, 0, 63, 38
1, 215774, Note_on_c, 0, 60, 41
1, 215783, Note_off_c, 0, 79, 59
1, 215984, Control_c, 0, 64, 17
1, 215999, Control_c, 0, 64, 35
1, 216014, Control_c, 0, 64, 47
1, 216029, Control_c, 0, 64, 55
1, 216043, Control_c, 0, 64, 58
1, 216058, Control_c, 0, 64, 60
1, 216073, Control_c, 0, 64, 62
1, 216088, Control_c, 0, 64, 64
1, 216103, Control_c, 0, 64, 66
1, 216117, Control_c, 0, 64, 68
1, 216132, Control_c, 0, 64, 71
1, 216147, Control_c, 0, 64, 75
1, 216161, Control_c, 0, 64, 79
1, 216176, Control_c, 0, 64, 83
1, 216191, Control_c, 0, 64, 87
1, 216206, Control_c, 0, 64, 90
1, 216221, Control_c, 0, 64, 94
1, 216236, Control_c, 0, 64, 98
1, 216251, Control_c, 0, 64, 104
1, 216266, Control_c, 0, 64, 107
1, 216281, Control_c, 0, 64, 109
1, 216293, Note_off_c, 0, 60, 39
1, 216296, Control_c, 0, 64, 110
1, 216311, Control_c, 0, 64, 110
1, 216325, Control_c, 0, 64, 112
1, 216340, Control_c, 0, 64, 114
1, 216359, Note_off_c, 0, 80, 34
1, 216409, Note_off_c, 0, 63, 33
1, 216615, Control_c, 0, 64, 113
1, 216644, Control_c, 0, 64, 112
1, 216659, Control_c, 0, 64, 112
1, 216674, Control_c, 0, 64, 111
1, 216689, Control_c, 0, 64, 109
1, 216704, Control_c, 0, 64, 107
1, 216719, Control_c, 0, 64, 105
1, 216734, Control_c, 0, 64, 104
1, 216736, Note_on_c, 0, 72, 47
1, 216749, Control_c, 0, 64, 101
1, 216755, Note_on_c, 0, 65, 34
1, 216759, Note_on_c, 0, 56, 39
1, 216761, Note_on_c, 0, 68, 39
1, 216764, Control_c, 0, 64, 96
1, 216779, Control_c, 0, 64, 90
1, 216793, Control_c, 0, 64, 85
1, 216808, Control_c, 0, 64, 80
1, 216823, Control_c, 0, 64, 75
1, 216838, Control_c, 0, 64, 69
1, 216853, Control_c, 0, 64, 63
1, 216867, Control_c, 0, 64, 54
1, 216882, Control_c, 0, 64, 46
1, 216897, Control_c, 0, 64, 36
1, 216912, Control_c, 0, 64, 23
1, 216927, Control_c, 0, 64, 0
1, 216956, Control_c, 0, 64, 12
1, 216971, Control_c, 0, 64, 33
1, 216985, Control_c, 0, 64, 49
1, 217000, Control_c, 0, 64, 59
1, 217015, Control_c, 0, 64, 64
1, 217030, Control_c, 0, 64, 67
1, 217045, Control_c, 0, 64, 71
1, 217059, Control_c, 0, 64, 76
1, 217074, Control_c, 0, 64, 83
1, 217089, Control_c, 0, 64, 91
1, 217104, Control_c, 0, 64, 99
1, 217118, Control_c, 0, 64, 107
1, 217133, Control_c, 0, 64, 119
1, 217148, Control_c, 0, 64, 127
1, 217187, Note_off_c, 0, 72, 50
1, 217202, Note_off_c, 0, 68, 41
1, 217266, Note_off_c, 0, 65, 40
1, 217278, Note_off_c, 0, 56, 48
1, 217557, Control_c, 0, 64, 111
1, 217571, Control_c, 0, 64, 104
1, 217586, Control_c, 0, 64, 97
1, 217601, Control_c, 0, 64, 91
1, 217616, Control_c, 0, 64, 86
1, 217631, Control_c, 0, 64, 80
1, 217646, Control_c, 0, 64, 74
1, 217655, Note_on_c, 0, 65, 28
1, 217655, Note_on_c, 0, 75, 45
1, 217657, Note_on_c, 0, 58, 39
1, 217661, Control_c, 0, 64, 69
1, 217676, Control_c, 0, 64, 65
1, 217689, Note_on_c, 0, 68, 20
1, 217690, Control_c, 0, 64, 60
1, 217705, Control_c, 0, 64, 57
1, 217720, Control_c, 0, 64, 53
1, 217734, Control_c, 0, 64, 49
1, 217745, Note_off_c, 0, 68, 42
1, 217749, Control_c, 0, 64, 45
1, 217764, Control_c, 0, 64, 41
1, 217779, Control_c, 0, 64, 36
1, 217793, Control_c, 0, 64, 32
1, 217807, Control_c, 0, 64, 28
1, 217822, Control_c, 0, 64, 27
1, 217832, Note_on_c, 0, 74, 46
1, 217837, Note_off_c, 0, 65, 41
1, 217841, Note_off_c, 0, 58, 36
1, 217875, Note_off_c, 0, 74, 61
1, 217888, Note_off_c, 0, 75, 44
1, 217896, Control_c, 0, 64, 27
1, 217926, Control_c, 0, 64, 26
1, 217986, Note_on_c, 0, 58, 35
1, 217990, Note_on_c, 0, 74, 58
1, 217994, Note_on_c, 0, 75, 56
1, 218004, Note_on_c, 0, 65, 28
1, 218028, Note_on_c, 0, 68, 34
1, 218067, Note_off_c, 0, 68, 49
1, 218086, Note_off_c, 0, 75, 37
1, 218146, Note_off_c, 0, 58, 45
1, 218155, Note_off_c, 0, 65, 48
1, 218165, Note_on_c, 0, 72, 52
1, 218186, Note_off_c, 0, 74, 31
1, 218208, Note_off_c, 0, 72, 60
1, 218309, Note_on_c, 0, 58, 41
1, 218314, Note_on_c, 0, 74, 58
1, 218314, Note_on_c, 0, 65, 39
1, 218320, Control_c, 0, 64, 26
1, 218329, Note_on_c, 0, 68, 50
1, 218389, Note_off_c, 0, 68, 49
1, 218394, Control_c, 0, 64, 24
1, 218409, Control_c, 0, 64, 22
1, 218424, Control_c, 0, 64, 19
1, 218438, Control_c, 0, 64, 10
1, 218453, Control_c, 0, 64, 0
1, 218475, Note_on_c, 0, 77, 61
1, 218475, Note_off_c, 0, 65, 56
1, 218477, Note_on_c, 0, 62, 44
1, 218490, Note_off_c, 0, 74, 27
1, 218501, Note_off_c, 0, 62, 53
1, 218511, Note_off_c, 0, 58, 38
1, 218513, Note_off_c, 0, 77, 57
1, 218601, Control_c, 0, 64, 37
1, 218616, Control_c, 0, 64, 52
1, 218630, Control_c, 0, 64, 60
1, 218645, Control_c, 0, 64, 64
1, 218655, Note_on_c, 0, 75, 57
1, 218660, Control_c, 0, 64, 66
1, 218668, Note_on_c, 0, 67, 45
1, 218675, Control_c, 0, 64, 68
1, 218680, Note_on_c, 0, 51, 51
1, 218688, Note_on_c, 0, 63, 38
1, 218689, Control_c, 0, 64, 74
1, 218703, Note_off_c, 0, 75, 56
1, 218704, Control_c, 0, 64, 81
1, 218719, Control_c, 0, 64, 89
1, 218725, Note_off_c, 0, 63, 50
1, 218726, Note_off_c, 0, 51, 62
1, 218734, Control_c, 0, 64, 95
1, 218740, Note_off_c, 0, 67, 52
1, 218749, Control_c, 0, 64, 101
1, 218771, Control_c, 0, 64, 106
1, 218786, Control_c, 0, 64, 111
1, 218801, Control_c, 0, 64, 117
1, 218816, Control_c, 0, 64, 127
1, 218851, Note_on_c, 0, 63, 54
1, 218874, Note_on_c, 0, 51, 56
1, 218998, Note_off_c, 0, 63, 52
1, 219009, Note_on_c, 0, 64, 71
1, 219020, Note_on_c, 0, 52, 59
1, 219023, Control_c, 0, 64, 124
1, 219038, Control_c, 0, 64, 114
1, 219053, Control_c, 0, 64, 107
1, 219068, Control_c, 0, 64, 102
1, 219083, Control_c, 0, 64, 97
1, 219098, Control_c, 0, 64, 92
1, 219108, Note_off_c, 0, 51, 41
1, 219113, Control_c, 0, 64, 85
1, 219127, Control_c, 0, 64, 79
1, 219142, Control_c, 0, 64, 73
1, 219157, Control_c, 0, 64, 68
1, 219172, Control_c, 0, 64, 64
1, 219174, Note_on_c, 0, 65, 69
1, 219179, Note_on_c, 0, 53, 67
1, 219187, Control_c, 0, 64, 61
1, 219202, Control_c, 0, 64, 57
1, 219207, Note_off_c, 0, 52, 59
1, 219217, Control_c, 0, 64, 55
1, 219232, Control_c, 0, 64, 53
1, 219243, Note_off_c, 0, 64, 33
1, 219247, Control_c, 0, 64, 51
1, 219261, Control_c, 0, 64, 47
1, 219276, Control_c, 0, 64, 42
1, 219291, Control_c, 0, 64, 35
1, 219306, Control_c, 0, 64, 27
1, 219321, Control_c, 0, 64, 20
1, 219336, Control_c, 0, 64, 14
1, 219342, Note_on_c, 0, 66, 76
1, 219344, Note_on_c, 0, 54, 72
1, 219351, Control_c, 0, 64, 8
1, 219366, Control_c, 0, 64, 0
1, 219375, Note_off_c, 0, 53, 59
1, 219478, Note_off_c, 0, 65, 43
1, 219513, Note_on_c, 0, 67, 78
1, 219518, Note_on_c, 0, 55, 65
1, 219549, Note_off_c, 0, 66, 62
1, 219551, Note_off_c, 0, 54, 62
1, 219753, Note_on_c, 0, 68, 76
1, 219759, Note_on_c, 0, 56, 71
1, 219786, Note_off_c, 0, 67, 63
1, 219828, Note_off_c, 0, 55, 54
1, 220070, Control_c, 0, 64, 14
1, 220084, Control_c, 0, 64, 37
1, 220099, Control_c, 0, 64, 51
1, 220114, Control_c, 0, 64, 59
1, 220129, Control_c, 0, 64, 63
1, 220144, Control_c, 0, 64, 65
1, 220159, Control_c, 0, 64, 68
1, 220174, Control_c, 0, 64, 72
1, 220189, Control_c, 0, 64, 80
1, 220203, Control_c, 0, 64, 89
1, 220218, Control_c, 0, 64, 100
1, 220233, Control_c, 0, 64, 110
1, 220254, Control_c, 0, 64, 127
1, 220379, Note_off_c, 0, 56, 42
1, 220412, Note_off_c, 0, 68, 35
1, 220881, Note_on_c, 0, 60, 71
1, 220886, Note_on_c, 0, 56, 55
1, 220889, Note_on_c, 0, 44, 62
1, 220892, Note_on_c, 0, 48, 62
1, 220922, Control_c, 0, 64, 107
1, 220937, Control_c, 0, 64, 86
1, 220952, Control_c, 0, 64, 75
1, 220967, Control_c, 0, 64, 68
1, 220982, Control_c, 0, 64, 61
1, 220996, Control_c, 0, 64, 55
1, 221019, Control_c, 0, 64, 49
1, 221033, Control_c, 0, 64, 45
1, 221048, Control_c, 0, 64, 40
1, 221063, Control_c, 0, 64, 35
1, 221078, Control_c, 0, 64, 28
1, 221092, Control_c, 0, 64, 18
1, 221107, Control_c, 0, 64, 0
1, 221661, Note_on_c, 0, 61, 56
1, 221667, Note_on_c, 0, 49, 51
1, 221780, Note_off_c, 0, 48, 33
1, 221871, Control_c, 0, 64, 42
1, 221886, Control_c, 0, 64, 57
1, 221901, Control_c, 0, 64, 64
1, 221915, Control_c, 0, 64, 67
1, 221924, Note_on_c, 0, 63, 54
1, 221930, Control_c, 0, 64, 70
1, 221938, Note_on_c, 0, 51, 49
1, 221945, Control_c, 0, 64, 75
1, 221960, Control_c, 0, 64, 84
1, 221965, Note_off_c, 0, 44, 33
1, 221975, Control_c, 0, 64, 94
1, 221983, Note_off_c, 0, 61, 51
1, 221989, Control_c, 0, 64, 106
1, 221995, Note_off_c, 0, 60, 31
1, 222000, Note_off_c, 0, 49, 36
1, 222004, Control_c, 0, 64, 127
1, 222017, Note_off_c, 0, 56, 60
1, 222031, Note_off_c, 0, 63, 57
1, 222049, Note_off_c, 0, 51, 55
1, 222375, Control_c, 0, 64, 111
1, 222390, Control_c, 0, 64, 92
1, 222397, Note_on_c, 0, 65, 55
1, 222402, Note_on_c, 0, 56, 50
1, 222404, Control_c, 0, 64, 78
1, 222413, Note_on_c, 0, 46, 39
1, 222417, Note_on_c, 0, 49, 42
1, 222419, Control_c, 0, 64, 67
1, 222420, Note_on_c, 0, 53, 44
1, 222424, Note_on_c, 0, 44, 47
1, 222427, Note_on_c, 0, 37, 41
1, 222434, Control_c, 0, 64, 56
1, 222448, Control_c, 0, 64, 45
1, 222463, Control_c, 0, 64, 40
1, 222478, Control_c, 0, 64, 47
1, 222493, Control_c, 0, 64, 58
1, 222514, Note_off_c, 0, 65, 50
1, 222516, Control_c, 0, 64, 67
1, 222530, Control_c, 0, 64, 75
1, 222545, Control_c, 0, 64, 86
1, 222560, Control_c, 0, 64, 97
1, 222575, Control_c, 0, 64, 104
1, 222588, Note_off_c, 0, 56, 32
1, 222590, Control_c, 0, 64, 112
1, 222604, Control_c, 0, 64, 127
1, 222675, Note_on_c, 0, 58, 56
1, 222704, Note_off_c, 0, 58, 62
1, 222778, Note_on_c, 0, 58, 55
1, 222868, Note_off_c, 0, 49, 37
1, 222869, Note_off_c, 0, 53, 15
1, 222891, Note_off_c, 0, 37, 36
1, 222910, Note_off_c, 0, 58, 52
1, 222911, Note_off_c, 0, 46, 34
1, 222914, Note_off_c, 0, 44, 31
1, 223049, Control_c, 0, 64, 124
1, 223064, Control_c, 0, 64, 106
1, 223080, Control_c, 0, 64, 97
1, 223095, Control_c, 0, 64, 90
1, 223110, Control_c, 0, 64, 84
1, 223125, Control_c, 0, 64, 77
1, 223140, Control_c, 0, 64, 72
1, 223154, Control_c, 0, 64, 67
1, 223169, Control_c, 0, 64, 62
1, 223184, Control_c, 0, 64, 57
1, 223199, Control_c, 0, 64, 52
1, 223214, Control_c, 0, 64, 48
1, 223228, Control_c, 0, 64, 45
1, 223243, Control_c, 0, 64, 40
1, 223265, Control_c, 0, 64, 31
1, 223280, Control_c, 0, 64, 0
1, 223561, Control_c, 0, 64, 24
1, 223576, Control_c, 0, 64, 38
1, 223591, Control_c, 0, 64, 51
1, 223605, Note_on_c, 0, 65, 48
1, 223605, Control_c, 0, 64, 58
1, 223608, Note_on_c, 0, 49, 35
1, 223612, Note_on_c, 0, 56, 41
1, 223617, Note_on_c, 0, 46, 38
1, 223619, Note_on_c, 0, 44, 43
1, 223620, Note_on_c, 0, 53, 32
1, 223620, Control_c, 0, 64, 62
1, 223635, Note_on_c, 0, 37, 21
1, 223635, Control_c, 0, 64, 65
1, 223650, Control_c, 0, 64, 68
1, 223665, Control_c, 0, 64, 72
1, 223679, Control_c, 0, 64, 79
1, 223694, Control_c, 0, 64, 88
1, 223709, Control_c, 0, 64, 95
1, 223724, Control_c, 0, 64, 102
1, 223739, Control_c, 0, 64, 110
1, 223754, Control_c, 0, 64, 127
1, 223757, Note_off_c, 0, 65, 31
1, 223768, Note_off_c, 0, 56, 34
1, 223864, Note_on_c, 0, 58, 56
1, 223895, Note_off_c, 0, 58, 64
1, 223973, Note_off_c, 0, 53, 24
1, 223984, Note_on_c, 0, 58, 55
1, 224047, Note_off_c, 0, 37, 36
1, 224052, Note_off_c, 0, 49, 37
1, 224077, Note_off_c, 0, 46, 41
1, 224100, Note_off_c, 0, 44, 34
1, 224126, Note_off_c, 0, 58, 28
1, 224266, Control_c, 0, 64, 110
1, 224281, Control_c, 0, 64, 104
1, 224296, Control_c, 0, 64, 99
1, 224310, Control_c, 0, 64, 89
1, 224325, Control_c, 0, 64, 80
1, 224340, Control_c, 0, 64, 72
1, 224355, Control_c, 0, 64, 67
1, 224370, Control_c, 0, 64, 64
1, 224384, Control_c, 0, 64, 61
1, 224399, Control_c, 0, 64, 59
1, 224414, Control_c, 0, 64, 54
1, 224428, Control_c, 0, 64, 49
1, 224443, Control_c, 0, 64, 44
1, 224458, Control_c, 0, 64, 38
1, 224473, Control_c, 0, 64, 31
1, 224488, Control_c, 0, 64, 23
1, 224502, Control_c, 0, 64, 10
1, 224517, Control_c, 0, 64, 0
1, 224666, Control_c, 0, 64, 17
1, 224681, Control_c, 0, 64, 26
1, 224696, Control_c, 0, 64, 34
1, 224711, Control_c, 0, 64, 41
1, 224726, Control_c, 0, 64, 47
1, 224740, Control_c, 0, 64, 52
1, 224763, Control_c, 0, 64, 54
1, 224778, Control_c, 0, 64, 56
1, 224793, Control_c, 0, 64, 57
1, 224807, Control_c, 0, 64, 58
1, 224822, Control_c, 0, 64, 60
1, 224837, Control_c, 0, 64, 62
1, 224851, Control_c, 0, 64, 63
1, 224861, Note_on_c, 0, 58, 38
1, 224866, Control_c, 0, 64, 65
1, 224870, Note_on_c, 0, 56, 32
1, 224881, Control_c, 0, 64, 67
1, 224890, Note_on_c, 0, 37, 30
1, 224890, Note_on_c, 0, 49, 27
1, 224896, Note_on_c, 0, 53, 14
1, 224896, Control_c, 0, 64, 69
1, 224911, Control_c, 0, 64, 74
1, 224925, Control_c, 0, 64, 78
1, 224940, Control_c, 0, 64, 82
1, 224955, Control_c, 0, 64, 87
1, 224970, Control_c, 0, 64, 92
1, 224985, Control_c, 0, 64, 99
1, 225000, Control_c, 0, 64, 108
1, 225015, Control_c, 0, 64, 127
1, 225018, Note_off_c, 0, 56, 39
1, 225029, Note_off_c, 0, 58, 39
1, 225036, Note_off_c, 0, 53, 26
1, 225085, Note_off_c, 0, 37, 40
1, 225092, Note_off_c, 0, 49, 37
1, 225258, Note_on_c, 0, 58, 52
1, 225265, Note_on_c, 0, 56, 47
1, 225273, Note_on_c, 0, 49, 43
1, 225278, Note_on_c, 0, 37, 34
1, 225284, Note_on_c, 0, 53, 36
1, 225378, Note_off_c, 0, 53, 33
1, 225405, Note_off_c, 0, 56, 29
1, 225415, Note_off_c, 0, 58, 41
1, 225430, Note_off_c, 0, 37, 31
1, 225446, Note_off_c, 0, 49, 32
1, 225621, Note_on_c, 0, 58, 64
1, 225627, Note_on_c, 0, 56, 55
1, 225630, Note_on_c, 0, 49, 49
1, 225637, Note_on_c, 0, 37, 40
1, 225644, Note_on_c, 0, 53, 45
1, 225712, Note_off_c, 0, 56, 53
1, 225718, Note_off_c, 0, 53, 45
1, 225800, Note_off_c, 0, 37, 30
1, 225805, Note_off_c, 0, 58, 28
1, 225808, Note_off_c, 0, 49, 33
1, 226085, Note_on_c, 0, 59, 60
1, 226089, Note_on_c, 0, 50, 48
1, 226089, Control_c, 0, 64, 122
1, 226091, Note_on_c, 0, 56, 55
1, 226097, Note_on_c, 0, 38, 45
1, 226097, Note_on_c, 0, 53, 50
1, 226104, Control_c, 0, 64, 102
1, 226118, Control_c, 0, 64, 94
1, 226133, Control_c, 0, 64, 87
1, 226148, Control_c, 0, 64, 81
1, 226163, Control_c, 0, 64, 72
1, 226178, Control_c, 0, 64, 64
1, 226192, Control_c, 0, 64, 54
1, 226207, Control_c, 0, 64, 43
1, 226222, Control_c, 0, 64, 29
1, 226237, Control_c, 0, 64, 0
1, 226379, Control_c, 0, 64, 39
1, 226394, Control_c, 0, 64, 55
1, 226409, Control_c, 0, 64, 63
1, 226423, Control_c, 0, 64, 67
1, 226438, Control_c, 0, 64, 72
1, 226453, Control_c, 0, 64, 78
1, 226468, Control_c, 0, 64, 83
1, 226483, Control_c, 0, 64, 90
1, 226497, Control_c, 0, 64, 98
1, 226512, Control_c, 0, 64, 107
1, 226527, Control_c, 0, 64, 122
1, 226542, Control_c, 0, 64, 127
1, 226731, Note_off_c, 0, 53, 32
1, 226751, Note_off_c, 0, 59, 51
1, 226756, Note_off_c, 0, 56, 42
1, 226821, Note_off_c, 0, 38, 32
1, 226865, Note_off_c, 0, 50, 36
1, 227542, Note_on_c, 0, 71, 59
1, 227543, Control_c, 0, 64, 103
1, 227547, Note_on_c, 0, 62, 46
1, 227551, Note_on_c, 0, 68, 55
1, 227557, Control_c, 0, 64, 88
1, 227562, Note_on_c, 0, 65, 42
1, 227572, Control_c, 0, 64, 72
1, 227587, Control_c, 0, 64, 61
1, 227602, Control_c, 0, 64, 43
1, 227617, Control_c, 0, 64, 0
1, 227622, Note_off_c, 0, 65, 0
1, 227646, Control_c, 0, 64, 9
1, 227659, Poly_aftertouch_c, 0, 65, 127
1, 227661, Control_c, 0, 64, 46
1, 227676, Control_c, 0, 64, 62
1, 227690, Control_c, 0, 64, 70
1, 227705, Control_c, 0, 64, 78
1, 227720, Control_c, 0, 64, 89
1, 227735, Control_c, 0, 64, 98
1, 227757, Control_c, 0, 64, 109
1, 227758, Note_off_c, 0, 68, 32
1, 227772, Control_c, 0, 64, 127
1, 227793, Poly_aftertouch_c, 0, 65, 0
1, 227848, Note_off_c, 0, 62, 33
1, 227852, Note_off_c, 0, 71, 35
1, 227955, Note_on_c, 0, 71, 69
1, 227963, Note_on_c, 0, 68, 67
1, 227963, Note_on_c, 0, 62, 60
1, 227966, Control_c, 0, 64, 110
1, 227974, Note_on_c, 0, 65, 59
1, 227981, Control_c, 0, 64, 78
1, 227995, Control_c, 0, 64, 63
1, 228010, Control_c, 0, 64, 49
1, 228025, Control_c, 0, 64, 34
1, 228040, Control_c, 0, 64, 35
1, 228055, Control_c, 0, 64, 50
1, 228069, Control_c, 0, 64, 63
1, 228084, Control_c, 0, 64, 74
1, 228099, Control_c, 0, 64, 86
1, 228114, Control_c, 0, 64, 100
1, 228129, Control_c, 0, 64, 107
1, 228143, Control_c, 0, 64, 117
1, 228145, Note_off_c, 0, 65, 39
1, 228158, Control_c, 0, 64, 127
1, 228166, Note_off_c, 0, 68, 31
1, 228190, Note_off_c, 0, 62, 51
1, 228251, Note_off_c, 0, 71, 31
1, 228380, Control_c, 0, 64, 91
1, 228393, Note_on_c, 0, 71, 61
1, 228395, Control_c, 0, 64, 74
1, 228402, Note_on_c, 0, 62, 50
1, 228404, Note_on_c, 0, 68, 54
1, 228407, Note_on_c, 0, 65, 51
1, 228410, Control_c, 0, 64, 62
1, 228425, Control_c, 0, 64, 45
1, 228440, Control_c, 0, 64, 17
1, 228455, Control_c, 0, 64, 0
1, 228484, Control_c, 0, 64, 31
1, 228506, Control_c, 0, 64, 53
1, 228520, Control_c, 0, 64, 64
1, 228535, Control_c, 0, 64, 70
1, 228550, Control_c, 0, 64, 77
1, 228563, Note_off_c, 0, 65, 45
1, 228565, Control_c, 0, 64, 83
1, 228568, Note_off_c, 0, 68, 42
1, 228580, Control_c, 0, 64, 89
1, 228595, Control_c, 0, 64, 97
1, 228610, Control_c, 0, 64, 107
1, 228625, Control_c, 0, 64, 127
1, 228652, Note_off_c, 0, 62, 32
1, 228741, Note_off_c, 0, 71, 28
1, 229011, Control_c, 0, 64, 105
1, 229018, Note_on_c, 0, 72, 53
1, 229025, Control_c, 0, 64, 88
1, 229036, Note_on_c, 0, 68, 47
1, 229040, Control_c, 0, 64, 77
1, 229043, Note_on_c, 0, 63, 41
1, 229048, Note_on_c, 0, 66, 34
1, 229055, Control_c, 0, 64, 70
1, 229070, Control_c, 0, 64, 65
1, 229085, Control_c, 0, 64, 58
1, 229099, Control_c, 0, 64, 41
1, 229114, Control_c, 0, 64, 0
1, 229188, Control_c, 0, 64, 34
1, 229203, Control_c, 0, 64, 53
1, 229218, Control_c, 0, 64, 62
1, 229233, Control_c, 0, 64, 68
1, 229255, Control_c, 0, 64, 73
1, 229269, Control_c, 0, 64, 79
1, 229284, Control_c, 0, 64, 85
1, 229299, Control_c, 0, 64, 94
1, 229314, Control_c, 0, 64, 105
1, 229329, Control_c, 0, 64, 124
1, 229343, Control_c, 0, 64, 127
1, 229402, Note_off_c, 0, 72, 60
1, 229415, Note_off_c, 0, 68, 53
1, 229418, Note_off_c, 0, 63, 55
1, 229423, Note_off_c, 0, 66, 50
1, 229537, Control_c, 0, 64, 111
1, 229552, Control_c, 0, 64, 99
1, 229567, Control_c, 0, 64, 93
1, 229581, Control_c, 0, 64, 88
1, 229596, Control_c, 0, 64, 82
1, 229611, Control_c, 0, 64, 74
1, 229626, Control_c, 0, 64, 66
1, 229641, Control_c, 0, 64, 59
1, 229656, Control_c, 0, 64, 53
1, 229671, Control_c, 0, 64, 48
1, 229686, Control_c, 0, 64, 43
1, 229701, Control_c, 0, 64, 36
1, 229715, Control_c, 0, 64, 28
1, 229730, Control_c, 0, 64, 24
1, 229745, Control_c, 0, 64, 29
1, 229760, Control_c, 0, 64, 43
1, 229766, Note_on_c, 0, 60, 48
1, 229775, Control_c, 0, 64, 57
1, 229776, Note_on_c, 0, 39, 41
1, 229779, Note_on_c, 0, 56, 37
1, 229785, Note_on_c, 0, 51, 35
1, 229788, Note_on_c, 0, 54, 29
1, 229790, Control_c, 0, 64, 64
1, 229805, Control_c, 0, 64, 69
1, 229819, Note_off_c, 0, 56, 54
1, 229820, Control_c, 0, 64, 74
1, 229835, Control_c, 0, 64, 79
1, 229839, Note_off_c, 0, 54, 43
1, 229849, Control_c, 0, 64, 84
1, 229864, Control_c, 0, 64, 89
1, 229879, Control_c, 0, 64, 96
1, 229891, Note_off_c, 0, 39, 49
1, 229893, Control_c, 0, 64, 104
1, 229908, Control_c, 0, 64, 117
1, 229923, Control_c, 0, 64, 127
1, 229938, Note_off_c, 0, 51, 44
1, 230064, Control_c, 0, 64, 111
1, 230079, Control_c, 0, 64, 98
1, 230093, Control_c, 0, 64, 85
1, 230096, Note_on_c, 0, 40, 48
1, 230097, Note_on_c, 0, 61, 55
1, 230108, Control_c, 0, 64, 72
1, 230111, Note_on_c, 0, 56, 49
1, 230112, Note_on_c, 0, 52, 38
1, 230123, Control_c, 0, 64, 58
1, 230127, Note_off_c, 0, 60, 31
1, 230138, Control_c, 0, 64, 36
1, 230153, Control_c, 0, 64, 0
1, 230212, Control_c, 0, 64, 36
1, 230227, Control_c, 0, 64, 57
1, 230241, Control_c, 0, 64, 65
1, 230242, Note_off_c, 0, 56, 54
1, 230256, Control_c, 0, 64, 69
1, 230272, Control_c, 0, 64, 72
1, 230278, Note_off_c, 0, 61, 57
1, 230287, Control_c, 0, 64, 75
1, 230302, Control_c, 0, 64, 78
1, 230314, Note_off_c, 0, 40, 62
1, 230316, Control_c, 0, 64, 81
1, 230331, Control_c, 0, 64, 82
1, 230363, Note_off_c, 0, 52, 37
1, 230376, Control_c, 0, 64, 81
1, 230390, Control_c, 0, 64, 80
1, 230405, Control_c, 0, 64, 78
1, 230420, Control_c, 0, 64, 74
1, 230435, Control_c, 0, 64, 71
1, 230450, Control_c, 0, 64, 68
1, 230464, Control_c, 0, 64, 65
1, 230479, Control_c, 0, 64, 61
1, 230494, Control_c, 0, 64, 57
1, 230509, Control_c, 0, 64, 53
1, 230522, Control_c, 0, 64, 46
1, 230537, Control_c, 0, 64, 38
1, 230552, Control_c, 0, 64, 21
1, 230567, Control_c, 0, 64, 0
1, 230656, Control_c, 0, 64, 39
1, 230670, Control_c, 0, 64, 55
1, 230685, Control_c, 0, 64, 63
1, 230690, Note_on_c, 0, 73, 58
1, 230697, Note_on_c, 0, 64, 51
1, 230700, Control_c, 0, 64, 67
1, 230708, Note_on_c, 0, 68, 47
1, 230714, Control_c, 0, 64, 71
1, 230729, Control_c, 0, 64, 76
1, 230752, Control_c, 0, 64, 81
1, 230767, Control_c, 0, 64, 87
1, 230771, Note_off_c, 0, 68, 51
1, 230782, Control_c, 0, 64, 93
1, 230796, Control_c, 0, 64, 98
1, 230811, Control_c, 0, 64, 104
1, 230826, Control_c, 0, 64, 112
1, 230841, Control_c, 0, 64, 124
1, 230852, Note_off_c, 0, 64, 49
1, 230856, Control_c, 0, 64, 127
1, 230879, Note_off_c, 0, 73, 31
1, 230974, Control_c, 0, 64, 120
1, 230988, Control_c, 0, 64, 101
1, 230999, Note_on_c, 0, 74, 61
1, 231003, Control_c, 0, 64, 84
1, 231006, Note_on_c, 0, 71, 60
1, 231009, Note_on_c, 0, 65, 59
1, 231009, Note_on_c, 0, 68, 58
1, 231018, Control_c, 0, 64, 68
1, 231033, Control_c, 0, 64, 49
1, 231048, Control_c, 0, 64, 17
1, 231064, Control_c, 0, 64, 0
1, 231093, Control_c, 0, 64, 22
1, 231108, Control_c, 0, 64, 48
1, 231123, Control_c, 0, 64, 62
1, 231138, Control_c, 0, 64, 70
1, 231143, Note_off_c, 0, 71, 59
1, 231143, Note_off_c, 0, 74, 59
1, 231152, Control_c, 0, 64, 75
1, 231155, Note_off_c, 0, 65, 64
1, 231167, Control_c, 0, 64, 80
1, 231182, Control_c, 0, 64, 83
1, 231193, Note_off_c, 0, 68, 34
1, 231197, Control_c, 0, 64, 88
1, 231212, Control_c, 0, 64, 94
1, 231227, Control_c, 0, 64, 103
1, 231242, Control_c, 0, 64, 114
1, 231257, Control_c, 0, 64, 116
1, 231301, Control_c, 0, 64, 115
1, 231316, Control_c, 0, 64, 110
1, 231331, Control_c, 0, 64, 99
1, 231345, Control_c, 0, 64, 88
1, 231360, Control_c, 0, 64, 76
1, 231375, Control_c, 0, 64, 66
1, 231390, Control_c, 0, 64, 57
1, 231405, Control_c, 0, 64, 47
1, 231419, Control_c, 0, 64, 31
1, 231434, Control_c, 0, 64, 0
1, 231531, Control_c, 0, 64, 33
1, 231545, Control_c, 0, 64, 54
1, 231560, Control_c, 0, 64, 63
1, 231575, Control_c, 0, 64, 67
1, 231585, Note_on_c, 0, 41, 53
1, 231585, Note_on_c, 0, 56, 47
1, 231585, Note_on_c, 0, 62, 53
1, 231586, Note_on_c, 0, 59, 51
1, 231590, Control_c, 0, 64, 72
1, 231593, Note_on_c, 0, 53, 59
1, 231605, Control_c, 0, 64, 78
1, 231619, Control_c, 0, 64, 84
1, 231634, Note_off_c, 0, 53, 61
1, 231634, Control_c, 0, 64, 92
1, 231644, Note_off_c, 0, 41, 57
1, 231649, Control_c, 0, 64, 97
1, 231653, Note_off_c, 0, 56, 51
1, 231663, Control_c, 0, 64, 104
1, 231664, Note_off_c, 0, 59, 49
1, 231678, Control_c, 0, 64, 114
1, 231693, Control_c, 0, 64, 127
1, 231841, Control_c, 0, 64, 113
1, 231856, Control_c, 0, 64, 98
1, 231872, Control_c, 0, 64, 84
1, 231887, Control_c, 0, 64, 71
1, 231889, Note_on_c, 0, 63, 67
1, 231891, Note_on_c, 0, 42, 62
1, 231893, Note_on_c, 0, 58, 67
1, 231894, Note_on_c, 0, 54, 64
1, 231901, Control_c, 0, 64, 59
1, 231914, Note_off_c, 0, 62, 42
1, 231916, Control_c, 0, 64, 38
1, 231931, Control_c, 0, 64, 0
1, 232005, Control_c, 0, 64, 39
1, 232020, Control_c, 0, 64, 58
1, 232035, Control_c, 0, 64, 67
1, 232044, Note_off_c, 0, 58, 62
1, 232050, Control_c, 0, 64, 75
1, 232065, Control_c, 0, 64, 83
1, 232071, Note_off_c, 0, 63, 62
1, 232079, Note_off_c, 0, 42, 64
1, 232079, Control_c, 0, 64, 90
1, 232094, Control_c, 0, 64, 97
1, 232097, Note_off_c, 0, 54, 63
1, 232109, Control_c, 0, 64, 108
1, 232124, Control_c, 0, 64, 127
1, 232264, Control_c, 0, 64, 100
1, 232279, Control_c, 0, 64, 85
1, 232294, Control_c, 0, 64, 72
1, 232309, Control_c, 0, 64, 61
1, 232324, Control_c, 0, 64, 47
1, 232339, Control_c, 0, 64, 25
1, 232354, Control_c, 0, 64, 0
1, 232412, Control_c, 0, 64, 30
1, 232427, Control_c, 0, 64, 53
1, 232442, Control_c, 0, 64, 64
1, 232457, Control_c, 0, 64, 72
1, 232472, Control_c, 0, 64, 79
1, 232479, Note_on_c, 0, 66, 75
1, 232480, Note_on_c, 0, 75, 76
1, 232485, Note_on_c, 0, 70, 73
1, 232487, Control_c, 0, 64, 90
1, 232501, Control_c, 0, 64, 107
1, 232516, Control_c, 0, 64, 127
1, 232568, Note_off_c, 0, 66, 62
1, 232574, Note_off_c, 0, 70, 46
1, 232578, Note_off_c, 0, 75, 53
1, 232783, Control_c, 0, 64, 97
1, 232786, Note_on_c, 0, 67, 80
1, 232788, Note_on_c, 0, 73, 71
1, 232789, Note_on_c, 0, 76, 73
1, 232790, Note_on_c, 0, 70, 77
1, 232798, Control_c, 0, 64, 73
1, 232813, Control_c, 0, 64, 56
1, 232828, Control_c, 0, 64, 26
1, 232843, Control_c, 0, 64, 0
1, 232872, Control_c, 0, 64, 15
1, 232887, Control_c, 0, 64, 47
1, 232902, Control_c, 0, 64, 63
1, 232917, Control_c, 0, 64, 72
1, 232932, Control_c, 0, 64, 82
1, 232947, Control_c, 0, 64, 94
1, 232959, Note_off_c, 0, 67, 64
1, 232960, Note_off_c, 0, 76, 61
1, 232962, Control_c, 0, 64, 102
1, 232977, Control_c, 0, 64, 113
1, 232990, Note_off_c, 0, 73, 63
1, 232996, Note_off_c, 0, 70, 36
1, 232998, Control_c, 0, 64, 127
1, 233191, Control_c, 0, 64, 105
1, 233206, Control_c, 0, 64, 92
1, 233221, Control_c, 0, 64, 82
1, 233235, Control_c, 0, 64, 74
1, 233250, Control_c, 0, 64, 67
1, 233265, Control_c, 0, 64, 61
1, 233280, Control_c, 0, 64, 50
1, 233295, Control_c, 0, 64, 37
1, 233309, Control_c, 0, 64, 8
1, 233324, Control_c, 0, 64, 0
1, 233413, Control_c, 0, 64, 27
1, 233428, Control_c, 0, 64, 43
1, 233439, Note_on_c, 0, 61, 50
1, 233441, Note_on_c, 0, 64, 55
1, 233442, Control_c, 0, 64, 54
1, 233448, Note_on_c, 0, 58, 43
1, 233458, Control_c, 0, 64, 61
1, 233464, Note_on_c, 0, 55, 45
1, 233468, Note_on_c, 0, 43, 39
1, 233473, Control_c, 0, 64, 67
1, 233488, Control_c, 0, 64, 71
1, 233503, Control_c, 0, 64, 78
1, 233518, Control_c, 0, 64, 86
1, 233532, Control_c, 0, 64, 95
1, 233542, Note_off_c, 0, 61, 33
1, 233547, Control_c, 0, 64, 109
1, 233562, Control_c, 0, 64, 127
1, 233589, Note_off_c, 0, 58, 25
1, 233600, Note_off_c, 0, 55, 52
1, 233628, Note_off_c, 0, 43, 34
1, 233794, Note_off_c, 0, 64, 23
1, 233852, Note_on_c, 0, 65, 58
1, 233856, Note_on_c, 0, 60, 62
1, 233861, Note_on_c, 0, 56, 49
1, 233865, Control_c, 0, 64, 92
1, 233866, Note_on_c, 0, 44, 49
1, 233880, Control_c, 0, 64, 70
1, 233895, Control_c, 0, 64, 56
1, 233910, Control_c, 0, 64, 36
1, 233925, Control_c, 0, 64, 0
1, 233969, Control_c, 0, 64, 41
1, 233984, Control_c, 0, 64, 62
1, 233999, Control_c, 0, 64, 72
1, 234014, Control_c, 0, 64, 84
1, 234029, Control_c, 0, 64, 103
1, 234044, Control_c, 0, 64, 127
1, 234095, Note_off_c, 0, 44, 53
1, 234109, Note_off_c, 0, 56, 46
1, 234126, Note_off_c, 0, 65, 36
1, 234127, Note_off_c, 0, 60, 31
1, 234246, Note_on_c, 0, 65, 74
1, 234247, Note_on_c, 0, 60, 72
1, 234257, Note_on_c, 0, 56, 69
1, 234267, Note_on_c, 0, 44, 55
1, 234431, Note_off_c, 0, 60, 54
1, 234446, Note_off_c, 0, 56, 57
1, 234458, Note_off_c, 0, 44, 56
1, 234527, Note_off_c, 0, 65, 34
1, 234664, Note_on_c, 0, 60, 80
1, 234665, Note_on_c, 0, 65, 78
1, 234675, Note_on_c, 0, 56, 76
1, 234679, Note_on_c, 0, 44, 68
1, 234865, Note_off_c, 0, 60, 63
1, 234909, Note_off_c, 0, 65, 63
1, 234917, Note_off_c, 0, 56, 58
1, 234934, Note_off_c, 0, 44, 35
1, 235245, Note_on_c, 0, 63, 75
1, 235246, Note_on_c, 0, 60, 75
1, 235246, Note_on_c, 0, 66, 78
1, 235248, Note_on_c, 0, 57, 75
1, 235259, Note_on_c, 0, 45, 70
1, 235290, Control_c, 0, 64, 113
1, 235305, Control_c, 0, 64, 85
1, 235319, Control_c, 0, 64, 69
1, 235334, Control_c, 0, 64, 59
1, 235349, Control_c, 0, 64, 45
1, 235364, Control_c, 0, 64, 27
1, 235379, Control_c, 0, 64, 0
1, 235764, Control_c, 0, 64, 24
1, 235779, Control_c, 0, 64, 47
1, 235794, Control_c, 0, 64, 60
1, 235809, Control_c, 0, 64, 66
1, 235823, Control_c, 0, 64, 71
1, 235838, Control_c, 0, 64, 78
1, 235853, Control_c, 0, 64, 87
1, 235868, Control_c, 0, 64, 102
1, 235883, Control_c, 0, 64, 127
1, 236014, Note_off_c, 0, 60, 35
1, 236058, Note_off_c, 0, 63, 32
1, 236086, Note_off_c, 0, 66, 53
1, 236142, Note_off_c, 0, 45, 34
1, 236178, Note_off_c, 0, 57, 31
1, 236933, Note_on_c, 0, 78, 79
1, 236937, Note_on_c, 0, 72, 66
1, 236939, Note_on_c, 0, 75, 71
1, 236948, Note_on_c, 0, 69, 61
1, 236950, Control_c, 0, 64, 103
1, 236965, Control_c, 0, 64, 80
1, 236980, Control_c, 0, 64, 64
1, 236995, Control_c, 0, 64, 47
1, 237009, Control_c, 0, 64, 0
1, 237069, Control_c, 0, 64, 22
1, 237083, Control_c, 0, 64, 49
1, 237098, Control_c, 0, 64, 63
1, 237113, Control_c, 0, 64, 71
1, 237128, Control_c, 0, 64, 81
1, 237143, Control_c, 0, 64, 101
1, 237157, Control_c, 0, 64, 127
1, 237226, Note_off_c, 0, 75, 0
1, 237237, Note_off_c, 0, 78, 47
1, 237253, Poly_aftertouch_c, 0, 75, 0
1, 237262, Note_off_c, 0, 69, 53
1, 237266, Note_off_c, 0, 72, 47
1, 237486, Note_on_c, 0, 78, 86
1, 237488, Note_on_c, 0, 75, 80
1, 237489, Note_on_c, 0, 72, 74
1, 237495, Note_on_c, 0, 69, 72
1, 237521, Control_c, 0, 64, 104
1, 237536, Control_c, 0, 64, 77
1, 237551, Control_c, 0, 64, 61
1, 237566, Control_c, 0, 64, 46
1, 237580, Control_c, 0, 64, 42
1, 237595, Control_c, 0, 64, 54
1, 237610, Control_c, 0, 64, 66
1, 237625, Control_c, 0, 64, 79
1, 237639, Control_c, 0, 64, 114
1, 237654, Control_c, 0, 64, 127
1, 237738, Note_off_c, 0, 75, 36
1, 237742, Note_off_c, 0, 78, 55
1, 237778, Note_off_c, 0, 69, 56
1, 237823, Note_off_c, 0, 72, 30
1, 238049, Note_on_c, 0, 78, 89
1, 238050, Note_on_c, 0, 75, 80
1, 238053, Note_on_c, 0, 72, 77
1, 238056, Note_on_c, 0, 69, 71
1, 238098, Control_c, 0, 64, 99
1, 238113, Control_c, 0, 64, 75
1, 238128, Control_c, 0, 64, 60
1, 238143, Control_c, 0, 64, 42
1, 238158, Control_c, 0, 64, 18
1, 238172, Control_c, 0, 64, 20
1, 238187, Control_c, 0, 64, 43
1, 238202, Control_c, 0, 64, 61
1, 238217, Control_c, 0, 64, 71
1, 238239, Control_c, 0, 64, 84
1, 238255, Control_c, 0, 64, 106
1, 238270, Control_c, 0, 64, 127
1, 238344, Note_off_c, 0, 75, 56
1, 238349, Note_off_c, 0, 69, 50
1, 238353, Note_off_c, 0, 72, 51
1, 238521, Note_off_c, 0, 78, 27
1, 238945, Note_on_c, 0, 79, 84
1, 238947, Note_on_c, 0, 70, 78
1, 238948, Note_on_c, 0, 75, 79
1, 238988, Control_c, 0, 64, 116
1, 239003, Control_c, 0, 64, 79
1, 239018, Control_c, 0, 64, 62
1, 239033, Control_c, 0, 64, 44
1, 239048, Control_c, 0, 64, 18
1, 239064, Control_c, 0, 64, 0
1, 239404, Control_c, 0, 64, 19
1, 239418, Control_c, 0, 64, 39
1, 239433, Control_c, 0, 64, 53
1, 239448, Control_c, 0, 64, 60
1, 239463, Control_c, 0, 64, 64
1, 239478, Control_c, 0, 64, 65
1, 239493, Control_c, 0, 64, 68
1, 239508, Control_c, 0, 64, 73
1, 239523, Control_c, 0, 64, 81
1, 239538, Control_c, 0, 64, 91
1, 239553, Control_c, 0, 64, 102
1, 239568, Control_c, 0, 64, 115
1, 239582, Control_c, 0, 64, 127
1, 239813, Note_off_c, 0, 79, 34
1, 239832, Note_off_c, 0, 75, 34
1, 239898, Note_off_c, 0, 70, 35
1, 241020, Note_on_c, 0, 67, 44
1, 241033, Note_on_c, 0, 62, 43
1, 241035, Control_c, 0, 64, 124
1, 241043, Note_on_c, 0, 46, 47
1, 241046, Note_on_c, 0, 34, 47
1, 241046, Note_on_c, 0, 56, 24
1, 241050, Control_c, 0, 64, 94
1, 241065, Control_c, 0, 64, 77
1, 241071, Note_off_c, 0, 46, 59
1, 241076, Note_off_c, 0, 34, 53
1, 241080, Control_c, 0, 64, 65
1, 241091, Note_off_c, 0, 56, 46
1, 241091, Note_off_c, 0, 62, 53
1, 241094, Control_c, 0, 64, 52
1, 241109, Note_off_c, 0, 67, 37
1, 241109, Control_c, 0, 64, 31
1, 241124, Control_c, 0, 64, 0
1, 241185, Note_on_c, 0, 65, 47
1, 241230, Note_off_c, 0, 65, 65
1, 241280, Control_c, 0, 64, 12
1, 241295, Control_c, 0, 64, 16
1, 241309, Control_c, 0, 64, 20
1, 241324, Control_c, 0, 64, 24
1, 241338, Note_on_c, 0, 65, 55
1, 241339, Note_on_c, 0, 34, 56
1, 241339, Control_c, 0, 64, 26
1, 241347, Note_on_c, 0, 46, 46
1, 241354, Control_c, 0, 64, 27
1, 241366, Note_on_c, 0, 56, 23
1, 241369, Control_c, 0, 64, 28
1, 241373, Note_off_c, 0, 46, 58
1, 241374, Note_off_c, 0, 34, 64
1, 241383, Control_c, 0, 64, 28
1, 241391, Note_off_c, 0, 65, 61
1, 241393, Note_off_c, 0, 56, 48
1, 241398, Control_c, 0, 64, 29
1, 241403, Note_on_c, 0, 67, 54
1, 241413, Control_c, 0, 64, 30
1, 241459, Control_c, 0, 64, 30
1, 241465, Note_off_c, 0, 67, 53
1, 241473, Control_c, 0, 64, 32
1, 241487, Note_on_c, 0, 65, 45
1, 241488, Control_c, 0, 64, 35
1, 241503, Control_c, 0, 64, 37
1, 241518, Control_c, 0, 64, 38
1, 241525, Note_off_c, 0, 65, 65
1, 241532, Control_c, 0, 64, 37
1, 241536, Note_on_c, 0, 64, 54
1, 241547, Control_c, 0, 64, 36
1, 241562, Control_c, 0, 64, 36
1, 241606, Note_on_c, 0, 62, 43
1, 241607, Note_on_c, 0, 46, 46
1, 241611, Note_on_c, 0, 34, 58
1, 241617, Note_off_c, 0, 64, 45
1, 241618, Note_on_c, 0, 65, 62
1, 241621, Control_c, 0, 64, 35
1, 241633, Note_on_c, 0, 56, 26
1, 241636, Control_c, 0, 64, 35
1, 241642, Note_off_c, 0, 46, 65
1, 241646, Note_off_c, 0, 34, 64
1, 241646, Note_off_c, 0, 62, 54
1, 241651, Control_c, 0, 64, 34
1, 241666, Control_c, 0, 64, 32
1, 241673, Note_off_c, 0, 56, 49
1, 241681, Control_c, 0, 64, 31
1, 241696, Control_c, 0, 64, 30
1, 241715, Note_off_c, 0, 65, 56
1, 241748, Note_on_c, 0, 67, 50
1, 241770, Control_c, 0, 64, 30
1, 241784, Note_off_c, 0, 67, 66
1, 241785, Control_c, 0, 64, 29
1, 241844, Control_c, 0, 64, 29
1, 241888, Control_c, 0, 64, 30
1, 241903, Note_on_c, 0, 51, 52
1, 241907, Note_on_c, 0, 55, 47
1, 241908, Note_on_c, 0, 63, 47
1, 241909, Note_on_c, 0, 39, 50
1, 241932, Control_c, 0, 64, 30
1, 241934, Note_off_c, 0, 55, 57
1, 241940, Note_off_c, 0, 51, 64
1, 241947, Note_off_c, 0, 39, 62
1, 241949, Note_off_c, 0, 63, 62
1, 241973, Note_on_c, 0, 65, 57
1, 242029, Control_c, 0, 64, 31
1, 242033, Note_off_c, 0, 65, 51
1, 242052, Note_on_c, 0, 63, 62
1, 242103, Control_c, 0, 64, 32
1, 242110, Note_off_c, 0, 63, 58
1, 242118, Control_c, 0, 64, 32
1, 242128, Note_on_c, 0, 62, 56
1, 242133, Control_c, 0, 64, 33
1, 242148, Control_c, 0, 64, 32
1, 242175, Note_off_c, 0, 62, 62
1, 242188, Note_on_c, 0, 63, 53
1, 242193, Control_c, 0, 64, 33
1, 242230, Note_off_c, 0, 63, 62
1, 242265, Note_on_c, 0, 64, 58
1, 242268, Control_c, 0, 64, 33
1, 242283, Control_c, 0, 64, 34
1, 242307, Note_off_c, 0, 64, 60
1, 242331, Note_on_c, 0, 65, 65
1, 242384, Note_off_c, 0, 65, 62
1, 242400, Note_on_c, 0, 66, 57
1, 242448, Note_off_c, 0, 66, 59
1, 242477, Note_on_c, 0, 67, 66
1, 242507, Note_off_c, 0, 67, 64
1, 242535, Control_c, 0, 64, 33
1, 242553, Note_on_c, 0, 68, 61
1, 242593, Note_off_c, 0, 68, 61
1, 242624, Note_on_c, 0, 69, 64
1, 242654, Note_off_c, 0, 69, 63
1, 242686, Note_on_c, 0, 70, 60
1, 242743, Note_off_c, 0, 70, 61
1, 242772, Note_on_c, 0, 71, 59
1, 242817, Note_off_c, 0, 71, 61
1, 242824, Control_c, 0, 64, 33
1, 242837, Note_on_c, 0, 72, 65
1, 242893, Note_off_c, 0, 72, 61
1, 242904, Note_on_c, 0, 73, 62
1, 242927, Control_c, 0, 64, 33
1, 242948, Note_off_c, 0, 73, 62
1, 242987, Note_on_c, 0, 74, 56
1, 243006, Note_off_c, 0, 74, 63
1, 243039, Note_on_c, 0, 75, 64
1, 243073, Note_off_c, 0, 75, 66
1, 243112, Note_on_c, 0, 76, 67
1, 243136, Control_c, 0, 64, 34
1, 243154, Note_off_c, 0, 76, 62
1, 243176, Note_on_c, 0, 77, 64
1, 243214, Note_off_c, 0, 77, 62
1, 243222, Note_on_c, 0, 78, 62
1, 243268, Note_off_c, 0, 78, 60
1, 243295, Note_on_c, 0, 79, 67
1, 243313, Control_c, 0, 64, 34
1, 243321, Note_off_c, 0, 79, 67
1, 243328, Control_c, 0, 64, 36
1, 243352, Note_on_c, 0, 80, 66
1, 243358, Control_c, 0, 64, 35
1, 243372, Control_c, 0, 64, 35
1, 243380, Note_off_c, 0, 80, 63
1, 243402, Control_c, 0, 64, 35
1, 243417, Note_on_c, 0, 81, 73
1, 243417, Control_c, 0, 64, 36
1, 243432, Control_c, 0, 64, 35
1, 243440, Note_off_c, 0, 81, 63
1, 243446, Control_c, 0, 64, 35
1, 243461, Control_c, 0, 64, 34
1, 243475, Note_on_c, 0, 82, 66
1, 243484, Control_c, 0, 64, 35
1, 243498, Control_c, 0, 64, 36
1, 243513, Control_c, 0, 64, 36
1, 243538, Note_on_c, 0, 83, 61
1, 243543, Control_c, 0, 64, 36
1, 243558, Control_c, 0, 64, 35
1, 243572, Control_c, 0, 64, 34
1, 243587, Control_c, 0, 64, 34
1, 243613, Note_on_c, 0, 84, 65
1, 243613, Note_off_c, 0, 82, 34
1, 243619, Note_on_c, 0, 75, 46
1, 243628, Note_off_c, 0, 83, 64
1, 243630, Note_on_c, 0, 68, 46
1, 243631, Control_c, 0, 64, 33
1, 243636, Note_on_c, 0, 72, 41
1, 243646, Control_c, 0, 64, 31
1, 243661, Control_c, 0, 64, 28
1, 243676, Control_c, 0, 64, 27
1, 243705, Control_c, 0, 64, 27
1, 243720, Control_c, 0, 64, 25
1, 243735, Control_c, 0, 64, 22
1, 243750, Control_c, 0, 64, 21
1, 243765, Control_c, 0, 64, 22
1, 243855, Control_c, 0, 64, 22
1, 243887, Note_on_c, 0, 77, 59
1, 243900, Note_off_c, 0, 84, 43
1, 243911, Note_off_c, 0, 77, 63
1, 243964, Note_on_c, 0, 77, 58
1, 244047, Control_c, 0, 64, 23
1, 244092, Control_c, 0, 64, 22
1, 244136, Control_c, 0, 64, 23
1, 244265, Note_off_c, 0, 77, 61
1, 244277, Note_off_c, 0, 75, 63
1, 244283, Note_off_c, 0, 72, 61
1, 244292, Control_c, 0, 64, 23
1, 244309, Note_off_c, 0, 68, 55
1, 244351, Control_c, 0, 64, 24
1, 244366, Control_c, 0, 64, 27
1, 244381, Control_c, 0, 64, 29
1, 244425, Control_c, 0, 64, 29
1, 244469, Control_c, 0, 64, 29
1, 244484, Control_c, 0, 64, 29
1, 244499, Control_c, 0, 64, 28
1, 244588, Control_c, 0, 64, 28
1, 244647, Note_on_c, 0, 71, 45
1, 244698, Note_off_c, 0, 71, 58
1, 244700, Note_on_c, 0, 72, 48
1, 244716, Note_on_c, 0, 63, 27
1, 244724, Note_on_c, 0, 56, 40
1, 244724, Note_on_c, 0, 60, 36
1, 244958, Control_c, 0, 64, 27
1, 244989, Note_off_c, 0, 72, 42
1, 244993, Note_on_c, 0, 65, 46
1, 244996, Control_c, 0, 64, 26
1, 245019, Note_off_c, 0, 65, 58
1, 245025, Control_c, 0, 64, 26
1, 245069, Control_c, 0, 64, 25
1, 245089, Note_on_c, 0, 65, 53
1, 245099, Control_c, 0, 64, 25
1, 245276, Control_c, 0, 64, 26
1, 245321, Control_c, 0, 64, 25
1, 245359, Note_off_c, 0, 65, 59
1, 245365, Control_c, 0, 64, 26
1, 245369, Note_off_c, 0, 63, 55
1, 245381, Note_off_c, 0, 60, 47
1, 245413, Note_off_c, 0, 56, 56
1, 245485, Control_c, 0, 64, 26
1, 245617, Control_c, 0, 64, 26
1, 245862, Control_c, 0, 64, 27
1, 245877, Control_c, 0, 64, 27
1, 245891, Control_c, 0, 64, 28
1, 245906, Control_c, 0, 64, 28
1, 245921, Control_c, 0, 64, 31
1, 245936, Control_c, 0, 64, 36
1, 245951, Control_c, 0, 64, 43
1, 245965, Control_c, 0, 64, 48
1, 245980, Control_c, 0, 64, 53
1, 245995, Control_c, 0, 64, 57
1, 246009, Note_on_c, 0, 53, 34
1, 246010, Control_c, 0, 64, 61
1, 246011, Note_on_c, 0, 51, 36
1, 246024, Control_c, 0, 64, 63
1, 246027, Note_on_c, 0, 32, 32
1, 246030, Note_on_c, 0, 48, 14
1, 246032, Note_on_c, 0, 44, 20
1, 246039, Control_c, 0, 64, 65
1, 246054, Control_c, 0, 64, 67
1, 246069, Control_c, 0, 64, 71
1, 246084, Control_c, 0, 64, 76
1, 246099, Control_c, 0, 64, 80
1, 246114, Control_c, 0, 64, 86
1, 246128, Control_c, 0, 64, 91
1, 246143, Control_c, 0, 64, 97
1, 246158, Control_c, 0, 64, 102
1, 246167, Note_off_c, 0, 51, 43
1, 246173, Control_c, 0, 64, 109
1, 246188, Control_c, 0, 64, 120
1, 246194, Note_off_c, 0, 48, 32
1, 246203, Control_c, 0, 64, 127
1, 246236, Note_off_c, 0, 53, 35
1, 246242, Note_off_c, 0, 44, 33
1, 246254, Note_off_c, 0, 32, 29
1, 246487, Note_on_c, 0, 53, 51
1, 246490, Note_on_c, 0, 51, 50
1, 246501, Note_on_c, 0, 48, 38
1, 246508, Note_on_c, 0, 32, 44
1, 246509, Note_on_c, 0, 44, 41
1, 246634, Note_off_c, 0, 51, 32
1, 246662, Note_off_c, 0, 48, 27
1, 246679, Note_off_c, 0, 32, 30
1, 246688, Note_off_c, 0, 44, 31
1, 246696, Note_off_c, 0, 53, 26
1, 246901, Note_on_c, 0, 53, 60
1, 246906, Note_on_c, 0, 51, 55
1, 246912, Note_on_c, 0, 48, 49
1, 246917, Note_on_c, 0, 44, 50
1, 246921, Note_on_c, 0, 32, 47
1, 247048, Note_off_c, 0, 51, 35
1, 247067, Note_off_c, 0, 48, 35
1, 247079, Note_off_c, 0, 53, 35
1, 247093, Note_off_c, 0, 32, 40
1, 247109, Note_off_c, 0, 44, 34
1, 247467, Note_on_c, 0, 54, 55
1, 247474, Note_on_c, 0, 51, 55
1, 247484, Note_on_c, 0, 45, 48
1, 247487, Note_on_c, 0, 48, 45
1, 247493, Control_c, 0, 64, 108
1, 247496, Note_on_c, 0, 33, 48
1, 247508, Control_c, 0, 64, 98
1, 247523, Control_c, 0, 64, 89
1, 247538, Control_c, 0, 64, 77
1, 247552, Control_c, 0, 64, 68
1, 247567, Control_c, 0, 64, 60
1, 247582, Control_c, 0, 64, 49
1, 247596, Control_c, 0, 64, 38
1, 247611, Control_c, 0, 64, 23
1, 247626, Control_c, 0, 64, 0
1, 248005, Control_c, 0, 64, 32
1, 248019, Control_c, 0, 64, 48
1, 248034, Control_c, 0, 64, 57
1, 248049, Control_c, 0, 64, 62
1, 248064, Control_c, 0, 64, 65
1, 248079, Control_c, 0, 64, 69
1, 248093, Control_c, 0, 64, 75
1, 248108, Control_c, 0, 64, 83
1, 248123, Control_c, 0, 64, 93
1, 248138, Control_c, 0, 64, 104
1, 248153, Control_c, 0, 64, 127
1, 248199, Note_off_c, 0, 48, 30
1, 248216, Note_off_c, 0, 51, 34
1, 248258, Note_off_c, 0, 54, 33
1, 248306, Note_off_c, 0, 33, 34
1, 248338, Note_off_c, 0, 45, 33
1, 249035, Control_c, 0, 64, 118
1, 249035, Note_on_c, 0, 78, 61
1, 249047, Note_on_c, 0, 75, 55
1, 249048, Note_on_c, 0, 72, 41
1, 249050, Control_c, 0, 64, 96
1, 249062, Note_on_c, 0, 69, 44
1, 249065, Control_c, 0, 64, 78
1, 249080, Control_c, 0, 64, 66
1, 249094, Control_c, 0, 64, 54
1, 249109, Control_c, 0, 64, 38
1, 249124, Control_c, 0, 64, 14
1, 249139, Control_c, 0, 64, 0
1, 249154, Control_c, 0, 64, 24
1, 249168, Control_c, 0, 64, 47
1, 249183, Control_c, 0, 64, 60
1, 249198, Control_c, 0, 64, 67
1, 249213, Control_c, 0, 64, 74
1, 249228, Control_c, 0, 64, 82
1, 249243, Control_c, 0, 64, 90
1, 249258, Control_c, 0, 64, 97
1, 249260, Note_off_c, 0, 78, 0
1, 249262, Note_off_c, 0, 75, 32
1, 249273, Control_c, 0, 64, 109
1, 249288, Control_c, 0, 64, 127
1, 249304, Poly_aftertouch_c, 0, 78, 0
1, 249321, Note_off_c, 0, 72, 40
1, 249322, Note_off_c, 0, 69, 40
1, 249473, Control_c, 0, 64, 108
1, 249479, Note_on_c, 0, 78, 73
1, 249483, Note_on_c, 0, 72, 44
1, 249488, Note_on_c, 0, 75, 63
1, 249488, Control_c, 0, 64, 81
1, 249494, Note_on_c, 0, 69, 43
1, 249503, Control_c, 0, 64, 65
1, 249518, Control_c, 0, 64, 51
1, 249533, Control_c, 0, 64, 33
1, 249548, Control_c, 0, 64, 27
1, 249562, Control_c, 0, 64, 42
1, 249577, Control_c, 0, 64, 59
1, 249592, Control_c, 0, 64, 69
1, 249607, Control_c, 0, 64, 80
1, 249622, Control_c, 0, 64, 93
1, 249637, Control_c, 0, 64, 101
1, 249652, Control_c, 0, 64, 104
1, 249666, Control_c, 0, 64, 111
1, 249681, Control_c, 0, 64, 127
1, 249700, Note_off_c, 0, 75, 39
1, 249717, Note_off_c, 0, 69, 32
1, 249728, Note_off_c, 0, 72, 32
1, 249735, Note_off_c, 0, 78, 31
1, 249969, Note_on_c, 0, 78, 61
1, 249985, Note_on_c, 0, 75, 51
1, 249989, Note_on_c, 0, 72, 38
1, 249992, Note_on_c, 0, 69, 41
1, 249992, Control_c, 0, 64, 103
1, 250007, Control_c, 0, 64, 81
1, 250022, Control_c, 0, 64, 67
1, 250036, Control_c, 0, 64, 54
1, 250051, Control_c, 0, 64, 41
1, 250066, Control_c, 0, 64, 32
1, 250081, Control_c, 0, 64, 33
1, 250096, Control_c, 0, 64, 41
1, 250110, Control_c, 0, 64, 53
1, 250125, Control_c, 0, 64, 62
1, 250140, Control_c, 0, 64, 67
1, 250149, Note_off_c, 0, 75, 39
1, 250155, Control_c, 0, 64, 73
1, 250170, Control_c, 0, 64, 80
1, 250184, Control_c, 0, 64, 90
1, 250199, Control_c, 0, 64, 100
1, 250221, Control_c, 0, 64, 111
1, 250237, Control_c, 0, 64, 127
1, 250262, Note_off_c, 0, 78, 0
1, 250273, Note_off_c, 0, 69, 34
1, 250278, Note_off_c, 0, 72, 35
1, 250308, Poly_aftertouch_c, 0, 78, 0
1, 250670, Note_on_c, 0, 79, 47
1, 250682, Note_on_c, 0, 70, 39
1, 250689, Note_on_c, 0, 75, 37
1, 250726, Control_c, 0, 64, 106
1, 250740, Control_c, 0, 64, 89
1, 250755, Control_c, 0, 64, 77
1, 250770, Control_c, 0, 64, 68
1, 250785, Control_c, 0, 64, 61
1, 250800, Control_c, 0, 64, 53
1, 250814, Control_c, 0, 64, 48
1, 250829, Control_c, 0, 64, 44
1, 250844, Control_c, 0, 64, 40
1, 250859, Control_c, 0, 64, 35
1, 250874, Control_c, 0, 64, 26
1, 250889, Control_c, 0, 64, 9
1, 250904, Control_c, 0, 64, 0
1, 251027, Note_off_c, 0, 70, 57
1, 251028, Note_off_c, 0, 79, 61
1, 251033, Note_off_c, 0, 75, 43
1, 251392, Note_on_c, 0, 78, 46
1, 251401, Control_c, 0, 64, 31
1, 251402, Note_on_c, 0, 75, 28
1, 251416, Control_c, 0, 64, 52
1, 251420, Note_on_c, 0, 72, 23
1, 251420, Note_on_c, 0, 69, 29
1, 251430, Control_c, 0, 64, 61
1, 251445, Note_off_c, 0, 75, 47
1, 251445, Control_c, 0, 64, 66
1, 251460, Control_c, 0, 64, 69
1, 251475, Control_c, 0, 64, 72
1, 251489, Control_c, 0, 64, 76
1, 251503, Control_c, 0, 64, 80
1, 251518, Control_c, 0, 64, 84
1, 251530, Note_off_c, 0, 78, 41
1, 251533, Control_c, 0, 64, 88
1, 251536, Note_off_c, 0, 69, 32
1, 251548, Control_c, 0, 64, 92
1, 251551, Note_off_c, 0, 72, 32
1, 251563, Control_c, 0, 64, 95
1, 251578, Control_c, 0, 64, 99
1, 251592, Control_c, 0, 64, 101
1, 251607, Control_c, 0, 64, 102
1, 251667, Control_c, 0, 64, 101
1, 251675, Note_on_c, 0, 79, 51
1, 251681, Control_c, 0, 64, 98
1, 251684, Note_on_c, 0, 70, 52
1, 251690, Note_on_c, 0, 75, 45
1, 251696, Control_c, 0, 64, 91
1, 251718, Control_c, 0, 64, 82
1, 251733, Control_c, 0, 64, 74
1, 251748, Control_c, 0, 64, 66
1, 251762, Control_c, 0, 64, 59
1, 251777, Control_c, 0, 64, 51
1, 251792, Control_c, 0, 64, 44
1, 251807, Control_c, 0, 64, 39
1, 251822, Control_c, 0, 64, 34
1, 251838, Control_c, 0, 64, 29
1, 251853, Control_c, 0, 64, 23
1, 251867, Control_c, 0, 64, 16
1, 251876, Note_off_c, 0, 70, 50
1, 251882, Control_c, 0, 64, 11
1, 251900, Note_off_c, 0, 75, 45
1, 251900, Note_off_c, 0, 79, 59
1, 251941, Control_c, 0, 64, 10
1, 252001, Control_c, 0, 64, 11
1, 252060, Control_c, 0, 64, 10
1, 252075, Control_c, 0, 64, 8
1, 252090, Control_c, 0, 64, 0
1, 252164, Control_c, 0, 64, 11
1, 252179, Control_c, 0, 64, 20
1, 252193, Control_c, 0, 64, 32
1, 252208, Control_c, 0, 64, 46
1, 252223, Control_c, 0, 64, 58
1, 252238, Control_c, 0, 64, 63
1, 252246, Note_on_c, 0, 72, 33
1, 252248, Note_on_c, 0, 78, 50
1, 252252, Control_c, 0, 64, 65
1, 252263, Note_on_c, 0, 69, 39
1, 252264, Note_on_c, 0, 75, 38
1, 252267, Control_c, 0, 64, 68
1, 252282, Control_c, 0, 64, 72
1, 252296, Note_off_c, 0, 75, 56
1, 252297, Control_c, 0, 64, 79
1, 252311, Control_c, 0, 64, 87
1, 252326, Control_c, 0, 64, 95
1, 252341, Control_c, 0, 64, 100
1, 252356, Control_c, 0, 64, 105
1, 252371, Control_c, 0, 64, 112
1, 252378, Note_off_c, 0, 78, 44
1, 252385, Control_c, 0, 64, 127
1, 252391, Note_off_c, 0, 72, 42
1, 252409, Note_off_c, 0, 69, 25
1, 252585, Control_c, 0, 64, 124
1, 252591, Note_on_c, 0, 79, 62
1, 252600, Note_on_c, 0, 70, 52
1, 252600, Control_c, 0, 64, 105
1, 252609, Note_on_c, 0, 75, 46
1, 252615, Control_c, 0, 64, 92
1, 252631, Control_c, 0, 64, 78
1, 252646, Control_c, 0, 64, 64
1, 252661, Control_c, 0, 64, 49
1, 252676, Control_c, 0, 64, 30
1, 252690, Control_c, 0, 64, 0
1, 252705, Control_c, 0, 64, 16
1, 252720, Control_c, 0, 64, 39
1, 252734, Control_c, 0, 64, 60
1, 252749, Note_off_c, 0, 75, 32
1, 252749, Control_c, 0, 64, 69
1, 252764, Control_c, 0, 64, 78
1, 252779, Control_c, 0, 64, 92
1, 252794, Control_c, 0, 64, 106
1, 252809, Control_c, 0, 64, 127
1, 252874, Note_off_c, 0, 79, 60
1, 252905, Note_off_c, 0, 70, 60
1, 252988, Note_on_c, 0, 80, 53
1, 253049, Note_on_c, 0, 82, 56
1, 253077, Note_off_c, 0, 80, 35
1, 253109, Note_on_c, 0, 79, 67
1, 253158, Note_off_c, 0, 82, 32
1, 253165, Control_c, 0, 64, 114
1, 253166, Note_off_c, 0, 79, 61
1, 253180, Control_c, 0, 64, 105
1, 253186, Note_on_c, 0, 76, 73
1, 253195, Control_c, 0, 64, 95
1, 253217, Control_c, 0, 64, 86
1, 253218, Note_off_c, 0, 76, 66
1, 253232, Control_c, 0, 64, 79
1, 253247, Control_c, 0, 64, 73
1, 253260, Note_on_c, 0, 77, 67
1, 253261, Control_c, 0, 64, 69
1, 253276, Control_c, 0, 64, 65
1, 253291, Control_c, 0, 64, 60
1, 253306, Control_c, 0, 64, 56
1, 253321, Control_c, 0, 64, 53
1, 253327, Note_on_c, 0, 79, 66
1, 253335, Control_c, 0, 64, 51
1, 253350, Control_c, 0, 64, 49
1, 253365, Control_c, 0, 64, 47
1, 253378, Note_on_c, 0, 75, 61
1, 253380, Control_c, 0, 64, 45
1, 253395, Control_c, 0, 64, 44
1, 253406, Note_off_c, 0, 79, 58
1, 253408, Note_on_c, 0, 65, 41
1, 253414, Note_off_c, 0, 77, 43
1, 253420, Note_on_c, 0, 58, 40
1, 253429, Note_on_c, 0, 68, 45
1, 253435, Note_off_c, 0, 75, 62
1, 253442, Note_on_c, 0, 73, 68
1, 253455, Control_c, 0, 64, 43
1, 253470, Control_c, 0, 64, 41
1, 253485, Control_c, 0, 64, 41
1, 253491, Note_off_c, 0, 73, 49
1, 253506, Note_on_c, 0, 74, 77
1, 253544, Control_c, 0, 64, 40
1, 253587, Note_on_c, 0, 75, 73
1, 253611, Note_off_c, 0, 74, 63
1, 253617, Note_on_c, 0, 72, 67
1, 253618, Control_c, 0, 64, 40
1, 253632, Control_c, 0, 64, 39
1, 253655, Note_off_c, 0, 75, 63
1, 253662, Control_c, 0, 64, 40
1, 253671, Note_off_c, 0, 68, 64
1, 253682, Note_off_c, 0, 72, 61
1, 253688, Note_off_c, 0, 65, 64
1, 253696, Note_on_c, 0, 69, 74
1, 253706, Control_c, 0, 64, 40
1, 253718, Note_off_c, 0, 58, 63
1, 253733, Note_off_c, 0, 69, 63
1, 253736, Control_c, 0, 64, 41
1, 253751, Control_c, 0, 64, 42
1, 253766, Control_c, 0, 64, 43
1, 253772, Note_on_c, 0, 70, 76
1, 253825, Control_c, 0, 64, 43
1, 253849, Note_on_c, 0, 72, 67
1, 253861, Note_off_c, 0, 70, 60
1, 253864, Note_on_c, 0, 68, 68
1, 253884, Control_c, 0, 64, 43
1, 253895, Note_off_c, 0, 68, 65
1, 253912, Note_off_c, 0, 72, 62
1, 253914, Control_c, 0, 64, 43
1, 253970, Note_on_c, 0, 66, 68
1, 253972, Note_on_c, 0, 56, 68
1, 253977, Note_on_c, 0, 46, 62
1, 253980, Note_on_c, 0, 50, 60
1, 253995, Note_off_c, 0, 66, 68
1, 254034, Note_on_c, 0, 67, 71
1, 254040, Control_c, 0, 64, 43
1, 254055, Control_c, 0, 64, 42
1, 254070, Control_c, 0, 64, 41
1, 254090, Note_off_c, 0, 56, 57
1, 254131, Note_on_c, 0, 68, 70
1, 254136, Note_off_c, 0, 50, 61
1, 254142, Note_off_c, 0, 46, 56
1, 254158, Note_on_c, 0, 65, 66
1, 254158, Note_off_c, 0, 67, 62
1, 254158, Control_c, 0, 64, 40
1, 254185, Note_off_c, 0, 68, 65
1, 254186, Note_off_c, 0, 65, 68
1, 254188, Control_c, 0, 64, 40
1, 254203, Control_c, 0, 64, 39
1, 254263, Control_c, 0, 64, 39
1, 254275, Note_on_c, 0, 51, 61
1, 254275, Note_on_c, 0, 55, 69
1, 254278, Note_on_c, 0, 63, 66
1, 254278, Control_c, 0, 64, 38
1, 254293, Control_c, 0, 64, 36
1, 254307, Control_c, 0, 64, 36
1, 254339, Note_off_c, 0, 51, 62
1, 254350, Note_on_c, 0, 53, 62
1, 254352, Control_c, 0, 64, 35
1, 254367, Control_c, 0, 64, 34
1, 254417, Note_on_c, 0, 51, 60
1, 254420, Note_off_c, 0, 53, 59
1, 254469, Note_off_c, 0, 55, 35
1, 254478, Note_off_c, 0, 51, 62
1, 254485, Control_c, 0, 64, 35
1, 254490, Note_on_c, 0, 50, 67
1, 254490, Note_off_c, 0, 63, 51
1, 254514, Control_c, 0, 64, 34
1, 254529, Control_c, 0, 64, 34
1, 254545, Note_on_c, 0, 51, 61
1, 254571, Note_off_c, 0, 50, 61
1, 254618, Note_on_c, 0, 53, 71
1, 254638, Note_off_c, 0, 51, 60
1, 254675, Note_off_c, 0, 53, 62
1, 254678, Note_on_c, 0, 55, 70
1, 254693, Control_c, 0, 64, 34
1, 254755, Note_off_c, 0, 55, 62
1, 254767, Note_on_c, 0, 56, 64
1, 254788, Control_c, 0, 64, 35
1, 254817, Note_on_c, 0, 58, 68
1, 254822, Note_off_c, 0, 56, 64
1, 254841, Note_off_c, 0, 58, 67
1, 254848, Control_c, 0, 64, 36
1, 254863, Control_c, 0, 64, 37
1, 254922, Control_c, 0, 64, 38
1, 254937, Control_c, 0, 64, 39
1, 254952, Control_c, 0, 64, 40
1, 254984, Note_on_c, 0, 55, 65
1, 254996, Control_c, 0, 64, 40
1, 255011, Note_off_c, 0, 55, 66
1, 255011, Control_c, 0, 64, 39
1, 255071, Control_c, 0, 64, 39
1, 255086, Control_c, 0, 64, 38
1, 255129, Note_on_c, 0, 70, 63
1, 255130, Control_c, 0, 64, 39
1, 255134, Note_on_c, 0, 53, 71
1, 255158, Note_off_c, 0, 53, 67
1, 255205, Note_off_c, 0, 70, 61
1, 255209, Note_on_c, 0, 72, 64
1, 255233, Control_c, 0, 64, 38
1, 255247, Control_c, 0, 64, 38
1, 255268, Note_on_c, 0, 56, 67
1, 255275, Note_on_c, 0, 70, 68
1, 255277, Control_c, 0, 64, 38
1, 255286, Note_off_c, 0, 72, 58
1, 255304, Note_off_c, 0, 56, 63
1, 255322, Control_c, 0, 64, 38
1, 255336, Note_off_c, 0, 70, 63
1, 255338, Note_on_c, 0, 69, 71
1, 255351, Control_c, 0, 64, 37
1, 255366, Control_c, 0, 64, 37
1, 255381, Control_c, 0, 64, 35
1, 255396, Control_c, 0, 64, 35
1, 255402, Note_on_c, 0, 70, 72
1, 255406, Note_on_c, 0, 50, 70
1, 255408, Note_off_c, 0, 69, 63
1, 255411, Control_c, 0, 64, 34
1, 255426, Control_c, 0, 64, 33
1, 255429, Note_off_c, 0, 50, 67
1, 255441, Control_c, 0, 64, 33
1, 255442, Note_off_c, 0, 70, 62
1, 255462, Control_c, 0, 64, 32
1, 255477, Note_on_c, 0, 72, 71
1, 255522, Control_c, 0, 64, 32
1, 255543, Note_on_c, 0, 53, 68
1, 255543, Note_off_c, 0, 72, 58
1, 255545, Note_on_c, 0, 74, 79
1, 255575, Note_off_c, 0, 53, 65
1, 255606, Note_on_c, 0, 75, 81
1, 255610, Note_off_c, 0, 74, 60
1, 255678, Note_on_c, 0, 46, 67
1, 255679, Note_on_c, 0, 77, 82
1, 255693, Note_off_c, 0, 75, 64
1, 255700, Control_c, 0, 64, 31
1, 255707, Note_off_c, 0, 77, 66
1, 255711, Note_off_c, 0, 46, 63
1, 255729, Control_c, 0, 64, 30
1, 255843, Note_on_c, 0, 50, 64
1, 255846, Note_on_c, 0, 68, 74
1, 255870, Note_off_c, 0, 68, 70
1, 255873, Note_off_c, 0, 50, 64
1, 255923, Control_c, 0, 64, 30
1, 255938, Control_c, 0, 64, 29
1, 255986, Note_on_c, 0, 67, 74
1, 255994, Note_on_c, 0, 51, 61
1, 255998, Control_c, 0, 64, 28
1, 256060, Note_off_c, 0, 51, 62
1, 256069, Note_on_c, 0, 53, 70
1, 256144, Note_off_c, 0, 53, 60
1, 256144, Note_on_c, 0, 51, 68
1, 256216, Note_off_c, 0, 51, 62
1, 256225, Note_on_c, 0, 50, 69
1, 256288, Note_on_c, 0, 51, 58
1, 256291, Note_off_c, 0, 67, 35
1, 256308, Note_off_c, 0, 50, 61
1, 256346, Control_c, 0, 64, 29
1, 256359, Note_on_c, 0, 53, 70
1, 256381, Note_off_c, 0, 51, 61
1, 256390, Control_c, 0, 64, 28
1, 256410, Note_off_c, 0, 53, 63
1, 256418, Note_on_c, 0, 55, 74
1, 256434, Control_c, 0, 64, 29
1, 256470, Note_off_c, 0, 55, 62
1, 256478, Control_c, 0, 64, 28
1, 256492, Note_on_c, 0, 56, 70
1, 256508, Control_c, 0, 64, 29
1, 256558, Note_off_c, 0, 56, 61
1, 256569, Note_on_c, 0, 60, 74
1, 256597, Control_c, 0, 64, 29
1, 256612, Control_c, 0, 64, 30
1, 256643, Note_on_c, 0, 58, 72
1, 256649, Note_off_c, 0, 60, 55
1, 256657, Control_c, 0, 64, 29
1, 256687, Control_c, 0, 64, 30
1, 256722, Note_on_c, 0, 56, 73
1, 256724, Note_off_c, 0, 58, 63
1, 256791, Control_c, 0, 64, 30
1, 256806, Control_c, 0, 64, 31
1, 256808, Note_on_c, 0, 55, 67
1, 256814, Note_off_c, 0, 56, 63
1, 256850, Control_c, 0, 64, 31
1, 256868, Note_on_c, 0, 82, 68
1, 256878, Note_on_c, 0, 53, 74
1, 256881, Note_off_c, 0, 55, 64
1, 256907, Note_off_c, 0, 53, 69
1, 256924, Control_c, 0, 64, 31
1, 256950, Note_off_c, 0, 82, 63
1, 256955, Note_on_c, 0, 84, 68
1, 256991, Control_c, 0, 64, 30
1, 257021, Control_c, 0, 64, 30
1, 257021, Note_on_c, 0, 82, 69
1, 257026, Note_on_c, 0, 56, 74
1, 257033, Note_off_c, 0, 84, 63
1, 257035, Control_c, 0, 64, 29
1, 257050, Control_c, 0, 64, 28
1, 257056, Note_off_c, 0, 56, 66
1, 257084, Note_off_c, 0, 82, 64
1, 257085, Note_on_c, 0, 81, 77
1, 257109, Control_c, 0, 64, 27
1, 257124, Control_c, 0, 64, 24
1, 257156, Note_on_c, 0, 82, 75
1, 257158, Note_on_c, 0, 50, 75
1, 257168, Note_off_c, 0, 81, 62
1, 257190, Note_off_c, 0, 50, 67
1, 257198, Control_c, 0, 64, 25
1, 257203, Note_off_c, 0, 82, 66
1, 257230, Note_on_c, 0, 84, 78
1, 257242, Control_c, 0, 64, 25
1, 257257, Control_c, 0, 64, 26
1, 257297, Note_on_c, 0, 53, 69
1, 257298, Note_off_c, 0, 84, 58
1, 257304, Note_on_c, 0, 86, 78
1, 257329, Note_off_c, 0, 53, 65
1, 257363, Note_on_c, 0, 87, 79
1, 257370, Note_off_c, 0, 86, 56
1, 257431, Note_on_c, 0, 46, 70
1, 257440, Note_on_c, 0, 89, 79
1, 257443, Note_off_c, 0, 87, 63
1, 257463, Note_off_c, 0, 46, 67
1, 257495, Control_c, 0, 64, 27
1, 257503, Note_off_c, 0, 89, 59
1, 257510, Control_c, 0, 64, 27
1, 257521, Note_on_c, 0, 86, 67
1, 257524, Control_c, 0, 64, 28
1, 257582, Note_on_c, 0, 50, 65
1, 257586, Note_on_c, 0, 82, 79
1, 257614, Note_off_c, 0, 50, 64
1, 257620, Note_off_c, 0, 86, 59
1, 257650, Note_on_c, 0, 80, 68
1, 257674, Note_off_c, 0, 82, 60
1, 257710, Control_c, 0, 64, 27
1, 257721, Note_off_c, 0, 80, 61
1, 257725, Note_on_c, 0, 79, 71
1, 257735, Note_on_c, 0, 51, 64
1, 257746, Note_off_c, 0, 79, 69
1, 257763, Note_off_c, 0, 51, 66
1, 257891, Note_on_c, 0, 46, 59
1, 257903, Control_c, 0, 64, 28
1, 257918, Control_c, 0, 64, 28
1, 257921, Note_off_c, 0, 46, 65
1, 257947, Control_c, 0, 64, 28
1, 258033, Note_on_c, 0, 43, 63
1, 258036, Control_c, 0, 64, 27
1, 258059, Note_off_c, 0, 43, 66
1, 258080, Control_c, 0, 64, 27
1, 258095, Control_c, 0, 64, 26
1, 258110, Control_c, 0, 64, 25
1, 258174, Note_on_c, 0, 51, 56
1, 258187, Note_on_c, 0, 63, 52
1, 258204, Note_off_c, 0, 51, 64
1, 258219, Note_off_c, 0, 63, 66
1, 258303, Control_c, 0, 64, 25
1, 258329, Note_on_c, 0, 46, 55
1, 258339, Note_on_c, 0, 58, 54
1, 258362, Note_off_c, 0, 58, 59
1, 258365, Note_off_c, 0, 46, 64
1, 258407, Control_c, 0, 64, 25
1, 258499, Note_on_c, 0, 67, 58
1, 258502, Note_on_c, 0, 55, 46
1, 258503, Control_c, 0, 64, 24
1, 258526, Note_off_c, 0, 67, 65
1, 258527, Note_off_c, 0, 55, 55
1, 258651, Control_c, 0, 64, 24
1, 258656, Note_on_c, 0, 63, 61
1, 258657, Note_on_c, 0, 51, 52
1, 258682, Note_off_c, 0, 51, 58
1, 258684, Note_off_c, 0, 63, 66
1, 258755, Control_c, 0, 64, 24
1, 258770, Control_c, 0, 64, 25
1, 258795, Note_on_c, 0, 70, 63
1, 258797, Note_on_c, 0, 58, 59
1, 258827, Note_off_c, 0, 58, 65
1, 258831, Note_off_c, 0, 70, 64
1, 258946, Note_on_c, 0, 67, 65
1, 258950, Note_on_c, 0, 55, 43
1, 258975, Note_off_c, 0, 67, 66
1, 258976, Note_off_c, 0, 55, 54
1, 258977, Control_c, 0, 64, 24
1, 259052, Control_c, 0, 64, 24
1, 259099, Note_on_c, 0, 75, 63
1, 259107, Note_on_c, 0, 63, 44
1, 259127, Note_off_c, 0, 75, 67
1, 259138, Note_off_c, 0, 63, 54
1, 259208, Control_c, 0, 64, 23
1, 259222, Control_c, 0, 64, 23
1, 259254, Note_on_c, 0, 70, 68
1, 259256, Note_on_c, 0, 58, 53
1, 259280, Note_off_c, 0, 58, 58
1, 259283, Note_off_c, 0, 70, 65
1, 259406, Note_on_c, 0, 79, 59
1, 259410, Note_on_c, 0, 67, 52
1, 259435, Note_off_c, 0, 79, 66
1, 259436, Note_off_c, 0, 67, 58
1, 259548, Control_c, 0, 64, 23
1, 259559, Note_on_c, 0, 75, 67
1, 259565, Note_on_c, 0, 63, 57
1, 259584, Note_off_c, 0, 75, 69
1, 259588, Note_off_c, 0, 63, 62
1, 259652, Control_c, 0, 64, 23
1, 259667, Control_c, 0, 64, 22
1, 259721, Note_on_c, 0, 82, 63
1, 259724, Note_on_c, 0, 70, 55
1, 259748, Note_off_c, 0, 82, 68
1, 259763, Note_off_c, 0, 70, 62
1, 259870, Note_on_c, 0, 79, 68
1, 259873, Note_on_c, 0, 67, 55
1, 259894, Note_off_c, 0, 79, 68
1, 259899, Note_off_c, 0, 67, 60
1, 260060, Control_c, 0, 64, 23
1, 260071, Note_on_c, 0, 75, 65
1, 260075, Control_c, 0, 64, 22
1, 260090, Control_c, 0, 64, 21
1, 260096, Note_off_c, 0, 75, 65
1, 260105, Control_c, 0, 64, 20
1, 260119, Control_c, 0, 64, 20
1, 260149, Control_c, 0, 64, 19
1, 260164, Control_c, 0, 64, 19
1, 260208, Control_c, 0, 64, 20
1, 260223, Control_c, 0, 64, 22
1, 260238, Control_c, 0, 64, 23
1, 260252, Control_c, 0, 64, 24
1, 260282, Control_c, 0, 64, 20
1, 260297, Control_c, 0, 64, 0
1, 260341, Note_on_c, 0, 74, 79
1, 260347, Note_on_c, 0, 68, 72
1, 260348, Note_on_c, 0, 65, 78
1, 260350, Note_on_c, 0, 46, 80
1, 260351, Note_on_c, 0, 58, 87
1, 260356, Control_c, 0, 64, 51
1, 260371, Control_c, 0, 64, 70
1, 260377, Note_off_c, 0, 58, 66
1, 260380, Note_off_c, 0, 65, 66
1, 260385, Note_off_c, 0, 46, 63
1, 260386, Control_c, 0, 64, 96
1, 260393, Note_off_c, 0, 68, 67
1, 260394, Note_off_c, 0, 74, 66
1, 260401, Control_c, 0, 64, 127
1, 260534, Control_c, 0, 64, 85
1, 260549, Control_c, 0, 64, 66
1, 260564, Control_c, 0, 64, 51
1, 260578, Control_c, 0, 64, 28
1, 260593, Control_c, 0, 64, 0
1, 260824, Control_c, 0, 64, 23
1, 260839, Control_c, 0, 64, 60
1, 260854, Control_c, 0, 64, 75
1, 260858, Note_on_c, 0, 67, 80
1, 260861, Note_on_c, 0, 51, 87
1, 260862, Note_on_c, 0, 63, 90
1, 260862, Note_on_c, 0, 75, 90
1, 260863, Note_on_c, 0, 39, 89
1, 260868, Control_c, 0, 64, 99
1, 260883, Control_c, 0, 64, 127
1, 260884, Note_off_c, 0, 51, 68
1, 260893, Note_off_c, 0, 39, 70
1, 260902, Note_off_c, 0, 63, 64
1, 260907, Note_off_c, 0, 67, 67
1, 260909, Note_off_c, 0, 75, 66
1, 261326, Control_c, 0, 64, 104
1, 261341, Control_c, 0, 64, 86
1, 261356, Control_c, 0, 64, 74
1, 261371, Control_c, 0, 64, 65
1, 261386, Control_c, 0, 64, 58
1, 261400, Control_c, 0, 64, 49
1, 261416, Control_c, 0, 64, 40
1, 261431, Control_c, 0, 64, 30
1, 261453, Control_c, 0, 64, 14
1, 261468, Control_c, 0, 64, 0
1, 261468, End_track
0, 0, End_of_file
