0, 0, Header, 0, 1, 384
1, 0, Start_track
1, 0, Title_t, "Hungarian Rhapsody 2-V. Levitsky"
1, 0, Text_t, "2008 e-Piano Junior Competition recital round"
1, 0, Text_t, "recorded July 2008"
1, 0, Text_t, "http://www.piano-e-competition.com/"
1, 0, Text_t, "File processed for distribution by software from Zenph Studios, Inc., http://www.zenph.com"
1, 0, Instrument_name_t, "Yamaha Disklavier Pro Mark IV concert grand piano, model DCFIIISM4PRO"
1, 0, Sequencer_specific, 39, 67, 113, 0, 1, 0, 1, 0, 72, 117, 110, 103, 97, 114, 105, 97, 110, 32, 82, 104, 97, 112, 46, 50, 86, 108, 97, 100, 105, 109, 105, 114, 76, 101, 118, 105, 116, 115, 107, 121
1, 0, Sequencer_specific, 6, 67, 113, 0, 0, 0, 69
1, 0, System_exclusive, 21, 67, 113, 126, 21, 0, 2, 2, 0, 3, 14, 1, 4, 1, 13, 13, 10, 11, 9, 2, 7, 247
1, 0, Sequencer_specific, 5, 67, 123, 12, 2, 1
1, 0, Tempo, 512820
1, 0, Time_signature, 4, 2, 24, 8
1, 0, System_exclusive, 5, 126, 127, 9, 1, 247
1, 1, System_exclusive, 8, 67, 16, 76, 0, 0, 126, 0, 247
1, 2, System_exclusive, 8, 67, 16, 76, 8, 9, 7, 1, 247
1, 3, Control_c, 0, 0, 0
1, 3, Control_c, 1, 0, 0
1, 3, Control_c, 2, 0, 0
1, 3, Control_c, 3, 0, 0
1, 3, Control_c, 4, 0, 0
1, 3, Control_c, 5, 0, 0
1, 3, Control_c, 6, 0, 0
1, 3, Control_c, 7, 0, 0
1, 3, Control_c, 8, 0, 0
1, 3, Control_c, 9, 0, 127
1, 3, Control_c, 10, 0, 0
1, 3, Control_c, 11, 0, 0
1, 3, Control_c, 12, 0, 0
1, 3, Control_c, 13, 0, 0
1, 3, Control_c, 14, 0, 0
1, 3, Control_c, 15, 0, 0
1, 4, Control_c, 0, 32, 0
1, 4, Control_c, 1, 32, 0
1, 4, Control_c, 2, 32, 0
1, 4, Control_c, 3, 32, 0
1, 4, Control_c, 4, 32, 0
1, 4, Control_c, 5, 32, 0
1, 4, Control_c, 6, 32, 0
1, 4, Control_c, 7, 32, 0
1, 4, Control_c, 8, 32, 0
1, 4, Control_c, 9, 32, 0
1, 4, Control_c, 10, 32, 0
1, 4, Control_c, 11, 32, 0
1, 4, Control_c, 12, 32, 0
1, 4, Control_c, 13, 32, 0
1, 4, Control_c, 14, 32, 0
1, 4, Control_c, 15, 32, 0
1, 5, Program_c, 0, 0
1, 5, Program_c, 1, 0
1, 5, Program_c, 2, 0
1, 5, Program_c, 3, 0
1, 5, Program_c, 4, 0
1, 5, Program_c, 5, 0
1, 5, Program_c, 6, 0
1, 5, Program_c, 7, 0
1, 5, Program_c, 8, 0
1, 5, Program_c, 9, 0
1, 5, Program_c, 10, 0
1, 5, Program_c, 11, 0
1, 5, Program_c, 12, 0
1, 5, Program_c, 13, 0
1, 5, Program_c, 14, 0
1, 5, Program_c, 15, 0
1, 6, Control_c, 0, 7, 100
1, 6, Control_c, 1, 7, 100
1, 6, Control_c, 2, 7, 100
1, 6, Control_c, 3, 7, 100
1, 6, Control_c, 4, 7, 100
1, 6, Control_c, 5, 7, 100
1, 6, Control_c, 6, 7, 100
1, 6, Control_c, 7, 7, 100
1, 6, Control_c, 8, 7, 100
1, 6, Control_c, 9, 7, 100
1, 6, Control_c, 10, 7, 100
1, 6, Control_c, 11, 7, 100
1, 6, Control_c, 12, 7, 100
1, 6, Control_c, 13, 7, 100
1, 6, Control_c, 14, 7, 100
1, 6, Control_c, 15, 7, 100
1, 117, Control_c, 0, 64, 12
1, 229, Control_c, 0, 64, 24
1, 341, Control_c, 0, 64, 36
1, 452, Control_c, 0, 64, 49
1, 564, Control_c, 0, 64, 60
1, 676, Control_c, 0, 64, 73
1, 787, Control_c, 0, 64, 84
1, 899, Control_c, 0, 64, 99
1, 1128, Note_on_c, 0, 61, 83
1, 1171, Note_off_c, 0, 61, 62
1, 1196, Control_c, 0, 64, 98
1, 1211, Control_c, 0, 64, 94
1, 1212, Note_on_c, 0, 61, 84
1, 1226, Control_c, 0, 64, 88
1, 1241, Control_c, 0, 64, 80
1, 1256, Control_c, 0, 64, 67
1, 1270, Control_c, 0, 64, 0
1, 1685, Control_c, 0, 64, 54
1, 1700, Control_c, 0, 64, 63
1, 1722, Control_c, 0, 64, 65
1, 1736, Control_c, 0, 64, 66
1, 1751, Control_c, 0, 64, 68
1, 1766, Control_c, 0, 64, 71
1, 1781, Control_c, 0, 64, 77
1, 1796, Control_c, 0, 64, 81
1, 1811, Control_c, 0, 64, 83
1, 1826, Control_c, 0, 64, 85
1, 1841, Control_c, 0, 64, 87
1, 1856, Control_c, 0, 64, 89
1, 1870, Control_c, 0, 64, 93
1, 1885, Control_c, 0, 64, 97
1, 1900, Control_c, 0, 64, 100
1, 1915, Control_c, 0, 64, 103
1, 1930, Control_c, 0, 64, 107
1, 1944, Control_c, 0, 64, 111
1, 1959, Control_c, 0, 64, 115
1, 1974, Control_c, 0, 64, 119
1, 1989, Control_c, 0, 64, 123
1, 2004, Control_c, 0, 64, 127
1, 2235, Note_on_c, 0, 44, 74
1, 2235, Note_on_c, 0, 56, 75
1, 2237, Note_on_c, 0, 49, 76
1, 2240, Note_on_c, 0, 53, 72
1, 2241, Note_on_c, 0, 37, 62
1, 2261, Note_off_c, 0, 49, 65
1, 2263, Note_off_c, 0, 44, 65
1, 2270, Note_off_c, 0, 53, 68
1, 2271, Note_off_c, 0, 37, 65
1, 2294, Note_off_c, 0, 56, 0
1, 2310, Note_on_c, 0, 49, 88
1, 2311, Note_on_c, 0, 56, 56
1, 2315, Note_on_c, 0, 53, 82
1, 2317, Note_on_c, 0, 44, 85
1, 2326, Note_on_c, 0, 37, 70
1, 2465, Note_off_c, 0, 49, 49
1, 2511, Note_off_c, 0, 53, 45
1, 2722, Note_off_c, 0, 56, 33
1, 2772, Note_off_c, 0, 44, 62
1, 2782, Note_off_c, 0, 37, 54
1, 2810, Note_off_c, 0, 61, 59
1, 3145, Note_on_c, 0, 61, 88
1, 3240, Note_off_c, 0, 61, 63
1, 3355, Note_on_c, 0, 59, 91
1, 3453, Note_on_c, 0, 61, 88
1, 3495, Note_off_c, 0, 59, 26
1, 3509, Note_off_c, 0, 61, 66
1, 3571, Note_on_c, 0, 59, 98
1, 3590, Control_c, 0, 64, 119
1, 3605, Control_c, 0, 64, 104
1, 3620, Control_c, 0, 64, 92
1, 3635, Control_c, 0, 64, 79
1, 3650, Control_c, 0, 64, 65
1, 3665, Control_c, 0, 64, 0
1, 4177, Control_c, 0, 64, 56
1, 4192, Control_c, 0, 64, 66
1, 4207, Control_c, 0, 64, 71
1, 4221, Control_c, 0, 64, 76
1, 4236, Control_c, 0, 64, 82
1, 4251, Control_c, 0, 64, 88
1, 4266, Control_c, 0, 64, 93
1, 4281, Control_c, 0, 64, 96
1, 4295, Control_c, 0, 64, 100
1, 4310, Control_c, 0, 64, 105
1, 4325, Control_c, 0, 64, 111
1, 4339, Control_c, 0, 64, 117
1, 4354, Control_c, 0, 64, 126
1, 4369, Control_c, 0, 64, 127
1, 4553, Note_on_c, 0, 44, 71
1, 4561, Note_on_c, 0, 54, 76
1, 4562, Note_on_c, 0, 38, 60
1, 4562, Note_on_c, 0, 50, 77
1, 4565, Note_on_c, 0, 32, 53
1, 4578, Note_off_c, 0, 44, 66
1, 4586, Note_off_c, 0, 50, 66
1, 4594, Note_off_c, 0, 38, 64
1, 4596, Note_off_c, 0, 54, 61
1, 4628, Note_off_c, 0, 32, 0
1, 4628, Note_on_c, 0, 32, 54
1, 4632, Note_on_c, 0, 44, 85
1, 4643, Note_on_c, 0, 50, 82
1, 4644, Note_on_c, 0, 38, 68
1, 4650, Note_on_c, 0, 54, 67
1, 4693, Note_off_c, 0, 50, 58
1, 4712, Note_off_c, 0, 54, 56
1, 5010, Note_off_c, 0, 38, 61
1, 5021, Note_off_c, 0, 32, 61
1, 5028, Note_off_c, 0, 44, 62
1, 5060, Note_on_c, 0, 61, 89
1, 5090, Note_off_c, 0, 59, 60
1, 5127, Note_off_c, 0, 61, 65
1, 5378, Note_on_c, 0, 64, 94
1, 5400, Control_c, 0, 64, 120
1, 5415, Control_c, 0, 64, 98
1, 5430, Control_c, 0, 64, 79
1, 5445, Control_c, 0, 64, 0
1, 5540, Control_c, 0, 64, 42
1, 5555, Control_c, 0, 64, 67
1, 5570, Control_c, 0, 64, 76
1, 5585, Control_c, 0, 64, 84
1, 5589, Note_on_c, 0, 62, 91
1, 5600, Control_c, 0, 64, 90
1, 5605, Note_off_c, 0, 64, 52
1, 5614, Control_c, 0, 64, 94
1, 5629, Control_c, 0, 64, 98
1, 5644, Control_c, 0, 64, 104
1, 5659, Control_c, 0, 64, 111
1, 5674, Control_c, 0, 64, 117
1, 5689, Control_c, 0, 64, 122
1, 5703, Control_c, 0, 64, 127
1, 5711, Note_on_c, 0, 61, 92
1, 5719, Note_off_c, 0, 62, 61
1, 5775, Note_off_c, 0, 61, 61
1, 5939, Note_on_c, 0, 61, 95
1, 5970, Control_c, 0, 64, 111
1, 5984, Control_c, 0, 64, 95
1, 5999, Control_c, 0, 64, 80
1, 6014, Control_c, 0, 64, 64
1, 6029, Control_c, 0, 64, 0
1, 6467, Control_c, 0, 64, 62
1, 6482, Control_c, 0, 64, 67
1, 6497, Control_c, 0, 64, 71
1, 6512, Control_c, 0, 64, 76
1, 6526, Control_c, 0, 64, 81
1, 6541, Control_c, 0, 64, 84
1, 6556, Control_c, 0, 64, 86
1, 6571, Control_c, 0, 64, 91
1, 6586, Control_c, 0, 64, 97
1, 6601, Control_c, 0, 64, 103
1, 6616, Control_c, 0, 64, 108
1, 6631, Control_c, 0, 64, 112
1, 6646, Control_c, 0, 64, 115
1, 6661, Control_c, 0, 64, 119
1, 6675, Control_c, 0, 64, 125
1, 6690, Control_c, 0, 64, 127
1, 6797, Note_on_c, 0, 49, 76
1, 6798, Note_on_c, 0, 56, 72
1, 6799, Note_on_c, 0, 53, 73
1, 6802, Note_on_c, 0, 44, 84
1, 6807, Note_on_c, 0, 37, 74
1, 6820, Note_off_c, 0, 49, 66
1, 6824, Note_off_c, 0, 44, 67
1, 6826, Note_off_c, 0, 53, 67
1, 6831, Note_off_c, 0, 37, 68
1, 6839, Note_off_c, 0, 56, 61
1, 6869, Note_on_c, 0, 49, 86
1, 6873, Note_on_c, 0, 44, 83
1, 6873, Note_on_c, 0, 56, 56
1, 6878, Note_on_c, 0, 53, 87
1, 6884, Note_on_c, 0, 37, 78
1, 7022, Note_off_c, 0, 49, 23
1, 7043, Note_off_c, 0, 53, 56
1, 7233, Note_off_c, 0, 56, 50
1, 7349, Note_off_c, 0, 44, 59
1, 7355, Note_off_c, 0, 37, 63
1, 7373, Note_off_c, 0, 61, 53
1, 7641, Note_on_c, 0, 61, 86
1, 7761, Note_off_c, 0, 61, 59
1, 7849, Note_on_c, 0, 59, 79
1, 7923, Note_off_c, 0, 59, 59
1, 7955, Note_on_c, 0, 61, 87
1, 8012, Note_off_c, 0, 61, 65
1, 8077, Note_on_c, 0, 59, 99
1, 8113, Control_c, 0, 64, 118
1, 8128, Control_c, 0, 64, 104
1, 8143, Control_c, 0, 64, 90
1, 8158, Control_c, 0, 64, 76
1, 8172, Control_c, 0, 64, 60
1, 8187, Control_c, 0, 64, 0
1, 8670, Control_c, 0, 64, 47
1, 8685, Control_c, 0, 64, 67
1, 8700, Control_c, 0, 64, 73
1, 8715, Control_c, 0, 64, 80
1, 8729, Control_c, 0, 64, 85
1, 8744, Control_c, 0, 64, 89
1, 8759, Control_c, 0, 64, 93
1, 8774, Control_c, 0, 64, 99
1, 8789, Control_c, 0, 64, 104
1, 8803, Control_c, 0, 64, 109
1, 8818, Control_c, 0, 64, 114
1, 8833, Control_c, 0, 64, 119
1, 8848, Control_c, 0, 64, 124
1, 8863, Control_c, 0, 64, 127
1, 9013, Note_on_c, 0, 44, 74
1, 9019, Note_on_c, 0, 38, 70
1, 9020, Note_on_c, 0, 54, 76
1, 9022, Note_on_c, 0, 32, 62
1, 9022, Note_on_c, 0, 50, 74
1, 9037, Note_off_c, 0, 44, 67
1, 9047, Note_off_c, 0, 38, 64
1, 9048, Note_off_c, 0, 50, 66
1, 9051, Note_off_c, 0, 54, 64
1, 9062, Note_off_c, 0, 32, 60
1, 9097, Note_on_c, 0, 50, 85
1, 9099, Note_on_c, 0, 54, 77
1, 9100, Note_on_c, 0, 44, 78
1, 9109, Note_on_c, 0, 32, 60
1, 9115, Note_on_c, 0, 38, 76
1, 9179, Note_off_c, 0, 50, 39
1, 9190, Note_off_c, 0, 54, 60
1, 9432, Note_on_c, 0, 57, 85
1, 9451, Note_off_c, 0, 38, 60
1, 9464, Note_off_c, 0, 59, 59
1, 9469, Note_off_c, 0, 32, 62
1, 9477, Note_off_c, 0, 44, 62
1, 9633, Note_on_c, 0, 56, 89
1, 9638, Note_off_c, 0, 57, 60
1, 9682, Note_off_c, 0, 56, 67
1, 9920, Note_on_c, 0, 59, 89
1, 9922, Control_c, 0, 64, 123
1, 9937, Control_c, 0, 64, 114
1, 9959, Control_c, 0, 64, 104
1, 9974, Control_c, 0, 64, 93
1, 9989, Control_c, 0, 64, 79
1, 10004, Control_c, 0, 64, 63
1, 10019, Control_c, 0, 64, 0
1, 10131, Note_on_c, 0, 57, 86
1, 10153, Control_c, 0, 64, 64
1, 10158, Note_off_c, 0, 59, 63
1, 10168, Control_c, 0, 64, 72
1, 10182, Control_c, 0, 64, 78
1, 10197, Control_c, 0, 64, 85
1, 10212, Control_c, 0, 64, 89
1, 10227, Control_c, 0, 64, 92
1, 10242, Control_c, 0, 64, 95
1, 10256, Control_c, 0, 64, 99
1, 10261, Note_on_c, 0, 56, 88
1, 10271, Control_c, 0, 64, 104
1, 10279, Note_off_c, 0, 57, 56
1, 10286, Control_c, 0, 64, 107
1, 10301, Control_c, 0, 64, 111
1, 10316, Control_c, 0, 64, 112
1, 10325, Note_off_c, 0, 56, 63
1, 10330, Control_c, 0, 64, 113
1, 10345, Control_c, 0, 64, 114
1, 10360, Control_c, 0, 64, 114
1, 10444, Note_on_c, 0, 56, 87
1, 10479, Control_c, 0, 64, 112
1, 10493, Control_c, 0, 64, 105
1, 10508, Control_c, 0, 64, 95
1, 10523, Control_c, 0, 64, 83
1, 10538, Control_c, 0, 64, 68
1, 10553, Control_c, 0, 64, 0
1, 11123, Control_c, 0, 64, 48
1, 11138, Control_c, 0, 64, 64
1, 11153, Control_c, 0, 64, 68
1, 11168, Control_c, 0, 64, 69
1, 11183, Control_c, 0, 64, 71
1, 11198, Control_c, 0, 64, 74
1, 11213, Control_c, 0, 64, 79
1, 11228, Control_c, 0, 64, 84
1, 11242, Control_c, 0, 64, 87
1, 11257, Control_c, 0, 64, 89
1, 11272, Control_c, 0, 64, 91
1, 11287, Control_c, 0, 64, 93
1, 11302, Control_c, 0, 64, 96
1, 11317, Control_c, 0, 64, 99
1, 11331, Control_c, 0, 64, 101
1, 11346, Control_c, 0, 64, 104
1, 11361, Control_c, 0, 64, 107
1, 11376, Control_c, 0, 64, 110
1, 11379, Note_on_c, 0, 44, 70
1, 11379, Note_on_c, 0, 53, 77
1, 11381, Note_on_c, 0, 49, 72
1, 11384, Note_on_c, 0, 37, 65
1, 11391, Control_c, 0, 64, 114
1, 11405, Note_off_c, 0, 49, 66
1, 11405, Control_c, 0, 64, 118
1, 11406, Note_off_c, 0, 44, 65
1, 11412, Note_off_c, 0, 53, 66
1, 11414, Note_off_c, 0, 37, 66
1, 11420, Control_c, 0, 64, 123
1, 11435, Control_c, 0, 64, 127
1, 11467, Note_on_c, 0, 53, 75
1, 11469, Note_on_c, 0, 49, 77
1, 11474, Note_on_c, 0, 44, 78
1, 11482, Note_on_c, 0, 37, 68
1, 11651, Note_off_c, 0, 49, 30
1, 11662, Note_off_c, 0, 53, 56
1, 11936, Note_off_c, 0, 56, 53
1, 11990, Note_off_c, 0, 44, 51
1, 12000, Note_off_c, 0, 37, 56
1, 12632, Note_on_c, 0, 56, 63
1, 12685, Note_off_c, 0, 56, 60
1, 12724, Control_c, 0, 64, 123
1, 12739, Control_c, 0, 64, 116
1, 12753, Note_on_c, 0, 56, 52
1, 12754, Control_c, 0, 64, 110
1, 12769, Control_c, 0, 64, 105
1, 12784, Control_c, 0, 64, 101
1, 12798, Control_c, 0, 64, 97
1, 12813, Control_c, 0, 64, 92
1, 12828, Control_c, 0, 64, 86
1, 12843, Control_c, 0, 64, 79
1, 12858, Control_c, 0, 64, 70
1, 12873, Control_c, 0, 64, 48
1, 12887, Control_c, 0, 64, 0
1, 13778, Control_c, 0, 64, 27
1, 13792, Control_c, 0, 64, 33
1, 13807, Control_c, 0, 64, 37
1, 13822, Control_c, 0, 64, 41
1, 13837, Control_c, 0, 64, 47
1, 13852, Control_c, 0, 64, 51
1, 13866, Control_c, 0, 64, 54
1, 13881, Control_c, 0, 64, 57
1, 13896, Control_c, 0, 64, 60
1, 13911, Control_c, 0, 64, 62
1, 13925, Control_c, 0, 64, 64
1, 13940, Control_c, 0, 64, 65
1, 13955, Control_c, 0, 64, 67
1, 13970, Control_c, 0, 64, 69
1, 13982, Note_on_c, 0, 52, 40
1, 13985, Control_c, 0, 64, 72
1, 13990, Note_on_c, 0, 32, 28
1, 13996, Note_on_c, 0, 44, 23
1, 14000, Control_c, 0, 64, 75
1, 14005, Note_on_c, 0, 40, 27
1, 14015, Control_c, 0, 64, 78
1, 14030, Control_c, 0, 64, 80
1, 14030, Poly_aftertouch_c, 0, 49, 127
1, 14031, Note_off_c, 0, 52, 60
1, 14044, Control_c, 0, 64, 81
1, 14059, Control_c, 0, 64, 82
1, 14063, Note_off_c, 0, 40, 55
1, 14066, Note_off_c, 0, 44, 41
1, 14074, Control_c, 0, 64, 83
1, 14080, Poly_aftertouch_c, 0, 49, 0
1, 14084, Note_off_c, 0, 32, 36
1, 14089, Control_c, 0, 64, 85
1, 14104, Control_c, 0, 64, 87
1, 14119, Control_c, 0, 64, 88
1, 14134, Control_c, 0, 64, 90
1, 14149, Control_c, 0, 64, 91
1, 14160, Note_on_c, 0, 32, 22
1, 14164, Control_c, 0, 64, 92
1, 14167, Note_on_c, 0, 52, 35
1, 14174, Note_on_c, 0, 44, 31
1, 14175, Note_on_c, 0, 49, 12
1, 14179, Control_c, 0, 64, 92
1, 14194, Control_c, 0, 64, 93
1, 14208, Control_c, 0, 64, 93
1, 14214, Note_off_c, 0, 52, 46
1, 14223, Control_c, 0, 64, 94
1, 14238, Control_c, 0, 64, 94
1, 14244, Poly_aftertouch_c, 0, 40, 127
1, 14268, Control_c, 0, 64, 95
1, 14297, Control_c, 0, 64, 95
1, 14299, Poly_aftertouch_c, 0, 40, 0
1, 14313, Note_off_c, 0, 49, 38
1, 14327, Control_c, 0, 64, 96
1, 14365, Note_off_c, 0, 32, 41
1, 14365, Note_off_c, 0, 44, 40
1, 14496, Note_off_c, 0, 56, 40
1, 14557, Note_on_c, 0, 57, 52
1, 14569, Note_on_c, 0, 45, 44
1, 14799, Note_off_c, 0, 57, 27
1, 14845, Note_on_c, 0, 44, 55
1, 14847, Note_on_c, 0, 56, 63
1, 14889, Note_off_c, 0, 45, 34
1, 14965, Note_off_c, 0, 56, 52
1, 15012, Note_off_c, 0, 44, 31
1, 15168, Note_on_c, 0, 59, 71
1, 15194, Note_on_c, 0, 47, 61
1, 15201, Control_c, 0, 64, 95
1, 15216, Control_c, 0, 64, 93
1, 15231, Control_c, 0, 64, 87
1, 15246, Control_c, 0, 64, 78
1, 15261, Control_c, 0, 64, 65
1, 15276, Control_c, 0, 64, 0
1, 15350, Control_c, 0, 64, 63
1, 15365, Control_c, 0, 64, 69
1, 15379, Control_c, 0, 64, 74
1, 15394, Control_c, 0, 64, 79
1, 15401, Note_on_c, 0, 57, 71
1, 15405, Note_on_c, 0, 45, 64
1, 15409, Control_c, 0, 64, 81
1, 15422, Note_off_c, 0, 47, 55
1, 15424, Control_c, 0, 64, 83
1, 15426, Note_off_c, 0, 59, 56
1, 15439, Control_c, 0, 64, 84
1, 15453, Control_c, 0, 64, 86
1, 15468, Control_c, 0, 64, 88
1, 15483, Control_c, 0, 64, 90
1, 15497, Control_c, 0, 64, 91
1, 15512, Control_c, 0, 64, 92
1, 15527, Control_c, 0, 64, 93
1, 15542, Control_c, 0, 64, 94
1, 15557, Control_c, 0, 64, 94
1, 15562, Note_on_c, 0, 56, 73
1, 15566, Note_off_c, 0, 57, 59
1, 15571, Control_c, 0, 64, 95
1, 15576, Note_on_c, 0, 44, 70
1, 15586, Control_c, 0, 64, 95
1, 15589, Note_off_c, 0, 45, 63
1, 15601, Control_c, 0, 64, 96
1, 15615, Control_c, 0, 64, 96
1, 15618, Note_off_c, 0, 44, 62
1, 15645, Control_c, 0, 64, 97
1, 15647, Note_off_c, 0, 56, 57
1, 15689, Control_c, 0, 64, 97
1, 15878, Note_on_c, 0, 56, 76
1, 15883, Control_c, 0, 64, 97
1, 15884, Note_on_c, 0, 44, 67
1, 15885, Note_on_c, 0, 32, 64
1, 15898, Control_c, 0, 64, 94
1, 15912, Control_c, 0, 64, 89
1, 15927, Control_c, 0, 64, 81
1, 15949, Control_c, 0, 64, 69
1, 15964, Control_c, 0, 64, 0
1, 16157, Control_c, 0, 64, 61
1, 16172, Control_c, 0, 64, 68
1, 16187, Control_c, 0, 64, 73
1, 16201, Control_c, 0, 64, 79
1, 16216, Control_c, 0, 64, 83
1, 16231, Control_c, 0, 64, 85
1, 16246, Control_c, 0, 64, 86
1, 16261, Control_c, 0, 64, 88
1, 16275, Control_c, 0, 64, 90
1, 16290, Control_c, 0, 64, 92
1, 16305, Control_c, 0, 64, 94
1, 16320, Control_c, 0, 64, 95
1, 16335, Control_c, 0, 64, 96
1, 16350, Control_c, 0, 64, 97
1, 16365, Control_c, 0, 64, 98
1, 16375, Note_off_c, 0, 44, 36
1, 16380, Note_off_c, 0, 32, 33
1, 16380, Control_c, 0, 64, 99
1, 16394, Control_c, 0, 64, 99
1, 16409, Control_c, 0, 64, 100
1, 16424, Control_c, 0, 64, 100
1, 16438, Control_c, 0, 64, 101
1, 16453, Control_c, 0, 64, 101
1, 16483, Control_c, 0, 64, 102
1, 16529, Control_c, 0, 64, 102
1, 16588, Control_c, 0, 64, 103
1, 16677, Control_c, 0, 64, 103
1, 16795, Note_on_c, 0, 44, 52
1, 16798, Note_on_c, 0, 51, 63
1, 16799, Note_on_c, 0, 32, 48
1, 16807, Note_on_c, 0, 49, 51
1, 16821, Note_off_c, 0, 44, 60
1, 16833, Note_off_c, 0, 51, 62
1, 16845, Note_off_c, 0, 32, 45
1, 16851, Note_off_c, 0, 49, 43
1, 16897, Note_on_c, 0, 49, 39
1, 16901, Note_on_c, 0, 51, 66
1, 16903, Note_on_c, 0, 44, 61
1, 16921, Note_on_c, 0, 32, 48
1, 16936, Control_c, 0, 64, 103
1, 16951, Control_c, 0, 64, 102
1, 16966, Control_c, 0, 64, 99
1, 16981, Control_c, 0, 64, 95
1, 16996, Control_c, 0, 64, 89
1, 17010, Control_c, 0, 64, 81
1, 17025, Control_c, 0, 64, 72
1, 17040, Control_c, 0, 64, 50
1, 17055, Control_c, 0, 64, 0
1, 17173, Control_c, 0, 64, 54
1, 17188, Control_c, 0, 64, 67
1, 17203, Control_c, 0, 64, 71
1, 17217, Control_c, 0, 64, 76
1, 17232, Control_c, 0, 64, 81
1, 17247, Control_c, 0, 64, 84
1, 17261, Control_c, 0, 64, 86
1, 17276, Control_c, 0, 64, 89
1, 17291, Control_c, 0, 64, 91
1, 17307, Control_c, 0, 64, 93
1, 17315, Note_off_c, 0, 32, 36
1, 17322, Control_c, 0, 64, 95
1, 17337, Control_c, 0, 64, 97
1, 17352, Control_c, 0, 64, 99
1, 17366, Control_c, 0, 64, 100
1, 17381, Control_c, 0, 64, 102
1, 17386, Note_off_c, 0, 44, 29
1, 17396, Control_c, 0, 64, 103
1, 17411, Control_c, 0, 64, 104
1, 17426, Control_c, 0, 64, 105
1, 17448, Control_c, 0, 64, 105
1, 17478, Control_c, 0, 64, 106
1, 17492, Control_c, 0, 64, 106
1, 17507, Control_c, 0, 64, 107
1, 17552, Control_c, 0, 64, 107
1, 17565, Note_off_c, 0, 51, 31
1, 17611, Control_c, 0, 64, 108
1, 17669, Note_off_c, 0, 56, 27
1, 17774, Note_off_c, 0, 49, 30
1, 17831, Note_on_c, 0, 32, 57
1, 17863, Control_c, 0, 64, 107
1, 17892, Control_c, 0, 64, 105
1, 17907, Control_c, 0, 64, 99
1, 17922, Control_c, 0, 64, 90
1, 17937, Control_c, 0, 64, 78
1, 17952, Control_c, 0, 64, 57
1, 17965, Note_on_c, 0, 44, 46
1, 17966, Control_c, 0, 64, 0
1, 18055, Control_c, 0, 64, 59
1, 18065, Note_on_c, 0, 48, 54
1, 18070, Control_c, 0, 64, 69
1, 18085, Control_c, 0, 64, 75
1, 18099, Control_c, 0, 64, 81
1, 18115, Control_c, 0, 64, 85
1, 18130, Control_c, 0, 64, 87
1, 18134, Note_on_c, 0, 51, 55
1, 18145, Control_c, 0, 64, 90
1, 18160, Control_c, 0, 64, 94
1, 18175, Control_c, 0, 64, 97
1, 18197, Control_c, 0, 64, 99
1, 18212, Control_c, 0, 64, 102
1, 18221, Note_on_c, 0, 54, 53
1, 18227, Control_c, 0, 64, 104
1, 18242, Control_c, 0, 64, 108
1, 18256, Control_c, 0, 64, 111
1, 18271, Control_c, 0, 64, 113
1, 18286, Control_c, 0, 64, 117
1, 18301, Control_c, 0, 64, 121
1, 18315, Control_c, 0, 64, 125
1, 18330, Control_c, 0, 64, 127
1, 18500, Note_on_c, 0, 56, 74
1, 18666, Note_off_c, 0, 32, 49
1, 18672, Note_off_c, 0, 44, 40
1, 18860, Note_on_c, 0, 45, 66
1, 19144, Note_off_c, 0, 45, 26
1, 19158, Note_on_c, 0, 44, 77
1, 19198, Control_c, 0, 64, 113
1, 19212, Control_c, 0, 64, 96
1, 19227, Control_c, 0, 64, 80
1, 19242, Control_c, 0, 64, 66
1, 19256, Control_c, 0, 64, 55
1, 19271, Control_c, 0, 64, 65
1, 19286, Control_c, 0, 64, 75
1, 19301, Control_c, 0, 64, 84
1, 19317, Control_c, 0, 64, 91
1, 19319, Note_off_c, 0, 44, 60
1, 19331, Control_c, 0, 64, 93
1, 19346, Control_c, 0, 64, 94
1, 19361, Control_c, 0, 64, 98
1, 19365, Note_off_c, 0, 48, 45
1, 19376, Control_c, 0, 64, 103
1, 19391, Control_c, 0, 64, 107
1, 19405, Control_c, 0, 64, 109
1, 19417, Note_off_c, 0, 51, 34
1, 19419, Note_on_c, 0, 47, 81
1, 19420, Control_c, 0, 64, 109
1, 19450, Control_c, 0, 64, 109
1, 19479, Control_c, 0, 64, 103
1, 19494, Control_c, 0, 64, 92
1, 19509, Control_c, 0, 64, 77
1, 19524, Control_c, 0, 64, 62
1, 19538, Control_c, 0, 64, 0
1, 19568, Control_c, 0, 64, 63
1, 19583, Control_c, 0, 64, 74
1, 19595, Note_off_c, 0, 56, 14
1, 19598, Control_c, 0, 64, 80
1, 19613, Control_c, 0, 64, 81
1, 19617, Note_off_c, 0, 54, 14
1, 19622, Note_on_c, 0, 45, 81
1, 19628, Control_c, 0, 64, 82
1, 19643, Control_c, 0, 64, 83
1, 19651, Note_off_c, 0, 47, 61
1, 19657, Control_c, 0, 64, 84
1, 19672, Control_c, 0, 64, 85
1, 19710, Control_c, 0, 64, 86
1, 19778, Note_on_c, 0, 44, 86
1, 19784, Control_c, 0, 64, 84
1, 19798, Note_off_c, 0, 45, 63
1, 19799, Control_c, 0, 64, 78
1, 19814, Control_c, 0, 64, 66
1, 19829, Control_c, 0, 64, 0
1, 19902, Control_c, 0, 64, 53
1, 19917, Control_c, 0, 64, 66
1, 19931, Note_on_c, 0, 42, 80
1, 19932, Control_c, 0, 64, 69
1, 19942, Note_off_c, 0, 44, 60
1, 19947, Control_c, 0, 64, 71
1, 19991, Control_c, 0, 64, 71
1, 20006, Control_c, 0, 64, 72
1, 20017, Note_on_c, 0, 41, 7
1, 20065, Control_c, 0, 64, 72
1, 20066, Note_off_c, 0, 42, 62
1, 20069, Note_off_c, 0, 41, 51
1, 20079, Note_on_c, 0, 40, 81
1, 20080, Control_c, 0, 64, 71
1, 20094, Control_c, 0, 64, 70
1, 20109, Control_c, 0, 64, 69
1, 20124, Control_c, 0, 64, 67
1, 20139, Control_c, 0, 64, 64
1, 20154, Control_c, 0, 64, 60
1, 20168, Control_c, 0, 64, 55
1, 20183, Control_c, 0, 64, 54
1, 20213, Control_c, 0, 64, 51
1, 20227, Control_c, 0, 64, 46
1, 20233, Note_off_c, 0, 40, 65
1, 20236, Note_on_c, 0, 42, 86
1, 20242, Control_c, 0, 64, 45
1, 20257, Control_c, 0, 64, 44
1, 20272, Control_c, 0, 64, 41
1, 20286, Control_c, 0, 64, 34
1, 20301, Control_c, 0, 64, 20
1, 20316, Control_c, 0, 64, 0
1, 20483, Note_on_c, 0, 39, 80
1, 20507, Note_off_c, 0, 42, 64
1, 20814, Note_on_c, 0, 45, 89
1, 20846, Note_off_c, 0, 39, 59
1, 21050, Control_c, 0, 64, 50
1, 21065, Control_c, 0, 64, 67
1, 21080, Control_c, 0, 64, 75
1, 21095, Control_c, 0, 64, 82
1, 21109, Control_c, 0, 64, 89
1, 21124, Control_c, 0, 64, 92
1, 21139, Control_c, 0, 64, 95
1, 21154, Control_c, 0, 64, 100
1, 21169, Control_c, 0, 64, 106
1, 21191, Control_c, 0, 64, 113
1, 21206, Control_c, 0, 64, 124
1, 21221, Control_c, 0, 64, 127
1, 21327, Note_off_c, 0, 45, 62
1, 21565, Note_on_c, 0, 44, 88
1, 21659, Note_off_c, 0, 44, 63
1, 21711, Note_on_c, 0, 25, 81
1, 21711, Note_on_c, 0, 37, 87
1, 21726, Control_c, 0, 64, 127
1, 21740, Control_c, 0, 64, 103
1, 21755, Control_c, 0, 64, 84
1, 21770, Control_c, 0, 64, 63
1, 21785, Control_c, 0, 64, 0
1, 21940, Control_c, 0, 64, 63
1, 21955, Control_c, 0, 64, 71
1, 21970, Control_c, 0, 64, 80
1, 21985, Control_c, 0, 64, 87
1, 22000, Control_c, 0, 64, 91
1, 22014, Control_c, 0, 64, 97
1, 22029, Control_c, 0, 64, 104
1, 22044, Control_c, 0, 64, 113
1, 22058, Control_c, 0, 64, 123
1, 22073, Control_c, 0, 64, 127
1, 22085, Note_off_c, 0, 25, 63
1, 22106, Note_off_c, 0, 37, 64
1, 22361, Note_on_c, 0, 44, 64
1, 22400, Note_off_c, 0, 44, 63
1, 22448, Note_on_c, 0, 49, 69
1, 22497, Note_off_c, 0, 49, 57
1, 23208, Note_on_c, 0, 37, 58
1, 23208, Note_on_c, 0, 25, 58
1, 23253, Control_c, 0, 64, 108
1, 23268, Control_c, 0, 64, 89
1, 23283, Control_c, 0, 64, 68
1, 23297, Control_c, 0, 64, 0
1, 23342, Control_c, 0, 64, 66
1, 23357, Control_c, 0, 64, 78
1, 23372, Control_c, 0, 64, 92
1, 23387, Control_c, 0, 64, 102
1, 23402, Control_c, 0, 64, 107
1, 23416, Control_c, 0, 64, 111
1, 23438, Control_c, 0, 64, 116
1, 23453, Control_c, 0, 64, 124
1, 23468, Control_c, 0, 64, 127
1, 23472, Note_off_c, 0, 25, 54
1, 23500, Note_off_c, 0, 37, 62
1, 23776, Note_on_c, 0, 44, 55
1, 23819, Note_off_c, 0, 44, 61
1, 23863, Note_on_c, 0, 49, 62
1, 23915, Note_off_c, 0, 49, 58
1, 24382, Note_on_c, 0, 56, 71
1, 24413, Note_off_c, 0, 56, 64
1, 24468, Note_on_c, 0, 56, 75
1, 24513, Note_off_c, 0, 56, 64
1, 24558, Control_c, 0, 64, 106
1, 24561, Note_on_c, 0, 61, 82
1, 24573, Note_on_c, 0, 25, 68
1, 24573, Control_c, 0, 64, 88
1, 24573, Note_on_c, 0, 37, 68
1, 24588, Control_c, 0, 64, 68
1, 24603, Control_c, 0, 64, 0
1, 24691, Control_c, 0, 64, 64
1, 24706, Control_c, 0, 64, 73
1, 24721, Control_c, 0, 64, 83
1, 24736, Control_c, 0, 64, 94
1, 24750, Control_c, 0, 64, 102
1, 24765, Control_c, 0, 64, 106
1, 24780, Control_c, 0, 64, 111
1, 24784, Note_off_c, 0, 61, 63
1, 24795, Control_c, 0, 64, 118
1, 24810, Control_c, 0, 64, 127
1, 24811, Note_off_c, 0, 25, 62
1, 24824, Note_off_c, 0, 37, 62
1, 25150, Note_on_c, 0, 44, 59
1, 25208, Note_off_c, 0, 44, 62
1, 25219, Note_on_c, 0, 61, 84
1, 25227, Note_on_c, 0, 52, 79
1, 25229, Note_on_c, 0, 56, 74
1, 25229, Note_on_c, 0, 49, 80
1, 25253, Note_off_c, 0, 49, 66
1, 25564, Note_off_c, 0, 52, 57
1, 25567, Note_off_c, 0, 56, 59
1, 25814, Note_on_c, 0, 25, 72
1, 25817, Note_on_c, 0, 37, 76
1, 25817, Control_c, 0, 64, 120
1, 25831, Control_c, 0, 64, 96
1, 25846, Control_c, 0, 64, 72
1, 25861, Control_c, 0, 64, 0
1, 25920, Control_c, 0, 64, 67
1, 25935, Control_c, 0, 64, 81
1, 25945, Note_on_c, 0, 60, 78
1, 25950, Control_c, 0, 64, 97
1, 25965, Control_c, 0, 64, 113
1, 25967, Note_off_c, 0, 61, 58
1, 25976, Note_off_c, 0, 25, 63
1, 25980, Control_c, 0, 64, 119
1, 25995, Control_c, 0, 64, 127
1, 26005, Note_off_c, 0, 37, 65
1, 26010, Control_c, 0, 64, 127
1, 26090, Note_on_c, 0, 61, 85
1, 26110, Note_off_c, 0, 60, 60
1, 26197, Note_on_c, 0, 63, 84
1, 26238, Note_off_c, 0, 61, 57
1, 26246, Note_on_c, 0, 45, 70
1, 26337, Note_on_c, 0, 54, 66
1, 26386, Note_on_c, 0, 57, 71
1, 26388, Note_off_c, 0, 63, 63
1, 26426, Note_on_c, 0, 49, 76
1, 26430, Note_off_c, 0, 54, 63
1, 26466, Note_on_c, 0, 64, 83
1, 26468, Note_off_c, 0, 45, 63
1, 26478, Note_off_c, 0, 49, 61
1, 26490, Note_off_c, 0, 57, 62
1, 26634, Note_off_c, 0, 64, 44
1, 26637, Note_on_c, 0, 57, 82
1, 26728, Note_off_c, 0, 57, 52
1, 26744, Note_on_c, 0, 64, 80
1, 26847, Note_on_c, 0, 63, 82
1, 26878, Note_off_c, 0, 64, 64
1, 26922, Control_c, 0, 64, 111
1, 26937, Control_c, 0, 64, 91
1, 26952, Control_c, 0, 64, 64
1, 26967, Control_c, 0, 64, 0
1, 26970, Note_on_c, 0, 61, 86
1, 26979, Note_on_c, 0, 25, 74
1, 26982, Note_on_c, 0, 37, 79
1, 27006, Note_off_c, 0, 63, 66
1, 27056, Control_c, 0, 64, 34
1, 27070, Control_c, 0, 64, 68
1, 27085, Control_c, 0, 64, 74
1, 27100, Control_c, 0, 64, 82
1, 27115, Control_c, 0, 64, 93
1, 27130, Control_c, 0, 64, 108
1, 27144, Control_c, 0, 64, 127
1, 27150, Note_off_c, 0, 61, 61
1, 27178, Note_off_c, 0, 25, 55
1, 27197, Note_off_c, 0, 37, 64
1, 27388, Note_on_c, 0, 61, 55
1, 27414, Note_on_c, 0, 44, 62
1, 27421, Note_on_c, 0, 63, 72
1, 27421, Note_off_c, 0, 61, 62
1, 27491, Note_on_c, 0, 61, 85
1, 27498, Note_on_c, 0, 52, 78
1, 27506, Note_on_c, 0, 49, 79
1, 27506, Note_on_c, 0, 56, 74
1, 27529, Note_off_c, 0, 44, 60
1, 27530, Note_off_c, 0, 49, 66
1, 27554, Note_off_c, 0, 63, 58
1, 27747, Note_off_c, 0, 61, 55
1, 27752, Note_off_c, 0, 56, 55
1, 27953, Note_on_c, 0, 60, 80
1, 28020, Note_off_c, 0, 60, 60
1, 28023, Note_off_c, 0, 52, 39
1, 28064, Note_on_c, 0, 61, 90
1, 28064, Control_c, 0, 64, 107
1, 28073, Note_on_c, 0, 25, 75
1, 28075, Note_on_c, 0, 37, 74
1, 28079, Control_c, 0, 64, 85
1, 28093, Control_c, 0, 64, 0
1, 28213, Control_c, 0, 64, 66
1, 28227, Control_c, 0, 64, 73
1, 28242, Control_c, 0, 64, 80
1, 28257, Control_c, 0, 64, 90
1, 28268, Note_off_c, 0, 25, 63
1, 28272, Control_c, 0, 64, 101
1, 28287, Control_c, 0, 64, 113
1, 28291, Note_off_c, 0, 37, 64
1, 28301, Control_c, 0, 64, 120
1, 28316, Control_c, 0, 64, 127
1, 28553, Note_on_c, 0, 44, 63
1, 28623, Note_off_c, 0, 44, 62
1, 28628, Note_on_c, 0, 56, 72
1, 28630, Note_on_c, 0, 52, 72
1, 28634, Note_on_c, 0, 49, 78
1, 28660, Note_off_c, 0, 49, 65
1, 28682, Note_off_c, 0, 61, 57
1, 28950, Note_off_c, 0, 56, 51
1, 29019, Note_off_c, 0, 52, 56
1, 29065, Note_on_c, 0, 63, 84
1, 29141, Note_off_c, 0, 63, 63
1, 29170, Note_on_c, 0, 64, 91
1, 29170, Control_c, 0, 64, 123
1, 29179, Note_on_c, 0, 23, 83
1, 29179, Note_on_c, 0, 35, 88
1, 29184, Control_c, 0, 64, 94
1, 29199, Control_c, 0, 64, 69
1, 29214, Control_c, 0, 64, 0
1, 29334, Control_c, 0, 64, 66
1, 29348, Control_c, 0, 64, 77
1, 29363, Control_c, 0, 64, 84
1, 29375, Note_off_c, 0, 23, 62
1, 29375, Note_off_c, 0, 64, 63
1, 29378, Control_c, 0, 64, 92
1, 29393, Control_c, 0, 64, 103
1, 29408, Control_c, 0, 64, 127
1, 29421, Note_off_c, 0, 35, 63
1, 29658, Note_on_c, 0, 47, 75
1, 29751, Note_on_c, 0, 64, 92
1, 29755, Note_on_c, 0, 56, 87
1, 29759, Note_on_c, 0, 59, 75
1, 29760, Note_on_c, 0, 52, 88
1, 29764, Note_off_c, 0, 47, 54
1, 29781, Note_off_c, 0, 52, 74
1, 29828, Note_off_c, 0, 59, 58
1, 29854, Note_off_c, 0, 56, 59
1, 30296, Control_c, 0, 64, 90
1, 30301, Note_on_c, 0, 35, 87
1, 30311, Control_c, 0, 64, 57
1, 30326, Control_c, 0, 64, 0
1, 30386, Control_c, 0, 64, 64
1, 30401, Control_c, 0, 64, 81
1, 30416, Control_c, 0, 64, 97
1, 30430, Control_c, 0, 64, 117
1, 30445, Control_c, 0, 64, 127
1, 30459, Note_off_c, 0, 35, 63
1, 30466, Note_on_c, 0, 63, 83
1, 30498, Note_off_c, 0, 64, 61
1, 30584, Note_on_c, 0, 64, 91
1, 30606, Note_off_c, 0, 63, 62
1, 30684, Note_on_c, 0, 66, 87
1, 30687, Note_on_c, 0, 51, 72
1, 30709, Note_off_c, 0, 64, 62
1, 30880, Note_on_c, 0, 54, 90
1, 30890, Note_on_c, 0, 68, 94
1, 30896, Note_on_c, 0, 59, 79
1, 30899, Note_on_c, 0, 57, 77
1, 30910, Note_off_c, 0, 54, 65
1, 30924, Note_off_c, 0, 51, 64
1, 30924, Note_off_c, 0, 66, 63
1, 31057, Note_on_c, 0, 63, 87
1, 31086, Note_off_c, 0, 68, 61
1, 31155, Note_off_c, 0, 57, 44
1, 31159, Note_off_c, 0, 59, 36
1, 31188, Note_on_c, 0, 68, 86
1, 31225, Note_off_c, 0, 63, 62
1, 31288, Note_on_c, 0, 66, 85
1, 31374, Note_off_c, 0, 68, 56
1, 31415, Control_c, 0, 64, 102
1, 31430, Control_c, 0, 64, 77
1, 31442, Note_on_c, 0, 64, 81
1, 31444, Control_c, 0, 64, 0
1, 31454, Note_on_c, 0, 40, 92
1, 31481, Note_off_c, 0, 66, 55
1, 31533, Control_c, 0, 64, 61
1, 31548, Control_c, 0, 64, 72
1, 31563, Control_c, 0, 64, 79
1, 31578, Control_c, 0, 64, 88
1, 31582, Note_off_c, 0, 64, 64
1, 31593, Control_c, 0, 64, 99
1, 31608, Control_c, 0, 64, 115
1, 31623, Control_c, 0, 64, 127
1, 31805, Note_on_c, 0, 47, 78
1, 31837, Note_on_c, 0, 64, 66
1, 31870, Note_off_c, 0, 64, 65
1, 31873, Note_on_c, 0, 66, 70
1, 31928, Note_off_c, 0, 40, 52
1, 31936, Note_on_c, 0, 56, 89
1, 31942, Note_on_c, 0, 59, 77
1, 31942, Note_on_c, 0, 64, 82
1, 31943, Note_on_c, 0, 52, 92
1, 31963, Note_off_c, 0, 47, 65
1, 31969, Note_off_c, 0, 52, 68
1, 32026, Note_off_c, 0, 66, 48
1, 32067, Note_off_c, 0, 59, 59
1, 32084, Note_off_c, 0, 56, 54
1, 32237, Note_off_c, 0, 64, 52
1, 32330, Note_on_c, 0, 63, 86
1, 32392, Note_off_c, 0, 63, 64
1, 32437, Note_on_c, 0, 40, 86
1, 32438, Control_c, 0, 64, 100
1, 32440, Note_on_c, 0, 64, 97
1, 32453, Control_c, 0, 64, 70
1, 32467, Control_c, 0, 64, 0
1, 32513, Control_c, 0, 64, 65
1, 32528, Control_c, 0, 64, 81
1, 32543, Control_c, 0, 64, 97
1, 32558, Control_c, 0, 64, 110
1, 32571, Note_off_c, 0, 40, 64
1, 32572, Control_c, 0, 64, 115
1, 32587, Control_c, 0, 64, 121
1, 32602, Control_c, 0, 64, 127
1, 32671, Note_off_c, 0, 64, 58
1, 32790, Note_on_c, 0, 32, 92
1, 32795, Control_c, 0, 64, 116
1, 32810, Control_c, 0, 64, 80
1, 32824, Control_c, 0, 64, 0
1, 32854, Control_c, 0, 64, 50
1, 32869, Control_c, 0, 64, 78
1, 32884, Control_c, 0, 64, 110
1, 32893, Note_off_c, 0, 32, 61
1, 32899, Control_c, 0, 64, 127
1, 33006, Poly_aftertouch_c, 0, 64, 127
1, 33020, Note_on_c, 0, 60, 64
1, 33021, Note_on_c, 0, 48, 93
1, 33023, Note_on_c, 0, 56, 85
1, 33024, Note_on_c, 0, 54, 89
1, 33026, Note_on_c, 0, 68, 88
1, 33031, Note_on_c, 0, 64, 3
1, 33048, Note_off_c, 0, 48, 68
1, 33310, Note_off_c, 0, 68, 52
1, 33415, Note_off_c, 0, 56, 51
1, 33426, Note_off_c, 0, 54, 55
1, 33480, Note_on_c, 0, 63, 88
1, 33514, Note_off_c, 0, 60, 63
1, 33529, Note_off_c, 0, 64, 39
1, 33554, Note_off_c, 0, 63, 62
1, 33677, Note_on_c, 0, 37, 90
1, 33707, Control_c, 0, 64, 114
1, 33721, Control_c, 0, 64, 89
1, 33736, Control_c, 0, 64, 57
1, 33751, Control_c, 0, 64, 0
1, 33784, Note_on_c, 0, 56, 68
1, 33847, Note_on_c, 0, 61, 76
1, 33897, Note_on_c, 0, 64, 74
1, 33898, Note_off_c, 0, 56, 63
1, 33921, Control_c, 0, 64, 40
1, 33936, Control_c, 0, 64, 71
1, 33951, Control_c, 0, 64, 80
1, 33954, Note_off_c, 0, 61, 60
1, 33966, Control_c, 0, 64, 90
1, 33979, Note_on_c, 0, 68, 79
1, 33981, Control_c, 0, 64, 102
1, 33996, Control_c, 0, 64, 118
1, 34004, Note_off_c, 0, 64, 63
1, 34011, Control_c, 0, 64, 127
1, 34037, Note_off_c, 0, 68, 65
1, 34136, Note_on_c, 0, 73, 89
1, 34240, Note_off_c, 0, 73, 35
1, 34551, Note_on_c, 0, 44, 77
1, 34583, Note_off_c, 0, 37, 64
1, 34586, Note_off_c, 0, 44, 66
1, 34656, Note_on_c, 0, 73, 91
1, 34664, Note_on_c, 0, 61, 95
1, 34665, Note_on_c, 0, 64, 82
1, 34669, Note_on_c, 0, 52, 86
1, 34672, Note_on_c, 0, 68, 80
1, 34674, Note_on_c, 0, 49, 84
1, 34691, Note_off_c, 0, 52, 73
1, 34695, Note_off_c, 0, 49, 67
1, 35224, Note_on_c, 0, 30, 97
1, 35248, Control_c, 0, 64, 94
1, 35263, Control_c, 0, 64, 34
1, 35271, Note_off_c, 0, 73, 55
1, 35277, Control_c, 0, 64, 0
1, 35288, Note_off_c, 0, 61, 57
1, 35303, Note_off_c, 0, 64, 59
1, 35307, Control_c, 0, 64, 52
1, 35322, Control_c, 0, 64, 79
1, 35327, Note_off_c, 0, 68, 56
1, 35337, Control_c, 0, 64, 103
1, 35352, Control_c, 0, 64, 127
1, 35385, Note_on_c, 0, 72, 81
1, 35386, Note_on_c, 0, 60, 81
1, 35439, Note_off_c, 0, 60, 62
1, 35444, Note_off_c, 0, 72, 65
1, 35462, Note_off_c, 0, 30, 61
1, 35531, Note_on_c, 0, 61, 85
1, 35533, Note_on_c, 0, 73, 88
1, 35561, Note_off_c, 0, 61, 61
1, 35586, Note_off_c, 0, 73, 59
1, 35635, Note_on_c, 0, 49, 88
1, 35647, Note_on_c, 0, 63, 85
1, 35647, Note_on_c, 0, 75, 91
1, 35671, Note_off_c, 0, 63, 68
1, 35695, Note_off_c, 0, 75, 65
1, 35781, Note_on_c, 0, 54, 73
1, 35886, Note_on_c, 0, 57, 90
1, 35886, Note_on_c, 0, 64, 98
1, 35888, Note_on_c, 0, 76, 92
1, 35928, Note_off_c, 0, 64, 67
1, 35943, Note_off_c, 0, 76, 63
1, 36079, Note_on_c, 0, 69, 96
1, 36139, Note_off_c, 0, 69, 66
1, 36234, Note_on_c, 0, 64, 88
1, 36234, Note_on_c, 0, 76, 91
1, 36240, Note_off_c, 0, 57, 55
1, 36270, Note_off_c, 0, 54, 57
1, 36272, Note_off_c, 0, 64, 66
1, 36273, Note_off_c, 0, 76, 70
1, 36295, Note_off_c, 0, 49, 59
1, 36349, Note_on_c, 0, 75, 93
1, 36353, Note_on_c, 0, 63, 87
1, 36390, Note_off_c, 0, 63, 59
1, 36410, Note_off_c, 0, 75, 59
1, 36495, Control_c, 0, 64, 125
1, 36509, Note_on_c, 0, 61, 93
1, 36510, Note_on_c, 0, 73, 92
1, 36510, Control_c, 0, 64, 83
1, 36523, Note_on_c, 0, 25, 91
1, 36525, Control_c, 0, 64, 0
1, 36584, Control_c, 0, 64, 53
1, 36599, Control_c, 0, 64, 74
1, 36613, Control_c, 0, 64, 90
1, 36628, Control_c, 0, 64, 104
1, 36643, Control_c, 0, 64, 113
1, 36658, Control_c, 0, 64, 125
1, 36673, Control_c, 0, 64, 127
1, 36699, Note_off_c, 0, 25, 63
1, 36716, Note_off_c, 0, 73, 61
1, 36921, Note_on_c, 0, 44, 66
1, 36950, Note_on_c, 0, 73, 63
1, 36978, Note_off_c, 0, 61, 53
1, 36987, Note_on_c, 0, 75, 69
1, 36999, Note_off_c, 0, 73, 60
1, 37048, Note_on_c, 0, 52, 84
1, 37048, Note_on_c, 0, 61, 91
1, 37048, Note_on_c, 0, 73, 82
1, 37049, Note_on_c, 0, 49, 79
1, 37078, Note_off_c, 0, 75, 64
1, 37126, Note_off_c, 0, 61, 62
1, 37141, Note_off_c, 0, 73, 62
1, 37228, Note_off_c, 0, 52, 60
1, 37253, Note_off_c, 0, 49, 57
1, 37264, Note_off_c, 0, 44, 61
1, 37552, Note_on_c, 0, 72, 77
1, 37557, Note_on_c, 0, 60, 83
1, 37597, Note_off_c, 0, 60, 62
1, 37604, Note_off_c, 0, 72, 66
1, 37674, Note_on_c, 0, 61, 92
1, 37674, Note_on_c, 0, 73, 90
1, 37684, Note_on_c, 0, 37, 84
1, 37709, Control_c, 0, 64, 117
1, 37724, Control_c, 0, 64, 96
1, 37739, Control_c, 0, 64, 75
1, 37754, Control_c, 0, 64, 0
1, 37842, Control_c, 0, 64, 23
1, 37857, Control_c, 0, 64, 64
1, 37872, Control_c, 0, 64, 69
1, 37886, Control_c, 0, 64, 73
1, 37901, Control_c, 0, 64, 78
1, 37916, Control_c, 0, 64, 83
1, 37931, Control_c, 0, 64, 87
1, 37946, Control_c, 0, 64, 91
1, 37960, Control_c, 0, 64, 94
1, 37975, Control_c, 0, 64, 97
1, 37990, Control_c, 0, 64, 101
1, 38005, Control_c, 0, 64, 105
1, 38020, Control_c, 0, 64, 108
1, 38035, Control_c, 0, 64, 110
1, 38050, Control_c, 0, 64, 112
1, 38065, Control_c, 0, 64, 113
1, 38080, Control_c, 0, 64, 115
1, 38095, Control_c, 0, 64, 117
1, 38109, Control_c, 0, 64, 119
1, 38124, Note_on_c, 0, 44, 65
1, 38124, Control_c, 0, 64, 120
1, 38137, Note_off_c, 0, 37, 63
1, 38139, Control_c, 0, 64, 121
1, 38154, Control_c, 0, 64, 122
1, 38166, Note_off_c, 0, 44, 64
1, 38169, Control_c, 0, 64, 123
1, 38184, Control_c, 0, 64, 124
1, 38199, Control_c, 0, 64, 125
1, 38208, Note_off_c, 0, 73, 53
1, 38228, Control_c, 0, 64, 125
1, 38243, Control_c, 0, 64, 126
1, 38248, Note_on_c, 0, 68, 71
1, 38252, Note_on_c, 0, 64, 69
1, 38258, Control_c, 0, 64, 127
1, 38267, Note_on_c, 0, 56, 75
1, 38273, Control_c, 0, 64, 127
1, 38279, Note_on_c, 0, 49, 67
1, 38298, Note_off_c, 0, 56, 63
1, 38315, Note_off_c, 0, 61, 57
1, 38324, Note_off_c, 0, 49, 62
1, 38372, Note_off_c, 0, 64, 61
1, 38432, Note_off_c, 0, 68, 62
1, 38547, Control_c, 0, 64, 118
1, 38561, Control_c, 0, 64, 107
1, 38576, Control_c, 0, 64, 95
1, 38591, Control_c, 0, 64, 82
1, 38606, Control_c, 0, 64, 67
1, 38621, Control_c, 0, 64, 0
1, 38798, Control_c, 0, 64, 55
1, 38813, Note_on_c, 0, 64, 89
1, 38813, Note_on_c, 0, 76, 82
1, 38813, Control_c, 0, 64, 72
1, 38815, Note_on_c, 0, 68, 83
1, 38816, Note_on_c, 0, 50, 80
1, 38819, Note_on_c, 0, 71, 73
1, 38822, Note_on_c, 0, 38, 69
1, 38828, Control_c, 0, 64, 82
1, 38843, Control_c, 0, 64, 92
1, 38858, Control_c, 0, 64, 99
1, 38859, Note_off_c, 0, 64, 63
1, 38872, Control_c, 0, 64, 104
1, 38876, Note_off_c, 0, 50, 62
1, 38884, Note_off_c, 0, 38, 59
1, 38886, Note_off_c, 0, 68, 63
1, 38888, Control_c, 0, 64, 109
1, 38891, Note_off_c, 0, 71, 59
1, 38903, Control_c, 0, 64, 116
1, 38911, Note_off_c, 0, 76, 47
1, 38918, Control_c, 0, 64, 126
1, 38932, Control_c, 0, 64, 127
1, 39022, Note_on_c, 0, 68, 96
1, 39025, Note_on_c, 0, 80, 92
1, 39027, Note_on_c, 0, 51, 86
1, 39027, Note_on_c, 0, 39, 79
1, 39047, Note_on_c, 0, 78, 66
1, 39063, Note_off_c, 0, 78, 63
1, 39081, Control_c, 0, 64, 114
1, 39096, Control_c, 0, 64, 97
1, 39111, Control_c, 0, 64, 81
1, 39125, Control_c, 0, 64, 64
1, 39140, Control_c, 0, 64, 0
1, 39326, Control_c, 0, 64, 54
1, 39340, Control_c, 0, 64, 69
1, 39352, Note_off_c, 0, 39, 62
1, 39355, Control_c, 0, 64, 77
1, 39360, Note_off_c, 0, 51, 59
1, 39370, Control_c, 0, 64, 84
1, 39384, Control_c, 0, 64, 89
1, 39399, Control_c, 0, 64, 95
1, 39414, Control_c, 0, 64, 101
1, 39427, Note_off_c, 0, 80, 61
1, 39429, Control_c, 0, 64, 107
1, 39444, Control_c, 0, 64, 111
1, 39453, Note_off_c, 0, 68, 59
1, 39458, Control_c, 0, 64, 114
1, 39473, Control_c, 0, 64, 119
1, 39488, Control_c, 0, 64, 126
1, 39503, Control_c, 0, 64, 127
1, 39644, Note_on_c, 0, 51, 44
1, 39736, Note_on_c, 0, 56, 53
1, 39816, Note_on_c, 0, 59, 50
1, 39981, Note_off_c, 0, 56, 0
1, 40052, Note_on_c, 0, 63, 51
1, 40059, Poly_aftertouch_c, 0, 56, 0
1, 40066, Note_on_c, 0, 68, 79
1, 40182, Note_off_c, 0, 59, 29
1, 40247, Note_off_c, 0, 63, 39
1, 40309, Note_off_c, 0, 51, 36
1, 40449, Note_off_c, 0, 68, 40
1, 40805, Note_on_c, 0, 68, 30
1, 40839, Note_off_c, 0, 68, 52
1, 40859, Note_on_c, 0, 67, 55
1, 40890, Note_off_c, 0, 67, 57
1, 40935, Note_on_c, 0, 68, 59
1, 40971, Control_c, 0, 64, 127
1, 40982, Note_on_c, 0, 67, 59
1, 40985, Note_on_c, 0, 39, 38
1, 40986, Control_c, 0, 64, 113
1, 41001, Control_c, 0, 64, 102
1, 41016, Control_c, 0, 64, 87
1, 41017, Note_on_c, 0, 51, 38
1, 41030, Control_c, 0, 64, 72
1, 41045, Control_c, 0, 64, 0
1, 41096, Note_off_c, 0, 68, 30
1, 41116, Note_off_c, 0, 67, 57
1, 41119, Control_c, 0, 64, 50
1, 41134, Control_c, 0, 64, 69
1, 41142, Note_on_c, 0, 64, 49
1, 41148, Control_c, 0, 64, 77
1, 41163, Control_c, 0, 64, 86
1, 41178, Control_c, 0, 64, 91
1, 41193, Control_c, 0, 64, 94
1, 41200, Note_off_c, 0, 64, 56
1, 41208, Control_c, 0, 64, 98
1, 41222, Control_c, 0, 64, 103
1, 41231, Note_on_c, 0, 67, 55
1, 41237, Control_c, 0, 64, 107
1, 41252, Control_c, 0, 64, 110
1, 41264, Note_off_c, 0, 39, 40
1, 41267, Control_c, 0, 64, 113
1, 41271, Note_on_c, 0, 68, 58
1, 41272, Note_off_c, 0, 67, 59
1, 41278, Note_off_c, 0, 51, 35
1, 41283, Control_c, 0, 64, 115
1, 41298, Control_c, 0, 64, 118
1, 41313, Control_c, 0, 64, 121
1, 41323, Note_on_c, 0, 70, 56
1, 41327, Control_c, 0, 64, 125
1, 41331, Note_off_c, 0, 68, 65
1, 41342, Control_c, 0, 64, 127
1, 41343, Note_off_c, 0, 70, 64
1, 41397, Note_on_c, 0, 71, 61
1, 41430, Note_off_c, 0, 71, 60
1, 41451, Note_on_c, 0, 73, 64
1, 41505, Note_on_c, 0, 75, 60
1, 41516, Note_off_c, 0, 73, 63
1, 41540, Note_off_c, 0, 75, 67
1, 41582, Note_on_c, 0, 76, 65
1, 41600, Note_off_c, 0, 76, 65
1, 41633, Note_on_c, 0, 79, 65
1, 41665, Note_on_c, 0, 80, 66
1, 41686, Note_off_c, 0, 79, 61
1, 41713, Note_on_c, 0, 82, 56
1, 41727, Note_off_c, 0, 80, 64
1, 41734, Note_on_c, 0, 51, 42
1, 41738, Note_off_c, 0, 82, 66
1, 41777, Note_on_c, 0, 83, 61
1, 41794, Note_off_c, 0, 83, 63
1, 41811, Note_on_c, 0, 58, 49
1, 41836, Note_on_c, 0, 85, 57
1, 41869, Note_on_c, 0, 61, 44
1, 41871, Note_on_c, 0, 87, 51
1, 41876, Note_off_c, 0, 85, 63
1, 41898, Note_on_c, 0, 63, 43
1, 41907, Note_on_c, 0, 88, 67
1, 41977, Note_on_c, 0, 85, 62
1, 41993, Note_off_c, 0, 88, 46
1, 42015, Note_off_c, 0, 87, 61
1, 42024, Note_off_c, 0, 85, 64
1, 42035, Note_on_c, 0, 83, 57
1, 42040, Note_off_c, 0, 61, 55
1, 42041, Note_off_c, 0, 63, 38
1, 42055, Note_off_c, 0, 83, 63
1, 42069, Note_off_c, 0, 58, 61
1, 42087, Note_off_c, 0, 51, 60
1, 42106, Note_on_c, 0, 82, 70
1, 42139, Note_on_c, 0, 80, 54
1, 42192, Note_off_c, 0, 82, 62
1, 42197, Note_on_c, 0, 79, 68
1, 42229, Note_off_c, 0, 80, 60
1, 42252, Note_on_c, 0, 83, 70
1, 42253, Note_off_c, 0, 79, 62
1, 42314, Note_on_c, 0, 82, 64
1, 42339, Note_on_c, 0, 80, 73
1, 42344, Note_off_c, 0, 83, 57
1, 42382, Note_off_c, 0, 82, 58
1, 42386, Note_on_c, 0, 79, 62
1, 42410, Note_off_c, 0, 80, 61
1, 42420, Note_off_c, 0, 79, 61
1, 42433, Note_on_c, 0, 76, 70
1, 42489, Note_off_c, 0, 76, 62
1, 42521, Note_on_c, 0, 75, 68
1, 42580, Note_on_c, 0, 73, 58
1, 42622, Note_off_c, 0, 75, 50
1, 42647, Note_off_c, 0, 73, 63
1, 42659, Note_on_c, 0, 76, 64
1, 42662, Control_c, 0, 64, 123
1, 42676, Control_c, 0, 64, 118
1, 42691, Control_c, 0, 64, 113
1, 42706, Control_c, 0, 64, 108
1, 42721, Control_c, 0, 64, 103
1, 42736, Control_c, 0, 64, 97
1, 42742, Note_on_c, 0, 75, 64
1, 42751, Control_c, 0, 64, 91
1, 42765, Control_c, 0, 64, 84
1, 42774, Note_off_c, 0, 76, 61
1, 42780, Control_c, 0, 64, 77
1, 42795, Control_c, 0, 64, 70
1, 42810, Control_c, 0, 64, 62
1, 42813, Note_on_c, 0, 73, 58
1, 42825, Control_c, 0, 64, 0
1, 42844, Note_off_c, 0, 75, 58
1, 42880, Note_off_c, 0, 73, 62
1, 42902, Note_on_c, 0, 71, 57
1, 42984, Note_off_c, 0, 71, 56
1, 42989, Note_on_c, 0, 70, 64
1, 43088, Note_off_c, 0, 70, 54
1, 43090, Note_on_c, 0, 68, 61
1, 43249, Note_off_c, 0, 68, 56
1, 43257, Note_on_c, 0, 67, 46
1, 43469, Note_off_c, 0, 67, 51
1, 43484, Note_on_c, 0, 68, 51
1, 43627, Note_on_c, 0, 67, 51
1, 43663, Note_off_c, 0, 68, 37
1, 43776, Note_off_c, 0, 67, 50
1, 43794, Note_on_c, 0, 64, 49
1, 43934, Note_on_c, 0, 67, 45
1, 43939, Note_off_c, 0, 64, 56
1, 44196, Note_off_c, 0, 67, 32
1, 44202, Note_on_c, 0, 71, 40
1, 44308, Control_c, 0, 64, 63
1, 44322, Control_c, 0, 64, 69
1, 44337, Control_c, 0, 64, 75
1, 44352, Control_c, 0, 64, 80
1, 44360, Note_off_c, 0, 71, 57
1, 44366, Control_c, 0, 64, 86
1, 44381, Control_c, 0, 64, 89
1, 44404, Control_c, 0, 64, 92
1, 44419, Control_c, 0, 64, 95
1, 44434, Control_c, 0, 64, 98
1, 44448, Control_c, 0, 64, 101
1, 44463, Control_c, 0, 64, 104
1, 44479, Control_c, 0, 64, 107
1, 44494, Control_c, 0, 64, 109
1, 44509, Control_c, 0, 64, 111
1, 44513, Note_on_c, 0, 71, 45
1, 44524, Control_c, 0, 64, 113
1, 44539, Control_c, 0, 64, 115
1, 44553, Control_c, 0, 64, 118
1, 44566, Note_off_c, 0, 71, 55
1, 44568, Control_c, 0, 64, 119
1, 44583, Control_c, 0, 64, 120
1, 44597, Control_c, 0, 64, 121
1, 44612, Control_c, 0, 64, 122
1, 44627, Control_c, 0, 64, 123
1, 44642, Control_c, 0, 64, 125
1, 44657, Control_c, 0, 64, 126
1, 44671, Control_c, 0, 64, 126
1, 44686, Control_c, 0, 64, 127
1, 44704, Note_on_c, 0, 71, 40
1, 44734, Note_off_c, 0, 71, 55
1, 44842, Note_on_c, 0, 71, 46
1, 44873, Note_off_c, 0, 71, 58
1, 44968, Note_on_c, 0, 71, 55
1, 44998, Note_off_c, 0, 71, 64
1, 45078, Note_on_c, 0, 71, 62
1, 45108, Note_off_c, 0, 71, 66
1, 45180, Note_on_c, 0, 71, 63
1, 45206, Note_off_c, 0, 71, 65
1, 45271, Note_on_c, 0, 71, 66
1, 45290, Note_off_c, 0, 71, 65
1, 45350, Note_on_c, 0, 71, 73
1, 45372, Note_off_c, 0, 71, 67
1, 45430, Note_on_c, 0, 71, 61
1, 45454, Note_off_c, 0, 71, 64
1, 45526, Note_on_c, 0, 71, 69
1, 45546, Note_off_c, 0, 71, 67
1, 45618, Note_on_c, 0, 71, 62
1, 45647, Note_off_c, 0, 71, 64
1, 45758, Note_on_c, 0, 71, 57
1, 45783, Note_off_c, 0, 71, 60
1, 45903, Note_on_c, 0, 71, 49
1, 45949, Note_off_c, 0, 71, 60
1, 46107, Note_on_c, 0, 71, 9
1, 46146, Note_off_c, 0, 71, 43
1, 46316, Note_on_c, 0, 71, 31
1, 46409, Note_off_c, 0, 71, 36
1, 46656, Note_on_c, 0, 71, 33
1, 46828, Note_off_c, 0, 71, 35
1, 47468, Note_on_c, 0, 70, 47
1, 47523, Note_off_c, 0, 70, 56
1, 47606, Control_c, 0, 64, 117
1, 47621, Control_c, 0, 64, 104
1, 47623, Note_on_c, 0, 68, 58
1, 47636, Control_c, 0, 64, 91
1, 47642, Note_on_c, 0, 32, 46
1, 47651, Control_c, 0, 64, 75
1, 47653, Note_on_c, 0, 44, 35
1, 47667, Control_c, 0, 64, 39
1, 47682, Control_c, 0, 64, 0
1, 47726, Control_c, 0, 64, 62
1, 47741, Control_c, 0, 64, 71
1, 47756, Control_c, 0, 64, 80
1, 47770, Control_c, 0, 64, 87
1, 47785, Control_c, 0, 64, 92
1, 47800, Control_c, 0, 64, 97
1, 47815, Control_c, 0, 64, 101
1, 47817, Note_off_c, 0, 32, 40
1, 47823, Note_off_c, 0, 44, 42
1, 47823, Note_off_c, 0, 68, 61
1, 47830, Control_c, 0, 64, 104
1, 47845, Control_c, 0, 64, 108
1, 47860, Control_c, 0, 64, 111
1, 47875, Control_c, 0, 64, 115
1, 47889, Control_c, 0, 64, 117
1, 47904, Control_c, 0, 64, 120
1, 47919, Control_c, 0, 64, 123
1, 47934, Control_c, 0, 64, 126
1, 47948, Control_c, 0, 64, 127
1, 48170, Note_on_c, 0, 51, 38
1, 48182, Note_on_c, 0, 68, 28
1, 48205, Note_on_c, 0, 70, 54
1, 48214, Note_off_c, 0, 51, 58
1, 48218, Note_off_c, 0, 68, 53
1, 48279, Note_on_c, 0, 68, 59
1, 48295, Note_on_c, 0, 59, 45
1, 48295, Note_on_c, 0, 63, 49
1, 48307, Note_on_c, 0, 56, 42
1, 48307, Note_on_c, 0, 51, 46
1, 48326, Note_off_c, 0, 70, 53
1, 48346, Note_off_c, 0, 51, 60
1, 48346, Note_off_c, 0, 56, 51
1, 48453, Note_off_c, 0, 68, 57
1, 48513, Note_off_c, 0, 63, 37
1, 48697, Note_off_c, 0, 59, 28
1, 48825, Note_on_c, 0, 67, 64
1, 48898, Note_off_c, 0, 67, 60
1, 48942, Control_c, 0, 64, 123
1, 48957, Control_c, 0, 64, 113
1, 48964, Note_on_c, 0, 68, 65
1, 48971, Control_c, 0, 64, 104
1, 48982, Note_on_c, 0, 32, 44
1, 48986, Control_c, 0, 64, 92
1, 48989, Note_on_c, 0, 44, 39
1, 49001, Control_c, 0, 64, 78
1, 49016, Control_c, 0, 64, 59
1, 49031, Control_c, 0, 64, 0
1, 49105, Control_c, 0, 64, 58
1, 49119, Control_c, 0, 64, 67
1, 49134, Control_c, 0, 64, 72
1, 49149, Control_c, 0, 64, 79
1, 49163, Control_c, 0, 64, 84
1, 49177, Note_off_c, 0, 44, 40
1, 49178, Control_c, 0, 64, 88
1, 49183, Note_off_c, 0, 32, 48
1, 49193, Control_c, 0, 64, 92
1, 49208, Control_c, 0, 64, 95
1, 49223, Control_c, 0, 64, 97
1, 49237, Control_c, 0, 64, 100
1, 49252, Control_c, 0, 64, 103
1, 49268, Control_c, 0, 64, 105
1, 49283, Control_c, 0, 64, 106
1, 49298, Control_c, 0, 64, 108
1, 49313, Control_c, 0, 64, 109
1, 49328, Control_c, 0, 64, 110
1, 49342, Control_c, 0, 64, 111
1, 49357, Control_c, 0, 64, 112
1, 49372, Control_c, 0, 64, 113
1, 49386, Control_c, 0, 64, 113
1, 49401, Control_c, 0, 64, 114
1, 49416, Control_c, 0, 64, 114
1, 49431, Control_c, 0, 64, 115
1, 49446, Control_c, 0, 64, 115
1, 49531, Note_on_c, 0, 44, 10
1, 49533, Note_on_c, 0, 51, 25
1, 49580, Note_off_c, 0, 44, 50
1, 49598, Note_off_c, 0, 51, 55
1, 49646, Control_c, 0, 64, 116
1, 49761, Note_on_c, 0, 63, 37
1, 49768, Note_on_c, 0, 51, 27
1, 49775, Note_on_c, 0, 59, 33
1, 49780, Note_off_c, 0, 68, 28
1, 49803, Note_on_c, 0, 56, 34
1, 49912, Control_c, 0, 64, 116
1, 49952, Note_off_c, 0, 59, 40
1, 49985, Note_off_c, 0, 51, 39
1, 49992, Note_off_c, 0, 63, 42
1, 49998, Note_off_c, 0, 56, 39
1, 50488, Note_on_c, 0, 68, 47
1, 50536, Note_off_c, 0, 68, 48
1, 50664, Note_on_c, 0, 68, 51
1, 50712, Note_off_c, 0, 68, 59
1, 50838, Control_c, 0, 64, 116
1, 50869, Control_c, 0, 64, 114
1, 50884, Control_c, 0, 64, 110
1, 50899, Control_c, 0, 64, 103
1, 50913, Control_c, 0, 64, 94
1, 50918, Note_on_c, 0, 80, 53
1, 50928, Control_c, 0, 64, 82
1, 50942, Note_on_c, 0, 76, 43
1, 50942, Note_on_c, 0, 40, 41
1, 50943, Control_c, 0, 64, 68
1, 50957, Control_c, 0, 64, 0
1, 51017, Control_c, 0, 64, 60
1, 51019, Poly_aftertouch_c, 0, 52, 127
1, 51032, Control_c, 0, 64, 70
1, 51035, Note_off_c, 0, 76, 46
1, 51046, Control_c, 0, 64, 78
1, 51058, Note_off_c, 0, 80, 60
1, 51061, Control_c, 0, 64, 87
1, 51074, Poly_aftertouch_c, 0, 52, 0
1, 51076, Control_c, 0, 64, 90
1, 51091, Control_c, 0, 64, 93
1, 51096, Note_off_c, 0, 40, 37
1, 51106, Control_c, 0, 64, 96
1, 51121, Control_c, 0, 64, 100
1, 51143, Control_c, 0, 64, 103
1, 51157, Control_c, 0, 64, 107
1, 51172, Control_c, 0, 64, 110
1, 51187, Control_c, 0, 64, 113
1, 51202, Control_c, 0, 64, 115
1, 51217, Control_c, 0, 64, 119
1, 51231, Control_c, 0, 64, 121
1, 51246, Control_c, 0, 64, 122
1, 51261, Control_c, 0, 64, 123
1, 51276, Control_c, 0, 64, 124
1, 51291, Control_c, 0, 64, 126
1, 51306, Control_c, 0, 64, 127
1, 51321, Control_c, 0, 64, 127
1, 51446, Note_on_c, 0, 64, 30
1, 51496, Note_off_c, 0, 64, 47
1, 51502, Poly_aftertouch_c, 0, 56, 0
1, 51613, Note_on_c, 0, 80, 66
1, 51626, Note_on_c, 0, 68, 45
1, 51636, Note_on_c, 0, 76, 47
1, 51645, Note_on_c, 0, 59, 38
1, 51660, Note_on_c, 0, 71, 18
1, 51699, Poly_aftertouch_c, 0, 64, 127
1, 51717, Note_off_c, 0, 68, 62
1, 51738, Poly_aftertouch_c, 0, 64, 0
1, 51741, Note_off_c, 0, 76, 43
1, 51747, Note_off_c, 0, 59, 51
1, 51775, Note_off_c, 0, 71, 36
1, 52143, Control_c, 0, 64, 124
1, 52153, Note_on_c, 0, 40, 42
1, 52158, Control_c, 0, 64, 111
1, 52173, Control_c, 0, 64, 97
1, 52183, Note_on_c, 0, 52, 24
1, 52187, Control_c, 0, 64, 81
1, 52202, Control_c, 0, 64, 62
1, 52217, Control_c, 0, 64, 0
1, 52233, Note_off_c, 0, 40, 58
1, 52247, Control_c, 0, 64, 53
1, 52251, Note_off_c, 0, 52, 43
1, 52262, Control_c, 0, 64, 70
1, 52268, Note_on_c, 0, 78, 61
1, 52277, Control_c, 0, 64, 78
1, 52281, Note_on_c, 0, 75, 49
1, 52292, Control_c, 0, 64, 84
1, 52305, Note_off_c, 0, 80, 58
1, 52306, Control_c, 0, 64, 87
1, 52317, Note_off_c, 0, 75, 55
1, 52321, Control_c, 0, 64, 88
1, 52336, Control_c, 0, 64, 91
1, 52351, Control_c, 0, 64, 94
1, 52366, Control_c, 0, 64, 97
1, 52380, Control_c, 0, 64, 100
1, 52395, Control_c, 0, 64, 102
1, 52396, Note_off_c, 0, 78, 40
1, 52401, Note_on_c, 0, 80, 80
1, 52410, Control_c, 0, 64, 103
1, 52425, Control_c, 0, 64, 103
1, 52430, Note_on_c, 0, 76, 29
1, 52440, Control_c, 0, 64, 104
1, 52456, Control_c, 0, 64, 105
1, 52463, Note_off_c, 0, 76, 41
1, 52471, Control_c, 0, 64, 105
1, 52500, Control_c, 0, 64, 106
1, 52507, Note_on_c, 0, 81, 78
1, 52513, Note_on_c, 0, 78, 66
1, 52524, Note_off_c, 0, 80, 64
1, 52529, Note_on_c, 0, 64, 55
1, 52540, Note_on_c, 0, 56, 14
1, 52545, Control_c, 0, 64, 106
1, 52547, Note_off_c, 0, 78, 58
1, 52570, Note_off_c, 0, 64, 60
1, 52582, Note_off_c, 0, 56, 37
1, 52618, Control_c, 0, 64, 106
1, 52641, Control_c, 0, 64, 102
1, 52656, Control_c, 0, 64, 94
1, 52671, Control_c, 0, 64, 82
1, 52685, Control_c, 0, 64, 68
1, 52689, Note_off_c, 0, 81, 53
1, 52698, Note_on_c, 0, 83, 67
1, 52700, Control_c, 0, 64, 23
1, 52715, Control_c, 0, 64, 0
1, 52716, Note_on_c, 0, 80, 58
1, 52717, Note_on_c, 0, 68, 53
1, 52729, Note_on_c, 0, 59, 41
1, 52751, Note_off_c, 0, 80, 64
1, 52756, Note_off_c, 0, 68, 59
1, 52763, Note_off_c, 0, 83, 59
1, 52779, Note_off_c, 0, 59, 58
1, 52848, Note_on_c, 0, 76, 62
1, 52865, Note_on_c, 0, 71, 38
1, 52876, Note_off_c, 0, 76, 69
1, 52892, Note_off_c, 0, 71, 34
1, 52960, Note_on_c, 0, 78, 67
1, 52960, Note_on_c, 0, 81, 66
1, 52991, Note_off_c, 0, 78, 63
1, 53003, Note_off_c, 0, 81, 54
1, 53059, Note_on_c, 0, 76, 61
1, 53061, Note_on_c, 0, 80, 67
1, 53079, Note_off_c, 0, 76, 67
1, 53109, Note_off_c, 0, 80, 63
1, 53199, Note_on_c, 0, 78, 76
1, 53202, Note_on_c, 0, 35, 45
1, 53203, Control_c, 0, 64, 64
1, 53218, Control_c, 0, 64, 73
1, 53220, Note_on_c, 0, 75, 47
1, 53222, Note_off_c, 0, 78, 68
1, 53231, Note_off_c, 0, 35, 56
1, 53233, Control_c, 0, 64, 81
1, 53246, Note_off_c, 0, 75, 50
1, 53248, Control_c, 0, 64, 87
1, 53264, Control_c, 0, 64, 90
1, 53279, Control_c, 0, 64, 92
1, 53294, Control_c, 0, 64, 94
1, 53308, Control_c, 0, 64, 97
1, 53323, Control_c, 0, 64, 100
1, 53338, Control_c, 0, 64, 103
1, 53352, Control_c, 0, 64, 105
1, 53367, Control_c, 0, 64, 106
1, 53389, Control_c, 0, 64, 107
1, 53404, Control_c, 0, 64, 109
1, 53419, Control_c, 0, 64, 111
1, 53434, Control_c, 0, 64, 113
1, 53449, Control_c, 0, 64, 114
1, 53464, Control_c, 0, 64, 115
1, 53479, Control_c, 0, 64, 115
1, 53494, Control_c, 0, 64, 116
1, 53508, Control_c, 0, 64, 117
1, 53523, Control_c, 0, 64, 118
1, 53565, Note_on_c, 0, 78, 58
1, 53566, Note_on_c, 0, 63, 51
1, 53567, Control_c, 0, 64, 118
1, 53582, Control_c, 0, 64, 119
1, 53592, Note_off_c, 0, 63, 61
1, 53598, Note_off_c, 0, 78, 65
1, 53608, Note_on_c, 0, 80, 65
1, 53641, Control_c, 0, 64, 119
1, 53673, Note_on_c, 0, 78, 81
1, 53688, Note_on_c, 0, 66, 46
1, 53697, Note_on_c, 0, 59, 42
1, 53699, Note_on_c, 0, 75, 45
1, 53715, Control_c, 0, 64, 120
1, 53717, Note_on_c, 0, 63, 19
1, 53720, Note_off_c, 0, 80, 58
1, 53727, Note_off_c, 0, 66, 65
1, 53729, Note_off_c, 0, 75, 58
1, 53738, Note_off_c, 0, 59, 61
1, 53761, Note_off_c, 0, 78, 57
1, 53763, Note_off_c, 0, 63, 38
1, 53774, Control_c, 0, 64, 120
1, 54036, Note_on_c, 0, 77, 59
1, 54062, Note_on_c, 0, 74, 34
1, 54088, Note_off_c, 0, 74, 55
1, 54138, Control_c, 0, 64, 120
1, 54153, Note_off_c, 0, 77, 56
1, 54153, Control_c, 0, 64, 118
1, 54168, Control_c, 0, 64, 116
1, 54182, Control_c, 0, 64, 113
1, 54197, Control_c, 0, 64, 109
1, 54212, Control_c, 0, 64, 105
1, 54227, Control_c, 0, 64, 98
1, 54239, Note_on_c, 0, 78, 55
1, 54242, Control_c, 0, 64, 91
1, 54257, Control_c, 0, 64, 84
1, 54260, Note_on_c, 0, 75, 38
1, 54269, Note_on_c, 0, 47, 42
1, 54272, Control_c, 0, 64, 76
1, 54287, Control_c, 0, 64, 67
1, 54302, Control_c, 0, 64, 45
1, 54316, Control_c, 0, 64, 0
1, 54331, Note_off_c, 0, 75, 37
1, 54338, Note_off_c, 0, 78, 61
1, 54347, Note_off_c, 0, 47, 40
1, 54985, Note_on_c, 0, 80, 46
1, 54999, Note_on_c, 0, 75, 38
1, 55003, Note_on_c, 0, 48, 35
1, 55017, Note_on_c, 0, 68, 13
1, 55020, Control_c, 0, 64, 58
1, 55035, Control_c, 0, 64, 63
1, 55050, Control_c, 0, 64, 65
1, 55065, Control_c, 0, 64, 67
1, 55080, Control_c, 0, 64, 71
1, 55094, Control_c, 0, 64, 75
1, 55109, Control_c, 0, 64, 80
1, 55124, Control_c, 0, 64, 82
1, 55139, Control_c, 0, 64, 83
1, 55154, Control_c, 0, 64, 85
1, 55169, Control_c, 0, 64, 87
1, 55184, Control_c, 0, 64, 90
1, 55199, Control_c, 0, 64, 92
1, 55213, Control_c, 0, 64, 94
1, 55219, Note_off_c, 0, 48, 43
1, 55228, Control_c, 0, 64, 95
1, 55234, Note_off_c, 0, 75, 37
1, 55243, Control_c, 0, 64, 96
1, 55258, Control_c, 0, 64, 97
1, 55273, Control_c, 0, 64, 98
1, 55275, Note_off_c, 0, 80, 34
1, 55285, Note_off_c, 0, 68, 41
1, 55288, Control_c, 0, 64, 99
1, 55303, Control_c, 0, 64, 100
1, 55318, Control_c, 0, 64, 100
1, 55332, Control_c, 0, 64, 101
1, 55362, Control_c, 0, 64, 101
1, 55406, Control_c, 0, 64, 102
1, 55539, Control_c, 0, 64, 102
1, 55770, Control_c, 0, 64, 102
1, 55785, Control_c, 0, 64, 101
1, 55800, Control_c, 0, 64, 95
1, 55803, Note_on_c, 0, 25, 35
1, 55803, Note_on_c, 0, 37, 22
1, 55809, Note_on_c, 0, 76, 48
1, 55815, Control_c, 0, 64, 86
1, 55829, Control_c, 0, 64, 75
1, 55835, Note_on_c, 0, 73, 34
1, 55844, Control_c, 0, 64, 59
1, 55859, Control_c, 0, 64, 0
1, 55874, Control_c, 0, 64, 59
1, 55889, Control_c, 0, 64, 70
1, 55903, Control_c, 0, 64, 80
1, 55918, Control_c, 0, 64, 87
1, 55933, Control_c, 0, 64, 89
1, 55947, Note_off_c, 0, 25, 53
1, 55948, Control_c, 0, 64, 92
1, 55956, Note_off_c, 0, 76, 64
1, 55962, Note_off_c, 0, 37, 47
1, 55962, Control_c, 0, 64, 95
1, 55973, Note_off_c, 0, 73, 38
1, 55977, Control_c, 0, 64, 99
1, 55992, Control_c, 0, 64, 103
1, 56007, Control_c, 0, 64, 106
1, 56022, Control_c, 0, 64, 109
1, 56036, Control_c, 0, 64, 112
1, 56051, Control_c, 0, 64, 114
1, 56066, Control_c, 0, 64, 116
1, 56081, Control_c, 0, 64, 119
1, 56096, Control_c, 0, 64, 121
1, 56111, Control_c, 0, 64, 122
1, 56126, Control_c, 0, 64, 123
1, 56141, Control_c, 0, 64, 123
1, 56155, Control_c, 0, 64, 124
1, 56170, Control_c, 0, 64, 124
1, 56215, Control_c, 0, 64, 125
1, 56292, Note_on_c, 0, 61, 42
1, 56319, Note_off_c, 0, 61, 56
1, 56412, Note_on_c, 0, 76, 70
1, 56443, Note_on_c, 0, 64, 40
1, 56444, Note_on_c, 0, 56, 36
1, 56444, Note_on_c, 0, 68, 40
1, 56454, Note_on_c, 0, 61, 6
1, 56479, Note_off_c, 0, 64, 56
1, 56501, Note_off_c, 0, 56, 59
1, 56506, Note_off_c, 0, 61, 44
1, 56546, Note_off_c, 0, 68, 38
1, 56889, Control_c, 0, 64, 124
1, 56899, Note_on_c, 0, 28, 44
1, 56904, Control_c, 0, 64, 121
1, 56904, Note_on_c, 0, 40, 40
1, 56919, Control_c, 0, 64, 113
1, 56934, Control_c, 0, 64, 103
1, 56949, Control_c, 0, 64, 89
1, 56964, Control_c, 0, 64, 74
1, 56978, Control_c, 0, 64, 50
1, 56986, Note_off_c, 0, 28, 59
1, 56993, Control_c, 0, 64, 0
1, 57005, Note_off_c, 0, 76, 35
1, 57008, Control_c, 0, 64, 45
1, 57008, Note_on_c, 0, 75, 55
1, 57017, Note_off_c, 0, 40, 50
1, 57023, Control_c, 0, 64, 68
1, 57038, Control_c, 0, 64, 77
1, 57052, Control_c, 0, 64, 83
1, 57067, Control_c, 0, 64, 86
1, 57082, Control_c, 0, 64, 87
1, 57083, Note_off_c, 0, 75, 63
1, 57096, Control_c, 0, 64, 90
1, 57111, Control_c, 0, 64, 93
1, 57133, Control_c, 0, 64, 96
1, 57148, Note_on_c, 0, 76, 69
1, 57148, Control_c, 0, 64, 99
1, 57162, Note_on_c, 0, 73, 53
1, 57163, Control_c, 0, 64, 101
1, 57178, Control_c, 0, 64, 102
1, 57181, Note_off_c, 0, 73, 62
1, 57193, Control_c, 0, 64, 103
1, 57208, Control_c, 0, 64, 105
1, 57223, Control_c, 0, 64, 107
1, 57238, Control_c, 0, 64, 108
1, 57253, Control_c, 0, 64, 108
1, 57261, Note_on_c, 0, 78, 70
1, 57278, Note_on_c, 0, 75, 54
1, 57280, Note_off_c, 0, 76, 63
1, 57282, Control_c, 0, 64, 109
1, 57297, Control_c, 0, 64, 109
1, 57308, Note_off_c, 0, 75, 60
1, 57368, Note_on_c, 0, 61, 44
1, 57372, Control_c, 0, 64, 108
1, 57373, Poly_aftertouch_c, 0, 56, 127
1, 57387, Control_c, 0, 64, 100
1, 57401, Control_c, 0, 64, 86
1, 57405, Note_on_c, 0, 64, 34
1, 57411, Poly_aftertouch_c, 0, 56, 0
1, 57416, Control_c, 0, 64, 71
1, 57431, Control_c, 0, 64, 0
1, 57453, Note_on_c, 0, 80, 69
1, 57465, Note_on_c, 0, 68, 53
1, 57467, Note_on_c, 0, 76, 54
1, 57475, Control_c, 0, 64, 32
1, 57484, Note_off_c, 0, 78, 35
1, 57485, Note_off_c, 0, 68, 62
1, 57488, Note_off_c, 0, 76, 66
1, 57490, Control_c, 0, 64, 53
1, 57493, Note_off_c, 0, 61, 61
1, 57494, Note_off_c, 0, 64, 53
1, 57505, Control_c, 0, 64, 39
1, 57514, Note_off_c, 0, 80, 61
1, 57520, Control_c, 0, 64, 0
1, 57592, Note_on_c, 0, 68, 55
1, 57599, Note_on_c, 0, 73, 63
1, 57622, Note_off_c, 0, 68, 59
1, 57630, Note_off_c, 0, 73, 64
1, 57712, Note_on_c, 0, 78, 59
1, 57715, Note_on_c, 0, 75, 55
1, 57739, Note_off_c, 0, 75, 63
1, 57786, Note_off_c, 0, 78, 38
1, 57806, Note_on_c, 0, 76, 63
1, 57830, Note_on_c, 0, 73, 32
1, 57852, Note_off_c, 0, 76, 63
1, 57861, Note_off_c, 0, 73, 41
1, 57959, Note_on_c, 0, 75, 61
1, 57959, Note_on_c, 0, 72, 60
1, 57965, Note_on_c, 0, 44, 44
1, 57971, Control_c, 0, 64, 57
1, 57982, Note_off_c, 0, 75, 67
1, 57984, Note_off_c, 0, 72, 67
1, 57986, Control_c, 0, 64, 69
1, 58001, Control_c, 0, 64, 75
1, 58009, Note_off_c, 0, 44, 61
1, 58016, Control_c, 0, 64, 83
1, 58031, Control_c, 0, 64, 88
1, 58046, Control_c, 0, 64, 91
1, 58061, Control_c, 0, 64, 93
1, 58076, Control_c, 0, 64, 96
1, 58091, Control_c, 0, 64, 98
1, 58105, Control_c, 0, 64, 100
1, 58120, Control_c, 0, 64, 102
1, 58135, Control_c, 0, 64, 104
1, 58150, Control_c, 0, 64, 107
1, 58165, Control_c, 0, 64, 108
1, 58180, Control_c, 0, 64, 109
1, 58195, Control_c, 0, 64, 109
1, 58210, Control_c, 0, 64, 110
1, 58239, Control_c, 0, 64, 110
1, 58254, Control_c, 0, 64, 111
1, 58284, Control_c, 0, 64, 111
1, 58313, Note_on_c, 0, 60, 42
1, 58313, Control_c, 0, 64, 112
1, 58316, Note_on_c, 0, 75, 40
1, 58343, Note_on_c, 0, 76, 54
1, 58344, Note_off_c, 0, 75, 56
1, 58357, Note_off_c, 0, 60, 44
1, 58417, Poly_aftertouch_c, 0, 56, 127
1, 58419, Note_on_c, 0, 60, 41
1, 58421, Note_on_c, 0, 75, 72
1, 58423, Note_on_c, 0, 63, 50
1, 58428, Note_on_c, 0, 72, 33
1, 58446, Note_off_c, 0, 76, 62
1, 58447, Note_off_c, 0, 63, 62
1, 58455, Note_off_c, 0, 60, 64
1, 58461, Note_off_c, 0, 72, 54
1, 58474, Poly_aftertouch_c, 0, 56, 0
1, 58475, Note_off_c, 0, 75, 63
1, 58476, Control_c, 0, 64, 112
1, 58842, Note_on_c, 0, 73, 58
1, 58849, Note_on_c, 0, 70, 32
1, 58883, Note_off_c, 0, 70, 53
1, 58958, Control_c, 0, 64, 112
1, 58973, Control_c, 0, 64, 110
1, 58988, Control_c, 0, 64, 108
1, 59003, Control_c, 0, 64, 103
1, 59018, Control_c, 0, 64, 98
1, 59026, Note_on_c, 0, 75, 54
1, 59033, Control_c, 0, 64, 92
1, 59035, Note_on_c, 0, 44, 38
1, 59042, Note_on_c, 0, 72, 43
1, 59047, Control_c, 0, 64, 84
1, 59062, Control_c, 0, 64, 72
1, 59068, Note_off_c, 0, 73, 34
1, 59077, Control_c, 0, 64, 37
1, 59092, Control_c, 0, 64, 0
1, 59181, Control_c, 0, 64, 61
1, 59190, Note_off_c, 0, 44, 58
1, 59196, Control_c, 0, 64, 72
1, 59211, Control_c, 0, 64, 80
1, 59226, Control_c, 0, 64, 86
1, 59241, Control_c, 0, 64, 89
1, 59255, Control_c, 0, 64, 92
1, 59270, Control_c, 0, 64, 95
1, 59285, Control_c, 0, 64, 98
1, 59299, Control_c, 0, 64, 101
1, 59314, Control_c, 0, 64, 104
1, 59329, Control_c, 0, 64, 106
1, 59344, Control_c, 0, 64, 108
1, 59359, Control_c, 0, 64, 110
1, 59381, Control_c, 0, 64, 112
1, 59396, Control_c, 0, 64, 114
1, 59411, Control_c, 0, 64, 115
1, 59426, Control_c, 0, 64, 116
1, 59441, Control_c, 0, 64, 117
1, 59455, Control_c, 0, 64, 119
1, 59470, Control_c, 0, 64, 120
1, 59485, Control_c, 0, 64, 120
1, 59499, Control_c, 0, 64, 121
1, 59512, Note_on_c, 0, 56, 17
1, 59514, Control_c, 0, 64, 121
1, 59518, Note_on_c, 0, 63, 13
1, 59544, Control_c, 0, 64, 122
1, 59559, Control_c, 0, 64, 122
1, 59568, Note_off_c, 0, 56, 44
1, 59579, Note_off_c, 0, 63, 49
1, 59603, Control_c, 0, 64, 123
1, 59633, Control_c, 0, 64, 123
1, 59678, Control_c, 0, 64, 124
1, 59708, Control_c, 0, 64, 124
1, 59730, Note_on_c, 0, 63, 27
1, 59750, Note_on_c, 0, 68, 35
1, 59751, Note_on_c, 0, 60, 36
1, 59751, Control_c, 0, 64, 125
1, 59755, Note_off_c, 0, 75, 54
1, 59783, Note_off_c, 0, 72, 37
1, 59825, Control_c, 0, 64, 125
1, 59900, Control_c, 0, 64, 126
1, 59911, Note_off_c, 0, 68, 37
1, 59914, Note_off_c, 0, 63, 39
1, 59915, Note_off_c, 0, 60, 35
1, 59974, Control_c, 0, 64, 126
1, 60406, Note_on_c, 0, 75, 32
1, 60466, Note_off_c, 0, 75, 59
1, 60647, Note_on_c, 0, 75, 41
1, 60675, Note_off_c, 0, 75, 51
1, 60690, Note_on_c, 0, 80, 50
1, 60750, Note_on_c, 0, 75, 44
1, 60767, Control_c, 0, 64, 126
1, 60782, Control_c, 0, 64, 124
1, 60797, Control_c, 0, 64, 116
1, 60801, Note_on_c, 0, 32, 33
1, 60812, Control_c, 0, 64, 106
1, 60826, Control_c, 0, 64, 91
1, 60841, Control_c, 0, 64, 77
1, 60856, Control_c, 0, 64, 60
1, 60878, Control_c, 0, 64, 0
1, 60907, Control_c, 0, 64, 57
1, 60922, Control_c, 0, 64, 71
1, 60937, Control_c, 0, 64, 79
1, 60952, Control_c, 0, 64, 87
1, 60967, Control_c, 0, 64, 92
1, 60982, Control_c, 0, 64, 97
1, 60997, Control_c, 0, 64, 102
1, 61012, Control_c, 0, 64, 110
1, 61025, Note_off_c, 0, 32, 41
1, 61026, Control_c, 0, 64, 117
1, 61039, Note_off_c, 0, 80, 30
1, 61041, Control_c, 0, 64, 125
1, 61056, Control_c, 0, 64, 127
1, 61124, Note_off_c, 0, 75, 60
1, 61196, Note_on_c, 0, 68, 43
1, 61225, Note_off_c, 0, 68, 54
1, 61344, Note_on_c, 0, 72, 52
1, 61366, Note_off_c, 0, 72, 60
1, 61371, Note_on_c, 0, 80, 57
1, 61429, Note_on_c, 0, 72, 61
1, 61448, Note_on_c, 0, 60, 36
1, 61495, Note_off_c, 0, 72, 62
1, 61537, Note_off_c, 0, 60, 55
1, 61573, Note_off_c, 0, 80, 38
1, 61735, Note_on_c, 0, 73, 48
1, 61760, Note_off_c, 0, 73, 57
1, 61867, Note_on_c, 0, 75, 60
1, 61890, Note_off_c, 0, 75, 66
1, 61895, Note_on_c, 0, 80, 46
1, 61938, Control_c, 0, 64, 123
1, 61939, Note_off_c, 0, 80, 0
1, 61939, Note_on_c, 0, 80, 15
1, 61953, Note_on_c, 0, 75, 69
1, 61953, Control_c, 0, 64, 104
1, 61962, Note_on_c, 0, 44, 40
1, 61967, Control_c, 0, 64, 85
1, 61982, Control_c, 0, 64, 69
1, 61998, Control_c, 0, 64, 0
1, 62028, Control_c, 0, 64, 65
1, 62043, Control_c, 0, 64, 76
1, 62058, Control_c, 0, 64, 87
1, 62064, Note_off_c, 0, 44, 55
1, 62073, Control_c, 0, 64, 96
1, 62088, Control_c, 0, 64, 99
1, 62103, Control_c, 0, 64, 102
1, 62117, Control_c, 0, 64, 107
1, 62132, Control_c, 0, 64, 113
1, 62142, Note_off_c, 0, 75, 55
1, 62147, Control_c, 0, 64, 120
1, 62162, Control_c, 0, 64, 127
1, 62197, Note_off_c, 0, 80, 42
1, 62252, Note_on_c, 0, 78, 59
1, 62313, Note_off_c, 0, 78, 50
1, 62376, Note_on_c, 0, 76, 57
1, 62386, Note_on_c, 0, 56, 8
1, 62398, Note_off_c, 0, 76, 62
1, 62418, Note_on_c, 0, 80, 52
1, 62430, Note_on_c, 0, 63, 48
1, 62433, Note_on_c, 0, 60, 15
1, 62450, Note_on_c, 0, 76, 68
1, 62505, Note_off_c, 0, 60, 35
1, 62505, Note_off_c, 0, 63, 56
1, 62565, Note_off_c, 0, 56, 40
1, 62578, Note_off_c, 0, 80, 33
1, 62663, Note_off_c, 0, 76, 55
1, 62708, Note_on_c, 0, 75, 53
1, 62737, Note_off_c, 0, 75, 65
1, 62848, Note_on_c, 0, 73, 41
1, 62876, Note_on_c, 0, 80, 61
1, 62876, Note_off_c, 0, 73, 45
1, 62894, Control_c, 0, 64, 110
1, 62909, Control_c, 0, 64, 94
1, 62911, Note_on_c, 0, 73, 64
1, 62922, Note_on_c, 0, 32, 46
1, 62924, Control_c, 0, 64, 73
1, 62938, Control_c, 0, 64, 0
1, 62983, Control_c, 0, 64, 63
1, 62998, Control_c, 0, 64, 74
1, 63012, Control_c, 0, 64, 85
1, 63027, Control_c, 0, 64, 95
1, 63042, Control_c, 0, 64, 100
1, 63048, Note_off_c, 0, 32, 50
1, 63057, Control_c, 0, 64, 104
1, 63072, Control_c, 0, 64, 109
1, 63083, Note_off_c, 0, 80, 40
1, 63086, Control_c, 0, 64, 116
1, 63101, Control_c, 0, 64, 125
1, 63116, Note_off_c, 0, 73, 54
1, 63124, Control_c, 0, 64, 127
1, 63212, Note_on_c, 0, 68, 40
1, 63241, Note_off_c, 0, 68, 54
1, 63316, Note_on_c, 0, 80, 61
1, 63318, Note_on_c, 0, 73, 29
1, 63359, Note_off_c, 0, 73, 0
1, 63359, Note_on_c, 0, 73, 26
1, 63372, Note_on_c, 0, 56, 24
1, 63379, Note_on_c, 0, 61, 49
1, 63442, Note_off_c, 0, 73, 58
1, 63442, Note_off_c, 0, 56, 39
1, 63442, Note_off_c, 0, 61, 55
1, 63470, Note_off_c, 0, 80, 56
1, 63574, Note_on_c, 0, 75, 67
1, 63600, Note_off_c, 0, 75, 69
1, 63698, Note_on_c, 0, 76, 45
1, 63716, Note_on_c, 0, 80, 58
1, 63721, Note_off_c, 0, 76, 52
1, 63747, Control_c, 0, 64, 116
1, 63758, Note_on_c, 0, 76, 73
1, 63761, Control_c, 0, 64, 96
1, 63772, Note_on_c, 0, 44, 48
1, 63776, Control_c, 0, 64, 77
1, 63791, Control_c, 0, 64, 0
1, 63794, Note_off_c, 0, 80, 61
1, 63835, Control_c, 0, 64, 63
1, 63850, Note_off_c, 0, 44, 59
1, 63850, Control_c, 0, 64, 75
1, 63873, Control_c, 0, 64, 86
1, 63888, Control_c, 0, 64, 96
1, 63902, Control_c, 0, 64, 100
1, 63917, Control_c, 0, 64, 104
1, 63932, Control_c, 0, 64, 109
1, 63947, Control_c, 0, 64, 116
1, 63962, Control_c, 0, 64, 123
1, 63973, Note_off_c, 0, 76, 60
1, 63976, Control_c, 0, 64, 127
1, 63999, Note_on_c, 0, 80, 60
1, 64055, Note_off_c, 0, 80, 55
1, 64086, Note_on_c, 0, 78, 60
1, 64118, Note_off_c, 0, 78, 61
1, 64139, Note_on_c, 0, 80, 42
1, 64153, Poly_aftertouch_c, 0, 56, 127
1, 64178, Note_on_c, 0, 78, 64
1, 64193, Note_on_c, 0, 61, 22
1, 64202, Note_off_c, 0, 80, 53
1, 64204, Note_on_c, 0, 64, 49
1, 64234, Poly_aftertouch_c, 0, 56, 0
1, 64246, Note_off_c, 0, 61, 44
1, 64253, Note_off_c, 0, 64, 61
1, 64333, Note_off_c, 0, 78, 56
1, 64422, Note_on_c, 0, 76, 47
1, 64466, Note_off_c, 0, 76, 49
1, 64556, Note_on_c, 0, 75, 43
1, 64617, Note_on_c, 0, 80, 48
1, 64626, Note_off_c, 0, 75, 0
1, 64636, Control_c, 0, 64, 114
1, 64637, Note_on_c, 0, 75, 49
1, 64651, Control_c, 0, 64, 90
1, 64666, Control_c, 0, 64, 70
1, 64672, Note_on_c, 0, 32, 38
1, 64681, Control_c, 0, 64, 0
1, 64725, Control_c, 0, 64, 65
1, 64729, Note_off_c, 0, 75, 63
1, 64740, Control_c, 0, 64, 76
1, 64755, Control_c, 0, 64, 90
1, 64770, Note_off_c, 0, 80, 41
1, 64770, Control_c, 0, 64, 99
1, 64785, Control_c, 0, 64, 104
1, 64799, Control_c, 0, 64, 109
1, 64802, Note_on_c, 0, 68, 45
1, 64807, Note_off_c, 0, 32, 35
1, 64814, Control_c, 0, 64, 115
1, 64828, Note_off_c, 0, 68, 56
1, 64829, Control_c, 0, 64, 124
1, 64844, Control_c, 0, 64, 127
1, 64866, Note_on_c, 0, 80, 60
1, 64907, Note_on_c, 0, 68, 58
1, 64919, Note_off_c, 0, 80, 54
1, 64931, Note_off_c, 0, 68, 59
1, 65029, Note_on_c, 0, 72, 61
1, 65048, Note_off_c, 0, 72, 63
1, 65054, Note_on_c, 0, 80, 57
1, 65115, Note_on_c, 0, 72, 55
1, 65118, Note_on_c, 0, 60, 48
1, 65137, Note_off_c, 0, 72, 59
1, 65154, Note_off_c, 0, 80, 61
1, 65171, Note_off_c, 0, 60, 61
1, 65241, Note_on_c, 0, 73, 53
1, 65263, Note_off_c, 0, 73, 57
1, 65276, Note_on_c, 0, 80, 62
1, 65330, Note_on_c, 0, 73, 64
1, 65385, Note_off_c, 0, 73, 58
1, 65406, Note_off_c, 0, 80, 38
1, 65474, Note_on_c, 0, 75, 58
1, 65495, Note_off_c, 0, 75, 65
1, 65504, Control_c, 0, 64, 111
1, 65519, Control_c, 0, 64, 85
1, 65521, Note_on_c, 0, 80, 62
1, 65534, Control_c, 0, 64, 60
1, 65546, Note_on_c, 0, 75, 65
1, 65546, Note_on_c, 0, 44, 39
1, 65548, Control_c, 0, 64, 0
1, 65578, Note_off_c, 0, 75, 67
1, 65578, Control_c, 0, 64, 63
1, 65593, Control_c, 0, 64, 76
1, 65608, Control_c, 0, 64, 92
1, 65609, Note_off_c, 0, 44, 56
1, 65614, Note_off_c, 0, 80, 58
1, 65622, Control_c, 0, 64, 103
1, 65637, Control_c, 0, 64, 108
1, 65652, Control_c, 0, 64, 114
1, 65666, Control_c, 0, 64, 124
1, 65681, Control_c, 0, 64, 127
1, 65687, Note_on_c, 0, 78, 65
1, 65738, Note_on_c, 0, 80, 65
1, 65754, Note_off_c, 0, 78, 0
1, 65792, Poly_aftertouch_c, 0, 78, 127
1, 65804, Note_off_c, 0, 80, 62
1, 65819, Poly_aftertouch_c, 0, 78, 0
1, 65918, Note_on_c, 0, 56, 36
1, 65920, Note_on_c, 0, 76, 67
1, 65945, Note_off_c, 0, 76, 67
1, 65954, Note_on_c, 0, 68, 26
1, 65955, Note_on_c, 0, 63, 48
1, 65958, Note_on_c, 0, 80, 71
1, 65987, Poly_aftertouch_c, 0, 60, 127
1, 65990, Note_off_c, 0, 68, 51
1, 65997, Note_off_c, 0, 56, 0
1, 65997, Note_on_c, 0, 56, 3
1, 66012, Note_on_c, 0, 76, 75
1, 66038, Note_off_c, 0, 80, 61
1, 66046, Note_off_c, 0, 63, 54
1, 66068, Poly_aftertouch_c, 0, 60, 0
1, 66082, Note_off_c, 0, 76, 56
1, 66097, Note_off_c, 0, 56, 55
1, 66151, Note_on_c, 0, 75, 62
1, 66172, Note_off_c, 0, 75, 66
1, 66178, Note_on_c, 0, 80, 63
1, 66233, Note_on_c, 0, 75, 76
1, 66258, Note_off_c, 0, 75, 69
1, 66262, Note_off_c, 0, 80, 62
1, 66445, Control_c, 0, 64, 109
1, 66457, Note_on_c, 0, 32, 48
1, 66460, Control_c, 0, 64, 85
1, 66461, Note_on_c, 0, 73, 67
1, 66475, Control_c, 0, 64, 49
1, 66489, Control_c, 0, 64, 0
1, 66519, Control_c, 0, 64, 65
1, 66534, Control_c, 0, 64, 81
1, 66549, Control_c, 0, 64, 101
1, 66563, Control_c, 0, 64, 127
1, 66570, Note_on_c, 0, 80, 49
1, 66576, Note_off_c, 0, 73, 51
1, 66613, Note_off_c, 0, 80, 63
1, 66620, Note_on_c, 0, 81, 63
1, 66649, Note_off_c, 0, 32, 37
1, 66663, Note_off_c, 0, 81, 52
1, 66696, Note_on_c, 0, 80, 62
1, 66729, Note_off_c, 0, 80, 65
1, 66734, Note_on_c, 0, 81, 49
1, 66770, Note_off_c, 0, 81, 51
1, 66802, Note_on_c, 0, 80, 66
1, 66838, Note_off_c, 0, 80, 63
1, 66868, Note_on_c, 0, 52, 32
1, 66870, Note_on_c, 0, 81, 64
1, 66927, Note_off_c, 0, 81, 61
1, 66953, Note_on_c, 0, 80, 61
1, 66960, Note_on_c, 0, 61, 54
1, 66961, Note_on_c, 0, 64, 35
1, 66962, Note_on_c, 0, 56, 22
1, 66964, Note_on_c, 0, 73, 64
1, 66970, Note_on_c, 0, 81, 58
1, 66972, Note_off_c, 0, 80, 65
1, 66994, Note_off_c, 0, 61, 63
1, 66994, Note_off_c, 0, 64, 45
1, 67020, Note_off_c, 0, 56, 42
1, 67021, Note_off_c, 0, 73, 45
1, 67045, Note_off_c, 0, 52, 17
1, 67046, Note_off_c, 0, 81, 54
1, 67052, Note_on_c, 0, 80, 69
1, 67105, Note_off_c, 0, 80, 62
1, 67106, Note_on_c, 0, 81, 56
1, 67277, Note_on_c, 0, 80, 41
1, 67301, Note_on_c, 0, 75, 66
1, 67326, Note_off_c, 0, 81, 56
1, 67331, Note_off_c, 0, 75, 67
1, 67348, Note_off_c, 0, 80, 64
1, 67401, Control_c, 0, 64, 107
1, 67406, Note_on_c, 0, 44, 51
1, 67407, Note_on_c, 0, 80, 69
1, 67408, Note_on_c, 0, 76, 73
1, 67416, Control_c, 0, 64, 76
1, 67430, Control_c, 0, 64, 0
1, 67445, Note_off_c, 0, 76, 59
1, 67465, Note_off_c, 0, 80, 60
1, 67475, Control_c, 0, 64, 69
1, 67477, Note_on_c, 0, 81, 51
1, 67490, Control_c, 0, 64, 84
1, 67504, Control_c, 0, 64, 102
1, 67507, Note_off_c, 0, 44, 60
1, 67519, Control_c, 0, 64, 117
1, 67534, Control_c, 0, 64, 126
1, 67536, Note_off_c, 0, 81, 61
1, 67547, Note_on_c, 0, 80, 57
1, 67549, Control_c, 0, 64, 127
1, 67567, Note_off_c, 0, 80, 64
1, 67641, Note_on_c, 0, 80, 82
1, 67694, Note_on_c, 0, 81, 51
1, 67711, Note_on_c, 0, 56, 54
1, 67732, Note_off_c, 0, 80, 60
1, 67763, Note_off_c, 0, 81, 50
1, 67839, Note_on_c, 0, 61, 35
1, 67841, Note_on_c, 0, 85, 72
1, 67841, Note_on_c, 0, 80, 70
1, 67860, Note_off_c, 0, 80, 62
1, 67867, Note_on_c, 0, 64, 51
1, 67867, Note_on_c, 0, 68, 35
1, 67884, Note_off_c, 0, 61, 59
1, 67892, Note_off_c, 0, 64, 57
1, 67899, Note_off_c, 0, 68, 54
1, 67908, Note_on_c, 0, 81, 69
1, 67911, Note_off_c, 0, 56, 49
1, 67932, Note_off_c, 0, 85, 62
1, 67960, Note_off_c, 0, 81, 60
1, 67981, Note_on_c, 0, 80, 41
1, 68011, Note_off_c, 0, 80, 53
1, 68050, Note_on_c, 0, 88, 72
1, 68070, Note_on_c, 0, 81, 48
1, 68093, Note_off_c, 0, 81, 57
1, 68114, Note_off_c, 0, 88, 61
1, 68123, Note_on_c, 0, 80, 56
1, 68158, Note_off_c, 0, 80, 64
1, 68268, Control_c, 0, 64, 116
1, 68282, Note_on_c, 0, 80, 60
1, 68283, Control_c, 0, 64, 87
1, 68287, Note_on_c, 0, 32, 45
1, 68298, Control_c, 0, 64, 64
1, 68313, Control_c, 0, 64, 0
1, 68336, Note_off_c, 0, 80, 59
1, 68341, Note_on_c, 0, 87, 61
1, 68365, Control_c, 0, 64, 65
1, 68380, Control_c, 0, 64, 79
1, 68395, Control_c, 0, 64, 92
1, 68398, Note_off_c, 0, 87, 54
1, 68399, Note_on_c, 0, 92, 64
1, 68409, Control_c, 0, 64, 103
1, 68424, Control_c, 0, 64, 111
1, 68440, Control_c, 0, 64, 121
1, 68440, Note_on_c, 0, 87, 35
1, 68455, Control_c, 0, 64, 127
1, 68465, Note_off_c, 0, 92, 63
1, 68473, Note_off_c, 0, 32, 38
1, 68490, Note_off_c, 0, 87, 63
1, 68506, Note_on_c, 0, 80, 62
1, 68523, Note_off_c, 0, 80, 65
1, 68634, Note_on_c, 0, 80, 38
1, 68684, Note_on_c, 0, 56, 47
1, 68717, Note_off_c, 0, 80, 54
1, 68723, Note_on_c, 0, 92, 74
1, 68759, Note_off_c, 0, 56, 0
1, 68766, Note_on_c, 0, 80, 31
1, 68783, Note_off_c, 0, 92, 55
1, 68792, Note_on_c, 0, 68, 38
1, 68797, Poly_aftertouch_c, 0, 56, 127
1, 68811, Note_on_c, 0, 84, 69
1, 68814, Note_on_c, 0, 63, 38
1, 68816, Note_off_c, 0, 80, 46
1, 68822, Note_off_c, 0, 68, 50
1, 68827, Poly_aftertouch_c, 0, 60, 127
1, 68846, Note_off_c, 0, 84, 59
1, 68859, Note_off_c, 0, 63, 63
1, 68861, Poly_aftertouch_c, 0, 60, 0
1, 68869, Note_on_c, 0, 92, 66
1, 68910, Poly_aftertouch_c, 0, 56, 0
1, 68936, Note_on_c, 0, 84, 60
1, 68950, Note_off_c, 0, 92, 60
1, 68953, Note_off_c, 0, 84, 67
1, 68986, Note_on_c, 0, 80, 57
1, 69046, Note_off_c, 0, 80, 62
1, 69054, Note_on_c, 0, 85, 61
1, 69084, Note_off_c, 0, 85, 65
1, 69088, Note_on_c, 0, 92, 64
1, 69203, Note_on_c, 0, 85, 28
1, 69237, Note_on_c, 0, 80, 35
1, 69238, Note_off_c, 0, 92, 42
1, 69242, Note_off_c, 0, 85, 31
1, 69263, Control_c, 0, 64, 119
1, 69271, Note_on_c, 0, 44, 42
1, 69278, Control_c, 0, 64, 95
1, 69293, Control_c, 0, 64, 76
1, 69307, Control_c, 0, 64, 60
1, 69313, Note_off_c, 0, 80, 53
1, 69322, Control_c, 0, 64, 61
1, 69334, Note_on_c, 0, 87, 33
1, 69337, Control_c, 0, 64, 74
1, 69343, Note_on_c, 0, 92, 68
1, 69352, Control_c, 0, 64, 91
1, 69359, Note_off_c, 0, 87, 53
1, 69367, Control_c, 0, 64, 110
1, 69377, Note_off_c, 0, 44, 62
1, 69382, Control_c, 0, 64, 124
1, 69397, Control_c, 0, 64, 127
1, 69421, Note_off_c, 0, 92, 54
1, 69430, Note_on_c, 0, 80, 43
1, 69438, Note_on_c, 0, 87, 63
1, 69457, Note_off_c, 0, 80, 54
1, 69459, Note_off_c, 0, 87, 63
1, 69530, Note_on_c, 0, 90, 59
1, 69564, Note_off_c, 0, 90, 60
1, 69588, Note_on_c, 0, 80, 55
1, 69600, Note_on_c, 0, 63, 46
1, 69618, Note_off_c, 0, 80, 60
1, 69653, Note_on_c, 0, 90, 67
1, 69681, Note_on_c, 0, 92, 59
1, 69689, Note_on_c, 0, 72, 42
1, 69698, Note_off_c, 0, 63, 37
1, 69720, Note_off_c, 0, 92, 58
1, 69733, Note_on_c, 0, 68, 58
1, 69740, Note_off_c, 0, 72, 51
1, 69752, Note_on_c, 0, 80, 49
1, 69753, Note_on_c, 0, 75, 28
1, 69753, Note_off_c, 0, 90, 57
1, 69755, Note_on_c, 0, 88, 63
1, 69770, Note_off_c, 0, 68, 65
1, 69773, Note_off_c, 0, 80, 59
1, 69784, Note_off_c, 0, 88, 65
1, 69788, Note_off_c, 0, 75, 42
1, 69829, Note_on_c, 0, 92, 73
1, 69878, Note_on_c, 0, 88, 57
1, 69904, Note_off_c, 0, 92, 63
1, 69942, Note_on_c, 0, 80, 60
1, 69945, Note_off_c, 0, 88, 58
1, 69983, Note_off_c, 0, 80, 60
1, 69997, Note_on_c, 0, 87, 58
1, 70025, Note_on_c, 0, 92, 70
1, 70035, Note_off_c, 0, 87, 60
1, 70103, Note_on_c, 0, 80, 55
1, 70114, Note_off_c, 0, 92, 59
1, 70121, Note_on_c, 0, 87, 27
1, 70122, Note_off_c, 0, 80, 63
1, 70159, Note_off_c, 0, 87, 30
1, 70180, Note_on_c, 0, 32, 53
1, 70190, Note_on_c, 0, 80, 72
1, 70205, Control_c, 0, 64, 100
1, 70220, Control_c, 0, 64, 78
1, 70232, Note_off_c, 0, 80, 56
1, 70234, Control_c, 0, 64, 0
1, 70261, Note_on_c, 0, 85, 48
1, 70278, Control_c, 0, 64, 70
1, 70286, Note_off_c, 0, 85, 59
1, 70292, Note_on_c, 0, 92, 67
1, 70293, Control_c, 0, 64, 86
1, 70298, Note_off_c, 0, 32, 62
1, 70308, Control_c, 0, 64, 100
1, 70323, Control_c, 0, 64, 111
1, 70334, Note_off_c, 0, 92, 57
1, 70337, Control_c, 0, 64, 120
1, 70352, Control_c, 0, 64, 127
1, 70368, Note_on_c, 0, 80, 59
1, 70390, Note_off_c, 0, 80, 61
1, 70506, Note_on_c, 0, 80, 65
1, 70534, Note_on_c, 0, 56, 31
1, 70545, Note_off_c, 0, 80, 56
1, 70580, Note_on_c, 0, 92, 58
1, 70589, Note_on_c, 0, 61, 45
1, 70619, Note_on_c, 0, 80, 42
1, 70638, Note_off_c, 0, 92, 53
1, 70651, Note_on_c, 0, 64, 47
1, 70655, Note_on_c, 0, 85, 67
1, 70664, Note_off_c, 0, 80, 54
1, 70685, Note_off_c, 0, 64, 55
1, 70702, Note_off_c, 0, 85, 63
1, 70715, Note_off_c, 0, 61, 56
1, 70742, Note_on_c, 0, 92, 51
1, 70754, Note_off_c, 0, 56, 40
1, 70796, Note_on_c, 0, 80, 21
1, 70804, Note_off_c, 0, 92, 0
1, 70841, Note_off_c, 0, 80, 48
1, 70843, Poly_aftertouch_c, 0, 92, 127
1, 70890, Note_on_c, 0, 87, 62
1, 70917, Poly_aftertouch_c, 0, 92, 0
1, 70923, Note_off_c, 0, 87, 61
1, 70933, Note_on_c, 0, 92, 33
1, 70988, Note_on_c, 0, 87, 32
1, 70995, Note_off_c, 0, 92, 59
1, 71035, Note_off_c, 0, 87, 56
1, 71058, Note_on_c, 0, 80, 7
1, 71093, Note_on_c, 0, 88, 68
1, 71100, Note_on_c, 0, 44, 50
1, 71101, Control_c, 0, 64, 108
1, 71105, Note_off_c, 0, 80, 37
1, 71116, Control_c, 0, 64, 84
1, 71131, Control_c, 0, 64, 64
1, 71146, Control_c, 0, 64, 0
1, 71160, Control_c, 0, 64, 65
1, 71162, Note_off_c, 0, 88, 55
1, 71164, Note_on_c, 0, 92, 38
1, 71175, Control_c, 0, 64, 80
1, 71190, Control_c, 0, 64, 99
1, 71191, Note_off_c, 0, 92, 57
1, 71194, Note_off_c, 0, 44, 61
1, 71197, Note_on_c, 0, 80, 55
1, 71205, Control_c, 0, 64, 127
1, 71223, Note_off_c, 0, 80, 57
1, 71245, Note_on_c, 0, 88, 37
1, 71272, Note_on_c, 0, 92, 62
1, 71275, Note_off_c, 0, 88, 58
1, 71305, Note_off_c, 0, 92, 62
1, 71331, Note_on_c, 0, 80, 60
1, 71373, Note_off_c, 0, 80, 65
1, 71400, Note_on_c, 0, 64, 51
1, 71402, Note_on_c, 0, 92, 78
1, 71450, Note_off_c, 0, 92, 43
1, 71452, Note_on_c, 0, 80, 72
1, 71486, Note_off_c, 0, 80, 57
1, 71513, Note_on_c, 0, 73, 53
1, 71533, Note_on_c, 0, 90, 61
1, 71552, Note_on_c, 0, 68, 45
1, 71559, Note_off_c, 0, 90, 64
1, 71561, Note_off_c, 0, 73, 45
1, 71568, Poly_aftertouch_c, 0, 92, 127
1, 71591, Note_on_c, 0, 80, 63
1, 71601, Note_off_c, 0, 68, 61
1, 71609, Note_off_c, 0, 64, 62
1, 71612, Note_off_c, 0, 80, 58
1, 71645, Note_on_c, 0, 90, 69
1, 71716, Poly_aftertouch_c, 0, 92, 0
1, 71726, Note_on_c, 0, 80, 54
1, 71752, Note_off_c, 0, 90, 55
1, 71766, Note_off_c, 0, 80, 64
1, 71772, Note_on_c, 0, 88, 55
1, 71805, Note_off_c, 0, 88, 60
1, 71807, Note_on_c, 0, 92, 73
1, 71857, Note_on_c, 0, 88, 55
1, 71889, Note_off_c, 0, 88, 64
1, 71897, Note_off_c, 0, 92, 63
1, 71902, Note_on_c, 0, 80, 65
1, 71957, Note_on_c, 0, 32, 50
1, 71969, Control_c, 0, 64, 113
1, 71984, Control_c, 0, 64, 87
1, 71985, Note_off_c, 0, 80, 42
1, 71993, Note_on_c, 0, 87, 67
1, 71999, Control_c, 0, 64, 64
1, 72014, Control_c, 0, 64, 0
1, 72029, Note_off_c, 0, 87, 54
1, 72043, Control_c, 0, 64, 64
1, 72050, Note_on_c, 0, 92, 58
1, 72058, Control_c, 0, 64, 78
1, 72073, Control_c, 0, 64, 94
1, 72080, Note_off_c, 0, 92, 67
1, 72083, Note_on_c, 0, 93, 65
1, 72088, Control_c, 0, 64, 112
1, 72109, Control_c, 0, 64, 127
1, 72137, Note_off_c, 0, 32, 41
1, 72146, Note_off_c, 0, 93, 55
1, 72151, Note_on_c, 0, 92, 70
1, 72196, Note_off_c, 0, 92, 60
1, 72200, Note_on_c, 0, 87, 63
1, 72235, Note_off_c, 0, 87, 60
1, 72244, Note_on_c, 0, 80, 60
1, 72282, Note_off_c, 0, 80, 48
1, 72291, Note_on_c, 0, 92, 68
1, 72338, Note_on_c, 0, 93, 66
1, 72339, Note_off_c, 0, 92, 64
1, 72351, Note_on_c, 0, 56, 40
1, 72381, Note_off_c, 0, 93, 55
1, 72393, Note_on_c, 0, 92, 45
1, 72398, Poly_aftertouch_c, 0, 60, 127
1, 72411, Note_on_c, 0, 80, 35
1, 72419, Note_off_c, 0, 92, 56
1, 72436, Note_on_c, 0, 84, 71
1, 72440, Note_off_c, 0, 80, 53
1, 72460, Note_on_c, 0, 63, 29
1, 72464, Note_off_c, 0, 84, 63
1, 72481, Poly_aftertouch_c, 0, 68, 127
1, 72500, Note_on_c, 0, 92, 67
1, 72503, Note_off_c, 0, 63, 48
1, 72509, Poly_aftertouch_c, 0, 68, 0
1, 72526, Poly_aftertouch_c, 0, 60, 0
1, 72557, Note_off_c, 0, 56, 41
1, 72567, Note_off_c, 0, 92, 63
1, 72573, Note_on_c, 0, 93, 52
1, 72601, Note_off_c, 0, 93, 50
1, 72603, Note_on_c, 0, 92, 55
1, 72629, Note_on_c, 0, 80, 53
1, 72658, Note_off_c, 0, 92, 60
1, 72670, Note_off_c, 0, 80, 55
1, 72670, Note_on_c, 0, 85, 65
1, 72703, Note_off_c, 0, 85, 64
1, 72722, Note_on_c, 0, 92, 66
1, 72768, Note_on_c, 0, 93, 62
1, 72785, Note_off_c, 0, 92, 63
1, 72822, Note_on_c, 0, 80, 67
1, 72832, Note_off_c, 0, 93, 59
1, 72861, Note_on_c, 0, 92, 51
1, 72888, Control_c, 0, 64, 115
1, 72903, Control_c, 0, 64, 90
1, 72905, Note_off_c, 0, 80, 59
1, 72907, Note_on_c, 0, 87, 60
1, 72915, Note_on_c, 0, 44, 56
1, 72918, Control_c, 0, 64, 69
1, 72932, Control_c, 0, 64, 0
1, 72947, Control_c, 0, 64, 33
1, 72956, Note_on_c, 0, 93, 69
1, 72956, Note_off_c, 0, 87, 60
1, 72962, Control_c, 0, 64, 71
1, 72977, Control_c, 0, 64, 91
1, 72982, Note_off_c, 0, 92, 0
1, 72992, Control_c, 0, 64, 116
1, 72994, Note_on_c, 0, 92, 39
1, 73007, Control_c, 0, 64, 127
1, 73017, Note_off_c, 0, 44, 63
1, 73025, Note_off_c, 0, 93, 52
1, 73043, Note_on_c, 0, 80, 69
1, 73090, Note_off_c, 0, 92, 58
1, 73099, Note_off_c, 0, 80, 58
1, 73104, Note_on_c, 0, 90, 67
1, 73150, Note_on_c, 0, 93, 75
1, 73162, Note_off_c, 0, 90, 62
1, 73220, Note_on_c, 0, 63, 45
1, 73238, Note_on_c, 0, 80, 73
1, 73240, Note_on_c, 0, 92, 51
1, 73247, Note_off_c, 0, 93, 50
1, 73248, Note_on_c, 0, 72, 53
1, 73267, Note_off_c, 0, 63, 46
1, 73267, Note_off_c, 0, 92, 56
1, 73292, Note_on_c, 0, 88, 64
1, 73308, Note_off_c, 0, 80, 60
1, 73335, Note_on_c, 0, 75, 56
1, 73338, Note_on_c, 0, 68, 62
1, 73347, Note_off_c, 0, 72, 64
1, 73354, Note_off_c, 0, 75, 62
1, 73358, Note_on_c, 0, 93, 77
1, 73360, Note_off_c, 0, 88, 62
1, 73361, Note_on_c, 0, 92, 49
1, 73382, Note_off_c, 0, 68, 63
1, 73421, Note_on_c, 0, 80, 75
1, 73440, Note_off_c, 0, 93, 54
1, 73447, Note_off_c, 0, 92, 57
1, 73459, Note_on_c, 0, 87, 67
1, 73478, Note_off_c, 0, 80, 61
1, 73536, Note_on_c, 0, 92, 49
1, 73538, Note_off_c, 0, 87, 61
1, 73539, Note_on_c, 0, 93, 73
1, 73576, Note_off_c, 0, 92, 64
1, 73636, Note_on_c, 0, 80, 66
1, 73643, Note_on_c, 0, 92, 65
1, 73663, Note_off_c, 0, 80, 67
1, 73680, Note_off_c, 0, 93, 56
1, 73710, Note_off_c, 0, 92, 64
1, 73755, Control_c, 0, 64, 103
1, 73758, Note_on_c, 0, 85, 76
1, 73758, Note_on_c, 0, 32, 55
1, 73770, Control_c, 0, 64, 78
1, 73785, Control_c, 0, 64, 0
1, 73827, Note_off_c, 0, 85, 58
1, 73829, Control_c, 0, 64, 75
1, 73833, Note_on_c, 0, 92, 68
1, 73844, Control_c, 0, 64, 93
1, 73859, Note_off_c, 0, 32, 61
1, 73859, Control_c, 0, 64, 115
1, 73865, Note_off_c, 0, 92, 64
1, 73872, Note_on_c, 0, 93, 67
1, 73874, Control_c, 0, 64, 127
1, 73907, Note_off_c, 0, 93, 58
1, 73938, Poly_aftertouch_c, 0, 85, 127
1, 73949, Note_on_c, 0, 92, 51
1, 73970, Note_off_c, 0, 92, 61
1, 73979, Note_on_c, 0, 93, 67
1, 73987, Poly_aftertouch_c, 0, 85, 0
1, 74014, Note_off_c, 0, 93, 60
1, 74041, Note_on_c, 0, 92, 71
1, 74082, Note_off_c, 0, 92, 61
1, 74086, Note_on_c, 0, 93, 65
1, 74094, Note_on_c, 0, 56, 24
1, 74131, Note_on_c, 0, 61, 45
1, 74146, Note_off_c, 0, 93, 61
1, 74163, Note_on_c, 0, 92, 51
1, 74181, Note_on_c, 0, 85, 76
1, 74182, Note_on_c, 0, 64, 61
1, 74186, Note_on_c, 0, 93, 70
1, 74186, Note_off_c, 0, 92, 63
1, 74218, Note_off_c, 0, 64, 65
1, 74222, Note_off_c, 0, 61, 62
1, 74242, Note_off_c, 0, 56, 40
1, 74255, Note_off_c, 0, 93, 59
1, 74256, Note_off_c, 0, 85, 51
1, 74258, Poly_aftertouch_c, 0, 68, 0
1, 74265, Note_on_c, 0, 92, 63
1, 74285, Note_off_c, 0, 92, 64
1, 74294, Note_on_c, 0, 93, 60
1, 74366, Note_on_c, 0, 92, 70
1, 74380, Note_off_c, 0, 93, 58
1, 74414, Note_off_c, 0, 92, 63
1, 74436, Note_on_c, 0, 93, 58
1, 74458, Note_on_c, 0, 84, 75
1, 74486, Note_on_c, 0, 92, 71
1, 74501, Note_off_c, 0, 84, 65
1, 74536, Note_off_c, 0, 93, 61
1, 74560, Note_off_c, 0, 92, 64
1, 74595, Note_on_c, 0, 85, 89
1, 74607, Note_on_c, 0, 92, 62
1, 74615, Note_on_c, 0, 44, 59
1, 74622, Control_c, 0, 64, 109
1, 74637, Control_c, 0, 64, 83
1, 74648, Note_off_c, 0, 85, 63
1, 74652, Control_c, 0, 64, 59
1, 74667, Control_c, 0, 64, 0
1, 74674, Note_on_c, 0, 93, 80
1, 74676, Note_off_c, 0, 92, 64
1, 74696, Control_c, 0, 64, 73
1, 74705, Note_off_c, 0, 44, 63
1, 74711, Control_c, 0, 64, 91
1, 74726, Control_c, 0, 64, 111
1, 74733, Note_off_c, 0, 93, 58
1, 74741, Control_c, 0, 64, 127
1, 74765, Note_on_c, 0, 92, 47
1, 74787, Note_on_c, 0, 93, 68
1, 74789, Note_off_c, 0, 92, 55
1, 74839, Note_off_c, 0, 93, 46
1, 74852, Note_on_c, 0, 92, 75
1, 74882, Note_off_c, 0, 92, 61
1, 74904, Note_on_c, 0, 93, 53
1, 74918, Note_on_c, 0, 64, 44
1, 74946, Note_off_c, 0, 93, 63
1, 74955, Note_on_c, 0, 92, 76
1, 74986, Note_off_c, 0, 92, 62
1, 74989, Note_on_c, 0, 88, 62
1, 75022, Note_on_c, 0, 73, 52
1, 75036, Note_off_c, 0, 64, 35
1, 75043, Note_off_c, 0, 88, 53
1, 75049, Note_off_c, 0, 73, 58
1, 75049, Note_on_c, 0, 92, 74
1, 75058, Note_on_c, 0, 68, 41
1, 75076, Note_off_c, 0, 92, 66
1, 75094, Note_off_c, 0, 68, 57
1, 75158, Note_on_c, 0, 100, 77
1, 75213, Note_on_c, 0, 99, 69
1, 75223, Control_c, 0, 64, 112
1, 75238, Control_c, 0, 64, 97
1, 75245, Note_off_c, 0, 100, 63
1, 75252, Control_c, 0, 64, 83
1, 75256, Note_on_c, 0, 97, 67
1, 75267, Control_c, 0, 64, 68
1, 75282, Control_c, 0, 64, 27
1, 75297, Control_c, 0, 64, 0
1, 75302, Note_off_c, 0, 99, 63
1, 75311, Note_on_c, 0, 92, 58
1, 75322, Note_off_c, 0, 97, 65
1, 75332, Note_off_c, 0, 92, 64
1, 75344, Note_on_c, 0, 88, 66
1, 75377, Note_off_c, 0, 88, 64
1, 75422, Note_on_c, 0, 87, 69
1, 75470, Note_on_c, 0, 85, 62
1, 75496, Note_off_c, 0, 87, 60
1, 75505, Note_on_c, 0, 80, 70
1, 75527, Note_off_c, 0, 85, 61
1, 75547, Note_off_c, 0, 80, 60
1, 75549, Control_c, 0, 64, 11
1, 75563, Note_on_c, 0, 76, 71
1, 75564, Control_c, 0, 64, 0
1, 75590, Note_off_c, 0, 76, 67
1, 75618, Note_on_c, 0, 44, 53
1, 75635, Note_on_c, 0, 75, 64
1, 75652, Note_off_c, 0, 44, 64
1, 75653, Note_off_c, 0, 75, 64
1, 75789, Note_on_c, 0, 51, 50
1, 75824, Note_off_c, 0, 51, 62
1, 75831, Note_on_c, 0, 76, 59
1, 75870, Note_off_c, 0, 76, 51
1, 75890, Note_on_c, 0, 78, 73
1, 75900, Note_on_c, 0, 54, 42
1, 75913, Note_off_c, 0, 78, 68
1, 75928, Note_off_c, 0, 54, 55
1, 76022, Note_on_c, 0, 60, 37
1, 76048, Note_off_c, 0, 60, 55
1, 76087, Note_on_c, 0, 80, 61
1, 76131, Note_on_c, 0, 63, 48
1, 76134, Note_on_c, 0, 81, 72
1, 76142, Note_off_c, 0, 80, 64
1, 76155, Note_off_c, 0, 81, 68
1, 76161, Note_off_c, 0, 63, 55
1, 76260, Note_on_c, 0, 68, 54
1, 76283, Note_off_c, 0, 68, 60
1, 76336, Note_on_c, 0, 80, 57
1, 76356, Control_c, 0, 64, 14
1, 76371, Note_off_c, 0, 80, 55
1, 76371, Control_c, 0, 64, 16
1, 76383, Note_on_c, 0, 63, 44
1, 76386, Note_on_c, 0, 83, 69
1, 76386, Control_c, 0, 64, 14
1, 76400, Control_c, 0, 64, 11
1, 76408, Note_off_c, 0, 83, 66
1, 76417, Control_c, 0, 64, 14
1, 76430, Note_off_c, 0, 63, 47
1, 76432, Control_c, 0, 64, 25
1, 76446, Control_c, 0, 64, 32
1, 76461, Control_c, 0, 64, 30
1, 76476, Control_c, 0, 64, 23
1, 76490, Control_c, 0, 64, 22
1, 76505, Control_c, 0, 64, 25
1, 76512, Note_on_c, 0, 68, 8
1, 76513, Note_off_c, 0, 68, 127
1, 76520, Control_c, 0, 64, 27
1, 76550, Control_c, 0, 64, 26
1, 76560, Note_on_c, 0, 81, 66
1, 76579, Control_c, 0, 64, 27
1, 76602, Control_c, 0, 64, 30
1, 76630, Note_on_c, 0, 44, 61
1, 76632, Control_c, 0, 64, 27
1, 76637, Note_off_c, 0, 81, 61
1, 76639, Note_on_c, 0, 80, 62
1, 76646, Control_c, 0, 64, 26
1, 76655, Note_off_c, 0, 80, 66
1, 76660, Note_off_c, 0, 44, 64
1, 76676, Control_c, 0, 64, 27
1, 76691, Control_c, 0, 64, 26
1, 76705, Control_c, 0, 64, 23
1, 76720, Control_c, 0, 64, 22
1, 76750, Control_c, 0, 64, 25
1, 76765, Control_c, 0, 64, 26
1, 76787, Note_on_c, 0, 51, 45
1, 76794, Control_c, 0, 64, 20
1, 76809, Control_c, 0, 64, 18
1, 76823, Control_c, 0, 64, 20
1, 76827, Note_off_c, 0, 51, 58
1, 76830, Note_on_c, 0, 80, 63
1, 76868, Control_c, 0, 64, 18
1, 76880, Note_on_c, 0, 68, 70
1, 76881, Note_on_c, 0, 54, 46
1, 76883, Control_c, 0, 64, 14
1, 76897, Note_off_c, 0, 80, 61
1, 76903, Note_off_c, 0, 68, 66
1, 76911, Note_off_c, 0, 54, 56
1, 76957, Control_c, 0, 64, 11
1, 77003, Note_on_c, 0, 60, 39
1, 77027, Note_off_c, 0, 60, 54
1, 77046, Control_c, 0, 64, 0
1, 77078, Note_on_c, 0, 80, 64
1, 77111, Note_on_c, 0, 70, 78
1, 77114, Note_on_c, 0, 63, 49
1, 77133, Note_off_c, 0, 70, 70
1, 77143, Note_off_c, 0, 63, 57
1, 77149, Note_off_c, 0, 80, 61
1, 77194, Control_c, 0, 64, 11
1, 77209, Control_c, 0, 64, 14
1, 77225, Control_c, 0, 64, 0
1, 77254, Note_on_c, 0, 68, 48
1, 77285, Note_off_c, 0, 68, 56
1, 77320, Note_on_c, 0, 80, 59
1, 77351, Note_on_c, 0, 72, 71
1, 77367, Note_on_c, 0, 63, 50
1, 77380, Control_c, 0, 64, 39
1, 77390, Note_off_c, 0, 80, 56
1, 77395, Control_c, 0, 64, 66
1, 77410, Control_c, 0, 64, 71
1, 77424, Control_c, 0, 64, 75
1, 77430, Note_off_c, 0, 63, 54
1, 77439, Control_c, 0, 64, 78
1, 77454, Control_c, 0, 64, 80
1, 77460, Note_on_c, 0, 68, 52
1, 77469, Control_c, 0, 64, 81
1, 77484, Control_c, 0, 64, 81
1, 77484, Note_off_c, 0, 68, 56
1, 77499, Control_c, 0, 64, 82
1, 77508, Note_off_c, 0, 72, 32
1, 77517, Note_on_c, 0, 73, 67
1, 77558, Note_off_c, 0, 73, 53
1, 77558, Control_c, 0, 64, 81
1, 77573, Control_c, 0, 64, 78
1, 77584, Note_on_c, 0, 75, 57
1, 77588, Control_c, 0, 64, 70
1, 77594, Note_on_c, 0, 73, 60
1, 77602, Control_c, 0, 64, 43
1, 77609, Note_on_c, 0, 44, 60
1, 77617, Control_c, 0, 64, 0
1, 77621, Note_off_c, 0, 73, 67
1, 77621, Note_off_c, 0, 75, 65
1, 77634, Note_off_c, 0, 44, 59
1, 77755, Note_on_c, 0, 52, 58
1, 77786, Note_on_c, 0, 72, 37
1, 77791, Note_off_c, 0, 52, 64
1, 77814, Note_off_c, 0, 72, 57
1, 77824, Note_on_c, 0, 73, 66
1, 77852, Note_off_c, 0, 73, 64
1, 77864, Note_on_c, 0, 56, 58
1, 77885, Note_off_c, 0, 56, 64
1, 77965, Note_on_c, 0, 75, 32
1, 77981, Note_on_c, 0, 61, 59
1, 77987, Note_off_c, 0, 75, 49
1, 78005, Note_off_c, 0, 61, 64
1, 78017, Note_on_c, 0, 76, 60
1, 78040, Note_off_c, 0, 76, 59
1, 78057, Note_on_c, 0, 78, 60
1, 78092, Note_off_c, 0, 78, 53
1, 78106, Note_on_c, 0, 76, 80
1, 78113, Note_on_c, 0, 64, 57
1, 78125, Note_off_c, 0, 76, 74
1, 78143, Note_off_c, 0, 64, 65
1, 78249, Note_on_c, 0, 68, 60
1, 78282, Note_off_c, 0, 68, 61
1, 78305, Note_on_c, 0, 75, 64
1, 78337, Note_off_c, 0, 75, 66
1, 78360, Note_on_c, 0, 76, 74
1, 78374, Note_on_c, 0, 64, 50
1, 78391, Note_off_c, 0, 76, 65
1, 78413, Note_off_c, 0, 64, 65
1, 78512, Note_on_c, 0, 68, 54
1, 78533, Note_off_c, 0, 68, 60
1, 78557, Note_on_c, 0, 78, 66
1, 78613, Note_off_c, 0, 78, 60
1, 78644, Note_on_c, 0, 79, 61
1, 78661, Note_on_c, 0, 44, 56
1, 78688, Note_off_c, 0, 44, 61
1, 78822, Note_on_c, 0, 52, 41
1, 78839, Note_on_c, 0, 80, 63
1, 78860, Note_off_c, 0, 52, 64
1, 78862, Note_off_c, 0, 79, 28
1, 78876, Note_off_c, 0, 80, 64
1, 78939, Note_on_c, 0, 83, 66
1, 78957, Note_on_c, 0, 56, 51
1, 78959, Note_on_c, 0, 81, 62
1, 78980, Note_off_c, 0, 56, 57
1, 78980, Note_off_c, 0, 83, 48
1, 79101, Note_on_c, 0, 61, 47
1, 79124, Note_off_c, 0, 61, 57
1, 79132, Note_off_c, 0, 81, 56
1, 79156, Note_on_c, 0, 80, 63
1, 79195, Note_off_c, 0, 80, 56
1, 79249, Note_on_c, 0, 84, 69
1, 79250, Note_on_c, 0, 64, 53
1, 79254, Note_on_c, 0, 78, 62
1, 79276, Note_off_c, 0, 64, 63
1, 79296, Note_off_c, 0, 78, 54
1, 79377, Note_off_c, 0, 84, 60
1, 79410, Note_on_c, 0, 68, 59
1, 79435, Note_off_c, 0, 68, 65
1, 79449, Note_on_c, 0, 76, 63
1, 79475, Note_off_c, 0, 76, 70
1, 79555, Note_on_c, 0, 64, 55
1, 79570, Note_on_c, 0, 85, 67
1, 79583, Note_on_c, 0, 75, 62
1, 79583, Note_off_c, 0, 64, 65
1, 79611, Note_off_c, 0, 75, 66
1, 79657, Note_off_c, 0, 85, 50
1, 79732, Note_on_c, 0, 68, 55
1, 79751, Note_on_c, 0, 73, 50
1, 79753, Note_off_c, 0, 68, 60
1, 79788, Note_off_c, 0, 73, 63
1, 79848, Note_on_c, 0, 72, 65
1, 79868, Note_off_c, 0, 72, 67
1, 79979, Note_on_c, 0, 44, 67
1, 79990, Note_on_c, 0, 99, 74
1, 80007, Note_off_c, 0, 44, 65
1, 80015, Note_off_c, 0, 99, 71
1, 80159, Note_on_c, 0, 51, 35
1, 80191, Note_off_c, 0, 51, 47
1, 80207, Note_on_c, 0, 88, 50
1, 80248, Note_on_c, 0, 54, 47
1, 80250, Note_off_c, 0, 88, 41
1, 80264, Note_on_c, 0, 90, 69
1, 80277, Note_off_c, 0, 54, 57
1, 80291, Note_off_c, 0, 90, 67
1, 80382, Note_on_c, 0, 60, 51
1, 80411, Note_off_c, 0, 60, 62
1, 80455, Note_on_c, 0, 92, 65
1, 80495, Note_on_c, 0, 63, 59
1, 80496, Note_on_c, 0, 93, 73
1, 80504, Note_off_c, 0, 92, 66
1, 80519, Note_off_c, 0, 93, 67
1, 80528, Note_off_c, 0, 63, 62
1, 80640, Note_on_c, 0, 68, 57
1, 80672, Note_off_c, 0, 68, 52
1, 80693, Note_on_c, 0, 92, 68
1, 80739, Note_on_c, 0, 95, 77
1, 80743, Note_off_c, 0, 92, 64
1, 80754, Note_on_c, 0, 63, 44
1, 80766, Note_off_c, 0, 95, 67
1, 80795, Note_off_c, 0, 63, 48
1, 80873, Note_on_c, 0, 68, 47
1, 80898, Note_off_c, 0, 68, 53
1, 80929, Note_on_c, 0, 93, 70
1, 81000, Note_on_c, 0, 92, 70
1, 81005, Note_off_c, 0, 93, 61
1, 81010, Note_on_c, 0, 44, 59
1, 81022, Note_off_c, 0, 92, 70
1, 81037, Note_off_c, 0, 44, 62
1, 81190, Note_on_c, 0, 51, 40
1, 81227, Note_off_c, 0, 51, 54
1, 81239, Note_on_c, 0, 68, 37
1, 81272, Note_off_c, 0, 68, 48
1, 81300, Note_on_c, 0, 80, 64
1, 81303, Note_on_c, 0, 54, 49
1, 81331, Note_off_c, 0, 80, 67
1, 81336, Note_off_c, 0, 54, 61
1, 81464, Note_on_c, 0, 60, 41
1, 81491, Note_off_c, 0, 60, 55
1, 81558, Note_on_c, 0, 70, 54
1, 81608, Note_off_c, 0, 70, 51
1, 81635, Note_on_c, 0, 63, 37
1, 81639, Note_on_c, 0, 82, 61
1, 81672, Note_off_c, 0, 63, 54
1, 81685, Note_off_c, 0, 82, 64
1, 81821, Note_on_c, 0, 68, 29
1, 81864, Note_off_c, 0, 68, 31
1, 81933, Note_on_c, 0, 72, 43
1, 81970, Note_off_c, 0, 72, 47
1, 82042, Note_on_c, 0, 84, 46
1, 82053, Note_on_c, 0, 63, 38
1, 82122, Note_off_c, 0, 84, 63
1, 82140, Control_c, 0, 64, 63
1, 82155, Control_c, 0, 64, 69
1, 82170, Control_c, 0, 64, 73
1, 82185, Control_c, 0, 64, 77
1, 82200, Control_c, 0, 64, 80
1, 82215, Control_c, 0, 64, 83
1, 82230, Control_c, 0, 64, 86
1, 82244, Control_c, 0, 64, 89
1, 82259, Control_c, 0, 64, 91
1, 82274, Control_c, 0, 64, 93
1, 82278, Note_off_c, 0, 63, 34
1, 82289, Control_c, 0, 64, 94
1, 82304, Control_c, 0, 64, 94
1, 82307, Note_on_c, 0, 68, 46
1, 82318, Control_c, 0, 64, 95
1, 82333, Control_c, 0, 64, 96
1, 82339, Note_off_c, 0, 68, 55
1, 82348, Control_c, 0, 64, 96
1, 82356, Note_on_c, 0, 73, 34
1, 82429, Note_off_c, 0, 73, 39
1, 82433, Note_on_c, 0, 80, 48
1, 82496, Note_on_c, 0, 87, 48
1, 82510, Control_c, 0, 64, 97
1, 82598, Note_off_c, 0, 80, 36
1, 82681, Control_c, 0, 64, 96
1, 82689, Note_on_c, 0, 85, 53
1, 82696, Control_c, 0, 64, 93
1, 82710, Note_on_c, 0, 77, 40
1, 82710, Control_c, 0, 64, 85
1, 82717, Note_on_c, 0, 37, 39
1, 82725, Control_c, 0, 64, 73
1, 82730, Note_off_c, 0, 87, 24
1, 82740, Control_c, 0, 64, 48
1, 82755, Control_c, 0, 64, 0
1, 82769, Control_c, 0, 64, 55
1, 82775, Note_off_c, 0, 85, 52
1, 82781, Note_off_c, 0, 77, 0
1, 82781, Note_on_c, 0, 77, 10
1, 82784, Control_c, 0, 64, 70
1, 82799, Control_c, 0, 64, 79
1, 82815, Control_c, 0, 64, 88
1, 82830, Control_c, 0, 64, 93
1, 82845, Control_c, 0, 64, 96
1, 82859, Control_c, 0, 64, 101
1, 82874, Control_c, 0, 64, 107
1, 82889, Control_c, 0, 64, 113
1, 82904, Control_c, 0, 64, 121
1, 82919, Control_c, 0, 64, 127
1, 82924, Note_on_c, 0, 87, 33
1, 82930, Note_on_c, 0, 49, 23
1, 82957, Note_off_c, 0, 87, 49
1, 82965, Note_off_c, 0, 37, 47
1, 82968, Note_off_c, 0, 49, 48
1, 83009, Note_on_c, 0, 85, 41
1, 83044, Note_off_c, 0, 85, 51
1, 83055, Note_on_c, 0, 87, 51
1, 83114, Note_on_c, 0, 53, 33
1, 83132, Note_off_c, 0, 87, 59
1, 83148, Note_on_c, 0, 85, 53
1, 83148, Note_off_c, 0, 53, 49
1, 83184, Note_off_c, 0, 85, 62
1, 83213, Note_on_c, 0, 87, 44
1, 83243, Note_on_c, 0, 56, 38
1, 83263, Note_off_c, 0, 87, 59
1, 83273, Note_on_c, 0, 85, 58
1, 83304, Note_off_c, 0, 56, 51
1, 83306, Note_off_c, 0, 85, 63
1, 83342, Note_on_c, 0, 87, 47
1, 83359, Note_on_c, 0, 61, 52
1, 83377, Note_off_c, 0, 87, 55
1, 83401, Note_off_c, 0, 61, 60
1, 83414, Note_on_c, 0, 85, 41
1, 83441, Note_off_c, 0, 85, 48
1, 83449, Note_on_c, 0, 87, 58
1, 83484, Note_off_c, 0, 87, 58
1, 83508, Note_on_c, 0, 68, 50
1, 83522, Note_on_c, 0, 85, 51
1, 83542, Note_off_c, 0, 85, 60
1, 83561, Note_on_c, 0, 87, 59
1, 83584, Note_off_c, 0, 87, 59
1, 83608, Note_off_c, 0, 68, 40
1, 83614, Note_on_c, 0, 85, 61
1, 83625, Note_on_c, 0, 61, 49
1, 83641, Note_off_c, 0, 85, 63
1, 83660, Note_on_c, 0, 87, 66
1, 83673, Note_off_c, 0, 77, 36
1, 83711, Note_off_c, 0, 87, 48
1, 83720, Note_on_c, 0, 68, 62
1, 83724, Note_on_c, 0, 85, 65
1, 83748, Note_off_c, 0, 61, 54
1, 83750, Note_off_c, 0, 68, 65
1, 83753, Note_off_c, 0, 85, 65
1, 83791, Note_on_c, 0, 77, 24
1, 83836, Note_off_c, 0, 77, 0
1, 83852, Note_on_c, 0, 77, 30
1, 83857, Note_on_c, 0, 85, 54
1, 83879, Note_off_c, 0, 85, 62
1, 83886, Note_on_c, 0, 49, 64
1, 83896, Note_on_c, 0, 87, 31
1, 83931, Note_off_c, 0, 87, 51
1, 83962, Note_on_c, 0, 85, 57
1, 83985, Note_off_c, 0, 85, 65
1, 84017, Note_on_c, 0, 87, 53
1, 84030, Note_on_c, 0, 56, 57
1, 84040, Note_off_c, 0, 87, 59
1, 84050, Note_off_c, 0, 49, 35
1, 84066, Note_on_c, 0, 85, 64
1, 84083, Note_off_c, 0, 56, 57
1, 84104, Note_off_c, 0, 85, 63
1, 84122, Note_on_c, 0, 87, 67
1, 84158, Note_off_c, 0, 87, 57
1, 84163, Note_on_c, 0, 65, 60
1, 84188, Note_on_c, 0, 85, 63
1, 84221, Note_off_c, 0, 65, 52
1, 84225, Note_off_c, 0, 85, 63
1, 84242, Note_on_c, 0, 87, 62
1, 84281, Note_off_c, 0, 87, 61
1, 84288, Note_on_c, 0, 85, 65
1, 84301, Note_on_c, 0, 68, 53
1, 84339, Note_off_c, 0, 85, 64
1, 84354, Note_on_c, 0, 87, 53
1, 84391, Note_off_c, 0, 87, 57
1, 84400, Note_off_c, 0, 68, 57
1, 84400, Note_on_c, 0, 85, 60
1, 84427, Note_on_c, 0, 73, 62
1, 84444, Note_off_c, 0, 85, 63
1, 84465, Note_off_c, 0, 73, 59
1, 84468, Note_on_c, 0, 87, 64
1, 84500, Note_off_c, 0, 87, 62
1, 84516, Note_on_c, 0, 85, 61
1, 84564, Note_off_c, 0, 85, 62
1, 84577, Note_on_c, 0, 87, 65
1, 84613, Note_on_c, 0, 80, 58
1, 84620, Note_off_c, 0, 87, 52
1, 84639, Note_on_c, 0, 85, 53
1, 84671, Note_off_c, 0, 85, 66
1, 84686, Note_on_c, 0, 87, 58
1, 84704, Note_off_c, 0, 80, 37
1, 84722, Note_off_c, 0, 87, 62
1, 84746, Note_on_c, 0, 85, 66
1, 84752, Note_on_c, 0, 73, 59
1, 84775, Note_off_c, 0, 85, 66
1, 84794, Note_on_c, 0, 87, 52
1, 84838, Note_off_c, 0, 87, 61
1, 84853, Note_on_c, 0, 85, 62
1, 84883, Note_off_c, 0, 85, 67
1, 84889, Note_on_c, 0, 80, 65
1, 84902, Note_on_c, 0, 87, 70
1, 84935, Note_off_c, 0, 73, 60
1, 84939, Note_off_c, 0, 80, 62
1, 84957, Note_on_c, 0, 85, 75
1, 84975, Note_off_c, 0, 87, 60
1, 84997, Note_off_c, 0, 77, 40
1, 85005, Note_off_c, 0, 85, 65
1, 85109, Note_on_c, 0, 77, 68
1, 85114, Note_on_c, 0, 85, 76
1, 85175, Note_off_c, 0, 77, 58
1, 85194, Note_off_c, 0, 85, 56
1, 85261, Note_on_c, 0, 80, 61
1, 85272, Note_on_c, 0, 87, 56
1, 85294, Note_off_c, 0, 87, 58
1, 85310, Note_off_c, 0, 80, 55
1, 85349, Note_on_c, 0, 85, 70
1, 85362, Note_on_c, 0, 77, 62
1, 85392, Note_off_c, 0, 77, 65
1, 85413, Note_off_c, 0, 85, 61
1, 85435, Note_on_c, 0, 80, 51
1, 85443, Note_on_c, 0, 87, 57
1, 85476, Note_off_c, 0, 87, 64
1, 85486, Note_off_c, 0, 80, 58
1, 85518, Note_on_c, 0, 85, 67
1, 85523, Note_on_c, 0, 77, 51
1, 85545, Note_off_c, 0, 77, 60
1, 85564, Note_off_c, 0, 85, 56
1, 85592, Note_on_c, 0, 87, 64
1, 85604, Note_on_c, 0, 80, 51
1, 85628, Note_off_c, 0, 87, 61
1, 85638, Note_off_c, 0, 80, 50
1, 85669, Note_on_c, 0, 77, 52
1, 85675, Note_on_c, 0, 85, 68
1, 85693, Note_off_c, 0, 77, 62
1, 85702, Note_off_c, 0, 85, 64
1, 85720, Note_on_c, 0, 87, 63
1, 85738, Note_off_c, 0, 87, 62
1, 85743, Note_on_c, 0, 80, 35
1, 85773, Note_off_c, 0, 80, 53
1, 85789, Note_on_c, 0, 77, 60
1, 85791, Note_on_c, 0, 85, 69
1, 85816, Note_off_c, 0, 85, 68
1, 85818, Note_off_c, 0, 77, 63
1, 85825, Note_on_c, 0, 87, 61
1, 85852, Note_on_c, 0, 80, 48
1, 85860, Note_off_c, 0, 87, 60
1, 85875, Note_off_c, 0, 80, 59
1, 85895, Note_on_c, 0, 85, 72
1, 85899, Note_on_c, 0, 77, 66
1, 85922, Note_off_c, 0, 85, 62
1, 85928, Note_off_c, 0, 77, 66
1, 85943, Note_on_c, 0, 87, 79
1, 85951, Note_on_c, 0, 80, 65
1, 85974, Note_off_c, 0, 87, 57
1, 85983, Note_off_c, 0, 80, 64
1, 86009, Note_on_c, 0, 85, 71
1, 86018, Note_on_c, 0, 77, 53
1, 86033, Note_off_c, 0, 85, 69
1, 86039, Note_off_c, 0, 77, 58
1, 86054, Note_on_c, 0, 87, 77
1, 86066, Note_on_c, 0, 80, 59
1, 86090, Note_off_c, 0, 87, 60
1, 86095, Note_off_c, 0, 80, 61
1, 86106, Note_on_c, 0, 77, 69
1, 86109, Note_on_c, 0, 85, 74
1, 86131, Note_off_c, 0, 77, 67
1, 86135, Note_off_c, 0, 85, 64
1, 86171, Note_on_c, 0, 87, 70
1, 86179, Note_on_c, 0, 80, 58
1, 86198, Note_off_c, 0, 87, 60
1, 86206, Note_off_c, 0, 80, 54
1, 86219, Note_on_c, 0, 85, 73
1, 86224, Note_on_c, 0, 77, 60
1, 86241, Note_off_c, 0, 77, 64
1, 86241, Note_off_c, 0, 85, 69
1, 86275, Note_on_c, 0, 87, 76
1, 86286, Note_on_c, 0, 80, 63
1, 86306, Note_off_c, 0, 80, 62
1, 86310, Note_off_c, 0, 87, 61
1, 86315, Note_on_c, 0, 77, 68
1, 86320, Note_on_c, 0, 85, 74
1, 86347, Note_off_c, 0, 77, 68
1, 86352, Note_off_c, 0, 85, 67
1, 86389, Note_on_c, 0, 87, 79
1, 86395, Note_on_c, 0, 80, 60
1, 86425, Note_off_c, 0, 80, 59
1, 86426, Note_off_c, 0, 87, 61
1, 86429, Note_on_c, 0, 85, 76
1, 86431, Note_on_c, 0, 77, 69
1, 86451, Note_off_c, 0, 77, 66
1, 86453, Note_off_c, 0, 85, 65
1, 86490, Note_on_c, 0, 87, 81
1, 86506, Note_on_c, 0, 80, 62
1, 86524, Note_on_c, 0, 77, 75
1, 86528, Note_off_c, 0, 80, 60
1, 86528, Note_off_c, 0, 87, 62
1, 86531, Note_on_c, 0, 85, 78
1, 86549, Note_off_c, 0, 77, 65
1, 86554, Note_off_c, 0, 85, 65
1, 86588, Note_on_c, 0, 87, 82
1, 86606, Note_on_c, 0, 80, 62
1, 86625, Note_off_c, 0, 80, 62
1, 86626, Note_off_c, 0, 87, 63
1, 86629, Note_on_c, 0, 77, 73
1, 86629, Note_on_c, 0, 85, 78
1, 86650, Note_off_c, 0, 85, 71
1, 86651, Note_off_c, 0, 77, 68
1, 86682, Note_on_c, 0, 87, 85
1, 86696, Note_on_c, 0, 80, 68
1, 86721, Note_on_c, 0, 85, 79
1, 86722, Note_on_c, 0, 77, 77
1, 86722, Note_off_c, 0, 80, 64
1, 86723, Note_off_c, 0, 87, 64
1, 86739, Note_off_c, 0, 85, 69
1, 86746, Note_off_c, 0, 77, 68
1, 86776, Note_on_c, 0, 87, 82
1, 86789, Note_on_c, 0, 80, 64
1, 86813, Note_off_c, 0, 80, 63
1, 86815, Note_off_c, 0, 87, 65
1, 86817, Note_on_c, 0, 77, 80
1, 86819, Note_on_c, 0, 85, 82
1, 86841, Note_off_c, 0, 85, 64
1, 86844, Note_off_c, 0, 77, 62
1, 86868, Note_on_c, 0, 87, 89
1, 86886, Note_on_c, 0, 80, 66
1, 86903, Note_off_c, 0, 80, 65
1, 86910, Note_off_c, 0, 87, 65
1, 86915, Note_on_c, 0, 77, 79
1, 86917, Note_on_c, 0, 85, 83
1, 86938, Note_off_c, 0, 85, 66
1, 86939, Note_off_c, 0, 77, 65
1, 86960, Note_on_c, 0, 87, 84
1, 86972, Note_on_c, 0, 80, 63
1, 86995, Note_off_c, 0, 80, 62
1, 87002, Note_off_c, 0, 87, 64
1, 87013, Note_on_c, 0, 85, 84
1, 87014, Note_on_c, 0, 77, 79
1, 87035, Note_off_c, 0, 77, 67
1, 87035, Note_off_c, 0, 85, 62
1, 87051, Note_on_c, 0, 87, 78
1, 87087, Note_on_c, 0, 80, 48
1, 87105, Note_off_c, 0, 87, 63
1, 87107, Note_off_c, 0, 80, 60
1, 87119, Note_on_c, 0, 85, 80
1, 87120, Note_on_c, 0, 77, 80
1, 87139, Note_off_c, 0, 85, 70
1, 87142, Note_off_c, 0, 77, 68
1, 87160, Note_on_c, 0, 87, 79
1, 87177, Note_on_c, 0, 80, 62
1, 87210, Note_off_c, 0, 80, 51
1, 87217, Note_off_c, 0, 87, 59
1, 87220, Note_on_c, 0, 85, 79
1, 87226, Note_on_c, 0, 77, 79
1, 87247, Note_off_c, 0, 77, 69
1, 87247, Note_off_c, 0, 85, 61
1, 87274, Note_on_c, 0, 87, 78
1, 87291, Note_on_c, 0, 80, 62
1, 87313, Note_off_c, 0, 80, 57
1, 87324, Note_off_c, 0, 87, 62
1, 87341, Note_on_c, 0, 85, 75
1, 87345, Note_on_c, 0, 77, 68
1, 87363, Note_off_c, 0, 85, 68
1, 87364, Note_off_c, 0, 77, 66
1, 87405, Note_on_c, 0, 87, 77
1, 87417, Note_on_c, 0, 80, 53
1, 87449, Note_off_c, 0, 80, 49
1, 87450, Note_off_c, 0, 87, 60
1, 87465, Note_on_c, 0, 77, 60
1, 87469, Note_on_c, 0, 85, 67
1, 87497, Note_off_c, 0, 77, 65
1, 87497, Note_off_c, 0, 85, 63
1, 87549, Note_on_c, 0, 87, 69
1, 87550, Note_on_c, 0, 80, 48
1, 87597, Note_off_c, 0, 80, 52
1, 87597, Note_off_c, 0, 87, 59
1, 87631, Note_on_c, 0, 77, 51
1, 87632, Note_on_c, 0, 85, 50
1, 87655, Note_off_c, 0, 77, 59
1, 87661, Note_off_c, 0, 85, 61
1, 87723, Note_on_c, 0, 80, 44
1, 87723, Note_on_c, 0, 87, 55
1, 87769, Note_off_c, 0, 87, 55
1, 87774, Note_off_c, 0, 80, 48
1, 87782, Note_on_c, 0, 85, 50
1, 87811, Note_on_c, 0, 77, 8
1, 87832, Note_off_c, 0, 85, 61
1, 87875, Note_off_c, 0, 77, 33
1, 87901, Note_on_c, 0, 87, 62
1, 87910, Note_on_c, 0, 80, 49
1, 87929, Note_off_c, 0, 87, 67
1, 87954, Note_off_c, 0, 80, 64
1, 88099, Note_on_c, 0, 85, 55
1, 88104, Note_on_c, 0, 80, 58
1, 88115, Note_on_c, 0, 77, 40
1, 88126, Note_on_c, 0, 73, 44
1, 88129, Control_c, 0, 64, 109
1, 88144, Control_c, 0, 64, 89
1, 88159, Control_c, 0, 64, 70
1, 88173, Control_c, 0, 64, 0
1, 88183, Note_off_c, 0, 85, 59
1, 88206, Note_on_c, 0, 84, 55
1, 88218, Control_c, 0, 64, 66
1, 88233, Control_c, 0, 64, 76
1, 88248, Control_c, 0, 64, 87
1, 88263, Control_c, 0, 64, 97
1, 88278, Note_off_c, 0, 84, 64
1, 88278, Control_c, 0, 64, 108
1, 88287, Note_off_c, 0, 77, 28
1, 88293, Control_c, 0, 64, 121
1, 88296, Note_on_c, 0, 87, 55
1, 88308, Control_c, 0, 64, 127
1, 88316, Note_off_c, 0, 80, 62
1, 88338, Note_off_c, 0, 73, 63
1, 88344, Note_on_c, 0, 85, 56
1, 88387, Note_off_c, 0, 87, 59
1, 88389, Note_off_c, 0, 85, 63
1, 88409, Note_on_c, 0, 89, 60
1, 88467, Note_on_c, 0, 87, 62
1, 88471, Note_off_c, 0, 89, 60
1, 88500, Note_on_c, 0, 85, 65
1, 88550, Note_off_c, 0, 87, 60
1, 88551, Note_on_c, 0, 80, 71
1, 88591, Note_off_c, 0, 85, 64
1, 88621, Note_off_c, 0, 80, 63
1, 88630, Note_on_c, 0, 77, 66
1, 88660, Note_off_c, 0, 77, 64
1, 88708, Note_on_c, 0, 75, 69
1, 88752, Note_on_c, 0, 73, 64
1, 88798, Note_off_c, 0, 75, 59
1, 88809, Note_on_c, 0, 68, 70
1, 88827, Note_off_c, 0, 73, 61
1, 88865, Note_off_c, 0, 68, 63
1, 88873, Note_on_c, 0, 65, 58
1, 88911, Note_off_c, 0, 65, 51
1, 88922, Note_on_c, 0, 68, 61
1, 88964, Note_on_c, 0, 73, 55
1, 88977, Note_off_c, 0, 68, 64
1, 88994, Note_on_c, 0, 75, 65
1, 89017, Note_off_c, 0, 73, 63
1, 89023, Note_off_c, 0, 75, 65
1, 89066, Note_on_c, 0, 77, 80
1, 89110, Note_off_c, 0, 77, 45
1, 89120, Note_on_c, 0, 80, 76
1, 89163, Note_on_c, 0, 85, 66
1, 89178, Note_off_c, 0, 80, 62
1, 89196, Note_on_c, 0, 87, 75
1, 89216, Note_off_c, 0, 85, 66
1, 89220, Note_off_c, 0, 87, 68
1, 89270, Note_on_c, 0, 89, 76
1, 89312, Note_off_c, 0, 89, 57
1, 89326, Note_on_c, 0, 92, 82
1, 89360, Note_on_c, 0, 97, 79
1, 89371, Note_off_c, 0, 92, 64
1, 89419, Note_on_c, 0, 92, 75
1, 89419, Note_off_c, 0, 97, 65
1, 89465, Note_on_c, 0, 99, 78
1, 89472, Note_off_c, 0, 92, 64
1, 89520, Note_on_c, 0, 97, 82
1, 89542, Note_off_c, 0, 99, 67
1, 89545, Note_off_c, 0, 97, 62
1, 89598, Control_c, 0, 64, 101
1, 89604, Note_on_c, 0, 101, 93
1, 89613, Control_c, 0, 64, 79
1, 89627, Control_c, 0, 64, 29
1, 89642, Control_c, 0, 64, 0
1, 89657, Control_c, 0, 64, 65
1, 89664, Note_on_c, 0, 99, 85
1, 89672, Control_c, 0, 64, 83
1, 89687, Control_c, 0, 64, 102
1, 89694, Note_off_c, 0, 101, 53
1, 89701, Control_c, 0, 64, 125
1, 89708, Note_on_c, 0, 97, 75
1, 89716, Control_c, 0, 64, 127
1, 89746, Note_on_c, 0, 92, 73
1, 89754, Note_off_c, 0, 99, 68
1, 89770, Note_on_c, 0, 89, 57
1, 89774, Note_off_c, 0, 97, 63
1, 89797, Note_off_c, 0, 92, 60
1, 89826, Note_on_c, 0, 97, 69
1, 89831, Note_off_c, 0, 89, 59
1, 89876, Note_on_c, 0, 92, 64
1, 89908, Note_off_c, 0, 97, 60
1, 89931, Note_off_c, 0, 92, 65
1, 89938, Note_on_c, 0, 89, 76
1, 89975, Note_off_c, 0, 89, 63
1, 90012, Note_on_c, 0, 87, 77
1, 90049, Note_on_c, 0, 85, 64
1, 90099, Note_off_c, 0, 87, 59
1, 90113, Note_off_c, 0, 85, 63
1, 90120, Note_on_c, 0, 89, 81
1, 90201, Note_off_c, 0, 89, 56
1, 90202, Note_on_c, 0, 86, 71
1, 90207, Note_on_c, 0, 85, 72
1, 90251, Note_on_c, 0, 80, 70
1, 90255, Note_off_c, 0, 86, 62
1, 90273, Note_off_c, 0, 85, 65
1, 90288, Note_on_c, 0, 77, 76
1, 90308, Note_off_c, 0, 80, 64
1, 90350, Note_on_c, 0, 85, 72
1, 90373, Note_off_c, 0, 77, 56
1, 90391, Note_on_c, 0, 80, 74
1, 90425, Note_off_c, 0, 85, 63
1, 90455, Note_off_c, 0, 80, 65
1, 90456, Note_on_c, 0, 77, 81
1, 90502, Note_off_c, 0, 77, 63
1, 90531, Note_on_c, 0, 75, 83
1, 90570, Note_on_c, 0, 73, 72
1, 90609, Note_off_c, 0, 75, 60
1, 90642, Note_off_c, 0, 73, 62
1, 90651, Note_on_c, 0, 77, 83
1, 90716, Note_on_c, 0, 75, 85
1, 90745, Note_off_c, 0, 77, 60
1, 90753, Note_on_c, 0, 73, 77
1, 90809, Note_on_c, 0, 68, 77
1, 90810, Note_off_c, 0, 75, 62
1, 90843, Note_on_c, 0, 65, 79
1, 90845, Note_off_c, 0, 73, 64
1, 90874, Note_off_c, 0, 68, 63
1, 90919, Note_on_c, 0, 73, 81
1, 90935, Note_off_c, 0, 65, 65
1, 90982, Note_on_c, 0, 68, 81
1, 91017, Note_off_c, 0, 73, 61
1, 91048, Note_off_c, 0, 68, 63
1, 91051, Note_on_c, 0, 65, 79
1, 91110, Note_off_c, 0, 65, 65
1, 91134, Note_on_c, 0, 63, 84
1, 91205, Note_on_c, 0, 61, 86
1, 91246, Note_off_c, 0, 63, 62
1, 91272, Note_off_c, 0, 61, 64
1, 91334, Note_on_c, 0, 65, 94
1, 91445, Note_on_c, 0, 63, 85
1, 91477, Note_off_c, 0, 65, 62
1, 91546, Note_on_c, 0, 61, 91
1, 91577, Note_off_c, 0, 63, 60
1, 91606, Note_off_c, 0, 61, 61
1, 91756, Note_on_c, 0, 61, 97
1, 91771, Control_c, 0, 64, 111
1, 91785, Control_c, 0, 64, 91
1, 91800, Control_c, 0, 64, 71
1, 91815, Control_c, 0, 64, 0
1, 92096, Control_c, 0, 64, 57
1, 92111, Control_c, 0, 64, 75
1, 92126, Control_c, 0, 64, 85
1, 92140, Control_c, 0, 64, 92
1, 92155, Control_c, 0, 64, 95
1, 92170, Control_c, 0, 64, 100
1, 92185, Control_c, 0, 64, 109
1, 92200, Control_c, 0, 64, 127
1, 92510, Note_on_c, 0, 49, 84
1, 92513, Note_on_c, 0, 37, 79
1, 92514, Note_on_c, 0, 44, 78
1, 92514, Note_on_c, 0, 53, 76
1, 92514, Note_on_c, 0, 56, 74
1, 92535, Note_off_c, 0, 49, 67
1, 92536, Note_off_c, 0, 44, 68
1, 92540, Note_off_c, 0, 37, 64
1, 92546, Note_off_c, 0, 53, 67
1, 92567, Note_off_c, 0, 56, 0
1, 92587, Note_on_c, 0, 53, 76
1, 92589, Note_on_c, 0, 49, 90
1, 92590, Note_on_c, 0, 37, 85
1, 92592, Note_on_c, 0, 44, 79
1, 92604, Poly_aftertouch_c, 0, 56, 127
1, 92753, Note_off_c, 0, 49, 53
1, 92824, Note_off_c, 0, 53, 59
1, 92902, Note_off_c, 0, 44, 59
1, 92934, Note_off_c, 0, 37, 63
1, 92976, Poly_aftertouch_c, 0, 56, 0
1, 93077, Note_off_c, 0, 61, 57
1, 93376, Note_on_c, 0, 61, 88
1, 93382, Note_on_c, 0, 49, 93
1, 93432, Note_off_c, 0, 49, 61
1, 93480, Note_off_c, 0, 61, 62
1, 93557, Note_on_c, 0, 59, 86
1, 93572, Note_on_c, 0, 47, 86
1, 93663, Note_on_c, 0, 61, 88
1, 93666, Note_off_c, 0, 47, 57
1, 93672, Note_on_c, 0, 49, 86
1, 93688, Note_off_c, 0, 59, 60
1, 93721, Note_off_c, 0, 49, 59
1, 93723, Note_off_c, 0, 61, 66
1, 93786, Note_on_c, 0, 59, 96
1, 93788, Note_on_c, 0, 47, 98
1, 93801, Control_c, 0, 64, 123
1, 93823, Control_c, 0, 64, 101
1, 93838, Control_c, 0, 64, 81
1, 93853, Control_c, 0, 64, 62
1, 93867, Control_c, 0, 64, 0
1, 94135, Control_c, 0, 64, 59
1, 94150, Control_c, 0, 64, 67
1, 94165, Control_c, 0, 64, 75
1, 94180, Control_c, 0, 64, 85
1, 94195, Control_c, 0, 64, 95
1, 94210, Control_c, 0, 64, 103
1, 94224, Control_c, 0, 64, 109
1, 94239, Control_c, 0, 64, 118
1, 94254, Control_c, 0, 64, 127
1, 94279, Note_off_c, 0, 47, 63
1, 94604, Note_on_c, 0, 44, 84
1, 94605, Note_on_c, 0, 50, 78
1, 94610, Note_on_c, 0, 54, 74
1, 94612, Note_on_c, 0, 38, 72
1, 94616, Note_on_c, 0, 32, 63
1, 94626, Note_off_c, 0, 44, 68
1, 94637, Note_off_c, 0, 50, 64
1, 94641, Note_off_c, 0, 38, 63
1, 94648, Note_off_c, 0, 54, 61
1, 94684, Note_on_c, 0, 44, 85
1, 94693, Note_on_c, 0, 50, 76
1, 94695, Note_on_c, 0, 54, 72
1, 94702, Note_on_c, 0, 38, 78
1, 94746, Note_off_c, 0, 50, 59
1, 94755, Note_off_c, 0, 54, 61
1, 94869, Note_off_c, 0, 32, 58
1, 94884, Note_off_c, 0, 38, 50
1, 94907, Note_off_c, 0, 44, 62
1, 95059, Note_on_c, 0, 61, 100
1, 95066, Note_on_c, 0, 49, 86
1, 95086, Note_off_c, 0, 59, 58
1, 95126, Note_off_c, 0, 61, 61
1, 95152, Note_off_c, 0, 49, 58
1, 95355, Note_on_c, 0, 64, 95
1, 95357, Note_on_c, 0, 52, 96
1, 95380, Control_c, 0, 64, 108
1, 95395, Control_c, 0, 64, 88
1, 95410, Control_c, 0, 64, 67
1, 95425, Control_c, 0, 64, 0
1, 95528, Control_c, 0, 64, 65
1, 95534, Note_on_c, 0, 50, 87
1, 95539, Note_on_c, 0, 62, 88
1, 95543, Control_c, 0, 64, 75
1, 95551, Note_off_c, 0, 52, 63
1, 95558, Control_c, 0, 64, 86
1, 95570, Note_off_c, 0, 64, 61
1, 95572, Control_c, 0, 64, 93
1, 95588, Control_c, 0, 64, 99
1, 95603, Control_c, 0, 64, 106
1, 95618, Control_c, 0, 64, 112
1, 95633, Control_c, 0, 64, 119
1, 95648, Control_c, 0, 64, 127
1, 95661, Note_on_c, 0, 61, 95
1, 95663, Note_on_c, 0, 49, 94
1, 95673, Note_off_c, 0, 50, 61
1, 95682, Note_off_c, 0, 62, 34
1, 95709, Note_off_c, 0, 49, 65
1, 95724, Note_off_c, 0, 61, 57
1, 95890, Note_on_c, 0, 61, 92
1, 95900, Note_on_c, 0, 49, 98
1, 95915, Control_c, 0, 64, 127
1, 95930, Control_c, 0, 64, 105
1, 95944, Control_c, 0, 64, 85
1, 95959, Control_c, 0, 64, 68
1, 95974, Control_c, 0, 64, 0
1, 96336, Control_c, 0, 64, 57
1, 96351, Control_c, 0, 64, 69
1, 96366, Control_c, 0, 64, 76
1, 96381, Control_c, 0, 64, 85
1, 96397, Control_c, 0, 64, 91
1, 96411, Control_c, 0, 64, 97
1, 96422, Note_off_c, 0, 49, 61
1, 96426, Control_c, 0, 64, 103
1, 96441, Control_c, 0, 64, 110
1, 96456, Control_c, 0, 64, 118
1, 96471, Control_c, 0, 64, 127
1, 96768, Note_on_c, 0, 49, 81
1, 96771, Note_on_c, 0, 53, 76
1, 96771, Note_on_c, 0, 56, 74
1, 96776, Note_on_c, 0, 44, 88
1, 96778, Note_on_c, 0, 37, 84
1, 96794, Note_off_c, 0, 49, 66
1, 96803, Note_off_c, 0, 37, 63
1, 96803, Note_off_c, 0, 44, 67
1, 96812, Note_off_c, 0, 53, 65
1, 96825, Note_off_c, 0, 56, 60
1, 96854, Note_on_c, 0, 49, 88
1, 96854, Note_on_c, 0, 53, 76
1, 96857, Note_on_c, 0, 56, 53
1, 96863, Note_on_c, 0, 37, 80
1, 96863, Note_on_c, 0, 44, 88
1, 97030, Note_off_c, 0, 49, 42
1, 97045, Note_off_c, 0, 53, 56
1, 97164, Note_off_c, 0, 44, 60
1, 97189, Note_off_c, 0, 37, 64
1, 97255, Note_off_c, 0, 56, 35
1, 97343, Note_off_c, 0, 61, 55
1, 97646, Note_on_c, 0, 61, 87
1, 97655, Note_on_c, 0, 49, 93
1, 97712, Note_off_c, 0, 49, 59
1, 97751, Note_off_c, 0, 61, 61
1, 97841, Note_on_c, 0, 59, 88
1, 97844, Note_on_c, 0, 47, 86
1, 97910, Note_off_c, 0, 59, 57
1, 97947, Note_off_c, 0, 47, 60
1, 97949, Note_on_c, 0, 61, 87
1, 97950, Note_on_c, 0, 49, 87
1, 97996, Note_off_c, 0, 49, 61
1, 98014, Note_off_c, 0, 61, 65
1, 98074, Note_on_c, 0, 59, 95
1, 98077, Note_on_c, 0, 47, 95
1, 98103, Control_c, 0, 64, 115
1, 98118, Control_c, 0, 64, 98
1, 98132, Control_c, 0, 64, 82
1, 98147, Control_c, 0, 64, 63
1, 98162, Control_c, 0, 64, 0
1, 98554, Control_c, 0, 64, 52
1, 98569, Control_c, 0, 64, 67
1, 98583, Control_c, 0, 64, 75
1, 98598, Control_c, 0, 64, 84
1, 98613, Control_c, 0, 64, 94
1, 98628, Control_c, 0, 64, 100
1, 98643, Control_c, 0, 64, 107
1, 98657, Control_c, 0, 64, 115
1, 98669, Note_off_c, 0, 47, 59
1, 98672, Control_c, 0, 64, 127
1, 99002, Note_on_c, 0, 44, 74
1, 99004, Note_on_c, 0, 32, 69
1, 99004, Note_on_c, 0, 50, 82
1, 99006, Note_on_c, 0, 38, 72
1, 99006, Note_on_c, 0, 54, 78
1, 99025, Note_off_c, 0, 44, 66
1, 99030, Note_off_c, 0, 50, 68
1, 99037, Note_off_c, 0, 38, 62
1, 99037, Note_off_c, 0, 54, 63
1, 99086, Note_on_c, 0, 44, 86
1, 99096, Note_on_c, 0, 54, 75
1, 99097, Note_on_c, 0, 50, 77
1, 99111, Note_on_c, 0, 38, 72
1, 99151, Note_off_c, 0, 50, 52
1, 99176, Note_off_c, 0, 54, 58
1, 99277, Note_off_c, 0, 44, 60
1, 99280, Note_off_c, 0, 38, 59
1, 99292, Note_off_c, 0, 32, 57
1, 99358, Note_on_c, 0, 57, 86
1, 99370, Note_on_c, 0, 45, 82
1, 99388, Note_off_c, 0, 59, 59
1, 99547, Note_on_c, 0, 56, 91
1, 99555, Note_on_c, 0, 44, 83
1, 99563, Note_off_c, 0, 57, 59
1, 99584, Note_off_c, 0, 45, 64
1, 99595, Note_off_c, 0, 56, 66
1, 99619, Note_off_c, 0, 44, 64
1, 99829, Control_c, 0, 64, 125
1, 99841, Note_on_c, 0, 47, 92
1, 99844, Control_c, 0, 64, 113
1, 99847, Note_on_c, 0, 59, 95
1, 99859, Control_c, 0, 64, 101
1, 99874, Control_c, 0, 64, 89
1, 99889, Control_c, 0, 64, 76
1, 99903, Control_c, 0, 64, 61
1, 99918, Control_c, 0, 64, 0
1, 100036, Note_on_c, 0, 57, 88
1, 100038, Note_on_c, 0, 45, 87
1, 100063, Note_off_c, 0, 47, 64
1, 100067, Note_off_c, 0, 59, 63
1, 100333, Control_c, 0, 64, 64
1, 100348, Control_c, 0, 64, 70
1, 100362, Control_c, 0, 64, 76
1, 100377, Control_c, 0, 64, 82
1, 100392, Control_c, 0, 64, 86
1, 100407, Control_c, 0, 64, 89
1, 100422, Control_c, 0, 64, 92
1, 100437, Control_c, 0, 64, 96
1, 100440, Note_on_c, 0, 56, 87
1, 100445, Note_on_c, 0, 44, 82
1, 100452, Control_c, 0, 64, 100
1, 100455, Note_off_c, 0, 45, 63
1, 100463, Note_off_c, 0, 57, 59
1, 100467, Control_c, 0, 64, 104
1, 100482, Control_c, 0, 64, 108
1, 100497, Control_c, 0, 64, 110
1, 100506, Note_off_c, 0, 56, 63
1, 100512, Control_c, 0, 64, 112
1, 100515, Note_off_c, 0, 44, 63
1, 100526, Control_c, 0, 64, 113
1, 100541, Control_c, 0, 64, 114
1, 100563, Control_c, 0, 64, 115
1, 100578, Control_c, 0, 64, 115
1, 100634, Note_on_c, 0, 56, 86
1, 100637, Control_c, 0, 64, 115
1, 100641, Note_on_c, 0, 44, 86
1, 100652, Control_c, 0, 64, 109
1, 100667, Control_c, 0, 64, 99
1, 100681, Control_c, 0, 64, 86
1, 100696, Control_c, 0, 64, 72
1, 100711, Control_c, 0, 64, 0
1, 101037, Control_c, 0, 64, 65
1, 101051, Control_c, 0, 64, 72
1, 101066, Control_c, 0, 64, 78
1, 101081, Control_c, 0, 64, 84
1, 101096, Control_c, 0, 64, 88
1, 101111, Control_c, 0, 64, 91
1, 101126, Control_c, 0, 64, 95
1, 101141, Control_c, 0, 64, 100
1, 101155, Control_c, 0, 64, 106
1, 101167, Note_off_c, 0, 44, 62
1, 101170, Control_c, 0, 64, 112
1, 101186, Control_c, 0, 64, 118
1, 101200, Control_c, 0, 64, 124
1, 101215, Control_c, 0, 64, 127
1, 101550, Note_on_c, 0, 53, 78
1, 101551, Note_on_c, 0, 37, 78
1, 101552, Note_on_c, 0, 44, 75
1, 101553, Note_on_c, 0, 49, 75
1, 101577, Note_off_c, 0, 37, 65
1, 101578, Note_off_c, 0, 44, 66
1, 101579, Note_off_c, 0, 49, 65
1, 101589, Note_off_c, 0, 53, 64
1, 101632, Note_on_c, 0, 53, 67
1, 101635, Note_on_c, 0, 49, 76
1, 101639, Note_on_c, 0, 44, 76
1, 101640, Note_on_c, 0, 37, 74
1, 101785, Note_off_c, 0, 49, 36
1, 101856, Note_off_c, 0, 53, 37
1, 102116, Note_off_c, 0, 56, 63
1, 102139, Note_off_c, 0, 44, 27
1, 102221, Note_off_c, 0, 37, 35
1, 102968, Note_on_c, 0, 56, 54
1, 102983, Note_on_c, 0, 44, 44
1, 103032, Control_c, 0, 64, 116
1, 103047, Control_c, 0, 64, 105
1, 103061, Control_c, 0, 64, 93
1, 103076, Control_c, 0, 64, 81
1, 103091, Control_c, 0, 64, 69
1, 103105, Control_c, 0, 64, 0
1, 103588, Control_c, 0, 64, 62
1, 103603, Control_c, 0, 64, 71
1, 103618, Control_c, 0, 64, 79
1, 103633, Control_c, 0, 64, 85
1, 103647, Control_c, 0, 64, 89
1, 103662, Control_c, 0, 64, 93
1, 103677, Control_c, 0, 64, 97
1, 103692, Control_c, 0, 64, 103
1, 103707, Control_c, 0, 64, 107
1, 103710, Note_off_c, 0, 44, 39
1, 103722, Control_c, 0, 64, 111
1, 103736, Control_c, 0, 64, 115
1, 103751, Control_c, 0, 64, 119
1, 103766, Control_c, 0, 64, 123
1, 103781, Control_c, 0, 64, 127
1, 104145, Note_on_c, 0, 44, 25
1, 104147, Note_on_c, 0, 40, 36
1, 104152, Note_on_c, 0, 52, 39
1, 104168, Note_on_c, 0, 49, 15
1, 104190, Note_off_c, 0, 52, 56
1, 104191, Poly_aftertouch_c, 0, 32, 127
1, 104196, Note_off_c, 0, 40, 58
1, 104197, Note_off_c, 0, 44, 45
1, 104218, Note_off_c, 0, 49, 45
1, 104245, Poly_aftertouch_c, 0, 32, 0
1, 104320, Note_on_c, 0, 49, 28
1, 104320, Note_on_c, 0, 52, 43
1, 104327, Note_on_c, 0, 32, 22
1, 104336, Note_on_c, 0, 44, 33
1, 104374, Note_on_c, 0, 40, 22
1, 104385, Note_off_c, 0, 52, 49
1, 104456, Note_off_c, 0, 49, 35
1, 104492, Note_off_c, 0, 40, 30
1, 104524, Note_off_c, 0, 44, 40
1, 104529, Note_off_c, 0, 32, 41
1, 104634, Note_off_c, 0, 56, 35
1, 104818, Note_on_c, 0, 57, 51
1, 104832, Note_on_c, 0, 45, 42
1, 105016, Note_off_c, 0, 57, 35
1, 105077, Note_on_c, 0, 56, 66
1, 105080, Note_on_c, 0, 44, 51
1, 105153, Note_off_c, 0, 45, 37
1, 105203, Note_off_c, 0, 56, 54
1, 105269, Note_off_c, 0, 44, 36
1, 105427, Control_c, 0, 64, 126
1, 105442, Control_c, 0, 64, 118
1, 105449, Note_on_c, 0, 59, 65
1, 105456, Control_c, 0, 64, 112
1, 105457, Note_on_c, 0, 47, 58
1, 105471, Control_c, 0, 64, 106
1, 105486, Control_c, 0, 64, 99
1, 105500, Control_c, 0, 64, 89
1, 105515, Control_c, 0, 64, 80
1, 105530, Control_c, 0, 64, 70
1, 105545, Control_c, 0, 64, 44
1, 105560, Control_c, 0, 64, 0
1, 105669, Note_on_c, 0, 57, 55
1, 105682, Note_on_c, 0, 45, 48
1, 105700, Note_off_c, 0, 59, 54
1, 105731, Note_off_c, 0, 47, 52
1, 106160, Control_c, 0, 64, 62
1, 106175, Control_c, 0, 64, 68
1, 106190, Control_c, 0, 64, 70
1, 106205, Control_c, 0, 64, 72
1, 106220, Control_c, 0, 64, 75
1, 106235, Control_c, 0, 64, 78
1, 106250, Control_c, 0, 64, 80
1, 106265, Control_c, 0, 64, 81
1, 106294, Control_c, 0, 64, 82
1, 106304, Note_off_c, 0, 45, 0
1, 106309, Control_c, 0, 64, 82
1, 106310, Note_on_c, 0, 56, 50
1, 106314, Note_on_c, 0, 44, 45
1, 106323, Control_c, 0, 64, 84
1, 106334, Note_off_c, 0, 57, 29
1, 106338, Control_c, 0, 64, 85
1, 106353, Control_c, 0, 64, 86
1, 106359, Poly_aftertouch_c, 0, 45, 0
1, 106368, Control_c, 0, 64, 87
1, 106383, Control_c, 0, 64, 87
1, 106393, Note_off_c, 0, 56, 48
1, 106395, Note_off_c, 0, 44, 57
1, 106397, Control_c, 0, 64, 88
1, 106427, Control_c, 0, 64, 88
1, 106442, Control_c, 0, 64, 89
1, 106642, Control_c, 0, 64, 88
1, 106648, Note_on_c, 0, 56, 54
1, 106655, Note_on_c, 0, 44, 45
1, 106657, Control_c, 0, 64, 86
1, 106669, Note_on_c, 0, 32, 46
1, 106671, Control_c, 0, 64, 81
1, 106686, Control_c, 0, 64, 71
1, 106701, Control_c, 0, 64, 31
1, 106716, Control_c, 0, 64, 0
1, 106806, Control_c, 0, 64, 52
1, 106820, Control_c, 0, 64, 66
1, 106835, Control_c, 0, 64, 70
1, 106850, Control_c, 0, 64, 74
1, 106865, Control_c, 0, 64, 78
1, 106880, Control_c, 0, 64, 81
1, 106894, Control_c, 0, 64, 83
1, 106909, Control_c, 0, 64, 85
1, 106924, Control_c, 0, 64, 86
1, 106939, Control_c, 0, 64, 88
1, 106953, Control_c, 0, 64, 90
1, 106968, Control_c, 0, 64, 92
1, 106983, Control_c, 0, 64, 93
1, 106998, Control_c, 0, 64, 94
1, 107013, Control_c, 0, 64, 95
1, 107028, Control_c, 0, 64, 95
1, 107043, Control_c, 0, 64, 96
1, 107058, Control_c, 0, 64, 96
1, 107073, Control_c, 0, 64, 97
1, 107087, Control_c, 0, 64, 97
1, 107099, Note_off_c, 0, 32, 38
1, 107101, Note_off_c, 0, 44, 34
1, 107117, Control_c, 0, 64, 98
1, 107146, Control_c, 0, 64, 98
1, 107161, Control_c, 0, 64, 99
1, 107176, Control_c, 0, 64, 99
1, 107206, Control_c, 0, 64, 100
1, 107220, Control_c, 0, 64, 100
1, 107235, Control_c, 0, 64, 101
1, 107376, Control_c, 0, 64, 101
1, 107627, Note_on_c, 0, 51, 57
1, 107629, Control_c, 0, 64, 101
1, 107630, Note_on_c, 0, 32, 58
1, 107637, Note_on_c, 0, 44, 48
1, 107637, Note_on_c, 0, 49, 50
1, 107669, Note_off_c, 0, 51, 59
1, 107673, Note_off_c, 0, 32, 58
1, 107678, Note_off_c, 0, 44, 49
1, 107681, Note_off_c, 0, 49, 54
1, 107689, Control_c, 0, 64, 99
1, 107703, Control_c, 0, 64, 93
1, 107718, Control_c, 0, 64, 87
1, 107726, Note_on_c, 0, 49, 54
1, 107732, Note_on_c, 0, 51, 61
1, 107733, Note_on_c, 0, 44, 52
1, 107733, Control_c, 0, 64, 79
1, 107735, Note_on_c, 0, 32, 58
1, 107748, Control_c, 0, 64, 70
1, 107763, Control_c, 0, 64, 45
1, 107777, Control_c, 0, 64, 0
1, 107915, Note_off_c, 0, 51, 40
1, 107924, Note_off_c, 0, 44, 60
1, 107943, Note_off_c, 0, 32, 54
1, 107961, Note_off_c, 0, 49, 36
1, 109469, Note_on_c, 0, 51, 25
1, 109474, Note_on_c, 0, 54, 40
1, 109481, Note_on_c, 0, 48, 31
1, 109484, Note_on_c, 0, 32, 36
1, 109487, Note_on_c, 0, 44, 35
1, 109573, Note_off_c, 0, 56, 36
1, 109627, Note_off_c, 0, 48, 54
1, 109627, Note_off_c, 0, 51, 54
1, 109638, Note_off_c, 0, 54, 52
1, 109654, Note_off_c, 0, 44, 47
1, 109657, Note_off_c, 0, 32, 49
1, 111022, Note_on_c, 0, 32, 46
1, 111097, Note_off_c, 0, 32, 60
1, 111425, Note_on_c, 0, 33, 52
1, 111535, Control_c, 0, 64, 36
1, 111550, Control_c, 0, 64, 64
1, 111566, Control_c, 0, 64, 69
1, 111581, Control_c, 0, 64, 72
1, 111596, Control_c, 0, 64, 77
1, 111610, Control_c, 0, 64, 81
1, 111625, Control_c, 0, 64, 84
1, 111640, Control_c, 0, 64, 85
1, 111655, Control_c, 0, 64, 86
1, 111670, Control_c, 0, 64, 87
1, 111684, Control_c, 0, 64, 88
1, 111699, Control_c, 0, 64, 90
1, 111714, Control_c, 0, 64, 91
1, 111729, Control_c, 0, 64, 91
1, 111744, Control_c, 0, 64, 92
1, 111747, Note_off_c, 0, 33, 36
1, 111773, Control_c, 0, 64, 92
1, 111796, Control_c, 0, 64, 93
1, 111855, Control_c, 0, 64, 93
1, 111973, Control_c, 0, 64, 93
1, 112018, Control_c, 0, 64, 92
1, 112027, Note_on_c, 0, 35, 51
1, 112033, Control_c, 0, 64, 90
1, 112048, Control_c, 0, 64, 86
1, 112062, Control_c, 0, 64, 79
1, 112077, Control_c, 0, 64, 70
1, 112092, Control_c, 0, 64, 38
1, 112102, Note_off_c, 0, 35, 63
1, 112107, Control_c, 0, 64, 0
1, 112131, Note_on_c, 0, 37, 53
1, 112306, Note_off_c, 0, 37, 64
1, 112659, Note_on_c, 0, 37, 42
1, 112727, Note_on_c, 0, 52, 42
1, 112736, Control_c, 0, 64, 20
1, 112751, Control_c, 0, 64, 53
1, 112765, Control_c, 0, 64, 62
1, 112769, Note_on_c, 0, 56, 43
1, 112780, Control_c, 0, 64, 66
1, 112795, Control_c, 0, 64, 69
1, 112810, Control_c, 0, 64, 73
1, 112825, Control_c, 0, 64, 78
1, 112831, Note_on_c, 0, 61, 53
1, 112839, Control_c, 0, 64, 82
1, 112854, Control_c, 0, 64, 84
1, 112869, Control_c, 0, 64, 85
1, 112884, Control_c, 0, 64, 87
1, 112893, Note_on_c, 0, 64, 52
1, 112898, Control_c, 0, 64, 90
1, 112913, Control_c, 0, 64, 93
1, 112928, Control_c, 0, 64, 95
1, 112943, Control_c, 0, 64, 97
1, 112958, Control_c, 0, 64, 99
1, 112972, Control_c, 0, 64, 102
1, 112987, Control_c, 0, 64, 104
1, 113002, Note_on_c, 0, 49, 65
1, 113002, Control_c, 0, 64, 106
1, 113016, Control_c, 0, 64, 107
1, 113031, Control_c, 0, 64, 109
1, 113046, Control_c, 0, 64, 110
1, 113061, Control_c, 0, 64, 111
1, 113076, Control_c, 0, 64, 111
1, 113083, Note_off_c, 0, 61, 56
1, 113088, Note_off_c, 0, 52, 42
1, 113088, Note_off_c, 0, 64, 60
1, 113091, Control_c, 0, 64, 112
1, 113106, Control_c, 0, 64, 113
1, 113109, Note_off_c, 0, 56, 41
1, 113111, Note_off_c, 0, 37, 41
1, 113121, Control_c, 0, 64, 114
1, 113136, Control_c, 0, 64, 114
1, 113151, Control_c, 0, 64, 115
1, 113166, Control_c, 0, 64, 115
1, 113180, Control_c, 0, 64, 116
1, 113195, Control_c, 0, 64, 117
1, 113210, Control_c, 0, 64, 117
1, 113225, Control_c, 0, 64, 118
1, 113255, Control_c, 0, 64, 118
1, 113270, Control_c, 0, 64, 119
1, 113292, Control_c, 0, 64, 119
1, 113307, Control_c, 0, 64, 120
1, 113336, Control_c, 0, 64, 120
1, 113351, Control_c, 0, 64, 121
1, 113366, Control_c, 0, 64, 121
1, 113410, Control_c, 0, 64, 122
1, 113455, Control_c, 0, 64, 122
1, 113795, Control_c, 0, 64, 122
1, 113827, Note_on_c, 0, 30, 66
1, 113854, Control_c, 0, 64, 121
1, 113869, Control_c, 0, 64, 116
1, 113884, Control_c, 0, 64, 108
1, 113899, Control_c, 0, 64, 99
1, 113914, Control_c, 0, 64, 87
1, 113929, Control_c, 0, 64, 71
1, 113943, Control_c, 0, 64, 0
1, 114018, Control_c, 0, 64, 66
1, 114041, Control_c, 0, 64, 73
1, 114056, Control_c, 0, 64, 80
1, 114071, Control_c, 0, 64, 85
1, 114081, Note_on_c, 0, 48, 53
1, 114085, Control_c, 0, 64, 88
1, 114100, Control_c, 0, 64, 91
1, 114115, Control_c, 0, 64, 96
1, 114130, Control_c, 0, 64, 100
1, 114134, Note_off_c, 0, 30, 62
1, 114144, Control_c, 0, 64, 103
1, 114158, Note_off_c, 0, 49, 28
1, 114159, Control_c, 0, 64, 106
1, 114174, Control_c, 0, 64, 108
1, 114189, Control_c, 0, 64, 109
1, 114204, Control_c, 0, 64, 110
1, 114218, Control_c, 0, 64, 111
1, 114233, Control_c, 0, 64, 112
1, 114248, Control_c, 0, 64, 112
1, 114298, Note_on_c, 0, 49, 64
1, 114307, Control_c, 0, 64, 113
1, 114319, Note_off_c, 0, 48, 62
1, 114444, Note_on_c, 0, 51, 72
1, 114462, Note_off_c, 0, 49, 53
1, 114638, Note_on_c, 0, 69, 66
1, 114644, Note_off_c, 0, 51, 59
1, 114645, Note_on_c, 0, 52, 68
1, 114648, Note_on_c, 0, 66, 62
1, 114651, Note_on_c, 0, 61, 53
1, 114652, Note_on_c, 0, 57, 47
1, 114663, Control_c, 0, 64, 112
1, 114678, Control_c, 0, 64, 109
1, 114693, Control_c, 0, 64, 99
1, 114708, Control_c, 0, 64, 85
1, 114723, Control_c, 0, 64, 68
1, 114737, Control_c, 0, 64, 0
1, 114799, Note_off_c, 0, 52, 63
1, 114802, Note_on_c, 0, 45, 63
1, 114820, Control_c, 0, 64, 35
1, 114835, Control_c, 0, 64, 65
1, 114850, Control_c, 0, 64, 71
1, 114865, Control_c, 0, 64, 76
1, 114880, Control_c, 0, 64, 81
1, 114894, Control_c, 0, 64, 84
1, 114909, Control_c, 0, 64, 86
1, 114924, Control_c, 0, 64, 88
1, 114938, Note_on_c, 0, 52, 65
1, 114939, Control_c, 0, 64, 90
1, 114944, Note_off_c, 0, 45, 57
1, 114954, Control_c, 0, 64, 92
1, 114968, Control_c, 0, 64, 94
1, 114983, Control_c, 0, 64, 94
1, 114998, Control_c, 0, 64, 95
1, 115013, Control_c, 0, 64, 95
1, 115049, Note_on_c, 0, 51, 71
1, 115078, Note_off_c, 0, 52, 61
1, 115131, Control_c, 0, 64, 95
1, 115146, Control_c, 0, 64, 92
1, 115160, Control_c, 0, 64, 87
1, 115175, Control_c, 0, 64, 75
1, 115179, Note_on_c, 0, 49, 78
1, 115190, Note_off_c, 0, 51, 60
1, 115190, Control_c, 0, 64, 49
1, 115205, Control_c, 0, 64, 0
1, 115275, Note_off_c, 0, 69, 62
1, 115294, Control_c, 0, 64, 20
1, 115303, Note_off_c, 0, 66, 64
1, 115309, Control_c, 0, 64, 65
1, 115312, Note_off_c, 0, 61, 62
1, 115314, Note_off_c, 0, 57, 61
1, 115324, Control_c, 0, 64, 72
1, 115339, Control_c, 0, 64, 77
1, 115353, Control_c, 0, 64, 84
1, 115368, Control_c, 0, 64, 88
1, 115383, Control_c, 0, 64, 91
1, 115398, Control_c, 0, 64, 94
1, 115413, Control_c, 0, 64, 97
1, 115427, Control_c, 0, 64, 100
1, 115442, Control_c, 0, 64, 102
1, 115453, Note_off_c, 0, 49, 59
1, 115457, Control_c, 0, 64, 104
1, 115472, Control_c, 0, 64, 105
1, 115486, Control_c, 0, 64, 106
1, 115501, Control_c, 0, 64, 108
1, 115516, Control_c, 0, 64, 108
1, 115538, Control_c, 0, 64, 109
1, 115553, Control_c, 0, 64, 110
1, 115584, Control_c, 0, 64, 110
1, 115635, Note_on_c, 0, 49, 55
1, 115669, Note_off_c, 0, 49, 60
1, 115679, Note_on_c, 0, 51, 69
1, 115698, Note_on_c, 0, 64, 65
1, 115702, Control_c, 0, 64, 110
1, 115707, Note_on_c, 0, 52, 60
1, 115714, Note_on_c, 0, 56, 58
1, 115715, Note_on_c, 0, 61, 59
1, 115717, Control_c, 0, 64, 109
1, 115731, Note_on_c, 0, 49, 84
1, 115732, Control_c, 0, 64, 106
1, 115747, Control_c, 0, 64, 98
1, 115755, Note_off_c, 0, 51, 62
1, 115762, Control_c, 0, 64, 87
1, 115777, Control_c, 0, 64, 73
1, 115791, Control_c, 0, 64, 0
1, 115908, Control_c, 0, 64, 58
1, 115923, Control_c, 0, 64, 67
1, 115938, Control_c, 0, 64, 73
1, 115953, Control_c, 0, 64, 79
1, 115968, Control_c, 0, 64, 84
1, 115982, Control_c, 0, 64, 88
1, 115997, Control_c, 0, 64, 90
1, 116012, Control_c, 0, 64, 93
1, 116014, Note_off_c, 0, 49, 53
1, 116027, Control_c, 0, 64, 96
1, 116042, Control_c, 0, 64, 100
1, 116057, Control_c, 0, 64, 102
1, 116072, Control_c, 0, 64, 104
1, 116087, Control_c, 0, 64, 106
1, 116101, Control_c, 0, 64, 107
1, 116116, Control_c, 0, 64, 109
1, 116131, Control_c, 0, 64, 111
1, 116146, Control_c, 0, 64, 113
1, 116179, Note_on_c, 0, 48, 85
1, 116249, Control_c, 0, 64, 109
1, 116264, Control_c, 0, 64, 102
1, 116266, Note_off_c, 0, 48, 57
1, 116286, Note_on_c, 0, 49, 85
1, 116286, Control_c, 0, 64, 91
1, 116301, Control_c, 0, 64, 78
1, 116316, Control_c, 0, 64, 52
1, 116331, Control_c, 0, 64, 0
1, 116373, Note_off_c, 0, 61, 38
1, 116378, Note_off_c, 0, 64, 56
1, 116379, Note_off_c, 0, 52, 59
1, 116388, Note_off_c, 0, 56, 56
1, 116862, Note_on_c, 0, 64, 70
1, 116873, Note_on_c, 0, 37, 73
1, 116874, Note_on_c, 0, 61, 65
1, 116877, Note_on_c, 0, 52, 61
1, 116883, Note_on_c, 0, 56, 52
1, 116939, Control_c, 0, 64, 22
1, 116954, Control_c, 0, 64, 64
1, 116969, Control_c, 0, 64, 72
1, 116984, Control_c, 0, 64, 82
1, 116998, Control_c, 0, 64, 90
1, 117013, Control_c, 0, 64, 94
1, 117035, Control_c, 0, 64, 97
1, 117050, Control_c, 0, 64, 102
1, 117056, Note_off_c, 0, 56, 59
1, 117058, Note_off_c, 0, 64, 63
1, 117061, Note_off_c, 0, 61, 62
1, 117065, Control_c, 0, 64, 107
1, 117079, Control_c, 0, 64, 113
1, 117094, Control_c, 0, 64, 121
1, 117109, Control_c, 0, 64, 127
1, 117130, Note_off_c, 0, 52, 63
1, 117210, Note_off_c, 0, 37, 61
1, 117257, Note_off_c, 0, 49, 33
1, 117327, Note_on_c, 0, 51, 80
1, 117375, Note_off_c, 0, 51, 63
1, 117422, Control_c, 0, 64, 121
1, 117424, Note_on_c, 0, 52, 92
1, 117428, Note_on_c, 0, 35, 85
1, 117437, Control_c, 0, 64, 104
1, 117452, Control_c, 0, 64, 88
1, 117467, Control_c, 0, 64, 68
1, 117481, Control_c, 0, 64, 0
1, 117600, Control_c, 0, 64, 29
1, 117615, Control_c, 0, 64, 66
1, 117629, Control_c, 0, 64, 74
1, 117631, Note_off_c, 0, 52, 63
1, 117644, Control_c, 0, 64, 82
1, 117659, Control_c, 0, 64, 91
1, 117674, Control_c, 0, 64, 98
1, 117688, Control_c, 0, 64, 103
1, 117703, Control_c, 0, 64, 108
1, 117718, Control_c, 0, 64, 115
1, 117733, Control_c, 0, 64, 125
1, 117748, Control_c, 0, 64, 127
1, 117749, Note_off_c, 0, 35, 62
1, 118059, Note_on_c, 0, 64, 44
1, 118066, Note_on_c, 0, 52, 95
1, 118066, Note_on_c, 0, 59, 66
1, 118068, Note_on_c, 0, 68, 82
1, 118070, Note_on_c, 0, 56, 79
1, 118111, Control_c, 0, 64, 115
1, 118126, Control_c, 0, 64, 90
1, 118141, Control_c, 0, 64, 57
1, 118156, Control_c, 0, 64, 0
1, 118200, Control_c, 0, 64, 55
1, 118215, Control_c, 0, 64, 73
1, 118230, Control_c, 0, 64, 87
1, 118245, Control_c, 0, 64, 99
1, 118260, Control_c, 0, 64, 106
1, 118275, Control_c, 0, 64, 112
1, 118290, Control_c, 0, 64, 120
1, 118304, Control_c, 0, 64, 127
1, 118350, Note_off_c, 0, 52, 63
1, 118697, Control_c, 0, 64, 119
1, 118711, Control_c, 0, 64, 81
1, 118724, Note_on_c, 0, 23, 81
1, 118724, Note_on_c, 0, 35, 87
1, 118726, Control_c, 0, 64, 0
1, 118772, Note_off_c, 0, 23, 64
1, 118772, Control_c, 0, 64, 65
1, 118787, Control_c, 0, 64, 84
1, 118793, Note_off_c, 0, 35, 65
1, 118801, Control_c, 0, 64, 110
1, 118816, Control_c, 0, 64, 127
1, 118898, Note_off_c, 0, 59, 60
1, 118902, Note_off_c, 0, 56, 63
1, 118929, Note_off_c, 0, 64, 61
1, 118937, Note_on_c, 0, 51, 81
1, 118954, Note_off_c, 0, 68, 59
1, 119071, Note_on_c, 0, 52, 83
1, 119102, Note_off_c, 0, 51, 58
1, 119181, Note_on_c, 0, 54, 87
1, 119183, Note_off_c, 0, 52, 67
1, 119367, Note_on_c, 0, 63, 72
1, 119368, Note_on_c, 0, 71, 80
1, 119371, Note_on_c, 0, 59, 73
1, 119372, Control_c, 0, 64, 96
1, 119377, Note_on_c, 0, 57, 78
1, 119384, Note_on_c, 0, 56, 84
1, 119387, Note_off_c, 0, 54, 60
1, 119387, Control_c, 0, 64, 61
1, 119402, Control_c, 0, 64, 0
1, 119431, Control_c, 0, 64, 30
1, 119446, Control_c, 0, 64, 73
1, 119460, Control_c, 0, 64, 91
1, 119473, Note_off_c, 0, 56, 58
1, 119475, Control_c, 0, 64, 117
1, 119490, Control_c, 0, 64, 127
1, 119512, Note_on_c, 0, 47, 86
1, 119607, Note_off_c, 0, 47, 61
1, 119643, Note_on_c, 0, 56, 83
1, 119747, Note_on_c, 0, 54, 84
1, 119777, Note_off_c, 0, 56, 64
1, 119861, Control_c, 0, 64, 112
1, 119872, Note_off_c, 0, 54, 58
1, 119875, Control_c, 0, 64, 81
1, 119890, Note_on_c, 0, 52, 88
1, 119890, Control_c, 0, 64, 0
1, 119935, Control_c, 0, 64, 58
1, 119950, Control_c, 0, 64, 82
1, 119963, Note_off_c, 0, 71, 56
1, 119965, Control_c, 0, 64, 103
1, 119980, Control_c, 0, 64, 125
1, 119992, Note_off_c, 0, 59, 51
1, 119995, Note_off_c, 0, 57, 57
1, 119995, Control_c, 0, 64, 127
1, 120007, Note_off_c, 0, 52, 68
1, 120043, Note_off_c, 0, 63, 64
1, 120189, Note_on_c, 0, 40, 71
1, 120221, Note_on_c, 0, 47, 62
1, 120250, Note_off_c, 0, 40, 63
1, 120261, Note_off_c, 0, 47, 64
1, 120281, Note_on_c, 0, 52, 74
1, 120360, Note_off_c, 0, 52, 60
1, 120372, Note_on_c, 0, 54, 60
1, 120394, Note_on_c, 0, 55, 49
1, 120410, Note_on_c, 0, 64, 47
1, 120413, Note_on_c, 0, 59, 72
1, 120413, Note_on_c, 0, 68, 83
1, 120416, Note_on_c, 0, 56, 81
1, 120419, Note_off_c, 0, 55, 59
1, 120430, Note_on_c, 0, 52, 92
1, 120432, Control_c, 0, 64, 111
1, 120447, Control_c, 0, 64, 82
1, 120452, Note_off_c, 0, 54, 36
1, 120461, Control_c, 0, 64, 0
1, 120519, Poly_aftertouch_c, 0, 66, 0
1, 120520, Control_c, 0, 64, 66
1, 120535, Control_c, 0, 64, 81
1, 120550, Control_c, 0, 64, 90
1, 120565, Control_c, 0, 64, 94
1, 120579, Control_c, 0, 64, 95
1, 120594, Control_c, 0, 64, 99
1, 120609, Control_c, 0, 64, 104
1, 120624, Control_c, 0, 64, 112
1, 120639, Control_c, 0, 64, 117
1, 120654, Control_c, 0, 64, 120
1, 120668, Control_c, 0, 64, 122
1, 120683, Control_c, 0, 64, 127
1, 120686, Note_off_c, 0, 52, 62
1, 120751, Note_off_c, 0, 68, 38
1, 120833, Note_on_c, 0, 51, 87
1, 120844, Note_off_c, 0, 59, 56
1, 120852, Note_off_c, 0, 56, 57
1, 120874, Note_off_c, 0, 51, 64
1, 120923, Note_on_c, 0, 52, 96
1, 120928, Control_c, 0, 64, 115
1, 120943, Control_c, 0, 64, 96
1, 120958, Control_c, 0, 64, 78
1, 120972, Control_c, 0, 64, 50
1, 120987, Control_c, 0, 64, 0
1, 121014, Note_off_c, 0, 64, 16
1, 121274, Note_off_c, 0, 52, 62
1, 121461, Note_on_c, 0, 64, 34
1, 121464, Note_on_c, 0, 56, 87
1, 121466, Note_on_c, 0, 60, 59
1, 121468, Note_on_c, 0, 68, 87
1, 121469, Note_on_c, 0, 44, 85
1, 121470, Note_on_c, 0, 52, 94
1, 121473, Note_on_c, 0, 54, 89
1, 121507, Control_c, 0, 64, 68
1, 121529, Control_c, 0, 64, 84
1, 121544, Control_c, 0, 64, 99
1, 121559, Control_c, 0, 64, 112
1, 121574, Control_c, 0, 64, 122
1, 121589, Control_c, 0, 64, 127
1, 121625, Note_off_c, 0, 68, 57
1, 121654, Note_off_c, 0, 54, 55
1, 121662, Note_off_c, 0, 56, 55
1, 121691, Note_off_c, 0, 44, 60
1, 121710, Note_off_c, 0, 52, 59
1, 121714, Note_off_c, 0, 60, 60
1, 121826, Note_off_c, 0, 64, 42
1, 121850, Note_on_c, 0, 51, 89
1, 121850, Note_on_c, 0, 63, 90
1, 121894, Note_off_c, 0, 51, 64
1, 121900, Note_off_c, 0, 63, 68
1, 121977, Note_on_c, 0, 73, 94
1, 121977, Note_on_c, 0, 61, 95
1, 121986, Note_on_c, 0, 49, 90
1, 121989, Control_c, 0, 64, 111
1, 122004, Control_c, 0, 64, 80
1, 122019, Control_c, 0, 64, 0
1, 122078, Control_c, 0, 64, 67
1, 122093, Control_c, 0, 64, 80
1, 122108, Control_c, 0, 64, 92
1, 122123, Control_c, 0, 64, 102
1, 122138, Control_c, 0, 64, 110
1, 122144, Note_off_c, 0, 73, 57
1, 122152, Control_c, 0, 64, 123
1, 122162, Note_off_c, 0, 61, 53
1, 122167, Note_off_c, 0, 49, 61
1, 122167, Control_c, 0, 64, 127
1, 122351, Note_on_c, 0, 68, 90
1, 122359, Note_on_c, 0, 56, 97
1, 122396, Note_off_c, 0, 56, 67
1, 122459, Note_off_c, 0, 68, 59
1, 122528, Note_on_c, 0, 64, 84
1, 122528, Note_on_c, 0, 73, 94
1, 122531, Note_on_c, 0, 61, 91
1, 122537, Note_on_c, 0, 49, 98
1, 122537, Note_on_c, 0, 68, 77
1, 122546, Note_on_c, 0, 37, 83
1, 122559, Control_c, 0, 64, 104
1, 122574, Control_c, 0, 64, 77
1, 122589, Control_c, 0, 64, 0
1, 122633, Control_c, 0, 64, 25
1, 122648, Control_c, 0, 64, 72
1, 122663, Control_c, 0, 64, 86
1, 122678, Control_c, 0, 64, 99
1, 122692, Control_c, 0, 64, 107
1, 122707, Control_c, 0, 64, 111
1, 122722, Control_c, 0, 64, 122
1, 122737, Control_c, 0, 64, 127
1, 122854, Note_off_c, 0, 49, 60
1, 122887, Note_off_c, 0, 37, 64
1, 123101, Control_c, 0, 64, 109
1, 123110, Note_on_c, 0, 30, 100
1, 123116, Control_c, 0, 64, 68
1, 123131, Control_c, 0, 64, 0
1, 123160, Control_c, 0, 64, 57
1, 123167, Note_off_c, 0, 73, 54
1, 123169, Note_off_c, 0, 30, 63
1, 123175, Control_c, 0, 64, 83
1, 123190, Control_c, 0, 64, 118
1, 123205, Control_c, 0, 64, 127
1, 123206, Note_off_c, 0, 64, 60
1, 123211, Note_off_c, 0, 61, 61
1, 123222, Note_off_c, 0, 68, 60
1, 123304, Note_on_c, 0, 72, 84
1, 123304, Note_on_c, 0, 60, 82
1, 123306, Note_on_c, 0, 48, 80
1, 123348, Note_off_c, 0, 60, 63
1, 123352, Note_off_c, 0, 72, 66
1, 123423, Note_off_c, 0, 48, 63
1, 123442, Note_on_c, 0, 49, 74
1, 123444, Note_on_c, 0, 61, 91
1, 123446, Note_on_c, 0, 73, 93
1, 123470, Note_off_c, 0, 61, 64
1, 123490, Note_off_c, 0, 73, 60
1, 123554, Note_on_c, 0, 63, 90
1, 123557, Note_on_c, 0, 51, 79
1, 123558, Note_on_c, 0, 75, 93
1, 123574, Note_off_c, 0, 49, 59
1, 123593, Note_off_c, 0, 63, 64
1, 123617, Note_off_c, 0, 75, 60
1, 123739, Control_c, 0, 64, 105
1, 123754, Control_c, 0, 64, 76
1, 123757, Note_on_c, 0, 52, 83
1, 123771, Note_off_c, 0, 51, 58
1, 123772, Note_on_c, 0, 64, 90
1, 123774, Note_on_c, 0, 76, 91
1, 123776, Control_c, 0, 64, 0
1, 123805, Control_c, 0, 64, 70
1, 123820, Control_c, 0, 64, 92
1, 123822, Note_off_c, 0, 64, 66
1, 123835, Control_c, 0, 64, 127
1, 123854, Note_off_c, 0, 76, 64
1, 123898, Note_off_c, 0, 52, 61
1, 123928, Note_on_c, 0, 69, 94
1, 123930, Note_on_c, 0, 57, 78
1, 123935, Note_on_c, 0, 45, 71
1, 123971, Note_off_c, 0, 57, 59
1, 123987, Note_off_c, 0, 69, 68
1, 124012, Note_off_c, 0, 45, 62
1, 124055, Note_on_c, 0, 64, 85
1, 124058, Note_on_c, 0, 52, 87
1, 124058, Note_on_c, 0, 76, 91
1, 124096, Note_off_c, 0, 76, 69
1, 124096, Note_off_c, 0, 64, 67
1, 124105, Note_off_c, 0, 52, 64
1, 124172, Note_on_c, 0, 51, 85
1, 124172, Note_on_c, 0, 63, 90
1, 124173, Note_on_c, 0, 75, 91
1, 124212, Note_off_c, 0, 63, 67
1, 124226, Note_off_c, 0, 75, 62
1, 124232, Note_off_c, 0, 51, 63
1, 124294, Control_c, 0, 64, 119
1, 124296, Note_on_c, 0, 61, 101
1, 124299, Note_on_c, 0, 73, 98
1, 124303, Note_on_c, 0, 49, 95
1, 124309, Control_c, 0, 64, 84
1, 124323, Control_c, 0, 64, 0
1, 124384, Control_c, 0, 64, 75
1, 124398, Note_off_c, 0, 73, 55
1, 124399, Control_c, 0, 64, 92
1, 124413, Control_c, 0, 64, 108
1, 124428, Control_c, 0, 64, 114
1, 124431, Note_off_c, 0, 61, 54
1, 124443, Control_c, 0, 64, 118
1, 124458, Control_c, 0, 64, 124
1, 124472, Control_c, 0, 64, 127
1, 124532, Note_off_c, 0, 49, 62
1, 124633, Note_on_c, 0, 61, 62
1, 124651, Note_on_c, 0, 63, 67
1, 124706, Note_off_c, 0, 61, 56
1, 124723, Note_on_c, 0, 68, 64
1, 124758, Note_off_c, 0, 63, 63
1, 124796, Note_on_c, 0, 61, 102
1, 124796, Note_on_c, 0, 64, 90
1, 124799, Note_on_c, 0, 73, 91
1, 124800, Note_on_c, 0, 37, 85
1, 124800, Note_on_c, 0, 49, 98
1, 124806, Control_c, 0, 64, 96
1, 124821, Control_c, 0, 64, 67
1, 124834, Note_on_c, 0, 70, 34
1, 124836, Control_c, 0, 64, 0
1, 124868, Note_off_c, 0, 70, 33
1, 124880, Control_c, 0, 64, 66
1, 124883, Note_off_c, 0, 61, 53
1, 124894, Control_c, 0, 64, 84
1, 124901, Note_off_c, 0, 73, 60
1, 124909, Control_c, 0, 64, 100
1, 124919, Note_off_c, 0, 64, 64
1, 124924, Control_c, 0, 64, 110
1, 124925, Note_off_c, 0, 68, 63
1, 124932, Note_off_c, 0, 37, 64
1, 124939, Control_c, 0, 64, 112
1, 124940, Note_off_c, 0, 49, 61
1, 124953, Control_c, 0, 64, 115
1, 124968, Control_c, 0, 64, 120
1, 124983, Control_c, 0, 64, 127
1, 125203, Note_on_c, 0, 60, 82
1, 125203, Note_on_c, 0, 69, 80
1, 125208, Note_on_c, 0, 63, 75
1, 125211, Note_on_c, 0, 48, 75
1, 125211, Note_on_c, 0, 57, 77
1, 125220, Note_on_c, 0, 52, 71
1, 125241, Note_off_c, 0, 60, 62
1, 125244, Note_off_c, 0, 57, 63
1, 125254, Note_off_c, 0, 52, 66
1, 125270, Note_off_c, 0, 48, 63
1, 125271, Note_off_c, 0, 69, 63
1, 125274, Note_off_c, 0, 63, 64
1, 125327, Note_on_c, 0, 64, 90
1, 125328, Note_on_c, 0, 68, 87
1, 125329, Note_on_c, 0, 61, 95
1, 125332, Control_c, 0, 64, 100
1, 125334, Note_on_c, 0, 56, 86
1, 125339, Note_on_c, 0, 52, 80
1, 125347, Control_c, 0, 64, 72
1, 125348, Note_on_c, 0, 49, 72
1, 125362, Control_c, 0, 64, 0
1, 125406, Control_c, 0, 64, 52
1, 125420, Control_c, 0, 64, 74
1, 125435, Control_c, 0, 64, 86
1, 125450, Control_c, 0, 64, 95
1, 125465, Control_c, 0, 64, 99
1, 125476, Note_off_c, 0, 56, 59
1, 125480, Control_c, 0, 64, 105
1, 125482, Note_off_c, 0, 52, 64
1, 125492, Note_off_c, 0, 49, 60
1, 125494, Control_c, 0, 64, 114
1, 125497, Note_off_c, 0, 61, 58
1, 125509, Control_c, 0, 64, 127
1, 125518, Note_off_c, 0, 64, 61
1, 125539, Note_off_c, 0, 68, 60
1, 125673, Control_c, 0, 64, 123
1, 125687, Control_c, 0, 64, 106
1, 125702, Control_c, 0, 64, 87
1, 125717, Control_c, 0, 64, 68
1, 125731, Note_on_c, 0, 46, 70
1, 125732, Control_c, 0, 64, 0
1, 125771, Note_on_c, 0, 52, 61
1, 125788, Note_on_c, 0, 55, 41
1, 125792, Note_off_c, 0, 46, 63
1, 125820, Control_c, 0, 64, 68
1, 125831, Note_on_c, 0, 64, 92
1, 125831, Note_on_c, 0, 67, 86
1, 125831, Note_on_c, 0, 76, 85
1, 125834, Note_on_c, 0, 61, 95
1, 125835, Control_c, 0, 64, 83
1, 125838, Note_on_c, 0, 73, 72
1, 125850, Control_c, 0, 64, 101
1, 125865, Note_off_c, 0, 61, 65
1, 125865, Control_c, 0, 64, 120
1, 125871, Note_off_c, 0, 55, 65
1, 125880, Control_c, 0, 64, 127
1, 125881, Note_off_c, 0, 52, 66
1, 126091, Note_off_c, 0, 64, 57
1, 126102, Note_on_c, 0, 45, 90
1, 126114, Note_off_c, 0, 67, 59
1, 126129, Note_off_c, 0, 76, 65
1, 126131, Note_off_c, 0, 45, 66
1, 126149, Note_off_c, 0, 73, 62
1, 126314, Note_on_c, 0, 44, 70
1, 126363, Note_off_c, 0, 44, 63
1, 126374, Note_on_c, 0, 52, 70
1, 126377, Control_c, 0, 64, 103
1, 126391, Control_c, 0, 64, 74
1, 126406, Control_c, 0, 64, 0
1, 126428, Note_on_c, 0, 56, 61
1, 126431, Note_on_c, 0, 73, 74
1, 126432, Note_on_c, 0, 68, 97
1, 126433, Note_on_c, 0, 80, 92
1, 126434, Note_off_c, 0, 52, 62
1, 126435, Control_c, 0, 64, 46
1, 126445, Note_on_c, 0, 64, 91
1, 126450, Control_c, 0, 64, 75
1, 126465, Control_c, 0, 64, 102
1, 126480, Control_c, 0, 64, 127
1, 126484, Note_off_c, 0, 64, 66
1, 126501, Note_off_c, 0, 56, 64
1, 126507, Note_off_c, 0, 80, 66
1, 126509, Note_off_c, 0, 68, 61
1, 126526, Note_off_c, 0, 73, 64
1, 126887, Note_on_c, 0, 52, 81
1, 126892, Note_on_c, 0, 44, 87
1, 126893, Note_on_c, 0, 49, 71
1, 126896, Note_on_c, 0, 46, 102
1, 126904, Note_on_c, 0, 34, 75
1, 126926, Note_off_c, 0, 44, 65
1, 126957, Note_off_c, 0, 49, 62
1, 126958, Note_off_c, 0, 46, 58
1, 126960, Note_off_c, 0, 52, 66
1, 127009, Note_off_c, 0, 34, 61
1, 127137, Note_on_c, 0, 45, 96
1, 127137, Note_on_c, 0, 33, 81
1, 127194, Note_off_c, 0, 45, 63
1, 127223, Note_on_c, 0, 66, 72
1, 127223, Note_off_c, 0, 33, 62
1, 127284, Note_on_c, 0, 72, 72
1, 127330, Note_off_c, 0, 66, 64
1, 127347, Note_on_c, 0, 75, 80
1, 127426, Note_off_c, 0, 72, 59
1, 127518, Control_c, 0, 64, 98
1, 127531, Note_on_c, 0, 44, 98
1, 127532, Note_on_c, 0, 39, 80
1, 127533, Control_c, 0, 64, 66
1, 127539, Note_on_c, 0, 81, 96
1, 127540, Note_on_c, 0, 32, 76
1, 127543, Note_on_c, 0, 36, 71
1, 127548, Control_c, 0, 64, 0
1, 127574, Note_off_c, 0, 75, 64
1, 127593, Control_c, 0, 64, 65
1, 127608, Control_c, 0, 64, 87
1, 127615, Note_off_c, 0, 44, 62
1, 127622, Control_c, 0, 64, 112
1, 127635, Note_off_c, 0, 39, 62
1, 127637, Control_c, 0, 64, 127
1, 127644, Note_off_c, 0, 36, 63
1, 127676, Note_off_c, 0, 32, 60
1, 127732, Note_off_c, 0, 81, 59
1, 127898, Note_on_c, 0, 31, 87
1, 127934, Control_c, 0, 64, 101
1, 127949, Control_c, 0, 64, 73
1, 127963, Control_c, 0, 64, 0
1, 127993, Control_c, 0, 64, 46
1, 127994, Note_on_c, 0, 32, 71
1, 128008, Control_c, 0, 64, 73
1, 128016, Note_off_c, 0, 31, 62
1, 128022, Note_on_c, 0, 36, 68
1, 128022, Control_c, 0, 64, 88
1, 128037, Control_c, 0, 64, 105
1, 128052, Control_c, 0, 64, 115
1, 128067, Control_c, 0, 64, 118
1, 128076, Note_on_c, 0, 39, 78
1, 128082, Control_c, 0, 64, 124
1, 128093, Note_off_c, 0, 36, 64
1, 128097, Control_c, 0, 64, 127
1, 128102, Note_off_c, 0, 32, 61
1, 128107, Note_off_c, 0, 39, 63
1, 128110, Note_on_c, 0, 42, 74
1, 128138, Note_on_c, 0, 47, 65
1, 128155, Note_off_c, 0, 42, 63
1, 128204, Note_on_c, 0, 45, 71
1, 128264, Note_off_c, 0, 47, 59
1, 128268, Note_off_c, 0, 45, 65
1, 128293, Note_on_c, 0, 43, 73
1, 128311, Control_c, 0, 64, 97
1, 128326, Note_on_c, 0, 44, 67
1, 128326, Control_c, 0, 64, 71
1, 128335, Note_off_c, 0, 43, 60
1, 128342, Control_c, 0, 64, 0
1, 128362, Note_on_c, 0, 48, 60
1, 128372, Control_c, 0, 64, 54
1, 128386, Control_c, 0, 64, 75
1, 128401, Note_on_c, 0, 51, 80
1, 128401, Control_c, 0, 64, 92
1, 128416, Control_c, 0, 64, 111
1, 128431, Note_off_c, 0, 48, 65
1, 128431, Control_c, 0, 64, 122
1, 128434, Note_off_c, 0, 51, 64
1, 128439, Note_off_c, 0, 44, 62
1, 128440, Note_on_c, 0, 54, 77
1, 128446, Control_c, 0, 64, 127
1, 128470, Note_off_c, 0, 54, 65
1, 128481, Note_on_c, 0, 59, 64
1, 128524, Note_on_c, 0, 57, 76
1, 128586, Note_off_c, 0, 57, 65
1, 128589, Note_off_c, 0, 59, 50
1, 128595, Note_on_c, 0, 55, 77
1, 128609, Control_c, 0, 64, 103
1, 128617, Note_on_c, 0, 56, 72
1, 128624, Control_c, 0, 64, 77
1, 128633, Note_off_c, 0, 55, 62
1, 128638, Control_c, 0, 64, 0
1, 128647, Note_on_c, 0, 60, 62
1, 128668, Control_c, 0, 64, 48
1, 128683, Control_c, 0, 64, 72
1, 128693, Note_on_c, 0, 63, 80
1, 128698, Control_c, 0, 64, 87
1, 128712, Control_c, 0, 64, 106
1, 128727, Control_c, 0, 64, 123
1, 128728, Note_off_c, 0, 63, 63
1, 128729, Note_off_c, 0, 60, 62
1, 128733, Note_on_c, 0, 66, 85
1, 128733, Note_off_c, 0, 56, 63
1, 128742, Control_c, 0, 64, 127
1, 128758, Note_off_c, 0, 66, 68
1, 128779, Note_on_c, 0, 71, 59
1, 128823, Note_on_c, 0, 69, 79
1, 128890, Note_off_c, 0, 69, 68
1, 128897, Note_on_c, 0, 67, 81
1, 128905, Note_off_c, 0, 71, 58
1, 128905, Control_c, 0, 64, 93
1, 128920, Control_c, 0, 64, 67
1, 128926, Note_on_c, 0, 68, 60
1, 128934, Control_c, 0, 64, 0
1, 128940, Note_off_c, 0, 67, 64
1, 128977, Note_on_c, 0, 72, 56
1, 128979, Control_c, 0, 64, 65
1, 128994, Control_c, 0, 64, 77
1, 129016, Control_c, 0, 64, 87
1, 129017, Note_on_c, 0, 75, 77
1, 129031, Control_c, 0, 64, 94
1, 129045, Control_c, 0, 64, 98
1, 129050, Note_off_c, 0, 75, 59
1, 129054, Note_off_c, 0, 72, 64
1, 129054, Note_off_c, 0, 68, 57
1, 129057, Note_on_c, 0, 78, 85
1, 129060, Control_c, 0, 64, 104
1, 129075, Control_c, 0, 64, 113
1, 129078, Poly_aftertouch_c, 0, 69, 0
1, 129090, Note_off_c, 0, 78, 61
1, 129090, Control_c, 0, 64, 127
1, 129116, Note_on_c, 0, 83, 66
1, 129174, Note_on_c, 0, 81, 80
1, 129246, Note_off_c, 0, 83, 58
1, 129248, Note_off_c, 0, 81, 61
1, 129268, Control_c, 0, 64, 122
1, 129283, Control_c, 0, 64, 100
1, 129287, Note_on_c, 0, 80, 79
1, 129298, Control_c, 0, 64, 79
1, 129313, Control_c, 0, 64, 0
1, 129401, Note_on_c, 0, 81, 69
1, 129404, Note_off_c, 0, 80, 60
1, 129417, Control_c, 0, 64, 66
1, 129427, Note_off_c, 0, 81, 64
1, 129432, Control_c, 0, 64, 74
1, 129447, Control_c, 0, 64, 83
1, 129461, Control_c, 0, 64, 91
1, 129476, Control_c, 0, 64, 99
1, 129491, Control_c, 0, 64, 107
1, 129506, Control_c, 0, 64, 117
1, 129507, Note_on_c, 0, 80, 63
1, 129521, Control_c, 0, 64, 127
1, 129527, Note_off_c, 0, 80, 65
1, 129566, Note_on_c, 0, 81, 64
1, 129585, Note_off_c, 0, 81, 65
1, 129617, Note_on_c, 0, 80, 65
1, 129662, Note_off_c, 0, 80, 61
1, 129689, Note_on_c, 0, 81, 65
1, 129712, Note_off_c, 0, 81, 64
1, 129736, Note_on_c, 0, 80, 72
1, 129777, Note_off_c, 0, 80, 61
1, 129799, Note_on_c, 0, 81, 70
1, 129825, Note_off_c, 0, 81, 68
1, 129845, Note_on_c, 0, 80, 77
1, 129883, Note_off_c, 0, 80, 61
1, 129895, Note_on_c, 0, 81, 75
1, 129917, Note_off_c, 0, 81, 69
1, 129941, Note_on_c, 0, 80, 83
1, 129985, Note_off_c, 0, 80, 65
1, 129990, Note_on_c, 0, 81, 71
1, 130012, Note_off_c, 0, 81, 69
1, 130034, Note_on_c, 0, 80, 79
1, 130077, Note_off_c, 0, 80, 65
1, 130081, Note_on_c, 0, 81, 72
1, 130103, Note_off_c, 0, 81, 68
1, 130127, Note_on_c, 0, 80, 84
1, 130173, Note_off_c, 0, 80, 65
1, 130175, Note_on_c, 0, 81, 73
1, 130192, Note_off_c, 0, 81, 67
1, 130219, Note_on_c, 0, 80, 86
1, 130259, Note_on_c, 0, 81, 78
1, 130266, Note_off_c, 0, 80, 65
1, 130282, Note_off_c, 0, 81, 64
1, 130313, Note_on_c, 0, 80, 87
1, 130356, Note_off_c, 0, 80, 65
1, 130357, Note_on_c, 0, 81, 85
1, 130377, Note_off_c, 0, 81, 69
1, 130407, Note_on_c, 0, 80, 86
1, 130452, Note_off_c, 0, 80, 64
1, 130462, Note_on_c, 0, 81, 76
1, 130477, Note_off_c, 0, 81, 68
1, 130511, Note_on_c, 0, 80, 80
1, 130557, Note_off_c, 0, 80, 64
1, 130560, Note_on_c, 0, 81, 77
1, 130583, Note_off_c, 0, 81, 68
1, 130617, Note_on_c, 0, 80, 76
1, 130666, Note_off_c, 0, 80, 63
1, 130669, Note_on_c, 0, 81, 80
1, 130689, Note_off_c, 0, 81, 69
1, 130724, Note_on_c, 0, 80, 73
1, 130774, Note_off_c, 0, 80, 64
1, 130784, Note_on_c, 0, 81, 68
1, 130799, Note_off_c, 0, 81, 67
1, 130842, Note_on_c, 0, 80, 74
1, 130881, Note_on_c, 0, 81, 72
1, 130888, Note_off_c, 0, 80, 61
1, 130907, Note_off_c, 0, 81, 64
1, 130961, Note_on_c, 0, 80, 71
1, 131004, Note_on_c, 0, 81, 68
1, 131004, Note_off_c, 0, 80, 58
1, 131026, Note_off_c, 0, 81, 63
1, 131093, Note_on_c, 0, 80, 68
1, 131125, Note_on_c, 0, 81, 66
1, 131128, Note_off_c, 0, 80, 58
1, 131160, Note_off_c, 0, 81, 58
1, 131227, Note_on_c, 0, 80, 68
1, 131269, Note_on_c, 0, 81, 70
1, 131274, Note_off_c, 0, 80, 58
1, 131295, Note_off_c, 0, 81, 65
1, 131362, Note_on_c, 0, 80, 69
1, 131386, Note_off_c, 0, 80, 69
1, 131410, Note_on_c, 0, 81, 42
1, 131436, Note_off_c, 0, 81, 50
1, 131483, Note_on_c, 0, 81, 62
1, 131557, Note_off_c, 0, 81, 58
1, 131567, Note_on_c, 0, 80, 66
1, 131629, Note_off_c, 0, 80, 62
1, 131662, Note_on_c, 0, 79, 56
1, 131701, Note_off_c, 0, 79, 58
1, 131708, Control_c, 0, 64, 119
1, 131723, Control_c, 0, 64, 105
1, 131737, Note_on_c, 0, 80, 59
1, 131737, Control_c, 0, 64, 94
1, 131752, Control_c, 0, 64, 83
1, 131767, Control_c, 0, 64, 72
1, 131775, Note_off_c, 0, 80, 65
1, 131781, Control_c, 0, 64, 55
1, 131796, Control_c, 0, 64, 0
1, 131803, Note_on_c, 0, 81, 50
1, 131856, Note_off_c, 0, 81, 59
1, 131857, Note_on_c, 0, 82, 59
1, 131881, Note_off_c, 0, 82, 67
1, 131938, Note_on_c, 0, 83, 52
1, 131972, Note_off_c, 0, 83, 54
1, 132011, Note_on_c, 0, 84, 58
1, 132048, Note_off_c, 0, 84, 64
1, 132163, Note_on_c, 0, 85, 53
1, 132180, Note_on_c, 0, 45, 33
1, 132205, Note_off_c, 0, 85, 64
1, 132219, Control_c, 0, 64, 66
1, 132231, Note_off_c, 0, 45, 60
1, 132234, Control_c, 0, 64, 76
1, 132249, Control_c, 0, 64, 86
1, 132263, Control_c, 0, 64, 94
1, 132278, Control_c, 0, 64, 99
1, 132293, Control_c, 0, 64, 103
1, 132308, Control_c, 0, 64, 107
1, 132323, Control_c, 0, 64, 112
1, 132339, Control_c, 0, 64, 118
1, 132354, Control_c, 0, 64, 124
1, 132368, Control_c, 0, 64, 127
1, 132613, Note_on_c, 0, 61, 40
1, 132642, Note_on_c, 0, 69, 5
1, 132643, Note_off_c, 0, 61, 53
1, 132699, Note_off_c, 0, 69, 52
1, 132841, Note_on_c, 0, 85, 68
1, 132860, Note_on_c, 0, 81, 51
1, 132865, Note_on_c, 0, 64, 42
1, 132878, Note_on_c, 0, 73, 40
1, 132878, Note_on_c, 0, 76, 32
1, 132903, Note_on_c, 0, 69, 16
1, 132943, Note_off_c, 0, 81, 52
1, 132973, Note_off_c, 0, 73, 51
1, 132975, Note_off_c, 0, 69, 43
1, 132991, Note_off_c, 0, 76, 41
1, 133009, Note_off_c, 0, 64, 36
1, 133339, Control_c, 0, 64, 126
1, 133354, Control_c, 0, 64, 105
1, 133369, Control_c, 0, 64, 90
1, 133372, Note_on_c, 0, 49, 44
1, 133383, Control_c, 0, 64, 74
1, 133398, Control_c, 0, 64, 53
1, 133413, Control_c, 0, 64, 0
1, 133427, Control_c, 0, 64, 34
1, 133442, Control_c, 0, 64, 69
1, 133454, Note_off_c, 0, 49, 56
1, 133457, Control_c, 0, 64, 79
1, 133472, Control_c, 0, 64, 86
1, 133477, Note_on_c, 0, 80, 56
1, 133480, Note_on_c, 0, 84, 63
1, 133487, Control_c, 0, 64, 89
1, 133509, Control_c, 0, 64, 92
1, 133523, Note_off_c, 0, 85, 55
1, 133524, Control_c, 0, 64, 95
1, 133539, Control_c, 0, 64, 98
1, 133550, Note_off_c, 0, 80, 41
1, 133554, Control_c, 0, 64, 103
1, 133568, Control_c, 0, 64, 105
1, 133573, Note_off_c, 0, 84, 62
1, 133583, Control_c, 0, 64, 106
1, 133598, Control_c, 0, 64, 107
1, 133613, Control_c, 0, 64, 109
1, 133624, Note_on_c, 0, 85, 78
1, 133628, Control_c, 0, 64, 110
1, 133638, Note_on_c, 0, 81, 59
1, 133642, Control_c, 0, 64, 111
1, 133668, Note_off_c, 0, 81, 64
1, 133672, Control_c, 0, 64, 112
1, 133687, Control_c, 0, 64, 112
1, 133702, Control_c, 0, 64, 113
1, 133737, Note_on_c, 0, 87, 75
1, 133746, Control_c, 0, 64, 113
1, 133749, Note_on_c, 0, 69, 47
1, 133757, Note_on_c, 0, 83, 58
1, 133761, Control_c, 0, 64, 114
1, 133766, Note_off_c, 0, 85, 62
1, 133775, Control_c, 0, 64, 114
1, 133779, Note_off_c, 0, 83, 58
1, 133790, Control_c, 0, 64, 115
1, 133793, Note_off_c, 0, 69, 63
1, 133805, Control_c, 0, 64, 115
1, 133826, Poly_aftertouch_c, 0, 61, 0
1, 133865, Control_c, 0, 64, 115
1, 133880, Control_c, 0, 64, 112
1, 133895, Control_c, 0, 64, 101
1, 133900, Note_off_c, 0, 87, 51
1, 133910, Control_c, 0, 64, 86
1, 133925, Control_c, 0, 64, 67
1, 133933, Note_on_c, 0, 88, 67
1, 133938, Note_on_c, 0, 85, 62
1, 133940, Control_c, 0, 64, 0
1, 133947, Note_on_c, 0, 64, 41
1, 133962, Note_on_c, 0, 73, 31
1, 133970, Control_c, 0, 64, 61
1, 133979, Note_off_c, 0, 85, 60
1, 133985, Control_c, 0, 64, 74
1, 133999, Note_off_c, 0, 88, 58
1, 133999, Control_c, 0, 64, 82
1, 134002, Note_off_c, 0, 73, 48
1, 134005, Poly_aftertouch_c, 0, 69, 127
1, 134014, Control_c, 0, 64, 85
1, 134034, Poly_aftertouch_c, 0, 69, 0
1, 134048, Note_off_c, 0, 64, 56
1, 134059, Control_c, 0, 64, 85
1, 134082, Note_on_c, 0, 81, 67
1, 134085, Note_on_c, 0, 76, 58
1, 134106, Note_off_c, 0, 76, 66
1, 134131, Note_off_c, 0, 81, 59
1, 134148, Control_c, 0, 64, 84
1, 134163, Control_c, 0, 64, 82
1, 134177, Control_c, 0, 64, 77
1, 134192, Control_c, 0, 64, 68
1, 134203, Note_on_c, 0, 87, 64
1, 134207, Control_c, 0, 64, 0
1, 134208, Note_on_c, 0, 83, 58
1, 134240, Note_off_c, 0, 83, 61
1, 134309, Note_off_c, 0, 87, 55
1, 134312, Note_on_c, 0, 85, 64
1, 134316, Note_on_c, 0, 81, 63
1, 134345, Note_off_c, 0, 81, 65
1, 134367, Note_off_c, 0, 85, 61
1, 134451, Note_on_c, 0, 83, 69
1, 134463, Note_on_c, 0, 80, 56
1, 134464, Note_on_c, 0, 40, 47
1, 134485, Note_off_c, 0, 80, 63
1, 134492, Note_off_c, 0, 83, 60
1, 134496, Control_c, 0, 64, 67
1, 134500, Note_off_c, 0, 40, 65
1, 134511, Control_c, 0, 64, 76
1, 134526, Control_c, 0, 64, 84
1, 134540, Control_c, 0, 64, 90
1, 134555, Control_c, 0, 64, 92
1, 134570, Control_c, 0, 64, 95
1, 134584, Control_c, 0, 64, 97
1, 134599, Control_c, 0, 64, 100
1, 134614, Control_c, 0, 64, 103
1, 134628, Control_c, 0, 64, 105
1, 134643, Control_c, 0, 64, 106
1, 134658, Control_c, 0, 64, 107
1, 134673, Control_c, 0, 64, 107
1, 134688, Control_c, 0, 64, 108
1, 134703, Control_c, 0, 64, 109
1, 134747, Control_c, 0, 64, 110
1, 134777, Control_c, 0, 64, 110
1, 134792, Control_c, 0, 64, 111
1, 134797, Note_on_c, 0, 83, 57
1, 134822, Control_c, 0, 64, 111
1, 134831, Note_off_c, 0, 83, 61
1, 134839, Note_on_c, 0, 68, 23
1, 134844, Note_on_c, 0, 85, 60
1, 134852, Control_c, 0, 64, 112
1, 134866, Control_c, 0, 64, 112
1, 134883, Note_off_c, 0, 68, 39
1, 134914, Note_on_c, 0, 83, 70
1, 134922, Note_on_c, 0, 80, 69
1, 134930, Note_on_c, 0, 71, 44
1, 134941, Control_c, 0, 64, 113
1, 134942, Note_on_c, 0, 64, 38
1, 134943, Note_off_c, 0, 85, 59
1, 134947, Note_on_c, 0, 68, 24
1, 134977, Note_off_c, 0, 80, 63
1, 135021, Control_c, 0, 64, 113
1, 135040, Note_off_c, 0, 71, 51
1, 135042, Note_off_c, 0, 68, 52
1, 135088, Note_off_c, 0, 64, 34
1, 135110, Note_off_c, 0, 83, 32
1, 135301, Note_on_c, 0, 82, 61
1, 135310, Note_on_c, 0, 79, 52
1, 135377, Control_c, 0, 64, 113
1, 135392, Control_c, 0, 64, 111
1, 135406, Control_c, 0, 64, 108
1, 135415, Note_off_c, 0, 79, 36
1, 135421, Control_c, 0, 64, 103
1, 135436, Control_c, 0, 64, 97
1, 135451, Control_c, 0, 64, 89
1, 135466, Control_c, 0, 64, 81
1, 135469, Note_on_c, 0, 83, 58
1, 135472, Note_on_c, 0, 80, 55
1, 135481, Control_c, 0, 64, 73
1, 135495, Control_c, 0, 64, 62
1, 135496, Note_off_c, 0, 82, 57
1, 135510, Control_c, 0, 64, 0
1, 135563, Note_off_c, 0, 80, 50
1, 135577, Note_off_c, 0, 83, 57
1, 136172, Note_on_c, 0, 53, 37
1, 136188, Note_on_c, 0, 85, 54
1, 136200, Note_on_c, 0, 80, 46
1, 136206, Note_on_c, 0, 68, 34
1, 136214, Note_on_c, 0, 61, 27
1, 136235, Note_on_c, 0, 73, 11
1, 136244, Control_c, 0, 64, 58
1, 136259, Control_c, 0, 64, 67
1, 136274, Control_c, 0, 64, 71
1, 136289, Control_c, 0, 64, 74
1, 136298, Note_off_c, 0, 61, 0
1, 136303, Control_c, 0, 64, 79
1, 136318, Control_c, 0, 64, 84
1, 136334, Control_c, 0, 64, 87
1, 136336, Poly_aftertouch_c, 0, 61, 127
1, 136349, Control_c, 0, 64, 89
1, 136364, Control_c, 0, 64, 91
1, 136378, Control_c, 0, 64, 93
1, 136390, Note_off_c, 0, 80, 43
1, 136393, Control_c, 0, 64, 96
1, 136395, Note_off_c, 0, 68, 42
1, 136407, Note_off_c, 0, 73, 35
1, 136408, Control_c, 0, 64, 99
1, 136411, Poly_aftertouch_c, 0, 61, 0
1, 136423, Control_c, 0, 64, 102
1, 136438, Control_c, 0, 64, 103
1, 136444, Note_off_c, 0, 85, 35
1, 136452, Control_c, 0, 64, 104
1, 136467, Control_c, 0, 64, 105
1, 136482, Control_c, 0, 64, 106
1, 136503, Note_off_c, 0, 53, 42
1, 136505, Control_c, 0, 64, 107
1, 136520, Control_c, 0, 64, 108
1, 136534, Control_c, 0, 64, 109
1, 136564, Control_c, 0, 64, 110
1, 136578, Control_c, 0, 64, 110
1, 136593, Control_c, 0, 64, 111
1, 136608, Control_c, 0, 64, 112
1, 136638, Control_c, 0, 64, 112
1, 136667, Control_c, 0, 64, 113
1, 136741, Control_c, 0, 64, 113
1, 137038, Control_c, 0, 64, 112
1, 137046, Note_on_c, 0, 81, 54
1, 137052, Control_c, 0, 64, 107
1, 137056, Note_on_c, 0, 30, 31
1, 137067, Control_c, 0, 64, 97
1, 137075, Note_on_c, 0, 78, 42
1, 137082, Control_c, 0, 64, 82
1, 137097, Control_c, 0, 64, 67
1, 137112, Control_c, 0, 64, 0
1, 137119, Poly_aftertouch_c, 0, 73, 127
1, 137143, Control_c, 0, 64, 39
1, 137157, Control_c, 0, 64, 69
1, 137172, Control_c, 0, 64, 81
1, 137186, Poly_aftertouch_c, 0, 73, 0
1, 137187, Control_c, 0, 64, 90
1, 137201, Control_c, 0, 64, 95
1, 137215, Note_off_c, 0, 81, 60
1, 137216, Control_c, 0, 64, 97
1, 137231, Control_c, 0, 64, 101
1, 137232, Note_off_c, 0, 78, 40
1, 137241, Note_off_c, 0, 30, 40
1, 137254, Control_c, 0, 64, 106
1, 137269, Control_c, 0, 64, 111
1, 137283, Control_c, 0, 64, 116
1, 137298, Control_c, 0, 64, 120
1, 137313, Control_c, 0, 64, 124
1, 137328, Control_c, 0, 64, 127
1, 137568, Note_on_c, 0, 57, 19
1, 137610, Note_off_c, 0, 57, 40
1, 137649, Poly_aftertouch_c, 0, 66, 0
1, 137671, Note_on_c, 0, 81, 71
1, 137703, Note_on_c, 0, 73, 44
1, 137712, Note_on_c, 0, 66, 31
1, 137719, Note_on_c, 0, 69, 44
1, 137722, Note_on_c, 0, 61, 28
1, 137768, Note_off_c, 0, 66, 61
1, 137768, Note_off_c, 0, 73, 54
1, 137779, Note_off_c, 0, 69, 59
1, 137785, Note_off_c, 0, 61, 57
1, 137786, Poly_aftertouch_c, 0, 78, 0
1, 138203, Note_on_c, 0, 45, 40
1, 138209, Control_c, 0, 64, 114
1, 138223, Control_c, 0, 64, 100
1, 138238, Control_c, 0, 64, 83
1, 138253, Control_c, 0, 64, 67
1, 138268, Control_c, 0, 64, 0
1, 138296, Note_on_c, 0, 80, 60
1, 138297, Control_c, 0, 64, 33
1, 138309, Note_on_c, 0, 77, 39
1, 138312, Control_c, 0, 64, 68
1, 138317, Note_off_c, 0, 45, 58
1, 138327, Control_c, 0, 64, 78
1, 138336, Note_off_c, 0, 77, 44
1, 138342, Control_c, 0, 64, 84
1, 138354, Note_off_c, 0, 81, 24
1, 138357, Control_c, 0, 64, 87
1, 138370, Note_off_c, 0, 80, 61
1, 138372, Control_c, 0, 64, 88
1, 138387, Control_c, 0, 64, 92
1, 138402, Control_c, 0, 64, 96
1, 138417, Control_c, 0, 64, 101
1, 138426, Note_on_c, 0, 81, 73
1, 138431, Control_c, 0, 64, 104
1, 138435, Note_on_c, 0, 78, 62
1, 138446, Control_c, 0, 64, 107
1, 138459, Note_off_c, 0, 78, 61
1, 138461, Control_c, 0, 64, 108
1, 138476, Control_c, 0, 64, 110
1, 138490, Control_c, 0, 64, 112
1, 138505, Control_c, 0, 64, 113
1, 138520, Control_c, 0, 64, 114
1, 138535, Control_c, 0, 64, 115
1, 138541, Note_on_c, 0, 83, 71
1, 138546, Note_on_c, 0, 80, 68
1, 138549, Control_c, 0, 64, 116
1, 138564, Control_c, 0, 64, 116
1, 138567, Note_off_c, 0, 81, 43
1, 138570, Note_on_c, 0, 57, 44
1, 138573, Note_off_c, 0, 80, 65
1, 138594, Control_c, 0, 64, 117
1, 138619, Note_off_c, 0, 57, 43
1, 138638, Control_c, 0, 64, 116
1, 138643, Note_on_c, 0, 61, 45
1, 138653, Control_c, 0, 64, 115
1, 138667, Control_c, 0, 64, 105
1, 138682, Control_c, 0, 64, 89
1, 138697, Control_c, 0, 64, 69
1, 138699, Note_on_c, 0, 66, 38
1, 138708, Note_off_c, 0, 83, 56
1, 138712, Control_c, 0, 64, 0
1, 138714, Note_on_c, 0, 85, 69
1, 138730, Note_on_c, 0, 81, 60
1, 138762, Note_on_c, 0, 69, 36
1, 138770, Note_off_c, 0, 81, 62
1, 138780, Control_c, 0, 64, 56
1, 138784, Note_off_c, 0, 66, 58
1, 138789, Note_off_c, 0, 61, 57
1, 138792, Note_off_c, 0, 69, 55
1, 138795, Control_c, 0, 64, 56
1, 138799, Note_off_c, 0, 85, 61
1, 138810, Control_c, 0, 64, 38
1, 138825, Control_c, 0, 64, 16
1, 138840, Control_c, 0, 64, 33
1, 138854, Control_c, 0, 64, 45
1, 138869, Control_c, 0, 64, 48
1, 138873, Note_on_c, 0, 78, 66
1, 138884, Note_on_c, 0, 73, 53
1, 138884, Control_c, 0, 64, 44
1, 138899, Control_c, 0, 64, 40
1, 138902, Note_off_c, 0, 78, 65
1, 138905, Note_off_c, 0, 73, 61
1, 138914, Control_c, 0, 64, 38
1, 138928, Control_c, 0, 64, 37
1, 138943, Control_c, 0, 64, 33
1, 138958, Control_c, 0, 64, 22
1, 138972, Control_c, 0, 64, 0
1, 138990, Note_on_c, 0, 83, 58
1, 139000, Note_on_c, 0, 80, 42
1, 139025, Note_off_c, 0, 80, 58
1, 139058, Note_off_c, 0, 83, 53
1, 139081, Note_on_c, 0, 81, 63
1, 139084, Note_on_c, 0, 78, 60
1, 139103, Note_off_c, 0, 78, 64
1, 139123, Note_off_c, 0, 81, 56
1, 139193, Note_on_c, 0, 49, 47
1, 139210, Note_on_c, 0, 80, 62
1, 139210, Control_c, 0, 64, 48
1, 139214, Note_on_c, 0, 76, 57
1, 139225, Control_c, 0, 64, 69
1, 139231, Note_off_c, 0, 80, 66
1, 139233, Note_off_c, 0, 76, 66
1, 139233, Note_off_c, 0, 49, 61
1, 139239, Control_c, 0, 64, 76
1, 139254, Control_c, 0, 64, 82
1, 139269, Control_c, 0, 64, 85
1, 139284, Control_c, 0, 64, 87
1, 139299, Control_c, 0, 64, 89
1, 139314, Control_c, 0, 64, 91
1, 139328, Control_c, 0, 64, 92
1, 139343, Control_c, 0, 64, 93
1, 139358, Control_c, 0, 64, 94
1, 139387, Control_c, 0, 64, 94
1, 139402, Control_c, 0, 64, 95
1, 139487, Note_on_c, 0, 64, 46
1, 139514, Note_on_c, 0, 80, 64
1, 139535, Note_off_c, 0, 64, 60
1, 139543, Control_c, 0, 64, 93
1, 139545, Note_off_c, 0, 80, 66
1, 139558, Note_on_c, 0, 81, 53
1, 139558, Control_c, 0, 64, 90
1, 139573, Control_c, 0, 64, 83
1, 139588, Control_c, 0, 64, 74
1, 139603, Control_c, 0, 64, 63
1, 139615, Note_on_c, 0, 61, 24
1, 139618, Control_c, 0, 64, 0
1, 139620, Note_on_c, 0, 80, 66
1, 139627, Note_on_c, 0, 68, 50
1, 139630, Note_on_c, 0, 76, 47
1, 139638, Note_on_c, 0, 64, 35
1, 139643, Note_off_c, 0, 81, 61
1, 139651, Note_off_c, 0, 80, 65
1, 139651, Note_off_c, 0, 68, 58
1, 139651, Note_off_c, 0, 76, 55
1, 139658, Note_off_c, 0, 61, 62
1, 139669, Note_off_c, 0, 64, 45
1, 139997, Note_on_c, 0, 79, 57
1, 140000, Note_on_c, 0, 68, 45
1, 140006, Note_on_c, 0, 61, 37
1, 140015, Note_on_c, 0, 75, 34
1, 140017, Control_c, 0, 64, 48
1, 140032, Control_c, 0, 64, 64
1, 140039, Note_off_c, 0, 61, 56
1, 140047, Control_c, 0, 64, 67
1, 140062, Control_c, 0, 64, 69
1, 140077, Control_c, 0, 64, 70
1, 140082, Note_off_c, 0, 68, 40
1, 140092, Control_c, 0, 64, 70
1, 140103, Note_off_c, 0, 75, 40
1, 140107, Control_c, 0, 64, 71
1, 140166, Control_c, 0, 64, 70
1, 140181, Control_c, 0, 64, 68
1, 140195, Control_c, 0, 64, 64
1, 140202, Note_on_c, 0, 80, 58
1, 140210, Control_c, 0, 64, 54
1, 140225, Control_c, 0, 64, 0
1, 140230, Note_on_c, 0, 76, 38
1, 140247, Note_on_c, 0, 64, 39
1, 140248, Note_on_c, 0, 68, 32
1, 140255, Note_off_c, 0, 79, 35
1, 140261, Note_on_c, 0, 73, 26
1, 140500, Control_c, 0, 64, 57
1, 140515, Control_c, 0, 64, 66
1, 140530, Control_c, 0, 64, 69
1, 140544, Control_c, 0, 64, 72
1, 140559, Control_c, 0, 64, 76
1, 140563, Note_off_c, 0, 73, 39
1, 140574, Control_c, 0, 64, 80
1, 140581, Note_off_c, 0, 64, 32
1, 140587, Note_off_c, 0, 68, 39
1, 140589, Control_c, 0, 64, 84
1, 140604, Control_c, 0, 64, 86
1, 140619, Control_c, 0, 64, 87
1, 140634, Control_c, 0, 64, 87
1, 140649, Control_c, 0, 64, 89
1, 140664, Control_c, 0, 64, 91
1, 140679, Control_c, 0, 64, 93
1, 140693, Control_c, 0, 64, 94
1, 140708, Control_c, 0, 64, 95
1, 140723, Control_c, 0, 64, 96
1, 140738, Control_c, 0, 64, 96
1, 140752, Control_c, 0, 64, 97
1, 140767, Control_c, 0, 64, 97
1, 140782, Control_c, 0, 64, 98
1, 140797, Control_c, 0, 64, 98
1, 140812, Control_c, 0, 64, 99
1, 140826, Control_c, 0, 64, 99
1, 140871, Control_c, 0, 64, 100
1, 141176, Note_on_c, 0, 37, 55
1, 141205, Control_c, 0, 64, 99
1, 141220, Control_c, 0, 64, 98
1, 141235, Control_c, 0, 64, 95
1, 141249, Note_on_c, 0, 39, 64
1, 141249, Control_c, 0, 64, 92
1, 141254, Note_off_c, 0, 37, 60
1, 141264, Control_c, 0, 64, 87
1, 141279, Control_c, 0, 64, 82
1, 141294, Control_c, 0, 64, 73
1, 141299, Note_on_c, 0, 40, 71
1, 141299, Note_off_c, 0, 39, 62
1, 141309, Control_c, 0, 64, 64
1, 141312, Note_off_c, 0, 76, 18
1, 141323, Control_c, 0, 64, 0
1, 141386, Note_off_c, 0, 40, 63
1, 141389, Note_on_c, 0, 42, 70
1, 141410, Note_off_c, 0, 80, 61
1, 141541, Note_off_c, 0, 42, 64
1, 141889, Note_on_c, 0, 54, 48
1, 141977, Note_on_c, 0, 57, 36
1, 141989, Note_on_c, 0, 69, 42
1, 142017, Note_on_c, 0, 74, 46
1, 142024, Note_on_c, 0, 62, 32
1, 142060, Note_on_c, 0, 80, 48
1, 142104, Note_on_c, 0, 66, 45
1, 142116, Control_c, 0, 64, 37
1, 142127, Note_on_c, 0, 78, 59
1, 142131, Control_c, 0, 64, 65
1, 142146, Control_c, 0, 64, 70
1, 142161, Control_c, 0, 64, 75
1, 142162, Note_off_c, 0, 80, 53
1, 142176, Control_c, 0, 64, 80
1, 142190, Control_c, 0, 64, 84
1, 142205, Control_c, 0, 64, 87
1, 142220, Control_c, 0, 64, 89
1, 142235, Control_c, 0, 64, 91
1, 142249, Note_off_c, 0, 78, 52
1, 142250, Control_c, 0, 64, 95
1, 142253, Note_off_c, 0, 74, 41
1, 142264, Control_c, 0, 64, 97
1, 142279, Control_c, 0, 64, 99
1, 142294, Control_c, 0, 64, 101
1, 142309, Control_c, 0, 64, 101
1, 142324, Control_c, 0, 64, 102
1, 142338, Control_c, 0, 64, 102
1, 142353, Control_c, 0, 64, 103
1, 142368, Control_c, 0, 64, 103
1, 142412, Control_c, 0, 64, 104
1, 142471, Control_c, 0, 64, 104
1, 142543, Note_on_c, 0, 77, 52
1, 142563, Note_on_c, 0, 73, 21
1, 142599, Note_off_c, 0, 73, 53
1, 142627, Control_c, 0, 64, 104
1, 142657, Control_c, 0, 64, 103
1, 142670, Note_on_c, 0, 78, 58
1, 142671, Control_c, 0, 64, 102
1, 142686, Control_c, 0, 64, 100
1, 142691, Note_on_c, 0, 74, 42
1, 142701, Control_c, 0, 64, 97
1, 142717, Control_c, 0, 64, 93
1, 142726, Note_off_c, 0, 77, 34
1, 142732, Control_c, 0, 64, 86
1, 142747, Control_c, 0, 64, 79
1, 142762, Control_c, 0, 64, 71
1, 142776, Control_c, 0, 64, 57
1, 142791, Control_c, 0, 64, 0
1, 143043, Control_c, 0, 64, 61
1, 143052, Note_off_c, 0, 66, 55
1, 143058, Control_c, 0, 64, 69
1, 143061, Note_off_c, 0, 62, 40
1, 143073, Control_c, 0, 64, 74
1, 143087, Control_c, 0, 64, 79
1, 143102, Control_c, 0, 64, 83
1, 143117, Control_c, 0, 64, 85
1, 143131, Control_c, 0, 64, 87
1, 143146, Control_c, 0, 64, 89
1, 143148, Note_off_c, 0, 57, 35
1, 143161, Control_c, 0, 64, 91
1, 143173, Note_off_c, 0, 54, 51
1, 143176, Control_c, 0, 64, 93
1, 143191, Control_c, 0, 64, 95
1, 143205, Control_c, 0, 64, 96
1, 143220, Control_c, 0, 64, 97
1, 143243, Control_c, 0, 64, 97
1, 143258, Control_c, 0, 64, 98
1, 143273, Control_c, 0, 64, 98
1, 143287, Control_c, 0, 64, 99
1, 143302, Control_c, 0, 64, 99
1, 143317, Control_c, 0, 64, 100
1, 143332, Control_c, 0, 64, 100
1, 143376, Control_c, 0, 64, 101
1, 143443, Note_off_c, 0, 74, 29
1, 143499, Note_off_c, 0, 78, 28
1, 143546, Note_off_c, 0, 69, 32
1, 143672, Note_on_c, 0, 38, 35
1, 143776, Note_on_c, 0, 40, 45
1, 143777, Control_c, 0, 64, 100
1, 143807, Control_c, 0, 64, 100
1, 143815, Note_off_c, 0, 38, 32
1, 143822, Control_c, 0, 64, 98
1, 143836, Control_c, 0, 64, 97
1, 143851, Control_c, 0, 64, 94
1, 143866, Control_c, 0, 64, 90
1, 143881, Control_c, 0, 64, 86
1, 143885, Note_on_c, 0, 42, 54
1, 143896, Control_c, 0, 64, 80
1, 143911, Control_c, 0, 64, 73
1, 143914, Note_off_c, 0, 40, 35
1, 143925, Control_c, 0, 64, 61
1, 143940, Control_c, 0, 64, 0
1, 143973, Note_off_c, 0, 42, 59
1, 143979, Note_on_c, 0, 44, 53
1, 144125, Control_c, 0, 64, 49
1, 144140, Control_c, 0, 64, 67
1, 144155, Control_c, 0, 64, 74
1, 144170, Control_c, 0, 64, 82
1, 144185, Control_c, 0, 64, 86
1, 144200, Control_c, 0, 64, 89
1, 144215, Note_off_c, 0, 44, 61
1, 144215, Control_c, 0, 64, 91
1, 144229, Control_c, 0, 64, 93
1, 144244, Control_c, 0, 64, 94
1, 144259, Control_c, 0, 64, 97
1, 144274, Control_c, 0, 64, 99
1, 144288, Control_c, 0, 64, 100
1, 144303, Control_c, 0, 64, 101
1, 144319, Control_c, 0, 64, 102
1, 144334, Control_c, 0, 64, 103
1, 144349, Control_c, 0, 64, 103
1, 144393, Control_c, 0, 64, 104
1, 144423, Control_c, 0, 64, 104
1, 144482, Control_c, 0, 64, 105
1, 144507, Note_on_c, 0, 66, 42
1, 144556, Note_on_c, 0, 69, 51
1, 144590, Note_on_c, 0, 76, 55
1, 144620, Note_off_c, 0, 66, 38
1, 144667, Note_off_c, 0, 69, 0
1, 144701, Note_on_c, 0, 69, 27
1, 144706, Note_on_c, 0, 74, 63
1, 144711, Note_on_c, 0, 54, 39
1, 144719, Control_c, 0, 64, 104
1, 144727, Note_on_c, 0, 66, 51
1, 144739, Note_on_c, 0, 57, 43
1, 144741, Control_c, 0, 64, 102
1, 144751, Note_on_c, 0, 60, 38
1, 144755, Note_on_c, 0, 62, 37
1, 144756, Control_c, 0, 64, 97
1, 144771, Control_c, 0, 64, 88
1, 144786, Control_c, 0, 64, 77
1, 144800, Control_c, 0, 64, 62
1, 144810, Note_off_c, 0, 76, 48
1, 144815, Control_c, 0, 64, 0
1, 144874, Control_c, 0, 64, 62
1, 144889, Control_c, 0, 64, 68
1, 144904, Control_c, 0, 64, 72
1, 144918, Control_c, 0, 64, 77
1, 144933, Control_c, 0, 64, 83
1, 144948, Control_c, 0, 64, 86
1, 144956, Note_off_c, 0, 66, 36
1, 144963, Control_c, 0, 64, 88
1, 144978, Control_c, 0, 64, 90
1, 144993, Control_c, 0, 64, 91
1, 145007, Control_c, 0, 64, 93
1, 145022, Control_c, 0, 64, 94
1, 145037, Control_c, 0, 64, 95
1, 145052, Control_c, 0, 64, 96
1, 145067, Control_c, 0, 64, 97
1, 145082, Control_c, 0, 64, 98
1, 145097, Control_c, 0, 64, 98
1, 145109, Note_off_c, 0, 69, 39
1, 145112, Control_c, 0, 64, 99
1, 145127, Control_c, 0, 64, 99
1, 145150, Note_off_c, 0, 74, 38
1, 145156, Control_c, 0, 64, 100
1, 145168, Note_on_c, 0, 73, 64
1, 145182, Note_on_c, 0, 69, 24
1, 145206, Note_on_c, 0, 65, 17
1, 145249, Note_off_c, 0, 65, 39
1, 145333, Control_c, 0, 64, 99
1, 145344, Note_on_c, 0, 74, 56
1, 145348, Control_c, 0, 64, 98
1, 145355, Note_on_c, 0, 66, 47
1, 145363, Control_c, 0, 64, 95
1, 145378, Control_c, 0, 64, 91
1, 145393, Control_c, 0, 64, 86
1, 145407, Note_off_c, 0, 73, 52
1, 145407, Control_c, 0, 64, 79
1, 145422, Control_c, 0, 64, 71
1, 145437, Control_c, 0, 64, 59
1, 145452, Control_c, 0, 64, 0
1, 145771, Control_c, 0, 64, 55
1, 145786, Control_c, 0, 64, 68
1, 145800, Control_c, 0, 64, 73
1, 145815, Control_c, 0, 64, 77
1, 145830, Control_c, 0, 64, 80
1, 145845, Control_c, 0, 64, 82
1, 145860, Control_c, 0, 64, 85
1, 145875, Control_c, 0, 64, 87
1, 145888, Note_off_c, 0, 66, 42
1, 145889, Control_c, 0, 64, 90
1, 145894, Note_off_c, 0, 69, 38
1, 145905, Control_c, 0, 64, 92
1, 145920, Control_c, 0, 64, 93
1, 145935, Control_c, 0, 64, 94
1, 145949, Control_c, 0, 64, 96
1, 145964, Control_c, 0, 64, 97
1, 145979, Control_c, 0, 64, 98
1, 145994, Control_c, 0, 64, 99
1, 146009, Control_c, 0, 64, 100
1, 146017, Note_off_c, 0, 74, 37
1, 146024, Control_c, 0, 64, 100
1, 146038, Control_c, 0, 64, 101
1, 146053, Control_c, 0, 64, 101
1, 146068, Note_off_c, 0, 60, 36
1, 146068, Control_c, 0, 64, 102
1, 146072, Note_off_c, 0, 62, 35
1, 146081, Note_off_c, 0, 57, 38
1, 146098, Control_c, 0, 64, 102
1, 146115, Note_off_c, 0, 54, 30
1, 146127, Control_c, 0, 64, 103
1, 146283, Control_c, 0, 64, 103
1, 146352, Note_on_c, 0, 73, 46
1, 146379, Note_on_c, 0, 64, 25
1, 146451, Note_off_c, 0, 64, 39
1, 146496, Note_off_c, 0, 73, 32
1, 146608, Control_c, 0, 64, 103
1, 146632, Note_on_c, 0, 73, 53
1, 146653, Control_c, 0, 64, 102
1, 146656, Note_on_c, 0, 45, 34
1, 146668, Control_c, 0, 64, 100
1, 146680, Note_on_c, 0, 64, 33
1, 146682, Control_c, 0, 64, 96
1, 146697, Control_c, 0, 64, 89
1, 146713, Control_c, 0, 64, 79
1, 146728, Control_c, 0, 64, 65
1, 146742, Control_c, 0, 64, 0
1, 146817, Control_c, 0, 64, 63
1, 146832, Control_c, 0, 64, 71
1, 146847, Control_c, 0, 64, 81
1, 146861, Control_c, 0, 64, 88
1, 146876, Control_c, 0, 64, 92
1, 146891, Control_c, 0, 64, 94
1, 146892, Note_off_c, 0, 45, 42
1, 146906, Control_c, 0, 64, 97
1, 146921, Control_c, 0, 64, 101
1, 146935, Control_c, 0, 64, 104
1, 146947, Note_off_c, 0, 73, 35
1, 146948, Note_off_c, 0, 64, 35
1, 146950, Control_c, 0, 64, 107
1, 146965, Control_c, 0, 64, 110
1, 146987, Control_c, 0, 64, 112
1, 147002, Control_c, 0, 64, 113
1, 147017, Control_c, 0, 64, 114
1, 147032, Control_c, 0, 64, 117
1, 147046, Control_c, 0, 64, 119
1, 147061, Control_c, 0, 64, 121
1, 147076, Control_c, 0, 64, 122
1, 147091, Control_c, 0, 64, 123
1, 147105, Control_c, 0, 64, 124
1, 147120, Control_c, 0, 64, 126
1, 147135, Control_c, 0, 64, 127
1, 147414, Note_on_c, 0, 73, 63
1, 147443, Note_on_c, 0, 61, 31
1, 147448, Note_on_c, 0, 57, 30
1, 147448, Note_on_c, 0, 69, 38
1, 147469, Note_on_c, 0, 64, 13
1, 147472, Note_on_c, 0, 52, 21
1, 147502, Note_off_c, 0, 69, 62
1, 147574, Note_off_c, 0, 52, 53
1, 147598, Note_off_c, 0, 64, 40
1, 147666, Note_off_c, 0, 57, 40
1, 147744, Note_off_c, 0, 61, 29
1, 147929, Note_on_c, 0, 49, 46
1, 147959, Control_c, 0, 64, 121
1, 147973, Control_c, 0, 64, 109
1, 147988, Control_c, 0, 64, 95
1, 148003, Control_c, 0, 64, 80
1, 148018, Control_c, 0, 64, 62
1, 148033, Control_c, 0, 64, 0
1, 148050, Note_on_c, 0, 72, 61
1, 148053, Note_on_c, 0, 68, 47
1, 148078, Control_c, 0, 64, 61
1, 148083, Note_off_c, 0, 73, 55
1, 148092, Control_c, 0, 64, 71
1, 148096, Note_off_c, 0, 49, 57
1, 148107, Note_off_c, 0, 68, 56
1, 148107, Control_c, 0, 64, 78
1, 148122, Control_c, 0, 64, 84
1, 148136, Control_c, 0, 64, 88
1, 148146, Note_off_c, 0, 72, 61
1, 148151, Control_c, 0, 64, 91
1, 148166, Control_c, 0, 64, 93
1, 148181, Control_c, 0, 64, 97
1, 148194, Note_on_c, 0, 73, 78
1, 148196, Control_c, 0, 64, 101
1, 148204, Note_on_c, 0, 69, 57
1, 148210, Control_c, 0, 64, 103
1, 148225, Control_c, 0, 64, 105
1, 148233, Note_off_c, 0, 69, 66
1, 148240, Control_c, 0, 64, 106
1, 148255, Control_c, 0, 64, 107
1, 148270, Control_c, 0, 64, 109
1, 148284, Control_c, 0, 64, 110
1, 148299, Control_c, 0, 64, 111
1, 148315, Control_c, 0, 64, 112
1, 148316, Note_on_c, 0, 75, 73
1, 148330, Control_c, 0, 64, 112
1, 148340, Note_on_c, 0, 71, 57
1, 148349, Note_off_c, 0, 73, 61
1, 148359, Control_c, 0, 64, 113
1, 148367, Note_off_c, 0, 71, 58
1, 148374, Control_c, 0, 64, 113
1, 148423, Note_on_c, 0, 52, 16
1, 148471, Note_on_c, 0, 57, 18
1, 148501, Control_c, 0, 64, 112
1, 148515, Control_c, 0, 64, 102
1, 148530, Control_c, 0, 64, 87
1, 148534, Note_on_c, 0, 61, 46
1, 148534, Note_on_c, 0, 76, 70
1, 148545, Control_c, 0, 64, 70
1, 148549, Note_on_c, 0, 73, 60
1, 148559, Control_c, 0, 64, 0
1, 148564, Note_off_c, 0, 75, 37
1, 148604, Control_c, 0, 64, 51
1, 148610, Note_off_c, 0, 73, 56
1, 148619, Control_c, 0, 64, 66
1, 148622, Note_off_c, 0, 76, 65
1, 148633, Control_c, 0, 64, 70
1, 148648, Control_c, 0, 64, 71
1, 148707, Note_on_c, 0, 69, 67
1, 148719, Note_on_c, 0, 64, 51
1, 148725, Note_off_c, 0, 61, 56
1, 148731, Note_off_c, 0, 57, 39
1, 148743, Note_off_c, 0, 64, 59
1, 148769, Note_off_c, 0, 69, 63
1, 148781, Control_c, 0, 64, 70
1, 148785, Note_off_c, 0, 52, 51
1, 148796, Control_c, 0, 64, 69
1, 148811, Control_c, 0, 64, 67
1, 148826, Control_c, 0, 64, 65
1, 148841, Control_c, 0, 64, 62
1, 148844, Note_on_c, 0, 75, 60
1, 148853, Note_on_c, 0, 71, 42
1, 148856, Control_c, 0, 64, 55
1, 148871, Control_c, 0, 64, 46
1, 148878, Note_off_c, 0, 71, 57
1, 148885, Control_c, 0, 64, 18
1, 148896, Note_off_c, 0, 75, 53
1, 148900, Control_c, 0, 64, 0
1, 148953, Note_on_c, 0, 73, 67
1, 148960, Note_on_c, 0, 69, 59
1, 148990, Note_off_c, 0, 69, 66
1, 149032, Note_off_c, 0, 73, 57
1, 149118, Note_on_c, 0, 71, 64
1, 149133, Note_on_c, 0, 40, 40
1, 149136, Note_on_c, 0, 68, 53
1, 149138, Control_c, 0, 64, 28
1, 149153, Control_c, 0, 64, 66
1, 149168, Control_c, 0, 64, 74
1, 149175, Note_off_c, 0, 68, 56
1, 149182, Control_c, 0, 64, 82
1, 149186, Note_off_c, 0, 71, 59
1, 149197, Control_c, 0, 64, 88
1, 149212, Control_c, 0, 64, 91
1, 149230, Note_off_c, 0, 40, 57
1, 149234, Control_c, 0, 64, 94
1, 149249, Control_c, 0, 64, 96
1, 149264, Control_c, 0, 64, 99
1, 149279, Control_c, 0, 64, 101
1, 149294, Control_c, 0, 64, 103
1, 149309, Control_c, 0, 64, 104
1, 149324, Control_c, 0, 64, 105
1, 149338, Control_c, 0, 64, 106
1, 149353, Control_c, 0, 64, 107
1, 149368, Control_c, 0, 64, 108
1, 149382, Control_c, 0, 64, 109
1, 149427, Control_c, 0, 64, 109
1, 149518, Note_on_c, 0, 71, 52
1, 149550, Note_off_c, 0, 71, 63
1, 149565, Note_on_c, 0, 73, 57
1, 149628, Note_on_c, 0, 71, 69
1, 149631, Note_on_c, 0, 68, 65
1, 149633, Control_c, 0, 64, 108
1, 149640, Note_on_c, 0, 52, 45
1, 149648, Control_c, 0, 64, 103
1, 149652, Note_on_c, 0, 56, 40
1, 149652, Note_on_c, 0, 59, 42
1, 149662, Control_c, 0, 64, 93
1, 149677, Control_c, 0, 64, 80
1, 149682, Note_off_c, 0, 73, 53
1, 149692, Control_c, 0, 64, 63
1, 149706, Control_c, 0, 64, 0
1, 149751, Control_c, 0, 64, 43
1, 149766, Control_c, 0, 64, 66
1, 149780, Control_c, 0, 64, 71
1, 149789, Note_off_c, 0, 68, 50
1, 149795, Control_c, 0, 64, 76
1, 149810, Control_c, 0, 64, 81
1, 149825, Control_c, 0, 64, 84
1, 149840, Control_c, 0, 64, 86
1, 149854, Control_c, 0, 64, 88
1, 149866, Note_off_c, 0, 71, 37
1, 149869, Control_c, 0, 64, 90
1, 149884, Control_c, 0, 64, 91
1, 149900, Control_c, 0, 64, 93
1, 149915, Control_c, 0, 64, 94
1, 149929, Control_c, 0, 64, 95
1, 149944, Control_c, 0, 64, 96
1, 149959, Control_c, 0, 64, 96
1, 149982, Control_c, 0, 64, 97
1, 150011, Control_c, 0, 64, 97
1, 150047, Note_on_c, 0, 70, 55
1, 150051, Note_on_c, 0, 67, 45
1, 150144, Control_c, 0, 64, 97
1, 150145, Note_off_c, 0, 67, 53
1, 150159, Control_c, 0, 64, 96
1, 150174, Control_c, 0, 64, 93
1, 150189, Control_c, 0, 64, 89
1, 150193, Note_on_c, 0, 71, 47
1, 150203, Control_c, 0, 64, 84
1, 150206, Note_on_c, 0, 68, 48
1, 150218, Control_c, 0, 64, 79
1, 150233, Control_c, 0, 64, 73
1, 150248, Control_c, 0, 64, 64
1, 150263, Note_off_c, 0, 70, 36
1, 150263, Control_c, 0, 64, 0
1, 150293, Note_off_c, 0, 59, 34
1, 150305, Note_off_c, 0, 56, 32
1, 150336, Note_off_c, 0, 52, 54
1, 150354, Note_off_c, 0, 68, 47
1, 150365, Note_off_c, 0, 71, 59
1, 150948, Note_on_c, 0, 68, 44
1, 150951, Note_on_c, 0, 73, 47
1, 150967, Note_on_c, 0, 41, 23
1, 150978, Note_on_c, 0, 56, 26
1, 151005, Note_on_c, 0, 49, 12
1, 151013, Control_c, 0, 64, 46
1, 151020, Poly_aftertouch_c, 0, 61, 127
1, 151027, Control_c, 0, 64, 56
1, 151042, Control_c, 0, 64, 60
1, 151057, Control_c, 0, 64, 64
1, 151072, Control_c, 0, 64, 67
1, 151087, Control_c, 0, 64, 70
1, 151101, Control_c, 0, 64, 74
1, 151116, Control_c, 0, 64, 79
1, 151131, Control_c, 0, 64, 82
1, 151144, Note_off_c, 0, 68, 35
1, 151146, Control_c, 0, 64, 84
1, 151160, Control_c, 0, 64, 86
1, 151172, Note_off_c, 0, 56, 36
1, 151175, Control_c, 0, 64, 88
1, 151190, Control_c, 0, 64, 90
1, 151191, Poly_aftertouch_c, 0, 61, 0
1, 151201, Note_off_c, 0, 49, 37
1, 151205, Control_c, 0, 64, 93
1, 151220, Control_c, 0, 64, 95
1, 151235, Control_c, 0, 64, 96
1, 151250, Control_c, 0, 64, 98
1, 151264, Control_c, 0, 64, 99
1, 151279, Control_c, 0, 64, 101
1, 151292, Note_off_c, 0, 73, 29
1, 151294, Control_c, 0, 64, 102
1, 151303, Note_off_c, 0, 41, 42
1, 151309, Control_c, 0, 64, 103
1, 151324, Control_c, 0, 64, 103
1, 151339, Control_c, 0, 64, 104
1, 151353, Control_c, 0, 64, 104
1, 151398, Control_c, 0, 64, 105
1, 151828, Note_on_c, 0, 30, 32
1, 151834, Note_on_c, 0, 69, 49
1, 151836, Control_c, 0, 64, 104
1, 151849, Control_c, 0, 64, 101
1, 151864, Control_c, 0, 64, 95
1, 151871, Note_on_c, 0, 66, 33
1, 151879, Control_c, 0, 64, 87
1, 151894, Control_c, 0, 64, 76
1, 151908, Control_c, 0, 64, 53
1, 151912, Poly_aftertouch_c, 0, 61, 127
1, 151923, Control_c, 0, 64, 0
1, 151968, Control_c, 0, 64, 30
1, 151983, Control_c, 0, 64, 65
1, 151998, Control_c, 0, 64, 74
1, 152013, Control_c, 0, 64, 84
1, 152028, Control_c, 0, 64, 90
1, 152033, Poly_aftertouch_c, 0, 61, 0
1, 152042, Control_c, 0, 64, 94
1, 152051, Note_off_c, 0, 69, 58
1, 152057, Control_c, 0, 64, 97
1, 152066, Note_off_c, 0, 66, 39
1, 152072, Control_c, 0, 64, 102
1, 152080, Note_off_c, 0, 30, 41
1, 152087, Control_c, 0, 64, 107
1, 152101, Control_c, 0, 64, 114
1, 152116, Control_c, 0, 64, 119
1, 152131, Control_c, 0, 64, 123
1, 152146, Control_c, 0, 64, 127
1, 152579, Note_on_c, 0, 69, 65
1, 152622, Note_on_c, 0, 61, 34
1, 152637, Note_on_c, 0, 49, 32
1, 152643, Note_on_c, 0, 57, 24
1, 152668, Note_on_c, 0, 54, 10
1, 152713, Note_off_c, 0, 61, 51
1, 152784, Note_off_c, 0, 57, 35
1, 152786, Note_off_c, 0, 54, 34
1, 152801, Note_off_c, 0, 49, 41
1, 153122, Note_on_c, 0, 33, 41
1, 153140, Control_c, 0, 64, 114
1, 153154, Control_c, 0, 64, 93
1, 153169, Control_c, 0, 64, 73
1, 153184, Control_c, 0, 64, 0
1, 153229, Control_c, 0, 64, 56
1, 153237, Note_on_c, 0, 68, 62
1, 153244, Control_c, 0, 64, 70
1, 153259, Control_c, 0, 64, 81
1, 153274, Control_c, 0, 64, 86
1, 153276, Note_off_c, 0, 69, 46
1, 153285, Note_off_c, 0, 33, 40
1, 153288, Control_c, 0, 64, 89
1, 153301, Poly_aftertouch_c, 0, 65, 127
1, 153303, Control_c, 0, 64, 91
1, 153315, Note_off_c, 0, 68, 61
1, 153318, Control_c, 0, 64, 95
1, 153326, Poly_aftertouch_c, 0, 65, 0
1, 153333, Control_c, 0, 64, 100
1, 153347, Control_c, 0, 64, 105
1, 153362, Control_c, 0, 64, 108
1, 153377, Control_c, 0, 64, 110
1, 153384, Note_on_c, 0, 69, 68
1, 153390, Note_on_c, 0, 66, 50
1, 153392, Control_c, 0, 64, 111
1, 153407, Control_c, 0, 64, 113
1, 153417, Note_off_c, 0, 66, 59
1, 153421, Control_c, 0, 64, 115
1, 153436, Control_c, 0, 64, 117
1, 153451, Control_c, 0, 64, 118
1, 153465, Control_c, 0, 64, 118
1, 153480, Control_c, 0, 64, 119
1, 153495, Control_c, 0, 64, 120
1, 153503, Note_on_c, 0, 68, 65
1, 153503, Note_on_c, 0, 71, 63
1, 153509, Note_off_c, 0, 69, 58
1, 153510, Control_c, 0, 64, 120
1, 153544, Note_off_c, 0, 68, 57
1, 153578, Note_on_c, 0, 45, 8
1, 153628, Control_c, 0, 64, 118
1, 153634, Note_on_c, 0, 49, 42
1, 153643, Control_c, 0, 64, 110
1, 153658, Control_c, 0, 64, 99
1, 153673, Control_c, 0, 64, 86
1, 153684, Note_off_c, 0, 71, 54
1, 153688, Control_c, 0, 64, 72
1, 153691, Note_on_c, 0, 54, 29
1, 153693, Note_on_c, 0, 73, 63
1, 153703, Control_c, 0, 64, 14
1, 153704, Note_on_c, 0, 69, 56
1, 153725, Control_c, 0, 64, 0
1, 153736, Note_off_c, 0, 45, 22
1, 153757, Note_on_c, 0, 57, 13
1, 153757, Note_off_c, 0, 54, 0
1, 153761, Note_off_c, 0, 69, 62
1, 153769, Control_c, 0, 64, 49
1, 153784, Control_c, 0, 64, 65
1, 153788, Note_off_c, 0, 73, 58
1, 153795, Poly_aftertouch_c, 0, 54, 127
1, 153799, Control_c, 0, 64, 70
1, 153814, Control_c, 0, 64, 73
1, 153828, Control_c, 0, 64, 76
1, 153843, Control_c, 0, 64, 77
1, 153844, Note_off_c, 0, 57, 36
1, 153858, Control_c, 0, 64, 78
1, 153867, Note_on_c, 0, 61, 57
1, 153869, Note_on_c, 0, 66, 61
1, 153873, Control_c, 0, 64, 79
1, 153876, Poly_aftertouch_c, 0, 54, 0
1, 153894, Note_off_c, 0, 49, 39
1, 153897, Note_off_c, 0, 66, 60
1, 153902, Note_off_c, 0, 61, 63
1, 153993, Note_on_c, 0, 68, 56
1, 153999, Note_on_c, 0, 71, 55
1, 154026, Note_off_c, 0, 68, 51
1, 154038, Control_c, 0, 64, 79
1, 154046, Note_off_c, 0, 71, 52
1, 154052, Control_c, 0, 64, 77
1, 154067, Control_c, 0, 64, 74
1, 154082, Control_c, 0, 64, 68
1, 154097, Control_c, 0, 64, 60
1, 154108, Note_on_c, 0, 69, 59
1, 154112, Control_c, 0, 64, 0
1, 154113, Note_on_c, 0, 66, 51
1, 154143, Note_off_c, 0, 66, 59
1, 154166, Note_off_c, 0, 69, 58
1, 154275, Note_on_c, 0, 37, 34
1, 154284, Note_on_c, 0, 68, 54
1, 154289, Note_on_c, 0, 64, 51
1, 154320, Control_c, 0, 64, 61
1, 154334, Note_off_c, 0, 68, 58
1, 154335, Control_c, 0, 64, 70
1, 154338, Note_off_c, 0, 64, 61
1, 154350, Control_c, 0, 64, 76
1, 154364, Control_c, 0, 64, 81
1, 154379, Control_c, 0, 64, 84
1, 154394, Control_c, 0, 64, 87
1, 154402, Note_off_c, 0, 37, 52
1, 154409, Control_c, 0, 64, 90
1, 154424, Control_c, 0, 64, 93
1, 154438, Control_c, 0, 64, 94
1, 154453, Control_c, 0, 64, 96
1, 154475, Control_c, 0, 64, 97
1, 154490, Control_c, 0, 64, 98
1, 154505, Control_c, 0, 64, 98
1, 154520, Control_c, 0, 64, 99
1, 154534, Control_c, 0, 64, 100
1, 154549, Control_c, 0, 64, 100
1, 154564, Control_c, 0, 64, 101
1, 154594, Control_c, 0, 64, 101
1, 154639, Control_c, 0, 64, 102
1, 154694, Note_on_c, 0, 68, 55
1, 154731, Note_off_c, 0, 68, 62
1, 154747, Note_on_c, 0, 69, 57
1, 154817, Control_c, 0, 64, 101
1, 154827, Note_on_c, 0, 68, 64
1, 154832, Control_c, 0, 64, 100
1, 154839, Note_on_c, 0, 64, 47
1, 154847, Note_on_c, 0, 56, 37
1, 154847, Control_c, 0, 64, 96
1, 154851, Note_on_c, 0, 49, 40
1, 154856, Note_on_c, 0, 52, 40
1, 154862, Control_c, 0, 64, 89
1, 154876, Control_c, 0, 64, 75
1, 154891, Control_c, 0, 64, 56
1, 154906, Control_c, 0, 64, 0
1, 154922, Note_off_c, 0, 69, 38
1, 154950, Note_off_c, 0, 64, 54
1, 154994, Control_c, 0, 64, 41
1, 155009, Control_c, 0, 64, 65
1, 155024, Control_c, 0, 64, 70
1, 155025, Note_off_c, 0, 68, 52
1, 155039, Control_c, 0, 64, 74
1, 155054, Control_c, 0, 64, 77
1, 155068, Control_c, 0, 64, 80
1, 155083, Control_c, 0, 64, 82
1, 155098, Control_c, 0, 64, 84
1, 155113, Control_c, 0, 64, 85
1, 155128, Control_c, 0, 64, 85
1, 155157, Control_c, 0, 64, 86
1, 155269, Control_c, 0, 64, 86
1, 155357, Note_on_c, 0, 67, 52
1, 155363, Note_on_c, 0, 63, 38
1, 155473, Note_off_c, 0, 63, 41
1, 155491, Control_c, 0, 64, 86
1, 155506, Control_c, 0, 64, 85
1, 155521, Control_c, 0, 64, 84
1, 155536, Control_c, 0, 64, 82
1, 155550, Note_on_c, 0, 68, 51
1, 155551, Control_c, 0, 64, 79
1, 155566, Control_c, 0, 64, 75
1, 155570, Note_on_c, 0, 64, 44
1, 155581, Control_c, 0, 64, 70
1, 155587, Note_off_c, 0, 67, 29
1, 155595, Control_c, 0, 64, 63
1, 155596, Note_off_c, 0, 52, 36
1, 155610, Control_c, 0, 64, 39
1, 155624, Control_c, 0, 64, 0
1, 155639, Control_c, 0, 64, 30
1, 155654, Control_c, 0, 64, 37
1, 155658, Note_off_c, 0, 56, 36
1, 155669, Control_c, 0, 64, 39
1, 155685, Note_off_c, 0, 49, 35
1, 155728, Control_c, 0, 64, 37
1, 155742, Control_c, 0, 64, 36
1, 155757, Control_c, 0, 64, 34
1, 155772, Control_c, 0, 64, 32
1, 155787, Control_c, 0, 64, 30
1, 155816, Control_c, 0, 64, 28
1, 155831, Control_c, 0, 64, 22
1, 155846, Control_c, 0, 64, 14
1, 155861, Control_c, 0, 64, 0
1, 156780, Control_c, 0, 64, 11
1, 156810, Control_c, 0, 64, 14
1, 156825, Control_c, 0, 64, 16
1, 156840, Control_c, 0, 64, 18
1, 156854, Control_c, 0, 64, 20
1, 156861, Note_on_c, 0, 37, 50
1, 156869, Control_c, 0, 64, 22
1, 156884, Control_c, 0, 64, 25
1, 156898, Control_c, 0, 64, 26
1, 156913, Control_c, 0, 64, 27
1, 156927, Note_off_c, 0, 64, 37
1, 156928, Control_c, 0, 64, 29
1, 156943, Control_c, 0, 64, 30
1, 156958, Control_c, 0, 64, 32
1, 156973, Control_c, 0, 64, 35
1, 156988, Control_c, 0, 64, 37
1, 157003, Control_c, 0, 64, 37
1, 157011, Note_off_c, 0, 68, 38
1, 157032, Control_c, 0, 64, 37
1, 157077, Control_c, 0, 64, 36
1, 157079, Note_on_c, 0, 38, 62
1, 157093, Control_c, 0, 64, 34
1, 157095, Note_off_c, 0, 37, 61
1, 157108, Control_c, 0, 64, 34
1, 157152, Control_c, 0, 64, 33
1, 157167, Control_c, 0, 64, 30
1, 157182, Control_c, 0, 64, 29
1, 157210, Note_on_c, 0, 40, 76
1, 157226, Control_c, 0, 64, 28
1, 157238, Note_off_c, 0, 38, 56
1, 157241, Control_c, 0, 64, 25
1, 157256, Control_c, 0, 64, 20
1, 157271, Control_c, 0, 64, 14
1, 157286, Control_c, 0, 64, 0
1, 157348, Note_on_c, 0, 30, 78
1, 157351, Note_off_c, 0, 40, 54
1, 157604, Control_c, 0, 64, 49
1, 157619, Control_c, 0, 64, 68
1, 157634, Control_c, 0, 64, 77
1, 157648, Control_c, 0, 64, 87
1, 157663, Control_c, 0, 64, 93
1, 157678, Control_c, 0, 64, 97
1, 157688, Note_off_c, 0, 30, 62
1, 157693, Control_c, 0, 64, 101
1, 157708, Control_c, 0, 64, 107
1, 157722, Control_c, 0, 64, 113
1, 157737, Control_c, 0, 64, 119
1, 157752, Control_c, 0, 64, 127
1, 157991, Note_on_c, 0, 42, 58
1, 158028, Note_on_c, 0, 45, 55
1, 158057, Note_on_c, 0, 57, 54
1, 158089, Note_on_c, 0, 62, 53
1, 158098, Note_on_c, 0, 50, 37
1, 158129, Note_on_c, 0, 68, 53
1, 158174, Note_on_c, 0, 54, 53
1, 158198, Note_on_c, 0, 66, 68
1, 158234, Control_c, 0, 64, 112
1, 158249, Control_c, 0, 64, 101
1, 158264, Control_c, 0, 64, 89
1, 158278, Control_c, 0, 64, 75
1, 158293, Control_c, 0, 64, 49
1, 158304, Note_off_c, 0, 68, 38
1, 158308, Control_c, 0, 64, 0
1, 158371, Note_off_c, 0, 62, 52
1, 158392, Note_off_c, 0, 66, 59
1, 158398, Control_c, 0, 64, 64
1, 158413, Control_c, 0, 64, 72
1, 158427, Control_c, 0, 64, 81
1, 158442, Control_c, 0, 64, 86
1, 158457, Control_c, 0, 64, 89
1, 158471, Control_c, 0, 64, 92
1, 158486, Control_c, 0, 64, 96
1, 158501, Control_c, 0, 64, 99
1, 158516, Control_c, 0, 64, 103
1, 158531, Control_c, 0, 64, 105
1, 158545, Control_c, 0, 64, 106
1, 158560, Control_c, 0, 64, 108
1, 158575, Control_c, 0, 64, 109
1, 158590, Control_c, 0, 64, 111
1, 158605, Control_c, 0, 64, 112
1, 158619, Control_c, 0, 64, 113
1, 158649, Control_c, 0, 64, 114
1, 158694, Note_on_c, 0, 65, 55
1, 158696, Note_on_c, 0, 61, 37
1, 158738, Note_off_c, 0, 61, 62
1, 158798, Control_c, 0, 64, 113
1, 158813, Control_c, 0, 64, 109
1, 158819, Note_on_c, 0, 66, 57
1, 158828, Control_c, 0, 64, 105
1, 158841, Note_on_c, 0, 62, 44
1, 158842, Control_c, 0, 64, 101
1, 158857, Control_c, 0, 64, 96
1, 158871, Note_off_c, 0, 65, 37
1, 158872, Control_c, 0, 64, 90
1, 158887, Control_c, 0, 64, 84
1, 158901, Control_c, 0, 64, 76
1, 158916, Control_c, 0, 64, 67
1, 158931, Control_c, 0, 64, 0
1, 159280, Control_c, 0, 64, 51
1, 159294, Control_c, 0, 64, 68
1, 159309, Control_c, 0, 64, 74
1, 159324, Control_c, 0, 64, 80
1, 159339, Control_c, 0, 64, 83
1, 159344, Note_off_c, 0, 50, 35
1, 159354, Control_c, 0, 64, 85
1, 159368, Control_c, 0, 64, 88
1, 159383, Control_c, 0, 64, 92
1, 159398, Control_c, 0, 64, 95
1, 159413, Control_c, 0, 64, 97
1, 159422, Note_off_c, 0, 54, 32
1, 159428, Control_c, 0, 64, 99
1, 159442, Control_c, 0, 64, 101
1, 159457, Control_c, 0, 64, 102
1, 159471, Note_off_c, 0, 45, 32
1, 159472, Control_c, 0, 64, 104
1, 159488, Control_c, 0, 64, 105
1, 159503, Control_c, 0, 64, 107
1, 159517, Note_off_c, 0, 42, 38
1, 159517, Control_c, 0, 64, 108
1, 159532, Control_c, 0, 64, 110
1, 159547, Control_c, 0, 64, 111
1, 159591, Control_c, 0, 64, 112
1, 159606, Control_c, 0, 64, 112
1, 159780, Note_off_c, 0, 62, 16
1, 159863, Note_off_c, 0, 66, 18
1, 160075, Note_off_c, 0, 57, 21
1, 160140, Note_on_c, 0, 38, 43
1, 160162, Control_c, 0, 64, 112
1, 160177, Control_c, 0, 64, 111
1, 160191, Control_c, 0, 64, 109
1, 160206, Control_c, 0, 64, 107
1, 160221, Control_c, 0, 64, 105
1, 160235, Control_c, 0, 64, 101
1, 160250, Control_c, 0, 64, 98
1, 160265, Control_c, 0, 64, 94
1, 160280, Control_c, 0, 64, 89
1, 160296, Control_c, 0, 64, 84
1, 160311, Control_c, 0, 64, 78
1, 160326, Control_c, 0, 64, 69
1, 160340, Control_c, 0, 64, 49
1, 160355, Control_c, 0, 64, 0
1, 160376, Note_on_c, 0, 40, 51
1, 160408, Note_off_c, 0, 38, 38
1, 160530, Note_on_c, 0, 42, 48
1, 160673, Note_off_c, 0, 40, 35
1, 160677, Note_on_c, 0, 32, 59
1, 160708, Note_off_c, 0, 42, 52
1, 160940, Control_c, 0, 64, 64
1, 160955, Control_c, 0, 64, 71
1, 160970, Control_c, 0, 64, 76
1, 160985, Control_c, 0, 64, 82
1, 161000, Control_c, 0, 64, 85
1, 161014, Control_c, 0, 64, 88
1, 161029, Control_c, 0, 64, 90
1, 161044, Control_c, 0, 64, 94
1, 161058, Control_c, 0, 64, 97
1, 161073, Control_c, 0, 64, 100
1, 161089, Control_c, 0, 64, 103
1, 161104, Control_c, 0, 64, 108
1, 161119, Control_c, 0, 64, 112
1, 161134, Control_c, 0, 64, 116
1, 161140, Note_off_c, 0, 32, 61
1, 161149, Control_c, 0, 64, 119
1, 161163, Control_c, 0, 64, 122
1, 161178, Control_c, 0, 64, 125
1, 161193, Control_c, 0, 64, 127
1, 161604, Note_on_c, 0, 59, 62
1, 161628, Note_on_c, 0, 57, 58
1, 161632, Note_on_c, 0, 54, 58
1, 161649, Note_on_c, 0, 42, 47
1, 161652, Note_on_c, 0, 50, 57
1, 161653, Note_on_c, 0, 45, 53
1, 161657, Note_on_c, 0, 48, 52
1, 161674, Control_c, 0, 64, 119
1, 161689, Control_c, 0, 64, 110
1, 161704, Control_c, 0, 64, 103
1, 161718, Control_c, 0, 64, 95
1, 161733, Control_c, 0, 64, 86
1, 161740, Note_off_c, 0, 59, 55
1, 161748, Control_c, 0, 64, 76
1, 161763, Control_c, 0, 64, 61
1, 161778, Control_c, 0, 64, 0
1, 161993, Control_c, 0, 64, 64
1, 162008, Control_c, 0, 64, 71
1, 162023, Control_c, 0, 64, 78
1, 162038, Control_c, 0, 64, 82
1, 162053, Control_c, 0, 64, 85
1, 162067, Control_c, 0, 64, 88
1, 162082, Control_c, 0, 64, 91
1, 162097, Control_c, 0, 64, 93
1, 162112, Control_c, 0, 64, 95
1, 162127, Control_c, 0, 64, 96
1, 162142, Control_c, 0, 64, 97
1, 162157, Control_c, 0, 64, 99
1, 162172, Control_c, 0, 64, 100
1, 162184, Note_off_c, 0, 54, 35
1, 162186, Control_c, 0, 64, 101
1, 162194, Note_off_c, 0, 57, 37
1, 162201, Control_c, 0, 64, 102
1, 162216, Control_c, 0, 64, 103
1, 162260, Control_c, 0, 64, 104
1, 162285, Note_on_c, 0, 56, 64
1, 162291, Note_on_c, 0, 53, 57
1, 162374, Note_off_c, 0, 53, 58
1, 162377, Control_c, 0, 64, 103
1, 162392, Control_c, 0, 64, 103
1, 162407, Control_c, 0, 64, 100
1, 162413, Note_on_c, 0, 57, 60
1, 162422, Control_c, 0, 64, 96
1, 162425, Note_on_c, 0, 54, 63
1, 162436, Control_c, 0, 64, 90
1, 162449, Note_off_c, 0, 56, 58
1, 162451, Control_c, 0, 64, 84
1, 162466, Control_c, 0, 64, 76
1, 162481, Control_c, 0, 64, 67
1, 162496, Control_c, 0, 64, 0
1, 163348, Control_c, 0, 64, 28
1, 163363, Control_c, 0, 64, 46
1, 163378, Control_c, 0, 64, 53
1, 163393, Control_c, 0, 64, 59
1, 163407, Control_c, 0, 64, 62
1, 163422, Control_c, 0, 64, 65
1, 163437, Control_c, 0, 64, 68
1, 163459, Control_c, 0, 64, 71
1, 163474, Control_c, 0, 64, 75
1, 163489, Control_c, 0, 64, 79
1, 163504, Control_c, 0, 64, 81
1, 163519, Control_c, 0, 64, 83
1, 163534, Control_c, 0, 64, 84
1, 163549, Control_c, 0, 64, 86
1, 163564, Control_c, 0, 64, 88
1, 163579, Control_c, 0, 64, 90
1, 163593, Control_c, 0, 64, 92
1, 163608, Control_c, 0, 64, 93
1, 163623, Control_c, 0, 64, 94
1, 163638, Control_c, 0, 64, 95
1, 163653, Control_c, 0, 64, 96
1, 163668, Control_c, 0, 64, 96
1, 163682, Control_c, 0, 64, 97
1, 163697, Control_c, 0, 64, 98
1, 163712, Control_c, 0, 64, 98
1, 163727, Control_c, 0, 64, 99
1, 163731, Note_off_c, 0, 57, 35
1, 163756, Control_c, 0, 64, 99
1, 163771, Control_c, 0, 64, 100
1, 163775, Note_off_c, 0, 54, 36
1, 163801, Note_off_c, 0, 45, 38
1, 163820, Note_off_c, 0, 48, 41
1, 163826, Note_off_c, 0, 50, 30
1, 163843, Note_off_c, 0, 42, 32
1, 163846, Control_c, 0, 64, 100
1, 164038, Control_c, 0, 64, 101
1, 164872, Note_on_c, 0, 56, 38
1, 164887, Note_on_c, 0, 50, 37
1, 164889, Note_on_c, 0, 54, 38
1, 164891, Control_c, 0, 64, 100
1, 164894, Note_on_c, 0, 48, 33
1, 164897, Note_on_c, 0, 44, 33
1, 164899, Note_on_c, 0, 38, 38
1, 164905, Control_c, 0, 64, 99
1, 164920, Control_c, 0, 64, 96
1, 164935, Control_c, 0, 64, 92
1, 164958, Control_c, 0, 64, 87
1, 164973, Control_c, 0, 64, 81
1, 164987, Control_c, 0, 64, 72
1, 165002, Control_c, 0, 64, 61
1, 165017, Control_c, 0, 64, 0
1, 165136, Control_c, 0, 64, 59
1, 165151, Control_c, 0, 64, 68
1, 165166, Control_c, 0, 64, 73
1, 165181, Control_c, 0, 64, 79
1, 165196, Control_c, 0, 64, 82
1, 165210, Control_c, 0, 64, 86
1, 165225, Control_c, 0, 64, 89
1, 165240, Control_c, 0, 64, 91
1, 165254, Control_c, 0, 64, 94
1, 165269, Control_c, 0, 64, 96
1, 165284, Control_c, 0, 64, 98
1, 165299, Control_c, 0, 64, 100
1, 165314, Control_c, 0, 64, 102
1, 165328, Control_c, 0, 64, 103
1, 165343, Control_c, 0, 64, 104
1, 165358, Control_c, 0, 64, 106
1, 165373, Control_c, 0, 64, 107
1, 165387, Note_off_c, 0, 38, 40
1, 165388, Control_c, 0, 64, 107
1, 165403, Control_c, 0, 64, 108
1, 165408, Note_off_c, 0, 44, 39
1, 165418, Control_c, 0, 64, 109
1, 165433, Control_c, 0, 64, 109
1, 165448, Control_c, 0, 64, 110
1, 165477, Control_c, 0, 64, 111
1, 165507, Control_c, 0, 64, 111
1, 165581, Control_c, 0, 64, 112
1, 165755, Note_on_c, 0, 32, 63
1, 166049, Note_on_c, 0, 33, 69
1, 166099, Note_off_c, 0, 32, 51
1, 166212, Note_on_c, 0, 36, 73
1, 166252, Note_off_c, 0, 33, 63
1, 166270, Control_c, 0, 64, 111
1, 166284, Control_c, 0, 64, 111
1, 166285, Note_off_c, 0, 48, 35
1, 166299, Control_c, 0, 64, 109
1, 166314, Control_c, 0, 64, 106
1, 166329, Control_c, 0, 64, 102
1, 166344, Control_c, 0, 64, 98
1, 166349, Note_off_c, 0, 50, 40
1, 166358, Control_c, 0, 64, 92
1, 166372, Note_on_c, 0, 37, 75
1, 166373, Control_c, 0, 64, 86
1, 166388, Note_off_c, 0, 54, 24
1, 166388, Control_c, 0, 64, 79
1, 166403, Control_c, 0, 64, 71
1, 166413, Note_off_c, 0, 36, 63
1, 166418, Control_c, 0, 64, 57
1, 166422, Note_off_c, 0, 56, 33
1, 166432, Control_c, 0, 64, 0
1, 167048, Control_c, 0, 64, 45
1, 167063, Control_c, 0, 64, 57
1, 167078, Control_c, 0, 64, 61
1, 167093, Control_c, 0, 64, 63
1, 167108, Control_c, 0, 64, 65
1, 167123, Control_c, 0, 64, 67
1, 167138, Control_c, 0, 64, 70
1, 167153, Control_c, 0, 64, 72
1, 167168, Control_c, 0, 64, 75
1, 167182, Control_c, 0, 64, 77
1, 167204, Control_c, 0, 64, 79
1, 167219, Control_c, 0, 64, 80
1, 167233, Control_c, 0, 64, 81
1, 167242, Note_on_c, 0, 53, 40
1, 167248, Note_on_c, 0, 56, 42
1, 167248, Control_c, 0, 64, 83
1, 167263, Control_c, 0, 64, 84
1, 167268, Note_on_c, 0, 49, 28
1, 167278, Control_c, 0, 64, 86
1, 167293, Control_c, 0, 64, 88
1, 167308, Control_c, 0, 64, 90
1, 167323, Control_c, 0, 64, 92
1, 167337, Control_c, 0, 64, 93
1, 167352, Control_c, 0, 64, 95
1, 167367, Control_c, 0, 64, 97
1, 167382, Control_c, 0, 64, 98
1, 167397, Control_c, 0, 64, 100
1, 167412, Control_c, 0, 64, 101
1, 167426, Control_c, 0, 64, 102
1, 167441, Control_c, 0, 64, 103
1, 167456, Control_c, 0, 64, 104
1, 167472, Control_c, 0, 64, 105
1, 167486, Control_c, 0, 64, 106
1, 167501, Control_c, 0, 64, 107
1, 167516, Control_c, 0, 64, 108
1, 167531, Control_c, 0, 64, 108
1, 167543, Note_off_c, 0, 37, 55
1, 167546, Control_c, 0, 64, 109
1, 167561, Control_c, 0, 64, 109
1, 167576, Control_c, 0, 64, 110
1, 167605, Control_c, 0, 64, 110
1, 167620, Control_c, 0, 64, 111
1, 167649, Control_c, 0, 64, 111
1, 167679, Control_c, 0, 64, 112
1, 167723, Control_c, 0, 64, 112
1, 167783, Control_c, 0, 64, 113
1, 167809, Note_on_c, 0, 37, 67
1, 167856, Control_c, 0, 64, 113
1, 167953, Control_c, 0, 64, 114
1, 167969, Note_off_c, 0, 49, 31
1, 168054, Note_on_c, 0, 35, 71
1, 168066, Note_off_c, 0, 37, 63
1, 168101, Control_c, 0, 64, 114
1, 168184, Note_on_c, 0, 37, 73
1, 168211, Note_off_c, 0, 35, 63
1, 168328, Note_on_c, 0, 35, 75
1, 168339, Control_c, 0, 64, 114
1, 168350, Note_off_c, 0, 53, 41
1, 168354, Note_off_c, 0, 37, 62
1, 168369, Control_c, 0, 64, 111
1, 168384, Control_c, 0, 64, 107
1, 168399, Control_c, 0, 64, 101
1, 168414, Control_c, 0, 64, 95
1, 168428, Control_c, 0, 64, 87
1, 168443, Control_c, 0, 64, 78
1, 168458, Control_c, 0, 64, 68
1, 168470, Note_off_c, 0, 56, 13
1, 168472, Control_c, 0, 64, 0
1, 169013, Control_c, 0, 64, 45
1, 169028, Control_c, 0, 64, 57
1, 169043, Control_c, 0, 64, 61
1, 169057, Control_c, 0, 64, 63
1, 169073, Control_c, 0, 64, 65
1, 169088, Control_c, 0, 64, 67
1, 169102, Control_c, 0, 64, 70
1, 169117, Control_c, 0, 64, 72
1, 169132, Control_c, 0, 64, 76
1, 169147, Control_c, 0, 64, 78
1, 169162, Control_c, 0, 64, 80
1, 169176, Note_on_c, 0, 56, 42
1, 169177, Control_c, 0, 64, 81
1, 169183, Note_on_c, 0, 54, 43
1, 169192, Control_c, 0, 64, 82
1, 169206, Control_c, 0, 64, 84
1, 169218, Note_on_c, 0, 50, 31
1, 169221, Control_c, 0, 64, 86
1, 169236, Control_c, 0, 64, 88
1, 169251, Control_c, 0, 64, 89
1, 169266, Control_c, 0, 64, 91
1, 169281, Control_c, 0, 64, 92
1, 169295, Control_c, 0, 64, 93
1, 169310, Control_c, 0, 64, 94
1, 169325, Control_c, 0, 64, 94
1, 169340, Control_c, 0, 64, 95
1, 169355, Control_c, 0, 64, 96
1, 169369, Control_c, 0, 64, 96
1, 169399, Control_c, 0, 64, 97
1, 169413, Control_c, 0, 64, 97
1, 169428, Control_c, 0, 64, 98
1, 169455, Note_on_c, 0, 37, 66
1, 169466, Control_c, 0, 64, 98
1, 169500, Note_off_c, 0, 35, 56
1, 169620, Note_off_c, 0, 50, 24
1, 169809, Note_on_c, 0, 40, 70
1, 169821, Control_c, 0, 64, 98
1, 169836, Control_c, 0, 64, 95
1, 169851, Control_c, 0, 64, 91
1, 169865, Note_off_c, 0, 37, 55
1, 169866, Control_c, 0, 64, 86
1, 169882, Control_c, 0, 64, 79
1, 169897, Control_c, 0, 64, 69
1, 169912, Control_c, 0, 64, 0
1, 169944, Note_off_c, 0, 54, 12
1, 170015, Control_c, 0, 64, 35
1, 170030, Control_c, 0, 64, 65
1, 170038, Note_on_c, 0, 38, 65
1, 170044, Control_c, 0, 64, 71
1, 170059, Control_c, 0, 64, 76
1, 170067, Note_off_c, 0, 40, 57
1, 170074, Control_c, 0, 64, 81
1, 170089, Control_c, 0, 64, 84
1, 170104, Control_c, 0, 64, 86
1, 170119, Control_c, 0, 64, 88
1, 170134, Control_c, 0, 64, 90
1, 170148, Control_c, 0, 64, 92
1, 170163, Control_c, 0, 64, 94
1, 170178, Control_c, 0, 64, 96
1, 170184, Note_on_c, 0, 37, 68
1, 170190, Note_off_c, 0, 38, 59
1, 170200, Control_c, 0, 64, 97
1, 170215, Control_c, 0, 64, 98
1, 170230, Control_c, 0, 64, 98
1, 170257, Note_off_c, 0, 37, 63
1, 170259, Control_c, 0, 64, 99
1, 170275, Note_off_c, 0, 56, 6
1, 170348, Control_c, 0, 64, 98
1, 170363, Note_on_c, 0, 37, 64
1, 170393, Control_c, 0, 64, 96
1, 170408, Control_c, 0, 64, 92
1, 170423, Control_c, 0, 64, 86
1, 170438, Control_c, 0, 64, 79
1, 170452, Control_c, 0, 64, 69
1, 170467, Control_c, 0, 64, 44
1, 170482, Control_c, 0, 64, 0
1, 171067, Control_c, 0, 64, 27
1, 171081, Control_c, 0, 64, 41
1, 171096, Control_c, 0, 64, 49
1, 171111, Control_c, 0, 64, 55
1, 171126, Control_c, 0, 64, 59
1, 171141, Control_c, 0, 64, 62
1, 171156, Control_c, 0, 64, 64
1, 171171, Control_c, 0, 64, 65
1, 171186, Control_c, 0, 64, 67
1, 171200, Control_c, 0, 64, 68
1, 171215, Control_c, 0, 64, 70
1, 171230, Control_c, 0, 64, 73
1, 171245, Control_c, 0, 64, 76
1, 171253, Note_on_c, 0, 56, 36
1, 171260, Control_c, 0, 64, 79
1, 171260, Note_on_c, 0, 53, 39
1, 171274, Control_c, 0, 64, 81
1, 171289, Note_on_c, 0, 49, 33
1, 171289, Control_c, 0, 64, 82
1, 171304, Control_c, 0, 64, 84
1, 171319, Control_c, 0, 64, 85
1, 171334, Control_c, 0, 64, 87
1, 171348, Control_c, 0, 64, 89
1, 171363, Control_c, 0, 64, 91
1, 171378, Control_c, 0, 64, 92
1, 171392, Control_c, 0, 64, 94
1, 171407, Control_c, 0, 64, 95
1, 171422, Control_c, 0, 64, 96
1, 171437, Control_c, 0, 64, 97
1, 171452, Control_c, 0, 64, 98
1, 171468, Control_c, 0, 64, 99
1, 171483, Control_c, 0, 64, 99
1, 171496, Note_off_c, 0, 37, 39
1, 171497, Control_c, 0, 64, 100
1, 171512, Control_c, 0, 64, 100
1, 171527, Control_c, 0, 64, 101
1, 171542, Control_c, 0, 64, 101
1, 171601, Control_c, 0, 64, 102
1, 171698, Note_off_c, 0, 49, 28
1, 171800, Note_on_c, 0, 37, 52
1, 172004, Note_off_c, 0, 37, 55
1, 172017, Note_on_c, 0, 35, 53
1, 172156, Note_on_c, 0, 37, 53
1, 172187, Note_off_c, 0, 35, 38
1, 172217, Note_off_c, 0, 53, 2
1, 172245, Control_c, 0, 64, 101
1, 172260, Control_c, 0, 64, 100
1, 172276, Control_c, 0, 64, 98
1, 172283, Note_off_c, 0, 56, 8
1, 172291, Control_c, 0, 64, 94
1, 172306, Control_c, 0, 64, 91
1, 172318, Note_on_c, 0, 35, 56
1, 172320, Control_c, 0, 64, 87
1, 172335, Control_c, 0, 64, 83
1, 172350, Control_c, 0, 64, 77
1, 172357, Note_off_c, 0, 37, 37
1, 172365, Control_c, 0, 64, 71
1, 172380, Control_c, 0, 64, 61
1, 172394, Control_c, 0, 64, 0
1, 173320, Note_on_c, 0, 56, 33
1, 173332, Note_on_c, 0, 54, 31
1, 173335, Note_on_c, 0, 50, 32
1, 173568, Note_on_c, 0, 33, 47
1, 173615, Note_off_c, 0, 35, 53
1, 173791, Note_on_c, 0, 32, 54
1, 173808, Note_off_c, 0, 33, 43
1, 174146, Note_off_c, 0, 54, 16
1, 174155, Note_on_c, 0, 35, 46
1, 174193, Note_off_c, 0, 32, 47
1, 174386, Note_on_c, 0, 33, 49
1, 174482, Note_off_c, 0, 50, 1
1, 174501, Note_off_c, 0, 35, 45
1, 174559, Note_off_c, 0, 56, 4
1, 174610, Control_c, 0, 64, 41
1, 174625, Control_c, 0, 64, 53
1, 174640, Control_c, 0, 64, 60
1, 174655, Control_c, 0, 64, 64
1, 174670, Control_c, 0, 64, 66
1, 174693, Control_c, 0, 64, 69
1, 174708, Control_c, 0, 64, 71
1, 174722, Control_c, 0, 64, 74
1, 174737, Control_c, 0, 64, 77
1, 174752, Control_c, 0, 64, 78
1, 174767, Control_c, 0, 64, 79
1, 174782, Control_c, 0, 64, 80
1, 174796, Control_c, 0, 64, 81
1, 174811, Control_c, 0, 64, 82
1, 174826, Control_c, 0, 64, 83
1, 174840, Control_c, 0, 64, 84
1, 174855, Control_c, 0, 64, 85
1, 174870, Control_c, 0, 64, 86
1, 174885, Control_c, 0, 64, 86
1, 174900, Control_c, 0, 64, 87
1, 174915, Control_c, 0, 64, 87
1, 174945, Control_c, 0, 64, 88
1, 174960, Control_c, 0, 64, 88
1, 174970, Note_on_c, 0, 32, 53
1, 174975, Control_c, 0, 64, 89
1, 175004, Control_c, 0, 64, 89
1, 175034, Control_c, 0, 64, 90
1, 175049, Note_off_c, 0, 33, 41
1, 175052, Note_off_c, 0, 32, 57
1, 175092, Control_c, 0, 64, 90
1, 175168, Note_on_c, 0, 32, 46
1, 175210, Control_c, 0, 64, 90
1, 175225, Control_c, 0, 64, 89
1, 175240, Control_c, 0, 64, 87
1, 175255, Control_c, 0, 64, 84
1, 175270, Control_c, 0, 64, 79
1, 175285, Control_c, 0, 64, 72
1, 175299, Control_c, 0, 64, 62
1, 175314, Control_c, 0, 64, 0
1, 176032, Note_on_c, 0, 56, 33
1, 176033, Control_c, 0, 64, 14
1, 176047, Note_on_c, 0, 53, 31
1, 176048, Control_c, 0, 64, 27
1, 176054, Note_on_c, 0, 49, 22
1, 176063, Control_c, 0, 64, 35
1, 176077, Control_c, 0, 64, 44
1, 176092, Control_c, 0, 64, 53
1, 176107, Control_c, 0, 64, 60
1, 176122, Control_c, 0, 64, 64
1, 176137, Control_c, 0, 64, 65
1, 176152, Control_c, 0, 64, 67
1, 176167, Control_c, 0, 64, 70
1, 176188, Control_c, 0, 64, 73
1, 176203, Control_c, 0, 64, 76
1, 176218, Control_c, 0, 64, 79
1, 176233, Control_c, 0, 64, 80
1, 176248, Control_c, 0, 64, 82
1, 176264, Control_c, 0, 64, 83
1, 176279, Control_c, 0, 64, 84
1, 176293, Control_c, 0, 64, 86
1, 176308, Control_c, 0, 64, 87
1, 176323, Control_c, 0, 64, 89
1, 176338, Control_c, 0, 64, 90
1, 176353, Control_c, 0, 64, 91
1, 176367, Control_c, 0, 64, 92
1, 176382, Control_c, 0, 64, 92
1, 176397, Note_off_c, 0, 53, 33
1, 176397, Control_c, 0, 64, 93
1, 176411, Control_c, 0, 64, 94
1, 176423, Note_off_c, 0, 56, 31
1, 176426, Control_c, 0, 64, 94
1, 176441, Control_c, 0, 64, 95
1, 176456, Control_c, 0, 64, 95
1, 176471, Control_c, 0, 64, 96
1, 176486, Control_c, 0, 64, 96
1, 176511, Note_off_c, 0, 49, 36
1, 176516, Control_c, 0, 64, 97
1, 176560, Control_c, 0, 64, 97
1, 176581, Note_off_c, 0, 32, 39
1, 176605, Control_c, 0, 64, 98
1, 176753, Control_c, 0, 64, 98
1, 177011, Note_on_c, 0, 32, 49
1, 177026, Control_c, 0, 64, 98
1, 177056, Control_c, 0, 64, 97
1, 177072, Control_c, 0, 64, 95
1, 177087, Control_c, 0, 64, 91
1, 177102, Control_c, 0, 64, 87
1, 177116, Control_c, 0, 64, 81
1, 177131, Control_c, 0, 64, 74
1, 177146, Control_c, 0, 64, 65
1, 177161, Control_c, 0, 64, 0
1, 178005, Note_on_c, 0, 56, 32
1, 178024, Note_on_c, 0, 48, 26
1, 178030, Note_on_c, 0, 54, 30
1, 178030, Note_on_c, 0, 51, 21
1, 178072, Control_c, 0, 64, 43
1, 178087, Control_c, 0, 64, 58
1, 178102, Control_c, 0, 64, 63
1, 178117, Control_c, 0, 64, 65
1, 178131, Control_c, 0, 64, 68
1, 178146, Control_c, 0, 64, 70
1, 178161, Control_c, 0, 64, 74
1, 178176, Control_c, 0, 64, 77
1, 178191, Control_c, 0, 64, 79
1, 178206, Control_c, 0, 64, 80
1, 178221, Control_c, 0, 64, 82
1, 178236, Control_c, 0, 64, 83
1, 178251, Control_c, 0, 64, 85
1, 178265, Control_c, 0, 64, 86
1, 178280, Control_c, 0, 64, 87
1, 178295, Control_c, 0, 64, 89
1, 178310, Control_c, 0, 64, 90
1, 178325, Control_c, 0, 64, 91
1, 178339, Control_c, 0, 64, 92
1, 178354, Control_c, 0, 64, 93
1, 178368, Note_off_c, 0, 48, 39
1, 178369, Control_c, 0, 64, 93
1, 178372, Note_off_c, 0, 56, 31
1, 178383, Control_c, 0, 64, 94
1, 178392, Note_off_c, 0, 54, 31
1, 178398, Control_c, 0, 64, 94
1, 178413, Control_c, 0, 64, 95
1, 178424, Note_off_c, 0, 51, 32
1, 178435, Control_c, 0, 64, 96
1, 178465, Control_c, 0, 64, 96
1, 178480, Control_c, 0, 64, 97
1, 178510, Control_c, 0, 64, 97
1, 178554, Control_c, 0, 64, 98
1, 178598, Control_c, 0, 64, 98
1, 178643, Control_c, 0, 64, 99
1, 178698, Note_off_c, 0, 32, 40
1, 178703, Control_c, 0, 64, 99
1, 178792, Control_c, 0, 64, 100
1, 179118, Control_c, 0, 64, 100
1, 179520, Note_on_c, 0, 49, 47
1, 179527, Note_on_c, 0, 53, 46
1, 179529, Note_on_c, 0, 56, 38
1, 179532, Note_on_c, 0, 44, 38
1, 179537, Note_on_c, 0, 32, 41
1, 179538, Note_on_c, 0, 25, 43
1, 179545, Note_on_c, 0, 37, 36
1, 179556, Control_c, 0, 64, 100
1, 179571, Control_c, 0, 64, 99
1, 179585, Control_c, 0, 64, 98
1, 179600, Control_c, 0, 64, 95
1, 179615, Control_c, 0, 64, 92
1, 179629, Control_c, 0, 64, 87
1, 179644, Control_c, 0, 64, 82
1, 179659, Control_c, 0, 64, 74
1, 179674, Control_c, 0, 64, 65
1, 179689, Control_c, 0, 64, 0
1, 180468, Control_c, 0, 64, 46
1, 180483, Control_c, 0, 64, 55
1, 180498, Control_c, 0, 64, 57
1, 180513, Control_c, 0, 64, 58
1, 180527, Control_c, 0, 64, 61
1, 180542, Control_c, 0, 64, 63
1, 180557, Control_c, 0, 64, 66
1, 180571, Control_c, 0, 64, 68
1, 180586, Control_c, 0, 64, 70
1, 180601, Control_c, 0, 64, 73
1, 180616, Control_c, 0, 64, 76
1, 180631, Control_c, 0, 64, 77
1, 180646, Control_c, 0, 64, 79
1, 180660, Control_c, 0, 64, 80
1, 180683, Control_c, 0, 64, 81
1, 180698, Control_c, 0, 64, 82
1, 180713, Control_c, 0, 64, 83
1, 180728, Control_c, 0, 64, 84
1, 180742, Control_c, 0, 64, 85
1, 180757, Control_c, 0, 64, 85
1, 180772, Control_c, 0, 64, 86
1, 180786, Control_c, 0, 64, 87
1, 180801, Control_c, 0, 64, 88
1, 180816, Control_c, 0, 64, 88
1, 180831, Control_c, 0, 64, 89
1, 180846, Control_c, 0, 64, 90
1, 180875, Control_c, 0, 64, 90
1, 180890, Control_c, 0, 64, 91
1, 180920, Control_c, 0, 64, 91
1, 180949, Control_c, 0, 64, 92
1, 181082, Control_c, 0, 64, 92
1, 181770, Note_off_c, 0, 44, 31
1, 181776, Note_off_c, 0, 53, 31
1, 181857, Note_off_c, 0, 49, 29
1, 181869, Note_off_c, 0, 56, 31
1, 182153, Note_off_c, 0, 25, 26
1, 182156, Note_off_c, 0, 37, 30
1, 182207, Note_off_c, 0, 32, 29
1, 182758, Control_c, 0, 64, 92
1, 182973, Control_c, 0, 64, 91
1, 183017, Control_c, 0, 64, 91
1, 183047, Control_c, 0, 64, 90
1, 183077, Control_c, 0, 64, 90
1, 183092, Control_c, 0, 64, 89
1, 183121, Control_c, 0, 64, 89
1, 183151, Control_c, 0, 64, 88
1, 183180, Control_c, 0, 64, 88
1, 183210, Control_c, 0, 64, 87
1, 183240, Control_c, 0, 64, 87
1, 183284, Control_c, 0, 64, 86
1, 183315, Control_c, 0, 64, 86
1, 183344, Control_c, 0, 64, 85
1, 183373, Control_c, 0, 64, 85
1, 183403, Control_c, 0, 64, 84
1, 183449, Control_c, 0, 64, 84
1, 183508, Control_c, 0, 64, 83
1, 183552, Control_c, 0, 64, 83
1, 183582, Control_c, 0, 64, 82
1, 183611, Control_c, 0, 64, 82
1, 183626, Control_c, 0, 64, 81
1, 183656, Control_c, 0, 64, 81
1, 183678, Control_c, 0, 64, 80
1, 183693, Control_c, 0, 64, 80
1, 183708, Control_c, 0, 64, 79
1, 183723, Control_c, 0, 64, 79
1, 183738, Control_c, 0, 64, 78
1, 183752, Control_c, 0, 64, 78
1, 183767, Control_c, 0, 64, 77
1, 183782, Control_c, 0, 64, 76
1, 183797, Control_c, 0, 64, 75
1, 183811, Control_c, 0, 64, 75
1, 183826, Control_c, 0, 64, 74
1, 183841, Control_c, 0, 64, 73
1, 183856, Control_c, 0, 64, 71
1, 183871, Control_c, 0, 64, 70
1, 183885, Control_c, 0, 64, 67
1, 183900, Control_c, 0, 64, 65
1, 183915, Control_c, 0, 64, 63
1, 183930, Control_c, 0, 64, 62
1, 184063, Control_c, 0, 64, 61
1, 184108, Control_c, 0, 64, 61
1, 184137, Control_c, 0, 64, 60
1, 184152, Control_c, 0, 64, 60
1, 184167, Control_c, 0, 64, 59
1, 184182, Control_c, 0, 64, 59
1, 184196, Control_c, 0, 64, 58
1, 184211, Control_c, 0, 64, 57
1, 184226, Control_c, 0, 64, 57
1, 184242, Control_c, 0, 64, 56
1, 184257, Control_c, 0, 64, 53
1, 184272, Control_c, 0, 64, 51
1, 184287, Control_c, 0, 64, 48
1, 184301, Control_c, 0, 64, 44
1, 184316, Control_c, 0, 64, 41
1, 184331, Control_c, 0, 64, 37
1, 184345, Control_c, 0, 64, 26
1, 184360, Control_c, 0, 64, 0
1, 184546, Control_c, 0, 64, 26
1, 184560, Control_c, 0, 64, 46
1, 184575, Control_c, 0, 64, 56
1, 184590, Control_c, 0, 64, 62
1, 184605, Control_c, 0, 64, 64
1, 184620, Control_c, 0, 64, 66
1, 184634, Control_c, 0, 64, 69
1, 184649, Control_c, 0, 64, 72
1, 184664, Control_c, 0, 64, 75
1, 184679, Control_c, 0, 64, 78
1, 184694, Control_c, 0, 64, 80
1, 184708, Control_c, 0, 64, 81
1, 184723, Control_c, 0, 64, 83
1, 184738, Control_c, 0, 64, 85
1, 184752, Control_c, 0, 64, 87
1, 184767, Control_c, 0, 64, 89
1, 184782, Control_c, 0, 64, 92
1, 184797, Control_c, 0, 64, 94
1, 184811, Control_c, 0, 64, 97
1, 184826, Control_c, 0, 64, 100
1, 184841, Control_c, 0, 64, 104
1, 184856, Control_c, 0, 64, 107
1, 184871, Control_c, 0, 64, 111
1, 184886, Control_c, 0, 64, 115
1, 184900, Control_c, 0, 64, 120
1, 184915, Control_c, 0, 64, 126
1, 184930, Control_c, 0, 64, 127
1, 185494, Note_on_c, 0, 73, 21
1, 185512, Note_on_c, 0, 80, 42
1, 185533, Note_off_c, 0, 73, 40
1, 185545, Note_off_c, 0, 80, 48
1, 185551, Note_on_c, 0, 85, 53
1, 185595, Note_on_c, 0, 80, 53
1, 185639, Note_off_c, 0, 80, 60
1, 185863, Note_on_c, 0, 73, 27
1, 185893, Note_on_c, 0, 80, 50
1, 185898, Note_off_c, 0, 73, 52
1, 185945, Note_off_c, 0, 80, 62
1, 186008, Note_off_c, 0, 85, 40
1, 186039, Note_on_c, 0, 81, 38
1, 186103, Note_off_c, 0, 81, 38
1, 186104, Note_on_c, 0, 73, 46
1, 186127, Note_off_c, 0, 73, 58
1, 186153, Note_on_c, 0, 80, 36
1, 186161, Note_on_c, 0, 85, 65
1, 186193, Note_off_c, 0, 80, 0
1, 186193, Note_on_c, 0, 80, 35
1, 186236, Note_off_c, 0, 80, 64
1, 186350, Note_off_c, 0, 85, 56
1, 186422, Poly_aftertouch_c, 0, 83, 127
1, 186447, Note_on_c, 0, 81, 54
1, 186462, Poly_aftertouch_c, 0, 83, 0
1, 186526, Note_off_c, 0, 81, 59
1, 186582, Note_on_c, 0, 80, 30
1, 186615, Note_off_c, 0, 80, 47
1, 186698, Note_on_c, 0, 78, 48
1, 186707, Note_on_c, 0, 85, 45
1, 186725, Poly_aftertouch_c, 0, 73, 0
1, 186743, Note_off_c, 0, 78, 0
1, 186752, Note_on_c, 0, 78, 65
1, 186782, Note_off_c, 0, 78, 63
1, 186982, Note_on_c, 0, 73, 17
1, 186992, Note_off_c, 0, 85, 30
1, 187006, Note_on_c, 0, 78, 65
1, 187026, Note_off_c, 0, 73, 38
1, 187059, Note_off_c, 0, 78, 59
1, 187140, Note_on_c, 0, 80, 54
1, 187160, Note_off_c, 0, 80, 64
1, 187206, Note_on_c, 0, 73, 52
1, 187237, Note_off_c, 0, 73, 62
1, 187256, Note_on_c, 0, 85, 57
1, 187259, Note_on_c, 0, 81, 49
1, 187297, Note_off_c, 0, 81, 0
1, 187297, Note_on_c, 0, 81, 33
1, 187327, Note_off_c, 0, 85, 62
1, 187347, Note_off_c, 0, 81, 61
1, 187481, Note_on_c, 0, 85, 58
1, 187543, Note_on_c, 0, 83, 55
1, 187567, Note_off_c, 0, 85, 58
1, 187639, Note_off_c, 0, 83, 55
1, 187676, Note_on_c, 0, 81, 45
1, 187724, Note_off_c, 0, 81, 46
1, 187733, Note_on_c, 0, 73, 50
1, 187755, Note_off_c, 0, 73, 59
1, 187757, Note_on_c, 0, 80, 58
1, 187777, Note_off_c, 0, 80, 64
1, 187795, Note_on_c, 0, 85, 63
1, 187835, Note_on_c, 0, 80, 73
1, 187858, Note_off_c, 0, 80, 69
1, 188034, Note_on_c, 0, 73, 50
1, 188064, Note_off_c, 0, 73, 51
1, 188095, Note_on_c, 0, 80, 64
1, 188126, Note_off_c, 0, 80, 64
1, 188189, Note_off_c, 0, 85, 38
1, 188243, Note_on_c, 0, 81, 50
1, 188284, Note_off_c, 0, 81, 59
1, 188302, Note_on_c, 0, 73, 48
1, 188327, Note_off_c, 0, 73, 62
1, 188342, Note_on_c, 0, 80, 54
1, 188368, Note_off_c, 0, 80, 56
1, 188372, Note_on_c, 0, 85, 55
1, 188416, Note_on_c, 0, 80, 58
1, 188444, Note_off_c, 0, 80, 68
1, 188598, Note_on_c, 0, 83, 49
1, 188631, Note_off_c, 0, 85, 30
1, 188663, Note_on_c, 0, 81, 61
1, 188680, Note_off_c, 0, 83, 56
1, 188743, Note_off_c, 0, 81, 57
1, 188774, Note_on_c, 0, 80, 56
1, 188802, Note_off_c, 0, 80, 64
1, 188841, Note_on_c, 0, 73, 46
1, 188871, Note_off_c, 0, 73, 53
1, 188885, Note_on_c, 0, 78, 66
1, 188903, Note_off_c, 0, 78, 65
1, 188918, Note_on_c, 0, 85, 45
1, 188973, Note_on_c, 0, 78, 60
1, 188991, Note_off_c, 0, 78, 60
1, 189134, Note_off_c, 0, 85, 0
1, 189182, Note_on_c, 0, 73, 29
1, 189188, Poly_aftertouch_c, 0, 85, 0
1, 189217, Note_off_c, 0, 73, 51
1, 189229, Note_on_c, 0, 78, 54
1, 189251, Note_off_c, 0, 78, 60
1, 189344, Note_on_c, 0, 80, 59
1, 189394, Note_off_c, 0, 80, 56
1, 189419, Note_on_c, 0, 73, 55
1, 189444, Note_off_c, 0, 73, 63
1, 189446, Note_on_c, 0, 78, 64
1, 189467, Note_off_c, 0, 78, 65
1, 189485, Note_on_c, 0, 85, 62
1, 189533, Note_on_c, 0, 78, 66
1, 189549, Note_off_c, 0, 78, 63
1, 189736, Note_on_c, 0, 73, 53
1, 189746, Note_off_c, 0, 85, 31
1, 189771, Note_off_c, 0, 73, 61
1, 189784, Note_on_c, 0, 81, 54
1, 189822, Note_off_c, 0, 81, 59
1, 189928, Note_on_c, 0, 73, 45
1, 189954, Note_off_c, 0, 73, 50
1, 190004, Note_on_c, 0, 73, 61
1, 190028, Note_off_c, 0, 73, 66
1, 190033, Note_on_c, 0, 80, 51
1, 190052, Note_on_c, 0, 85, 63
1, 190117, Note_off_c, 0, 80, 64
1, 190248, Note_on_c, 0, 73, 54
1, 190270, Note_off_c, 0, 73, 58
1, 190274, Note_on_c, 0, 80, 51
1, 190298, Note_on_c, 0, 77, 50
1, 190305, Poly_aftertouch_c, 0, 68, 127
1, 190314, Note_off_c, 0, 80, 64
1, 190333, Note_off_c, 0, 77, 64
1, 190362, Poly_aftertouch_c, 0, 68, 0
1, 190414, Note_off_c, 0, 85, 41
1, 190432, Note_on_c, 0, 81, 51
1, 190486, Note_off_c, 0, 81, 51
1, 190493, Note_on_c, 0, 73, 41
1, 190520, Note_off_c, 0, 73, 56
1, 190533, Note_on_c, 0, 80, 57
1, 190551, Note_on_c, 0, 85, 64
1, 190583, Note_off_c, 0, 80, 0
1, 190606, Note_on_c, 0, 80, 29
1, 190636, Note_off_c, 0, 80, 56
1, 190755, Note_on_c, 0, 83, 54
1, 190778, Note_off_c, 0, 85, 51
1, 190817, Note_on_c, 0, 81, 61
1, 190834, Note_on_c, 0, 92, 28
1, 190836, Note_on_c, 0, 97, 74
1, 190857, Note_off_c, 0, 83, 51
1, 190859, Note_off_c, 0, 97, 65
1, 190866, Note_off_c, 0, 92, 63
1, 190899, Note_off_c, 0, 81, 56
1, 190905, Note_on_c, 0, 80, 66
1, 190942, Note_off_c, 0, 80, 58
1, 190980, Note_on_c, 0, 73, 54
1, 191018, Note_off_c, 0, 73, 52
1, 191033, Note_on_c, 0, 78, 62
1, 191049, Note_on_c, 0, 85, 60
1, 191077, Note_off_c, 0, 78, 0
1, 191083, Control_c, 0, 64, 107
1, 191092, Note_on_c, 0, 78, 58
1, 191098, Control_c, 0, 64, 89
1, 191113, Control_c, 0, 64, 75
1, 191128, Control_c, 0, 64, 65
1, 191143, Note_off_c, 0, 78, 57
1, 191143, Control_c, 0, 64, 66
1, 191165, Control_c, 0, 64, 73
1, 191180, Control_c, 0, 64, 83
1, 191194, Control_c, 0, 64, 93
1, 191209, Control_c, 0, 64, 98
1, 191224, Control_c, 0, 64, 102
1, 191239, Control_c, 0, 64, 108
1, 191254, Control_c, 0, 64, 116
1, 191268, Control_c, 0, 64, 124
1, 191269, Note_on_c, 0, 73, 49
1, 191283, Control_c, 0, 64, 127
1, 191286, Note_on_c, 0, 61, 20
1, 191287, Note_off_c, 0, 85, 0
1, 191289, Note_on_c, 0, 69, 45
1, 191310, Note_off_c, 0, 73, 54
1, 191313, Note_off_c, 0, 61, 0
1, 191324, Poly_aftertouch_c, 0, 85, 127
1, 191325, Note_on_c, 0, 78, 59
1, 191344, Note_on_c, 0, 61, 26
1, 191356, Note_off_c, 0, 78, 58
1, 191359, Note_off_c, 0, 69, 62
1, 191375, Note_off_c, 0, 61, 62
1, 191402, Poly_aftertouch_c, 0, 85, 0
1, 191429, Note_on_c, 0, 80, 60
1, 191458, Note_off_c, 0, 80, 68
1, 191501, Note_on_c, 0, 73, 57
1, 191529, Note_off_c, 0, 73, 62
1, 191541, Note_on_c, 0, 81, 59
1, 191562, Note_on_c, 0, 85, 50
1, 191587, Note_off_c, 0, 81, 0
1, 191595, Note_on_c, 0, 81, 67
1, 191630, Note_off_c, 0, 85, 61
1, 191768, Note_on_c, 0, 85, 58
1, 191778, Note_off_c, 0, 81, 20
1, 191794, Note_on_c, 0, 90, 47
1, 191822, Note_on_c, 0, 97, 79
1, 191845, Note_on_c, 0, 83, 61
1, 191846, Note_off_c, 0, 97, 67
1, 191859, Note_off_c, 0, 85, 58
1, 191864, Note_off_c, 0, 90, 65
1, 191963, Note_off_c, 0, 83, 59
1, 191991, Note_on_c, 0, 81, 48
1, 192010, Note_on_c, 0, 73, 49
1, 192022, Note_off_c, 0, 81, 48
1, 192034, Note_off_c, 0, 73, 59
1, 192055, Note_on_c, 0, 80, 57
1, 192078, Note_on_c, 0, 85, 64
1, 192079, Note_off_c, 0, 80, 60
1, 192106, Control_c, 0, 64, 116
1, 192121, Control_c, 0, 64, 95
1, 192126, Note_on_c, 0, 80, 55
1, 192135, Control_c, 0, 64, 77
1, 192150, Control_c, 0, 64, 55
1, 192150, Note_off_c, 0, 80, 64
1, 192165, Control_c, 0, 64, 0
1, 192180, Control_c, 0, 64, 49
1, 192195, Control_c, 0, 64, 72
1, 192209, Control_c, 0, 64, 84
1, 192224, Control_c, 0, 64, 94
1, 192240, Control_c, 0, 64, 99
1, 192255, Control_c, 0, 64, 103
1, 192263, Note_on_c, 0, 68, 43
1, 192270, Control_c, 0, 64, 110
1, 192285, Control_c, 0, 64, 121
1, 192288, Note_on_c, 0, 73, 51
1, 192294, Note_off_c, 0, 68, 52
1, 192300, Control_c, 0, 64, 127
1, 192333, Note_on_c, 0, 77, 53
1, 192335, Note_off_c, 0, 73, 55
1, 192347, Note_on_c, 0, 68, 53
1, 192347, Note_on_c, 0, 80, 61
1, 192365, Note_off_c, 0, 77, 65
1, 192379, Note_off_c, 0, 80, 64
1, 192382, Note_off_c, 0, 68, 65
1, 192446, Note_off_c, 0, 85, 49
1, 192487, Note_on_c, 0, 81, 51
1, 192544, Note_off_c, 0, 81, 56
1, 192548, Note_on_c, 0, 73, 44
1, 192571, Note_off_c, 0, 73, 55
1, 192575, Note_on_c, 0, 80, 48
1, 192607, Note_on_c, 0, 85, 68
1, 192639, Note_off_c, 0, 80, 0
1, 192639, Note_on_c, 0, 80, 20
1, 192685, Note_off_c, 0, 80, 63
1, 192809, Note_off_c, 0, 85, 55
1, 192811, Note_on_c, 0, 83, 55
1, 192816, Note_on_c, 0, 92, 59
1, 192849, Note_off_c, 0, 92, 53
1, 192865, Note_on_c, 0, 97, 66
1, 192871, Note_on_c, 0, 81, 57
1, 192895, Note_off_c, 0, 83, 51
1, 192896, Note_off_c, 0, 97, 65
1, 192955, Note_off_c, 0, 81, 56
1, 192964, Note_on_c, 0, 80, 61
1, 192994, Note_off_c, 0, 80, 66
1, 193042, Note_on_c, 0, 73, 45
1, 193069, Note_off_c, 0, 73, 61
1, 193072, Note_on_c, 0, 78, 66
1, 193083, Note_on_c, 0, 85, 60
1, 193094, Note_off_c, 0, 78, 60
1, 193145, Note_on_c, 0, 78, 63
1, 193152, Control_c, 0, 64, 109
1, 193167, Control_c, 0, 64, 91
1, 193176, Note_off_c, 0, 78, 61
1, 193182, Control_c, 0, 64, 74
1, 193197, Control_c, 0, 64, 52
1, 193212, Control_c, 0, 64, 41
1, 193227, Control_c, 0, 64, 66
1, 193241, Control_c, 0, 64, 77
1, 193256, Control_c, 0, 64, 91
1, 193271, Control_c, 0, 64, 98
1, 193286, Control_c, 0, 64, 102
1, 193301, Control_c, 0, 64, 107
1, 193307, Note_on_c, 0, 73, 54
1, 193316, Control_c, 0, 64, 114
1, 193330, Control_c, 0, 64, 121
1, 193331, Note_on_c, 0, 69, 34
1, 193345, Control_c, 0, 64, 127
1, 193358, Note_off_c, 0, 73, 49
1, 193367, Note_on_c, 0, 61, 60
1, 193385, Note_on_c, 0, 78, 59
1, 193389, Note_off_c, 0, 69, 61
1, 193402, Note_off_c, 0, 61, 62
1, 193426, Note_off_c, 0, 78, 63
1, 193490, Note_off_c, 0, 85, 38
1, 193507, Note_on_c, 0, 80, 55
1, 193566, Note_off_c, 0, 80, 56
1, 193585, Note_on_c, 0, 73, 33
1, 193586, Note_on_c, 0, 78, 61
1, 193605, Note_off_c, 0, 78, 62
1, 193617, Note_off_c, 0, 73, 44
1, 193626, Note_on_c, 0, 85, 64
1, 193668, Note_on_c, 0, 78, 69
1, 193699, Note_off_c, 0, 78, 59
1, 193843, Note_on_c, 0, 90, 57
1, 193860, Note_off_c, 0, 85, 48
1, 193863, Note_on_c, 0, 73, 40
1, 193895, Note_off_c, 0, 73, 54
1, 193902, Note_on_c, 0, 97, 67
1, 193906, Note_on_c, 0, 81, 61
1, 193925, Note_off_c, 0, 97, 68
1, 193952, Note_off_c, 0, 90, 63
1, 194011, Note_off_c, 0, 81, 49
1, 194049, Note_on_c, 0, 73, 50
1, 194091, Note_off_c, 0, 73, 53
1, 194111, Note_on_c, 0, 80, 55
1, 194139, Note_off_c, 0, 80, 56
1, 194143, Note_on_c, 0, 85, 61
1, 194189, Note_on_c, 0, 80, 59
1, 194219, Control_c, 0, 64, 109
1, 194225, Note_off_c, 0, 85, 60
1, 194234, Control_c, 0, 64, 93
1, 194249, Control_c, 0, 64, 78
1, 194264, Control_c, 0, 64, 62
1, 194279, Control_c, 0, 64, 0
1, 194309, Control_c, 0, 64, 64
1, 194324, Control_c, 0, 64, 74
1, 194338, Control_c, 0, 64, 82
1, 194347, Note_on_c, 0, 68, 35
1, 194353, Control_c, 0, 64, 88
1, 194368, Control_c, 0, 64, 91
1, 194383, Control_c, 0, 64, 95
1, 194384, Note_off_c, 0, 68, 46
1, 194398, Control_c, 0, 64, 101
1, 194399, Note_on_c, 0, 73, 38
1, 194412, Control_c, 0, 64, 106
1, 194416, Note_off_c, 0, 80, 38
1, 194422, Note_on_c, 0, 77, 51
1, 194427, Control_c, 0, 64, 112
1, 194434, Note_on_c, 0, 68, 45
1, 194442, Control_c, 0, 64, 117
1, 194448, Note_off_c, 0, 73, 50
1, 194454, Note_on_c, 0, 85, 58
1, 194457, Control_c, 0, 64, 120
1, 194461, Note_off_c, 0, 77, 62
1, 194472, Control_c, 0, 64, 124
1, 194475, Note_off_c, 0, 68, 64
1, 194486, Control_c, 0, 64, 127
1, 194556, Note_off_c, 0, 85, 52
1, 194592, Note_on_c, 0, 73, 46
1, 194629, Note_off_c, 0, 73, 63
1, 194633, Note_on_c, 0, 80, 53
1, 194658, Note_off_c, 0, 80, 56
1, 194680, Note_on_c, 0, 85, 64
1, 194702, Note_on_c, 0, 80, 62
1, 194815, Note_off_c, 0, 85, 35
1, 194917, Note_on_c, 0, 73, 42
1, 194951, Note_off_c, 0, 80, 54
1, 194953, Note_off_c, 0, 73, 52
1, 194953, Note_on_c, 0, 97, 72
1, 194958, Note_on_c, 0, 85, 58
1, 194965, Note_on_c, 0, 92, 58
1, 194991, Note_off_c, 0, 97, 62
1, 195000, Note_off_c, 0, 92, 66
1, 195080, Note_off_c, 0, 85, 58
1, 195093, Note_on_c, 0, 73, 49
1, 195128, Note_off_c, 0, 73, 57
1, 195161, Note_on_c, 0, 78, 47
1, 195191, Note_on_c, 0, 85, 63
1, 195210, Note_off_c, 0, 78, 0
1, 195219, Note_on_c, 0, 78, 61
1, 195265, Control_c, 0, 64, 121
1, 195278, Control_c, 0, 64, 104
1, 195293, Control_c, 0, 64, 88
1, 195301, Note_off_c, 0, 85, 34
1, 195308, Control_c, 0, 64, 72
1, 195323, Control_c, 0, 64, 0
1, 195352, Control_c, 0, 64, 40
1, 195367, Control_c, 0, 64, 69
1, 195382, Control_c, 0, 64, 78
1, 195397, Control_c, 0, 64, 87
1, 195401, Note_off_c, 0, 78, 53
1, 195410, Note_on_c, 0, 61, 10
1, 195411, Note_on_c, 0, 73, 46
1, 195412, Control_c, 0, 64, 93
1, 195415, Note_on_c, 0, 69, 47
1, 195428, Control_c, 0, 64, 96
1, 195430, Note_off_c, 0, 61, 0
1, 195443, Control_c, 0, 64, 100
1, 195456, Note_off_c, 0, 73, 54
1, 195457, Control_c, 0, 64, 106
1, 195459, Note_on_c, 0, 85, 64
1, 195467, Poly_aftertouch_c, 0, 61, 127
1, 195472, Control_c, 0, 64, 113
1, 195476, Note_off_c, 0, 69, 54
1, 195487, Control_c, 0, 64, 120
1, 195502, Control_c, 0, 64, 126
1, 195503, Poly_aftertouch_c, 0, 61, 0
1, 195517, Control_c, 0, 64, 127
1, 195571, Note_on_c, 0, 73, 57
1, 195573, Note_off_c, 0, 85, 52
1, 195613, Note_off_c, 0, 73, 57
1, 195636, Note_on_c, 0, 81, 60
1, 195665, Note_off_c, 0, 81, 63
1, 195695, Note_on_c, 0, 85, 63
1, 195719, Note_on_c, 0, 81, 77
1, 195760, Note_off_c, 0, 85, 59
1, 195903, Note_on_c, 0, 90, 55
1, 195915, Note_on_c, 0, 73, 55
1, 195957, Note_on_c, 0, 97, 73
1, 195957, Note_off_c, 0, 73, 54
1, 195962, Note_on_c, 0, 85, 73
1, 195964, Note_off_c, 0, 81, 57
1, 195978, Note_off_c, 0, 97, 70
1, 196000, Note_off_c, 0, 90, 59
1, 196067, Note_off_c, 0, 85, 58
1, 196104, Note_on_c, 0, 73, 44
1, 196131, Note_off_c, 0, 73, 59
1, 196143, Note_on_c, 0, 80, 57
1, 196166, Note_off_c, 0, 80, 60
1, 196184, Note_on_c, 0, 85, 60
1, 196214, Note_on_c, 0, 80, 66
1, 196252, Control_c, 0, 64, 107
1, 196255, Note_off_c, 0, 85, 58
1, 196267, Control_c, 0, 64, 90
1, 196281, Control_c, 0, 64, 73
1, 196296, Control_c, 0, 64, 0
1, 196355, Control_c, 0, 64, 61
1, 196370, Control_c, 0, 64, 70
1, 196376, Note_on_c, 0, 68, 24
1, 196385, Control_c, 0, 64, 76
1, 196407, Control_c, 0, 64, 83
1, 196416, Note_on_c, 0, 73, 49
1, 196422, Control_c, 0, 64, 88
1, 196424, Note_off_c, 0, 68, 39
1, 196437, Control_c, 0, 64, 92
1, 196452, Note_off_c, 0, 80, 39
1, 196452, Control_c, 0, 64, 96
1, 196453, Note_on_c, 0, 77, 51
1, 196467, Control_c, 0, 64, 100
1, 196473, Note_on_c, 0, 68, 51
1, 196477, Note_off_c, 0, 73, 41
1, 196482, Control_c, 0, 64, 105
1, 196489, Note_on_c, 0, 85, 57
1, 196496, Control_c, 0, 64, 110
1, 196498, Note_off_c, 0, 77, 56
1, 196511, Control_c, 0, 64, 114
1, 196515, Note_off_c, 0, 68, 63
1, 196526, Control_c, 0, 64, 116
1, 196540, Control_c, 0, 64, 119
1, 196555, Control_c, 0, 64, 122
1, 196570, Control_c, 0, 64, 126
1, 196585, Control_c, 0, 64, 127
1, 196594, Note_off_c, 0, 85, 56
1, 196628, Note_on_c, 0, 73, 50
1, 196670, Note_off_c, 0, 73, 63
1, 196677, Note_on_c, 0, 80, 49
1, 196717, Note_on_c, 0, 85, 59
1, 196730, Note_off_c, 0, 80, 0
1, 196741, Note_on_c, 0, 80, 58
1, 196841, Note_off_c, 0, 85, 31
1, 196944, Note_on_c, 0, 73, 40
1, 196971, Note_off_c, 0, 80, 51
1, 196977, Note_off_c, 0, 73, 50
1, 196991, Note_on_c, 0, 85, 53
1, 196996, Note_on_c, 0, 97, 64
1, 197023, Note_off_c, 0, 97, 68
1, 197031, Note_on_c, 0, 92, 43
1, 197058, Note_off_c, 0, 92, 47
1, 197103, Note_off_c, 0, 85, 58
1, 197129, Note_on_c, 0, 73, 44
1, 197173, Note_off_c, 0, 73, 56
1, 197210, Note_on_c, 0, 78, 37
1, 197229, Note_on_c, 0, 85, 60
1, 197257, Note_off_c, 0, 78, 0
1, 197257, Note_on_c, 0, 78, 38
1, 197301, Note_off_c, 0, 85, 58
1, 197334, Control_c, 0, 64, 122
1, 197349, Control_c, 0, 64, 107
1, 197363, Control_c, 0, 64, 91
1, 197378, Control_c, 0, 64, 75
1, 197393, Control_c, 0, 64, 44
1, 197408, Control_c, 0, 64, 0
1, 197437, Control_c, 0, 64, 53
1, 197452, Control_c, 0, 64, 69
1, 197456, Note_off_c, 0, 78, 47
1, 197467, Control_c, 0, 64, 79
1, 197471, Note_on_c, 0, 73, 34
1, 197481, Control_c, 0, 64, 86
1, 197496, Control_c, 0, 64, 90
1, 197508, Note_on_c, 0, 69, 23
1, 197511, Control_c, 0, 64, 93
1, 197514, Note_off_c, 0, 73, 47
1, 197525, Note_on_c, 0, 61, 4
1, 197526, Control_c, 0, 64, 97
1, 197528, Note_on_c, 0, 85, 55
1, 197541, Control_c, 0, 64, 101
1, 197552, Note_off_c, 0, 69, 53
1, 197555, Control_c, 0, 64, 107
1, 197570, Control_c, 0, 64, 111
1, 197572, Note_off_c, 0, 61, 61
1, 197585, Control_c, 0, 64, 114
1, 197600, Control_c, 0, 64, 117
1, 197615, Control_c, 0, 64, 119
1, 197629, Control_c, 0, 64, 122
1, 197644, Control_c, 0, 64, 124
1, 197659, Control_c, 0, 64, 125
1, 197674, Control_c, 0, 64, 127
1, 197674, Note_off_c, 0, 85, 50
1, 197680, Note_on_c, 0, 73, 42
1, 197689, Control_c, 0, 64, 127
1, 197710, Note_off_c, 0, 73, 54
1, 197735, Note_on_c, 0, 81, 53
1, 197763, Note_off_c, 0, 81, 58
1, 197790, Note_on_c, 0, 85, 62
1, 197823, Note_on_c, 0, 81, 64
1, 197844, Note_off_c, 0, 85, 45
1, 198023, Note_on_c, 0, 73, 51
1, 198023, Note_on_c, 0, 90, 40
1, 198054, Note_off_c, 0, 73, 54
1, 198057, Note_off_c, 0, 90, 48
1, 198089, Note_off_c, 0, 81, 43
1, 198094, Note_on_c, 0, 85, 67
1, 198096, Note_on_c, 0, 97, 70
1, 198118, Note_off_c, 0, 97, 69
1, 198121, Note_off_c, 0, 85, 68
1, 198180, Poly_aftertouch_c, 0, 90, 0
1, 198303, Note_on_c, 0, 73, 32
1, 198336, Note_off_c, 0, 73, 43
1, 198431, Note_on_c, 0, 68, 74
1, 198461, Note_off_c, 0, 68, 63
1, 198520, Note_on_c, 0, 73, 66
1, 198542, Control_c, 0, 64, 126
1, 198548, Note_off_c, 0, 73, 66
1, 198556, Control_c, 0, 64, 124
1, 198571, Control_c, 0, 64, 122
1, 198586, Control_c, 0, 64, 121
1, 198601, Control_c, 0, 64, 119
1, 198613, Note_on_c, 0, 73, 67
1, 198616, Control_c, 0, 64, 118
1, 198619, Note_on_c, 0, 49, 45
1, 198630, Note_off_c, 0, 73, 67
1, 198631, Control_c, 0, 64, 117
1, 198654, Control_c, 0, 64, 115
1, 198655, Note_off_c, 0, 49, 60
1, 198669, Control_c, 0, 64, 113
1, 198683, Control_c, 0, 64, 110
1, 198698, Control_c, 0, 64, 107
1, 198702, Note_on_c, 0, 73, 66
1, 198713, Control_c, 0, 64, 103
1, 198723, Note_off_c, 0, 73, 66
1, 198727, Control_c, 0, 64, 99
1, 198742, Control_c, 0, 64, 94
1, 198757, Control_c, 0, 64, 88
1, 198770, Note_on_c, 0, 59, 54
1, 198772, Control_c, 0, 64, 81
1, 198781, Note_on_c, 0, 73, 67
1, 198787, Control_c, 0, 64, 73
1, 198795, Note_off_c, 0, 73, 66
1, 198796, Note_off_c, 0, 59, 60
1, 198801, Control_c, 0, 64, 62
1, 198816, Control_c, 0, 64, 0
1, 198860, Note_on_c, 0, 73, 58
1, 198895, Note_off_c, 0, 73, 0
1, 198907, Note_on_c, 0, 73, 48
1, 198935, Note_off_c, 0, 73, 65
1, 198943, Note_on_c, 0, 65, 32
1, 198970, Note_on_c, 0, 73, 61
1, 198974, Note_off_c, 0, 65, 45
1, 198991, Note_off_c, 0, 73, 65
1, 199053, Note_on_c, 0, 69, 78
1, 199074, Note_off_c, 0, 69, 73
1, 199099, Note_on_c, 0, 73, 53
1, 199127, Note_off_c, 0, 73, 66
1, 199181, Note_on_c, 0, 73, 62
1, 199192, Note_on_c, 0, 61, 63
1, 199200, Note_off_c, 0, 73, 57
1, 199227, Note_off_c, 0, 61, 58
1, 199257, Note_on_c, 0, 73, 73
1, 199280, Note_off_c, 0, 73, 68
1, 199312, Note_on_c, 0, 68, 80
1, 199332, Note_off_c, 0, 68, 71
1, 199364, Note_on_c, 0, 73, 67
1, 199390, Note_off_c, 0, 73, 66
1, 199451, Note_on_c, 0, 73, 73
1, 199466, Note_off_c, 0, 73, 68
1, 199475, Note_on_c, 0, 61, 53
1, 199504, Note_off_c, 0, 61, 64
1, 199525, Note_on_c, 0, 73, 70
1, 199543, Note_off_c, 0, 73, 67
1, 199595, Note_on_c, 0, 66, 80
1, 199610, Control_c, 0, 64, 51
1, 199622, Note_off_c, 0, 66, 66
1, 199624, Control_c, 0, 64, 67
1, 199639, Control_c, 0, 64, 72
1, 199654, Control_c, 0, 64, 76
1, 199669, Note_on_c, 0, 73, 66
1, 199669, Control_c, 0, 64, 77
1, 199684, Control_c, 0, 64, 78
1, 199698, Control_c, 0, 64, 78
1, 199704, Note_off_c, 0, 73, 62
1, 199728, Control_c, 0, 64, 79
1, 199748, Note_on_c, 0, 49, 55
1, 199748, Note_on_c, 0, 73, 64
1, 199774, Note_off_c, 0, 73, 66
1, 199776, Note_off_c, 0, 49, 62
1, 199829, Note_on_c, 0, 73, 68
1, 199851, Note_off_c, 0, 73, 66
1, 199861, Control_c, 0, 64, 77
1, 199875, Control_c, 0, 64, 74
1, 199890, Control_c, 0, 64, 68
1, 199891, Note_on_c, 0, 57, 48
1, 199905, Control_c, 0, 64, 56
1, 199908, Note_on_c, 0, 73, 62
1, 199920, Control_c, 0, 64, 0
1, 199923, Note_off_c, 0, 57, 63
1, 199924, Note_off_c, 0, 73, 65
1, 199973, Note_on_c, 0, 73, 72
1, 199990, Note_off_c, 0, 73, 67
1, 200029, Note_on_c, 0, 61, 53
1, 200050, Note_off_c, 0, 61, 60
1, 200051, Note_on_c, 0, 73, 60
1, 200071, Note_off_c, 0, 73, 39
1, 200083, Note_on_c, 0, 68, 71
1, 200110, Note_off_c, 0, 68, 69
1, 200162, Note_on_c, 0, 69, 84
1, 200187, Note_off_c, 0, 69, 69
1, 200233, Note_on_c, 0, 73, 59
1, 200259, Note_off_c, 0, 73, 66
1, 200303, Note_on_c, 0, 61, 59
1, 200312, Note_on_c, 0, 73, 69
1, 200327, Note_off_c, 0, 73, 66
1, 200342, Note_off_c, 0, 61, 61
1, 200390, Note_on_c, 0, 73, 55
1, 200411, Note_off_c, 0, 73, 58
1, 200426, Note_on_c, 0, 66, 75
1, 200450, Note_off_c, 0, 66, 69
1, 200473, Note_on_c, 0, 73, 73
1, 200496, Note_off_c, 0, 73, 68
1, 200548, Note_on_c, 0, 73, 76
1, 200564, Note_off_c, 0, 73, 70
1, 200590, Note_on_c, 0, 61, 26
1, 200616, Note_off_c, 0, 61, 45
1, 200622, Note_on_c, 0, 73, 72
1, 200637, Note_off_c, 0, 73, 67
1, 200689, Note_on_c, 0, 68, 78
1, 200713, Control_c, 0, 64, 64
1, 200718, Note_off_c, 0, 68, 64
1, 200728, Control_c, 0, 64, 70
1, 200743, Control_c, 0, 64, 72
1, 200758, Control_c, 0, 64, 74
1, 200763, Note_on_c, 0, 73, 65
1, 200772, Control_c, 0, 64, 76
1, 200787, Control_c, 0, 64, 76
1, 200798, Note_off_c, 0, 73, 64
1, 200802, Control_c, 0, 64, 77
1, 200831, Note_on_c, 0, 49, 51
1, 200846, Control_c, 0, 64, 77
1, 200848, Note_on_c, 0, 73, 63
1, 200855, Note_off_c, 0, 49, 59
1, 200869, Note_off_c, 0, 73, 63
1, 200939, Note_on_c, 0, 73, 61
1, 200956, Note_off_c, 0, 73, 57
1, 200958, Control_c, 0, 64, 77
1, 200977, Note_on_c, 0, 59, 60
1, 200987, Control_c, 0, 64, 76
1, 201002, Control_c, 0, 64, 75
1, 201006, Note_off_c, 0, 59, 64
1, 201013, Note_on_c, 0, 73, 61
1, 201017, Control_c, 0, 64, 74
1, 201031, Note_off_c, 0, 73, 61
1, 201033, Control_c, 0, 64, 72
1, 201048, Control_c, 0, 64, 68
1, 201063, Control_c, 0, 64, 63
1, 201077, Control_c, 0, 64, 50
1, 201082, Note_on_c, 0, 73, 51
1, 201083, Note_off_c, 0, 73, 127
1, 201092, Control_c, 0, 64, 32
1, 201107, Control_c, 0, 64, 22
1, 201122, Control_c, 0, 64, 0
1, 201125, Note_on_c, 0, 65, 56
1, 201129, Note_on_c, 0, 73, 58
1, 201146, Note_off_c, 0, 65, 63
1, 201165, Note_off_c, 0, 73, 63
1, 201186, Note_on_c, 0, 71, 70
1, 201209, Note_off_c, 0, 71, 67
1, 201242, Note_on_c, 0, 69, 85
1, 201263, Note_off_c, 0, 69, 72
1, 201311, Note_on_c, 0, 73, 69
1, 201334, Note_off_c, 0, 73, 67
1, 201387, Note_on_c, 0, 73, 66
1, 201388, Note_off_c, 0, 73, 127
1, 201391, Note_on_c, 0, 61, 59
1, 201422, Note_off_c, 0, 61, 65
1, 201448, Note_on_c, 0, 73, 75
1, 201470, Note_off_c, 0, 73, 69
1, 201502, Note_on_c, 0, 68, 79
1, 201521, Note_off_c, 0, 68, 71
1, 201555, Note_on_c, 0, 73, 69
1, 201575, Note_off_c, 0, 73, 68
1, 201627, Note_on_c, 0, 73, 76
1, 201651, Note_off_c, 0, 73, 68
1, 201651, Note_on_c, 0, 61, 55
1, 201680, Note_off_c, 0, 61, 64
1, 201709, Note_on_c, 0, 73, 71
1, 201723, Note_off_c, 0, 73, 69
1, 201776, Note_on_c, 0, 66, 79
1, 201800, Note_off_c, 0, 66, 69
1, 201811, Control_c, 0, 64, 62
1, 201826, Control_c, 0, 64, 67
1, 201841, Control_c, 0, 64, 69
1, 201847, Note_on_c, 0, 73, 63
1, 201856, Control_c, 0, 64, 70
1, 201886, Control_c, 0, 64, 70
1, 201887, Note_off_c, 0, 73, 64
1, 201916, Control_c, 0, 64, 71
1, 201925, Note_on_c, 0, 73, 48
1, 201927, Note_on_c, 0, 49, 52
1, 201944, Note_off_c, 0, 73, 62
1, 201946, Control_c, 0, 64, 71
1, 201958, Note_off_c, 0, 49, 63
1, 202012, Note_on_c, 0, 73, 59
1, 202030, Note_off_c, 0, 73, 58
1, 202048, Control_c, 0, 64, 70
1, 202063, Control_c, 0, 64, 68
1, 202068, Note_on_c, 0, 57, 49
1, 202077, Control_c, 0, 64, 63
1, 202083, Note_on_c, 0, 73, 65
1, 202092, Control_c, 0, 64, 43
1, 202099, Note_off_c, 0, 57, 63
1, 202099, Note_off_c, 0, 73, 66
1, 202107, Control_c, 0, 64, 0
1, 202151, Note_on_c, 0, 73, 67
1, 202167, Note_off_c, 0, 73, 64
1, 202193, Note_on_c, 0, 61, 60
1, 202220, Note_off_c, 0, 61, 65
1, 202226, Note_on_c, 0, 73, 34
1, 202252, Note_on_c, 0, 68, 81
1, 202258, Note_off_c, 0, 73, 32
1, 202281, Note_off_c, 0, 68, 64
1, 202323, Note_on_c, 0, 69, 85
1, 202350, Note_off_c, 0, 69, 67
1, 202376, Note_on_c, 0, 73, 68
1, 202416, Note_off_c, 0, 73, 66
1, 202462, Note_on_c, 0, 73, 63
1, 202482, Note_on_c, 0, 61, 58
1, 202485, Note_off_c, 0, 73, 66
1, 202513, Note_off_c, 0, 61, 64
1, 202542, Note_on_c, 0, 73, 59
1, 202561, Note_off_c, 0, 73, 64
1, 202592, Note_on_c, 0, 66, 72
1, 202614, Note_off_c, 0, 66, 69
1, 202631, Note_on_c, 0, 73, 73
1, 202655, Note_off_c, 0, 73, 68
1, 202699, Note_on_c, 0, 73, 73
1, 202715, Note_off_c, 0, 73, 68
1, 202741, Note_on_c, 0, 61, 53
1, 202766, Note_off_c, 0, 61, 63
1, 202841, Note_on_c, 0, 80, 83
1, 202894, Note_off_c, 0, 80, 61
1, 202914, Note_on_c, 0, 73, 66
1, 202940, Note_off_c, 0, 73, 66
1, 202995, Note_on_c, 0, 73, 65
1, 202996, Note_on_c, 0, 44, 56
1, 203005, Note_on_c, 0, 53, 43
1, 203012, Note_off_c, 0, 73, 64
1, 203027, Note_off_c, 0, 44, 65
1, 203035, Note_off_c, 0, 53, 34
1, 203065, Note_on_c, 0, 73, 59
1, 203084, Note_off_c, 0, 73, 63
1, 203130, Note_on_c, 0, 73, 62
1, 203136, Note_on_c, 0, 59, 59
1, 203155, Note_off_c, 0, 73, 63
1, 203167, Note_off_c, 0, 59, 64
1, 203210, Note_on_c, 0, 73, 64
1, 203227, Note_off_c, 0, 73, 64
1, 203282, Note_on_c, 0, 65, 57
1, 203302, Note_off_c, 0, 65, 64
1, 203302, Note_on_c, 0, 73, 21
1, 203341, Note_off_c, 0, 73, 30
1, 203396, Note_on_c, 0, 61, 76
1, 203401, Note_on_c, 0, 81, 74
1, 203420, Note_off_c, 0, 61, 69
1, 203424, Note_off_c, 0, 81, 69
1, 203437, Note_on_c, 0, 74, 4
1, 203469, Note_on_c, 0, 73, 56
1, 203484, Note_off_c, 0, 74, 31
1, 203495, Note_off_c, 0, 73, 59
1, 203551, Note_on_c, 0, 65, 53
1, 203579, Note_off_c, 0, 65, 64
1, 203648, Note_on_c, 0, 72, 34
1, 203657, Note_on_c, 0, 59, 66
1, 203661, Note_on_c, 0, 80, 65
1, 203673, Note_off_c, 0, 72, 57
1, 203683, Note_off_c, 0, 59, 65
1, 203687, Note_off_c, 0, 80, 68
1, 203764, Note_on_c, 0, 73, 42
1, 203797, Note_off_c, 0, 73, 64
1, 203806, Note_on_c, 0, 65, 49
1, 203830, Note_off_c, 0, 65, 58
1, 203851, Note_on_c, 0, 73, 57
1, 203869, Note_off_c, 0, 73, 63
1, 203922, Note_on_c, 0, 78, 81
1, 203978, Note_off_c, 0, 78, 49
1, 203983, Note_on_c, 0, 73, 63
1, 204020, Note_off_c, 0, 73, 63
1, 204056, Note_on_c, 0, 42, 57
1, 204061, Note_on_c, 0, 73, 59
1, 204092, Note_off_c, 0, 73, 64
1, 204092, Note_off_c, 0, 42, 65
1, 204141, Note_on_c, 0, 73, 50
1, 204163, Note_off_c, 0, 73, 61
1, 204189, Note_on_c, 0, 57, 60
1, 204214, Note_off_c, 0, 57, 65
1, 204252, Note_on_c, 0, 73, 70
1, 204280, Note_off_c, 0, 73, 66
1, 204331, Note_on_c, 0, 80, 83
1, 204337, Note_on_c, 0, 66, 67
1, 204365, Note_off_c, 0, 66, 68
1, 204377, Note_on_c, 0, 73, 49
1, 204377, Note_off_c, 0, 80, 63
1, 204401, Note_off_c, 0, 73, 36
1, 204457, Note_on_c, 0, 61, 77
1, 204458, Note_on_c, 0, 81, 81
1, 204463, Note_on_c, 0, 74, 70
1, 204485, Note_off_c, 0, 74, 72
1, 204487, Note_off_c, 0, 61, 67
1, 204499, Note_off_c, 0, 81, 62
1, 204542, Note_on_c, 0, 73, 65
1, 204569, Note_off_c, 0, 73, 66
1, 204611, Note_on_c, 0, 73, 57
1, 204613, Note_on_c, 0, 66, 49
1, 204631, Note_off_c, 0, 73, 35
1, 204635, Note_off_c, 0, 66, 62
1, 204706, Note_on_c, 0, 73, 42
1, 204719, Note_on_c, 0, 57, 60
1, 204728, Note_on_c, 0, 78, 73
1, 204734, Note_off_c, 0, 73, 35
1, 204735, Note_on_c, 0, 72, 60
1, 204748, Note_off_c, 0, 57, 63
1, 204752, Note_off_c, 0, 72, 64
1, 204784, Note_off_c, 0, 78, 58
1, 204806, Note_on_c, 0, 73, 60
1, 204825, Note_off_c, 0, 73, 66
1, 204852, Note_on_c, 0, 66, 63
1, 204867, Note_on_c, 0, 73, 69
1, 204879, Note_off_c, 0, 66, 68
1, 204891, Note_off_c, 0, 73, 68
1, 204942, Note_on_c, 0, 73, 56
1, 204962, Note_off_c, 0, 73, 59
1, 204989, Note_on_c, 0, 80, 80
1, 205044, Note_on_c, 0, 73, 63
1, 205046, Note_off_c, 0, 80, 62
1, 205084, Note_off_c, 0, 73, 64
1, 205107, Note_on_c, 0, 44, 57
1, 205111, Poly_aftertouch_c, 0, 73, 0
1, 205120, Note_on_c, 0, 73, 61
1, 205140, Note_off_c, 0, 44, 64
1, 205156, Note_off_c, 0, 73, 64
1, 205200, Note_on_c, 0, 73, 53
1, 205228, Note_off_c, 0, 73, 66
1, 205251, Note_on_c, 0, 59, 65
1, 205263, Note_on_c, 0, 73, 64
1, 205276, Note_off_c, 0, 59, 66
1, 205279, Note_off_c, 0, 73, 62
1, 205330, Note_on_c, 0, 73, 54
1, 205352, Note_off_c, 0, 73, 54
1, 205401, Note_on_c, 0, 83, 87
1, 205402, Note_on_c, 0, 65, 67
1, 205428, Note_off_c, 0, 65, 67
1, 205447, Note_off_c, 0, 83, 60
1, 205469, Note_on_c, 0, 73, 67
1, 205490, Note_off_c, 0, 73, 67
1, 205538, Note_on_c, 0, 61, 77
1, 205547, Note_on_c, 0, 74, 82
1, 205548, Note_on_c, 0, 81, 81
1, 205562, Note_off_c, 0, 61, 69
1, 205574, Note_off_c, 0, 81, 57
1, 205578, Note_off_c, 0, 74, 63
1, 205630, Note_on_c, 0, 73, 70
1, 205654, Note_off_c, 0, 73, 66
1, 205697, Note_on_c, 0, 73, 82
1, 205703, Note_on_c, 0, 65, 51
1, 205717, Note_off_c, 0, 73, 70
1, 205727, Note_off_c, 0, 65, 63
1, 205764, Note_on_c, 0, 73, 70
1, 205791, Note_off_c, 0, 73, 66
1, 205811, Note_on_c, 0, 59, 61
1, 205813, Note_on_c, 0, 72, 64
1, 205820, Note_on_c, 0, 80, 69
1, 205831, Note_off_c, 0, 72, 66
1, 205841, Note_off_c, 0, 59, 64
1, 205860, Note_off_c, 0, 80, 56
1, 205885, Note_on_c, 0, 73, 56
1, 205904, Note_off_c, 0, 73, 61
1, 205949, Note_on_c, 0, 65, 54
1, 205951, Note_on_c, 0, 73, 67
1, 205968, Note_off_c, 0, 73, 66
1, 205972, Note_off_c, 0, 65, 62
1, 206031, Note_on_c, 0, 73, 58
1, 206050, Note_off_c, 0, 73, 61
1, 206077, Note_on_c, 0, 78, 74
1, 206120, Note_off_c, 0, 78, 58
1, 206142, Note_on_c, 0, 73, 66
1, 206173, Note_off_c, 0, 73, 66
1, 206217, Note_on_c, 0, 73, 61
1, 206217, Note_on_c, 0, 42, 56
1, 206250, Note_off_c, 0, 42, 63
1, 206252, Note_off_c, 0, 73, 63
1, 206293, Note_on_c, 0, 73, 56
1, 206313, Note_off_c, 0, 73, 61
1, 206366, Note_on_c, 0, 73, 59
1, 206368, Note_on_c, 0, 57, 45
1, 206387, Note_off_c, 0, 73, 57
1, 206394, Note_off_c, 0, 57, 49
1, 206420, Note_on_c, 0, 73, 73
1, 206449, Note_off_c, 0, 73, 64
1, 206503, Note_on_c, 0, 80, 74
1, 206513, Note_on_c, 0, 66, 53
1, 206533, Note_off_c, 0, 66, 63
1, 206550, Note_on_c, 0, 73, 70
1, 206551, Note_off_c, 0, 80, 62
1, 206574, Note_off_c, 0, 73, 67
1, 206635, Note_on_c, 0, 81, 82
1, 206645, Note_on_c, 0, 61, 64
1, 206649, Note_on_c, 0, 74, 70
1, 206671, Note_off_c, 0, 61, 66
1, 206675, Note_off_c, 0, 74, 67
1, 206685, Note_off_c, 0, 81, 58
1, 206730, Note_on_c, 0, 73, 71
1, 206757, Note_off_c, 0, 73, 65
1, 206791, Note_on_c, 0, 66, 55
1, 206799, Note_on_c, 0, 73, 68
1, 206817, Note_off_c, 0, 73, 61
1, 206824, Note_off_c, 0, 66, 67
1, 206893, Note_on_c, 0, 73, 61
1, 206912, Note_off_c, 0, 73, 64
1, 206926, Note_on_c, 0, 78, 74
1, 206932, Note_on_c, 0, 57, 62
1, 206940, Note_on_c, 0, 72, 54
1, 206958, Note_off_c, 0, 72, 63
1, 206960, Note_off_c, 0, 57, 64
1, 206980, Note_off_c, 0, 78, 51
1, 207007, Note_on_c, 0, 73, 58
1, 207075, Note_off_c, 0, 73, 34
1, 207118, Note_on_c, 0, 73, 79
1, 207138, Note_off_c, 0, 73, 69
1, 207219, Note_on_c, 0, 85, 86
1, 207223, Note_on_c, 0, 73, 75
1, 207224, Note_on_c, 0, 74, 71
1, 207225, Note_on_c, 0, 65, 68
1, 207229, Note_on_c, 0, 68, 70
1, 207242, Note_off_c, 0, 74, 69
1, 207246, Note_off_c, 0, 73, 69
1, 207251, Note_off_c, 0, 65, 67
1, 207253, Note_off_c, 0, 68, 68
1, 207258, Note_off_c, 0, 85, 62
1, 207328, Note_on_c, 0, 73, 38
1, 207386, Note_off_c, 0, 73, 0
1, 207386, Note_on_c, 0, 73, 42
1, 207411, Note_off_c, 0, 73, 58
1, 207482, Note_on_c, 0, 73, 57
1, 207501, Note_off_c, 0, 73, 61
1, 207554, Note_on_c, 0, 85, 76
1, 207564, Note_on_c, 0, 71, 52
1, 207565, Note_on_c, 0, 65, 44
1, 207571, Note_on_c, 0, 61, 48
1, 207602, Control_c, 0, 64, 20
1, 207606, Note_off_c, 0, 85, 63
1, 207617, Control_c, 0, 64, 63
1, 207639, Control_c, 0, 64, 67
1, 207640, Note_on_c, 0, 73, 62
1, 207650, Note_off_c, 0, 71, 51
1, 207654, Control_c, 0, 64, 69
1, 207669, Control_c, 0, 64, 72
1, 207673, Note_off_c, 0, 73, 63
1, 207684, Control_c, 0, 64, 75
1, 207686, Note_off_c, 0, 65, 38
1, 207693, Note_off_c, 0, 61, 59
1, 207698, Control_c, 0, 64, 78
1, 207713, Control_c, 0, 64, 80
1, 207728, Control_c, 0, 64, 81
1, 207735, Note_on_c, 0, 73, 59
1, 207743, Control_c, 0, 64, 81
1, 207755, Note_off_c, 0, 73, 60
1, 207758, Control_c, 0, 64, 82
1, 207787, Control_c, 0, 64, 82
1, 207817, Control_c, 0, 64, 82
1, 207818, Note_on_c, 0, 73, 42
1, 207832, Control_c, 0, 64, 79
1, 207844, Note_off_c, 0, 73, 51
1, 207846, Control_c, 0, 64, 73
1, 207854, Note_on_c, 0, 85, 76
1, 207861, Note_on_c, 0, 49, 55
1, 207861, Control_c, 0, 64, 59
1, 207876, Control_c, 0, 64, 0
1, 207881, Note_off_c, 0, 85, 62
1, 207887, Note_off_c, 0, 49, 51
1, 207915, Note_on_c, 0, 73, 69
1, 207943, Note_off_c, 0, 73, 65
1, 208001, Note_on_c, 0, 69, 67
1, 208003, Note_on_c, 0, 73, 70
1, 208014, Note_on_c, 0, 61, 52
1, 208027, Note_off_c, 0, 73, 67
1, 208028, Note_off_c, 0, 69, 71
1, 208035, Note_off_c, 0, 61, 60
1, 208077, Note_on_c, 0, 73, 63
1, 208096, Note_off_c, 0, 73, 66
1, 208124, Note_on_c, 0, 85, 79
1, 208131, Note_on_c, 0, 59, 63
1, 208153, Note_off_c, 0, 59, 64
1, 208161, Note_off_c, 0, 85, 63
1, 208183, Note_on_c, 0, 73, 69
1, 208216, Note_off_c, 0, 73, 61
1, 208250, Note_on_c, 0, 68, 76
1, 208253, Note_on_c, 0, 65, 53
1, 208253, Note_on_c, 0, 73, 66
1, 208261, Note_on_c, 0, 61, 69
1, 208273, Note_off_c, 0, 68, 70
1, 208274, Note_off_c, 0, 65, 62
1, 208280, Note_off_c, 0, 73, 65
1, 208285, Note_off_c, 0, 61, 66
1, 208333, Note_on_c, 0, 73, 69
1, 208351, Note_off_c, 0, 73, 67
1, 208398, Note_on_c, 0, 85, 91
1, 208402, Note_on_c, 0, 74, 84
1, 208408, Note_on_c, 0, 66, 74
1, 208414, Note_on_c, 0, 69, 63
1, 208420, Note_off_c, 0, 74, 74
1, 208423, Note_on_c, 0, 73, 51
1, 208432, Note_off_c, 0, 69, 65
1, 208433, Note_off_c, 0, 66, 69
1, 208444, Note_off_c, 0, 85, 64
1, 208447, Note_off_c, 0, 73, 38
1, 208635, Note_on_c, 0, 73, 52
1, 208671, Note_off_c, 0, 73, 64
1, 208709, Note_on_c, 0, 85, 77
1, 208710, Note_on_c, 0, 66, 58
1, 208713, Control_c, 0, 64, 45
1, 208717, Note_on_c, 0, 69, 49
1, 208721, Note_on_c, 0, 61, 50
1, 208728, Control_c, 0, 64, 66
1, 208742, Note_off_c, 0, 85, 58
1, 208743, Control_c, 0, 64, 71
1, 208758, Control_c, 0, 64, 75
1, 208759, Note_off_c, 0, 69, 50
1, 208766, Note_off_c, 0, 66, 53
1, 208767, Note_on_c, 0, 73, 72
1, 208773, Control_c, 0, 64, 77
1, 208787, Control_c, 0, 64, 78
1, 208790, Note_off_c, 0, 61, 54
1, 208797, Note_off_c, 0, 73, 63
1, 208802, Control_c, 0, 64, 79
1, 208817, Control_c, 0, 64, 80
1, 208832, Control_c, 0, 64, 81
1, 208847, Control_c, 0, 64, 82
1, 208852, Note_on_c, 0, 73, 65
1, 208861, Control_c, 0, 64, 84
1, 208876, Control_c, 0, 64, 85
1, 208877, Note_off_c, 0, 73, 69
1, 208891, Control_c, 0, 64, 85
1, 208924, Note_on_c, 0, 73, 72
1, 208936, Control_c, 0, 64, 85
1, 208945, Note_off_c, 0, 73, 69
1, 208951, Control_c, 0, 64, 83
1, 208966, Control_c, 0, 64, 77
1, 208976, Note_on_c, 0, 49, 58
1, 208978, Note_on_c, 0, 85, 74
1, 208980, Control_c, 0, 64, 66
1, 208995, Control_c, 0, 64, 0
1, 208999, Note_off_c, 0, 49, 56
1, 209005, Note_off_c, 0, 85, 62
1, 209034, Note_on_c, 0, 73, 75
1, 209061, Note_off_c, 0, 73, 62
1, 209113, Note_on_c, 0, 68, 69
1, 209113, Note_on_c, 0, 73, 70
1, 209121, Note_on_c, 0, 61, 61
1, 209144, Note_off_c, 0, 73, 67
1, 209145, Note_off_c, 0, 68, 69
1, 209157, Note_off_c, 0, 61, 64
1, 209189, Note_on_c, 0, 73, 74
1, 209214, Note_off_c, 0, 73, 68
1, 209240, Note_on_c, 0, 85, 83
1, 209243, Note_on_c, 0, 54, 71
1, 209269, Note_off_c, 0, 54, 65
1, 209282, Note_off_c, 0, 85, 63
1, 209300, Note_on_c, 0, 73, 75
1, 209329, Note_off_c, 0, 73, 62
1, 209362, Note_on_c, 0, 57, 63
1, 209365, Note_on_c, 0, 61, 69
1, 209365, Note_on_c, 0, 66, 71
1, 209368, Note_on_c, 0, 73, 68
1, 209392, Note_off_c, 0, 57, 64
1, 209392, Note_off_c, 0, 61, 66
1, 209393, Note_off_c, 0, 66, 69
1, 209395, Note_off_c, 0, 73, 67
1, 209440, Note_on_c, 0, 73, 75
1, 209462, Note_off_c, 0, 73, 67
1, 209496, Note_on_c, 0, 74, 86
1, 209502, Note_on_c, 0, 85, 87
1, 209505, Note_on_c, 0, 65, 70
1, 209512, Note_on_c, 0, 73, 62
1, 209512, Note_off_c, 0, 74, 77
1, 209517, Note_on_c, 0, 68, 54
1, 209523, Note_off_c, 0, 65, 69
1, 209530, Note_off_c, 0, 73, 62
1, 209536, Note_off_c, 0, 68, 62
1, 209548, Note_off_c, 0, 85, 63
1, 209580, Note_on_c, 0, 73, 62
1, 209601, Note_off_c, 0, 73, 66
1, 209774, Control_c, 0, 64, 64
1, 209786, Note_on_c, 0, 71, 67
1, 209789, Note_on_c, 0, 85, 72
1, 209789, Control_c, 0, 64, 71
1, 209791, Note_on_c, 0, 61, 65
1, 209791, Note_on_c, 0, 65, 63
1, 209805, Control_c, 0, 64, 77
1, 209812, Note_off_c, 0, 85, 69
1, 209820, Control_c, 0, 64, 80
1, 209827, Note_off_c, 0, 71, 55
1, 209834, Control_c, 0, 64, 81
1, 209837, Note_off_c, 0, 65, 56
1, 209848, Note_on_c, 0, 73, 77
1, 209849, Control_c, 0, 64, 81
1, 209864, Control_c, 0, 64, 82
1, 209872, Note_off_c, 0, 73, 67
1, 209886, Control_c, 0, 64, 83
1, 209894, Note_off_c, 0, 61, 62
1, 209901, Control_c, 0, 64, 84
1, 209916, Control_c, 0, 64, 85
1, 209931, Control_c, 0, 64, 85
1, 209941, Note_on_c, 0, 73, 65
1, 209946, Control_c, 0, 64, 86
1, 209956, Note_off_c, 0, 73, 68
1, 209960, Control_c, 0, 64, 87
1, 209990, Control_c, 0, 64, 87
1, 210014, Note_on_c, 0, 73, 62
1, 210020, Control_c, 0, 64, 87
1, 210032, Note_off_c, 0, 73, 61
1, 210034, Control_c, 0, 64, 86
1, 210049, Note_on_c, 0, 85, 80
1, 210049, Control_c, 0, 64, 82
1, 210050, Note_on_c, 0, 49, 70
1, 210064, Control_c, 0, 64, 74
1, 210069, Note_off_c, 0, 49, 62
1, 210079, Control_c, 0, 64, 58
1, 210081, Note_off_c, 0, 85, 61
1, 210093, Control_c, 0, 64, 0
1, 210100, Note_on_c, 0, 73, 75
1, 210140, Note_off_c, 0, 73, 63
1, 210177, Note_on_c, 0, 73, 67
1, 210191, Note_on_c, 0, 69, 75
1, 210197, Note_on_c, 0, 65, 61
1, 210210, Note_off_c, 0, 73, 64
1, 210213, Note_off_c, 0, 69, 72
1, 210217, Note_on_c, 0, 61, 34
1, 210217, Note_off_c, 0, 65, 65
1, 210248, Note_off_c, 0, 61, 33
1, 210248, Note_on_c, 0, 73, 67
1, 210283, Note_off_c, 0, 73, 65
1, 210308, Note_on_c, 0, 85, 81
1, 210315, Note_on_c, 0, 59, 77
1, 210349, Note_off_c, 0, 85, 64
1, 210352, Note_off_c, 0, 59, 64
1, 210367, Note_on_c, 0, 73, 72
1, 210393, Note_off_c, 0, 73, 66
1, 210432, Note_on_c, 0, 68, 75
1, 210432, Note_on_c, 0, 65, 61
1, 210437, Note_on_c, 0, 73, 76
1, 210452, Note_on_c, 0, 61, 66
1, 210452, Note_off_c, 0, 65, 67
1, 210455, Note_off_c, 0, 68, 70
1, 210461, Note_off_c, 0, 73, 65
1, 210478, Note_off_c, 0, 61, 66
1, 210505, Note_on_c, 0, 73, 85
1, 210525, Note_off_c, 0, 73, 70
1, 210572, Note_on_c, 0, 85, 86
1, 210573, Note_on_c, 0, 74, 82
1, 210580, Note_on_c, 0, 66, 75
1, 210580, Note_on_c, 0, 69, 72
1, 210587, Note_on_c, 0, 73, 62
1, 210593, Note_off_c, 0, 74, 73
1, 210596, Control_c, 0, 64, 52
1, 210605, Note_off_c, 0, 69, 72
1, 210605, Note_off_c, 0, 73, 41
1, 210606, Note_off_c, 0, 66, 68
1, 210612, Control_c, 0, 64, 56
1, 210630, Note_off_c, 0, 85, 63
1, 210635, Control_c, 0, 64, 53
1, 210650, Control_c, 0, 64, 52
1, 210659, Note_on_c, 0, 73, 65
1, 210664, Control_c, 0, 64, 53
1, 210679, Control_c, 0, 64, 54
1, 210680, Note_off_c, 0, 73, 66
1, 210694, Control_c, 0, 64, 53
1, 210708, Control_c, 0, 64, 51
1, 210723, Control_c, 0, 64, 49
1, 210732, Note_on_c, 0, 73, 74
1, 210738, Control_c, 0, 64, 48
1, 210755, Note_off_c, 0, 73, 67
1, 210768, Control_c, 0, 64, 42
1, 210782, Control_c, 0, 64, 0
1, 210801, Note_on_c, 0, 73, 79
1, 210823, Note_off_c, 0, 73, 69
1, 210852, Note_on_c, 0, 66, 75
1, 210852, Note_on_c, 0, 85, 79
1, 210855, Note_on_c, 0, 69, 77
1, 210865, Note_on_c, 0, 61, 63
1, 210883, Note_off_c, 0, 69, 67
1, 210886, Control_c, 0, 64, 39
1, 210889, Note_off_c, 0, 85, 64
1, 210897, Note_off_c, 0, 66, 64
1, 210901, Control_c, 0, 64, 65
1, 210906, Note_off_c, 0, 61, 63
1, 210906, Note_on_c, 0, 73, 77
1, 210915, Control_c, 0, 64, 68
1, 210930, Control_c, 0, 64, 69
1, 210945, Control_c, 0, 64, 70
1, 210946, Note_off_c, 0, 73, 61
1, 210960, Control_c, 0, 64, 72
1, 210975, Control_c, 0, 64, 74
1, 210986, Note_on_c, 0, 73, 59
1, 210990, Control_c, 0, 64, 76
1, 211005, Control_c, 0, 64, 76
1, 211014, Note_off_c, 0, 73, 64
1, 211056, Note_on_c, 0, 73, 75
1, 211081, Note_off_c, 0, 73, 64
1, 211100, Note_on_c, 0, 49, 51
1, 211117, Note_on_c, 0, 85, 81
1, 211127, Note_off_c, 0, 49, 51
1, 211138, Control_c, 0, 64, 75
1, 211144, Note_off_c, 0, 85, 59
1, 211153, Control_c, 0, 64, 72
1, 211168, Control_c, 0, 64, 66
1, 211174, Note_on_c, 0, 73, 77
1, 211182, Control_c, 0, 64, 41
1, 211197, Control_c, 0, 64, 0
1, 211200, Note_off_c, 0, 73, 65
1, 211240, Note_on_c, 0, 68, 71
1, 211245, Note_on_c, 0, 73, 73
1, 211252, Note_on_c, 0, 61, 58
1, 211266, Note_off_c, 0, 68, 68
1, 211268, Note_off_c, 0, 73, 66
1, 211271, Note_off_c, 0, 61, 61
1, 211317, Note_on_c, 0, 73, 78
1, 211338, Note_off_c, 0, 73, 69
1, 211363, Note_on_c, 0, 54, 72
1, 211365, Note_on_c, 0, 85, 76
1, 211404, Note_off_c, 0, 85, 66
1, 211405, Note_off_c, 0, 54, 61
1, 211425, Note_on_c, 0, 73, 70
1, 211452, Note_off_c, 0, 73, 64
1, 211495, Note_on_c, 0, 73, 76
1, 211497, Note_on_c, 0, 61, 72
1, 211499, Note_on_c, 0, 57, 64
1, 211499, Note_on_c, 0, 66, 74
1, 211518, Note_off_c, 0, 73, 68
1, 211526, Note_off_c, 0, 61, 65
1, 211527, Note_off_c, 0, 57, 63
1, 211527, Note_off_c, 0, 66, 66
1, 211562, Note_on_c, 0, 73, 86
1, 211588, Note_off_c, 0, 73, 63
1, 211620, Control_c, 0, 64, 59
1, 211634, Note_on_c, 0, 74, 84
1, 211634, Note_on_c, 0, 85, 75
1, 211635, Control_c, 0, 64, 72
1, 211637, Note_on_c, 0, 65, 74
1, 211647, Note_on_c, 0, 73, 52
1, 211650, Note_on_c, 0, 68, 64
1, 211650, Control_c, 0, 64, 81
1, 211651, Note_off_c, 0, 74, 75
1, 211663, Note_off_c, 0, 65, 70
1, 211664, Control_c, 0, 64, 88
1, 211670, Note_off_c, 0, 73, 56
1, 211678, Note_off_c, 0, 68, 67
1, 211679, Control_c, 0, 64, 92
1, 211681, Note_off_c, 0, 85, 63
1, 211694, Control_c, 0, 64, 96
1, 211702, Note_on_c, 0, 73, 59
1, 211709, Control_c, 0, 64, 99
1, 211724, Control_c, 0, 64, 103
1, 211738, Note_off_c, 0, 73, 63
1, 211738, Control_c, 0, 64, 106
1, 211753, Control_c, 0, 64, 108
1, 211760, Note_on_c, 0, 85, 75
1, 211768, Control_c, 0, 64, 109
1, 211783, Control_c, 0, 64, 110
1, 211798, Control_c, 0, 64, 110
1, 211798, Note_off_c, 0, 85, 66
1, 211812, Control_c, 0, 64, 112
1, 211827, Control_c, 0, 64, 113
1, 211842, Control_c, 0, 64, 115
1, 211842, Note_on_c, 0, 85, 76
1, 211856, Control_c, 0, 64, 115
1, 211886, Control_c, 0, 64, 116
1, 211891, Note_off_c, 0, 85, 66
1, 211901, Control_c, 0, 64, 117
1, 211905, Note_on_c, 0, 71, 82
1, 211909, Note_on_c, 0, 65, 71
1, 211912, Note_on_c, 0, 61, 78
1, 211916, Control_c, 0, 64, 117
1, 211917, Note_on_c, 0, 97, 84
1, 211923, Note_off_c, 0, 71, 70
1, 211930, Control_c, 0, 64, 118
1, 211933, Note_off_c, 0, 65, 68
1, 211953, Note_off_c, 0, 61, 61
1, 211959, Note_off_c, 0, 97, 64
1, 211960, Control_c, 0, 64, 119
1, 211962, Note_on_c, 0, 85, 80
1, 211990, Control_c, 0, 64, 119
1, 212000, Note_off_c, 0, 85, 67
1, 212004, Control_c, 0, 64, 120
1, 212019, Control_c, 0, 64, 121
1, 212034, Control_c, 0, 64, 121
1, 212063, Control_c, 0, 64, 122
1, 212068, Note_on_c, 0, 85, 78
1, 212093, Control_c, 0, 64, 121
1, 212108, Control_c, 0, 64, 114
1, 212130, Control_c, 0, 64, 94
1, 212133, Note_on_c, 0, 73, 80
1, 212137, Note_off_c, 0, 85, 59
1, 212145, Control_c, 0, 64, 70
1, 212160, Control_c, 0, 64, 0
1, 212163, Note_off_c, 0, 73, 62
1, 212186, Note_on_c, 0, 61, 90
1, 212190, Control_c, 0, 64, 67
1, 212191, Note_on_c, 0, 49, 80
1, 212192, Note_on_c, 0, 85, 67
1, 212206, Control_c, 0, 64, 87
1, 212218, Note_off_c, 0, 49, 67
1, 212219, Note_off_c, 0, 61, 62
1, 212221, Control_c, 0, 64, 108
1, 212235, Control_c, 0, 64, 120
1, 212243, Note_off_c, 0, 85, 66
1, 212244, Note_on_c, 0, 73, 76
1, 212250, Control_c, 0, 64, 121
1, 212265, Control_c, 0, 64, 125
1, 212274, Note_off_c, 0, 73, 62
1, 212279, Control_c, 0, 64, 127
1, 212322, Note_on_c, 0, 73, 73
1, 212349, Note_off_c, 0, 73, 64
1, 212389, Note_on_c, 0, 73, 74
1, 212436, Note_off_c, 0, 73, 62
1, 212448, Note_on_c, 0, 71, 92
1, 212453, Note_on_c, 0, 85, 84
1, 212459, Note_on_c, 0, 65, 77
1, 212459, Note_on_c, 0, 61, 80
1, 212477, Note_off_c, 0, 71, 62
1, 212481, Note_off_c, 0, 65, 70
1, 212486, Note_off_c, 0, 61, 62
1, 212494, Note_off_c, 0, 85, 65
1, 212504, Note_on_c, 0, 73, 73
1, 212548, Note_off_c, 0, 73, 57
1, 212570, Note_on_c, 0, 73, 60
1, 212602, Note_off_c, 0, 73, 65
1, 212647, Note_on_c, 0, 73, 76
1, 212650, Control_c, 0, 64, 120
1, 212665, Control_c, 0, 64, 93
1, 212679, Control_c, 0, 64, 63
1, 212686, Note_off_c, 0, 73, 63
1, 212694, Control_c, 0, 64, 0
1, 212713, Note_on_c, 0, 74, 95
1, 212714, Note_on_c, 0, 70, 61
1, 212715, Note_on_c, 0, 73, 69
1, 212720, Note_on_c, 0, 85, 79
1, 212723, Note_on_c, 0, 66, 71
1, 212724, Control_c, 0, 64, 64
1, 212739, Control_c, 0, 64, 82
1, 212740, Note_off_c, 0, 74, 69
1, 212743, Note_off_c, 0, 73, 68
1, 212753, Control_c, 0, 64, 104
1, 212758, Note_off_c, 0, 66, 66
1, 212760, Note_off_c, 0, 70, 65
1, 212768, Control_c, 0, 64, 127
1, 212773, Note_off_c, 0, 85, 63
1, 212784, Note_on_c, 0, 73, 75
1, 212817, Note_off_c, 0, 73, 60
1, 212853, Note_on_c, 0, 85, 72
1, 212883, Note_off_c, 0, 85, 69
1, 212932, Note_on_c, 0, 85, 74
1, 212983, Note_off_c, 0, 85, 66
1, 212999, Note_on_c, 0, 70, 96
1, 213001, Note_on_c, 0, 66, 89
1, 213003, Note_on_c, 0, 97, 88
1, 213009, Note_on_c, 0, 61, 76
1, 213020, Note_off_c, 0, 70, 71
1, 213038, Note_off_c, 0, 66, 66
1, 213042, Note_off_c, 0, 61, 64
1, 213053, Note_off_c, 0, 97, 64
1, 213061, Note_on_c, 0, 85, 85
1, 213100, Note_off_c, 0, 85, 65
1, 213157, Note_on_c, 0, 85, 75
1, 213211, Note_off_c, 0, 85, 63
1, 213221, Control_c, 0, 64, 123
1, 213227, Note_on_c, 0, 73, 76
1, 213236, Control_c, 0, 64, 90
1, 213251, Control_c, 0, 64, 0
1, 213256, Note_off_c, 0, 73, 62
1, 213276, Note_on_c, 0, 61, 97
1, 213277, Note_on_c, 0, 49, 80
1, 213282, Note_on_c, 0, 85, 72
1, 213295, Control_c, 0, 64, 69
1, 213305, Note_off_c, 0, 61, 62
1, 213308, Note_off_c, 0, 49, 65
1, 213309, Control_c, 0, 64, 88
1, 213324, Control_c, 0, 64, 112
1, 213333, Note_off_c, 0, 85, 65
1, 213335, Note_on_c, 0, 73, 79
1, 213339, Control_c, 0, 64, 127
1, 213368, Note_off_c, 0, 73, 59
1, 213385, Poly_aftertouch_c, 0, 60, 0
1, 213416, Note_on_c, 0, 73, 73
1, 213445, Note_off_c, 0, 73, 64
1, 213486, Note_on_c, 0, 73, 71
1, 213531, Note_on_c, 0, 66, 84
1, 213533, Note_on_c, 0, 70, 86
1, 213538, Note_off_c, 0, 73, 60
1, 213538, Poly_aftertouch_c, 0, 64, 127
1, 213544, Note_on_c, 0, 61, 74
1, 213544, Note_on_c, 0, 85, 79
1, 213555, Note_off_c, 0, 70, 68
1, 213573, Note_off_c, 0, 66, 67
1, 213582, Note_off_c, 0, 61, 60
1, 213585, Note_off_c, 0, 85, 65
1, 213591, Poly_aftertouch_c, 0, 64, 0
1, 213601, Note_on_c, 0, 73, 71
1, 213652, Note_off_c, 0, 73, 0
1, 213674, Note_on_c, 0, 73, 52
1, 213703, Note_off_c, 0, 73, 66
1, 213759, Note_on_c, 0, 73, 82
1, 213782, Note_off_c, 0, 73, 67
1, 213816, Note_on_c, 0, 85, 86
1, 213816, Note_on_c, 0, 60, 85
1, 213822, Control_c, 0, 64, 107
1, 213823, Note_on_c, 0, 48, 76
1, 213837, Control_c, 0, 64, 88
1, 213840, Note_off_c, 0, 60, 66
1, 213847, Note_off_c, 0, 48, 68
1, 213851, Control_c, 0, 64, 69
1, 213866, Control_c, 0, 64, 0
1, 213875, Note_off_c, 0, 85, 61
1, 213880, Note_on_c, 0, 73, 81
1, 213917, Note_off_c, 0, 73, 60
1, 213956, Note_on_c, 0, 85, 78
1, 213963, Note_on_c, 0, 61, 84
1, 213968, Note_on_c, 0, 56, 76
1, 213983, Note_on_c, 0, 49, 68
1, 213987, Note_off_c, 0, 61, 67
1, 213991, Note_off_c, 0, 85, 69
1, 214003, Note_off_c, 0, 56, 60
1, 214010, Note_on_c, 0, 53, 22
1, 214012, Note_off_c, 0, 49, 63
1, 214044, Note_on_c, 0, 85, 74
1, 214049, Note_off_c, 0, 53, 39
1, 214088, Control_c, 0, 64, 64
1, 214091, Note_on_c, 0, 59, 98
1, 214093, Note_off_c, 0, 85, 66
1, 214093, Note_on_c, 0, 47, 89
1, 214103, Control_c, 0, 64, 81
1, 214108, Note_on_c, 0, 97, 94
1, 214112, Note_on_c, 0, 49, 49
1, 214118, Control_c, 0, 64, 94
1, 214126, Note_off_c, 0, 59, 68
1, 214131, Note_off_c, 0, 47, 63
1, 214132, Control_c, 0, 64, 102
1, 214138, Note_off_c, 0, 49, 53
1, 214147, Control_c, 0, 64, 105
1, 214156, Note_off_c, 0, 97, 65
1, 214162, Control_c, 0, 64, 109
1, 214170, Note_on_c, 0, 85, 81
1, 214177, Control_c, 0, 64, 112
1, 214192, Control_c, 0, 64, 114
1, 214194, Note_off_c, 0, 85, 67
1, 214206, Control_c, 0, 64, 118
1, 214221, Control_c, 0, 64, 121
1, 214236, Control_c, 0, 64, 123
1, 214251, Control_c, 0, 64, 126
1, 214263, Note_on_c, 0, 85, 83
1, 214266, Control_c, 0, 64, 127
1, 214305, Note_on_c, 0, 61, 86
1, 214317, Note_on_c, 0, 49, 78
1, 214317, Note_off_c, 0, 85, 61
1, 214322, Note_on_c, 0, 73, 93
1, 214328, Note_off_c, 0, 61, 67
1, 214343, Note_off_c, 0, 49, 67
1, 214351, Note_on_c, 0, 55, 11
1, 214362, Note_off_c, 0, 73, 64
1, 214388, Note_off_c, 0, 55, 0
1, 214400, Note_on_c, 0, 85, 82
1, 214415, Note_on_c, 0, 60, 96
1, 214424, Note_on_c, 0, 48, 80
1, 214448, Note_off_c, 0, 48, 68
1, 214450, Note_off_c, 0, 60, 67
1, 214463, Note_on_c, 0, 73, 82
1, 214466, Control_c, 0, 64, 121
1, 214469, Note_off_c, 0, 85, 61
1, 214480, Control_c, 0, 64, 115
1, 214482, Poly_aftertouch_c, 0, 55, 0
1, 214495, Control_c, 0, 64, 107
1, 214510, Control_c, 0, 64, 96
1, 214512, Note_off_c, 0, 73, 63
1, 214521, Poly_aftertouch_c, 0, 53, 127
1, 214525, Control_c, 0, 64, 82
1, 214540, Control_c, 0, 64, 65
1, 214542, Note_on_c, 0, 85, 57
1, 214555, Control_c, 0, 64, 0
1, 214557, Note_on_c, 0, 61, 94
1, 214564, Note_on_c, 0, 49, 83
1, 214587, Note_off_c, 0, 61, 64
1, 214589, Note_off_c, 0, 85, 66
1, 214597, Note_off_c, 0, 49, 62
1, 214599, Poly_aftertouch_c, 0, 53, 0
1, 214635, Note_on_c, 0, 85, 74
1, 214689, Note_off_c, 0, 85, 65
1, 214704, Control_c, 0, 64, 64
1, 214719, Control_c, 0, 64, 82
1, 214721, Note_on_c, 0, 53, 68
1, 214721, Note_on_c, 0, 97, 97
1, 214726, Note_on_c, 0, 56, 97
1, 214734, Control_c, 0, 64, 97
1, 214735, Note_on_c, 0, 49, 68
1, 214736, Note_on_c, 0, 44, 71
1, 214748, Control_c, 0, 64, 106
1, 214752, Note_on_c, 0, 46, 56
1, 214763, Control_c, 0, 64, 110
1, 214764, Note_off_c, 0, 56, 66
1, 214766, Note_on_c, 0, 98, 35
1, 214767, Note_off_c, 0, 98, 127
1, 214767, Note_off_c, 0, 44, 65
1, 214778, Control_c, 0, 64, 121
1, 214779, Note_off_c, 0, 46, 55
1, 214779, Note_off_c, 0, 53, 66
1, 214782, Note_off_c, 0, 97, 65
1, 214791, Note_off_c, 0, 49, 63
1, 214793, Control_c, 0, 64, 127
1, 214794, Note_on_c, 0, 85, 83
1, 214829, Note_off_c, 0, 85, 63
1, 214886, Note_on_c, 0, 85, 79
1, 214939, Note_on_c, 0, 61, 87
1, 214945, Note_on_c, 0, 49, 82
1, 214948, Note_off_c, 0, 85, 64
1, 214957, Note_on_c, 0, 73, 95
1, 214962, Note_off_c, 0, 61, 67
1, 214974, Note_off_c, 0, 49, 65
1, 214998, Note_off_c, 0, 73, 63
1, 215028, Note_on_c, 0, 60, 87
1, 215029, Control_c, 0, 64, 119
1, 215031, Note_on_c, 0, 85, 85
1, 215043, Note_on_c, 0, 48, 82
1, 215044, Control_c, 0, 64, 102
1, 215059, Control_c, 0, 64, 83
1, 215067, Note_off_c, 0, 48, 69
1, 215074, Note_off_c, 0, 60, 63
1, 215074, Control_c, 0, 64, 67
1, 215089, Control_c, 0, 64, 0
1, 215098, Note_on_c, 0, 73, 87
1, 215111, Note_off_c, 0, 85, 63
1, 215158, Note_off_c, 0, 73, 61
1, 215187, Note_on_c, 0, 61, 89
1, 215193, Note_on_c, 0, 49, 87
1, 215194, Note_on_c, 0, 85, 68
1, 215206, Note_off_c, 0, 61, 72
1, 215216, Note_off_c, 0, 49, 67
1, 215232, Note_off_c, 0, 85, 66
1, 215279, Note_on_c, 0, 85, 76
1, 215339, Note_off_c, 0, 85, 65
1, 215357, Note_on_c, 0, 46, 7
1, 215363, Control_c, 0, 64, 75
1, 215370, Note_on_c, 0, 97, 92
1, 215374, Note_on_c, 0, 53, 98
1, 215378, Control_c, 0, 64, 88
1, 215378, Note_on_c, 0, 44, 74
1, 215384, Note_on_c, 0, 41, 78
1, 215393, Control_c, 0, 64, 100
1, 215405, Note_on_c, 0, 47, 67
1, 215408, Control_c, 0, 64, 105
1, 215416, Note_off_c, 0, 53, 66
1, 215417, Note_off_c, 0, 46, 58
1, 215419, Note_off_c, 0, 41, 69
1, 215423, Control_c, 0, 64, 110
1, 215428, Note_off_c, 0, 47, 62
1, 215435, Note_off_c, 0, 44, 62
1, 215438, Control_c, 0, 64, 115
1, 215440, Note_off_c, 0, 97, 65
1, 215447, Note_on_c, 0, 85, 86
1, 215452, Control_c, 0, 64, 121
1, 215467, Control_c, 0, 64, 123
1, 215482, Control_c, 0, 64, 124
1, 215486, Note_off_c, 0, 85, 66
1, 215497, Control_c, 0, 64, 125
1, 215512, Control_c, 0, 64, 127
1, 215527, Control_c, 0, 64, 127
1, 215548, Note_on_c, 0, 85, 81
1, 215604, Note_on_c, 0, 61, 86
1, 215607, Note_on_c, 0, 49, 81
1, 215614, Note_off_c, 0, 85, 62
1, 215619, Note_on_c, 0, 73, 91
1, 215633, Note_off_c, 0, 61, 63
1, 215642, Note_off_c, 0, 49, 61
1, 215662, Note_off_c, 0, 73, 62
1, 215696, Note_on_c, 0, 60, 103
1, 215703, Note_on_c, 0, 48, 94
1, 215705, Note_on_c, 0, 85, 83
1, 215749, Note_off_c, 0, 60, 58
1, 215750, Note_off_c, 0, 48, 64
1, 215792, Note_on_c, 0, 73, 85
1, 215804, Note_off_c, 0, 85, 64
1, 215837, Control_c, 0, 64, 126
1, 215852, Control_c, 0, 64, 115
1, 215863, Note_off_c, 0, 73, 59
1, 215875, Control_c, 0, 64, 105
1, 215883, Note_on_c, 0, 61, 98
1, 215890, Control_c, 0, 64, 95
1, 215895, Note_on_c, 0, 49, 87
1, 215903, Note_on_c, 0, 85, 81
1, 215904, Control_c, 0, 64, 84
1, 215908, Note_off_c, 0, 61, 68
1, 215919, Control_c, 0, 64, 70
1, 215933, Note_off_c, 0, 49, 66
1, 215934, Control_c, 0, 64, 0
1, 215947, Note_off_c, 0, 85, 67
1, 216001, Note_on_c, 0, 85, 85
1, 216126, Control_c, 0, 64, 67
1, 216130, Note_off_c, 0, 85, 0
1, 216141, Control_c, 0, 64, 83
1, 216146, Note_on_c, 0, 85, 57
1, 216150, Note_on_c, 0, 47, 100
1, 216150, Note_on_c, 0, 97, 96
1, 216153, Note_on_c, 0, 89, 83
1, 216153, Note_on_c, 0, 44, 83
1, 216154, Note_on_c, 0, 92, 92
1, 216156, Note_on_c, 0, 37, 81
1, 216156, Control_c, 0, 64, 100
1, 216159, Note_on_c, 0, 41, 67
1, 216171, Control_c, 0, 64, 112
1, 216186, Control_c, 0, 64, 117
1, 216186, Note_off_c, 0, 44, 65
1, 216186, Note_off_c, 0, 47, 66
1, 216188, Note_off_c, 0, 85, 64
1, 216199, Note_off_c, 0, 97, 67
1, 216200, Note_off_c, 0, 41, 68
1, 216201, Control_c, 0, 64, 127
1, 216209, Note_off_c, 0, 89, 64
1, 216215, Note_off_c, 0, 37, 66
1, 216217, Note_off_c, 0, 92, 64
1, 216435, Note_on_c, 0, 37, 95
1, 216436, Note_on_c, 0, 25, 86
1, 216472, Note_off_c, 0, 25, 67
1, 216490, Note_off_c, 0, 37, 65
1, 216519, Note_on_c, 0, 73, 86
1, 216522, Note_on_c, 0, 85, 82
1, 216565, Note_off_c, 0, 73, 62
1, 216579, Note_off_c, 0, 85, 63
1, 216670, Note_on_c, 0, 72, 91
1, 216671, Note_on_c, 0, 77, 86
1, 216673, Note_on_c, 0, 63, 95
1, 216673, Note_on_c, 0, 84, 91
1, 216677, Note_on_c, 0, 51, 92
1, 216683, Control_c, 0, 64, 125
1, 216698, Control_c, 0, 64, 100
1, 216703, Note_off_c, 0, 63, 65
1, 216706, Note_off_c, 0, 72, 68
1, 216713, Control_c, 0, 64, 83
1, 216713, Note_off_c, 0, 77, 62
1, 216714, Note_off_c, 0, 84, 65
1, 216726, Note_off_c, 0, 51, 58
1, 216727, Control_c, 0, 64, 67
1, 216742, Control_c, 0, 64, 0
1, 216914, Note_on_c, 0, 73, 93
1, 216916, Note_on_c, 0, 85, 89
1, 216917, Note_on_c, 0, 77, 85
1, 216919, Note_on_c, 0, 61, 93
1, 216923, Note_on_c, 0, 49, 81
1, 216937, Note_off_c, 0, 61, 72
1, 216938, Note_off_c, 0, 77, 66
1, 216940, Note_off_c, 0, 73, 66
1, 216961, Note_off_c, 0, 85, 64
1, 216964, Note_off_c, 0, 49, 65
1, 217128, Note_on_c, 0, 49, 95
1, 217128, Control_c, 0, 64, 65
1, 217130, Note_on_c, 0, 37, 80
1, 217131, Note_on_c, 0, 44, 77
1, 217136, Note_on_c, 0, 71, 91
1, 217136, Note_on_c, 0, 77, 88
1, 217139, Note_on_c, 0, 83, 83
1, 217142, Control_c, 0, 64, 81
1, 217157, Control_c, 0, 64, 92
1, 217163, Note_off_c, 0, 37, 69
1, 217164, Note_off_c, 0, 44, 66
1, 217169, Note_off_c, 0, 49, 63
1, 217170, Note_off_c, 0, 71, 61
1, 217172, Control_c, 0, 64, 97
1, 217184, Note_off_c, 0, 77, 65
1, 217187, Note_off_c, 0, 83, 61
1, 217187, Control_c, 0, 64, 100
1, 217202, Control_c, 0, 64, 104
1, 217217, Control_c, 0, 64, 107
1, 217232, Control_c, 0, 64, 109
1, 217247, Control_c, 0, 64, 111
1, 217262, Control_c, 0, 64, 114
1, 217276, Control_c, 0, 64, 118
1, 217291, Control_c, 0, 64, 125
1, 217306, Control_c, 0, 64, 127
1, 217311, Note_on_c, 0, 61, 92
1, 217316, Note_on_c, 0, 49, 83
1, 217353, Note_off_c, 0, 61, 64
1, 217377, Note_off_c, 0, 49, 59
1, 217381, Note_on_c, 0, 85, 80
1, 217384, Note_on_c, 0, 73, 75
1, 217405, Note_off_c, 0, 73, 68
1, 217406, Note_off_c, 0, 85, 64
1, 217461, Note_on_c, 0, 63, 95
1, 217461, Control_c, 0, 64, 125
1, 217466, Note_on_c, 0, 72, 97
1, 217467, Note_on_c, 0, 84, 94
1, 217469, Note_on_c, 0, 51, 84
1, 217469, Note_on_c, 0, 77, 95
1, 217476, Control_c, 0, 64, 112
1, 217491, Control_c, 0, 64, 100
1, 217491, Note_off_c, 0, 63, 66
1, 217491, Note_off_c, 0, 77, 65
1, 217494, Note_off_c, 0, 72, 64
1, 217505, Note_off_c, 0, 84, 62
1, 217506, Control_c, 0, 64, 88
1, 217521, Control_c, 0, 64, 74
1, 217527, Note_off_c, 0, 51, 59
1, 217536, Control_c, 0, 64, 47
1, 217550, Control_c, 0, 64, 0
1, 217631, Note_on_c, 0, 73, 92
1, 217637, Note_on_c, 0, 85, 82
1, 217642, Note_on_c, 0, 61, 83
1, 217643, Note_on_c, 0, 77, 70
1, 217648, Note_on_c, 0, 49, 80
1, 217660, Note_off_c, 0, 73, 62
1, 217661, Note_off_c, 0, 61, 69
1, 217667, Note_off_c, 0, 77, 67
1, 217671, Note_off_c, 0, 85, 66
1, 217685, Note_off_c, 0, 49, 66
1, 217787, Control_c, 0, 64, 65
1, 217803, Control_c, 0, 64, 82
1, 217813, Note_on_c, 0, 37, 90
1, 217816, Note_on_c, 0, 71, 96
1, 217817, Note_on_c, 0, 77, 87
1, 217818, Note_on_c, 0, 83, 82
1, 217818, Control_c, 0, 64, 92
1, 217819, Note_on_c, 0, 25, 90
1, 217833, Control_c, 0, 64, 98
1, 217847, Control_c, 0, 64, 101
1, 217849, Note_off_c, 0, 25, 65
1, 217851, Note_off_c, 0, 71, 61
1, 217852, Note_off_c, 0, 37, 64
1, 217861, Note_off_c, 0, 77, 63
1, 217862, Control_c, 0, 64, 106
1, 217864, Note_off_c, 0, 83, 64
1, 217877, Control_c, 0, 64, 112
1, 217891, Control_c, 0, 64, 118
1, 217906, Control_c, 0, 64, 121
1, 217921, Control_c, 0, 64, 124
1, 217936, Control_c, 0, 64, 127
1, 217951, Control_c, 0, 64, 127
1, 217980, Note_on_c, 0, 49, 87
1, 217980, Note_on_c, 0, 61, 89
1, 218019, Note_off_c, 0, 61, 60
1, 218031, Note_off_c, 0, 49, 60
1, 218033, Note_on_c, 0, 73, 80
1, 218036, Note_on_c, 0, 85, 82
1, 218049, Note_on_c, 0, 82, 63
1, 218053, Note_off_c, 0, 73, 71
1, 218055, Note_off_c, 0, 85, 72
1, 218066, Note_off_c, 0, 82, 66
1, 218084, Control_c, 0, 64, 122
1, 218099, Control_c, 0, 64, 108
1, 218104, Note_on_c, 0, 72, 97
1, 218108, Note_on_c, 0, 81, 93
1, 218119, Note_on_c, 0, 63, 90
1, 218120, Note_on_c, 0, 84, 85
1, 218121, Control_c, 0, 64, 92
1, 218136, Control_c, 0, 64, 76
1, 218137, Note_off_c, 0, 72, 64
1, 218138, Note_off_c, 0, 84, 73
1, 218141, Note_on_c, 0, 51, 65
1, 218147, Note_off_c, 0, 63, 65
1, 218150, Note_off_c, 0, 81, 63
1, 218151, Control_c, 0, 64, 44
1, 218162, Note_off_c, 0, 51, 61
1, 218166, Control_c, 0, 64, 0
1, 218272, Note_on_c, 0, 73, 91
1, 218274, Note_on_c, 0, 85, 88
1, 218275, Note_on_c, 0, 61, 68
1, 218276, Note_on_c, 0, 49, 76
1, 218280, Note_on_c, 0, 82, 78
1, 218289, Note_off_c, 0, 73, 73
1, 218293, Note_off_c, 0, 61, 65
1, 218294, Note_off_c, 0, 82, 70
1, 218296, Note_off_c, 0, 85, 63
1, 218302, Note_off_c, 0, 49, 64
1, 218403, Control_c, 0, 64, 80
1, 218413, Note_on_c, 0, 49, 92
1, 218417, Control_c, 0, 64, 96
1, 218419, Note_on_c, 0, 70, 104
1, 218423, Note_on_c, 0, 78, 97
1, 218423, Note_on_c, 0, 82, 89
1, 218424, Note_on_c, 0, 37, 81
1, 218425, Note_on_c, 0, 42, 77
1, 218432, Control_c, 0, 64, 103
1, 218435, Note_off_c, 0, 70, 73
1, 218439, Note_off_c, 0, 78, 72
1, 218446, Note_off_c, 0, 82, 63
1, 218447, Control_c, 0, 64, 105
1, 218449, Note_off_c, 0, 37, 66
1, 218452, Note_off_c, 0, 49, 63
1, 218457, Note_off_c, 0, 42, 65
1, 218462, Control_c, 0, 64, 112
1, 218463, Note_on_c, 0, 80, 13
1, 218477, Control_c, 0, 64, 120
1, 218491, Control_c, 0, 64, 127
1, 218500, Note_off_c, 0, 80, 49
1, 218573, Note_on_c, 0, 61, 89
1, 218579, Note_on_c, 0, 49, 77
1, 218599, Note_on_c, 0, 54, 50
1, 218611, Note_on_c, 0, 51, 44
1, 218613, Note_off_c, 0, 49, 57
1, 218619, Note_off_c, 0, 61, 62
1, 218624, Note_on_c, 0, 73, 84
1, 218628, Note_on_c, 0, 85, 77
1, 218635, Note_on_c, 0, 82, 65
1, 218643, Note_off_c, 0, 51, 52
1, 218643, Note_off_c, 0, 73, 70
1, 218646, Note_off_c, 0, 85, 72
1, 218659, Note_off_c, 0, 82, 67
1, 218697, Note_on_c, 0, 72, 96
1, 218701, Note_on_c, 0, 84, 91
1, 218704, Note_on_c, 0, 81, 89
1, 218712, Note_on_c, 0, 63, 82
1, 218718, Note_on_c, 0, 51, 71
1, 218725, Note_off_c, 0, 84, 66
1, 218728, Note_off_c, 0, 72, 61
1, 218729, Note_off_c, 0, 81, 61
1, 218733, Note_on_c, 0, 61, 48
1, 218734, Note_off_c, 0, 63, 70
1, 218737, Note_off_c, 0, 54, 0
1, 218747, Note_off_c, 0, 51, 65
1, 218752, Note_off_c, 0, 61, 61
1, 218759, Control_c, 0, 64, 120
1, 218774, Control_c, 0, 64, 109
1, 218789, Control_c, 0, 64, 93
1, 218803, Poly_aftertouch_c, 0, 54, 0
1, 218803, Control_c, 0, 64, 76
1, 218818, Control_c, 0, 64, 0
1, 218833, Note_on_c, 0, 61, 76
1, 218841, Note_on_c, 0, 85, 87
1, 218841, Note_on_c, 0, 73, 89
1, 218844, Note_on_c, 0, 82, 79
1, 218854, Note_off_c, 0, 61, 70
1, 218859, Note_off_c, 0, 73, 72
1, 218863, Note_off_c, 0, 82, 70
1, 218886, Note_off_c, 0, 85, 62
1, 218974, Control_c, 0, 64, 71
1, 218989, Control_c, 0, 64, 89
1, 218991, Note_on_c, 0, 70, 104
1, 218991, Note_on_c, 0, 37, 91
1, 218992, Note_on_c, 0, 82, 93
1, 219000, Note_on_c, 0, 25, 79
1, 219000, Note_on_c, 0, 78, 76
1, 219004, Control_c, 0, 64, 101
1, 219009, Note_off_c, 0, 70, 66
1, 219016, Note_off_c, 0, 78, 69
1, 219018, Note_off_c, 0, 82, 57
1, 219019, Note_off_c, 0, 37, 69
1, 219019, Control_c, 0, 64, 105
1, 219023, Note_off_c, 0, 25, 66
1, 219034, Control_c, 0, 64, 108
1, 219048, Control_c, 0, 64, 113
1, 219063, Control_c, 0, 64, 119
1, 219073, Note_on_c, 0, 36, 3
1, 219078, Control_c, 0, 64, 125
1, 219092, Poly_aftertouch_c, 0, 80, 0
1, 219093, Control_c, 0, 64, 127
1, 219112, Note_off_c, 0, 36, 34
1, 219143, Note_on_c, 0, 61, 92
1, 219148, Note_on_c, 0, 49, 82
1, 219186, Note_on_c, 0, 51, 24
1, 219190, Note_off_c, 0, 61, 63
1, 219199, Note_on_c, 0, 85, 92
1, 219199, Note_off_c, 0, 49, 63
1, 219200, Note_on_c, 0, 73, 84
1, 219218, Note_off_c, 0, 73, 72
1, 219220, Note_off_c, 0, 85, 67
1, 219226, Note_off_c, 0, 51, 42
1, 219274, Note_on_c, 0, 72, 95
1, 219277, Note_on_c, 0, 63, 97
1, 219280, Note_on_c, 0, 84, 100
1, 219287, Control_c, 0, 64, 117
1, 219295, Note_on_c, 0, 51, 77
1, 219302, Control_c, 0, 64, 101
1, 219305, Note_off_c, 0, 72, 70
1, 219309, Note_off_c, 0, 63, 65
1, 219312, Note_off_c, 0, 84, 66
1, 219316, Control_c, 0, 64, 86
1, 219321, Note_off_c, 0, 51, 63
1, 219331, Control_c, 0, 64, 70
1, 219346, Control_c, 0, 64, 0
1, 219422, Note_on_c, 0, 73, 92
1, 219423, Note_on_c, 0, 85, 90
1, 219426, Note_on_c, 0, 61, 82
1, 219429, Note_on_c, 0, 80, 71
1, 219430, Note_on_c, 0, 82, 72
1, 219438, Note_off_c, 0, 73, 73
1, 219440, Note_on_c, 0, 49, 66
1, 219445, Note_off_c, 0, 80, 68
1, 219446, Note_off_c, 0, 82, 68
1, 219447, Note_off_c, 0, 85, 57
1, 219447, Note_off_c, 0, 61, 67
1, 219467, Note_off_c, 0, 49, 65
1, 219569, Control_c, 0, 64, 77
1, 219578, Note_on_c, 0, 49, 94
1, 219580, Note_on_c, 0, 75, 98
1, 219582, Note_on_c, 0, 83, 83
1, 219583, Note_on_c, 0, 87, 96
1, 219584, Note_on_c, 0, 37, 89
1, 219584, Control_c, 0, 64, 91
1, 219599, Control_c, 0, 64, 100
1, 219611, Note_off_c, 0, 37, 69
1, 219613, Note_off_c, 0, 75, 69
1, 219621, Control_c, 0, 64, 103
1, 219625, Note_off_c, 0, 49, 61
1, 219636, Control_c, 0, 64, 109
1, 219646, Note_off_c, 0, 87, 62
1, 219651, Control_c, 0, 64, 120
1, 219666, Control_c, 0, 64, 127
1, 219672, Note_off_c, 0, 83, 50
1, 219697, Poly_aftertouch_c, 0, 85, 0
1, 219746, Note_on_c, 0, 61, 92
1, 219754, Note_on_c, 0, 49, 73
1, 219789, Note_off_c, 0, 61, 63
1, 219793, Note_on_c, 0, 73, 93
1, 219797, Note_off_c, 0, 49, 46
1, 219798, Note_on_c, 0, 85, 78
1, 219803, Note_on_c, 0, 51, 16
1, 219803, Note_on_c, 0, 80, 77
1, 219811, Note_off_c, 0, 73, 70
1, 219825, Note_off_c, 0, 80, 71
1, 219828, Note_off_c, 0, 85, 65
1, 219849, Note_off_c, 0, 51, 39
1, 219852, Poly_aftertouch_c, 0, 54, 127
1, 219876, Note_on_c, 0, 72, 86
1, 219879, Note_on_c, 0, 84, 90
1, 219884, Note_on_c, 0, 63, 95
1, 219892, Note_on_c, 0, 71, 57
1, 219893, Note_off_c, 0, 71, 127
1, 219900, Note_on_c, 0, 51, 61
1, 219902, Note_off_c, 0, 72, 66
1, 219903, Control_c, 0, 64, 115
1, 219907, Note_off_c, 0, 63, 65
1, 219914, Note_off_c, 0, 84, 65
1, 219918, Control_c, 0, 64, 99
1, 219922, Note_off_c, 0, 51, 63
1, 219933, Control_c, 0, 64, 84
1, 219947, Control_c, 0, 64, 66
1, 219959, Poly_aftertouch_c, 0, 54, 0
1, 219962, Control_c, 0, 64, 0
1, 220022, Note_on_c, 0, 61, 80
1, 220022, Note_on_c, 0, 73, 89
1, 220024, Note_on_c, 0, 85, 87
1, 220033, Note_on_c, 0, 49, 78
1, 220034, Note_on_c, 0, 82, 61
1, 220040, Note_off_c, 0, 73, 70
1, 220041, Note_on_c, 0, 80, 54
1, 220043, Note_off_c, 0, 61, 67
1, 220052, Note_off_c, 0, 82, 65
1, 220061, Note_off_c, 0, 49, 67
1, 220061, Note_off_c, 0, 80, 63
1, 220062, Note_off_c, 0, 85, 57
1, 220169, Control_c, 0, 64, 64
1, 220181, Note_on_c, 0, 37, 98
1, 220184, Control_c, 0, 64, 82
1, 220186, Note_on_c, 0, 75, 98
1, 220192, Note_on_c, 0, 87, 91
1, 220195, Note_on_c, 0, 25, 85
1, 220199, Note_on_c, 0, 83, 63
1, 220200, Control_c, 0, 64, 93
1, 220208, Note_on_c, 0, 85, 68
1, 220212, Note_on_c, 0, 27, 50
1, 220215, Control_c, 0, 64, 99
1, 220220, Note_on_c, 0, 84, 43
1, 220221, Note_off_c, 0, 84, 127
1, 220221, Note_off_c, 0, 25, 66
1, 220222, Note_off_c, 0, 37, 65
1, 220224, Note_off_c, 0, 85, 66
1, 220228, Note_off_c, 0, 75, 65
1, 220230, Control_c, 0, 64, 104
1, 220244, Control_c, 0, 64, 114
1, 220245, Note_off_c, 0, 27, 56
1, 220254, Note_off_c, 0, 87, 60
1, 220259, Control_c, 0, 64, 127
1, 220353, Note_on_c, 0, 61, 91
1, 220354, Note_on_c, 0, 49, 88
1, 220388, Note_off_c, 0, 83, 28
1, 220398, Note_on_c, 0, 73, 89
1, 220405, Note_off_c, 0, 61, 62
1, 220406, Note_on_c, 0, 80, 70
1, 220408, Note_on_c, 0, 85, 80
1, 220410, Note_off_c, 0, 49, 61
1, 220417, Note_off_c, 0, 73, 70
1, 220426, Note_off_c, 0, 85, 72
1, 220431, Note_off_c, 0, 80, 65
1, 220477, Note_on_c, 0, 72, 98
1, 220483, Note_on_c, 0, 84, 89
1, 220488, Note_on_c, 0, 63, 99
1, 220488, Note_on_c, 0, 81, 87
1, 220503, Control_c, 0, 64, 125
1, 220506, Note_on_c, 0, 51, 70
1, 220507, Note_off_c, 0, 72, 66
1, 220509, Note_off_c, 0, 81, 65
1, 220518, Control_c, 0, 64, 106
1, 220520, Note_off_c, 0, 84, 60
1, 220522, Note_off_c, 0, 63, 67
1, 220533, Control_c, 0, 64, 93
1, 220537, Note_off_c, 0, 51, 60
1, 220548, Control_c, 0, 64, 80
1, 220563, Control_c, 0, 64, 66
1, 220577, Control_c, 0, 64, 0
1, 220643, Note_on_c, 0, 73, 99
1, 220644, Note_on_c, 0, 85, 88
1, 220648, Note_on_c, 0, 61, 76
1, 220650, Note_on_c, 0, 82, 81
1, 220657, Note_on_c, 0, 49, 74
1, 220659, Note_off_c, 0, 73, 72
1, 220662, Note_off_c, 0, 82, 72
1, 220664, Note_off_c, 0, 85, 63
1, 220671, Note_off_c, 0, 61, 68
1, 220686, Note_off_c, 0, 49, 64
1, 220799, Control_c, 0, 64, 63
1, 220814, Control_c, 0, 64, 87
1, 220827, Note_on_c, 0, 54, 98
1, 220828, Control_c, 0, 64, 99
1, 220830, Note_on_c, 0, 82, 88
1, 220832, Note_on_c, 0, 90, 96
1, 220833, Note_on_c, 0, 78, 94
1, 220839, Note_on_c, 0, 42, 74
1, 220839, Note_on_c, 0, 46, 81
1, 220843, Note_on_c, 0, 49, 73
1, 220843, Control_c, 0, 64, 106
1, 220858, Control_c, 0, 64, 112
1, 220868, Note_off_c, 0, 49, 65
1, 220868, Note_off_c, 0, 54, 62
1, 220870, Note_off_c, 0, 42, 65
1, 220871, Note_off_c, 0, 78, 66
1, 220871, Note_off_c, 0, 46, 66
1, 220873, Note_off_c, 0, 82, 63
1, 220873, Control_c, 0, 64, 127
1, 220877, Note_off_c, 0, 90, 64
1, 221002, Note_on_c, 0, 61, 89
1, 221009, Note_on_c, 0, 49, 76
1, 221042, Note_off_c, 0, 61, 62
1, 221052, Note_on_c, 0, 56, 21
1, 221053, Note_on_c, 0, 73, 91
1, 221053, Note_off_c, 0, 49, 58
1, 221062, Note_on_c, 0, 85, 82
1, 221064, Note_on_c, 0, 82, 71
1, 221076, Note_off_c, 0, 73, 65
1, 221083, Note_off_c, 0, 85, 69
1, 221087, Note_off_c, 0, 82, 66
1, 221098, Note_off_c, 0, 56, 45
1, 221142, Note_on_c, 0, 82, 96
1, 221146, Note_on_c, 0, 72, 96
1, 221149, Note_on_c, 0, 63, 95
1, 221152, Note_on_c, 0, 84, 88
1, 221158, Note_on_c, 0, 51, 76
1, 221172, Note_off_c, 0, 72, 60
1, 221173, Note_off_c, 0, 84, 68
1, 221179, Note_off_c, 0, 63, 64
1, 221186, Note_off_c, 0, 82, 67
1, 221192, Note_off_c, 0, 51, 59
1, 221332, Note_on_c, 0, 61, 80
1, 221337, Note_on_c, 0, 73, 95
1, 221338, Note_on_c, 0, 82, 90
1, 221338, Note_on_c, 0, 85, 92
1, 221339, Note_on_c, 0, 49, 81
1, 221353, Note_off_c, 0, 73, 73
1, 221354, Note_off_c, 0, 82, 74
1, 221355, Note_off_c, 0, 61, 66
1, 221359, Note_off_c, 0, 85, 60
1, 221371, Note_off_c, 0, 49, 66
1, 221503, Control_c, 0, 64, 124
1, 221518, Control_c, 0, 64, 88
1, 221533, Control_c, 0, 64, 18
1, 221548, Note_on_c, 0, 37, 93
1, 221548, Control_c, 0, 64, 0
1, 221551, Note_on_c, 0, 82, 100
1, 221554, Note_on_c, 0, 90, 96
1, 221556, Note_on_c, 0, 30, 85
1, 221556, Note_on_c, 0, 78, 90
1, 221566, Note_on_c, 0, 25, 70
1, 221582, Note_off_c, 0, 30, 63
1, 221590, Note_off_c, 0, 78, 62
1, 221592, Control_c, 0, 64, 73
1, 221594, Note_off_c, 0, 37, 65
1, 221596, Note_off_c, 0, 25, 62
1, 221599, Note_off_c, 0, 90, 66
1, 221600, Note_off_c, 0, 82, 60
1, 221607, Control_c, 0, 64, 92
1, 221622, Control_c, 0, 64, 120
1, 221637, Control_c, 0, 64, 127
1, 221659, Poly_aftertouch_c, 0, 27, 0
1, 221751, Note_on_c, 0, 61, 77
1, 221757, Note_on_c, 0, 49, 72
1, 221790, Note_off_c, 0, 61, 0
1, 221827, Poly_aftertouch_c, 0, 61, 127
1, 221845, Poly_aftertouch_c, 0, 61, 0
1, 221852, Note_on_c, 0, 85, 67
1, 221855, Note_on_c, 0, 54, 67
1, 221855, Note_on_c, 0, 73, 73
1, 221874, Note_off_c, 0, 49, 60
1, 221887, Note_off_c, 0, 73, 68
1, 221897, Note_off_c, 0, 85, 61
1, 221898, Note_off_c, 0, 54, 62
1, 221956, Control_c, 0, 64, 107
1, 221971, Control_c, 0, 64, 90
1, 221986, Control_c, 0, 64, 71
1, 221989, Note_on_c, 0, 55, 81
1, 222001, Control_c, 0, 64, 0
1, 222007, Note_on_c, 0, 72, 71
1, 222007, Note_on_c, 0, 77, 70
1, 222007, Note_on_c, 0, 84, 73
1, 222018, Note_off_c, 0, 55, 67
1, 222029, Note_off_c, 0, 72, 71
1, 222029, Note_off_c, 0, 77, 69
1, 222033, Note_off_c, 0, 84, 64
1, 222034, Note_on_c, 0, 56, 57
1, 222055, Note_off_c, 0, 56, 61
1, 222281, Note_on_c, 0, 56, 59
1, 222284, Note_on_c, 0, 61, 58
1, 222290, Note_on_c, 0, 85, 69
1, 222293, Note_on_c, 0, 73, 68
1, 222302, Note_on_c, 0, 77, 53
1, 222305, Note_off_c, 0, 61, 63
1, 222308, Note_off_c, 0, 56, 65
1, 222317, Note_off_c, 0, 73, 67
1, 222317, Note_off_c, 0, 85, 67
1, 222324, Note_off_c, 0, 77, 49
1, 222527, Note_on_c, 0, 48, 55
1, 222541, Note_on_c, 0, 83, 74
1, 222548, Note_on_c, 0, 71, 66
1, 222549, Note_on_c, 0, 77, 67
1, 222562, Note_on_c, 0, 49, 70
1, 222564, Control_c, 0, 64, 65
1, 222565, Note_off_c, 0, 83, 65
1, 222568, Note_off_c, 0, 71, 66
1, 222574, Note_off_c, 0, 48, 61
1, 222574, Note_off_c, 0, 77, 65
1, 222579, Control_c, 0, 64, 73
1, 222594, Control_c, 0, 64, 80
1, 222609, Control_c, 0, 64, 86
1, 222631, Control_c, 0, 64, 89
1, 222646, Control_c, 0, 64, 91
1, 222661, Control_c, 0, 64, 94
1, 222676, Control_c, 0, 64, 96
1, 222691, Control_c, 0, 64, 99
1, 222705, Control_c, 0, 64, 101
1, 222717, Note_off_c, 0, 49, 59
1, 222720, Control_c, 0, 64, 102
1, 222735, Control_c, 0, 64, 104
1, 222750, Control_c, 0, 64, 105
1, 222764, Control_c, 0, 64, 107
1, 222779, Control_c, 0, 64, 108
1, 222797, Note_on_c, 0, 68, 61
1, 222802, Note_on_c, 0, 73, 64
1, 222809, Note_on_c, 0, 49, 71
1, 222816, Note_on_c, 0, 65, 33
1, 222830, Note_off_c, 0, 68, 66
1, 222833, Note_off_c, 0, 49, 69
1, 222833, Note_off_c, 0, 73, 63
1, 222839, Control_c, 0, 64, 107
1, 222851, Note_off_c, 0, 65, 50
1, 222854, Control_c, 0, 64, 99
1, 222869, Control_c, 0, 64, 86
1, 222872, Note_on_c, 0, 72, 82
1, 222874, Note_on_c, 0, 51, 78
1, 222875, Note_on_c, 0, 63, 80
1, 222884, Control_c, 0, 64, 69
1, 222887, Note_on_c, 0, 69, 62
1, 222890, Note_off_c, 0, 63, 69
1, 222893, Note_off_c, 0, 72, 70
1, 222898, Note_off_c, 0, 51, 64
1, 222898, Control_c, 0, 64, 0
1, 222905, Note_off_c, 0, 69, 63
1, 223074, Note_on_c, 0, 52, 64
1, 223080, Note_on_c, 0, 61, 80
1, 223082, Note_on_c, 0, 73, 78
1, 223091, Note_on_c, 0, 70, 52
1, 223102, Note_off_c, 0, 61, 69
1, 223104, Note_off_c, 0, 52, 68
1, 223105, Note_off_c, 0, 73, 67
1, 223113, Note_off_c, 0, 70, 59
1, 223204, Note_on_c, 0, 37, 54
1, 223243, Note_off_c, 0, 37, 66
1, 223248, Note_on_c, 0, 44, 44
1, 223278, Note_off_c, 0, 44, 59
1, 223286, Note_on_c, 0, 59, 75
1, 223289, Note_on_c, 0, 68, 73
1, 223289, Note_on_c, 0, 53, 76
1, 223291, Note_on_c, 0, 71, 73
1, 223298, Control_c, 0, 64, 72
1, 223312, Note_off_c, 0, 59, 67
1, 223313, Control_c, 0, 64, 80
1, 223316, Note_off_c, 0, 68, 69
1, 223319, Note_off_c, 0, 53, 68
1, 223319, Note_off_c, 0, 71, 63
1, 223328, Control_c, 0, 64, 85
1, 223343, Control_c, 0, 64, 87
1, 223364, Control_c, 0, 64, 89
1, 223379, Control_c, 0, 64, 91
1, 223395, Control_c, 0, 64, 94
1, 223410, Control_c, 0, 64, 95
1, 223425, Control_c, 0, 64, 97
1, 223440, Control_c, 0, 64, 99
1, 223454, Control_c, 0, 64, 102
1, 223465, Note_on_c, 0, 53, 67
1, 223469, Control_c, 0, 64, 104
1, 223484, Control_c, 0, 64, 107
1, 223498, Note_off_c, 0, 53, 67
1, 223499, Control_c, 0, 64, 110
1, 223513, Control_c, 0, 64, 110
1, 223524, Note_on_c, 0, 73, 78
1, 223528, Note_on_c, 0, 85, 73
1, 223545, Note_off_c, 0, 73, 70
1, 223548, Note_on_c, 0, 82, 42
1, 223550, Note_off_c, 0, 85, 70
1, 223573, Control_c, 0, 64, 109
1, 223588, Control_c, 0, 64, 101
1, 223590, Note_on_c, 0, 72, 92
1, 223594, Note_on_c, 0, 54, 75
1, 223596, Note_on_c, 0, 58, 78
1, 223598, Note_on_c, 0, 84, 83
1, 223600, Note_on_c, 0, 81, 79
1, 223603, Control_c, 0, 64, 89
1, 223609, Note_off_c, 0, 72, 72
1, 223617, Note_off_c, 0, 84, 73
1, 223618, Control_c, 0, 64, 74
1, 223621, Note_off_c, 0, 58, 68
1, 223621, Note_off_c, 0, 81, 69
1, 223633, Control_c, 0, 64, 38
1, 223635, Note_off_c, 0, 82, 28
1, 223647, Control_c, 0, 64, 0
1, 223799, Note_on_c, 0, 58, 63
1, 223803, Note_on_c, 0, 85, 83
1, 223804, Note_on_c, 0, 73, 82
1, 223811, Note_on_c, 0, 82, 69
1, 223820, Note_off_c, 0, 85, 74
1, 223824, Note_off_c, 0, 73, 71
1, 223826, Note_off_c, 0, 58, 65
1, 223829, Note_off_c, 0, 82, 66
1, 223992, Note_on_c, 0, 70, 91
1, 223994, Note_on_c, 0, 78, 85
1, 223994, Note_off_c, 0, 54, 51
1, 223997, Note_on_c, 0, 82, 85
1, 224000, Note_on_c, 0, 49, 75
1, 224014, Note_off_c, 0, 70, 67
1, 224018, Control_c, 0, 64, 71
1, 224023, Note_off_c, 0, 82, 64
1, 224026, Note_off_c, 0, 78, 64
1, 224032, Control_c, 0, 64, 78
1, 224047, Control_c, 0, 64, 84
1, 224062, Control_c, 0, 64, 87
1, 224077, Control_c, 0, 64, 90
1, 224092, Control_c, 0, 64, 93
1, 224114, Control_c, 0, 64, 96
1, 224129, Control_c, 0, 64, 98
1, 224144, Control_c, 0, 64, 101
1, 224159, Control_c, 0, 64, 104
1, 224173, Control_c, 0, 64, 105
1, 224189, Control_c, 0, 64, 106
1, 224190, Note_on_c, 0, 66, 51
1, 224204, Control_c, 0, 64, 107
1, 224216, Note_on_c, 0, 54, 66
1, 224216, Note_off_c, 0, 49, 54
1, 224219, Control_c, 0, 64, 108
1, 224221, Note_off_c, 0, 66, 61
1, 224230, Note_on_c, 0, 73, 60
1, 224263, Control_c, 0, 64, 107
1, 224278, Control_c, 0, 64, 103
1, 224282, Note_on_c, 0, 72, 71
1, 224285, Note_off_c, 0, 54, 60
1, 224286, Note_on_c, 0, 56, 70
1, 224291, Note_on_c, 0, 65, 74
1, 224291, Note_on_c, 0, 68, 61
1, 224293, Control_c, 0, 64, 92
1, 224301, Note_off_c, 0, 73, 59
1, 224308, Control_c, 0, 64, 76
1, 224312, Note_off_c, 0, 56, 65
1, 224312, Note_off_c, 0, 68, 41
1, 224316, Note_off_c, 0, 72, 67
1, 224317, Note_off_c, 0, 65, 68
1, 224323, Control_c, 0, 64, 42
1, 224337, Control_c, 0, 64, 0
1, 224473, Note_on_c, 0, 57, 64
1, 224484, Note_on_c, 0, 73, 68
1, 224484, Note_on_c, 0, 63, 68
1, 224487, Note_on_c, 0, 66, 59
1, 224495, Note_off_c, 0, 57, 64
1, 224502, Note_off_c, 0, 63, 65
1, 224503, Note_off_c, 0, 73, 64
1, 224507, Note_off_c, 0, 66, 63
1, 224603, Note_on_c, 0, 42, 62
1, 224643, Note_off_c, 0, 42, 64
1, 224646, Note_on_c, 0, 49, 61
1, 224676, Note_on_c, 0, 70, 19
1, 224677, Control_c, 0, 64, 52
1, 224680, Note_on_c, 0, 66, 64
1, 224681, Note_on_c, 0, 61, 83
1, 224692, Control_c, 0, 64, 69
1, 224697, Note_on_c, 0, 58, 73
1, 224701, Note_off_c, 0, 61, 69
1, 224707, Control_c, 0, 64, 78
1, 224714, Note_off_c, 0, 66, 67
1, 224722, Control_c, 0, 64, 86
1, 224731, Note_off_c, 0, 70, 63
1, 224736, Control_c, 0, 64, 91
1, 224741, Note_off_c, 0, 49, 62
1, 224750, Note_off_c, 0, 58, 43
1, 224751, Control_c, 0, 64, 93
1, 224766, Control_c, 0, 64, 94
1, 224781, Control_c, 0, 64, 95
1, 224795, Control_c, 0, 64, 95
1, 224810, Control_c, 0, 64, 96
1, 224825, Control_c, 0, 64, 97
1, 224840, Control_c, 0, 64, 99
1, 224862, Control_c, 0, 64, 100
1, 224877, Control_c, 0, 64, 101
1, 224892, Control_c, 0, 64, 102
1, 224905, Note_on_c, 0, 73, 80
1, 224913, Note_on_c, 0, 85, 72
1, 224924, Note_off_c, 0, 73, 71
1, 224926, Note_on_c, 0, 78, 48
1, 224927, Note_off_c, 0, 78, 127
1, 224934, Note_off_c, 0, 85, 71
1, 224951, Control_c, 0, 64, 99
1, 224962, Note_on_c, 0, 55, 56
1, 224966, Control_c, 0, 64, 92
1, 224976, Note_on_c, 0, 84, 95
1, 224976, Note_on_c, 0, 72, 87
1, 224981, Control_c, 0, 64, 80
1, 224990, Note_on_c, 0, 56, 73
1, 224990, Note_off_c, 0, 55, 67
1, 224996, Note_off_c, 0, 72, 74
1, 224997, Control_c, 0, 64, 65
1, 224997, Note_off_c, 0, 84, 67
1, 225011, Control_c, 0, 64, 0
1, 225158, Note_off_c, 0, 56, 62
1, 225161, Note_on_c, 0, 85, 88
1, 225163, Note_on_c, 0, 73, 88
1, 225167, Note_on_c, 0, 77, 77
1, 225181, Note_off_c, 0, 73, 73
1, 225186, Note_off_c, 0, 77, 67
1, 225186, Note_off_c, 0, 85, 58
1, 225365, Note_on_c, 0, 75, 93
1, 225365, Note_on_c, 0, 87, 83
1, 225367, Note_on_c, 0, 83, 82
1, 225367, Control_c, 0, 64, 59
1, 225374, Note_on_c, 0, 49, 72
1, 225382, Control_c, 0, 64, 71
1, 225383, Note_off_c, 0, 75, 73
1, 225384, Note_off_c, 0, 83, 70
1, 225385, Note_off_c, 0, 87, 71
1, 225397, Control_c, 0, 64, 82
1, 225411, Control_c, 0, 64, 89
1, 225426, Control_c, 0, 64, 92
1, 225441, Control_c, 0, 64, 93
1, 225456, Control_c, 0, 64, 95
1, 225471, Control_c, 0, 64, 96
1, 225485, Control_c, 0, 64, 97
1, 225500, Control_c, 0, 64, 99
1, 225515, Control_c, 0, 64, 100
1, 225530, Control_c, 0, 64, 100
1, 225545, Control_c, 0, 64, 101
1, 225559, Control_c, 0, 64, 101
1, 225574, Control_c, 0, 64, 102
1, 225589, Control_c, 0, 64, 103
1, 225599, Note_on_c, 0, 68, 66
1, 225604, Control_c, 0, 64, 103
1, 225624, Note_on_c, 0, 65, 43
1, 225626, Note_on_c, 0, 53, 59
1, 225626, Control_c, 0, 64, 103
1, 225634, Note_on_c, 0, 73, 51
1, 225636, Note_off_c, 0, 49, 57
1, 225654, Note_off_c, 0, 65, 55
1, 225656, Control_c, 0, 64, 101
1, 225657, Note_off_c, 0, 73, 53
1, 225662, Note_off_c, 0, 68, 63
1, 225671, Control_c, 0, 64, 93
1, 225673, Note_off_c, 0, 53, 61
1, 225685, Control_c, 0, 64, 81
1, 225697, Note_on_c, 0, 54, 72
1, 225698, Note_on_c, 0, 72, 78
1, 225700, Control_c, 0, 64, 64
1, 225708, Note_on_c, 0, 63, 70
1, 225715, Control_c, 0, 64, 0
1, 225717, Note_on_c, 0, 69, 57
1, 225724, Note_off_c, 0, 54, 65
1, 225726, Note_off_c, 0, 63, 66
1, 225727, Note_off_c, 0, 72, 65
1, 225736, Note_off_c, 0, 69, 61
1, 225900, Note_on_c, 0, 73, 75
1, 225902, Note_on_c, 0, 61, 67
1, 225906, Note_on_c, 0, 70, 63
1, 225914, Note_on_c, 0, 55, 25
1, 225919, Note_off_c, 0, 61, 64
1, 225919, Note_off_c, 0, 73, 66
1, 225924, Note_off_c, 0, 70, 63
1, 225957, Note_off_c, 0, 55, 29
1, 225996, Note_on_c, 0, 41, 57
1, 226031, Note_on_c, 0, 70, 13
1, 226058, Note_off_c, 0, 41, 64
1, 226072, Note_off_c, 0, 70, 50
1, 226080, Note_on_c, 0, 49, 58
1, 226118, Note_on_c, 0, 63, 75
1, 226118, Note_on_c, 0, 75, 80
1, 226119, Note_on_c, 0, 71, 72
1, 226126, Note_on_c, 0, 56, 62
1, 226131, Control_c, 0, 64, 64
1, 226141, Note_off_c, 0, 63, 70
1, 226143, Note_off_c, 0, 71, 68
1, 226146, Control_c, 0, 64, 71
1, 226160, Control_c, 0, 64, 78
1, 226166, Note_off_c, 0, 75, 63
1, 226175, Control_c, 0, 64, 85
1, 226190, Control_c, 0, 64, 89
1, 226205, Control_c, 0, 64, 90
1, 226219, Note_off_c, 0, 49, 61
1, 226220, Control_c, 0, 64, 91
1, 226234, Control_c, 0, 64, 91
1, 226249, Control_c, 0, 64, 92
1, 226255, Note_off_c, 0, 56, 61
1, 226264, Control_c, 0, 64, 93
1, 226279, Control_c, 0, 64, 94
1, 226294, Control_c, 0, 64, 95
1, 226309, Control_c, 0, 64, 95
1, 226324, Control_c, 0, 64, 96
1, 226338, Control_c, 0, 64, 96
1, 226371, Note_on_c, 0, 85, 79
1, 226374, Note_on_c, 0, 73, 73
1, 226381, Note_on_c, 0, 82, 61
1, 226390, Note_off_c, 0, 73, 67
1, 226390, Note_off_c, 0, 85, 72
1, 226398, Note_off_c, 0, 82, 66
1, 226405, Control_c, 0, 64, 95
1, 226420, Control_c, 0, 64, 89
1, 226423, Note_on_c, 0, 57, 57
1, 226435, Control_c, 0, 64, 79
1, 226441, Note_on_c, 0, 72, 91
1, 226446, Note_on_c, 0, 81, 87
1, 226446, Note_on_c, 0, 84, 81
1, 226449, Control_c, 0, 64, 66
1, 226455, Note_on_c, 0, 58, 71
1, 226456, Note_off_c, 0, 57, 64
1, 226458, Note_off_c, 0, 72, 74
1, 226464, Control_c, 0, 64, 0
1, 226465, Note_off_c, 0, 84, 72
1, 226466, Note_off_c, 0, 81, 69
1, 226618, Note_off_c, 0, 58, 64
1, 226644, Note_on_c, 0, 82, 93
1, 226645, Note_on_c, 0, 85, 86
1, 226655, Note_on_c, 0, 73, 72
1, 226658, Note_off_c, 0, 82, 75
1, 226661, Note_off_c, 0, 85, 74
1, 226666, Note_on_c, 0, 75, 43
1, 226669, Note_off_c, 0, 73, 64
1, 226693, Note_off_c, 0, 75, 38
1, 226857, Note_on_c, 0, 90, 93
1, 226858, Note_on_c, 0, 78, 97
1, 226863, Note_on_c, 0, 49, 74
1, 226863, Note_on_c, 0, 82, 82
1, 226876, Note_off_c, 0, 78, 70
1, 226879, Control_c, 0, 64, 49
1, 226881, Note_off_c, 0, 82, 72
1, 226887, Note_off_c, 0, 90, 65
1, 226894, Control_c, 0, 64, 68
1, 226909, Control_c, 0, 64, 75
1, 226924, Control_c, 0, 64, 82
1, 226938, Control_c, 0, 64, 86
1, 226953, Control_c, 0, 64, 87
1, 226968, Control_c, 0, 64, 88
1, 226982, Control_c, 0, 64, 90
1, 226997, Control_c, 0, 64, 92
1, 227012, Control_c, 0, 64, 94
1, 227027, Control_c, 0, 64, 95
1, 227042, Control_c, 0, 64, 96
1, 227061, Note_on_c, 0, 58, 53
1, 227087, Control_c, 0, 64, 96
1, 227119, Note_on_c, 0, 54, 59
1, 227124, Control_c, 0, 64, 96
1, 227132, Note_on_c, 0, 73, 70
1, 227150, Note_off_c, 0, 58, 63
1, 227153, Control_c, 0, 64, 95
1, 227154, Note_off_c, 0, 49, 60
1, 227163, Note_off_c, 0, 54, 62
1, 227168, Control_c, 0, 64, 93
1, 227179, Note_off_c, 0, 73, 60
1, 227183, Control_c, 0, 64, 86
1, 227197, Control_c, 0, 64, 77
1, 227212, Control_c, 0, 64, 65
1, 227227, Control_c, 0, 64, 0
1, 227238, Note_on_c, 0, 72, 77
1, 227240, Note_on_c, 0, 60, 65
1, 227245, Note_on_c, 0, 57, 57
1, 227246, Note_on_c, 0, 65, 62
1, 227260, Note_off_c, 0, 72, 69
1, 227265, Note_off_c, 0, 65, 64
1, 227267, Note_off_c, 0, 57, 63
1, 227269, Note_off_c, 0, 60, 64
1, 227496, Note_on_c, 0, 54, 56
1, 227499, Note_on_c, 0, 73, 69
1, 227501, Note_on_c, 0, 70, 63
1, 227507, Note_on_c, 0, 58, 37
1, 227520, Note_off_c, 0, 70, 66
1, 227522, Note_off_c, 0, 73, 67
1, 227526, Note_off_c, 0, 54, 64
1, 227537, Note_off_c, 0, 58, 43
1, 227705, Note_on_c, 0, 42, 28
1, 227760, Note_on_c, 0, 46, 42
1, 227766, Note_on_c, 0, 49, 46
1, 227790, Note_on_c, 0, 78, 71
1, 227793, Note_on_c, 0, 70, 56
1, 227798, Note_on_c, 0, 66, 58
1, 227799, Note_on_c, 0, 54, 44
1, 227818, Note_off_c, 0, 66, 63
1, 227824, Note_off_c, 0, 70, 65
1, 227859, Control_c, 0, 64, 58
1, 227874, Control_c, 0, 64, 68
1, 227879, Note_off_c, 0, 78, 57
1, 227888, Control_c, 0, 64, 75
1, 227903, Control_c, 0, 64, 81
1, 227918, Control_c, 0, 64, 85
1, 227933, Control_c, 0, 64, 87
1, 227948, Control_c, 0, 64, 88
1, 227962, Control_c, 0, 64, 89
1, 227977, Control_c, 0, 64, 91
1, 227992, Control_c, 0, 64, 92
1, 228006, Control_c, 0, 64, 93
1, 228021, Control_c, 0, 64, 94
1, 228036, Control_c, 0, 64, 95
1, 228041, Note_off_c, 0, 42, 41
1, 228051, Control_c, 0, 64, 96
1, 228058, Note_off_c, 0, 46, 40
1, 228058, Note_off_c, 0, 49, 40
1, 228058, Note_off_c, 0, 54, 55
1, 228066, Control_c, 0, 64, 98
1, 228079, Note_on_c, 0, 66, 70
1, 228081, Control_c, 0, 64, 99
1, 228095, Control_c, 0, 64, 99
1, 228109, Note_off_c, 0, 66, 65
1, 228110, Control_c, 0, 64, 100
1, 228139, Control_c, 0, 64, 100
1, 228169, Control_c, 0, 64, 101
1, 228203, Note_on_c, 0, 73, 69
1, 228228, Note_off_c, 0, 73, 67
1, 228244, Control_c, 0, 64, 101
1, 228259, Control_c, 0, 64, 102
1, 228333, Control_c, 0, 64, 102
1, 228357, Note_on_c, 0, 75, 61
1, 228371, Note_on_c, 0, 78, 70
1, 228377, Control_c, 0, 64, 102
1, 228392, Control_c, 0, 64, 99
1, 228393, Note_off_c, 0, 75, 59
1, 228407, Note_on_c, 0, 53, 49
1, 228407, Control_c, 0, 64, 88
1, 228412, Note_on_c, 0, 87, 82
1, 228420, Note_on_c, 0, 54, 61
1, 228422, Control_c, 0, 64, 70
1, 228428, Note_off_c, 0, 78, 64
1, 228437, Control_c, 0, 64, 0
1, 228451, Note_off_c, 0, 53, 60
1, 228497, Control_c, 0, 64, 49
1, 228511, Control_c, 0, 64, 62
1, 228526, Control_c, 0, 64, 63
1, 228541, Control_c, 0, 64, 62
1, 228570, Control_c, 0, 64, 61
1, 228607, Control_c, 0, 64, 61
1, 228622, Note_on_c, 0, 83, 72
1, 228622, Control_c, 0, 64, 60
1, 228631, Note_on_c, 0, 59, 53
1, 228632, Note_on_c, 0, 78, 66
1, 228634, Note_on_c, 0, 63, 41
1, 228637, Note_off_c, 0, 87, 59
1, 228637, Control_c, 0, 64, 58
1, 228643, Note_off_c, 0, 83, 66
1, 228648, Note_off_c, 0, 78, 64
1, 228652, Control_c, 0, 64, 56
1, 228661, Note_off_c, 0, 63, 51
1, 228667, Note_off_c, 0, 59, 57
1, 228667, Control_c, 0, 64, 54
1, 228681, Control_c, 0, 64, 52
1, 228696, Control_c, 0, 64, 46
1, 228711, Control_c, 0, 64, 39
1, 228726, Control_c, 0, 64, 34
1, 228741, Control_c, 0, 64, 34
1, 228755, Control_c, 0, 64, 35
1, 228770, Control_c, 0, 64, 34
1, 228785, Control_c, 0, 64, 32
1, 228792, Note_on_c, 0, 75, 79
1, 228798, Note_on_c, 0, 78, 71
1, 228800, Control_c, 0, 64, 26
1, 228807, Note_on_c, 0, 49, 57
1, 228815, Control_c, 0, 64, 18
1, 228816, Note_off_c, 0, 75, 68
1, 228828, Note_off_c, 0, 78, 63
1, 228829, Control_c, 0, 64, 16
1, 228844, Control_c, 0, 64, 0
1, 228851, Note_off_c, 0, 49, 62
1, 228951, Note_on_c, 0, 63, 54
1, 228956, Note_on_c, 0, 75, 68
1, 228957, Note_on_c, 0, 59, 43
1, 228959, Note_on_c, 0, 71, 60
1, 228980, Note_off_c, 0, 63, 55
1, 228980, Note_off_c, 0, 71, 64
1, 228987, Note_off_c, 0, 75, 66
1, 228996, Note_off_c, 0, 59, 46
1, 229090, Note_on_c, 0, 53, 59
1, 229091, Note_on_c, 0, 78, 73
1, 229102, Note_on_c, 0, 75, 55
1, 229120, Note_off_c, 0, 78, 66
1, 229122, Note_off_c, 0, 75, 58
1, 229157, Note_off_c, 0, 53, 62
1, 229232, Note_on_c, 0, 63, 47
1, 229234, Note_on_c, 0, 83, 65
1, 229236, Note_on_c, 0, 78, 59
1, 229239, Note_on_c, 0, 59, 44
1, 229255, Note_off_c, 0, 63, 58
1, 229255, Note_off_c, 0, 78, 41
1, 229260, Note_on_c, 0, 84, 22
1, 229260, Note_off_c, 0, 83, 63
1, 229272, Note_off_c, 0, 59, 49
1, 229298, Note_off_c, 0, 84, 30
1, 229352, Note_on_c, 0, 87, 76
1, 229376, Note_on_c, 0, 83, 48
1, 229387, Note_on_c, 0, 49, 46
1, 229399, Note_off_c, 0, 83, 57
1, 229405, Note_off_c, 0, 87, 61
1, 229420, Note_off_c, 0, 49, 58
1, 229477, Note_on_c, 0, 90, 74
1, 229495, Note_on_c, 0, 59, 57
1, 229497, Note_on_c, 0, 87, 67
1, 229498, Note_on_c, 0, 63, 55
1, 229515, Note_off_c, 0, 90, 61
1, 229520, Note_off_c, 0, 63, 60
1, 229526, Note_off_c, 0, 59, 62
1, 229530, Note_off_c, 0, 87, 61
1, 229606, Note_on_c, 0, 85, 78
1, 229611, Note_on_c, 0, 73, 73
1, 229619, Note_on_c, 0, 82, 65
1, 229625, Note_on_c, 0, 53, 54
1, 229626, Note_off_c, 0, 73, 65
1, 229645, Note_off_c, 0, 82, 66
1, 229656, Note_off_c, 0, 85, 59
1, 229674, Note_off_c, 0, 53, 58
1, 229733, Note_on_c, 0, 82, 70
1, 229741, Note_on_c, 0, 58, 60
1, 229750, Note_on_c, 0, 78, 61
1, 229758, Note_on_c, 0, 61, 31
1, 229761, Note_off_c, 0, 82, 65
1, 229767, Note_off_c, 0, 78, 63
1, 229776, Note_off_c, 0, 58, 63
1, 229793, Note_off_c, 0, 61, 32
1, 229859, Note_on_c, 0, 78, 69
1, 229868, Note_on_c, 0, 73, 76
1, 229877, Note_on_c, 0, 49, 51
1, 229889, Note_off_c, 0, 73, 69
1, 229903, Note_off_c, 0, 78, 64
1, 229910, Note_off_c, 0, 49, 53
1, 229987, Note_on_c, 0, 73, 76
1, 229988, Note_on_c, 0, 58, 57
1, 229996, Note_on_c, 0, 70, 59
1, 229996, Note_on_c, 0, 61, 42
1, 230012, Note_off_c, 0, 73, 66
1, 230013, Note_off_c, 0, 70, 63
1, 230021, Note_off_c, 0, 61, 54
1, 230028, Note_off_c, 0, 58, 63
1, 230121, Note_on_c, 0, 78, 73
1, 230130, Note_on_c, 0, 53, 53
1, 230134, Note_on_c, 0, 73, 65
1, 230150, Note_off_c, 0, 73, 66
1, 230158, Note_off_c, 0, 78, 65
1, 230178, Note_off_c, 0, 53, 60
1, 230261, Note_on_c, 0, 82, 76
1, 230268, Note_on_c, 0, 58, 53
1, 230274, Note_on_c, 0, 78, 59
1, 230276, Note_on_c, 0, 61, 39
1, 230284, Note_off_c, 0, 82, 66
1, 230292, Note_off_c, 0, 78, 57
1, 230299, Note_off_c, 0, 58, 64
1, 230300, Note_off_c, 0, 61, 50
1, 230387, Control_c, 0, 64, 63
1, 230402, Control_c, 0, 64, 69
1, 230404, Note_on_c, 0, 85, 75
1, 230409, Note_on_c, 0, 78, 61
1, 230411, Note_on_c, 0, 73, 75
1, 230416, Control_c, 0, 64, 74
1, 230417, Note_on_c, 0, 82, 63
1, 230422, Note_on_c, 0, 49, 55
1, 230431, Note_off_c, 0, 73, 63
1, 230431, Control_c, 0, 64, 77
1, 230446, Control_c, 0, 64, 79
1, 230461, Control_c, 0, 64, 81
1, 230462, Note_off_c, 0, 78, 55
1, 230470, Note_off_c, 0, 49, 57
1, 230476, Control_c, 0, 64, 82
1, 230488, Note_off_c, 0, 82, 57
1, 230491, Control_c, 0, 64, 83
1, 230500, Note_off_c, 0, 85, 56
1, 230521, Control_c, 0, 64, 83
1, 230525, Note_off_c, 0, 54, 33
1, 230544, Note_on_c, 0, 58, 58
1, 230556, Note_on_c, 0, 61, 49
1, 230581, Note_off_c, 0, 61, 57
1, 230584, Note_off_c, 0, 58, 61
1, 230586, Note_on_c, 0, 75, 67
1, 230595, Control_c, 0, 64, 82
1, 230600, Note_on_c, 0, 78, 60
1, 230610, Control_c, 0, 64, 78
1, 230615, Note_on_c, 0, 83, 61
1, 230616, Note_off_c, 0, 75, 66
1, 230625, Control_c, 0, 64, 69
1, 230639, Note_off_c, 0, 78, 58
1, 230640, Control_c, 0, 64, 0
1, 230659, Note_on_c, 0, 53, 64
1, 230665, Note_on_c, 0, 87, 74
1, 230678, Note_off_c, 0, 83, 59
1, 230698, Note_on_c, 0, 54, 66
1, 230710, Note_off_c, 0, 53, 61
1, 230810, Note_off_c, 0, 87, 55
1, 230835, Note_on_c, 0, 63, 84
1, 230841, Note_on_c, 0, 83, 69
1, 230858, Note_on_c, 0, 78, 54
1, 230872, Note_off_c, 0, 83, 67
1, 230878, Note_off_c, 0, 78, 60
1, 230878, Note_off_c, 0, 63, 63
1, 230987, Note_on_c, 0, 78, 59
1, 230992, Note_on_c, 0, 75, 70
1, 230995, Note_on_c, 0, 49, 59
1, 231020, Note_off_c, 0, 75, 67
1, 231027, Note_off_c, 0, 78, 62
1, 231043, Note_off_c, 0, 49, 58
1, 231117, Note_on_c, 0, 59, 67
1, 231121, Note_on_c, 0, 75, 74
1, 231131, Note_on_c, 0, 71, 55
1, 231150, Note_off_c, 0, 71, 59
1, 231153, Note_off_c, 0, 75, 62
1, 231156, Note_on_c, 0, 78, 45
1, 231182, Note_off_c, 0, 78, 54
1, 231189, Note_off_c, 0, 59, 57
1, 231241, Note_on_c, 0, 53, 58
1, 231253, Note_on_c, 0, 75, 63
1, 231255, Note_on_c, 0, 78, 66
1, 231271, Note_off_c, 0, 75, 66
1, 231274, Note_off_c, 0, 78, 67
1, 231298, Note_off_c, 0, 53, 62
1, 231372, Note_on_c, 0, 66, 75
1, 231380, Note_on_c, 0, 83, 73
1, 231382, Note_on_c, 0, 78, 62
1, 231395, Note_off_c, 0, 66, 70
1, 231399, Note_off_c, 0, 78, 64
1, 231403, Note_off_c, 0, 83, 65
1, 231492, Note_on_c, 0, 87, 79
1, 231501, Note_on_c, 0, 49, 69
1, 231508, Note_on_c, 0, 83, 59
1, 231525, Note_off_c, 0, 83, 62
1, 231534, Note_off_c, 0, 87, 60
1, 231554, Note_off_c, 0, 49, 55
1, 231614, Note_on_c, 0, 83, 74
1, 231624, Note_on_c, 0, 90, 68
1, 231624, Note_on_c, 0, 63, 65
1, 231629, Note_on_c, 0, 87, 61
1, 231650, Note_off_c, 0, 83, 60
1, 231652, Note_off_c, 0, 63, 67
1, 231657, Note_off_c, 0, 87, 67
1, 231658, Note_off_c, 0, 90, 60
1, 231738, Note_on_c, 0, 53, 56
1, 231742, Note_on_c, 0, 85, 76
1, 231767, Note_on_c, 0, 82, 44
1, 231786, Note_off_c, 0, 53, 62
1, 231791, Note_off_c, 0, 82, 52
1, 231797, Note_off_c, 0, 85, 59
1, 231861, Note_on_c, 0, 82, 67
1, 231865, Note_on_c, 0, 78, 65
1, 231874, Note_on_c, 0, 61, 63
1, 231886, Note_off_c, 0, 78, 64
1, 231890, Note_off_c, 0, 82, 64
1, 231902, Note_off_c, 0, 61, 65
1, 231993, Note_on_c, 0, 78, 72
1, 232002, Note_on_c, 0, 73, 72
1, 232008, Note_on_c, 0, 49, 59
1, 232026, Note_off_c, 0, 73, 69
1, 232047, Note_off_c, 0, 78, 61
1, 232058, Note_off_c, 0, 49, 54
1, 232128, Note_on_c, 0, 70, 69
1, 232130, Note_on_c, 0, 73, 66
1, 232131, Note_on_c, 0, 58, 65
1, 232147, Note_off_c, 0, 70, 67
1, 232160, Note_off_c, 0, 73, 66
1, 232165, Note_off_c, 0, 58, 64
1, 232269, Note_on_c, 0, 78, 66
1, 232276, Note_on_c, 0, 73, 51
1, 232297, Note_off_c, 0, 73, 62
1, 232306, Note_off_c, 0, 78, 62
1, 232366, Poly_aftertouch_c, 0, 53, 0
1, 232425, Note_on_c, 0, 82, 63
1, 232428, Note_on_c, 0, 78, 60
1, 232434, Note_on_c, 0, 66, 51
1, 232442, Note_off_c, 0, 82, 66
1, 232446, Note_off_c, 0, 78, 62
1, 232457, Note_off_c, 0, 66, 60
1, 232601, Note_on_c, 0, 85, 59
1, 232601, Note_on_c, 0, 73, 63
1, 232611, Note_on_c, 0, 49, 43
1, 232612, Note_on_c, 0, 78, 46
1, 232628, Note_on_c, 0, 82, 44
1, 232637, Note_off_c, 0, 73, 57
1, 232664, Control_c, 0, 64, 64
1, 232676, Note_off_c, 0, 78, 49
1, 232679, Note_off_c, 0, 49, 58
1, 232679, Control_c, 0, 64, 70
1, 232694, Control_c, 0, 64, 72
1, 232709, Note_off_c, 0, 54, 60
1, 232709, Control_c, 0, 64, 75
1, 232721, Note_off_c, 0, 82, 38
1, 232721, Note_off_c, 0, 85, 62
1, 232724, Control_c, 0, 64, 76
1, 232738, Note_on_c, 0, 61, 51
1, 232738, Control_c, 0, 64, 78
1, 232753, Control_c, 0, 64, 79
1, 232759, Note_off_c, 0, 61, 59
1, 232768, Control_c, 0, 64, 79
1, 232783, Control_c, 0, 64, 80
1, 232857, Control_c, 0, 64, 79
1, 232872, Control_c, 0, 64, 76
1, 232878, Note_on_c, 0, 54, 56
1, 232880, Note_on_c, 0, 55, 54
1, 232886, Control_c, 0, 64, 70
1, 232896, Note_on_c, 0, 84, 71
1, 232901, Note_off_c, 0, 54, 61
1, 232901, Control_c, 0, 64, 55
1, 232905, Note_off_c, 0, 55, 58
1, 232916, Control_c, 0, 64, 0
1, 232944, Note_off_c, 0, 84, 64
1, 232957, Note_on_c, 0, 85, 64
1, 232983, Note_off_c, 0, 85, 69
1, 233016, Note_on_c, 0, 58, 54
1, 233031, Note_on_c, 0, 64, 38
1, 233037, Note_off_c, 0, 58, 63
1, 233043, Note_on_c, 0, 85, 69
1, 233062, Note_off_c, 0, 64, 46
1, 233075, Note_on_c, 0, 97, 68
1, 233078, Note_off_c, 0, 85, 60
1, 233109, Note_off_c, 0, 97, 68
1, 233135, Note_on_c, 0, 55, 59
1, 233154, Note_on_c, 0, 56, 74
1, 233165, Note_on_c, 0, 83, 74
1, 233173, Note_off_c, 0, 55, 63
1, 233204, Note_off_c, 0, 83, 62
1, 233228, Note_on_c, 0, 85, 28
1, 233230, Note_off_c, 0, 85, 42
1, 233282, Note_on_c, 0, 61, 57
1, 233283, Note_on_c, 0, 65, 48
1, 233286, Note_on_c, 0, 85, 61
1, 233308, Note_off_c, 0, 65, 57
1, 233312, Note_off_c, 0, 85, 68
1, 233314, Note_off_c, 0, 61, 59
1, 233347, Note_on_c, 0, 97, 82
1, 233408, Note_on_c, 0, 99, 72
1, 233409, Note_off_c, 0, 97, 62
1, 233412, Note_on_c, 0, 53, 49
1, 233436, Note_on_c, 0, 95, 67
1, 233445, Note_off_c, 0, 53, 62
1, 233466, Note_on_c, 0, 97, 61
1, 233486, Note_off_c, 0, 95, 61
1, 233494, Note_off_c, 0, 99, 67
1, 233519, Note_off_c, 0, 97, 66
1, 233532, Note_on_c, 0, 85, 69
1, 233537, Note_on_c, 0, 61, 62
1, 233555, Note_off_c, 0, 85, 70
1, 233561, Note_on_c, 0, 65, 22
1, 233567, Note_off_c, 0, 61, 64
1, 233570, Note_off_c, 0, 65, 40
1, 233617, Note_on_c, 0, 85, 58
1, 233637, Note_off_c, 0, 85, 59
1, 233663, Note_on_c, 0, 87, 49
1, 233671, Note_on_c, 0, 83, 63
1, 233698, Note_off_c, 0, 87, 47
1, 233710, Note_on_c, 0, 85, 63
1, 233716, Note_off_c, 0, 83, 63
1, 233763, Note_off_c, 0, 85, 64
1, 233766, Note_on_c, 0, 61, 63
1, 233776, Note_off_c, 0, 56, 57
1, 233777, Note_on_c, 0, 73, 76
1, 233796, Note_on_c, 0, 65, 47
1, 233800, Note_off_c, 0, 73, 68
1, 233817, Note_off_c, 0, 61, 57
1, 233822, Note_off_c, 0, 65, 58
1, 233835, Note_on_c, 0, 85, 48
1, 233864, Note_off_c, 0, 85, 60
1, 233901, Note_on_c, 0, 57, 64
1, 233909, Note_on_c, 0, 56, 58
1, 233916, Note_on_c, 0, 84, 83
1, 233925, Note_off_c, 0, 57, 65
1, 233932, Note_off_c, 0, 56, 64
1, 233956, Note_off_c, 0, 84, 65
1, 233964, Note_on_c, 0, 85, 67
1, 233996, Note_off_c, 0, 85, 68
1, 234037, Note_on_c, 0, 60, 59
1, 234038, Note_on_c, 0, 85, 68
1, 234038, Note_on_c, 0, 65, 57
1, 234057, Note_off_c, 0, 60, 64
1, 234059, Note_off_c, 0, 65, 65
1, 234074, Note_on_c, 0, 97, 81
1, 234077, Note_off_c, 0, 85, 61
1, 234104, Note_off_c, 0, 97, 61
1, 234144, Note_on_c, 0, 57, 65
1, 234164, Note_on_c, 0, 82, 76
1, 234180, Note_off_c, 0, 57, 64
1, 234183, Note_on_c, 0, 58, 69
1, 234202, Note_off_c, 0, 82, 66
1, 234211, Note_on_c, 0, 85, 60
1, 234239, Note_off_c, 0, 85, 68
1, 234289, Note_on_c, 0, 66, 54
1, 234292, Note_on_c, 0, 85, 69
1, 234296, Note_on_c, 0, 61, 46
1, 234315, Note_off_c, 0, 66, 56
1, 234317, Note_off_c, 0, 85, 68
1, 234340, Note_on_c, 0, 97, 76
1, 234352, Note_off_c, 0, 61, 53
1, 234405, Note_off_c, 0, 97, 64
1, 234408, Note_on_c, 0, 99, 66
1, 234414, Note_on_c, 0, 54, 54
1, 234420, Note_on_c, 0, 94, 65
1, 234463, Note_off_c, 0, 54, 57
1, 234471, Note_on_c, 0, 97, 67
1, 234478, Note_off_c, 0, 94, 65
1, 234485, Note_off_c, 0, 99, 66
1, 234512, Note_off_c, 0, 97, 64
1, 234527, Note_on_c, 0, 85, 69
1, 234546, Note_on_c, 0, 61, 63
1, 234551, Note_off_c, 0, 85, 70
1, 234563, Note_on_c, 0, 66, 41
1, 234582, Note_off_c, 0, 61, 60
1, 234591, Note_off_c, 0, 66, 55
1, 234625, Note_on_c, 0, 85, 56
1, 234652, Note_off_c, 0, 85, 68
1, 234662, Note_on_c, 0, 82, 71
1, 234669, Note_on_c, 0, 87, 59
1, 234716, Note_off_c, 0, 87, 57
1, 234718, Note_on_c, 0, 85, 75
1, 234722, Note_off_c, 0, 82, 61
1, 234771, Note_off_c, 0, 85, 64
1, 234783, Note_on_c, 0, 73, 71
1, 234788, Note_on_c, 0, 61, 59
1, 234800, Note_on_c, 0, 66, 53
1, 234807, Note_off_c, 0, 73, 69
1, 234822, Note_off_c, 0, 58, 62
1, 234822, Note_off_c, 0, 61, 62
1, 234825, Note_off_c, 0, 66, 63
1, 234829, Note_on_c, 0, 85, 57
1, 234858, Note_off_c, 0, 85, 67
1, 234908, Note_on_c, 0, 84, 85
1, 234916, Note_on_c, 0, 58, 56
1, 234937, Note_off_c, 0, 58, 63
1, 234956, Note_off_c, 0, 84, 62
1, 234962, Note_on_c, 0, 85, 74
1, 234992, Note_off_c, 0, 85, 65
1, 235028, Note_on_c, 0, 85, 76
1, 235034, Note_on_c, 0, 67, 67
1, 235042, Note_on_c, 0, 64, 58
1, 235062, Note_off_c, 0, 64, 61
1, 235063, Note_off_c, 0, 67, 66
1, 235072, Note_on_c, 0, 97, 79
1, 235075, Note_off_c, 0, 85, 62
1, 235110, Note_off_c, 0, 97, 63
1, 235147, Note_on_c, 0, 83, 81
1, 235159, Note_on_c, 0, 59, 74
1, 235192, Note_off_c, 0, 83, 63
1, 235198, Note_on_c, 0, 85, 69
1, 235228, Note_off_c, 0, 85, 65
1, 235267, Note_on_c, 0, 85, 70
1, 235292, Note_off_c, 0, 85, 67
1, 235321, Note_on_c, 0, 97, 75
1, 235353, Note_off_c, 0, 97, 68
1, 235395, Note_off_c, 0, 59, 51
1, 235409, Note_on_c, 0, 57, 73
1, 235418, Note_on_c, 0, 101, 92
1, 235422, Note_on_c, 0, 93, 85
1, 235433, Note_off_c, 0, 57, 68
1, 235442, Note_off_c, 0, 93, 67
1, 235474, Note_off_c, 0, 101, 51
1, 235491, Note_on_c, 0, 99, 81
1, 235547, Note_on_c, 0, 97, 65
1, 235558, Note_on_c, 0, 61, 53
1, 235567, Note_off_c, 0, 99, 68
1, 235576, Note_off_c, 0, 97, 65
1, 235590, Note_off_c, 0, 61, 64
1, 235602, Note_on_c, 0, 85, 67
1, 235632, Note_off_c, 0, 85, 64
1, 235681, Note_on_c, 0, 84, 65
1, 235687, Note_on_c, 0, 56, 40
1, 235713, Note_off_c, 0, 56, 50
1, 235724, Note_off_c, 0, 84, 65
1, 235739, Note_on_c, 0, 85, 53
1, 235759, Note_off_c, 0, 85, 57
1, 235803, Note_on_c, 0, 85, 73
1, 235809, Note_on_c, 0, 61, 49
1, 235811, Note_on_c, 0, 65, 49
1, 235824, Note_on_c, 0, 97, 73
1, 235831, Note_off_c, 0, 85, 64
1, 235833, Note_off_c, 0, 61, 36
1, 235835, Note_off_c, 0, 65, 56
1, 235846, Note_off_c, 0, 97, 70
1, 235921, Note_on_c, 0, 77, 76
1, 235926, Note_on_c, 0, 66, 83
1, 235963, Note_off_c, 0, 77, 63
1, 235969, Note_on_c, 0, 78, 73
1, 235997, Note_off_c, 0, 78, 65
1, 236036, Note_on_c, 0, 78, 73
1, 236053, Note_on_c, 0, 70, 67
1, 236055, Note_on_c, 0, 73, 56
1, 236058, Note_off_c, 0, 66, 54
1, 236061, Note_off_c, 0, 78, 66
1, 236088, Note_on_c, 0, 90, 64
1, 236091, Note_off_c, 0, 73, 63
1, 236093, Note_off_c, 0, 70, 59
1, 236128, Note_off_c, 0, 90, 64
1, 236167, Note_on_c, 0, 63, 60
1, 236169, Note_on_c, 0, 83, 69
1, 236202, Note_off_c, 0, 63, 64
1, 236205, Note_off_c, 0, 83, 58
1, 236224, Note_on_c, 0, 84, 71
1, 236249, Note_off_c, 0, 84, 65
1, 236289, Note_on_c, 0, 84, 75
1, 236311, Note_on_c, 0, 72, 55
1, 236317, Note_off_c, 0, 84, 64
1, 236333, Note_off_c, 0, 72, 62
1, 236335, Note_on_c, 0, 69, 5
1, 236354, Note_on_c, 0, 96, 69
1, 236365, Note_off_c, 0, 69, 40
1, 236385, Note_off_c, 0, 96, 61
1, 236412, Note_on_c, 0, 88, 69
1, 236421, Note_on_c, 0, 62, 63
1, 236447, Note_off_c, 0, 88, 57
1, 236454, Note_off_c, 0, 62, 63
1, 236460, Note_on_c, 0, 89, 72
1, 236483, Note_off_c, 0, 89, 71
1, 236518, Note_on_c, 0, 89, 74
1, 236542, Note_off_c, 0, 89, 66
1, 236563, Note_on_c, 0, 71, 37
1, 236566, Note_on_c, 0, 65, 29
1, 236586, Note_on_c, 0, 101, 60
1, 236593, Note_off_c, 0, 71, 43
1, 236602, Note_off_c, 0, 65, 41
1, 236607, Note_off_c, 0, 101, 57
1, 236666, Note_on_c, 0, 92, 70
1, 236668, Note_on_c, 0, 61, 59
1, 236694, Note_off_c, 0, 92, 65
1, 236695, Note_off_c, 0, 61, 60
1, 236705, Note_on_c, 0, 90, 78
1, 236736, Note_off_c, 0, 90, 64
1, 236772, Note_on_c, 0, 90, 69
1, 236783, Note_on_c, 0, 66, 58
1, 236792, Note_on_c, 0, 70, 41
1, 236803, Note_off_c, 0, 66, 66
1, 236809, Note_off_c, 0, 90, 62
1, 236819, Note_off_c, 0, 70, 50
1, 236822, Note_on_c, 0, 102, 80
1, 236855, Note_off_c, 0, 102, 68
1, 236939, Note_on_c, 0, 84, 82
1, 236959, Note_on_c, 0, 54, 37
1, 236959, Note_on_c, 0, 55, 45
1, 236984, Note_off_c, 0, 84, 64
1, 236986, Note_off_c, 0, 55, 58
1, 236988, Note_off_c, 0, 54, 51
1, 237000, Note_on_c, 0, 85, 70
1, 237026, Note_off_c, 0, 85, 68
1, 237073, Note_on_c, 0, 85, 67
1, 237077, Note_on_c, 0, 58, 66
1, 237083, Note_on_c, 0, 64, 54
1, 237103, Note_off_c, 0, 64, 62
1, 237107, Note_off_c, 0, 58, 66
1, 237111, Note_off_c, 0, 85, 62
1, 237117, Note_on_c, 0, 97, 76
1, 237144, Note_off_c, 0, 97, 66
1, 237186, Note_on_c, 0, 55, 74
1, 237196, Note_on_c, 0, 83, 75
1, 237198, Note_on_c, 0, 56, 83
1, 237233, Note_off_c, 0, 55, 62
1, 237237, Note_off_c, 0, 83, 61
1, 237249, Note_on_c, 0, 85, 64
1, 237276, Note_off_c, 0, 85, 68
1, 237312, Note_on_c, 0, 85, 72
1, 237324, Note_on_c, 0, 61, 64
1, 237326, Note_on_c, 0, 65, 52
1, 237338, Note_off_c, 0, 85, 66
1, 237350, Note_off_c, 0, 65, 59
1, 237356, Note_off_c, 0, 61, 61
1, 237377, Note_on_c, 0, 97, 82
1, 237436, Note_on_c, 0, 99, 73
1, 237448, Note_off_c, 0, 97, 64
1, 237449, Note_on_c, 0, 53, 58
1, 237464, Note_on_c, 0, 95, 71
1, 237483, Note_off_c, 0, 53, 65
1, 237499, Note_on_c, 0, 97, 60
1, 237520, Note_off_c, 0, 95, 65
1, 237523, Note_off_c, 0, 99, 66
1, 237555, Note_off_c, 0, 97, 65
1, 237564, Note_on_c, 0, 85, 67
1, 237588, Note_off_c, 0, 85, 70
1, 237589, Note_on_c, 0, 61, 68
1, 237609, Note_on_c, 0, 65, 41
1, 237624, Note_off_c, 0, 61, 64
1, 237639, Note_off_c, 0, 65, 51
1, 237648, Note_on_c, 0, 85, 71
1, 237684, Note_off_c, 0, 85, 55
1, 237702, Note_on_c, 0, 87, 53
1, 237722, Note_on_c, 0, 83, 54
1, 237742, Note_on_c, 0, 85, 72
1, 237752, Note_off_c, 0, 83, 63
1, 237760, Note_off_c, 0, 87, 50
1, 237806, Note_off_c, 0, 85, 64
1, 237816, Note_on_c, 0, 73, 72
1, 237830, Note_on_c, 0, 61, 63
1, 237838, Note_off_c, 0, 73, 68
1, 237839, Note_off_c, 0, 56, 55
1, 237849, Note_on_c, 0, 65, 54
1, 237868, Note_off_c, 0, 61, 64
1, 237872, Note_off_c, 0, 65, 65
1, 237876, Note_on_c, 0, 85, 60
1, 237900, Note_off_c, 0, 85, 67
1, 237952, Note_on_c, 0, 84, 83
1, 237955, Note_on_c, 0, 57, 64
1, 237964, Note_on_c, 0, 56, 60
1, 237982, Note_off_c, 0, 57, 64
1, 237991, Note_off_c, 0, 56, 65
1, 237996, Note_off_c, 0, 84, 65
1, 238006, Note_on_c, 0, 85, 67
1, 238034, Note_off_c, 0, 85, 67
1, 238081, Note_on_c, 0, 85, 64
1, 238092, Note_on_c, 0, 60, 60
1, 238101, Note_on_c, 0, 65, 48
1, 238110, Note_off_c, 0, 60, 64
1, 238119, Note_off_c, 0, 85, 61
1, 238122, Note_on_c, 0, 97, 76
1, 238127, Note_off_c, 0, 65, 55
1, 238144, Note_off_c, 0, 97, 69
1, 238202, Note_on_c, 0, 57, 57
1, 238227, Note_on_c, 0, 82, 51
1, 238244, Note_off_c, 0, 57, 62
1, 238251, Note_on_c, 0, 58, 64
1, 238254, Note_off_c, 0, 82, 60
1, 238270, Note_on_c, 0, 85, 57
1, 238297, Note_off_c, 0, 85, 68
1, 238358, Note_on_c, 0, 85, 59
1, 238362, Note_on_c, 0, 61, 52
1, 238370, Note_on_c, 0, 66, 41
1, 238375, Note_off_c, 0, 85, 65
1, 238399, Note_off_c, 0, 66, 53
1, 238409, Note_on_c, 0, 97, 77
1, 238412, Note_off_c, 0, 61, 54
1, 238464, Note_on_c, 0, 99, 70
1, 238465, Note_off_c, 0, 97, 62
1, 238482, Note_on_c, 0, 94, 71
1, 238504, Note_on_c, 0, 54, 44
1, 238532, Note_on_c, 0, 97, 66
1, 238533, Note_off_c, 0, 54, 54
1, 238535, Note_off_c, 0, 94, 63
1, 238545, Note_off_c, 0, 99, 67
1, 238557, Note_off_c, 0, 97, 68
1, 238581, Note_on_c, 0, 85, 68
1, 238603, Note_off_c, 0, 85, 69
1, 238623, Note_on_c, 0, 61, 59
1, 238635, Note_on_c, 0, 66, 39
1, 238653, Note_off_c, 0, 61, 63
1, 238657, Note_on_c, 0, 85, 75
1, 238663, Note_off_c, 0, 66, 53
1, 238684, Note_off_c, 0, 85, 64
1, 238711, Note_on_c, 0, 82, 69
1, 238715, Note_on_c, 0, 87, 57
1, 238763, Note_on_c, 0, 85, 78
1, 238766, Note_off_c, 0, 82, 63
1, 238776, Note_off_c, 0, 87, 60
1, 238816, Note_off_c, 0, 85, 65
1, 238831, Note_on_c, 0, 73, 74
1, 238841, Note_on_c, 0, 61, 66
1, 238853, Note_off_c, 0, 73, 68
1, 238858, Note_on_c, 0, 66, 56
1, 238879, Note_on_c, 0, 85, 57
1, 238880, Note_off_c, 0, 58, 63
1, 238880, Note_off_c, 0, 61, 64
1, 238880, Note_off_c, 0, 66, 64
1, 238910, Note_off_c, 0, 85, 67
1, 238958, Note_on_c, 0, 84, 86
1, 238970, Note_on_c, 0, 58, 69
1, 238997, Note_off_c, 0, 58, 67
1, 239003, Note_off_c, 0, 84, 67
1, 239021, Note_on_c, 0, 85, 75
1, 239043, Note_off_c, 0, 85, 67
1, 239082, Note_on_c, 0, 85, 74
1, 239099, Note_on_c, 0, 67, 72
1, 239100, Note_on_c, 0, 64, 74
1, 239124, Note_off_c, 0, 67, 68
1, 239124, Note_off_c, 0, 64, 69
1, 239128, Note_on_c, 0, 97, 81
1, 239136, Note_off_c, 0, 85, 63
1, 239165, Note_off_c, 0, 97, 63
1, 239210, Note_on_c, 0, 83, 79
1, 239214, Note_on_c, 0, 59, 84
1, 239255, Note_off_c, 0, 83, 62
1, 239261, Note_on_c, 0, 85, 73
1, 239292, Note_off_c, 0, 85, 66
1, 239327, Poly_aftertouch_c, 0, 85, 0
1, 239334, Note_on_c, 0, 85, 67
1, 239358, Note_off_c, 0, 85, 67
1, 239376, Note_on_c, 0, 97, 79
1, 239396, Note_off_c, 0, 97, 68
1, 239431, Note_off_c, 0, 59, 59
1, 239460, Note_on_c, 0, 57, 76
1, 239472, Note_on_c, 0, 93, 85
1, 239475, Note_on_c, 0, 101, 89
1, 239493, Note_off_c, 0, 93, 67
1, 239498, Note_off_c, 0, 57, 63
1, 239533, Note_off_c, 0, 101, 48
1, 239551, Note_on_c, 0, 98, 67
1, 239597, Note_on_c, 0, 97, 62
1, 239603, Note_on_c, 0, 61, 58
1, 239614, Note_off_c, 0, 98, 63
1, 239629, Note_off_c, 0, 97, 65
1, 239639, Note_off_c, 0, 61, 63
1, 239659, Note_on_c, 0, 85, 73
1, 239681, Note_off_c, 0, 85, 67
1, 239722, Note_on_c, 0, 56, 55
1, 239745, Note_on_c, 0, 84, 60
1, 239747, Note_off_c, 0, 56, 64
1, 239773, Note_on_c, 0, 85, 64
1, 239776, Note_off_c, 0, 84, 67
1, 239803, Note_off_c, 0, 85, 66
1, 239848, Note_on_c, 0, 61, 60
1, 239849, Note_on_c, 0, 65, 65
1, 239857, Note_on_c, 0, 85, 72
1, 239867, Note_off_c, 0, 61, 62
1, 239877, Note_off_c, 0, 65, 68
1, 239892, Note_on_c, 0, 97, 71
1, 239896, Note_off_c, 0, 85, 64
1, 239916, Note_off_c, 0, 97, 68
1, 239979, Note_on_c, 0, 66, 85
1, 239986, Note_on_c, 0, 77, 76
1, 240035, Note_off_c, 0, 77, 63
1, 240043, Note_on_c, 0, 78, 69
1, 240068, Note_off_c, 0, 78, 68
1, 240110, Note_on_c, 0, 78, 73
1, 240117, Note_on_c, 0, 70, 64
1, 240121, Note_on_c, 0, 73, 58
1, 240134, Note_off_c, 0, 66, 51
1, 240134, Note_off_c, 0, 78, 69
1, 240152, Note_on_c, 0, 90, 72
1, 240154, Note_off_c, 0, 70, 60
1, 240154, Note_off_c, 0, 73, 64
1, 240182, Note_off_c, 0, 90, 61
1, 240239, Note_on_c, 0, 83, 63
1, 240269, Note_off_c, 0, 83, 63
1, 240287, Note_on_c, 0, 84, 71
1, 240310, Note_off_c, 0, 84, 70
1, 240355, Note_on_c, 0, 84, 77
1, 240376, Note_on_c, 0, 69, 43
1, 240380, Note_on_c, 0, 72, 41
1, 240382, Note_off_c, 0, 84, 65
1, 240402, Note_off_c, 0, 69, 49
1, 240405, Note_off_c, 0, 72, 51
1, 240419, Note_on_c, 0, 96, 70
1, 240444, Note_off_c, 0, 96, 66
1, 240477, Note_on_c, 0, 62, 63
1, 240480, Note_on_c, 0, 88, 68
1, 240508, Note_off_c, 0, 62, 63
1, 240511, Note_off_c, 0, 88, 59
1, 240528, Note_on_c, 0, 89, 62
1, 240544, Note_off_c, 0, 89, 65
1, 240607, Note_on_c, 0, 89, 59
1, 240620, Note_on_c, 0, 71, 45
1, 240621, Note_on_c, 0, 65, 38
1, 240624, Note_off_c, 0, 89, 64
1, 240644, Note_off_c, 0, 71, 52
1, 240647, Note_on_c, 0, 101, 76
1, 240652, Note_off_c, 0, 65, 49
1, 240669, Note_off_c, 0, 101, 70
1, 240738, Note_on_c, 0, 61, 56
1, 240741, Note_on_c, 0, 92, 76
1, 240762, Note_off_c, 0, 61, 60
1, 240765, Note_off_c, 0, 92, 67
1, 240776, Note_on_c, 0, 90, 67
1, 240795, Note_off_c, 0, 90, 66
1, 240843, Note_on_c, 0, 66, 65
1, 240847, Note_on_c, 0, 70, 57
1, 240847, Note_on_c, 0, 90, 80
1, 240868, Note_off_c, 0, 70, 65
1, 240872, Note_off_c, 0, 66, 67
1, 240879, Note_off_c, 0, 90, 62
1, 240893, Note_on_c, 0, 102, 72
1, 240918, Note_off_c, 0, 102, 69
1, 241006, Note_on_c, 0, 66, 61
1, 241007, Note_on_c, 0, 74, 57
1, 241016, Note_on_c, 0, 87, 65
1, 241036, Note_off_c, 0, 74, 66
1, 241059, Note_off_c, 0, 87, 55
1, 241086, Note_on_c, 0, 75, 63
1, 241136, Note_off_c, 0, 75, 59
1, 241147, Note_on_c, 0, 83, 65
1, 241156, Note_on_c, 0, 74, 59
1, 241186, Note_off_c, 0, 74, 66
1, 241188, Note_off_c, 0, 83, 56
1, 241204, Note_on_c, 0, 75, 59
1, 241221, Note_off_c, 0, 66, 62
1, 241268, Note_on_c, 0, 82, 74
1, 241272, Note_off_c, 0, 75, 57
1, 241276, Note_on_c, 0, 61, 58
1, 241284, Note_on_c, 0, 74, 49
1, 241300, Note_off_c, 0, 61, 64
1, 241304, Note_off_c, 0, 74, 61
1, 241330, Note_off_c, 0, 82, 63
1, 241347, Note_on_c, 0, 75, 58
1, 241394, Note_off_c, 0, 75, 62
1, 241396, Note_on_c, 0, 74, 60
1, 241408, Note_on_c, 0, 83, 64
1, 241426, Note_off_c, 0, 74, 67
1, 241448, Note_off_c, 0, 83, 58
1, 241473, Note_on_c, 0, 75, 70
1, 241520, Note_off_c, 0, 75, 62
1, 241526, Note_on_c, 0, 66, 61
1, 241532, Note_on_c, 0, 74, 60
1, 241537, Note_on_c, 0, 87, 71
1, 241559, Note_off_c, 0, 74, 68
1, 241577, Note_off_c, 0, 87, 60
1, 241592, Note_on_c, 0, 75, 70
1, 241650, Note_off_c, 0, 75, 64
1, 241655, Note_on_c, 0, 83, 69
1, 241669, Note_on_c, 0, 74, 58
1, 241693, Note_off_c, 0, 83, 60
1, 241703, Note_off_c, 0, 74, 63
1, 241711, Note_on_c, 0, 75, 72
1, 241750, Note_off_c, 0, 66, 63
1, 241758, Note_off_c, 0, 75, 64
1, 241785, Note_on_c, 0, 61, 59
1, 241787, Note_on_c, 0, 90, 78
1, 241805, Note_on_c, 0, 74, 59
1, 241810, Note_off_c, 0, 90, 67
1, 241824, Note_off_c, 0, 61, 63
1, 241824, Note_off_c, 0, 74, 66
1, 241844, Note_on_c, 0, 75, 74
1, 241893, Note_off_c, 0, 75, 59
1, 241902, Note_on_c, 0, 74, 65
1, 241910, Note_on_c, 0, 87, 70
1, 241927, Note_off_c, 0, 74, 70
1, 241970, Note_off_c, 0, 87, 60
1, 241981, Note_on_c, 0, 75, 62
1, 242026, Note_off_c, 0, 75, 60
1, 242028, Note_on_c, 0, 66, 58
1, 242034, Note_on_c, 0, 73, 60
1, 242039, Note_on_c, 0, 85, 69
1, 242061, Note_off_c, 0, 73, 63
1, 242075, Note_off_c, 0, 85, 57
1, 242103, Note_on_c, 0, 75, 64
1, 242161, Note_on_c, 0, 73, 65
1, 242161, Note_off_c, 0, 75, 62
1, 242175, Note_on_c, 0, 82, 71
1, 242197, Note_off_c, 0, 73, 60
1, 242206, Note_off_c, 0, 82, 60
1, 242236, Note_on_c, 0, 75, 62
1, 242259, Note_off_c, 0, 66, 61
1, 242289, Note_off_c, 0, 75, 60
1, 242295, Note_on_c, 0, 61, 54
1, 242299, Note_on_c, 0, 73, 64
1, 242302, Note_on_c, 0, 81, 71
1, 242326, Note_off_c, 0, 73, 66
1, 242328, Note_off_c, 0, 61, 63
1, 242342, Note_off_c, 0, 81, 61
1, 242361, Note_on_c, 0, 75, 65
1, 242412, Note_on_c, 0, 73, 69
1, 242416, Note_off_c, 0, 75, 60
1, 242443, Note_on_c, 0, 82, 52
1, 242446, Note_off_c, 0, 73, 60
1, 242465, Note_off_c, 0, 82, 61
1, 242492, Note_on_c, 0, 75, 64
1, 242544, Note_on_c, 0, 73, 70
1, 242551, Note_on_c, 0, 66, 58
1, 242551, Note_off_c, 0, 75, 62
1, 242562, Note_on_c, 0, 85, 60
1, 242574, Note_off_c, 0, 73, 63
1, 242600, Note_off_c, 0, 85, 57
1, 242616, Note_on_c, 0, 75, 58
1, 242665, Note_off_c, 0, 66, 0
1, 242665, Note_on_c, 0, 66, 6
1, 242668, Note_on_c, 0, 82, 61
1, 242670, Note_off_c, 0, 75, 60
1, 242674, Note_on_c, 0, 73, 62
1, 242698, Note_off_c, 0, 82, 67
1, 242707, Note_off_c, 0, 73, 63
1, 242726, Note_on_c, 0, 75, 66
1, 242765, Note_off_c, 0, 75, 64
1, 242768, Note_off_c, 0, 66, 56
1, 242798, Note_on_c, 0, 73, 66
1, 242803, Note_on_c, 0, 61, 52
1, 242803, Note_on_c, 0, 90, 73
1, 242826, Note_off_c, 0, 90, 67
1, 242837, Note_off_c, 0, 73, 62
1, 242847, Note_off_c, 0, 61, 58
1, 242868, Note_on_c, 0, 75, 68
1, 242909, Note_off_c, 0, 75, 61
1, 242924, Note_on_c, 0, 73, 64
1, 242947, Note_on_c, 0, 85, 57
1, 242952, Note_off_c, 0, 73, 66
1, 242977, Note_off_c, 0, 85, 53
1, 243011, Note_on_c, 0, 75, 60
1, 243046, Note_on_c, 0, 74, 53
1, 243048, Note_on_c, 0, 66, 53
1, 243049, Note_off_c, 0, 75, 60
1, 243066, Note_on_c, 0, 87, 72
1, 243069, Note_off_c, 0, 74, 62
1, 243118, Note_off_c, 0, 87, 61
1, 243134, Note_on_c, 0, 75, 60
1, 243180, Note_on_c, 0, 74, 49
1, 243182, Note_off_c, 0, 75, 61
1, 243198, Note_on_c, 0, 83, 58
1, 243218, Note_off_c, 0, 74, 62
1, 243227, Note_off_c, 0, 83, 53
1, 243249, Note_on_c, 0, 75, 62
1, 243271, Note_off_c, 0, 66, 58
1, 243299, Note_on_c, 0, 61, 57
1, 243311, Note_on_c, 0, 74, 50
1, 243319, Note_on_c, 0, 82, 71
1, 243324, Note_off_c, 0, 75, 52
1, 243331, Note_off_c, 0, 74, 61
1, 243333, Note_off_c, 0, 61, 62
1, 243365, Note_off_c, 0, 82, 61
1, 243370, Note_on_c, 0, 75, 40
1, 243418, Note_on_c, 0, 74, 57
1, 243428, Note_off_c, 0, 75, 63
1, 243440, Note_on_c, 0, 83, 60
1, 243452, Note_off_c, 0, 74, 64
1, 243474, Note_off_c, 0, 83, 59
1, 243495, Note_on_c, 0, 75, 64
1, 243550, Note_off_c, 0, 75, 62
1, 243556, Note_on_c, 0, 66, 60
1, 243560, Note_on_c, 0, 74, 56
1, 243566, Note_on_c, 0, 87, 64
1, 243592, Note_off_c, 0, 74, 62
1, 243604, Note_off_c, 0, 87, 64
1, 243620, Note_on_c, 0, 75, 66
1, 243680, Note_off_c, 0, 75, 64
1, 243691, Note_on_c, 0, 83, 60
1, 243708, Note_on_c, 0, 74, 45
1, 243722, Note_off_c, 0, 83, 62
1, 243737, Note_on_c, 0, 75, 71
1, 243765, Note_off_c, 0, 74, 57
1, 243789, Note_off_c, 0, 75, 65
1, 243810, Note_off_c, 0, 66, 62
1, 243816, Note_on_c, 0, 90, 77
1, 243831, Note_on_c, 0, 61, 50
1, 243839, Note_off_c, 0, 90, 67
1, 243841, Note_on_c, 0, 74, 48
1, 243867, Note_on_c, 0, 75, 70
1, 243869, Note_off_c, 0, 74, 64
1, 243882, Note_off_c, 0, 61, 56
1, 243927, Note_off_c, 0, 75, 60
1, 243941, Note_on_c, 0, 87, 70
1, 243991, Note_off_c, 0, 87, 58
1, 243992, Note_on_c, 0, 75, 60
1, 244047, Note_on_c, 0, 73, 61
1, 244050, Note_on_c, 0, 66, 49
1, 244057, Note_off_c, 0, 75, 59
1, 244063, Note_on_c, 0, 85, 72
1, 244078, Note_off_c, 0, 73, 63
1, 244094, Note_off_c, 0, 85, 58
1, 244114, Note_on_c, 0, 75, 62
1, 244182, Note_off_c, 0, 75, 62
1, 244184, Note_on_c, 0, 73, 55
1, 244188, Note_on_c, 0, 82, 72
1, 244212, Note_off_c, 0, 73, 61
1, 244229, Note_off_c, 0, 82, 61
1, 244251, Note_on_c, 0, 75, 58
1, 244284, Note_off_c, 0, 66, 60
1, 244298, Note_on_c, 0, 73, 67
1, 244306, Note_off_c, 0, 75, 60
1, 244317, Note_on_c, 0, 61, 52
1, 244321, Note_on_c, 0, 81, 72
1, 244342, Note_off_c, 0, 73, 60
1, 244356, Note_off_c, 0, 61, 59
1, 244373, Note_off_c, 0, 81, 61
1, 244382, Note_on_c, 0, 75, 56
1, 244445, Note_off_c, 0, 75, 64
1, 244452, Note_on_c, 0, 82, 69
1, 244453, Note_on_c, 0, 73, 67
1, 244484, Note_off_c, 0, 82, 60
1, 244485, Note_off_c, 0, 73, 60
1, 244503, Note_on_c, 0, 75, 66
1, 244569, Note_off_c, 0, 75, 63
1, 244579, Note_on_c, 0, 73, 68
1, 244580, Note_on_c, 0, 66, 63
1, 244581, Note_on_c, 0, 85, 67
1, 244637, Note_on_c, 0, 75, 67
1, 244644, Note_off_c, 0, 85, 54
1, 244656, Note_off_c, 0, 73, 47
1, 244687, Note_on_c, 0, 82, 60
1, 244687, Note_off_c, 0, 75, 61
1, 244741, Note_off_c, 0, 82, 61
1, 244749, Note_on_c, 0, 75, 68
1, 244778, Control_c, 0, 64, 11
1, 244793, Control_c, 0, 64, 0
1, 244796, Note_off_c, 0, 75, 63
1, 244806, Note_off_c, 0, 66, 61
1, 244840, Note_on_c, 0, 66, 59
1, 244841, Note_on_c, 0, 73, 84
1, 244841, Note_on_c, 0, 90, 91
1, 244845, Note_on_c, 0, 61, 70
1, 244851, Note_on_c, 0, 82, 77
1, 244858, Note_off_c, 0, 73, 72
1, 244865, Note_off_c, 0, 82, 70
1, 244871, Note_off_c, 0, 61, 68
1, 244871, Note_off_c, 0, 90, 64
1, 244873, Note_off_c, 0, 66, 68
1, 245118, Note_on_c, 0, 72, 66
1, 245135, Note_off_c, 0, 72, 66
1, 245192, Note_on_c, 0, 85, 67
1, 245214, Note_off_c, 0, 85, 69
1, 245266, Note_on_c, 0, 60, 70
1, 245267, Note_on_c, 0, 61, 79
1, 245284, Note_off_c, 0, 60, 65
1, 245285, Note_off_c, 0, 61, 68
1, 245287, Note_on_c, 0, 85, 54
1, 245308, Note_on_c, 0, 87, 43
1, 245311, Note_off_c, 0, 85, 61
1, 245328, Note_on_c, 0, 97, 57
1, 245333, Note_off_c, 0, 87, 36
1, 245402, Note_on_c, 0, 92, 58
1, 245405, Note_off_c, 0, 97, 56
1, 245412, Note_on_c, 0, 95, 57
1, 245440, Note_off_c, 0, 95, 65
1, 245446, Note_off_c, 0, 92, 56
1, 245446, Note_on_c, 0, 85, 75
1, 245447, Note_on_c, 0, 94, 34
1, 245467, Note_off_c, 0, 85, 70
1, 245479, Note_off_c, 0, 94, 41
1, 245518, Note_on_c, 0, 65, 93
1, 245521, Note_on_c, 0, 64, 85
1, 245535, Note_off_c, 0, 65, 75
1, 245538, Note_on_c, 0, 85, 79
1, 245539, Note_off_c, 0, 64, 71
1, 245598, Note_off_c, 0, 85, 48
1, 245600, Note_on_c, 0, 73, 75
1, 245625, Note_off_c, 0, 73, 68
1, 245676, Note_on_c, 0, 72, 78
1, 245707, Note_off_c, 0, 72, 62
1, 245743, Note_on_c, 0, 85, 65
1, 245768, Note_off_c, 0, 85, 68
1, 245789, Note_on_c, 0, 69, 97
1, 245791, Note_on_c, 0, 70, 95
1, 245807, Note_off_c, 0, 69, 74
1, 245813, Note_off_c, 0, 70, 67
1, 245822, Note_on_c, 0, 85, 77
1, 245857, Note_off_c, 0, 85, 67
1, 245866, Note_on_c, 0, 97, 66
1, 245935, Note_on_c, 0, 92, 71
1, 245939, Note_on_c, 0, 95, 74
1, 245968, Note_off_c, 0, 97, 63
1, 245986, Note_off_c, 0, 95, 66
1, 245989, Note_off_c, 0, 92, 59
1, 245995, Note_on_c, 0, 85, 75
1, 246014, Note_off_c, 0, 85, 70
1, 246073, Note_on_c, 0, 67, 77
1, 246073, Note_on_c, 0, 68, 80
1, 246080, Note_on_c, 0, 85, 70
1, 246094, Note_off_c, 0, 68, 71
1, 246096, Note_off_c, 0, 67, 70
1, 246132, Note_off_c, 0, 85, 59
1, 246140, Note_on_c, 0, 73, 77
1, 246163, Note_off_c, 0, 73, 66
1, 246221, Note_on_c, 0, 72, 78
1, 246256, Note_off_c, 0, 72, 66
1, 246284, Note_on_c, 0, 85, 69
1, 246307, Note_off_c, 0, 85, 70
1, 246334, Note_on_c, 0, 65, 78
1, 246347, Note_on_c, 0, 66, 66
1, 246358, Note_off_c, 0, 65, 71
1, 246364, Note_off_c, 0, 66, 68
1, 246373, Note_on_c, 0, 85, 72
1, 246397, Note_off_c, 0, 85, 68
1, 246407, Note_on_c, 0, 97, 76
1, 246470, Note_on_c, 0, 65, 90
1, 246474, Note_on_c, 0, 64, 85
1, 246475, Note_on_c, 0, 90, 74
1, 246477, Note_on_c, 0, 94, 72
1, 246490, Note_off_c, 0, 65, 72
1, 246492, Note_off_c, 0, 64, 73
1, 246503, Note_off_c, 0, 97, 64
1, 246522, Note_off_c, 0, 94, 58
1, 246524, Note_on_c, 0, 85, 69
1, 246532, Note_off_c, 0, 90, 63
1, 246546, Note_off_c, 0, 85, 70
1, 246616, Note_on_c, 0, 64, 72
1, 246617, Note_on_c, 0, 63, 77
1, 246628, Note_on_c, 0, 85, 75
1, 246641, Note_off_c, 0, 63, 68
1, 246642, Note_off_c, 0, 64, 68
1, 246660, Note_off_c, 0, 85, 54
1, 246677, Note_on_c, 0, 73, 78
1, 246703, Note_off_c, 0, 73, 62
1, 246761, Note_on_c, 0, 72, 78
1, 246793, Note_off_c, 0, 72, 67
1, 246833, Note_on_c, 0, 85, 64
1, 246850, Note_off_c, 0, 85, 65
1, 246889, Note_on_c, 0, 62, 66
1, 246891, Note_on_c, 0, 63, 63
1, 246906, Note_on_c, 0, 85, 75
1, 246914, Note_off_c, 0, 63, 66
1, 246916, Note_off_c, 0, 62, 64
1, 246937, Note_off_c, 0, 85, 64
1, 246962, Note_on_c, 0, 97, 82
1, 247023, Note_on_c, 0, 94, 68
1, 247027, Note_on_c, 0, 90, 59
1, 247028, Note_on_c, 0, 62, 66
1, 247031, Note_on_c, 0, 61, 72
1, 247054, Note_off_c, 0, 97, 63
1, 247056, Note_off_c, 0, 62, 64
1, 247059, Note_off_c, 0, 61, 65
1, 247077, Note_on_c, 0, 85, 76
1, 247084, Note_off_c, 0, 94, 64
1, 247089, Note_off_c, 0, 90, 63
1, 247099, Note_off_c, 0, 85, 70
1, 247157, Note_on_c, 0, 61, 76
1, 247160, Note_on_c, 0, 60, 68
1, 247169, Note_on_c, 0, 85, 78
1, 247179, Note_off_c, 0, 61, 67
1, 247186, Note_off_c, 0, 60, 67
1, 247205, Note_off_c, 0, 85, 55
1, 247229, Note_on_c, 0, 73, 70
1, 247254, Note_off_c, 0, 73, 68
1, 247312, Note_on_c, 0, 72, 71
1, 247342, Note_off_c, 0, 72, 70
1, 247366, Note_on_c, 0, 85, 64
1, 247394, Note_off_c, 0, 85, 68
1, 247436, Note_on_c, 0, 61, 85
1, 247441, Note_on_c, 0, 60, 70
1, 247456, Note_on_c, 0, 85, 68
1, 247456, Note_off_c, 0, 61, 71
1, 247458, Note_off_c, 0, 60, 65
1, 247493, Note_off_c, 0, 85, 65
1, 247517, Note_on_c, 0, 97, 70
1, 247557, Note_on_c, 0, 99, 76
1, 247577, Note_on_c, 0, 92, 67
1, 247615, Note_off_c, 0, 99, 68
1, 247628, Note_off_c, 0, 97, 38
1, 247636, Note_on_c, 0, 85, 73
1, 247640, Note_off_c, 0, 92, 64
1, 247658, Note_off_c, 0, 85, 69
1, 247696, Note_on_c, 0, 65, 91
1, 247697, Note_on_c, 0, 64, 85
1, 247715, Note_off_c, 0, 65, 75
1, 247717, Note_off_c, 0, 64, 70
1, 247725, Note_on_c, 0, 85, 67
1, 247769, Note_off_c, 0, 85, 55
1, 247780, Note_on_c, 0, 73, 71
1, 247810, Note_off_c, 0, 73, 63
1, 247855, Note_on_c, 0, 72, 77
1, 247881, Note_off_c, 0, 72, 63
1, 247921, Note_on_c, 0, 85, 65
1, 247944, Note_off_c, 0, 85, 68
1, 247962, Note_on_c, 0, 69, 88
1, 247964, Note_on_c, 0, 70, 92
1, 247980, Note_off_c, 0, 69, 76
1, 247992, Note_off_c, 0, 70, 68
1, 248000, Note_on_c, 0, 85, 75
1, 248032, Note_off_c, 0, 85, 64
1, 248067, Note_on_c, 0, 97, 73
1, 248105, Note_on_c, 0, 99, 77
1, 248119, Note_on_c, 0, 92, 66
1, 248159, Note_off_c, 0, 99, 67
1, 248171, Note_off_c, 0, 97, 51
1, 248180, Note_on_c, 0, 85, 73
1, 248186, Note_off_c, 0, 92, 63
1, 248203, Note_off_c, 0, 85, 69
1, 248248, Note_on_c, 0, 67, 82
1, 248251, Note_on_c, 0, 68, 82
1, 248268, Note_off_c, 0, 67, 70
1, 248270, Note_off_c, 0, 68, 72
1, 248275, Note_on_c, 0, 85, 74
1, 248314, Note_off_c, 0, 85, 46
1, 248323, Note_on_c, 0, 73, 69
1, 248355, Note_off_c, 0, 73, 62
1, 248400, Note_on_c, 0, 72, 77
1, 248436, Note_off_c, 0, 72, 65
1, 248471, Note_on_c, 0, 85, 62
1, 248487, Note_off_c, 0, 85, 68
1, 248528, Note_on_c, 0, 65, 77
1, 248537, Note_on_c, 0, 66, 72
1, 248549, Note_on_c, 0, 85, 71
1, 248555, Note_off_c, 0, 65, 69
1, 248559, Note_off_c, 0, 66, 69
1, 248571, Note_off_c, 0, 85, 70
1, 248597, Note_on_c, 0, 97, 74
1, 248620, Note_off_c, 0, 97, 69
1, 248670, Note_on_c, 0, 65, 95
1, 248677, Note_on_c, 0, 94, 83
1, 248678, Note_on_c, 0, 102, 92
1, 248680, Note_on_c, 0, 64, 81
1, 248695, Note_off_c, 0, 65, 67
1, 248704, Note_off_c, 0, 64, 70
1, 248719, Note_off_c, 0, 102, 66
1, 248731, Note_off_c, 0, 94, 60
1, 248761, Note_on_c, 0, 85, 78
1, 248784, Note_off_c, 0, 85, 67
1, 248860, Note_on_c, 0, 64, 55
1, 248862, Note_on_c, 0, 63, 61
1, 248862, Note_on_c, 0, 85, 64
1, 248881, Note_off_c, 0, 63, 65
1, 248881, Note_off_c, 0, 64, 60
1, 248897, Note_off_c, 0, 85, 63
1, 248918, Note_on_c, 0, 73, 65
1, 248934, Note_off_c, 0, 73, 65
1, 248988, Note_on_c, 0, 72, 66
1, 249035, Note_off_c, 0, 72, 65
1, 249062, Note_on_c, 0, 85, 69
1, 249083, Note_off_c, 0, 85, 69
1, 249113, Note_on_c, 0, 62, 47
1, 249133, Note_on_c, 0, 85, 78
1, 249134, Note_on_c, 0, 63, 55
1, 249157, Note_off_c, 0, 62, 64
1, 249157, Note_off_c, 0, 63, 64
1, 249162, Note_off_c, 0, 85, 64
1, 249178, Note_on_c, 0, 97, 77
1, 249202, Note_off_c, 0, 97, 66
1, 249256, Control_c, 0, 64, 11
1, 249262, Note_on_c, 0, 62, 77
1, 249266, Note_on_c, 0, 102, 91
1, 249271, Control_c, 0, 64, 0
1, 249274, Note_on_c, 0, 61, 70
1, 249288, Note_off_c, 0, 62, 67
1, 249295, Note_on_c, 0, 94, 58
1, 249299, Note_off_c, 0, 61, 66
1, 249306, Note_off_c, 0, 102, 67
1, 249314, Note_off_c, 0, 94, 60
1, 249315, Control_c, 0, 64, 14
1, 249330, Control_c, 0, 64, 20
1, 249345, Control_c, 0, 64, 16
1, 249351, Note_on_c, 0, 85, 73
1, 249360, Control_c, 0, 64, 14
1, 249380, Note_off_c, 0, 85, 61
1, 249390, Control_c, 0, 64, 18
1, 249405, Control_c, 0, 64, 20
1, 249411, Note_on_c, 0, 85, 70
1, 249420, Control_c, 0, 64, 23
1, 249432, Note_off_c, 0, 85, 67
1, 249435, Control_c, 0, 64, 26
1, 249449, Control_c, 0, 64, 25
1, 249464, Control_c, 0, 64, 23
1, 249479, Control_c, 0, 64, 20
1, 249493, Control_c, 0, 64, 22
1, 249508, Control_c, 0, 64, 26
1, 249523, Control_c, 0, 64, 22
1, 249538, Control_c, 0, 64, 14
1, 249545, Note_on_c, 0, 61, 84
1, 249546, Note_on_c, 0, 84, 84
1, 249553, Control_c, 0, 64, 0
1, 249586, Note_off_c, 0, 61, 62
1, 249598, Note_off_c, 0, 84, 60
1, 249616, Note_on_c, 0, 85, 78
1, 249637, Note_off_c, 0, 85, 71
1, 249680, Note_on_c, 0, 68, 65
1, 249682, Note_on_c, 0, 71, 66
1, 249691, Note_on_c, 0, 85, 74
1, 249708, Control_c, 0, 64, 14
1, 249709, Note_off_c, 0, 68, 67
1, 249709, Note_off_c, 0, 71, 65
1, 249710, Note_off_c, 0, 85, 71
1, 249723, Control_c, 0, 64, 23
1, 249731, Note_on_c, 0, 97, 67
1, 249738, Control_c, 0, 64, 25
1, 249753, Control_c, 0, 64, 18
1, 249756, Note_off_c, 0, 97, 69
1, 249768, Control_c, 0, 64, 16
1, 249783, Control_c, 0, 64, 14
1, 249797, Note_on_c, 0, 65, 75
1, 249798, Control_c, 0, 64, 0
1, 249801, Note_on_c, 0, 88, 77
1, 249822, Note_off_c, 0, 65, 69
1, 249840, Note_off_c, 0, 88, 62
1, 249850, Note_on_c, 0, 89, 68
1, 249879, Note_off_c, 0, 89, 64
1, 249908, Note_on_c, 0, 68, 70
1, 249918, Note_on_c, 0, 71, 59
1, 249923, Note_on_c, 0, 89, 49
1, 249933, Note_off_c, 0, 68, 69
1, 249938, Note_off_c, 0, 71, 63
1, 249953, Note_off_c, 0, 89, 66
1, 249961, Note_on_c, 0, 101, 84
1, 249983, Note_off_c, 0, 101, 67
1, 250034, Note_on_c, 0, 70, 89
1, 250035, Note_on_c, 0, 93, 88
1, 250062, Note_off_c, 0, 70, 57
1, 250080, Note_off_c, 0, 93, 63
1, 250095, Note_on_c, 0, 94, 76
1, 250117, Note_off_c, 0, 94, 71
1, 250143, Note_on_c, 0, 79, 76
1, 250152, Note_on_c, 0, 76, 67
1, 250174, Note_off_c, 0, 76, 69
1, 250174, Note_on_c, 0, 96, 54
1, 250174, Note_off_c, 0, 79, 62
1, 250177, Note_on_c, 0, 106, 84
1, 250180, Note_on_c, 0, 95, 47
1, 250195, Note_off_c, 0, 96, 54
1, 250198, Note_off_c, 0, 106, 67
1, 250203, Note_off_c, 0, 95, 51
1, 250284, Note_on_c, 0, 91, 88
1, 250293, Note_on_c, 0, 80, 88
1, 250297, Note_on_c, 0, 71, 70
1, 250301, Note_on_c, 0, 77, 70
1, 250313, Note_on_c, 0, 73, 60
1, 250337, Note_off_c, 0, 91, 62
1, 250351, Note_on_c, 0, 92, 74
1, 250353, Control_c, 0, 64, 64
1, 250368, Control_c, 0, 64, 70
1, 250373, Note_off_c, 0, 92, 70
1, 250383, Control_c, 0, 64, 76
1, 250397, Control_c, 0, 64, 80
1, 250411, Note_on_c, 0, 92, 82
1, 250412, Control_c, 0, 64, 83
1, 250419, Note_off_c, 0, 71, 58
1, 250427, Note_off_c, 0, 80, 62
1, 250427, Control_c, 0, 64, 84
1, 250433, Note_off_c, 0, 77, 53
1, 250442, Control_c, 0, 64, 86
1, 250445, Note_off_c, 0, 73, 62
1, 250457, Control_c, 0, 64, 88
1, 250465, Note_off_c, 0, 92, 65
1, 250472, Control_c, 0, 64, 90
1, 250487, Note_on_c, 0, 104, 78
1, 250487, Control_c, 0, 64, 90
1, 250523, Note_on_c, 0, 99, 75
1, 250523, Note_on_c, 0, 102, 75
1, 250531, Control_c, 0, 64, 89
1, 250538, Note_on_c, 0, 70, 91
1, 250546, Control_c, 0, 64, 83
1, 250561, Control_c, 0, 64, 73
1, 250567, Note_off_c, 0, 104, 63
1, 250570, Note_off_c, 0, 70, 60
1, 250572, Note_off_c, 0, 99, 57
1, 250576, Control_c, 0, 64, 48
1, 250578, Note_off_c, 0, 102, 60
1, 250591, Control_c, 0, 64, 0
1, 250594, Note_on_c, 0, 98, 85
1, 250634, Note_off_c, 0, 98, 66
1, 250667, Note_on_c, 0, 100, 84
1, 250669, Note_on_c, 0, 78, 58
1, 250682, Note_on_c, 0, 73, 44
1, 250690, Note_off_c, 0, 78, 64
1, 250696, Note_on_c, 0, 96, 50
1, 250708, Note_off_c, 0, 73, 36
1, 250725, Note_off_c, 0, 100, 63
1, 250731, Note_off_c, 0, 96, 0
1, 250731, Note_on_c, 0, 96, 23
1, 250758, Note_off_c, 0, 96, 62
1, 250792, Note_on_c, 0, 94, 78
1, 250795, Note_on_c, 0, 98, 64
1, 250812, Note_on_c, 0, 71, 40
1, 250823, Note_off_c, 0, 98, 67
1, 250838, Note_off_c, 0, 71, 47
1, 250838, Note_off_c, 0, 94, 65
1, 250859, Note_on_c, 0, 93, 75
1, 250899, Note_on_c, 0, 80, 65
1, 250901, Note_off_c, 0, 93, 55
1, 250905, Note_on_c, 0, 78, 61
1, 250919, Note_on_c, 0, 92, 68
1, 250922, Note_on_c, 0, 96, 45
1, 250925, Note_off_c, 0, 80, 69
1, 250927, Note_off_c, 0, 78, 61
1, 250943, Note_off_c, 0, 96, 52
1, 250947, Note_off_c, 0, 92, 67
1, 250970, Note_on_c, 0, 91, 71
1, 251000, Note_off_c, 0, 91, 60
1, 251020, Note_on_c, 0, 72, 66
1, 251029, Note_on_c, 0, 90, 73
1, 251046, Note_on_c, 0, 94, 50
1, 251049, Note_off_c, 0, 72, 66
1, 251074, Note_off_c, 0, 94, 59
1, 251091, Note_off_c, 0, 90, 63
1, 251098, Note_on_c, 0, 89, 70
1, 251123, Note_off_c, 0, 89, 70
1, 251154, Note_on_c, 0, 78, 62
1, 251157, Note_on_c, 0, 88, 65
1, 251162, Note_on_c, 0, 81, 60
1, 251181, Note_off_c, 0, 81, 63
1, 251195, Note_off_c, 0, 78, 58
1, 251220, Note_on_c, 0, 87, 66
1, 251250, Note_off_c, 0, 88, 61
1, 251271, Note_on_c, 0, 85, 74
1, 251277, Note_on_c, 0, 82, 74
1, 251280, Note_on_c, 0, 73, 71
1, 251291, Note_on_c, 0, 78, 61
1, 251300, Note_off_c, 0, 82, 68
1, 251302, Note_off_c, 0, 87, 64
1, 251309, Note_off_c, 0, 78, 61
1, 251311, Note_off_c, 0, 73, 65
1, 251324, Note_off_c, 0, 85, 64
1, 251336, Note_on_c, 0, 84, 66
1, 251381, Note_off_c, 0, 84, 45
1, 251397, Note_on_c, 0, 83, 73
1, 251456, Note_off_c, 0, 83, 57
1, 251459, Note_on_c, 0, 82, 66
1, 251509, Note_off_c, 0, 82, 64
1, 251519, Note_on_c, 0, 61, 94
1, 251523, Note_on_c, 0, 84, 75
1, 251560, Note_off_c, 0, 61, 61
1, 251567, Note_off_c, 0, 84, 63
1, 251587, Note_on_c, 0, 85, 73
1, 251608, Note_off_c, 0, 85, 71
1, 251662, Note_on_c, 0, 85, 74
1, 251665, Note_on_c, 0, 68, 65
1, 251672, Note_on_c, 0, 71, 44
1, 251683, Note_off_c, 0, 85, 72
1, 251694, Note_off_c, 0, 68, 67
1, 251697, Note_off_c, 0, 71, 49
1, 251706, Note_on_c, 0, 97, 67
1, 251733, Note_off_c, 0, 97, 68
1, 251770, Note_on_c, 0, 65, 82
1, 251775, Note_on_c, 0, 88, 74
1, 251807, Note_off_c, 0, 65, 67
1, 251816, Note_off_c, 0, 88, 62
1, 251833, Note_on_c, 0, 89, 68
1, 251858, Note_off_c, 0, 89, 68
1, 251894, Note_on_c, 0, 68, 77
1, 251897, Note_on_c, 0, 89, 68
1, 251902, Note_on_c, 0, 71, 65
1, 251917, Note_off_c, 0, 68, 70
1, 251928, Note_off_c, 0, 89, 63
1, 251930, Note_off_c, 0, 71, 66
1, 251947, Note_on_c, 0, 101, 81
1, 251988, Note_off_c, 0, 101, 62
1, 252013, Note_on_c, 0, 70, 91
1, 252014, Control_c, 0, 64, 14
1, 252018, Note_on_c, 0, 93, 88
1, 252043, Control_c, 0, 64, 0
1, 252048, Note_off_c, 0, 70, 63
1, 252064, Note_off_c, 0, 93, 63
1, 252067, Note_on_c, 0, 94, 82
1, 252088, Control_c, 0, 64, 11
1, 252090, Note_off_c, 0, 94, 68
1, 252102, Control_c, 0, 64, 0
1, 252130, Note_on_c, 0, 94, 80
1, 252131, Note_on_c, 0, 76, 77
1, 252131, Note_on_c, 0, 79, 79
1, 252132, Control_c, 0, 64, 11
1, 252148, Control_c, 0, 64, 20
1, 252163, Control_c, 0, 64, 26
1, 252164, Note_on_c, 0, 106, 83
1, 252164, Note_off_c, 0, 79, 62
1, 252167, Note_off_c, 0, 76, 62
1, 252174, Note_off_c, 0, 94, 66
1, 252178, Control_c, 0, 64, 28
1, 252186, Note_off_c, 0, 106, 67
1, 252192, Control_c, 0, 64, 0
1, 252272, Note_on_c, 0, 80, 91
1, 252274, Note_on_c, 0, 77, 85
1, 252275, Note_on_c, 0, 91, 78
1, 252281, Note_on_c, 0, 71, 68
1, 252285, Note_on_c, 0, 73, 74
1, 252311, Note_off_c, 0, 91, 61
1, 252326, Control_c, 0, 64, 64
1, 252330, Note_on_c, 0, 92, 77
1, 252341, Control_c, 0, 64, 71
1, 252356, Control_c, 0, 64, 77
1, 252369, Note_off_c, 0, 92, 63
1, 252371, Control_c, 0, 64, 80
1, 252386, Control_c, 0, 64, 83
1, 252393, Note_on_c, 0, 92, 76
1, 252400, Control_c, 0, 64, 85
1, 252409, Note_off_c, 0, 71, 59
1, 252415, Control_c, 0, 64, 88
1, 252415, Note_off_c, 0, 77, 60
1, 252415, Note_off_c, 0, 80, 62
1, 252430, Control_c, 0, 64, 90
1, 252439, Note_off_c, 0, 73, 61
1, 252445, Control_c, 0, 64, 92
1, 252451, Note_off_c, 0, 92, 63
1, 252471, Note_on_c, 0, 104, 77
1, 252517, Note_on_c, 0, 102, 61
1, 252518, Control_c, 0, 64, 90
1, 252520, Note_on_c, 0, 99, 60
1, 252533, Control_c, 0, 64, 83
1, 252538, Note_on_c, 0, 70, 85
1, 252548, Control_c, 0, 64, 70
1, 252563, Control_c, 0, 64, 0
1, 252573, Note_off_c, 0, 99, 62
1, 252575, Note_off_c, 0, 102, 61
1, 252575, Note_off_c, 0, 104, 65
1, 252579, Note_off_c, 0, 70, 60
1, 252594, Note_on_c, 0, 98, 80
1, 252634, Note_off_c, 0, 98, 67
1, 252666, Note_on_c, 0, 97, 78
1, 252670, Note_on_c, 0, 100, 71
1, 252672, Note_on_c, 0, 78, 67
1, 252681, Note_on_c, 0, 73, 57
1, 252697, Note_off_c, 0, 100, 66
1, 252699, Note_off_c, 0, 78, 65
1, 252713, Note_off_c, 0, 97, 65
1, 252719, Note_off_c, 0, 73, 62
1, 252721, Note_on_c, 0, 96, 70
1, 252744, Note_off_c, 0, 96, 65
1, 252787, Note_on_c, 0, 94, 79
1, 252791, Note_on_c, 0, 98, 63
1, 252797, Note_on_c, 0, 71, 58
1, 252818, Note_off_c, 0, 98, 66
1, 252830, Note_off_c, 0, 71, 64
1, 252837, Note_off_c, 0, 94, 65
1, 252856, Note_on_c, 0, 93, 67
1, 252898, Note_off_c, 0, 93, 51
1, 252910, Note_on_c, 0, 96, 63
1, 252917, Note_on_c, 0, 92, 71
1, 252919, Note_on_c, 0, 78, 61
1, 252919, Note_on_c, 0, 80, 58
1, 252938, Note_off_c, 0, 80, 64
1, 252938, Note_off_c, 0, 96, 65
1, 252944, Note_off_c, 0, 78, 64
1, 252957, Note_off_c, 0, 92, 62
1, 252983, Note_on_c, 0, 91, 70
1, 253018, Note_off_c, 0, 91, 52
1, 253044, Note_on_c, 0, 90, 64
1, 253063, Note_on_c, 0, 72, 48
1, 253071, Note_on_c, 0, 94, 34
1, 253085, Note_off_c, 0, 72, 60
1, 253091, Note_off_c, 0, 94, 48
1, 253100, Note_off_c, 0, 90, 60
1, 253109, Note_on_c, 0, 89, 68
1, 253143, Note_off_c, 0, 89, 64
1, 253182, Note_on_c, 0, 78, 54
1, 253187, Note_on_c, 0, 88, 73
1, 253208, Note_on_c, 0, 81, 17
1, 253220, Note_off_c, 0, 78, 53
1, 253242, Note_off_c, 0, 81, 31
1, 253267, Note_on_c, 0, 87, 60
1, 253278, Note_off_c, 0, 88, 58
1, 253360, Note_on_c, 0, 85, 65
1, 253368, Note_on_c, 0, 73, 55
1, 253378, Note_on_c, 0, 82, 49
1, 253393, Note_on_c, 0, 78, 28
1, 253394, Note_off_c, 0, 87, 62
1, 253402, Note_off_c, 0, 85, 64
1, 253408, Control_c, 0, 64, 59
1, 253423, Control_c, 0, 64, 69
1, 253438, Control_c, 0, 64, 75
1, 253440, Note_off_c, 0, 78, 45
1, 253453, Control_c, 0, 64, 81
1, 253455, Note_off_c, 0, 82, 38
1, 253460, Note_off_c, 0, 73, 61
1, 253468, Control_c, 0, 64, 84
1, 253482, Control_c, 0, 64, 85
1, 253497, Control_c, 0, 64, 86
1, 253512, Control_c, 0, 64, 87
1, 253527, Control_c, 0, 64, 88
1, 253542, Control_c, 0, 64, 90
1, 253556, Control_c, 0, 64, 91
1, 253571, Control_c, 0, 64, 93
1, 253586, Control_c, 0, 64, 96
1, 253601, Control_c, 0, 64, 98
1, 253608, Note_on_c, 0, 83, 53
1, 253616, Control_c, 0, 64, 99
1, 253627, Note_on_c, 0, 87, 64
1, 253655, Note_on_c, 0, 90, 69
1, 253660, Control_c, 0, 64, 97
1, 253661, Note_on_c, 0, 92, 76
1, 253674, Note_off_c, 0, 83, 60
1, 253674, Control_c, 0, 64, 90
1, 253683, Note_on_c, 0, 99, 100
1, 253688, Note_off_c, 0, 92, 67
1, 253689, Control_c, 0, 64, 79
1, 253690, Note_off_c, 0, 87, 64
1, 253692, Note_off_c, 0, 90, 62
1, 253700, Note_off_c, 0, 99, 76
1, 253704, Control_c, 0, 64, 65
1, 253719, Control_c, 0, 64, 0
1, 253992, Note_on_c, 0, 80, 67
1, 254001, Note_on_c, 0, 70, 59
1, 254024, Note_off_c, 0, 70, 63
1, 254162, Note_on_c, 0, 77, 52
1, 254182, Note_on_c, 0, 73, 23
1, 254187, Note_off_c, 0, 77, 58
1, 254210, Note_off_c, 0, 73, 44
1, 254338, Note_on_c, 0, 68, 55
1, 254368, Note_off_c, 0, 68, 56
1, 254501, Note_off_c, 0, 80, 49
1, 254515, Note_on_c, 0, 82, 66
1, 254530, Note_on_c, 0, 77, 42
1, 254535, Note_on_c, 0, 73, 43
1, 254541, Note_off_c, 0, 82, 66
1, 254555, Note_off_c, 0, 77, 50
1, 254560, Note_off_c, 0, 73, 57
1, 254742, Note_on_c, 0, 61, 58
1, 254742, Note_on_c, 0, 83, 68
1, 254767, Note_off_c, 0, 83, 67
1, 254770, Note_off_c, 0, 61, 62
1, 254973, Note_on_c, 0, 73, 59
1, 254979, Note_on_c, 0, 80, 63
1, 254996, Note_on_c, 0, 77, 30
1, 254997, Note_off_c, 0, 73, 61
1, 255008, Note_off_c, 0, 80, 66
1, 255018, Note_off_c, 0, 77, 35
1, 255155, Note_on_c, 0, 82, 69
1, 255173, Note_on_c, 0, 85, 68
1, 255184, Note_on_c, 0, 90, 69
1, 255194, Note_on_c, 0, 92, 72
1, 255217, Note_off_c, 0, 82, 62
1, 255218, Note_off_c, 0, 85, 65
1, 255222, Note_on_c, 0, 97, 112
1, 255237, Note_off_c, 0, 97, 71
1, 255238, Note_off_c, 0, 90, 63
1, 255250, Note_off_c, 0, 92, 66
1, 255520, Note_on_c, 0, 78, 70
1, 255523, Note_on_c, 0, 68, 65
1, 255554, Note_off_c, 0, 68, 65
1, 255654, Note_on_c, 0, 73, 64
1, 255669, Note_on_c, 0, 70, 47
1, 255685, Note_off_c, 0, 73, 64
1, 255694, Note_off_c, 0, 70, 58
1, 255787, Note_on_c, 0, 66, 72
1, 255819, Note_off_c, 0, 66, 64
1, 255906, Note_on_c, 0, 80, 72
1, 255907, Note_off_c, 0, 78, 60
1, 255918, Note_on_c, 0, 70, 57
1, 255918, Note_on_c, 0, 73, 55
1, 255928, Note_off_c, 0, 80, 70
1, 255937, Note_off_c, 0, 73, 64
1, 255939, Note_off_c, 0, 70, 63
1, 256034, Note_on_c, 0, 61, 66
1, 256034, Note_on_c, 0, 82, 75
1, 256055, Note_off_c, 0, 82, 70
1, 256062, Note_off_c, 0, 61, 65
1, 256158, Note_on_c, 0, 70, 58
1, 256160, Note_on_c, 0, 78, 68
1, 256165, Note_on_c, 0, 73, 47
1, 256176, Note_off_c, 0, 70, 65
1, 256178, Note_off_c, 0, 78, 67
1, 256191, Note_off_c, 0, 73, 47
1, 256288, Note_on_c, 0, 77, 78
1, 256292, Note_on_c, 0, 59, 66
1, 256323, Note_off_c, 0, 77, 61
1, 256429, Note_on_c, 0, 61, 64
1, 256429, Note_on_c, 0, 78, 74
1, 256452, Note_off_c, 0, 78, 69
1, 256467, Note_on_c, 0, 65, 9
1, 256521, Note_off_c, 0, 65, 33
1, 256535, Note_on_c, 0, 58, 66
1, 256538, Note_on_c, 0, 80, 76
1, 256540, Note_off_c, 0, 59, 58
1, 256540, Note_off_c, 0, 61, 53
1, 256568, Note_off_c, 0, 80, 61
1, 256650, Note_on_c, 0, 82, 74
1, 256662, Note_on_c, 0, 61, 62
1, 256670, Note_on_c, 0, 65, 51
1, 256670, Note_off_c, 0, 82, 69
1, 256711, Note_off_c, 0, 65, 62
1, 256720, Note_off_c, 0, 61, 52
1, 256739, Note_off_c, 0, 58, 56
1, 256768, Note_on_c, 0, 83, 77
1, 256771, Note_on_c, 0, 56, 58
1, 256803, Note_off_c, 0, 83, 62
1, 256849, Note_off_c, 0, 56, 59
1, 256879, Note_on_c, 0, 61, 61
1, 256884, Note_on_c, 0, 85, 75
1, 256904, Note_off_c, 0, 85, 70
1, 256907, Note_on_c, 0, 65, 15
1, 256908, Note_off_c, 0, 65, 127
1, 256911, Note_off_c, 0, 61, 63
1, 256994, Note_on_c, 0, 87, 75
1, 256997, Note_on_c, 0, 49, 69
1, 257021, Note_off_c, 0, 87, 63
1, 257024, Note_off_c, 0, 49, 64
1, 257118, Note_on_c, 0, 89, 71
1, 257135, Note_on_c, 0, 61, 59
1, 257140, Note_on_c, 0, 65, 47
1, 257146, Note_off_c, 0, 89, 64
1, 257165, Note_off_c, 0, 65, 58
1, 257168, Note_off_c, 0, 61, 64
1, 257189, Note_on_c, 0, 90, 65
1, 257212, Note_off_c, 0, 90, 64
1, 257223, Note_on_c, 0, 92, 73
1, 257250, Note_on_c, 0, 90, 80
1, 257259, Note_on_c, 0, 58, 60
1, 257283, Note_off_c, 0, 92, 64
1, 257367, Note_off_c, 0, 90, 57
1, 257396, Note_on_c, 0, 89, 59
1, 257410, Note_on_c, 0, 61, 45
1, 257414, Note_on_c, 0, 66, 35
1, 257440, Note_off_c, 0, 89, 60
1, 257465, Note_off_c, 0, 66, 46
1, 257480, Note_off_c, 0, 61, 53
1, 257525, Note_on_c, 0, 56, 52
1, 257528, Note_on_c, 0, 90, 71
1, 257546, Note_off_c, 0, 58, 41
1, 257554, Note_off_c, 0, 90, 65
1, 257629, Note_off_c, 0, 56, 56
1, 257657, Note_on_c, 0, 92, 73
1, 257663, Note_on_c, 0, 61, 45
1, 257677, Note_on_c, 0, 66, 34
1, 257683, Note_off_c, 0, 92, 64
1, 257739, Note_off_c, 0, 61, 47
1, 257745, Note_off_c, 0, 66, 44
1, 257804, Note_on_c, 0, 94, 73
1, 257820, Note_on_c, 0, 54, 50
1, 257838, Note_off_c, 0, 94, 66
1, 257867, Note_off_c, 0, 54, 56
1, 257977, Note_on_c, 0, 92, 76
1, 257984, Note_on_c, 0, 61, 49
1, 257993, Note_on_c, 0, 66, 33
1, 258001, Note_off_c, 0, 92, 65
1, 258017, Note_off_c, 0, 61, 64
1, 258021, Note_off_c, 0, 66, 48
1, 258165, Note_on_c, 0, 94, 67
1, 258166, Note_on_c, 0, 49, 39
1, 258195, Note_off_c, 0, 94, 68
1, 258199, Note_off_c, 0, 49, 43
1, 258361, Note_on_c, 0, 66, 45
1, 258377, Note_on_c, 0, 90, 62
1, 258377, Note_on_c, 0, 61, 22
1, 258389, Note_off_c, 0, 66, 57
1, 258398, Note_off_c, 0, 90, 65
1, 258410, Note_off_c, 0, 61, 43
1, 258524, Control_c, 0, 64, 31
1, 258534, Note_on_c, 0, 56, 38
1, 258540, Control_c, 0, 64, 57
1, 258562, Control_c, 0, 64, 64
1, 258577, Control_c, 0, 64, 67
1, 258589, Note_on_c, 0, 59, 28
1, 258592, Control_c, 0, 64, 70
1, 258607, Control_c, 0, 64, 74
1, 258622, Control_c, 0, 64, 79
1, 258637, Control_c, 0, 64, 83
1, 258645, Note_on_c, 0, 63, 42
1, 258651, Control_c, 0, 64, 85
1, 258666, Control_c, 0, 64, 87
1, 258681, Control_c, 0, 64, 89
1, 258687, Note_on_c, 0, 66, 46
1, 258695, Control_c, 0, 64, 91
1, 258710, Control_c, 0, 64, 93
1, 258717, Note_on_c, 0, 83, 46
1, 258725, Control_c, 0, 64, 95
1, 258740, Control_c, 0, 64, 97
1, 258755, Control_c, 0, 64, 99
1, 258757, Note_on_c, 0, 87, 47
1, 258769, Control_c, 0, 64, 101
1, 258784, Control_c, 0, 64, 103
1, 258799, Control_c, 0, 64, 104
1, 258814, Control_c, 0, 64, 106
1, 258829, Control_c, 0, 64, 108
1, 258833, Note_off_c, 0, 83, 35
1, 258836, Note_on_c, 0, 90, 44
1, 258843, Control_c, 0, 64, 109
1, 258858, Control_c, 0, 64, 110
1, 258869, Note_off_c, 0, 59, 37
1, 258871, Note_on_c, 0, 92, 56
1, 258871, Note_off_c, 0, 56, 35
1, 258873, Control_c, 0, 64, 111
1, 258874, Note_off_c, 0, 87, 58
1, 258887, Control_c, 0, 64, 111
1, 258899, Note_off_c, 0, 90, 60
1, 258902, Control_c, 0, 64, 112
1, 258917, Control_c, 0, 64, 112
1, 258925, Note_off_c, 0, 92, 60
1, 258932, Control_c, 0, 64, 113
1, 258942, Note_off_c, 0, 66, 37
1, 258961, Control_c, 0, 64, 113
1, 258970, Note_off_c, 0, 63, 33
1, 259084, Note_on_c, 0, 99, 65
1, 259146, Note_off_c, 0, 99, 54
1, 259287, Control_c, 0, 64, 113
1, 259302, Control_c, 0, 64, 112
1, 259325, Control_c, 0, 64, 109
1, 259340, Control_c, 0, 64, 105
1, 259355, Control_c, 0, 64, 101
1, 259370, Control_c, 0, 64, 96
1, 259385, Control_c, 0, 64, 88
1, 259400, Control_c, 0, 64, 81
1, 259415, Control_c, 0, 64, 73
1, 259429, Control_c, 0, 64, 62
1, 259444, Control_c, 0, 64, 0
1, 259524, Note_on_c, 0, 80, 58
1, 259532, Note_on_c, 0, 56, 46
1, 259534, Note_on_c, 0, 78, 52
1, 259566, Note_off_c, 0, 56, 59
1, 259591, Note_off_c, 0, 78, 0
1, 259591, Note_on_c, 0, 78, 22
1, 259664, Note_on_c, 0, 66, 53
1, 259665, Note_on_c, 0, 59, 54
1, 259684, Note_off_c, 0, 66, 61
1, 259686, Note_off_c, 0, 59, 61
1, 259770, Note_off_c, 0, 78, 40
1, 259792, Note_on_c, 0, 49, 55
1, 259818, Note_off_c, 0, 49, 36
1, 259828, Note_off_c, 0, 80, 52
1, 259913, Note_on_c, 0, 66, 64
1, 259927, Note_on_c, 0, 82, 72
1, 259929, Note_on_c, 0, 78, 71
1, 259935, Note_off_c, 0, 66, 68
1, 259940, Note_on_c, 0, 56, 44
1, 259946, Note_off_c, 0, 78, 67
1, 259951, Note_off_c, 0, 82, 69
1, 259966, Note_off_c, 0, 56, 53
1, 260100, Note_on_c, 0, 56, 53
1, 260113, Note_on_c, 0, 83, 76
1, 260119, Note_on_c, 0, 65, 57
1, 260119, Note_on_c, 0, 80, 70
1, 260125, Note_on_c, 0, 59, 25
1, 260136, Note_off_c, 0, 56, 65
1, 260138, Note_off_c, 0, 83, 65
1, 260141, Note_off_c, 0, 65, 62
1, 260144, Note_off_c, 0, 80, 69
1, 260163, Note_off_c, 0, 59, 41
1, 260300, Note_on_c, 0, 77, 66
1, 260302, Note_on_c, 0, 80, 73
1, 260326, Note_off_c, 0, 80, 70
1, 260326, Note_off_c, 0, 77, 67
1, 260487, Note_on_c, 0, 78, 63
1, 260497, Note_on_c, 0, 82, 67
1, 260519, Note_on_c, 0, 85, 72
1, 260531, Note_on_c, 0, 90, 78
1, 260532, Control_c, 0, 64, 62
1, 260542, Note_on_c, 0, 97, 119
1, 260546, Note_off_c, 0, 78, 63
1, 260547, Control_c, 0, 64, 72
1, 260562, Note_off_c, 0, 82, 63
1, 260562, Control_c, 0, 64, 79
1, 260567, Note_off_c, 0, 97, 66
1, 260573, Note_off_c, 0, 85, 65
1, 260577, Control_c, 0, 64, 86
1, 260587, Note_off_c, 0, 90, 66
1, 260592, Control_c, 0, 64, 88
1, 260607, Control_c, 0, 64, 90
1, 260622, Control_c, 0, 64, 91
1, 260637, Control_c, 0, 64, 92
1, 260785, Control_c, 0, 64, 89
1, 260800, Control_c, 0, 64, 82
1, 260822, Control_c, 0, 64, 71
1, 260823, Note_on_c, 0, 78, 83
1, 260825, Note_on_c, 0, 70, 74
1, 260828, Note_on_c, 0, 63, 82
1, 260836, Control_c, 0, 64, 0
1, 260861, Note_off_c, 0, 63, 59
1, 260902, Note_off_c, 0, 70, 56
1, 260949, Note_off_c, 0, 78, 54
1, 260965, Note_on_c, 0, 73, 70
1, 260977, Note_on_c, 0, 66, 53
1, 260993, Note_off_c, 0, 73, 66
1, 261007, Note_off_c, 0, 66, 67
1, 261087, Note_on_c, 0, 61, 82
1, 261126, Note_off_c, 0, 61, 58
1, 261147, Poly_aftertouch_c, 0, 77, 0
1, 261197, Note_on_c, 0, 80, 70
1, 261206, Note_on_c, 0, 71, 59
1, 261210, Note_on_c, 0, 66, 60
1, 261214, Note_on_c, 0, 73, 60
1, 261226, Note_off_c, 0, 71, 61
1, 261226, Note_off_c, 0, 80, 66
1, 261232, Note_off_c, 0, 73, 63
1, 261238, Note_off_c, 0, 66, 68
1, 261319, Note_on_c, 0, 73, 73
1, 261324, Note_on_c, 0, 58, 77
1, 261326, Note_on_c, 0, 82, 76
1, 261346, Note_off_c, 0, 73, 66
1, 261349, Note_off_c, 0, 58, 68
1, 261370, Note_off_c, 0, 82, 59
1, 261439, Note_on_c, 0, 78, 79
1, 261449, Note_on_c, 0, 70, 69
1, 261460, Note_on_c, 0, 61, 61
1, 261463, Note_on_c, 0, 66, 45
1, 261467, Note_off_c, 0, 78, 60
1, 261475, Note_off_c, 0, 70, 68
1, 261489, Note_off_c, 0, 61, 64
1, 261489, Note_off_c, 0, 66, 55
1, 261566, Note_on_c, 0, 77, 84
1, 261567, Note_on_c, 0, 49, 84
1, 261570, Note_on_c, 0, 68, 85
1, 261591, Note_off_c, 0, 49, 67
1, 261598, Note_off_c, 0, 68, 64
1, 261614, Note_off_c, 0, 77, 61
1, 261690, Note_on_c, 0, 78, 77
1, 261691, Note_on_c, 0, 70, 74
1, 261694, Note_on_c, 0, 65, 67
1, 261714, Note_on_c, 0, 59, 51
1, 261714, Note_off_c, 0, 70, 69
1, 261721, Note_off_c, 0, 78, 56
1, 261723, Note_off_c, 0, 65, 69
1, 261739, Note_off_c, 0, 59, 57
1, 261806, Note_on_c, 0, 53, 83
1, 261814, Note_on_c, 0, 71, 81
1, 261814, Note_on_c, 0, 80, 86
1, 261841, Note_off_c, 0, 71, 62
1, 261841, Note_off_c, 0, 53, 68
1, 261855, Note_off_c, 0, 80, 65
1, 261928, Note_on_c, 0, 65, 64
1, 261930, Note_on_c, 0, 73, 85
1, 261930, Note_on_c, 0, 82, 85
1, 261934, Note_on_c, 0, 59, 66
1, 261952, Note_off_c, 0, 73, 66
1, 261957, Note_off_c, 0, 65, 68
1, 261965, Note_off_c, 0, 82, 54
1, 261966, Note_off_c, 0, 59, 64
1, 262036, Note_on_c, 0, 58, 88
1, 262043, Note_on_c, 0, 83, 80
1, 262044, Note_on_c, 0, 75, 85
1, 262080, Note_off_c, 0, 75, 64
1, 262088, Note_off_c, 0, 83, 61
1, 262156, Note_on_c, 0, 59, 65
1, 262161, Note_on_c, 0, 77, 80
1, 262163, Note_on_c, 0, 85, 82
1, 262166, Note_on_c, 0, 65, 67
1, 262190, Note_off_c, 0, 77, 61
1, 262208, Note_off_c, 0, 85, 61
1, 262230, Note_off_c, 0, 65, 61
1, 262234, Note_off_c, 0, 58, 52
1, 262278, Note_on_c, 0, 87, 83
1, 262279, Note_on_c, 0, 78, 82
1, 262312, Note_off_c, 0, 78, 64
1, 262333, Note_off_c, 0, 87, 64
1, 262364, Note_off_c, 0, 59, 61
1, 262392, Note_on_c, 0, 56, 67
1, 262397, Note_on_c, 0, 68, 72
1, 262402, Note_on_c, 0, 89, 85
1, 262414, Note_on_c, 0, 80, 69
1, 262428, Note_off_c, 0, 68, 65
1, 262439, Note_off_c, 0, 80, 69
1, 262452, Note_off_c, 0, 56, 63
1, 262453, Note_off_c, 0, 89, 66
1, 262516, Note_on_c, 0, 66, 83
1, 262518, Note_on_c, 0, 92, 83
1, 262523, Note_on_c, 0, 82, 79
1, 262524, Note_on_c, 0, 54, 70
1, 262533, Note_on_c, 0, 90, 77
1, 262556, Note_off_c, 0, 82, 61
1, 262559, Note_off_c, 0, 66, 62
1, 262573, Note_off_c, 0, 54, 62
1, 262583, Note_off_c, 0, 92, 62
1, 262590, Note_off_c, 0, 90, 63
1, 262640, Note_on_c, 0, 89, 82
1, 262642, Note_on_c, 0, 80, 85
1, 262643, Note_on_c, 0, 65, 78
1, 262651, Note_on_c, 0, 53, 68
1, 262673, Note_off_c, 0, 80, 66
1, 262679, Note_off_c, 0, 65, 61
1, 262683, Note_off_c, 0, 53, 67
1, 262696, Note_off_c, 0, 89, 65
1, 262754, Note_on_c, 0, 90, 87
1, 262756, Note_on_c, 0, 82, 82
1, 262759, Note_on_c, 0, 64, 83
1, 262768, Note_on_c, 0, 52, 71
1, 262795, Note_off_c, 0, 82, 65
1, 262797, Note_off_c, 0, 52, 68
1, 262798, Note_off_c, 0, 64, 63
1, 262801, Note_off_c, 0, 90, 65
1, 262880, Note_on_c, 0, 63, 79
1, 262880, Note_on_c, 0, 92, 91
1, 262883, Note_on_c, 0, 83, 76
1, 262884, Note_on_c, 0, 51, 77
1, 262902, Note_off_c, 0, 63, 71
1, 262910, Note_off_c, 0, 83, 62
1, 262913, Note_off_c, 0, 51, 67
1, 262924, Note_off_c, 0, 92, 65
1, 263010, Note_on_c, 0, 62, 86
1, 263012, Note_on_c, 0, 85, 78
1, 263012, Note_on_c, 0, 94, 85
1, 263016, Note_on_c, 0, 50, 78
1, 263033, Note_off_c, 0, 85, 69
1, 263043, Note_off_c, 0, 62, 63
1, 263053, Note_off_c, 0, 50, 65
1, 263066, Note_off_c, 0, 94, 66
1, 263162, Note_on_c, 0, 61, 82
1, 263166, Note_on_c, 0, 92, 80
1, 263168, Note_on_c, 0, 83, 75
1, 263172, Control_c, 0, 64, 23
1, 263176, Note_on_c, 0, 49, 63
1, 263183, Note_off_c, 0, 61, 69
1, 263188, Note_off_c, 0, 83, 67
1, 263197, Note_off_c, 0, 49, 62
1, 263201, Control_c, 0, 64, 16
1, 263210, Note_off_c, 0, 92, 55
1, 263216, Control_c, 0, 64, 0
1, 263309, Note_on_c, 0, 58, 84
1, 263311, Note_on_c, 0, 94, 83
1, 263317, Note_on_c, 0, 46, 79
1, 263317, Note_on_c, 0, 85, 81
1, 263331, Note_off_c, 0, 58, 72
1, 263336, Note_off_c, 0, 85, 73
1, 263350, Note_off_c, 0, 46, 63
1, 263361, Note_off_c, 0, 94, 63
1, 263458, Note_on_c, 0, 82, 72
1, 263458, Note_on_c, 0, 90, 75
1, 263473, Note_off_c, 0, 82, 68
1, 263488, Note_off_c, 0, 90, 64
1, 263528, Control_c, 0, 64, 22
1, 263543, Control_c, 0, 64, 18
1, 263558, Control_c, 0, 64, 0
1, 263585, Note_on_c, 0, 85, 54
1, 263603, Note_on_c, 0, 87, 56
1, 263607, Note_off_c, 0, 85, 57
1, 263612, Note_on_c, 0, 90, 68
1, 263641, Note_on_c, 0, 44, 77
1, 263647, Note_on_c, 0, 39, 68
1, 263650, Note_off_c, 0, 87, 42
1, 263652, Note_on_c, 0, 32, 64
1, 263659, Note_on_c, 0, 91, 72
1, 263662, Control_c, 0, 64, 64
1, 263667, Note_on_c, 0, 36, 50
1, 263670, Note_off_c, 0, 44, 65
1, 263674, Note_off_c, 0, 39, 64
1, 263676, Control_c, 0, 64, 75
1, 263683, Note_off_c, 0, 32, 64
1, 263683, Note_off_c, 0, 91, 65
1, 263689, Note_off_c, 0, 90, 64
1, 263691, Control_c, 0, 64, 82
1, 263700, Note_off_c, 0, 36, 47
1, 263706, Control_c, 0, 64, 85
1, 263721, Control_c, 0, 64, 86
1, 263736, Control_c, 0, 64, 86
1, 263750, Control_c, 0, 64, 87
1, 263765, Control_c, 0, 64, 87
1, 263780, Control_c, 0, 64, 88
1, 263795, Control_c, 0, 64, 90
1, 263817, Control_c, 0, 64, 91
1, 263832, Control_c, 0, 64, 92
1, 263847, Control_c, 0, 64, 93
1, 263862, Control_c, 0, 64, 94
1, 263877, Control_c, 0, 64, 94
1, 263909, Note_on_c, 0, 49, 82
1, 263917, Note_on_c, 0, 75, 77
1, 263918, Note_on_c, 0, 66, 82
1, 263936, Control_c, 0, 64, 92
1, 263946, Note_off_c, 0, 49, 62
1, 263951, Control_c, 0, 64, 85
1, 263965, Control_c, 0, 64, 73
1, 263980, Control_c, 0, 64, 46
1, 263995, Control_c, 0, 64, 0
1, 264040, Note_on_c, 0, 56, 70
1, 264050, Note_on_c, 0, 60, 59
1, 264071, Note_off_c, 0, 60, 64
1, 264073, Note_off_c, 0, 56, 65
1, 264090, Note_off_c, 0, 66, 59
1, 264170, Note_on_c, 0, 50, 80
1, 264202, Note_off_c, 0, 50, 66
1, 264238, Note_off_c, 0, 75, 60
1, 264287, Note_on_c, 0, 77, 74
1, 264289, Note_on_c, 0, 68, 71
1, 264291, Note_on_c, 0, 60, 66
1, 264299, Note_on_c, 0, 56, 61
1, 264310, Note_off_c, 0, 68, 67
1, 264318, Note_off_c, 0, 60, 67
1, 264319, Note_off_c, 0, 56, 65
1, 264320, Note_off_c, 0, 77, 56
1, 264418, Note_on_c, 0, 51, 68
1, 264418, Note_on_c, 0, 78, 67
1, 264442, Note_on_c, 0, 66, 33
1, 264443, Note_off_c, 0, 66, 127
1, 264452, Note_off_c, 0, 51, 60
1, 264453, Note_off_c, 0, 78, 54
1, 264526, Note_on_c, 0, 56, 62
1, 264534, Note_on_c, 0, 60, 48
1, 264539, Note_on_c, 0, 75, 72
1, 264557, Note_on_c, 0, 66, 53
1, 264562, Note_off_c, 0, 56, 64
1, 264563, Note_off_c, 0, 75, 68
1, 264566, Note_off_c, 0, 60, 50
1, 264580, Note_off_c, 0, 66, 38
1, 264658, Note_on_c, 0, 37, 65
1, 264670, Note_on_c, 0, 44, 60
1, 264685, Note_off_c, 0, 37, 66
1, 264694, Note_on_c, 0, 87, 53
1, 264700, Control_c, 0, 64, 44
1, 264714, Control_c, 0, 64, 67
1, 264715, Note_on_c, 0, 101, 94
1, 264715, Note_off_c, 0, 87, 51
1, 264717, Note_off_c, 0, 44, 63
1, 264725, Note_on_c, 0, 53, 82
1, 264729, Control_c, 0, 64, 75
1, 264744, Control_c, 0, 64, 82
1, 264749, Note_off_c, 0, 53, 71
1, 264750, Note_off_c, 0, 101, 64
1, 264759, Control_c, 0, 64, 85
1, 264774, Control_c, 0, 64, 86
1, 264788, Control_c, 0, 64, 87
1, 264803, Control_c, 0, 64, 88
1, 264818, Control_c, 0, 64, 89
1, 264832, Control_c, 0, 64, 90
1, 264877, Control_c, 0, 64, 91
1, 264892, Control_c, 0, 64, 92
1, 264906, Control_c, 0, 64, 93
1, 264923, Control_c, 0, 64, 94
1, 264971, Note_on_c, 0, 73, 85
1, 264979, Note_on_c, 0, 65, 79
1, 264985, Note_on_c, 0, 47, 77
1, 265012, Control_c, 0, 64, 92
1, 265027, Control_c, 0, 64, 84
1, 265042, Control_c, 0, 64, 74
1, 265043, Note_off_c, 0, 47, 61
1, 265056, Control_c, 0, 64, 56
1, 265071, Control_c, 0, 64, 0
1, 265104, Note_on_c, 0, 59, 67
1, 265105, Note_on_c, 0, 56, 62
1, 265127, Note_off_c, 0, 65, 63
1, 265136, Note_off_c, 0, 59, 61
1, 265140, Note_off_c, 0, 56, 62
1, 265220, Note_on_c, 0, 48, 84
1, 265273, Note_off_c, 0, 48, 63
1, 265329, Note_off_c, 0, 73, 53
1, 265344, Note_on_c, 0, 60, 66
1, 265346, Note_on_c, 0, 56, 63
1, 265348, Note_on_c, 0, 75, 65
1, 265350, Note_on_c, 0, 66, 63
1, 265367, Note_off_c, 0, 66, 66
1, 265373, Note_off_c, 0, 60, 66
1, 265378, Note_off_c, 0, 75, 64
1, 265386, Note_off_c, 0, 56, 61
1, 265461, Note_on_c, 0, 49, 76
1, 265472, Note_on_c, 0, 68, 78
1, 265473, Note_on_c, 0, 77, 74
1, 265495, Note_off_c, 0, 68, 70
1, 265503, Note_off_c, 0, 49, 60
1, 265514, Note_off_c, 0, 77, 53
1, 265585, Note_on_c, 0, 60, 71
1, 265590, Note_on_c, 0, 73, 71
1, 265591, Note_on_c, 0, 65, 66
1, 265596, Note_on_c, 0, 56, 59
1, 265610, Note_on_c, 0, 53, 44
1, 265612, Note_off_c, 0, 60, 66
1, 265619, Note_off_c, 0, 65, 68
1, 265626, Note_off_c, 0, 56, 65
1, 265627, Note_off_c, 0, 73, 60
1, 265636, Note_off_c, 0, 53, 58
1, 265704, Note_on_c, 0, 51, 80
1, 265707, Note_on_c, 0, 63, 81
1, 265707, Note_on_c, 0, 72, 81
1, 265740, Note_off_c, 0, 63, 65
1, 265746, Note_off_c, 0, 72, 64
1, 265761, Note_off_c, 0, 51, 60
1, 265832, Note_on_c, 0, 65, 71
1, 265835, Note_on_c, 0, 60, 66
1, 265838, Note_on_c, 0, 73, 68
1, 265841, Note_on_c, 0, 56, 62
1, 265847, Note_on_c, 0, 54, 55
1, 265859, Note_off_c, 0, 65, 69
1, 265863, Note_off_c, 0, 60, 66
1, 265869, Note_off_c, 0, 73, 63
1, 265875, Note_off_c, 0, 56, 61
1, 265880, Note_off_c, 0, 54, 63
1, 265948, Note_on_c, 0, 66, 80
1, 265949, Note_on_c, 0, 48, 84
1, 265954, Note_on_c, 0, 75, 78
1, 265978, Note_off_c, 0, 66, 65
1, 265988, Note_off_c, 0, 75, 66
1, 265999, Note_off_c, 0, 48, 63
1, 266070, Note_on_c, 0, 77, 87
1, 266071, Note_on_c, 0, 68, 81
1, 266072, Note_on_c, 0, 56, 78
1, 266077, Note_on_c, 0, 60, 70
1, 266095, Note_off_c, 0, 68, 68
1, 266104, Note_off_c, 0, 60, 64
1, 266120, Note_off_c, 0, 56, 61
1, 266122, Note_off_c, 0, 77, 59
1, 266186, Note_on_c, 0, 70, 86
1, 266187, Note_on_c, 0, 53, 84
1, 266192, Note_on_c, 0, 78, 83
1, 266226, Note_off_c, 0, 70, 63
1, 266230, Note_off_c, 0, 78, 64
1, 266306, Note_on_c, 0, 72, 77
1, 266307, Note_on_c, 0, 80, 86
1, 266315, Note_on_c, 0, 56, 66
1, 266318, Note_on_c, 0, 60, 66
1, 266332, Note_off_c, 0, 72, 68
1, 266355, Note_off_c, 0, 80, 63
1, 266378, Note_off_c, 0, 60, 58
1, 266420, Note_on_c, 0, 82, 83
1, 266420, Note_on_c, 0, 73, 83
1, 266435, Note_off_c, 0, 53, 57
1, 266455, Note_off_c, 0, 73, 63
1, 266459, Note_off_c, 0, 82, 66
1, 266492, Note_off_c, 0, 56, 62
1, 266539, Note_on_c, 0, 51, 65
1, 266544, Note_on_c, 0, 75, 68
1, 266544, Note_on_c, 0, 84, 66
1, 266545, Note_on_c, 0, 63, 68
1, 266548, Note_on_c, 0, 83, 72
1, 266563, Note_off_c, 0, 75, 68
1, 266571, Note_off_c, 0, 63, 67
1, 266574, Note_off_c, 0, 83, 63
1, 266579, Note_off_c, 0, 84, 65
1, 266585, Note_off_c, 0, 51, 60
1, 266649, Note_on_c, 0, 87, 79
1, 266655, Note_on_c, 0, 77, 80
1, 266655, Note_on_c, 0, 61, 74
1, 266662, Note_on_c, 0, 49, 65
1, 266667, Note_on_c, 0, 85, 72
1, 266688, Note_off_c, 0, 61, 64
1, 266689, Note_off_c, 0, 77, 64
1, 266704, Note_off_c, 0, 49, 62
1, 266706, Note_off_c, 0, 87, 61
1, 266722, Note_off_c, 0, 85, 64
1, 266772, Note_on_c, 0, 84, 84
1, 266773, Note_on_c, 0, 75, 85
1, 266774, Note_on_c, 0, 60, 81
1, 266787, Note_on_c, 0, 48, 64
1, 266811, Note_off_c, 0, 75, 62
1, 266813, Note_off_c, 0, 60, 62
1, 266828, Note_off_c, 0, 48, 64
1, 266829, Note_off_c, 0, 84, 64
1, 266894, Note_on_c, 0, 85, 86
1, 266895, Note_on_c, 0, 77, 84
1, 266898, Note_on_c, 0, 59, 81
1, 266906, Note_on_c, 0, 47, 78
1, 266930, Note_off_c, 0, 77, 65
1, 266933, Note_off_c, 0, 85, 66
1, 266938, Note_off_c, 0, 47, 66
1, 266943, Note_off_c, 0, 59, 64
1, 267005, Note_on_c, 0, 78, 90
1, 267009, Note_on_c, 0, 87, 86
1, 267014, Note_on_c, 0, 58, 85
1, 267020, Note_on_c, 0, 46, 79
1, 267037, Note_off_c, 0, 78, 65
1, 267039, Note_off_c, 0, 58, 67
1, 267053, Note_off_c, 0, 46, 64
1, 267061, Note_off_c, 0, 87, 63
1, 267132, Note_on_c, 0, 89, 87
1, 267135, Note_on_c, 0, 80, 93
1, 267136, Note_on_c, 0, 57, 87
1, 267144, Note_on_c, 0, 45, 79
1, 267170, Note_off_c, 0, 80, 65
1, 267171, Note_off_c, 0, 89, 65
1, 267174, Note_off_c, 0, 57, 61
1, 267174, Note_off_c, 0, 45, 67
1, 267254, Note_on_c, 0, 56, 85
1, 267256, Note_on_c, 0, 78, 91
1, 267258, Note_on_c, 0, 87, 86
1, 267260, Note_on_c, 0, 44, 81
1, 267275, Note_off_c, 0, 56, 71
1, 267282, Note_off_c, 0, 78, 65
1, 267293, Note_off_c, 0, 44, 66
1, 267308, Note_off_c, 0, 87, 63
1, 267390, Note_on_c, 0, 53, 97
1, 267394, Note_on_c, 0, 89, 81
1, 267400, Note_on_c, 0, 41, 87
1, 267402, Note_on_c, 0, 80, 65
1, 267407, Note_on_c, 0, 79, 79
1, 267409, Note_on_c, 0, 88, 58
1, 267420, Note_off_c, 0, 80, 62
1, 267421, Note_off_c, 0, 79, 69
1, 267422, Note_off_c, 0, 53, 67
1, 267427, Note_off_c, 0, 41, 68
1, 267433, Note_off_c, 0, 89, 64
1, 267439, Note_off_c, 0, 88, 51
1, 267521, Note_on_c, 0, 77, 81
1, 267522, Note_on_c, 0, 85, 84
1, 267524, Note_on_c, 0, 49, 75
1, 267541, Note_off_c, 0, 77, 71
1, 267543, Note_on_c, 0, 37, 53
1, 267555, Note_off_c, 0, 49, 66
1, 267562, Note_on_c, 0, 39, 35
1, 267563, Note_off_c, 0, 39, 127
1, 267564, Note_off_c, 0, 85, 65
1, 267576, Note_off_c, 0, 37, 59
1, 267661, Note_on_c, 0, 87, 82
1, 267677, Note_on_c, 0, 93, 77
1, 267710, Note_off_c, 0, 87, 63
1, 267734, Note_on_c, 0, 102, 96
1, 267739, Note_on_c, 0, 44, 84
1, 267740, Note_on_c, 0, 36, 59
1, 267740, Control_c, 0, 64, 66
1, 267743, Note_on_c, 0, 32, 79
1, 267748, Note_on_c, 0, 39, 71
1, 267755, Control_c, 0, 64, 80
1, 267770, Control_c, 0, 64, 96
1, 267771, Note_off_c, 0, 93, 61
1, 267776, Note_off_c, 0, 102, 67
1, 267777, Note_off_c, 0, 32, 65
1, 267780, Note_off_c, 0, 36, 67
1, 267785, Control_c, 0, 64, 109
1, 267788, Note_off_c, 0, 39, 63
1, 267792, Note_off_c, 0, 44, 64
1, 267799, Control_c, 0, 64, 115
1, 267814, Control_c, 0, 64, 116
1, 267829, Control_c, 0, 64, 117
1, 267858, Control_c, 0, 64, 117
1, 267873, Control_c, 0, 64, 118
1, 267888, Control_c, 0, 64, 119
1, 267903, Control_c, 0, 64, 120
1, 267917, Control_c, 0, 64, 120
1, 267962, Control_c, 0, 64, 121
1, 267976, Control_c, 0, 64, 122
1, 267991, Control_c, 0, 64, 124
1, 268001, Note_on_c, 0, 75, 87
1, 268006, Note_on_c, 0, 66, 84
1, 268007, Note_on_c, 0, 49, 84
1, 268050, Control_c, 0, 64, 124
1, 268057, Note_off_c, 0, 49, 61
1, 268065, Control_c, 0, 64, 121
1, 268080, Control_c, 0, 64, 109
1, 268095, Control_c, 0, 64, 98
1, 268110, Control_c, 0, 64, 85
1, 268126, Control_c, 0, 64, 71
1, 268131, Note_on_c, 0, 56, 78
1, 268134, Note_on_c, 0, 60, 78
1, 268141, Control_c, 0, 64, 0
1, 268160, Note_off_c, 0, 60, 65
1, 268174, Note_off_c, 0, 56, 61
1, 268204, Note_off_c, 0, 66, 61
1, 268259, Note_on_c, 0, 50, 91
1, 268312, Note_off_c, 0, 50, 66
1, 268347, Note_off_c, 0, 75, 60
1, 268385, Note_on_c, 0, 77, 81
1, 268392, Note_on_c, 0, 68, 73
1, 268395, Note_on_c, 0, 56, 75
1, 268395, Note_on_c, 0, 60, 70
1, 268414, Note_off_c, 0, 68, 70
1, 268418, Note_off_c, 0, 56, 66
1, 268420, Note_off_c, 0, 60, 67
1, 268435, Note_off_c, 0, 77, 61
1, 268509, Note_on_c, 0, 78, 81
1, 268511, Note_on_c, 0, 51, 79
1, 268514, Note_on_c, 0, 70, 79
1, 268536, Note_off_c, 0, 70, 67
1, 268551, Note_off_c, 0, 51, 61
1, 268564, Note_off_c, 0, 78, 63
1, 268620, Note_on_c, 0, 56, 73
1, 268629, Note_on_c, 0, 60, 57
1, 268635, Note_on_c, 0, 66, 61
1, 268636, Note_on_c, 0, 75, 72
1, 268649, Note_off_c, 0, 56, 67
1, 268649, Note_off_c, 0, 60, 59
1, 268652, Note_off_c, 0, 66, 64
1, 268660, Note_off_c, 0, 75, 67
1, 268739, Note_on_c, 0, 37, 78
1, 268751, Note_on_c, 0, 85, 87
1, 268756, Control_c, 0, 64, 65
1, 268762, Note_on_c, 0, 44, 68
1, 268771, Control_c, 0, 64, 75
1, 268775, Note_off_c, 0, 85, 65
1, 268777, Note_off_c, 0, 37, 67
1, 268783, Note_on_c, 0, 93, 44
1, 268786, Control_c, 0, 64, 86
1, 268800, Control_c, 0, 64, 94
1, 268811, Note_off_c, 0, 93, 36
1, 268815, Control_c, 0, 64, 98
1, 268817, Note_on_c, 0, 53, 93
1, 268819, Note_off_c, 0, 44, 59
1, 268820, Note_on_c, 0, 101, 101
1, 268830, Control_c, 0, 64, 101
1, 268845, Control_c, 0, 64, 103
1, 268854, Note_off_c, 0, 101, 68
1, 268858, Note_off_c, 0, 53, 64
1, 268860, Control_c, 0, 64, 105
1, 268874, Control_c, 0, 64, 105
1, 268889, Control_c, 0, 64, 106
1, 268904, Control_c, 0, 64, 106
1, 268920, Control_c, 0, 64, 107
1, 268935, Control_c, 0, 64, 107
1, 268964, Control_c, 0, 64, 108
1, 268994, Control_c, 0, 64, 108
1, 269009, Control_c, 0, 64, 109
1, 269023, Control_c, 0, 64, 110
1, 269038, Control_c, 0, 64, 110
1, 269083, Note_on_c, 0, 47, 83
1, 269090, Note_on_c, 0, 73, 90
1, 269091, Control_c, 0, 64, 111
1, 269091, Note_on_c, 0, 65, 87
1, 269150, Control_c, 0, 64, 110
1, 269157, Note_off_c, 0, 47, 57
1, 269204, Note_on_c, 0, 59, 76
1, 269207, Note_on_c, 0, 56, 74
1, 269223, Control_c, 0, 64, 110
1, 269238, Control_c, 0, 64, 106
1, 269253, Control_c, 0, 64, 100
1, 269256, Note_off_c, 0, 56, 62
1, 269257, Note_off_c, 0, 59, 60
1, 269268, Control_c, 0, 64, 91
1, 269270, Note_off_c, 0, 65, 61
1, 269283, Control_c, 0, 64, 80
1, 269297, Control_c, 0, 64, 66
1, 269312, Control_c, 0, 64, 0
1, 269336, Note_on_c, 0, 48, 91
1, 269407, Note_off_c, 0, 48, 63
1, 269430, Control_c, 0, 64, 53
1, 269445, Control_c, 0, 64, 67
1, 269457, Note_on_c, 0, 60, 73
1, 269459, Note_on_c, 0, 56, 70
1, 269460, Control_c, 0, 64, 72
1, 269462, Note_on_c, 0, 66, 78
1, 269463, Note_on_c, 0, 75, 72
1, 269475, Control_c, 0, 64, 77
1, 269486, Note_off_c, 0, 66, 71
1, 269486, Note_off_c, 0, 60, 64
1, 269487, Note_off_c, 0, 73, 52
1, 269490, Control_c, 0, 64, 80
1, 269503, Note_off_c, 0, 56, 56
1, 269503, Note_off_c, 0, 75, 63
1, 269505, Control_c, 0, 64, 82
1, 269520, Control_c, 0, 64, 83
1, 269535, Control_c, 0, 64, 83
1, 269550, Control_c, 0, 64, 84
1, 269565, Control_c, 0, 64, 84
1, 269582, Note_on_c, 0, 49, 75
1, 269587, Note_on_c, 0, 68, 87
1, 269589, Note_on_c, 0, 77, 79
1, 269609, Control_c, 0, 64, 85
1, 269624, Note_off_c, 0, 49, 57
1, 269629, Note_off_c, 0, 68, 61
1, 269638, Control_c, 0, 64, 84
1, 269639, Note_off_c, 0, 77, 58
1, 269698, Note_on_c, 0, 56, 68
1, 269699, Note_on_c, 0, 60, 66
1, 269705, Note_on_c, 0, 65, 79
1, 269705, Note_on_c, 0, 73, 82
1, 269706, Note_on_c, 0, 53, 62
1, 269713, Control_c, 0, 64, 83
1, 269723, Note_off_c, 0, 60, 67
1, 269728, Control_c, 0, 64, 78
1, 269735, Note_off_c, 0, 56, 63
1, 269737, Note_off_c, 0, 65, 66
1, 269743, Note_off_c, 0, 53, 67
1, 269743, Control_c, 0, 64, 67
1, 269749, Note_off_c, 0, 73, 61
1, 269758, Control_c, 0, 64, 0
1, 269839, Control_c, 0, 64, 62
1, 269844, Note_on_c, 0, 44, 76
1, 269845, Note_on_c, 0, 56, 73
1, 269845, Note_on_c, 0, 63, 81
1, 269845, Note_on_c, 0, 72, 74
1, 269854, Control_c, 0, 64, 74
1, 269869, Control_c, 0, 64, 87
1, 269875, Note_off_c, 0, 56, 64
1, 269884, Note_off_c, 0, 44, 64
1, 269884, Control_c, 0, 64, 98
1, 269886, Note_off_c, 0, 63, 59
1, 269889, Note_off_c, 0, 72, 60
1, 269898, Control_c, 0, 64, 103
1, 269913, Control_c, 0, 64, 105
1, 269928, Control_c, 0, 64, 108
1, 269943, Control_c, 0, 64, 113
1, 269958, Control_c, 0, 64, 117
1, 269971, Note_on_c, 0, 65, 78
1, 269973, Control_c, 0, 64, 120
1, 269980, Note_on_c, 0, 73, 75
1, 269985, Note_on_c, 0, 61, 76
1, 269988, Control_c, 0, 64, 121
1, 269994, Note_on_c, 0, 49, 65
1, 270002, Control_c, 0, 64, 123
1, 270005, Note_off_c, 0, 65, 63
1, 270012, Note_off_c, 0, 61, 64
1, 270017, Control_c, 0, 64, 124
1, 270025, Note_off_c, 0, 73, 56
1, 270032, Control_c, 0, 64, 126
1, 270033, Note_off_c, 0, 49, 62
1, 270046, Control_c, 0, 64, 127
1, 270086, Note_on_c, 0, 66, 89
1, 270093, Note_on_c, 0, 75, 83
1, 270106, Note_on_c, 0, 60, 76
1, 270117, Note_on_c, 0, 48, 67
1, 270131, Note_off_c, 0, 66, 64
1, 270137, Note_off_c, 0, 75, 65
1, 270138, Note_off_c, 0, 60, 61
1, 270148, Note_off_c, 0, 48, 65
1, 270205, Note_on_c, 0, 77, 91
1, 270206, Note_on_c, 0, 68, 84
1, 270215, Note_on_c, 0, 58, 78
1, 270225, Note_on_c, 0, 46, 72
1, 270236, Note_off_c, 0, 68, 63
1, 270244, Note_off_c, 0, 58, 62
1, 270259, Note_off_c, 0, 46, 61
1, 270262, Note_off_c, 0, 77, 60
1, 270322, Note_on_c, 0, 70, 82
1, 270324, Note_on_c, 0, 78, 86
1, 270327, Note_on_c, 0, 56, 80
1, 270335, Note_on_c, 0, 44, 76
1, 270354, Note_off_c, 0, 70, 60
1, 270361, Note_off_c, 0, 56, 62
1, 270366, Note_off_c, 0, 78, 64
1, 270381, Note_off_c, 0, 44, 59
1, 270437, Note_on_c, 0, 72, 87
1, 270437, Poly_aftertouch_c, 0, 46, 0
1, 270439, Note_on_c, 0, 80, 94
1, 270440, Note_on_c, 0, 54, 81
1, 270444, Note_on_c, 0, 42, 83
1, 270471, Note_off_c, 0, 54, 64
1, 270474, Note_off_c, 0, 72, 64
1, 270482, Note_off_c, 0, 42, 65
1, 270494, Note_off_c, 0, 80, 62
1, 270561, Note_on_c, 0, 53, 88
1, 270561, Note_on_c, 0, 73, 91
1, 270566, Note_on_c, 0, 82, 89
1, 270576, Note_on_c, 0, 41, 79
1, 270597, Note_off_c, 0, 73, 64
1, 270605, Note_off_c, 0, 53, 66
1, 270606, Note_off_c, 0, 82, 65
1, 270609, Note_off_c, 0, 41, 66
1, 270676, Note_on_c, 0, 84, 95
1, 270679, Note_on_c, 0, 75, 88
1, 270684, Note_on_c, 0, 51, 81
1, 270691, Note_on_c, 0, 39, 71
1, 270704, Note_off_c, 0, 75, 66
1, 270709, Note_off_c, 0, 51, 66
1, 270719, Note_off_c, 0, 84, 66
1, 270733, Note_off_c, 0, 39, 58
1, 270736, Note_on_c, 0, 44, 13
1, 270751, Control_c, 0, 64, 107
1, 270766, Control_c, 0, 64, 79
1, 270769, Note_off_c, 0, 44, 56
1, 270781, Control_c, 0, 64, 0
1, 270810, Control_c, 0, 64, 39
1, 270817, Note_on_c, 0, 73, 95
1, 270820, Note_on_c, 0, 85, 87
1, 270822, Note_on_c, 0, 49, 85
1, 270825, Note_on_c, 0, 77, 77
1, 270825, Control_c, 0, 64, 72
1, 270830, Note_on_c, 0, 80, 71
1, 270831, Note_on_c, 0, 37, 74
1, 270840, Control_c, 0, 64, 89
1, 270841, Note_on_c, 0, 41, 53
1, 270843, Note_on_c, 0, 44, 60
1, 270845, Note_off_c, 0, 49, 69
1, 270849, Note_off_c, 0, 77, 65
1, 270855, Control_c, 0, 64, 111
1, 270858, Note_off_c, 0, 73, 54
1, 270863, Note_off_c, 0, 85, 66
1, 270865, Note_off_c, 0, 80, 62
1, 270868, Note_off_c, 0, 44, 59
1, 270869, Control_c, 0, 64, 115
1, 270870, Note_off_c, 0, 41, 65
1, 270882, Note_off_c, 0, 37, 64
1, 270884, Control_c, 0, 64, 117
1, 270899, Control_c, 0, 64, 119
1, 270913, Control_c, 0, 64, 123
1, 270928, Control_c, 0, 64, 127
1, 270963, Note_on_c, 0, 37, 82
1, 270974, Note_on_c, 0, 25, 62
1, 270992, Note_off_c, 0, 37, 67
1, 271005, Note_off_c, 0, 25, 63
1, 271100, Note_on_c, 0, 62, 83
1, 271103, Note_on_c, 0, 66, 80
1, 271103, Note_on_c, 0, 74, 72
1, 271105, Note_on_c, 0, 69, 72
1, 271107, Note_on_c, 0, 48, 86
1, 271131, Note_off_c, 0, 48, 69
1, 271133, Note_on_c, 0, 36, 48
1, 271134, Note_off_c, 0, 62, 53
1, 271147, Note_off_c, 0, 69, 62
1, 271147, Note_off_c, 0, 66, 62
1, 271160, Note_off_c, 0, 74, 61
1, 271165, Note_off_c, 0, 36, 60
1, 271235, Note_on_c, 0, 37, 71
1, 271263, Note_off_c, 0, 37, 64
1, 271305, Control_c, 0, 64, 121
1, 271320, Poly_aftertouch_c, 0, 25, 127
1, 271321, Control_c, 0, 64, 109
1, 271336, Control_c, 0, 64, 108
1, 271346, Poly_aftertouch_c, 0, 27, 0
1, 271350, Poly_aftertouch_c, 0, 25, 0
1, 271354, Poly_aftertouch_c, 0, 39, 0
1, 271364, Note_on_c, 0, 45, 79
1, 271364, Note_on_c, 0, 63, 93
1, 271365, Control_c, 0, 64, 108
1, 271368, Note_on_c, 0, 67, 81
1, 271368, Note_on_c, 0, 75, 79
1, 271371, Note_on_c, 0, 70, 72
1, 271372, Note_on_c, 0, 33, 77
1, 271380, Control_c, 0, 64, 111
1, 271392, Note_off_c, 0, 45, 68
1, 271395, Control_c, 0, 64, 118
1, 271397, Note_off_c, 0, 63, 60
1, 271404, Note_off_c, 0, 67, 61
1, 271408, Note_off_c, 0, 33, 66
1, 271410, Control_c, 0, 64, 127
1, 271428, Note_off_c, 0, 70, 62
1, 271433, Note_off_c, 0, 75, 63
1, 271478, Note_on_c, 0, 37, 84
1, 271503, Note_on_c, 0, 25, 42
1, 271505, Note_off_c, 0, 37, 66
1, 271508, Note_on_c, 0, 27, 36
1, 271514, Control_c, 0, 64, 102
1, 271529, Control_c, 0, 64, 78
1, 271544, Control_c, 0, 64, 66
1, 271549, Note_off_c, 0, 25, 41
1, 271550, Note_off_c, 0, 27, 41
1, 271559, Control_c, 0, 64, 68
1, 271573, Control_c, 0, 64, 77
1, 271588, Control_c, 0, 64, 91
1, 271601, Note_on_c, 0, 50, 88
1, 271602, Note_on_c, 0, 64, 90
1, 271603, Note_on_c, 0, 76, 78
1, 271603, Control_c, 0, 64, 106
1, 271605, Note_on_c, 0, 68, 86
1, 271606, Note_on_c, 0, 71, 77
1, 271609, Note_on_c, 0, 38, 82
1, 271617, Control_c, 0, 64, 114
1, 271624, Note_off_c, 0, 50, 70
1, 271632, Control_c, 0, 64, 117
1, 271633, Note_off_c, 0, 64, 63
1, 271642, Note_off_c, 0, 38, 66
1, 271647, Control_c, 0, 64, 123
1, 271648, Note_off_c, 0, 68, 63
1, 271650, Note_off_c, 0, 71, 60
1, 271663, Control_c, 0, 64, 127
1, 271674, Note_off_c, 0, 76, 64
1, 271723, Note_on_c, 0, 37, 83
1, 271739, Note_on_c, 0, 25, 62
1, 271755, Note_off_c, 0, 37, 64
1, 271772, Note_off_c, 0, 25, 60
1, 271796, Control_c, 0, 64, 96
1, 271811, Control_c, 0, 64, 72
1, 271825, Control_c, 0, 64, 63
1, 271840, Control_c, 0, 64, 69
1, 271841, Note_on_c, 0, 65, 92
1, 271845, Note_on_c, 0, 47, 91
1, 271846, Note_on_c, 0, 69, 79
1, 271847, Note_on_c, 0, 77, 82
1, 271848, Note_on_c, 0, 72, 77
1, 271855, Control_c, 0, 64, 80
1, 271856, Note_on_c, 0, 35, 82
1, 271870, Note_off_c, 0, 47, 72
1, 271870, Control_c, 0, 64, 96
1, 271883, Note_off_c, 0, 65, 64
1, 271884, Note_off_c, 0, 69, 64
1, 271885, Note_off_c, 0, 35, 65
1, 271885, Control_c, 0, 64, 113
1, 271894, Note_off_c, 0, 77, 61
1, 271899, Control_c, 0, 64, 127
1, 271900, Note_off_c, 0, 72, 63
1, 271955, Note_on_c, 0, 37, 85
1, 271970, Note_on_c, 0, 25, 67
1, 271982, Note_off_c, 0, 37, 69
1, 271999, Note_off_c, 0, 25, 64
1, 272045, Poly_aftertouch_c, 0, 27, 0
1, 272076, Poly_aftertouch_c, 0, 27, 0
1, 272089, Note_on_c, 0, 73, 31
1, 272090, Note_on_c, 0, 52, 89
1, 272092, Note_on_c, 0, 66, 102
1, 272095, Note_on_c, 0, 70, 82
1, 272095, Note_on_c, 0, 40, 87
1, 272095, Note_on_c, 0, 78, 84
1, 272110, Note_off_c, 0, 52, 75
1, 272125, Note_off_c, 0, 66, 65
1, 272127, Note_off_c, 0, 40, 68
1, 272131, Note_off_c, 0, 70, 60
1, 272157, Note_off_c, 0, 73, 64
1, 272168, Note_off_c, 0, 78, 60
1, 272221, Note_on_c, 0, 37, 82
1, 272226, Note_on_c, 0, 25, 79
1, 272244, Note_off_c, 0, 37, 70
1, 272252, Note_off_c, 0, 25, 63
1, 272293, Control_c, 0, 64, 111
1, 272308, Control_c, 0, 64, 81
1, 272322, Control_c, 0, 64, 0
1, 272349, Note_on_c, 0, 67, 99
1, 272350, Note_on_c, 0, 71, 86
1, 272354, Note_on_c, 0, 51, 91
1, 272354, Note_on_c, 0, 79, 82
1, 272356, Note_on_c, 0, 74, 77
1, 272358, Note_on_c, 0, 39, 87
1, 272367, Control_c, 0, 64, 69
1, 272376, Note_off_c, 0, 51, 70
1, 272382, Control_c, 0, 64, 89
1, 272387, Note_off_c, 0, 67, 60
1, 272390, Note_off_c, 0, 39, 64
1, 272396, Control_c, 0, 64, 125
1, 272400, Note_off_c, 0, 71, 61
1, 272411, Note_off_c, 0, 79, 61
1, 272411, Control_c, 0, 64, 127
1, 272412, Note_off_c, 0, 74, 65
1, 272482, Note_on_c, 0, 37, 91
1, 272490, Note_on_c, 0, 25, 70
1, 272508, Note_off_c, 0, 37, 66
1, 272520, Note_off_c, 0, 25, 63
1, 272582, Poly_aftertouch_c, 0, 27, 0
1, 272605, Note_on_c, 0, 68, 97
1, 272606, Note_on_c, 0, 80, 90
1, 272607, Note_on_c, 0, 75, 66
1, 272608, Note_on_c, 0, 54, 98
1, 272610, Note_on_c, 0, 72, 84
1, 272614, Note_on_c, 0, 42, 88
1, 272630, Note_off_c, 0, 54, 70
1, 272641, Note_off_c, 0, 68, 67
1, 272649, Note_off_c, 0, 42, 63
1, 272653, Note_off_c, 0, 72, 65
1, 272662, Note_on_c, 0, 78, 12
1, 272675, Note_on_c, 0, 44, 3
1, 272684, Note_off_c, 0, 80, 63
1, 272688, Note_off_c, 0, 75, 64
1, 272708, Note_off_c, 0, 78, 34
1, 272709, Note_off_c, 0, 44, 37
1, 272742, Note_on_c, 0, 37, 85
1, 272745, Note_on_c, 0, 25, 81
1, 272768, Note_off_c, 0, 37, 69
1, 272769, Note_off_c, 0, 25, 67
1, 272775, Note_on_c, 0, 27, 32
1, 272804, Note_on_c, 0, 75, 12
1, 272819, Control_c, 0, 64, 121
1, 272826, Note_off_c, 0, 27, 40
1, 272834, Control_c, 0, 64, 88
1, 272848, Control_c, 0, 64, 65
1, 272850, Note_off_c, 0, 75, 41
1, 272863, Control_c, 0, 64, 42
1, 272868, Note_on_c, 0, 69, 98
1, 272869, Note_on_c, 0, 73, 91
1, 272870, Note_on_c, 0, 76, 86
1, 272872, Note_on_c, 0, 81, 95
1, 272878, Control_c, 0, 64, 70
1, 272884, Note_on_c, 0, 52, 85
1, 272888, Note_on_c, 0, 40, 87
1, 272893, Control_c, 0, 64, 86
1, 272904, Note_off_c, 0, 69, 66
1, 272905, Note_off_c, 0, 52, 74
1, 272908, Control_c, 0, 64, 113
1, 272909, Note_on_c, 0, 79, 36
1, 272915, Note_off_c, 0, 40, 66
1, 272924, Control_c, 0, 64, 127
1, 272932, Note_off_c, 0, 73, 63
1, 272936, Note_off_c, 0, 81, 60
1, 272938, Note_off_c, 0, 79, 52
1, 272941, Note_off_c, 0, 76, 64
1, 272997, Note_on_c, 0, 37, 89
1, 273022, Note_off_c, 0, 37, 68
1, 273028, Note_on_c, 0, 27, 39
1, 273028, Note_on_c, 0, 25, 43
1, 273052, Note_off_c, 0, 25, 57
1, 273061, Note_off_c, 0, 27, 52
1, 273138, Note_on_c, 0, 70, 102
1, 273140, Note_on_c, 0, 56, 90
1, 273140, Note_on_c, 0, 82, 91
1, 273142, Note_on_c, 0, 74, 86
1, 273145, Note_on_c, 0, 77, 70
1, 273145, Note_on_c, 0, 44, 84
1, 273162, Note_off_c, 0, 56, 70
1, 273168, Note_on_c, 0, 46, 48
1, 273177, Note_off_c, 0, 70, 62
1, 273179, Note_off_c, 0, 44, 65
1, 273194, Note_off_c, 0, 74, 63
1, 273197, Note_off_c, 0, 46, 54
1, 273211, Note_off_c, 0, 77, 62
1, 273214, Note_off_c, 0, 82, 62
1, 273277, Note_on_c, 0, 37, 90
1, 273288, Note_on_c, 0, 25, 73
1, 273308, Note_off_c, 0, 37, 68
1, 273318, Note_off_c, 0, 25, 65
1, 273389, Poly_aftertouch_c, 0, 27, 0
1, 273398, Control_c, 0, 64, 89
1, 273413, Control_c, 0, 64, 63
1, 273424, Note_on_c, 0, 71, 99
1, 273427, Note_on_c, 0, 53, 95
1, 273428, Control_c, 0, 64, 0
1, 273429, Note_on_c, 0, 83, 95
1, 273437, Note_on_c, 0, 41, 78
1, 273437, Note_on_c, 0, 78, 86
1, 273442, Note_on_c, 0, 76, 79
1, 273443, Control_c, 0, 64, 66
1, 273451, Note_off_c, 0, 53, 68
1, 273457, Control_c, 0, 64, 85
1, 273466, Note_off_c, 0, 41, 68
1, 273472, Control_c, 0, 64, 115
1, 273483, Note_off_c, 0, 71, 51
1, 273487, Control_c, 0, 64, 127
1, 273499, Note_off_c, 0, 76, 61
1, 273520, Note_off_c, 0, 83, 54
1, 273524, Note_off_c, 0, 78, 64
1, 273575, Note_on_c, 0, 37, 96
1, 273584, Note_on_c, 0, 25, 83
1, 273610, Note_off_c, 0, 25, 65
1, 273610, Note_off_c, 0, 37, 62
1, 273727, Note_on_c, 0, 72, 99
1, 273728, Note_on_c, 0, 75, 88
1, 273728, Note_on_c, 0, 84, 96
1, 273729, Note_on_c, 0, 51, 88
1, 273731, Note_on_c, 0, 78, 85
1, 273739, Note_on_c, 0, 39, 86
1, 273747, Note_on_c, 0, 42, 63
1, 273760, Note_on_c, 0, 52, 53
1, 273761, Note_off_c, 0, 52, 127
1, 273762, Note_off_c, 0, 51, 65
1, 273768, Note_off_c, 0, 72, 68
1, 273778, Note_off_c, 0, 39, 61
1, 273780, Note_off_c, 0, 42, 64
1, 273794, Note_off_c, 0, 84, 62
1, 273799, Note_off_c, 0, 75, 66
1, 273809, Note_off_c, 0, 78, 67
1, 273870, Note_on_c, 0, 37, 94
1, 273897, Note_on_c, 0, 27, 48
1, 273905, Note_off_c, 0, 37, 66
1, 273907, Note_on_c, 0, 25, 35
1, 273929, Note_off_c, 0, 27, 61
1, 273937, Note_off_c, 0, 25, 50
1, 274057, Control_c, 0, 64, 97
1, 274072, Control_c, 0, 64, 66
1, 274072, Note_on_c, 0, 73, 102
1, 274072, Note_on_c, 0, 80, 66
1, 274075, Note_on_c, 0, 85, 98
1, 274075, Note_on_c, 0, 49, 97
1, 274075, Note_on_c, 0, 77, 90
1, 274082, Note_on_c, 0, 37, 74
1, 274084, Note_on_c, 0, 44, 55
1, 274087, Control_c, 0, 64, 0
1, 274104, Note_on_c, 0, 41, 57
1, 274119, Note_off_c, 0, 44, 65
1, 274124, Note_off_c, 0, 49, 64
1, 274125, Note_off_c, 0, 37, 66
1, 274128, Note_off_c, 0, 73, 55
1, 274131, Control_c, 0, 64, 78
1, 274134, Note_off_c, 0, 41, 62
1, 274146, Note_off_c, 0, 77, 62
1, 274146, Control_c, 0, 64, 105
1, 274161, Control_c, 0, 64, 127
1, 274181, Note_off_c, 0, 80, 64
1, 274183, Note_off_c, 0, 85, 66
1, 274251, Note_on_c, 0, 60, 96
1, 274258, Note_on_c, 0, 48, 91
1, 274302, Note_off_c, 0, 60, 61
1, 274325, Note_off_c, 0, 48, 62
1, 274383, Note_on_c, 0, 85, 14
1, 274423, Note_off_c, 0, 85, 29
1, 274450, Note_on_c, 0, 53, 7
1, 274450, Control_c, 0, 64, 117
1, 274465, Control_c, 0, 64, 82
1, 274470, Note_on_c, 0, 85, 103
1, 274470, Note_on_c, 0, 97, 95
1, 274473, Note_on_c, 0, 61, 98
1, 274476, Note_on_c, 0, 56, 80
1, 274480, Control_c, 0, 64, 0
1, 274485, Note_on_c, 0, 49, 75
1, 274486, Note_on_c, 0, 89, 62
1, 274487, Note_on_c, 0, 94, 70
1, 274489, Note_on_c, 0, 88, 66
1, 274505, Note_off_c, 0, 61, 67
1, 274505, Note_off_c, 0, 97, 65
1, 274506, Note_off_c, 0, 56, 64
1, 274506, Note_off_c, 0, 94, 65
1, 274509, Control_c, 0, 64, 65
1, 274517, Note_off_c, 0, 89, 67
1, 274519, Note_off_c, 0, 88, 65
1, 274523, Note_off_c, 0, 85, 65
1, 274525, Control_c, 0, 64, 88
1, 274528, Note_off_c, 0, 53, 64
1, 274540, Control_c, 0, 64, 127
1, 274545, Note_off_c, 0, 49, 63
1, 274668, Note_on_c, 0, 62, 76
1, 274672, Note_on_c, 0, 72, 85
1, 274677, Note_on_c, 0, 48, 91
1, 274695, Note_on_c, 0, 36, 69
1, 274704, Note_on_c, 0, 60, 41
1, 274716, Note_off_c, 0, 62, 63
1, 274717, Note_off_c, 0, 72, 66
1, 274724, Note_off_c, 0, 48, 62
1, 274728, Note_off_c, 0, 60, 60
1, 274738, Note_off_c, 0, 36, 62
1, 274823, Note_on_c, 0, 61, 87
1, 274829, Note_on_c, 0, 73, 95
1, 274832, Note_on_c, 0, 49, 90
1, 274843, Note_on_c, 0, 37, 70
1, 274869, Note_off_c, 0, 49, 61
1, 274871, Note_on_c, 0, 63, 15
1, 274872, Note_off_c, 0, 61, 62
1, 274877, Note_off_c, 0, 73, 63
1, 274894, Note_off_c, 0, 37, 64
1, 274912, Note_off_c, 0, 63, 48
1, 274950, Note_on_c, 0, 60, 89
1, 274954, Note_on_c, 0, 72, 87
1, 274957, Note_on_c, 0, 48, 87
1, 274969, Note_on_c, 0, 36, 66
1, 274996, Note_off_c, 0, 60, 63
1, 275000, Note_off_c, 0, 36, 65
1, 275002, Note_off_c, 0, 72, 65
1, 275003, Note_off_c, 0, 48, 65
1, 275077, Note_on_c, 0, 61, 96
1, 275079, Poly_aftertouch_c, 0, 43, 127
1, 275082, Note_on_c, 0, 73, 95
1, 275085, Note_on_c, 0, 49, 83
1, 275090, Note_on_c, 0, 37, 79
1, 275101, Note_off_c, 0, 73, 70
1, 275105, Note_off_c, 0, 49, 70
1, 275121, Note_off_c, 0, 61, 65
1, 275129, Note_off_c, 0, 37, 65
1, 275141, Poly_aftertouch_c, 0, 43, 0
1, 275199, Control_c, 0, 64, 126
1, 275210, Note_on_c, 0, 36, 83
1, 275210, Note_on_c, 0, 60, 89
1, 275212, Note_on_c, 0, 48, 88
1, 275214, Control_c, 0, 64, 93
1, 275229, Control_c, 0, 64, 79
1, 275231, Note_on_c, 0, 24, 62
1, 275243, Control_c, 0, 64, 76
1, 275248, Note_off_c, 0, 60, 64
1, 275249, Note_off_c, 0, 36, 62
1, 275252, Note_off_c, 0, 48, 67
1, 275258, Control_c, 0, 64, 82
1, 275259, Note_off_c, 0, 24, 59
1, 275273, Control_c, 0, 64, 95
1, 275288, Control_c, 0, 64, 116
1, 275303, Control_c, 0, 64, 127
1, 275327, Note_on_c, 0, 49, 93
1, 275330, Note_on_c, 0, 61, 93
1, 275331, Note_on_c, 0, 37, 85
1, 275341, Note_on_c, 0, 25, 75
1, 275353, Note_on_c, 0, 31, 10
1, 275369, Note_off_c, 0, 37, 64
1, 275372, Note_off_c, 0, 61, 63
1, 275378, Note_off_c, 0, 49, 62
1, 275390, Note_off_c, 0, 25, 65
1, 275405, Note_off_c, 0, 31, 51
1, 275442, Note_on_c, 0, 48, 95
1, 275442, Poly_aftertouch_c, 0, 51, 0
1, 275445, Note_on_c, 0, 60, 81
1, 275449, Note_on_c, 0, 36, 81
1, 275466, Note_on_c, 0, 24, 64
1, 275482, Note_on_c, 0, 59, 35
1, 275485, Note_off_c, 0, 36, 63
1, 275488, Note_off_c, 0, 48, 66
1, 275493, Note_off_c, 0, 60, 63
1, 275496, Note_off_c, 0, 24, 56
1, 275515, Note_off_c, 0, 59, 56
1, 275551, Poly_aftertouch_c, 0, 31, 0
1, 275560, Note_on_c, 0, 49, 95
1, 275562, Note_on_c, 0, 61, 93
1, 275563, Note_on_c, 0, 37, 94
1, 275567, Note_on_c, 0, 25, 86
1, 275581, Note_off_c, 0, 49, 70
1, 275592, Note_off_c, 0, 25, 64
1, 275600, Note_off_c, 0, 37, 63
1, 275601, Note_off_c, 0, 61, 64
1, 275608, Poly_aftertouch_c, 0, 31, 0
1, 275700, Note_on_c, 0, 60, 73
1, 275702, Note_on_c, 0, 48, 91
1, 275703, Note_on_c, 0, 72, 86
1, 275705, Note_on_c, 0, 59, 76
1, 275711, Note_on_c, 0, 36, 75
1, 275716, Note_on_c, 0, 71, 60
1, 275721, Note_off_c, 0, 60, 69
1, 275722, Note_off_c, 0, 59, 41
1, 275722, Note_off_c, 0, 72, 74
1, 275735, Note_off_c, 0, 71, 52
1, 275738, Note_off_c, 0, 36, 66
1, 275741, Note_off_c, 0, 48, 66
1, 275827, Note_on_c, 0, 61, 94
1, 275831, Note_on_c, 0, 49, 96
1, 275837, Note_on_c, 0, 37, 86
1, 275837, Note_on_c, 0, 73, 86
1, 275857, Note_off_c, 0, 73, 70
1, 275859, Note_off_c, 0, 61, 67
1, 275869, Note_on_c, 0, 60, 34
1, 275870, Note_off_c, 0, 49, 64
1, 275894, Note_off_c, 0, 37, 64
1, 275899, Note_off_c, 0, 60, 45
1, 275920, Poly_aftertouch_c, 0, 66, 0
1, 275955, Note_on_c, 0, 60, 104
1, 275956, Note_on_c, 0, 48, 98
1, 275957, Note_on_c, 0, 72, 102
1, 275965, Note_on_c, 0, 36, 76
1, 275986, Note_off_c, 0, 60, 62
1, 275991, Note_off_c, 0, 48, 69
1, 275993, Note_off_c, 0, 36, 64
1, 275993, Note_off_c, 0, 72, 69
1, 275998, Note_on_c, 0, 43, 20
1, 276046, Note_off_c, 0, 43, 51
1, 276099, Note_on_c, 0, 73, 100
1, 276102, Note_on_c, 0, 61, 94
1, 276103, Note_on_c, 0, 49, 91
1, 276104, Note_on_c, 0, 85, 103
1, 276136, Note_off_c, 0, 73, 62
1, 276138, Note_off_c, 0, 85, 68
1, 276141, Note_off_c, 0, 61, 63
1, 276152, Note_off_c, 0, 49, 63
1, 276235, Note_on_c, 0, 60, 93
1, 276238, Note_on_c, 0, 72, 101
1, 276240, Note_on_c, 0, 48, 93
1, 276247, Note_on_c, 0, 84, 93
1, 276272, Note_off_c, 0, 60, 64
1, 276272, Note_off_c, 0, 84, 64
1, 276275, Note_off_c, 0, 48, 66
1, 276275, Note_off_c, 0, 72, 67
1, 276349, Control_c, 0, 64, 107
1, 276364, Control_c, 0, 64, 75
1, 276370, Note_on_c, 0, 73, 101
1, 276374, Note_on_c, 0, 77, 93
1, 276377, Note_on_c, 0, 80, 83
1, 276377, Note_on_c, 0, 85, 89
1, 276379, Control_c, 0, 64, 0
1, 276414, Note_off_c, 0, 73, 64
1, 276423, Control_c, 0, 64, 73
1, 276427, Note_off_c, 0, 77, 63
1, 276438, Control_c, 0, 64, 95
1, 276444, Note_on_c, 0, 56, 27
1, 276448, Note_off_c, 0, 80, 64
1, 276453, Control_c, 0, 64, 127
1, 276454, Note_off_c, 0, 85, 65
1, 276488, Note_off_c, 0, 56, 0
1, 276499, Note_on_c, 0, 61, 99
1, 276501, Note_on_c, 0, 56, 58
1, 276506, Note_on_c, 0, 53, 41
1, 276509, Note_on_c, 0, 49, 79
1, 276552, Note_off_c, 0, 61, 64
1, 276559, Note_off_c, 0, 53, 66
1, 276561, Note_off_c, 0, 56, 62
1, 276567, Note_off_c, 0, 49, 62
1, 276631, Note_on_c, 0, 77, 101
1, 276631, Note_on_c, 0, 89, 93
1, 276633, Note_on_c, 0, 80, 95
1, 276647, Note_on_c, 0, 85, 73
1, 276663, Note_off_c, 0, 77, 60
1, 276671, Note_on_c, 0, 87, 29
1, 276680, Note_off_c, 0, 89, 67
1, 276682, Note_off_c, 0, 80, 64
1, 276702, Note_off_c, 0, 85, 64
1, 276703, Note_off_c, 0, 87, 33
1, 276736, Note_on_c, 0, 56, 45
1, 276740, Note_on_c, 0, 65, 86
1, 276749, Note_on_c, 0, 61, 77
1, 276754, Note_on_c, 0, 53, 70
1, 276761, Note_off_c, 0, 65, 74
1, 276770, Note_off_c, 0, 61, 68
1, 276785, Note_off_c, 0, 53, 68
1, 276800, Note_off_c, 0, 56, 64
1, 276875, Control_c, 0, 64, 94
1, 276880, Note_on_c, 0, 82, 95
1, 276880, Note_on_c, 0, 85, 85
1, 276880, Note_on_c, 0, 94, 98
1, 276887, Note_on_c, 0, 89, 64
1, 276890, Control_c, 0, 64, 56
1, 276905, Control_c, 0, 64, 0
1, 276906, Note_on_c, 0, 92, 56
1, 276930, Note_off_c, 0, 92, 40
1, 276935, Control_c, 0, 64, 69
1, 276950, Control_c, 0, 64, 86
1, 276965, Control_c, 0, 64, 110
1, 276980, Control_c, 0, 64, 127
1, 276989, Note_on_c, 0, 46, 101
1, 277000, Note_on_c, 0, 34, 84
1, 277006, Note_off_c, 0, 94, 61
1, 277024, Note_off_c, 0, 46, 63
1, 277046, Note_off_c, 0, 34, 62
1, 277118, Note_off_c, 0, 82, 57
1, 277124, Note_on_c, 0, 37, 105
1, 277136, Note_on_c, 0, 25, 85
1, 277157, Note_on_c, 0, 27, 46
1, 277164, Note_off_c, 0, 25, 65
1, 277176, Note_off_c, 0, 37, 65
1, 277184, Note_off_c, 0, 85, 36
1, 277194, Note_off_c, 0, 27, 50
1, 277217, Note_off_c, 0, 89, 33
1, 277234, Note_on_c, 0, 92, 85
1, 277236, Note_on_c, 0, 80, 89
1, 277283, Note_off_c, 0, 80, 64
1, 277286, Note_off_c, 0, 92, 64
1, 277298, Control_c, 0, 64, 113
1, 277312, Control_c, 0, 64, 84
1, 277327, Control_c, 0, 64, 0
1, 277371, Note_on_c, 0, 54, 94
1, 277372, Note_on_c, 0, 78, 103
1, 277372, Control_c, 0, 64, 34
1, 277375, Note_on_c, 0, 90, 95
1, 277375, Note_on_c, 0, 85, 88
1, 277377, Note_on_c, 0, 82, 85
1, 277377, Note_on_c, 0, 46, 77
1, 277378, Note_on_c, 0, 42, 75
1, 277380, Note_on_c, 0, 49, 73
1, 277386, Control_c, 0, 64, 77
1, 277395, Note_off_c, 0, 82, 70
1, 277401, Control_c, 0, 64, 99
1, 277406, Note_off_c, 0, 54, 64
1, 277407, Note_off_c, 0, 49, 66
1, 277413, Note_off_c, 0, 46, 62
1, 277415, Note_off_c, 0, 78, 62
1, 277416, Control_c, 0, 64, 124
1, 277427, Note_on_c, 0, 53, 13
1, 277428, Note_off_c, 0, 90, 65
1, 277428, Note_off_c, 0, 85, 62
1, 277431, Control_c, 0, 64, 127
1, 277442, Note_off_c, 0, 42, 62
1, 277474, Note_off_c, 0, 53, 36
1, 277502, Note_on_c, 0, 53, 63
1, 277502, Note_on_c, 0, 77, 84
1, 277505, Note_on_c, 0, 89, 79
1, 277524, Note_on_c, 0, 41, 61
1, 277535, Note_off_c, 0, 53, 68
1, 277544, Note_off_c, 0, 89, 64
1, 277546, Note_off_c, 0, 77, 61
1, 277550, Note_off_c, 0, 41, 62
1, 277609, Control_c, 0, 64, 122
1, 277622, Note_on_c, 0, 52, 84
1, 277622, Note_on_c, 0, 88, 78
1, 277624, Note_on_c, 0, 76, 93
1, 277624, Control_c, 0, 64, 104
1, 277634, Note_on_c, 0, 40, 76
1, 277638, Control_c, 0, 64, 85
1, 277651, Note_off_c, 0, 52, 66
1, 277652, Note_off_c, 0, 76, 68
1, 277653, Control_c, 0, 64, 0
1, 277658, Note_off_c, 0, 88, 63
1, 277662, Note_off_c, 0, 40, 65
1, 277740, Note_on_c, 0, 51, 99
1, 277741, Note_on_c, 0, 75, 100
1, 277743, Control_c, 0, 64, 75
1, 277744, Note_on_c, 0, 82, 89
1, 277744, Note_on_c, 0, 87, 96
1, 277747, Note_on_c, 0, 78, 86
1, 277750, Note_on_c, 0, 39, 80
1, 277750, Note_on_c, 0, 46, 82
1, 277753, Note_on_c, 0, 42, 77
1, 277758, Control_c, 0, 64, 88
1, 277769, Note_on_c, 0, 85, 54
1, 277773, Control_c, 0, 64, 102
1, 277777, Note_off_c, 0, 78, 49
1, 277786, Note_off_c, 0, 75, 62
1, 277787, Control_c, 0, 64, 111
1, 277789, Note_off_c, 0, 51, 61
1, 277790, Note_off_c, 0, 46, 56
1, 277790, Note_off_c, 0, 87, 65
1, 277791, Note_off_c, 0, 85, 59
1, 277802, Control_c, 0, 64, 119
1, 277807, Note_off_c, 0, 82, 60
1, 277813, Note_off_c, 0, 39, 61
1, 277815, Note_off_c, 0, 42, 62
1, 277817, Control_c, 0, 64, 127
1, 277877, Note_on_c, 0, 74, 90
1, 277878, Note_on_c, 0, 50, 87
1, 277878, Note_on_c, 0, 86, 86
1, 277884, Note_on_c, 0, 38, 77
1, 277911, Note_off_c, 0, 50, 64
1, 277914, Note_off_c, 0, 38, 64
1, 277915, Note_off_c, 0, 74, 68
1, 277916, Note_off_c, 0, 86, 65
1, 277965, Control_c, 0, 64, 110
1, 277980, Control_c, 0, 64, 79
1, 277990, Note_on_c, 0, 73, 105
1, 277993, Note_on_c, 0, 49, 92
1, 277995, Control_c, 0, 64, 0
1, 277998, Note_on_c, 0, 46, 83
1, 277998, Note_on_c, 0, 85, 84
1, 277999, Note_on_c, 0, 82, 84
1, 278004, Note_on_c, 0, 78, 75
1, 278012, Note_on_c, 0, 42, 62
1, 278015, Note_on_c, 0, 37, 71
1, 278032, Control_c, 0, 64, 64
1, 278034, Note_off_c, 0, 46, 59
1, 278041, Note_off_c, 0, 73, 59
1, 278042, Note_off_c, 0, 49, 60
1, 278045, Note_off_c, 0, 78, 53
1, 278047, Control_c, 0, 64, 85
1, 278058, Note_off_c, 0, 42, 50
1, 278058, Note_off_c, 0, 85, 65
1, 278060, Note_off_c, 0, 37, 67
1, 278061, Control_c, 0, 64, 108
1, 278070, Note_off_c, 0, 82, 61
1, 278076, Control_c, 0, 64, 127
1, 278108, Poly_aftertouch_c, 0, 48, 0
1, 278112, Poly_aftertouch_c, 0, 39, 0
1, 278120, Note_on_c, 0, 48, 61
1, 278134, Note_on_c, 0, 84, 95
1, 278139, Note_on_c, 0, 74, 73
1, 278141, Note_on_c, 0, 72, 82
1, 278146, Note_on_c, 0, 36, 59
1, 278161, Note_off_c, 0, 72, 72
1, 278165, Note_off_c, 0, 48, 66
1, 278165, Note_off_c, 0, 74, 68
1, 278169, Note_off_c, 0, 84, 68
1, 278173, Note_off_c, 0, 36, 58
1, 278239, Note_on_c, 0, 46, 93
1, 278240, Note_on_c, 0, 49, 82
1, 278243, Note_on_c, 0, 73, 94
1, 278248, Note_on_c, 0, 85, 87
1, 278248, Note_on_c, 0, 78, 82
1, 278254, Note_on_c, 0, 82, 71
1, 278272, Note_off_c, 0, 78, 60
1, 278281, Note_on_c, 0, 39, 22
1, 278284, Note_on_c, 0, 37, 38
1, 278286, Note_off_c, 0, 73, 61
1, 278288, Note_off_c, 0, 49, 52
1, 278296, Note_off_c, 0, 85, 63
1, 278302, Note_off_c, 0, 46, 61
1, 278308, Note_off_c, 0, 82, 59
1, 278311, Note_off_c, 0, 37, 52
1, 278316, Note_off_c, 0, 39, 40
1, 278343, Control_c, 0, 64, 105
1, 278358, Control_c, 0, 64, 74
1, 278369, Note_on_c, 0, 73, 101
1, 278373, Control_c, 0, 64, 0
1, 278376, Note_on_c, 0, 77, 87
1, 278377, Note_on_c, 0, 85, 87
1, 278378, Note_on_c, 0, 80, 84
1, 278405, Note_off_c, 0, 73, 60
1, 278418, Control_c, 0, 64, 69
1, 278424, Note_off_c, 0, 77, 57
1, 278433, Control_c, 0, 64, 90
1, 278443, Note_off_c, 0, 80, 63
1, 278448, Control_c, 0, 64, 114
1, 278448, Note_off_c, 0, 85, 64
1, 278462, Control_c, 0, 64, 127
1, 278485, Note_on_c, 0, 49, 100
1, 278492, Note_on_c, 0, 44, 83
1, 278494, Note_on_c, 0, 41, 71
1, 278497, Note_on_c, 0, 37, 73
1, 278528, Note_off_c, 0, 49, 63
1, 278540, Note_off_c, 0, 37, 65
1, 278543, Note_off_c, 0, 41, 65
1, 278548, Note_off_c, 0, 44, 62
1, 278612, Note_on_c, 0, 77, 98
1, 278614, Note_on_c, 0, 89, 97
1, 278616, Note_on_c, 0, 80, 97
1, 278622, Note_on_c, 0, 85, 81
1, 278644, Note_off_c, 0, 77, 57
1, 278653, Note_on_c, 0, 87, 8
1, 278670, Note_off_c, 0, 89, 63
1, 278677, Note_off_c, 0, 80, 60
1, 278683, Note_off_c, 0, 85, 61
1, 278697, Note_off_c, 0, 87, 28
1, 278733, Note_on_c, 0, 53, 93
1, 278740, Note_on_c, 0, 49, 85
1, 278748, Note_on_c, 0, 41, 67
1, 278751, Note_on_c, 0, 44, 73
1, 278771, Note_off_c, 0, 53, 67
1, 278793, Note_off_c, 0, 49, 59
1, 278795, Note_off_c, 0, 41, 63
1, 278809, Note_off_c, 0, 44, 64
1, 278841, Control_c, 0, 64, 113
1, 278856, Control_c, 0, 64, 81
1, 278862, Note_on_c, 0, 82, 93
1, 278868, Note_on_c, 0, 85, 93
1, 278868, Note_on_c, 0, 94, 100
1, 278871, Control_c, 0, 64, 0
1, 278881, Poly_aftertouch_c, 0, 89, 127
1, 278915, Control_c, 0, 64, 66
1, 278930, Control_c, 0, 64, 83
1, 278944, Control_c, 0, 64, 104
1, 278959, Control_c, 0, 64, 119
1, 278974, Control_c, 0, 64, 119
1, 278984, Note_on_c, 0, 46, 95
1, 278987, Note_on_c, 0, 34, 61
1, 278989, Control_c, 0, 64, 121
1, 278992, Note_off_c, 0, 94, 62
1, 279003, Control_c, 0, 64, 124
1, 279017, Note_off_c, 0, 46, 64
1, 279018, Control_c, 0, 64, 127
1, 279048, Note_off_c, 0, 34, 62
1, 279101, Note_off_c, 0, 82, 60
1, 279115, Note_on_c, 0, 37, 102
1, 279127, Note_on_c, 0, 25, 85
1, 279145, Note_on_c, 0, 27, 50
1, 279146, Note_off_c, 0, 27, 127
1, 279150, Note_off_c, 0, 85, 55
1, 279162, Note_off_c, 0, 25, 65
1, 279172, Note_off_c, 0, 37, 65
1, 279184, Poly_aftertouch_c, 0, 27, 0
1, 279212, Poly_aftertouch_c, 0, 89, 0
1, 279230, Note_on_c, 0, 92, 80
1, 279235, Note_on_c, 0, 80, 91
1, 279268, Note_off_c, 0, 80, 60
1, 279276, Note_off_c, 0, 92, 66
1, 279277, Note_on_c, 0, 90, 19
1, 279278, Note_off_c, 0, 90, 127
1, 279300, Control_c, 0, 64, 103
1, 279315, Control_c, 0, 64, 76
1, 279330, Control_c, 0, 64, 0
1, 279354, Note_on_c, 0, 54, 92
1, 279360, Note_on_c, 0, 78, 95
1, 279364, Note_on_c, 0, 46, 74
1, 279364, Note_on_c, 0, 85, 89
1, 279366, Note_on_c, 0, 82, 81
1, 279366, Note_on_c, 0, 90, 87
1, 279367, Note_on_c, 0, 49, 69
1, 279371, Note_on_c, 0, 42, 63
1, 279375, Control_c, 0, 64, 62
1, 279390, Control_c, 0, 64, 82
1, 279391, Note_off_c, 0, 82, 59
1, 279396, Note_off_c, 0, 78, 60
1, 279399, Note_off_c, 0, 49, 61
1, 279402, Note_off_c, 0, 54, 61
1, 279405, Note_off_c, 0, 46, 63
1, 279405, Control_c, 0, 64, 103
1, 279418, Note_off_c, 0, 85, 61
1, 279418, Note_off_c, 0, 90, 64
1, 279419, Note_off_c, 0, 42, 61
1, 279419, Control_c, 0, 64, 118
1, 279434, Control_c, 0, 64, 119
1, 279449, Control_c, 0, 64, 121
1, 279464, Control_c, 0, 64, 125
1, 279479, Control_c, 0, 64, 127
1, 279482, Note_on_c, 0, 77, 87
1, 279482, Note_on_c, 0, 89, 86
1, 279484, Note_on_c, 0, 53, 82
1, 279497, Note_on_c, 0, 41, 77
1, 279523, Note_off_c, 0, 89, 67
1, 279525, Note_off_c, 0, 77, 65
1, 279538, Note_off_c, 0, 41, 66
1, 279538, Note_off_c, 0, 53, 65
1, 279613, Note_on_c, 0, 51, 87
1, 279613, Note_on_c, 0, 75, 95
1, 279616, Note_on_c, 0, 87, 87
1, 279623, Note_on_c, 0, 39, 75
1, 279647, Note_off_c, 0, 51, 59
1, 279649, Note_off_c, 0, 87, 57
1, 279653, Note_off_c, 0, 75, 62
1, 279671, Note_off_c, 0, 39, 56
1, 279733, Note_on_c, 0, 73, 94
1, 279739, Note_on_c, 0, 37, 80
1, 279740, Note_on_c, 0, 49, 86
1, 279740, Note_on_c, 0, 85, 92
1, 279768, Note_off_c, 0, 73, 63
1, 279775, Note_off_c, 0, 37, 66
1, 279778, Note_off_c, 0, 49, 61
1, 279779, Note_off_c, 0, 85, 65
1, 279797, Control_c, 0, 64, 109
1, 279812, Control_c, 0, 64, 83
1, 279827, Control_c, 0, 64, 0
1, 279862, Note_on_c, 0, 78, 101
1, 279867, Note_on_c, 0, 54, 95
1, 279867, Note_on_c, 0, 82, 83
1, 279870, Note_on_c, 0, 90, 95
1, 279871, Control_c, 0, 64, 59
1, 279874, Note_on_c, 0, 85, 77
1, 279880, Note_on_c, 0, 42, 71
1, 279881, Note_on_c, 0, 46, 78
1, 279881, Note_on_c, 0, 49, 69
1, 279886, Note_on_c, 0, 87, 49
1, 279887, Note_off_c, 0, 87, 127
1, 279887, Note_off_c, 0, 82, 70
1, 279887, Control_c, 0, 64, 81
1, 279889, Note_off_c, 0, 78, 64
1, 279894, Note_off_c, 0, 85, 72
1, 279900, Control_c, 0, 64, 103
1, 279910, Note_off_c, 0, 49, 65
1, 279911, Note_off_c, 0, 54, 60
1, 279912, Note_off_c, 0, 90, 63
1, 279915, Control_c, 0, 64, 120
1, 279919, Note_off_c, 0, 46, 62
1, 279927, Note_off_c, 0, 42, 62
1, 279930, Control_c, 0, 64, 120
1, 279945, Control_c, 0, 64, 121
1, 279959, Control_c, 0, 64, 123
1, 279974, Control_c, 0, 64, 126
1, 279989, Control_c, 0, 64, 127
1, 279994, Note_on_c, 0, 53, 94
1, 280010, Note_on_c, 0, 41, 79
1, 280042, Note_off_c, 0, 53, 66
1, 280042, Note_off_c, 0, 41, 69
1, 280120, Note_on_c, 0, 82, 78
1, 280126, Note_on_c, 0, 90, 67
1, 280126, Note_on_c, 0, 94, 94
1, 280127, Note_on_c, 0, 51, 93
1, 280127, Note_on_c, 0, 85, 92
1, 280138, Note_on_c, 0, 39, 75
1, 280144, Note_off_c, 0, 85, 69
1, 280150, Note_on_c, 0, 92, 49
1, 280162, Note_off_c, 0, 82, 65
1, 280163, Note_off_c, 0, 94, 65
1, 280168, Note_off_c, 0, 51, 63
1, 280173, Note_off_c, 0, 92, 56
1, 280174, Note_off_c, 0, 90, 63
1, 280177, Note_off_c, 0, 39, 57
1, 280216, Poly_aftertouch_c, 0, 44, 127
1, 280251, Note_on_c, 0, 49, 93
1, 280251, Poly_aftertouch_c, 0, 44, 0
1, 280255, Note_on_c, 0, 37, 78
1, 280291, Note_off_c, 0, 37, 66
1, 280291, Note_off_c, 0, 49, 63
1, 280368, Control_c, 0, 64, 125
1, 280382, Control_c, 0, 64, 106
1, 280391, Note_on_c, 0, 73, 91
1, 280396, Note_on_c, 0, 85, 84
1, 280397, Note_on_c, 0, 77, 81
1, 280397, Control_c, 0, 64, 89
1, 280400, Note_on_c, 0, 60, 91
1, 280400, Note_on_c, 0, 80, 75
1, 280406, Note_on_c, 0, 48, 84
1, 280410, Note_off_c, 0, 73, 71
1, 280412, Note_on_c, 0, 56, 79
1, 280412, Control_c, 0, 64, 71
1, 280418, Note_off_c, 0, 77, 68
1, 280427, Control_c, 0, 64, 0
1, 280431, Note_off_c, 0, 56, 67
1, 280434, Note_off_c, 0, 80, 65
1, 280435, Note_off_c, 0, 60, 61
1, 280439, Note_off_c, 0, 48, 67
1, 280449, Note_off_c, 0, 85, 66
1, 280544, Note_on_c, 0, 61, 88
1, 280552, Note_on_c, 0, 49, 77
1, 280573, Note_off_c, 0, 61, 66
1, 280597, Note_off_c, 0, 49, 62
1, 280650, Control_c, 0, 64, 66
1, 280661, Note_on_c, 0, 77, 93
1, 280662, Note_on_c, 0, 80, 93
1, 280664, Note_on_c, 0, 59, 96
1, 280664, Control_c, 0, 64, 78
1, 280666, Note_on_c, 0, 89, 91
1, 280671, Note_on_c, 0, 56, 82
1, 280672, Note_on_c, 0, 85, 81
1, 280674, Note_on_c, 0, 47, 81
1, 280679, Control_c, 0, 64, 89
1, 280689, Note_on_c, 0, 87, 55
1, 280691, Note_off_c, 0, 77, 63
1, 280694, Control_c, 0, 64, 98
1, 280704, Note_off_c, 0, 80, 66
1, 280707, Note_off_c, 0, 89, 65
1, 280709, Control_c, 0, 64, 103
1, 280710, Note_off_c, 0, 87, 53
1, 280716, Note_off_c, 0, 59, 60
1, 280721, Note_off_c, 0, 47, 62
1, 280721, Note_off_c, 0, 85, 62
1, 280724, Control_c, 0, 64, 107
1, 280728, Note_off_c, 0, 56, 61
1, 280738, Control_c, 0, 64, 112
1, 280753, Control_c, 0, 64, 115
1, 280768, Control_c, 0, 64, 117
1, 280782, Control_c, 0, 64, 119
1, 280797, Control_c, 0, 64, 123
1, 280812, Control_c, 0, 64, 127
1, 280838, Note_on_c, 0, 61, 85
1, 280846, Note_on_c, 0, 49, 70
1, 280866, Note_off_c, 0, 61, 63
1, 280880, Note_off_c, 0, 49, 65
1, 280915, Note_on_c, 0, 82, 96
1, 280918, Note_on_c, 0, 94, 93
1, 280925, Note_on_c, 0, 89, 57
1, 280932, Note_on_c, 0, 85, 56
1, 280932, Control_c, 0, 64, 116
1, 280934, Note_on_c, 0, 60, 90
1, 280936, Note_on_c, 0, 48, 84
1, 280946, Control_c, 0, 64, 103
1, 280950, Note_on_c, 0, 92, 53
1, 280952, Note_on_c, 0, 56, 72
1, 280955, Note_on_c, 0, 86, 59
1, 280961, Control_c, 0, 64, 90
1, 280969, Note_off_c, 0, 48, 65
1, 280972, Note_off_c, 0, 60, 62
1, 280976, Control_c, 0, 64, 75
1, 280980, Note_off_c, 0, 85, 0
1, 280980, Note_on_c, 0, 85, 15
1, 280991, Control_c, 0, 64, 0
1, 280992, Note_off_c, 0, 92, 44
1, 280999, Note_off_c, 0, 56, 50
1, 281059, Note_off_c, 0, 94, 59
1, 281070, Note_on_c, 0, 61, 86
1, 281091, Note_on_c, 0, 49, 54
1, 281095, Note_off_c, 0, 61, 65
1, 281121, Note_off_c, 0, 49, 64
1, 281146, Note_off_c, 0, 86, 30
1, 281200, Note_on_c, 0, 59, 91
1, 281202, Note_on_c, 0, 56, 77
1, 281205, Control_c, 0, 64, 71
1, 281206, Note_on_c, 0, 53, 66
1, 281212, Note_on_c, 0, 47, 80
1, 281217, Note_off_c, 0, 82, 57
1, 281220, Control_c, 0, 64, 85
1, 281222, Note_off_c, 0, 59, 68
1, 281226, Note_off_c, 0, 56, 69
1, 281235, Note_off_c, 0, 85, 41
1, 281235, Control_c, 0, 64, 96
1, 281241, Note_off_c, 0, 53, 68
1, 281250, Control_c, 0, 64, 100
1, 281260, Note_off_c, 0, 47, 64
1, 281265, Control_c, 0, 64, 103
1, 281280, Control_c, 0, 64, 107
1, 281283, Poly_aftertouch_c, 0, 48, 127
1, 281294, Control_c, 0, 64, 112
1, 281309, Control_c, 0, 64, 119
1, 281315, Poly_aftertouch_c, 0, 48, 0
1, 281318, Note_off_c, 0, 89, 52
1, 281324, Control_c, 0, 64, 126
1, 281327, Note_on_c, 0, 92, 85
1, 281329, Note_on_c, 0, 80, 93
1, 281339, Note_on_c, 0, 37, 92
1, 281339, Control_c, 0, 64, 127
1, 281350, Note_on_c, 0, 90, 55
1, 281351, Note_on_c, 0, 25, 70
1, 281361, Note_off_c, 0, 80, 60
1, 281365, Note_off_c, 0, 37, 71
1, 281372, Note_off_c, 0, 92, 64
1, 281374, Note_off_c, 0, 90, 40
1, 281384, Note_off_c, 0, 25, 55
1, 281428, Control_c, 0, 64, 127
1, 281443, Control_c, 0, 64, 117
1, 281457, Note_on_c, 0, 90, 91
1, 281458, Control_c, 0, 64, 106
1, 281458, Note_on_c, 0, 78, 96
1, 281461, Note_on_c, 0, 85, 82
1, 281473, Control_c, 0, 64, 94
1, 281476, Note_off_c, 0, 78, 69
1, 281480, Note_off_c, 0, 85, 70
1, 281482, Note_on_c, 0, 60, 92
1, 281482, Note_on_c, 0, 82, 50
1, 281487, Control_c, 0, 64, 81
1, 281500, Note_on_c, 0, 58, 57
1, 281501, Note_off_c, 0, 90, 65
1, 281502, Control_c, 0, 64, 67
1, 281503, Note_off_c, 0, 60, 67
1, 281504, Note_on_c, 0, 54, 50
1, 281508, Note_off_c, 0, 82, 55
1, 281517, Control_c, 0, 64, 0
1, 281522, Note_off_c, 0, 58, 58
1, 281527, Note_on_c, 0, 50, 15
1, 281530, Note_off_c, 0, 54, 56
1, 281572, Note_off_c, 0, 50, 35
1, 281590, Note_on_c, 0, 89, 81
1, 281594, Note_on_c, 0, 77, 83
1, 281607, Note_on_c, 0, 61, 84
1, 281621, Note_off_c, 0, 77, 62
1, 281625, Note_on_c, 0, 49, 63
1, 281628, Note_off_c, 0, 89, 65
1, 281631, Note_off_c, 0, 61, 67
1, 281647, Note_off_c, 0, 49, 62
1, 281709, Note_on_c, 0, 58, 102
1, 281710, Control_c, 0, 64, 72
1, 281716, Note_on_c, 0, 88, 93
1, 281718, Note_on_c, 0, 49, 77
1, 281718, Note_on_c, 0, 76, 95
1, 281723, Note_on_c, 0, 82, 87
1, 281725, Note_on_c, 0, 46, 78
1, 281725, Control_c, 0, 64, 84
1, 281727, Note_on_c, 0, 54, 75
1, 281740, Control_c, 0, 64, 94
1, 281755, Note_off_c, 0, 54, 65
1, 281755, Control_c, 0, 64, 100
1, 281759, Note_off_c, 0, 58, 59
1, 281761, Note_off_c, 0, 76, 67
1, 281766, Note_off_c, 0, 88, 63
1, 281777, Control_c, 0, 64, 105
1, 281786, Note_off_c, 0, 46, 60
1, 281792, Control_c, 0, 64, 109
1, 281796, Note_off_c, 0, 49, 60
1, 281807, Control_c, 0, 64, 112
1, 281822, Control_c, 0, 64, 114
1, 281836, Note_off_c, 0, 82, 61
1, 281836, Control_c, 0, 64, 118
1, 281851, Control_c, 0, 64, 127
1, 281865, Note_on_c, 0, 75, 83
1, 281880, Note_on_c, 0, 87, 68
1, 281888, Note_on_c, 0, 61, 77
1, 281888, Note_on_c, 0, 49, 75
1, 281909, Note_off_c, 0, 61, 66
1, 281909, Note_off_c, 0, 75, 63
1, 281909, Note_off_c, 0, 87, 65
1, 281910, Note_off_c, 0, 49, 68
1, 281970, Poly_aftertouch_c, 0, 84, 0
1, 281980, Note_on_c, 0, 74, 88
1, 281983, Note_on_c, 0, 86, 84
1, 281984, Note_on_c, 0, 60, 89
1, 281989, Note_on_c, 0, 78, 84
1, 281997, Note_on_c, 0, 58, 76
1, 281999, Control_c, 0, 64, 105
1, 282004, Note_on_c, 0, 54, 62
1, 282012, Note_off_c, 0, 78, 68
1, 282013, Note_off_c, 0, 60, 60
1, 282014, Control_c, 0, 64, 89
1, 282019, Note_off_c, 0, 58, 66
1, 282019, Note_off_c, 0, 74, 65
1, 282022, Note_off_c, 0, 86, 64
1, 282028, Control_c, 0, 64, 73
1, 282034, Note_off_c, 0, 54, 63
1, 282043, Control_c, 0, 64, 0
1, 282120, Note_on_c, 0, 85, 85
1, 282132, Note_on_c, 0, 61, 76
1, 282137, Note_on_c, 0, 73, 64
1, 282141, Note_off_c, 0, 85, 68
1, 282153, Note_off_c, 0, 73, 64
1, 282156, Note_off_c, 0, 61, 67
1, 282251, Control_c, 0, 64, 66
1, 282254, Note_on_c, 0, 70, 96
1, 282256, Note_on_c, 0, 82, 90
1, 282262, Note_on_c, 0, 58, 64
1, 282266, Control_c, 0, 64, 80
1, 282266, Note_on_c, 0, 49, 44
1, 282280, Note_on_c, 0, 80, 59
1, 282281, Note_off_c, 0, 58, 64
1, 282281, Control_c, 0, 64, 90
1, 282291, Note_on_c, 0, 54, 27
1, 282292, Note_on_c, 0, 51, 25
1, 282296, Note_off_c, 0, 49, 62
1, 282296, Control_c, 0, 64, 95
1, 282296, Note_off_c, 0, 70, 62
1, 282299, Note_off_c, 0, 80, 64
1, 282310, Control_c, 0, 64, 97
1, 282311, Note_on_c, 0, 47, 5
1, 282325, Control_c, 0, 64, 99
1, 282331, Note_off_c, 0, 54, 40
1, 282331, Poly_aftertouch_c, 0, 59, 127
1, 282332, Note_off_c, 0, 51, 39
1, 282340, Control_c, 0, 64, 102
1, 282354, Control_c, 0, 64, 107
1, 282359, Note_off_c, 0, 47, 54
1, 282367, Poly_aftertouch_c, 0, 59, 0
1, 282369, Control_c, 0, 64, 112
1, 282382, Note_on_c, 0, 78, 84
1, 282384, Control_c, 0, 64, 118
1, 282390, Note_on_c, 0, 37, 90
1, 282399, Control_c, 0, 64, 120
1, 282409, Note_on_c, 0, 27, 65
1, 282412, Note_on_c, 0, 25, 52
1, 282413, Note_off_c, 0, 25, 127
1, 282414, Control_c, 0, 64, 121
1, 282415, Note_off_c, 0, 82, 62
1, 282415, Note_off_c, 0, 37, 67
1, 282428, Control_c, 0, 64, 122
1, 282433, Note_off_c, 0, 78, 61
1, 282437, Note_off_c, 0, 27, 56
1, 282443, Control_c, 0, 64, 123
1, 282452, Poly_aftertouch_c, 0, 25, 0
1, 282458, Control_c, 0, 64, 124
1, 282488, Control_c, 0, 64, 123
1, 282504, Control_c, 0, 64, 120
1, 282519, Control_c, 0, 64, 110
1, 282520, Note_on_c, 0, 73, 92
1, 282523, Note_on_c, 0, 85, 88
1, 282523, Note_on_c, 0, 77, 84
1, 282538, Note_on_c, 0, 60, 95
1, 282539, Note_on_c, 0, 80, 74
1, 282540, Control_c, 0, 64, 95
1, 282542, Note_off_c, 0, 73, 73
1, 282548, Note_off_c, 0, 77, 72
1, 282550, Note_on_c, 0, 56, 67
1, 282551, Note_off_c, 0, 56, 127
1, 282552, Note_off_c, 0, 85, 58
1, 282555, Control_c, 0, 64, 81
1, 282558, Note_off_c, 0, 60, 69
1, 282562, Note_off_c, 0, 80, 70
1, 282565, Note_on_c, 0, 48, 49
1, 282565, Note_on_c, 0, 53, 48
1, 282570, Control_c, 0, 64, 64
1, 282573, Note_on_c, 0, 52, 44
1, 282585, Control_c, 0, 64, 0
1, 282593, Note_off_c, 0, 48, 58
1, 282603, Note_off_c, 0, 52, 46
1, 282611, Note_off_c, 0, 53, 43
1, 282671, Note_on_c, 0, 61, 92
1, 282677, Note_on_c, 0, 49, 69
1, 282708, Note_off_c, 0, 49, 67
1, 282708, Note_off_c, 0, 61, 62
1, 282792, Control_c, 0, 64, 73
1, 282797, Note_on_c, 0, 65, 98
1, 282797, Note_on_c, 0, 77, 98
1, 282799, Note_on_c, 0, 89, 91
1, 282800, Note_on_c, 0, 80, 91
1, 282804, Note_on_c, 0, 85, 74
1, 282806, Note_on_c, 0, 53, 80
1, 282807, Control_c, 0, 64, 85
1, 282813, Note_on_c, 0, 56, 77
1, 282818, Note_on_c, 0, 59, 51
1, 282822, Control_c, 0, 64, 98
1, 282832, Note_off_c, 0, 77, 60
1, 282835, Note_on_c, 0, 87, 43
1, 282837, Control_c, 0, 64, 103
1, 282840, Note_off_c, 0, 59, 60
1, 282841, Note_off_c, 0, 80, 66
1, 282844, Note_off_c, 0, 65, 66
1, 282848, Note_off_c, 0, 89, 65
1, 282850, Note_off_c, 0, 85, 65
1, 282851, Note_off_c, 0, 53, 66
1, 282851, Control_c, 0, 64, 109
1, 282861, Note_off_c, 0, 87, 36
1, 282865, Note_off_c, 0, 56, 64
1, 282866, Control_c, 0, 64, 114
1, 282881, Control_c, 0, 64, 119
1, 282896, Control_c, 0, 64, 121
1, 282911, Control_c, 0, 64, 125
1, 282925, Control_c, 0, 64, 127
1, 282972, Note_on_c, 0, 61, 83
1, 282979, Note_on_c, 0, 49, 70
1, 282997, Note_off_c, 0, 61, 64
1, 283013, Note_off_c, 0, 49, 65
1, 283047, Note_on_c, 0, 82, 98
1, 283050, Note_on_c, 0, 89, 58
1, 283050, Note_on_c, 0, 94, 98
1, 283053, Note_on_c, 0, 85, 87
1, 283071, Note_on_c, 0, 60, 87
1, 283095, Note_on_c, 0, 48, 43
1, 283103, Control_c, 0, 64, 117
1, 283106, Note_on_c, 0, 57, 45
1, 283111, Note_off_c, 0, 60, 63
1, 283118, Control_c, 0, 64, 106
1, 283128, Note_off_c, 0, 48, 53
1, 283133, Control_c, 0, 64, 96
1, 283134, Note_off_c, 0, 57, 52
1, 283148, Control_c, 0, 64, 84
1, 283163, Control_c, 0, 64, 70
1, 283177, Control_c, 0, 64, 0
1, 283208, Note_on_c, 0, 61, 86
1, 283208, Note_on_c, 0, 49, 78
1, 283211, Note_off_c, 0, 94, 55
1, 283249, Note_off_c, 0, 49, 62
1, 283249, Note_off_c, 0, 61, 63
1, 283304, Note_off_c, 0, 82, 60
1, 283319, Control_c, 0, 64, 70
1, 283334, Control_c, 0, 64, 85
1, 283338, Note_on_c, 0, 65, 102
1, 283347, Note_on_c, 0, 53, 87
1, 283349, Note_on_c, 0, 56, 82
1, 283349, Control_c, 0, 64, 100
1, 283362, Note_off_c, 0, 65, 69
1, 283363, Control_c, 0, 64, 110
1, 283368, Note_on_c, 0, 59, 40
1, 283377, Note_off_c, 0, 53, 67
1, 283378, Control_c, 0, 64, 116
1, 283387, Note_off_c, 0, 56, 63
1, 283393, Control_c, 0, 64, 125
1, 283398, Note_off_c, 0, 59, 53
1, 283399, Note_off_c, 0, 85, 55
1, 283408, Control_c, 0, 64, 127
1, 283444, Poly_aftertouch_c, 0, 60, 0
1, 283450, Note_off_c, 0, 89, 55
1, 283457, Note_on_c, 0, 92, 87
1, 283464, Note_on_c, 0, 80, 90
1, 283477, Note_on_c, 0, 37, 93
1, 283495, Note_on_c, 0, 27, 65
1, 283502, Note_off_c, 0, 37, 69
1, 283505, Note_off_c, 0, 80, 65
1, 283506, Note_off_c, 0, 92, 66
1, 283525, Note_off_c, 0, 27, 61
1, 283586, Control_c, 0, 64, 111
1, 283593, Note_on_c, 0, 78, 93
1, 283594, Note_on_c, 0, 85, 84
1, 283597, Poly_aftertouch_c, 0, 25, 0
1, 283600, Control_c, 0, 64, 95
1, 283602, Note_on_c, 0, 90, 83
1, 283608, Note_off_c, 0, 78, 72
1, 283614, Note_on_c, 0, 59, 83
1, 283615, Control_c, 0, 64, 80
1, 283617, Note_off_c, 0, 85, 62
1, 283625, Note_off_c, 0, 90, 67
1, 283630, Control_c, 0, 64, 63
1, 283639, Note_off_c, 0, 59, 66
1, 283645, Control_c, 0, 64, 0
1, 283724, Note_on_c, 0, 77, 91
1, 283724, Note_on_c, 0, 89, 84
1, 283724, Poly_aftertouch_c, 0, 54, 0
1, 283735, Note_on_c, 0, 61, 87
1, 283739, Note_on_c, 0, 49, 75
1, 283760, Note_off_c, 0, 77, 62
1, 283762, Note_off_c, 0, 89, 67
1, 283769, Note_off_c, 0, 61, 61
1, 283774, Note_off_c, 0, 49, 63
1, 283861, Note_on_c, 0, 66, 100
1, 283863, Note_on_c, 0, 76, 94
1, 283864, Note_on_c, 0, 88, 91
1, 283868, Note_on_c, 0, 82, 82
1, 283876, Note_on_c, 0, 58, 75
1, 283882, Control_c, 0, 64, 63
1, 283883, Note_on_c, 0, 54, 67
1, 283893, Note_on_c, 0, 61, 44
1, 283897, Control_c, 0, 64, 78
1, 283903, Note_off_c, 0, 66, 67
1, 283912, Control_c, 0, 64, 91
1, 283914, Note_off_c, 0, 76, 60
1, 283915, Note_off_c, 0, 58, 62
1, 283920, Note_off_c, 0, 61, 50
1, 283924, Note_off_c, 0, 54, 61
1, 283926, Control_c, 0, 64, 99
1, 283935, Note_off_c, 0, 88, 61
1, 283941, Control_c, 0, 64, 101
1, 283956, Control_c, 0, 64, 104
1, 283971, Control_c, 0, 64, 109
1, 283980, Note_off_c, 0, 82, 64
1, 283986, Control_c, 0, 64, 115
1, 284000, Control_c, 0, 64, 123
1, 284015, Control_c, 0, 64, 127
1, 284036, Note_on_c, 0, 75, 72
1, 284037, Note_on_c, 0, 87, 77
1, 284050, Note_on_c, 0, 61, 69
1, 284051, Note_on_c, 0, 49, 64
1, 284054, Note_off_c, 0, 75, 69
1, 284058, Note_off_c, 0, 87, 70
1, 284066, Note_on_c, 0, 85, 34
1, 284079, Note_off_c, 0, 61, 64
1, 284091, Note_off_c, 0, 49, 62
1, 284096, Note_off_c, 0, 85, 47
1, 284156, Note_on_c, 0, 74, 83
1, 284156, Note_on_c, 0, 60, 89
1, 284162, Note_on_c, 0, 88, 76
1, 284163, Note_on_c, 0, 48, 78
1, 284163, Note_on_c, 0, 86, 69
1, 284169, Note_on_c, 0, 78, 75
1, 284177, Note_off_c, 0, 74, 67
1, 284184, Note_off_c, 0, 88, 70
1, 284186, Note_off_c, 0, 78, 68
1, 284187, Note_off_c, 0, 86, 69
1, 284196, Note_off_c, 0, 60, 60
1, 284201, Note_on_c, 0, 76, 14
1, 284202, Note_off_c, 0, 76, 127
1, 284202, Note_off_c, 0, 48, 64
1, 284202, Control_c, 0, 64, 106
1, 284216, Control_c, 0, 64, 91
1, 284231, Control_c, 0, 64, 76
1, 284239, Poly_aftertouch_c, 0, 76, 0
1, 284245, Control_c, 0, 64, 59
1, 284260, Control_c, 0, 64, 0
1, 284285, Poly_aftertouch_c, 0, 55, 0
1, 284307, Note_on_c, 0, 61, 79
1, 284310, Note_on_c, 0, 49, 72
1, 284314, Note_on_c, 0, 73, 71
1, 284317, Note_on_c, 0, 85, 69
1, 284332, Note_off_c, 0, 73, 65
1, 284332, Note_off_c, 0, 61, 65
1, 284333, Note_off_c, 0, 85, 45
1, 284341, Note_off_c, 0, 49, 65
1, 284481, Note_on_c, 0, 66, 91
1, 284481, Note_on_c, 0, 70, 91
1, 284484, Note_on_c, 0, 82, 82
1, 284496, Note_on_c, 0, 54, 68
1, 284497, Note_on_c, 0, 58, 69
1, 284497, Control_c, 0, 64, 65
1, 284499, Note_on_c, 0, 61, 63
1, 284508, Note_on_c, 0, 80, 54
1, 284512, Control_c, 0, 64, 71
1, 284523, Note_off_c, 0, 70, 63
1, 284527, Control_c, 0, 64, 75
1, 284530, Note_off_c, 0, 61, 63
1, 284530, Note_off_c, 0, 80, 39
1, 284531, Note_off_c, 0, 66, 63
1, 284541, Note_off_c, 0, 58, 52
1, 284541, Control_c, 0, 64, 80
1, 284556, Control_c, 0, 64, 86
1, 284561, Note_off_c, 0, 54, 57
1, 284571, Control_c, 0, 64, 91
1, 284586, Control_c, 0, 64, 93
1, 284601, Control_c, 0, 64, 95
1, 284616, Control_c, 0, 64, 96
1, 284630, Control_c, 0, 64, 97
1, 284645, Control_c, 0, 64, 98
1, 284660, Control_c, 0, 64, 98
1, 284665, Note_off_c, 0, 82, 58
1, 284674, Note_on_c, 0, 78, 72
1, 284675, Control_c, 0, 64, 99
1, 284700, Note_off_c, 0, 78, 65
1, 284734, Control_c, 0, 64, 98
1, 284749, Control_c, 0, 64, 98
1, 284764, Control_c, 0, 64, 95
1, 284786, Control_c, 0, 64, 90
1, 284801, Control_c, 0, 64, 82
1, 284816, Control_c, 0, 64, 71
1, 284830, Control_c, 0, 64, 25
1, 284845, Control_c, 0, 64, 0
1, 284936, Note_on_c, 0, 61, 56
1, 284946, Note_on_c, 0, 84, 64
1, 284969, Note_off_c, 0, 61, 63
1, 284993, Note_off_c, 0, 84, 64
1, 285030, Note_on_c, 0, 85, 59
1, 285056, Note_off_c, 0, 85, 68
1, 285116, Note_on_c, 0, 85, 68
1, 285126, Note_on_c, 0, 73, 13
1, 285146, Note_off_c, 0, 85, 63
1, 285152, Note_off_c, 0, 73, 41
1, 285156, Note_on_c, 0, 97, 68
1, 285182, Note_off_c, 0, 97, 68
1, 285250, Note_on_c, 0, 83, 61
1, 285251, Note_on_c, 0, 68, 48
1, 285270, Note_on_c, 0, 67, 17
1, 285274, Note_off_c, 0, 68, 59
1, 285281, Note_off_c, 0, 83, 62
1, 285295, Note_on_c, 0, 85, 65
1, 285313, Note_off_c, 0, 67, 28
1, 285320, Note_off_c, 0, 85, 69
1, 285369, Note_on_c, 0, 85, 74
1, 285378, Note_on_c, 0, 77, 61
1, 285402, Note_off_c, 0, 77, 64
1, 285402, Note_off_c, 0, 85, 61
1, 285448, Note_on_c, 0, 97, 51
1, 285489, Note_on_c, 0, 96, 63
1, 285491, Note_on_c, 0, 73, 63
1, 285497, Note_on_c, 0, 71, 44
1, 285502, Note_off_c, 0, 97, 56
1, 285504, Note_on_c, 0, 93, 45
1, 285527, Note_off_c, 0, 73, 65
1, 285530, Note_off_c, 0, 71, 55
1, 285536, Note_off_c, 0, 93, 47
1, 285564, Note_on_c, 0, 89, 65
1, 285568, Note_off_c, 0, 96, 62
1, 285614, Note_off_c, 0, 89, 56
1, 285630, Note_on_c, 0, 94, 72
1, 285635, Note_on_c, 0, 97, 67
1, 285642, Note_on_c, 0, 82, 54
1, 285680, Note_off_c, 0, 94, 48
1, 285680, Note_off_c, 0, 97, 54
1, 285700, Note_on_c, 0, 89, 65
1, 285730, Note_off_c, 0, 89, 65
1, 285737, Note_off_c, 0, 82, 51
1, 285767, Note_on_c, 0, 95, 64
1, 285807, Note_off_c, 0, 95, 62
1, 285833, Note_on_c, 0, 89, 68
1, 285864, Note_off_c, 0, 89, 65
1, 285889, Note_on_c, 0, 80, 52
1, 285891, Note_on_c, 0, 68, 54
1, 285902, Note_on_c, 0, 87, 72
1, 285912, Note_off_c, 0, 80, 61
1, 285926, Note_off_c, 0, 68, 63
1, 285956, Note_on_c, 0, 86, 58
1, 285978, Note_off_c, 0, 87, 55
1, 286008, Note_off_c, 0, 86, 64
1, 286012, Note_on_c, 0, 66, 68
1, 286019, Note_on_c, 0, 84, 71
1, 286020, Note_on_c, 0, 78, 61
1, 286040, Note_off_c, 0, 78, 64
1, 286043, Note_off_c, 0, 84, 69
1, 286048, Note_off_c, 0, 66, 61
1, 286091, Note_on_c, 0, 85, 77
1, 286113, Note_off_c, 0, 85, 69
1, 286145, Note_on_c, 0, 77, 70
1, 286153, Note_on_c, 0, 85, 76
1, 286169, Note_on_c, 0, 67, 40
1, 286173, Note_off_c, 0, 77, 65
1, 286193, Note_off_c, 0, 85, 64
1, 286195, Note_on_c, 0, 97, 74
1, 286195, Note_off_c, 0, 67, 50
1, 286217, Note_off_c, 0, 97, 69
1, 286278, Note_on_c, 0, 83, 72
1, 286281, Note_on_c, 0, 76, 67
1, 286289, Note_on_c, 0, 68, 61
1, 286307, Note_off_c, 0, 76, 70
1, 286318, Note_off_c, 0, 83, 61
1, 286324, Note_off_c, 0, 68, 63
1, 286331, Note_on_c, 0, 85, 72
1, 286362, Note_off_c, 0, 85, 67
1, 286401, Note_on_c, 0, 85, 67
1, 286409, Note_on_c, 0, 75, 67
1, 286413, Note_on_c, 0, 69, 58
1, 286436, Note_off_c, 0, 75, 69
1, 286436, Note_off_c, 0, 69, 67
1, 286451, Note_off_c, 0, 85, 64
1, 286476, Note_on_c, 0, 97, 68
1, 286517, Note_on_c, 0, 96, 54
1, 286527, Note_on_c, 0, 74, 65
1, 286532, Note_on_c, 0, 93, 41
1, 286532, Note_on_c, 0, 70, 64
1, 286551, Note_off_c, 0, 97, 63
1, 286553, Note_off_c, 0, 74, 67
1, 286560, Note_off_c, 0, 93, 43
1, 286563, Note_off_c, 0, 70, 65
1, 286586, Note_on_c, 0, 90, 62
1, 286639, Note_off_c, 0, 90, 58
1, 286645, Note_on_c, 0, 94, 68
1, 286651, Note_off_c, 0, 96, 30
1, 286670, Note_on_c, 0, 66, 51
1, 286676, Note_on_c, 0, 73, 57
1, 286688, Note_off_c, 0, 94, 52
1, 286697, Note_off_c, 0, 66, 55
1, 286697, Note_off_c, 0, 73, 59
1, 286702, Note_on_c, 0, 90, 57
1, 286735, Note_off_c, 0, 90, 64
1, 286780, Note_on_c, 0, 70, 63
1, 286783, Note_on_c, 0, 94, 72
1, 286791, Note_on_c, 0, 89, 65
1, 286807, Note_off_c, 0, 70, 66
1, 286827, Note_off_c, 0, 94, 56
1, 286829, Note_off_c, 0, 89, 61
1, 286861, Note_on_c, 0, 88, 63
1, 286889, Note_off_c, 0, 88, 63
1, 286922, Note_on_c, 0, 87, 71
1, 286976, Note_on_c, 0, 86, 55
1, 287004, Note_off_c, 0, 87, 59
1, 287029, Note_off_c, 0, 86, 64
1, 287038, Note_on_c, 0, 61, 51
1, 287051, Note_on_c, 0, 84, 67
1, 287062, Note_off_c, 0, 61, 60
1, 287082, Note_off_c, 0, 84, 64
1, 287119, Note_on_c, 0, 85, 70
1, 287141, Note_off_c, 0, 85, 70
1, 287182, Note_on_c, 0, 73, 45
1, 287184, Note_on_c, 0, 85, 77
1, 287205, Note_off_c, 0, 73, 57
1, 287215, Note_off_c, 0, 85, 62
1, 287225, Note_on_c, 0, 97, 75
1, 287253, Note_off_c, 0, 97, 65
1, 287298, Note_on_c, 0, 68, 55
1, 287303, Note_on_c, 0, 67, 40
1, 287307, Note_on_c, 0, 83, 71
1, 287316, Note_off_c, 0, 68, 63
1, 287331, Note_off_c, 0, 67, 49
1, 287346, Note_off_c, 0, 83, 60
1, 287358, Note_on_c, 0, 85, 70
1, 287383, Note_off_c, 0, 85, 67
1, 287414, Note_on_c, 0, 77, 66
1, 287420, Note_on_c, 0, 85, 70
1, 287440, Note_off_c, 0, 77, 67
1, 287451, Note_off_c, 0, 85, 66
1, 287489, Note_on_c, 0, 97, 65
1, 287522, Note_on_c, 0, 96, 59
1, 287530, Note_on_c, 0, 73, 71
1, 287532, Note_on_c, 0, 71, 49
1, 287542, Note_on_c, 0, 93, 40
1, 287554, Note_off_c, 0, 71, 57
1, 287557, Note_off_c, 0, 73, 67
1, 287572, Note_off_c, 0, 93, 44
1, 287588, Note_on_c, 0, 89, 67
1, 287592, Note_off_c, 0, 97, 36
1, 287595, Note_off_c, 0, 96, 61
1, 287642, Note_off_c, 0, 89, 61
1, 287660, Note_on_c, 0, 82, 73
1, 287660, Note_on_c, 0, 94, 74
1, 287672, Note_on_c, 0, 97, 72
1, 287703, Note_off_c, 0, 97, 60
1, 287712, Note_off_c, 0, 94, 57
1, 287727, Note_on_c, 0, 89, 69
1, 287728, Control_c, 0, 64, 66
1, 287743, Control_c, 0, 64, 75
1, 287754, Note_off_c, 0, 89, 66
1, 287758, Control_c, 0, 64, 83
1, 287775, Note_off_c, 0, 82, 60
1, 287780, Control_c, 0, 64, 86
1, 287795, Control_c, 0, 64, 86
1, 287805, Note_on_c, 0, 95, 62
1, 287805, Note_on_c, 0, 92, 73
1, 287810, Control_c, 0, 64, 87
1, 287825, Control_c, 0, 64, 88
1, 287840, Control_c, 0, 64, 89
1, 287841, Note_off_c, 0, 92, 61
1, 287842, Note_off_c, 0, 95, 63
1, 287854, Control_c, 0, 64, 89
1, 287864, Note_on_c, 0, 89, 71
1, 287869, Control_c, 0, 64, 90
1, 287888, Note_off_c, 0, 89, 69
1, 287910, Note_on_c, 0, 80, 49
1, 287916, Note_on_c, 0, 68, 46
1, 287928, Control_c, 0, 64, 89
1, 287933, Note_off_c, 0, 80, 60
1, 287934, Note_on_c, 0, 87, 74
1, 287941, Note_off_c, 0, 68, 59
1, 287958, Control_c, 0, 64, 88
1, 287973, Note_on_c, 0, 86, 71
1, 287973, Control_c, 0, 64, 85
1, 287987, Control_c, 0, 64, 78
1, 288002, Control_c, 0, 64, 70
1, 288007, Note_off_c, 0, 87, 61
1, 288017, Control_c, 0, 64, 51
1, 288031, Note_off_c, 0, 86, 63
1, 288032, Control_c, 0, 64, 0
1, 288038, Note_on_c, 0, 66, 63
1, 288044, Note_on_c, 0, 84, 75
1, 288051, Note_on_c, 0, 78, 53
1, 288072, Note_off_c, 0, 78, 62
1, 288077, Note_off_c, 0, 84, 59
1, 288081, Note_off_c, 0, 66, 62
1, 288114, Note_on_c, 0, 85, 78
1, 288145, Note_off_c, 0, 85, 63
1, 288174, Poly_aftertouch_c, 0, 85, 0
1, 288179, Note_on_c, 0, 77, 70
1, 288182, Note_on_c, 0, 85, 70
1, 288191, Note_on_c, 0, 67, 54
1, 288205, Note_off_c, 0, 77, 65
1, 288211, Note_off_c, 0, 67, 62
1, 288216, Note_off_c, 0, 85, 55
1, 288220, Note_on_c, 0, 97, 80
1, 288261, Note_off_c, 0, 97, 64
1, 288298, Note_on_c, 0, 83, 72
1, 288302, Note_on_c, 0, 76, 74
1, 288311, Note_on_c, 0, 68, 71
1, 288335, Note_off_c, 0, 76, 65
1, 288341, Note_off_c, 0, 83, 61
1, 288344, Note_off_c, 0, 68, 62
1, 288345, Note_on_c, 0, 85, 74
1, 288380, Note_off_c, 0, 85, 67
1, 288419, Note_on_c, 0, 85, 72
1, 288429, Note_on_c, 0, 69, 67
1, 288433, Note_on_c, 0, 75, 66
1, 288456, Note_off_c, 0, 69, 70
1, 288458, Note_off_c, 0, 85, 63
1, 288462, Note_off_c, 0, 75, 68
1, 288488, Note_on_c, 0, 97, 69
1, 288539, Note_on_c, 0, 96, 55
1, 288546, Note_on_c, 0, 93, 49
1, 288558, Note_on_c, 0, 70, 67
1, 288568, Note_on_c, 0, 74, 57
1, 288573, Note_off_c, 0, 93, 56
1, 288582, Note_off_c, 0, 97, 55
1, 288588, Note_off_c, 0, 74, 67
1, 288589, Note_off_c, 0, 70, 62
1, 288612, Note_on_c, 0, 90, 65
1, 288625, Note_off_c, 0, 96, 62
1, 288682, Note_off_c, 0, 90, 53
1, 288688, Note_on_c, 0, 94, 59
1, 288705, Note_on_c, 0, 97, 52
1, 288713, Note_on_c, 0, 66, 38
1, 288715, Note_on_c, 0, 73, 53
1, 288723, Note_off_c, 0, 94, 62
1, 288738, Note_off_c, 0, 73, 59
1, 288741, Note_off_c, 0, 66, 57
1, 288746, Note_off_c, 0, 97, 63
1, 288752, Note_on_c, 0, 90, 44
1, 288784, Note_off_c, 0, 90, 64
1, 288833, Note_on_c, 0, 70, 62
1, 288842, Note_on_c, 0, 89, 62
1, 288844, Note_on_c, 0, 94, 53
1, 288861, Note_off_c, 0, 70, 66
1, 288869, Note_off_c, 0, 94, 59
1, 288873, Note_off_c, 0, 89, 65
1, 288902, Note_on_c, 0, 88, 65
1, 288931, Note_off_c, 0, 88, 62
1, 288979, Note_on_c, 0, 87, 61
1, 289009, Note_off_c, 0, 87, 66
1, 289011, Note_on_c, 0, 86, 53
1, 289031, Note_off_c, 0, 86, 60
1, 289094, Note_on_c, 0, 66, 89
1, 289101, Note_on_c, 0, 99, 85
1, 289126, Note_on_c, 0, 90, 64
1, 289151, Note_off_c, 0, 90, 64
1, 289155, Note_off_c, 0, 99, 67
1, 289181, Note_on_c, 0, 89, 62
1, 289200, Note_off_c, 0, 89, 66
1, 289240, Note_on_c, 0, 70, 64
1, 289259, Note_on_c, 0, 88, 56
1, 289271, Note_on_c, 0, 95, 54
1, 289278, Note_off_c, 0, 70, 65
1, 289283, Note_on_c, 0, 93, 49
1, 289286, Note_off_c, 0, 88, 59
1, 289296, Note_off_c, 0, 95, 58
1, 289306, Note_off_c, 0, 93, 50
1, 289389, Note_on_c, 0, 85, 64
1, 289394, Note_on_c, 0, 61, 57
1, 289397, Note_on_c, 0, 94, 68
1, 289406, Note_off_c, 0, 85, 66
1, 289426, Note_off_c, 0, 61, 63
1, 289460, Note_on_c, 0, 87, 62
1, 289469, Note_off_c, 0, 94, 62
1, 289480, Note_off_c, 0, 87, 57
1, 289507, Note_on_c, 0, 95, 78
1, 289510, Note_on_c, 0, 88, 69
1, 289518, Note_on_c, 0, 71, 59
1, 289523, Note_on_c, 0, 75, 53
1, 289539, Note_off_c, 0, 88, 61
1, 289543, Note_off_c, 0, 75, 60
1, 289548, Note_off_c, 0, 71, 52
1, 289560, Note_off_c, 0, 95, 66
1, 289562, Note_on_c, 0, 89, 52
1, 289584, Note_off_c, 0, 89, 54
1, 289635, Note_on_c, 0, 90, 84
1, 289644, Note_on_c, 0, 65, 64
1, 289647, Note_on_c, 0, 99, 80
1, 289673, Note_off_c, 0, 90, 64
1, 289692, Note_off_c, 0, 99, 56
1, 289710, Note_off_c, 0, 65, 61
1, 289721, Note_on_c, 0, 91, 68
1, 289753, Note_on_c, 0, 92, 76
1, 289753, Note_off_c, 0, 91, 60
1, 289766, Note_on_c, 0, 94, 66
1, 289784, Note_off_c, 0, 92, 64
1, 289792, Note_on_c, 0, 71, 47
1, 289796, Note_off_c, 0, 94, 64
1, 289807, Note_on_c, 0, 75, 21
1, 289817, Note_on_c, 0, 93, 86
1, 289819, Note_off_c, 0, 71, 56
1, 289845, Note_off_c, 0, 75, 30
1, 289876, Note_off_c, 0, 93, 44
1, 289888, Note_on_c, 0, 102, 80
1, 289888, Note_on_c, 0, 94, 82
1, 289920, Note_on_c, 0, 61, 50
1, 289921, Note_off_c, 0, 94, 55
1, 289932, Note_off_c, 0, 102, 58
1, 289948, Note_on_c, 0, 93, 67
1, 289953, Note_off_c, 0, 61, 63
1, 289983, Note_off_c, 0, 93, 60
1, 290021, Note_on_c, 0, 99, 70
1, 290025, Note_on_c, 0, 92, 65
1, 290038, Note_on_c, 0, 71, 60
1, 290043, Note_on_c, 0, 75, 53
1, 290061, Note_off_c, 0, 99, 62
1, 290064, Note_off_c, 0, 92, 53
1, 290064, Note_off_c, 0, 75, 61
1, 290069, Note_off_c, 0, 71, 64
1, 290078, Note_on_c, 0, 91, 72
1, 290115, Note_off_c, 0, 91, 57
1, 290148, Note_on_c, 0, 97, 78
1, 290152, Note_on_c, 0, 90, 71
1, 290171, Note_on_c, 0, 65, 51
1, 290179, Note_off_c, 0, 90, 64
1, 290198, Note_off_c, 0, 97, 63
1, 290214, Note_on_c, 0, 89, 68
1, 290219, Note_off_c, 0, 65, 60
1, 290240, Note_off_c, 0, 89, 66
1, 290277, Note_on_c, 0, 94, 80
1, 290282, Note_on_c, 0, 70, 70
1, 290282, Note_on_c, 0, 88, 74
1, 290306, Note_on_c, 0, 73, 21
1, 290312, Note_off_c, 0, 70, 62
1, 290321, Note_off_c, 0, 88, 62
1, 290327, Note_on_c, 0, 87, 69
1, 290345, Note_off_c, 0, 73, 30
1, 290353, Note_off_c, 0, 94, 59
1, 290353, Control_c, 0, 64, 14
1, 290362, Note_off_c, 0, 87, 65
1, 290399, Note_on_c, 0, 85, 69
1, 290411, Note_on_c, 0, 61, 66
1, 290414, Note_on_c, 0, 93, 75
1, 290424, Note_off_c, 0, 85, 67
1, 290442, Control_c, 0, 64, 16
1, 290450, Note_off_c, 0, 61, 60
1, 290457, Control_c, 0, 64, 14
1, 290462, Note_on_c, 0, 87, 71
1, 290472, Control_c, 0, 64, 0
1, 290490, Note_off_c, 0, 93, 52
1, 290502, Control_c, 0, 64, 14
1, 290517, Control_c, 0, 64, 16
1, 290523, Note_on_c, 0, 94, 74
1, 290524, Note_off_c, 0, 87, 62
1, 290535, Note_on_c, 0, 88, 70
1, 290537, Note_on_c, 0, 70, 62
1, 290547, Control_c, 0, 64, 14
1, 290550, Note_on_c, 0, 73, 47
1, 290562, Control_c, 0, 64, 0
1, 290573, Note_off_c, 0, 88, 63
1, 290577, Note_off_c, 0, 73, 56
1, 290580, Note_on_c, 0, 89, 62
1, 290590, Note_off_c, 0, 70, 58
1, 290592, Control_c, 0, 64, 11
1, 290598, Note_off_c, 0, 89, 67
1, 290604, Note_off_c, 0, 94, 66
1, 290607, Control_c, 0, 64, 16
1, 290654, Note_on_c, 0, 90, 85
1, 290659, Note_on_c, 0, 97, 83
1, 290660, Note_on_c, 0, 65, 63
1, 290666, Control_c, 0, 64, 27
1, 290681, Control_c, 0, 64, 34
1, 290684, Note_off_c, 0, 90, 63
1, 290696, Control_c, 0, 64, 37
1, 290710, Control_c, 0, 64, 34
1, 290718, Note_off_c, 0, 97, 60
1, 290720, Note_off_c, 0, 65, 56
1, 290725, Control_c, 0, 64, 31
1, 290728, Note_on_c, 0, 91, 72
1, 290740, Control_c, 0, 64, 32
1, 290755, Control_c, 0, 64, 33
1, 290777, Control_c, 0, 64, 31
1, 290784, Note_on_c, 0, 92, 73
1, 290789, Note_off_c, 0, 91, 61
1, 290792, Control_c, 0, 64, 26
1, 290800, Note_on_c, 0, 94, 60
1, 290806, Note_on_c, 0, 70, 57
1, 290806, Control_c, 0, 64, 18
1, 290808, Note_off_c, 0, 92, 70
1, 290812, Note_on_c, 0, 73, 45
1, 290821, Control_c, 0, 64, 14
1, 290829, Note_off_c, 0, 94, 67
1, 290836, Note_off_c, 0, 73, 52
1, 290836, Control_c, 0, 64, 16
1, 290843, Note_off_c, 0, 70, 62
1, 290847, Note_on_c, 0, 93, 68
1, 290851, Control_c, 0, 64, 18
1, 290862, Note_on_c, 0, 95, 57
1, 290883, Note_off_c, 0, 93, 58
1, 290883, Note_off_c, 0, 95, 57
1, 290896, Control_c, 0, 64, 22
1, 290908, Note_off_c, 0, 66, 0
1, 290910, Note_on_c, 0, 94, 83
1, 290911, Control_c, 0, 64, 28
1, 290916, Note_on_c, 0, 102, 78
1, 290925, Control_c, 0, 64, 29
1, 290930, Note_on_c, 0, 61, 54
1, 290940, Control_c, 0, 64, 28
1, 290944, Poly_aftertouch_c, 0, 66, 127
1, 290953, Note_off_c, 0, 102, 56
1, 290955, Control_c, 0, 64, 23
1, 290959, Note_off_c, 0, 61, 58
1, 290966, Note_off_c, 0, 94, 64
1, 290970, Control_c, 0, 64, 16
1, 290980, Note_on_c, 0, 93, 77
1, 290985, Control_c, 0, 64, 20
1, 290998, Poly_aftertouch_c, 0, 66, 0
1, 290999, Control_c, 0, 64, 25
1, 291030, Note_off_c, 0, 93, 59
1, 291031, Note_on_c, 0, 70, 62
1, 291036, Note_on_c, 0, 97, 71
1, 291040, Note_on_c, 0, 73, 50
1, 291040, Note_on_c, 0, 92, 70
1, 291044, Control_c, 0, 64, 22
1, 291063, Note_off_c, 0, 73, 57
1, 291063, Note_off_c, 0, 92, 61
1, 291073, Control_c, 0, 64, 25
1, 291075, Note_off_c, 0, 70, 56
1, 291088, Control_c, 0, 64, 27
1, 291101, Note_off_c, 0, 97, 62
1, 291103, Control_c, 0, 64, 28
1, 291110, Note_on_c, 0, 91, 55
1, 291117, Control_c, 0, 64, 27
1, 291132, Control_c, 0, 64, 25
1, 291136, Note_off_c, 0, 91, 49
1, 291148, Note_on_c, 0, 65, 75
1, 291148, Control_c, 0, 64, 26
1, 291156, Note_on_c, 0, 99, 87
1, 291157, Note_on_c, 0, 66, 86
1, 291162, Note_on_c, 0, 90, 79
1, 291163, Control_c, 0, 64, 29
1, 291188, Note_off_c, 0, 65, 64
1, 291192, Control_c, 0, 64, 26
1, 291200, Note_off_c, 0, 90, 53
1, 291207, Control_c, 0, 64, 22
1, 291222, Control_c, 0, 64, 18
1, 291224, Note_off_c, 0, 99, 67
1, 291236, Note_on_c, 0, 89, 60
1, 291237, Control_c, 0, 64, 22
1, 291252, Control_c, 0, 64, 23
1, 291254, Note_off_c, 0, 89, 65
1, 291266, Control_c, 0, 64, 20
1, 291281, Control_c, 0, 64, 0
1, 291297, Note_on_c, 0, 95, 70
1, 291301, Note_on_c, 0, 75, 66
1, 291318, Note_on_c, 0, 71, 50
1, 291319, Note_on_c, 0, 89, 44
1, 291327, Note_on_c, 0, 92, 34
1, 291331, Note_off_c, 0, 75, 68
1, 291342, Note_off_c, 0, 89, 53
1, 291346, Note_on_c, 0, 87, 69
1, 291346, Note_off_c, 0, 71, 54
1, 291351, Note_off_c, 0, 95, 65
1, 291353, Note_off_c, 0, 92, 48
1, 291373, Note_off_c, 0, 87, 66
1, 291420, Note_on_c, 0, 85, 73
1, 291426, Note_on_c, 0, 94, 75
1, 291430, Control_c, 0, 64, 16
1, 291444, Note_off_c, 0, 85, 65
1, 291445, Control_c, 0, 64, 22
1, 291446, Note_on_c, 0, 61, 63
1, 291460, Control_c, 0, 64, 18
1, 291475, Control_c, 0, 64, 14
1, 291486, Note_off_c, 0, 61, 61
1, 291489, Control_c, 0, 64, 11
1, 291504, Control_c, 0, 64, 14
1, 291518, Note_off_c, 0, 94, 57
1, 291540, Note_on_c, 0, 88, 22
1, 291541, Control_c, 0, 64, 0
1, 291567, Note_on_c, 0, 95, 75
1, 291572, Note_on_c, 0, 75, 67
1, 291576, Note_on_c, 0, 71, 59
1, 291601, Note_off_c, 0, 75, 66
1, 291608, Note_off_c, 0, 88, 62
1, 291613, Note_on_c, 0, 89, 56
1, 291617, Note_off_c, 0, 71, 51
1, 291628, Note_off_c, 0, 95, 66
1, 291631, Note_off_c, 0, 89, 62
1, 291691, Note_on_c, 0, 99, 92
1, 291692, Note_on_c, 0, 90, 84
1, 291699, Note_on_c, 0, 65, 66
1, 291704, Control_c, 0, 64, 16
1, 291713, Note_off_c, 0, 90, 70
1, 291719, Control_c, 0, 64, 27
1, 291734, Control_c, 0, 64, 30
1, 291743, Note_off_c, 0, 99, 68
1, 291763, Control_c, 0, 64, 29
1, 291769, Note_on_c, 0, 91, 63
1, 291778, Note_off_c, 0, 65, 62
1, 291778, Control_c, 0, 64, 25
1, 291793, Control_c, 0, 64, 20
1, 291808, Control_c, 0, 64, 11
1, 291816, Note_on_c, 0, 92, 69
1, 291820, Note_off_c, 0, 91, 59
1, 291821, Note_on_c, 0, 94, 68
1, 291823, Control_c, 0, 64, 0
1, 291841, Note_on_c, 0, 75, 54
1, 291841, Note_off_c, 0, 92, 68
1, 291846, Note_on_c, 0, 71, 49
1, 291851, Note_off_c, 0, 94, 62
1, 291862, Note_off_c, 0, 75, 64
1, 291874, Note_on_c, 0, 93, 82
1, 291884, Note_off_c, 0, 71, 59
1, 291931, Note_off_c, 0, 93, 52
1, 291948, Note_on_c, 0, 94, 79
1, 291951, Note_on_c, 0, 102, 79
1, 291978, Note_on_c, 0, 61, 46
1, 291992, Note_off_c, 0, 94, 54
1, 292002, Note_off_c, 0, 61, 61
1, 292010, Note_off_c, 0, 102, 62
1, 292015, Note_on_c, 0, 93, 73
1, 292058, Control_c, 0, 64, 11
1, 292061, Note_off_c, 0, 93, 54
1, 292069, Note_on_c, 0, 71, 60
1, 292073, Control_c, 0, 64, 18
1, 292076, Note_on_c, 0, 75, 59
1, 292087, Note_on_c, 0, 92, 65
1, 292088, Note_on_c, 0, 99, 66
1, 292090, Control_c, 0, 64, 20
1, 292097, Note_off_c, 0, 75, 64
1, 292108, Note_off_c, 0, 71, 58
1, 292120, Note_off_c, 0, 92, 63
1, 292124, Note_off_c, 0, 99, 66
1, 292134, Control_c, 0, 64, 22
1, 292136, Note_on_c, 0, 91, 68
1, 292149, Control_c, 0, 64, 26
1, 292163, Control_c, 0, 64, 27
1, 292188, Note_off_c, 0, 91, 57
1, 292198, Note_on_c, 0, 65, 60
1, 292203, Note_on_c, 0, 90, 71
1, 292205, Note_on_c, 0, 97, 79
1, 292208, Control_c, 0, 64, 26
1, 292238, Note_off_c, 0, 90, 59
1, 292268, Note_off_c, 0, 97, 63
1, 292275, Control_c, 0, 64, 23
1, 292278, Note_on_c, 0, 89, 69
1, 292290, Control_c, 0, 64, 25
1, 292291, Note_off_c, 0, 65, 60
1, 292305, Control_c, 0, 64, 27
1, 292309, Note_off_c, 0, 89, 61
1, 292319, Control_c, 0, 64, 29
1, 292334, Control_c, 0, 64, 30
1, 292338, Note_on_c, 0, 94, 79
1, 292339, Note_on_c, 0, 70, 66
1, 292342, Note_on_c, 0, 88, 76
1, 292347, Note_on_c, 0, 73, 51
1, 292349, Control_c, 0, 64, 29
1, 292363, Control_c, 0, 64, 28
1, 292368, Note_off_c, 0, 73, 57
1, 292374, Note_off_c, 0, 70, 59
1, 292378, Control_c, 0, 64, 29
1, 292384, Note_off_c, 0, 88, 62
1, 292392, Note_on_c, 0, 87, 70
1, 292393, Control_c, 0, 64, 31
1, 292408, Control_c, 0, 64, 32
1, 292423, Note_off_c, 0, 87, 63
1, 292437, Control_c, 0, 64, 31
1, 292452, Control_c, 0, 64, 32
1, 292457, Note_on_c, 0, 85, 76
1, 292464, Note_on_c, 0, 93, 78
1, 292466, Note_off_c, 0, 94, 33
1, 292467, Control_c, 0, 64, 34
1, 292469, Note_on_c, 0, 61, 67
1, 292482, Control_c, 0, 64, 35
1, 292483, Note_off_c, 0, 85, 61
1, 292512, Control_c, 0, 64, 34
1, 292517, Note_off_c, 0, 61, 55
1, 292521, Note_on_c, 0, 87, 73
1, 292526, Control_c, 0, 64, 33
1, 292541, Control_c, 0, 64, 34
1, 292556, Control_c, 0, 64, 35
1, 292557, Note_off_c, 0, 93, 44
1, 292574, Note_on_c, 0, 94, 73
1, 292581, Note_off_c, 0, 87, 63
1, 292586, Control_c, 0, 64, 34
1, 292592, Note_on_c, 0, 88, 71
1, 292599, Note_on_c, 0, 70, 68
1, 292601, Control_c, 0, 64, 34
1, 292604, Note_on_c, 0, 73, 59
1, 292629, Note_off_c, 0, 73, 60
1, 292631, Control_c, 0, 64, 34
1, 292638, Note_on_c, 0, 89, 76
1, 292642, Note_off_c, 0, 88, 62
1, 292645, Control_c, 0, 64, 34
1, 292660, Control_c, 0, 64, 30
1, 292664, Note_off_c, 0, 70, 58
1, 292668, Note_off_c, 0, 89, 65
1, 292671, Note_off_c, 0, 94, 65
1, 292675, Control_c, 0, 64, 27
1, 292689, Control_c, 0, 64, 28
1, 292704, Control_c, 0, 64, 33
1, 292719, Control_c, 0, 64, 34
1, 292724, Note_on_c, 0, 90, 87
1, 292725, Note_on_c, 0, 65, 70
1, 292727, Note_on_c, 0, 97, 86
1, 292766, Note_off_c, 0, 90, 64
1, 292780, Note_off_c, 0, 97, 57
1, 292789, Note_on_c, 0, 91, 79
1, 292806, Note_off_c, 0, 65, 57
1, 292808, Control_c, 0, 64, 34
1, 292823, Control_c, 0, 64, 32
1, 292837, Control_c, 0, 64, 31
1, 292845, Note_on_c, 0, 92, 75
1, 292848, Note_off_c, 0, 91, 60
1, 292854, Note_on_c, 0, 94, 74
1, 292869, Note_on_c, 0, 70, 75
1, 292876, Note_on_c, 0, 73, 67
1, 292884, Note_off_c, 0, 92, 67
1, 292887, Note_off_c, 0, 66, 61
1, 292897, Note_off_c, 0, 73, 67
1, 292902, Note_on_c, 0, 93, 83
1, 292908, Note_off_c, 0, 70, 65
1, 292911, Note_off_c, 0, 94, 64
1, 292913, Control_c, 0, 64, 30
1, 292928, Control_c, 0, 64, 32
1, 292932, Note_off_c, 0, 93, 62
1, 292942, Control_c, 0, 64, 36
1, 292957, Control_c, 0, 64, 40
1, 292972, Control_c, 0, 64, 42
1, 293009, Control_c, 0, 64, 41
1, 293021, Note_on_c, 0, 90, 99
1, 293023, Note_on_c, 0, 102, 102
1, 293024, Control_c, 0, 64, 45
1, 293025, Note_on_c, 0, 94, 90
1, 293026, Note_on_c, 0, 97, 93
1, 293033, Note_on_c, 0, 73, 99
1, 293036, Note_on_c, 0, 70, 86
1, 293039, Control_c, 0, 64, 50
1, 293042, Note_on_c, 0, 99, 54
1, 293043, Note_off_c, 0, 99, 127
1, 293043, Note_off_c, 0, 94, 69
1, 293045, Note_on_c, 0, 66, 68
1, 293048, Note_off_c, 0, 73, 74
1, 293051, Note_off_c, 0, 90, 63
1, 293054, Note_off_c, 0, 70, 73
1, 293054, Control_c, 0, 64, 51
1, 293054, Note_off_c, 0, 97, 57
1, 293060, Note_off_c, 0, 102, 62
1, 293061, Note_off_c, 0, 66, 68
1, 293068, Control_c, 0, 64, 48
1, 293083, Control_c, 0, 64, 46
1, 293098, Control_c, 0, 64, 45
1, 293112, Control_c, 0, 64, 45
1, 293127, Control_c, 0, 64, 44
1, 293142, Control_c, 0, 64, 43
1, 293157, Control_c, 0, 64, 37
1, 293172, Control_c, 0, 64, 32
1, 293201, Control_c, 0, 64, 33
1, 293231, Control_c, 0, 64, 29
1, 293246, Control_c, 0, 64, 18
1, 293260, Control_c, 0, 64, 0
1, 293290, Control_c, 0, 64, 11
1, 293305, Control_c, 0, 64, 14
1, 293319, Control_c, 0, 64, 0
1, 293364, Control_c, 0, 64, 16
1, 293379, Control_c, 0, 64, 18
1, 293394, Control_c, 0, 64, 14
1, 293409, Control_c, 0, 64, 0
1, 293454, Control_c, 0, 64, 11
1, 293468, Control_c, 0, 64, 22
1, 293483, Control_c, 0, 64, 23
1, 293498, Control_c, 0, 64, 18
1, 293512, Control_c, 0, 64, 11
1, 293527, Control_c, 0, 64, 14
1, 293542, Control_c, 0, 64, 23
1, 293557, Control_c, 0, 64, 28
1, 293572, Control_c, 0, 64, 29
1, 293616, Control_c, 0, 64, 31
1, 293631, Control_c, 0, 64, 34
1, 293646, Control_c, 0, 64, 34
1, 293660, Control_c, 0, 64, 34
1, 293691, Control_c, 0, 64, 36
1, 293706, Control_c, 0, 64, 39
1, 293710, Note_on_c, 0, 49, 47
1, 293721, Control_c, 0, 64, 40
1, 293750, Control_c, 0, 64, 41
1, 293772, Control_c, 0, 64, 44
1, 293787, Control_c, 0, 64, 46
1, 293817, Control_c, 0, 64, 45
1, 293847, Control_c, 0, 64, 46
1, 293862, Control_c, 0, 64, 47
1, 293876, Note_on_c, 0, 58, 55
1, 293885, Note_on_c, 0, 61, 43
1, 293891, Control_c, 0, 64, 46
1, 293895, Note_on_c, 0, 51, 57
1, 293903, Note_off_c, 0, 49, 49
1, 293906, Control_c, 0, 64, 46
1, 293909, Note_off_c, 0, 58, 65
1, 293910, Note_off_c, 0, 61, 57
1, 293921, Control_c, 0, 64, 46
1, 293936, Note_off_c, 0, 51, 64
1, 293965, Control_c, 0, 64, 45
1, 293980, Control_c, 0, 64, 44
1, 294009, Control_c, 0, 64, 45
1, 294024, Control_c, 0, 64, 44
1, 294027, Note_on_c, 0, 53, 36
1, 294039, Control_c, 0, 64, 43
1, 294053, Note_off_c, 0, 53, 51
1, 294054, Control_c, 0, 64, 42
1, 294083, Control_c, 0, 64, 43
1, 294098, Control_c, 0, 64, 44
1, 294128, Control_c, 0, 64, 45
1, 294134, Note_on_c, 0, 59, 62
1, 294138, Note_on_c, 0, 54, 65
1, 294142, Control_c, 0, 64, 45
1, 294151, Note_on_c, 0, 61, 47
1, 294157, Control_c, 0, 64, 45
1, 294164, Note_off_c, 0, 59, 64
1, 294174, Note_off_c, 0, 54, 61
1, 294176, Note_off_c, 0, 61, 52
1, 294187, Control_c, 0, 64, 44
1, 294202, Control_c, 0, 64, 45
1, 294232, Control_c, 0, 64, 44
1, 294271, Note_on_c, 0, 56, 65
1, 294271, Note_on_c, 0, 58, 58
1, 294276, Control_c, 0, 64, 44
1, 294306, Control_c, 0, 64, 44
1, 294321, Control_c, 0, 64, 43
1, 294336, Note_off_c, 0, 58, 55
1, 294350, Control_c, 0, 64, 44
1, 294356, Note_off_c, 0, 56, 59
1, 294365, Control_c, 0, 64, 45
1, 294380, Control_c, 0, 64, 45
1, 294381, Note_on_c, 0, 61, 64
1, 294385, Note_on_c, 0, 55, 65
1, 294395, Control_c, 0, 64, 43
1, 294398, Note_on_c, 0, 65, 41
1, 294409, Control_c, 0, 64, 43
1, 294418, Note_off_c, 0, 61, 59
1, 294420, Note_off_c, 0, 55, 66
1, 294428, Note_off_c, 0, 65, 52
1, 294468, Control_c, 0, 64, 42
1, 294522, Note_on_c, 0, 56, 64
1, 294536, Control_c, 0, 64, 43
1, 294559, Note_off_c, 0, 56, 60
1, 294565, Control_c, 0, 64, 42
1, 294595, Control_c, 0, 64, 43
1, 294625, Control_c, 0, 64, 43
1, 294639, Note_on_c, 0, 53, 68
1, 294640, Control_c, 0, 64, 43
1, 294641, Note_on_c, 0, 61, 69
1, 294645, Note_on_c, 0, 65, 66
1, 294667, Note_off_c, 0, 53, 66
1, 294670, Control_c, 0, 64, 43
1, 294670, Note_off_c, 0, 65, 68
1, 294674, Note_off_c, 0, 61, 61
1, 294714, Control_c, 0, 64, 42
1, 294729, Control_c, 0, 64, 42
1, 294744, Control_c, 0, 64, 41
1, 294755, Note_on_c, 0, 54, 77
1, 294758, Control_c, 0, 64, 42
1, 294773, Control_c, 0, 64, 42
1, 294803, Control_c, 0, 64, 42
1, 294821, Note_off_c, 0, 54, 61
1, 294847, Control_c, 0, 64, 42
1, 294872, Note_on_c, 0, 56, 74
1, 294877, Control_c, 0, 64, 42
1, 294878, Note_on_c, 0, 66, 77
1, 294881, Note_on_c, 0, 61, 72
1, 294904, Note_off_c, 0, 66, 68
1, 294907, Control_c, 0, 64, 43
1, 294910, Note_off_c, 0, 61, 65
1, 294922, Control_c, 0, 64, 43
1, 294927, Note_off_c, 0, 56, 62
1, 294951, Control_c, 0, 64, 42
1, 294966, Control_c, 0, 64, 41
1, 294981, Control_c, 0, 64, 42
1, 294996, Note_on_c, 0, 58, 73
1, 294996, Control_c, 0, 64, 43
1, 295011, Control_c, 0, 64, 44
1, 295030, Note_off_c, 0, 58, 66
1, 295040, Control_c, 0, 64, 44
1, 295055, Control_c, 0, 64, 43
1, 295070, Control_c, 0, 64, 44
1, 295084, Control_c, 0, 64, 45
1, 295114, Control_c, 0, 64, 44
1, 295116, Note_on_c, 0, 59, 71
1, 295117, Note_on_c, 0, 65, 73
1, 295129, Note_on_c, 0, 62, 59
1, 295129, Control_c, 0, 64, 43
1, 295142, Note_off_c, 0, 59, 67
1, 295142, Note_off_c, 0, 65, 68
1, 295149, Note_off_c, 0, 62, 61
1, 295159, Control_c, 0, 64, 45
1, 295173, Control_c, 0, 64, 46
1, 295203, Control_c, 0, 64, 45
1, 295218, Control_c, 0, 64, 44
1, 295233, Note_on_c, 0, 61, 77
1, 295236, Note_on_c, 0, 63, 75
1, 295248, Control_c, 0, 64, 45
1, 295270, Control_c, 0, 64, 46
1, 295286, Control_c, 0, 64, 46
1, 295293, Note_off_c, 0, 61, 63
1, 295294, Note_off_c, 0, 63, 66
1, 295345, Control_c, 0, 64, 47
1, 295361, Note_on_c, 0, 60, 76
1, 295364, Note_on_c, 0, 70, 82
1, 295371, Note_on_c, 0, 66, 71
1, 295375, Control_c, 0, 64, 45
1, 295383, Note_off_c, 0, 70, 72
1, 295389, Control_c, 0, 64, 42
1, 295391, Note_off_c, 0, 60, 62
1, 295397, Note_off_c, 0, 66, 68
1, 295404, Control_c, 0, 64, 41
1, 295463, Control_c, 0, 64, 41
1, 295478, Control_c, 0, 64, 40
1, 295492, Note_on_c, 0, 61, 74
1, 295493, Control_c, 0, 64, 41
1, 295507, Control_c, 0, 64, 42
1, 295522, Control_c, 0, 64, 43
1, 295534, Note_off_c, 0, 61, 62
1, 295537, Control_c, 0, 64, 43
1, 295552, Control_c, 0, 64, 41
1, 295567, Control_c, 0, 64, 40
1, 295582, Control_c, 0, 64, 40
1, 295597, Control_c, 0, 64, 41
1, 295609, Note_on_c, 0, 58, 79
1, 295627, Control_c, 0, 64, 40
1, 295632, Note_off_c, 0, 58, 70
1, 295641, Control_c, 0, 64, 38
1, 295655, Control_c, 0, 64, 37
1, 295670, Control_c, 0, 64, 39
1, 295685, Control_c, 0, 64, 39
1, 295691, Note_on_c, 0, 52, 90
1, 295710, Note_on_c, 0, 53, 90
1, 295714, Control_c, 0, 64, 37
1, 295722, Note_off_c, 0, 52, 71
1, 295729, Control_c, 0, 64, 29
1, 295730, Note_off_c, 0, 53, 74
1, 295744, Control_c, 0, 64, 20
1, 295759, Control_c, 0, 64, 14
1, 295774, Control_c, 0, 64, 0
1, 295849, Note_on_c, 0, 62, 63
1, 295857, Note_on_c, 0, 68, 59
1, 295880, Note_off_c, 0, 62, 64
1, 295891, Note_off_c, 0, 68, 67
1, 295960, Note_on_c, 0, 49, 53
1, 295968, Note_on_c, 0, 50, 77
1, 295995, Note_off_c, 0, 50, 67
1, 296008, Note_off_c, 0, 49, 66
1, 296104, Note_on_c, 0, 65, 62
1, 296106, Note_on_c, 0, 59, 59
1, 296127, Note_off_c, 0, 59, 63
1, 296137, Note_off_c, 0, 65, 65
1, 296211, Note_on_c, 0, 46, 73
1, 296217, Note_on_c, 0, 47, 82
1, 296244, Note_off_c, 0, 47, 70
1, 296245, Note_off_c, 0, 46, 67
1, 296360, Note_on_c, 0, 56, 55
1, 296368, Note_on_c, 0, 62, 51
1, 296390, Note_off_c, 0, 56, 65
1, 296399, Note_off_c, 0, 62, 60
1, 296458, Note_on_c, 0, 43, 66
1, 296473, Note_on_c, 0, 44, 68
1, 296482, Note_off_c, 0, 43, 64
1, 296500, Note_off_c, 0, 44, 66
1, 296605, Note_on_c, 0, 53, 46
1, 296608, Note_on_c, 0, 59, 44
1, 296634, Note_off_c, 0, 59, 56
1, 296634, Note_off_c, 0, 53, 49
1, 296705, Note_on_c, 0, 53, 78
1, 296718, Note_on_c, 0, 54, 74
1, 296731, Note_off_c, 0, 53, 70
1, 296746, Note_off_c, 0, 54, 66
1, 296767, Control_c, 0, 64, 14
1, 296782, Control_c, 0, 64, 16
1, 296797, Control_c, 0, 64, 14
1, 296811, Control_c, 0, 64, 16
1, 296826, Control_c, 0, 64, 25
1, 296841, Control_c, 0, 64, 28
1, 296855, Control_c, 0, 64, 26
1, 296864, Note_on_c, 0, 61, 53
1, 296869, Note_on_c, 0, 58, 42
1, 296870, Control_c, 0, 64, 20
1, 296894, Note_off_c, 0, 61, 65
1, 296896, Note_off_c, 0, 58, 51
1, 296902, Control_c, 0, 64, 22
1, 296916, Control_c, 0, 64, 25
1, 296971, Note_on_c, 0, 48, 61
1, 296975, Control_c, 0, 64, 23
1, 296977, Note_on_c, 0, 49, 62
1, 296990, Control_c, 0, 64, 25
1, 296997, Note_off_c, 0, 48, 67
1, 297005, Control_c, 0, 64, 26
1, 297007, Note_off_c, 0, 49, 64
1, 297034, Control_c, 0, 64, 23
1, 297049, Control_c, 0, 64, 20
1, 297064, Control_c, 0, 64, 22
1, 297078, Control_c, 0, 64, 25
1, 297093, Control_c, 0, 64, 26
1, 297105, Note_on_c, 0, 58, 51
1, 297108, Control_c, 0, 64, 23
1, 297118, Note_on_c, 0, 54, 35
1, 297123, Control_c, 0, 64, 18
1, 297138, Control_c, 0, 64, 16
1, 297139, Note_off_c, 0, 58, 65
1, 297148, Note_off_c, 0, 54, 45
1, 297153, Control_c, 0, 64, 20
1, 297168, Control_c, 0, 64, 22
1, 297198, Control_c, 0, 64, 20
1, 297212, Control_c, 0, 64, 18
1, 297217, Note_on_c, 0, 46, 66
1, 297224, Note_on_c, 0, 45, 56
1, 297242, Control_c, 0, 64, 20
1, 297244, Note_off_c, 0, 46, 64
1, 297248, Note_off_c, 0, 45, 58
1, 297272, Control_c, 0, 64, 18
1, 297286, Control_c, 0, 64, 14
1, 297301, Control_c, 0, 64, 11
1, 297316, Control_c, 0, 64, 0
1, 297346, Control_c, 0, 64, 11
1, 297356, Note_on_c, 0, 54, 52
1, 297360, Control_c, 0, 64, 14
1, 297364, Note_on_c, 0, 49, 46
1, 297375, Control_c, 0, 64, 11
1, 297390, Control_c, 0, 64, 0
1, 297393, Note_off_c, 0, 54, 62
1, 297394, Note_off_c, 0, 49, 49
1, 297420, Control_c, 0, 64, 14
1, 297434, Control_c, 0, 64, 18
1, 297464, Control_c, 0, 64, 14
1, 297478, Control_c, 0, 64, 0
1, 297550, Note_on_c, 0, 42, 39
1, 297552, Note_on_c, 0, 37, 40
1, 297554, Note_on_c, 0, 30, 42
1, 297649, Control_c, 0, 64, 51
1, 297664, Control_c, 0, 64, 66
1, 297680, Control_c, 0, 64, 70
1, 297693, Note_off_c, 0, 30, 57
1, 297695, Control_c, 0, 64, 75
1, 297698, Note_off_c, 0, 42, 59
1, 297704, Note_off_c, 0, 37, 56
1, 297709, Control_c, 0, 64, 79
1, 297724, Control_c, 0, 64, 82
1, 297739, Control_c, 0, 64, 83
1, 297754, Control_c, 0, 64, 84
1, 297769, Control_c, 0, 64, 85
1, 297783, Control_c, 0, 64, 85
1, 297798, Control_c, 0, 64, 86
1, 297832, Note_on_c, 0, 44, 58
1, 297872, Control_c, 0, 64, 85
1, 297888, Control_c, 0, 64, 83
1, 297902, Control_c, 0, 64, 76
1, 297917, Control_c, 0, 64, 67
1, 297932, Control_c, 0, 64, 0
1, 297965, Note_off_c, 0, 44, 36
1, 297973, Note_on_c, 0, 60, 68
1, 297974, Note_on_c, 0, 46, 56
1, 297979, Note_on_c, 0, 56, 53
1, 298002, Note_off_c, 0, 60, 67
1, 298005, Note_off_c, 0, 46, 63
1, 298017, Note_off_c, 0, 56, 62
1, 298097, Note_on_c, 0, 48, 54
1, 298131, Note_off_c, 0, 48, 66
1, 298211, Note_on_c, 0, 49, 66
1, 298224, Note_on_c, 0, 56, 62
1, 298225, Note_on_c, 0, 60, 63
1, 298260, Note_off_c, 0, 49, 62
1, 298262, Note_off_c, 0, 60, 65
1, 298265, Note_off_c, 0, 56, 62
1, 298339, Note_on_c, 0, 53, 68
1, 298342, Note_on_c, 0, 51, 70
1, 298398, Note_off_c, 0, 53, 60
1, 298435, Note_off_c, 0, 51, 52
1, 298458, Note_on_c, 0, 50, 70
1, 298469, Note_on_c, 0, 63, 75
1, 298476, Note_on_c, 0, 60, 64
1, 298495, Note_off_c, 0, 50, 66
1, 298495, Note_off_c, 0, 63, 68
1, 298505, Note_off_c, 0, 60, 65
1, 298587, Note_on_c, 0, 51, 72
1, 298650, Note_off_c, 0, 51, 61
1, 298698, Note_on_c, 0, 60, 71
1, 298700, Note_on_c, 0, 48, 81
1, 298700, Note_on_c, 0, 63, 74
1, 298724, Note_off_c, 0, 63, 69
1, 298726, Note_off_c, 0, 60, 67
1, 298737, Note_off_c, 0, 48, 66
1, 298825, Note_on_c, 0, 49, 82
1, 298901, Note_off_c, 0, 49, 57
1, 298942, Note_on_c, 0, 51, 74
1, 298949, Note_on_c, 0, 61, 78
1, 298951, Note_on_c, 0, 56, 74
1, 298973, Note_off_c, 0, 61, 67
1, 298983, Note_off_c, 0, 56, 66
1, 299012, Note_off_c, 0, 51, 63
1, 299072, Note_on_c, 0, 53, 78
1, 299118, Note_off_c, 0, 53, 65
1, 299188, Note_on_c, 0, 54, 77
1, 299188, Note_on_c, 0, 61, 72
1, 299192, Note_on_c, 0, 65, 75
1, 299217, Note_off_c, 0, 65, 71
1, 299225, Note_off_c, 0, 61, 63
1, 299240, Note_off_c, 0, 54, 59
1, 299311, Note_on_c, 0, 58, 75
1, 299323, Note_on_c, 0, 56, 72
1, 299357, Note_off_c, 0, 58, 66
1, 299371, Note_off_c, 0, 56, 60
1, 299436, Note_on_c, 0, 55, 75
1, 299442, Note_on_c, 0, 65, 72
1, 299445, Note_on_c, 0, 61, 69
1, 299460, Note_off_c, 0, 65, 69
1, 299468, Note_off_c, 0, 55, 66
1, 299472, Note_off_c, 0, 61, 65
1, 299562, Note_on_c, 0, 56, 78
1, 299612, Note_off_c, 0, 56, 62
1, 299675, Note_on_c, 0, 53, 76
1, 299715, Note_off_c, 0, 53, 67
1, 299767, Note_on_c, 0, 47, 82
1, 299791, Note_on_c, 0, 48, 95
1, 299815, Note_off_c, 0, 47, 62
1, 299823, Note_off_c, 0, 48, 70
1, 299914, Note_on_c, 0, 57, 65
1, 299919, Note_on_c, 0, 63, 65
1, 299943, Note_off_c, 0, 57, 63
1, 299961, Note_off_c, 0, 63, 64
1, 300052, Note_on_c, 0, 45, 72
1, 300056, Note_on_c, 0, 44, 66
1, 300081, Note_off_c, 0, 45, 66
1, 300089, Note_off_c, 0, 44, 65
1, 300175, Note_on_c, 0, 60, 53
1, 300178, Note_on_c, 0, 54, 47
1, 300203, Note_off_c, 0, 54, 60
1, 300211, Note_off_c, 0, 60, 63
1, 300298, Note_on_c, 0, 41, 65
1, 300320, Note_on_c, 0, 42, 56
1, 300324, Note_off_c, 0, 41, 67
1, 300351, Note_off_c, 0, 42, 63
1, 300443, Note_on_c, 0, 51, 55
1, 300451, Note_on_c, 0, 57, 44
1, 300478, Note_off_c, 0, 51, 63
1, 300483, Note_off_c, 0, 57, 60
1, 300558, Note_on_c, 0, 38, 49
1, 300565, Note_on_c, 0, 39, 56
1, 300589, Note_off_c, 0, 38, 56
1, 300599, Note_off_c, 0, 39, 63
1, 300685, Note_on_c, 0, 48, 45
1, 300702, Note_on_c, 0, 54, 57
1, 300712, Note_off_c, 0, 48, 57
1, 300733, Note_off_c, 0, 54, 64
1, 300803, Note_on_c, 0, 48, 64
1, 300816, Note_on_c, 0, 49, 69
1, 300837, Note_off_c, 0, 48, 66
1, 300849, Note_off_c, 0, 49, 63
1, 300953, Note_on_c, 0, 56, 54
1, 300956, Note_on_c, 0, 53, 46
1, 300982, Note_off_c, 0, 53, 61
1, 300986, Note_off_c, 0, 56, 64
1, 301078, Note_on_c, 0, 44, 56
1, 301079, Note_on_c, 0, 43, 54
1, 301110, Note_off_c, 0, 43, 61
1, 301110, Note_off_c, 0, 44, 64
1, 301216, Note_on_c, 0, 53, 31
1, 301219, Note_on_c, 0, 49, 51
1, 301262, Note_off_c, 0, 49, 62
1, 301266, Note_off_c, 0, 53, 57
1, 301375, Note_on_c, 0, 40, 51
1, 301377, Note_on_c, 0, 41, 47
1, 301404, Note_off_c, 0, 40, 56
1, 301407, Note_off_c, 0, 41, 54
1, 301508, Note_on_c, 0, 44, 55
1, 301526, Note_on_c, 0, 49, 42
1, 301547, Note_off_c, 0, 44, 64
1, 301568, Note_off_c, 0, 49, 61
1, 301746, Note_on_c, 0, 25, 43
1, 301752, Note_on_c, 0, 37, 28
1, 301779, Control_c, 0, 64, 37
1, 301794, Control_c, 0, 64, 66
1, 301809, Control_c, 0, 64, 72
1, 301824, Control_c, 0, 64, 77
1, 301839, Control_c, 0, 64, 82
1, 301854, Control_c, 0, 64, 85
1, 301868, Control_c, 0, 64, 87
1, 301872, Note_off_c, 0, 25, 55
1, 301883, Control_c, 0, 64, 90
1, 301894, Note_off_c, 0, 37, 52
1, 301898, Control_c, 0, 64, 92
1, 301913, Control_c, 0, 64, 94
1, 301928, Control_c, 0, 64, 96
1, 301942, Control_c, 0, 64, 98
1, 301957, Control_c, 0, 64, 101
1, 301972, Control_c, 0, 64, 102
1, 301987, Control_c, 0, 64, 103
1, 302009, Control_c, 0, 64, 104
1, 302024, Control_c, 0, 64, 106
1, 302039, Control_c, 0, 64, 107
1, 302053, Control_c, 0, 64, 109
1, 302068, Control_c, 0, 64, 109
1, 302128, Control_c, 0, 64, 109
1, 302143, Control_c, 0, 64, 101
1, 302155, Note_on_c, 0, 80, 58
1, 302157, Control_c, 0, 64, 90
1, 302164, Note_on_c, 0, 68, 47
1, 302168, Note_on_c, 0, 72, 46
1, 302172, Control_c, 0, 64, 77
1, 302187, Control_c, 0, 64, 66
1, 302192, Note_off_c, 0, 68, 56
1, 302195, Note_off_c, 0, 72, 56
1, 302202, Control_c, 0, 64, 63
1, 302205, Note_on_c, 0, 51, 31
1, 302209, Note_on_c, 0, 48, 37
1, 302217, Control_c, 0, 64, 69
1, 302223, Note_off_c, 0, 80, 63
1, 302231, Control_c, 0, 64, 79
1, 302246, Control_c, 0, 64, 90
1, 302261, Control_c, 0, 64, 94
1, 302275, Control_c, 0, 64, 96
1, 302281, Note_off_c, 0, 51, 0
1, 302290, Control_c, 0, 64, 99
1, 302305, Control_c, 0, 64, 102
1, 302319, Poly_aftertouch_c, 0, 51, 127
1, 302320, Control_c, 0, 64, 106
1, 302328, Note_on_c, 0, 82, 63
1, 302332, Note_on_c, 0, 73, 52
1, 302335, Control_c, 0, 64, 109
1, 302349, Control_c, 0, 64, 112
1, 302352, Note_off_c, 0, 73, 61
1, 302360, Note_off_c, 0, 82, 63
1, 302361, Note_off_c, 0, 48, 35
1, 302364, Control_c, 0, 64, 113
1, 302378, Control_c, 0, 64, 113
1, 302393, Control_c, 0, 64, 114
1, 302398, Poly_aftertouch_c, 0, 51, 0
1, 302466, Note_on_c, 0, 75, 66
1, 302472, Note_on_c, 0, 72, 61
1, 302483, Note_on_c, 0, 84, 56
1, 302486, Note_on_c, 0, 44, 48
1, 302490, Note_off_c, 0, 72, 66
1, 302498, Control_c, 0, 64, 114
1, 302500, Note_on_c, 0, 54, 35
1, 302501, Note_off_c, 0, 75, 64
1, 302501, Note_off_c, 0, 84, 64
1, 302520, Note_off_c, 0, 44, 61
1, 302533, Note_off_c, 0, 54, 48
1, 302602, Note_on_c, 0, 77, 65
1, 302602, Note_on_c, 0, 73, 59
1, 302602, Note_on_c, 0, 85, 66
1, 302621, Note_off_c, 0, 73, 62
1, 302628, Note_off_c, 0, 77, 64
1, 302632, Control_c, 0, 64, 115
1, 302640, Note_off_c, 0, 85, 54
1, 302661, Control_c, 0, 64, 115
1, 302690, Control_c, 0, 64, 115
1, 302705, Control_c, 0, 64, 109
1, 302720, Control_c, 0, 64, 91
1, 302724, Note_on_c, 0, 78, 70
1, 302731, Note_on_c, 0, 54, 39
1, 302731, Note_on_c, 0, 75, 61
1, 302735, Control_c, 0, 64, 72
1, 302736, Note_on_c, 0, 49, 54
1, 302737, Note_on_c, 0, 87, 64
1, 302749, Note_on_c, 0, 57, 50
1, 302757, Control_c, 0, 64, 0
1, 302760, Note_off_c, 0, 75, 63
1, 302763, Note_off_c, 0, 78, 60
1, 302769, Note_off_c, 0, 87, 55
1, 302787, Control_c, 0, 64, 59
1, 302802, Control_c, 0, 64, 73
1, 302817, Control_c, 0, 64, 86
1, 302831, Control_c, 0, 64, 94
1, 302846, Control_c, 0, 64, 97
1, 302858, Note_off_c, 0, 57, 50
1, 302859, Note_on_c, 0, 74, 69
1, 302861, Note_on_c, 0, 77, 72
1, 302861, Control_c, 0, 64, 99
1, 302875, Note_on_c, 0, 86, 62
1, 302876, Control_c, 0, 64, 102
1, 302884, Note_off_c, 0, 74, 69
1, 302888, Note_off_c, 0, 77, 63
1, 302891, Control_c, 0, 64, 105
1, 302894, Note_off_c, 0, 86, 65
1, 302905, Control_c, 0, 64, 108
1, 302920, Control_c, 0, 64, 111
1, 302935, Control_c, 0, 64, 114
1, 302950, Control_c, 0, 64, 116
1, 302965, Note_off_c, 0, 49, 32
1, 302965, Control_c, 0, 64, 119
1, 302966, Note_off_c, 0, 54, 39
1, 302978, Note_on_c, 0, 75, 74
1, 302979, Control_c, 0, 64, 121
1, 302984, Note_on_c, 0, 48, 67
1, 302985, Note_on_c, 0, 78, 67
1, 302987, Note_on_c, 0, 87, 67
1, 302994, Control_c, 0, 64, 123
1, 302999, Note_on_c, 0, 56, 59
1, 303004, Note_off_c, 0, 75, 67
1, 303009, Control_c, 0, 64, 124
1, 303010, Note_off_c, 0, 78, 68
1, 303013, Note_off_c, 0, 87, 68
1, 303022, Note_off_c, 0, 48, 64
1, 303023, Note_off_c, 0, 56, 64
1, 303024, Control_c, 0, 64, 126
1, 303039, Control_c, 0, 64, 127
1, 303068, Control_c, 0, 64, 127
1, 303100, Note_on_c, 0, 72, 74
1, 303100, Note_on_c, 0, 75, 80
1, 303124, Note_off_c, 0, 72, 70
1, 303127, Note_off_c, 0, 75, 67
1, 303130, Note_on_c, 0, 84, 39
1, 303157, Control_c, 0, 64, 127
1, 303158, Note_off_c, 0, 84, 55
1, 303171, Control_c, 0, 64, 121
1, 303186, Control_c, 0, 64, 103
1, 303201, Control_c, 0, 64, 80
1, 303216, Control_c, 0, 64, 53
1, 303219, Note_on_c, 0, 78, 64
1, 303225, Note_on_c, 0, 73, 72
1, 303229, Note_on_c, 0, 56, 64
1, 303230, Note_on_c, 0, 49, 70
1, 303230, Note_on_c, 0, 85, 70
1, 303231, Control_c, 0, 64, 0
1, 303240, Note_off_c, 0, 78, 42
1, 303249, Note_on_c, 0, 77, 49
1, 303251, Note_off_c, 0, 73, 68
1, 303261, Control_c, 0, 64, 69
1, 303262, Note_off_c, 0, 56, 62
1, 303272, Note_off_c, 0, 49, 61
1, 303273, Note_off_c, 0, 85, 53
1, 303275, Note_off_c, 0, 77, 36
1, 303276, Control_c, 0, 64, 83
1, 303291, Control_c, 0, 64, 99
1, 303306, Control_c, 0, 64, 105
1, 303320, Control_c, 0, 64, 107
1, 303335, Control_c, 0, 64, 110
1, 303340, Note_on_c, 0, 80, 77
1, 303350, Control_c, 0, 64, 114
1, 303351, Note_on_c, 0, 87, 74
1, 303353, Note_on_c, 0, 75, 63
1, 303361, Note_off_c, 0, 80, 70
1, 303365, Control_c, 0, 64, 117
1, 303373, Note_off_c, 0, 75, 66
1, 303377, Note_off_c, 0, 87, 63
1, 303380, Control_c, 0, 64, 120
1, 303395, Control_c, 0, 64, 122
1, 303410, Control_c, 0, 64, 123
1, 303440, Control_c, 0, 64, 123
1, 303460, Note_on_c, 0, 77, 85
1, 303461, Note_on_c, 0, 85, 85
1, 303465, Note_on_c, 0, 89, 79
1, 303466, Note_on_c, 0, 59, 69
1, 303467, Note_on_c, 0, 51, 65
1, 303473, Note_on_c, 0, 56, 56
1, 303494, Note_off_c, 0, 77, 63
1, 303494, Note_off_c, 0, 85, 60
1, 303498, Note_off_c, 0, 59, 66
1, 303499, Note_off_c, 0, 89, 64
1, 303501, Note_off_c, 0, 56, 62
1, 303503, Note_off_c, 0, 51, 65
1, 303578, Note_on_c, 0, 78, 89
1, 303584, Note_on_c, 0, 87, 77
1, 303588, Note_on_c, 0, 90, 78
1, 303601, Note_off_c, 0, 78, 63
1, 303606, Note_off_c, 0, 87, 66
1, 303609, Control_c, 0, 64, 125
1, 303615, Note_off_c, 0, 90, 61
1, 303624, Control_c, 0, 64, 126
1, 303639, Control_c, 0, 64, 126
1, 303669, Control_c, 0, 64, 126
1, 303684, Control_c, 0, 64, 121
1, 303695, Note_on_c, 0, 80, 87
1, 303699, Note_on_c, 0, 89, 83
1, 303699, Control_c, 0, 64, 102
1, 303709, Note_on_c, 0, 59, 66
1, 303709, Note_on_c, 0, 92, 73
1, 303710, Note_on_c, 0, 62, 70
1, 303712, Note_on_c, 0, 54, 67
1, 303714, Control_c, 0, 64, 80
1, 303723, Note_off_c, 0, 80, 62
1, 303728, Control_c, 0, 64, 39
1, 303732, Note_off_c, 0, 92, 70
1, 303743, Control_c, 0, 64, 0
1, 303746, Note_off_c, 0, 89, 63
1, 303758, Control_c, 0, 64, 41
1, 303758, Note_off_c, 0, 62, 52
1, 303773, Control_c, 0, 64, 73
1, 303788, Control_c, 0, 64, 87
1, 303791, Note_off_c, 0, 54, 54
1, 303802, Control_c, 0, 64, 100
1, 303812, Note_on_c, 0, 79, 89
1, 303813, Note_on_c, 0, 88, 80
1, 303817, Control_c, 0, 64, 104
1, 303827, Note_on_c, 0, 91, 67
1, 303832, Control_c, 0, 64, 105
1, 303842, Note_off_c, 0, 59, 58
1, 303846, Control_c, 0, 64, 108
1, 303848, Note_off_c, 0, 79, 62
1, 303851, Note_off_c, 0, 91, 61
1, 303857, Note_off_c, 0, 88, 64
1, 303861, Control_c, 0, 64, 113
1, 303876, Control_c, 0, 64, 118
1, 303891, Control_c, 0, 64, 125
1, 303906, Control_c, 0, 64, 127
1, 303925, Note_on_c, 0, 53, 72
1, 303926, Note_on_c, 0, 92, 93
1, 303928, Note_on_c, 0, 80, 90
1, 303929, Note_on_c, 0, 61, 55
1, 303934, Note_on_c, 0, 56, 57
1, 303950, Note_off_c, 0, 61, 59
1, 303954, Note_off_c, 0, 53, 68
1, 303957, Note_off_c, 0, 80, 62
1, 303958, Note_off_c, 0, 56, 64
1, 303961, Note_off_c, 0, 92, 63
1, 304039, Note_on_c, 0, 77, 86
1, 304048, Note_on_c, 0, 89, 75
1, 304072, Note_off_c, 0, 77, 60
1, 304075, Note_off_c, 0, 89, 68
1, 304090, Note_on_c, 0, 88, 18
1, 304091, Note_on_c, 0, 87, 28
1, 304116, Note_off_c, 0, 87, 45
1, 304131, Note_off_c, 0, 88, 31
1, 304157, Note_on_c, 0, 81, 94
1, 304164, Note_on_c, 0, 90, 88
1, 304174, Note_on_c, 0, 44, 74
1, 304181, Note_on_c, 0, 32, 64
1, 304196, Note_off_c, 0, 81, 60
1, 304203, Note_off_c, 0, 90, 61
1, 304203, Control_c, 0, 64, 120
1, 304210, Note_off_c, 0, 44, 63
1, 304218, Control_c, 0, 64, 107
1, 304220, Note_off_c, 0, 32, 61
1, 304240, Control_c, 0, 64, 96
1, 304255, Control_c, 0, 64, 83
1, 304269, Control_c, 0, 64, 71
1, 304284, Control_c, 0, 64, 33
1, 304291, Note_on_c, 0, 46, 77
1, 304299, Control_c, 0, 64, 0
1, 304313, Note_on_c, 0, 34, 42
1, 304321, Note_off_c, 0, 46, 63
1, 304343, Note_off_c, 0, 34, 49
1, 304402, Note_on_c, 0, 77, 90
1, 304405, Note_on_c, 0, 48, 76
1, 304407, Note_on_c, 0, 87, 82
1, 304432, Note_off_c, 0, 87, 65
1, 304435, Note_off_c, 0, 48, 68
1, 304436, Note_on_c, 0, 36, 39
1, 304438, Note_off_c, 0, 77, 62
1, 304472, Note_off_c, 0, 36, 49
1, 304512, Note_on_c, 0, 49, 78
1, 304545, Note_on_c, 0, 37, 42
1, 304547, Note_off_c, 0, 49, 62
1, 304572, Note_off_c, 0, 37, 53
1, 304624, Note_on_c, 0, 72, 78
1, 304626, Note_on_c, 0, 51, 80
1, 304626, Note_on_c, 0, 81, 77
1, 304633, Note_on_c, 0, 71, 54
1, 304653, Note_off_c, 0, 71, 58
1, 304654, Note_off_c, 0, 51, 65
1, 304657, Note_off_c, 0, 81, 56
1, 304662, Note_off_c, 0, 72, 66
1, 304727, Note_on_c, 0, 50, 82
1, 304759, Note_on_c, 0, 38, 37
1, 304759, Note_off_c, 0, 50, 65
1, 304800, Note_off_c, 0, 38, 31
1, 304829, Note_on_c, 0, 51, 86
1, 304830, Note_on_c, 0, 69, 77
1, 304835, Note_on_c, 0, 68, 66
1, 304835, Note_on_c, 0, 78, 82
1, 304844, Note_on_c, 0, 39, 62
1, 304853, Note_off_c, 0, 69, 71
1, 304858, Note_off_c, 0, 51, 67
1, 304864, Note_off_c, 0, 68, 67
1, 304879, Control_c, 0, 64, 14
1, 304879, Note_off_c, 0, 39, 61
1, 304887, Note_off_c, 0, 78, 64
1, 304893, Control_c, 0, 64, 18
1, 304908, Control_c, 0, 64, 0
1, 304938, Note_on_c, 0, 48, 82
1, 304963, Note_on_c, 0, 36, 48
1, 304974, Note_on_c, 0, 43, 14
1, 304981, Note_off_c, 0, 48, 66
1, 305003, Note_off_c, 0, 36, 52
1, 305034, Control_c, 0, 64, 57
1, 305049, Control_c, 0, 64, 71
1, 305064, Control_c, 0, 64, 80
1, 305065, Note_on_c, 0, 73, 84
1, 305065, Note_on_c, 0, 77, 73
1, 305065, Note_on_c, 0, 80, 76
1, 305067, Note_on_c, 0, 49, 88
1, 305067, Note_on_c, 0, 85, 73
1, 305074, Note_on_c, 0, 37, 77
1, 305079, Control_c, 0, 64, 88
1, 305090, Note_off_c, 0, 85, 69
1, 305091, Note_off_c, 0, 49, 67
1, 305092, Note_off_c, 0, 77, 64
1, 305093, Note_off_c, 0, 73, 56
1, 305093, Control_c, 0, 64, 94
1, 305094, Note_off_c, 0, 80, 63
1, 305108, Control_c, 0, 64, 97
1, 305109, Note_off_c, 0, 37, 68
1, 305123, Control_c, 0, 64, 101
1, 305138, Control_c, 0, 64, 103
1, 305140, Note_off_c, 0, 43, 20
1, 305153, Control_c, 0, 64, 106
1, 305167, Control_c, 0, 64, 107
1, 305177, Note_on_c, 0, 48, 75
1, 305182, Control_c, 0, 64, 109
1, 305197, Control_c, 0, 64, 110
1, 305207, Note_on_c, 0, 36, 48
1, 305209, Note_off_c, 0, 48, 67
1, 305212, Control_c, 0, 64, 111
1, 305227, Control_c, 0, 64, 112
1, 305240, Note_off_c, 0, 36, 54
1, 305241, Control_c, 0, 64, 113
1, 305256, Control_c, 0, 64, 113
1, 305289, Note_on_c, 0, 62, 78
1, 305290, Note_on_c, 0, 47, 82
1, 305300, Note_on_c, 0, 56, 65
1, 305304, Note_on_c, 0, 59, 60
1, 305307, Note_on_c, 0, 35, 67
1, 305319, Note_off_c, 0, 56, 65
1, 305320, Note_off_c, 0, 47, 67
1, 305333, Note_off_c, 0, 59, 64
1, 305336, Note_off_c, 0, 35, 64
1, 305340, Note_off_c, 0, 62, 59
1, 305395, Note_on_c, 0, 46, 82
1, 305404, Control_c, 0, 64, 114
1, 305420, Note_on_c, 0, 34, 47
1, 305425, Note_off_c, 0, 46, 65
1, 305434, Control_c, 0, 64, 114
1, 305449, Control_c, 0, 64, 115
1, 305452, Note_off_c, 0, 34, 56
1, 305478, Control_c, 0, 64, 114
1, 305493, Control_c, 0, 64, 103
1, 305508, Note_on_c, 0, 63, 76
1, 305508, Control_c, 0, 64, 83
1, 305509, Note_on_c, 0, 45, 79
1, 305511, Note_on_c, 0, 60, 71
1, 305519, Note_on_c, 0, 54, 61
1, 305523, Control_c, 0, 64, 52
1, 305538, Control_c, 0, 64, 0
1, 305539, Note_off_c, 0, 54, 60
1, 305540, Note_on_c, 0, 33, 39
1, 305543, Note_off_c, 0, 60, 62
1, 305545, Note_off_c, 0, 45, 67
1, 305566, Note_off_c, 0, 63, 61
1, 305567, Control_c, 0, 64, 69
1, 305575, Note_off_c, 0, 33, 53
1, 305582, Control_c, 0, 64, 86
1, 305597, Control_c, 0, 64, 108
1, 305611, Control_c, 0, 64, 118
1, 305619, Note_on_c, 0, 44, 80
1, 305626, Control_c, 0, 64, 123
1, 305627, Note_on_c, 0, 32, 73
1, 305641, Control_c, 0, 64, 127
1, 305646, Note_off_c, 0, 44, 65
1, 305654, Note_off_c, 0, 32, 65
1, 305660, Poly_aftertouch_c, 0, 38, 0
1, 305690, Poly_aftertouch_c, 0, 38, 0
1, 305702, Control_c, 0, 64, 100
1, 305716, Control_c, 0, 64, 79
1, 305731, Control_c, 0, 64, 62
1, 305747, Note_on_c, 0, 64, 66
1, 305753, Note_on_c, 0, 52, 84
1, 305753, Control_c, 0, 64, 62
1, 305758, Note_on_c, 0, 56, 67
1, 305762, Note_on_c, 0, 61, 59
1, 305768, Control_c, 0, 64, 72
1, 305771, Note_on_c, 0, 40, 64
1, 305783, Control_c, 0, 64, 87
1, 305789, Note_off_c, 0, 56, 62
1, 305792, Note_off_c, 0, 52, 65
1, 305797, Control_c, 0, 64, 108
1, 305799, Note_off_c, 0, 40, 66
1, 305806, Note_off_c, 0, 61, 56
1, 305812, Control_c, 0, 64, 117
1, 305824, Note_off_c, 0, 64, 61
1, 305827, Control_c, 0, 64, 121
1, 305842, Control_c, 0, 64, 127
1, 305856, Note_on_c, 0, 51, 84
1, 305875, Note_on_c, 0, 39, 57
1, 305882, Note_off_c, 0, 51, 68
1, 305908, Note_off_c, 0, 39, 63
1, 305949, Note_on_c, 0, 65, 80
1, 305955, Note_on_c, 0, 56, 83
1, 305959, Note_on_c, 0, 59, 67
1, 305961, Note_on_c, 0, 50, 84
1, 305985, Note_off_c, 0, 56, 63
1, 305989, Note_off_c, 0, 59, 65
1, 305992, Note_off_c, 0, 50, 64
1, 306008, Note_on_c, 0, 38, 7
1, 306010, Note_off_c, 0, 65, 64
1, 306042, Note_off_c, 0, 38, 0
1, 306057, Note_on_c, 0, 49, 84
1, 306061, Poly_aftertouch_c, 0, 38, 0
1, 306069, Note_on_c, 0, 43, 21
1, 306074, Note_on_c, 0, 37, 67
1, 306085, Note_off_c, 0, 49, 66
1, 306095, Note_off_c, 0, 37, 67
1, 306116, Note_off_c, 0, 43, 50
1, 306155, Note_on_c, 0, 62, 72
1, 306156, Note_on_c, 0, 57, 84
1, 306157, Note_on_c, 0, 48, 85
1, 306159, Note_on_c, 0, 66, 82
1, 306175, Note_on_c, 0, 36, 64
1, 306184, Note_off_c, 0, 57, 63
1, 306188, Note_off_c, 0, 62, 63
1, 306194, Note_off_c, 0, 48, 63
1, 306202, Note_off_c, 0, 36, 65
1, 306212, Note_off_c, 0, 66, 64
1, 306263, Note_on_c, 0, 47, 85
1, 306275, Note_on_c, 0, 35, 73
1, 306301, Note_off_c, 0, 35, 66
1, 306308, Note_off_c, 0, 47, 61
1, 306315, Control_c, 0, 64, 113
1, 306330, Control_c, 0, 64, 85
1, 306345, Control_c, 0, 64, 27
1, 306360, Control_c, 0, 64, 0
1, 306372, Note_on_c, 0, 62, 63
1, 306376, Note_on_c, 0, 67, 76
1, 306382, Note_on_c, 0, 59, 79
1, 306389, Note_on_c, 0, 53, 85
1, 306389, Control_c, 0, 64, 66
1, 306404, Control_c, 0, 64, 83
1, 306405, Note_off_c, 0, 59, 68
1, 306406, Note_on_c, 0, 41, 65
1, 306412, Note_off_c, 0, 62, 63
1, 306419, Control_c, 0, 64, 105
1, 306421, Note_off_c, 0, 53, 66
1, 306428, Note_off_c, 0, 67, 64
1, 306433, Control_c, 0, 64, 125
1, 306436, Note_off_c, 0, 41, 66
1, 306448, Control_c, 0, 64, 127
1, 306504, Note_on_c, 0, 52, 85
1, 306512, Note_on_c, 0, 40, 73
1, 306533, Note_off_c, 0, 52, 67
1, 306537, Note_off_c, 0, 40, 65
1, 306605, Note_on_c, 0, 54, 87
1, 306608, Note_on_c, 0, 42, 85
1, 306609, Note_on_c, 0, 63, 61
1, 306611, Note_on_c, 0, 68, 88
1, 306612, Note_on_c, 0, 60, 83
1, 306629, Note_off_c, 0, 54, 67
1, 306636, Note_off_c, 0, 60, 64
1, 306641, Note_off_c, 0, 42, 67
1, 306644, Note_off_c, 0, 63, 65
1, 306698, Note_on_c, 0, 53, 88
1, 306707, Note_on_c, 0, 41, 79
1, 306713, Note_off_c, 0, 68, 60
1, 306740, Note_off_c, 0, 41, 69
1, 306748, Note_off_c, 0, 53, 66
1, 306799, Control_c, 0, 64, 108
1, 306808, Note_on_c, 0, 55, 88
1, 306812, Note_on_c, 0, 69, 88
1, 306814, Note_on_c, 0, 61, 93
1, 306814, Control_c, 0, 64, 78
1, 306815, Note_on_c, 0, 43, 76
1, 306818, Note_on_c, 0, 65, 77
1, 306829, Control_c, 0, 64, 0
1, 306851, Note_off_c, 0, 61, 62
1, 306853, Note_off_c, 0, 43, 65
1, 306853, Note_off_c, 0, 55, 67
1, 306859, Control_c, 0, 64, 63
1, 306866, Note_off_c, 0, 65, 64
1, 306873, Control_c, 0, 64, 82
1, 306885, Note_off_c, 0, 69, 65
1, 306888, Control_c, 0, 64, 107
1, 306903, Control_c, 0, 64, 127
1, 306915, Note_on_c, 0, 53, 86
1, 306926, Note_on_c, 0, 41, 78
1, 306960, Note_off_c, 0, 53, 66
1, 306962, Note_off_c, 0, 41, 67
1, 307020, Note_on_c, 0, 52, 89
1, 307021, Note_on_c, 0, 67, 84
1, 307022, Note_on_c, 0, 70, 88
1, 307025, Note_on_c, 0, 62, 83
1, 307031, Note_on_c, 0, 40, 84
1, 307049, Note_off_c, 0, 62, 66
1, 307059, Note_off_c, 0, 67, 60
1, 307064, Note_off_c, 0, 40, 67
1, 307065, Note_off_c, 0, 52, 65
1, 307068, Note_off_c, 0, 70, 63
1, 307125, Note_on_c, 0, 50, 85
1, 307142, Note_on_c, 0, 38, 71
1, 307166, Note_off_c, 0, 50, 64
1, 307166, Note_off_c, 0, 38, 62
1, 307213, Control_c, 0, 64, 111
1, 307224, Note_on_c, 0, 49, 92
1, 307228, Control_c, 0, 64, 79
1, 307239, Note_on_c, 0, 62, 96
1, 307240, Note_on_c, 0, 65, 83
1, 307242, Note_on_c, 0, 71, 82
1, 307244, Note_on_c, 0, 37, 78
1, 307251, Control_c, 0, 64, 0
1, 307253, Note_on_c, 0, 39, 56
1, 307265, Note_off_c, 0, 49, 62
1, 307271, Note_off_c, 0, 62, 64
1, 307274, Note_off_c, 0, 37, 65
1, 307274, Note_off_c, 0, 65, 69
1, 307280, Note_off_c, 0, 39, 56
1, 307282, Control_c, 0, 64, 60
1, 307296, Control_c, 0, 64, 77
1, 307299, Note_off_c, 0, 71, 64
1, 307311, Control_c, 0, 64, 102
1, 307326, Control_c, 0, 64, 127
1, 307335, Note_on_c, 0, 47, 87
1, 307351, Note_on_c, 0, 35, 71
1, 307374, Note_off_c, 0, 47, 64
1, 307379, Note_off_c, 0, 35, 65
1, 307380, Note_on_c, 0, 37, 11
1, 307413, Note_off_c, 0, 37, 50
1, 307456, Note_on_c, 0, 57, 96
1, 307458, Note_on_c, 0, 73, 86
1, 307461, Note_on_c, 0, 65, 91
1, 307461, Note_on_c, 0, 68, 79
1, 307472, Note_on_c, 0, 45, 71
1, 307490, Note_off_c, 0, 65, 62
1, 307491, Note_on_c, 0, 51, 40
1, 307492, Note_on_c, 0, 49, 43
1, 307494, Note_off_c, 0, 57, 65
1, 307496, Note_off_c, 0, 68, 63
1, 307500, Note_off_c, 0, 45, 66
1, 307515, Note_off_c, 0, 73, 60
1, 307524, Note_off_c, 0, 51, 55
1, 307530, Note_off_c, 0, 49, 50
1, 307565, Note_on_c, 0, 56, 90
1, 307571, Note_on_c, 0, 44, 84
1, 307595, Note_off_c, 0, 56, 64
1, 307603, Note_off_c, 0, 44, 67
1, 307637, Control_c, 0, 64, 110
1, 307652, Control_c, 0, 64, 79
1, 307661, Poly_aftertouch_c, 0, 69, 127
1, 307666, Note_on_c, 0, 62, 90
1, 307667, Note_on_c, 0, 74, 79
1, 307667, Control_c, 0, 64, 0
1, 307668, Note_on_c, 0, 66, 85
1, 307671, Note_on_c, 0, 59, 91
1, 307682, Note_on_c, 0, 47, 77
1, 307696, Control_c, 0, 64, 63
1, 307699, Note_off_c, 0, 62, 63
1, 307711, Note_on_c, 0, 71, 28
1, 307711, Poly_aftertouch_c, 0, 69, 0
1, 307711, Control_c, 0, 64, 81
1, 307712, Note_on_c, 0, 72, 27
1, 307716, Note_off_c, 0, 66, 65
1, 307717, Note_off_c, 0, 59, 63
1, 307721, Note_off_c, 0, 47, 67
1, 307726, Control_c, 0, 64, 105
1, 307730, Note_off_c, 0, 74, 64
1, 307741, Control_c, 0, 64, 127
1, 307745, Note_off_c, 0, 72, 49
1, 307747, Note_off_c, 0, 71, 31
1, 307783, Note_on_c, 0, 57, 82
1, 307792, Note_on_c, 0, 45, 71
1, 307819, Note_off_c, 0, 45, 66
1, 307824, Note_off_c, 0, 57, 64
1, 307882, Note_on_c, 0, 56, 86
1, 307890, Note_on_c, 0, 63, 93
1, 307890, Note_on_c, 0, 71, 52
1, 307890, Note_on_c, 0, 75, 87
1, 307894, Note_on_c, 0, 44, 71
1, 307896, Note_on_c, 0, 67, 85
1, 307907, Note_on_c, 0, 46, 55
1, 307918, Note_off_c, 0, 67, 70
1, 307929, Note_off_c, 0, 56, 63
1, 307932, Note_on_c, 0, 76, 44
1, 307932, Note_off_c, 0, 63, 63
1, 307935, Note_off_c, 0, 46, 58
1, 307941, Note_on_c, 0, 64, 15
1, 307947, Note_off_c, 0, 44, 58
1, 307956, Note_off_c, 0, 76, 37
1, 307967, Note_off_c, 0, 71, 60
1, 307971, Note_off_c, 0, 75, 60
1, 307996, Note_on_c, 0, 54, 88
1, 307996, Note_off_c, 0, 64, 37
1, 308007, Note_on_c, 0, 42, 78
1, 308024, Note_off_c, 0, 54, 64
1, 308041, Note_off_c, 0, 42, 64
1, 308042, Note_on_c, 0, 46, 19
1, 308083, Note_off_c, 0, 46, 42
1, 308105, Control_c, 0, 64, 104
1, 308108, Note_on_c, 0, 52, 76
1, 308118, Note_on_c, 0, 40, 66
1, 308118, Note_on_c, 0, 68, 83
1, 308118, Note_on_c, 0, 76, 85
1, 308119, Note_on_c, 0, 64, 91
1, 308120, Control_c, 0, 64, 87
1, 308131, Note_on_c, 0, 42, 40
1, 308134, Control_c, 0, 64, 84
1, 308135, Note_on_c, 0, 50, 42
1, 308143, Note_off_c, 0, 52, 66
1, 308149, Control_c, 0, 64, 87
1, 308151, Note_on_c, 0, 74, 33
1, 308151, Note_off_c, 0, 40, 64
1, 308159, Note_off_c, 0, 42, 53
1, 308161, Note_off_c, 0, 64, 63
1, 308164, Control_c, 0, 64, 99
1, 308167, Note_off_c, 0, 50, 49
1, 308170, Note_off_c, 0, 68, 64
1, 308179, Control_c, 0, 64, 127
1, 308180, Note_off_c, 0, 74, 49
1, 308198, Note_off_c, 0, 76, 65
1, 308215, Note_on_c, 0, 50, 82
1, 308224, Note_on_c, 0, 38, 65
1, 308240, Note_on_c, 0, 42, 43
1, 308244, Note_off_c, 0, 50, 66
1, 308255, Note_off_c, 0, 38, 61
1, 308267, Note_off_c, 0, 42, 58
1, 308290, Poly_aftertouch_c, 0, 40, 127
1, 308324, Note_on_c, 0, 56, 93
1, 308324, Poly_aftertouch_c, 0, 40, 0
1, 308330, Note_on_c, 0, 44, 82
1, 308342, Note_on_c, 0, 65, 97
1, 308346, Note_on_c, 0, 77, 84
1, 308359, Note_on_c, 0, 76, 68
1, 308361, Note_off_c, 0, 56, 60
1, 308370, Note_off_c, 0, 44, 64
1, 308374, Note_on_c, 0, 46, 21
1, 308376, Note_off_c, 0, 76, 67
1, 308378, Note_on_c, 0, 74, 17
1, 308383, Note_off_c, 0, 65, 67
1, 308388, Note_off_c, 0, 77, 63
1, 308414, Note_off_c, 0, 74, 52
1, 308417, Note_off_c, 0, 46, 41
1, 308433, Note_on_c, 0, 57, 94
1, 308440, Note_on_c, 0, 45, 84
1, 308460, Control_c, 0, 64, 120
1, 308475, Note_off_c, 0, 57, 64
1, 308475, Control_c, 0, 64, 81
1, 308476, Note_off_c, 0, 45, 61
1, 308490, Control_c, 0, 64, 0
1, 308508, Note_on_c, 0, 75, 20
1, 308519, Control_c, 0, 64, 61
1, 308534, Control_c, 0, 64, 76
1, 308537, Note_off_c, 0, 75, 53
1, 308548, Note_on_c, 0, 59, 91
1, 308549, Control_c, 0, 64, 104
1, 308552, Note_on_c, 0, 47, 88
1, 308561, Note_on_c, 0, 66, 93
1, 308564, Note_on_c, 0, 78, 92
1, 308564, Control_c, 0, 64, 127
1, 308580, Note_on_c, 0, 71, 62
1, 308591, Note_on_c, 0, 77, 60
1, 308593, Note_on_c, 0, 79, 60
1, 308597, Note_off_c, 0, 59, 67
1, 308598, Note_off_c, 0, 47, 65
1, 308602, Note_off_c, 0, 66, 63
1, 308611, Note_off_c, 0, 71, 57
1, 308611, Note_off_c, 0, 79, 63
1, 308615, Note_off_c, 0, 77, 62
1, 308628, Note_off_c, 0, 78, 63
1, 308667, Note_on_c, 0, 61, 95
1, 308670, Poly_aftertouch_c, 0, 68, 0
1, 308686, Note_on_c, 0, 50, 72
1, 308688, Note_on_c, 0, 51, 63
1, 308703, Note_off_c, 0, 61, 63
1, 308709, Note_off_c, 0, 51, 62
1, 308713, Note_off_c, 0, 50, 65
1, 308798, Note_on_c, 0, 62, 93
1, 308799, Note_on_c, 0, 50, 81
1, 308805, Note_on_c, 0, 68, 104
1, 308808, Note_on_c, 0, 80, 90
1, 308811, Note_on_c, 0, 78, 82
1, 308813, Note_on_c, 0, 73, 83
1, 308829, Note_on_c, 0, 60, 54
1, 308830, Note_off_c, 0, 60, 127
1, 308838, Note_off_c, 0, 68, 60
1, 308838, Note_off_c, 0, 62, 63
1, 308838, Note_off_c, 0, 73, 62
1, 308850, Note_off_c, 0, 50, 64
1, 308873, Note_off_c, 0, 80, 63
1, 308882, Note_off_c, 0, 78, 59
1, 308921, Note_on_c, 0, 59, 90
1, 308929, Note_on_c, 0, 47, 91
1, 308958, Note_on_c, 0, 48, 38
1, 308978, Note_off_c, 0, 59, 63
1, 308984, Note_off_c, 0, 47, 64
1, 308995, Note_off_c, 0, 48, 36
1, 309047, Control_c, 0, 64, 115
1, 309062, Control_c, 0, 64, 81
1, 309076, Control_c, 0, 64, 0
1, 309079, Note_on_c, 0, 57, 98
1, 309084, Note_on_c, 0, 45, 89
1, 309085, Note_on_c, 0, 69, 104
1, 309087, Note_on_c, 0, 73, 94
1, 309088, Note_on_c, 0, 81, 92
1, 309089, Note_on_c, 0, 76, 82
1, 309121, Control_c, 0, 64, 51
1, 309126, Note_off_c, 0, 57, 66
1, 309135, Control_c, 0, 64, 82
1, 309140, Note_off_c, 0, 45, 66
1, 309145, Note_off_c, 0, 81, 63
1, 309147, Note_off_c, 0, 69, 55
1, 309150, Control_c, 0, 64, 103
1, 309161, Note_off_c, 0, 76, 66
1, 309165, Control_c, 0, 64, 126
1, 309175, Note_off_c, 0, 73, 62
1, 309180, Control_c, 0, 64, 127
1, 309260, Note_on_c, 0, 44, 99
1, 309268, Note_on_c, 0, 32, 92
1, 309301, Note_off_c, 0, 32, 67
1, 309317, Note_off_c, 0, 44, 63
1, 309520, Note_on_c, 0, 54, 90
1, 309528, Note_on_c, 0, 51, 81
1, 309530, Note_on_c, 0, 60, 96
1, 309532, Note_on_c, 0, 72, 91
1, 309533, Note_on_c, 0, 66, 93
1, 309533, Note_on_c, 0, 44, 67
1, 309535, Note_on_c, 0, 69, 79
1, 309557, Control_c, 0, 64, 118
1, 309572, Control_c, 0, 64, 94
1, 309586, Control_c, 0, 64, 68
1, 309601, Control_c, 0, 64, 0
1, 309691, Control_c, 0, 64, 66
1, 309706, Control_c, 0, 64, 74
1, 309721, Control_c, 0, 64, 80
1, 309736, Control_c, 0, 64, 87
1, 309751, Control_c, 0, 64, 94
1, 309765, Control_c, 0, 64, 101
1, 309780, Control_c, 0, 64, 106
1, 309795, Control_c, 0, 64, 112
1, 309810, Control_c, 0, 64, 122
1, 309825, Control_c, 0, 64, 127
1, 309844, Note_off_c, 0, 60, 56
1, 309861, Note_off_c, 0, 72, 61
1, 309873, Note_off_c, 0, 66, 63
1, 309874, Note_off_c, 0, 69, 62
1, 309880, Note_off_c, 0, 51, 60
1, 309881, Note_off_c, 0, 44, 60
1, 309883, Note_off_c, 0, 54, 60
1, 310050, Note_on_c, 0, 60, 63
1, 310055, Note_on_c, 0, 48, 65
1, 310059, Note_on_c, 0, 63, 87
1, 310061, Note_on_c, 0, 54, 64
1, 310068, Note_on_c, 0, 75, 72
1, 310084, Note_on_c, 0, 68, 21
1, 310084, Note_on_c, 0, 69, 63
1, 310091, Control_c, 0, 64, 102
1, 310106, Control_c, 0, 64, 86
1, 310118, Note_off_c, 0, 63, 62
1, 310120, Note_off_c, 0, 69, 65
1, 310121, Control_c, 0, 64, 80
1, 310123, Note_off_c, 0, 60, 59
1, 310126, Note_off_c, 0, 68, 49
1, 310132, Note_off_c, 0, 54, 57
1, 310136, Control_c, 0, 64, 80
1, 310144, Note_off_c, 0, 75, 62
1, 310148, Note_off_c, 0, 48, 60
1, 310151, Control_c, 0, 64, 88
1, 310165, Control_c, 0, 64, 104
1, 310180, Control_c, 0, 64, 127
1, 310248, Note_on_c, 0, 59, 75
1, 310248, Note_on_c, 0, 64, 79
1, 310251, Note_on_c, 0, 76, 74
1, 310252, Note_on_c, 0, 47, 73
1, 310291, Note_off_c, 0, 47, 64
1, 310295, Note_off_c, 0, 59, 61
1, 310302, Note_off_c, 0, 64, 63
1, 310305, Note_off_c, 0, 76, 66
1, 310381, Note_on_c, 0, 65, 81
1, 310385, Note_on_c, 0, 58, 74
1, 310385, Note_on_c, 0, 77, 83
1, 310389, Note_on_c, 0, 46, 72
1, 310427, Note_off_c, 0, 65, 66
1, 310427, Note_off_c, 0, 58, 56
1, 310428, Note_off_c, 0, 77, 64
1, 310433, Note_off_c, 0, 46, 60
1, 310527, Note_on_c, 0, 57, 75
1, 310528, Note_on_c, 0, 66, 83
1, 310534, Note_on_c, 0, 72, 72
1, 310534, Note_on_c, 0, 78, 80
1, 310537, Note_on_c, 0, 51, 68
1, 310546, Note_on_c, 0, 45, 56
1, 310575, Note_off_c, 0, 66, 62
1, 310585, Note_off_c, 0, 57, 59
1, 310586, Note_off_c, 0, 78, 63
1, 310595, Note_off_c, 0, 45, 58
1, 310596, Note_off_c, 0, 51, 53
1, 310597, Note_off_c, 0, 72, 63
1, 310645, Note_on_c, 0, 66, 87
1, 310649, Note_on_c, 0, 78, 81
1, 310659, Note_on_c, 0, 57, 77
1, 310659, Note_on_c, 0, 72, 56
1, 310665, Note_on_c, 0, 51, 51
1, 310670, Note_on_c, 0, 45, 61
1, 310678, Note_off_c, 0, 72, 66
1, 310695, Note_off_c, 0, 66, 62
1, 310696, Note_off_c, 0, 57, 58
1, 310701, Note_off_c, 0, 45, 65
1, 310704, Note_off_c, 0, 78, 61
1, 310707, Note_off_c, 0, 51, 60
1, 310763, Note_on_c, 0, 67, 89
1, 310773, Note_on_c, 0, 79, 82
1, 310780, Note_on_c, 0, 45, 71
1, 310782, Note_on_c, 0, 57, 71
1, 310788, Note_on_c, 0, 77, 57
1, 310791, Note_on_c, 0, 55, 61
1, 310802, Note_off_c, 0, 57, 71
1, 310804, Note_off_c, 0, 67, 64
1, 310805, Note_off_c, 0, 45, 68
1, 310810, Note_off_c, 0, 77, 38
1, 310811, Note_off_c, 0, 79, 63
1, 310813, Note_off_c, 0, 55, 64
1, 310875, Note_on_c, 0, 68, 89
1, 310880, Note_on_c, 0, 80, 87
1, 310885, Note_on_c, 0, 54, 79
1, 310895, Note_on_c, 0, 44, 60
1, 310916, Note_off_c, 0, 68, 60
1, 310917, Note_off_c, 0, 44, 60
1, 310920, Note_off_c, 0, 54, 61
1, 310925, Note_off_c, 0, 80, 61
1, 310988, Note_on_c, 0, 69, 88
1, 310992, Note_on_c, 0, 75, 83
1, 310996, Note_on_c, 0, 54, 81
1, 310999, Note_on_c, 0, 81, 81
1, 311008, Note_on_c, 0, 48, 69
1, 311030, Note_off_c, 0, 69, 66
1, 311038, Note_off_c, 0, 81, 59
1, 311041, Note_off_c, 0, 75, 64
1, 311047, Note_off_c, 0, 54, 61
1, 311084, Note_on_c, 0, 69, 91
1, 311087, Note_on_c, 0, 81, 81
1, 311091, Note_on_c, 0, 75, 73
1, 311094, Note_on_c, 0, 54, 78
1, 311123, Note_off_c, 0, 69, 68
1, 311128, Note_off_c, 0, 54, 59
1, 311130, Note_off_c, 0, 81, 65
1, 311134, Note_off_c, 0, 48, 65
1, 311134, Note_off_c, 0, 75, 64
1, 311184, Note_on_c, 0, 70, 100
1, 311186, Note_on_c, 0, 82, 97
1, 311192, Note_on_c, 0, 53, 87
1, 311206, Note_on_c, 0, 41, 76
1, 311224, Note_on_c, 0, 80, 36
1, 311225, Note_off_c, 0, 80, 127
1, 311225, Note_off_c, 0, 70, 62
1, 311226, Note_off_c, 0, 82, 65
1, 311231, Note_off_c, 0, 41, 67
1, 311232, Note_off_c, 0, 53, 65
1, 311284, Note_on_c, 0, 83, 95
1, 311291, Note_on_c, 0, 71, 80
1, 311292, Note_on_c, 0, 52, 85
1, 311294, Note_on_c, 0, 72, 77
1, 311307, Note_on_c, 0, 40, 70
1, 311315, Note_off_c, 0, 72, 71
1, 311317, Note_off_c, 0, 71, 66
1, 311325, Note_off_c, 0, 83, 63
1, 311331, Note_off_c, 0, 52, 65
1, 311336, Note_off_c, 0, 40, 66
1, 311352, Control_c, 0, 64, 118
1, 311366, Control_c, 0, 64, 85
1, 311381, Control_c, 0, 64, 63
1, 311390, Note_on_c, 0, 72, 89
1, 311393, Note_on_c, 0, 51, 86
1, 311396, Control_c, 0, 64, 60
1, 311397, Note_on_c, 0, 45, 77
1, 311397, Note_on_c, 0, 78, 86
1, 311399, Note_on_c, 0, 84, 86
1, 311410, Control_c, 0, 64, 75
1, 311424, Note_on_c, 0, 39, 51
1, 311425, Control_c, 0, 64, 95
1, 311430, Note_off_c, 0, 72, 64
1, 311434, Note_on_c, 0, 83, 41
1, 311435, Note_off_c, 0, 83, 127
1, 311440, Note_off_c, 0, 84, 64
1, 311440, Control_c, 0, 64, 127
1, 311443, Note_off_c, 0, 51, 59
1, 311448, Note_off_c, 0, 78, 62
1, 311449, Note_on_c, 0, 43, 24
1, 311454, Note_off_c, 0, 39, 51
1, 311493, Note_on_c, 0, 72, 92
1, 311496, Note_on_c, 0, 51, 80
1, 311497, Note_on_c, 0, 84, 85
1, 311503, Note_on_c, 0, 39, 75
1, 311514, Note_on_c, 0, 78, 48
1, 311530, Note_off_c, 0, 72, 66
1, 311533, Note_off_c, 0, 84, 68
1, 311535, Note_off_c, 0, 78, 48
1, 311536, Note_off_c, 0, 51, 64
1, 311539, Note_off_c, 0, 45, 64
1, 311549, Note_off_c, 0, 39, 63
1, 311589, Note_off_c, 0, 43, 44
1, 311593, Note_on_c, 0, 73, 99
1, 311597, Note_on_c, 0, 85, 100
1, 311602, Note_on_c, 0, 50, 91
1, 311617, Note_on_c, 0, 38, 73
1, 311623, Note_on_c, 0, 80, 50
1, 311624, Note_off_c, 0, 80, 127
1, 311628, Note_off_c, 0, 73, 64
1, 311631, Note_off_c, 0, 85, 66
1, 311632, Note_off_c, 0, 50, 65
1, 311640, Note_on_c, 0, 78, 13
1, 311641, Note_off_c, 0, 78, 127
1, 311648, Note_off_c, 0, 38, 64
1, 311687, Note_on_c, 0, 74, 98
1, 311693, Note_on_c, 0, 49, 95
1, 311695, Note_on_c, 0, 86, 91
1, 311704, Note_on_c, 0, 37, 80
1, 311723, Note_off_c, 0, 74, 70
1, 311729, Note_off_c, 0, 37, 68
1, 311729, Note_off_c, 0, 86, 62
1, 311737, Note_off_c, 0, 49, 62
1, 311803, Note_on_c, 0, 75, 102
1, 311803, Control_c, 0, 64, 97
1, 311804, Note_on_c, 0, 48, 96
1, 311807, Note_on_c, 0, 82, 64
1, 311808, Note_off_c, 0, 82, 127
1, 311808, Note_on_c, 0, 87, 92
1, 311810, Note_on_c, 0, 42, 87
1, 311811, Note_on_c, 0, 81, 93
1, 311818, Control_c, 0, 64, 63
1, 311827, Note_on_c, 0, 36, 63
1, 311833, Control_c, 0, 64, 0
1, 311843, Note_off_c, 0, 75, 66
1, 311848, Control_c, 0, 64, 66
1, 311857, Note_off_c, 0, 36, 62
1, 311858, Note_off_c, 0, 48, 60
1, 311858, Note_off_c, 0, 87, 63
1, 311862, Control_c, 0, 64, 84
1, 311870, Note_off_c, 0, 81, 60
1, 311877, Control_c, 0, 64, 120
1, 311881, Note_off_c, 0, 42, 57
1, 311892, Control_c, 0, 64, 127
1, 311910, Note_on_c, 0, 48, 73
1, 311912, Note_on_c, 0, 75, 96
1, 311914, Note_on_c, 0, 42, 51
1, 311917, Note_on_c, 0, 87, 83
1, 311919, Note_on_c, 0, 81, 68
1, 311924, Note_on_c, 0, 36, 68
1, 311949, Note_off_c, 0, 75, 67
1, 311953, Note_off_c, 0, 48, 65
1, 311956, Note_off_c, 0, 42, 64
1, 311959, Note_off_c, 0, 81, 62
1, 311959, Note_off_c, 0, 36, 63
1, 311965, Note_off_c, 0, 87, 66
1, 312017, Note_on_c, 0, 47, 89
1, 312020, Note_on_c, 0, 76, 90
1, 312025, Note_on_c, 0, 88, 99
1, 312035, Note_on_c, 0, 35, 70
1, 312059, Note_off_c, 0, 76, 70
1, 312060, Note_off_c, 0, 35, 66
1, 312060, Note_off_c, 0, 47, 64
1, 312065, Note_off_c, 0, 88, 67
1, 312122, Note_on_c, 0, 77, 102
1, 312125, Note_on_c, 0, 46, 102
1, 312126, Note_on_c, 0, 89, 99
1, 312138, Note_on_c, 0, 34, 80
1, 312145, Control_c, 0, 64, 122
1, 312155, Note_on_c, 0, 39, 52
1, 312159, Control_c, 0, 64, 91
1, 312160, Note_on_c, 0, 88, 44
1, 312162, Note_off_c, 0, 77, 65
1, 312164, Note_off_c, 0, 46, 62
1, 312164, Note_off_c, 0, 89, 66
1, 312171, Note_off_c, 0, 34, 66
1, 312174, Control_c, 0, 64, 78
1, 312183, Note_off_c, 0, 39, 52
1, 312185, Note_off_c, 0, 88, 40
1, 312189, Control_c, 0, 64, 78
1, 312204, Control_c, 0, 64, 88
1, 312219, Control_c, 0, 64, 107
1, 312227, Note_on_c, 0, 78, 100
1, 312233, Note_on_c, 0, 90, 97
1, 312233, Note_on_c, 0, 45, 92
1, 312233, Control_c, 0, 64, 127
1, 312239, Note_on_c, 0, 84, 92
1, 312242, Note_on_c, 0, 39, 89
1, 312243, Note_on_c, 0, 85, 51
1, 312244, Note_off_c, 0, 85, 127
1, 312249, Note_on_c, 0, 33, 74
1, 312269, Note_off_c, 0, 78, 62
1, 312282, Note_off_c, 0, 33, 64
1, 312288, Note_off_c, 0, 90, 63
1, 312290, Note_off_c, 0, 45, 63
1, 312291, Note_off_c, 0, 84, 62
1, 312305, Note_off_c, 0, 39, 60
1, 312337, Note_on_c, 0, 78, 98
1, 312339, Note_on_c, 0, 90, 82
1, 312343, Note_on_c, 0, 45, 84
1, 312350, Note_on_c, 0, 39, 63
1, 312353, Note_on_c, 0, 84, 69
1, 312356, Note_on_c, 0, 33, 70
1, 312374, Note_off_c, 0, 78, 65
1, 312377, Note_off_c, 0, 84, 70
1, 312388, Note_off_c, 0, 33, 64
1, 312392, Note_off_c, 0, 45, 64
1, 312394, Note_off_c, 0, 90, 66
1, 312403, Note_off_c, 0, 39, 63
1, 312448, Note_on_c, 0, 79, 96
1, 312455, Note_on_c, 0, 44, 94
1, 312455, Note_on_c, 0, 91, 99
1, 312463, Note_on_c, 0, 32, 81
1, 312496, Note_off_c, 0, 79, 67
1, 312500, Note_off_c, 0, 91, 60
1, 312502, Note_off_c, 0, 44, 63
1, 312503, Note_on_c, 0, 34, 30
1, 312505, Note_off_c, 0, 32, 66
1, 312530, Note_off_c, 0, 34, 59
1, 312562, Note_on_c, 0, 80, 99
1, 312562, Note_on_c, 0, 92, 104
1, 312570, Note_on_c, 0, 43, 92
1, 312586, Note_on_c, 0, 31, 75
1, 312597, Note_off_c, 0, 80, 66
1, 312612, Note_off_c, 0, 31, 65
1, 312612, Note_off_c, 0, 92, 65
1, 312615, Note_off_c, 0, 43, 63
1, 312626, Control_c, 0, 64, 91
1, 312641, Control_c, 0, 64, 64
1, 312656, Control_c, 0, 64, 0
1, 312671, Control_c, 0, 64, 65
1, 312674, Note_on_c, 0, 81, 98
1, 312677, Note_on_c, 0, 87, 91
1, 312679, Note_on_c, 0, 42, 94
1, 312681, Note_on_c, 0, 93, 93
1, 312685, Control_c, 0, 64, 84
1, 312690, Note_on_c, 0, 36, 80
1, 312697, Note_on_c, 0, 30, 70
1, 312700, Control_c, 0, 64, 120
1, 312715, Control_c, 0, 64, 127
1, 312718, Note_off_c, 0, 81, 64
1, 312731, Note_off_c, 0, 93, 63
1, 312733, Note_off_c, 0, 30, 61
1, 312740, Note_off_c, 0, 42, 62
1, 312749, Note_off_c, 0, 87, 62
1, 312777, Note_off_c, 0, 36, 0
1, 312790, Note_on_c, 0, 42, 83
1, 312790, Note_on_c, 0, 81, 98
1, 312796, Note_on_c, 0, 87, 63
1, 312797, Note_on_c, 0, 93, 95
1, 312798, Note_on_c, 0, 36, 44
1, 312803, Note_on_c, 0, 30, 75
1, 312823, Note_off_c, 0, 87, 66
1, 312826, Note_off_c, 0, 81, 67
1, 312832, Note_off_c, 0, 36, 63
1, 312834, Note_off_c, 0, 93, 63
1, 312844, Note_off_c, 0, 42, 62
1, 312845, Note_off_c, 0, 30, 62
1, 312852, Poly_aftertouch_c, 0, 33, 127
1, 312898, Note_on_c, 0, 41, 91
1, 312901, Poly_aftertouch_c, 0, 33, 0
1, 312902, Note_on_c, 0, 82, 101
1, 312906, Note_on_c, 0, 94, 95
1, 312911, Note_on_c, 0, 29, 72
1, 312922, Note_on_c, 0, 92, 70
1, 312937, Note_off_c, 0, 92, 63
1, 312939, Note_off_c, 0, 29, 61
1, 312942, Note_off_c, 0, 82, 64
1, 312945, Note_off_c, 0, 41, 65
1, 312951, Note_off_c, 0, 94, 68
1, 313007, Note_on_c, 0, 40, 93
1, 313012, Note_on_c, 0, 83, 96
1, 313019, Note_on_c, 0, 95, 97
1, 313029, Note_on_c, 0, 28, 71
1, 313053, Note_off_c, 0, 28, 63
1, 313053, Note_off_c, 0, 40, 65
1, 313056, Note_off_c, 0, 83, 63
1, 313066, Note_on_c, 0, 93, 15
1, 313068, Note_off_c, 0, 95, 67
1, 313113, Note_off_c, 0, 93, 33
1, 313130, Control_c, 0, 64, 89
1, 313142, Note_on_c, 0, 39, 96
1, 313145, Control_c, 0, 64, 0
1, 313148, Note_on_c, 0, 84, 104
1, 313150, Note_on_c, 0, 96, 103
1, 313151, Note_on_c, 0, 33, 75
1, 313154, Note_on_c, 0, 90, 93
1, 313157, Note_on_c, 0, 27, 83
1, 313174, Control_c, 0, 64, 60
1, 313176, Note_on_c, 0, 31, 52
1, 313187, Note_off_c, 0, 84, 67
1, 313187, Note_off_c, 0, 96, 65
1, 313189, Control_c, 0, 64, 77
1, 313204, Control_c, 0, 64, 103
1, 313209, Note_off_c, 0, 39, 61
1, 313209, Note_off_c, 0, 90, 62
1, 313210, Note_off_c, 0, 31, 53
1, 313212, Note_off_c, 0, 33, 61
1, 313219, Control_c, 0, 64, 127
1, 313220, Note_off_c, 0, 27, 65
1, 313282, Note_on_c, 0, 82, 101
1, 313287, Note_on_c, 0, 94, 104
1, 313298, Note_on_c, 0, 40, 85
1, 313305, Note_on_c, 0, 38, 61
1, 313306, Note_on_c, 0, 28, 68
1, 313326, Note_on_c, 0, 26, 34
1, 313327, Note_off_c, 0, 82, 65
1, 313333, Note_off_c, 0, 38, 58
1, 313341, Note_off_c, 0, 94, 67
1, 313343, Note_off_c, 0, 40, 63
1, 313345, Note_off_c, 0, 28, 60
1, 313375, Note_off_c, 0, 26, 42
1, 313411, Note_on_c, 0, 83, 96
1, 313413, Note_on_c, 0, 39, 93
1, 313414, Note_on_c, 0, 95, 99
1, 313426, Note_on_c, 0, 27, 76
1, 313436, Note_on_c, 0, 94, 66
1, 313454, Note_off_c, 0, 83, 64
1, 313455, Note_off_c, 0, 39, 64
1, 313458, Note_off_c, 0, 27, 61
1, 313460, Note_off_c, 0, 94, 66
1, 313467, Note_off_c, 0, 95, 66
1, 313527, Note_on_c, 0, 84, 104
1, 313528, Note_on_c, 0, 96, 97
1, 313533, Note_on_c, 0, 38, 92
1, 313552, Note_on_c, 0, 26, 72
1, 313559, Note_on_c, 0, 95, 56
1, 313570, Note_off_c, 0, 84, 68
1, 313572, Note_off_c, 0, 96, 65
1, 313581, Note_off_c, 0, 38, 64
1, 313581, Note_off_c, 0, 26, 65
1, 313584, Note_off_c, 0, 95, 52
1, 313640, Control_c, 0, 64, 95
1, 313656, Control_c, 0, 64, 62
1, 313657, Note_on_c, 0, 85, 99
1, 313658, Note_on_c, 0, 37, 87
1, 313660, Note_on_c, 0, 32, 54
1, 313660, Note_on_c, 0, 89, 90
1, 313660, Note_on_c, 0, 97, 100
1, 313666, Note_on_c, 0, 93, 25
1, 313671, Control_c, 0, 64, 0
1, 313672, Note_on_c, 0, 25, 80
1, 313701, Control_c, 0, 64, 55
1, 313711, Note_off_c, 0, 85, 63
1, 313716, Control_c, 0, 64, 81
1, 313719, Note_off_c, 0, 93, 45
1, 313720, Note_off_c, 0, 97, 66
1, 313721, Note_off_c, 0, 37, 64
1, 313724, Note_off_c, 0, 89, 65
1, 313730, Control_c, 0, 64, 117
1, 313736, Note_off_c, 0, 25, 64
1, 313742, Note_off_c, 0, 32, 62
1, 313745, Control_c, 0, 64, 127
1, 313787, Note_on_c, 0, 84, 97
1, 313790, Note_on_c, 0, 96, 93
1, 313791, Note_on_c, 0, 38, 86
1, 313793, Note_on_c, 0, 90, 88
1, 313798, Note_on_c, 0, 32, 70
1, 313804, Note_on_c, 0, 26, 72
1, 313827, Note_off_c, 0, 96, 65
1, 313829, Note_off_c, 0, 84, 65
1, 313834, Note_off_c, 0, 26, 63
1, 313839, Note_off_c, 0, 38, 64
1, 313852, Note_off_c, 0, 90, 65
1, 313862, Note_off_c, 0, 32, 61
1, 313900, Note_on_c, 0, 85, 100
1, 313904, Note_on_c, 0, 97, 104
1, 313907, Note_on_c, 0, 37, 91
1, 313908, Note_on_c, 0, 89, 88
1, 313911, Note_on_c, 0, 32, 71
1, 313919, Note_on_c, 0, 93, 13
1, 313921, Note_on_c, 0, 25, 79
1, 313935, Note_on_c, 0, 27, 53
1, 313945, Note_off_c, 0, 85, 63
1, 313947, Note_off_c, 0, 97, 66
1, 313957, Note_off_c, 0, 37, 65
1, 313959, Note_off_c, 0, 25, 67
1, 313963, Note_off_c, 0, 89, 65
1, 313969, Note_off_c, 0, 93, 34
1, 313971, Note_off_c, 0, 27, 50
1, 313999, Note_off_c, 0, 32, 56
1, 314027, Note_on_c, 0, 84, 97
1, 314028, Note_on_c, 0, 38, 89
1, 314029, Note_on_c, 0, 32, 49
1, 314031, Note_on_c, 0, 96, 89
1, 314033, Note_on_c, 0, 90, 87
1, 314040, Note_on_c, 0, 26, 78
1, 314066, Note_off_c, 0, 26, 64
1, 314068, Note_off_c, 0, 84, 66
1, 314070, Note_on_c, 0, 95, 28
1, 314072, Note_off_c, 0, 96, 66
1, 314075, Note_off_c, 0, 38, 63
1, 314091, Note_off_c, 0, 32, 63
1, 314092, Note_off_c, 0, 90, 64
1, 314106, Note_off_c, 0, 95, 32
1, 314108, Poly_aftertouch_c, 0, 36, 127
1, 314137, Note_on_c, 0, 85, 99
1, 314138, Poly_aftertouch_c, 0, 32, 0
1, 314141, Note_on_c, 0, 37, 93
1, 314141, Note_on_c, 0, 97, 102
1, 314143, Poly_aftertouch_c, 0, 36, 0
1, 314145, Note_on_c, 0, 32, 81
1, 314147, Note_on_c, 0, 89, 89
1, 314154, Note_on_c, 0, 25, 80
1, 314185, Note_off_c, 0, 85, 62
1, 314190, Note_off_c, 0, 37, 64
1, 314193, Note_off_c, 0, 97, 65
1, 314195, Note_off_c, 0, 25, 66
1, 314200, Note_off_c, 0, 89, 63
1, 314213, Note_off_c, 0, 32, 62
1, 314227, Poly_aftertouch_c, 0, 27, 0
1, 314254, Note_on_c, 0, 84, 101
1, 314254, Note_on_c, 0, 38, 94
1, 314257, Note_on_c, 0, 96, 91
1, 314257, Poly_aftertouch_c, 0, 32, 0
1, 314265, Note_on_c, 0, 32, 72
1, 314265, Note_on_c, 0, 90, 88
1, 314269, Note_on_c, 0, 26, 74
1, 314286, Note_on_c, 0, 95, 41
1, 314291, Note_on_c, 0, 29, 42
1, 314295, Note_off_c, 0, 26, 64
1, 314299, Note_off_c, 0, 84, 67
1, 314302, Note_off_c, 0, 96, 65
1, 314308, Note_off_c, 0, 38, 64
1, 314316, Note_off_c, 0, 95, 42
1, 314323, Note_off_c, 0, 32, 63
1, 314323, Note_off_c, 0, 90, 66
1, 314334, Note_off_c, 0, 29, 46
1, 314368, Note_on_c, 0, 85, 102
1, 314371, Note_on_c, 0, 97, 100
1, 314374, Poly_aftertouch_c, 0, 32, 0
1, 314375, Note_on_c, 0, 37, 96
1, 314376, Note_on_c, 0, 89, 95
1, 314380, Note_on_c, 0, 32, 82
1, 314383, Note_on_c, 0, 93, 39
1, 314387, Note_on_c, 0, 25, 83
1, 314397, Note_on_c, 0, 95, 57
1, 314407, Note_on_c, 0, 27, 50
1, 314412, Note_off_c, 0, 93, 50
1, 314416, Note_off_c, 0, 95, 60
1, 314418, Note_off_c, 0, 37, 64
1, 314418, Note_off_c, 0, 85, 62
1, 314423, Note_off_c, 0, 97, 66
1, 314431, Note_off_c, 0, 25, 64
1, 314436, Note_off_c, 0, 89, 65
1, 314443, Note_off_c, 0, 27, 46
1, 314448, Note_off_c, 0, 32, 61
1, 314490, Note_on_c, 0, 84, 98
1, 314493, Note_on_c, 0, 38, 98
1, 314494, Note_on_c, 0, 96, 93
1, 314499, Note_on_c, 0, 90, 90
1, 314502, Note_on_c, 0, 32, 71
1, 314507, Note_on_c, 0, 26, 79
1, 314507, Note_on_c, 0, 95, 56
1, 314514, Note_on_c, 0, 93, 42
1, 314526, Note_off_c, 0, 95, 57
1, 314535, Note_off_c, 0, 84, 67
1, 314537, Note_off_c, 0, 26, 64
1, 314537, Note_off_c, 0, 96, 66
1, 314545, Note_off_c, 0, 38, 64
1, 314547, Note_off_c, 0, 93, 34
1, 314548, Note_on_c, 0, 29, 27
1, 314558, Note_off_c, 0, 32, 62
1, 314564, Note_off_c, 0, 90, 65
1, 314591, Note_off_c, 0, 29, 52
1, 314593, Note_on_c, 0, 31, 3
1, 314611, Note_on_c, 0, 85, 108
1, 314613, Note_on_c, 0, 37, 100
1, 314613, Note_on_c, 0, 97, 104
1, 314623, Note_on_c, 0, 89, 85
1, 314624, Note_on_c, 0, 25, 87
1, 314627, Note_on_c, 0, 32, 76
1, 314628, Poly_aftertouch_c, 0, 27, 0
1, 314630, Note_off_c, 0, 31, 55
1, 314637, Note_on_c, 0, 27, 37
1, 314639, Note_on_c, 0, 95, 42
1, 314657, Note_off_c, 0, 85, 61
1, 314661, Note_off_c, 0, 95, 50
1, 314663, Note_off_c, 0, 97, 66
1, 314670, Note_off_c, 0, 37, 63
1, 314672, Note_off_c, 0, 25, 65
1, 314680, Note_off_c, 0, 27, 50
1, 314682, Note_off_c, 0, 89, 62
1, 314695, Note_off_c, 0, 32, 62
1, 314743, Note_on_c, 0, 84, 101
1, 314745, Note_on_c, 0, 96, 90
1, 314748, Note_on_c, 0, 38, 98
1, 314750, Note_on_c, 0, 90, 91
1, 314755, Note_on_c, 0, 26, 78
1, 314758, Note_on_c, 0, 32, 73
1, 314773, Note_on_c, 0, 95, 44
1, 314785, Note_on_c, 0, 27, 32
1, 314788, Note_off_c, 0, 84, 65
1, 314791, Note_off_c, 0, 26, 64
1, 314791, Note_off_c, 0, 96, 65
1, 314800, Note_off_c, 0, 38, 65
1, 314800, Note_off_c, 0, 95, 37
1, 314818, Note_off_c, 0, 32, 63
1, 314818, Note_off_c, 0, 90, 64
1, 314827, Note_off_c, 0, 27, 41
1, 314836, Poly_aftertouch_c, 0, 29, 127
1, 314875, Note_on_c, 0, 85, 104
1, 314877, Note_on_c, 0, 97, 98
1, 314878, Note_on_c, 0, 37, 94
1, 314884, Note_on_c, 0, 32, 80
1, 314886, Note_on_c, 0, 89, 85
1, 314893, Note_on_c, 0, 25, 77
1, 314908, Note_on_c, 0, 27, 59
1, 314912, Note_on_c, 0, 95, 40
1, 314934, Note_off_c, 0, 27, 63
1, 314934, Note_off_c, 0, 85, 62
1, 314937, Note_off_c, 0, 37, 64
1, 314937, Note_on_c, 0, 38, 23
1, 314941, Note_off_c, 0, 95, 46
1, 314941, Note_off_c, 0, 97, 65
1, 314942, Note_off_c, 0, 89, 64
1, 314943, Note_off_c, 0, 25, 63
1, 314967, Poly_aftertouch_c, 0, 29, 0
1, 314970, Note_off_c, 0, 32, 59
1, 314983, Note_off_c, 0, 38, 39
1, 315014, Note_on_c, 0, 84, 102
1, 315016, Note_on_c, 0, 96, 93
1, 315017, Note_on_c, 0, 38, 84
1, 315020, Note_on_c, 0, 90, 108
1, 315039, Note_on_c, 0, 95, 45
1, 315041, Note_on_c, 0, 26, 66
1, 315049, Note_on_c, 0, 24, 61
1, 315059, Note_on_c, 0, 27, 12
1, 315066, Note_on_c, 0, 29, 26
1, 315066, Note_off_c, 0, 95, 45
1, 315077, Note_off_c, 0, 96, 62
1, 315077, Note_off_c, 0, 84, 62
1, 315078, Note_off_c, 0, 26, 63
1, 315082, Note_off_c, 0, 38, 62
1, 315092, Note_off_c, 0, 24, 46
1, 315103, Poly_aftertouch_c, 0, 32, 127
1, 315106, Note_off_c, 0, 90, 61
1, 315116, Note_off_c, 0, 27, 52
1, 315119, Note_on_c, 0, 31, 30
1, 315125, Control_c, 0, 64, 127
1, 315128, Note_off_c, 0, 29, 42
1, 315140, Poly_aftertouch_c, 0, 32, 0
1, 315140, Control_c, 0, 64, 88
1, 315154, Control_c, 0, 64, 0
1, 315155, Note_off_c, 0, 31, 55
1, 315175, Note_on_c, 0, 85, 101
1, 315176, Note_on_c, 0, 37, 100
1, 315178, Note_on_c, 0, 97, 101
1, 315180, Note_on_c, 0, 25, 92
1, 315183, Note_on_c, 0, 89, 91
1, 315199, Control_c, 0, 64, 69
1, 315214, Control_c, 0, 64, 93
1, 315218, Note_off_c, 0, 97, 66
1, 315222, Note_off_c, 0, 85, 63
1, 315225, Note_off_c, 0, 25, 64
1, 315228, Note_off_c, 0, 89, 66
1, 315229, Control_c, 0, 64, 127
1, 315231, Note_off_c, 0, 37, 65
1, 315366, Note_on_c, 0, 49, 93
1, 315375, Note_on_c, 0, 37, 79
1, 315404, Note_off_c, 0, 37, 68
1, 315421, Note_off_c, 0, 49, 58
1, 315509, Note_on_c, 0, 62, 101
1, 315515, Note_on_c, 0, 74, 95
1, 315526, Note_on_c, 0, 50, 94
1, 315536, Note_on_c, 0, 38, 81
1, 315547, Note_off_c, 0, 62, 67
1, 315547, Note_off_c, 0, 74, 72
1, 315576, Note_off_c, 0, 50, 64
1, 315583, Note_off_c, 0, 38, 62
1, 315606, Note_on_c, 0, 43, 7
1, 315616, Poly_aftertouch_c, 0, 73, 0
1, 315673, Note_on_c, 0, 63, 99
1, 315674, Note_off_c, 0, 43, 40
1, 315676, Note_on_c, 0, 75, 101
1, 315683, Note_on_c, 0, 51, 105
1, 315693, Note_on_c, 0, 39, 76
1, 315698, Note_off_c, 0, 63, 65
1, 315712, Note_on_c, 0, 73, 39
1, 315713, Note_off_c, 0, 73, 127
1, 315714, Note_off_c, 0, 75, 66
1, 315724, Note_off_c, 0, 51, 65
1, 315738, Note_off_c, 0, 39, 63
1, 315903, Control_c, 0, 64, 102
1, 315918, Control_c, 0, 64, 72
1, 315933, Note_on_c, 0, 98, 49
1, 315933, Control_c, 0, 64, 0
1, 315938, Note_on_c, 0, 92, 99
1, 315939, Note_on_c, 0, 102, 95
1, 315945, Note_on_c, 0, 40, 93
1, 315945, Note_on_c, 0, 52, 112
1, 315946, Note_on_c, 0, 95, 82
1, 315949, Note_on_c, 0, 90, 85
1, 315992, Control_c, 0, 64, 73
1, 315994, Note_on_c, 0, 94, 11
1, 315995, Note_off_c, 0, 94, 127
1, 316002, Note_off_c, 0, 40, 65
1, 316007, Control_c, 0, 64, 92
1, 316009, Note_off_c, 0, 92, 65
1, 316013, Note_off_c, 0, 102, 65
1, 316014, Note_off_c, 0, 52, 69
1, 316019, Note_off_c, 0, 95, 64
1, 316022, Control_c, 0, 64, 115
1, 316026, Note_off_c, 0, 98, 66
1, 316037, Control_c, 0, 64, 123
1, 316052, Control_c, 0, 64, 127
1, 316072, Note_off_c, 0, 90, 54
1, 316216, Note_on_c, 0, 60, 20
1, 316244, Note_on_c, 0, 98, 90
1, 316246, Note_on_c, 0, 86, 94
1, 316246, Note_on_c, 0, 88, 94
1, 316248, Note_on_c, 0, 95, 52
1, 316251, Note_on_c, 0, 92, 84
1, 316257, Note_on_c, 0, 68, 101
1, 316261, Note_on_c, 0, 56, 88
1, 316267, Note_off_c, 0, 60, 48
1, 316284, Note_off_c, 0, 88, 64
1, 316286, Note_off_c, 0, 68, 70
1, 316286, Note_off_c, 0, 86, 66
1, 316288, Note_off_c, 0, 98, 66
1, 316298, Note_off_c, 0, 95, 66
1, 316301, Note_off_c, 0, 92, 66
1, 316302, Note_off_c, 0, 56, 68
1, 316520, Control_c, 0, 64, 116
1, 316534, Control_c, 0, 64, 86
1, 316540, Note_on_c, 0, 80, 102
1, 316541, Note_on_c, 0, 92, 90
1, 316547, Note_on_c, 0, 73, 108
1, 316548, Note_on_c, 0, 61, 86
1, 316549, Control_c, 0, 64, 39
1, 316550, Note_on_c, 0, 90, 93
1, 316552, Note_on_c, 0, 86, 83
1, 316564, Control_c, 0, 64, 0
1, 316578, Note_on_c, 0, 82, 42
1, 316585, Note_off_c, 0, 82, 48
1, 316593, Control_c, 0, 64, 67
1, 316594, Note_off_c, 0, 80, 63
1, 316594, Note_off_c, 0, 86, 60
1, 316598, Note_off_c, 0, 92, 66
1, 316603, Note_off_c, 0, 90, 63
1, 316607, Control_c, 0, 64, 85
1, 316622, Control_c, 0, 64, 109
1, 316637, Control_c, 0, 64, 127
1, 316731, Note_on_c, 0, 86, 32
1, 316774, Note_off_c, 0, 61, 61
1, 316777, Note_off_c, 0, 73, 55
1, 316781, Note_off_c, 0, 86, 42
1, 316807, Note_on_c, 0, 90, 96
1, 316812, Note_on_c, 0, 80, 99
1, 316812, Note_on_c, 0, 78, 97
1, 316836, Note_on_c, 0, 83, 46
1, 316850, Note_off_c, 0, 90, 67
1, 316853, Note_off_c, 0, 80, 66
1, 316860, Note_off_c, 0, 83, 53
1, 316869, Poly_aftertouch_c, 0, 67, 127
1, 316873, Note_off_c, 0, 78, 64
1, 316898, Poly_aftertouch_c, 0, 67, 0
1, 316938, Note_on_c, 0, 71, 91
1, 316939, Note_on_c, 0, 59, 77
1, 316956, Note_off_c, 0, 71, 70
1, 316991, Note_off_c, 0, 59, 65
1, 317060, Note_on_c, 0, 69, 75
1, 317060, Control_c, 0, 64, 105
1, 317074, Control_c, 0, 64, 74
1, 317089, Note_on_c, 0, 57, 92
1, 317089, Control_c, 0, 64, 0
1, 317098, Note_on_c, 0, 45, 81
1, 317098, Note_on_c, 0, 71, 66
1, 317103, Note_off_c, 0, 69, 65
1, 317119, Control_c, 0, 64, 61
1, 317126, Note_on_c, 0, 73, 70
1, 317134, Control_c, 0, 64, 76
1, 317135, Note_off_c, 0, 45, 64
1, 317137, Note_off_c, 0, 57, 64
1, 317147, Note_off_c, 0, 71, 61
1, 317149, Control_c, 0, 64, 93
1, 317164, Control_c, 0, 64, 113
1, 317173, Note_off_c, 0, 73, 65
1, 317179, Control_c, 0, 64, 118
1, 317193, Control_c, 0, 64, 119
1, 317201, Note_on_c, 0, 74, 72
1, 317206, Poly_aftertouch_c, 0, 49, 127
1, 317208, Control_c, 0, 64, 121
1, 317222, Note_on_c, 0, 56, 97
1, 317223, Control_c, 0, 64, 125
1, 317232, Note_on_c, 0, 44, 80
1, 317238, Control_c, 0, 64, 127
1, 317244, Note_off_c, 0, 74, 63
1, 317247, Note_on_c, 0, 76, 73
1, 317265, Note_off_c, 0, 56, 65
1, 317268, Note_on_c, 0, 78, 74
1, 317295, Note_off_c, 0, 44, 64
1, 317309, Note_off_c, 0, 76, 65
1, 317310, Note_on_c, 0, 80, 73
1, 317313, Poly_aftertouch_c, 0, 49, 0
1, 317331, Note_off_c, 0, 78, 66
1, 317338, Note_off_c, 0, 80, 65
1, 317360, Note_on_c, 0, 55, 95
1, 317367, Note_on_c, 0, 43, 82
1, 317369, Note_on_c, 0, 81, 85
1, 317410, Note_off_c, 0, 55, 64
1, 317410, Note_off_c, 0, 81, 61
1, 317417, Note_on_c, 0, 83, 67
1, 317426, Note_off_c, 0, 43, 61
1, 317435, Note_on_c, 0, 85, 81
1, 317443, Note_off_c, 0, 83, 67
1, 317456, Poly_aftertouch_c, 0, 45, 127
1, 317471, Note_off_c, 0, 85, 65
1, 317487, Poly_aftertouch_c, 0, 45, 0
1, 317494, Note_on_c, 0, 54, 91
1, 317497, Note_on_c, 0, 42, 85
1, 317499, Note_on_c, 0, 86, 79
1, 317505, Control_c, 0, 64, 106
1, 317520, Control_c, 0, 64, 83
1, 317535, Control_c, 0, 64, 73
1, 317539, Note_off_c, 0, 54, 63
1, 317542, Note_off_c, 0, 86, 64
1, 317545, Note_on_c, 0, 88, 68
1, 317549, Control_c, 0, 64, 76
1, 317558, Note_off_c, 0, 42, 63
1, 317563, Note_on_c, 0, 90, 80
1, 317564, Control_c, 0, 64, 87
1, 317579, Control_c, 0, 64, 103
1, 317587, Note_off_c, 0, 88, 60
1, 317590, Poly_aftertouch_c, 0, 44, 127
1, 317591, Note_on_c, 0, 92, 77
1, 317594, Control_c, 0, 64, 124
1, 317608, Control_c, 0, 64, 127
1, 317613, Note_off_c, 0, 90, 65
1, 317617, Note_off_c, 0, 92, 67
1, 317622, Poly_aftertouch_c, 0, 44, 0
1, 317625, Note_on_c, 0, 53, 94
1, 317637, Note_on_c, 0, 41, 81
1, 317655, Note_on_c, 0, 93, 81
1, 317673, Note_off_c, 0, 53, 67
1, 317683, Note_off_c, 0, 93, 59
1, 317685, Note_on_c, 0, 95, 70
1, 317688, Note_off_c, 0, 41, 63
1, 317715, Note_on_c, 0, 97, 88
1, 317726, Note_off_c, 0, 95, 62
1, 317755, Note_off_c, 0, 97, 63
1, 317761, Note_on_c, 0, 52, 86
1, 317775, Note_on_c, 0, 40, 73
1, 317781, Note_on_c, 0, 98, 75
1, 317790, Note_on_c, 0, 41, 50
1, 317805, Note_off_c, 0, 52, 66
1, 317813, Note_off_c, 0, 40, 65
1, 317817, Note_on_c, 0, 100, 89
1, 317819, Note_off_c, 0, 41, 61
1, 317843, Note_off_c, 0, 98, 67
1, 317845, Note_on_c, 0, 102, 87
1, 317878, Note_off_c, 0, 100, 65
1, 317888, Note_on_c, 0, 49, 98
1, 317901, Note_on_c, 0, 37, 81
1, 317906, Note_on_c, 0, 105, 103
1, 317912, Note_on_c, 0, 39, 60
1, 317913, Control_c, 0, 64, 105
1, 317927, Note_off_c, 0, 49, 64
1, 317927, Note_off_c, 0, 102, 65
1, 317928, Note_on_c, 0, 42, 37
1, 317928, Control_c, 0, 64, 85
1, 317941, Note_off_c, 0, 37, 64
1, 317943, Control_c, 0, 64, 68
1, 317947, Note_off_c, 0, 39, 62
1, 317954, Note_off_c, 0, 105, 67
1, 317958, Control_c, 0, 64, 0
1, 317959, Note_off_c, 0, 42, 47
1, 318019, Note_on_c, 0, 45, 94
1, 318028, Note_on_c, 0, 33, 91
1, 318053, Note_off_c, 0, 45, 65
1, 318070, Note_off_c, 0, 33, 62
1, 318084, Note_on_c, 0, 97, 43
1, 318147, Note_off_c, 0, 97, 54
1, 318190, Note_on_c, 0, 102, 99
1, 318192, Note_on_c, 0, 90, 86
1, 318195, Note_on_c, 0, 92, 94
1, 318195, Note_on_c, 0, 98, 82
1, 318200, Note_on_c, 0, 40, 101
1, 318203, Note_on_c, 0, 95, 77
1, 318209, Note_on_c, 0, 28, 91
1, 318210, Control_c, 0, 64, 76
1, 318224, Control_c, 0, 64, 96
1, 318234, Note_on_c, 0, 32, 41
1, 318236, Note_on_c, 0, 91, 35
1, 318239, Control_c, 0, 64, 116
1, 318240, Note_off_c, 0, 28, 66
1, 318252, Note_off_c, 0, 102, 66
1, 318254, Control_c, 0, 64, 127
1, 318256, Note_off_c, 0, 95, 65
1, 318261, Note_off_c, 0, 92, 57
1, 318264, Note_off_c, 0, 40, 66
1, 318266, Note_off_c, 0, 98, 66
1, 318268, Note_off_c, 0, 91, 37
1, 318277, Note_off_c, 0, 32, 49
1, 318290, Note_off_c, 0, 90, 62
1, 318313, Poly_aftertouch_c, 0, 34, 0
1, 318493, Note_on_c, 0, 95, 66
1, 318495, Note_on_c, 0, 98, 92
1, 318496, Note_on_c, 0, 88, 94
1, 318498, Note_on_c, 0, 86, 95
1, 318505, Note_on_c, 0, 92, 83
1, 318513, Note_on_c, 0, 68, 99
1, 318515, Note_on_c, 0, 56, 86
1, 318533, Note_off_c, 0, 88, 63
1, 318534, Note_on_c, 0, 66, 65
1, 318538, Note_off_c, 0, 86, 63
1, 318539, Note_off_c, 0, 98, 66
1, 318546, Note_off_c, 0, 68, 63
1, 318547, Note_off_c, 0, 95, 66
1, 318550, Note_off_c, 0, 92, 65
1, 318552, Note_off_c, 0, 66, 66
1, 318553, Note_off_c, 0, 56, 66
1, 318776, Note_on_c, 0, 80, 103
1, 318779, Note_on_c, 0, 92, 94
1, 318781, Control_c, 0, 64, 98
1, 318786, Note_on_c, 0, 73, 100
1, 318787, Note_on_c, 0, 90, 86
1, 318790, Note_on_c, 0, 61, 90
1, 318790, Note_on_c, 0, 86, 82
1, 318796, Control_c, 0, 64, 70
1, 318810, Control_c, 0, 64, 0
1, 318832, Note_off_c, 0, 86, 58
1, 318840, Control_c, 0, 64, 69
1, 318843, Note_off_c, 0, 80, 59
1, 318847, Note_off_c, 0, 90, 60
1, 318849, Note_off_c, 0, 92, 65
1, 318854, Control_c, 0, 64, 87
1, 318869, Control_c, 0, 64, 113
1, 318884, Control_c, 0, 64, 127
1, 319004, Note_off_c, 0, 73, 57
1, 319015, Note_off_c, 0, 61, 61
1, 319034, Poly_aftertouch_c, 0, 86, 127
1, 319045, Note_on_c, 0, 90, 90
1, 319045, Note_on_c, 0, 80, 93
1, 319048, Note_on_c, 0, 78, 98
1, 319066, Note_on_c, 0, 83, 58
1, 319084, Poly_aftertouch_c, 0, 86, 0
1, 319084, Note_off_c, 0, 90, 68
1, 319085, Note_off_c, 0, 80, 66
1, 319085, Note_off_c, 0, 83, 63
1, 319105, Note_off_c, 0, 78, 65
1, 319166, Note_on_c, 0, 59, 80
1, 319166, Note_on_c, 0, 71, 90
1, 319187, Note_off_c, 0, 71, 67
1, 319209, Note_off_c, 0, 59, 66
1, 319293, Control_c, 0, 64, 104
1, 319296, Note_on_c, 0, 69, 72
1, 319308, Control_c, 0, 64, 77
1, 319322, Note_on_c, 0, 57, 94
1, 319323, Control_c, 0, 64, 0
1, 319325, Note_on_c, 0, 71, 67
1, 319328, Note_on_c, 0, 45, 86
1, 319335, Note_off_c, 0, 69, 67
1, 319352, Control_c, 0, 64, 16
1, 319357, Note_on_c, 0, 73, 62
1, 319367, Note_off_c, 0, 57, 64
1, 319367, Control_c, 0, 64, 67
1, 319372, Note_off_c, 0, 71, 62
1, 319375, Note_off_c, 0, 45, 58
1, 319382, Control_c, 0, 64, 80
1, 319396, Control_c, 0, 64, 88
1, 319399, Note_off_c, 0, 73, 65
1, 319411, Control_c, 0, 64, 93
1, 319426, Control_c, 0, 64, 95
1, 319434, Note_on_c, 0, 74, 75
1, 319441, Control_c, 0, 64, 98
1, 319456, Control_c, 0, 64, 104
1, 319468, Note_on_c, 0, 56, 96
1, 319471, Control_c, 0, 64, 113
1, 319473, Note_on_c, 0, 44, 84
1, 319480, Note_off_c, 0, 74, 63
1, 319485, Note_on_c, 0, 76, 74
1, 319486, Control_c, 0, 64, 120
1, 319486, Note_on_c, 0, 50, 39
1, 319501, Control_c, 0, 64, 122
1, 319510, Note_on_c, 0, 78, 74
1, 319513, Note_off_c, 0, 56, 65
1, 319517, Note_off_c, 0, 50, 55
1, 319530, Control_c, 0, 64, 119
1, 319536, Note_off_c, 0, 44, 64
1, 319541, Poly_aftertouch_c, 0, 48, 127
1, 319542, Note_off_c, 0, 76, 65
1, 319544, Note_on_c, 0, 80, 74
1, 319545, Control_c, 0, 64, 103
1, 319560, Control_c, 0, 64, 88
1, 319566, Note_off_c, 0, 78, 66
1, 319575, Control_c, 0, 64, 81
1, 319578, Note_off_c, 0, 80, 62
1, 319584, Poly_aftertouch_c, 0, 48, 0
1, 319590, Control_c, 0, 64, 83
1, 319603, Note_on_c, 0, 55, 96
1, 319604, Control_c, 0, 64, 91
1, 319608, Note_on_c, 0, 81, 79
1, 319610, Note_on_c, 0, 43, 91
1, 319619, Control_c, 0, 64, 103
1, 319634, Control_c, 0, 64, 115
1, 319649, Control_c, 0, 64, 120
1, 319650, Note_off_c, 0, 81, 62
1, 319652, Note_off_c, 0, 55, 65
1, 319657, Note_on_c, 0, 83, 65
1, 319659, Note_off_c, 0, 43, 61
1, 319664, Control_c, 0, 64, 126
1, 319675, Note_on_c, 0, 85, 80
1, 319678, Control_c, 0, 64, 127
1, 319682, Note_off_c, 0, 83, 65
1, 319712, Note_off_c, 0, 85, 65
1, 319733, Note_on_c, 0, 54, 98
1, 319740, Note_on_c, 0, 42, 88
1, 319742, Note_on_c, 0, 86, 80
1, 319775, Note_off_c, 0, 54, 63
1, 319780, Note_off_c, 0, 86, 65
1, 319781, Note_on_c, 0, 88, 77
1, 319785, Note_off_c, 0, 42, 66
1, 319800, Note_on_c, 0, 90, 82
1, 319826, Note_on_c, 0, 92, 79
1, 319827, Note_off_c, 0, 88, 63
1, 319858, Note_off_c, 0, 90, 66
1, 319866, Note_off_c, 0, 92, 67
1, 319869, Note_on_c, 0, 53, 92
1, 319871, Note_on_c, 0, 41, 84
1, 319900, Note_on_c, 0, 93, 82
1, 319918, Note_off_c, 0, 53, 67
1, 319927, Note_off_c, 0, 93, 60
1, 319930, Note_on_c, 0, 95, 77
1, 319931, Note_off_c, 0, 41, 66
1, 319973, Note_on_c, 0, 97, 79
1, 319978, Note_off_c, 0, 95, 66
1, 319993, Note_off_c, 0, 97, 71
1, 320010, Note_on_c, 0, 52, 87
1, 320013, Note_on_c, 0, 40, 85
1, 320024, Note_on_c, 0, 98, 81
1, 320061, Note_off_c, 0, 52, 65
1, 320064, Note_off_c, 0, 40, 62
1, 320066, Note_on_c, 0, 100, 81
1, 320083, Note_off_c, 0, 98, 63
1, 320084, Note_on_c, 0, 99, 37
1, 320102, Note_on_c, 0, 102, 88
1, 320117, Note_off_c, 0, 99, 33
1, 320131, Control_c, 0, 64, 123
1, 320132, Note_off_c, 0, 100, 65
1, 320141, Note_on_c, 0, 49, 97
1, 320146, Control_c, 0, 64, 102
1, 320150, Note_on_c, 0, 37, 81
1, 320153, Note_on_c, 0, 105, 100
1, 320161, Control_c, 0, 64, 86
1, 320167, Note_on_c, 0, 39, 58
1, 320175, Control_c, 0, 64, 69
1, 320177, Note_off_c, 0, 49, 66
1, 320177, Note_off_c, 0, 102, 66
1, 320188, Note_on_c, 0, 42, 22
1, 320190, Control_c, 0, 64, 0
1, 320195, Note_off_c, 0, 39, 56
1, 320196, Note_off_c, 0, 105, 67
1, 320202, Note_off_c, 0, 37, 62
1, 320231, Note_off_c, 0, 42, 29
1, 320275, Note_on_c, 0, 45, 94
1, 320282, Note_on_c, 0, 33, 90
1, 320305, Note_off_c, 0, 45, 67
1, 320313, Note_off_c, 0, 33, 69
1, 320438, Note_on_c, 0, 87, 107
1, 320440, Note_on_c, 0, 99, 93
1, 320442, Note_on_c, 0, 37, 100
1, 320442, Note_on_c, 0, 95, 87
1, 320442, Control_c, 0, 64, 60
1, 320444, Note_on_c, 0, 92, 90
1, 320454, Note_on_c, 0, 25, 88
1, 320457, Control_c, 0, 64, 78
1, 320458, Note_on_c, 0, 97, 70
1, 320472, Control_c, 0, 64, 94
1, 320473, Note_off_c, 0, 97, 64
1, 320481, Note_on_c, 0, 27, 40
1, 320487, Control_c, 0, 64, 112
1, 320488, Note_off_c, 0, 25, 66
1, 320493, Note_off_c, 0, 95, 65
1, 320494, Note_off_c, 0, 87, 60
1, 320497, Note_off_c, 0, 99, 69
1, 320501, Control_c, 0, 64, 127
1, 320503, Note_off_c, 0, 37, 65
1, 320503, Note_off_c, 0, 92, 65
1, 320516, Control_c, 0, 64, 127
1, 320523, Note_off_c, 0, 27, 42
1, 320738, Note_on_c, 0, 83, 95
1, 320741, Note_on_c, 0, 92, 74
1, 320743, Note_on_c, 0, 95, 89
1, 320744, Note_on_c, 0, 65, 102
1, 320747, Note_on_c, 0, 87, 85
1, 320751, Note_on_c, 0, 53, 91
1, 320776, Note_off_c, 0, 83, 65
1, 320781, Note_off_c, 0, 65, 69
1, 320782, Note_off_c, 0, 95, 67
1, 320785, Note_off_c, 0, 87, 62
1, 320787, Note_off_c, 0, 92, 67
1, 320789, Note_off_c, 0, 53, 66
1, 321013, Control_c, 0, 64, 113
1, 321028, Control_c, 0, 64, 84
1, 321030, Note_on_c, 0, 77, 98
1, 321031, Note_on_c, 0, 70, 102
1, 321033, Note_on_c, 0, 58, 92
1, 321033, Note_on_c, 0, 89, 88
1, 321037, Note_on_c, 0, 80, 90
1, 321043, Control_c, 0, 64, 44
1, 321045, Note_on_c, 0, 85, 76
1, 321057, Control_c, 0, 64, 0
1, 321064, Note_on_c, 0, 86, 47
1, 321069, Note_on_c, 0, 88, 39
1, 321072, Control_c, 0, 64, 41
1, 321074, Note_off_c, 0, 77, 62
1, 321087, Control_c, 0, 64, 71
1, 321088, Note_off_c, 0, 86, 58
1, 321091, Note_off_c, 0, 89, 64
1, 321102, Control_c, 0, 64, 93
1, 321103, Note_off_c, 0, 85, 67
1, 321104, Note_off_c, 0, 88, 34
1, 321114, Note_off_c, 0, 80, 65
1, 321117, Control_c, 0, 64, 119
1, 321131, Control_c, 0, 64, 127
1, 321238, Note_off_c, 0, 70, 49
1, 321312, Note_on_c, 0, 75, 97
1, 321312, Note_on_c, 0, 83, 68
1, 321316, Note_on_c, 0, 87, 88
1, 321328, Note_on_c, 0, 85, 71
1, 321337, Note_off_c, 0, 58, 53
1, 321352, Note_off_c, 0, 85, 67
1, 321355, Note_off_c, 0, 75, 66
1, 321359, Note_off_c, 0, 83, 62
1, 321360, Note_off_c, 0, 87, 65
1, 321426, Note_on_c, 0, 68, 87
1, 321432, Note_on_c, 0, 56, 82
1, 321444, Note_off_c, 0, 68, 74
1, 321486, Note_off_c, 0, 56, 65
1, 321562, Note_on_c, 0, 66, 70
1, 321583, Note_on_c, 0, 54, 92
1, 321584, Control_c, 0, 64, 96
1, 321593, Note_on_c, 0, 42, 83
1, 321593, Note_on_c, 0, 68, 68
1, 321599, Control_c, 0, 64, 72
1, 321603, Note_off_c, 0, 66, 63
1, 321614, Control_c, 0, 64, 0
1, 321625, Note_off_c, 0, 54, 64
1, 321626, Note_on_c, 0, 70, 63
1, 321637, Note_off_c, 0, 68, 62
1, 321638, Note_off_c, 0, 42, 61
1, 321644, Control_c, 0, 64, 61
1, 321655, Note_off_c, 0, 70, 67
1, 321659, Control_c, 0, 64, 74
1, 321674, Control_c, 0, 64, 87
1, 321689, Control_c, 0, 64, 94
1, 321691, Note_on_c, 0, 71, 70
1, 321704, Control_c, 0, 64, 96
1, 321718, Control_c, 0, 64, 97
1, 321732, Note_on_c, 0, 53, 88
1, 321733, Control_c, 0, 64, 98
1, 321736, Note_off_c, 0, 71, 53
1, 321740, Note_on_c, 0, 41, 80
1, 321743, Note_on_c, 0, 73, 76
1, 321748, Control_c, 0, 64, 99
1, 321763, Control_c, 0, 64, 100
1, 321772, Note_on_c, 0, 75, 75
1, 321778, Control_c, 0, 64, 101
1, 321778, Note_off_c, 0, 53, 64
1, 321781, Note_off_c, 0, 41, 64
1, 321793, Note_off_c, 0, 73, 64
1, 321807, Control_c, 0, 64, 101
1, 321814, Note_off_c, 0, 75, 65
1, 321846, Note_on_c, 0, 77, 81
1, 321852, Control_c, 0, 64, 101
1, 321866, Control_c, 0, 64, 96
1, 321867, Note_on_c, 0, 52, 88
1, 321873, Note_on_c, 0, 40, 87
1, 321881, Control_c, 0, 64, 85
1, 321888, Note_on_c, 0, 78, 86
1, 321896, Control_c, 0, 64, 70
1, 321897, Note_off_c, 0, 77, 60
1, 321911, Control_c, 0, 64, 0
1, 321915, Note_on_c, 0, 80, 74
1, 321915, Note_off_c, 0, 52, 63
1, 321918, Note_off_c, 0, 40, 64
1, 321942, Note_off_c, 0, 78, 66
1, 321948, Note_on_c, 0, 82, 73
1, 321955, Control_c, 0, 64, 59
1, 321963, Note_off_c, 0, 80, 67
1, 321969, Note_off_c, 0, 82, 69
1, 321970, Control_c, 0, 64, 66
1, 321985, Control_c, 0, 64, 65
1, 321999, Control_c, 0, 64, 64
1, 322002, Note_on_c, 0, 51, 87
1, 322010, Note_on_c, 0, 83, 76
1, 322014, Note_on_c, 0, 39, 74
1, 322014, Control_c, 0, 64, 63
1, 322029, Control_c, 0, 64, 64
1, 322035, Note_on_c, 0, 84, 52
1, 322044, Control_c, 0, 64, 65
1, 322048, Note_off_c, 0, 83, 56
1, 322049, Note_off_c, 0, 51, 61
1, 322054, Note_off_c, 0, 39, 62
1, 322056, Note_on_c, 0, 85, 71
1, 322059, Note_off_c, 0, 84, 37
1, 322059, Control_c, 0, 64, 66
1, 322073, Note_on_c, 0, 87, 85
1, 322073, Control_c, 0, 64, 65
1, 322088, Control_c, 0, 64, 64
1, 322095, Note_off_c, 0, 85, 65
1, 322118, Note_off_c, 0, 87, 65
1, 322118, Control_c, 0, 64, 65
1, 322133, Control_c, 0, 64, 66
1, 322139, Note_on_c, 0, 50, 88
1, 322148, Control_c, 0, 64, 65
1, 322150, Note_on_c, 0, 38, 75
1, 322154, Note_on_c, 0, 89, 85
1, 322163, Control_c, 0, 64, 64
1, 322168, Note_on_c, 0, 44, 21
1, 322177, Control_c, 0, 64, 62
1, 322180, Note_off_c, 0, 38, 63
1, 322180, Note_off_c, 0, 50, 60
1, 322197, Note_on_c, 0, 90, 83
1, 322198, Note_off_c, 0, 89, 64
1, 322207, Control_c, 0, 64, 63
1, 322209, Note_off_c, 0, 44, 38
1, 322222, Note_on_c, 0, 92, 78
1, 322239, Note_off_c, 0, 90, 65
1, 322244, Control_c, 0, 64, 61
1, 322248, Note_on_c, 0, 94, 72
1, 322255, Note_off_c, 0, 92, 61
1, 322259, Control_c, 0, 64, 60
1, 322272, Note_off_c, 0, 94, 70
1, 322273, Note_on_c, 0, 49, 90
1, 322273, Control_c, 0, 64, 61
1, 322279, Note_on_c, 0, 37, 82
1, 322288, Control_c, 0, 64, 62
1, 322307, Note_off_c, 0, 49, 63
1, 322308, Note_on_c, 0, 95, 83
1, 322318, Control_c, 0, 64, 61
1, 322333, Control_c, 0, 64, 61
1, 322336, Note_off_c, 0, 37, 64
1, 322339, Note_on_c, 0, 97, 92
1, 322348, Note_off_c, 0, 95, 66
1, 322365, Note_on_c, 0, 99, 76
1, 322388, Note_off_c, 0, 97, 59
1, 322392, Control_c, 0, 64, 60
1, 322399, Note_on_c, 0, 46, 94
1, 322407, Control_c, 0, 64, 58
1, 322408, Note_on_c, 0, 34, 89
1, 322410, Note_on_c, 0, 102, 104
1, 322422, Note_off_c, 0, 99, 67
1, 322422, Control_c, 0, 64, 54
1, 322437, Control_c, 0, 64, 53
1, 322440, Note_off_c, 0, 46, 62
1, 322452, Note_off_c, 0, 34, 59
1, 322452, Control_c, 0, 64, 56
1, 322459, Note_on_c, 0, 103, 32
1, 322460, Note_off_c, 0, 102, 68
1, 322467, Control_c, 0, 64, 55
1, 322482, Control_c, 0, 64, 53
1, 322483, Note_off_c, 0, 103, 36
1, 322496, Control_c, 0, 64, 52
1, 322511, Control_c, 0, 64, 54
1, 322526, Control_c, 0, 64, 56
1, 322541, Control_c, 0, 64, 57
1, 322542, Note_on_c, 0, 42, 91
1, 322553, Note_on_c, 0, 30, 82
1, 322556, Control_c, 0, 64, 56
1, 322571, Control_c, 0, 64, 51
1, 322586, Control_c, 0, 64, 34
1, 322589, Note_off_c, 0, 42, 62
1, 322592, Note_off_c, 0, 30, 63
1, 322601, Control_c, 0, 64, 0
1, 322699, Note_on_c, 0, 87, 99
1, 322701, Note_on_c, 0, 95, 86
1, 322702, Note_on_c, 0, 99, 92
1, 322704, Control_c, 0, 64, 68
1, 322705, Note_on_c, 0, 37, 95
1, 322705, Note_on_c, 0, 92, 94
1, 322713, Note_on_c, 0, 25, 92
1, 322719, Control_c, 0, 64, 85
1, 322724, Note_on_c, 0, 97, 61
1, 322734, Control_c, 0, 64, 103
1, 322741, Note_off_c, 0, 97, 63
1, 322743, Note_off_c, 0, 87, 64
1, 322746, Note_off_c, 0, 25, 66
1, 322749, Control_c, 0, 64, 120
1, 322750, Note_off_c, 0, 95, 66
1, 322756, Note_off_c, 0, 99, 69
1, 322759, Note_off_c, 0, 37, 63
1, 322760, Note_off_c, 0, 92, 66
1, 322763, Control_c, 0, 64, 127
1, 322822, Poly_aftertouch_c, 0, 27, 0
1, 323004, Note_on_c, 0, 83, 97
1, 323004, Note_on_c, 0, 92, 65
1, 323008, Note_on_c, 0, 95, 87
1, 323009, Note_on_c, 0, 65, 100
1, 323012, Note_on_c, 0, 87, 86
1, 323018, Note_on_c, 0, 53, 86
1, 323040, Note_off_c, 0, 83, 63
1, 323046, Note_off_c, 0, 95, 68
1, 323047, Note_off_c, 0, 65, 68
1, 323049, Note_off_c, 0, 53, 67
1, 323054, Note_off_c, 0, 87, 63
1, 323055, Note_on_c, 0, 55, 28
1, 323056, Note_off_c, 0, 55, 127
1, 323056, Note_off_c, 0, 92, 67
1, 323290, Control_c, 0, 64, 95
1, 323296, Note_on_c, 0, 77, 99
1, 323297, Note_on_c, 0, 89, 90
1, 323299, Note_on_c, 0, 70, 107
1, 323300, Note_on_c, 0, 80, 92
1, 323301, Note_on_c, 0, 58, 96
1, 323304, Note_on_c, 0, 85, 72
1, 323305, Control_c, 0, 64, 66
1, 323319, Control_c, 0, 64, 0
1, 323334, Control_c, 0, 64, 16
1, 323341, Note_off_c, 0, 77, 63
1, 323346, Note_on_c, 0, 86, 26
1, 323349, Control_c, 0, 64, 70
1, 323351, Note_off_c, 0, 89, 65
1, 323364, Control_c, 0, 64, 89
1, 323368, Note_off_c, 0, 80, 66
1, 323376, Note_off_c, 0, 85, 65
1, 323379, Control_c, 0, 64, 119
1, 323382, Note_off_c, 0, 86, 31
1, 323394, Control_c, 0, 64, 127
1, 323542, Note_off_c, 0, 70, 52
1, 323582, Note_on_c, 0, 75, 99
1, 323584, Note_on_c, 0, 83, 81
1, 323584, Note_on_c, 0, 87, 87
1, 323604, Note_on_c, 0, 85, 65
1, 323617, Note_off_c, 0, 75, 68
1, 323623, Note_off_c, 0, 85, 63
1, 323623, Note_off_c, 0, 83, 63
1, 323623, Note_off_c, 0, 87, 67
1, 323630, Note_off_c, 0, 58, 53
1, 323710, Note_on_c, 0, 68, 90
1, 323724, Note_on_c, 0, 56, 81
1, 323737, Note_off_c, 0, 68, 73
1, 323768, Note_off_c, 0, 56, 67
1, 323838, Note_on_c, 0, 66, 71
1, 323845, Control_c, 0, 64, 119
1, 323860, Note_on_c, 0, 68, 62
1, 323860, Control_c, 0, 64, 92
1, 323864, Note_on_c, 0, 54, 95
1, 323874, Note_on_c, 0, 42, 84
1, 323875, Control_c, 0, 64, 78
1, 323890, Control_c, 0, 64, 77
1, 323891, Note_off_c, 0, 66, 67
1, 323902, Note_on_c, 0, 70, 69
1, 323905, Control_c, 0, 64, 82
1, 323907, Note_off_c, 0, 54, 62
1, 323912, Note_on_c, 0, 44, 25
1, 323918, Note_off_c, 0, 68, 67
1, 323919, Control_c, 0, 64, 93
1, 323930, Note_off_c, 0, 42, 60
1, 323933, Note_off_c, 0, 70, 65
1, 323934, Control_c, 0, 64, 107
1, 323949, Control_c, 0, 64, 120
1, 323950, Note_off_c, 0, 44, 51
1, 323964, Control_c, 0, 64, 127
1, 323968, Note_on_c, 0, 71, 75
1, 324013, Note_off_c, 0, 71, 56
1, 324019, Note_on_c, 0, 53, 88
1, 324019, Note_on_c, 0, 73, 75
1, 324026, Note_on_c, 0, 41, 77
1, 324050, Note_on_c, 0, 75, 73
1, 324066, Note_off_c, 0, 53, 67
1, 324069, Note_off_c, 0, 73, 64
1, 324072, Note_off_c, 0, 41, 65
1, 324091, Note_off_c, 0, 75, 63
1, 324118, Note_on_c, 0, 77, 87
1, 324157, Note_on_c, 0, 52, 92
1, 324164, Note_on_c, 0, 40, 87
1, 324169, Note_on_c, 0, 78, 81
1, 324174, Note_off_c, 0, 77, 58
1, 324193, Note_on_c, 0, 80, 76
1, 324205, Note_off_c, 0, 52, 67
1, 324213, Note_off_c, 0, 40, 62
1, 324224, Note_off_c, 0, 78, 66
1, 324226, Note_on_c, 0, 82, 74
1, 324244, Note_off_c, 0, 80, 66
1, 324258, Note_off_c, 0, 82, 64
1, 324286, Note_on_c, 0, 83, 78
1, 324301, Note_on_c, 0, 51, 91
1, 324310, Note_on_c, 0, 39, 82
1, 324337, Note_on_c, 0, 85, 78
1, 324342, Note_off_c, 0, 83, 56
1, 324347, Note_off_c, 0, 51, 63
1, 324357, Note_on_c, 0, 87, 81
1, 324363, Note_off_c, 0, 39, 59
1, 324382, Note_off_c, 0, 85, 66
1, 324398, Note_off_c, 0, 87, 66
1, 324430, Note_on_c, 0, 89, 93
1, 324438, Control_c, 0, 64, 123
1, 324452, Note_on_c, 0, 50, 94
1, 324453, Control_c, 0, 64, 98
1, 324458, Note_on_c, 0, 38, 88
1, 324475, Control_c, 0, 64, 82
1, 324485, Note_on_c, 0, 90, 89
1, 324490, Note_off_c, 0, 89, 65
1, 324490, Control_c, 0, 64, 66
1, 324500, Note_off_c, 0, 50, 63
1, 324505, Control_c, 0, 64, 0
1, 324506, Note_off_c, 0, 38, 62
1, 324514, Note_on_c, 0, 92, 80
1, 324535, Control_c, 0, 64, 64
1, 324541, Note_on_c, 0, 94, 77
1, 324547, Note_off_c, 0, 90, 66
1, 324549, Control_c, 0, 64, 79
1, 324561, Note_off_c, 0, 92, 68
1, 324564, Control_c, 0, 64, 87
1, 324579, Control_c, 0, 64, 90
1, 324580, Note_off_c, 0, 94, 64
1, 324593, Control_c, 0, 64, 92
1, 324604, Note_on_c, 0, 49, 94
1, 324604, Note_on_c, 0, 95, 85
1, 324608, Control_c, 0, 64, 96
1, 324610, Note_on_c, 0, 37, 86
1, 324623, Control_c, 0, 64, 101
1, 324628, Note_off_c, 0, 49, 66
1, 324638, Control_c, 0, 64, 107
1, 324650, Note_on_c, 0, 97, 84
1, 324653, Control_c, 0, 64, 111
1, 324660, Note_off_c, 0, 37, 64
1, 324666, Note_off_c, 0, 95, 63
1, 324667, Control_c, 0, 64, 116
1, 324673, Note_on_c, 0, 99, 79
1, 324682, Control_c, 0, 64, 125
1, 324697, Control_c, 0, 64, 127
1, 324702, Note_off_c, 0, 97, 66
1, 324708, Note_on_c, 0, 101, 77
1, 324727, Note_off_c, 0, 99, 65
1, 324784, Note_on_c, 0, 42, 104
1, 324792, Note_on_c, 0, 102, 104
1, 324795, Note_on_c, 0, 30, 87
1, 324823, Note_off_c, 0, 30, 63
1, 324824, Note_off_c, 0, 101, 67
1, 324828, Note_off_c, 0, 42, 65
1, 324835, Note_off_c, 0, 102, 67
1, 324890, Control_c, 0, 64, 119
1, 324905, Control_c, 0, 64, 108
1, 324920, Control_c, 0, 64, 95
1, 324935, Control_c, 0, 64, 84
1, 324950, Control_c, 0, 64, 73
1, 324965, Control_c, 0, 64, 61
1, 324980, Control_c, 0, 64, 0
1, 325773, Control_c, 0, 64, 14
1, 325788, Note_on_c, 0, 72, 68
1, 325796, Note_on_c, 0, 85, 56
1, 325802, Control_c, 0, 64, 0
1, 325814, Note_off_c, 0, 72, 70
1, 325814, Note_off_c, 0, 85, 62
1, 326029, Note_on_c, 0, 73, 56
1, 326045, Note_on_c, 0, 87, 46
1, 326048, Note_off_c, 0, 73, 63
1, 326068, Note_off_c, 0, 87, 60
1, 326119, Note_on_c, 0, 85, 56
1, 326154, Note_off_c, 0, 85, 60
1, 326220, Note_on_c, 0, 89, 66
1, 326240, Note_on_c, 0, 71, 52
1, 326276, Note_off_c, 0, 89, 62
1, 326305, Note_on_c, 0, 85, 48
1, 326383, Note_off_c, 0, 85, 62
1, 326398, Note_on_c, 0, 90, 56
1, 326445, Note_off_c, 0, 90, 62
1, 326448, Note_on_c, 0, 73, 59
1, 326448, Note_off_c, 0, 71, 60
1, 326464, Note_on_c, 0, 85, 55
1, 326477, Note_off_c, 0, 73, 66
1, 326530, Note_off_c, 0, 85, 59
1, 326533, Note_on_c, 0, 92, 69
1, 326533, Note_on_c, 0, 72, 69
1, 326549, Note_off_c, 0, 72, 67
1, 326568, Note_off_c, 0, 92, 58
1, 326605, Note_on_c, 0, 85, 54
1, 326674, Note_off_c, 0, 85, 58
1, 326730, Note_on_c, 0, 73, 68
1, 326730, Note_on_c, 0, 91, 66
1, 326755, Note_off_c, 0, 73, 66
1, 326776, Note_off_c, 0, 91, 58
1, 326810, Note_on_c, 0, 85, 59
1, 326870, Note_off_c, 0, 85, 56
1, 326908, Note_on_c, 0, 92, 65
1, 326921, Note_on_c, 0, 71, 53
1, 326959, Note_off_c, 0, 92, 59
1, 326977, Note_on_c, 0, 85, 56
1, 327047, Note_off_c, 0, 85, 60
1, 327061, Note_on_c, 0, 89, 65
1, 327107, Note_on_c, 0, 73, 61
1, 327110, Note_off_c, 0, 71, 60
1, 327113, Note_off_c, 0, 89, 60
1, 327128, Note_on_c, 0, 85, 62
1, 327140, Note_off_c, 0, 73, 64
1, 327191, Note_on_c, 0, 72, 72
1, 327194, Note_off_c, 0, 85, 63
1, 327200, Note_on_c, 0, 90, 67
1, 327206, Note_off_c, 0, 72, 69
1, 327239, Note_off_c, 0, 90, 57
1, 327271, Note_on_c, 0, 85, 60
1, 327330, Control_c, 0, 64, 11
1, 327344, Note_off_c, 0, 85, 59
1, 327352, Note_on_c, 0, 73, 69
1, 327359, Control_c, 0, 64, 14
1, 327361, Note_on_c, 0, 92, 72
1, 327374, Control_c, 0, 64, 16
1, 327377, Note_off_c, 0, 73, 66
1, 327389, Control_c, 0, 64, 18
1, 327399, Note_off_c, 0, 92, 57
1, 327403, Control_c, 0, 64, 20
1, 327418, Control_c, 0, 64, 23
1, 327439, Note_on_c, 0, 85, 59
1, 327498, Note_off_c, 0, 85, 57
1, 327523, Note_on_c, 0, 70, 71
1, 327525, Note_on_c, 0, 94, 75
1, 327574, Control_c, 0, 64, 25
1, 327582, Note_off_c, 0, 94, 59
1, 327604, Note_on_c, 0, 85, 70
1, 327633, Control_c, 0, 64, 23
1, 327659, Note_off_c, 0, 85, 62
1, 327663, Control_c, 0, 64, 22
1, 327674, Note_on_c, 0, 95, 66
1, 327692, Control_c, 0, 64, 23
1, 327706, Note_off_c, 0, 95, 64
1, 327707, Control_c, 0, 64, 25
1, 327719, Note_on_c, 0, 73, 62
1, 327720, Note_off_c, 0, 70, 57
1, 327722, Control_c, 0, 64, 28
1, 327726, Note_on_c, 0, 85, 61
1, 327737, Control_c, 0, 64, 31
1, 327752, Note_off_c, 0, 73, 64
1, 327752, Control_c, 0, 64, 33
1, 327767, Control_c, 0, 64, 34
1, 327781, Note_off_c, 0, 85, 59
1, 327782, Control_c, 0, 64, 34
1, 327797, Control_c, 0, 64, 36
1, 327808, Note_on_c, 0, 72, 69
1, 327811, Note_on_c, 0, 97, 68
1, 327820, Note_on_c, 0, 99, 47
1, 327825, Note_off_c, 0, 72, 68
1, 327841, Control_c, 0, 64, 34
1, 327853, Note_off_c, 0, 99, 51
1, 327882, Note_off_c, 0, 97, 61
1, 327889, Note_on_c, 0, 85, 58
1, 327946, Note_off_c, 0, 85, 59
1, 327975, Note_on_c, 0, 73, 70
1, 327978, Note_on_c, 0, 96, 59
1, 327999, Note_off_c, 0, 73, 67
1, 328052, Note_off_c, 0, 96, 55
1, 328062, Note_on_c, 0, 85, 60
1, 328101, Note_off_c, 0, 85, 60
1, 328131, Note_on_c, 0, 70, 68
1, 328136, Note_on_c, 0, 97, 72
1, 328182, Control_c, 0, 64, 35
1, 328219, Note_on_c, 0, 85, 60
1, 328219, Note_off_c, 0, 97, 62
1, 328220, Control_c, 0, 64, 34
1, 328234, Control_c, 0, 64, 34
1, 328249, Control_c, 0, 64, 33
1, 328273, Note_off_c, 0, 85, 58
1, 328279, Control_c, 0, 64, 32
1, 328282, Note_on_c, 0, 94, 66
1, 328323, Control_c, 0, 64, 33
1, 328338, Control_c, 0, 64, 34
1, 328342, Note_off_c, 0, 70, 56
1, 328347, Note_on_c, 0, 73, 51
1, 328353, Control_c, 0, 64, 35
1, 328355, Note_on_c, 0, 85, 63
1, 328375, Note_off_c, 0, 73, 60
1, 328411, Note_off_c, 0, 85, 63
1, 328420, Note_on_c, 0, 95, 68
1, 328441, Control_c, 0, 64, 34
1, 328444, Note_on_c, 0, 72, 66
1, 328456, Control_c, 0, 64, 34
1, 328461, Note_off_c, 0, 72, 65
1, 328466, Note_off_c, 0, 94, 21
1, 328471, Control_c, 0, 64, 33
1, 328493, Note_off_c, 0, 95, 61
1, 328509, Note_on_c, 0, 85, 53
1, 328560, Control_c, 0, 64, 34
1, 328567, Note_off_c, 0, 85, 62
1, 328575, Control_c, 0, 64, 34
1, 328587, Note_on_c, 0, 99, 78
1, 328588, Note_on_c, 0, 73, 79
1, 328589, Control_c, 0, 64, 35
1, 328595, Note_on_c, 0, 97, 66
1, 328608, Note_off_c, 0, 73, 68
1, 328667, Note_off_c, 0, 97, 57
1, 328667, Note_off_c, 0, 99, 67
1, 328680, Note_on_c, 0, 85, 72
1, 328764, Note_on_c, 0, 75, 69
1, 328764, Note_on_c, 0, 92, 75
1, 328765, Note_off_c, 0, 85, 56
1, 328782, Control_c, 0, 64, 36
1, 328797, Control_c, 0, 64, 37
1, 328844, Note_on_c, 0, 85, 61
1, 328850, Note_off_c, 0, 92, 61
1, 328857, Control_c, 0, 64, 36
1, 328902, Control_c, 0, 64, 35
1, 328914, Note_off_c, 0, 85, 63
1, 328917, Note_on_c, 0, 95, 69
1, 328923, Note_on_c, 0, 94, 66
1, 328974, Note_off_c, 0, 95, 65
1, 328974, Note_on_c, 0, 85, 62
1, 328974, Note_off_c, 0, 94, 47
1, 328977, Note_on_c, 0, 73, 59
1, 329008, Note_off_c, 0, 75, 58
1, 329024, Note_off_c, 0, 73, 62
1, 329063, Note_off_c, 0, 85, 64
1, 329067, Note_on_c, 0, 89, 65
1, 329072, Note_on_c, 0, 72, 65
1, 329072, Control_c, 0, 64, 34
1, 329087, Control_c, 0, 64, 34
1, 329090, Note_off_c, 0, 72, 64
1, 329102, Control_c, 0, 64, 33
1, 329108, Note_on_c, 0, 88, 26
1, 329109, Note_off_c, 0, 88, 127
1, 329131, Control_c, 0, 64, 34
1, 329133, Note_off_c, 0, 89, 63
1, 329137, Note_on_c, 0, 85, 62
1, 329205, Note_off_c, 0, 85, 64
1, 329217, Note_on_c, 0, 73, 74
1, 329217, Note_on_c, 0, 94, 62
1, 329230, Note_on_c, 0, 92, 43
1, 329235, Control_c, 0, 64, 35
1, 329239, Note_off_c, 0, 73, 67
1, 329257, Note_off_c, 0, 92, 52
1, 329263, Note_off_c, 0, 94, 57
1, 329271, Note_on_c, 0, 85, 70
1, 329294, Control_c, 0, 64, 34
1, 329305, Note_off_c, 0, 85, 64
1, 329309, Control_c, 0, 64, 34
1, 329360, Note_on_c, 0, 75, 88
1, 329365, Note_on_c, 0, 85, 74
1, 329368, Control_c, 0, 64, 34
1, 329382, Control_c, 0, 64, 35
1, 329397, Control_c, 0, 64, 36
1, 329421, Note_off_c, 0, 85, 0
1, 329437, Note_on_c, 0, 85, 47
1, 329442, Control_c, 0, 64, 35
1, 329457, Control_c, 0, 64, 34
1, 329472, Control_c, 0, 64, 33
1, 329487, Control_c, 0, 64, 32
1, 329492, Note_off_c, 0, 85, 64
1, 329498, Note_on_c, 0, 89, 62
1, 329546, Control_c, 0, 64, 33
1, 329555, Note_off_c, 0, 89, 65
1, 329561, Control_c, 0, 64, 34
1, 329563, Note_on_c, 0, 85, 57
1, 329576, Control_c, 0, 64, 34
1, 329576, Note_on_c, 0, 73, 53
1, 329605, Note_off_c, 0, 75, 59
1, 329618, Note_off_c, 0, 73, 62
1, 329636, Control_c, 0, 64, 34
1, 329646, Note_on_c, 0, 90, 78
1, 329661, Note_on_c, 0, 72, 64
1, 329666, Control_c, 0, 64, 32
1, 329679, Note_off_c, 0, 72, 67
1, 329691, Note_off_c, 0, 90, 61
1, 329693, Note_off_c, 0, 85, 0
1, 329695, Control_c, 0, 64, 31
1, 329716, Note_on_c, 0, 85, 43
1, 329764, Note_off_c, 0, 85, 62
1, 329776, Control_c, 0, 64, 32
1, 329790, Note_on_c, 0, 73, 72
1, 329793, Note_on_c, 0, 94, 63
1, 329806, Control_c, 0, 64, 33
1, 329811, Note_off_c, 0, 73, 67
1, 329835, Control_c, 0, 64, 34
1, 329857, Note_on_c, 0, 85, 55
1, 329865, Note_off_c, 0, 94, 62
1, 329865, Control_c, 0, 64, 34
1, 329878, Poly_aftertouch_c, 0, 92, 0
1, 329891, Note_off_c, 0, 85, 64
1, 329925, Control_c, 0, 64, 35
1, 329940, Control_c, 0, 64, 36
1, 329945, Note_on_c, 0, 78, 83
1, 329952, Note_on_c, 0, 85, 73
1, 329954, Control_c, 0, 64, 37
1, 329969, Control_c, 0, 64, 37
1, 329984, Control_c, 0, 64, 38
1, 330043, Control_c, 0, 64, 37
1, 330058, Control_c, 0, 64, 37
1, 330073, Control_c, 0, 64, 36
1, 330089, Note_off_c, 0, 85, 65
1, 330102, Control_c, 0, 64, 37
1, 330104, Note_on_c, 0, 90, 67
1, 330117, Control_c, 0, 64, 37
1, 330131, Control_c, 0, 64, 38
1, 330146, Control_c, 0, 64, 39
1, 330152, Note_on_c, 0, 73, 55
1, 330157, Note_on_c, 0, 85, 53
1, 330157, Note_off_c, 0, 78, 58
1, 330161, Control_c, 0, 64, 40
1, 330176, Control_c, 0, 64, 41
1, 330191, Control_c, 0, 64, 42
1, 330192, Note_off_c, 0, 73, 63
1, 330196, Note_off_c, 0, 90, 62
1, 330220, Note_off_c, 0, 85, 65
1, 330220, Control_c, 0, 64, 41
1, 330227, Note_on_c, 0, 82, 73
1, 330235, Control_c, 0, 64, 41
1, 330238, Note_on_c, 0, 72, 62
1, 330250, Note_off_c, 0, 82, 69
1, 330250, Control_c, 0, 64, 40
1, 330256, Note_off_c, 0, 72, 67
1, 330265, Control_c, 0, 64, 40
1, 330280, Control_c, 0, 64, 39
1, 330294, Control_c, 0, 64, 38
1, 330309, Note_on_c, 0, 84, 76
1, 330309, Control_c, 0, 64, 35
1, 330324, Control_c, 0, 64, 32
1, 330339, Control_c, 0, 64, 29
1, 330354, Control_c, 0, 64, 28
1, 330369, Control_c, 0, 64, 27
1, 330381, Note_on_c, 0, 73, 67
1, 330381, Note_on_c, 0, 85, 61
1, 330398, Control_c, 0, 64, 29
1, 330405, Note_off_c, 0, 73, 67
1, 330413, Control_c, 0, 64, 31
1, 330423, Note_off_c, 0, 84, 62
1, 330429, Control_c, 0, 64, 32
1, 330444, Note_on_c, 0, 82, 69
1, 330444, Control_c, 0, 64, 33
1, 330464, Note_off_c, 0, 85, 63
1, 330466, Control_c, 0, 64, 34
1, 330476, Note_off_c, 0, 82, 67
1, 330496, Control_c, 0, 64, 32
1, 330510, Control_c, 0, 64, 0
1, 330553, Note_on_c, 0, 78, 66
1, 330629, Control_c, 0, 64, 58
1, 330643, Control_c, 0, 64, 68
1, 330658, Control_c, 0, 64, 73
1, 330673, Control_c, 0, 64, 79
1, 330688, Control_c, 0, 64, 82
1, 330703, Control_c, 0, 64, 84
1, 330718, Control_c, 0, 64, 85
1, 330733, Control_c, 0, 64, 87
1, 330748, Control_c, 0, 64, 89
1, 330762, Control_c, 0, 64, 91
1, 330777, Control_c, 0, 64, 93
1, 330778, Note_off_c, 0, 78, 57
1, 330792, Control_c, 0, 64, 95
1, 330804, Note_on_c, 0, 73, 46
1, 330807, Control_c, 0, 64, 95
1, 330830, Note_off_c, 0, 73, 53
1, 330897, Control_c, 0, 64, 93
1, 330911, Control_c, 0, 64, 86
1, 330926, Control_c, 0, 64, 75
1, 330941, Control_c, 0, 64, 58
1, 330941, Note_on_c, 0, 61, 67
1, 330943, Note_on_c, 0, 85, 71
1, 330946, Note_on_c, 0, 72, 64
1, 330955, Control_c, 0, 64, 0
1, 330959, Note_off_c, 0, 61, 66
1, 330959, Note_off_c, 0, 85, 69
1, 330962, Note_off_c, 0, 72, 65
1, 331154, Note_on_c, 0, 73, 63
1, 331162, Note_on_c, 0, 87, 57
1, 331181, Note_off_c, 0, 73, 66
1, 331207, Note_off_c, 0, 87, 61
1, 331241, Note_on_c, 0, 85, 60
1, 331287, Note_off_c, 0, 85, 55
1, 331326, Note_on_c, 0, 89, 74
1, 331332, Note_on_c, 0, 65, 64
1, 331335, Note_on_c, 0, 71, 67
1, 331392, Note_off_c, 0, 89, 63
1, 331403, Note_on_c, 0, 85, 65
1, 331457, Note_off_c, 0, 71, 52
1, 331487, Note_off_c, 0, 85, 60
1, 331490, Note_on_c, 0, 90, 66
1, 331541, Note_off_c, 0, 90, 62
1, 331546, Note_on_c, 0, 73, 67
1, 331557, Note_on_c, 0, 85, 65
1, 331573, Note_off_c, 0, 65, 62
1, 331575, Note_off_c, 0, 73, 64
1, 331628, Note_on_c, 0, 72, 68
1, 331630, Note_on_c, 0, 92, 71
1, 331637, Note_off_c, 0, 85, 58
1, 331639, Note_on_c, 0, 70, 63
1, 331664, Note_off_c, 0, 72, 60
1, 331670, Note_off_c, 0, 92, 61
1, 331695, Note_on_c, 0, 85, 53
1, 331779, Note_off_c, 0, 85, 52
1, 331797, Note_on_c, 0, 91, 72
1, 331812, Note_on_c, 0, 73, 64
1, 331840, Note_off_c, 0, 73, 66
1, 331846, Note_off_c, 0, 91, 54
1, 331871, Note_on_c, 0, 85, 61
1, 331931, Note_off_c, 0, 85, 56
1, 331960, Note_on_c, 0, 92, 70
1, 331963, Note_on_c, 0, 71, 56
1, 332010, Note_off_c, 0, 92, 59
1, 332011, Note_off_c, 0, 70, 47
1, 332020, Note_on_c, 0, 85, 57
1, 332050, Note_off_c, 0, 71, 61
1, 332077, Note_on_c, 0, 68, 58
1, 332087, Note_off_c, 0, 85, 62
1, 332095, Note_on_c, 0, 89, 66
1, 332151, Note_on_c, 0, 73, 69
1, 332154, Note_off_c, 0, 89, 63
1, 332158, Note_on_c, 0, 85, 67
1, 332220, Note_off_c, 0, 68, 61
1, 332228, Note_off_c, 0, 73, 61
1, 332231, Note_on_c, 0, 90, 76
1, 332232, Note_off_c, 0, 85, 63
1, 332235, Note_on_c, 0, 66, 65
1, 332262, Note_off_c, 0, 66, 68
1, 332273, Note_off_c, 0, 90, 54
1, 332295, Note_on_c, 0, 85, 63
1, 332370, Note_off_c, 0, 85, 60
1, 332384, Note_on_c, 0, 73, 71
1, 332387, Note_on_c, 0, 92, 75
1, 332402, Note_on_c, 0, 65, 37
1, 332413, Note_off_c, 0, 73, 64
1, 332427, Note_off_c, 0, 92, 58
1, 332431, Note_off_c, 0, 65, 55
1, 332452, Note_on_c, 0, 85, 65
1, 332516, Note_off_c, 0, 85, 61
1, 332522, Note_on_c, 0, 70, 74
1, 332528, Note_on_c, 0, 94, 78
1, 332539, Note_on_c, 0, 64, 39
1, 332564, Note_off_c, 0, 64, 52
1, 332585, Note_off_c, 0, 70, 61
1, 332590, Note_off_c, 0, 94, 48
1, 332592, Note_on_c, 0, 85, 66
1, 332649, Note_off_c, 0, 85, 64
1, 332661, Note_on_c, 0, 63, 65
1, 332664, Note_on_c, 0, 95, 79
1, 332711, Note_off_c, 0, 63, 60
1, 332717, Note_on_c, 0, 73, 55
1, 332718, Note_off_c, 0, 95, 60
1, 332725, Note_on_c, 0, 85, 70
1, 332750, Note_off_c, 0, 73, 64
1, 332779, Note_off_c, 0, 85, 63
1, 332790, Note_on_c, 0, 62, 75
1, 332798, Note_on_c, 0, 99, 80
1, 332798, Note_on_c, 0, 72, 69
1, 332804, Note_on_c, 0, 97, 75
1, 332816, Note_off_c, 0, 62, 65
1, 332822, Note_off_c, 0, 72, 71
1, 332846, Note_off_c, 0, 99, 69
1, 332876, Note_on_c, 0, 85, 78
1, 332882, Note_off_c, 0, 97, 61
1, 332933, Note_off_c, 0, 85, 60
1, 332952, Note_on_c, 0, 61, 66
1, 332956, Note_on_c, 0, 96, 75
1, 332959, Note_on_c, 0, 73, 60
1, 332977, Note_off_c, 0, 73, 63
1, 332997, Note_off_c, 0, 61, 60
1, 333023, Note_off_c, 0, 96, 62
1, 333031, Note_on_c, 0, 85, 70
1, 333080, Note_off_c, 0, 85, 59
1, 333088, Note_on_c, 0, 70, 74
1, 333091, Note_on_c, 0, 97, 81
1, 333111, Note_on_c, 0, 60, 57
1, 333136, Note_off_c, 0, 60, 61
1, 333140, Note_off_c, 0, 70, 60
1, 333157, Note_on_c, 0, 85, 70
1, 333159, Note_off_c, 0, 97, 61
1, 333223, Note_on_c, 0, 94, 76
1, 333223, Note_off_c, 0, 85, 64
1, 333225, Note_on_c, 0, 61, 48
1, 333278, Note_on_c, 0, 73, 64
1, 333282, Note_off_c, 0, 61, 52
1, 333293, Note_off_c, 0, 94, 61
1, 333297, Note_on_c, 0, 85, 64
1, 333311, Note_off_c, 0, 73, 62
1, 333353, Note_off_c, 0, 85, 65
1, 333358, Note_on_c, 0, 95, 81
1, 333371, Note_on_c, 0, 61, 64
1, 333375, Note_on_c, 0, 72, 62
1, 333392, Note_off_c, 0, 61, 65
1, 333392, Note_off_c, 0, 72, 64
1, 333428, Note_off_c, 0, 95, 58
1, 333429, Note_on_c, 0, 85, 71
1, 333499, Note_off_c, 0, 85, 64
1, 333521, Note_on_c, 0, 99, 75
1, 333529, Note_on_c, 0, 97, 69
1, 333531, Note_on_c, 0, 73, 69
1, 333555, Note_off_c, 0, 73, 67
1, 333577, Note_off_c, 0, 99, 66
1, 333596, Note_on_c, 0, 85, 77
1, 333600, Note_off_c, 0, 97, 63
1, 333664, Note_on_c, 0, 75, 82
1, 333669, Note_on_c, 0, 65, 70
1, 333671, Note_on_c, 0, 92, 80
1, 333675, Note_off_c, 0, 85, 62
1, 333747, Note_on_c, 0, 85, 68
1, 333763, Note_off_c, 0, 92, 60
1, 333764, Note_off_c, 0, 75, 60
1, 333820, Note_off_c, 0, 85, 61
1, 333825, Note_on_c, 0, 95, 72
1, 333833, Note_on_c, 0, 94, 63
1, 333866, Note_on_c, 0, 73, 59
1, 333886, Note_on_c, 0, 85, 65
1, 333886, Note_off_c, 0, 95, 65
1, 333888, Note_off_c, 0, 94, 55
1, 333933, Note_off_c, 0, 73, 57
1, 333946, Note_off_c, 0, 65, 34
1, 333949, Note_on_c, 0, 72, 66
1, 333967, Note_off_c, 0, 85, 64
1, 333967, Note_on_c, 0, 89, 74
1, 333970, Note_on_c, 0, 70, 60
1, 333983, Note_off_c, 0, 72, 60
1, 334038, Note_on_c, 0, 85, 64
1, 334043, Note_off_c, 0, 89, 63
1, 334102, Note_off_c, 0, 85, 64
1, 334114, Note_on_c, 0, 94, 64
1, 334115, Note_on_c, 0, 92, 56
1, 334117, Note_on_c, 0, 73, 68
1, 334146, Note_off_c, 0, 92, 65
1, 334157, Note_off_c, 0, 94, 59
1, 334179, Note_on_c, 0, 85, 70
1, 334219, Note_off_c, 0, 85, 65
1, 334241, Note_on_c, 0, 75, 62
1, 334249, Note_off_c, 0, 73, 54
1, 334262, Note_off_c, 0, 70, 62
1, 334275, Note_on_c, 0, 85, 69
1, 334283, Note_off_c, 0, 75, 64
1, 334392, Note_off_c, 0, 85, 64
1, 334394, Note_on_c, 0, 89, 68
1, 334423, Note_on_c, 0, 68, 50
1, 334455, Note_off_c, 0, 89, 66
1, 334462, Note_on_c, 0, 85, 56
1, 334465, Note_on_c, 0, 73, 44
1, 334475, Note_off_c, 0, 68, 57
1, 334515, Note_on_c, 0, 66, 47
1, 334518, Note_on_c, 0, 72, 49
1, 334536, Note_on_c, 0, 90, 80
1, 334541, Note_off_c, 0, 72, 61
1, 334542, Note_off_c, 0, 66, 61
1, 334542, Note_off_c, 0, 73, 55
1, 334545, Note_off_c, 0, 85, 63
1, 334578, Note_off_c, 0, 90, 60
1, 334609, Note_on_c, 0, 85, 67
1, 334656, Note_off_c, 0, 85, 60
1, 334657, Note_on_c, 0, 73, 62
1, 334658, Note_on_c, 0, 65, 52
1, 334678, Note_on_c, 0, 94, 64
1, 334678, Note_off_c, 0, 73, 64
1, 334695, Note_off_c, 0, 65, 67
1, 334728, Note_on_c, 0, 85, 76
1, 334750, Note_off_c, 0, 94, 64
1, 334759, Note_off_c, 0, 85, 64
1, 334808, Note_on_c, 0, 63, 49
1, 334814, Note_on_c, 0, 85, 81
1, 334830, Note_off_c, 0, 63, 59
1, 334860, Note_off_c, 0, 85, 57
1, 334902, Note_on_c, 0, 85, 27
1, 334906, Note_on_c, 0, 86, 59
1, 334927, Note_off_c, 0, 86, 63
1, 334932, Note_off_c, 0, 85, 57
1, 334979, Note_on_c, 0, 90, 66
1, 334992, Note_on_c, 0, 73, 50
1, 335015, Note_off_c, 0, 73, 62
1, 335031, Note_on_c, 0, 85, 57
1, 335049, Note_off_c, 0, 90, 61
1, 335067, Note_on_c, 0, 82, 70
1, 335071, Note_off_c, 0, 85, 63
1, 335103, Note_off_c, 0, 82, 61
1, 335153, Note_on_c, 0, 85, 82
1, 335297, Note_on_c, 0, 82, 76
1, 335298, Note_off_c, 0, 85, 64
1, 335319, Note_off_c, 0, 82, 66
1, 335395, Note_on_c, 0, 58, 49
1, 335403, Note_on_c, 0, 78, 83
1, 335471, Note_off_c, 0, 58, 36
1, 335478, Control_c, 0, 64, 30
1, 335489, Note_off_c, 0, 78, 0
1, 335489, Note_on_c, 0, 78, 28
1, 335492, Control_c, 0, 64, 65
1, 335507, Control_c, 0, 64, 69
1, 335522, Control_c, 0, 64, 72
1, 335537, Control_c, 0, 64, 75
1, 335551, Control_c, 0, 64, 79
1, 335560, Note_on_c, 0, 54, 50
1, 335566, Note_off_c, 0, 78, 61
1, 335566, Control_c, 0, 64, 82
1, 335581, Control_c, 0, 64, 84
1, 335586, Note_off_c, 0, 54, 58
1, 335596, Control_c, 0, 64, 85
1, 335606, Note_on_c, 0, 73, 58
1, 335611, Control_c, 0, 64, 85
1, 335624, Note_off_c, 0, 73, 61
1, 335625, Control_c, 0, 64, 86
1, 335640, Control_c, 0, 64, 87
1, 335655, Control_c, 0, 64, 88
1, 335670, Control_c, 0, 64, 88
1, 335707, Control_c, 0, 64, 89
1, 335722, Control_c, 0, 64, 89
1, 335737, Control_c, 0, 64, 90
1, 335744, Note_on_c, 0, 85, 77
1, 335760, Note_on_c, 0, 89, 71
1, 335778, Note_off_c, 0, 85, 61
1, 335781, Control_c, 0, 64, 89
1, 335790, Note_on_c, 0, 92, 63
1, 335793, Note_off_c, 0, 89, 64
1, 335796, Control_c, 0, 64, 84
1, 335806, Note_on_c, 0, 72, 73
1, 335809, Note_on_c, 0, 99, 95
1, 335810, Note_on_c, 0, 61, 67
1, 335811, Control_c, 0, 64, 75
1, 335820, Note_off_c, 0, 92, 67
1, 335822, Note_off_c, 0, 72, 70
1, 335824, Note_off_c, 0, 99, 75
1, 335825, Control_c, 0, 64, 58
1, 335830, Note_off_c, 0, 61, 65
1, 335840, Control_c, 0, 64, 0
1, 336066, Note_on_c, 0, 73, 66
1, 336094, Note_off_c, 0, 73, 64
1, 336223, Note_on_c, 0, 92, 96
1, 336226, Note_on_c, 0, 89, 86
1, 336228, Note_on_c, 0, 65, 62
1, 336231, Note_on_c, 0, 71, 67
1, 336270, Control_c, 0, 64, 61
1, 336285, Control_c, 0, 64, 66
1, 336300, Control_c, 0, 64, 69
1, 336314, Control_c, 0, 64, 72
1, 336329, Control_c, 0, 64, 76
1, 336344, Control_c, 0, 64, 78
1, 336359, Control_c, 0, 64, 80
1, 336370, Note_off_c, 0, 71, 36
1, 336373, Control_c, 0, 64, 82
1, 336388, Control_c, 0, 64, 83
1, 336403, Control_c, 0, 64, 84
1, 336405, Note_off_c, 0, 89, 60
1, 336418, Control_c, 0, 64, 85
1, 336429, Note_on_c, 0, 73, 66
1, 336433, Control_c, 0, 64, 86
1, 336459, Note_off_c, 0, 65, 61
1, 336468, Note_off_c, 0, 73, 63
1, 336499, Control_c, 0, 64, 84
1, 336514, Control_c, 0, 64, 77
1, 336519, Note_on_c, 0, 72, 60
1, 336521, Note_on_c, 0, 70, 69
1, 336529, Control_c, 0, 64, 67
1, 336544, Control_c, 0, 64, 0
1, 336556, Note_off_c, 0, 72, 57
1, 336680, Note_on_c, 0, 94, 70
1, 336683, Note_off_c, 0, 92, 62
1, 336685, Note_on_c, 0, 85, 58
1, 336691, Note_on_c, 0, 73, 62
1, 336702, Note_off_c, 0, 85, 65
1, 336708, Note_off_c, 0, 94, 68
1, 336720, Note_off_c, 0, 73, 66
1, 336826, Note_off_c, 0, 70, 57
1, 336848, Note_on_c, 0, 95, 60
1, 336855, Note_on_c, 0, 71, 52
1, 336870, Note_on_c, 0, 87, 45
1, 336894, Note_off_c, 0, 87, 48
1, 336945, Note_off_c, 0, 95, 38
1, 336990, Note_off_c, 0, 71, 49
1, 337015, Note_on_c, 0, 83, 21
1, 337017, Note_on_c, 0, 92, 53
1, 337031, Note_on_c, 0, 68, 56
1, 337040, Note_off_c, 0, 92, 63
1, 337054, Note_off_c, 0, 83, 30
1, 337109, Note_on_c, 0, 82, 73
1, 337122, Note_on_c, 0, 85, 65
1, 337131, Note_off_c, 0, 82, 69
1, 337147, Note_off_c, 0, 85, 68
1, 337158, Note_off_c, 0, 68, 45
1, 337183, Note_on_c, 0, 66, 66
1, 337195, Note_on_c, 0, 72, 58
1, 337203, Note_on_c, 0, 97, 82
1, 337214, Note_off_c, 0, 72, 66
1, 337221, Note_off_c, 0, 66, 67
1, 337224, Note_off_c, 0, 97, 69
1, 337383, Note_on_c, 0, 73, 65
1, 337399, Note_on_c, 0, 65, 50
1, 337422, Note_off_c, 0, 73, 60
1, 337430, Note_off_c, 0, 65, 62
1, 337546, Note_on_c, 0, 90, 80
1, 337553, Note_on_c, 0, 82, 72
1, 337556, Note_on_c, 0, 70, 72
1, 337659, Note_off_c, 0, 70, 59
1, 337723, Note_on_c, 0, 64, 54
1, 337753, Note_off_c, 0, 64, 54
1, 337755, Note_off_c, 0, 82, 55
1, 337771, Note_on_c, 0, 73, 74
1, 337794, Note_off_c, 0, 73, 67
1, 337858, Note_on_c, 0, 62, 70
1, 337867, Note_on_c, 0, 72, 62
1, 337886, Note_off_c, 0, 62, 64
1, 337887, Note_off_c, 0, 72, 65
1, 338028, Note_on_c, 0, 92, 71
1, 338033, Note_on_c, 0, 61, 60
1, 338033, Note_on_c, 0, 73, 61
1, 338036, Note_on_c, 0, 83, 46
1, 338039, Note_off_c, 0, 90, 58
1, 338052, Note_off_c, 0, 73, 64
1, 338059, Note_off_c, 0, 92, 62
1, 338060, Note_off_c, 0, 83, 36
1, 338065, Note_off_c, 0, 61, 63
1, 338179, Note_on_c, 0, 70, 71
1, 338181, Note_on_c, 0, 94, 67
1, 338184, Note_on_c, 0, 85, 65
1, 338209, Note_off_c, 0, 85, 68
1, 338224, Note_off_c, 0, 70, 61
1, 338251, Note_off_c, 0, 94, 50
1, 338304, Note_on_c, 0, 61, 63
1, 338321, Note_on_c, 0, 90, 61
1, 338353, Note_off_c, 0, 90, 63
1, 338364, Note_on_c, 0, 73, 70
1, 338365, Note_off_c, 0, 61, 45
1, 338390, Note_off_c, 0, 73, 66
1, 338443, Note_on_c, 0, 89, 66
1, 338462, Note_on_c, 0, 72, 64
1, 338465, Note_on_c, 0, 61, 53
1, 338479, Note_off_c, 0, 72, 64
1, 338482, Note_off_c, 0, 89, 60
1, 338490, Note_off_c, 0, 61, 37
1, 338518, Note_on_c, 0, 88, 66
1, 338554, Note_off_c, 0, 88, 60
1, 338589, Note_on_c, 0, 90, 73
1, 338596, Note_on_c, 0, 73, 61
1, 338622, Note_off_c, 0, 73, 66
1, 338641, Note_off_c, 0, 90, 60
1, 338662, Note_on_c, 0, 89, 73
1, 338709, Note_off_c, 0, 89, 64
1, 338733, Note_on_c, 0, 65, 64
1, 338733, Note_on_c, 0, 75, 80
1, 338745, Note_on_c, 0, 92, 79
1, 338796, Note_off_c, 0, 92, 64
1, 338805, Control_c, 0, 64, 14
1, 338817, Note_on_c, 0, 91, 63
1, 338820, Control_c, 0, 64, 62
1, 338823, Note_off_c, 0, 75, 60
1, 338835, Control_c, 0, 64, 65
1, 338850, Control_c, 0, 64, 66
1, 338865, Control_c, 0, 64, 66
1, 338880, Control_c, 0, 64, 67
1, 338894, Control_c, 0, 64, 68
1, 338894, Note_off_c, 0, 91, 38
1, 338909, Control_c, 0, 64, 69
1, 338915, Note_on_c, 0, 94, 61
1, 338924, Control_c, 0, 64, 70
1, 338928, Note_on_c, 0, 73, 64
1, 338939, Control_c, 0, 64, 70
1, 338948, Note_off_c, 0, 94, 67
1, 338951, Note_on_c, 0, 92, 62
1, 338954, Control_c, 0, 64, 71
1, 338968, Control_c, 0, 64, 71
1, 338983, Control_c, 0, 64, 72
1, 338989, Note_off_c, 0, 92, 62
1, 339014, Note_on_c, 0, 72, 57
1, 339038, Note_off_c, 0, 72, 58
1, 339042, Note_on_c, 0, 96, 43
1, 339042, Control_c, 0, 64, 71
1, 339052, Note_on_c, 0, 70, 53
1, 339054, Note_off_c, 0, 65, 40
1, 339057, Control_c, 0, 64, 68
1, 339066, Note_off_c, 0, 73, 25
1, 339069, Note_off_c, 0, 96, 44
1, 339072, Control_c, 0, 64, 64
1, 339087, Control_c, 0, 64, 41
1, 339101, Control_c, 0, 64, 0
1, 339142, Note_on_c, 0, 97, 56
1, 339172, Note_on_c, 0, 73, 67
1, 339175, Note_off_c, 0, 97, 64
1, 339216, Note_on_c, 0, 95, 65
1, 339264, Note_off_c, 0, 95, 65
1, 339270, Note_on_c, 0, 75, 62
1, 339270, Note_on_c, 0, 99, 70
1, 339278, Note_off_c, 0, 70, 63
1, 339284, Note_off_c, 0, 73, 62
1, 339291, Note_off_c, 0, 75, 66
1, 339323, Note_on_c, 0, 97, 64
1, 339339, Note_off_c, 0, 99, 62
1, 339395, Note_on_c, 0, 101, 71
1, 339396, Note_on_c, 0, 68, 58
1, 339398, Note_off_c, 0, 97, 63
1, 339426, Note_off_c, 0, 101, 66
1, 339455, Note_on_c, 0, 73, 47
1, 339457, Note_off_c, 0, 68, 58
1, 339464, Note_on_c, 0, 95, 60
1, 339484, Note_off_c, 0, 95, 65
1, 339506, Note_on_c, 0, 72, 47
1, 339523, Note_on_c, 0, 66, 51
1, 339526, Note_on_c, 0, 102, 82
1, 339533, Note_off_c, 0, 73, 63
1, 339536, Note_off_c, 0, 72, 57
1, 339548, Note_off_c, 0, 66, 64
1, 339589, Note_on_c, 0, 94, 78
1, 339595, Note_off_c, 0, 102, 60
1, 339627, Note_off_c, 0, 94, 63
1, 339637, Note_on_c, 0, 101, 63
1, 339672, Note_on_c, 0, 65, 58
1, 339699, Note_off_c, 0, 65, 67
1, 339699, Note_off_c, 0, 101, 59
1, 339716, Note_on_c, 0, 95, 78
1, 339756, Note_off_c, 0, 95, 67
1, 339798, Note_on_c, 0, 102, 80
1, 339830, Note_on_c, 0, 63, 42
1, 339836, Note_on_c, 0, 73, 23
1, 339837, Note_off_c, 0, 73, 127
1, 339855, Note_off_c, 0, 63, 57
1, 339857, Note_on_c, 0, 94, 84
1, 339857, Note_off_c, 0, 102, 39
1, 339904, Note_off_c, 0, 94, 65
1, 339935, Note_on_c, 0, 104, 74
1, 339988, Note_on_c, 0, 97, 83
1, 339995, Note_off_c, 0, 104, 65
1, 340039, Note_off_c, 0, 97, 65
1, 340070, Note_on_c, 0, 106, 85
1, 340103, Note_on_c, 0, 104, 40
1, 340104, Note_off_c, 0, 104, 127
1, 340134, Note_on_c, 0, 97, 78
1, 340140, Note_on_c, 0, 61, 29
1, 340152, Note_off_c, 0, 106, 63
1, 340174, Note_off_c, 0, 61, 33
1, 340203, Note_off_c, 0, 97, 60
1, 340219, Note_on_c, 0, 104, 74
1, 340280, Note_on_c, 0, 97, 68
1, 340307, Note_off_c, 0, 104, 63
1, 340327, Note_on_c, 0, 70, 14
1, 340355, Note_off_c, 0, 70, 47
1, 340360, Note_off_c, 0, 97, 61
1, 340383, Note_on_c, 0, 106, 81
1, 340483, Note_on_c, 0, 97, 65
1, 340495, Control_c, 0, 64, 16
1, 340510, Control_c, 0, 64, 20
1, 340525, Control_c, 0, 64, 14
1, 340540, Control_c, 0, 64, 0
1, 340555, Note_off_c, 0, 106, 38
1, 340563, Note_on_c, 0, 54, 26
1, 340570, Control_c, 0, 64, 16
1, 340573, Note_on_c, 0, 102, 82
1, 340579, Note_off_c, 0, 97, 63
1, 340585, Control_c, 0, 64, 20
1, 340594, Note_off_c, 0, 54, 45
1, 340602, Note_off_c, 0, 102, 65
1, 340614, Control_c, 0, 64, 18
1, 340629, Control_c, 0, 64, 16
1, 340719, Control_c, 0, 64, 14
1, 340734, Control_c, 0, 64, 11
1, 340748, Control_c, 0, 64, 0
1, 340812, Note_on_c, 0, 70, 46
1, 340813, Note_on_c, 0, 64, 56
1, 340822, Note_on_c, 0, 67, 38
1, 340822, Note_on_c, 0, 72, 19
1, 340826, Note_on_c, 0, 84, 64
1, 340834, Note_off_c, 0, 64, 64
1, 340835, Note_off_c, 0, 70, 57
1, 340849, Note_off_c, 0, 84, 64
1, 340853, Note_off_c, 0, 67, 45
1, 340859, Note_off_c, 0, 72, 30
1, 340915, Note_on_c, 0, 85, 63
1, 340942, Note_off_c, 0, 85, 68
1, 340949, Control_c, 0, 64, 18
1, 340963, Control_c, 0, 64, 28
1, 340978, Control_c, 0, 64, 36
1, 340986, Note_on_c, 0, 61, 59
1, 340993, Control_c, 0, 64, 41
1, 341003, Note_on_c, 0, 85, 76
1, 341006, Note_off_c, 0, 61, 61
1, 341008, Control_c, 0, 64, 43
1, 341023, Control_c, 0, 64, 43
1, 341035, Note_off_c, 0, 85, 58
1, 341038, Control_c, 0, 64, 40
1, 341053, Control_c, 0, 64, 0
1, 341079, Note_on_c, 0, 97, 68
1, 341141, Note_on_c, 0, 99, 79
1, 341141, Note_off_c, 0, 97, 64
1, 341148, Note_on_c, 0, 73, 67
1, 341157, Control_c, 0, 64, 67
1, 341157, Note_on_c, 0, 68, 49
1, 341158, Note_on_c, 0, 71, 50
1, 341166, Note_on_c, 0, 92, 64
1, 341171, Control_c, 0, 64, 75
1, 341175, Note_off_c, 0, 73, 67
1, 341180, Note_off_c, 0, 71, 58
1, 341181, Note_off_c, 0, 68, 61
1, 341186, Control_c, 0, 64, 82
1, 341201, Control_c, 0, 64, 86
1, 341209, Note_off_c, 0, 92, 56
1, 341213, Note_on_c, 0, 97, 65
1, 341216, Control_c, 0, 64, 87
1, 341231, Control_c, 0, 64, 88
1, 341234, Poly_aftertouch_c, 0, 65, 0
1, 341235, Note_off_c, 0, 99, 67
1, 341245, Control_c, 0, 64, 90
1, 341260, Control_c, 0, 64, 92
1, 341264, Note_off_c, 0, 97, 64
1, 341273, Note_on_c, 0, 85, 67
1, 341275, Control_c, 0, 64, 93
1, 341289, Control_c, 0, 64, 93
1, 341296, Note_off_c, 0, 85, 69
1, 341334, Control_c, 0, 64, 93
1, 341359, Note_on_c, 0, 85, 70
1, 341363, Control_c, 0, 64, 92
1, 341378, Control_c, 0, 64, 86
1, 341393, Note_off_c, 0, 85, 60
1, 341393, Control_c, 0, 64, 77
1, 341408, Control_c, 0, 64, 65
1, 341416, Note_on_c, 0, 84, 69
1, 341423, Control_c, 0, 64, 0
1, 341459, Note_off_c, 0, 84, 64
1, 341489, Note_on_c, 0, 85, 58
1, 341502, Poly_aftertouch_c, 0, 82, 0
1, 341507, Note_off_c, 0, 85, 65
1, 341555, Note_on_c, 0, 85, 62
1, 341580, Note_off_c, 0, 85, 67
1, 341626, Note_on_c, 0, 97, 70
1, 341670, Note_on_c, 0, 99, 70
1, 341671, Note_on_c, 0, 80, 65
1, 341675, Note_on_c, 0, 77, 63
1, 341679, Note_on_c, 0, 83, 57
1, 341692, Note_off_c, 0, 97, 53
1, 341704, Note_off_c, 0, 80, 69
1, 341704, Note_off_c, 0, 83, 61
1, 341709, Note_off_c, 0, 77, 66
1, 341712, Note_on_c, 0, 92, 63
1, 341743, Note_on_c, 0, 97, 54
1, 341763, Note_off_c, 0, 99, 65
1, 341771, Note_off_c, 0, 92, 62
1, 341800, Note_off_c, 0, 97, 65
1, 341807, Note_on_c, 0, 85, 67
1, 341830, Note_off_c, 0, 85, 69
1, 341884, Note_on_c, 0, 85, 75
1, 341929, Note_on_c, 0, 69, 50
1, 341931, Note_off_c, 0, 85, 63
1, 341932, Note_on_c, 0, 72, 51
1, 341936, Note_on_c, 0, 65, 52
1, 341947, Note_on_c, 0, 84, 71
1, 341952, Note_off_c, 0, 69, 57
1, 341953, Note_off_c, 0, 72, 58
1, 341959, Note_off_c, 0, 65, 60
1, 341983, Note_off_c, 0, 84, 60
1, 342013, Note_on_c, 0, 85, 56
1, 342033, Note_off_c, 0, 85, 66
1, 342069, Note_on_c, 0, 85, 68
1, 342070, Note_on_c, 0, 61, 76
1, 342087, Note_off_c, 0, 61, 66
1, 342097, Note_off_c, 0, 85, 66
1, 342150, Note_on_c, 0, 97, 69
1, 342200, Note_on_c, 0, 73, 88
1, 342205, Note_off_c, 0, 97, 62
1, 342206, Note_on_c, 0, 99, 77
1, 342214, Note_on_c, 0, 66, 65
1, 342215, Note_on_c, 0, 70, 62
1, 342215, Control_c, 0, 64, 60
1, 342220, Note_off_c, 0, 73, 70
1, 342224, Note_on_c, 0, 94, 68
1, 342230, Control_c, 0, 64, 69
1, 342233, Note_off_c, 0, 66, 68
1, 342233, Note_off_c, 0, 70, 63
1, 342245, Control_c, 0, 64, 75
1, 342260, Control_c, 0, 64, 79
1, 342275, Note_on_c, 0, 97, 62
1, 342275, Control_c, 0, 64, 80
1, 342281, Note_off_c, 0, 94, 64
1, 342290, Control_c, 0, 64, 81
1, 342295, Note_off_c, 0, 99, 68
1, 342304, Control_c, 0, 64, 81
1, 342323, Note_off_c, 0, 97, 64
1, 342332, Note_on_c, 0, 85, 69
1, 342354, Note_off_c, 0, 85, 70
1, 342420, Note_on_c, 0, 85, 65
1, 342424, Control_c, 0, 64, 80
1, 342446, Control_c, 0, 64, 74
1, 342461, Control_c, 0, 64, 67
1, 342470, Note_off_c, 0, 85, 62
1, 342476, Control_c, 0, 64, 20
1, 342482, Note_on_c, 0, 81, 61
1, 342483, Note_on_c, 0, 84, 68
1, 342490, Control_c, 0, 64, 0
1, 342502, Note_off_c, 0, 81, 64
1, 342525, Note_off_c, 0, 84, 60
1, 342551, Note_on_c, 0, 85, 58
1, 342576, Note_off_c, 0, 85, 68
1, 342629, Note_on_c, 0, 85, 61
1, 342633, Note_on_c, 0, 73, 57
1, 342650, Note_off_c, 0, 85, 67
1, 342653, Note_off_c, 0, 73, 61
1, 342694, Note_on_c, 0, 97, 68
1, 342746, Note_off_c, 0, 97, 63
1, 342761, Note_on_c, 0, 99, 66
1, 342779, Note_on_c, 0, 82, 55
1, 342780, Note_on_c, 0, 78, 64
1, 342782, Note_on_c, 0, 94, 58
1, 342798, Note_off_c, 0, 82, 62
1, 342799, Note_off_c, 0, 78, 66
1, 342828, Note_on_c, 0, 97, 64
1, 342831, Note_off_c, 0, 94, 59
1, 342842, Note_off_c, 0, 99, 65
1, 342866, Note_off_c, 0, 97, 61
1, 342886, Note_on_c, 0, 85, 63
1, 342911, Note_off_c, 0, 85, 68
1, 342972, Note_on_c, 0, 85, 69
1, 343011, Note_off_c, 0, 85, 63
1, 343031, Note_on_c, 0, 84, 70
1, 343035, Note_on_c, 0, 64, 39
1, 343041, Note_on_c, 0, 67, 25
1, 343041, Note_on_c, 0, 70, 27
1, 343061, Note_off_c, 0, 64, 49
1, 343075, Note_off_c, 0, 70, 41
1, 343075, Note_off_c, 0, 84, 60
1, 343077, Note_off_c, 0, 67, 39
1, 343112, Note_on_c, 0, 85, 51
1, 343131, Note_off_c, 0, 85, 63
1, 343187, Note_on_c, 0, 85, 57
1, 343213, Note_off_c, 0, 85, 63
1, 343272, Note_on_c, 0, 97, 64
1, 343313, Control_c, 0, 64, 57
1, 343328, Control_c, 0, 64, 65
1, 343336, Note_off_c, 0, 97, 62
1, 343343, Control_c, 0, 64, 69
1, 343348, Note_on_c, 0, 99, 67
1, 343358, Control_c, 0, 64, 72
1, 343362, Note_on_c, 0, 73, 49
1, 343372, Control_c, 0, 64, 76
1, 343378, Note_on_c, 0, 68, 44
1, 343387, Note_on_c, 0, 92, 46
1, 343387, Control_c, 0, 64, 80
1, 343402, Control_c, 0, 64, 83
1, 343417, Control_c, 0, 64, 84
1, 343418, Note_off_c, 0, 68, 56
1, 343419, Note_on_c, 0, 97, 67
1, 343424, Note_off_c, 0, 73, 51
1, 343424, Note_off_c, 0, 99, 65
1, 343425, Note_off_c, 0, 92, 55
1, 343432, Control_c, 0, 64, 84
1, 343446, Control_c, 0, 64, 85
1, 343461, Control_c, 0, 64, 86
1, 343467, Note_off_c, 0, 97, 62
1, 343468, Poly_aftertouch_c, 0, 71, 0
1, 343476, Control_c, 0, 64, 87
1, 343484, Note_on_c, 0, 85, 66
1, 343491, Control_c, 0, 64, 87
1, 343506, Control_c, 0, 64, 88
1, 343509, Note_off_c, 0, 85, 68
1, 343521, Control_c, 0, 64, 88
1, 343536, Control_c, 0, 64, 89
1, 343565, Control_c, 0, 64, 89
1, 343569, Note_on_c, 0, 85, 67
1, 343616, Note_off_c, 0, 85, 62
1, 343628, Note_on_c, 0, 84, 71
1, 343650, Note_on_c, 0, 82, 45
1, 343674, Note_on_c, 0, 79, 10
1, 343679, Note_off_c, 0, 84, 60
1, 343684, Control_c, 0, 64, 90
1, 343685, Note_off_c, 0, 82, 50
1, 343698, Note_on_c, 0, 85, 58
1, 343720, Note_off_c, 0, 79, 38
1, 343722, Note_off_c, 0, 85, 67
1, 343724, Note_on_c, 0, 73, 62
1, 343750, Note_off_c, 0, 73, 66
1, 343771, Note_on_c, 0, 85, 59
1, 343793, Note_off_c, 0, 85, 65
1, 343818, Control_c, 0, 64, 90
1, 343851, Note_on_c, 0, 97, 67
1, 343862, Control_c, 0, 64, 90
1, 343877, Control_c, 0, 64, 89
1, 343891, Control_c, 0, 64, 85
1, 343906, Control_c, 0, 64, 76
1, 343914, Note_off_c, 0, 97, 63
1, 343921, Control_c, 0, 64, 65
1, 343922, Note_on_c, 0, 99, 66
1, 343940, Note_on_c, 0, 80, 53
1, 343944, Control_c, 0, 64, 0
1, 343944, Note_on_c, 0, 83, 49
1, 343956, Note_on_c, 0, 77, 46
1, 343958, Control_c, 0, 64, 25
1, 343968, Note_on_c, 0, 92, 50
1, 343973, Control_c, 0, 64, 66
1, 343988, Control_c, 0, 64, 74
1, 343992, Note_off_c, 0, 83, 55
1, 344003, Control_c, 0, 64, 81
1, 344007, Note_on_c, 0, 97, 64
1, 344010, Note_off_c, 0, 77, 45
1, 344011, Note_off_c, 0, 80, 47
1, 344014, Note_off_c, 0, 99, 64
1, 344016, Note_off_c, 0, 92, 62
1, 344019, Control_c, 0, 64, 87
1, 344033, Control_c, 0, 64, 90
1, 344048, Control_c, 0, 64, 93
1, 344058, Note_off_c, 0, 97, 63
1, 344063, Control_c, 0, 64, 96
1, 344071, Note_on_c, 0, 85, 67
1, 344078, Control_c, 0, 64, 100
1, 344093, Control_c, 0, 64, 103
1, 344095, Note_off_c, 0, 85, 69
1, 344107, Control_c, 0, 64, 105
1, 344122, Control_c, 0, 64, 106
1, 344137, Control_c, 0, 64, 107
1, 344152, Control_c, 0, 64, 107
1, 344156, Note_on_c, 0, 85, 70
1, 344167, Control_c, 0, 64, 108
1, 344208, Note_off_c, 0, 85, 64
1, 344211, Control_c, 0, 64, 108
1, 344223, Note_on_c, 0, 84, 70
1, 344241, Note_on_c, 0, 69, 48
1, 344241, Note_on_c, 0, 72, 50
1, 344248, Note_on_c, 0, 65, 49
1, 344255, Control_c, 0, 64, 109
1, 344261, Note_off_c, 0, 72, 63
1, 344263, Note_off_c, 0, 69, 59
1, 344270, Note_off_c, 0, 65, 62
1, 344279, Note_off_c, 0, 84, 60
1, 344296, Note_on_c, 0, 85, 62
1, 344314, Control_c, 0, 64, 109
1, 344323, Note_off_c, 0, 85, 67
1, 344380, Note_on_c, 0, 85, 72
1, 344397, Note_on_c, 0, 61, 61
1, 344410, Note_off_c, 0, 85, 61
1, 344416, Note_off_c, 0, 61, 61
1, 344460, Note_on_c, 0, 97, 63
1, 344537, Note_off_c, 0, 97, 61
1, 344565, Note_on_c, 0, 99, 60
1, 344567, Control_c, 0, 64, 108
1, 344581, Control_c, 0, 64, 100
1, 344589, Note_on_c, 0, 94, 47
1, 344596, Note_on_c, 0, 73, 46
1, 344596, Control_c, 0, 64, 88
1, 344606, Note_on_c, 0, 70, 49
1, 344611, Control_c, 0, 64, 73
1, 344618, Note_on_c, 0, 66, 40
1, 344626, Control_c, 0, 64, 0
1, 344642, Note_off_c, 0, 94, 58
1, 344645, Note_off_c, 0, 99, 64
1, 344651, Note_on_c, 0, 97, 62
1, 344655, Control_c, 0, 64, 55
1, 344670, Control_c, 0, 64, 72
1, 344692, Control_c, 0, 64, 82
1, 344707, Note_off_c, 0, 97, 59
1, 344707, Control_c, 0, 64, 90
1, 344713, Note_off_c, 0, 73, 48
1, 344722, Control_c, 0, 64, 94
1, 344726, Note_on_c, 0, 85, 61
1, 344734, Note_off_c, 0, 70, 35
1, 344737, Control_c, 0, 64, 98
1, 344746, Note_off_c, 0, 66, 42
1, 344752, Note_off_c, 0, 85, 68
1, 344752, Control_c, 0, 64, 103
1, 344767, Control_c, 0, 64, 107
1, 344781, Control_c, 0, 64, 112
1, 344796, Control_c, 0, 64, 115
1, 344811, Control_c, 0, 64, 118
1, 344822, Note_on_c, 0, 85, 62
1, 344826, Control_c, 0, 64, 119
1, 344841, Control_c, 0, 64, 120
1, 344856, Control_c, 0, 64, 121
1, 344871, Note_off_c, 0, 85, 63
1, 344871, Control_c, 0, 64, 123
1, 344880, Note_on_c, 0, 84, 70
1, 344886, Control_c, 0, 64, 123
1, 344898, Note_on_c, 0, 81, 57
1, 344901, Control_c, 0, 64, 124
1, 344902, Note_on_c, 0, 77, 55
1, 344916, Control_c, 0, 64, 125
1, 344930, Control_c, 0, 64, 126
1, 344932, Note_off_c, 0, 81, 53
1, 344934, Note_off_c, 0, 77, 65
1, 344940, Note_off_c, 0, 84, 55
1, 344945, Control_c, 0, 64, 127
1, 344970, Note_on_c, 0, 85, 59
1, 344995, Note_off_c, 0, 85, 67
1, 345050, Note_on_c, 0, 85, 62
1, 345062, Note_on_c, 0, 73, 60
1, 345075, Note_off_c, 0, 85, 65
1, 345086, Note_off_c, 0, 73, 61
1, 345131, Note_on_c, 0, 97, 64
1, 345224, Note_off_c, 0, 97, 61
1, 345226, Control_c, 0, 64, 114
1, 345241, Control_c, 0, 64, 100
1, 345249, Note_on_c, 0, 99, 58
1, 345256, Control_c, 0, 64, 86
1, 345271, Control_c, 0, 64, 73
1, 345276, Note_on_c, 0, 94, 42
1, 345285, Control_c, 0, 64, 65
1, 345291, Note_on_c, 0, 82, 51
1, 345300, Control_c, 0, 64, 67
1, 345309, Note_on_c, 0, 78, 42
1, 345315, Note_off_c, 0, 94, 58
1, 345315, Control_c, 0, 64, 76
1, 345330, Control_c, 0, 64, 86
1, 345336, Note_off_c, 0, 99, 62
1, 345336, Note_off_c, 0, 82, 58
1, 345336, Note_on_c, 0, 97, 66
1, 345345, Control_c, 0, 64, 95
1, 345351, Note_off_c, 0, 78, 46
1, 345360, Control_c, 0, 64, 100
1, 345375, Control_c, 0, 64, 104
1, 345390, Control_c, 0, 64, 109
1, 345398, Note_off_c, 0, 97, 63
1, 345404, Control_c, 0, 64, 116
1, 345417, Note_on_c, 0, 85, 63
1, 345419, Control_c, 0, 64, 123
1, 345441, Control_c, 0, 64, 127
1, 345451, Note_off_c, 0, 85, 68
1, 345517, Note_on_c, 0, 85, 65
1, 345564, Note_off_c, 0, 85, 60
1, 345581, Note_on_c, 0, 76, 44
1, 345581, Note_on_c, 0, 84, 67
1, 345584, Note_on_c, 0, 69, 46
1, 345604, Note_off_c, 0, 76, 57
1, 345612, Note_off_c, 0, 69, 59
1, 345629, Note_off_c, 0, 84, 61
1, 345667, Note_on_c, 0, 85, 63
1, 345692, Note_off_c, 0, 85, 68
1, 345742, Note_on_c, 0, 85, 71
1, 345774, Note_on_c, 0, 61, 53
1, 345792, Note_off_c, 0, 85, 59
1, 345826, Control_c, 0, 64, 106
1, 345829, Note_on_c, 0, 97, 67
1, 345841, Control_c, 0, 64, 86
1, 345851, Note_off_c, 0, 61, 62
1, 345856, Control_c, 0, 64, 66
1, 345866, Note_on_c, 0, 68, 46
1, 345871, Control_c, 0, 64, 0
1, 345900, Control_c, 0, 64, 62
1, 345911, Note_off_c, 0, 97, 63
1, 345915, Control_c, 0, 64, 77
1, 345918, Note_on_c, 0, 99, 70
1, 345929, Note_on_c, 0, 71, 24
1, 345930, Control_c, 0, 64, 90
1, 345945, Note_on_c, 0, 92, 55
1, 345945, Control_c, 0, 64, 103
1, 345951, Note_on_c, 0, 77, 63
1, 345959, Control_c, 0, 64, 108
1, 345974, Control_c, 0, 64, 115
1, 345989, Control_c, 0, 64, 127
1, 345992, Note_on_c, 0, 97, 67
1, 345996, Note_off_c, 0, 77, 48
1, 346001, Note_off_c, 0, 92, 60
1, 346003, Note_off_c, 0, 99, 64
1, 346040, Note_off_c, 0, 68, 59
1, 346040, Note_off_c, 0, 97, 63
1, 346043, Note_off_c, 0, 71, 36
1, 346056, Note_on_c, 0, 85, 66
1, 346081, Note_off_c, 0, 85, 68
1, 346141, Note_on_c, 0, 85, 62
1, 346171, Note_off_c, 0, 85, 67
1, 346192, Note_on_c, 0, 84, 71
1, 346227, Note_off_c, 0, 84, 61
1, 346252, Note_on_c, 0, 85, 62
1, 346274, Note_off_c, 0, 85, 67
1, 346316, Note_on_c, 0, 85, 68
1, 346344, Note_off_c, 0, 85, 66
1, 346377, Note_on_c, 0, 97, 73
1, 346427, Note_on_c, 0, 99, 72
1, 346433, Note_off_c, 0, 97, 64
1, 346445, Note_on_c, 0, 92, 72
1, 346491, Note_on_c, 0, 97, 60
1, 346507, Note_off_c, 0, 92, 62
1, 346518, Note_off_c, 0, 99, 68
1, 346543, Note_off_c, 0, 97, 65
1, 346549, Note_on_c, 0, 85, 70
1, 346571, Note_off_c, 0, 85, 69
1, 346623, Note_on_c, 0, 85, 76
1, 346663, Note_off_c, 0, 85, 55
1, 346682, Note_on_c, 0, 84, 74
1, 346729, Note_off_c, 0, 84, 63
1, 346735, Note_on_c, 0, 85, 68
1, 346758, Note_off_c, 0, 85, 68
1, 346805, Note_on_c, 0, 85, 74
1, 346830, Note_off_c, 0, 85, 65
1, 346865, Note_on_c, 0, 97, 71
1, 346894, Note_off_c, 0, 97, 63
1, 346898, Note_on_c, 0, 99, 74
1, 346917, Note_on_c, 0, 92, 77
1, 346990, Note_on_c, 0, 97, 77
1, 347002, Note_off_c, 0, 92, 62
1, 347021, Note_off_c, 0, 99, 63
1, 347044, Note_on_c, 0, 85, 73
1, 347058, Note_off_c, 0, 97, 64
1, 347065, Note_off_c, 0, 85, 70
1, 347116, Control_c, 0, 64, 116
1, 347131, Control_c, 0, 64, 102
1, 347146, Control_c, 0, 64, 90
1, 347160, Control_c, 0, 64, 78
1, 347173, Note_on_c, 0, 84, 77
1, 347175, Control_c, 0, 64, 65
1, 347190, Control_c, 0, 64, 0
1, 347195, Note_off_c, 0, 84, 70
1, 347323, Note_on_c, 0, 85, 72
1, 347345, Note_off_c, 0, 85, 69
1, 347462, Note_on_c, 0, 92, 80
1, 347480, Note_off_c, 0, 92, 73
1, 347613, Note_on_c, 0, 99, 87
1, 347656, Note_off_c, 0, 99, 67
1, 347779, Note_on_c, 0, 97, 100
1, 347822, Note_off_c, 0, 97, 63
1, 347922, Note_on_c, 0, 85, 55
1, 347957, Note_off_c, 0, 85, 55
1, 348033, Note_on_c, 0, 92, 58
1, 348056, Note_on_c, 0, 77, 51
1, 348067, Note_on_c, 0, 99, 56
1, 348074, Control_c, 0, 64, 46
1, 348076, Note_off_c, 0, 92, 57
1, 348088, Control_c, 0, 64, 68
1, 348103, Control_c, 0, 64, 75
1, 348118, Control_c, 0, 64, 81
1, 348133, Control_c, 0, 64, 84
1, 348147, Note_off_c, 0, 77, 51
1, 348148, Control_c, 0, 64, 87
1, 348153, Note_on_c, 0, 97, 62
1, 348158, Note_off_c, 0, 99, 59
1, 348162, Note_on_c, 0, 85, 51
1, 348162, Control_c, 0, 64, 90
1, 348177, Control_c, 0, 64, 94
1, 348192, Control_c, 0, 64, 98
1, 348207, Control_c, 0, 64, 101
1, 348222, Control_c, 0, 64, 103
1, 348237, Control_c, 0, 64, 105
1, 348239, Note_off_c, 0, 97, 53
1, 348251, Control_c, 0, 64, 107
1, 348255, Note_off_c, 0, 85, 35
1, 348256, Note_on_c, 0, 93, 55
1, 348266, Control_c, 0, 64, 108
1, 348271, Note_on_c, 0, 78, 60
1, 348281, Control_c, 0, 64, 110
1, 348281, Note_on_c, 0, 99, 63
1, 348296, Control_c, 0, 64, 111
1, 348308, Note_off_c, 0, 93, 60
1, 348311, Control_c, 0, 64, 112
1, 348316, Note_off_c, 0, 78, 53
1, 348326, Control_c, 0, 64, 112
1, 348341, Control_c, 0, 64, 113
1, 348355, Control_c, 0, 64, 113
1, 348357, Note_off_c, 0, 99, 66
1, 348358, Note_on_c, 0, 97, 61
1, 348360, Note_on_c, 0, 85, 59
1, 348370, Control_c, 0, 64, 114
1, 348385, Control_c, 0, 64, 114
1, 348415, Control_c, 0, 64, 115
1, 348428, Note_off_c, 0, 85, 51
1, 348436, Control_c, 0, 64, 115
1, 348441, Note_off_c, 0, 97, 60
1, 348451, Control_c, 0, 64, 116
1, 348455, Note_on_c, 0, 94, 64
1, 348466, Control_c, 0, 64, 117
1, 348472, Note_on_c, 0, 79, 64
1, 348481, Control_c, 0, 64, 118
1, 348482, Note_on_c, 0, 99, 62
1, 348496, Control_c, 0, 64, 119
1, 348502, Note_off_c, 0, 79, 63
1, 348510, Note_off_c, 0, 94, 62
1, 348511, Control_c, 0, 64, 120
1, 348526, Control_c, 0, 64, 121
1, 348542, Note_on_c, 0, 97, 57
1, 348542, Note_off_c, 0, 99, 65
1, 348548, Note_on_c, 0, 85, 60
1, 348600, Control_c, 0, 64, 117
1, 348609, Note_off_c, 0, 85, 59
1, 348615, Control_c, 0, 64, 100
1, 348627, Note_off_c, 0, 97, 51
1, 348629, Control_c, 0, 64, 80
1, 348630, Note_on_c, 0, 95, 53
1, 348644, Control_c, 0, 64, 47
1, 348648, Note_on_c, 0, 80, 68
1, 348650, Note_on_c, 0, 73, 56
1, 348659, Control_c, 0, 64, 0
1, 348666, Note_on_c, 0, 99, 66
1, 348673, Note_off_c, 0, 80, 68
1, 348673, Note_off_c, 0, 95, 64
1, 348673, Control_c, 0, 64, 57
1, 348677, Note_off_c, 0, 73, 66
1, 348688, Control_c, 0, 64, 78
1, 348703, Control_c, 0, 64, 97
1, 348709, Note_on_c, 0, 97, 44
1, 348718, Control_c, 0, 64, 127
1, 348740, Note_on_c, 0, 85, 56
1, 348746, Note_off_c, 0, 99, 65
1, 348806, Note_off_c, 0, 97, 62
1, 348812, Note_on_c, 0, 92, 65
1, 348845, Note_on_c, 0, 101, 91
1, 348846, Note_on_c, 0, 99, 53
1, 348847, Note_off_c, 0, 85, 34
1, 348879, Note_off_c, 0, 92, 62
1, 348886, Note_off_c, 0, 101, 66
1, 348893, Note_on_c, 0, 97, 45
1, 348898, Note_on_c, 0, 85, 38
1, 348916, Note_off_c, 0, 99, 66
1, 348975, Note_off_c, 0, 85, 64
1, 348977, Note_off_c, 0, 97, 60
1, 348982, Note_on_c, 0, 93, 63
1, 349009, Note_on_c, 0, 99, 68
1, 349014, Note_on_c, 0, 102, 101
1, 349044, Note_off_c, 0, 93, 60
1, 349062, Note_on_c, 0, 97, 64
1, 349071, Note_off_c, 0, 102, 65
1, 349092, Note_off_c, 0, 99, 65
1, 349105, Note_on_c, 0, 85, 57
1, 349131, Note_off_c, 0, 97, 62
1, 349183, Note_on_c, 0, 103, 116
1, 349187, Note_on_c, 0, 94, 66
1, 349191, Note_on_c, 0, 99, 67
1, 349225, Note_off_c, 0, 103, 65
1, 349231, Note_off_c, 0, 94, 60
1, 349241, Note_on_c, 0, 97, 61
1, 349277, Note_off_c, 0, 99, 64
1, 349316, Note_off_c, 0, 85, 53
1, 349334, Note_off_c, 0, 97, 59
1, 349402, Note_on_c, 0, 95, 70
1, 349415, Note_on_c, 0, 104, 108
1, 349419, Note_on_c, 0, 94, 59
1, 349441, Note_off_c, 0, 94, 38
1, 349452, Note_off_c, 0, 104, 69
1, 349453, Note_off_c, 0, 95, 67
1, 349580, Note_on_c, 0, 99, 72
1, 349667, Note_off_c, 0, 99, 65
1, 349686, Note_on_c, 0, 97, 69
1, 349723, Note_off_c, 0, 97, 57
1, 349752, Note_on_c, 0, 99, 67
1, 349788, Note_off_c, 0, 99, 64
1, 349813, Note_on_c, 0, 97, 73
1, 349841, Note_off_c, 0, 97, 66
1, 349858, Note_on_c, 0, 99, 60
1, 349885, Note_off_c, 0, 99, 67
1, 349912, Note_on_c, 0, 97, 68
1, 349949, Note_off_c, 0, 97, 66
1, 349964, Note_on_c, 0, 99, 71
1, 349992, Note_off_c, 0, 99, 65
1, 350016, Note_on_c, 0, 97, 74
1, 350043, Note_off_c, 0, 97, 63
1, 350068, Note_on_c, 0, 99, 49
1, 350094, Note_off_c, 0, 99, 51
1, 350116, Note_on_c, 0, 97, 59
1, 350135, Note_off_c, 0, 97, 61
1, 350145, Note_on_c, 0, 99, 68
1, 350200, Note_on_c, 0, 97, 71
1, 350203, Note_off_c, 0, 99, 64
1, 350237, Note_on_c, 0, 96, 68
1, 350240, Note_off_c, 0, 97, 58
1, 350275, Note_on_c, 0, 97, 52
1, 350299, Note_off_c, 0, 96, 52
1, 350320, Note_on_c, 0, 98, 58
1, 350332, Note_on_c, 0, 99, 77
1, 350338, Note_off_c, 0, 98, 64
1, 350345, Note_off_c, 0, 97, 65
1, 350358, Note_off_c, 0, 99, 63
1, 350374, Note_on_c, 0, 100, 86
1, 350416, Note_on_c, 0, 101, 88
1, 350435, Note_on_c, 0, 54, 85
1, 350435, Note_on_c, 0, 102, 107
1, 350438, Control_c, 0, 64, 114
1, 350439, Note_off_c, 0, 100, 67
1, 350453, Control_c, 0, 64, 95
1, 350455, Note_off_c, 0, 101, 68
1, 350458, Note_off_c, 0, 54, 66
1, 350465, Note_off_c, 0, 102, 68
1, 350467, Control_c, 0, 64, 76
1, 350482, Control_c, 0, 64, 46
1, 350497, Control_c, 0, 64, 0
1, 350687, Note_on_c, 0, 70, 60
1, 350701, Note_on_c, 0, 61, 54
1, 350701, Note_on_c, 0, 66, 45
1, 350717, Note_off_c, 0, 70, 65
1, 350726, Note_off_c, 0, 66, 59
1, 350734, Note_off_c, 0, 61, 64
1, 350875, Note_on_c, 0, 78, 85
1, 350885, Note_on_c, 0, 49, 65
1, 350892, Note_off_c, 0, 78, 71
1, 350907, Note_off_c, 0, 49, 59
1, 351122, Note_on_c, 0, 70, 58
1, 351134, Note_on_c, 0, 66, 44
1, 351136, Note_on_c, 0, 61, 46
1, 351142, Note_off_c, 0, 70, 64
1, 351158, Note_off_c, 0, 66, 57
1, 351164, Note_off_c, 0, 61, 59
1, 351369, Note_on_c, 0, 81, 73
1, 351372, Note_on_c, 0, 54, 53
1, 351395, Note_off_c, 0, 54, 59
1, 351593, Note_on_c, 0, 69, 50
1, 351601, Note_on_c, 0, 61, 45
1, 351615, Note_off_c, 0, 69, 58
1, 351631, Note_off_c, 0, 61, 63
1, 351757, Note_on_c, 0, 49, 55
1, 351783, Note_off_c, 0, 49, 36
1, 351906, Note_on_c, 0, 61, 56
1, 351906, Note_on_c, 0, 69, 50
1, 351913, Note_on_c, 0, 66, 38
1, 351928, Note_off_c, 0, 69, 59
1, 351941, Note_off_c, 0, 61, 63
1, 351942, Note_off_c, 0, 66, 51
1, 352042, Note_on_c, 0, 56, 62
1, 352043, Note_on_c, 0, 80, 71
1, 352055, Note_off_c, 0, 81, 59
1, 352065, Note_off_c, 0, 80, 70
1, 352071, Note_off_c, 0, 56, 65
1, 352198, Note_on_c, 0, 61, 54
1, 352205, Note_on_c, 0, 71, 21
1, 352230, Note_off_c, 0, 61, 64
1, 352243, Note_off_c, 0, 71, 30
1, 352246, Note_on_c, 0, 81, 70
1, 352303, Note_on_c, 0, 49, 79
1, 352304, Note_off_c, 0, 81, 38
1, 352307, Note_on_c, 0, 83, 82
1, 352320, Note_off_c, 0, 49, 67
1, 352326, Note_off_c, 0, 83, 66
1, 352454, Note_on_c, 0, 61, 54
1, 352472, Note_on_c, 0, 71, 13
1, 352478, Note_off_c, 0, 61, 54
1, 352492, Note_on_c, 0, 86, 61
1, 352514, Note_off_c, 0, 71, 29
1, 352549, Note_on_c, 0, 85, 80
1, 352563, Note_off_c, 0, 86, 64
1, 352572, Note_on_c, 0, 56, 60
1, 352573, Note_off_c, 0, 85, 68
1, 352592, Note_off_c, 0, 56, 62
1, 352711, Note_on_c, 0, 71, 37
1, 352719, Note_on_c, 0, 61, 37
1, 352738, Note_off_c, 0, 71, 48
1, 352744, Note_off_c, 0, 61, 52
1, 352757, Note_on_c, 0, 73, 61
1, 352822, Note_on_c, 0, 75, 73
1, 352825, Note_off_c, 0, 73, 59
1, 352827, Note_on_c, 0, 49, 64
1, 352845, Note_off_c, 0, 75, 70
1, 352850, Note_off_c, 0, 49, 39
1, 352988, Note_on_c, 0, 61, 54
1, 352993, Note_on_c, 0, 71, 36
1, 353022, Note_off_c, 0, 61, 64
1, 353022, Note_off_c, 0, 71, 46
1, 353027, Note_on_c, 0, 77, 55
1, 353069, Note_off_c, 0, 77, 63
1, 353072, Note_on_c, 0, 78, 69
1, 353097, Note_off_c, 0, 78, 69
1, 353104, Note_on_c, 0, 80, 68
1, 353131, Note_on_c, 0, 54, 62
1, 353145, Note_on_c, 0, 78, 83
1, 353153, Note_off_c, 0, 54, 57
1, 353167, Note_off_c, 0, 80, 64
1, 353170, Note_off_c, 0, 78, 64
1, 353306, Note_on_c, 0, 70, 60
1, 353325, Note_on_c, 0, 61, 47
1, 353327, Note_off_c, 0, 70, 65
1, 353328, Note_on_c, 0, 66, 33
1, 353355, Note_off_c, 0, 61, 64
1, 353358, Note_off_c, 0, 66, 47
1, 353378, Note_on_c, 0, 77, 55
1, 353442, Note_off_c, 0, 77, 42
1, 353450, Note_on_c, 0, 78, 70
1, 353469, Note_on_c, 0, 49, 56
1, 353486, Note_off_c, 0, 78, 56
1, 353495, Note_off_c, 0, 49, 55
1, 353681, Note_on_c, 0, 66, 45
1, 353684, Note_on_c, 0, 70, 42
1, 353686, Note_on_c, 0, 61, 46
1, 353693, Note_on_c, 0, 80, 63
1, 353707, Note_off_c, 0, 70, 55
1, 353709, Note_off_c, 0, 66, 57
1, 353722, Note_off_c, 0, 61, 63
1, 353739, Note_off_c, 0, 80, 59
1, 353879, Note_on_c, 0, 80, 47
1, 353936, Note_on_c, 0, 81, 59
1, 353945, Note_on_c, 0, 54, 48
1, 353958, Note_off_c, 0, 80, 60
1, 353983, Note_off_c, 0, 54, 62
1, 354205, Note_on_c, 0, 69, 43
1, 354231, Note_off_c, 0, 69, 50
1, 354237, Note_on_c, 0, 61, 16
1, 354260, Note_off_c, 0, 61, 44
1, 354389, Note_on_c, 0, 49, 49
1, 354426, Note_off_c, 0, 49, 35
1, 354539, Note_on_c, 0, 61, 58
1, 354541, Note_on_c, 0, 69, 48
1, 354563, Note_off_c, 0, 69, 58
1, 354574, Note_off_c, 0, 61, 63
1, 354681, Note_on_c, 0, 80, 66
1, 354683, Note_on_c, 0, 56, 57
1, 354692, Note_off_c, 0, 81, 59
1, 354705, Note_off_c, 0, 56, 64
1, 354706, Note_off_c, 0, 80, 66
1, 354882, Note_on_c, 0, 81, 73
1, 354934, Note_on_c, 0, 83, 84
1, 354940, Note_on_c, 0, 49, 65
1, 354942, Note_off_c, 0, 81, 62
1, 354955, Note_off_c, 0, 83, 65
1, 354961, Note_off_c, 0, 49, 60
1, 355078, Note_on_c, 0, 61, 57
1, 355109, Note_off_c, 0, 61, 65
1, 355128, Note_on_c, 0, 86, 69
1, 355191, Note_on_c, 0, 85, 78
1, 355207, Note_off_c, 0, 86, 65
1, 355209, Note_on_c, 0, 56, 53
1, 355227, Note_off_c, 0, 85, 66
1, 355232, Note_off_c, 0, 56, 58
1, 355340, Note_on_c, 0, 61, 54
1, 355349, Note_on_c, 0, 71, 17
1, 355372, Note_off_c, 0, 61, 64
1, 355388, Note_off_c, 0, 71, 30
1, 355406, Note_on_c, 0, 73, 60
1, 355461, Note_on_c, 0, 49, 62
1, 355462, Note_on_c, 0, 75, 66
1, 355462, Note_off_c, 0, 73, 61
1, 355483, Note_off_c, 0, 49, 57
1, 355489, Note_off_c, 0, 75, 68
1, 355613, Note_on_c, 0, 71, 46
1, 355614, Note_on_c, 0, 61, 53
1, 355635, Note_on_c, 0, 77, 62
1, 355636, Note_off_c, 0, 71, 52
1, 355647, Note_off_c, 0, 61, 64
1, 355670, Note_off_c, 0, 77, 62
1, 355677, Note_on_c, 0, 78, 62
1, 355696, Note_off_c, 0, 78, 64
1, 355712, Note_on_c, 0, 80, 67
1, 355748, Note_on_c, 0, 54, 58
1, 355752, Note_on_c, 0, 78, 81
1, 355770, Note_off_c, 0, 54, 59
1, 355770, Note_off_c, 0, 80, 65
1, 355772, Note_off_c, 0, 78, 71
1, 355930, Note_on_c, 0, 70, 49
1, 355940, Note_on_c, 0, 61, 49
1, 355945, Note_on_c, 0, 66, 24
1, 355951, Note_off_c, 0, 70, 59
1, 355972, Note_off_c, 0, 61, 64
1, 355978, Note_off_c, 0, 66, 45
1, 356000, Note_on_c, 0, 77, 54
1, 356047, Note_off_c, 0, 77, 48
1, 356088, Note_on_c, 0, 78, 64
1, 356091, Note_on_c, 0, 49, 51
1, 356119, Note_off_c, 0, 78, 64
1, 356121, Note_off_c, 0, 49, 35
1, 356280, Note_on_c, 0, 70, 49
1, 356293, Note_on_c, 0, 66, 38
1, 356297, Note_on_c, 0, 61, 40
1, 356300, Note_on_c, 0, 80, 57
1, 356303, Note_off_c, 0, 70, 60
1, 356319, Note_off_c, 0, 66, 56
1, 356327, Note_off_c, 0, 61, 60
1, 356344, Note_off_c, 0, 80, 60
1, 356444, Note_on_c, 0, 78, 54
1, 356467, Note_on_c, 0, 80, 54
1, 356493, Note_off_c, 0, 78, 56
1, 356523, Note_on_c, 0, 81, 63
1, 356538, Note_on_c, 0, 54, 46
1, 356555, Note_off_c, 0, 80, 61
1, 356594, Note_off_c, 0, 54, 60
1, 356672, Control_c, 0, 64, 57
1, 356687, Control_c, 0, 64, 65
1, 356701, Control_c, 0, 64, 68
1, 356716, Control_c, 0, 64, 71
1, 356731, Control_c, 0, 64, 75
1, 356746, Control_c, 0, 64, 79
1, 356761, Control_c, 0, 64, 81
1, 356775, Control_c, 0, 64, 82
1, 356791, Control_c, 0, 64, 83
1, 356797, Note_on_c, 0, 69, 48
1, 356806, Control_c, 0, 64, 84
1, 356814, Note_on_c, 0, 61, 41
1, 356821, Note_off_c, 0, 69, 58
1, 356821, Control_c, 0, 64, 85
1, 356836, Control_c, 0, 64, 85
1, 356843, Note_off_c, 0, 61, 58
1, 356851, Control_c, 0, 64, 86
1, 356865, Control_c, 0, 64, 86
1, 356880, Control_c, 0, 64, 87
1, 356890, Note_off_c, 0, 81, 33
1, 356895, Control_c, 0, 64, 87
1, 356909, Control_c, 0, 64, 88
1, 356969, Control_c, 0, 64, 88
1, 356988, Note_on_c, 0, 81, 63
1, 356998, Control_c, 0, 64, 89
1, 357000, Note_on_c, 0, 49, 42
1, 357033, Note_off_c, 0, 49, 46
1, 357058, Control_c, 0, 64, 89
1, 357171, Note_on_c, 0, 61, 50
1, 357177, Note_on_c, 0, 69, 38
1, 357206, Note_off_c, 0, 69, 55
1, 357216, Note_off_c, 0, 61, 60
1, 357219, Poly_aftertouch_c, 0, 66, 127
1, 357248, Poly_aftertouch_c, 0, 66, 0
1, 357436, Note_on_c, 0, 56, 51
1, 357451, Control_c, 0, 64, 86
1, 357458, Note_on_c, 0, 80, 55
1, 357465, Control_c, 0, 64, 75
1, 357480, Control_c, 0, 64, 48
1, 357495, Control_c, 0, 64, 0
1, 357522, Note_off_c, 0, 81, 34
1, 357525, Note_off_c, 0, 80, 0
1, 357525, Note_on_c, 0, 80, 9
1, 357540, Control_c, 0, 64, 54
1, 357551, Note_off_c, 0, 56, 62
1, 357555, Control_c, 0, 64, 72
1, 357570, Control_c, 0, 64, 81
1, 357585, Control_c, 0, 64, 88
1, 357600, Control_c, 0, 64, 92
1, 357614, Control_c, 0, 64, 95
1, 357629, Control_c, 0, 64, 98
1, 357644, Control_c, 0, 64, 102
1, 357659, Control_c, 0, 64, 106
1, 357662, Note_off_c, 0, 80, 45
1, 357674, Control_c, 0, 64, 109
1, 357688, Note_on_c, 0, 61, 50
1, 357689, Control_c, 0, 64, 110
1, 357704, Note_on_c, 0, 71, 38
1, 357704, Control_c, 0, 64, 111
1, 357706, Note_on_c, 0, 65, 39
1, 357719, Control_c, 0, 64, 112
1, 357731, Note_off_c, 0, 61, 58
1, 357733, Control_c, 0, 64, 113
1, 357737, Note_off_c, 0, 71, 49
1, 357741, Note_off_c, 0, 65, 54
1, 357748, Control_c, 0, 64, 114
1, 357763, Control_c, 0, 64, 115
1, 357769, Note_on_c, 0, 81, 65
1, 357778, Control_c, 0, 64, 115
1, 357824, Note_off_c, 0, 81, 58
1, 357826, Note_on_c, 0, 83, 66
1, 357837, Control_c, 0, 64, 116
1, 357954, Note_on_c, 0, 61, 50
1, 358005, Note_off_c, 0, 61, 52
1, 358014, Poly_aftertouch_c, 0, 65, 127
1, 358027, Note_off_c, 0, 83, 54
1, 358037, Note_on_c, 0, 86, 57
1, 358047, Poly_aftertouch_c, 0, 65, 0
1, 358103, Control_c, 0, 64, 115
1, 358118, Control_c, 0, 64, 114
1, 358133, Control_c, 0, 64, 102
1, 358148, Control_c, 0, 64, 86
1, 358170, Control_c, 0, 64, 68
1, 358175, Note_on_c, 0, 76, 56
1, 358176, Note_on_c, 0, 85, 56
1, 358185, Control_c, 0, 64, 0
1, 358191, Note_on_c, 0, 55, 49
1, 358229, Control_c, 0, 64, 69
1, 358237, Note_off_c, 0, 55, 60
1, 358238, Note_off_c, 0, 86, 35
1, 358244, Control_c, 0, 64, 80
1, 358258, Control_c, 0, 64, 90
1, 358273, Control_c, 0, 64, 96
1, 358288, Control_c, 0, 64, 99
1, 358298, Note_off_c, 0, 85, 61
1, 358303, Control_c, 0, 64, 103
1, 358309, Note_off_c, 0, 76, 41
1, 358318, Control_c, 0, 64, 109
1, 358333, Control_c, 0, 64, 115
1, 358348, Control_c, 0, 64, 122
1, 358363, Control_c, 0, 64, 127
1, 358380, Note_on_c, 0, 64, 52
1, 358392, Note_on_c, 0, 70, 47
1, 358397, Note_on_c, 0, 61, 43
1, 358422, Note_off_c, 0, 70, 54
1, 358431, Note_off_c, 0, 64, 60
1, 358436, Note_off_c, 0, 61, 59
1, 358441, Note_on_c, 0, 78, 61
1, 358473, Note_off_c, 0, 78, 63
1, 358485, Note_on_c, 0, 79, 68
1, 358542, Note_off_c, 0, 79, 61
1, 358591, Note_on_c, 0, 61, 58
1, 358620, Note_off_c, 0, 61, 64
1, 358632, Note_on_c, 0, 82, 65
1, 358676, Poly_aftertouch_c, 0, 70, 0
1, 358689, Control_c, 0, 64, 106
1, 358699, Note_on_c, 0, 80, 77
1, 358704, Control_c, 0, 64, 85
1, 358709, Note_on_c, 0, 56, 71
1, 358719, Control_c, 0, 64, 68
1, 358734, Control_c, 0, 64, 0
1, 358748, Note_off_c, 0, 56, 62
1, 358763, Control_c, 0, 64, 63
1, 358778, Control_c, 0, 64, 78
1, 358787, Note_off_c, 0, 80, 59
1, 358793, Control_c, 0, 64, 94
1, 358803, Note_off_c, 0, 82, 38
1, 358807, Control_c, 0, 64, 105
1, 358822, Control_c, 0, 64, 107
1, 358837, Control_c, 0, 64, 110
1, 358852, Control_c, 0, 64, 114
1, 358855, Note_on_c, 0, 61, 58
1, 358863, Note_on_c, 0, 65, 52
1, 358865, Note_on_c, 0, 71, 53
1, 358867, Control_c, 0, 64, 120
1, 358881, Control_c, 0, 64, 127
1, 358887, Note_off_c, 0, 71, 58
1, 358892, Note_off_c, 0, 61, 58
1, 358896, Control_c, 0, 64, 127
1, 358911, Note_off_c, 0, 65, 62
1, 358914, Note_on_c, 0, 81, 81
1, 358960, Note_on_c, 0, 83, 76
1, 358968, Note_off_c, 0, 81, 59
1, 359078, Note_on_c, 0, 61, 58
1, 359098, Note_on_c, 0, 65, 19
1, 359110, Note_off_c, 0, 61, 63
1, 359133, Note_on_c, 0, 86, 73
1, 359135, Note_off_c, 0, 83, 59
1, 359135, Note_off_c, 0, 65, 54
1, 359171, Control_c, 0, 64, 112
1, 359186, Control_c, 0, 64, 87
1, 359201, Control_c, 0, 64, 65
1, 359214, Note_on_c, 0, 85, 76
1, 359215, Note_on_c, 0, 55, 68
1, 359216, Control_c, 0, 64, 0
1, 359217, Note_on_c, 0, 76, 71
1, 359245, Control_c, 0, 64, 56
1, 359255, Note_off_c, 0, 55, 63
1, 359258, Note_off_c, 0, 86, 59
1, 359260, Control_c, 0, 64, 74
1, 359275, Control_c, 0, 64, 90
1, 359286, Note_off_c, 0, 76, 62
1, 359290, Control_c, 0, 64, 102
1, 359305, Note_off_c, 0, 85, 64
1, 359305, Control_c, 0, 64, 107
1, 359320, Control_c, 0, 64, 110
1, 359334, Control_c, 0, 64, 116
1, 359349, Control_c, 0, 64, 125
1, 359364, Control_c, 0, 64, 127
1, 359366, Note_on_c, 0, 64, 62
1, 359369, Note_on_c, 0, 70, 66
1, 359385, Note_on_c, 0, 61, 49
1, 359397, Note_off_c, 0, 70, 64
1, 359415, Note_off_c, 0, 61, 55
1, 359417, Note_on_c, 0, 78, 73
1, 359418, Note_off_c, 0, 64, 59
1, 359460, Note_on_c, 0, 79, 78
1, 359471, Note_off_c, 0, 78, 61
1, 359545, Note_off_c, 0, 79, 58
1, 359561, Note_on_c, 0, 61, 57
1, 359563, Note_on_c, 0, 70, 60
1, 359579, Note_off_c, 0, 70, 67
1, 359593, Note_off_c, 0, 61, 63
1, 359621, Note_on_c, 0, 82, 75
1, 359645, Control_c, 0, 64, 115
1, 359668, Control_c, 0, 64, 85
1, 359680, Note_on_c, 0, 56, 81
1, 359682, Note_on_c, 0, 80, 81
1, 359683, Control_c, 0, 64, 52
1, 359698, Control_c, 0, 64, 0
1, 359725, Note_off_c, 0, 56, 61
1, 359727, Control_c, 0, 64, 67
1, 359742, Control_c, 0, 64, 85
1, 359751, Note_off_c, 0, 82, 56
1, 359757, Control_c, 0, 64, 108
1, 359767, Note_off_c, 0, 80, 62
1, 359772, Control_c, 0, 64, 119
1, 359786, Control_c, 0, 64, 121
1, 359801, Control_c, 0, 64, 123
1, 359815, Note_on_c, 0, 71, 70
1, 359816, Note_on_c, 0, 65, 68
1, 359816, Control_c, 0, 64, 127
1, 359821, Note_on_c, 0, 61, 62
1, 359843, Note_off_c, 0, 71, 62
1, 359850, Note_off_c, 0, 65, 62
1, 359856, Note_off_c, 0, 61, 62
1, 359866, Note_on_c, 0, 81, 84
1, 359910, Note_on_c, 0, 83, 85
1, 359939, Note_off_c, 0, 81, 61
1, 360033, Note_on_c, 0, 61, 55
1, 360033, Note_on_c, 0, 71, 46
1, 360057, Note_off_c, 0, 83, 56
1, 360060, Note_off_c, 0, 71, 50
1, 360062, Note_on_c, 0, 86, 74
1, 360062, Note_off_c, 0, 61, 64
1, 360084, Control_c, 0, 64, 104
1, 360099, Control_c, 0, 64, 78
1, 360114, Control_c, 0, 64, 0
1, 360124, Note_on_c, 0, 85, 82
1, 360127, Note_on_c, 0, 55, 83
1, 360143, Control_c, 0, 64, 66
1, 360150, Note_off_c, 0, 86, 64
1, 360156, Note_off_c, 0, 85, 68
1, 360158, Control_c, 0, 64, 85
1, 360173, Control_c, 0, 64, 110
1, 360183, Note_off_c, 0, 55, 58
1, 360188, Control_c, 0, 64, 127
1, 360264, Note_on_c, 0, 61, 63
1, 360282, Note_off_c, 0, 61, 64
1, 360300, Note_on_c, 0, 66, 73
1, 360351, Note_on_c, 0, 49, 84
1, 360360, Note_on_c, 0, 67, 88
1, 360372, Note_off_c, 0, 66, 60
1, 360375, Note_off_c, 0, 49, 66
1, 360485, Note_on_c, 0, 64, 66
1, 360504, Note_off_c, 0, 64, 66
1, 360528, Note_on_c, 0, 70, 75
1, 360548, Note_off_c, 0, 67, 60
1, 360551, Control_c, 0, 64, 127
1, 360566, Control_c, 0, 64, 92
1, 360580, Control_c, 0, 64, 67
1, 360595, Control_c, 0, 64, 0
1, 360598, Note_on_c, 0, 68, 87
1, 360601, Note_on_c, 0, 44, 82
1, 360601, Note_on_c, 0, 56, 82
1, 360610, Control_c, 0, 64, 57
1, 360624, Note_off_c, 0, 56, 68
1, 360625, Control_c, 0, 64, 78
1, 360630, Note_off_c, 0, 44, 66
1, 360632, Note_off_c, 0, 70, 62
1, 360640, Control_c, 0, 64, 102
1, 360646, Note_off_c, 0, 68, 64
1, 360654, Control_c, 0, 64, 127
1, 360736, Note_on_c, 0, 53, 79
1, 360769, Note_on_c, 0, 57, 82
1, 360800, Note_off_c, 0, 53, 60
1, 360819, Note_on_c, 0, 59, 81
1, 360843, Note_off_c, 0, 57, 60
1, 360911, Note_on_c, 0, 53, 57
1, 360937, Note_on_c, 0, 49, 55
1, 360946, Note_off_c, 0, 53, 67
1, 360959, Note_off_c, 0, 59, 62
1, 360962, Note_off_c, 0, 49, 62
1, 360967, Note_on_c, 0, 62, 68
1, 360995, Control_c, 0, 64, 101
1, 361010, Control_c, 0, 64, 74
1, 361016, Note_on_c, 0, 43, 90
1, 361025, Control_c, 0, 64, 0
1, 361028, Note_on_c, 0, 61, 80
1, 361054, Control_c, 0, 64, 58
1, 361057, Note_off_c, 0, 62, 64
1, 361069, Control_c, 0, 64, 79
1, 361078, Note_off_c, 0, 61, 65
1, 361084, Control_c, 0, 64, 101
1, 361099, Control_c, 0, 64, 127
1, 361138, Note_off_c, 0, 43, 55
1, 361186, Note_on_c, 0, 49, 64
1, 361194, Note_on_c, 0, 54, 78
1, 361235, Note_off_c, 0, 49, 60
1, 361249, Note_on_c, 0, 55, 93
1, 361268, Note_off_c, 0, 54, 59
1, 361361, Note_on_c, 0, 52, 77
1, 361373, Note_on_c, 0, 49, 60
1, 361385, Note_off_c, 0, 52, 69
1, 361396, Note_on_c, 0, 58, 72
1, 361400, Note_off_c, 0, 49, 65
1, 361426, Note_off_c, 0, 55, 62
1, 361462, Control_c, 0, 64, 104
1, 361476, Note_on_c, 0, 56, 85
1, 361477, Control_c, 0, 64, 71
1, 361487, Note_on_c, 0, 44, 87
1, 361490, Note_on_c, 0, 32, 78
1, 361491, Control_c, 0, 64, 0
1, 361510, Note_off_c, 0, 44, 66
1, 361512, Note_off_c, 0, 32, 65
1, 361518, Note_off_c, 0, 58, 63
1, 361521, Control_c, 0, 64, 58
1, 361531, Note_on_c, 0, 34, 11
1, 361532, Note_off_c, 0, 34, 127
1, 361535, Note_off_c, 0, 56, 64
1, 361535, Control_c, 0, 64, 80
1, 361550, Control_c, 0, 64, 104
1, 361564, Control_c, 0, 64, 127
1, 361577, Poly_aftertouch_c, 0, 34, 0
1, 361667, Note_on_c, 0, 41, 64
1, 361672, Note_on_c, 0, 45, 80
1, 361714, Note_on_c, 0, 47, 86
1, 361755, Note_off_c, 0, 45, 62
1, 361834, Note_off_c, 0, 41, 0
1, 361852, Note_on_c, 0, 41, 50
1, 361869, Note_on_c, 0, 37, 71
1, 361875, Note_on_c, 0, 50, 80
1, 361886, Note_off_c, 0, 47, 63
1, 361892, Note_off_c, 0, 41, 66
1, 361910, Note_off_c, 0, 37, 64
1, 361972, Note_on_c, 0, 31, 90
1, 361974, Note_on_c, 0, 49, 78
1, 361999, Note_off_c, 0, 50, 65
1, 362017, Control_c, 0, 64, 113
1, 362032, Control_c, 0, 64, 99
1, 362047, Control_c, 0, 64, 87
1, 362062, Control_c, 0, 64, 72
1, 362077, Control_c, 0, 64, 47
1, 362092, Control_c, 0, 64, 0
1, 362165, Note_on_c, 0, 42, 80
1, 362196, Note_off_c, 0, 49, 38
1, 362251, Note_on_c, 0, 43, 83
1, 362259, Note_on_c, 0, 37, 88
1, 362267, Note_off_c, 0, 42, 63
1, 362461, Note_on_c, 0, 46, 85
1, 362512, Note_off_c, 0, 43, 56
1, 362556, Note_on_c, 0, 49, 83
1, 362566, Note_on_c, 0, 40, 91
1, 362593, Note_off_c, 0, 46, 63
1, 362809, Note_off_c, 0, 49, 61
1, 362810, Note_on_c, 0, 52, 82
1, 362933, Note_on_c, 0, 55, 87
1, 362945, Note_on_c, 0, 43, 85
1, 363077, Control_c, 0, 64, 56
1, 363092, Control_c, 0, 64, 66
1, 363107, Control_c, 0, 64, 69
1, 363122, Control_c, 0, 64, 75
1, 363136, Control_c, 0, 64, 84
1, 363151, Note_off_c, 0, 31, 37
1, 363151, Control_c, 0, 64, 92
1, 363166, Control_c, 0, 64, 96
1, 363180, Note_off_c, 0, 37, 58
1, 363182, Control_c, 0, 64, 98
1, 363183, Note_off_c, 0, 40, 61
1, 363197, Control_c, 0, 64, 101
1, 363212, Control_c, 0, 64, 106
1, 363226, Control_c, 0, 64, 113
1, 363231, Note_on_c, 0, 58, 85
1, 363241, Control_c, 0, 64, 119
1, 363245, Note_off_c, 0, 43, 56
1, 363256, Control_c, 0, 64, 124
1, 363271, Control_c, 0, 64, 127
1, 363294, Note_off_c, 0, 55, 54
1, 363341, Note_off_c, 0, 52, 37
1, 363383, Note_off_c, 0, 58, 62
1, 363438, Note_on_c, 0, 38, 83
1, 363530, Control_c, 0, 64, 115
1, 363545, Control_c, 0, 64, 105
1, 363559, Control_c, 0, 64, 96
1, 363563, Note_on_c, 0, 45, 85
1, 363574, Control_c, 0, 64, 85
1, 363589, Control_c, 0, 64, 72
1, 363603, Control_c, 0, 64, 42
1, 363618, Control_c, 0, 64, 0
1, 363659, Note_on_c, 0, 50, 75
1, 363742, Note_on_c, 0, 54, 75
1, 364000, Note_on_c, 0, 61, 84
1, 364138, Control_c, 0, 64, 34
1, 364161, Control_c, 0, 64, 62
1, 364175, Control_c, 0, 64, 67
1, 364190, Control_c, 0, 64, 74
1, 364205, Control_c, 0, 64, 83
1, 364220, Control_c, 0, 64, 90
1, 364234, Control_c, 0, 64, 94
1, 364249, Control_c, 0, 64, 96
1, 364264, Control_c, 0, 64, 100
1, 364279, Control_c, 0, 64, 105
1, 364294, Control_c, 0, 64, 110
1, 364308, Control_c, 0, 64, 115
1, 364319, Note_off_c, 0, 61, 56
1, 364323, Control_c, 0, 64, 118
1, 364338, Control_c, 0, 64, 122
1, 364353, Control_c, 0, 64, 127
1, 364575, Note_on_c, 0, 60, 80
1, 364649, Control_c, 0, 64, 118
1, 364664, Control_c, 0, 64, 107
1, 364679, Control_c, 0, 64, 98
1, 364693, Control_c, 0, 64, 91
1, 364708, Control_c, 0, 64, 83
1, 364723, Control_c, 0, 64, 74
1, 364738, Control_c, 0, 64, 64
1, 364752, Control_c, 0, 64, 0
1, 364912, Note_on_c, 0, 57, 71
1, 364978, Note_off_c, 0, 54, 55
1, 364992, Note_off_c, 0, 50, 33
1, 365153, Note_on_c, 0, 56, 68
1, 365246, Note_off_c, 0, 57, 49
1, 365359, Note_on_c, 0, 55, 72
1, 365412, Note_off_c, 0, 56, 60
1, 365640, Note_on_c, 0, 54, 63
1, 365685, Note_off_c, 0, 55, 57
1, 366064, Note_on_c, 0, 51, 58
1, 366128, Note_off_c, 0, 54, 53
1, 366867, Note_on_c, 0, 50, 42
1, 366895, Note_off_c, 0, 51, 56
1, 367200, Control_c, 0, 64, 56
1, 367215, Control_c, 0, 64, 65
1, 367230, Control_c, 0, 64, 70
1, 367244, Control_c, 0, 64, 76
1, 367259, Control_c, 0, 64, 81
1, 367274, Control_c, 0, 64, 85
1, 367289, Control_c, 0, 64, 87
1, 367299, Note_off_c, 0, 38, 53
1, 367304, Control_c, 0, 64, 89
1, 367314, Note_off_c, 0, 45, 59
1, 367318, Control_c, 0, 64, 91
1, 367333, Control_c, 0, 64, 93
1, 367348, Control_c, 0, 64, 95
1, 367363, Control_c, 0, 64, 97
1, 367378, Control_c, 0, 64, 99
1, 367392, Control_c, 0, 64, 100
1, 367407, Control_c, 0, 64, 102
1, 367422, Control_c, 0, 64, 103
1, 367437, Control_c, 0, 64, 104
1, 367444, Note_off_c, 0, 50, 40
1, 367451, Note_off_c, 0, 60, 39
1, 367451, Control_c, 0, 64, 105
1, 367466, Control_c, 0, 64, 105
1, 367496, Control_c, 0, 64, 106
1, 367511, Control_c, 0, 64, 107
1, 367585, Control_c, 0, 64, 107
1, 367639, Note_on_c, 0, 32, 51
1, 367689, Control_c, 0, 64, 107
1, 367694, Note_on_c, 0, 33, 51
1, 367694, Note_off_c, 0, 32, 56
1, 367699, Note_on_c, 0, 36, 72
1, 367704, Control_c, 0, 64, 106
1, 367717, Note_on_c, 0, 61, 67
1, 367718, Note_on_c, 0, 53, 66
1, 367718, Control_c, 0, 64, 99
1, 367719, Note_on_c, 0, 56, 62
1, 367729, Note_off_c, 0, 33, 63
1, 367733, Control_c, 0, 64, 88
1, 367736, Note_off_c, 0, 36, 68
1, 367741, Note_on_c, 0, 37, 63
1, 367745, Note_off_c, 0, 53, 68
1, 367745, Note_off_c, 0, 61, 65
1, 367746, Note_off_c, 0, 56, 65
1, 367748, Control_c, 0, 64, 74
1, 367763, Control_c, 0, 64, 40
1, 367765, Note_off_c, 0, 37, 58
1, 367777, Control_c, 0, 64, 0
1, 367977, Note_on_c, 0, 39, 55
1, 368009, Note_off_c, 0, 39, 63
1, 368171, Note_on_c, 0, 41, 63
1, 368205, Note_off_c, 0, 41, 66
1, 368357, Note_on_c, 0, 42, 60
1, 368387, Note_off_c, 0, 42, 63
1, 368523, Note_on_c, 0, 32, 75
1, 368523, Note_on_c, 0, 46, 68
1, 368525, Note_on_c, 0, 44, 71
1, 368548, Note_off_c, 0, 32, 65
1, 368562, Note_off_c, 0, 46, 66
1, 368566, Note_off_c, 0, 44, 65
1, 368701, Note_on_c, 0, 43, 52
1, 368733, Note_off_c, 0, 43, 61
1, 368851, Note_on_c, 0, 37, 61
1, 368857, Note_on_c, 0, 44, 52
1, 368882, Note_off_c, 0, 37, 65
1, 368900, Note_off_c, 0, 44, 62
1, 369014, Note_on_c, 0, 41, 57
1, 369049, Note_off_c, 0, 41, 67
1, 369148, Note_on_c, 0, 34, 80
1, 369150, Note_on_c, 0, 42, 72
1, 369179, Note_off_c, 0, 34, 69
1, 369190, Note_off_c, 0, 42, 64
1, 369289, Note_on_c, 0, 44, 56
1, 369328, Note_off_c, 0, 44, 63
1, 369434, Note_on_c, 0, 37, 63
1, 369434, Note_on_c, 0, 46, 57
1, 369463, Note_off_c, 0, 37, 65
1, 369475, Note_off_c, 0, 46, 63
1, 369562, Note_on_c, 0, 47, 67
1, 369602, Note_off_c, 0, 47, 66
1, 369690, Note_on_c, 0, 30, 83
1, 369693, Note_on_c, 0, 49, 69
1, 369695, Note_on_c, 0, 51, 59
1, 369719, Note_off_c, 0, 30, 66
1, 369729, Note_off_c, 0, 51, 64
1, 369737, Note_off_c, 0, 49, 60
1, 369820, Note_on_c, 0, 48, 67
1, 369854, Note_off_c, 0, 48, 65
1, 369953, Note_on_c, 0, 49, 60
1, 369989, Note_off_c, 0, 49, 61
1, 370074, Note_on_c, 0, 46, 63
1, 370104, Note_off_c, 0, 46, 63
1, 370187, Note_on_c, 0, 32, 75
1, 370206, Note_on_c, 0, 44, 71
1, 370233, Note_off_c, 0, 32, 63
1, 370242, Note_off_c, 0, 44, 65
1, 370327, Note_on_c, 0, 46, 69
1, 370367, Note_off_c, 0, 46, 65
1, 370450, Note_on_c, 0, 48, 75
1, 370501, Note_off_c, 0, 48, 63
1, 370564, Note_on_c, 0, 49, 78
1, 370606, Note_off_c, 0, 49, 62
1, 370678, Note_on_c, 0, 53, 70
1, 370686, Note_on_c, 0, 44, 78
1, 370692, Note_on_c, 0, 51, 72
1, 370717, Note_off_c, 0, 44, 65
1, 370733, Note_off_c, 0, 53, 65
1, 370745, Note_off_c, 0, 51, 60
1, 370807, Note_on_c, 0, 50, 74
1, 370841, Note_off_c, 0, 50, 66
1, 370940, Note_on_c, 0, 51, 68
1, 370987, Note_off_c, 0, 51, 59
1, 371051, Note_on_c, 0, 48, 67
1, 371091, Note_off_c, 0, 48, 66
1, 371170, Note_on_c, 0, 37, 68
1, 371171, Note_on_c, 0, 49, 71
1, 371212, Note_off_c, 0, 49, 61
1, 371214, Note_off_c, 0, 37, 61
1, 371290, Note_on_c, 0, 51, 63
1, 371331, Note_off_c, 0, 51, 63
1, 371410, Note_on_c, 0, 53, 71
1, 371450, Note_off_c, 0, 53, 64
1, 371521, Note_on_c, 0, 54, 69
1, 371558, Note_off_c, 0, 54, 61
1, 371629, Note_on_c, 0, 49, 74
1, 371638, Note_on_c, 0, 58, 67
1, 371646, Note_on_c, 0, 56, 68
1, 371666, Note_off_c, 0, 49, 63
1, 371684, Note_off_c, 0, 56, 61
1, 371693, Note_off_c, 0, 58, 63
1, 371750, Note_on_c, 0, 55, 68
1, 371783, Note_off_c, 0, 55, 65
1, 371870, Note_on_c, 0, 56, 60
1, 371908, Note_off_c, 0, 56, 61
1, 371976, Note_on_c, 0, 53, 50
1, 372009, Note_off_c, 0, 53, 66
1, 372084, Note_on_c, 0, 37, 60
1, 372097, Note_on_c, 0, 49, 61
1, 372130, Note_off_c, 0, 37, 59
1, 372131, Note_off_c, 0, 49, 63
1, 372209, Note_on_c, 0, 51, 52
1, 372248, Note_off_c, 0, 51, 63
1, 372309, Note_on_c, 0, 49, 63
1, 372322, Note_on_c, 0, 53, 65
1, 372343, Note_off_c, 0, 49, 61
1, 372361, Note_off_c, 0, 53, 65
1, 372436, Note_on_c, 0, 54, 55
1, 372464, Note_off_c, 0, 54, 62
1, 372531, Note_on_c, 0, 58, 64
1, 372534, Note_on_c, 0, 47, 62
1, 372540, Note_on_c, 0, 35, 60
1, 372548, Note_on_c, 0, 56, 56
1, 372574, Note_off_c, 0, 47, 65
1, 372576, Note_off_c, 0, 58, 61
1, 372577, Note_off_c, 0, 56, 65
1, 372579, Note_off_c, 0, 35, 65
1, 372647, Note_on_c, 0, 55, 65
1, 372683, Note_off_c, 0, 55, 64
1, 372760, Note_on_c, 0, 56, 64
1, 372763, Note_on_c, 0, 49, 61
1, 372768, Note_on_c, 0, 37, 57
1, 372790, Note_off_c, 0, 49, 63
1, 372796, Note_off_c, 0, 56, 62
1, 372799, Note_off_c, 0, 37, 63
1, 372856, Note_on_c, 0, 53, 65
1, 372891, Note_off_c, 0, 53, 66
1, 372962, Note_on_c, 0, 54, 74
1, 372971, Note_on_c, 0, 46, 74
1, 372975, Note_on_c, 0, 34, 68
1, 373002, Note_off_c, 0, 54, 63
1, 373002, Note_off_c, 0, 46, 61
1, 373012, Note_off_c, 0, 34, 64
1, 373067, Note_on_c, 0, 56, 65
1, 373116, Note_off_c, 0, 56, 56
1, 373187, Note_on_c, 0, 37, 64
1, 373187, Note_on_c, 0, 58, 67
1, 373188, Note_on_c, 0, 49, 62
1, 373218, Note_off_c, 0, 49, 64
1, 373220, Note_off_c, 0, 37, 64
1, 373237, Note_off_c, 0, 58, 62
1, 373291, Note_on_c, 0, 59, 72
1, 373326, Note_off_c, 0, 59, 63
1, 373395, Note_on_c, 0, 63, 68
1, 373395, Note_on_c, 0, 61, 71
1, 373397, Note_on_c, 0, 30, 62
1, 373398, Note_on_c, 0, 42, 70
1, 373433, Note_off_c, 0, 42, 63
1, 373436, Note_off_c, 0, 30, 63
1, 373439, Note_off_c, 0, 61, 58
1, 373445, Note_off_c, 0, 63, 62
1, 373502, Note_on_c, 0, 60, 69
1, 373534, Note_off_c, 0, 60, 60
1, 373604, Note_on_c, 0, 61, 65
1, 373613, Note_on_c, 0, 42, 59
1, 373614, Note_on_c, 0, 54, 62
1, 373642, Note_off_c, 0, 61, 59
1, 373644, Note_off_c, 0, 54, 64
1, 373666, Note_off_c, 0, 42, 62
1, 373707, Note_on_c, 0, 58, 68
1, 373735, Note_off_c, 0, 58, 67
1, 373805, Note_on_c, 0, 44, 75
1, 373817, Note_on_c, 0, 56, 72
1, 373848, Note_off_c, 0, 44, 61
1, 373852, Note_off_c, 0, 56, 60
1, 373902, Note_on_c, 0, 58, 68
1, 373929, Note_off_c, 0, 58, 67
1, 374019, Note_on_c, 0, 60, 69
1, 374021, Note_on_c, 0, 56, 63
1, 374028, Note_on_c, 0, 72, 65
1, 374045, Note_off_c, 0, 56, 65
1, 374045, Note_off_c, 0, 60, 66
1, 374047, Note_off_c, 0, 72, 66
1, 374129, Note_on_c, 0, 61, 68
1, 374133, Note_on_c, 0, 73, 70
1, 374158, Note_off_c, 0, 61, 64
1, 374158, Note_off_c, 0, 73, 67
1, 374227, Note_on_c, 0, 63, 79
1, 374232, Note_on_c, 0, 42, 60
1, 374240, Note_on_c, 0, 75, 65
1, 374257, Note_on_c, 0, 54, 42
1, 374260, Note_off_c, 0, 63, 64
1, 374268, Note_off_c, 0, 75, 69
1, 374272, Note_off_c, 0, 42, 63
1, 374287, Note_off_c, 0, 54, 51
1, 374331, Note_on_c, 0, 62, 77
1, 374338, Note_on_c, 0, 74, 72
1, 374358, Note_off_c, 0, 62, 68
1, 374361, Note_off_c, 0, 74, 72
1, 374433, Note_on_c, 0, 63, 85
1, 374436, Note_on_c, 0, 56, 66
1, 374440, Note_on_c, 0, 75, 79
1, 374451, Note_on_c, 0, 44, 49
1, 374455, Note_off_c, 0, 63, 70
1, 374462, Note_off_c, 0, 56, 66
1, 374462, Note_off_c, 0, 75, 72
1, 374478, Note_off_c, 0, 44, 58
1, 374534, Note_on_c, 0, 60, 78
1, 374545, Note_on_c, 0, 72, 70
1, 374555, Note_off_c, 0, 60, 69
1, 374570, Note_off_c, 0, 72, 70
1, 374643, Note_on_c, 0, 61, 79
1, 374646, Note_on_c, 0, 41, 61
1, 374648, Note_on_c, 0, 73, 74
1, 374654, Note_on_c, 0, 53, 54
1, 374666, Note_off_c, 0, 61, 69
1, 374671, Note_off_c, 0, 73, 69
1, 374682, Note_off_c, 0, 53, 66
1, 374683, Note_off_c, 0, 41, 67
1, 374747, Note_on_c, 0, 63, 74
1, 374750, Note_on_c, 0, 75, 74
1, 374773, Note_off_c, 0, 63, 68
1, 374773, Note_off_c, 0, 75, 71
1, 374826, Note_on_c, 0, 56, 52
1, 374832, Note_on_c, 0, 44, 53
1, 374842, Note_on_c, 0, 65, 80
1, 374849, Note_off_c, 0, 56, 58
1, 374850, Note_on_c, 0, 77, 77
1, 374865, Note_off_c, 0, 44, 65
1, 374867, Note_off_c, 0, 65, 70
1, 374871, Note_off_c, 0, 77, 70
1, 374945, Note_on_c, 0, 66, 78
1, 374952, Note_on_c, 0, 78, 71
1, 374969, Note_off_c, 0, 66, 70
1, 374975, Note_off_c, 0, 78, 69
1, 374998, Control_c, 0, 64, 16
1, 375013, Control_c, 0, 64, 22
1, 375023, Note_on_c, 0, 37, 52
1, 375039, Note_on_c, 0, 44, 50
1, 375042, Control_c, 0, 64, 18
1, 375046, Note_on_c, 0, 68, 78
1, 375050, Note_on_c, 0, 80, 81
1, 375057, Control_c, 0, 64, 14
1, 375072, Note_off_c, 0, 68, 66
1, 375072, Control_c, 0, 64, 11
1, 375073, Note_off_c, 0, 80, 69
1, 375087, Control_c, 0, 64, 0
1, 375097, Note_off_c, 0, 37, 64
1, 375113, Note_off_c, 0, 44, 63
1, 375141, Note_on_c, 0, 67, 82
1, 375150, Note_on_c, 0, 79, 74
1, 375167, Note_off_c, 0, 67, 66
1, 375173, Note_off_c, 0, 79, 68
1, 375206, Control_c, 0, 64, 14
1, 375221, Control_c, 0, 64, 16
1, 375238, Note_on_c, 0, 68, 90
1, 375240, Note_on_c, 0, 80, 89
1, 375244, Note_on_c, 0, 56, 69
1, 375263, Note_on_c, 0, 73, 47
1, 375264, Note_off_c, 0, 73, 127
1, 375264, Note_off_c, 0, 68, 63
1, 375266, Note_off_c, 0, 80, 64
1, 375274, Note_off_c, 0, 56, 66
1, 375280, Control_c, 0, 64, 14
1, 375295, Control_c, 0, 64, 11
1, 375310, Control_c, 0, 64, 0
1, 375342, Note_on_c, 0, 65, 83
1, 375355, Note_on_c, 0, 76, 54
1, 375364, Note_off_c, 0, 65, 72
1, 375381, Note_off_c, 0, 76, 61
1, 375455, Note_on_c, 0, 61, 87
1, 375458, Note_on_c, 0, 49, 75
1, 375468, Note_on_c, 0, 73, 69
1, 375475, Note_off_c, 0, 61, 69
1, 375491, Note_off_c, 0, 49, 63
1, 375495, Note_off_c, 0, 73, 68
1, 375563, Note_on_c, 0, 63, 74
1, 375567, Note_on_c, 0, 75, 74
1, 375586, Note_off_c, 0, 63, 70
1, 375589, Note_off_c, 0, 75, 70
1, 375662, Note_on_c, 0, 65, 82
1, 375664, Note_on_c, 0, 61, 64
1, 375670, Note_on_c, 0, 77, 73
1, 375684, Note_off_c, 0, 65, 72
1, 375693, Note_off_c, 0, 61, 66
1, 375695, Note_off_c, 0, 77, 67
1, 375761, Note_on_c, 0, 66, 79
1, 375768, Note_on_c, 0, 78, 73
1, 375783, Note_off_c, 0, 66, 71
1, 375791, Note_off_c, 0, 78, 69
1, 375821, Control_c, 0, 64, 22
1, 375836, Control_c, 0, 64, 25
1, 375851, Control_c, 0, 64, 18
1, 375854, Note_on_c, 0, 47, 67
1, 375855, Note_on_c, 0, 68, 82
1, 375864, Note_on_c, 0, 80, 78
1, 375865, Control_c, 0, 64, 0
1, 375885, Note_off_c, 0, 68, 63
1, 375887, Note_off_c, 0, 80, 68
1, 375893, Note_off_c, 0, 47, 63
1, 375916, Note_on_c, 0, 57, 8
1, 375942, Note_off_c, 0, 57, 27
1, 375953, Note_on_c, 0, 67, 82
1, 375961, Note_on_c, 0, 79, 77
1, 375977, Note_off_c, 0, 67, 67
1, 375981, Note_off_c, 0, 79, 71
1, 376014, Control_c, 0, 64, 27
1, 376029, Control_c, 0, 64, 31
1, 376044, Note_on_c, 0, 68, 88
1, 376044, Control_c, 0, 64, 29
1, 376049, Note_on_c, 0, 80, 86
1, 376056, Note_on_c, 0, 61, 57
1, 376059, Control_c, 0, 64, 31
1, 376069, Note_on_c, 0, 49, 43
1, 376072, Note_off_c, 0, 80, 69
1, 376074, Note_off_c, 0, 68, 64
1, 376075, Note_off_c, 0, 61, 62
1, 376099, Note_off_c, 0, 49, 50
1, 376103, Control_c, 0, 64, 30
1, 376118, Control_c, 0, 64, 23
1, 376141, Control_c, 0, 64, 0
1, 376151, Note_on_c, 0, 65, 89
1, 376158, Note_on_c, 0, 77, 81
1, 376176, Note_off_c, 0, 65, 68
1, 376177, Note_off_c, 0, 77, 71
1, 376248, Note_on_c, 0, 66, 91
1, 376248, Note_on_c, 0, 78, 91
1, 376254, Note_on_c, 0, 46, 73
1, 376269, Note_on_c, 0, 58, 48
1, 376270, Note_off_c, 0, 66, 69
1, 376272, Note_off_c, 0, 78, 63
1, 376282, Note_off_c, 0, 46, 64
1, 376291, Note_off_c, 0, 58, 57
1, 376344, Note_on_c, 0, 68, 83
1, 376348, Note_on_c, 0, 80, 79
1, 376365, Note_off_c, 0, 68, 71
1, 376369, Note_off_c, 0, 80, 71
1, 376406, Control_c, 0, 64, 11
1, 376424, Note_on_c, 0, 70, 66
1, 376430, Note_on_c, 0, 61, 64
1, 376436, Control_c, 0, 64, 0
1, 376439, Note_on_c, 0, 82, 79
1, 376441, Note_on_c, 0, 49, 58
1, 376459, Note_on_c, 0, 80, 46
1, 376459, Note_off_c, 0, 61, 64
1, 376460, Note_off_c, 0, 82, 70
1, 376465, Note_off_c, 0, 49, 59
1, 376469, Note_off_c, 0, 70, 63
1, 376471, Note_off_c, 0, 80, 51
1, 376530, Note_on_c, 0, 71, 86
1, 376534, Note_on_c, 0, 83, 84
1, 376556, Note_off_c, 0, 71, 64
1, 376559, Note_off_c, 0, 83, 62
1, 376615, Control_c, 0, 64, 18
1, 376630, Control_c, 0, 64, 25
1, 376631, Note_on_c, 0, 73, 89
1, 376633, Note_on_c, 0, 85, 87
1, 376636, Note_on_c, 0, 42, 70
1, 376640, Note_on_c, 0, 54, 69
1, 376645, Control_c, 0, 64, 28
1, 376648, Note_off_c, 0, 73, 72
1, 376652, Note_off_c, 0, 85, 69
1, 376659, Control_c, 0, 64, 34
1, 376669, Note_off_c, 0, 54, 62
1, 376670, Note_off_c, 0, 42, 65
1, 376689, Control_c, 0, 64, 30
1, 376704, Control_c, 0, 64, 27
1, 376719, Control_c, 0, 64, 26
1, 376722, Note_on_c, 0, 72, 74
1, 376733, Control_c, 0, 64, 23
1, 376737, Note_on_c, 0, 84, 74
1, 376749, Control_c, 0, 64, 16
1, 376752, Note_off_c, 0, 72, 69
1, 376755, Note_off_c, 0, 84, 70
1, 376764, Control_c, 0, 64, 14
1, 376794, Control_c, 0, 64, 20
1, 376809, Control_c, 0, 64, 16
1, 376819, Note_on_c, 0, 73, 85
1, 376823, Note_on_c, 0, 54, 70
1, 376823, Note_on_c, 0, 66, 61
1, 376838, Control_c, 0, 64, 14
1, 376841, Note_on_c, 0, 84, 47
1, 376841, Note_off_c, 0, 73, 67
1, 376843, Note_off_c, 0, 66, 63
1, 376846, Note_on_c, 0, 82, 48
1, 376847, Note_off_c, 0, 82, 127
1, 376853, Control_c, 0, 64, 16
1, 376853, Note_off_c, 0, 54, 64
1, 376865, Note_off_c, 0, 84, 55
1, 376868, Control_c, 0, 64, 26
1, 376890, Control_c, 0, 64, 29
1, 376905, Control_c, 0, 64, 26
1, 376919, Control_c, 0, 64, 23
1, 376920, Note_on_c, 0, 70, 81
1, 376934, Control_c, 0, 64, 18
1, 376939, Note_on_c, 0, 82, 61
1, 376941, Note_off_c, 0, 70, 72
1, 376947, Note_on_c, 0, 68, 53
1, 376949, Control_c, 0, 64, 14
1, 376954, Note_on_c, 0, 80, 32
1, 376958, Note_off_c, 0, 82, 62
1, 376970, Note_off_c, 0, 68, 40
1, 376984, Note_off_c, 0, 80, 44
1, 376993, Control_c, 0, 64, 16
1, 377008, Control_c, 0, 64, 11
1, 377016, Note_on_c, 0, 68, 90
1, 377019, Note_on_c, 0, 44, 77
1, 377019, Note_on_c, 0, 80, 73
1, 377023, Control_c, 0, 64, 0
1, 377035, Note_off_c, 0, 68, 71
1, 377044, Note_off_c, 0, 80, 68
1, 377056, Note_off_c, 0, 44, 66
1, 377068, Control_c, 0, 64, 18
1, 377083, Control_c, 0, 64, 22
1, 377098, Control_c, 0, 64, 20
1, 377112, Control_c, 0, 64, 11
1, 377116, Note_on_c, 0, 82, 88
1, 377119, Note_on_c, 0, 70, 73
1, 377127, Control_c, 0, 64, 0
1, 377132, Note_off_c, 0, 82, 74
1, 377143, Note_off_c, 0, 70, 69
1, 377156, Control_c, 0, 64, 16
1, 377171, Control_c, 0, 64, 22
1, 377186, Control_c, 0, 64, 11
1, 377200, Note_on_c, 0, 56, 73
1, 377201, Note_on_c, 0, 72, 88
1, 377201, Control_c, 0, 64, 0
1, 377206, Note_on_c, 0, 84, 86
1, 377226, Note_off_c, 0, 56, 65
1, 377229, Note_off_c, 0, 84, 67
1, 377230, Note_off_c, 0, 72, 67
1, 377299, Note_on_c, 0, 85, 88
1, 377300, Note_on_c, 0, 73, 84
1, 377315, Note_off_c, 0, 85, 71
1, 377318, Note_off_c, 0, 73, 69
1, 377318, Control_c, 0, 64, 18
1, 377333, Control_c, 0, 64, 31
1, 377348, Control_c, 0, 64, 37
1, 377363, Control_c, 0, 64, 37
1, 377378, Control_c, 0, 64, 33
1, 377383, Note_on_c, 0, 75, 87
1, 377390, Note_on_c, 0, 42, 77
1, 377390, Note_on_c, 0, 87, 89
1, 377393, Control_c, 0, 64, 31
1, 377398, Note_on_c, 0, 54, 81
1, 377408, Control_c, 0, 64, 30
1, 377411, Note_on_c, 0, 85, 51
1, 377420, Note_off_c, 0, 87, 65
1, 377423, Control_c, 0, 64, 23
1, 377425, Note_off_c, 0, 54, 65
1, 377425, Note_off_c, 0, 75, 63
1, 377434, Note_off_c, 0, 85, 38
1, 377435, Note_off_c, 0, 42, 58
1, 377437, Control_c, 0, 64, 16
1, 377452, Control_c, 0, 64, 0
1, 377475, Note_on_c, 0, 74, 88
1, 377479, Note_on_c, 0, 86, 87
1, 377508, Note_off_c, 0, 74, 69
1, 377512, Note_off_c, 0, 86, 66
1, 377557, Control_c, 0, 64, 26
1, 377568, Note_on_c, 0, 75, 93
1, 377571, Note_on_c, 0, 87, 90
1, 377571, Control_c, 0, 64, 39
1, 377578, Note_on_c, 0, 56, 80
1, 377586, Control_c, 0, 64, 40
1, 377589, Note_on_c, 0, 44, 64
1, 377593, Note_off_c, 0, 75, 64
1, 377593, Note_off_c, 0, 87, 66
1, 377600, Note_off_c, 0, 56, 67
1, 377601, Note_on_c, 0, 80, 42
1, 377602, Note_off_c, 0, 80, 127
1, 377602, Control_c, 0, 64, 39
1, 377616, Control_c, 0, 64, 39
1, 377618, Note_off_c, 0, 44, 65
1, 377638, Control_c, 0, 64, 40
1, 377652, Control_c, 0, 64, 44
1, 377667, Note_on_c, 0, 72, 95
1, 377667, Control_c, 0, 64, 46
1, 377673, Note_on_c, 0, 84, 91
1, 377682, Control_c, 0, 64, 44
1, 377697, Control_c, 0, 64, 39
1, 377698, Note_off_c, 0, 72, 68
1, 377702, Note_off_c, 0, 84, 66
1, 377712, Control_c, 0, 64, 34
1, 377727, Control_c, 0, 64, 36
1, 377742, Control_c, 0, 64, 44
1, 377756, Control_c, 0, 64, 48
1, 377759, Note_on_c, 0, 85, 94
1, 377761, Note_on_c, 0, 73, 93
1, 377762, Note_on_c, 0, 53, 85
1, 377764, Note_on_c, 0, 41, 73
1, 377771, Control_c, 0, 64, 49
1, 377786, Control_c, 0, 64, 48
1, 377789, Note_off_c, 0, 73, 64
1, 377791, Note_off_c, 0, 85, 64
1, 377793, Note_off_c, 0, 53, 66
1, 377796, Note_off_c, 0, 41, 67
1, 377801, Control_c, 0, 64, 48
1, 377816, Control_c, 0, 64, 48
1, 377831, Control_c, 0, 64, 54
1, 377846, Control_c, 0, 64, 61
1, 377853, Note_on_c, 0, 75, 87
1, 377855, Note_on_c, 0, 87, 87
1, 377860, Control_c, 0, 64, 63
1, 377873, Note_off_c, 0, 75, 72
1, 377875, Control_c, 0, 64, 64
1, 377878, Note_off_c, 0, 87, 66
1, 377905, Control_c, 0, 64, 62
1, 377920, Control_c, 0, 64, 55
1, 377934, Control_c, 0, 64, 0
1, 377942, Note_on_c, 0, 56, 57
1, 377943, Note_on_c, 0, 44, 60
1, 377947, Note_on_c, 0, 77, 92
1, 377952, Note_on_c, 0, 89, 92
1, 377964, Note_off_c, 0, 56, 59
1, 377969, Note_off_c, 0, 44, 63
1, 377979, Note_off_c, 0, 77, 66
1, 377981, Note_off_c, 0, 89, 66
1, 378043, Note_on_c, 0, 78, 97
1, 378046, Note_on_c, 0, 90, 94
1, 378067, Note_off_c, 0, 78, 65
1, 378067, Control_c, 0, 64, 69
1, 378077, Note_off_c, 0, 90, 63
1, 378082, Control_c, 0, 64, 80
1, 378097, Control_c, 0, 64, 89
1, 378111, Control_c, 0, 64, 93
1, 378123, Note_on_c, 0, 37, 77
1, 378124, Note_on_c, 0, 44, 61
1, 378126, Control_c, 0, 64, 96
1, 378137, Note_on_c, 0, 80, 92
1, 378141, Control_c, 0, 64, 99
1, 378142, Note_on_c, 0, 92, 94
1, 378156, Control_c, 0, 64, 102
1, 378163, Note_off_c, 0, 44, 64
1, 378167, Note_off_c, 0, 37, 64
1, 378170, Note_off_c, 0, 80, 61
1, 378170, Note_off_c, 0, 92, 63
1, 378171, Control_c, 0, 64, 104
1, 378186, Control_c, 0, 64, 105
1, 378186, Note_on_c, 0, 90, 12
1, 378230, Control_c, 0, 64, 105
1, 378232, Note_on_c, 0, 79, 95
1, 378237, Note_on_c, 0, 91, 92
1, 378238, Note_off_c, 0, 90, 33
1, 378245, Control_c, 0, 64, 107
1, 378260, Note_off_c, 0, 79, 63
1, 378260, Note_off_c, 0, 91, 62
1, 378260, Control_c, 0, 64, 108
1, 378275, Control_c, 0, 64, 109
1, 378290, Control_c, 0, 64, 110
1, 378304, Control_c, 0, 64, 112
1, 378313, Note_on_c, 0, 56, 75
1, 378319, Control_c, 0, 64, 117
1, 378327, Note_on_c, 0, 92, 97
1, 378328, Note_on_c, 0, 80, 79
1, 378334, Control_c, 0, 64, 127
1, 378338, Note_off_c, 0, 56, 67
1, 378341, Note_off_c, 0, 80, 73
1, 378342, Note_off_c, 0, 92, 74
1, 378350, Control_c, 0, 64, 127
1, 378428, Note_on_c, 0, 77, 94
1, 378430, Note_on_c, 0, 89, 84
1, 378445, Poly_aftertouch_c, 0, 79, 0
1, 378453, Note_off_c, 0, 77, 64
1, 378461, Note_off_c, 0, 89, 66
1, 378475, Control_c, 0, 64, 115
1, 378490, Control_c, 0, 64, 85
1, 378505, Control_c, 0, 64, 0
1, 378520, Note_on_c, 0, 34, 76
1, 378524, Note_on_c, 0, 92, 97
1, 378526, Note_on_c, 0, 80, 101
1, 378535, Control_c, 0, 64, 53
1, 378547, Note_on_c, 0, 90, 58
1, 378549, Note_off_c, 0, 80, 68
1, 378549, Control_c, 0, 64, 76
1, 378562, Note_off_c, 0, 92, 63
1, 378564, Control_c, 0, 64, 96
1, 378568, Note_off_c, 0, 90, 39
1, 378570, Note_off_c, 0, 34, 61
1, 378579, Control_c, 0, 64, 124
1, 378581, Note_on_c, 0, 33, 9
1, 378594, Control_c, 0, 64, 127
1, 378619, Note_on_c, 0, 94, 99
1, 378624, Note_on_c, 0, 82, 86
1, 378629, Note_off_c, 0, 33, 56
1, 378641, Note_off_c, 0, 82, 73
1, 378647, Note_off_c, 0, 94, 61
1, 378650, Poly_aftertouch_c, 0, 40, 127
1, 378680, Poly_aftertouch_c, 0, 40, 0
1, 378706, Note_on_c, 0, 44, 79
1, 378717, Note_on_c, 0, 86, 76
1, 378719, Note_on_c, 0, 98, 96
1, 378720, Note_on_c, 0, 84, 91
1, 378724, Note_on_c, 0, 96, 76
1, 378727, Note_on_c, 0, 37, 66
1, 378730, Note_off_c, 0, 44, 65
1, 378736, Note_off_c, 0, 84, 74
1, 378738, Note_off_c, 0, 86, 70
1, 378740, Note_off_c, 0, 98, 67
1, 378745, Note_off_c, 0, 96, 69
1, 378751, Note_off_c, 0, 37, 62
1, 378811, Note_on_c, 0, 85, 95
1, 378811, Note_on_c, 0, 97, 99
1, 378835, Note_off_c, 0, 85, 60
1, 378849, Note_off_c, 0, 97, 63
1, 378861, Control_c, 0, 64, 103
1, 378875, Control_c, 0, 64, 75
1, 378890, Control_c, 0, 64, 0
1, 378902, Note_on_c, 0, 42, 92
1, 378903, Note_on_c, 0, 30, 85
1, 378903, Note_on_c, 0, 87, 91
1, 378904, Note_on_c, 0, 99, 101
1, 378920, Control_c, 0, 64, 73
1, 378934, Control_c, 0, 64, 95
1, 378939, Note_off_c, 0, 99, 70
1, 378940, Note_off_c, 0, 87, 62
1, 378949, Control_c, 0, 64, 127
1, 378953, Note_off_c, 0, 42, 62
1, 378954, Note_off_c, 0, 30, 59
1, 378964, Control_c, 0, 64, 127
1, 379003, Note_on_c, 0, 98, 90
1, 379004, Note_on_c, 0, 84, 88
1, 379004, Note_on_c, 0, 86, 78
1, 379011, Note_on_c, 0, 96, 67
1, 379021, Note_off_c, 0, 84, 73
1, 379026, Note_off_c, 0, 96, 65
1, 379028, Note_off_c, 0, 86, 67
1, 379034, Note_off_c, 0, 98, 65
1, 379093, Note_on_c, 0, 99, 96
1, 379095, Note_on_c, 0, 87, 100
1, 379102, Note_on_c, 0, 44, 92
1, 379112, Note_on_c, 0, 97, 70
1, 379119, Note_on_c, 0, 32, 66
1, 379133, Note_off_c, 0, 87, 60
1, 379134, Note_off_c, 0, 44, 68
1, 379135, Note_off_c, 0, 99, 71
1, 379136, Note_off_c, 0, 97, 45
1, 379156, Note_off_c, 0, 32, 63
1, 379197, Note_on_c, 0, 84, 95
1, 379202, Note_on_c, 0, 96, 92
1, 379223, Note_off_c, 0, 84, 66
1, 379229, Note_off_c, 0, 96, 64
1, 379239, Control_c, 0, 64, 103
1, 379254, Control_c, 0, 64, 72
1, 379269, Control_c, 0, 64, 0
1, 379292, Note_on_c, 0, 85, 99
1, 379292, Note_on_c, 0, 97, 104
1, 379297, Note_on_c, 0, 41, 96
1, 379298, Note_on_c, 0, 29, 82
1, 379313, Control_c, 0, 64, 75
1, 379324, Note_off_c, 0, 85, 63
1, 379327, Note_off_c, 0, 97, 66
1, 379328, Control_c, 0, 64, 97
1, 379337, Note_off_c, 0, 29, 65
1, 379339, Note_off_c, 0, 41, 65
1, 379343, Control_c, 0, 64, 127
1, 379393, Note_on_c, 0, 99, 102
1, 379394, Note_on_c, 0, 87, 88
1, 379414, Note_off_c, 0, 87, 67
1, 379423, Note_on_c, 0, 100, 53
1, 379424, Note_off_c, 0, 100, 127
1, 379432, Note_off_c, 0, 99, 64
1, 379477, Note_on_c, 0, 44, 87
1, 379491, Note_on_c, 0, 89, 97
1, 379492, Note_on_c, 0, 32, 77
1, 379495, Note_on_c, 0, 101, 99
1, 379503, Note_off_c, 0, 44, 69
1, 379527, Note_off_c, 0, 89, 70
1, 379530, Note_off_c, 0, 32, 64
1, 379534, Note_off_c, 0, 101, 67
1, 379535, Note_on_c, 0, 100, 30
1, 379563, Note_off_c, 0, 100, 37
1, 379598, Note_on_c, 0, 90, 97
1, 379600, Note_on_c, 0, 102, 102
1, 379634, Note_off_c, 0, 90, 66
1, 379641, Note_off_c, 0, 102, 65
1, 379685, Control_c, 0, 64, 113
1, 379688, Poly_aftertouch_c, 0, 32, 127
1, 379700, Control_c, 0, 64, 79
1, 379700, Note_on_c, 0, 32, 39
1, 379705, Note_on_c, 0, 37, 92
1, 379709, Note_on_c, 0, 25, 88
1, 379709, Note_on_c, 0, 92, 98
1, 379712, Note_on_c, 0, 104, 98
1, 379715, Control_c, 0, 64, 0
1, 379728, Note_on_c, 0, 97, 69
1, 379729, Note_off_c, 0, 97, 127
1, 379736, Note_on_c, 0, 102, 58
1, 379737, Note_off_c, 0, 102, 127
1, 379744, Control_c, 0, 64, 16
1, 379753, Note_off_c, 0, 92, 64
1, 379756, Note_off_c, 0, 104, 68
1, 379759, Control_c, 0, 64, 75
1, 379774, Control_c, 0, 64, 94
1, 379789, Control_c, 0, 64, 114
1, 379804, Control_c, 0, 64, 118
1, 379817, Note_on_c, 0, 91, 97
1, 379819, Control_c, 0, 64, 119
1, 379823, Note_on_c, 0, 103, 96
1, 379833, Control_c, 0, 64, 121
1, 379839, Note_on_c, 0, 102, 69
1, 379848, Control_c, 0, 64, 127
1, 379855, Note_off_c, 0, 91, 65
1, 379857, Note_off_c, 0, 102, 64
1, 379864, Note_off_c, 0, 103, 66
1, 379884, Note_off_c, 0, 37, 63
1, 379906, Note_off_c, 0, 32, 57
1, 379911, Note_off_c, 0, 25, 61
1, 379937, Note_on_c, 0, 92, 100
1, 379940, Note_on_c, 0, 104, 99
1, 379962, Note_on_c, 0, 97, 63
1, 379963, Note_off_c, 0, 97, 127
1, 379975, Note_off_c, 0, 92, 65
1, 379981, Note_off_c, 0, 104, 66
1, 380046, Note_on_c, 0, 89, 102
1, 380052, Note_on_c, 0, 101, 102
1, 380085, Note_off_c, 0, 89, 69
1, 380096, Note_off_c, 0, 101, 66
1, 380138, Control_c, 0, 64, 89
1, 380153, Control_c, 0, 64, 20
1, 380168, Control_c, 0, 64, 0
1, 380180, Note_on_c, 0, 27, 79
1, 380180, Note_on_c, 0, 39, 99
1, 380183, Note_on_c, 0, 90, 100
1, 380184, Note_on_c, 0, 32, 84
1, 380185, Note_on_c, 0, 102, 105
1, 380197, Control_c, 0, 64, 64
1, 380201, Note_on_c, 0, 103, 85
1, 380212, Control_c, 0, 64, 87
1, 380219, Note_off_c, 0, 27, 64
1, 380219, Note_off_c, 0, 90, 65
1, 380222, Note_off_c, 0, 103, 69
1, 380223, Note_off_c, 0, 32, 64
1, 380227, Control_c, 0, 64, 125
1, 380232, Note_on_c, 0, 97, 23
1, 380233, Note_off_c, 0, 97, 127
1, 380234, Note_off_c, 0, 102, 62
1, 380238, Note_off_c, 0, 39, 62
1, 380242, Control_c, 0, 64, 127
1, 380315, Note_on_c, 0, 94, 92
1, 380318, Note_on_c, 0, 106, 98
1, 380356, Note_off_c, 0, 106, 61
1, 380356, Note_off_c, 0, 94, 66
1, 380444, Note_on_c, 0, 56, 97
1, 380449, Note_on_c, 0, 87, 76
1, 380449, Control_c, 0, 64, 90
1, 380451, Note_on_c, 0, 51, 92
1, 380451, Note_on_c, 0, 99, 83
1, 380457, Note_on_c, 0, 44, 71
1, 380458, Note_on_c, 0, 48, 70
1, 380463, Note_off_c, 0, 99, 74
1, 380464, Control_c, 0, 64, 56
1, 380471, Note_off_c, 0, 87, 70
1, 380479, Control_c, 0, 64, 0
1, 380493, Control_c, 0, 64, 49
1, 380498, Note_on_c, 0, 100, 13
1, 380499, Note_off_c, 0, 100, 127
1, 380508, Control_c, 0, 64, 77
1, 380523, Control_c, 0, 64, 111
1, 380538, Control_c, 0, 64, 127
1, 380541, Note_on_c, 0, 92, 90
1, 380543, Note_on_c, 0, 104, 91
1, 380556, Note_on_c, 0, 102, 76
1, 380558, Note_off_c, 0, 92, 74
1, 380558, Note_off_c, 0, 104, 73
1, 380562, Note_on_c, 0, 90, 56
1, 380579, Note_off_c, 0, 102, 64
1, 380582, Note_off_c, 0, 90, 58
1, 380651, Note_on_c, 0, 84, 99
1, 380653, Note_on_c, 0, 96, 95
1, 380668, Note_off_c, 0, 56, 61
1, 380671, Note_off_c, 0, 51, 59
1, 380672, Note_off_c, 0, 44, 62
1, 380673, Note_off_c, 0, 48, 63
1, 380676, Note_off_c, 0, 84, 65
1, 380686, Note_off_c, 0, 96, 66
1, 380752, Note_on_c, 0, 99, 98
1, 380758, Note_on_c, 0, 87, 81
1, 380773, Note_off_c, 0, 99, 67
1, 380778, Note_off_c, 0, 87, 70
1, 380857, Note_on_c, 0, 68, 84
1, 380859, Note_on_c, 0, 80, 94
1, 380861, Note_on_c, 0, 92, 96
1, 380870, Note_on_c, 0, 56, 73
1, 380879, Note_off_c, 0, 68, 70
1, 380882, Note_off_c, 0, 80, 63
1, 380892, Note_off_c, 0, 56, 67
1, 380898, Note_on_c, 0, 58, 18
1, 380899, Note_on_c, 0, 93, 43
1, 380900, Note_off_c, 0, 93, 127
1, 380901, Note_off_c, 0, 92, 60
1, 380935, Note_off_c, 0, 58, 43
1, 380973, Note_on_c, 0, 96, 89
1, 380974, Note_on_c, 0, 84, 94
1, 380977, Note_on_c, 0, 72, 77
1, 380992, Note_on_c, 0, 60, 54
1, 380995, Note_on_c, 0, 95, 64
1, 380996, Note_off_c, 0, 96, 62
1, 380997, Note_off_c, 0, 72, 71
1, 381003, Note_off_c, 0, 84, 64
1, 381012, Note_off_c, 0, 95, 42
1, 381013, Note_off_c, 0, 60, 57
1, 381084, Note_on_c, 0, 78, 101
1, 381086, Note_on_c, 0, 90, 95
1, 381089, Note_on_c, 0, 66, 84
1, 381104, Note_on_c, 0, 54, 62
1, 381110, Note_off_c, 0, 66, 72
1, 381113, Note_off_c, 0, 78, 64
1, 381116, Note_on_c, 0, 56, 43
1, 381117, Note_off_c, 0, 56, 127
1, 381122, Note_off_c, 0, 90, 66
1, 381125, Note_off_c, 0, 54, 61
1, 381187, Note_on_c, 0, 82, 98
1, 381189, Note_on_c, 0, 94, 101
1, 381199, Note_on_c, 0, 70, 72
1, 381202, Note_on_c, 0, 58, 72
1, 381216, Note_off_c, 0, 82, 67
1, 381217, Note_off_c, 0, 70, 67
1, 381221, Note_off_c, 0, 94, 62
1, 381224, Note_on_c, 0, 92, 41
1, 381225, Note_off_c, 0, 92, 127
1, 381229, Note_off_c, 0, 58, 68
1, 381290, Note_on_c, 0, 75, 100
1, 381295, Note_on_c, 0, 63, 93
1, 381295, Note_on_c, 0, 87, 86
1, 381308, Note_on_c, 0, 51, 70
1, 381316, Note_off_c, 0, 63, 68
1, 381316, Note_off_c, 0, 75, 65
1, 381325, Note_off_c, 0, 51, 66
1, 381325, Note_off_c, 0, 87, 63
1, 381394, Note_on_c, 0, 78, 91
1, 381394, Note_on_c, 0, 90, 99
1, 381406, Note_on_c, 0, 66, 82
1, 381415, Note_on_c, 0, 54, 62
1, 381418, Note_off_c, 0, 90, 62
1, 381419, Note_on_c, 0, 80, 50
1, 381420, Note_off_c, 0, 80, 127
1, 381423, Note_off_c, 0, 66, 75
1, 381424, Note_off_c, 0, 78, 63
1, 381431, Note_on_c, 0, 91, 36
1, 381432, Note_off_c, 0, 91, 127
1, 381442, Note_off_c, 0, 54, 62
1, 381499, Note_on_c, 0, 72, 96
1, 381503, Note_on_c, 0, 84, 91
1, 381509, Note_on_c, 0, 60, 89
1, 381524, Note_on_c, 0, 48, 71
1, 381530, Note_off_c, 0, 72, 71
1, 381533, Note_off_c, 0, 84, 71
1, 381543, Note_off_c, 0, 60, 60
1, 381544, Note_off_c, 0, 48, 67
1, 381611, Note_on_c, 0, 75, 99
1, 381613, Note_on_c, 0, 87, 96
1, 381622, Note_on_c, 0, 63, 88
1, 381629, Note_off_c, 0, 87, 73
1, 381632, Note_off_c, 0, 75, 64
1, 381634, Note_on_c, 0, 51, 70
1, 381638, Note_off_c, 0, 63, 75
1, 381648, Note_on_c, 0, 85, 42
1, 381663, Note_off_c, 0, 51, 64
1, 381676, Note_off_c, 0, 85, 57
1, 381724, Note_on_c, 0, 68, 103
1, 381725, Note_on_c, 0, 80, 97
1, 381737, Note_on_c, 0, 56, 83
1, 381742, Note_on_c, 0, 44, 74
1, 381750, Note_on_c, 0, 54, 62
1, 381757, Note_off_c, 0, 68, 65
1, 381758, Note_off_c, 0, 44, 68
1, 381760, Note_off_c, 0, 56, 68
1, 381763, Note_off_c, 0, 80, 67
1, 381770, Note_on_c, 0, 46, 29
1, 381771, Note_off_c, 0, 46, 127
1, 381778, Note_off_c, 0, 54, 55
1, 381807, Poly_aftertouch_c, 0, 46, 0
1, 381842, Note_on_c, 0, 72, 94
1, 381842, Note_on_c, 0, 84, 107
1, 381863, Note_on_c, 0, 62, 52
1, 381871, Note_on_c, 0, 60, 49
1, 381875, Note_on_c, 0, 50, 39
1, 381878, Note_off_c, 0, 72, 68
1, 381878, Note_off_c, 0, 84, 68
1, 381887, Note_off_c, 0, 62, 56
1, 381888, Note_off_c, 0, 60, 65
1, 381909, Note_off_c, 0, 50, 47
1, 381935, Poly_aftertouch_c, 0, 48, 127
1, 381968, Poly_aftertouch_c, 0, 48, 0
1, 382006, Control_c, 0, 64, 93
1, 382020, Control_c, 0, 64, 56
1, 382035, Control_c, 0, 64, 0
1, 382037, Note_on_c, 0, 71, 101
1, 382037, Note_on_c, 0, 80, 96
1, 382037, Note_on_c, 0, 83, 84
1, 382044, Note_on_c, 0, 39, 70
1, 382045, Note_on_c, 0, 44, 97
1, 382052, Note_on_c, 0, 32, 79
1, 382079, Control_c, 0, 64, 83
1, 382082, Note_off_c, 0, 71, 59
1, 382090, Note_off_c, 0, 32, 64
1, 382094, Control_c, 0, 64, 127
1, 382096, Note_off_c, 0, 83, 58
1, 382100, Note_off_c, 0, 80, 62
1, 382103, Note_off_c, 0, 39, 65
1, 382109, Note_off_c, 0, 44, 65
1, 382183, Note_on_c, 0, 71, 81
1, 382187, Note_on_c, 0, 80, 74
1, 382197, Note_on_c, 0, 83, 53
1, 382216, Note_off_c, 0, 80, 58
1, 382224, Note_off_c, 0, 71, 56
1, 382228, Note_off_c, 0, 83, 62
1, 382276, Note_on_c, 0, 68, 93
1, 382298, Note_on_c, 0, 56, 63
1, 382300, Note_off_c, 0, 68, 63
1, 382308, Note_on_c, 0, 58, 43
1, 382318, Note_off_c, 0, 56, 59
1, 382336, Note_off_c, 0, 58, 53
1, 382338, Note_on_c, 0, 83, 74
1, 382338, Note_on_c, 0, 71, 76
1, 382365, Note_off_c, 0, 83, 62
1, 382367, Note_off_c, 0, 71, 66
1, 382407, Note_on_c, 0, 65, 89
1, 382420, Note_on_c, 0, 53, 82
1, 382446, Note_off_c, 0, 65, 67
1, 382451, Note_off_c, 0, 53, 67
1, 382454, Note_on_c, 0, 68, 85
1, 382460, Note_on_c, 0, 80, 73
1, 382484, Note_off_c, 0, 80, 69
1, 382487, Note_off_c, 0, 68, 53
1, 382532, Note_on_c, 0, 61, 95
1, 382539, Note_on_c, 0, 49, 86
1, 382556, Note_off_c, 0, 61, 66
1, 382565, Note_off_c, 0, 49, 66
1, 382571, Note_on_c, 0, 48, 53
1, 382571, Note_on_c, 0, 51, 32
1, 382576, Note_on_c, 0, 65, 87
1, 382580, Note_on_c, 0, 60, 29
1, 382580, Note_on_c, 0, 77, 77
1, 382597, Note_off_c, 0, 48, 58
1, 382603, Note_off_c, 0, 77, 68
1, 382603, Note_off_c, 0, 51, 45
1, 382615, Note_off_c, 0, 60, 41
1, 382618, Note_off_c, 0, 65, 65
1, 382654, Note_on_c, 0, 59, 100
1, 382663, Note_on_c, 0, 47, 95
1, 382690, Note_off_c, 0, 59, 68
1, 382699, Note_off_c, 0, 47, 63
1, 382702, Note_on_c, 0, 61, 97
1, 382708, Note_on_c, 0, 73, 86
1, 382744, Note_off_c, 0, 61, 64
1, 382745, Note_off_c, 0, 73, 63
1, 382781, Note_on_c, 0, 56, 101
1, 382790, Note_on_c, 0, 44, 88
1, 382803, Note_on_c, 0, 46, 71
1, 382820, Note_off_c, 0, 56, 67
1, 382832, Note_on_c, 0, 49, 18
1, 382833, Note_off_c, 0, 44, 64
1, 382833, Note_off_c, 0, 46, 64
1, 382848, Note_on_c, 0, 59, 90
1, 382851, Note_on_c, 0, 71, 80
1, 382875, Note_off_c, 0, 49, 42
1, 382894, Note_off_c, 0, 59, 66
1, 382896, Note_off_c, 0, 71, 63
1, 382938, Note_on_c, 0, 53, 103
1, 382944, Note_on_c, 0, 41, 99
1, 382978, Note_off_c, 0, 53, 70
1, 382990, Note_off_c, 0, 41, 66
1, 383004, Note_on_c, 0, 56, 81
1, 383011, Note_on_c, 0, 68, 83
1, 383051, Note_off_c, 0, 56, 65
1, 383056, Note_off_c, 0, 68, 65
1, 383083, Poly_aftertouch_c, 0, 66, 127
1, 383093, Note_on_c, 0, 49, 98
1, 383097, Note_on_c, 0, 37, 90
1, 383097, Poly_aftertouch_c, 0, 61, 0
1, 383111, Poly_aftertouch_c, 0, 66, 0
1, 383119, Note_on_c, 0, 39, 49
1, 383127, Note_off_c, 0, 49, 67
1, 383136, Note_on_c, 0, 42, 27
1, 383144, Note_off_c, 0, 39, 57
1, 383148, Note_off_c, 0, 37, 65
1, 383167, Note_on_c, 0, 53, 94
1, 383173, Note_on_c, 0, 65, 91
1, 383175, Note_off_c, 0, 42, 44
1, 383211, Note_off_c, 0, 53, 65
1, 383214, Note_off_c, 0, 65, 64
1, 383274, Note_on_c, 0, 30, 36
1, 383356, Control_c, 0, 64, 114
1, 383364, Note_off_c, 0, 30, 52
1, 383371, Control_c, 0, 64, 78
1, 383386, Control_c, 0, 64, 0
1, 383392, Note_on_c, 0, 50, 102
1, 383392, Note_on_c, 0, 56, 87
1, 383392, Note_on_c, 0, 59, 80
1, 383394, Note_on_c, 0, 62, 90
1, 383398, Note_on_c, 0, 26, 85
1, 383399, Note_on_c, 0, 34, 83
1, 383400, Note_on_c, 0, 40, 91
1, 383405, Note_on_c, 0, 38, 87
1, 383425, Note_on_c, 0, 33, 61
1, 383431, Control_c, 0, 64, 51
1, 383446, Control_c, 0, 64, 86
1, 383447, Note_off_c, 0, 34, 64
1, 383447, Note_off_c, 0, 50, 61
1, 383449, Note_off_c, 0, 26, 67
1, 383453, Note_off_c, 0, 33, 62
1, 383455, Note_off_c, 0, 38, 60
1, 383458, Note_off_c, 0, 40, 64
1, 383461, Control_c, 0, 64, 127
1, 383472, Note_off_c, 0, 62, 61
1, 383489, Note_off_c, 0, 56, 58
1, 383505, Note_off_c, 0, 59, 60
1, 383516, Poly_aftertouch_c, 0, 28, 0
1, 383628, Note_on_c, 0, 50, 80
1, 383639, Note_on_c, 0, 38, 70
1, 383663, Note_off_c, 0, 50, 58
1, 383674, Note_off_c, 0, 38, 60
1, 383686, Note_on_c, 0, 51, 82
1, 383688, Note_on_c, 0, 63, 80
1, 383714, Note_off_c, 0, 51, 66
1, 383715, Note_off_c, 0, 63, 67
1, 383760, Note_on_c, 0, 52, 84
1, 383767, Note_on_c, 0, 40, 72
1, 383786, Note_off_c, 0, 52, 71
1, 383793, Note_off_c, 0, 40, 66
1, 383804, Note_on_c, 0, 53, 82
1, 383811, Note_on_c, 0, 65, 75
1, 383835, Note_off_c, 0, 53, 67
1, 383843, Note_off_c, 0, 65, 66
1, 383870, Note_on_c, 0, 54, 87
1, 383882, Note_on_c, 0, 42, 63
1, 383897, Note_on_c, 0, 44, 49
1, 383909, Note_off_c, 0, 54, 60
1, 383917, Note_off_c, 0, 42, 64
1, 383918, Note_on_c, 0, 55, 84
1, 383925, Note_on_c, 0, 67, 77
1, 383928, Note_off_c, 0, 44, 51
1, 383958, Note_off_c, 0, 55, 61
1, 383959, Note_off_c, 0, 67, 63
1, 383981, Note_on_c, 0, 56, 91
1, 383987, Note_on_c, 0, 44, 79
1, 384010, Note_on_c, 0, 46, 52
1, 384023, Note_off_c, 0, 56, 62
1, 384024, Note_off_c, 0, 44, 63
1, 384027, Note_on_c, 0, 57, 83
1, 384032, Note_on_c, 0, 69, 81
1, 384037, Note_off_c, 0, 46, 54
1, 384066, Note_off_c, 0, 69, 65
1, 384070, Note_off_c, 0, 57, 58
1, 384088, Note_on_c, 0, 58, 90
1, 384090, Note_on_c, 0, 46, 91
1, 384127, Note_on_c, 0, 59, 79
1, 384130, Note_on_c, 0, 71, 80
1, 384132, Note_off_c, 0, 58, 64
1, 384136, Control_c, 0, 64, 97
1, 384140, Note_off_c, 0, 46, 61
1, 384150, Note_off_c, 0, 59, 69
1, 384150, Control_c, 0, 64, 89
1, 384156, Note_off_c, 0, 71, 64
1, 384165, Control_c, 0, 64, 91
1, 384180, Control_c, 0, 64, 103
1, 384192, Poly_aftertouch_c, 0, 56, 0
1, 384195, Control_c, 0, 64, 127
1, 384201, Note_on_c, 0, 60, 97
1, 384208, Note_on_c, 0, 48, 86
1, 384245, Note_off_c, 0, 60, 64
1, 384251, Note_off_c, 0, 48, 65
1, 384256, Note_on_c, 0, 61, 86
1, 384261, Note_on_c, 0, 73, 81
1, 384276, Note_off_c, 0, 61, 69
1, 384280, Note_off_c, 0, 73, 71
1, 384315, Note_on_c, 0, 62, 92
1, 384316, Note_on_c, 0, 50, 85
1, 384353, Note_on_c, 0, 63, 94
1, 384355, Note_on_c, 0, 75, 88
1, 384358, Note_off_c, 0, 62, 64
1, 384360, Note_on_c, 0, 56, 23
1, 384361, Note_off_c, 0, 50, 64
1, 384383, Note_off_c, 0, 63, 68
1, 384387, Note_off_c, 0, 75, 65
1, 384403, Note_off_c, 0, 56, 46
1, 384426, Note_on_c, 0, 64, 90
1, 384437, Note_on_c, 0, 52, 70
1, 384441, Note_on_c, 0, 50, 71
1, 384459, Note_off_c, 0, 50, 66
1, 384462, Note_off_c, 0, 64, 66
1, 384463, Note_on_c, 0, 65, 94
1, 384464, Note_off_c, 0, 52, 67
1, 384467, Note_on_c, 0, 77, 92
1, 384502, Note_off_c, 0, 65, 66
1, 384505, Note_off_c, 0, 77, 64
1, 384531, Note_on_c, 0, 66, 98
1, 384538, Note_on_c, 0, 54, 81
1, 384559, Note_on_c, 0, 56, 53
1, 384567, Note_off_c, 0, 66, 68
1, 384572, Note_on_c, 0, 67, 94
1, 384575, Note_off_c, 0, 54, 61
1, 384577, Note_on_c, 0, 79, 86
1, 384580, Note_off_c, 0, 56, 59
1, 384613, Note_off_c, 0, 67, 64
1, 384617, Note_off_c, 0, 79, 64
1, 384638, Note_on_c, 0, 56, 86
1, 384638, Note_on_c, 0, 68, 100
1, 384663, Note_on_c, 0, 58, 54
1, 384678, Note_off_c, 0, 68, 67
1, 384678, Note_on_c, 0, 69, 90
1, 384679, Note_on_c, 0, 81, 90
1, 384683, Note_off_c, 0, 58, 64
1, 384687, Note_off_c, 0, 56, 63
1, 384721, Note_off_c, 0, 69, 66
1, 384722, Note_off_c, 0, 81, 64
1, 384747, Note_on_c, 0, 70, 95
1, 384747, Note_on_c, 0, 58, 84
1, 384768, Note_on_c, 0, 57, 74
1, 384774, Note_on_c, 0, 68, 61
1, 384783, Note_off_c, 0, 57, 67
1, 384786, Note_on_c, 0, 71, 88
1, 384788, Note_off_c, 0, 68, 72
1, 384789, Note_on_c, 0, 83, 88
1, 384791, Note_off_c, 0, 70, 62
1, 384797, Note_off_c, 0, 58, 65
1, 384820, Note_off_c, 0, 71, 59
1, 384827, Note_off_c, 0, 83, 64
1, 384863, Note_on_c, 0, 60, 87
1, 384863, Note_on_c, 0, 72, 96
1, 384904, Note_on_c, 0, 66, 34
1, 384906, Note_off_c, 0, 72, 66
1, 384912, Note_off_c, 0, 60, 64
1, 384913, Note_on_c, 0, 73, 95
1, 384918, Note_on_c, 0, 85, 87
1, 384926, Note_off_c, 0, 66, 61
1, 384949, Note_off_c, 0, 73, 62
1, 384955, Note_off_c, 0, 85, 62
1, 384975, Note_on_c, 0, 74, 94
1, 384976, Note_on_c, 0, 62, 96
1, 385015, Note_on_c, 0, 63, 27
1, 385027, Note_off_c, 0, 74, 68
1, 385030, Note_on_c, 0, 75, 89
1, 385033, Note_off_c, 0, 62, 65
1, 385036, Note_on_c, 0, 87, 80
1, 385053, Poly_aftertouch_c, 0, 66, 127
1, 385056, Note_off_c, 0, 63, 40
1, 385060, Note_on_c, 0, 85, 54
1, 385073, Note_off_c, 0, 75, 64
1, 385079, Note_off_c, 0, 87, 65
1, 385081, Note_off_c, 0, 85, 41
1, 385088, Poly_aftertouch_c, 0, 66, 0
1, 385107, Note_on_c, 0, 64, 97
1, 385107, Note_on_c, 0, 76, 98
1, 385148, Note_on_c, 0, 77, 93
1, 385155, Note_on_c, 0, 89, 88
1, 385155, Note_off_c, 0, 76, 70
1, 385165, Note_off_c, 0, 64, 67
1, 385167, Note_on_c, 0, 88, 76
1, 385182, Note_off_c, 0, 88, 64
1, 385188, Note_off_c, 0, 77, 66
1, 385192, Note_off_c, 0, 89, 65
1, 385306, Control_c, 0, 64, 107
1, 385320, Note_on_c, 0, 81, 75
1, 385321, Control_c, 0, 64, 74
1, 385322, Note_on_c, 0, 86, 60
1, 385326, Note_on_c, 0, 74, 102
1, 385327, Note_on_c, 0, 78, 105
1, 385328, Note_on_c, 0, 90, 100
1, 385329, Note_on_c, 0, 62, 95
1, 385332, Note_on_c, 0, 68, 94
1, 385336, Control_c, 0, 64, 0
1, 385376, Note_on_c, 0, 85, 17
1, 385377, Note_off_c, 0, 85, 127
1, 385395, Control_c, 0, 64, 64
1, 385410, Control_c, 0, 64, 86
1, 385425, Control_c, 0, 64, 103
1, 385440, Control_c, 0, 64, 119
1, 385452, Note_off_c, 0, 78, 63
1, 385453, Note_off_c, 0, 81, 61
1, 385454, Control_c, 0, 64, 125
1, 385455, Note_off_c, 0, 62, 61
1, 385459, Note_off_c, 0, 90, 62
1, 385468, Note_off_c, 0, 74, 66
1, 385469, Control_c, 0, 64, 127
1, 385478, Note_off_c, 0, 68, 62
1, 385489, Note_off_c, 0, 86, 63
1, 385568, Note_on_c, 0, 77, 84
1, 385572, Note_on_c, 0, 89, 81
1, 385575, Note_on_c, 0, 73, 80
1, 385575, Note_on_c, 0, 80, 78
1, 385580, Note_on_c, 0, 85, 70
1, 385582, Note_on_c, 0, 68, 74
1, 385586, Note_off_c, 0, 77, 69
1, 385597, Note_off_c, 0, 80, 70
1, 385599, Note_off_c, 0, 89, 63
1, 385601, Note_off_c, 0, 73, 62
1, 385603, Note_off_c, 0, 68, 69
1, 385603, Note_off_c, 0, 85, 69
1, 385646, Note_on_c, 0, 80, 90
1, 385646, Note_on_c, 0, 89, 90
1, 385647, Note_on_c, 0, 61, 63
1, 385650, Note_on_c, 0, 77, 95
1, 385654, Note_on_c, 0, 85, 81
1, 385656, Note_on_c, 0, 73, 81
1, 385662, Note_on_c, 0, 68, 66
1, 385671, Note_off_c, 0, 77, 66
1, 385678, Note_off_c, 0, 73, 68
1, 385681, Note_off_c, 0, 68, 65
1, 385690, Note_off_c, 0, 89, 65
1, 385692, Note_off_c, 0, 80, 62
1, 385699, Note_off_c, 0, 61, 64
1, 385699, Note_off_c, 0, 85, 66
1, 385786, Note_on_c, 0, 78, 90
1, 385787, Note_on_c, 0, 81, 85
1, 385788, Note_on_c, 0, 86, 80
1, 385790, Note_on_c, 0, 62, 94
1, 385798, Note_on_c, 0, 90, 70
1, 385802, Note_off_c, 0, 78, 75
1, 385804, Note_on_c, 0, 56, 74
1, 385806, Note_on_c, 0, 50, 68
1, 385811, Note_off_c, 0, 81, 62
1, 385815, Note_off_c, 0, 90, 67
1, 385817, Note_off_c, 0, 62, 65
1, 385818, Note_off_c, 0, 86, 64
1, 385823, Note_off_c, 0, 56, 66
1, 385835, Note_off_c, 0, 50, 53
1, 385855, Note_on_c, 0, 81, 90
1, 385856, Note_on_c, 0, 78, 102
1, 385860, Note_on_c, 0, 90, 95
1, 385870, Note_on_c, 0, 62, 85
1, 385870, Note_on_c, 0, 86, 77
1, 385880, Note_on_c, 0, 50, 69
1, 385887, Note_on_c, 0, 56, 79
1, 385900, Note_off_c, 0, 78, 65
1, 385900, Note_off_c, 0, 81, 66
1, 385905, Poly_aftertouch_c, 0, 54, 0
1, 385908, Note_off_c, 0, 50, 66
1, 385913, Note_off_c, 0, 62, 63
1, 385914, Note_off_c, 0, 56, 63
1, 385918, Note_off_c, 0, 90, 64
1, 385918, Note_off_c, 0, 86, 63
1, 385983, Note_on_c, 0, 61, 100
1, 385991, Note_on_c, 0, 56, 83
1, 385995, Note_on_c, 0, 77, 96
1, 385998, Note_on_c, 0, 80, 89
1, 385999, Note_on_c, 0, 89, 89
1, 386001, Note_on_c, 0, 87, 79
1, 386005, Note_on_c, 0, 85, 77
1, 386011, Note_on_c, 0, 49, 49
1, 386012, Note_off_c, 0, 77, 68
1, 386017, Note_off_c, 0, 80, 70
1, 386020, Note_off_c, 0, 56, 61
1, 386020, Note_off_c, 0, 61, 67
1, 386022, Note_off_c, 0, 87, 70
1, 386026, Note_off_c, 0, 85, 69
1, 386034, Note_off_c, 0, 89, 63
1, 386040, Note_off_c, 0, 49, 52
1, 386067, Note_on_c, 0, 61, 95
1, 386070, Note_on_c, 0, 89, 87
1, 386071, Note_on_c, 0, 56, 83
1, 386073, Note_on_c, 0, 49, 85
1, 386073, Note_on_c, 0, 77, 105
1, 386074, Note_on_c, 0, 80, 103
1, 386081, Note_on_c, 0, 85, 86
1, 386090, Note_off_c, 0, 61, 65
1, 386091, Note_off_c, 0, 56, 71
1, 386101, Note_off_c, 0, 77, 63
1, 386114, Note_off_c, 0, 80, 62
1, 386115, Note_off_c, 0, 49, 64
1, 386119, Note_off_c, 0, 89, 66
1, 386128, Note_off_c, 0, 85, 66
1, 386202, Note_on_c, 0, 50, 104
1, 386207, Note_on_c, 0, 78, 99
1, 386207, Note_on_c, 0, 81, 94
1, 386210, Note_on_c, 0, 44, 91
1, 386210, Note_on_c, 0, 38, 89
1, 386213, Note_on_c, 0, 86, 78
1, 386214, Note_on_c, 0, 90, 82
1, 386218, Control_c, 0, 64, 125
1, 386229, Note_off_c, 0, 44, 68
1, 386233, Control_c, 0, 64, 97
1, 386235, Note_off_c, 0, 78, 60
1, 386237, Note_off_c, 0, 90, 66
1, 386237, Note_off_c, 0, 38, 67
1, 386237, Note_off_c, 0, 50, 66
1, 386248, Control_c, 0, 64, 95
1, 386252, Note_off_c, 0, 81, 60
1, 386254, Note_on_c, 0, 39, 10
1, 386260, Note_off_c, 0, 86, 61
1, 386263, Control_c, 0, 64, 101
1, 386277, Control_c, 0, 64, 127
1, 386282, Note_on_c, 0, 81, 83
1, 386285, Note_on_c, 0, 78, 99
1, 386288, Note_on_c, 0, 86, 76
1, 386290, Note_on_c, 0, 50, 97
1, 386291, Note_on_c, 0, 90, 97
1, 386298, Note_on_c, 0, 44, 75
1, 386300, Note_on_c, 0, 38, 86
1, 386307, Note_off_c, 0, 39, 43
1, 386337, Note_off_c, 0, 78, 66
1, 386341, Note_off_c, 0, 38, 62
1, 386341, Note_off_c, 0, 50, 66
1, 386344, Note_off_c, 0, 81, 61
1, 386349, Note_off_c, 0, 90, 65
1, 386356, Note_off_c, 0, 44, 62
1, 386359, Note_off_c, 0, 86, 63
1, 386424, Note_on_c, 0, 49, 102
1, 386429, Note_on_c, 0, 44, 84
1, 386442, Note_on_c, 0, 77, 94
1, 386443, Note_on_c, 0, 80, 97
1, 386443, Note_on_c, 0, 89, 97
1, 386446, Note_on_c, 0, 37, 68
1, 386450, Note_on_c, 0, 85, 82
1, 386464, Note_off_c, 0, 80, 63
1, 386467, Note_off_c, 0, 77, 62
1, 386470, Note_off_c, 0, 49, 60
1, 386474, Note_off_c, 0, 85, 62
1, 386476, Note_off_c, 0, 37, 65
1, 386482, Note_off_c, 0, 89, 66
1, 386487, Note_on_c, 0, 86, 27
1, 386487, Note_off_c, 0, 44, 62
1, 386519, Poly_aftertouch_c, 0, 41, 127
1, 386524, Note_on_c, 0, 89, 97
1, 386525, Note_on_c, 0, 49, 100
1, 386526, Note_on_c, 0, 77, 106
1, 386526, Note_on_c, 0, 80, 102
1, 386527, Note_on_c, 0, 44, 82
1, 386528, Note_on_c, 0, 85, 94
1, 386536, Note_off_c, 0, 86, 0
1, 386537, Note_on_c, 0, 37, 88
1, 386560, Note_on_c, 0, 86, 22
1, 386562, Note_off_c, 0, 49, 65
1, 386564, Note_off_c, 0, 77, 65
1, 386569, Note_off_c, 0, 44, 65
1, 386581, Note_off_c, 0, 89, 66
1, 386589, Note_off_c, 0, 37, 65
1, 386589, Note_off_c, 0, 80, 59
1, 386597, Poly_aftertouch_c, 0, 41, 0
1, 386598, Note_off_c, 0, 85, 64
1, 386604, Note_off_c, 0, 86, 52
1, 386717, Note_on_c, 0, 36, 97
1, 386720, Note_on_c, 0, 86, 81
1, 386721, Note_on_c, 0, 81, 91
1, 386724, Note_on_c, 0, 78, 97
1, 386727, Note_on_c, 0, 90, 96
1, 386729, Note_on_c, 0, 24, 75
1, 386730, Note_on_c, 0, 30, 69
1, 386734, Note_on_c, 0, 26, 75
1, 386748, Note_on_c, 0, 32, 44
1, 386768, Note_off_c, 0, 78, 64
1, 386774, Note_off_c, 0, 36, 65
1, 386775, Note_off_c, 0, 90, 65
1, 386777, Note_off_c, 0, 24, 62
1, 386780, Note_off_c, 0, 26, 63
1, 386786, Note_off_c, 0, 32, 51
1, 386786, Note_off_c, 0, 81, 62
1, 386787, Note_off_c, 0, 30, 60
1, 386792, Note_off_c, 0, 86, 64
1, 386815, Poly_aftertouch_c, 0, 28, 127
1, 386821, Poly_aftertouch_c, 0, 27, 0
1, 386825, Poly_aftertouch_c, 0, 86, 0
1, 386827, Note_on_c, 0, 81, 96
1, 386828, Note_on_c, 0, 90, 97
1, 386829, Note_on_c, 0, 78, 106
1, 386831, Note_on_c, 0, 86, 78
1, 386837, Note_on_c, 0, 38, 107
1, 386845, Note_on_c, 0, 26, 95
1, 386845, Note_on_c, 0, 32, 96
1, 386856, Poly_aftertouch_c, 0, 28, 0
1, 386873, Note_on_c, 0, 29, 41
1, 386892, Note_off_c, 0, 78, 67
1, 386895, Note_off_c, 0, 81, 65
1, 386896, Note_off_c, 0, 90, 65
1, 386910, Note_off_c, 0, 26, 63
1, 386915, Note_off_c, 0, 38, 62
1, 386916, Note_off_c, 0, 32, 60
1, 386926, Note_off_c, 0, 86, 59
1, 387048, Note_on_c, 0, 37, 93
1, 387050, Note_on_c, 0, 77, 102
1, 387050, Note_on_c, 0, 89, 94
1, 387051, Note_on_c, 0, 80, 95
1, 387056, Note_on_c, 0, 32, 86
1, 387059, Note_on_c, 0, 25, 79
1, 387059, Note_on_c, 0, 85, 79
1, 387065, Note_on_c, 0, 86, 62
1, 387070, Note_off_c, 0, 29, 0
1, 387086, Note_off_c, 0, 77, 64
1, 387090, Note_off_c, 0, 86, 66
1, 387102, Note_off_c, 0, 89, 65
1, 387103, Note_off_c, 0, 37, 64
1, 387106, Note_off_c, 0, 80, 63
1, 387108, Poly_aftertouch_c, 0, 29, 127
1, 387110, Note_off_c, 0, 25, 64
1, 387114, Note_off_c, 0, 85, 63
1, 387119, Note_off_c, 0, 32, 62
1, 387149, Poly_aftertouch_c, 0, 29, 0
1, 387150, Note_on_c, 0, 89, 93
1, 387152, Note_on_c, 0, 80, 90
1, 387154, Note_on_c, 0, 77, 109
1, 387155, Note_on_c, 0, 85, 77
1, 387157, Note_on_c, 0, 37, 93
1, 387161, Note_on_c, 0, 32, 80
1, 387164, Note_on_c, 0, 25, 84
1, 387172, Note_on_c, 0, 86, 62
1, 387176, Note_on_c, 0, 29, 29
1, 387189, Note_off_c, 0, 86, 66
1, 387198, Note_off_c, 0, 77, 61
1, 387209, Note_off_c, 0, 89, 68
1, 387215, Note_off_c, 0, 25, 65
1, 387216, Note_off_c, 0, 29, 53
1, 387218, Note_off_c, 0, 80, 66
1, 387234, Note_off_c, 0, 85, 65
1, 387242, Note_off_c, 0, 37, 62
1, 387258, Note_off_c, 0, 32, 59
1, 387413, Note_on_c, 0, 38, 99
1, 387415, Note_on_c, 0, 78, 105
1, 387417, Note_on_c, 0, 26, 81
1, 387417, Note_on_c, 0, 81, 95
1, 387417, Note_on_c, 0, 90, 91
1, 387418, Note_on_c, 0, 86, 84
1, 387421, Note_on_c, 0, 32, 87
1, 387478, Note_off_c, 0, 38, 64
1, 387483, Note_off_c, 0, 90, 64
1, 387484, Note_off_c, 0, 26, 61
1, 387486, Note_off_c, 0, 78, 63
1, 387507, Note_off_c, 0, 32, 59
1, 387517, Note_off_c, 0, 81, 55
1, 387528, Note_off_c, 0, 86, 57
1, 387553, Control_c, 0, 64, 85
1, 387567, Control_c, 0, 64, 0
1, 387573, Note_on_c, 0, 38, 100
1, 387576, Note_on_c, 0, 32, 83
1, 387579, Note_on_c, 0, 78, 115
1, 387580, Note_on_c, 0, 26, 88
1, 387581, Note_on_c, 0, 90, 102
1, 387583, Note_on_c, 0, 81, 90
1, 387592, Note_on_c, 0, 86, 62
1, 387597, Control_c, 0, 64, 67
1, 387612, Note_off_c, 0, 26, 69
1, 387612, Control_c, 0, 64, 91
1, 387622, Note_off_c, 0, 86, 64
1, 387625, Note_off_c, 0, 90, 67
1, 387627, Control_c, 0, 64, 127
1, 387633, Note_off_c, 0, 32, 63
1, 387636, Note_off_c, 0, 38, 62
1, 387637, Note_off_c, 0, 78, 61
1, 387638, Note_off_c, 0, 81, 63
1, 387786, Note_on_c, 0, 48, 37
1, 387824, Note_off_c, 0, 48, 55
1, 387839, Note_on_c, 0, 56, 94
1, 387845, Note_on_c, 0, 44, 80
1, 387873, Note_on_c, 0, 46, 52
1, 387889, Note_off_c, 0, 44, 62
1, 387889, Note_on_c, 0, 68, 100
1, 387897, Note_off_c, 0, 56, 65
1, 387900, Note_on_c, 0, 80, 82
1, 387902, Note_off_c, 0, 46, 55
1, 387915, Note_on_c, 0, 78, 57
1, 387916, Note_off_c, 0, 78, 127
1, 387918, Note_off_c, 0, 68, 64
1, 387918, Note_off_c, 0, 80, 73
1, 387962, Poly_aftertouch_c, 0, 57, 0
1, 387981, Note_on_c, 0, 67, 105
1, 387983, Note_on_c, 0, 79, 106
1, 387984, Note_on_c, 0, 58, 109
1, 387986, Note_on_c, 0, 46, 89
1, 387995, Poly_aftertouch_c, 0, 73, 0
1, 387997, Control_c, 0, 64, 113
1, 387999, Note_on_c, 0, 78, 67
1, 388000, Note_off_c, 0, 78, 127
1, 388012, Note_off_c, 0, 67, 69
1, 388012, Control_c, 0, 64, 89
1, 388013, Note_off_c, 0, 79, 68
1, 388018, Note_off_c, 0, 58, 69
1, 388027, Control_c, 0, 64, 68
1, 388038, Note_off_c, 0, 46, 63
1, 388042, Control_c, 0, 64, 0
1, 388243, Note_on_c, 0, 68, 108
1, 388246, Note_on_c, 0, 80, 104
1, 388248, Note_on_c, 0, 59, 98
1, 388250, Note_on_c, 0, 47, 90
1, 388267, Note_off_c, 0, 59, 71
1, 388270, Note_off_c, 0, 68, 69
1, 388274, Note_off_c, 0, 80, 67
1, 388279, Note_on_c, 0, 78, 44
1, 388280, Note_off_c, 0, 78, 127
1, 388285, Note_off_c, 0, 47, 68
1, 388293, Note_on_c, 0, 57, 25
1, 388308, Note_off_c, 0, 57, 42
1, 388443, Note_on_c, 0, 85, 42
1, 388455, Note_on_c, 0, 37, 3
1, 388471, Note_off_c, 0, 85, 53
1, 388492, Note_off_c, 0, 37, 26
1, 388523, Control_c, 0, 64, 73
1, 388528, Note_on_c, 0, 37, 99
1, 388530, Note_on_c, 0, 25, 86
1, 388530, Note_on_c, 0, 77, 102
1, 388532, Note_on_c, 0, 32, 81
1, 388532, Note_on_c, 0, 89, 88
1, 388536, Note_on_c, 0, 85, 90
1, 388538, Control_c, 0, 64, 99
1, 388544, Note_on_c, 0, 88, 78
1, 388545, Note_on_c, 0, 80, 61
1, 388550, Note_on_c, 0, 79, 76
1, 388553, Control_c, 0, 64, 127
1, 388556, Note_on_c, 0, 86, 66
1, 388565, Note_off_c, 0, 79, 67
1, 388565, Note_off_c, 0, 25, 67
1, 388566, Note_off_c, 0, 88, 53
1, 388568, Note_off_c, 0, 77, 67
1, 388572, Note_off_c, 0, 89, 67
1, 388573, Note_off_c, 0, 86, 64
1, 388578, Note_off_c, 0, 37, 66
1, 388579, Note_off_c, 0, 32, 62
1, 388581, Note_off_c, 0, 85, 69
1, 388590, Note_off_c, 0, 80, 41
1, 388798, Poly_aftertouch_c, 0, 55, 127
1, 388810, Note_on_c, 0, 61, 102
1, 388813, Note_on_c, 0, 49, 87
1, 388869, Note_off_c, 0, 61, 64
1, 388881, Note_off_c, 0, 49, 62
1, 388887, Poly_aftertouch_c, 0, 55, 0
1, 388893, Note_on_c, 0, 73, 97
1, 388898, Note_on_c, 0, 85, 91
1, 388923, Note_off_c, 0, 85, 64
1, 388926, Note_off_c, 0, 73, 64
1, 388999, Note_on_c, 0, 72, 101
1, 389001, Note_on_c, 0, 63, 105
1, 389003, Note_on_c, 0, 51, 91
1, 389009, Note_on_c, 0, 83, 75
1, 389009, Note_on_c, 0, 84, 97
1, 389027, Note_off_c, 0, 84, 72
1, 389035, Control_c, 0, 64, 117
1, 389036, Note_off_c, 0, 72, 69
1, 389040, Note_off_c, 0, 63, 69
1, 389041, Note_off_c, 0, 83, 60
1, 389045, Note_off_c, 0, 51, 65
1, 389050, Control_c, 0, 64, 96
1, 389065, Control_c, 0, 64, 80
1, 389080, Control_c, 0, 64, 63
1, 389094, Control_c, 0, 64, 0
1, 389269, Note_on_c, 0, 73, 102
1, 389271, Note_on_c, 0, 65, 97
1, 389272, Note_on_c, 0, 53, 75
1, 389273, Note_on_c, 0, 85, 94
1, 389275, Note_on_c, 0, 77, 90
1, 389277, Note_on_c, 0, 80, 85
1, 389278, Note_on_c, 0, 56, 75
1, 389284, Note_on_c, 0, 59, 72
1, 389301, Note_off_c, 0, 65, 69
1, 389302, Note_off_c, 0, 73, 67
1, 389307, Note_off_c, 0, 59, 66
1, 389314, Note_off_c, 0, 53, 68
1, 389316, Note_off_c, 0, 77, 63
1, 389326, Note_off_c, 0, 56, 67
1, 389327, Note_off_c, 0, 85, 69
1, 389331, Note_off_c, 0, 80, 66
1, 389638, Note_on_c, 0, 54, 104
1, 389638, Note_on_c, 0, 78, 105
1, 389638, Note_on_c, 0, 90, 106
1, 389642, Note_on_c, 0, 42, 84
1, 389644, Note_on_c, 0, 49, 93
1, 389644, Note_on_c, 0, 82, 95
1, 389646, Note_on_c, 0, 46, 85
1, 389647, Note_on_c, 0, 85, 84
1, 389652, Control_c, 0, 64, 85
1, 389667, Control_c, 0, 64, 107
1, 389677, Note_off_c, 0, 78, 67
1, 389680, Note_off_c, 0, 54, 65
1, 389682, Control_c, 0, 64, 118
1, 389690, Note_off_c, 0, 42, 62
1, 389692, Note_off_c, 0, 49, 63
1, 389694, Note_off_c, 0, 46, 64
1, 389697, Note_off_c, 0, 82, 65
1, 389697, Control_c, 0, 64, 127
1, 389701, Note_off_c, 0, 85, 64
1, 389709, Note_off_c, 0, 90, 66
1, 390007, Note_on_c, 0, 84, 94
1, 390014, Note_on_c, 0, 72, 88
1, 390056, Note_off_c, 0, 84, 64
1, 390058, Note_off_c, 0, 72, 62
1, 390108, Note_on_c, 0, 85, 49
1, 390130, Note_off_c, 0, 85, 58
1, 390154, Note_on_c, 0, 89, 82
1, 390156, Note_on_c, 0, 77, 81
1, 390175, Note_off_c, 0, 89, 71
1, 390189, Note_on_c, 0, 88, 28
1, 390199, Note_off_c, 0, 77, 64
1, 390211, Note_on_c, 0, 90, 77
1, 390223, Note_off_c, 0, 88, 33
1, 390232, Note_off_c, 0, 90, 53
1, 390279, Note_on_c, 0, 81, 93
1, 390288, Note_on_c, 0, 69, 80
1, 390323, Note_off_c, 0, 69, 62
1, 390326, Note_off_c, 0, 81, 62
1, 390351, Note_on_c, 0, 82, 87
1, 390389, Note_off_c, 0, 82, 61
1, 390404, Note_on_c, 0, 84, 86
1, 390407, Note_on_c, 0, 72, 82
1, 390422, Note_off_c, 0, 84, 73
1, 390446, Note_off_c, 0, 72, 66
1, 390466, Note_on_c, 0, 85, 85
1, 390499, Note_off_c, 0, 85, 63
1, 390512, Note_on_c, 0, 77, 96
1, 390515, Note_on_c, 0, 65, 91
1, 390552, Note_off_c, 0, 77, 64
1, 390557, Note_off_c, 0, 65, 64
1, 390579, Note_on_c, 0, 78, 92
1, 390612, Note_off_c, 0, 78, 60
1, 390619, Note_on_c, 0, 81, 88
1, 390631, Note_on_c, 0, 69, 81
1, 390637, Note_off_c, 0, 81, 70
1, 390654, Note_on_c, 0, 71, 38
1, 390658, Note_off_c, 0, 69, 70
1, 390682, Note_off_c, 0, 71, 56
1, 390682, Note_on_c, 0, 82, 85
1, 390723, Note_off_c, 0, 82, 63
1, 390736, Note_on_c, 0, 72, 92
1, 390744, Note_on_c, 0, 60, 86
1, 390766, Note_on_c, 0, 68, 44
1, 390768, Note_off_c, 0, 60, 65
1, 390777, Note_off_c, 0, 72, 64
1, 390791, Note_off_c, 0, 68, 58
1, 390800, Note_on_c, 0, 73, 89
1, 390825, Note_off_c, 0, 73, 63
1, 390852, Note_on_c, 0, 77, 86
1, 390858, Note_on_c, 0, 65, 84
1, 390898, Note_off_c, 0, 77, 63
1, 390906, Note_off_c, 0, 65, 65
1, 390911, Note_on_c, 0, 78, 87
1, 390947, Note_off_c, 0, 78, 63
1, 390949, Control_c, 0, 64, 97
1, 390962, Note_on_c, 0, 77, 90
1, 390964, Note_on_c, 0, 65, 84
1, 390964, Control_c, 0, 64, 95
1, 390979, Control_c, 0, 64, 97
1, 390993, Control_c, 0, 64, 116
1, 391008, Control_c, 0, 64, 127
1, 391010, Note_off_c, 0, 77, 64
1, 391011, Note_off_c, 0, 65, 67
1, 391036, Note_on_c, 0, 78, 88
1, 391061, Note_off_c, 0, 78, 59
1, 391077, Note_on_c, 0, 69, 87
1, 391077, Note_on_c, 0, 81, 83
1, 391096, Note_off_c, 0, 81, 71
1, 391126, Note_off_c, 0, 69, 66
1, 391138, Note_on_c, 0, 82, 84
1, 391176, Note_off_c, 0, 82, 61
1, 391194, Note_on_c, 0, 72, 89
1, 391209, Note_on_c, 0, 60, 78
1, 391226, Note_on_c, 0, 68, 43
1, 391233, Note_off_c, 0, 60, 68
1, 391236, Note_off_c, 0, 72, 67
1, 391252, Note_off_c, 0, 68, 58
1, 391254, Note_on_c, 0, 73, 80
1, 391267, Note_off_c, 0, 73, 70
1, 391301, Note_on_c, 0, 77, 79
1, 391312, Note_on_c, 0, 67, 82
1, 391333, Note_off_c, 0, 67, 69
1, 391339, Note_off_c, 0, 77, 65
1, 391356, Note_on_c, 0, 78, 87
1, 391395, Note_off_c, 0, 78, 64
1, 391423, Note_on_c, 0, 69, 98
1, 391431, Note_on_c, 0, 57, 90
1, 391464, Note_off_c, 0, 69, 68
1, 391464, Note_off_c, 0, 57, 60
1, 391478, Note_on_c, 0, 70, 87
1, 391508, Note_off_c, 0, 70, 61
1, 391534, Note_on_c, 0, 72, 93
1, 391540, Note_on_c, 0, 60, 85
1, 391567, Note_off_c, 0, 72, 66
1, 391582, Note_on_c, 0, 73, 83
1, 391582, Note_off_c, 0, 60, 65
1, 391618, Note_off_c, 0, 73, 60
1, 391651, Note_on_c, 0, 65, 101
1, 391655, Note_on_c, 0, 53, 89
1, 391692, Note_off_c, 0, 65, 67
1, 391693, Note_on_c, 0, 66, 88
1, 391696, Note_off_c, 0, 53, 68
1, 391732, Note_off_c, 0, 66, 63
1, 391760, Note_on_c, 0, 69, 86
1, 391764, Note_on_c, 0, 57, 88
1, 391781, Note_off_c, 0, 69, 72
1, 391797, Note_on_c, 0, 70, 82
1, 391799, Note_off_c, 0, 57, 68
1, 391840, Note_off_c, 0, 70, 64
1, 391881, Note_on_c, 0, 60, 99
1, 391889, Note_on_c, 0, 48, 86
1, 391923, Note_on_c, 0, 61, 85
1, 391925, Note_off_c, 0, 60, 64
1, 391928, Note_off_c, 0, 48, 64
1, 391929, Note_on_c, 0, 54, 14
1, 391954, Note_off_c, 0, 61, 63
1, 391966, Note_off_c, 0, 54, 46
1, 391997, Poly_aftertouch_c, 0, 49, 0
1, 392006, Note_on_c, 0, 65, 89
1, 392007, Note_on_c, 0, 53, 87
1, 392028, Note_on_c, 0, 64, 60
1, 392043, Note_on_c, 0, 66, 79
1, 392048, Note_off_c, 0, 64, 65
1, 392053, Note_off_c, 0, 65, 66
1, 392059, Note_off_c, 0, 53, 66
1, 392065, Note_off_c, 0, 66, 73
1, 392121, Control_c, 0, 64, 89
1, 392123, Note_on_c, 0, 65, 93
1, 392124, Note_on_c, 0, 53, 90
1, 392136, Control_c, 0, 64, 18
1, 392151, Control_c, 0, 64, 0
1, 392163, Note_on_c, 0, 61, 36
1, 392174, Note_off_c, 0, 53, 68
1, 392177, Note_off_c, 0, 65, 66
1, 392179, Note_on_c, 0, 66, 80
1, 392180, Control_c, 0, 64, 65
1, 392195, Control_c, 0, 64, 92
1, 392204, Note_off_c, 0, 66, 68
1, 392207, Note_off_c, 0, 61, 33
1, 392210, Control_c, 0, 64, 127
1, 392253, Note_on_c, 0, 69, 80
1, 392253, Note_on_c, 0, 57, 75
1, 392273, Note_off_c, 0, 69, 75
1, 392274, Note_on_c, 0, 70, 79
1, 392294, Note_off_c, 0, 57, 65
1, 392311, Note_off_c, 0, 70, 61
1, 392363, Note_on_c, 0, 60, 94
1, 392369, Note_on_c, 0, 48, 87
1, 392390, Note_on_c, 0, 61, 87
1, 392399, Note_off_c, 0, 48, 67
1, 392403, Note_off_c, 0, 60, 64
1, 392422, Note_off_c, 0, 61, 61
1, 392473, Note_on_c, 0, 65, 91
1, 392476, Note_on_c, 0, 53, 88
1, 392500, Note_on_c, 0, 66, 82
1, 392504, Note_off_c, 0, 65, 65
1, 392518, Note_off_c, 0, 53, 68
1, 392541, Note_off_c, 0, 66, 62
1, 392586, Note_on_c, 0, 57, 98
1, 392593, Note_on_c, 0, 45, 90
1, 392628, Note_on_c, 0, 51, 38
1, 392634, Note_on_c, 0, 58, 86
1, 392639, Note_off_c, 0, 57, 66
1, 392644, Note_off_c, 0, 45, 64
1, 392659, Note_off_c, 0, 51, 53
1, 392664, Note_off_c, 0, 58, 61
1, 392705, Poly_aftertouch_c, 0, 49, 0
1, 392708, Note_on_c, 0, 60, 96
1, 392711, Note_on_c, 0, 48, 89
1, 392745, Note_off_c, 0, 60, 66
1, 392748, Note_on_c, 0, 61, 82
1, 392755, Note_off_c, 0, 48, 69
1, 392787, Note_off_c, 0, 61, 60
1, 392828, Note_on_c, 0, 53, 101
1, 392834, Note_on_c, 0, 41, 95
1, 392853, Note_on_c, 0, 49, 62
1, 392866, Note_on_c, 0, 54, 88
1, 392878, Note_off_c, 0, 49, 57
1, 392879, Note_off_c, 0, 41, 67
1, 392879, Note_off_c, 0, 53, 67
1, 392912, Note_off_c, 0, 54, 57
1, 392941, Poly_aftertouch_c, 0, 46, 0
1, 392944, Note_on_c, 0, 57, 95
1, 392947, Note_on_c, 0, 45, 89
1, 392981, Note_off_c, 0, 57, 67
1, 392989, Note_on_c, 0, 58, 77
1, 392992, Note_off_c, 0, 45, 66
1, 393022, Note_off_c, 0, 58, 65
1, 393067, Note_on_c, 0, 48, 100
1, 393073, Note_on_c, 0, 36, 96
1, 393112, Note_off_c, 0, 48, 67
1, 393114, Note_on_c, 0, 37, 32
1, 393114, Note_on_c, 0, 49, 84
1, 393117, Note_off_c, 0, 36, 65
1, 393145, Note_off_c, 0, 49, 60
1, 393151, Note_off_c, 0, 37, 46
1, 393194, Note_on_c, 0, 53, 95
1, 393197, Note_on_c, 0, 41, 90
1, 393233, Note_off_c, 0, 53, 67
1, 393242, Note_on_c, 0, 54, 77
1, 393243, Note_off_c, 0, 41, 69
1, 393274, Note_off_c, 0, 54, 66
1, 393320, Note_on_c, 0, 45, 102
1, 393329, Note_on_c, 0, 33, 92
1, 393362, Note_on_c, 0, 37, 45
1, 393363, Note_off_c, 0, 37, 127
1, 393363, Note_on_c, 0, 39, 46
1, 393371, Note_off_c, 0, 45, 66
1, 393376, Note_on_c, 0, 34, 29
1, 393376, Note_off_c, 0, 33, 63
1, 393386, Note_on_c, 0, 46, 87
1, 393388, Note_off_c, 0, 39, 57
1, 393412, Note_off_c, 0, 34, 41
1, 393427, Note_off_c, 0, 46, 60
1, 393469, Note_on_c, 0, 48, 94
1, 393471, Note_on_c, 0, 36, 88
1, 393502, Note_off_c, 0, 48, 64
1, 393515, Note_off_c, 0, 36, 64
1, 393516, Note_on_c, 0, 49, 91
1, 393547, Poly_aftertouch_c, 0, 37, 0
1, 393561, Note_off_c, 0, 49, 63
1, 393584, Poly_aftertouch_c, 0, 37, 0
1, 393663, Control_c, 0, 64, 89
1, 393666, Note_on_c, 0, 42, 105
1, 393671, Note_on_c, 0, 30, 94
1, 393678, Control_c, 0, 64, 25
1, 393692, Control_c, 0, 64, 0
1, 393706, Note_on_c, 0, 32, 38
1, 393751, Note_off_c, 0, 32, 51
1, 393767, Control_c, 0, 64, 69
1, 393782, Control_c, 0, 64, 90
1, 393785, Note_off_c, 0, 30, 62
1, 393797, Control_c, 0, 64, 111
1, 393811, Note_off_c, 0, 42, 62
1, 393811, Control_c, 0, 64, 127
1, 393938, Note_on_c, 0, 58, 87
1, 393940, Note_on_c, 0, 61, 79
1, 393945, Note_on_c, 0, 54, 82
1, 393946, Note_on_c, 0, 70, 78
1, 393949, Note_on_c, 0, 66, 72
1, 393954, Note_on_c, 0, 49, 80
1, 393970, Note_on_c, 0, 42, 63
1, 393979, Note_on_c, 0, 68, 41
1, 393985, Note_off_c, 0, 58, 63
1, 393999, Note_off_c, 0, 54, 62
1, 394000, Note_off_c, 0, 61, 62
1, 394001, Note_off_c, 0, 42, 64
1, 394007, Note_off_c, 0, 68, 50
1, 394010, Note_off_c, 0, 49, 64
1, 394016, Note_off_c, 0, 66, 62
1, 394020, Note_off_c, 0, 70, 61
1, 394117, Note_on_c, 0, 61, 96
1, 394118, Note_on_c, 0, 49, 89
1, 394118, Note_on_c, 0, 73, 96
1, 394137, Note_off_c, 0, 61, 67
1, 394145, Note_off_c, 0, 49, 60
1, 394160, Note_off_c, 0, 73, 61
1, 394217, Poly_aftertouch_c, 0, 48, 127
1, 394227, Poly_aftertouch_c, 0, 70, 0
1, 394241, Poly_aftertouch_c, 0, 48, 0
1, 394250, Note_on_c, 0, 66, 91
1, 394250, Note_on_c, 0, 78, 102
1, 394266, Note_on_c, 0, 58, 74
1, 394266, Note_on_c, 0, 61, 68
1, 394266, Note_off_c, 0, 78, 69
1, 394267, Note_off_c, 0, 66, 75
1, 394276, Note_on_c, 0, 62, 55
1, 394278, Note_on_c, 0, 54, 45
1, 394281, Note_off_c, 0, 61, 66
1, 394291, Note_on_c, 0, 68, 17
1, 394292, Note_off_c, 0, 58, 66
1, 394293, Note_on_c, 0, 56, 17
1, 394297, Note_off_c, 0, 62, 60
1, 394298, Note_off_c, 0, 54, 60
1, 394330, Note_off_c, 0, 68, 55
1, 394335, Note_off_c, 0, 56, 38
1, 394472, Note_on_c, 0, 70, 106
1, 394473, Note_on_c, 0, 82, 100
1, 394479, Note_on_c, 0, 78, 94
1, 394480, Note_on_c, 0, 66, 96
1, 394498, Note_off_c, 0, 78, 70
1, 394499, Note_on_c, 0, 74, 54
1, 394499, Note_off_c, 0, 66, 74
1, 394506, Note_off_c, 0, 70, 67
1, 394515, Note_off_c, 0, 82, 67
1, 394519, Note_off_c, 0, 74, 64
1, 394520, Note_on_c, 0, 83, 26
1, 394522, Note_on_c, 0, 68, 38
1, 394552, Note_off_c, 0, 68, 59
1, 394557, Note_off_c, 0, 83, 39
1, 395024, Note_on_c, 0, 90, 110
1, 395024, Note_on_c, 0, 97, 81
1, 395024, Note_on_c, 0, 102, 103
1, 395028, Note_on_c, 0, 78, 79
1, 395028, Note_on_c, 0, 82, 89
1, 395029, Note_on_c, 0, 85, 102
1, 395031, Note_on_c, 0, 94, 96
1, 395064, Note_off_c, 0, 85, 71
1, 395067, Note_on_c, 0, 100, 39
1, 395070, Note_off_c, 0, 102, 68
1, 395070, Note_off_c, 0, 90, 67
1, 395074, Note_off_c, 0, 82, 66
1, 395075, Note_off_c, 0, 78, 66
1, 395085, Note_off_c, 0, 94, 66
1, 395086, Note_off_c, 0, 97, 66
1, 395098, Note_off_c, 0, 100, 34
1, 395338, Control_c, 0, 64, 107
1, 395353, Control_c, 0, 64, 85
1, 395368, Control_c, 0, 64, 68
1, 395383, Control_c, 0, 64, 0
1, 395397, Control_c, 0, 64, 23
1, 395412, Control_c, 0, 64, 65
1, 395427, Control_c, 0, 64, 74
1, 395442, Control_c, 0, 64, 83
1, 395457, Control_c, 0, 64, 88
1, 395472, Control_c, 0, 64, 90
1, 395487, Control_c, 0, 64, 94
1, 395501, Control_c, 0, 64, 98
1, 395516, Control_c, 0, 64, 103
1, 395531, Control_c, 0, 64, 108
1, 395546, Control_c, 0, 64, 115
1, 395561, Control_c, 0, 64, 120
1, 395575, Control_c, 0, 64, 124
1, 395590, Control_c, 0, 64, 127
1, 395624, Note_on_c, 0, 54, 98
1, 395627, Note_on_c, 0, 66, 90
1, 395628, Note_on_c, 0, 58, 84
1, 395629, Note_on_c, 0, 42, 94
1, 395632, Note_on_c, 0, 37, 90
1, 395633, Note_on_c, 0, 61, 78
1, 395634, Note_on_c, 0, 30, 78
1, 395692, Note_off_c, 0, 42, 61
1, 395695, Note_off_c, 0, 54, 52
1, 395703, Note_off_c, 0, 37, 62
1, 395707, Note_off_c, 0, 58, 63
1, 395713, Note_off_c, 0, 30, 57
1, 395727, Note_off_c, 0, 61, 59
1, 395737, Note_off_c, 0, 66, 60
1, 395846, Note_on_c, 0, 30, 79
1, 395848, Note_on_c, 0, 42, 104
1, 395850, Note_on_c, 0, 37, 85
1, 395850, Note_on_c, 0, 54, 107
1, 395852, Note_on_c, 0, 66, 87
1, 395854, Note_on_c, 0, 58, 90
1, 395856, Note_on_c, 0, 61, 83
1, 395894, Control_c, 0, 64, 105
1, 395908, Control_c, 0, 64, 88
1, 395923, Control_c, 0, 64, 66
1, 395939, Control_c, 0, 64, 0
1, 396191, Control_c, 0, 64, 39
1, 396205, Control_c, 0, 64, 68
1, 396220, Control_c, 0, 64, 75
1, 396235, Control_c, 0, 64, 81
1, 396250, Control_c, 0, 64, 86
1, 396265, Control_c, 0, 64, 92
1, 396280, Control_c, 0, 64, 99
1, 396295, Control_c, 0, 64, 107
1, 396310, Control_c, 0, 64, 114
1, 396324, Control_c, 0, 64, 119
1, 396339, Control_c, 0, 64, 125
1, 396361, Control_c, 0, 64, 127
1, 396903, Note_off_c, 0, 54, 60
1, 396941, Note_off_c, 0, 58, 62
1, 396948, Note_off_c, 0, 66, 63
1, 396952, Note_off_c, 0, 42, 62
1, 396961, Note_off_c, 0, 61, 63
1, 396980, Note_off_c, 0, 37, 63
1, 396983, Note_off_c, 0, 30, 62
1, 397169, Control_c, 0, 64, 117
1, 397184, Control_c, 0, 64, 108
1, 397199, Control_c, 0, 64, 100
1, 397214, Control_c, 0, 64, 91
1, 397228, Control_c, 0, 64, 81
1, 397243, Control_c, 0, 64, 69
1, 397258, Control_c, 0, 64, 0
1, 397258, End_track
0, 0, End_of_file
