0, 0, Header, 0, 1, 384
1, 0, Start_track
1, 0, Title_t, "Sonata Op.31/3--VladimirLevitsky"
1, 0, Text_t, "2008 e-Piano Junior Competition recital round"
1, 0, Text_t, "recorded July 2008"
1, 0, Text_t, "http://www.piano-e-competition.com/"
1, 0, Text_t, "File processed for distribution by software from Zenph Studios, Inc., http://www.zenph.com"
1, 0, Instrument_name_t, "Yamaha Disklavier Pro Mark IV concert grand piano, model DCFIIISM4PRO"
1, 0, Sequencer_specific, 39, 67, 113, 0, 1, 0, 1, 0, 83, 111, 110, 97, 116, 97, 32, 79, 112, 46, 32, 51, 49, 47, 51, 32, 86, 108, 97, 100, 105, 109, 105, 114, 76, 101, 118, 105, 116, 115, 107, 121
1, 0, Sequencer_specific, 6, 67, 113, 0, 0, 0, 69
1, 0, System_exclusive, 21, 67, 113, 126, 21, 0, 2, 2, 0, 3, 14, 1, 4, 1, 13, 13, 10, 11, 9, 2, 7, 247
1, 0, Sequencer_specific, 5, 67, 123, 12, 2, 1
1, 0, Tempo, 512820
1, 0, Time_signature, 4, 2, 24, 8
1, 0, System_exclusive, 5, 126, 127, 9, 1, 247
1, 1, System_exclusive, 8, 67, 16, 76, 0, 0, 126, 0, 247
1, 2, System_exclusive, 8, 67, 16, 76, 8, 9, 7, 1, 247
1, 3, Control_c, 0, 0, 0
1, 3, Control_c, 1, 0, 0
1, 3, Control_c, 2, 0, 0
1, 3, Control_c, 3, 0, 0
1, 3, Control_c, 4, 0, 0
1, 3, Control_c, 5, 0, 0
1, 3, Control_c, 6, 0, 0
1, 3, Control_c, 7, 0, 0
1, 3, Control_c, 8, 0, 0
1, 3, Control_c, 9, 0, 127
1, 3, Control_c, 10, 0, 0
1, 3, Control_c, 11, 0, 0
1, 3, Control_c, 12, 0, 0
1, 3, Control_c, 13, 0, 0
1, 3, Control_c, 14, 0, 0
1, 3, Control_c, 15, 0, 0
1, 4, Control_c, 0, 32, 0
1, 4, Control_c, 1, 32, 0
1, 4, Control_c, 2, 32, 0
1, 4, Control_c, 3, 32, 0
1, 4, Control_c, 4, 32, 0
1, 4, Control_c, 5, 32, 0
1, 4, Control_c, 6, 32, 0
1, 4, Control_c, 7, 32, 0
1, 4, Control_c, 8, 32, 0
1, 4, Control_c, 9, 32, 0
1, 4, Control_c, 10, 32, 0
1, 4, Control_c, 11, 32, 0
1, 4, Control_c, 12, 32, 0
1, 4, Control_c, 13, 32, 0
1, 4, Control_c, 14, 32, 0
1, 4, Control_c, 15, 32, 0
1, 5, Program_c, 0, 0
1, 5, Program_c, 1, 0
1, 5, Program_c, 2, 0
1, 5, Program_c, 3, 0
1, 5, Program_c, 4, 0
1, 5, Program_c, 5, 0
1, 5, Program_c, 6, 0
1, 5, Program_c, 7, 0
1, 5, Program_c, 8, 0
1, 5, Program_c, 9, 0
1, 5, Program_c, 10, 0
1, 5, Program_c, 11, 0
1, 5, Program_c, 12, 0
1, 5, Program_c, 13, 0
1, 5, Program_c, 14, 0
1, 5, Program_c, 15, 0
1, 6, Control_c, 0, 7, 100
1, 6, Control_c, 1, 7, 100
1, 6, Control_c, 2, 7, 100
1, 6, Control_c, 3, 7, 100
1, 6, Control_c, 4, 7, 100
1, 6, Control_c, 5, 7, 100
1, 6, Control_c, 6, 7, 100
1, 6, Control_c, 7, 7, 100
1, 6, Control_c, 8, 7, 100
1, 6, Control_c, 9, 7, 100
1, 6, Control_c, 10, 7, 100
1, 6, Control_c, 11, 7, 100
1, 6, Control_c, 12, 7, 100
1, 6, Control_c, 13, 7, 100
1, 6, Control_c, 14, 7, 100
1, 6, Control_c, 15, 7, 100
1, 1123, Control_c, 0, 64, 83
1, 1130, Note_on_c, 0, 72, 57
1, 1138, Control_c, 0, 64, 81
1, 1141, Note_on_c, 0, 63, 46
1, 1153, Control_c, 0, 64, 78
1, 1154, Note_on_c, 0, 60, 33
1, 1166, Note_on_c, 0, 53, 40
1, 1167, Note_on_c, 0, 56, 34
1, 1168, Note_on_c, 0, 44, 38
1, 1168, Control_c, 0, 64, 72
1, 1174, Note_on_c, 0, 51, 39
1, 1182, Control_c, 0, 64, 65
1, 1197, Control_c, 0, 64, 52
1, 1212, Control_c, 0, 64, 58
1, 1227, Control_c, 0, 64, 66
1, 1242, Control_c, 0, 64, 71
1, 1249, Note_off_c, 0, 72, 57
1, 1256, Control_c, 0, 64, 77
1, 1264, Note_off_c, 0, 63, 51
1, 1271, Control_c, 0, 64, 81
1, 1286, Control_c, 0, 64, 83
1, 1301, Control_c, 0, 64, 85
1, 1316, Control_c, 0, 64, 87
1, 1331, Control_c, 0, 64, 88
1, 1346, Control_c, 0, 64, 90
1, 1361, Control_c, 0, 64, 91
1, 1375, Control_c, 0, 64, 91
1, 1500, Note_on_c, 0, 65, 56
1, 1540, Note_off_c, 0, 65, 62
1, 1583, Control_c, 0, 64, 91
1, 1598, Control_c, 0, 64, 89
1, 1613, Note_on_c, 0, 65, 57
1, 1613, Control_c, 0, 64, 86
1, 1628, Control_c, 0, 64, 82
1, 1641, Note_off_c, 0, 60, 0
1, 1643, Control_c, 0, 64, 76
1, 1657, Control_c, 0, 64, 68
1, 1672, Control_c, 0, 64, 44
1, 1678, Poly_aftertouch_c, 0, 60, 127
1, 1687, Control_c, 0, 64, 0
1, 2041, Poly_aftertouch_c, 0, 60, 0
1, 2075, Note_off_c, 0, 51, 39
1, 2075, Note_off_c, 0, 53, 55
1, 2075, Note_off_c, 0, 65, 63
1, 2081, Note_off_c, 0, 56, 52
1, 2082, Note_off_c, 0, 44, 40
1, 2607, Control_c, 0, 64, 17
1, 2622, Control_c, 0, 64, 44
1, 2636, Control_c, 0, 64, 53
1, 2649, Note_on_c, 0, 72, 47
1, 2651, Control_c, 0, 64, 59
1, 2662, Note_on_c, 0, 63, 36
1, 2666, Control_c, 0, 64, 63
1, 2673, Note_on_c, 0, 56, 22
1, 2681, Control_c, 0, 64, 66
1, 2683, Note_on_c, 0, 53, 28
1, 2689, Note_on_c, 0, 60, 25
1, 2692, Note_on_c, 0, 51, 25
1, 2694, Note_on_c, 0, 44, 17
1, 2696, Control_c, 0, 64, 69
1, 2704, Note_off_c, 0, 72, 0
1, 2704, Note_on_c, 0, 72, 12
1, 2710, Control_c, 0, 64, 73
1, 2725, Control_c, 0, 64, 77
1, 2740, Control_c, 0, 64, 80
1, 2755, Control_c, 0, 64, 81
1, 2762, Note_off_c, 0, 60, 0
1, 2770, Control_c, 0, 64, 82
1, 2778, Note_off_c, 0, 72, 41
1, 2785, Control_c, 0, 64, 84
1, 2791, Note_off_c, 0, 63, 36
1, 2800, Poly_aftertouch_c, 0, 60, 127
1, 2800, Control_c, 0, 64, 85
1, 2814, Control_c, 0, 64, 87
1, 2829, Control_c, 0, 64, 89
1, 2844, Control_c, 0, 64, 90
1, 2859, Control_c, 0, 64, 91
1, 2888, Control_c, 0, 64, 91
1, 2918, Control_c, 0, 64, 92
1, 3011, Note_on_c, 0, 65, 52
1, 3053, Note_off_c, 0, 65, 59
1, 3121, Note_on_c, 0, 65, 46
1, 3169, Control_c, 0, 64, 91
1, 3184, Control_c, 0, 64, 90
1, 3199, Control_c, 0, 64, 89
1, 3214, Control_c, 0, 64, 85
1, 3229, Control_c, 0, 64, 81
1, 3244, Control_c, 0, 64, 76
1, 3259, Control_c, 0, 64, 68
1, 3273, Control_c, 0, 64, 51
1, 3288, Control_c, 0, 64, 0
1, 3463, Poly_aftertouch_c, 0, 60, 0
1, 3525, Note_off_c, 0, 56, 36
1, 3559, Note_off_c, 0, 53, 42
1, 3572, Note_off_c, 0, 65, 51
1, 3588, Note_off_c, 0, 51, 41
1, 3628, Note_off_c, 0, 44, 41
1, 4088, Control_c, 0, 64, 17
1, 4104, Control_c, 0, 64, 40
1, 4119, Control_c, 0, 64, 52
1, 4133, Control_c, 0, 64, 59
1, 4148, Control_c, 0, 64, 62
1, 4163, Control_c, 0, 64, 64
1, 4178, Control_c, 0, 64, 66
1, 4193, Control_c, 0, 64, 68
1, 4198, Note_on_c, 0, 65, 39
1, 4207, Control_c, 0, 64, 70
1, 4222, Control_c, 0, 64, 73
1, 4223, Note_on_c, 0, 63, 23
1, 4231, Note_on_c, 0, 39, 21
1, 4234, Note_on_c, 0, 32, 24
1, 4235, Note_on_c, 0, 60, 11
1, 4237, Control_c, 0, 64, 76
1, 4252, Control_c, 0, 64, 78
1, 4267, Control_c, 0, 64, 81
1, 4281, Control_c, 0, 64, 82
1, 4296, Control_c, 0, 64, 83
1, 4311, Control_c, 0, 64, 85
1, 4326, Note_off_c, 0, 60, 0
1, 4326, Control_c, 0, 64, 87
1, 4341, Control_c, 0, 64, 89
1, 4356, Control_c, 0, 64, 91
1, 4363, Poly_aftertouch_c, 0, 60, 127
1, 4370, Control_c, 0, 64, 93
1, 4385, Control_c, 0, 64, 95
1, 4391, Note_off_c, 0, 63, 32
1, 4400, Control_c, 0, 64, 97
1, 4415, Control_c, 0, 64, 99
1, 4421, Poly_aftertouch_c, 0, 60, 0
1, 4430, Control_c, 0, 64, 100
1, 4432, Note_off_c, 0, 32, 40
1, 4433, Note_off_c, 0, 39, 35
1, 4445, Control_c, 0, 64, 102
1, 4448, Note_off_c, 0, 65, 39
1, 4460, Control_c, 0, 64, 103
1, 4474, Control_c, 0, 64, 105
1, 4489, Control_c, 0, 64, 106
1, 4504, Control_c, 0, 64, 107
1, 4518, Control_c, 0, 64, 109
1, 4533, Control_c, 0, 64, 109
1, 4548, Control_c, 0, 64, 110
1, 4563, Control_c, 0, 64, 110
1, 4578, Control_c, 0, 64, 111
1, 4592, Control_c, 0, 64, 112
1, 4622, Control_c, 0, 64, 112
1, 4649, Note_on_c, 0, 65, 56
1, 4651, Control_c, 0, 64, 113
1, 4659, Note_on_c, 0, 63, 49
1, 4669, Note_on_c, 0, 39, 34
1, 4677, Note_on_c, 0, 60, 27
1, 4680, Note_on_c, 0, 32, 35
1, 4681, Control_c, 0, 64, 113
1, 4725, Control_c, 0, 64, 114
1, 4755, Control_c, 0, 64, 114
1, 4784, Note_off_c, 0, 63, 37
1, 4800, Control_c, 0, 64, 115
1, 4858, Note_off_c, 0, 65, 37
1, 4862, Note_off_c, 0, 39, 38
1, 4862, Note_off_c, 0, 32, 41
1, 4866, Control_c, 0, 64, 115
1, 4886, Note_off_c, 0, 60, 17
1, 4912, Control_c, 0, 64, 116
1, 4942, Control_c, 0, 64, 116
1, 5030, Control_c, 0, 64, 117
1, 5081, Note_on_c, 0, 65, 62
1, 5092, Note_on_c, 0, 63, 54
1, 5094, Note_on_c, 0, 60, 45
1, 5106, Note_on_c, 0, 32, 38
1, 5107, Note_on_c, 0, 39, 35
1, 5135, Control_c, 0, 64, 117
1, 5176, Note_off_c, 0, 63, 54
1, 5223, Control_c, 0, 64, 118
1, 5256, Note_off_c, 0, 60, 31
1, 5264, Note_off_c, 0, 65, 60
1, 5268, Control_c, 0, 64, 118
1, 5283, Control_c, 0, 64, 119
1, 5290, Note_off_c, 0, 32, 40
1, 5298, Control_c, 0, 64, 119
1, 5324, Note_off_c, 0, 39, 27
1, 5342, Control_c, 0, 64, 120
1, 5402, Control_c, 0, 64, 120
1, 5416, Control_c, 0, 64, 121
1, 5461, Control_c, 0, 64, 121
1, 5664, Note_on_c, 0, 66, 62
1, 5681, Note_on_c, 0, 39, 25
1, 5682, Note_on_c, 0, 63, 49
1, 5690, Control_c, 0, 64, 120
1, 5691, Note_on_c, 0, 60, 40
1, 5706, Note_on_c, 0, 33, 41
1, 5706, Control_c, 0, 64, 117
1, 5721, Control_c, 0, 64, 114
1, 5736, Control_c, 0, 64, 112
1, 5751, Control_c, 0, 64, 108
1, 5766, Control_c, 0, 64, 103
1, 5780, Control_c, 0, 64, 97
1, 5795, Control_c, 0, 64, 90
1, 5808, Control_c, 0, 64, 81
1, 5823, Control_c, 0, 64, 71
1, 5838, Control_c, 0, 64, 52
1, 5852, Control_c, 0, 64, 0
1, 6060, Control_c, 0, 64, 10
1, 6075, Control_c, 0, 64, 51
1, 6090, Control_c, 0, 64, 61
1, 6104, Control_c, 0, 64, 64
1, 6119, Control_c, 0, 64, 67
1, 6134, Control_c, 0, 64, 72
1, 6149, Control_c, 0, 64, 78
1, 6163, Control_c, 0, 64, 83
1, 6178, Control_c, 0, 64, 86
1, 6193, Control_c, 0, 64, 87
1, 6208, Control_c, 0, 64, 90
1, 6223, Control_c, 0, 64, 94
1, 6237, Control_c, 0, 64, 99
1, 6252, Control_c, 0, 64, 102
1, 6267, Control_c, 0, 64, 107
1, 6282, Control_c, 0, 64, 111
1, 6296, Control_c, 0, 64, 115
1, 6319, Control_c, 0, 64, 121
1, 6334, Control_c, 0, 64, 127
1, 6478, Note_off_c, 0, 33, 42
1, 6520, Note_off_c, 0, 39, 49
1, 6532, Note_off_c, 0, 63, 35
1, 6535, Note_off_c, 0, 66, 38
1, 6559, Note_off_c, 0, 60, 26
1, 7127, Note_on_c, 0, 66, 60
1, 7130, Note_on_c, 0, 63, 54
1, 7147, Note_on_c, 0, 60, 39
1, 7151, Note_on_c, 0, 54, 40
1, 7153, Note_on_c, 0, 45, 44
1, 7155, Note_on_c, 0, 51, 38
1, 7172, Control_c, 0, 64, 118
1, 7187, Control_c, 0, 64, 104
1, 7201, Control_c, 0, 64, 93
1, 7216, Control_c, 0, 64, 83
1, 7231, Control_c, 0, 64, 73
1, 7245, Control_c, 0, 64, 61
1, 7260, Control_c, 0, 64, 39
1, 7275, Control_c, 0, 64, 55
1, 7291, Control_c, 0, 64, 66
1, 7306, Control_c, 0, 64, 73
1, 7321, Control_c, 0, 64, 81
1, 7336, Control_c, 0, 64, 89
1, 7338, Note_off_c, 0, 63, 54
1, 7350, Control_c, 0, 64, 93
1, 7365, Control_c, 0, 64, 99
1, 7380, Control_c, 0, 64, 106
1, 7390, Note_off_c, 0, 66, 54
1, 7395, Control_c, 0, 64, 114
1, 7410, Control_c, 0, 64, 122
1, 7424, Control_c, 0, 64, 127
1, 7425, Note_off_c, 0, 51, 40
1, 7440, Note_off_c, 0, 45, 42
1, 7441, Note_off_c, 0, 60, 32
1, 7445, Note_off_c, 0, 54, 39
1, 7627, Note_on_c, 0, 66, 78
1, 7638, Note_on_c, 0, 63, 67
1, 7641, Note_on_c, 0, 60, 62
1, 7652, Note_on_c, 0, 45, 51
1, 7658, Note_on_c, 0, 54, 52
1, 7661, Control_c, 0, 64, 121
1, 7663, Note_on_c, 0, 51, 42
1, 7676, Control_c, 0, 64, 103
1, 7691, Control_c, 0, 64, 90
1, 7706, Control_c, 0, 64, 75
1, 7721, Control_c, 0, 64, 65
1, 7736, Control_c, 0, 64, 59
1, 7750, Control_c, 0, 64, 65
1, 7765, Control_c, 0, 64, 72
1, 7780, Control_c, 0, 64, 82
1, 7795, Control_c, 0, 64, 94
1, 7810, Control_c, 0, 64, 103
1, 7813, Note_off_c, 0, 63, 51
1, 7831, Control_c, 0, 64, 110
1, 7846, Control_c, 0, 64, 121
1, 7853, Note_off_c, 0, 66, 59
1, 7861, Control_c, 0, 64, 127
1, 7870, Note_off_c, 0, 60, 35
1, 7881, Note_off_c, 0, 51, 52
1, 7884, Note_off_c, 0, 45, 55
1, 7912, Note_off_c, 0, 54, 36
1, 8137, Note_on_c, 0, 66, 84
1, 8150, Note_on_c, 0, 60, 66
1, 8150, Note_on_c, 0, 63, 69
1, 8159, Control_c, 0, 64, 117
1, 8162, Note_on_c, 0, 45, 50
1, 8162, Note_on_c, 0, 54, 52
1, 8169, Note_on_c, 0, 51, 49
1, 8174, Control_c, 0, 64, 100
1, 8189, Control_c, 0, 64, 81
1, 8204, Control_c, 0, 64, 65
1, 8219, Control_c, 0, 64, 0
1, 8263, Control_c, 0, 64, 64
1, 8278, Control_c, 0, 64, 75
1, 8292, Control_c, 0, 64, 87
1, 8307, Control_c, 0, 64, 94
1, 8322, Control_c, 0, 64, 97
1, 8337, Control_c, 0, 64, 102
1, 8352, Control_c, 0, 64, 109
1, 8366, Control_c, 0, 64, 120
1, 8381, Control_c, 0, 64, 127
1, 8393, Note_off_c, 0, 63, 54
1, 8399, Note_off_c, 0, 60, 56
1, 8448, Note_off_c, 0, 66, 60
1, 8449, Note_off_c, 0, 51, 33
1, 8502, Note_off_c, 0, 54, 34
1, 8502, Note_off_c, 0, 45, 43
1, 8925, Note_on_c, 0, 67, 77
1, 8941, Note_on_c, 0, 63, 64
1, 8945, Note_on_c, 0, 58, 56
1, 8953, Note_on_c, 0, 51, 37
1, 8958, Note_on_c, 0, 55, 44
1, 8966, Note_on_c, 0, 46, 42
1, 8997, Control_c, 0, 64, 117
1, 9012, Control_c, 0, 64, 102
1, 9027, Control_c, 0, 64, 90
1, 9042, Control_c, 0, 64, 77
1, 9056, Control_c, 0, 64, 58
1, 9071, Control_c, 0, 64, 0
1, 9596, Control_c, 0, 64, 45
1, 9611, Control_c, 0, 64, 56
1, 9626, Control_c, 0, 64, 58
1, 9640, Control_c, 0, 64, 60
1, 9655, Control_c, 0, 64, 63
1, 9670, Control_c, 0, 64, 66
1, 9685, Control_c, 0, 64, 69
1, 9700, Control_c, 0, 64, 73
1, 9715, Control_c, 0, 64, 77
1, 9730, Control_c, 0, 64, 80
1, 9745, Control_c, 0, 64, 81
1, 9760, Control_c, 0, 64, 83
1, 9775, Control_c, 0, 64, 85
1, 9790, Control_c, 0, 64, 88
1, 9805, Control_c, 0, 64, 90
1, 9819, Control_c, 0, 64, 93
1, 9834, Control_c, 0, 64, 95
1, 9849, Control_c, 0, 64, 97
1, 9863, Control_c, 0, 64, 99
1, 9877, Note_off_c, 0, 67, 36
1, 9878, Control_c, 0, 64, 101
1, 9893, Control_c, 0, 64, 103
1, 9908, Control_c, 0, 64, 106
1, 9915, Note_off_c, 0, 63, 41
1, 9919, Note_off_c, 0, 58, 31
1, 9923, Control_c, 0, 64, 108
1, 9937, Control_c, 0, 64, 110
1, 9952, Control_c, 0, 64, 112
1, 9954, Note_off_c, 0, 55, 35
1, 9967, Control_c, 0, 64, 113
1, 9969, Note_off_c, 0, 51, 32
1, 9982, Control_c, 0, 64, 115
1, 9993, Note_off_c, 0, 46, 32
1, 9997, Control_c, 0, 64, 116
1, 10011, Control_c, 0, 64, 118
1, 10026, Control_c, 0, 64, 119
1, 10041, Control_c, 0, 64, 122
1, 10063, Control_c, 0, 64, 125
1, 10078, Control_c, 0, 64, 127
1, 10538, Control_c, 0, 64, 120
1, 10552, Note_on_c, 0, 56, 55
1, 10552, Note_on_c, 0, 67, 57
1, 10553, Control_c, 0, 64, 110
1, 10562, Note_on_c, 0, 34, 53
1, 10568, Note_on_c, 0, 62, 46
1, 10568, Control_c, 0, 64, 100
1, 10573, Note_on_c, 0, 46, 34
1, 10583, Control_c, 0, 64, 88
1, 10592, Note_off_c, 0, 34, 54
1, 10598, Control_c, 0, 64, 76
1, 10602, Note_off_c, 0, 56, 55
1, 10609, Note_off_c, 0, 46, 45
1, 10612, Control_c, 0, 64, 61
1, 10622, Note_off_c, 0, 62, 51
1, 10627, Control_c, 0, 64, 0
1, 10704, Note_on_c, 0, 65, 52
1, 10704, Note_off_c, 0, 67, 26
1, 10744, Note_off_c, 0, 65, 64
1, 10844, Note_on_c, 0, 34, 53
1, 10850, Note_on_c, 0, 65, 59
1, 10852, Note_on_c, 0, 46, 39
1, 10861, Note_on_c, 0, 62, 40
1, 10872, Note_off_c, 0, 34, 57
1, 10875, Note_on_c, 0, 56, 14
1, 10885, Note_off_c, 0, 46, 46
1, 10887, Note_off_c, 0, 65, 64
1, 10890, Note_off_c, 0, 56, 35
1, 10890, Note_off_c, 0, 62, 54
1, 10908, Note_on_c, 0, 67, 60
1, 10982, Note_off_c, 0, 67, 50
1, 10989, Note_on_c, 0, 65, 62
1, 11030, Note_off_c, 0, 65, 61
1, 11038, Note_on_c, 0, 64, 64
1, 11092, Note_on_c, 0, 62, 55
1, 11092, Note_on_c, 0, 34, 56
1, 11099, Note_on_c, 0, 46, 50
1, 11118, Note_off_c, 0, 64, 59
1, 11124, Note_on_c, 0, 65, 61
1, 11125, Note_off_c, 0, 46, 58
1, 11125, Note_off_c, 0, 34, 64
1, 11132, Note_on_c, 0, 56, 9
1, 11145, Note_off_c, 0, 62, 49
1, 11170, Note_off_c, 0, 56, 46
1, 11189, Note_off_c, 0, 65, 61
1, 11253, Note_on_c, 0, 67, 55
1, 11291, Note_off_c, 0, 67, 62
1, 11387, Note_on_c, 0, 51, 59
1, 11388, Note_on_c, 0, 39, 58
1, 11390, Note_on_c, 0, 63, 62
1, 11394, Note_on_c, 0, 55, 51
1, 11417, Note_off_c, 0, 51, 64
1, 11421, Note_off_c, 0, 55, 57
1, 11423, Note_off_c, 0, 39, 62
1, 11447, Note_off_c, 0, 63, 60
1, 11456, Note_on_c, 0, 65, 57
1, 11525, Note_off_c, 0, 65, 61
1, 11527, Note_on_c, 0, 63, 60
1, 11584, Note_off_c, 0, 63, 63
1, 11602, Note_on_c, 0, 62, 54
1, 11654, Note_off_c, 0, 62, 61
1, 11659, Note_on_c, 0, 63, 60
1, 11692, Note_off_c, 0, 63, 65
1, 11760, Note_on_c, 0, 65, 62
1, 11792, Note_off_c, 0, 65, 66
1, 11856, Note_on_c, 0, 67, 69
1, 11884, Note_off_c, 0, 67, 66
1, 11945, Note_on_c, 0, 68, 71
1, 11998, Note_off_c, 0, 68, 50
1, 12039, Note_on_c, 0, 70, 64
1, 12065, Note_off_c, 0, 70, 66
1, 12141, Note_on_c, 0, 72, 68
1, 12169, Note_off_c, 0, 72, 66
1, 12245, Note_on_c, 0, 74, 63
1, 12269, Note_off_c, 0, 74, 70
1, 12351, Note_on_c, 0, 75, 62
1, 12382, Note_off_c, 0, 75, 67
1, 12446, Note_on_c, 0, 77, 68
1, 12471, Note_off_c, 0, 77, 67
1, 12549, Note_on_c, 0, 78, 71
1, 12574, Note_off_c, 0, 78, 67
1, 12658, Note_on_c, 0, 79, 66
1, 12681, Note_off_c, 0, 79, 65
1, 12757, Note_on_c, 0, 80, 64
1, 12792, Note_off_c, 0, 80, 62
1, 12869, Note_on_c, 0, 81, 63
1, 12890, Note_off_c, 0, 81, 60
1, 12979, Note_on_c, 0, 82, 63
1, 13025, Note_off_c, 0, 82, 63
1, 13093, Note_on_c, 0, 83, 66
1, 13126, Note_off_c, 0, 83, 56
1, 13310, Note_on_c, 0, 84, 65
1, 13324, Note_on_c, 0, 68, 40
1, 13335, Note_on_c, 0, 72, 34
1, 13335, Note_on_c, 0, 75, 30
1, 13601, Note_on_c, 0, 77, 56
1, 13604, Note_off_c, 0, 84, 54
1, 13623, Note_off_c, 0, 77, 60
1, 13704, Note_on_c, 0, 77, 55
1, 13752, Note_off_c, 0, 77, 0
1, 13752, Note_on_c, 0, 77, 12
1, 14057, Note_off_c, 0, 75, 60
1, 14058, Note_off_c, 0, 72, 60
1, 14088, Note_off_c, 0, 77, 59
1, 14103, Note_off_c, 0, 68, 64
1, 14435, Note_on_c, 0, 71, 37
1, 14505, Note_off_c, 0, 71, 54
1, 14506, Note_on_c, 0, 56, 37
1, 14512, Note_on_c, 0, 72, 47
1, 14515, Note_on_c, 0, 63, 26
1, 14520, Note_on_c, 0, 60, 33
1, 14843, Note_on_c, 0, 65, 43
1, 14857, Note_off_c, 0, 72, 37
1, 14869, Note_off_c, 0, 65, 59
1, 14945, Note_on_c, 0, 65, 50
1, 15322, Note_off_c, 0, 60, 38
1, 15355, Note_off_c, 0, 63, 43
1, 15387, Note_off_c, 0, 65, 60
1, 15399, Note_off_c, 0, 56, 51
1, 15913, Control_c, 0, 64, 37
1, 15928, Control_c, 0, 64, 53
1, 15943, Control_c, 0, 64, 60
1, 15952, Note_on_c, 0, 53, 36
1, 15957, Control_c, 0, 64, 63
1, 15972, Control_c, 0, 64, 65
1, 15974, Note_on_c, 0, 32, 29
1, 15985, Note_on_c, 0, 48, 19
1, 15987, Note_on_c, 0, 51, 19
1, 15987, Note_on_c, 0, 44, 21
1, 15987, Control_c, 0, 64, 68
1, 16002, Control_c, 0, 64, 72
1, 16017, Control_c, 0, 64, 77
1, 16032, Control_c, 0, 64, 82
1, 16047, Control_c, 0, 64, 84
1, 16069, Control_c, 0, 64, 86
1, 16085, Control_c, 0, 64, 88
1, 16088, Note_off_c, 0, 51, 32
1, 16100, Control_c, 0, 64, 90
1, 16114, Control_c, 0, 64, 93
1, 16129, Control_c, 0, 64, 95
1, 16144, Control_c, 0, 64, 98
1, 16159, Control_c, 0, 64, 101
1, 16163, Note_off_c, 0, 48, 40
1, 16166, Note_off_c, 0, 53, 41
1, 16174, Control_c, 0, 64, 103
1, 16176, Note_off_c, 0, 32, 39
1, 16180, Note_off_c, 0, 44, 38
1, 16188, Control_c, 0, 64, 106
1, 16203, Control_c, 0, 64, 108
1, 16218, Control_c, 0, 64, 110
1, 16233, Control_c, 0, 64, 112
1, 16248, Control_c, 0, 64, 113
1, 16262, Control_c, 0, 64, 114
1, 16277, Control_c, 0, 64, 115
1, 16292, Control_c, 0, 64, 116
1, 16306, Control_c, 0, 64, 117
1, 16321, Control_c, 0, 64, 118
1, 16336, Control_c, 0, 64, 119
1, 16351, Control_c, 0, 64, 119
1, 16381, Control_c, 0, 64, 120
1, 16389, Note_on_c, 0, 53, 59
1, 16395, Control_c, 0, 64, 120
1, 16410, Control_c, 0, 64, 121
1, 16412, Note_on_c, 0, 51, 45
1, 16418, Note_on_c, 0, 32, 37
1, 16419, Note_on_c, 0, 48, 41
1, 16420, Note_on_c, 0, 44, 34
1, 16425, Control_c, 0, 64, 121
1, 16455, Control_c, 0, 64, 122
1, 16470, Note_off_c, 0, 51, 55
1, 16470, Control_c, 0, 64, 123
1, 16499, Control_c, 0, 64, 124
1, 16514, Control_c, 0, 64, 125
1, 16529, Control_c, 0, 64, 127
1, 16544, Control_c, 0, 64, 127
1, 16560, Note_off_c, 0, 53, 57
1, 16570, Note_off_c, 0, 44, 34
1, 16570, Note_off_c, 0, 48, 24
1, 16573, Note_off_c, 0, 32, 39
1, 16825, Note_on_c, 0, 53, 62
1, 16844, Note_on_c, 0, 44, 42
1, 16849, Note_on_c, 0, 32, 40
1, 16849, Note_on_c, 0, 48, 47
1, 16849, Note_on_c, 0, 51, 43
1, 16917, Note_off_c, 0, 51, 52
1, 16920, Note_off_c, 0, 48, 49
1, 17001, Note_off_c, 0, 32, 35
1, 17005, Note_off_c, 0, 53, 56
1, 17029, Note_off_c, 0, 44, 34
1, 17406, Note_on_c, 0, 54, 60
1, 17424, Note_on_c, 0, 51, 51
1, 17432, Note_on_c, 0, 48, 37
1, 17436, Note_on_c, 0, 45, 36
1, 17441, Control_c, 0, 64, 119
1, 17448, Note_on_c, 0, 33, 35
1, 17455, Control_c, 0, 64, 113
1, 17470, Control_c, 0, 64, 106
1, 17485, Control_c, 0, 64, 99
1, 17500, Control_c, 0, 64, 91
1, 17515, Control_c, 0, 64, 82
1, 17529, Control_c, 0, 64, 71
1, 17552, Control_c, 0, 64, 48
1, 17567, Control_c, 0, 64, 0
1, 17951, Control_c, 0, 64, 36
1, 17966, Control_c, 0, 64, 60
1, 17981, Control_c, 0, 64, 64
1, 17996, Control_c, 0, 64, 66
1, 18011, Control_c, 0, 64, 70
1, 18026, Control_c, 0, 64, 75
1, 18041, Control_c, 0, 64, 82
1, 18056, Control_c, 0, 64, 86
1, 18071, Control_c, 0, 64, 88
1, 18085, Control_c, 0, 64, 90
1, 18100, Control_c, 0, 64, 93
1, 18115, Control_c, 0, 64, 97
1, 18130, Control_c, 0, 64, 101
1, 18145, Control_c, 0, 64, 104
1, 18159, Control_c, 0, 64, 107
1, 18174, Control_c, 0, 64, 111
1, 18189, Control_c, 0, 64, 114
1, 18202, Note_off_c, 0, 48, 43
1, 18204, Control_c, 0, 64, 117
1, 18219, Control_c, 0, 64, 121
1, 18233, Control_c, 0, 64, 127
1, 18252, Note_off_c, 0, 54, 50
1, 18273, Note_off_c, 0, 51, 34
1, 18275, Note_off_c, 0, 33, 43
1, 18339, Note_off_c, 0, 45, 41
1, 18931, Note_on_c, 0, 78, 62
1, 18953, Control_c, 0, 64, 123
1, 18959, Note_on_c, 0, 69, 39
1, 18960, Note_on_c, 0, 75, 42
1, 18968, Control_c, 0, 64, 110
1, 18977, Note_on_c, 0, 72, 33
1, 18982, Control_c, 0, 64, 101
1, 18997, Control_c, 0, 64, 87
1, 19012, Control_c, 0, 64, 74
1, 19026, Control_c, 0, 64, 47
1, 19041, Control_c, 0, 64, 0
1, 19093, Control_c, 0, 64, 31
1, 19108, Control_c, 0, 64, 65
1, 19123, Control_c, 0, 64, 71
1, 19138, Control_c, 0, 64, 79
1, 19153, Control_c, 0, 64, 87
1, 19168, Control_c, 0, 64, 93
1, 19182, Control_c, 0, 64, 97
1, 19197, Note_off_c, 0, 75, 30
1, 19197, Control_c, 0, 64, 103
1, 19200, Note_off_c, 0, 78, 53
1, 19212, Control_c, 0, 64, 108
1, 19226, Control_c, 0, 64, 113
1, 19239, Note_off_c, 0, 69, 59
1, 19241, Control_c, 0, 64, 118
1, 19254, Note_off_c, 0, 72, 41
1, 19256, Control_c, 0, 64, 123
1, 19272, Control_c, 0, 64, 127
1, 19426, Note_on_c, 0, 78, 82
1, 19435, Control_c, 0, 64, 115
1, 19445, Note_on_c, 0, 75, 65
1, 19449, Control_c, 0, 64, 101
1, 19454, Note_on_c, 0, 69, 48
1, 19454, Note_on_c, 0, 72, 42
1, 19464, Control_c, 0, 64, 87
1, 19479, Control_c, 0, 64, 69
1, 19494, Control_c, 0, 64, 0
1, 19538, Control_c, 0, 64, 64
1, 19553, Control_c, 0, 64, 73
1, 19568, Control_c, 0, 64, 82
1, 19583, Control_c, 0, 64, 91
1, 19594, Note_off_c, 0, 75, 35
1, 19597, Control_c, 0, 64, 96
1, 19612, Control_c, 0, 64, 101
1, 19627, Control_c, 0, 64, 108
1, 19642, Control_c, 0, 64, 116
1, 19655, Note_off_c, 0, 78, 53
1, 19657, Control_c, 0, 64, 127
1, 19708, Note_off_c, 0, 69, 57
1, 19729, Note_off_c, 0, 72, 40
1, 19958, Note_on_c, 0, 78, 81
1, 19961, Control_c, 0, 64, 107
1, 19975, Control_c, 0, 64, 93
1, 19977, Note_on_c, 0, 75, 65
1, 19981, Note_on_c, 0, 69, 42
1, 19984, Note_on_c, 0, 72, 44
1, 19990, Control_c, 0, 64, 77
1, 20005, Control_c, 0, 64, 57
1, 20020, Control_c, 0, 64, 0
1, 20063, Control_c, 0, 64, 63
1, 20079, Control_c, 0, 64, 70
1, 20094, Control_c, 0, 64, 78
1, 20109, Control_c, 0, 64, 86
1, 20124, Control_c, 0, 64, 92
1, 20139, Control_c, 0, 64, 96
1, 20139, Note_off_c, 0, 75, 47
1, 20153, Control_c, 0, 64, 101
1, 20168, Control_c, 0, 64, 106
1, 20183, Control_c, 0, 64, 112
1, 20198, Control_c, 0, 64, 118
1, 20199, Note_off_c, 0, 69, 61
1, 20213, Control_c, 0, 64, 125
1, 20227, Control_c, 0, 64, 127
1, 20244, Note_off_c, 0, 78, 57
1, 20309, Note_off_c, 0, 72, 41
1, 20719, Note_on_c, 0, 79, 77
1, 20727, Note_on_c, 0, 75, 72
1, 20734, Note_on_c, 0, 70, 63
1, 20768, Control_c, 0, 64, 127
1, 20783, Control_c, 0, 64, 111
1, 20797, Control_c, 0, 64, 99
1, 20812, Control_c, 0, 64, 87
1, 20827, Control_c, 0, 64, 71
1, 20842, Control_c, 0, 64, 0
1, 21324, Control_c, 0, 64, 48
1, 21339, Control_c, 0, 64, 60
1, 21354, Control_c, 0, 64, 64
1, 21369, Control_c, 0, 64, 66
1, 21383, Control_c, 0, 64, 69
1, 21398, Control_c, 0, 64, 74
1, 21413, Control_c, 0, 64, 80
1, 21427, Control_c, 0, 64, 84
1, 21442, Control_c, 0, 64, 87
1, 21457, Control_c, 0, 64, 89
1, 21472, Control_c, 0, 64, 92
1, 21487, Control_c, 0, 64, 96
1, 21502, Control_c, 0, 64, 99
1, 21517, Control_c, 0, 64, 103
1, 21532, Control_c, 0, 64, 106
1, 21547, Control_c, 0, 64, 110
1, 21562, Control_c, 0, 64, 113
1, 21576, Control_c, 0, 64, 116
1, 21591, Control_c, 0, 64, 120
1, 21606, Control_c, 0, 64, 123
1, 21621, Control_c, 0, 64, 126
1, 21636, Control_c, 0, 64, 127
1, 21639, Note_off_c, 0, 70, 52
1, 21671, Note_off_c, 0, 79, 49
1, 21722, Note_off_c, 0, 75, 55
1, 22399, Control_c, 0, 64, 111
1, 22409, Note_on_c, 0, 67, 53
1, 22414, Control_c, 0, 64, 100
1, 22416, Note_on_c, 0, 62, 45
1, 22420, Note_on_c, 0, 34, 45
1, 22426, Note_on_c, 0, 46, 34
1, 22428, Note_on_c, 0, 56, 28
1, 22429, Control_c, 0, 64, 88
1, 22444, Control_c, 0, 64, 74
1, 22451, Note_off_c, 0, 34, 50
1, 22459, Control_c, 0, 64, 55
1, 22462, Note_off_c, 0, 46, 44
1, 22474, Note_off_c, 0, 56, 45
1, 22474, Control_c, 0, 64, 0
1, 22490, Note_off_c, 0, 62, 49
1, 22557, Note_off_c, 0, 67, 26
1, 22569, Note_on_c, 0, 65, 44
1, 22597, Note_off_c, 0, 65, 61
1, 22688, Note_on_c, 0, 34, 57
1, 22693, Note_on_c, 0, 65, 60
1, 22698, Note_on_c, 0, 46, 47
1, 22716, Note_on_c, 0, 62, 41
1, 22723, Note_off_c, 0, 34, 65
1, 22728, Note_off_c, 0, 46, 49
1, 22736, Note_off_c, 0, 65, 65
1, 22745, Note_off_c, 0, 62, 54
1, 22756, Note_on_c, 0, 67, 55
1, 22832, Note_on_c, 0, 65, 64
1, 22856, Note_off_c, 0, 67, 36
1, 22885, Note_off_c, 0, 65, 61
1, 22888, Note_on_c, 0, 64, 63
1, 22939, Note_on_c, 0, 62, 53
1, 22953, Note_on_c, 0, 34, 60
1, 22957, Note_on_c, 0, 56, 39
1, 22962, Note_on_c, 0, 46, 51
1, 22972, Note_on_c, 0, 65, 60
1, 22978, Note_off_c, 0, 64, 58
1, 22984, Note_off_c, 0, 62, 60
1, 22985, Note_off_c, 0, 34, 64
1, 22989, Note_off_c, 0, 46, 56
1, 23001, Note_off_c, 0, 56, 55
1, 23048, Note_off_c, 0, 65, 59
1, 23111, Note_on_c, 0, 67, 51
1, 23138, Note_off_c, 0, 67, 59
1, 23248, Note_on_c, 0, 63, 60
1, 23251, Note_on_c, 0, 39, 55
1, 23256, Note_on_c, 0, 55, 57
1, 23258, Note_on_c, 0, 51, 48
1, 23284, Note_off_c, 0, 51, 57
1, 23287, Note_off_c, 0, 39, 63
1, 23392, Note_on_c, 0, 51, 48
1, 23431, Note_off_c, 0, 51, 62
1, 23474, Note_off_c, 0, 63, 54
1, 23481, Note_off_c, 0, 55, 38
1, 23535, Note_on_c, 0, 51, 54
1, 23567, Note_off_c, 0, 51, 61
1, 23679, Note_on_c, 0, 51, 52
1, 23711, Note_off_c, 0, 51, 64
1, 23817, Note_on_c, 0, 51, 56
1, 23854, Note_off_c, 0, 51, 63
1, 23959, Note_on_c, 0, 51, 53
1, 23993, Note_off_c, 0, 51, 64
1, 24047, Note_on_c, 0, 86, 51
1, 24085, Note_on_c, 0, 63, 64
1, 24085, Note_on_c, 0, 87, 80
1, 24086, Note_on_c, 0, 51, 53
1, 24101, Note_off_c, 0, 86, 63
1, 24104, Note_on_c, 0, 60, 51
1, 24143, Note_off_c, 0, 51, 55
1, 24250, Note_on_c, 0, 51, 49
1, 24284, Note_off_c, 0, 51, 63
1, 24314, Note_on_c, 0, 80, 64
1, 24328, Note_off_c, 0, 87, 30
1, 24331, Note_off_c, 0, 80, 68
1, 24385, Note_on_c, 0, 51, 56
1, 24396, Note_on_c, 0, 80, 70
1, 24426, Note_off_c, 0, 51, 62
1, 24526, Note_on_c, 0, 51, 56
1, 24573, Note_off_c, 0, 51, 61
1, 24581, Note_off_c, 0, 80, 64
1, 24700, Note_on_c, 0, 51, 22
1, 24736, Note_off_c, 0, 51, 40
1, 24830, Note_off_c, 0, 60, 62
1, 24834, Note_off_c, 0, 63, 61
1, 24879, Note_on_c, 0, 74, 52
1, 24930, Note_off_c, 0, 74, 60
1, 24930, Note_on_c, 0, 75, 61
1, 24946, Note_on_c, 0, 62, 55
1, 24965, Note_on_c, 0, 58, 46
1, 25013, Poly_aftertouch_c, 0, 51, 0
1, 25097, Note_on_c, 0, 51, 49
1, 25115, Note_off_c, 0, 75, 49
1, 25127, Note_off_c, 0, 51, 59
1, 25149, Note_on_c, 0, 67, 50
1, 25172, Note_off_c, 0, 67, 58
1, 25215, Note_on_c, 0, 67, 57
1, 25227, Note_on_c, 0, 51, 49
1, 25266, Note_off_c, 0, 51, 61
1, 25371, Note_on_c, 0, 51, 54
1, 25410, Note_off_c, 0, 51, 62
1, 25446, Note_off_c, 0, 67, 57
1, 25512, Note_on_c, 0, 51, 52
1, 25550, Note_off_c, 0, 51, 62
1, 25648, Note_on_c, 0, 51, 48
1, 25669, Note_off_c, 0, 58, 64
1, 25672, Note_off_c, 0, 62, 56
1, 25681, Note_off_c, 0, 51, 60
1, 25798, Note_on_c, 0, 51, 35
1, 25804, Note_on_c, 0, 75, 46
1, 25806, Note_on_c, 0, 60, 52
1, 25829, Note_on_c, 0, 56, 39
1, 25848, Note_off_c, 0, 51, 51
1, 25851, Note_on_c, 0, 65, 48
1, 25873, Note_off_c, 0, 75, 60
1, 25887, Note_off_c, 0, 65, 56
1, 25934, Note_on_c, 0, 51, 50
1, 25938, Note_off_c, 0, 60, 48
1, 25969, Note_off_c, 0, 51, 62
1, 25972, Note_off_c, 0, 56, 52
1, 26077, Note_on_c, 0, 51, 45
1, 26077, Note_on_c, 0, 60, 51
1, 26081, Note_on_c, 0, 75, 58
1, 26088, Note_on_c, 0, 56, 46
1, 26128, Note_off_c, 0, 51, 58
1, 26138, Note_on_c, 0, 65, 59
1, 26160, Note_off_c, 0, 75, 63
1, 26177, Note_off_c, 0, 65, 61
1, 26207, Note_on_c, 0, 51, 58
1, 26228, Note_off_c, 0, 60, 57
1, 26247, Note_off_c, 0, 51, 62
1, 26254, Note_off_c, 0, 56, 41
1, 26353, Note_on_c, 0, 74, 64
1, 26358, Note_on_c, 0, 51, 41
1, 26358, Note_on_c, 0, 56, 51
1, 26360, Note_on_c, 0, 59, 50
1, 26403, Note_off_c, 0, 51, 60
1, 26408, Note_on_c, 0, 65, 71
1, 26438, Note_off_c, 0, 74, 64
1, 26439, Note_off_c, 0, 65, 65
1, 26487, Note_on_c, 0, 51, 62
1, 26493, Note_off_c, 0, 59, 35
1, 26525, Note_off_c, 0, 51, 60
1, 26525, Note_off_c, 0, 56, 55
1, 26660, Note_on_c, 0, 75, 60
1, 26662, Note_on_c, 0, 51, 45
1, 26665, Note_on_c, 0, 55, 50
1, 26665, Note_on_c, 0, 58, 47
1, 26706, Note_off_c, 0, 51, 61
1, 26716, Note_on_c, 0, 63, 64
1, 26745, Note_off_c, 0, 58, 47
1, 26758, Note_off_c, 0, 63, 62
1, 26765, Note_off_c, 0, 55, 50
1, 26780, Note_off_c, 0, 75, 61
1, 26799, Note_on_c, 0, 51, 61
1, 26839, Note_off_c, 0, 51, 61
1, 26957, Note_on_c, 0, 51, 55
1, 26991, Note_off_c, 0, 51, 64
1, 27103, Note_on_c, 0, 51, 52
1, 27139, Note_off_c, 0, 51, 63
1, 27243, Note_on_c, 0, 51, 53
1, 27291, Note_off_c, 0, 51, 63
1, 27392, Note_on_c, 0, 51, 53
1, 27424, Note_off_c, 0, 51, 63
1, 27511, Note_on_c, 0, 87, 69
1, 27514, Note_on_c, 0, 51, 55
1, 27514, Note_on_c, 0, 63, 62
1, 27531, Note_on_c, 0, 60, 53
1, 27537, Note_off_c, 0, 87, 66
1, 27544, Note_on_c, 0, 89, 68
1, 27559, Note_off_c, 0, 51, 59
1, 27612, Note_on_c, 0, 87, 73
1, 27613, Note_off_c, 0, 89, 63
1, 27643, Note_off_c, 0, 87, 60
1, 27649, Note_on_c, 0, 86, 63
1, 27668, Note_on_c, 0, 51, 56
1, 27689, Note_off_c, 0, 86, 53
1, 27704, Note_off_c, 0, 51, 60
1, 27719, Note_on_c, 0, 87, 71
1, 27827, Note_on_c, 0, 80, 70
1, 27828, Note_off_c, 0, 87, 54
1, 27835, Note_on_c, 0, 51, 41
1, 27873, Note_off_c, 0, 51, 63
1, 27979, Note_on_c, 0, 51, 53
1, 28022, Note_off_c, 0, 51, 60
1, 28075, Note_off_c, 0, 80, 61
1, 28133, Note_on_c, 0, 51, 49
1, 28169, Note_off_c, 0, 51, 63
1, 28266, Note_on_c, 0, 51, 50
1, 28283, Note_off_c, 0, 60, 62
1, 28285, Note_off_c, 0, 63, 63
1, 28302, Note_off_c, 0, 51, 62
1, 28397, Note_on_c, 0, 75, 57
1, 28411, Note_on_c, 0, 51, 36
1, 28414, Note_on_c, 0, 62, 46
1, 28417, Note_on_c, 0, 58, 49
1, 28423, Note_off_c, 0, 75, 64
1, 28438, Note_on_c, 0, 77, 58
1, 28448, Note_off_c, 0, 51, 52
1, 28501, Note_on_c, 0, 75, 68
1, 28501, Note_off_c, 0, 77, 60
1, 28530, Note_off_c, 0, 75, 70
1, 28536, Note_on_c, 0, 74, 63
1, 28545, Note_on_c, 0, 51, 54
1, 28578, Note_off_c, 0, 74, 63
1, 28584, Note_off_c, 0, 51, 62
1, 28605, Note_on_c, 0, 75, 65
1, 28710, Note_on_c, 0, 51, 46
1, 28713, Note_on_c, 0, 67, 64
1, 28754, Note_off_c, 0, 51, 59
1, 28802, Note_off_c, 0, 75, 39
1, 28869, Note_on_c, 0, 51, 55
1, 28911, Note_off_c, 0, 51, 62
1, 28919, Note_off_c, 0, 67, 58
1, 29017, Note_on_c, 0, 51, 50
1, 29058, Note_off_c, 0, 51, 61
1, 29162, Note_on_c, 0, 51, 50
1, 29183, Note_off_c, 0, 58, 64
1, 29187, Note_off_c, 0, 62, 57
1, 29197, Note_off_c, 0, 51, 63
1, 29300, Note_on_c, 0, 75, 51
1, 29305, Note_on_c, 0, 51, 42
1, 29311, Note_on_c, 0, 60, 55
1, 29332, Note_on_c, 0, 56, 43
1, 29359, Note_on_c, 0, 65, 58
1, 29359, Note_off_c, 0, 51, 57
1, 29374, Note_off_c, 0, 75, 58
1, 29390, Note_off_c, 0, 65, 67
1, 29447, Note_on_c, 0, 51, 55
1, 29482, Note_off_c, 0, 60, 39
1, 29486, Note_off_c, 0, 51, 63
1, 29488, Note_off_c, 0, 56, 58
1, 29594, Note_on_c, 0, 75, 60
1, 29595, Note_on_c, 0, 60, 54
1, 29600, Note_on_c, 0, 51, 43
1, 29609, Note_on_c, 0, 56, 56
1, 29642, Note_on_c, 0, 65, 67
1, 29643, Note_off_c, 0, 51, 61
1, 29658, Note_off_c, 0, 75, 60
1, 29681, Note_off_c, 0, 65, 64
1, 29720, Note_off_c, 0, 56, 0
1, 29735, Note_on_c, 0, 51, 57
1, 29746, Note_off_c, 0, 60, 58
1, 29766, Poly_aftertouch_c, 0, 56, 0
1, 29777, Note_off_c, 0, 51, 61
1, 29868, Note_on_c, 0, 74, 57
1, 29896, Note_on_c, 0, 56, 42
1, 29901, Note_on_c, 0, 59, 52
1, 29909, Note_on_c, 0, 51, 19
1, 29926, Note_on_c, 0, 65, 72
1, 29930, Note_off_c, 0, 74, 63
1, 29947, Note_off_c, 0, 51, 54
1, 29959, Note_off_c, 0, 65, 64
1, 30027, Note_off_c, 0, 59, 53
1, 30030, Note_on_c, 0, 51, 46
1, 30057, Note_off_c, 0, 56, 57
1, 30058, Note_off_c, 0, 51, 58
1, 30173, Note_on_c, 0, 63, 75
1, 30175, Note_on_c, 0, 51, 60
1, 30176, Note_on_c, 0, 58, 76
1, 30179, Note_on_c, 0, 55, 67
1, 30234, Note_off_c, 0, 63, 65
1, 30242, Note_on_c, 0, 65, 68
1, 30308, Note_on_c, 0, 63, 71
1, 30328, Note_off_c, 0, 65, 63
1, 30376, Note_on_c, 0, 62, 71
1, 30378, Note_off_c, 0, 63, 64
1, 30444, Note_on_c, 0, 63, 74
1, 30462, Note_off_c, 0, 62, 60
1, 30489, Note_off_c, 0, 63, 66
1, 30508, Note_off_c, 0, 58, 62
1, 30512, Note_on_c, 0, 65, 75
1, 30515, Note_off_c, 0, 55, 63
1, 30531, Note_off_c, 0, 51, 59
1, 30555, Note_off_c, 0, 65, 54
1, 30582, Note_on_c, 0, 67, 81
1, 30634, Note_on_c, 0, 68, 78
1, 30647, Note_off_c, 0, 67, 56
1, 30705, Note_on_c, 0, 70, 79
1, 30712, Note_off_c, 0, 68, 66
1, 30725, Note_off_c, 0, 70, 70
1, 30871, Note_on_c, 0, 67, 84
1, 30871, Note_on_c, 0, 55, 67
1, 30890, Note_off_c, 0, 67, 70
1, 30898, Note_off_c, 0, 55, 66
1, 31016, Note_on_c, 0, 65, 78
1, 31018, Note_on_c, 0, 53, 74
1, 31050, Note_off_c, 0, 65, 68
1, 31050, Note_off_c, 0, 53, 68
1, 31166, Note_on_c, 0, 56, 69
1, 31166, Note_on_c, 0, 68, 72
1, 31193, Note_off_c, 0, 68, 69
1, 31199, Note_off_c, 0, 56, 67
1, 31305, Note_on_c, 0, 50, 64
1, 31306, Note_on_c, 0, 62, 75
1, 31333, Note_off_c, 0, 62, 66
1, 31335, Note_off_c, 0, 50, 63
1, 31453, Note_on_c, 0, 65, 67
1, 31460, Note_on_c, 0, 53, 62
1, 31482, Note_off_c, 0, 65, 67
1, 31485, Note_off_c, 0, 53, 66
1, 31590, Note_on_c, 0, 58, 78
1, 31595, Note_on_c, 0, 46, 68
1, 31619, Note_off_c, 0, 58, 66
1, 31626, Note_off_c, 0, 46, 62
1, 31729, Note_on_c, 0, 62, 75
1, 31730, Note_on_c, 0, 50, 68
1, 31754, Note_off_c, 0, 62, 66
1, 31759, Note_off_c, 0, 50, 67
1, 31877, Note_on_c, 0, 51, 68
1, 31881, Note_on_c, 0, 63, 69
1, 31944, Note_off_c, 0, 63, 65
1, 31950, Note_on_c, 0, 65, 68
1, 32007, Note_on_c, 0, 63, 69
1, 32026, Note_off_c, 0, 65, 62
1, 32074, Note_off_c, 0, 63, 65
1, 32078, Note_on_c, 0, 62, 70
1, 32139, Note_on_c, 0, 63, 74
1, 32150, Note_off_c, 0, 62, 60
1, 32186, Note_off_c, 0, 63, 66
1, 32214, Note_on_c, 0, 65, 73
1, 32225, Note_off_c, 0, 51, 61
1, 32270, Note_off_c, 0, 65, 57
1, 32277, Note_on_c, 0, 67, 81
1, 32329, Note_on_c, 0, 68, 71
1, 32333, Note_off_c, 0, 67, 62
1, 32356, Note_off_c, 0, 68, 67
1, 32410, Note_on_c, 0, 60, 63
1, 32412, Note_on_c, 0, 72, 78
1, 32486, Note_on_c, 0, 58, 62
1, 32489, Note_off_c, 0, 60, 54
1, 32494, Note_on_c, 0, 70, 72
1, 32539, Note_off_c, 0, 72, 61
1, 32553, Note_on_c, 0, 56, 66
1, 32561, Note_on_c, 0, 68, 76
1, 32567, Note_off_c, 0, 58, 64
1, 32604, Note_off_c, 0, 70, 57
1, 32618, Note_on_c, 0, 67, 74
1, 32642, Note_off_c, 0, 56, 61
1, 32645, Note_off_c, 0, 68, 61
1, 32664, Note_on_c, 0, 55, 50
1, 32678, Note_on_c, 0, 53, 66
1, 32682, Note_on_c, 0, 65, 80
1, 32682, Note_off_c, 0, 67, 61
1, 32691, Note_off_c, 0, 55, 62
1, 32706, Note_off_c, 0, 65, 69
1, 32712, Note_off_c, 0, 53, 68
1, 32841, Note_on_c, 0, 68, 70
1, 32842, Note_on_c, 0, 56, 64
1, 32868, Note_off_c, 0, 68, 68
1, 32877, Note_off_c, 0, 56, 65
1, 32974, Note_on_c, 0, 50, 61
1, 32977, Note_on_c, 0, 62, 73
1, 33000, Note_off_c, 0, 50, 65
1, 33003, Note_off_c, 0, 62, 66
1, 33127, Note_on_c, 0, 65, 53
1, 33135, Note_on_c, 0, 53, 57
1, 33147, Note_off_c, 0, 65, 65
1, 33156, Note_off_c, 0, 53, 63
1, 33263, Note_on_c, 0, 58, 76
1, 33272, Note_on_c, 0, 46, 67
1, 33295, Note_off_c, 0, 58, 69
1, 33318, Note_off_c, 0, 46, 60
1, 33410, Note_on_c, 0, 50, 73
1, 33413, Note_on_c, 0, 62, 74
1, 33437, Note_off_c, 0, 62, 65
1, 33441, Note_off_c, 0, 50, 64
1, 33550, Note_on_c, 0, 51, 72
1, 33555, Note_on_c, 0, 63, 76
1, 33581, Note_off_c, 0, 51, 66
1, 33585, Note_off_c, 0, 63, 67
1, 33703, Note_on_c, 0, 67, 66
1, 33707, Note_on_c, 0, 55, 55
1, 33731, Note_off_c, 0, 67, 66
1, 33735, Note_off_c, 0, 55, 61
1, 33838, Note_on_c, 0, 60, 66
1, 33840, Note_on_c, 0, 48, 58
1, 33867, Note_off_c, 0, 60, 67
1, 33878, Note_off_c, 0, 48, 64
1, 33975, Note_on_c, 0, 63, 56
1, 33982, Note_on_c, 0, 51, 60
1, 34005, Note_off_c, 0, 63, 66
1, 34022, Note_off_c, 0, 51, 64
1, 34130, Note_on_c, 0, 57, 59
1, 34132, Note_on_c, 0, 45, 57
1, 34159, Note_off_c, 0, 57, 63
1, 34164, Note_off_c, 0, 45, 64
1, 34272, Note_on_c, 0, 60, 49
1, 34278, Note_on_c, 0, 48, 54
1, 34298, Note_off_c, 0, 60, 60
1, 34304, Note_off_c, 0, 48, 63
1, 34415, Note_on_c, 0, 53, 61
1, 34419, Note_on_c, 0, 41, 53
1, 34446, Note_off_c, 0, 53, 66
1, 34460, Note_off_c, 0, 41, 63
1, 34558, Note_on_c, 0, 45, 62
1, 34561, Note_on_c, 0, 57, 65
1, 34591, Note_off_c, 0, 57, 64
1, 34598, Note_off_c, 0, 45, 65
1, 34702, Note_on_c, 0, 48, 77
1, 34702, Note_on_c, 0, 60, 70
1, 34731, Note_off_c, 0, 60, 64
1, 34736, Note_off_c, 0, 48, 67
1, 34844, Note_on_c, 0, 64, 77
1, 34846, Note_on_c, 0, 52, 83
1, 34872, Note_off_c, 0, 52, 68
1, 34885, Note_off_c, 0, 64, 62
1, 34983, Note_on_c, 0, 53, 77
1, 34987, Note_on_c, 0, 65, 76
1, 35019, Note_off_c, 0, 53, 66
1, 35024, Note_off_c, 0, 65, 63
1, 35131, Note_on_c, 0, 57, 70
1, 35133, Note_on_c, 0, 45, 69
1, 35162, Note_off_c, 0, 57, 63
1, 35172, Note_off_c, 0, 45, 62
1, 35268, Note_on_c, 0, 46, 72
1, 35268, Note_on_c, 0, 58, 76
1, 35293, Note_off_c, 0, 58, 69
1, 35321, Note_off_c, 0, 46, 59
1, 35402, Note_on_c, 0, 62, 71
1, 35405, Note_on_c, 0, 50, 63
1, 35429, Note_off_c, 0, 62, 65
1, 35434, Note_off_c, 0, 50, 65
1, 35549, Note_on_c, 0, 53, 65
1, 35551, Note_on_c, 0, 65, 69
1, 35576, Note_off_c, 0, 53, 68
1, 35578, Note_off_c, 0, 65, 69
1, 35702, Note_on_c, 0, 57, 58
1, 35703, Note_on_c, 0, 69, 68
1, 35827, Note_off_c, 0, 57, 58
1, 35840, Note_on_c, 0, 58, 69
1, 35843, Note_on_c, 0, 70, 71
1, 35856, Note_off_c, 0, 69, 63
1, 35868, Note_off_c, 0, 70, 68
1, 35873, Note_off_c, 0, 58, 65
1, 36000, Note_on_c, 0, 69, 80
1, 36005, Note_on_c, 0, 57, 71
1, 36146, Note_off_c, 0, 57, 58
1, 36147, Note_on_c, 0, 70, 72
1, 36149, Note_on_c, 0, 58, 68
1, 36157, Note_off_c, 0, 69, 63
1, 36176, Note_off_c, 0, 70, 65
1, 36183, Note_off_c, 0, 58, 66
1, 36319, Note_on_c, 0, 69, 78
1, 36323, Note_on_c, 0, 57, 57
1, 36449, Note_off_c, 0, 57, 56
1, 36466, Note_on_c, 0, 58, 62
1, 36472, Note_on_c, 0, 70, 71
1, 36481, Note_off_c, 0, 69, 61
1, 36502, Note_off_c, 0, 58, 64
1, 36505, Note_off_c, 0, 70, 61
1, 36651, Note_on_c, 0, 69, 68
1, 36660, Note_on_c, 0, 57, 51
1, 36817, Note_off_c, 0, 57, 44
1, 36829, Note_off_c, 0, 69, 50
1, 36842, Note_on_c, 0, 70, 62
1, 36867, Note_on_c, 0, 58, 48
1, 36909, Note_off_c, 0, 58, 59
1, 36913, Note_off_c, 0, 70, 58
1, 37101, Note_on_c, 0, 70, 56
1, 37118, Note_on_c, 0, 58, 48
1, 37123, Control_c, 0, 64, 52
1, 37138, Control_c, 0, 64, 61
1, 37153, Control_c, 0, 64, 65
1, 37168, Control_c, 0, 64, 68
1, 37174, Note_off_c, 0, 58, 59
1, 37182, Control_c, 0, 64, 73
1, 37190, Note_off_c, 0, 70, 63
1, 37197, Control_c, 0, 64, 79
1, 37212, Control_c, 0, 64, 84
1, 37227, Control_c, 0, 64, 86
1, 37242, Control_c, 0, 64, 87
1, 37256, Control_c, 0, 64, 89
1, 37271, Control_c, 0, 64, 91
1, 37286, Control_c, 0, 64, 92
1, 37301, Control_c, 0, 64, 93
1, 37316, Control_c, 0, 64, 94
1, 37330, Control_c, 0, 64, 95
1, 37345, Control_c, 0, 64, 95
1, 37375, Control_c, 0, 64, 96
1, 37435, Control_c, 0, 64, 96
1, 37523, Control_c, 0, 64, 96
1, 37547, Note_on_c, 0, 71, 58
1, 37553, Control_c, 0, 64, 93
1, 37565, Note_on_c, 0, 63, 42
1, 37567, Control_c, 0, 64, 86
1, 37569, Note_on_c, 0, 44, 37
1, 37574, Note_on_c, 0, 56, 31
1, 37576, Note_on_c, 0, 53, 43
1, 37577, Note_on_c, 0, 59, 38
1, 37582, Control_c, 0, 64, 77
1, 37592, Note_on_c, 0, 51, 41
1, 37597, Control_c, 0, 64, 65
1, 37612, Control_c, 0, 64, 23
1, 37627, Control_c, 0, 64, 0
1, 37643, Control_c, 0, 64, 52
1, 37658, Control_c, 0, 64, 66
1, 37672, Control_c, 0, 64, 70
1, 37673, Note_off_c, 0, 63, 38
1, 37682, Note_off_c, 0, 71, 51
1, 37687, Control_c, 0, 64, 75
1, 37702, Control_c, 0, 64, 78
1, 37717, Control_c, 0, 64, 80
1, 37732, Control_c, 0, 64, 81
1, 37746, Control_c, 0, 64, 83
1, 37761, Control_c, 0, 64, 85
1, 37783, Control_c, 0, 64, 86
1, 37798, Control_c, 0, 64, 86
1, 37813, Control_c, 0, 64, 87
1, 37828, Control_c, 0, 64, 88
1, 37843, Control_c, 0, 64, 89
1, 37858, Control_c, 0, 64, 89
1, 37873, Note_on_c, 0, 65, 56
1, 37909, Note_off_c, 0, 65, 63
1, 37961, Control_c, 0, 64, 89
1, 37976, Control_c, 0, 64, 87
1, 37988, Note_on_c, 0, 65, 54
1, 37991, Control_c, 0, 64, 82
1, 38006, Control_c, 0, 64, 75
1, 38021, Control_c, 0, 64, 65
1, 38036, Control_c, 0, 64, 0
1, 38388, Note_off_c, 0, 59, 1
1, 38397, Note_off_c, 0, 53, 57
1, 38407, Note_off_c, 0, 56, 41
1, 38410, Note_off_c, 0, 65, 62
1, 38412, Note_off_c, 0, 51, 39
1, 38428, Note_off_c, 0, 44, 40
1, 38930, Note_on_c, 0, 71, 58
1, 38946, Control_c, 0, 64, 51
1, 38949, Note_on_c, 0, 63, 33
1, 38951, Note_on_c, 0, 53, 26
1, 38952, Note_on_c, 0, 56, 20
1, 38957, Note_on_c, 0, 59, 21
1, 38961, Control_c, 0, 64, 60
1, 38967, Note_on_c, 0, 44, 29
1, 38973, Note_on_c, 0, 51, 28
1, 38976, Control_c, 0, 64, 63
1, 38991, Control_c, 0, 64, 66
1, 39006, Control_c, 0, 64, 69
1, 39020, Control_c, 0, 64, 73
1, 39035, Control_c, 0, 64, 78
1, 39041, Note_off_c, 0, 63, 36
1, 39050, Control_c, 0, 64, 81
1, 39065, Control_c, 0, 64, 83
1, 39080, Control_c, 0, 64, 84
1, 39095, Control_c, 0, 64, 85
1, 39097, Note_off_c, 0, 71, 36
1, 39110, Control_c, 0, 64, 86
1, 39125, Control_c, 0, 64, 88
1, 39139, Control_c, 0, 64, 89
1, 39154, Control_c, 0, 64, 90
1, 39167, Note_off_c, 0, 59, 35
1, 39184, Control_c, 0, 64, 90
1, 39199, Control_c, 0, 64, 91
1, 39213, Control_c, 0, 64, 91
1, 39258, Note_on_c, 0, 65, 50
1, 39304, Note_off_c, 0, 65, 62
1, 39384, Control_c, 0, 64, 90
1, 39385, Note_on_c, 0, 65, 50
1, 39399, Control_c, 0, 64, 88
1, 39414, Control_c, 0, 64, 84
1, 39429, Control_c, 0, 64, 77
1, 39444, Control_c, 0, 64, 69
1, 39459, Control_c, 0, 64, 54
1, 39474, Control_c, 0, 64, 0
1, 39849, Note_off_c, 0, 65, 42
1, 39851, Note_off_c, 0, 44, 35
1, 39861, Note_off_c, 0, 56, 37
1, 39873, Note_off_c, 0, 51, 35
1, 39873, Note_off_c, 0, 53, 42
1, 40252, Control_c, 0, 64, 38
1, 40267, Control_c, 0, 64, 49
1, 40281, Control_c, 0, 64, 53
1, 40296, Control_c, 0, 64, 57
1, 40311, Control_c, 0, 64, 61
1, 40326, Control_c, 0, 64, 63
1, 40341, Control_c, 0, 64, 65
1, 40356, Control_c, 0, 64, 67
1, 40370, Note_on_c, 0, 56, 25
1, 40371, Control_c, 0, 64, 69
1, 40371, Note_on_c, 0, 65, 27
1, 40377, Note_on_c, 0, 59, 24
1, 40386, Note_on_c, 0, 63, 25
1, 40386, Control_c, 0, 64, 72
1, 40400, Control_c, 0, 64, 76
1, 40415, Control_c, 0, 64, 79
1, 40430, Control_c, 0, 64, 81
1, 40445, Control_c, 0, 64, 83
1, 40460, Control_c, 0, 64, 84
1, 40474, Control_c, 0, 64, 86
1, 40489, Control_c, 0, 64, 87
1, 40504, Control_c, 0, 64, 89
1, 40518, Control_c, 0, 64, 90
1, 40533, Control_c, 0, 64, 92
1, 40535, Note_off_c, 0, 63, 39
1, 40548, Control_c, 0, 64, 93
1, 40561, Note_off_c, 0, 56, 41
1, 40562, Note_off_c, 0, 65, 39
1, 40563, Control_c, 0, 64, 94
1, 40577, Note_off_c, 0, 59, 41
1, 40578, Control_c, 0, 64, 96
1, 40592, Control_c, 0, 64, 96
1, 40607, Control_c, 0, 64, 97
1, 40622, Control_c, 0, 64, 98
1, 40637, Control_c, 0, 64, 98
1, 40652, Control_c, 0, 64, 99
1, 40681, Control_c, 0, 64, 99
1, 40711, Control_c, 0, 64, 100
1, 40714, Note_on_c, 0, 65, 56
1, 40726, Note_on_c, 0, 56, 38
1, 40729, Note_on_c, 0, 59, 30
1, 40735, Note_on_c, 0, 63, 42
1, 40755, Control_c, 0, 64, 100
1, 40850, Note_off_c, 0, 63, 37
1, 40868, Control_c, 0, 64, 101
1, 40887, Note_off_c, 0, 56, 44
1, 40911, Note_off_c, 0, 59, 37
1, 40911, Note_off_c, 0, 65, 47
1, 41032, Note_on_c, 0, 66, 64
1, 41044, Note_on_c, 0, 63, 52
1, 41046, Control_c, 0, 64, 100
1, 41058, Note_on_c, 0, 59, 28
1, 41061, Control_c, 0, 64, 96
1, 41065, Note_on_c, 0, 54, 36
1, 41076, Control_c, 0, 64, 88
1, 41090, Control_c, 0, 64, 76
1, 41105, Control_c, 0, 64, 51
1, 41120, Control_c, 0, 64, 0
1, 41149, Control_c, 0, 64, 43
1, 41164, Control_c, 0, 64, 65
1, 41174, Note_off_c, 0, 63, 37
1, 41179, Control_c, 0, 64, 70
1, 41194, Control_c, 0, 64, 76
1, 41209, Control_c, 0, 64, 80
1, 41223, Control_c, 0, 64, 83
1, 41238, Control_c, 0, 64, 85
1, 41253, Control_c, 0, 64, 87
1, 41262, Note_off_c, 0, 54, 38
1, 41266, Note_off_c, 0, 59, 40
1, 41268, Control_c, 0, 64, 89
1, 41283, Control_c, 0, 64, 91
1, 41298, Control_c, 0, 64, 93
1, 41313, Control_c, 0, 64, 94
1, 41328, Control_c, 0, 64, 95
1, 41342, Control_c, 0, 64, 96
1, 41357, Control_c, 0, 64, 96
1, 41372, Control_c, 0, 64, 97
1, 41387, Control_c, 0, 64, 97
1, 41402, Control_c, 0, 64, 98
1, 41434, Note_on_c, 0, 68, 60
1, 41454, Note_on_c, 0, 53, 40
1, 41456, Note_on_c, 0, 63, 45
1, 41475, Note_on_c, 0, 59, 24
1, 41475, Note_off_c, 0, 66, 55
1, 41476, Control_c, 0, 64, 97
1, 41505, Control_c, 0, 64, 96
1, 41527, Control_c, 0, 64, 94
1, 41542, Control_c, 0, 64, 90
1, 41557, Control_c, 0, 64, 83
1, 41572, Control_c, 0, 64, 74
1, 41587, Control_c, 0, 64, 58
1, 41602, Control_c, 0, 64, 0
1, 42140, Note_off_c, 0, 63, 52
1, 42155, Note_on_c, 0, 62, 45
1, 42210, Control_c, 0, 64, 37
1, 42225, Control_c, 0, 64, 62
1, 42239, Control_c, 0, 64, 68
1, 42254, Control_c, 0, 64, 74
1, 42276, Note_off_c, 0, 59, 47
1, 42276, Control_c, 0, 64, 81
1, 42291, Control_c, 0, 64, 86
1, 42296, Note_off_c, 0, 62, 58
1, 42297, Note_off_c, 0, 68, 55
1, 42306, Control_c, 0, 64, 88
1, 42312, Note_off_c, 0, 53, 52
1, 42320, Control_c, 0, 64, 89
1, 42335, Control_c, 0, 64, 90
1, 42350, Control_c, 0, 64, 92
1, 42365, Control_c, 0, 64, 93
1, 42380, Control_c, 0, 64, 94
1, 42395, Control_c, 0, 64, 95
1, 42410, Control_c, 0, 64, 96
1, 42425, Control_c, 0, 64, 97
1, 42440, Control_c, 0, 64, 99
1, 42469, Control_c, 0, 64, 99
1, 42498, Control_c, 0, 64, 100
1, 42565, Note_on_c, 0, 77, 60
1, 42586, Control_c, 0, 64, 98
1, 42595, Note_on_c, 0, 68, 37
1, 42601, Control_c, 0, 64, 93
1, 42605, Note_on_c, 0, 71, 32
1, 42610, Note_on_c, 0, 75, 31
1, 42616, Control_c, 0, 64, 82
1, 42631, Control_c, 0, 64, 64
1, 42646, Control_c, 0, 64, 0
1, 42690, Control_c, 0, 64, 57
1, 42705, Control_c, 0, 64, 68
1, 42720, Control_c, 0, 64, 74
1, 42726, Note_off_c, 0, 77, 51
1, 42735, Control_c, 0, 64, 81
1, 42741, Note_off_c, 0, 75, 31
1, 42750, Control_c, 0, 64, 86
1, 42764, Control_c, 0, 64, 89
1, 42771, Note_off_c, 0, 71, 54
1, 42779, Control_c, 0, 64, 92
1, 42791, Note_off_c, 0, 68, 43
1, 42794, Control_c, 0, 64, 95
1, 42809, Control_c, 0, 64, 98
1, 42824, Control_c, 0, 64, 100
1, 42839, Control_c, 0, 64, 101
1, 42868, Control_c, 0, 64, 100
1, 42883, Control_c, 0, 64, 96
1, 42884, Note_on_c, 0, 77, 72
1, 42898, Control_c, 0, 64, 86
1, 42900, Note_on_c, 0, 68, 50
1, 42911, Note_on_c, 0, 75, 48
1, 42913, Control_c, 0, 64, 69
1, 42920, Note_on_c, 0, 71, 40
1, 42928, Control_c, 0, 64, 0
1, 42943, Note_off_c, 0, 75, 50
1, 42972, Control_c, 0, 64, 57
1, 42986, Control_c, 0, 64, 69
1, 43001, Control_c, 0, 64, 77
1, 43024, Control_c, 0, 64, 86
1, 43039, Control_c, 0, 64, 90
1, 43054, Control_c, 0, 64, 94
1, 43067, Note_off_c, 0, 71, 52
1, 43068, Control_c, 0, 64, 97
1, 43083, Control_c, 0, 64, 102
1, 43098, Control_c, 0, 64, 107
1, 43101, Note_off_c, 0, 68, 38
1, 43112, Control_c, 0, 64, 111
1, 43127, Control_c, 0, 64, 111
1, 43172, Control_c, 0, 64, 109
1, 43182, Note_on_c, 0, 78, 78
1, 43186, Control_c, 0, 64, 102
1, 43200, Note_on_c, 0, 75, 62
1, 43201, Control_c, 0, 64, 87
1, 43214, Note_on_c, 0, 71, 38
1, 43216, Control_c, 0, 64, 71
1, 43220, Note_on_c, 0, 66, 42
1, 43224, Note_off_c, 0, 77, 56
1, 43231, Control_c, 0, 64, 0
1, 43268, Note_off_c, 0, 75, 55
1, 43277, Control_c, 0, 64, 42
1, 43291, Control_c, 0, 64, 66
1, 43306, Control_c, 0, 64, 74
1, 43321, Control_c, 0, 64, 80
1, 43336, Control_c, 0, 64, 84
1, 43351, Control_c, 0, 64, 86
1, 43365, Control_c, 0, 64, 88
1, 43380, Control_c, 0, 64, 91
1, 43392, Note_off_c, 0, 66, 42
1, 43395, Control_c, 0, 64, 95
1, 43409, Control_c, 0, 64, 98
1, 43410, Note_off_c, 0, 71, 33
1, 43424, Control_c, 0, 64, 99
1, 43439, Control_c, 0, 64, 100
1, 43454, Control_c, 0, 64, 101
1, 43469, Control_c, 0, 64, 102
1, 43483, Control_c, 0, 64, 102
1, 43498, Control_c, 0, 64, 103
1, 43588, Note_on_c, 0, 80, 65
1, 43602, Note_on_c, 0, 75, 51
1, 43617, Control_c, 0, 64, 102
1, 43626, Note_on_c, 0, 71, 33
1, 43632, Control_c, 0, 64, 101
1, 43632, Note_on_c, 0, 65, 36
1, 43647, Control_c, 0, 64, 99
1, 43650, Note_off_c, 0, 78, 61
1, 43662, Control_c, 0, 64, 95
1, 43676, Control_c, 0, 64, 86
1, 43691, Control_c, 0, 64, 77
1, 43706, Control_c, 0, 64, 66
1, 43721, Control_c, 0, 64, 0
1, 44268, Note_on_c, 0, 74, 35
1, 44293, Note_off_c, 0, 75, 34
1, 44307, Control_c, 0, 64, 53
1, 44322, Control_c, 0, 64, 63
1, 44337, Control_c, 0, 64, 66
1, 44338, Note_off_c, 0, 71, 54
1, 44352, Control_c, 0, 64, 70
1, 44366, Control_c, 0, 64, 75
1, 44380, Note_off_c, 0, 65, 52
1, 44381, Control_c, 0, 64, 81
1, 44382, Note_off_c, 0, 80, 62
1, 44396, Control_c, 0, 64, 85
1, 44403, Note_off_c, 0, 74, 63
1, 44411, Control_c, 0, 64, 86
1, 44426, Control_c, 0, 64, 87
1, 44440, Control_c, 0, 64, 89
1, 44455, Control_c, 0, 64, 92
1, 44470, Control_c, 0, 64, 94
1, 44485, Control_c, 0, 64, 96
1, 44507, Control_c, 0, 64, 98
1, 44522, Control_c, 0, 64, 99
1, 44537, Control_c, 0, 64, 99
1, 44566, Control_c, 0, 64, 100
1, 44581, Control_c, 0, 64, 100
1, 44626, Control_c, 0, 64, 100
1, 44638, Note_on_c, 0, 67, 54
1, 44640, Control_c, 0, 64, 99
1, 44649, Note_on_c, 0, 65, 49
1, 44655, Control_c, 0, 64, 94
1, 44659, Note_on_c, 0, 58, 44
1, 44662, Note_on_c, 0, 61, 37
1, 44670, Control_c, 0, 64, 86
1, 44684, Control_c, 0, 64, 74
1, 44699, Control_c, 0, 64, 56
1, 44714, Control_c, 0, 64, 0
1, 44744, Control_c, 0, 64, 55
1, 44759, Control_c, 0, 64, 69
1, 44774, Control_c, 0, 64, 77
1, 44789, Control_c, 0, 64, 85
1, 44803, Control_c, 0, 64, 90
1, 44818, Note_off_c, 0, 61, 55
1, 44818, Control_c, 0, 64, 93
1, 44820, Note_off_c, 0, 58, 58
1, 44830, Note_off_c, 0, 65, 57
1, 44834, Control_c, 0, 64, 97
1, 44839, Note_off_c, 0, 67, 57
1, 44849, Control_c, 0, 64, 103
1, 44863, Control_c, 0, 64, 108
1, 44878, Control_c, 0, 64, 113
1, 44893, Control_c, 0, 64, 116
1, 44908, Control_c, 0, 64, 117
1, 44938, Control_c, 0, 64, 117
1, 44952, Control_c, 0, 64, 116
1, 44953, Note_on_c, 0, 67, 74
1, 44961, Note_on_c, 0, 65, 66
1, 44964, Note_on_c, 0, 58, 52
1, 44967, Control_c, 0, 64, 109
1, 44969, Note_on_c, 0, 61, 48
1, 44982, Control_c, 0, 64, 96
1, 44997, Control_c, 0, 64, 80
1, 45012, Control_c, 0, 64, 63
1, 45027, Control_c, 0, 64, 0
1, 45056, Control_c, 0, 64, 35
1, 45067, Note_off_c, 0, 65, 59
1, 45071, Control_c, 0, 64, 67
1, 45086, Control_c, 0, 64, 76
1, 45093, Note_off_c, 0, 61, 49
1, 45101, Control_c, 0, 64, 84
1, 45116, Control_c, 0, 64, 89
1, 45130, Control_c, 0, 64, 92
1, 45145, Control_c, 0, 64, 97
1, 45155, Note_off_c, 0, 58, 37
1, 45160, Control_c, 0, 64, 102
1, 45175, Control_c, 0, 64, 108
1, 45189, Control_c, 0, 64, 113
1, 45204, Control_c, 0, 64, 115
1, 45249, Control_c, 0, 64, 114
1, 45261, Note_on_c, 0, 68, 73
1, 45270, Note_on_c, 0, 65, 68
1, 45271, Control_c, 0, 64, 110
1, 45280, Note_on_c, 0, 61, 37
1, 45286, Control_c, 0, 64, 100
1, 45289, Note_on_c, 0, 56, 44
1, 45301, Control_c, 0, 64, 85
1, 45304, Note_off_c, 0, 67, 58
1, 45315, Control_c, 0, 64, 64
1, 45330, Control_c, 0, 64, 0
1, 45389, Control_c, 0, 64, 52
1, 45404, Control_c, 0, 64, 67
1, 45419, Control_c, 0, 64, 72
1, 45426, Note_off_c, 0, 65, 50
1, 45434, Control_c, 0, 64, 77
1, 45449, Control_c, 0, 64, 83
1, 45463, Control_c, 0, 64, 87
1, 45466, Note_off_c, 0, 61, 36
1, 45475, Note_off_c, 0, 56, 38
1, 45478, Control_c, 0, 64, 89
1, 45492, Control_c, 0, 64, 91
1, 45507, Control_c, 0, 64, 94
1, 45522, Control_c, 0, 64, 96
1, 45537, Control_c, 0, 64, 98
1, 45552, Control_c, 0, 64, 99
1, 45567, Control_c, 0, 64, 100
1, 45581, Control_c, 0, 64, 101
1, 45596, Control_c, 0, 64, 101
1, 45645, Note_on_c, 0, 70, 62
1, 45654, Note_on_c, 0, 65, 55
1, 45672, Note_on_c, 0, 61, 37
1, 45680, Note_on_c, 0, 55, 41
1, 45686, Control_c, 0, 64, 100
1, 45701, Control_c, 0, 64, 96
1, 45702, Note_off_c, 0, 68, 57
1, 45716, Control_c, 0, 64, 91
1, 45730, Control_c, 0, 64, 83
1, 45745, Control_c, 0, 64, 73
1, 45760, Control_c, 0, 64, 60
1, 45775, Control_c, 0, 64, 0
1, 46321, Note_off_c, 0, 65, 58
1, 46347, Note_on_c, 0, 64, 44
1, 46434, Control_c, 0, 64, 58
1, 46449, Control_c, 0, 64, 67
1, 46464, Control_c, 0, 64, 73
1, 46470, Note_off_c, 0, 64, 62
1, 46473, Note_off_c, 0, 70, 53
1, 46479, Note_off_c, 0, 61, 59
1, 46479, Control_c, 0, 64, 81
1, 46494, Control_c, 0, 64, 86
1, 46504, Note_off_c, 0, 55, 50
1, 46509, Control_c, 0, 64, 89
1, 46523, Control_c, 0, 64, 90
1, 46538, Control_c, 0, 64, 92
1, 46553, Control_c, 0, 64, 93
1, 46568, Control_c, 0, 64, 95
1, 46583, Control_c, 0, 64, 96
1, 46598, Control_c, 0, 64, 97
1, 46613, Control_c, 0, 64, 98
1, 46627, Control_c, 0, 64, 98
1, 46642, Control_c, 0, 64, 99
1, 46725, Note_on_c, 0, 79, 55
1, 46731, Control_c, 0, 64, 97
1, 46746, Control_c, 0, 64, 90
1, 46765, Note_on_c, 0, 73, 36
1, 46766, Note_on_c, 0, 70, 41
1, 46767, Note_on_c, 0, 77, 43
1, 46768, Control_c, 0, 64, 78
1, 46783, Control_c, 0, 64, 62
1, 46798, Control_c, 0, 64, 0
1, 46830, Note_off_c, 0, 77, 0
1, 46842, Control_c, 0, 64, 60
1, 46857, Control_c, 0, 64, 68
1, 46867, Poly_aftertouch_c, 0, 77, 127
1, 46872, Control_c, 0, 64, 74
1, 46887, Control_c, 0, 64, 82
1, 46902, Control_c, 0, 64, 88
1, 46916, Control_c, 0, 64, 93
1, 46931, Control_c, 0, 64, 96
1, 46946, Control_c, 0, 64, 99
1, 46950, Note_off_c, 0, 70, 40
1, 46950, Note_off_c, 0, 73, 44
1, 46953, Poly_aftertouch_c, 0, 77, 0
1, 46960, Control_c, 0, 64, 102
1, 46962, Note_off_c, 0, 79, 33
1, 46975, Control_c, 0, 64, 104
1, 46990, Control_c, 0, 64, 105
1, 47049, Control_c, 0, 64, 103
1, 47063, Note_on_c, 0, 79, 79
1, 47064, Control_c, 0, 64, 95
1, 47069, Note_on_c, 0, 70, 51
1, 47077, Note_on_c, 0, 77, 61
1, 47078, Control_c, 0, 64, 83
1, 47081, Note_on_c, 0, 73, 41
1, 47093, Control_c, 0, 64, 67
1, 47108, Control_c, 0, 64, 0
1, 47152, Control_c, 0, 64, 64
1, 47167, Control_c, 0, 64, 72
1, 47169, Note_off_c, 0, 77, 50
1, 47182, Control_c, 0, 64, 80
1, 47197, Control_c, 0, 64, 86
1, 47212, Control_c, 0, 64, 89
1, 47228, Control_c, 0, 64, 92
1, 47242, Note_off_c, 0, 73, 35
1, 47243, Control_c, 0, 64, 94
1, 47257, Control_c, 0, 64, 98
1, 47272, Control_c, 0, 64, 101
1, 47278, Note_off_c, 0, 70, 39
1, 47287, Control_c, 0, 64, 104
1, 47302, Control_c, 0, 64, 105
1, 47380, Note_on_c, 0, 80, 67
1, 47391, Control_c, 0, 64, 102
1, 47391, Note_on_c, 0, 77, 58
1, 47406, Control_c, 0, 64, 95
1, 47421, Control_c, 0, 64, 79
1, 47424, Note_off_c, 0, 79, 55
1, 47425, Note_on_c, 0, 68, 41
1, 47436, Control_c, 0, 64, 63
1, 47449, Note_on_c, 0, 73, 20
1, 47450, Control_c, 0, 64, 0
1, 47517, Control_c, 0, 64, 63
1, 47531, Control_c, 0, 64, 68
1, 47546, Control_c, 0, 64, 72
1, 47557, Note_off_c, 0, 77, 31
1, 47561, Control_c, 0, 64, 77
1, 47576, Control_c, 0, 64, 81
1, 47591, Control_c, 0, 64, 84
1, 47605, Control_c, 0, 64, 86
1, 47608, Note_off_c, 0, 73, 36
1, 47620, Control_c, 0, 64, 87
1, 47635, Control_c, 0, 64, 89
1, 47647, Note_off_c, 0, 68, 42
1, 47650, Control_c, 0, 64, 90
1, 47665, Control_c, 0, 64, 92
1, 47680, Control_c, 0, 64, 92
1, 47695, Control_c, 0, 64, 93
1, 47709, Control_c, 0, 64, 93
1, 47740, Control_c, 0, 64, 94
1, 47784, Control_c, 0, 64, 93
1, 47824, Note_on_c, 0, 82, 55
1, 47835, Note_on_c, 0, 77, 45
1, 47844, Control_c, 0, 64, 91
1, 47858, Control_c, 0, 64, 87
1, 47861, Note_on_c, 0, 73, 33
1, 47865, Note_on_c, 0, 67, 35
1, 47871, Note_off_c, 0, 80, 60
1, 47873, Control_c, 0, 64, 81
1, 47888, Control_c, 0, 64, 72
1, 47902, Control_c, 0, 64, 52
1, 47917, Control_c, 0, 64, 0
1, 48549, Note_on_c, 0, 76, 37
1, 48609, Note_off_c, 0, 77, 41
1, 48668, Note_off_c, 0, 73, 42
1, 48673, Note_off_c, 0, 82, 59
1, 48694, Note_off_c, 0, 76, 59
1, 48708, Note_off_c, 0, 67, 44
1, 48946, Note_on_c, 0, 85, 57
1, 49289, Note_on_c, 0, 70, 35
1, 49296, Note_on_c, 0, 76, 41
1, 49314, Note_on_c, 0, 66, 36
1, 49460, Note_off_c, 0, 76, 59
1, 49472, Note_off_c, 0, 66, 45
1, 49480, Note_off_c, 0, 85, 35
1, 49492, Note_off_c, 0, 70, 48
1, 49926, Control_c, 0, 64, 65
1, 49928, Note_on_c, 0, 89, 99
1, 49941, Control_c, 0, 64, 76
1, 49956, Control_c, 0, 64, 89
1, 49971, Control_c, 0, 64, 100
1, 49985, Control_c, 0, 64, 107
1, 50000, Control_c, 0, 64, 114
1, 50015, Control_c, 0, 64, 125
1, 50030, Control_c, 0, 64, 127
1, 50217, Note_on_c, 0, 69, 95
1, 50217, Note_on_c, 0, 77, 100
1, 50224, Note_on_c, 0, 65, 84
1, 50238, Note_off_c, 0, 69, 70
1, 50245, Note_off_c, 0, 89, 65
1, 50246, Note_off_c, 0, 65, 72
1, 50254, Note_off_c, 0, 77, 66
1, 50461, Control_c, 0, 64, 119
1, 50475, Control_c, 0, 64, 101
1, 50490, Control_c, 0, 64, 87
1, 50491, Note_on_c, 0, 53, 96
1, 50512, Control_c, 0, 64, 73
1, 50527, Control_c, 0, 64, 47
1, 50530, Note_off_c, 0, 53, 70
1, 50542, Control_c, 0, 64, 0
1, 50798, Note_on_c, 0, 41, 94
1, 50835, Note_off_c, 0, 41, 69
1, 51097, Note_on_c, 0, 29, 91
1, 51132, Note_off_c, 0, 29, 66
1, 51558, Note_on_c, 0, 77, 73
1, 51576, Note_off_c, 0, 77, 67
1, 51746, Note_on_c, 0, 82, 85
1, 51753, Note_on_c, 0, 50, 58
1, 51794, Note_off_c, 0, 50, 64
1, 51820, Note_on_c, 0, 58, 60
1, 51867, Note_off_c, 0, 58, 59
1, 51906, Note_on_c, 0, 53, 50
1, 51945, Note_off_c, 0, 53, 67
1, 51966, Note_on_c, 0, 58, 65
1, 52013, Note_off_c, 0, 58, 61
1, 52056, Note_on_c, 0, 50, 56
1, 52089, Note_off_c, 0, 50, 64
1, 52128, Note_on_c, 0, 58, 52
1, 52154, Note_off_c, 0, 82, 62
1, 52160, Note_off_c, 0, 58, 62
1, 52171, Note_on_c, 0, 81, 73
1, 52196, Note_on_c, 0, 53, 49
1, 52233, Note_off_c, 0, 53, 64
1, 52238, Note_on_c, 0, 82, 78
1, 52238, Note_off_c, 0, 81, 62
1, 52249, Note_on_c, 0, 58, 64
1, 52294, Note_off_c, 0, 58, 58
1, 52310, Note_on_c, 0, 84, 76
1, 52314, Note_off_c, 0, 82, 63
1, 52329, Note_on_c, 0, 50, 55
1, 52361, Note_off_c, 0, 50, 64
1, 52402, Note_on_c, 0, 58, 55
1, 52442, Note_off_c, 0, 58, 65
1, 52461, Note_off_c, 0, 84, 63
1, 52461, Note_on_c, 0, 53, 49
1, 52464, Note_on_c, 0, 82, 72
1, 52486, Note_off_c, 0, 82, 68
1, 52501, Note_off_c, 0, 53, 64
1, 52533, Note_on_c, 0, 58, 64
1, 52587, Note_off_c, 0, 58, 55
1, 52619, Note_on_c, 0, 77, 74
1, 52624, Note_on_c, 0, 50, 58
1, 52667, Note_off_c, 0, 50, 61
1, 52700, Note_on_c, 0, 58, 60
1, 52749, Note_off_c, 0, 58, 63
1, 52779, Note_on_c, 0, 53, 49
1, 52829, Note_off_c, 0, 53, 64
1, 52852, Note_on_c, 0, 58, 58
1, 52900, Note_off_c, 0, 58, 59
1, 52936, Note_on_c, 0, 50, 56
1, 52966, Note_off_c, 0, 50, 60
1, 53010, Note_on_c, 0, 58, 58
1, 53049, Note_off_c, 0, 58, 64
1, 53059, Note_off_c, 0, 77, 61
1, 53071, Note_on_c, 0, 79, 62
1, 53077, Note_on_c, 0, 53, 50
1, 53122, Note_off_c, 0, 53, 64
1, 53134, Note_on_c, 0, 77, 74
1, 53146, Note_on_c, 0, 58, 63
1, 53153, Note_off_c, 0, 79, 61
1, 53189, Note_off_c, 0, 58, 61
1, 53204, Note_on_c, 0, 75, 74
1, 53210, Note_on_c, 0, 50, 59
1, 53227, Note_off_c, 0, 77, 58
1, 53256, Note_off_c, 0, 50, 62
1, 53296, Note_on_c, 0, 58, 60
1, 53337, Note_off_c, 0, 58, 63
1, 53359, Note_on_c, 0, 53, 58
1, 53362, Note_on_c, 0, 74, 65
1, 53376, Note_off_c, 0, 75, 64
1, 53386, Note_off_c, 0, 74, 71
1, 53418, Note_off_c, 0, 53, 64
1, 53438, Note_on_c, 0, 58, 57
1, 53487, Note_off_c, 0, 58, 57
1, 53528, Note_on_c, 0, 51, 57
1, 53528, Note_on_c, 0, 78, 74
1, 53570, Note_off_c, 0, 51, 62
1, 53576, Note_off_c, 0, 78, 60
1, 53597, Note_on_c, 0, 79, 62
1, 53603, Note_on_c, 0, 58, 60
1, 53614, Note_off_c, 0, 79, 64
1, 53643, Note_off_c, 0, 58, 63
1, 53672, Note_on_c, 0, 55, 56
1, 53721, Note_off_c, 0, 55, 61
1, 53740, Note_on_c, 0, 58, 57
1, 53797, Note_off_c, 0, 58, 61
1, 53807, Note_on_c, 0, 78, 76
1, 53814, Note_on_c, 0, 51, 55
1, 53868, Note_off_c, 0, 51, 59
1, 53871, Note_off_c, 0, 78, 63
1, 53876, Note_on_c, 0, 79, 77
1, 53897, Note_on_c, 0, 58, 52
1, 53898, Note_off_c, 0, 79, 67
1, 53936, Note_off_c, 0, 58, 62
1, 53953, Note_on_c, 0, 55, 49
1, 54013, Note_off_c, 0, 55, 60
1, 54018, Note_on_c, 0, 58, 62
1, 54059, Note_off_c, 0, 58, 62
1, 54090, Note_on_c, 0, 51, 52
1, 54092, Note_on_c, 0, 74, 70
1, 54131, Note_off_c, 0, 51, 61
1, 54160, Note_off_c, 0, 74, 64
1, 54163, Note_on_c, 0, 75, 71
1, 54163, Note_on_c, 0, 59, 55
1, 54187, Note_off_c, 0, 75, 70
1, 54211, Note_off_c, 0, 59, 56
1, 54232, Note_on_c, 0, 55, 57
1, 54281, Note_off_c, 0, 55, 64
1, 54309, Note_on_c, 0, 59, 57
1, 54349, Note_off_c, 0, 59, 60
1, 54383, Note_on_c, 0, 51, 57
1, 54390, Note_on_c, 0, 71, 69
1, 54424, Note_off_c, 0, 51, 62
1, 54435, Note_off_c, 0, 71, 61
1, 54450, Note_on_c, 0, 72, 69
1, 54456, Note_on_c, 0, 60, 63
1, 54475, Note_off_c, 0, 72, 69
1, 54523, Note_off_c, 0, 60, 56
1, 54531, Note_on_c, 0, 55, 56
1, 54572, Note_off_c, 0, 55, 65
1, 54599, Note_on_c, 0, 60, 53
1, 54661, Note_off_c, 0, 60, 54
1, 54669, Note_on_c, 0, 51, 58
1, 54706, Note_off_c, 0, 51, 62
1, 54746, Note_on_c, 0, 60, 59
1, 54790, Note_off_c, 0, 60, 61
1, 54809, Note_on_c, 0, 55, 58
1, 54844, Note_off_c, 0, 55, 64
1, 54885, Note_on_c, 0, 60, 60
1, 54933, Note_off_c, 0, 60, 58
1, 54950, Note_on_c, 0, 52, 62
1, 54982, Note_off_c, 0, 52, 66
1, 55032, Note_on_c, 0, 60, 47
1, 55086, Note_off_c, 0, 60, 59
1, 55094, Note_on_c, 0, 84, 69
1, 55103, Note_on_c, 0, 58, 56
1, 55147, Note_off_c, 0, 58, 60
1, 55195, Note_on_c, 0, 60, 54
1, 55268, Note_off_c, 0, 60, 50
1, 55289, Note_on_c, 0, 53, 53
1, 55291, Note_on_c, 0, 87, 84
1, 55324, Note_off_c, 0, 84, 64
1, 55338, Note_off_c, 0, 53, 62
1, 55383, Note_on_c, 0, 60, 48
1, 55427, Note_off_c, 0, 60, 62
1, 55443, Note_on_c, 0, 57, 55
1, 55479, Note_off_c, 0, 57, 63
1, 55531, Note_on_c, 0, 60, 57
1, 55569, Note_off_c, 0, 60, 61
1, 55595, Note_on_c, 0, 53, 57
1, 55636, Note_off_c, 0, 53, 67
1, 55673, Note_on_c, 0, 60, 54
1, 55719, Note_off_c, 0, 60, 57
1, 55746, Note_off_c, 0, 87, 62
1, 55749, Note_on_c, 0, 89, 64
1, 55755, Note_on_c, 0, 57, 52
1, 55790, Note_off_c, 0, 57, 63
1, 55821, Note_on_c, 0, 87, 74
1, 55833, Note_on_c, 0, 60, 59
1, 55842, Note_off_c, 0, 89, 57
1, 55870, Note_off_c, 0, 60, 59
1, 55900, Note_on_c, 0, 53, 56
1, 55901, Note_on_c, 0, 86, 76
1, 55942, Note_off_c, 0, 53, 64
1, 55949, Note_off_c, 0, 87, 53
1, 55988, Note_on_c, 0, 60, 51
1, 56029, Note_off_c, 0, 60, 62
1, 56035, Note_off_c, 0, 86, 62
1, 56050, Note_on_c, 0, 57, 50
1, 56061, Note_on_c, 0, 84, 67
1, 56089, Note_off_c, 0, 57, 62
1, 56118, Note_on_c, 0, 60, 62
1, 56188, Note_off_c, 0, 60, 60
1, 56208, Note_on_c, 0, 53, 48
1, 56214, Note_on_c, 0, 82, 70
1, 56228, Note_off_c, 0, 84, 62
1, 56235, Note_off_c, 0, 53, 60
1, 56300, Note_on_c, 0, 63, 60
1, 56351, Note_off_c, 0, 63, 60
1, 56369, Note_on_c, 0, 81, 76
1, 56381, Note_on_c, 0, 60, 47
1, 56426, Note_off_c, 0, 60, 60
1, 56450, Note_on_c, 0, 63, 54
1, 56498, Note_off_c, 0, 63, 64
1, 56513, Note_on_c, 0, 53, 59
1, 56513, Note_on_c, 0, 79, 78
1, 56552, Note_off_c, 0, 53, 66
1, 56559, Note_off_c, 0, 81, 58
1, 56595, Note_on_c, 0, 63, 62
1, 56601, Note_off_c, 0, 82, 45
1, 56637, Note_off_c, 0, 63, 60
1, 56658, Note_off_c, 0, 79, 62
1, 56658, Note_on_c, 0, 77, 77
1, 56665, Note_on_c, 0, 57, 48
1, 56712, Note_off_c, 0, 57, 58
1, 56739, Note_on_c, 0, 63, 60
1, 56787, Note_off_c, 0, 63, 56
1, 56814, Note_on_c, 0, 54, 57
1, 56816, Note_on_c, 0, 75, 68
1, 56821, Note_off_c, 0, 77, 61
1, 56875, Note_off_c, 0, 54, 55
1, 56914, Note_on_c, 0, 63, 47
1, 56951, Note_off_c, 0, 63, 61
1, 56963, Note_on_c, 0, 72, 68
1, 56970, Note_on_c, 0, 57, 51
1, 56995, Note_off_c, 0, 75, 61
1, 57025, Note_off_c, 0, 57, 58
1, 57037, Note_on_c, 0, 63, 54
1, 57085, Note_off_c, 0, 63, 59
1, 57114, Note_on_c, 0, 70, 68
1, 57118, Note_on_c, 0, 55, 56
1, 57150, Note_off_c, 0, 72, 60
1, 57159, Note_off_c, 0, 55, 63
1, 57219, Note_on_c, 0, 62, 47
1, 57262, Note_off_c, 0, 62, 54
1, 57275, Note_on_c, 0, 58, 54
1, 57282, Note_on_c, 0, 74, 64
1, 57313, Note_off_c, 0, 58, 66
1, 57340, Note_off_c, 0, 70, 45
1, 57359, Note_on_c, 0, 62, 55
1, 57398, Note_off_c, 0, 62, 62
1, 57434, Note_on_c, 0, 51, 58
1, 57442, Note_on_c, 0, 67, 69
1, 57476, Note_off_c, 0, 51, 62
1, 57519, Note_on_c, 0, 60, 62
1, 57581, Note_off_c, 0, 60, 49
1, 57589, Note_on_c, 0, 75, 65
1, 57602, Note_off_c, 0, 74, 59
1, 57631, Note_on_c, 0, 55, 33
1, 57663, Note_off_c, 0, 55, 59
1, 57668, Note_off_c, 0, 67, 51
1, 57692, Note_on_c, 0, 60, 43
1, 57721, Note_off_c, 0, 60, 55
1, 57754, Note_on_c, 0, 69, 65
1, 57757, Note_off_c, 0, 75, 59
1, 57822, Note_on_c, 0, 60, 54
1, 57891, Note_off_c, 0, 60, 61
1, 57894, Note_off_c, 0, 69, 59
1, 57896, Note_on_c, 0, 72, 59
1, 57903, Note_on_c, 0, 57, 59
1, 57940, Note_off_c, 0, 57, 62
1, 57996, Note_on_c, 0, 63, 61
1, 58018, Note_off_c, 0, 63, 66
1, 58101, Note_on_c, 0, 70, 61
1, 58114, Note_off_c, 0, 72, 52
1, 58136, Note_on_c, 0, 58, 52
1, 58146, Note_on_c, 0, 46, 51
1, 58158, Note_off_c, 0, 70, 60
1, 58202, Note_on_c, 0, 62, 56
1, 58243, Note_off_c, 0, 62, 60
1, 58281, Note_on_c, 0, 65, 64
1, 58344, Note_on_c, 0, 63, 60
1, 58344, Note_off_c, 0, 65, 58
1, 58395, Note_off_c, 0, 63, 62
1, 58411, Note_on_c, 0, 62, 64
1, 58416, Note_off_c, 0, 58, 60
1, 58441, Note_off_c, 0, 46, 61
1, 58455, Note_off_c, 0, 62, 62
1, 58464, Note_on_c, 0, 63, 51
1, 58520, Note_on_c, 0, 65, 61
1, 58526, Note_off_c, 0, 63, 64
1, 58548, Note_off_c, 0, 65, 68
1, 58589, Note_on_c, 0, 67, 63
1, 58625, Note_off_c, 0, 67, 62
1, 58644, Note_on_c, 0, 69, 60
1, 58687, Note_off_c, 0, 69, 66
1, 58702, Note_on_c, 0, 70, 56
1, 58775, Note_off_c, 0, 70, 60
1, 58777, Note_on_c, 0, 69, 47
1, 58820, Note_off_c, 0, 69, 65
1, 58841, Note_on_c, 0, 72, 58
1, 58906, Note_on_c, 0, 70, 60
1, 58947, Note_off_c, 0, 72, 61
1, 58969, Note_off_c, 0, 70, 62
1, 58978, Note_on_c, 0, 74, 57
1, 59041, Note_on_c, 0, 72, 64
1, 59064, Note_off_c, 0, 74, 59
1, 59103, Note_on_c, 0, 70, 58
1, 59134, Note_off_c, 0, 72, 61
1, 59148, Note_on_c, 0, 69, 64
1, 59181, Note_off_c, 0, 70, 59
1, 59207, Note_off_c, 0, 69, 62
1, 59229, Note_on_c, 0, 67, 62
1, 59267, Note_off_c, 0, 67, 57
1, 59309, Note_on_c, 0, 65, 62
1, 59379, Note_on_c, 0, 67, 61
1, 59397, Note_off_c, 0, 65, 52
1, 59429, Note_on_c, 0, 63, 61
1, 59438, Note_off_c, 0, 67, 57
1, 59487, Note_off_c, 0, 63, 60
1, 59504, Note_on_c, 0, 62, 65
1, 59553, Note_off_c, 0, 62, 60
1, 59572, Note_on_c, 0, 65, 56
1, 59626, Note_on_c, 0, 63, 62
1, 59654, Note_off_c, 0, 65, 60
1, 59673, Note_off_c, 0, 63, 62
1, 59684, Note_on_c, 0, 62, 67
1, 59744, Note_off_c, 0, 62, 60
1, 59749, Note_on_c, 0, 63, 58
1, 59797, Note_on_c, 0, 65, 62
1, 59818, Note_off_c, 0, 63, 65
1, 59839, Note_off_c, 0, 65, 66
1, 59883, Note_on_c, 0, 67, 71
1, 59933, Note_off_c, 0, 67, 59
1, 59948, Note_on_c, 0, 69, 61
1, 59991, Note_off_c, 0, 69, 65
1, 59992, Note_on_c, 0, 70, 61
1, 60067, Note_off_c, 0, 70, 61
1, 60069, Note_on_c, 0, 69, 52
1, 60109, Note_off_c, 0, 69, 66
1, 60128, Note_on_c, 0, 67, 57
1, 60171, Note_off_c, 0, 67, 55
1, 60194, Note_on_c, 0, 65, 71
1, 60236, Note_off_c, 0, 65, 64
1, 60268, Note_on_c, 0, 67, 62
1, 60302, Note_off_c, 0, 67, 62
1, 60313, Note_on_c, 0, 69, 72
1, 60370, Note_on_c, 0, 70, 67
1, 60376, Note_off_c, 0, 69, 64
1, 60425, Note_off_c, 0, 70, 63
1, 60434, Note_on_c, 0, 72, 66
1, 60480, Note_on_c, 0, 74, 64
1, 60483, Note_off_c, 0, 72, 64
1, 60537, Note_on_c, 0, 72, 68
1, 60558, Note_off_c, 0, 74, 61
1, 60607, Note_on_c, 0, 70, 66
1, 60628, Note_off_c, 0, 72, 63
1, 60654, Note_on_c, 0, 69, 72
1, 60663, Note_off_c, 0, 70, 63
1, 60717, Note_on_c, 0, 70, 68
1, 60724, Note_off_c, 0, 69, 64
1, 60760, Note_off_c, 0, 70, 65
1, 60787, Note_on_c, 0, 72, 79
1, 60850, Note_on_c, 0, 74, 78
1, 60851, Note_off_c, 0, 72, 62
1, 60903, Note_on_c, 0, 75, 73
1, 60939, Note_off_c, 0, 74, 62
1, 61001, Note_on_c, 0, 79, 77
1, 61006, Note_off_c, 0, 75, 64
1, 61089, Note_on_c, 0, 77, 75
1, 61117, Note_off_c, 0, 79, 60
1, 61165, Note_on_c, 0, 75, 71
1, 61198, Note_off_c, 0, 77, 58
1, 61228, Note_on_c, 0, 74, 71
1, 61240, Note_off_c, 0, 75, 60
1, 61308, Note_off_c, 0, 74, 64
1, 61317, Note_on_c, 0, 77, 73
1, 61402, Note_on_c, 0, 75, 66
1, 61415, Note_off_c, 0, 77, 57
1, 61476, Note_off_c, 0, 75, 64
1, 61482, Note_on_c, 0, 74, 67
1, 61543, Note_on_c, 0, 75, 60
1, 61553, Note_off_c, 0, 74, 63
1, 61593, Note_off_c, 0, 75, 64
1, 61612, Note_on_c, 0, 77, 72
1, 61670, Note_off_c, 0, 77, 48
1, 61690, Note_on_c, 0, 79, 79
1, 61758, Note_on_c, 0, 81, 80
1, 61762, Note_off_c, 0, 79, 63
1, 61839, Note_on_c, 0, 50, 42
1, 61845, Note_on_c, 0, 82, 76
1, 61849, Note_off_c, 0, 81, 57
1, 61887, Note_off_c, 0, 50, 62
1, 61921, Note_on_c, 0, 58, 56
1, 61964, Note_off_c, 0, 58, 61
1, 62009, Note_on_c, 0, 53, 42
1, 62049, Note_off_c, 0, 53, 65
1, 62074, Note_on_c, 0, 58, 61
1, 62114, Note_off_c, 0, 58, 63
1, 62146, Note_on_c, 0, 50, 55
1, 62152, Note_off_c, 0, 82, 60
1, 62184, Note_off_c, 0, 50, 63
1, 62225, Note_on_c, 0, 58, 51
1, 62262, Note_off_c, 0, 58, 64
1, 62291, Note_on_c, 0, 53, 48
1, 62298, Note_on_c, 0, 81, 72
1, 62331, Note_off_c, 0, 81, 57
1, 62337, Note_off_c, 0, 53, 63
1, 62358, Note_on_c, 0, 58, 59
1, 62371, Note_on_c, 0, 82, 73
1, 62408, Note_off_c, 0, 82, 60
1, 62412, Note_off_c, 0, 58, 58
1, 62445, Note_on_c, 0, 50, 53
1, 62447, Note_on_c, 0, 81, 80
1, 62496, Note_off_c, 0, 50, 61
1, 62501, Note_off_c, 0, 81, 56
1, 62520, Note_on_c, 0, 82, 75
1, 62530, Note_on_c, 0, 58, 60
1, 62544, Note_off_c, 0, 82, 68
1, 62570, Note_off_c, 0, 58, 63
1, 62596, Note_on_c, 0, 53, 49
1, 62603, Note_on_c, 0, 84, 81
1, 62656, Note_off_c, 0, 53, 62
1, 62676, Note_on_c, 0, 58, 58
1, 62677, Note_on_c, 0, 82, 80
1, 62686, Note_off_c, 0, 84, 62
1, 62710, Note_off_c, 0, 82, 66
1, 62735, Note_off_c, 0, 58, 56
1, 62785, Note_on_c, 0, 77, 78
1, 62788, Note_on_c, 0, 50, 50
1, 62840, Note_off_c, 0, 50, 62
1, 62865, Note_on_c, 0, 58, 57
1, 62907, Note_off_c, 0, 58, 62
1, 62940, Note_on_c, 0, 53, 52
1, 62986, Note_off_c, 0, 53, 65
1, 63012, Note_on_c, 0, 58, 62
1, 63059, Note_off_c, 0, 58, 57
1, 63087, Note_on_c, 0, 50, 62
1, 63130, Note_off_c, 0, 77, 57
1, 63140, Note_off_c, 0, 50, 58
1, 63169, Note_on_c, 0, 58, 58
1, 63208, Note_off_c, 0, 58, 64
1, 63245, Note_on_c, 0, 53, 51
1, 63250, Note_on_c, 0, 76, 60
1, 63291, Note_off_c, 0, 76, 59
1, 63315, Note_on_c, 0, 77, 67
1, 63315, Note_off_c, 0, 53, 57
1, 63317, Note_on_c, 0, 58, 61
1, 63336, Note_off_c, 0, 77, 65
1, 63383, Note_off_c, 0, 58, 59
1, 63405, Note_on_c, 0, 79, 76
1, 63410, Note_on_c, 0, 50, 55
1, 63451, Note_off_c, 0, 79, 49
1, 63476, Note_on_c, 0, 77, 75
1, 63488, Note_off_c, 0, 50, 59
1, 63498, Note_on_c, 0, 58, 61
1, 63501, Note_off_c, 0, 77, 65
1, 63544, Note_off_c, 0, 58, 59
1, 63559, Note_on_c, 0, 75, 78
1, 63581, Note_on_c, 0, 53, 47
1, 63622, Note_on_c, 0, 74, 72
1, 63622, Note_off_c, 0, 75, 63
1, 63644, Note_off_c, 0, 74, 70
1, 63647, Note_off_c, 0, 53, 60
1, 63657, Note_on_c, 0, 58, 57
1, 63726, Note_off_c, 0, 58, 61
1, 63735, Note_on_c, 0, 78, 85
1, 63755, Note_on_c, 0, 51, 50
1, 63780, Note_off_c, 0, 78, 59
1, 63807, Note_off_c, 0, 51, 60
1, 63819, Note_on_c, 0, 79, 70
1, 63834, Note_on_c, 0, 58, 47
1, 63848, Note_off_c, 0, 79, 61
1, 63878, Note_off_c, 0, 58, 62
1, 63900, Note_on_c, 0, 78, 78
1, 63905, Note_on_c, 0, 55, 39
1, 63944, Note_off_c, 0, 78, 61
1, 63981, Note_on_c, 0, 79, 74
1, 63981, Note_off_c, 0, 55, 51
1, 63982, Note_on_c, 0, 58, 60
1, 64025, Note_off_c, 0, 79, 63
1, 64045, Note_off_c, 0, 58, 63
1, 64060, Note_on_c, 0, 78, 82
1, 64069, Note_on_c, 0, 51, 52
1, 64117, Note_off_c, 0, 78, 61
1, 64120, Note_off_c, 0, 51, 59
1, 64139, Note_on_c, 0, 79, 73
1, 64145, Note_on_c, 0, 58, 56
1, 64184, Note_off_c, 0, 58, 64
1, 64191, Note_off_c, 0, 79, 59
1, 64203, Note_on_c, 0, 78, 80
1, 64204, Note_on_c, 0, 55, 51
1, 64269, Note_on_c, 0, 79, 67
1, 64269, Note_off_c, 0, 78, 62
1, 64278, Note_on_c, 0, 58, 59
1, 64293, Note_off_c, 0, 79, 68
1, 64305, Note_off_c, 0, 55, 39
1, 64337, Note_off_c, 0, 58, 58
1, 64353, Note_on_c, 0, 51, 59
1, 64362, Note_on_c, 0, 74, 77
1, 64396, Note_off_c, 0, 51, 61
1, 64413, Note_off_c, 0, 74, 60
1, 64433, Note_on_c, 0, 75, 70
1, 64441, Note_on_c, 0, 59, 60
1, 64496, Note_off_c, 0, 75, 64
1, 64501, Note_off_c, 0, 59, 55
1, 64508, Note_on_c, 0, 74, 75
1, 64522, Note_on_c, 0, 55, 52
1, 64567, Note_off_c, 0, 55, 61
1, 64570, Note_off_c, 0, 74, 64
1, 64570, Note_on_c, 0, 75, 71
1, 64594, Note_on_c, 0, 59, 51
1, 64605, Note_off_c, 0, 75, 65
1, 64635, Note_off_c, 0, 59, 60
1, 64668, Note_on_c, 0, 71, 80
1, 64673, Note_on_c, 0, 51, 61
1, 64708, Note_off_c, 0, 51, 62
1, 64734, Note_off_c, 0, 71, 58
1, 64741, Note_on_c, 0, 72, 73
1, 64757, Note_on_c, 0, 60, 62
1, 64795, Note_off_c, 0, 72, 60
1, 64828, Note_off_c, 0, 60, 59
1, 64832, Note_on_c, 0, 71, 74
1, 64836, Note_on_c, 0, 55, 52
1, 64873, Note_off_c, 0, 71, 55
1, 64880, Note_off_c, 0, 55, 63
1, 64901, Note_on_c, 0, 72, 72
1, 64913, Note_on_c, 0, 60, 53
1, 64928, Note_off_c, 0, 72, 66
1, 64972, Note_off_c, 0, 60, 56
1, 64984, Note_on_c, 0, 51, 61
1, 65022, Note_off_c, 0, 51, 62
1, 65063, Note_on_c, 0, 60, 58
1, 65111, Note_off_c, 0, 60, 57
1, 65129, Note_on_c, 0, 55, 61
1, 65160, Note_off_c, 0, 55, 65
1, 65208, Note_on_c, 0, 60, 59
1, 65252, Note_off_c, 0, 60, 57
1, 65275, Note_on_c, 0, 52, 59
1, 65315, Note_off_c, 0, 52, 62
1, 65363, Note_on_c, 0, 60, 51
1, 65399, Note_off_c, 0, 60, 58
1, 65432, Note_on_c, 0, 58, 49
1, 65432, Note_on_c, 0, 84, 68
1, 65495, Note_off_c, 0, 58, 57
1, 65515, Note_on_c, 0, 60, 51
1, 65615, Note_off_c, 0, 60, 53
1, 65651, Note_on_c, 0, 53, 49
1, 65660, Note_on_c, 0, 87, 75
1, 65707, Note_off_c, 0, 53, 62
1, 65714, Note_off_c, 0, 84, 60
1, 65746, Note_on_c, 0, 60, 51
1, 65794, Note_off_c, 0, 60, 59
1, 65818, Note_on_c, 0, 57, 48
1, 65856, Note_off_c, 0, 57, 63
1, 65904, Note_on_c, 0, 60, 53
1, 65947, Note_off_c, 0, 60, 60
1, 65965, Note_on_c, 0, 53, 61
1, 66004, Note_off_c, 0, 53, 65
1, 66053, Note_on_c, 0, 60, 57
1, 66093, Note_off_c, 0, 60, 61
1, 66114, Note_off_c, 0, 87, 63
1, 66118, Note_on_c, 0, 57, 54
1, 66123, Note_on_c, 0, 86, 67
1, 66156, Note_off_c, 0, 57, 63
1, 66200, Note_on_c, 0, 60, 56
1, 66202, Note_on_c, 0, 87, 70
1, 66203, Note_off_c, 0, 86, 60
1, 66248, Note_off_c, 0, 60, 61
1, 66277, Note_on_c, 0, 53, 54
1, 66284, Note_on_c, 0, 89, 69
1, 66287, Note_off_c, 0, 87, 63
1, 66318, Note_off_c, 0, 53, 64
1, 66352, Note_on_c, 0, 87, 68
1, 66361, Note_on_c, 0, 60, 62
1, 66394, Note_off_c, 0, 89, 61
1, 66404, Note_off_c, 0, 60, 60
1, 66427, Note_on_c, 0, 86, 74
1, 66435, Note_on_c, 0, 57, 46
1, 66465, Note_off_c, 0, 87, 59
1, 66469, Note_off_c, 0, 57, 63
1, 66481, Note_off_c, 0, 86, 63
1, 66492, Note_on_c, 0, 84, 75
1, 66497, Note_on_c, 0, 60, 53
1, 66545, Note_off_c, 0, 60, 62
1, 66554, Note_on_c, 0, 53, 59
1, 66558, Note_off_c, 0, 84, 57
1, 66571, Note_on_c, 0, 82, 77
1, 66594, Note_off_c, 0, 53, 65
1, 66642, Note_on_c, 0, 81, 74
1, 66656, Note_on_c, 0, 63, 60
1, 66689, Note_off_c, 0, 82, 59
1, 66698, Note_off_c, 0, 63, 62
1, 66711, Note_off_c, 0, 81, 61
1, 66712, Note_on_c, 0, 86, 74
1, 66722, Note_on_c, 0, 60, 60
1, 66767, Note_off_c, 0, 60, 57
1, 66785, Note_on_c, 0, 84, 75
1, 66804, Note_on_c, 0, 63, 49
1, 66810, Note_off_c, 0, 86, 60
1, 66829, Note_off_c, 0, 63, 57
1, 66837, Note_on_c, 0, 53, 61
1, 66860, Note_on_c, 0, 82, 76
1, 66897, Note_off_c, 0, 53, 62
1, 66898, Note_off_c, 0, 84, 60
1, 66919, Note_on_c, 0, 63, 62
1, 66925, Note_on_c, 0, 81, 76
1, 66973, Note_off_c, 0, 82, 61
1, 66987, Note_off_c, 0, 63, 63
1, 67000, Note_on_c, 0, 79, 82
1, 67002, Note_off_c, 0, 81, 61
1, 67005, Note_on_c, 0, 57, 48
1, 67047, Note_off_c, 0, 57, 60
1, 67049, Note_off_c, 0, 79, 63
1, 67071, Note_on_c, 0, 63, 60
1, 67078, Note_on_c, 0, 77, 79
1, 67140, Note_off_c, 0, 63, 61
1, 67149, Note_on_c, 0, 54, 55
1, 67154, Note_on_c, 0, 75, 69
1, 67172, Note_off_c, 0, 77, 55
1, 67207, Note_off_c, 0, 54, 56
1, 67228, Note_on_c, 0, 74, 68
1, 67228, Note_off_c, 0, 75, 65
1, 67256, Note_on_c, 0, 63, 41
1, 67284, Note_off_c, 0, 63, 57
1, 67300, Note_on_c, 0, 57, 52
1, 67301, Note_on_c, 0, 75, 65
1, 67307, Note_off_c, 0, 74, 63
1, 67358, Note_off_c, 0, 57, 59
1, 67369, Note_on_c, 0, 72, 66
1, 67370, Note_on_c, 0, 63, 62
1, 67371, Note_off_c, 0, 75, 61
1, 67425, Note_off_c, 0, 63, 57
1, 67467, Note_on_c, 0, 55, 50
1, 67503, Note_off_c, 0, 55, 65
1, 67509, Note_off_c, 0, 72, 62
1, 67514, Note_on_c, 0, 70, 69
1, 67548, Note_on_c, 0, 62, 56
1, 67593, Note_off_c, 0, 62, 57
1, 67604, Note_on_c, 0, 74, 61
1, 67609, Note_on_c, 0, 58, 52
1, 67619, Note_off_c, 0, 70, 54
1, 67643, Note_off_c, 0, 58, 65
1, 67673, Note_on_c, 0, 62, 52
1, 67716, Note_off_c, 0, 62, 61
1, 67762, Note_on_c, 0, 51, 56
1, 67798, Note_off_c, 0, 51, 62
1, 67822, Note_on_c, 0, 67, 72
1, 67842, Note_on_c, 0, 60, 61
1, 67896, Note_off_c, 0, 60, 50
1, 67917, Note_on_c, 0, 55, 57
1, 67920, Note_on_c, 0, 75, 72
1, 67929, Note_off_c, 0, 74, 63
1, 67953, Note_off_c, 0, 67, 52
1, 67961, Note_off_c, 0, 55, 66
1, 68010, Note_on_c, 0, 60, 59
1, 68046, Note_off_c, 0, 60, 63
1, 68060, Note_on_c, 0, 53, 55
1, 68113, Note_off_c, 0, 53, 63
1, 68120, Note_on_c, 0, 69, 69
1, 68123, Note_off_c, 0, 75, 61
1, 68147, Note_on_c, 0, 60, 65
1, 68183, Note_off_c, 0, 60, 62
1, 68193, Note_on_c, 0, 57, 56
1, 68219, Note_on_c, 0, 72, 70
1, 68230, Note_off_c, 0, 69, 60
1, 68233, Note_off_c, 0, 57, 63
1, 68277, Note_on_c, 0, 63, 67
1, 68305, Note_off_c, 0, 63, 67
1, 68391, Note_on_c, 0, 70, 66
1, 68392, Note_on_c, 0, 46, 68
1, 68411, Note_off_c, 0, 72, 62
1, 68430, Note_off_c, 0, 70, 58
1, 68453, Note_on_c, 0, 50, 67
1, 68454, Note_off_c, 0, 46, 55
1, 68537, Note_on_c, 0, 51, 72
1, 68549, Note_off_c, 0, 50, 62
1, 68600, Note_on_c, 0, 53, 79
1, 68600, Note_off_c, 0, 51, 63
1, 68631, Note_off_c, 0, 53, 68
1, 68679, Note_on_c, 0, 55, 68
1, 68742, Note_on_c, 0, 57, 73
1, 68742, Note_off_c, 0, 55, 62
1, 68811, Note_on_c, 0, 58, 77
1, 68821, Note_off_c, 0, 57, 61
1, 68862, Note_off_c, 0, 58, 67
1, 68878, Note_on_c, 0, 60, 77
1, 68956, Note_on_c, 0, 62, 83
1, 68966, Note_off_c, 0, 60, 61
1, 69014, Note_on_c, 0, 63, 82
1, 69043, Note_off_c, 0, 62, 62
1, 69093, Note_on_c, 0, 65, 73
1, 69095, Note_off_c, 0, 63, 67
1, 69154, Note_on_c, 0, 67, 75
1, 69178, Note_off_c, 0, 65, 64
1, 69246, Note_on_c, 0, 65, 82
1, 69275, Note_off_c, 0, 67, 62
1, 69418, Note_on_c, 0, 45, 52
1, 69420, Note_on_c, 0, 53, 50
1, 69421, Note_on_c, 0, 48, 57
1, 69444, Note_off_c, 0, 53, 59
1, 69444, Note_off_c, 0, 45, 62
1, 69444, Note_off_c, 0, 48, 60
1, 69583, Note_on_c, 0, 53, 68
1, 69586, Note_on_c, 0, 45, 64
1, 69590, Note_on_c, 0, 48, 60
1, 69612, Note_off_c, 0, 53, 66
1, 69619, Note_off_c, 0, 48, 66
1, 69620, Note_off_c, 0, 45, 64
1, 69734, Note_on_c, 0, 53, 68
1, 69737, Note_on_c, 0, 45, 57
1, 69746, Note_on_c, 0, 48, 49
1, 69766, Note_off_c, 0, 53, 63
1, 69771, Note_off_c, 0, 48, 59
1, 69775, Note_off_c, 0, 45, 61
1, 69796, Note_off_c, 0, 65, 59
1, 69854, Note_on_c, 0, 63, 72
1, 69866, Note_on_c, 0, 48, 62
1, 69874, Note_on_c, 0, 53, 54
1, 69879, Note_on_c, 0, 45, 47
1, 69888, Note_off_c, 0, 63, 66
1, 69902, Note_on_c, 0, 65, 69
1, 69909, Note_off_c, 0, 45, 60
1, 69912, Note_off_c, 0, 53, 63
1, 69921, Note_off_c, 0, 48, 58
1, 69967, Note_on_c, 0, 63, 72
1, 69972, Note_off_c, 0, 65, 64
1, 69995, Control_c, 0, 64, 13
1, 70001, Note_on_c, 0, 53, 71
1, 70010, Control_c, 0, 64, 43
1, 70013, Note_on_c, 0, 45, 50
1, 70015, Note_on_c, 0, 62, 73
1, 70020, Note_off_c, 0, 63, 65
1, 70024, Control_c, 0, 64, 51
1, 70034, Note_off_c, 0, 53, 66
1, 70039, Control_c, 0, 64, 55
1, 70040, Note_off_c, 0, 45, 57
1, 70054, Control_c, 0, 64, 58
1, 70069, Control_c, 0, 64, 58
1, 70073, Poly_aftertouch_c, 0, 48, 0
1, 70077, Note_on_c, 0, 63, 72
1, 70079, Note_off_c, 0, 62, 59
1, 70084, Control_c, 0, 64, 59
1, 70098, Control_c, 0, 64, 58
1, 70128, Control_c, 0, 64, 57
1, 70143, Control_c, 0, 64, 51
1, 70144, Note_off_c, 0, 63, 64
1, 70150, Note_on_c, 0, 58, 79
1, 70152, Note_on_c, 0, 62, 83
1, 70158, Control_c, 0, 64, 29
1, 70172, Control_c, 0, 64, 0
1, 70174, Note_off_c, 0, 62, 69
1, 70218, Note_off_c, 0, 58, 63
1, 70231, Note_on_c, 0, 62, 76
1, 70299, Note_off_c, 0, 62, 54
1, 70308, Note_on_c, 0, 63, 77
1, 70360, Note_on_c, 0, 65, 85
1, 70368, Note_off_c, 0, 63, 64
1, 70389, Note_off_c, 0, 65, 68
1, 70435, Note_on_c, 0, 67, 79
1, 70499, Note_on_c, 0, 69, 75
1, 70502, Note_off_c, 0, 67, 61
1, 70571, Note_on_c, 0, 70, 78
1, 70577, Note_off_c, 0, 69, 65
1, 70607, Note_off_c, 0, 70, 67
1, 70638, Note_on_c, 0, 72, 76
1, 70716, Note_on_c, 0, 74, 79
1, 70718, Note_off_c, 0, 72, 64
1, 70781, Note_on_c, 0, 75, 84
1, 70803, Note_off_c, 0, 74, 63
1, 70854, Note_on_c, 0, 77, 77
1, 70856, Note_off_c, 0, 75, 68
1, 70923, Note_on_c, 0, 79, 74
1, 70942, Note_off_c, 0, 77, 62
1, 70994, Note_on_c, 0, 77, 79
1, 71028, Note_off_c, 0, 79, 63
1, 71159, Note_on_c, 0, 65, 65
1, 71161, Note_on_c, 0, 60, 62
1, 71163, Note_on_c, 0, 57, 55
1, 71184, Note_off_c, 0, 65, 67
1, 71189, Note_off_c, 0, 57, 63
1, 71193, Note_off_c, 0, 60, 65
1, 71326, Note_on_c, 0, 57, 62
1, 71330, Note_on_c, 0, 60, 60
1, 71330, Note_on_c, 0, 65, 64
1, 71359, Note_off_c, 0, 65, 67
1, 71361, Note_off_c, 0, 60, 63
1, 71365, Note_off_c, 0, 57, 61
1, 71479, Note_on_c, 0, 65, 60
1, 71486, Note_on_c, 0, 60, 53
1, 71488, Note_on_c, 0, 57, 51
1, 71499, Note_off_c, 0, 77, 55
1, 71512, Note_off_c, 0, 65, 65
1, 71515, Note_off_c, 0, 57, 59
1, 71518, Note_off_c, 0, 60, 63
1, 71615, Note_on_c, 0, 57, 48
1, 71617, Note_on_c, 0, 60, 54
1, 71618, Note_on_c, 0, 65, 64
1, 71624, Note_on_c, 0, 75, 71
1, 71649, Note_off_c, 0, 65, 65
1, 71650, Note_off_c, 0, 75, 68
1, 71653, Note_off_c, 0, 60, 63
1, 71658, Note_off_c, 0, 57, 61
1, 71663, Note_on_c, 0, 77, 60
1, 71730, Note_on_c, 0, 75, 72
1, 71731, Note_off_c, 0, 77, 55
1, 71751, Note_on_c, 0, 60, 63
1, 71757, Note_on_c, 0, 57, 50
1, 71758, Note_off_c, 0, 75, 67
1, 71761, Note_on_c, 0, 65, 47
1, 71774, Note_on_c, 0, 74, 57
1, 71781, Note_off_c, 0, 60, 66
1, 71781, Note_off_c, 0, 57, 61
1, 71785, Note_off_c, 0, 65, 57
1, 71821, Note_off_c, 0, 74, 63
1, 71838, Note_on_c, 0, 75, 58
1, 71900, Note_off_c, 0, 75, 64
1, 71907, Note_on_c, 0, 74, 58
1, 72050, Note_off_c, 0, 74, 59
1, 72062, Note_on_c, 0, 62, 63
1, 72063, Note_on_c, 0, 58, 58
1, 72088, Note_off_c, 0, 62, 65
1, 72098, Note_off_c, 0, 58, 66
1, 72192, Note_on_c, 0, 72, 60
1, 72225, Note_off_c, 0, 72, 60
1, 72249, Note_on_c, 0, 74, 62
1, 72290, Note_off_c, 0, 74, 61
1, 72314, Note_on_c, 0, 72, 54
1, 72325, Note_on_c, 0, 54, 60
1, 72332, Note_on_c, 0, 62, 48
1, 72332, Note_off_c, 0, 72, 62
1, 72338, Note_on_c, 0, 71, 61
1, 72352, Note_on_c, 0, 57, 33
1, 72357, Note_off_c, 0, 62, 56
1, 72362, Note_off_c, 0, 54, 61
1, 72371, Note_off_c, 0, 71, 61
1, 72386, Note_off_c, 0, 57, 32
1, 72402, Note_on_c, 0, 72, 80
1, 72465, Note_off_c, 0, 72, 60
1, 72483, Note_on_c, 0, 70, 80
1, 72627, Note_on_c, 0, 62, 70
1, 72633, Note_on_c, 0, 58, 69
1, 72635, Note_on_c, 0, 55, 58
1, 72653, Note_off_c, 0, 62, 65
1, 72657, Note_off_c, 0, 55, 63
1, 72663, Note_off_c, 0, 58, 67
1, 72666, Note_off_c, 0, 70, 59
1, 72772, Note_on_c, 0, 68, 79
1, 72811, Note_off_c, 0, 68, 64
1, 72827, Note_on_c, 0, 70, 64
1, 72881, Note_on_c, 0, 68, 78
1, 72895, Note_off_c, 0, 70, 63
1, 72901, Note_on_c, 0, 50, 62
1, 72903, Note_on_c, 0, 58, 72
1, 72920, Note_on_c, 0, 53, 52
1, 72920, Note_on_c, 0, 67, 64
1, 72925, Note_off_c, 0, 68, 63
1, 72925, Note_off_c, 0, 50, 64
1, 72929, Note_off_c, 0, 58, 69
1, 72946, Note_off_c, 0, 53, 53
1, 72988, Note_on_c, 0, 68, 77
1, 72993, Note_off_c, 0, 67, 63
1, 73045, Note_on_c, 0, 67, 79
1, 73063, Note_off_c, 0, 68, 63
1, 73197, Note_on_c, 0, 55, 70
1, 73197, Note_on_c, 0, 58, 74
1, 73200, Note_on_c, 0, 51, 70
1, 73219, Note_off_c, 0, 67, 58
1, 73223, Note_off_c, 0, 58, 68
1, 73224, Note_off_c, 0, 55, 66
1, 73240, Note_off_c, 0, 51, 65
1, 73331, Note_on_c, 0, 65, 79
1, 73357, Note_off_c, 0, 65, 67
1, 73361, Note_on_c, 0, 67, 67
1, 73431, Note_on_c, 0, 65, 80
1, 73439, Note_off_c, 0, 67, 62
1, 73465, Note_on_c, 0, 55, 67
1, 73471, Note_on_c, 0, 50, 71
1, 73472, Note_on_c, 0, 47, 65
1, 73480, Note_on_c, 0, 64, 75
1, 73480, Note_off_c, 0, 65, 66
1, 73490, Note_off_c, 0, 55, 67
1, 73497, Note_off_c, 0, 47, 67
1, 73498, Note_off_c, 0, 50, 65
1, 73540, Note_on_c, 0, 65, 71
1, 73546, Note_off_c, 0, 64, 62
1, 73607, Note_off_c, 0, 65, 65
1, 73614, Note_on_c, 0, 64, 86
1, 73780, Note_on_c, 0, 55, 70
1, 73785, Note_on_c, 0, 52, 68
1, 73790, Note_on_c, 0, 48, 67
1, 73805, Note_off_c, 0, 55, 68
1, 73811, Note_off_c, 0, 52, 69
1, 73817, Note_off_c, 0, 48, 67
1, 73831, Note_off_c, 0, 64, 61
1, 73912, Note_on_c, 0, 63, 88
1, 73962, Note_off_c, 0, 63, 64
1, 73974, Note_on_c, 0, 65, 64
1, 74036, Note_off_c, 0, 65, 66
1, 74039, Note_on_c, 0, 63, 65
1, 74057, Note_on_c, 0, 45, 54
1, 74060, Note_on_c, 0, 53, 55
1, 74061, Note_on_c, 0, 48, 57
1, 74076, Note_off_c, 0, 63, 65
1, 74082, Note_off_c, 0, 45, 60
1, 74082, Note_off_c, 0, 53, 60
1, 74085, Note_off_c, 0, 48, 59
1, 74088, Note_on_c, 0, 62, 64
1, 74130, Note_off_c, 0, 62, 57
1, 74138, Note_on_c, 0, 63, 67
1, 74199, Note_off_c, 0, 63, 64
1, 74207, Note_on_c, 0, 62, 65
1, 74350, Note_on_c, 0, 46, 67
1, 74350, Note_on_c, 0, 53, 61
1, 74361, Note_on_c, 0, 50, 47
1, 74371, Note_off_c, 0, 53, 66
1, 74384, Note_off_c, 0, 46, 63
1, 74389, Note_off_c, 0, 50, 48
1, 74404, Note_off_c, 0, 62, 54
1, 74497, Note_on_c, 0, 63, 86
1, 74544, Note_off_c, 0, 63, 64
1, 74553, Note_on_c, 0, 65, 56
1, 74619, Note_off_c, 0, 65, 65
1, 74620, Note_on_c, 0, 63, 69
1, 74633, Note_on_c, 0, 45, 57
1, 74637, Note_on_c, 0, 53, 55
1, 74639, Note_on_c, 0, 48, 57
1, 74653, Note_off_c, 0, 63, 67
1, 74658, Note_off_c, 0, 45, 62
1, 74660, Note_off_c, 0, 53, 60
1, 74664, Note_off_c, 0, 48, 59
1, 74667, Note_on_c, 0, 62, 63
1, 74707, Note_off_c, 0, 62, 57
1, 74724, Note_on_c, 0, 63, 56
1, 74785, Note_off_c, 0, 63, 64
1, 74797, Note_on_c, 0, 62, 62
1, 74919, Note_on_c, 0, 46, 57
1, 74923, Note_on_c, 0, 53, 49
1, 74930, Note_on_c, 0, 50, 44
1, 74946, Note_off_c, 0, 62, 49
1, 74949, Note_off_c, 0, 53, 55
1, 74955, Note_off_c, 0, 46, 63
1, 74958, Note_off_c, 0, 50, 47
1, 75072, Note_on_c, 0, 63, 60
1, 75101, Note_off_c, 0, 63, 66
1, 75128, Note_on_c, 0, 65, 46
1, 75176, Note_on_c, 0, 63, 67
1, 75186, Note_off_c, 0, 65, 59
1, 75200, Note_on_c, 0, 53, 49
1, 75212, Note_on_c, 0, 45, 44
1, 75214, Note_on_c, 0, 48, 49
1, 75229, Note_off_c, 0, 63, 62
1, 75232, Note_off_c, 0, 53, 56
1, 75238, Note_off_c, 0, 48, 57
1, 75241, Note_off_c, 0, 45, 52
1, 75270, Note_on_c, 0, 62, 59
1, 75304, Note_off_c, 0, 62, 61
1, 75310, Note_on_c, 0, 63, 49
1, 75358, Note_off_c, 0, 63, 64
1, 75367, Note_on_c, 0, 53, 52
1, 75368, Note_on_c, 0, 46, 71
1, 75379, Note_on_c, 0, 50, 47
1, 75386, Note_on_c, 0, 62, 61
1, 75390, Note_off_c, 0, 53, 56
1, 75393, Note_off_c, 0, 46, 65
1, 75408, Note_off_c, 0, 50, 35
1, 75417, Note_off_c, 0, 62, 63
1, 75464, Note_on_c, 0, 58, 67
1, 75519, Note_off_c, 0, 58, 62
1, 75557, Note_on_c, 0, 53, 63
1, 75589, Note_off_c, 0, 53, 62
1, 75624, Note_on_c, 0, 58, 61
1, 75674, Note_off_c, 0, 58, 61
1, 75697, Note_on_c, 0, 62, 58
1, 75781, Note_on_c, 0, 58, 59
1, 75815, Note_off_c, 0, 62, 55
1, 75825, Note_off_c, 0, 58, 64
1, 75835, Note_on_c, 0, 65, 57
1, 75867, Note_off_c, 0, 65, 66
1, 75909, Note_on_c, 0, 62, 65
1, 75950, Note_off_c, 0, 62, 58
1, 75996, Note_on_c, 0, 70, 66
1, 76067, Note_on_c, 0, 65, 66
1, 76078, Note_off_c, 0, 70, 56
1, 76102, Note_off_c, 0, 65, 61
1, 76139, Note_on_c, 0, 74, 62
1, 76206, Note_on_c, 0, 70, 67
1, 76209, Note_off_c, 0, 74, 62
1, 76282, Note_on_c, 0, 65, 67
1, 76312, Note_off_c, 0, 70, 60
1, 76348, Note_off_c, 0, 65, 56
1, 76352, Note_on_c, 0, 62, 69
1, 76386, Note_off_c, 0, 62, 60
1, 76434, Note_on_c, 0, 70, 67
1, 76473, Note_off_c, 0, 70, 59
1, 76496, Note_on_c, 0, 65, 67
1, 76538, Note_off_c, 0, 65, 63
1, 76582, Note_on_c, 0, 74, 66
1, 76647, Note_on_c, 0, 70, 67
1, 76658, Note_off_c, 0, 74, 56
1, 76712, Note_off_c, 0, 70, 59
1, 76732, Note_on_c, 0, 77, 63
1, 76776, Note_off_c, 0, 77, 55
1, 76792, Note_on_c, 0, 74, 61
1, 76855, Note_on_c, 0, 70, 70
1, 76886, Note_off_c, 0, 74, 64
1, 76926, Note_off_c, 0, 70, 60
1, 76927, Note_on_c, 0, 65, 62
1, 76959, Note_off_c, 0, 65, 65
1, 77004, Note_on_c, 0, 74, 60
1, 77057, Note_on_c, 0, 70, 67
1, 77118, Note_off_c, 0, 74, 59
1, 77125, Note_off_c, 0, 70, 63
1, 77130, Note_on_c, 0, 77, 58
1, 77159, Note_off_c, 0, 77, 65
1, 77195, Note_on_c, 0, 74, 65
1, 77273, Note_on_c, 0, 82, 68
1, 77291, Note_off_c, 0, 74, 58
1, 77345, Note_on_c, 0, 77, 66
1, 77348, Note_off_c, 0, 82, 56
1, 77406, Note_on_c, 0, 74, 69
1, 77441, Note_off_c, 0, 77, 60
1, 77477, Note_on_c, 0, 70, 77
1, 77483, Note_off_c, 0, 74, 63
1, 77529, Note_off_c, 0, 70, 57
1, 77555, Note_on_c, 0, 77, 70
1, 77611, Note_on_c, 0, 74, 70
1, 77667, Note_off_c, 0, 77, 56
1, 77673, Note_off_c, 0, 74, 65
1, 77686, Note_on_c, 0, 82, 66
1, 77726, Note_off_c, 0, 82, 65
1, 77772, Note_on_c, 0, 77, 68
1, 77796, Note_off_c, 0, 77, 60
1, 77833, Note_on_c, 0, 86, 74
1, 77903, Note_on_c, 0, 82, 74
1, 77931, Note_off_c, 0, 86, 59
1, 77948, Note_off_c, 0, 82, 64
1, 77966, Note_on_c, 0, 89, 83
1, 77985, Note_off_c, 0, 89, 71
1, 78138, Note_on_c, 0, 77, 65
1, 78140, Note_on_c, 0, 65, 56
1, 78161, Note_off_c, 0, 77, 64
1, 78169, Note_off_c, 0, 65, 67
1, 78295, Note_on_c, 0, 82, 76
1, 78296, Note_on_c, 0, 70, 66
1, 78317, Note_off_c, 0, 82, 69
1, 78324, Note_off_c, 0, 70, 67
1, 78440, Note_on_c, 0, 74, 66
1, 78446, Note_on_c, 0, 86, 72
1, 78462, Note_off_c, 0, 74, 76
1, 78469, Note_off_c, 0, 86, 68
1, 78592, Note_on_c, 0, 77, 80
1, 78602, Note_on_c, 0, 89, 73
1, 78611, Note_off_c, 0, 77, 70
1, 78625, Note_off_c, 0, 89, 71
1, 78755, Note_on_c, 0, 65, 78
1, 78782, Note_off_c, 0, 65, 65
1, 78896, Note_on_c, 0, 70, 88
1, 78925, Note_off_c, 0, 70, 61
1, 79060, Note_on_c, 0, 74, 73
1, 79085, Note_off_c, 0, 74, 66
1, 79224, Note_on_c, 0, 77, 56
1, 79245, Note_off_c, 0, 77, 39
1, 79363, Note_on_c, 0, 41, 71
1, 79365, Note_on_c, 0, 53, 75
1, 79394, Note_off_c, 0, 53, 68
1, 79405, Note_off_c, 0, 41, 65
1, 79510, Note_on_c, 0, 46, 82
1, 79517, Note_on_c, 0, 58, 82
1, 79547, Note_off_c, 0, 58, 66
1, 79563, Note_off_c, 0, 46, 60
1, 79664, Note_on_c, 0, 50, 86
1, 79666, Note_on_c, 0, 62, 86
1, 79688, Note_off_c, 0, 50, 69
1, 79692, Note_off_c, 0, 62, 66
1, 79822, Note_on_c, 0, 65, 79
1, 79825, Note_on_c, 0, 53, 82
1, 79852, Note_off_c, 0, 53, 69
1, 79866, Note_off_c, 0, 65, 65
1, 79984, Note_on_c, 0, 70, 75
1, 80010, Note_off_c, 0, 70, 67
1, 80143, Note_on_c, 0, 74, 71
1, 80166, Note_off_c, 0, 74, 68
1, 80291, Note_on_c, 0, 77, 72
1, 80318, Note_off_c, 0, 77, 61
1, 80458, Note_on_c, 0, 75, 66
1, 80484, Note_off_c, 0, 75, 68
1, 80603, Note_on_c, 0, 74, 71
1, 80625, Note_off_c, 0, 74, 71
1, 80751, Note_on_c, 0, 72, 71
1, 80840, Note_off_c, 0, 72, 58
1, 80854, Note_on_c, 0, 74, 48
1, 80896, Note_off_c, 0, 74, 64
1, 80911, Note_on_c, 0, 53, 64
1, 80911, Note_on_c, 0, 72, 57
1, 80938, Note_off_c, 0, 53, 68
1, 80959, Note_off_c, 0, 72, 63
1, 80975, Note_on_c, 0, 74, 47
1, 81006, Note_off_c, 0, 74, 56
1, 81028, Note_on_c, 0, 72, 61
1, 81062, Note_on_c, 0, 57, 71
1, 81064, Note_off_c, 0, 72, 63
1, 81088, Note_off_c, 0, 57, 66
1, 81089, Note_on_c, 0, 74, 49
1, 81117, Note_off_c, 0, 74, 55
1, 81153, Note_on_c, 0, 72, 64
1, 81187, Note_off_c, 0, 72, 61
1, 81210, Note_on_c, 0, 74, 58
1, 81212, Note_on_c, 0, 60, 73
1, 81238, Note_off_c, 0, 60, 68
1, 81257, Note_off_c, 0, 74, 61
1, 81281, Note_on_c, 0, 72, 64
1, 81328, Note_off_c, 0, 72, 62
1, 81346, Note_on_c, 0, 74, 52
1, 81367, Note_on_c, 0, 63, 74
1, 81387, Note_off_c, 0, 74, 58
1, 81392, Note_off_c, 0, 63, 68
1, 81406, Note_on_c, 0, 72, 66
1, 81459, Note_off_c, 0, 72, 63
1, 81483, Note_on_c, 0, 74, 48
1, 81513, Note_off_c, 0, 74, 56
1, 81534, Note_on_c, 0, 41, 73
1, 81537, Note_on_c, 0, 72, 64
1, 81561, Note_off_c, 0, 41, 68
1, 81582, Note_off_c, 0, 72, 64
1, 81609, Note_on_c, 0, 74, 50
1, 81641, Note_off_c, 0, 74, 57
1, 81669, Note_on_c, 0, 72, 68
1, 81680, Note_on_c, 0, 45, 83
1, 81706, Note_off_c, 0, 45, 68
1, 81711, Note_off_c, 0, 72, 63
1, 81731, Note_on_c, 0, 74, 57
1, 81764, Note_off_c, 0, 74, 57
1, 81789, Note_on_c, 0, 72, 66
1, 81834, Note_on_c, 0, 48, 80
1, 81836, Note_off_c, 0, 72, 63
1, 81851, Note_on_c, 0, 74, 58
1, 81857, Note_off_c, 0, 48, 69
1, 81891, Note_off_c, 0, 74, 60
1, 81908, Note_on_c, 0, 72, 60
1, 81966, Note_off_c, 0, 72, 62
1, 81977, Note_on_c, 0, 74, 51
1, 81996, Note_on_c, 0, 51, 70
1, 82020, Note_off_c, 0, 74, 62
1, 82026, Note_off_c, 0, 51, 64
1, 82038, Note_on_c, 0, 72, 58
1, 82088, Note_off_c, 0, 72, 62
1, 82101, Note_on_c, 0, 74, 48
1, 82142, Note_off_c, 0, 74, 58
1, 82144, Note_on_c, 0, 42, 61
1, 82163, Note_on_c, 0, 72, 59
1, 82181, Note_off_c, 0, 42, 62
1, 82204, Note_off_c, 0, 72, 60
1, 82229, Note_on_c, 0, 74, 44
1, 82259, Note_off_c, 0, 74, 56
1, 82286, Note_on_c, 0, 72, 61
1, 82293, Note_on_c, 0, 45, 59
1, 82326, Note_off_c, 0, 72, 58
1, 82328, Note_off_c, 0, 45, 62
1, 82357, Note_on_c, 0, 74, 45
1, 82387, Note_off_c, 0, 74, 59
1, 82412, Note_on_c, 0, 72, 59
1, 82448, Note_off_c, 0, 72, 61
1, 82449, Note_on_c, 0, 48, 50
1, 82473, Note_on_c, 0, 74, 46
1, 82475, Note_off_c, 0, 48, 60
1, 82501, Note_off_c, 0, 74, 56
1, 82533, Note_on_c, 0, 72, 64
1, 82566, Note_off_c, 0, 72, 62
1, 82595, Note_on_c, 0, 74, 42
1, 82598, Note_on_c, 0, 51, 57
1, 82619, Note_off_c, 0, 74, 58
1, 82630, Note_off_c, 0, 51, 64
1, 82646, Note_on_c, 0, 72, 63
1, 82681, Note_off_c, 0, 72, 63
1, 82710, Note_on_c, 0, 74, 54
1, 82745, Note_off_c, 0, 74, 56
1, 82747, Note_on_c, 0, 41, 59
1, 82774, Note_on_c, 0, 72, 65
1, 82777, Note_off_c, 0, 41, 65
1, 82807, Note_off_c, 0, 72, 61
1, 82832, Note_on_c, 0, 74, 50
1, 82861, Note_off_c, 0, 74, 57
1, 82887, Note_on_c, 0, 72, 63
1, 82895, Note_on_c, 0, 45, 64
1, 82923, Note_off_c, 0, 45, 66
1, 82924, Note_off_c, 0, 72, 58
1, 82942, Note_on_c, 0, 74, 54
1, 82968, Note_off_c, 0, 74, 57
1, 82993, Note_on_c, 0, 72, 62
1, 83039, Note_off_c, 0, 72, 64
1, 83044, Note_on_c, 0, 48, 74
1, 83048, Note_on_c, 0, 74, 63
1, 83069, Note_off_c, 0, 48, 67
1, 83072, Note_off_c, 0, 74, 60
1, 83102, Note_on_c, 0, 72, 59
1, 83150, Note_on_c, 0, 74, 64
1, 83152, Note_off_c, 0, 72, 65
1, 83189, Note_on_c, 0, 51, 64
1, 83189, Note_off_c, 0, 74, 60
1, 83215, Note_off_c, 0, 51, 65
1, 83215, Note_on_c, 0, 72, 61
1, 83256, Note_off_c, 0, 72, 64
1, 83263, Note_on_c, 0, 74, 59
1, 83297, Note_off_c, 0, 74, 62
1, 83326, Note_on_c, 0, 72, 68
1, 83338, Note_on_c, 0, 53, 64
1, 83367, Note_off_c, 0, 72, 66
1, 83370, Note_off_c, 0, 53, 66
1, 83380, Note_on_c, 0, 74, 54
1, 83402, Note_off_c, 0, 74, 58
1, 83436, Note_on_c, 0, 72, 69
1, 83484, Note_off_c, 0, 72, 65
1, 83487, Note_on_c, 0, 74, 63
1, 83493, Note_on_c, 0, 57, 61
1, 83522, Note_off_c, 0, 57, 64
1, 83527, Note_off_c, 0, 74, 62
1, 83556, Note_on_c, 0, 72, 65
1, 83588, Note_off_c, 0, 72, 65
1, 83603, Note_on_c, 0, 74, 57
1, 83639, Note_on_c, 0, 60, 55
1, 83639, Note_off_c, 0, 74, 59
1, 83660, Note_off_c, 0, 60, 62
1, 83664, Note_on_c, 0, 72, 69
1, 83691, Note_off_c, 0, 72, 69
1, 83703, Note_on_c, 0, 74, 48
1, 83728, Note_off_c, 0, 74, 57
1, 83764, Note_on_c, 0, 72, 73
1, 83782, Note_on_c, 0, 63, 59
1, 83787, Note_off_c, 0, 72, 70
1, 83803, Note_off_c, 0, 63, 65
1, 83806, Note_on_c, 0, 74, 63
1, 83861, Note_on_c, 0, 72, 69
1, 83865, Note_off_c, 0, 74, 63
1, 83912, Note_off_c, 0, 72, 64
1, 83925, Note_on_c, 0, 71, 64
1, 83931, Note_on_c, 0, 53, 45
1, 83958, Note_off_c, 0, 53, 60
1, 83975, Note_off_c, 0, 71, 57
1, 83987, Note_on_c, 0, 72, 67
1, 84060, Note_off_c, 0, 72, 63
1, 84075, Note_on_c, 0, 77, 71
1, 84083, Note_on_c, 0, 63, 51
1, 84098, Note_off_c, 0, 77, 68
1, 84107, Note_off_c, 0, 63, 64
1, 84285, Note_on_c, 0, 53, 40
1, 84288, Note_on_c, 0, 77, 62
1, 84312, Note_off_c, 0, 77, 63
1, 84315, Note_off_c, 0, 53, 58
1, 84522, Note_on_c, 0, 70, 54
1, 84537, Note_on_c, 0, 58, 34
1, 84548, Note_on_c, 0, 62, 29
1, 84592, Control_c, 0, 64, 49
1, 84607, Control_c, 0, 64, 61
1, 84619, Note_off_c, 0, 70, 56
1, 84622, Control_c, 0, 64, 64
1, 84637, Control_c, 0, 64, 66
1, 84652, Control_c, 0, 64, 68
1, 84666, Control_c, 0, 64, 71
1, 84681, Control_c, 0, 64, 74
1, 84696, Control_c, 0, 64, 77
1, 84711, Control_c, 0, 64, 78
1, 84726, Control_c, 0, 64, 79
1, 84741, Control_c, 0, 64, 81
1, 84745, Note_on_c, 0, 70, 60
1, 84755, Control_c, 0, 64, 81
1, 84771, Control_c, 0, 64, 82
1, 84798, Note_off_c, 0, 62, 40
1, 84843, Note_off_c, 0, 58, 36
1, 84875, Control_c, 0, 64, 82
1, 84889, Control_c, 0, 64, 80
1, 84904, Control_c, 0, 64, 77
1, 84911, Note_on_c, 0, 71, 65
1, 84914, Note_off_c, 0, 70, 56
1, 84919, Control_c, 0, 64, 71
1, 84934, Control_c, 0, 64, 61
1, 84956, Control_c, 0, 64, 0
1, 85084, Note_on_c, 0, 72, 70
1, 85129, Note_off_c, 0, 71, 53
1, 85251, Note_on_c, 0, 73, 69
1, 85293, Note_off_c, 0, 72, 61
1, 85441, Note_on_c, 0, 74, 63
1, 85476, Note_off_c, 0, 73, 58
1, 85734, Note_on_c, 0, 75, 62
1, 85752, Note_on_c, 0, 55, 34
1, 85760, Note_off_c, 0, 74, 62
1, 85761, Note_on_c, 0, 58, 35
1, 86089, Control_c, 0, 64, 34
1, 86104, Control_c, 0, 64, 55
1, 86119, Control_c, 0, 64, 60
1, 86134, Control_c, 0, 64, 63
1, 86149, Control_c, 0, 64, 65
1, 86163, Control_c, 0, 64, 69
1, 86178, Control_c, 0, 64, 74
1, 86193, Control_c, 0, 64, 78
1, 86208, Control_c, 0, 64, 80
1, 86223, Control_c, 0, 64, 81
1, 86237, Control_c, 0, 64, 83
1, 86252, Control_c, 0, 64, 85
1, 86267, Control_c, 0, 64, 86
1, 86282, Control_c, 0, 64, 88
1, 86297, Control_c, 0, 64, 89
1, 86311, Control_c, 0, 64, 91
1, 86326, Control_c, 0, 64, 92
1, 86341, Control_c, 0, 64, 93
1, 86355, Note_off_c, 0, 55, 41
1, 86356, Control_c, 0, 64, 93
1, 86372, Control_c, 0, 64, 94
1, 86386, Control_c, 0, 64, 94
1, 86400, Note_off_c, 0, 75, 35
1, 86401, Control_c, 0, 64, 95
1, 86424, Note_off_c, 0, 58, 35
1, 86431, Control_c, 0, 64, 95
1, 86468, Control_c, 0, 64, 96
1, 86813, Note_on_c, 0, 67, 50
1, 86837, Note_on_c, 0, 63, 32
1, 86840, Note_on_c, 0, 51, 33
1, 86854, Control_c, 0, 64, 95
1, 86855, Note_on_c, 0, 60, 33
1, 86868, Control_c, 0, 64, 93
1, 86883, Control_c, 0, 64, 89
1, 86898, Control_c, 0, 64, 83
1, 86913, Control_c, 0, 64, 75
1, 86928, Control_c, 0, 64, 61
1, 86942, Control_c, 0, 64, 0
1, 87046, Control_c, 0, 64, 55
1, 87061, Control_c, 0, 64, 65
1, 87076, Control_c, 0, 64, 68
1, 87091, Control_c, 0, 64, 72
1, 87105, Control_c, 0, 64, 77
1, 87120, Control_c, 0, 64, 83
1, 87135, Control_c, 0, 64, 85
1, 87150, Control_c, 0, 64, 87
1, 87165, Control_c, 0, 64, 90
1, 87180, Control_c, 0, 64, 93
1, 87203, Control_c, 0, 64, 96
1, 87217, Control_c, 0, 64, 98
1, 87232, Control_c, 0, 64, 100
1, 87247, Control_c, 0, 64, 101
1, 87262, Control_c, 0, 64, 102
1, 87277, Control_c, 0, 64, 103
1, 87291, Control_c, 0, 64, 104
1, 87306, Control_c, 0, 64, 105
1, 87307, Note_off_c, 0, 63, 42
1, 87310, Note_off_c, 0, 67, 62
1, 87321, Control_c, 0, 64, 106
1, 87365, Control_c, 0, 64, 107
1, 87389, Note_off_c, 0, 60, 36
1, 87395, Control_c, 0, 64, 107
1, 87401, Note_off_c, 0, 51, 40
1, 87736, Control_c, 0, 64, 107
1, 87765, Control_c, 0, 64, 106
1, 87780, Control_c, 0, 64, 102
1, 87794, Note_on_c, 0, 70, 54
1, 87795, Control_c, 0, 64, 96
1, 87810, Control_c, 0, 64, 86
1, 87815, Note_on_c, 0, 53, 42
1, 87816, Note_on_c, 0, 63, 38
1, 87817, Note_on_c, 0, 60, 35
1, 87824, Control_c, 0, 64, 75
1, 87839, Control_c, 0, 64, 61
1, 87854, Control_c, 0, 64, 0
1, 87879, Note_off_c, 0, 70, 57
1, 87965, Note_on_c, 0, 69, 55
1, 87976, Note_on_c, 0, 70, 28
1, 88004, Note_off_c, 0, 53, 61
1, 88007, Note_off_c, 0, 60, 44
1, 88008, Note_off_c, 0, 69, 62
1, 88020, Note_off_c, 0, 70, 47
1, 88031, Note_off_c, 0, 63, 17
1, 88115, Note_on_c, 0, 70, 62
1, 88128, Note_on_c, 0, 69, 63
1, 88140, Note_on_c, 0, 60, 38
1, 88144, Note_on_c, 0, 53, 46
1, 88177, Note_off_c, 0, 70, 58
1, 88236, Poly_aftertouch_c, 0, 63, 0
1, 88269, Note_on_c, 0, 67, 55
1, 88287, Note_off_c, 0, 53, 58
1, 88292, Note_off_c, 0, 69, 54
1, 88305, Note_off_c, 0, 60, 56
1, 88358, Note_off_c, 0, 67, 57
1, 88427, Note_on_c, 0, 69, 60
1, 88447, Note_on_c, 0, 63, 46
1, 88449, Note_on_c, 0, 60, 39
1, 88459, Note_on_c, 0, 53, 33
1, 88565, Note_off_c, 0, 63, 0
1, 88588, Note_on_c, 0, 57, 54
1, 88590, Note_on_c, 0, 63, 11
1, 88592, Note_on_c, 0, 72, 54
1, 88598, Note_off_c, 0, 60, 53
1, 88606, Note_off_c, 0, 69, 48
1, 88620, Note_off_c, 0, 57, 64
1, 88620, Note_off_c, 0, 53, 56
1, 88630, Note_off_c, 0, 63, 52
1, 88655, Note_off_c, 0, 72, 57
1, 88785, Note_on_c, 0, 70, 60
1, 88797, Note_on_c, 0, 62, 44
1, 88802, Note_on_c, 0, 46, 55
1, 88804, Control_c, 0, 64, 50
1, 88819, Control_c, 0, 64, 65
1, 88824, Note_on_c, 0, 58, 24
1, 88834, Control_c, 0, 64, 70
1, 88849, Control_c, 0, 64, 76
1, 88849, Note_off_c, 0, 62, 43
1, 88852, Note_off_c, 0, 46, 63
1, 88863, Control_c, 0, 64, 79
1, 88867, Note_off_c, 0, 58, 49
1, 88878, Control_c, 0, 64, 82
1, 88879, Note_off_c, 0, 70, 61
1, 88893, Control_c, 0, 64, 84
1, 88908, Control_c, 0, 64, 85
1, 88922, Control_c, 0, 64, 87
1, 88936, Control_c, 0, 64, 88
1, 88951, Control_c, 0, 64, 89
1, 88965, Note_on_c, 0, 70, 56
1, 88966, Note_on_c, 0, 58, 59
1, 88966, Control_c, 0, 64, 90
1, 88995, Control_c, 0, 64, 90
1, 89115, Control_c, 0, 64, 89
1, 89121, Note_on_c, 0, 71, 71
1, 89124, Note_off_c, 0, 70, 55
1, 89129, Control_c, 0, 64, 86
1, 89130, Note_on_c, 0, 59, 64
1, 89144, Control_c, 0, 64, 80
1, 89159, Control_c, 0, 64, 72
1, 89168, Note_off_c, 0, 58, 61
1, 89174, Control_c, 0, 64, 57
1, 89188, Control_c, 0, 64, 0
1, 89287, Note_on_c, 0, 72, 75
1, 89287, Note_off_c, 0, 59, 62
1, 89290, Note_on_c, 0, 60, 69
1, 89362, Note_off_c, 0, 71, 53
1, 89456, Note_on_c, 0, 73, 78
1, 89465, Note_on_c, 0, 61, 75
1, 89489, Note_off_c, 0, 60, 60
1, 89502, Note_off_c, 0, 72, 53
1, 89629, Note_on_c, 0, 74, 73
1, 89631, Note_on_c, 0, 62, 76
1, 89667, Note_off_c, 0, 73, 60
1, 89672, Note_off_c, 0, 61, 61
1, 89889, Note_on_c, 0, 63, 73
1, 89892, Note_on_c, 0, 75, 78
1, 89923, Note_off_c, 0, 74, 64
1, 89951, Note_off_c, 0, 62, 57
1, 90435, Control_c, 0, 64, 31
1, 90450, Control_c, 0, 64, 50
1, 90465, Control_c, 0, 64, 60
1, 90480, Control_c, 0, 64, 64
1, 90495, Control_c, 0, 64, 67
1, 90509, Control_c, 0, 64, 71
1, 90524, Control_c, 0, 64, 75
1, 90539, Control_c, 0, 64, 79
1, 90554, Control_c, 0, 64, 82
1, 90568, Control_c, 0, 64, 85
1, 90573, Note_off_c, 0, 63, 60
1, 90583, Control_c, 0, 64, 87
1, 90598, Control_c, 0, 64, 89
1, 90613, Control_c, 0, 64, 92
1, 90628, Control_c, 0, 64, 94
1, 90642, Control_c, 0, 64, 96
1, 90654, Note_off_c, 0, 75, 49
1, 90657, Control_c, 0, 64, 99
1, 90672, Control_c, 0, 64, 101
1, 90687, Control_c, 0, 64, 104
1, 90702, Control_c, 0, 64, 106
1, 90716, Control_c, 0, 64, 108
1, 90731, Control_c, 0, 64, 110
1, 90746, Control_c, 0, 64, 111
1, 90760, Control_c, 0, 64, 112
1, 90775, Control_c, 0, 64, 113
1, 90790, Control_c, 0, 64, 115
1, 90805, Control_c, 0, 64, 117
1, 90820, Control_c, 0, 64, 118
1, 90835, Control_c, 0, 64, 120
1, 90849, Control_c, 0, 64, 121
1, 90864, Control_c, 0, 64, 124
1, 90879, Control_c, 0, 64, 127
1, 90894, Control_c, 0, 64, 127
1, 91004, Note_on_c, 0, 55, 62
1, 91005, Note_on_c, 0, 67, 72
1, 91016, Note_on_c, 0, 63, 60
1, 91022, Note_on_c, 0, 51, 51
1, 91034, Control_c, 0, 64, 125
1, 91049, Control_c, 0, 64, 117
1, 91064, Control_c, 0, 64, 109
1, 91079, Control_c, 0, 64, 102
1, 91094, Control_c, 0, 64, 94
1, 91109, Control_c, 0, 64, 85
1, 91124, Control_c, 0, 64, 75
1, 91139, Control_c, 0, 64, 61
1, 91154, Control_c, 0, 64, 0
1, 91821, Note_on_c, 0, 68, 60
1, 91839, Note_on_c, 0, 56, 48
1, 91937, Note_off_c, 0, 55, 34
1, 92050, Control_c, 0, 64, 32
1, 92065, Control_c, 0, 64, 53
1, 92076, Note_off_c, 0, 56, 56
1, 92080, Control_c, 0, 64, 59
1, 92091, Note_off_c, 0, 67, 29
1, 92094, Control_c, 0, 64, 63
1, 92099, Note_on_c, 0, 70, 64
1, 92109, Control_c, 0, 64, 66
1, 92113, Note_on_c, 0, 58, 49
1, 92124, Control_c, 0, 64, 70
1, 92139, Control_c, 0, 64, 74
1, 92143, Note_off_c, 0, 51, 32
1, 92153, Control_c, 0, 64, 79
1, 92158, Note_off_c, 0, 68, 57
1, 92168, Control_c, 0, 64, 82
1, 92176, Note_off_c, 0, 63, 56
1, 92183, Control_c, 0, 64, 84
1, 92198, Control_c, 0, 64, 86
1, 92212, Control_c, 0, 64, 88
1, 92227, Control_c, 0, 64, 90
1, 92229, Note_off_c, 0, 58, 60
1, 92238, Note_off_c, 0, 70, 51
1, 92242, Control_c, 0, 64, 91
1, 92257, Control_c, 0, 64, 92
1, 92272, Control_c, 0, 64, 93
1, 92286, Control_c, 0, 64, 93
1, 92301, Control_c, 0, 64, 94
1, 92316, Control_c, 0, 64, 94
1, 92331, Control_c, 0, 64, 95
1, 92361, Control_c, 0, 64, 95
1, 92605, Control_c, 0, 64, 95
1, 92620, Control_c, 0, 64, 93
1, 92629, Note_on_c, 0, 72, 61
1, 92635, Control_c, 0, 64, 86
1, 92650, Control_c, 0, 64, 76
1, 92652, Note_on_c, 0, 44, 43
1, 92652, Note_on_c, 0, 63, 42
1, 92653, Note_on_c, 0, 56, 41
1, 92665, Control_c, 0, 64, 56
1, 92668, Note_on_c, 0, 53, 41
1, 92668, Note_on_c, 0, 60, 34
1, 92670, Note_on_c, 0, 51, 38
1, 92679, Control_c, 0, 64, 0
1, 92724, Control_c, 0, 64, 47
1, 92738, Control_c, 0, 64, 64
1, 92754, Control_c, 0, 64, 70
1, 92769, Control_c, 0, 64, 76
1, 92775, Note_off_c, 0, 72, 57
1, 92784, Control_c, 0, 64, 81
1, 92789, Note_off_c, 0, 63, 41
1, 92799, Control_c, 0, 64, 83
1, 92814, Control_c, 0, 64, 85
1, 92828, Control_c, 0, 64, 86
1, 92843, Control_c, 0, 64, 88
1, 92858, Control_c, 0, 64, 89
1, 92873, Control_c, 0, 64, 90
1, 92888, Control_c, 0, 64, 91
1, 92902, Control_c, 0, 64, 92
1, 92947, Control_c, 0, 64, 92
1, 92978, Note_on_c, 0, 65, 59
1, 93017, Note_off_c, 0, 65, 62
1, 93035, Control_c, 0, 64, 92
1, 93050, Control_c, 0, 64, 91
1, 93065, Control_c, 0, 64, 88
1, 93080, Control_c, 0, 64, 83
1, 93091, Note_on_c, 0, 65, 54
1, 93095, Control_c, 0, 64, 75
1, 93109, Control_c, 0, 64, 65
1, 93124, Control_c, 0, 64, 0
1, 93528, Note_off_c, 0, 51, 30
1, 93553, Note_off_c, 0, 65, 51
1, 93556, Note_off_c, 0, 53, 37
1, 93557, Note_off_c, 0, 60, 24
1, 93575, Note_off_c, 0, 56, 39
1, 93595, Note_off_c, 0, 44, 35
1, 94015, Control_c, 0, 64, 31
1, 94030, Control_c, 0, 64, 42
1, 94045, Control_c, 0, 64, 49
1, 94059, Control_c, 0, 64, 54
1, 94074, Control_c, 0, 64, 57
1, 94089, Control_c, 0, 64, 60
1, 94104, Control_c, 0, 64, 63
1, 94119, Control_c, 0, 64, 65
1, 94127, Note_on_c, 0, 72, 50
1, 94133, Control_c, 0, 64, 68
1, 94135, Note_on_c, 0, 44, 34
1, 94139, Note_on_c, 0, 53, 36
1, 94142, Note_on_c, 0, 56, 26
1, 94147, Note_on_c, 0, 63, 37
1, 94148, Control_c, 0, 64, 72
1, 94155, Note_on_c, 0, 51, 34
1, 94163, Control_c, 0, 64, 76
1, 94166, Note_on_c, 0, 60, 33
1, 94177, Control_c, 0, 64, 80
1, 94192, Control_c, 0, 64, 82
1, 94207, Control_c, 0, 64, 83
1, 94222, Control_c, 0, 64, 85
1, 94237, Control_c, 0, 64, 86
1, 94248, Note_off_c, 0, 72, 57
1, 94252, Note_off_c, 0, 63, 38
1, 94252, Control_c, 0, 64, 87
1, 94266, Control_c, 0, 64, 88
1, 94281, Control_c, 0, 64, 89
1, 94296, Control_c, 0, 64, 90
1, 94310, Control_c, 0, 64, 91
1, 94325, Control_c, 0, 64, 91
1, 94340, Control_c, 0, 64, 92
1, 94356, Control_c, 0, 64, 92
1, 94415, Control_c, 0, 64, 93
1, 94479, Note_on_c, 0, 65, 51
1, 94514, Note_off_c, 0, 65, 57
1, 94519, Control_c, 0, 64, 92
1, 94579, Control_c, 0, 64, 92
1, 94593, Note_on_c, 0, 65, 43
1, 94593, Control_c, 0, 64, 91
1, 94608, Control_c, 0, 64, 88
1, 94623, Control_c, 0, 64, 84
1, 94638, Control_c, 0, 64, 78
1, 94653, Control_c, 0, 64, 71
1, 94668, Control_c, 0, 64, 58
1, 94689, Control_c, 0, 64, 0
1, 94978, Note_off_c, 0, 56, 37
1, 95003, Note_off_c, 0, 60, 29
1, 95017, Note_off_c, 0, 53, 41
1, 95023, Note_off_c, 0, 65, 50
1, 95042, Note_off_c, 0, 51, 35
1, 95060, Note_off_c, 0, 44, 39
1, 95342, Control_c, 0, 64, 36
1, 95357, Control_c, 0, 64, 42
1, 95371, Control_c, 0, 64, 48
1, 95386, Control_c, 0, 64, 54
1, 95401, Control_c, 0, 64, 59
1, 95416, Control_c, 0, 64, 62
1, 95438, Control_c, 0, 64, 64
1, 95453, Control_c, 0, 64, 65
1, 95468, Control_c, 0, 64, 66
1, 95483, Control_c, 0, 64, 68
1, 95498, Control_c, 0, 64, 71
1, 95512, Control_c, 0, 64, 73
1, 95527, Control_c, 0, 64, 76
1, 95542, Control_c, 0, 64, 78
1, 95556, Control_c, 0, 64, 80
1, 95571, Control_c, 0, 64, 82
1, 95586, Control_c, 0, 64, 83
1, 95601, Control_c, 0, 64, 85
1, 95604, Note_on_c, 0, 65, 43
1, 95616, Control_c, 0, 64, 86
1, 95618, Note_on_c, 0, 60, 33
1, 95631, Control_c, 0, 64, 88
1, 95636, Note_on_c, 0, 44, 29
1, 95640, Note_on_c, 0, 32, 25
1, 95643, Note_on_c, 0, 63, 24
1, 95645, Note_on_c, 0, 53, 9
1, 95646, Control_c, 0, 64, 90
1, 95661, Control_c, 0, 64, 92
1, 95661, Note_on_c, 0, 36, 29
1, 95676, Control_c, 0, 64, 93
1, 95690, Control_c, 0, 64, 95
1, 95705, Control_c, 0, 64, 97
1, 95720, Control_c, 0, 64, 99
1, 95732, Note_off_c, 0, 60, 43
1, 95735, Control_c, 0, 64, 101
1, 95749, Control_c, 0, 64, 103
1, 95764, Control_c, 0, 64, 105
1, 95779, Control_c, 0, 64, 106
1, 95794, Control_c, 0, 64, 109
1, 95795, Note_off_c, 0, 65, 38
1, 95796, Note_off_c, 0, 63, 38
1, 95808, Note_off_c, 0, 53, 36
1, 95809, Control_c, 0, 64, 111
1, 95823, Control_c, 0, 64, 113
1, 95831, Note_off_c, 0, 36, 39
1, 95838, Control_c, 0, 64, 115
1, 95846, Note_off_c, 0, 44, 37
1, 95852, Note_off_c, 0, 32, 40
1, 95853, Control_c, 0, 64, 116
1, 95868, Control_c, 0, 64, 117
1, 95883, Control_c, 0, 64, 117
1, 95898, Control_c, 0, 64, 118
1, 95912, Control_c, 0, 64, 119
1, 95927, Control_c, 0, 64, 119
1, 95942, Control_c, 0, 64, 120
1, 95958, Control_c, 0, 64, 120
1, 95987, Control_c, 0, 64, 121
1, 96034, Note_on_c, 0, 65, 55
1, 96047, Note_on_c, 0, 60, 45
1, 96057, Note_on_c, 0, 53, 35
1, 96059, Note_on_c, 0, 44, 33
1, 96065, Note_on_c, 0, 32, 28
1, 96076, Control_c, 0, 64, 121
1, 96081, Note_on_c, 0, 63, 29
1, 96094, Note_on_c, 0, 36, 31
1, 96141, Note_off_c, 0, 63, 41
1, 96153, Note_off_c, 0, 60, 47
1, 96202, Note_off_c, 0, 65, 50
1, 96238, Note_off_c, 0, 53, 20
1, 96242, Note_off_c, 0, 36, 35
1, 96244, Note_off_c, 0, 44, 40
1, 96247, Note_off_c, 0, 32, 39
1, 96405, Note_on_c, 0, 65, 66
1, 96427, Note_on_c, 0, 60, 47
1, 96428, Note_on_c, 0, 53, 40
1, 96430, Note_on_c, 0, 32, 33
1, 96432, Note_on_c, 0, 44, 42
1, 96436, Note_on_c, 0, 63, 48
1, 96451, Note_on_c, 0, 36, 38
1, 96493, Note_off_c, 0, 53, 38
1, 96519, Note_off_c, 0, 60, 46
1, 96531, Note_off_c, 0, 65, 63
1, 96548, Note_off_c, 0, 63, 51
1, 96591, Note_off_c, 0, 36, 35
1, 96625, Note_off_c, 0, 32, 39
1, 96635, Note_off_c, 0, 44, 36
1, 96871, Note_on_c, 0, 66, 65
1, 96871, Control_c, 0, 64, 120
1, 96875, Note_on_c, 0, 63, 55
1, 96883, Note_on_c, 0, 60, 50
1, 96885, Control_c, 0, 64, 118
1, 96897, Note_on_c, 0, 54, 39
1, 96898, Note_on_c, 0, 44, 41
1, 96900, Control_c, 0, 64, 116
1, 96909, Note_on_c, 0, 32, 35
1, 96912, Note_on_c, 0, 36, 45
1, 96915, Control_c, 0, 64, 113
1, 96937, Control_c, 0, 64, 108
1, 96952, Control_c, 0, 64, 101
1, 96966, Control_c, 0, 64, 93
1, 96981, Control_c, 0, 64, 82
1, 96996, Control_c, 0, 64, 72
1, 97011, Control_c, 0, 64, 55
1, 97026, Control_c, 0, 64, 0
1, 97233, Control_c, 0, 64, 52
1, 97248, Control_c, 0, 64, 64
1, 97263, Control_c, 0, 64, 69
1, 97277, Control_c, 0, 64, 75
1, 97292, Control_c, 0, 64, 81
1, 97307, Control_c, 0, 64, 86
1, 97321, Control_c, 0, 64, 89
1, 97336, Control_c, 0, 64, 91
1, 97351, Control_c, 0, 64, 94
1, 97366, Control_c, 0, 64, 98
1, 97381, Control_c, 0, 64, 102
1, 97396, Control_c, 0, 64, 105
1, 97410, Control_c, 0, 64, 107
1, 97425, Control_c, 0, 64, 110
1, 97440, Control_c, 0, 64, 112
1, 97455, Control_c, 0, 64, 116
1, 97470, Control_c, 0, 64, 119
1, 97485, Control_c, 0, 64, 122
1, 97500, Control_c, 0, 64, 126
1, 97515, Control_c, 0, 64, 127
1, 97610, Note_off_c, 0, 36, 40
1, 97614, Note_off_c, 0, 60, 50
1, 97625, Note_off_c, 0, 63, 47
1, 97656, Note_off_c, 0, 66, 38
1, 97658, Note_off_c, 0, 54, 36
1, 97701, Note_off_c, 0, 44, 38
1, 97703, Note_off_c, 0, 32, 38
1, 98048, Note_on_c, 0, 66, 71
1, 98053, Note_on_c, 0, 44, 59
1, 98055, Note_on_c, 0, 60, 62
1, 98056, Control_c, 0, 64, 112
1, 98063, Note_on_c, 0, 63, 60
1, 98063, Note_on_c, 0, 54, 57
1, 98068, Note_on_c, 0, 32, 48
1, 98069, Note_on_c, 0, 36, 54
1, 98071, Control_c, 0, 64, 97
1, 98086, Control_c, 0, 64, 82
1, 98100, Control_c, 0, 64, 68
1, 98115, Control_c, 0, 64, 0
1, 98130, Control_c, 0, 64, 36
1, 98144, Control_c, 0, 64, 65
1, 98159, Control_c, 0, 64, 76
1, 98174, Control_c, 0, 64, 89
1, 98189, Control_c, 0, 64, 98
1, 98204, Control_c, 0, 64, 103
1, 98218, Control_c, 0, 64, 111
1, 98233, Control_c, 0, 64, 127
1, 98263, Note_off_c, 0, 60, 53
1, 98272, Note_off_c, 0, 63, 54
1, 98285, Note_off_c, 0, 66, 56
1, 98299, Note_off_c, 0, 36, 59
1, 98314, Note_off_c, 0, 44, 56
1, 98316, Note_off_c, 0, 54, 33
1, 98359, Note_off_c, 0, 32, 39
1, 98466, Note_on_c, 0, 44, 65
1, 98470, Note_on_c, 0, 66, 82
1, 98475, Note_on_c, 0, 54, 68
1, 98476, Note_on_c, 0, 63, 73
1, 98478, Note_on_c, 0, 60, 70
1, 98481, Note_on_c, 0, 32, 60
1, 98490, Note_on_c, 0, 36, 58
1, 98622, Note_off_c, 0, 54, 53
1, 98639, Note_off_c, 0, 60, 56
1, 98644, Note_off_c, 0, 63, 58
1, 98660, Note_off_c, 0, 36, 55
1, 98665, Note_off_c, 0, 66, 55
1, 98683, Note_off_c, 0, 44, 52
1, 98721, Note_off_c, 0, 32, 41
1, 98846, Note_on_c, 0, 44, 75
1, 98847, Note_on_c, 0, 66, 84
1, 98848, Note_on_c, 0, 54, 79
1, 98850, Note_on_c, 0, 60, 76
1, 98851, Note_on_c, 0, 32, 64
1, 98852, Note_on_c, 0, 63, 72
1, 98859, Note_on_c, 0, 36, 67
1, 99023, Note_off_c, 0, 54, 58
1, 99026, Note_off_c, 0, 60, 54
1, 99028, Note_off_c, 0, 36, 56
1, 99035, Note_off_c, 0, 63, 56
1, 99057, Note_off_c, 0, 66, 59
1, 99069, Note_off_c, 0, 44, 56
1, 99079, Note_off_c, 0, 32, 61
1, 99348, Note_on_c, 0, 67, 83
1, 99350, Note_on_c, 0, 55, 83
1, 99351, Note_on_c, 0, 43, 83
1, 99351, Note_on_c, 0, 60, 80
1, 99357, Note_on_c, 0, 63, 79
1, 99359, Note_on_c, 0, 31, 72
1, 99364, Note_on_c, 0, 36, 72
1, 99435, Control_c, 0, 64, 125
1, 99450, Control_c, 0, 64, 107
1, 99465, Control_c, 0, 64, 92
1, 99479, Control_c, 0, 64, 79
1, 99494, Control_c, 0, 64, 65
1, 99509, Control_c, 0, 64, 0
1, 99717, Control_c, 0, 64, 56
1, 99731, Control_c, 0, 64, 65
1, 99746, Control_c, 0, 64, 70
1, 99761, Control_c, 0, 64, 75
1, 99776, Control_c, 0, 64, 82
1, 99791, Control_c, 0, 64, 88
1, 99805, Control_c, 0, 64, 93
1, 99820, Control_c, 0, 64, 98
1, 99835, Control_c, 0, 64, 104
1, 99850, Control_c, 0, 64, 111
1, 99865, Control_c, 0, 64, 120
1, 99879, Control_c, 0, 64, 127
1, 100105, Note_off_c, 0, 55, 56
1, 100118, Note_off_c, 0, 67, 50
1, 100168, Note_off_c, 0, 60, 54
1, 100194, Note_off_c, 0, 63, 58
1, 100210, Note_off_c, 0, 36, 59
1, 100218, Note_off_c, 0, 43, 39
1, 100253, Note_off_c, 0, 31, 35
1, 100567, Note_on_c, 0, 43, 85
1, 100568, Note_on_c, 0, 67, 87
1, 100570, Note_on_c, 0, 55, 84
1, 100570, Note_on_c, 0, 60, 82
1, 100574, Note_on_c, 0, 31, 73
1, 100574, Note_on_c, 0, 36, 78
1, 100575, Note_on_c, 0, 63, 81
1, 100584, Control_c, 0, 64, 115
1, 100599, Control_c, 0, 64, 90
1, 100614, Control_c, 0, 64, 71
1, 100628, Control_c, 0, 64, 0
1, 100658, Control_c, 0, 64, 32
1, 100680, Control_c, 0, 64, 71
1, 100695, Control_c, 0, 64, 90
1, 100710, Control_c, 0, 64, 122
1, 100725, Control_c, 0, 64, 127
1, 100818, Note_off_c, 0, 63, 58
1, 100820, Note_off_c, 0, 60, 53
1, 100823, Note_off_c, 0, 67, 46
1, 100850, Note_off_c, 0, 55, 37
1, 100854, Note_off_c, 0, 36, 46
1, 100866, Note_off_c, 0, 31, 55
1, 100885, Note_off_c, 0, 43, 58
1, 100985, Note_on_c, 0, 43, 88
1, 100986, Note_on_c, 0, 67, 89
1, 100987, Note_on_c, 0, 55, 92
1, 100988, Note_on_c, 0, 60, 84
1, 100993, Note_on_c, 0, 63, 83
1, 100993, Note_on_c, 0, 36, 76
1, 100996, Note_on_c, 0, 31, 73
1, 101177, Note_off_c, 0, 55, 48
1, 101184, Note_off_c, 0, 63, 58
1, 101186, Note_off_c, 0, 60, 55
1, 101190, Note_off_c, 0, 67, 51
1, 101214, Note_off_c, 0, 36, 62
1, 101225, Note_off_c, 0, 31, 58
1, 101254, Note_off_c, 0, 43, 56
1, 101411, Note_on_c, 0, 55, 98
1, 101413, Note_on_c, 0, 60, 89
1, 101413, Note_on_c, 0, 67, 94
1, 101425, Note_on_c, 0, 43, 94
1, 101425, Note_on_c, 0, 63, 84
1, 101433, Note_on_c, 0, 31, 75
1, 101433, Note_on_c, 0, 36, 84
1, 101602, Note_off_c, 0, 55, 57
1, 101625, Note_off_c, 0, 67, 54
1, 101652, Note_off_c, 0, 60, 57
1, 101673, Note_off_c, 0, 63, 63
1, 101692, Note_off_c, 0, 36, 61
1, 101711, Note_off_c, 0, 43, 60
1, 101718, Note_off_c, 0, 31, 60
1, 101956, Note_on_c, 0, 60, 74
1, 101956, Note_on_c, 0, 42, 93
1, 101960, Note_on_c, 0, 30, 74
1, 101961, Note_on_c, 0, 57, 90
1, 101962, Note_on_c, 0, 63, 77
1, 101962, Note_on_c, 0, 69, 88
1, 101963, Control_c, 0, 64, 94
1, 101968, Note_on_c, 0, 36, 77
1, 101978, Control_c, 0, 64, 68
1, 101992, Control_c, 0, 64, 0
1, 102007, Note_off_c, 0, 57, 62
1, 102023, Note_off_c, 0, 60, 62
1, 102037, Control_c, 0, 64, 64
1, 102052, Control_c, 0, 64, 82
1, 102061, Note_off_c, 0, 63, 64
1, 102067, Control_c, 0, 64, 101
1, 102068, Note_off_c, 0, 69, 64
1, 102082, Control_c, 0, 64, 112
1, 102096, Control_c, 0, 64, 113
1, 102111, Control_c, 0, 64, 115
1, 102126, Control_c, 0, 64, 123
1, 102141, Control_c, 0, 64, 127
1, 102323, Note_on_c, 0, 87, 87
1, 102326, Control_c, 0, 64, 101
1, 102341, Control_c, 0, 64, 83
1, 102356, Control_c, 0, 64, 66
1, 102362, Note_off_c, 0, 36, 64
1, 102363, Note_off_c, 0, 30, 63
1, 102369, Note_off_c, 0, 42, 63
1, 102371, Control_c, 0, 64, 0
1, 102532, Note_on_c, 0, 81, 89
1, 102552, Note_off_c, 0, 81, 64
1, 102554, Note_off_c, 0, 87, 63
1, 102604, Note_on_c, 0, 81, 91
1, 102624, Note_on_c, 0, 83, 44
1, 102625, Note_off_c, 0, 83, 127
1, 102826, Note_off_c, 0, 81, 62
1, 102886, Note_on_c, 0, 59, 89
1, 102889, Note_on_c, 0, 53, 81
1, 103089, Control_c, 0, 64, 13
1, 103151, Control_c, 0, 64, 15
1, 103165, Control_c, 0, 64, 18
1, 103170, Note_off_c, 0, 59, 65
1, 103178, Note_off_c, 0, 53, 66
1, 103180, Control_c, 0, 64, 21
1, 103188, Note_on_c, 0, 68, 86
1, 103195, Control_c, 0, 64, 24
1, 103210, Control_c, 0, 64, 26
1, 103225, Control_c, 0, 64, 27
1, 103239, Control_c, 0, 64, 28
1, 103358, Control_c, 0, 64, 29
1, 103372, Control_c, 0, 64, 31
1, 103379, Note_on_c, 0, 62, 89
1, 103387, Control_c, 0, 64, 32
1, 103402, Control_c, 0, 64, 31
1, 103404, Note_off_c, 0, 68, 60
1, 103411, Note_off_c, 0, 62, 64
1, 103417, Control_c, 0, 64, 29
1, 103453, Note_on_c, 0, 62, 87
1, 103462, Control_c, 0, 64, 28
1, 103477, Control_c, 0, 64, 25
1, 103536, Control_c, 0, 64, 24
1, 103580, Control_c, 0, 64, 23
1, 103625, Control_c, 0, 64, 25
1, 103639, Control_c, 0, 64, 26
1, 103654, Control_c, 0, 64, 27
1, 103691, Control_c, 0, 64, 25
1, 103693, Note_off_c, 0, 62, 61
1, 103706, Control_c, 0, 64, 24
1, 103721, Control_c, 0, 64, 23
1, 103749, Note_on_c, 0, 43, 94
1, 103751, Control_c, 0, 64, 21
1, 103754, Note_on_c, 0, 39, 83
1, 103765, Control_c, 0, 64, 15
1, 103780, Control_c, 0, 64, 0
1, 103825, Control_c, 0, 64, 15
1, 103839, Control_c, 0, 64, 18
1, 103854, Control_c, 0, 64, 13
1, 103869, Control_c, 0, 64, 0
1, 104042, Note_off_c, 0, 43, 61
1, 104051, Note_on_c, 0, 55, 90
1, 104061, Note_off_c, 0, 39, 63
1, 104260, Note_on_c, 0, 48, 92
1, 104263, Note_off_c, 0, 55, 53
1, 104292, Note_off_c, 0, 48, 69
1, 104338, Note_on_c, 0, 48, 83
1, 104591, Note_off_c, 0, 48, 65
1, 104620, Note_on_c, 0, 41, 100
1, 104832, Note_on_c, 0, 35, 82
1, 104850, Note_off_c, 0, 41, 67
1, 104868, Note_off_c, 0, 35, 66
1, 104921, Note_on_c, 0, 35, 90
1, 105193, Note_off_c, 0, 35, 65
1, 105224, Note_on_c, 0, 55, 76
1, 105225, Note_on_c, 0, 50, 85
1, 105227, Note_on_c, 0, 53, 82
1, 105411, Note_off_c, 0, 50, 55
1, 105456, Note_off_c, 0, 53, 62
1, 105467, Note_off_c, 0, 55, 60
1, 105507, Note_on_c, 0, 36, 85
1, 105644, Note_off_c, 0, 36, 62
1, 105650, Note_on_c, 0, 48, 72
1, 105684, Note_off_c, 0, 48, 66
1, 105807, Note_on_c, 0, 48, 63
1, 105843, Note_off_c, 0, 48, 63
1, 105965, Note_on_c, 0, 48, 51
1, 105999, Note_off_c, 0, 48, 65
1, 106114, Note_on_c, 0, 48, 53
1, 106153, Note_off_c, 0, 48, 63
1, 106260, Note_on_c, 0, 48, 52
1, 106296, Note_off_c, 0, 48, 64
1, 106352, Note_on_c, 0, 83, 55
1, 106397, Note_on_c, 0, 84, 73
1, 106398, Note_on_c, 0, 60, 57
1, 106403, Note_off_c, 0, 83, 59
1, 106410, Note_on_c, 0, 57, 44
1, 106419, Note_on_c, 0, 48, 43
1, 106455, Note_off_c, 0, 48, 53
1, 106556, Note_on_c, 0, 48, 54
1, 106590, Note_off_c, 0, 48, 64
1, 106619, Note_on_c, 0, 77, 61
1, 106631, Note_off_c, 0, 84, 50
1, 106641, Note_off_c, 0, 77, 63
1, 106698, Note_on_c, 0, 48, 52
1, 106699, Note_on_c, 0, 77, 63
1, 106741, Note_off_c, 0, 48, 62
1, 106846, Note_on_c, 0, 48, 58
1, 106896, Note_off_c, 0, 48, 59
1, 106897, Note_off_c, 0, 77, 60
1, 107008, Note_on_c, 0, 48, 50
1, 107044, Note_off_c, 0, 48, 61
1, 107149, Note_on_c, 0, 48, 50
1, 107164, Note_off_c, 0, 60, 57
1, 107167, Note_off_c, 0, 57, 57
1, 107179, Note_off_c, 0, 48, 63
1, 107236, Note_on_c, 0, 71, 46
1, 107276, Note_on_c, 0, 48, 49
1, 107281, Note_off_c, 0, 71, 60
1, 107283, Note_on_c, 0, 55, 46
1, 107283, Note_on_c, 0, 72, 61
1, 107286, Note_on_c, 0, 59, 42
1, 107330, Note_off_c, 0, 48, 62
1, 107450, Note_on_c, 0, 48, 52
1, 107484, Note_off_c, 0, 48, 65
1, 107503, Note_off_c, 0, 72, 40
1, 107504, Note_on_c, 0, 64, 55
1, 107524, Note_off_c, 0, 64, 61
1, 107569, Note_on_c, 0, 64, 60
1, 107581, Note_on_c, 0, 48, 55
1, 107623, Note_off_c, 0, 48, 60
1, 107722, Note_on_c, 0, 48, 59
1, 107769, Note_off_c, 0, 64, 58
1, 107776, Note_off_c, 0, 48, 60
1, 107873, Note_on_c, 0, 48, 49
1, 107918, Note_off_c, 0, 48, 60
1, 108025, Note_on_c, 0, 48, 44
1, 108043, Note_off_c, 0, 55, 58
1, 108045, Note_off_c, 0, 59, 55
1, 108052, Note_off_c, 0, 48, 58
1, 108147, Note_on_c, 0, 48, 51
1, 108148, Note_on_c, 0, 72, 56
1, 108169, Note_on_c, 0, 57, 50
1, 108178, Note_on_c, 0, 53, 44
1, 108209, Note_on_c, 0, 62, 58
1, 108226, Note_off_c, 0, 48, 60
1, 108226, Note_off_c, 0, 72, 60
1, 108251, Note_off_c, 0, 62, 59
1, 108301, Note_on_c, 0, 48, 48
1, 108325, Note_off_c, 0, 57, 54
1, 108339, Note_off_c, 0, 53, 56
1, 108348, Note_off_c, 0, 48, 61
1, 108447, Note_on_c, 0, 53, 58
1, 108448, Note_on_c, 0, 72, 65
1, 108453, Note_on_c, 0, 56, 62
1, 108512, Note_on_c, 0, 62, 64
1, 108532, Note_off_c, 0, 72, 60
1, 108553, Note_off_c, 0, 62, 59
1, 108572, Note_off_c, 0, 53, 57
1, 108588, Note_on_c, 0, 48, 60
1, 108606, Note_off_c, 0, 56, 52
1, 108637, Note_off_c, 0, 48, 58
1, 108732, Note_on_c, 0, 53, 53
1, 108742, Note_on_c, 0, 71, 60
1, 108747, Note_on_c, 0, 55, 51
1, 108808, Note_on_c, 0, 62, 48
1, 108824, Note_off_c, 0, 71, 57
1, 108850, Note_off_c, 0, 62, 61
1, 108851, Note_on_c, 0, 48, 39
1, 108887, Note_off_c, 0, 55, 33
1, 108891, Note_off_c, 0, 53, 32
1, 108923, Note_off_c, 0, 48, 60
1, 109039, Note_on_c, 0, 55, 36
1, 109044, Note_on_c, 0, 72, 56
1, 109045, Note_on_c, 0, 52, 46
1, 109051, Note_on_c, 0, 48, 45
1, 109086, Note_off_c, 0, 48, 59
1, 109102, Note_off_c, 0, 52, 59
1, 109110, Note_on_c, 0, 60, 56
1, 109129, Note_off_c, 0, 55, 38
1, 109148, Note_off_c, 0, 60, 63
1, 109155, Note_off_c, 0, 72, 57
1, 109183, Note_on_c, 0, 48, 58
1, 109221, Note_off_c, 0, 48, 63
1, 109346, Note_on_c, 0, 48, 46
1, 109375, Note_off_c, 0, 48, 60
1, 109484, Note_on_c, 0, 48, 48
1, 109522, Note_off_c, 0, 48, 63
1, 109630, Note_on_c, 0, 48, 53
1, 109678, Note_off_c, 0, 48, 63
1, 109776, Note_on_c, 0, 48, 60
1, 109814, Note_off_c, 0, 48, 66
1, 109897, Note_on_c, 0, 84, 63
1, 109906, Note_on_c, 0, 57, 58
1, 109909, Note_on_c, 0, 60, 61
1, 109917, Note_off_c, 0, 84, 65
1, 109918, Note_on_c, 0, 48, 51
1, 109941, Note_on_c, 0, 86, 63
1, 109950, Note_off_c, 0, 48, 66
1, 109979, Note_off_c, 0, 86, 59
1, 109986, Note_on_c, 0, 84, 72
1, 110028, Note_off_c, 0, 84, 65
1, 110039, Note_on_c, 0, 83, 60
1, 110050, Note_on_c, 0, 48, 57
1, 110093, Note_off_c, 0, 48, 62
1, 110095, Note_off_c, 0, 83, 58
1, 110106, Note_on_c, 0, 84, 63
1, 110204, Note_on_c, 0, 48, 50
1, 110214, Note_on_c, 0, 77, 62
1, 110249, Note_off_c, 0, 48, 61
1, 110298, Note_off_c, 0, 84, 34
1, 110359, Note_on_c, 0, 48, 52
1, 110409, Note_off_c, 0, 48, 63
1, 110421, Note_off_c, 0, 77, 59
1, 110511, Note_on_c, 0, 48, 53
1, 110557, Note_off_c, 0, 48, 60
1, 110661, Note_on_c, 0, 48, 53
1, 110676, Note_off_c, 0, 60, 60
1, 110683, Note_off_c, 0, 57, 57
1, 110694, Note_off_c, 0, 48, 65
1, 110776, Note_on_c, 0, 72, 66
1, 110789, Note_on_c, 0, 48, 55
1, 110792, Note_on_c, 0, 59, 51
1, 110793, Note_on_c, 0, 55, 47
1, 110803, Note_off_c, 0, 72, 69
1, 110821, Note_on_c, 0, 74, 59
1, 110835, Note_off_c, 0, 48, 59
1, 110872, Note_off_c, 0, 74, 65
1, 110875, Note_on_c, 0, 72, 73
1, 110911, Note_on_c, 0, 71, 55
1, 110923, Note_off_c, 0, 72, 64
1, 110935, Note_on_c, 0, 48, 62
1, 110975, Note_on_c, 0, 72, 57
1, 110975, Note_off_c, 0, 71, 56
1, 110982, Note_off_c, 0, 48, 61
1, 111089, Note_on_c, 0, 64, 66
1, 111091, Note_on_c, 0, 48, 54
1, 111102, Note_off_c, 0, 72, 57
1, 111137, Note_off_c, 0, 48, 60
1, 111248, Note_on_c, 0, 48, 52
1, 111290, Note_off_c, 0, 48, 61
1, 111324, Note_off_c, 0, 64, 59
1, 111392, Note_on_c, 0, 48, 57
1, 111442, Note_off_c, 0, 48, 62
1, 111555, Note_on_c, 0, 48, 42
1, 111566, Note_off_c, 0, 55, 64
1, 111568, Note_off_c, 0, 59, 57
1, 111582, Note_off_c, 0, 48, 57
1, 111677, Note_on_c, 0, 72, 56
1, 111685, Note_on_c, 0, 48, 48
1, 111696, Note_on_c, 0, 57, 50
1, 111706, Note_on_c, 0, 53, 39
1, 111734, Note_on_c, 0, 62, 56
1, 111740, Note_off_c, 0, 72, 55
1, 111758, Note_off_c, 0, 48, 57
1, 111799, Note_off_c, 0, 62, 55
1, 111821, Note_on_c, 0, 48, 43
1, 111842, Note_off_c, 0, 57, 56
1, 111851, Note_off_c, 0, 53, 56
1, 111865, Note_off_c, 0, 48, 60
1, 111971, Note_on_c, 0, 53, 62
1, 111975, Note_on_c, 0, 56, 64
1, 111979, Note_on_c, 0, 72, 67
1, 112047, Note_on_c, 0, 62, 64
1, 112050, Note_off_c, 0, 72, 63
1, 112098, Note_off_c, 0, 53, 57
1, 112099, Note_off_c, 0, 62, 58
1, 112113, Note_on_c, 0, 48, 59
1, 112131, Note_off_c, 0, 56, 53
1, 112170, Note_off_c, 0, 48, 53
1, 112250, Note_on_c, 0, 53, 54
1, 112256, Note_on_c, 0, 71, 60
1, 112269, Note_on_c, 0, 55, 52
1, 112318, Note_on_c, 0, 62, 67
1, 112322, Note_off_c, 0, 71, 58
1, 112357, Note_off_c, 0, 62, 64
1, 112380, Note_off_c, 0, 53, 32
1, 112382, Note_off_c, 0, 55, 37
1, 112386, Note_on_c, 0, 48, 60
1, 112434, Note_off_c, 0, 48, 60
1, 112537, Note_on_c, 0, 48, 65
1, 112542, Note_on_c, 0, 60, 65
1, 112542, Note_on_c, 0, 72, 56
1, 112547, Note_on_c, 0, 55, 47
1, 112557, Note_on_c, 0, 52, 49
1, 112558, Note_off_c, 0, 52, 127
1, 112560, Note_off_c, 0, 72, 61
1, 112562, Note_off_c, 0, 48, 67
1, 112571, Note_off_c, 0, 60, 66
1, 112574, Note_off_c, 0, 55, 53
1, 112712, Note_on_c, 0, 55, 56
1, 112715, Note_on_c, 0, 52, 56
1, 112739, Note_off_c, 0, 52, 64
1, 112744, Note_off_c, 0, 55, 66
1, 112857, Note_on_c, 0, 52, 60
1, 112863, Note_on_c, 0, 55, 53
1, 112888, Note_off_c, 0, 52, 67
1, 112896, Note_off_c, 0, 55, 66
1, 113009, Note_on_c, 0, 52, 60
1, 113015, Note_on_c, 0, 55, 48
1, 113039, Note_off_c, 0, 52, 66
1, 113049, Note_off_c, 0, 55, 65
1, 113156, Note_on_c, 0, 55, 50
1, 113156, Note_on_c, 0, 52, 53
1, 113190, Note_off_c, 0, 52, 67
1, 113199, Note_off_c, 0, 55, 63
1, 113306, Note_on_c, 0, 52, 51
1, 113311, Note_on_c, 0, 55, 50
1, 113338, Note_off_c, 0, 52, 67
1, 113348, Note_off_c, 0, 55, 64
1, 113452, Note_on_c, 0, 47, 57
1, 113464, Note_on_c, 0, 55, 48
1, 113466, Note_on_c, 0, 53, 57
1, 113496, Note_off_c, 0, 47, 56
1, 113501, Note_off_c, 0, 53, 64
1, 113504, Note_off_c, 0, 55, 63
1, 113525, Note_on_c, 0, 37, 50
1, 113569, Note_off_c, 0, 37, 59
1, 113627, Note_on_c, 0, 55, 41
1, 113630, Note_on_c, 0, 53, 40
1, 113657, Note_off_c, 0, 53, 56
1, 113660, Note_off_c, 0, 55, 58
1, 113757, Note_on_c, 0, 47, 60
1, 113767, Note_on_c, 0, 53, 55
1, 113767, Note_on_c, 0, 55, 54
1, 113799, Note_off_c, 0, 47, 57
1, 113810, Note_off_c, 0, 53, 65
1, 113815, Note_off_c, 0, 55, 62
1, 113835, Note_on_c, 0, 37, 55
1, 113874, Note_off_c, 0, 37, 63
1, 113928, Note_on_c, 0, 53, 54
1, 113937, Note_on_c, 0, 55, 53
1, 113966, Note_off_c, 0, 53, 64
1, 113972, Note_off_c, 0, 55, 64
1, 114054, Note_on_c, 0, 47, 64
1, 114078, Note_on_c, 0, 53, 58
1, 114078, Note_on_c, 0, 55, 53
1, 114122, Note_off_c, 0, 53, 63
1, 114123, Note_on_c, 0, 37, 66
1, 114125, Note_off_c, 0, 47, 58
1, 114127, Note_off_c, 0, 55, 61
1, 114181, Note_off_c, 0, 37, 62
1, 114238, Note_on_c, 0, 53, 59
1, 114247, Note_on_c, 0, 55, 53
1, 114270, Note_off_c, 0, 53, 66
1, 114279, Note_off_c, 0, 55, 66
1, 114357, Note_on_c, 0, 48, 60
1, 114377, Note_on_c, 0, 55, 55
1, 114393, Note_on_c, 0, 52, 52
1, 114411, Note_off_c, 0, 48, 58
1, 114420, Note_off_c, 0, 52, 66
1, 114423, Note_off_c, 0, 55, 63
1, 114443, Note_on_c, 0, 36, 64
1, 114472, Note_off_c, 0, 36, 65
1, 114522, Note_on_c, 0, 52, 53
1, 114535, Note_on_c, 0, 55, 46
1, 114557, Note_off_c, 0, 52, 66
1, 114564, Note_off_c, 0, 55, 61
1, 114663, Note_on_c, 0, 55, 51
1, 114669, Note_on_c, 0, 67, 69
1, 114674, Note_on_c, 0, 52, 50
1, 114724, Note_off_c, 0, 52, 64
1, 114738, Note_off_c, 0, 55, 61
1, 114851, Note_on_c, 0, 55, 42
1, 114859, Note_on_c, 0, 52, 44
1, 114907, Note_off_c, 0, 52, 66
1, 114911, Note_off_c, 0, 55, 59
1, 114994, Note_on_c, 0, 72, 64
1, 115014, Note_on_c, 0, 52, 55
1, 115018, Note_on_c, 0, 55, 56
1, 115021, Note_off_c, 0, 67, 27
1, 115056, Note_off_c, 0, 52, 65
1, 115056, Note_off_c, 0, 72, 63
1, 115073, Note_off_c, 0, 55, 58
1, 115158, Note_on_c, 0, 52, 57
1, 115172, Note_on_c, 0, 55, 41
1, 115194, Note_off_c, 0, 52, 66
1, 115215, Note_off_c, 0, 55, 62
1, 115297, Note_on_c, 0, 47, 59
1, 115319, Note_on_c, 0, 55, 50
1, 115335, Note_on_c, 0, 53, 32
1, 115358, Note_off_c, 0, 47, 56
1, 115363, Note_off_c, 0, 55, 61
1, 115364, Note_off_c, 0, 53, 57
1, 115388, Note_on_c, 0, 37, 57
1, 115427, Note_off_c, 0, 37, 64
1, 115460, Note_on_c, 0, 53, 55
1, 115466, Note_on_c, 0, 55, 52
1, 115508, Note_off_c, 0, 53, 62
1, 115510, Note_off_c, 0, 55, 61
1, 115609, Note_on_c, 0, 47, 69
1, 115613, Note_on_c, 0, 55, 61
1, 115622, Note_on_c, 0, 53, 62
1, 115664, Note_off_c, 0, 47, 60
1, 115669, Note_off_c, 0, 53, 62
1, 115677, Note_off_c, 0, 55, 61
1, 115691, Note_on_c, 0, 37, 72
1, 115744, Note_off_c, 0, 37, 59
1, 115772, Note_on_c, 0, 53, 62
1, 115780, Note_on_c, 0, 55, 57
1, 115814, Note_off_c, 0, 53, 64
1, 115822, Note_off_c, 0, 55, 62
1, 115915, Note_on_c, 0, 47, 71
1, 115934, Note_on_c, 0, 53, 69
1, 115937, Note_on_c, 0, 55, 55
1, 115983, Note_off_c, 0, 53, 63
1, 115987, Note_off_c, 0, 55, 60
1, 115991, Note_off_c, 0, 47, 48
1, 115995, Note_on_c, 0, 37, 73
1, 116049, Note_off_c, 0, 37, 59
1, 116084, Note_on_c, 0, 53, 60
1, 116093, Note_on_c, 0, 55, 51
1, 116123, Note_off_c, 0, 53, 66
1, 116130, Note_off_c, 0, 55, 64
1, 116217, Note_on_c, 0, 48, 66
1, 116238, Note_on_c, 0, 55, 58
1, 116253, Note_on_c, 0, 52, 53
1, 116257, Note_off_c, 0, 48, 66
1, 116284, Note_off_c, 0, 52, 65
1, 116288, Note_off_c, 0, 55, 61
1, 116297, Note_on_c, 0, 36, 65
1, 116324, Note_off_c, 0, 36, 65
1, 116386, Note_on_c, 0, 52, 51
1, 116396, Note_on_c, 0, 55, 53
1, 116431, Note_off_c, 0, 52, 66
1, 116434, Note_off_c, 0, 55, 64
1, 116528, Note_on_c, 0, 55, 57
1, 116535, Note_on_c, 0, 52, 57
1, 116536, Note_on_c, 0, 67, 71
1, 116580, Note_off_c, 0, 52, 63
1, 116586, Note_off_c, 0, 55, 58
1, 116701, Note_on_c, 0, 52, 57
1, 116703, Note_on_c, 0, 55, 52
1, 116743, Note_off_c, 0, 52, 64
1, 116751, Note_off_c, 0, 55, 62
1, 116835, Note_on_c, 0, 76, 61
1, 116850, Note_on_c, 0, 52, 53
1, 116856, Note_on_c, 0, 55, 56
1, 116891, Note_off_c, 0, 76, 64
1, 116897, Note_off_c, 0, 52, 64
1, 116912, Note_off_c, 0, 55, 59
1, 116926, Note_off_c, 0, 67, 56
1, 117004, Note_on_c, 0, 52, 55
1, 117007, Note_on_c, 0, 55, 47
1, 117036, Note_off_c, 0, 52, 67
1, 117053, Note_off_c, 0, 55, 61
1, 117134, Note_on_c, 0, 47, 66
1, 117164, Note_on_c, 0, 55, 52
1, 117166, Note_on_c, 0, 53, 42
1, 117189, Note_off_c, 0, 47, 60
1, 117199, Note_off_c, 0, 53, 60
1, 117203, Note_off_c, 0, 55, 62
1, 117246, Note_on_c, 0, 37, 43
1, 117279, Note_off_c, 0, 37, 52
1, 117298, Note_on_c, 0, 53, 57
1, 117299, Note_on_c, 0, 55, 56
1, 117338, Note_off_c, 0, 53, 66
1, 117341, Note_off_c, 0, 55, 63
1, 117435, Note_on_c, 0, 47, 64
1, 117453, Note_on_c, 0, 55, 58
1, 117466, Note_on_c, 0, 53, 52
1, 117469, Note_off_c, 0, 47, 65
1, 117501, Note_off_c, 0, 53, 66
1, 117509, Note_off_c, 0, 55, 61
1, 117546, Note_on_c, 0, 37, 60
1, 117592, Note_off_c, 0, 37, 65
1, 117606, Note_on_c, 0, 53, 54
1, 117617, Note_on_c, 0, 55, 54
1, 117647, Note_off_c, 0, 53, 63
1, 117656, Note_off_c, 0, 55, 63
1, 117738, Note_on_c, 0, 47, 60
1, 117757, Note_on_c, 0, 55, 56
1, 117758, Note_on_c, 0, 53, 62
1, 117793, Note_off_c, 0, 47, 54
1, 117808, Note_off_c, 0, 53, 63
1, 117809, Note_off_c, 0, 55, 64
1, 117812, Note_on_c, 0, 37, 56
1, 117851, Note_off_c, 0, 37, 60
1, 117922, Note_on_c, 0, 55, 49
1, 117931, Note_on_c, 0, 53, 44
1, 117947, Note_off_c, 0, 55, 58
1, 117958, Note_off_c, 0, 53, 52
1, 118048, Note_on_c, 0, 36, 75
1, 118051, Note_on_c, 0, 48, 91
1, 118125, Note_on_c, 0, 52, 73
1, 118194, Note_on_c, 0, 60, 74
1, 118202, Note_off_c, 0, 52, 65
1, 118259, Note_on_c, 0, 55, 74
1, 118330, Note_on_c, 0, 64, 75
1, 118335, Note_off_c, 0, 55, 65
1, 118340, Note_off_c, 0, 60, 56
1, 118375, Note_off_c, 0, 64, 65
1, 118400, Note_on_c, 0, 60, 77
1, 118477, Note_on_c, 0, 67, 87
1, 118497, Note_off_c, 0, 60, 61
1, 118539, Note_on_c, 0, 64, 85
1, 118576, Note_off_c, 0, 48, 60
1, 118607, Note_off_c, 0, 67, 59
1, 118613, Note_on_c, 0, 72, 82
1, 118614, Note_off_c, 0, 64, 64
1, 118650, Note_off_c, 0, 36, 57
1, 118653, Note_off_c, 0, 72, 67
1, 118689, Note_on_c, 0, 67, 85
1, 118759, Note_on_c, 0, 76, 91
1, 118767, Note_off_c, 0, 67, 63
1, 118814, Note_on_c, 0, 72, 87
1, 118843, Note_off_c, 0, 76, 66
1, 118886, Note_off_c, 0, 72, 66
1, 118911, Note_on_c, 0, 79, 97
1, 119068, Note_on_c, 0, 36, 78
1, 119094, Note_off_c, 0, 36, 66
1, 119224, Note_on_c, 0, 40, 87
1, 119264, Note_off_c, 0, 79, 63
1, 119272, Note_off_c, 0, 40, 63
1, 119366, Note_on_c, 0, 43, 89
1, 119413, Note_off_c, 0, 43, 64
1, 119515, Note_on_c, 0, 70, 77
1, 119516, Note_on_c, 0, 48, 91
1, 119550, Note_off_c, 0, 70, 61
1, 119550, Note_off_c, 0, 48, 67
1, 119564, Note_on_c, 0, 72, 69
1, 119627, Note_on_c, 0, 70, 78
1, 119630, Note_off_c, 0, 72, 65
1, 119662, Note_on_c, 0, 69, 73
1, 119664, Note_off_c, 0, 70, 63
1, 119667, Note_on_c, 0, 52, 89
1, 119687, Note_off_c, 0, 52, 74
1, 119722, Note_off_c, 0, 69, 63
1, 119725, Note_on_c, 0, 70, 72
1, 119802, Note_on_c, 0, 53, 95
1, 119803, Note_on_c, 0, 69, 84
1, 119818, Note_off_c, 0, 70, 62
1, 119820, Note_off_c, 0, 53, 74
1, 119834, Note_off_c, 0, 69, 69
1, 119971, Note_on_c, 0, 60, 64
1, 119973, Note_on_c, 0, 57, 61
1, 119994, Note_off_c, 0, 57, 62
1, 120000, Note_off_c, 0, 60, 65
1, 120122, Note_on_c, 0, 57, 53
1, 120137, Note_on_c, 0, 60, 50
1, 120158, Note_off_c, 0, 57, 63
1, 120170, Note_off_c, 0, 60, 63
1, 120284, Note_on_c, 0, 60, 49
1, 120292, Note_on_c, 0, 57, 43
1, 120317, Note_off_c, 0, 57, 57
1, 120324, Note_off_c, 0, 60, 64
1, 120436, Note_on_c, 0, 57, 41
1, 120436, Note_on_c, 0, 60, 47
1, 120469, Note_off_c, 0, 57, 63
1, 120477, Note_off_c, 0, 60, 63
1, 120583, Note_on_c, 0, 60, 46
1, 120584, Note_on_c, 0, 57, 40
1, 120614, Note_off_c, 0, 57, 57
1, 120629, Note_off_c, 0, 60, 60
1, 120719, Note_on_c, 0, 40, 58
1, 120742, Note_on_c, 0, 58, 47
1, 120745, Note_on_c, 0, 60, 38
1, 120768, Note_off_c, 0, 58, 58
1, 120773, Note_off_c, 0, 40, 53
1, 120775, Note_off_c, 0, 60, 54
1, 120800, Note_on_c, 0, 30, 56
1, 120843, Note_off_c, 0, 30, 60
1, 120877, Note_on_c, 0, 58, 51
1, 120889, Note_on_c, 0, 60, 47
1, 120927, Note_off_c, 0, 58, 63
1, 120933, Note_off_c, 0, 60, 61
1, 121028, Note_on_c, 0, 40, 63
1, 121040, Note_on_c, 0, 60, 56
1, 121046, Note_on_c, 0, 58, 53
1, 121071, Note_off_c, 0, 40, 59
1, 121085, Note_off_c, 0, 58, 64
1, 121089, Note_off_c, 0, 60, 57
1, 121120, Note_on_c, 0, 30, 55
1, 121155, Note_off_c, 0, 30, 63
1, 121200, Note_on_c, 0, 58, 53
1, 121207, Note_on_c, 0, 60, 50
1, 121237, Note_off_c, 0, 58, 64
1, 121243, Note_off_c, 0, 60, 63
1, 121341, Note_on_c, 0, 40, 63
1, 121341, Note_on_c, 0, 60, 58
1, 121344, Note_on_c, 0, 58, 57
1, 121376, Note_off_c, 0, 40, 61
1, 121387, Note_off_c, 0, 58, 61
1, 121392, Note_off_c, 0, 60, 57
1, 121417, Note_on_c, 0, 30, 63
1, 121468, Note_off_c, 0, 30, 59
1, 121506, Note_on_c, 0, 58, 54
1, 121521, Note_on_c, 0, 60, 39
1, 121548, Note_off_c, 0, 58, 62
1, 121550, Note_off_c, 0, 60, 57
1, 121642, Note_on_c, 0, 41, 59
1, 121656, Note_on_c, 0, 60, 53
1, 121672, Note_on_c, 0, 57, 48
1, 121686, Note_off_c, 0, 41, 59
1, 121697, Note_off_c, 0, 57, 61
1, 121702, Note_off_c, 0, 60, 60
1, 121717, Note_on_c, 0, 29, 62
1, 121749, Note_off_c, 0, 29, 61
1, 121821, Note_on_c, 0, 57, 33
1, 121830, Note_on_c, 0, 60, 44
1, 121849, Note_off_c, 0, 57, 52
1, 121855, Note_off_c, 0, 60, 57
1, 121953, Note_on_c, 0, 60, 43
1, 121961, Note_on_c, 0, 57, 34
1, 121965, Note_on_c, 0, 72, 63
1, 122015, Note_off_c, 0, 57, 60
1, 122025, Note_off_c, 0, 60, 58
1, 122149, Note_on_c, 0, 57, 39
1, 122152, Note_on_c, 0, 60, 51
1, 122188, Note_off_c, 0, 57, 61
1, 122194, Note_off_c, 0, 60, 61
1, 122278, Note_on_c, 0, 77, 66
1, 122298, Note_on_c, 0, 57, 49
1, 122299, Note_on_c, 0, 60, 58
1, 122343, Note_off_c, 0, 57, 59
1, 122356, Note_off_c, 0, 77, 59
1, 122360, Note_off_c, 0, 60, 56
1, 122367, Note_off_c, 0, 72, 56
1, 122464, Note_on_c, 0, 57, 44
1, 122468, Note_on_c, 0, 60, 49
1, 122495, Note_off_c, 0, 57, 57
1, 122516, Note_off_c, 0, 60, 58
1, 122606, Note_on_c, 0, 40, 58
1, 122608, Note_on_c, 0, 60, 51
1, 122609, Note_on_c, 0, 58, 54
1, 122643, Note_off_c, 0, 40, 63
1, 122651, Note_off_c, 0, 60, 60
1, 122653, Note_off_c, 0, 58, 63
1, 122697, Note_on_c, 0, 30, 42
1, 122732, Note_off_c, 0, 30, 49
1, 122765, Note_on_c, 0, 58, 51
1, 122769, Note_on_c, 0, 60, 54
1, 122802, Note_off_c, 0, 58, 64
1, 122808, Note_off_c, 0, 60, 61
1, 122915, Note_on_c, 0, 40, 65
1, 122915, Note_on_c, 0, 58, 57
1, 122915, Note_on_c, 0, 60, 58
1, 122945, Note_off_c, 0, 40, 65
1, 122951, Note_off_c, 0, 58, 64
1, 122955, Note_off_c, 0, 60, 60
1, 123001, Note_on_c, 0, 30, 60
1, 123041, Note_off_c, 0, 30, 61
1, 123071, Note_on_c, 0, 58, 56
1, 123077, Note_on_c, 0, 60, 56
1, 123110, Note_off_c, 0, 58, 64
1, 123115, Note_off_c, 0, 60, 62
1, 123221, Note_on_c, 0, 40, 66
1, 123226, Note_on_c, 0, 58, 63
1, 123228, Note_on_c, 0, 60, 54
1, 123270, Note_off_c, 0, 60, 61
1, 123271, Note_off_c, 0, 40, 59
1, 123271, Note_off_c, 0, 58, 60
1, 123295, Note_on_c, 0, 30, 66
1, 123341, Note_off_c, 0, 30, 61
1, 123371, Note_on_c, 0, 58, 57
1, 123386, Note_on_c, 0, 60, 48
1, 123409, Note_off_c, 0, 58, 65
1, 123412, Note_off_c, 0, 60, 60
1, 123509, Note_on_c, 0, 60, 53
1, 123511, Note_on_c, 0, 41, 65
1, 123526, Note_on_c, 0, 57, 55
1, 123558, Note_off_c, 0, 41, 63
1, 123558, Note_off_c, 0, 57, 63
1, 123565, Note_off_c, 0, 60, 58
1, 123588, Note_on_c, 0, 29, 62
1, 123619, Note_off_c, 0, 29, 58
1, 123684, Note_on_c, 0, 57, 37
1, 123693, Note_on_c, 0, 60, 41
1, 123712, Note_off_c, 0, 57, 54
1, 123720, Note_off_c, 0, 60, 52
1, 123810, Note_on_c, 0, 60, 54
1, 123819, Note_on_c, 0, 57, 41
1, 123821, Note_on_c, 0, 72, 71
1, 123868, Note_off_c, 0, 57, 58
1, 123877, Note_off_c, 0, 60, 54
1, 123993, Note_on_c, 0, 57, 52
1, 123999, Note_on_c, 0, 60, 56
1, 124040, Note_off_c, 0, 57, 58
1, 124051, Note_off_c, 0, 60, 56
1, 124146, Note_on_c, 0, 81, 74
1, 124162, Note_on_c, 0, 57, 55
1, 124163, Note_on_c, 0, 60, 57
1, 124202, Note_off_c, 0, 57, 61
1, 124214, Note_off_c, 0, 60, 56
1, 124221, Note_off_c, 0, 81, 59
1, 124255, Note_off_c, 0, 72, 64
1, 124316, Note_on_c, 0, 57, 51
1, 124322, Note_on_c, 0, 60, 56
1, 124349, Note_off_c, 0, 57, 63
1, 124366, Note_off_c, 0, 60, 58
1, 124471, Note_on_c, 0, 58, 54
1, 124471, Note_on_c, 0, 60, 51
1, 124494, Note_on_c, 0, 40, 37
1, 124511, Note_off_c, 0, 58, 64
1, 124511, Note_off_c, 0, 60, 63
1, 124526, Note_off_c, 0, 40, 55
1, 124563, Note_on_c, 0, 30, 55
1, 124595, Note_off_c, 0, 30, 61
1, 124621, Note_on_c, 0, 58, 51
1, 124638, Note_on_c, 0, 60, 51
1, 124671, Note_off_c, 0, 58, 64
1, 124679, Note_off_c, 0, 60, 62
1, 124784, Note_on_c, 0, 40, 56
1, 124787, Note_on_c, 0, 60, 59
1, 124792, Note_on_c, 0, 58, 54
1, 124813, Note_off_c, 0, 40, 61
1, 124829, Note_off_c, 0, 58, 64
1, 124832, Note_off_c, 0, 60, 59
1, 124872, Note_on_c, 0, 30, 61
1, 124909, Note_off_c, 0, 30, 60
1, 124944, Note_on_c, 0, 58, 58
1, 124945, Note_on_c, 0, 60, 62
1, 124982, Note_off_c, 0, 58, 64
1, 124987, Note_off_c, 0, 60, 57
1, 125070, Note_on_c, 0, 40, 68
1, 125081, Note_on_c, 0, 58, 66
1, 125101, Note_on_c, 0, 60, 56
1, 125108, Note_off_c, 0, 40, 64
1, 125131, Note_off_c, 0, 58, 58
1, 125134, Note_off_c, 0, 60, 62
1, 125186, Note_on_c, 0, 30, 62
1, 125236, Note_on_c, 0, 60, 51
1, 125239, Note_on_c, 0, 58, 62
1, 125246, Note_off_c, 0, 30, 60
1, 125269, Note_off_c, 0, 60, 63
1, 125270, Note_off_c, 0, 58, 66
1, 125383, Note_on_c, 0, 41, 90
1, 125454, Note_on_c, 0, 29, 85
1, 125457, Note_on_c, 0, 57, 66
1, 125475, Note_off_c, 0, 41, 65
1, 125532, Note_on_c, 0, 65, 74
1, 125544, Note_off_c, 0, 57, 58
1, 125614, Note_on_c, 0, 60, 77
1, 125675, Note_on_c, 0, 69, 74
1, 125681, Note_off_c, 0, 65, 48
1, 125683, Note_off_c, 0, 60, 63
1, 125729, Note_off_c, 0, 69, 66
1, 125755, Note_on_c, 0, 65, 77
1, 125831, Note_on_c, 0, 72, 81
1, 125842, Note_off_c, 0, 65, 57
1, 125889, Note_on_c, 0, 69, 81
1, 125934, Note_off_c, 0, 29, 62
1, 125959, Note_off_c, 0, 72, 57
1, 125965, Note_on_c, 0, 77, 86
1, 125969, Note_off_c, 0, 69, 65
1, 126009, Note_off_c, 0, 77, 62
1, 126033, Note_on_c, 0, 72, 85
1, 126104, Note_on_c, 0, 81, 91
1, 126119, Note_off_c, 0, 72, 62
1, 126170, Note_on_c, 0, 77, 86
1, 126197, Note_off_c, 0, 81, 60
1, 126239, Note_off_c, 0, 77, 63
1, 126257, Note_on_c, 0, 84, 92
1, 126401, Note_on_c, 0, 41, 71
1, 126424, Note_off_c, 0, 41, 69
1, 126564, Note_on_c, 0, 45, 80
1, 126593, Note_off_c, 0, 45, 69
1, 126596, Note_off_c, 0, 84, 64
1, 126705, Note_on_c, 0, 48, 83
1, 126730, Note_off_c, 0, 48, 70
1, 126838, Note_on_c, 0, 75, 74
1, 126844, Note_on_c, 0, 53, 79
1, 126868, Note_off_c, 0, 53, 70
1, 126870, Note_off_c, 0, 75, 64
1, 126898, Note_on_c, 0, 77, 73
1, 126956, Note_on_c, 0, 75, 69
1, 126960, Note_off_c, 0, 77, 62
1, 126997, Note_on_c, 0, 73, 74
1, 127003, Note_off_c, 0, 75, 64
1, 127007, Note_on_c, 0, 57, 70
1, 127029, Note_off_c, 0, 57, 65
1, 127053, Note_off_c, 0, 73, 62
1, 127071, Note_on_c, 0, 75, 69
1, 127141, Note_on_c, 0, 58, 88
1, 127146, Note_on_c, 0, 73, 80
1, 127183, Note_off_c, 0, 75, 64
1, 127217, Note_on_c, 0, 65, 78
1, 127218, Note_off_c, 0, 73, 58
1, 127290, Note_on_c, 0, 70, 79
1, 127292, Note_off_c, 0, 65, 64
1, 127360, Note_on_c, 0, 65, 75
1, 127366, Note_off_c, 0, 70, 63
1, 127431, Note_off_c, 0, 65, 64
1, 127432, Note_on_c, 0, 73, 76
1, 127497, Note_on_c, 0, 70, 75
1, 127526, Note_off_c, 0, 58, 63
1, 127538, Note_off_c, 0, 73, 54
1, 127562, Note_on_c, 0, 77, 75
1, 127565, Note_off_c, 0, 70, 61
1, 127599, Note_off_c, 0, 77, 62
1, 127648, Note_on_c, 0, 73, 82
1, 127690, Note_off_c, 0, 73, 60
1, 127717, Note_on_c, 0, 82, 83
1, 127754, Note_off_c, 0, 82, 66
1, 127789, Note_on_c, 0, 77, 80
1, 127857, Note_on_c, 0, 85, 89
1, 127868, Note_off_c, 0, 77, 60
1, 127911, Note_on_c, 0, 82, 82
1, 127926, Note_off_c, 0, 85, 60
1, 127980, Note_off_c, 0, 82, 63
1, 127995, Note_on_c, 0, 89, 95
1, 128006, Note_on_c, 0, 88, 66
1, 128046, Note_off_c, 0, 88, 0
1, 128046, Note_on_c, 0, 88, 27
1, 128117, Note_on_c, 0, 34, 62
1, 128168, Note_off_c, 0, 34, 59
1, 128200, Note_off_c, 0, 88, 51
1, 128297, Note_on_c, 0, 38, 75
1, 128334, Note_off_c, 0, 38, 61
1, 128341, Note_off_c, 0, 89, 64
1, 128440, Note_on_c, 0, 41, 81
1, 128471, Note_off_c, 0, 41, 68
1, 128574, Note_on_c, 0, 46, 82
1, 128585, Note_on_c, 0, 80, 79
1, 128603, Note_off_c, 0, 46, 65
1, 128609, Note_off_c, 0, 80, 65
1, 128644, Note_on_c, 0, 82, 65
1, 128686, Note_on_c, 0, 80, 79
1, 128704, Note_off_c, 0, 82, 64
1, 128710, Note_on_c, 0, 50, 75
1, 128733, Note_off_c, 0, 50, 67
1, 128735, Note_off_c, 0, 80, 64
1, 128737, Note_on_c, 0, 79, 72
1, 128792, Note_off_c, 0, 79, 58
1, 128793, Note_on_c, 0, 80, 80
1, 128859, Note_on_c, 0, 51, 80
1, 128859, Note_off_c, 0, 80, 65
1, 128868, Note_on_c, 0, 79, 84
1, 128904, Note_off_c, 0, 79, 65
1, 128948, Note_on_c, 0, 54, 66
1, 128958, Note_off_c, 0, 51, 61
1, 128990, Note_off_c, 0, 54, 62
1, 128992, Note_on_c, 0, 55, 71
1, 129032, Note_on_c, 0, 63, 84
1, 129056, Note_off_c, 0, 63, 71
1, 129070, Note_off_c, 0, 55, 64
1, 129110, Note_on_c, 0, 58, 74
1, 129174, Note_on_c, 0, 67, 67
1, 129182, Note_off_c, 0, 58, 63
1, 129245, Note_on_c, 0, 63, 76
1, 129316, Note_off_c, 0, 67, 56
1, 129318, Note_on_c, 0, 70, 73
1, 129324, Note_off_c, 0, 63, 65
1, 129354, Note_off_c, 0, 70, 61
1, 129383, Note_on_c, 0, 67, 79
1, 129461, Note_on_c, 0, 75, 83
1, 129461, Note_off_c, 0, 67, 53
1, 129520, Note_on_c, 0, 70, 80
1, 129574, Note_off_c, 0, 75, 61
1, 129579, Note_off_c, 0, 70, 63
1, 129593, Note_on_c, 0, 79, 80
1, 129651, Note_on_c, 0, 75, 75
1, 129673, Note_off_c, 0, 79, 60
1, 129685, Note_off_c, 0, 75, 67
1, 129751, Note_on_c, 0, 82, 83
1, 129897, Note_on_c, 0, 39, 72
1, 129930, Note_off_c, 0, 39, 61
1, 130060, Note_on_c, 0, 43, 79
1, 130089, Note_off_c, 0, 43, 63
1, 130118, Note_off_c, 0, 82, 63
1, 130208, Note_on_c, 0, 46, 76
1, 130240, Note_off_c, 0, 46, 66
1, 130346, Note_on_c, 0, 73, 67
1, 130347, Note_on_c, 0, 51, 71
1, 130373, Note_off_c, 0, 51, 66
1, 130385, Note_off_c, 0, 73, 60
1, 130406, Note_on_c, 0, 75, 59
1, 130454, Note_on_c, 0, 73, 66
1, 130467, Note_off_c, 0, 75, 64
1, 130495, Note_on_c, 0, 55, 69
1, 130495, Note_off_c, 0, 73, 62
1, 130500, Note_on_c, 0, 72, 63
1, 130522, Note_off_c, 0, 55, 66
1, 130548, Note_off_c, 0, 72, 61
1, 130564, Note_on_c, 0, 73, 63
1, 130633, Note_off_c, 0, 73, 64
1, 130645, Note_on_c, 0, 56, 65
1, 130645, Note_on_c, 0, 72, 77
1, 130665, Note_off_c, 0, 56, 60
1, 130805, Note_on_c, 0, 44, 62
1, 130838, Note_off_c, 0, 44, 65
1, 130959, Note_on_c, 0, 48, 75
1, 130985, Note_off_c, 0, 48, 66
1, 130999, Note_off_c, 0, 72, 54
1, 131108, Note_on_c, 0, 51, 70
1, 131140, Note_off_c, 0, 51, 64
1, 131230, Note_on_c, 0, 72, 65
1, 131241, Note_on_c, 0, 56, 61
1, 131251, Note_off_c, 0, 72, 67
1, 131268, Note_off_c, 0, 56, 66
1, 131271, Note_on_c, 0, 73, 66
1, 131321, Note_on_c, 0, 72, 79
1, 131332, Note_off_c, 0, 73, 62
1, 131375, Note_off_c, 0, 72, 64
1, 131383, Note_on_c, 0, 60, 65
1, 131392, Note_on_c, 0, 71, 64
1, 131411, Note_off_c, 0, 60, 65
1, 131440, Note_on_c, 0, 72, 79
1, 131452, Note_off_c, 0, 71, 62
1, 131464, Note_off_c, 0, 72, 68
1, 131551, Note_on_c, 0, 84, 84
1, 131691, Note_on_c, 0, 44, 70
1, 131725, Note_off_c, 0, 44, 63
1, 131844, Note_on_c, 0, 48, 82
1, 131870, Note_off_c, 0, 48, 71
1, 131894, Note_off_c, 0, 84, 62
1, 132000, Note_on_c, 0, 52, 83
1, 132030, Note_off_c, 0, 52, 68
1, 132146, Note_on_c, 0, 56, 78
1, 132146, Note_on_c, 0, 72, 76
1, 132173, Note_off_c, 0, 56, 66
1, 132173, Note_off_c, 0, 72, 64
1, 132187, Note_on_c, 0, 73, 69
1, 132244, Note_on_c, 0, 72, 75
1, 132246, Note_off_c, 0, 73, 62
1, 132283, Note_on_c, 0, 60, 73
1, 132289, Note_off_c, 0, 72, 64
1, 132290, Note_on_c, 0, 71, 65
1, 132305, Note_off_c, 0, 60, 67
1, 132340, Note_on_c, 0, 72, 77
1, 132361, Note_off_c, 0, 71, 61
1, 132379, Note_off_c, 0, 72, 66
1, 132466, Note_on_c, 0, 84, 91
1, 132605, Note_on_c, 0, 44, 68
1, 132645, Note_off_c, 0, 44, 65
1, 132767, Note_on_c, 0, 48, 77
1, 132796, Note_off_c, 0, 48, 69
1, 132806, Note_off_c, 0, 84, 60
1, 132925, Note_on_c, 0, 53, 73
1, 132952, Note_off_c, 0, 53, 67
1, 133071, Note_on_c, 0, 72, 63
1, 133077, Note_on_c, 0, 56, 60
1, 133089, Note_off_c, 0, 72, 66
1, 133098, Note_off_c, 0, 56, 64
1, 133115, Note_on_c, 0, 73, 55
1, 133169, Note_on_c, 0, 72, 67
1, 133171, Note_off_c, 0, 73, 61
1, 133216, Note_on_c, 0, 60, 56
1, 133216, Note_off_c, 0, 72, 63
1, 133227, Note_on_c, 0, 71, 59
1, 133244, Note_off_c, 0, 60, 63
1, 133287, Note_on_c, 0, 72, 69
1, 133298, Note_off_c, 0, 71, 59
1, 133323, Note_off_c, 0, 72, 65
1, 133483, Note_on_c, 0, 84, 58
1, 133646, Note_on_c, 0, 44, 43
1, 133691, Note_off_c, 0, 44, 60
1, 133807, Note_on_c, 0, 48, 49
1, 133840, Note_off_c, 0, 48, 66
1, 133888, Note_off_c, 0, 84, 61
1, 133966, Note_on_c, 0, 53, 57
1, 134000, Note_off_c, 0, 53, 67
1, 134126, Note_on_c, 0, 56, 48
1, 134174, Note_off_c, 0, 56, 58
1, 134282, Note_on_c, 0, 60, 50
1, 134460, Note_on_c, 0, 65, 48
1, 134511, Note_off_c, 0, 60, 36
1, 134619, Note_on_c, 0, 68, 54
1, 134648, Note_off_c, 0, 65, 50
1, 134797, Note_on_c, 0, 72, 53
1, 134867, Note_off_c, 0, 68, 48
1, 134955, Note_on_c, 0, 44, 48
1, 135043, Note_off_c, 0, 72, 52
1, 135121, Note_on_c, 0, 48, 59
1, 135128, Note_off_c, 0, 44, 57
1, 135271, Note_on_c, 0, 53, 65
1, 135337, Note_off_c, 0, 48, 37
1, 135435, Note_on_c, 0, 56, 64
1, 135479, Note_off_c, 0, 53, 58
1, 135581, Note_on_c, 0, 60, 60
1, 135629, Note_off_c, 0, 56, 61
1, 135739, Note_on_c, 0, 65, 67
1, 135865, Note_off_c, 0, 60, 35
1, 135889, Note_on_c, 0, 68, 74
1, 135966, Note_off_c, 0, 65, 58
1, 136058, Note_on_c, 0, 72, 68
1, 136144, Note_off_c, 0, 68, 57
1, 136201, Note_on_c, 0, 44, 63
1, 136287, Note_off_c, 0, 72, 57
1, 136365, Note_on_c, 0, 48, 67
1, 136406, Note_off_c, 0, 44, 57
1, 136522, Note_on_c, 0, 53, 69
1, 136568, Note_off_c, 0, 48, 59
1, 136694, Note_on_c, 0, 56, 63
1, 136733, Note_off_c, 0, 53, 62
1, 136815, Control_c, 0, 64, 45
1, 136830, Control_c, 0, 64, 54
1, 136842, Note_on_c, 0, 60, 58
1, 136844, Control_c, 0, 64, 59
1, 136849, Note_on_c, 0, 44, 53
1, 136859, Control_c, 0, 64, 62
1, 136874, Control_c, 0, 64, 65
1, 136889, Control_c, 0, 64, 67
1, 136904, Control_c, 0, 64, 70
1, 136918, Control_c, 0, 64, 75
1, 136933, Control_c, 0, 64, 78
1, 136948, Control_c, 0, 64, 81
1, 136963, Control_c, 0, 64, 83
1, 136978, Control_c, 0, 64, 85
1, 136992, Control_c, 0, 64, 87
1, 137000, Note_off_c, 0, 56, 27
1, 137000, Note_on_c, 0, 65, 68
1, 137005, Note_on_c, 0, 48, 60
1, 137007, Control_c, 0, 64, 90
1, 137022, Control_c, 0, 64, 92
1, 137036, Control_c, 0, 64, 94
1, 137051, Control_c, 0, 64, 95
1, 137064, Note_off_c, 0, 44, 33
1, 137066, Control_c, 0, 64, 97
1, 137081, Control_c, 0, 64, 100
1, 137096, Control_c, 0, 64, 102
1, 137110, Control_c, 0, 64, 105
1, 137125, Control_c, 0, 64, 107
1, 137140, Control_c, 0, 64, 110
1, 137147, Note_on_c, 0, 68, 72
1, 137154, Note_on_c, 0, 53, 64
1, 137155, Control_c, 0, 64, 112
1, 137170, Control_c, 0, 64, 114
1, 137185, Control_c, 0, 64, 116
1, 137191, Note_off_c, 0, 48, 52
1, 137194, Note_off_c, 0, 60, 36
1, 137200, Control_c, 0, 64, 117
1, 137214, Control_c, 0, 64, 119
1, 137216, Note_off_c, 0, 65, 48
1, 137229, Control_c, 0, 64, 121
1, 137244, Control_c, 0, 64, 123
1, 137259, Control_c, 0, 64, 124
1, 137274, Control_c, 0, 64, 125
1, 137289, Control_c, 0, 64, 126
1, 137304, Control_c, 0, 64, 127
1, 137313, Note_on_c, 0, 56, 62
1, 137313, Note_on_c, 0, 72, 73
1, 137318, Control_c, 0, 64, 127
1, 137343, Note_off_c, 0, 53, 56
1, 137375, Note_off_c, 0, 68, 57
1, 137478, Note_on_c, 0, 44, 61
1, 137480, Note_on_c, 0, 60, 74
1, 137555, Note_off_c, 0, 56, 34
1, 137630, Note_on_c, 0, 65, 78
1, 137632, Note_on_c, 0, 48, 64
1, 137664, Note_off_c, 0, 72, 56
1, 137703, Note_off_c, 0, 44, 53
1, 137783, Note_on_c, 0, 68, 82
1, 137787, Note_on_c, 0, 53, 67
1, 137846, Note_off_c, 0, 60, 33
1, 137861, Note_off_c, 0, 48, 34
1, 137861, Note_off_c, 0, 65, 54
1, 137941, Note_on_c, 0, 72, 79
1, 137946, Note_on_c, 0, 56, 67
1, 137948, Control_c, 0, 64, 116
1, 137963, Control_c, 0, 64, 105
1, 137978, Control_c, 0, 64, 95
1, 137992, Control_c, 0, 64, 86
1, 137998, Note_off_c, 0, 68, 58
1, 138007, Control_c, 0, 64, 76
1, 138019, Note_off_c, 0, 53, 50
1, 138022, Control_c, 0, 64, 71
1, 138037, Control_c, 0, 64, 70
1, 138052, Control_c, 0, 64, 73
1, 138067, Control_c, 0, 64, 78
1, 138082, Control_c, 0, 64, 82
1, 138091, Note_on_c, 0, 44, 66
1, 138097, Control_c, 0, 64, 84
1, 138097, Note_on_c, 0, 60, 76
1, 138119, Control_c, 0, 64, 87
1, 138134, Control_c, 0, 64, 89
1, 138147, Note_off_c, 0, 56, 51
1, 138148, Control_c, 0, 64, 91
1, 138163, Control_c, 0, 64, 92
1, 138237, Control_c, 0, 64, 91
1, 138252, Control_c, 0, 64, 87
1, 138258, Note_on_c, 0, 65, 83
1, 138261, Note_on_c, 0, 48, 70
1, 138267, Control_c, 0, 64, 79
1, 138282, Control_c, 0, 64, 68
1, 138286, Note_off_c, 0, 72, 57
1, 138297, Control_c, 0, 64, 0
1, 138420, Note_on_c, 0, 53, 74
1, 138425, Note_on_c, 0, 68, 88
1, 138463, Note_off_c, 0, 60, 50
1, 138475, Note_off_c, 0, 48, 56
1, 138497, Note_off_c, 0, 44, 35
1, 138502, Note_off_c, 0, 65, 59
1, 138596, Note_on_c, 0, 56, 72
1, 138597, Note_on_c, 0, 72, 85
1, 138628, Note_off_c, 0, 68, 62
1, 138650, Note_off_c, 0, 53, 60
1, 138767, Note_on_c, 0, 60, 77
1, 138776, Note_on_c, 0, 44, 73
1, 138827, Note_off_c, 0, 56, 54
1, 138947, Note_on_c, 0, 48, 68
1, 138948, Note_on_c, 0, 65, 81
1, 138993, Note_off_c, 0, 72, 52
1, 139143, Note_on_c, 0, 53, 68
1, 139149, Note_on_c, 0, 68, 90
1, 139196, Note_off_c, 0, 60, 37
1, 139250, Note_off_c, 0, 65, 58
1, 139445, Note_on_c, 0, 72, 84
1, 139453, Note_on_c, 0, 56, 69
1, 139473, Note_off_c, 0, 68, 62
1, 139750, Control_c, 0, 64, 45
1, 139764, Control_c, 0, 64, 57
1, 139779, Control_c, 0, 64, 60
1, 139794, Control_c, 0, 64, 62
1, 139799, Note_on_c, 0, 65, 68
1, 139809, Control_c, 0, 64, 64
1, 139824, Control_c, 0, 64, 64
1, 139829, Note_off_c, 0, 72, 58
1, 139830, Note_off_c, 0, 65, 65
1, 139853, Control_c, 0, 64, 64
1, 139868, Control_c, 0, 64, 63
1, 139884, Control_c, 0, 64, 62
1, 139899, Control_c, 0, 64, 58
1, 139909, Note_on_c, 0, 65, 63
1, 139914, Control_c, 0, 64, 48
1, 139929, Control_c, 0, 64, 0
1, 140201, Note_off_c, 0, 48, 39
1, 140227, Note_off_c, 0, 44, 39
1, 140243, Note_off_c, 0, 53, 56
1, 140264, Note_off_c, 0, 56, 58
1, 140296, Note_off_c, 0, 65, 63
1, 140891, Note_on_c, 0, 72, 64
1, 140904, Note_on_c, 0, 60, 39
1, 141003, Control_c, 0, 64, 45
1, 141018, Control_c, 0, 64, 60
1, 141033, Control_c, 0, 64, 63
1, 141048, Control_c, 0, 64, 64
1, 141063, Control_c, 0, 64, 65
1, 141077, Control_c, 0, 64, 68
1, 141092, Control_c, 0, 64, 71
1, 141114, Control_c, 0, 64, 74
1, 141129, Control_c, 0, 64, 76
1, 141144, Control_c, 0, 64, 77
1, 141173, Control_c, 0, 64, 78
1, 141226, Note_on_c, 0, 53, 45
1, 141239, Note_on_c, 0, 65, 56
1, 141249, Note_off_c, 0, 72, 24
1, 141263, Note_off_c, 0, 53, 49
1, 141270, Note_off_c, 0, 60, 30
1, 141274, Note_off_c, 0, 65, 53
1, 141277, Control_c, 0, 64, 77
1, 141292, Control_c, 0, 64, 76
1, 141307, Control_c, 0, 64, 72
1, 141322, Control_c, 0, 64, 66
1, 141336, Control_c, 0, 64, 47
1, 141338, Note_on_c, 0, 65, 48
1, 141349, Note_on_c, 0, 53, 42
1, 141349, Control_c, 0, 64, 0
1, 141739, Note_off_c, 0, 53, 36
1, 141757, Note_off_c, 0, 65, 39
1, 142247, Control_c, 0, 64, 23
1, 142262, Control_c, 0, 64, 38
1, 142278, Control_c, 0, 64, 47
1, 142293, Control_c, 0, 64, 53
1, 142308, Control_c, 0, 64, 57
1, 142323, Control_c, 0, 64, 60
1, 142337, Control_c, 0, 64, 62
1, 142352, Control_c, 0, 64, 63
1, 142367, Control_c, 0, 64, 64
1, 142381, Control_c, 0, 64, 66
1, 142396, Control_c, 0, 64, 67
1, 142411, Control_c, 0, 64, 69
1, 142426, Control_c, 0, 64, 71
1, 142441, Control_c, 0, 64, 74
1, 142455, Note_on_c, 0, 65, 38
1, 142455, Control_c, 0, 64, 77
1, 142470, Note_on_c, 0, 60, 27
1, 142470, Control_c, 0, 64, 79
1, 142473, Note_on_c, 0, 63, 30
1, 142485, Control_c, 0, 64, 80
1, 142487, Note_on_c, 0, 39, 26
1, 142492, Note_on_c, 0, 32, 28
1, 142500, Control_c, 0, 64, 82
1, 142515, Control_c, 0, 64, 84
1, 142529, Control_c, 0, 64, 85
1, 142544, Control_c, 0, 64, 87
1, 142559, Control_c, 0, 64, 89
1, 142574, Control_c, 0, 64, 91
1, 142589, Control_c, 0, 64, 92
1, 142611, Control_c, 0, 64, 95
1, 142626, Control_c, 0, 64, 96
1, 142641, Control_c, 0, 64, 98
1, 142655, Control_c, 0, 64, 99
1, 142665, Note_off_c, 0, 63, 34
1, 142670, Control_c, 0, 64, 100
1, 142685, Control_c, 0, 64, 101
1, 142700, Control_c, 0, 64, 101
1, 142701, Note_off_c, 0, 39, 36
1, 142702, Note_off_c, 0, 60, 27
1, 142707, Note_off_c, 0, 32, 40
1, 142715, Control_c, 0, 64, 102
1, 142729, Control_c, 0, 64, 103
1, 142738, Note_off_c, 0, 65, 33
1, 142744, Control_c, 0, 64, 103
1, 142759, Control_c, 0, 64, 104
1, 142789, Control_c, 0, 64, 104
1, 142804, Control_c, 0, 64, 105
1, 142878, Control_c, 0, 64, 105
1, 142928, Note_on_c, 0, 65, 45
1, 142942, Note_on_c, 0, 63, 39
1, 142950, Note_on_c, 0, 60, 32
1, 142968, Note_on_c, 0, 39, 22
1, 142969, Note_on_c, 0, 32, 25
1, 143041, Control_c, 0, 64, 106
1, 143101, Control_c, 0, 64, 106
1, 143111, Note_off_c, 0, 63, 27
1, 143135, Note_off_c, 0, 39, 38
1, 143139, Note_off_c, 0, 60, 22
1, 143145, Control_c, 0, 64, 107
1, 143150, Note_off_c, 0, 32, 39
1, 143159, Note_off_c, 0, 65, 30
1, 143190, Control_c, 0, 64, 107
1, 143249, Control_c, 0, 64, 108
1, 143309, Note_on_c, 0, 65, 53
1, 143321, Note_on_c, 0, 63, 49
1, 143323, Control_c, 0, 64, 108
1, 143325, Note_on_c, 0, 60, 42
1, 143344, Note_on_c, 0, 39, 33
1, 143346, Note_on_c, 0, 32, 30
1, 143390, Control_c, 0, 64, 109
1, 143449, Control_c, 0, 64, 109
1, 143471, Note_off_c, 0, 63, 38
1, 143483, Note_off_c, 0, 65, 59
1, 143522, Note_off_c, 0, 39, 33
1, 143531, Note_off_c, 0, 32, 37
1, 143541, Note_off_c, 0, 60, 26
1, 143826, Note_on_c, 0, 60, 28
1, 143827, Note_on_c, 0, 66, 51
1, 143828, Note_on_c, 0, 63, 47
1, 143849, Control_c, 0, 64, 108
1, 143856, Note_on_c, 0, 39, 34
1, 143863, Note_on_c, 0, 33, 37
1, 143864, Control_c, 0, 64, 107
1, 143880, Control_c, 0, 64, 106
1, 143894, Control_c, 0, 64, 105
1, 143909, Control_c, 0, 64, 101
1, 143924, Control_c, 0, 64, 96
1, 143939, Control_c, 0, 64, 87
1, 143954, Control_c, 0, 64, 78
1, 143968, Control_c, 0, 64, 68
1, 143983, Control_c, 0, 64, 35
1, 143998, Control_c, 0, 64, 0
1, 144168, Control_c, 0, 64, 24
1, 144183, Control_c, 0, 64, 55
1, 144198, Control_c, 0, 64, 62
1, 144213, Control_c, 0, 64, 64
1, 144227, Control_c, 0, 64, 67
1, 144242, Control_c, 0, 64, 71
1, 144257, Control_c, 0, 64, 77
1, 144272, Control_c, 0, 64, 82
1, 144287, Control_c, 0, 64, 85
1, 144301, Control_c, 0, 64, 86
1, 144316, Control_c, 0, 64, 88
1, 144331, Control_c, 0, 64, 91
1, 144346, Control_c, 0, 64, 94
1, 144360, Control_c, 0, 64, 97
1, 144375, Control_c, 0, 64, 99
1, 144390, Control_c, 0, 64, 101
1, 144405, Control_c, 0, 64, 104
1, 144420, Control_c, 0, 64, 107
1, 144434, Control_c, 0, 64, 109
1, 144449, Control_c, 0, 64, 111
1, 144464, Control_c, 0, 64, 113
1, 144479, Control_c, 0, 64, 116
1, 144494, Control_c, 0, 64, 119
1, 144509, Control_c, 0, 64, 122
1, 144524, Control_c, 0, 64, 127
1, 144660, Note_off_c, 0, 33, 42
1, 144703, Note_off_c, 0, 39, 50
1, 144721, Note_off_c, 0, 60, 31
1, 144728, Note_off_c, 0, 63, 33
1, 144761, Note_off_c, 0, 66, 30
1, 145214, Note_on_c, 0, 66, 58
1, 145221, Note_on_c, 0, 63, 49
1, 145235, Note_on_c, 0, 60, 33
1, 145244, Note_on_c, 0, 45, 39
1, 145245, Note_on_c, 0, 51, 36
1, 145248, Note_on_c, 0, 54, 38
1, 145257, Control_c, 0, 64, 113
1, 145272, Control_c, 0, 64, 98
1, 145287, Control_c, 0, 64, 80
1, 145302, Control_c, 0, 64, 63
1, 145317, Control_c, 0, 64, 0
1, 145361, Control_c, 0, 64, 61
1, 145376, Control_c, 0, 64, 71
1, 145391, Control_c, 0, 64, 79
1, 145406, Control_c, 0, 64, 86
1, 145421, Control_c, 0, 64, 91
1, 145436, Control_c, 0, 64, 96
1, 145450, Control_c, 0, 64, 103
1, 145465, Control_c, 0, 64, 113
1, 145480, Control_c, 0, 64, 123
1, 145495, Control_c, 0, 64, 127
1, 145496, Note_off_c, 0, 63, 37
1, 145502, Note_off_c, 0, 66, 56
1, 145514, Note_off_c, 0, 51, 40
1, 145522, Note_off_c, 0, 60, 35
1, 145530, Note_off_c, 0, 45, 42
1, 145533, Note_off_c, 0, 54, 38
1, 145707, Note_on_c, 0, 66, 79
1, 145712, Note_on_c, 0, 63, 71
1, 145725, Note_on_c, 0, 60, 57
1, 145730, Note_on_c, 0, 51, 52
1, 145734, Note_on_c, 0, 54, 49
1, 145734, Note_on_c, 0, 45, 47
1, 145884, Note_off_c, 0, 63, 55
1, 145906, Note_off_c, 0, 60, 53
1, 145923, Note_off_c, 0, 51, 52
1, 145927, Note_off_c, 0, 45, 52
1, 145931, Note_off_c, 0, 54, 48
1, 145949, Note_off_c, 0, 66, 56
1, 146214, Note_on_c, 0, 66, 85
1, 146220, Note_on_c, 0, 60, 69
1, 146222, Note_on_c, 0, 63, 73
1, 146235, Note_on_c, 0, 45, 47
1, 146237, Note_on_c, 0, 54, 49
1, 146238, Note_on_c, 0, 51, 48
1, 146420, Note_off_c, 0, 60, 55
1, 146460, Note_off_c, 0, 63, 53
1, 146539, Note_off_c, 0, 66, 63
1, 146548, Note_off_c, 0, 51, 30
1, 146594, Note_off_c, 0, 54, 32
1, 146600, Note_off_c, 0, 45, 36
1, 147003, Note_on_c, 0, 67, 76
1, 147014, Note_on_c, 0, 58, 70
1, 147014, Note_on_c, 0, 63, 70
1, 147019, Note_on_c, 0, 51, 45
1, 147031, Note_on_c, 0, 55, 49
1, 147037, Note_on_c, 0, 46, 46
1, 147082, Control_c, 0, 64, 108
1, 147105, Control_c, 0, 64, 97
1, 147120, Control_c, 0, 64, 87
1, 147134, Control_c, 0, 64, 76
1, 147149, Control_c, 0, 64, 63
1, 147164, Control_c, 0, 64, 0
1, 147593, Control_c, 0, 64, 26
1, 147608, Control_c, 0, 64, 54
1, 147623, Control_c, 0, 64, 61
1, 147638, Control_c, 0, 64, 63
1, 147652, Control_c, 0, 64, 65
1, 147667, Control_c, 0, 64, 68
1, 147682, Control_c, 0, 64, 72
1, 147696, Control_c, 0, 64, 77
1, 147711, Control_c, 0, 64, 81
1, 147726, Control_c, 0, 64, 82
1, 147741, Control_c, 0, 64, 83
1, 147756, Control_c, 0, 64, 86
1, 147770, Control_c, 0, 64, 89
1, 147785, Control_c, 0, 64, 92
1, 147800, Control_c, 0, 64, 93
1, 147815, Control_c, 0, 64, 95
1, 147830, Control_c, 0, 64, 96
1, 147852, Control_c, 0, 64, 98
1, 147868, Control_c, 0, 64, 102
1, 147868, Note_off_c, 0, 63, 36
1, 147871, Note_off_c, 0, 67, 32
1, 147883, Control_c, 0, 64, 105
1, 147895, Note_off_c, 0, 58, 33
1, 147898, Control_c, 0, 64, 108
1, 147913, Control_c, 0, 64, 111
1, 147913, Note_off_c, 0, 55, 35
1, 147928, Control_c, 0, 64, 114
1, 147940, Note_off_c, 0, 51, 32
1, 147943, Control_c, 0, 64, 117
1, 147957, Control_c, 0, 64, 119
1, 147972, Control_c, 0, 64, 122
1, 147975, Note_off_c, 0, 46, 36
1, 147987, Control_c, 0, 64, 125
1, 148001, Control_c, 0, 64, 127
1, 148721, Control_c, 0, 64, 114
1, 148728, Note_on_c, 0, 67, 58
1, 148731, Note_on_c, 0, 62, 55
1, 148734, Note_on_c, 0, 34, 57
1, 148736, Control_c, 0, 64, 102
1, 148739, Note_on_c, 0, 46, 52
1, 148740, Note_on_c, 0, 56, 42
1, 148750, Control_c, 0, 64, 90
1, 148764, Note_off_c, 0, 34, 63
1, 148765, Control_c, 0, 64, 75
1, 148767, Note_off_c, 0, 46, 54
1, 148780, Control_c, 0, 64, 49
1, 148789, Note_off_c, 0, 56, 48
1, 148795, Control_c, 0, 64, 0
1, 148813, Note_off_c, 0, 62, 44
1, 148872, Note_off_c, 0, 67, 33
1, 148891, Note_on_c, 0, 65, 49
1, 148920, Note_off_c, 0, 65, 62
1, 149013, Note_on_c, 0, 34, 52
1, 149016, Note_on_c, 0, 65, 65
1, 149039, Note_on_c, 0, 46, 5
1, 149040, Note_off_c, 0, 34, 55
1, 149053, Note_on_c, 0, 62, 13
1, 149072, Note_off_c, 0, 65, 62
1, 149080, Note_on_c, 0, 67, 59
1, 149091, Note_off_c, 0, 46, 26
1, 149093, Note_off_c, 0, 62, 37
1, 149152, Note_on_c, 0, 65, 48
1, 149159, Note_off_c, 0, 67, 52
1, 149195, Note_on_c, 0, 64, 65
1, 149201, Note_off_c, 0, 65, 62
1, 149263, Note_on_c, 0, 62, 38
1, 149266, Note_off_c, 0, 64, 48
1, 149267, Note_on_c, 0, 34, 60
1, 149275, Note_on_c, 0, 46, 55
1, 149290, Note_on_c, 0, 65, 67
1, 149298, Note_off_c, 0, 34, 65
1, 149301, Note_off_c, 0, 46, 60
1, 149311, Note_off_c, 0, 62, 45
1, 149313, Poly_aftertouch_c, 0, 56, 127
1, 149353, Poly_aftertouch_c, 0, 56, 0
1, 149375, Note_off_c, 0, 65, 58
1, 149429, Note_on_c, 0, 67, 42
1, 149454, Note_off_c, 0, 67, 57
1, 149558, Note_on_c, 0, 55, 57
1, 149561, Note_on_c, 0, 39, 59
1, 149561, Note_on_c, 0, 51, 55
1, 149564, Note_on_c, 0, 63, 61
1, 149586, Note_off_c, 0, 51, 63
1, 149588, Note_off_c, 0, 55, 66
1, 149594, Note_off_c, 0, 39, 62
1, 149612, Note_off_c, 0, 63, 61
1, 149628, Note_on_c, 0, 65, 60
1, 149692, Note_off_c, 0, 65, 57
1, 149697, Note_on_c, 0, 63, 62
1, 149737, Note_off_c, 0, 63, 63
1, 149754, Note_on_c, 0, 62, 57
1, 149807, Note_off_c, 0, 62, 55
1, 149824, Note_on_c, 0, 63, 63
1, 149851, Note_off_c, 0, 63, 67
1, 149912, Note_on_c, 0, 65, 65
1, 149940, Note_off_c, 0, 65, 68
1, 150003, Note_on_c, 0, 67, 64
1, 150031, Note_off_c, 0, 67, 66
1, 150105, Note_on_c, 0, 68, 66
1, 150147, Note_off_c, 0, 68, 54
1, 150196, Note_on_c, 0, 70, 64
1, 150221, Note_off_c, 0, 70, 65
1, 150293, Note_on_c, 0, 72, 70
1, 150319, Note_off_c, 0, 72, 66
1, 150398, Note_on_c, 0, 74, 59
1, 150419, Note_off_c, 0, 74, 67
1, 150504, Note_on_c, 0, 75, 60
1, 150523, Note_off_c, 0, 75, 65
1, 150598, Note_on_c, 0, 77, 66
1, 150619, Note_off_c, 0, 77, 63
1, 150696, Note_on_c, 0, 78, 70
1, 150719, Note_off_c, 0, 78, 69
1, 150797, Note_on_c, 0, 79, 70
1, 150822, Note_off_c, 0, 79, 66
1, 150906, Note_on_c, 0, 80, 64
1, 150936, Note_off_c, 0, 80, 66
1, 151005, Note_on_c, 0, 81, 70
1, 151033, Note_off_c, 0, 81, 61
1, 151110, Note_on_c, 0, 82, 73
1, 151156, Note_off_c, 0, 82, 62
1, 151211, Note_on_c, 0, 83, 68
1, 151242, Note_off_c, 0, 83, 58
1, 151409, Note_on_c, 0, 84, 71
1, 151430, Note_on_c, 0, 72, 39
1, 151437, Note_on_c, 0, 68, 39
1, 151438, Note_on_c, 0, 75, 36
1, 151692, Note_off_c, 0, 84, 49
1, 151717, Note_on_c, 0, 77, 54
1, 151737, Note_off_c, 0, 77, 60
1, 151803, Note_on_c, 0, 77, 58
1, 152116, Note_off_c, 0, 75, 63
1, 152122, Note_off_c, 0, 72, 62
1, 152140, Note_off_c, 0, 77, 60
1, 152164, Note_off_c, 0, 68, 63
1, 152513, Note_on_c, 0, 71, 35
1, 152580, Note_off_c, 0, 71, 54
1, 152583, Note_on_c, 0, 72, 51
1, 152609, Note_on_c, 0, 56, 35
1, 152614, Note_on_c, 0, 60, 31
1, 152623, Note_on_c, 0, 63, 27
1, 152913, Note_on_c, 0, 65, 44
1, 152915, Note_off_c, 0, 72, 37
1, 152939, Note_off_c, 0, 65, 59
1, 153013, Note_on_c, 0, 65, 49
1, 153092, Note_off_c, 0, 65, 0
1, 153092, Note_on_c, 0, 65, 18
1, 153379, Note_off_c, 0, 63, 43
1, 153385, Note_off_c, 0, 60, 37
1, 153413, Note_off_c, 0, 65, 54
1, 153420, Note_off_c, 0, 56, 55
1, 153903, Control_c, 0, 64, 34
1, 153918, Control_c, 0, 64, 46
1, 153933, Control_c, 0, 64, 54
1, 153947, Control_c, 0, 64, 59
1, 153962, Control_c, 0, 64, 62
1, 153977, Control_c, 0, 64, 64
1, 153991, Note_on_c, 0, 53, 37
1, 153992, Control_c, 0, 64, 66
1, 154007, Control_c, 0, 64, 69
1, 154009, Note_on_c, 0, 51, 31
1, 154017, Note_on_c, 0, 32, 31
1, 154021, Control_c, 0, 64, 73
1, 154026, Note_on_c, 0, 44, 23
1, 154034, Note_on_c, 0, 48, 20
1, 154036, Control_c, 0, 64, 77
1, 154051, Control_c, 0, 64, 81
1, 154066, Control_c, 0, 64, 83
1, 154080, Control_c, 0, 64, 84
1, 154094, Control_c, 0, 64, 86
1, 154109, Control_c, 0, 64, 89
1, 154124, Control_c, 0, 64, 91
1, 154138, Control_c, 0, 64, 94
1, 154153, Control_c, 0, 64, 96
1, 154168, Control_c, 0, 64, 98
1, 154171, Note_off_c, 0, 51, 30
1, 154183, Control_c, 0, 64, 101
1, 154198, Control_c, 0, 64, 103
1, 154203, Note_off_c, 0, 48, 40
1, 154206, Note_off_c, 0, 53, 41
1, 154210, Note_off_c, 0, 44, 38
1, 154212, Control_c, 0, 64, 105
1, 154225, Note_off_c, 0, 32, 39
1, 154227, Control_c, 0, 64, 107
1, 154242, Control_c, 0, 64, 108
1, 154258, Control_c, 0, 64, 109
1, 154273, Control_c, 0, 64, 111
1, 154288, Control_c, 0, 64, 112
1, 154302, Control_c, 0, 64, 112
1, 154317, Control_c, 0, 64, 113
1, 154347, Control_c, 0, 64, 113
1, 154391, Control_c, 0, 64, 114
1, 154426, Note_on_c, 0, 53, 59
1, 154446, Note_on_c, 0, 51, 45
1, 154450, Control_c, 0, 64, 114
1, 154463, Note_on_c, 0, 44, 31
1, 154464, Note_on_c, 0, 32, 32
1, 154469, Note_on_c, 0, 48, 32
1, 154586, Note_off_c, 0, 51, 35
1, 154608, Note_off_c, 0, 48, 27
1, 154622, Note_off_c, 0, 53, 53
1, 154632, Note_off_c, 0, 32, 42
1, 154649, Note_off_c, 0, 44, 39
1, 154818, Note_on_c, 0, 53, 63
1, 154835, Note_on_c, 0, 51, 52
1, 154841, Note_on_c, 0, 44, 39
1, 154847, Note_on_c, 0, 32, 39
1, 154864, Note_on_c, 0, 48, 29
1, 154873, Control_c, 0, 64, 115
1, 154910, Note_off_c, 0, 48, 46
1, 154930, Note_off_c, 0, 51, 50
1, 154987, Note_off_c, 0, 53, 61
1, 155010, Note_off_c, 0, 32, 40
1, 155042, Note_off_c, 0, 44, 37
1, 155382, Note_on_c, 0, 54, 62
1, 155385, Control_c, 0, 64, 114
1, 155399, Control_c, 0, 64, 114
1, 155403, Note_on_c, 0, 51, 49
1, 155412, Note_on_c, 0, 48, 44
1, 155414, Control_c, 0, 64, 111
1, 155417, Note_on_c, 0, 45, 35
1, 155429, Control_c, 0, 64, 105
1, 155431, Note_on_c, 0, 33, 34
1, 155444, Control_c, 0, 64, 98
1, 155458, Control_c, 0, 64, 91
1, 155473, Control_c, 0, 64, 83
1, 155488, Control_c, 0, 64, 73
1, 155503, Control_c, 0, 64, 58
1, 155517, Control_c, 0, 64, 0
1, 155920, Control_c, 0, 64, 44
1, 155934, Control_c, 0, 64, 61
1, 155949, Control_c, 0, 64, 64
1, 155964, Control_c, 0, 64, 67
1, 155979, Control_c, 0, 64, 71
1, 155994, Control_c, 0, 64, 77
1, 156008, Control_c, 0, 64, 82
1, 156023, Control_c, 0, 64, 84
1, 156038, Control_c, 0, 64, 86
1, 156053, Control_c, 0, 64, 89
1, 156068, Control_c, 0, 64, 91
1, 156090, Control_c, 0, 64, 94
1, 156104, Control_c, 0, 64, 97
1, 156113, Note_off_c, 0, 48, 43
1, 156119, Control_c, 0, 64, 99
1, 156134, Control_c, 0, 64, 101
1, 156149, Control_c, 0, 64, 103
1, 156164, Control_c, 0, 64, 105
1, 156174, Note_off_c, 0, 54, 55
1, 156179, Control_c, 0, 64, 107
1, 156179, Note_off_c, 0, 51, 36
1, 156182, Note_off_c, 0, 33, 43
1, 156194, Control_c, 0, 64, 109
1, 156208, Control_c, 0, 64, 111
1, 156223, Control_c, 0, 64, 112
1, 156238, Control_c, 0, 64, 114
1, 156253, Control_c, 0, 64, 115
1, 156254, Note_off_c, 0, 45, 42
1, 156268, Control_c, 0, 64, 115
1, 156282, Control_c, 0, 64, 116
1, 156297, Control_c, 0, 64, 116
1, 156956, Control_c, 0, 64, 116
1, 156962, Note_on_c, 0, 78, 64
1, 156971, Control_c, 0, 64, 113
1, 156981, Note_on_c, 0, 72, 29
1, 156983, Note_on_c, 0, 75, 47
1, 156986, Control_c, 0, 64, 107
1, 157000, Note_on_c, 0, 69, 39
1, 157001, Control_c, 0, 64, 100
1, 157016, Control_c, 0, 64, 90
1, 157030, Control_c, 0, 64, 78
1, 157045, Control_c, 0, 64, 57
1, 157060, Control_c, 0, 64, 0
1, 157134, Control_c, 0, 64, 60
1, 157148, Control_c, 0, 64, 68
1, 157163, Control_c, 0, 64, 74
1, 157178, Control_c, 0, 64, 80
1, 157191, Note_off_c, 0, 75, 33
1, 157193, Control_c, 0, 64, 85
1, 157208, Control_c, 0, 64, 89
1, 157223, Control_c, 0, 64, 92
1, 157225, Note_off_c, 0, 78, 52
1, 157237, Control_c, 0, 64, 96
1, 157252, Control_c, 0, 64, 99
1, 157267, Control_c, 0, 64, 102
1, 157268, Note_off_c, 0, 69, 52
1, 157272, Note_off_c, 0, 72, 40
1, 157282, Control_c, 0, 64, 105
1, 157297, Control_c, 0, 64, 107
1, 157312, Control_c, 0, 64, 110
1, 157327, Control_c, 0, 64, 112
1, 157341, Control_c, 0, 64, 114
1, 157356, Control_c, 0, 64, 116
1, 157371, Control_c, 0, 64, 117
1, 157430, Control_c, 0, 64, 114
1, 157432, Note_on_c, 0, 78, 81
1, 157445, Control_c, 0, 64, 106
1, 157449, Note_on_c, 0, 75, 70
1, 157453, Note_on_c, 0, 72, 44
1, 157458, Note_on_c, 0, 69, 37
1, 157461, Control_c, 0, 64, 94
1, 157476, Control_c, 0, 64, 81
1, 157491, Control_c, 0, 64, 66
1, 157505, Control_c, 0, 64, 0
1, 157535, Control_c, 0, 64, 59
1, 157550, Control_c, 0, 64, 70
1, 157565, Control_c, 0, 64, 78
1, 157586, Control_c, 0, 64, 86
1, 157601, Control_c, 0, 64, 91
1, 157616, Control_c, 0, 64, 94
1, 157631, Control_c, 0, 64, 99
1, 157646, Note_off_c, 0, 75, 33
1, 157646, Control_c, 0, 64, 104
1, 157660, Control_c, 0, 64, 109
1, 157675, Control_c, 0, 64, 114
1, 157684, Note_off_c, 0, 78, 56
1, 157690, Control_c, 0, 64, 118
1, 157705, Control_c, 0, 64, 123
1, 157712, Note_off_c, 0, 69, 57
1, 157720, Control_c, 0, 64, 127
1, 157738, Note_off_c, 0, 72, 38
1, 157955, Note_on_c, 0, 78, 85
1, 157957, Control_c, 0, 64, 117
1, 157966, Note_on_c, 0, 69, 44
1, 157968, Note_on_c, 0, 75, 71
1, 157972, Control_c, 0, 64, 102
1, 157978, Note_on_c, 0, 72, 36
1, 157987, Control_c, 0, 64, 87
1, 158002, Control_c, 0, 64, 68
1, 158017, Control_c, 0, 64, 0
1, 158061, Control_c, 0, 64, 63
1, 158076, Control_c, 0, 64, 70
1, 158091, Control_c, 0, 64, 77
1, 158105, Control_c, 0, 64, 84
1, 158120, Control_c, 0, 64, 87
1, 158135, Control_c, 0, 64, 91
1, 158150, Control_c, 0, 64, 95
1, 158165, Control_c, 0, 64, 100
1, 158177, Note_off_c, 0, 75, 34
1, 158179, Control_c, 0, 64, 105
1, 158194, Control_c, 0, 64, 110
1, 158209, Control_c, 0, 64, 113
1, 158224, Control_c, 0, 64, 116
1, 158239, Note_off_c, 0, 69, 58
1, 158239, Control_c, 0, 64, 121
1, 158255, Control_c, 0, 64, 127
1, 158270, Control_c, 0, 64, 127
1, 158289, Note_off_c, 0, 78, 57
1, 158322, Note_off_c, 0, 72, 54
1, 158749, Note_on_c, 0, 79, 81
1, 158752, Note_on_c, 0, 75, 81
1, 158766, Note_on_c, 0, 70, 59
1, 158796, Control_c, 0, 64, 114
1, 158811, Control_c, 0, 64, 104
1, 158826, Control_c, 0, 64, 96
1, 158841, Control_c, 0, 64, 88
1, 158856, Control_c, 0, 64, 78
1, 158871, Control_c, 0, 64, 65
1, 158885, Control_c, 0, 64, 0
1, 159367, Control_c, 0, 64, 17
1, 159382, Control_c, 0, 64, 58
1, 159397, Control_c, 0, 64, 63
1, 159412, Control_c, 0, 64, 65
1, 159426, Control_c, 0, 64, 68
1, 159441, Control_c, 0, 64, 71
1, 159456, Control_c, 0, 64, 76
1, 159471, Control_c, 0, 64, 80
1, 159485, Control_c, 0, 64, 82
1, 159500, Control_c, 0, 64, 84
1, 159515, Control_c, 0, 64, 86
1, 159530, Control_c, 0, 64, 88
1, 159545, Control_c, 0, 64, 91
1, 159559, Control_c, 0, 64, 94
1, 159574, Control_c, 0, 64, 96
1, 159589, Control_c, 0, 64, 98
1, 159604, Control_c, 0, 64, 100
1, 159619, Control_c, 0, 64, 102
1, 159634, Control_c, 0, 64, 104
1, 159646, Note_off_c, 0, 79, 51
1, 159649, Control_c, 0, 64, 105
1, 159664, Control_c, 0, 64, 106
1, 159667, Note_off_c, 0, 70, 51
1, 159674, Note_off_c, 0, 75, 53
1, 159678, Control_c, 0, 64, 106
1, 159693, Control_c, 0, 64, 107
1, 159708, Control_c, 0, 64, 108
1, 159723, Control_c, 0, 64, 109
1, 159752, Control_c, 0, 64, 109
1, 159767, Control_c, 0, 64, 110
1, 159782, Control_c, 0, 64, 110
1, 159797, Control_c, 0, 64, 111
1, 159834, Control_c, 0, 64, 111
1, 159849, Control_c, 0, 64, 112
1, 159879, Control_c, 0, 64, 112
1, 159923, Control_c, 0, 64, 113
1, 160012, Control_c, 0, 64, 113
1, 160530, Control_c, 0, 64, 113
1, 160545, Control_c, 0, 64, 110
1, 160560, Control_c, 0, 64, 105
1, 160581, Note_on_c, 0, 67, 52
1, 160582, Control_c, 0, 64, 97
1, 160588, Note_on_c, 0, 62, 44
1, 160590, Note_on_c, 0, 34, 55
1, 160597, Note_on_c, 0, 46, 45
1, 160597, Control_c, 0, 64, 85
1, 160603, Note_on_c, 0, 56, 28
1, 160612, Control_c, 0, 64, 73
1, 160618, Note_off_c, 0, 34, 59
1, 160626, Control_c, 0, 64, 56
1, 160627, Note_off_c, 0, 46, 48
1, 160641, Control_c, 0, 64, 0
1, 160648, Note_off_c, 0, 56, 46
1, 160665, Note_off_c, 0, 62, 51
1, 160748, Note_off_c, 0, 67, 27
1, 160753, Note_on_c, 0, 65, 46
1, 160790, Note_off_c, 0, 65, 66
1, 160880, Note_on_c, 0, 34, 62
1, 160887, Note_on_c, 0, 65, 62
1, 160889, Note_on_c, 0, 46, 46
1, 160907, Note_off_c, 0, 34, 60
1, 160918, Note_off_c, 0, 46, 49
1, 160928, Note_off_c, 0, 65, 64
1, 160954, Note_on_c, 0, 67, 55
1, 161027, Note_on_c, 0, 65, 51
1, 161043, Note_off_c, 0, 67, 37
1, 161064, Note_on_c, 0, 64, 61
1, 161064, Note_off_c, 0, 65, 65
1, 161115, Note_on_c, 0, 62, 50
1, 161133, Note_on_c, 0, 34, 62
1, 161135, Note_on_c, 0, 46, 59
1, 161146, Note_off_c, 0, 64, 59
1, 161153, Note_on_c, 0, 65, 61
1, 161166, Note_off_c, 0, 34, 64
1, 161166, Note_off_c, 0, 46, 64
1, 161167, Note_off_c, 0, 62, 56
1, 161214, Poly_aftertouch_c, 0, 56, 0
1, 161216, Note_off_c, 0, 65, 56
1, 161282, Note_on_c, 0, 67, 55
1, 161330, Note_off_c, 0, 67, 62
1, 161437, Note_on_c, 0, 63, 63
1, 161443, Note_on_c, 0, 39, 60
1, 161451, Note_on_c, 0, 51, 52
1, 161452, Note_on_c, 0, 55, 52
1, 161475, Note_off_c, 0, 51, 60
1, 161475, Note_off_c, 0, 39, 63
1, 161561, Note_off_c, 0, 55, 0
1, 161561, Note_on_c, 0, 55, 3
1, 161593, Note_on_c, 0, 51, 44
1, 161625, Note_off_c, 0, 51, 61
1, 161669, Note_off_c, 0, 55, 35
1, 161690, Note_off_c, 0, 63, 42
1, 161731, Note_on_c, 0, 51, 51
1, 161756, Note_off_c, 0, 51, 61
1, 161869, Note_on_c, 0, 51, 50
1, 161904, Note_off_c, 0, 51, 62
1, 162016, Note_on_c, 0, 51, 50
1, 162045, Note_off_c, 0, 51, 58
1, 162159, Note_on_c, 0, 51, 50
1, 162194, Note_off_c, 0, 51, 63
1, 162253, Note_on_c, 0, 86, 64
1, 162282, Note_on_c, 0, 63, 57
1, 162292, Note_on_c, 0, 51, 55
1, 162297, Note_on_c, 0, 87, 78
1, 162300, Note_on_c, 0, 60, 48
1, 162308, Note_off_c, 0, 86, 61
1, 162337, Note_off_c, 0, 51, 59
1, 162451, Note_on_c, 0, 51, 45
1, 162479, Note_off_c, 0, 51, 59
1, 162517, Note_off_c, 0, 87, 36
1, 162522, Note_on_c, 0, 80, 56
1, 162542, Note_off_c, 0, 80, 62
1, 162574, Note_on_c, 0, 51, 48
1, 162596, Note_on_c, 0, 80, 65
1, 162620, Note_off_c, 0, 51, 62
1, 162731, Note_on_c, 0, 51, 48
1, 162773, Note_off_c, 0, 51, 61
1, 162791, Note_off_c, 0, 80, 62
1, 162879, Note_on_c, 0, 51, 51
1, 162920, Note_off_c, 0, 51, 61
1, 163018, Note_on_c, 0, 51, 51
1, 163043, Note_off_c, 0, 60, 59
1, 163056, Note_off_c, 0, 63, 56
1, 163061, Note_off_c, 0, 51, 61
1, 163098, Note_on_c, 0, 74, 52
1, 163141, Note_off_c, 0, 74, 61
1, 163150, Note_on_c, 0, 75, 60
1, 163163, Note_on_c, 0, 62, 45
1, 163163, Note_on_c, 0, 51, 41
1, 163169, Note_on_c, 0, 58, 47
1, 163196, Note_off_c, 0, 51, 57
1, 163294, Note_on_c, 0, 51, 51
1, 163309, Note_off_c, 0, 75, 51
1, 163343, Note_off_c, 0, 51, 61
1, 163365, Note_on_c, 0, 67, 54
1, 163387, Note_off_c, 0, 67, 60
1, 163428, Note_on_c, 0, 67, 62
1, 163452, Note_on_c, 0, 51, 52
1, 163485, Note_off_c, 0, 51, 63
1, 163586, Note_on_c, 0, 51, 57
1, 163629, Note_off_c, 0, 51, 61
1, 163643, Note_off_c, 0, 67, 57
1, 163731, Note_on_c, 0, 51, 54
1, 163765, Note_off_c, 0, 51, 63
1, 163861, Note_on_c, 0, 51, 52
1, 163899, Note_off_c, 0, 58, 61
1, 163900, Note_off_c, 0, 51, 62
1, 163901, Note_off_c, 0, 62, 56
1, 164013, Note_on_c, 0, 51, 37
1, 164022, Note_on_c, 0, 75, 50
1, 164025, Note_on_c, 0, 60, 46
1, 164032, Note_on_c, 0, 56, 45
1, 164065, Note_on_c, 0, 65, 45
1, 164065, Note_off_c, 0, 51, 60
1, 164098, Note_off_c, 0, 65, 64
1, 164105, Note_off_c, 0, 75, 52
1, 164157, Note_on_c, 0, 51, 53
1, 164185, Note_off_c, 0, 60, 35
1, 164194, Note_off_c, 0, 56, 57
1, 164196, Note_off_c, 0, 51, 61
1, 164295, Note_on_c, 0, 75, 61
1, 164299, Note_on_c, 0, 51, 47
1, 164299, Note_on_c, 0, 60, 49
1, 164309, Note_on_c, 0, 56, 50
1, 164356, Note_off_c, 0, 51, 59
1, 164364, Note_on_c, 0, 65, 60
1, 164382, Note_off_c, 0, 75, 61
1, 164396, Note_off_c, 0, 65, 66
1, 164442, Note_on_c, 0, 51, 59
1, 164449, Note_off_c, 0, 60, 58
1, 164451, Note_off_c, 0, 56, 35
1, 164482, Note_off_c, 0, 51, 61
1, 164582, Note_on_c, 0, 74, 56
1, 164582, Note_on_c, 0, 56, 54
1, 164588, Note_on_c, 0, 51, 41
1, 164600, Note_on_c, 0, 59, 52
1, 164630, Note_off_c, 0, 51, 60
1, 164646, Note_on_c, 0, 65, 54
1, 164671, Note_off_c, 0, 74, 63
1, 164689, Note_off_c, 0, 65, 61
1, 164698, Note_off_c, 0, 59, 31
1, 164719, Note_off_c, 0, 56, 0
1, 164722, Note_on_c, 0, 51, 57
1, 164760, Note_off_c, 0, 51, 61
1, 164766, Poly_aftertouch_c, 0, 56, 0
1, 164878, Note_on_c, 0, 75, 59
1, 164883, Note_on_c, 0, 51, 40
1, 164888, Note_on_c, 0, 58, 47
1, 164893, Note_on_c, 0, 55, 47
1, 164928, Note_off_c, 0, 51, 61
1, 164940, Note_off_c, 0, 58, 48
1, 164951, Note_on_c, 0, 63, 61
1, 164976, Note_off_c, 0, 55, 49
1, 164977, Note_off_c, 0, 75, 52
1, 164988, Note_off_c, 0, 63, 63
1, 165026, Note_on_c, 0, 51, 55
1, 165061, Note_off_c, 0, 51, 63
1, 165184, Note_on_c, 0, 51, 50
1, 165217, Note_off_c, 0, 51, 62
1, 165330, Note_on_c, 0, 51, 50
1, 165362, Note_off_c, 0, 51, 61
1, 165476, Note_on_c, 0, 51, 48
1, 165514, Note_off_c, 0, 51, 63
1, 165620, Note_on_c, 0, 51, 48
1, 165646, Note_off_c, 0, 51, 59
1, 165730, Note_on_c, 0, 51, 49
1, 165754, Note_on_c, 0, 63, 49
1, 165761, Note_on_c, 0, 60, 50
1, 165801, Note_off_c, 0, 51, 57
1, 165811, Note_off_c, 0, 63, 0
1, 165811, Note_on_c, 0, 63, 17
1, 165831, Note_on_c, 0, 87, 60
1, 165915, Note_on_c, 0, 51, 51
1, 165915, Note_off_c, 0, 87, 63
1, 165916, Note_on_c, 0, 86, 70
1, 165949, Note_off_c, 0, 51, 62
1, 165970, Note_off_c, 0, 86, 62
1, 165985, Note_on_c, 0, 87, 67
1, 166043, Note_off_c, 0, 87, 64
1, 166047, Note_on_c, 0, 51, 54
1, 166052, Note_on_c, 0, 86, 74
1, 166089, Note_off_c, 0, 51, 62
1, 166106, Note_off_c, 0, 86, 60
1, 166114, Note_on_c, 0, 87, 70
1, 166177, Note_off_c, 0, 87, 64
1, 166186, Note_on_c, 0, 89, 69
1, 166198, Note_on_c, 0, 51, 53
1, 166242, Note_on_c, 0, 87, 69
1, 166246, Note_off_c, 0, 51, 61
1, 166340, Note_on_c, 0, 80, 65
1, 166370, Note_on_c, 0, 51, 41
1, 166381, Note_off_c, 0, 89, 32
1, 166400, Note_off_c, 0, 51, 57
1, 166466, Note_off_c, 0, 87, 62
1, 166475, Note_off_c, 0, 80, 62
1, 166491, Note_on_c, 0, 51, 56
1, 166525, Note_off_c, 0, 60, 62
1, 166529, Note_off_c, 0, 63, 58
1, 166536, Note_off_c, 0, 51, 62
1, 166648, Note_on_c, 0, 62, 60
1, 166666, Note_on_c, 0, 58, 55
1, 166688, Note_on_c, 0, 51, 18
1, 166713, Note_off_c, 0, 51, 46
1, 166715, Note_on_c, 0, 75, 61
1, 166788, Note_off_c, 0, 75, 64
1, 166791, Note_on_c, 0, 74, 69
1, 166806, Note_on_c, 0, 51, 56
1, 166836, Note_off_c, 0, 51, 63
1, 166849, Note_off_c, 0, 74, 63
1, 166862, Note_on_c, 0, 75, 66
1, 166921, Note_off_c, 0, 75, 65
1, 166930, Note_on_c, 0, 51, 57
1, 166930, Note_on_c, 0, 74, 68
1, 166975, Note_off_c, 0, 51, 61
1, 166992, Note_on_c, 0, 75, 67
1, 167005, Note_off_c, 0, 74, 54
1, 167061, Note_off_c, 0, 75, 65
1, 167065, Note_on_c, 0, 77, 69
1, 167086, Note_on_c, 0, 51, 58
1, 167124, Note_on_c, 0, 75, 65
1, 167124, Note_off_c, 0, 51, 61
1, 167173, Note_off_c, 0, 77, 49
1, 167222, Note_on_c, 0, 67, 66
1, 167224, Note_on_c, 0, 51, 47
1, 167268, Note_off_c, 0, 51, 60
1, 167354, Note_off_c, 0, 75, 64
1, 167357, Note_off_c, 0, 67, 61
1, 167372, Note_on_c, 0, 51, 58
1, 167395, Note_off_c, 0, 62, 60
1, 167397, Note_off_c, 0, 58, 64
1, 167411, Note_off_c, 0, 51, 61
1, 167526, Note_on_c, 0, 60, 57
1, 167536, Note_on_c, 0, 56, 46
1, 167539, Note_on_c, 0, 51, 31
1, 167581, Note_off_c, 0, 51, 54
1, 167594, Note_on_c, 0, 65, 54
1, 167654, Note_off_c, 0, 65, 59
1, 167668, Note_on_c, 0, 74, 57
1, 167679, Note_on_c, 0, 51, 56
1, 167707, Note_off_c, 0, 60, 52
1, 167715, Note_off_c, 0, 51, 61
1, 167715, Note_off_c, 0, 56, 62
1, 167721, Note_on_c, 0, 75, 61
1, 167742, Note_off_c, 0, 74, 64
1, 167764, Note_off_c, 0, 75, 60
1, 167816, Note_on_c, 0, 60, 65
1, 167818, Note_on_c, 0, 51, 49
1, 167830, Note_on_c, 0, 56, 53
1, 167873, Note_off_c, 0, 51, 59
1, 167874, Note_on_c, 0, 65, 66
1, 167939, Note_off_c, 0, 65, 61
1, 167951, Note_on_c, 0, 51, 62
1, 167951, Note_on_c, 0, 74, 63
1, 167982, Note_off_c, 0, 60, 57
1, 167990, Note_off_c, 0, 56, 60
1, 168017, Note_on_c, 0, 75, 65
1, 168019, Note_off_c, 0, 51, 56
1, 168027, Note_off_c, 0, 74, 64
1, 168069, Note_off_c, 0, 75, 61
1, 168108, Note_on_c, 0, 59, 65
1, 168112, Note_on_c, 0, 56, 60
1, 168170, Note_on_c, 0, 65, 68
1, 168220, Note_off_c, 0, 59, 54
1, 168226, Note_off_c, 0, 65, 58
1, 168231, Note_on_c, 0, 51, 48
1, 168238, Note_on_c, 0, 73, 73
1, 168272, Note_off_c, 0, 56, 62
1, 168275, Note_off_c, 0, 51, 64
1, 168308, Note_on_c, 0, 74, 70
1, 168386, Note_off_c, 0, 73, 50
1, 168393, Note_on_c, 0, 75, 75
1, 168395, Note_on_c, 0, 63, 78
1, 168397, Note_on_c, 0, 55, 71
1, 168398, Note_on_c, 0, 51, 65
1, 168414, Note_off_c, 0, 74, 61
1, 168451, Note_off_c, 0, 75, 65
1, 168462, Note_off_c, 0, 63, 63
1, 168476, Note_on_c, 0, 65, 66
1, 168506, Note_off_c, 0, 65, 66
1, 168550, Note_on_c, 0, 63, 74
1, 168613, Note_off_c, 0, 63, 63
1, 168617, Note_on_c, 0, 62, 80
1, 168669, Note_off_c, 0, 62, 59
1, 168690, Note_on_c, 0, 63, 71
1, 168719, Note_off_c, 0, 55, 58
1, 168744, Note_off_c, 0, 63, 66
1, 168752, Note_on_c, 0, 65, 75
1, 168758, Note_off_c, 0, 51, 58
1, 168824, Note_on_c, 0, 67, 87
1, 168830, Note_off_c, 0, 65, 65
1, 168883, Note_on_c, 0, 68, 81
1, 168890, Note_off_c, 0, 67, 60
1, 168958, Note_on_c, 0, 70, 77
1, 168961, Note_off_c, 0, 68, 67
1, 168981, Note_off_c, 0, 70, 70
1, 169119, Note_on_c, 0, 55, 73
1, 169122, Note_on_c, 0, 67, 72
1, 169138, Note_off_c, 0, 67, 66
1, 169144, Note_off_c, 0, 55, 67
1, 169265, Note_on_c, 0, 65, 80
1, 169266, Note_on_c, 0, 53, 77
1, 169288, Note_off_c, 0, 65, 70
1, 169292, Note_off_c, 0, 53, 70
1, 169411, Note_on_c, 0, 68, 78
1, 169416, Note_on_c, 0, 56, 67
1, 169433, Note_off_c, 0, 68, 70
1, 169448, Note_off_c, 0, 56, 64
1, 169556, Note_on_c, 0, 50, 65
1, 169563, Note_on_c, 0, 62, 76
1, 169591, Note_off_c, 0, 50, 67
1, 169593, Note_off_c, 0, 62, 64
1, 169711, Note_on_c, 0, 65, 76
1, 169729, Note_on_c, 0, 53, 54
1, 169735, Note_off_c, 0, 65, 70
1, 169752, Note_off_c, 0, 53, 58
1, 169862, Note_on_c, 0, 46, 66
1, 169866, Note_on_c, 0, 58, 74
1, 169891, Note_off_c, 0, 58, 67
1, 169891, Note_off_c, 0, 46, 63
1, 170010, Note_on_c, 0, 50, 65
1, 170015, Note_on_c, 0, 62, 67
1, 170039, Note_off_c, 0, 50, 65
1, 170042, Note_off_c, 0, 62, 65
1, 170147, Note_on_c, 0, 51, 66
1, 170159, Note_on_c, 0, 63, 65
1, 170220, Note_off_c, 0, 63, 65
1, 170230, Note_on_c, 0, 65, 65
1, 170291, Note_on_c, 0, 63, 63
1, 170310, Note_off_c, 0, 65, 63
1, 170358, Note_on_c, 0, 62, 72
1, 170358, Note_off_c, 0, 63, 64
1, 170419, Note_on_c, 0, 63, 68
1, 170431, Note_off_c, 0, 62, 60
1, 170466, Note_off_c, 0, 63, 66
1, 170494, Note_on_c, 0, 65, 74
1, 170506, Note_off_c, 0, 51, 62
1, 170556, Note_on_c, 0, 67, 79
1, 170558, Note_off_c, 0, 65, 61
1, 170604, Note_on_c, 0, 68, 71
1, 170618, Note_off_c, 0, 67, 61
1, 170647, Note_off_c, 0, 68, 63
1, 170690, Note_on_c, 0, 72, 78
1, 170697, Note_on_c, 0, 60, 69
1, 170767, Note_on_c, 0, 70, 73
1, 170772, Note_off_c, 0, 60, 47
1, 170776, Note_on_c, 0, 58, 63
1, 170797, Note_off_c, 0, 72, 62
1, 170825, Note_on_c, 0, 68, 76
1, 170827, Note_on_c, 0, 56, 65
1, 170841, Note_off_c, 0, 58, 64
1, 170866, Note_off_c, 0, 70, 59
1, 170878, Note_on_c, 0, 67, 71
1, 170909, Note_off_c, 0, 68, 59
1, 170910, Note_off_c, 0, 56, 63
1, 170941, Note_on_c, 0, 55, 55
1, 170946, Note_on_c, 0, 65, 79
1, 170949, Note_on_c, 0, 53, 69
1, 170957, Note_off_c, 0, 67, 60
1, 170966, Note_off_c, 0, 55, 59
1, 170970, Note_off_c, 0, 65, 68
1, 170980, Note_off_c, 0, 53, 68
1, 171118, Note_on_c, 0, 68, 66
1, 171122, Note_on_c, 0, 56, 59
1, 171146, Note_off_c, 0, 68, 68
1, 171149, Note_off_c, 0, 56, 66
1, 171251, Note_on_c, 0, 50, 59
1, 171257, Note_on_c, 0, 62, 71
1, 171279, Note_off_c, 0, 50, 65
1, 171284, Note_off_c, 0, 62, 65
1, 171402, Note_on_c, 0, 65, 63
1, 171413, Note_on_c, 0, 53, 48
1, 171430, Note_off_c, 0, 65, 67
1, 171440, Note_off_c, 0, 53, 54
1, 171540, Note_on_c, 0, 58, 76
1, 171545, Note_on_c, 0, 46, 69
1, 171564, Note_off_c, 0, 58, 69
1, 171585, Note_off_c, 0, 46, 59
1, 171686, Note_on_c, 0, 50, 73
1, 171692, Note_on_c, 0, 62, 68
1, 171718, Note_off_c, 0, 50, 64
1, 171720, Note_off_c, 0, 62, 65
1, 171837, Note_on_c, 0, 51, 76
1, 171844, Note_on_c, 0, 63, 76
1, 171868, Note_off_c, 0, 51, 66
1, 171876, Note_off_c, 0, 63, 68
1, 171996, Note_on_c, 0, 55, 56
1, 171999, Note_on_c, 0, 67, 60
1, 172021, Note_off_c, 0, 55, 61
1, 172030, Note_off_c, 0, 67, 65
1, 172137, Note_on_c, 0, 60, 66
1, 172143, Note_on_c, 0, 48, 52
1, 172165, Note_off_c, 0, 60, 66
1, 172169, Note_off_c, 0, 48, 61
1, 172278, Note_on_c, 0, 63, 60
1, 172288, Note_on_c, 0, 51, 52
1, 172307, Note_off_c, 0, 63, 67
1, 172318, Note_off_c, 0, 51, 64
1, 172424, Note_on_c, 0, 57, 59
1, 172432, Note_on_c, 0, 45, 53
1, 172454, Note_off_c, 0, 57, 64
1, 172470, Note_off_c, 0, 45, 64
1, 172571, Note_on_c, 0, 60, 57
1, 172583, Note_on_c, 0, 48, 51
1, 172604, Note_off_c, 0, 60, 64
1, 172607, Note_off_c, 0, 48, 60
1, 172721, Note_on_c, 0, 53, 61
1, 172723, Note_on_c, 0, 41, 58
1, 172755, Note_off_c, 0, 53, 66
1, 172770, Note_off_c, 0, 41, 61
1, 172863, Note_on_c, 0, 45, 64
1, 172866, Note_on_c, 0, 57, 62
1, 172895, Note_off_c, 0, 57, 64
1, 172903, Note_off_c, 0, 45, 63
1, 173002, Note_on_c, 0, 48, 82
1, 173013, Note_on_c, 0, 60, 62
1, 173035, Note_off_c, 0, 48, 67
1, 173043, Note_off_c, 0, 60, 65
1, 173146, Note_on_c, 0, 52, 81
1, 173147, Note_on_c, 0, 64, 74
1, 173173, Note_off_c, 0, 52, 69
1, 173179, Note_off_c, 0, 64, 62
1, 173285, Note_on_c, 0, 53, 72
1, 173287, Note_on_c, 0, 65, 75
1, 173319, Note_off_c, 0, 65, 68
1, 173328, Note_off_c, 0, 53, 64
1, 173430, Note_on_c, 0, 57, 70
1, 173435, Note_on_c, 0, 45, 69
1, 173461, Note_off_c, 0, 57, 65
1, 173478, Note_off_c, 0, 45, 63
1, 173578, Note_on_c, 0, 46, 71
1, 173578, Note_on_c, 0, 58, 73
1, 173607, Note_off_c, 0, 58, 69
1, 173637, Note_off_c, 0, 46, 56
1, 173714, Note_on_c, 0, 50, 66
1, 173719, Note_on_c, 0, 62, 71
1, 173750, Note_off_c, 0, 62, 63
1, 173780, Note_off_c, 0, 50, 61
1, 173848, Note_on_c, 0, 53, 79
1, 173858, Note_on_c, 0, 65, 83
1, 173878, Note_off_c, 0, 53, 68
1, 173891, Note_off_c, 0, 65, 66
1, 173996, Note_on_c, 0, 69, 82
1, 174000, Note_on_c, 0, 57, 75
1, 174021, Note_off_c, 0, 69, 68
1, 174028, Note_off_c, 0, 57, 64
1, 174140, Note_on_c, 0, 70, 82
1, 174142, Note_on_c, 0, 58, 83
1, 174183, Note_off_c, 0, 58, 65
1, 174185, Note_off_c, 0, 70, 63
1, 174285, Note_on_c, 0, 74, 79
1, 174287, Note_on_c, 0, 62, 86
1, 174313, Note_off_c, 0, 62, 66
1, 174317, Note_off_c, 0, 74, 65
1, 174424, Note_on_c, 0, 77, 94
1, 174428, Note_on_c, 0, 65, 92
1, 174466, Note_off_c, 0, 77, 62
1, 174468, Note_off_c, 0, 65, 69
1, 174557, Note_on_c, 0, 69, 89
1, 174559, Note_on_c, 0, 81, 96
1, 174586, Note_off_c, 0, 69, 68
1, 174589, Note_off_c, 0, 81, 64
1, 174713, Control_c, 0, 64, 40
1, 174725, Note_on_c, 0, 82, 99
1, 174726, Note_on_c, 0, 70, 100
1, 174728, Control_c, 0, 64, 66
1, 174743, Control_c, 0, 64, 75
1, 174757, Control_c, 0, 64, 83
1, 174759, Note_off_c, 0, 82, 65
1, 174760, Note_off_c, 0, 70, 65
1, 174772, Control_c, 0, 64, 88
1, 174787, Control_c, 0, 64, 91
1, 174809, Control_c, 0, 64, 93
1, 174824, Control_c, 0, 64, 95
1, 174839, Control_c, 0, 64, 96
1, 174854, Control_c, 0, 64, 97
1, 174869, Control_c, 0, 64, 98
1, 174883, Control_c, 0, 64, 99
1, 174898, Control_c, 0, 64, 100
1, 174913, Control_c, 0, 64, 101
1, 174928, Control_c, 0, 64, 102
1, 174943, Control_c, 0, 64, 103
1, 174957, Control_c, 0, 64, 103
1, 174972, Control_c, 0, 64, 104
1, 174987, Control_c, 0, 64, 105
1, 175016, Control_c, 0, 64, 104
1, 175032, Note_on_c, 0, 58, 102
1, 175033, Control_c, 0, 64, 94
1, 175048, Control_c, 0, 64, 81
1, 175062, Control_c, 0, 64, 64
1, 175069, Note_off_c, 0, 58, 69
1, 175077, Control_c, 0, 64, 0
1, 175351, Note_on_c, 0, 46, 98
1, 175380, Note_on_c, 0, 44, 49
1, 175399, Note_off_c, 0, 46, 63
1, 175413, Note_off_c, 0, 44, 36
1, 175686, Note_on_c, 0, 34, 89
1, 175760, Note_off_c, 0, 34, 64
1, 176026, Note_on_c, 0, 32, 84
1, 176058, Note_off_c, 0, 32, 67
1, 176270, Note_on_c, 0, 82, 74
1, 176286, Note_off_c, 0, 82, 70
1, 176504, Note_on_c, 0, 87, 82
1, 176508, Note_on_c, 0, 31, 50
1, 176541, Note_off_c, 0, 31, 48
1, 176721, Note_on_c, 0, 58, 49
1, 176761, Note_off_c, 0, 58, 66
1, 176798, Note_on_c, 0, 63, 60
1, 176839, Note_off_c, 0, 63, 61
1, 176884, Note_on_c, 0, 55, 43
1, 176914, Note_off_c, 0, 55, 56
1, 176950, Note_on_c, 0, 63, 50
1, 176982, Note_off_c, 0, 63, 57
1, 176986, Note_off_c, 0, 87, 56
1, 177012, Note_on_c, 0, 86, 69
1, 177020, Note_on_c, 0, 58, 51
1, 177061, Note_off_c, 0, 58, 65
1, 177082, Note_on_c, 0, 87, 79
1, 177087, Note_off_c, 0, 86, 63
1, 177087, Note_on_c, 0, 63, 60
1, 177126, Note_off_c, 0, 63, 61
1, 177150, Note_on_c, 0, 89, 78
1, 177154, Note_on_c, 0, 55, 60
1, 177157, Note_off_c, 0, 87, 63
1, 177189, Note_off_c, 0, 55, 62
1, 177230, Note_on_c, 0, 63, 55
1, 177274, Note_off_c, 0, 63, 62
1, 177299, Note_on_c, 0, 58, 57
1, 177305, Note_on_c, 0, 87, 74
1, 177309, Note_off_c, 0, 89, 64
1, 177326, Note_off_c, 0, 87, 70
1, 177341, Note_off_c, 0, 58, 62
1, 177391, Note_on_c, 0, 63, 49
1, 177429, Note_off_c, 0, 63, 53
1, 177477, Note_on_c, 0, 55, 52
1, 177477, Note_on_c, 0, 82, 72
1, 177522, Note_off_c, 0, 55, 61
1, 177547, Note_on_c, 0, 63, 52
1, 177594, Note_off_c, 0, 63, 62
1, 177621, Note_on_c, 0, 58, 54
1, 177662, Note_off_c, 0, 58, 64
1, 177697, Note_on_c, 0, 63, 51
1, 177733, Note_off_c, 0, 63, 58
1, 177771, Note_on_c, 0, 55, 50
1, 177809, Note_off_c, 0, 55, 63
1, 177841, Note_on_c, 0, 63, 59
1, 177886, Note_off_c, 0, 63, 60
1, 177902, Note_off_c, 0, 82, 61
1, 177922, Note_on_c, 0, 58, 52
1, 177922, Note_on_c, 0, 84, 67
1, 177966, Note_off_c, 0, 58, 62
1, 177989, Note_on_c, 0, 82, 76
1, 178000, Note_on_c, 0, 63, 52
1, 178020, Note_off_c, 0, 84, 61
1, 178032, Note_off_c, 0, 63, 60
1, 178051, Note_on_c, 0, 80, 73
1, 178064, Note_on_c, 0, 55, 58
1, 178107, Note_off_c, 0, 82, 53
1, 178114, Note_off_c, 0, 55, 57
1, 178138, Note_on_c, 0, 63, 55
1, 178186, Note_off_c, 0, 63, 61
1, 178189, Note_off_c, 0, 80, 59
1, 178201, Note_on_c, 0, 79, 69
1, 178211, Note_on_c, 0, 58, 59
1, 178226, Note_off_c, 0, 79, 68
1, 178258, Note_off_c, 0, 58, 60
1, 178297, Note_on_c, 0, 63, 54
1, 178337, Note_off_c, 0, 63, 61
1, 178361, Note_on_c, 0, 83, 68
1, 178372, Note_on_c, 0, 56, 56
1, 178405, Note_off_c, 0, 83, 58
1, 178413, Note_off_c, 0, 56, 61
1, 178417, Note_on_c, 0, 84, 70
1, 178440, Note_off_c, 0, 84, 70
1, 178442, Note_on_c, 0, 63, 51
1, 178485, Note_off_c, 0, 63, 63
1, 178509, Note_on_c, 0, 60, 54
1, 178568, Note_off_c, 0, 60, 56
1, 178595, Note_on_c, 0, 63, 53
1, 178640, Note_off_c, 0, 63, 64
1, 178642, Note_on_c, 0, 83, 75
1, 178654, Note_on_c, 0, 56, 58
1, 178700, Note_off_c, 0, 83, 60
1, 178702, Note_off_c, 0, 56, 59
1, 178703, Note_on_c, 0, 84, 75
1, 178725, Note_off_c, 0, 84, 71
1, 178726, Note_on_c, 0, 63, 52
1, 178763, Note_off_c, 0, 63, 63
1, 178769, Note_on_c, 0, 60, 57
1, 178826, Note_off_c, 0, 60, 55
1, 178829, Note_on_c, 0, 63, 58
1, 178866, Note_off_c, 0, 63, 65
1, 178899, Note_on_c, 0, 56, 55
1, 178908, Note_on_c, 0, 79, 73
1, 178933, Note_off_c, 0, 56, 61
1, 178968, Note_on_c, 0, 64, 56
1, 178974, Note_on_c, 0, 80, 73
1, 178975, Note_off_c, 0, 79, 62
1, 179008, Note_off_c, 0, 80, 62
1, 179044, Note_on_c, 0, 60, 52
1, 179045, Note_off_c, 0, 64, 44
1, 179084, Note_off_c, 0, 60, 61
1, 179102, Note_on_c, 0, 64, 44
1, 179157, Note_off_c, 0, 64, 59
1, 179191, Note_on_c, 0, 76, 72
1, 179196, Note_on_c, 0, 56, 45
1, 179230, Note_off_c, 0, 56, 63
1, 179251, Note_off_c, 0, 76, 64
1, 179256, Note_on_c, 0, 77, 71
1, 179259, Note_on_c, 0, 65, 61
1, 179299, Note_off_c, 0, 77, 57
1, 179326, Note_off_c, 0, 65, 59
1, 179338, Note_on_c, 0, 60, 56
1, 179374, Note_off_c, 0, 60, 62
1, 179408, Note_on_c, 0, 65, 50
1, 179467, Note_off_c, 0, 65, 59
1, 179483, Note_on_c, 0, 56, 62
1, 179519, Note_off_c, 0, 56, 65
1, 179559, Note_on_c, 0, 65, 62
1, 179612, Note_off_c, 0, 65, 58
1, 179626, Note_on_c, 0, 60, 55
1, 179662, Note_off_c, 0, 60, 64
1, 179690, Note_on_c, 0, 65, 56
1, 179738, Note_off_c, 0, 65, 59
1, 179759, Note_on_c, 0, 57, 61
1, 179797, Note_off_c, 0, 57, 63
1, 179851, Note_on_c, 0, 65, 52
1, 179884, Note_off_c, 0, 65, 61
1, 179914, Note_on_c, 0, 77, 66
1, 179915, Note_on_c, 0, 63, 55
1, 179954, Note_off_c, 0, 63, 64
1, 179992, Note_on_c, 0, 65, 46
1, 180045, Note_off_c, 0, 65, 55
1, 180090, Note_on_c, 0, 80, 72
1, 180092, Note_on_c, 0, 58, 50
1, 180128, Note_off_c, 0, 77, 55
1, 180133, Note_off_c, 0, 58, 65
1, 180176, Note_on_c, 0, 65, 44
1, 180220, Note_off_c, 0, 65, 64
1, 180247, Note_on_c, 0, 62, 49
1, 180280, Note_off_c, 0, 62, 62
1, 180330, Note_on_c, 0, 65, 38
1, 180360, Note_off_c, 0, 65, 46
1, 180384, Note_on_c, 0, 53, 61
1, 180423, Note_off_c, 0, 53, 66
1, 180486, Note_on_c, 0, 62, 55
1, 180500, Note_off_c, 0, 80, 63
1, 180509, Note_on_c, 0, 82, 64
1, 180547, Note_off_c, 0, 62, 46
1, 180570, Note_on_c, 0, 58, 28
1, 180581, Note_on_c, 0, 80, 74
1, 180596, Note_off_c, 0, 58, 48
1, 180619, Note_on_c, 0, 62, 47
1, 180637, Note_off_c, 0, 82, 53
1, 180650, Note_off_c, 0, 62, 59
1, 180665, Note_on_c, 0, 79, 63
1, 180694, Note_on_c, 0, 50, 59
1, 180725, Note_off_c, 0, 50, 65
1, 180736, Note_off_c, 0, 80, 58
1, 180804, Note_on_c, 0, 58, 61
1, 180834, Note_off_c, 0, 79, 62
1, 180843, Note_off_c, 0, 58, 64
1, 180853, Note_on_c, 0, 77, 69
1, 180879, Note_on_c, 0, 53, 27
1, 180906, Note_off_c, 0, 53, 47
1, 180926, Note_on_c, 0, 58, 61
1, 180962, Note_off_c, 0, 58, 63
1, 181016, Note_on_c, 0, 75, 66
1, 181018, Note_on_c, 0, 46, 57
1, 181036, Note_off_c, 0, 77, 59
1, 181055, Note_off_c, 0, 46, 59
1, 181092, Note_on_c, 0, 56, 51
1, 181135, Note_off_c, 0, 56, 61
1, 181160, Note_on_c, 0, 53, 52
1, 181169, Note_on_c, 0, 74, 68
1, 181203, Note_off_c, 0, 53, 63
1, 181231, Note_on_c, 0, 56, 62
1, 181279, Note_off_c, 0, 56, 55
1, 181280, Note_off_c, 0, 75, 61
1, 181305, Note_off_c, 0, 74, 65
1, 181315, Note_on_c, 0, 46, 58
1, 181320, Note_on_c, 0, 72, 73
1, 181362, Note_off_c, 0, 46, 58
1, 181399, Note_on_c, 0, 56, 58
1, 181442, Note_off_c, 0, 56, 60
1, 181463, Note_on_c, 0, 53, 51
1, 181464, Note_on_c, 0, 70, 69
1, 181490, Note_off_c, 0, 72, 61
1, 181543, Note_on_c, 0, 56, 59
1, 181545, Note_off_c, 0, 53, 57
1, 181610, Note_off_c, 0, 56, 54
1, 181626, Note_on_c, 0, 47, 59
1, 181626, Note_on_c, 0, 68, 75
1, 181682, Note_off_c, 0, 47, 61
1, 181710, Note_off_c, 0, 70, 49
1, 181729, Note_on_c, 0, 56, 54
1, 181767, Note_off_c, 0, 56, 62
1, 181776, Note_on_c, 0, 65, 70
1, 181794, Note_on_c, 0, 50, 44
1, 181806, Note_off_c, 0, 68, 62
1, 181834, Note_off_c, 0, 50, 58
1, 181859, Note_on_c, 0, 56, 55
1, 181904, Note_off_c, 0, 56, 58
1, 181931, Note_on_c, 0, 63, 65
1, 181938, Note_on_c, 0, 48, 55
1, 181970, Note_off_c, 0, 65, 62
1, 181981, Note_off_c, 0, 48, 62
1, 182041, Note_on_c, 0, 55, 42
1, 182075, Note_off_c, 0, 55, 59
1, 182083, Note_on_c, 0, 51, 50
1, 182094, Note_on_c, 0, 67, 64
1, 182122, Note_off_c, 0, 51, 64
1, 182140, Note_off_c, 0, 63, 52
1, 182169, Note_on_c, 0, 55, 45
1, 182195, Note_off_c, 0, 55, 58
1, 182238, Note_on_c, 0, 44, 52
1, 182248, Note_on_c, 0, 60, 64
1, 182276, Note_off_c, 0, 44, 64
1, 182318, Note_on_c, 0, 53, 57
1, 182372, Note_off_c, 0, 53, 59
1, 182393, Note_on_c, 0, 48, 53
1, 182410, Note_on_c, 0, 68, 64
1, 182417, Note_off_c, 0, 67, 51
1, 182449, Note_off_c, 0, 48, 63
1, 182459, Note_off_c, 0, 60, 54
1, 182494, Note_on_c, 0, 53, 51
1, 182520, Note_off_c, 0, 53, 58
1, 182542, Note_on_c, 0, 46, 47
1, 182546, Note_off_c, 0, 68, 58
1, 182555, Note_on_c, 0, 62, 58
1, 182612, Note_off_c, 0, 46, 55
1, 182626, Note_on_c, 0, 53, 48
1, 182679, Note_off_c, 0, 53, 65
1, 182688, Note_on_c, 0, 50, 53
1, 182706, Note_on_c, 0, 65, 57
1, 182706, Note_off_c, 0, 62, 56
1, 182727, Note_off_c, 0, 50, 63
1, 182825, Note_on_c, 0, 56, 3
1, 182826, Note_off_c, 0, 56, 127
1, 182882, Note_on_c, 0, 63, 62
1, 182896, Note_off_c, 0, 65, 58
1, 182910, Note_on_c, 0, 51, 51
1, 182922, Note_on_c, 0, 39, 38
1, 182928, Note_off_c, 0, 63, 62
1, 182970, Note_on_c, 0, 55, 57
1, 183022, Note_off_c, 0, 55, 59
1, 183047, Note_on_c, 0, 58, 62
1, 183106, Note_on_c, 0, 56, 65
1, 183106, Note_off_c, 0, 51, 56
1, 183117, Note_off_c, 0, 39, 55
1, 183117, Note_off_c, 0, 58, 62
1, 183150, Note_off_c, 0, 56, 61
1, 183162, Note_on_c, 0, 55, 60
1, 183204, Note_off_c, 0, 55, 64
1, 183215, Note_on_c, 0, 56, 58
1, 183266, Note_on_c, 0, 58, 59
1, 183274, Note_off_c, 0, 56, 64
1, 183290, Note_off_c, 0, 58, 68
1, 183338, Note_on_c, 0, 60, 53
1, 183376, Note_off_c, 0, 60, 64
1, 183384, Note_on_c, 0, 62, 69
1, 183435, Note_off_c, 0, 62, 60
1, 183450, Note_on_c, 0, 63, 58
1, 183523, Note_on_c, 0, 62, 51
1, 183523, Note_off_c, 0, 63, 59
1, 183564, Note_off_c, 0, 62, 63
1, 183587, Note_on_c, 0, 65, 58
1, 183653, Note_on_c, 0, 63, 62
1, 183702, Note_off_c, 0, 65, 60
1, 183721, Note_off_c, 0, 63, 64
1, 183728, Note_on_c, 0, 67, 62
1, 183811, Note_off_c, 0, 67, 58
1, 183812, Note_on_c, 0, 65, 62
1, 183861, Note_on_c, 0, 63, 59
1, 183891, Note_off_c, 0, 65, 60
1, 183913, Note_on_c, 0, 62, 63
1, 183943, Note_off_c, 0, 63, 63
1, 183959, Note_off_c, 0, 62, 61
1, 183988, Note_on_c, 0, 60, 61
1, 184044, Note_off_c, 0, 60, 59
1, 184059, Note_on_c, 0, 58, 61
1, 184128, Note_on_c, 0, 60, 51
1, 184139, Note_off_c, 0, 58, 58
1, 184184, Note_on_c, 0, 56, 57
1, 184193, Note_off_c, 0, 60, 56
1, 184230, Note_off_c, 0, 56, 62
1, 184253, Note_on_c, 0, 55, 57
1, 184314, Note_off_c, 0, 55, 62
1, 184328, Note_on_c, 0, 58, 57
1, 184400, Note_on_c, 0, 56, 46
1, 184405, Note_off_c, 0, 58, 60
1, 184435, Note_off_c, 0, 56, 63
1, 184444, Note_on_c, 0, 55, 53
1, 184496, Note_off_c, 0, 55, 61
1, 184509, Note_on_c, 0, 56, 57
1, 184569, Note_off_c, 0, 56, 60
1, 184572, Note_on_c, 0, 58, 59
1, 184605, Note_off_c, 0, 58, 68
1, 184650, Note_on_c, 0, 60, 59
1, 184691, Note_off_c, 0, 60, 57
1, 184709, Note_on_c, 0, 62, 66
1, 184751, Note_off_c, 0, 62, 63
1, 184763, Note_on_c, 0, 63, 56
1, 184833, Note_on_c, 0, 62, 61
1, 184833, Note_off_c, 0, 63, 63
1, 184870, Note_off_c, 0, 62, 63
1, 184899, Note_on_c, 0, 60, 50
1, 184936, Note_off_c, 0, 60, 57
1, 184953, Note_on_c, 0, 58, 69
1, 185003, Note_off_c, 0, 58, 64
1, 185019, Note_on_c, 0, 60, 71
1, 185053, Note_off_c, 0, 60, 57
1, 185076, Note_on_c, 0, 62, 75
1, 185132, Note_on_c, 0, 63, 60
1, 185138, Note_off_c, 0, 62, 61
1, 185190, Note_off_c, 0, 63, 65
1, 185197, Note_on_c, 0, 65, 62
1, 185249, Note_on_c, 0, 67, 66
1, 185249, Note_off_c, 0, 65, 64
1, 185316, Note_on_c, 0, 65, 56
1, 185350, Note_off_c, 0, 67, 61
1, 185375, Note_on_c, 0, 63, 65
1, 185389, Note_off_c, 0, 65, 64
1, 185425, Note_on_c, 0, 62, 64
1, 185425, Note_off_c, 0, 63, 63
1, 185478, Note_on_c, 0, 63, 59
1, 185486, Note_off_c, 0, 62, 61
1, 185511, Note_off_c, 0, 63, 68
1, 185536, Note_on_c, 0, 65, 73
1, 185600, Note_off_c, 0, 65, 62
1, 185602, Note_on_c, 0, 67, 74
1, 185648, Note_on_c, 0, 68, 65
1, 185680, Note_off_c, 0, 67, 60
1, 185717, Note_on_c, 0, 72, 69
1, 185732, Note_off_c, 0, 68, 63
1, 185807, Note_on_c, 0, 70, 63
1, 185838, Note_off_c, 0, 72, 63
1, 185848, Note_on_c, 0, 68, 69
1, 185887, Note_off_c, 0, 70, 62
1, 185900, Note_off_c, 0, 68, 64
1, 185904, Note_on_c, 0, 67, 72
1, 185965, Note_on_c, 0, 68, 58
1, 185967, Note_off_c, 0, 67, 60
1, 185986, Note_on_c, 0, 70, 68
1, 186023, Note_off_c, 0, 68, 65
1, 186037, Note_off_c, 0, 70, 63
1, 186074, Note_on_c, 0, 72, 72
1, 186118, Note_off_c, 0, 72, 61
1, 186128, Note_on_c, 0, 74, 68
1, 186182, Note_off_c, 0, 74, 66
1, 186191, Note_on_c, 0, 75, 67
1, 186253, Note_on_c, 0, 74, 59
1, 186264, Note_off_c, 0, 75, 64
1, 186294, Note_off_c, 0, 74, 66
1, 186311, Note_on_c, 0, 72, 66
1, 186356, Note_off_c, 0, 72, 64
1, 186375, Note_on_c, 0, 70, 74
1, 186425, Note_off_c, 0, 70, 62
1, 186436, Note_on_c, 0, 72, 67
1, 186481, Note_off_c, 0, 72, 52
1, 186496, Note_on_c, 0, 74, 73
1, 186554, Note_off_c, 0, 74, 65
1, 186557, Note_on_c, 0, 75, 70
1, 186605, Note_off_c, 0, 75, 67
1, 186611, Note_on_c, 0, 77, 67
1, 186667, Note_on_c, 0, 79, 69
1, 186670, Note_off_c, 0, 77, 62
1, 186724, Note_on_c, 0, 77, 69
1, 186752, Note_off_c, 0, 79, 60
1, 186797, Note_on_c, 0, 75, 76
1, 186821, Note_off_c, 0, 77, 61
1, 186852, Note_on_c, 0, 74, 74
1, 186855, Note_off_c, 0, 75, 65
1, 186915, Note_on_c, 0, 75, 69
1, 186922, Note_off_c, 0, 74, 64
1, 186953, Note_off_c, 0, 75, 66
1, 186978, Note_on_c, 0, 77, 78
1, 187040, Note_on_c, 0, 79, 79
1, 187043, Note_off_c, 0, 77, 62
1, 187102, Note_on_c, 0, 80, 81
1, 187121, Note_off_c, 0, 79, 62
1, 187195, Note_on_c, 0, 84, 77
1, 187201, Note_off_c, 0, 80, 65
1, 187285, Note_on_c, 0, 82, 77
1, 187328, Note_off_c, 0, 84, 59
1, 187371, Note_on_c, 0, 80, 75
1, 187420, Note_off_c, 0, 82, 59
1, 187438, Note_on_c, 0, 79, 74
1, 187469, Note_off_c, 0, 80, 59
1, 187538, Note_off_c, 0, 79, 63
1, 187541, Note_on_c, 0, 82, 75
1, 187660, Note_on_c, 0, 80, 72
1, 187681, Note_off_c, 0, 82, 60
1, 187719, Note_off_c, 0, 80, 63
1, 187730, Note_on_c, 0, 79, 70
1, 187791, Note_on_c, 0, 80, 72
1, 187804, Note_off_c, 0, 79, 54
1, 187851, Note_on_c, 0, 82, 66
1, 187864, Note_off_c, 0, 80, 65
1, 187876, Note_off_c, 0, 82, 69
1, 187918, Note_on_c, 0, 84, 79
1, 187973, Note_off_c, 0, 84, 60
1, 187981, Note_on_c, 0, 86, 79
1, 188012, Note_off_c, 0, 86, 63
1, 188083, Note_on_c, 0, 87, 87
1, 188088, Note_on_c, 0, 55, 51
1, 188128, Note_off_c, 0, 55, 61
1, 188171, Note_on_c, 0, 63, 56
1, 188215, Note_off_c, 0, 63, 61
1, 188239, Note_on_c, 0, 58, 54
1, 188292, Note_off_c, 0, 58, 62
1, 188323, Note_on_c, 0, 63, 63
1, 188368, Note_off_c, 0, 63, 60
1, 188396, Note_on_c, 0, 55, 53
1, 188411, Note_off_c, 0, 87, 58
1, 188432, Note_off_c, 0, 55, 62
1, 188475, Note_on_c, 0, 63, 56
1, 188507, Note_off_c, 0, 63, 63
1, 188534, Note_on_c, 0, 58, 53
1, 188543, Note_on_c, 0, 86, 69
1, 188572, Note_off_c, 0, 86, 63
1, 188576, Note_off_c, 0, 58, 62
1, 188602, Note_on_c, 0, 63, 60
1, 188615, Note_on_c, 0, 87, 72
1, 188644, Note_off_c, 0, 63, 62
1, 188652, Note_off_c, 0, 87, 60
1, 188685, Note_on_c, 0, 55, 53
1, 188688, Note_on_c, 0, 86, 78
1, 188724, Note_off_c, 0, 55, 63
1, 188725, Note_off_c, 0, 86, 61
1, 188754, Note_on_c, 0, 87, 73
1, 188757, Note_on_c, 0, 63, 59
1, 188776, Note_off_c, 0, 87, 69
1, 188795, Note_off_c, 0, 63, 64
1, 188828, Note_on_c, 0, 58, 54
1, 188832, Note_on_c, 0, 89, 81
1, 188872, Note_off_c, 0, 58, 60
1, 188896, Note_off_c, 0, 89, 63
1, 188900, Note_on_c, 0, 63, 54
1, 188902, Note_on_c, 0, 87, 79
1, 188929, Note_off_c, 0, 87, 61
1, 188962, Note_off_c, 0, 63, 59
1, 189004, Note_on_c, 0, 55, 54
1, 189013, Note_on_c, 0, 82, 78
1, 189065, Note_off_c, 0, 55, 59
1, 189092, Note_on_c, 0, 63, 58
1, 189136, Note_off_c, 0, 63, 62
1, 189166, Note_on_c, 0, 58, 55
1, 189213, Note_off_c, 0, 58, 61
1, 189249, Note_on_c, 0, 63, 54
1, 189289, Note_off_c, 0, 63, 63
1, 189314, Note_on_c, 0, 55, 56
1, 189356, Note_off_c, 0, 55, 63
1, 189365, Note_off_c, 0, 82, 60
1, 189389, Note_on_c, 0, 63, 59
1, 189440, Note_off_c, 0, 63, 60
1, 189467, Note_on_c, 0, 58, 56
1, 189491, Note_on_c, 0, 81, 60
1, 189522, Note_off_c, 0, 58, 59
1, 189531, Note_off_c, 0, 81, 59
1, 189550, Note_on_c, 0, 63, 56
1, 189557, Note_on_c, 0, 82, 63
1, 189585, Note_off_c, 0, 82, 66
1, 189598, Note_off_c, 0, 63, 58
1, 189627, Note_on_c, 0, 55, 56
1, 189646, Note_on_c, 0, 84, 77
1, 189687, Note_off_c, 0, 84, 62
1, 189696, Note_off_c, 0, 55, 56
1, 189712, Note_on_c, 0, 63, 57
1, 189718, Note_on_c, 0, 82, 76
1, 189738, Note_off_c, 0, 82, 71
1, 189762, Note_off_c, 0, 63, 59
1, 189798, Note_on_c, 0, 58, 53
1, 189802, Note_on_c, 0, 80, 76
1, 189856, Note_off_c, 0, 80, 59
1, 189857, Note_off_c, 0, 58, 59
1, 189864, Note_on_c, 0, 79, 74
1, 189886, Note_on_c, 0, 63, 56
1, 189888, Note_off_c, 0, 79, 66
1, 189945, Note_off_c, 0, 63, 60
1, 189979, Note_on_c, 0, 83, 78
1, 189984, Note_on_c, 0, 56, 48
1, 190006, Note_off_c, 0, 83, 60
1, 190027, Note_off_c, 0, 56, 61
1, 190053, Note_on_c, 0, 84, 76
1, 190066, Note_on_c, 0, 63, 49
1, 190081, Note_off_c, 0, 84, 62
1, 190104, Note_off_c, 0, 63, 60
1, 190129, Note_on_c, 0, 60, 50
1, 190138, Note_on_c, 0, 83, 81
1, 190179, Note_off_c, 0, 83, 58
1, 190189, Note_off_c, 0, 60, 56
1, 190206, Note_on_c, 0, 63, 63
1, 190206, Note_on_c, 0, 84, 77
1, 190248, Note_off_c, 0, 84, 63
1, 190260, Note_off_c, 0, 63, 58
1, 190289, Note_on_c, 0, 56, 51
1, 190290, Note_on_c, 0, 83, 81
1, 190334, Note_off_c, 0, 56, 60
1, 190343, Note_off_c, 0, 83, 58
1, 190360, Note_on_c, 0, 84, 79
1, 190368, Note_on_c, 0, 63, 47
1, 190407, Note_off_c, 0, 63, 60
1, 190418, Note_off_c, 0, 84, 62
1, 190423, Note_on_c, 0, 60, 53
1, 190430, Note_on_c, 0, 83, 77
1, 190489, Note_off_c, 0, 83, 58
1, 190489, Note_on_c, 0, 84, 76
1, 190502, Note_on_c, 0, 63, 63
1, 190513, Note_off_c, 0, 84, 69
1, 190527, Note_off_c, 0, 60, 45
1, 190567, Note_off_c, 0, 63, 57
1, 190594, Note_on_c, 0, 79, 84
1, 190596, Note_on_c, 0, 56, 54
1, 190633, Note_off_c, 0, 56, 62
1, 190635, Note_off_c, 0, 79, 63
1, 190663, Note_on_c, 0, 80, 80
1, 190687, Note_on_c, 0, 64, 38
1, 190722, Note_off_c, 0, 64, 51
1, 190726, Note_off_c, 0, 80, 57
1, 190743, Note_on_c, 0, 79, 79
1, 190751, Note_on_c, 0, 60, 54
1, 190794, Note_off_c, 0, 60, 61
1, 190803, Note_off_c, 0, 79, 60
1, 190805, Note_on_c, 0, 80, 81
1, 190821, Note_on_c, 0, 64, 57
1, 190845, Note_off_c, 0, 80, 64
1, 190859, Note_off_c, 0, 64, 64
1, 190900, Note_on_c, 0, 56, 58
1, 190909, Note_on_c, 0, 76, 80
1, 190938, Note_off_c, 0, 56, 63
1, 190963, Note_off_c, 0, 76, 61
1, 190972, Note_on_c, 0, 77, 78
1, 190984, Note_on_c, 0, 65, 56
1, 191033, Note_off_c, 0, 77, 59
1, 191037, Note_off_c, 0, 65, 59
1, 191060, Note_on_c, 0, 60, 55
1, 191061, Note_on_c, 0, 76, 77
1, 191102, Note_off_c, 0, 60, 61
1, 191108, Note_off_c, 0, 76, 61
1, 191130, Note_on_c, 0, 77, 72
1, 191149, Note_on_c, 0, 65, 52
1, 191166, Note_off_c, 0, 77, 57
1, 191196, Note_off_c, 0, 65, 61
1, 191216, Note_on_c, 0, 56, 60
1, 191254, Note_off_c, 0, 56, 64
1, 191302, Note_on_c, 0, 65, 64
1, 191360, Note_off_c, 0, 65, 56
1, 191376, Note_on_c, 0, 60, 64
1, 191412, Note_off_c, 0, 60, 62
1, 191453, Note_on_c, 0, 65, 59
1, 191505, Note_off_c, 0, 65, 57
1, 191529, Note_on_c, 0, 57, 59
1, 191571, Note_off_c, 0, 57, 59
1, 191616, Note_on_c, 0, 65, 57
1, 191661, Note_off_c, 0, 65, 59
1, 191667, Note_on_c, 0, 77, 69
1, 191694, Note_on_c, 0, 63, 57
1, 191740, Note_off_c, 0, 63, 59
1, 191784, Note_on_c, 0, 65, 48
1, 191836, Note_off_c, 0, 65, 60
1, 191860, Note_on_c, 0, 58, 57
1, 191863, Note_on_c, 0, 80, 72
1, 191898, Note_off_c, 0, 58, 65
1, 191898, Note_off_c, 0, 77, 54
1, 191944, Note_on_c, 0, 65, 58
1, 191994, Note_off_c, 0, 65, 58
1, 192016, Note_on_c, 0, 62, 59
1, 192060, Note_off_c, 0, 62, 63
1, 192098, Note_on_c, 0, 65, 57
1, 192128, Note_off_c, 0, 65, 66
1, 192164, Note_on_c, 0, 53, 64
1, 192207, Note_off_c, 0, 53, 66
1, 192271, Note_on_c, 0, 62, 48
1, 192296, Note_off_c, 0, 80, 62
1, 192301, Note_off_c, 0, 62, 56
1, 192312, Note_on_c, 0, 58, 59
1, 192316, Note_on_c, 0, 79, 63
1, 192348, Note_off_c, 0, 58, 67
1, 192383, Note_on_c, 0, 62, 63
1, 192383, Note_off_c, 0, 79, 60
1, 192388, Note_on_c, 0, 80, 72
1, 192415, Note_off_c, 0, 62, 63
1, 192461, Note_on_c, 0, 50, 61
1, 192461, Note_off_c, 0, 80, 64
1, 192467, Note_on_c, 0, 82, 70
1, 192493, Note_off_c, 0, 50, 64
1, 192528, Note_on_c, 0, 80, 73
1, 192552, Note_on_c, 0, 58, 61
1, 192563, Note_off_c, 0, 82, 59
1, 192599, Note_off_c, 0, 58, 60
1, 192602, Note_on_c, 0, 79, 73
1, 192624, Note_on_c, 0, 53, 50
1, 192633, Note_off_c, 0, 80, 61
1, 192650, Note_off_c, 0, 53, 66
1, 192663, Note_off_c, 0, 79, 61
1, 192671, Note_on_c, 0, 77, 73
1, 192695, Note_on_c, 0, 58, 53
1, 192717, Note_off_c, 0, 58, 61
1, 192761, Note_off_c, 0, 77, 50
1, 192776, Note_on_c, 0, 75, 71
1, 192781, Note_on_c, 0, 46, 57
1, 192814, Note_off_c, 0, 46, 59
1, 192846, Note_on_c, 0, 56, 56
1, 192850, Note_on_c, 0, 74, 62
1, 192890, Note_off_c, 0, 56, 62
1, 192898, Note_off_c, 0, 75, 63
1, 192915, Note_on_c, 0, 79, 70
1, 192918, Note_on_c, 0, 53, 47
1, 192919, Note_off_c, 0, 74, 64
1, 192962, Note_off_c, 0, 53, 65
1, 192985, Note_on_c, 0, 56, 61
1, 192993, Note_on_c, 0, 77, 71
1, 193019, Note_off_c, 0, 79, 59
1, 193026, Note_off_c, 0, 56, 60
1, 193059, Note_on_c, 0, 46, 59
1, 193068, Note_on_c, 0, 75, 71
1, 193110, Note_off_c, 0, 77, 57
1, 193120, Note_off_c, 0, 46, 59
1, 193133, Note_on_c, 0, 74, 69
1, 193136, Note_on_c, 0, 56, 58
1, 193168, Note_off_c, 0, 75, 64
1, 193180, Note_off_c, 0, 56, 57
1, 193186, Note_on_c, 0, 53, 50
1, 193196, Note_off_c, 0, 74, 65
1, 193203, Note_on_c, 0, 72, 71
1, 193256, Note_off_c, 0, 53, 57
1, 193270, Note_on_c, 0, 56, 56
1, 193278, Note_off_c, 0, 72, 62
1, 193279, Note_on_c, 0, 70, 76
1, 193318, Note_off_c, 0, 56, 60
1, 193336, Note_on_c, 0, 47, 51
1, 193354, Note_on_c, 0, 68, 73
1, 193396, Note_off_c, 0, 70, 58
1, 193396, Note_off_c, 0, 47, 61
1, 193429, Note_on_c, 0, 56, 48
1, 193432, Note_on_c, 0, 67, 69
1, 193432, Note_off_c, 0, 68, 64
1, 193468, Note_off_c, 0, 56, 60
1, 193481, Note_on_c, 0, 50, 54
1, 193501, Note_on_c, 0, 68, 66
1, 193507, Note_off_c, 0, 67, 60
1, 193550, Note_off_c, 0, 50, 60
1, 193564, Note_on_c, 0, 56, 48
1, 193583, Note_on_c, 0, 65, 66
1, 193585, Note_off_c, 0, 68, 60
1, 193619, Note_off_c, 0, 56, 57
1, 193647, Note_on_c, 0, 48, 52
1, 193697, Note_off_c, 0, 48, 60
1, 193726, Note_off_c, 0, 65, 61
1, 193734, Note_on_c, 0, 63, 66
1, 193743, Note_on_c, 0, 55, 47
1, 193784, Note_off_c, 0, 55, 62
1, 193801, Note_on_c, 0, 51, 51
1, 193821, Note_on_c, 0, 67, 66
1, 193833, Note_off_c, 0, 63, 58
1, 193839, Note_off_c, 0, 51, 62
1, 193880, Note_on_c, 0, 55, 54
1, 193914, Note_off_c, 0, 55, 63
1, 193957, Note_on_c, 0, 44, 55
1, 193994, Note_off_c, 0, 44, 63
1, 194031, Note_on_c, 0, 53, 60
1, 194047, Note_on_c, 0, 60, 66
1, 194094, Note_off_c, 0, 53, 63
1, 194107, Note_on_c, 0, 48, 56
1, 194136, Note_on_c, 0, 68, 70
1, 194144, Note_off_c, 0, 67, 56
1, 194153, Note_off_c, 0, 48, 65
1, 194171, Note_off_c, 0, 60, 41
1, 194201, Note_on_c, 0, 53, 47
1, 194227, Note_off_c, 0, 53, 59
1, 194243, Note_on_c, 0, 46, 60
1, 194343, Note_on_c, 0, 53, 48
1, 194352, Note_off_c, 0, 68, 57
1, 194359, Note_on_c, 0, 62, 70
1, 194394, Note_off_c, 0, 53, 66
1, 194406, Note_off_c, 0, 46, 37
1, 194420, Note_on_c, 0, 50, 60
1, 194448, Note_on_c, 0, 65, 66
1, 194463, Note_off_c, 0, 50, 65
1, 194466, Note_off_c, 0, 62, 59
1, 194485, Note_on_c, 0, 56, 67
1, 194535, Note_off_c, 0, 56, 53
1, 194582, Note_on_c, 0, 51, 64
1, 194602, Note_on_c, 0, 63, 67
1, 194621, Note_off_c, 0, 65, 62
1, 194647, Note_off_c, 0, 51, 62
1, 194650, Note_off_c, 0, 63, 60
1, 194665, Note_on_c, 0, 55, 69
1, 194743, Note_on_c, 0, 56, 74
1, 194744, Note_off_c, 0, 55, 61
1, 194808, Note_on_c, 0, 58, 77
1, 194811, Note_off_c, 0, 56, 64
1, 194832, Note_off_c, 0, 58, 70
1, 194869, Note_on_c, 0, 60, 76
1, 194934, Note_off_c, 0, 60, 58
1, 194937, Note_on_c, 0, 62, 77
1, 195004, Note_on_c, 0, 63, 77
1, 195024, Note_off_c, 0, 62, 59
1, 195062, Note_off_c, 0, 63, 66
1, 195083, Note_on_c, 0, 65, 76
1, 195153, Note_on_c, 0, 67, 83
1, 195157, Note_off_c, 0, 65, 64
1, 195219, Note_on_c, 0, 68, 81
1, 195247, Note_off_c, 0, 67, 62
1, 195292, Note_on_c, 0, 70, 73
1, 195339, Note_off_c, 0, 68, 62
1, 195350, Note_on_c, 0, 72, 76
1, 195373, Note_off_c, 0, 70, 63
1, 195436, Note_on_c, 0, 70, 83
1, 195470, Note_off_c, 0, 72, 62
1, 195595, Note_on_c, 0, 58, 57
1, 195595, Note_on_c, 0, 50, 49
1, 195610, Note_on_c, 0, 53, 43
1, 195615, Note_off_c, 0, 58, 65
1, 195622, Note_off_c, 0, 50, 59
1, 195635, Note_off_c, 0, 53, 53
1, 195758, Note_on_c, 0, 58, 62
1, 195774, Note_on_c, 0, 50, 51
1, 195781, Note_on_c, 0, 53, 49
1, 195801, Note_off_c, 0, 58, 64
1, 195808, Note_off_c, 0, 53, 62
1, 195810, Note_off_c, 0, 50, 64
1, 195923, Note_on_c, 0, 58, 69
1, 195927, Note_on_c, 0, 50, 60
1, 195934, Note_on_c, 0, 53, 46
1, 195954, Note_off_c, 0, 58, 63
1, 195962, Note_off_c, 0, 53, 63
1, 195963, Note_off_c, 0, 50, 62
1, 195980, Note_off_c, 0, 70, 56
1, 196043, Note_on_c, 0, 68, 81
1, 196058, Note_on_c, 0, 58, 68
1, 196060, Note_on_c, 0, 50, 56
1, 196064, Note_on_c, 0, 53, 50
1, 196080, Note_off_c, 0, 68, 64
1, 196090, Note_off_c, 0, 58, 63
1, 196091, Note_off_c, 0, 53, 64
1, 196096, Note_on_c, 0, 70, 65
1, 196106, Note_off_c, 0, 50, 57
1, 196130, Control_c, 0, 64, 29
1, 196145, Control_c, 0, 64, 55
1, 196147, Note_on_c, 0, 68, 67
1, 196160, Control_c, 0, 64, 60
1, 196163, Note_off_c, 0, 70, 63
1, 196174, Control_c, 0, 64, 62
1, 196183, Note_on_c, 0, 58, 71
1, 196188, Note_on_c, 0, 53, 51
1, 196189, Note_on_c, 0, 50, 43
1, 196189, Control_c, 0, 64, 63
1, 196199, Note_on_c, 0, 67, 75
1, 196204, Note_off_c, 0, 68, 64
1, 196204, Control_c, 0, 64, 63
1, 196212, Note_off_c, 0, 53, 63
1, 196215, Note_off_c, 0, 50, 54
1, 196224, Note_off_c, 0, 58, 60
1, 196259, Note_off_c, 0, 67, 60
1, 196260, Note_on_c, 0, 68, 74
1, 196278, Control_c, 0, 64, 63
1, 196293, Control_c, 0, 64, 58
1, 196308, Control_c, 0, 64, 28
1, 196323, Control_c, 0, 64, 0
1, 196326, Note_on_c, 0, 67, 82
1, 196326, Note_off_c, 0, 68, 62
1, 196338, Note_on_c, 0, 63, 82
1, 196359, Note_off_c, 0, 67, 66
1, 196395, Note_off_c, 0, 63, 65
1, 196424, Note_on_c, 0, 67, 78
1, 196488, Note_off_c, 0, 67, 59
1, 196493, Note_on_c, 0, 68, 79
1, 196563, Note_on_c, 0, 70, 91
1, 196571, Note_off_c, 0, 68, 64
1, 196590, Note_off_c, 0, 70, 65
1, 196629, Note_on_c, 0, 72, 80
1, 196698, Note_off_c, 0, 72, 64
1, 196698, Note_on_c, 0, 74, 75
1, 196767, Note_on_c, 0, 75, 82
1, 196776, Note_off_c, 0, 74, 65
1, 196815, Note_off_c, 0, 75, 67
1, 196833, Note_on_c, 0, 77, 80
1, 196901, Note_on_c, 0, 79, 85
1, 196906, Note_off_c, 0, 77, 62
1, 196966, Note_on_c, 0, 80, 89
1, 196997, Note_off_c, 0, 79, 62
1, 197035, Note_on_c, 0, 82, 79
1, 197063, Note_off_c, 0, 80, 62
1, 197099, Note_on_c, 0, 84, 81
1, 197126, Note_off_c, 0, 82, 65
1, 197184, Note_on_c, 0, 82, 87
1, 197226, Note_off_c, 0, 84, 64
1, 197351, Note_on_c, 0, 70, 71
1, 197356, Note_on_c, 0, 62, 62
1, 197362, Note_on_c, 0, 65, 58
1, 197375, Note_off_c, 0, 70, 69
1, 197383, Note_off_c, 0, 62, 62
1, 197390, Note_off_c, 0, 65, 66
1, 197513, Note_on_c, 0, 62, 66
1, 197518, Note_on_c, 0, 70, 71
1, 197525, Note_on_c, 0, 65, 55
1, 197544, Note_off_c, 0, 70, 66
1, 197546, Note_off_c, 0, 62, 61
1, 197554, Note_off_c, 0, 65, 66
1, 197664, Note_on_c, 0, 70, 69
1, 197669, Note_on_c, 0, 62, 62
1, 197682, Note_on_c, 0, 65, 43
1, 197692, Note_off_c, 0, 82, 56
1, 197693, Note_off_c, 0, 70, 63
1, 197703, Note_off_c, 0, 62, 62
1, 197706, Note_off_c, 0, 65, 59
1, 197803, Note_on_c, 0, 80, 65
1, 197806, Note_on_c, 0, 70, 68
1, 197810, Note_on_c, 0, 62, 55
1, 197812, Note_on_c, 0, 65, 48
1, 197829, Note_off_c, 0, 80, 66
1, 197837, Note_off_c, 0, 70, 60
1, 197842, Note_off_c, 0, 65, 63
1, 197843, Note_on_c, 0, 82, 64
1, 197843, Note_off_c, 0, 62, 56
1, 197899, Note_on_c, 0, 80, 73
1, 197907, Note_off_c, 0, 82, 62
1, 197940, Note_off_c, 0, 80, 64
1, 197944, Note_on_c, 0, 62, 52
1, 197952, Note_on_c, 0, 70, 51
1, 197961, Note_on_c, 0, 79, 58
1, 197962, Note_on_c, 0, 65, 43
1, 197989, Note_off_c, 0, 65, 56
1, 197989, Note_off_c, 0, 79, 54
1, 197992, Note_off_c, 0, 62, 59
1, 197992, Note_off_c, 0, 70, 63
1, 198014, Note_on_c, 0, 80, 61
1, 198076, Note_off_c, 0, 80, 63
1, 198084, Note_on_c, 0, 79, 69
1, 198226, Note_off_c, 0, 79, 55
1, 198273, Note_on_c, 0, 67, 52
1, 198275, Note_on_c, 0, 63, 56
1, 198299, Note_off_c, 0, 67, 64
1, 198313, Note_off_c, 0, 63, 66
1, 198394, Note_on_c, 0, 77, 61
1, 198414, Note_off_c, 0, 77, 63
1, 198438, Note_on_c, 0, 79, 56
1, 198485, Note_on_c, 0, 77, 74
1, 198499, Note_off_c, 0, 79, 62
1, 198531, Note_off_c, 0, 77, 60
1, 198535, Note_on_c, 0, 59, 50
1, 198543, Note_on_c, 0, 76, 53
1, 198547, Note_on_c, 0, 62, 47
1, 198554, Note_on_c, 0, 67, 31
1, 198559, Note_off_c, 0, 59, 61
1, 198573, Note_off_c, 0, 62, 53
1, 198578, Note_off_c, 0, 76, 63
1, 198588, Note_off_c, 0, 67, 41
1, 198596, Note_on_c, 0, 77, 47
1, 198658, Note_off_c, 0, 77, 60
1, 198679, Note_on_c, 0, 75, 74
1, 198845, Note_on_c, 0, 63, 61
1, 198847, Note_on_c, 0, 67, 56
1, 198850, Note_on_c, 0, 60, 52
1, 198867, Note_off_c, 0, 67, 61
1, 198871, Note_off_c, 0, 60, 60
1, 198873, Note_off_c, 0, 63, 67
1, 198873, Note_off_c, 0, 75, 59
1, 198985, Note_on_c, 0, 73, 69
1, 199018, Note_off_c, 0, 73, 61
1, 199036, Note_on_c, 0, 75, 61
1, 199091, Note_on_c, 0, 55, 49
1, 199095, Note_off_c, 0, 75, 64
1, 199097, Note_on_c, 0, 63, 64
1, 199101, Note_on_c, 0, 73, 63
1, 199103, Note_on_c, 0, 58, 56
1, 199114, Note_off_c, 0, 55, 62
1, 199122, Note_off_c, 0, 63, 66
1, 199125, Note_off_c, 0, 58, 65
1, 199128, Note_on_c, 0, 72, 61
1, 199128, Note_off_c, 0, 73, 66
1, 199182, Note_off_c, 0, 72, 59
1, 199193, Note_on_c, 0, 73, 80
1, 199230, Control_c, 0, 64, 17
1, 199245, Control_c, 0, 64, 18
1, 199251, Note_off_c, 0, 73, 60
1, 199252, Note_on_c, 0, 72, 73
1, 199259, Control_c, 0, 64, 17
1, 199274, Control_c, 0, 64, 15
1, 199289, Control_c, 0, 64, 17
1, 199304, Control_c, 0, 64, 18
1, 199334, Control_c, 0, 64, 15
1, 199348, Control_c, 0, 64, 13
1, 199363, Control_c, 0, 64, 15
1, 199378, Control_c, 0, 64, 20
1, 199393, Control_c, 0, 64, 23
1, 199405, Note_on_c, 0, 63, 66
1, 199408, Note_on_c, 0, 60, 63
1, 199411, Note_on_c, 0, 56, 61
1, 199420, Note_off_c, 0, 72, 60
1, 199423, Control_c, 0, 64, 20
1, 199434, Note_off_c, 0, 63, 67
1, 199435, Note_off_c, 0, 60, 63
1, 199447, Note_off_c, 0, 56, 65
1, 199453, Control_c, 0, 64, 24
1, 199467, Control_c, 0, 64, 26
1, 199482, Control_c, 0, 64, 25
1, 199497, Control_c, 0, 64, 24
1, 199518, Control_c, 0, 64, 23
1, 199533, Control_c, 0, 64, 24
1, 199540, Note_on_c, 0, 70, 72
1, 199548, Control_c, 0, 64, 25
1, 199569, Note_off_c, 0, 70, 64
1, 199578, Control_c, 0, 64, 21
1, 199587, Note_on_c, 0, 72, 64
1, 199593, Control_c, 0, 64, 15
1, 199623, Control_c, 0, 64, 20
1, 199647, Note_on_c, 0, 70, 75
1, 199652, Note_off_c, 0, 72, 65
1, 199652, Control_c, 0, 64, 18
1, 199667, Control_c, 0, 64, 15
1, 199672, Note_on_c, 0, 52, 63
1, 199672, Note_on_c, 0, 60, 66
1, 199678, Note_on_c, 0, 55, 63
1, 199682, Note_off_c, 0, 70, 63
1, 199682, Control_c, 0, 64, 17
1, 199688, Note_on_c, 0, 69, 67
1, 199697, Note_off_c, 0, 52, 69
1, 199697, Control_c, 0, 64, 21
1, 199698, Note_off_c, 0, 55, 62
1, 199702, Note_off_c, 0, 60, 66
1, 199711, Control_c, 0, 64, 24
1, 199726, Control_c, 0, 64, 23
1, 199736, Note_off_c, 0, 69, 63
1, 199740, Note_on_c, 0, 70, 73
1, 199741, Control_c, 0, 64, 21
1, 199755, Control_c, 0, 64, 20
1, 199803, Note_on_c, 0, 69, 79
1, 199807, Note_off_c, 0, 70, 63
1, 199830, Control_c, 0, 64, 18
1, 199875, Control_c, 0, 64, 20
1, 199951, Note_on_c, 0, 57, 71
1, 199955, Note_on_c, 0, 60, 68
1, 199961, Note_on_c, 0, 53, 56
1, 199963, Control_c, 0, 64, 18
1, 199974, Note_off_c, 0, 57, 66
1, 199978, Control_c, 0, 64, 17
1, 199983, Note_off_c, 0, 53, 61
1, 199983, Note_off_c, 0, 60, 67
1, 199986, Note_off_c, 0, 69, 51
1, 200082, Control_c, 0, 64, 18
1, 200091, Note_on_c, 0, 68, 66
1, 200111, Control_c, 0, 64, 17
1, 200120, Note_off_c, 0, 68, 67
1, 200126, Control_c, 0, 64, 18
1, 200129, Note_on_c, 0, 70, 66
1, 200141, Control_c, 0, 64, 21
1, 200186, Note_on_c, 0, 68, 76
1, 200186, Control_c, 0, 64, 18
1, 200201, Note_off_c, 0, 70, 62
1, 200201, Control_c, 0, 64, 23
1, 200211, Note_on_c, 0, 58, 74
1, 200215, Control_c, 0, 64, 30
1, 200216, Note_on_c, 0, 50, 54
1, 200220, Note_on_c, 0, 53, 63
1, 200228, Note_off_c, 0, 68, 63
1, 200230, Control_c, 0, 64, 37
1, 200236, Note_on_c, 0, 67, 65
1, 200237, Note_off_c, 0, 58, 68
1, 200240, Note_off_c, 0, 50, 60
1, 200241, Note_off_c, 0, 53, 66
1, 200245, Control_c, 0, 64, 38
1, 200267, Control_c, 0, 64, 35
1, 200282, Control_c, 0, 64, 34
1, 200293, Note_on_c, 0, 68, 74
1, 200296, Control_c, 0, 64, 37
1, 200299, Note_off_c, 0, 67, 61
1, 200311, Control_c, 0, 64, 38
1, 200341, Control_c, 0, 64, 36
1, 200354, Note_on_c, 0, 67, 75
1, 200356, Control_c, 0, 64, 33
1, 200371, Control_c, 0, 64, 36
1, 200371, Note_off_c, 0, 68, 62
1, 200386, Control_c, 0, 64, 41
1, 200401, Control_c, 0, 64, 43
1, 200430, Control_c, 0, 64, 42
1, 200460, Control_c, 0, 64, 43
1, 200475, Control_c, 0, 64, 44
1, 200489, Control_c, 0, 64, 42
1, 200497, Note_off_c, 0, 67, 61
1, 200504, Control_c, 0, 64, 41
1, 200509, Note_on_c, 0, 58, 78
1, 200513, Note_on_c, 0, 55, 69
1, 200517, Note_on_c, 0, 51, 68
1, 200519, Control_c, 0, 64, 40
1, 200532, Note_off_c, 0, 58, 69
1, 200533, Control_c, 0, 64, 41
1, 200536, Note_off_c, 0, 55, 67
1, 200548, Control_c, 0, 64, 41
1, 200552, Note_off_c, 0, 51, 66
1, 200578, Control_c, 0, 64, 40
1, 200594, Control_c, 0, 64, 39
1, 200609, Control_c, 0, 64, 40
1, 200624, Control_c, 0, 64, 41
1, 200626, Note_on_c, 0, 65, 75
1, 200653, Control_c, 0, 64, 39
1, 200654, Note_off_c, 0, 65, 66
1, 200668, Control_c, 0, 64, 35
1, 200677, Note_on_c, 0, 67, 66
1, 200683, Control_c, 0, 64, 36
1, 200698, Control_c, 0, 64, 37
1, 200727, Note_on_c, 0, 65, 74
1, 200727, Control_c, 0, 64, 36
1, 200736, Note_off_c, 0, 67, 62
1, 200742, Control_c, 0, 64, 33
1, 200759, Note_off_c, 0, 65, 66
1, 200764, Note_on_c, 0, 47, 65
1, 200766, Note_on_c, 0, 55, 63
1, 200767, Note_on_c, 0, 64, 57
1, 200771, Note_on_c, 0, 50, 59
1, 200771, Control_c, 0, 64, 37
1, 200786, Control_c, 0, 64, 38
1, 200791, Note_off_c, 0, 47, 66
1, 200793, Note_off_c, 0, 55, 65
1, 200794, Note_off_c, 0, 50, 59
1, 200801, Control_c, 0, 64, 38
1, 200813, Note_off_c, 0, 64, 59
1, 200816, Control_c, 0, 64, 35
1, 200824, Note_on_c, 0, 65, 74
1, 200830, Control_c, 0, 64, 34
1, 200845, Control_c, 0, 64, 36
1, 200860, Control_c, 0, 64, 40
1, 200885, Note_off_c, 0, 65, 61
1, 200890, Control_c, 0, 64, 38
1, 200901, Note_on_c, 0, 63, 88
1, 200905, Control_c, 0, 64, 36
1, 200919, Control_c, 0, 64, 37
1, 200934, Control_c, 0, 64, 43
1, 200949, Control_c, 0, 64, 48
1, 200964, Control_c, 0, 64, 49
1, 200979, Control_c, 0, 64, 47
1, 200994, Control_c, 0, 64, 46
1, 201016, Control_c, 0, 64, 47
1, 201031, Control_c, 0, 64, 49
1, 201045, Control_c, 0, 64, 49
1, 201058, Note_on_c, 0, 55, 73
1, 201059, Note_on_c, 0, 51, 73
1, 201060, Control_c, 0, 64, 48
1, 201068, Note_on_c, 0, 48, 60
1, 201075, Note_off_c, 0, 63, 59
1, 201075, Control_c, 0, 64, 45
1, 201083, Note_off_c, 0, 55, 68
1, 201089, Note_off_c, 0, 51, 67
1, 201090, Control_c, 0, 64, 42
1, 201092, Note_off_c, 0, 48, 64
1, 201105, Control_c, 0, 64, 45
1, 201119, Control_c, 0, 64, 47
1, 201134, Control_c, 0, 64, 48
1, 201149, Control_c, 0, 64, 46
1, 201164, Control_c, 0, 64, 43
1, 201179, Control_c, 0, 64, 44
1, 201191, Note_on_c, 0, 61, 78
1, 201194, Control_c, 0, 64, 47
1, 201208, Control_c, 0, 64, 49
1, 201226, Note_off_c, 0, 61, 63
1, 201238, Control_c, 0, 64, 47
1, 201245, Note_on_c, 0, 63, 64
1, 201253, Control_c, 0, 64, 46
1, 201268, Control_c, 0, 64, 47
1, 201283, Control_c, 0, 64, 50
1, 201295, Note_on_c, 0, 61, 76
1, 201298, Control_c, 0, 64, 51
1, 201308, Note_off_c, 0, 63, 64
1, 201313, Control_c, 0, 64, 50
1, 201328, Note_on_c, 0, 51, 69
1, 201328, Control_c, 0, 64, 48
1, 201333, Note_on_c, 0, 46, 68
1, 201335, Note_on_c, 0, 43, 43
1, 201340, Note_on_c, 0, 60, 65
1, 201342, Note_off_c, 0, 61, 62
1, 201343, Control_c, 0, 64, 48
1, 201355, Note_off_c, 0, 51, 64
1, 201357, Control_c, 0, 64, 50
1, 201361, Note_off_c, 0, 46, 64
1, 201367, Note_off_c, 0, 43, 53
1, 201372, Control_c, 0, 64, 53
1, 201398, Note_on_c, 0, 61, 76
1, 201402, Note_off_c, 0, 60, 63
1, 201402, Control_c, 0, 64, 51
1, 201417, Control_c, 0, 64, 47
1, 201447, Control_c, 0, 64, 52
1, 201459, Note_on_c, 0, 60, 87
1, 201459, Note_off_c, 0, 61, 64
1, 201462, Control_c, 0, 64, 52
1, 201477, Control_c, 0, 64, 52
1, 201492, Control_c, 0, 64, 50
1, 201507, Control_c, 0, 64, 46
1, 201522, Control_c, 0, 64, 46
1, 201536, Control_c, 0, 64, 50
1, 201551, Control_c, 0, 64, 51
1, 201566, Control_c, 0, 64, 50
1, 201581, Control_c, 0, 64, 48
1, 201596, Control_c, 0, 64, 45
1, 201611, Control_c, 0, 64, 46
1, 201623, Note_on_c, 0, 51, 81
1, 201625, Note_on_c, 0, 48, 78
1, 201626, Control_c, 0, 64, 49
1, 201632, Note_on_c, 0, 44, 70
1, 201647, Note_off_c, 0, 51, 68
1, 201653, Note_off_c, 0, 48, 69
1, 201655, Control_c, 0, 64, 48
1, 201662, Note_off_c, 0, 60, 60
1, 201670, Control_c, 0, 64, 47
1, 201671, Note_off_c, 0, 44, 66
1, 201685, Control_c, 0, 64, 47
1, 201700, Control_c, 0, 64, 48
1, 201715, Control_c, 0, 64, 47
1, 201729, Control_c, 0, 64, 46
1, 201744, Control_c, 0, 64, 45
1, 201766, Control_c, 0, 64, 45
1, 201771, Note_on_c, 0, 58, 86
1, 201796, Control_c, 0, 64, 44
1, 201811, Control_c, 0, 64, 42
1, 201818, Note_on_c, 0, 60, 62
1, 201820, Note_off_c, 0, 58, 64
1, 201826, Control_c, 0, 64, 41
1, 201840, Control_c, 0, 64, 40
1, 201855, Control_c, 0, 64, 37
1, 201870, Control_c, 0, 64, 36
1, 201885, Control_c, 0, 64, 34
1, 201885, Note_on_c, 0, 58, 77
1, 201894, Note_off_c, 0, 60, 62
1, 201900, Control_c, 0, 64, 32
1, 201906, Note_on_c, 0, 48, 76
1, 201909, Note_on_c, 0, 40, 64
1, 201911, Note_on_c, 0, 43, 72
1, 201914, Control_c, 0, 64, 31
1, 201928, Note_off_c, 0, 48, 68
1, 201929, Control_c, 0, 64, 32
1, 201930, Note_on_c, 0, 57, 69
1, 201935, Note_off_c, 0, 40, 66
1, 201935, Note_off_c, 0, 58, 65
1, 201938, Note_off_c, 0, 43, 64
1, 201944, Control_c, 0, 64, 32
1, 201959, Control_c, 0, 64, 27
1, 201974, Control_c, 0, 64, 21
1, 201993, Note_on_c, 0, 58, 79
1, 201995, Note_off_c, 0, 57, 62
1, 202003, Control_c, 0, 64, 20
1, 202018, Control_c, 0, 64, 0
1, 202049, Note_off_c, 0, 58, 66
1, 202050, Note_on_c, 0, 57, 83
1, 202107, Control_c, 0, 64, 10
1, 202121, Control_c, 0, 64, 18
1, 202136, Control_c, 0, 64, 17
1, 202151, Control_c, 0, 64, 15
1, 202182, Control_c, 0, 64, 18
1, 202197, Control_c, 0, 64, 20
1, 202207, Note_on_c, 0, 48, 77
1, 202209, Note_on_c, 0, 45, 72
1, 202211, Control_c, 0, 64, 15
1, 202219, Note_on_c, 0, 41, 59
1, 202226, Control_c, 0, 64, 0
1, 202231, Note_off_c, 0, 48, 68
1, 202234, Note_off_c, 0, 45, 67
1, 202243, Note_off_c, 0, 57, 51
1, 202248, Note_off_c, 0, 41, 63
1, 202339, Note_on_c, 0, 56, 85
1, 202392, Note_off_c, 0, 56, 61
1, 202394, Note_on_c, 0, 58, 65
1, 202404, Control_c, 0, 64, 10
1, 202419, Control_c, 0, 64, 13
1, 202449, Control_c, 0, 64, 0
1, 202472, Note_on_c, 0, 56, 71
1, 202477, Note_off_c, 0, 58, 65
1, 202493, Control_c, 0, 64, 13
1, 202498, Note_on_c, 0, 46, 76
1, 202511, Note_on_c, 0, 38, 59
1, 202515, Note_on_c, 0, 41, 63
1, 202515, Control_c, 0, 64, 15
1, 202521, Note_on_c, 0, 55, 71
1, 202525, Note_off_c, 0, 56, 62
1, 202530, Note_off_c, 0, 46, 66
1, 202530, Control_c, 0, 64, 13
1, 202541, Note_off_c, 0, 41, 63
1, 202543, Note_off_c, 0, 38, 63
1, 202544, Control_c, 0, 64, 10
1, 202574, Control_c, 0, 64, 13
1, 202581, Note_on_c, 0, 56, 75
1, 202588, Note_off_c, 0, 55, 63
1, 202589, Control_c, 0, 64, 20
1, 202604, Control_c, 0, 64, 18
1, 202618, Control_c, 0, 64, 0
1, 202651, Note_on_c, 0, 55, 88
1, 202654, Note_off_c, 0, 56, 64
1, 202775, Note_off_c, 0, 55, 64
1, 202818, Note_on_c, 0, 39, 62
1, 202825, Note_on_c, 0, 46, 57
1, 202827, Note_on_c, 0, 43, 53
1, 202851, Note_off_c, 0, 46, 57
1, 202854, Note_off_c, 0, 39, 60
1, 202856, Note_off_c, 0, 43, 55
1, 202984, Note_on_c, 0, 68, 61
1, 203018, Note_off_c, 0, 68, 65
1, 203041, Note_on_c, 0, 70, 59
1, 203096, Note_off_c, 0, 70, 61
1, 203099, Note_on_c, 0, 68, 61
1, 203109, Note_on_c, 0, 46, 48
1, 203119, Note_on_c, 0, 38, 23
1, 203119, Note_on_c, 0, 41, 44
1, 203129, Note_off_c, 0, 68, 66
1, 203137, Note_off_c, 0, 46, 54
1, 203142, Note_on_c, 0, 67, 61
1, 203155, Note_off_c, 0, 41, 49
1, 203164, Note_off_c, 0, 38, 37
1, 203174, Note_off_c, 0, 67, 62
1, 203214, Note_on_c, 0, 68, 57
1, 203249, Note_off_c, 0, 68, 65
1, 203267, Note_on_c, 0, 67, 67
1, 203370, Note_off_c, 0, 67, 63
1, 203424, Note_on_c, 0, 46, 55
1, 203429, Note_on_c, 0, 39, 54
1, 203433, Note_on_c, 0, 43, 46
1, 203451, Note_off_c, 0, 46, 61
1, 203465, Note_off_c, 0, 39, 63
1, 203466, Note_off_c, 0, 43, 49
1, 203581, Note_on_c, 0, 56, 86
1, 203635, Note_off_c, 0, 56, 65
1, 203640, Note_on_c, 0, 58, 69
1, 203648, Control_c, 0, 64, 10
1, 203663, Control_c, 0, 64, 0
1, 203713, Note_on_c, 0, 56, 71
1, 203719, Note_off_c, 0, 58, 64
1, 203730, Note_on_c, 0, 46, 69
1, 203736, Note_on_c, 0, 38, 52
1, 203739, Note_on_c, 0, 41, 60
1, 203748, Note_on_c, 0, 55, 72
1, 203751, Note_off_c, 0, 56, 63
1, 203756, Note_off_c, 0, 46, 64
1, 203766, Note_off_c, 0, 41, 61
1, 203767, Note_off_c, 0, 38, 61
1, 203814, Note_off_c, 0, 55, 63
1, 203814, Note_on_c, 0, 56, 71
1, 203866, Note_on_c, 0, 55, 87
1, 203895, Note_off_c, 0, 56, 63
1, 203975, Control_c, 0, 64, 15
1, 203990, Control_c, 0, 64, 0
1, 203995, Note_off_c, 0, 55, 63
1, 204052, Note_on_c, 0, 39, 54
1, 204053, Note_on_c, 0, 46, 60
1, 204070, Note_on_c, 0, 43, 28
1, 204087, Note_off_c, 0, 46, 62
1, 204094, Note_off_c, 0, 39, 59
1, 204110, Note_off_c, 0, 43, 42
1, 204219, Note_on_c, 0, 68, 53
1, 204243, Note_off_c, 0, 68, 60
1, 204269, Note_on_c, 0, 70, 62
1, 204321, Note_on_c, 0, 68, 66
1, 204329, Note_off_c, 0, 70, 62
1, 204338, Note_on_c, 0, 46, 50
1, 204339, Note_on_c, 0, 38, 40
1, 204345, Note_on_c, 0, 41, 45
1, 204362, Note_off_c, 0, 68, 65
1, 204366, Note_off_c, 0, 46, 59
1, 204371, Note_off_c, 0, 38, 54
1, 204376, Note_off_c, 0, 41, 57
1, 204380, Note_on_c, 0, 67, 53
1, 204410, Note_off_c, 0, 67, 54
1, 204435, Note_on_c, 0, 68, 61
1, 204479, Note_on_c, 0, 67, 57
1, 204482, Note_off_c, 0, 68, 59
1, 204546, Control_c, 0, 64, 20
1, 204561, Control_c, 0, 64, 21
1, 204574, Note_off_c, 0, 67, 63
1, 204576, Control_c, 0, 64, 10
1, 204592, Control_c, 0, 64, 0
1, 204621, Control_c, 0, 64, 18
1, 204636, Control_c, 0, 64, 24
1, 204645, Note_on_c, 0, 46, 63
1, 204651, Note_on_c, 0, 39, 53
1, 204651, Control_c, 0, 64, 21
1, 204656, Note_on_c, 0, 43, 48
1, 204666, Control_c, 0, 64, 15
1, 204675, Note_off_c, 0, 46, 64
1, 204681, Control_c, 0, 64, 17
1, 204685, Note_off_c, 0, 39, 63
1, 204687, Note_off_c, 0, 43, 51
1, 204695, Control_c, 0, 64, 25
1, 204710, Control_c, 0, 64, 27
1, 204725, Control_c, 0, 64, 25
1, 204739, Control_c, 0, 64, 23
1, 204762, Control_c, 0, 64, 26
1, 204777, Control_c, 0, 64, 32
1, 204792, Control_c, 0, 64, 34
1, 204797, Note_on_c, 0, 56, 75
1, 204806, Control_c, 0, 64, 31
1, 204821, Control_c, 0, 64, 26
1, 204836, Control_c, 0, 64, 28
1, 204840, Note_off_c, 0, 56, 62
1, 204845, Note_on_c, 0, 58, 67
1, 204851, Control_c, 0, 64, 33
1, 204866, Control_c, 0, 64, 34
1, 204880, Control_c, 0, 64, 30
1, 204895, Control_c, 0, 64, 24
1, 204910, Control_c, 0, 64, 23
1, 204916, Note_on_c, 0, 56, 55
1, 204920, Note_off_c, 0, 58, 63
1, 204925, Control_c, 0, 64, 25
1, 204952, Note_off_c, 0, 56, 63
1, 204954, Control_c, 0, 64, 23
1, 204956, Note_on_c, 0, 41, 49
1, 204960, Note_on_c, 0, 55, 56
1, 204969, Control_c, 0, 64, 17
1, 204970, Note_on_c, 0, 46, 28
1, 204984, Control_c, 0, 64, 13
1, 204988, Note_off_c, 0, 41, 54
1, 204999, Control_c, 0, 64, 17
1, 205000, Note_off_c, 0, 55, 61
1, 205009, Note_off_c, 0, 46, 30
1, 205013, Control_c, 0, 64, 21
1, 205043, Control_c, 0, 64, 20
1, 205048, Note_on_c, 0, 56, 49
1, 205058, Control_c, 0, 64, 17
1, 205073, Control_c, 0, 64, 18
1, 205087, Control_c, 0, 64, 20
1, 205096, Note_off_c, 0, 56, 62
1, 205102, Control_c, 0, 64, 21
1, 205125, Note_on_c, 0, 46, 63
1, 205129, Note_on_c, 0, 55, 57
1, 205132, Control_c, 0, 64, 20
1, 205137, Note_on_c, 0, 43, 54
1, 205137, Note_on_c, 0, 39, 58
1, 205151, Note_off_c, 0, 46, 63
1, 205162, Control_c, 0, 64, 18
1, 205166, Note_off_c, 0, 39, 60
1, 205167, Note_off_c, 0, 43, 53
1, 205172, Note_off_c, 0, 55, 62
1, 205206, Control_c, 0, 64, 17
1, 205221, Control_c, 0, 64, 15
1, 205222, Note_on_c, 0, 51, 61
1, 205236, Control_c, 0, 64, 13
1, 205251, Control_c, 0, 64, 10
1, 205258, Note_off_c, 0, 51, 60
1, 205266, Control_c, 0, 64, 13
1, 205280, Control_c, 0, 64, 20
1, 205310, Control_c, 0, 64, 18
1, 205314, Note_on_c, 0, 46, 67
1, 205346, Note_off_c, 0, 46, 62
1, 205379, Note_on_c, 0, 51, 64
1, 205385, Control_c, 0, 64, 17
1, 205415, Control_c, 0, 64, 15
1, 205422, Note_off_c, 0, 51, 63
1, 205444, Control_c, 0, 64, 10
1, 205453, Note_on_c, 0, 55, 57
1, 205459, Control_c, 0, 64, 0
1, 205536, Note_off_c, 0, 55, 55
1, 205538, Note_on_c, 0, 51, 64
1, 205583, Note_off_c, 0, 51, 63
1, 205585, Control_c, 0, 64, 13
1, 205595, Note_on_c, 0, 58, 54
1, 205615, Control_c, 0, 64, 10
1, 205629, Control_c, 0, 64, 0
1, 205632, Note_off_c, 0, 58, 66
1, 205673, Note_on_c, 0, 55, 60
1, 205674, Control_c, 0, 64, 13
1, 205689, Control_c, 0, 64, 15
1, 205704, Control_c, 0, 64, 10
1, 205711, Note_off_c, 0, 55, 64
1, 205719, Control_c, 0, 64, 0
1, 205750, Note_on_c, 0, 63, 65
1, 205763, Control_c, 0, 64, 15
1, 205778, Control_c, 0, 64, 10
1, 205793, Control_c, 0, 64, 0
1, 205820, Note_on_c, 0, 58, 65
1, 205837, Control_c, 0, 64, 15
1, 205841, Note_off_c, 0, 63, 53
1, 205852, Control_c, 0, 64, 17
1, 205865, Note_off_c, 0, 58, 60
1, 205867, Control_c, 0, 64, 15
1, 205881, Control_c, 0, 64, 0
1, 205888, Note_on_c, 0, 67, 60
1, 205896, Control_c, 0, 64, 15
1, 205911, Control_c, 0, 64, 24
1, 205926, Control_c, 0, 64, 25
1, 205941, Control_c, 0, 64, 21
1, 205955, Control_c, 0, 64, 13
1, 205968, Note_off_c, 0, 67, 56
1, 205969, Note_on_c, 0, 63, 60
1, 205985, Control_c, 0, 64, 18
1, 206000, Control_c, 0, 64, 20
1, 206015, Control_c, 0, 64, 18
1, 206029, Control_c, 0, 64, 17
1, 206035, Note_on_c, 0, 58, 63
1, 206059, Note_off_c, 0, 63, 62
1, 206105, Note_off_c, 0, 58, 61
1, 206108, Note_on_c, 0, 55, 62
1, 206118, Control_c, 0, 64, 15
1, 206133, Control_c, 0, 64, 13
1, 206142, Note_off_c, 0, 55, 64
1, 206182, Note_on_c, 0, 63, 66
1, 206193, Control_c, 0, 64, 10
1, 206208, Control_c, 0, 64, 0
1, 206212, Note_off_c, 0, 63, 67
1, 206223, Control_c, 0, 64, 10
1, 206238, Control_c, 0, 64, 23
1, 206254, Note_on_c, 0, 58, 68
1, 206260, Control_c, 0, 64, 25
1, 206290, Control_c, 0, 64, 20
1, 206293, Note_off_c, 0, 58, 62
1, 206305, Control_c, 0, 64, 18
1, 206320, Control_c, 0, 64, 21
1, 206333, Note_on_c, 0, 67, 65
1, 206334, Control_c, 0, 64, 23
1, 206349, Control_c, 0, 64, 21
1, 206364, Control_c, 0, 64, 18
1, 206378, Control_c, 0, 64, 17
1, 206393, Control_c, 0, 64, 18
1, 206402, Note_on_c, 0, 63, 63
1, 206408, Control_c, 0, 64, 23
1, 206423, Control_c, 0, 64, 24
1, 206438, Note_off_c, 0, 67, 40
1, 206438, Control_c, 0, 64, 21
1, 206452, Control_c, 0, 64, 13
1, 206466, Note_off_c, 0, 63, 63
1, 206467, Note_on_c, 0, 70, 63
1, 206482, Control_c, 0, 64, 15
1, 206497, Control_c, 0, 64, 17
1, 206526, Control_c, 0, 64, 10
1, 206529, Note_off_c, 0, 70, 60
1, 206547, Note_on_c, 0, 67, 62
1, 206556, Control_c, 0, 64, 17
1, 206571, Control_c, 0, 64, 20
1, 206585, Control_c, 0, 64, 18
1, 206598, Note_on_c, 0, 63, 67
1, 206600, Control_c, 0, 64, 10
1, 206615, Control_c, 0, 64, 0
1, 206623, Note_off_c, 0, 67, 61
1, 206630, Control_c, 0, 64, 13
1, 206645, Control_c, 0, 64, 20
1, 206659, Control_c, 0, 64, 21
1, 206664, Note_on_c, 0, 58, 65
1, 206667, Note_off_c, 0, 63, 62
1, 206674, Control_c, 0, 64, 17
1, 206689, Control_c, 0, 64, 0
1, 206703, Control_c, 0, 64, 10
1, 206705, Note_off_c, 0, 58, 58
1, 206718, Control_c, 0, 64, 20
1, 206733, Control_c, 0, 64, 21
1, 206746, Note_on_c, 0, 67, 60
1, 206748, Control_c, 0, 64, 20
1, 206763, Control_c, 0, 64, 10
1, 206792, Control_c, 0, 64, 20
1, 206807, Control_c, 0, 64, 23
1, 206811, Note_on_c, 0, 63, 63
1, 206822, Control_c, 0, 64, 18
1, 206837, Control_c, 0, 64, 0
1, 206845, Note_off_c, 0, 67, 38
1, 206857, Note_off_c, 0, 63, 62
1, 206868, Note_on_c, 0, 70, 58
1, 206906, Note_off_c, 0, 70, 63
1, 206944, Note_on_c, 0, 67, 72
1, 207029, Note_on_c, 0, 75, 63
1, 207039, Note_off_c, 0, 67, 50
1, 207092, Note_on_c, 0, 70, 67
1, 207097, Note_off_c, 0, 75, 55
1, 207141, Control_c, 0, 64, 10
1, 207156, Control_c, 0, 64, 0
1, 207164, Note_on_c, 0, 67, 70
1, 207194, Note_off_c, 0, 70, 61
1, 207224, Note_off_c, 0, 67, 59
1, 207239, Note_on_c, 0, 63, 69
1, 207284, Note_off_c, 0, 63, 53
1, 207303, Note_on_c, 0, 70, 67
1, 207305, Control_c, 0, 64, 13
1, 207320, Control_c, 0, 64, 0
1, 207358, Note_on_c, 0, 67, 68
1, 207426, Note_off_c, 0, 67, 62
1, 207429, Note_off_c, 0, 70, 54
1, 207447, Note_on_c, 0, 75, 68
1, 207468, Control_c, 0, 64, 10
1, 207475, Note_off_c, 0, 75, 68
1, 207483, Control_c, 0, 64, 0
1, 207528, Note_on_c, 0, 70, 66
1, 207542, Control_c, 0, 64, 18
1, 207557, Note_off_c, 0, 70, 65
1, 207557, Control_c, 0, 64, 15
1, 207572, Control_c, 0, 64, 0
1, 207592, Note_on_c, 0, 79, 63
1, 207647, Note_on_c, 0, 75, 73
1, 207671, Note_off_c, 0, 79, 51
1, 207704, Note_off_c, 0, 75, 64
1, 207725, Note_on_c, 0, 82, 74
1, 207758, Note_off_c, 0, 82, 69
1, 207906, Note_on_c, 0, 70, 62
1, 207907, Note_on_c, 0, 58, 54
1, 207924, Note_off_c, 0, 70, 65
1, 207942, Note_off_c, 0, 58, 65
1, 208061, Note_on_c, 0, 63, 55
1, 208066, Note_on_c, 0, 75, 67
1, 208086, Note_off_c, 0, 63, 64
1, 208092, Note_off_c, 0, 75, 69
1, 208214, Note_on_c, 0, 79, 62
1, 208220, Note_on_c, 0, 67, 60
1, 208241, Note_off_c, 0, 67, 64
1, 208241, Note_off_c, 0, 79, 63
1, 208361, Note_on_c, 0, 70, 69
1, 208366, Note_on_c, 0, 82, 68
1, 208387, Note_off_c, 0, 70, 68
1, 208389, Note_off_c, 0, 82, 67
1, 208527, Note_on_c, 0, 58, 76
1, 208550, Note_off_c, 0, 58, 68
1, 208676, Note_on_c, 0, 63, 78
1, 208705, Note_off_c, 0, 63, 67
1, 208826, Note_on_c, 0, 67, 67
1, 208857, Note_off_c, 0, 67, 64
1, 208980, Note_on_c, 0, 70, 65
1, 209012, Note_off_c, 0, 70, 66
1, 209136, Note_on_c, 0, 46, 78
1, 209147, Note_on_c, 0, 34, 62
1, 209168, Note_off_c, 0, 46, 64
1, 209181, Note_off_c, 0, 34, 63
1, 209292, Note_on_c, 0, 39, 72
1, 209296, Note_on_c, 0, 51, 73
1, 209322, Note_off_c, 0, 39, 63
1, 209330, Note_off_c, 0, 51, 67
1, 209442, Note_on_c, 0, 55, 75
1, 209446, Note_on_c, 0, 43, 77
1, 209468, Note_off_c, 0, 55, 67
1, 209474, Note_off_c, 0, 43, 63
1, 209590, Note_on_c, 0, 58, 82
1, 209604, Note_on_c, 0, 46, 72
1, 209619, Note_off_c, 0, 58, 67
1, 209648, Note_off_c, 0, 46, 60
1, 209740, Note_on_c, 0, 63, 79
1, 209749, Note_on_c, 0, 51, 70
1, 209772, Note_off_c, 0, 51, 64
1, 209772, Note_off_c, 0, 63, 65
1, 209886, Note_on_c, 0, 55, 76
1, 209887, Note_on_c, 0, 67, 87
1, 209909, Note_off_c, 0, 67, 69
1, 209910, Note_off_c, 0, 55, 68
1, 210035, Note_on_c, 0, 70, 85
1, 210044, Note_on_c, 0, 58, 71
1, 210069, Note_off_c, 0, 70, 65
1, 210089, Note_off_c, 0, 58, 58
1, 210183, Note_on_c, 0, 75, 85
1, 210188, Note_on_c, 0, 63, 75
1, 210219, Note_off_c, 0, 63, 66
1, 210227, Note_off_c, 0, 75, 64
1, 210322, Note_on_c, 0, 79, 86
1, 210324, Note_on_c, 0, 67, 72
1, 210346, Note_off_c, 0, 79, 66
1, 210349, Note_off_c, 0, 67, 67
1, 210482, Note_on_c, 0, 82, 75
1, 210490, Note_on_c, 0, 70, 65
1, 210509, Note_off_c, 0, 70, 66
1, 210522, Note_off_c, 0, 82, 64
1, 210687, Note_on_c, 0, 81, 61
1, 210805, Note_off_c, 0, 81, 55
1, 210853, Note_on_c, 0, 84, 59
1, 210873, Note_off_c, 0, 84, 66
1, 211016, Note_on_c, 0, 82, 68
1, 211039, Note_off_c, 0, 82, 67
1, 211167, Note_on_c, 0, 80, 69
1, 211192, Note_off_c, 0, 80, 67
1, 211317, Note_on_c, 0, 79, 65
1, 211345, Note_off_c, 0, 79, 67
1, 211420, Control_c, 0, 64, 10
1, 211435, Control_c, 0, 64, 0
1, 211471, Note_on_c, 0, 77, 66
1, 211479, Control_c, 0, 64, 15
1, 211501, Control_c, 0, 64, 18
1, 211516, Control_c, 0, 64, 17
1, 211531, Control_c, 0, 64, 0
1, 211561, Control_c, 0, 64, 15
1, 211575, Control_c, 0, 64, 17
1, 211579, Note_off_c, 0, 77, 58
1, 211594, Note_on_c, 0, 79, 53
1, 211620, Control_c, 0, 64, 18
1, 211635, Control_c, 0, 64, 25
1, 211636, Note_off_c, 0, 79, 56
1, 211648, Note_on_c, 0, 58, 53
1, 211649, Control_c, 0, 64, 29
1, 211656, Note_on_c, 0, 77, 55
1, 211679, Control_c, 0, 64, 26
1, 211684, Note_off_c, 0, 58, 64
1, 211695, Note_off_c, 0, 77, 59
1, 211708, Control_c, 0, 64, 27
1, 211722, Note_on_c, 0, 79, 56
1, 211738, Control_c, 0, 64, 26
1, 211746, Note_off_c, 0, 79, 55
1, 211753, Control_c, 0, 64, 24
1, 211769, Control_c, 0, 64, 26
1, 211773, Note_on_c, 0, 77, 60
1, 211784, Control_c, 0, 64, 31
1, 211798, Control_c, 0, 64, 33
1, 211800, Note_on_c, 0, 62, 60
1, 211802, Note_off_c, 0, 77, 63
1, 211813, Control_c, 0, 64, 31
1, 211820, Note_off_c, 0, 62, 59
1, 211826, Note_on_c, 0, 79, 59
1, 211828, Control_c, 0, 64, 26
1, 211843, Control_c, 0, 64, 25
1, 211858, Control_c, 0, 64, 29
1, 211862, Note_off_c, 0, 79, 51
1, 211872, Control_c, 0, 64, 32
1, 211887, Note_on_c, 0, 77, 56
1, 211887, Control_c, 0, 64, 29
1, 211902, Control_c, 0, 64, 21
1, 211916, Control_c, 0, 64, 15
1, 211924, Note_off_c, 0, 77, 52
1, 211931, Control_c, 0, 64, 21
1, 211943, Note_on_c, 0, 65, 72
1, 211945, Note_on_c, 0, 79, 67
1, 211946, Control_c, 0, 64, 28
1, 211961, Control_c, 0, 64, 29
1, 211970, Note_off_c, 0, 65, 69
1, 211976, Control_c, 0, 64, 21
1, 211977, Note_off_c, 0, 79, 55
1, 211990, Control_c, 0, 64, 0
1, 212005, Control_c, 0, 64, 13
1, 212014, Note_on_c, 0, 77, 66
1, 212020, Control_c, 0, 64, 24
1, 212035, Control_c, 0, 64, 28
1, 212046, Note_off_c, 0, 77, 60
1, 212050, Control_c, 0, 64, 25
1, 212065, Note_on_c, 0, 79, 60
1, 212065, Control_c, 0, 64, 0
1, 212090, Note_on_c, 0, 68, 78
1, 212095, Control_c, 0, 64, 10
1, 212110, Control_c, 0, 64, 24
1, 212113, Note_off_c, 0, 68, 69
1, 212117, Note_off_c, 0, 79, 59
1, 212124, Control_c, 0, 64, 27
1, 212128, Note_on_c, 0, 77, 65
1, 212139, Control_c, 0, 64, 26
1, 212154, Control_c, 0, 64, 15
1, 212169, Control_c, 0, 64, 0
1, 212177, Note_off_c, 0, 77, 58
1, 212184, Control_c, 0, 64, 10
1, 212191, Note_on_c, 0, 79, 55
1, 212198, Control_c, 0, 64, 21
1, 212213, Control_c, 0, 64, 24
1, 212228, Control_c, 0, 64, 23
1, 212250, Control_c, 0, 64, 10
1, 212253, Note_on_c, 0, 46, 74
1, 212253, Note_off_c, 0, 79, 60
1, 212265, Control_c, 0, 64, 0
1, 212268, Note_on_c, 0, 77, 66
1, 212280, Note_off_c, 0, 46, 64
1, 212280, Control_c, 0, 64, 15
1, 212294, Control_c, 0, 64, 21
1, 212309, Control_c, 0, 64, 20
1, 212312, Note_off_c, 0, 77, 60
1, 212324, Note_on_c, 0, 79, 46
1, 212324, Control_c, 0, 64, 0
1, 212368, Note_off_c, 0, 79, 48
1, 212399, Note_on_c, 0, 77, 66
1, 212402, Note_on_c, 0, 50, 75
1, 212429, Note_off_c, 0, 50, 65
1, 212439, Note_off_c, 0, 77, 58
1, 212457, Note_on_c, 0, 79, 62
1, 212492, Note_off_c, 0, 79, 54
1, 212518, Note_on_c, 0, 77, 65
1, 212550, Note_on_c, 0, 53, 75
1, 212562, Note_off_c, 0, 77, 61
1, 212576, Note_off_c, 0, 53, 68
1, 212581, Note_on_c, 0, 79, 61
1, 212613, Note_off_c, 0, 79, 54
1, 212637, Note_on_c, 0, 77, 61
1, 212681, Note_off_c, 0, 77, 61
1, 212698, Note_on_c, 0, 79, 61
1, 212703, Note_on_c, 0, 56, 72
1, 212729, Note_off_c, 0, 79, 51
1, 212731, Note_off_c, 0, 56, 64
1, 212758, Note_on_c, 0, 77, 56
1, 212798, Note_off_c, 0, 77, 59
1, 212813, Note_on_c, 0, 79, 61
1, 212852, Note_off_c, 0, 79, 55
1, 212855, Note_on_c, 0, 47, 68
1, 212875, Note_on_c, 0, 77, 62
1, 212890, Note_off_c, 0, 47, 65
1, 212917, Note_off_c, 0, 77, 59
1, 212941, Note_on_c, 0, 79, 50
1, 212962, Control_c, 0, 64, 13
1, 212972, Note_off_c, 0, 79, 52
1, 212977, Control_c, 0, 64, 15
1, 212999, Control_c, 0, 64, 10
1, 213003, Note_on_c, 0, 77, 62
1, 213028, Control_c, 0, 64, 17
1, 213029, Note_on_c, 0, 50, 58
1, 213042, Note_off_c, 0, 77, 56
1, 213043, Control_c, 0, 64, 25
1, 213055, Note_off_c, 0, 50, 64
1, 213058, Note_on_c, 0, 79, 47
1, 213072, Control_c, 0, 64, 21
1, 213087, Note_off_c, 0, 79, 53
1, 213087, Control_c, 0, 64, 18
1, 213114, Note_on_c, 0, 77, 52
1, 213117, Control_c, 0, 64, 20
1, 213147, Control_c, 0, 64, 15
1, 213153, Note_off_c, 0, 77, 58
1, 213162, Control_c, 0, 64, 0
1, 213177, Note_on_c, 0, 79, 48
1, 213177, Note_on_c, 0, 53, 59
1, 213192, Control_c, 0, 64, 15
1, 213201, Note_off_c, 0, 79, 55
1, 213207, Control_c, 0, 64, 20
1, 213208, Note_off_c, 0, 53, 67
1, 213224, Note_on_c, 0, 77, 56
1, 213236, Control_c, 0, 64, 15
1, 213251, Control_c, 0, 64, 13
1, 213265, Note_off_c, 0, 77, 57
1, 213280, Control_c, 0, 64, 15
1, 213282, Note_on_c, 0, 79, 49
1, 213295, Control_c, 0, 64, 17
1, 213308, Note_off_c, 0, 79, 54
1, 213310, Control_c, 0, 64, 0
1, 213332, Note_on_c, 0, 56, 56
1, 213334, Note_on_c, 0, 77, 58
1, 213356, Note_off_c, 0, 56, 62
1, 213370, Control_c, 0, 64, 10
1, 213374, Note_off_c, 0, 77, 58
1, 213387, Note_on_c, 0, 79, 60
1, 213400, Control_c, 0, 64, 0
1, 213412, Note_off_c, 0, 79, 57
1, 213443, Note_on_c, 0, 77, 64
1, 213459, Control_c, 0, 64, 17
1, 213465, Note_on_c, 0, 46, 63
1, 213474, Control_c, 0, 64, 13
1, 213484, Note_off_c, 0, 77, 61
1, 213488, Control_c, 0, 64, 0
1, 213496, Note_off_c, 0, 46, 62
1, 213497, Note_on_c, 0, 79, 59
1, 213518, Control_c, 0, 64, 13
1, 213523, Note_off_c, 0, 79, 54
1, 213533, Control_c, 0, 64, 21
1, 213548, Control_c, 0, 64, 20
1, 213554, Note_on_c, 0, 77, 64
1, 213562, Control_c, 0, 64, 0
1, 213601, Note_off_c, 0, 77, 60
1, 213603, Note_on_c, 0, 79, 67
1, 213608, Note_on_c, 0, 50, 63
1, 213622, Control_c, 0, 64, 13
1, 213635, Note_off_c, 0, 50, 65
1, 213636, Control_c, 0, 64, 0
1, 213654, Note_off_c, 0, 79, 57
1, 213670, Note_on_c, 0, 77, 63
1, 213695, Control_c, 0, 64, 15
1, 213710, Control_c, 0, 64, 13
1, 213712, Note_on_c, 0, 79, 60
1, 213719, Note_off_c, 0, 77, 61
1, 213725, Control_c, 0, 64, 0
1, 213762, Note_on_c, 0, 53, 71
1, 213777, Control_c, 0, 64, 18
1, 213778, Note_off_c, 0, 79, 57
1, 213788, Note_off_c, 0, 53, 68
1, 213792, Control_c, 0, 64, 28
1, 213793, Note_on_c, 0, 77, 63
1, 213822, Control_c, 0, 64, 24
1, 213837, Note_on_c, 0, 79, 57
1, 213837, Control_c, 0, 64, 23
1, 213842, Note_off_c, 0, 77, 61
1, 213851, Control_c, 0, 64, 25
1, 213866, Control_c, 0, 64, 29
1, 213881, Control_c, 0, 64, 30
1, 213886, Note_off_c, 0, 79, 57
1, 213895, Control_c, 0, 64, 29
1, 213907, Note_on_c, 0, 56, 63
1, 213907, Note_on_c, 0, 77, 66
1, 213910, Control_c, 0, 64, 24
1, 213925, Control_c, 0, 64, 23
1, 213927, Note_off_c, 0, 56, 64
1, 213948, Note_on_c, 0, 79, 60
1, 213954, Note_off_c, 0, 77, 62
1, 213955, Control_c, 0, 64, 25
1, 213970, Control_c, 0, 64, 23
1, 213985, Control_c, 0, 64, 13
1, 213997, Note_off_c, 0, 79, 56
1, 214000, Control_c, 0, 64, 0
1, 214020, Note_on_c, 0, 77, 65
1, 214030, Control_c, 0, 64, 20
1, 214044, Control_c, 0, 64, 25
1, 214053, Note_on_c, 0, 58, 67
1, 214059, Control_c, 0, 64, 24
1, 214068, Note_off_c, 0, 77, 61
1, 214070, Note_on_c, 0, 79, 63
1, 214074, Control_c, 0, 64, 0
1, 214083, Note_off_c, 0, 58, 66
1, 214110, Note_off_c, 0, 79, 53
1, 214119, Control_c, 0, 64, 21
1, 214134, Control_c, 0, 64, 26
1, 214134, Note_on_c, 0, 77, 65
1, 214149, Control_c, 0, 64, 23
1, 214164, Control_c, 0, 64, 0
1, 214179, Note_off_c, 0, 77, 62
1, 214188, Note_on_c, 0, 79, 67
1, 214199, Note_on_c, 0, 62, 64
1, 214208, Control_c, 0, 64, 23
1, 214223, Control_c, 0, 64, 25
1, 214227, Note_off_c, 0, 79, 55
1, 214229, Note_off_c, 0, 62, 64
1, 214238, Control_c, 0, 64, 13
1, 214247, Note_on_c, 0, 77, 68
1, 214253, Control_c, 0, 64, 0
1, 214283, Control_c, 0, 64, 20
1, 214294, Note_off_c, 0, 77, 62
1, 214298, Control_c, 0, 64, 29
1, 214304, Note_on_c, 0, 79, 63
1, 214312, Control_c, 0, 64, 27
1, 214327, Control_c, 0, 64, 10
1, 214333, Note_off_c, 0, 79, 52
1, 214335, Note_on_c, 0, 65, 62
1, 214342, Control_c, 0, 64, 0
1, 214355, Note_off_c, 0, 65, 67
1, 214357, Control_c, 0, 64, 17
1, 214363, Note_on_c, 0, 77, 69
1, 214372, Control_c, 0, 64, 29
1, 214386, Control_c, 0, 64, 32
1, 214401, Control_c, 0, 64, 28
1, 214407, Note_off_c, 0, 77, 62
1, 214414, Note_on_c, 0, 79, 68
1, 214416, Control_c, 0, 64, 0
1, 214446, Control_c, 0, 64, 25
1, 214450, Note_off_c, 0, 79, 52
1, 214460, Control_c, 0, 64, 34
1, 214473, Note_on_c, 0, 77, 70
1, 214475, Control_c, 0, 64, 35
1, 214482, Note_on_c, 0, 68, 65
1, 214497, Control_c, 0, 64, 27
1, 214512, Control_c, 0, 64, 0
1, 214517, Note_off_c, 0, 77, 63
1, 214518, Note_off_c, 0, 68, 67
1, 214542, Control_c, 0, 64, 24
1, 214544, Note_on_c, 0, 79, 49
1, 214557, Control_c, 0, 64, 32
1, 214572, Control_c, 0, 64, 29
1, 214587, Control_c, 0, 64, 15
1, 214590, Note_on_c, 0, 77, 64
1, 214593, Note_off_c, 0, 79, 61
1, 214601, Control_c, 0, 64, 0
1, 214616, Control_c, 0, 64, 15
1, 214631, Control_c, 0, 64, 27
1, 214640, Note_off_c, 0, 77, 61
1, 214646, Control_c, 0, 64, 29
1, 214649, Note_on_c, 0, 58, 51
1, 214655, Note_on_c, 0, 76, 60
1, 214661, Control_c, 0, 64, 24
1, 214673, Note_off_c, 0, 58, 60
1, 214675, Control_c, 0, 64, 10
1, 214690, Control_c, 0, 64, 0
1, 214705, Control_c, 0, 64, 20
1, 214706, Note_on_c, 0, 77, 69
1, 214710, Note_off_c, 0, 76, 63
1, 214719, Control_c, 0, 64, 26
1, 214733, Control_c, 0, 64, 25
1, 214748, Control_c, 0, 64, 17
1, 214763, Control_c, 0, 64, 10
1, 214778, Note_off_c, 0, 77, 59
1, 214778, Control_c, 0, 64, 21
1, 214784, Note_on_c, 0, 82, 72
1, 214792, Control_c, 0, 64, 28
1, 214802, Note_on_c, 0, 68, 51
1, 214807, Control_c, 0, 64, 29
1, 214821, Note_off_c, 0, 82, 54
1, 214822, Control_c, 0, 64, 27
1, 214825, Note_off_c, 0, 68, 60
1, 214837, Control_c, 0, 64, 20
1, 214852, Control_c, 0, 64, 23
1, 214867, Control_c, 0, 64, 29
1, 214897, Control_c, 0, 64, 28
1, 214911, Control_c, 0, 64, 21
1, 214926, Control_c, 0, 64, 17
1, 214941, Control_c, 0, 64, 24
1, 214956, Control_c, 0, 64, 26
1, 214981, Note_on_c, 0, 58, 46
1, 214986, Control_c, 0, 64, 24
1, 214991, Note_on_c, 0, 82, 64
1, 215001, Control_c, 0, 64, 20
1, 215010, Note_off_c, 0, 58, 57
1, 215016, Control_c, 0, 64, 24
1, 215022, Note_off_c, 0, 82, 66
1, 215031, Control_c, 0, 64, 32
1, 215046, Control_c, 0, 64, 34
1, 215061, Control_c, 0, 64, 32
1, 215075, Control_c, 0, 64, 29
1, 215105, Control_c, 0, 64, 33
1, 215120, Control_c, 0, 64, 34
1, 215134, Control_c, 0, 64, 32
1, 215149, Control_c, 0, 64, 20
1, 215164, Control_c, 0, 64, 0
1, 215233, Note_on_c, 0, 75, 53
1, 215252, Note_on_c, 0, 67, 31
1, 215254, Note_on_c, 0, 63, 28
1, 215290, Control_c, 0, 64, 52
1, 215305, Control_c, 0, 64, 62
1, 215320, Control_c, 0, 64, 65
1, 215329, Note_off_c, 0, 75, 56
1, 215335, Control_c, 0, 64, 66
1, 215349, Control_c, 0, 64, 68
1, 215364, Control_c, 0, 64, 71
1, 215379, Control_c, 0, 64, 74
1, 215394, Control_c, 0, 64, 76
1, 215409, Control_c, 0, 64, 78
1, 215423, Control_c, 0, 64, 79
1, 215438, Control_c, 0, 64, 80
1, 215453, Control_c, 0, 64, 82
1, 215463, Note_on_c, 0, 75, 55
1, 215467, Control_c, 0, 64, 82
1, 215481, Control_c, 0, 64, 83
1, 215511, Note_off_c, 0, 67, 41
1, 215525, Note_off_c, 0, 63, 42
1, 215615, Control_c, 0, 64, 82
1, 215621, Note_on_c, 0, 76, 70
1, 215624, Note_off_c, 0, 75, 55
1, 215630, Control_c, 0, 64, 81
1, 215645, Control_c, 0, 64, 78
1, 215659, Control_c, 0, 64, 72
1, 215674, Control_c, 0, 64, 63
1, 215689, Control_c, 0, 64, 0
1, 215789, Note_on_c, 0, 77, 70
1, 215827, Note_off_c, 0, 76, 59
1, 215964, Note_on_c, 0, 78, 74
1, 216009, Note_off_c, 0, 77, 57
1, 216143, Note_on_c, 0, 79, 73
1, 216183, Note_off_c, 0, 78, 59
1, 216416, Note_on_c, 0, 80, 69
1, 216442, Note_off_c, 0, 79, 60
1, 216448, Note_on_c, 0, 60, 27
1, 216449, Note_on_c, 0, 63, 33
1, 216772, Control_c, 0, 64, 44
1, 216787, Control_c, 0, 64, 57
1, 216802, Control_c, 0, 64, 61
1, 216816, Control_c, 0, 64, 64
1, 216831, Control_c, 0, 64, 66
1, 216846, Control_c, 0, 64, 69
1, 216861, Control_c, 0, 64, 71
1, 216876, Control_c, 0, 64, 75
1, 216891, Control_c, 0, 64, 77
1, 216906, Control_c, 0, 64, 79
1, 216920, Control_c, 0, 64, 80
1, 216935, Control_c, 0, 64, 82
1, 216950, Control_c, 0, 64, 83
1, 216965, Control_c, 0, 64, 84
1, 216979, Control_c, 0, 64, 84
1, 216993, Control_c, 0, 64, 85
1, 217008, Control_c, 0, 64, 86
1, 217023, Control_c, 0, 64, 86
1, 217038, Control_c, 0, 64, 87
1, 217046, Note_off_c, 0, 60, 36
1, 217053, Control_c, 0, 64, 88
1, 217067, Control_c, 0, 64, 88
1, 217070, Note_off_c, 0, 80, 34
1, 217097, Control_c, 0, 64, 89
1, 217112, Control_c, 0, 64, 89
1, 217132, Note_off_c, 0, 63, 35
1, 217156, Control_c, 0, 64, 90
1, 217502, Note_on_c, 0, 72, 50
1, 217535, Control_c, 0, 64, 89
1, 217539, Note_on_c, 0, 68, 34
1, 217544, Note_on_c, 0, 56, 31
1, 217550, Control_c, 0, 64, 88
1, 217553, Note_on_c, 0, 65, 28
1, 217565, Control_c, 0, 64, 86
1, 217580, Control_c, 0, 64, 84
1, 217594, Control_c, 0, 64, 80
1, 217609, Control_c, 0, 64, 72
1, 217624, Control_c, 0, 64, 60
1, 217639, Control_c, 0, 64, 0
1, 217743, Control_c, 0, 64, 15
1, 217758, Control_c, 0, 64, 59
1, 217773, Control_c, 0, 64, 64
1, 217788, Control_c, 0, 64, 67
1, 217803, Control_c, 0, 64, 71
1, 217817, Control_c, 0, 64, 75
1, 217832, Control_c, 0, 64, 79
1, 217847, Control_c, 0, 64, 81
1, 217861, Control_c, 0, 64, 82
1, 217876, Control_c, 0, 64, 84
1, 217891, Control_c, 0, 64, 86
1, 217906, Control_c, 0, 64, 87
1, 217921, Control_c, 0, 64, 88
1, 217935, Control_c, 0, 64, 89
1, 217940, Note_off_c, 0, 72, 63
1, 217950, Control_c, 0, 64, 90
1, 217961, Note_off_c, 0, 68, 41
1, 217965, Control_c, 0, 64, 91
1, 217980, Control_c, 0, 64, 92
1, 217995, Control_c, 0, 64, 93
1, 218009, Control_c, 0, 64, 93
1, 218039, Control_c, 0, 64, 94
1, 218045, Note_off_c, 0, 56, 40
1, 218051, Note_off_c, 0, 65, 34
1, 218098, Control_c, 0, 64, 94
1, 218388, Control_c, 0, 64, 94
1, 218403, Control_c, 0, 64, 93
1, 218418, Control_c, 0, 64, 92
1, 218432, Control_c, 0, 64, 91
1, 218447, Control_c, 0, 64, 88
1, 218462, Note_on_c, 0, 75, 51
1, 218462, Control_c, 0, 64, 84
1, 218468, Note_on_c, 0, 58, 36
1, 218477, Control_c, 0, 64, 76
1, 218489, Note_on_c, 0, 65, 21
1, 218492, Control_c, 0, 64, 65
1, 218495, Note_on_c, 0, 68, 26
1, 218507, Control_c, 0, 64, 0
1, 218549, Note_off_c, 0, 75, 51
1, 218551, Note_off_c, 0, 68, 41
1, 218632, Note_on_c, 0, 74, 50
1, 218656, Note_off_c, 0, 65, 42
1, 218671, Note_off_c, 0, 58, 41
1, 218671, Poly_aftertouch_c, 0, 68, 127
1, 218674, Note_off_c, 0, 74, 61
1, 218682, Poly_aftertouch_c, 0, 75, 0
1, 218703, Poly_aftertouch_c, 0, 68, 0
1, 218776, Note_on_c, 0, 75, 59
1, 218793, Note_on_c, 0, 58, 42
1, 218802, Note_on_c, 0, 74, 55
1, 218818, Note_on_c, 0, 68, 27
1, 218826, Note_on_c, 0, 65, 20
1, 218851, Note_off_c, 0, 75, 52
1, 218862, Note_off_c, 0, 68, 48
1, 218951, Note_on_c, 0, 72, 57
1, 218965, Note_off_c, 0, 65, 53
1, 218969, Note_off_c, 0, 74, 45
1, 218970, Note_off_c, 0, 58, 60
1, 219036, Note_off_c, 0, 72, 59
1, 219113, Note_on_c, 0, 74, 56
1, 219121, Note_on_c, 0, 65, 38
1, 219128, Note_on_c, 0, 58, 43
1, 219139, Note_on_c, 0, 68, 47
1, 219210, Note_off_c, 0, 68, 37
1, 219270, Note_off_c, 0, 74, 36
1, 219274, Note_on_c, 0, 77, 58
1, 219276, Note_on_c, 0, 62, 51
1, 219286, Note_off_c, 0, 65, 44
1, 219301, Note_off_c, 0, 62, 60
1, 219317, Note_off_c, 0, 58, 57
1, 219331, Note_off_c, 0, 77, 51
1, 219469, Note_on_c, 0, 75, 49
1, 219478, Control_c, 0, 64, 47
1, 219484, Note_on_c, 0, 67, 39
1, 219493, Control_c, 0, 64, 63
1, 219498, Note_on_c, 0, 51, 43
1, 219502, Note_on_c, 0, 63, 24
1, 219507, Control_c, 0, 64, 67
1, 219522, Control_c, 0, 64, 71
1, 219524, Note_off_c, 0, 75, 57
1, 219537, Control_c, 0, 64, 75
1, 219539, Note_off_c, 0, 63, 49
1, 219542, Note_off_c, 0, 51, 50
1, 219552, Control_c, 0, 64, 78
1, 219562, Note_off_c, 0, 67, 59
1, 219567, Control_c, 0, 64, 80
1, 219581, Control_c, 0, 64, 81
1, 219596, Control_c, 0, 64, 82
1, 219611, Control_c, 0, 64, 84
1, 219626, Control_c, 0, 64, 85
1, 219640, Control_c, 0, 64, 85
1, 219655, Control_c, 0, 64, 86
1, 219669, Note_on_c, 0, 63, 54
1, 219670, Control_c, 0, 64, 86
1, 219687, Note_on_c, 0, 51, 44
1, 219809, Note_off_c, 0, 51, 53
1, 219827, Control_c, 0, 64, 85
1, 219834, Note_off_c, 0, 63, 52
1, 219839, Note_on_c, 0, 64, 65
1, 219842, Control_c, 0, 64, 84
1, 219842, Note_on_c, 0, 52, 65
1, 219857, Control_c, 0, 64, 81
1, 219872, Control_c, 0, 64, 77
1, 219886, Control_c, 0, 64, 72
1, 219901, Control_c, 0, 64, 62
1, 219916, Control_c, 0, 64, 0
1, 219989, Note_on_c, 0, 53, 64
1, 219994, Note_on_c, 0, 65, 72
1, 220002, Note_off_c, 0, 52, 62
1, 220071, Note_off_c, 0, 64, 52
1, 220156, Note_on_c, 0, 54, 68
1, 220158, Note_on_c, 0, 66, 72
1, 220183, Note_off_c, 0, 53, 54
1, 220209, Note_off_c, 0, 65, 53
1, 220322, Note_on_c, 0, 55, 67
1, 220331, Note_on_c, 0, 67, 77
1, 220366, Note_off_c, 0, 66, 63
1, 220372, Note_off_c, 0, 54, 60
1, 220588, Note_on_c, 0, 68, 75
1, 220589, Note_on_c, 0, 56, 67
1, 220629, Note_off_c, 0, 67, 59
1, 220656, Note_off_c, 0, 55, 56
1, 221064, Control_c, 0, 64, 47
1, 221079, Control_c, 0, 64, 62
1, 221094, Control_c, 0, 64, 65
1, 221109, Control_c, 0, 64, 67
1, 221124, Control_c, 0, 64, 69
1, 221139, Control_c, 0, 64, 73
1, 221153, Control_c, 0, 64, 79
1, 221168, Control_c, 0, 64, 82
1, 221183, Control_c, 0, 64, 83
1, 221198, Control_c, 0, 64, 84
1, 221213, Control_c, 0, 64, 86
1, 221214, Note_off_c, 0, 56, 59
1, 221234, Control_c, 0, 64, 88
1, 221249, Control_c, 0, 64, 90
1, 221264, Control_c, 0, 64, 92
1, 221279, Control_c, 0, 64, 94
1, 221294, Control_c, 0, 64, 95
1, 221309, Control_c, 0, 64, 95
1, 221324, Control_c, 0, 64, 96
1, 221339, Control_c, 0, 64, 96
1, 221347, Note_off_c, 0, 68, 38
1, 221354, Control_c, 0, 64, 97
1, 221369, Control_c, 0, 64, 98
1, 221383, Control_c, 0, 64, 99
1, 221398, Control_c, 0, 64, 99
1, 221413, Control_c, 0, 64, 100
1, 221443, Control_c, 0, 64, 100
1, 221473, Control_c, 0, 64, 101
1, 221502, Control_c, 0, 64, 101
1, 221562, Control_c, 0, 64, 102
1, 221651, Control_c, 0, 64, 102
1, 221769, Control_c, 0, 64, 102
1, 221813, Control_c, 0, 64, 101
1, 221821, Note_on_c, 0, 60, 68
1, 221827, Control_c, 0, 64, 100
1, 221833, Note_on_c, 0, 56, 58
1, 221833, Note_on_c, 0, 48, 60
1, 221836, Note_on_c, 0, 44, 51
1, 221842, Control_c, 0, 64, 99
1, 221857, Control_c, 0, 64, 96
1, 221872, Control_c, 0, 64, 92
1, 221887, Control_c, 0, 64, 87
1, 221902, Control_c, 0, 64, 80
1, 221917, Control_c, 0, 64, 69
1, 221932, Control_c, 0, 64, 51
1, 221947, Control_c, 0, 64, 0
1, 222674, Note_on_c, 0, 61, 61
1, 222691, Note_on_c, 0, 49, 44
1, 222844, Note_off_c, 0, 48, 39
1, 222880, Control_c, 0, 64, 46
1, 222895, Control_c, 0, 64, 59
1, 222910, Control_c, 0, 64, 63
1, 222924, Control_c, 0, 64, 64
1, 222935, Note_off_c, 0, 49, 49
1, 222939, Control_c, 0, 64, 67
1, 222955, Control_c, 0, 64, 70
1, 222970, Control_c, 0, 64, 75
1, 222975, Note_on_c, 0, 63, 66
1, 222983, Note_on_c, 0, 51, 51
1, 222985, Control_c, 0, 64, 79
1, 222992, Note_off_c, 0, 44, 29
1, 223000, Control_c, 0, 64, 81
1, 223015, Control_c, 0, 64, 83
1, 223024, Note_off_c, 0, 60, 49
1, 223029, Control_c, 0, 64, 84
1, 223032, Note_off_c, 0, 56, 56
1, 223035, Note_off_c, 0, 61, 53
1, 223044, Control_c, 0, 64, 86
1, 223059, Control_c, 0, 64, 89
1, 223073, Control_c, 0, 64, 91
1, 223088, Control_c, 0, 64, 92
1, 223095, Note_off_c, 0, 51, 50
1, 223103, Control_c, 0, 64, 93
1, 223117, Note_off_c, 0, 63, 51
1, 223118, Control_c, 0, 64, 94
1, 223133, Control_c, 0, 64, 95
1, 223148, Control_c, 0, 64, 96
1, 223163, Control_c, 0, 64, 97
1, 223178, Control_c, 0, 64, 98
1, 223193, Control_c, 0, 64, 99
1, 223208, Control_c, 0, 64, 99
1, 223237, Control_c, 0, 64, 100
1, 223267, Control_c, 0, 64, 100
1, 223496, Control_c, 0, 64, 99
1, 223511, Control_c, 0, 64, 95
1, 223521, Note_on_c, 0, 65, 62
1, 223526, Control_c, 0, 64, 87
1, 223532, Note_on_c, 0, 56, 51
1, 223541, Control_c, 0, 64, 73
1, 223544, Note_on_c, 0, 53, 43
1, 223555, Control_c, 0, 64, 53
1, 223557, Note_on_c, 0, 37, 37
1, 223559, Note_on_c, 0, 46, 35
1, 223562, Note_on_c, 0, 49, 33
1, 223570, Control_c, 0, 64, 0
1, 223577, Note_on_c, 0, 44, 38
1, 223614, Control_c, 0, 64, 58
1, 223629, Control_c, 0, 64, 66
1, 223644, Control_c, 0, 64, 71
1, 223659, Control_c, 0, 64, 76
1, 223673, Control_c, 0, 64, 80
1, 223676, Note_off_c, 0, 65, 51
1, 223688, Control_c, 0, 64, 83
1, 223703, Control_c, 0, 64, 84
1, 223719, Control_c, 0, 64, 85
1, 223723, Note_off_c, 0, 56, 36
1, 223734, Control_c, 0, 64, 87
1, 223750, Control_c, 0, 64, 88
1, 223765, Control_c, 0, 64, 89
1, 223779, Control_c, 0, 64, 90
1, 223809, Control_c, 0, 64, 90
1, 223857, Note_on_c, 0, 58, 49
1, 223883, Note_off_c, 0, 58, 60
1, 223942, Control_c, 0, 64, 89
1, 223957, Control_c, 0, 64, 87
1, 223969, Note_on_c, 0, 58, 54
1, 223971, Control_c, 0, 64, 83
1, 223986, Control_c, 0, 64, 78
1, 223995, Note_off_c, 0, 53, 0
1, 224001, Control_c, 0, 64, 71
1, 224016, Control_c, 0, 64, 57
1, 224031, Control_c, 0, 64, 0
1, 224033, Poly_aftertouch_c, 0, 53, 127
1, 224109, Poly_aftertouch_c, 0, 53, 0
1, 224147, Poly_aftertouch_c, 0, 53, 127
1, 224445, Poly_aftertouch_c, 0, 53, 0
1, 224452, Note_off_c, 0, 44, 39
1, 224453, Note_off_c, 0, 46, 40
1, 224454, Note_off_c, 0, 58, 54
1, 224459, Note_off_c, 0, 49, 39
1, 224475, Note_off_c, 0, 37, 41
1, 225033, Note_on_c, 0, 65, 50
1, 225039, Control_c, 0, 64, 47
1, 225046, Note_on_c, 0, 46, 27
1, 225050, Note_on_c, 0, 56, 40
1, 225052, Note_on_c, 0, 49, 33
1, 225053, Control_c, 0, 64, 59
1, 225062, Note_on_c, 0, 37, 31
1, 225062, Note_on_c, 0, 53, 33
1, 225062, Note_on_c, 0, 44, 30
1, 225068, Control_c, 0, 64, 64
1, 225083, Control_c, 0, 64, 66
1, 225098, Control_c, 0, 64, 69
1, 225113, Control_c, 0, 64, 73
1, 225127, Control_c, 0, 64, 77
1, 225142, Control_c, 0, 64, 80
1, 225157, Control_c, 0, 64, 82
1, 225172, Control_c, 0, 64, 83
1, 225187, Control_c, 0, 64, 85
1, 225191, Note_off_c, 0, 65, 38
1, 225202, Control_c, 0, 64, 86
1, 225213, Note_off_c, 0, 56, 45
1, 225216, Control_c, 0, 64, 87
1, 225231, Control_c, 0, 64, 88
1, 225246, Control_c, 0, 64, 88
1, 225260, Control_c, 0, 64, 89
1, 225290, Control_c, 0, 64, 89
1, 225381, Note_on_c, 0, 58, 50
1, 225425, Note_off_c, 0, 58, 59
1, 225439, Control_c, 0, 64, 89
1, 225454, Control_c, 0, 64, 88
1, 225468, Control_c, 0, 64, 87
1, 225483, Control_c, 0, 64, 85
1, 225494, Note_on_c, 0, 58, 46
1, 225498, Control_c, 0, 64, 81
1, 225513, Control_c, 0, 64, 76
1, 225528, Control_c, 0, 64, 68
1, 225542, Control_c, 0, 64, 48
1, 225557, Control_c, 0, 64, 0
1, 225818, Note_off_c, 0, 53, 28
1, 225930, Note_off_c, 0, 44, 40
1, 225941, Note_off_c, 0, 37, 38
1, 225944, Note_off_c, 0, 46, 40
1, 225947, Note_off_c, 0, 49, 39
1, 225966, Note_off_c, 0, 58, 43
1, 226425, Control_c, 0, 64, 23
1, 226439, Control_c, 0, 64, 36
1, 226454, Control_c, 0, 64, 44
1, 226477, Control_c, 0, 64, 49
1, 226492, Control_c, 0, 64, 54
1, 226506, Control_c, 0, 64, 57
1, 226521, Control_c, 0, 64, 60
1, 226536, Control_c, 0, 64, 63
1, 226551, Control_c, 0, 64, 65
1, 226566, Control_c, 0, 64, 67
1, 226568, Note_on_c, 0, 58, 34
1, 226580, Control_c, 0, 64, 70
1, 226582, Note_on_c, 0, 37, 25
1, 226584, Note_on_c, 0, 56, 24
1, 226588, Note_on_c, 0, 49, 20
1, 226595, Control_c, 0, 64, 73
1, 226596, Note_on_c, 0, 53, 10
1, 226610, Control_c, 0, 64, 77
1, 226624, Control_c, 0, 64, 79
1, 226639, Control_c, 0, 64, 81
1, 226654, Control_c, 0, 64, 83
1, 226669, Control_c, 0, 64, 84
1, 226684, Control_c, 0, 64, 86
1, 226698, Control_c, 0, 64, 88
1, 226713, Control_c, 0, 64, 90
1, 226728, Control_c, 0, 64, 92
1, 226743, Control_c, 0, 64, 93
1, 226752, Note_off_c, 0, 56, 36
1, 226758, Control_c, 0, 64, 95
1, 226766, Note_off_c, 0, 53, 37
1, 226773, Control_c, 0, 64, 96
1, 226785, Note_off_c, 0, 58, 35
1, 226788, Control_c, 0, 64, 97
1, 226796, Note_off_c, 0, 49, 37
1, 226796, Note_off_c, 0, 37, 40
1, 226803, Control_c, 0, 64, 98
1, 226817, Control_c, 0, 64, 99
1, 226832, Control_c, 0, 64, 100
1, 226847, Control_c, 0, 64, 100
1, 226862, Control_c, 0, 64, 101
1, 226877, Control_c, 0, 64, 101
1, 226921, Control_c, 0, 64, 102
1, 226952, Control_c, 0, 64, 102
1, 226981, Note_on_c, 0, 58, 52
1, 226996, Note_on_c, 0, 56, 41
1, 227002, Note_on_c, 0, 49, 35
1, 227008, Note_on_c, 0, 37, 33
1, 227011, Note_on_c, 0, 53, 26
1, 227136, Note_off_c, 0, 53, 29
1, 227137, Note_off_c, 0, 56, 30
1, 227178, Note_off_c, 0, 58, 36
1, 227185, Note_off_c, 0, 49, 37
1, 227190, Note_off_c, 0, 37, 40
1, 227241, Control_c, 0, 64, 103
1, 227344, Note_on_c, 0, 58, 59
1, 227365, Note_on_c, 0, 37, 38
1, 227365, Note_on_c, 0, 56, 49
1, 227369, Note_on_c, 0, 53, 41
1, 227378, Note_on_c, 0, 49, 40
1, 227420, Note_off_c, 0, 56, 53
1, 227450, Note_off_c, 0, 53, 35
1, 227493, Note_off_c, 0, 49, 45
1, 227518, Note_off_c, 0, 37, 41
1, 227529, Note_off_c, 0, 58, 39
1, 227814, Note_on_c, 0, 59, 57
1, 227834, Control_c, 0, 64, 102
1, 227840, Note_on_c, 0, 56, 42
1, 227847, Note_on_c, 0, 50, 31
1, 227849, Control_c, 0, 64, 100
1, 227855, Note_on_c, 0, 53, 28
1, 227861, Note_on_c, 0, 38, 36
1, 227864, Control_c, 0, 64, 97
1, 227879, Control_c, 0, 64, 93
1, 227894, Control_c, 0, 64, 88
1, 227908, Control_c, 0, 64, 81
1, 227923, Control_c, 0, 64, 72
1, 227938, Control_c, 0, 64, 50
1, 227953, Control_c, 0, 64, 0
1, 228211, Control_c, 0, 64, 55
1, 228225, Control_c, 0, 64, 63
1, 228240, Control_c, 0, 64, 66
1, 228255, Control_c, 0, 64, 69
1, 228269, Control_c, 0, 64, 74
1, 228284, Control_c, 0, 64, 79
1, 228299, Control_c, 0, 64, 82
1, 228314, Control_c, 0, 64, 85
1, 228329, Control_c, 0, 64, 87
1, 228344, Control_c, 0, 64, 89
1, 228359, Control_c, 0, 64, 92
1, 228373, Control_c, 0, 64, 94
1, 228388, Control_c, 0, 64, 97
1, 228403, Control_c, 0, 64, 99
1, 228418, Control_c, 0, 64, 101
1, 228433, Control_c, 0, 64, 103
1, 228448, Control_c, 0, 64, 105
1, 228462, Control_c, 0, 64, 107
1, 228477, Control_c, 0, 64, 109
1, 228492, Control_c, 0, 64, 112
1, 228507, Control_c, 0, 64, 115
1, 228522, Control_c, 0, 64, 117
1, 228537, Control_c, 0, 64, 120
1, 228552, Control_c, 0, 64, 123
1, 228567, Control_c, 0, 64, 127
1, 228674, Note_off_c, 0, 53, 42
1, 228680, Note_off_c, 0, 56, 42
1, 228689, Note_off_c, 0, 38, 39
1, 228694, Note_off_c, 0, 59, 57
1, 228758, Note_off_c, 0, 50, 38
1, 229230, Note_on_c, 0, 71, 49
1, 229242, Note_on_c, 0, 68, 45
1, 229256, Control_c, 0, 64, 116
1, 229260, Note_on_c, 0, 62, 38
1, 229271, Note_on_c, 0, 65, 37
1, 229271, Control_c, 0, 64, 103
1, 229286, Control_c, 0, 64, 92
1, 229300, Control_c, 0, 64, 80
1, 229315, Control_c, 0, 64, 67
1, 229330, Control_c, 0, 64, 0
1, 229375, Control_c, 0, 64, 55
1, 229390, Control_c, 0, 64, 66
1, 229405, Control_c, 0, 64, 71
1, 229420, Control_c, 0, 64, 79
1, 229434, Control_c, 0, 64, 86
1, 229449, Control_c, 0, 64, 91
1, 229471, Control_c, 0, 64, 96
1, 229486, Control_c, 0, 64, 101
1, 229489, Note_off_c, 0, 68, 37
1, 229501, Control_c, 0, 64, 106
1, 229515, Control_c, 0, 64, 111
1, 229530, Control_c, 0, 64, 116
1, 229545, Control_c, 0, 64, 123
1, 229549, Note_off_c, 0, 62, 41
1, 229549, Note_off_c, 0, 71, 35
1, 229552, Note_off_c, 0, 65, 34
1, 229560, Control_c, 0, 64, 127
1, 229678, Note_on_c, 0, 71, 65
1, 229679, Control_c, 0, 64, 120
1, 229685, Note_on_c, 0, 68, 65
1, 229688, Note_on_c, 0, 65, 58
1, 229691, Note_on_c, 0, 62, 47
1, 229694, Control_c, 0, 64, 105
1, 229709, Control_c, 0, 64, 92
1, 229723, Control_c, 0, 64, 79
1, 229738, Control_c, 0, 64, 68
1, 229753, Control_c, 0, 64, 58
1, 229768, Control_c, 0, 64, 64
1, 229783, Control_c, 0, 64, 71
1, 229797, Control_c, 0, 64, 81
1, 229812, Control_c, 0, 64, 91
1, 229827, Control_c, 0, 64, 97
1, 229841, Control_c, 0, 64, 101
1, 229856, Control_c, 0, 64, 109
1, 229871, Control_c, 0, 64, 119
1, 229886, Control_c, 0, 64, 127
1, 229891, Note_off_c, 0, 68, 39
1, 229910, Note_off_c, 0, 65, 41
1, 229921, Note_off_c, 0, 71, 50
1, 229935, Note_off_c, 0, 62, 48
1, 230093, Note_on_c, 0, 71, 63
1, 230096, Note_on_c, 0, 68, 64
1, 230101, Note_on_c, 0, 62, 46
1, 230102, Note_on_c, 0, 65, 59
1, 230108, Control_c, 0, 64, 107
1, 230123, Control_c, 0, 64, 92
1, 230138, Control_c, 0, 64, 74
1, 230153, Control_c, 0, 64, 50
1, 230168, Control_c, 0, 64, 0
1, 230198, Control_c, 0, 64, 44
1, 230220, Control_c, 0, 64, 67
1, 230235, Control_c, 0, 64, 76
1, 230250, Control_c, 0, 64, 83
1, 230264, Control_c, 0, 64, 86
1, 230279, Control_c, 0, 64, 88
1, 230287, Note_off_c, 0, 65, 56
1, 230294, Control_c, 0, 64, 91
1, 230309, Control_c, 0, 64, 96
1, 230319, Note_off_c, 0, 68, 46
1, 230324, Control_c, 0, 64, 101
1, 230338, Control_c, 0, 64, 106
1, 230353, Control_c, 0, 64, 108
1, 230368, Control_c, 0, 64, 111
1, 230381, Note_off_c, 0, 62, 37
1, 230383, Control_c, 0, 64, 114
1, 230398, Note_off_c, 0, 71, 34
1, 230398, Control_c, 0, 64, 118
1, 230412, Control_c, 0, 64, 121
1, 230427, Control_c, 0, 64, 123
1, 230442, Control_c, 0, 64, 126
1, 230458, Control_c, 0, 64, 127
1, 230665, Control_c, 0, 64, 127
1, 230680, Control_c, 0, 64, 121
1, 230693, Note_on_c, 0, 72, 50
1, 230695, Control_c, 0, 64, 117
1, 230703, Note_on_c, 0, 66, 44
1, 230705, Note_on_c, 0, 68, 46
1, 230710, Control_c, 0, 64, 111
1, 230725, Control_c, 0, 64, 103
1, 230729, Note_on_c, 0, 63, 37
1, 230739, Control_c, 0, 64, 94
1, 230754, Control_c, 0, 64, 84
1, 230769, Control_c, 0, 64, 71
1, 230784, Control_c, 0, 64, 37
1, 230798, Control_c, 0, 64, 0
1, 230872, Control_c, 0, 64, 25
1, 230887, Control_c, 0, 64, 63
1, 230902, Control_c, 0, 64, 69
1, 230917, Control_c, 0, 64, 76
1, 230932, Control_c, 0, 64, 82
1, 230948, Control_c, 0, 64, 87
1, 230970, Control_c, 0, 64, 90
1, 230985, Control_c, 0, 64, 92
1, 231000, Control_c, 0, 64, 95
1, 231015, Control_c, 0, 64, 99
1, 231020, Note_off_c, 0, 72, 63
1, 231029, Control_c, 0, 64, 102
1, 231035, Note_off_c, 0, 68, 63
1, 231035, Note_off_c, 0, 63, 49
1, 231044, Control_c, 0, 64, 104
1, 231046, Note_off_c, 0, 66, 64
1, 231059, Control_c, 0, 64, 106
1, 231074, Control_c, 0, 64, 107
1, 231088, Control_c, 0, 64, 108
1, 231103, Control_c, 0, 64, 108
1, 231206, Control_c, 0, 64, 108
1, 231220, Control_c, 0, 64, 107
1, 231235, Control_c, 0, 64, 107
1, 231250, Control_c, 0, 64, 106
1, 231265, Control_c, 0, 64, 104
1, 231280, Control_c, 0, 64, 102
1, 231295, Control_c, 0, 64, 100
1, 231310, Control_c, 0, 64, 99
1, 231325, Control_c, 0, 64, 97
1, 231339, Control_c, 0, 64, 95
1, 231354, Control_c, 0, 64, 92
1, 231369, Control_c, 0, 64, 87
1, 231384, Control_c, 0, 64, 80
1, 231399, Control_c, 0, 64, 71
1, 231413, Control_c, 0, 64, 52
1, 231428, Control_c, 0, 64, 0
1, 231456, Note_on_c, 0, 60, 46
1, 231457, Note_on_c, 0, 56, 37
1, 231469, Note_on_c, 0, 39, 31
1, 231478, Note_on_c, 0, 54, 22
1, 231482, Note_on_c, 0, 51, 32
1, 231517, Control_c, 0, 64, 36
1, 231532, Control_c, 0, 64, 64
1, 231547, Control_c, 0, 64, 70
1, 231561, Note_off_c, 0, 54, 35
1, 231561, Control_c, 0, 64, 77
1, 231576, Control_c, 0, 64, 83
1, 231581, Note_off_c, 0, 56, 34
1, 231591, Control_c, 0, 64, 87
1, 231606, Control_c, 0, 64, 90
1, 231620, Control_c, 0, 64, 92
1, 231629, Note_off_c, 0, 39, 38
1, 231635, Control_c, 0, 64, 95
1, 231650, Control_c, 0, 64, 98
1, 231658, Note_off_c, 0, 51, 42
1, 231665, Control_c, 0, 64, 102
1, 231680, Control_c, 0, 64, 104
1, 231694, Control_c, 0, 64, 105
1, 231717, Control_c, 0, 64, 105
1, 231807, Control_c, 0, 64, 104
1, 231813, Note_on_c, 0, 61, 56
1, 231822, Control_c, 0, 64, 100
1, 231825, Note_on_c, 0, 56, 48
1, 231834, Note_on_c, 0, 40, 37
1, 231837, Control_c, 0, 64, 93
1, 231842, Note_off_c, 0, 60, 25
1, 231845, Note_on_c, 0, 52, 36
1, 231851, Control_c, 0, 64, 83
1, 231866, Control_c, 0, 64, 66
1, 231881, Control_c, 0, 64, 0
1, 231955, Control_c, 0, 64, 56
1, 231970, Control_c, 0, 64, 66
1, 231984, Control_c, 0, 64, 72
1, 231999, Control_c, 0, 64, 79
1, 232014, Control_c, 0, 64, 85
1, 232025, Note_off_c, 0, 56, 57
1, 232029, Control_c, 0, 64, 89
1, 232043, Control_c, 0, 64, 91
1, 232058, Control_c, 0, 64, 94
1, 232062, Note_off_c, 0, 61, 59
1, 232073, Control_c, 0, 64, 96
1, 232088, Control_c, 0, 64, 98
1, 232103, Control_c, 0, 64, 99
1, 232109, Note_off_c, 0, 40, 41
1, 232114, Note_off_c, 0, 52, 42
1, 232147, Control_c, 0, 64, 98
1, 232177, Control_c, 0, 64, 98
1, 232192, Control_c, 0, 64, 96
1, 232207, Control_c, 0, 64, 92
1, 232222, Control_c, 0, 64, 86
1, 232236, Control_c, 0, 64, 78
1, 232251, Control_c, 0, 64, 66
1, 232266, Control_c, 0, 64, 0
1, 232470, Note_on_c, 0, 73, 59
1, 232481, Control_c, 0, 64, 36
1, 232482, Note_on_c, 0, 68, 53
1, 232490, Note_on_c, 0, 64, 47
1, 232496, Control_c, 0, 64, 62
1, 232510, Control_c, 0, 64, 67
1, 232525, Control_c, 0, 64, 72
1, 232541, Control_c, 0, 64, 78
1, 232556, Control_c, 0, 64, 84
1, 232565, Note_off_c, 0, 68, 52
1, 232571, Control_c, 0, 64, 87
1, 232571, Note_off_c, 0, 73, 57
1, 232582, Note_off_c, 0, 64, 57
1, 232585, Control_c, 0, 64, 90
1, 232600, Control_c, 0, 64, 92
1, 232615, Control_c, 0, 64, 95
1, 232630, Control_c, 0, 64, 99
1, 232645, Control_c, 0, 64, 102
1, 232660, Control_c, 0, 64, 105
1, 232674, Control_c, 0, 64, 107
1, 232689, Control_c, 0, 64, 109
1, 232704, Control_c, 0, 64, 110
1, 232719, Control_c, 0, 64, 111
1, 232734, Control_c, 0, 64, 112
1, 232808, Control_c, 0, 64, 112
1, 232810, Note_on_c, 0, 74, 59
1, 232815, Note_on_c, 0, 68, 57
1, 232815, Note_on_c, 0, 71, 60
1, 232817, Note_on_c, 0, 65, 55
1, 232822, Control_c, 0, 64, 107
1, 232837, Control_c, 0, 64, 98
1, 232852, Control_c, 0, 64, 85
1, 232866, Control_c, 0, 64, 70
1, 232881, Control_c, 0, 64, 0
1, 232940, Control_c, 0, 64, 62
1, 232955, Control_c, 0, 64, 68
1, 232970, Control_c, 0, 64, 74
1, 232985, Control_c, 0, 64, 80
1, 232999, Note_off_c, 0, 74, 63
1, 233000, Control_c, 0, 64, 86
1, 233007, Note_off_c, 0, 71, 59
1, 233012, Note_off_c, 0, 65, 63
1, 233015, Control_c, 0, 64, 91
1, 233030, Note_off_c, 0, 68, 60
1, 233030, Control_c, 0, 64, 94
1, 233045, Control_c, 0, 64, 98
1, 233059, Control_c, 0, 64, 101
1, 233074, Control_c, 0, 64, 105
1, 233089, Control_c, 0, 64, 107
1, 233104, Control_c, 0, 64, 108
1, 233177, Control_c, 0, 64, 107
1, 233192, Control_c, 0, 64, 100
1, 233214, Control_c, 0, 64, 90
1, 233229, Control_c, 0, 64, 79
1, 233244, Control_c, 0, 64, 67
1, 233259, Control_c, 0, 64, 0
1, 233465, Note_on_c, 0, 62, 69
1, 233467, Note_on_c, 0, 59, 68
1, 233471, Note_on_c, 0, 56, 59
1, 233474, Note_on_c, 0, 41, 57
1, 233480, Note_on_c, 0, 53, 54
1, 233483, Control_c, 0, 64, 59
1, 233498, Control_c, 0, 64, 68
1, 233513, Control_c, 0, 64, 74
1, 233517, Note_off_c, 0, 56, 53
1, 233527, Control_c, 0, 64, 82
1, 233542, Control_c, 0, 64, 87
1, 233557, Note_off_c, 0, 59, 54
1, 233557, Control_c, 0, 64, 91
1, 233572, Control_c, 0, 64, 95
1, 233577, Note_off_c, 0, 41, 62
1, 233586, Note_off_c, 0, 53, 59
1, 233587, Control_c, 0, 64, 99
1, 233602, Control_c, 0, 64, 103
1, 233616, Control_c, 0, 64, 107
1, 233631, Control_c, 0, 64, 111
1, 233646, Control_c, 0, 64, 115
1, 233661, Control_c, 0, 64, 117
1, 233676, Control_c, 0, 64, 119
1, 233690, Control_c, 0, 64, 120
1, 233764, Control_c, 0, 64, 119
1, 233779, Control_c, 0, 64, 114
1, 233788, Note_on_c, 0, 63, 76
1, 233790, Note_on_c, 0, 58, 74
1, 233793, Note_on_c, 0, 42, 65
1, 233794, Control_c, 0, 64, 107
1, 233795, Note_on_c, 0, 54, 66
1, 233808, Control_c, 0, 64, 97
1, 233823, Control_c, 0, 64, 84
1, 233826, Note_off_c, 0, 62, 59
1, 233838, Control_c, 0, 64, 68
1, 233853, Control_c, 0, 64, 0
1, 233927, Control_c, 0, 64, 46
1, 233942, Control_c, 0, 64, 65
1, 233964, Control_c, 0, 64, 71
1, 233979, Control_c, 0, 64, 79
1, 233994, Control_c, 0, 64, 85
1, 234009, Control_c, 0, 64, 89
1, 234013, Note_off_c, 0, 58, 64
1, 234023, Control_c, 0, 64, 93
1, 234038, Control_c, 0, 64, 96
1, 234040, Note_off_c, 0, 42, 63
1, 234040, Note_off_c, 0, 63, 64
1, 234046, Note_off_c, 0, 54, 60
1, 234053, Control_c, 0, 64, 99
1, 234068, Control_c, 0, 64, 99
1, 234127, Control_c, 0, 64, 99
1, 234143, Control_c, 0, 64, 97
1, 234158, Control_c, 0, 64, 92
1, 234173, Control_c, 0, 64, 85
1, 234187, Control_c, 0, 64, 75
1, 234202, Control_c, 0, 64, 62
1, 234217, Control_c, 0, 64, 0
1, 234422, Note_on_c, 0, 75, 79
1, 234426, Note_on_c, 0, 66, 75
1, 234426, Note_on_c, 0, 70, 74
1, 234439, Control_c, 0, 64, 60
1, 234454, Control_c, 0, 64, 69
1, 234469, Control_c, 0, 64, 77
1, 234484, Control_c, 0, 64, 85
1, 234487, Note_off_c, 0, 70, 61
1, 234499, Control_c, 0, 64, 90
1, 234513, Control_c, 0, 64, 93
1, 234527, Note_off_c, 0, 66, 65
1, 234528, Control_c, 0, 64, 97
1, 234543, Control_c, 0, 64, 101
1, 234549, Note_off_c, 0, 75, 57
1, 234558, Control_c, 0, 64, 106
1, 234573, Control_c, 0, 64, 110
1, 234587, Control_c, 0, 64, 115
1, 234602, Control_c, 0, 64, 120
1, 234617, Control_c, 0, 64, 127
1, 234787, Control_c, 0, 64, 126
1, 234795, Note_on_c, 0, 76, 76
1, 234797, Note_on_c, 0, 67, 74
1, 234797, Note_on_c, 0, 73, 77
1, 234799, Note_on_c, 0, 70, 76
1, 234802, Control_c, 0, 64, 111
1, 234817, Control_c, 0, 64, 97
1, 234832, Control_c, 0, 64, 80
1, 234846, Control_c, 0, 64, 62
1, 234861, Control_c, 0, 64, 0
1, 234920, Control_c, 0, 64, 53
1, 234936, Control_c, 0, 64, 66
1, 234951, Control_c, 0, 64, 71
1, 234966, Control_c, 0, 64, 77
1, 234981, Control_c, 0, 64, 82
1, 234996, Control_c, 0, 64, 88
1, 235010, Control_c, 0, 64, 92
1, 235025, Control_c, 0, 64, 97
1, 235040, Control_c, 0, 64, 100
1, 235054, Note_off_c, 0, 67, 60
1, 235054, Control_c, 0, 64, 101
1, 235069, Control_c, 0, 64, 102
1, 235078, Note_off_c, 0, 76, 62
1, 235086, Note_off_c, 0, 70, 57
1, 235095, Note_off_c, 0, 73, 62
1, 235158, Control_c, 0, 64, 101
1, 235173, Control_c, 0, 64, 99
1, 235188, Control_c, 0, 64, 94
1, 235203, Control_c, 0, 64, 86
1, 235218, Control_c, 0, 64, 74
1, 235233, Control_c, 0, 64, 60
1, 235247, Control_c, 0, 64, 0
1, 235566, Control_c, 0, 64, 49
1, 235569, Note_on_c, 0, 61, 46
1, 235575, Note_on_c, 0, 64, 51
1, 235581, Control_c, 0, 64, 60
1, 235582, Note_on_c, 0, 58, 41
1, 235586, Note_on_c, 0, 43, 42
1, 235595, Control_c, 0, 64, 64
1, 235610, Control_c, 0, 64, 68
1, 235611, Note_on_c, 0, 55, 20
1, 235625, Control_c, 0, 64, 73
1, 235640, Control_c, 0, 64, 79
1, 235655, Control_c, 0, 64, 84
1, 235660, Note_off_c, 0, 61, 53
1, 235669, Control_c, 0, 64, 87
1, 235684, Control_c, 0, 64, 90
1, 235698, Control_c, 0, 64, 94
1, 235713, Control_c, 0, 64, 98
1, 235714, Note_off_c, 0, 58, 24
1, 235729, Control_c, 0, 64, 101
1, 235744, Control_c, 0, 64, 105
1, 235757, Note_off_c, 0, 43, 41
1, 235758, Control_c, 0, 64, 108
1, 235760, Note_off_c, 0, 55, 41
1, 235773, Control_c, 0, 64, 110
1, 235788, Control_c, 0, 64, 113
1, 235802, Control_c, 0, 64, 115
1, 235817, Control_c, 0, 64, 117
1, 235832, Control_c, 0, 64, 119
1, 235847, Control_c, 0, 64, 122
1, 235862, Control_c, 0, 64, 127
1, 235876, Control_c, 0, 64, 127
1, 235907, Note_off_c, 0, 64, 23
1, 235981, Control_c, 0, 64, 114
1, 235996, Control_c, 0, 64, 103
1, 235996, Note_on_c, 0, 65, 64
1, 236002, Note_on_c, 0, 60, 57
1, 236006, Note_on_c, 0, 44, 47
1, 236010, Control_c, 0, 64, 90
1, 236011, Note_on_c, 0, 56, 42
1, 236025, Control_c, 0, 64, 75
1, 236040, Control_c, 0, 64, 47
1, 236055, Control_c, 0, 64, 0
1, 236084, Control_c, 0, 64, 51
1, 236099, Control_c, 0, 64, 68
1, 236114, Control_c, 0, 64, 78
1, 236129, Control_c, 0, 64, 88
1, 236144, Control_c, 0, 64, 95
1, 236158, Control_c, 0, 64, 98
1, 236173, Control_c, 0, 64, 105
1, 236188, Control_c, 0, 64, 115
1, 236210, Control_c, 0, 64, 127
1, 236219, Note_off_c, 0, 60, 37
1, 236219, Note_off_c, 0, 65, 56
1, 236245, Note_off_c, 0, 44, 45
1, 236260, Note_off_c, 0, 56, 42
1, 236407, Note_on_c, 0, 65, 80
1, 236413, Note_on_c, 0, 60, 76
1, 236421, Note_on_c, 0, 56, 56
1, 236422, Note_on_c, 0, 44, 53
1, 236574, Note_off_c, 0, 60, 50
1, 236592, Note_off_c, 0, 56, 53
1, 236622, Note_off_c, 0, 65, 52
1, 236623, Note_off_c, 0, 44, 37
1, 236829, Note_on_c, 0, 65, 82
1, 236832, Note_on_c, 0, 60, 79
1, 236836, Note_on_c, 0, 44, 64
1, 236836, Note_on_c, 0, 56, 69
1, 237014, Note_off_c, 0, 44, 56
1, 237019, Note_off_c, 0, 60, 58
1, 237065, Note_off_c, 0, 65, 61
1, 237080, Note_off_c, 0, 56, 57
1, 237452, Note_on_c, 0, 66, 82
1, 237459, Note_on_c, 0, 57, 65
1, 237459, Note_on_c, 0, 63, 73
1, 237462, Note_on_c, 0, 60, 71
1, 237465, Note_on_c, 0, 45, 64
1, 237538, Control_c, 0, 64, 110
1, 237553, Control_c, 0, 64, 98
1, 237568, Control_c, 0, 64, 86
1, 237583, Control_c, 0, 64, 73
1, 237598, Control_c, 0, 64, 21
1, 237612, Control_c, 0, 64, 0
1, 238035, Control_c, 0, 64, 53
1, 238049, Control_c, 0, 64, 63
1, 238064, Control_c, 0, 64, 66
1, 238079, Control_c, 0, 64, 71
1, 238094, Control_c, 0, 64, 77
1, 238109, Control_c, 0, 64, 83
1, 238124, Control_c, 0, 64, 88
1, 238139, Control_c, 0, 64, 91
1, 238154, Control_c, 0, 64, 94
1, 238169, Control_c, 0, 64, 98
1, 238184, Control_c, 0, 64, 103
1, 238199, Control_c, 0, 64, 108
1, 238213, Control_c, 0, 64, 113
1, 238228, Control_c, 0, 64, 120
1, 238243, Control_c, 0, 64, 127
1, 238300, Note_off_c, 0, 60, 50
1, 238371, Note_off_c, 0, 63, 58
1, 238419, Note_off_c, 0, 66, 57
1, 238476, Note_off_c, 0, 45, 58
1, 238526, Note_off_c, 0, 57, 59
1, 239105, Note_on_c, 0, 78, 81
1, 239114, Note_on_c, 0, 75, 74
1, 239117, Note_on_c, 0, 72, 60
1, 239123, Note_on_c, 0, 69, 60
1, 239140, Control_c, 0, 64, 117
1, 239155, Control_c, 0, 64, 98
1, 239170, Control_c, 0, 64, 81
1, 239184, Control_c, 0, 64, 62
1, 239206, Control_c, 0, 64, 0
1, 239251, Control_c, 0, 64, 63
1, 239266, Control_c, 0, 64, 71
1, 239281, Control_c, 0, 64, 79
1, 239295, Control_c, 0, 64, 87
1, 239310, Control_c, 0, 64, 92
1, 239325, Control_c, 0, 64, 97
1, 239340, Control_c, 0, 64, 103
1, 239351, Note_off_c, 0, 75, 56
1, 239355, Control_c, 0, 64, 109
1, 239370, Control_c, 0, 64, 116
1, 239384, Control_c, 0, 64, 123
1, 239385, Note_off_c, 0, 78, 57
1, 239399, Control_c, 0, 64, 127
1, 239427, Note_off_c, 0, 72, 57
1, 239430, Note_off_c, 0, 69, 58
1, 239612, Note_on_c, 0, 78, 87
1, 239618, Note_on_c, 0, 72, 76
1, 239619, Note_on_c, 0, 75, 83
1, 239621, Note_on_c, 0, 69, 69
1, 239635, Control_c, 0, 64, 104
1, 239650, Control_c, 0, 64, 89
1, 239665, Control_c, 0, 64, 74
1, 239680, Control_c, 0, 64, 52
1, 239694, Control_c, 0, 64, 0
1, 239725, Control_c, 0, 64, 65
1, 239740, Control_c, 0, 64, 74
1, 239755, Control_c, 0, 64, 83
1, 239769, Control_c, 0, 64, 89
1, 239784, Control_c, 0, 64, 93
1, 239799, Control_c, 0, 64, 99
1, 239814, Control_c, 0, 64, 107
1, 239819, Note_off_c, 0, 75, 61
1, 239829, Control_c, 0, 64, 118
1, 239843, Control_c, 0, 64, 127
1, 239849, Note_off_c, 0, 78, 60
1, 239930, Note_off_c, 0, 69, 57
1, 239937, Note_off_c, 0, 72, 58
1, 240183, Note_on_c, 0, 78, 90
1, 240184, Note_on_c, 0, 72, 87
1, 240187, Note_on_c, 0, 75, 85
1, 240189, Note_on_c, 0, 69, 77
1, 240221, Control_c, 0, 64, 111
1, 240236, Control_c, 0, 64, 96
1, 240250, Control_c, 0, 64, 80
1, 240265, Control_c, 0, 64, 62
1, 240280, Control_c, 0, 64, 0
1, 240324, Control_c, 0, 64, 54
1, 240339, Control_c, 0, 64, 67
1, 240354, Control_c, 0, 64, 74
1, 240369, Control_c, 0, 64, 82
1, 240384, Control_c, 0, 64, 90
1, 240398, Control_c, 0, 64, 94
1, 240413, Control_c, 0, 64, 100
1, 240428, Control_c, 0, 64, 106
1, 240443, Control_c, 0, 64, 115
1, 240458, Control_c, 0, 64, 127
1, 240461, Note_off_c, 0, 75, 57
1, 240498, Note_off_c, 0, 69, 61
1, 240518, Note_off_c, 0, 78, 56
1, 240565, Note_off_c, 0, 72, 51
1, 241057, Note_on_c, 0, 79, 89
1, 241058, Note_on_c, 0, 70, 85
1, 241058, Note_on_c, 0, 75, 87
1, 241103, Control_c, 0, 64, 123
1, 241118, Control_c, 0, 64, 108
1, 241133, Control_c, 0, 64, 94
1, 241147, Control_c, 0, 64, 82
1, 241162, Control_c, 0, 64, 69
1, 241177, Control_c, 0, 64, 0
1, 241718, Control_c, 0, 64, 38
1, 241733, Control_c, 0, 64, 58
1, 241748, Control_c, 0, 64, 63
1, 241763, Control_c, 0, 64, 65
1, 241777, Control_c, 0, 64, 68
1, 241792, Control_c, 0, 64, 72
1, 241807, Control_c, 0, 64, 78
1, 241821, Control_c, 0, 64, 82
1, 241836, Control_c, 0, 64, 85
1, 241851, Control_c, 0, 64, 88
1, 241866, Control_c, 0, 64, 91
1, 241881, Control_c, 0, 64, 94
1, 241895, Control_c, 0, 64, 98
1, 241910, Control_c, 0, 64, 102
1, 241925, Control_c, 0, 64, 105
1, 241940, Control_c, 0, 64, 108
1, 241954, Control_c, 0, 64, 112
1, 241969, Control_c, 0, 64, 117
1, 241984, Control_c, 0, 64, 123
1, 241999, Control_c, 0, 64, 127
1, 242056, Note_off_c, 0, 79, 46
1, 242134, Note_off_c, 0, 75, 46
1, 242139, Note_off_c, 0, 70, 44
1, 243423, Control_c, 0, 64, 113
1, 243424, Note_on_c, 0, 67, 52
1, 243431, Note_on_c, 0, 34, 55
1, 243433, Note_on_c, 0, 62, 47
1, 243438, Control_c, 0, 64, 97
1, 243441, Note_on_c, 0, 46, 46
1, 243448, Note_on_c, 0, 56, 19
1, 243453, Control_c, 0, 64, 84
1, 243460, Note_off_c, 0, 34, 59
1, 243467, Control_c, 0, 64, 71
1, 243472, Note_off_c, 0, 46, 48
1, 243482, Control_c, 0, 64, 48
1, 243490, Note_off_c, 0, 56, 46
1, 243491, Note_off_c, 0, 62, 52
1, 243497, Control_c, 0, 64, 0
1, 243577, Note_on_c, 0, 65, 49
1, 243577, Note_off_c, 0, 67, 28
1, 243610, Note_off_c, 0, 65, 62
1, 243718, Note_on_c, 0, 65, 61
1, 243724, Note_on_c, 0, 34, 57
1, 243737, Note_on_c, 0, 46, 41
1, 243746, Note_on_c, 0, 62, 37
1, 243751, Note_off_c, 0, 34, 61
1, 243765, Note_off_c, 0, 65, 62
1, 243771, Note_off_c, 0, 46, 46
1, 243774, Note_off_c, 0, 62, 53
1, 243779, Note_on_c, 0, 67, 60
1, 243859, Note_off_c, 0, 67, 51
1, 243866, Note_on_c, 0, 65, 52
1, 243905, Note_on_c, 0, 64, 64
1, 243909, Note_off_c, 0, 65, 62
1, 243973, Note_on_c, 0, 62, 38
1, 243989, Note_on_c, 0, 34, 65
1, 243991, Note_on_c, 0, 46, 60
1, 244002, Note_off_c, 0, 64, 59
1, 244007, Note_on_c, 0, 65, 60
1, 244013, Note_off_c, 0, 62, 48
1, 244017, Note_off_c, 0, 34, 65
1, 244020, Note_off_c, 0, 46, 64
1, 244092, Note_off_c, 0, 65, 55
1, 244122, Note_on_c, 0, 67, 67
1, 244172, Note_off_c, 0, 67, 59
1, 244276, Note_on_c, 0, 63, 55
1, 244280, Note_on_c, 0, 51, 60
1, 244284, Note_on_c, 0, 55, 45
1, 244287, Note_on_c, 0, 39, 52
1, 244309, Note_off_c, 0, 51, 63
1, 244313, Note_off_c, 0, 39, 55
1, 244313, Note_off_c, 0, 55, 57
1, 244334, Note_off_c, 0, 63, 60
1, 244344, Note_on_c, 0, 65, 55
1, 244420, Note_off_c, 0, 65, 59
1, 244420, Note_on_c, 0, 63, 53
1, 244492, Note_off_c, 0, 63, 65
1, 244509, Note_on_c, 0, 62, 56
1, 244563, Note_off_c, 0, 62, 59
1, 244569, Note_on_c, 0, 63, 55
1, 244611, Note_off_c, 0, 63, 65
1, 244642, Note_on_c, 0, 64, 57
1, 244679, Note_off_c, 0, 64, 65
1, 244702, Note_on_c, 0, 65, 62
1, 244737, Note_off_c, 0, 65, 64
1, 244752, Note_on_c, 0, 66, 60
1, 244794, Note_off_c, 0, 66, 66
1, 244828, Note_on_c, 0, 67, 65
1, 244856, Note_off_c, 0, 67, 65
1, 244884, Note_on_c, 0, 68, 66
1, 244926, Note_off_c, 0, 68, 65
1, 244962, Note_on_c, 0, 69, 59
1, 244984, Note_off_c, 0, 69, 63
1, 245013, Note_on_c, 0, 70, 65
1, 245061, Note_off_c, 0, 70, 64
1, 245084, Note_on_c, 0, 71, 66
1, 245122, Note_off_c, 0, 71, 57
1, 245146, Note_on_c, 0, 72, 63
1, 245204, Note_off_c, 0, 72, 65
1, 245209, Note_on_c, 0, 73, 65
1, 245251, Note_off_c, 0, 73, 64
1, 245288, Note_on_c, 0, 74, 55
1, 245307, Note_off_c, 0, 74, 65
1, 245337, Note_on_c, 0, 75, 64
1, 245365, Note_off_c, 0, 75, 68
1, 245397, Note_on_c, 0, 76, 65
1, 245429, Note_off_c, 0, 76, 65
1, 245451, Note_on_c, 0, 77, 64
1, 245496, Note_on_c, 0, 78, 69
1, 245497, Note_off_c, 0, 77, 61
1, 245542, Note_off_c, 0, 78, 64
1, 245568, Note_on_c, 0, 79, 66
1, 245588, Note_off_c, 0, 79, 66
1, 245624, Note_on_c, 0, 80, 64
1, 245640, Note_off_c, 0, 80, 67
1, 245677, Note_on_c, 0, 81, 71
1, 245722, Note_off_c, 0, 81, 59
1, 245730, Note_on_c, 0, 82, 70
1, 245784, Note_on_c, 0, 83, 62
1, 245827, Note_off_c, 0, 82, 62
1, 245943, Note_on_c, 0, 84, 79
1, 245957, Note_off_c, 0, 83, 59
1, 245961, Note_on_c, 0, 68, 40
1, 245969, Note_on_c, 0, 75, 36
1, 245983, Note_on_c, 0, 72, 39
1, 246249, Note_off_c, 0, 84, 62
1, 246256, Note_on_c, 0, 77, 61
1, 246284, Note_off_c, 0, 77, 67
1, 246339, Note_on_c, 0, 77, 58
1, 246655, Note_off_c, 0, 75, 64
1, 246664, Note_off_c, 0, 72, 64
1, 246674, Note_off_c, 0, 77, 61
1, 246711, Note_off_c, 0, 68, 64
1, 247049, Note_on_c, 0, 71, 37
1, 247124, Note_off_c, 0, 71, 55
1, 247132, Note_on_c, 0, 72, 42
1, 247140, Note_on_c, 0, 63, 30
1, 247142, Note_on_c, 0, 56, 37
1, 247147, Note_on_c, 0, 60, 37
1, 247183, Note_off_c, 0, 72, 0
1, 247183, Note_on_c, 0, 72, 7
1, 247478, Note_off_c, 0, 72, 54
1, 247481, Note_on_c, 0, 65, 47
1, 247506, Note_off_c, 0, 65, 61
1, 247588, Note_on_c, 0, 65, 47
1, 247959, Note_off_c, 0, 63, 51
1, 247964, Note_off_c, 0, 60, 39
1, 247969, Note_off_c, 0, 65, 58
1, 247976, Control_c, 0, 64, 10
1, 248003, Note_off_c, 0, 56, 55
1, 248006, Control_c, 0, 64, 0
1, 248065, Control_c, 0, 64, 10
1, 248080, Control_c, 0, 64, 0
1, 248398, Control_c, 0, 64, 10
1, 248413, Control_c, 0, 64, 0
1, 248458, Control_c, 0, 64, 10
1, 248472, Control_c, 0, 64, 20
1, 248502, Control_c, 0, 64, 13
1, 248533, Control_c, 0, 64, 24
1, 248548, Control_c, 0, 64, 35
1, 248562, Control_c, 0, 64, 44
1, 248577, Control_c, 0, 64, 51
1, 248592, Control_c, 0, 64, 57
1, 248607, Control_c, 0, 64, 63
1, 248609, Note_on_c, 0, 53, 34
1, 248621, Control_c, 0, 64, 65
1, 248631, Note_on_c, 0, 51, 24
1, 248633, Note_on_c, 0, 32, 27
1, 248636, Control_c, 0, 64, 69
1, 248638, Note_on_c, 0, 44, 19
1, 248651, Control_c, 0, 64, 72
1, 248653, Note_on_c, 0, 48, 8
1, 248666, Control_c, 0, 64, 77
1, 248681, Control_c, 0, 64, 80
1, 248695, Control_c, 0, 64, 83
1, 248710, Control_c, 0, 64, 85
1, 248725, Control_c, 0, 64, 87
1, 248740, Control_c, 0, 64, 90
1, 248755, Control_c, 0, 64, 93
1, 248769, Control_c, 0, 64, 95
1, 248784, Control_c, 0, 64, 97
1, 248794, Note_off_c, 0, 51, 38
1, 248799, Control_c, 0, 64, 99
1, 248813, Control_c, 0, 64, 101
1, 248823, Note_off_c, 0, 44, 38
1, 248828, Control_c, 0, 64, 103
1, 248830, Note_off_c, 0, 48, 38
1, 248832, Note_off_c, 0, 53, 40
1, 248843, Control_c, 0, 64, 106
1, 248845, Note_off_c, 0, 32, 39
1, 248858, Control_c, 0, 64, 108
1, 248873, Control_c, 0, 64, 109
1, 248888, Control_c, 0, 64, 111
1, 248903, Control_c, 0, 64, 112
1, 248918, Control_c, 0, 64, 112
1, 248939, Control_c, 0, 64, 114
1, 248954, Control_c, 0, 64, 115
1, 248969, Control_c, 0, 64, 115
1, 249013, Control_c, 0, 64, 116
1, 249028, Control_c, 0, 64, 116
1, 249058, Control_c, 0, 64, 117
1, 249067, Note_on_c, 0, 53, 54
1, 249084, Note_on_c, 0, 51, 43
1, 249092, Note_on_c, 0, 48, 38
1, 249093, Note_on_c, 0, 32, 36
1, 249103, Note_on_c, 0, 44, 31
1, 249103, Control_c, 0, 64, 117
1, 249183, Note_off_c, 0, 51, 48
1, 249222, Note_off_c, 0, 53, 52
1, 249246, Note_off_c, 0, 44, 34
1, 249257, Note_off_c, 0, 32, 41
1, 249268, Note_off_c, 0, 48, 31
1, 249295, Control_c, 0, 64, 118
1, 249498, Note_on_c, 0, 53, 58
1, 249511, Note_on_c, 0, 51, 48
1, 249517, Note_on_c, 0, 44, 42
1, 249517, Note_on_c, 0, 48, 40
1, 249523, Note_on_c, 0, 32, 38
1, 249586, Note_off_c, 0, 51, 43
1, 249615, Note_off_c, 0, 48, 29
1, 249661, Note_off_c, 0, 32, 39
1, 249664, Note_off_c, 0, 44, 34
1, 249666, Note_off_c, 0, 53, 51
1, 250044, Control_c, 0, 64, 117
1, 250105, Note_on_c, 0, 54, 54
1, 250116, Note_on_c, 0, 51, 51
1, 250119, Control_c, 0, 64, 116
1, 250125, Note_on_c, 0, 45, 36
1, 250134, Control_c, 0, 64, 113
1, 250135, Note_on_c, 0, 48, 43
1, 250144, Note_on_c, 0, 33, 34
1, 250149, Control_c, 0, 64, 111
1, 250164, Control_c, 0, 64, 108
1, 250179, Control_c, 0, 64, 105
1, 250194, Control_c, 0, 64, 100
1, 250209, Control_c, 0, 64, 94
1, 250223, Control_c, 0, 64, 84
1, 250238, Control_c, 0, 64, 73
1, 250253, Control_c, 0, 64, 57
1, 250268, Control_c, 0, 64, 0
1, 250660, Control_c, 0, 64, 17
1, 250675, Control_c, 0, 64, 39
1, 250690, Control_c, 0, 64, 47
1, 250705, Control_c, 0, 64, 56
1, 250719, Control_c, 0, 64, 61
1, 250734, Control_c, 0, 64, 64
1, 250749, Control_c, 0, 64, 67
1, 250764, Control_c, 0, 64, 70
1, 250779, Control_c, 0, 64, 74
1, 250793, Control_c, 0, 64, 78
1, 250808, Control_c, 0, 64, 82
1, 250823, Control_c, 0, 64, 83
1, 250838, Control_c, 0, 64, 85
1, 250853, Control_c, 0, 64, 87
1, 250867, Control_c, 0, 64, 90
1, 250882, Control_c, 0, 64, 92
1, 250897, Note_off_c, 0, 48, 41
1, 250897, Control_c, 0, 64, 95
1, 250913, Control_c, 0, 64, 97
1, 250928, Control_c, 0, 64, 99
1, 250942, Note_off_c, 0, 51, 48
1, 250943, Control_c, 0, 64, 100
1, 250957, Control_c, 0, 64, 102
1, 250972, Control_c, 0, 64, 104
1, 250978, Note_off_c, 0, 54, 35
1, 250981, Note_off_c, 0, 33, 43
1, 250987, Control_c, 0, 64, 105
1, 251001, Control_c, 0, 64, 106
1, 251016, Control_c, 0, 64, 107
1, 251029, Note_off_c, 0, 45, 41
1, 251031, Control_c, 0, 64, 107
1, 251046, Control_c, 0, 64, 108
1, 251061, Control_c, 0, 64, 109
1, 251091, Control_c, 0, 64, 109
1, 251765, Control_c, 0, 64, 109
1, 251771, Note_on_c, 0, 78, 58
1, 251795, Control_c, 0, 64, 108
1, 251800, Note_on_c, 0, 72, 35
1, 251805, Note_on_c, 0, 75, 38
1, 251808, Note_on_c, 0, 69, 39
1, 251810, Control_c, 0, 64, 105
1, 251824, Control_c, 0, 64, 97
1, 251839, Control_c, 0, 64, 86
1, 251854, Control_c, 0, 64, 69
1, 251869, Control_c, 0, 64, 0
1, 251951, Control_c, 0, 64, 62
1, 251965, Control_c, 0, 64, 67
1, 251980, Control_c, 0, 64, 72
1, 251995, Control_c, 0, 64, 78
1, 252010, Control_c, 0, 64, 84
1, 252018, Note_off_c, 0, 75, 30
1, 252025, Control_c, 0, 64, 87
1, 252039, Control_c, 0, 64, 89
1, 252042, Note_off_c, 0, 78, 37
1, 252054, Control_c, 0, 64, 92
1, 252069, Control_c, 0, 64, 94
1, 252079, Note_off_c, 0, 69, 39
1, 252083, Note_off_c, 0, 72, 35
1, 252084, Control_c, 0, 64, 97
1, 252099, Control_c, 0, 64, 99
1, 252113, Control_c, 0, 64, 102
1, 252128, Control_c, 0, 64, 104
1, 252143, Control_c, 0, 64, 105
1, 252158, Control_c, 0, 64, 107
1, 252173, Control_c, 0, 64, 107
1, 252188, Control_c, 0, 64, 108
1, 252232, Control_c, 0, 64, 107
1, 252241, Note_on_c, 0, 78, 78
1, 252247, Control_c, 0, 64, 106
1, 252253, Note_on_c, 0, 75, 66
1, 252262, Control_c, 0, 64, 99
1, 252267, Note_on_c, 0, 72, 40
1, 252277, Control_c, 0, 64, 88
1, 252279, Note_on_c, 0, 69, 38
1, 252292, Control_c, 0, 64, 74
1, 252306, Control_c, 0, 64, 45
1, 252321, Control_c, 0, 64, 0
1, 252351, Control_c, 0, 64, 45
1, 252365, Control_c, 0, 64, 66
1, 252380, Control_c, 0, 64, 72
1, 252395, Control_c, 0, 64, 78
1, 252410, Control_c, 0, 64, 83
1, 252425, Control_c, 0, 64, 86
1, 252439, Control_c, 0, 64, 88
1, 252454, Control_c, 0, 64, 91
1, 252464, Note_off_c, 0, 75, 26
1, 252469, Control_c, 0, 64, 94
1, 252484, Control_c, 0, 64, 96
1, 252499, Control_c, 0, 64, 99
1, 252514, Note_off_c, 0, 78, 39
1, 252515, Control_c, 0, 64, 102
1, 252529, Control_c, 0, 64, 104
1, 252544, Control_c, 0, 64, 105
1, 252559, Control_c, 0, 64, 107
1, 252561, Note_off_c, 0, 72, 37
1, 252564, Note_off_c, 0, 69, 39
1, 252573, Control_c, 0, 64, 108
1, 252588, Control_c, 0, 64, 109
1, 252603, Control_c, 0, 64, 110
1, 252618, Control_c, 0, 64, 110
1, 252633, Control_c, 0, 64, 111
1, 252662, Control_c, 0, 64, 112
1, 252759, Control_c, 0, 64, 111
1, 252774, Control_c, 0, 64, 110
1, 252780, Note_on_c, 0, 78, 70
1, 252788, Control_c, 0, 64, 106
1, 252803, Control_c, 0, 64, 98
1, 252808, Note_on_c, 0, 75, 48
1, 252814, Note_on_c, 0, 69, 41
1, 252817, Note_on_c, 0, 72, 36
1, 252818, Control_c, 0, 64, 85
1, 252833, Control_c, 0, 64, 70
1, 252848, Control_c, 0, 64, 0
1, 252892, Control_c, 0, 64, 26
1, 252907, Control_c, 0, 64, 64
1, 252921, Control_c, 0, 64, 69
1, 252935, Control_c, 0, 64, 75
1, 252950, Control_c, 0, 64, 80
1, 252965, Control_c, 0, 64, 84
1, 252979, Control_c, 0, 64, 87
1, 252990, Note_off_c, 0, 75, 32
1, 252994, Control_c, 0, 64, 89
1, 253009, Control_c, 0, 64, 91
1, 253024, Control_c, 0, 64, 94
1, 253039, Control_c, 0, 64, 96
1, 253053, Control_c, 0, 64, 98
1, 253061, Note_off_c, 0, 78, 54
1, 253068, Note_off_c, 0, 69, 34
1, 253068, Control_c, 0, 64, 99
1, 253083, Control_c, 0, 64, 100
1, 253094, Note_off_c, 0, 72, 32
1, 253098, Control_c, 0, 64, 101
1, 253112, Control_c, 0, 64, 102
1, 253127, Control_c, 0, 64, 103
1, 253157, Control_c, 0, 64, 103
1, 253186, Control_c, 0, 64, 104
1, 253447, Control_c, 0, 64, 103
1, 253462, Control_c, 0, 64, 103
1, 253477, Control_c, 0, 64, 102
1, 253491, Control_c, 0, 64, 100
1, 253506, Control_c, 0, 64, 99
1, 253510, Note_on_c, 0, 79, 50
1, 253521, Control_c, 0, 64, 97
1, 253535, Control_c, 0, 64, 95
1, 253541, Note_on_c, 0, 75, 31
1, 253547, Note_on_c, 0, 70, 34
1, 253550, Control_c, 0, 64, 91
1, 253565, Control_c, 0, 64, 85
1, 253580, Control_c, 0, 64, 74
1, 253595, Control_c, 0, 64, 59
1, 253610, Control_c, 0, 64, 0
1, 253797, Note_off_c, 0, 75, 61
1, 253805, Note_off_c, 0, 79, 61
1, 253830, Note_off_c, 0, 70, 53
1, 254122, Note_on_c, 0, 78, 53
1, 254149, Note_on_c, 0, 75, 34
1, 254152, Note_on_c, 0, 69, 35
1, 254184, Note_on_c, 0, 72, 22
1, 254189, Note_off_c, 0, 75, 55
1, 254197, Control_c, 0, 64, 15
1, 254212, Control_c, 0, 64, 61
1, 254227, Control_c, 0, 64, 67
1, 254241, Control_c, 0, 64, 70
1, 254254, Note_off_c, 0, 78, 52
1, 254256, Control_c, 0, 64, 74
1, 254271, Control_c, 0, 64, 78
1, 254280, Note_off_c, 0, 72, 35
1, 254286, Control_c, 0, 64, 81
1, 254293, Note_off_c, 0, 69, 37
1, 254301, Control_c, 0, 64, 83
1, 254315, Control_c, 0, 64, 84
1, 254330, Control_c, 0, 64, 85
1, 254345, Control_c, 0, 64, 87
1, 254359, Control_c, 0, 64, 88
1, 254374, Control_c, 0, 64, 89
1, 254453, Note_on_c, 0, 79, 53
1, 254463, Control_c, 0, 64, 89
1, 254468, Note_on_c, 0, 70, 39
1, 254476, Note_on_c, 0, 75, 37
1, 254478, Control_c, 0, 64, 86
1, 254493, Control_c, 0, 64, 82
1, 254507, Control_c, 0, 64, 74
1, 254522, Control_c, 0, 64, 62
1, 254537, Control_c, 0, 64, 0
1, 254673, Note_off_c, 0, 70, 51
1, 254683, Note_off_c, 0, 75, 62
1, 254695, Note_off_c, 0, 79, 61
1, 255022, Note_on_c, 0, 78, 56
1, 255041, Note_on_c, 0, 75, 41
1, 255050, Note_on_c, 0, 69, 36
1, 255067, Note_on_c, 0, 72, 23
1, 255074, Note_off_c, 0, 75, 58
1, 255094, Control_c, 0, 64, 59
1, 255109, Control_c, 0, 64, 67
1, 255116, Note_off_c, 0, 78, 57
1, 255124, Control_c, 0, 64, 71
1, 255138, Control_c, 0, 64, 76
1, 255153, Control_c, 0, 64, 81
1, 255168, Control_c, 0, 64, 84
1, 255182, Control_c, 0, 64, 85
1, 255197, Note_off_c, 0, 72, 40
1, 255197, Control_c, 0, 64, 87
1, 255202, Note_off_c, 0, 69, 36
1, 255212, Control_c, 0, 64, 89
1, 255227, Control_c, 0, 64, 91
1, 255242, Control_c, 0, 64, 94
1, 255256, Control_c, 0, 64, 96
1, 255271, Control_c, 0, 64, 97
1, 255286, Control_c, 0, 64, 97
1, 255300, Control_c, 0, 64, 98
1, 255315, Control_c, 0, 64, 98
1, 255330, Control_c, 0, 64, 99
1, 255457, Note_on_c, 0, 79, 55
1, 255463, Note_on_c, 0, 75, 46
1, 255464, Control_c, 0, 64, 98
1, 255479, Control_c, 0, 64, 95
1, 255479, Note_on_c, 0, 70, 43
1, 255494, Control_c, 0, 64, 89
1, 255508, Control_c, 0, 64, 79
1, 255523, Control_c, 0, 64, 65
1, 255538, Control_c, 0, 64, 0
1, 255612, Control_c, 0, 64, 63
1, 255625, Note_off_c, 0, 75, 47
1, 255627, Control_c, 0, 64, 70
1, 255641, Control_c, 0, 64, 78
1, 255656, Control_c, 0, 64, 84
1, 255679, Control_c, 0, 64, 88
1, 255693, Control_c, 0, 64, 90
1, 255709, Control_c, 0, 64, 92
1, 255724, Control_c, 0, 64, 95
1, 255739, Control_c, 0, 64, 97
1, 255753, Control_c, 0, 64, 99
1, 255756, Note_off_c, 0, 79, 58
1, 255768, Control_c, 0, 64, 100
1, 255783, Control_c, 0, 64, 100
1, 255798, Control_c, 0, 64, 101
1, 255827, Note_off_c, 0, 70, 62
1, 255854, Note_on_c, 0, 80, 56
1, 255930, Note_off_c, 0, 80, 59
1, 255944, Note_on_c, 0, 82, 59
1, 255976, Control_c, 0, 64, 100
1, 255991, Control_c, 0, 64, 99
1, 256005, Control_c, 0, 64, 98
1, 256007, Note_on_c, 0, 79, 63
1, 256020, Control_c, 0, 64, 97
1, 256035, Control_c, 0, 64, 95
1, 256036, Note_off_c, 0, 82, 59
1, 256050, Control_c, 0, 64, 92
1, 256065, Control_c, 0, 64, 88
1, 256068, Note_off_c, 0, 79, 61
1, 256079, Control_c, 0, 64, 82
1, 256083, Note_on_c, 0, 76, 74
1, 256094, Control_c, 0, 64, 74
1, 256109, Control_c, 0, 64, 65
1, 256118, Note_off_c, 0, 76, 65
1, 256123, Control_c, 0, 64, 0
1, 256165, Note_on_c, 0, 77, 57
1, 256225, Note_on_c, 0, 79, 63
1, 256275, Note_on_c, 0, 75, 61
1, 256298, Note_off_c, 0, 77, 49
1, 256324, Note_off_c, 0, 79, 61
1, 256337, Note_off_c, 0, 75, 63
1, 256339, Note_on_c, 0, 58, 46
1, 256342, Note_on_c, 0, 73, 67
1, 256345, Note_on_c, 0, 68, 48
1, 256355, Note_on_c, 0, 65, 45
1, 256379, Note_off_c, 0, 73, 55
1, 256412, Note_on_c, 0, 74, 69
1, 256501, Note_on_c, 0, 75, 66
1, 256540, Note_off_c, 0, 74, 60
1, 256543, Note_on_c, 0, 72, 69
1, 256570, Note_off_c, 0, 75, 64
1, 256582, Note_off_c, 0, 68, 62
1, 256591, Note_off_c, 0, 65, 60
1, 256600, Note_off_c, 0, 72, 64
1, 256626, Note_on_c, 0, 69, 71
1, 256638, Note_off_c, 0, 58, 64
1, 256662, Note_off_c, 0, 69, 62
1, 256699, Note_on_c, 0, 70, 74
1, 256772, Note_on_c, 0, 72, 72
1, 256784, Note_off_c, 0, 70, 55
1, 256817, Note_on_c, 0, 68, 62
1, 256842, Note_off_c, 0, 72, 63
1, 256849, Note_off_c, 0, 68, 67
1, 256886, Note_on_c, 0, 46, 63
1, 256892, Note_on_c, 0, 66, 73
1, 256894, Note_on_c, 0, 56, 58
1, 256901, Note_on_c, 0, 50, 50
1, 256916, Note_off_c, 0, 66, 69
1, 256930, Note_off_c, 0, 56, 60
1, 256967, Note_off_c, 0, 50, 60
1, 256968, Note_on_c, 0, 67, 73
1, 257001, Note_off_c, 0, 46, 58
1, 257041, Note_on_c, 0, 68, 73
1, 257071, Note_off_c, 0, 67, 61
1, 257082, Note_on_c, 0, 65, 68
1, 257100, Note_off_c, 0, 68, 65
1, 257113, Note_off_c, 0, 65, 66
1, 257190, Note_on_c, 0, 51, 58
1, 257203, Note_on_c, 0, 63, 72
1, 257211, Note_on_c, 0, 55, 64
1, 257241, Note_off_c, 0, 51, 61
1, 257271, Note_on_c, 0, 53, 62
1, 257316, Note_off_c, 0, 53, 63
1, 257350, Note_on_c, 0, 51, 54
1, 257365, Note_off_c, 0, 55, 31
1, 257386, Note_off_c, 0, 51, 63
1, 257406, Note_on_c, 0, 50, 57
1, 257459, Note_on_c, 0, 51, 71
1, 257480, Note_off_c, 0, 50, 58
1, 257493, Note_off_c, 0, 63, 56
1, 257518, Note_on_c, 0, 53, 65
1, 257537, Note_off_c, 0, 51, 62
1, 257559, Note_off_c, 0, 53, 65
1, 257576, Note_on_c, 0, 55, 67
1, 257642, Note_off_c, 0, 55, 64
1, 257643, Note_on_c, 0, 56, 70
1, 257704, Note_on_c, 0, 58, 75
1, 257704, Note_off_c, 0, 56, 63
1, 257728, Note_off_c, 0, 58, 70
1, 257860, Note_on_c, 0, 55, 74
1, 257888, Note_off_c, 0, 55, 68
1, 258014, Note_on_c, 0, 53, 72
1, 258019, Note_on_c, 0, 70, 63
1, 258036, Note_off_c, 0, 53, 70
1, 258078, Note_off_c, 0, 70, 62
1, 258084, Note_on_c, 0, 72, 65
1, 258147, Note_on_c, 0, 70, 65
1, 258159, Note_on_c, 0, 56, 62
1, 258163, Note_off_c, 0, 72, 62
1, 258191, Note_off_c, 0, 56, 63
1, 258213, Note_off_c, 0, 70, 63
1, 258218, Note_on_c, 0, 69, 73
1, 258281, Note_on_c, 0, 70, 74
1, 258286, Note_off_c, 0, 69, 64
1, 258288, Note_on_c, 0, 50, 59
1, 258312, Note_off_c, 0, 50, 56
1, 258324, Note_off_c, 0, 70, 64
1, 258352, Note_on_c, 0, 72, 77
1, 258391, Note_off_c, 0, 72, 62
1, 258414, Note_on_c, 0, 53, 58
1, 258418, Note_on_c, 0, 74, 82
1, 258441, Note_off_c, 0, 53, 65
1, 258471, Note_on_c, 0, 75, 75
1, 258479, Note_off_c, 0, 74, 58
1, 258541, Note_on_c, 0, 46, 66
1, 258543, Note_on_c, 0, 77, 84
1, 258554, Note_off_c, 0, 75, 66
1, 258561, Note_off_c, 0, 77, 70
1, 258575, Note_off_c, 0, 46, 59
1, 258711, Note_on_c, 0, 50, 58
1, 258720, Note_on_c, 0, 68, 75
1, 258740, Note_off_c, 0, 50, 64
1, 258743, Note_off_c, 0, 68, 70
1, 258852, Note_on_c, 0, 51, 64
1, 258853, Note_on_c, 0, 67, 75
1, 258916, Note_off_c, 0, 51, 62
1, 258928, Note_on_c, 0, 53, 71
1, 258984, Note_off_c, 0, 53, 56
1, 259028, Note_on_c, 0, 51, 49
1, 259054, Note_off_c, 0, 51, 60
1, 259062, Note_on_c, 0, 50, 62
1, 259129, Note_on_c, 0, 51, 69
1, 259141, Note_off_c, 0, 50, 60
1, 259184, Note_on_c, 0, 53, 68
1, 259194, Note_off_c, 0, 67, 56
1, 259214, Note_off_c, 0, 51, 61
1, 259233, Note_off_c, 0, 53, 66
1, 259248, Note_on_c, 0, 55, 74
1, 259298, Note_off_c, 0, 55, 64
1, 259321, Note_on_c, 0, 56, 68
1, 259378, Note_off_c, 0, 56, 64
1, 259394, Note_on_c, 0, 60, 77
1, 259468, Note_off_c, 0, 60, 57
1, 259470, Note_on_c, 0, 58, 74
1, 259530, Note_on_c, 0, 56, 71
1, 259533, Note_off_c, 0, 58, 63
1, 259609, Note_off_c, 0, 56, 63
1, 259618, Note_on_c, 0, 55, 58
1, 259673, Note_off_c, 0, 55, 65
1, 259679, Note_on_c, 0, 53, 71
1, 259684, Note_on_c, 0, 82, 76
1, 259703, Note_off_c, 0, 53, 69
1, 259750, Note_off_c, 0, 82, 63
1, 259756, Note_on_c, 0, 84, 74
1, 259817, Note_on_c, 0, 82, 72
1, 259825, Note_on_c, 0, 56, 61
1, 259848, Note_off_c, 0, 84, 63
1, 259861, Note_off_c, 0, 56, 63
1, 259882, Note_off_c, 0, 82, 64
1, 259887, Note_on_c, 0, 81, 77
1, 259945, Note_on_c, 0, 82, 74
1, 259948, Note_on_c, 0, 50, 54
1, 259962, Note_off_c, 0, 81, 61
1, 259973, Note_off_c, 0, 50, 52
1, 259993, Note_off_c, 0, 82, 67
1, 260021, Note_on_c, 0, 84, 77
1, 260069, Note_on_c, 0, 53, 61
1, 260078, Note_off_c, 0, 84, 65
1, 260081, Note_on_c, 0, 86, 79
1, 260098, Note_off_c, 0, 53, 67
1, 260138, Note_on_c, 0, 87, 79
1, 260175, Note_off_c, 0, 86, 59
1, 260210, Note_on_c, 0, 46, 69
1, 260222, Note_on_c, 0, 89, 81
1, 260225, Note_off_c, 0, 87, 64
1, 260239, Note_off_c, 0, 46, 64
1, 260300, Note_on_c, 0, 86, 69
1, 260311, Note_off_c, 0, 89, 50
1, 260355, Note_on_c, 0, 50, 65
1, 260368, Note_on_c, 0, 82, 74
1, 260382, Note_off_c, 0, 50, 65
1, 260403, Note_off_c, 0, 86, 61
1, 260427, Note_on_c, 0, 80, 69
1, 260451, Note_off_c, 0, 82, 63
1, 260496, Note_on_c, 0, 79, 74
1, 260499, Note_off_c, 0, 80, 63
1, 260502, Note_on_c, 0, 51, 64
1, 260521, Note_off_c, 0, 79, 67
1, 260528, Note_off_c, 0, 51, 65
1, 260654, Note_on_c, 0, 46, 62
1, 260684, Note_off_c, 0, 46, 63
1, 260803, Note_on_c, 0, 43, 59
1, 260836, Note_off_c, 0, 43, 63
1, 260958, Note_on_c, 0, 51, 52
1, 260967, Note_on_c, 0, 63, 55
1, 260982, Note_off_c, 0, 51, 56
1, 260991, Note_off_c, 0, 63, 66
1, 261112, Note_on_c, 0, 46, 58
1, 261115, Note_on_c, 0, 58, 66
1, 261142, Note_off_c, 0, 58, 67
1, 261148, Note_off_c, 0, 46, 64
1, 261268, Note_on_c, 0, 67, 59
1, 261273, Note_on_c, 0, 55, 51
1, 261298, Note_off_c, 0, 55, 58
1, 261299, Note_off_c, 0, 67, 60
1, 261408, Note_on_c, 0, 63, 71
1, 261412, Note_on_c, 0, 51, 58
1, 261439, Note_off_c, 0, 63, 63
1, 261451, Note_off_c, 0, 51, 60
1, 261554, Note_on_c, 0, 70, 64
1, 261558, Note_on_c, 0, 58, 59
1, 261590, Note_off_c, 0, 58, 65
1, 261592, Note_off_c, 0, 70, 59
1, 261707, Note_on_c, 0, 67, 64
1, 261709, Note_on_c, 0, 55, 55
1, 261739, Note_off_c, 0, 55, 66
1, 261739, Note_off_c, 0, 67, 64
1, 261855, Note_on_c, 0, 63, 57
1, 261855, Note_on_c, 0, 75, 61
1, 261877, Note_off_c, 0, 63, 63
1, 261889, Note_off_c, 0, 75, 62
1, 262001, Note_on_c, 0, 70, 70
1, 262001, Note_on_c, 0, 58, 53
1, 262023, Note_off_c, 0, 58, 62
1, 262025, Note_off_c, 0, 70, 68
1, 262159, Note_on_c, 0, 79, 65
1, 262165, Note_on_c, 0, 67, 45
1, 262191, Note_off_c, 0, 67, 53
1, 262192, Note_off_c, 0, 79, 63
1, 262304, Note_on_c, 0, 75, 67
1, 262319, Note_on_c, 0, 63, 51
1, 262330, Note_off_c, 0, 75, 69
1, 262342, Note_off_c, 0, 63, 60
1, 262480, Note_on_c, 0, 82, 59
1, 262482, Note_on_c, 0, 70, 56
1, 262517, Note_off_c, 0, 82, 61
1, 262518, Note_off_c, 0, 70, 65
1, 262630, Note_on_c, 0, 79, 70
1, 262633, Note_on_c, 0, 67, 53
1, 262653, Note_off_c, 0, 79, 68
1, 262654, Note_off_c, 0, 67, 58
1, 262815, Note_on_c, 0, 87, 66
1, 262824, Note_on_c, 0, 75, 64
1, 262839, Note_off_c, 0, 87, 69
1, 262840, Note_off_c, 0, 75, 65
1, 263110, Note_on_c, 0, 46, 96
1, 263110, Note_on_c, 0, 65, 96
1, 263111, Note_on_c, 0, 58, 93
1, 263112, Note_on_c, 0, 74, 90
1, 263113, Note_on_c, 0, 68, 90
1, 263128, Note_off_c, 0, 58, 75
1, 263131, Control_c, 0, 64, 64
1, 263142, Note_off_c, 0, 46, 65
1, 263142, Note_off_c, 0, 65, 68
1, 263146, Control_c, 0, 64, 81
1, 263148, Note_off_c, 0, 68, 67
1, 263149, Note_off_c, 0, 74, 68
1, 263168, Control_c, 0, 64, 99
1, 263183, Control_c, 0, 64, 112
1, 263197, Control_c, 0, 64, 118
1, 263212, Control_c, 0, 64, 127
1, 263330, Control_c, 0, 64, 107
1, 263345, Control_c, 0, 64, 93
1, 263360, Control_c, 0, 64, 80
1, 263375, Control_c, 0, 64, 65
1, 263390, Control_c, 0, 64, 0
1, 263643, Control_c, 0, 64, 33
1, 263658, Control_c, 0, 64, 72
1, 263662, Note_on_c, 0, 39, 83
1, 263665, Note_on_c, 0, 51, 98
1, 263668, Note_on_c, 0, 63, 100
1, 263668, Note_on_c, 0, 67, 95
1, 263669, Note_on_c, 0, 75, 93
1, 263672, Control_c, 0, 64, 90
1, 263688, Control_c, 0, 64, 110
1, 263693, Note_off_c, 0, 51, 66
1, 263703, Control_c, 0, 64, 115
1, 263703, Note_off_c, 0, 63, 68
1, 263709, Note_off_c, 0, 39, 63
1, 263710, Note_off_c, 0, 67, 66
1, 263712, Note_off_c, 0, 75, 69
1, 263718, Control_c, 0, 64, 117
1, 263733, Control_c, 0, 64, 121
1, 263747, Control_c, 0, 64, 127
1, 264095, Control_c, 0, 64, 126
1, 264110, Control_c, 0, 64, 118
1, 264125, Control_c, 0, 64, 113
1, 264139, Control_c, 0, 64, 110
1, 264154, Control_c, 0, 64, 106
1, 264169, Control_c, 0, 64, 102
1, 264184, Control_c, 0, 64, 98
1, 264199, Control_c, 0, 64, 92
1, 264213, Control_c, 0, 64, 86
1, 264228, Control_c, 0, 64, 78
1, 264243, Control_c, 0, 64, 69
1, 264258, Control_c, 0, 64, 48
1, 264272, Control_c, 0, 64, 0
1, 264272, End_track
0, 0, End_of_file
