0, 0, Header, 0, 1, 384
1, 0, Start_track
1, 0, Title_t, "Russian Scherzo-VladimirLevitsky"
1, 0, Text_t, "2008 e-Piano Junior Competition recital round"
1, 0, Text_t, "recorded July 2008"
1, 0, Text_t, "http://www.piano-e-competition.com/"
1, 0, Text_t, "File processed for distribution by software from Zenph Studios, Inc., http://www.zenph.com"
1, 0, Instrument_name_t, "Yamaha Disklavier Pro Mark IV concert grand piano, model DCFIIISM4PRO"
1, 0, Sequencer_specific, 39, 67, 113, 0, 1, 0, 1, 0, 82, 117, 115, 115, 105, 97, 110, 32, 83, 99, 104, 101, 114, 122, 111, 32, 86, 108, 97, 100, 105, 109, 105, 114, 76, 101, 118, 105, 116, 115, 107, 121
1, 0, Sequencer_specific, 6, 67, 113, 0, 0, 0, 69
1, 0, System_exclusive, 21, 67, 113, 126, 21, 0, 2, 2, 0, 3, 14, 1, 4, 1, 13, 13, 10, 11, 9, 2, 7, 247
1, 0, Sequencer_specific, 5, 67, 123, 12, 2, 1
1, 0, Tempo, 512820
1, 0, Time_signature, 4, 2, 24, 8
1, 0, System_exclusive, 5, 126, 127, 9, 1, 247
1, 1, System_exclusive, 8, 67, 16, 76, 0, 0, 126, 0, 247
1, 2, System_exclusive, 8, 67, 16, 76, 8, 9, 7, 1, 247
1, 3, Control_c, 0, 0, 0
1, 3, Control_c, 1, 0, 0
1, 3, Control_c, 2, 0, 0
1, 3, Control_c, 3, 0, 0
1, 3, Control_c, 4, 0, 0
1, 3, Control_c, 5, 0, 0
1, 3, Control_c, 6, 0, 0
1, 3, Control_c, 7, 0, 0
1, 3, Control_c, 8, 0, 0
1, 3, Control_c, 9, 0, 127
1, 3, Control_c, 10, 0, 0
1, 3, Control_c, 11, 0, 0
1, 3, Control_c, 12, 0, 0
1, 3, Control_c, 13, 0, 0
1, 3, Control_c, 14, 0, 0
1, 3, Control_c, 15, 0, 0
1, 4, Control_c, 0, 32, 0
1, 4, Control_c, 1, 32, 0
1, 4, Control_c, 2, 32, 0
1, 4, Control_c, 3, 32, 0
1, 4, Control_c, 4, 32, 0
1, 4, Control_c, 5, 32, 0
1, 4, Control_c, 6, 32, 0
1, 4, Control_c, 7, 32, 0
1, 4, Control_c, 8, 32, 0
1, 4, Control_c, 9, 32, 0
1, 4, Control_c, 10, 32, 0
1, 4, Control_c, 11, 32, 0
1, 4, Control_c, 12, 32, 0
1, 4, Control_c, 13, 32, 0
1, 4, Control_c, 14, 32, 0
1, 4, Control_c, 15, 32, 0
1, 5, Program_c, 0, 0
1, 5, Program_c, 1, 0
1, 5, Program_c, 2, 0
1, 5, Program_c, 3, 0
1, 5, Program_c, 4, 0
1, 5, Program_c, 5, 0
1, 5, Program_c, 6, 0
1, 5, Program_c, 7, 0
1, 5, Program_c, 8, 0
1, 5, Program_c, 9, 0
1, 5, Program_c, 10, 0
1, 5, Program_c, 11, 0
1, 5, Program_c, 12, 0
1, 5, Program_c, 13, 0
1, 5, Program_c, 14, 0
1, 5, Program_c, 15, 0
1, 6, Control_c, 0, 7, 100
1, 6, Control_c, 1, 7, 100
1, 6, Control_c, 2, 7, 100
1, 6, Control_c, 3, 7, 100
1, 6, Control_c, 4, 7, 100
1, 6, Control_c, 5, 7, 100
1, 6, Control_c, 6, 7, 100
1, 6, Control_c, 7, 7, 100
1, 6, Control_c, 8, 7, 100
1, 6, Control_c, 9, 7, 100
1, 6, Control_c, 10, 7, 100
1, 6, Control_c, 11, 7, 100
1, 6, Control_c, 12, 7, 100
1, 6, Control_c, 13, 7, 100
1, 6, Control_c, 14, 7, 100
1, 6, Control_c, 15, 7, 100
1, 1130, Note_on_c, 0, 70, 52
1, 1171, Note_on_c, 0, 62, 33
1, 1202, Note_off_c, 0, 62, 53
1, 1508, Note_on_c, 0, 69, 66
1, 1580, Note_off_c, 0, 70, 47
1, 1634, Note_on_c, 0, 67, 66
1, 1640, Note_on_c, 0, 63, 58
1, 1666, Note_off_c, 0, 69, 58
1, 1674, Note_off_c, 0, 63, 66
1, 1947, Note_off_c, 0, 67, 59
1, 1954, Note_on_c, 0, 69, 65
1, 2001, Note_off_c, 0, 69, 58
1, 2073, Note_on_c, 0, 70, 64
1, 2079, Note_on_c, 0, 61, 55
1, 2102, Note_off_c, 0, 70, 67
1, 2104, Note_off_c, 0, 61, 63
1, 2191, Note_on_c, 0, 69, 68
1, 2230, Note_off_c, 0, 69, 58
1, 2299, Note_on_c, 0, 67, 73
1, 2325, Note_off_c, 0, 67, 68
1, 2513, Note_on_c, 0, 62, 70
1, 2519, Note_on_c, 0, 65, 67
1, 2543, Note_off_c, 0, 62, 65
1, 2544, Note_off_c, 0, 65, 68
1, 2731, Note_on_c, 0, 62, 73
1, 2766, Note_off_c, 0, 62, 64
1, 2832, Note_on_c, 0, 59, 69
1, 2859, Note_off_c, 0, 59, 65
1, 2949, Note_on_c, 0, 63, 70
1, 2961, Note_on_c, 0, 60, 67
1, 2990, Note_off_c, 0, 60, 65
1, 2994, Note_off_c, 0, 63, 63
1, 3053, Note_on_c, 0, 65, 69
1, 3109, Note_off_c, 0, 65, 59
1, 3167, Note_on_c, 0, 67, 60
1, 3213, Note_off_c, 0, 67, 60
1, 3263, Note_on_c, 0, 57, 51
1, 3300, Note_off_c, 0, 57, 61
1, 3399, Note_on_c, 0, 62, 57
1, 3408, Note_on_c, 0, 58, 51
1, 3573, Control_c, 0, 64, 10
1, 3588, Control_c, 0, 64, 42
1, 3602, Control_c, 0, 64, 47
1, 3617, Control_c, 0, 64, 50
1, 3632, Control_c, 0, 64, 52
1, 3655, Control_c, 0, 64, 53
1, 3658, Note_off_c, 0, 58, 57
1, 3670, Control_c, 0, 64, 54
1, 3684, Control_c, 0, 64, 53
1, 3699, Control_c, 0, 64, 53
1, 3708, Note_off_c, 0, 62, 53
1, 3714, Control_c, 0, 64, 52
1, 3728, Control_c, 0, 64, 51
1, 3740, Note_on_c, 0, 59, 51
1, 3743, Control_c, 0, 64, 49
1, 3758, Control_c, 0, 64, 46
1, 3773, Note_off_c, 0, 59, 60
1, 3773, Control_c, 0, 64, 38
1, 3789, Control_c, 0, 64, 18
1, 3804, Control_c, 0, 64, 0
1, 3852, Note_on_c, 0, 63, 62
1, 3858, Note_on_c, 0, 60, 57
1, 3889, Note_off_c, 0, 63, 65
1, 3905, Note_off_c, 0, 60, 57
1, 3963, Note_on_c, 0, 65, 54
1, 4007, Note_off_c, 0, 65, 59
1, 4070, Note_on_c, 0, 67, 56
1, 4111, Note_off_c, 0, 67, 61
1, 4159, Note_on_c, 0, 57, 54
1, 4204, Note_off_c, 0, 57, 56
1, 4293, Note_on_c, 0, 62, 53
1, 4305, Note_on_c, 0, 58, 53
1, 4448, Control_c, 0, 64, 13
1, 4463, Control_c, 0, 64, 45
1, 4477, Control_c, 0, 64, 50
1, 4492, Control_c, 0, 64, 53
1, 4507, Control_c, 0, 64, 56
1, 4522, Control_c, 0, 64, 58
1, 4537, Control_c, 0, 64, 59
1, 4551, Control_c, 0, 64, 60
1, 4607, Note_off_c, 0, 58, 61
1, 4627, Note_on_c, 0, 60, 52
1, 4631, Note_off_c, 0, 62, 47
1, 4670, Control_c, 0, 64, 60
1, 4685, Control_c, 0, 64, 59
1, 4700, Control_c, 0, 64, 59
1, 4715, Control_c, 0, 64, 58
1, 4729, Control_c, 0, 64, 57
1, 4744, Control_c, 0, 64, 55
1, 4750, Note_on_c, 0, 62, 64
1, 4753, Note_on_c, 0, 70, 75
1, 4759, Control_c, 0, 64, 50
1, 4761, Note_off_c, 0, 60, 57
1, 4773, Control_c, 0, 64, 32
1, 4788, Control_c, 0, 64, 0
1, 5076, Note_on_c, 0, 67, 72
1, 5082, Note_on_c, 0, 63, 63
1, 5099, Note_off_c, 0, 62, 56
1, 5128, Note_off_c, 0, 70, 57
1, 5208, Note_off_c, 0, 63, 61
1, 5217, Note_on_c, 0, 72, 78
1, 5218, Note_on_c, 0, 64, 66
1, 5225, Note_off_c, 0, 67, 61
1, 5493, Note_off_c, 0, 64, 59
1, 5512, Note_off_c, 0, 72, 57
1, 5535, Note_on_c, 0, 69, 69
1, 5538, Note_on_c, 0, 65, 47
1, 5563, Note_off_c, 0, 69, 65
1, 5578, Note_off_c, 0, 65, 64
1, 5652, Note_on_c, 0, 70, 73
1, 5661, Note_on_c, 0, 62, 65
1, 5685, Note_off_c, 0, 62, 64
1, 5689, Note_off_c, 0, 70, 61
1, 5757, Note_on_c, 0, 69, 74
1, 5784, Note_off_c, 0, 69, 67
1, 5859, Note_on_c, 0, 63, 73
1, 5864, Note_on_c, 0, 67, 82
1, 5884, Note_off_c, 0, 67, 68
1, 6072, Note_off_c, 0, 63, 61
1, 6086, Note_on_c, 0, 65, 73
1, 6111, Note_off_c, 0, 65, 70
1, 6187, Note_on_c, 0, 63, 70
1, 6213, Note_off_c, 0, 63, 67
1, 6287, Note_on_c, 0, 62, 74
1, 6290, Note_on_c, 0, 58, 72
1, 6310, Note_off_c, 0, 58, 66
1, 6329, Note_off_c, 0, 62, 61
1, 6395, Note_on_c, 0, 60, 68
1, 6423, Note_off_c, 0, 60, 63
1, 6499, Note_on_c, 0, 58, 73
1, 6512, Note_on_c, 0, 70, 72
1, 6532, Note_off_c, 0, 58, 61
1, 6537, Note_off_c, 0, 70, 69
1, 6600, Note_on_c, 0, 60, 70
1, 6639, Note_off_c, 0, 60, 62
1, 6715, Note_on_c, 0, 62, 75
1, 6725, Note_on_c, 0, 70, 78
1, 6745, Note_off_c, 0, 62, 61
1, 6745, Note_off_c, 0, 70, 68
1, 6809, Note_on_c, 0, 64, 76
1, 6838, Note_off_c, 0, 64, 66
1, 6918, Note_on_c, 0, 69, 85
1, 6923, Note_on_c, 0, 65, 72
1, 6937, Note_off_c, 0, 69, 73
1, 6948, Note_off_c, 0, 65, 69
1, 7149, Note_on_c, 0, 63, 61
1, 7152, Note_on_c, 0, 65, 67
1, 7176, Note_off_c, 0, 63, 67
1, 7180, Note_off_c, 0, 65, 68
1, 7364, Note_on_c, 0, 70, 67
1, 7370, Note_on_c, 0, 62, 52
1, 7402, Note_off_c, 0, 62, 59
1, 7402, Note_off_c, 0, 70, 66
1, 7471, Note_on_c, 0, 69, 69
1, 7508, Note_off_c, 0, 69, 58
1, 7587, Note_on_c, 0, 67, 67
1, 7593, Note_on_c, 0, 64, 52
1, 7614, Note_off_c, 0, 67, 67
1, 7618, Note_off_c, 0, 64, 64
1, 7815, Note_on_c, 0, 65, 48
1, 7855, Note_off_c, 0, 65, 66
1, 7919, Note_on_c, 0, 77, 56
1, 8032, Note_on_c, 0, 79, 68
1, 8064, Note_off_c, 0, 77, 52
1, 8135, Note_on_c, 0, 81, 75
1, 8153, Note_off_c, 0, 79, 59
1, 8287, Note_on_c, 0, 82, 66
1, 8313, Note_off_c, 0, 81, 56
1, 8501, Note_on_c, 0, 77, 49
1, 8510, Note_on_c, 0, 38, 31
1, 8538, Note_off_c, 0, 38, 48
1, 8610, Note_off_c, 0, 77, 58
1, 8615, Note_on_c, 0, 81, 68
1, 8698, Note_off_c, 0, 82, 36
1, 8717, Note_on_c, 0, 39, 63
1, 8731, Note_on_c, 0, 79, 70
1, 8745, Note_off_c, 0, 39, 64
1, 8764, Note_off_c, 0, 81, 54
1, 8946, Note_on_c, 0, 75, 64
1, 8949, Note_on_c, 0, 41, 70
1, 8979, Note_off_c, 0, 41, 67
1, 8981, Note_off_c, 0, 79, 50
1, 8991, Note_off_c, 0, 75, 59
1, 9040, Note_on_c, 0, 81, 70
1, 9089, Note_off_c, 0, 81, 57
1, 9149, Note_on_c, 0, 82, 72
1, 9151, Note_on_c, 0, 43, 74
1, 9176, Note_off_c, 0, 43, 64
1, 9242, Note_on_c, 0, 81, 72
1, 9254, Note_off_c, 0, 82, 44
1, 9313, Note_off_c, 0, 81, 53
1, 9348, Note_on_c, 0, 79, 76
1, 9357, Note_on_c, 0, 75, 64
1, 9358, Note_on_c, 0, 45, 67
1, 9387, Note_off_c, 0, 45, 65
1, 9544, Note_off_c, 0, 79, 52
1, 9581, Note_on_c, 0, 46, 71
1, 9585, Note_on_c, 0, 77, 79
1, 9620, Note_off_c, 0, 46, 66
1, 9626, Note_off_c, 0, 75, 54
1, 9802, Note_off_c, 0, 77, 58
1, 9817, Note_on_c, 0, 47, 66
1, 9824, Note_on_c, 0, 74, 68
1, 9857, Note_off_c, 0, 47, 60
1, 10016, Note_off_c, 0, 74, 60
1, 10029, Note_on_c, 0, 48, 63
1, 10030, Note_on_c, 0, 75, 64
1, 10057, Note_off_c, 0, 48, 66
1, 10092, Note_off_c, 0, 75, 64
1, 10132, Note_on_c, 0, 77, 54
1, 10174, Note_off_c, 0, 77, 56
1, 10237, Note_on_c, 0, 51, 57
1, 10246, Note_on_c, 0, 79, 65
1, 10250, Note_on_c, 0, 72, 60
1, 10273, Note_off_c, 0, 51, 62
1, 10289, Note_off_c, 0, 79, 55
1, 10466, Note_on_c, 0, 55, 54
1, 10469, Note_on_c, 0, 74, 57
1, 10498, Note_off_c, 0, 55, 65
1, 10499, Note_off_c, 0, 72, 61
1, 10663, Note_off_c, 0, 74, 60
1, 10690, Note_on_c, 0, 43, 52
1, 10703, Note_on_c, 0, 70, 57
1, 10723, Note_off_c, 0, 43, 62
1, 10744, Note_off_c, 0, 70, 59
1, 10789, Note_on_c, 0, 74, 66
1, 10839, Note_off_c, 0, 74, 63
1, 10896, Note_on_c, 0, 75, 74
1, 10909, Note_on_c, 0, 48, 55
1, 10934, Note_off_c, 0, 48, 59
1, 10943, Note_off_c, 0, 75, 62
1, 11000, Note_on_c, 0, 77, 71
1, 11046, Note_off_c, 0, 77, 60
1, 11104, Note_on_c, 0, 79, 74
1, 11107, Note_on_c, 0, 51, 56
1, 11119, Note_on_c, 0, 69, 57
1, 11143, Note_off_c, 0, 51, 63
1, 11146, Note_off_c, 0, 69, 61
1, 11147, Note_off_c, 0, 79, 59
1, 11330, Note_on_c, 0, 74, 64
1, 11332, Note_on_c, 0, 55, 53
1, 11332, Note_on_c, 0, 70, 60
1, 11356, Note_off_c, 0, 55, 60
1, 11542, Note_off_c, 0, 70, 61
1, 11555, Note_on_c, 0, 43, 59
1, 11563, Note_off_c, 0, 74, 64
1, 11582, Note_off_c, 0, 43, 59
1, 11775, Note_on_c, 0, 82, 77
1, 11777, Note_on_c, 0, 67, 67
1, 11784, Note_on_c, 0, 74, 71
1, 11805, Note_off_c, 0, 67, 67
1, 11805, Note_off_c, 0, 74, 72
1, 11987, Note_on_c, 0, 73, 71
1, 11997, Note_on_c, 0, 65, 70
1, 12016, Note_off_c, 0, 65, 69
1, 12023, Note_off_c, 0, 82, 58
1, 12028, Note_off_c, 0, 73, 52
1, 12077, Note_on_c, 0, 79, 78
1, 12118, Note_off_c, 0, 79, 62
1, 12203, Note_on_c, 0, 64, 74
1, 12210, Note_on_c, 0, 84, 90
1, 12217, Note_on_c, 0, 72, 84
1, 12227, Note_off_c, 0, 64, 68
1, 12419, Note_on_c, 0, 63, 66
1, 12423, Note_off_c, 0, 84, 57
1, 12428, Note_on_c, 0, 77, 77
1, 12444, Note_off_c, 0, 63, 68
1, 12464, Note_off_c, 0, 77, 58
1, 12520, Note_on_c, 0, 81, 79
1, 12559, Note_off_c, 0, 81, 62
1, 12578, Note_off_c, 0, 72, 52
1, 12627, Note_on_c, 0, 82, 82
1, 12628, Note_on_c, 0, 72, 42
1, 12642, Note_on_c, 0, 62, 70
1, 12663, Note_off_c, 0, 72, 59
1, 12670, Note_off_c, 0, 62, 64
1, 12684, Note_off_c, 0, 82, 64
1, 12729, Note_on_c, 0, 81, 79
1, 12773, Note_off_c, 0, 81, 62
1, 12834, Note_on_c, 0, 63, 75
1, 12838, Note_on_c, 0, 79, 80
1, 12848, Note_on_c, 0, 75, 73
1, 12859, Note_off_c, 0, 63, 70
1, 12864, Note_off_c, 0, 75, 69
1, 12869, Note_off_c, 0, 79, 59
1, 12934, Note_on_c, 0, 67, 80
1, 12955, Note_off_c, 0, 67, 69
1, 13051, Note_on_c, 0, 70, 76
1, 13051, Note_on_c, 0, 77, 87
1, 13262, Note_off_c, 0, 77, 58
1, 13271, Note_on_c, 0, 58, 53
1, 13272, Note_off_c, 0, 70, 47
1, 13277, Note_on_c, 0, 74, 70
1, 13306, Note_off_c, 0, 58, 65
1, 13459, Note_off_c, 0, 74, 56
1, 13483, Note_on_c, 0, 67, 62
1, 13483, Note_on_c, 0, 82, 80
1, 13513, Note_off_c, 0, 67, 66
1, 13516, Note_off_c, 0, 82, 63
1, 13704, Note_on_c, 0, 82, 82
1, 13706, Note_on_c, 0, 73, 76
1, 13710, Note_on_c, 0, 64, 60
1, 13728, Note_off_c, 0, 73, 69
1, 13728, Note_off_c, 0, 64, 63
1, 13742, Note_off_c, 0, 82, 66
1, 13911, Note_on_c, 0, 81, 77
1, 13912, Note_on_c, 0, 65, 69
1, 13913, Note_on_c, 0, 72, 76
1, 13935, Note_off_c, 0, 72, 70
1, 13936, Note_off_c, 0, 65, 69
1, 13946, Note_off_c, 0, 81, 58
1, 14138, Note_on_c, 0, 77, 75
1, 14142, Note_on_c, 0, 72, 67
1, 14145, Note_on_c, 0, 69, 57
1, 14161, Note_off_c, 0, 77, 69
1, 14162, Note_off_c, 0, 72, 67
1, 14172, Note_off_c, 0, 69, 66
1, 14348, Note_on_c, 0, 67, 57
1, 14348, Note_on_c, 0, 82, 71
1, 14362, Note_on_c, 0, 74, 55
1, 14378, Note_off_c, 0, 67, 65
1, 14382, Note_off_c, 0, 74, 67
1, 14393, Note_off_c, 0, 82, 65
1, 14456, Note_on_c, 0, 81, 69
1, 14496, Note_off_c, 0, 81, 61
1, 14563, Note_on_c, 0, 79, 65
1, 14566, Note_on_c, 0, 72, 52
1, 14572, Note_on_c, 0, 76, 59
1, 14589, Note_off_c, 0, 72, 60
1, 14590, Note_off_c, 0, 76, 67
1, 14600, Note_off_c, 0, 79, 60
1, 14816, Note_on_c, 0, 77, 53
1, 14839, Note_on_c, 0, 65, 32
1, 14962, Control_c, 0, 64, 56
1, 14977, Control_c, 0, 64, 63
1, 14991, Control_c, 0, 64, 66
1, 15006, Control_c, 0, 64, 68
1, 15021, Control_c, 0, 64, 73
1, 15032, Note_off_c, 0, 65, 53
1, 15036, Control_c, 0, 64, 77
1, 15051, Control_c, 0, 64, 81
1, 15065, Control_c, 0, 64, 83
1, 15080, Control_c, 0, 64, 83
1, 15094, Note_off_c, 0, 77, 62
1, 15123, Control_c, 0, 64, 83
1, 15138, Control_c, 0, 64, 82
1, 15153, Control_c, 0, 64, 79
1, 15168, Control_c, 0, 64, 75
1, 15182, Control_c, 0, 64, 68
1, 15197, Control_c, 0, 64, 56
1, 15212, Control_c, 0, 64, 36
1, 15227, Control_c, 0, 64, 35
1, 15242, Control_c, 0, 64, 34
1, 15257, Control_c, 0, 64, 28
1, 15272, Control_c, 0, 64, 0
1, 15312, Note_on_c, 0, 51, 59
1, 15416, Note_on_c, 0, 65, 60
1, 15519, Note_on_c, 0, 77, 61
1, 15526, Note_on_c, 0, 69, 60
1, 15529, Note_on_c, 0, 72, 48
1, 15602, Note_on_c, 0, 50, 70
1, 15632, Note_off_c, 0, 65, 61
1, 15650, Note_off_c, 0, 77, 61
1, 15668, Note_off_c, 0, 51, 60
1, 15704, Note_off_c, 0, 72, 48
1, 15710, Note_off_c, 0, 69, 59
1, 15720, Note_on_c, 0, 48, 85
1, 15746, Note_off_c, 0, 50, 62
1, 15821, Note_on_c, 0, 66, 71
1, 15926, Note_on_c, 0, 69, 72
1, 15927, Note_on_c, 0, 78, 81
1, 15932, Note_on_c, 0, 74, 62
1, 15968, Note_off_c, 0, 66, 65
1, 16003, Note_off_c, 0, 69, 62
1, 16022, Note_on_c, 0, 50, 84
1, 16026, Note_off_c, 0, 74, 61
1, 16027, Note_off_c, 0, 48, 64
1, 16044, Note_off_c, 0, 78, 61
1, 16121, Note_on_c, 0, 51, 86
1, 16135, Note_off_c, 0, 50, 62
1, 16170, Note_off_c, 0, 51, 64
1, 16216, Note_on_c, 0, 66, 79
1, 16224, Note_on_c, 0, 50, 82
1, 16261, Note_off_c, 0, 66, 64
1, 16268, Note_off_c, 0, 50, 63
1, 16304, Poly_aftertouch_c, 0, 74, 127
1, 16327, Note_on_c, 0, 69, 74
1, 16330, Note_on_c, 0, 78, 79
1, 16332, Note_on_c, 0, 48, 91
1, 16372, Note_off_c, 0, 69, 63
1, 16374, Note_off_c, 0, 48, 66
1, 16405, Poly_aftertouch_c, 0, 74, 0
1, 16431, Note_on_c, 0, 66, 81
1, 16459, Note_off_c, 0, 78, 59
1, 16474, Note_off_c, 0, 66, 64
1, 16546, Note_on_c, 0, 46, 87
1, 16554, Note_on_c, 0, 74, 71
1, 16554, Note_on_c, 0, 79, 76
1, 16592, Note_off_c, 0, 74, 65
1, 16611, Note_off_c, 0, 46, 57
1, 16616, Note_off_c, 0, 79, 64
1, 16658, Note_on_c, 0, 67, 72
1, 16683, Note_off_c, 0, 67, 67
1, 16762, Note_on_c, 0, 82, 79
1, 16768, Note_on_c, 0, 43, 73
1, 16771, Note_on_c, 0, 74, 67
1, 16780, Note_on_c, 0, 79, 60
1, 16807, Note_off_c, 0, 43, 64
1, 16824, Note_off_c, 0, 74, 57
1, 16841, Note_off_c, 0, 82, 63
1, 16866, Note_off_c, 0, 79, 61
1, 16869, Note_on_c, 0, 70, 68
1, 16902, Note_off_c, 0, 70, 61
1, 16987, Note_on_c, 0, 73, 67
1, 17000, Note_on_c, 0, 70, 57
1, 17028, Note_off_c, 0, 70, 59
1, 17079, Note_off_c, 0, 73, 60
1, 17087, Note_on_c, 0, 71, 61
1, 17096, Note_on_c, 0, 74, 57
1, 17135, Note_off_c, 0, 71, 55
1, 17162, Control_c, 0, 64, 10
1, 17177, Control_c, 0, 64, 20
1, 17186, Note_on_c, 0, 58, 53
1, 17190, Note_on_c, 0, 55, 51
1, 17191, Note_on_c, 0, 73, 62
1, 17192, Control_c, 0, 64, 21
1, 17196, Note_on_c, 0, 76, 63
1, 17221, Note_off_c, 0, 74, 62
1, 17229, Note_off_c, 0, 58, 62
1, 17233, Note_off_c, 0, 76, 62
1, 17234, Note_off_c, 0, 55, 60
1, 17236, Control_c, 0, 64, 24
1, 17243, Note_off_c, 0, 73, 62
1, 17251, Control_c, 0, 64, 26
1, 17266, Control_c, 0, 64, 27
1, 17293, Note_on_c, 0, 57, 67
1, 17294, Note_on_c, 0, 54, 57
1, 17311, Control_c, 0, 64, 28
1, 17325, Control_c, 0, 64, 29
1, 17340, Control_c, 0, 64, 31
1, 17343, Note_off_c, 0, 54, 57
1, 17356, Control_c, 0, 64, 32
1, 17371, Control_c, 0, 64, 29
1, 17385, Control_c, 0, 64, 0
1, 17395, Note_on_c, 0, 55, 61
1, 17405, Note_on_c, 0, 76, 64
1, 17406, Note_on_c, 0, 73, 77
1, 17410, Note_on_c, 0, 52, 61
1, 17418, Note_off_c, 0, 57, 37
1, 17474, Note_off_c, 0, 73, 62
1, 17484, Note_on_c, 0, 78, 72
1, 17487, Note_off_c, 0, 55, 64
1, 17489, Control_c, 0, 64, 26
1, 17492, Note_off_c, 0, 76, 54
1, 17501, Note_off_c, 0, 52, 65
1, 17504, Control_c, 0, 64, 62
1, 17509, Note_on_c, 0, 74, 62
1, 17519, Control_c, 0, 64, 64
1, 17534, Control_c, 0, 64, 65
1, 17549, Control_c, 0, 64, 66
1, 17551, Note_off_c, 0, 74, 57
1, 17564, Control_c, 0, 64, 67
1, 17578, Control_c, 0, 64, 69
1, 17593, Control_c, 0, 64, 70
1, 17600, Note_on_c, 0, 79, 77
1, 17603, Note_on_c, 0, 76, 75
1, 17606, Note_on_c, 0, 52, 69
1, 17609, Note_on_c, 0, 55, 69
1, 17630, Note_off_c, 0, 76, 67
1, 17640, Note_off_c, 0, 78, 62
1, 17649, Note_off_c, 0, 55, 57
1, 17656, Note_off_c, 0, 79, 61
1, 17667, Control_c, 0, 64, 69
1, 17682, Control_c, 0, 64, 68
1, 17692, Note_off_c, 0, 52, 65
1, 17694, Note_on_c, 0, 54, 74
1, 17697, Control_c, 0, 64, 66
1, 17707, Note_on_c, 0, 50, 65
1, 17711, Control_c, 0, 64, 62
1, 17726, Control_c, 0, 64, 49
1, 17741, Control_c, 0, 64, 0
1, 17798, Note_on_c, 0, 52, 72
1, 17801, Note_on_c, 0, 49, 76
1, 17807, Note_on_c, 0, 79, 85
1, 17813, Note_on_c, 0, 76, 74
1, 17826, Note_off_c, 0, 50, 61
1, 17831, Note_off_c, 0, 54, 61
1, 17848, Note_off_c, 0, 52, 66
1, 17870, Note_off_c, 0, 76, 55
1, 17884, Note_off_c, 0, 49, 63
1, 17916, Note_on_c, 0, 81, 79
1, 17916, Note_on_c, 0, 78, 82
1, 17939, Note_off_c, 0, 79, 60
1, 17978, Note_off_c, 0, 78, 63
1, 18015, Note_on_c, 0, 82, 84
1, 18023, Note_on_c, 0, 47, 81
1, 18023, Note_on_c, 0, 50, 81
1, 18029, Note_on_c, 0, 79, 82
1, 18041, Note_off_c, 0, 81, 59
1, 18065, Note_off_c, 0, 79, 62
1, 18092, Note_off_c, 0, 82, 64
1, 18106, Note_off_c, 0, 50, 35
1, 18111, Note_on_c, 0, 45, 74
1, 18116, Note_on_c, 0, 49, 84
1, 18130, Note_off_c, 0, 47, 62
1, 18211, Note_off_c, 0, 49, 61
1, 18221, Note_off_c, 0, 45, 64
1, 18223, Note_on_c, 0, 50, 88
1, 18231, Note_on_c, 0, 78, 80
1, 18235, Note_on_c, 0, 81, 84
1, 18262, Note_off_c, 0, 78, 63
1, 18264, Note_off_c, 0, 50, 65
1, 18279, Note_off_c, 0, 81, 63
1, 18333, Note_on_c, 0, 74, 65
1, 18361, Note_off_c, 0, 74, 66
1, 18444, Note_on_c, 0, 86, 68
1, 18445, Note_on_c, 0, 78, 69
1, 18447, Note_on_c, 0, 38, 65
1, 18476, Note_off_c, 0, 38, 64
1, 18519, Note_off_c, 0, 86, 61
1, 18530, Note_off_c, 0, 78, 56
1, 18537, Note_on_c, 0, 74, 62
1, 18568, Note_off_c, 0, 74, 66
1, 18676, Note_on_c, 0, 51, 63
1, 18769, Note_on_c, 0, 65, 66
1, 18869, Note_on_c, 0, 77, 67
1, 18875, Note_on_c, 0, 69, 63
1, 18890, Note_on_c, 0, 72, 55
1, 18973, Note_on_c, 0, 50, 78
1, 18977, Note_off_c, 0, 65, 60
1, 18989, Note_off_c, 0, 77, 59
1, 19018, Note_off_c, 0, 51, 50
1, 19023, Note_off_c, 0, 69, 54
1, 19045, Note_off_c, 0, 72, 57
1, 19079, Note_on_c, 0, 48, 86
1, 19101, Note_off_c, 0, 50, 63
1, 19186, Note_on_c, 0, 66, 82
1, 19298, Note_on_c, 0, 78, 80
1, 19299, Note_on_c, 0, 74, 64
1, 19299, Note_on_c, 0, 69, 72
1, 19340, Note_off_c, 0, 66, 60
1, 19368, Note_off_c, 0, 69, 63
1, 19405, Note_off_c, 0, 74, 60
1, 19407, Note_on_c, 0, 50, 90
1, 19416, Note_off_c, 0, 48, 63
1, 19428, Note_off_c, 0, 78, 61
1, 19512, Note_on_c, 0, 51, 89
1, 19520, Note_off_c, 0, 50, 62
1, 19562, Note_off_c, 0, 51, 63
1, 19601, Note_on_c, 0, 66, 83
1, 19615, Note_on_c, 0, 50, 81
1, 19646, Note_off_c, 0, 66, 65
1, 19651, Note_on_c, 0, 74, 16
1, 19668, Note_off_c, 0, 50, 64
1, 19699, Note_off_c, 0, 74, 0
1, 19713, Note_on_c, 0, 69, 70
1, 19719, Note_on_c, 0, 78, 78
1, 19728, Note_on_c, 0, 48, 85
1, 19737, Poly_aftertouch_c, 0, 74, 127
1, 19739, Note_on_c, 0, 74, 3
1, 19773, Note_off_c, 0, 69, 64
1, 19774, Note_off_c, 0, 48, 65
1, 19786, Note_off_c, 0, 74, 58
1, 19811, Note_on_c, 0, 66, 79
1, 19843, Note_off_c, 0, 78, 60
1, 19856, Note_off_c, 0, 66, 65
1, 19937, Note_on_c, 0, 74, 73
1, 19937, Note_on_c, 0, 46, 80
1, 19940, Note_on_c, 0, 79, 75
1, 19980, Note_off_c, 0, 74, 65
1, 19993, Note_off_c, 0, 46, 61
1, 19998, Note_off_c, 0, 79, 64
1, 20041, Note_on_c, 0, 67, 72
1, 20068, Note_off_c, 0, 67, 65
1, 20157, Note_on_c, 0, 82, 73
1, 20164, Note_on_c, 0, 74, 59
1, 20165, Note_on_c, 0, 79, 64
1, 20166, Note_on_c, 0, 43, 66
1, 20207, Note_off_c, 0, 74, 59
1, 20208, Note_off_c, 0, 43, 64
1, 20231, Note_off_c, 0, 82, 63
1, 20253, Note_off_c, 0, 79, 57
1, 20258, Note_on_c, 0, 70, 65
1, 20289, Note_off_c, 0, 70, 65
1, 20372, Note_on_c, 0, 73, 63
1, 20382, Note_on_c, 0, 70, 58
1, 20417, Note_off_c, 0, 70, 56
1, 20473, Note_off_c, 0, 73, 61
1, 20475, Note_on_c, 0, 71, 59
1, 20475, Note_on_c, 0, 74, 61
1, 20521, Note_off_c, 0, 71, 56
1, 20562, Note_on_c, 0, 58, 53
1, 20572, Note_on_c, 0, 55, 52
1, 20578, Note_on_c, 0, 73, 58
1, 20578, Note_on_c, 0, 76, 64
1, 20599, Note_off_c, 0, 74, 60
1, 20618, Note_off_c, 0, 58, 62
1, 20619, Note_off_c, 0, 76, 64
1, 20625, Note_off_c, 0, 73, 63
1, 20646, Note_off_c, 0, 55, 56
1, 20679, Note_on_c, 0, 54, 57
1, 20679, Note_on_c, 0, 57, 58
1, 20754, Note_off_c, 0, 54, 46
1, 20781, Note_on_c, 0, 55, 63
1, 20795, Note_on_c, 0, 52, 58
1, 20795, Note_on_c, 0, 73, 72
1, 20801, Note_on_c, 0, 76, 67
1, 20819, Note_off_c, 0, 57, 46
1, 20840, Control_c, 0, 64, 47
1, 20848, Note_off_c, 0, 73, 60
1, 20855, Control_c, 0, 64, 57
1, 20867, Note_off_c, 0, 55, 63
1, 20870, Control_c, 0, 64, 58
1, 20892, Control_c, 0, 64, 59
1, 20893, Note_off_c, 0, 52, 65
1, 20897, Note_on_c, 0, 74, 62
1, 20897, Note_on_c, 0, 78, 68
1, 20898, Note_off_c, 0, 76, 60
1, 20907, Control_c, 0, 64, 60
1, 20922, Control_c, 0, 64, 61
1, 20936, Control_c, 0, 64, 61
1, 20951, Control_c, 0, 64, 61
1, 20970, Note_off_c, 0, 74, 60
1, 20981, Control_c, 0, 64, 60
1, 20996, Control_c, 0, 64, 60
1, 21001, Note_on_c, 0, 79, 74
1, 21006, Note_on_c, 0, 55, 65
1, 21007, Note_on_c, 0, 76, 66
1, 21010, Control_c, 0, 64, 58
1, 21013, Note_on_c, 0, 52, 66
1, 21025, Control_c, 0, 64, 55
1, 21032, Note_off_c, 0, 76, 71
1, 21040, Control_c, 0, 64, 48
1, 21047, Note_off_c, 0, 78, 61
1, 21055, Control_c, 0, 64, 40
1, 21058, Note_off_c, 0, 55, 58
1, 21059, Note_off_c, 0, 79, 61
1, 21069, Control_c, 0, 64, 28
1, 21084, Control_c, 0, 64, 0
1, 21090, Note_off_c, 0, 52, 65
1, 21093, Note_on_c, 0, 54, 69
1, 21108, Note_on_c, 0, 50, 59
1, 21203, Note_on_c, 0, 49, 69
1, 21205, Note_on_c, 0, 52, 66
1, 21213, Note_on_c, 0, 76, 78
1, 21216, Note_on_c, 0, 79, 84
1, 21231, Note_off_c, 0, 50, 54
1, 21235, Note_off_c, 0, 54, 59
1, 21253, Note_off_c, 0, 76, 66
1, 21254, Note_off_c, 0, 52, 67
1, 21289, Note_off_c, 0, 49, 62
1, 21316, Note_on_c, 0, 78, 83
1, 21316, Note_on_c, 0, 81, 76
1, 21329, Note_off_c, 0, 79, 58
1, 21371, Note_off_c, 0, 78, 64
1, 21422, Note_on_c, 0, 82, 80
1, 21427, Note_on_c, 0, 47, 82
1, 21428, Note_on_c, 0, 79, 82
1, 21429, Note_on_c, 0, 50, 82
1, 21450, Note_off_c, 0, 81, 60
1, 21455, Note_off_c, 0, 79, 62
1, 21493, Note_off_c, 0, 82, 63
1, 21513, Note_on_c, 0, 45, 71
1, 21524, Note_on_c, 0, 49, 81
1, 21527, Note_off_c, 0, 50, 62
1, 21538, Note_off_c, 0, 47, 59
1, 21607, Note_off_c, 0, 49, 62
1, 21629, Note_off_c, 0, 45, 56
1, 21644, Note_on_c, 0, 78, 82
1, 21645, Note_on_c, 0, 50, 88
1, 21648, Note_on_c, 0, 81, 85
1, 21679, Note_off_c, 0, 50, 67
1, 21681, Note_off_c, 0, 78, 65
1, 21687, Note_off_c, 0, 81, 63
1, 21752, Note_on_c, 0, 74, 65
1, 21777, Note_off_c, 0, 74, 70
1, 21872, Note_on_c, 0, 38, 64
1, 21877, Note_on_c, 0, 78, 75
1, 21881, Note_on_c, 0, 86, 68
1, 21901, Note_off_c, 0, 38, 64
1, 21902, Note_off_c, 0, 78, 65
1, 21942, Note_off_c, 0, 86, 53
1, 21985, Note_on_c, 0, 74, 62
1, 22010, Note_off_c, 0, 74, 70
1, 22110, Note_on_c, 0, 78, 67
1, 22111, Note_on_c, 0, 69, 46
1, 22134, Note_off_c, 0, 69, 53
1, 22140, Note_off_c, 0, 78, 65
1, 22221, Note_on_c, 0, 86, 62
1, 22233, Note_on_c, 0, 63, 47
1, 22254, Note_off_c, 0, 86, 61
1, 22259, Note_off_c, 0, 63, 56
1, 22341, Note_on_c, 0, 69, 51
1, 22343, Note_on_c, 0, 78, 61
1, 22378, Note_off_c, 0, 69, 63
1, 22380, Note_off_c, 0, 78, 65
1, 22465, Note_on_c, 0, 63, 36
1, 22466, Note_on_c, 0, 84, 49
1, 22477, Note_on_c, 0, 75, 18
1, 22482, Note_on_c, 0, 72, 26
1, 22491, Note_off_c, 0, 63, 53
1, 22491, Note_off_c, 0, 84, 60
1, 22506, Note_off_c, 0, 75, 32
1, 22515, Note_off_c, 0, 72, 34
1, 22564, Note_on_c, 0, 69, 62
1, 22569, Note_on_c, 0, 78, 65
1, 22596, Note_off_c, 0, 69, 67
1, 22597, Note_off_c, 0, 78, 66
1, 22667, Note_on_c, 0, 86, 65
1, 22679, Note_on_c, 0, 72, 56
1, 22684, Note_on_c, 0, 63, 36
1, 22697, Note_off_c, 0, 72, 61
1, 22699, Note_on_c, 0, 75, 16
1, 22700, Note_off_c, 0, 86, 59
1, 22712, Note_off_c, 0, 63, 50
1, 22726, Note_off_c, 0, 75, 32
1, 22772, Note_on_c, 0, 78, 73
1, 22772, Note_on_c, 0, 69, 60
1, 22804, Note_off_c, 0, 69, 67
1, 22805, Note_off_c, 0, 78, 61
1, 22865, Note_on_c, 0, 84, 69
1, 22869, Note_on_c, 0, 75, 45
1, 22873, Note_on_c, 0, 72, 67
1, 22876, Note_on_c, 0, 63, 49
1, 22882, Note_off_c, 0, 84, 69
1, 22891, Note_off_c, 0, 72, 68
1, 22895, Note_off_c, 0, 75, 35
1, 22897, Note_off_c, 0, 63, 60
1, 22986, Note_on_c, 0, 67, 82
1, 22991, Note_on_c, 0, 58, 78
1, 23018, Note_off_c, 0, 58, 65
1, 23033, Note_off_c, 0, 67, 61
1, 23099, Note_on_c, 0, 69, 82
1, 23105, Note_on_c, 0, 63, 73
1, 23111, Note_on_c, 0, 60, 75
1, 23138, Note_off_c, 0, 63, 68
1, 23143, Note_off_c, 0, 60, 66
1, 23163, Note_off_c, 0, 69, 61
1, 23204, Note_on_c, 0, 67, 83
1, 23259, Note_on_c, 0, 60, 48
1, 23263, Note_off_c, 0, 67, 59
1, 23308, Note_on_c, 0, 63, 80
1, 23314, Note_on_c, 0, 69, 74
1, 23322, Note_off_c, 0, 60, 62
1, 23329, Note_off_c, 0, 63, 70
1, 23348, Note_off_c, 0, 69, 60
1, 23402, Note_on_c, 0, 57, 78
1, 23412, Note_on_c, 0, 66, 86
1, 23448, Note_off_c, 0, 57, 61
1, 23449, Control_c, 0, 64, 35
1, 23451, Note_off_c, 0, 66, 67
1, 23464, Control_c, 0, 64, 65
1, 23479, Control_c, 0, 64, 70
1, 23494, Control_c, 0, 64, 76
1, 23501, Note_on_c, 0, 54, 76
1, 23509, Control_c, 0, 64, 82
1, 23510, Note_on_c, 0, 62, 79
1, 23511, Note_on_c, 0, 74, 78
1, 23523, Control_c, 0, 64, 86
1, 23526, Note_off_c, 0, 54, 65
1, 23533, Note_off_c, 0, 62, 68
1, 23538, Control_c, 0, 64, 89
1, 23547, Note_off_c, 0, 74, 65
1, 23553, Control_c, 0, 64, 91
1, 23568, Control_c, 0, 64, 93
1, 23583, Control_c, 0, 64, 95
1, 23597, Control_c, 0, 64, 96
1, 23612, Note_on_c, 0, 50, 73
1, 23612, Control_c, 0, 64, 96
1, 23622, Note_on_c, 0, 78, 102
1, 23627, Control_c, 0, 64, 97
1, 23642, Note_off_c, 0, 50, 65
1, 23642, Control_c, 0, 64, 98
1, 23655, Note_off_c, 0, 78, 66
1, 23657, Control_c, 0, 64, 98
1, 23714, Note_on_c, 0, 38, 68
1, 23723, Note_on_c, 0, 86, 79
1, 23725, Note_on_c, 0, 74, 80
1, 23744, Note_off_c, 0, 38, 64
1, 23745, Note_off_c, 0, 74, 71
1, 23746, Control_c, 0, 64, 99
1, 23750, Note_off_c, 0, 86, 57
1, 23776, Control_c, 0, 64, 98
1, 23839, Note_on_c, 0, 78, 80
1, 23851, Control_c, 0, 64, 96
1, 23857, Note_on_c, 0, 69, 57
1, 23872, Control_c, 0, 64, 90
1, 23874, Note_off_c, 0, 78, 63
1, 23882, Note_off_c, 0, 69, 61
1, 23887, Control_c, 0, 64, 82
1, 23902, Control_c, 0, 64, 71
1, 23917, Control_c, 0, 64, 41
1, 23932, Control_c, 0, 64, 0
1, 23954, Note_on_c, 0, 86, 72
1, 23959, Note_on_c, 0, 72, 68
1, 23964, Note_on_c, 0, 63, 62
1, 23967, Note_on_c, 0, 75, 57
1, 23976, Note_off_c, 0, 72, 66
1, 23981, Note_off_c, 0, 86, 62
1, 23988, Note_off_c, 0, 75, 65
1, 23992, Note_off_c, 0, 63, 60
1, 24061, Note_on_c, 0, 69, 60
1, 24064, Note_on_c, 0, 78, 73
1, 24097, Note_off_c, 0, 69, 64
1, 24098, Note_off_c, 0, 78, 60
1, 24164, Note_on_c, 0, 84, 67
1, 24169, Note_on_c, 0, 75, 55
1, 24175, Note_on_c, 0, 72, 54
1, 24176, Note_on_c, 0, 63, 47
1, 24188, Note_off_c, 0, 75, 64
1, 24193, Note_off_c, 0, 72, 61
1, 24195, Note_off_c, 0, 84, 63
1, 24204, Note_off_c, 0, 63, 56
1, 24271, Note_on_c, 0, 78, 68
1, 24272, Note_on_c, 0, 69, 66
1, 24297, Note_off_c, 0, 78, 68
1, 24301, Note_off_c, 0, 69, 68
1, 24367, Note_on_c, 0, 86, 66
1, 24380, Note_on_c, 0, 72, 60
1, 24391, Note_on_c, 0, 63, 48
1, 24395, Note_on_c, 0, 75, 38
1, 24396, Note_off_c, 0, 72, 65
1, 24399, Note_off_c, 0, 86, 60
1, 24417, Note_off_c, 0, 75, 51
1, 24419, Note_off_c, 0, 63, 55
1, 24476, Note_on_c, 0, 78, 73
1, 24489, Note_on_c, 0, 69, 42
1, 24518, Note_off_c, 0, 78, 62
1, 24519, Note_off_c, 0, 69, 57
1, 24563, Note_on_c, 0, 63, 56
1, 24568, Note_on_c, 0, 84, 64
1, 24572, Note_on_c, 0, 75, 24
1, 24580, Note_on_c, 0, 72, 65
1, 24588, Note_off_c, 0, 84, 68
1, 24590, Note_off_c, 0, 63, 67
1, 24606, Note_off_c, 0, 72, 66
1, 24611, Note_off_c, 0, 75, 32
1, 24694, Note_on_c, 0, 58, 77
1, 24695, Note_on_c, 0, 67, 83
1, 24724, Note_off_c, 0, 58, 63
1, 24736, Note_off_c, 0, 67, 63
1, 24796, Note_on_c, 0, 69, 84
1, 24805, Note_on_c, 0, 60, 76
1, 24805, Note_on_c, 0, 63, 76
1, 24817, Note_on_c, 0, 48, 61
1, 24829, Note_off_c, 0, 60, 68
1, 24829, Note_off_c, 0, 63, 69
1, 24845, Note_off_c, 0, 48, 55
1, 24855, Note_off_c, 0, 69, 64
1, 24903, Note_on_c, 0, 67, 87
1, 24916, Note_on_c, 0, 58, 76
1, 24954, Note_off_c, 0, 58, 61
1, 24955, Note_off_c, 0, 67, 60
1, 24995, Note_on_c, 0, 60, 48
1, 24997, Note_on_c, 0, 63, 88
1, 24998, Note_on_c, 0, 69, 83
1, 25020, Note_off_c, 0, 60, 59
1, 25027, Note_off_c, 0, 63, 65
1, 25043, Poly_aftertouch_c, 0, 48, 127
1, 25051, Note_off_c, 0, 69, 59
1, 25067, Poly_aftertouch_c, 0, 48, 0
1, 25103, Note_on_c, 0, 57, 84
1, 25106, Note_on_c, 0, 66, 90
1, 25109, Control_c, 0, 64, 66
1, 25124, Control_c, 0, 64, 74
1, 25125, Note_off_c, 0, 57, 70
1, 25138, Note_off_c, 0, 66, 69
1, 25139, Control_c, 0, 64, 81
1, 25154, Control_c, 0, 64, 87
1, 25168, Control_c, 0, 64, 90
1, 25183, Control_c, 0, 64, 94
1, 25198, Control_c, 0, 64, 97
1, 25213, Control_c, 0, 64, 100
1, 25225, Note_on_c, 0, 74, 90
1, 25228, Note_on_c, 0, 78, 94
1, 25228, Note_on_c, 0, 86, 91
1, 25228, Control_c, 0, 64, 102
1, 25232, Note_on_c, 0, 45, 89
1, 25241, Note_on_c, 0, 38, 66
1, 25243, Control_c, 0, 64, 104
1, 25243, Note_off_c, 0, 74, 70
1, 25245, Note_off_c, 0, 78, 68
1, 25259, Note_on_c, 0, 36, 45
1, 25268, Note_on_c, 0, 82, 13
1, 25273, Control_c, 0, 64, 104
1, 25279, Note_off_c, 0, 86, 59
1, 25284, Note_off_c, 0, 45, 65
1, 25287, Control_c, 0, 64, 105
1, 25287, Note_off_c, 0, 38, 63
1, 25295, Note_off_c, 0, 36, 55
1, 25302, Control_c, 0, 64, 106
1, 25311, Note_off_c, 0, 82, 53
1, 25317, Control_c, 0, 64, 106
1, 25385, Control_c, 0, 64, 107
1, 25386, Note_on_c, 0, 74, 92
1, 25386, Note_on_c, 0, 78, 97
1, 25389, Note_on_c, 0, 45, 102
1, 25389, Note_on_c, 0, 86, 100
1, 25398, Note_on_c, 0, 38, 87
1, 25424, Note_off_c, 0, 74, 67
1, 25431, Note_off_c, 0, 45, 67
1, 25433, Note_off_c, 0, 38, 64
1, 25442, Note_off_c, 0, 78, 58
1, 25454, Note_off_c, 0, 86, 53
1, 25606, Control_c, 0, 64, 106
1, 25621, Control_c, 0, 64, 105
1, 25627, Note_on_c, 0, 78, 67
1, 25633, Note_on_c, 0, 69, 62
1, 25636, Control_c, 0, 64, 103
1, 25650, Control_c, 0, 64, 99
1, 25651, Note_off_c, 0, 69, 67
1, 25665, Control_c, 0, 64, 94
1, 25666, Note_off_c, 0, 78, 59
1, 25680, Control_c, 0, 64, 86
1, 25695, Control_c, 0, 64, 77
1, 25710, Control_c, 0, 64, 66
1, 25724, Control_c, 0, 64, 0
1, 25736, Note_on_c, 0, 86, 67
1, 25744, Note_on_c, 0, 63, 61
1, 25746, Note_on_c, 0, 72, 61
1, 25755, Note_on_c, 0, 75, 53
1, 25763, Note_off_c, 0, 72, 65
1, 25768, Note_off_c, 0, 86, 58
1, 25773, Note_off_c, 0, 63, 56
1, 25775, Note_off_c, 0, 75, 63
1, 25849, Note_on_c, 0, 69, 62
1, 25852, Note_on_c, 0, 78, 67
1, 25881, Note_off_c, 0, 69, 68
1, 25882, Note_off_c, 0, 78, 64
1, 25958, Note_on_c, 0, 84, 59
1, 25960, Note_on_c, 0, 63, 49
1, 25963, Note_on_c, 0, 72, 57
1, 25970, Note_on_c, 0, 75, 35
1, 25981, Note_off_c, 0, 72, 62
1, 25987, Note_off_c, 0, 63, 57
1, 25988, Note_off_c, 0, 84, 59
1, 25994, Note_off_c, 0, 75, 48
1, 26060, Note_on_c, 0, 78, 68
1, 26064, Note_on_c, 0, 69, 62
1, 26089, Note_off_c, 0, 78, 63
1, 26095, Note_off_c, 0, 69, 67
1, 26168, Note_on_c, 0, 86, 70
1, 26180, Note_on_c, 0, 72, 62
1, 26189, Note_on_c, 0, 75, 45
1, 26190, Note_on_c, 0, 63, 47
1, 26197, Note_off_c, 0, 72, 66
1, 26199, Note_off_c, 0, 86, 59
1, 26212, Note_off_c, 0, 75, 54
1, 26216, Note_off_c, 0, 63, 57
1, 26278, Note_on_c, 0, 78, 75
1, 26289, Note_on_c, 0, 69, 44
1, 26313, Note_off_c, 0, 69, 60
1, 26314, Note_off_c, 0, 78, 64
1, 26367, Note_on_c, 0, 63, 59
1, 26373, Note_on_c, 0, 84, 66
1, 26378, Note_on_c, 0, 72, 70
1, 26393, Note_off_c, 0, 63, 67
1, 26400, Note_off_c, 0, 84, 68
1, 26402, Note_off_c, 0, 72, 71
1, 26490, Note_on_c, 0, 67, 81
1, 26492, Note_on_c, 0, 58, 71
1, 26523, Note_off_c, 0, 58, 64
1, 26532, Note_off_c, 0, 67, 64
1, 26595, Note_on_c, 0, 69, 79
1, 26602, Note_on_c, 0, 63, 76
1, 26605, Note_on_c, 0, 60, 70
1, 26620, Note_on_c, 0, 48, 52
1, 26627, Note_off_c, 0, 63, 68
1, 26629, Note_off_c, 0, 60, 66
1, 26653, Note_off_c, 0, 48, 54
1, 26656, Note_off_c, 0, 69, 62
1, 26696, Note_on_c, 0, 67, 81
1, 26749, Note_on_c, 0, 58, 48
1, 26750, Note_off_c, 0, 67, 61
1, 26778, Note_off_c, 0, 58, 59
1, 26799, Note_on_c, 0, 63, 81
1, 26799, Note_on_c, 0, 60, 56
1, 26799, Note_on_c, 0, 69, 81
1, 26823, Note_off_c, 0, 63, 68
1, 26826, Note_on_c, 0, 48, 31
1, 26826, Note_off_c, 0, 60, 62
1, 26846, Note_off_c, 0, 69, 61
1, 26871, Note_off_c, 0, 48, 52
1, 26912, Note_on_c, 0, 57, 78
1, 26917, Note_on_c, 0, 66, 85
1, 26940, Note_off_c, 0, 57, 66
1, 26942, Control_c, 0, 64, 47
1, 26952, Note_off_c, 0, 66, 68
1, 26957, Control_c, 0, 64, 67
1, 26971, Control_c, 0, 64, 76
1, 26986, Control_c, 0, 64, 85
1, 27001, Control_c, 0, 64, 90
1, 27016, Control_c, 0, 64, 94
1, 27018, Note_on_c, 0, 62, 75
1, 27019, Note_on_c, 0, 74, 76
1, 27028, Note_on_c, 0, 54, 68
1, 27031, Control_c, 0, 64, 97
1, 27038, Note_off_c, 0, 62, 65
1, 27043, Note_off_c, 0, 74, 68
1, 27045, Control_c, 0, 64, 100
1, 27047, Note_off_c, 0, 54, 63
1, 27060, Control_c, 0, 64, 102
1, 27075, Control_c, 0, 64, 105
1, 27089, Control_c, 0, 64, 108
1, 27104, Control_c, 0, 64, 112
1, 27119, Control_c, 0, 64, 116
1, 27130, Note_on_c, 0, 78, 102
1, 27133, Note_on_c, 0, 50, 74
1, 27134, Control_c, 0, 64, 121
1, 27149, Control_c, 0, 64, 124
1, 27163, Note_off_c, 0, 50, 66
1, 27163, Note_off_c, 0, 78, 68
1, 27164, Control_c, 0, 64, 127
1, 27178, Control_c, 0, 64, 127
1, 27228, Note_on_c, 0, 38, 73
1, 27228, Note_on_c, 0, 86, 83
1, 27230, Note_on_c, 0, 74, 82
1, 27252, Note_off_c, 0, 38, 66
1, 27265, Note_off_c, 0, 74, 64
1, 27271, Note_off_c, 0, 86, 65
1, 27344, Note_on_c, 0, 78, 85
1, 27365, Note_on_c, 0, 69, 59
1, 27383, Note_off_c, 0, 69, 64
1, 27387, Note_off_c, 0, 78, 61
1, 27401, Control_c, 0, 64, 115
1, 27416, Control_c, 0, 64, 101
1, 27431, Control_c, 0, 64, 89
1, 27446, Control_c, 0, 64, 75
1, 27457, Note_on_c, 0, 86, 77
1, 27461, Control_c, 0, 64, 63
1, 27462, Note_on_c, 0, 72, 76
1, 27467, Note_on_c, 0, 63, 63
1, 27471, Note_on_c, 0, 75, 52
1, 27475, Control_c, 0, 64, 0
1, 27486, Note_off_c, 0, 72, 67
1, 27491, Note_off_c, 0, 75, 62
1, 27501, Note_off_c, 0, 86, 58
1, 27503, Note_off_c, 0, 63, 62
1, 27572, Note_on_c, 0, 78, 71
1, 27583, Note_on_c, 0, 69, 43
1, 27605, Note_off_c, 0, 78, 60
1, 27608, Note_off_c, 0, 69, 58
1, 27682, Note_on_c, 0, 84, 67
1, 27687, Note_on_c, 0, 63, 52
1, 27688, Note_on_c, 0, 75, 49
1, 27693, Note_on_c, 0, 72, 53
1, 27710, Note_off_c, 0, 75, 61
1, 27713, Note_off_c, 0, 72, 61
1, 27713, Note_off_c, 0, 63, 58
1, 27716, Note_off_c, 0, 84, 62
1, 27792, Note_on_c, 0, 78, 70
1, 27796, Note_on_c, 0, 69, 55
1, 27819, Note_off_c, 0, 78, 64
1, 27827, Note_off_c, 0, 69, 62
1, 27898, Note_on_c, 0, 86, 60
1, 27906, Note_on_c, 0, 72, 62
1, 27908, Note_on_c, 0, 63, 47
1, 27912, Note_on_c, 0, 75, 39
1, 27919, Note_off_c, 0, 86, 59
1, 27923, Note_off_c, 0, 72, 65
1, 27935, Note_off_c, 0, 75, 51
1, 27937, Note_off_c, 0, 63, 56
1, 27999, Note_on_c, 0, 78, 71
1, 28012, Note_on_c, 0, 69, 49
1, 28038, Note_off_c, 0, 78, 63
1, 28039, Note_off_c, 0, 69, 58
1, 28095, Note_on_c, 0, 63, 60
1, 28101, Note_on_c, 0, 84, 61
1, 28103, Note_on_c, 0, 72, 69
1, 28120, Note_off_c, 0, 84, 66
1, 28121, Note_off_c, 0, 63, 67
1, 28127, Note_off_c, 0, 72, 71
1, 28212, Note_on_c, 0, 67, 87
1, 28214, Note_on_c, 0, 58, 76
1, 28242, Note_off_c, 0, 58, 64
1, 28258, Note_off_c, 0, 67, 61
1, 28316, Note_on_c, 0, 69, 79
1, 28323, Note_on_c, 0, 63, 81
1, 28327, Note_on_c, 0, 60, 73
1, 28338, Note_on_c, 0, 48, 62
1, 28349, Note_off_c, 0, 63, 66
1, 28353, Note_off_c, 0, 60, 66
1, 28383, Note_off_c, 0, 69, 63
1, 28384, Note_off_c, 0, 48, 63
1, 28433, Note_on_c, 0, 67, 87
1, 28452, Note_on_c, 0, 58, 72
1, 28487, Note_off_c, 0, 67, 62
1, 28529, Note_on_c, 0, 69, 81
1, 28530, Note_on_c, 0, 63, 89
1, 28532, Note_on_c, 0, 60, 72
1, 28542, Note_off_c, 0, 58, 60
1, 28560, Note_off_c, 0, 60, 66
1, 28566, Note_off_c, 0, 63, 62
1, 28584, Note_off_c, 0, 69, 60
1, 28618, Control_c, 0, 64, 49
1, 28633, Control_c, 0, 64, 69
1, 28641, Note_on_c, 0, 66, 91
1, 28642, Note_on_c, 0, 57, 85
1, 28648, Control_c, 0, 64, 80
1, 28662, Note_off_c, 0, 57, 71
1, 28662, Control_c, 0, 64, 92
1, 28677, Control_c, 0, 64, 97
1, 28678, Note_off_c, 0, 66, 68
1, 28692, Control_c, 0, 64, 100
1, 28707, Control_c, 0, 64, 102
1, 28722, Control_c, 0, 64, 105
1, 28736, Control_c, 0, 64, 108
1, 28751, Control_c, 0, 64, 111
1, 28766, Note_on_c, 0, 74, 92
1, 28766, Control_c, 0, 64, 113
1, 28768, Note_on_c, 0, 78, 98
1, 28769, Note_on_c, 0, 45, 92
1, 28769, Note_on_c, 0, 86, 88
1, 28772, Note_on_c, 0, 38, 83
1, 28781, Control_c, 0, 64, 115
1, 28787, Note_off_c, 0, 74, 67
1, 28788, Note_off_c, 0, 78, 61
1, 28796, Control_c, 0, 64, 117
1, 28811, Control_c, 0, 64, 118
1, 28816, Note_off_c, 0, 38, 60
1, 28823, Note_off_c, 0, 45, 62
1, 28827, Note_off_c, 0, 86, 57
1, 28841, Control_c, 0, 64, 118
1, 28856, Control_c, 0, 64, 119
1, 28870, Control_c, 0, 64, 119
1, 28885, Control_c, 0, 64, 120
1, 28900, Control_c, 0, 64, 120
1, 28913, Note_on_c, 0, 45, 108
1, 28915, Control_c, 0, 64, 121
1, 28922, Note_on_c, 0, 74, 93
1, 28924, Note_on_c, 0, 78, 94
1, 28926, Note_on_c, 0, 86, 91
1, 28930, Note_on_c, 0, 38, 71
1, 28930, Control_c, 0, 64, 122
1, 28944, Control_c, 0, 64, 124
1, 28950, Note_off_c, 0, 45, 68
1, 28953, Note_off_c, 0, 74, 67
1, 28956, Note_off_c, 0, 78, 69
1, 28958, Note_off_c, 0, 38, 67
1, 28959, Note_off_c, 0, 86, 68
1, 28959, Control_c, 0, 64, 126
1, 29033, Control_c, 0, 64, 127
1, 29159, Control_c, 0, 64, 123
1, 29174, Control_c, 0, 64, 114
1, 29189, Control_c, 0, 64, 101
1, 29203, Control_c, 0, 64, 83
1, 29207, Note_on_c, 0, 39, 92
1, 29208, Note_on_c, 0, 79, 96
1, 29218, Control_c, 0, 64, 58
1, 29233, Control_c, 0, 64, 0
1, 29238, Note_on_c, 0, 87, 62
1, 29256, Note_off_c, 0, 87, 57
1, 29322, Control_c, 0, 64, 43
1, 29323, Note_on_c, 0, 87, 74
1, 29330, Note_on_c, 0, 91, 76
1, 29337, Control_c, 0, 64, 60
1, 29353, Control_c, 0, 64, 64
1, 29368, Control_c, 0, 64, 67
1, 29370, Note_off_c, 0, 79, 61
1, 29382, Note_off_c, 0, 91, 61
1, 29383, Control_c, 0, 64, 72
1, 29385, Note_off_c, 0, 87, 62
1, 29398, Control_c, 0, 64, 78
1, 29413, Control_c, 0, 64, 84
1, 29428, Control_c, 0, 64, 87
1, 29442, Control_c, 0, 64, 87
1, 29443, Note_on_c, 0, 77, 90
1, 29457, Control_c, 0, 64, 89
1, 29472, Control_c, 0, 64, 90
1, 29486, Control_c, 0, 64, 91
1, 29501, Control_c, 0, 64, 92
1, 29516, Control_c, 0, 64, 93
1, 29529, Note_on_c, 0, 41, 81
1, 29531, Control_c, 0, 64, 93
1, 29537, Note_on_c, 0, 86, 74
1, 29537, Note_on_c, 0, 89, 73
1, 29546, Control_c, 0, 64, 94
1, 29560, Note_off_c, 0, 77, 62
1, 29560, Control_c, 0, 64, 95
1, 29578, Note_off_c, 0, 89, 62
1, 29582, Note_off_c, 0, 86, 64
1, 29600, Note_off_c, 0, 41, 65
1, 29605, Control_c, 0, 64, 94
1, 29620, Control_c, 0, 64, 88
1, 29634, Control_c, 0, 64, 74
1, 29646, Note_on_c, 0, 42, 89
1, 29649, Note_on_c, 0, 75, 88
1, 29649, Control_c, 0, 64, 0
1, 29693, Control_c, 0, 64, 46
1, 29708, Control_c, 0, 64, 68
1, 29723, Control_c, 0, 64, 77
1, 29736, Note_on_c, 0, 84, 60
1, 29738, Control_c, 0, 64, 87
1, 29747, Note_on_c, 0, 87, 77
1, 29753, Control_c, 0, 64, 90
1, 29768, Control_c, 0, 64, 92
1, 29783, Control_c, 0, 64, 95
1, 29783, Note_off_c, 0, 75, 64
1, 29786, Note_off_c, 0, 87, 62
1, 29792, Note_off_c, 0, 84, 64
1, 29798, Control_c, 0, 64, 98
1, 29812, Control_c, 0, 64, 102
1, 29827, Control_c, 0, 64, 105
1, 29842, Control_c, 0, 64, 107
1, 29864, Control_c, 0, 64, 109
1, 29869, Note_on_c, 0, 70, 88
1, 29879, Control_c, 0, 64, 110
1, 29893, Control_c, 0, 64, 111
1, 29908, Control_c, 0, 64, 112
1, 29917, Note_off_c, 0, 42, 61
1, 29923, Control_c, 0, 64, 113
1, 29934, Note_on_c, 0, 43, 77
1, 29938, Control_c, 0, 64, 113
1, 29951, Note_on_c, 0, 79, 67
1, 29965, Note_off_c, 0, 70, 62
1, 29973, Note_on_c, 0, 82, 49
1, 29984, Note_off_c, 0, 43, 59
1, 29987, Note_off_c, 0, 79, 63
1, 29999, Note_off_c, 0, 82, 37
1, 30027, Control_c, 0, 64, 113
1, 30042, Control_c, 0, 64, 111
1, 30057, Control_c, 0, 64, 108
1, 30063, Note_on_c, 0, 44, 75
1, 30069, Note_on_c, 0, 75, 95
1, 30071, Note_on_c, 0, 87, 88
1, 30072, Control_c, 0, 64, 104
1, 30083, Note_on_c, 0, 84, 61
1, 30087, Note_off_c, 0, 75, 74
1, 30087, Control_c, 0, 64, 97
1, 30090, Note_off_c, 0, 87, 68
1, 30100, Note_off_c, 0, 84, 64
1, 30100, Control_c, 0, 64, 87
1, 30115, Control_c, 0, 64, 76
1, 30130, Control_c, 0, 64, 60
1, 30145, Note_off_c, 0, 44, 63
1, 30146, Control_c, 0, 64, 0
1, 30176, Note_on_c, 0, 74, 91
1, 30178, Note_on_c, 0, 46, 77
1, 30180, Note_on_c, 0, 86, 78
1, 30183, Note_on_c, 0, 82, 78
1, 30195, Note_off_c, 0, 74, 69
1, 30202, Note_off_c, 0, 86, 66
1, 30203, Note_off_c, 0, 82, 70
1, 30242, Note_off_c, 0, 46, 63
1, 30270, Note_on_c, 0, 48, 80
1, 30286, Note_on_c, 0, 72, 94
1, 30367, Note_on_c, 0, 50, 87
1, 30373, Note_on_c, 0, 80, 76
1, 30376, Note_on_c, 0, 84, 72
1, 30376, Note_off_c, 0, 48, 63
1, 30395, Note_off_c, 0, 72, 65
1, 30406, Note_off_c, 0, 50, 66
1, 30412, Note_off_c, 0, 84, 63
1, 30431, Note_off_c, 0, 80, 64
1, 30456, Control_c, 0, 64, 31
1, 30468, Note_off_c, 0, 39, 57
1, 30471, Control_c, 0, 64, 70
1, 30486, Control_c, 0, 64, 78
1, 30487, Note_on_c, 0, 51, 95
1, 30491, Note_on_c, 0, 70, 96
1, 30501, Control_c, 0, 64, 87
1, 30516, Control_c, 0, 64, 94
1, 30525, Note_off_c, 0, 51, 67
1, 30531, Control_c, 0, 64, 99
1, 30546, Control_c, 0, 64, 102
1, 30546, Note_off_c, 0, 70, 58
1, 30561, Control_c, 0, 64, 106
1, 30576, Control_c, 0, 64, 108
1, 30578, Note_on_c, 0, 79, 46
1, 30589, Note_on_c, 0, 70, 64
1, 30590, Control_c, 0, 64, 111
1, 30595, Note_on_c, 0, 82, 75
1, 30612, Control_c, 0, 64, 112
1, 30622, Note_off_c, 0, 70, 63
1, 30641, Control_c, 0, 64, 113
1, 30648, Note_off_c, 0, 82, 64
1, 30649, Note_off_c, 0, 79, 63
1, 30656, Control_c, 0, 64, 114
1, 30671, Control_c, 0, 64, 115
1, 30686, Control_c, 0, 64, 116
1, 30716, Control_c, 0, 64, 116
1, 30718, Note_on_c, 0, 63, 94
1, 30723, Note_on_c, 0, 67, 93
1, 30731, Control_c, 0, 64, 117
1, 30746, Control_c, 0, 64, 117
1, 30747, Note_off_c, 0, 63, 67
1, 30799, Note_off_c, 0, 67, 46
1, 30805, Control_c, 0, 64, 118
1, 30819, Note_on_c, 0, 79, 79
1, 30824, Note_on_c, 0, 75, 78
1, 30834, Control_c, 0, 64, 118
1, 30860, Note_off_c, 0, 75, 60
1, 30871, Note_off_c, 0, 79, 63
1, 30894, Control_c, 0, 64, 119
1, 30939, Control_c, 0, 64, 117
1, 30954, Control_c, 0, 64, 106
1, 30966, Note_on_c, 0, 39, 95
1, 30969, Control_c, 0, 64, 87
1, 30975, Note_on_c, 0, 79, 92
1, 30984, Control_c, 0, 64, 46
1, 30984, Note_on_c, 0, 81, 72
1, 30999, Control_c, 0, 64, 0
1, 31007, Note_off_c, 0, 81, 52
1, 31043, Control_c, 0, 64, 53
1, 31058, Control_c, 0, 64, 69
1, 31072, Control_c, 0, 64, 75
1, 31076, Note_on_c, 0, 91, 76
1, 31080, Note_on_c, 0, 87, 78
1, 31087, Control_c, 0, 64, 82
1, 31102, Control_c, 0, 64, 85
1, 31117, Control_c, 0, 64, 87
1, 31118, Note_off_c, 0, 79, 60
1, 31129, Note_off_c, 0, 91, 62
1, 31132, Control_c, 0, 64, 90
1, 31136, Note_off_c, 0, 87, 62
1, 31146, Control_c, 0, 64, 92
1, 31161, Control_c, 0, 64, 94
1, 31176, Control_c, 0, 64, 96
1, 31191, Note_on_c, 0, 77, 89
1, 31191, Control_c, 0, 64, 97
1, 31206, Control_c, 0, 64, 99
1, 31220, Control_c, 0, 64, 99
1, 31235, Control_c, 0, 64, 100
1, 31252, Note_on_c, 0, 41, 82
1, 31264, Control_c, 0, 64, 100
1, 31278, Note_on_c, 0, 86, 72
1, 31279, Note_on_c, 0, 89, 69
1, 31279, Control_c, 0, 64, 101
1, 31294, Control_c, 0, 64, 102
1, 31296, Note_off_c, 0, 77, 61
1, 31308, Note_off_c, 0, 89, 63
1, 31309, Control_c, 0, 64, 102
1, 31324, Note_off_c, 0, 86, 62
1, 31333, Note_off_c, 0, 41, 65
1, 31376, Control_c, 0, 64, 101
1, 31389, Note_on_c, 0, 42, 90
1, 31391, Control_c, 0, 64, 90
1, 31399, Note_on_c, 0, 75, 93
1, 31406, Control_c, 0, 64, 72
1, 31420, Control_c, 0, 64, 0
1, 31464, Control_c, 0, 64, 60
1, 31467, Note_off_c, 0, 75, 0
1, 31479, Control_c, 0, 64, 73
1, 31485, Note_on_c, 0, 84, 60
1, 31492, Note_on_c, 0, 75, 48
1, 31494, Control_c, 0, 64, 83
1, 31497, Note_on_c, 0, 87, 77
1, 31509, Control_c, 0, 64, 89
1, 31524, Control_c, 0, 64, 90
1, 31538, Control_c, 0, 64, 91
1, 31539, Note_off_c, 0, 75, 66
1, 31542, Note_off_c, 0, 87, 63
1, 31545, Note_off_c, 0, 84, 64
1, 31553, Control_c, 0, 64, 93
1, 31568, Control_c, 0, 64, 96
1, 31583, Control_c, 0, 64, 99
1, 31598, Control_c, 0, 64, 101
1, 31613, Control_c, 0, 64, 102
1, 31619, Note_on_c, 0, 70, 94
1, 31628, Control_c, 0, 64, 104
1, 31643, Control_c, 0, 64, 105
1, 31649, Note_off_c, 0, 42, 61
1, 31657, Control_c, 0, 64, 106
1, 31672, Control_c, 0, 64, 106
1, 31678, Note_on_c, 0, 43, 72
1, 31687, Control_c, 0, 64, 107
1, 31694, Note_on_c, 0, 79, 65
1, 31702, Control_c, 0, 64, 108
1, 31708, Note_on_c, 0, 82, 77
1, 31717, Control_c, 0, 64, 109
1, 31724, Note_off_c, 0, 70, 59
1, 31725, Note_off_c, 0, 43, 60
1, 31744, Note_off_c, 0, 79, 63
1, 31755, Note_off_c, 0, 82, 66
1, 31807, Control_c, 0, 64, 109
1, 31807, Note_on_c, 0, 44, 67
1, 31822, Note_on_c, 0, 75, 98
1, 31822, Control_c, 0, 64, 104
1, 31825, Note_on_c, 0, 87, 85
1, 31828, Note_on_c, 0, 84, 81
1, 31836, Control_c, 0, 64, 97
1, 31845, Note_off_c, 0, 75, 66
1, 31847, Note_off_c, 0, 84, 73
1, 31848, Note_off_c, 0, 87, 60
1, 31851, Control_c, 0, 64, 85
1, 31866, Control_c, 0, 64, 73
1, 31880, Control_c, 0, 64, 54
1, 31895, Control_c, 0, 64, 0
1, 31918, Note_off_c, 0, 44, 50
1, 31927, Note_on_c, 0, 46, 70
1, 31932, Note_on_c, 0, 74, 94
1, 31937, Note_on_c, 0, 86, 79
1, 31945, Note_on_c, 0, 82, 72
1, 31963, Note_off_c, 0, 86, 59
1, 31967, Note_off_c, 0, 82, 68
1, 31970, Note_off_c, 0, 74, 65
1, 32000, Note_off_c, 0, 46, 63
1, 32024, Note_on_c, 0, 48, 67
1, 32044, Note_on_c, 0, 72, 94
1, 32132, Note_on_c, 0, 50, 79
1, 32135, Note_on_c, 0, 80, 65
1, 32138, Note_off_c, 0, 48, 62
1, 32141, Note_on_c, 0, 84, 80
1, 32167, Note_off_c, 0, 72, 64
1, 32170, Note_off_c, 0, 50, 65
1, 32174, Note_off_c, 0, 39, 62
1, 32179, Note_off_c, 0, 84, 65
1, 32190, Note_off_c, 0, 80, 65
1, 32258, Control_c, 0, 64, 40
1, 32269, Note_on_c, 0, 51, 85
1, 32270, Note_on_c, 0, 82, 86
1, 32273, Control_c, 0, 64, 66
1, 32275, Note_on_c, 0, 79, 76
1, 32287, Control_c, 0, 64, 73
1, 32288, Note_on_c, 0, 39, 59
1, 32290, Note_off_c, 0, 51, 70
1, 32302, Control_c, 0, 64, 79
1, 32307, Note_off_c, 0, 79, 58
1, 32316, Note_off_c, 0, 39, 53
1, 32317, Control_c, 0, 64, 82
1, 32321, Note_off_c, 0, 82, 63
1, 32332, Control_c, 0, 64, 84
1, 32347, Control_c, 0, 64, 85
1, 32361, Control_c, 0, 64, 85
1, 32376, Control_c, 0, 64, 86
1, 32391, Control_c, 0, 64, 86
1, 32398, Note_on_c, 0, 70, 76
1, 32432, Note_off_c, 0, 70, 61
1, 32495, Control_c, 0, 64, 86
1, 32510, Control_c, 0, 64, 85
1, 32525, Control_c, 0, 64, 80
1, 32531, Note_on_c, 0, 79, 69
1, 32534, Note_on_c, 0, 82, 66
1, 32540, Control_c, 0, 64, 72
1, 32543, Note_on_c, 0, 63, 57
1, 32555, Control_c, 0, 64, 55
1, 32559, Note_on_c, 0, 70, 32
1, 32564, Note_off_c, 0, 63, 63
1, 32570, Control_c, 0, 64, 0
1, 32572, Note_off_c, 0, 82, 59
1, 32579, Note_off_c, 0, 79, 61
1, 32589, Note_off_c, 0, 70, 34
1, 32669, Note_on_c, 0, 79, 57
1, 32670, Note_on_c, 0, 82, 66
1, 32695, Note_off_c, 0, 79, 59
1, 32704, Note_off_c, 0, 82, 63
1, 32784, Note_on_c, 0, 51, 63
1, 32785, Note_on_c, 0, 81, 80
1, 32791, Note_on_c, 0, 79, 64
1, 32799, Note_on_c, 0, 63, 44
1, 32812, Note_off_c, 0, 51, 65
1, 32814, Note_off_c, 0, 81, 58
1, 32819, Note_off_c, 0, 79, 66
1, 32826, Note_off_c, 0, 63, 52
1, 32912, Note_on_c, 0, 67, 62
1, 32939, Note_off_c, 0, 67, 64
1, 33026, Note_on_c, 0, 79, 71
1, 33027, Note_on_c, 0, 63, 59
1, 33031, Note_on_c, 0, 75, 69
1, 33047, Note_off_c, 0, 63, 65
1, 33059, Note_off_c, 0, 75, 67
1, 33062, Note_off_c, 0, 79, 61
1, 33132, Note_on_c, 0, 67, 70
1, 33157, Note_off_c, 0, 67, 68
1, 33232, Note_on_c, 0, 81, 81
1, 33241, Note_on_c, 0, 51, 58
1, 33244, Note_on_c, 0, 63, 55
1, 33248, Note_on_c, 0, 79, 59
1, 33264, Note_off_c, 0, 63, 64
1, 33271, Note_off_c, 0, 79, 54
1, 33272, Note_off_c, 0, 51, 64
1, 33276, Note_off_c, 0, 81, 60
1, 33333, Note_on_c, 0, 67, 61
1, 33352, Note_off_c, 0, 67, 61
1, 33436, Note_on_c, 0, 82, 67
1, 33438, Note_on_c, 0, 79, 68
1, 33441, Note_on_c, 0, 75, 65
1, 33461, Note_on_c, 0, 63, 45
1, 33467, Note_off_c, 0, 75, 69
1, 33467, Note_off_c, 0, 82, 62
1, 33471, Note_off_c, 0, 79, 61
1, 33485, Note_off_c, 0, 63, 53
1, 33539, Note_on_c, 0, 82, 70
1, 33549, Note_on_c, 0, 79, 60
1, 33568, Note_off_c, 0, 79, 63
1, 33583, Note_off_c, 0, 82, 65
1, 33664, Note_on_c, 0, 51, 54
1, 33667, Note_on_c, 0, 81, 70
1, 33670, Note_on_c, 0, 63, 41
1, 33672, Note_on_c, 0, 79, 58
1, 33693, Note_off_c, 0, 81, 67
1, 33696, Note_off_c, 0, 63, 57
1, 33697, Note_off_c, 0, 51, 64
1, 33700, Note_off_c, 0, 79, 61
1, 33774, Note_on_c, 0, 67, 59
1, 33804, Note_off_c, 0, 67, 64
1, 33878, Note_on_c, 0, 63, 50
1, 33880, Note_on_c, 0, 79, 63
1, 33884, Note_on_c, 0, 75, 56
1, 33899, Note_off_c, 0, 63, 62
1, 33918, Note_off_c, 0, 75, 66
1, 33928, Note_off_c, 0, 79, 62
1, 33979, Note_on_c, 0, 67, 60
1, 34004, Note_off_c, 0, 67, 64
1, 34083, Note_on_c, 0, 81, 66
1, 34084, Note_on_c, 0, 51, 57
1, 34088, Note_on_c, 0, 63, 55
1, 34102, Note_on_c, 0, 79, 44
1, 34111, Note_off_c, 0, 63, 61
1, 34119, Note_off_c, 0, 51, 63
1, 34123, Note_off_c, 0, 81, 56
1, 34129, Note_off_c, 0, 79, 53
1, 34179, Note_on_c, 0, 67, 66
1, 34208, Note_off_c, 0, 67, 65
1, 34287, Note_on_c, 0, 63, 75
1, 34293, Note_on_c, 0, 51, 63
1, 34314, Note_off_c, 0, 63, 66
1, 34326, Note_off_c, 0, 51, 62
1, 34385, Note_on_c, 0, 69, 66
1, 34397, Note_on_c, 0, 57, 61
1, 34404, Note_on_c, 0, 67, 45
1, 34426, Note_off_c, 0, 57, 64
1, 34430, Note_off_c, 0, 67, 52
1, 34431, Note_off_c, 0, 69, 60
1, 34493, Note_on_c, 0, 62, 86
1, 34500, Note_on_c, 0, 50, 70
1, 34523, Note_off_c, 0, 62, 63
1, 34527, Note_off_c, 0, 50, 65
1, 34583, Note_on_c, 0, 57, 59
1, 34588, Note_on_c, 0, 67, 54
1, 34592, Note_on_c, 0, 69, 69
1, 34603, Note_off_c, 0, 57, 59
1, 34624, Note_off_c, 0, 67, 64
1, 34631, Note_off_c, 0, 69, 66
1, 34698, Note_on_c, 0, 61, 92
1, 34707, Note_on_c, 0, 49, 79
1, 34739, Note_off_c, 0, 61, 61
1, 34753, Note_off_c, 0, 49, 57
1, 34783, Note_on_c, 0, 69, 79
1, 34788, Note_on_c, 0, 81, 80
1, 34799, Note_on_c, 0, 79, 62
1, 34802, Note_off_c, 0, 69, 73
1, 34815, Note_off_c, 0, 81, 57
1, 34817, Note_off_c, 0, 79, 61
1, 34906, Note_on_c, 0, 60, 92
1, 34908, Note_on_c, 0, 48, 86
1, 34935, Control_c, 0, 64, 56
1, 34946, Note_off_c, 0, 60, 66
1, 34948, Note_off_c, 0, 48, 67
1, 34950, Control_c, 0, 64, 67
1, 34965, Control_c, 0, 64, 73
1, 34979, Control_c, 0, 64, 78
1, 34994, Control_c, 0, 64, 82
1, 35004, Note_on_c, 0, 79, 63
1, 35006, Note_on_c, 0, 69, 83
1, 35006, Note_on_c, 0, 81, 77
1, 35009, Control_c, 0, 64, 86
1, 35024, Control_c, 0, 64, 89
1, 35026, Note_off_c, 0, 81, 69
1, 35036, Note_off_c, 0, 79, 64
1, 35038, Control_c, 0, 64, 91
1, 35044, Note_off_c, 0, 69, 56
1, 35053, Control_c, 0, 64, 93
1, 35068, Control_c, 0, 64, 94
1, 35083, Control_c, 0, 64, 94
1, 35119, Note_on_c, 0, 63, 99
1, 35130, Note_on_c, 0, 51, 81
1, 35159, Note_off_c, 0, 63, 67
1, 35165, Control_c, 0, 64, 93
1, 35179, Control_c, 0, 64, 91
1, 35194, Control_c, 0, 64, 85
1, 35198, Note_off_c, 0, 51, 54
1, 35209, Control_c, 0, 64, 75
1, 35212, Note_on_c, 0, 57, 82
1, 35212, Note_on_c, 0, 69, 77
1, 35220, Note_on_c, 0, 67, 72
1, 35224, Control_c, 0, 64, 62
1, 35238, Control_c, 0, 64, 0
1, 35256, Note_off_c, 0, 67, 61
1, 35262, Note_off_c, 0, 57, 61
1, 35274, Note_off_c, 0, 69, 64
1, 35328, Note_on_c, 0, 62, 107
1, 35339, Note_on_c, 0, 50, 88
1, 35381, Note_off_c, 0, 62, 54
1, 35398, Note_off_c, 0, 50, 62
1, 35399, Note_on_c, 0, 57, 72
1, 35408, Note_on_c, 0, 69, 73
1, 35422, Note_on_c, 0, 67, 64
1, 35424, Note_off_c, 0, 57, 68
1, 35449, Note_off_c, 0, 69, 66
1, 35449, Note_off_c, 0, 67, 65
1, 35525, Note_on_c, 0, 60, 103
1, 35533, Note_on_c, 0, 48, 91
1, 35565, Note_off_c, 0, 60, 66
1, 35575, Note_off_c, 0, 48, 65
1, 35605, Note_on_c, 0, 78, 79
1, 35608, Note_on_c, 0, 66, 84
1, 35612, Note_on_c, 0, 74, 70
1, 35634, Note_off_c, 0, 66, 65
1, 35658, Note_off_c, 0, 74, 64
1, 35666, Note_off_c, 0, 78, 64
1, 35724, Note_on_c, 0, 74, 87
1, 35725, Note_on_c, 0, 67, 96
1, 35733, Note_on_c, 0, 79, 85
1, 35736, Note_on_c, 0, 58, 86
1, 35743, Control_c, 0, 64, 56
1, 35747, Note_on_c, 0, 46, 75
1, 35756, Note_off_c, 0, 67, 64
1, 35758, Control_c, 0, 64, 72
1, 35759, Note_off_c, 0, 74, 68
1, 35764, Note_off_c, 0, 58, 67
1, 35772, Note_off_c, 0, 79, 61
1, 35773, Control_c, 0, 64, 80
1, 35777, Note_off_c, 0, 46, 64
1, 35788, Control_c, 0, 64, 83
1, 35802, Control_c, 0, 64, 84
1, 35817, Control_c, 0, 64, 88
1, 35832, Control_c, 0, 64, 91
1, 35844, Note_on_c, 0, 55, 76
1, 35847, Note_on_c, 0, 82, 79
1, 35847, Control_c, 0, 64, 94
1, 35849, Note_on_c, 0, 70, 81
1, 35857, Note_on_c, 0, 74, 74
1, 35865, Note_on_c, 0, 43, 53
1, 35869, Control_c, 0, 64, 95
1, 35875, Note_off_c, 0, 55, 68
1, 35878, Note_off_c, 0, 70, 71
1, 35880, Note_off_c, 0, 74, 71
1, 35895, Note_off_c, 0, 43, 53
1, 35896, Note_off_c, 0, 82, 50
1, 35914, Control_c, 0, 64, 95
1, 35924, Poly_aftertouch_c, 0, 45, 127
1, 35929, Control_c, 0, 64, 92
1, 35943, Control_c, 0, 64, 86
1, 35958, Control_c, 0, 64, 76
1, 35959, Poly_aftertouch_c, 0, 45, 0
1, 35973, Control_c, 0, 64, 58
1, 35974, Note_on_c, 0, 70, 78
1, 35980, Note_on_c, 0, 79, 69
1, 35983, Note_on_c, 0, 63, 69
1, 35988, Control_c, 0, 64, 0
1, 35990, Note_on_c, 0, 82, 65
1, 35997, Note_off_c, 0, 70, 67
1, 36002, Note_off_c, 0, 63, 67
1, 36012, Note_off_c, 0, 82, 66
1, 36025, Note_off_c, 0, 79, 60
1, 36082, Note_on_c, 0, 82, 71
1, 36089, Note_on_c, 0, 79, 62
1, 36090, Note_on_c, 0, 70, 65
1, 36110, Note_off_c, 0, 70, 66
1, 36120, Note_off_c, 0, 79, 64
1, 36126, Note_off_c, 0, 82, 64
1, 36201, Note_on_c, 0, 51, 63
1, 36203, Note_on_c, 0, 81, 80
1, 36204, Note_on_c, 0, 63, 65
1, 36211, Note_on_c, 0, 79, 68
1, 36230, Note_off_c, 0, 51, 64
1, 36232, Note_off_c, 0, 63, 67
1, 36236, Note_off_c, 0, 79, 58
1, 36239, Note_off_c, 0, 81, 61
1, 36316, Note_on_c, 0, 67, 58
1, 36335, Note_off_c, 0, 67, 62
1, 36418, Note_on_c, 0, 63, 57
1, 36419, Note_on_c, 0, 79, 62
1, 36423, Note_on_c, 0, 75, 63
1, 36446, Note_off_c, 0, 63, 64
1, 36451, Note_off_c, 0, 75, 69
1, 36464, Note_off_c, 0, 79, 64
1, 36522, Note_on_c, 0, 67, 63
1, 36551, Note_off_c, 0, 67, 65
1, 36621, Note_on_c, 0, 81, 76
1, 36632, Note_on_c, 0, 51, 58
1, 36632, Note_on_c, 0, 63, 58
1, 36640, Note_on_c, 0, 79, 52
1, 36658, Note_off_c, 0, 63, 65
1, 36663, Note_off_c, 0, 51, 64
1, 36664, Note_off_c, 0, 79, 54
1, 36669, Note_off_c, 0, 81, 59
1, 36721, Note_on_c, 0, 67, 63
1, 36740, Note_off_c, 0, 67, 62
1, 36819, Note_on_c, 0, 82, 65
1, 36833, Note_on_c, 0, 79, 52
1, 36838, Note_on_c, 0, 63, 54
1, 36854, Note_on_c, 0, 75, 25
1, 36857, Note_off_c, 0, 79, 56
1, 36859, Note_off_c, 0, 82, 60
1, 36863, Note_off_c, 0, 63, 64
1, 36880, Note_off_c, 0, 75, 33
1, 36928, Note_on_c, 0, 82, 65
1, 36931, Note_on_c, 0, 79, 66
1, 36958, Note_off_c, 0, 79, 67
1, 36974, Note_off_c, 0, 82, 64
1, 37056, Note_on_c, 0, 81, 67
1, 37062, Control_c, 0, 64, 58
1, 37068, Note_on_c, 0, 51, 51
1, 37076, Control_c, 0, 64, 64
1, 37077, Note_on_c, 0, 79, 47
1, 37091, Control_c, 0, 64, 66
1, 37104, Note_off_c, 0, 79, 55
1, 37106, Control_c, 0, 64, 69
1, 37107, Note_off_c, 0, 81, 59
1, 37108, Note_off_c, 0, 51, 61
1, 37121, Poly_aftertouch_c, 0, 63, 127
1, 37121, Control_c, 0, 64, 72
1, 37136, Control_c, 0, 64, 75
1, 37150, Control_c, 0, 64, 78
1, 37156, Poly_aftertouch_c, 0, 63, 0
1, 37165, Control_c, 0, 64, 79
1, 37175, Note_on_c, 0, 67, 51
1, 37180, Control_c, 0, 64, 80
1, 37199, Note_off_c, 0, 67, 57
1, 37224, Control_c, 0, 64, 81
1, 37272, Note_on_c, 0, 63, 60
1, 37274, Note_on_c, 0, 79, 61
1, 37282, Note_on_c, 0, 75, 51
1, 37298, Control_c, 0, 64, 80
1, 37303, Note_off_c, 0, 75, 61
1, 37305, Note_off_c, 0, 63, 66
1, 37308, Note_off_c, 0, 79, 46
1, 37313, Control_c, 0, 64, 78
1, 37329, Control_c, 0, 64, 74
1, 37351, Control_c, 0, 64, 67
1, 37366, Control_c, 0, 64, 38
1, 37370, Note_on_c, 0, 67, 60
1, 37381, Control_c, 0, 64, 0
1, 37403, Note_off_c, 0, 67, 64
1, 37488, Note_on_c, 0, 81, 70
1, 37495, Note_on_c, 0, 63, 72
1, 37496, Note_on_c, 0, 79, 62
1, 37497, Note_on_c, 0, 51, 68
1, 37522, Note_off_c, 0, 63, 67
1, 37531, Note_off_c, 0, 51, 62
1, 37538, Note_off_c, 0, 81, 59
1, 37540, Note_off_c, 0, 79, 51
1, 37587, Note_on_c, 0, 67, 64
1, 37616, Note_off_c, 0, 67, 65
1, 37694, Note_on_c, 0, 63, 80
1, 37703, Note_on_c, 0, 51, 71
1, 37732, Note_off_c, 0, 63, 63
1, 37740, Note_off_c, 0, 51, 61
1, 37793, Note_on_c, 0, 69, 65
1, 37796, Note_on_c, 0, 67, 62
1, 37801, Note_on_c, 0, 57, 58
1, 37825, Note_off_c, 0, 57, 60
1, 37827, Note_off_c, 0, 67, 65
1, 37834, Note_off_c, 0, 69, 62
1, 37897, Note_on_c, 0, 62, 90
1, 37906, Note_on_c, 0, 50, 79
1, 37933, Note_off_c, 0, 50, 66
1, 37935, Note_off_c, 0, 62, 60
1, 37995, Note_on_c, 0, 57, 73
1, 38000, Note_on_c, 0, 67, 69
1, 38007, Note_on_c, 0, 69, 69
1, 38020, Note_off_c, 0, 57, 65
1, 38028, Note_off_c, 0, 67, 67
1, 38038, Note_off_c, 0, 69, 66
1, 38114, Note_on_c, 0, 61, 92
1, 38126, Note_on_c, 0, 49, 79
1, 38155, Note_off_c, 0, 61, 61
1, 38171, Note_off_c, 0, 49, 63
1, 38208, Note_on_c, 0, 69, 79
1, 38211, Note_on_c, 0, 81, 80
1, 38226, Note_on_c, 0, 79, 57
1, 38231, Note_off_c, 0, 69, 71
1, 38245, Note_off_c, 0, 81, 61
1, 38246, Note_off_c, 0, 79, 58
1, 38324, Note_on_c, 0, 60, 97
1, 38329, Note_on_c, 0, 48, 86
1, 38352, Control_c, 0, 64, 62
1, 38367, Note_off_c, 0, 60, 65
1, 38367, Control_c, 0, 64, 67
1, 38371, Note_off_c, 0, 48, 65
1, 38382, Control_c, 0, 64, 70
1, 38396, Control_c, 0, 64, 74
1, 38411, Control_c, 0, 64, 77
1, 38418, Note_on_c, 0, 79, 43
1, 38426, Note_on_c, 0, 81, 75
1, 38426, Control_c, 0, 64, 80
1, 38427, Note_on_c, 0, 69, 81
1, 38441, Control_c, 0, 64, 82
1, 38451, Note_off_c, 0, 81, 64
1, 38455, Control_c, 0, 64, 82
1, 38463, Note_off_c, 0, 79, 62
1, 38469, Note_off_c, 0, 69, 58
1, 38470, Control_c, 0, 64, 83
1, 38485, Control_c, 0, 64, 84
1, 38500, Control_c, 0, 64, 84
1, 38531, Note_on_c, 0, 63, 95
1, 38541, Note_on_c, 0, 51, 85
1, 38570, Note_off_c, 0, 63, 67
1, 38573, Control_c, 0, 64, 83
1, 38588, Control_c, 0, 64, 80
1, 38603, Control_c, 0, 64, 73
1, 38607, Note_off_c, 0, 51, 57
1, 38618, Control_c, 0, 64, 63
1, 38633, Control_c, 0, 64, 0
1, 38635, Note_on_c, 0, 57, 81
1, 38635, Note_on_c, 0, 69, 79
1, 38639, Note_on_c, 0, 67, 73
1, 38673, Note_off_c, 0, 57, 61
1, 38678, Note_off_c, 0, 67, 60
1, 38685, Note_off_c, 0, 69, 62
1, 38752, Note_on_c, 0, 62, 104
1, 38761, Note_on_c, 0, 50, 88
1, 38804, Note_off_c, 0, 62, 55
1, 38815, Note_on_c, 0, 57, 74
1, 38826, Note_off_c, 0, 50, 61
1, 38828, Note_on_c, 0, 69, 70
1, 38831, Note_on_c, 0, 67, 60
1, 38842, Note_off_c, 0, 57, 68
1, 38871, Note_off_c, 0, 67, 63
1, 38878, Note_off_c, 0, 69, 65
1, 38955, Note_on_c, 0, 60, 98
1, 38963, Note_on_c, 0, 48, 94
1, 38994, Note_off_c, 0, 60, 66
1, 39006, Note_off_c, 0, 48, 65
1, 39044, Note_on_c, 0, 78, 78
1, 39045, Note_on_c, 0, 74, 66
1, 39046, Note_on_c, 0, 66, 82
1, 39075, Note_off_c, 0, 66, 64
1, 39098, Note_off_c, 0, 74, 63
1, 39104, Note_off_c, 0, 78, 64
1, 39146, Control_c, 0, 64, 59
1, 39157, Note_on_c, 0, 67, 91
1, 39157, Note_on_c, 0, 74, 79
1, 39161, Control_c, 0, 64, 70
1, 39165, Note_on_c, 0, 58, 83
1, 39171, Note_on_c, 0, 46, 80
1, 39171, Note_on_c, 0, 79, 83
1, 39176, Control_c, 0, 64, 77
1, 39183, Note_off_c, 0, 67, 63
1, 39189, Note_off_c, 0, 58, 71
1, 39190, Control_c, 0, 64, 82
1, 39196, Note_off_c, 0, 74, 64
1, 39199, Note_off_c, 0, 79, 62
1, 39203, Note_off_c, 0, 46, 65
1, 39205, Control_c, 0, 64, 84
1, 39220, Control_c, 0, 64, 86
1, 39235, Control_c, 0, 64, 89
1, 39250, Control_c, 0, 64, 92
1, 39265, Control_c, 0, 64, 96
1, 39274, Note_on_c, 0, 70, 90
1, 39274, Note_on_c, 0, 82, 88
1, 39275, Note_on_c, 0, 55, 81
1, 39279, Control_c, 0, 64, 98
1, 39284, Note_on_c, 0, 43, 74
1, 39285, Note_on_c, 0, 74, 58
1, 39292, Note_off_c, 0, 70, 72
1, 39294, Control_c, 0, 64, 99
1, 39298, Note_off_c, 0, 55, 70
1, 39303, Note_off_c, 0, 74, 68
1, 39308, Note_off_c, 0, 82, 59
1, 39309, Control_c, 0, 64, 100
1, 39313, Note_on_c, 0, 80, 27
1, 39313, Note_off_c, 0, 43, 64
1, 39324, Control_c, 0, 64, 101
1, 39339, Control_c, 0, 64, 103
1, 39348, Note_off_c, 0, 80, 37
1, 39353, Control_c, 0, 64, 104
1, 39368, Control_c, 0, 64, 104
1, 39380, Note_on_c, 0, 54, 92
1, 39381, Note_on_c, 0, 85, 98
1, 39382, Note_on_c, 0, 75, 98
1, 39386, Note_on_c, 0, 42, 84
1, 39396, Note_on_c, 0, 87, 63
1, 39401, Note_off_c, 0, 54, 68
1, 39405, Note_off_c, 0, 75, 67
1, 39412, Control_c, 0, 64, 105
1, 39414, Note_off_c, 0, 42, 66
1, 39414, Note_off_c, 0, 87, 62
1, 39419, Note_off_c, 0, 85, 65
1, 39489, Note_on_c, 0, 53, 90
1, 39490, Note_on_c, 0, 76, 83
1, 39491, Note_on_c, 0, 77, 78
1, 39491, Note_on_c, 0, 88, 71
1, 39495, Note_on_c, 0, 41, 88
1, 39512, Note_off_c, 0, 77, 69
1, 39514, Note_off_c, 0, 76, 68
1, 39515, Note_off_c, 0, 88, 69
1, 39516, Control_c, 0, 64, 104
1, 39525, Note_off_c, 0, 53, 64
1, 39527, Note_off_c, 0, 41, 68
1, 39531, Control_c, 0, 64, 101
1, 39545, Control_c, 0, 64, 96
1, 39560, Control_c, 0, 64, 87
1, 39575, Control_c, 0, 64, 74
1, 39590, Control_c, 0, 64, 10
1, 39591, Poly_aftertouch_c, 0, 84, 0
1, 39612, Control_c, 0, 64, 0
1, 39627, Note_on_c, 0, 78, 98
1, 39634, Note_on_c, 0, 51, 98
1, 39638, Note_on_c, 0, 39, 89
1, 39701, Control_c, 0, 64, 52
1, 39716, Control_c, 0, 64, 64
1, 39732, Control_c, 0, 64, 66
1, 39740, Note_on_c, 0, 87, 77
1, 39740, Note_on_c, 0, 90, 80
1, 39747, Control_c, 0, 64, 67
1, 39762, Control_c, 0, 64, 70
1, 39763, Note_off_c, 0, 78, 61
1, 39776, Control_c, 0, 64, 73
1, 39784, Note_off_c, 0, 87, 58
1, 39791, Control_c, 0, 64, 78
1, 39798, Note_off_c, 0, 90, 64
1, 39806, Control_c, 0, 64, 80
1, 39847, Note_on_c, 0, 77, 94
1, 39850, Control_c, 0, 64, 80
1, 39865, Control_c, 0, 64, 81
1, 39880, Control_c, 0, 64, 81
1, 39894, Control_c, 0, 64, 82
1, 39934, Note_on_c, 0, 85, 76
1, 39936, Note_on_c, 0, 41, 77
1, 39936, Note_on_c, 0, 89, 73
1, 39950, Note_off_c, 0, 51, 59
1, 39954, Control_c, 0, 64, 82
1, 39957, Note_off_c, 0, 77, 62
1, 39971, Note_off_c, 0, 89, 60
1, 39995, Note_off_c, 0, 85, 65
1, 39998, Control_c, 0, 64, 82
1, 40001, Note_off_c, 0, 41, 66
1, 40013, Control_c, 0, 64, 78
1, 40016, Note_off_c, 0, 39, 56
1, 40028, Control_c, 0, 64, 67
1, 40043, Control_c, 0, 64, 0
1, 40047, Note_on_c, 0, 39, 54
1, 40055, Note_on_c, 0, 42, 88
1, 40058, Note_on_c, 0, 75, 93
1, 40117, Control_c, 0, 64, 59
1, 40132, Control_c, 0, 64, 67
1, 40143, Note_on_c, 0, 84, 51
1, 40147, Control_c, 0, 64, 72
1, 40160, Note_on_c, 0, 87, 78
1, 40162, Control_c, 0, 64, 77
1, 40176, Control_c, 0, 64, 81
1, 40186, Note_off_c, 0, 75, 63
1, 40191, Control_c, 0, 64, 83
1, 40206, Control_c, 0, 64, 83
1, 40213, Note_off_c, 0, 84, 65
1, 40213, Note_off_c, 0, 87, 62
1, 40220, Control_c, 0, 64, 84
1, 40235, Control_c, 0, 64, 85
1, 40250, Control_c, 0, 64, 87
1, 40265, Control_c, 0, 64, 89
1, 40269, Note_on_c, 0, 73, 91
1, 40280, Control_c, 0, 64, 90
1, 40309, Control_c, 0, 64, 91
1, 40317, Note_off_c, 0, 42, 59
1, 40354, Note_on_c, 0, 43, 77
1, 40356, Note_on_c, 0, 82, 61
1, 40366, Note_on_c, 0, 85, 71
1, 40384, Note_off_c, 0, 73, 60
1, 40395, Note_off_c, 0, 43, 61
1, 40406, Note_off_c, 0, 85, 63
1, 40406, Control_c, 0, 64, 90
1, 40414, Note_off_c, 0, 82, 64
1, 40421, Control_c, 0, 64, 88
1, 40435, Control_c, 0, 64, 83
1, 40450, Control_c, 0, 64, 76
1, 40465, Control_c, 0, 64, 64
1, 40469, Note_on_c, 0, 44, 79
1, 40475, Note_on_c, 0, 71, 86
1, 40477, Note_on_c, 0, 83, 79
1, 40480, Control_c, 0, 64, 0
1, 40483, Note_on_c, 0, 80, 74
1, 40493, Note_off_c, 0, 71, 70
1, 40499, Note_off_c, 0, 83, 64
1, 40506, Note_off_c, 0, 80, 69
1, 40508, Note_off_c, 0, 44, 65
1, 40577, Note_on_c, 0, 46, 82
1, 40577, Note_on_c, 0, 70, 89
1, 40584, Note_on_c, 0, 82, 75
1, 40588, Note_on_c, 0, 78, 74
1, 40603, Note_off_c, 0, 46, 65
1, 40604, Note_off_c, 0, 70, 60
1, 40605, Note_off_c, 0, 82, 68
1, 40610, Note_off_c, 0, 78, 70
1, 40699, Note_on_c, 0, 68, 92
1, 40702, Note_on_c, 0, 47, 90
1, 40717, Control_c, 0, 64, 50
1, 40732, Control_c, 0, 64, 66
1, 40746, Control_c, 0, 64, 72
1, 40761, Control_c, 0, 64, 78
1, 40776, Control_c, 0, 64, 83
1, 40791, Control_c, 0, 64, 87
1, 40800, Note_on_c, 0, 77, 70
1, 40806, Control_c, 0, 64, 88
1, 40808, Note_on_c, 0, 80, 71
1, 40834, Note_off_c, 0, 68, 61
1, 40850, Control_c, 0, 64, 86
1, 40860, Note_off_c, 0, 77, 62
1, 40865, Control_c, 0, 64, 76
1, 40875, Note_off_c, 0, 80, 63
1, 40880, Control_c, 0, 64, 46
1, 40895, Control_c, 0, 64, 0
1, 40916, Note_on_c, 0, 70, 90
1, 40917, Note_on_c, 0, 46, 78
1, 40933, Note_off_c, 0, 47, 57
1, 40939, Control_c, 0, 64, 65
1, 40954, Control_c, 0, 64, 75
1, 40968, Control_c, 0, 64, 85
1, 40983, Control_c, 0, 64, 89
1, 40998, Control_c, 0, 64, 90
1, 41011, Note_on_c, 0, 78, 84
1, 41012, Note_on_c, 0, 82, 81
1, 41013, Control_c, 0, 64, 92
1, 41022, Note_off_c, 0, 46, 61
1, 41028, Note_off_c, 0, 70, 62
1, 41028, Control_c, 0, 64, 93
1, 41042, Control_c, 0, 64, 95
1, 41050, Note_off_c, 0, 78, 62
1, 41057, Control_c, 0, 64, 96
1, 41060, Note_off_c, 0, 39, 61
1, 41060, Note_off_c, 0, 82, 65
1, 41095, Control_c, 0, 64, 97
1, 41124, Control_c, 0, 64, 97
1, 41125, Note_on_c, 0, 42, 81
1, 41136, Note_on_c, 0, 75, 99
1, 41137, Note_on_c, 0, 87, 91
1, 41146, Note_on_c, 0, 84, 67
1, 41152, Note_off_c, 0, 75, 74
1, 41153, Note_off_c, 0, 87, 72
1, 41154, Control_c, 0, 64, 98
1, 41162, Note_off_c, 0, 42, 64
1, 41163, Note_off_c, 0, 84, 67
1, 41213, Control_c, 0, 64, 97
1, 41234, Note_on_c, 0, 77, 101
1, 41238, Note_on_c, 0, 41, 84
1, 41238, Note_on_c, 0, 89, 94
1, 41243, Control_c, 0, 64, 96
1, 41244, Note_on_c, 0, 86, 77
1, 41257, Control_c, 0, 64, 93
1, 41266, Note_off_c, 0, 86, 71
1, 41269, Note_off_c, 0, 41, 69
1, 41272, Note_off_c, 0, 77, 64
1, 41272, Control_c, 0, 64, 88
1, 41275, Note_off_c, 0, 89, 62
1, 41287, Control_c, 0, 64, 81
1, 41302, Control_c, 0, 64, 71
1, 41317, Control_c, 0, 64, 0
1, 41364, Note_on_c, 0, 78, 99
1, 41377, Note_on_c, 0, 39, 88
1, 41436, Control_c, 0, 64, 59
1, 41451, Control_c, 0, 64, 66
1, 41466, Control_c, 0, 64, 70
1, 41476, Note_on_c, 0, 85, 60
1, 41480, Note_on_c, 0, 90, 76
1, 41480, Control_c, 0, 64, 74
1, 41488, Note_on_c, 0, 87, 3
1, 41495, Note_off_c, 0, 85, 63
1, 41495, Control_c, 0, 64, 79
1, 41498, Note_off_c, 0, 78, 64
1, 41510, Control_c, 0, 64, 82
1, 41525, Control_c, 0, 64, 84
1, 41533, Note_off_c, 0, 90, 65
1, 41540, Control_c, 0, 64, 85
1, 41541, Note_off_c, 0, 87, 62
1, 41554, Control_c, 0, 64, 85
1, 41569, Control_c, 0, 64, 86
1, 41584, Control_c, 0, 64, 86
1, 41592, Note_on_c, 0, 77, 91
1, 41599, Control_c, 0, 64, 87
1, 41614, Control_c, 0, 64, 87
1, 41673, Note_on_c, 0, 41, 73
1, 41673, Control_c, 0, 64, 88
1, 41679, Note_on_c, 0, 89, 71
1, 41683, Note_on_c, 0, 85, 73
1, 41703, Note_off_c, 0, 77, 62
1, 41703, Control_c, 0, 64, 87
1, 41718, Control_c, 0, 64, 86
1, 41721, Note_off_c, 0, 89, 62
1, 41733, Control_c, 0, 64, 80
1, 41739, Note_off_c, 0, 85, 63
1, 41744, Note_off_c, 0, 41, 65
1, 41747, Control_c, 0, 64, 68
1, 41762, Control_c, 0, 64, 0
1, 41799, Note_on_c, 0, 42, 84
1, 41801, Note_on_c, 0, 75, 88
1, 41821, Control_c, 0, 64, 55
1, 41843, Control_c, 0, 64, 66
1, 41858, Control_c, 0, 64, 70
1, 41873, Control_c, 0, 64, 74
1, 41888, Control_c, 0, 64, 78
1, 41901, Note_on_c, 0, 84, 63
1, 41903, Control_c, 0, 64, 82
1, 41912, Note_on_c, 0, 87, 74
1, 41918, Control_c, 0, 64, 84
1, 41933, Control_c, 0, 64, 86
1, 41942, Note_off_c, 0, 75, 63
1, 41947, Control_c, 0, 64, 87
1, 41962, Control_c, 0, 64, 88
1, 41966, Note_off_c, 0, 84, 64
1, 41970, Note_off_c, 0, 87, 62
1, 42029, Note_on_c, 0, 73, 91
1, 42036, Control_c, 0, 64, 87
1, 42051, Control_c, 0, 64, 83
1, 42065, Control_c, 0, 64, 76
1, 42080, Control_c, 0, 64, 68
1, 42090, Note_off_c, 0, 42, 53
1, 42095, Control_c, 0, 64, 62
1, 42110, Control_c, 0, 64, 61
1, 42118, Note_on_c, 0, 43, 73
1, 42125, Note_on_c, 0, 82, 70
1, 42126, Control_c, 0, 64, 64
1, 42127, Note_on_c, 0, 85, 66
1, 42141, Control_c, 0, 64, 65
1, 42142, Note_off_c, 0, 73, 59
1, 42153, Note_off_c, 0, 43, 63
1, 42156, Control_c, 0, 64, 64
1, 42165, Note_off_c, 0, 85, 66
1, 42170, Control_c, 0, 64, 62
1, 42177, Note_off_c, 0, 82, 62
1, 42185, Control_c, 0, 64, 55
1, 42200, Control_c, 0, 64, 36
1, 42215, Control_c, 0, 64, 0
1, 42243, Note_on_c, 0, 44, 71
1, 42246, Note_on_c, 0, 71, 78
1, 42251, Note_on_c, 0, 83, 65
1, 42252, Note_on_c, 0, 80, 73
1, 42267, Note_off_c, 0, 71, 69
1, 42276, Note_off_c, 0, 83, 66
1, 42281, Note_off_c, 0, 44, 67
1, 42286, Note_off_c, 0, 80, 62
1, 42363, Note_on_c, 0, 70, 78
1, 42365, Note_on_c, 0, 46, 67
1, 42367, Note_on_c, 0, 82, 68
1, 42371, Note_on_c, 0, 78, 61
1, 42384, Note_off_c, 0, 70, 71
1, 42391, Note_off_c, 0, 78, 65
1, 42391, Note_off_c, 0, 82, 59
1, 42395, Note_off_c, 0, 46, 64
1, 42502, Note_on_c, 0, 68, 73
1, 42519, Note_on_c, 0, 47, 60
1, 42636, Control_c, 0, 64, 49
1, 42639, Note_on_c, 0, 80, 56
1, 42651, Control_c, 0, 64, 62
1, 42654, Note_on_c, 0, 77, 48
1, 42658, Note_off_c, 0, 68, 58
1, 42666, Control_c, 0, 64, 66
1, 42681, Control_c, 0, 64, 69
1, 42696, Control_c, 0, 64, 73
1, 42698, Note_off_c, 0, 77, 59
1, 42711, Control_c, 0, 64, 77
1, 42726, Control_c, 0, 64, 79
1, 42729, Note_off_c, 0, 80, 58
1, 42740, Control_c, 0, 64, 80
1, 42755, Control_c, 0, 64, 80
1, 42785, Control_c, 0, 64, 80
1, 42800, Control_c, 0, 64, 79
1, 42812, Note_on_c, 0, 70, 68
1, 42814, Note_off_c, 0, 47, 38
1, 42814, Control_c, 0, 64, 73
1, 42816, Note_on_c, 0, 46, 57
1, 42830, Control_c, 0, 64, 58
1, 42845, Control_c, 0, 64, 0
1, 42904, Control_c, 0, 64, 51
1, 42920, Note_off_c, 0, 39, 40
1, 42920, Control_c, 0, 64, 64
1, 42920, Note_off_c, 0, 46, 58
1, 42931, Note_on_c, 0, 82, 61
1, 42934, Control_c, 0, 64, 67
1, 42948, Note_on_c, 0, 78, 50
1, 42949, Control_c, 0, 64, 71
1, 42964, Control_c, 0, 64, 74
1, 42976, Note_off_c, 0, 70, 53
1, 42979, Control_c, 0, 64, 77
1, 42991, Note_off_c, 0, 78, 46
1, 42994, Control_c, 0, 64, 79
1, 43009, Control_c, 0, 64, 80
1, 43010, Note_off_c, 0, 82, 60
1, 43024, Control_c, 0, 64, 81
1, 43060, Note_on_c, 0, 39, 52
1, 43098, Control_c, 0, 64, 80
1, 43101, Note_off_c, 0, 39, 62
1, 43112, Control_c, 0, 64, 79
1, 43127, Control_c, 0, 64, 76
1, 43142, Control_c, 0, 64, 69
1, 43157, Control_c, 0, 64, 59
1, 43171, Control_c, 0, 64, 0
1, 43179, Note_on_c, 0, 41, 57
1, 43213, Note_off_c, 0, 41, 64
1, 43323, Note_on_c, 0, 42, 49
1, 43577, Note_on_c, 0, 57, 55
1, 43675, Note_off_c, 0, 42, 59
1, 43678, Note_on_c, 0, 41, 63
1, 43812, Note_on_c, 0, 39, 66
1, 43823, Note_off_c, 0, 41, 61
1, 43952, Note_off_c, 0, 57, 61
1, 44046, Note_on_c, 0, 60, 65
1, 44062, Note_on_c, 0, 57, 60
1, 44153, Note_on_c, 0, 41, 73
1, 44158, Note_off_c, 0, 39, 62
1, 44247, Note_off_c, 0, 60, 60
1, 44263, Note_off_c, 0, 41, 65
1, 44272, Note_on_c, 0, 42, 73
1, 44332, Note_off_c, 0, 57, 49
1, 44370, Note_on_c, 0, 41, 71
1, 44370, Note_off_c, 0, 42, 60
1, 44473, Note_on_c, 0, 66, 67
1, 44480, Note_off_c, 0, 41, 65
1, 44485, Note_on_c, 0, 39, 69
1, 44498, Note_on_c, 0, 57, 36
1, 44501, Note_on_c, 0, 60, 40
1, 44589, Note_off_c, 0, 39, 54
1, 44598, Note_on_c, 0, 37, 70
1, 44664, Note_off_c, 0, 37, 64
1, 44717, Note_on_c, 0, 36, 74
1, 44806, Note_off_c, 0, 36, 62
1, 44936, Note_on_c, 0, 39, 61
1, 44947, Note_on_c, 0, 65, 58
1, 44995, Note_off_c, 0, 39, 59
1, 45003, Note_off_c, 0, 66, 25
1, 45042, Note_on_c, 0, 41, 72
1, 45053, Note_off_c, 0, 57, 40
1, 45056, Note_off_c, 0, 60, 51
1, 45093, Note_off_c, 0, 41, 62
1, 45172, Note_on_c, 0, 63, 65
1, 45176, Note_on_c, 0, 57, 48
1, 45179, Note_off_c, 0, 65, 31
1, 45187, Note_on_c, 0, 42, 66
1, 45189, Note_on_c, 0, 60, 52
1, 45288, Note_off_c, 0, 60, 59
1, 45303, Note_off_c, 0, 57, 56
1, 45334, Note_off_c, 0, 63, 59
1, 45411, Note_on_c, 0, 69, 67
1, 45418, Note_on_c, 0, 57, 62
1, 45432, Control_c, 0, 64, 10
1, 45447, Control_c, 0, 64, 18
1, 45462, Control_c, 0, 64, 21
1, 45477, Control_c, 0, 64, 23
1, 45492, Control_c, 0, 64, 20
1, 45503, Note_on_c, 0, 41, 67
1, 45506, Control_c, 0, 64, 0
1, 45532, Note_off_c, 0, 42, 55
1, 45632, Note_on_c, 0, 39, 77
1, 45643, Note_off_c, 0, 41, 63
1, 45662, Control_c, 0, 64, 51
1, 45677, Control_c, 0, 64, 63
1, 45692, Control_c, 0, 64, 65
1, 45692, Note_off_c, 0, 57, 58
1, 45707, Control_c, 0, 64, 66
1, 45710, Note_off_c, 0, 69, 63
1, 45721, Control_c, 0, 64, 67
1, 45736, Control_c, 0, 64, 69
1, 45751, Control_c, 0, 64, 72
1, 45765, Control_c, 0, 64, 75
1, 45780, Control_c, 0, 64, 77
1, 45870, Control_c, 0, 64, 76
1, 45882, Note_on_c, 0, 72, 74
1, 45885, Control_c, 0, 64, 71
1, 45887, Note_on_c, 0, 69, 64
1, 45888, Note_on_c, 0, 60, 67
1, 45900, Control_c, 0, 64, 58
1, 45914, Control_c, 0, 64, 0
1, 45957, Note_on_c, 0, 41, 78
1, 45958, Note_off_c, 0, 39, 61
1, 45973, Control_c, 0, 64, 61
1, 45988, Control_c, 0, 64, 67
1, 46003, Control_c, 0, 64, 70
1, 46016, Note_off_c, 0, 60, 58
1, 46018, Control_c, 0, 64, 74
1, 46033, Control_c, 0, 64, 77
1, 46047, Control_c, 0, 64, 79
1, 46048, Note_off_c, 0, 72, 63
1, 46054, Note_off_c, 0, 69, 63
1, 46062, Control_c, 0, 64, 80
1, 46073, Note_off_c, 0, 41, 65
1, 46074, Note_on_c, 0, 42, 82
1, 46077, Control_c, 0, 64, 81
1, 46107, Control_c, 0, 64, 81
1, 46167, Note_on_c, 0, 41, 77
1, 46181, Note_off_c, 0, 42, 55
1, 46196, Control_c, 0, 64, 77
1, 46211, Control_c, 0, 64, 69
1, 46226, Control_c, 0, 64, 0
1, 46273, Note_off_c, 0, 41, 64
1, 46278, Note_on_c, 0, 39, 75
1, 46288, Note_on_c, 0, 78, 79
1, 46297, Note_on_c, 0, 66, 73
1, 46299, Note_on_c, 0, 69, 64
1, 46300, Control_c, 0, 64, 51
1, 46309, Note_on_c, 0, 72, 50
1, 46315, Control_c, 0, 64, 64
1, 46330, Control_c, 0, 64, 68
1, 46352, Control_c, 0, 64, 72
1, 46367, Control_c, 0, 64, 75
1, 46382, Control_c, 0, 64, 79
1, 46395, Note_on_c, 0, 37, 78
1, 46396, Control_c, 0, 64, 81
1, 46411, Control_c, 0, 64, 81
1, 46416, Note_off_c, 0, 39, 58
1, 46455, Note_off_c, 0, 37, 65
1, 46461, Note_off_c, 0, 66, 62
1, 46465, Note_off_c, 0, 78, 60
1, 46500, Control_c, 0, 64, 80
1, 46515, Control_c, 0, 64, 74
1, 46522, Note_on_c, 0, 36, 79
1, 46525, Note_off_c, 0, 72, 0
1, 46526, Note_on_c, 0, 77, 82
1, 46530, Control_c, 0, 64, 59
1, 46536, Note_on_c, 0, 65, 75
1, 46538, Note_off_c, 0, 69, 0
1, 46538, Note_on_c, 0, 69, 26
1, 46544, Control_c, 0, 64, 0
1, 46562, Poly_aftertouch_c, 0, 72, 127
1, 46596, Note_off_c, 0, 36, 62
1, 46619, Control_c, 0, 64, 30
1, 46634, Control_c, 0, 64, 62
1, 46649, Control_c, 0, 64, 66
1, 46663, Control_c, 0, 64, 69
1, 46678, Control_c, 0, 64, 73
1, 46693, Control_c, 0, 64, 76
1, 46708, Control_c, 0, 64, 79
1, 46723, Control_c, 0, 64, 81
1, 46734, Note_on_c, 0, 39, 78
1, 46737, Control_c, 0, 64, 82
1, 46752, Control_c, 0, 64, 82
1, 46767, Control_c, 0, 64, 83
1, 46781, Note_off_c, 0, 39, 62
1, 46781, Control_c, 0, 64, 84
1, 46796, Control_c, 0, 64, 84
1, 46831, Note_on_c, 0, 41, 85
1, 46870, Control_c, 0, 64, 84
1, 46875, Note_off_c, 0, 41, 66
1, 46886, Note_off_c, 0, 77, 56
1, 46900, Control_c, 0, 64, 83
1, 46916, Control_c, 0, 64, 83
1, 46923, Note_off_c, 0, 65, 59
1, 46931, Control_c, 0, 64, 82
1, 46936, Note_off_c, 0, 69, 55
1, 46936, Poly_aftertouch_c, 0, 72, 0
1, 46945, Note_on_c, 0, 42, 89
1, 46946, Control_c, 0, 64, 80
1, 46960, Control_c, 0, 64, 78
1, 46975, Control_c, 0, 64, 76
1, 46990, Control_c, 0, 64, 71
1, 47005, Control_c, 0, 64, 65
1, 47019, Control_c, 0, 64, 48
1, 47034, Control_c, 0, 64, 0
1, 47182, Note_on_c, 0, 69, 81
1, 47184, Note_on_c, 0, 57, 75
1, 47270, Note_on_c, 0, 41, 84
1, 47284, Note_off_c, 0, 42, 56
1, 47337, Control_c, 0, 64, 55
1, 47352, Control_c, 0, 64, 61
1, 47367, Control_c, 0, 64, 64
1, 47382, Note_on_c, 0, 39, 87
1, 47382, Control_c, 0, 64, 67
1, 47395, Note_off_c, 0, 57, 60
1, 47397, Note_off_c, 0, 41, 65
1, 47397, Control_c, 0, 64, 72
1, 47412, Control_c, 0, 64, 76
1, 47426, Note_off_c, 0, 69, 64
1, 47427, Control_c, 0, 64, 78
1, 47442, Control_c, 0, 64, 78
1, 47456, Control_c, 0, 64, 79
1, 47471, Control_c, 0, 64, 79
1, 47486, Control_c, 0, 64, 80
1, 47501, Control_c, 0, 64, 81
1, 47516, Control_c, 0, 64, 82
1, 47590, Control_c, 0, 64, 81
1, 47605, Control_c, 0, 64, 75
1, 47605, Note_on_c, 0, 72, 86
1, 47606, Note_on_c, 0, 60, 86
1, 47610, Note_on_c, 0, 69, 82
1, 47619, Control_c, 0, 64, 62
1, 47634, Control_c, 0, 64, 0
1, 47693, Control_c, 0, 64, 57
1, 47707, Note_off_c, 0, 39, 61
1, 47709, Control_c, 0, 64, 68
1, 47712, Note_on_c, 0, 41, 86
1, 47724, Control_c, 0, 64, 76
1, 47734, Note_off_c, 0, 60, 58
1, 47739, Control_c, 0, 64, 82
1, 47754, Control_c, 0, 64, 85
1, 47769, Control_c, 0, 64, 87
1, 47775, Note_off_c, 0, 69, 64
1, 47777, Note_off_c, 0, 72, 63
1, 47783, Control_c, 0, 64, 88
1, 47798, Control_c, 0, 64, 90
1, 47813, Control_c, 0, 64, 93
1, 47820, Note_off_c, 0, 41, 63
1, 47823, Note_on_c, 0, 42, 87
1, 47828, Control_c, 0, 64, 95
1, 47850, Control_c, 0, 64, 96
1, 47865, Control_c, 0, 64, 98
1, 47880, Control_c, 0, 64, 98
1, 47910, Control_c, 0, 64, 99
1, 47921, Note_on_c, 0, 41, 80
1, 47944, Note_off_c, 0, 42, 61
1, 47983, Control_c, 0, 64, 98
1, 47998, Control_c, 0, 64, 94
1, 48009, Note_off_c, 0, 41, 61
1, 48013, Control_c, 0, 64, 83
1, 48028, Note_on_c, 0, 39, 81
1, 48028, Control_c, 0, 64, 62
1, 48034, Note_on_c, 0, 82, 88
1, 48035, Note_on_c, 0, 70, 89
1, 48040, Note_on_c, 0, 78, 76
1, 48042, Control_c, 0, 64, 0
1, 48044, Note_on_c, 0, 75, 78
1, 48087, Control_c, 0, 64, 27
1, 48102, Control_c, 0, 64, 64
1, 48116, Control_c, 0, 64, 71
1, 48131, Control_c, 0, 64, 77
1, 48135, Note_on_c, 0, 37, 85
1, 48146, Control_c, 0, 64, 82
1, 48151, Note_off_c, 0, 39, 52
1, 48160, Control_c, 0, 64, 86
1, 48175, Control_c, 0, 64, 89
1, 48190, Control_c, 0, 64, 91
1, 48193, Note_off_c, 0, 37, 65
1, 48205, Control_c, 0, 64, 92
1, 48234, Control_c, 0, 64, 91
1, 48246, Note_on_c, 0, 36, 93
1, 48249, Control_c, 0, 64, 85
1, 48264, Control_c, 0, 64, 70
1, 48279, Control_c, 0, 64, 0
1, 48303, Note_off_c, 0, 36, 66
1, 48324, Control_c, 0, 64, 62
1, 48339, Control_c, 0, 64, 70
1, 48353, Control_c, 0, 64, 76
1, 48368, Control_c, 0, 64, 82
1, 48382, Note_off_c, 0, 82, 60
1, 48383, Control_c, 0, 64, 84
1, 48389, Note_off_c, 0, 70, 57
1, 48398, Control_c, 0, 64, 84
1, 48448, Note_off_c, 0, 75, 55
1, 48460, Note_on_c, 0, 39, 83
1, 48468, Note_on_c, 0, 81, 84
1, 48474, Note_on_c, 0, 69, 80
1, 48482, Note_off_c, 0, 78, 51
1, 48503, Control_c, 0, 64, 84
1, 48516, Note_off_c, 0, 39, 62
1, 48532, Control_c, 0, 64, 83
1, 48547, Control_c, 0, 64, 83
1, 48559, Note_on_c, 0, 41, 93
1, 48562, Control_c, 0, 64, 81
1, 48583, Control_c, 0, 64, 79
1, 48598, Control_c, 0, 64, 75
1, 48607, Note_off_c, 0, 41, 68
1, 48613, Control_c, 0, 64, 70
1, 48628, Control_c, 0, 64, 63
1, 48643, Control_c, 0, 64, 42
1, 48658, Control_c, 0, 64, 0
1, 48683, Note_on_c, 0, 42, 94
1, 48714, Note_off_c, 0, 69, 56
1, 48740, Note_off_c, 0, 81, 51
1, 48904, Note_on_c, 0, 69, 89
1, 48904, Note_on_c, 0, 81, 90
1, 49000, Note_on_c, 0, 41, 91
1, 49012, Note_off_c, 0, 42, 60
1, 49108, Note_on_c, 0, 39, 87
1, 49125, Note_off_c, 0, 41, 65
1, 49175, Note_off_c, 0, 69, 61
1, 49176, Control_c, 0, 64, 57
1, 49190, Control_c, 0, 64, 67
1, 49205, Note_off_c, 0, 81, 61
1, 49205, Control_c, 0, 64, 72
1, 49220, Control_c, 0, 64, 78
1, 49235, Control_c, 0, 64, 83
1, 49250, Control_c, 0, 64, 86
1, 49264, Control_c, 0, 64, 86
1, 49294, Control_c, 0, 64, 82
1, 49310, Control_c, 0, 64, 71
1, 49323, Note_on_c, 0, 72, 94
1, 49323, Note_on_c, 0, 84, 93
1, 49324, Note_on_c, 0, 81, 90
1, 49332, Control_c, 0, 64, 0
1, 49376, Control_c, 0, 64, 66
1, 49391, Control_c, 0, 64, 77
1, 49406, Control_c, 0, 64, 88
1, 49413, Note_off_c, 0, 39, 62
1, 49421, Control_c, 0, 64, 92
1, 49430, Note_on_c, 0, 41, 93
1, 49436, Control_c, 0, 64, 93
1, 49466, Control_c, 0, 64, 92
1, 49480, Control_c, 0, 64, 87
1, 49495, Control_c, 0, 64, 73
1, 49501, Note_off_c, 0, 72, 60
1, 49510, Control_c, 0, 64, 0
1, 49522, Note_off_c, 0, 41, 65
1, 49533, Note_off_c, 0, 81, 63
1, 49540, Note_on_c, 0, 42, 86
1, 49540, Note_off_c, 0, 84, 64
1, 49554, Control_c, 0, 64, 63
1, 49569, Control_c, 0, 64, 73
1, 49584, Control_c, 0, 64, 83
1, 49599, Control_c, 0, 64, 90
1, 49613, Control_c, 0, 64, 94
1, 49614, Note_off_c, 0, 42, 60
1, 49627, Note_on_c, 0, 41, 85
1, 49628, Control_c, 0, 64, 98
1, 49643, Control_c, 0, 64, 104
1, 49658, Control_c, 0, 64, 109
1, 49673, Control_c, 0, 64, 113
1, 49687, Control_c, 0, 64, 115
1, 49702, Control_c, 0, 64, 115
1, 49722, Note_off_c, 0, 41, 61
1, 49728, Poly_aftertouch_c, 0, 90, 0
1, 49728, Note_on_c, 0, 39, 84
1, 49731, Control_c, 0, 64, 116
1, 49739, Note_on_c, 0, 90, 49
1, 49743, Note_on_c, 0, 82, 96
1, 49743, Note_on_c, 0, 94, 99
1, 49744, Note_on_c, 0, 87, 89
1, 49746, Control_c, 0, 64, 117
1, 49761, Control_c, 0, 64, 119
1, 49776, Control_c, 0, 64, 121
1, 49791, Control_c, 0, 64, 127
1, 49830, Note_on_c, 0, 37, 78
1, 49842, Note_off_c, 0, 39, 56
1, 49863, Note_off_c, 0, 82, 58
1, 49880, Control_c, 0, 64, 109
1, 49887, Note_off_c, 0, 94, 63
1, 49895, Control_c, 0, 64, 83
1, 49898, Note_off_c, 0, 37, 65
1, 49908, Note_off_c, 0, 87, 59
1, 49910, Control_c, 0, 64, 62
1, 49925, Control_c, 0, 64, 29
1, 49938, Note_off_c, 0, 90, 61
1, 49939, Control_c, 0, 64, 66
1, 49952, Note_on_c, 0, 36, 87
1, 49954, Control_c, 0, 64, 81
1, 49957, Note_on_c, 0, 93, 87
1, 49959, Note_on_c, 0, 81, 99
1, 49969, Control_c, 0, 64, 102
1, 49976, Note_off_c, 0, 93, 69
1, 49980, Note_off_c, 0, 36, 70
1, 49984, Control_c, 0, 64, 127
1, 49994, Note_off_c, 0, 81, 66
1, 50076, Note_on_c, 0, 53, 89
1, 50089, Note_on_c, 0, 65, 96
1, 50090, Note_on_c, 0, 41, 82
1, 50094, Note_on_c, 0, 77, 95
1, 50118, Note_off_c, 0, 53, 65
1, 50123, Note_off_c, 0, 41, 70
1, 50124, Note_off_c, 0, 65, 65
1, 50130, Note_off_c, 0, 77, 66
1, 50193, Note_on_c, 0, 67, 101
1, 50196, Note_on_c, 0, 79, 101
1, 50199, Note_on_c, 0, 55, 85
1, 50207, Note_on_c, 0, 43, 83
1, 50227, Note_off_c, 0, 67, 67
1, 50232, Note_off_c, 0, 79, 64
1, 50237, Note_off_c, 0, 43, 64
1, 50243, Note_off_c, 0, 55, 64
1, 50259, Control_c, 0, 64, 125
1, 50273, Control_c, 0, 64, 121
1, 50288, Control_c, 0, 64, 118
1, 50296, Note_on_c, 0, 69, 105
1, 50299, Note_on_c, 0, 81, 103
1, 50302, Note_on_c, 0, 45, 62
1, 50303, Note_on_c, 0, 57, 92
1, 50303, Control_c, 0, 64, 113
1, 50318, Control_c, 0, 64, 107
1, 50331, Note_off_c, 0, 69, 68
1, 50333, Control_c, 0, 64, 98
1, 50336, Note_off_c, 0, 81, 67
1, 50343, Note_on_c, 0, 80, 28
1, 50344, Note_off_c, 0, 80, 127
1, 50344, Note_off_c, 0, 45, 66
1, 50348, Control_c, 0, 64, 83
1, 50349, Note_off_c, 0, 57, 63
1, 50362, Control_c, 0, 64, 57
1, 50377, Control_c, 0, 64, 0
1, 50425, Note_on_c, 0, 58, 97
1, 50425, Note_on_c, 0, 70, 102
1, 50428, Note_on_c, 0, 82, 100
1, 50430, Note_on_c, 0, 46, 96
1, 50436, Control_c, 0, 64, 61
1, 50445, Note_on_c, 0, 80, 71
1, 50450, Note_off_c, 0, 58, 65
1, 50451, Control_c, 0, 64, 74
1, 50462, Note_off_c, 0, 80, 47
1, 50466, Control_c, 0, 64, 85
1, 50477, Note_off_c, 0, 46, 64
1, 50481, Control_c, 0, 64, 91
1, 50496, Control_c, 0, 64, 93
1, 50510, Control_c, 0, 64, 96
1, 50525, Control_c, 0, 64, 99
1, 50540, Control_c, 0, 64, 104
1, 50554, Control_c, 0, 64, 110
1, 50569, Control_c, 0, 64, 115
1, 50584, Control_c, 0, 64, 118
1, 50599, Control_c, 0, 64, 121
1, 50614, Control_c, 0, 64, 123
1, 50618, Note_off_c, 0, 82, 56
1, 50628, Control_c, 0, 64, 125
1, 50643, Note_on_c, 0, 38, 98
1, 50643, Control_c, 0, 64, 125
1, 50650, Note_on_c, 0, 34, 90
1, 50655, Note_on_c, 0, 26, 82
1, 50658, Note_on_c, 0, 77, 88
1, 50658, Control_c, 0, 64, 125
1, 50673, Control_c, 0, 64, 123
1, 50688, Note_off_c, 0, 70, 60
1, 50688, Control_c, 0, 64, 115
1, 50703, Control_c, 0, 64, 107
1, 50703, Note_off_c, 0, 77, 64
1, 50713, Note_off_c, 0, 38, 65
1, 50718, Control_c, 0, 64, 96
1, 50720, Poly_aftertouch_c, 0, 30, 127
1, 50724, Note_off_c, 0, 26, 63
1, 50728, Note_off_c, 0, 34, 60
1, 50732, Control_c, 0, 64, 82
1, 50747, Control_c, 0, 64, 65
1, 50750, Poly_aftertouch_c, 0, 30, 0
1, 50755, Poly_aftertouch_c, 0, 27, 0
1, 50756, Note_on_c, 0, 81, 98
1, 50762, Control_c, 0, 64, 0
1, 50802, Note_off_c, 0, 81, 65
1, 50879, Note_on_c, 0, 39, 99
1, 50881, Note_on_c, 0, 67, 100
1, 50882, Note_on_c, 0, 79, 97
1, 50882, Note_on_c, 0, 34, 88
1, 50884, Note_on_c, 0, 27, 82
1, 50885, Note_on_c, 0, 75, 91
1, 50903, Control_c, 0, 64, 66
1, 50919, Control_c, 0, 64, 77
1, 50931, Note_off_c, 0, 39, 62
1, 50933, Control_c, 0, 64, 84
1, 50934, Note_off_c, 0, 34, 63
1, 50936, Note_off_c, 0, 27, 62
1, 50948, Control_c, 0, 64, 86
1, 50963, Control_c, 0, 64, 88
1, 50978, Control_c, 0, 64, 91
1, 50988, Note_off_c, 0, 79, 62
1, 50992, Control_c, 0, 64, 96
1, 51007, Control_c, 0, 64, 99
1, 51022, Control_c, 0, 64, 101
1, 51037, Control_c, 0, 64, 103
1, 51041, Note_off_c, 0, 67, 55
1, 51051, Control_c, 0, 64, 105
1, 51066, Control_c, 0, 64, 107
1, 51081, Control_c, 0, 64, 108
1, 51096, Note_on_c, 0, 41, 99
1, 51096, Control_c, 0, 64, 109
1, 51103, Note_on_c, 0, 29, 90
1, 51111, Control_c, 0, 64, 110
1, 51125, Control_c, 0, 64, 111
1, 51140, Control_c, 0, 64, 112
1, 51144, Note_off_c, 0, 75, 62
1, 51150, Note_off_c, 0, 41, 65
1, 51155, Control_c, 0, 64, 112
1, 51159, Note_off_c, 0, 29, 63
1, 51183, Note_on_c, 0, 81, 93
1, 51184, Note_on_c, 0, 69, 98
1, 51184, Control_c, 0, 64, 113
1, 51199, Control_c, 0, 64, 113
1, 51219, Note_off_c, 0, 69, 68
1, 51226, Note_off_c, 0, 81, 64
1, 51258, Control_c, 0, 64, 111
1, 51273, Control_c, 0, 64, 104
1, 51288, Control_c, 0, 64, 96
1, 51293, Note_on_c, 0, 70, 100
1, 51296, Note_on_c, 0, 82, 93
1, 51299, Note_on_c, 0, 75, 90
1, 51303, Control_c, 0, 64, 86
1, 51305, Note_on_c, 0, 43, 95
1, 51312, Note_on_c, 0, 31, 95
1, 51318, Control_c, 0, 64, 73
1, 51323, Note_off_c, 0, 75, 63
1, 51330, Note_off_c, 0, 70, 59
1, 51332, Control_c, 0, 64, 44
1, 51340, Note_off_c, 0, 82, 68
1, 51347, Note_off_c, 0, 31, 65
1, 51347, Control_c, 0, 64, 0
1, 51349, Note_off_c, 0, 43, 62
1, 51401, Note_on_c, 0, 69, 96
1, 51404, Note_on_c, 0, 81, 99
1, 51445, Note_off_c, 0, 69, 65
1, 51449, Note_off_c, 0, 81, 65
1, 51510, Note_on_c, 0, 45, 96
1, 51510, Note_on_c, 0, 67, 103
1, 51511, Note_on_c, 0, 79, 95
1, 51518, Note_on_c, 0, 75, 88
1, 51519, Note_on_c, 0, 33, 82
1, 51536, Note_off_c, 0, 75, 73
1, 51546, Note_off_c, 0, 67, 62
1, 51549, Note_off_c, 0, 33, 70
1, 51552, Note_off_c, 0, 45, 63
1, 51561, Note_off_c, 0, 79, 63
1, 51726, Control_c, 0, 64, 70
1, 51733, Note_on_c, 0, 46, 100
1, 51734, Note_on_c, 0, 34, 88
1, 51740, Note_on_c, 0, 65, 100
1, 51741, Note_on_c, 0, 74, 91
1, 51741, Control_c, 0, 64, 78
1, 51743, Note_on_c, 0, 77, 92
1, 51755, Control_c, 0, 64, 84
1, 51770, Control_c, 0, 64, 87
1, 51776, Note_off_c, 0, 46, 64
1, 51778, Note_off_c, 0, 65, 67
1, 51780, Note_off_c, 0, 34, 65
1, 51784, Note_off_c, 0, 77, 63
1, 51785, Control_c, 0, 64, 91
1, 51788, Note_off_c, 0, 74, 66
1, 51800, Control_c, 0, 64, 95
1, 51815, Control_c, 0, 64, 99
1, 51829, Control_c, 0, 64, 102
1, 51844, Control_c, 0, 64, 104
1, 51859, Control_c, 0, 64, 105
1, 51874, Control_c, 0, 64, 105
1, 51889, Control_c, 0, 64, 106
1, 51904, Control_c, 0, 64, 106
1, 51957, Note_on_c, 0, 62, 97
1, 51959, Note_on_c, 0, 47, 99
1, 51959, Note_on_c, 0, 74, 94
1, 51962, Note_on_c, 0, 43, 77
1, 51963, Control_c, 0, 64, 103
1, 51964, Note_on_c, 0, 35, 76
1, 51978, Control_c, 0, 64, 96
1, 51992, Note_off_c, 0, 62, 66
1, 51992, Note_off_c, 0, 74, 70
1, 51993, Control_c, 0, 64, 87
1, 52005, Note_off_c, 0, 43, 59
1, 52006, Note_off_c, 0, 35, 64
1, 52007, Control_c, 0, 64, 74
1, 52012, Note_off_c, 0, 47, 63
1, 52022, Control_c, 0, 64, 56
1, 52037, Control_c, 0, 64, 0
1, 52167, Note_on_c, 0, 63, 98
1, 52170, Note_on_c, 0, 48, 91
1, 52171, Note_on_c, 0, 43, 88
1, 52173, Note_on_c, 0, 72, 82
1, 52175, Note_on_c, 0, 36, 80
1, 52175, Note_on_c, 0, 75, 87
1, 52201, Note_off_c, 0, 48, 68
1, 52201, Note_off_c, 0, 63, 61
1, 52201, Note_off_c, 0, 72, 64
1, 52205, Note_on_c, 0, 47, 36
1, 52206, Note_off_c, 0, 47, 127
1, 52206, Note_off_c, 0, 43, 65
1, 52207, Note_off_c, 0, 75, 63
1, 52218, Note_off_c, 0, 36, 65
1, 52269, Note_on_c, 0, 65, 90
1, 52271, Note_on_c, 0, 77, 99
1, 52306, Note_off_c, 0, 65, 66
1, 52314, Note_off_c, 0, 77, 64
1, 52384, Note_on_c, 0, 67, 94
1, 52386, Note_on_c, 0, 72, 90
1, 52387, Note_on_c, 0, 79, 93
1, 52390, Note_on_c, 0, 43, 86
1, 52395, Note_on_c, 0, 45, 86
1, 52396, Note_on_c, 0, 33, 83
1, 52405, Note_off_c, 0, 72, 69
1, 52412, Note_off_c, 0, 67, 64
1, 52417, Note_off_c, 0, 45, 69
1, 52419, Note_off_c, 0, 79, 66
1, 52421, Note_off_c, 0, 43, 64
1, 52426, Note_off_c, 0, 33, 67
1, 52611, Note_on_c, 0, 62, 95
1, 52612, Note_on_c, 0, 74, 95
1, 52613, Note_on_c, 0, 46, 96
1, 52616, Note_on_c, 0, 34, 74
1, 52623, Note_on_c, 0, 43, 78
1, 52638, Control_c, 0, 64, 70
1, 52653, Control_c, 0, 64, 78
1, 52668, Note_off_c, 0, 43, 59
1, 52668, Control_c, 0, 64, 82
1, 52669, Note_off_c, 0, 46, 63
1, 52683, Control_c, 0, 64, 83
1, 52688, Note_off_c, 0, 34, 63
1, 52698, Control_c, 0, 64, 84
1, 52712, Control_c, 0, 64, 85
1, 52727, Control_c, 0, 64, 86
1, 52742, Control_c, 0, 64, 88
1, 52757, Control_c, 0, 64, 89
1, 52771, Control_c, 0, 64, 89
1, 52786, Control_c, 0, 64, 90
1, 52793, Note_off_c, 0, 62, 58
1, 52798, Note_off_c, 0, 74, 55
1, 52816, Control_c, 0, 64, 90
1, 52822, Note_on_c, 0, 43, 65
1, 52825, Note_on_c, 0, 47, 92
1, 52831, Control_c, 0, 64, 91
1, 52838, Note_on_c, 0, 35, 70
1, 52846, Control_c, 0, 64, 92
1, 52861, Control_c, 0, 64, 92
1, 52876, Control_c, 0, 64, 93
1, 52882, Note_off_c, 0, 35, 63
1, 52886, Note_off_c, 0, 47, 61
1, 52891, Control_c, 0, 64, 93
1, 52893, Note_off_c, 0, 43, 59
1, 52912, Note_on_c, 0, 74, 80
1, 52913, Note_on_c, 0, 62, 90
1, 52952, Note_off_c, 0, 62, 63
1, 52959, Note_off_c, 0, 74, 67
1, 52994, Control_c, 0, 64, 93
1, 53009, Control_c, 0, 64, 89
1, 53022, Note_on_c, 0, 63, 104
1, 53023, Control_c, 0, 64, 83
1, 53025, Note_on_c, 0, 72, 86
1, 53026, Note_on_c, 0, 75, 84
1, 53027, Note_on_c, 0, 48, 100
1, 53033, Note_on_c, 0, 43, 80
1, 53037, Note_on_c, 0, 36, 76
1, 53038, Control_c, 0, 64, 74
1, 53053, Control_c, 0, 64, 62
1, 53058, Note_off_c, 0, 63, 61
1, 53060, Note_off_c, 0, 72, 60
1, 53063, Note_off_c, 0, 48, 68
1, 53067, Note_off_c, 0, 43, 66
1, 53068, Control_c, 0, 64, 0
1, 53082, Note_off_c, 0, 75, 64
1, 53089, Note_off_c, 0, 36, 62
1, 53140, Note_on_c, 0, 65, 90
1, 53142, Note_on_c, 0, 77, 91
1, 53177, Note_off_c, 0, 65, 66
1, 53186, Note_off_c, 0, 77, 65
1, 53245, Note_on_c, 0, 67, 96
1, 53249, Note_on_c, 0, 43, 83
1, 53249, Note_on_c, 0, 79, 91
1, 53250, Note_on_c, 0, 33, 80
1, 53250, Note_on_c, 0, 45, 85
1, 53251, Note_on_c, 0, 72, 91
1, 53269, Note_off_c, 0, 72, 71
1, 53278, Note_off_c, 0, 45, 66
1, 53279, Note_off_c, 0, 67, 61
1, 53282, Note_off_c, 0, 33, 69
1, 53282, Note_off_c, 0, 79, 65
1, 53284, Note_off_c, 0, 43, 64
1, 53465, Note_on_c, 0, 62, 94
1, 53466, Note_on_c, 0, 74, 93
1, 53472, Note_on_c, 0, 46, 92
1, 53473, Note_on_c, 0, 43, 73
1, 53475, Note_on_c, 0, 34, 74
1, 53476, Control_c, 0, 64, 67
1, 53491, Control_c, 0, 64, 75
1, 53506, Control_c, 0, 64, 82
1, 53508, Note_off_c, 0, 43, 65
1, 53518, Note_off_c, 0, 34, 65
1, 53520, Note_off_c, 0, 46, 62
1, 53521, Control_c, 0, 64, 85
1, 53535, Control_c, 0, 64, 87
1, 53550, Control_c, 0, 64, 88
1, 53559, Poly_aftertouch_c, 0, 40, 0
1, 53565, Control_c, 0, 64, 89
1, 53579, Control_c, 0, 64, 90
1, 53594, Control_c, 0, 64, 91
1, 53609, Control_c, 0, 64, 91
1, 53630, Note_off_c, 0, 62, 59
1, 53639, Control_c, 0, 64, 92
1, 53673, Note_off_c, 0, 74, 63
1, 53690, Note_on_c, 0, 48, 93
1, 53690, Note_on_c, 0, 45, 84
1, 53698, Note_on_c, 0, 36, 70
1, 53722, Note_off_c, 0, 45, 66
1, 53724, Note_off_c, 0, 48, 65
1, 53734, Note_off_c, 0, 36, 65
1, 53839, Control_c, 0, 64, 90
1, 53853, Control_c, 0, 64, 81
1, 53868, Control_c, 0, 64, 63
1, 53883, Control_c, 0, 64, 0
1, 53908, Note_on_c, 0, 70, 101
1, 53911, Note_on_c, 0, 77, 89
1, 53911, Note_on_c, 0, 82, 93
1, 53917, Note_on_c, 0, 50, 90
1, 53925, Note_on_c, 0, 46, 87
1, 53927, Note_on_c, 0, 38, 68
1, 53943, Control_c, 0, 64, 69
1, 53958, Control_c, 0, 64, 86
1, 53964, Note_off_c, 0, 46, 58
1, 53967, Note_off_c, 0, 50, 61
1, 53971, Note_off_c, 0, 38, 65
1, 53972, Control_c, 0, 64, 98
1, 53987, Control_c, 0, 64, 101
1, 54002, Control_c, 0, 64, 102
1, 54017, Control_c, 0, 64, 103
1, 54032, Control_c, 0, 64, 107
1, 54046, Control_c, 0, 64, 112
1, 54061, Control_c, 0, 64, 115
1, 54076, Control_c, 0, 64, 116
1, 54080, Note_off_c, 0, 82, 62
1, 54088, Note_off_c, 0, 77, 56
1, 54091, Control_c, 0, 64, 117
1, 54095, Note_off_c, 0, 70, 58
1, 54107, Control_c, 0, 64, 119
1, 54122, Control_c, 0, 64, 121
1, 54125, Note_on_c, 0, 51, 89
1, 54134, Note_on_c, 0, 39, 74
1, 54137, Note_on_c, 0, 46, 78
1, 54137, Control_c, 0, 64, 123
1, 54151, Control_c, 0, 64, 124
1, 54166, Control_c, 0, 64, 126
1, 54179, Note_off_c, 0, 46, 54
1, 54181, Control_c, 0, 64, 127
1, 54183, Note_off_c, 0, 51, 61
1, 54201, Note_off_c, 0, 39, 63
1, 54211, Note_on_c, 0, 67, 90
1, 54214, Note_on_c, 0, 79, 93
1, 54253, Note_off_c, 0, 67, 64
1, 54269, Note_off_c, 0, 79, 65
1, 54299, Control_c, 0, 64, 118
1, 54314, Control_c, 0, 64, 96
1, 54328, Control_c, 0, 64, 67
1, 54343, Control_c, 0, 64, 0
1, 54344, Note_on_c, 0, 48, 82
1, 54344, Note_on_c, 0, 52, 95
1, 54344, Note_on_c, 0, 79, 100
1, 54345, Note_on_c, 0, 72, 97
1, 54345, Note_on_c, 0, 84, 98
1, 54351, Note_on_c, 0, 40, 78
1, 54388, Control_c, 0, 64, 61
1, 54393, Note_off_c, 0, 48, 63
1, 54400, Note_off_c, 0, 52, 63
1, 54402, Control_c, 0, 64, 78
1, 54413, Note_off_c, 0, 40, 62
1, 54417, Control_c, 0, 64, 94
1, 54432, Control_c, 0, 64, 104
1, 54476, Control_c, 0, 64, 105
1, 54482, Note_off_c, 0, 84, 58
1, 54491, Control_c, 0, 64, 106
1, 54506, Control_c, 0, 64, 107
1, 54508, Note_off_c, 0, 79, 60
1, 54521, Control_c, 0, 64, 108
1, 54524, Note_off_c, 0, 72, 56
1, 54536, Control_c, 0, 64, 109
1, 54556, Note_on_c, 0, 53, 92
1, 54562, Note_on_c, 0, 41, 77
1, 54562, Note_on_c, 0, 48, 82
1, 54566, Control_c, 0, 64, 109
1, 54611, Note_off_c, 0, 53, 65
1, 54622, Note_off_c, 0, 48, 64
1, 54629, Note_off_c, 0, 41, 64
1, 54642, Note_on_c, 0, 69, 88
1, 54642, Note_on_c, 0, 77, 79
1, 54645, Note_on_c, 0, 81, 81
1, 54682, Note_off_c, 0, 69, 65
1, 54688, Note_off_c, 0, 77, 62
1, 54688, Note_off_c, 0, 81, 59
1, 54691, Control_c, 0, 64, 110
1, 54759, Note_on_c, 0, 70, 95
1, 54764, Note_on_c, 0, 75, 92
1, 54764, Note_on_c, 0, 82, 92
1, 54766, Note_on_c, 0, 55, 98
1, 54766, Control_c, 0, 64, 109
1, 54769, Note_on_c, 0, 48, 88
1, 54774, Note_on_c, 0, 43, 88
1, 54781, Control_c, 0, 64, 106
1, 54792, Note_off_c, 0, 75, 62
1, 54795, Control_c, 0, 64, 99
1, 54796, Note_off_c, 0, 70, 62
1, 54802, Note_off_c, 0, 82, 67
1, 54809, Control_c, 0, 64, 87
1, 54812, Note_off_c, 0, 55, 63
1, 54814, Note_off_c, 0, 48, 63
1, 54824, Control_c, 0, 64, 73
1, 54825, Note_off_c, 0, 43, 60
1, 54839, Control_c, 0, 64, 18
1, 54854, Control_c, 0, 64, 0
1, 54867, Note_on_c, 0, 69, 96
1, 54869, Note_on_c, 0, 81, 94
1, 54913, Note_off_c, 0, 69, 65
1, 54915, Note_off_c, 0, 81, 65
1, 54971, Note_on_c, 0, 57, 97
1, 54975, Note_on_c, 0, 45, 91
1, 54975, Note_on_c, 0, 67, 102
1, 54977, Note_on_c, 0, 79, 95
1, 54984, Note_on_c, 0, 75, 88
1, 55002, Note_off_c, 0, 75, 73
1, 55008, Note_off_c, 0, 45, 68
1, 55013, Note_off_c, 0, 67, 63
1, 55016, Note_off_c, 0, 57, 64
1, 55019, Note_off_c, 0, 79, 64
1, 55180, Control_c, 0, 64, 66
1, 55195, Control_c, 0, 64, 78
1, 55201, Note_on_c, 0, 65, 95
1, 55204, Note_on_c, 0, 77, 91
1, 55204, Note_on_c, 0, 58, 98
1, 55204, Note_on_c, 0, 74, 86
1, 55210, Note_on_c, 0, 46, 97
1, 55210, Control_c, 0, 64, 87
1, 55225, Control_c, 0, 64, 93
1, 55237, Note_off_c, 0, 65, 64
1, 55239, Note_off_c, 0, 58, 63
1, 55240, Control_c, 0, 64, 98
1, 55243, Note_off_c, 0, 74, 65
1, 55254, Note_off_c, 0, 77, 62
1, 55255, Control_c, 0, 64, 105
1, 55258, Note_off_c, 0, 46, 61
1, 55269, Control_c, 0, 64, 113
1, 55284, Control_c, 0, 64, 122
1, 55299, Control_c, 0, 64, 127
1, 55449, Note_on_c, 0, 46, 98
1, 55454, Note_on_c, 0, 34, 95
1, 55454, Note_on_c, 0, 74, 96
1, 55482, Note_off_c, 0, 46, 63
1, 55485, Note_off_c, 0, 34, 66
1, 55490, Note_off_c, 0, 74, 70
1, 55663, Control_c, 0, 64, 111
1, 55677, Control_c, 0, 64, 84
1, 55690, Note_on_c, 0, 70, 102
1, 55693, Note_on_c, 0, 82, 87
1, 55693, Control_c, 0, 64, 56
1, 55694, Note_on_c, 0, 74, 91
1, 55696, Note_on_c, 0, 58, 95
1, 55702, Note_on_c, 0, 46, 85
1, 55705, Note_on_c, 0, 50, 73
1, 55708, Control_c, 0, 64, 0
1, 55737, Control_c, 0, 64, 69
1, 55739, Note_off_c, 0, 70, 58
1, 55740, Note_off_c, 0, 58, 65
1, 55752, Control_c, 0, 64, 88
1, 55755, Note_off_c, 0, 50, 60
1, 55755, Note_off_c, 0, 74, 62
1, 55767, Control_c, 0, 64, 113
1, 55772, Note_off_c, 0, 46, 59
1, 55777, Note_off_c, 0, 82, 64
1, 55782, Control_c, 0, 64, 119
1, 55797, Control_c, 0, 64, 120
1, 55812, Control_c, 0, 64, 121
1, 55827, Control_c, 0, 64, 125
1, 55841, Control_c, 0, 64, 127
1, 55927, Note_on_c, 0, 70, 99
1, 55929, Note_on_c, 0, 82, 89
1, 55930, Note_on_c, 0, 74, 93
1, 55934, Note_on_c, 0, 58, 100
1, 55939, Note_on_c, 0, 46, 77
1, 55948, Note_on_c, 0, 50, 68
1, 55955, Note_off_c, 0, 70, 59
1, 55962, Note_off_c, 0, 74, 62
1, 55969, Note_off_c, 0, 58, 64
1, 55973, Note_off_c, 0, 50, 66
1, 55973, Note_off_c, 0, 82, 68
1, 55993, Note_off_c, 0, 46, 62
1, 56019, Control_c, 0, 64, 113
1, 56034, Control_c, 0, 64, 101
1, 56048, Control_c, 0, 64, 84
1, 56071, Control_c, 0, 64, 66
1, 56086, Control_c, 0, 64, 0
1, 56174, Control_c, 0, 64, 57
1, 56179, Note_on_c, 0, 69, 99
1, 56181, Note_on_c, 0, 72, 95
1, 56182, Note_on_c, 0, 81, 97
1, 56185, Note_on_c, 0, 57, 101
1, 56189, Control_c, 0, 64, 74
1, 56196, Note_on_c, 0, 45, 77
1, 56197, Note_on_c, 0, 48, 77
1, 56204, Control_c, 0, 64, 89
1, 56218, Note_off_c, 0, 72, 66
1, 56219, Control_c, 0, 64, 101
1, 56221, Note_off_c, 0, 69, 67
1, 56226, Note_off_c, 0, 57, 64
1, 56230, Note_off_c, 0, 48, 69
1, 56232, Note_off_c, 0, 45, 67
1, 56232, Note_off_c, 0, 81, 64
1, 56234, Control_c, 0, 64, 104
1, 56248, Control_c, 0, 64, 107
1, 56263, Control_c, 0, 64, 110
1, 56269, Poly_aftertouch_c, 0, 47, 127
1, 56278, Control_c, 0, 64, 113
1, 56293, Control_c, 0, 64, 115
1, 56307, Control_c, 0, 64, 115
1, 56313, Poly_aftertouch_c, 0, 47, 0
1, 56322, Control_c, 0, 64, 116
1, 56352, Control_c, 0, 64, 117
1, 56367, Control_c, 0, 64, 118
1, 56381, Control_c, 0, 64, 119
1, 56396, Control_c, 0, 64, 121
1, 56411, Control_c, 0, 64, 123
1, 56423, Note_on_c, 0, 53, 92
1, 56424, Note_on_c, 0, 65, 95
1, 56426, Note_on_c, 0, 69, 91
1, 56426, Note_on_c, 0, 77, 90
1, 56426, Control_c, 0, 64, 127
1, 56428, Note_on_c, 0, 45, 67
1, 56429, Note_on_c, 0, 41, 79
1, 56446, Note_off_c, 0, 69, 72
1, 56450, Note_off_c, 0, 65, 65
1, 56457, Note_off_c, 0, 45, 68
1, 56465, Note_off_c, 0, 53, 65
1, 56465, Note_off_c, 0, 41, 68
1, 56471, Note_off_c, 0, 77, 63
1, 56506, Poly_aftertouch_c, 0, 47, 127
1, 56530, Poly_aftertouch_c, 0, 47, 0
1, 56620, Control_c, 0, 64, 96
1, 56635, Control_c, 0, 64, 79
1, 56638, Note_on_c, 0, 70, 95
1, 56641, Note_on_c, 0, 82, 82
1, 56646, Note_on_c, 0, 74, 81
1, 56647, Note_on_c, 0, 58, 91
1, 56649, Note_on_c, 0, 46, 75
1, 56650, Control_c, 0, 64, 76
1, 56658, Note_on_c, 0, 50, 63
1, 56664, Control_c, 0, 64, 84
1, 56675, Poly_aftertouch_c, 0, 77, 0
1, 56679, Control_c, 0, 64, 99
1, 56682, Note_off_c, 0, 70, 64
1, 56684, Note_off_c, 0, 74, 61
1, 56688, Note_off_c, 0, 46, 64
1, 56689, Note_off_c, 0, 82, 66
1, 56690, Note_off_c, 0, 58, 63
1, 56694, Control_c, 0, 64, 127
1, 56701, Note_off_c, 0, 50, 63
1, 56741, Poly_aftertouch_c, 0, 52, 0
1, 56747, Note_on_c, 0, 69, 97
1, 56749, Note_on_c, 0, 81, 86
1, 56751, Note_on_c, 0, 57, 93
1, 56753, Note_on_c, 0, 50, 67
1, 56759, Note_on_c, 0, 72, 77
1, 56761, Poly_aftertouch_c, 0, 52, 0
1, 56769, Note_on_c, 0, 45, 58
1, 56775, Note_off_c, 0, 72, 70
1, 56780, Note_on_c, 0, 79, 48
1, 56781, Note_off_c, 0, 79, 127
1, 56787, Note_off_c, 0, 57, 61
1, 56789, Note_off_c, 0, 69, 67
1, 56799, Note_off_c, 0, 45, 66
1, 56799, Note_off_c, 0, 81, 64
1, 56799, Note_off_c, 0, 50, 65
1, 56846, Poly_aftertouch_c, 0, 47, 127
1, 56849, Control_c, 0, 64, 121
1, 56864, Note_on_c, 0, 67, 104
1, 56864, Control_c, 0, 64, 102
1, 56867, Note_on_c, 0, 55, 98
1, 56869, Note_on_c, 0, 79, 102
1, 56871, Note_on_c, 0, 70, 97
1, 56877, Note_on_c, 0, 43, 85
1, 56879, Control_c, 0, 64, 85
1, 56882, Poly_aftertouch_c, 0, 47, 0
1, 56883, Note_on_c, 0, 46, 82
1, 56894, Control_c, 0, 64, 67
1, 56898, Note_off_c, 0, 67, 66
1, 56905, Note_off_c, 0, 55, 66
1, 56907, Note_off_c, 0, 70, 62
1, 56908, Note_off_c, 0, 79, 67
1, 56909, Control_c, 0, 64, 0
1, 56912, Note_off_c, 0, 43, 62
1, 56920, Note_off_c, 0, 46, 64
1, 57148, Note_on_c, 0, 65, 91
1, 57149, Note_on_c, 0, 53, 100
1, 57149, Note_on_c, 0, 77, 92
1, 57151, Note_on_c, 0, 69, 91
1, 57159, Note_on_c, 0, 41, 87
1, 57159, Note_on_c, 0, 45, 82
1, 57165, Note_on_c, 0, 67, 63
1, 57177, Note_on_c, 0, 70, 37
1, 57192, Note_off_c, 0, 67, 36
1, 57210, Note_off_c, 0, 70, 33
1, 57219, Control_c, 0, 64, 41
1, 57234, Control_c, 0, 64, 64
1, 57249, Control_c, 0, 64, 70
1, 57264, Control_c, 0, 64, 78
1, 57279, Control_c, 0, 64, 87
1, 57294, Control_c, 0, 64, 93
1, 57309, Control_c, 0, 64, 96
1, 57324, Control_c, 0, 64, 99
1, 57339, Control_c, 0, 64, 103
1, 57353, Control_c, 0, 64, 111
1, 57368, Control_c, 0, 64, 123
1, 57383, Control_c, 0, 64, 127
1, 57434, Note_off_c, 0, 77, 58
1, 57437, Note_off_c, 0, 53, 63
1, 57442, Note_off_c, 0, 69, 61
1, 57445, Note_off_c, 0, 45, 64
1, 57452, Note_off_c, 0, 41, 64
1, 57460, Note_off_c, 0, 65, 61
1, 57642, Control_c, 0, 64, 118
1, 57657, Control_c, 0, 64, 88
1, 57672, Control_c, 0, 64, 62
1, 57676, Note_on_c, 0, 63, 99
1, 57679, Note_on_c, 0, 75, 87
1, 57681, Note_on_c, 0, 67, 85
1, 57685, Note_on_c, 0, 51, 96
1, 57687, Control_c, 0, 64, 0
1, 57689, Note_on_c, 0, 39, 78
1, 57695, Note_on_c, 0, 43, 74
1, 57717, Control_c, 0, 64, 65
1, 57732, Note_off_c, 0, 63, 61
1, 57732, Control_c, 0, 64, 85
1, 57740, Note_off_c, 0, 51, 60
1, 57746, Control_c, 0, 64, 112
1, 57760, Note_off_c, 0, 67, 58
1, 57761, Control_c, 0, 64, 127
1, 57765, Note_off_c, 0, 43, 59
1, 57770, Poly_aftertouch_c, 0, 45, 127
1, 57777, Note_off_c, 0, 75, 62
1, 57785, Note_off_c, 0, 39, 58
1, 57937, Note_on_c, 0, 63, 101
1, 57940, Note_on_c, 0, 67, 90
1, 57940, Note_on_c, 0, 75, 90
1, 57946, Note_on_c, 0, 51, 96
1, 57954, Note_on_c, 0, 39, 74
1, 57957, Note_on_c, 0, 43, 70
1, 57979, Note_off_c, 0, 63, 64
1, 57982, Note_off_c, 0, 67, 64
1, 57992, Note_off_c, 0, 43, 63
1, 57993, Note_off_c, 0, 75, 69
1, 57995, Note_off_c, 0, 51, 63
1, 58012, Poly_aftertouch_c, 0, 45, 0
1, 58021, Note_off_c, 0, 39, 62
1, 58162, Control_c, 0, 64, 125
1, 58176, Control_c, 0, 64, 95
1, 58191, Control_c, 0, 64, 69
1, 58206, Control_c, 0, 64, 0
1, 58220, Note_on_c, 0, 62, 103
1, 58221, Note_on_c, 0, 50, 100
1, 58221, Note_on_c, 0, 74, 93
1, 58222, Note_on_c, 0, 65, 98
1, 58229, Note_on_c, 0, 38, 77
1, 58231, Note_on_c, 0, 41, 81
1, 58236, Control_c, 0, 64, 37
1, 58250, Control_c, 0, 64, 77
1, 58255, Note_on_c, 0, 43, 48
1, 58265, Note_off_c, 0, 62, 62
1, 58265, Control_c, 0, 64, 102
1, 58270, Note_off_c, 0, 65, 67
1, 58274, Note_off_c, 0, 38, 60
1, 58280, Note_off_c, 0, 41, 66
1, 58280, Control_c, 0, 64, 127
1, 58281, Note_off_c, 0, 50, 60
1, 58286, Note_off_c, 0, 43, 54
1, 58293, Note_off_c, 0, 74, 67
1, 58491, Note_on_c, 0, 65, 97
1, 58491, Note_on_c, 0, 77, 96
1, 58493, Note_on_c, 0, 69, 91
1, 58498, Note_on_c, 0, 53, 97
1, 58506, Note_on_c, 0, 45, 76
1, 58512, Note_on_c, 0, 41, 74
1, 58523, Note_off_c, 0, 69, 63
1, 58532, Note_off_c, 0, 65, 65
1, 58536, Note_off_c, 0, 77, 66
1, 58539, Note_off_c, 0, 53, 68
1, 58542, Note_off_c, 0, 45, 65
1, 58557, Note_on_c, 0, 47, 8
1, 58557, Note_off_c, 0, 41, 64
1, 58611, Note_off_c, 0, 47, 51
1, 58732, Control_c, 0, 64, 92
1, 58742, Note_on_c, 0, 63, 105
1, 58744, Note_on_c, 0, 75, 85
1, 58747, Note_on_c, 0, 67, 86
1, 58747, Control_c, 0, 64, 66
1, 58749, Note_on_c, 0, 51, 92
1, 58754, Note_on_c, 0, 39, 77
1, 58759, Note_on_c, 0, 43, 73
1, 58762, Control_c, 0, 64, 0
1, 58776, Control_c, 0, 64, 52
1, 58781, Note_on_c, 0, 45, 47
1, 58790, Note_off_c, 0, 63, 63
1, 58791, Control_c, 0, 64, 73
1, 58795, Note_off_c, 0, 51, 64
1, 58795, Note_off_c, 0, 67, 61
1, 58802, Note_off_c, 0, 75, 67
1, 58806, Control_c, 0, 64, 94
1, 58812, Note_off_c, 0, 39, 62
1, 58816, Note_off_c, 0, 45, 51
1, 58818, Note_off_c, 0, 43, 60
1, 58821, Control_c, 0, 64, 127
1, 58870, Note_on_c, 0, 62, 98
1, 58874, Note_on_c, 0, 50, 88
1, 58875, Note_on_c, 0, 74, 85
1, 58877, Note_on_c, 0, 43, 70
1, 58880, Note_on_c, 0, 65, 79
1, 58887, Note_on_c, 0, 38, 68
1, 58905, Note_off_c, 0, 65, 70
1, 58920, Note_off_c, 0, 62, 61
1, 58924, Note_off_c, 0, 50, 60
1, 58927, Note_off_c, 0, 43, 59
1, 58930, Note_off_c, 0, 74, 63
1, 58942, Note_off_c, 0, 38, 62
1, 58999, Control_c, 0, 64, 121
1, 59014, Control_c, 0, 64, 85
1, 59026, Note_on_c, 0, 60, 95
1, 59029, Control_c, 0, 64, 56
1, 59031, Note_on_c, 0, 72, 92
1, 59031, Note_on_c, 0, 48, 96
1, 59032, Note_on_c, 0, 63, 91
1, 59037, Note_on_c, 0, 36, 83
1, 59044, Control_c, 0, 64, 0
1, 59046, Note_on_c, 0, 39, 77
1, 59081, Control_c, 0, 64, 64
1, 59086, Note_on_c, 0, 70, 4
1, 59096, Control_c, 0, 64, 79
1, 59111, Control_c, 0, 64, 101
1, 59112, Note_off_c, 0, 72, 61
1, 59121, Note_off_c, 0, 60, 54
1, 59125, Control_c, 0, 64, 124
1, 59130, Note_off_c, 0, 48, 60
1, 59130, Note_off_c, 0, 70, 47
1, 59139, Note_off_c, 0, 36, 59
1, 59140, Control_c, 0, 64, 125
1, 59155, Control_c, 0, 64, 127
1, 59163, Note_off_c, 0, 63, 63
1, 59170, Control_c, 0, 64, 127
1, 59177, Note_off_c, 0, 39, 62
1, 59467, Control_c, 0, 64, 117
1, 59468, Note_on_c, 0, 70, 87
1, 59469, Note_on_c, 0, 46, 102
1, 59469, Note_on_c, 0, 58, 100
1, 59469, Note_on_c, 0, 62, 88
1, 59473, Note_on_c, 0, 34, 82
1, 59473, Note_on_c, 0, 38, 83
1, 59481, Control_c, 0, 64, 101
1, 59496, Control_c, 0, 64, 82
1, 59511, Control_c, 0, 64, 63
1, 59526, Control_c, 0, 64, 0
1, 59690, Control_c, 0, 64, 24
1, 59705, Control_c, 0, 64, 59
1, 59720, Control_c, 0, 64, 66
1, 59734, Control_c, 0, 64, 72
1, 59749, Control_c, 0, 64, 80
1, 59764, Control_c, 0, 64, 88
1, 59779, Control_c, 0, 64, 93
1, 59794, Control_c, 0, 64, 96
1, 59809, Control_c, 0, 64, 99
1, 59826, Note_off_c, 0, 70, 56
1, 59830, Control_c, 0, 64, 103
1, 59839, Note_off_c, 0, 62, 59
1, 59845, Control_c, 0, 64, 107
1, 59860, Control_c, 0, 64, 112
1, 59875, Note_off_c, 0, 58, 59
1, 59875, Control_c, 0, 64, 116
1, 59890, Note_off_c, 0, 38, 61
1, 59890, Control_c, 0, 64, 124
1, 59899, Note_off_c, 0, 34, 63
1, 59905, Control_c, 0, 64, 127
1, 59914, Note_off_c, 0, 46, 62
1, 60127, Control_c, 0, 64, 103
1, 60133, Note_on_c, 0, 54, 88
1, 60133, Note_on_c, 0, 58, 85
1, 60135, Note_on_c, 0, 63, 81
1, 60137, Note_on_c, 0, 46, 75
1, 60141, Control_c, 0, 64, 81
1, 60146, Note_on_c, 0, 42, 72
1, 60156, Control_c, 0, 64, 45
1, 60171, Control_c, 0, 64, 0
1, 60201, Control_c, 0, 64, 65
1, 60215, Control_c, 0, 64, 79
1, 60221, Note_off_c, 0, 58, 60
1, 60230, Control_c, 0, 64, 95
1, 60241, Note_off_c, 0, 63, 62
1, 60245, Control_c, 0, 64, 105
1, 60260, Control_c, 0, 64, 108
1, 60275, Control_c, 0, 64, 114
1, 60289, Control_c, 0, 64, 127
1, 60290, Note_off_c, 0, 46, 60
1, 60313, Note_off_c, 0, 54, 57
1, 60315, Note_off_c, 0, 42, 56
1, 60409, Note_on_c, 0, 63, 83
1, 60413, Note_on_c, 0, 54, 87
1, 60413, Note_on_c, 0, 58, 84
1, 60423, Note_on_c, 0, 42, 67
1, 60430, Note_on_c, 0, 46, 73
1, 60461, Note_off_c, 0, 58, 64
1, 60489, Note_off_c, 0, 46, 62
1, 60489, Note_off_c, 0, 54, 58
1, 60489, Note_off_c, 0, 63, 63
1, 60501, Note_off_c, 0, 42, 62
1, 60716, Note_on_c, 0, 53, 89
1, 60716, Note_on_c, 0, 58, 87
1, 60718, Note_on_c, 0, 62, 88
1, 60723, Note_on_c, 0, 46, 84
1, 60724, Note_on_c, 0, 41, 77
1, 60757, Control_c, 0, 64, 105
1, 60772, Control_c, 0, 64, 89
1, 60787, Control_c, 0, 64, 72
1, 60801, Control_c, 0, 64, 0
1, 60919, Control_c, 0, 64, 60
1, 60934, Control_c, 0, 64, 71
1, 60949, Control_c, 0, 64, 79
1, 60963, Control_c, 0, 64, 88
1, 60978, Control_c, 0, 64, 94
1, 60993, Control_c, 0, 64, 98
1, 61008, Control_c, 0, 64, 102
1, 61023, Control_c, 0, 64, 110
1, 61037, Control_c, 0, 64, 120
1, 61046, Note_off_c, 0, 58, 56
1, 61052, Control_c, 0, 64, 127
1, 61079, Note_off_c, 0, 53, 63
1, 61082, Note_off_c, 0, 41, 65
1, 61085, Note_off_c, 0, 62, 54
1, 61086, Note_off_c, 0, 46, 61
1, 61335, Note_on_c, 0, 51, 83
1, 61339, Note_on_c, 0, 60, 90
1, 61339, Note_on_c, 0, 46, 82
1, 61339, Note_on_c, 0, 58, 87
1, 61342, Note_on_c, 0, 39, 69
1, 61386, Control_c, 0, 64, 110
1, 61401, Control_c, 0, 64, 97
1, 61416, Control_c, 0, 64, 80
1, 61431, Control_c, 0, 64, 62
1, 61446, Control_c, 0, 64, 0
1, 61564, Control_c, 0, 64, 50
1, 61579, Control_c, 0, 64, 66
1, 61593, Control_c, 0, 64, 73
1, 61608, Control_c, 0, 64, 83
1, 61623, Control_c, 0, 64, 90
1, 61638, Control_c, 0, 64, 95
1, 61640, Note_off_c, 0, 60, 57
1, 61646, Note_off_c, 0, 58, 60
1, 61653, Control_c, 0, 64, 100
1, 61667, Control_c, 0, 64, 105
1, 61682, Control_c, 0, 64, 111
1, 61690, Note_off_c, 0, 46, 57
1, 61697, Control_c, 0, 64, 119
1, 61711, Control_c, 0, 64, 127
1, 61713, Note_off_c, 0, 51, 55
1, 61765, Note_off_c, 0, 39, 60
1, 62130, Note_on_c, 0, 58, 85
1, 62139, Note_on_c, 0, 46, 72
1, 62144, Note_on_c, 0, 50, 72
1, 62149, Note_on_c, 0, 38, 62
1, 62179, Control_c, 0, 64, 118
1, 62194, Control_c, 0, 64, 107
1, 62209, Control_c, 0, 64, 97
1, 62224, Control_c, 0, 64, 85
1, 62239, Control_c, 0, 64, 70
1, 62254, Control_c, 0, 64, 0
1, 62580, Control_c, 0, 64, 47
1, 62595, Control_c, 0, 64, 64
1, 62609, Control_c, 0, 64, 68
1, 62624, Control_c, 0, 64, 72
1, 62639, Control_c, 0, 64, 77
1, 62654, Control_c, 0, 64, 82
1, 62668, Control_c, 0, 64, 84
1, 62683, Note_off_c, 0, 50, 29
1, 62683, Control_c, 0, 64, 86
1, 62687, Note_off_c, 0, 58, 58
1, 62698, Control_c, 0, 64, 88
1, 62713, Control_c, 0, 64, 90
1, 62725, Note_off_c, 0, 46, 26
1, 62725, Note_off_c, 0, 38, 30
1, 62728, Control_c, 0, 64, 92
1, 62743, Control_c, 0, 64, 94
1, 62757, Control_c, 0, 64, 96
1, 62772, Control_c, 0, 64, 97
1, 62787, Control_c, 0, 64, 98
1, 62802, Control_c, 0, 64, 99
1, 62824, Control_c, 0, 64, 100
1, 62839, Control_c, 0, 64, 100
1, 62854, Control_c, 0, 64, 101
1, 62883, Control_c, 0, 64, 102
1, 62929, Control_c, 0, 64, 102
1, 63240, Control_c, 0, 64, 102
1, 63270, Control_c, 0, 64, 100
1, 63277, Note_on_c, 0, 68, 56
1, 63284, Control_c, 0, 64, 94
1, 63298, Note_on_c, 0, 63, 45
1, 63299, Control_c, 0, 64, 84
1, 63303, Note_on_c, 0, 48, 41
1, 63313, Note_on_c, 0, 56, 31
1, 63314, Control_c, 0, 64, 70
1, 63329, Control_c, 0, 64, 0
1, 63403, Control_c, 0, 64, 62
1, 63418, Control_c, 0, 64, 70
1, 63432, Control_c, 0, 64, 77
1, 63447, Control_c, 0, 64, 83
1, 63462, Control_c, 0, 64, 86
1, 63477, Control_c, 0, 64, 87
1, 63478, Note_off_c, 0, 63, 42
1, 63491, Control_c, 0, 64, 89
1, 63495, Note_off_c, 0, 68, 52
1, 63500, Note_off_c, 0, 48, 41
1, 63506, Control_c, 0, 64, 90
1, 63515, Note_off_c, 0, 56, 35
1, 63521, Control_c, 0, 64, 92
1, 63536, Control_c, 0, 64, 93
1, 63551, Control_c, 0, 64, 94
1, 63573, Control_c, 0, 64, 95
1, 63588, Control_c, 0, 64, 95
1, 63603, Control_c, 0, 64, 96
1, 63618, Control_c, 0, 64, 96
1, 63633, Control_c, 0, 64, 97
1, 63634, Note_on_c, 0, 68, 60
1, 63646, Note_on_c, 0, 63, 46
1, 63647, Control_c, 0, 64, 97
1, 63661, Note_on_c, 0, 56, 38
1, 63662, Control_c, 0, 64, 98
1, 63663, Note_on_c, 0, 48, 37
1, 63677, Control_c, 0, 64, 98
1, 63708, Control_c, 0, 64, 99
1, 63722, Control_c, 0, 64, 99
1, 63732, Note_off_c, 0, 63, 57
1, 63767, Control_c, 0, 64, 100
1, 63774, Note_off_c, 0, 68, 53
1, 63787, Note_off_c, 0, 56, 30
1, 63807, Note_off_c, 0, 48, 44
1, 63841, Control_c, 0, 64, 100
1, 63914, Control_c, 0, 64, 101
1, 64003, Control_c, 0, 64, 101
1, 64138, Note_on_c, 0, 67, 48
1, 64165, Note_on_c, 0, 48, 36
1, 64166, Note_on_c, 0, 63, 34
1, 64179, Note_on_c, 0, 57, 26
1, 64181, Control_c, 0, 64, 101
1, 64196, Control_c, 0, 64, 100
1, 64211, Control_c, 0, 64, 97
1, 64226, Control_c, 0, 64, 92
1, 64241, Control_c, 0, 64, 84
1, 64255, Control_c, 0, 64, 73
1, 64270, Control_c, 0, 64, 46
1, 64285, Control_c, 0, 64, 0
1, 64381, Control_c, 0, 64, 57
1, 64396, Control_c, 0, 64, 66
1, 64411, Control_c, 0, 64, 70
1, 64426, Control_c, 0, 64, 75
1, 64441, Control_c, 0, 64, 79
1, 64456, Control_c, 0, 64, 82
1, 64470, Control_c, 0, 64, 84
1, 64486, Control_c, 0, 64, 86
1, 64501, Control_c, 0, 64, 87
1, 64516, Control_c, 0, 64, 89
1, 64527, Note_off_c, 0, 67, 31
1, 64531, Control_c, 0, 64, 90
1, 64545, Control_c, 0, 64, 91
1, 64560, Control_c, 0, 64, 92
1, 64575, Control_c, 0, 64, 93
1, 64590, Control_c, 0, 64, 93
1, 64605, Control_c, 0, 64, 94
1, 64614, Note_off_c, 0, 57, 28
1, 64619, Control_c, 0, 64, 94
1, 64623, Note_off_c, 0, 63, 33
1, 64634, Control_c, 0, 64, 95
1, 64649, Control_c, 0, 64, 95
1, 64662, Note_off_c, 0, 48, 35
1, 64664, Control_c, 0, 64, 96
1, 64679, Control_c, 0, 64, 96
1, 64708, Control_c, 0, 64, 97
1, 64767, Control_c, 0, 64, 97
1, 64871, Control_c, 0, 64, 98
1, 64916, Control_c, 0, 64, 98
1, 65224, Note_on_c, 0, 65, 38
1, 65241, Note_on_c, 0, 63, 31
1, 65245, Note_on_c, 0, 47, 32
1, 65245, Note_on_c, 0, 57, 25
1, 65294, Control_c, 0, 64, 97
1, 65309, Control_c, 0, 64, 96
1, 65324, Control_c, 0, 64, 93
1, 65339, Control_c, 0, 64, 88
1, 65353, Control_c, 0, 64, 81
1, 65368, Control_c, 0, 64, 73
1, 65383, Control_c, 0, 64, 62
1, 65398, Control_c, 0, 64, 0
1, 65575, Control_c, 0, 64, 39
1, 65590, Control_c, 0, 64, 60
1, 65605, Control_c, 0, 64, 65
1, 65620, Control_c, 0, 64, 69
1, 65634, Control_c, 0, 64, 73
1, 65649, Control_c, 0, 64, 77
1, 65664, Control_c, 0, 64, 80
1, 65679, Control_c, 0, 64, 82
1, 65694, Control_c, 0, 64, 83
1, 65709, Control_c, 0, 64, 84
1, 65723, Control_c, 0, 64, 86
1, 65738, Control_c, 0, 64, 88
1, 65753, Control_c, 0, 64, 89
1, 65768, Control_c, 0, 64, 90
1, 65783, Control_c, 0, 64, 90
1, 65798, Control_c, 0, 64, 91
1, 65820, Control_c, 0, 64, 93
1, 65822, Note_off_c, 0, 63, 33
1, 65827, Note_off_c, 0, 65, 33
1, 65834, Control_c, 0, 64, 94
1, 65838, Note_off_c, 0, 57, 36
1, 65864, Control_c, 0, 64, 94
1, 65879, Control_c, 0, 64, 95
1, 65884, Note_off_c, 0, 47, 41
1, 65893, Control_c, 0, 64, 95
1, 65908, Control_c, 0, 64, 96
1, 65968, Control_c, 0, 64, 97
1, 66487, Control_c, 0, 64, 96
1, 66493, Note_on_c, 0, 65, 38
1, 66495, Note_on_c, 0, 62, 32
1, 66500, Note_on_c, 0, 58, 25
1, 66501, Control_c, 0, 64, 96
1, 66516, Control_c, 0, 64, 94
1, 66521, Note_on_c, 0, 46, 21
1, 66531, Control_c, 0, 64, 92
1, 66546, Control_c, 0, 64, 86
1, 66569, Control_c, 0, 64, 78
1, 66583, Control_c, 0, 64, 65
1, 66598, Control_c, 0, 64, 0
1, 66663, Note_off_c, 0, 62, 39
1, 66716, Control_c, 0, 64, 35
1, 66731, Control_c, 0, 64, 61
1, 66746, Control_c, 0, 64, 66
1, 66761, Control_c, 0, 64, 70
1, 66776, Control_c, 0, 64, 74
1, 66791, Control_c, 0, 64, 78
1, 66806, Control_c, 0, 64, 80
1, 66820, Control_c, 0, 64, 81
1, 66835, Control_c, 0, 64, 81
1, 66841, Note_off_c, 0, 65, 36
1, 66858, Note_off_c, 0, 46, 34
1, 66865, Control_c, 0, 64, 82
1, 66874, Note_on_c, 0, 67, 47
1, 66880, Control_c, 0, 64, 82
1, 66882, Note_on_c, 0, 63, 48
1, 66895, Control_c, 0, 64, 83
1, 66897, Note_on_c, 0, 51, 34
1, 66986, Note_off_c, 0, 67, 51
1, 67017, Note_off_c, 0, 63, 35
1, 67041, Note_off_c, 0, 51, 36
1, 67133, Note_on_c, 0, 67, 58
1, 67147, Note_on_c, 0, 63, 52
1, 67147, Control_c, 0, 64, 82
1, 67160, Note_on_c, 0, 51, 41
1, 67162, Control_c, 0, 64, 80
1, 67177, Control_c, 0, 64, 74
1, 67192, Control_c, 0, 64, 64
1, 67206, Control_c, 0, 64, 0
1, 67316, Note_off_c, 0, 67, 48
1, 67319, Note_off_c, 0, 63, 58
1, 67347, Control_c, 0, 64, 28
1, 67362, Control_c, 0, 64, 50
1, 67377, Note_off_c, 0, 51, 41
1, 67377, Control_c, 0, 64, 57
1, 67391, Note_on_c, 0, 65, 46
1, 67392, Control_c, 0, 64, 59
1, 67394, Note_on_c, 0, 62, 44
1, 67406, Control_c, 0, 64, 60
1, 67421, Note_on_c, 0, 46, 27
1, 67421, Control_c, 0, 64, 61
1, 67436, Control_c, 0, 64, 61
1, 67451, Control_c, 0, 64, 62
1, 67465, Control_c, 0, 64, 63
1, 67467, Note_off_c, 0, 62, 53
1, 67469, Note_off_c, 0, 58, 38
1, 67480, Control_c, 0, 64, 63
1, 67495, Control_c, 0, 64, 63
1, 67517, Note_off_c, 0, 65, 57
1, 67525, Control_c, 0, 64, 62
1, 67554, Note_off_c, 0, 46, 31
1, 67584, Control_c, 0, 64, 61
1, 67599, Control_c, 0, 64, 56
1, 67611, Note_on_c, 0, 63, 46
1, 67613, Control_c, 0, 64, 34
1, 67619, Note_on_c, 0, 67, 44
1, 67628, Note_on_c, 0, 51, 31
1, 67628, Control_c, 0, 64, 0
1, 67677, Poly_aftertouch_c, 0, 58, 127
1, 67700, Note_off_c, 0, 63, 50
1, 67706, Note_off_c, 0, 51, 42
1, 67709, Note_off_c, 0, 67, 46
1, 67727, Note_on_c, 0, 65, 45
1, 67729, Note_on_c, 0, 62, 42
1, 67747, Poly_aftertouch_c, 0, 58, 0
1, 67748, Control_c, 0, 64, 26
1, 67760, Note_on_c, 0, 46, 28
1, 67762, Control_c, 0, 64, 55
1, 67777, Control_c, 0, 64, 61
1, 67792, Control_c, 0, 64, 62
1, 67807, Control_c, 0, 64, 63
1, 67822, Control_c, 0, 64, 65
1, 67837, Control_c, 0, 64, 67
1, 67838, Note_off_c, 0, 46, 38
1, 67844, Note_off_c, 0, 65, 59
1, 67847, Note_on_c, 0, 63, 49
1, 67847, Note_on_c, 0, 67, 55
1, 67852, Control_c, 0, 64, 69
1, 67856, Note_off_c, 0, 62, 30
1, 67864, Note_on_c, 0, 51, 34
1, 67867, Control_c, 0, 64, 71
1, 67881, Control_c, 0, 64, 72
1, 67896, Control_c, 0, 64, 73
1, 67911, Control_c, 0, 64, 74
1, 67926, Control_c, 0, 64, 75
1, 67934, Note_off_c, 0, 67, 51
1, 67941, Control_c, 0, 64, 75
1, 67950, Note_off_c, 0, 63, 53
1, 67953, Note_off_c, 0, 51, 48
1, 67955, Control_c, 0, 64, 76
1, 68081, Control_c, 0, 64, 75
1, 68090, Note_on_c, 0, 65, 54
1, 68093, Note_on_c, 0, 62, 47
1, 68096, Control_c, 0, 64, 74
1, 68107, Note_on_c, 0, 58, 39
1, 68111, Control_c, 0, 64, 69
1, 68123, Note_on_c, 0, 46, 36
1, 68126, Control_c, 0, 64, 59
1, 68141, Control_c, 0, 64, 0
1, 68274, Control_c, 0, 64, 54
1, 68288, Control_c, 0, 64, 63
1, 68303, Control_c, 0, 64, 66
1, 68318, Control_c, 0, 64, 68
1, 68320, Note_off_c, 0, 65, 56
1, 68324, Note_off_c, 0, 46, 39
1, 68333, Control_c, 0, 64, 71
1, 68335, Note_on_c, 0, 67, 60
1, 68348, Note_on_c, 0, 51, 40
1, 68348, Note_on_c, 0, 63, 54
1, 68348, Control_c, 0, 64, 74
1, 68362, Control_c, 0, 64, 77
1, 68377, Control_c, 0, 64, 79
1, 68385, Note_off_c, 0, 62, 20
1, 68392, Control_c, 0, 64, 79
1, 68407, Control_c, 0, 64, 80
1, 68415, Note_off_c, 0, 67, 59
1, 68424, Note_off_c, 0, 58, 42
1, 68424, Note_off_c, 0, 51, 45
1, 68436, Control_c, 0, 64, 80
1, 68445, Note_off_c, 0, 63, 59
1, 68451, Control_c, 0, 64, 81
1, 68466, Control_c, 0, 64, 82
1, 68600, Control_c, 0, 64, 81
1, 68615, Control_c, 0, 64, 80
1, 68622, Note_on_c, 0, 68, 58
1, 68630, Control_c, 0, 64, 77
1, 68636, Note_on_c, 0, 63, 30
1, 68638, Note_on_c, 0, 44, 36
1, 68645, Note_on_c, 0, 60, 43
1, 68645, Control_c, 0, 64, 72
1, 68660, Control_c, 0, 64, 64
1, 68675, Control_c, 0, 64, 0
1, 68702, Note_off_c, 0, 60, 53
1, 68741, Note_off_c, 0, 63, 32
1, 68914, Note_off_c, 0, 44, 39
1, 68916, Note_on_c, 0, 67, 53
1, 68925, Note_on_c, 0, 51, 33
1, 68934, Note_on_c, 0, 58, 36
1, 68941, Note_off_c, 0, 68, 38
1, 68964, Control_c, 0, 64, 34
1, 68978, Control_c, 0, 64, 60
1, 68993, Control_c, 0, 64, 64
1, 69008, Control_c, 0, 64, 66
1, 69023, Note_off_c, 0, 67, 58
1, 69023, Control_c, 0, 64, 68
1, 69038, Control_c, 0, 64, 70
1, 69053, Control_c, 0, 64, 74
1, 69068, Control_c, 0, 64, 77
1, 69077, Note_off_c, 0, 58, 38
1, 69083, Control_c, 0, 64, 78
1, 69098, Control_c, 0, 64, 79
1, 69101, Note_off_c, 0, 51, 38
1, 69112, Control_c, 0, 64, 79
1, 69127, Control_c, 0, 64, 80
1, 69142, Control_c, 0, 64, 81
1, 69157, Control_c, 0, 64, 81
1, 69283, Note_on_c, 0, 65, 43
1, 69295, Note_on_c, 0, 62, 36
1, 69318, Note_on_c, 0, 46, 37
1, 69327, Note_on_c, 0, 58, 13
1, 69335, Control_c, 0, 64, 80
1, 69350, Control_c, 0, 64, 78
1, 69365, Control_c, 0, 64, 73
1, 69380, Control_c, 0, 64, 64
1, 69395, Control_c, 0, 64, 0
1, 69420, Note_off_c, 0, 58, 0
1, 69458, Poly_aftertouch_c, 0, 58, 127
1, 69498, Control_c, 0, 64, 47
1, 69513, Control_c, 0, 64, 63
1, 69527, Control_c, 0, 64, 67
1, 69542, Control_c, 0, 64, 70
1, 69565, Control_c, 0, 64, 73
1, 69569, Poly_aftertouch_c, 0, 58, 0
1, 69569, Note_off_c, 0, 62, 33
1, 69580, Control_c, 0, 64, 76
1, 69595, Control_c, 0, 64, 78
1, 69609, Control_c, 0, 64, 79
1, 69624, Control_c, 0, 64, 80
1, 69627, Note_off_c, 0, 65, 36
1, 69638, Note_off_c, 0, 46, 33
1, 69639, Control_c, 0, 64, 80
1, 70129, Note_on_c, 0, 70, 53
1, 70158, Note_on_c, 0, 43, 33
1, 70172, Control_c, 0, 64, 78
1, 70180, Note_on_c, 0, 63, 27
1, 70187, Control_c, 0, 64, 72
1, 70189, Note_on_c, 0, 58, 12
1, 70202, Control_c, 0, 64, 62
1, 70217, Control_c, 0, 64, 0
1, 70263, Note_off_c, 0, 58, 43
1, 70285, Note_off_c, 0, 63, 29
1, 70290, Control_c, 0, 64, 51
1, 70313, Control_c, 0, 64, 64
1, 70328, Control_c, 0, 64, 67
1, 70343, Control_c, 0, 64, 70
1, 70357, Control_c, 0, 64, 73
1, 70372, Control_c, 0, 64, 76
1, 70387, Control_c, 0, 64, 78
1, 70402, Control_c, 0, 64, 79
1, 70417, Control_c, 0, 64, 79
1, 70431, Control_c, 0, 64, 80
1, 70439, Note_on_c, 0, 67, 59
1, 70446, Control_c, 0, 64, 80
1, 70453, Note_off_c, 0, 70, 29
1, 70457, Note_on_c, 0, 48, 41
1, 70457, Note_on_c, 0, 63, 45
1, 70461, Control_c, 0, 64, 81
1, 70463, Note_off_c, 0, 43, 34
1, 70473, Note_on_c, 0, 60, 35
1, 70475, Control_c, 0, 64, 81
1, 70490, Control_c, 0, 64, 82
1, 70502, Note_off_c, 0, 63, 44
1, 70508, Note_off_c, 0, 60, 49
1, 70534, Note_off_c, 0, 67, 57
1, 70598, Note_off_c, 0, 48, 40
1, 70711, Note_on_c, 0, 67, 66
1, 70725, Note_on_c, 0, 48, 40
1, 70728, Note_on_c, 0, 63, 50
1, 70728, Control_c, 0, 64, 81
1, 70734, Note_on_c, 0, 60, 39
1, 70743, Control_c, 0, 64, 78
1, 70757, Control_c, 0, 64, 72
1, 70772, Control_c, 0, 64, 61
1, 70775, Note_off_c, 0, 60, 45
1, 70787, Control_c, 0, 64, 0
1, 70892, Control_c, 0, 64, 55
1, 70906, Control_c, 0, 64, 64
1, 70921, Control_c, 0, 64, 67
1, 70936, Control_c, 0, 64, 69
1, 70943, Note_off_c, 0, 48, 40
1, 70945, Note_on_c, 0, 68, 66
1, 70951, Control_c, 0, 64, 71
1, 70964, Note_on_c, 0, 41, 41
1, 70966, Control_c, 0, 64, 74
1, 70970, Note_off_c, 0, 67, 55
1, 70980, Control_c, 0, 64, 76
1, 70995, Control_c, 0, 64, 77
1, 71010, Control_c, 0, 64, 78
1, 71014, Note_off_c, 0, 41, 51
1, 71018, Note_off_c, 0, 63, 41
1, 71025, Control_c, 0, 64, 79
1, 71026, Note_off_c, 0, 68, 61
1, 71040, Control_c, 0, 64, 79
1, 71180, Control_c, 0, 64, 79
1, 71195, Control_c, 0, 64, 78
1, 71198, Note_on_c, 0, 62, 53
1, 71202, Note_on_c, 0, 46, 46
1, 71210, Control_c, 0, 64, 77
1, 71211, Note_on_c, 0, 65, 54
1, 71225, Control_c, 0, 64, 74
1, 71231, Note_on_c, 0, 58, 9
1, 71240, Control_c, 0, 64, 69
1, 71254, Control_c, 0, 64, 60
1, 71268, Note_off_c, 0, 46, 40
1, 71269, Control_c, 0, 64, 0
1, 71297, Note_off_c, 0, 58, 40
1, 71298, Note_off_c, 0, 62, 45
1, 71302, Note_off_c, 0, 65, 60
1, 71319, Note_on_c, 0, 67, 51
1, 71322, Note_on_c, 0, 63, 49
1, 71331, Note_on_c, 0, 39, 37
1, 71372, Note_off_c, 0, 63, 58
1, 71435, Note_off_c, 0, 39, 45
1, 71444, Note_off_c, 0, 67, 37
1, 71449, Note_on_c, 0, 62, 44
1, 71451, Note_on_c, 0, 46, 45
1, 71451, Note_on_c, 0, 65, 48
1, 71472, Note_on_c, 0, 58, 27
1, 71506, Control_c, 0, 64, 24
1, 71521, Control_c, 0, 64, 60
1, 71527, Note_off_c, 0, 58, 43
1, 71536, Control_c, 0, 64, 66
1, 71538, Note_off_c, 0, 62, 54
1, 71551, Control_c, 0, 64, 69
1, 71553, Note_off_c, 0, 46, 54
1, 71557, Note_off_c, 0, 65, 62
1, 71566, Control_c, 0, 64, 72
1, 71580, Control_c, 0, 64, 75
1, 71595, Control_c, 0, 64, 78
1, 71610, Control_c, 0, 64, 79
1, 71624, Control_c, 0, 64, 80
1, 71639, Control_c, 0, 64, 81
1, 71759, Control_c, 0, 64, 79
1, 71760, Note_on_c, 0, 70, 50
1, 71774, Control_c, 0, 64, 73
1, 71777, Note_on_c, 0, 63, 42
1, 71796, Note_on_c, 0, 43, 33
1, 71796, Control_c, 0, 64, 62
1, 71810, Control_c, 0, 64, 0
1, 71847, Poly_aftertouch_c, 0, 58, 127
1, 71868, Poly_aftertouch_c, 0, 58, 0
1, 71885, Control_c, 0, 64, 53
1, 71900, Control_c, 0, 64, 64
1, 71911, Note_off_c, 0, 63, 38
1, 71915, Control_c, 0, 64, 67
1, 71929, Control_c, 0, 64, 70
1, 71944, Control_c, 0, 64, 73
1, 71955, Note_off_c, 0, 70, 55
1, 71959, Control_c, 0, 64, 75
1, 71974, Control_c, 0, 64, 76
1, 71989, Control_c, 0, 64, 77
1, 72000, Note_off_c, 0, 43, 38
1, 72003, Control_c, 0, 64, 78
1, 72026, Note_on_c, 0, 67, 60
1, 72031, Note_on_c, 0, 48, 43
1, 72034, Control_c, 0, 64, 78
1, 72043, Note_on_c, 0, 63, 40
1, 72048, Control_c, 0, 64, 79
1, 72063, Control_c, 0, 64, 79
1, 72064, Note_on_c, 0, 60, 25
1, 72088, Note_off_c, 0, 63, 44
1, 72112, Note_off_c, 0, 60, 45
1, 72112, Note_off_c, 0, 67, 50
1, 72169, Note_off_c, 0, 48, 43
1, 72270, Control_c, 0, 64, 79
1, 72285, Control_c, 0, 64, 78
1, 72296, Note_on_c, 0, 63, 47
1, 72300, Note_on_c, 0, 48, 41
1, 72300, Control_c, 0, 64, 77
1, 72302, Note_on_c, 0, 67, 51
1, 72312, Note_on_c, 0, 60, 34
1, 72315, Control_c, 0, 64, 73
1, 72329, Control_c, 0, 64, 66
1, 72344, Control_c, 0, 64, 43
1, 72359, Control_c, 0, 64, 0
1, 72362, Note_off_c, 0, 60, 42
1, 72404, Control_c, 0, 64, 17
1, 72415, Note_off_c, 0, 48, 43
1, 72419, Control_c, 0, 64, 23
1, 72431, Note_on_c, 0, 68, 49
1, 72433, Control_c, 0, 64, 0
1, 72439, Note_on_c, 0, 41, 28
1, 72440, Note_off_c, 0, 63, 42
1, 72473, Note_off_c, 0, 67, 36
1, 72565, Note_off_c, 0, 68, 56
1, 72599, Note_on_c, 0, 65, 46
1, 72612, Note_on_c, 0, 62, 36
1, 72620, Note_on_c, 0, 58, 16
1, 72639, Note_on_c, 0, 46, 34
1, 72663, Note_off_c, 0, 41, 39
1, 72708, Control_c, 0, 64, 36
1, 72723, Control_c, 0, 64, 62
1, 72738, Control_c, 0, 64, 67
1, 72749, Note_off_c, 0, 65, 57
1, 72752, Control_c, 0, 64, 70
1, 72754, Note_off_c, 0, 58, 39
1, 72767, Control_c, 0, 64, 73
1, 72770, Note_off_c, 0, 62, 39
1, 72781, Control_c, 0, 64, 76
1, 72791, Note_off_c, 0, 46, 38
1, 72796, Control_c, 0, 64, 79
1, 72811, Control_c, 0, 64, 80
1, 72825, Control_c, 0, 64, 81
1, 72840, Control_c, 0, 64, 81
1, 72855, Control_c, 0, 64, 82
1, 72869, Control_c, 0, 64, 83
1, 72884, Control_c, 0, 64, 83
1, 72914, Control_c, 0, 64, 84
1, 72967, Note_on_c, 0, 65, 48
1, 72985, Note_on_c, 0, 62, 36
1, 73005, Note_on_c, 0, 58, 20
1, 73012, Note_on_c, 0, 46, 43
1, 73018, Control_c, 0, 64, 83
1, 73033, Control_c, 0, 64, 81
1, 73048, Control_c, 0, 64, 74
1, 73062, Control_c, 0, 64, 63
1, 73074, Note_off_c, 0, 58, 39
1, 73077, Control_c, 0, 64, 0
1, 73113, Note_off_c, 0, 46, 0
1, 73113, Note_on_c, 0, 46, 4
1, 73122, Control_c, 0, 64, 50
1, 73137, Control_c, 0, 64, 65
1, 73151, Control_c, 0, 64, 69
1, 73166, Control_c, 0, 64, 73
1, 73170, Note_off_c, 0, 62, 32
1, 73181, Control_c, 0, 64, 77
1, 73191, Note_off_c, 0, 46, 41
1, 73196, Control_c, 0, 64, 80
1, 73211, Control_c, 0, 64, 81
1, 73225, Control_c, 0, 64, 82
1, 73236, Note_off_c, 0, 65, 36
1, 73240, Control_c, 0, 64, 83
1, 73255, Control_c, 0, 64, 83
1, 73271, Control_c, 0, 64, 84
1, 73286, Control_c, 0, 64, 84
1, 73322, Control_c, 0, 64, 85
1, 73345, Note_on_c, 0, 58, 37
1, 73413, Note_off_c, 0, 58, 39
1, 73456, Control_c, 0, 64, 85
1, 73766, Control_c, 0, 64, 85
1, 73778, Note_on_c, 0, 65, 45
1, 73796, Control_c, 0, 64, 83
1, 73800, Note_on_c, 0, 58, 27
1, 73804, Note_on_c, 0, 62, 23
1, 73805, Note_on_c, 0, 46, 37
1, 73811, Control_c, 0, 64, 79
1, 73826, Control_c, 0, 64, 73
1, 73840, Control_c, 0, 64, 62
1, 73855, Control_c, 0, 64, 0
1, 73865, Note_off_c, 0, 62, 41
1, 73930, Control_c, 0, 64, 48
1, 73945, Control_c, 0, 64, 63
1, 73960, Control_c, 0, 64, 66
1, 73974, Control_c, 0, 64, 69
1, 73989, Control_c, 0, 64, 71
1, 74004, Control_c, 0, 64, 74
1, 74018, Control_c, 0, 64, 76
1, 74033, Control_c, 0, 64, 77
1, 74047, Note_off_c, 0, 65, 32
1, 74049, Note_off_c, 0, 46, 36
1, 74055, Control_c, 0, 64, 78
1, 74071, Control_c, 0, 64, 79
1, 74080, Note_on_c, 0, 67, 52
1, 74085, Note_on_c, 0, 63, 47
1, 74086, Control_c, 0, 64, 79
1, 74098, Note_on_c, 0, 51, 34
1, 74116, Control_c, 0, 64, 80
1, 74130, Control_c, 0, 64, 80
1, 74149, Note_off_c, 0, 67, 49
1, 74189, Note_off_c, 0, 63, 36
1, 74193, Note_off_c, 0, 51, 35
1, 74324, Note_on_c, 0, 67, 56
1, 74328, Note_on_c, 0, 51, 43
1, 74335, Note_on_c, 0, 63, 49
1, 74338, Control_c, 0, 64, 80
1, 74353, Control_c, 0, 64, 78
1, 74368, Control_c, 0, 64, 73
1, 74383, Control_c, 0, 64, 63
1, 74397, Control_c, 0, 64, 0
1, 74488, Note_off_c, 0, 67, 51
1, 74496, Note_off_c, 0, 63, 55
1, 74501, Control_c, 0, 64, 58
1, 74503, Note_off_c, 0, 58, 39
1, 74512, Note_off_c, 0, 51, 51
1, 74515, Control_c, 0, 64, 65
1, 74530, Control_c, 0, 64, 67
1, 74545, Control_c, 0, 64, 69
1, 74557, Note_on_c, 0, 46, 43
1, 74560, Control_c, 0, 64, 71
1, 74562, Note_on_c, 0, 65, 56
1, 74564, Note_on_c, 0, 62, 49
1, 74575, Control_c, 0, 64, 74
1, 74589, Control_c, 0, 64, 76
1, 74604, Control_c, 0, 64, 78
1, 74618, Note_off_c, 0, 62, 53
1, 74619, Control_c, 0, 64, 78
1, 74671, Note_off_c, 0, 46, 36
1, 74684, Note_off_c, 0, 65, 56
1, 74766, Note_on_c, 0, 67, 58
1, 74770, Note_on_c, 0, 63, 56
1, 74778, Note_on_c, 0, 51, 41
1, 74804, Control_c, 0, 64, 78
1, 74814, Note_on_c, 0, 58, 14
1, 74819, Control_c, 0, 64, 76
1, 74834, Control_c, 0, 64, 70
1, 74848, Control_c, 0, 64, 54
1, 74854, Note_off_c, 0, 63, 51
1, 74861, Note_off_c, 0, 51, 42
1, 74863, Control_c, 0, 64, 0
1, 74867, Note_off_c, 0, 67, 53
1, 74878, Note_off_c, 0, 58, 40
1, 74883, Note_on_c, 0, 62, 51
1, 74891, Note_on_c, 0, 65, 52
1, 74895, Note_on_c, 0, 46, 40
1, 74981, Note_off_c, 0, 46, 36
1, 74983, Control_c, 0, 64, 36
1, 74992, Note_on_c, 0, 63, 58
1, 74994, Note_off_c, 0, 65, 60
1, 74996, Note_on_c, 0, 67, 57
1, 74998, Note_off_c, 0, 62, 45
1, 74998, Control_c, 0, 64, 46
1, 75011, Note_on_c, 0, 51, 36
1, 75013, Control_c, 0, 64, 37
1, 75028, Control_c, 0, 64, 28
1, 75043, Control_c, 0, 64, 31
1, 75058, Control_c, 0, 64, 37
1, 75072, Control_c, 0, 64, 38
1, 75087, Control_c, 0, 64, 37
1, 75102, Control_c, 0, 64, 31
1, 75110, Note_off_c, 0, 67, 44
1, 75117, Control_c, 0, 64, 13
1, 75122, Note_off_c, 0, 63, 57
1, 75132, Control_c, 0, 64, 0
1, 75189, Note_off_c, 0, 51, 40
1, 75238, Note_on_c, 0, 65, 53
1, 75245, Note_on_c, 0, 62, 45
1, 75255, Note_on_c, 0, 46, 41
1, 75256, Note_on_c, 0, 58, 37
1, 75478, Note_off_c, 0, 65, 54
1, 75485, Note_on_c, 0, 67, 58
1, 75492, Note_on_c, 0, 63, 50
1, 75492, Note_off_c, 0, 46, 40
1, 75507, Note_on_c, 0, 51, 39
1, 75517, Control_c, 0, 64, 23
1, 75532, Control_c, 0, 64, 59
1, 75546, Note_off_c, 0, 62, 34
1, 75554, Control_c, 0, 64, 64
1, 75569, Control_c, 0, 64, 67
1, 75574, Note_off_c, 0, 58, 41
1, 75584, Control_c, 0, 64, 70
1, 75591, Note_off_c, 0, 51, 53
1, 75592, Note_off_c, 0, 67, 60
1, 75599, Control_c, 0, 64, 73
1, 75613, Control_c, 0, 64, 77
1, 75621, Note_off_c, 0, 63, 61
1, 75628, Control_c, 0, 64, 79
1, 75643, Control_c, 0, 64, 79
1, 75763, Control_c, 0, 64, 79
1, 75773, Note_on_c, 0, 68, 56
1, 75775, Note_on_c, 0, 63, 40
1, 75776, Control_c, 0, 64, 78
1, 75791, Control_c, 0, 64, 76
1, 75799, Note_on_c, 0, 60, 38
1, 75802, Note_on_c, 0, 44, 33
1, 75806, Control_c, 0, 64, 71
1, 75821, Control_c, 0, 64, 63
1, 75836, Control_c, 0, 64, 0
1, 75853, Note_off_c, 0, 60, 41
1, 75912, Note_off_c, 0, 63, 37
1, 76037, Note_off_c, 0, 68, 49
1, 76066, Note_on_c, 0, 67, 50
1, 76079, Note_off_c, 0, 44, 39
1, 76082, Note_on_c, 0, 58, 35
1, 76085, Note_on_c, 0, 51, 32
1, 76191, Control_c, 0, 64, 32
1, 76206, Control_c, 0, 64, 61
1, 76207, Note_off_c, 0, 67, 59
1, 76220, Control_c, 0, 64, 65
1, 76235, Control_c, 0, 64, 69
1, 76250, Control_c, 0, 64, 72
1, 76265, Control_c, 0, 64, 75
1, 76266, Note_off_c, 0, 58, 34
1, 76280, Control_c, 0, 64, 78
1, 76302, Control_c, 0, 64, 80
1, 76310, Note_off_c, 0, 51, 33
1, 76317, Control_c, 0, 64, 81
1, 76332, Control_c, 0, 64, 81
1, 76347, Control_c, 0, 64, 82
1, 76376, Control_c, 0, 64, 82
1, 76489, Note_on_c, 0, 58, 26
1, 76489, Note_on_c, 0, 65, 38
1, 76493, Note_on_c, 0, 62, 34
1, 76511, Note_on_c, 0, 46, 30
1, 76525, Control_c, 0, 64, 82
1, 76540, Control_c, 0, 64, 81
1, 76555, Control_c, 0, 64, 80
1, 76570, Control_c, 0, 64, 76
1, 76585, Control_c, 0, 64, 70
1, 76599, Control_c, 0, 64, 52
1, 76614, Control_c, 0, 64, 0
1, 76717, Control_c, 0, 64, 56
1, 76732, Control_c, 0, 64, 64
1, 76747, Control_c, 0, 64, 67
1, 76751, Note_off_c, 0, 58, 21
1, 76762, Control_c, 0, 64, 70
1, 76768, Note_off_c, 0, 62, 34
1, 76777, Control_c, 0, 64, 73
1, 76792, Control_c, 0, 64, 76
1, 76806, Control_c, 0, 64, 77
1, 76821, Control_c, 0, 64, 78
1, 76836, Control_c, 0, 64, 79
1, 76839, Note_off_c, 0, 65, 41
1, 76851, Note_off_c, 0, 46, 36
1, 76851, Control_c, 0, 64, 80
1, 76866, Control_c, 0, 64, 81
1, 76881, Control_c, 0, 64, 81
1, 76910, Control_c, 0, 64, 82
1, 76955, Control_c, 0, 64, 82
1, 77316, Note_on_c, 0, 70, 44
1, 77332, Note_on_c, 0, 63, 37
1, 77348, Control_c, 0, 64, 82
1, 77358, Note_on_c, 0, 43, 35
1, 77358, Note_on_c, 0, 58, 24
1, 77363, Control_c, 0, 64, 80
1, 77378, Control_c, 0, 64, 75
1, 77393, Control_c, 0, 64, 62
1, 77407, Control_c, 0, 64, 0
1, 77428, Note_off_c, 0, 58, 38
1, 77466, Control_c, 0, 64, 21
1, 77481, Control_c, 0, 64, 61
1, 77496, Control_c, 0, 64, 65
1, 77509, Note_off_c, 0, 63, 36
1, 77511, Control_c, 0, 64, 68
1, 77526, Control_c, 0, 64, 71
1, 77540, Control_c, 0, 64, 74
1, 77555, Control_c, 0, 64, 76
1, 77570, Control_c, 0, 64, 77
1, 77585, Control_c, 0, 64, 78
1, 77600, Control_c, 0, 64, 79
1, 77629, Control_c, 0, 64, 79
1, 77641, Note_on_c, 0, 67, 55
1, 77650, Note_on_c, 0, 48, 44
1, 77651, Note_off_c, 0, 70, 32
1, 77658, Note_on_c, 0, 63, 35
1, 77659, Control_c, 0, 64, 80
1, 77664, Note_off_c, 0, 43, 35
1, 77701, Note_off_c, 0, 63, 45
1, 77739, Note_off_c, 0, 67, 53
1, 77749, Poly_aftertouch_c, 0, 60, 0
1, 77775, Note_off_c, 0, 48, 44
1, 77918, Control_c, 0, 64, 79
1, 77924, Note_on_c, 0, 48, 43
1, 77924, Note_on_c, 0, 67, 63
1, 77933, Control_c, 0, 64, 78
1, 77945, Note_on_c, 0, 63, 39
1, 77948, Control_c, 0, 64, 75
1, 77963, Note_on_c, 0, 60, 18
1, 77963, Control_c, 0, 64, 66
1, 77978, Control_c, 0, 64, 0
1, 78026, Note_off_c, 0, 60, 39
1, 78082, Control_c, 0, 64, 42
1, 78097, Control_c, 0, 64, 61
1, 78112, Control_c, 0, 64, 65
1, 78127, Control_c, 0, 64, 67
1, 78142, Control_c, 0, 64, 69
1, 78156, Control_c, 0, 64, 71
1, 78160, Note_off_c, 0, 48, 42
1, 78171, Control_c, 0, 64, 73
1, 78172, Note_on_c, 0, 68, 64
1, 78183, Note_off_c, 0, 63, 0
1, 78186, Control_c, 0, 64, 75
1, 78189, Note_off_c, 0, 67, 50
1, 78201, Note_on_c, 0, 41, 33
1, 78201, Control_c, 0, 64, 76
1, 78216, Control_c, 0, 64, 76
1, 78240, Poly_aftertouch_c, 0, 63, 0
1, 78245, Note_off_c, 0, 41, 51
1, 78253, Note_off_c, 0, 68, 59
1, 78378, Control_c, 0, 64, 76
1, 78393, Control_c, 0, 64, 75
1, 78408, Control_c, 0, 64, 74
1, 78419, Note_on_c, 0, 62, 49
1, 78419, Note_on_c, 0, 65, 53
1, 78423, Control_c, 0, 64, 72
1, 78432, Note_on_c, 0, 46, 42
1, 78437, Control_c, 0, 64, 68
1, 78452, Control_c, 0, 64, 61
1, 78467, Control_c, 0, 64, 31
1, 78482, Control_c, 0, 64, 0
1, 78500, Note_off_c, 0, 46, 53
1, 78503, Poly_aftertouch_c, 0, 58, 0
1, 78514, Note_off_c, 0, 62, 34
1, 78526, Note_off_c, 0, 65, 59
1, 78552, Note_on_c, 0, 67, 50
1, 78561, Note_on_c, 0, 63, 49
1, 78571, Note_on_c, 0, 39, 36
1, 78615, Note_off_c, 0, 63, 56
1, 78650, Note_off_c, 0, 39, 42
1, 78684, Note_off_c, 0, 67, 37
1, 78696, Note_on_c, 0, 65, 50
1, 78703, Note_on_c, 0, 62, 42
1, 78706, Note_on_c, 0, 46, 37
1, 78756, Control_c, 0, 64, 44
1, 78771, Control_c, 0, 64, 63
1, 78779, Poly_aftertouch_c, 0, 58, 127
1, 78786, Control_c, 0, 64, 67
1, 78800, Note_off_c, 0, 65, 61
1, 78801, Control_c, 0, 64, 71
1, 78806, Note_off_c, 0, 62, 49
1, 78816, Control_c, 0, 64, 74
1, 78830, Control_c, 0, 64, 77
1, 78845, Control_c, 0, 64, 79
1, 78858, Note_off_c, 0, 46, 32
1, 78861, Control_c, 0, 64, 79
1, 78876, Control_c, 0, 64, 80
1, 78883, Poly_aftertouch_c, 0, 58, 0
1, 78891, Control_c, 0, 64, 80
1, 78906, Control_c, 0, 64, 81
1, 79024, Note_on_c, 0, 70, 53
1, 79024, Control_c, 0, 64, 80
1, 79039, Control_c, 0, 64, 75
1, 79050, Note_on_c, 0, 63, 38
1, 79054, Control_c, 0, 64, 65
1, 79059, Note_on_c, 0, 43, 29
1, 79065, Note_on_c, 0, 58, 14
1, 79069, Control_c, 0, 64, 0
1, 79111, Note_off_c, 0, 58, 51
1, 79128, Control_c, 0, 64, 42
1, 79143, Control_c, 0, 64, 62
1, 79158, Control_c, 0, 64, 66
1, 79165, Note_off_c, 0, 63, 34
1, 79173, Control_c, 0, 64, 68
1, 79187, Control_c, 0, 64, 70
1, 79202, Control_c, 0, 64, 73
1, 79217, Control_c, 0, 64, 75
1, 79231, Control_c, 0, 64, 77
1, 79244, Note_off_c, 0, 70, 47
1, 79246, Control_c, 0, 64, 78
1, 79270, Note_off_c, 0, 43, 38
1, 79298, Control_c, 0, 64, 78
1, 79308, Note_on_c, 0, 67, 58
1, 79313, Control_c, 0, 64, 79
1, 79316, Note_on_c, 0, 48, 41
1, 79322, Note_on_c, 0, 63, 39
1, 79328, Control_c, 0, 64, 79
1, 79344, Note_on_c, 0, 60, 24
1, 79368, Note_off_c, 0, 63, 44
1, 79386, Note_off_c, 0, 67, 52
1, 79393, Note_off_c, 0, 60, 44
1, 79453, Note_off_c, 0, 48, 42
1, 79580, Control_c, 0, 64, 79
1, 79582, Note_on_c, 0, 48, 43
1, 79588, Note_on_c, 0, 67, 58
1, 79594, Control_c, 0, 64, 78
1, 79596, Note_on_c, 0, 63, 40
1, 79609, Control_c, 0, 64, 77
1, 79618, Note_on_c, 0, 60, 27
1, 79624, Control_c, 0, 64, 73
1, 79638, Control_c, 0, 64, 66
1, 79653, Control_c, 0, 64, 42
1, 79669, Control_c, 0, 64, 0
1, 79679, Note_off_c, 0, 60, 38
1, 79719, Note_off_c, 0, 48, 46
1, 79730, Note_on_c, 0, 68, 51
1, 79741, Note_on_c, 0, 41, 29
1, 79747, Note_off_c, 0, 63, 40
1, 79781, Note_off_c, 0, 67, 35
1, 79879, Note_off_c, 0, 68, 56
1, 79913, Note_on_c, 0, 65, 46
1, 79924, Note_on_c, 0, 62, 37
1, 79929, Note_on_c, 0, 58, 30
1, 79938, Note_on_c, 0, 46, 35
1, 79943, Note_off_c, 0, 41, 41
1, 80047, Control_c, 0, 64, 60
1, 80062, Control_c, 0, 64, 66
1, 80075, Note_off_c, 0, 46, 49
1, 80076, Note_off_c, 0, 65, 56
1, 80076, Control_c, 0, 64, 70
1, 80077, Note_off_c, 0, 58, 40
1, 80091, Control_c, 0, 64, 74
1, 80094, Note_off_c, 0, 62, 37
1, 80106, Control_c, 0, 64, 78
1, 80121, Control_c, 0, 64, 81
1, 80136, Control_c, 0, 64, 82
1, 80151, Control_c, 0, 64, 83
1, 80166, Control_c, 0, 64, 84
1, 80181, Control_c, 0, 64, 86
1, 80196, Control_c, 0, 64, 86
1, 80210, Control_c, 0, 64, 87
1, 80225, Control_c, 0, 64, 87
1, 80325, Note_on_c, 0, 65, 43
1, 80339, Note_on_c, 0, 62, 36
1, 80357, Note_on_c, 0, 58, 21
1, 80380, Note_on_c, 0, 46, 28
1, 80387, Control_c, 0, 64, 86
1, 80401, Control_c, 0, 64, 82
1, 80416, Control_c, 0, 64, 74
1, 80431, Control_c, 0, 64, 60
1, 80446, Control_c, 0, 64, 0
1, 80491, Control_c, 0, 64, 50
1, 80506, Control_c, 0, 64, 64
1, 80518, Note_off_c, 0, 58, 38
1, 80521, Control_c, 0, 64, 69
1, 80536, Control_c, 0, 64, 73
1, 80551, Control_c, 0, 64, 77
1, 80565, Control_c, 0, 64, 80
1, 80580, Control_c, 0, 64, 81
1, 80583, Note_off_c, 0, 62, 29
1, 80595, Control_c, 0, 64, 83
1, 80610, Control_c, 0, 64, 84
1, 80625, Control_c, 0, 64, 85
1, 80637, Note_off_c, 0, 65, 23
1, 80640, Control_c, 0, 64, 86
1, 80655, Control_c, 0, 64, 87
1, 80664, Note_off_c, 0, 46, 25
1, 80670, Control_c, 0, 64, 88
1, 80688, Note_on_c, 0, 58, 38
1, 80699, Control_c, 0, 64, 88
1, 80729, Control_c, 0, 64, 89
1, 80817, Note_off_c, 0, 58, 47
1, 81171, Note_on_c, 0, 66, 46
1, 81186, Note_on_c, 0, 60, 33
1, 81197, Note_on_c, 0, 57, 33
1, 81209, Control_c, 0, 64, 88
1, 81221, Note_on_c, 0, 62, 12
1, 81224, Control_c, 0, 64, 88
1, 81239, Control_c, 0, 64, 87
1, 81255, Control_c, 0, 64, 84
1, 81270, Control_c, 0, 64, 77
1, 81285, Control_c, 0, 64, 67
1, 81300, Control_c, 0, 64, 0
1, 81388, Control_c, 0, 64, 17
1, 81403, Control_c, 0, 64, 62
1, 81418, Control_c, 0, 64, 67
1, 81433, Control_c, 0, 64, 71
1, 81448, Control_c, 0, 64, 75
1, 81450, Note_off_c, 0, 57, 39
1, 81463, Control_c, 0, 64, 78
1, 81474, Note_off_c, 0, 62, 0
1, 81478, Control_c, 0, 64, 79
1, 81483, Note_on_c, 0, 67, 52
1, 81492, Control_c, 0, 64, 80
1, 81507, Control_c, 0, 64, 81
1, 81510, Note_on_c, 0, 55, 37
1, 81510, Poly_aftertouch_c, 0, 62, 127
1, 81516, Note_on_c, 0, 58, 20
1, 81522, Control_c, 0, 64, 82
1, 81537, Note_off_c, 0, 60, 29
1, 81544, Control_c, 0, 64, 83
1, 81559, Control_c, 0, 64, 84
1, 81565, Note_off_c, 0, 66, 34
1, 81573, Note_off_c, 0, 58, 45
1, 81574, Control_c, 0, 64, 84
1, 81581, Poly_aftertouch_c, 0, 62, 0
1, 81618, Note_off_c, 0, 55, 37
1, 81647, Control_c, 0, 64, 85
1, 81650, Note_off_c, 0, 67, 33
1, 81737, Note_on_c, 0, 57, 49
1, 81740, Note_on_c, 0, 66, 57
1, 81752, Control_c, 0, 64, 84
1, 81760, Note_on_c, 0, 60, 34
1, 81771, Note_on_c, 0, 62, 30
1, 81804, Note_off_c, 0, 60, 46
1, 81822, Note_off_c, 0, 57, 58
1, 81826, Control_c, 0, 64, 83
1, 81841, Control_c, 0, 64, 82
1, 81850, Note_on_c, 0, 58, 42
1, 81856, Control_c, 0, 64, 80
1, 81856, Note_on_c, 0, 67, 58
1, 81869, Note_on_c, 0, 55, 45
1, 81871, Control_c, 0, 64, 75
1, 81871, Note_off_c, 0, 62, 0
1, 81873, Note_off_c, 0, 66, 52
1, 81886, Control_c, 0, 64, 65
1, 81901, Control_c, 0, 64, 0
1, 81928, Note_off_c, 0, 58, 39
1, 81947, Poly_aftertouch_c, 0, 62, 0
1, 81970, Note_on_c, 0, 54, 47
1, 81982, Note_on_c, 0, 69, 61
1, 81991, Note_on_c, 0, 57, 23
1, 82011, Note_off_c, 0, 55, 37
1, 82022, Note_off_c, 0, 67, 56
1, 82033, Control_c, 0, 64, 39
1, 82049, Control_c, 0, 64, 63
1, 82055, Note_off_c, 0, 57, 59
1, 82064, Control_c, 0, 64, 67
1, 82075, Note_off_c, 0, 69, 64
1, 82079, Control_c, 0, 64, 71
1, 82086, Note_off_c, 0, 54, 60
1, 82094, Control_c, 0, 64, 74
1, 82109, Control_c, 0, 64, 78
1, 82124, Control_c, 0, 64, 81
1, 82138, Control_c, 0, 64, 82
1, 82153, Control_c, 0, 64, 83
1, 82168, Control_c, 0, 64, 84
1, 82183, Control_c, 0, 64, 84
1, 82198, Control_c, 0, 64, 85
1, 82212, Control_c, 0, 64, 86
1, 82292, Note_on_c, 0, 70, 57
1, 82311, Note_on_c, 0, 52, 36
1, 82324, Control_c, 0, 64, 85
1, 82327, Note_on_c, 0, 55, 31
1, 82336, Note_on_c, 0, 62, 24
1, 82338, Control_c, 0, 64, 81
1, 82353, Control_c, 0, 64, 74
1, 82368, Control_c, 0, 64, 57
1, 82383, Control_c, 0, 64, 0
1, 82456, Control_c, 0, 64, 60
1, 82471, Control_c, 0, 64, 66
1, 82486, Control_c, 0, 64, 69
1, 82501, Control_c, 0, 64, 73
1, 82513, Note_off_c, 0, 52, 39
1, 82516, Control_c, 0, 64, 77
1, 82530, Control_c, 0, 64, 80
1, 82545, Control_c, 0, 64, 81
1, 82560, Note_on_c, 0, 54, 38
1, 82560, Control_c, 0, 64, 83
1, 82575, Control_c, 0, 64, 84
1, 82576, Note_on_c, 0, 69, 57
1, 82587, Note_on_c, 0, 57, 46
1, 82588, Note_off_c, 0, 70, 37
1, 82590, Control_c, 0, 64, 85
1, 82604, Control_c, 0, 64, 86
1, 82619, Note_off_c, 0, 55, 36
1, 82619, Control_c, 0, 64, 88
1, 82634, Control_c, 0, 64, 89
1, 82649, Control_c, 0, 64, 89
1, 82652, Note_off_c, 0, 57, 50
1, 82655, Note_off_c, 0, 62, 37
1, 82664, Control_c, 0, 64, 90
1, 82672, Note_off_c, 0, 54, 49
1, 82679, Control_c, 0, 64, 90
1, 82694, Control_c, 0, 64, 91
1, 82724, Control_c, 0, 64, 91
1, 82739, Note_off_c, 0, 69, 32
1, 82814, Note_on_c, 0, 70, 67
1, 82827, Control_c, 0, 64, 91
1, 82841, Note_on_c, 0, 62, 46
1, 82842, Control_c, 0, 64, 87
1, 82843, Note_on_c, 0, 55, 37
1, 82847, Note_on_c, 0, 52, 41
1, 82858, Control_c, 0, 64, 80
1, 82872, Control_c, 0, 64, 69
1, 82887, Control_c, 0, 64, 0
1, 82946, Control_c, 0, 64, 50
1, 82961, Control_c, 0, 64, 64
1, 82976, Control_c, 0, 64, 68
1, 82991, Control_c, 0, 64, 73
1, 83006, Control_c, 0, 64, 78
1, 83028, Control_c, 0, 64, 82
1, 83042, Control_c, 0, 64, 84
1, 83048, Note_off_c, 0, 52, 38
1, 83050, Note_off_c, 0, 62, 0
1, 83054, Note_off_c, 0, 70, 36
1, 83057, Control_c, 0, 64, 85
1, 83071, Note_on_c, 0, 69, 65
1, 83072, Note_on_c, 0, 54, 50
1, 83072, Control_c, 0, 64, 86
1, 83080, Note_on_c, 0, 57, 46
1, 83087, Control_c, 0, 64, 87
1, 83087, Poly_aftertouch_c, 0, 62, 127
1, 83102, Control_c, 0, 64, 89
1, 83114, Note_off_c, 0, 55, 42
1, 83117, Control_c, 0, 64, 90
1, 83125, Poly_aftertouch_c, 0, 62, 0
1, 83132, Control_c, 0, 64, 90
1, 83141, Note_off_c, 0, 54, 55
1, 83144, Note_off_c, 0, 57, 50
1, 83147, Control_c, 0, 64, 91
1, 83161, Control_c, 0, 64, 91
1, 83175, Note_off_c, 0, 69, 53
1, 83176, Control_c, 0, 64, 92
1, 83313, Note_on_c, 0, 70, 63
1, 83331, Note_on_c, 0, 52, 46
1, 83332, Note_on_c, 0, 62, 44
1, 83339, Control_c, 0, 64, 91
1, 83340, Note_on_c, 0, 55, 37
1, 83353, Control_c, 0, 64, 90
1, 83368, Control_c, 0, 64, 85
1, 83383, Control_c, 0, 64, 76
1, 83398, Control_c, 0, 64, 62
1, 83406, Note_off_c, 0, 52, 61
1, 83412, Control_c, 0, 64, 0
1, 83419, Note_off_c, 0, 55, 61
1, 83428, Note_off_c, 0, 70, 52
1, 83433, Note_on_c, 0, 69, 62
1, 83453, Note_on_c, 0, 54, 34
1, 83454, Note_on_c, 0, 57, 27
1, 83473, Note_off_c, 0, 62, 22
1, 83511, Note_off_c, 0, 57, 41
1, 83531, Control_c, 0, 64, 44
1, 83546, Control_c, 0, 64, 62
1, 83553, Note_off_c, 0, 54, 58
1, 83555, Note_on_c, 0, 67, 62
1, 83561, Control_c, 0, 64, 65
1, 83572, Note_on_c, 0, 55, 45
1, 83572, Note_on_c, 0, 58, 51
1, 83576, Control_c, 0, 64, 67
1, 83591, Control_c, 0, 64, 70
1, 83605, Control_c, 0, 64, 74
1, 83610, Note_off_c, 0, 69, 39
1, 83620, Control_c, 0, 64, 78
1, 83635, Control_c, 0, 64, 80
1, 83651, Control_c, 0, 64, 81
1, 83660, Note_off_c, 0, 67, 57
1, 83665, Control_c, 0, 64, 82
1, 83671, Note_off_c, 0, 58, 57
1, 83680, Control_c, 0, 64, 83
1, 83695, Control_c, 0, 64, 84
1, 83696, Note_off_c, 0, 55, 49
1, 83710, Control_c, 0, 64, 85
1, 83725, Control_c, 0, 64, 86
1, 83740, Control_c, 0, 64, 86
1, 83776, Control_c, 0, 64, 87
1, 83806, Control_c, 0, 64, 87
1, 83880, Control_c, 0, 64, 87
1, 83895, Note_on_c, 0, 66, 53
1, 83908, Note_on_c, 0, 60, 39
1, 83910, Control_c, 0, 64, 86
1, 83919, Note_on_c, 0, 62, 37
1, 83925, Control_c, 0, 64, 85
1, 83925, Note_on_c, 0, 57, 32
1, 83940, Control_c, 0, 64, 81
1, 83955, Control_c, 0, 64, 73
1, 83970, Control_c, 0, 64, 56
1, 83984, Control_c, 0, 64, 0
1, 84057, Control_c, 0, 64, 10
1, 84072, Control_c, 0, 64, 64
1, 84087, Control_c, 0, 64, 73
1, 84101, Control_c, 0, 64, 80
1, 84116, Control_c, 0, 64, 84
1, 84131, Control_c, 0, 64, 85
1, 84146, Control_c, 0, 64, 87
1, 84161, Control_c, 0, 64, 89
1, 84167, Note_off_c, 0, 60, 50
1, 84175, Control_c, 0, 64, 91
1, 84190, Control_c, 0, 64, 93
1, 84191, Note_off_c, 0, 66, 63
1, 84197, Note_off_c, 0, 62, 40
1, 84201, Note_off_c, 0, 57, 48
1, 84205, Control_c, 0, 64, 95
1, 84220, Control_c, 0, 64, 96
1, 84235, Control_c, 0, 64, 97
1, 84250, Control_c, 0, 64, 97
1, 84265, Control_c, 0, 64, 98
1, 84280, Control_c, 0, 64, 99
1, 84324, Control_c, 0, 64, 99
1, 84512, Note_on_c, 0, 66, 53
1, 84517, Note_on_c, 0, 69, 46
1, 84531, Note_on_c, 0, 51, 44
1, 84542, Note_on_c, 0, 60, 36
1, 84554, Control_c, 0, 64, 99
1, 84569, Control_c, 0, 64, 94
1, 84584, Control_c, 0, 64, 86
1, 84599, Control_c, 0, 64, 73
1, 84613, Control_c, 0, 64, 48
1, 84628, Control_c, 0, 64, 0
1, 84651, Note_off_c, 0, 60, 58
1, 84651, Note_off_c, 0, 66, 53
1, 84658, Control_c, 0, 64, 52
1, 84673, Control_c, 0, 64, 68
1, 84688, Control_c, 0, 64, 74
1, 84703, Control_c, 0, 64, 80
1, 84718, Control_c, 0, 64, 83
1, 84732, Control_c, 0, 64, 85
1, 84747, Control_c, 0, 64, 87
1, 84762, Control_c, 0, 64, 90
1, 84777, Control_c, 0, 64, 92
1, 84792, Control_c, 0, 64, 94
1, 84796, Note_on_c, 0, 70, 59
1, 84803, Note_on_c, 0, 67, 55
1, 84807, Control_c, 0, 64, 96
1, 84812, Note_on_c, 0, 50, 42
1, 84822, Control_c, 0, 64, 96
1, 84822, Note_on_c, 0, 62, 40
1, 84837, Control_c, 0, 64, 97
1, 84851, Control_c, 0, 64, 98
1, 84862, Note_off_c, 0, 62, 47
1, 84866, Control_c, 0, 64, 99
1, 84867, Note_off_c, 0, 51, 36
1, 84867, Note_off_c, 0, 67, 54
1, 84881, Control_c, 0, 64, 100
1, 84884, Note_off_c, 0, 50, 49
1, 84885, Note_off_c, 0, 69, 43
1, 84896, Note_off_c, 0, 70, 56
1, 84911, Control_c, 0, 64, 100
1, 85033, Note_on_c, 0, 51, 50
1, 85035, Note_on_c, 0, 66, 63
1, 85036, Note_on_c, 0, 69, 56
1, 85039, Note_on_c, 0, 60, 52
1, 85065, Note_off_c, 0, 60, 54
1, 85088, Control_c, 0, 64, 97
1, 85096, Note_off_c, 0, 66, 62
1, 85100, Note_off_c, 0, 69, 56
1, 85103, Control_c, 0, 64, 88
1, 85118, Control_c, 0, 64, 72
1, 85127, Note_off_c, 0, 51, 54
1, 85132, Control_c, 0, 64, 0
1, 85143, Note_on_c, 0, 70, 62
1, 85147, Note_on_c, 0, 50, 45
1, 85156, Note_on_c, 0, 67, 55
1, 85159, Note_on_c, 0, 62, 47
1, 85185, Note_off_c, 0, 62, 56
1, 85187, Note_off_c, 0, 67, 58
1, 85192, Control_c, 0, 64, 55
1, 85207, Control_c, 0, 64, 66
1, 85222, Control_c, 0, 64, 71
1, 85236, Control_c, 0, 64, 76
1, 85245, Note_off_c, 0, 70, 55
1, 85252, Control_c, 0, 64, 79
1, 85267, Control_c, 0, 64, 82
1, 85271, Note_on_c, 0, 72, 69
1, 85287, Note_on_c, 0, 69, 68
1, 85289, Control_c, 0, 64, 84
1, 85290, Note_on_c, 0, 48, 57
1, 85304, Control_c, 0, 64, 85
1, 85315, Note_on_c, 0, 63, 31
1, 85316, Note_off_c, 0, 50, 39
1, 85319, Control_c, 0, 64, 87
1, 85330, Note_off_c, 0, 69, 57
1, 85334, Control_c, 0, 64, 88
1, 85345, Note_off_c, 0, 72, 62
1, 85348, Note_off_c, 0, 48, 62
1, 85349, Control_c, 0, 64, 89
1, 85350, Note_off_c, 0, 63, 46
1, 85363, Control_c, 0, 64, 90
1, 85378, Control_c, 0, 64, 91
1, 85393, Control_c, 0, 64, 92
1, 85408, Control_c, 0, 64, 93
1, 85437, Control_c, 0, 64, 93
1, 85538, Note_on_c, 0, 74, 64
1, 85540, Control_c, 0, 64, 93
1, 85554, Note_on_c, 0, 70, 59
1, 85555, Note_on_c, 0, 65, 48
1, 85555, Control_c, 0, 64, 88
1, 85559, Note_on_c, 0, 46, 53
1, 85570, Control_c, 0, 64, 78
1, 85585, Control_c, 0, 64, 60
1, 85594, Note_off_c, 0, 65, 47
1, 85599, Control_c, 0, 64, 0
1, 85644, Control_c, 0, 64, 58
1, 85659, Control_c, 0, 64, 68
1, 85673, Control_c, 0, 64, 73
1, 85688, Control_c, 0, 64, 79
1, 85703, Control_c, 0, 64, 84
1, 85718, Control_c, 0, 64, 89
1, 85733, Control_c, 0, 64, 93
1, 85737, Note_off_c, 0, 74, 54
1, 85747, Control_c, 0, 64, 98
1, 85761, Note_off_c, 0, 70, 56
1, 85762, Control_c, 0, 64, 102
1, 85777, Control_c, 0, 64, 106
1, 85786, Note_on_c, 0, 72, 71
1, 85787, Note_on_c, 0, 69, 64
1, 85792, Control_c, 0, 64, 108
1, 85795, Note_on_c, 0, 63, 64
1, 85800, Note_on_c, 0, 48, 55
1, 85806, Control_c, 0, 64, 109
1, 85821, Control_c, 0, 64, 110
1, 85826, Note_off_c, 0, 46, 33
1, 85827, Note_off_c, 0, 63, 65
1, 85836, Control_c, 0, 64, 112
1, 85842, Note_off_c, 0, 69, 62
1, 85851, Control_c, 0, 64, 113
1, 85852, Note_off_c, 0, 48, 58
1, 85861, Note_off_c, 0, 72, 64
1, 85866, Control_c, 0, 64, 113
1, 85880, Control_c, 0, 64, 114
1, 86072, Note_on_c, 0, 74, 70
1, 86082, Control_c, 0, 64, 110
1, 86083, Note_on_c, 0, 70, 56
1, 86089, Note_on_c, 0, 46, 51
1, 86092, Note_on_c, 0, 65, 52
1, 86097, Control_c, 0, 64, 100
1, 86111, Control_c, 0, 64, 87
1, 86122, Note_off_c, 0, 65, 53
1, 86126, Control_c, 0, 64, 72
1, 86141, Control_c, 0, 64, 0
1, 86184, Note_off_c, 0, 70, 53
1, 86185, Control_c, 0, 64, 54
1, 86200, Control_c, 0, 64, 69
1, 86215, Control_c, 0, 64, 76
1, 86229, Control_c, 0, 64, 83
1, 86244, Control_c, 0, 64, 86
1, 86259, Control_c, 0, 64, 88
1, 86274, Control_c, 0, 64, 91
1, 86289, Control_c, 0, 64, 97
1, 86303, Control_c, 0, 64, 101
1, 86318, Control_c, 0, 64, 106
1, 86333, Control_c, 0, 64, 109
1, 86336, Note_on_c, 0, 75, 71
1, 86348, Note_on_c, 0, 72, 64
1, 86348, Control_c, 0, 64, 111
1, 86355, Note_on_c, 0, 66, 57
1, 86356, Note_on_c, 0, 45, 50
1, 86363, Control_c, 0, 64, 112
1, 86368, Note_off_c, 0, 74, 59
1, 86377, Control_c, 0, 64, 115
1, 86381, Note_off_c, 0, 46, 35
1, 86390, Note_off_c, 0, 66, 62
1, 86390, Note_off_c, 0, 72, 58
1, 86392, Control_c, 0, 64, 118
1, 86396, Note_off_c, 0, 45, 62
1, 86407, Control_c, 0, 64, 119
1, 86429, Note_off_c, 0, 75, 61
1, 86436, Control_c, 0, 64, 120
1, 86451, Control_c, 0, 64, 120
1, 86466, Control_c, 0, 64, 121
1, 86495, Control_c, 0, 64, 122
1, 86581, Note_on_c, 0, 74, 65
1, 86584, Control_c, 0, 64, 119
1, 86590, Note_on_c, 0, 46, 56
1, 86590, Note_on_c, 0, 70, 62
1, 86596, Note_on_c, 0, 65, 60
1, 86599, Control_c, 0, 64, 107
1, 86614, Control_c, 0, 64, 90
1, 86629, Control_c, 0, 64, 70
1, 86630, Note_off_c, 0, 65, 65
1, 86643, Control_c, 0, 64, 0
1, 86673, Note_off_c, 0, 70, 61
1, 86673, Control_c, 0, 64, 34
1, 86688, Control_c, 0, 64, 67
1, 86699, Note_off_c, 0, 46, 54
1, 86703, Control_c, 0, 64, 77
1, 86713, Note_on_c, 0, 72, 67
1, 86716, Note_off_c, 0, 74, 55
1, 86717, Note_on_c, 0, 48, 59
1, 86718, Control_c, 0, 64, 87
1, 86732, Note_on_c, 0, 69, 56
1, 86733, Control_c, 0, 64, 91
1, 86747, Note_on_c, 0, 63, 49
1, 86748, Control_c, 0, 64, 93
1, 86763, Control_c, 0, 64, 95
1, 86772, Note_off_c, 0, 69, 67
1, 86778, Note_off_c, 0, 63, 62
1, 86784, Control_c, 0, 64, 97
1, 86799, Control_c, 0, 64, 100
1, 86814, Control_c, 0, 64, 102
1, 86828, Control_c, 0, 64, 103
1, 86874, Control_c, 0, 64, 102
1, 86881, Note_on_c, 0, 70, 70
1, 86885, Note_off_c, 0, 48, 57
1, 86888, Note_on_c, 0, 62, 60
1, 86889, Control_c, 0, 64, 99
1, 86890, Note_on_c, 0, 67, 61
1, 86895, Note_on_c, 0, 50, 53
1, 86903, Note_off_c, 0, 72, 48
1, 86904, Control_c, 0, 64, 90
1, 86919, Control_c, 0, 64, 76
1, 86933, Control_c, 0, 64, 34
1, 86948, Control_c, 0, 64, 0
1, 87022, Note_off_c, 0, 67, 61
1, 87022, Control_c, 0, 64, 57
1, 87037, Note_off_c, 0, 70, 61
1, 87037, Control_c, 0, 64, 67
1, 87046, Note_off_c, 0, 62, 57
1, 87052, Control_c, 0, 64, 74
1, 87067, Control_c, 0, 64, 81
1, 87082, Control_c, 0, 64, 85
1, 87097, Control_c, 0, 64, 87
1, 87111, Control_c, 0, 64, 89
1, 87126, Control_c, 0, 64, 92
1, 87141, Control_c, 0, 64, 95
1, 87155, Note_off_c, 0, 50, 36
1, 87156, Control_c, 0, 64, 99
1, 87171, Control_c, 0, 64, 101
1, 87186, Control_c, 0, 64, 102
1, 87200, Control_c, 0, 64, 103
1, 87230, Control_c, 0, 64, 103
1, 87289, Control_c, 0, 64, 103
1, 87296, Note_on_c, 0, 69, 60
1, 87303, Note_on_c, 0, 66, 59
1, 87308, Note_on_c, 0, 51, 47
1, 87315, Note_on_c, 0, 60, 44
1, 87318, Control_c, 0, 64, 102
1, 87333, Control_c, 0, 64, 99
1, 87348, Control_c, 0, 64, 95
1, 87363, Control_c, 0, 64, 89
1, 87378, Control_c, 0, 64, 80
1, 87392, Control_c, 0, 64, 69
1, 87407, Control_c, 0, 64, 35
1, 87422, Control_c, 0, 64, 0
1, 87787, Note_off_c, 0, 51, 46
1, 87804, Note_on_c, 0, 50, 36
1, 87949, Control_c, 0, 64, 51
1, 87964, Control_c, 0, 64, 66
1, 87979, Control_c, 0, 64, 73
1, 87993, Control_c, 0, 64, 81
1, 88008, Control_c, 0, 64, 87
1, 88014, Note_off_c, 0, 60, 55
1, 88023, Control_c, 0, 64, 89
1, 88033, Note_off_c, 0, 50, 52
1, 88038, Note_off_c, 0, 66, 34
1, 88038, Control_c, 0, 64, 91
1, 88053, Control_c, 0, 64, 93
1, 88056, Note_off_c, 0, 69, 37
1, 88067, Control_c, 0, 64, 96
1, 88082, Control_c, 0, 64, 98
1, 88097, Control_c, 0, 64, 101
1, 88112, Control_c, 0, 64, 102
1, 88127, Control_c, 0, 64, 103
1, 88141, Control_c, 0, 64, 104
1, 88156, Control_c, 0, 64, 104
1, 88171, Control_c, 0, 64, 105
1, 88186, Control_c, 0, 64, 105
1, 88298, Note_on_c, 0, 66, 45
1, 88325, Note_on_c, 0, 62, 30
1, 88327, Control_c, 0, 64, 105
1, 88334, Note_on_c, 0, 60, 28
1, 88337, Note_on_c, 0, 57, 32
1, 88342, Control_c, 0, 64, 102
1, 88356, Control_c, 0, 64, 97
1, 88371, Control_c, 0, 64, 88
1, 88386, Control_c, 0, 64, 74
1, 88400, Control_c, 0, 64, 51
1, 88415, Control_c, 0, 64, 0
1, 88461, Control_c, 0, 64, 54
1, 88476, Control_c, 0, 64, 66
1, 88490, Control_c, 0, 64, 72
1, 88506, Control_c, 0, 64, 78
1, 88521, Control_c, 0, 64, 83
1, 88536, Control_c, 0, 64, 86
1, 88551, Control_c, 0, 64, 87
1, 88565, Control_c, 0, 64, 89
1, 88580, Control_c, 0, 64, 92
1, 88595, Control_c, 0, 64, 94
1, 88602, Note_off_c, 0, 57, 41
1, 88610, Note_on_c, 0, 67, 55
1, 88610, Control_c, 0, 64, 95
1, 88623, Note_on_c, 0, 58, 43
1, 88624, Control_c, 0, 64, 96
1, 88633, Note_on_c, 0, 55, 41
1, 88639, Control_c, 0, 64, 96
1, 88641, Note_off_c, 0, 60, 37
1, 88654, Control_c, 0, 64, 97
1, 88663, Note_off_c, 0, 66, 58
1, 88669, Control_c, 0, 64, 98
1, 88684, Control_c, 0, 64, 99
1, 88695, Note_off_c, 0, 62, 40
1, 88722, Note_off_c, 0, 55, 55
1, 88722, Note_off_c, 0, 67, 48
1, 88724, Note_off_c, 0, 58, 53
1, 88728, Control_c, 0, 64, 99
1, 88867, Note_on_c, 0, 66, 63
1, 88871, Note_on_c, 0, 57, 50
1, 88882, Note_on_c, 0, 62, 39
1, 88885, Note_on_c, 0, 60, 38
1, 88936, Control_c, 0, 64, 98
1, 88944, Note_off_c, 0, 60, 54
1, 88949, Note_off_c, 0, 57, 58
1, 88951, Control_c, 0, 64, 94
1, 88965, Control_c, 0, 64, 85
1, 88968, Note_on_c, 0, 67, 65
1, 88969, Note_on_c, 0, 58, 45
1, 88980, Control_c, 0, 64, 72
1, 88984, Note_on_c, 0, 55, 48
1, 88995, Control_c, 0, 64, 0
1, 89005, Note_off_c, 0, 66, 59
1, 89067, Note_off_c, 0, 58, 33
1, 89095, Note_on_c, 0, 69, 61
1, 89101, Note_on_c, 0, 54, 57
1, 89112, Note_on_c, 0, 57, 17
1, 89135, Control_c, 0, 64, 47
1, 89137, Note_off_c, 0, 55, 37
1, 89142, Note_off_c, 0, 62, 24
1, 89145, Note_off_c, 0, 67, 57
1, 89150, Control_c, 0, 64, 64
1, 89165, Control_c, 0, 64, 69
1, 89177, Note_off_c, 0, 57, 50
1, 89180, Control_c, 0, 64, 74
1, 89189, Note_off_c, 0, 69, 63
1, 89195, Control_c, 0, 64, 78
1, 89203, Note_off_c, 0, 54, 55
1, 89210, Control_c, 0, 64, 81
1, 89224, Control_c, 0, 64, 83
1, 89239, Control_c, 0, 64, 85
1, 89255, Control_c, 0, 64, 87
1, 89270, Control_c, 0, 64, 88
1, 89284, Control_c, 0, 64, 89
1, 89299, Control_c, 0, 64, 90
1, 89314, Control_c, 0, 64, 91
1, 89329, Control_c, 0, 64, 91
1, 89380, Note_on_c, 0, 70, 63
1, 89393, Note_on_c, 0, 52, 42
1, 89407, Note_on_c, 0, 55, 33
1, 89411, Note_on_c, 0, 62, 41
1, 89418, Control_c, 0, 64, 90
1, 89433, Control_c, 0, 64, 86
1, 89447, Control_c, 0, 64, 76
1, 89462, Control_c, 0, 64, 59
1, 89477, Control_c, 0, 64, 0
1, 89581, Control_c, 0, 64, 53
1, 89595, Control_c, 0, 64, 65
1, 89610, Control_c, 0, 64, 69
1, 89625, Control_c, 0, 64, 74
1, 89639, Control_c, 0, 64, 79
1, 89645, Note_on_c, 0, 54, 45
1, 89652, Note_on_c, 0, 69, 66
1, 89654, Control_c, 0, 64, 83
1, 89663, Note_on_c, 0, 57, 47
1, 89669, Control_c, 0, 64, 86
1, 89681, Note_off_c, 0, 70, 57
1, 89684, Control_c, 0, 64, 87
1, 89692, Note_off_c, 0, 55, 37
1, 89699, Control_c, 0, 64, 89
1, 89705, Note_off_c, 0, 52, 21
1, 89710, Note_off_c, 0, 62, 57
1, 89714, Control_c, 0, 64, 91
1, 89729, Control_c, 0, 64, 94
1, 89738, Note_off_c, 0, 54, 56
1, 89744, Control_c, 0, 64, 96
1, 89750, Note_off_c, 0, 69, 56
1, 89755, Note_off_c, 0, 57, 53
1, 89758, Control_c, 0, 64, 98
1, 89780, Control_c, 0, 64, 99
1, 89795, Control_c, 0, 64, 100
1, 89810, Control_c, 0, 64, 101
1, 89825, Control_c, 0, 64, 102
1, 89840, Control_c, 0, 64, 103
1, 89920, Note_on_c, 0, 70, 69
1, 89941, Note_on_c, 0, 62, 55
1, 89943, Note_on_c, 0, 55, 37
1, 89943, Control_c, 0, 64, 102
1, 89946, Note_on_c, 0, 52, 46
1, 89958, Control_c, 0, 64, 99
1, 89973, Control_c, 0, 64, 93
1, 89988, Control_c, 0, 64, 82
1, 90003, Control_c, 0, 64, 66
1, 90018, Control_c, 0, 64, 0
1, 90077, Control_c, 0, 64, 53
1, 90092, Control_c, 0, 64, 66
1, 90107, Control_c, 0, 64, 72
1, 90122, Control_c, 0, 64, 78
1, 90137, Control_c, 0, 64, 83
1, 90152, Control_c, 0, 64, 85
1, 90158, Note_on_c, 0, 54, 47
1, 90161, Note_on_c, 0, 69, 71
1, 90167, Control_c, 0, 64, 86
1, 90174, Note_on_c, 0, 57, 52
1, 90182, Control_c, 0, 64, 87
1, 90184, Note_off_c, 0, 52, 30
1, 90185, Note_off_c, 0, 70, 56
1, 90197, Control_c, 0, 64, 89
1, 90212, Control_c, 0, 64, 90
1, 90212, Note_off_c, 0, 62, 57
1, 90226, Control_c, 0, 64, 92
1, 90227, Note_off_c, 0, 55, 40
1, 90229, Note_off_c, 0, 57, 53
1, 90241, Control_c, 0, 64, 92
1, 90244, Note_off_c, 0, 54, 59
1, 90256, Control_c, 0, 64, 93
1, 90262, Note_off_c, 0, 69, 58
1, 90270, Control_c, 0, 64, 93
1, 90285, Control_c, 0, 64, 94
1, 90418, Control_c, 0, 64, 93
1, 90422, Note_on_c, 0, 52, 47
1, 90423, Note_on_c, 0, 70, 67
1, 90433, Control_c, 0, 64, 90
1, 90441, Note_on_c, 0, 55, 33
1, 90441, Note_on_c, 0, 62, 52
1, 90448, Control_c, 0, 64, 85
1, 90462, Control_c, 0, 64, 78
1, 90477, Control_c, 0, 64, 70
1, 90492, Control_c, 0, 64, 49
1, 90507, Control_c, 0, 64, 0
1, 90536, Note_off_c, 0, 52, 56
1, 90545, Note_on_c, 0, 69, 70
1, 90548, Note_off_c, 0, 55, 59
1, 90562, Note_on_c, 0, 54, 48
1, 90563, Note_on_c, 0, 57, 46
1, 90565, Note_off_c, 0, 62, 0
1, 90573, Note_off_c, 0, 70, 58
1, 90620, Note_off_c, 0, 57, 53
1, 90633, Poly_aftertouch_c, 0, 62, 0
1, 90671, Note_off_c, 0, 54, 60
1, 90674, Note_on_c, 0, 67, 66
1, 90687, Note_on_c, 0, 58, 61
1, 90688, Note_on_c, 0, 55, 45
1, 90716, Note_off_c, 0, 69, 60
1, 90737, Control_c, 0, 64, 46
1, 90751, Control_c, 0, 64, 63
1, 90766, Control_c, 0, 64, 68
1, 90781, Control_c, 0, 64, 74
1, 90795, Control_c, 0, 64, 81
1, 90799, Note_off_c, 0, 67, 59
1, 90805, Note_off_c, 0, 58, 59
1, 90810, Control_c, 0, 64, 85
1, 90825, Control_c, 0, 64, 87
1, 90829, Note_off_c, 0, 55, 59
1, 90841, Control_c, 0, 64, 88
1, 90855, Control_c, 0, 64, 89
1, 90870, Control_c, 0, 64, 91
1, 90885, Control_c, 0, 64, 92
1, 90900, Control_c, 0, 64, 94
1, 90915, Control_c, 0, 64, 95
1, 90930, Control_c, 0, 64, 95
1, 90945, Control_c, 0, 64, 96
1, 90974, Control_c, 0, 64, 96
1, 91028, Note_on_c, 0, 66, 59
1, 91039, Note_on_c, 0, 62, 47
1, 91049, Note_on_c, 0, 60, 44
1, 91058, Note_on_c, 0, 57, 36
1, 91078, Control_c, 0, 64, 94
1, 91092, Control_c, 0, 64, 88
1, 91107, Control_c, 0, 64, 76
1, 91122, Control_c, 0, 64, 53
1, 91137, Control_c, 0, 64, 0
1, 91181, Control_c, 0, 64, 51
1, 91196, Control_c, 0, 64, 66
1, 91210, Control_c, 0, 64, 73
1, 91225, Control_c, 0, 64, 80
1, 91240, Control_c, 0, 64, 86
1, 91255, Control_c, 0, 64, 88
1, 91278, Control_c, 0, 64, 90
1, 91292, Control_c, 0, 64, 92
1, 91307, Control_c, 0, 64, 95
1, 91322, Control_c, 0, 64, 98
1, 91337, Control_c, 0, 64, 100
1, 91341, Note_off_c, 0, 62, 57
1, 91352, Control_c, 0, 64, 101
1, 91356, Note_off_c, 0, 66, 64
1, 91366, Control_c, 0, 64, 103
1, 91381, Control_c, 0, 64, 105
1, 91386, Note_off_c, 0, 60, 57
1, 91396, Control_c, 0, 64, 107
1, 91404, Note_off_c, 0, 57, 61
1, 91411, Control_c, 0, 64, 108
1, 91440, Control_c, 0, 64, 109
1, 91455, Control_c, 0, 64, 110
1, 91485, Control_c, 0, 64, 110
1, 91674, Note_on_c, 0, 69, 54
1, 91677, Note_on_c, 0, 66, 50
1, 91684, Note_on_c, 0, 60, 44
1, 91687, Note_on_c, 0, 51, 46
1, 91694, Control_c, 0, 64, 110
1, 91709, Control_c, 0, 64, 108
1, 91723, Control_c, 0, 64, 101
1, 91738, Control_c, 0, 64, 87
1, 91753, Control_c, 0, 64, 72
1, 91768, Control_c, 0, 64, 10
1, 91783, Control_c, 0, 64, 0
1, 91812, Note_off_c, 0, 66, 62
1, 91812, Control_c, 0, 64, 55
1, 91815, Note_off_c, 0, 60, 50
1, 91827, Control_c, 0, 64, 68
1, 91842, Control_c, 0, 64, 76
1, 91857, Control_c, 0, 64, 82
1, 91872, Control_c, 0, 64, 86
1, 91887, Control_c, 0, 64, 88
1, 91902, Control_c, 0, 64, 90
1, 91916, Control_c, 0, 64, 92
1, 91931, Control_c, 0, 64, 95
1, 91940, Note_on_c, 0, 70, 62
1, 91946, Control_c, 0, 64, 98
1, 91955, Note_on_c, 0, 67, 56
1, 91961, Control_c, 0, 64, 101
1, 91964, Note_on_c, 0, 62, 54
1, 91970, Note_on_c, 0, 50, 47
1, 91976, Control_c, 0, 64, 102
1, 91990, Control_c, 0, 64, 103
1, 92005, Control_c, 0, 64, 104
1, 92008, Note_off_c, 0, 62, 58
1, 92027, Note_off_c, 0, 69, 44
1, 92027, Control_c, 0, 64, 105
1, 92030, Note_off_c, 0, 51, 35
1, 92033, Note_off_c, 0, 67, 59
1, 92042, Control_c, 0, 64, 106
1, 92045, Note_off_c, 0, 50, 54
1, 92057, Note_off_c, 0, 70, 58
1, 92057, Control_c, 0, 64, 106
1, 92190, Control_c, 0, 64, 107
1, 92194, Note_on_c, 0, 60, 57
1, 92194, Note_on_c, 0, 66, 62
1, 92196, Note_on_c, 0, 69, 60
1, 92197, Note_on_c, 0, 51, 54
1, 92224, Note_off_c, 0, 60, 59
1, 92260, Note_off_c, 0, 69, 56
1, 92279, Control_c, 0, 64, 106
1, 92286, Note_off_c, 0, 66, 60
1, 92294, Control_c, 0, 64, 99
1, 92303, Note_on_c, 0, 50, 57
1, 92309, Control_c, 0, 64, 84
1, 92310, Note_on_c, 0, 70, 70
1, 92316, Note_on_c, 0, 67, 60
1, 92323, Note_on_c, 0, 62, 54
1, 92323, Control_c, 0, 64, 66
1, 92334, Note_off_c, 0, 51, 37
1, 92338, Control_c, 0, 64, 0
1, 92346, Note_off_c, 0, 62, 58
1, 92354, Note_off_c, 0, 67, 57
1, 92397, Control_c, 0, 64, 43
1, 92412, Control_c, 0, 64, 65
1, 92417, Note_off_c, 0, 70, 60
1, 92427, Control_c, 0, 64, 70
1, 92432, Note_on_c, 0, 72, 68
1, 92441, Note_on_c, 0, 48, 61
1, 92443, Control_c, 0, 64, 76
1, 92444, Note_on_c, 0, 63, 70
1, 92445, Note_on_c, 0, 69, 59
1, 92458, Control_c, 0, 64, 82
1, 92459, Note_off_c, 0, 50, 55
1, 92472, Control_c, 0, 64, 86
1, 92474, Note_off_c, 0, 63, 64
1, 92483, Note_off_c, 0, 69, 65
1, 92487, Control_c, 0, 64, 88
1, 92501, Note_off_c, 0, 72, 63
1, 92502, Control_c, 0, 64, 89
1, 92512, Note_off_c, 0, 48, 64
1, 92517, Control_c, 0, 64, 90
1, 92532, Control_c, 0, 64, 92
1, 92546, Control_c, 0, 64, 94
1, 92561, Control_c, 0, 64, 95
1, 92576, Control_c, 0, 64, 96
1, 92591, Control_c, 0, 64, 97
1, 92606, Control_c, 0, 64, 97
1, 92665, Control_c, 0, 64, 97
1, 92680, Control_c, 0, 64, 93
1, 92680, Note_on_c, 0, 74, 66
1, 92689, Note_on_c, 0, 65, 63
1, 92694, Note_on_c, 0, 70, 65
1, 92695, Control_c, 0, 64, 81
1, 92699, Note_on_c, 0, 46, 55
1, 92710, Control_c, 0, 64, 65
1, 92724, Control_c, 0, 64, 0
1, 92748, Note_off_c, 0, 65, 59
1, 92805, Control_c, 0, 64, 61
1, 92820, Control_c, 0, 64, 68
1, 92835, Control_c, 0, 64, 74
1, 92850, Control_c, 0, 64, 83
1, 92865, Control_c, 0, 64, 90
1, 92879, Control_c, 0, 64, 95
1, 92886, Note_off_c, 0, 74, 57
1, 92894, Control_c, 0, 64, 97
1, 92909, Control_c, 0, 64, 98
1, 92921, Note_off_c, 0, 70, 50
1, 92943, Note_on_c, 0, 72, 73
1, 92947, Note_on_c, 0, 69, 70
1, 92950, Note_on_c, 0, 63, 67
1, 92951, Note_on_c, 0, 48, 58
1, 92954, Control_c, 0, 64, 94
1, 92956, Note_off_c, 0, 46, 35
1, 92969, Control_c, 0, 64, 81
1, 92984, Control_c, 0, 64, 58
1, 92986, Note_off_c, 0, 63, 61
1, 92998, Control_c, 0, 64, 0
1, 93014, Note_off_c, 0, 69, 63
1, 93028, Control_c, 0, 64, 63
1, 93037, Note_off_c, 0, 72, 63
1, 93043, Control_c, 0, 64, 73
1, 93058, Control_c, 0, 64, 83
1, 93072, Control_c, 0, 64, 91
1, 93073, Note_off_c, 0, 48, 57
1, 93087, Control_c, 0, 64, 96
1, 93102, Control_c, 0, 64, 99
1, 93117, Control_c, 0, 64, 104
1, 93132, Control_c, 0, 64, 109
1, 93146, Control_c, 0, 64, 111
1, 93190, Control_c, 0, 64, 108
1, 93205, Control_c, 0, 64, 98
1, 93218, Note_on_c, 0, 74, 71
1, 93220, Control_c, 0, 64, 83
1, 93221, Note_on_c, 0, 70, 68
1, 93226, Note_on_c, 0, 65, 64
1, 93231, Note_on_c, 0, 46, 56
1, 93235, Control_c, 0, 64, 65
1, 93251, Control_c, 0, 64, 0
1, 93264, Note_off_c, 0, 65, 64
1, 93281, Control_c, 0, 64, 54
1, 93295, Control_c, 0, 64, 70
1, 93310, Control_c, 0, 64, 80
1, 93325, Control_c, 0, 64, 88
1, 93340, Control_c, 0, 64, 91
1, 93355, Control_c, 0, 64, 93
1, 93369, Control_c, 0, 64, 97
1, 93376, Note_off_c, 0, 70, 55
1, 93384, Control_c, 0, 64, 102
1, 93399, Control_c, 0, 64, 109
1, 93413, Control_c, 0, 64, 118
1, 93428, Control_c, 0, 64, 127
1, 93502, Control_c, 0, 64, 123
1, 93504, Note_on_c, 0, 75, 71
1, 93520, Note_on_c, 0, 72, 61
1, 93525, Control_c, 0, 64, 102
1, 93527, Note_on_c, 0, 66, 60
1, 93540, Note_on_c, 0, 45, 54
1, 93540, Control_c, 0, 64, 82
1, 93555, Control_c, 0, 64, 60
1, 93561, Note_off_c, 0, 46, 34
1, 93564, Note_off_c, 0, 74, 51
1, 93569, Control_c, 0, 64, 0
1, 93599, Control_c, 0, 64, 66
1, 93611, Note_off_c, 0, 72, 60
1, 93613, Control_c, 0, 64, 78
1, 93628, Control_c, 0, 64, 90
1, 93641, Note_off_c, 0, 66, 53
1, 93643, Control_c, 0, 64, 97
1, 93651, Note_off_c, 0, 45, 62
1, 93655, Note_off_c, 0, 75, 61
1, 93658, Control_c, 0, 64, 100
1, 93673, Control_c, 0, 64, 103
1, 93687, Control_c, 0, 64, 108
1, 93702, Control_c, 0, 64, 115
1, 93717, Control_c, 0, 64, 125
1, 93732, Control_c, 0, 64, 127
1, 93778, Note_on_c, 0, 74, 66
1, 93784, Note_on_c, 0, 65, 62
1, 93789, Note_on_c, 0, 70, 63
1, 93795, Note_on_c, 0, 46, 57
1, 93819, Note_off_c, 0, 65, 64
1, 93910, Note_on_c, 0, 72, 65
1, 93914, Note_off_c, 0, 46, 59
1, 93917, Note_on_c, 0, 69, 65
1, 93918, Note_on_c, 0, 48, 61
1, 93923, Note_off_c, 0, 70, 37
1, 93925, Control_c, 0, 64, 119
1, 93926, Note_off_c, 0, 74, 35
1, 93932, Note_on_c, 0, 63, 54
1, 93939, Control_c, 0, 64, 101
1, 93954, Control_c, 0, 64, 84
1, 93969, Note_off_c, 0, 63, 49
1, 93969, Note_off_c, 0, 69, 64
1, 93969, Control_c, 0, 64, 64
1, 93984, Control_c, 0, 64, 0
1, 94008, Note_off_c, 0, 72, 57
1, 94059, Control_c, 0, 64, 56
1, 94066, Note_off_c, 0, 48, 59
1, 94070, Note_on_c, 0, 70, 71
1, 94074, Control_c, 0, 64, 65
1, 94075, Note_on_c, 0, 50, 53
1, 94079, Note_on_c, 0, 62, 61
1, 94081, Note_on_c, 0, 67, 60
1, 94089, Control_c, 0, 64, 70
1, 94103, Control_c, 0, 64, 79
1, 94118, Control_c, 0, 64, 88
1, 94133, Control_c, 0, 64, 94
1, 94148, Control_c, 0, 64, 95
1, 94163, Control_c, 0, 64, 97
1, 94177, Control_c, 0, 64, 99
1, 94192, Control_c, 0, 64, 101
1, 94197, Note_off_c, 0, 67, 61
1, 94203, Note_off_c, 0, 70, 61
1, 94206, Note_off_c, 0, 62, 58
1, 94207, Control_c, 0, 64, 102
1, 94222, Control_c, 0, 64, 103
1, 94236, Control_c, 0, 64, 104
1, 94251, Control_c, 0, 64, 105
1, 94274, Control_c, 0, 64, 106
1, 94289, Control_c, 0, 64, 107
1, 94290, Note_off_c, 0, 50, 55
1, 94333, Control_c, 0, 64, 108
1, 94466, Control_c, 0, 64, 107
1, 94481, Control_c, 0, 64, 107
1, 94496, Control_c, 0, 64, 106
1, 94509, Note_on_c, 0, 69, 69
1, 94511, Control_c, 0, 64, 102
1, 94514, Note_on_c, 0, 67, 60
1, 94520, Note_on_c, 0, 60, 59
1, 94526, Control_c, 0, 64, 98
1, 94529, Note_on_c, 0, 51, 45
1, 94541, Control_c, 0, 64, 92
1, 94556, Control_c, 0, 64, 84
1, 94570, Control_c, 0, 64, 75
1, 94585, Control_c, 0, 64, 63
1, 94600, Control_c, 0, 64, 0
1, 95060, Note_on_c, 0, 61, 50
1, 95119, Note_off_c, 0, 60, 45
1, 95260, Control_c, 0, 64, 51
1, 95275, Control_c, 0, 64, 63
1, 95290, Control_c, 0, 64, 66
1, 95305, Control_c, 0, 64, 69
1, 95320, Control_c, 0, 64, 74
1, 95334, Control_c, 0, 64, 79
1, 95340, Note_off_c, 0, 61, 48
1, 95349, Control_c, 0, 64, 83
1, 95351, Note_off_c, 0, 67, 28
1, 95364, Control_c, 0, 64, 84
1, 95379, Control_c, 0, 64, 85
1, 95393, Control_c, 0, 64, 87
1, 95408, Control_c, 0, 64, 89
1, 95423, Control_c, 0, 64, 92
1, 95425, Note_off_c, 0, 51, 30
1, 95438, Control_c, 0, 64, 94
1, 95453, Control_c, 0, 64, 95
1, 95467, Control_c, 0, 64, 96
1, 95482, Control_c, 0, 64, 97
1, 95497, Control_c, 0, 64, 97
1, 95512, Control_c, 0, 64, 98
1, 95527, Control_c, 0, 64, 99
1, 95541, Control_c, 0, 64, 99
1, 95816, Control_c, 0, 64, 99
1, 95839, Note_on_c, 0, 66, 42
1, 95846, Control_c, 0, 64, 98
1, 95854, Note_on_c, 0, 62, 37
1, 95861, Control_c, 0, 64, 95
1, 95870, Note_on_c, 0, 50, 27
1, 95876, Control_c, 0, 64, 91
1, 95890, Control_c, 0, 64, 85
1, 95905, Control_c, 0, 64, 75
1, 95920, Control_c, 0, 64, 62
1, 95935, Control_c, 0, 64, 0
1, 96039, Control_c, 0, 64, 30
1, 96049, Note_off_c, 0, 69, 23
1, 96054, Control_c, 0, 64, 63
1, 96069, Control_c, 0, 64, 67
1, 96083, Control_c, 0, 64, 71
1, 96098, Control_c, 0, 64, 74
1, 96113, Control_c, 0, 64, 77
1, 96128, Control_c, 0, 64, 80
1, 96143, Control_c, 0, 64, 81
1, 96149, Note_off_c, 0, 66, 60
1, 96152, Note_off_c, 0, 62, 40
1, 96157, Control_c, 0, 64, 82
1, 96169, Note_off_c, 0, 50, 41
1, 96172, Control_c, 0, 64, 83
1, 96187, Control_c, 0, 64, 84
1, 96202, Control_c, 0, 64, 85
1, 96216, Control_c, 0, 64, 86
1, 96231, Control_c, 0, 64, 87
1, 96246, Control_c, 0, 64, 87
1, 96261, Control_c, 0, 64, 88
1, 96276, Control_c, 0, 64, 89
1, 96320, Control_c, 0, 64, 89
1, 96484, Control_c, 0, 64, 89
1, 96498, Note_on_c, 0, 70, 42
1, 96499, Control_c, 0, 64, 88
1, 96519, Note_on_c, 0, 66, 40
1, 96521, Control_c, 0, 64, 85
1, 96534, Note_on_c, 0, 54, 34
1, 96536, Control_c, 0, 64, 77
1, 96537, Note_on_c, 0, 61, 28
1, 96551, Control_c, 0, 64, 66
1, 96566, Control_c, 0, 64, 0
1, 96610, Control_c, 0, 64, 21
1, 96625, Control_c, 0, 64, 62
1, 96639, Control_c, 0, 64, 67
1, 96654, Control_c, 0, 64, 70
1, 96669, Control_c, 0, 64, 74
1, 96684, Control_c, 0, 64, 78
1, 96699, Control_c, 0, 64, 81
1, 96704, Note_off_c, 0, 70, 37
1, 96713, Control_c, 0, 64, 82
1, 96719, Note_off_c, 0, 66, 38
1, 96728, Control_c, 0, 64, 83
1, 96740, Note_off_c, 0, 54, 35
1, 96743, Control_c, 0, 64, 84
1, 96745, Note_off_c, 0, 61, 34
1, 96758, Control_c, 0, 64, 84
1, 96773, Control_c, 0, 64, 85
1, 96787, Control_c, 0, 64, 86
1, 96802, Control_c, 0, 64, 86
1, 96817, Control_c, 0, 64, 87
1, 96847, Control_c, 0, 64, 87
1, 96906, Control_c, 0, 64, 87
1, 96921, Control_c, 0, 64, 86
1, 96925, Note_on_c, 0, 70, 46
1, 96932, Note_on_c, 0, 66, 44
1, 96936, Control_c, 0, 64, 83
1, 96951, Control_c, 0, 64, 77
1, 96958, Note_on_c, 0, 54, 25
1, 96962, Note_on_c, 0, 61, 17
1, 96965, Control_c, 0, 64, 66
1, 96980, Control_c, 0, 64, 0
1, 97025, Control_c, 0, 64, 44
1, 97039, Control_c, 0, 64, 64
1, 97054, Control_c, 0, 64, 68
1, 97069, Control_c, 0, 64, 71
1, 97084, Control_c, 0, 64, 73
1, 97099, Control_c, 0, 64, 76
1, 97113, Control_c, 0, 64, 78
1, 97115, Note_off_c, 0, 66, 43
1, 97128, Note_off_c, 0, 70, 36
1, 97128, Control_c, 0, 64, 80
1, 97143, Control_c, 0, 64, 80
1, 97157, Control_c, 0, 64, 81
1, 97172, Control_c, 0, 64, 82
1, 97176, Note_off_c, 0, 54, 35
1, 97187, Control_c, 0, 64, 83
1, 97202, Control_c, 0, 64, 84
1, 97209, Note_on_c, 0, 68, 54
1, 97210, Note_on_c, 0, 65, 50
1, 97212, Note_on_c, 0, 49, 37
1, 97279, Note_off_c, 0, 61, 10
1, 97339, Note_off_c, 0, 65, 37
1, 97364, Note_off_c, 0, 49, 40
1, 97371, Note_off_c, 0, 68, 57
1, 97388, Control_c, 0, 64, 83
1, 97403, Control_c, 0, 64, 80
1, 97418, Control_c, 0, 64, 74
1, 97433, Control_c, 0, 64, 62
1, 97448, Control_c, 0, 64, 0
1, 97449, Note_on_c, 0, 70, 56
1, 97461, Note_on_c, 0, 66, 46
1, 97463, Note_on_c, 0, 54, 25
1, 97516, Poly_aftertouch_c, 0, 61, 127
1, 97522, Control_c, 0, 64, 50
1, 97536, Control_c, 0, 64, 61
1, 97538, Note_off_c, 0, 66, 38
1, 97548, Note_off_c, 0, 70, 53
1, 97551, Control_c, 0, 64, 63
1, 97553, Poly_aftertouch_c, 0, 61, 0
1, 97562, Note_on_c, 0, 65, 49
1, 97563, Note_off_c, 0, 54, 38
1, 97566, Control_c, 0, 64, 63
1, 97576, Note_on_c, 0, 68, 55
1, 97586, Note_on_c, 0, 49, 34
1, 97595, Control_c, 0, 64, 64
1, 97610, Control_c, 0, 64, 64
1, 97625, Control_c, 0, 64, 65
1, 97655, Control_c, 0, 64, 62
1, 97661, Note_off_c, 0, 49, 38
1, 97662, Note_off_c, 0, 65, 35
1, 97670, Control_c, 0, 64, 50
1, 97685, Control_c, 0, 64, 26
1, 97688, Note_off_c, 0, 68, 59
1, 97688, Note_on_c, 0, 66, 52
1, 97691, Note_on_c, 0, 70, 52
1, 97696, Note_on_c, 0, 54, 34
1, 97700, Control_c, 0, 64, 25
1, 97714, Control_c, 0, 64, 38
1, 97729, Control_c, 0, 64, 44
1, 97744, Control_c, 0, 64, 43
1, 97759, Control_c, 0, 64, 40
1, 97774, Control_c, 0, 64, 39
1, 97788, Control_c, 0, 64, 42
1, 97803, Control_c, 0, 64, 45
1, 97818, Control_c, 0, 64, 47
1, 97834, Note_off_c, 0, 66, 54
1, 97834, Note_off_c, 0, 70, 54
1, 97862, Control_c, 0, 64, 46
1, 97877, Control_c, 0, 64, 45
1, 97888, Note_off_c, 0, 54, 36
1, 97892, Control_c, 0, 64, 44
1, 97907, Control_c, 0, 64, 43
1, 97922, Control_c, 0, 64, 42
1, 97936, Control_c, 0, 64, 40
1, 97945, Note_on_c, 0, 68, 55
1, 97951, Control_c, 0, 64, 35
1, 97962, Note_on_c, 0, 65, 43
1, 97966, Control_c, 0, 64, 23
1, 97973, Note_on_c, 0, 49, 30
1, 97980, Note_on_c, 0, 61, 19
1, 97980, Control_c, 0, 64, 0
1, 98069, Note_off_c, 0, 61, 0
1, 98106, Poly_aftertouch_c, 0, 61, 127
1, 98167, Control_c, 0, 64, 32
1, 98182, Note_off_c, 0, 65, 31
1, 98182, Control_c, 0, 64, 61
1, 98197, Control_c, 0, 64, 65
1, 98211, Control_c, 0, 64, 67
1, 98216, Note_on_c, 0, 70, 57
1, 98218, Note_off_c, 0, 49, 38
1, 98222, Note_on_c, 0, 66, 53
1, 98226, Control_c, 0, 64, 70
1, 98231, Note_on_c, 0, 54, 35
1, 98240, Control_c, 0, 64, 73
1, 98255, Control_c, 0, 64, 78
1, 98257, Note_off_c, 0, 68, 30
1, 98270, Control_c, 0, 64, 81
1, 98284, Control_c, 0, 64, 82
1, 98288, Note_off_c, 0, 66, 44
1, 98303, Note_off_c, 0, 54, 40
1, 98310, Note_off_c, 0, 70, 52
1, 98314, Control_c, 0, 64, 82
1, 98329, Control_c, 0, 64, 83
1, 98339, Poly_aftertouch_c, 0, 61, 0
1, 98344, Control_c, 0, 64, 84
1, 98358, Control_c, 0, 64, 84
1, 98510, Note_on_c, 0, 71, 56
1, 98521, Note_on_c, 0, 47, 38
1, 98522, Control_c, 0, 64, 84
1, 98526, Note_on_c, 0, 63, 42
1, 98537, Control_c, 0, 64, 81
1, 98552, Control_c, 0, 64, 75
1, 98566, Control_c, 0, 64, 64
1, 98581, Control_c, 0, 64, 0
1, 98639, Note_off_c, 0, 63, 38
1, 98684, Control_c, 0, 64, 50
1, 98699, Control_c, 0, 64, 63
1, 98714, Control_c, 0, 64, 65
1, 98728, Control_c, 0, 64, 65
1, 98743, Control_c, 0, 64, 66
1, 98766, Control_c, 0, 64, 67
1, 98781, Control_c, 0, 64, 68
1, 98796, Control_c, 0, 64, 70
1, 98810, Control_c, 0, 64, 70
1, 98832, Note_off_c, 0, 47, 34
1, 98836, Note_on_c, 0, 54, 38
1, 98837, Note_on_c, 0, 70, 49
1, 98839, Note_on_c, 0, 61, 39
1, 98841, Control_c, 0, 64, 68
1, 98856, Control_c, 0, 64, 61
1, 98863, Note_off_c, 0, 71, 54
1, 98871, Control_c, 0, 64, 0
1, 98930, Note_off_c, 0, 61, 41
1, 98945, Control_c, 0, 64, 47
1, 98958, Note_off_c, 0, 70, 63
1, 98960, Control_c, 0, 64, 63
1, 98975, Control_c, 0, 64, 67
1, 98989, Control_c, 0, 64, 69
1, 99004, Control_c, 0, 64, 72
1, 99019, Control_c, 0, 64, 76
1, 99033, Control_c, 0, 64, 79
1, 99048, Control_c, 0, 64, 81
1, 99051, Note_off_c, 0, 54, 36
1, 99063, Control_c, 0, 64, 81
1, 99078, Control_c, 0, 64, 82
1, 99093, Control_c, 0, 64, 82
1, 99107, Control_c, 0, 64, 83
1, 99122, Control_c, 0, 64, 83
1, 99137, Control_c, 0, 64, 84
1, 99257, Note_on_c, 0, 68, 46
1, 99275, Note_on_c, 0, 65, 43
1, 99300, Control_c, 0, 64, 83
1, 99313, Note_on_c, 0, 49, 23
1, 99315, Control_c, 0, 64, 81
1, 99323, Note_on_c, 0, 61, 14
1, 99330, Control_c, 0, 64, 78
1, 99345, Control_c, 0, 64, 73
1, 99359, Control_c, 0, 64, 64
1, 99374, Control_c, 0, 64, 0
1, 99493, Control_c, 0, 64, 58
1, 99515, Control_c, 0, 64, 65
1, 99530, Control_c, 0, 64, 68
1, 99545, Control_c, 0, 64, 71
1, 99554, Note_off_c, 0, 65, 35
1, 99559, Control_c, 0, 64, 74
1, 99574, Control_c, 0, 64, 77
1, 99589, Control_c, 0, 64, 79
1, 99604, Control_c, 0, 64, 80
1, 99619, Control_c, 0, 64, 81
1, 99625, Note_off_c, 0, 61, 10
1, 99634, Control_c, 0, 64, 82
1, 99649, Control_c, 0, 64, 83
1, 99664, Control_c, 0, 64, 84
1, 99669, Note_off_c, 0, 68, 42
1, 99673, Note_off_c, 0, 49, 37
1, 99679, Control_c, 0, 64, 84
1, 99694, Control_c, 0, 64, 85
1, 99709, Control_c, 0, 64, 85
1, 99724, Control_c, 0, 64, 86
1, 99738, Control_c, 0, 64, 86
1, 99753, Control_c, 0, 64, 87
1, 99782, Control_c, 0, 64, 87
1, 99842, Control_c, 0, 64, 88
1, 100162, Note_on_c, 0, 73, 50
1, 100182, Control_c, 0, 64, 87
1, 100194, Note_on_c, 0, 46, 39
1, 100197, Control_c, 0, 64, 85
1, 100205, Note_on_c, 0, 66, 29
1, 100212, Control_c, 0, 64, 79
1, 100223, Note_on_c, 0, 61, 16
1, 100227, Control_c, 0, 64, 69
1, 100242, Control_c, 0, 64, 35
1, 100263, Control_c, 0, 64, 0
1, 100274, Note_off_c, 0, 61, 50
1, 100285, Note_off_c, 0, 66, 36
1, 100308, Control_c, 0, 64, 59
1, 100323, Control_c, 0, 64, 65
1, 100338, Control_c, 0, 64, 68
1, 100353, Control_c, 0, 64, 72
1, 100367, Control_c, 0, 64, 76
1, 100382, Control_c, 0, 64, 79
1, 100397, Control_c, 0, 64, 81
1, 100412, Control_c, 0, 64, 82
1, 100427, Control_c, 0, 64, 82
1, 100457, Control_c, 0, 64, 83
1, 100472, Control_c, 0, 64, 84
1, 100481, Note_off_c, 0, 46, 34
1, 100487, Control_c, 0, 64, 84
1, 100508, Note_on_c, 0, 70, 61
1, 100510, Note_off_c, 0, 73, 26
1, 100531, Control_c, 0, 64, 85
1, 100540, Note_on_c, 0, 66, 39
1, 100548, Note_on_c, 0, 51, 36
1, 100570, Note_on_c, 0, 63, 3
1, 100579, Note_off_c, 0, 66, 48
1, 100609, Note_off_c, 0, 63, 49
1, 100617, Note_off_c, 0, 70, 55
1, 100620, Note_off_c, 0, 51, 50
1, 100635, Control_c, 0, 64, 85
1, 100791, Note_on_c, 0, 70, 66
1, 100802, Note_on_c, 0, 66, 56
1, 100804, Note_on_c, 0, 51, 39
1, 100812, Control_c, 0, 64, 85
1, 100838, Note_on_c, 0, 63, 23
1, 100842, Control_c, 0, 64, 84
1, 100857, Control_c, 0, 64, 81
1, 100871, Control_c, 0, 64, 76
1, 100886, Control_c, 0, 64, 67
1, 100901, Control_c, 0, 64, 0
1, 100902, Note_off_c, 0, 63, 37
1, 100964, Note_off_c, 0, 66, 35
1, 101041, Note_off_c, 0, 51, 38
1, 101042, Control_c, 0, 64, 45
1, 101056, Note_on_c, 0, 71, 62
1, 101057, Control_c, 0, 64, 62
1, 101072, Control_c, 0, 64, 66
1, 101076, Note_on_c, 0, 44, 33
1, 101077, Note_off_c, 0, 70, 53
1, 101087, Control_c, 0, 64, 69
1, 101102, Control_c, 0, 64, 72
1, 101117, Control_c, 0, 64, 75
1, 101131, Control_c, 0, 64, 77
1, 101144, Note_off_c, 0, 44, 39
1, 101146, Control_c, 0, 64, 78
1, 101182, Note_off_c, 0, 71, 50
1, 101191, Control_c, 0, 64, 78
1, 101296, Control_c, 0, 64, 78
1, 101301, Note_on_c, 0, 68, 60
1, 101309, Note_on_c, 0, 65, 50
1, 101310, Control_c, 0, 64, 77
1, 101312, Note_on_c, 0, 49, 40
1, 101325, Control_c, 0, 64, 76
1, 101340, Control_c, 0, 64, 74
1, 101342, Note_on_c, 0, 61, 17
1, 101355, Control_c, 0, 64, 70
1, 101370, Control_c, 0, 64, 65
1, 101381, Note_off_c, 0, 49, 38
1, 101384, Control_c, 0, 64, 52
1, 101396, Note_off_c, 0, 61, 43
1, 101398, Note_off_c, 0, 65, 46
1, 101399, Control_c, 0, 64, 0
1, 101409, Note_off_c, 0, 68, 58
1, 101421, Note_on_c, 0, 70, 59
1, 101427, Note_on_c, 0, 66, 52
1, 101440, Note_on_c, 0, 42, 34
1, 101476, Note_off_c, 0, 66, 58
1, 101506, Note_off_c, 0, 42, 41
1, 101538, Note_off_c, 0, 70, 52
1, 101563, Note_on_c, 0, 65, 46
1, 101566, Note_on_c, 0, 68, 52
1, 101579, Note_on_c, 0, 49, 34
1, 101596, Note_on_c, 0, 61, 17
1, 101636, Control_c, 0, 64, 46
1, 101649, Note_off_c, 0, 61, 44
1, 101651, Control_c, 0, 64, 64
1, 101666, Control_c, 0, 64, 69
1, 101668, Note_off_c, 0, 65, 52
1, 101681, Control_c, 0, 64, 73
1, 101683, Note_off_c, 0, 49, 48
1, 101695, Control_c, 0, 64, 77
1, 101702, Note_off_c, 0, 68, 62
1, 101710, Control_c, 0, 64, 79
1, 101725, Control_c, 0, 64, 81
1, 101740, Control_c, 0, 64, 82
1, 101762, Control_c, 0, 64, 84
1, 101777, Control_c, 0, 64, 84
1, 101792, Control_c, 0, 64, 85
1, 101807, Control_c, 0, 64, 86
1, 101836, Control_c, 0, 64, 86
1, 101951, Note_on_c, 0, 73, 63
1, 101969, Control_c, 0, 64, 86
1, 101978, Note_on_c, 0, 66, 51
1, 101980, Note_on_c, 0, 46, 36
1, 101984, Control_c, 0, 64, 81
1, 101998, Note_on_c, 0, 61, 26
1, 101999, Control_c, 0, 64, 74
1, 102014, Control_c, 0, 64, 60
1, 102030, Control_c, 0, 64, 0
1, 102032, Note_off_c, 0, 61, 47
1, 102074, Control_c, 0, 64, 40
1, 102085, Note_off_c, 0, 66, 37
1, 102089, Control_c, 0, 64, 63
1, 102104, Control_c, 0, 64, 67
1, 102119, Control_c, 0, 64, 70
1, 102133, Control_c, 0, 64, 73
1, 102148, Control_c, 0, 64, 76
1, 102163, Control_c, 0, 64, 79
1, 102171, Note_off_c, 0, 46, 37
1, 102177, Control_c, 0, 64, 80
1, 102192, Control_c, 0, 64, 81
1, 102207, Control_c, 0, 64, 81
1, 102237, Control_c, 0, 64, 82
1, 102239, Note_on_c, 0, 70, 63
1, 102249, Note_on_c, 0, 51, 42
1, 102251, Note_on_c, 0, 66, 52
1, 102251, Control_c, 0, 64, 82
1, 102256, Note_on_c, 0, 63, 49
1, 102266, Control_c, 0, 64, 83
1, 102275, Note_off_c, 0, 73, 26
1, 102281, Control_c, 0, 64, 84
1, 102309, Note_off_c, 0, 63, 43
1, 102309, Note_off_c, 0, 66, 53
1, 102346, Note_off_c, 0, 51, 53
1, 102356, Note_off_c, 0, 70, 53
1, 102356, Control_c, 0, 64, 85
1, 102527, Note_on_c, 0, 70, 57
1, 102528, Note_on_c, 0, 66, 54
1, 102532, Note_on_c, 0, 51, 35
1, 102555, Control_c, 0, 64, 84
1, 102558, Note_on_c, 0, 63, 31
1, 102570, Control_c, 0, 64, 82
1, 102585, Control_c, 0, 64, 80
1, 102600, Control_c, 0, 64, 76
1, 102615, Control_c, 0, 64, 70
1, 102630, Control_c, 0, 64, 60
1, 102645, Control_c, 0, 64, 0
1, 102651, Note_off_c, 0, 51, 54
1, 102671, Note_on_c, 0, 71, 46
1, 102671, Note_off_c, 0, 70, 50
1, 102674, Note_off_c, 0, 63, 26
1, 102681, Note_off_c, 0, 66, 34
1, 102702, Note_on_c, 0, 44, 29
1, 102846, Note_off_c, 0, 44, 37
1, 102849, Note_off_c, 0, 71, 34
1, 102864, Note_on_c, 0, 65, 46
1, 102869, Note_on_c, 0, 68, 49
1, 102891, Note_on_c, 0, 49, 27
1, 102892, Note_on_c, 0, 61, 21
1, 102971, Control_c, 0, 64, 24
1, 102986, Control_c, 0, 64, 61
1, 103000, Control_c, 0, 64, 67
1, 103015, Note_off_c, 0, 65, 54
1, 103015, Control_c, 0, 64, 70
1, 103030, Control_c, 0, 64, 74
1, 103031, Note_off_c, 0, 61, 39
1, 103045, Control_c, 0, 64, 77
1, 103060, Control_c, 0, 64, 80
1, 103073, Note_off_c, 0, 68, 36
1, 103074, Control_c, 0, 64, 81
1, 103075, Note_off_c, 0, 49, 38
1, 103089, Control_c, 0, 64, 82
1, 103104, Control_c, 0, 64, 83
1, 103119, Control_c, 0, 64, 84
1, 103134, Control_c, 0, 64, 85
1, 103149, Control_c, 0, 64, 85
1, 103164, Control_c, 0, 64, 86
1, 103178, Control_c, 0, 64, 86
1, 103223, Control_c, 0, 64, 87
1, 103325, Note_on_c, 0, 68, 42
1, 103325, Note_on_c, 0, 65, 39
1, 103337, Note_on_c, 0, 61, 32
1, 103348, Note_on_c, 0, 49, 33
1, 103378, Control_c, 0, 64, 85
1, 103393, Control_c, 0, 64, 81
1, 103408, Control_c, 0, 64, 74
1, 103423, Control_c, 0, 64, 60
1, 103438, Control_c, 0, 64, 0
1, 103468, Control_c, 0, 64, 38
1, 103482, Control_c, 0, 64, 63
1, 103497, Control_c, 0, 64, 68
1, 103512, Control_c, 0, 64, 72
1, 103526, Control_c, 0, 64, 77
1, 103541, Control_c, 0, 64, 80
1, 103556, Control_c, 0, 64, 82
1, 103571, Control_c, 0, 64, 83
1, 103586, Control_c, 0, 64, 85
1, 103600, Control_c, 0, 64, 87
1, 103615, Control_c, 0, 64, 88
1, 103628, Note_off_c, 0, 65, 32
1, 103631, Note_off_c, 0, 61, 33
1, 103631, Control_c, 0, 64, 89
1, 103646, Control_c, 0, 64, 90
1, 103652, Note_off_c, 0, 68, 37
1, 103661, Control_c, 0, 64, 90
1, 103674, Note_off_c, 0, 49, 37
1, 103676, Control_c, 0, 64, 91
1, 103691, Control_c, 0, 64, 91
1, 103720, Control_c, 0, 64, 92
1, 103765, Control_c, 0, 64, 92
1, 104117, Note_on_c, 0, 68, 45
1, 104135, Note_on_c, 0, 65, 32
1, 104142, Control_c, 0, 64, 92
1, 104144, Note_on_c, 0, 61, 29
1, 104156, Control_c, 0, 64, 91
1, 104161, Note_on_c, 0, 49, 29
1, 104171, Control_c, 0, 64, 88
1, 104186, Control_c, 0, 64, 80
1, 104201, Control_c, 0, 64, 70
1, 104216, Control_c, 0, 64, 29
1, 104231, Control_c, 0, 64, 0
1, 104255, Note_off_c, 0, 65, 40
1, 104275, Control_c, 0, 64, 45
1, 104290, Control_c, 0, 64, 62
1, 104305, Control_c, 0, 64, 66
1, 104320, Control_c, 0, 64, 68
1, 104335, Control_c, 0, 64, 72
1, 104349, Control_c, 0, 64, 75
1, 104364, Control_c, 0, 64, 78
1, 104379, Control_c, 0, 64, 80
1, 104381, Note_off_c, 0, 68, 37
1, 104392, Note_off_c, 0, 49, 38
1, 104394, Control_c, 0, 64, 80
1, 104401, Note_on_c, 0, 70, 55
1, 104407, Note_on_c, 0, 66, 51
1, 104409, Control_c, 0, 64, 81
1, 104433, Note_on_c, 0, 54, 39
1, 104439, Control_c, 0, 64, 81
1, 104454, Control_c, 0, 64, 82
1, 104469, Control_c, 0, 64, 82
1, 104492, Note_off_c, 0, 61, 41
1, 104512, Note_off_c, 0, 70, 54
1, 104517, Note_off_c, 0, 66, 39
1, 104528, Control_c, 0, 64, 83
1, 104553, Note_off_c, 0, 54, 36
1, 104662, Note_on_c, 0, 70, 52
1, 104676, Note_on_c, 0, 66, 48
1, 104676, Control_c, 0, 64, 82
1, 104678, Note_on_c, 0, 54, 43
1, 104690, Note_on_c, 0, 61, 39
1, 104706, Control_c, 0, 64, 82
1, 104720, Control_c, 0, 64, 80
1, 104735, Control_c, 0, 64, 74
1, 104758, Control_c, 0, 64, 62
1, 104772, Control_c, 0, 64, 0
1, 104842, Note_off_c, 0, 70, 53
1, 104854, Note_off_c, 0, 66, 56
1, 104876, Control_c, 0, 64, 28
1, 104891, Control_c, 0, 64, 60
1, 104899, Note_off_c, 0, 54, 40
1, 104906, Control_c, 0, 64, 65
1, 104916, Note_on_c, 0, 68, 54
1, 104917, Note_on_c, 0, 65, 52
1, 104920, Control_c, 0, 64, 67
1, 104922, Note_on_c, 0, 49, 38
1, 104935, Control_c, 0, 64, 69
1, 104950, Control_c, 0, 64, 71
1, 104965, Control_c, 0, 64, 73
1, 104972, Note_off_c, 0, 61, 21
1, 104977, Note_off_c, 0, 65, 54
1, 104979, Control_c, 0, 64, 74
1, 104994, Control_c, 0, 64, 74
1, 105009, Control_c, 0, 64, 75
1, 105033, Note_off_c, 0, 49, 36
1, 105050, Note_off_c, 0, 68, 59
1, 105143, Control_c, 0, 64, 74
1, 105146, Note_on_c, 0, 66, 52
1, 105146, Note_on_c, 0, 70, 52
1, 105148, Note_on_c, 0, 54, 39
1, 105158, Control_c, 0, 64, 74
1, 105172, Control_c, 0, 64, 73
1, 105173, Note_on_c, 0, 61, 17
1, 105187, Control_c, 0, 64, 70
1, 105202, Control_c, 0, 64, 65
1, 105206, Note_off_c, 0, 70, 47
1, 105217, Control_c, 0, 64, 51
1, 105228, Note_off_c, 0, 61, 42
1, 105232, Control_c, 0, 64, 0
1, 105249, Note_off_c, 0, 54, 37
1, 105255, Note_off_c, 0, 66, 50
1, 105263, Note_on_c, 0, 65, 48
1, 105264, Note_on_c, 0, 68, 56
1, 105266, Note_on_c, 0, 49, 39
1, 105340, Note_off_c, 0, 49, 48
1, 105372, Note_on_c, 0, 54, 44
1, 105373, Note_on_c, 0, 70, 57
1, 105378, Note_on_c, 0, 66, 57
1, 105381, Note_off_c, 0, 68, 57
1, 105420, Note_off_c, 0, 65, 34
1, 105507, Control_c, 0, 64, 56
1, 105509, Note_off_c, 0, 66, 50
1, 105513, Note_off_c, 0, 70, 49
1, 105521, Control_c, 0, 64, 65
1, 105536, Control_c, 0, 64, 69
1, 105551, Control_c, 0, 64, 71
1, 105554, Note_off_c, 0, 54, 37
1, 105566, Control_c, 0, 64, 74
1, 105581, Control_c, 0, 64, 77
1, 105595, Control_c, 0, 64, 78
1, 105610, Control_c, 0, 64, 79
1, 105650, Note_on_c, 0, 68, 58
1, 105653, Note_on_c, 0, 65, 55
1, 105655, Control_c, 0, 64, 78
1, 105663, Note_on_c, 0, 61, 46
1, 105669, Control_c, 0, 64, 76
1, 105674, Note_on_c, 0, 49, 42
1, 105684, Control_c, 0, 64, 67
1, 105699, Control_c, 0, 64, 0
1, 105756, Note_off_c, 0, 65, 51
1, 105773, Control_c, 0, 64, 58
1, 105788, Control_c, 0, 64, 66
1, 105802, Control_c, 0, 64, 70
1, 105817, Control_c, 0, 64, 74
1, 105832, Control_c, 0, 64, 77
1, 105847, Control_c, 0, 64, 79
1, 105862, Control_c, 0, 64, 80
1, 105876, Control_c, 0, 64, 82
1, 105891, Control_c, 0, 64, 83
1, 105893, Note_off_c, 0, 61, 0
1, 105897, Note_on_c, 0, 70, 62
1, 105903, Note_off_c, 0, 68, 37
1, 105906, Note_on_c, 0, 54, 48
1, 105906, Control_c, 0, 64, 84
1, 105910, Note_off_c, 0, 49, 33
1, 105911, Note_on_c, 0, 66, 54
1, 105930, Poly_aftertouch_c, 0, 61, 127
1, 105936, Control_c, 0, 64, 84
1, 105944, Note_off_c, 0, 54, 56
1, 105951, Control_c, 0, 64, 85
1, 105955, Note_off_c, 0, 66, 53
1, 105967, Poly_aftertouch_c, 0, 61, 0
1, 105981, Control_c, 0, 64, 85
1, 105984, Note_off_c, 0, 70, 51
1, 106153, Note_on_c, 0, 70, 60
1, 106166, Note_on_c, 0, 61, 56
1, 106168, Note_on_c, 0, 66, 55
1, 106187, Note_on_c, 0, 42, 42
1, 106207, Note_off_c, 0, 61, 60
1, 106222, Note_off_c, 0, 66, 58
1, 106240, Control_c, 0, 64, 85
1, 106255, Control_c, 0, 64, 84
1, 106258, Note_off_c, 0, 70, 52
1, 106270, Control_c, 0, 64, 82
1, 106285, Control_c, 0, 64, 78
1, 106294, Note_on_c, 0, 65, 64
1, 106299, Control_c, 0, 64, 74
1, 106307, Note_on_c, 0, 68, 58
1, 106314, Note_on_c, 0, 59, 53
1, 106314, Control_c, 0, 64, 67
1, 106326, Note_on_c, 0, 44, 41
1, 106326, Note_off_c, 0, 42, 36
1, 106329, Control_c, 0, 64, 52
1, 106341, Note_off_c, 0, 59, 62
1, 106344, Control_c, 0, 64, 0
1, 106362, Note_off_c, 0, 65, 63
1, 106441, Note_on_c, 0, 66, 62
1, 106460, Note_on_c, 0, 46, 54
1, 106462, Note_on_c, 0, 58, 54
1, 106462, Note_off_c, 0, 44, 46
1, 106466, Note_on_c, 0, 63, 60
1, 106540, Note_off_c, 0, 68, 43
1, 106596, Control_c, 0, 64, 51
1, 106601, Note_off_c, 0, 66, 59
1, 106601, Note_off_c, 0, 63, 58
1, 106611, Control_c, 0, 64, 64
1, 106614, Note_off_c, 0, 58, 26
1, 106625, Control_c, 0, 64, 68
1, 106640, Control_c, 0, 64, 72
1, 106655, Control_c, 0, 64, 76
1, 106670, Control_c, 0, 64, 80
1, 106685, Control_c, 0, 64, 81
1, 106699, Control_c, 0, 64, 82
1, 106714, Control_c, 0, 64, 82
1, 106729, Control_c, 0, 64, 83
1, 106744, Control_c, 0, 64, 84
1, 106748, Note_off_c, 0, 46, 27
1, 106759, Control_c, 0, 64, 85
1, 106890, Note_on_c, 0, 65, 51
1, 106896, Note_on_c, 0, 48, 46
1, 106902, Note_on_c, 0, 63, 46
1, 106905, Note_on_c, 0, 57, 44
1, 106923, Control_c, 0, 64, 84
1, 106937, Control_c, 0, 64, 82
1, 106952, Control_c, 0, 64, 78
1, 106967, Control_c, 0, 64, 74
1, 106982, Control_c, 0, 64, 68
1, 107004, Control_c, 0, 64, 55
1, 107019, Control_c, 0, 64, 0
1, 107483, Note_on_c, 0, 47, 37
1, 107572, Note_off_c, 0, 48, 41
1, 107726, Note_off_c, 0, 57, 52
1, 107763, Note_off_c, 0, 65, 51
1, 107812, Control_c, 0, 64, 58
1, 107827, Control_c, 0, 64, 65
1, 107841, Note_off_c, 0, 63, 39
1, 107842, Control_c, 0, 64, 68
1, 107857, Control_c, 0, 64, 71
1, 107871, Control_c, 0, 64, 75
1, 107886, Control_c, 0, 64, 77
1, 107901, Control_c, 0, 64, 79
1, 107915, Control_c, 0, 64, 80
1, 107930, Control_c, 0, 64, 81
1, 107945, Control_c, 0, 64, 81
1, 107990, Control_c, 0, 64, 82
1, 108108, Note_on_c, 0, 65, 39
1, 108112, Note_on_c, 0, 62, 36
1, 108119, Note_on_c, 0, 58, 29
1, 108124, Control_c, 0, 64, 81
1, 108139, Control_c, 0, 64, 80
1, 108141, Note_on_c, 0, 46, 34
1, 108154, Control_c, 0, 64, 78
1, 108169, Control_c, 0, 64, 74
1, 108174, Note_off_c, 0, 47, 34
1, 108183, Control_c, 0, 64, 67
1, 108198, Control_c, 0, 64, 26
1, 108213, Control_c, 0, 64, 0
1, 108245, Note_off_c, 0, 62, 36
1, 108287, Control_c, 0, 64, 47
1, 108302, Control_c, 0, 64, 63
1, 108316, Control_c, 0, 64, 67
1, 108331, Control_c, 0, 64, 70
1, 108346, Control_c, 0, 64, 73
1, 108361, Control_c, 0, 64, 75
1, 108376, Control_c, 0, 64, 77
1, 108390, Control_c, 0, 64, 79
1, 108405, Control_c, 0, 64, 80
1, 108436, Control_c, 0, 64, 80
1, 108451, Control_c, 0, 64, 81
1, 108458, Note_off_c, 0, 65, 33
1, 108466, Control_c, 0, 64, 82
1, 108481, Control_c, 0, 64, 83
1, 108494, Note_off_c, 0, 46, 35
1, 108502, Control_c, 0, 64, 83
1, 108510, Note_on_c, 0, 67, 46
1, 108511, Note_on_c, 0, 63, 45
1, 108527, Note_on_c, 0, 51, 38
1, 108562, Control_c, 0, 64, 84
1, 108652, Note_off_c, 0, 63, 34
1, 108653, Note_off_c, 0, 67, 36
1, 108675, Note_off_c, 0, 51, 34
1, 108798, Note_on_c, 0, 67, 52
1, 108799, Note_on_c, 0, 51, 42
1, 108804, Note_on_c, 0, 63, 50
1, 108828, Control_c, 0, 64, 83
1, 108843, Control_c, 0, 64, 80
1, 108858, Control_c, 0, 64, 74
1, 108873, Control_c, 0, 64, 61
1, 108887, Control_c, 0, 64, 0
1, 108974, Note_off_c, 0, 67, 55
1, 108991, Control_c, 0, 64, 55
1, 108992, Note_off_c, 0, 63, 58
1, 109006, Control_c, 0, 64, 63
1, 109021, Control_c, 0, 64, 65
1, 109036, Control_c, 0, 64, 66
1, 109051, Control_c, 0, 64, 67
1, 109051, Note_on_c, 0, 65, 57
1, 109054, Note_on_c, 0, 62, 49
1, 109064, Note_off_c, 0, 51, 34
1, 109066, Control_c, 0, 64, 69
1, 109068, Note_on_c, 0, 46, 43
1, 109081, Control_c, 0, 64, 70
1, 109095, Control_c, 0, 64, 71
1, 109110, Control_c, 0, 64, 72
1, 109114, Note_off_c, 0, 58, 38
1, 109136, Note_off_c, 0, 62, 54
1, 109139, Control_c, 0, 64, 72
1, 109154, Control_c, 0, 64, 73
1, 109200, Note_off_c, 0, 46, 35
1, 109200, Note_off_c, 0, 65, 57
1, 109266, Control_c, 0, 64, 72
1, 109281, Control_c, 0, 64, 72
1, 109285, Note_on_c, 0, 63, 56
1, 109289, Note_on_c, 0, 51, 46
1, 109294, Note_on_c, 0, 67, 54
1, 109296, Note_on_c, 0, 58, 41
1, 109311, Control_c, 0, 64, 71
1, 109325, Control_c, 0, 64, 71
1, 109340, Control_c, 0, 64, 70
1, 109346, Note_off_c, 0, 58, 43
1, 109355, Note_off_c, 0, 67, 44
1, 109355, Control_c, 0, 64, 68
1, 109368, Note_off_c, 0, 63, 57
1, 109370, Control_c, 0, 64, 65
1, 109382, Note_off_c, 0, 51, 56
1, 109385, Control_c, 0, 64, 62
1, 109400, Control_c, 0, 64, 59
1, 109403, Note_on_c, 0, 62, 54
1, 109403, Note_on_c, 0, 65, 57
1, 109415, Control_c, 0, 64, 56
1, 109418, Note_on_c, 0, 46, 47
1, 109429, Control_c, 0, 64, 49
1, 109444, Control_c, 0, 64, 0
1, 109506, Note_off_c, 0, 46, 50
1, 109515, Note_on_c, 0, 67, 55
1, 109521, Note_on_c, 0, 63, 51
1, 109521, Note_off_c, 0, 65, 59
1, 109531, Note_on_c, 0, 51, 42
1, 109552, Note_off_c, 0, 62, 34
1, 109620, Note_off_c, 0, 67, 55
1, 109621, Control_c, 0, 64, 58
1, 109635, Control_c, 0, 64, 66
1, 109643, Note_off_c, 0, 63, 57
1, 109650, Control_c, 0, 64, 69
1, 109665, Control_c, 0, 64, 72
1, 109680, Control_c, 0, 64, 74
1, 109695, Control_c, 0, 64, 76
1, 109710, Control_c, 0, 64, 78
1, 109711, Note_off_c, 0, 51, 29
1, 109725, Control_c, 0, 64, 78
1, 109784, Control_c, 0, 64, 78
1, 109787, Note_on_c, 0, 65, 60
1, 109798, Note_on_c, 0, 58, 47
1, 109799, Note_on_c, 0, 62, 49
1, 109799, Control_c, 0, 64, 77
1, 109801, Note_on_c, 0, 46, 48
1, 109814, Control_c, 0, 64, 73
1, 109829, Control_c, 0, 64, 61
1, 109843, Control_c, 0, 64, 0
1, 109947, Control_c, 0, 64, 48
1, 109961, Control_c, 0, 64, 63
1, 109976, Control_c, 0, 64, 66
1, 109999, Control_c, 0, 64, 68
1, 110014, Control_c, 0, 64, 72
1, 110029, Control_c, 0, 64, 75
1, 110041, Note_off_c, 0, 65, 56
1, 110042, Note_off_c, 0, 46, 39
1, 110044, Control_c, 0, 64, 78
1, 110049, Note_on_c, 0, 67, 65
1, 110055, Note_on_c, 0, 63, 57
1, 110059, Control_c, 0, 64, 79
1, 110064, Note_on_c, 0, 51, 48
1, 110073, Control_c, 0, 64, 79
1, 110088, Control_c, 0, 64, 80
1, 110103, Control_c, 0, 64, 80
1, 110106, Note_off_c, 0, 58, 63
1, 110118, Note_off_c, 0, 62, 39
1, 110118, Control_c, 0, 64, 81
1, 110133, Control_c, 0, 64, 82
1, 110145, Note_off_c, 0, 67, 60
1, 110148, Control_c, 0, 64, 82
1, 110151, Note_off_c, 0, 51, 43
1, 110169, Note_off_c, 0, 63, 61
1, 110207, Control_c, 0, 64, 83
1, 110309, Control_c, 0, 64, 82
1, 110324, Control_c, 0, 64, 81
1, 110334, Note_on_c, 0, 63, 45
1, 110337, Note_on_c, 0, 68, 64
1, 110339, Control_c, 0, 64, 78
1, 110347, Note_on_c, 0, 44, 42
1, 110353, Note_on_c, 0, 60, 48
1, 110354, Control_c, 0, 64, 73
1, 110369, Control_c, 0, 64, 64
1, 110383, Control_c, 0, 64, 0
1, 110456, Note_off_c, 0, 60, 54
1, 110517, Note_off_c, 0, 63, 42
1, 110620, Note_on_c, 0, 67, 60
1, 110621, Note_off_c, 0, 44, 41
1, 110637, Note_on_c, 0, 58, 49
1, 110643, Note_on_c, 0, 51, 39
1, 110738, Note_off_c, 0, 68, 24
1, 110777, Control_c, 0, 64, 59
1, 110783, Note_off_c, 0, 67, 59
1, 110791, Control_c, 0, 64, 66
1, 110806, Control_c, 0, 64, 70
1, 110822, Control_c, 0, 64, 74
1, 110834, Note_off_c, 0, 58, 35
1, 110836, Control_c, 0, 64, 79
1, 110851, Control_c, 0, 64, 81
1, 110866, Control_c, 0, 64, 82
1, 110875, Note_off_c, 0, 51, 36
1, 110881, Control_c, 0, 64, 83
1, 110896, Control_c, 0, 64, 84
1, 110911, Control_c, 0, 64, 85
1, 110926, Control_c, 0, 64, 85
1, 110940, Control_c, 0, 64, 86
1, 110998, Note_on_c, 0, 65, 52
1, 111000, Note_on_c, 0, 58, 41
1, 111002, Note_on_c, 0, 62, 45
1, 111021, Note_on_c, 0, 46, 41
1, 111045, Control_c, 0, 64, 85
1, 111060, Control_c, 0, 64, 83
1, 111075, Control_c, 0, 64, 76
1, 111089, Control_c, 0, 64, 64
1, 111104, Control_c, 0, 64, 0
1, 111193, Control_c, 0, 64, 61
1, 111207, Control_c, 0, 64, 67
1, 111222, Control_c, 0, 64, 72
1, 111237, Control_c, 0, 64, 77
1, 111252, Control_c, 0, 64, 81
1, 111267, Control_c, 0, 64, 83
1, 111281, Control_c, 0, 64, 84
1, 111296, Control_c, 0, 64, 86
1, 111311, Control_c, 0, 64, 88
1, 111325, Note_off_c, 0, 62, 35
1, 111326, Control_c, 0, 64, 90
1, 111340, Control_c, 0, 64, 91
1, 111343, Note_off_c, 0, 58, 36
1, 111355, Control_c, 0, 64, 93
1, 111364, Note_off_c, 0, 65, 60
1, 111370, Control_c, 0, 64, 93
1, 111385, Control_c, 0, 64, 94
1, 111400, Control_c, 0, 64, 94
1, 111415, Control_c, 0, 64, 95
1, 111432, Note_off_c, 0, 46, 40
1, 111459, Control_c, 0, 64, 95
1, 111793, Note_on_c, 0, 70, 55
1, 111800, Note_on_c, 0, 63, 47
1, 111808, Control_c, 0, 64, 95
1, 111814, Note_on_c, 0, 58, 33
1, 111823, Control_c, 0, 64, 92
1, 111828, Note_on_c, 0, 43, 36
1, 111837, Control_c, 0, 64, 84
1, 111852, Control_c, 0, 64, 73
1, 111867, Control_c, 0, 64, 55
1, 111882, Control_c, 0, 64, 0
1, 111918, Note_off_c, 0, 58, 55
1, 111926, Control_c, 0, 64, 60
1, 111941, Control_c, 0, 64, 66
1, 111943, Note_off_c, 0, 63, 50
1, 111955, Control_c, 0, 64, 69
1, 111970, Control_c, 0, 64, 73
1, 111985, Control_c, 0, 64, 78
1, 112000, Control_c, 0, 64, 81
1, 112015, Control_c, 0, 64, 83
1, 112027, Note_off_c, 0, 70, 52
1, 112030, Control_c, 0, 64, 84
1, 112044, Control_c, 0, 64, 84
1, 112059, Control_c, 0, 64, 85
1, 112074, Control_c, 0, 64, 86
1, 112089, Control_c, 0, 64, 87
1, 112103, Control_c, 0, 64, 87
1, 112105, Note_on_c, 0, 67, 63
1, 112105, Note_off_c, 0, 43, 37
1, 112112, Note_on_c, 0, 63, 48
1, 112118, Control_c, 0, 64, 88
1, 112125, Note_on_c, 0, 48, 46
1, 112131, Note_on_c, 0, 60, 39
1, 112163, Control_c, 0, 64, 88
1, 112175, Note_off_c, 0, 60, 45
1, 112207, Note_off_c, 0, 67, 56
1, 112208, Control_c, 0, 64, 89
1, 112219, Note_off_c, 0, 63, 38
1, 112264, Note_off_c, 0, 48, 35
1, 112389, Note_on_c, 0, 67, 64
1, 112396, Note_on_c, 0, 48, 50
1, 112402, Note_on_c, 0, 63, 47
1, 112422, Note_on_c, 0, 60, 39
1, 112423, Control_c, 0, 64, 88
1, 112438, Control_c, 0, 64, 87
1, 112453, Control_c, 0, 64, 84
1, 112467, Control_c, 0, 64, 77
1, 112482, Control_c, 0, 64, 66
1, 112497, Control_c, 0, 64, 0
1, 112603, Note_off_c, 0, 60, 27
1, 112631, Control_c, 0, 64, 47
1, 112634, Note_off_c, 0, 48, 41
1, 112638, Note_on_c, 0, 68, 59
1, 112646, Control_c, 0, 64, 62
1, 112655, Note_off_c, 0, 67, 57
1, 112656, Note_on_c, 0, 41, 44
1, 112660, Control_c, 0, 64, 65
1, 112675, Control_c, 0, 64, 67
1, 112690, Control_c, 0, 64, 70
1, 112697, Note_off_c, 0, 63, 51
1, 112704, Control_c, 0, 64, 72
1, 112713, Note_off_c, 0, 41, 54
1, 112719, Control_c, 0, 64, 75
1, 112722, Note_off_c, 0, 68, 61
1, 112734, Control_c, 0, 64, 77
1, 112749, Control_c, 0, 64, 78
1, 112778, Control_c, 0, 64, 79
1, 112793, Control_c, 0, 64, 79
1, 112808, Control_c, 0, 64, 80
1, 112887, Note_on_c, 0, 62, 56
1, 112890, Note_on_c, 0, 65, 58
1, 112894, Note_on_c, 0, 46, 49
1, 112895, Note_on_c, 0, 58, 40
1, 112911, Control_c, 0, 64, 79
1, 112926, Control_c, 0, 64, 78
1, 112941, Control_c, 0, 64, 75
1, 112943, Note_off_c, 0, 58, 42
1, 112956, Control_c, 0, 64, 70
1, 112959, Note_off_c, 0, 46, 55
1, 112971, Control_c, 0, 64, 62
1, 112993, Control_c, 0, 64, 0
1, 113001, Note_off_c, 0, 65, 59
1, 113015, Note_on_c, 0, 67, 54
1, 113018, Note_on_c, 0, 63, 54
1, 113021, Note_on_c, 0, 39, 41
1, 113036, Note_off_c, 0, 62, 36
1, 113081, Note_off_c, 0, 63, 56
1, 113112, Note_off_c, 0, 39, 50
1, 113156, Note_on_c, 0, 65, 53
1, 113159, Note_on_c, 0, 62, 51
1, 113160, Note_on_c, 0, 46, 44
1, 113167, Note_off_c, 0, 67, 36
1, 113168, Note_on_c, 0, 58, 40
1, 113200, Control_c, 0, 64, 32
1, 113216, Control_c, 0, 64, 63
1, 113231, Note_off_c, 0, 58, 40
1, 113231, Control_c, 0, 64, 69
1, 113246, Control_c, 0, 64, 74
1, 113254, Note_off_c, 0, 62, 54
1, 113261, Control_c, 0, 64, 80
1, 113268, Note_off_c, 0, 65, 63
1, 113276, Control_c, 0, 64, 82
1, 113290, Control_c, 0, 64, 84
1, 113303, Note_off_c, 0, 46, 34
1, 113305, Control_c, 0, 64, 85
1, 113320, Control_c, 0, 64, 88
1, 113334, Control_c, 0, 64, 90
1, 113349, Control_c, 0, 64, 91
1, 113364, Control_c, 0, 64, 93
1, 113379, Control_c, 0, 64, 94
1, 113394, Control_c, 0, 64, 94
1, 113409, Control_c, 0, 64, 95
1, 113439, Control_c, 0, 64, 95
1, 113525, Note_on_c, 0, 70, 66
1, 113537, Note_on_c, 0, 63, 58
1, 113542, Control_c, 0, 64, 95
1, 113547, Note_on_c, 0, 58, 49
1, 113552, Note_on_c, 0, 43, 44
1, 113557, Control_c, 0, 64, 90
1, 113572, Control_c, 0, 64, 80
1, 113587, Control_c, 0, 64, 66
1, 113601, Control_c, 0, 64, 0
1, 113609, Note_off_c, 0, 58, 51
1, 113646, Control_c, 0, 64, 62
1, 113661, Control_c, 0, 64, 69
1, 113666, Note_off_c, 0, 63, 53
1, 113675, Control_c, 0, 64, 75
1, 113690, Control_c, 0, 64, 80
1, 113705, Control_c, 0, 64, 83
1, 113720, Control_c, 0, 64, 85
1, 113742, Control_c, 0, 64, 86
1, 113757, Control_c, 0, 64, 88
1, 113758, Note_off_c, 0, 70, 51
1, 113772, Control_c, 0, 64, 90
1, 113787, Control_c, 0, 64, 92
1, 113802, Control_c, 0, 64, 93
1, 113803, Note_on_c, 0, 67, 67
1, 113810, Note_on_c, 0, 63, 57
1, 113816, Control_c, 0, 64, 94
1, 113823, Note_on_c, 0, 48, 52
1, 113825, Note_off_c, 0, 43, 41
1, 113830, Note_on_c, 0, 60, 40
1, 113846, Control_c, 0, 64, 94
1, 113860, Note_off_c, 0, 63, 55
1, 113861, Control_c, 0, 64, 95
1, 113869, Note_off_c, 0, 60, 47
1, 113876, Control_c, 0, 64, 95
1, 113878, Note_off_c, 0, 67, 59
1, 113905, Control_c, 0, 64, 96
1, 113921, Note_off_c, 0, 48, 58
1, 114086, Note_on_c, 0, 67, 65
1, 114095, Note_on_c, 0, 48, 51
1, 114097, Note_on_c, 0, 63, 57
1, 114099, Control_c, 0, 64, 95
1, 114105, Note_on_c, 0, 60, 50
1, 114113, Control_c, 0, 64, 93
1, 114128, Control_c, 0, 64, 88
1, 114143, Control_c, 0, 64, 83
1, 114157, Control_c, 0, 64, 74
1, 114172, Control_c, 0, 64, 64
1, 114187, Control_c, 0, 64, 0
1, 114210, Note_off_c, 0, 48, 60
1, 114220, Note_on_c, 0, 68, 64
1, 114227, Note_off_c, 0, 63, 62
1, 114235, Note_off_c, 0, 60, 35
1, 114245, Note_on_c, 0, 41, 42
1, 114273, Note_off_c, 0, 67, 52
1, 114387, Note_on_c, 0, 65, 56
1, 114392, Note_on_c, 0, 62, 49
1, 114394, Note_on_c, 0, 58, 44
1, 114414, Note_off_c, 0, 68, 47
1, 114416, Note_on_c, 0, 46, 39
1, 114417, Note_off_c, 0, 41, 43
1, 114506, Control_c, 0, 64, 46
1, 114518, Note_off_c, 0, 58, 48
1, 114521, Control_c, 0, 64, 65
1, 114536, Control_c, 0, 64, 71
1, 114539, Note_off_c, 0, 62, 55
1, 114548, Note_off_c, 0, 65, 58
1, 114551, Control_c, 0, 64, 76
1, 114554, Note_off_c, 0, 46, 55
1, 114565, Control_c, 0, 64, 80
1, 114580, Control_c, 0, 64, 82
1, 114595, Control_c, 0, 64, 83
1, 114610, Control_c, 0, 64, 85
1, 114625, Control_c, 0, 64, 87
1, 114639, Control_c, 0, 64, 89
1, 114654, Control_c, 0, 64, 90
1, 114669, Control_c, 0, 64, 91
1, 114683, Control_c, 0, 64, 91
1, 114698, Control_c, 0, 64, 92
1, 114714, Control_c, 0, 64, 92
1, 114769, Note_on_c, 0, 65, 51
1, 114779, Note_on_c, 0, 62, 40
1, 114797, Note_on_c, 0, 46, 40
1, 114804, Control_c, 0, 64, 91
1, 114805, Note_on_c, 0, 58, 19
1, 114819, Control_c, 0, 64, 87
1, 114834, Control_c, 0, 64, 78
1, 114849, Control_c, 0, 64, 65
1, 114863, Control_c, 0, 64, 0
1, 114874, Note_off_c, 0, 58, 42
1, 114908, Control_c, 0, 64, 52
1, 114923, Control_c, 0, 64, 66
1, 114937, Control_c, 0, 64, 71
1, 114952, Control_c, 0, 64, 76
1, 114967, Control_c, 0, 64, 80
1, 114981, Note_off_c, 0, 62, 36
1, 114981, Control_c, 0, 64, 82
1, 114996, Control_c, 0, 64, 84
1, 115011, Control_c, 0, 64, 86
1, 115019, Note_off_c, 0, 46, 37
1, 115026, Control_c, 0, 64, 88
1, 115041, Control_c, 0, 64, 89
1, 115055, Control_c, 0, 64, 91
1, 115066, Note_off_c, 0, 65, 33
1, 115070, Control_c, 0, 64, 91
1, 115085, Control_c, 0, 64, 92
1, 115099, Control_c, 0, 64, 93
1, 115114, Control_c, 0, 64, 93
1, 115117, Note_on_c, 0, 58, 42
1, 115129, Control_c, 0, 64, 94
1, 115174, Control_c, 0, 64, 94
1, 115193, Note_off_c, 0, 58, 59
1, 115537, Note_on_c, 0, 70, 50
1, 115545, Note_on_c, 0, 63, 46
1, 115551, Control_c, 0, 64, 93
1, 115561, Note_on_c, 0, 43, 35
1, 115566, Control_c, 0, 64, 89
1, 115568, Note_on_c, 0, 58, 29
1, 115580, Control_c, 0, 64, 82
1, 115595, Control_c, 0, 64, 70
1, 115611, Control_c, 0, 64, 0
1, 115645, Note_off_c, 0, 58, 39
1, 115685, Control_c, 0, 64, 42
1, 115700, Control_c, 0, 64, 63
1, 115709, Note_off_c, 0, 63, 36
1, 115715, Control_c, 0, 64, 67
1, 115729, Control_c, 0, 64, 72
1, 115744, Control_c, 0, 64, 77
1, 115759, Control_c, 0, 64, 81
1, 115767, Note_off_c, 0, 70, 49
1, 115774, Control_c, 0, 64, 82
1, 115789, Control_c, 0, 64, 83
1, 115803, Control_c, 0, 64, 83
1, 115818, Control_c, 0, 64, 84
1, 115831, Note_on_c, 0, 67, 58
1, 115832, Note_off_c, 0, 43, 34
1, 115833, Control_c, 0, 64, 85
1, 115839, Note_on_c, 0, 48, 45
1, 115840, Note_on_c, 0, 63, 45
1, 115848, Control_c, 0, 64, 85
1, 115858, Note_on_c, 0, 60, 36
1, 115863, Control_c, 0, 64, 86
1, 115877, Control_c, 0, 64, 86
1, 115901, Note_off_c, 0, 60, 46
1, 115907, Control_c, 0, 64, 87
1, 115924, Note_off_c, 0, 48, 52
1, 115925, Note_off_c, 0, 67, 53
1, 115945, Note_off_c, 0, 63, 33
1, 116114, Note_on_c, 0, 67, 56
1, 116122, Note_on_c, 0, 63, 43
1, 116125, Note_on_c, 0, 48, 36
1, 116136, Control_c, 0, 64, 86
1, 116144, Note_on_c, 0, 60, 32
1, 116151, Control_c, 0, 64, 85
1, 116166, Control_c, 0, 64, 83
1, 116181, Control_c, 0, 64, 80
1, 116196, Control_c, 0, 64, 76
1, 116211, Control_c, 0, 64, 70
1, 116226, Control_c, 0, 64, 54
1, 116241, Control_c, 0, 64, 0
1, 116348, Note_off_c, 0, 48, 41
1, 116372, Note_on_c, 0, 68, 56
1, 116374, Note_on_c, 0, 41, 44
1, 116393, Note_off_c, 0, 67, 46
1, 116393, Note_off_c, 0, 60, 20
1, 116420, Control_c, 0, 64, 55
1, 116427, Note_off_c, 0, 63, 51
1, 116434, Control_c, 0, 64, 64
1, 116443, Note_off_c, 0, 41, 54
1, 116449, Control_c, 0, 64, 67
1, 116455, Note_off_c, 0, 68, 60
1, 116464, Control_c, 0, 64, 69
1, 116479, Control_c, 0, 64, 72
1, 116494, Control_c, 0, 64, 76
1, 116508, Control_c, 0, 64, 79
1, 116523, Control_c, 0, 64, 80
1, 116567, Control_c, 0, 64, 81
1, 116582, Control_c, 0, 64, 81
1, 116634, Note_on_c, 0, 46, 45
1, 116640, Note_on_c, 0, 65, 52
1, 116640, Note_on_c, 0, 62, 49
1, 116651, Note_on_c, 0, 58, 35
1, 116686, Control_c, 0, 64, 81
1, 116700, Control_c, 0, 64, 80
1, 116701, Note_off_c, 0, 58, 42
1, 116715, Control_c, 0, 64, 78
1, 116738, Control_c, 0, 64, 75
1, 116748, Note_off_c, 0, 65, 60
1, 116751, Note_off_c, 0, 46, 35
1, 116752, Control_c, 0, 64, 71
1, 116767, Control_c, 0, 64, 64
1, 116773, Note_on_c, 0, 63, 50
1, 116779, Note_on_c, 0, 67, 48
1, 116780, Note_on_c, 0, 39, 34
1, 116782, Control_c, 0, 64, 42
1, 116795, Note_off_c, 0, 62, 35
1, 116797, Control_c, 0, 64, 0
1, 116834, Note_off_c, 0, 63, 57
1, 116876, Note_off_c, 0, 39, 51
1, 116887, Note_off_c, 0, 67, 34
1, 116913, Note_on_c, 0, 46, 41
1, 116923, Note_on_c, 0, 62, 46
1, 116926, Note_on_c, 0, 65, 47
1, 116938, Note_on_c, 0, 58, 26
1, 116999, Note_off_c, 0, 58, 41
1, 117004, Control_c, 0, 64, 62
1, 117012, Note_off_c, 0, 62, 47
1, 117019, Control_c, 0, 64, 67
1, 117021, Note_off_c, 0, 65, 62
1, 117024, Note_off_c, 0, 46, 47
1, 117034, Control_c, 0, 64, 70
1, 117049, Control_c, 0, 64, 74
1, 117064, Control_c, 0, 64, 77
1, 117078, Control_c, 0, 64, 79
1, 117093, Control_c, 0, 64, 81
1, 117108, Control_c, 0, 64, 81
1, 117123, Control_c, 0, 64, 82
1, 117138, Control_c, 0, 64, 83
1, 117152, Control_c, 0, 64, 84
1, 117167, Control_c, 0, 64, 84
1, 117314, Note_on_c, 0, 70, 50
1, 117320, Note_on_c, 0, 63, 45
1, 117331, Control_c, 0, 64, 82
1, 117344, Note_on_c, 0, 43, 37
1, 117344, Note_on_c, 0, 58, 26
1, 117346, Control_c, 0, 64, 78
1, 117361, Control_c, 0, 64, 70
1, 117375, Control_c, 0, 64, 51
1, 117390, Control_c, 0, 64, 0
1, 117394, Note_off_c, 0, 58, 43
1, 117449, Control_c, 0, 64, 53
1, 117464, Control_c, 0, 64, 63
1, 117476, Note_off_c, 0, 63, 37
1, 117487, Control_c, 0, 64, 67
1, 117501, Control_c, 0, 64, 69
1, 117516, Control_c, 0, 64, 72
1, 117531, Control_c, 0, 64, 76
1, 117538, Note_off_c, 0, 70, 51
1, 117546, Control_c, 0, 64, 78
1, 117561, Control_c, 0, 64, 79
1, 117576, Control_c, 0, 64, 80
1, 117582, Note_off_c, 0, 43, 37
1, 117618, Note_on_c, 0, 67, 49
1, 117620, Control_c, 0, 64, 80
1, 117621, Note_on_c, 0, 48, 43
1, 117624, Note_on_c, 0, 63, 39
1, 117635, Control_c, 0, 64, 81
1, 117638, Note_on_c, 0, 60, 29
1, 117675, Note_off_c, 0, 63, 42
1, 117678, Note_off_c, 0, 60, 47
1, 117682, Note_off_c, 0, 67, 53
1, 117734, Note_off_c, 0, 48, 33
1, 117887, Control_c, 0, 64, 80
1, 117895, Note_on_c, 0, 67, 52
1, 117895, Note_on_c, 0, 48, 38
1, 117901, Control_c, 0, 64, 79
1, 117902, Note_on_c, 0, 63, 44
1, 117911, Note_on_c, 0, 60, 34
1, 117916, Control_c, 0, 64, 78
1, 117931, Control_c, 0, 64, 74
1, 117946, Control_c, 0, 64, 66
1, 117961, Control_c, 0, 64, 34
1, 117976, Control_c, 0, 64, 0
1, 118029, Note_off_c, 0, 60, 30
1, 118035, Note_off_c, 0, 48, 36
1, 118041, Note_on_c, 0, 68, 49
1, 118047, Note_on_c, 0, 41, 36
1, 118052, Note_off_c, 0, 67, 46
1, 118074, Note_off_c, 0, 63, 44
1, 118196, Note_off_c, 0, 68, 48
1, 118220, Note_on_c, 0, 65, 44
1, 118220, Note_off_c, 0, 41, 42
1, 118236, Note_on_c, 0, 58, 32
1, 118237, Note_on_c, 0, 62, 38
1, 118238, Note_on_c, 0, 46, 36
1, 118324, Control_c, 0, 64, 13
1, 118339, Control_c, 0, 64, 62
1, 118354, Control_c, 0, 64, 67
1, 118369, Control_c, 0, 64, 71
1, 118374, Note_off_c, 0, 58, 26
1, 118381, Note_off_c, 0, 46, 48
1, 118384, Control_c, 0, 64, 75
1, 118385, Note_off_c, 0, 62, 36
1, 118399, Control_c, 0, 64, 78
1, 118402, Note_off_c, 0, 65, 37
1, 118414, Control_c, 0, 64, 81
1, 118429, Control_c, 0, 64, 82
1, 118444, Control_c, 0, 64, 83
1, 118459, Control_c, 0, 64, 84
1, 118473, Control_c, 0, 64, 85
1, 118488, Control_c, 0, 64, 86
1, 118503, Control_c, 0, 64, 87
1, 118518, Control_c, 0, 64, 87
1, 118611, Note_on_c, 0, 65, 44
1, 118620, Note_on_c, 0, 62, 37
1, 118626, Note_on_c, 0, 58, 30
1, 118634, Note_on_c, 0, 46, 33
1, 118651, Control_c, 0, 64, 87
1, 118666, Control_c, 0, 64, 84
1, 118680, Control_c, 0, 64, 78
1, 118695, Control_c, 0, 64, 68
1, 118710, Control_c, 0, 64, 0
1, 118754, Control_c, 0, 64, 38
1, 118769, Control_c, 0, 64, 64
1, 118784, Control_c, 0, 64, 69
1, 118787, Note_off_c, 0, 58, 33
1, 118800, Control_c, 0, 64, 74
1, 118815, Control_c, 0, 64, 79
1, 118829, Control_c, 0, 64, 82
1, 118844, Control_c, 0, 64, 84
1, 118859, Control_c, 0, 64, 85
1, 118874, Control_c, 0, 64, 87
1, 118889, Control_c, 0, 64, 88
1, 118894, Note_off_c, 0, 62, 28
1, 118903, Control_c, 0, 64, 90
1, 118915, Note_off_c, 0, 46, 25
1, 118917, Note_off_c, 0, 65, 35
1, 118918, Control_c, 0, 64, 91
1, 118933, Control_c, 0, 64, 92
1, 118959, Note_on_c, 0, 58, 38
1, 118962, Control_c, 0, 64, 93
1, 118985, Control_c, 0, 64, 93
1, 119000, Control_c, 0, 64, 94
1, 119067, Note_off_c, 0, 58, 57
1, 119410, Note_on_c, 0, 66, 49
1, 119427, Note_on_c, 0, 62, 30
1, 119429, Control_c, 0, 64, 93
1, 119430, Note_on_c, 0, 60, 36
1, 119440, Note_on_c, 0, 57, 30
1, 119444, Control_c, 0, 64, 93
1, 119459, Control_c, 0, 64, 91
1, 119473, Control_c, 0, 64, 88
1, 119488, Control_c, 0, 64, 80
1, 119503, Control_c, 0, 64, 69
1, 119518, Control_c, 0, 64, 0
1, 119623, Control_c, 0, 64, 59
1, 119638, Control_c, 0, 64, 66
1, 119652, Control_c, 0, 64, 70
1, 119667, Control_c, 0, 64, 74
1, 119682, Control_c, 0, 64, 77
1, 119696, Note_off_c, 0, 57, 40
1, 119696, Control_c, 0, 64, 80
1, 119711, Control_c, 0, 64, 81
1, 119734, Control_c, 0, 64, 81
1, 119749, Control_c, 0, 64, 82
1, 119757, Note_on_c, 0, 67, 50
1, 119760, Note_on_c, 0, 64, 46
1, 119764, Control_c, 0, 64, 83
1, 119768, Note_on_c, 0, 55, 41
1, 119778, Control_c, 0, 64, 83
1, 119783, Note_off_c, 0, 60, 26
1, 119786, Note_off_c, 0, 66, 24
1, 119793, Control_c, 0, 64, 84
1, 119797, Note_on_c, 0, 58, 15
1, 119808, Control_c, 0, 64, 84
1, 119827, Note_off_c, 0, 64, 49
1, 119838, Control_c, 0, 64, 85
1, 119842, Note_off_c, 0, 58, 51
1, 119860, Note_off_c, 0, 62, 40
1, 119862, Note_off_c, 0, 55, 51
1, 119910, Note_off_c, 0, 67, 38
1, 119926, Control_c, 0, 64, 85
1, 120014, Note_on_c, 0, 66, 64
1, 120021, Note_on_c, 0, 57, 47
1, 120042, Note_on_c, 0, 60, 33
1, 120047, Note_on_c, 0, 62, 37
1, 120059, Control_c, 0, 64, 85
1, 120088, Note_off_c, 0, 60, 45
1, 120101, Note_off_c, 0, 57, 60
1, 120116, Note_off_c, 0, 62, 0
1, 120118, Control_c, 0, 64, 84
1, 120133, Control_c, 0, 64, 81
1, 120134, Note_on_c, 0, 64, 58
1, 120137, Note_on_c, 0, 67, 60
1, 120138, Note_on_c, 0, 58, 41
1, 120145, Note_off_c, 0, 66, 59
1, 120148, Control_c, 0, 64, 73
1, 120153, Poly_aftertouch_c, 0, 62, 127
1, 120160, Note_on_c, 0, 55, 40
1, 120163, Control_c, 0, 64, 53
1, 120177, Control_c, 0, 64, 0
1, 120188, Note_off_c, 0, 58, 43
1, 120192, Note_off_c, 0, 64, 53
1, 120211, Poly_aftertouch_c, 0, 62, 0
1, 120254, Note_on_c, 0, 57, 39
1, 120255, Note_on_c, 0, 69, 63
1, 120256, Note_on_c, 0, 54, 51
1, 120265, Note_off_c, 0, 55, 33
1, 120266, Control_c, 0, 64, 48
1, 120268, Note_on_c, 0, 66, 56
1, 120281, Control_c, 0, 64, 64
1, 120295, Control_c, 0, 64, 68
1, 120299, Note_off_c, 0, 67, 57
1, 120310, Control_c, 0, 64, 72
1, 120320, Note_off_c, 0, 57, 59
1, 120325, Control_c, 0, 64, 75
1, 120336, Note_off_c, 0, 66, 58
1, 120340, Note_off_c, 0, 69, 63
1, 120340, Control_c, 0, 64, 78
1, 120349, Note_off_c, 0, 54, 57
1, 120355, Control_c, 0, 64, 79
1, 120369, Control_c, 0, 64, 80
1, 120384, Control_c, 0, 64, 81
1, 120400, Control_c, 0, 64, 81
1, 120415, Control_c, 0, 64, 82
1, 120445, Control_c, 0, 64, 82
1, 120538, Note_on_c, 0, 67, 50
1, 120541, Control_c, 0, 64, 82
1, 120542, Note_on_c, 0, 70, 62
1, 120553, Note_on_c, 0, 55, 40
1, 120556, Control_c, 0, 64, 80
1, 120557, Note_on_c, 0, 52, 41
1, 120571, Control_c, 0, 64, 75
1, 120572, Note_on_c, 0, 62, 39
1, 120586, Control_c, 0, 64, 66
1, 120600, Control_c, 0, 64, 0
1, 120719, Control_c, 0, 64, 17
1, 120734, Control_c, 0, 64, 63
1, 120749, Control_c, 0, 64, 68
1, 120764, Control_c, 0, 64, 73
1, 120779, Control_c, 0, 64, 77
1, 120793, Control_c, 0, 64, 81
1, 120808, Control_c, 0, 64, 83
1, 120809, Note_on_c, 0, 69, 65
1, 120812, Note_on_c, 0, 66, 63
1, 120817, Note_off_c, 0, 67, 56
1, 120823, Note_on_c, 0, 57, 48
1, 120823, Control_c, 0, 64, 84
1, 120826, Note_off_c, 0, 55, 43
1, 120832, Note_on_c, 0, 54, 48
1, 120838, Control_c, 0, 64, 86
1, 120853, Control_c, 0, 64, 88
1, 120860, Note_off_c, 0, 57, 52
1, 120867, Note_off_c, 0, 70, 34
1, 120867, Control_c, 0, 64, 89
1, 120871, Note_off_c, 0, 66, 60
1, 120876, Note_off_c, 0, 69, 64
1, 120879, Note_off_c, 0, 62, 41
1, 120882, Control_c, 0, 64, 90
1, 120894, Note_off_c, 0, 54, 50
1, 120897, Control_c, 0, 64, 90
1, 120912, Control_c, 0, 64, 91
1, 120926, Note_off_c, 0, 52, 40
1, 120927, Control_c, 0, 64, 92
1, 120957, Control_c, 0, 64, 92
1, 121001, Control_c, 0, 64, 93
1, 121097, Note_on_c, 0, 70, 66
1, 121106, Note_on_c, 0, 67, 60
1, 121118, Note_on_c, 0, 52, 40
1, 121119, Control_c, 0, 64, 92
1, 121121, Note_on_c, 0, 55, 38
1, 121123, Note_on_c, 0, 62, 47
1, 121134, Control_c, 0, 64, 92
1, 121149, Control_c, 0, 64, 90
1, 121164, Control_c, 0, 64, 86
1, 121179, Control_c, 0, 64, 79
1, 121195, Control_c, 0, 64, 68
1, 121210, Control_c, 0, 64, 0
1, 121335, Control_c, 0, 64, 53
1, 121350, Control_c, 0, 64, 66
1, 121365, Control_c, 0, 64, 71
1, 121380, Control_c, 0, 64, 76
1, 121389, Note_off_c, 0, 62, 0
1, 121395, Control_c, 0, 64, 80
1, 121400, Note_on_c, 0, 72, 61
1, 121404, Note_on_c, 0, 69, 61
1, 121410, Control_c, 0, 64, 82
1, 121424, Control_c, 0, 64, 83
1, 121425, Note_on_c, 0, 54, 49
1, 121425, Note_off_c, 0, 55, 42
1, 121425, Poly_aftertouch_c, 0, 62, 127
1, 121430, Note_on_c, 0, 50, 38
1, 121434, Note_off_c, 0, 67, 52
1, 121439, Control_c, 0, 64, 84
1, 121445, Note_off_c, 0, 70, 41
1, 121454, Control_c, 0, 64, 85
1, 121458, Note_off_c, 0, 69, 60
1, 121463, Poly_aftertouch_c, 0, 62, 0
1, 121466, Note_off_c, 0, 52, 41
1, 121469, Control_c, 0, 64, 86
1, 121474, Note_off_c, 0, 72, 63
1, 121476, Note_off_c, 0, 54, 58
1, 121481, Note_off_c, 0, 50, 45
1, 121484, Control_c, 0, 64, 87
1, 121513, Control_c, 0, 64, 88
1, 121528, Control_c, 0, 64, 88
1, 121542, Control_c, 0, 64, 89
1, 121651, Note_on_c, 0, 52, 48
1, 121651, Note_on_c, 0, 70, 63
1, 121655, Note_on_c, 0, 67, 56
1, 121663, Note_on_c, 0, 62, 52
1, 121669, Note_on_c, 0, 55, 40
1, 121714, Note_off_c, 0, 62, 50
1, 121735, Control_c, 0, 64, 88
1, 121750, Control_c, 0, 64, 86
1, 121761, Note_off_c, 0, 52, 64
1, 121764, Control_c, 0, 64, 82
1, 121766, Note_on_c, 0, 66, 68
1, 121767, Note_off_c, 0, 55, 60
1, 121768, Note_off_c, 0, 67, 49
1, 121775, Note_on_c, 0, 69, 64
1, 121779, Control_c, 0, 64, 74
1, 121791, Note_on_c, 0, 57, 46
1, 121794, Control_c, 0, 64, 64
1, 121798, Note_on_c, 0, 54, 43
1, 121807, Note_off_c, 0, 70, 44
1, 121809, Control_c, 0, 64, 0
1, 121842, Note_off_c, 0, 57, 43
1, 121913, Note_on_c, 0, 67, 62
1, 121916, Note_off_c, 0, 54, 52
1, 121920, Note_on_c, 0, 58, 56
1, 121922, Note_on_c, 0, 64, 60
1, 121924, Note_on_c, 0, 55, 43
1, 121940, Note_off_c, 0, 66, 30
1, 121945, Note_off_c, 0, 69, 57
1, 121995, Control_c, 0, 64, 33
1, 122010, Control_c, 0, 64, 63
1, 122021, Note_off_c, 0, 67, 62
1, 122025, Control_c, 0, 64, 69
1, 122040, Control_c, 0, 64, 76
1, 122047, Note_off_c, 0, 64, 57
1, 122049, Note_off_c, 0, 55, 61
1, 122054, Control_c, 0, 64, 82
1, 122057, Note_off_c, 0, 58, 61
1, 122069, Control_c, 0, 64, 86
1, 122084, Control_c, 0, 64, 87
1, 122098, Control_c, 0, 64, 89
1, 122113, Control_c, 0, 64, 91
1, 122128, Control_c, 0, 64, 92
1, 122143, Control_c, 0, 64, 94
1, 122158, Control_c, 0, 64, 95
1, 122173, Control_c, 0, 64, 96
1, 122188, Control_c, 0, 64, 96
1, 122232, Control_c, 0, 64, 97
1, 122279, Note_on_c, 0, 66, 60
1, 122289, Note_on_c, 0, 63, 55
1, 122292, Control_c, 0, 64, 96
1, 122293, Note_on_c, 0, 60, 46
1, 122301, Note_on_c, 0, 57, 40
1, 122336, Control_c, 0, 64, 94
1, 122351, Control_c, 0, 64, 88
1, 122365, Control_c, 0, 64, 78
1, 122380, Control_c, 0, 64, 63
1, 122395, Control_c, 0, 64, 0
1, 122498, Control_c, 0, 64, 43
1, 122513, Control_c, 0, 64, 66
1, 122528, Control_c, 0, 64, 73
1, 122543, Control_c, 0, 64, 84
1, 122558, Control_c, 0, 64, 90
1, 122560, Note_off_c, 0, 60, 38
1, 122572, Control_c, 0, 64, 93
1, 122587, Control_c, 0, 64, 95
1, 122602, Control_c, 0, 64, 99
1, 122611, Note_on_c, 0, 62, 59
1, 122614, Note_off_c, 0, 57, 60
1, 122617, Control_c, 0, 64, 104
1, 122632, Control_c, 0, 64, 109
1, 122647, Control_c, 0, 64, 113
1, 122653, Note_off_c, 0, 66, 58
1, 122662, Control_c, 0, 64, 115
1, 122668, Note_off_c, 0, 63, 63
1, 122671, Note_off_c, 0, 62, 55
1, 122677, Control_c, 0, 64, 116
1, 122691, Control_c, 0, 64, 117
1, 122706, Control_c, 0, 64, 118
1, 122728, Control_c, 0, 64, 119
1, 122772, Control_c, 0, 64, 120
1, 122877, Control_c, 0, 64, 119
1, 122904, Note_on_c, 0, 69, 64
1, 122912, Note_on_c, 0, 51, 47
1, 122917, Note_on_c, 0, 60, 56
1, 122919, Note_on_c, 0, 54, 40
1, 122921, Control_c, 0, 64, 118
1, 122936, Control_c, 0, 64, 112
1, 122950, Control_c, 0, 64, 103
1, 122965, Control_c, 0, 64, 91
1, 122980, Control_c, 0, 64, 75
1, 122994, Control_c, 0, 64, 49
1, 123009, Control_c, 0, 64, 0
1, 123035, Note_off_c, 0, 60, 50
1, 123039, Control_c, 0, 64, 50
1, 123054, Control_c, 0, 64, 66
1, 123068, Control_c, 0, 64, 73
1, 123083, Control_c, 0, 64, 80
1, 123098, Control_c, 0, 64, 86
1, 123112, Control_c, 0, 64, 89
1, 123127, Control_c, 0, 64, 91
1, 123142, Control_c, 0, 64, 94
1, 123157, Control_c, 0, 64, 97
1, 123162, Note_on_c, 0, 70, 66
1, 123171, Note_on_c, 0, 53, 55
1, 123172, Note_off_c, 0, 54, 38
1, 123172, Control_c, 0, 64, 100
1, 123180, Note_on_c, 0, 62, 60
1, 123180, Note_off_c, 0, 51, 34
1, 123187, Control_c, 0, 64, 102
1, 123190, Note_on_c, 0, 50, 43
1, 123201, Control_c, 0, 64, 103
1, 123206, Note_off_c, 0, 69, 61
1, 123216, Control_c, 0, 64, 104
1, 123229, Note_off_c, 0, 62, 51
1, 123231, Control_c, 0, 64, 105
1, 123241, Note_off_c, 0, 50, 59
1, 123246, Note_off_c, 0, 53, 61
1, 123246, Control_c, 0, 64, 106
1, 123261, Control_c, 0, 64, 107
1, 123267, Note_off_c, 0, 70, 56
1, 123335, Control_c, 0, 64, 107
1, 123403, Note_on_c, 0, 69, 72
1, 123407, Note_on_c, 0, 60, 61
1, 123413, Note_on_c, 0, 51, 60
1, 123443, Note_off_c, 0, 60, 58
1, 123515, Note_off_c, 0, 51, 57
1, 123520, Control_c, 0, 64, 107
1, 123522, Note_on_c, 0, 70, 72
1, 123528, Note_on_c, 0, 62, 74
1, 123529, Note_on_c, 0, 53, 59
1, 123535, Control_c, 0, 64, 106
1, 123538, Note_on_c, 0, 50, 54
1, 123550, Control_c, 0, 64, 103
1, 123563, Note_off_c, 0, 62, 62
1, 123565, Control_c, 0, 64, 94
1, 123580, Control_c, 0, 64, 79
1, 123595, Control_c, 0, 64, 54
1, 123596, Note_off_c, 0, 69, 52
1, 123610, Control_c, 0, 64, 0
1, 123637, Note_off_c, 0, 50, 52
1, 123638, Note_off_c, 0, 70, 59
1, 123649, Note_on_c, 0, 72, 76
1, 123651, Note_on_c, 0, 48, 58
1, 123657, Note_on_c, 0, 51, 54
1, 123664, Note_on_c, 0, 63, 70
1, 123666, Note_off_c, 0, 53, 52
1, 123669, Control_c, 0, 64, 53
1, 123684, Control_c, 0, 64, 66
1, 123697, Note_off_c, 0, 63, 62
1, 123699, Control_c, 0, 64, 73
1, 123714, Control_c, 0, 64, 80
1, 123723, Note_off_c, 0, 51, 62
1, 123729, Control_c, 0, 64, 86
1, 123730, Note_off_c, 0, 72, 61
1, 123731, Note_off_c, 0, 48, 65
1, 123743, Control_c, 0, 64, 88
1, 123758, Control_c, 0, 64, 89
1, 123773, Control_c, 0, 64, 90
1, 123788, Control_c, 0, 64, 93
1, 123803, Control_c, 0, 64, 95
1, 123817, Control_c, 0, 64, 98
1, 123832, Control_c, 0, 64, 99
1, 123847, Control_c, 0, 64, 100
1, 123876, Control_c, 0, 64, 100
1, 123906, Control_c, 0, 64, 100
1, 123921, Control_c, 0, 64, 98
1, 123926, Note_on_c, 0, 74, 73
1, 123928, Note_on_c, 0, 46, 65
1, 123934, Note_on_c, 0, 65, 64
1, 123935, Control_c, 0, 64, 91
1, 123944, Note_on_c, 0, 50, 50
1, 123950, Control_c, 0, 64, 78
1, 123965, Control_c, 0, 64, 56
1, 123980, Control_c, 0, 64, 0
1, 123982, Note_off_c, 0, 65, 57
1, 124024, Control_c, 0, 64, 64
1, 124039, Control_c, 0, 64, 72
1, 124054, Control_c, 0, 64, 79
1, 124069, Control_c, 0, 64, 85
1, 124084, Control_c, 0, 64, 88
1, 124098, Control_c, 0, 64, 91
1, 124113, Control_c, 0, 64, 94
1, 124128, Control_c, 0, 64, 98
1, 124143, Control_c, 0, 64, 102
1, 124158, Control_c, 0, 64, 106
1, 124173, Control_c, 0, 64, 110
1, 124188, Control_c, 0, 64, 112
1, 124203, Control_c, 0, 64, 114
1, 124227, Note_off_c, 0, 46, 48
1, 124232, Note_on_c, 0, 75, 75
1, 124239, Note_on_c, 0, 66, 57
1, 124240, Note_on_c, 0, 48, 54
1, 124245, Note_on_c, 0, 45, 48
1, 124254, Control_c, 0, 64, 113
1, 124265, Note_off_c, 0, 50, 37
1, 124268, Control_c, 0, 64, 102
1, 124280, Note_off_c, 0, 74, 56
1, 124283, Control_c, 0, 64, 86
1, 124298, Control_c, 0, 64, 68
1, 124313, Control_c, 0, 64, 0
1, 124358, Control_c, 0, 64, 68
1, 124373, Control_c, 0, 64, 80
1, 124388, Control_c, 0, 64, 90
1, 124389, Note_off_c, 0, 66, 38
1, 124403, Control_c, 0, 64, 95
1, 124405, Note_off_c, 0, 48, 50
1, 124406, Note_off_c, 0, 75, 59
1, 124418, Control_c, 0, 64, 96
1, 124433, Control_c, 0, 64, 99
1, 124448, Control_c, 0, 64, 104
1, 124463, Control_c, 0, 64, 112
1, 124464, Note_off_c, 0, 45, 36
1, 124478, Control_c, 0, 64, 121
1, 124492, Control_c, 0, 64, 127
1, 124539, Note_on_c, 0, 74, 77
1, 124555, Note_on_c, 0, 65, 62
1, 124558, Note_on_c, 0, 46, 58
1, 124559, Note_on_c, 0, 50, 54
1, 124581, Control_c, 0, 64, 111
1, 124596, Control_c, 0, 64, 93
1, 124608, Note_off_c, 0, 65, 54
1, 124611, Control_c, 0, 64, 73
1, 124626, Control_c, 0, 64, 0
1, 124671, Control_c, 0, 64, 64
1, 124685, Control_c, 0, 64, 73
1, 124700, Control_c, 0, 64, 81
1, 124715, Control_c, 0, 64, 85
1, 124730, Control_c, 0, 64, 87
1, 124745, Control_c, 0, 64, 91
1, 124759, Control_c, 0, 64, 94
1, 124774, Control_c, 0, 64, 98
1, 124789, Control_c, 0, 64, 102
1, 124804, Control_c, 0, 64, 105
1, 124819, Control_c, 0, 64, 108
1, 124833, Control_c, 0, 64, 109
1, 124848, Control_c, 0, 64, 110
1, 124878, Control_c, 0, 64, 110
1, 124922, Control_c, 0, 64, 109
1, 124937, Control_c, 0, 64, 103
1, 124952, Note_off_c, 0, 50, 58
1, 124952, Control_c, 0, 64, 92
1, 124974, Control_c, 0, 64, 76
1, 124978, Note_on_c, 0, 75, 73
1, 124986, Note_on_c, 0, 48, 51
1, 124988, Note_on_c, 0, 45, 46
1, 124989, Control_c, 0, 64, 29
1, 125002, Note_on_c, 0, 66, 46
1, 125004, Control_c, 0, 64, 0
1, 125021, Note_off_c, 0, 46, 33
1, 125034, Note_off_c, 0, 74, 53
1, 125048, Control_c, 0, 64, 42
1, 125063, Control_c, 0, 64, 67
1, 125078, Control_c, 0, 64, 76
1, 125092, Control_c, 0, 64, 85
1, 125100, Note_off_c, 0, 45, 58
1, 125101, Note_off_c, 0, 48, 63
1, 125107, Control_c, 0, 64, 90
1, 125116, Note_off_c, 0, 66, 53
1, 125122, Control_c, 0, 64, 92
1, 125137, Control_c, 0, 64, 94
1, 125152, Control_c, 0, 64, 97
1, 125158, Note_off_c, 0, 75, 59
1, 125166, Control_c, 0, 64, 100
1, 125181, Control_c, 0, 64, 102
1, 125197, Control_c, 0, 64, 104
1, 125212, Control_c, 0, 64, 104
1, 125227, Control_c, 0, 64, 105
1, 125242, Control_c, 0, 64, 105
1, 125257, Control_c, 0, 64, 106
1, 125294, Note_on_c, 0, 74, 62
1, 125310, Note_on_c, 0, 65, 51
1, 125316, Note_on_c, 0, 46, 53
1, 125324, Note_on_c, 0, 50, 43
1, 125336, Note_off_c, 0, 65, 63
1, 125375, Control_c, 0, 64, 105
1, 125389, Control_c, 0, 64, 104
1, 125404, Control_c, 0, 64, 101
1, 125415, Note_off_c, 0, 50, 55
1, 125416, Note_off_c, 0, 46, 59
1, 125419, Control_c, 0, 64, 96
1, 125434, Control_c, 0, 64, 89
1, 125446, Note_on_c, 0, 72, 64
1, 125447, Note_on_c, 0, 48, 52
1, 125449, Control_c, 0, 64, 80
1, 125453, Note_on_c, 0, 51, 39
1, 125464, Control_c, 0, 64, 68
1, 125466, Note_on_c, 0, 63, 51
1, 125473, Note_off_c, 0, 74, 56
1, 125479, Control_c, 0, 64, 28
1, 125494, Control_c, 0, 64, 0
1, 125509, Note_off_c, 0, 63, 58
1, 125538, Note_off_c, 0, 51, 32
1, 125592, Note_off_c, 0, 72, 49
1, 125633, Note_on_c, 0, 70, 56
1, 125637, Note_on_c, 0, 50, 43
1, 125643, Note_off_c, 0, 48, 36
1, 125644, Note_on_c, 0, 53, 33
1, 125652, Note_on_c, 0, 62, 44
1, 125723, Control_c, 0, 64, 36
1, 125738, Control_c, 0, 64, 64
1, 125753, Control_c, 0, 64, 69
1, 125768, Control_c, 0, 64, 74
1, 125783, Control_c, 0, 64, 79
1, 125797, Control_c, 0, 64, 81
1, 125804, Note_off_c, 0, 50, 51
1, 125808, Note_off_c, 0, 70, 58
1, 125812, Control_c, 0, 64, 83
1, 125820, Note_off_c, 0, 62, 45
1, 125827, Control_c, 0, 64, 84
1, 125840, Note_off_c, 0, 53, 40
1, 125841, Control_c, 0, 64, 85
1, 125856, Control_c, 0, 64, 87
1, 125871, Control_c, 0, 64, 88
1, 125886, Control_c, 0, 64, 89
1, 125915, Control_c, 0, 64, 89
1, 125930, Control_c, 0, 64, 90
1, 125959, Control_c, 0, 64, 90
1, 126167, Control_c, 0, 64, 90
1, 126197, Control_c, 0, 64, 89
1, 126212, Control_c, 0, 64, 88
1, 126219, Note_on_c, 0, 69, 46
1, 126227, Control_c, 0, 64, 86
1, 126227, Note_on_c, 0, 51, 32
1, 126233, Note_on_c, 0, 60, 41
1, 126236, Note_on_c, 0, 54, 37
1, 126242, Control_c, 0, 64, 84
1, 126256, Control_c, 0, 64, 82
1, 126271, Control_c, 0, 64, 78
1, 126286, Control_c, 0, 64, 73
1, 126301, Control_c, 0, 64, 67
1, 126316, Control_c, 0, 64, 51
1, 126330, Control_c, 0, 64, 0
1, 126900, Note_off_c, 0, 51, 36
1, 126930, Note_on_c, 0, 50, 25
1, 127124, Control_c, 0, 64, 15
1, 127139, Control_c, 0, 64, 56
1, 127153, Control_c, 0, 64, 63
1, 127168, Control_c, 0, 64, 66
1, 127183, Control_c, 0, 64, 68
1, 127198, Control_c, 0, 64, 72
1, 127220, Control_c, 0, 64, 75
1, 127234, Control_c, 0, 64, 78
1, 127243, Note_off_c, 0, 69, 32
1, 127249, Control_c, 0, 64, 79
1, 127264, Control_c, 0, 64, 80
1, 127279, Control_c, 0, 64, 81
1, 127294, Control_c, 0, 64, 82
1, 127309, Control_c, 0, 64, 83
1, 127324, Note_off_c, 0, 60, 25
1, 127324, Control_c, 0, 64, 84
1, 127339, Control_c, 0, 64, 85
1, 127354, Control_c, 0, 64, 85
1, 127368, Control_c, 0, 64, 86
1, 127383, Control_c, 0, 64, 86
1, 127398, Control_c, 0, 64, 87
1, 127422, Note_off_c, 0, 54, 12
1, 127443, Control_c, 0, 64, 87
1, 127732, Note_off_c, 0, 50, 31
1, 127783, Note_on_c, 0, 72, 45
1, 127799, Note_on_c, 0, 69, 41
1, 127799, Control_c, 0, 64, 87
1, 127814, Control_c, 0, 64, 85
1, 127829, Control_c, 0, 64, 83
1, 127844, Control_c, 0, 64, 79
1, 127858, Control_c, 0, 64, 72
1, 127873, Control_c, 0, 64, 59
1, 127888, Control_c, 0, 64, 0
1, 127947, Control_c, 0, 64, 47
1, 127970, Control_c, 0, 64, 63
1, 127984, Control_c, 0, 64, 67
1, 127999, Control_c, 0, 64, 72
1, 128014, Control_c, 0, 64, 76
1, 128029, Control_c, 0, 64, 80
1, 128043, Control_c, 0, 64, 81
1, 128058, Control_c, 0, 64, 82
1, 128073, Control_c, 0, 64, 83
1, 128088, Control_c, 0, 64, 84
1, 128103, Control_c, 0, 64, 86
1, 128117, Note_off_c, 0, 69, 31
1, 128117, Control_c, 0, 64, 87
1, 128132, Control_c, 0, 64, 88
1, 128147, Control_c, 0, 64, 89
1, 128162, Control_c, 0, 64, 90
1, 128206, Control_c, 0, 64, 90
1, 128236, Control_c, 0, 64, 91
1, 128251, Control_c, 0, 64, 91
1, 128333, Note_on_c, 0, 70, 47
1, 128349, Note_on_c, 0, 67, 34
1, 128373, Note_off_c, 0, 72, 34
1, 128509, Note_off_c, 0, 67, 38
1, 128559, Note_on_c, 0, 69, 52
1, 128578, Control_c, 0, 64, 91
1, 128583, Note_on_c, 0, 57, 36
1, 128588, Note_off_c, 0, 70, 30
1, 128592, Note_on_c, 0, 66, 31
1, 128593, Control_c, 0, 64, 89
1, 128597, Note_on_c, 0, 60, 38
1, 128607, Control_c, 0, 64, 86
1, 128622, Control_c, 0, 64, 80
1, 128637, Control_c, 0, 64, 70
1, 128652, Control_c, 0, 64, 27
1, 128666, Control_c, 0, 64, 0
1, 128733, Control_c, 0, 64, 51
1, 128748, Control_c, 0, 64, 66
1, 128763, Control_c, 0, 64, 72
1, 128778, Control_c, 0, 64, 78
1, 128793, Control_c, 0, 64, 82
1, 128808, Control_c, 0, 64, 84
1, 128822, Control_c, 0, 64, 85
1, 128837, Control_c, 0, 64, 86
1, 128852, Control_c, 0, 64, 87
1, 128866, Control_c, 0, 64, 89
1, 128881, Control_c, 0, 64, 89
1, 128926, Control_c, 0, 64, 90
1, 128946, Note_off_c, 0, 60, 37
1, 128947, Note_off_c, 0, 57, 36
1, 128952, Note_on_c, 0, 70, 58
1, 128965, Note_on_c, 0, 67, 53
1, 128978, Note_off_c, 0, 69, 34
1, 128983, Note_on_c, 0, 58, 37
1, 128997, Note_off_c, 0, 66, 43
1, 129028, Note_off_c, 0, 67, 51
1, 129029, Poly_aftertouch_c, 0, 55, 127
1, 129053, Note_off_c, 0, 70, 50
1, 129071, Poly_aftertouch_c, 0, 55, 0
1, 129078, Note_on_c, 0, 54, 48
1, 129089, Note_on_c, 0, 57, 50
1, 129095, Note_on_c, 0, 72, 58
1, 129100, Note_on_c, 0, 69, 52
1, 129103, Control_c, 0, 64, 89
1, 129118, Control_c, 0, 64, 83
1, 129128, Note_off_c, 0, 58, 31
1, 129133, Control_c, 0, 64, 72
1, 129148, Control_c, 0, 64, 0
1, 129199, Note_off_c, 0, 72, 58
1, 129202, Note_on_c, 0, 70, 61
1, 129208, Note_off_c, 0, 69, 28
1, 129208, Control_c, 0, 64, 55
1, 129218, Note_on_c, 0, 67, 55
1, 129223, Control_c, 0, 64, 66
1, 129238, Control_c, 0, 64, 70
1, 129249, Note_off_c, 0, 67, 65
1, 129249, Note_off_c, 0, 70, 57
1, 129252, Control_c, 0, 64, 74
1, 129267, Control_c, 0, 64, 78
1, 129282, Control_c, 0, 64, 82
1, 129297, Control_c, 0, 64, 83
1, 129312, Control_c, 0, 64, 84
1, 129327, Control_c, 0, 64, 85
1, 129336, Note_on_c, 0, 69, 60
1, 129337, Note_on_c, 0, 66, 64
1, 129342, Control_c, 0, 64, 85
1, 129356, Control_c, 0, 64, 86
1, 129360, Note_off_c, 0, 54, 33
1, 129371, Control_c, 0, 64, 86
1, 129386, Control_c, 0, 64, 87
1, 129407, Note_off_c, 0, 66, 45
1, 129416, Control_c, 0, 64, 87
1, 129427, Note_off_c, 0, 69, 60
1, 129429, Note_off_c, 0, 57, 39
1, 129430, Note_on_c, 0, 55, 53
1, 129432, Note_on_c, 0, 64, 65
1, 129440, Note_on_c, 0, 67, 60
1, 129478, Note_on_c, 0, 58, 21
1, 129533, Note_off_c, 0, 58, 42
1, 129539, Note_off_c, 0, 55, 54
1, 129542, Control_c, 0, 64, 85
1, 129549, Note_off_c, 0, 64, 40
1, 129557, Note_on_c, 0, 57, 51
1, 129557, Control_c, 0, 64, 81
1, 129559, Note_on_c, 0, 66, 64
1, 129560, Note_on_c, 0, 62, 56
1, 129570, Note_on_c, 0, 60, 63
1, 129571, Control_c, 0, 64, 70
1, 129586, Control_c, 0, 64, 13
1, 129601, Control_c, 0, 64, 0
1, 129606, Note_off_c, 0, 67, 49
1, 129668, Note_on_c, 0, 58, 56
1, 129678, Note_on_c, 0, 55, 55
1, 129682, Note_off_c, 0, 60, 55
1, 129684, Note_off_c, 0, 57, 61
1, 129694, Note_off_c, 0, 62, 53
1, 129704, Control_c, 0, 64, 63
1, 129711, Note_off_c, 0, 58, 65
1, 129717, Note_off_c, 0, 55, 64
1, 129719, Note_off_c, 0, 66, 64
1, 129719, Control_c, 0, 64, 70
1, 129734, Control_c, 0, 64, 75
1, 129749, Control_c, 0, 64, 80
1, 129763, Control_c, 0, 64, 82
1, 129778, Control_c, 0, 64, 84
1, 129793, Control_c, 0, 64, 85
1, 129801, Note_on_c, 0, 57, 65
1, 129804, Note_on_c, 0, 54, 68
1, 129807, Control_c, 0, 64, 86
1, 129822, Control_c, 0, 64, 87
1, 129837, Control_c, 0, 64, 87
1, 129874, Note_off_c, 0, 57, 53
1, 129913, Note_on_c, 0, 55, 67
1, 129915, Note_off_c, 0, 54, 59
1, 129922, Note_on_c, 0, 52, 56
1, 130016, Control_c, 0, 64, 87
1, 130031, Control_c, 0, 64, 86
1, 130046, Control_c, 0, 64, 84
1, 130060, Control_c, 0, 64, 82
1, 130075, Control_c, 0, 64, 79
1, 130087, Note_off_c, 0, 52, 57
1, 130090, Control_c, 0, 64, 73
1, 130098, Note_off_c, 0, 55, 57
1, 130105, Control_c, 0, 64, 63
1, 130119, Note_on_c, 0, 75, 72
1, 130120, Control_c, 0, 64, 0
1, 130126, Note_on_c, 0, 50, 49
1, 130131, Note_on_c, 0, 72, 62
1, 130139, Note_on_c, 0, 54, 50
1, 130335, Control_c, 0, 64, 54
1, 130349, Control_c, 0, 64, 68
1, 130364, Control_c, 0, 64, 74
1, 130379, Control_c, 0, 64, 81
1, 130394, Control_c, 0, 64, 90
1, 130399, Note_off_c, 0, 50, 61
1, 130409, Control_c, 0, 64, 97
1, 130424, Control_c, 0, 64, 102
1, 130426, Note_off_c, 0, 54, 51
1, 130437, Control_c, 0, 64, 106
1, 130452, Control_c, 0, 64, 109
1, 130467, Control_c, 0, 64, 112
1, 130482, Control_c, 0, 64, 118
1, 130497, Control_c, 0, 64, 123
1, 130501, Note_on_c, 0, 70, 69
1, 130504, Note_on_c, 0, 74, 67
1, 130511, Control_c, 0, 64, 127
1, 130522, Note_off_c, 0, 72, 55
1, 130585, Note_off_c, 0, 75, 33
1, 130624, Note_off_c, 0, 70, 52
1, 130630, Control_c, 0, 64, 124
1, 130640, Note_on_c, 0, 72, 77
1, 130645, Control_c, 0, 64, 113
1, 130647, Note_on_c, 0, 63, 62
1, 130647, Note_on_c, 0, 69, 70
1, 130652, Note_on_c, 0, 60, 61
1, 130659, Control_c, 0, 64, 102
1, 130674, Control_c, 0, 64, 85
1, 130683, Note_off_c, 0, 74, 59
1, 130689, Control_c, 0, 64, 68
1, 130704, Control_c, 0, 64, 0
1, 130764, Control_c, 0, 64, 56
1, 130779, Control_c, 0, 64, 70
1, 130794, Control_c, 0, 64, 77
1, 130808, Control_c, 0, 64, 84
1, 130823, Control_c, 0, 64, 86
1, 130838, Control_c, 0, 64, 87
1, 130845, Note_off_c, 0, 63, 58
1, 130853, Control_c, 0, 64, 88
1, 130868, Control_c, 0, 64, 89
1, 130883, Control_c, 0, 64, 91
1, 130894, Note_off_c, 0, 60, 48
1, 130898, Control_c, 0, 64, 92
1, 130913, Control_c, 0, 64, 92
1, 130927, Control_c, 0, 64, 93
1, 130939, Note_on_c, 0, 70, 68
1, 130942, Control_c, 0, 64, 94
1, 130944, Note_on_c, 0, 74, 60
1, 130958, Note_on_c, 0, 58, 61
1, 130964, Control_c, 0, 64, 94
1, 130970, Note_off_c, 0, 72, 58
1, 130978, Note_off_c, 0, 69, 58
1, 130979, Note_on_c, 0, 62, 40
1, 131008, Note_off_c, 0, 62, 52
1, 131008, Control_c, 0, 64, 95
1, 131022, Note_off_c, 0, 70, 56
1, 131038, Control_c, 0, 64, 95
1, 131055, Note_off_c, 0, 58, 50
1, 131059, Note_on_c, 0, 75, 71
1, 131070, Note_on_c, 0, 60, 64
1, 131079, Note_on_c, 0, 57, 56
1, 131087, Note_on_c, 0, 72, 61
1, 131087, Note_off_c, 0, 74, 38
1, 131127, Control_c, 0, 64, 92
1, 131142, Control_c, 0, 64, 83
1, 131157, Control_c, 0, 64, 63
1, 131162, Note_on_c, 0, 70, 69
1, 131172, Control_c, 0, 64, 0
1, 131178, Note_on_c, 0, 74, 61
1, 131181, Note_off_c, 0, 72, 56
1, 131183, Note_off_c, 0, 75, 58
1, 131217, Control_c, 0, 64, 51
1, 131232, Control_c, 0, 64, 68
1, 131247, Control_c, 0, 64, 75
1, 131261, Control_c, 0, 64, 82
1, 131274, Note_on_c, 0, 69, 76
1, 131276, Control_c, 0, 64, 85
1, 131276, Note_off_c, 0, 70, 60
1, 131279, Note_on_c, 0, 72, 73
1, 131289, Note_off_c, 0, 74, 59
1, 131291, Control_c, 0, 64, 86
1, 131304, Note_off_c, 0, 72, 68
1, 131306, Control_c, 0, 64, 88
1, 131321, Control_c, 0, 64, 89
1, 131335, Control_c, 0, 64, 92
1, 131350, Control_c, 0, 64, 94
1, 131362, Note_on_c, 0, 62, 64
1, 131365, Control_c, 0, 64, 95
1, 131367, Note_off_c, 0, 69, 39
1, 131372, Note_on_c, 0, 67, 76
1, 131377, Note_on_c, 0, 58, 59
1, 131377, Note_on_c, 0, 70, 75
1, 131391, Note_off_c, 0, 62, 63
1, 131395, Control_c, 0, 64, 96
1, 131403, Note_off_c, 0, 57, 38
1, 131410, Note_off_c, 0, 58, 67
1, 131412, Note_off_c, 0, 60, 24
1, 131452, Note_off_c, 0, 67, 56
1, 131468, Control_c, 0, 64, 95
1, 131472, Note_on_c, 0, 63, 76
1, 131474, Note_on_c, 0, 69, 82
1, 131475, Note_on_c, 0, 65, 78
1, 131483, Control_c, 0, 64, 91
1, 131487, Note_on_c, 0, 60, 68
1, 131498, Control_c, 0, 64, 82
1, 131509, Note_off_c, 0, 70, 37
1, 131513, Control_c, 0, 64, 66
1, 131526, Note_off_c, 0, 63, 64
1, 131527, Control_c, 0, 64, 0
1, 131551, Note_off_c, 0, 60, 54
1, 131581, Note_on_c, 0, 62, 70
1, 131587, Note_on_c, 0, 58, 70
1, 131597, Note_off_c, 0, 65, 63
1, 131618, Note_off_c, 0, 69, 64
1, 131618, Control_c, 0, 64, 42
1, 131632, Control_c, 0, 64, 67
1, 131647, Control_c, 0, 64, 73
1, 131661, Note_off_c, 0, 58, 57
1, 131662, Control_c, 0, 64, 80
1, 131676, Control_c, 0, 64, 84
1, 131679, Note_on_c, 0, 57, 67
1, 131679, Note_on_c, 0, 60, 73
1, 131691, Control_c, 0, 64, 86
1, 131693, Note_off_c, 0, 62, 38
1, 131714, Control_c, 0, 64, 87
1, 131729, Control_c, 0, 64, 89
1, 131744, Control_c, 0, 64, 91
1, 131758, Control_c, 0, 64, 92
1, 131773, Control_c, 0, 64, 93
1, 131785, Note_on_c, 0, 58, 78
1, 131788, Control_c, 0, 64, 93
1, 131798, Note_on_c, 0, 55, 73
1, 131803, Control_c, 0, 64, 94
1, 131815, Note_off_c, 0, 60, 61
1, 131818, Note_off_c, 0, 57, 61
1, 131850, Note_off_c, 0, 55, 61
1, 131851, Note_off_c, 0, 58, 64
1, 131921, Control_c, 0, 64, 92
1, 131936, Control_c, 0, 64, 89
1, 131950, Control_c, 0, 64, 82
1, 131957, Note_on_c, 0, 79, 88
1, 131962, Note_on_c, 0, 75, 83
1, 131963, Note_on_c, 0, 57, 72
1, 131965, Control_c, 0, 64, 70
1, 131972, Note_on_c, 0, 53, 66
1, 131980, Control_c, 0, 64, 0
1, 132114, Control_c, 0, 64, 46
1, 132129, Control_c, 0, 64, 65
1, 132144, Control_c, 0, 64, 70
1, 132158, Control_c, 0, 64, 76
1, 132173, Control_c, 0, 64, 83
1, 132178, Note_off_c, 0, 57, 61
1, 132188, Control_c, 0, 64, 89
1, 132195, Note_off_c, 0, 53, 63
1, 132202, Control_c, 0, 64, 93
1, 132217, Control_c, 0, 64, 95
1, 132232, Control_c, 0, 64, 98
1, 132247, Control_c, 0, 64, 101
1, 132262, Control_c, 0, 64, 106
1, 132276, Control_c, 0, 64, 109
1, 132291, Control_c, 0, 64, 111
1, 132296, Note_on_c, 0, 77, 78
1, 132299, Note_on_c, 0, 74, 73
1, 132306, Control_c, 0, 64, 112
1, 132315, Note_off_c, 0, 79, 57
1, 132320, Note_off_c, 0, 75, 64
1, 132321, Control_c, 0, 64, 113
1, 132336, Control_c, 0, 64, 114
1, 132350, Control_c, 0, 64, 115
1, 132365, Control_c, 0, 64, 116
1, 132436, Note_off_c, 0, 74, 61
1, 132441, Control_c, 0, 64, 115
1, 132442, Note_on_c, 0, 72, 75
1, 132442, Note_on_c, 0, 75, 78
1, 132457, Note_on_c, 0, 67, 70
1, 132463, Control_c, 0, 64, 112
1, 132466, Note_on_c, 0, 63, 67
1, 132478, Control_c, 0, 64, 104
1, 132493, Control_c, 0, 64, 92
1, 132507, Control_c, 0, 64, 72
1, 132508, Note_off_c, 0, 77, 54
1, 132522, Control_c, 0, 64, 0
1, 132596, Control_c, 0, 64, 61
1, 132611, Control_c, 0, 64, 68
1, 132625, Control_c, 0, 64, 73
1, 132640, Control_c, 0, 64, 77
1, 132655, Control_c, 0, 64, 79
1, 132670, Control_c, 0, 64, 80
1, 132685, Control_c, 0, 64, 81
1, 132700, Control_c, 0, 64, 82
1, 132714, Control_c, 0, 64, 83
1, 132729, Control_c, 0, 64, 83
1, 132744, Control_c, 0, 64, 84
1, 132759, Control_c, 0, 64, 84
1, 132772, Note_on_c, 0, 77, 71
1, 132772, Note_off_c, 0, 63, 60
1, 132776, Note_on_c, 0, 65, 60
1, 132776, Note_off_c, 0, 75, 64
1, 132779, Note_on_c, 0, 74, 62
1, 132780, Note_off_c, 0, 67, 55
1, 132791, Note_on_c, 0, 62, 50
1, 132806, Note_off_c, 0, 72, 58
1, 132824, Note_off_c, 0, 65, 54
1, 132839, Note_off_c, 0, 62, 55
1, 132877, Control_c, 0, 64, 82
1, 132892, Note_on_c, 0, 79, 66
1, 132892, Control_c, 0, 64, 78
1, 132896, Note_on_c, 0, 63, 66
1, 132897, Note_off_c, 0, 77, 58
1, 132902, Note_on_c, 0, 60, 60
1, 132904, Note_on_c, 0, 75, 69
1, 132907, Control_c, 0, 64, 69
1, 132919, Note_off_c, 0, 74, 39
1, 132922, Control_c, 0, 64, 0
1, 132997, Note_off_c, 0, 75, 62
1, 133010, Note_on_c, 0, 74, 65
1, 133011, Note_off_c, 0, 79, 57
1, 133019, Note_on_c, 0, 77, 56
1, 133025, Control_c, 0, 64, 56
1, 133040, Control_c, 0, 64, 63
1, 133055, Control_c, 0, 64, 64
1, 133070, Control_c, 0, 64, 65
1, 133085, Control_c, 0, 64, 66
1, 133097, Note_off_c, 0, 74, 62
1, 133099, Control_c, 0, 64, 67
1, 133105, Note_on_c, 0, 75, 65
1, 133107, Note_on_c, 0, 72, 64
1, 133112, Note_off_c, 0, 77, 60
1, 133114, Control_c, 0, 64, 69
1, 133129, Control_c, 0, 64, 70
1, 133137, Note_off_c, 0, 75, 66
1, 133144, Control_c, 0, 64, 70
1, 133164, Note_off_c, 0, 72, 64
1, 133186, Note_off_c, 0, 60, 58
1, 133190, Note_on_c, 0, 65, 60
1, 133190, Note_off_c, 0, 63, 48
1, 133215, Note_on_c, 0, 74, 66
1, 133216, Note_on_c, 0, 70, 68
1, 133226, Control_c, 0, 64, 70
1, 133228, Note_off_c, 0, 65, 67
1, 133239, Note_on_c, 0, 62, 29
1, 133241, Control_c, 0, 64, 69
1, 133256, Control_c, 0, 64, 69
1, 133268, Note_off_c, 0, 70, 56
1, 133271, Control_c, 0, 64, 67
1, 133279, Note_off_c, 0, 62, 37
1, 133286, Control_c, 0, 64, 65
1, 133301, Control_c, 0, 64, 62
1, 133314, Note_on_c, 0, 72, 70
1, 133315, Control_c, 0, 64, 59
1, 133322, Note_on_c, 0, 69, 62
1, 133323, Note_on_c, 0, 63, 68
1, 133324, Note_on_c, 0, 67, 67
1, 133330, Control_c, 0, 64, 57
1, 133340, Note_off_c, 0, 74, 52
1, 133345, Control_c, 0, 64, 56
1, 133360, Control_c, 0, 64, 53
1, 133372, Note_off_c, 0, 67, 55
1, 133375, Control_c, 0, 64, 48
1, 133388, Note_off_c, 0, 63, 59
1, 133390, Control_c, 0, 64, 45
1, 133404, Control_c, 0, 64, 44
1, 133438, Note_on_c, 0, 65, 62
1, 133443, Note_on_c, 0, 62, 56
1, 133463, Control_c, 0, 64, 43
1, 133478, Control_c, 0, 64, 42
1, 133493, Control_c, 0, 64, 42
1, 133526, Note_on_c, 0, 63, 70
1, 133527, Note_off_c, 0, 65, 64
1, 133542, Note_on_c, 0, 60, 54
1, 133542, Note_off_c, 0, 62, 61
1, 133552, Control_c, 0, 64, 41
1, 133557, Note_off_c, 0, 63, 69
1, 133561, Note_off_c, 0, 69, 35
1, 133567, Control_c, 0, 64, 41
1, 133570, Note_off_c, 0, 60, 63
1, 133582, Control_c, 0, 64, 40
1, 133596, Control_c, 0, 64, 41
1, 133611, Control_c, 0, 64, 41
1, 133612, Note_off_c, 0, 72, 57
1, 133624, Note_on_c, 0, 70, 67
1, 133631, Note_on_c, 0, 74, 55
1, 133640, Note_on_c, 0, 62, 65
1, 133642, Note_on_c, 0, 58, 72
1, 133665, Note_off_c, 0, 62, 63
1, 133669, Note_off_c, 0, 58, 67
1, 133700, Control_c, 0, 64, 42
1, 133703, Note_off_c, 0, 70, 55
1, 133718, Note_off_c, 0, 74, 61
1, 133729, Note_on_c, 0, 75, 68
1, 133751, Note_on_c, 0, 60, 67
1, 133758, Note_on_c, 0, 57, 54
1, 133766, Note_on_c, 0, 72, 44
1, 133774, Control_c, 0, 64, 42
1, 133789, Control_c, 0, 64, 43
1, 133804, Control_c, 0, 64, 42
1, 133817, Note_off_c, 0, 72, 0
1, 133817, Note_on_c, 0, 72, 16
1, 133834, Note_off_c, 0, 75, 56
1, 133840, Note_on_c, 0, 70, 66
1, 133857, Note_off_c, 0, 72, 55
1, 133862, Note_on_c, 0, 74, 43
1, 133878, Control_c, 0, 64, 42
1, 133921, Note_off_c, 0, 70, 60
1, 133922, Control_c, 0, 64, 41
1, 133935, Note_off_c, 0, 74, 61
1, 133940, Note_on_c, 0, 69, 67
1, 133962, Note_on_c, 0, 72, 53
1, 133981, Note_off_c, 0, 72, 61
1, 133990, Control_c, 0, 64, 40
1, 133995, Note_off_c, 0, 60, 32
1, 134005, Control_c, 0, 64, 38
1, 134014, Note_off_c, 0, 69, 64
1, 134049, Control_c, 0, 64, 39
1, 134053, Note_on_c, 0, 67, 70
1, 134055, Note_on_c, 0, 70, 64
1, 134058, Note_on_c, 0, 62, 41
1, 134061, Note_off_c, 0, 57, 23
1, 134065, Note_on_c, 0, 58, 44
1, 134079, Control_c, 0, 64, 38
1, 134083, Note_off_c, 0, 62, 56
1, 134095, Note_off_c, 0, 58, 60
1, 134105, Note_off_c, 0, 67, 57
1, 134120, Note_off_c, 0, 70, 57
1, 134138, Control_c, 0, 64, 39
1, 134159, Note_on_c, 0, 69, 65
1, 134165, Note_on_c, 0, 65, 63
1, 134174, Note_on_c, 0, 60, 63
1, 134176, Note_on_c, 0, 63, 62
1, 134183, Control_c, 0, 64, 40
1, 134198, Control_c, 0, 64, 39
1, 134216, Note_off_c, 0, 63, 65
1, 134219, Note_off_c, 0, 60, 50
1, 134272, Control_c, 0, 64, 39
1, 134283, Note_on_c, 0, 62, 61
1, 134284, Note_on_c, 0, 58, 60
1, 134301, Control_c, 0, 64, 38
1, 134316, Control_c, 0, 64, 37
1, 134330, Note_off_c, 0, 58, 58
1, 134331, Control_c, 0, 64, 36
1, 134346, Control_c, 0, 64, 34
1, 134353, Note_off_c, 0, 62, 54
1, 134378, Note_on_c, 0, 60, 54
1, 134380, Note_on_c, 0, 57, 52
1, 134390, Control_c, 0, 64, 35
1, 134409, Note_off_c, 0, 65, 40
1, 134420, Control_c, 0, 64, 36
1, 134449, Control_c, 0, 64, 36
1, 134476, Note_on_c, 0, 58, 51
1, 134477, Note_on_c, 0, 55, 54
1, 134477, Note_on_c, 0, 67, 62
1, 134479, Note_on_c, 0, 70, 64
1, 134481, Note_off_c, 0, 60, 61
1, 134486, Note_off_c, 0, 57, 61
1, 134501, Note_off_c, 0, 69, 60
1, 134505, Note_off_c, 0, 58, 64
1, 134510, Note_off_c, 0, 55, 66
1, 134523, Control_c, 0, 64, 36
1, 134525, Note_off_c, 0, 67, 57
1, 134552, Control_c, 0, 64, 36
1, 134559, Note_off_c, 0, 70, 56
1, 134591, Note_on_c, 0, 53, 61
1, 134597, Control_c, 0, 64, 37
1, 134600, Note_on_c, 0, 72, 58
1, 134605, Note_on_c, 0, 57, 58
1, 134612, Note_on_c, 0, 69, 60
1, 134672, Control_c, 0, 64, 36
1, 134704, Note_off_c, 0, 69, 32
1, 134718, Note_on_c, 0, 67, 58
1, 134719, Note_on_c, 0, 70, 61
1, 134734, Note_off_c, 0, 72, 47
1, 134753, Control_c, 0, 64, 36
1, 134796, Note_off_c, 0, 67, 52
1, 134799, Control_c, 0, 64, 36
1, 134830, Note_on_c, 0, 69, 66
1, 134838, Note_on_c, 0, 65, 58
1, 134848, Note_off_c, 0, 70, 62
1, 134860, Note_off_c, 0, 69, 66
1, 134883, Note_off_c, 0, 65, 64
1, 134888, Control_c, 0, 64, 36
1, 134898, Note_off_c, 0, 53, 49
1, 134925, Note_off_c, 0, 57, 56
1, 134931, Control_c, 0, 64, 35
1, 134945, Note_on_c, 0, 58, 56
1, 134952, Note_on_c, 0, 67, 65
1, 134959, Note_on_c, 0, 55, 51
1, 134964, Note_on_c, 0, 63, 57
1, 134976, Control_c, 0, 64, 34
1, 134988, Note_off_c, 0, 58, 62
1, 134988, Note_off_c, 0, 67, 58
1, 134992, Note_off_c, 0, 63, 63
1, 134998, Note_off_c, 0, 55, 64
1, 135006, Control_c, 0, 64, 33
1, 135020, Control_c, 0, 64, 32
1, 135050, Control_c, 0, 64, 31
1, 135065, Control_c, 0, 64, 30
1, 135080, Control_c, 0, 64, 29
1, 135094, Note_on_c, 0, 59, 57
1, 135094, Control_c, 0, 64, 27
1, 135095, Note_on_c, 0, 65, 56
1, 135098, Note_on_c, 0, 56, 56
1, 135109, Control_c, 0, 64, 23
1, 135121, Note_on_c, 0, 62, 23
1, 135124, Control_c, 0, 64, 13
1, 135125, Note_off_c, 0, 59, 64
1, 135131, Note_off_c, 0, 56, 64
1, 135131, Note_off_c, 0, 65, 65
1, 135139, Control_c, 0, 64, 0
1, 135152, Note_off_c, 0, 62, 42
1, 135259, Note_on_c, 0, 64, 47
1, 135280, Note_off_c, 0, 64, 59
1, 135397, Note_on_c, 0, 57, 54
1, 135401, Note_on_c, 0, 63, 58
1, 135410, Note_on_c, 0, 60, 37
1, 135420, Note_off_c, 0, 57, 61
1, 135432, Note_off_c, 0, 63, 66
1, 135447, Note_off_c, 0, 60, 44
1, 135564, Note_on_c, 0, 60, 50
1, 135605, Note_off_c, 0, 60, 61
1, 135783, Note_on_c, 0, 58, 48
1, 135904, Note_on_c, 0, 62, 52
1, 135950, Note_off_c, 0, 62, 56
1, 136016, Note_on_c, 0, 74, 54
1, 136082, Note_off_c, 0, 74, 63
1, 136105, Note_on_c, 0, 57, 62
1, 136147, Note_off_c, 0, 58, 62
1, 136231, Note_on_c, 0, 55, 73
1, 136244, Note_off_c, 0, 57, 54
1, 136344, Note_on_c, 0, 63, 70
1, 136407, Note_off_c, 0, 63, 53
1, 136447, Note_on_c, 0, 75, 66
1, 136499, Note_off_c, 0, 75, 62
1, 136526, Note_off_c, 0, 55, 61
1, 136544, Note_on_c, 0, 57, 76
1, 136610, Note_off_c, 0, 57, 54
1, 136648, Note_on_c, 0, 58, 82
1, 136687, Note_off_c, 0, 58, 64
1, 136752, Note_on_c, 0, 57, 79
1, 136752, Note_on_c, 0, 61, 72
1, 136780, Note_off_c, 0, 57, 65
1, 136785, Note_off_c, 0, 61, 61
1, 136863, Note_on_c, 0, 73, 66
1, 136868, Note_on_c, 0, 55, 79
1, 136894, Note_off_c, 0, 55, 68
1, 136953, Note_off_c, 0, 73, 51
1, 136959, Note_on_c, 0, 61, 72
1, 136991, Note_off_c, 0, 61, 62
1, 137071, Note_on_c, 0, 53, 79
1, 137105, Note_off_c, 0, 53, 65
1, 137179, Note_on_c, 0, 62, 58
1, 137220, Note_off_c, 0, 62, 59
1, 137296, Note_on_c, 0, 50, 71
1, 137298, Note_on_c, 0, 74, 59
1, 137327, Note_off_c, 0, 50, 67
1, 137363, Note_off_c, 0, 74, 60
1, 137390, Note_on_c, 0, 62, 54
1, 137427, Note_off_c, 0, 62, 63
1, 137491, Note_on_c, 0, 51, 68
1, 137514, Note_off_c, 0, 51, 67
1, 137593, Note_on_c, 0, 57, 59
1, 137599, Note_on_c, 0, 53, 71
1, 137630, Note_off_c, 0, 53, 67
1, 137634, Note_off_c, 0, 57, 57
1, 137700, Note_on_c, 0, 69, 54
1, 137715, Note_on_c, 0, 55, 71
1, 137741, Note_off_c, 0, 55, 66
1, 137770, Note_off_c, 0, 69, 56
1, 137788, Note_on_c, 0, 57, 59
1, 137824, Note_off_c, 0, 57, 63
1, 137936, Note_on_c, 0, 50, 60
1, 138016, Note_on_c, 0, 58, 51
1, 138045, Control_c, 0, 64, 51
1, 138060, Control_c, 0, 64, 64
1, 138075, Control_c, 0, 64, 67
1, 138090, Control_c, 0, 64, 69
1, 138092, Note_off_c, 0, 50, 58
1, 138092, Note_off_c, 0, 58, 53
1, 138105, Control_c, 0, 64, 70
1, 138119, Control_c, 0, 64, 72
1, 138133, Note_on_c, 0, 67, 51
1, 138134, Control_c, 0, 64, 75
1, 138136, Note_on_c, 0, 70, 58
1, 138149, Control_c, 0, 64, 77
1, 138164, Control_c, 0, 64, 78
1, 138179, Control_c, 0, 64, 79
1, 138220, Note_off_c, 0, 67, 52
1, 138228, Note_on_c, 0, 50, 68
1, 138230, Note_on_c, 0, 58, 60
1, 138254, Note_off_c, 0, 70, 36
1, 138261, Note_off_c, 0, 50, 63
1, 138265, Note_off_c, 0, 58, 65
1, 138297, Control_c, 0, 64, 77
1, 138311, Control_c, 0, 64, 73
1, 138326, Control_c, 0, 64, 64
1, 138332, Note_on_c, 0, 51, 72
1, 138341, Control_c, 0, 64, 0
1, 138362, Note_off_c, 0, 51, 66
1, 138425, Note_on_c, 0, 53, 78
1, 138453, Note_on_c, 0, 57, 57
1, 138472, Note_off_c, 0, 53, 69
1, 138492, Note_off_c, 0, 57, 61
1, 138529, Note_on_c, 0, 55, 74
1, 138559, Note_off_c, 0, 55, 68
1, 138568, Note_on_c, 0, 69, 53
1, 138593, Note_on_c, 0, 67, 21
1, 138615, Note_off_c, 0, 69, 61
1, 138635, Note_off_c, 0, 67, 39
1, 138639, Note_on_c, 0, 57, 63
1, 138680, Note_off_c, 0, 57, 63
1, 138746, Note_on_c, 0, 50, 64
1, 138850, Note_on_c, 0, 58, 64
1, 138883, Control_c, 0, 64, 47
1, 138898, Control_c, 0, 64, 60
1, 138908, Note_off_c, 0, 58, 52
1, 138913, Control_c, 0, 64, 63
1, 138923, Note_off_c, 0, 50, 62
1, 138928, Control_c, 0, 64, 64
1, 138942, Control_c, 0, 64, 64
1, 138949, Note_on_c, 0, 67, 59
1, 138957, Control_c, 0, 64, 65
1, 138961, Note_on_c, 0, 70, 55
1, 138972, Control_c, 0, 64, 66
1, 138987, Control_c, 0, 64, 67
1, 139043, Note_off_c, 0, 67, 38
1, 139044, Note_on_c, 0, 58, 60
1, 139076, Note_off_c, 0, 58, 66
1, 139086, Note_off_c, 0, 70, 45
1, 139105, Control_c, 0, 64, 67
1, 139135, Control_c, 0, 64, 66
1, 139149, Control_c, 0, 64, 65
1, 139155, Note_on_c, 0, 58, 77
1, 139164, Control_c, 0, 64, 62
1, 139179, Control_c, 0, 64, 56
1, 139201, Control_c, 0, 64, 42
1, 139216, Control_c, 0, 64, 15
1, 139231, Control_c, 0, 64, 0
1, 139270, Note_on_c, 0, 62, 63
1, 139328, Note_off_c, 0, 62, 53
1, 139379, Note_on_c, 0, 74, 63
1, 139458, Note_on_c, 0, 55, 70
1, 139459, Note_off_c, 0, 74, 63
1, 139470, Note_on_c, 0, 62, 71
1, 139476, Note_off_c, 0, 58, 64
1, 139495, Note_off_c, 0, 55, 66
1, 139519, Note_off_c, 0, 62, 62
1, 139583, Note_on_c, 0, 60, 86
1, 139677, Note_on_c, 0, 63, 75
1, 139738, Note_off_c, 0, 63, 61
1, 139785, Note_on_c, 0, 75, 67
1, 139876, Note_off_c, 0, 75, 61
1, 139876, Note_on_c, 0, 57, 69
1, 139879, Note_on_c, 0, 63, 73
1, 139906, Note_off_c, 0, 60, 59
1, 139926, Note_off_c, 0, 63, 62
1, 139955, Note_off_c, 0, 57, 61
1, 139990, Note_on_c, 0, 58, 80
1, 140002, Note_on_c, 0, 74, 74
1, 140040, Note_off_c, 0, 58, 64
1, 140071, Note_off_c, 0, 74, 64
1, 140089, Note_on_c, 0, 57, 77
1, 140092, Note_on_c, 0, 62, 79
1, 140135, Note_off_c, 0, 57, 61
1, 140142, Note_off_c, 0, 62, 61
1, 140194, Note_on_c, 0, 55, 86
1, 140202, Note_on_c, 0, 76, 72
1, 140205, Note_on_c, 0, 73, 75
1, 140222, Note_off_c, 0, 55, 67
1, 140282, Note_off_c, 0, 76, 65
1, 140295, Note_on_c, 0, 64, 77
1, 140317, Note_off_c, 0, 73, 33
1, 140333, Note_off_c, 0, 64, 62
1, 140393, Note_on_c, 0, 53, 95
1, 140401, Note_on_c, 0, 74, 75
1, 140401, Note_on_c, 0, 77, 77
1, 140428, Note_off_c, 0, 53, 68
1, 140461, Note_off_c, 0, 77, 60
1, 140481, Note_off_c, 0, 74, 64
1, 140502, Note_on_c, 0, 65, 76
1, 140526, Note_off_c, 0, 65, 70
1, 140601, Note_on_c, 0, 50, 91
1, 140616, Note_on_c, 0, 82, 81
1, 140633, Note_on_c, 0, 77, 55
1, 140633, Note_off_c, 0, 50, 67
1, 140641, Note_on_c, 0, 76, 43
1, 140654, Note_off_c, 0, 77, 61
1, 140663, Note_off_c, 0, 76, 55
1, 140699, Note_off_c, 0, 82, 63
1, 140721, Note_on_c, 0, 70, 74
1, 140747, Note_off_c, 0, 70, 69
1, 140828, Note_on_c, 0, 86, 89
1, 140831, Note_on_c, 0, 77, 88
1, 140833, Note_on_c, 0, 58, 97
1, 140842, Note_on_c, 0, 46, 81
1, 140862, Control_c, 0, 64, 43
1, 140869, Note_off_c, 0, 58, 61
1, 140877, Control_c, 0, 64, 63
1, 140878, Note_off_c, 0, 46, 63
1, 140892, Control_c, 0, 64, 67
1, 140902, Note_off_c, 0, 77, 50
1, 140904, Note_off_c, 0, 86, 61
1, 140907, Control_c, 0, 64, 70
1, 140921, Control_c, 0, 64, 73
1, 140936, Control_c, 0, 64, 75
1, 140937, Note_on_c, 0, 74, 75
1, 140951, Control_c, 0, 64, 75
1, 140965, Control_c, 0, 64, 76
1, 140991, Note_off_c, 0, 74, 66
1, 141036, Note_on_c, 0, 85, 83
1, 141045, Note_on_c, 0, 58, 92
1, 141051, Note_on_c, 0, 77, 76
1, 141053, Note_on_c, 0, 46, 83
1, 141054, Control_c, 0, 64, 75
1, 141069, Control_c, 0, 64, 75
1, 141084, Control_c, 0, 64, 74
1, 141089, Note_off_c, 0, 58, 65
1, 141099, Control_c, 0, 64, 72
1, 141108, Note_off_c, 0, 46, 49
1, 141113, Control_c, 0, 64, 70
1, 141128, Control_c, 0, 64, 66
1, 141138, Note_on_c, 0, 73, 78
1, 141138, Note_off_c, 0, 85, 62
1, 141143, Control_c, 0, 64, 61
1, 141157, Note_off_c, 0, 77, 58
1, 141159, Control_c, 0, 64, 49
1, 141174, Control_c, 0, 64, 0
1, 141178, Note_off_c, 0, 73, 60
1, 141253, Note_on_c, 0, 57, 94
1, 141254, Note_on_c, 0, 45, 81
1, 141255, Note_on_c, 0, 84, 85
1, 141257, Note_on_c, 0, 77, 88
1, 141292, Note_off_c, 0, 57, 66
1, 141292, Control_c, 0, 64, 65
1, 141306, Note_off_c, 0, 45, 64
1, 141307, Control_c, 0, 64, 72
1, 141322, Control_c, 0, 64, 77
1, 141337, Control_c, 0, 64, 79
1, 141352, Control_c, 0, 64, 81
1, 141353, Note_on_c, 0, 72, 87
1, 141361, Poly_aftertouch_c, 0, 51, 0
1, 141367, Control_c, 0, 64, 83
1, 141372, Note_off_c, 0, 77, 59
1, 141382, Control_c, 0, 64, 84
1, 141384, Note_off_c, 0, 84, 57
1, 141392, Note_off_c, 0, 72, 64
1, 141397, Control_c, 0, 64, 84
1, 141480, Note_on_c, 0, 53, 93
1, 141480, Note_on_c, 0, 89, 91
1, 141482, Note_on_c, 0, 81, 98
1, 141486, Note_on_c, 0, 41, 78
1, 141522, Note_off_c, 0, 41, 68
1, 141531, Note_off_c, 0, 53, 66
1, 141533, Poly_aftertouch_c, 0, 44, 0
1, 141543, Note_off_c, 0, 81, 56
1, 141578, Note_on_c, 0, 77, 79
1, 141580, Note_off_c, 0, 89, 64
1, 141626, Control_c, 0, 64, 83
1, 141641, Control_c, 0, 64, 81
1, 141644, Note_off_c, 0, 77, 61
1, 141656, Control_c, 0, 64, 77
1, 141670, Control_c, 0, 64, 70
1, 141678, Note_on_c, 0, 58, 86
1, 141685, Note_on_c, 0, 46, 78
1, 141685, Control_c, 0, 64, 52
1, 141688, Note_on_c, 0, 86, 83
1, 141690, Note_on_c, 0, 82, 86
1, 141700, Control_c, 0, 64, 0
1, 141719, Note_on_c, 0, 50, 30
1, 141722, Note_off_c, 0, 58, 63
1, 141725, Note_off_c, 0, 46, 64
1, 141747, Note_off_c, 0, 50, 45
1, 141778, Note_on_c, 0, 74, 83
1, 141785, Note_on_c, 0, 57, 92
1, 141791, Note_off_c, 0, 86, 64
1, 141793, Note_on_c, 0, 45, 78
1, 141804, Note_off_c, 0, 82, 63
1, 141826, Note_off_c, 0, 57, 65
1, 141829, Note_off_c, 0, 45, 68
1, 141834, Note_off_c, 0, 74, 67
1, 141882, Note_on_c, 0, 88, 90
1, 141892, Note_on_c, 0, 55, 98
1, 141894, Note_on_c, 0, 82, 87
1, 141897, Note_on_c, 0, 43, 92
1, 141936, Note_off_c, 0, 55, 65
1, 141940, Note_off_c, 0, 43, 62
1, 141970, Note_off_c, 0, 82, 59
1, 141988, Note_off_c, 0, 88, 54
1, 141991, Note_on_c, 0, 76, 85
1, 142043, Note_off_c, 0, 76, 65
1, 142107, Note_on_c, 0, 89, 87
1, 142108, Note_on_c, 0, 53, 95
1, 142113, Note_on_c, 0, 41, 85
1, 142114, Note_on_c, 0, 81, 86
1, 142207, Note_off_c, 0, 89, 61
1, 142212, Note_off_c, 0, 53, 57
1, 142218, Note_on_c, 0, 77, 77
1, 142224, Note_off_c, 0, 81, 59
1, 142239, Note_off_c, 0, 41, 65
1, 142311, Note_off_c, 0, 77, 55
1, 142339, Note_on_c, 0, 79, 69
1, 142423, Note_off_c, 0, 79, 57
1, 142431, Note_on_c, 0, 81, 71
1, 142533, Note_off_c, 0, 81, 60
1, 142547, Note_on_c, 0, 82, 71
1, 142640, Note_on_c, 0, 38, 39
1, 142691, Note_off_c, 0, 38, 49
1, 142757, Note_on_c, 0, 50, 52
1, 142759, Note_on_c, 0, 77, 52
1, 142804, Note_off_c, 0, 50, 61
1, 142852, Note_on_c, 0, 38, 51
1, 142865, Note_on_c, 0, 81, 63
1, 142872, Note_off_c, 0, 77, 57
1, 142895, Note_off_c, 0, 38, 58
1, 142962, Note_off_c, 0, 82, 38
1, 142978, Note_on_c, 0, 51, 60
1, 142981, Note_on_c, 0, 79, 63
1, 143018, Note_off_c, 0, 81, 53
1, 143060, Note_on_c, 0, 39, 56
1, 143067, Note_off_c, 0, 51, 61
1, 143102, Note_off_c, 0, 39, 64
1, 143170, Note_on_c, 0, 53, 70
1, 143182, Note_on_c, 0, 75, 52
1, 143221, Note_off_c, 0, 75, 59
1, 143230, Note_off_c, 0, 79, 43
1, 143263, Note_on_c, 0, 41, 69
1, 143269, Note_off_c, 0, 53, 56
1, 143269, Note_on_c, 0, 81, 66
1, 143306, Note_off_c, 0, 41, 64
1, 143334, Note_off_c, 0, 81, 56
1, 143378, Note_on_c, 0, 55, 66
1, 143382, Note_on_c, 0, 82, 75
1, 143476, Note_off_c, 0, 82, 38
1, 143481, Note_off_c, 0, 55, 61
1, 143485, Note_on_c, 0, 43, 72
1, 143490, Note_on_c, 0, 81, 75
1, 143525, Note_off_c, 0, 43, 62
1, 143548, Note_off_c, 0, 81, 51
1, 143590, Note_on_c, 0, 57, 72
1, 143595, Note_on_c, 0, 79, 74
1, 143596, Note_on_c, 0, 75, 69
1, 143695, Note_off_c, 0, 57, 58
1, 143701, Note_on_c, 0, 45, 74
1, 143754, Note_off_c, 0, 45, 63
1, 143769, Note_off_c, 0, 75, 63
1, 143817, Note_on_c, 0, 58, 79
1, 143823, Note_on_c, 0, 77, 79
1, 143862, Note_off_c, 0, 79, 51
1, 143920, Note_on_c, 0, 46, 76
1, 143927, Note_off_c, 0, 58, 59
1, 143971, Note_off_c, 0, 46, 61
1, 144023, Note_off_c, 0, 77, 58
1, 144034, Note_on_c, 0, 59, 81
1, 144043, Note_on_c, 0, 74, 69
1, 144144, Note_on_c, 0, 47, 78
1, 144148, Note_off_c, 0, 59, 58
1, 144193, Note_off_c, 0, 47, 63
1, 144226, Note_off_c, 0, 74, 53
1, 144242, Note_on_c, 0, 75, 71
1, 144251, Note_on_c, 0, 60, 74
1, 144304, Note_off_c, 0, 75, 64
1, 144346, Note_on_c, 0, 77, 73
1, 144347, Note_off_c, 0, 60, 54
1, 144364, Note_on_c, 0, 48, 60
1, 144387, Note_off_c, 0, 48, 61
1, 144395, Note_off_c, 0, 77, 60
1, 144467, Note_on_c, 0, 79, 72
1, 144470, Note_on_c, 0, 72, 70
1, 144473, Note_on_c, 0, 63, 74
1, 144534, Note_off_c, 0, 79, 58
1, 144575, Note_on_c, 0, 51, 66
1, 144579, Note_off_c, 0, 63, 63
1, 144607, Note_off_c, 0, 51, 64
1, 144678, Note_on_c, 0, 74, 68
1, 144682, Note_on_c, 0, 67, 79
1, 144710, Note_off_c, 0, 72, 61
1, 144761, Note_off_c, 0, 67, 59
1, 144793, Note_on_c, 0, 55, 62
1, 144820, Note_off_c, 0, 55, 66
1, 144850, Note_off_c, 0, 74, 58
1, 144893, Note_on_c, 0, 55, 60
1, 144901, Note_on_c, 0, 70, 62
1, 144951, Note_off_c, 0, 70, 49
1, 144990, Note_on_c, 0, 43, 66
1, 144994, Note_off_c, 0, 55, 62
1, 144997, Note_on_c, 0, 74, 63
1, 145018, Note_off_c, 0, 43, 62
1, 145034, Note_off_c, 0, 74, 59
1, 145100, Note_on_c, 0, 60, 69
1, 145104, Note_on_c, 0, 75, 65
1, 145144, Note_off_c, 0, 75, 60
1, 145190, Note_off_c, 0, 60, 56
1, 145209, Note_on_c, 0, 77, 72
1, 145215, Note_on_c, 0, 48, 64
1, 145242, Note_off_c, 0, 48, 66
1, 145254, Note_off_c, 0, 77, 60
1, 145325, Note_on_c, 0, 69, 67
1, 145326, Note_on_c, 0, 63, 75
1, 145326, Note_on_c, 0, 79, 68
1, 145340, Control_c, 0, 64, 10
1, 145353, Note_off_c, 0, 69, 69
1, 145355, Control_c, 0, 64, 15
1, 145370, Control_c, 0, 64, 17
1, 145376, Note_off_c, 0, 79, 59
1, 145400, Control_c, 0, 64, 15
1, 145415, Control_c, 0, 64, 10
1, 145421, Note_on_c, 0, 51, 59
1, 145423, Note_off_c, 0, 63, 62
1, 145452, Note_off_c, 0, 51, 64
1, 145535, Note_on_c, 0, 67, 71
1, 145540, Note_on_c, 0, 74, 67
1, 145551, Note_on_c, 0, 70, 53
1, 145563, Control_c, 0, 64, 0
1, 145612, Note_off_c, 0, 67, 57
1, 145648, Note_on_c, 0, 55, 67
1, 145682, Note_off_c, 0, 55, 67
1, 145714, Note_off_c, 0, 70, 61
1, 145735, Note_off_c, 0, 74, 63
1, 145766, Note_on_c, 0, 55, 55
1, 145847, Note_on_c, 0, 43, 63
1, 145852, Note_off_c, 0, 55, 64
1, 145874, Note_off_c, 0, 43, 59
1, 145969, Note_on_c, 0, 82, 75
1, 145974, Note_on_c, 0, 67, 76
1, 145981, Note_on_c, 0, 74, 69
1, 146006, Note_off_c, 0, 74, 67
1, 146074, Note_off_c, 0, 67, 56
1, 146078, Note_on_c, 0, 55, 60
1, 146113, Note_off_c, 0, 55, 64
1, 146183, Note_on_c, 0, 73, 74
1, 146184, Note_on_c, 0, 65, 74
1, 146211, Note_off_c, 0, 82, 59
1, 146219, Note_off_c, 0, 73, 60
1, 146266, Note_off_c, 0, 65, 56
1, 146277, Note_on_c, 0, 79, 81
1, 146285, Note_on_c, 0, 53, 67
1, 146314, Note_off_c, 0, 79, 64
1, 146321, Note_off_c, 0, 53, 66
1, 146392, Note_on_c, 0, 64, 74
1, 146399, Note_on_c, 0, 84, 89
1, 146407, Note_on_c, 0, 72, 81
1, 146488, Note_off_c, 0, 64, 57
1, 146505, Note_on_c, 0, 52, 68
1, 146534, Note_off_c, 0, 52, 68
1, 146604, Note_on_c, 0, 63, 72
1, 146614, Note_off_c, 0, 84, 32
1, 146619, Note_on_c, 0, 77, 78
1, 146637, Control_c, 0, 64, 10
1, 146664, Note_off_c, 0, 77, 59
1, 146689, Control_c, 0, 64, 0
1, 146702, Note_off_c, 0, 63, 59
1, 146722, Note_on_c, 0, 51, 56
1, 146723, Note_on_c, 0, 81, 75
1, 146754, Note_off_c, 0, 81, 58
1, 146762, Note_off_c, 0, 51, 64
1, 146823, Note_on_c, 0, 62, 76
1, 146827, Note_on_c, 0, 82, 85
1, 146838, Control_c, 0, 64, 10
1, 146864, Note_off_c, 0, 72, 61
1, 146878, Note_off_c, 0, 82, 63
1, 146882, Control_c, 0, 64, 0
1, 146907, Note_off_c, 0, 62, 60
1, 146929, Note_on_c, 0, 81, 84
1, 146931, Note_on_c, 0, 50, 70
1, 146968, Note_off_c, 0, 50, 62
1, 146969, Note_off_c, 0, 81, 62
1, 147001, Control_c, 0, 64, 10
1, 147016, Control_c, 0, 64, 15
1, 147031, Control_c, 0, 64, 20
1, 147035, Note_on_c, 0, 79, 81
1, 147040, Note_on_c, 0, 63, 77
1, 147044, Note_on_c, 0, 75, 78
1, 147061, Note_off_c, 0, 79, 63
1, 147061, Control_c, 0, 64, 21
1, 147063, Note_off_c, 0, 75, 69
1, 147090, Control_c, 0, 64, 23
1, 147129, Note_on_c, 0, 51, 69
1, 147138, Note_off_c, 0, 63, 62
1, 147150, Control_c, 0, 64, 20
1, 147161, Note_off_c, 0, 51, 65
1, 147165, Control_c, 0, 64, 18
1, 147224, Control_c, 0, 64, 17
1, 147239, Control_c, 0, 64, 13
1, 147249, Note_on_c, 0, 77, 86
1, 147251, Note_on_c, 0, 70, 77
1, 147254, Control_c, 0, 64, 10
1, 147283, Control_c, 0, 64, 15
1, 147298, Control_c, 0, 64, 17
1, 147313, Control_c, 0, 64, 18
1, 147328, Control_c, 0, 64, 17
1, 147332, Note_off_c, 0, 70, 58
1, 147343, Control_c, 0, 64, 15
1, 147355, Note_on_c, 0, 58, 67
1, 147357, Control_c, 0, 64, 13
1, 147391, Note_off_c, 0, 58, 64
1, 147401, Control_c, 0, 64, 10
1, 147416, Control_c, 0, 64, 0
1, 147467, Note_off_c, 0, 77, 55
1, 147469, Control_c, 0, 64, 10
1, 147480, Note_on_c, 0, 58, 62
1, 147490, Note_on_c, 0, 74, 68
1, 147498, Control_c, 0, 64, 0
1, 147561, Note_off_c, 0, 58, 57
1, 147573, Note_on_c, 0, 46, 69
1, 147603, Note_off_c, 0, 46, 64
1, 147618, Control_c, 0, 64, 13
1, 147632, Control_c, 0, 64, 15
1, 147682, Note_on_c, 0, 82, 72
1, 147684, Note_off_c, 0, 74, 61
1, 147690, Control_c, 0, 64, 13
1, 147691, Note_on_c, 0, 67, 73
1, 147711, Note_off_c, 0, 82, 62
1, 147728, Note_off_c, 0, 67, 63
1, 147791, Note_on_c, 0, 55, 66
1, 147809, Control_c, 0, 64, 15
1, 147831, Note_off_c, 0, 55, 62
1, 147853, Control_c, 0, 64, 17
1, 147883, Control_c, 0, 64, 18
1, 147893, Note_on_c, 0, 82, 78
1, 147896, Note_on_c, 0, 64, 72
1, 147897, Control_c, 0, 64, 20
1, 147898, Note_on_c, 0, 73, 73
1, 147912, Control_c, 0, 64, 23
1, 147922, Note_off_c, 0, 73, 68
1, 147939, Note_off_c, 0, 64, 63
1, 147952, Note_off_c, 0, 82, 63
1, 147956, Control_c, 0, 64, 21
1, 147971, Control_c, 0, 64, 18
1, 148006, Note_on_c, 0, 52, 65
1, 148016, Control_c, 0, 64, 15
1, 148030, Control_c, 0, 64, 13
1, 148045, Control_c, 0, 64, 0
1, 148048, Note_off_c, 0, 52, 60
1, 148090, Control_c, 0, 64, 10
1, 148104, Note_on_c, 0, 65, 73
1, 148104, Control_c, 0, 64, 13
1, 148110, Note_on_c, 0, 72, 80
1, 148116, Note_on_c, 0, 81, 72
1, 148139, Note_off_c, 0, 72, 64
1, 148160, Note_off_c, 0, 65, 59
1, 148166, Note_off_c, 0, 81, 56
1, 148210, Note_on_c, 0, 53, 60
1, 148216, Control_c, 0, 64, 10
1, 148239, Note_off_c, 0, 53, 67
1, 148315, Note_on_c, 0, 72, 76
1, 148319, Note_on_c, 0, 77, 77
1, 148319, Control_c, 0, 64, 13
1, 148321, Note_on_c, 0, 69, 71
1, 148334, Control_c, 0, 64, 15
1, 148337, Note_off_c, 0, 72, 71
1, 148349, Control_c, 0, 64, 18
1, 148352, Note_off_c, 0, 77, 62
1, 148358, Note_off_c, 0, 69, 64
1, 148419, Note_on_c, 0, 57, 61
1, 148455, Note_off_c, 0, 57, 61
1, 148498, Control_c, 0, 64, 20
1, 148513, Control_c, 0, 64, 21
1, 148531, Note_on_c, 0, 67, 69
1, 148533, Note_on_c, 0, 82, 76
1, 148540, Note_on_c, 0, 74, 74
1, 148542, Control_c, 0, 64, 23
1, 148557, Control_c, 0, 64, 25
1, 148561, Note_off_c, 0, 67, 64
1, 148563, Note_off_c, 0, 74, 69
1, 148572, Control_c, 0, 64, 26
1, 148581, Note_off_c, 0, 82, 64
1, 148631, Control_c, 0, 64, 25
1, 148634, Note_on_c, 0, 55, 53
1, 148637, Note_on_c, 0, 81, 75
1, 148658, Note_off_c, 0, 55, 58
1, 148661, Control_c, 0, 64, 24
1, 148676, Control_c, 0, 64, 21
1, 148682, Note_off_c, 0, 81, 58
1, 148691, Control_c, 0, 64, 20
1, 148706, Control_c, 0, 64, 18
1, 148735, Control_c, 0, 64, 21
1, 148739, Note_on_c, 0, 79, 76
1, 148743, Note_on_c, 0, 76, 74
1, 148750, Note_on_c, 0, 72, 57
1, 148750, Control_c, 0, 64, 25
1, 148765, Note_off_c, 0, 76, 72
1, 148769, Note_off_c, 0, 72, 66
1, 148774, Note_off_c, 0, 79, 64
1, 148809, Control_c, 0, 64, 26
1, 148844, Note_on_c, 0, 59, 65
1, 148877, Note_off_c, 0, 59, 64
1, 148883, Control_c, 0, 64, 25
1, 148898, Control_c, 0, 64, 24
1, 148935, Control_c, 0, 64, 25
1, 148963, Note_on_c, 0, 64, 74
1, 148965, Control_c, 0, 64, 26
1, 148966, Note_on_c, 0, 77, 76
1, 148989, Note_off_c, 0, 64, 69
1, 149009, Control_c, 0, 64, 27
1, 149013, Note_off_c, 0, 77, 61
1, 149053, Control_c, 0, 64, 26
1, 149071, Note_on_c, 0, 52, 64
1, 149093, Note_on_c, 0, 53, 24
1, 149094, Note_off_c, 0, 53, 127
1, 149100, Note_off_c, 0, 52, 67
1, 149142, Control_c, 0, 64, 24
1, 149170, Note_on_c, 0, 55, 81
1, 149204, Note_off_c, 0, 55, 66
1, 149217, Control_c, 0, 64, 23
1, 149275, Note_on_c, 0, 53, 77
1, 149291, Control_c, 0, 64, 21
1, 149303, Note_off_c, 0, 53, 68
1, 149395, Control_c, 0, 64, 20
1, 149398, Note_on_c, 0, 51, 75
1, 149454, Control_c, 0, 64, 18
1, 149469, Control_c, 0, 64, 17
1, 149499, Control_c, 0, 64, 20
1, 149513, Note_on_c, 0, 65, 67
1, 149514, Control_c, 0, 64, 21
1, 149588, Control_c, 0, 64, 23
1, 149609, Note_on_c, 0, 77, 73
1, 149617, Control_c, 0, 64, 24
1, 149618, Note_on_c, 0, 69, 66
1, 149623, Note_on_c, 0, 72, 57
1, 149632, Control_c, 0, 64, 25
1, 149647, Control_c, 0, 64, 26
1, 149684, Control_c, 0, 64, 27
1, 149722, Note_on_c, 0, 50, 80
1, 149738, Note_off_c, 0, 51, 61
1, 149755, Note_off_c, 0, 77, 60
1, 149758, Note_off_c, 0, 65, 62
1, 149794, Note_off_c, 0, 72, 58
1, 149801, Note_off_c, 0, 69, 55
1, 149817, Control_c, 0, 64, 26
1, 149834, Note_on_c, 0, 48, 90
1, 149847, Control_c, 0, 64, 27
1, 149859, Note_off_c, 0, 50, 62
1, 149862, Control_c, 0, 64, 28
1, 149876, Control_c, 0, 64, 29
1, 149928, Note_on_c, 0, 66, 79
1, 149935, Control_c, 0, 64, 29
1, 149981, Control_c, 0, 64, 29
1, 150011, Control_c, 0, 64, 28
1, 150025, Note_on_c, 0, 74, 48
1, 150025, Control_c, 0, 64, 27
1, 150031, Note_on_c, 0, 69, 75
1, 150032, Note_on_c, 0, 78, 85
1, 150040, Control_c, 0, 64, 26
1, 150055, Control_c, 0, 64, 24
1, 150070, Control_c, 0, 64, 20
1, 150085, Control_c, 0, 64, 18
1, 150086, Note_off_c, 0, 66, 58
1, 150108, Note_off_c, 0, 48, 63
1, 150120, Note_on_c, 0, 50, 93
1, 150127, Note_off_c, 0, 69, 58
1, 150134, Note_off_c, 0, 74, 64
1, 150144, Control_c, 0, 64, 17
1, 150152, Note_off_c, 0, 78, 59
1, 150159, Control_c, 0, 64, 13
1, 150173, Control_c, 0, 64, 0
1, 150211, Note_off_c, 0, 50, 58
1, 150232, Control_c, 0, 64, 10
1, 150234, Note_on_c, 0, 51, 94
1, 150247, Control_c, 0, 64, 0
1, 150290, Note_off_c, 0, 51, 63
1, 150321, Control_c, 0, 64, 10
1, 150333, Note_on_c, 0, 66, 80
1, 150336, Control_c, 0, 64, 13
1, 150343, Note_on_c, 0, 50, 87
1, 150351, Control_c, 0, 64, 15
1, 150361, Note_on_c, 0, 74, 53
1, 150375, Note_off_c, 0, 66, 64
1, 150385, Note_off_c, 0, 50, 66
1, 150396, Control_c, 0, 64, 13
1, 150411, Control_c, 0, 64, 10
1, 150447, Note_on_c, 0, 69, 78
1, 150447, Control_c, 0, 64, 0
1, 150454, Note_on_c, 0, 78, 80
1, 150457, Note_on_c, 0, 48, 90
1, 150494, Note_off_c, 0, 74, 24
1, 150500, Note_off_c, 0, 69, 63
1, 150506, Note_off_c, 0, 48, 65
1, 150547, Note_on_c, 0, 66, 82
1, 150569, Note_off_c, 0, 78, 61
1, 150585, Note_off_c, 0, 66, 66
1, 150596, Control_c, 0, 64, 13
1, 150611, Control_c, 0, 64, 15
1, 150655, Control_c, 0, 64, 10
1, 150666, Note_on_c, 0, 46, 80
1, 150667, Note_on_c, 0, 79, 82
1, 150670, Control_c, 0, 64, 0
1, 150672, Note_on_c, 0, 74, 70
1, 150706, Note_off_c, 0, 74, 61
1, 150715, Note_off_c, 0, 46, 57
1, 150730, Note_off_c, 0, 79, 62
1, 150768, Note_on_c, 0, 67, 72
1, 150801, Note_off_c, 0, 67, 61
1, 150804, Control_c, 0, 64, 13
1, 150819, Control_c, 0, 64, 18
1, 150864, Control_c, 0, 64, 20
1, 150876, Note_on_c, 0, 82, 73
1, 150885, Note_on_c, 0, 43, 66
1, 150886, Note_on_c, 0, 74, 61
1, 150893, Note_on_c, 0, 79, 54
1, 150894, Control_c, 0, 64, 23
1, 150923, Control_c, 0, 64, 20
1, 150924, Note_off_c, 0, 43, 61
1, 150929, Note_off_c, 0, 74, 57
1, 150938, Control_c, 0, 64, 15
1, 150945, Note_off_c, 0, 82, 63
1, 150953, Control_c, 0, 64, 13
1, 150971, Note_off_c, 0, 79, 61
1, 150976, Note_on_c, 0, 70, 66
1, 151005, Note_off_c, 0, 70, 66
1, 151042, Control_c, 0, 64, 17
1, 151071, Control_c, 0, 64, 15
1, 151086, Control_c, 0, 64, 10
1, 151096, Note_on_c, 0, 73, 62
1, 151101, Note_on_c, 0, 70, 58
1, 151116, Control_c, 0, 64, 0
1, 151130, Control_c, 0, 64, 10
1, 151138, Note_off_c, 0, 70, 62
1, 151182, Control_c, 0, 64, 0
1, 151187, Note_off_c, 0, 73, 55
1, 151195, Note_on_c, 0, 71, 59
1, 151196, Note_on_c, 0, 74, 60
1, 151212, Control_c, 0, 64, 13
1, 151227, Control_c, 0, 64, 17
1, 151242, Control_c, 0, 64, 18
1, 151251, Note_off_c, 0, 71, 52
1, 151271, Control_c, 0, 64, 20
1, 151286, Control_c, 0, 64, 21
1, 151298, Note_on_c, 0, 58, 52
1, 151301, Control_c, 0, 64, 23
1, 151305, Note_on_c, 0, 73, 64
1, 151311, Note_on_c, 0, 55, 49
1, 151314, Note_on_c, 0, 76, 55
1, 151316, Control_c, 0, 64, 25
1, 151329, Note_off_c, 0, 74, 58
1, 151330, Control_c, 0, 64, 29
1, 151345, Control_c, 0, 64, 34
1, 151346, Note_off_c, 0, 58, 63
1, 151348, Note_off_c, 0, 73, 63
1, 151349, Note_off_c, 0, 76, 62
1, 151360, Control_c, 0, 64, 36
1, 151366, Note_off_c, 0, 55, 58
1, 151374, Control_c, 0, 64, 37
1, 151389, Control_c, 0, 64, 39
1, 151404, Control_c, 0, 64, 41
1, 151404, Note_on_c, 0, 57, 62
1, 151410, Note_on_c, 0, 54, 59
1, 151418, Control_c, 0, 64, 43
1, 151433, Control_c, 0, 64, 44
1, 151463, Control_c, 0, 64, 44
1, 151478, Control_c, 0, 64, 39
1, 151493, Control_c, 0, 64, 0
1, 151505, Note_on_c, 0, 55, 66
1, 151519, Note_on_c, 0, 73, 71
1, 151520, Note_on_c, 0, 52, 62
1, 151523, Note_on_c, 0, 76, 60
1, 151531, Note_off_c, 0, 57, 55
1, 151534, Note_off_c, 0, 54, 37
1, 151584, Note_off_c, 0, 73, 62
1, 151597, Control_c, 0, 64, 43
1, 151601, Note_off_c, 0, 55, 64
1, 151612, Note_on_c, 0, 78, 74
1, 151612, Control_c, 0, 64, 63
1, 151614, Note_on_c, 0, 74, 68
1, 151618, Note_off_c, 0, 76, 62
1, 151620, Note_off_c, 0, 52, 66
1, 151627, Control_c, 0, 64, 66
1, 151642, Control_c, 0, 64, 67
1, 151657, Control_c, 0, 64, 68
1, 151671, Control_c, 0, 64, 70
1, 151673, Note_off_c, 0, 74, 58
1, 151686, Control_c, 0, 64, 71
1, 151701, Control_c, 0, 64, 72
1, 151717, Note_on_c, 0, 79, 78
1, 151719, Note_on_c, 0, 52, 83
1, 151719, Note_on_c, 0, 55, 78
1, 151719, Note_on_c, 0, 76, 82
1, 151759, Note_off_c, 0, 76, 67
1, 151761, Note_off_c, 0, 78, 60
1, 151763, Note_off_c, 0, 55, 60
1, 151780, Note_off_c, 0, 79, 61
1, 151789, Control_c, 0, 64, 71
1, 151804, Control_c, 0, 64, 70
1, 151816, Note_on_c, 0, 54, 77
1, 151819, Note_off_c, 0, 52, 63
1, 151819, Control_c, 0, 64, 66
1, 151820, Note_on_c, 0, 50, 73
1, 151834, Control_c, 0, 64, 61
1, 151849, Control_c, 0, 64, 45
1, 151863, Control_c, 0, 64, 0
1, 151937, Note_on_c, 0, 49, 77
1, 151937, Note_on_c, 0, 79, 85
1, 151939, Note_on_c, 0, 52, 74
1, 151940, Note_on_c, 0, 76, 80
1, 151970, Note_off_c, 0, 50, 60
1, 151978, Note_off_c, 0, 54, 59
1, 151992, Note_off_c, 0, 76, 58
1, 152005, Note_off_c, 0, 52, 66
1, 152026, Note_off_c, 0, 49, 61
1, 152035, Note_on_c, 0, 81, 83
1, 152039, Note_on_c, 0, 78, 87
1, 152055, Note_off_c, 0, 79, 61
1, 152110, Note_off_c, 0, 78, 61
1, 152137, Note_on_c, 0, 82, 84
1, 152140, Note_on_c, 0, 50, 93
1, 152143, Note_on_c, 0, 47, 85
1, 152152, Note_on_c, 0, 79, 78
1, 152162, Note_off_c, 0, 81, 59
1, 152192, Note_off_c, 0, 79, 58
1, 152217, Note_off_c, 0, 82, 64
1, 152229, Note_on_c, 0, 45, 80
1, 152244, Note_off_c, 0, 50, 41
1, 152244, Note_on_c, 0, 49, 85
1, 152259, Note_off_c, 0, 47, 63
1, 152307, Note_off_c, 0, 45, 62
1, 152331, Note_off_c, 0, 49, 62
1, 152354, Note_on_c, 0, 50, 91
1, 152359, Note_on_c, 0, 78, 87
1, 152362, Note_on_c, 0, 81, 88
1, 152402, Note_off_c, 0, 78, 64
1, 152405, Note_off_c, 0, 50, 62
1, 152411, Note_off_c, 0, 81, 62
1, 152460, Note_on_c, 0, 74, 71
1, 152495, Note_off_c, 0, 74, 62
1, 152566, Note_on_c, 0, 38, 74
1, 152568, Note_on_c, 0, 86, 72
1, 152575, Note_on_c, 0, 78, 73
1, 152605, Note_off_c, 0, 38, 66
1, 152650, Note_off_c, 0, 86, 61
1, 152666, Note_off_c, 0, 78, 57
1, 152667, Note_on_c, 0, 74, 65
1, 152710, Note_off_c, 0, 74, 64
1, 152801, Note_on_c, 0, 51, 70
1, 152897, Note_on_c, 0, 65, 68
1, 153003, Note_on_c, 0, 77, 73
1, 153008, Note_on_c, 0, 69, 71
1, 153013, Note_on_c, 0, 72, 58
1, 153088, Note_on_c, 0, 50, 83
1, 153114, Note_off_c, 0, 51, 62
1, 153128, Note_off_c, 0, 77, 61
1, 153146, Note_off_c, 0, 65, 61
1, 153169, Note_off_c, 0, 72, 60
1, 153182, Note_off_c, 0, 69, 58
1, 153194, Note_on_c, 0, 48, 88
1, 153213, Control_c, 0, 64, 13
1, 153214, Note_off_c, 0, 50, 63
1, 153228, Control_c, 0, 64, 18
1, 153243, Control_c, 0, 64, 21
1, 153258, Control_c, 0, 64, 23
1, 153302, Control_c, 0, 64, 25
1, 153304, Note_on_c, 0, 66, 87
1, 153317, Control_c, 0, 64, 29
1, 153332, Control_c, 0, 64, 30
1, 153359, Note_on_c, 0, 74, 33
1, 153361, Control_c, 0, 64, 29
1, 153401, Note_on_c, 0, 78, 86
1, 153403, Note_on_c, 0, 69, 76
1, 153406, Control_c, 0, 64, 30
1, 153428, Control_c, 0, 64, 29
1, 153442, Control_c, 0, 64, 28
1, 153457, Control_c, 0, 64, 27
1, 153472, Control_c, 0, 64, 28
1, 153484, Note_off_c, 0, 66, 58
1, 153487, Control_c, 0, 64, 29
1, 153502, Note_off_c, 0, 69, 63
1, 153504, Note_on_c, 0, 50, 94
1, 153517, Control_c, 0, 64, 27
1, 153517, Note_off_c, 0, 48, 63
1, 153525, Note_off_c, 0, 74, 65
1, 153525, Note_off_c, 0, 78, 62
1, 153532, Control_c, 0, 64, 20
1, 153547, Control_c, 0, 64, 0
1, 153609, Note_on_c, 0, 51, 93
1, 153620, Note_off_c, 0, 50, 62
1, 153672, Note_off_c, 0, 51, 63
1, 153714, Note_on_c, 0, 50, 88
1, 153716, Note_on_c, 0, 66, 84
1, 153735, Note_on_c, 0, 74, 54
1, 153763, Note_off_c, 0, 50, 63
1, 153764, Note_off_c, 0, 66, 66
1, 153772, Note_off_c, 0, 74, 51
1, 153823, Note_on_c, 0, 69, 78
1, 153824, Note_on_c, 0, 48, 92
1, 153824, Note_on_c, 0, 78, 84
1, 153881, Note_off_c, 0, 69, 61
1, 153882, Note_off_c, 0, 48, 62
1, 153921, Note_on_c, 0, 66, 81
1, 153945, Note_off_c, 0, 78, 60
1, 153974, Note_off_c, 0, 66, 66
1, 154043, Note_on_c, 0, 46, 92
1, 154048, Note_on_c, 0, 79, 80
1, 154054, Note_on_c, 0, 74, 76
1, 154089, Note_off_c, 0, 74, 65
1, 154111, Note_off_c, 0, 79, 63
1, 154146, Note_off_c, 0, 46, 62
1, 154154, Note_on_c, 0, 67, 75
1, 154193, Control_c, 0, 64, 13
1, 154199, Note_off_c, 0, 67, 63
1, 154207, Control_c, 0, 64, 20
1, 154222, Control_c, 0, 64, 24
1, 154237, Control_c, 0, 64, 26
1, 154252, Control_c, 0, 64, 27
1, 154278, Note_on_c, 0, 82, 75
1, 154283, Note_on_c, 0, 74, 65
1, 154283, Note_on_c, 0, 79, 67
1, 154289, Note_on_c, 0, 43, 79
1, 154296, Control_c, 0, 64, 25
1, 154311, Control_c, 0, 64, 21
1, 154326, Control_c, 0, 64, 15
1, 154340, Control_c, 0, 64, 0
1, 154341, Note_off_c, 0, 74, 57
1, 154361, Note_off_c, 0, 43, 60
1, 154365, Note_off_c, 0, 82, 61
1, 154380, Note_on_c, 0, 70, 70
1, 154388, Note_off_c, 0, 79, 63
1, 154429, Note_off_c, 0, 70, 61
1, 154519, Note_on_c, 0, 73, 58
1, 154545, Note_on_c, 0, 70, 40
1, 154575, Note_off_c, 0, 70, 54
1, 154600, Note_off_c, 0, 73, 54
1, 154631, Note_on_c, 0, 71, 51
1, 154631, Note_on_c, 0, 74, 51
1, 154673, Note_off_c, 0, 71, 57
1, 154736, Note_on_c, 0, 73, 58
1, 154742, Note_on_c, 0, 58, 48
1, 154746, Note_on_c, 0, 55, 54
1, 154746, Note_on_c, 0, 76, 53
1, 154776, Note_off_c, 0, 74, 58
1, 154791, Note_off_c, 0, 58, 63
1, 154793, Note_off_c, 0, 76, 62
1, 154794, Note_off_c, 0, 73, 62
1, 154814, Note_off_c, 0, 55, 55
1, 154847, Note_on_c, 0, 57, 57
1, 154849, Note_on_c, 0, 54, 60
1, 154942, Control_c, 0, 64, 15
1, 154957, Control_c, 0, 64, 17
1, 154960, Note_on_c, 0, 55, 57
1, 154966, Note_off_c, 0, 54, 52
1, 154971, Control_c, 0, 64, 18
1, 154972, Note_on_c, 0, 76, 68
1, 154973, Note_on_c, 0, 73, 71
1, 154983, Note_on_c, 0, 52, 56
1, 155001, Control_c, 0, 64, 13
1, 155010, Note_off_c, 0, 57, 49
1, 155016, Control_c, 0, 64, 10
1, 155028, Note_off_c, 0, 73, 60
1, 155030, Control_c, 0, 64, 0
1, 155057, Note_off_c, 0, 55, 64
1, 155066, Note_on_c, 0, 74, 53
1, 155075, Note_on_c, 0, 78, 72
1, 155078, Note_off_c, 0, 52, 65
1, 155079, Note_off_c, 0, 76, 53
1, 155178, Note_on_c, 0, 76, 76
1, 155180, Note_on_c, 0, 79, 74
1, 155180, Note_on_c, 0, 52, 74
1, 155186, Note_on_c, 0, 55, 67
1, 155192, Note_off_c, 0, 74, 47
1, 155219, Note_off_c, 0, 76, 65
1, 155228, Note_off_c, 0, 78, 59
1, 155240, Note_off_c, 0, 55, 59
1, 155254, Note_off_c, 0, 79, 60
1, 155275, Note_on_c, 0, 54, 78
1, 155285, Note_on_c, 0, 50, 71
1, 155288, Note_off_c, 0, 52, 65
1, 155386, Note_on_c, 0, 79, 83
1, 155386, Note_on_c, 0, 76, 76
1, 155392, Note_on_c, 0, 49, 75
1, 155393, Note_on_c, 0, 52, 76
1, 155414, Note_off_c, 0, 50, 59
1, 155429, Note_off_c, 0, 54, 60
1, 155437, Note_off_c, 0, 76, 63
1, 155464, Note_off_c, 0, 52, 66
1, 155484, Note_on_c, 0, 81, 84
1, 155485, Note_on_c, 0, 78, 86
1, 155493, Note_off_c, 0, 49, 62
1, 155505, Note_off_c, 0, 79, 59
1, 155549, Note_off_c, 0, 78, 63
1, 155594, Note_on_c, 0, 82, 85
1, 155601, Note_on_c, 0, 50, 85
1, 155603, Note_on_c, 0, 47, 83
1, 155606, Note_on_c, 0, 79, 80
1, 155625, Note_off_c, 0, 81, 55
1, 155647, Note_off_c, 0, 79, 59
1, 155675, Note_off_c, 0, 50, 51
1, 155678, Note_off_c, 0, 82, 63
1, 155707, Note_on_c, 0, 45, 75
1, 155711, Note_on_c, 0, 49, 82
1, 155726, Note_off_c, 0, 47, 61
1, 155794, Note_off_c, 0, 45, 60
1, 155803, Note_off_c, 0, 49, 61
1, 155828, Note_on_c, 0, 78, 86
1, 155829, Note_on_c, 0, 81, 84
1, 155830, Note_on_c, 0, 50, 88
1, 155866, Note_off_c, 0, 78, 63
1, 155879, Note_off_c, 0, 81, 63
1, 155883, Note_off_c, 0, 50, 63
1, 155943, Note_on_c, 0, 74, 71
1, 155970, Note_off_c, 0, 74, 63
1, 156066, Note_on_c, 0, 86, 78
1, 156067, Note_on_c, 0, 38, 72
1, 156067, Note_on_c, 0, 78, 80
1, 156101, Note_off_c, 0, 78, 64
1, 156105, Note_off_c, 0, 38, 65
1, 156125, Note_off_c, 0, 86, 59
1, 156188, Note_on_c, 0, 74, 55
1, 156206, Note_off_c, 0, 74, 64
1, 156339, Note_on_c, 0, 78, 63
1, 156350, Note_on_c, 0, 69, 42
1, 156370, Note_off_c, 0, 78, 64
1, 156377, Note_off_c, 0, 69, 47
1, 156484, Note_on_c, 0, 86, 57
1, 156508, Note_on_c, 0, 63, 27
1, 156518, Note_off_c, 0, 86, 60
1, 156538, Note_off_c, 0, 63, 45
1, 156612, Note_on_c, 0, 69, 48
1, 156629, Note_on_c, 0, 78, 54
1, 156654, Note_off_c, 0, 78, 59
1, 156656, Note_off_c, 0, 69, 64
1, 156735, Note_on_c, 0, 84, 59
1, 156739, Note_on_c, 0, 63, 42
1, 156745, Note_on_c, 0, 75, 31
1, 156763, Note_on_c, 0, 72, 22
1, 156764, Note_off_c, 0, 63, 58
1, 156766, Note_off_c, 0, 75, 48
1, 156772, Note_off_c, 0, 84, 64
1, 156797, Note_off_c, 0, 72, 33
1, 156841, Note_on_c, 0, 78, 71
1, 156858, Note_on_c, 0, 69, 51
1, 156866, Note_off_c, 0, 78, 67
1, 156879, Note_off_c, 0, 69, 62
1, 156942, Note_on_c, 0, 86, 73
1, 156960, Note_on_c, 0, 72, 51
1, 156961, Note_on_c, 0, 75, 47
1, 156963, Note_on_c, 0, 63, 49
1, 156980, Note_off_c, 0, 72, 58
1, 156984, Note_off_c, 0, 75, 59
1, 156986, Note_off_c, 0, 63, 59
1, 156987, Note_off_c, 0, 86, 56
1, 157057, Note_on_c, 0, 78, 77
1, 157062, Note_on_c, 0, 69, 53
1, 157085, Note_off_c, 0, 78, 63
1, 157089, Note_off_c, 0, 69, 63
1, 157136, Control_c, 0, 64, 13
1, 157151, Note_on_c, 0, 63, 57
1, 157151, Control_c, 0, 64, 18
1, 157155, Note_on_c, 0, 84, 67
1, 157172, Note_on_c, 0, 72, 61
1, 157173, Control_c, 0, 64, 20
1, 157178, Note_off_c, 0, 84, 68
1, 157187, Note_off_c, 0, 63, 66
1, 157188, Control_c, 0, 64, 23
1, 157189, Note_off_c, 0, 72, 66
1, 157203, Control_c, 0, 64, 25
1, 157217, Control_c, 0, 64, 26
1, 157232, Control_c, 0, 64, 27
1, 157247, Control_c, 0, 64, 28
1, 157262, Control_c, 0, 64, 29
1, 157276, Note_on_c, 0, 67, 83
1, 157277, Control_c, 0, 64, 29
1, 157278, Note_on_c, 0, 58, 76
1, 157305, Note_off_c, 0, 58, 65
1, 157325, Note_off_c, 0, 67, 62
1, 157365, Control_c, 0, 64, 30
1, 157380, Control_c, 0, 64, 32
1, 157383, Note_on_c, 0, 69, 83
1, 157389, Note_on_c, 0, 60, 78
1, 157392, Note_on_c, 0, 63, 77
1, 157413, Note_off_c, 0, 60, 68
1, 157416, Note_off_c, 0, 63, 68
1, 157425, Control_c, 0, 64, 32
1, 157440, Control_c, 0, 64, 33
1, 157442, Note_off_c, 0, 69, 63
1, 157455, Control_c, 0, 64, 32
1, 157470, Control_c, 0, 64, 32
1, 157485, Control_c, 0, 64, 31
1, 157490, Note_on_c, 0, 67, 91
1, 157514, Control_c, 0, 64, 30
1, 157516, Note_on_c, 0, 58, 78
1, 157542, Note_off_c, 0, 67, 62
1, 157543, Control_c, 0, 64, 32
1, 157545, Note_off_c, 0, 58, 68
1, 157558, Control_c, 0, 64, 33
1, 157573, Control_c, 0, 64, 34
1, 157587, Note_on_c, 0, 60, 72
1, 157588, Control_c, 0, 64, 35
1, 157592, Note_on_c, 0, 63, 88
1, 157595, Note_on_c, 0, 48, 55
1, 157598, Note_on_c, 0, 69, 81
1, 157603, Control_c, 0, 64, 34
1, 157617, Control_c, 0, 64, 23
1, 157619, Note_off_c, 0, 63, 67
1, 157619, Note_off_c, 0, 60, 60
1, 157632, Control_c, 0, 64, 0
1, 157635, Note_off_c, 0, 69, 63
1, 157642, Note_off_c, 0, 48, 63
1, 157702, Note_on_c, 0, 57, 84
1, 157708, Note_on_c, 0, 66, 90
1, 157735, Control_c, 0, 64, 62
1, 157737, Note_off_c, 0, 57, 62
1, 157743, Note_off_c, 0, 66, 68
1, 157750, Control_c, 0, 64, 73
1, 157765, Control_c, 0, 64, 82
1, 157780, Control_c, 0, 64, 90
1, 157795, Control_c, 0, 64, 95
1, 157804, Note_on_c, 0, 62, 83
1, 157806, Note_on_c, 0, 74, 84
1, 157810, Control_c, 0, 64, 99
1, 157813, Note_on_c, 0, 54, 77
1, 157824, Control_c, 0, 64, 101
1, 157825, Note_off_c, 0, 62, 68
1, 157839, Control_c, 0, 64, 105
1, 157840, Note_off_c, 0, 54, 67
1, 157843, Note_off_c, 0, 74, 68
1, 157854, Control_c, 0, 64, 109
1, 157869, Control_c, 0, 64, 113
1, 157884, Control_c, 0, 64, 117
1, 157899, Control_c, 0, 64, 122
1, 157921, Control_c, 0, 64, 127
1, 157926, Note_on_c, 0, 50, 83
1, 157929, Note_on_c, 0, 78, 103
1, 157962, Note_off_c, 0, 78, 68
1, 157967, Note_off_c, 0, 50, 64
1, 157996, Note_on_c, 0, 42, 20
1, 158030, Note_on_c, 0, 38, 83
1, 158033, Note_off_c, 0, 42, 42
1, 158033, Note_on_c, 0, 86, 91
1, 158035, Note_on_c, 0, 74, 89
1, 158062, Note_off_c, 0, 38, 65
1, 158065, Note_off_c, 0, 74, 63
1, 158072, Note_off_c, 0, 86, 66
1, 158153, Note_on_c, 0, 78, 83
1, 158167, Note_on_c, 0, 69, 74
1, 158185, Note_off_c, 0, 69, 69
1, 158188, Control_c, 0, 64, 114
1, 158197, Note_off_c, 0, 78, 61
1, 158203, Control_c, 0, 64, 101
1, 158218, Control_c, 0, 64, 90
1, 158233, Control_c, 0, 64, 75
1, 158248, Control_c, 0, 64, 62
1, 158256, Note_on_c, 0, 86, 74
1, 158260, Note_on_c, 0, 72, 72
1, 158263, Control_c, 0, 64, 0
1, 158271, Note_on_c, 0, 75, 62
1, 158273, Note_on_c, 0, 63, 56
1, 158284, Note_off_c, 0, 72, 71
1, 158295, Note_off_c, 0, 86, 53
1, 158301, Note_off_c, 0, 75, 68
1, 158313, Note_off_c, 0, 63, 63
1, 158366, Note_on_c, 0, 78, 76
1, 158375, Note_on_c, 0, 69, 63
1, 158404, Note_off_c, 0, 78, 63
1, 158406, Note_off_c, 0, 69, 68
1, 158473, Note_on_c, 0, 84, 66
1, 158479, Note_on_c, 0, 72, 61
1, 158483, Note_on_c, 0, 75, 52
1, 158487, Note_on_c, 0, 63, 44
1, 158495, Note_off_c, 0, 72, 65
1, 158504, Note_off_c, 0, 75, 62
1, 158509, Note_off_c, 0, 84, 59
1, 158513, Note_off_c, 0, 63, 57
1, 158580, Note_on_c, 0, 69, 67
1, 158582, Note_on_c, 0, 78, 73
1, 158611, Note_off_c, 0, 78, 62
1, 158614, Note_off_c, 0, 69, 62
1, 158690, Note_on_c, 0, 86, 67
1, 158695, Note_on_c, 0, 75, 63
1, 158696, Note_on_c, 0, 72, 65
1, 158701, Note_on_c, 0, 63, 52
1, 158714, Note_off_c, 0, 72, 66
1, 158723, Note_off_c, 0, 86, 60
1, 158725, Note_off_c, 0, 75, 69
1, 158728, Note_off_c, 0, 63, 56
1, 158796, Note_on_c, 0, 69, 62
1, 158798, Note_on_c, 0, 78, 77
1, 158832, Note_off_c, 0, 69, 61
1, 158833, Note_off_c, 0, 78, 63
1, 158890, Note_on_c, 0, 75, 52
1, 158894, Note_on_c, 0, 63, 59
1, 158895, Note_on_c, 0, 84, 69
1, 158900, Note_on_c, 0, 72, 73
1, 158912, Note_off_c, 0, 75, 39
1, 158920, Note_off_c, 0, 63, 67
1, 158920, Note_off_c, 0, 84, 66
1, 158924, Note_off_c, 0, 72, 71
1, 159011, Note_on_c, 0, 58, 83
1, 159012, Note_on_c, 0, 67, 85
1, 159046, Note_off_c, 0, 58, 61
1, 159053, Note_off_c, 0, 67, 63
1, 159116, Note_on_c, 0, 69, 84
1, 159120, Note_on_c, 0, 60, 84
1, 159124, Note_on_c, 0, 48, 80
1, 159124, Note_on_c, 0, 63, 78
1, 159150, Note_off_c, 0, 63, 66
1, 159151, Note_off_c, 0, 60, 62
1, 159166, Note_off_c, 0, 48, 65
1, 159179, Note_off_c, 0, 69, 62
1, 159222, Note_on_c, 0, 67, 85
1, 159231, Note_on_c, 0, 58, 85
1, 159277, Note_off_c, 0, 67, 62
1, 159285, Note_off_c, 0, 58, 65
1, 159318, Note_on_c, 0, 60, 85
1, 159321, Note_on_c, 0, 63, 90
1, 159322, Note_on_c, 0, 69, 77
1, 159323, Note_on_c, 0, 48, 69
1, 159359, Note_off_c, 0, 60, 62
1, 159359, Note_off_c, 0, 63, 65
1, 159365, Note_off_c, 0, 48, 65
1, 159382, Note_off_c, 0, 69, 62
1, 159419, Control_c, 0, 64, 25
1, 159434, Control_c, 0, 64, 68
1, 159437, Note_on_c, 0, 57, 101
1, 159440, Note_on_c, 0, 66, 95
1, 159449, Control_c, 0, 64, 79
1, 159463, Control_c, 0, 64, 91
1, 159469, Note_off_c, 0, 57, 68
1, 159476, Note_off_c, 0, 66, 68
1, 159478, Control_c, 0, 64, 97
1, 159493, Control_c, 0, 64, 99
1, 159508, Control_c, 0, 64, 101
1, 159522, Control_c, 0, 64, 104
1, 159538, Control_c, 0, 64, 108
1, 159553, Control_c, 0, 64, 113
1, 159564, Note_on_c, 0, 74, 94
1, 159565, Note_on_c, 0, 45, 97
1, 159567, Note_on_c, 0, 86, 92
1, 159568, Note_on_c, 0, 38, 86
1, 159568, Note_on_c, 0, 78, 96
1, 159568, Control_c, 0, 64, 117
1, 159583, Control_c, 0, 64, 119
1, 159586, Note_off_c, 0, 78, 68
1, 159594, Note_off_c, 0, 74, 60
1, 159598, Control_c, 0, 64, 121
1, 159612, Control_c, 0, 64, 122
1, 159627, Control_c, 0, 64, 123
1, 159628, Note_off_c, 0, 86, 39
1, 159638, Note_off_c, 0, 45, 66
1, 159640, Control_c, 0, 64, 123
1, 159643, Note_off_c, 0, 38, 61
1, 159670, Control_c, 0, 64, 124
1, 159684, Control_c, 0, 64, 125
1, 159714, Control_c, 0, 64, 124
1, 159726, Note_on_c, 0, 45, 105
1, 159729, Note_on_c, 0, 74, 95
1, 159729, Note_on_c, 0, 78, 99
1, 159729, Note_on_c, 0, 86, 100
1, 159732, Note_on_c, 0, 38, 102
1, 159794, Note_off_c, 0, 74, 62
1, 159799, Note_off_c, 0, 38, 62
1, 159803, Note_off_c, 0, 78, 62
1, 159804, Note_off_c, 0, 45, 67
1, 159806, Note_off_c, 0, 86, 59
1, 159936, Control_c, 0, 64, 123
1, 159951, Control_c, 0, 64, 120
1, 159966, Control_c, 0, 64, 114
1, 159981, Control_c, 0, 64, 108
1, 159991, Note_on_c, 0, 78, 70
1, 159996, Control_c, 0, 64, 102
1, 160010, Control_c, 0, 64, 96
1, 160025, Control_c, 0, 64, 87
1, 160026, Note_on_c, 0, 69, 11
1, 160040, Control_c, 0, 64, 76
1, 160042, Note_off_c, 0, 78, 61
1, 160055, Control_c, 0, 64, 59
1, 160070, Note_off_c, 0, 69, 36
1, 160070, Control_c, 0, 64, 0
1, 160094, Note_on_c, 0, 86, 63
1, 160106, Note_on_c, 0, 63, 64
1, 160120, Note_on_c, 0, 72, 48
1, 160125, Note_on_c, 0, 75, 43
1, 160133, Note_off_c, 0, 86, 60
1, 160140, Note_off_c, 0, 63, 64
1, 160141, Note_off_c, 0, 72, 55
1, 160147, Note_off_c, 0, 75, 55
1, 160221, Note_on_c, 0, 69, 54
1, 160223, Note_on_c, 0, 78, 66
1, 160253, Note_off_c, 0, 78, 64
1, 160256, Note_off_c, 0, 69, 65
1, 160326, Note_on_c, 0, 84, 66
1, 160329, Note_on_c, 0, 63, 47
1, 160343, Note_on_c, 0, 75, 33
1, 160356, Note_off_c, 0, 63, 58
1, 160363, Note_off_c, 0, 84, 59
1, 160364, Note_off_c, 0, 75, 51
1, 160434, Note_on_c, 0, 78, 69
1, 160440, Note_on_c, 0, 69, 58
1, 160462, Note_off_c, 0, 78, 65
1, 160469, Note_off_c, 0, 69, 64
1, 160527, Note_on_c, 0, 86, 73
1, 160530, Note_on_c, 0, 72, 64
1, 160547, Note_on_c, 0, 75, 53
1, 160551, Note_on_c, 0, 63, 51
1, 160555, Note_off_c, 0, 72, 66
1, 160567, Note_off_c, 0, 75, 64
1, 160570, Note_off_c, 0, 86, 60
1, 160573, Note_off_c, 0, 63, 60
1, 160635, Note_on_c, 0, 78, 73
1, 160645, Note_on_c, 0, 69, 60
1, 160668, Note_off_c, 0, 78, 60
1, 160677, Note_off_c, 0, 69, 68
1, 160733, Note_on_c, 0, 63, 64
1, 160734, Note_on_c, 0, 84, 71
1, 160737, Note_on_c, 0, 72, 73
1, 160746, Note_on_c, 0, 75, 34
1, 160747, Note_off_c, 0, 75, 127
1, 160751, Note_off_c, 0, 84, 69
1, 160756, Note_off_c, 0, 63, 68
1, 160761, Note_off_c, 0, 72, 70
1, 160850, Note_on_c, 0, 58, 82
1, 160851, Note_on_c, 0, 67, 84
1, 160879, Note_off_c, 0, 58, 64
1, 160897, Note_off_c, 0, 67, 61
1, 160959, Note_on_c, 0, 69, 78
1, 160964, Note_on_c, 0, 63, 77
1, 160965, Note_on_c, 0, 60, 81
1, 160974, Note_on_c, 0, 48, 67
1, 160989, Note_off_c, 0, 60, 68
1, 160990, Note_off_c, 0, 63, 67
1, 161008, Note_off_c, 0, 48, 65
1, 161018, Note_off_c, 0, 69, 64
1, 161067, Note_on_c, 0, 67, 96
1, 161079, Note_on_c, 0, 58, 78
1, 161124, Note_off_c, 0, 67, 59
1, 161130, Note_off_c, 0, 58, 63
1, 161157, Note_on_c, 0, 60, 81
1, 161163, Note_on_c, 0, 63, 91
1, 161165, Note_on_c, 0, 48, 77
1, 161169, Note_on_c, 0, 69, 83
1, 161192, Note_off_c, 0, 60, 63
1, 161200, Note_off_c, 0, 63, 65
1, 161208, Note_off_c, 0, 48, 64
1, 161212, Note_off_c, 0, 69, 62
1, 161269, Note_on_c, 0, 57, 90
1, 161272, Note_on_c, 0, 66, 91
1, 161287, Control_c, 0, 64, 64
1, 161302, Control_c, 0, 64, 75
1, 161307, Note_off_c, 0, 57, 64
1, 161310, Note_off_c, 0, 66, 67
1, 161317, Control_c, 0, 64, 88
1, 161331, Control_c, 0, 64, 99
1, 161346, Control_c, 0, 64, 104
1, 161361, Control_c, 0, 64, 107
1, 161366, Note_on_c, 0, 62, 84
1, 161368, Note_on_c, 0, 74, 87
1, 161375, Note_on_c, 0, 54, 86
1, 161376, Control_c, 0, 64, 112
1, 161386, Note_off_c, 0, 62, 68
1, 161390, Control_c, 0, 64, 123
1, 161401, Note_off_c, 0, 54, 67
1, 161405, Control_c, 0, 64, 127
1, 161407, Note_off_c, 0, 74, 68
1, 161479, Note_on_c, 0, 50, 92
1, 161479, Note_on_c, 0, 78, 102
1, 161512, Note_off_c, 0, 78, 67
1, 161518, Note_off_c, 0, 50, 66
1, 161579, Note_on_c, 0, 38, 78
1, 161580, Note_on_c, 0, 74, 90
1, 161580, Note_on_c, 0, 86, 92
1, 161609, Note_off_c, 0, 38, 63
1, 161616, Note_off_c, 0, 74, 69
1, 161622, Note_off_c, 0, 86, 66
1, 161697, Note_on_c, 0, 78, 88
1, 161709, Note_on_c, 0, 69, 90
1, 161726, Note_off_c, 0, 69, 75
1, 161747, Note_off_c, 0, 78, 64
1, 161783, Control_c, 0, 64, 119
1, 161798, Control_c, 0, 64, 107
1, 161806, Note_on_c, 0, 86, 84
1, 161811, Note_on_c, 0, 72, 82
1, 161813, Control_c, 0, 64, 99
1, 161813, Note_on_c, 0, 75, 76
1, 161816, Note_on_c, 0, 63, 71
1, 161828, Control_c, 0, 64, 90
1, 161835, Note_off_c, 0, 72, 68
1, 161840, Note_off_c, 0, 75, 64
1, 161843, Control_c, 0, 64, 81
1, 161855, Note_off_c, 0, 86, 63
1, 161857, Control_c, 0, 64, 72
1, 161860, Note_off_c, 0, 63, 55
1, 161872, Control_c, 0, 64, 53
1, 161886, Control_c, 0, 64, 0
1, 161913, Note_on_c, 0, 78, 78
1, 161916, Note_on_c, 0, 69, 68
1, 161947, Note_off_c, 0, 69, 63
1, 161964, Note_off_c, 0, 78, 63
1, 162016, Note_on_c, 0, 75, 64
1, 162018, Note_on_c, 0, 84, 73
1, 162024, Note_on_c, 0, 63, 53
1, 162024, Note_on_c, 0, 72, 69
1, 162046, Note_off_c, 0, 75, 67
1, 162048, Note_off_c, 0, 72, 70
1, 162063, Note_off_c, 0, 63, 63
1, 162069, Note_off_c, 0, 84, 60
1, 162124, Note_on_c, 0, 69, 69
1, 162125, Note_on_c, 0, 78, 80
1, 162165, Note_off_c, 0, 69, 58
1, 162167, Note_off_c, 0, 78, 63
1, 162220, Note_on_c, 0, 86, 76
1, 162224, Note_on_c, 0, 75, 71
1, 162227, Note_on_c, 0, 63, 62
1, 162228, Note_on_c, 0, 72, 73
1, 162250, Note_off_c, 0, 75, 69
1, 162251, Note_off_c, 0, 72, 70
1, 162265, Note_off_c, 0, 63, 61
1, 162270, Note_off_c, 0, 86, 60
1, 162324, Note_on_c, 0, 69, 68
1, 162326, Note_on_c, 0, 78, 81
1, 162367, Note_off_c, 0, 69, 62
1, 162380, Note_off_c, 0, 78, 63
1, 162430, Note_on_c, 0, 63, 67
1, 162430, Note_on_c, 0, 84, 78
1, 162433, Note_on_c, 0, 75, 51
1, 162434, Note_off_c, 0, 75, 127
1, 162434, Note_on_c, 0, 72, 82
1, 162452, Note_off_c, 0, 84, 71
1, 162454, Note_off_c, 0, 63, 68
1, 162457, Note_off_c, 0, 72, 67
1, 162543, Note_on_c, 0, 67, 94
1, 162544, Note_on_c, 0, 58, 85
1, 162582, Note_off_c, 0, 58, 57
1, 162590, Note_off_c, 0, 67, 63
1, 162645, Note_on_c, 0, 63, 89
1, 162645, Note_on_c, 0, 69, 85
1, 162650, Note_on_c, 0, 60, 86
1, 162656, Note_on_c, 0, 48, 78
1, 162680, Note_off_c, 0, 63, 63
1, 162683, Note_off_c, 0, 60, 65
1, 162698, Note_off_c, 0, 48, 66
1, 162701, Note_off_c, 0, 69, 63
1, 162753, Note_on_c, 0, 67, 93
1, 162761, Note_on_c, 0, 58, 90
1, 162824, Note_off_c, 0, 58, 63
1, 162829, Note_off_c, 0, 67, 45
1, 162853, Note_on_c, 0, 63, 85
1, 162857, Note_on_c, 0, 60, 85
1, 162859, Note_on_c, 0, 69, 80
1, 162861, Note_on_c, 0, 48, 72
1, 162890, Note_off_c, 0, 63, 63
1, 162896, Note_off_c, 0, 60, 62
1, 162902, Note_off_c, 0, 48, 67
1, 162912, Note_off_c, 0, 69, 62
1, 162932, Control_c, 0, 64, 58
1, 162946, Control_c, 0, 64, 72
1, 162961, Control_c, 0, 64, 84
1, 162964, Note_on_c, 0, 66, 96
1, 162966, Note_on_c, 0, 57, 94
1, 162976, Control_c, 0, 64, 94
1, 162989, Note_off_c, 0, 57, 68
1, 162991, Control_c, 0, 64, 97
1, 162998, Note_off_c, 0, 66, 70
1, 163006, Control_c, 0, 64, 99
1, 163020, Control_c, 0, 64, 101
1, 163035, Control_c, 0, 64, 104
1, 163050, Control_c, 0, 64, 107
1, 163065, Control_c, 0, 64, 109
1, 163080, Control_c, 0, 64, 110
1, 163086, Note_on_c, 0, 74, 99
1, 163086, Note_on_c, 0, 86, 90
1, 163093, Note_on_c, 0, 45, 101
1, 163095, Note_on_c, 0, 38, 83
1, 163095, Note_on_c, 0, 78, 75
1, 163096, Note_off_c, 0, 78, 127
1, 163096, Control_c, 0, 64, 111
1, 163110, Control_c, 0, 64, 114
1, 163124, Control_c, 0, 64, 115
1, 163132, Note_off_c, 0, 74, 58
1, 163139, Control_c, 0, 64, 116
1, 163155, Note_off_c, 0, 86, 58
1, 163157, Note_off_c, 0, 45, 64
1, 163158, Note_off_c, 0, 38, 62
1, 163176, Control_c, 0, 64, 116
1, 163191, Control_c, 0, 64, 117
1, 163206, Control_c, 0, 64, 117
1, 163221, Control_c, 0, 64, 118
1, 163242, Note_on_c, 0, 74, 97
1, 163243, Note_on_c, 0, 45, 104
1, 163247, Note_on_c, 0, 78, 93
1, 163250, Note_on_c, 0, 86, 91
1, 163250, Control_c, 0, 64, 118
1, 163256, Note_on_c, 0, 38, 83
1, 163265, Control_c, 0, 64, 120
1, 163277, Note_off_c, 0, 74, 69
1, 163280, Control_c, 0, 64, 122
1, 163282, Note_off_c, 0, 45, 67
1, 163285, Note_off_c, 0, 78, 67
1, 163287, Note_off_c, 0, 38, 63
1, 163288, Note_off_c, 0, 86, 67
1, 163295, Control_c, 0, 64, 124
1, 163339, Control_c, 0, 64, 125
1, 163354, Control_c, 0, 64, 125
1, 163369, Control_c, 0, 64, 126
1, 163458, Control_c, 0, 64, 125
1, 163473, Control_c, 0, 64, 121
1, 163488, Control_c, 0, 64, 113
1, 163503, Control_c, 0, 64, 100
1, 163518, Control_c, 0, 64, 85
1, 163533, Control_c, 0, 64, 65
1, 163536, Note_on_c, 0, 79, 100
1, 163540, Note_on_c, 0, 39, 91
1, 163548, Control_c, 0, 64, 0
1, 163668, Note_on_c, 0, 91, 83
1, 163669, Note_on_c, 0, 87, 80
1, 163697, Control_c, 0, 64, 64
1, 163712, Control_c, 0, 64, 69
1, 163714, Note_off_c, 0, 79, 64
1, 163720, Note_off_c, 0, 91, 62
1, 163724, Note_off_c, 0, 87, 62
1, 163726, Control_c, 0, 64, 73
1, 163741, Control_c, 0, 64, 78
1, 163756, Control_c, 0, 64, 84
1, 163770, Control_c, 0, 64, 89
1, 163781, Note_on_c, 0, 77, 94
1, 163785, Control_c, 0, 64, 93
1, 163800, Control_c, 0, 64, 94
1, 163815, Control_c, 0, 64, 95
1, 163830, Control_c, 0, 64, 97
1, 163844, Control_c, 0, 64, 100
1, 163859, Control_c, 0, 64, 103
1, 163861, Note_on_c, 0, 41, 86
1, 163874, Control_c, 0, 64, 109
1, 163875, Note_on_c, 0, 86, 77
1, 163880, Note_on_c, 0, 89, 77
1, 163889, Control_c, 0, 64, 114
1, 163911, Note_off_c, 0, 77, 63
1, 163911, Control_c, 0, 64, 117
1, 163925, Note_off_c, 0, 89, 58
1, 163926, Control_c, 0, 64, 118
1, 163929, Note_off_c, 0, 86, 65
1, 163938, Note_off_c, 0, 41, 65
1, 163958, Note_off_c, 0, 39, 56
1, 163971, Control_c, 0, 64, 115
1, 163985, Control_c, 0, 64, 100
1, 163987, Note_on_c, 0, 39, 56
1, 163992, Note_on_c, 0, 42, 89
1, 163996, Note_on_c, 0, 75, 95
1, 164000, Control_c, 0, 64, 81
1, 164015, Control_c, 0, 64, 51
1, 164030, Control_c, 0, 64, 0
1, 164059, Control_c, 0, 64, 66
1, 164069, Note_off_c, 0, 39, 0
1, 164074, Control_c, 0, 64, 84
1, 164088, Note_on_c, 0, 84, 65
1, 164089, Control_c, 0, 64, 98
1, 164095, Note_on_c, 0, 87, 78
1, 164103, Control_c, 0, 64, 104
1, 164106, Poly_aftertouch_c, 0, 39, 127
1, 164118, Control_c, 0, 64, 104
1, 164133, Note_off_c, 0, 75, 64
1, 164133, Control_c, 0, 64, 106
1, 164138, Note_off_c, 0, 84, 62
1, 164138, Note_off_c, 0, 87, 65
1, 164148, Control_c, 0, 64, 109
1, 164163, Control_c, 0, 64, 114
1, 164177, Control_c, 0, 64, 117
1, 164192, Control_c, 0, 64, 120
1, 164207, Control_c, 0, 64, 122
1, 164211, Note_on_c, 0, 70, 94
1, 164222, Control_c, 0, 64, 123
1, 164237, Control_c, 0, 64, 124
1, 164251, Control_c, 0, 64, 125
1, 164266, Control_c, 0, 64, 127
1, 164290, Note_off_c, 0, 42, 61
1, 164291, Note_on_c, 0, 79, 58
1, 164298, Note_on_c, 0, 43, 83
1, 164299, Note_on_c, 0, 82, 80
1, 164311, Note_off_c, 0, 70, 60
1, 164330, Note_off_c, 0, 79, 63
1, 164342, Note_off_c, 0, 82, 64
1, 164343, Note_off_c, 0, 43, 60
1, 164403, Note_on_c, 0, 40, 59
1, 164409, Note_on_c, 0, 75, 99
1, 164410, Note_on_c, 0, 87, 92
1, 164416, Note_on_c, 0, 44, 73
1, 164424, Note_on_c, 0, 84, 64
1, 164426, Note_off_c, 0, 75, 70
1, 164430, Control_c, 0, 64, 121
1, 164431, Note_off_c, 0, 87, 62
1, 164440, Note_off_c, 0, 84, 65
1, 164445, Control_c, 0, 64, 112
1, 164460, Control_c, 0, 64, 104
1, 164475, Control_c, 0, 64, 97
1, 164490, Control_c, 0, 64, 89
1, 164505, Control_c, 0, 64, 81
1, 164509, Note_on_c, 0, 46, 81
1, 164510, Note_on_c, 0, 74, 96
1, 164515, Note_on_c, 0, 86, 80
1, 164518, Note_on_c, 0, 82, 77
1, 164519, Control_c, 0, 64, 72
1, 164520, Note_off_c, 0, 44, 60
1, 164534, Control_c, 0, 64, 61
1, 164538, Note_off_c, 0, 82, 70
1, 164546, Note_off_c, 0, 86, 64
1, 164549, Control_c, 0, 64, 0
1, 164549, Note_off_c, 0, 74, 65
1, 164586, Note_off_c, 0, 40, 41
1, 164591, Note_on_c, 0, 48, 75
1, 164609, Note_off_c, 0, 46, 0
1, 164622, Note_on_c, 0, 72, 96
1, 164654, Poly_aftertouch_c, 0, 46, 127
1, 164663, Poly_aftertouch_c, 0, 39, 0
1, 164673, Note_on_c, 0, 84, 26
1, 164692, Note_on_c, 0, 50, 82
1, 164698, Note_off_c, 0, 48, 64
1, 164703, Poly_aftertouch_c, 0, 46, 0
1, 164706, Note_on_c, 0, 80, 51
1, 164714, Note_off_c, 0, 84, 0
1, 164714, Note_on_c, 0, 84, 47
1, 164740, Note_off_c, 0, 72, 65
1, 164748, Note_off_c, 0, 50, 64
1, 164755, Note_off_c, 0, 84, 66
1, 164776, Note_off_c, 0, 80, 64
1, 164808, Control_c, 0, 64, 64
1, 164823, Control_c, 0, 64, 73
1, 164826, Note_on_c, 0, 51, 100
1, 164836, Note_on_c, 0, 70, 92
1, 164838, Control_c, 0, 64, 84
1, 164853, Control_c, 0, 64, 91
1, 164860, Note_on_c, 0, 68, 68
1, 164865, Note_off_c, 0, 51, 65
1, 164868, Control_c, 0, 64, 97
1, 164875, Note_off_c, 0, 68, 66
1, 164882, Control_c, 0, 64, 103
1, 164896, Note_off_c, 0, 70, 54
1, 164897, Control_c, 0, 64, 108
1, 164912, Control_c, 0, 64, 112
1, 164926, Control_c, 0, 64, 116
1, 164929, Note_on_c, 0, 70, 59
1, 164931, Note_on_c, 0, 79, 73
1, 164938, Note_on_c, 0, 82, 77
1, 164941, Control_c, 0, 64, 118
1, 164956, Control_c, 0, 64, 119
1, 164957, Note_off_c, 0, 70, 65
1, 164971, Control_c, 0, 64, 120
1, 164976, Note_off_c, 0, 79, 64
1, 164984, Note_off_c, 0, 82, 64
1, 164986, Control_c, 0, 64, 121
1, 165000, Control_c, 0, 64, 125
1, 165015, Control_c, 0, 64, 127
1, 165050, Note_on_c, 0, 63, 96
1, 165050, Note_on_c, 0, 67, 93
1, 165077, Note_off_c, 0, 63, 67
1, 165131, Note_off_c, 0, 67, 48
1, 165148, Note_on_c, 0, 79, 78
1, 165151, Note_on_c, 0, 75, 78
1, 165197, Note_off_c, 0, 75, 62
1, 165199, Note_off_c, 0, 79, 64
1, 165254, Control_c, 0, 64, 125
1, 165269, Control_c, 0, 64, 109
1, 165284, Control_c, 0, 64, 90
1, 165289, Note_on_c, 0, 79, 98
1, 165294, Note_on_c, 0, 39, 93
1, 165298, Control_c, 0, 64, 66
1, 165313, Control_c, 0, 64, 0
1, 165402, Note_on_c, 0, 87, 83
1, 165402, Note_on_c, 0, 91, 82
1, 165425, Control_c, 0, 64, 28
1, 165437, Note_off_c, 0, 79, 60
1, 165439, Control_c, 0, 64, 64
1, 165451, Note_off_c, 0, 91, 60
1, 165454, Control_c, 0, 64, 70
1, 165456, Note_off_c, 0, 87, 63
1, 165469, Control_c, 0, 64, 75
1, 165484, Control_c, 0, 64, 81
1, 165498, Control_c, 0, 64, 85
1, 165512, Note_on_c, 0, 77, 92
1, 165513, Control_c, 0, 64, 87
1, 165528, Control_c, 0, 64, 90
1, 165543, Control_c, 0, 64, 93
1, 165557, Control_c, 0, 64, 97
1, 165572, Control_c, 0, 64, 99
1, 165587, Control_c, 0, 64, 102
1, 165602, Control_c, 0, 64, 104
1, 165603, Note_on_c, 0, 41, 79
1, 165604, Note_on_c, 0, 86, 73
1, 165612, Note_on_c, 0, 89, 75
1, 165617, Control_c, 0, 64, 107
1, 165626, Note_off_c, 0, 77, 61
1, 165631, Control_c, 0, 64, 108
1, 165637, Note_off_c, 0, 89, 63
1, 165646, Control_c, 0, 64, 109
1, 165651, Note_off_c, 0, 86, 63
1, 165676, Note_off_c, 0, 41, 65
1, 165690, Control_c, 0, 64, 107
1, 165696, Note_off_c, 0, 39, 0
1, 165705, Control_c, 0, 64, 97
1, 165720, Control_c, 0, 64, 79
1, 165723, Note_on_c, 0, 42, 88
1, 165723, Note_on_c, 0, 75, 92
1, 165733, Poly_aftertouch_c, 0, 39, 127
1, 165735, Control_c, 0, 64, 0
1, 165794, Control_c, 0, 64, 67
1, 165807, Note_on_c, 0, 84, 64
1, 165809, Control_c, 0, 64, 78
1, 165822, Note_on_c, 0, 87, 77
1, 165823, Control_c, 0, 64, 89
1, 165838, Control_c, 0, 64, 94
1, 165853, Control_c, 0, 64, 96
1, 165858, Note_off_c, 0, 75, 63
1, 165861, Note_off_c, 0, 87, 62
1, 165865, Note_off_c, 0, 84, 65
1, 165868, Control_c, 0, 64, 98
1, 165882, Control_c, 0, 64, 102
1, 165897, Control_c, 0, 64, 107
1, 165912, Control_c, 0, 64, 113
1, 165928, Control_c, 0, 64, 116
1, 165937, Note_on_c, 0, 70, 93
1, 165943, Control_c, 0, 64, 116
1, 165958, Control_c, 0, 64, 117
1, 165972, Control_c, 0, 64, 119
1, 165987, Control_c, 0, 64, 123
1, 165995, Note_off_c, 0, 42, 59
1, 166002, Control_c, 0, 64, 127
1, 166013, Note_on_c, 0, 79, 64
1, 166025, Note_on_c, 0, 43, 79
1, 166029, Note_on_c, 0, 82, 80
1, 166045, Note_off_c, 0, 70, 62
1, 166066, Note_off_c, 0, 79, 63
1, 166073, Note_off_c, 0, 43, 59
1, 166076, Note_off_c, 0, 82, 65
1, 166150, Note_on_c, 0, 75, 99
1, 166151, Note_on_c, 0, 87, 93
1, 166155, Note_on_c, 0, 44, 76
1, 166156, Note_on_c, 0, 84, 80
1, 166169, Note_off_c, 0, 75, 71
1, 166171, Note_off_c, 0, 87, 64
1, 166173, Control_c, 0, 64, 111
1, 166177, Note_off_c, 0, 84, 73
1, 166187, Control_c, 0, 64, 97
1, 166202, Control_c, 0, 64, 82
1, 166217, Control_c, 0, 64, 67
1, 166232, Control_c, 0, 64, 0
1, 166247, Note_off_c, 0, 44, 57
1, 166257, Note_on_c, 0, 74, 95
1, 166266, Note_on_c, 0, 86, 80
1, 166266, Note_on_c, 0, 46, 77
1, 166270, Note_on_c, 0, 82, 74
1, 166288, Note_off_c, 0, 86, 66
1, 166293, Note_off_c, 0, 82, 68
1, 166296, Note_off_c, 0, 74, 66
1, 166338, Note_off_c, 0, 46, 63
1, 166366, Note_on_c, 0, 48, 80
1, 166375, Note_on_c, 0, 72, 85
1, 166393, Note_on_c, 0, 74, 56
1, 166414, Note_off_c, 0, 74, 39
1, 166465, Note_on_c, 0, 84, 72
1, 166466, Note_on_c, 0, 50, 83
1, 166467, Note_on_c, 0, 80, 82
1, 166475, Note_off_c, 0, 48, 61
1, 166496, Note_off_c, 0, 72, 65
1, 166506, Note_off_c, 0, 50, 65
1, 166514, Note_off_c, 0, 84, 64
1, 166516, Poly_aftertouch_c, 0, 39, 0
1, 166521, Note_off_c, 0, 80, 65
1, 166599, Note_on_c, 0, 51, 93
1, 166603, Note_on_c, 0, 82, 86
1, 166606, Note_on_c, 0, 79, 83
1, 166615, Note_on_c, 0, 39, 73
1, 166618, Control_c, 0, 64, 55
1, 166627, Note_off_c, 0, 51, 66
1, 166633, Control_c, 0, 64, 69
1, 166638, Note_off_c, 0, 39, 63
1, 166645, Note_off_c, 0, 79, 62
1, 166647, Control_c, 0, 64, 78
1, 166657, Note_off_c, 0, 82, 64
1, 166662, Control_c, 0, 64, 83
1, 166677, Control_c, 0, 64, 86
1, 166691, Control_c, 0, 64, 88
1, 166706, Control_c, 0, 64, 90
1, 166722, Control_c, 0, 64, 92
1, 166737, Control_c, 0, 64, 94
1, 166738, Note_on_c, 0, 70, 78
1, 166752, Control_c, 0, 64, 95
1, 166767, Note_off_c, 0, 70, 63
1, 166767, Control_c, 0, 64, 96
1, 166841, Control_c, 0, 64, 95
1, 166856, Control_c, 0, 64, 93
1, 166870, Control_c, 0, 64, 88
1, 166872, Note_on_c, 0, 79, 61
1, 166876, Note_on_c, 0, 82, 58
1, 166880, Note_on_c, 0, 70, 64
1, 166885, Control_c, 0, 64, 79
1, 166903, Note_on_c, 0, 63, 47
1, 166907, Note_off_c, 0, 70, 61
1, 166907, Control_c, 0, 64, 68
1, 166917, Note_off_c, 0, 82, 56
1, 166921, Note_off_c, 0, 79, 62
1, 166922, Control_c, 0, 64, 0
1, 166925, Note_off_c, 0, 63, 55
1, 167008, Note_on_c, 0, 82, 67
1, 167026, Note_on_c, 0, 79, 46
1, 167050, Note_off_c, 0, 79, 58
1, 167065, Note_off_c, 0, 82, 62
1, 167143, Note_on_c, 0, 81, 81
1, 167151, Note_on_c, 0, 79, 58
1, 167155, Note_on_c, 0, 51, 53
1, 167164, Note_on_c, 0, 63, 44
1, 167175, Note_off_c, 0, 79, 64
1, 167175, Note_off_c, 0, 81, 56
1, 167180, Note_off_c, 0, 51, 60
1, 167189, Note_off_c, 0, 63, 52
1, 167265, Note_on_c, 0, 67, 62
1, 167292, Note_off_c, 0, 67, 64
1, 167377, Note_on_c, 0, 63, 65
1, 167378, Note_on_c, 0, 79, 70
1, 167381, Note_on_c, 0, 75, 70
1, 167403, Note_off_c, 0, 63, 67
1, 167406, Note_off_c, 0, 75, 70
1, 167411, Note_off_c, 0, 79, 61
1, 167486, Note_on_c, 0, 67, 67
1, 167514, Note_off_c, 0, 67, 67
1, 167586, Note_on_c, 0, 81, 80
1, 167593, Note_on_c, 0, 51, 62
1, 167597, Note_on_c, 0, 63, 57
1, 167598, Note_on_c, 0, 79, 66
1, 167616, Note_off_c, 0, 63, 64
1, 167622, Note_off_c, 0, 79, 52
1, 167623, Note_off_c, 0, 51, 64
1, 167625, Note_off_c, 0, 81, 62
1, 167695, Note_on_c, 0, 67, 60
1, 167715, Note_off_c, 0, 67, 59
1, 167797, Note_on_c, 0, 79, 69
1, 167797, Note_on_c, 0, 82, 68
1, 167804, Note_on_c, 0, 75, 62
1, 167816, Note_on_c, 0, 63, 56
1, 167831, Note_off_c, 0, 79, 59
1, 167832, Note_off_c, 0, 75, 66
1, 167836, Note_off_c, 0, 82, 61
1, 167837, Note_off_c, 0, 63, 64
1, 167897, Note_on_c, 0, 82, 71
1, 167915, Note_on_c, 0, 79, 58
1, 167934, Note_off_c, 0, 79, 62
1, 167940, Note_off_c, 0, 82, 66
1, 168005, Note_on_c, 0, 81, 88
1, 168010, Note_on_c, 0, 51, 64
1, 168012, Note_on_c, 0, 79, 70
1, 168016, Note_on_c, 0, 63, 55
1, 168037, Note_off_c, 0, 51, 65
1, 168037, Note_off_c, 0, 63, 60
1, 168040, Note_off_c, 0, 79, 63
1, 168045, Note_off_c, 0, 81, 61
1, 168124, Note_on_c, 0, 67, 53
1, 168145, Note_off_c, 0, 67, 60
1, 168232, Note_on_c, 0, 79, 62
1, 168240, Note_on_c, 0, 63, 50
1, 168262, Note_off_c, 0, 63, 59
1, 168262, Note_off_c, 0, 79, 51
1, 168342, Note_on_c, 0, 67, 62
1, 168364, Note_off_c, 0, 67, 65
1, 168458, Note_on_c, 0, 81, 67
1, 168467, Note_on_c, 0, 63, 58
1, 168469, Note_on_c, 0, 51, 53
1, 168471, Note_on_c, 0, 79, 54
1, 168492, Note_off_c, 0, 63, 62
1, 168498, Note_off_c, 0, 51, 60
1, 168501, Note_off_c, 0, 81, 60
1, 168504, Note_off_c, 0, 79, 48
1, 168569, Note_on_c, 0, 67, 52
1, 168595, Note_off_c, 0, 67, 60
1, 168672, Note_on_c, 0, 63, 74
1, 168678, Note_on_c, 0, 51, 68
1, 168697, Note_off_c, 0, 63, 68
1, 168709, Note_off_c, 0, 51, 63
1, 168757, Note_on_c, 0, 69, 63
1, 168773, Note_on_c, 0, 67, 48
1, 168783, Note_on_c, 0, 57, 33
1, 168797, Note_off_c, 0, 67, 57
1, 168798, Note_off_c, 0, 69, 59
1, 168817, Note_off_c, 0, 57, 33
1, 168871, Note_on_c, 0, 62, 89
1, 168875, Note_on_c, 0, 50, 79
1, 168901, Note_off_c, 0, 62, 62
1, 168906, Note_off_c, 0, 50, 61
1, 168968, Note_on_c, 0, 57, 70
1, 168969, Note_on_c, 0, 67, 56
1, 168976, Note_on_c, 0, 69, 69
1, 168995, Note_off_c, 0, 57, 65
1, 169005, Note_off_c, 0, 67, 64
1, 169010, Note_off_c, 0, 69, 64
1, 169081, Note_on_c, 0, 61, 96
1, 169091, Note_on_c, 0, 49, 80
1, 169122, Note_off_c, 0, 61, 62
1, 169124, Note_off_c, 0, 49, 65
1, 169184, Note_on_c, 0, 69, 79
1, 169187, Note_on_c, 0, 81, 79
1, 169197, Note_on_c, 0, 79, 61
1, 169204, Note_off_c, 0, 69, 72
1, 169215, Note_off_c, 0, 79, 61
1, 169215, Note_off_c, 0, 81, 55
1, 169298, Note_on_c, 0, 60, 97
1, 169302, Note_on_c, 0, 48, 89
1, 169304, Control_c, 0, 64, 61
1, 169318, Control_c, 0, 64, 70
1, 169333, Control_c, 0, 64, 77
1, 169337, Note_off_c, 0, 60, 65
1, 169341, Note_off_c, 0, 48, 67
1, 169348, Control_c, 0, 64, 81
1, 169363, Control_c, 0, 64, 83
1, 169378, Control_c, 0, 64, 85
1, 169392, Control_c, 0, 64, 88
1, 169398, Note_on_c, 0, 79, 60
1, 169399, Note_on_c, 0, 81, 80
1, 169402, Note_on_c, 0, 69, 83
1, 169407, Control_c, 0, 64, 92
1, 169422, Control_c, 0, 64, 95
1, 169426, Note_off_c, 0, 81, 65
1, 169435, Note_off_c, 0, 79, 63
1, 169437, Control_c, 0, 64, 97
1, 169447, Note_off_c, 0, 69, 61
1, 169466, Control_c, 0, 64, 97
1, 169502, Note_on_c, 0, 63, 97
1, 169513, Note_on_c, 0, 51, 89
1, 169539, Note_off_c, 0, 63, 67
1, 169540, Control_c, 0, 64, 94
1, 169555, Control_c, 0, 64, 88
1, 169570, Control_c, 0, 64, 78
1, 169581, Note_off_c, 0, 51, 57
1, 169585, Control_c, 0, 64, 64
1, 169590, Poly_aftertouch_c, 0, 56, 127
1, 169599, Control_c, 0, 64, 0
1, 169603, Note_on_c, 0, 69, 79
1, 169604, Note_on_c, 0, 57, 78
1, 169607, Note_on_c, 0, 67, 72
1, 169618, Poly_aftertouch_c, 0, 56, 0
1, 169640, Note_off_c, 0, 57, 60
1, 169641, Note_off_c, 0, 67, 61
1, 169662, Note_off_c, 0, 69, 62
1, 169712, Note_on_c, 0, 62, 111
1, 169721, Note_on_c, 0, 50, 88
1, 169762, Note_on_c, 0, 56, 22
1, 169763, Note_off_c, 0, 62, 60
1, 169787, Note_off_c, 0, 50, 60
1, 169790, Note_on_c, 0, 57, 75
1, 169796, Note_off_c, 0, 56, 33
1, 169803, Note_on_c, 0, 69, 68
1, 169808, Note_on_c, 0, 67, 67
1, 169819, Note_off_c, 0, 57, 67
1, 169837, Note_off_c, 0, 67, 65
1, 169843, Note_off_c, 0, 69, 65
1, 169930, Note_on_c, 0, 60, 100
1, 169936, Note_on_c, 0, 48, 93
1, 169969, Note_off_c, 0, 60, 64
1, 169978, Note_off_c, 0, 48, 65
1, 170010, Note_on_c, 0, 78, 82
1, 170011, Note_on_c, 0, 74, 68
1, 170014, Note_on_c, 0, 66, 82
1, 170043, Note_off_c, 0, 66, 63
1, 170068, Note_off_c, 0, 74, 64
1, 170070, Note_off_c, 0, 78, 64
1, 170127, Note_on_c, 0, 74, 86
1, 170127, Note_on_c, 0, 67, 95
1, 170138, Note_on_c, 0, 58, 83
1, 170139, Note_on_c, 0, 79, 83
1, 170141, Control_c, 0, 64, 55
1, 170146, Note_on_c, 0, 46, 72
1, 170156, Control_c, 0, 64, 69
1, 170157, Note_off_c, 0, 67, 63
1, 170162, Note_off_c, 0, 58, 70
1, 170165, Note_off_c, 0, 74, 67
1, 170171, Control_c, 0, 64, 76
1, 170172, Note_off_c, 0, 79, 63
1, 170181, Note_off_c, 0, 46, 63
1, 170186, Control_c, 0, 64, 82
1, 170201, Control_c, 0, 64, 84
1, 170215, Control_c, 0, 64, 86
1, 170230, Control_c, 0, 64, 88
1, 170244, Note_on_c, 0, 82, 87
1, 170245, Note_on_c, 0, 55, 75
1, 170245, Control_c, 0, 64, 90
1, 170249, Note_on_c, 0, 70, 81
1, 170250, Note_on_c, 0, 43, 69
1, 170254, Note_on_c, 0, 74, 66
1, 170260, Control_c, 0, 64, 91
1, 170269, Note_off_c, 0, 74, 71
1, 170271, Note_off_c, 0, 70, 71
1, 170273, Note_off_c, 0, 55, 68
1, 170275, Note_off_c, 0, 43, 57
1, 170275, Control_c, 0, 64, 91
1, 170295, Note_off_c, 0, 82, 62
1, 170319, Control_c, 0, 64, 91
1, 170334, Control_c, 0, 64, 89
1, 170348, Control_c, 0, 64, 84
1, 170362, Note_on_c, 0, 70, 85
1, 170363, Control_c, 0, 64, 76
1, 170370, Note_on_c, 0, 82, 68
1, 170373, Note_on_c, 0, 79, 64
1, 170374, Note_on_c, 0, 63, 75
1, 170378, Control_c, 0, 64, 64
1, 170385, Note_off_c, 0, 70, 67
1, 170393, Control_c, 0, 64, 0
1, 170400, Note_off_c, 0, 63, 69
1, 170401, Note_off_c, 0, 82, 63
1, 170413, Note_off_c, 0, 79, 61
1, 170476, Note_on_c, 0, 79, 62
1, 170478, Note_on_c, 0, 70, 69
1, 170484, Note_on_c, 0, 82, 68
1, 170498, Note_off_c, 0, 70, 66
1, 170507, Note_off_c, 0, 79, 66
1, 170508, Note_off_c, 0, 82, 67
1, 170589, Note_on_c, 0, 81, 77
1, 170598, Note_on_c, 0, 63, 70
1, 170599, Note_on_c, 0, 51, 64
1, 170602, Note_on_c, 0, 79, 70
1, 170619, Note_off_c, 0, 79, 64
1, 170622, Note_off_c, 0, 63, 67
1, 170625, Note_off_c, 0, 81, 59
1, 170628, Note_off_c, 0, 51, 64
1, 170717, Note_on_c, 0, 67, 58
1, 170738, Note_off_c, 0, 67, 60
1, 170826, Note_on_c, 0, 79, 70
1, 170827, Note_on_c, 0, 63, 57
1, 170833, Note_on_c, 0, 75, 62
1, 170854, Note_off_c, 0, 63, 63
1, 170854, Note_off_c, 0, 75, 67
1, 170864, Note_off_c, 0, 79, 60
1, 170936, Note_on_c, 0, 67, 67
1, 170964, Note_off_c, 0, 67, 66
1, 171037, Note_on_c, 0, 81, 73
1, 171044, Note_on_c, 0, 51, 52
1, 171048, Note_on_c, 0, 63, 46
1, 171050, Note_on_c, 0, 79, 59
1, 171072, Note_off_c, 0, 63, 56
1, 171073, Note_off_c, 0, 51, 62
1, 171076, Note_off_c, 0, 79, 53
1, 171080, Note_off_c, 0, 81, 62
1, 171136, Note_on_c, 0, 67, 54
1, 171158, Note_off_c, 0, 67, 57
1, 171240, Note_on_c, 0, 82, 60
1, 171259, Note_on_c, 0, 79, 45
1, 171265, Note_on_c, 0, 75, 35
1, 171277, Note_off_c, 0, 82, 60
1, 171283, Note_off_c, 0, 79, 54
1, 171286, Note_on_c, 0, 63, 14
1, 171287, Note_off_c, 0, 75, 49
1, 171309, Note_off_c, 0, 63, 47
1, 171354, Note_on_c, 0, 82, 65
1, 171357, Note_on_c, 0, 79, 62
1, 171377, Note_off_c, 0, 79, 64
1, 171397, Note_off_c, 0, 82, 64
1, 171460, Control_c, 0, 64, 44
1, 171475, Control_c, 0, 64, 63
1, 171483, Note_on_c, 0, 81, 71
1, 171490, Control_c, 0, 64, 66
1, 171498, Note_on_c, 0, 79, 48
1, 171502, Note_on_c, 0, 51, 50
1, 171504, Control_c, 0, 64, 69
1, 171513, Note_on_c, 0, 63, 27
1, 171520, Control_c, 0, 64, 72
1, 171525, Note_off_c, 0, 79, 56
1, 171535, Control_c, 0, 64, 75
1, 171537, Note_off_c, 0, 81, 58
1, 171541, Note_off_c, 0, 51, 62
1, 171550, Control_c, 0, 64, 77
1, 171554, Note_off_c, 0, 63, 48
1, 171565, Control_c, 0, 64, 78
1, 171608, Note_on_c, 0, 67, 51
1, 171632, Note_off_c, 0, 67, 57
1, 171683, Control_c, 0, 64, 78
1, 171698, Control_c, 0, 64, 76
1, 171710, Note_on_c, 0, 79, 68
1, 171713, Control_c, 0, 64, 71
1, 171722, Note_on_c, 0, 63, 49
1, 171725, Note_on_c, 0, 75, 49
1, 171727, Control_c, 0, 64, 60
1, 171742, Control_c, 0, 64, 0
1, 171747, Note_off_c, 0, 75, 58
1, 171748, Note_off_c, 0, 63, 57
1, 171754, Note_off_c, 0, 79, 59
1, 171812, Note_on_c, 0, 67, 60
1, 171837, Note_off_c, 0, 67, 64
1, 171923, Note_on_c, 0, 81, 67
1, 171935, Note_on_c, 0, 51, 61
1, 171936, Note_on_c, 0, 79, 59
1, 171938, Note_on_c, 0, 63, 57
1, 171961, Note_off_c, 0, 63, 65
1, 171970, Note_off_c, 0, 51, 63
1, 171972, Note_off_c, 0, 81, 62
1, 171980, Note_off_c, 0, 79, 48
1, 172031, Note_on_c, 0, 67, 55
1, 172061, Note_off_c, 0, 67, 65
1, 172128, Note_on_c, 0, 63, 77
1, 172142, Note_on_c, 0, 51, 69
1, 172165, Note_off_c, 0, 63, 65
1, 172183, Note_off_c, 0, 51, 59
1, 172232, Note_on_c, 0, 69, 64
1, 172240, Note_on_c, 0, 67, 60
1, 172240, Note_on_c, 0, 57, 58
1, 172263, Note_off_c, 0, 57, 63
1, 172263, Note_off_c, 0, 67, 64
1, 172273, Note_off_c, 0, 69, 58
1, 172341, Note_on_c, 0, 62, 86
1, 172344, Note_on_c, 0, 50, 77
1, 172376, Note_off_c, 0, 62, 63
1, 172382, Note_off_c, 0, 50, 60
1, 172444, Note_on_c, 0, 57, 67
1, 172451, Note_on_c, 0, 67, 60
1, 172454, Note_on_c, 0, 69, 67
1, 172469, Note_off_c, 0, 57, 65
1, 172484, Note_off_c, 0, 67, 64
1, 172490, Note_off_c, 0, 69, 62
1, 172557, Note_on_c, 0, 61, 87
1, 172568, Note_on_c, 0, 49, 71
1, 172599, Note_off_c, 0, 61, 61
1, 172604, Note_off_c, 0, 49, 65
1, 172653, Note_on_c, 0, 69, 77
1, 172657, Note_on_c, 0, 81, 75
1, 172667, Note_on_c, 0, 79, 59
1, 172675, Note_off_c, 0, 69, 71
1, 172685, Note_off_c, 0, 79, 62
1, 172687, Note_off_c, 0, 81, 58
1, 172727, Control_c, 0, 64, 51
1, 172741, Control_c, 0, 64, 64
1, 172756, Control_c, 0, 64, 67
1, 172765, Note_on_c, 0, 60, 90
1, 172767, Note_on_c, 0, 48, 80
1, 172771, Control_c, 0, 64, 71
1, 172786, Control_c, 0, 64, 75
1, 172801, Control_c, 0, 64, 77
1, 172806, Note_off_c, 0, 48, 66
1, 172807, Note_off_c, 0, 60, 61
1, 172815, Control_c, 0, 64, 79
1, 172830, Control_c, 0, 64, 80
1, 172845, Control_c, 0, 64, 81
1, 172860, Control_c, 0, 64, 81
1, 172865, Note_on_c, 0, 69, 81
1, 172865, Note_on_c, 0, 79, 66
1, 172865, Note_on_c, 0, 81, 77
1, 172896, Note_off_c, 0, 81, 67
1, 172897, Control_c, 0, 64, 82
1, 172908, Note_off_c, 0, 79, 62
1, 172914, Note_off_c, 0, 69, 60
1, 172975, Note_on_c, 0, 63, 94
1, 172983, Note_on_c, 0, 51, 83
1, 173015, Control_c, 0, 64, 81
1, 173018, Note_off_c, 0, 63, 64
1, 173030, Control_c, 0, 64, 78
1, 173045, Control_c, 0, 64, 72
1, 173049, Note_off_c, 0, 51, 56
1, 173060, Control_c, 0, 64, 62
1, 173075, Control_c, 0, 64, 0
1, 173080, Note_on_c, 0, 69, 78
1, 173081, Note_on_c, 0, 57, 80
1, 173089, Note_on_c, 0, 67, 67
1, 173116, Note_off_c, 0, 57, 59
1, 173119, Note_off_c, 0, 67, 65
1, 173144, Note_off_c, 0, 69, 64
1, 173192, Note_on_c, 0, 62, 105
1, 173199, Note_on_c, 0, 50, 83
1, 173248, Note_off_c, 0, 62, 54
1, 173268, Note_off_c, 0, 50, 61
1, 173284, Note_on_c, 0, 57, 78
1, 173290, Note_on_c, 0, 67, 71
1, 173292, Note_on_c, 0, 69, 75
1, 173304, Note_off_c, 0, 57, 67
1, 173317, Note_off_c, 0, 67, 67
1, 173331, Note_off_c, 0, 69, 64
1, 173400, Note_on_c, 0, 60, 103
1, 173409, Note_on_c, 0, 48, 89
1, 173441, Note_off_c, 0, 60, 60
1, 173447, Note_off_c, 0, 48, 66
1, 173489, Note_on_c, 0, 78, 80
1, 173490, Note_on_c, 0, 66, 84
1, 173496, Note_on_c, 0, 74, 68
1, 173515, Note_off_c, 0, 66, 66
1, 173543, Note_off_c, 0, 74, 64
1, 173545, Note_off_c, 0, 78, 64
1, 173604, Note_on_c, 0, 67, 92
1, 173604, Note_on_c, 0, 74, 80
1, 173610, Note_on_c, 0, 58, 86
1, 173610, Control_c, 0, 64, 44
1, 173613, Note_on_c, 0, 79, 79
1, 173617, Note_on_c, 0, 46, 74
1, 173625, Control_c, 0, 64, 66
1, 173637, Note_off_c, 0, 67, 62
1, 173642, Note_off_c, 0, 58, 69
1, 173647, Control_c, 0, 64, 75
1, 173647, Note_off_c, 0, 74, 68
1, 173659, Note_off_c, 0, 46, 65
1, 173659, Note_off_c, 0, 79, 63
1, 173662, Control_c, 0, 64, 81
1, 173677, Control_c, 0, 64, 85
1, 173691, Control_c, 0, 64, 87
1, 173706, Control_c, 0, 64, 91
1, 173721, Control_c, 0, 64, 94
1, 173723, Note_on_c, 0, 75, 87
1, 173727, Note_on_c, 0, 82, 94
1, 173728, Note_on_c, 0, 55, 83
1, 173734, Note_on_c, 0, 43, 79
1, 173735, Note_on_c, 0, 70, 80
1, 173736, Control_c, 0, 64, 98
1, 173742, Note_off_c, 0, 75, 72
1, 173751, Control_c, 0, 64, 100
1, 173751, Note_off_c, 0, 55, 70
1, 173756, Note_off_c, 0, 70, 72
1, 173759, Note_off_c, 0, 43, 64
1, 173766, Note_off_c, 0, 82, 60
1, 173810, Control_c, 0, 64, 100
1, 173831, Note_on_c, 0, 54, 91
1, 173835, Note_on_c, 0, 85, 92
1, 173836, Note_on_c, 0, 42, 86
1, 173837, Note_on_c, 0, 75, 98
1, 173845, Note_on_c, 0, 87, 74
1, 173856, Note_off_c, 0, 75, 72
1, 173860, Note_off_c, 0, 87, 66
1, 173863, Note_off_c, 0, 54, 60
1, 173870, Note_off_c, 0, 85, 64
1, 173875, Note_off_c, 0, 42, 62
1, 173877, Note_on_c, 0, 88, 38
1, 173907, Note_off_c, 0, 88, 35
1, 173944, Control_c, 0, 64, 100
1, 173945, Note_on_c, 0, 77, 98
1, 173950, Note_on_c, 0, 89, 98
1, 173957, Note_on_c, 0, 53, 98
1, 173959, Control_c, 0, 64, 99
1, 173966, Note_on_c, 0, 41, 85
1, 173974, Control_c, 0, 64, 96
1, 173982, Note_off_c, 0, 77, 65
1, 173984, Note_off_c, 0, 89, 65
1, 173988, Control_c, 0, 64, 91
1, 173994, Note_off_c, 0, 41, 68
1, 173996, Note_off_c, 0, 53, 67
1, 174003, Control_c, 0, 64, 84
1, 174018, Control_c, 0, 64, 70
1, 174033, Control_c, 0, 64, 0
1, 174085, Note_on_c, 0, 78, 100
1, 174094, Note_on_c, 0, 51, 98
1, 174099, Note_on_c, 0, 39, 87
1, 174151, Control_c, 0, 64, 64
1, 174166, Control_c, 0, 64, 69
1, 174181, Control_c, 0, 64, 72
1, 174196, Control_c, 0, 64, 75
1, 174198, Note_on_c, 0, 90, 77
1, 174203, Note_on_c, 0, 87, 74
1, 174210, Control_c, 0, 64, 79
1, 174225, Control_c, 0, 64, 81
1, 174227, Note_off_c, 0, 78, 56
1, 174240, Control_c, 0, 64, 83
1, 174255, Note_off_c, 0, 90, 65
1, 174255, Control_c, 0, 64, 84
1, 174263, Note_off_c, 0, 87, 62
1, 174285, Control_c, 0, 64, 84
1, 174300, Control_c, 0, 64, 85
1, 174313, Note_on_c, 0, 77, 89
1, 174314, Control_c, 0, 64, 86
1, 174329, Control_c, 0, 64, 86
1, 174344, Control_c, 0, 64, 87
1, 174408, Note_on_c, 0, 41, 78
1, 174410, Control_c, 0, 64, 88
1, 174417, Note_on_c, 0, 85, 74
1, 174419, Note_on_c, 0, 89, 68
1, 174425, Control_c, 0, 64, 88
1, 174434, Note_off_c, 0, 51, 59
1, 174440, Control_c, 0, 64, 89
1, 174445, Note_off_c, 0, 77, 61
1, 174452, Note_off_c, 0, 89, 60
1, 174481, Note_off_c, 0, 85, 63
1, 174485, Note_off_c, 0, 41, 65
1, 174485, Control_c, 0, 64, 88
1, 174500, Control_c, 0, 64, 85
1, 174514, Control_c, 0, 64, 75
1, 174529, Control_c, 0, 64, 23
1, 174537, Note_on_c, 0, 42, 88
1, 174540, Note_on_c, 0, 75, 90
1, 174544, Control_c, 0, 64, 0
1, 174588, Control_c, 0, 64, 53
1, 174603, Control_c, 0, 64, 70
1, 174618, Control_c, 0, 64, 78
1, 174633, Control_c, 0, 64, 83
1, 174637, Note_on_c, 0, 84, 69
1, 174642, Note_on_c, 0, 87, 77
1, 174647, Control_c, 0, 64, 85
1, 174662, Control_c, 0, 64, 87
1, 174670, Note_off_c, 0, 75, 63
1, 174677, Control_c, 0, 64, 89
1, 174692, Control_c, 0, 64, 92
1, 174696, Note_off_c, 0, 84, 65
1, 174699, Note_off_c, 0, 87, 63
1, 174708, Control_c, 0, 64, 93
1, 174723, Control_c, 0, 64, 94
1, 174737, Control_c, 0, 64, 95
1, 174750, Note_on_c, 0, 73, 93
1, 174752, Control_c, 0, 64, 97
1, 174767, Control_c, 0, 64, 97
1, 174782, Control_c, 0, 64, 98
1, 174803, Note_off_c, 0, 42, 59
1, 174838, Note_on_c, 0, 82, 71
1, 174843, Note_on_c, 0, 43, 76
1, 174843, Note_on_c, 0, 85, 74
1, 174861, Note_off_c, 0, 73, 60
1, 174869, Note_off_c, 0, 43, 63
1, 174885, Control_c, 0, 64, 97
1, 174887, Note_off_c, 0, 85, 64
1, 174893, Note_off_c, 0, 82, 63
1, 174900, Control_c, 0, 64, 95
1, 174915, Control_c, 0, 64, 93
1, 174929, Control_c, 0, 64, 89
1, 174944, Control_c, 0, 64, 85
1, 174950, Note_on_c, 0, 44, 81
1, 174953, Note_on_c, 0, 71, 85
1, 174953, Note_on_c, 0, 80, 83
1, 174954, Note_on_c, 0, 83, 75
1, 174959, Control_c, 0, 64, 80
1, 174970, Note_off_c, 0, 83, 67
1, 174971, Note_off_c, 0, 71, 71
1, 174974, Control_c, 0, 64, 72
1, 174979, Note_off_c, 0, 44, 68
1, 174979, Note_off_c, 0, 80, 64
1, 174989, Control_c, 0, 64, 64
1, 175003, Control_c, 0, 64, 20
1, 175018, Control_c, 0, 64, 0
1, 175053, Note_on_c, 0, 70, 93
1, 175055, Note_on_c, 0, 46, 86
1, 175059, Note_on_c, 0, 82, 76
1, 175063, Note_on_c, 0, 78, 73
1, 175081, Note_off_c, 0, 46, 66
1, 175081, Note_off_c, 0, 70, 61
1, 175086, Note_off_c, 0, 78, 69
1, 175088, Note_off_c, 0, 82, 59
1, 175183, Note_on_c, 0, 68, 94
1, 175188, Note_on_c, 0, 47, 89
1, 175263, Control_c, 0, 64, 58
1, 175278, Control_c, 0, 64, 68
1, 175288, Note_on_c, 0, 77, 65
1, 175291, Note_on_c, 0, 80, 72
1, 175293, Control_c, 0, 64, 77
1, 175307, Control_c, 0, 64, 88
1, 175322, Control_c, 0, 64, 96
1, 175325, Note_off_c, 0, 68, 62
1, 175337, Control_c, 0, 64, 100
1, 175349, Note_off_c, 0, 77, 61
1, 175367, Note_off_c, 0, 80, 64
1, 175367, Control_c, 0, 64, 96
1, 175382, Control_c, 0, 64, 81
1, 175397, Control_c, 0, 64, 60
1, 175403, Note_on_c, 0, 46, 75
1, 175407, Note_on_c, 0, 70, 90
1, 175412, Control_c, 0, 64, 0
1, 175418, Note_off_c, 0, 47, 56
1, 175442, Control_c, 0, 64, 63
1, 175456, Control_c, 0, 64, 77
1, 175471, Control_c, 0, 64, 90
1, 175486, Control_c, 0, 64, 98
1, 175499, Note_on_c, 0, 78, 76
1, 175501, Control_c, 0, 64, 99
1, 175501, Note_on_c, 0, 82, 77
1, 175516, Control_c, 0, 64, 100
1, 175517, Note_off_c, 0, 70, 62
1, 175518, Note_off_c, 0, 46, 62
1, 175531, Control_c, 0, 64, 102
1, 175546, Control_c, 0, 64, 103
1, 175548, Note_off_c, 0, 78, 62
1, 175553, Note_off_c, 0, 82, 65
1, 175555, Note_off_c, 0, 39, 60
1, 175561, Control_c, 0, 64, 104
1, 175591, Control_c, 0, 64, 104
1, 175619, Note_on_c, 0, 42, 82
1, 175620, Control_c, 0, 64, 105
1, 175623, Note_on_c, 0, 87, 88
1, 175624, Note_on_c, 0, 75, 96
1, 175632, Note_on_c, 0, 84, 79
1, 175641, Note_off_c, 0, 75, 73
1, 175641, Note_off_c, 0, 87, 70
1, 175654, Note_off_c, 0, 84, 70
1, 175655, Note_off_c, 0, 42, 64
1, 175720, Note_on_c, 0, 77, 98
1, 175726, Note_on_c, 0, 89, 86
1, 175728, Note_on_c, 0, 41, 82
1, 175737, Note_on_c, 0, 86, 71
1, 175739, Control_c, 0, 64, 104
1, 175752, Note_off_c, 0, 86, 68
1, 175753, Control_c, 0, 64, 104
1, 175760, Note_off_c, 0, 77, 63
1, 175763, Note_off_c, 0, 41, 68
1, 175766, Note_off_c, 0, 89, 65
1, 175768, Control_c, 0, 64, 103
1, 175783, Control_c, 0, 64, 100
1, 175798, Control_c, 0, 64, 95
1, 175813, Control_c, 0, 64, 84
1, 175827, Control_c, 0, 64, 66
1, 175842, Control_c, 0, 64, 0
1, 175850, Note_on_c, 0, 78, 97
1, 175858, Note_on_c, 0, 39, 88
1, 175924, Control_c, 0, 64, 37
1, 175939, Control_c, 0, 64, 64
1, 175954, Control_c, 0, 64, 70
1, 175957, Note_on_c, 0, 87, 62
1, 175967, Note_on_c, 0, 90, 78
1, 175968, Control_c, 0, 64, 76
1, 175983, Control_c, 0, 64, 81
1, 175990, Note_off_c, 0, 78, 62
1, 175998, Control_c, 0, 64, 84
1, 176013, Control_c, 0, 64, 85
1, 176023, Note_off_c, 0, 90, 64
1, 176028, Control_c, 0, 64, 85
1, 176031, Note_off_c, 0, 87, 61
1, 176042, Control_c, 0, 64, 86
1, 176057, Control_c, 0, 64, 87
1, 176072, Control_c, 0, 64, 88
1, 176080, Note_on_c, 0, 77, 90
1, 176115, Control_c, 0, 64, 88
1, 176158, Note_on_c, 0, 41, 72
1, 176173, Note_on_c, 0, 89, 72
1, 176178, Note_on_c, 0, 85, 75
1, 176195, Note_off_c, 0, 77, 62
1, 176205, Control_c, 0, 64, 88
1, 176208, Note_off_c, 0, 89, 60
1, 176220, Control_c, 0, 64, 84
1, 176226, Note_off_c, 0, 41, 65
1, 176229, Note_off_c, 0, 85, 64
1, 176234, Control_c, 0, 64, 74
1, 176249, Control_c, 0, 64, 50
1, 176259, Note_off_c, 0, 39, 0
1, 176264, Control_c, 0, 64, 0
1, 176288, Note_on_c, 0, 42, 76
1, 176296, Note_on_c, 0, 75, 92
1, 176296, Poly_aftertouch_c, 0, 39, 127
1, 176309, Control_c, 0, 64, 49
1, 176315, Note_on_c, 0, 39, 3
1, 176324, Control_c, 0, 64, 67
1, 176339, Control_c, 0, 64, 72
1, 176354, Control_c, 0, 64, 77
1, 176369, Control_c, 0, 64, 80
1, 176383, Control_c, 0, 64, 83
1, 176397, Note_on_c, 0, 84, 68
1, 176398, Control_c, 0, 64, 85
1, 176404, Note_on_c, 0, 87, 73
1, 176413, Control_c, 0, 64, 87
1, 176428, Control_c, 0, 64, 88
1, 176430, Note_off_c, 0, 75, 62
1, 176443, Control_c, 0, 64, 89
1, 176455, Note_off_c, 0, 84, 63
1, 176461, Note_off_c, 0, 87, 62
1, 176472, Control_c, 0, 64, 89
1, 176487, Control_c, 0, 64, 90
1, 176502, Control_c, 0, 64, 91
1, 176512, Note_on_c, 0, 73, 88
1, 176574, Note_off_c, 0, 42, 55
1, 176591, Note_on_c, 0, 43, 73
1, 176611, Note_on_c, 0, 85, 64
1, 176613, Note_on_c, 0, 82, 69
1, 176620, Control_c, 0, 64, 89
1, 176634, Note_off_c, 0, 73, 61
1, 176637, Note_off_c, 0, 43, 63
1, 176643, Control_c, 0, 64, 86
1, 176658, Control_c, 0, 64, 79
1, 176660, Note_off_c, 0, 85, 61
1, 176665, Note_off_c, 0, 82, 60
1, 176672, Control_c, 0, 64, 70
1, 176687, Control_c, 0, 64, 50
1, 176702, Control_c, 0, 64, 0
1, 176736, Note_on_c, 0, 44, 66
1, 176741, Note_on_c, 0, 83, 72
1, 176742, Note_on_c, 0, 71, 75
1, 176744, Note_on_c, 0, 80, 73
1, 176764, Note_off_c, 0, 71, 68
1, 176764, Note_off_c, 0, 83, 65
1, 176769, Note_off_c, 0, 44, 62
1, 176779, Note_off_c, 0, 80, 61
1, 176855, Note_on_c, 0, 46, 67
1, 176855, Note_on_c, 0, 70, 78
1, 176856, Note_on_c, 0, 82, 72
1, 176862, Note_on_c, 0, 78, 66
1, 176876, Note_off_c, 0, 70, 69
1, 176882, Note_off_c, 0, 46, 64
1, 176882, Note_off_c, 0, 78, 65
1, 176885, Note_off_c, 0, 82, 58
1, 176998, Note_on_c, 0, 68, 75
1, 177015, Note_on_c, 0, 47, 58
1, 177132, Control_c, 0, 64, 57
1, 177136, Note_on_c, 0, 80, 55
1, 177147, Control_c, 0, 64, 64
1, 177151, Note_on_c, 0, 77, 47
1, 177162, Control_c, 0, 64, 68
1, 177169, Note_off_c, 0, 68, 59
1, 177177, Control_c, 0, 64, 73
1, 177192, Control_c, 0, 64, 77
1, 177194, Note_off_c, 0, 77, 51
1, 177206, Control_c, 0, 64, 79
1, 177221, Control_c, 0, 64, 81
1, 177230, Note_off_c, 0, 80, 56
1, 177236, Control_c, 0, 64, 82
1, 177251, Control_c, 0, 64, 82
1, 177266, Control_c, 0, 64, 83
1, 177293, Note_off_c, 0, 47, 56
1, 177311, Control_c, 0, 64, 82
1, 177316, Note_on_c, 0, 46, 56
1, 177320, Note_on_c, 0, 70, 64
1, 177325, Control_c, 0, 64, 79
1, 177340, Control_c, 0, 64, 69
1, 177355, Control_c, 0, 64, 0
1, 177421, Control_c, 0, 64, 49
1, 177425, Note_off_c, 0, 39, 39
1, 177431, Note_off_c, 0, 46, 56
1, 177436, Control_c, 0, 64, 65
1, 177451, Control_c, 0, 64, 70
1, 177457, Note_on_c, 0, 82, 57
1, 177466, Control_c, 0, 64, 75
1, 177467, Note_on_c, 0, 78, 54
1, 177480, Control_c, 0, 64, 79
1, 177495, Control_c, 0, 64, 81
1, 177510, Control_c, 0, 64, 82
1, 177525, Control_c, 0, 64, 83
1, 177540, Control_c, 0, 64, 84
1, 177542, Note_off_c, 0, 82, 56
1, 177544, Note_off_c, 0, 70, 43
1, 177552, Note_off_c, 0, 78, 48
1, 177555, Control_c, 0, 64, 85
1, 177585, Control_c, 0, 64, 85
1, 177591, Note_on_c, 0, 39, 49
1, 177624, Note_off_c, 0, 39, 59
1, 177644, Control_c, 0, 64, 85
1, 177658, Control_c, 0, 64, 83
1, 177673, Control_c, 0, 64, 79
1, 177688, Control_c, 0, 64, 72
1, 177703, Control_c, 0, 64, 61
1, 177708, Note_on_c, 0, 41, 55
1, 177718, Control_c, 0, 64, 0
1, 177740, Note_off_c, 0, 41, 65
1, 177846, Note_on_c, 0, 42, 53
1, 178098, Note_on_c, 0, 57, 55
1, 178213, Note_on_c, 0, 41, 61
1, 178215, Note_off_c, 0, 42, 55
1, 178349, Note_on_c, 0, 39, 66
1, 178361, Note_off_c, 0, 41, 61
1, 178476, Note_off_c, 0, 57, 61
1, 178578, Note_on_c, 0, 60, 63
1, 178591, Note_on_c, 0, 57, 61
1, 178679, Note_off_c, 0, 39, 61
1, 178682, Note_on_c, 0, 41, 69
1, 178788, Note_off_c, 0, 41, 65
1, 178792, Note_off_c, 0, 60, 59
1, 178803, Note_on_c, 0, 42, 69
1, 178864, Note_off_c, 0, 57, 56
1, 178904, Note_on_c, 0, 41, 71
1, 178905, Note_off_c, 0, 42, 61
1, 179015, Note_off_c, 0, 41, 64
1, 179020, Note_on_c, 0, 39, 70
1, 179028, Note_on_c, 0, 66, 66
1, 179035, Note_on_c, 0, 57, 51
1, 179042, Note_on_c, 0, 60, 47
1, 179126, Note_off_c, 0, 39, 56
1, 179133, Note_on_c, 0, 37, 73
1, 179200, Note_off_c, 0, 37, 64
1, 179259, Note_on_c, 0, 36, 73
1, 179341, Note_off_c, 0, 36, 62
1, 179475, Note_on_c, 0, 39, 56
1, 179476, Note_on_c, 0, 65, 58
1, 179528, Note_off_c, 0, 39, 61
1, 179534, Note_off_c, 0, 66, 53
1, 179543, Note_off_c, 0, 57, 18
1, 179570, Note_off_c, 0, 60, 55
1, 179576, Note_on_c, 0, 41, 62
1, 179647, Note_off_c, 0, 41, 61
1, 179697, Note_on_c, 0, 63, 65
1, 179708, Note_on_c, 0, 57, 48
1, 179713, Note_on_c, 0, 60, 53
1, 179716, Note_on_c, 0, 42, 64
1, 179734, Note_off_c, 0, 65, 30
1, 179827, Note_off_c, 0, 60, 60
1, 179831, Note_off_c, 0, 57, 56
1, 179868, Note_off_c, 0, 63, 58
1, 179933, Note_on_c, 0, 69, 69
1, 179946, Note_on_c, 0, 57, 62
1, 180029, Note_on_c, 0, 41, 76
1, 180041, Note_off_c, 0, 42, 61
1, 180139, Note_on_c, 0, 39, 79
1, 180149, Note_off_c, 0, 41, 64
1, 180157, Control_c, 0, 64, 13
1, 180172, Control_c, 0, 64, 48
1, 180187, Control_c, 0, 64, 54
1, 180202, Control_c, 0, 64, 56
1, 180217, Control_c, 0, 64, 59
1, 180232, Control_c, 0, 64, 62
1, 180247, Control_c, 0, 64, 63
1, 180253, Note_off_c, 0, 57, 60
1, 180261, Control_c, 0, 64, 64
1, 180264, Note_off_c, 0, 69, 63
1, 180291, Control_c, 0, 64, 64
1, 180321, Control_c, 0, 64, 64
1, 180351, Control_c, 0, 64, 62
1, 180366, Control_c, 0, 64, 50
1, 180381, Note_on_c, 0, 72, 75
1, 180386, Note_on_c, 0, 60, 70
1, 180388, Note_on_c, 0, 69, 72
1, 180388, Control_c, 0, 64, 0
1, 180473, Note_off_c, 0, 39, 62
1, 180475, Note_on_c, 0, 41, 79
1, 180491, Control_c, 0, 64, 42
1, 180506, Control_c, 0, 64, 63
1, 180521, Control_c, 0, 64, 66
1, 180536, Control_c, 0, 64, 69
1, 180550, Note_off_c, 0, 60, 61
1, 180551, Control_c, 0, 64, 71
1, 180566, Control_c, 0, 64, 73
1, 180578, Note_off_c, 0, 69, 64
1, 180581, Control_c, 0, 64, 76
1, 180584, Note_off_c, 0, 72, 55
1, 180585, Note_off_c, 0, 41, 64
1, 180590, Note_on_c, 0, 42, 81
1, 180596, Control_c, 0, 64, 77
1, 180610, Control_c, 0, 64, 78
1, 180654, Control_c, 0, 64, 79
1, 180682, Note_on_c, 0, 41, 77
1, 180685, Note_off_c, 0, 42, 60
1, 180728, Control_c, 0, 64, 78
1, 180743, Control_c, 0, 64, 76
1, 180757, Control_c, 0, 64, 68
1, 180772, Control_c, 0, 64, 0
1, 180786, Note_off_c, 0, 41, 64
1, 180791, Note_on_c, 0, 39, 76
1, 180798, Note_on_c, 0, 78, 83
1, 180806, Note_on_c, 0, 66, 71
1, 180810, Note_on_c, 0, 69, 59
1, 180810, Note_on_c, 0, 72, 55
1, 180861, Control_c, 0, 64, 50
1, 180876, Control_c, 0, 64, 64
1, 180891, Control_c, 0, 64, 68
1, 180895, Note_off_c, 0, 39, 51
1, 180900, Note_on_c, 0, 37, 77
1, 180906, Control_c, 0, 64, 72
1, 180920, Control_c, 0, 64, 76
1, 180935, Control_c, 0, 64, 79
1, 180950, Control_c, 0, 64, 80
1, 180957, Note_off_c, 0, 78, 63
1, 180962, Note_off_c, 0, 37, 64
1, 180962, Note_off_c, 0, 66, 64
1, 180965, Control_c, 0, 64, 80
1, 181024, Control_c, 0, 64, 80
1, 181031, Note_on_c, 0, 36, 80
1, 181035, Note_on_c, 0, 77, 79
1, 181039, Control_c, 0, 64, 74
1, 181043, Note_off_c, 0, 69, 0
1, 181043, Note_on_c, 0, 69, 21
1, 181046, Note_on_c, 0, 65, 74
1, 181054, Control_c, 0, 64, 61
1, 181069, Control_c, 0, 64, 0
1, 181097, Note_off_c, 0, 36, 64
1, 181136, Control_c, 0, 64, 56
1, 181151, Control_c, 0, 64, 67
1, 181166, Control_c, 0, 64, 73
1, 181180, Control_c, 0, 64, 78
1, 181195, Control_c, 0, 64, 81
1, 181204, Note_off_c, 0, 72, 0
1, 181210, Control_c, 0, 64, 83
1, 181225, Control_c, 0, 64, 84
1, 181240, Control_c, 0, 64, 85
1, 181242, Poly_aftertouch_c, 0, 72, 127
1, 181254, Note_on_c, 0, 39, 72
1, 181254, Control_c, 0, 64, 86
1, 181269, Control_c, 0, 64, 87
1, 181284, Control_c, 0, 64, 88
1, 181299, Control_c, 0, 64, 88
1, 181302, Note_off_c, 0, 39, 61
1, 181348, Note_on_c, 0, 41, 86
1, 181389, Note_off_c, 0, 41, 66
1, 181403, Control_c, 0, 64, 88
1, 181409, Note_off_c, 0, 77, 53
1, 181418, Control_c, 0, 64, 86
1, 181433, Control_c, 0, 64, 82
1, 181447, Control_c, 0, 64, 77
1, 181461, Note_off_c, 0, 65, 56
1, 181462, Control_c, 0, 64, 70
1, 181466, Poly_aftertouch_c, 0, 72, 0
1, 181467, Note_on_c, 0, 42, 88
1, 181477, Note_off_c, 0, 69, 49
1, 181477, Control_c, 0, 64, 50
1, 181492, Control_c, 0, 64, 0
1, 181699, Note_on_c, 0, 69, 77
1, 181706, Note_on_c, 0, 57, 73
1, 181782, Note_on_c, 0, 41, 82
1, 181785, Note_off_c, 0, 42, 63
1, 181903, Note_on_c, 0, 39, 84
1, 181916, Note_off_c, 0, 41, 66
1, 181974, Control_c, 0, 64, 53
1, 181989, Control_c, 0, 64, 63
1, 182004, Note_off_c, 0, 57, 60
1, 182004, Control_c, 0, 64, 66
1, 182018, Control_c, 0, 64, 70
1, 182020, Note_off_c, 0, 69, 63
1, 182033, Control_c, 0, 64, 76
1, 182048, Control_c, 0, 64, 82
1, 182063, Control_c, 0, 64, 86
1, 182077, Control_c, 0, 64, 86
1, 182092, Control_c, 0, 64, 87
1, 182125, Note_on_c, 0, 72, 85
1, 182128, Note_on_c, 0, 60, 84
1, 182130, Note_on_c, 0, 69, 79
1, 182137, Control_c, 0, 64, 86
1, 182152, Control_c, 0, 64, 82
1, 182166, Control_c, 0, 64, 71
1, 182181, Control_c, 0, 64, 0
1, 182217, Note_off_c, 0, 39, 61
1, 182221, Note_on_c, 0, 41, 86
1, 182226, Control_c, 0, 64, 33
1, 182241, Control_c, 0, 64, 66
1, 182255, Control_c, 0, 64, 77
1, 182270, Control_c, 0, 64, 84
1, 182271, Note_off_c, 0, 60, 58
1, 182285, Control_c, 0, 64, 87
1, 182300, Control_c, 0, 64, 88
1, 182309, Note_off_c, 0, 69, 64
1, 182314, Note_off_c, 0, 72, 64
1, 182315, Control_c, 0, 64, 91
1, 182324, Note_off_c, 0, 41, 65
1, 182329, Control_c, 0, 64, 94
1, 182333, Note_on_c, 0, 42, 85
1, 182344, Control_c, 0, 64, 97
1, 182359, Control_c, 0, 64, 100
1, 182374, Control_c, 0, 64, 100
1, 182389, Control_c, 0, 64, 101
1, 182417, Note_on_c, 0, 41, 85
1, 182432, Note_off_c, 0, 42, 51
1, 182462, Control_c, 0, 64, 100
1, 182477, Control_c, 0, 64, 95
1, 182492, Control_c, 0, 64, 83
1, 182507, Control_c, 0, 64, 66
1, 182508, Note_off_c, 0, 41, 61
1, 182521, Control_c, 0, 64, 0
1, 182527, Note_on_c, 0, 39, 82
1, 182529, Note_on_c, 0, 82, 91
1, 182531, Note_on_c, 0, 78, 64
1, 182535, Note_on_c, 0, 70, 82
1, 182537, Note_on_c, 0, 75, 80
1, 182596, Control_c, 0, 64, 24
1, 182611, Control_c, 0, 64, 64
1, 182633, Note_off_c, 0, 39, 56
1, 182633, Control_c, 0, 64, 72
1, 182648, Note_on_c, 0, 37, 83
1, 182648, Control_c, 0, 64, 77
1, 182662, Control_c, 0, 64, 79
1, 182677, Control_c, 0, 64, 78
1, 182692, Control_c, 0, 64, 71
1, 182706, Note_off_c, 0, 37, 65
1, 182708, Control_c, 0, 64, 34
1, 182723, Control_c, 0, 64, 0
1, 182753, Control_c, 0, 64, 29
1, 182763, Note_on_c, 0, 36, 93
1, 182767, Control_c, 0, 64, 63
1, 182782, Control_c, 0, 64, 68
1, 182797, Control_c, 0, 64, 71
1, 182812, Control_c, 0, 64, 72
1, 182824, Note_off_c, 0, 36, 66
1, 182826, Control_c, 0, 64, 73
1, 182841, Control_c, 0, 64, 73
1, 182857, Control_c, 0, 64, 75
1, 182872, Control_c, 0, 64, 76
1, 182901, Note_off_c, 0, 82, 62
1, 182905, Note_off_c, 0, 70, 61
1, 182951, Note_off_c, 0, 75, 61
1, 182971, Note_on_c, 0, 39, 86
1, 182975, Control_c, 0, 64, 76
1, 182983, Note_on_c, 0, 81, 83
1, 182986, Note_off_c, 0, 78, 53
1, 182990, Control_c, 0, 64, 75
1, 182992, Note_on_c, 0, 69, 85
1, 183005, Control_c, 0, 64, 73
1, 183020, Control_c, 0, 64, 70
1, 183021, Note_off_c, 0, 39, 63
1, 183034, Control_c, 0, 64, 66
1, 183049, Control_c, 0, 64, 58
1, 183064, Control_c, 0, 64, 42
1, 183075, Note_on_c, 0, 41, 95
1, 183079, Control_c, 0, 64, 29
1, 183094, Control_c, 0, 64, 27
1, 183108, Control_c, 0, 64, 13
1, 183118, Note_off_c, 0, 41, 67
1, 183123, Control_c, 0, 64, 0
1, 183190, Note_on_c, 0, 42, 99
1, 183261, Note_off_c, 0, 69, 53
1, 183269, Note_off_c, 0, 81, 43
1, 183413, Note_on_c, 0, 81, 88
1, 183418, Note_on_c, 0, 69, 83
1, 183501, Note_on_c, 0, 41, 85
1, 183508, Note_off_c, 0, 42, 62
1, 183614, Note_on_c, 0, 39, 88
1, 183635, Note_off_c, 0, 41, 65
1, 183706, Note_off_c, 0, 69, 62
1, 183739, Note_off_c, 0, 81, 61
1, 183841, Note_on_c, 0, 84, 92
1, 183842, Note_on_c, 0, 72, 93
1, 183845, Note_on_c, 0, 81, 87
1, 183928, Note_off_c, 0, 39, 61
1, 183931, Control_c, 0, 64, 62
1, 183934, Note_on_c, 0, 41, 89
1, 183946, Control_c, 0, 64, 71
1, 183961, Control_c, 0, 64, 75
1, 183976, Control_c, 0, 64, 71
1, 183991, Control_c, 0, 64, 44
1, 184006, Control_c, 0, 64, 0
1, 184018, Note_off_c, 0, 72, 61
1, 184030, Note_off_c, 0, 41, 66
1, 184047, Note_on_c, 0, 42, 90
1, 184050, Control_c, 0, 64, 61
1, 184054, Note_off_c, 0, 81, 63
1, 184057, Note_off_c, 0, 84, 63
1, 184065, Control_c, 0, 64, 72
1, 184080, Control_c, 0, 64, 79
1, 184094, Control_c, 0, 64, 83
1, 184109, Control_c, 0, 64, 85
1, 184131, Control_c, 0, 64, 86
1, 184139, Note_on_c, 0, 41, 92
1, 184146, Control_c, 0, 64, 88
1, 184161, Control_c, 0, 64, 91
1, 184173, Note_off_c, 0, 42, 48
1, 184176, Control_c, 0, 64, 93
1, 184191, Control_c, 0, 64, 95
1, 184205, Control_c, 0, 64, 95
1, 184220, Control_c, 0, 64, 96
1, 184229, Note_off_c, 0, 41, 60
1, 184235, Control_c, 0, 64, 98
1, 184249, Note_on_c, 0, 39, 84
1, 184250, Control_c, 0, 64, 100
1, 184252, Note_on_c, 0, 82, 98
1, 184258, Note_on_c, 0, 94, 91
1, 184259, Note_on_c, 0, 87, 88
1, 184262, Note_on_c, 0, 90, 89
1, 184265, Control_c, 0, 64, 102
1, 184280, Control_c, 0, 64, 104
1, 184295, Control_c, 0, 64, 106
1, 184310, Control_c, 0, 64, 110
1, 184325, Control_c, 0, 64, 115
1, 184340, Control_c, 0, 64, 126
1, 184352, Note_on_c, 0, 37, 80
1, 184354, Control_c, 0, 64, 127
1, 184359, Note_off_c, 0, 39, 57
1, 184367, Note_off_c, 0, 82, 59
1, 184383, Control_c, 0, 64, 125
1, 184391, Note_off_c, 0, 94, 64
1, 184397, Control_c, 0, 64, 101
1, 184412, Control_c, 0, 64, 78
1, 184414, Note_off_c, 0, 37, 65
1, 184421, Note_off_c, 0, 87, 58
1, 184427, Control_c, 0, 64, 0
1, 184441, Note_off_c, 0, 90, 57
1, 184456, Control_c, 0, 64, 62
1, 184471, Note_on_c, 0, 81, 101
1, 184471, Note_on_c, 0, 93, 95
1, 184471, Control_c, 0, 64, 78
1, 184477, Note_on_c, 0, 38, 87
1, 184486, Control_c, 0, 64, 98
1, 184490, Note_off_c, 0, 93, 66
1, 184501, Control_c, 0, 64, 117
1, 184506, Note_off_c, 0, 38, 68
1, 184510, Note_off_c, 0, 81, 65
1, 184516, Control_c, 0, 64, 118
1, 184545, Control_c, 0, 64, 120
1, 184560, Control_c, 0, 64, 122
1, 184575, Control_c, 0, 64, 123
1, 184594, Note_on_c, 0, 65, 100
1, 184595, Note_on_c, 0, 53, 90
1, 184596, Note_on_c, 0, 77, 99
1, 184609, Note_on_c, 0, 41, 80
1, 184620, Control_c, 0, 64, 124
1, 184626, Note_on_c, 0, 76, 48
1, 184627, Note_off_c, 0, 76, 127
1, 184629, Note_off_c, 0, 65, 67
1, 184632, Note_off_c, 0, 77, 66
1, 184634, Note_off_c, 0, 53, 66
1, 184636, Note_off_c, 0, 41, 67
1, 184679, Control_c, 0, 64, 123
1, 184698, Note_on_c, 0, 67, 101
1, 184700, Note_on_c, 0, 79, 102
1, 184712, Note_on_c, 0, 43, 83
1, 184712, Note_on_c, 0, 55, 77
1, 184714, Note_on_c, 0, 57, 81
1, 184731, Note_on_c, 0, 78, 51
1, 184735, Note_off_c, 0, 57, 68
1, 184736, Note_off_c, 0, 67, 67
1, 184738, Control_c, 0, 64, 120
1, 184741, Note_off_c, 0, 79, 65
1, 184745, Note_off_c, 0, 43, 64
1, 184748, Note_off_c, 0, 55, 64
1, 184748, Note_on_c, 0, 45, 36
1, 184753, Control_c, 0, 64, 114
1, 184754, Note_off_c, 0, 78, 59
1, 184768, Control_c, 0, 64, 107
1, 184781, Note_off_c, 0, 45, 55
1, 184783, Control_c, 0, 64, 100
1, 184797, Control_c, 0, 64, 90
1, 184806, Note_on_c, 0, 69, 103
1, 184807, Note_on_c, 0, 57, 85
1, 184807, Note_on_c, 0, 81, 102
1, 184812, Control_c, 0, 64, 77
1, 184817, Note_on_c, 0, 45, 70
1, 184827, Control_c, 0, 64, 56
1, 184837, Note_on_c, 0, 80, 57
1, 184841, Control_c, 0, 64, 0
1, 184843, Note_off_c, 0, 69, 68
1, 184849, Note_off_c, 0, 81, 65
1, 184852, Note_off_c, 0, 45, 64
1, 184854, Note_off_c, 0, 80, 41
1, 184855, Note_off_c, 0, 57, 63
1, 184945, Note_on_c, 0, 70, 104
1, 184947, Note_on_c, 0, 58, 99
1, 184947, Note_on_c, 0, 82, 103
1, 184952, Note_on_c, 0, 46, 96
1, 184968, Control_c, 0, 64, 61
1, 184980, Note_off_c, 0, 58, 69
1, 184983, Control_c, 0, 64, 76
1, 184997, Control_c, 0, 64, 85
1, 185001, Note_off_c, 0, 46, 64
1, 185012, Control_c, 0, 64, 89
1, 185027, Control_c, 0, 64, 92
1, 185042, Control_c, 0, 64, 96
1, 185056, Control_c, 0, 64, 101
1, 185071, Control_c, 0, 64, 106
1, 185086, Control_c, 0, 64, 110
1, 185102, Control_c, 0, 64, 115
1, 185117, Control_c, 0, 64, 122
1, 185132, Control_c, 0, 64, 127
1, 185155, Note_off_c, 0, 82, 56
1, 185186, Note_on_c, 0, 38, 101
1, 185192, Note_on_c, 0, 34, 91
1, 185195, Note_on_c, 0, 26, 93
1, 185196, Note_on_c, 0, 77, 84
1, 185228, Note_off_c, 0, 70, 58
1, 185241, Note_off_c, 0, 77, 64
1, 185250, Control_c, 0, 64, 113
1, 185264, Control_c, 0, 64, 101
1, 185272, Note_off_c, 0, 34, 58
1, 185273, Note_off_c, 0, 38, 61
1, 185274, Note_off_c, 0, 26, 58
1, 185279, Control_c, 0, 64, 88
1, 185294, Control_c, 0, 64, 72
1, 185299, Poly_aftertouch_c, 0, 27, 0
1, 185300, Note_on_c, 0, 81, 97
1, 185309, Control_c, 0, 64, 0
1, 185341, Note_off_c, 0, 81, 64
1, 185425, Note_on_c, 0, 67, 98
1, 185425, Note_on_c, 0, 39, 97
1, 185426, Note_on_c, 0, 79, 94
1, 185428, Note_on_c, 0, 34, 88
1, 185430, Note_on_c, 0, 75, 95
1, 185433, Note_on_c, 0, 27, 82
1, 185457, Control_c, 0, 64, 71
1, 185472, Control_c, 0, 64, 82
1, 185481, Note_off_c, 0, 39, 63
1, 185484, Note_off_c, 0, 34, 65
1, 185486, Note_off_c, 0, 27, 66
1, 185487, Control_c, 0, 64, 90
1, 185502, Control_c, 0, 64, 92
1, 185517, Control_c, 0, 64, 94
1, 185532, Control_c, 0, 64, 97
1, 185539, Note_off_c, 0, 79, 61
1, 185546, Control_c, 0, 64, 101
1, 185561, Control_c, 0, 64, 105
1, 185576, Control_c, 0, 64, 108
1, 185585, Note_off_c, 0, 67, 48
1, 185591, Control_c, 0, 64, 112
1, 185606, Control_c, 0, 64, 114
1, 185627, Control_c, 0, 64, 115
1, 185642, Control_c, 0, 64, 117
1, 185652, Note_on_c, 0, 41, 101
1, 185657, Control_c, 0, 64, 120
1, 185660, Note_on_c, 0, 29, 93
1, 185672, Control_c, 0, 64, 122
1, 185687, Control_c, 0, 64, 123
1, 185702, Note_on_c, 0, 30, 23
1, 185702, Control_c, 0, 64, 124
1, 185708, Note_off_c, 0, 75, 62
1, 185717, Control_c, 0, 64, 125
1, 185732, Control_c, 0, 64, 125
1, 185732, Note_off_c, 0, 29, 61
1, 185736, Note_off_c, 0, 41, 61
1, 185745, Note_on_c, 0, 69, 93
1, 185745, Note_off_c, 0, 30, 42
1, 185746, Note_on_c, 0, 81, 95
1, 185781, Note_off_c, 0, 69, 68
1, 185791, Control_c, 0, 64, 125
1, 185791, Note_off_c, 0, 81, 64
1, 185806, Control_c, 0, 64, 123
1, 185820, Control_c, 0, 64, 118
1, 185835, Control_c, 0, 64, 108
1, 185850, Control_c, 0, 64, 97
1, 185854, Note_on_c, 0, 70, 109
1, 185857, Note_on_c, 0, 82, 98
1, 185858, Note_on_c, 0, 43, 98
1, 185860, Note_on_c, 0, 75, 92
1, 185865, Note_on_c, 0, 31, 93
1, 185865, Control_c, 0, 64, 84
1, 185879, Control_c, 0, 64, 66
1, 185886, Note_off_c, 0, 70, 64
1, 185895, Control_c, 0, 64, 0
1, 185896, Note_off_c, 0, 75, 55
1, 185897, Note_off_c, 0, 82, 64
1, 185909, Note_off_c, 0, 31, 63
1, 185910, Note_off_c, 0, 43, 63
1, 185966, Note_on_c, 0, 69, 100
1, 185966, Note_on_c, 0, 81, 102
1, 186010, Note_off_c, 0, 69, 66
1, 186013, Note_off_c, 0, 81, 66
1, 186072, Note_on_c, 0, 67, 105
1, 186075, Note_on_c, 0, 79, 97
1, 186076, Note_on_c, 0, 45, 102
1, 186079, Note_on_c, 0, 75, 89
1, 186082, Note_on_c, 0, 33, 95
1, 186097, Note_off_c, 0, 75, 71
1, 186109, Note_off_c, 0, 33, 71
1, 186109, Note_off_c, 0, 67, 64
1, 186119, Note_off_c, 0, 45, 65
1, 186125, Note_off_c, 0, 79, 62
1, 186265, Control_c, 0, 64, 64
1, 186280, Control_c, 0, 64, 73
1, 186291, Note_on_c, 0, 34, 88
1, 186291, Note_on_c, 0, 65, 99
1, 186292, Note_on_c, 0, 46, 102
1, 186293, Note_on_c, 0, 74, 85
1, 186295, Control_c, 0, 64, 78
1, 186295, Note_on_c, 0, 77, 92
1, 186310, Control_c, 0, 64, 84
1, 186325, Control_c, 0, 64, 90
1, 186331, Note_off_c, 0, 65, 68
1, 186340, Control_c, 0, 64, 97
1, 186340, Note_off_c, 0, 46, 64
1, 186340, Note_off_c, 0, 77, 64
1, 186340, Note_off_c, 0, 74, 67
1, 186348, Note_off_c, 0, 34, 64
1, 186355, Control_c, 0, 64, 103
1, 186376, Control_c, 0, 64, 107
1, 186391, Control_c, 0, 64, 110
1, 186406, Control_c, 0, 64, 112
1, 186420, Control_c, 0, 64, 113
1, 186435, Control_c, 0, 64, 113
1, 186450, Control_c, 0, 64, 114
1, 186465, Control_c, 0, 64, 114
1, 186480, Control_c, 0, 64, 115
1, 186522, Note_on_c, 0, 62, 97
1, 186525, Control_c, 0, 64, 113
1, 186525, Note_on_c, 0, 74, 96
1, 186526, Note_on_c, 0, 47, 95
1, 186529, Note_on_c, 0, 35, 81
1, 186537, Note_on_c, 0, 43, 79
1, 186539, Control_c, 0, 64, 105
1, 186554, Control_c, 0, 64, 93
1, 186559, Note_off_c, 0, 74, 68
1, 186560, Note_off_c, 0, 62, 65
1, 186569, Control_c, 0, 64, 81
1, 186578, Note_off_c, 0, 47, 64
1, 186584, Control_c, 0, 64, 66
1, 186586, Note_off_c, 0, 35, 64
1, 186592, Note_off_c, 0, 43, 56
1, 186599, Control_c, 0, 64, 0
1, 186741, Note_on_c, 0, 63, 100
1, 186745, Note_on_c, 0, 48, 103
1, 186745, Note_on_c, 0, 43, 90
1, 186748, Note_on_c, 0, 72, 83
1, 186749, Note_on_c, 0, 36, 82
1, 186751, Note_on_c, 0, 75, 86
1, 186780, Note_off_c, 0, 63, 66
1, 186783, Note_off_c, 0, 48, 66
1, 186786, Note_off_c, 0, 72, 66
1, 186790, Note_off_c, 0, 43, 63
1, 186793, Note_off_c, 0, 75, 61
1, 186805, Note_off_c, 0, 36, 63
1, 186844, Note_on_c, 0, 65, 92
1, 186846, Note_on_c, 0, 77, 98
1, 186885, Note_off_c, 0, 65, 65
1, 186891, Note_off_c, 0, 77, 64
1, 186951, Note_on_c, 0, 67, 99
1, 186953, Note_on_c, 0, 72, 91
1, 186956, Note_on_c, 0, 79, 96
1, 186961, Note_on_c, 0, 43, 89
1, 186965, Note_on_c, 0, 45, 90
1, 186968, Note_on_c, 0, 33, 78
1, 186980, Note_off_c, 0, 72, 61
1, 186987, Note_off_c, 0, 79, 68
1, 186988, Note_off_c, 0, 45, 70
1, 186988, Note_off_c, 0, 67, 64
1, 186993, Note_off_c, 0, 33, 66
1, 186993, Note_off_c, 0, 43, 64
1, 187185, Note_on_c, 0, 62, 97
1, 187186, Note_on_c, 0, 74, 94
1, 187186, Note_on_c, 0, 46, 99
1, 187189, Note_on_c, 0, 34, 80
1, 187197, Note_on_c, 0, 43, 78
1, 187229, Control_c, 0, 64, 70
1, 187240, Note_off_c, 0, 43, 60
1, 187241, Note_off_c, 0, 46, 63
1, 187243, Control_c, 0, 64, 78
1, 187258, Control_c, 0, 64, 83
1, 187265, Note_off_c, 0, 34, 62
1, 187273, Control_c, 0, 64, 84
1, 187288, Control_c, 0, 64, 85
1, 187303, Control_c, 0, 64, 87
1, 187317, Control_c, 0, 64, 90
1, 187332, Control_c, 0, 64, 92
1, 187347, Control_c, 0, 64, 93
1, 187362, Control_c, 0, 64, 94
1, 187377, Control_c, 0, 64, 94
1, 187392, Control_c, 0, 64, 96
1, 187395, Note_off_c, 0, 62, 58
1, 187402, Note_on_c, 0, 47, 95
1, 187404, Note_off_c, 0, 74, 54
1, 187407, Note_on_c, 0, 43, 82
1, 187407, Control_c, 0, 64, 97
1, 187412, Note_on_c, 0, 35, 75
1, 187422, Control_c, 0, 64, 98
1, 187437, Control_c, 0, 64, 99
1, 187451, Control_c, 0, 64, 100
1, 187464, Note_off_c, 0, 47, 62
1, 187466, Control_c, 0, 64, 100
1, 187467, Note_off_c, 0, 35, 61
1, 187479, Note_off_c, 0, 43, 56
1, 187481, Control_c, 0, 64, 101
1, 187496, Control_c, 0, 64, 102
1, 187497, Note_on_c, 0, 62, 89
1, 187502, Note_on_c, 0, 74, 85
1, 187511, Control_c, 0, 64, 102
1, 187526, Control_c, 0, 64, 103
1, 187536, Note_off_c, 0, 62, 66
1, 187541, Note_off_c, 0, 74, 68
1, 187541, Control_c, 0, 64, 103
1, 187601, Control_c, 0, 64, 103
1, 187606, Note_on_c, 0, 63, 108
1, 187611, Note_on_c, 0, 48, 96
1, 187612, Note_on_c, 0, 72, 82
1, 187612, Note_on_c, 0, 75, 86
1, 187613, Note_on_c, 0, 43, 85
1, 187615, Control_c, 0, 64, 100
1, 187617, Note_on_c, 0, 36, 81
1, 187630, Control_c, 0, 64, 93
1, 187633, Note_on_c, 0, 73, 52
1, 187642, Note_off_c, 0, 63, 65
1, 187645, Control_c, 0, 64, 82
1, 187645, Note_off_c, 0, 48, 68
1, 187651, Note_off_c, 0, 72, 62
1, 187654, Note_off_c, 0, 43, 61
1, 187655, Note_off_c, 0, 73, 59
1, 187660, Control_c, 0, 64, 67
1, 187660, Note_off_c, 0, 75, 65
1, 187670, Note_off_c, 0, 36, 63
1, 187674, Control_c, 0, 64, 0
1, 187711, Note_on_c, 0, 65, 91
1, 187714, Note_on_c, 0, 77, 98
1, 187754, Note_off_c, 0, 65, 64
1, 187761, Note_off_c, 0, 77, 64
1, 187815, Note_on_c, 0, 67, 93
1, 187819, Note_on_c, 0, 72, 89
1, 187820, Note_on_c, 0, 43, 90
1, 187820, Note_on_c, 0, 79, 93
1, 187823, Note_on_c, 0, 33, 85
1, 187824, Note_on_c, 0, 45, 91
1, 187842, Note_off_c, 0, 72, 66
1, 187848, Note_off_c, 0, 45, 70
1, 187851, Note_off_c, 0, 67, 62
1, 187853, Note_off_c, 0, 79, 66
1, 187854, Note_off_c, 0, 43, 65
1, 187855, Note_off_c, 0, 33, 68
1, 188049, Note_on_c, 0, 46, 97
1, 188051, Note_on_c, 0, 43, 76
1, 188051, Note_on_c, 0, 34, 79
1, 188051, Note_on_c, 0, 62, 97
1, 188053, Note_on_c, 0, 74, 91
1, 188066, Control_c, 0, 64, 58
1, 188081, Control_c, 0, 64, 72
1, 188088, Note_off_c, 0, 43, 63
1, 188096, Note_off_c, 0, 46, 64
1, 188096, Control_c, 0, 64, 79
1, 188098, Note_off_c, 0, 34, 64
1, 188111, Control_c, 0, 64, 85
1, 188126, Control_c, 0, 64, 87
1, 188140, Control_c, 0, 64, 89
1, 188155, Control_c, 0, 64, 91
1, 188170, Control_c, 0, 64, 94
1, 188185, Control_c, 0, 64, 98
1, 188200, Control_c, 0, 64, 102
1, 188215, Control_c, 0, 64, 105
1, 188215, Note_off_c, 0, 62, 57
1, 188230, Control_c, 0, 64, 107
1, 188245, Control_c, 0, 64, 109
1, 188250, Note_off_c, 0, 74, 65
1, 188259, Control_c, 0, 64, 110
1, 188268, Note_on_c, 0, 48, 101
1, 188271, Note_on_c, 0, 45, 90
1, 188274, Control_c, 0, 64, 113
1, 188274, Note_on_c, 0, 36, 75
1, 188289, Control_c, 0, 64, 117
1, 188304, Control_c, 0, 64, 119
1, 188307, Note_off_c, 0, 45, 65
1, 188308, Note_off_c, 0, 48, 67
1, 188319, Control_c, 0, 64, 121
1, 188330, Note_off_c, 0, 36, 58
1, 188334, Control_c, 0, 64, 124
1, 188349, Control_c, 0, 64, 127
1, 188438, Control_c, 0, 64, 113
1, 188453, Control_c, 0, 64, 93
1, 188468, Control_c, 0, 64, 64
1, 188472, Note_on_c, 0, 70, 99
1, 188476, Note_on_c, 0, 77, 91
1, 188477, Note_on_c, 0, 82, 96
1, 188483, Control_c, 0, 64, 0
1, 188484, Note_on_c, 0, 50, 100
1, 188488, Note_on_c, 0, 38, 74
1, 188493, Note_on_c, 0, 46, 86
1, 188527, Control_c, 0, 64, 66
1, 188534, Note_off_c, 0, 50, 64
1, 188542, Control_c, 0, 64, 85
1, 188549, Note_off_c, 0, 46, 62
1, 188557, Control_c, 0, 64, 107
1, 188560, Note_off_c, 0, 38, 62
1, 188570, Poly_aftertouch_c, 0, 40, 127
1, 188571, Control_c, 0, 64, 112
1, 188586, Control_c, 0, 64, 113
1, 188601, Control_c, 0, 64, 120
1, 188602, Poly_aftertouch_c, 0, 40, 0
1, 188623, Control_c, 0, 64, 127
1, 188659, Note_off_c, 0, 82, 61
1, 188666, Note_off_c, 0, 77, 56
1, 188669, Note_off_c, 0, 70, 56
1, 188706, Note_on_c, 0, 51, 99
1, 188711, Note_on_c, 0, 39, 81
1, 188713, Note_on_c, 0, 46, 86
1, 188760, Note_off_c, 0, 51, 56
1, 188772, Note_off_c, 0, 46, 58
1, 188785, Note_off_c, 0, 39, 62
1, 188786, Note_on_c, 0, 67, 94
1, 188787, Note_on_c, 0, 79, 96
1, 188827, Note_off_c, 0, 67, 64
1, 188843, Note_off_c, 0, 79, 66
1, 188875, Control_c, 0, 64, 120
1, 188889, Control_c, 0, 64, 92
1, 188904, Control_c, 0, 64, 65
1, 188919, Control_c, 0, 64, 0
1, 188921, Note_on_c, 0, 52, 101
1, 188921, Note_on_c, 0, 72, 104
1, 188921, Note_on_c, 0, 79, 100
1, 188922, Note_on_c, 0, 84, 103
1, 188923, Note_on_c, 0, 48, 89
1, 188928, Note_on_c, 0, 40, 82
1, 188963, Control_c, 0, 64, 65
1, 188970, Note_on_c, 0, 45, 17
1, 188978, Control_c, 0, 64, 84
1, 188981, Note_off_c, 0, 48, 62
1, 188987, Note_off_c, 0, 52, 58
1, 188993, Note_off_c, 0, 40, 62
1, 188993, Control_c, 0, 64, 102
1, 189008, Control_c, 0, 64, 108
1, 189017, Note_off_c, 0, 45, 47
1, 189037, Control_c, 0, 64, 109
1, 189052, Control_c, 0, 64, 110
1, 189067, Control_c, 0, 64, 112
1, 189070, Note_off_c, 0, 84, 57
1, 189082, Control_c, 0, 64, 113
1, 189090, Note_off_c, 0, 79, 58
1, 189098, Control_c, 0, 64, 114
1, 189103, Note_off_c, 0, 72, 59
1, 189112, Control_c, 0, 64, 115
1, 189127, Control_c, 0, 64, 116
1, 189136, Note_on_c, 0, 53, 97
1, 189139, Note_on_c, 0, 41, 81
1, 189139, Note_on_c, 0, 48, 86
1, 189142, Control_c, 0, 64, 117
1, 189157, Control_c, 0, 64, 118
1, 189183, Note_off_c, 0, 53, 66
1, 189186, Note_off_c, 0, 48, 63
1, 189201, Control_c, 0, 64, 118
1, 189204, Note_off_c, 0, 41, 65
1, 189216, Control_c, 0, 64, 119
1, 189219, Note_on_c, 0, 69, 97
1, 189222, Note_on_c, 0, 77, 84
1, 189222, Note_on_c, 0, 81, 89
1, 189231, Control_c, 0, 64, 120
1, 189246, Control_c, 0, 64, 120
1, 189258, Note_off_c, 0, 69, 67
1, 189261, Control_c, 0, 64, 121
1, 189269, Note_off_c, 0, 77, 62
1, 189269, Note_off_c, 0, 81, 62
1, 189276, Control_c, 0, 64, 123
1, 189291, Control_c, 0, 64, 126
1, 189306, Control_c, 0, 64, 127
1, 189320, Control_c, 0, 64, 127
1, 189331, Note_on_c, 0, 70, 104
1, 189335, Control_c, 0, 64, 126
1, 189336, Note_on_c, 0, 75, 93
1, 189338, Note_on_c, 0, 82, 91
1, 189339, Note_on_c, 0, 55, 96
1, 189343, Note_on_c, 0, 48, 93
1, 189344, Note_on_c, 0, 43, 93
1, 189350, Control_c, 0, 64, 122
1, 189372, Control_c, 0, 64, 111
1, 189374, Note_off_c, 0, 70, 65
1, 189376, Note_off_c, 0, 75, 62
1, 189382, Note_off_c, 0, 82, 68
1, 189387, Control_c, 0, 64, 99
1, 189388, Note_off_c, 0, 48, 66
1, 189389, Note_off_c, 0, 55, 63
1, 189401, Control_c, 0, 64, 84
1, 189413, Note_off_c, 0, 43, 60
1, 189416, Control_c, 0, 64, 66
1, 189431, Control_c, 0, 64, 0
1, 189444, Note_on_c, 0, 69, 91
1, 189444, Note_on_c, 0, 81, 98
1, 189487, Note_off_c, 0, 69, 63
1, 189491, Note_off_c, 0, 81, 65
1, 189550, Note_on_c, 0, 67, 99
1, 189552, Note_on_c, 0, 79, 98
1, 189557, Note_on_c, 0, 57, 100
1, 189557, Note_on_c, 0, 75, 88
1, 189565, Note_on_c, 0, 45, 90
1, 189576, Note_off_c, 0, 75, 70
1, 189579, Note_on_c, 0, 47, 65
1, 189586, Note_off_c, 0, 67, 64
1, 189591, Note_off_c, 0, 45, 69
1, 189592, Note_off_c, 0, 79, 67
1, 189593, Note_off_c, 0, 57, 68
1, 189602, Note_off_c, 0, 47, 61
1, 189773, Control_c, 0, 64, 62
1, 189787, Control_c, 0, 64, 77
1, 189795, Note_on_c, 0, 65, 103
1, 189796, Note_on_c, 0, 58, 107
1, 189796, Note_on_c, 0, 74, 92
1, 189798, Note_on_c, 0, 77, 95
1, 189798, Note_on_c, 0, 46, 96
1, 189802, Control_c, 0, 64, 87
1, 189817, Control_c, 0, 64, 92
1, 189828, Note_off_c, 0, 58, 71
1, 189830, Note_off_c, 0, 65, 67
1, 189832, Control_c, 0, 64, 97
1, 189842, Note_off_c, 0, 74, 67
1, 189846, Control_c, 0, 64, 105
1, 189851, Note_off_c, 0, 46, 64
1, 189851, Note_off_c, 0, 77, 63
1, 189861, Control_c, 0, 64, 114
1, 189876, Control_c, 0, 64, 124
1, 189892, Control_c, 0, 64, 127
1, 190052, Note_on_c, 0, 46, 112
1, 190058, Note_on_c, 0, 34, 96
1, 190058, Note_on_c, 0, 74, 96
1, 190081, Note_off_c, 0, 46, 68
1, 190082, Note_off_c, 0, 34, 71
1, 190092, Note_off_c, 0, 74, 70
1, 190284, Control_c, 0, 64, 110
1, 190299, Control_c, 0, 64, 86
1, 190311, Note_on_c, 0, 70, 104
1, 190313, Note_on_c, 0, 82, 99
1, 190314, Note_on_c, 0, 74, 90
1, 190314, Control_c, 0, 64, 59
1, 190316, Note_on_c, 0, 58, 99
1, 190320, Note_on_c, 0, 46, 85
1, 190324, Note_on_c, 0, 50, 79
1, 190329, Control_c, 0, 64, 0
1, 190352, Note_off_c, 0, 70, 62
1, 190358, Control_c, 0, 64, 34
1, 190362, Note_off_c, 0, 58, 65
1, 190373, Control_c, 0, 64, 72
1, 190385, Note_off_c, 0, 74, 60
1, 190387, Note_off_c, 0, 50, 63
1, 190388, Control_c, 0, 64, 92
1, 190389, Note_off_c, 0, 82, 64
1, 190397, Note_off_c, 0, 46, 61
1, 190403, Control_c, 0, 64, 108
1, 190418, Control_c, 0, 64, 109
1, 190433, Control_c, 0, 64, 110
1, 190447, Control_c, 0, 64, 111
1, 190462, Control_c, 0, 64, 113
1, 190477, Control_c, 0, 64, 117
1, 190492, Control_c, 0, 64, 120
1, 190507, Control_c, 0, 64, 123
1, 190522, Control_c, 0, 64, 127
1, 190561, Note_on_c, 0, 82, 84
1, 190561, Note_on_c, 0, 70, 98
1, 190564, Note_on_c, 0, 74, 87
1, 190568, Note_on_c, 0, 58, 103
1, 190577, Note_on_c, 0, 46, 80
1, 190582, Note_on_c, 0, 50, 76
1, 190591, Note_on_c, 0, 80, 45
1, 190593, Note_off_c, 0, 70, 68
1, 190600, Note_off_c, 0, 74, 69
1, 190602, Note_off_c, 0, 58, 67
1, 190611, Note_off_c, 0, 82, 67
1, 190614, Note_off_c, 0, 80, 60
1, 190620, Note_off_c, 0, 50, 65
1, 190631, Note_off_c, 0, 46, 62
1, 190715, Control_c, 0, 64, 120
1, 190730, Control_c, 0, 64, 106
1, 190745, Control_c, 0, 64, 90
1, 190759, Control_c, 0, 64, 64
1, 190774, Control_c, 0, 64, 0
1, 190822, Note_on_c, 0, 81, 94
1, 190823, Note_on_c, 0, 69, 96
1, 190824, Note_on_c, 0, 57, 100
1, 190824, Note_on_c, 0, 72, 92
1, 190832, Note_on_c, 0, 45, 83
1, 190833, Note_on_c, 0, 48, 80
1, 190833, Control_c, 0, 64, 68
1, 190848, Control_c, 0, 64, 86
1, 190871, Control_c, 0, 64, 103
1, 190872, Note_off_c, 0, 69, 67
1, 190875, Note_off_c, 0, 72, 66
1, 190877, Note_off_c, 0, 57, 65
1, 190883, Note_off_c, 0, 81, 64
1, 190886, Control_c, 0, 64, 112
1, 190886, Note_off_c, 0, 45, 64
1, 190888, Note_off_c, 0, 48, 66
1, 190900, Control_c, 0, 64, 115
1, 190915, Control_c, 0, 64, 121
1, 190930, Control_c, 0, 64, 127
1, 191081, Note_on_c, 0, 77, 92
1, 191083, Note_on_c, 0, 53, 94
1, 191084, Note_on_c, 0, 65, 94
1, 191088, Note_on_c, 0, 41, 82
1, 191089, Note_on_c, 0, 69, 82
1, 191095, Note_on_c, 0, 45, 72
1, 191106, Note_off_c, 0, 69, 75
1, 191109, Note_off_c, 0, 65, 63
1, 191119, Note_off_c, 0, 45, 67
1, 191127, Note_off_c, 0, 53, 66
1, 191130, Note_off_c, 0, 41, 65
1, 191130, Note_off_c, 0, 77, 64
1, 191186, Poly_aftertouch_c, 0, 70, 0
1, 191284, Control_c, 0, 64, 112
1, 191299, Control_c, 0, 64, 86
1, 191308, Note_on_c, 0, 70, 96
1, 191310, Note_on_c, 0, 82, 85
1, 191311, Note_on_c, 0, 58, 92
1, 191314, Control_c, 0, 64, 56
1, 191315, Note_on_c, 0, 74, 79
1, 191318, Note_on_c, 0, 50, 65
1, 191319, Note_on_c, 0, 46, 74
1, 191329, Control_c, 0, 64, 0
1, 191344, Control_c, 0, 64, 10
1, 191356, Note_off_c, 0, 70, 62
1, 191357, Note_on_c, 0, 52, 26
1, 191358, Note_off_c, 0, 52, 48
1, 191358, Note_off_c, 0, 74, 62
1, 191359, Note_off_c, 0, 58, 65
1, 191359, Control_c, 0, 64, 68
1, 191364, Note_off_c, 0, 82, 66
1, 191367, Note_off_c, 0, 46, 61
1, 191374, Control_c, 0, 64, 86
1, 191379, Note_off_c, 0, 50, 63
1, 191389, Control_c, 0, 64, 106
1, 191402, Poly_aftertouch_c, 0, 52, 0
1, 191404, Control_c, 0, 64, 118
1, 191418, Control_c, 0, 64, 119
1, 191426, Note_on_c, 0, 69, 98
1, 191429, Note_on_c, 0, 81, 95
1, 191432, Note_on_c, 0, 57, 87
1, 191433, Control_c, 0, 64, 121
1, 191439, Note_on_c, 0, 72, 73
1, 191446, Note_on_c, 0, 45, 73
1, 191448, Control_c, 0, 64, 124
1, 191454, Note_off_c, 0, 72, 68
1, 191463, Control_c, 0, 64, 127
1, 191469, Note_off_c, 0, 69, 65
1, 191473, Note_off_c, 0, 57, 63
1, 191477, Note_off_c, 0, 81, 63
1, 191480, Note_off_c, 0, 45, 66
1, 191546, Note_on_c, 0, 55, 91
1, 191548, Note_on_c, 0, 67, 101
1, 191551, Note_on_c, 0, 43, 90
1, 191551, Note_on_c, 0, 79, 97
1, 191557, Note_on_c, 0, 70, 90
1, 191583, Note_off_c, 0, 67, 64
1, 191584, Note_off_c, 0, 43, 62
1, 191585, Note_off_c, 0, 55, 65
1, 191586, Note_off_c, 0, 70, 55
1, 191587, Note_off_c, 0, 79, 65
1, 191679, Control_c, 0, 64, 125
1, 191694, Control_c, 0, 64, 120
1, 191708, Control_c, 0, 64, 112
1, 191723, Control_c, 0, 64, 100
1, 191738, Control_c, 0, 64, 85
1, 191753, Control_c, 0, 64, 64
1, 191768, Control_c, 0, 64, 0
1, 191833, Note_on_c, 0, 69, 88
1, 191835, Note_on_c, 0, 65, 94
1, 191835, Note_on_c, 0, 77, 84
1, 191838, Note_on_c, 0, 53, 94
1, 191841, Control_c, 0, 64, 61
1, 191843, Note_on_c, 0, 41, 88
1, 191856, Control_c, 0, 64, 67
1, 191871, Control_c, 0, 64, 71
1, 191882, Note_off_c, 0, 53, 66
1, 191885, Note_off_c, 0, 41, 66
1, 191886, Control_c, 0, 64, 76
1, 191901, Control_c, 0, 64, 80
1, 191915, Control_c, 0, 64, 82
1, 191977, Note_on_c, 0, 51, 88
1, 191987, Note_on_c, 0, 39, 76
1, 192011, Note_off_c, 0, 51, 62
1, 192023, Note_off_c, 0, 39, 64
1, 192040, Note_off_c, 0, 65, 60
1, 192049, Control_c, 0, 64, 82
1, 192053, Note_off_c, 0, 69, 62
1, 192064, Control_c, 0, 64, 81
1, 192079, Control_c, 0, 64, 80
1, 192088, Note_on_c, 0, 50, 88
1, 192088, Note_off_c, 0, 77, 61
1, 192094, Control_c, 0, 64, 77
1, 192100, Note_on_c, 0, 38, 72
1, 192108, Control_c, 0, 64, 71
1, 192123, Control_c, 0, 64, 62
1, 192137, Note_off_c, 0, 38, 62
1, 192138, Note_off_c, 0, 50, 61
1, 192138, Control_c, 0, 64, 0
1, 192196, Note_on_c, 0, 48, 85
1, 192206, Note_on_c, 0, 36, 75
1, 192236, Note_off_c, 0, 48, 66
1, 192239, Note_off_c, 0, 36, 64
1, 192310, Note_on_c, 0, 46, 89
1, 192314, Note_on_c, 0, 70, 93
1, 192317, Note_on_c, 0, 82, 89
1, 192318, Note_on_c, 0, 74, 77
1, 192322, Note_on_c, 0, 34, 73
1, 192339, Note_off_c, 0, 46, 66
1, 192364, Note_off_c, 0, 34, 66
1, 192398, Control_c, 0, 64, 17
1, 192413, Control_c, 0, 64, 25
1, 192422, Note_on_c, 0, 45, 87
1, 192434, Note_on_c, 0, 33, 73
1, 192443, Control_c, 0, 64, 23
1, 192464, Note_off_c, 0, 45, 62
1, 192466, Note_off_c, 0, 33, 67
1, 192487, Control_c, 0, 64, 25
1, 192502, Control_c, 0, 64, 28
1, 192517, Control_c, 0, 64, 30
1, 192526, Note_off_c, 0, 74, 55
1, 192528, Note_off_c, 0, 70, 57
1, 192532, Note_on_c, 0, 43, 85
1, 192532, Control_c, 0, 64, 32
1, 192536, Note_off_c, 0, 82, 63
1, 192538, Note_on_c, 0, 31, 78
1, 192546, Control_c, 0, 64, 32
1, 192578, Note_off_c, 0, 31, 63
1, 192580, Note_off_c, 0, 43, 60
1, 192591, Control_c, 0, 64, 32
1, 192620, Control_c, 0, 64, 32
1, 192640, Note_on_c, 0, 69, 91
1, 192640, Note_on_c, 0, 81, 82
1, 192646, Note_on_c, 0, 74, 77
1, 192648, Note_on_c, 0, 41, 85
1, 192650, Control_c, 0, 64, 33
1, 192656, Note_on_c, 0, 29, 77
1, 192675, Note_off_c, 0, 69, 66
1, 192678, Note_off_c, 0, 74, 65
1, 192688, Note_off_c, 0, 29, 66
1, 192689, Note_off_c, 0, 81, 62
1, 192690, Note_off_c, 0, 41, 65
1, 192694, Control_c, 0, 64, 32
1, 192709, Control_c, 0, 64, 29
1, 192724, Control_c, 0, 64, 28
1, 192738, Control_c, 0, 64, 26
1, 192752, Note_on_c, 0, 67, 98
1, 192753, Note_on_c, 0, 79, 92
1, 192753, Control_c, 0, 64, 25
1, 192756, Note_on_c, 0, 75, 88
1, 192760, Note_on_c, 0, 39, 82
1, 192765, Note_on_c, 0, 27, 79
1, 192768, Control_c, 0, 64, 24
1, 192782, Control_c, 0, 64, 23
1, 192786, Note_off_c, 0, 39, 67
1, 192801, Note_off_c, 0, 27, 62
1, 192812, Control_c, 0, 64, 25
1, 192827, Control_c, 0, 64, 26
1, 192857, Control_c, 0, 64, 25
1, 192865, Note_on_c, 0, 38, 86
1, 192872, Control_c, 0, 64, 24
1, 192881, Note_on_c, 0, 26, 68
1, 192884, Note_off_c, 0, 79, 61
1, 192902, Control_c, 0, 64, 23
1, 192909, Note_off_c, 0, 38, 62
1, 192911, Note_off_c, 0, 26, 64
1, 192946, Control_c, 0, 64, 24
1, 192961, Note_off_c, 0, 67, 53
1, 192976, Note_on_c, 0, 39, 95
1, 192984, Poly_aftertouch_c, 0, 31, 0
1, 192985, Note_on_c, 0, 27, 75
1, 193005, Control_c, 0, 64, 26
1, 193020, Control_c, 0, 64, 27
1, 193027, Note_off_c, 0, 27, 65
1, 193027, Note_off_c, 0, 39, 60
1, 193035, Control_c, 0, 64, 29
1, 193047, Note_off_c, 0, 75, 62
1, 193050, Control_c, 0, 64, 30
1, 193064, Control_c, 0, 64, 31
1, 193080, Control_c, 0, 64, 32
1, 193086, Note_on_c, 0, 41, 83
1, 193089, Note_on_c, 0, 29, 77
1, 193089, Note_on_c, 0, 69, 87
1, 193089, Note_on_c, 0, 81, 86
1, 193095, Control_c, 0, 64, 34
1, 193117, Control_c, 0, 64, 36
1, 193131, Note_off_c, 0, 69, 67
1, 193137, Note_off_c, 0, 41, 65
1, 193141, Note_off_c, 0, 81, 62
1, 193142, Note_off_c, 0, 29, 63
1, 193161, Control_c, 0, 64, 34
1, 193176, Control_c, 0, 64, 33
1, 193203, Note_on_c, 0, 43, 82
1, 193203, Note_on_c, 0, 70, 96
1, 193206, Note_on_c, 0, 82, 95
1, 193206, Control_c, 0, 64, 34
1, 193209, Note_on_c, 0, 75, 87
1, 193215, Note_on_c, 0, 31, 74
1, 193221, Control_c, 0, 64, 34
1, 193234, Note_off_c, 0, 75, 64
1, 193236, Control_c, 0, 64, 36
1, 193239, Note_off_c, 0, 70, 60
1, 193242, Note_off_c, 0, 43, 62
1, 193247, Note_off_c, 0, 82, 65
1, 193249, Note_off_c, 0, 31, 65
1, 193265, Control_c, 0, 64, 35
1, 193280, Control_c, 0, 64, 34
1, 193295, Control_c, 0, 64, 33
1, 193310, Note_on_c, 0, 41, 86
1, 193310, Control_c, 0, 64, 32
1, 193311, Note_on_c, 0, 69, 93
1, 193312, Note_on_c, 0, 81, 94
1, 193319, Note_on_c, 0, 29, 79
1, 193325, Control_c, 0, 64, 31
1, 193340, Control_c, 0, 64, 28
1, 193350, Note_off_c, 0, 69, 66
1, 193355, Note_off_c, 0, 41, 66
1, 193355, Control_c, 0, 64, 26
1, 193356, Note_off_c, 0, 29, 66
1, 193357, Note_off_c, 0, 81, 64
1, 193370, Control_c, 0, 64, 25
1, 193414, Control_c, 0, 64, 26
1, 193416, Note_on_c, 0, 79, 94
1, 193417, Note_on_c, 0, 67, 95
1, 193422, Note_on_c, 0, 43, 86
1, 193426, Note_on_c, 0, 75, 80
1, 193429, Control_c, 0, 64, 27
1, 193436, Note_on_c, 0, 31, 71
1, 193446, Note_off_c, 0, 75, 72
1, 193452, Note_off_c, 0, 67, 61
1, 193459, Note_off_c, 0, 79, 62
1, 193459, Control_c, 0, 64, 29
1, 193463, Note_off_c, 0, 31, 64
1, 193465, Note_off_c, 0, 43, 60
1, 193474, Control_c, 0, 64, 30
1, 193488, Control_c, 0, 64, 29
1, 193503, Control_c, 0, 64, 25
1, 193518, Control_c, 0, 64, 0
1, 193533, Note_on_c, 0, 45, 83
1, 193553, Note_on_c, 0, 33, 56
1, 193572, Note_off_c, 0, 45, 67
1, 193579, Note_on_c, 0, 38, 29
1, 193581, Note_off_c, 0, 33, 58
1, 193618, Note_off_c, 0, 38, 47
1, 193640, Note_on_c, 0, 46, 97
1, 193644, Note_on_c, 0, 65, 94
1, 193649, Note_on_c, 0, 74, 77
1, 193651, Note_on_c, 0, 77, 87
1, 193651, Control_c, 0, 64, 31
1, 193654, Note_on_c, 0, 34, 74
1, 193666, Control_c, 0, 64, 69
1, 193676, Note_off_c, 0, 46, 60
1, 193680, Control_c, 0, 64, 75
1, 193695, Note_off_c, 0, 34, 66
1, 193695, Control_c, 0, 64, 79
1, 193710, Control_c, 0, 64, 81
1, 193725, Control_c, 0, 64, 82
1, 193740, Control_c, 0, 64, 83
1, 193751, Note_off_c, 0, 77, 57
1, 193753, Note_on_c, 0, 45, 89
1, 193755, Control_c, 0, 64, 83
1, 193769, Control_c, 0, 64, 84
1, 193776, Note_on_c, 0, 33, 64
1, 193781, Note_off_c, 0, 65, 58
1, 193782, Note_off_c, 0, 74, 60
1, 193784, Control_c, 0, 64, 84
1, 193796, Note_off_c, 0, 45, 63
1, 193799, Control_c, 0, 64, 85
1, 193803, Note_off_c, 0, 33, 58
1, 193808, Note_on_c, 0, 38, 30
1, 193852, Note_off_c, 0, 38, 40
1, 193865, Note_on_c, 0, 46, 93
1, 193875, Note_on_c, 0, 34, 79
1, 193881, Control_c, 0, 64, 84
1, 193882, Note_on_c, 0, 62, 90
1, 193887, Note_on_c, 0, 74, 88
1, 193897, Control_c, 0, 64, 81
1, 193911, Note_off_c, 0, 46, 64
1, 193911, Control_c, 0, 64, 76
1, 193919, Note_off_c, 0, 34, 63
1, 193926, Control_c, 0, 64, 66
1, 193927, Note_off_c, 0, 74, 67
1, 193927, Note_off_c, 0, 62, 63
1, 193941, Control_c, 0, 64, 32
1, 193956, Control_c, 0, 64, 0
1, 193978, Note_on_c, 0, 47, 90
1, 193983, Note_on_c, 0, 35, 83
1, 194026, Note_off_c, 0, 35, 62
1, 194029, Note_off_c, 0, 47, 63
1, 194089, Note_on_c, 0, 63, 98
1, 194091, Note_on_c, 0, 48, 89
1, 194097, Note_on_c, 0, 36, 82
1, 194097, Note_on_c, 0, 75, 85
1, 194098, Note_on_c, 0, 72, 75
1, 194128, Note_off_c, 0, 72, 63
1, 194135, Note_off_c, 0, 48, 64
1, 194135, Note_off_c, 0, 63, 63
1, 194139, Note_off_c, 0, 36, 61
1, 194147, Note_off_c, 0, 75, 63
1, 194198, Note_on_c, 0, 65, 86
1, 194200, Note_on_c, 0, 77, 94
1, 194201, Note_on_c, 0, 50, 87
1, 194229, Note_on_c, 0, 38, 43
1, 194236, Note_off_c, 0, 50, 64
1, 194239, Note_off_c, 0, 65, 66
1, 194246, Note_off_c, 0, 77, 65
1, 194267, Note_off_c, 0, 38, 33
1, 194300, Note_on_c, 0, 51, 85
1, 194304, Note_on_c, 0, 67, 85
1, 194307, Note_on_c, 0, 79, 86
1, 194308, Note_on_c, 0, 72, 84
1, 194310, Note_on_c, 0, 39, 70
1, 194321, Note_off_c, 0, 51, 70
1, 194330, Note_off_c, 0, 72, 68
1, 194338, Note_off_c, 0, 67, 61
1, 194339, Note_off_c, 0, 79, 60
1, 194345, Note_off_c, 0, 39, 62
1, 194408, Note_on_c, 0, 45, 83
1, 194433, Note_on_c, 0, 33, 56
1, 194439, Note_on_c, 0, 39, 38
1, 194452, Note_off_c, 0, 45, 64
1, 194463, Note_off_c, 0, 33, 57
1, 194473, Note_off_c, 0, 39, 33
1, 194519, Note_on_c, 0, 46, 92
1, 194522, Note_on_c, 0, 62, 83
1, 194523, Note_on_c, 0, 74, 79
1, 194533, Note_on_c, 0, 34, 69
1, 194553, Note_off_c, 0, 46, 64
1, 194569, Note_off_c, 0, 34, 65
1, 194615, Control_c, 0, 64, 57
1, 194630, Control_c, 0, 64, 64
1, 194631, Note_on_c, 0, 45, 87
1, 194644, Control_c, 0, 64, 65
1, 194651, Note_on_c, 0, 33, 57
1, 194659, Control_c, 0, 64, 66
1, 194668, Note_off_c, 0, 45, 66
1, 194674, Control_c, 0, 64, 67
1, 194679, Note_off_c, 0, 33, 58
1, 194690, Control_c, 0, 64, 68
1, 194705, Control_c, 0, 64, 68
1, 194713, Note_off_c, 0, 74, 54
1, 194734, Note_off_c, 0, 62, 56
1, 194736, Note_on_c, 0, 46, 94
1, 194747, Note_on_c, 0, 34, 73
1, 194771, Poly_aftertouch_c, 0, 38, 0
1, 194784, Note_off_c, 0, 46, 61
1, 194789, Note_off_c, 0, 34, 66
1, 194794, Control_c, 0, 64, 68
1, 194808, Control_c, 0, 64, 67
1, 194823, Control_c, 0, 64, 67
1, 194838, Control_c, 0, 64, 66
1, 194839, Note_on_c, 0, 47, 87
1, 194839, Note_on_c, 0, 74, 73
1, 194839, Note_on_c, 0, 62, 82
1, 194845, Note_on_c, 0, 35, 82
1, 194852, Control_c, 0, 64, 64
1, 194866, Control_c, 0, 64, 62
1, 194879, Note_off_c, 0, 35, 66
1, 194881, Note_off_c, 0, 62, 61
1, 194881, Control_c, 0, 64, 57
1, 194885, Note_off_c, 0, 47, 62
1, 194887, Note_off_c, 0, 74, 66
1, 194896, Control_c, 0, 64, 54
1, 194911, Control_c, 0, 64, 53
1, 194926, Control_c, 0, 64, 51
1, 194941, Control_c, 0, 64, 50
1, 194948, Note_on_c, 0, 48, 87
1, 194949, Note_on_c, 0, 63, 96
1, 194953, Note_on_c, 0, 75, 81
1, 194954, Note_on_c, 0, 72, 78
1, 194956, Note_on_c, 0, 36, 73
1, 194956, Control_c, 0, 64, 50
1, 194970, Control_c, 0, 64, 49
1, 194988, Note_off_c, 0, 63, 59
1, 194989, Note_off_c, 0, 72, 64
1, 194991, Note_off_c, 0, 48, 64
1, 194994, Note_off_c, 0, 36, 65
1, 195000, Control_c, 0, 64, 48
1, 195007, Note_off_c, 0, 75, 64
1, 195015, Control_c, 0, 64, 47
1, 195030, Control_c, 0, 64, 46
1, 195045, Control_c, 0, 64, 43
1, 195057, Note_on_c, 0, 50, 83
1, 195057, Note_on_c, 0, 65, 89
1, 195059, Note_on_c, 0, 77, 92
1, 195059, Control_c, 0, 64, 42
1, 195074, Control_c, 0, 64, 41
1, 195089, Control_c, 0, 64, 40
1, 195091, Note_off_c, 0, 50, 64
1, 195097, Note_off_c, 0, 65, 65
1, 195104, Control_c, 0, 64, 39
1, 195108, Note_off_c, 0, 77, 63
1, 195114, Note_on_c, 0, 43, 15
1, 195133, Control_c, 0, 64, 40
1, 195155, Note_on_c, 0, 51, 79
1, 195160, Note_on_c, 0, 67, 89
1, 195163, Note_on_c, 0, 72, 81
1, 195163, Control_c, 0, 64, 41
1, 195166, Note_on_c, 0, 39, 64
1, 195166, Note_on_c, 0, 79, 83
1, 195169, Note_off_c, 0, 43, 47
1, 195176, Note_off_c, 0, 51, 66
1, 195177, Control_c, 0, 64, 42
1, 195185, Note_off_c, 0, 72, 68
1, 195192, Control_c, 0, 64, 43
1, 195197, Note_off_c, 0, 39, 64
1, 195201, Note_off_c, 0, 79, 63
1, 195206, Note_off_c, 0, 67, 59
1, 195207, Control_c, 0, 64, 45
1, 195222, Control_c, 0, 64, 46
1, 195260, Note_on_c, 0, 45, 80
1, 195266, Control_c, 0, 64, 46
1, 195281, Control_c, 0, 64, 47
1, 195285, Note_on_c, 0, 33, 52
1, 195287, Note_on_c, 0, 39, 45
1, 195296, Control_c, 0, 64, 44
1, 195304, Note_off_c, 0, 45, 66
1, 195311, Control_c, 0, 64, 36
1, 195318, Note_off_c, 0, 33, 54
1, 195318, Note_off_c, 0, 39, 55
1, 195325, Control_c, 0, 64, 0
1, 195377, Note_on_c, 0, 46, 88
1, 195382, Note_on_c, 0, 62, 86
1, 195384, Note_on_c, 0, 74, 79
1, 195390, Note_on_c, 0, 34, 66
1, 195409, Note_off_c, 0, 46, 64
1, 195430, Note_off_c, 0, 34, 64
1, 195437, Control_c, 0, 64, 30
1, 195452, Control_c, 0, 64, 65
1, 195466, Control_c, 0, 64, 69
1, 195481, Control_c, 0, 64, 71
1, 195483, Note_on_c, 0, 45, 86
1, 195497, Control_c, 0, 64, 73
1, 195504, Note_on_c, 0, 33, 56
1, 195512, Control_c, 0, 64, 74
1, 195522, Note_off_c, 0, 45, 65
1, 195527, Control_c, 0, 64, 75
1, 195532, Note_off_c, 0, 33, 56
1, 195536, Note_on_c, 0, 38, 25
1, 195542, Control_c, 0, 64, 76
1, 195549, Note_off_c, 0, 62, 59
1, 195584, Note_off_c, 0, 38, 39
1, 195585, Note_on_c, 0, 46, 98
1, 195588, Note_off_c, 0, 74, 65
1, 195596, Note_on_c, 0, 34, 77
1, 195631, Note_off_c, 0, 46, 61
1, 195631, Note_off_c, 0, 34, 66
1, 195660, Control_c, 0, 64, 76
1, 195693, Note_on_c, 0, 48, 87
1, 195701, Note_on_c, 0, 36, 70
1, 195734, Control_c, 0, 64, 76
1, 195741, Note_off_c, 0, 36, 59
1, 195743, Note_off_c, 0, 48, 62
1, 195749, Control_c, 0, 64, 72
1, 195763, Control_c, 0, 64, 62
1, 195778, Control_c, 0, 64, 0
1, 195807, Note_on_c, 0, 70, 91
1, 195808, Note_on_c, 0, 50, 86
1, 195808, Note_on_c, 0, 77, 78
1, 195809, Note_on_c, 0, 82, 83
1, 195835, Note_on_c, 0, 38, 54
1, 195838, Control_c, 0, 64, 10
1, 195847, Note_off_c, 0, 50, 65
1, 195853, Control_c, 0, 64, 64
1, 195865, Note_off_c, 0, 38, 51
1, 195868, Control_c, 0, 64, 72
1, 195883, Control_c, 0, 64, 78
1, 195898, Control_c, 0, 64, 82
1, 195909, Note_on_c, 0, 49, 89
1, 195912, Control_c, 0, 64, 83
1, 195918, Note_on_c, 0, 37, 81
1, 195927, Control_c, 0, 64, 84
1, 195933, Note_off_c, 0, 49, 68
1, 195942, Control_c, 0, 64, 85
1, 195948, Note_off_c, 0, 37, 70
1, 195954, Poly_aftertouch_c, 0, 43, 127
1, 195957, Control_c, 0, 64, 87
1, 195972, Control_c, 0, 64, 88
1, 195974, Note_off_c, 0, 82, 62
1, 195976, Note_off_c, 0, 77, 55
1, 195984, Note_off_c, 0, 70, 58
1, 195987, Control_c, 0, 64, 88
1, 196002, Poly_aftertouch_c, 0, 43, 0
1, 196009, Note_on_c, 0, 50, 90
1, 196019, Note_on_c, 0, 38, 63
1, 196053, Note_off_c, 0, 50, 62
1, 196055, Note_off_c, 0, 38, 63
1, 196112, Control_c, 0, 64, 89
1, 196121, Note_on_c, 0, 67, 88
1, 196121, Note_on_c, 0, 79, 85
1, 196125, Note_on_c, 0, 51, 89
1, 196133, Note_on_c, 0, 39, 76
1, 196165, Note_off_c, 0, 67, 63
1, 196166, Note_off_c, 0, 51, 61
1, 196173, Note_off_c, 0, 39, 62
1, 196176, Note_off_c, 0, 79, 64
1, 196187, Control_c, 0, 64, 88
1, 196202, Control_c, 0, 64, 81
1, 196216, Control_c, 0, 64, 62
1, 196231, Control_c, 0, 64, 0
1, 196237, Note_on_c, 0, 52, 88
1, 196243, Note_on_c, 0, 72, 93
1, 196243, Note_on_c, 0, 40, 84
1, 196243, Note_on_c, 0, 79, 85
1, 196243, Note_on_c, 0, 84, 97
1, 196276, Control_c, 0, 64, 64
1, 196282, Note_off_c, 0, 52, 65
1, 196282, Note_off_c, 0, 40, 64
1, 196291, Control_c, 0, 64, 77
1, 196306, Control_c, 0, 64, 89
1, 196321, Control_c, 0, 64, 95
1, 196345, Note_on_c, 0, 51, 93
1, 196351, Control_c, 0, 64, 96
1, 196352, Note_on_c, 0, 39, 82
1, 196366, Control_c, 0, 64, 97
1, 196380, Control_c, 0, 64, 99
1, 196383, Note_off_c, 0, 39, 66
1, 196385, Note_off_c, 0, 51, 62
1, 196395, Control_c, 0, 64, 101
1, 196407, Note_off_c, 0, 84, 57
1, 196410, Control_c, 0, 64, 101
1, 196425, Control_c, 0, 64, 102
1, 196425, Note_off_c, 0, 79, 60
1, 196442, Note_off_c, 0, 72, 57
1, 196453, Note_on_c, 0, 52, 90
1, 196467, Note_on_c, 0, 40, 71
1, 196470, Control_c, 0, 64, 102
1, 196500, Note_off_c, 0, 52, 66
1, 196500, Note_off_c, 0, 40, 64
1, 196506, Note_on_c, 0, 41, 15
1, 196529, Control_c, 0, 64, 103
1, 196544, Control_c, 0, 64, 104
1, 196550, Note_on_c, 0, 81, 90
1, 196553, Note_on_c, 0, 69, 85
1, 196559, Control_c, 0, 64, 105
1, 196561, Note_off_c, 0, 41, 0
1, 196570, Note_on_c, 0, 53, 82
1, 196574, Control_c, 0, 64, 105
1, 196584, Note_on_c, 0, 41, 50
1, 196592, Note_off_c, 0, 69, 63
1, 196602, Note_off_c, 0, 53, 66
1, 196602, Note_off_c, 0, 81, 64
1, 196603, Control_c, 0, 64, 105
1, 196616, Note_off_c, 0, 41, 61
1, 196618, Control_c, 0, 64, 98
1, 196632, Control_c, 0, 64, 82
1, 196647, Control_c, 0, 64, 60
1, 196662, Control_c, 0, 64, 0
1, 196670, Note_on_c, 0, 54, 85
1, 196671, Note_on_c, 0, 86, 98
1, 196673, Note_on_c, 0, 74, 93
1, 196676, Note_on_c, 0, 42, 81
1, 196676, Note_on_c, 0, 81, 86
1, 196692, Control_c, 0, 64, 69
1, 196697, Note_off_c, 0, 54, 64
1, 196698, Note_off_c, 0, 81, 67
1, 196706, Control_c, 0, 64, 86
1, 196709, Note_off_c, 0, 42, 67
1, 196710, Note_off_c, 0, 74, 62
1, 196710, Note_off_c, 0, 86, 66
1, 196721, Control_c, 0, 64, 104
1, 196736, Control_c, 0, 64, 111
1, 196763, Note_on_c, 0, 53, 89
1, 196777, Note_on_c, 0, 41, 72
1, 196780, Control_c, 0, 64, 112
1, 196781, Note_on_c, 0, 84, 97
1, 196784, Note_on_c, 0, 72, 92
1, 196795, Control_c, 0, 64, 112
1, 196803, Note_off_c, 0, 41, 67
1, 196803, Note_off_c, 0, 53, 67
1, 196816, Note_off_c, 0, 84, 67
1, 196820, Note_off_c, 0, 72, 69
1, 196862, Control_c, 0, 64, 113
1, 196877, Note_on_c, 0, 54, 88
1, 196877, Control_c, 0, 64, 113
1, 196884, Note_on_c, 0, 42, 80
1, 196892, Control_c, 0, 64, 114
1, 196893, Poly_aftertouch_c, 0, 47, 0
1, 196893, Note_on_c, 0, 70, 91
1, 196893, Note_on_c, 0, 82, 93
1, 196904, Note_off_c, 0, 54, 59
1, 196906, Control_c, 0, 64, 116
1, 196919, Note_off_c, 0, 42, 65
1, 196921, Note_off_c, 0, 70, 60
1, 196921, Control_c, 0, 64, 127
1, 196932, Note_off_c, 0, 82, 65
1, 196941, Poly_aftertouch_c, 0, 47, 0
1, 196978, Note_on_c, 0, 55, 86
1, 196998, Note_on_c, 0, 43, 62
1, 197010, Control_c, 0, 64, 117
1, 197024, Note_off_c, 0, 55, 62
1, 197025, Control_c, 0, 64, 96
1, 197026, Note_off_c, 0, 43, 61
1, 197039, Control_c, 0, 64, 75
1, 197054, Control_c, 0, 64, 0
1, 197086, Note_on_c, 0, 54, 88
1, 197089, Note_on_c, 0, 42, 81
1, 197094, Note_on_c, 0, 74, 92
1, 197094, Note_on_c, 0, 81, 86
1, 197099, Note_on_c, 0, 86, 87
1, 197099, Control_c, 0, 64, 67
1, 197114, Control_c, 0, 64, 85
1, 197120, Note_off_c, 0, 54, 64
1, 197126, Note_off_c, 0, 42, 64
1, 197128, Control_c, 0, 64, 106
1, 197143, Control_c, 0, 64, 119
1, 197151, Note_off_c, 0, 74, 62
1, 197158, Control_c, 0, 64, 119
1, 197162, Note_off_c, 0, 86, 65
1, 197173, Control_c, 0, 64, 120
1, 197180, Note_off_c, 0, 81, 60
1, 197188, Control_c, 0, 64, 122
1, 197188, Note_on_c, 0, 53, 91
1, 197202, Note_on_c, 0, 41, 66
1, 197202, Control_c, 0, 64, 124
1, 197217, Control_c, 0, 64, 125
1, 197224, Note_off_c, 0, 53, 65
1, 197229, Note_off_c, 0, 41, 65
1, 197232, Control_c, 0, 64, 125
1, 197261, Control_c, 0, 64, 126
1, 197276, Control_c, 0, 64, 127
1, 197285, Note_on_c, 0, 54, 92
1, 197291, Note_on_c, 0, 42, 84
1, 197293, Note_on_c, 0, 70, 92
1, 197293, Note_on_c, 0, 82, 87
1, 197315, Note_off_c, 0, 70, 65
1, 197318, Note_off_c, 0, 54, 62
1, 197325, Note_off_c, 0, 42, 65
1, 197337, Note_off_c, 0, 82, 63
1, 197383, Note_on_c, 0, 55, 90
1, 197397, Note_on_c, 0, 43, 70
1, 197431, Note_off_c, 0, 55, 63
1, 197438, Note_off_c, 0, 43, 60
1, 197454, Control_c, 0, 64, 112
1, 197468, Control_c, 0, 64, 89
1, 197483, Control_c, 0, 64, 64
1, 197498, Note_on_c, 0, 55, 88
1, 197498, Control_c, 0, 64, 0
1, 197502, Note_on_c, 0, 75, 96
1, 197504, Note_on_c, 0, 82, 93
1, 197506, Note_on_c, 0, 87, 94
1, 197507, Note_on_c, 0, 43, 78
1, 197528, Control_c, 0, 64, 65
1, 197534, Note_off_c, 0, 55, 67
1, 197539, Note_off_c, 0, 43, 63
1, 197543, Control_c, 0, 64, 83
1, 197558, Control_c, 0, 64, 112
1, 197572, Control_c, 0, 64, 127
1, 197610, Note_on_c, 0, 54, 90
1, 197615, Poly_aftertouch_c, 0, 46, 0
1, 197615, Note_on_c, 0, 42, 88
1, 197648, Note_off_c, 0, 54, 60
1, 197653, Note_off_c, 0, 42, 63
1, 197667, Note_off_c, 0, 87, 62
1, 197678, Note_off_c, 0, 75, 62
1, 197684, Note_off_c, 0, 82, 59
1, 197709, Note_on_c, 0, 55, 88
1, 197715, Note_on_c, 0, 43, 84
1, 197756, Note_off_c, 0, 55, 64
1, 197757, Note_off_c, 0, 43, 57
1, 197811, Note_on_c, 0, 72, 95
1, 197811, Note_on_c, 0, 84, 89
1, 197818, Note_on_c, 0, 56, 95
1, 197828, Note_on_c, 0, 44, 82
1, 197844, Note_on_c, 0, 50, 18
1, 197848, Note_off_c, 0, 72, 66
1, 197856, Note_off_c, 0, 56, 65
1, 197860, Note_off_c, 0, 84, 64
1, 197863, Note_off_c, 0, 44, 65
1, 197877, Control_c, 0, 64, 113
1, 197889, Note_off_c, 0, 50, 37
1, 197892, Control_c, 0, 64, 87
1, 197907, Control_c, 0, 64, 60
1, 197918, Note_on_c, 0, 57, 95
1, 197919, Note_on_c, 0, 77, 105
1, 197919, Note_on_c, 0, 89, 103
1, 197921, Note_on_c, 0, 84, 96
1, 197922, Control_c, 0, 64, 0
1, 197928, Note_on_c, 0, 45, 77
1, 197936, Control_c, 0, 64, 43
1, 197951, Control_c, 0, 64, 69
1, 197957, Note_off_c, 0, 45, 68
1, 197960, Note_off_c, 0, 57, 65
1, 197966, Control_c, 0, 64, 87
1, 197981, Control_c, 0, 64, 113
1, 197996, Control_c, 0, 64, 127
1, 198023, Note_on_c, 0, 56, 92
1, 198029, Note_on_c, 0, 44, 87
1, 198056, Note_off_c, 0, 89, 61
1, 198065, Note_off_c, 0, 56, 65
1, 198080, Note_off_c, 0, 44, 64
1, 198091, Note_off_c, 0, 77, 54
1, 198092, Note_off_c, 0, 84, 62
1, 198127, Note_on_c, 0, 57, 94
1, 198136, Note_on_c, 0, 45, 87
1, 198169, Note_off_c, 0, 57, 65
1, 198176, Note_off_c, 0, 45, 60
1, 198210, Note_on_c, 0, 86, 86
1, 198215, Note_on_c, 0, 74, 83
1, 198239, Note_off_c, 0, 74, 65
1, 198243, Note_on_c, 0, 58, 98
1, 198251, Note_on_c, 0, 46, 86
1, 198259, Note_off_c, 0, 86, 65
1, 198278, Note_off_c, 0, 58, 62
1, 198281, Note_off_c, 0, 46, 66
1, 198291, Control_c, 0, 64, 94
1, 198306, Control_c, 0, 64, 69
1, 198321, Control_c, 0, 64, 0
1, 198326, Note_on_c, 0, 91, 100
1, 198329, Note_on_c, 0, 79, 98
1, 198332, Note_on_c, 0, 86, 89
1, 198336, Note_on_c, 0, 59, 92
1, 198336, Control_c, 0, 64, 48
1, 198339, Note_on_c, 0, 47, 88
1, 198358, Control_c, 0, 64, 74
1, 198372, Note_off_c, 0, 47, 68
1, 198372, Note_off_c, 0, 86, 58
1, 198372, Note_off_c, 0, 91, 64
1, 198373, Note_off_c, 0, 79, 63
1, 198373, Control_c, 0, 64, 95
1, 198378, Note_off_c, 0, 59, 60
1, 198388, Control_c, 0, 64, 127
1, 198440, Note_on_c, 0, 58, 96
1, 198442, Note_on_c, 0, 77, 105
1, 198445, Note_on_c, 0, 46, 93
1, 198445, Note_on_c, 0, 89, 101
1, 198476, Note_off_c, 0, 58, 69
1, 198478, Note_off_c, 0, 77, 67
1, 198482, Note_off_c, 0, 89, 66
1, 198482, Note_off_c, 0, 46, 61
1, 198492, Note_on_c, 0, 45, 32
1, 198497, Note_on_c, 0, 88, 6
1, 198521, Note_off_c, 0, 45, 55
1, 198544, Note_on_c, 0, 87, 106
1, 198545, Note_on_c, 0, 59, 97
1, 198545, Note_on_c, 0, 75, 106
1, 198545, Note_off_c, 0, 88, 30
1, 198554, Note_on_c, 0, 47, 83
1, 198574, Note_off_c, 0, 47, 70
1, 198574, Note_off_c, 0, 75, 62
1, 198577, Note_off_c, 0, 87, 65
1, 198581, Note_off_c, 0, 59, 66
1, 198592, Note_on_c, 0, 48, 23
1, 198627, Note_off_c, 0, 48, 0
1, 198642, Note_on_c, 0, 48, 67
1, 198643, Note_on_c, 0, 60, 98
1, 198663, Note_on_c, 0, 90, 71
1, 198685, Note_off_c, 0, 60, 64
1, 198691, Note_off_c, 0, 48, 64
1, 198694, Note_off_c, 0, 90, 61
1, 198694, Note_on_c, 0, 87, 38
1, 198700, Control_c, 0, 64, 112
1, 198714, Control_c, 0, 64, 78
1, 198726, Note_off_c, 0, 87, 43
1, 198729, Control_c, 0, 64, 0
1, 198757, Note_on_c, 0, 61, 100
1, 198763, Note_on_c, 0, 88, 92
1, 198765, Note_on_c, 0, 81, 104
1, 198765, Note_on_c, 0, 93, 108
1, 198766, Note_on_c, 0, 49, 88
1, 198789, Control_c, 0, 64, 72
1, 198793, Note_on_c, 0, 55, 43
1, 198796, Note_on_c, 0, 91, 53
1, 198804, Control_c, 0, 64, 102
1, 198808, Note_off_c, 0, 61, 63
1, 198819, Control_c, 0, 64, 127
1, 198819, Note_off_c, 0, 91, 39
1, 198820, Note_off_c, 0, 49, 63
1, 198825, Note_off_c, 0, 55, 53
1, 198828, Note_off_c, 0, 81, 57
1, 198832, Note_off_c, 0, 93, 65
1, 198845, Note_off_c, 0, 88, 63
1, 198880, Note_on_c, 0, 60, 97
1, 198890, Note_on_c, 0, 48, 83
1, 198911, Note_on_c, 0, 55, 51
1, 198922, Note_off_c, 0, 48, 65
1, 198922, Note_off_c, 0, 60, 64
1, 198944, Note_off_c, 0, 55, 54
1, 198996, Note_on_c, 0, 77, 108
1, 198997, Note_on_c, 0, 89, 104
1, 199002, Note_on_c, 0, 61, 97
1, 199006, Note_on_c, 0, 49, 92
1, 199025, Note_off_c, 0, 77, 68
1, 199026, Note_on_c, 0, 85, 48
1, 199027, Note_off_c, 0, 85, 127
1, 199030, Note_off_c, 0, 89, 68
1, 199036, Note_off_c, 0, 61, 66
1, 199036, Note_on_c, 0, 88, 35
1, 199051, Note_off_c, 0, 49, 61
1, 199073, Note_off_c, 0, 88, 32
1, 199120, Note_on_c, 0, 62, 90
1, 199142, Note_off_c, 0, 62, 67
1, 199156, Note_on_c, 0, 50, 43
1, 199185, Note_off_c, 0, 50, 48
1, 199276, Poly_aftertouch_c, 0, 90, 0
1, 199285, Note_on_c, 0, 90, 70
1, 199285, Control_c, 0, 64, 90
1, 199290, Note_on_c, 0, 82, 104
1, 199292, Note_on_c, 0, 39, 81
1, 199293, Note_on_c, 0, 94, 101
1, 199299, Control_c, 0, 64, 57
1, 199302, Note_on_c, 0, 46, 74
1, 199314, Control_c, 0, 64, 0
1, 199359, Control_c, 0, 64, 65
1, 199362, Note_off_c, 0, 39, 62
1, 199374, Control_c, 0, 64, 91
1, 199389, Control_c, 0, 64, 127
1, 199404, Control_c, 0, 64, 127
1, 199412, Note_on_c, 0, 54, 89
1, 199437, Note_off_c, 0, 82, 31
1, 199445, Note_off_c, 0, 46, 62
1, 199455, Note_off_c, 0, 54, 62
1, 199461, Note_off_c, 0, 94, 60
1, 199511, Note_on_c, 0, 39, 75
1, 199517, Note_on_c, 0, 46, 80
1, 199573, Note_off_c, 0, 39, 63
1, 199580, Note_on_c, 0, 82, 93
1, 199582, Note_on_c, 0, 89, 82
1, 199582, Note_on_c, 0, 94, 91
1, 199601, Note_on_c, 0, 54, 83
1, 199615, Note_off_c, 0, 46, 64
1, 199620, Note_off_c, 0, 82, 64
1, 199624, Note_off_c, 0, 54, 69
1, 199636, Note_off_c, 0, 94, 65
1, 199640, Note_off_c, 0, 89, 64
1, 199655, Note_off_c, 0, 90, 23
1, 199671, Control_c, 0, 64, 108
1, 199686, Control_c, 0, 64, 81
1, 199692, Note_on_c, 0, 82, 106
1, 199695, Note_on_c, 0, 94, 90
1, 199696, Note_on_c, 0, 87, 90
1, 199701, Control_c, 0, 64, 57
1, 199708, Note_on_c, 0, 51, 78
1, 199716, Control_c, 0, 64, 18
1, 199719, Note_on_c, 0, 58, 77
1, 199731, Control_c, 0, 64, 67
1, 199746, Control_c, 0, 64, 84
1, 199761, Control_c, 0, 64, 116
1, 199774, Note_off_c, 0, 51, 60
1, 199776, Control_c, 0, 64, 127
1, 199782, Note_off_c, 0, 82, 56
1, 199811, Note_on_c, 0, 66, 89
1, 199813, Note_off_c, 0, 94, 63
1, 199857, Note_off_c, 0, 58, 60
1, 199859, Note_off_c, 0, 87, 60
1, 199861, Note_off_c, 0, 66, 66
1, 199928, Note_on_c, 0, 51, 75
1, 199943, Note_on_c, 0, 58, 64
1, 199985, Note_on_c, 0, 57, 33
1, 199986, Note_off_c, 0, 51, 58
1, 200003, Note_on_c, 0, 82, 94
1, 200004, Note_on_c, 0, 89, 81
1, 200006, Note_on_c, 0, 94, 86
1, 200016, Note_on_c, 0, 66, 85
1, 200021, Note_off_c, 0, 57, 43
1, 200033, Note_off_c, 0, 66, 75
1, 200041, Note_off_c, 0, 82, 64
1, 200053, Note_off_c, 0, 58, 63
1, 200053, Note_off_c, 0, 89, 65
1, 200059, Note_off_c, 0, 94, 62
1, 200109, Control_c, 0, 64, 107
1, 200118, Note_on_c, 0, 90, 104
1, 200120, Note_on_c, 0, 82, 101
1, 200123, Note_on_c, 0, 94, 85
1, 200123, Control_c, 0, 64, 81
1, 200138, Control_c, 0, 64, 53
1, 200145, Note_on_c, 0, 39, 72
1, 200148, Note_off_c, 0, 82, 65
1, 200153, Control_c, 0, 64, 57
1, 200168, Control_c, 0, 64, 73
1, 200172, Note_off_c, 0, 94, 65
1, 200177, Note_off_c, 0, 90, 61
1, 200182, Control_c, 0, 64, 94
1, 200197, Control_c, 0, 64, 127
1, 200207, Note_off_c, 0, 39, 53
1, 200216, Note_on_c, 0, 82, 93
1, 200217, Note_on_c, 0, 89, 90
1, 200220, Note_on_c, 0, 94, 73
1, 200226, Note_on_c, 0, 47, 42
1, 200238, Note_on_c, 0, 54, 79
1, 200250, Note_off_c, 0, 82, 66
1, 200256, Note_off_c, 0, 47, 57
1, 200267, Note_off_c, 0, 54, 63
1, 200268, Note_off_c, 0, 94, 66
1, 200268, Note_off_c, 0, 89, 66
1, 200321, Note_on_c, 0, 94, 85
1, 200324, Note_on_c, 0, 82, 101
1, 200332, Note_on_c, 0, 39, 77
1, 200332, Note_on_c, 0, 87, 68
1, 200333, Note_off_c, 0, 87, 127
1, 200333, Note_on_c, 0, 46, 83
1, 200342, Note_on_c, 0, 86, 71
1, 200344, Note_off_c, 0, 82, 60
1, 200355, Note_on_c, 0, 90, 30
1, 200360, Note_off_c, 0, 86, 68
1, 200388, Note_off_c, 0, 94, 62
1, 200390, Note_off_c, 0, 39, 62
1, 200393, Note_off_c, 0, 90, 44
1, 200414, Note_on_c, 0, 54, 84
1, 200427, Note_off_c, 0, 46, 64
1, 200435, Note_off_c, 0, 54, 66
1, 200479, Control_c, 0, 64, 115
1, 200480, Note_on_c, 0, 86, 5
1, 200494, Control_c, 0, 64, 87
1, 200506, Note_off_c, 0, 86, 0
1, 200509, Control_c, 0, 64, 61
1, 200521, Note_on_c, 0, 82, 103
1, 200524, Note_on_c, 0, 94, 101
1, 200524, Control_c, 0, 64, 0
1, 200536, Note_on_c, 0, 51, 73
1, 200539, Note_on_c, 0, 58, 79
1, 200543, Poly_aftertouch_c, 0, 86, 127
1, 200550, Note_on_c, 0, 92, 58
1, 200551, Note_off_c, 0, 92, 127
1, 200554, Control_c, 0, 64, 67
1, 200569, Control_c, 0, 64, 87
1, 200573, Note_off_c, 0, 51, 60
1, 200583, Control_c, 0, 64, 116
1, 200599, Note_off_c, 0, 82, 60
1, 200605, Control_c, 0, 64, 127
1, 200613, Poly_aftertouch_c, 0, 86, 0
1, 200634, Note_off_c, 0, 94, 64
1, 200646, Note_on_c, 0, 66, 78
1, 200673, Note_off_c, 0, 58, 53
1, 200689, Note_off_c, 0, 66, 63
1, 200750, Note_on_c, 0, 87, 93
1, 200752, Note_on_c, 0, 51, 70
1, 200752, Note_on_c, 0, 94, 95
1, 200753, Note_on_c, 0, 82, 92
1, 200759, Note_on_c, 0, 58, 74
1, 200775, Note_off_c, 0, 82, 64
1, 200789, Note_off_c, 0, 51, 64
1, 200791, Note_off_c, 0, 87, 65
1, 200814, Note_off_c, 0, 94, 63
1, 200832, Note_on_c, 0, 66, 78
1, 200854, Note_off_c, 0, 66, 70
1, 200870, Note_off_c, 0, 58, 62
1, 200971, Note_on_c, 0, 90, 80
1, 200975, Note_on_c, 0, 82, 107
1, 200976, Control_c, 0, 64, 94
1, 200978, Note_on_c, 0, 94, 109
1, 200979, Note_on_c, 0, 39, 78
1, 200983, Note_on_c, 0, 46, 90
1, 200990, Control_c, 0, 64, 67
1, 201005, Control_c, 0, 64, 0
1, 201025, Note_on_c, 0, 93, 36
1, 201035, Control_c, 0, 64, 62
1, 201039, Note_off_c, 0, 39, 62
1, 201050, Control_c, 0, 64, 79
1, 201063, Note_off_c, 0, 93, 38
1, 201065, Control_c, 0, 64, 99
1, 201079, Note_on_c, 0, 54, 81
1, 201081, Control_c, 0, 64, 121
1, 201095, Control_c, 0, 64, 127
1, 201114, Note_off_c, 0, 46, 62
1, 201120, Note_off_c, 0, 94, 59
1, 201128, Note_off_c, 0, 54, 63
1, 201134, Note_off_c, 0, 82, 59
1, 201176, Note_on_c, 0, 39, 74
1, 201189, Note_on_c, 0, 46, 80
1, 201250, Note_off_c, 0, 39, 62
1, 201272, Note_off_c, 0, 90, 61
1, 201287, Note_on_c, 0, 54, 80
1, 201295, Note_on_c, 0, 89, 86
1, 201297, Note_on_c, 0, 82, 101
1, 201299, Note_off_c, 0, 46, 63
1, 201300, Note_on_c, 0, 94, 90
1, 201307, Note_off_c, 0, 54, 69
1, 201332, Note_off_c, 0, 82, 66
1, 201348, Note_on_c, 0, 91, 41
1, 201355, Note_off_c, 0, 89, 64
1, 201364, Note_off_c, 0, 94, 65
1, 201373, Note_off_c, 0, 91, 55
1, 201399, Control_c, 0, 64, 103
1, 201403, Note_on_c, 0, 94, 82
1, 201406, Note_on_c, 0, 82, 109
1, 201411, Note_on_c, 0, 51, 81
1, 201414, Control_c, 0, 64, 75
1, 201424, Note_on_c, 0, 88, 76
1, 201424, Note_on_c, 0, 93, 45
1, 201426, Note_on_c, 0, 58, 82
1, 201427, Note_on_c, 0, 91, 37
1, 201429, Control_c, 0, 64, 0
1, 201440, Note_on_c, 0, 87, 56
1, 201459, Note_off_c, 0, 91, 33
1, 201459, Control_c, 0, 64, 64
1, 201471, Note_off_c, 0, 51, 60
1, 201474, Control_c, 0, 64, 84
1, 201489, Control_c, 0, 64, 120
1, 201503, Control_c, 0, 64, 127
1, 201534, Note_on_c, 0, 66, 82
1, 201539, Note_off_c, 0, 94, 59
1, 201548, Note_off_c, 0, 87, 45
1, 201558, Note_off_c, 0, 66, 69
1, 201559, Note_off_c, 0, 93, 27
1, 201564, Note_off_c, 0, 82, 56
1, 201567, Note_off_c, 0, 58, 62
1, 201572, Note_off_c, 0, 88, 37
1, 201627, Note_on_c, 0, 51, 73
1, 201635, Note_on_c, 0, 58, 76
1, 201686, Note_off_c, 0, 51, 61
1, 201716, Note_on_c, 0, 89, 81
1, 201716, Note_on_c, 0, 82, 98
1, 201718, Note_on_c, 0, 66, 78
1, 201718, Note_on_c, 0, 94, 89
1, 201739, Note_off_c, 0, 66, 72
1, 201752, Note_off_c, 0, 82, 65
1, 201753, Note_off_c, 0, 58, 64
1, 201761, Note_off_c, 0, 89, 65
1, 201776, Note_off_c, 0, 94, 65
1, 201828, Control_c, 0, 64, 91
1, 201830, Note_on_c, 0, 82, 101
1, 201830, Note_on_c, 0, 90, 103
1, 201832, Note_on_c, 0, 94, 86
1, 201843, Control_c, 0, 64, 67
1, 201844, Note_on_c, 0, 39, 77
1, 201853, Note_on_c, 0, 46, 76
1, 201858, Control_c, 0, 64, 0
1, 201865, Note_off_c, 0, 82, 64
1, 201870, Note_on_c, 0, 80, 39
1, 201874, Control_c, 0, 64, 64
1, 201880, Note_on_c, 0, 92, 13
1, 201881, Note_off_c, 0, 92, 127
1, 201885, Note_off_c, 0, 94, 65
1, 201889, Control_c, 0, 64, 78
1, 201898, Note_off_c, 0, 90, 61
1, 201900, Note_off_c, 0, 80, 35
1, 201904, Control_c, 0, 64, 102
1, 201908, Note_off_c, 0, 39, 44
1, 201918, Control_c, 0, 64, 127
1, 201932, Note_on_c, 0, 82, 96
1, 201932, Note_on_c, 0, 89, 89
1, 201934, Note_on_c, 0, 94, 76
1, 201940, Note_on_c, 0, 54, 83
1, 201966, Note_off_c, 0, 46, 61
1, 201967, Note_on_c, 0, 91, 19
1, 201967, Note_off_c, 0, 82, 65
1, 201969, Note_off_c, 0, 54, 63
1, 201981, Note_off_c, 0, 94, 65
1, 201983, Note_off_c, 0, 89, 66
1, 202008, Note_off_c, 0, 91, 31
1, 202029, Note_on_c, 0, 94, 83
1, 202029, Note_on_c, 0, 82, 99
1, 202035, Note_on_c, 0, 46, 79
1, 202035, Note_on_c, 0, 39, 69
1, 202037, Note_on_c, 0, 87, 87
1, 202062, Note_off_c, 0, 82, 63
1, 202077, Note_off_c, 0, 87, 66
1, 202088, Note_off_c, 0, 94, 65
1, 202107, Note_off_c, 0, 39, 63
1, 202137, Note_on_c, 0, 54, 82
1, 202148, Note_off_c, 0, 46, 63
1, 202159, Note_off_c, 0, 54, 69
1, 202237, Control_c, 0, 64, 94
1, 202251, Note_on_c, 0, 82, 103
1, 202251, Control_c, 0, 64, 63
1, 202253, Note_on_c, 0, 94, 102
1, 202254, Note_on_c, 0, 86, 96
1, 202261, Note_on_c, 0, 51, 75
1, 202266, Control_c, 0, 64, 0
1, 202269, Note_on_c, 0, 58, 86
1, 202296, Control_c, 0, 64, 56
1, 202311, Control_c, 0, 64, 78
1, 202319, Note_off_c, 0, 51, 60
1, 202325, Control_c, 0, 64, 99
1, 202340, Control_c, 0, 64, 127
1, 202341, Note_off_c, 0, 86, 60
1, 202346, Note_off_c, 0, 82, 50
1, 202371, Note_off_c, 0, 94, 64
1, 202377, Note_on_c, 0, 66, 77
1, 202394, Note_off_c, 0, 58, 61
1, 202427, Note_off_c, 0, 66, 63
1, 202476, Note_on_c, 0, 82, 91
1, 202477, Note_on_c, 0, 87, 82
1, 202478, Note_on_c, 0, 94, 91
1, 202491, Note_on_c, 0, 58, 73
1, 202521, Note_off_c, 0, 82, 62
1, 202523, Note_off_c, 0, 87, 63
1, 202523, Note_off_c, 0, 94, 65
1, 202576, Poly_aftertouch_c, 0, 51, 0
1, 202586, Note_on_c, 0, 66, 60
1, 202601, Note_off_c, 0, 66, 68
1, 202618, Note_off_c, 0, 58, 64
1, 202749, Note_on_c, 0, 52, 69
1, 202751, Note_on_c, 0, 40, 70
1, 202756, Control_c, 0, 64, 121
1, 202757, Note_on_c, 0, 78, 72
1, 202770, Note_on_c, 0, 66, 59
1, 202771, Control_c, 0, 64, 99
1, 202786, Control_c, 0, 64, 79
1, 202800, Control_c, 0, 64, 37
1, 202815, Control_c, 0, 64, 0
1, 202852, Control_c, 0, 64, 52
1, 202867, Note_on_c, 0, 70, 61
1, 202867, Control_c, 0, 64, 73
1, 202867, Note_on_c, 0, 49, 60
1, 202875, Note_on_c, 0, 73, 53
1, 202882, Control_c, 0, 64, 88
1, 202891, Note_on_c, 0, 46, 44
1, 202897, Control_c, 0, 64, 103
1, 202906, Note_off_c, 0, 70, 61
1, 202912, Note_off_c, 0, 49, 58
1, 202912, Control_c, 0, 64, 109
1, 202913, Note_off_c, 0, 73, 62
1, 202926, Note_off_c, 0, 46, 49
1, 202926, Control_c, 0, 64, 111
1, 202941, Control_c, 0, 64, 116
1, 202956, Control_c, 0, 64, 126
1, 202970, Note_off_c, 0, 78, 49
1, 202971, Control_c, 0, 64, 127
1, 202983, Note_on_c, 0, 70, 61
1, 202989, Note_on_c, 0, 73, 63
1, 202990, Note_on_c, 0, 49, 49
1, 202995, Note_off_c, 0, 66, 63
1, 202996, Note_off_c, 0, 40, 32
1, 203005, Note_on_c, 0, 46, 44
1, 203008, Note_off_c, 0, 70, 68
1, 203019, Note_off_c, 0, 73, 63
1, 203032, Note_off_c, 0, 52, 47
1, 203033, Note_off_c, 0, 49, 42
1, 203036, Note_off_c, 0, 46, 50
1, 203076, Note_on_c, 0, 77, 79
1, 203079, Note_on_c, 0, 65, 78
1, 203081, Note_on_c, 0, 41, 61
1, 203108, Note_off_c, 0, 41, 64
1, 203108, Note_off_c, 0, 65, 63
1, 203113, Note_off_c, 0, 77, 51
1, 203200, Note_on_c, 0, 42, 68
1, 203203, Note_on_c, 0, 64, 77
1, 203203, Note_on_c, 0, 76, 73
1, 203204, Note_on_c, 0, 54, 65
1, 203223, Control_c, 0, 64, 107
1, 203238, Control_c, 0, 64, 85
1, 203253, Control_c, 0, 64, 64
1, 203267, Control_c, 0, 64, 0
1, 203294, Note_on_c, 0, 70, 65
1, 203297, Control_c, 0, 64, 67
1, 203303, Note_on_c, 0, 73, 62
1, 203308, Note_on_c, 0, 46, 62
1, 203312, Control_c, 0, 64, 86
1, 203314, Note_on_c, 0, 49, 58
1, 203327, Control_c, 0, 64, 108
1, 203338, Note_off_c, 0, 76, 46
1, 203341, Control_c, 0, 64, 127
1, 203344, Note_off_c, 0, 73, 61
1, 203347, Note_off_c, 0, 70, 62
1, 203356, Note_off_c, 0, 46, 62
1, 203356, Control_c, 0, 64, 127
1, 203382, Note_off_c, 0, 64, 0
1, 203400, Note_on_c, 0, 64, 35
1, 203402, Note_on_c, 0, 70, 66
1, 203404, Note_on_c, 0, 73, 68
1, 203425, Note_off_c, 0, 64, 60
1, 203430, Note_on_c, 0, 46, 39
1, 203438, Note_off_c, 0, 70, 61
1, 203443, Note_off_c, 0, 54, 62
1, 203446, Note_off_c, 0, 73, 62
1, 203456, Note_off_c, 0, 49, 61
1, 203462, Note_off_c, 0, 46, 56
1, 203466, Note_off_c, 0, 42, 57
1, 203501, Note_on_c, 0, 77, 89
1, 203502, Note_on_c, 0, 65, 85
1, 203520, Note_on_c, 0, 53, 73
1, 203532, Note_on_c, 0, 41, 65
1, 203540, Note_off_c, 0, 65, 62
1, 203545, Note_off_c, 0, 53, 68
1, 203546, Note_off_c, 0, 77, 62
1, 203558, Note_off_c, 0, 41, 65
1, 203602, Control_c, 0, 64, 90
1, 203617, Control_c, 0, 64, 68
1, 203618, Note_on_c, 0, 67, 89
1, 203623, Note_on_c, 0, 79, 82
1, 203627, Note_on_c, 0, 40, 74
1, 203627, Note_on_c, 0, 52, 77
1, 203631, Control_c, 0, 64, 56
1, 203646, Control_c, 0, 64, 68
1, 203647, Note_off_c, 0, 79, 65
1, 203656, Note_off_c, 0, 67, 63
1, 203661, Control_c, 0, 64, 79
1, 203676, Control_c, 0, 64, 104
1, 203677, Note_on_c, 0, 77, 11
1, 203691, Control_c, 0, 64, 127
1, 203720, Note_off_c, 0, 77, 33
1, 203721, Note_on_c, 0, 78, 95
1, 203722, Note_on_c, 0, 49, 71
1, 203722, Note_on_c, 0, 66, 93
1, 203728, Note_off_c, 0, 40, 63
1, 203734, Note_on_c, 0, 46, 66
1, 203759, Note_off_c, 0, 52, 63
1, 203763, Note_off_c, 0, 78, 66
1, 203764, Note_off_c, 0, 66, 65
1, 203765, Control_c, 0, 64, 100
1, 203779, Control_c, 0, 64, 94
1, 203781, Note_off_c, 0, 46, 60
1, 203783, Note_off_c, 0, 49, 61
1, 203794, Control_c, 0, 64, 95
1, 203809, Control_c, 0, 64, 105
1, 203819, Note_on_c, 0, 41, 74
1, 203821, Note_on_c, 0, 53, 78
1, 203821, Note_on_c, 0, 77, 84
1, 203821, Note_on_c, 0, 65, 86
1, 203824, Control_c, 0, 64, 127
1, 203868, Control_c, 0, 64, 101
1, 203883, Control_c, 0, 64, 73
1, 203898, Control_c, 0, 64, 23
1, 203901, Note_off_c, 0, 41, 65
1, 203909, Note_on_c, 0, 49, 74
1, 203912, Note_on_c, 0, 73, 75
1, 203913, Note_off_c, 0, 77, 59
1, 203913, Control_c, 0, 64, 53
1, 203914, Note_on_c, 0, 70, 72
1, 203921, Note_on_c, 0, 46, 70
1, 203928, Control_c, 0, 64, 70
1, 203931, Note_off_c, 0, 53, 64
1, 203934, Note_off_c, 0, 65, 62
1, 203942, Control_c, 0, 64, 90
1, 203957, Control_c, 0, 64, 127
1, 203979, Note_off_c, 0, 70, 63
1, 203991, Note_off_c, 0, 73, 62
1, 203991, Note_off_c, 0, 49, 61
1, 204009, Note_off_c, 0, 46, 62
1, 204020, Note_on_c, 0, 42, 78
1, 204020, Note_on_c, 0, 54, 83
1, 204020, Note_on_c, 0, 64, 91
1, 204022, Note_on_c, 0, 76, 85
1, 204031, Control_c, 0, 64, 101
1, 204046, Control_c, 0, 64, 89
1, 204061, Control_c, 0, 64, 90
1, 204076, Control_c, 0, 64, 99
1, 204090, Control_c, 0, 64, 121
1, 204105, Control_c, 0, 64, 127
1, 204110, Note_on_c, 0, 73, 75
1, 204116, Note_on_c, 0, 49, 74
1, 204116, Note_on_c, 0, 70, 75
1, 204116, Note_off_c, 0, 54, 61
1, 204122, Note_off_c, 0, 76, 62
1, 204127, Note_on_c, 0, 46, 70
1, 204130, Note_off_c, 0, 42, 62
1, 204133, Note_off_c, 0, 64, 60
1, 204164, Note_off_c, 0, 46, 62
1, 204168, Note_off_c, 0, 49, 61
1, 204178, Note_off_c, 0, 70, 61
1, 204192, Note_off_c, 0, 73, 60
1, 204219, Note_on_c, 0, 53, 87
1, 204224, Note_on_c, 0, 77, 92
1, 204225, Note_on_c, 0, 65, 91
1, 204227, Note_on_c, 0, 41, 83
1, 204312, Note_on_c, 0, 73, 79
1, 204313, Note_on_c, 0, 70, 79
1, 204316, Note_off_c, 0, 77, 63
1, 204317, Note_on_c, 0, 46, 80
1, 204321, Note_off_c, 0, 65, 64
1, 204327, Note_off_c, 0, 41, 65
1, 204331, Note_off_c, 0, 53, 63
1, 204349, Note_on_c, 0, 49, 17
1, 204365, Note_off_c, 0, 46, 62
1, 204366, Note_on_c, 0, 50, 23
1, 204367, Note_off_c, 0, 70, 62
1, 204375, Note_off_c, 0, 73, 62
1, 204392, Note_off_c, 0, 49, 30
1, 204409, Note_off_c, 0, 50, 39
1, 204426, Control_c, 0, 64, 112
1, 204430, Note_on_c, 0, 66, 98
1, 204432, Note_on_c, 0, 52, 95
1, 204435, Note_on_c, 0, 78, 88
1, 204436, Note_on_c, 0, 40, 88
1, 204441, Control_c, 0, 64, 84
1, 204455, Control_c, 0, 64, 0
1, 204515, Control_c, 0, 64, 74
1, 204529, Control_c, 0, 64, 97
1, 204532, Note_on_c, 0, 73, 71
1, 204535, Note_on_c, 0, 70, 72
1, 204539, Note_on_c, 0, 49, 79
1, 204542, Note_on_c, 0, 46, 73
1, 204544, Control_c, 0, 64, 127
1, 204567, Note_off_c, 0, 78, 60
1, 204583, Note_off_c, 0, 46, 63
1, 204585, Note_off_c, 0, 70, 61
1, 204586, Note_off_c, 0, 73, 63
1, 204592, Note_off_c, 0, 49, 61
1, 204634, Note_on_c, 0, 49, 69
1, 204635, Note_on_c, 0, 73, 68
1, 204637, Note_on_c, 0, 70, 68
1, 204645, Note_on_c, 0, 46, 69
1, 204655, Note_off_c, 0, 66, 63
1, 204661, Note_off_c, 0, 49, 66
1, 204664, Note_off_c, 0, 52, 64
1, 204667, Note_off_c, 0, 40, 57
1, 204670, Note_off_c, 0, 70, 66
1, 204671, Note_off_c, 0, 46, 65
1, 204682, Note_off_c, 0, 73, 63
1, 204693, Poly_aftertouch_c, 0, 41, 127
1, 204718, Poly_aftertouch_c, 0, 41, 0
1, 204732, Note_on_c, 0, 77, 93
1, 204733, Note_on_c, 0, 65, 91
1, 204734, Note_on_c, 0, 41, 58
1, 204739, Note_on_c, 0, 53, 87
1, 204765, Note_off_c, 0, 53, 67
1, 204774, Note_off_c, 0, 65, 67
1, 204775, Note_off_c, 0, 41, 66
1, 204775, Note_off_c, 0, 77, 65
1, 204840, Note_on_c, 0, 64, 98
1, 204840, Note_on_c, 0, 42, 81
1, 204840, Control_c, 0, 64, 103
1, 204841, Note_on_c, 0, 76, 97
1, 204843, Note_on_c, 0, 54, 82
1, 204855, Control_c, 0, 64, 74
1, 204870, Control_c, 0, 64, 0
1, 204900, Control_c, 0, 64, 62
1, 204914, Control_c, 0, 64, 80
1, 204929, Control_c, 0, 64, 127
1, 204933, Note_on_c, 0, 70, 78
1, 204939, Note_on_c, 0, 73, 74
1, 204945, Note_on_c, 0, 46, 77
1, 204948, Note_on_c, 0, 49, 75
1, 204965, Note_off_c, 0, 76, 60
1, 204975, Note_off_c, 0, 64, 55
1, 204989, Note_off_c, 0, 70, 62
1, 204989, Note_off_c, 0, 73, 63
1, 205002, Note_off_c, 0, 46, 62
1, 205031, Note_on_c, 0, 70, 78
1, 205032, Note_on_c, 0, 73, 76
1, 205039, Note_on_c, 0, 64, 52
1, 205042, Note_on_c, 0, 46, 55
1, 205061, Note_off_c, 0, 54, 62
1, 205067, Note_off_c, 0, 64, 49
1, 205072, Note_off_c, 0, 49, 63
1, 205073, Note_off_c, 0, 70, 65
1, 205075, Note_off_c, 0, 46, 62
1, 205080, Note_off_c, 0, 42, 63
1, 205085, Note_off_c, 0, 73, 64
1, 205135, Note_on_c, 0, 77, 95
1, 205136, Note_on_c, 0, 65, 86
1, 205141, Note_on_c, 0, 53, 90
1, 205144, Note_on_c, 0, 41, 87
1, 205174, Note_off_c, 0, 53, 64
1, 205174, Control_c, 0, 64, 111
1, 205175, Note_off_c, 0, 41, 70
1, 205177, Note_off_c, 0, 65, 66
1, 205178, Note_off_c, 0, 77, 65
1, 205189, Control_c, 0, 64, 83
1, 205204, Control_c, 0, 64, 70
1, 205219, Control_c, 0, 64, 77
1, 205234, Control_c, 0, 64, 97
1, 205235, Note_on_c, 0, 67, 103
1, 205237, Note_on_c, 0, 52, 96
1, 205240, Note_on_c, 0, 40, 89
1, 205240, Note_on_c, 0, 79, 96
1, 205249, Control_c, 0, 64, 127
1, 205271, Note_off_c, 0, 67, 66
1, 205274, Note_off_c, 0, 79, 65
1, 205278, Control_c, 0, 64, 117
1, 205293, Control_c, 0, 64, 79
1, 205308, Control_c, 0, 64, 0
1, 205331, Note_on_c, 0, 66, 98
1, 205332, Note_on_c, 0, 78, 95
1, 205337, Note_on_c, 0, 49, 81
1, 205337, Control_c, 0, 64, 69
1, 205341, Note_on_c, 0, 46, 77
1, 205344, Note_off_c, 0, 40, 60
1, 205351, Control_c, 0, 64, 92
1, 205366, Control_c, 0, 64, 127
1, 205377, Note_off_c, 0, 52, 62
1, 205377, Note_off_c, 0, 66, 65
1, 205378, Note_off_c, 0, 78, 67
1, 205395, Note_off_c, 0, 49, 61
1, 205395, Control_c, 0, 64, 91
1, 205404, Note_off_c, 0, 46, 61
1, 205410, Control_c, 0, 64, 0
1, 205429, Note_on_c, 0, 53, 92
1, 205430, Note_on_c, 0, 41, 85
1, 205432, Note_on_c, 0, 65, 95
1, 205433, Note_on_c, 0, 77, 93
1, 205440, Control_c, 0, 64, 64
1, 205455, Control_c, 0, 64, 82
1, 205469, Control_c, 0, 64, 127
1, 205520, Note_on_c, 0, 49, 82
1, 205521, Note_on_c, 0, 73, 79
1, 205524, Note_on_c, 0, 70, 80
1, 205526, Note_off_c, 0, 41, 66
1, 205527, Note_on_c, 0, 46, 78
1, 205529, Note_off_c, 0, 77, 59
1, 205529, Control_c, 0, 64, 113
1, 205544, Control_c, 0, 64, 78
1, 205547, Note_off_c, 0, 53, 65
1, 205547, Note_off_c, 0, 65, 63
1, 205559, Control_c, 0, 64, 34
1, 205574, Control_c, 0, 64, 59
1, 205580, Note_off_c, 0, 49, 63
1, 205582, Note_off_c, 0, 70, 61
1, 205588, Control_c, 0, 64, 84
1, 205594, Note_off_c, 0, 73, 61
1, 205600, Note_off_c, 0, 46, 61
1, 205603, Control_c, 0, 64, 127
1, 205630, Note_on_c, 0, 64, 102
1, 205631, Note_on_c, 0, 54, 91
1, 205631, Note_on_c, 0, 76, 93
1, 205633, Note_on_c, 0, 42, 83
1, 205662, Control_c, 0, 64, 109
1, 205677, Control_c, 0, 64, 76
1, 205692, Control_c, 0, 64, 0
1, 205707, Control_c, 0, 64, 63
1, 205719, Note_on_c, 0, 73, 76
1, 205722, Control_c, 0, 64, 80
1, 205729, Note_off_c, 0, 76, 66
1, 205729, Note_on_c, 0, 70, 77
1, 205730, Note_on_c, 0, 49, 79
1, 205731, Note_on_c, 0, 46, 83
1, 205736, Note_off_c, 0, 64, 62
1, 205736, Control_c, 0, 64, 114
1, 205740, Note_off_c, 0, 54, 59
1, 205748, Note_off_c, 0, 42, 60
1, 205751, Control_c, 0, 64, 127
1, 205773, Note_off_c, 0, 46, 63
1, 205778, Note_off_c, 0, 49, 60
1, 205782, Note_off_c, 0, 70, 62
1, 205792, Note_off_c, 0, 73, 61
1, 205821, Note_on_c, 0, 65, 96
1, 205824, Note_on_c, 0, 77, 96
1, 205825, Note_on_c, 0, 53, 93
1, 205842, Note_on_c, 0, 41, 87
1, 205903, Note_on_c, 0, 73, 85
1, 205910, Note_on_c, 0, 70, 81
1, 205912, Note_off_c, 0, 65, 64
1, 205916, Note_on_c, 0, 49, 82
1, 205920, Note_on_c, 0, 46, 79
1, 205922, Poly_aftertouch_c, 0, 76, 127
1, 205925, Note_off_c, 0, 77, 59
1, 205936, Note_off_c, 0, 53, 64
1, 205940, Note_off_c, 0, 41, 64
1, 205949, Note_off_c, 0, 70, 58
1, 205952, Poly_aftertouch_c, 0, 76, 0
1, 205955, Note_off_c, 0, 73, 65
1, 205957, Note_off_c, 0, 49, 61
1, 205958, Note_off_c, 0, 46, 64
1, 206026, Control_c, 0, 64, 112
1, 206033, Note_on_c, 0, 52, 102
1, 206036, Note_on_c, 0, 40, 94
1, 206036, Note_on_c, 0, 78, 112
1, 206040, Note_on_c, 0, 90, 99
1, 206041, Control_c, 0, 64, 82
1, 206056, Control_c, 0, 64, 0
1, 206101, Note_off_c, 0, 78, 0
1, 206101, Control_c, 0, 64, 42
1, 206116, Note_on_c, 0, 78, 64
1, 206116, Control_c, 0, 64, 76
1, 206131, Control_c, 0, 64, 98
1, 206135, Note_on_c, 0, 82, 83
1, 206141, Note_on_c, 0, 85, 65
1, 206143, Note_on_c, 0, 46, 77
1, 206145, Control_c, 0, 64, 127
1, 206146, Note_on_c, 0, 49, 76
1, 206155, Note_off_c, 0, 90, 56
1, 206175, Note_off_c, 0, 85, 63
1, 206179, Note_off_c, 0, 49, 61
1, 206187, Note_off_c, 0, 46, 63
1, 206188, Note_off_c, 0, 82, 63
1, 206213, Note_off_c, 0, 40, 0
1, 206220, Note_off_c, 0, 78, 0
1, 206230, Note_on_c, 0, 85, 85
1, 206232, Note_on_c, 0, 82, 75
1, 206234, Note_on_c, 0, 49, 80
1, 206237, Note_on_c, 0, 78, 39
1, 206238, Note_on_c, 0, 46, 69
1, 206250, Poly_aftertouch_c, 0, 40, 127
1, 206259, Note_on_c, 0, 40, 4
1, 206260, Note_off_c, 0, 78, 59
1, 206261, Note_off_c, 0, 49, 67
1, 206265, Note_off_c, 0, 52, 65
1, 206268, Note_off_c, 0, 82, 62
1, 206275, Note_off_c, 0, 46, 60
1, 206280, Note_off_c, 0, 85, 65
1, 206280, Note_off_c, 0, 40, 44
1, 206309, Poly_aftertouch_c, 0, 41, 127
1, 206327, Note_on_c, 0, 77, 97
1, 206328, Note_on_c, 0, 41, 54
1, 206328, Note_on_c, 0, 89, 98
1, 206335, Note_on_c, 0, 53, 91
1, 206364, Note_off_c, 0, 53, 67
1, 206369, Note_off_c, 0, 77, 65
1, 206371, Note_off_c, 0, 41, 67
1, 206372, Note_off_c, 0, 89, 67
1, 206426, Control_c, 0, 64, 108
1, 206433, Note_on_c, 0, 42, 88
1, 206433, Note_on_c, 0, 76, 100
1, 206434, Note_on_c, 0, 88, 96
1, 206435, Note_on_c, 0, 54, 94
1, 206441, Control_c, 0, 64, 77
1, 206456, Control_c, 0, 64, 0
1, 206486, Control_c, 0, 64, 58
1, 206501, Control_c, 0, 64, 77
1, 206515, Control_c, 0, 64, 103
1, 206521, Note_on_c, 0, 82, 80
1, 206521, Note_on_c, 0, 85, 74
1, 206530, Control_c, 0, 64, 127
1, 206536, Note_on_c, 0, 46, 79
1, 206541, Note_on_c, 0, 49, 77
1, 206557, Note_off_c, 0, 88, 60
1, 206558, Note_off_c, 0, 76, 58
1, 206573, Note_off_c, 0, 82, 63
1, 206575, Note_off_c, 0, 85, 64
1, 206628, Note_on_c, 0, 85, 78
1, 206631, Note_on_c, 0, 82, 80
1, 206646, Note_on_c, 0, 76, 49
1, 206661, Note_off_c, 0, 54, 63
1, 206664, Note_off_c, 0, 82, 60
1, 206666, Note_off_c, 0, 76, 62
1, 206671, Note_off_c, 0, 49, 62
1, 206676, Note_off_c, 0, 85, 65
1, 206679, Note_off_c, 0, 46, 63
1, 206680, Note_off_c, 0, 42, 64
1, 206721, Note_on_c, 0, 89, 95
1, 206722, Note_on_c, 0, 77, 92
1, 206729, Note_on_c, 0, 53, 94
1, 206733, Note_on_c, 0, 41, 86
1, 206757, Note_off_c, 0, 53, 65
1, 206760, Note_off_c, 0, 77, 65
1, 206763, Note_off_c, 0, 41, 69
1, 206766, Note_off_c, 0, 89, 67
1, 206790, Control_c, 0, 64, 87
1, 206805, Control_c, 0, 64, 69
1, 206820, Control_c, 0, 64, 69
1, 206823, Note_on_c, 0, 52, 96
1, 206823, Note_on_c, 0, 79, 100
1, 206827, Note_on_c, 0, 91, 100
1, 206828, Note_on_c, 0, 40, 94
1, 206835, Control_c, 0, 64, 87
1, 206849, Control_c, 0, 64, 127
1, 206858, Note_off_c, 0, 79, 68
1, 206858, Note_off_c, 0, 91, 61
1, 206881, Note_on_c, 0, 89, 7
1, 206882, Note_off_c, 0, 89, 127
1, 206909, Control_c, 0, 64, 109
1, 206918, Note_on_c, 0, 90, 103
1, 206920, Note_on_c, 0, 78, 100
1, 206924, Control_c, 0, 64, 72
1, 206927, Note_on_c, 0, 49, 83
1, 206931, Note_on_c, 0, 46, 79
1, 206939, Control_c, 0, 64, 0
1, 206942, Note_off_c, 0, 40, 62
1, 206954, Control_c, 0, 64, 54
1, 206958, Note_off_c, 0, 52, 64
1, 206963, Note_off_c, 0, 78, 63
1, 206966, Note_off_c, 0, 90, 65
1, 206968, Control_c, 0, 64, 78
1, 206969, Note_off_c, 0, 46, 64
1, 206975, Note_off_c, 0, 49, 61
1, 206983, Control_c, 0, 64, 127
1, 207016, Note_on_c, 0, 41, 82
1, 207016, Note_on_c, 0, 89, 94
1, 207017, Note_on_c, 0, 53, 101
1, 207019, Note_on_c, 0, 77, 96
1, 207028, Control_c, 0, 64, 85
1, 207042, Control_c, 0, 64, 65
1, 207057, Control_c, 0, 64, 66
1, 207072, Control_c, 0, 64, 84
1, 207087, Control_c, 0, 64, 127
1, 207104, Note_on_c, 0, 85, 85
1, 207109, Note_on_c, 0, 49, 82
1, 207110, Note_on_c, 0, 82, 82
1, 207115, Note_on_c, 0, 46, 80
1, 207117, Note_off_c, 0, 41, 63
1, 207117, Note_off_c, 0, 89, 62
1, 207131, Note_off_c, 0, 53, 63
1, 207131, Note_off_c, 0, 77, 62
1, 207131, Control_c, 0, 64, 93
1, 207146, Control_c, 0, 64, 64
1, 207160, Control_c, 0, 64, 0
1, 207165, Note_off_c, 0, 49, 63
1, 207165, Note_off_c, 0, 82, 63
1, 207175, Control_c, 0, 64, 65
1, 207177, Note_off_c, 0, 85, 61
1, 207179, Note_off_c, 0, 46, 62
1, 207190, Control_c, 0, 64, 85
1, 207205, Control_c, 0, 64, 127
1, 207207, Note_on_c, 0, 76, 107
1, 207209, Note_on_c, 0, 88, 102
1, 207210, Note_on_c, 0, 54, 98
1, 207216, Note_on_c, 0, 42, 83
1, 207297, Note_on_c, 0, 85, 83
1, 207305, Note_on_c, 0, 82, 81
1, 207307, Note_on_c, 0, 49, 84
1, 207311, Note_on_c, 0, 46, 80
1, 207314, Note_off_c, 0, 76, 61
1, 207315, Note_off_c, 0, 88, 63
1, 207318, Note_off_c, 0, 54, 61
1, 207325, Note_off_c, 0, 42, 61
1, 207353, Note_off_c, 0, 49, 63
1, 207355, Note_off_c, 0, 46, 64
1, 207366, Note_off_c, 0, 82, 62
1, 207383, Note_off_c, 0, 85, 63
1, 207406, Note_on_c, 0, 53, 102
1, 207413, Note_on_c, 0, 77, 98
1, 207413, Note_on_c, 0, 89, 98
1, 207416, Note_on_c, 0, 41, 93
1, 207442, Note_on_c, 0, 88, 55
1, 207466, Note_off_c, 0, 88, 59
1, 207493, Note_on_c, 0, 85, 83
1, 207497, Note_on_c, 0, 49, 86
1, 207502, Note_on_c, 0, 46, 78
1, 207503, Note_off_c, 0, 89, 63
1, 207504, Note_on_c, 0, 82, 81
1, 207509, Note_off_c, 0, 77, 64
1, 207511, Note_off_c, 0, 41, 66
1, 207517, Note_off_c, 0, 53, 63
1, 207544, Note_off_c, 0, 49, 63
1, 207544, Note_off_c, 0, 82, 66
1, 207545, Note_off_c, 0, 46, 60
1, 207555, Note_off_c, 0, 85, 64
1, 207609, Note_on_c, 0, 52, 101
1, 207609, Note_on_c, 0, 78, 104
1, 207611, Note_on_c, 0, 90, 99
1, 207613, Control_c, 0, 64, 86
1, 207615, Note_on_c, 0, 40, 95
1, 207628, Control_c, 0, 64, 0
1, 207687, Control_c, 0, 64, 74
1, 207702, Control_c, 0, 64, 103
1, 207715, Note_on_c, 0, 85, 71
1, 207717, Control_c, 0, 64, 127
1, 207720, Note_on_c, 0, 82, 76
1, 207723, Note_on_c, 0, 46, 81
1, 207724, Note_on_c, 0, 49, 79
1, 207740, Note_off_c, 0, 90, 57
1, 207759, Note_off_c, 0, 49, 61
1, 207770, Note_off_c, 0, 82, 63
1, 207770, Note_off_c, 0, 85, 64
1, 207770, Note_off_c, 0, 46, 61
1, 207776, Note_off_c, 0, 52, 54
1, 207789, Note_off_c, 0, 40, 0
1, 207792, Note_off_c, 0, 78, 0
1, 207805, Note_on_c, 0, 52, 62
1, 207806, Poly_aftertouch_c, 0, 85, 0
1, 207807, Poly_aftertouch_c, 0, 82, 0
1, 207812, Note_on_c, 0, 49, 79
1, 207812, Note_on_c, 0, 85, 69
1, 207815, Note_on_c, 0, 82, 70
1, 207818, Note_on_c, 0, 46, 64
1, 207824, Note_on_c, 0, 78, 35
1, 207827, Poly_aftertouch_c, 0, 40, 127
1, 207836, Note_off_c, 0, 49, 69
1, 207841, Note_off_c, 0, 52, 62
1, 207845, Note_off_c, 0, 78, 57
1, 207846, Note_off_c, 0, 46, 64
1, 207846, Note_off_c, 0, 82, 65
1, 207851, Poly_aftertouch_c, 0, 40, 0
1, 207863, Note_off_c, 0, 85, 66
1, 207877, Poly_aftertouch_c, 0, 41, 127
1, 207911, Note_on_c, 0, 41, 52
1, 207912, Note_on_c, 0, 89, 96
1, 207913, Note_on_c, 0, 77, 93
1, 207917, Note_on_c, 0, 53, 94
1, 207950, Note_off_c, 0, 53, 66
1, 207952, Note_off_c, 0, 77, 65
1, 207954, Note_off_c, 0, 89, 66
1, 207958, Note_off_c, 0, 41, 64
1, 208013, Control_c, 0, 64, 101
1, 208017, Note_on_c, 0, 76, 101
1, 208018, Note_on_c, 0, 54, 98
1, 208018, Note_on_c, 0, 88, 96
1, 208019, Note_on_c, 0, 42, 94
1, 208028, Control_c, 0, 64, 71
1, 208043, Control_c, 0, 64, 0
1, 208063, Note_on_c, 0, 44, 32
1, 208064, Note_off_c, 0, 44, 127
1, 208072, Control_c, 0, 64, 61
1, 208095, Control_c, 0, 64, 86
1, 208110, Control_c, 0, 64, 127
1, 208121, Note_on_c, 0, 82, 79
1, 208122, Note_on_c, 0, 85, 75
1, 208137, Note_on_c, 0, 49, 85
1, 208137, Note_on_c, 0, 46, 82
1, 208152, Note_off_c, 0, 88, 60
1, 208154, Note_off_c, 0, 76, 58
1, 208173, Note_off_c, 0, 82, 62
1, 208173, Note_off_c, 0, 85, 63
1, 208200, Note_off_c, 0, 49, 0
1, 208220, Note_on_c, 0, 82, 82
1, 208221, Note_on_c, 0, 85, 81
1, 208237, Poly_aftertouch_c, 0, 49, 127
1, 208240, Note_on_c, 0, 76, 42
1, 208256, Note_off_c, 0, 54, 63
1, 208262, Note_off_c, 0, 82, 65
1, 208267, Note_off_c, 0, 76, 52
1, 208268, Poly_aftertouch_c, 0, 49, 0
1, 208274, Note_off_c, 0, 46, 62
1, 208274, Note_off_c, 0, 85, 65
1, 208280, Note_off_c, 0, 42, 64
1, 208319, Note_on_c, 0, 89, 97
1, 208319, Note_on_c, 0, 77, 91
1, 208328, Note_on_c, 0, 53, 94
1, 208335, Note_on_c, 0, 41, 90
1, 208361, Note_off_c, 0, 77, 62
1, 208364, Note_off_c, 0, 41, 69
1, 208367, Note_off_c, 0, 89, 68
1, 208367, Note_off_c, 0, 53, 66
1, 208377, Control_c, 0, 64, 89
1, 208392, Control_c, 0, 64, 61
1, 208407, Control_c, 0, 64, 0
1, 208421, Control_c, 0, 64, 66
1, 208422, Note_on_c, 0, 52, 103
1, 208424, Note_on_c, 0, 79, 88
1, 208428, Note_on_c, 0, 40, 94
1, 208430, Note_on_c, 0, 91, 100
1, 208436, Control_c, 0, 64, 84
1, 208451, Control_c, 0, 64, 127
1, 208461, Note_on_c, 0, 90, 47
1, 208462, Note_off_c, 0, 90, 127
1, 208463, Note_on_c, 0, 89, 49
1, 208464, Note_off_c, 0, 89, 127
1, 208464, Note_off_c, 0, 79, 67
1, 208464, Note_off_c, 0, 91, 62
1, 208525, Control_c, 0, 64, 91
1, 208528, Note_on_c, 0, 78, 105
1, 208528, Note_on_c, 0, 90, 103
1, 208534, Note_on_c, 0, 49, 82
1, 208537, Note_on_c, 0, 46, 78
1, 208540, Control_c, 0, 64, 79
1, 208555, Note_off_c, 0, 40, 63
1, 208555, Control_c, 0, 64, 87
1, 208569, Note_off_c, 0, 78, 65
1, 208569, Control_c, 0, 64, 122
1, 208572, Note_off_c, 0, 90, 66
1, 208574, Note_off_c, 0, 52, 62
1, 208584, Note_off_c, 0, 46, 59
1, 208584, Note_off_c, 0, 49, 60
1, 208584, Control_c, 0, 64, 127
1, 208623, Poly_aftertouch_c, 0, 48, 127
1, 208636, Note_on_c, 0, 41, 76
1, 208636, Note_on_c, 0, 77, 100
1, 208638, Note_on_c, 0, 89, 100
1, 208638, Note_on_c, 0, 53, 97
1, 208655, Poly_aftertouch_c, 0, 48, 0
1, 208692, Note_on_c, 0, 88, 11
1, 208693, Note_off_c, 0, 88, 127
1, 208718, Control_c, 0, 64, 97
1, 208732, Control_c, 0, 64, 70
1, 208736, Note_on_c, 0, 82, 85
1, 208737, Note_on_c, 0, 85, 78
1, 208747, Control_c, 0, 64, 0
1, 208748, Note_off_c, 0, 89, 63
1, 208751, Note_on_c, 0, 49, 82
1, 208753, Note_off_c, 0, 41, 62
1, 208755, Note_on_c, 0, 46, 75
1, 208758, Note_off_c, 0, 77, 61
1, 208772, Note_off_c, 0, 53, 65
1, 208777, Control_c, 0, 64, 52
1, 208792, Control_c, 0, 64, 80
1, 208805, Note_off_c, 0, 82, 63
1, 208806, Control_c, 0, 64, 112
1, 208811, Note_off_c, 0, 85, 64
1, 208821, Control_c, 0, 64, 127
1, 208823, Note_off_c, 0, 49, 59
1, 208844, Note_off_c, 0, 46, 63
1, 208862, Note_on_c, 0, 76, 105
1, 208864, Note_on_c, 0, 88, 101
1, 208867, Note_on_c, 0, 54, 99
1, 208882, Note_on_c, 0, 42, 79
1, 208914, Note_on_c, 0, 44, 31
1, 208918, Note_on_c, 0, 86, 18
1, 208928, Note_off_c, 0, 76, 55
1, 208953, Note_off_c, 0, 44, 44
1, 208960, Note_off_c, 0, 86, 43
1, 208980, Note_on_c, 0, 85, 81
1, 208990, Note_on_c, 0, 46, 78
1, 208990, Note_on_c, 0, 49, 75
1, 208991, Note_on_c, 0, 82, 63
1, 208999, Note_off_c, 0, 54, 59
1, 209010, Note_off_c, 0, 82, 61
1, 209011, Note_off_c, 0, 88, 60
1, 209013, Note_off_c, 0, 42, 28
1, 209019, Note_on_c, 0, 83, 48
1, 209019, Note_off_c, 0, 49, 66
1, 209036, Note_off_c, 0, 85, 66
1, 209037, Note_off_c, 0, 46, 63
1, 209041, Note_off_c, 0, 83, 54
1, 209178, Note_on_c, 0, 88, 103
1, 209181, Note_on_c, 0, 100, 106
1, 209183, Note_on_c, 0, 42, 96
1, 209195, Note_on_c, 0, 30, 83
1, 209218, Note_on_c, 0, 98, 40
1, 209219, Note_off_c, 0, 98, 127
1, 209234, Note_on_c, 0, 93, 21
1, 209235, Note_off_c, 0, 93, 127
1, 209347, Note_on_c, 0, 97, 94
1, 209350, Note_on_c, 0, 34, 81
1, 209350, Note_on_c, 0, 37, 86
1, 209351, Note_on_c, 0, 94, 96
1, 209379, Note_on_c, 0, 98, 51
1, 209417, Note_off_c, 0, 98, 46
1, 209419, Poly_aftertouch_c, 0, 32, 127
1, 209459, Note_off_c, 0, 100, 60
1, 209503, Note_off_c, 0, 88, 30
1, 209511, Note_off_c, 0, 97, 65
1, 209520, Note_off_c, 0, 94, 65
1, 209523, Poly_aftertouch_c, 0, 32, 0
1, 209541, Note_off_c, 0, 30, 63
1, 209547, Note_off_c, 0, 37, 63
1, 209553, Note_off_c, 0, 42, 61
1, 209554, Note_off_c, 0, 34, 63
1, 209799, Control_c, 0, 64, 123
1, 209814, Control_c, 0, 64, 117
1, 209829, Control_c, 0, 64, 112
1, 209843, Control_c, 0, 64, 107
1, 209859, Control_c, 0, 64, 102
1, 209874, Control_c, 0, 64, 97
1, 209889, Control_c, 0, 64, 91
1, 209904, Control_c, 0, 64, 85
1, 209919, Control_c, 0, 64, 78
1, 209933, Control_c, 0, 64, 70
1, 209948, Control_c, 0, 64, 59
1, 209963, Control_c, 0, 64, 0
1, 211430, Control_c, 0, 64, 13
1, 211445, Control_c, 0, 64, 31
1, 211461, Control_c, 0, 64, 42
1, 211476, Control_c, 0, 64, 49
1, 211491, Control_c, 0, 64, 54
1, 211505, Control_c, 0, 64, 57
1, 211520, Control_c, 0, 64, 60
1, 211535, Control_c, 0, 64, 62
1, 211550, Control_c, 0, 64, 63
1, 211564, Control_c, 0, 64, 65
1, 211579, Control_c, 0, 64, 66
1, 211594, Control_c, 0, 64, 68
1, 211609, Control_c, 0, 64, 71
1, 211624, Control_c, 0, 64, 74
1, 211638, Control_c, 0, 64, 78
1, 211653, Control_c, 0, 64, 80
1, 211668, Control_c, 0, 64, 82
1, 211683, Control_c, 0, 64, 83
1, 211698, Control_c, 0, 64, 84
1, 211712, Control_c, 0, 64, 85
1, 211727, Control_c, 0, 64, 86
1, 211742, Control_c, 0, 64, 87
1, 211756, Control_c, 0, 64, 88
1, 211771, Control_c, 0, 64, 89
1, 211786, Control_c, 0, 64, 90
1, 211801, Control_c, 0, 64, 91
1, 211816, Control_c, 0, 64, 92
1, 211838, Control_c, 0, 64, 93
1, 211853, Control_c, 0, 64, 93
1, 211883, Control_c, 0, 64, 94
1, 211898, Control_c, 0, 64, 94
1, 211942, Control_c, 0, 64, 95
1, 212045, Control_c, 0, 64, 95
1, 212298, Control_c, 0, 64, 96
1, 212471, Note_on_c, 0, 78, 55
1, 212601, Control_c, 0, 64, 96
1, 212911, Note_on_c, 0, 70, 36
1, 213142, Note_on_c, 0, 77, 49
1, 213234, Note_off_c, 0, 78, 37
1, 213470, Control_c, 0, 64, 96
1, 213470, Note_on_c, 0, 75, 47
1, 213494, Note_on_c, 0, 60, 35
1, 213499, Control_c, 0, 64, 95
1, 213514, Control_c, 0, 64, 93
1, 213528, Control_c, 0, 64, 90
1, 213543, Control_c, 0, 64, 83
1, 213558, Control_c, 0, 64, 74
1, 213573, Control_c, 0, 64, 63
1, 213580, Note_off_c, 0, 77, 42
1, 213588, Control_c, 0, 64, 0
1, 213609, Note_off_c, 0, 70, 36
1, 213706, Control_c, 0, 64, 46
1, 213721, Control_c, 0, 64, 62
1, 213735, Control_c, 0, 64, 66
1, 213750, Control_c, 0, 64, 69
1, 213765, Control_c, 0, 64, 73
1, 213780, Control_c, 0, 64, 77
1, 213795, Control_c, 0, 64, 80
1, 213810, Control_c, 0, 64, 82
1, 213825, Control_c, 0, 64, 83
1, 213840, Control_c, 0, 64, 84
1, 213855, Control_c, 0, 64, 85
1, 213870, Control_c, 0, 64, 87
1, 213885, Control_c, 0, 64, 88
1, 213899, Control_c, 0, 64, 88
1, 213905, Note_on_c, 0, 70, 41
1, 213914, Control_c, 0, 64, 89
1, 213929, Control_c, 0, 64, 90
1, 213944, Control_c, 0, 64, 91
1, 213959, Control_c, 0, 64, 91
1, 213989, Control_c, 0, 64, 92
1, 214018, Control_c, 0, 64, 92
1, 214033, Control_c, 0, 64, 93
1, 214086, Note_off_c, 0, 60, 39
1, 214108, Note_off_c, 0, 75, 59
1, 214109, Note_on_c, 0, 77, 62
1, 214113, Note_on_c, 0, 61, 46
1, 214114, Control_c, 0, 64, 93
1, 214340, Note_off_c, 0, 61, 50
1, 214370, Note_on_c, 0, 78, 66
1, 214381, Control_c, 0, 64, 93
1, 214396, Control_c, 0, 64, 92
1, 214397, Note_on_c, 0, 54, 37
1, 214406, Note_on_c, 0, 63, 38
1, 214411, Control_c, 0, 64, 90
1, 214425, Control_c, 0, 64, 85
1, 214440, Control_c, 0, 64, 76
1, 214454, Note_off_c, 0, 77, 35
1, 214455, Control_c, 0, 64, 63
1, 214470, Control_c, 0, 64, 0
1, 214534, Note_off_c, 0, 70, 32
1, 214544, Control_c, 0, 64, 37
1, 214558, Control_c, 0, 64, 64
1, 214573, Control_c, 0, 64, 71
1, 214585, Note_on_c, 0, 77, 62
1, 214588, Control_c, 0, 64, 79
1, 214603, Control_c, 0, 64, 85
1, 214618, Control_c, 0, 64, 87
1, 214632, Control_c, 0, 64, 89
1, 214648, Control_c, 0, 64, 90
1, 214663, Control_c, 0, 64, 93
1, 214674, Note_off_c, 0, 78, 33
1, 214678, Control_c, 0, 64, 96
1, 214693, Control_c, 0, 64, 98
1, 214708, Control_c, 0, 64, 100
1, 214709, Note_off_c, 0, 63, 41
1, 214722, Control_c, 0, 64, 101
1, 214737, Control_c, 0, 64, 101
1, 214752, Control_c, 0, 64, 102
1, 214756, Note_off_c, 0, 54, 37
1, 214767, Control_c, 0, 64, 103
1, 214771, Note_on_c, 0, 75, 65
1, 214796, Control_c, 0, 64, 103
1, 214861, Note_off_c, 0, 77, 36
1, 214863, Control_c, 0, 64, 104
1, 214970, Note_on_c, 0, 73, 65
1, 214982, Note_on_c, 0, 53, 43
1, 214985, Note_on_c, 0, 65, 34
1, 214991, Note_off_c, 0, 75, 55
1, 215017, Note_off_c, 0, 65, 52
1, 215028, Note_off_c, 0, 53, 64
1, 215039, Note_off_c, 0, 73, 59
1, 215191, Note_on_c, 0, 72, 61
1, 215209, Note_on_c, 0, 51, 44
1, 215211, Note_on_c, 0, 66, 40
1, 215234, Control_c, 0, 64, 102
1, 215249, Control_c, 0, 64, 95
1, 215263, Control_c, 0, 64, 81
1, 215276, Note_off_c, 0, 66, 41
1, 215278, Control_c, 0, 64, 65
1, 215293, Control_c, 0, 64, 0
1, 215337, Control_c, 0, 64, 41
1, 215352, Control_c, 0, 64, 65
1, 215367, Control_c, 0, 64, 70
1, 215368, Note_off_c, 0, 51, 52
1, 215381, Control_c, 0, 64, 73
1, 215393, Note_on_c, 0, 73, 63
1, 215396, Control_c, 0, 64, 77
1, 215410, Note_on_c, 0, 53, 47
1, 215411, Control_c, 0, 64, 80
1, 215413, Note_on_c, 0, 65, 52
1, 215426, Control_c, 0, 64, 82
1, 215441, Control_c, 0, 64, 83
1, 215456, Note_off_c, 0, 72, 29
1, 215457, Note_off_c, 0, 65, 62
1, 215457, Control_c, 0, 64, 84
1, 215471, Control_c, 0, 64, 85
1, 215486, Control_c, 0, 64, 86
1, 215501, Control_c, 0, 64, 87
1, 215531, Control_c, 0, 64, 87
1, 215583, Control_c, 0, 64, 88
1, 215657, Control_c, 0, 64, 87
1, 215662, Note_on_c, 0, 75, 58
1, 215667, Note_off_c, 0, 53, 36
1, 215676, Note_on_c, 0, 63, 39
1, 215684, Note_on_c, 0, 54, 41
1, 215701, Control_c, 0, 64, 87
1, 215716, Control_c, 0, 64, 86
1, 215730, Control_c, 0, 64, 84
1, 215745, Control_c, 0, 64, 81
1, 215760, Control_c, 0, 64, 76
1, 215775, Control_c, 0, 64, 70
1, 215790, Control_c, 0, 64, 60
1, 215791, Note_off_c, 0, 73, 34
1, 215804, Control_c, 0, 64, 0
1, 215884, Note_on_c, 0, 49, 53
1, 215956, Note_off_c, 0, 54, 40
1, 215988, Note_off_c, 0, 63, 39
1, 216165, Note_on_c, 0, 48, 53
1, 216175, Note_off_c, 0, 49, 36
1, 216332, Control_c, 0, 64, 47
1, 216347, Control_c, 0, 64, 62
1, 216361, Control_c, 0, 64, 65
1, 216376, Control_c, 0, 64, 68
1, 216391, Control_c, 0, 64, 70
1, 216396, Note_off_c, 0, 48, 52
1, 216406, Control_c, 0, 64, 74
1, 216416, Note_on_c, 0, 65, 52
1, 216421, Control_c, 0, 64, 78
1, 216424, Note_on_c, 0, 53, 46
1, 216435, Control_c, 0, 64, 80
1, 216450, Control_c, 0, 64, 81
1, 216465, Control_c, 0, 64, 82
1, 216472, Note_off_c, 0, 75, 38
1, 216480, Control_c, 0, 64, 82
1, 216495, Control_c, 0, 64, 83
1, 216509, Control_c, 0, 64, 84
1, 216524, Control_c, 0, 64, 84
1, 216539, Control_c, 0, 64, 85
1, 216553, Control_c, 0, 64, 85
1, 216583, Control_c, 0, 64, 86
1, 216644, Note_on_c, 0, 66, 61
1, 216645, Note_on_c, 0, 51, 46
1, 216695, Note_off_c, 0, 65, 37
1, 216701, Note_off_c, 0, 53, 36
1, 216717, Note_off_c, 0, 66, 60
1, 216842, Note_on_c, 0, 72, 62
1, 216858, Note_on_c, 0, 66, 51
1, 216864, Note_on_c, 0, 46, 48
1, 216868, Note_on_c, 0, 60, 42
1, 216908, Note_off_c, 0, 66, 59
1, 216926, Note_off_c, 0, 46, 53
1, 216928, Note_off_c, 0, 60, 38
1, 217027, Control_c, 0, 64, 85
1, 217058, Control_c, 0, 64, 85
1, 217080, Control_c, 0, 64, 84
1, 217095, Control_c, 0, 64, 83
1, 217107, Note_on_c, 0, 65, 57
1, 217110, Control_c, 0, 64, 82
1, 217122, Note_on_c, 0, 46, 48
1, 217125, Control_c, 0, 64, 80
1, 217139, Control_c, 0, 64, 77
1, 217141, Note_on_c, 0, 60, 39
1, 217154, Control_c, 0, 64, 74
1, 217169, Control_c, 0, 64, 67
1, 217184, Control_c, 0, 64, 57
1, 217199, Control_c, 0, 64, 0
1, 217199, Note_off_c, 0, 72, 31
1, 217216, Note_off_c, 0, 51, 34
1, 217352, Note_on_c, 0, 45, 45
1, 217369, Note_off_c, 0, 46, 38
1, 217392, Note_off_c, 0, 60, 30
1, 217641, Note_on_c, 0, 44, 43
1, 217697, Note_off_c, 0, 45, 40
1, 217843, Control_c, 0, 64, 29
1, 217859, Control_c, 0, 64, 56
1, 217873, Control_c, 0, 64, 62
1, 217888, Control_c, 0, 64, 64
1, 217903, Control_c, 0, 64, 66
1, 217918, Control_c, 0, 64, 68
1, 217933, Note_on_c, 0, 59, 43
1, 217933, Control_c, 0, 64, 72
1, 217947, Control_c, 0, 64, 75
1, 217962, Control_c, 0, 64, 78
1, 217965, Note_off_c, 0, 65, 37
1, 217977, Control_c, 0, 64, 79
1, 217992, Control_c, 0, 64, 80
1, 218007, Control_c, 0, 64, 80
1, 218022, Control_c, 0, 64, 81
1, 218037, Control_c, 0, 64, 82
1, 218052, Control_c, 0, 64, 83
1, 218066, Control_c, 0, 64, 84
1, 218076, Note_off_c, 0, 59, 54
1, 218096, Control_c, 0, 64, 84
1, 218128, Note_off_c, 0, 44, 41
1, 218199, Control_c, 0, 64, 85
1, 218303, Control_c, 0, 64, 84
1, 218311, Note_on_c, 0, 65, 50
1, 218335, Note_on_c, 0, 58, 39
1, 218347, Control_c, 0, 64, 83
1, 218348, Note_on_c, 0, 42, 36
1, 218359, Note_on_c, 0, 51, 34
1, 218362, Control_c, 0, 64, 82
1, 218377, Control_c, 0, 64, 81
1, 218391, Control_c, 0, 64, 79
1, 218406, Control_c, 0, 64, 75
1, 218421, Control_c, 0, 64, 69
1, 218436, Control_c, 0, 64, 60
1, 218451, Control_c, 0, 64, 0
1, 218588, Note_on_c, 0, 63, 49
1, 218667, Note_off_c, 0, 65, 34
1, 218824, Note_on_c, 0, 61, 52
1, 218911, Note_off_c, 0, 63, 34
1, 219023, Control_c, 0, 64, 48
1, 219038, Control_c, 0, 64, 64
1, 219053, Control_c, 0, 64, 68
1, 219064, Note_on_c, 0, 39, 34
1, 219067, Note_off_c, 0, 42, 38
1, 219068, Control_c, 0, 64, 72
1, 219083, Control_c, 0, 64, 76
1, 219097, Control_c, 0, 64, 79
1, 219112, Control_c, 0, 64, 80
1, 219120, Note_off_c, 0, 61, 38
1, 219127, Control_c, 0, 64, 81
1, 219141, Control_c, 0, 64, 82
1, 219156, Control_c, 0, 64, 82
1, 219171, Control_c, 0, 64, 83
1, 219186, Control_c, 0, 64, 83
1, 219201, Control_c, 0, 64, 84
1, 219215, Control_c, 0, 64, 84
1, 219230, Control_c, 0, 64, 85
1, 219245, Control_c, 0, 64, 85
1, 219380, Note_off_c, 0, 39, 28
1, 219420, Note_on_c, 0, 60, 52
1, 219430, Control_c, 0, 64, 85
1, 219441, Note_on_c, 0, 44, 38
1, 219446, Control_c, 0, 64, 84
1, 219461, Control_c, 0, 64, 83
1, 219476, Control_c, 0, 64, 81
1, 219491, Control_c, 0, 64, 77
1, 219506, Control_c, 0, 64, 72
1, 219520, Control_c, 0, 64, 65
1, 219535, Control_c, 0, 64, 47
1, 219550, Control_c, 0, 64, 0
1, 219969, Note_on_c, 0, 56, 39
1, 220053, Note_off_c, 0, 58, 37
1, 220081, Note_off_c, 0, 60, 36
1, 220105, Control_c, 0, 64, 39
1, 220120, Control_c, 0, 64, 62
1, 220135, Control_c, 0, 64, 66
1, 220150, Control_c, 0, 64, 69
1, 220165, Control_c, 0, 64, 72
1, 220179, Control_c, 0, 64, 74
1, 220194, Control_c, 0, 64, 77
1, 220209, Control_c, 0, 64, 78
1, 220224, Control_c, 0, 64, 79
1, 220239, Control_c, 0, 64, 80
1, 220242, Note_off_c, 0, 44, 34
1, 220251, Note_on_c, 0, 41, 45
1, 220254, Control_c, 0, 64, 80
1, 220284, Control_c, 0, 64, 81
1, 220313, Control_c, 0, 64, 81
1, 220340, Note_off_c, 0, 51, 41
1, 220594, Control_c, 0, 64, 81
1, 220607, Note_on_c, 0, 58, 44
1, 220609, Control_c, 0, 64, 80
1, 220612, Note_on_c, 0, 49, 30
1, 220621, Note_off_c, 0, 41, 38
1, 220624, Control_c, 0, 64, 80
1, 220628, Note_on_c, 0, 54, 33
1, 220637, Note_on_c, 0, 46, 43
1, 220639, Control_c, 0, 64, 78
1, 220654, Control_c, 0, 64, 76
1, 220668, Control_c, 0, 64, 72
1, 220673, Note_off_c, 0, 56, 28
1, 220683, Control_c, 0, 64, 66
1, 220698, Control_c, 0, 64, 52
1, 220712, Control_c, 0, 64, 0
1, 221005, Note_on_c, 0, 44, 34
1, 221007, Note_on_c, 0, 53, 38
1, 221045, Note_off_c, 0, 54, 37
1, 221161, Note_off_c, 0, 49, 34
1, 221510, Note_on_c, 0, 52, 47
1, 221517, Note_off_c, 0, 46, 9
1, 221522, Note_on_c, 0, 42, 35
1, 221539, Note_off_c, 0, 44, 39
1, 221617, Note_off_c, 0, 53, 36
1, 221823, Control_c, 0, 64, 18
1, 221839, Control_c, 0, 64, 32
1, 221854, Control_c, 0, 64, 40
1, 221869, Control_c, 0, 64, 47
1, 221884, Control_c, 0, 64, 51
1, 221899, Control_c, 0, 64, 54
1, 221913, Control_c, 0, 64, 57
1, 221928, Control_c, 0, 64, 58
1, 221943, Control_c, 0, 64, 60
1, 221958, Control_c, 0, 64, 62
1, 221972, Control_c, 0, 64, 63
1, 221987, Control_c, 0, 64, 64
1, 222002, Control_c, 0, 64, 65
1, 222017, Control_c, 0, 64, 67
1, 222032, Control_c, 0, 64, 69
1, 222046, Control_c, 0, 64, 71
1, 222061, Control_c, 0, 64, 73
1, 222076, Control_c, 0, 64, 75
1, 222091, Control_c, 0, 64, 77
1, 222106, Control_c, 0, 64, 78
1, 222121, Control_c, 0, 64, 79
1, 222135, Control_c, 0, 64, 80
1, 222136, Note_on_c, 0, 48, 35
1, 222150, Control_c, 0, 64, 81
1, 222165, Control_c, 0, 64, 82
1, 222180, Control_c, 0, 64, 83
1, 222195, Control_c, 0, 64, 84
1, 222210, Control_c, 0, 64, 85
1, 222225, Control_c, 0, 64, 86
1, 222239, Control_c, 0, 64, 87
1, 222254, Control_c, 0, 64, 88
1, 222269, Control_c, 0, 64, 88
1, 222281, Note_off_c, 0, 42, 36
1, 222298, Control_c, 0, 64, 89
1, 222335, Control_c, 0, 64, 89
1, 222364, Note_off_c, 0, 48, 44
1, 222386, Note_off_c, 0, 52, 37
1, 222410, Control_c, 0, 64, 90
1, 222648, Note_off_c, 0, 58, 34
1, 223099, Control_c, 0, 64, 89
1, 223107, Note_on_c, 0, 29, 38
1, 223128, Control_c, 0, 64, 89
1, 223143, Control_c, 0, 64, 88
1, 223158, Control_c, 0, 64, 88
1, 223173, Control_c, 0, 64, 87
1, 223188, Control_c, 0, 64, 86
1, 223203, Control_c, 0, 64, 84
1, 223217, Control_c, 0, 64, 82
1, 223232, Control_c, 0, 64, 80
1, 223247, Control_c, 0, 64, 78
1, 223262, Control_c, 0, 64, 75
1, 223277, Control_c, 0, 64, 71
1, 223292, Control_c, 0, 64, 63
1, 223307, Control_c, 0, 64, 37
1, 223321, Control_c, 0, 64, 0
1, 223678, Control_c, 0, 64, 25
1, 223692, Control_c, 0, 64, 34
1, 223707, Control_c, 0, 64, 42
1, 223722, Control_c, 0, 64, 48
1, 223736, Control_c, 0, 64, 54
1, 223751, Control_c, 0, 64, 58
1, 223766, Control_c, 0, 64, 61
1, 223781, Control_c, 0, 64, 63
1, 223796, Control_c, 0, 64, 65
1, 223814, Note_on_c, 0, 57, 37
1, 223818, Control_c, 0, 64, 66
1, 223831, Note_on_c, 0, 53, 31
1, 223833, Control_c, 0, 64, 68
1, 223835, Note_on_c, 0, 41, 32
1, 223844, Note_on_c, 0, 48, 10
1, 223848, Control_c, 0, 64, 71
1, 223863, Control_c, 0, 64, 74
1, 223878, Control_c, 0, 64, 76
1, 223892, Control_c, 0, 64, 78
1, 223907, Control_c, 0, 64, 80
1, 223922, Control_c, 0, 64, 82
1, 223936, Control_c, 0, 64, 83
1, 223951, Control_c, 0, 64, 84
1, 223966, Control_c, 0, 64, 86
1, 223981, Control_c, 0, 64, 87
1, 223996, Control_c, 0, 64, 89
1, 224010, Control_c, 0, 64, 90
1, 224025, Control_c, 0, 64, 91
1, 224040, Control_c, 0, 64, 92
1, 224055, Control_c, 0, 64, 93
1, 224070, Control_c, 0, 64, 95
1, 224085, Control_c, 0, 64, 96
1, 224100, Control_c, 0, 64, 98
1, 224115, Control_c, 0, 64, 99
1, 224130, Control_c, 0, 64, 101
1, 224144, Control_c, 0, 64, 102
1, 224159, Control_c, 0, 64, 103
1, 224174, Control_c, 0, 64, 104
1, 224175, Note_off_c, 0, 48, 40
1, 224189, Control_c, 0, 64, 105
1, 224204, Control_c, 0, 64, 106
1, 224218, Control_c, 0, 64, 107
1, 224234, Control_c, 0, 64, 108
1, 224236, Note_off_c, 0, 29, 42
1, 224249, Control_c, 0, 64, 110
1, 224254, Note_off_c, 0, 41, 40
1, 224264, Control_c, 0, 64, 112
1, 224279, Control_c, 0, 64, 113
1, 224294, Control_c, 0, 64, 115
1, 224308, Control_c, 0, 64, 116
1, 224323, Control_c, 0, 64, 117
1, 224338, Control_c, 0, 64, 118
1, 224353, Control_c, 0, 64, 118
1, 224359, Note_off_c, 0, 53, 37
1, 224367, Control_c, 0, 64, 119
1, 224397, Control_c, 0, 64, 120
1, 224412, Control_c, 0, 64, 120
1, 224427, Control_c, 0, 64, 121
1, 224448, Note_off_c, 0, 57, 27
1, 224456, Control_c, 0, 64, 121
1, 224821, Note_on_c, 0, 48, 39
1, 225155, Note_on_c, 0, 53, 36
1, 225391, Note_on_c, 0, 57, 40
1, 225596, Note_on_c, 0, 60, 41
1, 225693, Note_off_c, 0, 60, 35
1, 225794, Note_on_c, 0, 65, 46
1, 225867, Note_off_c, 0, 65, 52
1, 226015, Note_on_c, 0, 69, 35
1, 226017, Note_off_c, 0, 57, 16
1, 226079, Note_off_c, 0, 69, 45
1, 226266, Note_on_c, 0, 72, 45
1, 226469, Note_off_c, 0, 72, 36
1, 226550, Note_on_c, 0, 77, 41
1, 226692, Note_off_c, 0, 77, 39
1, 226879, Note_on_c, 0, 81, 50
1, 227011, Note_off_c, 0, 81, 50
1, 227287, Note_on_c, 0, 84, 54
1, 227530, Note_off_c, 0, 84, 29
1, 227828, Note_off_c, 0, 48, 30
1, 227829, Note_off_c, 0, 53, 31
1, 228071, Note_on_c, 0, 89, 41
1, 228383, Note_off_c, 0, 89, 22
1, 229594, Control_c, 0, 64, 120
1, 229609, Control_c, 0, 64, 117
1, 229623, Control_c, 0, 64, 113
1, 229638, Control_c, 0, 64, 109
1, 229653, Control_c, 0, 64, 105
1, 229668, Control_c, 0, 64, 101
1, 229683, Control_c, 0, 64, 97
1, 229698, Control_c, 0, 64, 91
1, 229713, Control_c, 0, 64, 86
1, 229728, Control_c, 0, 64, 80
1, 229743, Control_c, 0, 64, 72
1, 229757, Control_c, 0, 64, 63
1, 229772, Control_c, 0, 64, 0
1, 230130, Note_on_c, 0, 82, 53
1, 230133, Note_on_c, 0, 34, 54
1, 230137, Note_on_c, 0, 46, 52
1, 230140, Note_on_c, 0, 77, 45
1, 230161, Note_off_c, 0, 34, 63
1, 230164, Note_off_c, 0, 46, 55
1, 230179, Note_off_c, 0, 77, 53
1, 230219, Note_off_c, 0, 82, 60
1, 230244, Note_on_c, 0, 70, 48
1, 230266, Note_off_c, 0, 70, 58
1, 230321, Note_on_c, 0, 58, 56
1, 230330, Note_on_c, 0, 51, 42
1, 230331, Note_on_c, 0, 81, 65
1, 230332, Note_on_c, 0, 77, 57
1, 230342, Note_off_c, 0, 58, 62
1, 230358, Note_off_c, 0, 51, 48
1, 230372, Note_off_c, 0, 81, 54
1, 230375, Note_off_c, 0, 77, 60
1, 230404, Note_on_c, 0, 69, 51
1, 230439, Note_off_c, 0, 69, 54
1, 230480, Note_on_c, 0, 75, 62
1, 230483, Note_on_c, 0, 79, 58
1, 230485, Note_on_c, 0, 46, 60
1, 230488, Note_on_c, 0, 39, 56
1, 230497, Note_on_c, 0, 34, 44
1, 230509, Note_off_c, 0, 46, 58
1, 230513, Note_off_c, 0, 75, 63
1, 230516, Note_off_c, 0, 39, 36
1, 230520, Note_off_c, 0, 79, 52
1, 230533, Note_off_c, 0, 34, 37
1, 230556, Note_on_c, 0, 67, 69
1, 230600, Note_off_c, 0, 67, 59
1, 230641, Note_on_c, 0, 81, 70
1, 230645, Note_on_c, 0, 58, 63
1, 230651, Note_on_c, 0, 75, 57
1, 230659, Note_on_c, 0, 46, 41
1, 230666, Note_off_c, 0, 58, 66
1, 230673, Note_on_c, 0, 51, 23
1, 230674, Note_off_c, 0, 51, 127
1, 230676, Note_off_c, 0, 75, 61
1, 230679, Note_off_c, 0, 81, 58
1, 230690, Note_off_c, 0, 46, 60
1, 230716, Note_on_c, 0, 67, 62
1, 230734, Note_off_c, 0, 67, 63
1, 230786, Note_on_c, 0, 46, 79
1, 230793, Note_on_c, 0, 76, 65
1, 230797, Note_on_c, 0, 34, 55
1, 230798, Note_on_c, 0, 82, 67
1, 230799, Note_on_c, 0, 37, 57
1, 230811, Note_off_c, 0, 46, 65
1, 230827, Note_off_c, 0, 34, 36
1, 230827, Note_off_c, 0, 37, 58
1, 230843, Note_off_c, 0, 82, 63
1, 230849, Note_off_c, 0, 76, 60
1, 230863, Note_on_c, 0, 70, 70
1, 230890, Note_off_c, 0, 70, 65
1, 230942, Note_on_c, 0, 58, 62
1, 230955, Note_on_c, 0, 79, 66
1, 230962, Note_off_c, 0, 58, 63
1, 230962, Note_on_c, 0, 49, 40
1, 230965, Note_on_c, 0, 76, 53
1, 230986, Note_off_c, 0, 79, 59
1, 230991, Note_off_c, 0, 76, 57
1, 230993, Note_off_c, 0, 49, 47
1, 231027, Note_on_c, 0, 67, 63
1, 231063, Note_off_c, 0, 67, 61
1, 231099, Note_on_c, 0, 46, 71
1, 231103, Note_on_c, 0, 77, 65
1, 231118, Note_on_c, 0, 34, 41
1, 231121, Control_c, 0, 64, 58
1, 231134, Note_off_c, 0, 46, 63
1, 231135, Control_c, 0, 64, 64
1, 231141, Note_off_c, 0, 77, 60
1, 231150, Note_off_c, 0, 34, 45
1, 231162, Note_on_c, 0, 65, 64
1, 231165, Control_c, 0, 64, 65
1, 231180, Note_off_c, 0, 65, 65
1, 231254, Control_c, 0, 64, 64
1, 231261, Note_on_c, 0, 58, 62
1, 231263, Note_on_c, 0, 77, 64
1, 231264, Note_on_c, 0, 82, 70
1, 231269, Control_c, 0, 64, 63
1, 231278, Note_on_c, 0, 46, 56
1, 231284, Control_c, 0, 64, 59
1, 231292, Note_off_c, 0, 58, 66
1, 231293, Note_on_c, 0, 50, 24
1, 231306, Control_c, 0, 64, 49
1, 231311, Note_off_c, 0, 77, 55
1, 231317, Note_off_c, 0, 46, 64
1, 231318, Note_off_c, 0, 82, 57
1, 231321, Control_c, 0, 64, 30
1, 231335, Control_c, 0, 64, 0
1, 231342, Note_off_c, 0, 50, 29
1, 231358, Note_on_c, 0, 70, 66
1, 231393, Note_off_c, 0, 70, 56
1, 231420, Note_on_c, 0, 82, 72
1, 231424, Note_on_c, 0, 46, 60
1, 231430, Note_on_c, 0, 77, 70
1, 231436, Note_on_c, 0, 34, 48
1, 231458, Note_off_c, 0, 46, 64
1, 231465, Note_off_c, 0, 34, 51
1, 231469, Note_off_c, 0, 77, 53
1, 231481, Note_off_c, 0, 82, 59
1, 231488, Note_on_c, 0, 70, 73
1, 231510, Note_off_c, 0, 70, 68
1, 231570, Note_on_c, 0, 81, 74
1, 231574, Note_on_c, 0, 77, 59
1, 231576, Note_on_c, 0, 58, 68
1, 231594, Note_on_c, 0, 46, 58
1, 231605, Note_off_c, 0, 58, 68
1, 231611, Note_off_c, 0, 77, 60
1, 231616, Note_off_c, 0, 81, 59
1, 231623, Note_off_c, 0, 46, 64
1, 231636, Note_on_c, 0, 69, 69
1, 231668, Note_off_c, 0, 69, 63
1, 231706, Note_on_c, 0, 79, 71
1, 231712, Note_on_c, 0, 46, 75
1, 231713, Note_on_c, 0, 75, 68
1, 231733, Note_on_c, 0, 39, 47
1, 231742, Note_off_c, 0, 46, 63
1, 231748, Note_on_c, 0, 34, 24
1, 231749, Note_off_c, 0, 34, 127
1, 231749, Note_off_c, 0, 75, 57
1, 231764, Note_off_c, 0, 39, 35
1, 231764, Note_off_c, 0, 79, 59
1, 231776, Note_on_c, 0, 67, 78
1, 231818, Note_off_c, 0, 67, 59
1, 231850, Note_on_c, 0, 81, 81
1, 231857, Note_on_c, 0, 58, 66
1, 231865, Note_on_c, 0, 75, 66
1, 231874, Note_off_c, 0, 58, 66
1, 231880, Note_on_c, 0, 46, 50
1, 231880, Note_on_c, 0, 51, 42
1, 231898, Note_off_c, 0, 81, 61
1, 231901, Note_off_c, 0, 75, 60
1, 231907, Note_off_c, 0, 46, 58
1, 231911, Note_off_c, 0, 51, 34
1, 231927, Note_on_c, 0, 67, 77
1, 231949, Note_off_c, 0, 67, 70
1, 231994, Note_on_c, 0, 46, 78
1, 232005, Note_on_c, 0, 82, 73
1, 232011, Note_on_c, 0, 76, 63
1, 232015, Note_on_c, 0, 34, 47
1, 232017, Note_on_c, 0, 37, 50
1, 232024, Note_off_c, 0, 46, 66
1, 232055, Note_off_c, 0, 37, 54
1, 232056, Note_off_c, 0, 34, 38
1, 232061, Note_off_c, 0, 82, 63
1, 232070, Note_off_c, 0, 76, 64
1, 232073, Note_on_c, 0, 70, 74
1, 232103, Note_off_c, 0, 70, 60
1, 232160, Note_on_c, 0, 58, 61
1, 232164, Note_on_c, 0, 76, 63
1, 232166, Note_on_c, 0, 49, 58
1, 232167, Note_on_c, 0, 79, 69
1, 232175, Note_on_c, 0, 46, 50
1, 232178, Note_off_c, 0, 58, 64
1, 232197, Note_off_c, 0, 49, 64
1, 232202, Note_off_c, 0, 46, 59
1, 232212, Note_off_c, 0, 79, 61
1, 232223, Note_off_c, 0, 76, 56
1, 232248, Note_on_c, 0, 67, 72
1, 232285, Note_off_c, 0, 67, 60
1, 232321, Note_on_c, 0, 46, 64
1, 232322, Note_on_c, 0, 77, 66
1, 232323, Control_c, 0, 64, 51
1, 232338, Control_c, 0, 64, 66
1, 232339, Note_on_c, 0, 34, 57
1, 232351, Note_on_c, 0, 38, 49
1, 232353, Control_c, 0, 64, 71
1, 232363, Note_off_c, 0, 46, 65
1, 232368, Control_c, 0, 64, 75
1, 232369, Note_off_c, 0, 34, 62
1, 232375, Note_on_c, 0, 65, 78
1, 232382, Control_c, 0, 64, 77
1, 232384, Note_off_c, 0, 38, 48
1, 232396, Note_off_c, 0, 65, 71
1, 232397, Control_c, 0, 64, 78
1, 232426, Note_off_c, 0, 77, 60
1, 232456, Control_c, 0, 64, 78
1, 232486, Control_c, 0, 64, 79
1, 232491, Note_on_c, 0, 58, 75
1, 232511, Note_on_c, 0, 46, 62
1, 232515, Note_off_c, 0, 58, 69
1, 232518, Note_on_c, 0, 50, 34
1, 232543, Note_off_c, 0, 46, 64
1, 232545, Control_c, 0, 64, 78
1, 232553, Note_off_c, 0, 50, 43
1, 232563, Note_on_c, 0, 82, 73
1, 232575, Control_c, 0, 64, 77
1, 232589, Note_off_c, 0, 82, 63
1, 232589, Control_c, 0, 64, 74
1, 232604, Control_c, 0, 64, 68
1, 232619, Control_c, 0, 64, 56
1, 232634, Control_c, 0, 64, 0
1, 232654, Note_on_c, 0, 94, 85
1, 232658, Note_on_c, 0, 89, 75
1, 232667, Note_on_c, 0, 46, 64
1, 232671, Note_on_c, 0, 34, 61
1, 232690, Note_on_c, 0, 38, 42
1, 232704, Note_off_c, 0, 34, 65
1, 232709, Note_off_c, 0, 46, 65
1, 232720, Note_off_c, 0, 38, 47
1, 232720, Note_off_c, 0, 89, 64
1, 232732, Note_on_c, 0, 82, 73
1, 232737, Note_off_c, 0, 94, 65
1, 232758, Note_off_c, 0, 82, 66
1, 232814, Note_on_c, 0, 93, 81
1, 232819, Note_on_c, 0, 89, 67
1, 232825, Note_on_c, 0, 58, 70
1, 232846, Note_on_c, 0, 46, 60
1, 232851, Note_off_c, 0, 58, 68
1, 232864, Note_off_c, 0, 93, 59
1, 232872, Note_off_c, 0, 46, 62
1, 232877, Note_off_c, 0, 89, 63
1, 232889, Note_on_c, 0, 81, 77
1, 232943, Note_off_c, 0, 81, 60
1, 232959, Note_on_c, 0, 91, 80
1, 232962, Note_on_c, 0, 46, 89
1, 232962, Note_on_c, 0, 87, 81
1, 232981, Note_on_c, 0, 34, 56
1, 232982, Note_off_c, 0, 34, 127
1, 232989, Note_on_c, 0, 39, 43
1, 232989, Note_off_c, 0, 46, 67
1, 233016, Note_off_c, 0, 91, 55
1, 233024, Note_off_c, 0, 39, 35
1, 233034, Note_on_c, 0, 79, 74
1, 233036, Note_off_c, 0, 87, 58
1, 233078, Note_off_c, 0, 79, 60
1, 233102, Note_on_c, 0, 93, 85
1, 233108, Note_on_c, 0, 87, 66
1, 233111, Note_on_c, 0, 58, 74
1, 233135, Note_off_c, 0, 58, 69
1, 233138, Note_on_c, 0, 46, 50
1, 233150, Note_on_c, 0, 51, 17
1, 233156, Note_off_c, 0, 93, 64
1, 233166, Note_off_c, 0, 46, 59
1, 233178, Note_off_c, 0, 87, 58
1, 233180, Note_on_c, 0, 79, 74
1, 233193, Note_off_c, 0, 51, 29
1, 233202, Note_off_c, 0, 79, 69
1, 233250, Note_on_c, 0, 46, 83
1, 233251, Note_on_c, 0, 94, 84
1, 233255, Note_on_c, 0, 88, 74
1, 233275, Note_on_c, 0, 37, 50
1, 233278, Note_on_c, 0, 34, 40
1, 233279, Note_off_c, 0, 34, 127
1, 233280, Note_off_c, 0, 46, 68
1, 233305, Note_off_c, 0, 37, 51
1, 233313, Note_off_c, 0, 94, 66
1, 233319, Note_on_c, 0, 82, 77
1, 233321, Note_off_c, 0, 88, 63
1, 233366, Note_off_c, 0, 82, 63
1, 233397, Note_on_c, 0, 58, 76
1, 233408, Note_on_c, 0, 91, 78
1, 233409, Note_on_c, 0, 88, 73
1, 233411, Note_on_c, 0, 49, 66
1, 233421, Note_off_c, 0, 58, 69
1, 233440, Note_off_c, 0, 49, 65
1, 233451, Note_off_c, 0, 91, 57
1, 233468, Note_off_c, 0, 88, 55
1, 233482, Note_on_c, 0, 79, 70
1, 233528, Note_off_c, 0, 79, 60
1, 233552, Note_on_c, 0, 46, 82
1, 233554, Note_on_c, 0, 89, 79
1, 233571, Note_on_c, 0, 34, 52
1, 233580, Note_on_c, 0, 38, 45
1, 233592, Note_off_c, 0, 46, 64
1, 233597, Control_c, 0, 64, 53
1, 233599, Note_off_c, 0, 34, 60
1, 233611, Note_off_c, 0, 38, 50
1, 233612, Note_off_c, 0, 89, 66
1, 233612, Control_c, 0, 64, 63
1, 233625, Note_on_c, 0, 77, 71
1, 233627, Control_c, 0, 64, 65
1, 233642, Control_c, 0, 64, 66
1, 233645, Note_off_c, 0, 77, 65
1, 233657, Control_c, 0, 64, 67
1, 233672, Control_c, 0, 64, 69
1, 233686, Control_c, 0, 64, 71
1, 233701, Control_c, 0, 64, 72
1, 233708, Note_on_c, 0, 58, 73
1, 233714, Note_on_c, 0, 94, 86
1, 233716, Control_c, 0, 64, 72
1, 233722, Note_on_c, 0, 89, 74
1, 233722, Note_on_c, 0, 50, 59
1, 233727, Note_on_c, 0, 46, 60
1, 233733, Note_off_c, 0, 58, 69
1, 233751, Note_off_c, 0, 50, 65
1, 233760, Note_off_c, 0, 46, 63
1, 233767, Note_off_c, 0, 89, 61
1, 233776, Control_c, 0, 64, 72
1, 233785, Note_off_c, 0, 94, 63
1, 233789, Control_c, 0, 64, 70
1, 233803, Control_c, 0, 64, 67
1, 233815, Note_on_c, 0, 82, 73
1, 233818, Control_c, 0, 64, 60
1, 233834, Control_c, 0, 64, 43
1, 233849, Control_c, 0, 64, 33
1, 233858, Note_on_c, 0, 46, 79
1, 233862, Note_on_c, 0, 94, 68
1, 233863, Note_on_c, 0, 89, 66
1, 233864, Control_c, 0, 64, 34
1, 233871, Note_off_c, 0, 82, 62
1, 233877, Note_on_c, 0, 34, 49
1, 233878, Control_c, 0, 64, 32
1, 233880, Note_on_c, 0, 38, 50
1, 233893, Control_c, 0, 64, 25
1, 233906, Note_off_c, 0, 34, 56
1, 233907, Note_off_c, 0, 46, 58
1, 233908, Control_c, 0, 64, 15
1, 233910, Note_off_c, 0, 38, 60
1, 233931, Note_off_c, 0, 89, 63
1, 233936, Note_on_c, 0, 82, 73
1, 233937, Note_off_c, 0, 94, 58
1, 233938, Control_c, 0, 64, 17
1, 233973, Note_off_c, 0, 82, 65
1, 233997, Control_c, 0, 64, 18
1, 234012, Control_c, 0, 64, 21
1, 234013, Note_on_c, 0, 58, 75
1, 234023, Note_on_c, 0, 93, 69
1, 234025, Note_on_c, 0, 89, 56
1, 234027, Note_on_c, 0, 46, 62
1, 234038, Note_off_c, 0, 58, 68
1, 234041, Control_c, 0, 64, 20
1, 234044, Note_on_c, 0, 50, 26
1, 234055, Note_off_c, 0, 46, 64
1, 234067, Note_on_c, 0, 91, 19
1, 234068, Note_off_c, 0, 91, 127
1, 234071, Control_c, 0, 64, 21
1, 234072, Note_off_c, 0, 93, 60
1, 234080, Note_off_c, 0, 89, 55
1, 234086, Control_c, 0, 64, 23
1, 234087, Note_off_c, 0, 50, 30
1, 234090, Note_on_c, 0, 81, 77
1, 234101, Control_c, 0, 64, 24
1, 234131, Control_c, 0, 64, 25
1, 234147, Note_off_c, 0, 81, 60
1, 234158, Note_on_c, 0, 46, 80
1, 234163, Note_on_c, 0, 91, 73
1, 234170, Note_on_c, 0, 87, 73
1, 234175, Note_on_c, 0, 39, 54
1, 234181, Note_on_c, 0, 34, 46
1, 234189, Note_off_c, 0, 46, 66
1, 234190, Control_c, 0, 64, 26
1, 234202, Note_off_c, 0, 39, 56
1, 234214, Note_off_c, 0, 34, 48
1, 234220, Note_off_c, 0, 91, 59
1, 234222, Note_off_c, 0, 87, 46
1, 234234, Control_c, 0, 64, 25
1, 234235, Note_on_c, 0, 79, 74
1, 234249, Control_c, 0, 64, 24
1, 234278, Control_c, 0, 64, 25
1, 234283, Note_off_c, 0, 79, 60
1, 234300, Control_c, 0, 64, 29
1, 234311, Note_on_c, 0, 58, 78
1, 234313, Note_on_c, 0, 93, 78
1, 234315, Control_c, 0, 64, 30
1, 234324, Note_on_c, 0, 87, 72
1, 234336, Note_on_c, 0, 46, 57
1, 234336, Note_off_c, 0, 58, 68
1, 234345, Control_c, 0, 64, 29
1, 234350, Note_on_c, 0, 51, 26
1, 234359, Note_off_c, 0, 93, 64
1, 234360, Control_c, 0, 64, 28
1, 234360, Note_on_c, 0, 91, 21
1, 234363, Note_off_c, 0, 87, 51
1, 234365, Note_off_c, 0, 46, 64
1, 234386, Note_off_c, 0, 51, 41
1, 234388, Note_on_c, 0, 79, 77
1, 234393, Note_off_c, 0, 91, 35
1, 234405, Control_c, 0, 64, 29
1, 234412, Note_off_c, 0, 79, 64
1, 234419, Control_c, 0, 64, 29
1, 234434, Control_c, 0, 64, 32
1, 234449, Control_c, 0, 64, 33
1, 234458, Note_on_c, 0, 46, 87
1, 234461, Note_on_c, 0, 88, 76
1, 234461, Note_on_c, 0, 94, 81
1, 234464, Control_c, 0, 64, 34
1, 234479, Note_on_c, 0, 37, 56
1, 234487, Note_off_c, 0, 46, 68
1, 234499, Note_on_c, 0, 34, 22
1, 234500, Note_off_c, 0, 34, 127
1, 234506, Note_off_c, 0, 37, 59
1, 234508, Control_c, 0, 64, 34
1, 234526, Note_off_c, 0, 94, 65
1, 234530, Note_on_c, 0, 82, 77
1, 234530, Note_off_c, 0, 88, 62
1, 234552, Control_c, 0, 64, 35
1, 234567, Control_c, 0, 64, 37
1, 234570, Note_off_c, 0, 82, 65
1, 234582, Control_c, 0, 64, 40
1, 234597, Control_c, 0, 64, 41
1, 234612, Note_on_c, 0, 58, 71
1, 234619, Note_on_c, 0, 88, 69
1, 234619, Note_on_c, 0, 91, 74
1, 234625, Note_on_c, 0, 49, 55
1, 234639, Note_off_c, 0, 58, 67
1, 234643, Control_c, 0, 64, 40
1, 234655, Note_off_c, 0, 49, 63
1, 234657, Control_c, 0, 64, 41
1, 234672, Control_c, 0, 64, 42
1, 234676, Note_off_c, 0, 91, 58
1, 234678, Note_off_c, 0, 88, 59
1, 234701, Control_c, 0, 64, 37
1, 234705, Note_on_c, 0, 79, 66
1, 234716, Control_c, 0, 64, 0
1, 234760, Note_off_c, 0, 79, 58
1, 234768, Note_on_c, 0, 39, 65
1, 234776, Note_on_c, 0, 89, 76
1, 234781, Note_on_c, 0, 46, 68
1, 234803, Note_on_c, 0, 34, 45
1, 234805, Control_c, 0, 64, 50
1, 234813, Note_off_c, 0, 39, 59
1, 234820, Control_c, 0, 64, 66
1, 234822, Note_off_c, 0, 46, 66
1, 234835, Control_c, 0, 64, 70
1, 234836, Note_off_c, 0, 34, 45
1, 234838, Note_off_c, 0, 89, 63
1, 234849, Control_c, 0, 64, 73
1, 234852, Note_on_c, 0, 77, 70
1, 234864, Control_c, 0, 64, 74
1, 234879, Control_c, 0, 64, 75
1, 234894, Control_c, 0, 64, 76
1, 234906, Note_off_c, 0, 77, 60
1, 234909, Control_c, 0, 64, 76
1, 234924, Control_c, 0, 64, 77
1, 234938, Note_on_c, 0, 58, 72
1, 234938, Control_c, 0, 64, 77
1, 234944, Note_on_c, 0, 46, 71
1, 234964, Note_off_c, 0, 58, 69
1, 234982, Note_off_c, 0, 46, 64
1, 234998, Control_c, 0, 64, 77
1, 235013, Control_c, 0, 64, 74
1, 235028, Control_c, 0, 64, 66
1, 235049, Control_c, 0, 64, 0
1, 235114, Note_on_c, 0, 87, 66
1, 235114, Note_on_c, 0, 78, 67
1, 235120, Note_on_c, 0, 81, 50
1, 235133, Note_on_c, 0, 48, 66
1, 235138, Control_c, 0, 64, 55
1, 235144, Note_on_c, 0, 36, 55
1, 235153, Control_c, 0, 64, 70
1, 235168, Control_c, 0, 64, 82
1, 235182, Note_off_c, 0, 36, 61
1, 235183, Note_off_c, 0, 48, 64
1, 235183, Control_c, 0, 64, 91
1, 235192, Note_off_c, 0, 78, 60
1, 235197, Note_off_c, 0, 87, 61
1, 235198, Control_c, 0, 64, 94
1, 235201, Note_on_c, 0, 77, 65
1, 235208, Note_off_c, 0, 81, 61
1, 235213, Control_c, 0, 64, 97
1, 235227, Control_c, 0, 64, 100
1, 235239, Note_off_c, 0, 77, 58
1, 235242, Control_c, 0, 64, 105
1, 235257, Control_c, 0, 64, 110
1, 235272, Control_c, 0, 64, 114
1, 235287, Control_c, 0, 64, 117
1, 235290, Note_on_c, 0, 84, 73
1, 235296, Note_on_c, 0, 75, 67
1, 235298, Note_on_c, 0, 51, 73
1, 235302, Control_c, 0, 64, 121
1, 235308, Note_on_c, 0, 39, 63
1, 235314, Note_on_c, 0, 78, 62
1, 235317, Control_c, 0, 64, 127
1, 235331, Note_off_c, 0, 51, 61
1, 235345, Note_off_c, 0, 84, 63
1, 235346, Note_off_c, 0, 39, 63
1, 235352, Note_off_c, 0, 78, 62
1, 235369, Note_on_c, 0, 74, 64
1, 235371, Note_off_c, 0, 75, 62
1, 235388, Note_off_c, 0, 74, 68
1, 235440, Note_on_c, 0, 54, 70
1, 235445, Note_on_c, 0, 81, 65
1, 235446, Note_on_c, 0, 72, 70
1, 235448, Note_on_c, 0, 42, 66
1, 235460, Note_on_c, 0, 75, 64
1, 235474, Note_off_c, 0, 72, 65
1, 235478, Note_off_c, 0, 81, 60
1, 235484, Note_off_c, 0, 54, 57
1, 235487, Note_off_c, 0, 42, 63
1, 235496, Note_off_c, 0, 75, 60
1, 235519, Note_on_c, 0, 71, 76
1, 235561, Note_off_c, 0, 71, 59
1, 235594, Note_on_c, 0, 57, 80
1, 235600, Note_on_c, 0, 72, 55
1, 235603, Note_on_c, 0, 75, 69
1, 235606, Note_on_c, 0, 45, 68
1, 235638, Note_off_c, 0, 45, 62
1, 235645, Note_off_c, 0, 72, 62
1, 235651, Note_off_c, 0, 57, 60
1, 235654, Note_on_c, 0, 66, 79
1, 235663, Note_off_c, 0, 75, 64
1, 235705, Note_off_c, 0, 66, 65
1, 235732, Control_c, 0, 64, 115
1, 235747, Control_c, 0, 64, 95
1, 235750, Note_on_c, 0, 60, 81
1, 235756, Note_on_c, 0, 48, 78
1, 235762, Control_c, 0, 64, 75
1, 235777, Control_c, 0, 64, 0
1, 235829, Control_c, 0, 64, 65
1, 235838, Note_on_c, 0, 69, 79
1, 235843, Control_c, 0, 64, 77
1, 235858, Control_c, 0, 64, 91
1, 235873, Control_c, 0, 64, 98
1, 235883, Note_off_c, 0, 48, 63
1, 235888, Control_c, 0, 64, 100
1, 235892, Note_off_c, 0, 60, 60
1, 235893, Note_off_c, 0, 69, 63
1, 235903, Control_c, 0, 64, 102
1, 235915, Note_on_c, 0, 81, 80
1, 235917, Control_c, 0, 64, 107
1, 235919, Note_on_c, 0, 78, 78
1, 235932, Control_c, 0, 64, 113
1, 235947, Control_c, 0, 64, 121
1, 235962, Control_c, 0, 64, 127
1, 235974, Note_on_c, 0, 63, 86
1, 235977, Note_on_c, 0, 51, 71
1, 235981, Note_on_c, 0, 69, 82
1, 235985, Note_off_c, 0, 81, 58
1, 235996, Note_off_c, 0, 63, 69
1, 235999, Note_off_c, 0, 78, 59
1, 236011, Note_off_c, 0, 51, 62
1, 236037, Note_off_c, 0, 69, 65
1, 236059, Note_on_c, 0, 62, 93
1, 236065, Control_c, 0, 64, 108
1, 236071, Note_on_c, 0, 50, 84
1, 236080, Control_c, 0, 64, 87
1, 236095, Control_c, 0, 64, 66
1, 236110, Control_c, 0, 64, 0
1, 236140, Control_c, 0, 64, 64
1, 236146, Note_on_c, 0, 70, 82
1, 236155, Control_c, 0, 64, 81
1, 236169, Note_off_c, 0, 62, 60
1, 236170, Control_c, 0, 64, 100
1, 236184, Control_c, 0, 64, 117
1, 236187, Note_off_c, 0, 50, 61
1, 236199, Control_c, 0, 64, 119
1, 236214, Control_c, 0, 64, 125
1, 236228, Note_on_c, 0, 77, 73
1, 236229, Control_c, 0, 64, 127
1, 236232, Note_on_c, 0, 82, 76
1, 236238, Note_off_c, 0, 70, 60
1, 236277, Note_on_c, 0, 58, 92
1, 236283, Note_on_c, 0, 70, 73
1, 236288, Note_on_c, 0, 46, 78
1, 236307, Note_off_c, 0, 77, 60
1, 236319, Note_off_c, 0, 58, 64
1, 236339, Note_off_c, 0, 46, 56
1, 236345, Note_off_c, 0, 70, 64
1, 236357, Note_off_c, 0, 82, 61
1, 236372, Note_on_c, 0, 56, 100
1, 236381, Note_on_c, 0, 44, 86
1, 236393, Control_c, 0, 64, 101
1, 236408, Control_c, 0, 64, 78
1, 236422, Control_c, 0, 64, 0
1, 236458, Note_on_c, 0, 74, 82
1, 236466, Control_c, 0, 64, 66
1, 236481, Control_c, 0, 64, 81
1, 236496, Control_c, 0, 64, 100
1, 236497, Note_off_c, 0, 56, 61
1, 236511, Control_c, 0, 64, 108
1, 236526, Control_c, 0, 64, 110
1, 236530, Note_off_c, 0, 74, 58
1, 236531, Note_off_c, 0, 44, 62
1, 236542, Note_on_c, 0, 82, 82
1, 236542, Note_on_c, 0, 86, 82
1, 236548, Control_c, 0, 64, 113
1, 236563, Control_c, 0, 64, 121
1, 236578, Control_c, 0, 64, 127
1, 236602, Note_on_c, 0, 53, 96
1, 236611, Note_on_c, 0, 74, 81
1, 236614, Note_on_c, 0, 41, 79
1, 236615, Note_off_c, 0, 86, 62
1, 236633, Note_off_c, 0, 82, 58
1, 236640, Note_off_c, 0, 41, 67
1, 236645, Note_off_c, 0, 53, 66
1, 236664, Note_off_c, 0, 74, 66
1, 236707, Note_on_c, 0, 54, 98
1, 236711, Control_c, 0, 64, 96
1, 236714, Note_on_c, 0, 42, 85
1, 236726, Control_c, 0, 64, 73
1, 236741, Control_c, 0, 64, 0
1, 236770, Control_c, 0, 64, 43
1, 236784, Control_c, 0, 64, 74
1, 236789, Note_on_c, 0, 75, 83
1, 236799, Control_c, 0, 64, 90
1, 236813, Control_c, 0, 64, 107
1, 236828, Control_c, 0, 64, 111
1, 236832, Note_off_c, 0, 54, 60
1, 236843, Control_c, 0, 64, 113
1, 236858, Control_c, 0, 64, 119
1, 236864, Note_on_c, 0, 82, 79
1, 236865, Note_off_c, 0, 42, 62
1, 236870, Note_on_c, 0, 87, 77
1, 236872, Note_off_c, 0, 75, 59
1, 236873, Control_c, 0, 64, 127
1, 236921, Note_on_c, 0, 51, 86
1, 236931, Note_on_c, 0, 39, 76
1, 236931, Note_on_c, 0, 75, 76
1, 236943, Note_off_c, 0, 51, 68
1, 236956, Note_off_c, 0, 82, 57
1, 236966, Note_off_c, 0, 39, 60
1, 236985, Note_off_c, 0, 75, 65
1, 236990, Note_off_c, 0, 87, 61
1, 237007, Control_c, 0, 64, 114
1, 237015, Note_on_c, 0, 50, 101
1, 237022, Note_on_c, 0, 38, 91
1, 237022, Control_c, 0, 64, 86
1, 237037, Control_c, 0, 64, 60
1, 237052, Control_c, 0, 64, 0
1, 237082, Control_c, 0, 64, 45
1, 237096, Note_on_c, 0, 77, 80
1, 237096, Control_c, 0, 64, 72
1, 237101, Note_off_c, 0, 50, 64
1, 237111, Control_c, 0, 64, 87
1, 237123, Note_off_c, 0, 38, 62
1, 237126, Control_c, 0, 64, 102
1, 237141, Control_c, 0, 64, 109
1, 237156, Control_c, 0, 64, 112
1, 237161, Note_off_c, 0, 77, 60
1, 237170, Control_c, 0, 64, 123
1, 237181, Note_on_c, 0, 86, 74
1, 237185, Control_c, 0, 64, 127
1, 237190, Note_on_c, 0, 89, 63
1, 237226, Note_on_c, 0, 46, 88
1, 237232, Note_off_c, 0, 86, 64
1, 237238, Note_off_c, 0, 89, 65
1, 237240, Note_on_c, 0, 34, 68
1, 237261, Note_on_c, 0, 77, 76
1, 237265, Note_off_c, 0, 46, 62
1, 237270, Note_off_c, 0, 34, 64
1, 237311, Control_c, 0, 64, 107
1, 237317, Note_off_c, 0, 77, 60
1, 237326, Control_c, 0, 64, 82
1, 237341, Control_c, 0, 64, 0
1, 237341, Note_on_c, 0, 90, 86
1, 237342, Note_on_c, 0, 45, 95
1, 237346, Note_on_c, 0, 87, 79
1, 237352, Note_on_c, 0, 33, 82
1, 237385, Control_c, 0, 64, 28
1, 237400, Control_c, 0, 64, 71
1, 237407, Note_off_c, 0, 45, 64
1, 237410, Note_off_c, 0, 33, 62
1, 237415, Control_c, 0, 64, 85
1, 237418, Note_on_c, 0, 78, 81
1, 237427, Note_off_c, 0, 90, 65
1, 237430, Control_c, 0, 64, 97
1, 237432, Note_off_c, 0, 87, 56
1, 237444, Control_c, 0, 64, 102
1, 237454, Poly_aftertouch_c, 0, 38, 127
1, 237459, Control_c, 0, 64, 104
1, 237469, Note_off_c, 0, 78, 64
1, 237474, Control_c, 0, 64, 108
1, 237489, Control_c, 0, 64, 116
1, 237503, Note_on_c, 0, 86, 76
1, 237503, Control_c, 0, 64, 127
1, 237504, Note_on_c, 0, 46, 89
1, 237508, Note_on_c, 0, 89, 78
1, 237508, Poly_aftertouch_c, 0, 38, 0
1, 237514, Note_on_c, 0, 34, 66
1, 237555, Note_off_c, 0, 89, 65
1, 237558, Note_off_c, 0, 34, 64
1, 237559, Note_off_c, 0, 46, 62
1, 237564, Note_off_c, 0, 86, 61
1, 237579, Note_on_c, 0, 77, 77
1, 237621, Control_c, 0, 64, 109
1, 237636, Control_c, 0, 64, 89
1, 237639, Note_off_c, 0, 77, 57
1, 237651, Control_c, 0, 64, 60
1, 237666, Control_c, 0, 64, 0
1, 237670, Note_on_c, 0, 87, 78
1, 237674, Note_on_c, 0, 81, 76
1, 237679, Note_on_c, 0, 78, 72
1, 237684, Note_on_c, 0, 48, 68
1, 237687, Note_on_c, 0, 36, 63
1, 237711, Control_c, 0, 64, 62
1, 237726, Control_c, 0, 64, 77
1, 237740, Control_c, 0, 64, 98
1, 237752, Note_off_c, 0, 48, 65
1, 237754, Note_off_c, 0, 36, 63
1, 237755, Control_c, 0, 64, 112
1, 237758, Note_on_c, 0, 77, 79
1, 237765, Note_off_c, 0, 87, 63
1, 237770, Control_c, 0, 64, 118
1, 237772, Note_off_c, 0, 78, 61
1, 237773, Note_off_c, 0, 81, 61
1, 237785, Control_c, 0, 64, 127
1, 237806, Note_off_c, 0, 77, 63
1, 237848, Note_on_c, 0, 84, 83
1, 237857, Note_on_c, 0, 75, 75
1, 237858, Note_on_c, 0, 51, 77
1, 237866, Note_on_c, 0, 39, 66
1, 237869, Note_on_c, 0, 78, 66
1, 237912, Note_off_c, 0, 39, 62
1, 237914, Note_off_c, 0, 84, 63
1, 237916, Note_off_c, 0, 51, 60
1, 237925, Note_off_c, 0, 78, 62
1, 237927, Note_on_c, 0, 74, 78
1, 237931, Note_off_c, 0, 75, 60
1, 237968, Note_off_c, 0, 74, 67
1, 238004, Note_on_c, 0, 54, 80
1, 238006, Note_on_c, 0, 72, 78
1, 238007, Note_on_c, 0, 81, 73
1, 238014, Note_on_c, 0, 42, 69
1, 238015, Note_on_c, 0, 75, 70
1, 238053, Note_off_c, 0, 81, 58
1, 238070, Note_off_c, 0, 54, 61
1, 238076, Note_off_c, 0, 42, 62
1, 238085, Note_off_c, 0, 72, 60
1, 238087, Note_on_c, 0, 71, 80
1, 238091, Note_off_c, 0, 75, 62
1, 238132, Note_off_c, 0, 71, 60
1, 238171, Note_on_c, 0, 57, 83
1, 238171, Note_on_c, 0, 72, 68
1, 238176, Note_on_c, 0, 75, 67
1, 238185, Note_on_c, 0, 45, 74
1, 238220, Note_off_c, 0, 72, 61
1, 238226, Note_off_c, 0, 45, 63
1, 238236, Note_on_c, 0, 66, 87
1, 238238, Note_off_c, 0, 57, 61
1, 238254, Note_off_c, 0, 75, 63
1, 238280, Note_off_c, 0, 66, 66
1, 238326, Control_c, 0, 64, 106
1, 238330, Note_on_c, 0, 60, 91
1, 238333, Note_on_c, 0, 48, 91
1, 238341, Control_c, 0, 64, 84
1, 238356, Control_c, 0, 64, 58
1, 238371, Control_c, 0, 64, 0
1, 238415, Note_on_c, 0, 69, 83
1, 238415, Control_c, 0, 64, 66
1, 238430, Control_c, 0, 64, 80
1, 238444, Control_c, 0, 64, 95
1, 238459, Control_c, 0, 64, 103
1, 238474, Note_off_c, 0, 60, 59
1, 238474, Control_c, 0, 64, 105
1, 238475, Note_off_c, 0, 48, 64
1, 238489, Note_on_c, 0, 81, 82
1, 238489, Control_c, 0, 64, 108
1, 238496, Note_on_c, 0, 78, 85
1, 238499, Note_off_c, 0, 69, 62
1, 238504, Control_c, 0, 64, 115
1, 238518, Control_c, 0, 64, 127
1, 238560, Note_on_c, 0, 63, 93
1, 238560, Note_on_c, 0, 69, 79
1, 238568, Note_on_c, 0, 51, 75
1, 238572, Note_off_c, 0, 81, 58
1, 238581, Note_off_c, 0, 78, 58
1, 238586, Note_off_c, 0, 63, 65
1, 238600, Note_off_c, 0, 51, 63
1, 238626, Note_off_c, 0, 69, 65
1, 238647, Note_on_c, 0, 62, 100
1, 238653, Control_c, 0, 64, 110
1, 238656, Note_on_c, 0, 50, 88
1, 238668, Control_c, 0, 64, 86
1, 238682, Control_c, 0, 64, 58
1, 238697, Control_c, 0, 64, 0
1, 238727, Control_c, 0, 64, 23
1, 238735, Note_on_c, 0, 70, 89
1, 238742, Control_c, 0, 64, 73
1, 238757, Control_c, 0, 64, 91
1, 238760, Note_off_c, 0, 62, 60
1, 238769, Note_off_c, 0, 50, 61
1, 238772, Control_c, 0, 64, 112
1, 238794, Control_c, 0, 64, 118
1, 238809, Control_c, 0, 64, 123
1, 238820, Note_on_c, 0, 82, 80
1, 238823, Note_on_c, 0, 77, 75
1, 238823, Control_c, 0, 64, 127
1, 238833, Note_off_c, 0, 70, 59
1, 238873, Note_on_c, 0, 58, 92
1, 238880, Note_on_c, 0, 70, 71
1, 238885, Note_on_c, 0, 46, 80
1, 238909, Note_off_c, 0, 77, 58
1, 238913, Note_off_c, 0, 58, 65
1, 238926, Note_off_c, 0, 46, 55
1, 238939, Note_off_c, 0, 70, 63
1, 238960, Note_off_c, 0, 82, 58
1, 238966, Note_on_c, 0, 56, 101
1, 238972, Control_c, 0, 64, 98
1, 238978, Note_on_c, 0, 44, 88
1, 238986, Control_c, 0, 64, 67
1, 239001, Control_c, 0, 64, 0
1, 239046, Control_c, 0, 64, 61
1, 239055, Note_on_c, 0, 74, 81
1, 239061, Control_c, 0, 64, 78
1, 239076, Control_c, 0, 64, 97
1, 239091, Control_c, 0, 64, 108
1, 239106, Control_c, 0, 64, 110
1, 239106, Note_off_c, 0, 56, 62
1, 239121, Control_c, 0, 64, 115
1, 239131, Note_off_c, 0, 44, 62
1, 239133, Note_on_c, 0, 86, 82
1, 239133, Note_on_c, 0, 82, 86
1, 239134, Note_off_c, 0, 74, 58
1, 239135, Control_c, 0, 64, 127
1, 239198, Note_on_c, 0, 53, 99
1, 239204, Note_on_c, 0, 74, 81
1, 239205, Note_off_c, 0, 86, 58
1, 239210, Note_on_c, 0, 41, 82
1, 239211, Note_off_c, 0, 82, 60
1, 239237, Note_off_c, 0, 41, 66
1, 239241, Note_off_c, 0, 53, 66
1, 239253, Note_off_c, 0, 74, 66
1, 239268, Control_c, 0, 64, 108
1, 239283, Control_c, 0, 64, 82
1, 239298, Control_c, 0, 64, 26
1, 239301, Note_on_c, 0, 54, 99
1, 239311, Note_on_c, 0, 42, 84
1, 239313, Control_c, 0, 64, 0
1, 239342, Control_c, 0, 64, 59
1, 239357, Control_c, 0, 64, 78
1, 239372, Note_on_c, 0, 75, 88
1, 239372, Control_c, 0, 64, 101
1, 239386, Control_c, 0, 64, 121
1, 239401, Control_c, 0, 64, 123
1, 239418, Control_c, 0, 64, 127
1, 239425, Note_off_c, 0, 54, 60
1, 239451, Note_on_c, 0, 82, 85
1, 239460, Note_on_c, 0, 87, 79
1, 239462, Note_off_c, 0, 42, 62
1, 239463, Note_off_c, 0, 75, 62
1, 239515, Note_on_c, 0, 75, 79
1, 239517, Note_on_c, 0, 51, 92
1, 239528, Note_on_c, 0, 39, 79
1, 239543, Note_off_c, 0, 82, 62
1, 239562, Note_off_c, 0, 51, 63
1, 239571, Note_off_c, 0, 39, 64
1, 239575, Note_off_c, 0, 75, 65
1, 239579, Note_off_c, 0, 87, 60
1, 239588, Control_c, 0, 64, 104
1, 239603, Control_c, 0, 64, 76
1, 239618, Control_c, 0, 64, 0
1, 239621, Note_on_c, 0, 50, 97
1, 239630, Note_on_c, 0, 38, 90
1, 239662, Control_c, 0, 64, 67
1, 239677, Control_c, 0, 64, 83
1, 239687, Note_on_c, 0, 77, 86
1, 239691, Control_c, 0, 64, 102
1, 239706, Control_c, 0, 64, 122
1, 239715, Note_off_c, 0, 50, 58
1, 239721, Control_c, 0, 64, 127
1, 239737, Note_off_c, 0, 38, 62
1, 239768, Note_off_c, 0, 77, 57
1, 239771, Note_on_c, 0, 86, 80
1, 239776, Note_on_c, 0, 89, 76
1, 239824, Note_off_c, 0, 86, 62
1, 239831, Note_off_c, 0, 89, 65
1, 239840, Note_on_c, 0, 46, 91
1, 239847, Note_on_c, 0, 77, 88
1, 239853, Note_on_c, 0, 34, 76
1, 239869, Control_c, 0, 64, 109
1, 239872, Note_off_c, 0, 46, 65
1, 239881, Note_off_c, 0, 34, 66
1, 239884, Control_c, 0, 64, 80
1, 239887, Note_off_c, 0, 77, 64
1, 239899, Control_c, 0, 64, 0
1, 239925, Note_on_c, 0, 87, 85
1, 239927, Note_on_c, 0, 90, 86
1, 239937, Note_on_c, 0, 45, 96
1, 239943, Control_c, 0, 64, 65
1, 239946, Note_on_c, 0, 33, 86
1, 239958, Control_c, 0, 64, 82
1, 239973, Control_c, 0, 64, 99
1, 239988, Control_c, 0, 64, 106
1, 239995, Note_off_c, 0, 45, 65
1, 240001, Note_off_c, 0, 33, 60
1, 240002, Note_on_c, 0, 78, 83
1, 240003, Control_c, 0, 64, 107
1, 240018, Note_on_c, 0, 38, 6
1, 240021, Note_off_c, 0, 90, 64
1, 240032, Control_c, 0, 64, 107
1, 240042, Note_off_c, 0, 87, 61
1, 240045, Poly_aftertouch_c, 0, 34, 0
1, 240051, Note_off_c, 0, 78, 63
1, 240079, Note_off_c, 0, 38, 55
1, 240088, Note_on_c, 0, 46, 97
1, 240089, Note_on_c, 0, 86, 79
1, 240095, Note_on_c, 0, 34, 64
1, 240096, Note_on_c, 0, 89, 69
1, 240136, Control_c, 0, 64, 107
1, 240146, Note_off_c, 0, 89, 63
1, 240151, Control_c, 0, 64, 105
1, 240155, Note_off_c, 0, 34, 64
1, 240158, Note_off_c, 0, 46, 62
1, 240159, Note_off_c, 0, 86, 63
1, 240164, Note_on_c, 0, 77, 74
1, 240165, Control_c, 0, 64, 99
1, 240180, Control_c, 0, 64, 86
1, 240195, Control_c, 0, 64, 66
1, 240211, Control_c, 0, 64, 0
1, 240238, Note_off_c, 0, 77, 0
1, 240253, Note_on_c, 0, 87, 83
1, 240255, Note_on_c, 0, 81, 78
1, 240256, Note_on_c, 0, 78, 83
1, 240260, Note_on_c, 0, 48, 83
1, 240266, Poly_aftertouch_c, 0, 77, 0
1, 240268, Note_on_c, 0, 36, 76
1, 240270, Control_c, 0, 64, 63
1, 240292, Control_c, 0, 64, 79
1, 240307, Control_c, 0, 64, 98
1, 240322, Control_c, 0, 64, 115
1, 240334, Note_off_c, 0, 48, 66
1, 240336, Note_off_c, 0, 36, 63
1, 240337, Control_c, 0, 64, 118
1, 240346, Note_on_c, 0, 77, 71
1, 240351, Note_off_c, 0, 87, 62
1, 240352, Control_c, 0, 64, 125
1, 240355, Note_off_c, 0, 78, 63
1, 240361, Note_off_c, 0, 81, 59
1, 240367, Control_c, 0, 64, 127
1, 240396, Note_off_c, 0, 77, 62
1, 240433, Note_on_c, 0, 84, 79
1, 240437, Note_on_c, 0, 75, 76
1, 240438, Note_on_c, 0, 51, 79
1, 240444, Note_on_c, 0, 39, 73
1, 240444, Note_on_c, 0, 78, 74
1, 240491, Note_off_c, 0, 51, 60
1, 240492, Note_off_c, 0, 84, 63
1, 240498, Note_off_c, 0, 39, 61
1, 240502, Note_off_c, 0, 78, 62
1, 240509, Note_on_c, 0, 74, 77
1, 240513, Note_off_c, 0, 75, 62
1, 240550, Note_off_c, 0, 74, 67
1, 240587, Note_on_c, 0, 54, 82
1, 240593, Note_on_c, 0, 81, 67
1, 240593, Note_on_c, 0, 72, 72
1, 240595, Note_on_c, 0, 75, 67
1, 240596, Note_on_c, 0, 42, 75
1, 240626, Note_off_c, 0, 81, 48
1, 240650, Note_off_c, 0, 54, 60
1, 240650, Note_off_c, 0, 72, 62
1, 240652, Note_off_c, 0, 42, 63
1, 240664, Note_off_c, 0, 75, 64
1, 240668, Note_on_c, 0, 71, 76
1, 240713, Note_off_c, 0, 71, 63
1, 240747, Note_on_c, 0, 57, 85
1, 240752, Note_on_c, 0, 75, 72
1, 240754, Note_on_c, 0, 45, 82
1, 240765, Note_on_c, 0, 72, 49
1, 240790, Note_off_c, 0, 72, 52
1, 240806, Note_on_c, 0, 66, 91
1, 240811, Note_off_c, 0, 45, 65
1, 240817, Note_off_c, 0, 57, 60
1, 240830, Note_off_c, 0, 75, 60
1, 240848, Note_off_c, 0, 66, 67
1, 240885, Control_c, 0, 64, 115
1, 240900, Control_c, 0, 64, 83
1, 240903, Note_on_c, 0, 60, 100
1, 240906, Note_on_c, 0, 48, 100
1, 240914, Control_c, 0, 64, 0
1, 240974, Control_c, 0, 64, 69
1, 240988, Control_c, 0, 64, 87
1, 240990, Note_on_c, 0, 69, 90
1, 241004, Control_c, 0, 64, 104
1, 241019, Control_c, 0, 64, 109
1, 241041, Control_c, 0, 64, 110
1, 241045, Note_off_c, 0, 60, 59
1, 241046, Note_off_c, 0, 48, 63
1, 241056, Control_c, 0, 64, 114
1, 241061, Note_off_c, 0, 69, 58
1, 241070, Control_c, 0, 64, 122
1, 241079, Note_on_c, 0, 81, 81
1, 241082, Note_on_c, 0, 78, 82
1, 241085, Control_c, 0, 64, 127
1, 241138, Note_on_c, 0, 63, 100
1, 241144, Note_on_c, 0, 51, 76
1, 241151, Note_off_c, 0, 81, 59
1, 241151, Note_on_c, 0, 69, 87
1, 241152, Note_off_c, 0, 78, 54
1, 241162, Note_off_c, 0, 63, 66
1, 241174, Note_off_c, 0, 51, 66
1, 241192, Note_off_c, 0, 69, 67
1, 241221, Note_on_c, 0, 62, 101
1, 241225, Note_on_c, 0, 50, 93
1, 241249, Control_c, 0, 64, 111
1, 241263, Control_c, 0, 64, 96
1, 241275, Note_off_c, 0, 62, 59
1, 241277, Control_c, 0, 64, 79
1, 241292, Note_off_c, 0, 50, 64
1, 241292, Control_c, 0, 64, 62
1, 241302, Note_on_c, 0, 70, 83
1, 241307, Control_c, 0, 64, 0
1, 241350, Note_off_c, 0, 70, 57
1, 241384, Note_on_c, 0, 77, 71
1, 241395, Note_on_c, 0, 82, 69
1, 241397, Note_on_c, 0, 58, 96
1, 241401, Note_on_c, 0, 46, 87
1, 241443, Note_off_c, 0, 58, 64
1, 241446, Note_on_c, 0, 70, 80
1, 241466, Note_off_c, 0, 46, 62
1, 241466, Note_off_c, 0, 70, 71
1, 241468, Note_off_c, 0, 77, 60
1, 241481, Note_off_c, 0, 82, 63
1, 241559, Control_c, 0, 64, 70
1, 241570, Note_on_c, 0, 90, 94
1, 241574, Note_on_c, 0, 81, 93
1, 241574, Control_c, 0, 64, 83
1, 241574, Note_on_c, 0, 84, 86
1, 241576, Note_on_c, 0, 51, 97
1, 241582, Note_on_c, 0, 39, 85
1, 241589, Control_c, 0, 64, 98
1, 241603, Control_c, 0, 64, 108
1, 241618, Control_c, 0, 64, 112
1, 241630, Note_off_c, 0, 51, 55
1, 241632, Note_off_c, 0, 81, 0
1, 241633, Control_c, 0, 64, 120
1, 241648, Control_c, 0, 64, 127
1, 241651, Note_off_c, 0, 39, 61
1, 241652, Note_on_c, 0, 81, 38
1, 241657, Note_on_c, 0, 80, 86
1, 241668, Note_off_c, 0, 90, 63
1, 241672, Note_off_c, 0, 84, 62
1, 241678, Note_off_c, 0, 81, 53
1, 241702, Note_off_c, 0, 80, 65
1, 241747, Note_on_c, 0, 87, 83
1, 241749, Note_on_c, 0, 81, 84
1, 241753, Note_on_c, 0, 54, 83
1, 241754, Note_on_c, 0, 78, 86
1, 241758, Note_on_c, 0, 42, 74
1, 241821, Note_off_c, 0, 54, 61
1, 241824, Note_off_c, 0, 42, 64
1, 241836, Note_on_c, 0, 77, 84
1, 241839, Note_off_c, 0, 78, 64
1, 241840, Note_off_c, 0, 87, 63
1, 241845, Note_off_c, 0, 81, 59
1, 241851, Poly_aftertouch_c, 0, 44, 0
1, 241881, Poly_aftertouch_c, 0, 44, 0
1, 241885, Note_off_c, 0, 77, 62
1, 241914, Note_on_c, 0, 57, 87
1, 241917, Note_on_c, 0, 84, 78
1, 241920, Note_on_c, 0, 75, 79
1, 241920, Note_on_c, 0, 45, 84
1, 241923, Note_on_c, 0, 78, 78
1, 241970, Note_off_c, 0, 57, 64
1, 241973, Note_off_c, 0, 45, 64
1, 241977, Note_off_c, 0, 84, 62
1, 241997, Note_on_c, 0, 74, 85
1, 242003, Note_off_c, 0, 75, 63
1, 242007, Note_off_c, 0, 78, 62
1, 242048, Note_off_c, 0, 74, 66
1, 242075, Note_on_c, 0, 78, 81
1, 242093, Note_on_c, 0, 75, 54
1, 242096, Note_on_c, 0, 60, 89
1, 242096, Note_on_c, 0, 79, 68
1, 242098, Note_on_c, 0, 48, 86
1, 242112, Note_off_c, 0, 75, 59
1, 242119, Note_off_c, 0, 79, 57
1, 242144, Note_on_c, 0, 69, 93
1, 242157, Note_off_c, 0, 48, 64
1, 242157, Note_off_c, 0, 60, 61
1, 242172, Note_off_c, 0, 78, 63
1, 242191, Note_off_c, 0, 69, 67
1, 242220, Control_c, 0, 64, 95
1, 242235, Control_c, 0, 64, 61
1, 242250, Note_on_c, 0, 51, 92
1, 242250, Note_on_c, 0, 63, 95
1, 242250, Control_c, 0, 64, 0
1, 242294, Control_c, 0, 64, 69
1, 242309, Control_c, 0, 64, 85
1, 242324, Control_c, 0, 64, 104
1, 242337, Note_on_c, 0, 72, 93
1, 242339, Control_c, 0, 64, 111
1, 242354, Control_c, 0, 64, 112
1, 242368, Control_c, 0, 64, 115
1, 242383, Control_c, 0, 64, 121
1, 242388, Note_off_c, 0, 63, 64
1, 242391, Note_off_c, 0, 72, 63
1, 242393, Note_off_c, 0, 51, 60
1, 242398, Control_c, 0, 64, 127
1, 242415, Note_on_c, 0, 81, 83
1, 242416, Note_on_c, 0, 84, 84
1, 242480, Note_on_c, 0, 66, 98
1, 242480, Note_on_c, 0, 72, 87
1, 242482, Note_off_c, 0, 81, 59
1, 242484, Note_on_c, 0, 54, 89
1, 242501, Note_off_c, 0, 84, 64
1, 242517, Note_off_c, 0, 66, 68
1, 242537, Note_off_c, 0, 54, 62
1, 242547, Note_off_c, 0, 72, 66
1, 242578, Note_on_c, 0, 65, 100
1, 242584, Note_on_c, 0, 53, 91
1, 242620, Note_off_c, 0, 65, 69
1, 242635, Note_off_c, 0, 53, 65
1, 242657, Note_on_c, 0, 74, 82
1, 242732, Note_on_c, 0, 86, 76
1, 242732, Control_c, 0, 64, 115
1, 242733, Note_on_c, 0, 82, 78
1, 242733, Note_off_c, 0, 74, 61
1, 242747, Control_c, 0, 64, 106
1, 242751, Note_on_c, 0, 58, 93
1, 242760, Note_on_c, 0, 46, 90
1, 242762, Control_c, 0, 64, 97
1, 242777, Control_c, 0, 64, 86
1, 242790, Note_off_c, 0, 58, 64
1, 242791, Control_c, 0, 64, 73
1, 242800, Note_off_c, 0, 86, 64
1, 242806, Control_c, 0, 64, 41
1, 242808, Note_off_c, 0, 46, 62
1, 242808, Note_off_c, 0, 82, 59
1, 242814, Note_on_c, 0, 74, 86
1, 242821, Control_c, 0, 64, 0
1, 242858, Note_off_c, 0, 74, 65
1, 242921, Note_on_c, 0, 81, 78
1, 242933, Note_on_c, 0, 87, 90
1, 242934, Note_on_c, 0, 78, 86
1, 242939, Control_c, 0, 64, 66
1, 242942, Note_on_c, 0, 48, 95
1, 242949, Note_on_c, 0, 36, 82
1, 242954, Control_c, 0, 64, 82
1, 242969, Control_c, 0, 64, 103
1, 242984, Control_c, 0, 64, 121
1, 242999, Note_off_c, 0, 48, 66
1, 242999, Control_c, 0, 64, 127
1, 243003, Note_off_c, 0, 36, 65
1, 243023, Note_on_c, 0, 77, 77
1, 243032, Note_off_c, 0, 87, 63
1, 243041, Note_off_c, 0, 81, 61
1, 243046, Note_off_c, 0, 78, 60
1, 243072, Note_off_c, 0, 77, 62
1, 243115, Note_on_c, 0, 84, 84
1, 243120, Note_on_c, 0, 75, 77
1, 243123, Note_on_c, 0, 51, 84
1, 243124, Note_on_c, 0, 78, 76
1, 243132, Note_on_c, 0, 39, 70
1, 243175, Note_off_c, 0, 51, 61
1, 243177, Note_off_c, 0, 84, 64
1, 243182, Note_off_c, 0, 39, 62
1, 243190, Note_on_c, 0, 74, 78
1, 243195, Note_off_c, 0, 78, 64
1, 243201, Note_off_c, 0, 75, 64
1, 243234, Note_off_c, 0, 74, 64
1, 243266, Note_on_c, 0, 72, 84
1, 243267, Note_on_c, 0, 81, 78
1, 243267, Note_on_c, 0, 54, 84
1, 243272, Note_on_c, 0, 42, 80
1, 243272, Note_on_c, 0, 75, 73
1, 243322, Note_off_c, 0, 81, 61
1, 243336, Note_off_c, 0, 54, 62
1, 243343, Note_off_c, 0, 42, 62
1, 243347, Note_off_c, 0, 75, 64
1, 243350, Note_off_c, 0, 72, 61
1, 243354, Note_on_c, 0, 71, 81
1, 243396, Note_off_c, 0, 71, 60
1, 243429, Note_on_c, 0, 72, 73
1, 243431, Note_on_c, 0, 75, 81
1, 243438, Note_on_c, 0, 57, 95
1, 243444, Note_on_c, 0, 45, 87
1, 243494, Note_on_c, 0, 66, 95
1, 243498, Note_off_c, 0, 57, 63
1, 243500, Note_off_c, 0, 45, 64
1, 243511, Note_off_c, 0, 72, 61
1, 243523, Note_off_c, 0, 75, 62
1, 243539, Note_off_c, 0, 66, 64
1, 243585, Control_c, 0, 64, 100
1, 243600, Control_c, 0, 64, 72
1, 243603, Note_on_c, 0, 60, 106
1, 243606, Note_on_c, 0, 48, 101
1, 243614, Control_c, 0, 64, 0
1, 243658, Control_c, 0, 64, 67
1, 243673, Control_c, 0, 64, 87
1, 243688, Control_c, 0, 64, 111
1, 243689, Note_on_c, 0, 69, 92
1, 243703, Control_c, 0, 64, 127
1, 243733, Note_off_c, 0, 48, 63
1, 243738, Note_off_c, 0, 60, 59
1, 243755, Note_off_c, 0, 69, 57
1, 243768, Note_on_c, 0, 81, 86
1, 243772, Note_on_c, 0, 78, 86
1, 243831, Note_on_c, 0, 63, 104
1, 243836, Note_on_c, 0, 51, 86
1, 243841, Note_on_c, 0, 69, 87
1, 243847, Note_off_c, 0, 81, 62
1, 243862, Note_off_c, 0, 78, 60
1, 243866, Note_off_c, 0, 63, 69
1, 243866, Control_c, 0, 64, 117
1, 243881, Control_c, 0, 64, 86
1, 243882, Note_off_c, 0, 51, 63
1, 243889, Note_off_c, 0, 69, 68
1, 243896, Control_c, 0, 64, 57
1, 243911, Control_c, 0, 64, 0
1, 243923, Note_on_c, 0, 62, 100
1, 243929, Note_on_c, 0, 50, 90
1, 243940, Control_c, 0, 64, 70
1, 243955, Control_c, 0, 64, 99
1, 243970, Control_c, 0, 64, 127
1, 243974, Note_on_c, 0, 51, 12
1, 243987, Note_off_c, 0, 62, 60
1, 244002, Note_off_c, 0, 50, 63
1, 244007, Note_on_c, 0, 70, 89
1, 244011, Note_off_c, 0, 51, 45
1, 244061, Note_off_c, 0, 70, 61
1, 244099, Note_on_c, 0, 77, 78
1, 244099, Note_on_c, 0, 82, 78
1, 244106, Note_on_c, 0, 58, 100
1, 244110, Note_on_c, 0, 46, 93
1, 244161, Note_off_c, 0, 58, 63
1, 244173, Note_on_c, 0, 70, 80
1, 244191, Note_off_c, 0, 77, 60
1, 244196, Note_off_c, 0, 70, 65
1, 244204, Note_off_c, 0, 46, 61
1, 244211, Note_off_c, 0, 82, 63
1, 244289, Control_c, 0, 64, 110
1, 244304, Control_c, 0, 64, 79
1, 244306, Note_on_c, 0, 90, 99
1, 244310, Note_on_c, 0, 84, 90
1, 244314, Note_on_c, 0, 81, 95
1, 244316, Note_on_c, 0, 51, 95
1, 244319, Control_c, 0, 64, 0
1, 244323, Note_on_c, 0, 39, 83
1, 244349, Control_c, 0, 64, 13
1, 244363, Control_c, 0, 64, 71
1, 244378, Control_c, 0, 64, 92
1, 244393, Control_c, 0, 64, 127
1, 244400, Note_off_c, 0, 90, 63
1, 244409, Note_on_c, 0, 80, 88
1, 244415, Note_off_c, 0, 81, 59
1, 244422, Note_off_c, 0, 51, 61
1, 244423, Note_off_c, 0, 39, 61
1, 244427, Note_off_c, 0, 84, 62
1, 244453, Note_off_c, 0, 80, 66
1, 244501, Note_on_c, 0, 87, 88
1, 244504, Note_on_c, 0, 78, 89
1, 244507, Note_on_c, 0, 54, 90
1, 244509, Note_on_c, 0, 81, 83
1, 244514, Note_on_c, 0, 42, 79
1, 244567, Note_off_c, 0, 54, 62
1, 244573, Note_off_c, 0, 42, 63
1, 244582, Note_off_c, 0, 87, 62
1, 244582, Note_on_c, 0, 77, 86
1, 244586, Note_off_c, 0, 81, 59
1, 244588, Note_off_c, 0, 78, 66
1, 244629, Note_off_c, 0, 77, 63
1, 244662, Note_on_c, 0, 57, 96
1, 244666, Note_on_c, 0, 84, 79
1, 244668, Note_on_c, 0, 75, 79
1, 244670, Note_on_c, 0, 45, 89
1, 244673, Note_on_c, 0, 78, 75
1, 244717, Note_off_c, 0, 84, 64
1, 244719, Note_off_c, 0, 57, 63
1, 244722, Note_off_c, 0, 45, 64
1, 244744, Note_on_c, 0, 74, 86
1, 244745, Note_off_c, 0, 75, 64
1, 244750, Note_off_c, 0, 78, 61
1, 244806, Note_off_c, 0, 74, 67
1, 244830, Note_on_c, 0, 78, 92
1, 244847, Note_on_c, 0, 60, 98
1, 244850, Note_on_c, 0, 48, 93
1, 244866, Note_on_c, 0, 75, 39
1, 244899, Note_on_c, 0, 69, 93
1, 244904, Note_off_c, 0, 75, 48
1, 244909, Note_off_c, 0, 60, 60
1, 244915, Note_off_c, 0, 48, 63
1, 244941, Note_off_c, 0, 78, 63
1, 244952, Note_off_c, 0, 69, 65
1, 244993, Control_c, 0, 64, 107
1, 245008, Control_c, 0, 64, 74
1, 245013, Note_on_c, 0, 51, 95
1, 245014, Note_on_c, 0, 63, 96
1, 245023, Control_c, 0, 64, 0
1, 245068, Control_c, 0, 64, 48
1, 245082, Control_c, 0, 64, 75
1, 245097, Control_c, 0, 64, 92
1, 245105, Note_on_c, 0, 72, 91
1, 245112, Control_c, 0, 64, 109
1, 245127, Control_c, 0, 64, 111
1, 245142, Control_c, 0, 64, 113
1, 245155, Note_off_c, 0, 63, 63
1, 245157, Control_c, 0, 64, 121
1, 245163, Note_off_c, 0, 51, 60
1, 245169, Note_off_c, 0, 72, 61
1, 245172, Control_c, 0, 64, 127
1, 245191, Note_on_c, 0, 81, 84
1, 245193, Note_on_c, 0, 84, 85
1, 245260, Note_on_c, 0, 66, 93
1, 245264, Note_on_c, 0, 54, 83
1, 245266, Note_on_c, 0, 72, 92
1, 245273, Note_off_c, 0, 81, 60
1, 245282, Note_off_c, 0, 84, 61
1, 245297, Note_off_c, 0, 66, 69
1, 245309, Note_off_c, 0, 54, 63
1, 245319, Control_c, 0, 64, 97
1, 245326, Note_off_c, 0, 72, 66
1, 245334, Control_c, 0, 64, 71
1, 245349, Control_c, 0, 64, 0
1, 245354, Note_on_c, 0, 65, 100
1, 245359, Note_on_c, 0, 53, 93
1, 245378, Control_c, 0, 64, 47
1, 245393, Control_c, 0, 64, 76
1, 245399, Note_off_c, 0, 65, 67
1, 245408, Control_c, 0, 64, 98
1, 245419, Note_off_c, 0, 53, 65
1, 245422, Control_c, 0, 64, 127
1, 245448, Note_on_c, 0, 73, 94
1, 245551, Note_on_c, 0, 82, 85
1, 245556, Note_on_c, 0, 85, 79
1, 245558, Note_on_c, 0, 58, 91
1, 245565, Note_off_c, 0, 73, 39
1, 245568, Note_on_c, 0, 46, 87
1, 245595, Note_off_c, 0, 58, 67
1, 245619, Note_off_c, 0, 46, 60
1, 245637, Note_off_c, 0, 82, 60
1, 245640, Note_off_c, 0, 85, 63
1, 245658, Note_on_c, 0, 73, 97
1, 245696, Note_off_c, 0, 73, 60
1, 245771, Control_c, 0, 64, 118
1, 245786, Control_c, 0, 64, 86
1, 245801, Note_on_c, 0, 54, 93
1, 245801, Control_c, 0, 64, 59
1, 245804, Note_on_c, 0, 66, 103
1, 245816, Control_c, 0, 64, 0
1, 245831, Note_on_c, 0, 42, 49
1, 245846, Control_c, 0, 64, 64
1, 245860, Control_c, 0, 64, 78
1, 245861, Note_off_c, 0, 42, 53
1, 245875, Control_c, 0, 64, 98
1, 245890, Control_c, 0, 64, 112
1, 245905, Control_c, 0, 64, 113
1, 245920, Control_c, 0, 64, 114
1, 245935, Control_c, 0, 64, 118
1, 245950, Control_c, 0, 64, 127
1, 245993, Note_on_c, 0, 70, 79
1, 245995, Note_on_c, 0, 42, 59
1, 245996, Note_on_c, 0, 46, 78
1, 245996, Note_on_c, 0, 49, 78
1, 246003, Note_on_c, 0, 73, 74
1, 246003, Note_on_c, 0, 78, 75
1, 246003, Note_off_c, 0, 54, 59
1, 246013, Note_off_c, 0, 66, 62
1, 246048, Note_off_c, 0, 70, 62
1, 246060, Note_off_c, 0, 49, 60
1, 246061, Note_off_c, 0, 46, 62
1, 246072, Note_off_c, 0, 78, 60
1, 246077, Note_off_c, 0, 42, 62
1, 246092, Note_on_c, 0, 53, 87
1, 246095, Note_on_c, 0, 64, 82
1, 246100, Note_on_c, 0, 65, 71
1, 246125, Note_off_c, 0, 65, 68
1, 246128, Note_off_c, 0, 73, 55
1, 246129, Note_off_c, 0, 64, 64
1, 246157, Control_c, 0, 64, 98
1, 246172, Control_c, 0, 64, 73
1, 246185, Note_on_c, 0, 51, 90
1, 246187, Control_c, 0, 64, 0
1, 246189, Note_on_c, 0, 63, 100
1, 246197, Note_off_c, 0, 53, 62
1, 246218, Note_on_c, 0, 75, 36
1, 246231, Control_c, 0, 64, 60
1, 246245, Control_c, 0, 64, 74
1, 246250, Note_off_c, 0, 75, 33
1, 246257, Note_off_c, 0, 63, 61
1, 246260, Control_c, 0, 64, 89
1, 246270, Note_off_c, 0, 51, 60
1, 246283, Control_c, 0, 64, 97
1, 246298, Control_c, 0, 64, 98
1, 246313, Control_c, 0, 64, 99
1, 246327, Control_c, 0, 64, 101
1, 246335, Note_on_c, 0, 47, 73
1, 246342, Control_c, 0, 64, 105
1, 246343, Note_on_c, 0, 42, 70
1, 246355, Note_on_c, 0, 78, 75
1, 246356, Note_on_c, 0, 71, 75
1, 246357, Control_c, 0, 64, 112
1, 246359, Note_on_c, 0, 75, 71
1, 246372, Control_c, 0, 64, 118
1, 246387, Control_c, 0, 64, 125
1, 246397, Note_off_c, 0, 71, 57
1, 246401, Control_c, 0, 64, 127
1, 246407, Note_off_c, 0, 47, 64
1, 246411, Note_off_c, 0, 42, 61
1, 246419, Note_off_c, 0, 75, 64
1, 246420, Note_off_c, 0, 78, 63
1, 246422, Note_on_c, 0, 53, 86
1, 246433, Note_on_c, 0, 65, 85
1, 246513, Note_on_c, 0, 54, 95
1, 246513, Note_on_c, 0, 66, 91
1, 246519, Control_c, 0, 64, 115
1, 246523, Note_off_c, 0, 53, 64
1, 246525, Note_off_c, 0, 65, 56
1, 246534, Control_c, 0, 64, 102
1, 246549, Control_c, 0, 64, 87
1, 246564, Control_c, 0, 64, 71
1, 246568, Note_off_c, 0, 54, 61
1, 246578, Control_c, 0, 64, 0
1, 246593, Note_on_c, 0, 65, 91
1, 246603, Note_on_c, 0, 53, 87
1, 246604, Note_off_c, 0, 66, 63
1, 246650, Note_off_c, 0, 53, 65
1, 246651, Note_off_c, 0, 65, 66
1, 246675, Note_on_c, 0, 63, 93
1, 246685, Note_on_c, 0, 51, 92
1, 246713, Note_off_c, 0, 63, 67
1, 246736, Note_off_c, 0, 51, 60
1, 246861, Control_c, 0, 64, 56
1, 246874, Note_on_c, 0, 49, 95
1, 246874, Note_on_c, 0, 61, 102
1, 246875, Control_c, 0, 64, 75
1, 246890, Control_c, 0, 64, 88
1, 246905, Control_c, 0, 64, 101
1, 246907, Note_off_c, 0, 61, 68
1, 246913, Note_on_c, 0, 63, 17
1, 246920, Control_c, 0, 64, 106
1, 246921, Note_off_c, 0, 49, 64
1, 246935, Control_c, 0, 64, 109
1, 246949, Control_c, 0, 64, 113
1, 246954, Note_off_c, 0, 63, 53
1, 246964, Control_c, 0, 64, 118
1, 246979, Control_c, 0, 64, 124
1, 246994, Control_c, 0, 64, 127
1, 247078, Note_on_c, 0, 78, 100
1, 247080, Note_on_c, 0, 70, 97
1, 247082, Note_on_c, 0, 73, 91
1, 247087, Note_on_c, 0, 49, 94
1, 247096, Note_on_c, 0, 42, 70
1, 247098, Note_off_c, 0, 70, 69
1, 247099, Note_off_c, 0, 73, 67
1, 247100, Note_on_c, 0, 46, 77
1, 247116, Note_off_c, 0, 78, 66
1, 247117, Note_off_c, 0, 49, 63
1, 247126, Note_off_c, 0, 46, 65
1, 247136, Note_off_c, 0, 42, 64
1, 247139, Note_on_c, 0, 44, 10
1, 247185, Note_off_c, 0, 44, 51
1, 247267, Control_c, 0, 64, 108
1, 247268, Note_on_c, 0, 66, 96
1, 247275, Note_on_c, 0, 54, 97
1, 247282, Control_c, 0, 64, 84
1, 247297, Control_c, 0, 64, 57
1, 247305, Note_on_c, 0, 44, 42
1, 247312, Control_c, 0, 64, 0
1, 247342, Control_c, 0, 64, 66
1, 247350, Note_off_c, 0, 44, 45
1, 247356, Control_c, 0, 64, 80
1, 247371, Control_c, 0, 64, 94
1, 247386, Control_c, 0, 64, 103
1, 247402, Control_c, 0, 64, 105
1, 247416, Control_c, 0, 64, 108
1, 247431, Control_c, 0, 64, 114
1, 247436, Note_on_c, 0, 70, 74
1, 247437, Note_on_c, 0, 49, 79
1, 247443, Note_on_c, 0, 46, 69
1, 247446, Control_c, 0, 64, 127
1, 247447, Note_off_c, 0, 54, 60
1, 247451, Note_on_c, 0, 42, 63
1, 247455, Note_on_c, 0, 73, 70
1, 247461, Note_on_c, 0, 78, 69
1, 247461, Note_off_c, 0, 66, 60
1, 247490, Note_off_c, 0, 70, 62
1, 247506, Note_off_c, 0, 49, 61
1, 247511, Note_off_c, 0, 46, 61
1, 247519, Note_off_c, 0, 78, 59
1, 247524, Note_on_c, 0, 65, 88
1, 247524, Note_off_c, 0, 42, 61
1, 247533, Note_on_c, 0, 53, 91
1, 247563, Note_off_c, 0, 73, 60
1, 247565, Note_off_c, 0, 65, 68
1, 247594, Control_c, 0, 64, 104
1, 247609, Control_c, 0, 64, 78
1, 247613, Note_on_c, 0, 63, 104
1, 247619, Note_on_c, 0, 51, 89
1, 247623, Control_c, 0, 64, 0
1, 247629, Note_off_c, 0, 53, 32
1, 247632, Note_on_c, 0, 75, 53
1, 247653, Control_c, 0, 64, 24
1, 247663, Note_off_c, 0, 75, 35
1, 247668, Control_c, 0, 64, 67
1, 247679, Note_off_c, 0, 63, 63
1, 247683, Control_c, 0, 64, 84
1, 247697, Control_c, 0, 64, 101
1, 247700, Note_off_c, 0, 51, 61
1, 247712, Control_c, 0, 64, 109
1, 247742, Control_c, 0, 64, 111
1, 247757, Control_c, 0, 64, 117
1, 247777, Note_on_c, 0, 47, 73
1, 247779, Control_c, 0, 64, 127
1, 247783, Note_on_c, 0, 75, 61
1, 247783, Note_on_c, 0, 42, 71
1, 247783, Note_on_c, 0, 78, 78
1, 247786, Note_on_c, 0, 71, 72
1, 247834, Note_off_c, 0, 47, 64
1, 247839, Note_off_c, 0, 42, 61
1, 247849, Note_off_c, 0, 78, 63
1, 247852, Note_off_c, 0, 71, 41
1, 247852, Note_off_c, 0, 75, 64
1, 247860, Note_on_c, 0, 53, 88
1, 247860, Note_on_c, 0, 65, 88
1, 247916, Note_off_c, 0, 65, 65
1, 247945, Note_on_c, 0, 54, 94
1, 247945, Note_on_c, 0, 66, 93
1, 247950, Note_off_c, 0, 53, 36
1, 247972, Control_c, 0, 64, 112
1, 247986, Control_c, 0, 64, 99
1, 248001, Control_c, 0, 64, 85
1, 248003, Note_off_c, 0, 54, 59
1, 248016, Control_c, 0, 64, 69
1, 248025, Note_on_c, 0, 65, 90
1, 248026, Note_on_c, 0, 53, 75
1, 248031, Control_c, 0, 64, 0
1, 248033, Note_off_c, 0, 66, 63
1, 248076, Note_off_c, 0, 53, 65
1, 248086, Note_off_c, 0, 65, 66
1, 248109, Note_on_c, 0, 63, 94
1, 248115, Note_on_c, 0, 51, 93
1, 248145, Note_off_c, 0, 63, 65
1, 248165, Note_off_c, 0, 51, 59
1, 248299, Control_c, 0, 64, 54
1, 248305, Note_on_c, 0, 49, 99
1, 248305, Note_on_c, 0, 61, 95
1, 248314, Control_c, 0, 64, 73
1, 248328, Control_c, 0, 64, 84
1, 248339, Note_off_c, 0, 61, 65
1, 248343, Control_c, 0, 64, 94
1, 248352, Note_off_c, 0, 49, 62
1, 248358, Control_c, 0, 64, 98
1, 248373, Control_c, 0, 64, 101
1, 248388, Control_c, 0, 64, 104
1, 248402, Control_c, 0, 64, 108
1, 248405, Poly_aftertouch_c, 0, 63, 0
1, 248417, Control_c, 0, 64, 113
1, 248432, Control_c, 0, 64, 118
1, 248446, Control_c, 0, 64, 122
1, 248461, Control_c, 0, 64, 125
1, 248476, Control_c, 0, 64, 127
1, 248503, Note_on_c, 0, 78, 91
1, 248507, Note_on_c, 0, 70, 95
1, 248513, Note_on_c, 0, 49, 83
1, 248513, Note_on_c, 0, 73, 78
1, 248524, Note_on_c, 0, 42, 69
1, 248530, Note_off_c, 0, 70, 73
1, 248531, Note_on_c, 0, 46, 68
1, 248540, Note_off_c, 0, 49, 65
1, 248540, Note_off_c, 0, 73, 69
1, 248555, Note_off_c, 0, 78, 64
1, 248561, Note_off_c, 0, 46, 64
1, 248562, Note_off_c, 0, 42, 63
1, 248706, Control_c, 0, 64, 113
1, 248710, Note_on_c, 0, 66, 85
1, 248717, Note_on_c, 0, 54, 77
1, 248721, Control_c, 0, 64, 91
1, 248735, Control_c, 0, 64, 69
1, 248750, Control_c, 0, 64, 0
1, 248780, Control_c, 0, 64, 44
1, 248795, Control_c, 0, 64, 69
1, 248810, Control_c, 0, 64, 80
1, 248825, Control_c, 0, 64, 92
1, 248840, Control_c, 0, 64, 98
1, 248854, Control_c, 0, 64, 100
1, 248869, Control_c, 0, 64, 104
1, 248873, Note_on_c, 0, 70, 65
1, 248877, Note_on_c, 0, 49, 68
1, 248879, Note_on_c, 0, 78, 69
1, 248881, Note_on_c, 0, 42, 59
1, 248884, Control_c, 0, 64, 111
1, 248886, Note_off_c, 0, 54, 56
1, 248891, Note_off_c, 0, 66, 63
1, 248892, Note_on_c, 0, 73, 60
1, 248892, Note_on_c, 0, 46, 54
1, 248899, Control_c, 0, 64, 122
1, 248914, Control_c, 0, 64, 127
1, 248916, Note_off_c, 0, 70, 60
1, 248938, Note_off_c, 0, 73, 51
1, 248946, Note_off_c, 0, 78, 62
1, 248951, Note_off_c, 0, 49, 61
1, 248953, Note_off_c, 0, 46, 61
1, 248958, Note_off_c, 0, 42, 62
1, 248964, Note_on_c, 0, 65, 85
1, 248978, Note_on_c, 0, 53, 77
1, 249008, Note_off_c, 0, 65, 65
1, 249018, Control_c, 0, 64, 118
1, 249033, Control_c, 0, 64, 90
1, 249048, Control_c, 0, 64, 73
1, 249051, Note_on_c, 0, 64, 88
1, 249053, Note_on_c, 0, 52, 79
1, 249053, Note_off_c, 0, 53, 65
1, 249063, Control_c, 0, 64, 63
1, 249077, Control_c, 0, 64, 67
1, 249092, Control_c, 0, 64, 78
1, 249101, Note_off_c, 0, 64, 59
1, 249106, Note_off_c, 0, 52, 65
1, 249107, Control_c, 0, 64, 94
1, 249122, Control_c, 0, 64, 111
1, 249137, Control_c, 0, 64, 116
1, 249151, Control_c, 0, 64, 117
1, 249166, Control_c, 0, 64, 122
1, 249181, Control_c, 0, 64, 127
1, 249210, Note_on_c, 0, 70, 67
1, 249211, Note_on_c, 0, 49, 64
1, 249211, Note_on_c, 0, 73, 62
1, 249212, Note_on_c, 0, 78, 71
1, 249219, Note_on_c, 0, 42, 51
1, 249241, Note_off_c, 0, 70, 63
1, 249284, Note_on_c, 0, 65, 87
1, 249293, Note_on_c, 0, 53, 79
1, 249306, Note_off_c, 0, 78, 58
1, 249309, Note_off_c, 0, 49, 31
1, 249311, Note_off_c, 0, 42, 58
1, 249319, Note_off_c, 0, 53, 70
1, 249322, Note_off_c, 0, 65, 65
1, 249324, Note_off_c, 0, 73, 56
1, 249351, Control_c, 0, 64, 116
1, 249366, Control_c, 0, 64, 91
1, 249371, Note_on_c, 0, 66, 95
1, 249381, Control_c, 0, 64, 68
1, 249385, Note_on_c, 0, 54, 85
1, 249396, Control_c, 0, 64, 0
1, 249426, Control_c, 0, 64, 67
1, 249441, Control_c, 0, 64, 82
1, 249455, Control_c, 0, 64, 101
1, 249470, Control_c, 0, 64, 116
1, 249473, Note_off_c, 0, 66, 55
1, 249485, Control_c, 0, 64, 117
1, 249500, Control_c, 0, 64, 118
1, 249515, Control_c, 0, 64, 127
1, 249522, Note_on_c, 0, 49, 77
1, 249524, Note_on_c, 0, 70, 71
1, 249533, Note_on_c, 0, 46, 69
1, 249534, Note_on_c, 0, 78, 68
1, 249536, Note_on_c, 0, 42, 67
1, 249537, Note_on_c, 0, 73, 65
1, 249538, Note_off_c, 0, 54, 57
1, 249547, Note_on_c, 0, 66, 9
1, 249560, Note_off_c, 0, 70, 60
1, 249583, Note_off_c, 0, 49, 62
1, 249591, Note_off_c, 0, 66, 53
1, 249596, Note_off_c, 0, 78, 63
1, 249598, Note_off_c, 0, 46, 61
1, 249602, Note_off_c, 0, 42, 62
1, 249610, Note_on_c, 0, 65, 93
1, 249625, Note_on_c, 0, 53, 79
1, 249631, Note_off_c, 0, 73, 56
1, 249648, Note_off_c, 0, 65, 67
1, 249663, Control_c, 0, 64, 97
1, 249677, Control_c, 0, 64, 73
1, 249686, Note_on_c, 0, 52, 90
1, 249692, Control_c, 0, 64, 42
1, 249694, Note_on_c, 0, 64, 96
1, 249707, Control_c, 0, 64, 63
1, 249709, Note_off_c, 0, 53, 64
1, 249722, Control_c, 0, 64, 75
1, 249735, Note_off_c, 0, 64, 65
1, 249736, Note_on_c, 0, 75, 5
1, 249737, Control_c, 0, 64, 94
1, 249742, Note_off_c, 0, 52, 67
1, 249751, Control_c, 0, 64, 117
1, 249762, Note_on_c, 0, 76, 17
1, 249766, Control_c, 0, 64, 127
1, 249795, Note_off_c, 0, 75, 26
1, 249807, Note_off_c, 0, 76, 60
1, 249851, Note_on_c, 0, 42, 64
1, 249857, Note_on_c, 0, 49, 73
1, 249858, Note_on_c, 0, 70, 72
1, 249862, Note_on_c, 0, 73, 61
1, 249862, Note_on_c, 0, 78, 82
1, 249892, Note_off_c, 0, 70, 56
1, 249900, Note_off_c, 0, 49, 53
1, 249907, Note_on_c, 0, 46, 16
1, 249927, Note_on_c, 0, 65, 90
1, 249935, Note_on_c, 0, 53, 91
1, 249944, Note_off_c, 0, 78, 60
1, 249947, Note_off_c, 0, 42, 39
1, 249956, Note_off_c, 0, 73, 61
1, 249964, Note_off_c, 0, 53, 65
1, 249966, Note_off_c, 0, 65, 64
1, 249976, Note_off_c, 0, 46, 39
1, 250023, Note_on_c, 0, 66, 98
1, 250026, Control_c, 0, 64, 99
1, 250035, Note_on_c, 0, 54, 91
1, 250041, Control_c, 0, 64, 74
1, 250056, Control_c, 0, 64, 0
1, 250086, Control_c, 0, 64, 65
1, 250100, Control_c, 0, 64, 82
1, 250115, Control_c, 0, 64, 108
1, 250130, Control_c, 0, 64, 127
1, 250136, Note_off_c, 0, 66, 55
1, 250183, Note_on_c, 0, 49, 77
1, 250186, Note_on_c, 0, 70, 74
1, 250188, Note_on_c, 0, 42, 72
1, 250189, Note_on_c, 0, 78, 75
1, 250193, Note_off_c, 0, 54, 59
1, 250195, Note_on_c, 0, 73, 65
1, 250199, Note_on_c, 0, 46, 63
1, 250225, Note_off_c, 0, 70, 59
1, 250226, Note_on_c, 0, 50, 50
1, 250252, Note_off_c, 0, 50, 56
1, 250254, Note_off_c, 0, 49, 55
1, 250269, Note_off_c, 0, 78, 62
1, 250271, Note_off_c, 0, 46, 61
1, 250272, Note_on_c, 0, 65, 94
1, 250272, Note_off_c, 0, 42, 62
1, 250291, Note_on_c, 0, 53, 83
1, 250293, Note_off_c, 0, 73, 62
1, 250314, Note_off_c, 0, 65, 67
1, 250364, Note_on_c, 0, 64, 104
1, 250367, Note_on_c, 0, 52, 94
1, 250367, Control_c, 0, 64, 85
1, 250380, Note_on_c, 0, 75, 45
1, 250382, Control_c, 0, 64, 60
1, 250386, Note_off_c, 0, 53, 64
1, 250397, Control_c, 0, 64, 0
1, 250405, Note_off_c, 0, 64, 65
1, 250412, Control_c, 0, 64, 64
1, 250415, Note_off_c, 0, 52, 68
1, 250426, Control_c, 0, 64, 78
1, 250431, Note_off_c, 0, 75, 0
1, 250441, Control_c, 0, 64, 99
1, 250456, Control_c, 0, 64, 127
1, 250511, Poly_aftertouch_c, 0, 75, 0
1, 250523, Note_on_c, 0, 42, 71
1, 250527, Note_on_c, 0, 78, 80
1, 250529, Note_on_c, 0, 70, 77
1, 250534, Note_on_c, 0, 49, 75
1, 250542, Note_on_c, 0, 73, 14
1, 250570, Note_off_c, 0, 49, 58
1, 250573, Note_off_c, 0, 42, 58
1, 250577, Note_off_c, 0, 73, 44
1, 250578, Note_off_c, 0, 78, 66
1, 250604, Note_off_c, 0, 70, 61
1, 250608, Note_on_c, 0, 53, 88
1, 250610, Note_on_c, 0, 65, 82
1, 250658, Note_off_c, 0, 65, 65
1, 250693, Note_on_c, 0, 54, 88
1, 250693, Note_on_c, 0, 66, 89
1, 250698, Note_off_c, 0, 53, 66
1, 250782, Note_off_c, 0, 54, 59
1, 250785, Note_on_c, 0, 65, 92
1, 250789, Note_off_c, 0, 66, 61
1, 250791, Note_on_c, 0, 53, 88
1, 250840, Note_off_c, 0, 65, 64
1, 250870, Note_on_c, 0, 54, 90
1, 250871, Note_on_c, 0, 66, 94
1, 250877, Note_off_c, 0, 53, 65
1, 250940, Note_off_c, 0, 54, 59
1, 250946, Note_on_c, 0, 65, 97
1, 250952, Note_off_c, 0, 66, 60
1, 250962, Note_on_c, 0, 53, 80
1, 251014, Note_off_c, 0, 65, 58
1, 251037, Note_on_c, 0, 51, 98
1, 251041, Note_on_c, 0, 63, 100
1, 251053, Note_off_c, 0, 53, 68
1, 251060, Poly_aftertouch_c, 0, 65, 0
1, 251068, Note_on_c, 0, 66, 54
1, 251071, Control_c, 0, 64, 112
1, 251074, Note_off_c, 0, 63, 68
1, 251077, Note_off_c, 0, 51, 67
1, 251086, Control_c, 0, 64, 95
1, 251087, Note_off_c, 0, 66, 65
1, 251101, Control_c, 0, 64, 78
1, 251116, Control_c, 0, 64, 60
1, 251117, Poly_aftertouch_c, 0, 64, 0
1, 251131, Control_c, 0, 64, 0
1, 251256, Note_on_c, 0, 70, 102
1, 251256, Note_on_c, 0, 82, 100
1, 251259, Note_on_c, 0, 54, 93
1, 251268, Note_on_c, 0, 42, 85
1, 251270, Note_on_c, 0, 75, 68
1, 251271, Note_off_c, 0, 75, 127
1, 251271, Note_off_c, 0, 70, 77
1, 251278, Note_off_c, 0, 82, 63
1, 251285, Note_off_c, 0, 54, 67
1, 251286, Note_on_c, 0, 78, 43
1, 251287, Note_off_c, 0, 78, 127
1, 251298, Note_off_c, 0, 42, 66
1, 251458, Control_c, 0, 64, 70
1, 251465, Note_on_c, 0, 75, 100
1, 251466, Note_on_c, 0, 53, 96
1, 251467, Note_on_c, 0, 41, 86
1, 251469, Note_on_c, 0, 87, 103
1, 251472, Note_on_c, 0, 81, 95
1, 251472, Control_c, 0, 64, 92
1, 251487, Control_c, 0, 64, 115
1, 251495, Note_off_c, 0, 81, 62
1, 251500, Note_off_c, 0, 75, 67
1, 251500, Note_off_c, 0, 87, 67
1, 251502, Control_c, 0, 64, 121
1, 251519, Note_off_c, 0, 53, 66
1, 251524, Control_c, 0, 64, 127
1, 251531, Note_off_c, 0, 41, 66
1, 251584, Note_on_c, 0, 53, 82
1, 251587, Note_on_c, 0, 41, 82
1, 251636, Note_off_c, 0, 53, 61
1, 251637, Note_off_c, 0, 41, 66
1, 251652, Note_on_c, 0, 54, 91
1, 251654, Note_on_c, 0, 66, 83
1, 251673, Note_off_c, 0, 54, 68
1, 251680, Note_off_c, 0, 66, 66
1, 251694, Note_on_c, 0, 43, 88
1, 251701, Note_on_c, 0, 55, 69
1, 251740, Note_off_c, 0, 43, 62
1, 251742, Note_on_c, 0, 53, 24
1, 251744, Note_on_c, 0, 56, 97
1, 251744, Note_off_c, 0, 55, 64
1, 251751, Note_on_c, 0, 68, 88
1, 251768, Note_off_c, 0, 53, 57
1, 251774, Note_off_c, 0, 56, 63
1, 251778, Note_off_c, 0, 68, 64
1, 251798, Note_on_c, 0, 45, 81
1, 251801, Note_on_c, 0, 66, 8
1, 251801, Note_on_c, 0, 57, 81
1, 251831, Note_on_c, 0, 47, 47
1, 251839, Note_off_c, 0, 66, 49
1, 251843, Note_on_c, 0, 58, 83
1, 251843, Note_off_c, 0, 57, 59
1, 251846, Note_off_c, 0, 45, 63
1, 251850, Note_on_c, 0, 70, 86
1, 251861, Note_off_c, 0, 47, 58
1, 251872, Note_off_c, 0, 70, 65
1, 251875, Note_off_c, 0, 58, 62
1, 251892, Note_on_c, 0, 59, 94
1, 251893, Note_on_c, 0, 47, 89
1, 251912, Note_off_c, 0, 59, 70
1, 251923, Note_on_c, 0, 60, 90
1, 251926, Note_on_c, 0, 72, 90
1, 251933, Note_off_c, 0, 47, 66
1, 251939, Note_on_c, 0, 71, 63
1, 251945, Note_off_c, 0, 60, 68
1, 251953, Note_off_c, 0, 72, 67
1, 251953, Control_c, 0, 64, 114
1, 251957, Note_off_c, 0, 71, 40
1, 251968, Control_c, 0, 64, 98
1, 251983, Control_c, 0, 64, 81
1, 251998, Control_c, 0, 64, 44
1, 252013, Control_c, 0, 64, 0
1, 252137, Note_on_c, 0, 53, 103
1, 252137, Note_on_c, 0, 75, 106
1, 252138, Note_on_c, 0, 87, 101
1, 252141, Note_on_c, 0, 41, 91
1, 252142, Note_on_c, 0, 81, 86
1, 252156, Note_off_c, 0, 75, 72
1, 252159, Note_off_c, 0, 81, 71
1, 252159, Note_off_c, 0, 87, 61
1, 252174, Note_off_c, 0, 41, 69
1, 252175, Note_off_c, 0, 53, 68
1, 252377, Control_c, 0, 64, 64
1, 252389, Note_on_c, 0, 74, 100
1, 252390, Note_on_c, 0, 86, 98
1, 252392, Note_on_c, 0, 58, 106
1, 252392, Control_c, 0, 64, 85
1, 252395, Note_on_c, 0, 82, 98
1, 252396, Note_on_c, 0, 46, 91
1, 252396, Note_on_c, 0, 50, 89
1, 252407, Control_c, 0, 64, 95
1, 252421, Note_off_c, 0, 58, 70
1, 252421, Control_c, 0, 64, 98
1, 252423, Note_off_c, 0, 74, 69
1, 252433, Note_off_c, 0, 82, 64
1, 252434, Note_off_c, 0, 50, 65
1, 252436, Control_c, 0, 64, 101
1, 252439, Note_off_c, 0, 86, 66
1, 252441, Note_off_c, 0, 46, 64
1, 252451, Control_c, 0, 64, 113
1, 252466, Control_c, 0, 64, 127
1, 252628, Note_on_c, 0, 86, 72
1, 252629, Note_on_c, 0, 77, 101
1, 252633, Note_on_c, 0, 82, 98
1, 252633, Note_on_c, 0, 89, 91
1, 252639, Note_on_c, 0, 46, 113
1, 252645, Note_on_c, 0, 34, 101
1, 252661, Note_off_c, 0, 77, 66
1, 252669, Note_off_c, 0, 46, 66
1, 252672, Note_off_c, 0, 34, 71
1, 252672, Note_off_c, 0, 86, 65
1, 252673, Note_off_c, 0, 82, 64
1, 252673, Note_off_c, 0, 89, 66
1, 252821, Control_c, 0, 64, 116
1, 252836, Control_c, 0, 64, 80
1, 252851, Control_c, 0, 64, 0
1, 252853, Note_on_c, 0, 75, 107
1, 252855, Note_on_c, 0, 87, 93
1, 252860, Note_on_c, 0, 81, 94
1, 252865, Note_on_c, 0, 54, 93
1, 252873, Note_on_c, 0, 42, 84
1, 252876, Note_on_c, 0, 85, 59
1, 252881, Control_c, 0, 64, 66
1, 252886, Note_off_c, 0, 87, 66
1, 252889, Note_off_c, 0, 75, 69
1, 252894, Note_off_c, 0, 54, 63
1, 252895, Note_off_c, 0, 81, 63
1, 252895, Control_c, 0, 64, 86
1, 252898, Note_off_c, 0, 85, 42
1, 252900, Note_off_c, 0, 42, 67
1, 252910, Control_c, 0, 64, 127
1, 252949, Poly_aftertouch_c, 0, 46, 127
1, 252961, Note_on_c, 0, 53, 99
1, 252967, Note_on_c, 0, 41, 91
1, 252979, Poly_aftertouch_c, 0, 46, 0
1, 252984, Note_on_c, 0, 42, 30
1, 252999, Note_on_c, 0, 49, 38
1, 253006, Note_off_c, 0, 42, 60
1, 253015, Note_off_c, 0, 53, 66
1, 253024, Note_off_c, 0, 41, 66
1, 253027, Note_on_c, 0, 54, 86
1, 253030, Note_on_c, 0, 66, 86
1, 253038, Poly_aftertouch_c, 0, 46, 0
1, 253038, Note_off_c, 0, 49, 54
1, 253049, Note_off_c, 0, 54, 68
1, 253052, Note_off_c, 0, 66, 68
1, 253076, Note_on_c, 0, 55, 90
1, 253080, Note_on_c, 0, 43, 89
1, 253122, Note_on_c, 0, 56, 79
1, 253129, Note_on_c, 0, 68, 90
1, 253131, Note_off_c, 0, 55, 61
1, 253131, Note_off_c, 0, 43, 61
1, 253139, Note_on_c, 0, 66, 69
1, 253155, Note_off_c, 0, 66, 68
1, 253158, Note_off_c, 0, 56, 64
1, 253159, Note_off_c, 0, 68, 63
1, 253185, Note_on_c, 0, 45, 88
1, 253187, Note_on_c, 0, 57, 91
1, 253220, Note_on_c, 0, 58, 91
1, 253225, Note_off_c, 0, 57, 67
1, 253226, Note_off_c, 0, 45, 65
1, 253230, Note_on_c, 0, 70, 82
1, 253252, Note_off_c, 0, 70, 70
1, 253256, Note_off_c, 0, 58, 62
1, 253280, Note_on_c, 0, 59, 99
1, 253283, Note_on_c, 0, 47, 97
1, 253289, Control_c, 0, 64, 107
1, 253301, Note_on_c, 0, 60, 94
1, 253304, Control_c, 0, 64, 84
1, 253306, Note_on_c, 0, 72, 102
1, 253311, Note_off_c, 0, 59, 69
1, 253316, Note_off_c, 0, 47, 67
1, 253319, Control_c, 0, 64, 53
1, 253328, Note_off_c, 0, 60, 67
1, 253334, Control_c, 0, 64, 0
1, 253335, Note_off_c, 0, 72, 69
1, 253536, Note_on_c, 0, 75, 103
1, 253537, Note_on_c, 0, 87, 102
1, 253538, Note_on_c, 0, 53, 99
1, 253540, Note_on_c, 0, 41, 85
1, 253540, Note_on_c, 0, 81, 95
1, 253552, Note_off_c, 0, 75, 74
1, 253554, Note_off_c, 0, 81, 74
1, 253555, Note_off_c, 0, 87, 70
1, 253570, Note_off_c, 0, 53, 68
1, 253571, Note_off_c, 0, 41, 70
1, 253802, Control_c, 0, 64, 54
1, 253812, Note_on_c, 0, 74, 96
1, 253814, Note_on_c, 0, 86, 94
1, 253814, Note_on_c, 0, 82, 100
1, 253815, Note_on_c, 0, 58, 98
1, 253816, Control_c, 0, 64, 83
1, 253818, Note_on_c, 0, 46, 94
1, 253821, Note_on_c, 0, 50, 79
1, 253831, Control_c, 0, 64, 88
1, 253846, Control_c, 0, 64, 89
1, 253847, Note_off_c, 0, 58, 67
1, 253852, Note_off_c, 0, 50, 67
1, 253861, Note_off_c, 0, 46, 62
1, 253861, Control_c, 0, 64, 90
1, 253875, Control_c, 0, 64, 96
1, 253890, Control_c, 0, 64, 104
1, 253905, Control_c, 0, 64, 127
1, 253924, Poly_aftertouch_c, 0, 52, 0
1, 254067, Note_off_c, 0, 74, 65
1, 254069, Note_on_c, 0, 46, 113
1, 254070, Note_off_c, 0, 86, 61
1, 254073, Note_on_c, 0, 34, 96
1, 254092, Note_off_c, 0, 82, 63
1, 254100, Note_off_c, 0, 34, 70
1, 254102, Note_off_c, 0, 46, 67
1, 254246, Control_c, 0, 64, 112
1, 254261, Control_c, 0, 64, 78
1, 254275, Note_on_c, 0, 75, 105
1, 254275, Control_c, 0, 64, 0
1, 254276, Note_on_c, 0, 87, 91
1, 254283, Note_on_c, 0, 81, 83
1, 254293, Note_on_c, 0, 54, 96
1, 254299, Note_on_c, 0, 42, 83
1, 254305, Control_c, 0, 64, 68
1, 254314, Note_off_c, 0, 75, 67
1, 254315, Note_off_c, 0, 87, 66
1, 254318, Note_off_c, 0, 81, 65
1, 254320, Control_c, 0, 64, 91
1, 254329, Note_off_c, 0, 42, 66
1, 254332, Note_off_c, 0, 54, 62
1, 254335, Control_c, 0, 64, 127
1, 254337, Note_on_c, 0, 48, 25
1, 254377, Note_off_c, 0, 48, 53
1, 254390, Note_on_c, 0, 41, 61
1, 254394, Note_on_c, 0, 53, 98
1, 254436, Note_off_c, 0, 53, 66
1, 254442, Note_off_c, 0, 41, 65
1, 254451, Note_on_c, 0, 54, 87
1, 254451, Note_on_c, 0, 66, 85
1, 254475, Note_off_c, 0, 54, 65
1, 254478, Note_off_c, 0, 66, 67
1, 254500, Note_on_c, 0, 55, 82
1, 254503, Note_on_c, 0, 43, 86
1, 254555, Note_on_c, 0, 56, 93
1, 254559, Note_off_c, 0, 55, 65
1, 254563, Note_on_c, 0, 68, 86
1, 254565, Note_off_c, 0, 43, 60
1, 254568, Note_on_c, 0, 53, 3
1, 254584, Note_on_c, 0, 66, 55
1, 254588, Note_off_c, 0, 56, 62
1, 254598, Note_off_c, 0, 53, 50
1, 254604, Note_off_c, 0, 66, 66
1, 254606, Note_off_c, 0, 68, 60
1, 254617, Note_on_c, 0, 57, 93
1, 254619, Note_on_c, 0, 45, 88
1, 254651, Note_on_c, 0, 58, 91
1, 254660, Note_off_c, 0, 57, 64
1, 254662, Note_off_c, 0, 45, 65
1, 254663, Note_on_c, 0, 70, 82
1, 254675, Note_on_c, 0, 46, 11
1, 254685, Note_off_c, 0, 70, 68
1, 254690, Note_off_c, 0, 58, 62
1, 254714, Note_on_c, 0, 47, 85
1, 254716, Note_on_c, 0, 59, 96
1, 254725, Note_off_c, 0, 46, 36
1, 254729, Control_c, 0, 64, 114
1, 254735, Note_on_c, 0, 60, 97
1, 254738, Note_on_c, 0, 72, 100
1, 254744, Control_c, 0, 64, 91
1, 254750, Note_off_c, 0, 59, 67
1, 254757, Note_off_c, 0, 47, 66
1, 254758, Control_c, 0, 64, 69
1, 254764, Note_off_c, 0, 60, 68
1, 254767, Note_on_c, 0, 71, 38
1, 254771, Note_off_c, 0, 72, 71
1, 254773, Control_c, 0, 64, 0
1, 254793, Note_off_c, 0, 71, 36
1, 254958, Note_on_c, 0, 75, 101
1, 254958, Note_on_c, 0, 87, 98
1, 254963, Note_on_c, 0, 81, 87
1, 254970, Note_on_c, 0, 53, 98
1, 254971, Note_on_c, 0, 41, 89
1, 254981, Note_off_c, 0, 81, 72
1, 254982, Note_off_c, 0, 75, 68
1, 254991, Note_off_c, 0, 87, 65
1, 255009, Note_off_c, 0, 41, 67
1, 255009, Note_off_c, 0, 53, 66
1, 255203, Control_c, 0, 64, 65
1, 255214, Note_on_c, 0, 74, 97
1, 255214, Note_on_c, 0, 86, 92
1, 255217, Control_c, 0, 64, 80
1, 255218, Note_on_c, 0, 82, 92
1, 255220, Note_on_c, 0, 58, 107
1, 255223, Note_on_c, 0, 46, 85
1, 255228, Note_on_c, 0, 50, 83
1, 255232, Control_c, 0, 64, 100
1, 255247, Control_c, 0, 64, 125
1, 255251, Note_off_c, 0, 58, 69
1, 255253, Note_off_c, 0, 74, 70
1, 255256, Note_on_c, 0, 84, 43
1, 255269, Note_off_c, 0, 50, 66
1, 255269, Control_c, 0, 64, 127
1, 255278, Note_off_c, 0, 82, 67
1, 255279, Note_off_c, 0, 46, 64
1, 255281, Note_off_c, 0, 86, 67
1, 255292, Note_off_c, 0, 84, 57
1, 255331, Poly_aftertouch_c, 0, 52, 0
1, 255480, Note_on_c, 0, 77, 102
1, 255480, Note_on_c, 0, 86, 77
1, 255482, Note_on_c, 0, 89, 90
1, 255483, Note_on_c, 0, 82, 96
1, 255492, Note_on_c, 0, 46, 100
1, 255495, Note_on_c, 0, 34, 92
1, 255513, Note_off_c, 0, 46, 70
1, 255518, Note_off_c, 0, 77, 65
1, 255519, Note_on_c, 0, 44, 50
1, 255520, Note_off_c, 0, 44, 127
1, 255522, Note_off_c, 0, 34, 69
1, 255527, Note_on_c, 0, 88, 27
1, 255531, Note_off_c, 0, 89, 66
1, 255535, Note_off_c, 0, 86, 64
1, 255540, Note_off_c, 0, 82, 63
1, 255548, Poly_aftertouch_c, 0, 44, 0
1, 255565, Note_off_c, 0, 88, 31
1, 255714, Control_c, 0, 64, 108
1, 255724, Note_on_c, 0, 75, 99
1, 255724, Note_on_c, 0, 87, 97
1, 255728, Note_on_c, 0, 81, 90
1, 255729, Control_c, 0, 64, 74
1, 255743, Note_on_c, 0, 54, 92
1, 255744, Control_c, 0, 64, 53
1, 255748, Note_on_c, 0, 42, 84
1, 255759, Control_c, 0, 64, 68
1, 255767, Note_off_c, 0, 75, 66
1, 255767, Note_off_c, 0, 87, 65
1, 255771, Note_off_c, 0, 81, 64
1, 255774, Control_c, 0, 64, 85
1, 255778, Note_off_c, 0, 42, 68
1, 255780, Note_off_c, 0, 54, 60
1, 255788, Control_c, 0, 64, 127
1, 255846, Note_on_c, 0, 53, 90
1, 255851, Note_on_c, 0, 41, 80
1, 255886, Note_on_c, 0, 46, 35
1, 255894, Note_off_c, 0, 53, 65
1, 255900, Note_off_c, 0, 41, 64
1, 255907, Note_on_c, 0, 54, 83
1, 255907, Note_on_c, 0, 66, 80
1, 255917, Note_off_c, 0, 46, 52
1, 255933, Note_off_c, 0, 66, 67
1, 255934, Note_off_c, 0, 54, 62
1, 255954, Note_on_c, 0, 55, 87
1, 255956, Note_on_c, 0, 43, 85
1, 255985, Poly_aftertouch_c, 0, 49, 0
1, 256016, Note_on_c, 0, 56, 93
1, 256017, Note_off_c, 0, 55, 64
1, 256018, Note_on_c, 0, 68, 89
1, 256018, Note_off_c, 0, 43, 60
1, 256044, Note_off_c, 0, 56, 63
1, 256048, Note_on_c, 0, 66, 43
1, 256059, Note_off_c, 0, 68, 61
1, 256070, Note_off_c, 0, 66, 63
1, 256073, Note_on_c, 0, 57, 92
1, 256079, Note_on_c, 0, 45, 79
1, 256091, Note_on_c, 0, 47, 71
1, 256112, Note_on_c, 0, 58, 89
1, 256113, Note_off_c, 0, 45, 66
1, 256114, Note_off_c, 0, 47, 63
1, 256115, Note_off_c, 0, 57, 66
1, 256118, Note_on_c, 0, 70, 88
1, 256149, Note_off_c, 0, 70, 60
1, 256151, Note_off_c, 0, 58, 62
1, 256169, Note_on_c, 0, 59, 99
1, 256171, Note_on_c, 0, 47, 100
1, 256195, Note_on_c, 0, 60, 95
1, 256196, Control_c, 0, 64, 121
1, 256197, Note_on_c, 0, 72, 98
1, 256207, Note_off_c, 0, 59, 66
1, 256211, Control_c, 0, 64, 90
1, 256213, Note_off_c, 0, 47, 68
1, 256225, Note_off_c, 0, 60, 68
1, 256226, Control_c, 0, 64, 67
1, 256231, Note_off_c, 0, 72, 69
1, 256235, Note_on_c, 0, 71, 37
1, 256241, Control_c, 0, 64, 0
1, 256264, Note_off_c, 0, 71, 37
1, 256434, Note_on_c, 0, 75, 98
1, 256435, Note_on_c, 0, 87, 99
1, 256438, Note_on_c, 0, 81, 90
1, 256443, Note_on_c, 0, 53, 101
1, 256443, Note_on_c, 0, 41, 86
1, 256455, Note_off_c, 0, 81, 69
1, 256458, Note_off_c, 0, 75, 68
1, 256469, Note_off_c, 0, 87, 65
1, 256481, Note_off_c, 0, 53, 68
1, 256487, Note_off_c, 0, 41, 66
1, 256738, Note_on_c, 0, 74, 98
1, 256738, Note_on_c, 0, 82, 100
1, 256740, Note_on_c, 0, 58, 106
1, 256740, Note_on_c, 0, 86, 94
1, 256741, Note_on_c, 0, 46, 86
1, 256744, Control_c, 0, 64, 71
1, 256745, Note_on_c, 0, 50, 82
1, 256767, Control_c, 0, 64, 80
1, 256777, Note_off_c, 0, 58, 65
1, 256782, Control_c, 0, 64, 89
1, 256791, Note_off_c, 0, 50, 65
1, 256796, Control_c, 0, 64, 94
1, 256802, Note_off_c, 0, 46, 63
1, 256811, Control_c, 0, 64, 102
1, 256826, Control_c, 0, 64, 119
1, 256841, Control_c, 0, 64, 127
1, 256858, Poly_aftertouch_c, 0, 84, 0
1, 257042, Note_on_c, 0, 46, 98
1, 257048, Note_on_c, 0, 34, 90
1, 257077, Note_off_c, 0, 46, 62
1, 257089, Note_off_c, 0, 34, 62
1, 257096, Note_off_c, 0, 86, 57
1, 257142, Note_off_c, 0, 74, 56
1, 257146, Note_off_c, 0, 82, 61
1, 257375, Control_c, 0, 64, 96
1, 257390, Control_c, 0, 64, 72
1, 257402, Note_on_c, 0, 41, 72
1, 257404, Control_c, 0, 64, 0
1, 257405, Note_on_c, 0, 29, 64
1, 257434, Control_c, 0, 64, 54
1, 257449, Control_c, 0, 64, 78
1, 257464, Control_c, 0, 64, 106
1, 257475, Note_off_c, 0, 41, 63
1, 257478, Control_c, 0, 64, 127
1, 257488, Note_off_c, 0, 29, 61
1, 257530, Note_on_c, 0, 42, 73
1, 257534, Note_on_c, 0, 54, 65
1, 257559, Note_off_c, 0, 42, 65
1, 257562, Note_off_c, 0, 54, 64
1, 257574, Note_on_c, 0, 43, 74
1, 257577, Note_on_c, 0, 31, 74
1, 257625, Note_off_c, 0, 31, 63
1, 257626, Note_off_c, 0, 43, 59
1, 257647, Note_on_c, 0, 44, 78
1, 257653, Note_on_c, 0, 56, 66
1, 257677, Note_off_c, 0, 44, 64
1, 257683, Note_on_c, 0, 54, 19
1, 257683, Note_off_c, 0, 56, 64
1, 257696, Note_on_c, 0, 33, 78
1, 257697, Note_on_c, 0, 45, 82
1, 257717, Note_off_c, 0, 54, 45
1, 257734, Note_off_c, 0, 45, 64
1, 257738, Note_off_c, 0, 33, 65
1, 257748, Note_on_c, 0, 46, 79
1, 257757, Note_on_c, 0, 58, 70
1, 257784, Note_off_c, 0, 46, 64
1, 257786, Note_off_c, 0, 58, 68
1, 257804, Note_on_c, 0, 47, 85
1, 257806, Note_on_c, 0, 35, 80
1, 257835, Note_off_c, 0, 47, 64
1, 257836, Note_off_c, 0, 35, 63
1, 257846, Note_on_c, 0, 48, 70
1, 257848, Note_on_c, 0, 60, 80
1, 257867, Note_off_c, 0, 48, 63
1, 257873, Note_off_c, 0, 60, 68
1, 257916, Control_c, 0, 64, 118
1, 257931, Control_c, 0, 64, 84
1, 257933, Note_on_c, 0, 53, 94
1, 257940, Note_on_c, 0, 41, 94
1, 257946, Control_c, 0, 64, 58
1, 257961, Control_c, 0, 64, 0
1, 257974, Note_on_c, 0, 49, 28
1, 257976, Control_c, 0, 64, 50
1, 257980, Note_off_c, 0, 53, 64
1, 257984, Note_off_c, 0, 41, 66
1, 257988, Note_on_c, 0, 46, 5
1, 257990, Control_c, 0, 64, 75
1, 257991, Note_on_c, 0, 54, 89
1, 257999, Note_on_c, 0, 66, 79
1, 258005, Control_c, 0, 64, 102
1, 258014, Note_off_c, 0, 49, 33
1, 258015, Note_off_c, 0, 54, 67
1, 258020, Control_c, 0, 64, 127
1, 258022, Note_off_c, 0, 66, 70
1, 258044, Note_off_c, 0, 46, 47
1, 258055, Note_on_c, 0, 55, 93
1, 258061, Note_on_c, 0, 43, 87
1, 258104, Note_on_c, 0, 56, 88
1, 258105, Note_on_c, 0, 51, 20
1, 258106, Note_off_c, 0, 55, 64
1, 258106, Note_on_c, 0, 68, 81
1, 258109, Note_off_c, 0, 43, 62
1, 258130, Note_off_c, 0, 56, 66
1, 258131, Note_off_c, 0, 68, 67
1, 258146, Note_off_c, 0, 51, 40
1, 258165, Note_on_c, 0, 57, 95
1, 258168, Note_on_c, 0, 45, 88
1, 258204, Note_on_c, 0, 58, 67
1, 258207, Poly_aftertouch_c, 0, 66, 0
1, 258213, Note_off_c, 0, 57, 64
1, 258214, Note_on_c, 0, 70, 82
1, 258214, Note_off_c, 0, 45, 64
1, 258263, Note_off_c, 0, 58, 64
1, 258265, Note_off_c, 0, 70, 60
1, 258285, Note_on_c, 0, 59, 95
1, 258286, Note_on_c, 0, 47, 94
1, 258303, Poly_aftertouch_c, 0, 68, 127
1, 258321, Note_on_c, 0, 60, 81
1, 258321, Note_on_c, 0, 72, 86
1, 258322, Note_off_c, 0, 47, 63
1, 258325, Note_off_c, 0, 59, 63
1, 258325, Poly_aftertouch_c, 0, 68, 0
1, 258341, Note_off_c, 0, 60, 68
1, 258361, Note_off_c, 0, 72, 62
1, 258413, Control_c, 0, 64, 114
1, 258418, Note_on_c, 0, 65, 99
1, 258420, Note_on_c, 0, 53, 90
1, 258428, Control_c, 0, 64, 82
1, 258442, Control_c, 0, 64, 0
1, 258450, Note_on_c, 0, 61, 46
1, 258464, Note_off_c, 0, 65, 67
1, 258472, Control_c, 0, 64, 10
1, 258474, Note_on_c, 0, 66, 94
1, 258475, Note_off_c, 0, 53, 66
1, 258477, Note_off_c, 0, 61, 36
1, 258482, Note_on_c, 0, 78, 82
1, 258487, Control_c, 0, 64, 70
1, 258500, Note_off_c, 0, 66, 66
1, 258501, Control_c, 0, 64, 97
1, 258503, Note_off_c, 0, 78, 66
1, 258515, Control_c, 0, 64, 127
1, 258539, Note_on_c, 0, 67, 100
1, 258541, Note_on_c, 0, 55, 89
1, 258577, Poly_aftertouch_c, 0, 73, 0
1, 258589, Note_off_c, 0, 67, 63
1, 258592, Note_off_c, 0, 55, 67
1, 258593, Note_on_c, 0, 68, 90
1, 258598, Note_on_c, 0, 80, 86
1, 258616, Note_on_c, 0, 78, 67
1, 258624, Note_off_c, 0, 80, 63
1, 258632, Note_off_c, 0, 68, 59
1, 258634, Note_off_c, 0, 78, 63
1, 258651, Poly_aftertouch_c, 0, 63, 0
1, 258654, Note_on_c, 0, 69, 99
1, 258656, Note_on_c, 0, 57, 94
1, 258702, Note_off_c, 0, 69, 67
1, 258705, Note_on_c, 0, 70, 95
1, 258707, Note_off_c, 0, 57, 65
1, 258709, Note_on_c, 0, 82, 91
1, 258747, Note_off_c, 0, 70, 64
1, 258749, Note_off_c, 0, 82, 66
1, 258772, Note_on_c, 0, 71, 95
1, 258773, Note_on_c, 0, 59, 93
1, 258810, Poly_aftertouch_c, 0, 80, 0
1, 258815, Note_on_c, 0, 84, 97
1, 258815, Note_off_c, 0, 59, 66
1, 258815, Note_on_c, 0, 72, 85
1, 258818, Note_off_c, 0, 71, 64
1, 258832, Note_off_c, 0, 72, 75
1, 258848, Poly_aftertouch_c, 0, 66, 127
1, 258850, Note_off_c, 0, 84, 68
1, 258881, Poly_aftertouch_c, 0, 63, 0
1, 258881, Poly_aftertouch_c, 0, 66, 0
1, 258887, Control_c, 0, 64, 119
1, 258902, Control_c, 0, 64, 85
1, 258911, Note_on_c, 0, 77, 96
1, 258913, Note_on_c, 0, 65, 97
1, 258917, Control_c, 0, 64, 43
1, 258931, Control_c, 0, 64, 0
1, 258935, Note_on_c, 0, 73, 58
1, 258946, Control_c, 0, 64, 53
1, 258955, Note_off_c, 0, 73, 59
1, 258956, Note_on_c, 0, 70, 34
1, 258961, Control_c, 0, 64, 78
1, 258969, Note_off_c, 0, 77, 62
1, 258970, Note_on_c, 0, 78, 103
1, 258972, Note_off_c, 0, 65, 68
1, 258976, Note_on_c, 0, 90, 98
1, 258976, Control_c, 0, 64, 127
1, 258985, Note_off_c, 0, 70, 33
1, 258998, Note_off_c, 0, 78, 70
1, 259021, Note_off_c, 0, 90, 63
1, 259062, Note_on_c, 0, 79, 97
1, 259063, Note_on_c, 0, 67, 97
1, 259111, Note_on_c, 0, 80, 99
1, 259111, Note_on_c, 0, 92, 103
1, 259120, Note_off_c, 0, 79, 63
1, 259121, Note_off_c, 0, 67, 64
1, 259136, Note_on_c, 0, 93, 71
1, 259147, Note_off_c, 0, 80, 66
1, 259151, Note_on_c, 0, 82, 36
1, 259152, Note_off_c, 0, 82, 127
1, 259152, Note_off_c, 0, 93, 63
1, 259159, Note_off_c, 0, 92, 61
1, 259167, Poly_aftertouch_c, 0, 75, 0
1, 259204, Note_on_c, 0, 69, 94
1, 259205, Note_on_c, 0, 81, 102
1, 259253, Note_on_c, 0, 82, 94
1, 259254, Note_on_c, 0, 94, 99
1, 259260, Note_off_c, 0, 69, 68
1, 259261, Note_off_c, 0, 81, 63
1, 259292, Note_off_c, 0, 82, 65
1, 259304, Note_on_c, 0, 95, 26
1, 259305, Note_off_c, 0, 95, 127
1, 259308, Note_off_c, 0, 94, 65
1, 259345, Note_on_c, 0, 83, 99
1, 259349, Note_on_c, 0, 71, 97
1, 259382, Note_off_c, 0, 83, 66
1, 259397, Note_off_c, 0, 71, 66
1, 259409, Note_on_c, 0, 96, 102
1, 259413, Note_on_c, 0, 84, 94
1, 259440, Note_off_c, 0, 96, 68
1, 259450, Note_off_c, 0, 84, 68
1, 259591, Control_c, 0, 64, 114
1, 259605, Control_c, 0, 64, 82
1, 259620, Control_c, 0, 64, 0
1, 259629, Note_on_c, 0, 70, 93
1, 259630, Note_on_c, 0, 58, 102
1, 259650, Control_c, 0, 64, 43
1, 259664, Note_off_c, 0, 58, 62
1, 259665, Control_c, 0, 64, 70
1, 259680, Control_c, 0, 64, 91
1, 259681, Note_off_c, 0, 70, 60
1, 259695, Control_c, 0, 64, 127
1, 259740, Poly_aftertouch_c, 0, 68, 0
1, 259768, Note_on_c, 0, 46, 94
1, 259772, Note_on_c, 0, 34, 84
1, 259819, Note_off_c, 0, 46, 63
1, 259823, Note_off_c, 0, 34, 63
1, 259876, Note_on_c, 0, 70, 98
1, 259877, Note_on_c, 0, 74, 88
1, 259877, Note_on_c, 0, 82, 90
1, 259920, Note_off_c, 0, 82, 66
1, 259926, Note_off_c, 0, 74, 64
1, 259927, Note_off_c, 0, 70, 59
1, 259972, Note_on_c, 0, 57, 92
1, 259981, Note_on_c, 0, 45, 89
1, 260015, Note_off_c, 0, 57, 66
1, 260036, Note_off_c, 0, 45, 64
1, 260058, Control_c, 0, 64, 94
1, 260073, Control_c, 0, 64, 70
1, 260073, Note_on_c, 0, 55, 100
1, 260075, Note_on_c, 0, 67, 94
1, 260087, Control_c, 0, 64, 0
1, 260097, Note_on_c, 0, 66, 60
1, 260101, Note_off_c, 0, 55, 67
1, 260102, Control_c, 0, 64, 51
1, 260115, Note_off_c, 0, 66, 65
1, 260117, Control_c, 0, 64, 74
1, 260121, Note_off_c, 0, 67, 65
1, 260131, Control_c, 0, 64, 105
1, 260146, Control_c, 0, 64, 127
1, 260163, Note_on_c, 0, 46, 100
1, 260171, Note_on_c, 0, 34, 90
1, 260212, Note_on_c, 0, 44, 22
1, 260213, Note_off_c, 0, 34, 63
1, 260213, Note_off_c, 0, 46, 63
1, 260254, Note_off_c, 0, 44, 46
1, 260258, Note_on_c, 0, 70, 102
1, 260261, Note_on_c, 0, 82, 91
1, 260295, Note_off_c, 0, 82, 61
1, 260300, Note_off_c, 0, 70, 59
1, 260337, Note_on_c, 0, 57, 93
1, 260339, Note_on_c, 0, 45, 86
1, 260380, Note_off_c, 0, 57, 65
1, 260398, Note_off_c, 0, 45, 64
1, 260422, Note_on_c, 0, 70, 88
1, 260423, Note_on_c, 0, 58, 95
1, 260455, Note_on_c, 0, 71, 48
1, 260465, Note_off_c, 0, 58, 64
1, 260467, Note_off_c, 0, 70, 63
1, 260477, Note_off_c, 0, 71, 59
1, 260499, Note_on_c, 0, 57, 92
1, 260510, Note_on_c, 0, 45, 88
1, 260546, Note_off_c, 0, 57, 64
1, 260562, Note_off_c, 0, 45, 64
1, 260586, Note_on_c, 0, 55, 84
1, 260591, Note_on_c, 0, 67, 95
1, 260615, Note_on_c, 0, 66, 62
1, 260634, Note_off_c, 0, 66, 63
1, 260634, Note_off_c, 0, 67, 67
1, 260637, Note_off_c, 0, 55, 63
1, 260661, Note_on_c, 0, 54, 98
1, 260669, Note_on_c, 0, 42, 88
1, 260701, Note_off_c, 0, 54, 65
1, 260717, Control_c, 0, 64, 118
1, 260729, Note_off_c, 0, 42, 61
1, 260732, Control_c, 0, 64, 89
1, 260747, Control_c, 0, 64, 61
1, 260753, Note_on_c, 0, 53, 99
1, 260754, Note_on_c, 0, 65, 93
1, 260762, Control_c, 0, 64, 0
1, 260769, Poly_aftertouch_c, 0, 44, 0
1, 260786, Note_off_c, 0, 53, 67
1, 260792, Note_on_c, 0, 64, 39
1, 260793, Note_off_c, 0, 64, 127
1, 260804, Note_off_c, 0, 65, 67
1, 260807, Control_c, 0, 64, 70
1, 260822, Note_on_c, 0, 46, 93
1, 260822, Control_c, 0, 64, 90
1, 260828, Note_on_c, 0, 34, 80
1, 260836, Control_c, 0, 64, 121
1, 260851, Control_c, 0, 64, 127
1, 260851, Note_off_c, 0, 46, 59
1, 260859, Note_off_c, 0, 34, 66
1, 260922, Note_on_c, 0, 70, 94
1, 260924, Note_on_c, 0, 82, 92
1, 260930, Note_on_c, 0, 74, 75
1, 260950, Note_off_c, 0, 74, 72
1, 260952, Note_off_c, 0, 82, 63
1, 260956, Note_off_c, 0, 70, 54
1, 260986, Note_on_c, 0, 58, 81
1, 260996, Note_on_c, 0, 46, 70
1, 260996, Note_on_c, 0, 50, 62
1, 261021, Note_off_c, 0, 58, 64
1, 261042, Note_off_c, 0, 50, 64
1, 261045, Control_c, 0, 64, 104
1, 261058, Note_off_c, 0, 46, 64
1, 261059, Control_c, 0, 64, 77
1, 261074, Control_c, 0, 64, 0
1, 261085, Note_on_c, 0, 58, 95
1, 261087, Note_on_c, 0, 70, 93
1, 261104, Control_c, 0, 64, 66
1, 261115, Note_off_c, 0, 58, 66
1, 261119, Control_c, 0, 64, 89
1, 261133, Control_c, 0, 64, 127
1, 261134, Note_on_c, 0, 68, 21
1, 261138, Note_off_c, 0, 70, 61
1, 261156, Note_on_c, 0, 44, 81
1, 261164, Note_on_c, 0, 46, 86
1, 261169, Note_on_c, 0, 32, 69
1, 261171, Note_on_c, 0, 34, 65
1, 261174, Note_off_c, 0, 68, 53
1, 261188, Note_off_c, 0, 44, 65
1, 261194, Note_off_c, 0, 46, 62
1, 261197, Note_off_c, 0, 32, 64
1, 261200, Note_off_c, 0, 34, 66
1, 261247, Note_on_c, 0, 70, 91
1, 261258, Note_on_c, 0, 82, 90
1, 261260, Note_on_c, 0, 74, 81
1, 261279, Note_off_c, 0, 74, 71
1, 261282, Note_off_c, 0, 82, 66
1, 261285, Note_off_c, 0, 70, 60
1, 261319, Note_on_c, 0, 57, 94
1, 261325, Note_on_c, 0, 45, 88
1, 261356, Note_off_c, 0, 57, 65
1, 261376, Note_off_c, 0, 45, 64
1, 261377, Control_c, 0, 64, 100
1, 261392, Control_c, 0, 64, 74
1, 261407, Control_c, 0, 64, 32
1, 261412, Note_on_c, 0, 55, 98
1, 261415, Note_on_c, 0, 67, 92
1, 261422, Control_c, 0, 64, 56
1, 261437, Control_c, 0, 64, 74
1, 261438, Note_on_c, 0, 66, 64
1, 261442, Note_off_c, 0, 55, 68
1, 261451, Control_c, 0, 64, 95
1, 261455, Note_off_c, 0, 66, 66
1, 261466, Control_c, 0, 64, 127
1, 261467, Note_off_c, 0, 67, 64
1, 261477, Note_on_c, 0, 46, 100
1, 261488, Note_on_c, 0, 34, 86
1, 261523, Note_off_c, 0, 34, 66
1, 261526, Note_off_c, 0, 46, 64
1, 261572, Note_on_c, 0, 70, 98
1, 261579, Note_on_c, 0, 80, 77
1, 261582, Note_on_c, 0, 82, 75
1, 261593, Note_on_c, 0, 75, 48
1, 261597, Note_off_c, 0, 82, 68
1, 261601, Note_off_c, 0, 70, 56
1, 261606, Note_off_c, 0, 80, 66
1, 261615, Note_off_c, 0, 75, 57
1, 261644, Note_on_c, 0, 57, 97
1, 261646, Note_on_c, 0, 45, 84
1, 261684, Note_off_c, 0, 57, 65
1, 261699, Note_off_c, 0, 45, 65
1, 261728, Note_on_c, 0, 58, 100
1, 261731, Note_on_c, 0, 70, 91
1, 261767, Note_off_c, 0, 58, 65
1, 261770, Note_off_c, 0, 70, 66
1, 261800, Note_on_c, 0, 57, 94
1, 261805, Note_on_c, 0, 45, 88
1, 261841, Note_off_c, 0, 57, 64
1, 261861, Note_off_c, 0, 45, 64
1, 261884, Note_on_c, 0, 67, 90
1, 261886, Note_on_c, 0, 55, 91
1, 261928, Note_off_c, 0, 55, 64
1, 261928, Note_off_c, 0, 67, 64
1, 261945, Note_on_c, 0, 54, 92
1, 261956, Note_on_c, 0, 42, 80
1, 261973, Note_on_c, 0, 44, 49
1, 261987, Note_off_c, 0, 54, 64
1, 261990, Poly_aftertouch_c, 0, 66, 0
1, 262008, Control_c, 0, 64, 102
1, 262014, Note_off_c, 0, 42, 61
1, 262015, Note_off_c, 0, 44, 51
1, 262023, Control_c, 0, 64, 73
1, 262038, Control_c, 0, 64, 0
1, 262039, Note_on_c, 0, 53, 98
1, 262041, Note_on_c, 0, 65, 93
1, 262072, Note_off_c, 0, 53, 68
1, 262083, Control_c, 0, 64, 10
1, 262091, Note_off_c, 0, 65, 68
1, 262097, Control_c, 0, 64, 72
1, 262102, Note_on_c, 0, 64, 9
1, 262103, Note_off_c, 0, 64, 127
1, 262111, Note_on_c, 0, 46, 98
1, 262112, Control_c, 0, 64, 87
1, 262120, Note_on_c, 0, 34, 81
1, 262127, Control_c, 0, 64, 104
1, 262142, Control_c, 0, 64, 112
1, 262150, Note_off_c, 0, 34, 66
1, 262151, Note_off_c, 0, 46, 61
1, 262157, Control_c, 0, 64, 115
1, 262172, Control_c, 0, 64, 120
1, 262187, Control_c, 0, 64, 127
1, 262199, Note_on_c, 0, 70, 95
1, 262202, Note_on_c, 0, 82, 88
1, 262204, Note_on_c, 0, 74, 80
1, 262223, Note_off_c, 0, 74, 72
1, 262223, Note_off_c, 0, 82, 69
1, 262224, Note_off_c, 0, 70, 62
1, 262277, Note_on_c, 0, 58, 83
1, 262282, Note_on_c, 0, 46, 73
1, 262293, Note_on_c, 0, 50, 66
1, 262315, Note_off_c, 0, 58, 63
1, 262319, Control_c, 0, 64, 118
1, 262328, Note_off_c, 0, 50, 65
1, 262333, Control_c, 0, 64, 83
1, 262348, Control_c, 0, 64, 44
1, 262349, Note_off_c, 0, 46, 64
1, 262363, Note_on_c, 0, 58, 91
1, 262363, Control_c, 0, 64, 0
1, 262364, Note_on_c, 0, 70, 94
1, 262378, Control_c, 0, 64, 51
1, 262393, Control_c, 0, 64, 76
1, 262403, Note_off_c, 0, 58, 63
1, 262407, Control_c, 0, 64, 105
1, 262416, Note_off_c, 0, 70, 59
1, 262422, Control_c, 0, 64, 127
1, 262442, Note_on_c, 0, 46, 99
1, 262449, Note_on_c, 0, 34, 84
1, 262489, Note_off_c, 0, 46, 63
1, 262493, Note_off_c, 0, 34, 65
1, 262521, Note_on_c, 0, 70, 92
1, 262527, Note_on_c, 0, 82, 90
1, 262527, Note_on_c, 0, 74, 82
1, 262548, Note_off_c, 0, 74, 68
1, 262548, Note_off_c, 0, 82, 70
1, 262557, Note_off_c, 0, 70, 59
1, 262598, Note_on_c, 0, 57, 93
1, 262601, Note_on_c, 0, 45, 87
1, 262636, Note_off_c, 0, 57, 65
1, 262646, Control_c, 0, 64, 94
1, 262653, Note_off_c, 0, 45, 66
1, 262661, Control_c, 0, 64, 74
1, 262676, Control_c, 0, 64, 66
1, 262681, Note_on_c, 0, 55, 96
1, 262682, Note_on_c, 0, 67, 95
1, 262691, Control_c, 0, 64, 74
1, 262705, Control_c, 0, 64, 99
1, 262706, Note_on_c, 0, 66, 63
1, 262709, Note_off_c, 0, 55, 66
1, 262720, Control_c, 0, 64, 127
1, 262723, Note_off_c, 0, 66, 65
1, 262729, Note_off_c, 0, 67, 65
1, 262756, Note_on_c, 0, 46, 103
1, 262766, Note_on_c, 0, 34, 88
1, 262795, Note_off_c, 0, 34, 70
1, 262804, Note_off_c, 0, 46, 64
1, 262842, Note_on_c, 0, 70, 101
1, 262843, Note_on_c, 0, 82, 89
1, 262859, Note_on_c, 0, 75, 58
1, 262880, Note_off_c, 0, 75, 60
1, 262880, Note_off_c, 0, 82, 64
1, 262881, Note_off_c, 0, 70, 61
1, 262916, Note_on_c, 0, 57, 97
1, 262922, Note_on_c, 0, 45, 87
1, 262959, Note_off_c, 0, 57, 65
1, 262974, Note_off_c, 0, 45, 64
1, 262995, Note_on_c, 0, 58, 100
1, 262997, Note_on_c, 0, 70, 94
1, 263033, Note_off_c, 0, 70, 69
1, 263035, Note_off_c, 0, 58, 65
1, 263072, Note_on_c, 0, 57, 91
1, 263074, Note_on_c, 0, 45, 92
1, 263105, Note_off_c, 0, 57, 69
1, 263125, Note_on_c, 0, 46, 23
1, 263129, Note_off_c, 0, 45, 63
1, 263145, Note_on_c, 0, 55, 97
1, 263147, Note_on_c, 0, 67, 91
1, 263154, Note_off_c, 0, 46, 49
1, 263174, Note_on_c, 0, 66, 58
1, 263189, Note_off_c, 0, 55, 64
1, 263194, Note_off_c, 0, 66, 63
1, 263196, Note_off_c, 0, 67, 65
1, 263221, Note_on_c, 0, 54, 98
1, 263227, Note_on_c, 0, 42, 87
1, 263245, Control_c, 0, 64, 116
1, 263258, Note_on_c, 0, 44, 38
1, 263260, Note_off_c, 0, 54, 65
1, 263260, Control_c, 0, 64, 84
1, 263275, Control_c, 0, 64, 0
1, 263282, Note_off_c, 0, 44, 51
1, 263284, Note_off_c, 0, 42, 63
1, 263298, Note_on_c, 0, 53, 99
1, 263301, Note_on_c, 0, 65, 96
1, 263320, Control_c, 0, 64, 13
1, 263330, Note_off_c, 0, 53, 69
1, 263334, Control_c, 0, 64, 75
1, 263336, Note_on_c, 0, 64, 42
1, 263348, Note_off_c, 0, 65, 67
1, 263349, Control_c, 0, 64, 96
1, 263363, Note_off_c, 0, 64, 39
1, 263364, Control_c, 0, 64, 127
1, 263377, Note_on_c, 0, 46, 98
1, 263387, Note_on_c, 0, 34, 81
1, 263409, Note_off_c, 0, 34, 68
1, 263420, Note_off_c, 0, 46, 61
1, 263460, Note_on_c, 0, 70, 95
1, 263462, Note_on_c, 0, 82, 90
1, 263466, Note_on_c, 0, 74, 81
1, 263484, Note_off_c, 0, 74, 73
1, 263485, Note_off_c, 0, 70, 62
1, 263489, Note_off_c, 0, 82, 63
1, 263548, Note_on_c, 0, 58, 87
1, 263560, Note_on_c, 0, 46, 73
1, 263565, Note_on_c, 0, 50, 69
1, 263579, Control_c, 0, 64, 120
1, 263588, Note_off_c, 0, 58, 66
1, 263594, Control_c, 0, 64, 87
1, 263600, Note_off_c, 0, 50, 65
1, 263609, Control_c, 0, 64, 56
1, 263618, Note_off_c, 0, 46, 64
1, 263624, Control_c, 0, 64, 0
1, 263628, Poly_aftertouch_c, 0, 51, 0
1, 263631, Note_on_c, 0, 70, 97
1, 263632, Note_on_c, 0, 58, 92
1, 263639, Control_c, 0, 64, 32
1, 263653, Control_c, 0, 64, 71
1, 263668, Note_off_c, 0, 58, 63
1, 263668, Control_c, 0, 64, 103
1, 263682, Note_off_c, 0, 70, 61
1, 263683, Control_c, 0, 64, 127
1, 263707, Note_on_c, 0, 46, 101
1, 263716, Note_on_c, 0, 34, 85
1, 263749, Note_off_c, 0, 34, 65
1, 263754, Note_off_c, 0, 46, 63
1, 263783, Note_on_c, 0, 70, 91
1, 263794, Note_on_c, 0, 82, 70
1, 263795, Note_on_c, 0, 74, 73
1, 263811, Note_off_c, 0, 82, 40
1, 263814, Note_on_c, 0, 80, 46
1, 263818, Note_off_c, 0, 74, 71
1, 263823, Note_off_c, 0, 70, 60
1, 263842, Note_off_c, 0, 80, 39
1, 263860, Note_on_c, 0, 57, 94
1, 263865, Note_on_c, 0, 45, 84
1, 263891, Control_c, 0, 64, 120
1, 263899, Note_off_c, 0, 57, 67
1, 263906, Control_c, 0, 64, 89
1, 263913, Note_off_c, 0, 45, 66
1, 263920, Control_c, 0, 64, 73
1, 263935, Control_c, 0, 64, 70
1, 263946, Note_on_c, 0, 55, 97
1, 263946, Note_on_c, 0, 67, 93
1, 263950, Control_c, 0, 64, 83
1, 263965, Control_c, 0, 64, 106
1, 263968, Note_off_c, 0, 55, 70
1, 263970, Note_on_c, 0, 66, 60
1, 263979, Control_c, 0, 64, 127
1, 263988, Note_off_c, 0, 66, 64
1, 263991, Note_off_c, 0, 67, 65
1, 264012, Note_on_c, 0, 46, 96
1, 264020, Note_on_c, 0, 34, 87
1, 264057, Note_off_c, 0, 46, 64
1, 264062, Note_off_c, 0, 34, 66
1, 264098, Note_on_c, 0, 70, 97
1, 264098, Note_on_c, 0, 82, 90
1, 264107, Note_on_c, 0, 75, 64
1, 264124, Note_off_c, 0, 75, 67
1, 264124, Note_off_c, 0, 82, 63
1, 264126, Note_off_c, 0, 70, 60
1, 264176, Note_on_c, 0, 57, 94
1, 264181, Note_on_c, 0, 45, 87
1, 264217, Note_off_c, 0, 57, 67
1, 264232, Note_off_c, 0, 45, 64
1, 264260, Note_on_c, 0, 58, 102
1, 264263, Note_on_c, 0, 70, 91
1, 264300, Note_off_c, 0, 58, 65
1, 264305, Note_on_c, 0, 63, 27
1, 264306, Note_off_c, 0, 63, 127
1, 264306, Note_off_c, 0, 70, 65
1, 264342, Note_on_c, 0, 57, 95
1, 264347, Note_on_c, 0, 45, 86
1, 264378, Note_off_c, 0, 57, 61
1, 264396, Note_on_c, 0, 46, 16
1, 264398, Note_off_c, 0, 45, 64
1, 264406, Note_on_c, 0, 55, 78
1, 264414, Note_on_c, 0, 67, 96
1, 264439, Note_on_c, 0, 66, 60
1, 264445, Note_off_c, 0, 46, 41
1, 264458, Note_off_c, 0, 66, 64
1, 264464, Note_off_c, 0, 55, 64
1, 264464, Note_off_c, 0, 67, 64
1, 264496, Note_on_c, 0, 54, 96
1, 264500, Note_on_c, 0, 42, 90
1, 264526, Note_off_c, 0, 54, 63
1, 264551, Control_c, 0, 64, 92
1, 264554, Note_off_c, 0, 42, 57
1, 264554, Note_on_c, 0, 41, 23
1, 264566, Control_c, 0, 64, 59
1, 264573, Note_on_c, 0, 53, 88
1, 264580, Note_on_c, 0, 65, 99
1, 264580, Note_off_c, 0, 41, 51
1, 264581, Control_c, 0, 64, 0
1, 264600, Note_on_c, 0, 64, 64
1, 264617, Note_off_c, 0, 64, 66
1, 264619, Note_off_c, 0, 53, 66
1, 264625, Control_c, 0, 64, 70
1, 264633, Note_off_c, 0, 65, 66
1, 264640, Control_c, 0, 64, 92
1, 264655, Control_c, 0, 64, 127
1, 264662, Note_on_c, 0, 46, 94
1, 264670, Note_on_c, 0, 34, 80
1, 264694, Note_off_c, 0, 46, 64
1, 264699, Note_off_c, 0, 34, 66
1, 264741, Note_on_c, 0, 75, 91
1, 264745, Note_on_c, 0, 70, 86
1, 264745, Note_on_c, 0, 82, 90
1, 264765, Note_off_c, 0, 75, 66
1, 264767, Note_off_c, 0, 70, 66
1, 264786, Note_off_c, 0, 82, 63
1, 264842, Note_on_c, 0, 58, 79
1, 264855, Note_on_c, 0, 46, 63
1, 264869, Note_off_c, 0, 58, 67
1, 264878, Note_off_c, 0, 46, 59
1, 264969, Note_on_c, 0, 54, 70
1, 264983, Note_on_c, 0, 58, 56
1, 264986, Note_on_c, 0, 66, 65
1, 265004, Control_c, 0, 64, 100
1, 265016, Note_off_c, 0, 66, 67
1, 265019, Control_c, 0, 64, 69
1, 265033, Control_c, 0, 64, 0
1, 265065, Note_on_c, 0, 72, 74
1, 265066, Note_on_c, 0, 60, 78
1, 265070, Note_off_c, 0, 58, 58
1, 265076, Note_on_c, 0, 70, 69
1, 265078, Note_off_c, 0, 54, 58
1, 265078, Control_c, 0, 64, 67
1, 265093, Control_c, 0, 64, 87
1, 265107, Control_c, 0, 64, 127
1, 265126, Note_off_c, 0, 60, 60
1, 265128, Note_off_c, 0, 70, 58
1, 265135, Note_off_c, 0, 72, 62
1, 265149, Note_on_c, 0, 66, 87
1, 265157, Note_on_c, 0, 58, 76
1, 265174, Note_off_c, 0, 66, 69
1, 265201, Note_on_c, 0, 54, 31
1, 265204, Note_off_c, 0, 58, 65
1, 265218, Note_on_c, 0, 60, 77
1, 265219, Note_on_c, 0, 72, 81
1, 265222, Note_on_c, 0, 70, 80
1, 265239, Note_off_c, 0, 60, 71
1, 265240, Note_off_c, 0, 54, 42
1, 265266, Note_off_c, 0, 70, 58
1, 265269, Note_off_c, 0, 72, 65
1, 265300, Note_on_c, 0, 54, 98
1, 265311, Note_on_c, 0, 46, 80
1, 265326, Note_on_c, 0, 42, 53
1, 265351, Note_off_c, 0, 54, 55
1, 265358, Note_off_c, 0, 42, 56
1, 265360, Note_on_c, 0, 72, 93
1, 265363, Note_on_c, 0, 84, 78
1, 265374, Note_on_c, 0, 82, 68
1, 265381, Poly_aftertouch_c, 0, 44, 127
1, 265388, Note_off_c, 0, 46, 61
1, 265402, Note_off_c, 0, 82, 64
1, 265406, Note_off_c, 0, 72, 62
1, 265413, Poly_aftertouch_c, 0, 44, 0
1, 265415, Note_off_c, 0, 84, 63
1, 265440, Note_on_c, 0, 54, 88
1, 265448, Note_on_c, 0, 46, 73
1, 265458, Note_on_c, 0, 42, 50
1, 265485, Note_off_c, 0, 54, 61
1, 265493, Note_on_c, 0, 72, 92
1, 265499, Note_on_c, 0, 84, 88
1, 265504, Note_on_c, 0, 82, 80
1, 265505, Note_off_c, 0, 46, 64
1, 265506, Note_off_c, 0, 42, 63
1, 265533, Note_off_c, 0, 72, 66
1, 265555, Note_off_c, 0, 82, 63
1, 265561, Note_off_c, 0, 84, 66
1, 265584, Note_on_c, 0, 42, 97
1, 265606, Note_on_c, 0, 32, 68
1, 265614, Note_on_c, 0, 30, 54
1, 265639, Note_on_c, 0, 34, 25
1, 265649, Note_off_c, 0, 32, 56
1, 265651, Note_off_c, 0, 30, 53
1, 265654, Note_on_c, 0, 96, 99
1, 265655, Note_on_c, 0, 84, 97
1, 265667, Note_off_c, 0, 42, 60
1, 265669, Note_on_c, 0, 94, 79
1, 265681, Note_off_c, 0, 34, 43
1, 265692, Note_off_c, 0, 94, 69
1, 265698, Note_off_c, 0, 84, 64
1, 265709, Note_off_c, 0, 96, 64
1, 265739, Note_on_c, 0, 30, 65
1, 265749, Note_on_c, 0, 42, 88
1, 265764, Note_on_c, 0, 34, 71
1, 265780, Note_off_c, 0, 30, 62
1, 265788, Note_off_c, 0, 34, 67
1, 265794, Note_off_c, 0, 42, 62
1, 265824, Note_on_c, 0, 84, 96
1, 265825, Note_on_c, 0, 96, 94
1, 265829, Note_on_c, 0, 94, 94
1, 265875, Note_off_c, 0, 84, 64
1, 265911, Note_off_c, 0, 96, 62
1, 265916, Control_c, 0, 64, 107
1, 265928, Note_off_c, 0, 94, 64
1, 265931, Control_c, 0, 64, 75
1, 265940, Note_on_c, 0, 46, 88
1, 265943, Note_on_c, 0, 34, 64
1, 265943, Note_on_c, 0, 38, 68
1, 265946, Control_c, 0, 64, 0
1, 265975, Control_c, 0, 64, 55
1, 265979, Note_off_c, 0, 34, 68
1, 265986, Note_off_c, 0, 38, 65
1, 265989, Control_c, 0, 64, 77
1, 265995, Note_off_c, 0, 46, 62
1, 266004, Control_c, 0, 64, 101
1, 266008, Note_on_c, 0, 94, 93
1, 266009, Note_on_c, 0, 98, 88
1, 266011, Note_on_c, 0, 86, 94
1, 266019, Control_c, 0, 64, 127
1, 266050, Note_off_c, 0, 98, 66
1, 266058, Note_off_c, 0, 86, 61
1, 266070, Note_off_c, 0, 94, 65
1, 266113, Note_on_c, 0, 58, 84
1, 266118, Note_on_c, 0, 46, 72
1, 266131, Note_on_c, 0, 50, 67
1, 266172, Note_off_c, 0, 58, 64
1, 266179, Note_off_c, 0, 46, 62
1, 266187, Note_on_c, 0, 74, 86
1, 266187, Note_on_c, 0, 82, 91
1, 266190, Note_off_c, 0, 50, 63
1, 266193, Note_on_c, 0, 86, 73
1, 266209, Note_off_c, 0, 86, 67
1, 266221, Note_off_c, 0, 82, 55
1, 266224, Note_off_c, 0, 74, 54
1, 266286, Note_on_c, 0, 54, 77
1, 266286, Note_on_c, 0, 66, 95
1, 266294, Note_on_c, 0, 58, 80
1, 266300, Control_c, 0, 64, 94
1, 266315, Control_c, 0, 64, 68
1, 266330, Control_c, 0, 64, 0
1, 266336, Note_off_c, 0, 66, 67
1, 266345, Control_c, 0, 64, 34
1, 266353, Note_on_c, 0, 72, 73
1, 266360, Control_c, 0, 64, 75
1, 266361, Note_on_c, 0, 70, 80
1, 266368, Note_on_c, 0, 60, 75
1, 266373, Note_on_c, 0, 62, 70
1, 266374, Control_c, 0, 64, 105
1, 266375, Note_off_c, 0, 58, 62
1, 266389, Note_off_c, 0, 54, 57
1, 266389, Control_c, 0, 64, 127
1, 266405, Note_off_c, 0, 62, 60
1, 266408, Note_off_c, 0, 60, 61
1, 266420, Note_off_c, 0, 72, 63
1, 266425, Note_off_c, 0, 70, 60
1, 266435, Note_on_c, 0, 58, 69
1, 266445, Note_on_c, 0, 66, 95
1, 266452, Note_on_c, 0, 54, 43
1, 266476, Note_off_c, 0, 66, 65
1, 266506, Note_off_c, 0, 58, 65
1, 266510, Note_on_c, 0, 60, 87
1, 266515, Note_off_c, 0, 54, 60
1, 266518, Note_on_c, 0, 70, 82
1, 266518, Note_on_c, 0, 72, 76
1, 266530, Note_off_c, 0, 60, 69
1, 266568, Note_off_c, 0, 70, 64
1, 266576, Note_off_c, 0, 72, 65
1, 266595, Note_on_c, 0, 54, 94
1, 266602, Note_on_c, 0, 46, 87
1, 266608, Note_on_c, 0, 42, 74
1, 266658, Note_on_c, 0, 72, 92
1, 266658, Note_off_c, 0, 42, 54
1, 266661, Note_off_c, 0, 54, 57
1, 266664, Note_on_c, 0, 84, 82
1, 266670, Note_on_c, 0, 82, 76
1, 266677, Note_off_c, 0, 46, 61
1, 266681, Note_on_c, 0, 80, 49
1, 266682, Note_off_c, 0, 80, 127
1, 266695, Note_off_c, 0, 82, 64
1, 266704, Note_off_c, 0, 72, 64
1, 266712, Note_off_c, 0, 84, 62
1, 266736, Note_on_c, 0, 54, 96
1, 266742, Note_on_c, 0, 46, 80
1, 266758, Note_on_c, 0, 42, 63
1, 266779, Note_off_c, 0, 54, 62
1, 266786, Note_off_c, 0, 42, 67
1, 266792, Note_on_c, 0, 72, 93
1, 266794, Note_off_c, 0, 46, 64
1, 266800, Note_on_c, 0, 84, 86
1, 266803, Note_on_c, 0, 82, 81
1, 266831, Note_off_c, 0, 72, 66
1, 266850, Note_off_c, 0, 82, 64
1, 266858, Note_off_c, 0, 84, 65
1, 266873, Note_on_c, 0, 42, 94
1, 266890, Note_on_c, 0, 30, 71
1, 266895, Note_on_c, 0, 32, 60
1, 266910, Note_on_c, 0, 34, 43
1, 266925, Note_off_c, 0, 30, 58
1, 266929, Note_off_c, 0, 32, 61
1, 266943, Note_on_c, 0, 84, 101
1, 266944, Note_on_c, 0, 96, 95
1, 266951, Note_off_c, 0, 34, 51
1, 266954, Note_on_c, 0, 94, 81
1, 266955, Note_off_c, 0, 42, 63
1, 266977, Note_off_c, 0, 94, 68
1, 266987, Note_off_c, 0, 84, 62
1, 266998, Note_off_c, 0, 96, 63
1, 267027, Note_on_c, 0, 42, 90
1, 267029, Note_on_c, 0, 30, 64
1, 267037, Note_on_c, 0, 34, 76
1, 267067, Note_off_c, 0, 30, 62
1, 267072, Note_off_c, 0, 42, 65
1, 267075, Note_off_c, 0, 34, 65
1, 267093, Note_on_c, 0, 84, 96
1, 267098, Note_on_c, 0, 96, 93
1, 267099, Note_on_c, 0, 94, 94
1, 267146, Note_off_c, 0, 84, 64
1, 267167, Note_off_c, 0, 96, 62
1, 267168, Control_c, 0, 64, 121
1, 267183, Control_c, 0, 64, 83
1, 267187, Note_off_c, 0, 94, 64
1, 267197, Control_c, 0, 64, 0
1, 267199, Note_on_c, 0, 46, 101
1, 267200, Note_on_c, 0, 38, 75
1, 267207, Note_on_c, 0, 34, 70
1, 267227, Control_c, 0, 64, 51
1, 267245, Note_on_c, 0, 40, 29
1, 267249, Control_c, 0, 64, 74
1, 267264, Control_c, 0, 64, 98
1, 267271, Note_off_c, 0, 46, 59
1, 267273, Note_on_c, 0, 94, 93
1, 267275, Note_on_c, 0, 86, 92
1, 267277, Note_on_c, 0, 98, 86
1, 267278, Note_off_c, 0, 34, 59
1, 267278, Control_c, 0, 64, 127
1, 267295, Note_off_c, 0, 38, 61
1, 267302, Note_off_c, 0, 40, 43
1, 267306, Note_off_c, 0, 98, 62
1, 267322, Note_off_c, 0, 86, 64
1, 267326, Note_off_c, 0, 94, 66
1, 267362, Note_on_c, 0, 46, 101
1, 267369, Note_on_c, 0, 34, 75
1, 267373, Note_on_c, 0, 38, 71
1, 267396, Note_off_c, 0, 34, 66
1, 267403, Note_off_c, 0, 38, 63
1, 267406, Note_off_c, 0, 46, 64
1, 267442, Note_on_c, 0, 74, 84
1, 267448, Note_on_c, 0, 82, 77
1, 267461, Note_on_c, 0, 86, 40
1, 267469, Note_off_c, 0, 82, 69
1, 267471, Note_off_c, 0, 74, 61
1, 267489, Note_off_c, 0, 86, 57
1, 267535, Note_on_c, 0, 54, 78
1, 267535, Note_on_c, 0, 66, 94
1, 267538, Note_on_c, 0, 58, 81
1, 267561, Control_c, 0, 64, 94
1, 267576, Control_c, 0, 64, 67
1, 267579, Note_off_c, 0, 66, 67
1, 267591, Control_c, 0, 64, 0
1, 267596, Note_on_c, 0, 60, 73
1, 267598, Note_on_c, 0, 72, 74
1, 267601, Note_on_c, 0, 70, 79
1, 267618, Note_off_c, 0, 58, 63
1, 267620, Control_c, 0, 64, 69
1, 267621, Note_off_c, 0, 54, 61
1, 267635, Control_c, 0, 64, 94
1, 267650, Note_off_c, 0, 60, 60
1, 267650, Control_c, 0, 64, 127
1, 267656, Note_off_c, 0, 72, 63
1, 267660, Note_off_c, 0, 70, 60
1, 267680, Note_on_c, 0, 58, 86
1, 267682, Note_on_c, 0, 66, 98
1, 267693, Note_on_c, 0, 54, 62
1, 267707, Poly_aftertouch_c, 0, 59, 0
1, 267713, Note_off_c, 0, 66, 69
1, 267728, Note_on_c, 0, 60, 82
1, 267731, Note_off_c, 0, 58, 66
1, 267738, Note_on_c, 0, 70, 86
1, 267738, Note_off_c, 0, 54, 60
1, 267740, Note_on_c, 0, 72, 77
1, 267762, Note_off_c, 0, 60, 64
1, 267783, Note_off_c, 0, 70, 63
1, 267787, Note_off_c, 0, 72, 66
1, 267815, Note_on_c, 0, 54, 100
1, 267827, Note_on_c, 0, 46, 88
1, 267833, Note_on_c, 0, 42, 72
1, 267857, Note_on_c, 0, 44, 33
1, 267870, Note_off_c, 0, 42, 58
1, 267874, Note_on_c, 0, 72, 99
1, 267880, Note_on_c, 0, 84, 82
1, 267883, Note_off_c, 0, 54, 56
1, 267885, Note_on_c, 0, 82, 77
1, 267894, Note_off_c, 0, 44, 53
1, 267906, Note_off_c, 0, 82, 66
1, 267907, Note_off_c, 0, 46, 59
1, 267913, Note_on_c, 0, 83, 37
1, 267914, Note_off_c, 0, 83, 127
1, 267918, Note_off_c, 0, 72, 63
1, 267927, Note_off_c, 0, 84, 62
1, 267954, Note_on_c, 0, 54, 93
1, 267963, Note_on_c, 0, 46, 77
1, 267965, Note_on_c, 0, 42, 67
1, 268000, Note_off_c, 0, 54, 64
1, 268011, Note_on_c, 0, 72, 94
1, 268020, Note_on_c, 0, 82, 83
1, 268020, Note_on_c, 0, 84, 89
1, 268026, Note_off_c, 0, 46, 64
1, 268027, Note_off_c, 0, 42, 62
1, 268047, Note_off_c, 0, 72, 67
1, 268071, Note_off_c, 0, 82, 64
1, 268080, Note_off_c, 0, 84, 65
1, 268101, Note_on_c, 0, 42, 95
1, 268118, Note_on_c, 0, 30, 72
1, 268120, Note_on_c, 0, 32, 66
1, 268125, Note_on_c, 0, 34, 66
1, 268151, Note_off_c, 0, 30, 58
1, 268158, Note_off_c, 0, 32, 57
1, 268166, Note_on_c, 0, 96, 97
1, 268167, Note_on_c, 0, 84, 97
1, 268173, Note_off_c, 0, 34, 58
1, 268176, Note_on_c, 0, 94, 89
1, 268182, Note_off_c, 0, 42, 63
1, 268205, Note_on_c, 0, 95, 39
1, 268206, Note_off_c, 0, 95, 127
1, 268213, Note_off_c, 0, 84, 63
1, 268221, Note_off_c, 0, 94, 61
1, 268226, Note_off_c, 0, 96, 64
1, 268251, Note_on_c, 0, 42, 93
1, 268253, Note_on_c, 0, 30, 65
1, 268270, Note_on_c, 0, 34, 74
1, 268293, Note_off_c, 0, 34, 68
1, 268295, Note_off_c, 0, 30, 62
1, 268298, Note_off_c, 0, 42, 63
1, 268322, Note_on_c, 0, 84, 99
1, 268326, Note_on_c, 0, 94, 94
1, 268327, Note_on_c, 0, 96, 91
1, 268365, Note_off_c, 0, 84, 66
1, 268369, Control_c, 0, 64, 96
1, 268383, Note_off_c, 0, 96, 64
1, 268384, Control_c, 0, 64, 65
1, 268399, Control_c, 0, 64, 0
1, 268402, Note_off_c, 0, 94, 64
1, 268417, Note_on_c, 0, 34, 59
1, 268419, Note_on_c, 0, 38, 79
1, 268419, Note_on_c, 0, 46, 98
1, 268429, Control_c, 0, 64, 57
1, 268444, Control_c, 0, 64, 87
1, 268456, Note_off_c, 0, 34, 64
1, 268459, Control_c, 0, 64, 127
1, 268474, Note_off_c, 0, 38, 61
1, 268475, Note_off_c, 0, 46, 63
1, 268484, Note_on_c, 0, 94, 98
1, 268485, Note_on_c, 0, 86, 95
1, 268486, Note_on_c, 0, 98, 88
1, 268509, Poly_aftertouch_c, 0, 40, 127
1, 268522, Note_off_c, 0, 98, 64
1, 268528, Note_off_c, 0, 86, 61
1, 268535, Note_off_c, 0, 94, 66
1, 268539, Poly_aftertouch_c, 0, 40, 0
1, 268573, Note_on_c, 0, 58, 92
1, 268584, Note_on_c, 0, 46, 83
1, 268596, Note_on_c, 0, 50, 73
1, 268601, Note_on_c, 0, 51, 39
1, 268623, Note_off_c, 0, 46, 64
1, 268624, Note_off_c, 0, 58, 62
1, 268630, Note_on_c, 0, 59, 6
1, 268631, Note_off_c, 0, 50, 64
1, 268648, Note_off_c, 0, 51, 52
1, 268649, Note_on_c, 0, 74, 86
1, 268651, Note_on_c, 0, 82, 80
1, 268661, Note_on_c, 0, 80, 62
1, 268670, Note_on_c, 0, 86, 37
1, 268675, Note_off_c, 0, 74, 62
1, 268678, Note_off_c, 0, 80, 63
1, 268679, Note_off_c, 0, 82, 62
1, 268680, Note_off_c, 0, 59, 36
1, 268684, Note_on_c, 0, 84, 31
1, 268701, Note_off_c, 0, 86, 52
1, 268718, Note_off_c, 0, 84, 51
1, 268734, Note_on_c, 0, 58, 95
1, 268735, Note_on_c, 0, 66, 98
1, 268746, Note_on_c, 0, 54, 77
1, 268763, Control_c, 0, 64, 108
1, 268777, Control_c, 0, 64, 78
1, 268787, Note_off_c, 0, 66, 66
1, 268792, Control_c, 0, 64, 0
1, 268799, Note_on_c, 0, 60, 88
1, 268808, Note_on_c, 0, 70, 84
1, 268809, Note_on_c, 0, 72, 77
1, 268821, Note_off_c, 0, 58, 58
1, 268822, Control_c, 0, 64, 65
1, 268831, Note_off_c, 0, 54, 62
1, 268837, Control_c, 0, 64, 93
1, 268851, Control_c, 0, 64, 127
1, 268858, Note_off_c, 0, 60, 60
1, 268871, Note_off_c, 0, 72, 63
1, 268878, Note_off_c, 0, 70, 59
1, 268894, Note_on_c, 0, 66, 99
1, 268896, Note_on_c, 0, 58, 91
1, 268905, Note_on_c, 0, 54, 69
1, 268915, Poly_aftertouch_c, 0, 71, 0
1, 268929, Note_off_c, 0, 66, 70
1, 268940, Note_on_c, 0, 60, 88
1, 268945, Note_off_c, 0, 58, 68
1, 268947, Note_on_c, 0, 70, 86
1, 268948, Note_on_c, 0, 72, 81
1, 268950, Note_off_c, 0, 54, 62
1, 268974, Note_off_c, 0, 60, 62
1, 268995, Note_off_c, 0, 70, 63
1, 268996, Note_off_c, 0, 72, 66
1, 269034, Note_on_c, 0, 54, 107
1, 269043, Note_on_c, 0, 46, 89
1, 269046, Note_on_c, 0, 42, 74
1, 269064, Note_on_c, 0, 44, 51
1, 269068, Note_on_c, 0, 49, 43
1, 269082, Note_on_c, 0, 72, 95
1, 269088, Note_on_c, 0, 84, 86
1, 269090, Note_on_c, 0, 82, 85
1, 269093, Note_off_c, 0, 44, 55
1, 269099, Note_off_c, 0, 42, 56
1, 269102, Note_off_c, 0, 49, 48
1, 269103, Note_off_c, 0, 54, 60
1, 269112, Note_on_c, 0, 80, 42
1, 269113, Note_on_c, 0, 77, 49
1, 269114, Note_off_c, 0, 77, 127
1, 269114, Note_on_c, 0, 79, 48
1, 269115, Note_off_c, 0, 79, 127
1, 269124, Note_off_c, 0, 72, 63
1, 269126, Note_off_c, 0, 46, 60
1, 269130, Note_off_c, 0, 82, 50
1, 269137, Note_off_c, 0, 80, 62
1, 269137, Note_off_c, 0, 84, 63
1, 269173, Note_on_c, 0, 54, 103
1, 269177, Note_on_c, 0, 46, 84
1, 269191, Note_on_c, 0, 42, 73
1, 269209, Note_off_c, 0, 54, 68
1, 269224, Note_on_c, 0, 72, 98
1, 269231, Note_on_c, 0, 82, 93
1, 269232, Note_on_c, 0, 84, 93
1, 269239, Note_off_c, 0, 46, 63
1, 269240, Note_off_c, 0, 42, 64
1, 269258, Note_off_c, 0, 72, 69
1, 269285, Note_off_c, 0, 82, 65
1, 269288, Note_off_c, 0, 84, 65
1, 269317, Note_on_c, 0, 42, 104
1, 269334, Note_on_c, 0, 30, 82
1, 269335, Note_on_c, 0, 34, 75
1, 269336, Note_on_c, 0, 32, 74
1, 269368, Note_off_c, 0, 30, 61
1, 269380, Note_off_c, 0, 34, 58
1, 269389, Note_off_c, 0, 32, 59
1, 269398, Note_on_c, 0, 84, 102
1, 269398, Note_off_c, 0, 42, 62
1, 269398, Note_on_c, 0, 96, 102
1, 269407, Note_on_c, 0, 94, 94
1, 269439, Note_off_c, 0, 84, 67
1, 269445, Note_off_c, 0, 94, 63
1, 269454, Note_off_c, 0, 96, 62
1, 269496, Note_on_c, 0, 42, 96
1, 269502, Note_on_c, 0, 30, 76
1, 269526, Poly_aftertouch_c, 0, 34, 127
1, 269545, Note_off_c, 0, 30, 64
1, 269548, Poly_aftertouch_c, 0, 34, 0
1, 269556, Note_off_c, 0, 42, 64
1, 269580, Note_on_c, 0, 84, 101
1, 269583, Note_on_c, 0, 94, 103
1, 269583, Poly_aftertouch_c, 0, 32, 127
1, 269584, Note_on_c, 0, 96, 95
1, 269619, Note_on_c, 0, 95, 35
1, 269620, Note_off_c, 0, 95, 127
1, 269620, Poly_aftertouch_c, 0, 32, 0
1, 269621, Note_off_c, 0, 84, 67
1, 269660, Note_off_c, 0, 96, 59
1, 269679, Note_off_c, 0, 94, 64
1, 269718, Control_c, 0, 64, 108
1, 269725, Note_on_c, 0, 38, 62
1, 269730, Note_on_c, 0, 46, 113
1, 269733, Control_c, 0, 64, 74
1, 269738, Note_on_c, 0, 34, 87
1, 269748, Control_c, 0, 64, 0
1, 269794, Control_c, 0, 64, 70
1, 269809, Control_c, 0, 64, 96
1, 269809, Note_on_c, 0, 94, 104
1, 269811, Note_on_c, 0, 86, 101
1, 269813, Note_on_c, 0, 98, 91
1, 269821, Poly_aftertouch_c, 0, 40, 127
1, 269823, Control_c, 0, 64, 127
1, 269829, Note_off_c, 0, 34, 62
1, 269829, Note_off_c, 0, 46, 58
1, 269858, Note_off_c, 0, 38, 55
1, 269860, Note_off_c, 0, 86, 56
1, 269864, Note_off_c, 0, 98, 66
1, 269887, Note_off_c, 0, 94, 65
1, 269922, Poly_aftertouch_c, 0, 40, 0
1, 269945, Note_on_c, 0, 38, 57
1, 269947, Note_on_c, 0, 46, 98
1, 269951, Note_on_c, 0, 34, 74
1, 270012, Note_off_c, 0, 34, 64
1, 270022, Note_off_c, 0, 46, 61
1, 270023, Note_on_c, 0, 82, 96
1, 270027, Note_on_c, 0, 74, 89
1, 270028, Note_off_c, 0, 38, 60
1, 270033, Note_on_c, 0, 86, 79
1, 270053, Note_off_c, 0, 86, 70
1, 270056, Note_off_c, 0, 74, 59
1, 270059, Note_on_c, 0, 85, 28
1, 270068, Note_off_c, 0, 82, 63
1, 270094, Note_off_c, 0, 85, 46
1, 270162, Note_on_c, 0, 54, 90
1, 270167, Note_on_c, 0, 42, 82
1, 270179, Control_c, 0, 64, 114
1, 270194, Control_c, 0, 64, 82
1, 270208, Control_c, 0, 64, 0
1, 270220, Note_on_c, 0, 44, 18
1, 270247, Note_off_c, 0, 54, 59
1, 270253, Note_on_c, 0, 60, 84
1, 270256, Note_on_c, 0, 70, 74
1, 270258, Note_on_c, 0, 72, 69
1, 270260, Control_c, 0, 64, 63
1, 270268, Note_off_c, 0, 44, 43
1, 270275, Control_c, 0, 64, 91
1, 270282, Note_off_c, 0, 42, 61
1, 270290, Control_c, 0, 64, 127
1, 270291, Note_off_c, 0, 60, 56
1, 270305, Note_off_c, 0, 70, 60
1, 270307, Note_off_c, 0, 72, 60
1, 270349, Note_on_c, 0, 51, 82
1, 270349, Note_on_c, 0, 39, 89
1, 270379, Note_off_c, 0, 51, 63
1, 270404, Note_on_c, 0, 60, 79
1, 270409, Note_off_c, 0, 39, 60
1, 270411, Note_on_c, 0, 70, 78
1, 270420, Note_on_c, 0, 72, 68
1, 270447, Note_off_c, 0, 72, 67
1, 270449, Note_off_c, 0, 60, 58
1, 270449, Note_off_c, 0, 70, 56
1, 270459, Poly_aftertouch_c, 0, 49, 0
1, 270480, Note_on_c, 0, 46, 97
1, 270483, Note_on_c, 0, 34, 88
1, 270524, Note_off_c, 0, 46, 62
1, 270537, Note_on_c, 0, 60, 79
1, 270540, Note_on_c, 0, 72, 67
1, 270540, Note_off_c, 0, 34, 63
1, 270550, Note_on_c, 0, 70, 69
1, 270569, Note_off_c, 0, 72, 51
1, 270572, Note_off_c, 0, 60, 56
1, 270575, Note_off_c, 0, 70, 67
1, 270611, Note_on_c, 0, 51, 94
1, 270614, Note_on_c, 0, 39, 89
1, 270659, Note_on_c, 0, 72, 72
1, 270659, Note_on_c, 0, 60, 73
1, 270662, Note_on_c, 0, 70, 73
1, 270676, Note_off_c, 0, 51, 61
1, 270683, Note_off_c, 0, 39, 62
1, 270683, Note_off_c, 0, 60, 66
1, 270692, Note_off_c, 0, 70, 64
1, 270706, Note_off_c, 0, 72, 66
1, 270739, Poly_aftertouch_c, 0, 38, 0
1, 270744, Note_on_c, 0, 42, 91
1, 270745, Note_on_c, 0, 54, 95
1, 270749, Control_c, 0, 64, 95
1, 270763, Control_c, 0, 64, 64
1, 270778, Control_c, 0, 64, 0
1, 270789, Note_on_c, 0, 41, 36
1, 270805, Note_on_c, 0, 72, 91
1, 270805, Note_off_c, 0, 54, 61
1, 270808, Note_on_c, 0, 82, 77
1, 270808, Control_c, 0, 64, 58
1, 270809, Note_on_c, 0, 84, 76
1, 270817, Note_off_c, 0, 42, 62
1, 270823, Control_c, 0, 64, 84
1, 270826, Note_off_c, 0, 41, 56
1, 270831, Note_off_c, 0, 72, 60
1, 270831, Note_off_c, 0, 82, 66
1, 270836, Note_off_c, 0, 84, 64
1, 270837, Control_c, 0, 64, 127
1, 270877, Note_on_c, 0, 58, 99
1, 270880, Note_on_c, 0, 46, 95
1, 270921, Note_off_c, 0, 58, 65
1, 270928, Note_on_c, 0, 72, 90
1, 270934, Note_on_c, 0, 82, 80
1, 270936, Note_off_c, 0, 46, 62
1, 270936, Note_on_c, 0, 84, 80
1, 270965, Note_off_c, 0, 84, 63
1, 270970, Note_off_c, 0, 72, 64
1, 270975, Note_off_c, 0, 82, 61
1, 271007, Note_on_c, 0, 63, 100
1, 271010, Note_on_c, 0, 51, 89
1, 271058, Note_on_c, 0, 72, 94
1, 271061, Note_off_c, 0, 63, 64
1, 271067, Note_on_c, 0, 84, 79
1, 271068, Note_on_c, 0, 82, 80
1, 271070, Note_off_c, 0, 51, 62
1, 271094, Note_off_c, 0, 82, 63
1, 271097, Note_off_c, 0, 84, 59
1, 271102, Note_off_c, 0, 72, 64
1, 271135, Note_on_c, 0, 66, 98
1, 271136, Note_on_c, 0, 54, 89
1, 271175, Note_on_c, 0, 72, 85
1, 271182, Note_on_c, 0, 82, 82
1, 271182, Note_on_c, 0, 84, 82
1, 271186, Note_off_c, 0, 66, 66
1, 271187, Note_on_c, 0, 56, 18
1, 271194, Note_off_c, 0, 72, 71
1, 271194, Note_off_c, 0, 54, 62
1, 271218, Note_off_c, 0, 82, 60
1, 271226, Note_off_c, 0, 56, 41
1, 271228, Note_off_c, 0, 84, 64
1, 271245, Control_c, 0, 64, 90
1, 271260, Control_c, 0, 64, 59
1, 271268, Note_on_c, 0, 70, 93
1, 271271, Note_on_c, 0, 58, 86
1, 271275, Control_c, 0, 64, 0
1, 271289, Control_c, 0, 64, 51
1, 271304, Control_c, 0, 64, 76
1, 271315, Note_off_c, 0, 70, 63
1, 271319, Control_c, 0, 64, 115
1, 271320, Note_on_c, 0, 96, 87
1, 271322, Note_on_c, 0, 84, 96
1, 271328, Note_on_c, 0, 94, 83
1, 271329, Note_off_c, 0, 58, 63
1, 271334, Control_c, 0, 64, 127
1, 271350, Note_on_c, 0, 61, 3
1, 271353, Note_off_c, 0, 94, 65
1, 271362, Note_off_c, 0, 96, 66
1, 271368, Note_off_c, 0, 84, 61
1, 271386, Note_off_c, 0, 61, 33
1, 271401, Note_on_c, 0, 66, 96
1, 271413, Note_on_c, 0, 54, 80
1, 271422, Note_on_c, 0, 56, 57
1, 271440, Note_off_c, 0, 66, 68
1, 271449, Note_on_c, 0, 84, 100
1, 271451, Note_off_c, 0, 56, 64
1, 271451, Note_on_c, 0, 96, 88
1, 271454, Note_on_c, 0, 94, 82
1, 271455, Note_off_c, 0, 54, 58
1, 271485, Note_off_c, 0, 84, 66
1, 271490, Note_off_c, 0, 94, 63
1, 271491, Note_off_c, 0, 96, 64
1, 271519, Note_on_c, 0, 63, 97
1, 271532, Note_on_c, 0, 51, 84
1, 271541, Note_on_c, 0, 54, 56
1, 271558, Note_on_c, 0, 56, 30
1, 271559, Note_off_c, 0, 51, 66
1, 271559, Note_off_c, 0, 63, 67
1, 271570, Note_on_c, 0, 84, 101
1, 271571, Note_on_c, 0, 96, 92
1, 271571, Note_off_c, 0, 54, 64
1, 271577, Note_on_c, 0, 94, 92
1, 271589, Note_off_c, 0, 56, 48
1, 271608, Note_off_c, 0, 84, 66
1, 271618, Note_off_c, 0, 96, 65
1, 271621, Note_off_c, 0, 94, 65
1, 271648, Note_on_c, 0, 66, 101
1, 271654, Note_on_c, 0, 54, 79
1, 271658, Note_on_c, 0, 56, 76
1, 271685, Note_off_c, 0, 56, 63
1, 271693, Note_on_c, 0, 84, 106
1, 271694, Note_on_c, 0, 96, 95
1, 271697, Note_on_c, 0, 94, 90
1, 271697, Note_off_c, 0, 66, 66
1, 271702, Note_off_c, 0, 54, 62
1, 271730, Note_off_c, 0, 84, 69
1, 271745, Note_off_c, 0, 94, 66
1, 271747, Note_off_c, 0, 96, 65
1, 271787, Note_on_c, 0, 70, 105
1, 271795, Note_on_c, 0, 58, 92
1, 271824, Note_off_c, 0, 70, 67
1, 271827, Note_on_c, 0, 84, 101
1, 271831, Note_on_c, 0, 96, 95
1, 271831, Note_off_c, 0, 58, 67
1, 271835, Note_on_c, 0, 61, 36
1, 271835, Note_on_c, 0, 94, 91
1, 271866, Note_off_c, 0, 84, 68
1, 271868, Note_off_c, 0, 61, 44
1, 271877, Note_off_c, 0, 94, 66
1, 271877, Note_off_c, 0, 96, 64
1, 271918, Note_on_c, 0, 72, 100
1, 271921, Note_on_c, 0, 60, 93
1, 271963, Note_on_c, 0, 84, 98
1, 271965, Note_off_c, 0, 72, 65
1, 271967, Note_on_c, 0, 96, 95
1, 271970, Note_off_c, 0, 60, 63
1, 271973, Note_on_c, 0, 94, 90
1, 272002, Note_off_c, 0, 84, 67
1, 272004, Note_off_c, 0, 94, 62
1, 272012, Note_off_c, 0, 96, 65
1, 272024, Poly_aftertouch_c, 0, 61, 0
1, 272055, Note_on_c, 0, 75, 97
1, 272060, Note_on_c, 0, 63, 91
1, 272099, Note_off_c, 0, 75, 67
1, 272107, Note_off_c, 0, 63, 65
1, 272110, Note_on_c, 0, 84, 94
1, 272114, Note_on_c, 0, 96, 90
1, 272118, Note_on_c, 0, 94, 90
1, 272149, Note_on_c, 0, 95, 46
1, 272150, Note_off_c, 0, 95, 127
1, 272150, Note_off_c, 0, 84, 66
1, 272152, Note_off_c, 0, 94, 62
1, 272154, Note_off_c, 0, 96, 64
1, 272186, Note_on_c, 0, 78, 97
1, 272190, Note_on_c, 0, 66, 78
1, 272234, Note_off_c, 0, 78, 65
1, 272235, Note_on_c, 0, 84, 98
1, 272237, Note_off_c, 0, 66, 66
1, 272244, Note_on_c, 0, 94, 91
1, 272244, Note_on_c, 0, 96, 75
1, 272255, Note_on_c, 0, 98, 71
1, 272277, Note_off_c, 0, 98, 57
1, 272281, Note_off_c, 0, 84, 64
1, 272290, Note_off_c, 0, 96, 64
1, 272304, Note_off_c, 0, 94, 60
1, 272365, Control_c, 0, 64, 101
1, 272380, Control_c, 0, 64, 59
1, 272395, Control_c, 0, 64, 0
1, 272417, Note_on_c, 0, 94, 108
1, 272417, Note_on_c, 0, 86, 113
1, 272417, Note_on_c, 0, 98, 105
1, 272418, Note_on_c, 0, 77, 89
1, 272418, Note_on_c, 0, 82, 100
1, 272421, Note_on_c, 0, 70, 80
1, 272422, Note_on_c, 0, 74, 73
1, 272424, Control_c, 0, 64, 23
1, 272439, Control_c, 0, 64, 76
1, 272448, Note_off_c, 0, 98, 68
1, 272454, Note_off_c, 0, 86, 67
1, 272454, Control_c, 0, 64, 103
1, 272456, Note_off_c, 0, 82, 69
1, 272459, Note_on_c, 0, 96, 20
1, 272460, Note_off_c, 0, 96, 127
1, 272462, Note_on_c, 0, 92, 25
1, 272463, Note_off_c, 0, 92, 127
1, 272465, Note_off_c, 0, 77, 65
1, 272465, Note_off_c, 0, 94, 66
1, 272469, Control_c, 0, 64, 127
1, 272478, Note_off_c, 0, 74, 68
1, 272492, Note_off_c, 0, 70, 65
1, 272778, Note_on_c, 0, 74, 88
1, 272779, Note_on_c, 0, 58, 106
1, 272781, Note_on_c, 0, 62, 94
1, 272782, Note_on_c, 0, 46, 85
1, 272784, Note_on_c, 0, 53, 94
1, 272784, Note_on_c, 0, 70, 94
1, 272790, Note_on_c, 0, 50, 83
1, 272811, Note_off_c, 0, 62, 63
1, 272814, Note_off_c, 0, 46, 65
1, 272818, Note_off_c, 0, 58, 67
1, 272819, Note_off_c, 0, 50, 67
1, 272821, Note_off_c, 0, 70, 64
1, 272823, Note_off_c, 0, 53, 68
1, 272828, Note_off_c, 0, 74, 67
1, 273094, Note_on_c, 0, 82, 107
1, 273094, Note_on_c, 0, 94, 110
1, 273094, Note_on_c, 0, 98, 94
1, 273095, Note_on_c, 0, 86, 100
1, 273097, Note_on_c, 0, 70, 82
1, 273100, Note_on_c, 0, 77, 97
1, 273102, Note_on_c, 0, 74, 72
1, 273124, Note_off_c, 0, 82, 68
1, 273127, Note_off_c, 0, 86, 67
1, 273130, Note_off_c, 0, 98, 68
1, 273134, Note_off_c, 0, 77, 67
1, 273137, Note_off_c, 0, 94, 67
1, 273147, Note_off_c, 0, 74, 68
1, 273149, Note_off_c, 0, 70, 65
1, 273457, Note_on_c, 0, 62, 102
1, 273458, Note_on_c, 0, 46, 88
1, 273458, Note_on_c, 0, 58, 108
1, 273459, Note_on_c, 0, 50, 74
1, 273460, Note_on_c, 0, 74, 86
1, 273462, Note_on_c, 0, 53, 90
1, 273464, Note_on_c, 0, 70, 99
1, 273490, Note_off_c, 0, 62, 67
1, 273496, Note_off_c, 0, 58, 68
1, 273502, Note_off_c, 0, 70, 65
1, 273503, Note_off_c, 0, 74, 69
1, 273509, Note_off_c, 0, 46, 63
1, 273511, Note_off_c, 0, 53, 67
1, 273514, Note_off_c, 0, 50, 65
1, 273859, Note_on_c, 0, 77, 97
1, 273859, Note_on_c, 0, 86, 97
1, 273860, Note_on_c, 0, 82, 103
1, 273862, Note_on_c, 0, 70, 85
1, 273862, Note_on_c, 0, 98, 98
1, 273864, Note_on_c, 0, 94, 101
1, 273866, Note_on_c, 0, 74, 78
1, 273897, Note_off_c, 0, 82, 70
1, 273897, Note_off_c, 0, 86, 69
1, 273898, Note_on_c, 0, 93, 51
1, 273900, Note_on_c, 0, 96, 37
1, 273901, Note_off_c, 0, 96, 127
1, 273902, Note_on_c, 0, 92, 39
1, 273903, Note_off_c, 0, 92, 127
1, 273903, Note_off_c, 0, 98, 67
1, 273908, Note_off_c, 0, 77, 67
1, 273911, Note_off_c, 0, 94, 67
1, 273919, Note_off_c, 0, 74, 69
1, 273919, Note_off_c, 0, 93, 57
1, 273920, Note_on_c, 0, 95, 14
1, 273925, Note_off_c, 0, 70, 65
1, 273970, Note_off_c, 0, 95, 33
1, 274310, Note_on_c, 0, 62, 95
1, 274311, Note_on_c, 0, 46, 89
1, 274312, Note_on_c, 0, 58, 108
1, 274315, Note_on_c, 0, 70, 91
1, 274316, Note_on_c, 0, 53, 95
1, 274317, Note_on_c, 0, 74, 85
1, 274323, Note_on_c, 0, 50, 81
1, 274350, Note_off_c, 0, 62, 67
1, 274359, Note_off_c, 0, 58, 66
1, 274364, Note_off_c, 0, 74, 69
1, 274367, Note_off_c, 0, 70, 65
1, 274367, Note_off_c, 0, 46, 63
1, 274370, Note_off_c, 0, 53, 68
1, 274373, Note_off_c, 0, 50, 65
1, 274925, Note_on_c, 0, 70, 88
1, 274929, Note_on_c, 0, 94, 86
1, 274931, Note_on_c, 0, 86, 92
1, 274932, Note_on_c, 0, 82, 106
1, 274932, Note_on_c, 0, 98, 94
1, 274935, Note_on_c, 0, 77, 90
1, 274939, Note_on_c, 0, 74, 78
1, 274975, Note_off_c, 0, 86, 68
1, 274978, Note_off_c, 0, 82, 69
1, 274979, Note_on_c, 0, 96, 38
1, 274992, Note_off_c, 0, 98, 68
1, 274994, Note_off_c, 0, 77, 66
1, 274996, Note_off_c, 0, 94, 68
1, 275003, Note_off_c, 0, 70, 66
1, 275006, Note_off_c, 0, 74, 68
1, 275008, Note_off_c, 0, 96, 35
1, 275813, Control_c, 0, 64, 116
1, 275827, Control_c, 0, 64, 106
1, 275842, Control_c, 0, 64, 98
1, 275857, Control_c, 0, 64, 90
1, 275872, Control_c, 0, 64, 80
1, 275886, Control_c, 0, 64, 70
1, 275901, Control_c, 0, 64, 46
1, 275916, Control_c, 0, 64, 0
1, 275916, End_track
0, 0, End_of_file
