0, 0, Header, 0, 1, 384
1, 0, Start_track
1, 0, Title_t, "Sonata K. 333--Zheyu Li            "
1, 0, Text_t, "2008 e-Piano Junior Competition virtual audition round"
1, 0, Text_t, "recorded January and February 2008"
1, 0, Text_t, "http://www.piano-e-competition.com/"
1, 0, Text_t, "File processed for distribution by software from Zenph Studios, Inc., http://www.zenph.com"
1, 0, Instrument_name_t, "Yamaha Disklavier Pro Mark IV concert grand piano, model DCFIIISM4PRO"
1, 0, Sequencer_specific, 39, 67, 113, 0, 1, 0, 1, 0, 83, 111, 110, 97, 116, 97, 32, 75, 46, 32, 51, 51, 51, 32, 32, 32, 90, 104, 101, 121, 117, 32, 76, 105, 32, 32, 32, 32, 32, 32, 32, 32
1, 0, Sequencer_specific, 6, 67, 113, 0, 0, 0, 69
1, 0, System_exclusive, 21, 67, 113, 126, 21, 0, 2, 2, 0, 13, 12, 15, 4, 7, 9, 7, 4, 11, 3, 11, 1, 247
1, 0, Sequencer_specific, 5, 67, 123, 12, 2, 1
1, 0, Tempo, 512820
1, 0, Time_signature, 4, 2, 24, 8
1, 0, System_exclusive, 5, 126, 127, 9, 1, 247
1, 1, System_exclusive, 8, 67, 16, 76, 0, 0, 126, 0, 247
1, 2, System_exclusive, 8, 67, 16, 76, 8, 9, 7, 1, 247
1, 3, Control_c, 0, 0, 0
1, 3, Control_c, 1, 0, 0
1, 3, Control_c, 2, 0, 0
1, 3, Control_c, 3, 0, 0
1, 3, Control_c, 4, 0, 0
1, 3, Control_c, 5, 0, 0
1, 3, Control_c, 6, 0, 0
1, 3, Control_c, 7, 0, 0
1, 3, Control_c, 8, 0, 0
1, 3, Control_c, 9, 0, 127
1, 3, Control_c, 10, 0, 0
1, 3, Control_c, 11, 0, 0
1, 3, Control_c, 12, 0, 0
1, 3, Control_c, 13, 0, 0
1, 3, Control_c, 14, 0, 0
1, 3, Control_c, 15, 0, 0
1, 4, Control_c, 0, 32, 0
1, 4, Control_c, 1, 32, 0
1, 4, Control_c, 2, 32, 0
1, 4, Control_c, 3, 32, 0
1, 4, Control_c, 4, 32, 0
1, 4, Control_c, 5, 32, 0
1, 4, Control_c, 6, 32, 0
1, 4, Control_c, 7, 32, 0
1, 4, Control_c, 8, 32, 0
1, 4, Control_c, 9, 32, 0
1, 4, Control_c, 10, 32, 0
1, 4, Control_c, 11, 32, 0
1, 4, Control_c, 12, 32, 0
1, 4, Control_c, 13, 32, 0
1, 4, Control_c, 14, 32, 0
1, 4, Control_c, 15, 32, 0
1, 5, Program_c, 0, 0
1, 5, Program_c, 1, 0
1, 5, Program_c, 2, 0
1, 5, Program_c, 3, 0
1, 5, Program_c, 4, 0
1, 5, Program_c, 5, 0
1, 5, Program_c, 6, 0
1, 5, Program_c, 7, 0
1, 5, Program_c, 8, 0
1, 5, Program_c, 9, 0
1, 5, Program_c, 10, 0
1, 5, Program_c, 11, 0
1, 5, Program_c, 12, 0
1, 5, Program_c, 13, 0
1, 5, Program_c, 14, 0
1, 5, Program_c, 15, 0
1, 6, Control_c, 0, 7, 100
1, 6, Control_c, 1, 7, 100
1, 6, Control_c, 2, 7, 100
1, 6, Control_c, 3, 7, 100
1, 6, Control_c, 4, 7, 100
1, 6, Control_c, 5, 7, 100
1, 6, Control_c, 6, 7, 100
1, 6, Control_c, 7, 7, 100
1, 6, Control_c, 8, 7, 100
1, 6, Control_c, 9, 7, 100
1, 6, Control_c, 10, 7, 100
1, 6, Control_c, 11, 7, 100
1, 6, Control_c, 12, 7, 100
1, 6, Control_c, 13, 7, 100
1, 6, Control_c, 14, 7, 100
1, 6, Control_c, 15, 7, 100
1, 1131, Note_on_c, 0, 79, 55
1, 1216, Note_on_c, 0, 77, 59
1, 1217, Note_off_c, 0, 79, 62
1, 1292, Note_on_c, 0, 75, 66
1, 1296, Note_off_c, 0, 77, 60
1, 1383, Note_on_c, 0, 74, 65
1, 1383, Note_off_c, 0, 75, 63
1, 1473, Note_off_c, 0, 74, 65
1, 1474, Note_on_c, 0, 72, 79
1, 1662, Note_on_c, 0, 58, 42
1, 1662, Note_off_c, 0, 72, 63
1, 1663, Note_on_c, 0, 70, 68
1, 1705, Note_off_c, 0, 70, 62
1, 1864, Note_on_c, 0, 70, 64
1, 1870, Note_on_c, 0, 62, 36
1, 1906, Note_off_c, 0, 58, 37
1, 2033, Note_off_c, 0, 62, 39
1, 2041, Note_on_c, 0, 65, 39
1, 2223, Note_off_c, 0, 70, 62
1, 2254, Note_off_c, 0, 65, 46
1, 2254, Note_on_c, 0, 62, 40
1, 2431, Note_on_c, 0, 58, 37
1, 2435, Note_on_c, 0, 74, 58
1, 2450, Note_off_c, 0, 62, 41
1, 2584, Note_off_c, 0, 58, 58
1, 2608, Note_on_c, 0, 79, 68
1, 2613, Note_on_c, 0, 62, 38
1, 2618, Note_off_c, 0, 74, 61
1, 2748, Note_off_c, 0, 62, 50
1, 2761, Note_off_c, 0, 79, 63
1, 2775, Note_on_c, 0, 74, 64
1, 2799, Note_on_c, 0, 67, 14
1, 2802, Note_off_c, 0, 74, 67
1, 2843, Note_off_c, 0, 67, 51
1, 2968, Note_on_c, 0, 77, 62
1, 3148, Note_on_c, 0, 60, 42
1, 3342, Note_on_c, 0, 75, 61
1, 3342, Note_on_c, 0, 63, 38
1, 3346, Note_off_c, 0, 60, 40
1, 3353, Note_off_c, 0, 77, 62
1, 3508, Note_off_c, 0, 63, 49
1, 3522, Note_on_c, 0, 67, 32
1, 3678, Note_off_c, 0, 75, 62
1, 3711, Note_on_c, 0, 63, 45
1, 3713, Note_off_c, 0, 67, 40
1, 3851, Note_off_c, 0, 63, 0
1, 3888, Poly_aftertouch_c, 0, 63, 0
1, 3893, Note_on_c, 0, 60, 39
1, 3907, Note_on_c, 0, 77, 57
1, 3968, Note_off_c, 0, 77, 63
1, 3982, Note_on_c, 0, 79, 61
1, 4050, Note_off_c, 0, 60, 54
1, 4057, Note_off_c, 0, 79, 62
1, 4067, Note_on_c, 0, 63, 42
1, 4068, Note_on_c, 0, 77, 64
1, 4139, Note_off_c, 0, 77, 62
1, 4148, Note_on_c, 0, 75, 66
1, 4230, Note_off_c, 0, 75, 63
1, 4238, Note_on_c, 0, 74, 66
1, 4246, Note_off_c, 0, 63, 55
1, 4256, Note_on_c, 0, 67, 45
1, 4289, Note_off_c, 0, 67, 62
1, 4308, Note_off_c, 0, 74, 64
1, 4325, Note_on_c, 0, 72, 67
1, 4437, Note_on_c, 0, 70, 65
1, 4441, Note_off_c, 0, 72, 59
1, 4608, Note_on_c, 0, 53, 41
1, 4796, Note_on_c, 0, 69, 49
1, 4799, Note_off_c, 0, 70, 58
1, 4802, Note_off_c, 0, 53, 51
1, 4813, Note_on_c, 0, 60, 33
1, 4959, Note_off_c, 0, 60, 45
1, 4978, Note_on_c, 0, 63, 30
1, 5156, Note_off_c, 0, 63, 42
1, 5166, Note_off_c, 0, 69, 58
1, 5169, Note_on_c, 0, 60, 39
1, 5334, Note_on_c, 0, 53, 37
1, 5354, Note_on_c, 0, 69, 46
1, 5363, Note_off_c, 0, 60, 36
1, 5497, Note_off_c, 0, 69, 57
1, 5502, Note_off_c, 0, 53, 50
1, 5510, Note_on_c, 0, 70, 52
1, 5513, Note_on_c, 0, 60, 33
1, 5659, Note_off_c, 0, 60, 55
1, 5664, Note_off_c, 0, 70, 57
1, 5677, Note_on_c, 0, 72, 60
1, 5686, Note_on_c, 0, 63, 35
1, 5723, Note_off_c, 0, 72, 62
1, 5726, Note_off_c, 0, 63, 55
1, 5869, Note_on_c, 0, 72, 49
1, 5887, Note_on_c, 0, 69, 28
1, 6060, Note_on_c, 0, 58, 37
1, 6219, Note_off_c, 0, 72, 54
1, 6220, Note_off_c, 0, 69, 41
1, 6250, Note_on_c, 0, 70, 33
1, 6250, Note_off_c, 0, 58, 45
1, 6257, Note_on_c, 0, 74, 35
1, 6262, Note_on_c, 0, 62, 35
1, 6410, Note_off_c, 0, 62, 45
1, 6424, Note_on_c, 0, 65, 42
1, 6582, Note_off_c, 0, 70, 57
1, 6594, Note_off_c, 0, 74, 58
1, 6598, Note_off_c, 0, 65, 55
1, 6603, Note_on_c, 0, 62, 54
1, 6787, Note_on_c, 0, 77, 66
1, 6792, Note_off_c, 0, 62, 54
1, 6806, Note_on_c, 0, 58, 43
1, 6866, Note_on_c, 0, 76, 71
1, 6866, Note_off_c, 0, 77, 63
1, 6928, Note_off_c, 0, 58, 58
1, 6940, Note_off_c, 0, 76, 65
1, 6945, Note_on_c, 0, 62, 45
1, 6952, Note_on_c, 0, 79, 75
1, 7029, Note_on_c, 0, 77, 75
1, 7033, Note_off_c, 0, 79, 64
1, 7096, Note_off_c, 0, 62, 54
1, 7109, Note_off_c, 0, 77, 63
1, 7110, Note_on_c, 0, 75, 75
1, 7118, Note_on_c, 0, 65, 42
1, 7184, Note_off_c, 0, 75, 64
1, 7196, Note_on_c, 0, 74, 69
1, 7225, Note_off_c, 0, 74, 66
1, 7261, Note_off_c, 0, 65, 50
1, 7301, Note_on_c, 0, 63, 40
1, 7303, Note_on_c, 0, 74, 67
1, 7499, Note_on_c, 0, 72, 69
1, 7499, Note_off_c, 0, 74, 64
1, 7512, Note_on_c, 0, 67, 35
1, 7658, Note_off_c, 0, 63, 39
1, 7659, Note_off_c, 0, 67, 56
1, 7679, Note_on_c, 0, 62, 47
1, 7690, Note_off_c, 0, 72, 63
1, 7842, Note_on_c, 0, 70, 59
1, 7855, Note_on_c, 0, 65, 43
1, 7870, Note_off_c, 0, 70, 65
1, 7977, Note_off_c, 0, 62, 32
1, 8018, Note_off_c, 0, 65, 38
1, 8026, Note_on_c, 0, 63, 33
1, 8026, Note_on_c, 0, 74, 43
1, 8194, Note_off_c, 0, 74, 58
1, 8209, Note_on_c, 0, 72, 53
1, 8221, Note_on_c, 0, 67, 25
1, 8226, Note_off_c, 0, 63, 42
1, 8394, Note_on_c, 0, 60, 40
1, 8412, Note_off_c, 0, 72, 62
1, 8472, Note_off_c, 0, 67, 38
1, 8539, Note_off_c, 0, 60, 54
1, 8551, Note_on_c, 0, 69, 56
1, 8554, Note_on_c, 0, 63, 40
1, 8584, Note_off_c, 0, 69, 61
1, 8720, Note_off_c, 0, 63, 37
1, 8721, Note_on_c, 0, 62, 32
1, 8728, Note_on_c, 0, 70, 46
1, 8742, Note_on_c, 0, 65, 33
1, 8782, Note_off_c, 0, 70, 62
1, 8815, Note_on_c, 0, 72, 56
1, 8867, Note_off_c, 0, 72, 62
1, 8892, Note_on_c, 0, 70, 62
1, 8955, Note_off_c, 0, 70, 62
1, 8972, Note_on_c, 0, 69, 67
1, 8993, Note_off_c, 0, 65, 44
1, 9005, Note_off_c, 0, 62, 37
1, 9056, Note_off_c, 0, 69, 63
1, 9060, Note_on_c, 0, 70, 75
1, 9119, Note_off_c, 0, 70, 64
1, 9141, Note_on_c, 0, 72, 78
1, 9217, Note_on_c, 0, 74, 74
1, 9218, Note_off_c, 0, 72, 63
1, 9298, Note_on_c, 0, 75, 78
1, 9305, Note_off_c, 0, 74, 64
1, 9342, Note_off_c, 0, 75, 66
1, 9384, Note_on_c, 0, 76, 69
1, 9451, Note_off_c, 0, 76, 66
1, 9454, Note_on_c, 0, 77, 77
1, 9539, Note_off_c, 0, 77, 64
1, 9543, Note_on_c, 0, 76, 79
1, 9611, Note_off_c, 0, 76, 65
1, 9619, Note_on_c, 0, 77, 80
1, 9703, Note_off_c, 0, 77, 64
1, 9708, Note_on_c, 0, 79, 80
1, 9803, Note_on_c, 0, 77, 75
1, 9809, Note_off_c, 0, 79, 61
1, 9878, Note_on_c, 0, 75, 75
1, 9881, Note_off_c, 0, 77, 62
1, 9953, Note_off_c, 0, 75, 64
1, 9962, Note_on_c, 0, 74, 68
1, 9989, Note_off_c, 0, 74, 68
1, 10043, Note_on_c, 0, 63, 41
1, 10064, Note_on_c, 0, 74, 71
1, 10219, Note_off_c, 0, 74, 65
1, 10229, Note_on_c, 0, 72, 72
1, 10239, Note_on_c, 0, 67, 39
1, 10258, Note_off_c, 0, 72, 67
1, 10383, Note_off_c, 0, 67, 47
1, 10410, Note_off_c, 0, 63, 43
1, 10412, Note_on_c, 0, 62, 42
1, 10421, Note_on_c, 0, 72, 66
1, 10576, Note_off_c, 0, 72, 64
1, 10596, Note_on_c, 0, 70, 55
1, 10598, Note_on_c, 0, 65, 43
1, 10629, Note_off_c, 0, 70, 65
1, 10743, Note_off_c, 0, 65, 39
1, 10749, Note_off_c, 0, 62, 32
1, 10765, Note_on_c, 0, 63, 37
1, 10774, Note_on_c, 0, 74, 39
1, 10942, Note_off_c, 0, 74, 49
1, 10948, Note_on_c, 0, 72, 53
1, 10958, Note_on_c, 0, 67, 29
1, 10964, Note_off_c, 0, 63, 39
1, 10986, Note_off_c, 0, 72, 64
1, 11122, Note_on_c, 0, 60, 39
1, 11128, Note_on_c, 0, 72, 61
1, 11206, Note_off_c, 0, 67, 39
1, 11274, Note_off_c, 0, 72, 64
1, 11287, Note_off_c, 0, 60, 53
1, 11295, Note_on_c, 0, 69, 50
1, 11306, Note_on_c, 0, 63, 38
1, 11322, Note_off_c, 0, 69, 61
1, 11468, Note_off_c, 0, 63, 43
1, 11472, Note_on_c, 0, 70, 52
1, 11482, Note_on_c, 0, 62, 36
1, 11485, Note_on_c, 0, 65, 34
1, 11498, Note_off_c, 0, 70, 63
1, 11656, Note_on_c, 0, 72, 68
1, 11714, Note_off_c, 0, 72, 60
1, 11731, Note_on_c, 0, 74, 64
1, 11748, Note_off_c, 0, 65, 51
1, 11778, Note_off_c, 0, 62, 39
1, 11807, Note_off_c, 0, 74, 64
1, 11809, Note_on_c, 0, 75, 75
1, 11870, Note_off_c, 0, 75, 65
1, 11891, Note_on_c, 0, 77, 76
1, 11959, Note_off_c, 0, 77, 61
1, 11965, Note_on_c, 0, 79, 81
1, 12045, Note_off_c, 0, 79, 63
1, 12050, Note_on_c, 0, 81, 84
1, 12120, Note_on_c, 0, 82, 78
1, 12123, Note_off_c, 0, 81, 66
1, 12168, Note_off_c, 0, 82, 66
1, 12198, Note_on_c, 0, 84, 84
1, 12269, Note_on_c, 0, 86, 82
1, 12275, Note_off_c, 0, 84, 65
1, 12344, Note_off_c, 0, 86, 65
1, 12345, Note_on_c, 0, 87, 87
1, 12426, Note_on_c, 0, 89, 85
1, 12426, Note_off_c, 0, 87, 67
1, 12449, Note_off_c, 0, 89, 69
1, 12610, Note_on_c, 0, 89, 85
1, 12642, Note_off_c, 0, 89, 67
1, 12803, Note_on_c, 0, 57, 43
1, 12810, Note_on_c, 0, 89, 71
1, 12826, Note_on_c, 0, 77, 49
1, 12893, Note_off_c, 0, 57, 59
1, 12981, Note_on_c, 0, 87, 85
1, 13009, Note_off_c, 0, 89, 66
1, 13155, Note_on_c, 0, 58, 63
1, 13221, Note_off_c, 0, 58, 65
1, 13310, Note_on_c, 0, 86, 78
1, 13316, Note_off_c, 0, 87, 67
1, 13339, Note_off_c, 0, 86, 67
1, 13506, Note_on_c, 0, 86, 80
1, 13508, Note_on_c, 0, 51, 41
1, 13510, Note_off_c, 0, 77, 60
1, 13590, Note_off_c, 0, 51, 55
1, 13667, Note_off_c, 0, 86, 61
1, 13673, Note_on_c, 0, 84, 67
1, 13683, Note_on_c, 0, 75, 55
1, 13700, Note_off_c, 0, 84, 67
1, 13705, Note_off_c, 0, 75, 60
1, 13835, Note_on_c, 0, 82, 62
1, 13841, Note_on_c, 0, 53, 44
1, 13861, Note_on_c, 0, 74, 28
1, 13864, Note_off_c, 0, 82, 67
1, 13894, Note_off_c, 0, 53, 60
1, 13897, Note_off_c, 0, 74, 44
1, 13999, Note_on_c, 0, 81, 75
1, 14007, Note_on_c, 0, 72, 66
1, 14028, Note_off_c, 0, 81, 64
1, 14034, Note_off_c, 0, 72, 65
1, 14188, Note_on_c, 0, 82, 64
1, 14195, Note_on_c, 0, 74, 53
1, 14339, Note_off_c, 0, 74, 64
1, 14356, Note_off_c, 0, 82, 64
1, 14371, Note_on_c, 0, 46, 50
1, 14409, Note_off_c, 0, 46, 62
1, 14556, Note_on_c, 0, 50, 44
1, 14567, Note_on_c, 0, 70, 54
1, 14596, Note_off_c, 0, 50, 61
1, 14738, Note_on_c, 0, 53, 44
1, 14762, Note_off_c, 0, 70, 60
1, 14791, Note_off_c, 0, 53, 57
1, 14980, Note_on_c, 0, 58, 28
1, 15260, Note_off_c, 0, 58, 44
1, 15393, Note_on_c, 0, 67, 40
1, 15468, Note_off_c, 0, 67, 58
1, 15481, Note_on_c, 0, 65, 49
1, 15560, Note_off_c, 0, 65, 56
1, 15567, Note_on_c, 0, 63, 54
1, 15652, Note_on_c, 0, 62, 61
1, 15653, Note_off_c, 0, 63, 59
1, 15747, Note_off_c, 0, 62, 61
1, 15753, Note_on_c, 0, 60, 61
1, 15921, Note_off_c, 0, 60, 60
1, 15927, Note_on_c, 0, 46, 37
1, 15934, Note_on_c, 0, 58, 53
1, 15970, Note_off_c, 0, 58, 66
1, 16134, Note_on_c, 0, 58, 51
1, 16149, Note_on_c, 0, 50, 28
1, 16153, Note_off_c, 0, 46, 41
1, 16255, Note_off_c, 0, 50, 52
1, 16306, Note_on_c, 0, 53, 34
1, 16473, Note_off_c, 0, 53, 52
1, 16491, Note_on_c, 0, 50, 38
1, 16491, Note_off_c, 0, 58, 51
1, 16595, Note_off_c, 0, 50, 46
1, 16662, Note_on_c, 0, 70, 54
1, 16665, Note_on_c, 0, 46, 29
1, 16813, Note_off_c, 0, 46, 44
1, 16830, Note_off_c, 0, 70, 56
1, 16836, Note_on_c, 0, 69, 49
1, 16837, Note_on_c, 0, 50, 39
1, 16976, Note_off_c, 0, 50, 47
1, 16984, Note_off_c, 0, 69, 54
1, 17010, Note_on_c, 0, 67, 42
1, 17022, Note_on_c, 0, 55, 34
1, 17054, Note_off_c, 0, 67, 60
1, 17068, Note_off_c, 0, 55, 50
1, 17197, Note_on_c, 0, 65, 46
1, 17361, Note_on_c, 0, 48, 38
1, 17539, Note_off_c, 0, 48, 50
1, 17544, Note_off_c, 0, 65, 60
1, 17545, Note_on_c, 0, 64, 48
1, 17559, Note_on_c, 0, 55, 39
1, 17727, Note_on_c, 0, 58, 40
1, 17745, Note_off_c, 0, 55, 41
1, 17876, Note_off_c, 0, 58, 51
1, 17887, Note_on_c, 0, 55, 37
1, 17984, Note_off_c, 0, 64, 59
1, 17993, Note_on_c, 0, 67, 53
1, 18061, Note_off_c, 0, 67, 62
1, 18068, Note_on_c, 0, 65, 62
1, 18070, Note_on_c, 0, 48, 38
1, 18090, Note_off_c, 0, 55, 45
1, 18130, Note_off_c, 0, 65, 61
1, 18146, Note_on_c, 0, 69, 67
1, 18191, Note_off_c, 0, 69, 59
1, 18222, Note_off_c, 0, 48, 56
1, 18229, Note_on_c, 0, 67, 68
1, 18242, Note_on_c, 0, 55, 43
1, 18302, Note_off_c, 0, 67, 62
1, 18303, Note_on_c, 0, 70, 75
1, 18364, Note_off_c, 0, 55, 61
1, 18382, Note_off_c, 0, 70, 63
1, 18390, Note_on_c, 0, 58, 51
1, 18390, Note_on_c, 0, 69, 71
1, 18430, Note_off_c, 0, 58, 61
1, 18455, Note_off_c, 0, 69, 62
1, 18464, Note_on_c, 0, 72, 81
1, 18543, Note_off_c, 0, 72, 63
1, 18553, Note_on_c, 0, 70, 77
1, 18616, Note_off_c, 0, 70, 64
1, 18637, Note_on_c, 0, 67, 70
1, 18705, Note_off_c, 0, 67, 59
1, 18756, Note_on_c, 0, 76, 53
1, 18757, Note_on_c, 0, 52, 40
1, 18758, Note_on_c, 0, 77, 49
1, 18806, Note_off_c, 0, 77, 61
1, 18806, Note_off_c, 0, 76, 61
1, 18836, Note_on_c, 0, 72, 63
1, 18898, Note_on_c, 0, 79, 74
1, 18900, Note_off_c, 0, 72, 65
1, 18911, Note_off_c, 0, 52, 60
1, 18922, Note_on_c, 0, 55, 54
1, 18933, Note_off_c, 0, 79, 61
1, 18989, Note_on_c, 0, 76, 70
1, 19050, Note_on_c, 0, 82, 69
1, 19060, Note_off_c, 0, 76, 62
1, 19063, Note_off_c, 0, 55, 59
1, 19067, Note_on_c, 0, 60, 53
1, 19132, Note_off_c, 0, 82, 65
1, 19138, Note_on_c, 0, 81, 86
1, 19207, Note_off_c, 0, 60, 56
1, 19208, Note_on_c, 0, 55, 52
1, 19215, Note_off_c, 0, 81, 66
1, 19217, Note_on_c, 0, 82, 77
1, 19289, Note_on_c, 0, 81, 86
1, 19295, Note_off_c, 0, 82, 60
1, 19367, Note_off_c, 0, 55, 56
1, 19378, Note_on_c, 0, 79, 81
1, 19378, Note_off_c, 0, 81, 65
1, 19382, Note_on_c, 0, 52, 49
1, 19451, Note_off_c, 0, 79, 63
1, 19461, Note_on_c, 0, 77, 73
1, 19535, Note_off_c, 0, 52, 58
1, 19549, Note_on_c, 0, 55, 47
1, 19550, Note_on_c, 0, 76, 74
1, 19557, Note_off_c, 0, 77, 61
1, 19625, Note_off_c, 0, 76, 65
1, 19638, Note_on_c, 0, 74, 69
1, 19676, Note_off_c, 0, 55, 56
1, 19703, Note_off_c, 0, 74, 64
1, 19713, Note_on_c, 0, 60, 53
1, 19719, Note_on_c, 0, 72, 78
1, 19762, Note_off_c, 0, 60, 58
1, 19801, Note_off_c, 0, 72, 63
1, 19802, Note_on_c, 0, 70, 76
1, 19827, Note_off_c, 0, 70, 67
1, 19898, Note_on_c, 0, 70, 73
1, 19964, Note_off_c, 0, 70, 63
1, 19975, Note_on_c, 0, 69, 69
1, 20057, Note_off_c, 0, 69, 62
1, 20070, Note_on_c, 0, 74, 53
1, 20084, Note_on_c, 0, 53, 37
1, 20151, Note_on_c, 0, 72, 71
1, 20151, Note_off_c, 0, 74, 64
1, 20184, Note_off_c, 0, 72, 65
1, 20243, Note_off_c, 0, 53, 56
1, 20276, Note_on_c, 0, 57, 40
1, 20278, Note_on_c, 0, 72, 60
1, 20426, Note_off_c, 0, 57, 55
1, 20453, Note_on_c, 0, 60, 38
1, 20589, Note_off_c, 0, 72, 55
1, 20637, Note_off_c, 0, 60, 48
1, 20649, Note_on_c, 0, 57, 38
1, 20761, Note_off_c, 0, 57, 53
1, 20807, Note_on_c, 0, 53, 32
1, 20936, Note_off_c, 0, 53, 52
1, 20989, Note_on_c, 0, 86, 47
1, 20996, Note_on_c, 0, 57, 23
1, 21072, Note_off_c, 0, 86, 65
1, 21078, Note_on_c, 0, 84, 53
1, 21124, Note_off_c, 0, 57, 43
1, 21126, Note_off_c, 0, 84, 60
1, 21144, Note_on_c, 0, 60, 29
1, 21144, Note_on_c, 0, 82, 53
1, 21203, Note_off_c, 0, 82, 63
1, 21231, Note_on_c, 0, 81, 54
1, 21281, Note_off_c, 0, 60, 36
1, 21298, Note_off_c, 0, 81, 59
1, 21319, Note_on_c, 0, 79, 47
1, 21324, Note_on_c, 0, 58, 31
1, 21464, Note_off_c, 0, 58, 46
1, 21492, Note_on_c, 0, 60, 37
1, 21642, Note_off_c, 0, 60, 52
1, 21674, Note_on_c, 0, 58, 40
1, 21815, Note_off_c, 0, 58, 53
1, 21819, Note_off_c, 0, 79, 62
1, 21843, Note_on_c, 0, 76, 52
1, 21844, Note_on_c, 0, 60, 34
1, 21877, Note_off_c, 0, 76, 62
1, 22023, Note_on_c, 0, 77, 51
1, 22024, Note_off_c, 0, 60, 35
1, 22034, Note_on_c, 0, 57, 29
1, 22067, Note_off_c, 0, 77, 59
1, 22094, Note_on_c, 0, 84, 58
1, 22157, Note_off_c, 0, 84, 60
1, 22177, Note_on_c, 0, 60, 36
1, 22177, Note_on_c, 0, 83, 65
1, 22192, Note_off_c, 0, 57, 36
1, 22242, Note_off_c, 0, 83, 67
1, 22261, Note_on_c, 0, 84, 70
1, 22339, Note_off_c, 0, 84, 65
1, 22342, Note_off_c, 0, 60, 56
1, 22344, Note_on_c, 0, 86, 71
1, 22354, Note_on_c, 0, 57, 46
1, 22425, Note_on_c, 0, 84, 73
1, 22428, Note_off_c, 0, 86, 63
1, 22485, Note_off_c, 0, 57, 56
1, 22498, Note_on_c, 0, 60, 42
1, 22504, Note_off_c, 0, 84, 65
1, 22506, Note_on_c, 0, 82, 71
1, 22577, Note_off_c, 0, 82, 67
1, 22589, Note_on_c, 0, 81, 77
1, 22645, Note_off_c, 0, 60, 55
1, 22652, Note_off_c, 0, 81, 65
1, 22671, Note_on_c, 0, 79, 65
1, 22674, Note_on_c, 0, 58, 42
1, 22696, Note_off_c, 0, 79, 65
1, 22846, Note_off_c, 0, 58, 54
1, 22863, Note_on_c, 0, 79, 78
1, 22866, Note_on_c, 0, 60, 46
1, 23033, Note_off_c, 0, 60, 56
1, 23034, Note_on_c, 0, 58, 55
1, 23195, Note_off_c, 0, 79, 65
1, 23196, Note_off_c, 0, 58, 60
1, 23197, Note_on_c, 0, 60, 50
1, 23203, Note_on_c, 0, 76, 71
1, 23240, Note_off_c, 0, 76, 64
1, 23377, Note_on_c, 0, 77, 69
1, 23379, Note_on_c, 0, 57, 55
1, 23382, Note_off_c, 0, 60, 51
1, 23439, Note_off_c, 0, 77, 62
1, 23451, Note_on_c, 0, 84, 76
1, 23525, Note_off_c, 0, 84, 65
1, 23526, Note_off_c, 0, 57, 57
1, 23527, Note_on_c, 0, 83, 80
1, 23533, Note_on_c, 0, 60, 54
1, 23603, Note_off_c, 0, 83, 67
1, 23608, Note_on_c, 0, 84, 79
1, 23687, Note_on_c, 0, 86, 81
1, 23688, Note_off_c, 0, 84, 65
1, 23692, Note_off_c, 0, 60, 58
1, 23692, Note_on_c, 0, 57, 58
1, 23764, Note_on_c, 0, 84, 79
1, 23779, Note_off_c, 0, 86, 61
1, 23836, Note_off_c, 0, 57, 56
1, 23843, Note_on_c, 0, 82, 80
1, 23848, Note_on_c, 0, 60, 49
1, 23853, Note_off_c, 0, 84, 63
1, 23922, Note_off_c, 0, 82, 67
1, 23925, Note_on_c, 0, 81, 88
1, 23966, Note_off_c, 0, 81, 65
1, 23999, Note_off_c, 0, 60, 58
1, 24023, Note_on_c, 0, 58, 47
1, 24032, Note_on_c, 0, 81, 89
1, 24192, Note_off_c, 0, 58, 58
1, 24203, Note_off_c, 0, 81, 66
1, 24208, Note_on_c, 0, 62, 46
1, 24214, Note_on_c, 0, 79, 71
1, 24244, Note_off_c, 0, 79, 66
1, 24362, Note_off_c, 0, 62, 52
1, 24393, Note_on_c, 0, 58, 42
1, 24524, Note_off_c, 0, 58, 54
1, 24545, Note_on_c, 0, 62, 36
1, 24551, Note_on_c, 0, 79, 47
1, 24578, Note_off_c, 0, 79, 58
1, 24720, Note_off_c, 0, 62, 47
1, 24730, Note_on_c, 0, 79, 43
1, 24747, Note_on_c, 0, 59, 31
1, 24876, Note_off_c, 0, 59, 48
1, 24879, Note_off_c, 0, 79, 59
1, 24906, Note_on_c, 0, 62, 38
1, 24906, Note_on_c, 0, 77, 47
1, 24944, Note_off_c, 0, 77, 63
1, 25057, Note_off_c, 0, 62, 47
1, 25074, Note_on_c, 0, 59, 34
1, 25190, Note_off_c, 0, 59, 54
1, 25228, Note_on_c, 0, 62, 32
1, 25237, Note_on_c, 0, 77, 50
1, 25406, Note_off_c, 0, 77, 58
1, 25434, Note_on_c, 0, 76, 45
1, 25437, Note_off_c, 0, 62, 37
1, 25452, Note_on_c, 0, 60, 35
1, 25502, Note_off_c, 0, 76, 62
1, 25540, Note_on_c, 0, 77, 52
1, 25597, Note_off_c, 0, 77, 57
1, 25624, Note_on_c, 0, 76, 53
1, 25664, Note_off_c, 0, 76, 63
1, 25698, Note_on_c, 0, 72, 56
1, 25756, Note_off_c, 0, 72, 58
1, 25776, Note_on_c, 0, 62, 54
1, 25779, Note_on_c, 0, 77, 57
1, 25803, Note_off_c, 0, 60, 55
1, 25842, Note_off_c, 0, 77, 60
1, 25859, Note_on_c, 0, 79, 63
1, 25937, Note_off_c, 0, 79, 62
1, 25941, Note_on_c, 0, 77, 72
1, 26005, Note_off_c, 0, 77, 62
1, 26022, Note_on_c, 0, 72, 75
1, 26104, Note_on_c, 0, 64, 70
1, 26105, Note_on_c, 0, 79, 73
1, 26113, Note_off_c, 0, 72, 57
1, 26117, Note_off_c, 0, 62, 59
1, 26184, Note_off_c, 0, 79, 64
1, 26188, Note_on_c, 0, 81, 84
1, 26280, Note_on_c, 0, 79, 83
1, 26283, Note_off_c, 0, 81, 65
1, 26355, Note_off_c, 0, 79, 64
1, 26356, Note_on_c, 0, 72, 78
1, 26431, Note_on_c, 0, 81, 87
1, 26432, Note_on_c, 0, 65, 72
1, 26452, Note_off_c, 0, 72, 59
1, 26463, Note_off_c, 0, 64, 60
1, 26507, Note_on_c, 0, 82, 80
1, 26509, Note_off_c, 0, 81, 66
1, 26514, Note_off_c, 0, 65, 66
1, 26581, Note_off_c, 0, 82, 66
1, 26588, Note_on_c, 0, 81, 91
1, 26664, Note_off_c, 0, 81, 65
1, 26669, Note_on_c, 0, 72, 77
1, 26732, Note_off_c, 0, 72, 64
1, 26748, Note_on_c, 0, 82, 79
1, 26754, Note_on_c, 0, 67, 58
1, 26783, Note_off_c, 0, 82, 64
1, 26938, Note_on_c, 0, 82, 82
1, 26941, Note_on_c, 0, 72, 58
1, 26975, Note_off_c, 0, 82, 67
1, 27117, Note_off_c, 0, 67, 57
1, 27120, Note_on_c, 0, 64, 62
1, 27128, Note_off_c, 0, 72, 60
1, 27287, Note_on_c, 0, 79, 80
1, 27304, Note_on_c, 0, 72, 54
1, 27310, Note_off_c, 0, 79, 69
1, 27433, Note_off_c, 0, 64, 55
1, 27454, Note_off_c, 0, 72, 51
1, 27466, Note_on_c, 0, 65, 45
1, 27467, Note_on_c, 0, 82, 60
1, 27629, Note_off_c, 0, 82, 59
1, 27640, Note_on_c, 0, 81, 61
1, 27647, Note_on_c, 0, 72, 43
1, 27666, Note_off_c, 0, 81, 60
1, 27734, Note_off_c, 0, 65, 36
1, 27815, Note_on_c, 0, 62, 40
1, 27820, Note_on_c, 0, 79, 62
1, 27837, Note_off_c, 0, 72, 47
1, 27849, Note_off_c, 0, 79, 63
1, 27964, Note_off_c, 0, 62, 55
1, 27985, Note_on_c, 0, 77, 49
1, 28001, Note_on_c, 0, 72, 42
1, 28010, Note_off_c, 0, 77, 57
1, 28084, Note_off_c, 0, 72, 39
1, 28153, Note_on_c, 0, 60, 36
1, 28158, Note_on_c, 0, 76, 46
1, 28202, Note_off_c, 0, 76, 64
1, 28235, Note_on_c, 0, 72, 45
1, 28307, Note_off_c, 0, 72, 54
1, 28313, Note_on_c, 0, 83, 48
1, 28377, Note_off_c, 0, 83, 64
1, 28403, Note_on_c, 0, 84, 49
1, 28477, Note_off_c, 0, 84, 59
1, 28495, Note_on_c, 0, 77, 54
1, 28506, Note_on_c, 0, 62, 43
1, 28530, Note_off_c, 0, 60, 46
1, 28556, Note_off_c, 0, 77, 57
1, 28587, Note_on_c, 0, 72, 61
1, 28671, Note_on_c, 0, 83, 64
1, 28680, Note_off_c, 0, 72, 54
1, 28757, Note_off_c, 0, 83, 65
1, 28763, Note_on_c, 0, 84, 69
1, 28834, Note_on_c, 0, 64, 68
1, 28834, Note_on_c, 0, 79, 76
1, 28839, Note_off_c, 0, 84, 63
1, 28870, Note_off_c, 0, 62, 61
1, 28913, Note_off_c, 0, 79, 63
1, 28921, Note_on_c, 0, 72, 81
1, 28998, Note_on_c, 0, 83, 82
1, 29025, Note_off_c, 0, 72, 59
1, 29079, Note_on_c, 0, 84, 84
1, 29080, Note_off_c, 0, 83, 68
1, 29155, Note_on_c, 0, 81, 93
1, 29158, Note_off_c, 0, 84, 65
1, 29159, Note_on_c, 0, 65, 72
1, 29184, Note_off_c, 0, 64, 64
1, 29246, Note_off_c, 0, 81, 64
1, 29249, Note_off_c, 0, 65, 66
1, 29250, Note_on_c, 0, 72, 86
1, 29323, Note_on_c, 0, 83, 86
1, 29332, Note_off_c, 0, 72, 41
1, 29393, Note_off_c, 0, 83, 68
1, 29396, Note_on_c, 0, 84, 79
1, 29475, Note_off_c, 0, 84, 67
1, 29476, Note_on_c, 0, 82, 80
1, 29481, Note_on_c, 0, 67, 61
1, 29499, Note_off_c, 0, 82, 68
1, 29519, Note_off_c, 0, 67, 63
1, 29562, Note_on_c, 0, 72, 66
1, 29631, Note_off_c, 0, 72, 57
1, 29661, Note_on_c, 0, 82, 75
1, 29664, Note_on_c, 0, 71, 48
1, 29682, Note_off_c, 0, 82, 70
1, 29723, Note_off_c, 0, 71, 64
1, 29752, Note_on_c, 0, 72, 64
1, 29824, Note_on_c, 0, 64, 69
1, 29826, Note_off_c, 0, 72, 63
1, 29867, Note_off_c, 0, 64, 56
1, 29898, Note_on_c, 0, 72, 56
1, 29973, Note_off_c, 0, 72, 64
1, 29975, Note_on_c, 0, 79, 70
1, 29980, Note_on_c, 0, 71, 62
1, 30008, Note_off_c, 0, 79, 63
1, 30017, Note_on_c, 0, 81, 78
1, 30030, Note_off_c, 0, 71, 57
1, 30058, Note_off_c, 0, 81, 63
1, 30062, Note_on_c, 0, 72, 63
1, 30074, Note_on_c, 0, 79, 52
1, 30080, Note_on_c, 0, 77, 67
1, 30103, Note_off_c, 0, 79, 55
1, 30147, Note_off_c, 0, 72, 62
1, 30154, Note_on_c, 0, 82, 85
1, 30155, Note_on_c, 0, 65, 64
1, 30164, Note_off_c, 0, 77, 57
1, 30226, Note_off_c, 0, 65, 63
1, 30235, Note_on_c, 0, 72, 60
1, 30323, Note_off_c, 0, 72, 61
1, 30333, Note_off_c, 0, 82, 67
1, 30335, Note_on_c, 0, 81, 75
1, 30338, Note_on_c, 0, 71, 62
1, 30352, Note_off_c, 0, 81, 67
1, 30378, Note_off_c, 0, 71, 63
1, 30421, Note_on_c, 0, 72, 54
1, 30484, Note_off_c, 0, 72, 55
1, 30501, Note_on_c, 0, 62, 65
1, 30503, Note_on_c, 0, 79, 81
1, 30527, Note_off_c, 0, 79, 67
1, 30560, Note_off_c, 0, 62, 56
1, 30583, Note_on_c, 0, 71, 60
1, 30656, Note_off_c, 0, 71, 64
1, 30662, Note_on_c, 0, 69, 63
1, 30662, Note_on_c, 0, 77, 70
1, 30687, Note_off_c, 0, 77, 67
1, 30712, Note_off_c, 0, 69, 62
1, 30769, Note_on_c, 0, 71, 33
1, 30853, Note_on_c, 0, 60, 42
1, 30855, Note_on_c, 0, 76, 62
1, 30857, Note_off_c, 0, 71, 30
1, 30927, Note_off_c, 0, 76, 63
1, 30944, Note_on_c, 0, 84, 76
1, 31021, Note_off_c, 0, 60, 60
1, 31022, Note_off_c, 0, 84, 65
1, 31024, Note_on_c, 0, 79, 78
1, 31098, Note_on_c, 0, 76, 80
1, 31102, Note_off_c, 0, 79, 62
1, 31171, Note_off_c, 0, 76, 64
1, 31180, Note_on_c, 0, 72, 88
1, 31239, Note_off_c, 0, 72, 62
1, 31264, Note_on_c, 0, 67, 84
1, 31357, Note_on_c, 0, 64, 78
1, 31359, Note_off_c, 0, 67, 63
1, 31451, Note_on_c, 0, 60, 77
1, 31455, Note_off_c, 0, 64, 65
1, 31588, Note_on_c, 0, 36, 53
1, 31588, Note_on_c, 0, 48, 60
1, 31615, Note_off_c, 0, 60, 62
1, 32005, Note_off_c, 0, 48, 63
1, 32015, Note_off_c, 0, 36, 64
1, 32454, Note_on_c, 0, 60, 78
1, 32454, Note_on_c, 0, 72, 87
1, 32457, Note_on_c, 0, 65, 74
1, 32457, Note_on_c, 0, 69, 69
1, 32458, Note_on_c, 0, 53, 75
1, 32459, Note_on_c, 0, 41, 69
1, 32492, Control_c, 0, 64, 54
1, 32507, Control_c, 0, 64, 66
1, 32522, Control_c, 0, 64, 73
1, 32537, Control_c, 0, 64, 79
1, 32551, Control_c, 0, 64, 84
1, 32566, Control_c, 0, 64, 89
1, 32581, Control_c, 0, 64, 94
1, 32596, Control_c, 0, 64, 98
1, 32611, Control_c, 0, 64, 101
1, 32626, Control_c, 0, 64, 103
1, 32641, Control_c, 0, 64, 104
1, 32655, Control_c, 0, 64, 105
1, 32670, Control_c, 0, 64, 107
1, 32685, Control_c, 0, 64, 110
1, 32700, Control_c, 0, 64, 112
1, 32715, Control_c, 0, 64, 114
1, 32730, Control_c, 0, 64, 114
1, 32745, Control_c, 0, 64, 115
1, 32760, Control_c, 0, 64, 117
1, 32775, Control_c, 0, 64, 120
1, 32788, Note_off_c, 0, 60, 54
1, 32790, Control_c, 0, 64, 124
1, 32795, Note_off_c, 0, 72, 62
1, 32818, Note_off_c, 0, 69, 62
1, 32819, Control_c, 0, 64, 126
1, 32820, Note_off_c, 0, 65, 62
1, 32889, Note_off_c, 0, 53, 49
1, 32927, Note_off_c, 0, 41, 62
1, 33019, Control_c, 0, 64, 124
1, 33037, Note_on_c, 0, 74, 68
1, 33049, Control_c, 0, 64, 121
1, 33064, Control_c, 0, 64, 118
1, 33078, Control_c, 0, 64, 115
1, 33093, Control_c, 0, 64, 112
1, 33105, Note_on_c, 0, 72, 86
1, 33108, Control_c, 0, 64, 109
1, 33118, Note_off_c, 0, 74, 62
1, 33123, Control_c, 0, 64, 105
1, 33138, Control_c, 0, 64, 101
1, 33152, Control_c, 0, 64, 97
1, 33167, Control_c, 0, 64, 92
1, 33182, Control_c, 0, 64, 86
1, 33197, Control_c, 0, 64, 79
1, 33206, Note_on_c, 0, 70, 80
1, 33212, Control_c, 0, 64, 68
1, 33213, Note_off_c, 0, 72, 60
1, 33226, Control_c, 0, 64, 0
1, 33395, Note_off_c, 0, 70, 64
1, 33396, Note_on_c, 0, 69, 71
1, 33421, Note_off_c, 0, 69, 67
1, 33583, Note_on_c, 0, 67, 51
1, 33607, Note_off_c, 0, 67, 57
1, 33764, Note_on_c, 0, 65, 64
1, 33788, Note_off_c, 0, 65, 65
1, 33958, Note_on_c, 0, 65, 77
1, 34167, Note_on_c, 0, 74, 69
1, 34182, Note_off_c, 0, 65, 65
1, 34200, Note_off_c, 0, 74, 63
1, 34462, Note_on_c, 0, 65, 42
1, 34468, Note_on_c, 0, 46, 38
1, 34471, Note_on_c, 0, 74, 64
1, 34483, Note_on_c, 0, 58, 42
1, 34590, Control_c, 0, 64, 12
1, 34605, Control_c, 0, 64, 42
1, 34620, Control_c, 0, 64, 51
1, 34635, Control_c, 0, 64, 60
1, 34649, Control_c, 0, 64, 66
1, 34664, Control_c, 0, 64, 72
1, 34679, Control_c, 0, 64, 77
1, 34694, Control_c, 0, 64, 80
1, 34709, Control_c, 0, 64, 81
1, 34723, Control_c, 0, 64, 82
1, 34738, Control_c, 0, 64, 83
1, 34753, Control_c, 0, 64, 84
1, 34886, Control_c, 0, 64, 83
1, 34901, Control_c, 0, 64, 82
1, 34915, Control_c, 0, 64, 80
1, 34930, Control_c, 0, 64, 79
1, 34945, Control_c, 0, 64, 78
1, 34960, Control_c, 0, 64, 77
1, 34975, Control_c, 0, 64, 76
1, 34990, Control_c, 0, 64, 76
1, 35005, Control_c, 0, 64, 75
1, 35020, Control_c, 0, 64, 73
1, 35034, Note_off_c, 0, 74, 65
1, 35035, Control_c, 0, 64, 70
1, 35035, Note_on_c, 0, 72, 85
1, 35041, Note_off_c, 0, 65, 47
1, 35049, Control_c, 0, 64, 66
1, 35061, Note_off_c, 0, 58, 51
1, 35064, Control_c, 0, 64, 61
1, 35079, Control_c, 0, 64, 55
1, 35094, Control_c, 0, 64, 56
1, 35144, Note_off_c, 0, 46, 54
1, 35169, Control_c, 0, 64, 55
1, 35218, Note_on_c, 0, 76, 73
1, 35221, Control_c, 0, 64, 56
1, 35227, Note_off_c, 0, 72, 65
1, 35231, Note_on_c, 0, 57, 49
1, 35250, Control_c, 0, 64, 56
1, 35265, Control_c, 0, 64, 57
1, 35267, Note_off_c, 0, 57, 64
1, 35309, Control_c, 0, 64, 56
1, 35387, Note_off_c, 0, 76, 63
1, 35393, Note_on_c, 0, 77, 65
1, 35428, Note_off_c, 0, 77, 60
1, 35586, Note_on_c, 0, 77, 65
1, 35600, Note_on_c, 0, 59, 34
1, 35600, Note_on_c, 0, 62, 37
1, 35771, Note_on_c, 0, 67, 69
1, 35794, Note_off_c, 0, 77, 53
1, 35827, Control_c, 0, 64, 57
1, 35932, Note_off_c, 0, 62, 51
1, 35959, Note_on_c, 0, 60, 45
1, 35959, Note_off_c, 0, 59, 43
1, 36030, Control_c, 0, 64, 56
1, 36073, Note_off_c, 0, 60, 50
1, 36121, Note_off_c, 0, 67, 56
1, 36125, Note_on_c, 0, 69, 50
1, 36158, Note_off_c, 0, 69, 65
1, 36163, Control_c, 0, 64, 56
1, 36313, Note_on_c, 0, 77, 52
1, 36322, Note_on_c, 0, 59, 21
1, 36329, Note_on_c, 0, 62, 32
1, 36489, Note_off_c, 0, 77, 60
1, 36498, Note_on_c, 0, 67, 49
1, 36665, Note_off_c, 0, 62, 36
1, 36685, Note_on_c, 0, 60, 40
1, 36698, Note_off_c, 0, 59, 40
1, 36734, Control_c, 0, 64, 55
1, 36763, Control_c, 0, 64, 55
1, 36833, Note_off_c, 0, 67, 58
1, 36857, Note_off_c, 0, 60, 31
1, 36864, Note_on_c, 0, 69, 50
1, 36986, Control_c, 0, 64, 54
1, 37065, Note_on_c, 0, 62, 37
1, 37068, Note_off_c, 0, 69, 60
1, 37069, Note_on_c, 0, 72, 61
1, 37326, Control_c, 0, 64, 54
1, 37401, Note_off_c, 0, 72, 63
1, 37427, Note_on_c, 0, 64, 42
1, 37433, Note_on_c, 0, 70, 55
1, 37449, Note_off_c, 0, 62, 42
1, 37478, Note_off_c, 0, 70, 65
1, 37496, Note_on_c, 0, 72, 68
1, 37533, Note_off_c, 0, 72, 66
1, 37555, Note_on_c, 0, 70, 65
1, 37586, Note_off_c, 0, 70, 66
1, 37601, Note_on_c, 0, 72, 71
1, 37634, Note_off_c, 0, 72, 65
1, 37646, Control_c, 0, 64, 54
1, 37655, Note_on_c, 0, 70, 62
1, 37681, Note_off_c, 0, 70, 65
1, 37691, Note_on_c, 0, 72, 69
1, 37729, Note_off_c, 0, 72, 65
1, 37735, Control_c, 0, 64, 55
1, 37746, Note_on_c, 0, 70, 69
1, 37765, Note_off_c, 0, 64, 51
1, 37777, Note_on_c, 0, 65, 46
1, 37777, Note_off_c, 0, 70, 66
1, 37779, Control_c, 0, 64, 55
1, 37795, Note_on_c, 0, 69, 60
1, 37822, Note_off_c, 0, 69, 64
1, 37989, Note_on_c, 0, 69, 71
1, 38042, Note_off_c, 0, 65, 57
1, 38161, Note_on_c, 0, 70, 78
1, 38179, Control_c, 0, 64, 55
1, 38202, Note_off_c, 0, 69, 62
1, 38244, Control_c, 0, 64, 54
1, 38273, Control_c, 0, 64, 54
1, 38288, Control_c, 0, 64, 53
1, 38303, Control_c, 0, 64, 53
1, 38319, Control_c, 0, 64, 52
1, 38334, Control_c, 0, 64, 51
1, 38346, Note_on_c, 0, 72, 81
1, 38349, Control_c, 0, 64, 51
1, 38363, Control_c, 0, 64, 50
1, 38378, Note_off_c, 0, 70, 62
1, 38378, Control_c, 0, 64, 49
1, 38408, Control_c, 0, 64, 48
1, 38511, Control_c, 0, 64, 48
1, 38526, Control_c, 0, 64, 47
1, 38549, Note_on_c, 0, 73, 73
1, 38579, Note_off_c, 0, 72, 64
1, 38600, Control_c, 0, 64, 47
1, 38728, Note_on_c, 0, 46, 33
1, 38776, Note_on_c, 0, 74, 58
1, 38794, Note_off_c, 0, 73, 63
1, 38949, Note_on_c, 0, 50, 54
1, 39053, Note_off_c, 0, 46, 40
1, 39112, Note_off_c, 0, 50, 61
1, 39122, Note_on_c, 0, 55, 57
1, 39130, Note_on_c, 0, 72, 77
1, 39130, Note_off_c, 0, 74, 64
1, 39164, Note_off_c, 0, 55, 63
1, 39172, Control_c, 0, 64, 47
1, 39214, Note_off_c, 0, 72, 65
1, 39217, Note_on_c, 0, 70, 71
1, 39276, Control_c, 0, 64, 48
1, 39313, Note_on_c, 0, 58, 40
1, 39315, Note_off_c, 0, 70, 64
1, 39317, Note_on_c, 0, 69, 73
1, 39505, Note_off_c, 0, 69, 63
1, 39509, Note_on_c, 0, 67, 67
1, 39521, Note_off_c, 0, 58, 60
1, 39557, Control_c, 0, 64, 47
1, 39700, Note_on_c, 0, 69, 62
1, 39703, Note_off_c, 0, 67, 59
1, 39863, Note_off_c, 0, 69, 58
1, 39884, Note_on_c, 0, 70, 55
1, 39932, Note_off_c, 0, 70, 58
1, 40073, Note_on_c, 0, 74, 37
1, 40202, Control_c, 0, 64, 47
1, 40217, Control_c, 0, 64, 46
1, 40246, Note_on_c, 0, 72, 54
1, 40254, Note_on_c, 0, 45, 29
1, 40269, Note_off_c, 0, 74, 41
1, 40276, Control_c, 0, 64, 46
1, 40291, Control_c, 0, 64, 45
1, 40305, Control_c, 0, 64, 45
1, 40335, Control_c, 0, 64, 44
1, 40365, Control_c, 0, 64, 44
1, 40394, Control_c, 0, 64, 43
1, 40409, Control_c, 0, 64, 42
1, 40424, Control_c, 0, 64, 41
1, 40446, Control_c, 0, 64, 40
1, 40450, Note_on_c, 0, 48, 35
1, 40460, Control_c, 0, 64, 39
1, 40475, Note_off_c, 0, 45, 38
1, 40490, Control_c, 0, 64, 38
1, 40505, Control_c, 0, 64, 38
1, 40534, Control_c, 0, 64, 37
1, 40549, Control_c, 0, 64, 36
1, 40594, Control_c, 0, 64, 35
1, 40601, Note_off_c, 0, 72, 64
1, 40609, Control_c, 0, 64, 34
1, 40615, Note_off_c, 0, 48, 38
1, 40618, Note_on_c, 0, 70, 57
1, 40638, Note_on_c, 0, 53, 25
1, 40639, Control_c, 0, 64, 33
1, 40668, Control_c, 0, 64, 32
1, 40678, Note_off_c, 0, 53, 47
1, 40679, Note_off_c, 0, 70, 57
1, 40698, Control_c, 0, 64, 31
1, 40698, Note_on_c, 0, 69, 53
1, 40713, Control_c, 0, 64, 30
1, 40743, Control_c, 0, 64, 28
1, 40782, Note_off_c, 0, 69, 61
1, 40788, Note_on_c, 0, 67, 56
1, 40800, Note_on_c, 0, 57, 43
1, 40877, Control_c, 0, 64, 27
1, 40970, Note_off_c, 0, 67, 63
1, 40976, Note_on_c, 0, 65, 67
1, 41047, Note_off_c, 0, 57, 36
1, 41163, Note_on_c, 0, 67, 68
1, 41166, Note_off_c, 0, 65, 59
1, 41335, Note_off_c, 0, 67, 64
1, 41338, Note_on_c, 0, 69, 67
1, 41378, Note_off_c, 0, 69, 62
1, 41530, Note_on_c, 0, 72, 67
1, 41554, Note_on_c, 0, 55, 34
1, 41643, Note_off_c, 0, 55, 58
1, 41714, Control_c, 0, 64, 28
1, 41718, Note_on_c, 0, 70, 71
1, 41738, Note_off_c, 0, 72, 62
1, 41847, Control_c, 0, 64, 30
1, 41896, Note_on_c, 0, 52, 41
1, 41974, Control_c, 0, 64, 28
1, 42013, Note_off_c, 0, 52, 58
1, 42040, Note_off_c, 0, 70, 58
1, 42069, Note_on_c, 0, 67, 52
1, 42114, Note_off_c, 0, 67, 59
1, 42251, Note_on_c, 0, 70, 47
1, 42258, Note_on_c, 0, 53, 28
1, 42353, Note_off_c, 0, 53, 51
1, 42423, Note_off_c, 0, 70, 57
1, 42438, Note_on_c, 0, 69, 45
1, 42609, Note_on_c, 0, 50, 31
1, 42725, Note_off_c, 0, 50, 50
1, 42766, Note_off_c, 0, 69, 53
1, 42792, Note_on_c, 0, 65, 48
1, 42947, Note_on_c, 0, 48, 32
1, 42948, Note_off_c, 0, 65, 65
1, 42973, Note_on_c, 0, 64, 50
1, 43023, Note_off_c, 0, 64, 64
1, 43050, Note_on_c, 0, 65, 59
1, 43109, Control_c, 0, 64, 27
1, 43122, Note_off_c, 0, 65, 63
1, 43128, Note_on_c, 0, 67, 67
1, 43205, Note_off_c, 0, 67, 64
1, 43207, Note_on_c, 0, 69, 74
1, 43228, Note_off_c, 0, 48, 54
1, 43280, Note_off_c, 0, 69, 63
1, 43287, Note_on_c, 0, 71, 70
1, 43369, Note_off_c, 0, 71, 65
1, 43372, Note_on_c, 0, 72, 81
1, 43456, Note_off_c, 0, 72, 65
1, 43469, Note_on_c, 0, 71, 72
1, 43501, Control_c, 0, 64, 28
1, 43543, Note_off_c, 0, 71, 65
1, 43545, Control_c, 0, 64, 30
1, 43549, Note_on_c, 0, 72, 79
1, 43560, Control_c, 0, 64, 31
1, 43590, Control_c, 0, 64, 32
1, 43624, Note_on_c, 0, 60, 77
1, 43625, Note_off_c, 0, 72, 51
1, 43634, Note_on_c, 0, 48, 53
1, 43715, Note_off_c, 0, 48, 63
1, 43724, Control_c, 0, 64, 31
1, 43727, Note_on_c, 0, 50, 72
1, 43807, Note_on_c, 0, 46, 73
1, 43808, Note_off_c, 0, 50, 62
1, 43884, Note_off_c, 0, 46, 62
1, 43894, Note_on_c, 0, 48, 72
1, 43932, Control_c, 0, 64, 33
1, 43935, Note_off_c, 0, 60, 62
1, 43947, Control_c, 0, 64, 36
1, 43961, Control_c, 0, 64, 38
1, 43972, Note_on_c, 0, 45, 76
1, 43976, Control_c, 0, 64, 39
1, 43983, Note_off_c, 0, 48, 63
1, 43991, Control_c, 0, 64, 40
1, 44006, Control_c, 0, 64, 38
1, 44021, Control_c, 0, 64, 26
1, 44035, Control_c, 0, 64, 0
1, 44055, Note_on_c, 0, 46, 80
1, 44067, Note_off_c, 0, 45, 64
1, 44139, Note_on_c, 0, 43, 77
1, 44143, Note_off_c, 0, 46, 65
1, 44224, Note_on_c, 0, 45, 71
1, 44270, Note_off_c, 0, 43, 55
1, 44314, Note_on_c, 0, 41, 73
1, 44318, Note_on_c, 0, 72, 92
1, 44322, Note_on_c, 0, 69, 81
1, 44340, Note_off_c, 0, 45, 63
1, 44375, Note_off_c, 0, 41, 65
1, 44691, Note_on_c, 0, 53, 76
1, 44712, Note_off_c, 0, 72, 62
1, 44725, Control_c, 0, 64, 39
1, 44735, Note_off_c, 0, 69, 58
1, 44740, Control_c, 0, 64, 59
1, 44755, Control_c, 0, 64, 64
1, 44770, Control_c, 0, 64, 64
1, 44784, Control_c, 0, 64, 64
1, 44799, Control_c, 0, 64, 63
1, 44814, Control_c, 0, 64, 64
1, 44829, Control_c, 0, 64, 64
1, 44869, Note_on_c, 0, 74, 68
1, 44873, Control_c, 0, 64, 64
1, 44884, Note_off_c, 0, 53, 59
1, 44939, Control_c, 0, 64, 63
1, 44949, Note_on_c, 0, 72, 86
1, 44958, Note_off_c, 0, 74, 59
1, 45043, Control_c, 0, 64, 63
1, 45047, Note_on_c, 0, 70, 83
1, 45057, Control_c, 0, 64, 61
1, 45062, Note_off_c, 0, 72, 59
1, 45072, Control_c, 0, 64, 44
1, 45087, Control_c, 0, 64, 0
1, 45216, Note_off_c, 0, 70, 64
1, 45221, Note_on_c, 0, 69, 74
1, 45247, Note_off_c, 0, 69, 68
1, 45405, Note_on_c, 0, 67, 54
1, 45426, Note_off_c, 0, 67, 59
1, 45566, Note_on_c, 0, 65, 70
1, 45593, Note_off_c, 0, 65, 68
1, 45760, Note_on_c, 0, 65, 77
1, 45954, Note_on_c, 0, 74, 71
1, 45965, Note_off_c, 0, 65, 65
1, 45983, Note_off_c, 0, 74, 64
1, 46217, Note_on_c, 0, 46, 37
1, 46231, Note_on_c, 0, 74, 66
1, 46231, Note_on_c, 0, 65, 51
1, 46234, Note_on_c, 0, 58, 45
1, 46356, Control_c, 0, 64, 48
1, 46371, Control_c, 0, 64, 63
1, 46386, Control_c, 0, 64, 66
1, 46401, Control_c, 0, 64, 66
1, 46437, Control_c, 0, 64, 66
1, 46496, Control_c, 0, 64, 65
1, 46586, Control_c, 0, 64, 65
1, 46600, Control_c, 0, 64, 64
1, 46615, Control_c, 0, 64, 64
1, 46660, Control_c, 0, 64, 63
1, 46674, Control_c, 0, 64, 62
1, 46689, Control_c, 0, 64, 60
1, 46704, Control_c, 0, 64, 57
1, 46719, Control_c, 0, 64, 52
1, 46734, Control_c, 0, 64, 46
1, 46748, Control_c, 0, 64, 44
1, 46751, Note_off_c, 0, 65, 56
1, 46763, Control_c, 0, 64, 43
1, 46778, Control_c, 0, 64, 40
1, 46782, Note_off_c, 0, 74, 64
1, 46788, Note_on_c, 0, 72, 85
1, 46793, Control_c, 0, 64, 36
1, 46807, Control_c, 0, 64, 32
1, 46812, Note_off_c, 0, 58, 38
1, 46822, Control_c, 0, 64, 28
1, 46837, Control_c, 0, 64, 22
1, 46844, Note_off_c, 0, 46, 52
1, 46852, Control_c, 0, 64, 0
1, 46946, Note_on_c, 0, 76, 72
1, 46946, Note_off_c, 0, 72, 65
1, 46968, Note_on_c, 0, 57, 43
1, 47006, Note_off_c, 0, 57, 64
1, 47128, Note_on_c, 0, 77, 66
1, 47131, Note_off_c, 0, 76, 59
1, 47322, Note_on_c, 0, 59, 37
1, 47325, Note_on_c, 0, 62, 42
1, 47490, Note_on_c, 0, 67, 71
1, 47494, Note_off_c, 0, 77, 61
1, 47606, Note_off_c, 0, 59, 33
1, 47615, Note_off_c, 0, 62, 29
1, 47661, Note_off_c, 0, 67, 63
1, 47666, Note_on_c, 0, 69, 70
1, 47671, Note_on_c, 0, 60, 51
1, 47694, Note_off_c, 0, 69, 66
1, 47700, Note_off_c, 0, 60, 55
1, 47843, Note_on_c, 0, 77, 74
1, 48032, Note_on_c, 0, 59, 41
1, 48037, Note_on_c, 0, 62, 45
1, 48179, Note_off_c, 0, 77, 56
1, 48196, Note_on_c, 0, 67, 49
1, 48357, Note_off_c, 0, 62, 35
1, 48362, Note_off_c, 0, 67, 62
1, 48381, Note_on_c, 0, 60, 48
1, 48384, Note_on_c, 0, 69, 46
1, 48384, Note_off_c, 0, 59, 41
1, 48410, Note_off_c, 0, 69, 56
1, 48437, Note_off_c, 0, 60, 54
1, 48556, Note_on_c, 0, 77, 51
1, 48586, Control_c, 0, 64, 12
1, 48738, Note_on_c, 0, 62, 43
1, 48738, Note_off_c, 0, 77, 59
1, 48743, Note_on_c, 0, 72, 61
1, 48744, Control_c, 0, 64, 15
1, 48758, Control_c, 0, 64, 18
1, 48773, Control_c, 0, 64, 20
1, 49089, Note_on_c, 0, 71, 67
1, 49092, Note_off_c, 0, 62, 56
1, 49107, Note_on_c, 0, 64, 45
1, 49109, Note_off_c, 0, 72, 60
1, 49113, Control_c, 0, 64, 18
1, 49261, Note_on_c, 0, 70, 74
1, 49279, Note_off_c, 0, 71, 60
1, 49391, Note_off_c, 0, 64, 56
1, 49424, Note_off_c, 0, 70, 64
1, 49436, Note_on_c, 0, 65, 46
1, 49437, Note_on_c, 0, 69, 63
1, 49463, Note_off_c, 0, 69, 64
1, 49491, Control_c, 0, 64, 15
1, 49552, Control_c, 0, 64, 12
1, 49581, Control_c, 0, 64, 0
1, 49632, Note_on_c, 0, 69, 73
1, 49655, Control_c, 0, 64, 12
1, 49685, Control_c, 0, 64, 15
1, 49729, Note_off_c, 0, 65, 55
1, 49788, Control_c, 0, 64, 18
1, 49812, Note_on_c, 0, 70, 83
1, 49850, Note_off_c, 0, 69, 59
1, 49936, Control_c, 0, 64, 20
1, 49980, Note_on_c, 0, 72, 81
1, 50011, Note_off_c, 0, 70, 62
1, 50040, Control_c, 0, 64, 18
1, 50133, Note_on_c, 0, 73, 65
1, 50142, Note_off_c, 0, 72, 62
1, 50158, Control_c, 0, 64, 15
1, 50174, Note_on_c, 0, 74, 81
1, 50195, Control_c, 0, 64, 12
1, 50201, Note_off_c, 0, 73, 62
1, 50225, Control_c, 0, 64, 0
1, 50328, Note_on_c, 0, 50, 72
1, 50405, Note_off_c, 0, 74, 64
1, 50419, Control_c, 0, 64, 15
1, 50434, Control_c, 0, 64, 26
1, 50448, Control_c, 0, 64, 32
1, 50463, Control_c, 0, 64, 33
1, 50478, Control_c, 0, 64, 0
1, 50491, Note_off_c, 0, 50, 64
1, 50501, Note_on_c, 0, 62, 82
1, 50528, Note_off_c, 0, 62, 64
1, 50663, Note_on_c, 0, 76, 85
1, 50666, Note_on_c, 0, 60, 79
1, 50689, Note_off_c, 0, 60, 69
1, 50745, Note_off_c, 0, 76, 61
1, 50746, Note_on_c, 0, 78, 79
1, 50822, Note_on_c, 0, 58, 73
1, 50824, Note_on_c, 0, 79, 79
1, 50830, Note_off_c, 0, 78, 64
1, 50847, Note_off_c, 0, 58, 69
1, 50901, Note_on_c, 0, 81, 87
1, 50901, Note_off_c, 0, 79, 62
1, 50996, Note_on_c, 0, 46, 62
1, 50997, Note_on_c, 0, 82, 70
1, 51002, Note_off_c, 0, 81, 66
1, 51029, Note_off_c, 0, 46, 65
1, 51054, Note_off_c, 0, 82, 59
1, 51060, Note_on_c, 0, 81, 73
1, 51148, Note_off_c, 0, 81, 61
1, 51154, Note_on_c, 0, 58, 75
1, 51158, Note_on_c, 0, 79, 75
1, 51232, Note_off_c, 0, 79, 62
1, 51242, Note_on_c, 0, 81, 80
1, 51309, Note_off_c, 0, 81, 63
1, 51316, Note_off_c, 0, 58, 64
1, 51318, Note_on_c, 0, 57, 71
1, 51318, Note_on_c, 0, 77, 76
1, 51344, Note_off_c, 0, 57, 67
1, 51391, Note_off_c, 0, 77, 61
1, 51397, Note_on_c, 0, 79, 76
1, 51457, Note_off_c, 0, 79, 61
1, 51479, Note_on_c, 0, 76, 72
1, 51483, Note_on_c, 0, 55, 63
1, 51512, Note_off_c, 0, 55, 65
1, 51542, Note_off_c, 0, 76, 63
1, 51552, Note_on_c, 0, 77, 72
1, 51616, Note_off_c, 0, 77, 60
1, 51635, Note_on_c, 0, 74, 67
1, 51638, Note_on_c, 0, 53, 57
1, 51671, Note_off_c, 0, 53, 61
1, 51705, Note_off_c, 0, 74, 62
1, 51719, Note_on_c, 0, 76, 68
1, 51790, Note_off_c, 0, 76, 61
1, 51805, Note_on_c, 0, 72, 72
1, 51811, Note_on_c, 0, 52, 52
1, 51836, Note_off_c, 0, 52, 59
1, 51868, Note_off_c, 0, 72, 60
1, 51895, Note_on_c, 0, 74, 59
1, 51948, Note_off_c, 0, 74, 58
1, 51974, Note_on_c, 0, 70, 62
1, 51975, Note_on_c, 0, 48, 50
1, 52013, Note_off_c, 0, 48, 59
1, 52025, Note_off_c, 0, 70, 55
1, 52055, Note_on_c, 0, 72, 66
1, 52093, Note_off_c, 0, 72, 65
1, 52142, Note_on_c, 0, 69, 47
1, 52148, Note_on_c, 0, 53, 47
1, 52190, Note_off_c, 0, 69, 63
1, 52209, Note_on_c, 0, 70, 64
1, 52223, Note_off_c, 0, 53, 62
1, 52278, Note_off_c, 0, 70, 61
1, 52297, Note_on_c, 0, 72, 74
1, 52346, Note_off_c, 0, 72, 56
1, 52377, Note_on_c, 0, 74, 72
1, 52459, Note_on_c, 0, 45, 75
1, 52465, Note_on_c, 0, 76, 80
1, 52467, Note_off_c, 0, 74, 64
1, 52521, Note_off_c, 0, 45, 63
1, 52541, Note_off_c, 0, 76, 64
1, 52544, Note_on_c, 0, 77, 79
1, 52622, Note_on_c, 0, 76, 80
1, 52624, Note_off_c, 0, 77, 64
1, 52696, Note_off_c, 0, 76, 64
1, 52701, Note_on_c, 0, 77, 79
1, 52778, Note_on_c, 0, 46, 65
1, 52783, Note_off_c, 0, 77, 65
1, 52784, Note_on_c, 0, 79, 81
1, 52859, Note_off_c, 0, 46, 64
1, 52868, Note_on_c, 0, 77, 72
1, 52882, Note_off_c, 0, 79, 55
1, 52938, Note_on_c, 0, 76, 78
1, 53006, Note_off_c, 0, 77, 59
1, 53013, Note_off_c, 0, 76, 65
1, 53027, Note_on_c, 0, 74, 68
1, 53090, Note_on_c, 0, 58, 66
1, 53094, Note_off_c, 0, 74, 64
1, 53103, Note_on_c, 0, 76, 68
1, 53184, Note_off_c, 0, 58, 62
1, 53185, Note_off_c, 0, 76, 65
1, 53188, Note_on_c, 0, 74, 67
1, 53239, Note_off_c, 0, 74, 62
1, 53266, Note_on_c, 0, 72, 75
1, 53338, Note_off_c, 0, 72, 64
1, 53342, Note_on_c, 0, 70, 67
1, 53438, Note_off_c, 0, 70, 59
1, 53451, Note_on_c, 0, 60, 38
1, 53454, Note_on_c, 0, 69, 56
1, 53707, Note_off_c, 0, 69, 37
1, 53708, Note_off_c, 0, 60, 34
1, 53784, Note_on_c, 0, 67, 56
1, 53785, Note_on_c, 0, 48, 45
1, 53805, Note_on_c, 0, 64, 44
1, 53815, Note_off_c, 0, 67, 65
1, 53826, Note_on_c, 0, 69, 59
1, 53828, Note_off_c, 0, 48, 62
1, 53862, Note_off_c, 0, 69, 65
1, 53887, Note_on_c, 0, 67, 58
1, 53895, Note_off_c, 0, 64, 42
1, 53924, Note_off_c, 0, 67, 65
1, 53942, Note_on_c, 0, 69, 61
1, 53972, Note_off_c, 0, 69, 66
1, 53985, Note_on_c, 0, 67, 69
1, 54012, Note_off_c, 0, 67, 65
1, 54028, Note_on_c, 0, 65, 63
1, 54068, Note_off_c, 0, 65, 62
1, 54076, Note_on_c, 0, 67, 66
1, 54122, Note_off_c, 0, 67, 57
1, 54159, Note_on_c, 0, 53, 38
1, 54160, Note_on_c, 0, 65, 65
1, 54214, Note_on_c, 0, 60, 55
1, 54214, Note_off_c, 0, 53, 58
1, 54279, Note_off_c, 0, 60, 47
1, 54306, Note_on_c, 0, 59, 58
1, 54368, Note_off_c, 0, 59, 58
1, 54383, Note_off_c, 0, 65, 60
1, 54390, Note_on_c, 0, 60, 63
1, 54476, Note_off_c, 0, 60, 60
1, 54476, Note_on_c, 0, 62, 67
1, 54534, Note_off_c, 0, 62, 58
1, 54573, Note_on_c, 0, 60, 65
1, 54633, Note_off_c, 0, 60, 43
1, 54654, Note_on_c, 0, 59, 61
1, 54703, Note_off_c, 0, 59, 59
1, 54748, Note_on_c, 0, 60, 57
1, 54809, Note_off_c, 0, 60, 55
1, 54827, Note_on_c, 0, 58, 59
1, 54861, Note_off_c, 0, 58, 63
1, 54926, Note_on_c, 0, 60, 44
1, 54956, Note_off_c, 0, 60, 53
1, 55004, Note_on_c, 0, 57, 45
1, 55036, Note_off_c, 0, 57, 57
1, 55067, Note_on_c, 0, 60, 44
1, 55159, Note_off_c, 0, 60, 59
1, 55167, Note_on_c, 0, 55, 55
1, 55201, Note_off_c, 0, 55, 64
1, 55247, Note_on_c, 0, 60, 52
1, 55301, Note_off_c, 0, 60, 53
1, 55332, Note_on_c, 0, 53, 56
1, 55373, Note_off_c, 0, 53, 63
1, 55419, Note_on_c, 0, 60, 59
1, 55500, Note_on_c, 0, 82, 86
1, 55504, Note_off_c, 0, 60, 55
1, 55509, Note_on_c, 0, 52, 54
1, 55579, Note_off_c, 0, 52, 59
1, 55613, Note_on_c, 0, 60, 45
1, 55654, Note_off_c, 0, 60, 57
1, 55665, Note_off_c, 0, 82, 65
1, 55668, Note_on_c, 0, 79, 70
1, 55682, Note_on_c, 0, 55, 53
1, 55690, Note_off_c, 0, 79, 67
1, 55721, Note_off_c, 0, 55, 62
1, 55755, Note_on_c, 0, 60, 50
1, 55815, Note_off_c, 0, 60, 54
1, 55843, Note_on_c, 0, 76, 72
1, 55844, Note_on_c, 0, 58, 52
1, 55868, Note_off_c, 0, 76, 69
1, 55886, Note_off_c, 0, 58, 59
1, 55927, Note_on_c, 0, 60, 56
1, 55972, Note_off_c, 0, 60, 59
1, 56006, Note_on_c, 0, 58, 54
1, 56011, Note_on_c, 0, 76, 63
1, 56028, Note_off_c, 0, 76, 65
1, 56048, Note_off_c, 0, 58, 59
1, 56081, Note_on_c, 0, 60, 52
1, 56150, Note_off_c, 0, 60, 50
1, 56180, Note_on_c, 0, 82, 59
1, 56187, Note_on_c, 0, 52, 48
1, 56262, Note_off_c, 0, 52, 59
1, 56280, Note_on_c, 0, 60, 49
1, 56337, Note_off_c, 0, 60, 57
1, 56346, Note_off_c, 0, 82, 66
1, 56351, Note_on_c, 0, 79, 58
1, 56369, Note_off_c, 0, 79, 63
1, 56370, Note_on_c, 0, 55, 40
1, 56402, Note_off_c, 0, 55, 57
1, 56446, Note_on_c, 0, 60, 58
1, 56490, Note_off_c, 0, 60, 58
1, 56517, Note_on_c, 0, 58, 60
1, 56517, Note_on_c, 0, 76, 69
1, 56542, Note_off_c, 0, 76, 69
1, 56566, Note_off_c, 0, 58, 53
1, 56598, Note_on_c, 0, 60, 54
1, 56652, Note_off_c, 0, 60, 51
1, 56673, Note_on_c, 0, 58, 61
1, 56673, Note_on_c, 0, 76, 81
1, 56698, Note_off_c, 0, 76, 68
1, 56722, Note_off_c, 0, 58, 57
1, 56759, Note_on_c, 0, 60, 62
1, 56811, Note_off_c, 0, 60, 50
1, 56834, Note_on_c, 0, 77, 82
1, 56835, Note_on_c, 0, 57, 63
1, 56863, Note_off_c, 0, 77, 62
1, 56875, Note_off_c, 0, 57, 57
1, 56922, Note_on_c, 0, 60, 64
1, 56977, Note_off_c, 0, 60, 51
1, 57002, Note_on_c, 0, 79, 87
1, 57005, Note_on_c, 0, 52, 64
1, 57028, Note_off_c, 0, 79, 65
1, 57068, Note_off_c, 0, 52, 55
1, 57083, Note_on_c, 0, 60, 64
1, 57150, Note_off_c, 0, 60, 58
1, 57157, Note_on_c, 0, 81, 93
1, 57171, Note_on_c, 0, 53, 62
1, 57182, Note_off_c, 0, 81, 65
1, 57204, Note_off_c, 0, 53, 63
1, 57253, Note_on_c, 0, 60, 57
1, 57298, Note_off_c, 0, 60, 57
1, 57323, Note_on_c, 0, 82, 84
1, 57341, Note_on_c, 0, 55, 45
1, 57365, Note_off_c, 0, 82, 66
1, 57368, Note_off_c, 0, 55, 56
1, 57402, Note_on_c, 0, 60, 57
1, 57485, Note_off_c, 0, 60, 53
1, 57487, Note_on_c, 0, 83, 84
1, 57502, Note_on_c, 0, 56, 52
1, 57554, Note_off_c, 0, 56, 58
1, 57599, Note_on_c, 0, 60, 54
1, 57641, Note_off_c, 0, 60, 59
1, 57664, Note_on_c, 0, 84, 80
1, 57669, Note_off_c, 0, 83, 67
1, 57680, Note_on_c, 0, 57, 58
1, 57689, Note_off_c, 0, 84, 67
1, 57719, Note_off_c, 0, 57, 60
1, 57751, Note_on_c, 0, 60, 51
1, 57820, Note_off_c, 0, 60, 51
1, 57838, Note_on_c, 0, 56, 60
1, 57838, Note_on_c, 0, 83, 88
1, 57873, Note_off_c, 0, 56, 63
1, 57929, Note_on_c, 0, 60, 55
1, 57973, Note_off_c, 0, 60, 59
1, 58001, Note_off_c, 0, 83, 68
1, 58007, Note_on_c, 0, 57, 54
1, 58008, Note_on_c, 0, 84, 62
1, 58035, Note_off_c, 0, 84, 66
1, 58047, Note_off_c, 0, 57, 60
1, 58077, Note_on_c, 0, 60, 56
1, 58129, Note_off_c, 0, 60, 52
1, 58181, Note_on_c, 0, 52, 46
1, 58189, Note_on_c, 0, 82, 56
1, 58242, Note_off_c, 0, 52, 58
1, 58267, Note_on_c, 0, 60, 44
1, 58330, Note_off_c, 0, 60, 55
1, 58342, Note_off_c, 0, 82, 64
1, 58355, Note_on_c, 0, 79, 56
1, 58363, Note_on_c, 0, 55, 42
1, 58377, Note_off_c, 0, 79, 64
1, 58419, Note_off_c, 0, 55, 59
1, 58454, Note_on_c, 0, 60, 45
1, 58499, Note_off_c, 0, 60, 52
1, 58527, Note_on_c, 0, 76, 58
1, 58533, Note_on_c, 0, 58, 51
1, 58552, Note_off_c, 0, 76, 66
1, 58582, Note_off_c, 0, 58, 58
1, 58606, Note_on_c, 0, 60, 47
1, 58662, Note_off_c, 0, 60, 53
1, 58691, Note_on_c, 0, 76, 63
1, 58692, Note_on_c, 0, 58, 53
1, 58712, Note_off_c, 0, 76, 66
1, 58736, Note_off_c, 0, 58, 59
1, 58780, Note_on_c, 0, 60, 48
1, 58827, Note_off_c, 0, 60, 54
1, 58858, Note_on_c, 0, 82, 53
1, 58867, Note_on_c, 0, 52, 39
1, 58942, Note_off_c, 0, 52, 54
1, 58962, Note_on_c, 0, 60, 40
1, 59018, Note_off_c, 0, 60, 59
1, 59031, Note_on_c, 0, 79, 62
1, 59033, Note_off_c, 0, 82, 66
1, 59040, Note_on_c, 0, 55, 42
1, 59050, Note_off_c, 0, 79, 65
1, 59089, Note_off_c, 0, 55, 57
1, 59121, Note_on_c, 0, 60, 55
1, 59177, Note_off_c, 0, 60, 55
1, 59201, Note_on_c, 0, 76, 67
1, 59210, Note_on_c, 0, 58, 57
1, 59227, Note_off_c, 0, 76, 68
1, 59250, Note_off_c, 0, 58, 59
1, 59285, Note_on_c, 0, 60, 55
1, 59335, Note_off_c, 0, 60, 52
1, 59362, Note_on_c, 0, 76, 78
1, 59368, Note_on_c, 0, 58, 61
1, 59388, Note_off_c, 0, 76, 66
1, 59412, Note_off_c, 0, 58, 58
1, 59442, Note_on_c, 0, 60, 66
1, 59521, Note_off_c, 0, 60, 58
1, 59522, Note_on_c, 0, 77, 81
1, 59529, Note_on_c, 0, 57, 67
1, 59552, Note_off_c, 0, 77, 62
1, 59576, Note_off_c, 0, 57, 53
1, 59611, Note_on_c, 0, 60, 59
1, 59672, Note_off_c, 0, 60, 53
1, 59681, Note_on_c, 0, 79, 85
1, 59694, Note_on_c, 0, 52, 64
1, 59713, Note_off_c, 0, 79, 61
1, 59758, Note_off_c, 0, 52, 59
1, 59773, Note_on_c, 0, 60, 66
1, 59830, Note_off_c, 0, 60, 54
1, 59833, Note_on_c, 0, 81, 99
1, 59855, Note_on_c, 0, 53, 63
1, 59870, Note_off_c, 0, 81, 62
1, 59893, Note_off_c, 0, 53, 61
1, 59936, Note_on_c, 0, 60, 68
1, 60003, Note_off_c, 0, 60, 53
1, 60009, Note_on_c, 0, 82, 87
1, 60021, Note_on_c, 0, 55, 63
1, 60050, Note_off_c, 0, 82, 67
1, 60053, Note_off_c, 0, 55, 64
1, 60092, Note_on_c, 0, 60, 62
1, 60178, Note_on_c, 0, 83, 84
1, 60184, Note_on_c, 0, 56, 62
1, 60188, Note_off_c, 0, 60, 57
1, 60244, Note_off_c, 0, 56, 61
1, 60274, Note_on_c, 0, 60, 53
1, 60345, Note_off_c, 0, 60, 52
1, 60348, Note_on_c, 0, 84, 81
1, 60355, Note_off_c, 0, 83, 67
1, 60367, Note_on_c, 0, 57, 57
1, 60381, Note_off_c, 0, 84, 63
1, 60406, Note_off_c, 0, 57, 59
1, 60447, Note_on_c, 0, 60, 43
1, 60518, Note_off_c, 0, 60, 58
1, 60524, Note_on_c, 0, 83, 71
1, 60527, Note_on_c, 0, 56, 53
1, 60577, Note_off_c, 0, 56, 55
1, 60629, Note_on_c, 0, 60, 42
1, 60679, Note_off_c, 0, 60, 48
1, 60697, Note_off_c, 0, 83, 60
1, 60709, Note_on_c, 0, 84, 49
1, 60721, Note_on_c, 0, 57, 37
1, 60737, Note_off_c, 0, 84, 57
1, 60768, Note_off_c, 0, 57, 63
1, 60927, Note_on_c, 0, 86, 33
1, 60955, Note_on_c, 0, 74, 18
1, 61108, Control_c, 0, 64, 35
1, 61123, Control_c, 0, 64, 58
1, 61132, Note_on_c, 0, 58, 29
1, 61138, Control_c, 0, 64, 64
1, 61152, Control_c, 0, 64, 67
1, 61167, Control_c, 0, 64, 72
1, 61182, Control_c, 0, 64, 77
1, 61197, Control_c, 0, 64, 82
1, 61212, Control_c, 0, 64, 87
1, 61226, Control_c, 0, 64, 89
1, 61241, Control_c, 0, 64, 91
1, 61256, Control_c, 0, 64, 92
1, 61261, Note_off_c, 0, 86, 43
1, 61271, Control_c, 0, 64, 93
1, 61299, Note_off_c, 0, 58, 43
1, 61302, Note_on_c, 0, 57, 38
1, 61324, Note_off_c, 0, 74, 56
1, 61427, Control_c, 0, 64, 92
1, 61441, Control_c, 0, 64, 92
1, 61456, Control_c, 0, 64, 91
1, 61471, Control_c, 0, 64, 90
1, 61482, Note_on_c, 0, 58, 43
1, 61484, Note_off_c, 0, 57, 31
1, 61487, Control_c, 0, 64, 90
1, 61502, Control_c, 0, 64, 89
1, 61517, Control_c, 0, 64, 89
1, 61521, Note_off_c, 0, 58, 61
1, 61531, Control_c, 0, 64, 88
1, 61546, Control_c, 0, 64, 88
1, 61561, Control_c, 0, 64, 87
1, 61575, Control_c, 0, 64, 86
1, 61590, Control_c, 0, 64, 86
1, 61605, Control_c, 0, 64, 85
1, 61620, Control_c, 0, 64, 84
1, 61635, Control_c, 0, 64, 83
1, 61649, Control_c, 0, 64, 83
1, 61664, Control_c, 0, 64, 82
1, 61669, Note_on_c, 0, 76, 49
1, 61679, Control_c, 0, 64, 80
1, 61680, Note_on_c, 0, 64, 41
1, 61694, Control_c, 0, 64, 78
1, 61709, Control_c, 0, 64, 74
1, 61723, Control_c, 0, 64, 68
1, 61738, Control_c, 0, 64, 62
1, 61753, Control_c, 0, 64, 32
1, 61768, Control_c, 0, 64, 24
1, 61844, Note_on_c, 0, 60, 38
1, 61857, Control_c, 0, 64, 31
1, 61872, Control_c, 0, 64, 41
1, 61887, Control_c, 0, 64, 50
1, 61901, Control_c, 0, 64, 57
1, 61916, Control_c, 0, 64, 62
1, 61931, Control_c, 0, 64, 64
1, 61946, Control_c, 0, 64, 66
1, 61952, Note_off_c, 0, 64, 58
1, 61961, Control_c, 0, 64, 68
1, 61975, Control_c, 0, 64, 71
1, 61990, Control_c, 0, 64, 73
1, 62005, Control_c, 0, 64, 75
1, 62017, Note_on_c, 0, 59, 42
1, 62020, Control_c, 0, 64, 75
1, 62022, Note_off_c, 0, 60, 36
1, 62049, Control_c, 0, 64, 76
1, 62059, Note_off_c, 0, 76, 59
1, 62064, Control_c, 0, 64, 76
1, 62079, Control_c, 0, 64, 77
1, 62173, Note_off_c, 0, 59, 55
1, 62197, Note_on_c, 0, 60, 38
1, 62205, Control_c, 0, 64, 76
1, 62220, Control_c, 0, 64, 76
1, 62235, Control_c, 0, 64, 75
1, 62250, Control_c, 0, 64, 75
1, 62265, Control_c, 0, 64, 74
1, 62280, Control_c, 0, 64, 73
1, 62295, Control_c, 0, 64, 72
1, 62325, Control_c, 0, 64, 72
1, 62340, Control_c, 0, 64, 71
1, 62345, Note_off_c, 0, 60, 34
1, 62355, Control_c, 0, 64, 70
1, 62369, Control_c, 0, 64, 69
1, 62382, Note_on_c, 0, 82, 45
1, 62384, Control_c, 0, 64, 68
1, 62387, Note_on_c, 0, 70, 38
1, 62399, Control_c, 0, 64, 67
1, 62414, Control_c, 0, 64, 66
1, 62429, Control_c, 0, 64, 64
1, 62444, Control_c, 0, 64, 63
1, 62459, Control_c, 0, 64, 62
1, 62474, Control_c, 0, 64, 61
1, 62488, Control_c, 0, 64, 60
1, 62503, Control_c, 0, 64, 57
1, 62518, Control_c, 0, 64, 55
1, 62532, Control_c, 0, 64, 53
1, 62569, Note_on_c, 0, 61, 29
1, 62577, Control_c, 0, 64, 53
1, 62592, Control_c, 0, 64, 52
1, 62636, Control_c, 0, 64, 53
1, 62651, Control_c, 0, 64, 56
1, 62666, Control_c, 0, 64, 59
1, 62680, Control_c, 0, 64, 61
1, 62695, Control_c, 0, 64, 63
1, 62710, Control_c, 0, 64, 64
1, 62724, Control_c, 0, 64, 64
1, 62736, Note_off_c, 0, 61, 46
1, 62739, Control_c, 0, 64, 65
1, 62744, Note_on_c, 0, 59, 29
1, 62754, Control_c, 0, 64, 65
1, 62769, Control_c, 0, 64, 66
1, 62784, Control_c, 0, 64, 68
1, 62799, Control_c, 0, 64, 68
1, 62828, Control_c, 0, 64, 68
1, 62858, Control_c, 0, 64, 67
1, 62873, Control_c, 0, 64, 67
1, 62888, Control_c, 0, 64, 66
1, 62918, Note_off_c, 0, 59, 45
1, 62922, Note_on_c, 0, 61, 38
1, 62973, Note_off_c, 0, 61, 59
1, 62999, Control_c, 0, 64, 66
1, 63075, Note_off_c, 0, 70, 44
1, 63081, Note_off_c, 0, 82, 37
1, 63106, Note_on_c, 0, 81, 48
1, 63124, Note_on_c, 0, 69, 36
1, 63148, Control_c, 0, 64, 65
1, 63162, Control_c, 0, 64, 65
1, 63177, Control_c, 0, 64, 64
1, 63192, Control_c, 0, 64, 63
1, 63207, Control_c, 0, 64, 61
1, 63222, Control_c, 0, 64, 55
1, 63237, Control_c, 0, 64, 44
1, 63252, Control_c, 0, 64, 42
1, 63267, Control_c, 0, 64, 42
1, 63269, Note_on_c, 0, 62, 42
1, 63282, Control_c, 0, 64, 47
1, 63296, Control_c, 0, 64, 52
1, 63311, Control_c, 0, 64, 57
1, 63326, Control_c, 0, 64, 60
1, 63341, Control_c, 0, 64, 63
1, 63355, Control_c, 0, 64, 65
1, 63370, Control_c, 0, 64, 67
1, 63385, Control_c, 0, 64, 70
1, 63400, Control_c, 0, 64, 72
1, 63415, Control_c, 0, 64, 73
1, 63417, Note_off_c, 0, 69, 41
1, 63428, Note_off_c, 0, 62, 49
1, 63439, Note_on_c, 0, 61, 47
1, 63444, Control_c, 0, 64, 73
1, 63459, Control_c, 0, 64, 72
1, 63473, Control_c, 0, 64, 72
1, 63478, Note_off_c, 0, 81, 60
1, 63488, Control_c, 0, 64, 71
1, 63503, Control_c, 0, 64, 70
1, 63518, Control_c, 0, 64, 69
1, 63533, Control_c, 0, 64, 68
1, 63547, Control_c, 0, 64, 66
1, 63562, Control_c, 0, 64, 65
1, 63577, Control_c, 0, 64, 64
1, 63592, Control_c, 0, 64, 63
1, 63601, Note_off_c, 0, 61, 59
1, 63607, Control_c, 0, 64, 62
1, 63616, Note_on_c, 0, 62, 46
1, 63621, Control_c, 0, 64, 62
1, 63636, Control_c, 0, 64, 61
1, 63658, Control_c, 0, 64, 60
1, 63672, Control_c, 0, 64, 58
1, 63687, Control_c, 0, 64, 55
1, 63702, Control_c, 0, 64, 51
1, 63717, Control_c, 0, 64, 48
1, 63732, Control_c, 0, 64, 45
1, 63747, Control_c, 0, 64, 39
1, 63750, Note_off_c, 0, 62, 59
1, 63761, Control_c, 0, 64, 15
1, 63776, Control_c, 0, 64, 0
1, 63791, Note_on_c, 0, 81, 77
1, 63857, Note_off_c, 0, 81, 66
1, 63864, Note_on_c, 0, 79, 74
1, 63934, Note_off_c, 0, 79, 62
1, 63940, Note_on_c, 0, 82, 76
1, 64021, Note_off_c, 0, 82, 65
1, 64023, Note_on_c, 0, 81, 85
1, 64060, Note_on_c, 0, 58, 33
1, 64083, Note_on_c, 0, 67, 49
1, 64085, Note_off_c, 0, 81, 65
1, 64095, Note_on_c, 0, 84, 77
1, 64147, Note_off_c, 0, 67, 57
1, 64163, Note_off_c, 0, 58, 54
1, 64172, Note_on_c, 0, 82, 71
1, 64176, Note_off_c, 0, 84, 64
1, 64249, Note_off_c, 0, 82, 66
1, 64252, Note_on_c, 0, 81, 80
1, 64325, Note_off_c, 0, 81, 65
1, 64334, Note_on_c, 0, 79, 73
1, 64432, Note_off_c, 0, 79, 63
1, 64442, Note_on_c, 0, 77, 67
1, 64446, Note_on_c, 0, 60, 36
1, 64452, Note_on_c, 0, 69, 47
1, 64757, Note_off_c, 0, 60, 36
1, 64793, Note_on_c, 0, 70, 47
1, 64799, Note_on_c, 0, 76, 56
1, 64805, Note_off_c, 0, 77, 53
1, 64842, Note_off_c, 0, 69, 36
1, 64942, Note_off_c, 0, 76, 51
1, 65076, Note_off_c, 0, 70, 39
1, 65155, Note_on_c, 0, 65, 32
1, 65159, Note_on_c, 0, 69, 29
1, 65331, Note_on_c, 0, 77, 46
1, 65481, Note_off_c, 0, 77, 56
1, 65493, Note_on_c, 0, 76, 47
1, 65498, Note_off_c, 0, 65, 41
1, 65511, Note_off_c, 0, 69, 40
1, 65663, Note_off_c, 0, 76, 53
1, 65673, Note_on_c, 0, 77, 25
1, 65713, Note_off_c, 0, 77, 51
1, 65833, Note_on_c, 0, 69, 29
1, 65842, Note_on_c, 0, 65, 22
1, 66015, Note_on_c, 0, 75, 53
1, 66040, Note_off_c, 0, 69, 53
1, 66078, Note_off_c, 0, 65, 60
1, 66182, Note_on_c, 0, 74, 56
1, 66206, Note_off_c, 0, 75, 53
1, 66365, Note_on_c, 0, 75, 42
1, 66369, Note_off_c, 0, 74, 63
1, 66413, Note_off_c, 0, 75, 65
1, 66500, Note_on_c, 0, 54, 31
1, 66521, Note_on_c, 0, 60, 38
1, 66525, Note_on_c, 0, 57, 37
1, 66698, Note_on_c, 0, 74, 71
1, 66830, Note_off_c, 0, 74, 63
1, 66866, Note_on_c, 0, 86, 61
1, 66893, Note_off_c, 0, 86, 67
1, 67048, Note_on_c, 0, 86, 72
1, 67086, Note_off_c, 0, 86, 65
1, 67218, Note_off_c, 0, 57, 36
1, 67225, Note_on_c, 0, 55, 49
1, 67225, Note_on_c, 0, 58, 60
1, 67228, Note_off_c, 0, 60, 54
1, 67263, Note_off_c, 0, 54, 46
1, 67402, Note_on_c, 0, 86, 76
1, 67543, Note_off_c, 0, 86, 62
1, 67568, Note_on_c, 0, 74, 59
1, 67582, Note_off_c, 0, 55, 63
1, 67592, Note_off_c, 0, 58, 53
1, 67596, Note_off_c, 0, 74, 66
1, 67744, Note_on_c, 0, 74, 57
1, 67778, Note_off_c, 0, 74, 66
1, 67909, Note_on_c, 0, 52, 37
1, 67932, Note_on_c, 0, 58, 39
1, 67944, Note_on_c, 0, 55, 27
1, 68076, Note_on_c, 0, 72, 69
1, 68215, Note_off_c, 0, 72, 60
1, 68254, Note_on_c, 0, 84, 57
1, 68283, Note_off_c, 0, 84, 65
1, 68427, Note_on_c, 0, 84, 65
1, 68453, Note_off_c, 0, 84, 67
1, 68601, Note_off_c, 0, 52, 41
1, 68602, Note_off_c, 0, 55, 41
1, 68608, Note_on_c, 0, 53, 39
1, 68611, Note_on_c, 0, 57, 36
1, 68614, Note_off_c, 0, 58, 42
1, 68784, Note_on_c, 0, 84, 38
1, 68874, Note_off_c, 0, 57, 40
1, 68925, Note_off_c, 0, 53, 48
1, 68956, Note_off_c, 0, 84, 48
1, 68974, Note_on_c, 0, 72, 49
1, 69000, Note_off_c, 0, 72, 58
1, 69123, Note_on_c, 0, 72, 62
1, 69168, Note_off_c, 0, 72, 64
1, 69294, Note_on_c, 0, 73, 63
1, 69461, Note_on_c, 0, 74, 64
1, 69494, Note_off_c, 0, 73, 60
1, 69611, Note_on_c, 0, 47, 40
1, 69629, Note_on_c, 0, 55, 47
1, 69645, Note_on_c, 0, 76, 65
1, 69664, Note_off_c, 0, 74, 62
1, 69738, Note_off_c, 0, 47, 54
1, 69795, Note_off_c, 0, 76, 62
1, 69798, Note_on_c, 0, 77, 70
1, 69956, Note_off_c, 0, 77, 60
1, 69968, Note_on_c, 0, 48, 36
1, 69978, Note_off_c, 0, 55, 53
1, 69980, Note_on_c, 0, 65, 59
1, 69992, Note_on_c, 0, 57, 43
1, 70245, Note_off_c, 0, 48, 25
1, 70311, Note_off_c, 0, 65, 53
1, 70317, Note_on_c, 0, 69, 49
1, 70322, Note_on_c, 0, 58, 46
1, 70333, Note_on_c, 0, 64, 49
1, 70345, Note_off_c, 0, 57, 45
1, 70472, Note_off_c, 0, 69, 55
1, 70483, Note_off_c, 0, 64, 51
1, 70492, Note_on_c, 0, 67, 55
1, 70629, Note_off_c, 0, 58, 36
1, 70656, Note_off_c, 0, 67, 61
1, 70663, Note_on_c, 0, 53, 38
1, 70665, Note_on_c, 0, 65, 56
1, 70677, Note_on_c, 0, 57, 35
1, 70698, Note_off_c, 0, 65, 65
1, 70713, Note_off_c, 0, 53, 62
1, 70722, Note_off_c, 0, 57, 61
1, 70826, Note_on_c, 0, 65, 57
1, 70881, Note_off_c, 0, 65, 55
1, 70902, Note_on_c, 0, 69, 58
1, 70967, Note_off_c, 0, 69, 62
1, 70984, Note_on_c, 0, 67, 57
1, 71001, Note_on_c, 0, 64, 50
1, 71031, Note_off_c, 0, 67, 59
1, 71062, Note_on_c, 0, 70, 60
1, 71114, Note_off_c, 0, 64, 56
1, 71114, Note_off_c, 0, 70, 51
1, 71153, Note_on_c, 0, 63, 52
1, 71153, Note_on_c, 0, 69, 56
1, 71190, Note_off_c, 0, 69, 65
1, 71193, Note_off_c, 0, 63, 60
1, 71228, Note_on_c, 0, 72, 57
1, 71311, Note_off_c, 0, 72, 65
1, 71321, Note_on_c, 0, 70, 65
1, 71332, Note_on_c, 0, 53, 36
1, 71339, Note_on_c, 0, 62, 40
1, 71348, Note_off_c, 0, 70, 66
1, 71497, Note_off_c, 0, 53, 62
1, 71503, Note_on_c, 0, 65, 62
1, 71524, Note_off_c, 0, 62, 58
1, 71563, Note_off_c, 0, 65, 61
1, 71571, Note_on_c, 0, 69, 70
1, 71647, Note_off_c, 0, 69, 63
1, 71649, Note_on_c, 0, 67, 75
1, 71661, Note_on_c, 0, 64, 68
1, 71714, Note_off_c, 0, 67, 63
1, 71720, Note_on_c, 0, 70, 75
1, 71801, Note_off_c, 0, 70, 63
1, 71804, Note_on_c, 0, 69, 78
1, 71806, Note_off_c, 0, 64, 63
1, 71814, Note_on_c, 0, 63, 71
1, 71846, Note_off_c, 0, 63, 63
1, 71876, Note_off_c, 0, 69, 63
1, 71896, Note_on_c, 0, 72, 77
1, 71980, Note_off_c, 0, 72, 65
1, 71982, Note_on_c, 0, 70, 79
1, 72003, Note_on_c, 0, 53, 50
1, 72007, Note_on_c, 0, 62, 51
1, 72010, Note_off_c, 0, 70, 64
1, 72165, Note_on_c, 0, 65, 66
1, 72182, Note_off_c, 0, 53, 61
1, 72206, Note_off_c, 0, 62, 57
1, 72225, Note_off_c, 0, 65, 58
1, 72242, Note_on_c, 0, 69, 61
1, 72309, Note_off_c, 0, 69, 60
1, 72326, Note_on_c, 0, 67, 59
1, 72335, Note_on_c, 0, 64, 56
1, 72382, Note_off_c, 0, 67, 60
1, 72406, Note_on_c, 0, 70, 54
1, 72459, Note_off_c, 0, 64, 52
1, 72468, Note_off_c, 0, 70, 60
1, 72488, Note_on_c, 0, 69, 54
1, 72496, Note_on_c, 0, 63, 55
1, 72533, Note_off_c, 0, 69, 63
1, 72536, Note_off_c, 0, 63, 60
1, 72556, Note_on_c, 0, 72, 70
1, 72606, Note_off_c, 0, 72, 59
1, 72666, Note_on_c, 0, 70, 65
1, 72667, Note_on_c, 0, 62, 57
1, 72706, Note_off_c, 0, 62, 60
1, 72734, Note_off_c, 0, 70, 34
1, 72749, Note_on_c, 0, 74, 60
1, 72820, Note_off_c, 0, 74, 65
1, 72822, Note_on_c, 0, 57, 64
1, 72825, Note_on_c, 0, 72, 76
1, 72856, Note_off_c, 0, 57, 62
1, 72892, Note_off_c, 0, 72, 64
1, 72895, Note_on_c, 0, 75, 75
1, 72961, Note_off_c, 0, 75, 63
1, 72977, Note_on_c, 0, 58, 73
1, 72978, Note_on_c, 0, 74, 80
1, 73023, Note_off_c, 0, 58, 60
1, 73050, Note_off_c, 0, 74, 46
1, 73059, Note_on_c, 0, 77, 79
1, 73135, Note_off_c, 0, 77, 64
1, 73136, Note_on_c, 0, 76, 81
1, 73150, Note_on_c, 0, 55, 64
1, 73198, Note_off_c, 0, 55, 55
1, 73211, Note_off_c, 0, 76, 65
1, 73214, Note_on_c, 0, 79, 78
1, 73276, Note_off_c, 0, 79, 55
1, 73302, Note_on_c, 0, 77, 74
1, 73306, Note_on_c, 0, 57, 63
1, 73365, Note_off_c, 0, 77, 52
1, 73378, Note_on_c, 0, 79, 78
1, 73463, Note_off_c, 0, 79, 63
1, 73466, Note_on_c, 0, 81, 87
1, 73524, Note_off_c, 0, 57, 59
1, 73543, Note_off_c, 0, 81, 64
1, 73547, Note_on_c, 0, 79, 81
1, 73607, Note_off_c, 0, 79, 62
1, 73622, Note_on_c, 0, 77, 83
1, 73686, Note_off_c, 0, 77, 48
1, 73700, Note_on_c, 0, 75, 79
1, 73766, Note_off_c, 0, 75, 65
1, 73779, Note_on_c, 0, 74, 75
1, 73834, Note_off_c, 0, 74, 52
1, 73848, Note_on_c, 0, 73, 76
1, 73924, Note_off_c, 0, 73, 63
1, 73932, Note_on_c, 0, 58, 49
1, 73932, Note_on_c, 0, 74, 74
1, 74010, Note_off_c, 0, 74, 62
1, 74011, Note_on_c, 0, 72, 83
1, 74049, Note_off_c, 0, 58, 64
1, 74087, Note_on_c, 0, 70, 76
1, 74091, Note_off_c, 0, 72, 64
1, 74175, Note_on_c, 0, 69, 79
1, 74175, Note_off_c, 0, 70, 63
1, 74259, Note_off_c, 0, 69, 63
1, 74260, Note_on_c, 0, 67, 80
1, 74322, Note_off_c, 0, 67, 0
1, 74341, Note_on_c, 0, 65, 79
1, 74341, Poly_aftertouch_c, 0, 67, 0
1, 74407, Note_off_c, 0, 65, 66
1, 74418, Note_on_c, 0, 64, 75
1, 74470, Note_off_c, 0, 64, 65
1, 74481, Note_on_c, 0, 62, 72
1, 74509, Note_off_c, 0, 62, 66
1, 74570, Note_on_c, 0, 48, 52
1, 74579, Note_on_c, 0, 60, 73
1, 74633, Note_off_c, 0, 60, 62
1, 74645, Note_on_c, 0, 65, 77
1, 74726, Note_on_c, 0, 69, 74
1, 74728, Note_off_c, 0, 65, 65
1, 74731, Note_off_c, 0, 48, 59
1, 74749, Note_on_c, 0, 53, 40
1, 74797, Note_off_c, 0, 69, 63
1, 74799, Note_on_c, 0, 72, 83
1, 74823, Note_off_c, 0, 72, 69
1, 74898, Note_on_c, 0, 57, 55
1, 74902, Note_on_c, 0, 77, 75
1, 74906, Note_off_c, 0, 53, 58
1, 74926, Note_off_c, 0, 77, 68
1, 75061, Note_off_c, 0, 57, 56
1, 75074, Note_on_c, 0, 65, 63
1, 75075, Note_on_c, 0, 53, 50
1, 75077, Note_on_c, 0, 69, 60
1, 75098, Note_off_c, 0, 69, 60
1, 75101, Note_off_c, 0, 65, 65
1, 75238, Note_off_c, 0, 53, 52
1, 75249, Note_on_c, 0, 72, 75
1, 75250, Note_on_c, 0, 48, 47
1, 75253, Note_on_c, 0, 69, 61
1, 75411, Note_off_c, 0, 48, 59
1, 75415, Note_on_c, 0, 70, 69
1, 75417, Note_on_c, 0, 55, 52
1, 75417, Note_on_c, 0, 67, 66
1, 75422, Note_off_c, 0, 72, 65
1, 75423, Note_off_c, 0, 69, 62
1, 75443, Note_off_c, 0, 67, 66
1, 75445, Note_off_c, 0, 70, 66
1, 75566, Note_off_c, 0, 55, 51
1, 75589, Note_on_c, 0, 58, 50
1, 75592, Note_on_c, 0, 69, 62
1, 75599, Note_on_c, 0, 65, 56
1, 75628, Note_off_c, 0, 69, 65
1, 75629, Note_off_c, 0, 65, 60
1, 75672, Note_off_c, 0, 58, 46
1, 75755, Note_on_c, 0, 55, 40
1, 75766, Note_on_c, 0, 67, 54
1, 75766, Note_on_c, 0, 64, 49
1, 75787, Note_off_c, 0, 67, 60
1, 75789, Note_off_c, 0, 64, 59
1, 75857, Note_off_c, 0, 55, 48
1, 75876, Control_c, 0, 64, 31
1, 75891, Control_c, 0, 64, 46
1, 75906, Control_c, 0, 64, 54
1, 75921, Control_c, 0, 64, 58
1, 75922, Note_on_c, 0, 53, 41
1, 75927, Note_on_c, 0, 65, 56
1, 75936, Control_c, 0, 64, 59
1, 75941, Note_on_c, 0, 57, 40
1, 75950, Note_off_c, 0, 53, 52
1, 75950, Note_off_c, 0, 65, 61
1, 75965, Note_off_c, 0, 57, 50
1, 75965, Control_c, 0, 64, 58
1, 75980, Control_c, 0, 64, 57
1, 75995, Control_c, 0, 64, 56
1, 76010, Control_c, 0, 64, 54
1, 76025, Control_c, 0, 64, 51
1, 76040, Control_c, 0, 64, 49
1, 76054, Control_c, 0, 64, 48
1, 76069, Control_c, 0, 64, 46
1, 76084, Control_c, 0, 64, 44
1, 76091, Note_on_c, 0, 77, 61
1, 76099, Control_c, 0, 64, 42
1, 76114, Control_c, 0, 64, 39
1, 76121, Note_on_c, 0, 65, 44
1, 76128, Control_c, 0, 64, 37
1, 76143, Control_c, 0, 64, 35
1, 76153, Note_off_c, 0, 77, 58
1, 76158, Control_c, 0, 64, 32
1, 76173, Control_c, 0, 64, 31
1, 76174, Note_on_c, 0, 81, 68
1, 76188, Control_c, 0, 64, 28
1, 76202, Control_c, 0, 64, 26
1, 76217, Control_c, 0, 64, 24
1, 76223, Note_off_c, 0, 81, 60
1, 76232, Control_c, 0, 64, 18
1, 76234, Note_off_c, 0, 65, 55
1, 76247, Control_c, 0, 64, 0
1, 76254, Note_on_c, 0, 79, 60
1, 76258, Note_on_c, 0, 64, 48
1, 76290, Note_off_c, 0, 79, 61
1, 76293, Note_off_c, 0, 64, 66
1, 76332, Note_on_c, 0, 82, 51
1, 76387, Note_off_c, 0, 82, 60
1, 76408, Note_on_c, 0, 63, 58
1, 76416, Note_on_c, 0, 81, 59
1, 76442, Note_off_c, 0, 63, 62
1, 76457, Note_off_c, 0, 81, 59
1, 76508, Note_on_c, 0, 84, 41
1, 76521, Control_c, 0, 64, 24
1, 76535, Control_c, 0, 64, 38
1, 76550, Control_c, 0, 64, 53
1, 76565, Control_c, 0, 64, 60
1, 76576, Note_off_c, 0, 84, 60
1, 76579, Control_c, 0, 64, 64
1, 76594, Note_on_c, 0, 53, 37
1, 76594, Control_c, 0, 64, 65
1, 76598, Note_on_c, 0, 82, 44
1, 76609, Control_c, 0, 64, 67
1, 76614, Note_on_c, 0, 62, 39
1, 76620, Note_off_c, 0, 82, 61
1, 76624, Control_c, 0, 64, 71
1, 76636, Note_off_c, 0, 53, 60
1, 76639, Control_c, 0, 64, 74
1, 76647, Note_off_c, 0, 62, 60
1, 76655, Control_c, 0, 64, 76
1, 76670, Control_c, 0, 64, 78
1, 76684, Control_c, 0, 64, 78
1, 76699, Control_c, 0, 64, 79
1, 76714, Control_c, 0, 64, 79
1, 76768, Note_on_c, 0, 65, 57
1, 76776, Note_on_c, 0, 77, 59
1, 76818, Control_c, 0, 64, 79
1, 76845, Note_off_c, 0, 77, 59
1, 76847, Note_on_c, 0, 81, 70
1, 76848, Control_c, 0, 64, 78
1, 76863, Control_c, 0, 64, 77
1, 76877, Control_c, 0, 64, 75
1, 76892, Control_c, 0, 64, 71
1, 76907, Control_c, 0, 64, 60
1, 76916, Note_off_c, 0, 81, 65
1, 76922, Control_c, 0, 64, 0
1, 76923, Note_on_c, 0, 64, 71
1, 76923, Note_off_c, 0, 65, 66
1, 76926, Note_on_c, 0, 79, 69
1, 76949, Note_off_c, 0, 64, 69
1, 76968, Note_off_c, 0, 79, 55
1, 77003, Note_on_c, 0, 82, 60
1, 77070, Note_off_c, 0, 82, 65
1, 77080, Note_on_c, 0, 81, 77
1, 77083, Note_on_c, 0, 63, 65
1, 77110, Note_off_c, 0, 63, 66
1, 77152, Note_off_c, 0, 81, 65
1, 77162, Note_on_c, 0, 84, 75
1, 77225, Control_c, 0, 64, 47
1, 77240, Control_c, 0, 64, 65
1, 77243, Note_on_c, 0, 82, 79
1, 77247, Note_off_c, 0, 84, 66
1, 77255, Control_c, 0, 64, 72
1, 77265, Note_on_c, 0, 62, 61
1, 77268, Note_on_c, 0, 53, 50
1, 77270, Control_c, 0, 64, 78
1, 77276, Note_off_c, 0, 82, 61
1, 77284, Control_c, 0, 64, 82
1, 77299, Control_c, 0, 64, 83
1, 77301, Note_off_c, 0, 53, 62
1, 77303, Note_off_c, 0, 62, 58
1, 77314, Control_c, 0, 64, 84
1, 77329, Control_c, 0, 64, 84
1, 77413, Note_on_c, 0, 77, 74
1, 77426, Note_on_c, 0, 65, 72
1, 77478, Control_c, 0, 64, 83
1, 77492, Note_on_c, 0, 81, 82
1, 77493, Control_c, 0, 64, 82
1, 77495, Note_off_c, 0, 77, 62
1, 77507, Control_c, 0, 64, 79
1, 77522, Control_c, 0, 64, 75
1, 77537, Control_c, 0, 64, 70
1, 77552, Control_c, 0, 64, 61
1, 77567, Control_c, 0, 64, 0
1, 77570, Note_off_c, 0, 65, 65
1, 77574, Note_off_c, 0, 81, 64
1, 77575, Note_on_c, 0, 64, 66
1, 77579, Note_on_c, 0, 79, 73
1, 77604, Note_off_c, 0, 64, 67
1, 77635, Note_off_c, 0, 79, 62
1, 77648, Note_on_c, 0, 82, 61
1, 77724, Note_off_c, 0, 82, 64
1, 77735, Note_on_c, 0, 63, 55
1, 77738, Note_on_c, 0, 81, 67
1, 77766, Note_off_c, 0, 63, 62
1, 77778, Note_off_c, 0, 81, 63
1, 77819, Note_on_c, 0, 84, 53
1, 77888, Note_off_c, 0, 84, 57
1, 77912, Note_on_c, 0, 82, 53
1, 77917, Note_on_c, 0, 62, 42
1, 77948, Note_off_c, 0, 62, 56
1, 77951, Note_off_c, 0, 82, 66
1, 77992, Note_on_c, 0, 77, 57
1, 78045, Note_off_c, 0, 77, 55
1, 78070, Note_on_c, 0, 84, 74
1, 78078, Note_on_c, 0, 57, 54
1, 78108, Note_off_c, 0, 57, 60
1, 78117, Note_off_c, 0, 84, 60
1, 78155, Note_on_c, 0, 77, 63
1, 78228, Note_on_c, 0, 86, 83
1, 78228, Note_off_c, 0, 77, 59
1, 78237, Note_on_c, 0, 58, 67
1, 78272, Note_off_c, 0, 58, 61
1, 78284, Note_off_c, 0, 86, 62
1, 78308, Note_on_c, 0, 77, 77
1, 78380, Note_on_c, 0, 88, 91
1, 78383, Note_off_c, 0, 77, 57
1, 78385, Note_on_c, 0, 55, 72
1, 78412, Note_off_c, 0, 55, 66
1, 78452, Note_off_c, 0, 88, 66
1, 78466, Note_on_c, 0, 77, 78
1, 78529, Note_off_c, 0, 77, 62
1, 78552, Note_on_c, 0, 89, 87
1, 78560, Note_on_c, 0, 57, 73
1, 78562, Note_on_c, 0, 45, 70
1, 78641, Note_on_c, 0, 88, 75
1, 78654, Note_off_c, 0, 89, 64
1, 78718, Note_on_c, 0, 86, 79
1, 78723, Note_off_c, 0, 88, 66
1, 78781, Note_off_c, 0, 86, 64
1, 78794, Note_on_c, 0, 84, 78
1, 78838, Note_off_c, 0, 57, 60
1, 78859, Note_off_c, 0, 45, 63
1, 78873, Note_on_c, 0, 82, 82
1, 78887, Note_off_c, 0, 84, 64
1, 78953, Note_on_c, 0, 81, 94
1, 78955, Note_off_c, 0, 82, 66
1, 79030, Note_off_c, 0, 81, 66
1, 79036, Note_on_c, 0, 79, 82
1, 79113, Note_on_c, 0, 77, 84
1, 79123, Note_off_c, 0, 79, 60
1, 79195, Note_on_c, 0, 86, 84
1, 79196, Note_off_c, 0, 77, 62
1, 79200, Note_on_c, 0, 58, 77
1, 79200, Note_on_c, 0, 46, 70
1, 79270, Note_on_c, 0, 84, 81
1, 79289, Note_off_c, 0, 86, 63
1, 79352, Note_on_c, 0, 82, 72
1, 79357, Note_off_c, 0, 84, 64
1, 79438, Note_on_c, 0, 81, 87
1, 79439, Note_off_c, 0, 82, 65
1, 79457, Note_off_c, 0, 58, 64
1, 79486, Note_off_c, 0, 46, 61
1, 79511, Note_off_c, 0, 81, 62
1, 79524, Note_on_c, 0, 79, 72
1, 79597, Note_on_c, 0, 77, 77
1, 79600, Note_off_c, 0, 79, 63
1, 79673, Note_off_c, 0, 77, 63
1, 79680, Note_on_c, 0, 76, 72
1, 79732, Note_off_c, 0, 76, 66
1, 79751, Note_on_c, 0, 74, 64
1, 79778, Note_off_c, 0, 74, 67
1, 79852, Note_on_c, 0, 72, 70
1, 79853, Note_on_c, 0, 48, 50
1, 79882, Note_off_c, 0, 72, 66
1, 79933, Note_off_c, 0, 48, 59
1, 79943, Note_on_c, 0, 57, 45
1, 79996, Note_off_c, 0, 57, 61
1, 80020, Note_on_c, 0, 84, 60
1, 80032, Note_on_c, 0, 53, 37
1, 80056, Note_off_c, 0, 84, 64
1, 80087, Note_off_c, 0, 53, 59
1, 80103, Note_on_c, 0, 57, 55
1, 80168, Note_off_c, 0, 57, 51
1, 80189, Note_on_c, 0, 48, 61
1, 80189, Note_on_c, 0, 84, 82
1, 80235, Note_off_c, 0, 84, 65
1, 80241, Note_off_c, 0, 48, 59
1, 80266, Note_on_c, 0, 57, 68
1, 80341, Note_off_c, 0, 57, 62
1, 80346, Note_on_c, 0, 53, 67
1, 80351, Note_on_c, 0, 84, 91
1, 80392, Note_off_c, 0, 84, 64
1, 80406, Note_off_c, 0, 53, 57
1, 80422, Note_on_c, 0, 57, 57
1, 80502, Note_off_c, 0, 57, 53
1, 80520, Note_on_c, 0, 84, 74
1, 80525, Note_on_c, 0, 48, 54
1, 80607, Note_off_c, 0, 48, 61
1, 80613, Note_off_c, 0, 84, 65
1, 80614, Note_on_c, 0, 81, 81
1, 80619, Note_on_c, 0, 57, 57
1, 80685, Note_off_c, 0, 57, 59
1, 80687, Note_off_c, 0, 81, 64
1, 80691, Note_on_c, 0, 77, 71
1, 80699, Note_on_c, 0, 53, 55
1, 80749, Note_off_c, 0, 77, 62
1, 80756, Note_off_c, 0, 53, 58
1, 80764, Note_on_c, 0, 72, 75
1, 80780, Note_on_c, 0, 57, 60
1, 80827, Note_off_c, 0, 72, 64
1, 80852, Note_on_c, 0, 77, 82
1, 80853, Note_off_c, 0, 57, 58
1, 80855, Note_on_c, 0, 48, 66
1, 80920, Note_off_c, 0, 48, 54
1, 80934, Note_off_c, 0, 77, 61
1, 80941, Note_on_c, 0, 72, 80
1, 80944, Note_on_c, 0, 57, 56
1, 81009, Note_on_c, 0, 69, 79
1, 81010, Note_off_c, 0, 72, 65
1, 81014, Note_off_c, 0, 57, 64
1, 81020, Note_on_c, 0, 53, 66
1, 81054, Note_off_c, 0, 53, 62
1, 81075, Note_off_c, 0, 69, 61
1, 81086, Note_on_c, 0, 65, 77
1, 81093, Note_on_c, 0, 57, 63
1, 81127, Note_off_c, 0, 57, 65
1, 81131, Note_off_c, 0, 65, 64
1, 81160, Note_on_c, 0, 48, 67
1, 81162, Note_on_c, 0, 69, 77
1, 81196, Note_off_c, 0, 69, 65
1, 81199, Note_off_c, 0, 48, 61
1, 81211, Note_on_c, 0, 67, 71
1, 81237, Note_on_c, 0, 58, 64
1, 81259, Note_off_c, 0, 67, 59
1, 81265, Note_on_c, 0, 69, 74
1, 81303, Note_off_c, 0, 69, 66
1, 81307, Note_off_c, 0, 58, 63
1, 81314, Note_on_c, 0, 52, 60
1, 81322, Note_on_c, 0, 67, 64
1, 81361, Note_off_c, 0, 67, 66
1, 81365, Note_off_c, 0, 52, 56
1, 81372, Note_on_c, 0, 69, 68
1, 81391, Note_on_c, 0, 58, 54
1, 81406, Note_off_c, 0, 69, 61
1, 81434, Note_on_c, 0, 67, 64
1, 81446, Note_off_c, 0, 58, 61
1, 81460, Note_on_c, 0, 48, 60
1, 81463, Note_off_c, 0, 67, 67
1, 81482, Note_on_c, 0, 69, 64
1, 81517, Note_off_c, 0, 69, 66
1, 81531, Note_off_c, 0, 48, 57
1, 81538, Note_on_c, 0, 67, 68
1, 81545, Note_on_c, 0, 58, 60
1, 81569, Note_off_c, 0, 67, 64
1, 81587, Note_on_c, 0, 69, 67
1, 81602, Note_off_c, 0, 58, 59
1, 81629, Note_on_c, 0, 52, 60
1, 81629, Note_off_c, 0, 69, 65
1, 81654, Note_on_c, 0, 67, 67
1, 81674, Note_off_c, 0, 52, 61
1, 81687, Note_off_c, 0, 67, 64
1, 81693, Note_on_c, 0, 58, 65
1, 81698, Note_on_c, 0, 69, 62
1, 81739, Note_off_c, 0, 69, 65
1, 81760, Note_on_c, 0, 67, 71
1, 81765, Note_off_c, 0, 58, 62
1, 81778, Note_on_c, 0, 48, 69
1, 81796, Note_off_c, 0, 67, 64
1, 81806, Note_on_c, 0, 69, 65
1, 81851, Note_off_c, 0, 48, 61
1, 81851, Note_off_c, 0, 69, 62
1, 81860, Note_on_c, 0, 58, 73
1, 81867, Note_on_c, 0, 67, 69
1, 81911, Note_off_c, 0, 67, 61
1, 81922, Note_on_c, 0, 69, 68
1, 81935, Note_off_c, 0, 58, 64
1, 81936, Note_on_c, 0, 52, 73
1, 81966, Note_off_c, 0, 69, 62
1, 81982, Note_on_c, 0, 67, 68
1, 81993, Note_off_c, 0, 52, 60
1, 82006, Note_on_c, 0, 58, 70
1, 82023, Note_off_c, 0, 67, 62
1, 82033, Note_on_c, 0, 69, 63
1, 82064, Note_off_c, 0, 58, 62
1, 82074, Note_on_c, 0, 48, 75
1, 82087, Note_off_c, 0, 69, 61
1, 82099, Note_on_c, 0, 67, 64
1, 82133, Note_off_c, 0, 67, 64
1, 82142, Note_off_c, 0, 48, 44
1, 82142, Note_on_c, 0, 69, 58
1, 82153, Note_on_c, 0, 58, 59
1, 82187, Note_off_c, 0, 69, 61
1, 82189, Note_off_c, 0, 58, 65
1, 82204, Note_on_c, 0, 67, 63
1, 82208, Note_on_c, 0, 52, 54
1, 82231, Note_off_c, 0, 67, 66
1, 82240, Note_off_c, 0, 52, 63
1, 82245, Note_on_c, 0, 65, 68
1, 82288, Note_off_c, 0, 65, 57
1, 82288, Note_on_c, 0, 58, 32
1, 82306, Note_on_c, 0, 67, 62
1, 82324, Note_off_c, 0, 58, 48
1, 82345, Note_off_c, 0, 67, 63
1, 82392, Note_on_c, 0, 65, 64
1, 82401, Note_on_c, 0, 53, 46
1, 82419, Note_off_c, 0, 65, 65
1, 82433, Note_off_c, 0, 53, 58
1, 82571, Note_on_c, 0, 65, 40
1, 82583, Note_on_c, 0, 77, 50
1, 82631, Control_c, 0, 64, 38
1, 82646, Control_c, 0, 64, 56
1, 82660, Control_c, 0, 64, 64
1, 82675, Control_c, 0, 64, 68
1, 82690, Control_c, 0, 64, 73
1, 82705, Control_c, 0, 64, 78
1, 82720, Control_c, 0, 64, 81
1, 82735, Control_c, 0, 64, 84
1, 82737, Note_off_c, 0, 65, 52
1, 82741, Note_off_c, 0, 77, 62
1, 82749, Control_c, 0, 64, 86
1, 82761, Note_on_c, 0, 64, 44
1, 82764, Control_c, 0, 64, 86
1, 82779, Control_c, 0, 64, 87
1, 82912, Note_off_c, 0, 64, 32
1, 82912, Control_c, 0, 64, 86
1, 82927, Control_c, 0, 64, 86
1, 82935, Note_on_c, 0, 65, 48
1, 82941, Control_c, 0, 64, 85
1, 82944, Note_on_c, 0, 77, 53
1, 82956, Control_c, 0, 64, 85
1, 82971, Control_c, 0, 64, 84
1, 82986, Control_c, 0, 64, 83
1, 83001, Control_c, 0, 64, 81
1, 83015, Control_c, 0, 64, 80
1, 83030, Control_c, 0, 64, 79
1, 83046, Control_c, 0, 64, 78
1, 83061, Control_c, 0, 64, 76
1, 83076, Control_c, 0, 64, 74
1, 83091, Control_c, 0, 64, 71
1, 83102, Note_off_c, 0, 77, 58
1, 83106, Control_c, 0, 64, 67
1, 83107, Note_off_c, 0, 65, 41
1, 83123, Note_on_c, 0, 76, 53
1, 83128, Control_c, 0, 64, 59
1, 83132, Note_on_c, 0, 67, 38
1, 83143, Control_c, 0, 64, 47
1, 83158, Control_c, 0, 64, 45
1, 83187, Control_c, 0, 64, 44
1, 83202, Control_c, 0, 64, 42
1, 83217, Control_c, 0, 64, 39
1, 83232, Control_c, 0, 64, 38
1, 83283, Note_off_c, 0, 67, 51
1, 83291, Note_on_c, 0, 65, 46
1, 83292, Note_off_c, 0, 76, 64
1, 83300, Note_on_c, 0, 77, 61
1, 83409, Control_c, 0, 64, 39
1, 83452, Note_off_c, 0, 65, 59
1, 83462, Note_off_c, 0, 77, 63
1, 83477, Note_on_c, 0, 64, 46
1, 83483, Note_on_c, 0, 79, 65
1, 83611, Note_off_c, 0, 64, 54
1, 83635, Note_on_c, 0, 63, 36
1, 83637, Note_off_c, 0, 79, 59
1, 83642, Note_on_c, 0, 81, 69
1, 83779, Control_c, 0, 64, 40
1, 83793, Note_off_c, 0, 81, 59
1, 83794, Note_off_c, 0, 63, 56
1, 83818, Note_on_c, 0, 82, 45
1, 83829, Note_on_c, 0, 62, 36
1, 83883, Note_off_c, 0, 82, 61
1, 83912, Note_on_c, 0, 84, 44
1, 83977, Note_off_c, 0, 84, 64
1, 83981, Control_c, 0, 64, 41
1, 83993, Note_on_c, 0, 86, 55
1, 83994, Note_on_c, 0, 53, 43
1, 84001, Note_off_c, 0, 62, 42
1, 84037, Note_off_c, 0, 53, 52
1, 84068, Note_off_c, 0, 86, 63
1, 84076, Note_on_c, 0, 84, 53
1, 84128, Control_c, 0, 64, 40
1, 84146, Note_off_c, 0, 84, 63
1, 84157, Note_on_c, 0, 82, 58
1, 84158, Control_c, 0, 64, 39
1, 84161, Note_on_c, 0, 61, 61
1, 84247, Note_on_c, 0, 80, 63
1, 84249, Note_off_c, 0, 82, 60
1, 84261, Control_c, 0, 64, 40
1, 84313, Note_on_c, 0, 53, 55
1, 84321, Note_off_c, 0, 61, 62
1, 84321, Note_off_c, 0, 80, 64
1, 84337, Note_on_c, 0, 79, 61
1, 84348, Note_off_c, 0, 53, 64
1, 84380, Control_c, 0, 64, 39
1, 84395, Control_c, 0, 64, 38
1, 84425, Note_on_c, 0, 77, 69
1, 84425, Control_c, 0, 64, 38
1, 84426, Note_off_c, 0, 79, 61
1, 84440, Control_c, 0, 64, 37
1, 84455, Control_c, 0, 64, 36
1, 84500, Note_off_c, 0, 77, 63
1, 84509, Note_on_c, 0, 60, 59
1, 84509, Note_on_c, 0, 76, 72
1, 84543, Control_c, 0, 64, 35
1, 84571, Note_off_c, 0, 76, 64
1, 84577, Note_on_c, 0, 77, 69
1, 84654, Note_off_c, 0, 77, 63
1, 84670, Note_on_c, 0, 79, 68
1, 84670, Control_c, 0, 64, 34
1, 84678, Note_off_c, 0, 60, 62
1, 84686, Note_on_c, 0, 53, 48
1, 84699, Control_c, 0, 64, 33
1, 84717, Note_off_c, 0, 53, 58
1, 84744, Note_off_c, 0, 79, 59
1, 84754, Note_on_c, 0, 77, 62
1, 84774, Control_c, 0, 64, 32
1, 84827, Note_off_c, 0, 77, 60
1, 84831, Note_on_c, 0, 76, 67
1, 84851, Note_on_c, 0, 64, 52
1, 84890, Note_off_c, 0, 76, 64
1, 84920, Note_on_c, 0, 74, 52
1, 84962, Note_off_c, 0, 64, 60
1, 84980, Note_on_c, 0, 53, 45
1, 84996, Note_off_c, 0, 74, 63
1, 84999, Note_on_c, 0, 72, 69
1, 85023, Note_off_c, 0, 53, 57
1, 85025, Control_c, 0, 64, 33
1, 85064, Note_off_c, 0, 72, 63
1, 85083, Note_on_c, 0, 70, 59
1, 85084, Control_c, 0, 64, 34
1, 85133, Note_off_c, 0, 70, 62
1, 85149, Note_on_c, 0, 65, 47
1, 85163, Note_on_c, 0, 69, 50
1, 85173, Control_c, 0, 64, 35
1, 85185, Note_off_c, 0, 65, 63
1, 85186, Note_off_c, 0, 69, 59
1, 85336, Control_c, 0, 64, 37
1, 85348, Note_on_c, 0, 69, 43
1, 85351, Control_c, 0, 64, 40
1, 85374, Control_c, 0, 64, 46
1, 85377, Note_on_c, 0, 53, 34
1, 85389, Control_c, 0, 64, 53
1, 85404, Control_c, 0, 64, 59
1, 85418, Control_c, 0, 64, 63
1, 85433, Control_c, 0, 64, 65
1, 85449, Control_c, 0, 64, 68
1, 85464, Control_c, 0, 64, 71
1, 85479, Control_c, 0, 64, 74
1, 85493, Control_c, 0, 64, 75
1, 85521, Note_off_c, 0, 53, 51
1, 85538, Note_on_c, 0, 52, 47
1, 85543, Note_off_c, 0, 69, 63
1, 85612, Control_c, 0, 64, 75
1, 85627, Control_c, 0, 64, 74
1, 85641, Control_c, 0, 64, 74
1, 85656, Control_c, 0, 64, 73
1, 85671, Control_c, 0, 64, 73
1, 85686, Control_c, 0, 64, 72
1, 85701, Control_c, 0, 64, 72
1, 85713, Note_off_c, 0, 52, 55
1, 85716, Control_c, 0, 64, 71
1, 85719, Note_on_c, 0, 65, 61
1, 85726, Note_on_c, 0, 53, 45
1, 85731, Control_c, 0, 64, 70
1, 85746, Control_c, 0, 64, 69
1, 85761, Control_c, 0, 64, 68
1, 85775, Control_c, 0, 64, 67
1, 85790, Control_c, 0, 64, 66
1, 85805, Control_c, 0, 64, 65
1, 85820, Control_c, 0, 64, 63
1, 85835, Control_c, 0, 64, 61
1, 85849, Control_c, 0, 64, 57
1, 85864, Control_c, 0, 64, 52
1, 85879, Control_c, 0, 64, 49
1, 85891, Note_on_c, 0, 55, 53
1, 85892, Note_off_c, 0, 53, 57
1, 85893, Control_c, 0, 64, 48
1, 85895, Note_on_c, 0, 64, 68
1, 85904, Note_off_c, 0, 65, 64
1, 85908, Control_c, 0, 64, 46
1, 85923, Control_c, 0, 64, 41
1, 85938, Control_c, 0, 64, 35
1, 85953, Control_c, 0, 64, 32
1, 85967, Control_c, 0, 64, 31
1, 86065, Note_on_c, 0, 53, 61
1, 86071, Note_on_c, 0, 65, 78
1, 86084, Note_off_c, 0, 55, 57
1, 86093, Note_off_c, 0, 64, 62
1, 86100, Control_c, 0, 64, 32
1, 86151, Control_c, 0, 64, 33
1, 86196, Control_c, 0, 64, 34
1, 86241, Control_c, 0, 64, 35
1, 86243, Note_on_c, 0, 52, 62
1, 86245, Note_off_c, 0, 53, 60
1, 86249, Note_on_c, 0, 67, 71
1, 86261, Note_off_c, 0, 65, 65
1, 86270, Control_c, 0, 64, 36
1, 86300, Control_c, 0, 64, 37
1, 86345, Control_c, 0, 64, 38
1, 86398, Note_off_c, 0, 52, 59
1, 86404, Control_c, 0, 64, 38
1, 86410, Note_on_c, 0, 51, 54
1, 86420, Note_on_c, 0, 69, 71
1, 86425, Note_off_c, 0, 67, 60
1, 86434, Control_c, 0, 64, 39
1, 86449, Control_c, 0, 64, 40
1, 86493, Control_c, 0, 64, 41
1, 86579, Note_off_c, 0, 51, 54
1, 86596, Control_c, 0, 64, 41
1, 86602, Note_off_c, 0, 69, 60
1, 86620, Note_on_c, 0, 70, 58
1, 86626, Note_on_c, 0, 50, 33
1, 86670, Control_c, 0, 64, 42
1, 86677, Note_off_c, 0, 50, 63
1, 86744, Control_c, 0, 64, 42
1, 86759, Control_c, 0, 64, 43
1, 86762, Note_off_c, 0, 70, 63
1, 86783, Note_on_c, 0, 72, 64
1, 86819, Control_c, 0, 64, 44
1, 86832, Note_off_c, 0, 72, 61
1, 86844, Note_on_c, 0, 70, 57
1, 86889, Note_off_c, 0, 70, 66
1, 86906, Note_on_c, 0, 69, 62
1, 86953, Note_off_c, 0, 69, 60
1, 86965, Note_on_c, 0, 70, 72
1, 87019, Note_on_c, 0, 46, 38
1, 87028, Note_off_c, 0, 70, 64
1, 87031, Note_on_c, 0, 72, 80
1, 87120, Note_off_c, 0, 46, 61
1, 87168, Control_c, 0, 64, 43
1, 87197, Control_c, 0, 64, 42
1, 87211, Note_off_c, 0, 72, 64
1, 87225, Note_on_c, 0, 74, 56
1, 87242, Control_c, 0, 64, 42
1, 87266, Note_off_c, 0, 74, 63
1, 87271, Control_c, 0, 64, 41
1, 87316, Control_c, 0, 64, 41
1, 87415, Note_on_c, 0, 48, 32
1, 87423, Note_on_c, 0, 70, 45
1, 87429, Note_on_c, 0, 74, 43
1, 87531, Note_off_c, 0, 48, 50
1, 87574, Note_off_c, 0, 70, 55
1, 87594, Note_off_c, 0, 74, 55
1, 87624, Note_on_c, 0, 69, 41
1, 87625, Note_on_c, 0, 72, 49
1, 87667, Note_off_c, 0, 72, 65
1, 87671, Note_off_c, 0, 69, 63
1, 87806, Note_on_c, 0, 48, 47
1, 87826, Control_c, 0, 64, 40
1, 87842, Control_c, 0, 64, 39
1, 87857, Control_c, 0, 64, 38
1, 87871, Note_off_c, 0, 48, 55
1, 87901, Control_c, 0, 64, 38
1, 87931, Control_c, 0, 64, 37
1, 87946, Control_c, 0, 64, 36
1, 87960, Control_c, 0, 64, 35
1, 87966, Note_on_c, 0, 64, 61
1, 87973, Note_on_c, 0, 58, 56
1, 88005, Control_c, 0, 64, 34
1, 88020, Control_c, 0, 64, 33
1, 88035, Control_c, 0, 64, 32
1, 88046, Note_off_c, 0, 58, 61
1, 88124, Control_c, 0, 64, 31
1, 88168, Control_c, 0, 64, 30
1, 88183, Control_c, 0, 64, 28
1, 88189, Note_on_c, 0, 58, 46
1, 88193, Note_on_c, 0, 53, 39
1, 88195, Note_off_c, 0, 64, 58
1, 88196, Note_on_c, 0, 67, 52
1, 88369, Note_off_c, 0, 53, 38
1, 88412, Note_off_c, 0, 58, 43
1, 88586, Note_on_c, 0, 48, 32
1, 88691, Note_off_c, 0, 48, 54
1, 88709, Control_c, 0, 64, 27
1, 88739, Control_c, 0, 64, 26
1, 88754, Control_c, 0, 64, 24
1, 88798, Control_c, 0, 64, 22
1, 88828, Control_c, 0, 64, 20
1, 88873, Control_c, 0, 64, 18
1, 88902, Control_c, 0, 64, 15
1, 89017, Note_off_c, 0, 67, 50
1, 89029, Note_on_c, 0, 41, 20
1, 89032, Note_on_c, 0, 65, 42
1, 89058, Note_on_c, 0, 57, 18
1, 89291, Note_off_c, 0, 57, 57
1, 89309, Control_c, 0, 64, 18
1, 89420, Note_off_c, 0, 65, 44
1, 89460, Note_off_c, 0, 41, 40
1, 89730, Note_on_c, 0, 74, 35
1, 89800, Note_off_c, 0, 74, 60
1, 89810, Note_on_c, 0, 72, 57
1, 89898, Note_off_c, 0, 72, 61
1, 89910, Note_on_c, 0, 70, 52
1, 89940, Control_c, 0, 64, 15
1, 89984, Note_off_c, 0, 70, 61
1, 89984, Control_c, 0, 64, 12
1, 89992, Note_on_c, 0, 69, 57
1, 90073, Control_c, 0, 64, 0
1, 90074, Note_off_c, 0, 69, 63
1, 90092, Note_on_c, 0, 67, 53
1, 90262, Note_off_c, 0, 67, 60
1, 90268, Note_on_c, 0, 65, 50
1, 90276, Note_on_c, 0, 41, 31
1, 90300, Note_off_c, 0, 65, 62
1, 90453, Note_on_c, 0, 65, 55
1, 90474, Note_on_c, 0, 45, 35
1, 90476, Note_off_c, 0, 41, 39
1, 90637, Note_on_c, 0, 48, 39
1, 90652, Note_off_c, 0, 45, 46
1, 90768, Note_off_c, 0, 65, 64
1, 90819, Note_off_c, 0, 48, 58
1, 90827, Note_on_c, 0, 45, 50
1, 90998, Note_off_c, 0, 45, 32
1, 91004, Note_on_c, 0, 41, 34
1, 91014, Control_c, 0, 64, 12
1, 91016, Note_on_c, 0, 77, 69
1, 91030, Control_c, 0, 64, 15
1, 91045, Control_c, 0, 64, 18
1, 91090, Control_c, 0, 64, 20
1, 91180, Note_off_c, 0, 77, 62
1, 91180, Note_off_c, 0, 41, 44
1, 91186, Note_on_c, 0, 79, 70
1, 91189, Note_on_c, 0, 45, 39
1, 91267, Control_c, 0, 64, 22
1, 91297, Control_c, 0, 64, 24
1, 91331, Note_off_c, 0, 45, 62
1, 91335, Note_off_c, 0, 79, 64
1, 91345, Note_on_c, 0, 81, 75
1, 91362, Note_on_c, 0, 48, 39
1, 91363, Control_c, 0, 64, 26
1, 91386, Note_off_c, 0, 81, 65
1, 91392, Note_off_c, 0, 48, 55
1, 91466, Note_on_c, 0, 76, 48
1, 91541, Note_on_c, 0, 82, 63
1, 91561, Note_off_c, 0, 76, 58
1, 91738, Note_on_c, 0, 55, 27
1, 91798, Note_on_c, 0, 79, 55
1, 91805, Note_off_c, 0, 82, 59
1, 91808, Control_c, 0, 64, 27
1, 91839, Control_c, 0, 64, 28
1, 91853, Control_c, 0, 64, 30
1, 91868, Control_c, 0, 64, 31
1, 91877, Note_off_c, 0, 79, 64
1, 91888, Note_on_c, 0, 76, 54
1, 91910, Note_on_c, 0, 58, 40
1, 91916, Note_off_c, 0, 55, 40
1, 91927, Control_c, 0, 64, 32
1, 91957, Control_c, 0, 64, 33
1, 91986, Control_c, 0, 64, 34
1, 92001, Control_c, 0, 64, 35
1, 92074, Note_off_c, 0, 58, 54
1, 92077, Note_on_c, 0, 64, 42
1, 92201, Note_off_c, 0, 76, 60
1, 92261, Note_off_c, 0, 64, 53
1, 92281, Note_on_c, 0, 58, 39
1, 92306, Control_c, 0, 64, 33
1, 92321, Control_c, 0, 64, 32
1, 92335, Control_c, 0, 64, 30
1, 92350, Control_c, 0, 64, 27
1, 92365, Control_c, 0, 64, 24
1, 92379, Control_c, 0, 64, 20
1, 92394, Control_c, 0, 64, 18
1, 92409, Control_c, 0, 64, 15
1, 92424, Control_c, 0, 64, 12
1, 92431, Note_off_c, 0, 58, 37
1, 92439, Control_c, 0, 64, 0
1, 92448, Note_on_c, 0, 55, 40
1, 92592, Note_off_c, 0, 55, 53
1, 92605, Note_on_c, 0, 72, 50
1, 92614, Note_on_c, 0, 58, 41
1, 92677, Note_off_c, 0, 72, 59
1, 92685, Note_on_c, 0, 70, 57
1, 92741, Note_off_c, 0, 58, 56
1, 92760, Note_off_c, 0, 70, 59
1, 92766, Note_on_c, 0, 64, 41
1, 92774, Note_on_c, 0, 69, 50
1, 92792, Note_off_c, 0, 64, 58
1, 92837, Note_off_c, 0, 69, 59
1, 92864, Note_on_c, 0, 67, 52
1, 92937, Note_off_c, 0, 67, 62
1, 92965, Note_on_c, 0, 65, 49
1, 93131, Note_off_c, 0, 65, 63
1, 93132, Note_on_c, 0, 43, 32
1, 93144, Note_on_c, 0, 64, 47
1, 93170, Note_off_c, 0, 64, 61
1, 93332, Note_off_c, 0, 43, 42
1, 93334, Note_on_c, 0, 64, 52
1, 93337, Note_on_c, 0, 46, 32
1, 93497, Note_on_c, 0, 52, 54
1, 93520, Note_off_c, 0, 46, 41
1, 93649, Note_off_c, 0, 64, 64
1, 93685, Note_on_c, 0, 46, 64
1, 93713, Note_off_c, 0, 52, 55
1, 93858, Note_on_c, 0, 79, 76
1, 93874, Note_on_c, 0, 43, 54
1, 93895, Note_off_c, 0, 46, 59
1, 94033, Note_on_c, 0, 81, 88
1, 94053, Note_on_c, 0, 46, 47
1, 94056, Note_off_c, 0, 79, 59
1, 94089, Note_off_c, 0, 43, 60
1, 94197, Note_off_c, 0, 46, 63
1, 94206, Note_on_c, 0, 82, 74
1, 94210, Note_off_c, 0, 81, 66
1, 94211, Note_on_c, 0, 52, 58
1, 94244, Note_off_c, 0, 52, 64
1, 94274, Note_off_c, 0, 82, 63
1, 94305, Note_on_c, 0, 78, 67
1, 94387, Note_on_c, 0, 84, 75
1, 94436, Note_off_c, 0, 78, 59
1, 94590, Note_on_c, 0, 57, 31
1, 94641, Control_c, 0, 64, 35
1, 94647, Note_on_c, 0, 81, 70
1, 94655, Control_c, 0, 64, 42
1, 94670, Control_c, 0, 64, 48
1, 94671, Note_off_c, 0, 84, 64
1, 94685, Control_c, 0, 64, 54
1, 94699, Control_c, 0, 64, 62
1, 94714, Control_c, 0, 64, 64
1, 94720, Note_off_c, 0, 81, 64
1, 94729, Control_c, 0, 64, 65
1, 94730, Note_on_c, 0, 78, 56
1, 94744, Control_c, 0, 64, 67
1, 94759, Control_c, 0, 64, 70
1, 94771, Note_on_c, 0, 60, 45
1, 94773, Control_c, 0, 64, 74
1, 94788, Control_c, 0, 64, 76
1, 94793, Note_off_c, 0, 57, 37
1, 94803, Control_c, 0, 64, 77
1, 94833, Control_c, 0, 64, 77
1, 94862, Control_c, 0, 64, 78
1, 94877, Control_c, 0, 64, 78
1, 94933, Note_on_c, 0, 63, 53
1, 94951, Note_off_c, 0, 78, 60
1, 94952, Note_off_c, 0, 60, 56
1, 95070, Control_c, 0, 64, 78
1, 95085, Control_c, 0, 64, 77
1, 95109, Control_c, 0, 64, 77
1, 95122, Note_on_c, 0, 60, 71
1, 95124, Control_c, 0, 64, 76
1, 95133, Note_off_c, 0, 63, 61
1, 95138, Control_c, 0, 64, 76
1, 95153, Control_c, 0, 64, 75
1, 95168, Control_c, 0, 64, 75
1, 95183, Control_c, 0, 64, 74
1, 95198, Control_c, 0, 64, 73
1, 95212, Control_c, 0, 64, 72
1, 95227, Control_c, 0, 64, 72
1, 95242, Control_c, 0, 64, 71
1, 95257, Control_c, 0, 64, 70
1, 95271, Control_c, 0, 64, 68
1, 95279, Note_on_c, 0, 81, 89
1, 95284, Note_on_c, 0, 57, 64
1, 95286, Control_c, 0, 64, 65
1, 95301, Control_c, 0, 64, 63
1, 95307, Note_off_c, 0, 60, 55
1, 95316, Control_c, 0, 64, 61
1, 95330, Control_c, 0, 64, 59
1, 95345, Control_c, 0, 64, 54
1, 95360, Control_c, 0, 64, 48
1, 95375, Control_c, 0, 64, 35
1, 95390, Control_c, 0, 64, 0
1, 95452, Note_on_c, 0, 82, 84
1, 95463, Note_on_c, 0, 60, 59
1, 95476, Note_off_c, 0, 81, 66
1, 95481, Note_off_c, 0, 57, 57
1, 95589, Note_off_c, 0, 60, 60
1, 95615, Note_on_c, 0, 84, 83
1, 95616, Note_on_c, 0, 63, 62
1, 95618, Note_off_c, 0, 82, 67
1, 95645, Note_off_c, 0, 63, 65
1, 95656, Note_off_c, 0, 84, 60
1, 95747, Note_on_c, 0, 79, 62
1, 95814, Note_on_c, 0, 86, 74
1, 95875, Note_off_c, 0, 79, 58
1, 95976, Control_c, 0, 64, 27
1, 95991, Control_c, 0, 64, 58
1, 96003, Note_on_c, 0, 46, 37
1, 96006, Control_c, 0, 64, 64
1, 96021, Control_c, 0, 64, 66
1, 96035, Control_c, 0, 64, 68
1, 96050, Control_c, 0, 64, 70
1, 96065, Control_c, 0, 64, 72
1, 96079, Control_c, 0, 64, 73
1, 96080, Note_on_c, 0, 82, 56
1, 96080, Note_off_c, 0, 86, 57
1, 96094, Control_c, 0, 64, 74
1, 96167, Note_off_c, 0, 82, 65
1, 96183, Control_c, 0, 64, 73
1, 96184, Note_on_c, 0, 79, 49
1, 96185, Note_on_c, 0, 50, 47
1, 96198, Control_c, 0, 64, 72
1, 96202, Note_off_c, 0, 46, 41
1, 96213, Control_c, 0, 64, 71
1, 96218, Note_off_c, 0, 79, 64
1, 96227, Control_c, 0, 64, 70
1, 96242, Control_c, 0, 64, 68
1, 96257, Control_c, 0, 64, 66
1, 96271, Control_c, 0, 64, 65
1, 96286, Control_c, 0, 64, 63
1, 96301, Control_c, 0, 64, 61
1, 96311, Note_off_c, 0, 50, 58
1, 96316, Control_c, 0, 64, 59
1, 96331, Control_c, 0, 64, 56
1, 96343, Note_on_c, 0, 55, 44
1, 96346, Control_c, 0, 64, 51
1, 96361, Control_c, 0, 64, 46
1, 96376, Control_c, 0, 64, 44
1, 96384, Note_off_c, 0, 55, 61
1, 96435, Control_c, 0, 64, 43
1, 96450, Control_c, 0, 64, 42
1, 96465, Note_on_c, 0, 76, 50
1, 96465, Control_c, 0, 64, 41
1, 96479, Control_c, 0, 64, 41
1, 96494, Control_c, 0, 64, 39
1, 96509, Control_c, 0, 64, 38
1, 96524, Control_c, 0, 64, 38
1, 96535, Note_on_c, 0, 82, 58
1, 96537, Note_off_c, 0, 76, 49
1, 96539, Control_c, 0, 64, 37
1, 96665, Control_c, 0, 64, 38
1, 96680, Control_c, 0, 64, 38
1, 96695, Control_c, 0, 64, 39
1, 96709, Control_c, 0, 64, 40
1, 96718, Note_on_c, 0, 48, 39
1, 96724, Control_c, 0, 64, 41
1, 96739, Control_c, 0, 64, 43
1, 96754, Control_c, 0, 64, 46
1, 96769, Control_c, 0, 64, 49
1, 96783, Control_c, 0, 64, 51
1, 96784, Note_off_c, 0, 82, 59
1, 96795, Note_on_c, 0, 79, 49
1, 96798, Control_c, 0, 64, 54
1, 96813, Control_c, 0, 64, 56
1, 96828, Control_c, 0, 64, 59
1, 96843, Control_c, 0, 64, 61
1, 96857, Control_c, 0, 64, 63
1, 96872, Control_c, 0, 64, 64
1, 96882, Note_off_c, 0, 48, 56
1, 96882, Note_off_c, 0, 79, 64
1, 96887, Control_c, 0, 64, 64
1, 96891, Note_on_c, 0, 76, 53
1, 96897, Note_on_c, 0, 55, 40
1, 96901, Control_c, 0, 64, 65
1, 96930, Note_off_c, 0, 76, 63
1, 97005, Control_c, 0, 64, 64
1, 97035, Control_c, 0, 64, 64
1, 97050, Note_off_c, 0, 55, 57
1, 97073, Note_on_c, 0, 58, 40
1, 97079, Control_c, 0, 64, 63
1, 97094, Control_c, 0, 64, 63
1, 97109, Control_c, 0, 64, 62
1, 97122, Note_off_c, 0, 58, 56
1, 97124, Control_c, 0, 64, 62
1, 97139, Control_c, 0, 64, 61
1, 97154, Control_c, 0, 64, 61
1, 97168, Control_c, 0, 64, 60
1, 97176, Note_on_c, 0, 71, 41
1, 97183, Control_c, 0, 64, 59
1, 97198, Control_c, 0, 64, 59
1, 97212, Control_c, 0, 64, 58
1, 97227, Control_c, 0, 64, 58
1, 97230, Note_off_c, 0, 71, 60
1, 97242, Control_c, 0, 64, 57
1, 97257, Control_c, 0, 64, 56
1, 97262, Note_on_c, 0, 77, 45
1, 97272, Control_c, 0, 64, 55
1, 97331, Control_c, 0, 64, 55
1, 97353, Control_c, 0, 64, 54
1, 97368, Control_c, 0, 64, 53
1, 97413, Control_c, 0, 64, 53
1, 97443, Control_c, 0, 64, 52
1, 97445, Note_on_c, 0, 50, 31
1, 97458, Control_c, 0, 64, 52
1, 97487, Control_c, 0, 64, 51
1, 97524, Note_off_c, 0, 77, 57
1, 97538, Note_on_c, 0, 74, 39
1, 97592, Control_c, 0, 64, 51
1, 97602, Note_off_c, 0, 74, 59
1, 97616, Note_on_c, 0, 71, 49
1, 97621, Control_c, 0, 64, 50
1, 97624, Note_off_c, 0, 50, 44
1, 97631, Note_on_c, 0, 53, 32
1, 97636, Control_c, 0, 64, 50
1, 97650, Control_c, 0, 64, 49
1, 97665, Control_c, 0, 64, 49
1, 97680, Control_c, 0, 64, 48
1, 97695, Control_c, 0, 64, 46
1, 97710, Control_c, 0, 64, 46
1, 97724, Control_c, 0, 64, 45
1, 97754, Control_c, 0, 64, 45
1, 97774, Note_on_c, 0, 56, 55
1, 97792, Note_off_c, 0, 53, 47
1, 97813, Control_c, 0, 64, 44
1, 97926, Note_off_c, 0, 71, 63
1, 97946, Control_c, 0, 64, 44
1, 97950, Note_on_c, 0, 53, 56
1, 97963, Note_off_c, 0, 56, 58
1, 97976, Control_c, 0, 64, 43
1, 97991, Control_c, 0, 64, 42
1, 98006, Control_c, 0, 64, 42
1, 98021, Control_c, 0, 64, 41
1, 98036, Control_c, 0, 64, 40
1, 98050, Control_c, 0, 64, 38
1, 98065, Control_c, 0, 64, 37
1, 98080, Control_c, 0, 64, 36
1, 98125, Note_on_c, 0, 71, 62
1, 98128, Note_on_c, 0, 50, 52
1, 98132, Control_c, 0, 64, 35
1, 98134, Note_off_c, 0, 53, 56
1, 98155, Note_off_c, 0, 71, 65
1, 98252, Control_c, 0, 64, 34
1, 98281, Control_c, 0, 64, 33
1, 98284, Note_off_c, 0, 50, 62
1, 98296, Control_c, 0, 64, 32
1, 98300, Note_on_c, 0, 53, 57
1, 98305, Note_on_c, 0, 71, 66
1, 98325, Note_off_c, 0, 71, 65
1, 98326, Control_c, 0, 64, 31
1, 98341, Control_c, 0, 64, 28
1, 98355, Control_c, 0, 64, 27
1, 98370, Control_c, 0, 64, 26
1, 98385, Control_c, 0, 64, 24
1, 98443, Note_off_c, 0, 53, 56
1, 98450, Note_on_c, 0, 71, 48
1, 98459, Note_on_c, 0, 56, 51
1, 98490, Note_off_c, 0, 71, 64
1, 98578, Control_c, 0, 64, 26
1, 98613, Note_off_c, 0, 56, 51
1, 98630, Note_on_c, 0, 48, 35
1, 98637, Control_c, 0, 64, 27
1, 98644, Note_on_c, 0, 57, 32
1, 98646, Note_on_c, 0, 72, 61
1, 98696, Control_c, 0, 64, 28
1, 98703, Note_off_c, 0, 72, 59
1, 98728, Note_on_c, 0, 81, 68
1, 98799, Control_c, 0, 64, 30
1, 98804, Note_off_c, 0, 81, 65
1, 98812, Note_on_c, 0, 77, 69
1, 98829, Control_c, 0, 64, 31
1, 98867, Control_c, 0, 64, 32
1, 98881, Control_c, 0, 64, 33
1, 98892, Note_off_c, 0, 77, 62
1, 98893, Note_on_c, 0, 72, 78
1, 98896, Control_c, 0, 64, 35
1, 98911, Control_c, 0, 64, 37
1, 98926, Control_c, 0, 64, 38
1, 98941, Control_c, 0, 64, 38
1, 98944, Note_off_c, 0, 57, 58
1, 98945, Note_off_c, 0, 48, 52
1, 98960, Note_off_c, 0, 72, 62
1, 98970, Control_c, 0, 64, 39
1, 98980, Note_on_c, 0, 69, 74
1, 99015, Control_c, 0, 64, 40
1, 99045, Control_c, 0, 64, 39
1, 99057, Note_on_c, 0, 77, 79
1, 99058, Note_off_c, 0, 69, 54
1, 99104, Control_c, 0, 64, 38
1, 99134, Control_c, 0, 64, 38
1, 99141, Note_on_c, 0, 72, 83
1, 99163, Note_off_c, 0, 77, 55
1, 99164, Control_c, 0, 64, 37
1, 99178, Control_c, 0, 64, 36
1, 99207, Note_off_c, 0, 72, 64
1, 99219, Note_on_c, 0, 69, 68
1, 99245, Note_off_c, 0, 69, 66
1, 99320, Note_on_c, 0, 72, 83
1, 99322, Note_on_c, 0, 60, 58
1, 99322, Note_on_c, 0, 69, 59
1, 99470, Note_off_c, 0, 72, 61
1, 99479, Note_off_c, 0, 60, 42
1, 99483, Note_off_c, 0, 69, 63
1, 99498, Note_on_c, 0, 67, 55
1, 99500, Note_on_c, 0, 70, 56
1, 99519, Note_off_c, 0, 67, 62
1, 99523, Note_off_c, 0, 70, 64
1, 99534, Control_c, 0, 64, 37
1, 99563, Control_c, 0, 64, 38
1, 99601, Control_c, 0, 64, 38
1, 99672, Note_on_c, 0, 48, 46
1, 99681, Note_on_c, 0, 69, 54
1, 99692, Note_on_c, 0, 65, 42
1, 99710, Note_off_c, 0, 69, 63
1, 99713, Note_off_c, 0, 48, 62
1, 99719, Note_off_c, 0, 65, 53
1, 99808, Control_c, 0, 64, 38
1, 99853, Control_c, 0, 64, 37
1, 99856, Note_on_c, 0, 64, 43
1, 99857, Note_on_c, 0, 67, 43
1, 99881, Note_off_c, 0, 64, 57
1, 99882, Note_off_c, 0, 67, 58
1, 99898, Control_c, 0, 64, 36
1, 100022, Note_on_c, 0, 65, 46
1, 100036, Note_on_c, 0, 53, 36
1, 100060, Control_c, 0, 64, 37
1, 100112, Note_off_c, 0, 53, 58
1, 100140, Note_on_c, 0, 60, 32
1, 100176, Note_off_c, 0, 60, 54
1, 100200, Note_on_c, 0, 56, 40
1, 100209, Control_c, 0, 64, 38
1, 100253, Control_c, 0, 64, 38
1, 100263, Note_off_c, 0, 56, 57
1, 100273, Note_on_c, 0, 60, 42
1, 100298, Control_c, 0, 64, 39
1, 100349, Control_c, 0, 64, 40
1, 100365, Note_off_c, 0, 60, 60
1, 100396, Note_on_c, 0, 53, 38
1, 100453, Note_off_c, 0, 53, 55
1, 100495, Note_on_c, 0, 60, 33
1, 100529, Note_off_c, 0, 60, 52
1, 100544, Note_off_c, 0, 65, 37
1, 100558, Note_on_c, 0, 56, 48
1, 100571, Control_c, 0, 64, 41
1, 100617, Note_off_c, 0, 56, 57
1, 100624, Note_on_c, 0, 60, 44
1, 100719, Note_off_c, 0, 60, 58
1, 100737, Note_on_c, 0, 53, 41
1, 100765, Control_c, 0, 64, 41
1, 100802, Note_on_c, 0, 65, 50
1, 100802, Note_off_c, 0, 53, 56
1, 100832, Note_on_c, 0, 60, 37
1, 100850, Note_off_c, 0, 65, 62
1, 100876, Note_off_c, 0, 60, 51
1, 100883, Note_on_c, 0, 67, 47
1, 100915, Note_on_c, 0, 56, 39
1, 100940, Note_off_c, 0, 67, 61
1, 100958, Note_off_c, 0, 56, 56
1, 100971, Note_on_c, 0, 68, 51
1, 100981, Note_on_c, 0, 60, 45
1, 101049, Note_off_c, 0, 60, 57
1, 101053, Note_off_c, 0, 68, 62
1, 101057, Note_on_c, 0, 70, 62
1, 101071, Note_on_c, 0, 53, 45
1, 101118, Note_off_c, 0, 70, 62
1, 101130, Note_off_c, 0, 53, 59
1, 101154, Note_on_c, 0, 60, 46
1, 101156, Note_on_c, 0, 72, 67
1, 101199, Note_off_c, 0, 60, 59
1, 101231, Note_off_c, 0, 72, 58
1, 101236, Note_on_c, 0, 56, 42
1, 101242, Note_on_c, 0, 74, 55
1, 101284, Note_off_c, 0, 56, 55
1, 101305, Note_on_c, 0, 60, 42
1, 101311, Note_off_c, 0, 74, 64
1, 101320, Note_on_c, 0, 76, 60
1, 101383, Note_off_c, 0, 60, 55
1, 101387, Note_off_c, 0, 76, 61
1, 101402, Note_on_c, 0, 53, 43
1, 101404, Note_on_c, 0, 77, 62
1, 101452, Note_off_c, 0, 77, 59
1, 101477, Note_off_c, 0, 53, 53
1, 101490, Note_on_c, 0, 72, 63
1, 101496, Note_on_c, 0, 60, 41
1, 101513, Control_c, 0, 64, 42
1, 101549, Note_off_c, 0, 60, 60
1, 101567, Note_on_c, 0, 80, 61
1, 101570, Note_off_c, 0, 72, 63
1, 101571, Note_on_c, 0, 56, 39
1, 101616, Note_off_c, 0, 56, 50
1, 101616, Control_c, 0, 64, 42
1, 101640, Note_off_c, 0, 80, 62
1, 101658, Note_on_c, 0, 60, 44
1, 101661, Note_on_c, 0, 79, 59
1, 101702, Note_off_c, 0, 60, 59
1, 101720, Control_c, 0, 64, 43
1, 101727, Note_on_c, 0, 53, 47
1, 101734, Note_off_c, 0, 79, 63
1, 101750, Note_on_c, 0, 77, 62
1, 101750, Control_c, 0, 64, 44
1, 101791, Note_off_c, 0, 53, 54
1, 101795, Control_c, 0, 64, 44
1, 101801, Note_on_c, 0, 60, 54
1, 101818, Note_off_c, 0, 77, 62
1, 101840, Note_on_c, 0, 72, 72
1, 101878, Note_off_c, 0, 60, 60
1, 101890, Control_c, 0, 64, 45
1, 101892, Note_on_c, 0, 56, 54
1, 101915, Note_on_c, 0, 80, 70
1, 101923, Note_off_c, 0, 72, 61
1, 101947, Note_off_c, 0, 56, 55
1, 101979, Note_on_c, 0, 60, 54
1, 101980, Control_c, 0, 64, 45
1, 101992, Note_on_c, 0, 79, 75
1, 102009, Note_off_c, 0, 80, 53
1, 102024, Control_c, 0, 64, 46
1, 102060, Note_off_c, 0, 60, 60
1, 102072, Note_off_c, 0, 79, 64
1, 102072, Note_on_c, 0, 53, 55
1, 102073, Note_on_c, 0, 77, 80
1, 102154, Note_off_c, 0, 77, 62
1, 102161, Note_on_c, 0, 79, 80
1, 102162, Note_off_c, 0, 53, 61
1, 102163, Note_on_c, 0, 60, 58
1, 102232, Note_off_c, 0, 60, 60
1, 102239, Note_on_c, 0, 56, 59
1, 102243, Note_on_c, 0, 75, 79
1, 102245, Note_off_c, 0, 79, 63
1, 102303, Note_off_c, 0, 56, 60
1, 102315, Note_on_c, 0, 60, 58
1, 102318, Note_on_c, 0, 77, 79
1, 102325, Note_off_c, 0, 75, 63
1, 102398, Note_on_c, 0, 74, 78
1, 102401, Note_off_c, 0, 77, 62
1, 102403, Note_on_c, 0, 53, 62
1, 102411, Note_off_c, 0, 60, 56
1, 102476, Note_on_c, 0, 60, 49
1, 102477, Note_on_c, 0, 75, 82
1, 102483, Note_off_c, 0, 74, 64
1, 102489, Note_off_c, 0, 53, 57
1, 102547, Note_off_c, 0, 60, 60
1, 102548, Note_on_c, 0, 56, 61
1, 102558, Control_c, 0, 64, 45
1, 102563, Note_on_c, 0, 72, 87
1, 102565, Note_off_c, 0, 75, 64
1, 102573, Control_c, 0, 64, 45
1, 102612, Note_off_c, 0, 56, 59
1, 102625, Control_c, 0, 64, 44
1, 102639, Control_c, 0, 64, 44
1, 102647, Note_on_c, 0, 74, 81
1, 102650, Note_on_c, 0, 60, 52
1, 102654, Control_c, 0, 64, 43
1, 102657, Note_off_c, 0, 72, 64
1, 102696, Note_off_c, 0, 60, 58
1, 102731, Note_off_c, 0, 74, 66
1, 102737, Note_on_c, 0, 71, 82
1, 102745, Note_on_c, 0, 55, 59
1, 102758, Control_c, 0, 64, 44
1, 102764, Note_off_c, 0, 71, 67
1, 102773, Control_c, 0, 64, 44
1, 102858, Note_on_c, 0, 65, 59
1, 102862, Note_off_c, 0, 55, 51
1, 102877, Control_c, 0, 64, 45
1, 102891, Control_c, 0, 64, 46
1, 102906, Control_c, 0, 64, 46
1, 102921, Control_c, 0, 64, 47
1, 102931, Note_off_c, 0, 65, 63
1, 102936, Control_c, 0, 64, 47
1, 102945, Note_on_c, 0, 89, 78
1, 102947, Note_on_c, 0, 62, 55
1, 103045, Note_off_c, 0, 62, 58
1, 103054, Note_on_c, 0, 65, 52
1, 103056, Control_c, 0, 64, 46
1, 103070, Control_c, 0, 64, 45
1, 103085, Control_c, 0, 64, 45
1, 103112, Note_off_c, 0, 65, 57
1, 103132, Note_on_c, 0, 55, 59
1, 103144, Control_c, 0, 64, 44
1, 103188, Control_c, 0, 64, 44
1, 103193, Note_off_c, 0, 55, 51
1, 103203, Control_c, 0, 64, 42
1, 103218, Control_c, 0, 64, 42
1, 103226, Note_on_c, 0, 65, 52
1, 103284, Note_off_c, 0, 65, 59
1, 103299, Note_on_c, 0, 87, 86
1, 103303, Note_on_c, 0, 62, 60
1, 103343, Control_c, 0, 64, 41
1, 103345, Note_off_c, 0, 89, 66
1, 103373, Control_c, 0, 64, 40
1, 103385, Note_off_c, 0, 62, 57
1, 103405, Note_on_c, 0, 65, 56
1, 103417, Control_c, 0, 64, 39
1, 103432, Control_c, 0, 64, 38
1, 103447, Control_c, 0, 64, 38
1, 103458, Note_off_c, 0, 65, 59
1, 103461, Control_c, 0, 64, 37
1, 103476, Note_on_c, 0, 55, 57
1, 103532, Note_off_c, 0, 55, 58
1, 103577, Note_on_c, 0, 65, 55
1, 103628, Note_off_c, 0, 65, 60
1, 103654, Note_on_c, 0, 62, 57
1, 103661, Note_on_c, 0, 86, 81
1, 103669, Control_c, 0, 64, 36
1, 103691, Note_off_c, 0, 87, 67
1, 103699, Control_c, 0, 64, 35
1, 103713, Control_c, 0, 64, 34
1, 103729, Note_off_c, 0, 62, 56
1, 103738, Note_on_c, 0, 65, 57
1, 103804, Note_off_c, 0, 65, 61
1, 103822, Note_on_c, 0, 55, 49
1, 103833, Control_c, 0, 64, 33
1, 103876, Note_off_c, 0, 55, 59
1, 103918, Note_on_c, 0, 65, 50
1, 103969, Note_off_c, 0, 65, 56
1, 104010, Note_on_c, 0, 84, 79
1, 104010, Control_c, 0, 64, 34
1, 104012, Note_on_c, 0, 62, 44
1, 104027, Note_off_c, 0, 86, 65
1, 104090, Note_off_c, 0, 62, 57
1, 104101, Note_on_c, 0, 65, 49
1, 104156, Note_off_c, 0, 65, 58
1, 104191, Note_on_c, 0, 55, 47
1, 104210, Control_c, 0, 64, 35
1, 104225, Control_c, 0, 64, 36
1, 104231, Note_off_c, 0, 55, 61
1, 104261, Note_on_c, 0, 65, 61
1, 104324, Note_off_c, 0, 65, 52
1, 104357, Note_on_c, 0, 62, 49
1, 104376, Note_on_c, 0, 83, 73
1, 104405, Note_off_c, 0, 84, 62
1, 104409, Note_off_c, 0, 62, 56
1, 104453, Note_on_c, 0, 65, 46
1, 104462, Control_c, 0, 64, 37
1, 104503, Note_off_c, 0, 65, 56
1, 104527, Note_on_c, 0, 55, 47
1, 104572, Note_off_c, 0, 55, 58
1, 104615, Note_on_c, 0, 65, 48
1, 104666, Note_off_c, 0, 65, 60
1, 104696, Note_on_c, 0, 62, 51
1, 104713, Note_on_c, 0, 80, 68
1, 104740, Note_off_c, 0, 83, 63
1, 104754, Note_off_c, 0, 62, 54
1, 104774, Control_c, 0, 64, 38
1, 104780, Note_on_c, 0, 65, 48
1, 104809, Note_off_c, 0, 65, 59
1, 104819, Control_c, 0, 64, 38
1, 104877, Note_on_c, 0, 55, 43
1, 104965, Note_off_c, 0, 55, 62
1, 104993, Note_on_c, 0, 62, 42
1, 105043, Note_off_c, 0, 62, 59
1, 105053, Note_on_c, 0, 79, 60
1, 105062, Note_on_c, 0, 59, 40
1, 105065, Note_off_c, 0, 80, 61
1, 105104, Note_off_c, 0, 59, 58
1, 105123, Control_c, 0, 64, 38
1, 105157, Note_on_c, 0, 62, 44
1, 105167, Control_c, 0, 64, 37
1, 105201, Note_off_c, 0, 62, 48
1, 105227, Control_c, 0, 64, 36
1, 105235, Note_on_c, 0, 55, 49
1, 105285, Control_c, 0, 64, 35
1, 105297, Note_off_c, 0, 55, 56
1, 105306, Note_on_c, 0, 62, 50
1, 105330, Control_c, 0, 64, 34
1, 105345, Control_c, 0, 64, 33
1, 105376, Note_off_c, 0, 62, 58
1, 105396, Note_off_c, 0, 79, 61
1, 105396, Note_on_c, 0, 59, 46
1, 105404, Note_on_c, 0, 77, 57
1, 105405, Control_c, 0, 64, 32
1, 105438, Note_off_c, 0, 59, 60
1, 105440, Note_off_c, 0, 77, 59
1, 105494, Note_on_c, 0, 62, 40
1, 105530, Note_off_c, 0, 62, 56
1, 105587, Note_on_c, 0, 77, 51
1, 105595, Note_on_c, 0, 55, 33
1, 105646, Note_off_c, 0, 55, 58
1, 105670, Note_on_c, 0, 64, 47
1, 105720, Note_off_c, 0, 64, 61
1, 105740, Note_off_c, 0, 77, 62
1, 105752, Note_on_c, 0, 76, 52
1, 105763, Note_on_c, 0, 60, 44
1, 105768, Control_c, 0, 64, 33
1, 105783, Note_off_c, 0, 76, 63
1, 105798, Control_c, 0, 64, 34
1, 105810, Note_off_c, 0, 60, 58
1, 105837, Note_on_c, 0, 64, 41
1, 105858, Control_c, 0, 64, 35
1, 105867, Note_off_c, 0, 64, 57
1, 105916, Note_on_c, 0, 55, 52
1, 105926, Note_on_c, 0, 75, 58
1, 105931, Control_c, 0, 64, 36
1, 105971, Note_off_c, 0, 55, 57
1, 106011, Note_on_c, 0, 63, 45
1, 106020, Control_c, 0, 64, 37
1, 106055, Note_off_c, 0, 63, 61
1, 106064, Control_c, 0, 64, 38
1, 106092, Note_on_c, 0, 60, 41
1, 106123, Control_c, 0, 64, 38
1, 106160, Note_off_c, 0, 60, 56
1, 106168, Control_c, 0, 64, 39
1, 106169, Note_on_c, 0, 63, 41
1, 106228, Control_c, 0, 64, 40
1, 106236, Note_off_c, 0, 63, 59
1, 106256, Note_on_c, 0, 55, 46
1, 106271, Note_off_c, 0, 75, 62
1, 106273, Control_c, 0, 64, 41
1, 106332, Note_off_c, 0, 55, 54
1, 106358, Note_on_c, 0, 63, 55
1, 106372, Note_on_c, 0, 75, 57
1, 106391, Note_off_c, 0, 63, 63
1, 106414, Note_off_c, 0, 75, 60
1, 106424, Note_on_c, 0, 60, 41
1, 106428, Control_c, 0, 64, 40
1, 106449, Note_on_c, 0, 74, 51
1, 106472, Note_off_c, 0, 60, 58
1, 106486, Note_on_c, 0, 63, 51
1, 106495, Note_off_c, 0, 74, 60
1, 106517, Note_on_c, 0, 75, 67
1, 106558, Note_off_c, 0, 63, 54
1, 106577, Note_off_c, 0, 75, 61
1, 106586, Note_on_c, 0, 55, 49
1, 106591, Note_on_c, 0, 77, 68
1, 106642, Note_off_c, 0, 55, 61
1, 106647, Note_off_c, 0, 77, 57
1, 106673, Note_on_c, 0, 63, 54
1, 106674, Note_on_c, 0, 75, 62
1, 106695, Control_c, 0, 64, 39
1, 106707, Note_off_c, 0, 63, 65
1, 106710, Control_c, 0, 64, 38
1, 106716, Note_off_c, 0, 75, 60
1, 106739, Note_on_c, 0, 60, 45
1, 106752, Note_on_c, 0, 74, 53
1, 106793, Note_off_c, 0, 60, 56
1, 106796, Note_off_c, 0, 74, 61
1, 106804, Note_on_c, 0, 63, 47
1, 106826, Note_on_c, 0, 75, 59
1, 106883, Note_off_c, 0, 63, 52
1, 106887, Note_off_c, 0, 75, 58
1, 106910, Note_on_c, 0, 78, 60
1, 106916, Note_on_c, 0, 54, 36
1, 106946, Control_c, 0, 64, 39
1, 106961, Control_c, 0, 64, 40
1, 106976, Control_c, 0, 64, 41
1, 106991, Control_c, 0, 64, 41
1, 107008, Note_off_c, 0, 54, 55
1, 107019, Note_on_c, 0, 63, 47
1, 107036, Control_c, 0, 64, 42
1, 107083, Note_off_c, 0, 63, 56
1, 107105, Note_off_c, 0, 78, 58
1, 107122, Note_on_c, 0, 58, 42
1, 107130, Note_on_c, 0, 75, 61
1, 107155, Note_off_c, 0, 75, 67
1, 107171, Note_off_c, 0, 58, 61
1, 107196, Note_on_c, 0, 63, 45
1, 107217, Note_on_c, 0, 75, 66
1, 107238, Note_off_c, 0, 63, 61
1, 107246, Note_off_c, 0, 75, 64
1, 107259, Note_on_c, 0, 77, 70
1, 107265, Note_on_c, 0, 54, 49
1, 107280, Control_c, 0, 64, 41
1, 107297, Note_off_c, 0, 77, 62
1, 107298, Note_on_c, 0, 75, 68
1, 107326, Note_off_c, 0, 54, 53
1, 107336, Note_on_c, 0, 63, 51
1, 107419, Note_off_c, 0, 75, 65
1, 107423, Note_off_c, 0, 63, 59
1, 107437, Note_on_c, 0, 74, 62
1, 107441, Note_on_c, 0, 58, 44
1, 107484, Note_off_c, 0, 58, 59
1, 107497, Note_off_c, 0, 74, 64
1, 107500, Note_on_c, 0, 75, 75
1, 107525, Note_on_c, 0, 63, 45
1, 107571, Note_off_c, 0, 63, 58
1, 107596, Note_off_c, 0, 75, 62
1, 107596, Note_on_c, 0, 82, 78
1, 107606, Note_on_c, 0, 54, 56
1, 107658, Note_off_c, 0, 54, 55
1, 107683, Note_on_c, 0, 63, 50
1, 107762, Note_off_c, 0, 63, 62
1, 107768, Note_on_c, 0, 58, 53
1, 107807, Note_off_c, 0, 58, 60
1, 107810, Note_off_c, 0, 82, 62
1, 107816, Note_on_c, 0, 75, 68
1, 107847, Note_off_c, 0, 75, 67
1, 107855, Note_on_c, 0, 63, 55
1, 107899, Note_off_c, 0, 63, 59
1, 107906, Note_on_c, 0, 75, 74
1, 107910, Control_c, 0, 64, 41
1, 107925, Control_c, 0, 64, 40
1, 107927, Note_on_c, 0, 54, 59
1, 107943, Note_off_c, 0, 75, 62
1, 107949, Note_on_c, 0, 77, 72
1, 107970, Control_c, 0, 64, 39
1, 107984, Note_on_c, 0, 75, 62
1, 107992, Note_on_c, 0, 63, 62
1, 108002, Note_off_c, 0, 77, 61
1, 108047, Note_off_c, 0, 54, 36
1, 108073, Control_c, 0, 64, 40
1, 108084, Note_off_c, 0, 75, 64
1, 108088, Control_c, 0, 64, 41
1, 108089, Note_on_c, 0, 74, 74
1, 108091, Note_off_c, 0, 63, 62
1, 108095, Note_on_c, 0, 58, 59
1, 108152, Note_off_c, 0, 58, 56
1, 108153, Note_off_c, 0, 74, 62
1, 108165, Note_on_c, 0, 75, 71
1, 108178, Note_on_c, 0, 63, 61
1, 108187, Note_off_c, 0, 75, 68
1, 108207, Control_c, 0, 64, 41
1, 108251, Control_c, 0, 64, 40
1, 108251, Note_off_c, 0, 63, 60
1, 108263, Note_on_c, 0, 81, 85
1, 108266, Control_c, 0, 64, 0
1, 108278, Note_on_c, 0, 53, 57
1, 108285, Note_off_c, 0, 81, 71
1, 108344, Note_off_c, 0, 53, 52
1, 108355, Note_on_c, 0, 63, 61
1, 108441, Note_off_c, 0, 63, 60
1, 108452, Note_on_c, 0, 84, 91
1, 108456, Note_on_c, 0, 60, 58
1, 108473, Note_off_c, 0, 84, 69
1, 108547, Note_off_c, 0, 60, 58
1, 108554, Note_on_c, 0, 63, 63
1, 108687, Note_off_c, 0, 63, 49
1, 108690, Note_on_c, 0, 53, 46
1, 108692, Note_on_c, 0, 87, 80
1, 108796, Note_on_c, 0, 63, 57
1, 108796, Note_off_c, 0, 53, 55
1, 108868, Note_off_c, 0, 63, 63
1, 108885, Note_on_c, 0, 60, 55
1, 108969, Note_off_c, 0, 60, 60
1, 108982, Note_on_c, 0, 63, 54
1, 109035, Note_off_c, 0, 63, 58
1, 109053, Note_on_c, 0, 53, 57
1, 109115, Note_off_c, 0, 53, 47
1, 109116, Note_off_c, 0, 87, 66
1, 109118, Note_on_c, 0, 89, 79
1, 109142, Note_on_c, 0, 63, 63
1, 109198, Note_on_c, 0, 86, 82
1, 109203, Note_off_c, 0, 89, 66
1, 109205, Note_off_c, 0, 63, 60
1, 109221, Note_on_c, 0, 60, 61
1, 109285, Note_on_c, 0, 87, 84
1, 109287, Note_off_c, 0, 86, 66
1, 109293, Note_off_c, 0, 60, 60
1, 109301, Note_on_c, 0, 63, 60
1, 109364, Note_off_c, 0, 63, 57
1, 109372, Note_off_c, 0, 87, 66
1, 109377, Note_on_c, 0, 84, 79
1, 109383, Note_on_c, 0, 53, 59
1, 109447, Note_off_c, 0, 53, 53
1, 109457, Note_on_c, 0, 86, 76
1, 109459, Note_off_c, 0, 84, 63
1, 109472, Note_on_c, 0, 63, 61
1, 109531, Note_off_c, 0, 86, 62
1, 109533, Note_off_c, 0, 63, 60
1, 109538, Note_on_c, 0, 82, 72
1, 109556, Note_on_c, 0, 60, 56
1, 109609, Note_off_c, 0, 82, 66
1, 109615, Note_off_c, 0, 60, 55
1, 109617, Note_on_c, 0, 84, 74
1, 109635, Note_on_c, 0, 63, 54
1, 109677, Note_off_c, 0, 63, 60
1, 109698, Note_off_c, 0, 84, 63
1, 109712, Note_on_c, 0, 81, 72
1, 109712, Note_on_c, 0, 53, 45
1, 109777, Note_off_c, 0, 81, 57
1, 109783, Note_off_c, 0, 53, 48
1, 109789, Note_on_c, 0, 82, 65
1, 109806, Note_on_c, 0, 63, 48
1, 109851, Note_off_c, 0, 63, 61
1, 109855, Note_off_c, 0, 82, 65
1, 109870, Note_on_c, 0, 84, 69
1, 109879, Note_on_c, 0, 60, 47
1, 109943, Note_off_c, 0, 60, 53
1, 109948, Note_off_c, 0, 84, 61
1, 109954, Note_on_c, 0, 82, 64
1, 109955, Note_on_c, 0, 63, 49
1, 110009, Note_off_c, 0, 63, 59
1, 110019, Note_off_c, 0, 82, 66
1, 110029, Note_on_c, 0, 81, 77
1, 110031, Note_on_c, 0, 53, 52
1, 110108, Note_off_c, 0, 81, 63
1, 110109, Note_off_c, 0, 53, 52
1, 110114, Note_on_c, 0, 63, 65
1, 110115, Note_on_c, 0, 82, 78
1, 110186, Note_off_c, 0, 63, 64
1, 110192, Note_off_c, 0, 82, 66
1, 110198, Note_on_c, 0, 84, 82
1, 110199, Note_on_c, 0, 60, 59
1, 110272, Note_on_c, 0, 86, 84
1, 110276, Note_on_c, 0, 63, 62
1, 110278, Note_off_c, 0, 60, 57
1, 110280, Note_off_c, 0, 84, 61
1, 110324, Note_off_c, 0, 63, 61
1, 110358, Note_on_c, 0, 87, 85
1, 110359, Note_on_c, 0, 53, 63
1, 110361, Note_off_c, 0, 86, 65
1, 110441, Note_on_c, 0, 86, 80
1, 110450, Note_on_c, 0, 60, 61
1, 110453, Note_off_c, 0, 87, 55
1, 110455, Note_off_c, 0, 53, 61
1, 110511, Note_off_c, 0, 86, 62
1, 110523, Note_on_c, 0, 84, 79
1, 110534, Note_on_c, 0, 57, 68
1, 110534, Note_off_c, 0, 60, 60
1, 110577, Note_off_c, 0, 57, 55
1, 110600, Note_on_c, 0, 82, 75
1, 110603, Note_off_c, 0, 84, 63
1, 110610, Note_on_c, 0, 60, 60
1, 110679, Note_on_c, 0, 81, 86
1, 110679, Note_off_c, 0, 60, 61
1, 110687, Note_on_c, 0, 53, 66
1, 110690, Note_off_c, 0, 82, 54
1, 110738, Note_off_c, 0, 81, 64
1, 110752, Note_on_c, 0, 79, 75
1, 110757, Note_on_c, 0, 60, 62
1, 110758, Note_off_c, 0, 53, 61
1, 110841, Note_off_c, 0, 60, 61
1, 110848, Note_on_c, 0, 57, 62
1, 110851, Note_off_c, 0, 79, 60
1, 110852, Note_on_c, 0, 77, 64
1, 110884, Note_off_c, 0, 57, 65
1, 110884, Note_off_c, 0, 77, 64
1, 110899, Note_on_c, 0, 75, 60
1, 110920, Note_on_c, 0, 60, 55
1, 110923, Note_off_c, 0, 75, 65
1, 110978, Note_on_c, 0, 77, 60
1, 110997, Note_off_c, 0, 60, 52
1, 111003, Note_on_c, 0, 75, 62
1, 111012, Note_on_c, 0, 54, 60
1, 111025, Note_off_c, 0, 77, 62
1, 111057, Note_off_c, 0, 54, 59
1, 111103, Note_on_c, 0, 60, 56
1, 111152, Note_off_c, 0, 60, 56
1, 111152, Note_off_c, 0, 75, 64
1, 111166, Note_on_c, 0, 74, 63
1, 111178, Note_on_c, 0, 57, 53
1, 111195, Note_off_c, 0, 74, 66
1, 111229, Note_off_c, 0, 57, 56
1, 111276, Note_on_c, 0, 60, 37
1, 111354, Note_off_c, 0, 60, 57
1, 111367, Note_on_c, 0, 74, 68
1, 111368, Note_on_c, 0, 54, 40
1, 111429, Note_off_c, 0, 54, 58
1, 111460, Note_on_c, 0, 60, 44
1, 111521, Note_off_c, 0, 60, 59
1, 111533, Note_on_c, 0, 57, 53
1, 111597, Note_off_c, 0, 57, 60
1, 111644, Note_on_c, 0, 60, 52
1, 111722, Note_off_c, 0, 60, 58
1, 111722, Note_off_c, 0, 74, 60
1, 111724, Note_on_c, 0, 54, 55
1, 111814, Note_off_c, 0, 54, 55
1, 111829, Note_on_c, 0, 60, 51
1, 111868, Note_off_c, 0, 60, 63
1, 111892, Note_on_c, 0, 57, 47
1, 111899, Note_on_c, 0, 74, 67
1, 111936, Note_off_c, 0, 57, 60
1, 111972, Note_on_c, 0, 60, 47
1, 112019, Note_off_c, 0, 60, 60
1, 112060, Note_on_c, 0, 54, 50
1, 112062, Note_off_c, 0, 74, 60
1, 112070, Note_on_c, 0, 86, 52
1, 112098, Note_off_c, 0, 86, 54
1, 112129, Note_off_c, 0, 54, 51
1, 112145, Note_on_c, 0, 62, 43
1, 112202, Note_off_c, 0, 62, 45
1, 112240, Note_on_c, 0, 57, 41
1, 112260, Note_on_c, 0, 84, 62
1, 112294, Note_off_c, 0, 57, 58
1, 112337, Note_on_c, 0, 62, 33
1, 112421, Note_off_c, 0, 62, 59
1, 112435, Note_on_c, 0, 55, 50
1, 112487, Note_off_c, 0, 55, 58
1, 112521, Note_on_c, 0, 62, 42
1, 112579, Note_off_c, 0, 62, 59
1, 112596, Note_on_c, 0, 58, 59
1, 112602, Note_on_c, 0, 82, 75
1, 112634, Note_off_c, 0, 84, 64
1, 112660, Note_off_c, 0, 58, 58
1, 112688, Note_on_c, 0, 62, 59
1, 112750, Note_off_c, 0, 62, 49
1, 112771, Note_on_c, 0, 53, 62
1, 112846, Note_off_c, 0, 53, 62
1, 112853, Note_on_c, 0, 62, 66
1, 112937, Note_on_c, 0, 81, 89
1, 112937, Note_off_c, 0, 62, 56
1, 112941, Note_on_c, 0, 57, 64
1, 112958, Note_off_c, 0, 82, 64
1, 112994, Note_off_c, 0, 57, 60
1, 113028, Note_on_c, 0, 62, 62
1, 113102, Note_off_c, 0, 62, 57
1, 113105, Note_on_c, 0, 52, 66
1, 113182, Note_off_c, 0, 81, 64
1, 113187, Note_on_c, 0, 79, 75
1, 113190, Note_on_c, 0, 62, 67
1, 113190, Note_off_c, 0, 52, 54
1, 113265, Note_on_c, 0, 82, 76
1, 113268, Note_off_c, 0, 79, 61
1, 113271, Note_off_c, 0, 62, 61
1, 113274, Note_on_c, 0, 55, 62
1, 113332, Note_off_c, 0, 55, 55
1, 113344, Note_on_c, 0, 62, 60
1, 113345, Note_off_c, 0, 82, 65
1, 113346, Note_on_c, 0, 81, 88
1, 113413, Note_off_c, 0, 62, 61
1, 113426, Note_off_c, 0, 81, 65
1, 113426, Note_on_c, 0, 84, 82
1, 113429, Note_on_c, 0, 51, 73
1, 113513, Note_on_c, 0, 61, 77
1, 113514, Note_on_c, 0, 82, 75
1, 113519, Note_off_c, 0, 84, 63
1, 113543, Note_off_c, 0, 51, 55
1, 113593, Note_off_c, 0, 61, 62
1, 113596, Note_on_c, 0, 81, 89
1, 113597, Note_on_c, 0, 55, 64
1, 113603, Note_off_c, 0, 82, 62
1, 113656, Note_on_c, 0, 61, 63
1, 113665, Note_off_c, 0, 55, 63
1, 113673, Note_off_c, 0, 81, 65
1, 113679, Note_on_c, 0, 79, 78
1, 113709, Note_off_c, 0, 61, 64
1, 113733, Note_off_c, 0, 79, 61
1, 113760, Note_on_c, 0, 50, 71
1, 113760, Note_on_c, 0, 62, 65
1, 113767, Note_on_c, 0, 78, 77
1, 113838, Note_off_c, 0, 78, 65
1, 113877, Note_on_c, 0, 74, 44
1, 113879, Note_on_c, 0, 72, 53
1, 113903, Note_off_c, 0, 74, 58
1, 113905, Note_off_c, 0, 72, 56
1, 113931, Note_off_c, 0, 62, 54
1, 113941, Note_on_c, 0, 86, 52
1, 113999, Note_off_c, 0, 50, 63
1, 114015, Note_off_c, 0, 86, 65
1, 114017, Note_on_c, 0, 85, 74
1, 114099, Note_off_c, 0, 85, 64
1, 114107, Note_on_c, 0, 86, 75
1, 114183, Note_off_c, 0, 86, 65
1, 114186, Note_on_c, 0, 85, 79
1, 114265, Note_off_c, 0, 85, 65
1, 114271, Note_on_c, 0, 86, 78
1, 114344, Note_on_c, 0, 85, 81
1, 114347, Note_off_c, 0, 86, 64
1, 114371, Note_off_c, 0, 85, 66
1, 114438, Note_on_c, 0, 86, 81
1, 114511, Note_on_c, 0, 87, 80
1, 114521, Note_off_c, 0, 86, 59
1, 114602, Note_on_c, 0, 84, 81
1, 114603, Note_off_c, 0, 87, 66
1, 114676, Note_off_c, 0, 84, 64
1, 114681, Note_on_c, 0, 86, 80
1, 114756, Note_off_c, 0, 86, 61
1, 114763, Note_on_c, 0, 62, 64
1, 114764, Note_on_c, 0, 66, 75
1, 114765, Note_on_c, 0, 82, 75
1, 114843, Note_off_c, 0, 82, 65
1, 114848, Note_on_c, 0, 84, 78
1, 114908, Note_off_c, 0, 84, 61
1, 114927, Note_on_c, 0, 81, 75
1, 114998, Note_off_c, 0, 81, 56
1, 115006, Note_on_c, 0, 82, 71
1, 115055, Note_off_c, 0, 62, 54
1, 115090, Note_off_c, 0, 82, 64
1, 115100, Note_on_c, 0, 79, 66
1, 115104, Note_on_c, 0, 63, 40
1, 115109, Note_off_c, 0, 66, 57
1, 115122, Note_on_c, 0, 67, 47
1, 115175, Note_off_c, 0, 79, 61
1, 115191, Note_on_c, 0, 81, 77
1, 115197, Note_off_c, 0, 67, 62
1, 115200, Note_off_c, 0, 63, 63
1, 115268, Note_off_c, 0, 81, 63
1, 115283, Note_on_c, 0, 77, 63
1, 115355, Note_off_c, 0, 77, 59
1, 115366, Note_on_c, 0, 79, 76
1, 115435, Note_off_c, 0, 79, 62
1, 115449, Note_on_c, 0, 75, 72
1, 115526, Note_off_c, 0, 75, 63
1, 115527, Note_on_c, 0, 77, 72
1, 115602, Note_off_c, 0, 77, 62
1, 115608, Note_on_c, 0, 74, 64
1, 115668, Note_off_c, 0, 74, 59
1, 115678, Note_on_c, 0, 75, 73
1, 115769, Note_off_c, 0, 75, 63
1, 115777, Note_on_c, 0, 73, 76
1, 115957, Note_on_c, 0, 82, 58
1, 115960, Note_off_c, 0, 73, 60
1, 116115, Note_off_c, 0, 82, 65
1, 116135, Note_on_c, 0, 51, 38
1, 116136, Note_on_c, 0, 81, 66
1, 116148, Control_c, 0, 64, 18
1, 116150, Note_on_c, 0, 61, 42
1, 116163, Control_c, 0, 64, 40
1, 116177, Control_c, 0, 64, 50
1, 116192, Control_c, 0, 64, 55
1, 116207, Control_c, 0, 64, 59
1, 116222, Control_c, 0, 64, 61
1, 116269, Note_off_c, 0, 81, 54
1, 116295, Control_c, 0, 64, 60
1, 116299, Note_on_c, 0, 79, 54
1, 116325, Control_c, 0, 64, 60
1, 116328, Note_off_c, 0, 79, 66
1, 116340, Control_c, 0, 64, 59
1, 116355, Control_c, 0, 64, 59
1, 116369, Control_c, 0, 64, 58
1, 116384, Control_c, 0, 64, 57
1, 116386, Note_off_c, 0, 61, 56
1, 116399, Control_c, 0, 64, 57
1, 116414, Control_c, 0, 64, 56
1, 116429, Control_c, 0, 64, 55
1, 116443, Control_c, 0, 64, 54
1, 116458, Control_c, 0, 64, 53
1, 116473, Control_c, 0, 64, 52
1, 116485, Note_on_c, 0, 78, 45
1, 116486, Note_on_c, 0, 62, 31
1, 116488, Control_c, 0, 64, 50
1, 116491, Note_on_c, 0, 50, 21
1, 116497, Note_off_c, 0, 51, 45
1, 116503, Control_c, 0, 64, 49
1, 116518, Control_c, 0, 64, 47
1, 116532, Control_c, 0, 64, 45
1, 116547, Control_c, 0, 64, 43
1, 116558, Note_off_c, 0, 78, 56
1, 116559, Note_on_c, 0, 73, 53
1, 116562, Control_c, 0, 64, 41
1, 116577, Control_c, 0, 64, 40
1, 116592, Control_c, 0, 64, 38
1, 116607, Control_c, 0, 64, 36
1, 116616, Note_off_c, 0, 73, 59
1, 116649, Note_on_c, 0, 74, 48
1, 116652, Control_c, 0, 64, 35
1, 116661, Note_off_c, 0, 62, 45
1, 116669, Note_off_c, 0, 50, 46
1, 116696, Note_off_c, 0, 74, 64
1, 116732, Note_on_c, 0, 73, 50
1, 116774, Note_off_c, 0, 73, 56
1, 116828, Note_on_c, 0, 74, 47
1, 116837, Control_c, 0, 64, 36
1, 116869, Note_off_c, 0, 74, 65
1, 116889, Note_on_c, 0, 73, 57
1, 116952, Note_off_c, 0, 73, 60
1, 116983, Note_on_c, 0, 74, 51
1, 117027, Note_off_c, 0, 74, 65
1, 117057, Note_on_c, 0, 73, 59
1, 117096, Note_off_c, 0, 73, 61
1, 117148, Control_c, 0, 64, 35
1, 117149, Note_on_c, 0, 74, 41
1, 117202, Note_off_c, 0, 74, 61
1, 117207, Control_c, 0, 64, 34
1, 117222, Note_on_c, 0, 75, 59
1, 117222, Control_c, 0, 64, 33
1, 117266, Control_c, 0, 64, 32
1, 117274, Note_off_c, 0, 75, 59
1, 117306, Note_on_c, 0, 72, 60
1, 117370, Control_c, 0, 64, 31
1, 117375, Note_off_c, 0, 72, 61
1, 117388, Note_on_c, 0, 74, 54
1, 117446, Note_off_c, 0, 74, 61
1, 117466, Note_on_c, 0, 70, 59
1, 117471, Note_on_c, 0, 50, 50
1, 117474, Note_on_c, 0, 60, 48
1, 117524, Note_off_c, 0, 70, 52
1, 117550, Note_on_c, 0, 72, 70
1, 117598, Note_off_c, 0, 72, 63
1, 117600, Control_c, 0, 64, 30
1, 117632, Note_on_c, 0, 69, 54
1, 117673, Control_c, 0, 64, 28
1, 117681, Note_off_c, 0, 69, 55
1, 117710, Note_on_c, 0, 70, 60
1, 117747, Control_c, 0, 64, 27
1, 117779, Note_off_c, 0, 70, 59
1, 117791, Note_off_c, 0, 60, 51
1, 117802, Note_on_c, 0, 58, 46
1, 117802, Note_on_c, 0, 67, 60
1, 117811, Note_on_c, 0, 51, 42
1, 117815, Note_off_c, 0, 50, 51
1, 117868, Note_off_c, 0, 67, 59
1, 117890, Note_on_c, 0, 69, 58
1, 117895, Control_c, 0, 64, 26
1, 117950, Note_off_c, 0, 58, 50
1, 117963, Note_off_c, 0, 69, 60
1, 117967, Note_off_c, 0, 51, 51
1, 117974, Note_on_c, 0, 65, 68
1, 118044, Note_off_c, 0, 65, 65
1, 118054, Note_on_c, 0, 67, 69
1, 118103, Control_c, 0, 64, 27
1, 118121, Note_off_c, 0, 67, 63
1, 118128, Note_on_c, 0, 63, 72
1, 118214, Note_on_c, 0, 65, 75
1, 118215, Note_off_c, 0, 63, 64
1, 118252, Control_c, 0, 64, 26
1, 118281, Control_c, 0, 64, 24
1, 118291, Note_off_c, 0, 65, 65
1, 118296, Note_on_c, 0, 62, 71
1, 118296, Control_c, 0, 64, 22
1, 118319, Control_c, 0, 64, 18
1, 118349, Control_c, 0, 64, 15
1, 118378, Note_off_c, 0, 62, 62
1, 118382, Note_on_c, 0, 63, 76
1, 118467, Control_c, 0, 64, 18
1, 118470, Note_off_c, 0, 63, 63
1, 118480, Note_on_c, 0, 61, 78
1, 118497, Control_c, 0, 64, 20
1, 118527, Control_c, 0, 64, 22
1, 118658, Note_on_c, 0, 67, 63
1, 118664, Note_off_c, 0, 61, 57
1, 118813, Note_off_c, 0, 67, 61
1, 118832, Note_on_c, 0, 70, 59
1, 118834, Note_on_c, 0, 51, 40
1, 118851, Note_on_c, 0, 55, 36
1, 118979, Note_off_c, 0, 70, 62
1, 119004, Note_off_c, 0, 51, 47
1, 119021, Note_on_c, 0, 61, 54
1, 119045, Control_c, 0, 64, 24
1, 119125, Note_off_c, 0, 61, 56
1, 119127, Control_c, 0, 64, 26
1, 119180, Note_off_c, 0, 55, 42
1, 119197, Note_on_c, 0, 50, 40
1, 119207, Note_on_c, 0, 62, 33
1, 119211, Note_on_c, 0, 57, 34
1, 119241, Note_off_c, 0, 62, 49
1, 119246, Note_off_c, 0, 57, 60
1, 119247, Note_off_c, 0, 50, 60
1, 119264, Poly_aftertouch_c, 0, 54, 0
1, 119389, Note_on_c, 0, 74, 38
1, 119417, Note_off_c, 0, 74, 57
1, 119550, Note_on_c, 0, 50, 49
1, 119553, Note_on_c, 0, 55, 46
1, 119555, Note_on_c, 0, 58, 39
1, 119587, Note_off_c, 0, 50, 63
1, 119587, Note_off_c, 0, 55, 64
1, 119588, Note_off_c, 0, 58, 64
1, 119660, Control_c, 0, 64, 24
1, 119736, Note_on_c, 0, 74, 67
1, 119773, Note_off_c, 0, 74, 64
1, 119909, Note_on_c, 0, 50, 63
1, 119912, Note_on_c, 0, 57, 62
1, 119923, Note_on_c, 0, 54, 46
1, 119940, Note_off_c, 0, 50, 64
1, 119940, Note_off_c, 0, 57, 65
1, 119950, Note_off_c, 0, 54, 56
1, 120102, Note_on_c, 0, 74, 50
1, 120139, Note_off_c, 0, 74, 65
1, 120157, Control_c, 0, 64, 26
1, 120187, Control_c, 0, 64, 27
1, 120253, Note_on_c, 0, 58, 41
1, 120264, Note_on_c, 0, 50, 45
1, 120266, Note_on_c, 0, 55, 39
1, 120276, Control_c, 0, 64, 28
1, 120306, Note_off_c, 0, 55, 63
1, 120309, Note_off_c, 0, 50, 61
1, 120315, Note_off_c, 0, 58, 58
1, 120394, Control_c, 0, 64, 30
1, 120469, Note_on_c, 0, 74, 32
1, 120513, Note_off_c, 0, 74, 62
1, 120625, Control_c, 0, 64, 31
1, 120650, Note_on_c, 0, 50, 28
1, 120671, Note_on_c, 0, 57, 21
1, 120680, Note_on_c, 0, 54, 12
1, 120834, Note_on_c, 0, 74, 24
1, 120925, Note_off_c, 0, 50, 42
1, 120977, Note_off_c, 0, 54, 50
1, 120994, Note_off_c, 0, 74, 50
1, 121001, Note_on_c, 0, 73, 46
1, 121003, Note_off_c, 0, 57, 42
1, 121161, Note_off_c, 0, 73, 56
1, 121183, Note_on_c, 0, 74, 35
1, 121188, Control_c, 0, 64, 32
1, 121217, Control_c, 0, 64, 33
1, 121218, Note_off_c, 0, 74, 55
1, 121232, Control_c, 0, 64, 35
1, 121276, Control_c, 0, 64, 36
1, 121365, Note_on_c, 0, 73, 46
1, 121537, Note_off_c, 0, 73, 57
1, 121538, Note_on_c, 0, 74, 49
1, 121641, Control_c, 0, 64, 35
1, 121686, Control_c, 0, 64, 34
1, 121701, Note_off_c, 0, 74, 58
1, 121707, Note_on_c, 0, 73, 54
1, 121715, Control_c, 0, 64, 33
1, 121730, Control_c, 0, 64, 32
1, 121789, Control_c, 0, 64, 31
1, 121833, Control_c, 0, 64, 30
1, 121878, Control_c, 0, 64, 28
1, 121881, Note_off_c, 0, 73, 55
1, 121898, Note_on_c, 0, 74, 34
1, 121996, Control_c, 0, 64, 27
1, 122026, Control_c, 0, 64, 26
1, 122077, Control_c, 0, 64, 24
1, 122082, Note_on_c, 0, 77, 38
1, 122100, Note_off_c, 0, 74, 42
1, 122217, Note_on_c, 0, 60, 42
1, 122237, Note_on_c, 0, 69, 37
1, 122248, Note_on_c, 0, 65, 36
1, 122274, Note_off_c, 0, 60, 59
1, 122275, Note_off_c, 0, 69, 56
1, 122277, Note_off_c, 0, 65, 53
1, 122286, Control_c, 0, 64, 22
1, 122394, Note_on_c, 0, 69, 49
1, 122407, Note_on_c, 0, 60, 48
1, 122410, Note_on_c, 0, 65, 25
1, 122414, Note_off_c, 0, 77, 53
1, 122417, Note_on_c, 0, 75, 44
1, 122428, Note_off_c, 0, 69, 62
1, 122433, Note_off_c, 0, 60, 57
1, 122438, Note_off_c, 0, 65, 53
1, 122560, Note_on_c, 0, 60, 37
1, 122567, Control_c, 0, 64, 24
1, 122580, Note_on_c, 0, 65, 19
1, 122586, Note_on_c, 0, 69, 19
1, 122607, Note_off_c, 0, 60, 58
1, 122620, Note_off_c, 0, 65, 48
1, 122626, Note_off_c, 0, 69, 43
1, 122626, Control_c, 0, 64, 26
1, 122757, Note_on_c, 0, 65, 30
1, 122761, Note_on_c, 0, 60, 35
1, 122761, Note_on_c, 0, 69, 26
1, 122761, Note_off_c, 0, 75, 51
1, 122811, Control_c, 0, 64, 27
1, 122870, Note_on_c, 0, 75, 47
1, 122914, Note_off_c, 0, 75, 62
1, 122951, Note_on_c, 0, 74, 41
1, 123002, Note_off_c, 0, 60, 45
1, 123004, Control_c, 0, 64, 28
1, 123007, Note_off_c, 0, 74, 59
1, 123023, Note_on_c, 0, 75, 57
1, 123034, Control_c, 0, 64, 30
1, 123036, Note_off_c, 0, 65, 42
1, 123048, Note_off_c, 0, 69, 49
1, 123049, Control_c, 0, 64, 31
1, 123064, Control_c, 0, 64, 32
1, 123078, Control_c, 0, 64, 33
1, 123086, Note_off_c, 0, 75, 62
1, 123093, Control_c, 0, 64, 34
1, 123105, Note_on_c, 0, 77, 64
1, 123108, Control_c, 0, 64, 35
1, 123123, Control_c, 0, 64, 36
1, 123153, Control_c, 0, 64, 37
1, 123158, Note_off_c, 0, 77, 59
1, 123168, Control_c, 0, 64, 38
1, 123183, Note_on_c, 0, 75, 66
1, 123243, Note_off_c, 0, 75, 62
1, 123266, Note_on_c, 0, 74, 57
1, 123286, Control_c, 0, 64, 37
1, 123301, Control_c, 0, 64, 36
1, 123315, Note_off_c, 0, 74, 58
1, 123316, Control_c, 0, 64, 35
1, 123330, Control_c, 0, 64, 33
1, 123345, Control_c, 0, 64, 32
1, 123346, Note_on_c, 0, 75, 51
1, 123360, Control_c, 0, 64, 31
1, 123375, Control_c, 0, 64, 30
1, 123439, Note_off_c, 0, 75, 60
1, 123456, Note_on_c, 0, 82, 46
1, 123605, Control_c, 0, 64, 31
1, 123625, Note_on_c, 0, 65, 51
1, 123629, Note_on_c, 0, 75, 41
1, 123634, Control_c, 0, 64, 32
1, 123642, Note_on_c, 0, 72, 43
1, 123649, Control_c, 0, 64, 33
1, 123664, Note_off_c, 0, 65, 65
1, 123665, Note_off_c, 0, 75, 59
1, 123670, Note_off_c, 0, 72, 59
1, 123678, Control_c, 0, 64, 34
1, 123693, Control_c, 0, 64, 35
1, 123708, Control_c, 0, 64, 36
1, 123737, Control_c, 0, 64, 38
1, 123752, Control_c, 0, 64, 38
1, 123767, Control_c, 0, 64, 39
1, 123783, Control_c, 0, 64, 40
1, 123798, Note_on_c, 0, 75, 50
1, 123802, Note_on_c, 0, 81, 80
1, 123804, Note_on_c, 0, 72, 51
1, 123809, Note_on_c, 0, 65, 51
1, 123813, Control_c, 0, 64, 41
1, 123821, Note_off_c, 0, 82, 62
1, 123833, Note_off_c, 0, 75, 62
1, 123839, Note_off_c, 0, 72, 65
1, 123840, Note_off_c, 0, 65, 65
1, 123964, Note_on_c, 0, 75, 59
1, 123964, Note_on_c, 0, 65, 63
1, 123964, Note_on_c, 0, 72, 67
1, 123996, Note_off_c, 0, 75, 64
1, 124001, Note_off_c, 0, 65, 66
1, 124002, Note_off_c, 0, 72, 66
1, 124006, Control_c, 0, 64, 39
1, 124065, Control_c, 0, 64, 38
1, 124080, Control_c, 0, 64, 37
1, 124139, Note_off_c, 0, 81, 65
1, 124139, Control_c, 0, 64, 36
1, 124140, Note_on_c, 0, 72, 69
1, 124143, Note_on_c, 0, 65, 70
1, 124146, Note_on_c, 0, 75, 65
1, 124230, Note_on_c, 0, 81, 84
1, 124242, Control_c, 0, 64, 37
1, 124257, Control_c, 0, 64, 38
1, 124271, Control_c, 0, 64, 38
1, 124286, Control_c, 0, 64, 39
1, 124293, Note_off_c, 0, 81, 66
1, 124309, Control_c, 0, 64, 41
1, 124311, Note_off_c, 0, 65, 61
1, 124312, Note_on_c, 0, 79, 72
1, 124314, Note_off_c, 0, 75, 63
1, 124324, Control_c, 0, 64, 41
1, 124339, Control_c, 0, 64, 42
1, 124353, Control_c, 0, 64, 42
1, 124355, Note_off_c, 0, 72, 59
1, 124368, Control_c, 0, 64, 43
1, 124383, Control_c, 0, 64, 44
1, 124387, Note_off_c, 0, 79, 63
1, 124390, Note_on_c, 0, 81, 90
1, 124398, Control_c, 0, 64, 45
1, 124413, Control_c, 0, 64, 45
1, 124442, Control_c, 0, 64, 45
1, 124465, Note_on_c, 0, 82, 80
1, 124466, Note_off_c, 0, 81, 66
1, 124472, Control_c, 0, 64, 44
1, 124501, Control_c, 0, 64, 43
1, 124516, Control_c, 0, 64, 42
1, 124531, Control_c, 0, 64, 41
1, 124545, Note_off_c, 0, 82, 67
1, 124546, Control_c, 0, 64, 40
1, 124548, Note_on_c, 0, 81, 89
1, 124560, Control_c, 0, 64, 38
1, 124576, Control_c, 0, 64, 37
1, 124591, Control_c, 0, 64, 35
1, 124606, Control_c, 0, 64, 32
1, 124617, Note_off_c, 0, 81, 67
1, 124621, Control_c, 0, 64, 31
1, 124626, Note_on_c, 0, 79, 75
1, 124636, Control_c, 0, 64, 28
1, 124650, Control_c, 0, 64, 26
1, 124665, Control_c, 0, 64, 24
1, 124680, Control_c, 0, 64, 22
1, 124710, Control_c, 0, 64, 20
1, 124712, Note_on_c, 0, 81, 86
1, 124713, Note_off_c, 0, 79, 60
1, 124739, Control_c, 0, 64, 18
1, 124784, Control_c, 0, 64, 15
1, 124850, Note_on_c, 0, 89, 74
1, 124887, Note_off_c, 0, 81, 63
1, 124947, Control_c, 0, 64, 12
1, 125022, Note_on_c, 0, 65, 42
1, 125162, Control_c, 0, 64, 15
1, 125177, Control_c, 0, 64, 18
1, 125210, Note_on_c, 0, 87, 71
1, 125222, Control_c, 0, 64, 20
1, 125225, Note_on_c, 0, 72, 43
1, 125237, Control_c, 0, 64, 22
1, 125252, Note_off_c, 0, 89, 64
1, 125296, Control_c, 0, 64, 24
1, 125377, Note_on_c, 0, 75, 43
1, 125412, Note_off_c, 0, 72, 40
1, 125417, Note_off_c, 0, 65, 28
1, 125519, Control_c, 0, 64, 22
1, 125529, Note_off_c, 0, 87, 38
1, 125572, Note_on_c, 0, 66, 40
1, 125640, Note_off_c, 0, 75, 34
1, 125684, Note_on_c, 0, 87, 54
1, 125696, Control_c, 0, 64, 20
1, 125720, Note_off_c, 0, 87, 66
1, 125740, Control_c, 0, 64, 18
1, 125755, Note_on_c, 0, 86, 46
1, 125780, Note_off_c, 0, 66, 45
1, 125800, Note_off_c, 0, 86, 54
1, 125821, Control_c, 0, 64, 15
1, 125833, Note_on_c, 0, 87, 52
1, 125881, Control_c, 0, 64, 12
1, 125889, Note_off_c, 0, 87, 63
1, 125921, Note_on_c, 0, 89, 55
1, 125940, Control_c, 0, 64, 0
1, 125976, Note_off_c, 0, 89, 62
1, 126001, Note_on_c, 0, 87, 49
1, 126044, Note_off_c, 0, 87, 64
1, 126074, Note_on_c, 0, 85, 47
1, 126117, Note_off_c, 0, 85, 64
1, 126156, Note_on_c, 0, 84, 46
1, 126244, Note_off_c, 0, 84, 60
1, 126265, Note_on_c, 0, 82, 41
1, 126424, Note_on_c, 0, 65, 39
1, 126607, Note_off_c, 0, 82, 61
1, 126618, Note_on_c, 0, 81, 49
1, 126624, Note_on_c, 0, 72, 40
1, 126770, Note_off_c, 0, 72, 48
1, 126772, Note_on_c, 0, 75, 43
1, 126889, Note_off_c, 0, 65, 36
1, 126939, Note_on_c, 0, 66, 47
1, 127002, Note_off_c, 0, 75, 32
1, 127016, Note_off_c, 0, 81, 52
1, 127048, Note_on_c, 0, 87, 52
1, 127087, Note_off_c, 0, 87, 67
1, 127114, Note_on_c, 0, 86, 57
1, 127122, Note_off_c, 0, 66, 58
1, 127156, Note_off_c, 0, 86, 59
1, 127186, Note_on_c, 0, 87, 56
1, 127243, Note_off_c, 0, 87, 62
1, 127267, Note_on_c, 0, 89, 63
1, 127337, Note_off_c, 0, 89, 61
1, 127357, Note_on_c, 0, 87, 56
1, 127397, Note_off_c, 0, 87, 64
1, 127426, Note_on_c, 0, 85, 54
1, 127467, Note_off_c, 0, 85, 64
1, 127502, Note_on_c, 0, 84, 52
1, 127557, Note_off_c, 0, 84, 57
1, 127587, Note_on_c, 0, 82, 52
1, 127589, Note_on_c, 0, 65, 53
1, 127621, Note_off_c, 0, 65, 65
1, 127627, Note_off_c, 0, 82, 64
1, 127666, Note_on_c, 0, 81, 70
1, 127705, Note_off_c, 0, 81, 59
1, 127748, Note_on_c, 0, 87, 56
1, 127816, Note_off_c, 0, 87, 62
1, 127830, Note_on_c, 0, 86, 51
1, 127894, Note_off_c, 0, 86, 61
1, 127899, Note_on_c, 0, 72, 48
1, 127907, Note_on_c, 0, 89, 63
1, 127913, Note_on_c, 0, 75, 48
1, 127916, Note_on_c, 0, 66, 52
1, 127989, Note_off_c, 0, 89, 66
1, 128004, Note_on_c, 0, 87, 61
1, 128083, Note_off_c, 0, 87, 65
1, 128091, Note_on_c, 0, 85, 76
1, 128155, Note_off_c, 0, 85, 65
1, 128169, Note_on_c, 0, 84, 72
1, 128182, Note_off_c, 0, 66, 58
1, 128221, Note_off_c, 0, 75, 57
1, 128235, Note_off_c, 0, 84, 63
1, 128247, Note_on_c, 0, 82, 73
1, 128253, Note_on_c, 0, 65, 70
1, 128263, Note_off_c, 0, 72, 64
1, 128290, Note_off_c, 0, 65, 63
1, 128314, Note_off_c, 0, 82, 66
1, 128322, Note_on_c, 0, 81, 85
1, 128395, Note_off_c, 0, 81, 60
1, 128397, Note_on_c, 0, 87, 81
1, 128467, Note_on_c, 0, 86, 74
1, 128474, Note_off_c, 0, 87, 66
1, 128542, Note_on_c, 0, 72, 55
1, 128548, Note_on_c, 0, 89, 82
1, 128552, Note_on_c, 0, 75, 66
1, 128552, Note_off_c, 0, 86, 66
1, 128557, Note_on_c, 0, 66, 70
1, 128635, Note_on_c, 0, 87, 81
1, 128638, Note_off_c, 0, 89, 65
1, 128718, Note_on_c, 0, 85, 83
1, 128722, Note_off_c, 0, 87, 66
1, 128806, Note_off_c, 0, 85, 65
1, 128808, Note_on_c, 0, 84, 79
1, 128815, Note_off_c, 0, 66, 57
1, 128864, Note_off_c, 0, 75, 56
1, 128890, Note_off_c, 0, 84, 65
1, 128894, Note_on_c, 0, 82, 75
1, 128903, Note_on_c, 0, 65, 59
1, 128944, Note_off_c, 0, 72, 63
1, 128971, Note_off_c, 0, 82, 66
1, 128974, Note_on_c, 0, 81, 81
1, 129057, Note_off_c, 0, 81, 65
1, 129058, Note_on_c, 0, 84, 76
1, 129107, Note_off_c, 0, 65, 56
1, 129127, Note_on_c, 0, 83, 77
1, 129131, Note_off_c, 0, 84, 62
1, 129195, Note_off_c, 0, 83, 67
1, 129199, Note_on_c, 0, 86, 75
1, 129283, Note_on_c, 0, 84, 73
1, 129289, Note_off_c, 0, 86, 60
1, 129358, Note_on_c, 0, 82, 72
1, 129359, Note_off_c, 0, 84, 64
1, 129433, Note_off_c, 0, 82, 65
1, 129440, Note_on_c, 0, 81, 82
1, 129529, Note_on_c, 0, 79, 73
1, 129594, Note_off_c, 0, 81, 37
1, 129607, Note_off_c, 0, 79, 64
1, 129612, Note_on_c, 0, 77, 72
1, 129677, Note_off_c, 0, 77, 63
1, 129693, Note_on_c, 0, 79, 66
1, 129762, Note_off_c, 0, 79, 62
1, 129769, Note_on_c, 0, 78, 69
1, 129842, Note_off_c, 0, 78, 61
1, 129857, Note_on_c, 0, 81, 69
1, 129941, Note_off_c, 0, 81, 62
1, 129949, Note_on_c, 0, 79, 63
1, 129991, Note_off_c, 0, 79, 63
1, 130042, Note_on_c, 0, 77, 54
1, 130113, Note_off_c, 0, 77, 62
1, 130128, Note_on_c, 0, 75, 54
1, 130209, Note_off_c, 0, 75, 60
1, 130233, Note_on_c, 0, 74, 45
1, 130269, Note_off_c, 0, 74, 65
1, 130426, Note_on_c, 0, 72, 59
1, 130468, Note_off_c, 0, 72, 63
1, 130626, Note_on_c, 0, 74, 39
1, 130662, Note_off_c, 0, 74, 59
1, 130826, Note_on_c, 0, 75, 47
1, 130868, Note_off_c, 0, 75, 63
1, 131073, Note_on_c, 0, 76, 44
1, 131404, Control_c, 0, 64, 15
1, 131410, Note_on_c, 0, 77, 31
1, 131419, Control_c, 0, 64, 22
1, 131434, Control_c, 0, 64, 27
1, 131440, Note_off_c, 0, 76, 31
1, 131449, Control_c, 0, 64, 32
1, 131463, Control_c, 0, 64, 37
1, 131478, Control_c, 0, 64, 42
1, 131493, Control_c, 0, 64, 46
1, 131508, Control_c, 0, 64, 50
1, 131523, Control_c, 0, 64, 54
1, 131537, Control_c, 0, 64, 56
1, 131552, Control_c, 0, 64, 57
1, 131567, Control_c, 0, 64, 58
1, 131582, Control_c, 0, 64, 59
1, 131596, Control_c, 0, 64, 60
1, 131611, Control_c, 0, 64, 60
1, 131652, Note_off_c, 0, 77, 43
1, 131700, Control_c, 0, 64, 60
1, 131714, Control_c, 0, 64, 59
1, 131729, Control_c, 0, 64, 58
1, 131744, Control_c, 0, 64, 58
1, 131760, Control_c, 0, 64, 57
1, 131775, Control_c, 0, 64, 56
1, 131798, Control_c, 0, 64, 55
1, 131813, Control_c, 0, 64, 54
1, 131827, Control_c, 0, 64, 52
1, 131842, Control_c, 0, 64, 50
1, 131857, Control_c, 0, 64, 49
1, 131872, Control_c, 0, 64, 48
1, 131887, Note_on_c, 0, 79, 39
1, 131887, Control_c, 0, 64, 48
1, 131902, Control_c, 0, 64, 47
1, 131917, Control_c, 0, 64, 46
1, 131932, Control_c, 0, 64, 46
1, 131956, Note_off_c, 0, 79, 63
1, 131962, Control_c, 0, 64, 45
1, 131966, Note_on_c, 0, 77, 57
1, 131976, Control_c, 0, 64, 45
1, 131991, Control_c, 0, 64, 44
1, 132006, Control_c, 0, 64, 42
1, 132020, Control_c, 0, 64, 42
1, 132035, Control_c, 0, 64, 41
1, 132054, Note_off_c, 0, 77, 60
1, 132057, Note_on_c, 0, 75, 63
1, 132080, Control_c, 0, 64, 41
1, 132140, Note_off_c, 0, 75, 63
1, 132143, Note_on_c, 0, 74, 64
1, 132236, Note_on_c, 0, 72, 75
1, 132255, Note_off_c, 0, 74, 64
1, 132416, Note_off_c, 0, 72, 64
1, 132420, Note_on_c, 0, 70, 65
1, 132436, Note_on_c, 0, 58, 40
1, 132451, Note_off_c, 0, 70, 66
1, 132577, Control_c, 0, 64, 40
1, 132632, Note_on_c, 0, 70, 60
1, 132635, Note_on_c, 0, 62, 41
1, 132679, Note_off_c, 0, 58, 36
1, 132710, Control_c, 0, 64, 39
1, 132755, Control_c, 0, 64, 38
1, 132774, Note_off_c, 0, 62, 54
1, 132796, Note_on_c, 0, 65, 47
1, 132873, Control_c, 0, 64, 38
1, 132903, Control_c, 0, 64, 37
1, 132973, Note_off_c, 0, 70, 60
1, 132976, Control_c, 0, 64, 36
1, 132981, Note_on_c, 0, 62, 59
1, 133021, Control_c, 0, 64, 34
1, 133032, Note_off_c, 0, 65, 37
1, 133035, Control_c, 0, 64, 33
1, 133050, Control_c, 0, 64, 32
1, 133148, Note_on_c, 0, 74, 67
1, 133158, Note_off_c, 0, 62, 46
1, 133159, Note_on_c, 0, 58, 45
1, 133199, Control_c, 0, 64, 33
1, 133308, Control_c, 0, 64, 34
1, 133313, Note_off_c, 0, 58, 55
1, 133321, Note_on_c, 0, 79, 73
1, 133323, Note_on_c, 0, 62, 40
1, 133353, Control_c, 0, 64, 35
1, 133356, Note_off_c, 0, 74, 52
1, 133398, Control_c, 0, 64, 36
1, 133487, Control_c, 0, 64, 37
1, 133494, Note_off_c, 0, 62, 44
1, 133495, Note_off_c, 0, 79, 63
1, 133508, Note_on_c, 0, 74, 51
1, 133515, Note_on_c, 0, 65, 41
1, 133538, Note_off_c, 0, 74, 66
1, 133555, Note_off_c, 0, 65, 54
1, 133561, Control_c, 0, 64, 38
1, 133590, Control_c, 0, 64, 38
1, 133650, Control_c, 0, 64, 38
1, 133703, Note_on_c, 0, 77, 59
1, 133883, Note_on_c, 0, 60, 44
1, 134053, Note_off_c, 0, 60, 50
1, 134069, Note_on_c, 0, 63, 42
1, 134072, Note_on_c, 0, 75, 60
1, 134096, Note_off_c, 0, 77, 59
1, 134252, Note_on_c, 0, 67, 43
1, 134257, Note_off_c, 0, 63, 33
1, 134438, Note_on_c, 0, 63, 53
1, 134445, Note_off_c, 0, 75, 63
1, 134448, Note_off_c, 0, 67, 34
1, 134473, Control_c, 0, 64, 37
1, 134487, Control_c, 0, 64, 36
1, 134517, Control_c, 0, 64, 35
1, 134595, Note_off_c, 0, 63, 39
1, 134606, Control_c, 0, 64, 34
1, 134615, Note_on_c, 0, 60, 42
1, 134619, Note_on_c, 0, 77, 52
1, 134682, Note_off_c, 0, 77, 64
1, 134695, Note_on_c, 0, 79, 62
1, 134767, Note_off_c, 0, 79, 63
1, 134778, Note_on_c, 0, 63, 44
1, 134788, Note_on_c, 0, 77, 65
1, 134794, Note_off_c, 0, 60, 40
1, 134853, Note_off_c, 0, 77, 62
1, 134865, Control_c, 0, 64, 35
1, 134866, Note_on_c, 0, 75, 60
1, 134935, Note_off_c, 0, 75, 63
1, 134950, Note_on_c, 0, 74, 64
1, 134961, Note_off_c, 0, 63, 37
1, 134963, Note_on_c, 0, 67, 43
1, 135004, Note_off_c, 0, 67, 60
1, 135020, Note_off_c, 0, 74, 64
1, 135040, Note_on_c, 0, 72, 61
1, 135089, Control_c, 0, 64, 34
1, 135154, Note_off_c, 0, 72, 60
1, 135159, Note_on_c, 0, 70, 58
1, 135178, Control_c, 0, 64, 33
1, 135339, Note_on_c, 0, 53, 40
1, 135510, Note_on_c, 0, 69, 40
1, 135516, Note_off_c, 0, 53, 48
1, 135523, Note_off_c, 0, 70, 55
1, 135526, Note_on_c, 0, 60, 32
1, 135697, Note_on_c, 0, 63, 36
1, 135703, Note_off_c, 0, 60, 42
1, 135870, Note_on_c, 0, 60, 44
1, 135871, Note_off_c, 0, 63, 45
1, 135881, Note_off_c, 0, 69, 60
1, 136035, Note_on_c, 0, 69, 51
1, 136040, Note_on_c, 0, 53, 33
1, 136060, Control_c, 0, 64, 32
1, 136068, Note_off_c, 0, 60, 35
1, 136199, Note_on_c, 0, 60, 36
1, 136199, Note_off_c, 0, 69, 58
1, 136209, Note_off_c, 0, 53, 36
1, 136211, Note_on_c, 0, 70, 56
1, 136352, Note_off_c, 0, 60, 53
1, 136361, Note_off_c, 0, 70, 56
1, 136378, Note_on_c, 0, 72, 61
1, 136394, Note_on_c, 0, 63, 35
1, 136420, Note_off_c, 0, 72, 62
1, 136427, Note_off_c, 0, 63, 55
1, 136575, Note_on_c, 0, 72, 46
1, 136577, Note_on_c, 0, 69, 37
1, 136743, Note_on_c, 0, 58, 38
1, 136925, Note_off_c, 0, 72, 47
1, 136930, Note_off_c, 0, 69, 42
1, 136934, Note_on_c, 0, 70, 38
1, 136935, Note_off_c, 0, 58, 43
1, 136945, Note_on_c, 0, 74, 42
1, 136948, Note_on_c, 0, 62, 36
1, 137104, Note_off_c, 0, 62, 34
1, 137107, Note_on_c, 0, 65, 45
1, 137276, Note_on_c, 0, 62, 51
1, 137280, Note_off_c, 0, 70, 57
1, 137282, Note_off_c, 0, 65, 58
1, 137282, Note_off_c, 0, 74, 62
1, 137454, Note_off_c, 0, 62, 55
1, 137461, Note_on_c, 0, 77, 64
1, 137468, Note_on_c, 0, 58, 48
1, 137540, Note_on_c, 0, 76, 67
1, 137542, Note_off_c, 0, 77, 64
1, 137583, Note_off_c, 0, 58, 58
1, 137607, Note_on_c, 0, 62, 40
1, 137616, Control_c, 0, 64, 33
1, 137617, Note_off_c, 0, 76, 64
1, 137629, Note_on_c, 0, 79, 75
1, 137675, Control_c, 0, 64, 34
1, 137708, Note_on_c, 0, 77, 74
1, 137712, Note_off_c, 0, 79, 62
1, 137723, Note_off_c, 0, 62, 56
1, 137764, Note_on_c, 0, 65, 44
1, 137796, Note_on_c, 0, 75, 76
1, 137796, Note_off_c, 0, 77, 62
1, 137831, Control_c, 0, 64, 33
1, 137859, Note_off_c, 0, 75, 62
1, 137876, Control_c, 0, 64, 32
1, 137880, Note_off_c, 0, 65, 49
1, 137881, Note_on_c, 0, 74, 61
1, 137909, Note_off_c, 0, 74, 67
1, 137973, Note_on_c, 0, 74, 70
1, 137977, Note_on_c, 0, 63, 37
1, 137995, Control_c, 0, 64, 31
1, 138039, Control_c, 0, 64, 30
1, 138069, Control_c, 0, 64, 28
1, 138159, Note_on_c, 0, 72, 75
1, 138165, Note_on_c, 0, 67, 44
1, 138167, Note_off_c, 0, 74, 63
1, 138302, Note_off_c, 0, 67, 57
1, 138324, Note_off_c, 0, 63, 44
1, 138329, Note_on_c, 0, 62, 50
1, 138365, Note_off_c, 0, 72, 64
1, 138500, Note_on_c, 0, 70, 64
1, 138503, Note_on_c, 0, 65, 48
1, 138534, Note_off_c, 0, 70, 66
1, 138581, Control_c, 0, 64, 30
1, 138633, Note_off_c, 0, 65, 47
1, 138660, Note_off_c, 0, 62, 28
1, 138678, Note_on_c, 0, 74, 49
1, 138688, Note_on_c, 0, 63, 31
1, 138826, Note_off_c, 0, 74, 61
1, 138851, Note_on_c, 0, 72, 61
1, 138859, Note_off_c, 0, 63, 44
1, 138877, Note_on_c, 0, 67, 25
1, 139027, Note_on_c, 0, 60, 42
1, 139035, Note_off_c, 0, 72, 62
1, 139109, Note_off_c, 0, 67, 36
1, 139115, Control_c, 0, 64, 28
1, 139174, Control_c, 0, 64, 27
1, 139179, Note_off_c, 0, 60, 47
1, 139183, Note_on_c, 0, 69, 45
1, 139193, Note_on_c, 0, 63, 30
1, 139212, Note_off_c, 0, 69, 53
1, 139344, Note_on_c, 0, 62, 36
1, 139356, Note_on_c, 0, 70, 43
1, 139360, Note_off_c, 0, 63, 44
1, 139369, Note_on_c, 0, 65, 35
1, 139408, Note_off_c, 0, 70, 62
1, 139443, Note_on_c, 0, 72, 54
1, 139492, Note_off_c, 0, 72, 63
1, 139517, Note_on_c, 0, 70, 60
1, 139581, Note_off_c, 0, 70, 62
1, 139596, Note_on_c, 0, 69, 62
1, 139655, Control_c, 0, 64, 28
1, 139668, Note_off_c, 0, 69, 65
1, 139674, Note_on_c, 0, 70, 71
1, 139678, Note_off_c, 0, 65, 45
1, 139715, Note_off_c, 0, 62, 38
1, 139715, Control_c, 0, 64, 30
1, 139733, Note_off_c, 0, 70, 64
1, 139751, Note_on_c, 0, 72, 79
1, 139760, Control_c, 0, 64, 31
1, 139826, Note_off_c, 0, 72, 62
1, 139831, Note_on_c, 0, 74, 74
1, 139834, Control_c, 0, 64, 32
1, 139849, Control_c, 0, 64, 33
1, 139907, Note_on_c, 0, 75, 80
1, 139918, Note_off_c, 0, 74, 64
1, 139923, Control_c, 0, 64, 34
1, 139947, Note_off_c, 0, 75, 66
1, 139992, Note_on_c, 0, 76, 74
1, 140069, Note_off_c, 0, 76, 65
1, 140073, Note_on_c, 0, 77, 77
1, 140147, Note_off_c, 0, 77, 64
1, 140152, Note_on_c, 0, 76, 79
1, 140167, Control_c, 0, 64, 33
1, 140197, Control_c, 0, 64, 32
1, 140211, Control_c, 0, 64, 31
1, 140219, Note_off_c, 0, 76, 65
1, 140226, Note_on_c, 0, 77, 78
1, 140226, Control_c, 0, 64, 30
1, 140241, Control_c, 0, 64, 28
1, 140256, Control_c, 0, 64, 27
1, 140311, Note_off_c, 0, 77, 65
1, 140313, Note_on_c, 0, 79, 78
1, 140315, Control_c, 0, 64, 26
1, 140330, Control_c, 0, 64, 24
1, 140387, Note_on_c, 0, 77, 76
1, 140401, Note_off_c, 0, 79, 62
1, 140465, Note_on_c, 0, 75, 75
1, 140468, Note_off_c, 0, 77, 63
1, 140532, Note_off_c, 0, 75, 63
1, 140541, Note_on_c, 0, 74, 69
1, 140570, Note_off_c, 0, 74, 68
1, 140637, Note_on_c, 0, 74, 69
1, 140642, Control_c, 0, 64, 22
1, 140648, Note_on_c, 0, 63, 39
1, 140805, Note_off_c, 0, 74, 64
1, 140812, Note_on_c, 0, 72, 69
1, 140826, Control_c, 0, 64, 20
1, 140827, Note_on_c, 0, 67, 38
1, 140840, Note_off_c, 0, 72, 67
1, 140871, Control_c, 0, 64, 18
1, 140960, Control_c, 0, 64, 15
1, 140964, Note_off_c, 0, 67, 47
1, 140978, Note_off_c, 0, 63, 45
1, 140991, Note_on_c, 0, 62, 42
1, 141000, Note_on_c, 0, 72, 71
1, 141149, Note_off_c, 0, 72, 63
1, 141164, Note_on_c, 0, 70, 60
1, 141170, Note_on_c, 0, 65, 42
1, 141193, Note_off_c, 0, 70, 65
1, 141211, Control_c, 0, 64, 12
1, 141256, Control_c, 0, 64, 0
1, 141317, Note_off_c, 0, 65, 35
1, 141325, Note_off_c, 0, 62, 30
1, 141339, Note_on_c, 0, 63, 32
1, 141340, Note_on_c, 0, 74, 43
1, 141506, Note_off_c, 0, 74, 60
1, 141517, Note_on_c, 0, 72, 60
1, 141532, Note_on_c, 0, 67, 33
1, 141553, Note_off_c, 0, 72, 65
1, 141561, Note_off_c, 0, 63, 39
1, 141694, Note_on_c, 0, 72, 72
1, 141700, Note_on_c, 0, 60, 40
1, 141762, Note_off_c, 0, 67, 39
1, 141840, Note_off_c, 0, 72, 63
1, 141863, Note_on_c, 0, 69, 60
1, 141867, Note_off_c, 0, 60, 45
1, 141879, Note_on_c, 0, 63, 39
1, 141891, Note_off_c, 0, 69, 65
1, 141931, Control_c, 0, 64, 12
1, 142040, Note_on_c, 0, 62, 41
1, 142046, Note_on_c, 0, 65, 42
1, 142051, Note_on_c, 0, 70, 52
1, 142052, Note_off_c, 0, 63, 37
1, 142064, Control_c, 0, 64, 15
1, 142074, Note_off_c, 0, 70, 60
1, 142216, Note_on_c, 0, 72, 69
1, 142264, Note_off_c, 0, 72, 57
1, 142284, Note_off_c, 0, 65, 52
1, 142292, Note_off_c, 0, 62, 49
1, 142294, Note_on_c, 0, 74, 63
1, 142370, Note_on_c, 0, 75, 72
1, 142371, Note_off_c, 0, 74, 63
1, 142419, Note_off_c, 0, 75, 66
1, 142443, Note_on_c, 0, 77, 72
1, 142514, Note_off_c, 0, 77, 62
1, 142514, Note_on_c, 0, 79, 80
1, 142547, Control_c, 0, 64, 12
1, 142577, Control_c, 0, 64, 0
1, 142591, Note_off_c, 0, 79, 63
1, 142594, Note_on_c, 0, 81, 87
1, 142669, Note_off_c, 0, 81, 66
1, 142670, Note_on_c, 0, 82, 74
1, 142717, Note_off_c, 0, 82, 67
1, 142737, Note_on_c, 0, 84, 83
1, 142814, Note_on_c, 0, 86, 78
1, 142816, Note_off_c, 0, 84, 62
1, 142892, Note_on_c, 0, 87, 84
1, 142898, Note_off_c, 0, 86, 64
1, 142980, Note_on_c, 0, 89, 87
1, 142980, Note_off_c, 0, 87, 67
1, 143003, Note_off_c, 0, 89, 69
1, 143160, Note_on_c, 0, 89, 86
1, 143185, Note_off_c, 0, 89, 66
1, 143346, Note_on_c, 0, 89, 83
1, 143348, Note_on_c, 0, 57, 45
1, 143352, Note_on_c, 0, 77, 67
1, 143429, Note_off_c, 0, 57, 63
1, 143509, Note_on_c, 0, 87, 91
1, 143544, Note_off_c, 0, 89, 66
1, 143688, Note_on_c, 0, 58, 68
1, 143757, Note_off_c, 0, 58, 64
1, 143858, Note_on_c, 0, 86, 80
1, 143859, Note_off_c, 0, 87, 66
1, 143886, Note_off_c, 0, 86, 64
1, 144030, Note_on_c, 0, 86, 79
1, 144036, Note_off_c, 0, 77, 60
1, 144039, Note_on_c, 0, 51, 40
1, 144107, Note_off_c, 0, 51, 56
1, 144192, Note_off_c, 0, 86, 63
1, 144198, Note_on_c, 0, 84, 66
1, 144203, Note_on_c, 0, 75, 62
1, 144225, Note_off_c, 0, 84, 66
1, 144228, Note_off_c, 0, 75, 66
1, 144359, Note_on_c, 0, 82, 60
1, 144362, Note_on_c, 0, 53, 46
1, 144376, Note_on_c, 0, 74, 39
1, 144384, Note_off_c, 0, 82, 68
1, 144404, Note_off_c, 0, 53, 63
1, 144406, Note_off_c, 0, 74, 50
1, 144532, Note_on_c, 0, 81, 80
1, 144537, Note_on_c, 0, 72, 74
1, 144565, Note_off_c, 0, 81, 63
1, 144568, Note_off_c, 0, 72, 66
1, 144718, Note_on_c, 0, 82, 74
1, 144728, Note_on_c, 0, 74, 59
1, 144869, Note_off_c, 0, 74, 64
1, 144888, Note_off_c, 0, 82, 65
1, 144892, Note_on_c, 0, 46, 55
1, 144923, Note_off_c, 0, 46, 65
1, 145081, Note_on_c, 0, 70, 63
1, 145082, Note_on_c, 0, 50, 48
1, 145122, Note_off_c, 0, 50, 63
1, 145259, Note_on_c, 0, 53, 47
1, 145303, Note_off_c, 0, 53, 60
1, 145312, Note_off_c, 0, 70, 58
1, 145487, Note_on_c, 0, 58, 33
1, 145790, Note_off_c, 0, 58, 46
1, 145897, Note_on_c, 0, 67, 45
1, 145976, Note_off_c, 0, 67, 62
1, 145989, Note_on_c, 0, 65, 50
1, 146078, Note_off_c, 0, 65, 57
1, 146086, Note_on_c, 0, 63, 55
1, 146163, Note_off_c, 0, 63, 61
1, 146172, Note_on_c, 0, 62, 54
1, 146264, Note_off_c, 0, 62, 60
1, 146272, Note_on_c, 0, 60, 57
1, 146437, Note_off_c, 0, 60, 62
1, 146451, Note_on_c, 0, 58, 54
1, 146455, Note_on_c, 0, 46, 37
1, 146479, Note_off_c, 0, 58, 63
1, 146660, Note_on_c, 0, 50, 36
1, 146660, Note_on_c, 0, 58, 49
1, 146674, Note_off_c, 0, 46, 43
1, 146828, Note_on_c, 0, 53, 38
1, 146833, Note_off_c, 0, 50, 35
1, 146974, Note_off_c, 0, 58, 57
1, 147000, Note_off_c, 0, 53, 51
1, 147018, Note_on_c, 0, 50, 39
1, 147188, Note_on_c, 0, 70, 59
1, 147196, Note_off_c, 0, 50, 41
1, 147197, Note_on_c, 0, 46, 37
1, 147221, Note_off_c, 0, 70, 64
1, 147362, Note_off_c, 0, 46, 50
1, 147379, Note_on_c, 0, 50, 27
1, 147382, Note_on_c, 0, 70, 53
1, 147535, Note_off_c, 0, 50, 45
1, 147551, Note_off_c, 0, 70, 62
1, 147556, Note_on_c, 0, 72, 66
1, 147570, Note_on_c, 0, 53, 37
1, 147588, Note_off_c, 0, 72, 66
1, 147610, Note_off_c, 0, 53, 57
1, 147737, Note_on_c, 0, 70, 51
1, 147890, Note_off_c, 0, 70, 60
1, 147902, Note_on_c, 0, 46, 28
1, 147912, Note_on_c, 0, 69, 43
1, 147944, Note_off_c, 0, 69, 55
1, 148097, Note_on_c, 0, 68, 56
1, 148102, Note_on_c, 0, 50, 27
1, 148104, Note_off_c, 0, 46, 42
1, 148260, Note_off_c, 0, 50, 37
1, 148273, Note_on_c, 0, 53, 39
1, 148444, Note_off_c, 0, 53, 55
1, 148451, Note_on_c, 0, 50, 51
1, 148456, Note_off_c, 0, 68, 62
1, 148604, Note_off_c, 0, 50, 50
1, 148624, Note_on_c, 0, 46, 42
1, 148625, Note_on_c, 0, 68, 61
1, 148658, Note_off_c, 0, 68, 62
1, 148770, Note_off_c, 0, 46, 56
1, 148786, Note_on_c, 0, 68, 64
1, 148789, Note_on_c, 0, 50, 40
1, 148819, Note_off_c, 0, 68, 65
1, 148927, Note_off_c, 0, 50, 52
1, 148957, Note_on_c, 0, 68, 56
1, 148970, Note_on_c, 0, 53, 41
1, 148990, Note_off_c, 0, 68, 66
1, 149015, Note_off_c, 0, 53, 60
1, 149145, Note_on_c, 0, 80, 48
1, 149187, Note_off_c, 0, 80, 58
1, 149222, Note_on_c, 0, 82, 50
1, 149300, Note_on_c, 0, 46, 41
1, 149302, Note_on_c, 0, 79, 61
1, 149305, Note_off_c, 0, 82, 62
1, 149376, Note_off_c, 0, 79, 63
1, 149384, Note_on_c, 0, 80, 65
1, 149445, Note_off_c, 0, 80, 64
1, 149468, Note_on_c, 0, 77, 69
1, 149472, Note_on_c, 0, 50, 49
1, 149507, Note_off_c, 0, 46, 36
1, 149546, Note_off_c, 0, 77, 59
1, 149549, Note_on_c, 0, 79, 71
1, 149617, Note_off_c, 0, 79, 62
1, 149631, Note_on_c, 0, 75, 69
1, 149638, Note_on_c, 0, 53, 54
1, 149659, Note_off_c, 0, 50, 58
1, 149696, Note_off_c, 0, 75, 57
1, 149708, Note_on_c, 0, 77, 71
1, 149778, Note_off_c, 0, 77, 61
1, 149795, Note_on_c, 0, 74, 66
1, 149806, Note_on_c, 0, 56, 63
1, 149841, Note_off_c, 0, 53, 58
1, 149867, Note_on_c, 0, 75, 76
1, 149871, Note_off_c, 0, 74, 64
1, 149948, Note_off_c, 0, 75, 63
1, 149959, Note_on_c, 0, 72, 80
1, 149963, Note_on_c, 0, 53, 63
1, 149988, Note_off_c, 0, 56, 57
1, 150035, Note_off_c, 0, 72, 63
1, 150050, Note_on_c, 0, 74, 71
1, 150118, Note_off_c, 0, 74, 61
1, 150135, Note_on_c, 0, 70, 75
1, 150141, Note_on_c, 0, 50, 52
1, 150147, Note_off_c, 0, 53, 57
1, 150205, Note_off_c, 0, 70, 64
1, 150214, Note_on_c, 0, 72, 78
1, 150281, Note_off_c, 0, 50, 56
1, 150292, Note_on_c, 0, 68, 72
1, 150292, Note_off_c, 0, 72, 63
1, 150295, Note_on_c, 0, 46, 44
1, 150345, Note_off_c, 0, 46, 59
1, 150360, Note_off_c, 0, 68, 64
1, 150371, Note_on_c, 0, 70, 64
1, 150444, Note_off_c, 0, 70, 62
1, 150457, Note_on_c, 0, 68, 64
1, 150607, Note_off_c, 0, 68, 60
1, 150628, Note_on_c, 0, 67, 51
1, 150640, Note_on_c, 0, 47, 30
1, 150664, Note_off_c, 0, 67, 63
1, 150833, Note_off_c, 0, 47, 40
1, 150837, Note_on_c, 0, 67, 48
1, 150840, Note_on_c, 0, 50, 33
1, 151006, Note_on_c, 0, 53, 48
1, 151053, Note_off_c, 0, 50, 39
1, 151119, Note_off_c, 0, 67, 63
1, 151182, Note_on_c, 0, 55, 64
1, 151200, Note_off_c, 0, 53, 60
1, 151367, Note_on_c, 0, 53, 54
1, 151368, Note_on_c, 0, 79, 66
1, 151371, Note_off_c, 0, 55, 55
1, 151401, Note_off_c, 0, 79, 65
1, 151543, Note_on_c, 0, 79, 80
1, 151554, Note_off_c, 0, 53, 56
1, 151556, Note_on_c, 0, 50, 45
1, 151701, Note_off_c, 0, 50, 62
1, 151707, Note_on_c, 0, 77, 79
1, 151711, Note_on_c, 0, 47, 52
1, 151711, Note_off_c, 0, 79, 65
1, 151743, Note_off_c, 0, 47, 63
1, 151753, Note_off_c, 0, 77, 64
1, 151879, Note_on_c, 0, 77, 75
1, 152063, Note_off_c, 0, 77, 65
1, 152064, Note_on_c, 0, 76, 77
1, 152089, Note_on_c, 0, 58, 45
1, 152112, Note_off_c, 0, 76, 66
1, 152248, Note_on_c, 0, 76, 74
1, 152256, Note_on_c, 0, 61, 53
1, 152426, Note_on_c, 0, 64, 54
1, 152599, Note_off_c, 0, 76, 50
1, 152634, Note_on_c, 0, 67, 46
1, 152750, Note_off_c, 0, 64, 32
1, 152790, Note_on_c, 0, 85, 69
1, 152795, Note_off_c, 0, 58, 39
1, 152824, Note_off_c, 0, 85, 63
1, 152839, Note_off_c, 0, 67, 53
1, 152917, Note_off_c, 0, 61, 35
1, 152969, Note_on_c, 0, 85, 78
1, 153120, Note_off_c, 0, 85, 62
1, 153142, Note_on_c, 0, 76, 57
1, 153174, Note_off_c, 0, 76, 62
1, 153312, Note_on_c, 0, 79, 66
1, 153467, Note_off_c, 0, 79, 61
1, 153478, Note_on_c, 0, 77, 60
1, 153511, Note_on_c, 0, 57, 33
1, 153521, Note_off_c, 0, 77, 62
1, 153674, Note_on_c, 0, 77, 56
1, 153693, Note_on_c, 0, 60, 35
1, 153843, Note_on_c, 0, 65, 36
1, 153878, Note_off_c, 0, 77, 59
1, 153883, Note_off_c, 0, 57, 30
1, 154072, Note_on_c, 0, 69, 30
1, 154109, Note_off_c, 0, 65, 42
1, 154126, Note_off_c, 0, 60, 41
1, 154226, Note_on_c, 0, 78, 42
1, 154238, Note_off_c, 0, 69, 45
1, 154387, Note_off_c, 0, 78, 54
1, 154429, Note_on_c, 0, 79, 41
1, 154581, Note_off_c, 0, 79, 55
1, 154602, Note_on_c, 0, 75, 37
1, 154639, Note_off_c, 0, 75, 55
1, 154760, Note_on_c, 0, 73, 46
1, 154898, Note_off_c, 0, 73, 57
1, 154926, Note_on_c, 0, 74, 40
1, 154938, Note_on_c, 0, 58, 34
1, 154961, Note_off_c, 0, 74, 60
1, 155121, Note_on_c, 0, 74, 43
1, 155138, Note_on_c, 0, 62, 34
1, 155288, Note_on_c, 0, 65, 40
1, 155301, Note_off_c, 0, 58, 37
1, 155453, Note_off_c, 0, 62, 34
1, 155455, Note_off_c, 0, 74, 45
1, 155468, Note_on_c, 0, 70, 42
1, 155497, Note_off_c, 0, 65, 40
1, 155634, Note_on_c, 0, 77, 46
1, 155670, Note_off_c, 0, 70, 56
1, 155792, Note_off_c, 0, 77, 62
1, 155823, Note_on_c, 0, 79, 48
1, 155884, Note_off_c, 0, 79, 61
1, 155919, Note_on_c, 0, 77, 47
1, 155957, Note_off_c, 0, 77, 61
1, 155984, Note_on_c, 0, 75, 52
1, 156038, Note_off_c, 0, 75, 60
1, 156070, Note_on_c, 0, 74, 44
1, 156127, Note_off_c, 0, 74, 59
1, 156155, Note_on_c, 0, 72, 52
1, 156167, Note_on_c, 0, 63, 26
1, 156310, Note_off_c, 0, 63, 45
1, 156321, Note_on_c, 0, 65, 41
1, 156490, Note_off_c, 0, 65, 44
1, 156506, Note_on_c, 0, 63, 50
1, 156643, Note_off_c, 0, 63, 56
1, 156648, Note_off_c, 0, 72, 63
1, 156670, Note_on_c, 0, 69, 56
1, 156676, Note_on_c, 0, 65, 39
1, 156706, Note_off_c, 0, 69, 64
1, 156838, Note_on_c, 0, 70, 54
1, 156842, Note_off_c, 0, 65, 49
1, 156849, Note_on_c, 0, 62, 34
1, 156891, Note_off_c, 0, 70, 57
1, 156922, Note_on_c, 0, 77, 53
1, 156979, Note_off_c, 0, 77, 58
1, 156998, Note_on_c, 0, 76, 57
1, 157016, Note_on_c, 0, 65, 39
1, 157016, Note_off_c, 0, 62, 35
1, 157052, Note_off_c, 0, 76, 63
1, 157073, Note_on_c, 0, 77, 67
1, 157145, Note_off_c, 0, 77, 62
1, 157153, Note_on_c, 0, 79, 73
1, 157169, Note_off_c, 0, 65, 56
1, 157171, Note_on_c, 0, 62, 48
1, 157230, Note_off_c, 0, 79, 63
1, 157239, Note_on_c, 0, 77, 68
1, 157314, Note_off_c, 0, 77, 62
1, 157319, Note_on_c, 0, 75, 69
1, 157326, Note_on_c, 0, 65, 40
1, 157333, Note_off_c, 0, 62, 47
1, 157385, Note_off_c, 0, 75, 65
1, 157398, Note_on_c, 0, 74, 68
1, 157457, Note_off_c, 0, 74, 65
1, 157470, Note_on_c, 0, 72, 75
1, 157475, Note_off_c, 0, 65, 53
1, 157489, Note_on_c, 0, 63, 43
1, 157497, Note_off_c, 0, 72, 67
1, 157659, Note_on_c, 0, 72, 82
1, 157673, Note_on_c, 0, 65, 48
1, 157678, Note_off_c, 0, 63, 51
1, 157830, Note_on_c, 0, 63, 64
1, 157842, Note_off_c, 0, 65, 56
1, 157984, Note_off_c, 0, 72, 64
1, 157988, Note_on_c, 0, 65, 61
1, 157990, Note_on_c, 0, 69, 74
1, 158012, Note_off_c, 0, 63, 58
1, 158027, Note_off_c, 0, 69, 63
1, 158164, Note_on_c, 0, 70, 75
1, 158167, Note_on_c, 0, 62, 58
1, 158179, Note_off_c, 0, 65, 55
1, 158226, Note_off_c, 0, 70, 64
1, 158251, Note_on_c, 0, 77, 67
1, 158317, Note_on_c, 0, 65, 56
1, 158319, Note_off_c, 0, 62, 54
1, 158321, Note_on_c, 0, 76, 71
1, 158325, Note_off_c, 0, 77, 63
1, 158397, Note_off_c, 0, 76, 66
1, 158398, Note_on_c, 0, 77, 75
1, 158481, Note_on_c, 0, 79, 83
1, 158481, Note_off_c, 0, 77, 65
1, 158486, Note_on_c, 0, 62, 60
1, 158491, Note_off_c, 0, 65, 58
1, 158557, Note_on_c, 0, 77, 77
1, 158569, Note_off_c, 0, 79, 60
1, 158636, Note_on_c, 0, 75, 76
1, 158641, Note_off_c, 0, 77, 62
1, 158647, Note_on_c, 0, 65, 49
1, 158650, Note_off_c, 0, 62, 50
1, 158712, Note_off_c, 0, 75, 65
1, 158719, Note_on_c, 0, 74, 73
1, 158754, Note_off_c, 0, 74, 65
1, 158807, Note_off_c, 0, 65, 59
1, 158817, Note_on_c, 0, 74, 71
1, 158828, Note_on_c, 0, 63, 45
1, 158985, Note_off_c, 0, 63, 51
1, 158998, Note_off_c, 0, 74, 64
1, 159004, Note_on_c, 0, 67, 40
1, 159005, Note_on_c, 0, 72, 71
1, 159037, Note_off_c, 0, 72, 67
1, 159145, Note_off_c, 0, 67, 52
1, 159180, Note_on_c, 0, 63, 38
1, 159330, Note_on_c, 0, 67, 35
1, 159338, Note_off_c, 0, 63, 42
1, 159351, Note_on_c, 0, 72, 59
1, 159386, Note_off_c, 0, 72, 63
1, 159511, Note_off_c, 0, 67, 45
1, 159525, Note_on_c, 0, 72, 48
1, 159526, Note_on_c, 0, 64, 38
1, 159678, Note_off_c, 0, 72, 57
1, 159695, Note_off_c, 0, 64, 46
1, 159697, Note_on_c, 0, 70, 48
1, 159702, Note_on_c, 0, 67, 33
1, 159741, Note_off_c, 0, 70, 62
1, 159857, Note_off_c, 0, 67, 37
1, 159868, Note_on_c, 0, 64, 29
1, 159994, Note_off_c, 0, 64, 55
1, 160025, Note_on_c, 0, 70, 54
1, 160030, Note_on_c, 0, 67, 28
1, 160066, Note_off_c, 0, 67, 49
1, 160178, Note_off_c, 0, 70, 60
1, 160212, Note_on_c, 0, 69, 41
1, 160227, Note_on_c, 0, 53, 26
1, 160268, Note_off_c, 0, 69, 63
1, 160303, Note_on_c, 0, 70, 55
1, 160349, Note_off_c, 0, 70, 60
1, 160376, Note_on_c, 0, 69, 57
1, 160422, Note_off_c, 0, 69, 60
1, 160459, Note_on_c, 0, 65, 45
1, 160519, Note_off_c, 0, 65, 60
1, 160544, Note_on_c, 0, 70, 52
1, 160560, Note_on_c, 0, 55, 47
1, 160580, Note_off_c, 0, 53, 51
1, 160601, Note_off_c, 0, 70, 58
1, 160623, Note_on_c, 0, 72, 63
1, 160689, Note_off_c, 0, 72, 62
1, 160709, Note_on_c, 0, 70, 69
1, 160763, Note_off_c, 0, 70, 61
1, 160784, Note_on_c, 0, 65, 64
1, 160876, Note_on_c, 0, 72, 73
1, 160879, Note_on_c, 0, 57, 66
1, 160885, Note_off_c, 0, 65, 55
1, 160915, Note_off_c, 0, 55, 61
1, 160957, Note_off_c, 0, 72, 65
1, 160967, Note_on_c, 0, 74, 66
1, 161056, Note_on_c, 0, 72, 82
1, 161061, Note_off_c, 0, 74, 64
1, 161127, Note_on_c, 0, 65, 70
1, 161135, Note_off_c, 0, 72, 62
1, 161199, Note_on_c, 0, 74, 75
1, 161202, Note_on_c, 0, 58, 69
1, 161231, Note_off_c, 0, 65, 58
1, 161234, Note_off_c, 0, 57, 61
1, 161282, Note_on_c, 0, 75, 85
1, 161288, Note_off_c, 0, 74, 64
1, 161314, Note_off_c, 0, 58, 62
1, 161365, Note_on_c, 0, 74, 77
1, 161380, Note_off_c, 0, 75, 61
1, 161443, Note_on_c, 0, 65, 77
1, 161446, Note_off_c, 0, 74, 64
1, 161506, Note_off_c, 0, 65, 64
1, 161528, Note_on_c, 0, 75, 80
1, 161529, Note_on_c, 0, 60, 58
1, 161556, Note_off_c, 0, 75, 64
1, 161711, Note_on_c, 0, 75, 84
1, 161712, Note_on_c, 0, 65, 59
1, 161735, Note_off_c, 0, 75, 65
1, 161891, Note_on_c, 0, 57, 59
1, 161899, Note_off_c, 0, 60, 50
1, 161902, Note_off_c, 0, 65, 57
1, 162068, Note_on_c, 0, 72, 81
1, 162070, Note_on_c, 0, 65, 50
1, 162092, Note_off_c, 0, 72, 70
1, 162209, Note_off_c, 0, 57, 54
1, 162236, Note_off_c, 0, 65, 46
1, 162243, Note_on_c, 0, 75, 56
1, 162245, Note_on_c, 0, 58, 43
1, 162404, Note_off_c, 0, 75, 59
1, 162423, Note_on_c, 0, 65, 38
1, 162423, Note_on_c, 0, 74, 45
1, 162448, Note_off_c, 0, 74, 58
1, 162580, Note_off_c, 0, 58, 42
1, 162587, Note_on_c, 0, 72, 63
1, 162593, Note_on_c, 0, 55, 38
1, 162594, Note_off_c, 0, 65, 46
1, 162614, Note_off_c, 0, 72, 65
1, 162718, Note_off_c, 0, 55, 57
1, 162758, Note_on_c, 0, 70, 59
1, 162766, Note_on_c, 0, 65, 38
1, 162791, Note_off_c, 0, 70, 63
1, 162823, Note_off_c, 0, 65, 52
1, 162938, Note_on_c, 0, 69, 44
1, 162942, Note_on_c, 0, 53, 31
1, 162988, Note_off_c, 0, 69, 60
1, 163031, Note_on_c, 0, 65, 41
1, 163092, Note_off_c, 0, 65, 59
1, 163093, Note_on_c, 0, 76, 52
1, 163163, Note_off_c, 0, 76, 60
1, 163181, Note_on_c, 0, 77, 51
1, 163253, Note_off_c, 0, 77, 55
1, 163272, Note_on_c, 0, 70, 57
1, 163288, Note_on_c, 0, 55, 45
1, 163324, Note_off_c, 0, 53, 37
1, 163336, Note_off_c, 0, 70, 58
1, 163366, Note_on_c, 0, 65, 54
1, 163443, Note_off_c, 0, 65, 46
1, 163446, Note_on_c, 0, 76, 66
1, 163523, Note_off_c, 0, 76, 63
1, 163528, Note_on_c, 0, 77, 69
1, 163599, Note_on_c, 0, 57, 71
1, 163604, Note_on_c, 0, 72, 87
1, 163611, Note_off_c, 0, 77, 62
1, 163630, Note_off_c, 0, 55, 62
1, 163683, Note_off_c, 0, 72, 63
1, 163689, Note_on_c, 0, 65, 75
1, 163762, Note_on_c, 0, 76, 82
1, 163779, Note_off_c, 0, 65, 61
1, 163843, Note_on_c, 0, 77, 81
1, 163844, Note_off_c, 0, 76, 65
1, 163920, Note_on_c, 0, 74, 83
1, 163928, Note_off_c, 0, 77, 63
1, 163931, Note_on_c, 0, 58, 71
1, 163938, Note_off_c, 0, 57, 60
1, 164006, Note_off_c, 0, 74, 64
1, 164015, Note_off_c, 0, 58, 65
1, 164015, Note_on_c, 0, 65, 80
1, 164074, Note_off_c, 0, 65, 65
1, 164092, Note_on_c, 0, 76, 82
1, 164163, Note_off_c, 0, 76, 66
1, 164167, Note_on_c, 0, 77, 79
1, 164241, Note_on_c, 0, 60, 66
1, 164245, Note_off_c, 0, 77, 65
1, 164247, Note_on_c, 0, 75, 83
1, 164268, Note_off_c, 0, 75, 66
1, 164285, Note_off_c, 0, 60, 56
1, 164327, Note_on_c, 0, 65, 59
1, 164383, Note_off_c, 0, 65, 50
1, 164421, Note_on_c, 0, 64, 59
1, 164427, Note_on_c, 0, 75, 77
1, 164447, Note_off_c, 0, 75, 71
1, 164477, Note_off_c, 0, 64, 62
1, 164509, Note_on_c, 0, 65, 60
1, 164566, Note_off_c, 0, 65, 56
1, 164579, Note_on_c, 0, 57, 72
1, 164622, Note_off_c, 0, 57, 54
1, 164655, Note_on_c, 0, 65, 61
1, 164710, Note_off_c, 0, 65, 64
1, 164725, Note_on_c, 0, 64, 59
1, 164734, Note_on_c, 0, 72, 74
1, 164772, Note_off_c, 0, 72, 67
1, 164778, Note_off_c, 0, 64, 61
1, 164783, Note_on_c, 0, 74, 71
1, 164806, Note_on_c, 0, 65, 52
1, 164822, Note_off_c, 0, 74, 61
1, 164836, Note_on_c, 0, 72, 75
1, 164880, Note_off_c, 0, 65, 62
1, 164882, Note_on_c, 0, 75, 89
1, 164883, Note_off_c, 0, 72, 64
1, 164884, Note_on_c, 0, 58, 66
1, 164945, Note_off_c, 0, 58, 57
1, 164969, Note_on_c, 0, 65, 55
1, 165060, Note_off_c, 0, 65, 63
1, 165061, Note_off_c, 0, 75, 64
1, 165069, Note_on_c, 0, 74, 58
1, 165070, Note_on_c, 0, 64, 57
1, 165088, Note_off_c, 0, 74, 62
1, 165110, Note_off_c, 0, 64, 64
1, 165133, Note_on_c, 0, 65, 52
1, 165200, Note_off_c, 0, 65, 62
1, 165230, Note_on_c, 0, 55, 64
1, 165237, Note_on_c, 0, 72, 83
1, 165260, Note_off_c, 0, 72, 68
1, 165274, Note_off_c, 0, 55, 58
1, 165300, Note_on_c, 0, 64, 61
1, 165371, Note_off_c, 0, 64, 60
1, 165387, Note_on_c, 0, 62, 64
1, 165395, Note_on_c, 0, 70, 76
1, 165422, Note_off_c, 0, 70, 67
1, 165434, Note_off_c, 0, 62, 55
1, 165479, Note_on_c, 0, 64, 50
1, 165534, Note_off_c, 0, 64, 51
1, 165583, Note_on_c, 0, 53, 43
1, 165598, Note_on_c, 0, 69, 62
1, 165664, Note_off_c, 0, 69, 61
1, 165676, Note_on_c, 0, 77, 75
1, 165743, Note_off_c, 0, 53, 61
1, 165755, Note_off_c, 0, 77, 63
1, 165757, Note_on_c, 0, 72, 86
1, 165834, Note_on_c, 0, 69, 80
1, 165837, Note_off_c, 0, 72, 63
1, 165906, Note_off_c, 0, 69, 60
1, 165918, Note_on_c, 0, 65, 82
1, 165983, Note_off_c, 0, 65, 63
1, 166007, Note_on_c, 0, 60, 82
1, 166100, Note_off_c, 0, 60, 61
1, 166101, Note_on_c, 0, 57, 80
1, 166191, Note_on_c, 0, 53, 75
1, 166203, Note_off_c, 0, 57, 63
1, 166337, Note_on_c, 0, 41, 69
1, 166340, Note_on_c, 0, 29, 63
1, 166369, Note_off_c, 0, 53, 62
1, 166729, Note_off_c, 0, 41, 64
1, 166742, Note_off_c, 0, 29, 64
1, 167211, Note_on_c, 0, 58, 66
1, 167217, Note_on_c, 0, 46, 80
1, 167217, Note_on_c, 0, 65, 82
1, 167217, Note_on_c, 0, 53, 79
1, 167218, Note_on_c, 0, 34, 67
1, 167219, Note_on_c, 0, 62, 72
1, 167257, Control_c, 0, 64, 45
1, 167272, Control_c, 0, 64, 64
1, 167286, Control_c, 0, 64, 70
1, 167301, Control_c, 0, 64, 78
1, 167316, Control_c, 0, 64, 87
1, 167331, Control_c, 0, 64, 91
1, 167345, Control_c, 0, 64, 97
1, 167360, Control_c, 0, 64, 109
1, 167375, Control_c, 0, 64, 127
1, 167519, Note_off_c, 0, 53, 53
1, 167530, Note_off_c, 0, 65, 64
1, 167540, Note_off_c, 0, 46, 63
1, 167558, Note_off_c, 0, 62, 60
1, 167573, Note_off_c, 0, 34, 56
1, 167619, Note_off_c, 0, 58, 57
1, 167799, Control_c, 0, 64, 114
1, 167814, Control_c, 0, 64, 109
1, 167825, Note_on_c, 0, 67, 69
1, 167829, Control_c, 0, 64, 104
1, 167843, Control_c, 0, 64, 100
1, 167858, Control_c, 0, 64, 96
1, 167873, Control_c, 0, 64, 92
1, 167887, Control_c, 0, 64, 87
1, 167899, Note_on_c, 0, 65, 83
1, 167902, Control_c, 0, 64, 81
1, 167917, Note_off_c, 0, 67, 60
1, 167917, Control_c, 0, 64, 74
1, 167932, Control_c, 0, 64, 65
1, 167947, Control_c, 0, 64, 38
1, 167962, Control_c, 0, 64, 0
1, 167998, Note_on_c, 0, 63, 79
1, 168012, Note_off_c, 0, 65, 62
1, 168173, Note_off_c, 0, 63, 64
1, 168176, Note_on_c, 0, 62, 72
1, 168203, Note_off_c, 0, 62, 66
1, 168364, Note_on_c, 0, 60, 67
1, 168394, Note_off_c, 0, 60, 66
1, 168558, Note_on_c, 0, 58, 69
1, 168588, Note_off_c, 0, 58, 66
1, 168749, Note_on_c, 0, 58, 72
1, 168958, Note_on_c, 0, 67, 67
1, 168974, Note_off_c, 0, 58, 63
1, 168997, Note_off_c, 0, 67, 56
1, 169277, Note_on_c, 0, 58, 32
1, 169280, Note_on_c, 0, 67, 56
1, 169283, Note_on_c, 0, 39, 37
1, 169298, Note_on_c, 0, 51, 37
1, 169853, Note_off_c, 0, 67, 63
1, 169857, Note_on_c, 0, 65, 76
1, 169873, Note_off_c, 0, 58, 58
1, 169944, Note_off_c, 0, 51, 45
1, 169983, Note_off_c, 0, 39, 42
1, 170045, Note_on_c, 0, 69, 76
1, 170052, Note_off_c, 0, 65, 65
1, 170057, Note_on_c, 0, 50, 49
1, 170097, Note_off_c, 0, 50, 63
1, 170224, Note_off_c, 0, 69, 63
1, 170225, Note_on_c, 0, 70, 74
1, 170256, Note_off_c, 0, 70, 60
1, 170417, Note_on_c, 0, 70, 66
1, 170426, Note_on_c, 0, 52, 38
1, 170433, Note_on_c, 0, 55, 33
1, 170596, Note_on_c, 0, 60, 68
1, 170601, Note_off_c, 0, 70, 62
1, 170773, Note_off_c, 0, 52, 41
1, 170773, Note_off_c, 0, 55, 52
1, 170778, Note_on_c, 0, 53, 53
1, 170889, Note_off_c, 0, 53, 51
1, 170950, Note_off_c, 0, 60, 55
1, 170955, Note_on_c, 0, 62, 59
1, 170984, Note_off_c, 0, 62, 64
1, 171136, Note_on_c, 0, 70, 60
1, 171141, Note_on_c, 0, 52, 34
1, 171150, Note_on_c, 0, 55, 35
1, 171318, Note_on_c, 0, 60, 60
1, 171319, Note_off_c, 0, 70, 61
1, 171467, Note_off_c, 0, 55, 51
1, 171497, Note_on_c, 0, 53, 49
1, 171502, Note_off_c, 0, 52, 40
1, 171660, Note_off_c, 0, 60, 50
1, 171678, Note_on_c, 0, 62, 61
1, 171682, Note_off_c, 0, 53, 36
1, 171864, Note_off_c, 0, 62, 60
1, 171886, Note_on_c, 0, 55, 32
1, 171887, Note_on_c, 0, 65, 53
1, 172192, Note_off_c, 0, 65, 63
1, 172235, Note_off_c, 0, 55, 53
1, 172240, Note_on_c, 0, 63, 52
1, 172257, Note_on_c, 0, 57, 42
1, 172275, Note_off_c, 0, 63, 65
1, 172293, Note_on_c, 0, 65, 59
1, 172327, Note_off_c, 0, 65, 66
1, 172353, Note_on_c, 0, 63, 63
1, 172381, Note_off_c, 0, 63, 66
1, 172398, Note_on_c, 0, 65, 64
1, 172429, Note_off_c, 0, 65, 67
1, 172443, Note_on_c, 0, 63, 67
1, 172474, Note_off_c, 0, 63, 65
1, 172493, Note_on_c, 0, 65, 66
1, 172525, Note_off_c, 0, 65, 67
1, 172539, Note_on_c, 0, 63, 63
1, 172561, Note_off_c, 0, 57, 53
1, 172569, Note_off_c, 0, 63, 66
1, 172576, Note_on_c, 0, 58, 42
1, 172584, Note_on_c, 0, 62, 64
1, 172614, Note_off_c, 0, 62, 64
1, 172782, Note_on_c, 0, 62, 74
1, 172839, Note_off_c, 0, 58, 56
1, 172951, Note_on_c, 0, 63, 76
1, 172998, Note_off_c, 0, 62, 59
1, 173143, Note_on_c, 0, 65, 79
1, 173173, Note_off_c, 0, 63, 63
1, 173359, Note_on_c, 0, 66, 76
1, 173387, Note_off_c, 0, 65, 65
1, 173572, Note_on_c, 0, 39, 34
1, 173609, Note_on_c, 0, 67, 56
1, 173626, Note_off_c, 0, 66, 63
1, 173783, Note_on_c, 0, 43, 51
1, 173866, Note_off_c, 0, 39, 39
1, 173944, Note_off_c, 0, 43, 57
1, 173961, Note_on_c, 0, 48, 50
1, 173964, Note_on_c, 0, 65, 65
1, 173965, Note_off_c, 0, 67, 63
1, 174008, Note_off_c, 0, 48, 58
1, 174042, Note_off_c, 0, 65, 64
1, 174047, Note_on_c, 0, 63, 64
1, 174138, Note_on_c, 0, 51, 47
1, 174141, Note_off_c, 0, 63, 64
1, 174141, Note_on_c, 0, 62, 66
1, 174328, Note_off_c, 0, 62, 61
1, 174332, Note_on_c, 0, 60, 62
1, 174334, Note_off_c, 0, 51, 53
1, 174508, Note_off_c, 0, 60, 58
1, 174514, Note_on_c, 0, 62, 55
1, 174682, Note_off_c, 0, 62, 57
1, 174696, Note_on_c, 0, 63, 50
1, 174758, Note_off_c, 0, 63, 53
1, 174875, Note_on_c, 0, 67, 40
1, 175052, Note_on_c, 0, 65, 48
1, 175057, Note_off_c, 0, 67, 54
1, 175060, Note_on_c, 0, 38, 22
1, 175250, Note_on_c, 0, 41, 33
1, 175271, Note_off_c, 0, 38, 41
1, 175402, Note_off_c, 0, 65, 58
1, 175416, Note_off_c, 0, 41, 42
1, 175421, Note_on_c, 0, 63, 49
1, 175431, Note_on_c, 0, 46, 32
1, 175489, Note_off_c, 0, 63, 62
1, 175492, Note_off_c, 0, 46, 52
1, 175509, Note_on_c, 0, 62, 50
1, 175597, Note_off_c, 0, 62, 60
1, 175606, Note_on_c, 0, 50, 35
1, 175606, Note_on_c, 0, 60, 52
1, 175784, Note_off_c, 0, 60, 57
1, 175784, Note_off_c, 0, 50, 45
1, 175792, Note_on_c, 0, 58, 58
1, 175963, Note_off_c, 0, 58, 62
1, 175982, Note_on_c, 0, 60, 62
1, 176149, Note_off_c, 0, 60, 57
1, 176151, Note_on_c, 0, 62, 62
1, 176193, Note_off_c, 0, 62, 58
1, 176336, Note_on_c, 0, 65, 66
1, 176341, Note_on_c, 0, 48, 33
1, 176433, Note_off_c, 0, 48, 55
1, 176517, Note_on_c, 0, 63, 68
1, 176537, Note_off_c, 0, 65, 61
1, 176690, Note_on_c, 0, 45, 35
1, 176776, Note_off_c, 0, 45, 55
1, 176851, Note_off_c, 0, 63, 58
1, 176877, Note_on_c, 0, 60, 48
1, 177038, Note_off_c, 0, 60, 52
1, 177058, Note_on_c, 0, 63, 43
1, 177060, Note_on_c, 0, 46, 27
1, 177128, Note_off_c, 0, 46, 55
1, 177218, Note_off_c, 0, 63, 54
1, 177236, Note_on_c, 0, 62, 38
1, 177413, Note_on_c, 0, 43, 29
1, 177535, Note_off_c, 0, 43, 50
1, 177587, Note_off_c, 0, 62, 49
1, 177599, Note_on_c, 0, 58, 43
1, 177740, Note_off_c, 0, 58, 61
1, 177747, Note_on_c, 0, 41, 31
1, 177773, Note_on_c, 0, 57, 39
1, 177832, Note_off_c, 0, 57, 60
1, 177853, Note_on_c, 0, 58, 48
1, 177918, Note_off_c, 0, 58, 63
1, 177951, Note_on_c, 0, 59, 49
1, 177979, Note_off_c, 0, 41, 58
1, 178007, Note_off_c, 0, 59, 58
1, 178016, Note_on_c, 0, 60, 63
1, 178089, Note_off_c, 0, 60, 61
1, 178101, Note_on_c, 0, 61, 63
1, 178157, Note_off_c, 0, 61, 62
1, 178177, Note_on_c, 0, 62, 55
1, 178255, Note_off_c, 0, 62, 61
1, 178266, Note_on_c, 0, 63, 55
1, 178340, Note_off_c, 0, 63, 61
1, 178343, Note_on_c, 0, 64, 61
1, 178444, Note_off_c, 0, 64, 61
1, 178446, Note_on_c, 0, 65, 63
1, 178461, Note_on_c, 0, 53, 47
1, 178509, Note_off_c, 0, 53, 62
1, 178538, Note_on_c, 0, 55, 56
1, 178621, Note_off_c, 0, 55, 64
1, 178628, Note_on_c, 0, 51, 67
1, 178696, Note_off_c, 0, 51, 63
1, 178706, Note_on_c, 0, 53, 68
1, 178748, Note_off_c, 0, 65, 66
1, 178780, Note_on_c, 0, 50, 73
1, 178792, Note_off_c, 0, 53, 62
1, 178865, Note_on_c, 0, 51, 78
1, 178880, Note_off_c, 0, 50, 63
1, 178944, Note_on_c, 0, 48, 75
1, 178959, Note_off_c, 0, 51, 64
1, 179030, Note_on_c, 0, 50, 75
1, 179060, Note_off_c, 0, 48, 64
1, 179137, Note_on_c, 0, 46, 76
1, 179149, Note_on_c, 0, 77, 88
1, 179152, Note_on_c, 0, 65, 88
1, 179155, Note_on_c, 0, 70, 82
1, 179155, Note_on_c, 0, 74, 76
1, 179160, Note_off_c, 0, 50, 63
1, 179212, Note_off_c, 0, 46, 64
1, 179460, Control_c, 0, 64, 33
1, 179475, Control_c, 0, 64, 59
1, 179489, Control_c, 0, 64, 66
1, 179504, Control_c, 0, 64, 71
1, 179519, Control_c, 0, 64, 78
1, 179524, Note_on_c, 0, 58, 78
1, 179534, Control_c, 0, 64, 83
1, 179549, Note_off_c, 0, 77, 62
1, 179549, Control_c, 0, 64, 89
1, 179551, Note_off_c, 0, 65, 65
1, 179560, Note_off_c, 0, 74, 63
1, 179564, Control_c, 0, 64, 96
1, 179579, Control_c, 0, 64, 106
1, 179586, Note_off_c, 0, 70, 56
1, 179593, Control_c, 0, 64, 115
1, 179608, Control_c, 0, 64, 127
1, 179649, Note_off_c, 0, 58, 63
1, 179730, Note_on_c, 0, 79, 76
1, 179780, Control_c, 0, 64, 126
1, 179794, Control_c, 0, 64, 115
1, 179803, Note_on_c, 0, 77, 81
1, 179809, Control_c, 0, 64, 109
1, 179824, Control_c, 0, 64, 105
1, 179827, Note_off_c, 0, 79, 63
1, 179839, Control_c, 0, 64, 102
1, 179854, Control_c, 0, 64, 98
1, 179868, Control_c, 0, 64, 89
1, 179883, Control_c, 0, 64, 75
1, 179896, Note_on_c, 0, 75, 78
1, 179898, Control_c, 0, 64, 0
1, 179915, Note_off_c, 0, 77, 61
1, 180066, Note_off_c, 0, 75, 64
1, 180070, Note_on_c, 0, 74, 69
1, 180096, Note_off_c, 0, 74, 68
1, 180262, Note_on_c, 0, 72, 73
1, 180288, Note_off_c, 0, 72, 65
1, 180433, Note_on_c, 0, 70, 73
1, 180467, Note_off_c, 0, 70, 65
1, 180622, Note_on_c, 0, 70, 82
1, 180825, Note_on_c, 0, 79, 77
1, 180833, Note_off_c, 0, 70, 62
1, 180862, Note_off_c, 0, 79, 60
1, 181114, Note_on_c, 0, 79, 67
1, 181114, Note_on_c, 0, 70, 50
1, 181123, Note_on_c, 0, 51, 45
1, 181129, Note_on_c, 0, 63, 45
1, 181216, Control_c, 0, 64, 30
1, 181231, Control_c, 0, 64, 46
1, 181246, Control_c, 0, 64, 53
1, 181261, Control_c, 0, 64, 61
1, 181275, Control_c, 0, 64, 65
1, 181291, Control_c, 0, 64, 69
1, 181306, Control_c, 0, 64, 70
1, 181410, Control_c, 0, 64, 70
1, 181425, Control_c, 0, 64, 69
1, 181498, Control_c, 0, 64, 68
1, 181513, Control_c, 0, 64, 67
1, 181528, Control_c, 0, 64, 66
1, 181543, Control_c, 0, 64, 65
1, 181588, Control_c, 0, 64, 64
1, 181603, Control_c, 0, 64, 63
1, 181617, Control_c, 0, 64, 61
1, 181632, Control_c, 0, 64, 59
1, 181659, Note_off_c, 0, 79, 64
1, 181659, Note_off_c, 0, 70, 59
1, 181661, Note_on_c, 0, 77, 76
1, 181662, Control_c, 0, 64, 59
1, 181677, Control_c, 0, 64, 58
1, 181691, Control_c, 0, 64, 57
1, 181721, Control_c, 0, 64, 57
1, 181731, Note_off_c, 0, 51, 50
1, 181736, Control_c, 0, 64, 56
1, 181737, Note_off_c, 0, 63, 49
1, 181765, Control_c, 0, 64, 56
1, 181834, Note_on_c, 0, 62, 54
1, 181838, Note_on_c, 0, 81, 82
1, 181839, Control_c, 0, 64, 55
1, 181841, Note_off_c, 0, 77, 63
1, 181854, Control_c, 0, 64, 55
1, 181869, Control_c, 0, 64, 54
1, 181871, Note_off_c, 0, 62, 63
1, 181883, Control_c, 0, 64, 53
1, 182023, Note_on_c, 0, 82, 63
1, 182024, Note_off_c, 0, 81, 63
1, 182039, Control_c, 0, 64, 54
1, 182054, Control_c, 0, 64, 55
1, 182084, Control_c, 0, 64, 55
1, 182174, Control_c, 0, 64, 56
1, 182188, Control_c, 0, 64, 57
1, 182226, Note_on_c, 0, 64, 30
1, 182234, Note_on_c, 0, 67, 30
1, 182336, Control_c, 0, 64, 56
1, 182351, Control_c, 0, 64, 55
1, 182356, Note_off_c, 0, 82, 57
1, 182387, Note_on_c, 0, 72, 82
1, 182395, Control_c, 0, 64, 55
1, 182470, Control_c, 0, 64, 54
1, 182485, Control_c, 0, 64, 53
1, 182490, Note_off_c, 0, 64, 42
1, 182523, Note_off_c, 0, 67, 46
1, 182540, Note_off_c, 0, 72, 59
1, 182545, Note_on_c, 0, 65, 48
1, 182556, Note_on_c, 0, 74, 70
1, 182578, Note_off_c, 0, 74, 67
1, 182592, Note_off_c, 0, 65, 59
1, 182747, Note_on_c, 0, 82, 75
1, 182847, Control_c, 0, 64, 54
1, 182920, Note_on_c, 0, 64, 48
1, 182929, Note_on_c, 0, 67, 49
1, 182967, Control_c, 0, 64, 54
1, 183059, Note_off_c, 0, 82, 51
1, 183086, Note_on_c, 0, 72, 78
1, 183159, Control_c, 0, 64, 55
1, 183188, Control_c, 0, 64, 55
1, 183233, Control_c, 0, 64, 56
1, 183244, Note_off_c, 0, 72, 62
1, 183248, Note_off_c, 0, 67, 35
1, 183253, Note_on_c, 0, 65, 54
1, 183256, Note_on_c, 0, 74, 61
1, 183259, Note_off_c, 0, 64, 37
1, 183283, Note_off_c, 0, 74, 66
1, 183284, Note_off_c, 0, 65, 66
1, 183433, Note_on_c, 0, 82, 60
1, 183636, Note_on_c, 0, 77, 57
1, 183641, Note_on_c, 0, 70, 37
1, 183647, Note_off_c, 0, 82, 58
1, 183650, Note_on_c, 0, 67, 35
1, 183731, Control_c, 0, 64, 55
1, 183819, Control_c, 0, 64, 55
1, 183967, Control_c, 0, 64, 54
1, 183976, Note_on_c, 0, 76, 70
1, 183986, Note_on_c, 0, 72, 53
1, 183990, Note_off_c, 0, 70, 50
1, 183996, Note_on_c, 0, 69, 51
1, 183997, Control_c, 0, 64, 54
1, 184010, Note_off_c, 0, 77, 62
1, 184026, Control_c, 0, 64, 53
1, 184032, Note_off_c, 0, 67, 42
1, 184041, Control_c, 0, 64, 53
1, 184086, Control_c, 0, 64, 52
1, 184146, Note_on_c, 0, 75, 79
1, 184165, Note_off_c, 0, 76, 63
1, 184241, Control_c, 0, 64, 53
1, 184256, Control_c, 0, 64, 53
1, 184271, Control_c, 0, 64, 54
1, 184300, Control_c, 0, 64, 54
1, 184306, Note_off_c, 0, 75, 63
1, 184315, Control_c, 0, 64, 51
1, 184318, Note_off_c, 0, 72, 43
1, 184320, Note_on_c, 0, 74, 62
1, 184323, Note_on_c, 0, 70, 58
1, 184327, Note_off_c, 0, 69, 48
1, 184330, Control_c, 0, 64, 48
1, 184338, Note_off_c, 0, 74, 65
1, 184345, Control_c, 0, 64, 38
1, 184360, Control_c, 0, 64, 20
1, 184375, Control_c, 0, 64, 15
1, 184405, Control_c, 0, 64, 18
1, 184479, Control_c, 0, 64, 20
1, 184494, Control_c, 0, 64, 22
1, 184509, Control_c, 0, 64, 26
1, 184515, Note_on_c, 0, 74, 74
1, 184592, Note_off_c, 0, 70, 56
1, 184613, Control_c, 0, 64, 24
1, 184642, Control_c, 0, 64, 18
1, 184657, Control_c, 0, 64, 0
1, 184675, Note_on_c, 0, 75, 78
1, 184697, Note_off_c, 0, 74, 59
1, 184847, Note_on_c, 0, 77, 78
1, 184884, Note_off_c, 0, 75, 60
1, 185033, Note_on_c, 0, 79, 85
1, 185046, Note_off_c, 0, 77, 62
1, 185213, Note_on_c, 0, 55, 76
1, 185359, Note_off_c, 0, 55, 63
1, 185376, Note_on_c, 0, 67, 74
1, 185400, Note_off_c, 0, 67, 67
1, 185531, Note_off_c, 0, 79, 54
1, 185546, Note_on_c, 0, 81, 85
1, 185552, Note_on_c, 0, 65, 64
1, 185572, Note_off_c, 0, 65, 64
1, 185615, Note_off_c, 0, 81, 61
1, 185624, Note_on_c, 0, 83, 74
1, 185675, Note_off_c, 0, 83, 68
1, 185704, Note_on_c, 0, 63, 70
1, 185704, Note_on_c, 0, 84, 82
1, 185733, Note_off_c, 0, 63, 66
1, 185771, Note_off_c, 0, 84, 57
1, 185778, Note_on_c, 0, 86, 80
1, 185858, Note_off_c, 0, 86, 64
1, 185859, Note_on_c, 0, 87, 82
1, 185861, Note_on_c, 0, 51, 63
1, 185889, Note_off_c, 0, 51, 66
1, 185943, Note_on_c, 0, 86, 73
1, 185982, Note_off_c, 0, 87, 55
1, 186017, Note_on_c, 0, 63, 76
1, 186017, Note_off_c, 0, 86, 63
1, 186021, Note_on_c, 0, 84, 77
1, 186096, Note_off_c, 0, 84, 41
1, 186109, Note_on_c, 0, 86, 73
1, 186176, Note_off_c, 0, 86, 62
1, 186179, Note_on_c, 0, 62, 74
1, 186185, Note_on_c, 0, 82, 75
1, 186185, Note_off_c, 0, 63, 63
1, 186206, Note_off_c, 0, 62, 68
1, 186259, Note_off_c, 0, 82, 65
1, 186270, Note_on_c, 0, 84, 76
1, 186326, Note_off_c, 0, 84, 62
1, 186353, Note_on_c, 0, 81, 77
1, 186361, Note_on_c, 0, 60, 65
1, 186393, Note_off_c, 0, 60, 65
1, 186420, Note_off_c, 0, 81, 41
1, 186428, Note_on_c, 0, 82, 68
1, 186509, Note_off_c, 0, 82, 63
1, 186515, Note_on_c, 0, 58, 59
1, 186525, Note_on_c, 0, 79, 65
1, 186545, Note_off_c, 0, 58, 66
1, 186588, Note_off_c, 0, 79, 58
1, 186605, Note_on_c, 0, 81, 75
1, 186681, Note_on_c, 0, 57, 60
1, 186682, Note_off_c, 0, 81, 63
1, 186703, Note_on_c, 0, 77, 58
1, 186712, Note_off_c, 0, 57, 62
1, 186752, Note_off_c, 0, 77, 62
1, 186769, Note_on_c, 0, 79, 68
1, 186828, Note_off_c, 0, 79, 58
1, 186843, Note_on_c, 0, 53, 51
1, 186852, Note_on_c, 0, 75, 61
1, 186872, Note_off_c, 0, 53, 62
1, 186921, Note_off_c, 0, 75, 59
1, 186940, Note_on_c, 0, 77, 58
1, 186980, Note_off_c, 0, 77, 63
1, 187012, Note_on_c, 0, 58, 55
1, 187025, Note_on_c, 0, 74, 48
1, 187081, Note_off_c, 0, 74, 64
1, 187084, Note_off_c, 0, 58, 64
1, 187096, Note_on_c, 0, 75, 65
1, 187168, Note_off_c, 0, 75, 63
1, 187185, Note_on_c, 0, 77, 70
1, 187267, Note_on_c, 0, 79, 80
1, 187269, Note_off_c, 0, 77, 61
1, 187341, Note_on_c, 0, 50, 73
1, 187347, Note_off_c, 0, 79, 62
1, 187350, Note_on_c, 0, 81, 88
1, 187405, Note_off_c, 0, 50, 65
1, 187421, Note_off_c, 0, 81, 66
1, 187427, Note_on_c, 0, 82, 78
1, 187498, Note_off_c, 0, 82, 66
1, 187499, Note_on_c, 0, 81, 88
1, 187566, Note_off_c, 0, 81, 64
1, 187569, Note_on_c, 0, 82, 74
1, 187651, Note_off_c, 0, 82, 67
1, 187651, Note_on_c, 0, 84, 82
1, 187653, Note_on_c, 0, 51, 70
1, 187734, Note_on_c, 0, 82, 77
1, 187743, Note_off_c, 0, 51, 64
1, 187760, Note_off_c, 0, 84, 61
1, 187812, Note_on_c, 0, 81, 88
1, 187824, Note_off_c, 0, 82, 59
1, 187889, Note_on_c, 0, 79, 77
1, 187890, Note_off_c, 0, 81, 64
1, 187981, Note_on_c, 0, 63, 78
1, 187983, Note_off_c, 0, 79, 64
1, 187991, Note_on_c, 0, 81, 82
1, 188044, Note_off_c, 0, 63, 63
1, 188061, Note_off_c, 0, 81, 66
1, 188069, Note_on_c, 0, 79, 74
1, 188119, Note_off_c, 0, 79, 60
1, 188141, Note_on_c, 0, 77, 68
1, 188222, Note_on_c, 0, 75, 70
1, 188226, Note_off_c, 0, 77, 62
1, 188335, Note_off_c, 0, 75, 59
1, 188340, Note_on_c, 0, 74, 70
1, 188342, Note_on_c, 0, 65, 50
1, 188435, Note_off_c, 0, 74, 63
1, 188528, Note_off_c, 0, 65, 56
1, 188670, Note_on_c, 0, 53, 48
1, 188711, Note_on_c, 0, 74, 43
1, 188718, Note_off_c, 0, 53, 64
1, 188732, Note_on_c, 0, 69, 31
1, 188747, Note_off_c, 0, 74, 64
1, 188758, Note_on_c, 0, 72, 71
1, 188790, Note_off_c, 0, 72, 67
1, 188792, Note_off_c, 0, 69, 61
1, 188802, Note_on_c, 0, 74, 67
1, 188851, Note_off_c, 0, 74, 65
1, 188870, Note_on_c, 0, 72, 71
1, 188900, Note_off_c, 0, 72, 67
1, 188906, Note_on_c, 0, 70, 82
1, 188942, Note_off_c, 0, 70, 59
1, 188967, Note_on_c, 0, 72, 73
1, 189005, Note_off_c, 0, 72, 64
1, 189025, Note_on_c, 0, 70, 73
1, 189043, Note_on_c, 0, 58, 56
1, 189093, Note_off_c, 0, 58, 55
1, 189117, Note_on_c, 0, 65, 52
1, 189179, Note_off_c, 0, 65, 62
1, 189187, Note_on_c, 0, 64, 58
1, 189239, Note_off_c, 0, 64, 56
1, 189266, Note_on_c, 0, 65, 59
1, 189275, Note_off_c, 0, 70, 58
1, 189344, Note_off_c, 0, 65, 60
1, 189350, Note_on_c, 0, 67, 71
1, 189400, Note_off_c, 0, 67, 58
1, 189436, Note_on_c, 0, 65, 64
1, 189496, Note_off_c, 0, 65, 52
1, 189523, Note_on_c, 0, 64, 68
1, 189573, Note_off_c, 0, 64, 62
1, 189603, Note_on_c, 0, 65, 59
1, 189651, Note_off_c, 0, 65, 59
1, 189758, Note_on_c, 0, 65, 58
1, 189799, Note_off_c, 0, 65, 58
1, 189834, Note_on_c, 0, 62, 58
1, 189873, Note_off_c, 0, 62, 63
1, 189897, Note_on_c, 0, 65, 60
1, 189985, Note_off_c, 0, 65, 55
1, 189997, Note_on_c, 0, 60, 57
1, 190037, Note_off_c, 0, 60, 63
1, 190076, Note_on_c, 0, 65, 57
1, 190147, Note_off_c, 0, 65, 58
1, 190157, Note_on_c, 0, 58, 65
1, 190205, Note_off_c, 0, 58, 61
1, 190252, Note_on_c, 0, 65, 54
1, 190311, Note_off_c, 0, 65, 54
1, 190327, Note_on_c, 0, 75, 82
1, 190341, Note_on_c, 0, 57, 54
1, 190390, Note_off_c, 0, 57, 59
1, 190421, Note_on_c, 0, 65, 57
1, 190477, Note_off_c, 0, 75, 64
1, 190478, Note_off_c, 0, 65, 58
1, 190493, Note_on_c, 0, 72, 62
1, 190507, Note_on_c, 0, 60, 42
1, 190514, Note_off_c, 0, 72, 61
1, 190539, Note_off_c, 0, 60, 59
1, 190581, Note_on_c, 0, 65, 56
1, 190626, Note_off_c, 0, 65, 61
1, 190662, Note_on_c, 0, 63, 56
1, 190673, Note_on_c, 0, 69, 57
1, 190694, Note_off_c, 0, 69, 62
1, 190704, Note_off_c, 0, 63, 58
1, 190754, Note_on_c, 0, 65, 42
1, 190814, Note_off_c, 0, 65, 61
1, 190833, Note_on_c, 0, 63, 56
1, 190836, Note_on_c, 0, 69, 63
1, 190855, Note_off_c, 0, 69, 64
1, 190870, Note_off_c, 0, 63, 63
1, 190921, Note_on_c, 0, 65, 53
1, 190978, Note_off_c, 0, 65, 59
1, 191006, Note_on_c, 0, 75, 78
1, 191015, Note_on_c, 0, 57, 55
1, 191084, Note_off_c, 0, 57, 58
1, 191097, Note_on_c, 0, 65, 54
1, 191158, Note_off_c, 0, 65, 59
1, 191170, Note_off_c, 0, 75, 62
1, 191183, Note_on_c, 0, 72, 60
1, 191192, Note_on_c, 0, 60, 40
1, 191204, Note_off_c, 0, 72, 60
1, 191225, Note_off_c, 0, 60, 52
1, 191267, Note_on_c, 0, 65, 50
1, 191311, Note_off_c, 0, 65, 61
1, 191347, Note_on_c, 0, 63, 51
1, 191353, Note_on_c, 0, 69, 59
1, 191378, Note_off_c, 0, 69, 63
1, 191394, Note_off_c, 0, 63, 58
1, 191427, Note_on_c, 0, 65, 46
1, 191486, Note_off_c, 0, 65, 58
1, 191514, Note_on_c, 0, 63, 52
1, 191518, Note_on_c, 0, 69, 70
1, 191547, Note_off_c, 0, 69, 66
1, 191555, Note_off_c, 0, 63, 59
1, 191597, Note_on_c, 0, 65, 54
1, 191646, Note_off_c, 0, 65, 61
1, 191673, Note_on_c, 0, 62, 58
1, 191677, Note_on_c, 0, 70, 78
1, 191708, Note_off_c, 0, 70, 69
1, 191725, Note_off_c, 0, 62, 58
1, 191754, Note_on_c, 0, 65, 65
1, 191831, Note_off_c, 0, 65, 62
1, 191845, Note_on_c, 0, 57, 63
1, 191849, Note_on_c, 0, 72, 87
1, 191883, Note_off_c, 0, 72, 64
1, 191910, Note_off_c, 0, 57, 55
1, 191930, Note_on_c, 0, 65, 58
1, 192001, Note_off_c, 0, 65, 62
1, 192009, Note_on_c, 0, 74, 82
1, 192018, Note_on_c, 0, 58, 63
1, 192037, Note_off_c, 0, 74, 66
1, 192060, Note_off_c, 0, 58, 57
1, 192095, Note_on_c, 0, 65, 53
1, 192157, Note_off_c, 0, 65, 59
1, 192170, Note_on_c, 0, 75, 88
1, 192184, Note_on_c, 0, 60, 55
1, 192210, Note_off_c, 0, 75, 62
1, 192221, Note_off_c, 0, 60, 63
1, 192259, Note_on_c, 0, 65, 58
1, 192308, Note_off_c, 0, 65, 58
1, 192340, Note_on_c, 0, 76, 88
1, 192352, Note_on_c, 0, 61, 59
1, 192394, Note_off_c, 0, 61, 59
1, 192429, Note_on_c, 0, 65, 57
1, 192489, Note_off_c, 0, 65, 57
1, 192510, Note_off_c, 0, 76, 64
1, 192519, Note_on_c, 0, 77, 77
1, 192531, Note_on_c, 0, 62, 48
1, 192542, Note_off_c, 0, 77, 68
1, 192559, Note_off_c, 0, 62, 57
1, 192599, Note_on_c, 0, 65, 50
1, 192678, Note_off_c, 0, 65, 54
1, 192692, Note_on_c, 0, 61, 55
1, 192694, Note_on_c, 0, 76, 85
1, 192730, Note_off_c, 0, 61, 61
1, 192779, Note_on_c, 0, 65, 52
1, 192827, Note_off_c, 0, 76, 66
1, 192829, Note_off_c, 0, 65, 62
1, 192843, Note_on_c, 0, 77, 68
1, 192853, Note_on_c, 0, 62, 55
1, 192861, Note_off_c, 0, 77, 65
1, 192886, Note_off_c, 0, 62, 59
1, 192939, Note_on_c, 0, 65, 43
1, 192982, Note_off_c, 0, 65, 47
1, 192982, Control_c, 0, 64, 22
1, 192997, Control_c, 0, 64, 56
1, 193011, Control_c, 0, 64, 66
1, 193026, Control_c, 0, 64, 74
1, 193031, Note_on_c, 0, 87, 60
1, 193031, Note_on_c, 0, 57, 41
1, 193041, Control_c, 0, 64, 85
1, 193056, Control_c, 0, 64, 96
1, 193062, Note_off_c, 0, 87, 65
1, 193071, Control_c, 0, 64, 104
1, 193086, Control_c, 0, 64, 119
1, 193088, Poly_aftertouch_c, 0, 75, 127
1, 193100, Control_c, 0, 64, 127
1, 193119, Note_off_c, 0, 57, 58
1, 193123, Poly_aftertouch_c, 0, 75, 0
1, 193133, Note_on_c, 0, 65, 43
1, 193198, Note_off_c, 0, 65, 61
1, 193216, Note_on_c, 0, 60, 50
1, 193223, Note_on_c, 0, 72, 54
1, 193226, Note_on_c, 0, 84, 36
1, 193241, Control_c, 0, 64, 97
1, 193249, Note_off_c, 0, 72, 56
1, 193256, Control_c, 0, 64, 71
1, 193258, Note_off_c, 0, 84, 52
1, 193261, Note_off_c, 0, 60, 60
1, 193272, Control_c, 0, 64, 0
1, 193294, Note_on_c, 0, 65, 48
1, 193355, Note_off_c, 0, 65, 56
1, 193383, Note_on_c, 0, 63, 56
1, 193386, Note_on_c, 0, 81, 65
1, 193393, Note_on_c, 0, 69, 46
1, 193405, Note_off_c, 0, 81, 62
1, 193419, Note_off_c, 0, 69, 56
1, 193434, Note_off_c, 0, 63, 57
1, 193464, Note_on_c, 0, 65, 55
1, 193512, Note_off_c, 0, 65, 58
1, 193545, Note_on_c, 0, 63, 60
1, 193548, Note_on_c, 0, 69, 65
1, 193549, Note_on_c, 0, 81, 80
1, 193566, Note_off_c, 0, 69, 65
1, 193574, Note_off_c, 0, 81, 68
1, 193586, Note_off_c, 0, 63, 58
1, 193627, Note_on_c, 0, 65, 56
1, 193698, Note_off_c, 0, 65, 55
1, 193702, Control_c, 0, 64, 12
1, 193716, Control_c, 0, 64, 57
1, 193719, Note_on_c, 0, 57, 50
1, 193720, Note_on_c, 0, 87, 75
1, 193724, Note_on_c, 0, 75, 63
1, 193731, Control_c, 0, 64, 66
1, 193746, Control_c, 0, 64, 75
1, 193761, Control_c, 0, 64, 87
1, 193768, Note_off_c, 0, 75, 61
1, 193771, Note_off_c, 0, 87, 66
1, 193775, Control_c, 0, 64, 100
1, 193790, Control_c, 0, 64, 127
1, 193812, Note_off_c, 0, 57, 60
1, 193824, Note_on_c, 0, 65, 48
1, 193875, Note_off_c, 0, 65, 60
1, 193889, Note_on_c, 0, 60, 56
1, 193891, Note_on_c, 0, 72, 70
1, 193894, Note_on_c, 0, 84, 54
1, 193910, Note_off_c, 0, 72, 65
1, 193914, Note_off_c, 0, 84, 60
1, 193949, Note_off_c, 0, 60, 52
1, 193961, Control_c, 0, 64, 111
1, 193975, Control_c, 0, 64, 94
1, 193990, Control_c, 0, 64, 80
1, 193991, Note_on_c, 0, 65, 48
1, 194005, Control_c, 0, 64, 61
1, 194020, Control_c, 0, 64, 0
1, 194048, Note_off_c, 0, 65, 61
1, 194064, Note_on_c, 0, 63, 54
1, 194118, Note_off_c, 0, 63, 58
1, 194151, Note_on_c, 0, 65, 50
1, 194203, Note_off_c, 0, 65, 58
1, 194221, Note_on_c, 0, 81, 69
1, 194224, Note_on_c, 0, 69, 61
1, 194230, Note_on_c, 0, 63, 56
1, 194245, Note_off_c, 0, 69, 64
1, 194247, Note_off_c, 0, 81, 67
1, 194273, Note_off_c, 0, 63, 60
1, 194308, Note_on_c, 0, 65, 53
1, 194358, Note_off_c, 0, 65, 60
1, 194391, Note_on_c, 0, 62, 51
1, 194392, Note_on_c, 0, 70, 60
1, 194394, Note_on_c, 0, 82, 56
1, 194413, Note_off_c, 0, 70, 64
1, 194413, Note_off_c, 0, 82, 63
1, 194438, Note_off_c, 0, 62, 58
1, 194462, Note_on_c, 0, 65, 59
1, 194538, Note_off_c, 0, 65, 59
1, 194552, Note_on_c, 0, 84, 81
1, 194553, Note_on_c, 0, 57, 59
1, 194556, Note_on_c, 0, 72, 80
1, 194580, Note_off_c, 0, 84, 59
1, 194581, Note_off_c, 0, 72, 68
1, 194629, Note_off_c, 0, 57, 60
1, 194640, Note_on_c, 0, 65, 68
1, 194721, Note_off_c, 0, 65, 63
1, 194723, Note_on_c, 0, 86, 85
1, 194724, Note_on_c, 0, 74, 80
1, 194732, Note_on_c, 0, 58, 66
1, 194749, Note_off_c, 0, 74, 65
1, 194759, Note_off_c, 0, 86, 62
1, 194807, Note_off_c, 0, 58, 59
1, 194811, Note_on_c, 0, 65, 62
1, 194887, Note_off_c, 0, 65, 64
1, 194891, Note_on_c, 0, 87, 89
1, 194892, Note_on_c, 0, 75, 84
1, 194897, Note_on_c, 0, 60, 64
1, 194919, Note_off_c, 0, 87, 63
1, 194925, Note_off_c, 0, 75, 62
1, 194933, Note_off_c, 0, 60, 62
1, 194968, Note_on_c, 0, 65, 57
1, 195026, Note_off_c, 0, 65, 54
1, 195037, Control_c, 0, 64, 45
1, 195052, Control_c, 0, 64, 64
1, 195052, Note_on_c, 0, 88, 87
1, 195055, Note_on_c, 0, 76, 82
1, 195063, Note_on_c, 0, 61, 66
1, 195067, Control_c, 0, 64, 73
1, 195082, Control_c, 0, 64, 82
1, 195096, Control_c, 0, 64, 91
1, 195111, Control_c, 0, 64, 95
1, 195119, Note_off_c, 0, 61, 53
1, 195125, Note_off_c, 0, 76, 61
1, 195126, Control_c, 0, 64, 99
1, 195140, Control_c, 0, 64, 103
1, 195145, Note_off_c, 0, 88, 65
1, 195151, Note_on_c, 0, 65, 65
1, 195155, Control_c, 0, 64, 105
1, 195170, Control_c, 0, 64, 106
1, 195200, Control_c, 0, 64, 103
1, 195214, Control_c, 0, 64, 97
1, 195222, Note_off_c, 0, 65, 59
1, 195229, Control_c, 0, 64, 88
1, 195240, Note_on_c, 0, 62, 60
1, 195244, Control_c, 0, 64, 80
1, 195249, Note_on_c, 0, 89, 77
1, 195254, Note_on_c, 0, 77, 70
1, 195259, Control_c, 0, 64, 71
1, 195270, Note_off_c, 0, 77, 65
1, 195273, Note_off_c, 0, 89, 70
1, 195274, Control_c, 0, 64, 59
1, 195282, Note_off_c, 0, 62, 57
1, 195288, Control_c, 0, 64, 0
1, 195322, Note_on_c, 0, 65, 52
1, 195392, Control_c, 0, 64, 42
1, 195407, Control_c, 0, 64, 56
1, 195416, Note_off_c, 0, 65, 52
1, 195422, Control_c, 0, 64, 64
1, 195424, Note_on_c, 0, 61, 52
1, 195444, Control_c, 0, 64, 68
1, 195452, Note_on_c, 0, 88, 74
1, 195457, Note_on_c, 0, 76, 60
1, 195459, Control_c, 0, 64, 73
1, 195474, Control_c, 0, 64, 80
1, 195487, Note_off_c, 0, 61, 51
1, 195489, Control_c, 0, 64, 85
1, 195503, Control_c, 0, 64, 88
1, 195509, Note_off_c, 0, 76, 64
1, 195518, Control_c, 0, 64, 91
1, 195527, Note_off_c, 0, 88, 64
1, 195533, Control_c, 0, 64, 92
1, 195538, Note_on_c, 0, 65, 46
1, 195547, Control_c, 0, 64, 93
1, 195586, Note_off_c, 0, 65, 48
1, 195622, Control_c, 0, 64, 92
1, 195635, Note_on_c, 0, 62, 40
1, 195637, Control_c, 0, 64, 91
1, 195652, Control_c, 0, 64, 90
1, 195664, Note_on_c, 0, 89, 40
1, 195667, Control_c, 0, 64, 88
1, 195673, Note_on_c, 0, 77, 31
1, 195682, Control_c, 0, 64, 86
1, 195693, Note_off_c, 0, 62, 58
1, 195695, Note_off_c, 0, 89, 55
1, 195697, Control_c, 0, 64, 84
1, 195711, Control_c, 0, 64, 83
1, 195726, Control_c, 0, 64, 82
1, 195729, Note_off_c, 0, 77, 42
1, 195741, Note_on_c, 0, 65, 37
1, 195741, Control_c, 0, 64, 81
1, 195756, Control_c, 0, 64, 81
1, 195769, Note_off_c, 0, 65, 58
1, 195786, Control_c, 0, 64, 80
1, 195801, Control_c, 0, 64, 79
1, 195816, Control_c, 0, 64, 79
1, 195830, Control_c, 0, 64, 78
1, 195845, Control_c, 0, 64, 77
1, 195860, Control_c, 0, 64, 76
1, 195875, Control_c, 0, 64, 75
1, 195890, Control_c, 0, 64, 72
1, 195905, Control_c, 0, 64, 67
1, 195919, Control_c, 0, 64, 62
1, 195934, Control_c, 0, 64, 53
1, 195982, Note_on_c, 0, 79, 46
1, 195990, Note_on_c, 0, 67, 35
1, 195993, Control_c, 0, 64, 52
1, 196008, Control_c, 0, 64, 50
1, 196023, Control_c, 0, 64, 45
1, 196037, Control_c, 0, 64, 43
1, 196067, Control_c, 0, 64, 42
1, 196082, Control_c, 0, 64, 40
1, 196097, Control_c, 0, 64, 38
1, 196156, Control_c, 0, 64, 41
1, 196158, Note_on_c, 0, 51, 34
1, 196170, Control_c, 0, 64, 45
1, 196193, Control_c, 0, 64, 49
1, 196208, Control_c, 0, 64, 53
1, 196223, Control_c, 0, 64, 58
1, 196238, Control_c, 0, 64, 61
1, 196252, Control_c, 0, 64, 64
1, 196267, Control_c, 0, 64, 67
1, 196278, Note_off_c, 0, 79, 60
1, 196282, Control_c, 0, 64, 71
1, 196296, Control_c, 0, 64, 75
1, 196311, Control_c, 0, 64, 77
1, 196340, Note_off_c, 0, 51, 43
1, 196343, Note_on_c, 0, 50, 33
1, 196370, Note_off_c, 0, 67, 49
1, 196385, Control_c, 0, 64, 76
1, 196400, Control_c, 0, 64, 76
1, 196415, Control_c, 0, 64, 75
1, 196430, Control_c, 0, 64, 75
1, 196444, Control_c, 0, 64, 74
1, 196459, Control_c, 0, 64, 74
1, 196475, Control_c, 0, 64, 73
1, 196490, Control_c, 0, 64, 73
1, 196505, Control_c, 0, 64, 72
1, 196516, Note_off_c, 0, 50, 44
1, 196520, Control_c, 0, 64, 72
1, 196533, Note_on_c, 0, 51, 22
1, 196534, Control_c, 0, 64, 71
1, 196549, Control_c, 0, 64, 71
1, 196564, Control_c, 0, 64, 70
1, 196579, Control_c, 0, 64, 69
1, 196585, Note_off_c, 0, 51, 48
1, 196594, Control_c, 0, 64, 68
1, 196608, Control_c, 0, 64, 67
1, 196623, Control_c, 0, 64, 66
1, 196653, Control_c, 0, 64, 66
1, 196668, Control_c, 0, 64, 65
1, 196683, Control_c, 0, 64, 64
1, 196698, Control_c, 0, 64, 62
1, 196705, Note_on_c, 0, 69, 45
1, 196712, Control_c, 0, 64, 61
1, 196728, Note_on_c, 0, 57, 27
1, 196742, Control_c, 0, 64, 60
1, 196757, Control_c, 0, 64, 57
1, 196772, Control_c, 0, 64, 52
1, 196786, Control_c, 0, 64, 49
1, 196831, Control_c, 0, 64, 50
1, 196846, Control_c, 0, 64, 52
1, 196860, Control_c, 0, 64, 54
1, 196875, Control_c, 0, 64, 56
1, 196880, Note_on_c, 0, 53, 34
1, 196890, Control_c, 0, 64, 60
1, 196905, Control_c, 0, 64, 62
1, 196919, Control_c, 0, 64, 64
1, 196940, Control_c, 0, 64, 65
1, 196947, Note_off_c, 0, 57, 56
1, 196955, Control_c, 0, 64, 69
1, 196970, Control_c, 0, 64, 72
1, 196985, Control_c, 0, 64, 76
1, 196999, Control_c, 0, 64, 78
1, 197031, Note_off_c, 0, 53, 50
1, 197049, Note_on_c, 0, 52, 43
1, 197076, Note_off_c, 0, 69, 61
1, 197118, Control_c, 0, 64, 77
1, 197133, Control_c, 0, 64, 77
1, 197148, Control_c, 0, 64, 76
1, 197163, Control_c, 0, 64, 76
1, 197178, Control_c, 0, 64, 75
1, 197192, Control_c, 0, 64, 75
1, 197198, Note_off_c, 0, 52, 58
1, 197207, Control_c, 0, 64, 74
1, 197222, Control_c, 0, 64, 73
1, 197233, Note_on_c, 0, 53, 38
1, 197237, Control_c, 0, 64, 73
1, 197252, Control_c, 0, 64, 72
1, 197267, Control_c, 0, 64, 72
1, 197282, Control_c, 0, 64, 71
1, 197306, Note_off_c, 0, 53, 54
1, 197312, Control_c, 0, 64, 71
1, 197327, Control_c, 0, 64, 70
1, 197341, Control_c, 0, 64, 69
1, 197356, Control_c, 0, 64, 68
1, 197371, Control_c, 0, 64, 68
1, 197386, Control_c, 0, 64, 67
1, 197415, Control_c, 0, 64, 67
1, 197420, Note_on_c, 0, 87, 57
1, 197422, Note_on_c, 0, 75, 44
1, 197430, Control_c, 0, 64, 66
1, 197445, Control_c, 0, 64, 65
1, 197460, Control_c, 0, 64, 63
1, 197475, Control_c, 0, 64, 59
1, 197489, Control_c, 0, 64, 56
1, 197548, Control_c, 0, 64, 56
1, 197563, Control_c, 0, 64, 55
1, 197604, Note_on_c, 0, 54, 34
1, 197622, Control_c, 0, 64, 56
1, 197637, Control_c, 0, 64, 57
1, 197652, Control_c, 0, 64, 57
1, 197720, Control_c, 0, 64, 57
1, 197735, Control_c, 0, 64, 56
1, 197783, Note_on_c, 0, 52, 41
1, 197791, Note_off_c, 0, 54, 44
1, 197867, Control_c, 0, 64, 57
1, 197897, Control_c, 0, 64, 57
1, 197912, Control_c, 0, 64, 58
1, 197941, Control_c, 0, 64, 58
1, 197958, Note_on_c, 0, 54, 40
1, 197966, Note_off_c, 0, 52, 43
1, 197986, Control_c, 0, 64, 59
1, 198001, Note_off_c, 0, 54, 60
1, 198030, Control_c, 0, 64, 59
1, 198117, Note_off_c, 0, 87, 46
1, 198124, Note_off_c, 0, 75, 37
1, 198147, Note_on_c, 0, 86, 43
1, 198148, Note_on_c, 0, 74, 37
1, 198194, Control_c, 0, 64, 59
1, 198254, Control_c, 0, 64, 59
1, 198269, Control_c, 0, 64, 60
1, 198283, Control_c, 0, 64, 62
1, 198298, Control_c, 0, 64, 64
1, 198305, Note_on_c, 0, 55, 42
1, 198313, Control_c, 0, 64, 66
1, 198328, Control_c, 0, 64, 70
1, 198343, Control_c, 0, 64, 74
1, 198357, Control_c, 0, 64, 78
1, 198372, Control_c, 0, 64, 79
1, 198387, Control_c, 0, 64, 80
1, 198402, Control_c, 0, 64, 81
1, 198449, Note_off_c, 0, 74, 46
1, 198482, Note_on_c, 0, 54, 46
1, 198484, Note_off_c, 0, 86, 58
1, 198501, Note_off_c, 0, 55, 38
1, 198513, Control_c, 0, 64, 80
1, 198528, Control_c, 0, 64, 80
1, 198543, Control_c, 0, 64, 79
1, 198557, Control_c, 0, 64, 78
1, 198572, Control_c, 0, 64, 78
1, 198587, Control_c, 0, 64, 77
1, 198602, Control_c, 0, 64, 76
1, 198617, Control_c, 0, 64, 76
1, 198631, Control_c, 0, 64, 75
1, 198646, Control_c, 0, 64, 75
1, 198650, Note_off_c, 0, 54, 55
1, 198653, Note_on_c, 0, 55, 60
1, 198661, Control_c, 0, 64, 74
1, 198676, Control_c, 0, 64, 73
1, 198690, Control_c, 0, 64, 71
1, 198705, Control_c, 0, 64, 67
1, 198720, Control_c, 0, 64, 63
1, 198732, Note_off_c, 0, 55, 62
1, 198735, Control_c, 0, 64, 60
1, 198750, Control_c, 0, 64, 60
1, 198764, Control_c, 0, 64, 59
1, 198779, Control_c, 0, 64, 58
1, 198794, Control_c, 0, 64, 54
1, 198809, Control_c, 0, 64, 48
1, 198817, Note_on_c, 0, 86, 74
1, 198824, Control_c, 0, 64, 44
1, 198838, Control_c, 0, 64, 43
1, 198891, Note_off_c, 0, 86, 65
1, 198895, Note_on_c, 0, 84, 77
1, 198899, Control_c, 0, 64, 44
1, 198913, Control_c, 0, 64, 44
1, 198928, Control_c, 0, 64, 45
1, 198943, Control_c, 0, 64, 45
1, 198958, Control_c, 0, 64, 46
1, 198967, Note_off_c, 0, 84, 65
1, 198972, Note_on_c, 0, 87, 81
1, 198973, Control_c, 0, 64, 46
1, 198987, Control_c, 0, 64, 47
1, 199032, Control_c, 0, 64, 47
1, 199047, Control_c, 0, 64, 48
1, 199048, Note_on_c, 0, 86, 81
1, 199052, Note_off_c, 0, 87, 63
1, 199062, Control_c, 0, 64, 48
1, 199077, Control_c, 0, 64, 49
1, 199092, Control_c, 0, 64, 49
1, 199114, Note_off_c, 0, 86, 64
1, 199121, Note_on_c, 0, 89, 80
1, 199121, Control_c, 0, 64, 50
1, 199122, Note_on_c, 0, 63, 51
1, 199133, Note_on_c, 0, 72, 59
1, 199166, Control_c, 0, 64, 50
1, 199190, Note_off_c, 0, 72, 63
1, 199193, Note_off_c, 0, 63, 60
1, 199207, Note_on_c, 0, 87, 77
1, 199217, Control_c, 0, 64, 51
1, 199223, Note_off_c, 0, 89, 63
1, 199261, Control_c, 0, 64, 51
1, 199283, Note_on_c, 0, 86, 76
1, 199284, Note_off_c, 0, 87, 66
1, 199343, Note_off_c, 0, 86, 65
1, 199350, Control_c, 0, 64, 52
1, 199365, Control_c, 0, 64, 52
1, 199369, Note_on_c, 0, 84, 63
1, 199394, Control_c, 0, 64, 53
1, 199409, Control_c, 0, 64, 53
1, 199479, Note_off_c, 0, 84, 62
1, 199483, Note_on_c, 0, 82, 59
1, 199483, Control_c, 0, 64, 54
1, 199491, Note_on_c, 0, 65, 38
1, 199504, Note_on_c, 0, 74, 35
1, 199512, Control_c, 0, 64, 54
1, 199840, Control_c, 0, 64, 55
1, 199848, Note_on_c, 0, 75, 45
1, 199852, Note_off_c, 0, 82, 62
1, 199861, Note_on_c, 0, 81, 56
1, 199895, Note_off_c, 0, 65, 35
1, 199895, Note_off_c, 0, 74, 44
1, 199977, Note_off_c, 0, 81, 57
1, 200054, Control_c, 0, 64, 54
1, 200173, Control_c, 0, 64, 54
1, 200179, Note_off_c, 0, 75, 39
1, 200217, Control_c, 0, 64, 53
1, 200222, Note_on_c, 0, 70, 32
1, 200245, Note_on_c, 0, 74, 23
1, 200350, Control_c, 0, 64, 53
1, 200380, Note_on_c, 0, 82, 41
1, 200541, Note_off_c, 0, 82, 59
1, 200562, Note_on_c, 0, 81, 48
1, 200576, Note_off_c, 0, 70, 39
1, 200599, Note_off_c, 0, 74, 43
1, 200725, Note_off_c, 0, 81, 50
1, 200745, Note_on_c, 0, 82, 37
1, 200780, Note_off_c, 0, 82, 66
1, 200901, Note_on_c, 0, 70, 34
1, 200927, Note_on_c, 0, 74, 30
1, 201077, Note_on_c, 0, 80, 51
1, 201163, Note_off_c, 0, 70, 52
1, 201243, Note_off_c, 0, 74, 42
1, 201256, Note_on_c, 0, 79, 56
1, 201274, Note_off_c, 0, 80, 54
1, 201438, Note_off_c, 0, 79, 57
1, 201443, Note_on_c, 0, 80, 48
1, 201494, Note_off_c, 0, 80, 65
1, 201523, Control_c, 0, 64, 53
1, 201595, Note_on_c, 0, 71, 38
1, 201607, Note_on_c, 0, 77, 41
1, 201619, Note_on_c, 0, 74, 35
1, 201780, Note_on_c, 0, 79, 71
1, 201956, Note_on_c, 0, 78, 75
1, 201982, Control_c, 0, 64, 54
1, 201986, Note_off_c, 0, 79, 62
1, 201991, Note_off_c, 0, 74, 43
1, 201997, Control_c, 0, 64, 54
1, 202026, Control_c, 0, 64, 55
1, 202136, Note_on_c, 0, 79, 71
1, 202144, Note_off_c, 0, 78, 65
1, 202171, Note_off_c, 0, 79, 65
1, 202242, Control_c, 0, 64, 54
1, 202299, Note_on_c, 0, 75, 57
1, 202302, Note_on_c, 0, 72, 65
1, 202302, Control_c, 0, 64, 54
1, 202317, Control_c, 0, 64, 53
1, 202317, Note_off_c, 0, 77, 41
1, 202324, Note_off_c, 0, 71, 36
1, 202464, Control_c, 0, 64, 53
1, 202472, Note_on_c, 0, 79, 78
1, 202622, Note_off_c, 0, 79, 62
1, 202644, Note_on_c, 0, 87, 65
1, 202657, Control_c, 0, 64, 53
1, 202671, Note_off_c, 0, 87, 67
1, 202713, Note_off_c, 0, 72, 34
1, 202716, Control_c, 0, 64, 54
1, 202737, Note_off_c, 0, 75, 36
1, 202805, Control_c, 0, 64, 54
1, 202825, Note_on_c, 0, 87, 74
1, 202852, Note_off_c, 0, 87, 67
1, 203002, Note_on_c, 0, 69, 44
1, 203006, Note_on_c, 0, 75, 55
1, 203008, Note_on_c, 0, 72, 60
1, 203020, Control_c, 0, 64, 54
1, 203065, Control_c, 0, 64, 53
1, 203169, Note_on_c, 0, 87, 78
1, 203301, Control_c, 0, 64, 53
1, 203314, Note_off_c, 0, 87, 64
1, 203341, Note_on_c, 0, 77, 65
1, 203372, Note_off_c, 0, 77, 63
1, 203384, Note_off_c, 0, 72, 53
1, 203521, Note_on_c, 0, 77, 63
1, 203548, Note_off_c, 0, 77, 66
1, 203622, Note_off_c, 0, 75, 41
1, 203659, Note_off_c, 0, 69, 41
1, 203697, Note_on_c, 0, 70, 47
1, 203709, Control_c, 0, 64, 52
1, 203713, Note_on_c, 0, 74, 38
1, 203843, Control_c, 0, 64, 52
1, 203861, Note_on_c, 0, 77, 67
1, 203976, Control_c, 0, 64, 51
1, 204028, Note_off_c, 0, 77, 61
1, 204033, Note_on_c, 0, 86, 58
1, 204059, Note_off_c, 0, 86, 67
1, 204110, Note_off_c, 0, 74, 40
1, 204128, Note_off_c, 0, 70, 35
1, 204212, Note_on_c, 0, 86, 60
1, 204242, Note_off_c, 0, 86, 65
1, 204370, Note_on_c, 0, 70, 41
1, 204374, Note_on_c, 0, 67, 39
1, 204392, Note_on_c, 0, 74, 32
1, 204564, Note_on_c, 0, 86, 59
1, 204698, Note_off_c, 0, 86, 58
1, 204725, Note_on_c, 0, 75, 50
1, 204762, Note_off_c, 0, 75, 62
1, 204859, Control_c, 0, 64, 51
1, 204901, Note_on_c, 0, 75, 52
1, 204922, Note_off_c, 0, 75, 62
1, 204992, Control_c, 0, 64, 50
1, 205037, Note_off_c, 0, 70, 37
1, 205048, Note_off_c, 0, 67, 48
1, 205065, Note_on_c, 0, 69, 39
1, 205068, Note_on_c, 0, 72, 47
1, 205068, Note_off_c, 0, 74, 40
1, 205140, Control_c, 0, 64, 50
1, 205234, Note_on_c, 0, 75, 41
1, 205359, Note_off_c, 0, 69, 45
1, 205395, Note_off_c, 0, 75, 50
1, 205409, Note_on_c, 0, 84, 51
1, 205450, Note_off_c, 0, 84, 61
1, 205457, Note_off_c, 0, 72, 58
1, 205504, Control_c, 0, 64, 49
1, 205586, Note_on_c, 0, 84, 33
1, 205617, Note_off_c, 0, 84, 55
1, 205751, Note_on_c, 0, 66, 39
1, 205771, Note_on_c, 0, 69, 33
1, 205779, Note_on_c, 0, 72, 41
1, 205930, Note_on_c, 0, 84, 48
1, 206076, Note_off_c, 0, 84, 56
1, 206114, Note_on_c, 0, 74, 30
1, 206149, Note_off_c, 0, 74, 50
1, 206278, Note_on_c, 0, 74, 45
1, 206315, Note_off_c, 0, 74, 63
1, 206419, Note_off_c, 0, 72, 43
1, 206445, Note_off_c, 0, 69, 36
1, 206448, Note_on_c, 0, 70, 38
1, 206465, Note_on_c, 0, 67, 32
1, 206488, Note_off_c, 0, 66, 47
1, 206656, Note_on_c, 0, 74, 24
1, 206827, Note_off_c, 0, 70, 37
1, 206835, Note_off_c, 0, 74, 43
1, 206841, Note_on_c, 0, 82, 44
1, 206843, Note_off_c, 0, 67, 35
1, 206880, Note_off_c, 0, 82, 63
1, 207038, Note_on_c, 0, 82, 41
1, 207065, Note_off_c, 0, 82, 59
1, 207271, Note_on_c, 0, 82, 21
1, 207429, Note_off_c, 0, 82, 42
1, 207438, Note_on_c, 0, 64, 33
1, 207439, Note_on_c, 0, 72, 47
1, 207446, Note_on_c, 0, 70, 34
1, 207483, Note_off_c, 0, 72, 62
1, 207484, Note_off_c, 0, 70, 58
1, 207494, Note_off_c, 0, 64, 61
1, 207513, Control_c, 0, 64, 50
1, 207527, Control_c, 0, 64, 50
1, 207542, Control_c, 0, 64, 51
1, 207557, Control_c, 0, 64, 51
1, 207608, Note_on_c, 0, 70, 41
1, 207614, Note_on_c, 0, 64, 47
1, 207638, Note_off_c, 0, 70, 60
1, 207642, Note_off_c, 0, 64, 61
1, 207763, Note_on_c, 0, 64, 50
1, 207772, Note_on_c, 0, 70, 47
1, 207798, Note_off_c, 0, 64, 63
1, 207800, Note_off_c, 0, 70, 60
1, 207810, Control_c, 0, 64, 51
1, 207855, Control_c, 0, 64, 50
1, 207947, Note_on_c, 0, 82, 45
1, 208112, Note_off_c, 0, 82, 58
1, 208113, Note_on_c, 0, 65, 44
1, 208121, Control_c, 0, 64, 51
1, 208121, Note_on_c, 0, 70, 38
1, 208125, Note_on_c, 0, 74, 34
1, 208136, Control_c, 0, 64, 51
1, 208153, Note_off_c, 0, 74, 55
1, 208158, Note_off_c, 0, 65, 63
1, 208159, Note_off_c, 0, 70, 62
1, 208173, Control_c, 0, 64, 52
1, 208188, Control_c, 0, 64, 52
1, 208286, Note_on_c, 0, 70, 54
1, 208288, Note_on_c, 0, 65, 57
1, 208321, Note_off_c, 0, 70, 62
1, 208327, Note_off_c, 0, 65, 62
1, 208380, Control_c, 0, 64, 52
1, 208395, Control_c, 0, 64, 51
1, 208453, Note_on_c, 0, 65, 59
1, 208456, Note_on_c, 0, 70, 60
1, 208489, Note_off_c, 0, 70, 63
1, 208491, Note_off_c, 0, 65, 63
1, 208559, Control_c, 0, 64, 51
1, 208619, Note_on_c, 0, 82, 75
1, 208707, Control_c, 0, 64, 51
1, 208783, Note_off_c, 0, 82, 66
1, 208787, Note_on_c, 0, 70, 51
1, 208795, Note_on_c, 0, 67, 49
1, 208795, Note_on_c, 0, 75, 55
1, 208821, Note_off_c, 0, 75, 66
1, 208829, Note_off_c, 0, 70, 61
1, 208830, Note_off_c, 0, 67, 63
1, 208855, Control_c, 0, 64, 52
1, 208970, Note_on_c, 0, 67, 61
1, 208973, Note_on_c, 0, 70, 59
1, 209003, Note_off_c, 0, 70, 65
1, 209007, Note_off_c, 0, 67, 64
1, 209133, Note_on_c, 0, 67, 59
1, 209138, Note_on_c, 0, 70, 54
1, 209165, Note_off_c, 0, 67, 64
1, 209165, Note_off_c, 0, 70, 64
1, 209173, Control_c, 0, 64, 51
1, 209306, Note_on_c, 0, 82, 61
1, 209465, Note_off_c, 0, 82, 63
1, 209479, Note_on_c, 0, 66, 48
1, 209484, Note_on_c, 0, 70, 45
1, 209489, Note_on_c, 0, 76, 35
1, 209516, Note_off_c, 0, 76, 50
1, 209519, Note_off_c, 0, 66, 63
1, 209523, Note_off_c, 0, 70, 62
1, 209652, Note_on_c, 0, 70, 43
1, 209656, Note_on_c, 0, 66, 47
1, 209690, Note_off_c, 0, 70, 55
1, 209695, Note_off_c, 0, 66, 58
1, 209811, Note_on_c, 0, 70, 45
1, 209821, Note_on_c, 0, 66, 36
1, 209833, Control_c, 0, 64, 52
1, 209841, Note_off_c, 0, 70, 60
1, 209854, Note_off_c, 0, 66, 53
1, 209967, Control_c, 0, 64, 52
1, 209996, Note_on_c, 0, 65, 43
1, 210007, Note_on_c, 0, 70, 27
1, 210008, Note_on_c, 0, 82, 46
1, 210011, Control_c, 0, 64, 53
1, 210077, Note_off_c, 0, 65, 59
1, 210126, Note_off_c, 0, 70, 49
1, 210165, Note_off_c, 0, 82, 63
1, 210177, Note_on_c, 0, 77, 54
1, 210202, Note_off_c, 0, 77, 60
1, 210219, Control_c, 0, 64, 53
1, 210347, Note_on_c, 0, 82, 71
1, 210352, Note_on_c, 0, 62, 43
1, 210356, Note_on_c, 0, 70, 46
1, 210368, Control_c, 0, 64, 54
1, 210437, Note_off_c, 0, 62, 60
1, 210440, Note_off_c, 0, 70, 59
1, 210512, Note_off_c, 0, 82, 63
1, 210516, Note_on_c, 0, 78, 71
1, 210546, Note_off_c, 0, 78, 63
1, 210568, Control_c, 0, 64, 54
1, 210685, Note_on_c, 0, 82, 83
1, 210698, Note_on_c, 0, 70, 52
1, 210706, Note_on_c, 0, 63, 49
1, 210761, Note_off_c, 0, 63, 54
1, 210795, Note_off_c, 0, 70, 50
1, 210819, Control_c, 0, 64, 54
1, 210834, Control_c, 0, 64, 53
1, 210846, Note_off_c, 0, 82, 65
1, 210851, Note_on_c, 0, 79, 77
1, 210882, Note_off_c, 0, 79, 61
1, 211015, Note_on_c, 0, 87, 85
1, 211024, Note_on_c, 0, 60, 48
1, 211031, Note_on_c, 0, 65, 53
1, 211042, Control_c, 0, 64, 53
1, 211057, Control_c, 0, 64, 52
1, 211072, Control_c, 0, 64, 52
1, 211081, Note_off_c, 0, 65, 63
1, 211104, Note_off_c, 0, 60, 62
1, 211131, Control_c, 0, 64, 51
1, 211184, Note_off_c, 0, 87, 64
1, 211185, Note_on_c, 0, 81, 82
1, 211232, Note_off_c, 0, 81, 57
1, 211286, Control_c, 0, 64, 52
1, 211337, Note_on_c, 0, 86, 62
1, 211345, Note_on_c, 0, 65, 47
1, 211346, Control_c, 0, 64, 52
1, 211354, Note_on_c, 0, 58, 44
1, 211376, Note_off_c, 0, 86, 63
1, 211384, Note_off_c, 0, 65, 63
1, 211387, Note_off_c, 0, 58, 65
1, 211399, Note_on_c, 0, 84, 65
1, 211437, Note_off_c, 0, 84, 63
1, 211470, Note_on_c, 0, 87, 52
1, 211495, Note_off_c, 0, 87, 66
1, 211501, Note_on_c, 0, 89, 62
1, 211536, Note_off_c, 0, 89, 62
1, 211672, Note_on_c, 0, 50, 28
1, 211683, Note_on_c, 0, 53, 38
1, 211683, Note_on_c, 0, 82, 54
1, 211720, Note_off_c, 0, 82, 66
1, 211732, Control_c, 0, 64, 52
1, 211739, Note_off_c, 0, 53, 58
1, 211742, Note_on_c, 0, 84, 57
1, 211753, Note_off_c, 0, 50, 61
1, 211776, Control_c, 0, 64, 51
1, 211781, Note_off_c, 0, 84, 61
1, 211809, Note_on_c, 0, 82, 38
1, 211828, Note_on_c, 0, 86, 57
1, 211833, Note_off_c, 0, 82, 55
1, 211854, Note_off_c, 0, 86, 67
1, 212012, Note_on_c, 0, 51, 40
1, 212017, Note_on_c, 0, 79, 37
1, 212024, Note_on_c, 0, 58, 33
1, 212046, Note_off_c, 0, 79, 46
1, 212063, Note_on_c, 0, 81, 63
1, 212094, Note_off_c, 0, 81, 65
1, 212108, Note_off_c, 0, 58, 58
1, 212113, Note_off_c, 0, 51, 48
1, 212127, Note_on_c, 0, 79, 53
1, 212151, Note_off_c, 0, 79, 58
1, 212174, Note_on_c, 0, 82, 58
1, 212197, Note_off_c, 0, 82, 67
1, 212340, Note_on_c, 0, 72, 59
1, 212363, Note_on_c, 0, 55, 30
1, 212367, Note_on_c, 0, 51, 28
1, 212378, Note_off_c, 0, 72, 65
1, 212413, Note_on_c, 0, 74, 35
1, 212443, Note_off_c, 0, 74, 55
1, 212461, Note_on_c, 0, 72, 63
1, 212486, Note_off_c, 0, 72, 60
1, 212518, Note_on_c, 0, 75, 49
1, 212520, Note_off_c, 0, 51, 38
1, 212533, Note_off_c, 0, 55, 37
1, 212548, Note_off_c, 0, 75, 56
1, 212570, Control_c, 0, 64, 51
1, 212629, Control_c, 0, 64, 50
1, 212680, Control_c, 0, 64, 50
1, 212696, Note_on_c, 0, 65, 50
1, 212737, Note_off_c, 0, 65, 46
1, 212739, Control_c, 0, 64, 49
1, 212766, Note_on_c, 0, 77, 58
1, 212840, Note_off_c, 0, 77, 64
1, 212842, Control_c, 0, 64, 49
1, 212848, Note_on_c, 0, 79, 71
1, 212917, Note_off_c, 0, 79, 61
1, 212927, Note_on_c, 0, 77, 64
1, 212994, Note_off_c, 0, 77, 62
1, 213007, Note_on_c, 0, 75, 64
1, 213008, Note_on_c, 0, 50, 38
1, 213016, Note_on_c, 0, 58, 46
1, 213070, Note_off_c, 0, 75, 63
1, 213081, Note_on_c, 0, 74, 70
1, 213105, Note_off_c, 0, 50, 58
1, 213111, Note_off_c, 0, 58, 63
1, 213135, Note_off_c, 0, 74, 64
1, 213161, Note_on_c, 0, 72, 77
1, 213168, Control_c, 0, 64, 48
1, 213235, Note_off_c, 0, 72, 61
1, 213250, Note_on_c, 0, 70, 65
1, 213288, Note_off_c, 0, 70, 57
1, 213324, Note_on_c, 0, 51, 31
1, 213349, Note_on_c, 0, 72, 33
1, 213369, Note_on_c, 0, 71, 11
1, 213381, Note_off_c, 0, 72, 55
1, 213397, Note_on_c, 0, 74, 50
1, 213398, Note_off_c, 0, 51, 54
1, 213413, Control_c, 0, 64, 48
1, 213417, Note_off_c, 0, 71, 39
1, 213439, Note_off_c, 0, 74, 56
1, 213443, Control_c, 0, 64, 47
1, 213451, Note_on_c, 0, 72, 66
1, 213457, Control_c, 0, 64, 47
1, 213487, Control_c, 0, 64, 46
1, 213488, Note_off_c, 0, 72, 66
1, 213512, Note_on_c, 0, 74, 52
1, 213540, Note_off_c, 0, 74, 66
1, 213551, Note_on_c, 0, 72, 72
1, 213590, Note_off_c, 0, 72, 65
1, 213591, Control_c, 0, 64, 47
1, 213606, Control_c, 0, 64, 49
1, 213616, Note_on_c, 0, 74, 59
1, 213620, Control_c, 0, 64, 50
1, 213631, Note_on_c, 0, 57, 46
1, 213635, Control_c, 0, 64, 45
1, 213638, Note_on_c, 0, 53, 50
1, 213644, Note_off_c, 0, 74, 66
1, 213650, Control_c, 0, 64, 0
1, 213653, Note_on_c, 0, 72, 63
1, 213657, Note_off_c, 0, 57, 58
1, 213671, Note_off_c, 0, 53, 63
1, 213687, Note_off_c, 0, 72, 66
1, 213707, Note_on_c, 0, 74, 58
1, 213738, Note_off_c, 0, 74, 62
1, 213755, Note_on_c, 0, 72, 74
1, 213803, Note_off_c, 0, 72, 63
1, 213814, Note_on_c, 0, 70, 75
1, 213870, Note_off_c, 0, 70, 64
1, 213886, Note_on_c, 0, 72, 57
1, 213929, Note_on_c, 0, 46, 38
1, 213931, Note_off_c, 0, 72, 64
1, 213950, Note_on_c, 0, 70, 62
1, 213954, Note_on_c, 0, 58, 30
1, 213979, Note_off_c, 0, 70, 65
1, 214012, Note_off_c, 0, 46, 62
1, 214024, Note_off_c, 0, 58, 61
1, 214135, Note_on_c, 0, 58, 64
1, 214188, Note_off_c, 0, 58, 59
1, 214208, Note_on_c, 0, 62, 59
1, 214264, Note_off_c, 0, 62, 58
1, 214282, Note_on_c, 0, 60, 56
1, 214293, Note_on_c, 0, 57, 42
1, 214329, Note_off_c, 0, 60, 57
1, 214358, Note_on_c, 0, 63, 54
1, 214406, Note_off_c, 0, 63, 56
1, 214416, Note_off_c, 0, 57, 57
1, 214442, Note_on_c, 0, 56, 49
1, 214447, Note_on_c, 0, 62, 47
1, 214479, Note_off_c, 0, 56, 59
1, 214495, Note_off_c, 0, 62, 61
1, 214530, Note_on_c, 0, 65, 49
1, 214604, Note_off_c, 0, 65, 64
1, 214623, Note_on_c, 0, 63, 53
1, 214624, Note_on_c, 0, 46, 42
1, 214643, Note_on_c, 0, 55, 36
1, 214649, Note_off_c, 0, 63, 64
1, 214799, Note_on_c, 0, 58, 54
1, 214801, Note_off_c, 0, 46, 62
1, 214819, Note_off_c, 0, 55, 58
1, 214852, Note_off_c, 0, 58, 59
1, 214867, Note_on_c, 0, 62, 53
1, 214934, Note_off_c, 0, 62, 55
1, 214956, Note_on_c, 0, 60, 56
1, 214958, Note_on_c, 0, 57, 59
1, 215001, Note_off_c, 0, 60, 59
1, 215030, Note_on_c, 0, 63, 54
1, 215060, Note_off_c, 0, 57, 49
1, 215110, Note_off_c, 0, 63, 60
1, 215120, Note_on_c, 0, 56, 58
1, 215123, Note_on_c, 0, 62, 61
1, 215148, Note_off_c, 0, 56, 64
1, 215183, Note_off_c, 0, 62, 58
1, 215207, Note_on_c, 0, 65, 58
1, 215284, Note_off_c, 0, 65, 64
1, 215298, Note_on_c, 0, 46, 47
1, 215298, Note_on_c, 0, 63, 63
1, 215308, Note_on_c, 0, 55, 47
1, 215329, Note_off_c, 0, 63, 65
1, 215465, Note_on_c, 0, 58, 59
1, 215475, Note_off_c, 0, 46, 61
1, 215494, Note_off_c, 0, 55, 60
1, 215519, Note_off_c, 0, 58, 57
1, 215543, Note_on_c, 0, 62, 51
1, 215599, Note_off_c, 0, 62, 57
1, 215628, Note_on_c, 0, 57, 55
1, 215638, Note_on_c, 0, 60, 48
1, 215695, Note_off_c, 0, 60, 60
1, 215716, Note_on_c, 0, 63, 50
1, 215776, Note_off_c, 0, 63, 56
1, 215780, Note_off_c, 0, 57, 58
1, 215797, Note_on_c, 0, 62, 56
1, 215802, Note_on_c, 0, 56, 53
1, 215847, Note_off_c, 0, 56, 57
1, 215853, Note_off_c, 0, 62, 58
1, 215881, Note_on_c, 0, 65, 63
1, 215925, Note_off_c, 0, 65, 62
1, 215977, Note_on_c, 0, 63, 66
1, 215977, Note_on_c, 0, 55, 51
1, 216014, Note_off_c, 0, 55, 62
1, 216045, Note_off_c, 0, 63, 60
1, 216057, Note_on_c, 0, 67, 64
1, 216125, Note_on_c, 0, 50, 68
1, 216126, Note_off_c, 0, 67, 63
1, 216132, Note_on_c, 0, 65, 74
1, 216160, Note_off_c, 0, 50, 62
1, 216199, Note_off_c, 0, 65, 65
1, 216207, Note_on_c, 0, 68, 75
1, 216270, Note_off_c, 0, 68, 62
1, 216286, Note_on_c, 0, 51, 73
1, 216287, Note_on_c, 0, 67, 78
1, 216333, Note_off_c, 0, 51, 60
1, 216365, Note_on_c, 0, 70, 78
1, 216369, Note_off_c, 0, 67, 61
1, 216454, Note_on_c, 0, 48, 65
1, 216455, Note_off_c, 0, 70, 64
1, 216458, Note_on_c, 0, 69, 74
1, 216490, Note_off_c, 0, 48, 63
1, 216525, Note_off_c, 0, 69, 62
1, 216538, Note_on_c, 0, 72, 74
1, 216610, Note_off_c, 0, 72, 63
1, 216624, Note_on_c, 0, 70, 66
1, 216625, Note_on_c, 0, 50, 44
1, 216688, Note_off_c, 0, 70, 61
1, 216706, Note_on_c, 0, 72, 70
1, 216786, Note_off_c, 0, 72, 64
1, 216796, Note_on_c, 0, 74, 64
1, 216834, Note_off_c, 0, 50, 63
1, 216870, Note_on_c, 0, 72, 79
1, 216874, Note_off_c, 0, 74, 62
1, 216948, Note_on_c, 0, 70, 76
1, 216951, Note_off_c, 0, 72, 64
1, 217028, Note_on_c, 0, 68, 80
1, 217032, Note_off_c, 0, 70, 64
1, 217100, Note_off_c, 0, 68, 65
1, 217105, Note_on_c, 0, 67, 75
1, 217183, Note_off_c, 0, 67, 64
1, 217184, Note_on_c, 0, 66, 85
1, 217251, Note_on_c, 0, 51, 66
1, 217257, Note_off_c, 0, 66, 64
1, 217273, Note_on_c, 0, 67, 77
1, 217337, Note_off_c, 0, 67, 52
1, 217352, Note_on_c, 0, 72, 87
1, 217381, Note_off_c, 0, 51, 63
1, 217424, Note_off_c, 0, 72, 63
1, 217427, Note_on_c, 0, 75, 80
1, 217502, Note_on_c, 0, 74, 77
1, 217502, Note_off_c, 0, 75, 63
1, 217579, Note_off_c, 0, 74, 63
1, 217584, Note_on_c, 0, 72, 91
1, 217659, Note_on_c, 0, 70, 83
1, 217663, Note_off_c, 0, 72, 64
1, 217728, Note_off_c, 0, 70, 65
1, 217734, Note_on_c, 0, 69, 80
1, 217788, Note_off_c, 0, 69, 64
1, 217803, Note_on_c, 0, 67, 79
1, 217831, Note_off_c, 0, 67, 67
1, 217906, Note_on_c, 0, 53, 57
1, 217910, Note_on_c, 0, 65, 80
1, 217982, Note_on_c, 0, 70, 78
1, 217988, Note_off_c, 0, 65, 62
1, 218057, Note_on_c, 0, 74, 71
1, 218068, Note_off_c, 0, 53, 58
1, 218068, Note_off_c, 0, 70, 61
1, 218082, Note_on_c, 0, 58, 52
1, 218131, Note_off_c, 0, 74, 65
1, 218134, Note_on_c, 0, 77, 78
1, 218155, Note_off_c, 0, 77, 68
1, 218235, Note_on_c, 0, 82, 80
1, 218238, Note_off_c, 0, 58, 56
1, 218241, Note_on_c, 0, 62, 57
1, 218267, Note_off_c, 0, 82, 63
1, 218400, Note_off_c, 0, 62, 52
1, 218405, Note_on_c, 0, 58, 51
1, 218411, Note_on_c, 0, 74, 65
1, 218416, Note_on_c, 0, 70, 61
1, 218436, Note_off_c, 0, 74, 67
1, 218447, Note_off_c, 0, 70, 66
1, 218578, Note_on_c, 0, 53, 50
1, 218587, Note_on_c, 0, 77, 79
1, 218589, Note_off_c, 0, 58, 43
1, 218590, Note_on_c, 0, 74, 65
1, 218740, Note_off_c, 0, 53, 60
1, 218761, Note_on_c, 0, 72, 81
1, 218763, Note_on_c, 0, 60, 57
1, 218763, Note_on_c, 0, 75, 66
1, 218763, Note_off_c, 0, 77, 63
1, 218765, Note_off_c, 0, 74, 63
1, 218787, Note_off_c, 0, 72, 68
1, 218790, Note_off_c, 0, 75, 67
1, 218929, Note_on_c, 0, 63, 52
1, 218938, Note_on_c, 0, 74, 56
1, 218941, Note_off_c, 0, 60, 32
1, 218944, Note_on_c, 0, 70, 58
1, 218971, Note_off_c, 0, 74, 66
1, 218973, Note_off_c, 0, 70, 65
1, 219081, Note_off_c, 0, 63, 37
1, 219087, Note_on_c, 0, 60, 40
1, 219100, Note_on_c, 0, 72, 66
1, 219103, Note_on_c, 0, 69, 53
1, 219120, Note_off_c, 0, 72, 63
1, 219126, Note_off_c, 0, 69, 58
1, 219263, Note_on_c, 0, 58, 40
1, 219264, Note_off_c, 0, 60, 41
1, 219273, Note_on_c, 0, 70, 53
1, 219287, Note_on_c, 0, 62, 42
1, 219297, Note_off_c, 0, 70, 62
1, 219310, Note_off_c, 0, 58, 60
1, 219332, Note_off_c, 0, 62, 61
1, 219441, Note_on_c, 0, 70, 54
1, 219488, Note_off_c, 0, 70, 60
1, 219523, Note_on_c, 0, 74, 40
1, 219569, Note_off_c, 0, 74, 59
1, 219595, Note_on_c, 0, 72, 58
1, 219609, Note_on_c, 0, 69, 42
1, 219638, Note_off_c, 0, 72, 62
1, 219669, Note_on_c, 0, 75, 50
1, 219722, Note_off_c, 0, 75, 54
1, 219749, Note_off_c, 0, 69, 44
1, 219752, Note_on_c, 0, 68, 55
1, 219761, Note_on_c, 0, 74, 45
1, 219794, Note_off_c, 0, 68, 59
1, 219804, Note_off_c, 0, 74, 62
1, 219843, Note_on_c, 0, 77, 45
1, 219911, Note_off_c, 0, 77, 58
1, 219928, Note_on_c, 0, 75, 61
1, 219934, Note_on_c, 0, 58, 45
1, 219937, Note_on_c, 0, 67, 38
1, 219938, Control_c, 0, 64, 42
1, 219952, Control_c, 0, 64, 63
1, 219953, Note_off_c, 0, 75, 67
1, 219961, Note_off_c, 0, 58, 53
1, 219962, Note_off_c, 0, 67, 50
1, 219967, Control_c, 0, 64, 69
1, 219982, Control_c, 0, 64, 75
1, 219997, Control_c, 0, 64, 81
1, 220012, Control_c, 0, 64, 84
1, 220026, Control_c, 0, 64, 87
1, 220041, Control_c, 0, 64, 88
1, 220098, Note_on_c, 0, 82, 59
1, 220104, Note_on_c, 0, 70, 53
1, 220144, Note_off_c, 0, 82, 60
1, 220167, Note_off_c, 0, 70, 55
1, 220167, Control_c, 0, 64, 88
1, 220181, Note_on_c, 0, 86, 53
1, 220197, Control_c, 0, 64, 87
1, 220212, Control_c, 0, 64, 85
1, 220226, Control_c, 0, 64, 80
1, 220241, Control_c, 0, 64, 71
1, 220256, Control_c, 0, 64, 32
1, 220261, Note_off_c, 0, 86, 62
1, 220271, Control_c, 0, 64, 0
1, 220274, Note_on_c, 0, 84, 58
1, 220275, Note_on_c, 0, 69, 47
1, 220303, Note_off_c, 0, 69, 56
1, 220325, Note_off_c, 0, 84, 60
1, 220345, Note_on_c, 0, 87, 60
1, 220409, Note_off_c, 0, 87, 53
1, 220416, Note_on_c, 0, 68, 47
1, 220438, Note_on_c, 0, 86, 52
1, 220444, Note_off_c, 0, 68, 58
1, 220479, Note_off_c, 0, 86, 63
1, 220512, Note_on_c, 0, 89, 50
1, 220583, Note_off_c, 0, 89, 62
1, 220583, Control_c, 0, 64, 49
1, 220598, Control_c, 0, 64, 67
1, 220599, Note_on_c, 0, 58, 41
1, 220602, Note_on_c, 0, 87, 52
1, 220613, Control_c, 0, 64, 79
1, 220620, Note_on_c, 0, 67, 33
1, 220625, Note_off_c, 0, 87, 61
1, 220628, Control_c, 0, 64, 94
1, 220643, Control_c, 0, 64, 107
1, 220657, Control_c, 0, 64, 115
1, 220672, Control_c, 0, 64, 124
1, 220687, Control_c, 0, 64, 127
1, 220691, Note_off_c, 0, 58, 54
1, 220726, Note_off_c, 0, 67, 49
1, 220787, Note_on_c, 0, 70, 53
1, 220832, Note_off_c, 0, 70, 61
1, 220860, Note_on_c, 0, 74, 49
1, 220902, Control_c, 0, 64, 118
1, 220917, Control_c, 0, 64, 101
1, 220919, Note_off_c, 0, 74, 61
1, 220932, Control_c, 0, 64, 83
1, 220938, Note_on_c, 0, 69, 59
1, 220945, Note_on_c, 0, 72, 64
1, 220947, Control_c, 0, 64, 62
1, 220962, Control_c, 0, 64, 0
1, 220966, Note_off_c, 0, 69, 61
1, 220988, Note_off_c, 0, 72, 61
1, 221017, Note_on_c, 0, 75, 54
1, 221082, Note_off_c, 0, 75, 41
1, 221099, Note_on_c, 0, 68, 54
1, 221114, Note_on_c, 0, 74, 50
1, 221126, Note_off_c, 0, 68, 64
1, 221149, Note_off_c, 0, 74, 66
1, 221190, Note_on_c, 0, 77, 50
1, 221249, Note_off_c, 0, 77, 61
1, 221270, Note_on_c, 0, 75, 58
1, 221281, Note_on_c, 0, 67, 34
1, 221305, Note_off_c, 0, 75, 62
1, 221308, Note_off_c, 0, 67, 50
1, 221341, Note_on_c, 0, 70, 59
1, 221396, Note_off_c, 0, 70, 53
1, 221427, Note_on_c, 0, 77, 70
1, 221439, Note_on_c, 0, 62, 52
1, 221462, Note_off_c, 0, 62, 57
1, 221487, Note_off_c, 0, 77, 50
1, 221503, Note_on_c, 0, 70, 71
1, 221590, Note_off_c, 0, 70, 59
1, 221596, Note_on_c, 0, 79, 86
1, 221597, Note_on_c, 0, 63, 74
1, 221641, Note_off_c, 0, 63, 56
1, 221678, Note_off_c, 0, 79, 64
1, 221682, Note_on_c, 0, 70, 73
1, 221750, Note_off_c, 0, 70, 62
1, 221762, Note_on_c, 0, 60, 75
1, 221770, Note_on_c, 0, 79, 71
1, 221771, Note_on_c, 0, 81, 84
1, 221788, Note_off_c, 0, 60, 67
1, 221820, Note_off_c, 0, 81, 57
1, 221827, Note_off_c, 0, 79, 62
1, 221841, Note_on_c, 0, 70, 72
1, 221894, Note_off_c, 0, 70, 61
1, 221932, Note_on_c, 0, 62, 72
1, 221933, Note_on_c, 0, 82, 68
1, 221935, Note_on_c, 0, 50, 67
1, 222008, Note_off_c, 0, 82, 68
1, 222022, Note_on_c, 0, 84, 78
1, 222102, Note_on_c, 0, 86, 78
1, 222104, Note_off_c, 0, 84, 65
1, 222180, Note_on_c, 0, 84, 79
1, 222196, Note_off_c, 0, 86, 61
1, 222199, Note_off_c, 0, 62, 62
1, 222234, Note_off_c, 0, 50, 64
1, 222256, Note_on_c, 0, 82, 77
1, 222267, Note_off_c, 0, 84, 63
1, 222334, Note_on_c, 0, 80, 81
1, 222357, Note_off_c, 0, 82, 62
1, 222414, Note_on_c, 0, 79, 82
1, 222414, Note_off_c, 0, 80, 65
1, 222467, Note_off_c, 0, 79, 57
1, 222493, Note_on_c, 0, 78, 80
1, 222563, Note_on_c, 0, 51, 73
1, 222565, Note_on_c, 0, 63, 76
1, 222569, Note_off_c, 0, 78, 63
1, 222569, Note_on_c, 0, 79, 80
1, 222647, Note_on_c, 0, 77, 77
1, 222659, Note_off_c, 0, 79, 57
1, 222723, Note_on_c, 0, 75, 77
1, 222727, Note_off_c, 0, 77, 64
1, 222800, Note_on_c, 0, 74, 75
1, 222804, Note_off_c, 0, 75, 63
1, 222810, Note_off_c, 0, 63, 64
1, 222842, Note_off_c, 0, 51, 63
1, 222876, Note_off_c, 0, 74, 64
1, 222883, Note_on_c, 0, 72, 87
1, 222961, Note_on_c, 0, 70, 81
1, 222965, Note_off_c, 0, 72, 61
1, 223034, Note_off_c, 0, 70, 64
1, 223037, Note_on_c, 0, 69, 77
1, 223106, Note_off_c, 0, 69, 64
1, 223112, Note_on_c, 0, 67, 76
1, 223200, Note_on_c, 0, 65, 84
1, 223207, Note_off_c, 0, 67, 62
1, 223209, Note_on_c, 0, 53, 53
1, 223222, Note_off_c, 0, 65, 72
1, 223265, Note_off_c, 0, 53, 56
1, 223281, Note_on_c, 0, 62, 53
1, 223349, Note_off_c, 0, 62, 57
1, 223360, Note_on_c, 0, 58, 59
1, 223374, Note_on_c, 0, 86, 72
1, 223411, Note_off_c, 0, 86, 60
1, 223422, Note_off_c, 0, 58, 55
1, 223448, Note_on_c, 0, 62, 56
1, 223511, Note_off_c, 0, 62, 49
1, 223526, Note_on_c, 0, 86, 85
1, 223529, Note_on_c, 0, 53, 64
1, 223570, Note_off_c, 0, 86, 65
1, 223595, Note_off_c, 0, 53, 51
1, 223615, Note_on_c, 0, 62, 65
1, 223684, Note_off_c, 0, 62, 60
1, 223688, Note_on_c, 0, 58, 68
1, 223694, Note_on_c, 0, 86, 91
1, 223732, Note_off_c, 0, 86, 65
1, 223742, Note_off_c, 0, 58, 57
1, 223769, Note_on_c, 0, 62, 54
1, 223857, Note_off_c, 0, 62, 56
1, 223864, Note_on_c, 0, 53, 54
1, 223864, Note_on_c, 0, 86, 75
1, 223958, Note_off_c, 0, 53, 55
1, 223961, Note_on_c, 0, 82, 76
1, 223967, Note_off_c, 0, 86, 60
1, 223968, Note_on_c, 0, 62, 51
1, 224024, Note_off_c, 0, 62, 58
1, 224037, Note_on_c, 0, 58, 58
1, 224039, Note_on_c, 0, 77, 78
1, 224039, Note_off_c, 0, 82, 67
1, 224082, Note_off_c, 0, 58, 59
1, 224086, Note_off_c, 0, 77, 64
1, 224110, Note_on_c, 0, 62, 55
1, 224113, Note_on_c, 0, 74, 74
1, 224185, Note_on_c, 0, 53, 68
1, 224189, Note_on_c, 0, 82, 76
1, 224197, Note_off_c, 0, 74, 62
1, 224206, Note_off_c, 0, 62, 56
1, 224241, Note_off_c, 0, 53, 53
1, 224256, Note_on_c, 0, 62, 42
1, 224262, Note_on_c, 0, 77, 75
1, 224262, Note_off_c, 0, 82, 64
1, 224340, Note_on_c, 0, 58, 65
1, 224341, Note_off_c, 0, 77, 63
1, 224342, Note_on_c, 0, 74, 81
1, 224342, Note_off_c, 0, 62, 61
1, 224390, Note_off_c, 0, 58, 63
1, 224403, Note_off_c, 0, 74, 63
1, 224414, Note_on_c, 0, 70, 79
1, 224423, Note_on_c, 0, 62, 57
1, 224444, Note_off_c, 0, 70, 68
1, 224463, Note_off_c, 0, 62, 60
1, 224501, Note_on_c, 0, 53, 64
1, 224506, Note_on_c, 0, 74, 73
1, 224554, Note_off_c, 0, 74, 64
1, 224555, Note_on_c, 0, 72, 88
1, 224575, Note_on_c, 0, 63, 61
1, 224575, Note_off_c, 0, 53, 56
1, 224605, Note_off_c, 0, 72, 60
1, 224619, Note_on_c, 0, 74, 62
1, 224638, Note_off_c, 0, 63, 62
1, 224657, Note_on_c, 0, 57, 58
1, 224665, Note_off_c, 0, 74, 66
1, 224680, Note_on_c, 0, 72, 69
1, 224700, Note_off_c, 0, 57, 59
1, 224721, Note_off_c, 0, 72, 65
1, 224724, Note_on_c, 0, 63, 56
1, 224731, Note_on_c, 0, 74, 61
1, 224768, Note_off_c, 0, 74, 66
1, 224777, Note_off_c, 0, 63, 59
1, 224784, Note_on_c, 0, 72, 69
1, 224795, Note_on_c, 0, 53, 60
1, 224827, Note_off_c, 0, 72, 64
1, 224837, Note_on_c, 0, 74, 59
1, 224868, Note_off_c, 0, 53, 57
1, 224873, Note_off_c, 0, 74, 65
1, 224883, Note_on_c, 0, 63, 63
1, 224887, Note_on_c, 0, 72, 68
1, 224933, Note_off_c, 0, 72, 64
1, 224938, Note_on_c, 0, 74, 61
1, 224953, Note_off_c, 0, 63, 63
1, 224963, Note_on_c, 0, 57, 65
1, 224988, Note_off_c, 0, 74, 63
1, 224995, Note_on_c, 0, 72, 72
1, 225026, Note_off_c, 0, 57, 62
1, 225034, Note_on_c, 0, 63, 62
1, 225046, Note_on_c, 0, 74, 62
1, 225048, Note_off_c, 0, 72, 64
1, 225100, Note_off_c, 0, 74, 64
1, 225102, Note_on_c, 0, 72, 75
1, 225102, Note_off_c, 0, 63, 61
1, 225115, Note_on_c, 0, 53, 76
1, 225155, Note_on_c, 0, 74, 63
1, 225156, Note_off_c, 0, 72, 63
1, 225190, Note_off_c, 0, 53, 59
1, 225194, Note_on_c, 0, 63, 73
1, 225208, Note_off_c, 0, 74, 64
1, 225214, Note_on_c, 0, 72, 70
1, 225265, Note_off_c, 0, 72, 62
1, 225267, Note_on_c, 0, 74, 63
1, 225277, Note_off_c, 0, 63, 64
1, 225285, Note_on_c, 0, 57, 72
1, 225320, Note_off_c, 0, 74, 65
1, 225327, Note_on_c, 0, 72, 73
1, 225346, Note_off_c, 0, 57, 62
1, 225350, Note_on_c, 0, 63, 74
1, 225371, Note_off_c, 0, 72, 63
1, 225379, Note_on_c, 0, 74, 57
1, 225416, Note_off_c, 0, 63, 62
1, 225426, Note_on_c, 0, 53, 70
1, 225442, Note_off_c, 0, 74, 64
1, 225448, Note_on_c, 0, 72, 69
1, 225478, Note_off_c, 0, 72, 66
1, 225489, Note_on_c, 0, 63, 63
1, 225490, Note_on_c, 0, 74, 56
1, 225497, Note_off_c, 0, 53, 49
1, 225544, Note_on_c, 0, 72, 81
1, 225544, Note_off_c, 0, 74, 64
1, 225553, Note_off_c, 0, 63, 63
1, 225569, Note_on_c, 0, 57, 59
1, 225598, Note_off_c, 0, 72, 64
1, 225599, Note_off_c, 0, 57, 65
1, 225610, Note_on_c, 0, 70, 75
1, 225661, Note_off_c, 0, 70, 62
1, 225668, Note_on_c, 0, 72, 69
1, 225711, Note_off_c, 0, 72, 64
1, 225735, Note_on_c, 0, 70, 66
1, 225747, Note_on_c, 0, 58, 45
1, 225763, Note_off_c, 0, 70, 65
1, 225775, Note_off_c, 0, 58, 58
1, 225935, Note_on_c, 0, 82, 55
1, 225949, Note_on_c, 0, 70, 30
1, 225988, Control_c, 0, 64, 15
1, 226003, Control_c, 0, 64, 47
1, 226018, Control_c, 0, 64, 62
1, 226033, Control_c, 0, 64, 67
1, 226048, Control_c, 0, 64, 72
1, 226063, Control_c, 0, 64, 77
1, 226078, Control_c, 0, 64, 81
1, 226093, Control_c, 0, 64, 83
1, 226104, Note_on_c, 0, 69, 45
1, 226106, Note_off_c, 0, 70, 42
1, 226107, Control_c, 0, 64, 85
1, 226122, Control_c, 0, 64, 87
1, 226143, Control_c, 0, 64, 88
1, 226158, Note_off_c, 0, 82, 38
1, 226158, Control_c, 0, 64, 88
1, 226191, Note_off_c, 0, 69, 42
1, 226257, Note_on_c, 0, 70, 36
1, 226262, Control_c, 0, 64, 88
1, 226271, Note_on_c, 0, 82, 44
1, 226277, Control_c, 0, 64, 87
1, 226292, Control_c, 0, 64, 87
1, 226307, Control_c, 0, 64, 86
1, 226321, Control_c, 0, 64, 85
1, 226336, Control_c, 0, 64, 83
1, 226351, Control_c, 0, 64, 82
1, 226365, Control_c, 0, 64, 81
1, 226380, Control_c, 0, 64, 79
1, 226395, Control_c, 0, 64, 78
1, 226410, Control_c, 0, 64, 77
1, 226425, Control_c, 0, 64, 75
1, 226439, Note_off_c, 0, 70, 45
1, 226439, Control_c, 0, 64, 72
1, 226442, Note_off_c, 0, 82, 61
1, 226450, Note_on_c, 0, 72, 50
1, 226454, Control_c, 0, 64, 69
1, 226457, Note_on_c, 0, 81, 55
1, 226469, Control_c, 0, 64, 65
1, 226484, Control_c, 0, 64, 57
1, 226499, Control_c, 0, 64, 49
1, 226513, Control_c, 0, 64, 50
1, 226528, Control_c, 0, 64, 51
1, 226587, Note_off_c, 0, 72, 59
1, 226611, Note_off_c, 0, 81, 60
1, 226630, Note_on_c, 0, 70, 43
1, 226634, Note_on_c, 0, 82, 51
1, 226736, Control_c, 0, 64, 52
1, 226777, Note_off_c, 0, 70, 55
1, 226788, Note_off_c, 0, 82, 64
1, 226807, Note_on_c, 0, 69, 34
1, 226809, Note_on_c, 0, 84, 59
1, 226856, Control_c, 0, 64, 52
1, 226892, Control_c, 0, 64, 53
1, 226937, Control_c, 0, 64, 53
1, 226958, Note_off_c, 0, 69, 46
1, 226965, Note_off_c, 0, 84, 61
1, 226966, Control_c, 0, 64, 54
1, 226972, Note_on_c, 0, 68, 43
1, 226981, Control_c, 0, 64, 54
1, 226983, Note_on_c, 0, 86, 51
1, 227118, Note_off_c, 0, 86, 62
1, 227129, Note_off_c, 0, 68, 51
1, 227130, Control_c, 0, 64, 55
1, 227145, Note_on_c, 0, 87, 48
1, 227158, Note_on_c, 0, 67, 33
1, 227211, Note_off_c, 0, 87, 57
1, 227233, Control_c, 0, 64, 55
1, 227245, Note_on_c, 0, 86, 44
1, 227282, Note_off_c, 0, 86, 63
1, 227303, Note_off_c, 0, 67, 49
1, 227307, Note_on_c, 0, 58, 48
1, 227307, Control_c, 0, 64, 56
1, 227315, Note_on_c, 0, 87, 55
1, 227345, Note_off_c, 0, 58, 61
1, 227367, Note_off_c, 0, 87, 60
1, 227382, Note_on_c, 0, 86, 55
1, 227449, Note_off_c, 0, 86, 63
1, 227469, Note_on_c, 0, 66, 65
1, 227476, Note_on_c, 0, 87, 61
1, 227547, Note_off_c, 0, 87, 60
1, 227554, Note_on_c, 0, 85, 62
1, 227621, Note_off_c, 0, 85, 63
1, 227645, Note_off_c, 0, 66, 64
1, 227652, Note_on_c, 0, 84, 66
1, 227653, Note_on_c, 0, 58, 45
1, 227684, Note_off_c, 0, 58, 57
1, 227727, Note_off_c, 0, 84, 62
1, 227731, Note_on_c, 0, 82, 67
1, 227804, Note_off_c, 0, 82, 66
1, 227814, Note_on_c, 0, 65, 68
1, 227815, Note_on_c, 0, 81, 78
1, 227875, Note_off_c, 0, 81, 62
1, 227890, Note_on_c, 0, 82, 64
1, 227962, Note_off_c, 0, 82, 67
1, 227976, Note_on_c, 0, 84, 69
1, 227978, Note_off_c, 0, 65, 65
1, 227982, Control_c, 0, 64, 55
1, 227994, Note_on_c, 0, 58, 52
1, 228040, Note_off_c, 0, 58, 59
1, 228051, Note_off_c, 0, 84, 63
1, 228060, Note_on_c, 0, 82, 62
1, 228127, Note_off_c, 0, 82, 62
1, 228131, Control_c, 0, 64, 56
1, 228140, Note_on_c, 0, 81, 75
1, 228156, Note_on_c, 0, 69, 50
1, 228203, Note_off_c, 0, 81, 63
1, 228205, Control_c, 0, 64, 56
1, 228231, Note_on_c, 0, 79, 54
1, 228249, Control_c, 0, 64, 57
1, 228269, Note_off_c, 0, 69, 55
1, 228308, Note_off_c, 0, 79, 61
1, 228311, Note_on_c, 0, 58, 47
1, 228318, Note_on_c, 0, 77, 57
1, 228343, Note_off_c, 0, 58, 65
1, 228361, Note_off_c, 0, 77, 61
1, 228394, Note_on_c, 0, 75, 54
1, 228453, Note_off_c, 0, 75, 62
1, 228485, Note_on_c, 0, 74, 46
1, 228486, Note_on_c, 0, 58, 42
1, 228509, Note_off_c, 0, 74, 59
1, 228523, Note_off_c, 0, 58, 62
1, 228671, Control_c, 0, 64, 57
1, 228682, Note_on_c, 0, 58, 37
1, 228693, Note_on_c, 0, 74, 39
1, 228701, Control_c, 0, 64, 58
1, 228715, Control_c, 0, 64, 58
1, 228730, Control_c, 0, 64, 59
1, 228745, Control_c, 0, 64, 60
1, 228759, Control_c, 0, 64, 61
1, 228774, Control_c, 0, 64, 62
1, 228789, Control_c, 0, 64, 62
1, 228804, Control_c, 0, 64, 63
1, 228819, Control_c, 0, 64, 63
1, 228833, Control_c, 0, 64, 64
1, 228854, Note_off_c, 0, 58, 52
1, 228858, Note_on_c, 0, 57, 50
1, 228859, Note_off_c, 0, 74, 53
1, 228907, Control_c, 0, 64, 63
1, 228922, Control_c, 0, 64, 63
1, 228952, Control_c, 0, 64, 62
1, 228981, Control_c, 0, 64, 62
1, 229010, Note_off_c, 0, 57, 55
1, 229011, Control_c, 0, 64, 61
1, 229024, Note_on_c, 0, 70, 66
1, 229026, Note_on_c, 0, 58, 44
1, 229041, Control_c, 0, 64, 61
1, 229100, Control_c, 0, 64, 60
1, 229152, Control_c, 0, 64, 60
1, 229207, Note_on_c, 0, 60, 52
1, 229207, Note_on_c, 0, 69, 69
1, 229217, Note_off_c, 0, 58, 48
1, 229223, Note_off_c, 0, 70, 57
1, 229227, Control_c, 0, 64, 59
1, 229360, Control_c, 0, 64, 59
1, 229375, Note_on_c, 0, 58, 58
1, 229380, Note_on_c, 0, 70, 78
1, 229383, Note_off_c, 0, 60, 60
1, 229389, Note_off_c, 0, 69, 59
1, 229404, Control_c, 0, 64, 58
1, 229419, Control_c, 0, 64, 58
1, 229542, Note_off_c, 0, 58, 59
1, 229544, Note_on_c, 0, 72, 81
1, 229548, Note_off_c, 0, 70, 63
1, 229553, Note_on_c, 0, 57, 52
1, 229553, Control_c, 0, 64, 57
1, 229627, Control_c, 0, 64, 57
1, 229656, Control_c, 0, 64, 56
1, 229696, Note_off_c, 0, 57, 56
1, 229701, Control_c, 0, 64, 56
1, 229713, Note_on_c, 0, 56, 45
1, 229715, Note_off_c, 0, 72, 61
1, 229719, Note_on_c, 0, 74, 64
1, 229745, Control_c, 0, 64, 55
1, 229861, Note_off_c, 0, 56, 53
1, 229863, Control_c, 0, 64, 55
1, 229913, Note_off_c, 0, 74, 61
1, 229915, Control_c, 0, 64, 54
1, 229935, Note_on_c, 0, 75, 52
1, 229950, Note_on_c, 0, 55, 23
1, 229975, Control_c, 0, 64, 54
1, 229989, Control_c, 0, 64, 53
1, 230004, Control_c, 0, 64, 53
1, 230006, Note_off_c, 0, 55, 54
1, 230079, Note_off_c, 0, 75, 63
1, 230080, Control_c, 0, 64, 52
1, 230107, Note_on_c, 0, 77, 53
1, 230109, Control_c, 0, 64, 52
1, 230147, Note_off_c, 0, 77, 63
1, 230153, Control_c, 0, 64, 51
1, 230159, Note_on_c, 0, 75, 54
1, 230194, Note_off_c, 0, 75, 66
1, 230215, Note_on_c, 0, 74, 56
1, 230255, Note_off_c, 0, 74, 63
1, 230269, Note_on_c, 0, 75, 67
1, 230325, Note_off_c, 0, 75, 64
1, 230327, Note_on_c, 0, 51, 39
1, 230331, Note_on_c, 0, 77, 72
1, 230386, Note_off_c, 0, 51, 55
1, 230450, Control_c, 0, 64, 50
1, 230464, Control_c, 0, 64, 50
1, 230514, Note_on_c, 0, 79, 66
1, 230514, Note_off_c, 0, 77, 61
1, 230555, Note_off_c, 0, 79, 57
1, 230716, Note_on_c, 0, 53, 38
1, 230731, Note_on_c, 0, 75, 44
1, 230734, Note_on_c, 0, 79, 52
1, 230820, Note_off_c, 0, 53, 42
1, 230859, Control_c, 0, 64, 50
1, 230885, Note_off_c, 0, 75, 57
1, 230903, Control_c, 0, 64, 51
1, 230905, Note_off_c, 0, 79, 58
1, 230935, Note_on_c, 0, 77, 46
1, 230943, Note_on_c, 0, 74, 31
1, 230967, Note_off_c, 0, 77, 64
1, 230975, Note_off_c, 0, 74, 58
1, 231121, Note_on_c, 0, 53, 44
1, 231140, Control_c, 0, 64, 50
1, 231154, Control_c, 0, 64, 50
1, 231184, Control_c, 0, 64, 49
1, 231221, Note_off_c, 0, 53, 52
1, 231288, Note_on_c, 0, 69, 63
1, 231294, Note_on_c, 0, 63, 55
1, 231362, Control_c, 0, 64, 49
1, 231370, Note_off_c, 0, 63, 60
1, 231443, Control_c, 0, 64, 48
1, 231539, Note_on_c, 0, 72, 61
1, 231539, Note_on_c, 0, 58, 44
1, 231542, Note_on_c, 0, 63, 45
1, 231548, Control_c, 0, 64, 48
1, 231553, Note_off_c, 0, 69, 56
1, 231661, Note_off_c, 0, 58, 59
1, 231870, Note_off_c, 0, 63, 41
1, 231953, Note_on_c, 0, 53, 42
1, 232076, Note_off_c, 0, 53, 59
1, 232454, Note_on_c, 0, 46, 23
1, 232466, Note_on_c, 0, 62, 28
1, 232472, Note_on_c, 0, 70, 38
1, 232490, Note_off_c, 0, 72, 36
1, 232519, Control_c, 0, 64, 48
1, 232841, Note_off_c, 0, 70, 34
1, 232932, Note_off_c, 0, 46, 34
1, 232937, Note_off_c, 0, 62, 18
1, 233430, Control_c, 0, 64, 49
1, 233578, Control_c, 0, 64, 49
1, 233704, Control_c, 0, 64, 50
1, 233822, Control_c, 0, 64, 50
1, 234194, Control_c, 0, 64, 51
1, 234209, Control_c, 0, 64, 51
1, 234587, Control_c, 0, 64, 52
1, 236218, Control_c, 0, 64, 52
1, 236218, End_track
0, 0, End_of_file
