0, 0, Header, 0, 1, 384
1, 0, Start_track
1, 0, Title_t, "Nocturne Op.48/1--Zheyu Li         "
1, 0, Text_t, "2008 e-Piano Junior Competition virtual audition round"
1, 0, Text_t, "recorded January and February 2008"
1, 0, Text_t, "http://www.piano-e-competition.com/"
1, 0, Text_t, "File processed for distribution by software from Zenph Studios, Inc., http://www.zenph.com"
1, 0, Instrument_name_t, "Yamaha Disklavier Pro Mark IV concert grand piano, model DCFIIISM4PRO"
1, 0, Sequencer_specific, 39, 67, 113, 0, 1, 0, 1, 0, 78, 111, 99, 116, 117, 114, 110, 101, 32, 79, 112, 46, 52, 56, 47, 49, 90, 104, 101, 121, 117, 32, 76, 105, 32, 32, 32, 32, 32, 32, 32, 32
1, 0, Sequencer_specific, 6, 67, 113, 0, 0, 0, 69
1, 0, System_exclusive, 21, 67, 113, 126, 21, 0, 2, 2, 0, 13, 12, 15, 4, 7, 9, 7, 4, 15, 4, 9, 1, 247
1, 0, Sequencer_specific, 5, 67, 123, 12, 2, 1
1, 0, Tempo, 512820
1, 0, Time_signature, 4, 2, 24, 8
1, 0, System_exclusive, 5, 126, 127, 9, 1, 247
1, 1, System_exclusive, 8, 67, 16, 76, 0, 0, 126, 0, 247
1, 2, System_exclusive, 8, 67, 16, 76, 8, 9, 7, 1, 247
1, 3, Control_c, 0, 0, 0
1, 3, Control_c, 1, 0, 0
1, 3, Control_c, 2, 0, 0
1, 3, Control_c, 3, 0, 0
1, 3, Control_c, 4, 0, 0
1, 3, Control_c, 5, 0, 0
1, 3, Control_c, 6, 0, 0
1, 3, Control_c, 7, 0, 0
1, 3, Control_c, 8, 0, 0
1, 3, Control_c, 9, 0, 127
1, 3, Control_c, 10, 0, 0
1, 3, Control_c, 11, 0, 0
1, 3, Control_c, 12, 0, 0
1, 3, Control_c, 13, 0, 0
1, 3, Control_c, 14, 0, 0
1, 3, Control_c, 15, 0, 0
1, 4, Control_c, 0, 32, 0
1, 4, Control_c, 1, 32, 0
1, 4, Control_c, 2, 32, 0
1, 4, Control_c, 3, 32, 0
1, 4, Control_c, 4, 32, 0
1, 4, Control_c, 5, 32, 0
1, 4, Control_c, 6, 32, 0
1, 4, Control_c, 7, 32, 0
1, 4, Control_c, 8, 32, 0
1, 4, Control_c, 9, 32, 0
1, 4, Control_c, 10, 32, 0
1, 4, Control_c, 11, 32, 0
1, 4, Control_c, 12, 32, 0
1, 4, Control_c, 13, 32, 0
1, 4, Control_c, 14, 32, 0
1, 4, Control_c, 15, 32, 0
1, 5, Program_c, 0, 0
1, 5, Program_c, 1, 0
1, 5, Program_c, 2, 0
1, 5, Program_c, 3, 0
1, 5, Program_c, 4, 0
1, 5, Program_c, 5, 0
1, 5, Program_c, 6, 0
1, 5, Program_c, 7, 0
1, 5, Program_c, 8, 0
1, 5, Program_c, 9, 0
1, 5, Program_c, 10, 0
1, 5, Program_c, 11, 0
1, 5, Program_c, 12, 0
1, 5, Program_c, 13, 0
1, 5, Program_c, 14, 0
1, 5, Program_c, 15, 0
1, 6, Control_c, 0, 7, 100
1, 117, Control_c, 0, 64, 15
1, 229, Control_c, 0, 64, 31
1, 341, Control_c, 0, 64, 46
1, 452, Control_c, 0, 64, 63
1, 564, Control_c, 0, 64, 77
1, 676, Control_c, 0, 64, 94
1, 787, Control_c, 0, 64, 108
1, 899, Control_c, 0, 64, 127
1, 899, Control_c, 1, 7, 100
1, 899, Control_c, 2, 7, 100
1, 899, Control_c, 3, 7, 100
1, 899, Control_c, 4, 7, 100
1, 899, Control_c, 5, 7, 100
1, 899, Control_c, 6, 7, 100
1, 899, Control_c, 7, 7, 100
1, 899, Control_c, 8, 7, 100
1, 899, Control_c, 9, 7, 100
1, 899, Control_c, 10, 7, 100
1, 899, Control_c, 11, 7, 100
1, 899, Control_c, 12, 7, 100
1, 899, Control_c, 13, 7, 100
1, 899, Control_c, 14, 7, 100
1, 899, Control_c, 15, 7, 100
1, 1135, Note_on_c, 0, 48, 33
1, 1140, Note_on_c, 0, 36, 25
1, 1242, Note_off_c, 0, 36, 39
1, 1305, Note_off_c, 0, 48, 42
1, 2109, Note_on_c, 0, 55, 21
1, 2115, Note_on_c, 0, 79, 54
1, 2132, Note_on_c, 0, 67, 22
1, 2134, Note_on_c, 0, 63, 32
1, 2172, Note_off_c, 0, 79, 61
1, 2176, Note_off_c, 0, 55, 49
1, 2191, Note_off_c, 0, 67, 52
1, 2200, Note_off_c, 0, 63, 44
1, 3013, Note_on_c, 0, 36, 34
1, 3028, Note_on_c, 0, 48, 30
1, 3085, Note_off_c, 0, 36, 61
1, 3114, Note_off_c, 0, 48, 59
1, 3958, Note_on_c, 0, 56, 33
1, 3974, Note_on_c, 0, 80, 58
1, 3983, Note_on_c, 0, 68, 34
1, 3988, Note_on_c, 0, 63, 32
1, 4032, Note_off_c, 0, 80, 66
1, 4041, Note_off_c, 0, 56, 57
1, 4044, Note_off_c, 0, 63, 57
1, 4046, Note_off_c, 0, 68, 56
1, 4916, Note_on_c, 0, 47, 30
1, 4933, Control_c, 0, 64, 109
1, 4938, Note_on_c, 0, 35, 44
1, 4948, Control_c, 0, 64, 92
1, 4963, Control_c, 0, 64, 80
1, 4977, Control_c, 0, 64, 72
1, 4992, Control_c, 0, 64, 68
1, 5007, Control_c, 0, 64, 70
1, 5022, Control_c, 0, 64, 74
1, 5037, Control_c, 0, 64, 85
1, 5052, Control_c, 0, 64, 99
1, 5067, Control_c, 0, 64, 121
1, 5081, Control_c, 0, 64, 127
1, 5082, Note_off_c, 0, 35, 34
1, 5149, Note_off_c, 0, 47, 41
1, 5418, Note_on_c, 0, 79, 61
1, 5824, Note_on_c, 0, 59, 27
1, 5877, Note_on_c, 0, 67, 33
1, 5885, Note_on_c, 0, 62, 25
1, 5940, Note_off_c, 0, 62, 52
1, 5945, Note_off_c, 0, 59, 47
1, 5970, Note_off_c, 0, 67, 50
1, 6309, Note_on_c, 0, 74, 49
1, 6397, Note_off_c, 0, 79, 57
1, 6726, Note_on_c, 0, 36, 37
1, 6727, Note_on_c, 0, 48, 27
1, 6749, Control_c, 0, 64, 107
1, 6764, Control_c, 0, 64, 88
1, 6779, Control_c, 0, 64, 73
1, 6794, Control_c, 0, 64, 59
1, 6808, Control_c, 0, 64, 55
1, 6823, Control_c, 0, 64, 61
1, 6838, Control_c, 0, 64, 65
1, 6853, Control_c, 0, 64, 70
1, 6864, Note_off_c, 0, 36, 50
1, 6868, Control_c, 0, 64, 79
1, 6882, Control_c, 0, 64, 94
1, 6897, Control_c, 0, 64, 107
1, 6912, Control_c, 0, 64, 115
1, 6927, Control_c, 0, 64, 127
1, 6951, Note_off_c, 0, 48, 40
1, 7064, Note_on_c, 0, 75, 45
1, 7123, Note_off_c, 0, 74, 52
1, 7308, Note_on_c, 0, 77, 50
1, 7338, Note_off_c, 0, 75, 51
1, 7517, Note_on_c, 0, 75, 55
1, 7548, Note_off_c, 0, 77, 55
1, 7722, Note_on_c, 0, 74, 59
1, 7726, Note_on_c, 0, 55, 30
1, 7730, Note_on_c, 0, 63, 36
1, 7752, Note_on_c, 0, 60, 32
1, 7772, Note_off_c, 0, 75, 57
1, 7880, Note_off_c, 0, 63, 41
1, 7886, Note_off_c, 0, 60, 37
1, 7895, Note_off_c, 0, 55, 42
1, 7931, Note_on_c, 0, 75, 67
1, 7987, Note_off_c, 0, 74, 59
1, 8152, Note_on_c, 0, 77, 69
1, 8211, Note_off_c, 0, 75, 57
1, 8420, Note_on_c, 0, 79, 66
1, 8483, Note_off_c, 0, 77, 57
1, 8681, Note_on_c, 0, 32, 36
1, 8712, Note_on_c, 0, 44, 43
1, 8736, Control_c, 0, 64, 120
1, 8751, Control_c, 0, 64, 99
1, 8753, Note_on_c, 0, 72, 59
1, 8765, Control_c, 0, 64, 84
1, 8780, Control_c, 0, 64, 71
1, 8787, Note_off_c, 0, 79, 55
1, 8795, Control_c, 0, 64, 57
1, 8810, Control_c, 0, 64, 54
1, 8825, Control_c, 0, 64, 61
1, 8840, Control_c, 0, 64, 64
1, 8855, Control_c, 0, 64, 68
1, 8870, Control_c, 0, 64, 74
1, 8885, Control_c, 0, 64, 88
1, 8900, Control_c, 0, 64, 99
1, 8904, Note_off_c, 0, 32, 40
1, 8915, Control_c, 0, 64, 104
1, 8930, Control_c, 0, 64, 107
1, 8944, Control_c, 0, 64, 111
1, 8959, Control_c, 0, 64, 115
1, 8974, Control_c, 0, 64, 120
1, 8995, Control_c, 0, 64, 127
1, 9005, Note_off_c, 0, 44, 41
1, 9007, Note_off_c, 0, 72, 62
1, 9616, Note_on_c, 0, 72, 55
1, 9636, Note_on_c, 0, 60, 37
1, 9639, Note_on_c, 0, 63, 38
1, 9653, Note_on_c, 0, 68, 48
1, 9746, Note_off_c, 0, 72, 60
1, 9747, Note_off_c, 0, 60, 54
1, 9750, Note_off_c, 0, 68, 58
1, 9755, Note_off_c, 0, 63, 53
1, 10306, Note_on_c, 0, 72, 69
1, 10553, Note_on_c, 0, 29, 45
1, 10572, Note_on_c, 0, 41, 42
1, 10642, Control_c, 0, 64, 115
1, 10657, Control_c, 0, 64, 97
1, 10659, Note_on_c, 0, 74, 60
1, 10672, Control_c, 0, 64, 81
1, 10687, Control_c, 0, 64, 63
1, 10702, Control_c, 0, 64, 0
1, 10708, Note_off_c, 0, 72, 62
1, 10761, Control_c, 0, 64, 18
1, 10775, Control_c, 0, 64, 42
1, 10790, Control_c, 0, 64, 55
1, 10805, Control_c, 0, 64, 63
1, 10808, Note_off_c, 0, 29, 41
1, 10820, Control_c, 0, 64, 67
1, 10835, Control_c, 0, 64, 72
1, 10849, Control_c, 0, 64, 80
1, 10864, Control_c, 0, 64, 86
1, 10879, Control_c, 0, 64, 90
1, 10894, Control_c, 0, 64, 92
1, 10909, Control_c, 0, 64, 94
1, 10924, Control_c, 0, 64, 96
1, 10930, Note_off_c, 0, 41, 37
1, 10939, Control_c, 0, 64, 98
1, 10954, Control_c, 0, 64, 100
1, 10968, Control_c, 0, 64, 101
1, 10983, Control_c, 0, 64, 103
1, 10998, Control_c, 0, 64, 104
1, 11013, Control_c, 0, 64, 105
1, 11028, Control_c, 0, 64, 106
1, 11042, Control_c, 0, 64, 107
1, 11057, Control_c, 0, 64, 109
1, 11072, Control_c, 0, 64, 111
1, 11087, Control_c, 0, 64, 114
1, 11101, Control_c, 0, 64, 119
1, 11116, Control_c, 0, 64, 127
1, 11563, Note_on_c, 0, 53, 27
1, 11589, Note_on_c, 0, 72, 56
1, 11592, Note_on_c, 0, 62, 32
1, 11598, Note_on_c, 0, 60, 35
1, 11642, Note_off_c, 0, 74, 53
1, 11672, Note_off_c, 0, 60, 54
1, 11678, Note_off_c, 0, 53, 53
1, 11678, Note_off_c, 0, 62, 50
1, 12319, Note_on_c, 0, 68, 50
1, 12385, Note_off_c, 0, 72, 45
1, 12612, Note_on_c, 0, 31, 30
1, 12643, Control_c, 0, 64, 126
1, 12650, Note_on_c, 0, 43, 31
1, 12658, Control_c, 0, 64, 110
1, 12672, Note_on_c, 0, 67, 44
1, 12673, Control_c, 0, 64, 95
1, 12687, Control_c, 0, 64, 79
1, 12702, Control_c, 0, 64, 66
1, 12715, Note_off_c, 0, 68, 43
1, 12717, Control_c, 0, 64, 34
1, 12739, Control_c, 0, 64, 12
1, 12754, Control_c, 0, 64, 26
1, 12769, Control_c, 0, 64, 45
1, 12784, Control_c, 0, 64, 58
1, 12799, Control_c, 0, 64, 63
1, 12807, Note_off_c, 0, 31, 39
1, 12814, Control_c, 0, 64, 66
1, 12829, Control_c, 0, 64, 72
1, 12844, Control_c, 0, 64, 81
1, 12859, Control_c, 0, 64, 90
1, 12874, Control_c, 0, 64, 93
1, 12888, Control_c, 0, 64, 95
1, 12903, Control_c, 0, 64, 97
1, 12918, Control_c, 0, 64, 100
1, 12933, Control_c, 0, 64, 102
1, 12948, Control_c, 0, 64, 103
1, 12962, Control_c, 0, 64, 104
1, 12975, Note_off_c, 0, 43, 35
1, 12977, Control_c, 0, 64, 104
1, 13051, Control_c, 0, 64, 105
1, 13081, Control_c, 0, 64, 105
1, 13095, Control_c, 0, 64, 107
1, 13110, Control_c, 0, 64, 110
1, 13125, Control_c, 0, 64, 116
1, 13140, Control_c, 0, 64, 127
1, 13699, Note_on_c, 0, 53, 28
1, 13702, Note_on_c, 0, 59, 24
1, 13860, Note_off_c, 0, 59, 43
1, 13876, Note_off_c, 0, 53, 40
1, 13884, Note_off_c, 0, 67, 36
1, 13915, Note_on_c, 0, 70, 41
1, 13963, Note_on_c, 0, 68, 42
1, 14010, Note_off_c, 0, 70, 56
1, 14172, Note_on_c, 0, 67, 59
1, 14240, Note_off_c, 0, 68, 43
1, 14424, Note_on_c, 0, 62, 56
1, 14467, Note_off_c, 0, 67, 61
1, 14722, Note_on_c, 0, 24, 33
1, 14746, Note_on_c, 0, 36, 33
1, 14802, Control_c, 0, 64, 117
1, 14816, Control_c, 0, 64, 105
1, 14831, Control_c, 0, 64, 97
1, 14839, Note_on_c, 0, 63, 51
1, 14846, Control_c, 0, 64, 90
1, 14860, Control_c, 0, 64, 82
1, 14875, Control_c, 0, 64, 69
1, 14890, Note_off_c, 0, 62, 58
1, 14890, Control_c, 0, 64, 41
1, 14905, Control_c, 0, 64, 0
1, 14964, Control_c, 0, 64, 30
1, 14987, Control_c, 0, 64, 50
1, 15002, Control_c, 0, 64, 60
1, 15016, Control_c, 0, 64, 65
1, 15031, Control_c, 0, 64, 68
1, 15046, Control_c, 0, 64, 73
1, 15060, Control_c, 0, 64, 79
1, 15075, Control_c, 0, 64, 85
1, 15090, Control_c, 0, 64, 88
1, 15091, Note_off_c, 0, 24, 37
1, 15105, Control_c, 0, 64, 91
1, 15120, Control_c, 0, 64, 94
1, 15134, Control_c, 0, 64, 97
1, 15149, Control_c, 0, 64, 101
1, 15164, Control_c, 0, 64, 104
1, 15179, Control_c, 0, 64, 107
1, 15194, Control_c, 0, 64, 109
1, 15210, Control_c, 0, 64, 113
1, 15225, Control_c, 0, 64, 117
1, 15239, Control_c, 0, 64, 127
1, 15261, Note_off_c, 0, 36, 38
1, 15320, Note_on_c, 0, 60, 34
1, 15371, Note_off_c, 0, 63, 42
1, 15986, Note_on_c, 0, 55, 29
1, 15986, Note_on_c, 0, 51, 18
1, 16001, Note_off_c, 0, 60, 34
1, 16100, Note_off_c, 0, 55, 50
1, 16115, Note_off_c, 0, 51, 32
1, 16928, Control_c, 0, 64, 105
1, 16930, Note_on_c, 0, 27, 34
1, 16931, Note_on_c, 0, 39, 38
1, 16943, Control_c, 0, 64, 87
1, 16958, Control_c, 0, 64, 71
1, 16973, Control_c, 0, 64, 28
1, 16988, Control_c, 0, 64, 0
1, 17002, Control_c, 0, 64, 42
1, 17017, Control_c, 0, 64, 61
1, 17032, Control_c, 0, 64, 67
1, 17047, Control_c, 0, 64, 78
1, 17056, Note_off_c, 0, 27, 55
1, 17062, Control_c, 0, 64, 96
1, 17077, Control_c, 0, 64, 127
1, 17125, Note_off_c, 0, 39, 40
1, 17881, Note_on_c, 0, 79, 69
1, 17899, Note_on_c, 0, 55, 27
1, 17912, Note_on_c, 0, 58, 26
1, 17912, Note_on_c, 0, 63, 34
1, 17949, Note_off_c, 0, 79, 59
1, 17968, Note_off_c, 0, 63, 57
1, 17972, Note_off_c, 0, 58, 54
1, 17986, Note_off_c, 0, 55, 54
1, 18779, Note_on_c, 0, 32, 37
1, 18788, Note_on_c, 0, 44, 38
1, 18788, Control_c, 0, 64, 107
1, 18803, Control_c, 0, 64, 94
1, 18818, Control_c, 0, 64, 85
1, 18832, Control_c, 0, 64, 81
1, 18847, Control_c, 0, 64, 82
1, 18862, Control_c, 0, 64, 85
1, 18877, Control_c, 0, 64, 94
1, 18892, Control_c, 0, 64, 106
1, 18904, Note_off_c, 0, 32, 32
1, 18907, Control_c, 0, 64, 127
1, 18952, Note_off_c, 0, 44, 41
1, 19676, Note_on_c, 0, 80, 62
1, 19685, Note_on_c, 0, 63, 40
1, 19691, Note_on_c, 0, 53, 25
1, 19705, Note_on_c, 0, 60, 32
1, 19726, Note_off_c, 0, 80, 60
1, 19730, Note_off_c, 0, 63, 58
1, 19740, Note_off_c, 0, 53, 53
1, 19743, Note_off_c, 0, 60, 59
1, 20537, Control_c, 0, 64, 116
1, 20546, Note_on_c, 0, 34, 35
1, 20552, Note_on_c, 0, 46, 36
1, 20552, Control_c, 0, 64, 92
1, 20567, Control_c, 0, 64, 65
1, 20582, Control_c, 0, 64, 0
1, 20671, Control_c, 0, 64, 56
1, 20686, Control_c, 0, 64, 65
1, 20701, Control_c, 0, 64, 71
1, 20716, Control_c, 0, 64, 80
1, 20730, Control_c, 0, 64, 91
1, 20745, Control_c, 0, 64, 100
1, 20760, Control_c, 0, 64, 110
1, 20775, Control_c, 0, 64, 122
1, 20790, Control_c, 0, 64, 127
1, 20800, Note_off_c, 0, 34, 41
1, 20883, Note_off_c, 0, 46, 42
1, 21014, Note_on_c, 0, 79, 63
1, 21462, Note_on_c, 0, 58, 33
1, 21473, Note_on_c, 0, 68, 40
1, 21492, Note_on_c, 0, 62, 29
1, 21551, Note_off_c, 0, 62, 55
1, 21551, Note_off_c, 0, 68, 57
1, 21560, Note_off_c, 0, 58, 55
1, 21905, Note_on_c, 0, 77, 64
1, 21976, Note_off_c, 0, 79, 54
1, 22122, Note_on_c, 0, 47, 50
1, 22123, Note_on_c, 0, 35, 56
1, 22177, Note_off_c, 0, 35, 55
1, 22201, Note_off_c, 0, 47, 56
1, 22410, Note_on_c, 0, 48, 50
1, 22420, Note_on_c, 0, 36, 43
1, 22421, Control_c, 0, 64, 118
1, 22436, Control_c, 0, 64, 91
1, 22451, Control_c, 0, 64, 71
1, 22473, Control_c, 0, 64, 0
1, 22532, Control_c, 0, 64, 20
1, 22547, Control_c, 0, 64, 59
1, 22562, Control_c, 0, 64, 68
1, 22577, Control_c, 0, 64, 78
1, 22592, Control_c, 0, 64, 90
1, 22606, Note_off_c, 0, 36, 34
1, 22606, Control_c, 0, 64, 99
1, 22621, Control_c, 0, 64, 104
1, 22636, Control_c, 0, 64, 108
1, 22651, Control_c, 0, 64, 113
1, 22666, Control_c, 0, 64, 119
1, 22677, Note_off_c, 0, 48, 61
1, 22681, Control_c, 0, 64, 124
1, 22696, Control_c, 0, 64, 126
1, 22710, Control_c, 0, 64, 127
1, 22730, Note_on_c, 0, 75, 59
1, 22767, Note_off_c, 0, 77, 58
1, 23006, Note_on_c, 0, 77, 52
1, 23017, Note_off_c, 0, 75, 57
1, 23140, Control_c, 0, 64, 126
1, 23170, Note_off_c, 0, 77, 61
1, 23207, Note_on_c, 0, 75, 45
1, 23215, Control_c, 0, 64, 124
1, 23243, Note_off_c, 0, 75, 61
1, 23252, Control_c, 0, 64, 122
1, 23269, Note_on_c, 0, 77, 50
1, 23282, Control_c, 0, 64, 121
1, 23311, Control_c, 0, 64, 120
1, 23314, Note_off_c, 0, 77, 55
1, 23326, Control_c, 0, 64, 119
1, 23336, Note_on_c, 0, 75, 52
1, 23341, Control_c, 0, 64, 119
1, 23355, Control_c, 0, 64, 118
1, 23370, Control_c, 0, 64, 117
1, 23375, Note_off_c, 0, 75, 58
1, 23385, Control_c, 0, 64, 116
1, 23387, Note_on_c, 0, 74, 62
1, 23393, Note_on_c, 0, 57, 42
1, 23398, Note_on_c, 0, 63, 47
1, 23400, Control_c, 0, 64, 116
1, 23429, Control_c, 0, 64, 115
1, 23459, Control_c, 0, 64, 115
1, 23474, Control_c, 0, 64, 114
1, 23480, Note_off_c, 0, 63, 57
1, 23502, Note_off_c, 0, 57, 50
1, 23563, Control_c, 0, 64, 114
1, 23593, Control_c, 0, 64, 113
1, 23608, Note_on_c, 0, 75, 66
1, 23622, Control_c, 0, 64, 113
1, 23652, Control_c, 0, 64, 112
1, 23656, Note_off_c, 0, 74, 60
1, 23711, Control_c, 0, 64, 112
1, 23726, Control_c, 0, 64, 111
1, 23755, Control_c, 0, 64, 111
1, 23832, Note_on_c, 0, 77, 74
1, 23860, Control_c, 0, 64, 110
1, 23873, Note_off_c, 0, 75, 58
1, 23963, Control_c, 0, 64, 110
1, 24091, Control_c, 0, 64, 109
1, 24107, Note_on_c, 0, 79, 68
1, 24176, Note_off_c, 0, 77, 53
1, 24194, Control_c, 0, 64, 109
1, 24253, Control_c, 0, 64, 108
1, 24268, Control_c, 0, 64, 108
1, 24297, Control_c, 0, 64, 107
1, 24327, Control_c, 0, 64, 103
1, 24336, Note_on_c, 0, 38, 39
1, 24342, Control_c, 0, 64, 91
1, 24357, Control_c, 0, 64, 72
1, 24364, Note_on_c, 0, 50, 35
1, 24371, Control_c, 0, 64, 30
1, 24386, Control_c, 0, 64, 0
1, 24408, Note_on_c, 0, 74, 49
1, 24430, Note_off_c, 0, 79, 60
1, 24431, Control_c, 0, 64, 15
1, 24445, Control_c, 0, 64, 52
1, 24460, Control_c, 0, 64, 64
1, 24475, Control_c, 0, 64, 70
1, 24490, Control_c, 0, 64, 80
1, 24505, Control_c, 0, 64, 92
1, 24505, Note_off_c, 0, 74, 65
1, 24520, Control_c, 0, 64, 97
1, 24529, Note_off_c, 0, 38, 41
1, 24535, Control_c, 0, 64, 100
1, 24550, Control_c, 0, 64, 101
1, 24564, Control_c, 0, 64, 103
1, 24579, Control_c, 0, 64, 103
1, 24638, Control_c, 0, 64, 104
1, 24647, Note_off_c, 0, 50, 43
1, 24852, Note_on_c, 0, 62, 53
1, 25120, Control_c, 0, 64, 104
1, 25165, Control_c, 0, 64, 105
1, 25194, Control_c, 0, 64, 105
1, 25209, Control_c, 0, 64, 106
1, 25238, Control_c, 0, 64, 106
1, 25261, Note_on_c, 0, 58, 45
1, 25261, Note_on_c, 0, 67, 47
1, 25268, Control_c, 0, 64, 107
1, 25298, Control_c, 0, 64, 107
1, 25313, Control_c, 0, 64, 108
1, 25328, Control_c, 0, 64, 109
1, 25343, Control_c, 0, 64, 110
1, 25352, Note_off_c, 0, 67, 59
1, 25353, Note_off_c, 0, 58, 59
1, 25358, Control_c, 0, 64, 112
1, 25372, Control_c, 0, 64, 112
1, 25387, Control_c, 0, 64, 113
1, 25432, Control_c, 0, 64, 113
1, 25436, Note_off_c, 0, 62, 42
1, 25471, Note_on_c, 0, 67, 69
1, 25698, Note_on_c, 0, 72, 76
1, 25731, Note_off_c, 0, 67, 62
1, 25939, Note_on_c, 0, 74, 67
1, 25958, Control_c, 0, 64, 113
1, 25972, Note_off_c, 0, 72, 62
1, 26076, Control_c, 0, 64, 112
1, 26150, Control_c, 0, 64, 112
1, 26165, Note_on_c, 0, 26, 40
1, 26165, Control_c, 0, 64, 111
1, 26184, Note_on_c, 0, 38, 40
1, 26195, Control_c, 0, 64, 109
1, 26217, Control_c, 0, 64, 101
1, 26232, Control_c, 0, 64, 89
1, 26247, Control_c, 0, 64, 75
1, 26262, Control_c, 0, 64, 50
1, 26276, Control_c, 0, 64, 0
1, 26286, Note_on_c, 0, 75, 57
1, 26340, Note_off_c, 0, 74, 60
1, 26380, Control_c, 0, 64, 40
1, 26396, Control_c, 0, 64, 60
1, 26411, Control_c, 0, 64, 65
1, 26426, Control_c, 0, 64, 70
1, 26440, Control_c, 0, 64, 78
1, 26444, Note_off_c, 0, 26, 41
1, 26455, Control_c, 0, 64, 86
1, 26470, Control_c, 0, 64, 90
1, 26485, Control_c, 0, 64, 93
1, 26499, Control_c, 0, 64, 96
1, 26514, Control_c, 0, 64, 100
1, 26529, Control_c, 0, 64, 104
1, 26544, Control_c, 0, 64, 109
1, 26559, Control_c, 0, 64, 116
1, 26565, Note_off_c, 0, 38, 41
1, 26574, Control_c, 0, 64, 120
1, 26589, Control_c, 0, 64, 121
1, 26604, Control_c, 0, 64, 122
1, 27325, Note_on_c, 0, 60, 28
1, 27350, Note_on_c, 0, 57, 25
1, 27495, Note_off_c, 0, 60, 40
1, 27501, Note_off_c, 0, 57, 33
1, 28007, Note_off_c, 0, 75, 40
1, 28062, Note_on_c, 0, 66, 45
1, 28139, Note_off_c, 0, 66, 46
1, 28205, Control_c, 0, 64, 121
1, 28264, Control_c, 0, 64, 120
1, 28309, Control_c, 0, 64, 119
1, 28324, Control_c, 0, 64, 119
1, 28338, Control_c, 0, 64, 118
1, 28353, Control_c, 0, 64, 117
1, 28382, Control_c, 0, 64, 117
1, 28397, Control_c, 0, 64, 116
1, 28412, Control_c, 0, 64, 116
1, 28427, Control_c, 0, 64, 115
1, 28440, Note_on_c, 0, 31, 24
1, 28442, Control_c, 0, 64, 114
1, 28479, Control_c, 0, 64, 113
1, 28489, Note_on_c, 0, 43, 30
1, 28493, Control_c, 0, 64, 112
1, 28508, Control_c, 0, 64, 112
1, 28520, Note_on_c, 0, 66, 39
1, 28523, Control_c, 0, 64, 107
1, 28538, Control_c, 0, 64, 94
1, 28553, Control_c, 0, 64, 77
1, 28568, Control_c, 0, 64, 60
1, 28583, Control_c, 0, 64, 0
1, 28642, Control_c, 0, 64, 47
1, 28657, Control_c, 0, 64, 64
1, 28671, Control_c, 0, 64, 69
1, 28686, Control_c, 0, 64, 76
1, 28690, Note_off_c, 0, 31, 41
1, 28701, Control_c, 0, 64, 84
1, 28716, Control_c, 0, 64, 89
1, 28731, Control_c, 0, 64, 91
1, 28745, Control_c, 0, 64, 92
1, 28760, Control_c, 0, 64, 93
1, 28775, Control_c, 0, 64, 95
1, 28791, Control_c, 0, 64, 96
1, 28793, Note_off_c, 0, 43, 41
1, 28806, Control_c, 0, 64, 98
1, 28820, Control_c, 0, 64, 99
1, 28835, Control_c, 0, 64, 99
1, 28850, Control_c, 0, 64, 100
1, 28865, Control_c, 0, 64, 101
1, 28880, Control_c, 0, 64, 101
1, 28894, Control_c, 0, 64, 103
1, 28909, Control_c, 0, 64, 105
1, 28924, Control_c, 0, 64, 107
1, 28939, Control_c, 0, 64, 109
1, 28954, Control_c, 0, 64, 112
1, 28968, Control_c, 0, 64, 115
1, 28983, Control_c, 0, 64, 119
1, 28998, Control_c, 0, 64, 126
1, 29012, Control_c, 0, 64, 127
1, 29486, Note_on_c, 0, 58, 30
1, 29501, Note_on_c, 0, 50, 22
1, 29641, Note_off_c, 0, 58, 37
1, 29647, Note_off_c, 0, 50, 31
1, 30139, Note_off_c, 0, 66, 42
1, 30193, Note_on_c, 0, 67, 26
1, 30369, Note_off_c, 0, 67, 42
1, 30399, Note_on_c, 0, 70, 35
1, 30414, Note_on_c, 0, 38, 16
1, 30565, Note_off_c, 0, 70, 46
1, 30579, Note_on_c, 0, 69, 30
1, 30604, Note_off_c, 0, 38, 27
1, 30729, Note_off_c, 0, 69, 35
1, 30759, Note_on_c, 0, 67, 32
1, 30762, Note_on_c, 0, 31, 20
1, 30767, Note_on_c, 0, 43, 27
1, 30799, Control_c, 0, 64, 118
1, 30814, Control_c, 0, 64, 96
1, 30829, Control_c, 0, 64, 81
1, 30844, Control_c, 0, 64, 66
1, 30858, Control_c, 0, 64, 53
1, 30873, Control_c, 0, 64, 57
1, 30888, Control_c, 0, 64, 63
1, 30903, Control_c, 0, 64, 67
1, 30918, Control_c, 0, 64, 73
1, 30932, Control_c, 0, 64, 82
1, 30947, Control_c, 0, 64, 92
1, 30962, Control_c, 0, 64, 95
1, 30977, Control_c, 0, 64, 97
1, 30990, Note_off_c, 0, 31, 39
1, 30991, Control_c, 0, 64, 99
1, 31006, Control_c, 0, 64, 101
1, 31021, Control_c, 0, 64, 103
1, 31030, Note_off_c, 0, 43, 35
1, 31036, Control_c, 0, 64, 105
1, 31051, Control_c, 0, 64, 107
1, 31054, Note_off_c, 0, 67, 39
1, 31066, Control_c, 0, 64, 109
1, 31081, Control_c, 0, 64, 111
1, 31096, Control_c, 0, 64, 113
1, 31110, Control_c, 0, 64, 114
1, 31125, Control_c, 0, 64, 116
1, 31140, Control_c, 0, 64, 120
1, 31155, Control_c, 0, 64, 127
1, 31759, Note_on_c, 0, 58, 21
1, 31806, Note_on_c, 0, 50, 37
1, 31920, Note_off_c, 0, 50, 56
1, 31935, Note_off_c, 0, 58, 42
1, 32741, Note_on_c, 0, 30, 44
1, 32741, Note_on_c, 0, 42, 41
1, 32756, Control_c, 0, 64, 105
1, 32771, Control_c, 0, 64, 85
1, 32786, Control_c, 0, 64, 67
1, 32801, Control_c, 0, 64, 0
1, 32830, Control_c, 0, 64, 34
1, 32845, Control_c, 0, 64, 60
1, 32859, Control_c, 0, 64, 67
1, 32870, Note_off_c, 0, 30, 55
1, 32874, Control_c, 0, 64, 76
1, 32889, Control_c, 0, 64, 92
1, 32904, Control_c, 0, 64, 114
1, 32919, Control_c, 0, 64, 127
1, 32925, Note_off_c, 0, 42, 58
1, 33576, Note_on_c, 0, 54, 40
1, 33584, Note_on_c, 0, 68, 64
1, 33586, Note_on_c, 0, 63, 35
1, 33591, Note_on_c, 0, 56, 39
1, 33598, Note_on_c, 0, 60, 36
1, 33666, Note_off_c, 0, 60, 56
1, 33678, Note_off_c, 0, 63, 58
1, 33703, Note_off_c, 0, 54, 51
1, 33721, Note_off_c, 0, 56, 0
1, 33756, Poly_aftertouch_c, 0, 56, 0
1, 34367, Note_on_c, 0, 29, 47
1, 34367, Note_on_c, 0, 41, 57
1, 34387, Control_c, 0, 64, 97
1, 34402, Control_c, 0, 64, 79
1, 34417, Control_c, 0, 64, 66
1, 34431, Control_c, 0, 64, 56
1, 34446, Control_c, 0, 64, 61
1, 34469, Control_c, 0, 64, 65
1, 34484, Control_c, 0, 64, 71
1, 34499, Control_c, 0, 64, 85
1, 34513, Control_c, 0, 64, 112
1, 34528, Control_c, 0, 64, 127
1, 34547, Note_off_c, 0, 29, 44
1, 34622, Note_off_c, 0, 41, 58
1, 34768, Note_on_c, 0, 73, 75
1, 34861, Note_off_c, 0, 68, 53
1, 35126, Note_on_c, 0, 77, 77
1, 35133, Note_on_c, 0, 53, 42
1, 35141, Note_on_c, 0, 56, 47
1, 35145, Note_on_c, 0, 61, 46
1, 35213, Note_off_c, 0, 61, 59
1, 35213, Note_off_c, 0, 73, 60
1, 35228, Note_off_c, 0, 53, 58
1, 35233, Note_off_c, 0, 56, 56
1, 35556, Note_on_c, 0, 82, 66
1, 35636, Note_off_c, 0, 77, 60
1, 36044, Note_on_c, 0, 24, 35
1, 36076, Note_on_c, 0, 36, 40
1, 36085, Control_c, 0, 64, 110
1, 36100, Control_c, 0, 64, 92
1, 36115, Control_c, 0, 64, 73
1, 36119, Note_on_c, 0, 80, 61
1, 36129, Control_c, 0, 64, 36
1, 36144, Control_c, 0, 64, 0
1, 36197, Note_off_c, 0, 82, 54
1, 36203, Control_c, 0, 64, 47
1, 36218, Control_c, 0, 64, 63
1, 36233, Control_c, 0, 64, 69
1, 36235, Note_off_c, 0, 24, 41
1, 36248, Control_c, 0, 64, 76
1, 36262, Control_c, 0, 64, 86
1, 36277, Control_c, 0, 64, 94
1, 36292, Control_c, 0, 64, 97
1, 36307, Control_c, 0, 64, 100
1, 36321, Control_c, 0, 64, 103
1, 36336, Control_c, 0, 64, 106
1, 36351, Control_c, 0, 64, 108
1, 36360, Note_off_c, 0, 36, 41
1, 36366, Control_c, 0, 64, 111
1, 36381, Control_c, 0, 64, 113
1, 36396, Control_c, 0, 64, 116
1, 36411, Control_c, 0, 64, 120
1, 36426, Control_c, 0, 64, 127
1, 36537, Note_off_c, 0, 80, 36
1, 37009, Note_on_c, 0, 51, 17
1, 37052, Note_on_c, 0, 56, 27
1, 37061, Note_on_c, 0, 63, 29
1, 37194, Note_on_c, 0, 66, 44
1, 37231, Note_off_c, 0, 63, 43
1, 37266, Note_off_c, 0, 66, 60
1, 37290, Note_on_c, 0, 68, 48
1, 37369, Note_off_c, 0, 68, 59
1, 37402, Note_on_c, 0, 75, 44
1, 37411, Note_off_c, 0, 56, 39
1, 37437, Note_off_c, 0, 75, 64
1, 37508, Note_off_c, 0, 51, 45
1, 37541, Note_on_c, 0, 80, 46
1, 37672, Note_on_c, 0, 78, 42
1, 37698, Note_off_c, 0, 80, 33
1, 37769, Note_off_c, 0, 78, 54
1, 37795, Note_on_c, 0, 77, 46
1, 37833, Note_off_c, 0, 77, 63
1, 37965, Note_on_c, 0, 65, 40
1, 38037, Note_off_c, 0, 65, 54
1, 38057, Note_on_c, 0, 68, 49
1, 38156, Note_off_c, 0, 68, 51
1, 38164, Note_on_c, 0, 73, 44
1, 38287, Note_on_c, 0, 25, 37
1, 38317, Note_on_c, 0, 37, 29
1, 38330, Control_c, 0, 64, 106
1, 38345, Control_c, 0, 64, 90
1, 38360, Control_c, 0, 64, 77
1, 38375, Note_on_c, 0, 77, 39
1, 38376, Control_c, 0, 64, 66
1, 38391, Control_c, 0, 64, 59
1, 38405, Note_off_c, 0, 73, 35
1, 38405, Control_c, 0, 64, 62
1, 38420, Control_c, 0, 64, 65
1, 38435, Control_c, 0, 64, 69
1, 38450, Control_c, 0, 64, 77
1, 38465, Control_c, 0, 64, 91
1, 38476, Note_off_c, 0, 25, 39
1, 38479, Control_c, 0, 64, 102
1, 38494, Control_c, 0, 64, 107
1, 38509, Control_c, 0, 64, 112
1, 38519, Note_off_c, 0, 77, 34
1, 38524, Control_c, 0, 64, 118
1, 38539, Control_c, 0, 64, 127
1, 38549, Note_off_c, 0, 37, 41
1, 39231, Note_on_c, 0, 56, 31
1, 39232, Note_on_c, 0, 53, 36
1, 39247, Note_on_c, 0, 61, 35
1, 39324, Note_off_c, 0, 61, 58
1, 39342, Note_off_c, 0, 53, 56
1, 39366, Note_off_c, 0, 56, 36
1, 39997, Note_on_c, 0, 48, 58
1, 40005, Note_on_c, 0, 36, 55
1, 40050, Note_off_c, 0, 48, 58
1, 40052, Note_off_c, 0, 36, 58
1, 40196, Note_on_c, 0, 47, 66
1, 40205, Note_on_c, 0, 35, 60
1, 40229, Control_c, 0, 64, 100
1, 40244, Control_c, 0, 64, 80
1, 40259, Control_c, 0, 64, 61
1, 40274, Control_c, 0, 64, 0
1, 40319, Control_c, 0, 64, 48
1, 40334, Control_c, 0, 64, 65
1, 40341, Note_off_c, 0, 35, 61
1, 40348, Control_c, 0, 64, 72
1, 40359, Note_off_c, 0, 47, 59
1, 40363, Control_c, 0, 64, 83
1, 40378, Control_c, 0, 64, 95
1, 40393, Control_c, 0, 64, 101
1, 40408, Control_c, 0, 64, 103
1, 40422, Control_c, 0, 64, 106
1, 40444, Control_c, 0, 64, 107
1, 40459, Control_c, 0, 64, 108
1, 40474, Control_c, 0, 64, 109
1, 40578, Control_c, 0, 64, 110
1, 40608, Control_c, 0, 64, 110
1, 40622, Control_c, 0, 64, 111
1, 40637, Control_c, 0, 64, 113
1, 40652, Control_c, 0, 64, 116
1, 40667, Control_c, 0, 64, 127
1, 41049, Note_on_c, 0, 55, 40
1, 41077, Note_on_c, 0, 67, 65
1, 41083, Note_on_c, 0, 65, 33
1, 41092, Note_on_c, 0, 62, 25
1, 41148, Note_off_c, 0, 62, 57
1, 41151, Note_off_c, 0, 65, 59
1, 41160, Note_off_c, 0, 55, 57
1, 41705, Note_on_c, 0, 68, 53
1, 41730, Note_off_c, 0, 67, 49
1, 41756, Note_off_c, 0, 68, 59
1, 41784, Note_on_c, 0, 70, 54
1, 41845, Control_c, 0, 64, 101
1, 41860, Note_on_c, 0, 48, 40
1, 41860, Control_c, 0, 64, 85
1, 41863, Note_on_c, 0, 36, 37
1, 41875, Control_c, 0, 64, 71
1, 41879, Note_on_c, 0, 68, 51
1, 41883, Note_off_c, 0, 70, 44
1, 41890, Control_c, 0, 64, 58
1, 41905, Control_c, 0, 64, 45
1, 41919, Control_c, 0, 64, 54
1, 41941, Control_c, 0, 64, 61
1, 41956, Control_c, 0, 64, 65
1, 41971, Control_c, 0, 64, 71
1, 41986, Control_c, 0, 64, 81
1, 42000, Control_c, 0, 64, 96
1, 42015, Control_c, 0, 64, 108
1, 42021, Note_off_c, 0, 36, 37
1, 42030, Control_c, 0, 64, 112
1, 42045, Control_c, 0, 64, 115
1, 42060, Control_c, 0, 64, 117
1, 42074, Control_c, 0, 64, 119
1, 42089, Control_c, 0, 64, 119
1, 42101, Note_on_c, 0, 67, 58
1, 42102, Note_off_c, 0, 48, 47
1, 42102, Note_off_c, 0, 68, 49
1, 42119, Control_c, 0, 64, 120
1, 42289, Note_on_c, 0, 71, 65
1, 42310, Note_off_c, 0, 67, 59
1, 42462, Note_on_c, 0, 72, 84
1, 42476, Control_c, 0, 64, 119
1, 42488, Note_off_c, 0, 71, 65
1, 42538, Note_off_c, 0, 72, 64
1, 42623, Control_c, 0, 64, 119
1, 42662, Note_on_c, 0, 74, 72
1, 42668, Control_c, 0, 64, 117
1, 42676, Note_on_c, 0, 55, 43
1, 42683, Control_c, 0, 64, 113
1, 42705, Control_c, 0, 64, 101
1, 42706, Note_on_c, 0, 60, 42
1, 42720, Control_c, 0, 64, 86
1, 42735, Control_c, 0, 64, 68
1, 42749, Control_c, 0, 64, 28
1, 42764, Control_c, 0, 64, 0
1, 42779, Control_c, 0, 64, 38
1, 42794, Control_c, 0, 64, 57
1, 42809, Control_c, 0, 64, 64
1, 42823, Control_c, 0, 64, 69
1, 42838, Control_c, 0, 64, 75
1, 42853, Control_c, 0, 64, 84
1, 42868, Control_c, 0, 64, 91
1, 42883, Note_on_c, 0, 75, 72
1, 42883, Control_c, 0, 64, 94
1, 42897, Control_c, 0, 64, 96
1, 42912, Control_c, 0, 64, 98
1, 42927, Control_c, 0, 64, 99
1, 42937, Note_off_c, 0, 74, 59
1, 42942, Control_c, 0, 64, 100
1, 42949, Note_off_c, 0, 55, 57
1, 42957, Control_c, 0, 64, 101
1, 42980, Note_off_c, 0, 60, 33
1, 42987, Control_c, 0, 64, 101
1, 43016, Control_c, 0, 64, 102
1, 43061, Control_c, 0, 64, 102
1, 43076, Control_c, 0, 64, 103
1, 43105, Control_c, 0, 64, 103
1, 43115, Note_on_c, 0, 84, 64
1, 43120, Control_c, 0, 64, 104
1, 43134, Control_c, 0, 64, 106
1, 43149, Control_c, 0, 64, 108
1, 43165, Control_c, 0, 64, 111
1, 43180, Control_c, 0, 64, 117
1, 43195, Note_off_c, 0, 75, 57
1, 43195, Control_c, 0, 64, 127
1, 43398, Note_on_c, 0, 80, 66
1, 43495, Note_off_c, 0, 84, 46
1, 43695, Note_on_c, 0, 38, 38
1, 43706, Control_c, 0, 64, 122
1, 43721, Note_on_c, 0, 50, 18
1, 43721, Control_c, 0, 64, 102
1, 43736, Control_c, 0, 64, 88
1, 43751, Control_c, 0, 64, 74
1, 43765, Control_c, 0, 64, 58
1, 43780, Control_c, 0, 64, 0
1, 43805, Note_on_c, 0, 79, 55
1, 43810, Control_c, 0, 64, 38
1, 43825, Control_c, 0, 64, 58
1, 43835, Note_off_c, 0, 80, 54
1, 43839, Control_c, 0, 64, 64
1, 43854, Control_c, 0, 64, 68
1, 43869, Note_off_c, 0, 38, 46
1, 43869, Control_c, 0, 64, 75
1, 43884, Control_c, 0, 64, 86
1, 43899, Control_c, 0, 64, 95
1, 43914, Control_c, 0, 64, 99
1, 43929, Control_c, 0, 64, 102
1, 43943, Control_c, 0, 64, 105
1, 43959, Control_c, 0, 64, 107
1, 43974, Control_c, 0, 64, 109
1, 43986, Note_off_c, 0, 50, 43
1, 43988, Control_c, 0, 64, 110
1, 44003, Control_c, 0, 64, 112
1, 44018, Control_c, 0, 64, 114
1, 44033, Control_c, 0, 64, 116
1, 44048, Control_c, 0, 64, 119
1, 44063, Control_c, 0, 64, 126
1, 44067, Note_off_c, 0, 79, 49
1, 44078, Control_c, 0, 64, 127
1, 44626, Note_on_c, 0, 55, 34
1, 44662, Note_on_c, 0, 62, 20
1, 44689, Note_on_c, 0, 65, 36
1, 44692, Note_on_c, 0, 67, 35
1, 44842, Note_on_c, 0, 73, 44
1, 44872, Note_off_c, 0, 67, 42
1, 44885, Note_off_c, 0, 65, 41
1, 44946, Note_off_c, 0, 73, 50
1, 44957, Note_off_c, 0, 62, 34
1, 44996, Note_on_c, 0, 74, 34
1, 45027, Note_off_c, 0, 55, 42
1, 45136, Note_on_c, 0, 79, 44
1, 45153, Note_off_c, 0, 74, 42
1, 45264, Note_off_c, 0, 79, 59
1, 45287, Note_on_c, 0, 77, 46
1, 45410, Note_off_c, 0, 77, 53
1, 45414, Note_on_c, 0, 75, 52
1, 45464, Note_off_c, 0, 75, 54
1, 45619, Control_c, 0, 64, 119
1, 45622, Note_on_c, 0, 51, 31
1, 45629, Note_on_c, 0, 39, 35
1, 45634, Control_c, 0, 64, 97
1, 45644, Note_on_c, 0, 75, 39
1, 45649, Control_c, 0, 64, 83
1, 45663, Control_c, 0, 64, 69
1, 45678, Control_c, 0, 64, 54
1, 45700, Control_c, 0, 64, 45
1, 45715, Control_c, 0, 64, 58
1, 45730, Control_c, 0, 64, 65
1, 45745, Control_c, 0, 64, 72
1, 45759, Control_c, 0, 64, 84
1, 45774, Control_c, 0, 64, 99
1, 45789, Control_c, 0, 64, 109
1, 45804, Control_c, 0, 64, 114
1, 45811, Note_off_c, 0, 39, 44
1, 45819, Control_c, 0, 64, 121
1, 45833, Control_c, 0, 64, 127
1, 45838, Note_off_c, 0, 75, 34
1, 45902, Note_off_c, 0, 51, 44
1, 46529, Note_on_c, 0, 55, 32
1, 46537, Note_on_c, 0, 67, 35
1, 46555, Note_on_c, 0, 60, 32
1, 46631, Note_off_c, 0, 67, 55
1, 46753, Note_off_c, 0, 55, 42
1, 46761, Note_off_c, 0, 60, 39
1, 47264, Note_on_c, 0, 39, 51
1, 47270, Note_on_c, 0, 51, 52
1, 47309, Note_off_c, 0, 39, 61
1, 47321, Note_off_c, 0, 51, 62
1, 47453, Note_on_c, 0, 53, 61
1, 47455, Note_on_c, 0, 41, 55
1, 47465, Control_c, 0, 64, 108
1, 47480, Control_c, 0, 64, 86
1, 47495, Control_c, 0, 64, 66
1, 47510, Control_c, 0, 64, 0
1, 47554, Control_c, 0, 64, 62
1, 47569, Control_c, 0, 64, 73
1, 47584, Control_c, 0, 64, 91
1, 47599, Control_c, 0, 64, 127
1, 47616, Note_off_c, 0, 41, 55
1, 47696, Note_off_c, 0, 53, 61
1, 48266, Note_on_c, 0, 56, 42
1, 48286, Note_on_c, 0, 62, 39
1, 48287, Note_on_c, 0, 68, 49
1, 48296, Note_on_c, 0, 71, 65
1, 48350, Note_off_c, 0, 68, 60
1, 48381, Note_off_c, 0, 56, 53
1, 48426, Note_off_c, 0, 62, 34
1, 49026, Note_on_c, 0, 39, 49
1, 49028, Note_on_c, 0, 51, 46
1, 49050, Control_c, 0, 64, 108
1, 49065, Control_c, 0, 64, 85
1, 49080, Control_c, 0, 64, 65
1, 49095, Control_c, 0, 64, 0
1, 49124, Control_c, 0, 64, 49
1, 49139, Control_c, 0, 64, 65
1, 49154, Control_c, 0, 64, 75
1, 49169, Control_c, 0, 64, 94
1, 49184, Control_c, 0, 64, 127
1, 49199, Note_off_c, 0, 39, 62
1, 49289, Note_off_c, 0, 51, 62
1, 49410, Note_on_c, 0, 72, 74
1, 49491, Note_off_c, 0, 71, 57
1, 49785, Note_on_c, 0, 60, 42
1, 49792, Note_on_c, 0, 67, 39
1, 49793, Note_on_c, 0, 55, 43
1, 49798, Note_on_c, 0, 74, 71
1, 49849, Note_off_c, 0, 72, 64
1, 49874, Note_off_c, 0, 67, 59
1, 49914, Note_off_c, 0, 55, 52
1, 49946, Note_off_c, 0, 60, 57
1, 50189, Note_on_c, 0, 75, 74
1, 50234, Note_off_c, 0, 74, 61
1, 50341, Note_on_c, 0, 48, 71
1, 50346, Note_on_c, 0, 36, 58
1, 50370, Note_off_c, 0, 48, 64
1, 50377, Note_off_c, 0, 36, 61
1, 50564, Control_c, 0, 64, 113
1, 50566, Note_on_c, 0, 47, 63
1, 50569, Note_on_c, 0, 35, 66
1, 50579, Control_c, 0, 64, 88
1, 50594, Control_c, 0, 64, 68
1, 50608, Control_c, 0, 64, 0
1, 50650, Note_off_c, 0, 35, 64
1, 50668, Control_c, 0, 64, 55
1, 50682, Control_c, 0, 64, 71
1, 50697, Control_c, 0, 64, 92
1, 50712, Control_c, 0, 64, 127
1, 50717, Note_off_c, 0, 75, 64
1, 50731, Note_off_c, 0, 47, 63
1, 51356, Note_on_c, 0, 62, 37
1, 51359, Note_on_c, 0, 74, 76
1, 51361, Note_on_c, 0, 55, 44
1, 51381, Note_on_c, 0, 67, 44
1, 51387, Note_on_c, 0, 65, 42
1, 51438, Note_off_c, 0, 65, 55
1, 51441, Note_off_c, 0, 67, 59
1, 51453, Note_off_c, 0, 62, 55
1, 51476, Note_off_c, 0, 55, 58
1, 52081, Note_on_c, 0, 48, 67
1, 52090, Note_on_c, 0, 36, 52
1, 52105, Control_c, 0, 64, 109
1, 52120, Control_c, 0, 64, 83
1, 52135, Control_c, 0, 64, 64
1, 52150, Control_c, 0, 64, 0
1, 52179, Control_c, 0, 64, 58
1, 52194, Control_c, 0, 64, 69
1, 52209, Control_c, 0, 64, 90
1, 52224, Control_c, 0, 64, 127
1, 52234, Note_off_c, 0, 36, 61
1, 52310, Note_off_c, 0, 48, 63
1, 52435, Note_on_c, 0, 75, 80
1, 52500, Note_off_c, 0, 74, 62
1, 52812, Note_on_c, 0, 55, 38
1, 52818, Note_on_c, 0, 77, 77
1, 52823, Note_on_c, 0, 60, 44
1, 52830, Note_on_c, 0, 63, 53
1, 52874, Note_off_c, 0, 75, 60
1, 52890, Note_off_c, 0, 63, 63
1, 52927, Note_off_c, 0, 60, 56
1, 52934, Note_off_c, 0, 55, 56
1, 53303, Note_on_c, 0, 79, 63
1, 53344, Note_off_c, 0, 77, 57
1, 53438, Note_off_c, 0, 79, 54
1, 53599, Note_on_c, 0, 36, 33
1, 53819, Note_off_c, 0, 36, 33
1, 53989, Note_on_c, 0, 29, 34
1, 54018, Note_on_c, 0, 41, 36
1, 54059, Note_on_c, 0, 79, 43
1, 54070, Control_c, 0, 64, 117
1, 54084, Control_c, 0, 64, 92
1, 54099, Control_c, 0, 64, 71
1, 54114, Control_c, 0, 64, 49
1, 54129, Control_c, 0, 64, 33
1, 54144, Control_c, 0, 64, 51
1, 54159, Control_c, 0, 64, 62
1, 54174, Control_c, 0, 64, 67
1, 54189, Control_c, 0, 64, 73
1, 54204, Control_c, 0, 64, 87
1, 54219, Control_c, 0, 64, 99
1, 54233, Control_c, 0, 64, 104
1, 54248, Control_c, 0, 64, 106
1, 54263, Control_c, 0, 64, 109
1, 54268, Note_off_c, 0, 29, 40
1, 54277, Control_c, 0, 64, 112
1, 54292, Control_c, 0, 64, 116
1, 54307, Control_c, 0, 64, 121
1, 54322, Control_c, 0, 64, 127
1, 54329, Note_off_c, 0, 41, 42
1, 54544, Note_on_c, 0, 77, 45
1, 54590, Note_off_c, 0, 79, 33
1, 54921, Note_on_c, 0, 80, 46
1, 54943, Note_on_c, 0, 53, 31
1, 54943, Note_on_c, 0, 60, 23
1, 54954, Note_off_c, 0, 77, 34
1, 54956, Note_on_c, 0, 65, 25
1, 55024, Note_off_c, 0, 65, 48
1, 55077, Note_off_c, 0, 53, 31
1, 55093, Note_off_c, 0, 60, 33
1, 55275, Note_on_c, 0, 72, 54
1, 55320, Note_off_c, 0, 80, 60
1, 55611, Note_on_c, 0, 32, 38
1, 55625, Note_on_c, 0, 44, 33
1, 55642, Control_c, 0, 64, 119
1, 55657, Control_c, 0, 64, 91
1, 55671, Control_c, 0, 64, 72
1, 55674, Note_on_c, 0, 74, 38
1, 55679, Note_off_c, 0, 72, 53
1, 55686, Control_c, 0, 64, 50
1, 55701, Control_c, 0, 64, 20
1, 55716, Control_c, 0, 64, 51
1, 55730, Control_c, 0, 64, 64
1, 55745, Control_c, 0, 64, 71
1, 55760, Control_c, 0, 64, 83
1, 55775, Control_c, 0, 64, 102
1, 55778, Note_off_c, 0, 32, 41
1, 55790, Control_c, 0, 64, 127
1, 55892, Note_off_c, 0, 44, 40
1, 56014, Note_on_c, 0, 75, 42
1, 56030, Note_off_c, 0, 74, 42
1, 56070, Note_off_c, 0, 75, 61
1, 56204, Note_on_c, 0, 75, 41
1, 56272, Note_off_c, 0, 75, 58
1, 56317, Note_on_c, 0, 77, 41
1, 56374, Note_off_c, 0, 77, 59
1, 56399, Note_on_c, 0, 75, 51
1, 56464, Note_off_c, 0, 75, 62
1, 56492, Note_on_c, 0, 74, 47
1, 56559, Note_off_c, 0, 74, 63
1, 56590, Note_on_c, 0, 75, 49
1, 56714, Note_on_c, 0, 53, 29
1, 56724, Note_on_c, 0, 60, 34
1, 56731, Control_c, 0, 64, 100
1, 56738, Note_off_c, 0, 75, 59
1, 56740, Note_on_c, 0, 65, 32
1, 56741, Note_on_c, 0, 79, 53
1, 56746, Control_c, 0, 64, 82
1, 56761, Control_c, 0, 64, 65
1, 56776, Control_c, 0, 64, 18
1, 56791, Control_c, 0, 64, 36
1, 56806, Control_c, 0, 64, 59
1, 56821, Control_c, 0, 64, 66
1, 56836, Control_c, 0, 64, 74
1, 56851, Control_c, 0, 64, 89
1, 56866, Control_c, 0, 64, 106
1, 56881, Control_c, 0, 64, 115
1, 56890, Note_off_c, 0, 65, 45
1, 56895, Control_c, 0, 64, 121
1, 56910, Control_c, 0, 64, 127
1, 56979, Note_off_c, 0, 60, 36
1, 57054, Note_off_c, 0, 53, 38
1, 57155, Note_on_c, 0, 77, 52
1, 57189, Note_off_c, 0, 79, 58
1, 57623, Note_on_c, 0, 34, 35
1, 57633, Note_on_c, 0, 46, 25
1, 57644, Control_c, 0, 64, 110
1, 57647, Note_off_c, 0, 77, 52
1, 57656, Note_on_c, 0, 74, 36
1, 57659, Control_c, 0, 64, 95
1, 57681, Control_c, 0, 64, 83
1, 57696, Control_c, 0, 64, 68
1, 57711, Control_c, 0, 64, 56
1, 57725, Control_c, 0, 64, 55
1, 57740, Control_c, 0, 64, 63
1, 57755, Control_c, 0, 64, 68
1, 57770, Control_c, 0, 64, 77
1, 57785, Control_c, 0, 64, 95
1, 57796, Note_off_c, 0, 34, 43
1, 57799, Control_c, 0, 64, 127
1, 57875, Note_off_c, 0, 74, 40
1, 57894, Note_off_c, 0, 46, 41
1, 58526, Note_on_c, 0, 68, 32
1, 58534, Note_on_c, 0, 53, 20
1, 58538, Note_on_c, 0, 65, 27
1, 58539, Note_on_c, 0, 58, 20
1, 58568, Note_on_c, 0, 62, 18
1, 58627, Note_off_c, 0, 62, 51
1, 58660, Note_off_c, 0, 53, 35
1, 58660, Note_off_c, 0, 58, 37
1, 58693, Note_off_c, 0, 68, 45
1, 58726, Note_off_c, 0, 65, 35
1, 59298, Note_on_c, 0, 46, 39
1, 59316, Note_on_c, 0, 34, 29
1, 59367, Note_off_c, 0, 46, 58
1, 59391, Note_off_c, 0, 34, 47
1, 59486, Note_on_c, 0, 47, 41
1, 59488, Note_on_c, 0, 35, 41
1, 59549, Control_c, 0, 64, 93
1, 59563, Control_c, 0, 64, 72
1, 59578, Control_c, 0, 64, 0
1, 59623, Control_c, 0, 64, 45
1, 59638, Control_c, 0, 64, 65
1, 59653, Control_c, 0, 64, 75
1, 59668, Control_c, 0, 64, 92
1, 59671, Note_off_c, 0, 35, 41
1, 59683, Control_c, 0, 64, 120
1, 59697, Control_c, 0, 64, 127
1, 59807, Note_off_c, 0, 47, 40
1, 60419, Note_on_c, 0, 67, 36
1, 60422, Note_on_c, 0, 55, 27
1, 60426, Note_on_c, 0, 65, 37
1, 60434, Note_on_c, 0, 62, 17
1, 60521, Note_off_c, 0, 67, 53
1, 60526, Note_off_c, 0, 62, 38
1, 60541, Note_off_c, 0, 55, 38
1, 60550, Note_off_c, 0, 65, 36
1, 61286, Note_on_c, 0, 31, 30
1, 61286, Note_on_c, 0, 43, 38
1, 61334, Note_off_c, 0, 31, 51
1, 61371, Note_off_c, 0, 43, 58
1, 61620, Note_on_c, 0, 36, 30
1, 61638, Note_on_c, 0, 48, 40
1, 61647, Control_c, 0, 64, 105
1, 61662, Control_c, 0, 64, 84
1, 61677, Control_c, 0, 64, 66
1, 61692, Control_c, 0, 64, 0
1, 61707, Control_c, 0, 64, 20
1, 61722, Control_c, 0, 64, 61
1, 61736, Control_c, 0, 64, 70
1, 61751, Control_c, 0, 64, 86
1, 61766, Control_c, 0, 64, 127
1, 61796, Note_off_c, 0, 36, 42
1, 61844, Note_off_c, 0, 48, 36
1, 62539, Note_on_c, 0, 60, 34
1, 62547, Note_on_c, 0, 64, 34
1, 62556, Note_on_c, 0, 79, 58
1, 62562, Note_on_c, 0, 70, 34
1, 62630, Note_off_c, 0, 79, 62
1, 62636, Note_off_c, 0, 60, 57
1, 62640, Note_off_c, 0, 70, 56
1, 62646, Note_off_c, 0, 64, 58
1, 63402, Note_on_c, 0, 29, 40
1, 63403, Note_on_c, 0, 41, 40
1, 63427, Control_c, 0, 64, 117
1, 63442, Control_c, 0, 64, 89
1, 63456, Control_c, 0, 64, 71
1, 63471, Control_c, 0, 64, 61
1, 63482, Note_off_c, 0, 29, 57
1, 63486, Control_c, 0, 64, 66
1, 63501, Control_c, 0, 64, 76
1, 63516, Control_c, 0, 64, 105
1, 63518, Note_off_c, 0, 41, 48
1, 63531, Control_c, 0, 64, 127
1, 64274, Note_on_c, 0, 60, 30
1, 64287, Note_on_c, 0, 68, 31
1, 64288, Note_on_c, 0, 63, 36
1, 64294, Note_on_c, 0, 80, 64
1, 64353, Note_off_c, 0, 80, 62
1, 64354, Note_off_c, 0, 60, 57
1, 64375, Note_off_c, 0, 63, 55
1, 64378, Note_off_c, 0, 68, 52
1, 65198, Note_on_c, 0, 46, 30
1, 65206, Note_on_c, 0, 34, 38
1, 65212, Control_c, 0, 64, 102
1, 65227, Control_c, 0, 64, 84
1, 65242, Control_c, 0, 64, 70
1, 65257, Control_c, 0, 64, 62
1, 65272, Control_c, 0, 64, 63
1, 65286, Control_c, 0, 64, 71
1, 65301, Control_c, 0, 64, 87
1, 65316, Control_c, 0, 64, 127
1, 65377, Note_off_c, 0, 34, 42
1, 65466, Note_off_c, 0, 46, 42
1, 65677, Note_on_c, 0, 79, 61
1, 66095, Note_on_c, 0, 58, 39
1, 66106, Note_on_c, 0, 68, 38
1, 66133, Note_on_c, 0, 62, 28
1, 66184, Note_off_c, 0, 62, 56
1, 66196, Note_off_c, 0, 58, 56
1, 66250, Note_off_c, 0, 68, 35
1, 66520, Note_on_c, 0, 77, 57
1, 66599, Note_off_c, 0, 79, 54
1, 66920, Note_on_c, 0, 39, 41
1, 66924, Note_on_c, 0, 51, 38
1, 66932, Control_c, 0, 64, 121
1, 66947, Control_c, 0, 64, 99
1, 66962, Control_c, 0, 64, 87
1, 66977, Control_c, 0, 64, 73
1, 66992, Control_c, 0, 64, 64
1, 67006, Control_c, 0, 64, 60
1, 67021, Control_c, 0, 64, 64
1, 67036, Control_c, 0, 64, 70
1, 67050, Control_c, 0, 64, 84
1, 67065, Control_c, 0, 64, 127
1, 67108, Note_off_c, 0, 39, 41
1, 67202, Note_off_c, 0, 51, 41
1, 67256, Note_on_c, 0, 75, 48
1, 67304, Note_off_c, 0, 77, 61
1, 67533, Note_on_c, 0, 77, 47
1, 67543, Note_off_c, 0, 75, 55
1, 67677, Note_off_c, 0, 77, 62
1, 67710, Note_on_c, 0, 75, 46
1, 67741, Note_off_c, 0, 75, 63
1, 67771, Note_on_c, 0, 77, 52
1, 67818, Note_off_c, 0, 77, 54
1, 67824, Note_on_c, 0, 75, 60
1, 67886, Note_on_c, 0, 58, 43
1, 67901, Note_off_c, 0, 75, 54
1, 67907, Note_on_c, 0, 74, 59
1, 67919, Note_on_c, 0, 62, 36
1, 67922, Note_on_c, 0, 67, 40
1, 68021, Note_off_c, 0, 67, 59
1, 68092, Note_off_c, 0, 62, 41
1, 68105, Note_on_c, 0, 75, 69
1, 68118, Note_off_c, 0, 58, 57
1, 68181, Note_off_c, 0, 74, 61
1, 68348, Note_on_c, 0, 77, 72
1, 68396, Note_off_c, 0, 75, 56
1, 68620, Note_on_c, 0, 79, 65
1, 68645, Note_off_c, 0, 77, 54
1, 68694, Note_off_c, 0, 79, 56
1, 68835, Note_on_c, 0, 79, 49
1, 69007, Note_on_c, 0, 32, 30
1, 69049, Note_on_c, 0, 44, 31
1, 69075, Control_c, 0, 64, 113
1, 69090, Control_c, 0, 64, 92
1, 69105, Control_c, 0, 64, 74
1, 69120, Control_c, 0, 64, 56
1, 69134, Control_c, 0, 64, 0
1, 69149, Control_c, 0, 64, 31
1, 69164, Control_c, 0, 64, 57
1, 69165, Note_on_c, 0, 72, 51
1, 69179, Control_c, 0, 64, 64
1, 69193, Control_c, 0, 64, 67
1, 69208, Control_c, 0, 64, 72
1, 69215, Note_off_c, 0, 79, 55
1, 69223, Control_c, 0, 64, 79
1, 69238, Control_c, 0, 64, 89
1, 69252, Control_c, 0, 64, 97
1, 69267, Control_c, 0, 64, 104
1, 69282, Control_c, 0, 64, 109
1, 69297, Control_c, 0, 64, 116
1, 69299, Note_off_c, 0, 32, 41
1, 69312, Control_c, 0, 64, 127
1, 69391, Note_off_c, 0, 44, 40
1, 69975, Note_on_c, 0, 67, 34
1, 69991, Note_on_c, 0, 56, 34
1, 69993, Note_on_c, 0, 60, 36
1, 70071, Note_off_c, 0, 67, 58
1, 70077, Note_off_c, 0, 60, 55
1, 70083, Note_off_c, 0, 56, 44
1, 70806, Note_on_c, 0, 38, 35
1, 70810, Control_c, 0, 64, 119
1, 70823, Note_on_c, 0, 50, 40
1, 70824, Control_c, 0, 64, 93
1, 70839, Control_c, 0, 64, 75
1, 70854, Control_c, 0, 64, 64
1, 70869, Control_c, 0, 64, 57
1, 70884, Control_c, 0, 64, 63
1, 70898, Control_c, 0, 64, 67
1, 70913, Control_c, 0, 64, 75
1, 70928, Control_c, 0, 64, 91
1, 70942, Control_c, 0, 64, 115
1, 70957, Control_c, 0, 64, 127
1, 70974, Note_off_c, 0, 38, 37
1, 71045, Note_off_c, 0, 50, 45
1, 71606, Note_on_c, 0, 77, 57
1, 71636, Note_on_c, 0, 65, 35
1, 71639, Note_on_c, 0, 56, 25
1, 71646, Note_on_c, 0, 60, 30
1, 71654, Note_off_c, 0, 72, 63
1, 71703, Note_off_c, 0, 65, 61
1, 71716, Note_off_c, 0, 60, 52
1, 71725, Note_off_c, 0, 56, 40
1, 72444, Note_on_c, 0, 31, 37
1, 72459, Note_on_c, 0, 43, 27
1, 72483, Note_off_c, 0, 77, 51
1, 72485, Control_c, 0, 64, 124
1, 72491, Note_on_c, 0, 71, 44
1, 72500, Control_c, 0, 64, 99
1, 72514, Control_c, 0, 64, 84
1, 72529, Control_c, 0, 64, 69
1, 72544, Control_c, 0, 64, 56
1, 72559, Control_c, 0, 64, 55
1, 72574, Control_c, 0, 64, 63
1, 72588, Control_c, 0, 64, 66
1, 72603, Control_c, 0, 64, 72
1, 72618, Control_c, 0, 64, 83
1, 72633, Control_c, 0, 64, 98
1, 72635, Note_off_c, 0, 31, 40
1, 72656, Control_c, 0, 64, 109
1, 72670, Control_c, 0, 64, 116
1, 72685, Control_c, 0, 64, 127
1, 72727, Note_off_c, 0, 43, 58
1, 72837, Note_on_c, 0, 75, 41
1, 72910, Note_off_c, 0, 71, 32
1, 73331, Note_on_c, 0, 55, 27
1, 73333, Note_on_c, 0, 65, 38
1, 73358, Note_on_c, 0, 59, 29
1, 73487, Note_off_c, 0, 55, 35
1, 73493, Note_off_c, 0, 65, 37
1, 73506, Note_off_c, 0, 59, 36
1, 73752, Note_on_c, 0, 74, 45
1, 73808, Note_off_c, 0, 75, 44
1, 74149, Note_on_c, 0, 44, 42
1, 74154, Note_on_c, 0, 32, 37
1, 74183, Control_c, 0, 64, 109
1, 74198, Control_c, 0, 64, 85
1, 74213, Control_c, 0, 64, 68
1, 74228, Control_c, 0, 64, 59
1, 74242, Control_c, 0, 64, 62
1, 74257, Control_c, 0, 64, 68
1, 74272, Control_c, 0, 64, 79
1, 74287, Control_c, 0, 64, 112
1, 74301, Control_c, 0, 64, 127
1, 74309, Note_off_c, 0, 32, 48
1, 74444, Note_on_c, 0, 72, 67
1, 74459, Note_off_c, 0, 44, 39
1, 74471, Note_off_c, 0, 74, 59
1, 74674, Note_on_c, 0, 74, 66
1, 74691, Note_off_c, 0, 72, 62
1, 74817, Note_off_c, 0, 74, 63
1, 74836, Note_on_c, 0, 72, 65
1, 74867, Note_off_c, 0, 72, 66
1, 74889, Note_on_c, 0, 74, 50
1, 74939, Note_off_c, 0, 74, 63
1, 74951, Note_on_c, 0, 72, 68
1, 74990, Note_off_c, 0, 72, 63
1, 75001, Note_on_c, 0, 71, 67
1, 75022, Note_on_c, 0, 63, 46
1, 75024, Note_on_c, 0, 56, 44
1, 75025, Note_on_c, 0, 51, 48
1, 75091, Note_off_c, 0, 63, 61
1, 75114, Note_off_c, 0, 56, 62
1, 75117, Note_off_c, 0, 51, 57
1, 75218, Note_on_c, 0, 72, 84
1, 75258, Note_off_c, 0, 71, 63
1, 75437, Note_on_c, 0, 74, 73
1, 75472, Note_off_c, 0, 72, 61
1, 75665, Note_on_c, 0, 75, 72
1, 75721, Note_off_c, 0, 74, 56
1, 75862, Note_on_c, 0, 27, 48
1, 75890, Note_on_c, 0, 39, 50
1, 75970, Note_on_c, 0, 67, 64
1, 75977, Control_c, 0, 64, 93
1, 75992, Control_c, 0, 64, 73
1, 76007, Control_c, 0, 64, 43
1, 76017, Note_off_c, 0, 75, 56
1, 76022, Control_c, 0, 64, 0
1, 76051, Control_c, 0, 64, 47
1, 76066, Control_c, 0, 64, 63
1, 76081, Control_c, 0, 64, 71
1, 76094, Note_off_c, 0, 27, 63
1, 76095, Control_c, 0, 64, 86
1, 76110, Control_c, 0, 64, 116
1, 76125, Control_c, 0, 64, 127
1, 76161, Note_off_c, 0, 67, 62
1, 76169, Note_off_c, 0, 39, 62
1, 76773, Note_on_c, 0, 51, 43
1, 76779, Note_on_c, 0, 60, 49
1, 76790, Note_on_c, 0, 55, 42
1, 76863, Note_on_c, 0, 84, 77
1, 76864, Note_off_c, 0, 60, 58
1, 76891, Note_off_c, 0, 55, 59
1, 76927, Note_off_c, 0, 51, 35
1, 77723, Note_on_c, 0, 29, 41
1, 77741, Note_on_c, 0, 41, 47
1, 77742, Control_c, 0, 64, 107
1, 77757, Control_c, 0, 64, 80
1, 77772, Control_c, 0, 64, 60
1, 77787, Control_c, 0, 64, 0
1, 77831, Control_c, 0, 64, 45
1, 77846, Control_c, 0, 64, 64
1, 77860, Control_c, 0, 64, 70
1, 77875, Control_c, 0, 64, 81
1, 77898, Control_c, 0, 64, 95
1, 77913, Control_c, 0, 64, 104
1, 77928, Control_c, 0, 64, 107
1, 77942, Control_c, 0, 64, 110
1, 77957, Control_c, 0, 64, 114
1, 77972, Control_c, 0, 64, 119
1, 77987, Control_c, 0, 64, 127
1, 77998, Note_off_c, 0, 29, 39
1, 78098, Note_off_c, 0, 41, 42
1, 78139, Note_on_c, 0, 83, 56
1, 78215, Note_off_c, 0, 84, 54
1, 78485, Note_on_c, 0, 82, 52
1, 78546, Note_off_c, 0, 83, 56
1, 78755, Note_off_c, 0, 82, 64
1, 78756, Note_on_c, 0, 81, 65
1, 78793, Note_off_c, 0, 81, 63
1, 78944, Note_on_c, 0, 49, 36
1, 78960, Note_on_c, 0, 56, 34
1, 78969, Note_on_c, 0, 61, 30
1, 78983, Note_on_c, 0, 80, 52
1, 79127, Note_off_c, 0, 61, 37
1, 79191, Note_on_c, 0, 77, 64
1, 79196, Note_off_c, 0, 56, 41
1, 79246, Note_off_c, 0, 49, 41
1, 79354, Note_off_c, 0, 80, 33
1, 79407, Note_on_c, 0, 68, 63
1, 79596, Note_off_c, 0, 77, 33
1, 79597, Note_on_c, 0, 73, 66
1, 79607, Note_off_c, 0, 68, 61
1, 79628, Note_off_c, 0, 73, 63
1, 79806, Note_on_c, 0, 31, 46
1, 79817, Note_on_c, 0, 43, 43
1, 79834, Note_on_c, 0, 64, 55
1, 79869, Control_c, 0, 64, 94
1, 79884, Control_c, 0, 64, 73
1, 79899, Control_c, 0, 64, 50
1, 79914, Control_c, 0, 64, 30
1, 79929, Control_c, 0, 64, 61
1, 79944, Control_c, 0, 64, 73
1, 79959, Control_c, 0, 64, 98
1, 79974, Control_c, 0, 64, 127
1, 80015, Note_off_c, 0, 64, 55
1, 80035, Note_on_c, 0, 72, 64
1, 80042, Note_off_c, 0, 31, 40
1, 80096, Note_off_c, 0, 43, 58
1, 80248, Note_on_c, 0, 75, 38
1, 80262, Note_off_c, 0, 72, 30
1, 80268, Note_on_c, 0, 73, 66
1, 80302, Note_off_c, 0, 75, 60
1, 80439, Note_on_c, 0, 72, 77
1, 80445, Note_off_c, 0, 73, 63
1, 80463, Note_off_c, 0, 72, 67
1, 80638, Note_on_c, 0, 75, 76
1, 80649, Note_on_c, 0, 60, 48
1, 80650, Note_on_c, 0, 52, 51
1, 80651, Note_on_c, 0, 58, 52
1, 80751, Note_off_c, 0, 60, 58
1, 80767, Note_off_c, 0, 58, 57
1, 80790, Note_off_c, 0, 52, 61
1, 80841, Note_on_c, 0, 76, 76
1, 80869, Note_off_c, 0, 75, 63
1, 81050, Note_on_c, 0, 80, 80
1, 81090, Note_off_c, 0, 76, 62
1, 81252, Note_on_c, 0, 79, 81
1, 81272, Note_off_c, 0, 80, 58
1, 81280, Note_off_c, 0, 79, 65
1, 81431, Note_on_c, 0, 32, 53
1, 81435, Note_on_c, 0, 44, 62
1, 81458, Note_on_c, 0, 65, 80
1, 81470, Control_c, 0, 64, 89
1, 81484, Control_c, 0, 64, 68
1, 81500, Control_c, 0, 64, 20
1, 81515, Control_c, 0, 64, 41
1, 81530, Control_c, 0, 64, 64
1, 81545, Control_c, 0, 64, 79
1, 81559, Control_c, 0, 64, 127
1, 81619, Note_off_c, 0, 32, 63
1, 81662, Note_on_c, 0, 72, 85
1, 81666, Note_off_c, 0, 65, 65
1, 81720, Note_off_c, 0, 72, 65
1, 81747, Note_off_c, 0, 44, 61
1, 81857, Note_on_c, 0, 77, 83
1, 82042, Note_on_c, 0, 79, 87
1, 82069, Note_off_c, 0, 77, 63
1, 82278, Note_on_c, 0, 82, 77
1, 82281, Note_on_c, 0, 53, 53
1, 82290, Note_on_c, 0, 60, 57
1, 82293, Control_c, 0, 64, 91
1, 82306, Note_off_c, 0, 79, 60
1, 82308, Control_c, 0, 64, 72
1, 82323, Control_c, 0, 64, 63
1, 82337, Control_c, 0, 64, 64
1, 82352, Control_c, 0, 64, 67
1, 82367, Control_c, 0, 64, 73
1, 82389, Control_c, 0, 64, 86
1, 82404, Control_c, 0, 64, 127
1, 82464, Note_off_c, 0, 60, 59
1, 82500, Note_off_c, 0, 53, 61
1, 82511, Note_on_c, 0, 80, 77
1, 82552, Note_off_c, 0, 82, 63
1, 82768, Note_on_c, 0, 72, 80
1, 82785, Note_off_c, 0, 80, 64
1, 83032, Note_on_c, 0, 74, 80
1, 83084, Note_off_c, 0, 72, 58
1, 83274, Note_on_c, 0, 43, 53
1, 83275, Note_on_c, 0, 31, 56
1, 83391, Control_c, 0, 64, 97
1, 83405, Control_c, 0, 64, 74
1, 83420, Control_c, 0, 64, 0
1, 83445, Note_on_c, 0, 75, 67
1, 83505, Note_off_c, 0, 74, 61
1, 83509, Control_c, 0, 64, 41
1, 83524, Control_c, 0, 64, 63
1, 83539, Control_c, 0, 64, 70
1, 83554, Control_c, 0, 64, 78
1, 83569, Control_c, 0, 64, 87
1, 83584, Control_c, 0, 64, 94
1, 83598, Control_c, 0, 64, 98
1, 83613, Control_c, 0, 64, 103
1, 83627, Note_off_c, 0, 31, 61
1, 83628, Control_c, 0, 64, 109
1, 83643, Control_c, 0, 64, 119
1, 83658, Control_c, 0, 64, 127
1, 83688, Note_off_c, 0, 43, 63
1, 84415, Note_on_c, 0, 60, 38
1, 84434, Note_on_c, 0, 51, 40
1, 84437, Note_on_c, 0, 55, 43
1, 84519, Note_off_c, 0, 55, 60
1, 84520, Note_off_c, 0, 60, 55
1, 84540, Note_off_c, 0, 51, 56
1, 84944, Note_on_c, 0, 72, 79
1, 84988, Note_off_c, 0, 75, 56
1, 85153, Note_on_c, 0, 74, 70
1, 85199, Note_off_c, 0, 72, 62
1, 85313, Note_on_c, 0, 72, 78
1, 85351, Note_off_c, 0, 74, 62
1, 85459, Note_on_c, 0, 31, 50
1, 85477, Note_on_c, 0, 43, 46
1, 85503, Control_c, 0, 64, 107
1, 85518, Control_c, 0, 64, 87
1, 85524, Note_on_c, 0, 67, 58
1, 85533, Control_c, 0, 64, 69
1, 85548, Control_c, 0, 64, 0
1, 85582, Note_off_c, 0, 72, 60
1, 85607, Control_c, 0, 64, 39
1, 85622, Control_c, 0, 64, 60
1, 85637, Control_c, 0, 64, 67
1, 85652, Control_c, 0, 64, 73
1, 85667, Control_c, 0, 64, 82
1, 85681, Control_c, 0, 64, 89
1, 85696, Control_c, 0, 64, 92
1, 85711, Control_c, 0, 64, 95
1, 85712, Note_off_c, 0, 31, 37
1, 85725, Control_c, 0, 64, 99
1, 85740, Control_c, 0, 64, 109
1, 85755, Control_c, 0, 64, 127
1, 85852, Note_off_c, 0, 43, 33
1, 85973, Note_off_c, 0, 67, 47
1, 86456, Note_on_c, 0, 50, 43
1, 86468, Note_on_c, 0, 59, 46
1, 86469, Note_on_c, 0, 55, 47
1, 86971, Note_on_c, 0, 67, 66
1, 87039, Note_off_c, 0, 59, 51
1, 87173, Note_off_c, 0, 55, 54
1, 87250, Note_off_c, 0, 50, 61
1, 87298, Note_on_c, 0, 68, 71
1, 87350, Note_off_c, 0, 67, 59
1, 87532, Note_on_c, 0, 67, 72
1, 87563, Note_off_c, 0, 68, 63
1, 87756, Note_on_c, 0, 24, 51
1, 87761, Note_on_c, 0, 36, 56
1, 87879, Note_on_c, 0, 60, 69
1, 87899, Control_c, 0, 64, 124
1, 87914, Control_c, 0, 64, 96
1, 87922, Note_off_c, 0, 67, 57
1, 87928, Control_c, 0, 64, 79
1, 87943, Control_c, 0, 64, 60
1, 87958, Control_c, 0, 64, 0
1, 87988, Control_c, 0, 64, 49
1, 88002, Control_c, 0, 64, 61
1, 88017, Control_c, 0, 64, 65
1, 88032, Control_c, 0, 64, 69
1, 88047, Control_c, 0, 64, 73
1, 88062, Control_c, 0, 64, 79
1, 88076, Control_c, 0, 64, 86
1, 88091, Control_c, 0, 64, 91
1, 88106, Control_c, 0, 64, 97
1, 88120, Control_c, 0, 64, 104
1, 88135, Control_c, 0, 64, 114
1, 88150, Control_c, 0, 64, 127
1, 88981, Note_on_c, 0, 58, 51
1, 88993, Note_on_c, 0, 55, 45
1, 89017, Control_c, 0, 64, 104
1, 89032, Control_c, 0, 64, 88
1, 89047, Control_c, 0, 64, 75
1, 89061, Control_c, 0, 64, 64
1, 89076, Control_c, 0, 64, 47
1, 89106, Control_c, 0, 64, 50
1, 89128, Control_c, 0, 64, 53
1, 89143, Control_c, 0, 64, 55
1, 89158, Control_c, 0, 64, 57
1, 89173, Control_c, 0, 64, 60
1, 89188, Control_c, 0, 64, 63
1, 89203, Control_c, 0, 64, 66
1, 89217, Control_c, 0, 64, 69
1, 89232, Control_c, 0, 64, 74
1, 89247, Control_c, 0, 64, 82
1, 89262, Control_c, 0, 64, 90
1, 89276, Control_c, 0, 64, 93
1, 89291, Control_c, 0, 64, 95
1, 89306, Control_c, 0, 64, 97
1, 89321, Control_c, 0, 64, 100
1, 89336, Control_c, 0, 64, 105
1, 89350, Control_c, 0, 64, 110
1, 89365, Control_c, 0, 64, 116
1, 89380, Control_c, 0, 64, 120
1, 89394, Control_c, 0, 64, 127
1, 89449, Note_off_c, 0, 55, 30
1, 89827, Note_off_c, 0, 58, 40
1, 90121, Note_on_c, 0, 57, 42
1, 90122, Note_on_c, 0, 54, 33
1, 90144, Control_c, 0, 64, 124
1, 90159, Control_c, 0, 64, 102
1, 90174, Control_c, 0, 64, 87
1, 90189, Control_c, 0, 64, 71
1, 90204, Control_c, 0, 64, 0
1, 90486, Control_c, 0, 64, 54
1, 90501, Control_c, 0, 64, 62
1, 90515, Control_c, 0, 64, 64
1, 90530, Control_c, 0, 64, 65
1, 90545, Control_c, 0, 64, 66
1, 90560, Control_c, 0, 64, 69
1, 90575, Control_c, 0, 64, 74
1, 90589, Control_c, 0, 64, 79
1, 90604, Control_c, 0, 64, 83
1, 90627, Control_c, 0, 64, 87
1, 90641, Control_c, 0, 64, 91
1, 90656, Control_c, 0, 64, 96
1, 90671, Control_c, 0, 64, 102
1, 90686, Control_c, 0, 64, 108
1, 90701, Control_c, 0, 64, 115
1, 90715, Control_c, 0, 64, 122
1, 90730, Control_c, 0, 64, 127
1, 90937, Note_off_c, 0, 54, 35
1, 90971, Note_off_c, 0, 57, 42
1, 91439, Note_on_c, 0, 56, 28
1, 91446, Note_on_c, 0, 53, 26
1, 91509, Control_c, 0, 64, 121
1, 91524, Control_c, 0, 64, 99
1, 91538, Control_c, 0, 64, 84
1, 91553, Control_c, 0, 64, 68
1, 91568, Control_c, 0, 64, 0
1, 91701, Control_c, 0, 64, 42
1, 91716, Control_c, 0, 64, 57
1, 91731, Control_c, 0, 64, 65
1, 91745, Control_c, 0, 64, 70
1, 91760, Control_c, 0, 64, 76
1, 91775, Control_c, 0, 64, 81
1, 91790, Control_c, 0, 64, 84
1, 91805, Control_c, 0, 64, 85
1, 91820, Control_c, 0, 64, 88
1, 91835, Control_c, 0, 64, 90
1, 91850, Control_c, 0, 64, 94
1, 91864, Control_c, 0, 64, 98
1, 91879, Control_c, 0, 64, 103
1, 91894, Control_c, 0, 64, 107
1, 91909, Control_c, 0, 64, 112
1, 91924, Control_c, 0, 64, 127
1, 92243, Note_off_c, 0, 24, 40
1, 92284, Note_off_c, 0, 53, 30
1, 92407, Note_off_c, 0, 60, 36
1, 92464, Note_off_c, 0, 56, 38
1, 92493, Note_off_c, 0, 36, 33
1, 93370, Note_on_c, 0, 36, 28
1, 93372, Note_on_c, 0, 55, 34
1, 93384, Note_on_c, 0, 60, 27
1, 93386, Note_on_c, 0, 64, 35
1, 93391, Note_on_c, 0, 52, 26
1, 93400, Note_on_c, 0, 48, 26
1, 93496, Control_c, 0, 64, 116
1, 93511, Control_c, 0, 64, 104
1, 93526, Control_c, 0, 64, 93
1, 93540, Control_c, 0, 64, 84
1, 93555, Control_c, 0, 64, 75
1, 93570, Control_c, 0, 64, 65
1, 93584, Control_c, 0, 64, 46
1, 93599, Control_c, 0, 64, 28
1, 93637, Control_c, 0, 64, 30
1, 93696, Control_c, 0, 64, 31
1, 93711, Control_c, 0, 64, 37
1, 93726, Control_c, 0, 64, 46
1, 93740, Control_c, 0, 64, 53
1, 93755, Control_c, 0, 64, 57
1, 93770, Control_c, 0, 64, 60
1, 93784, Control_c, 0, 64, 62
1, 93799, Control_c, 0, 64, 65
1, 93814, Control_c, 0, 64, 67
1, 93829, Control_c, 0, 64, 71
1, 93844, Control_c, 0, 64, 75
1, 93859, Control_c, 0, 64, 80
1, 93874, Control_c, 0, 64, 82
1, 93888, Control_c, 0, 64, 83
1, 93903, Control_c, 0, 64, 84
1, 93918, Control_c, 0, 64, 86
1, 93933, Control_c, 0, 64, 88
1, 93948, Control_c, 0, 64, 89
1, 93963, Control_c, 0, 64, 91
1, 93978, Control_c, 0, 64, 93
1, 93992, Control_c, 0, 64, 95
1, 94007, Control_c, 0, 64, 97
1, 94022, Control_c, 0, 64, 100
1, 94037, Control_c, 0, 64, 102
1, 94052, Control_c, 0, 64, 104
1, 94066, Control_c, 0, 64, 106
1, 94081, Control_c, 0, 64, 108
1, 94096, Control_c, 0, 64, 111
1, 94110, Control_c, 0, 64, 114
1, 94125, Control_c, 0, 64, 119
1, 94140, Control_c, 0, 64, 124
1, 94155, Control_c, 0, 64, 127
1, 94538, Note_off_c, 0, 60, 34
1, 94546, Note_off_c, 0, 52, 30
1, 94549, Note_off_c, 0, 48, 35
1, 94586, Note_off_c, 0, 64, 41
1, 94681, Note_off_c, 0, 36, 35
1, 94702, Note_off_c, 0, 55, 36
1, 95641, Note_on_c, 0, 31, 19
1, 95643, Note_on_c, 0, 62, 22
1, 95650, Note_on_c, 0, 55, 24
1, 95661, Note_on_c, 0, 59, 20
1, 95664, Note_on_c, 0, 53, 14
1, 95674, Note_on_c, 0, 43, 22
1, 95712, Control_c, 0, 64, 110
1, 95727, Control_c, 0, 64, 95
1, 95742, Control_c, 0, 64, 84
1, 95756, Control_c, 0, 64, 74
1, 95771, Control_c, 0, 64, 67
1, 95786, Control_c, 0, 64, 65
1, 95801, Control_c, 0, 64, 66
1, 95816, Control_c, 0, 64, 68
1, 95830, Control_c, 0, 64, 71
1, 95845, Control_c, 0, 64, 76
1, 95868, Control_c, 0, 64, 85
1, 95883, Control_c, 0, 64, 94
1, 95898, Control_c, 0, 64, 98
1, 95913, Control_c, 0, 64, 101
1, 95928, Control_c, 0, 64, 106
1, 95942, Control_c, 0, 64, 111
1, 95957, Control_c, 0, 64, 116
1, 95972, Control_c, 0, 64, 127
1, 96037, Note_off_c, 0, 43, 31
1, 96043, Note_off_c, 0, 53, 14
1, 96053, Note_off_c, 0, 59, 32
1, 96068, Note_off_c, 0, 31, 33
1, 96074, Note_off_c, 0, 62, 31
1, 96109, Note_off_c, 0, 55, 37
1, 96621, Note_on_c, 0, 64, 47
1, 96628, Note_on_c, 0, 53, 29
1, 96633, Note_on_c, 0, 55, 29
1, 96633, Note_on_c, 0, 59, 30
1, 96637, Note_on_c, 0, 43, 25
1, 96954, Note_off_c, 0, 43, 32
1, 96977, Note_off_c, 0, 53, 35
1, 97057, Note_off_c, 0, 55, 39
1, 97066, Note_off_c, 0, 64, 32
1, 97149, Note_off_c, 0, 59, 39
1, 97475, Note_on_c, 0, 43, 27
1, 97480, Note_on_c, 0, 65, 40
1, 97490, Note_on_c, 0, 53, 20
1, 97540, Note_off_c, 0, 65, 48
1, 97570, Note_off_c, 0, 43, 53
1, 97586, Note_off_c, 0, 53, 38
1, 97901, Note_on_c, 0, 64, 41
1, 97902, Note_on_c, 0, 36, 33
1, 97903, Note_on_c, 0, 48, 29
1, 97907, Note_on_c, 0, 55, 32
1, 97909, Note_on_c, 0, 52, 26
1, 97922, Note_on_c, 0, 60, 33
1, 98002, Control_c, 0, 64, 105
1, 98017, Control_c, 0, 64, 84
1, 98032, Control_c, 0, 64, 67
1, 98047, Control_c, 0, 64, 0
1, 98113, Control_c, 0, 64, 45
1, 98128, Control_c, 0, 64, 59
1, 98143, Control_c, 0, 64, 64
1, 98157, Control_c, 0, 64, 68
1, 98172, Control_c, 0, 64, 74
1, 98187, Control_c, 0, 64, 82
1, 98202, Control_c, 0, 64, 87
1, 98217, Control_c, 0, 64, 90
1, 98232, Control_c, 0, 64, 93
1, 98247, Control_c, 0, 64, 97
1, 98261, Control_c, 0, 64, 101
1, 98277, Control_c, 0, 64, 104
1, 98292, Control_c, 0, 64, 107
1, 98306, Control_c, 0, 64, 111
1, 98321, Control_c, 0, 64, 116
1, 98336, Control_c, 0, 64, 126
1, 98351, Control_c, 0, 64, 127
1, 98434, Note_off_c, 0, 48, 33
1, 98473, Note_off_c, 0, 52, 32
1, 98488, Note_off_c, 0, 60, 30
1, 98563, Note_off_c, 0, 64, 37
1, 98586, Note_off_c, 0, 36, 32
1, 98591, Note_off_c, 0, 55, 40
1, 99004, Note_on_c, 0, 55, 37
1, 99024, Note_on_c, 0, 52, 22
1, 99040, Note_on_c, 0, 48, 25
1, 99042, Note_on_c, 0, 36, 25
1, 99290, Note_off_c, 0, 52, 34
1, 99311, Note_off_c, 0, 48, 31
1, 99415, Note_off_c, 0, 36, 30
1, 99420, Note_off_c, 0, 55, 36
1, 99943, Note_on_c, 0, 60, 46
1, 99947, Note_on_c, 0, 55, 40
1, 99962, Note_on_c, 0, 36, 35
1, 99970, Note_on_c, 0, 48, 33
1, 100243, Note_off_c, 0, 48, 35
1, 100321, Note_off_c, 0, 55, 29
1, 100331, Note_off_c, 0, 60, 38
1, 100337, Note_off_c, 0, 36, 31
1, 100876, Note_on_c, 0, 64, 53
1, 100893, Note_on_c, 0, 36, 37
1, 100898, Note_on_c, 0, 55, 35
1, 100908, Note_on_c, 0, 48, 32
1, 100923, Note_on_c, 0, 60, 13
1, 101019, Note_off_c, 0, 60, 32
1, 101117, Note_off_c, 0, 64, 56
1, 101165, Note_off_c, 0, 55, 42
1, 101174, Note_off_c, 0, 48, 34
1, 101216, Note_off_c, 0, 36, 35
1, 101705, Note_on_c, 0, 36, 40
1, 101853, Note_on_c, 0, 43, 42
1, 101870, Note_off_c, 0, 36, 32
1, 102153, Note_on_c, 0, 67, 45
1, 102155, Note_on_c, 0, 55, 36
1, 102155, Note_on_c, 0, 60, 38
1, 102156, Note_on_c, 0, 52, 39
1, 102198, Control_c, 0, 64, 114
1, 102213, Control_c, 0, 64, 93
1, 102228, Control_c, 0, 64, 75
1, 102242, Control_c, 0, 64, 56
1, 102257, Control_c, 0, 64, 0
1, 102288, Control_c, 0, 64, 26
1, 102303, Control_c, 0, 64, 59
1, 102318, Control_c, 0, 64, 66
1, 102333, Control_c, 0, 64, 73
1, 102347, Control_c, 0, 64, 83
1, 102362, Control_c, 0, 64, 91
1, 102377, Control_c, 0, 64, 96
1, 102391, Control_c, 0, 64, 100
1, 102406, Control_c, 0, 64, 106
1, 102421, Control_c, 0, 64, 112
1, 102436, Control_c, 0, 64, 124
1, 102451, Control_c, 0, 64, 127
1, 102522, Note_off_c, 0, 43, 30
1, 102551, Note_off_c, 0, 52, 32
1, 102722, Note_off_c, 0, 67, 37
1, 102723, Note_off_c, 0, 55, 35
1, 102775, Note_off_c, 0, 60, 30
1, 104027, Note_on_c, 0, 45, 35
1, 104032, Note_on_c, 0, 64, 40
1, 104043, Note_on_c, 0, 60, 34
1, 104045, Note_on_c, 0, 52, 29
1, 104046, Note_on_c, 0, 57, 28
1, 104220, Note_off_c, 0, 52, 39
1, 104237, Note_off_c, 0, 57, 39
1, 104237, Note_off_c, 0, 60, 27
1, 104255, Note_off_c, 0, 45, 36
1, 104258, Note_off_c, 0, 64, 36
1, 104755, Note_on_c, 0, 64, 34
1, 104900, Note_on_c, 0, 33, 38
1, 104909, Note_on_c, 0, 62, 50
1, 104910, Note_on_c, 0, 52, 39
1, 104915, Note_on_c, 0, 45, 36
1, 104927, Control_c, 0, 64, 103
1, 104939, Note_on_c, 0, 57, 31
1, 104942, Control_c, 0, 64, 85
1, 104948, Note_off_c, 0, 64, 40
1, 104957, Control_c, 0, 64, 71
1, 104971, Control_c, 0, 64, 62
1, 104986, Control_c, 0, 64, 58
1, 105001, Control_c, 0, 64, 63
1, 105016, Control_c, 0, 64, 67
1, 105031, Control_c, 0, 64, 75
1, 105046, Control_c, 0, 64, 91
1, 105061, Control_c, 0, 64, 109
1, 105062, Note_off_c, 0, 57, 0
1, 105075, Control_c, 0, 64, 127
1, 105099, Poly_aftertouch_c, 0, 57, 127
1, 105165, Note_off_c, 0, 45, 41
1, 105173, Note_off_c, 0, 33, 40
1, 105246, Note_off_c, 0, 52, 41
1, 105623, Note_on_c, 0, 60, 55
1, 105629, Note_off_c, 0, 62, 28
1, 105633, Poly_aftertouch_c, 0, 57, 0
1, 105639, Note_on_c, 0, 52, 36
1, 105648, Note_on_c, 0, 33, 29
1, 105650, Note_on_c, 0, 45, 32
1, 105676, Note_off_c, 0, 60, 57
1, 105710, Note_off_c, 0, 33, 41
1, 105712, Note_off_c, 0, 52, 54
1, 105720, Note_off_c, 0, 45, 55
1, 106013, Note_on_c, 0, 62, 34
1, 106015, Note_on_c, 0, 54, 28
1, 106021, Note_on_c, 0, 38, 25
1, 106028, Note_on_c, 0, 45, 29
1, 106032, Note_on_c, 0, 50, 19
1, 106090, Control_c, 0, 64, 112
1, 106105, Control_c, 0, 64, 99
1, 106120, Control_c, 0, 64, 88
1, 106134, Control_c, 0, 64, 77
1, 106149, Control_c, 0, 64, 65
1, 106164, Control_c, 0, 64, 34
1, 106179, Control_c, 0, 64, 0
1, 106209, Control_c, 0, 64, 15
1, 106224, Control_c, 0, 64, 28
1, 106239, Control_c, 0, 64, 38
1, 106254, Control_c, 0, 64, 48
1, 106270, Control_c, 0, 64, 56
1, 106285, Control_c, 0, 64, 61
1, 106300, Control_c, 0, 64, 64
1, 106314, Control_c, 0, 64, 66
1, 106329, Control_c, 0, 64, 68
1, 106352, Control_c, 0, 64, 71
1, 106366, Control_c, 0, 64, 77
1, 106381, Control_c, 0, 64, 83
1, 106396, Control_c, 0, 64, 87
1, 106411, Control_c, 0, 64, 88
1, 106426, Control_c, 0, 64, 89
1, 106440, Control_c, 0, 64, 92
1, 106455, Control_c, 0, 64, 94
1, 106470, Control_c, 0, 64, 98
1, 106485, Control_c, 0, 64, 101
1, 106499, Control_c, 0, 64, 105
1, 106514, Control_c, 0, 64, 108
1, 106529, Control_c, 0, 64, 112
1, 106544, Control_c, 0, 64, 119
1, 106559, Control_c, 0, 64, 127
1, 106833, Note_off_c, 0, 45, 28
1, 106940, Note_off_c, 0, 62, 28
1, 106973, Note_off_c, 0, 50, 34
1, 107007, Note_off_c, 0, 38, 37
1, 107117, Note_off_c, 0, 54, 41
1, 107910, Note_on_c, 0, 31, 32
1, 107924, Note_on_c, 0, 43, 30
1, 107933, Note_on_c, 0, 59, 29
1, 107935, Note_on_c, 0, 62, 32
1, 107952, Note_on_c, 0, 55, 28
1, 107952, Poly_aftertouch_c, 0, 50, 127
1, 107967, Control_c, 0, 64, 105
1, 107982, Control_c, 0, 64, 89
1, 107997, Control_c, 0, 64, 73
1, 108011, Control_c, 0, 64, 63
1, 108026, Control_c, 0, 64, 58
1, 108041, Control_c, 0, 64, 63
1, 108052, Poly_aftertouch_c, 0, 50, 0
1, 108056, Control_c, 0, 64, 66
1, 108070, Control_c, 0, 64, 71
1, 108085, Control_c, 0, 64, 83
1, 108100, Control_c, 0, 64, 100
1, 108109, Note_off_c, 0, 31, 37
1, 108115, Control_c, 0, 64, 112
1, 108130, Control_c, 0, 64, 127
1, 108200, Note_off_c, 0, 62, 40
1, 108221, Note_off_c, 0, 43, 41
1, 108239, Note_off_c, 0, 55, 42
1, 108242, Note_off_c, 0, 59, 42
1, 108761, Note_on_c, 0, 67, 61
1, 108763, Note_on_c, 0, 43, 33
1, 108784, Note_on_c, 0, 59, 34
1, 108789, Note_on_c, 0, 53, 31
1, 108790, Control_c, 0, 64, 118
1, 108791, Note_on_c, 0, 65, 39
1, 108800, Note_on_c, 0, 63, 33
1, 108805, Control_c, 0, 64, 95
1, 108820, Control_c, 0, 64, 79
1, 108834, Control_c, 0, 64, 65
1, 108849, Control_c, 0, 64, 44
1, 108864, Control_c, 0, 64, 45
1, 108879, Control_c, 0, 64, 56
1, 108893, Control_c, 0, 64, 63
1, 108908, Control_c, 0, 64, 67
1, 108923, Control_c, 0, 64, 73
1, 108938, Control_c, 0, 64, 87
1, 108953, Control_c, 0, 64, 103
1, 108967, Control_c, 0, 64, 116
1, 108982, Control_c, 0, 64, 127
1, 109012, Note_off_c, 0, 59, 51
1, 109024, Note_off_c, 0, 53, 50
1, 109085, Note_off_c, 0, 67, 60
1, 109091, Note_off_c, 0, 43, 48
1, 109134, Note_off_c, 0, 65, 43
1, 109151, Note_off_c, 0, 63, 49
1, 109465, Note_on_c, 0, 36, 40
1, 109530, Note_off_c, 0, 36, 57
1, 109558, Note_on_c, 0, 43, 42
1, 109697, Note_on_c, 0, 48, 44
1, 109921, Note_on_c, 0, 76, 57
1, 109928, Note_on_c, 0, 67, 43
1, 109932, Note_on_c, 0, 55, 41
1, 109932, Note_on_c, 0, 64, 37
1, 109983, Control_c, 0, 64, 104
1, 109998, Control_c, 0, 64, 91
1, 110013, Control_c, 0, 64, 78
1, 110027, Control_c, 0, 64, 67
1, 110042, Control_c, 0, 64, 55
1, 110057, Control_c, 0, 64, 53
1, 110072, Control_c, 0, 64, 56
1, 110095, Control_c, 0, 64, 60
1, 110109, Control_c, 0, 64, 63
1, 110124, Control_c, 0, 64, 64
1, 110139, Control_c, 0, 64, 66
1, 110154, Control_c, 0, 64, 70
1, 110169, Control_c, 0, 64, 76
1, 110183, Control_c, 0, 64, 87
1, 110198, Control_c, 0, 64, 93
1, 110213, Control_c, 0, 64, 96
1, 110228, Control_c, 0, 64, 98
1, 110242, Control_c, 0, 64, 100
1, 110258, Control_c, 0, 64, 101
1, 110273, Control_c, 0, 64, 102
1, 110288, Control_c, 0, 64, 103
1, 110292, Note_off_c, 0, 55, 38
1, 110303, Control_c, 0, 64, 103
1, 110318, Control_c, 0, 64, 104
1, 110332, Control_c, 0, 64, 105
1, 110347, Control_c, 0, 64, 106
1, 110362, Control_c, 0, 64, 107
1, 110377, Control_c, 0, 64, 107
1, 110392, Control_c, 0, 64, 109
1, 110403, Note_off_c, 0, 43, 9
1, 110407, Control_c, 0, 64, 110
1, 110421, Control_c, 0, 64, 114
1, 110436, Control_c, 0, 64, 126
1, 110439, Note_off_c, 0, 76, 33
1, 110449, Note_off_c, 0, 64, 41
1, 110451, Control_c, 0, 64, 127
1, 110571, Note_off_c, 0, 67, 40
1, 110914, Note_off_c, 0, 48, 4
1, 111264, Note_on_c, 0, 36, 44
1, 111321, Note_off_c, 0, 36, 57
1, 111374, Note_on_c, 0, 43, 42
1, 111581, Note_on_c, 0, 62, 38
1, 111583, Note_on_c, 0, 67, 42
1, 111588, Note_on_c, 0, 74, 46
1, 111604, Note_on_c, 0, 55, 39
1, 111607, Control_c, 0, 64, 103
1, 111607, Note_on_c, 0, 53, 37
1, 111622, Control_c, 0, 64, 87
1, 111637, Control_c, 0, 64, 72
1, 111652, Control_c, 0, 64, 64
1, 111667, Control_c, 0, 64, 63
1, 111681, Control_c, 0, 64, 66
1, 111696, Control_c, 0, 64, 75
1, 111711, Control_c, 0, 64, 92
1, 111726, Control_c, 0, 64, 118
1, 111741, Control_c, 0, 64, 127
1, 111841, Note_off_c, 0, 55, 37
1, 111853, Note_off_c, 0, 53, 41
1, 111935, Note_off_c, 0, 74, 56
1, 111990, Note_off_c, 0, 62, 33
1, 112022, Note_off_c, 0, 67, 42
1, 112075, Note_off_c, 0, 43, 36
1, 112103, Note_on_c, 0, 36, 58
1, 112163, Note_off_c, 0, 36, 61
1, 112183, Note_on_c, 0, 43, 49
1, 112285, Note_on_c, 0, 48, 52
1, 112292, Note_off_c, 0, 43, 50
1, 112375, Note_on_c, 0, 76, 69
1, 112379, Note_on_c, 0, 64, 54
1, 112380, Note_on_c, 0, 67, 54
1, 112384, Note_on_c, 0, 55, 50
1, 112406, Note_off_c, 0, 48, 59
1, 112444, Note_off_c, 0, 55, 58
1, 112478, Note_off_c, 0, 64, 64
1, 112531, Note_off_c, 0, 67, 63
1, 112544, Note_off_c, 0, 76, 57
1, 112644, Note_on_c, 0, 36, 52
1, 112693, Note_off_c, 0, 36, 61
1, 112713, Note_on_c, 0, 43, 57
1, 112792, Note_off_c, 0, 43, 59
1, 112854, Note_on_c, 0, 50, 36
1, 112876, Note_on_c, 0, 77, 72
1, 112880, Note_on_c, 0, 65, 67
1, 112907, Note_on_c, 0, 55, 62
1, 112914, Note_off_c, 0, 50, 56
1, 112945, Note_off_c, 0, 55, 63
1, 112967, Note_off_c, 0, 65, 62
1, 112984, Note_off_c, 0, 77, 60
1, 113189, Note_on_c, 0, 36, 46
1, 113232, Note_off_c, 0, 36, 62
1, 113258, Note_on_c, 0, 43, 47
1, 113366, Note_off_c, 0, 43, 56
1, 113393, Note_on_c, 0, 48, 41
1, 113520, Control_c, 0, 64, 114
1, 113530, Note_on_c, 0, 64, 46
1, 113530, Note_on_c, 0, 76, 57
1, 113533, Note_on_c, 0, 55, 47
1, 113535, Control_c, 0, 64, 89
1, 113536, Note_on_c, 0, 67, 44
1, 113546, Note_on_c, 0, 72, 53
1, 113549, Control_c, 0, 64, 70
1, 113564, Control_c, 0, 64, 0
1, 113608, Control_c, 0, 64, 28
1, 113623, Control_c, 0, 64, 60
1, 113638, Control_c, 0, 64, 68
1, 113653, Control_c, 0, 64, 78
1, 113668, Control_c, 0, 64, 92
1, 113682, Control_c, 0, 64, 104
1, 113697, Control_c, 0, 64, 109
1, 113712, Control_c, 0, 64, 118
1, 113727, Control_c, 0, 64, 127
1, 113735, Note_off_c, 0, 76, 59
1, 113742, Note_off_c, 0, 55, 40
1, 113780, Note_off_c, 0, 64, 43
1, 113802, Note_off_c, 0, 72, 59
1, 113847, Note_off_c, 0, 48, 44
1, 113880, Note_off_c, 0, 67, 36
1, 114197, Note_on_c, 0, 36, 38
1, 114338, Note_on_c, 0, 43, 33
1, 114354, Note_off_c, 0, 36, 34
1, 114487, Note_on_c, 0, 67, 51
1, 114490, Control_c, 0, 64, 111
1, 114493, Note_on_c, 0, 55, 42
1, 114496, Note_on_c, 0, 60, 40
1, 114499, Note_on_c, 0, 64, 45
1, 114500, Note_on_c, 0, 52, 42
1, 114504, Control_c, 0, 64, 90
1, 114519, Control_c, 0, 64, 73
1, 114534, Control_c, 0, 64, 48
1, 114549, Control_c, 0, 64, 0
1, 114586, Control_c, 0, 64, 49
1, 114601, Control_c, 0, 64, 63
1, 114616, Control_c, 0, 64, 70
1, 114630, Control_c, 0, 64, 81
1, 114645, Control_c, 0, 64, 94
1, 114660, Control_c, 0, 64, 102
1, 114675, Control_c, 0, 64, 106
1, 114690, Note_off_c, 0, 43, 33
1, 114690, Control_c, 0, 64, 111
1, 114692, Note_off_c, 0, 55, 43
1, 114704, Control_c, 0, 64, 113
1, 114719, Control_c, 0, 64, 114
1, 114734, Control_c, 0, 64, 115
1, 114749, Control_c, 0, 64, 115
1, 114763, Note_off_c, 0, 67, 52
1, 114779, Control_c, 0, 64, 116
1, 114805, Note_off_c, 0, 60, 34
1, 114824, Note_off_c, 0, 64, 41
1, 114838, Note_off_c, 0, 52, 37
1, 115271, Note_on_c, 0, 45, 53
1, 115273, Note_on_c, 0, 69, 38
1, 115274, Note_on_c, 0, 72, 69
1, 115278, Note_on_c, 0, 52, 45
1, 115279, Note_on_c, 0, 60, 44
1, 115280, Note_on_c, 0, 64, 49
1, 115288, Note_on_c, 0, 57, 44
1, 115335, Control_c, 0, 64, 108
1, 115350, Control_c, 0, 64, 90
1, 115365, Control_c, 0, 64, 73
1, 115379, Control_c, 0, 64, 0
1, 115424, Control_c, 0, 64, 34
1, 115439, Control_c, 0, 64, 61
1, 115453, Control_c, 0, 64, 69
1, 115458, Note_off_c, 0, 60, 53
1, 115468, Control_c, 0, 64, 81
1, 115483, Control_c, 0, 64, 98
1, 115497, Control_c, 0, 64, 109
1, 115512, Control_c, 0, 64, 119
1, 115518, Note_off_c, 0, 57, 32
1, 115527, Control_c, 0, 64, 127
1, 115534, Note_off_c, 0, 72, 58
1, 115569, Note_off_c, 0, 45, 58
1, 115572, Note_off_c, 0, 64, 56
1, 115582, Note_off_c, 0, 69, 49
1, 115719, Note_off_c, 0, 52, 59
1, 115858, Note_on_c, 0, 40, 51
1, 115897, Note_off_c, 0, 40, 55
1, 115993, Note_on_c, 0, 52, 57
1, 116158, Note_on_c, 0, 76, 68
1, 116168, Note_on_c, 0, 64, 51
1, 116181, Note_on_c, 0, 67, 43
1, 116182, Note_on_c, 0, 59, 49
1, 116182, Note_on_c, 0, 71, 54
1, 116188, Control_c, 0, 64, 97
1, 116202, Control_c, 0, 64, 78
1, 116217, Control_c, 0, 64, 59
1, 116232, Control_c, 0, 64, 0
1, 116262, Control_c, 0, 64, 33
1, 116276, Control_c, 0, 64, 63
1, 116291, Control_c, 0, 64, 71
1, 116306, Control_c, 0, 64, 83
1, 116320, Control_c, 0, 64, 98
1, 116328, Note_off_c, 0, 59, 50
1, 116335, Control_c, 0, 64, 106
1, 116350, Control_c, 0, 64, 111
1, 116365, Control_c, 0, 64, 117
1, 116380, Control_c, 0, 64, 126
1, 116394, Control_c, 0, 64, 127
1, 116399, Note_off_c, 0, 52, 49
1, 116434, Note_off_c, 0, 76, 54
1, 116455, Note_off_c, 0, 67, 61
1, 116463, Note_off_c, 0, 71, 62
1, 116566, Note_off_c, 0, 64, 43
1, 116758, Note_on_c, 0, 36, 43
1, 116831, Note_off_c, 0, 36, 58
1, 116873, Note_on_c, 0, 43, 33
1, 116938, Note_on_c, 0, 64, 41
1, 116976, Note_on_c, 0, 48, 50
1, 116976, Note_off_c, 0, 43, 46
1, 116991, Note_off_c, 0, 64, 52
1, 117042, Note_off_c, 0, 48, 56
1, 117045, Note_on_c, 0, 72, 63
1, 117079, Note_on_c, 0, 52, 42
1, 117131, Note_on_c, 0, 76, 63
1, 117134, Note_off_c, 0, 52, 56
1, 117204, Control_c, 0, 64, 124
1, 117218, Control_c, 0, 64, 122
1, 117225, Note_on_c, 0, 55, 41
1, 117233, Control_c, 0, 64, 121
1, 117248, Control_c, 0, 64, 120
1, 117263, Control_c, 0, 64, 119
1, 117277, Control_c, 0, 64, 117
1, 117292, Control_c, 0, 64, 116
1, 117307, Control_c, 0, 64, 115
1, 117322, Control_c, 0, 64, 113
1, 117337, Control_c, 0, 64, 112
1, 117351, Control_c, 0, 64, 110
1, 117366, Control_c, 0, 64, 109
1, 117381, Control_c, 0, 64, 107
1, 117396, Control_c, 0, 64, 103
1, 117411, Control_c, 0, 64, 97
1, 117426, Control_c, 0, 64, 90
1, 117441, Control_c, 0, 64, 84
1, 117445, Note_on_c, 0, 60, 40
1, 117456, Control_c, 0, 64, 76
1, 117471, Control_c, 0, 64, 65
1, 117486, Control_c, 0, 64, 52
1, 117498, Note_on_c, 0, 79, 66
1, 117515, Control_c, 0, 64, 53
1, 117530, Control_c, 0, 64, 55
1, 117545, Control_c, 0, 64, 57
1, 117560, Control_c, 0, 64, 59
1, 117582, Control_c, 0, 64, 63
1, 117597, Control_c, 0, 64, 65
1, 117612, Control_c, 0, 64, 69
1, 117627, Control_c, 0, 64, 76
1, 117642, Control_c, 0, 64, 86
1, 117656, Control_c, 0, 64, 93
1, 117671, Control_c, 0, 64, 96
1, 117686, Control_c, 0, 64, 98
1, 117700, Control_c, 0, 64, 100
1, 117715, Control_c, 0, 64, 101
1, 117730, Control_c, 0, 64, 103
1, 117745, Control_c, 0, 64, 104
1, 117760, Control_c, 0, 64, 105
1, 117774, Control_c, 0, 64, 108
1, 117789, Control_c, 0, 64, 110
1, 117792, Note_off_c, 0, 79, 52
1, 117804, Control_c, 0, 64, 113
1, 117819, Control_c, 0, 64, 116
1, 117834, Control_c, 0, 64, 122
1, 117837, Note_off_c, 0, 76, 32
1, 117849, Control_c, 0, 64, 127
1, 117862, Note_off_c, 0, 72, 34
1, 117910, Note_off_c, 0, 60, 27
1, 118042, Note_off_c, 0, 55, 34
1, 118808, Note_on_c, 0, 40, 45
1, 118865, Note_off_c, 0, 40, 55
1, 118915, Note_on_c, 0, 47, 44
1, 119058, Note_on_c, 0, 64, 50
1, 119060, Note_on_c, 0, 76, 58
1, 119071, Note_on_c, 0, 68, 45
1, 119079, Control_c, 0, 64, 118
1, 119080, Note_on_c, 0, 71, 47
1, 119086, Note_on_c, 0, 56, 40
1, 119094, Control_c, 0, 64, 92
1, 119109, Control_c, 0, 64, 73
1, 119124, Control_c, 0, 64, 48
1, 119139, Control_c, 0, 64, 0
1, 119168, Control_c, 0, 64, 58
1, 119183, Control_c, 0, 64, 67
1, 119198, Control_c, 0, 64, 76
1, 119213, Control_c, 0, 64, 90
1, 119227, Control_c, 0, 64, 103
1, 119242, Control_c, 0, 64, 109
1, 119257, Control_c, 0, 64, 115
1, 119259, Note_off_c, 0, 76, 56
1, 119271, Control_c, 0, 64, 126
1, 119277, Note_off_c, 0, 56, 37
1, 119286, Control_c, 0, 64, 127
1, 119289, Note_off_c, 0, 71, 56
1, 119292, Note_off_c, 0, 47, 31
1, 119298, Note_off_c, 0, 64, 55
1, 119381, Note_off_c, 0, 68, 35
1, 119834, Note_on_c, 0, 41, 40
1, 119835, Note_on_c, 0, 69, 43
1, 119841, Note_on_c, 0, 74, 55
1, 119843, Control_c, 0, 64, 107
1, 119850, Note_on_c, 0, 60, 39
1, 119853, Note_on_c, 0, 62, 35
1, 119858, Control_c, 0, 64, 88
1, 119862, Note_on_c, 0, 50, 34
1, 119873, Control_c, 0, 64, 68
1, 119888, Control_c, 0, 64, 15
1, 119903, Control_c, 0, 64, 0
1, 119918, Control_c, 0, 64, 45
1, 119933, Control_c, 0, 64, 63
1, 119948, Control_c, 0, 64, 70
1, 119962, Control_c, 0, 64, 83
1, 119977, Control_c, 0, 64, 103
1, 119992, Control_c, 0, 64, 114
1, 120007, Control_c, 0, 64, 121
1, 120017, Note_off_c, 0, 41, 36
1, 120022, Control_c, 0, 64, 127
1, 120028, Note_off_c, 0, 69, 53
1, 120029, Note_off_c, 0, 74, 58
1, 120103, Note_off_c, 0, 62, 39
1, 120120, Note_off_c, 0, 50, 38
1, 120123, Note_off_c, 0, 60, 42
1, 120448, Note_on_c, 0, 67, 49
1, 120456, Note_on_c, 0, 59, 35
1, 120457, Note_on_c, 0, 43, 33
1, 120488, Note_off_c, 0, 59, 52
1, 120492, Note_on_c, 0, 50, 21
1, 120493, Note_on_c, 0, 55, 21
1, 120505, Poly_aftertouch_c, 0, 65, 127
1, 120527, Note_off_c, 0, 67, 57
1, 120542, Poly_aftertouch_c, 0, 65, 0
1, 120597, Note_on_c, 0, 59, 52
1, 120651, Note_off_c, 0, 59, 58
1, 120697, Note_on_c, 0, 65, 43
1, 120771, Note_on_c, 0, 67, 44
1, 120904, Control_c, 0, 64, 119
1, 120916, Note_on_c, 0, 74, 49
1, 120918, Control_c, 0, 64, 105
1, 120933, Control_c, 0, 64, 91
1, 120948, Control_c, 0, 64, 78
1, 120963, Control_c, 0, 64, 66
1, 120978, Control_c, 0, 64, 62
1, 120992, Control_c, 0, 64, 64
1, 121007, Control_c, 0, 64, 67
1, 121022, Control_c, 0, 64, 71
1, 121036, Control_c, 0, 64, 81
1, 121051, Control_c, 0, 64, 96
1, 121066, Control_c, 0, 64, 110
1, 121081, Control_c, 0, 64, 116
1, 121088, Note_off_c, 0, 55, 41
1, 121096, Control_c, 0, 64, 127
1, 121167, Note_off_c, 0, 50, 41
1, 121350, Note_off_c, 0, 43, 41
1, 121747, Note_off_c, 0, 74, 25
1, 121755, Note_on_c, 0, 31, 36
1, 121907, Note_off_c, 0, 31, 32
1, 122035, Note_off_c, 0, 65, 43
1, 122415, Note_on_c, 0, 36, 39
1, 122464, Note_off_c, 0, 36, 57
1, 122516, Note_on_c, 0, 43, 33
1, 122651, Note_on_c, 0, 48, 40
1, 122700, Note_off_c, 0, 43, 39
1, 122857, Note_off_c, 0, 67, 53
1, 122885, Note_on_c, 0, 64, 33
1, 122887, Note_on_c, 0, 72, 50
1, 122893, Note_on_c, 0, 60, 36
1, 122896, Note_on_c, 0, 55, 33
1, 122912, Control_c, 0, 64, 124
1, 122927, Control_c, 0, 64, 103
1, 122941, Control_c, 0, 64, 87
1, 122956, Control_c, 0, 64, 68
1, 122971, Control_c, 0, 64, 30
1, 122986, Control_c, 0, 64, 0
1, 123001, Control_c, 0, 64, 33
1, 123015, Control_c, 0, 64, 53
1, 123030, Control_c, 0, 64, 62
1, 123046, Control_c, 0, 64, 66
1, 123061, Control_c, 0, 64, 72
1, 123076, Control_c, 0, 64, 80
1, 123091, Control_c, 0, 64, 89
1, 123106, Control_c, 0, 64, 93
1, 123120, Control_c, 0, 64, 95
1, 123135, Control_c, 0, 64, 97
1, 123150, Control_c, 0, 64, 98
1, 123164, Control_c, 0, 64, 101
1, 123179, Control_c, 0, 64, 104
1, 123194, Control_c, 0, 64, 107
1, 123209, Control_c, 0, 64, 111
1, 123224, Control_c, 0, 64, 116
1, 123238, Control_c, 0, 64, 126
1, 123253, Control_c, 0, 64, 127
1, 123289, Note_off_c, 0, 60, 34
1, 123338, Note_off_c, 0, 48, 36
1, 123391, Note_off_c, 0, 72, 40
1, 123548, Note_off_c, 0, 64, 40
1, 123738, Note_off_c, 0, 55, 31
1, 124038, Note_on_c, 0, 41, 39
1, 124081, Note_off_c, 0, 41, 60
1, 124094, Note_on_c, 0, 48, 57
1, 124208, Note_on_c, 0, 53, 60
1, 124236, Note_off_c, 0, 48, 56
1, 124350, Note_on_c, 0, 81, 81
1, 124353, Note_on_c, 0, 72, 59
1, 124357, Note_on_c, 0, 69, 57
1, 124369, Note_on_c, 0, 60, 54
1, 124440, Control_c, 0, 64, 116
1, 124455, Control_c, 0, 64, 96
1, 124469, Control_c, 0, 64, 81
1, 124484, Control_c, 0, 64, 70
1, 124499, Control_c, 0, 64, 63
1, 124528, Control_c, 0, 64, 65
1, 124543, Control_c, 0, 64, 69
1, 124558, Control_c, 0, 64, 76
1, 124573, Control_c, 0, 64, 90
1, 124587, Control_c, 0, 64, 105
1, 124602, Control_c, 0, 64, 127
1, 124754, Note_off_c, 0, 60, 35
1, 124790, Note_off_c, 0, 53, 38
1, 124859, Note_off_c, 0, 81, 56
1, 124944, Note_off_c, 0, 69, 40
1, 125068, Note_off_c, 0, 72, 37
1, 125503, Note_on_c, 0, 40, 48
1, 125569, Note_off_c, 0, 40, 55
1, 125596, Note_on_c, 0, 48, 52
1, 125705, Note_on_c, 0, 79, 76
1, 125716, Note_on_c, 0, 67, 53
1, 125717, Note_on_c, 0, 72, 55
1, 125718, Note_on_c, 0, 55, 57
1, 125766, Control_c, 0, 64, 94
1, 125781, Control_c, 0, 64, 75
1, 125796, Control_c, 0, 64, 63
1, 125819, Control_c, 0, 64, 58
1, 125833, Control_c, 0, 64, 63
1, 125848, Control_c, 0, 64, 69
1, 125863, Control_c, 0, 64, 86
1, 125878, Control_c, 0, 64, 127
1, 125950, Note_off_c, 0, 55, 56
1, 126101, Note_off_c, 0, 79, 61
1, 126142, Note_off_c, 0, 48, 41
1, 126145, Note_off_c, 0, 72, 59
1, 126145, Note_off_c, 0, 67, 55
1, 126202, Note_on_c, 0, 39, 56
1, 126236, Note_off_c, 0, 39, 64
1, 126285, Note_on_c, 0, 48, 50
1, 126449, Note_on_c, 0, 81, 82
1, 126453, Note_on_c, 0, 57, 53
1, 126460, Note_on_c, 0, 72, 55
1, 126478, Note_on_c, 0, 67, 47
1, 126478, Note_on_c, 0, 69, 41
1, 126515, Control_c, 0, 64, 97
1, 126530, Control_c, 0, 64, 77
1, 126545, Control_c, 0, 64, 63
1, 126568, Control_c, 0, 64, 55
1, 126582, Control_c, 0, 64, 64
1, 126597, Control_c, 0, 64, 70
1, 126612, Control_c, 0, 64, 86
1, 126627, Control_c, 0, 64, 119
1, 126637, Note_off_c, 0, 57, 53
1, 126642, Control_c, 0, 64, 127
1, 126652, Note_off_c, 0, 67, 37
1, 126684, Note_off_c, 0, 69, 36
1, 126741, Note_off_c, 0, 81, 66
1, 126753, Note_off_c, 0, 48, 55
1, 126786, Note_off_c, 0, 72, 63
1, 126925, Note_on_c, 0, 38, 48
1, 126976, Note_off_c, 0, 38, 62
1, 126996, Note_on_c, 0, 45, 57
1, 127105, Note_off_c, 0, 45, 55
1, 127120, Note_on_c, 0, 50, 43
1, 127263, Note_on_c, 0, 78, 67
1, 127269, Note_on_c, 0, 57, 45
1, 127273, Note_on_c, 0, 66, 47
1, 127276, Note_on_c, 0, 74, 46
1, 127279, Control_c, 0, 64, 117
1, 127281, Note_on_c, 0, 69, 43
1, 127294, Control_c, 0, 64, 88
1, 127316, Control_c, 0, 64, 67
1, 127331, Control_c, 0, 64, 0
1, 127361, Control_c, 0, 64, 54
1, 127376, Control_c, 0, 64, 65
1, 127391, Control_c, 0, 64, 74
1, 127405, Control_c, 0, 64, 92
1, 127420, Control_c, 0, 64, 127
1, 127483, Note_off_c, 0, 78, 57
1, 127508, Note_off_c, 0, 57, 28
1, 127510, Note_off_c, 0, 74, 54
1, 127543, Note_off_c, 0, 66, 55
1, 127558, Note_off_c, 0, 69, 30
1, 127569, Note_off_c, 0, 50, 39
1, 127993, Note_on_c, 0, 42, 27
1, 128013, Note_on_c, 0, 50, 38
1, 128019, Note_on_c, 0, 69, 37
1, 128027, Control_c, 0, 64, 98
1, 128029, Note_on_c, 0, 74, 38
1, 128035, Note_on_c, 0, 60, 35
1, 128036, Note_on_c, 0, 62, 26
1, 128042, Control_c, 0, 64, 78
1, 128065, Control_c, 0, 64, 66
1, 128079, Control_c, 0, 64, 63
1, 128094, Control_c, 0, 64, 65
1, 128109, Control_c, 0, 64, 69
1, 128124, Control_c, 0, 64, 78
1, 128139, Control_c, 0, 64, 95
1, 128154, Control_c, 0, 64, 127
1, 128217, Note_off_c, 0, 50, 40
1, 128229, Note_off_c, 0, 42, 42
1, 128241, Note_off_c, 0, 60, 38
1, 128261, Note_off_c, 0, 62, 36
1, 128279, Note_off_c, 0, 74, 41
1, 128290, Note_off_c, 0, 69, 41
1, 128556, Note_on_c, 0, 70, 65
1, 128558, Note_on_c, 0, 74, 56
1, 128577, Note_on_c, 0, 42, 44
1, 128582, Note_on_c, 0, 50, 42
1, 128633, Note_off_c, 0, 70, 56
1, 128639, Note_off_c, 0, 50, 54
1, 128649, Note_off_c, 0, 74, 53
1, 128694, Note_off_c, 0, 42, 56
1, 128778, Note_on_c, 0, 74, 67
1, 128780, Note_on_c, 0, 71, 61
1, 128784, Note_on_c, 0, 62, 54
1, 128786, Note_on_c, 0, 50, 43
1, 128805, Note_on_c, 0, 43, 44
1, 128828, Control_c, 0, 64, 104
1, 128843, Control_c, 0, 64, 83
1, 128857, Control_c, 0, 64, 59
1, 128872, Control_c, 0, 64, 0
1, 128916, Control_c, 0, 64, 53
1, 128931, Control_c, 0, 64, 67
1, 128946, Control_c, 0, 64, 79
1, 128961, Control_c, 0, 64, 95
1, 128976, Control_c, 0, 64, 111
1, 128990, Control_c, 0, 64, 127
1, 129033, Note_off_c, 0, 62, 57
1, 129050, Note_off_c, 0, 74, 60
1, 129058, Note_off_c, 0, 43, 58
1, 129082, Note_off_c, 0, 50, 61
1, 129104, Note_off_c, 0, 71, 61
1, 129282, Note_on_c, 0, 45, 57
1, 129327, Note_off_c, 0, 45, 55
1, 129366, Note_on_c, 0, 50, 56
1, 129513, Note_on_c, 0, 74, 74
1, 129518, Note_on_c, 0, 60, 56
1, 129518, Note_on_c, 0, 62, 59
1, 129519, Note_on_c, 0, 66, 66
1, 129562, Control_c, 0, 64, 109
1, 129577, Control_c, 0, 64, 87
1, 129592, Control_c, 0, 64, 70
1, 129606, Control_c, 0, 64, 45
1, 129621, Control_c, 0, 64, 39
1, 129636, Control_c, 0, 64, 59
1, 129650, Control_c, 0, 64, 68
1, 129665, Control_c, 0, 64, 79
1, 129680, Control_c, 0, 64, 101
1, 129695, Control_c, 0, 64, 127
1, 129696, Note_off_c, 0, 62, 61
1, 129731, Note_off_c, 0, 60, 37
1, 129785, Note_off_c, 0, 74, 63
1, 129808, Note_off_c, 0, 66, 63
1, 129826, Note_off_c, 0, 50, 0
1, 129863, Poly_aftertouch_c, 0, 50, 127
1, 129966, Poly_aftertouch_c, 0, 50, 0
1, 129983, Note_on_c, 0, 43, 60
1, 130048, Note_off_c, 0, 43, 62
1, 130067, Note_on_c, 0, 50, 64
1, 130185, Note_on_c, 0, 55, 57
1, 130395, Note_on_c, 0, 83, 78
1, 130404, Note_on_c, 0, 62, 39
1, 130405, Note_on_c, 0, 71, 54
1, 130406, Note_on_c, 0, 74, 55
1, 130444, Control_c, 0, 64, 98
1, 130459, Control_c, 0, 64, 76
1, 130473, Control_c, 0, 64, 54
1, 130488, Control_c, 0, 64, 0
1, 130607, Control_c, 0, 64, 42
1, 130622, Control_c, 0, 64, 63
1, 130637, Control_c, 0, 64, 67
1, 130652, Control_c, 0, 64, 72
1, 130667, Control_c, 0, 64, 78
1, 130681, Control_c, 0, 64, 82
1, 130696, Control_c, 0, 64, 85
1, 130711, Control_c, 0, 64, 88
1, 130726, Control_c, 0, 64, 90
1, 130741, Control_c, 0, 64, 93
1, 130755, Control_c, 0, 64, 97
1, 130770, Control_c, 0, 64, 101
1, 130785, Control_c, 0, 64, 105
1, 130799, Control_c, 0, 64, 109
1, 130807, Note_off_c, 0, 62, 30
1, 130814, Control_c, 0, 64, 114
1, 130829, Control_c, 0, 64, 124
1, 130844, Control_c, 0, 64, 127
1, 130879, Note_off_c, 0, 50, 40
1, 130899, Note_off_c, 0, 55, 35
1, 131104, Note_off_c, 0, 83, 39
1, 131135, Note_off_c, 0, 71, 37
1, 131188, Note_off_c, 0, 74, 50
1, 131388, Note_on_c, 0, 42, 57
1, 131472, Note_off_c, 0, 42, 63
1, 131487, Note_on_c, 0, 50, 56
1, 131594, Note_on_c, 0, 81, 80
1, 131596, Note_on_c, 0, 69, 62
1, 131606, Note_on_c, 0, 74, 53
1, 131620, Note_on_c, 0, 57, 60
1, 131622, Control_c, 0, 64, 114
1, 131637, Control_c, 0, 64, 88
1, 131652, Control_c, 0, 64, 71
1, 131667, Control_c, 0, 64, 48
1, 131682, Control_c, 0, 64, 41
1, 131696, Control_c, 0, 64, 60
1, 131711, Control_c, 0, 64, 66
1, 131726, Control_c, 0, 64, 76
1, 131741, Control_c, 0, 64, 97
1, 131756, Control_c, 0, 64, 127
1, 131803, Note_off_c, 0, 57, 59
1, 131862, Note_off_c, 0, 50, 56
1, 131909, Note_off_c, 0, 69, 60
1, 131931, Note_off_c, 0, 74, 64
1, 131945, Note_off_c, 0, 81, 64
1, 132052, Note_on_c, 0, 41, 59
1, 132134, Note_off_c, 0, 41, 59
1, 132137, Note_on_c, 0, 47, 60
1, 132228, Note_on_c, 0, 51, 58
1, 132259, Note_off_c, 0, 47, 59
1, 132331, Note_on_c, 0, 83, 79
1, 132339, Note_on_c, 0, 75, 52
1, 132345, Note_on_c, 0, 59, 53
1, 132352, Note_on_c, 0, 71, 53
1, 132357, Note_on_c, 0, 69, 58
1, 132357, Control_c, 0, 64, 104
1, 132371, Control_c, 0, 64, 83
1, 132386, Control_c, 0, 64, 66
1, 132401, Control_c, 0, 64, 0
1, 132431, Control_c, 0, 64, 55
1, 132445, Control_c, 0, 64, 66
1, 132460, Control_c, 0, 64, 78
1, 132475, Control_c, 0, 64, 99
1, 132490, Control_c, 0, 64, 127
1, 132515, Note_off_c, 0, 69, 53
1, 132527, Note_off_c, 0, 59, 35
1, 132536, Note_off_c, 0, 71, 56
1, 132596, Note_off_c, 0, 83, 65
1, 132677, Note_off_c, 0, 75, 56
1, 132689, Note_off_c, 0, 51, 53
1, 132870, Note_on_c, 0, 40, 43
1, 132935, Note_off_c, 0, 40, 56
1, 132969, Note_on_c, 0, 47, 48
1, 133110, Note_on_c, 0, 52, 43
1, 133350, Note_on_c, 0, 80, 59
1, 133352, Note_on_c, 0, 68, 40
1, 133353, Note_on_c, 0, 76, 47
1, 133361, Note_on_c, 0, 71, 44
1, 133365, Note_on_c, 0, 59, 40
1, 133394, Control_c, 0, 64, 110
1, 133409, Control_c, 0, 64, 94
1, 133424, Control_c, 0, 64, 79
1, 133439, Control_c, 0, 64, 61
1, 133454, Control_c, 0, 64, 0
1, 133529, Control_c, 0, 64, 15
1, 133543, Control_c, 0, 64, 48
1, 133558, Control_c, 0, 64, 60
1, 133573, Control_c, 0, 64, 65
1, 133588, Control_c, 0, 64, 69
1, 133603, Control_c, 0, 64, 75
1, 133618, Control_c, 0, 64, 82
1, 133632, Control_c, 0, 64, 86
1, 133647, Control_c, 0, 64, 88
1, 133662, Control_c, 0, 64, 91
1, 133677, Control_c, 0, 64, 95
1, 133692, Control_c, 0, 64, 100
1, 133706, Control_c, 0, 64, 105
1, 133721, Control_c, 0, 64, 112
1, 133736, Control_c, 0, 64, 127
1, 133806, Note_off_c, 0, 59, 35
1, 133967, Note_off_c, 0, 47, 36
1, 134167, Note_off_c, 0, 68, 41
1, 134235, Note_off_c, 0, 52, 32
1, 134286, Note_off_c, 0, 76, 37
1, 134311, Note_off_c, 0, 80, 42
1, 134345, Note_off_c, 0, 71, 33
1, 134861, Note_on_c, 0, 40, 33
1, 134990, Note_on_c, 0, 47, 39
1, 134994, Note_off_c, 0, 40, 35
1, 135150, Note_on_c, 0, 52, 33
1, 135180, Note_off_c, 0, 47, 39
1, 135346, Note_on_c, 0, 59, 28
1, 135348, Note_on_c, 0, 76, 36
1, 135348, Note_on_c, 0, 79, 47
1, 135354, Note_on_c, 0, 67, 26
1, 135355, Note_on_c, 0, 71, 28
1, 135382, Control_c, 0, 64, 119
1, 135396, Control_c, 0, 64, 99
1, 135411, Control_c, 0, 64, 87
1, 135426, Control_c, 0, 64, 76
1, 135441, Control_c, 0, 64, 66
1, 135456, Control_c, 0, 64, 63
1, 135470, Control_c, 0, 64, 64
1, 135485, Control_c, 0, 64, 67
1, 135500, Control_c, 0, 64, 71
1, 135514, Control_c, 0, 64, 80
1, 135529, Control_c, 0, 64, 95
1, 135552, Control_c, 0, 64, 103
1, 135567, Control_c, 0, 64, 107
1, 135582, Control_c, 0, 64, 111
1, 135596, Control_c, 0, 64, 114
1, 135611, Control_c, 0, 64, 117
1, 135626, Control_c, 0, 64, 119
1, 135641, Control_c, 0, 64, 121
1, 135656, Control_c, 0, 64, 126
1, 135659, Note_off_c, 0, 59, 37
1, 135670, Control_c, 0, 64, 127
1, 135673, Note_off_c, 0, 76, 39
1, 135678, Note_off_c, 0, 67, 38
1, 135694, Note_off_c, 0, 79, 30
1, 135697, Note_off_c, 0, 52, 31
1, 135779, Note_off_c, 0, 71, 37
1, 136157, Note_on_c, 0, 43, 29
1, 136196, Note_on_c, 0, 50, 26
1, 136212, Note_on_c, 0, 79, 45
1, 136226, Note_on_c, 0, 74, 35
1, 136235, Control_c, 0, 64, 122
1, 136241, Note_on_c, 0, 65, 19
1, 136245, Note_on_c, 0, 67, 17
1, 136250, Control_c, 0, 64, 101
1, 136265, Control_c, 0, 64, 86
1, 136280, Control_c, 0, 64, 72
1, 136301, Control_c, 0, 64, 59
1, 136316, Control_c, 0, 64, 47
1, 136331, Control_c, 0, 64, 56
1, 136346, Control_c, 0, 64, 63
1, 136360, Control_c, 0, 64, 65
1, 136373, Note_off_c, 0, 65, 32
1, 136375, Control_c, 0, 64, 70
1, 136390, Control_c, 0, 64, 77
1, 136405, Control_c, 0, 64, 87
1, 136420, Control_c, 0, 64, 94
1, 136424, Note_off_c, 0, 67, 24
1, 136435, Control_c, 0, 64, 97
1, 136441, Note_off_c, 0, 50, 0
1, 136450, Control_c, 0, 64, 100
1, 136465, Control_c, 0, 64, 103
1, 136479, Poly_aftertouch_c, 0, 50, 127
1, 136480, Control_c, 0, 64, 104
1, 136494, Control_c, 0, 64, 106
1, 136509, Control_c, 0, 64, 108
1, 136524, Control_c, 0, 64, 109
1, 136539, Control_c, 0, 64, 111
1, 136553, Control_c, 0, 64, 112
1, 136568, Control_c, 0, 64, 113
1, 136583, Control_c, 0, 64, 113
1, 136598, Control_c, 0, 64, 114
1, 136614, Control_c, 0, 64, 114
1, 136635, Note_on_c, 0, 77, 51
1, 136664, Poly_aftertouch_c, 0, 50, 0
1, 136711, Note_off_c, 0, 74, 40
1, 136711, Note_off_c, 0, 79, 37
1, 136779, Note_off_c, 0, 43, 41
1, 136894, Control_c, 0, 64, 115
1, 136948, Note_off_c, 0, 77, 46
1, 136968, Control_c, 0, 64, 115
1, 136994, Note_on_c, 0, 76, 39
1, 137028, Note_off_c, 0, 76, 51
1, 137138, Control_c, 0, 64, 116
1, 137216, Note_on_c, 0, 36, 35
1, 137293, Note_off_c, 0, 36, 51
1, 137308, Note_on_c, 0, 64, 32
1, 137359, Note_off_c, 0, 64, 50
1, 137362, Note_on_c, 0, 43, 31
1, 137421, Note_on_c, 0, 72, 46
1, 137507, Note_on_c, 0, 76, 42
1, 137539, Note_on_c, 0, 48, 32
1, 137563, Note_off_c, 0, 43, 27
1, 137717, Control_c, 0, 64, 114
1, 137730, Note_on_c, 0, 55, 27
1, 137732, Control_c, 0, 64, 104
1, 137747, Control_c, 0, 64, 95
1, 137761, Control_c, 0, 64, 87
1, 137771, Note_on_c, 0, 79, 52
1, 137776, Control_c, 0, 64, 79
1, 137798, Control_c, 0, 64, 72
1, 137813, Control_c, 0, 64, 69
1, 137828, Control_c, 0, 64, 70
1, 137843, Control_c, 0, 64, 72
1, 137858, Control_c, 0, 64, 73
1, 137872, Control_c, 0, 64, 73
1, 137887, Control_c, 0, 64, 75
1, 137902, Control_c, 0, 64, 79
1, 137916, Control_c, 0, 64, 86
1, 137931, Control_c, 0, 64, 94
1, 137946, Control_c, 0, 64, 99
1, 137961, Control_c, 0, 64, 105
1, 137976, Control_c, 0, 64, 110
1, 137991, Control_c, 0, 64, 115
1, 138006, Control_c, 0, 64, 119
1, 138021, Control_c, 0, 64, 122
1, 138036, Control_c, 0, 64, 126
1, 138051, Control_c, 0, 64, 127
1, 138099, Note_off_c, 0, 79, 39
1, 138141, Note_off_c, 0, 76, 35
1, 138180, Note_off_c, 0, 72, 39
1, 138209, Note_off_c, 0, 55, 31
1, 138709, Note_off_c, 0, 48, 39
1, 138978, Note_on_c, 0, 36, 45
1, 139040, Note_off_c, 0, 36, 57
1, 139093, Note_on_c, 0, 43, 37
1, 139331, Note_on_c, 0, 79, 50
1, 139347, Note_on_c, 0, 67, 26
1, 139347, Note_on_c, 0, 71, 29
1, 139351, Note_on_c, 0, 65, 29
1, 139356, Note_on_c, 0, 74, 27
1, 139359, Note_on_c, 0, 55, 29
1, 139361, Note_on_c, 0, 53, 30
1, 139525, Note_off_c, 0, 43, 29
1, 139533, Note_off_c, 0, 55, 36
1, 139535, Note_off_c, 0, 65, 41
1, 139544, Note_off_c, 0, 53, 33
1, 139544, Note_off_c, 0, 79, 36
1, 139558, Note_off_c, 0, 67, 41
1, 139639, Note_off_c, 0, 74, 41
1, 139657, Note_off_c, 0, 71, 40
1, 139827, Note_on_c, 0, 36, 53
1, 139875, Note_off_c, 0, 36, 60
1, 139904, Note_on_c, 0, 43, 49
1, 140009, Note_off_c, 0, 43, 55
1, 140010, Note_on_c, 0, 48, 52
1, 140100, Note_on_c, 0, 79, 66
1, 140104, Note_on_c, 0, 76, 50
1, 140110, Note_on_c, 0, 55, 47
1, 140126, Note_on_c, 0, 67, 38
1, 140128, Note_on_c, 0, 65, 43
1, 140141, Note_off_c, 0, 48, 55
1, 140158, Note_off_c, 0, 55, 60
1, 140224, Note_off_c, 0, 76, 56
1, 140235, Note_off_c, 0, 65, 37
1, 140259, Note_off_c, 0, 67, 34
1, 140279, Note_off_c, 0, 79, 51
1, 140331, Note_on_c, 0, 36, 56
1, 140370, Note_off_c, 0, 36, 61
1, 140405, Note_on_c, 0, 43, 47
1, 140455, Note_off_c, 0, 43, 52
1, 140498, Note_on_c, 0, 50, 47
1, 140561, Note_on_c, 0, 79, 64
1, 140568, Note_on_c, 0, 77, 60
1, 140585, Note_on_c, 0, 65, 39
1, 140586, Note_on_c, 0, 55, 54
1, 140593, Note_off_c, 0, 50, 61
1, 140594, Note_on_c, 0, 67, 40
1, 140632, Note_off_c, 0, 55, 58
1, 140697, Note_off_c, 0, 65, 38
1, 140698, Note_off_c, 0, 67, 37
1, 140760, Note_off_c, 0, 77, 53
1, 140771, Note_off_c, 0, 79, 53
1, 140808, Note_on_c, 0, 36, 55
1, 140845, Note_off_c, 0, 36, 64
1, 140894, Note_on_c, 0, 43, 45
1, 141005, Note_off_c, 0, 43, 54
1, 141029, Note_on_c, 0, 48, 40
1, 141180, Control_c, 0, 64, 126
1, 141195, Control_c, 0, 64, 96
1, 141201, Note_on_c, 0, 55, 41
1, 141202, Note_on_c, 0, 76, 47
1, 141202, Note_on_c, 0, 79, 58
1, 141206, Note_on_c, 0, 72, 48
1, 141209, Control_c, 0, 64, 77
1, 141224, Control_c, 0, 64, 56
1, 141239, Control_c, 0, 64, 0
1, 141254, Control_c, 0, 64, 34
1, 141268, Control_c, 0, 64, 57
1, 141283, Control_c, 0, 64, 65
1, 141298, Control_c, 0, 64, 72
1, 141313, Control_c, 0, 64, 85
1, 141328, Control_c, 0, 64, 111
1, 141342, Control_c, 0, 64, 127
1, 141380, Note_off_c, 0, 79, 58
1, 141389, Note_off_c, 0, 55, 50
1, 141470, Note_off_c, 0, 48, 47
1, 141494, Note_off_c, 0, 76, 35
1, 141508, Note_off_c, 0, 72, 43
1, 141815, Note_on_c, 0, 36, 41
1, 141897, Note_off_c, 0, 36, 59
1, 141924, Note_on_c, 0, 43, 37
1, 142096, Note_on_c, 0, 67, 49
1, 142099, Note_on_c, 0, 60, 40
1, 142099, Note_on_c, 0, 52, 42
1, 142100, Note_on_c, 0, 55, 42
1, 142100, Note_on_c, 0, 64, 47
1, 142120, Control_c, 0, 64, 101
1, 142135, Control_c, 0, 64, 82
1, 142150, Control_c, 0, 64, 66
1, 142164, Control_c, 0, 64, 50
1, 142179, Control_c, 0, 64, 56
1, 142194, Control_c, 0, 64, 63
1, 142210, Control_c, 0, 64, 67
1, 142224, Control_c, 0, 64, 76
1, 142238, Note_off_c, 0, 43, 32
1, 142239, Control_c, 0, 64, 90
1, 142254, Control_c, 0, 64, 103
1, 142269, Control_c, 0, 64, 109
1, 142292, Control_c, 0, 64, 114
1, 142303, Note_off_c, 0, 55, 41
1, 142306, Control_c, 0, 64, 121
1, 142321, Control_c, 0, 64, 127
1, 142376, Note_off_c, 0, 67, 36
1, 142386, Note_off_c, 0, 60, 37
1, 142395, Note_off_c, 0, 64, 48
1, 142403, Note_off_c, 0, 52, 44
1, 142918, Note_on_c, 0, 72, 69
1, 142920, Note_on_c, 0, 69, 50
1, 142922, Note_on_c, 0, 60, 48
1, 142922, Note_on_c, 0, 64, 50
1, 142923, Note_on_c, 0, 45, 51
1, 142931, Note_on_c, 0, 57, 46
1, 142936, Note_on_c, 0, 52, 47
1, 142973, Control_c, 0, 64, 106
1, 142988, Control_c, 0, 64, 88
1, 143004, Control_c, 0, 64, 71
1, 143019, Control_c, 0, 64, 51
1, 143041, Control_c, 0, 64, 46
1, 143056, Control_c, 0, 64, 58
1, 143070, Control_c, 0, 64, 64
1, 143085, Control_c, 0, 64, 68
1, 143100, Control_c, 0, 64, 75
1, 143115, Control_c, 0, 64, 90
1, 143130, Control_c, 0, 64, 113
1, 143145, Control_c, 0, 64, 127
1, 143279, Note_off_c, 0, 57, 35
1, 143288, Note_off_c, 0, 45, 56
1, 143292, Note_off_c, 0, 60, 33
1, 143306, Note_off_c, 0, 64, 61
1, 143324, Note_off_c, 0, 69, 60
1, 143372, Note_off_c, 0, 72, 60
1, 143503, Note_off_c, 0, 52, 39
1, 143535, Note_on_c, 0, 43, 51
1, 143574, Note_off_c, 0, 43, 61
1, 143616, Note_on_c, 0, 52, 53
1, 143820, Note_on_c, 0, 76, 67
1, 143822, Note_on_c, 0, 60, 49
1, 143829, Note_on_c, 0, 64, 49
1, 143831, Note_on_c, 0, 72, 63
1, 143832, Note_on_c, 0, 67, 55
1, 143848, Control_c, 0, 64, 98
1, 143863, Control_c, 0, 64, 80
1, 143878, Control_c, 0, 64, 65
1, 143892, Control_c, 0, 64, 34
1, 143907, Control_c, 0, 64, 45
1, 143922, Control_c, 0, 64, 62
1, 143937, Control_c, 0, 64, 67
1, 143952, Control_c, 0, 64, 76
1, 143966, Control_c, 0, 64, 94
1, 143981, Control_c, 0, 64, 127
1, 144022, Note_off_c, 0, 60, 53
1, 144060, Note_off_c, 0, 64, 57
1, 144114, Note_off_c, 0, 76, 57
1, 144152, Note_off_c, 0, 52, 41
1, 144157, Note_off_c, 0, 67, 56
1, 144183, Note_off_c, 0, 72, 38
1, 144771, Note_on_c, 0, 31, 35
1, 144796, Note_on_c, 0, 43, 36
1, 144805, Note_on_c, 0, 67, 41
1, 144811, Note_on_c, 0, 79, 54
1, 144814, Note_on_c, 0, 72, 50
1, 144819, Control_c, 0, 64, 109
1, 144830, Note_on_c, 0, 76, 45
1, 144833, Control_c, 0, 64, 88
1, 144848, Control_c, 0, 64, 71
1, 144863, Control_c, 0, 64, 51
1, 144878, Control_c, 0, 64, 32
1, 144893, Control_c, 0, 64, 49
1, 144907, Control_c, 0, 64, 61
1, 144922, Control_c, 0, 64, 66
1, 144937, Control_c, 0, 64, 71
1, 144951, Control_c, 0, 64, 82
1, 144966, Control_c, 0, 64, 99
1, 144981, Control_c, 0, 64, 113
1, 144996, Control_c, 0, 64, 127
1, 145023, Note_off_c, 0, 79, 56
1, 145080, Note_off_c, 0, 43, 33
1, 145086, Note_off_c, 0, 76, 48
1, 145098, Note_off_c, 0, 31, 38
1, 145098, Note_off_c, 0, 67, 36
1, 145122, Note_off_c, 0, 72, 60
1, 145631, Note_on_c, 0, 30, 21
1, 145632, Note_on_c, 0, 66, 41
1, 145641, Note_on_c, 0, 42, 22
1, 145642, Note_on_c, 0, 54, 23
1, 145751, Note_off_c, 0, 54, 34
1, 145766, Note_off_c, 0, 66, 35
1, 145798, Note_off_c, 0, 42, 37
1, 145817, Note_off_c, 0, 30, 36
1, 145920, Note_on_c, 0, 55, 32
1, 145922, Note_on_c, 0, 67, 35
1, 145926, Note_on_c, 0, 43, 27
1, 145931, Note_on_c, 0, 31, 30
1, 145974, Note_off_c, 0, 67, 55
1, 145982, Note_off_c, 0, 43, 47
1, 145983, Note_off_c, 0, 31, 51
1, 145983, Note_off_c, 0, 55, 56
1, 146099, Note_on_c, 0, 67, 42
1, 146099, Note_on_c, 0, 31, 48
1, 146109, Note_on_c, 0, 43, 36
1, 146128, Note_off_c, 0, 67, 53
1, 146140, Note_off_c, 0, 31, 50
1, 146145, Note_off_c, 0, 43, 50
1, 146159, Poly_aftertouch_c, 0, 55, 127
1, 146206, Poly_aftertouch_c, 0, 55, 0
1, 146223, Note_on_c, 0, 67, 55
1, 146224, Note_on_c, 0, 55, 29
1, 146242, Note_on_c, 0, 31, 36
1, 146256, Note_off_c, 0, 67, 64
1, 146260, Note_on_c, 0, 43, 16
1, 146263, Note_off_c, 0, 55, 52
1, 146284, Note_off_c, 0, 31, 42
1, 146304, Note_off_c, 0, 43, 37
1, 146364, Note_on_c, 0, 32, 54
1, 146366, Note_on_c, 0, 44, 53
1, 146372, Note_on_c, 0, 68, 64
1, 146373, Note_on_c, 0, 56, 58
1, 146394, Note_off_c, 0, 56, 62
1, 146399, Note_off_c, 0, 68, 64
1, 146400, Note_off_c, 0, 32, 61
1, 146402, Note_off_c, 0, 44, 59
1, 146481, Note_on_c, 0, 68, 65
1, 146483, Note_on_c, 0, 32, 55
1, 146483, Note_on_c, 0, 56, 61
1, 146490, Note_on_c, 0, 44, 51
1, 146513, Note_off_c, 0, 68, 63
1, 146513, Note_off_c, 0, 56, 63
1, 146514, Note_off_c, 0, 32, 60
1, 146518, Note_off_c, 0, 44, 55
1, 146591, Note_on_c, 0, 44, 57
1, 146591, Note_on_c, 0, 32, 60
1, 146594, Note_on_c, 0, 56, 65
1, 146594, Note_on_c, 0, 68, 64
1, 146623, Note_off_c, 0, 68, 62
1, 146627, Note_off_c, 0, 44, 60
1, 146631, Note_off_c, 0, 32, 57
1, 146636, Note_off_c, 0, 56, 52
1, 146707, Note_on_c, 0, 43, 56
1, 146716, Note_on_c, 0, 31, 53
1, 146719, Note_on_c, 0, 55, 70
1, 146722, Note_on_c, 0, 67, 72
1, 146755, Note_off_c, 0, 31, 62
1, 146757, Note_off_c, 0, 55, 57
1, 146777, Note_off_c, 0, 67, 58
1, 146785, Note_off_c, 0, 43, 57
1, 146850, Note_on_c, 0, 31, 62
1, 146870, Note_on_c, 0, 55, 66
1, 146876, Note_on_c, 0, 67, 72
1, 146877, Note_on_c, 0, 43, 68
1, 146881, Note_off_c, 0, 31, 62
1, 146899, Note_off_c, 0, 55, 66
1, 146900, Note_off_c, 0, 67, 68
1, 146905, Note_off_c, 0, 43, 67
1, 147038, Note_on_c, 0, 43, 56
1, 147091, Note_off_c, 0, 43, 56
1, 147118, Note_on_c, 0, 50, 59
1, 147186, Note_on_c, 0, 53, 57
1, 147259, Control_c, 0, 64, 121
1, 147265, Note_on_c, 0, 60, 57
1, 147271, Note_on_c, 0, 76, 78
1, 147274, Control_c, 0, 64, 93
1, 147278, Note_on_c, 0, 64, 61
1, 147279, Note_on_c, 0, 67, 56
1, 147289, Control_c, 0, 64, 74
1, 147303, Control_c, 0, 64, 59
1, 147318, Control_c, 0, 64, 12
1, 147333, Control_c, 0, 64, 33
1, 147348, Control_c, 0, 64, 48
1, 147363, Control_c, 0, 64, 59
1, 147377, Control_c, 0, 64, 65
1, 147392, Control_c, 0, 64, 71
1, 147407, Control_c, 0, 64, 86
1, 147421, Control_c, 0, 64, 103
1, 147436, Control_c, 0, 64, 118
1, 147451, Control_c, 0, 64, 127
1, 147482, Note_off_c, 0, 64, 58
1, 147528, Note_off_c, 0, 76, 62
1, 147533, Note_off_c, 0, 60, 58
1, 147599, Note_off_c, 0, 67, 61
1, 147724, Note_off_c, 0, 53, 47
1, 147817, Note_off_c, 0, 50, 50
1, 147834, Note_on_c, 0, 43, 53
1, 147885, Note_off_c, 0, 43, 58
1, 147928, Note_on_c, 0, 50, 56
1, 147956, Note_on_c, 0, 53, 62
1, 148007, Control_c, 0, 64, 105
1, 148022, Control_c, 0, 64, 83
1, 148034, Note_on_c, 0, 59, 68
1, 148034, Note_on_c, 0, 74, 73
1, 148037, Control_c, 0, 64, 65
1, 148038, Note_on_c, 0, 62, 69
1, 148052, Control_c, 0, 64, 12
1, 148066, Control_c, 0, 64, 45
1, 148081, Control_c, 0, 64, 64
1, 148090, Note_off_c, 0, 59, 63
1, 148096, Control_c, 0, 64, 77
1, 148111, Control_c, 0, 64, 127
1, 148117, Note_off_c, 0, 53, 58
1, 148135, Note_off_c, 0, 50, 60
1, 148158, Note_off_c, 0, 74, 65
1, 148186, Note_off_c, 0, 62, 61
1, 148429, Note_on_c, 0, 31, 58
1, 148442, Note_on_c, 0, 43, 56
1, 148448, Note_on_c, 0, 55, 73
1, 148450, Note_on_c, 0, 67, 76
1, 148498, Note_off_c, 0, 31, 57
1, 148511, Note_off_c, 0, 55, 63
1, 148548, Note_off_c, 0, 67, 62
1, 148570, Note_off_c, 0, 43, 62
1, 148839, Note_on_c, 0, 43, 40
1, 148873, Note_off_c, 0, 43, 47
1, 148925, Note_on_c, 0, 50, 42
1, 149002, Note_on_c, 0, 53, 44
1, 149089, Control_c, 0, 64, 100
1, 149095, Note_on_c, 0, 74, 68
1, 149100, Note_on_c, 0, 62, 63
1, 149104, Note_on_c, 0, 59, 52
1, 149104, Control_c, 0, 64, 71
1, 149119, Control_c, 0, 64, 0
1, 149163, Control_c, 0, 64, 58
1, 149178, Control_c, 0, 64, 71
1, 149193, Control_c, 0, 64, 91
1, 149205, Note_off_c, 0, 59, 63
1, 149208, Control_c, 0, 64, 127
1, 149260, Note_off_c, 0, 53, 57
1, 149261, Note_off_c, 0, 74, 64
1, 149277, Note_off_c, 0, 62, 56
1, 149301, Note_off_c, 0, 50, 51
1, 149598, Note_on_c, 0, 66, 46
1, 149600, Note_on_c, 0, 54, 40
1, 149607, Note_on_c, 0, 42, 42
1, 149611, Note_on_c, 0, 30, 35
1, 149661, Note_off_c, 0, 66, 51
1, 149662, Note_off_c, 0, 54, 48
1, 149681, Note_off_c, 0, 42, 59
1, 149724, Note_off_c, 0, 30, 40
1, 149826, Note_on_c, 0, 31, 49
1, 149827, Note_on_c, 0, 55, 51
1, 149834, Note_on_c, 0, 67, 47
1, 149837, Note_on_c, 0, 43, 42
1, 149863, Note_off_c, 0, 67, 58
1, 149864, Note_off_c, 0, 31, 58
1, 149864, Note_off_c, 0, 55, 61
1, 149872, Note_off_c, 0, 43, 51
1, 149944, Note_on_c, 0, 67, 64
1, 149947, Note_on_c, 0, 55, 64
1, 149962, Note_on_c, 0, 31, 42
1, 149964, Note_on_c, 0, 43, 45
1, 149972, Note_off_c, 0, 67, 65
1, 149977, Note_off_c, 0, 55, 65
1, 150001, Note_off_c, 0, 31, 47
1, 150005, Note_off_c, 0, 43, 43
1, 150070, Note_on_c, 0, 56, 72
1, 150071, Note_on_c, 0, 68, 70
1, 150073, Note_on_c, 0, 44, 63
1, 150073, Note_on_c, 0, 32, 55
1, 150098, Note_off_c, 0, 56, 66
1, 150099, Note_off_c, 0, 68, 66
1, 150105, Note_off_c, 0, 44, 62
1, 150106, Note_off_c, 0, 32, 54
1, 150177, Note_on_c, 0, 33, 53
1, 150177, Note_on_c, 0, 57, 75
1, 150178, Note_on_c, 0, 69, 70
1, 150186, Note_on_c, 0, 45, 50
1, 150204, Note_off_c, 0, 57, 66
1, 150208, Note_off_c, 0, 69, 66
1, 150210, Note_off_c, 0, 33, 55
1, 150219, Note_off_c, 0, 45, 50
1, 150270, Note_on_c, 0, 69, 72
1, 150272, Note_on_c, 0, 57, 68
1, 150284, Note_on_c, 0, 33, 48
1, 150286, Note_on_c, 0, 45, 54
1, 150294, Note_off_c, 0, 69, 69
1, 150299, Note_off_c, 0, 57, 64
1, 150311, Note_off_c, 0, 45, 57
1, 150332, Note_off_c, 0, 33, 50
1, 150375, Note_on_c, 0, 34, 67
1, 150375, Note_on_c, 0, 70, 81
1, 150376, Note_on_c, 0, 58, 76
1, 150379, Note_on_c, 0, 46, 65
1, 150407, Note_off_c, 0, 34, 63
1, 150409, Note_off_c, 0, 46, 65
1, 150412, Note_off_c, 0, 70, 54
1, 150415, Note_off_c, 0, 58, 55
1, 150475, Note_on_c, 0, 35, 68
1, 150485, Note_on_c, 0, 47, 55
1, 150488, Note_on_c, 0, 59, 77
1, 150498, Note_on_c, 0, 71, 63
1, 150507, Note_off_c, 0, 35, 63
1, 150520, Note_off_c, 0, 47, 54
1, 150521, Note_off_c, 0, 59, 65
1, 150524, Note_off_c, 0, 71, 64
1, 150602, Note_on_c, 0, 47, 56
1, 150605, Note_on_c, 0, 35, 53
1, 150620, Note_on_c, 0, 59, 72
1, 150620, Note_on_c, 0, 71, 63
1, 150638, Note_off_c, 0, 35, 59
1, 150642, Note_off_c, 0, 47, 59
1, 150642, Note_off_c, 0, 59, 69
1, 150658, Note_off_c, 0, 71, 58
1, 150839, Note_on_c, 0, 36, 43
1, 150845, Note_on_c, 0, 48, 50
1, 150854, Note_on_c, 0, 64, 50
1, 150863, Note_on_c, 0, 72, 69
1, 150867, Note_on_c, 0, 60, 54
1, 150884, Control_c, 0, 64, 107
1, 150898, Control_c, 0, 64, 79
1, 150913, Control_c, 0, 64, 0
1, 151092, Control_c, 0, 64, 59
1, 151107, Control_c, 0, 64, 67
1, 151122, Control_c, 0, 64, 73
1, 151137, Control_c, 0, 64, 78
1, 151152, Control_c, 0, 64, 82
1, 151167, Control_c, 0, 64, 86
1, 151181, Control_c, 0, 64, 90
1, 151196, Control_c, 0, 64, 96
1, 151211, Control_c, 0, 64, 101
1, 151226, Control_c, 0, 64, 106
1, 151228, Note_off_c, 0, 60, 37
1, 151240, Control_c, 0, 64, 113
1, 151255, Control_c, 0, 64, 127
1, 151274, Note_off_c, 0, 36, 38
1, 151349, Note_off_c, 0, 72, 39
1, 151384, Note_off_c, 0, 64, 51
1, 151459, Note_off_c, 0, 48, 42
1, 152088, Note_on_c, 0, 41, 55
1, 152150, Note_off_c, 0, 41, 62
1, 152160, Note_on_c, 0, 48, 60
1, 152249, Note_on_c, 0, 53, 58
1, 152288, Note_off_c, 0, 48, 55
1, 152335, Note_on_c, 0, 72, 76
1, 152336, Note_on_c, 0, 69, 79
1, 152337, Note_on_c, 0, 81, 91
1, 152337, Control_c, 0, 64, 104
1, 152351, Control_c, 0, 64, 76
1, 152353, Note_on_c, 0, 60, 63
1, 152366, Control_c, 0, 64, 0
1, 152425, Control_c, 0, 64, 58
1, 152440, Control_c, 0, 64, 72
1, 152455, Control_c, 0, 64, 91
1, 152469, Control_c, 0, 64, 127
1, 152521, Note_off_c, 0, 81, 64
1, 152522, Note_off_c, 0, 60, 59
1, 152566, Note_off_c, 0, 53, 58
1, 152574, Note_off_c, 0, 69, 50
1, 152583, Note_off_c, 0, 72, 63
1, 152934, Note_on_c, 0, 35, 45
1, 152934, Note_on_c, 0, 59, 48
1, 152943, Note_on_c, 0, 71, 43
1, 152949, Note_on_c, 0, 47, 30
1, 152984, Note_off_c, 0, 59, 58
1, 152990, Note_off_c, 0, 35, 53
1, 152997, Note_off_c, 0, 47, 44
1, 153000, Note_off_c, 0, 71, 59
1, 153170, Note_on_c, 0, 60, 49
1, 153173, Note_on_c, 0, 48, 42
1, 153175, Note_on_c, 0, 72, 47
1, 153176, Note_on_c, 0, 36, 42
1, 153202, Note_off_c, 0, 60, 55
1, 153207, Note_off_c, 0, 72, 52
1, 153213, Note_off_c, 0, 48, 48
1, 153214, Note_off_c, 0, 36, 52
1, 153300, Note_on_c, 0, 72, 69
1, 153301, Note_on_c, 0, 60, 59
1, 153304, Note_on_c, 0, 36, 56
1, 153305, Note_on_c, 0, 48, 57
1, 153335, Note_off_c, 0, 72, 63
1, 153336, Note_off_c, 0, 60, 62
1, 153340, Note_off_c, 0, 36, 63
1, 153340, Note_off_c, 0, 48, 62
1, 153420, Note_on_c, 0, 48, 66
1, 153426, Note_on_c, 0, 36, 59
1, 153426, Note_on_c, 0, 72, 65
1, 153430, Note_on_c, 0, 60, 62
1, 153448, Note_off_c, 0, 48, 64
1, 153448, Note_off_c, 0, 72, 65
1, 153453, Note_off_c, 0, 36, 59
1, 153453, Note_off_c, 0, 60, 62
1, 153545, Note_on_c, 0, 61, 75
1, 153547, Note_on_c, 0, 73, 72
1, 153548, Note_on_c, 0, 37, 64
1, 153548, Note_on_c, 0, 49, 69
1, 153571, Note_off_c, 0, 61, 68
1, 153572, Note_off_c, 0, 73, 68
1, 153576, Note_off_c, 0, 49, 65
1, 153580, Note_off_c, 0, 37, 63
1, 153644, Note_on_c, 0, 73, 69
1, 153644, Note_on_c, 0, 49, 65
1, 153646, Note_on_c, 0, 61, 72
1, 153651, Note_on_c, 0, 37, 62
1, 153669, Note_off_c, 0, 73, 66
1, 153674, Note_off_c, 0, 49, 65
1, 153674, Note_off_c, 0, 61, 65
1, 153682, Note_off_c, 0, 37, 64
1, 153738, Note_on_c, 0, 37, 70
1, 153738, Note_on_c, 0, 73, 72
1, 153739, Note_on_c, 0, 49, 69
1, 153739, Note_on_c, 0, 61, 75
1, 153766, Note_off_c, 0, 61, 64
1, 153768, Note_off_c, 0, 73, 64
1, 153771, Note_off_c, 0, 37, 62
1, 153772, Note_off_c, 0, 49, 63
1, 153834, Note_on_c, 0, 38, 63
1, 153839, Note_on_c, 0, 74, 70
1, 153840, Note_on_c, 0, 62, 70
1, 153842, Note_on_c, 0, 50, 58
1, 153865, Note_off_c, 0, 74, 68
1, 153867, Note_off_c, 0, 38, 64
1, 153869, Note_off_c, 0, 62, 65
1, 153872, Note_off_c, 0, 50, 62
1, 153935, Note_on_c, 0, 63, 83
1, 153936, Note_on_c, 0, 75, 85
1, 153945, Note_on_c, 0, 39, 51
1, 153945, Note_on_c, 0, 51, 77
1, 153965, Note_off_c, 0, 63, 63
1, 153971, Note_off_c, 0, 51, 69
1, 153972, Note_off_c, 0, 75, 57
1, 153977, Note_off_c, 0, 39, 61
1, 154100, Note_on_c, 0, 51, 50
1, 154152, Note_on_c, 0, 60, 60
1, 154160, Control_c, 0, 64, 97
1, 154165, Note_on_c, 0, 63, 67
1, 154168, Note_on_c, 0, 55, 57
1, 154175, Control_c, 0, 64, 71
1, 154187, Note_on_c, 0, 79, 79
1, 154189, Note_on_c, 0, 67, 73
1, 154191, Note_on_c, 0, 72, 54
1, 154192, Control_c, 0, 64, 0
1, 154200, Note_on_c, 0, 75, 63
1, 154236, Control_c, 0, 64, 46
1, 154251, Control_c, 0, 64, 69
1, 154273, Control_c, 0, 64, 90
1, 154276, Note_off_c, 0, 63, 65
1, 154288, Control_c, 0, 64, 127
1, 154302, Note_off_c, 0, 60, 59
1, 154318, Note_off_c, 0, 55, 61
1, 154323, Note_off_c, 0, 79, 65
1, 154324, Note_off_c, 0, 67, 63
1, 154325, Note_off_c, 0, 75, 61
1, 154341, Note_off_c, 0, 51, 64
1, 154350, Note_off_c, 0, 72, 64
1, 154555, Note_on_c, 0, 36, 49
1, 154558, Note_on_c, 0, 60, 56
1, 154559, Note_on_c, 0, 72, 65
1, 154566, Note_on_c, 0, 48, 37
1, 154586, Note_off_c, 0, 60, 61
1, 154596, Note_off_c, 0, 72, 62
1, 154601, Note_off_c, 0, 36, 58
1, 154611, Note_off_c, 0, 48, 47
1, 154741, Note_on_c, 0, 37, 60
1, 154743, Note_on_c, 0, 49, 59
1, 154747, Note_on_c, 0, 73, 57
1, 154749, Note_on_c, 0, 61, 57
1, 154768, Note_off_c, 0, 73, 62
1, 154773, Note_off_c, 0, 61, 63
1, 154776, Note_off_c, 0, 49, 64
1, 154778, Note_off_c, 0, 37, 61
1, 154845, Note_on_c, 0, 73, 70
1, 154848, Note_on_c, 0, 61, 67
1, 154853, Note_on_c, 0, 49, 63
1, 154858, Note_on_c, 0, 37, 59
1, 154873, Note_off_c, 0, 73, 64
1, 154876, Note_off_c, 0, 61, 67
1, 154881, Note_off_c, 0, 49, 65
1, 154890, Note_off_c, 0, 37, 61
1, 154944, Note_on_c, 0, 49, 65
1, 154945, Note_on_c, 0, 73, 71
1, 154946, Note_on_c, 0, 61, 72
1, 154976, Note_off_c, 0, 61, 63
1, 154976, Note_off_c, 0, 73, 62
1, 154977, Note_on_c, 0, 37, 45
1, 155003, Note_off_c, 0, 49, 52
1, 155020, Note_off_c, 0, 37, 52
1, 155046, Note_on_c, 0, 62, 76
1, 155046, Note_on_c, 0, 74, 75
1, 155056, Note_on_c, 0, 50, 55
1, 155061, Note_on_c, 0, 38, 55
1, 155072, Note_off_c, 0, 74, 65
1, 155072, Note_off_c, 0, 62, 65
1, 155081, Note_off_c, 0, 50, 58
1, 155092, Note_off_c, 0, 38, 60
1, 155141, Note_on_c, 0, 62, 73
1, 155144, Note_on_c, 0, 74, 68
1, 155145, Note_on_c, 0, 38, 59
1, 155152, Note_on_c, 0, 50, 58
1, 155162, Note_off_c, 0, 62, 69
1, 155168, Note_off_c, 0, 74, 65
1, 155176, Note_off_c, 0, 38, 62
1, 155184, Note_off_c, 0, 50, 56
1, 155228, Note_on_c, 0, 62, 82
1, 155229, Note_on_c, 0, 74, 77
1, 155234, Note_on_c, 0, 38, 75
1, 155238, Note_on_c, 0, 50, 74
1, 155248, Note_off_c, 0, 74, 71
1, 155256, Note_off_c, 0, 62, 63
1, 155265, Note_off_c, 0, 50, 67
1, 155268, Note_off_c, 0, 38, 63
1, 155327, Note_on_c, 0, 51, 80
1, 155328, Note_on_c, 0, 63, 87
1, 155331, Note_on_c, 0, 75, 87
1, 155331, Note_on_c, 0, 39, 64
1, 155353, Note_off_c, 0, 63, 66
1, 155359, Note_off_c, 0, 51, 63
1, 155359, Note_off_c, 0, 75, 59
1, 155361, Note_off_c, 0, 39, 64
1, 155489, Note_on_c, 0, 69, 89
1, 155490, Note_on_c, 0, 81, 95
1, 155494, Note_on_c, 0, 52, 65
1, 155496, Note_on_c, 0, 64, 72
1, 155509, Note_off_c, 0, 81, 73
1, 155513, Note_off_c, 0, 69, 66
1, 155522, Note_off_c, 0, 64, 68
1, 155531, Note_off_c, 0, 52, 60
1, 155738, Note_on_c, 0, 69, 44
1, 155742, Note_on_c, 0, 66, 87
1, 155742, Note_on_c, 0, 78, 82
1, 155746, Control_c, 0, 64, 109
1, 155748, Note_on_c, 0, 62, 71
1, 155752, Note_on_c, 0, 50, 68
1, 155761, Note_on_c, 0, 74, 59
1, 155766, Note_on_c, 0, 57, 63
1, 155769, Control_c, 0, 64, 79
1, 155784, Control_c, 0, 64, 31
1, 155799, Control_c, 0, 64, 0
1, 155844, Control_c, 0, 64, 26
1, 155844, Note_off_c, 0, 62, 60
1, 155859, Control_c, 0, 64, 63
1, 155873, Control_c, 0, 64, 70
1, 155888, Control_c, 0, 64, 80
1, 155894, Note_off_c, 0, 57, 61
1, 155903, Control_c, 0, 64, 90
1, 155912, Note_off_c, 0, 78, 64
1, 155918, Control_c, 0, 64, 96
1, 155929, Note_off_c, 0, 50, 63
1, 155933, Control_c, 0, 64, 102
1, 155933, Note_off_c, 0, 66, 59
1, 155939, Note_off_c, 0, 74, 63
1, 155948, Control_c, 0, 64, 108
1, 155962, Control_c, 0, 64, 112
1, 155968, Note_off_c, 0, 69, 56
1, 155977, Control_c, 0, 64, 117
1, 155992, Control_c, 0, 64, 122
1, 156007, Control_c, 0, 64, 127
1, 156135, Note_on_c, 0, 61, 57
1, 156136, Note_on_c, 0, 49, 39
1, 156137, Note_on_c, 0, 37, 40
1, 156137, Note_on_c, 0, 73, 51
1, 156163, Note_off_c, 0, 61, 60
1, 156178, Note_off_c, 0, 73, 50
1, 156183, Note_off_c, 0, 49, 54
1, 156191, Note_off_c, 0, 37, 48
1, 156324, Note_on_c, 0, 38, 51
1, 156327, Note_on_c, 0, 62, 55
1, 156336, Note_on_c, 0, 74, 39
1, 156341, Note_on_c, 0, 50, 35
1, 156351, Note_off_c, 0, 62, 61
1, 156363, Note_off_c, 0, 38, 62
1, 156368, Note_off_c, 0, 74, 50
1, 156375, Note_off_c, 0, 50, 50
1, 156439, Note_on_c, 0, 62, 55
1, 156460, Note_on_c, 0, 38, 43
1, 156469, Note_on_c, 0, 74, 23
1, 156469, Note_off_c, 0, 62, 62
1, 156493, Note_off_c, 0, 38, 52
1, 156514, Note_off_c, 0, 74, 47
1, 156527, Poly_aftertouch_c, 0, 50, 0
1, 156550, Note_on_c, 0, 50, 33
1, 156554, Note_on_c, 0, 62, 64
1, 156562, Note_on_c, 0, 74, 37
1, 156582, Note_off_c, 0, 50, 63
1, 156585, Note_off_c, 0, 62, 63
1, 156594, Note_off_c, 0, 74, 54
1, 156612, Note_on_c, 0, 38, 3
1, 156634, Note_off_c, 0, 38, 0
1, 156651, Poly_aftertouch_c, 0, 38, 0
1, 156659, Note_on_c, 0, 39, 66
1, 156659, Note_on_c, 0, 63, 73
1, 156659, Note_on_c, 0, 75, 71
1, 156662, Note_on_c, 0, 51, 68
1, 156682, Note_off_c, 0, 63, 65
1, 156683, Note_off_c, 0, 75, 66
1, 156689, Note_off_c, 0, 39, 62
1, 156690, Note_off_c, 0, 51, 64
1, 156745, Note_on_c, 0, 75, 69
1, 156746, Note_on_c, 0, 63, 69
1, 156753, Note_on_c, 0, 51, 69
1, 156759, Note_on_c, 0, 39, 66
1, 156770, Note_off_c, 0, 63, 69
1, 156774, Note_off_c, 0, 75, 64
1, 156780, Note_off_c, 0, 51, 66
1, 156786, Note_off_c, 0, 39, 62
1, 156843, Note_on_c, 0, 51, 73
1, 156843, Note_on_c, 0, 63, 72
1, 156844, Note_on_c, 0, 75, 68
1, 156851, Note_on_c, 0, 39, 73
1, 156866, Note_off_c, 0, 63, 69
1, 156868, Note_off_c, 0, 75, 66
1, 156869, Note_off_c, 0, 51, 68
1, 156881, Note_off_c, 0, 39, 65
1, 156934, Note_on_c, 0, 76, 73
1, 156935, Note_on_c, 0, 64, 74
1, 156947, Note_on_c, 0, 40, 60
1, 156949, Note_on_c, 0, 52, 61
1, 156957, Note_off_c, 0, 76, 70
1, 156962, Note_off_c, 0, 64, 68
1, 156971, Note_off_c, 0, 52, 60
1, 156974, Note_off_c, 0, 40, 58
1, 157027, Note_on_c, 0, 76, 66
1, 157028, Note_on_c, 0, 64, 70
1, 157036, Note_on_c, 0, 52, 67
1, 157045, Note_on_c, 0, 40, 54
1, 157051, Note_off_c, 0, 64, 71
1, 157053, Note_off_c, 0, 76, 66
1, 157065, Note_off_c, 0, 52, 64
1, 157089, Note_off_c, 0, 40, 49
1, 157121, Note_on_c, 0, 76, 71
1, 157125, Note_on_c, 0, 52, 75
1, 157132, Note_on_c, 0, 40, 55
1, 157132, Note_on_c, 0, 64, 63
1, 157146, Note_off_c, 0, 76, 68
1, 157149, Note_off_c, 0, 64, 65
1, 157152, Note_off_c, 0, 40, 63
1, 157153, Note_off_c, 0, 52, 65
1, 157215, Note_on_c, 0, 41, 74
1, 157219, Note_on_c, 0, 53, 72
1, 157223, Note_on_c, 0, 65, 74
1, 157232, Note_on_c, 0, 77, 59
1, 157242, Note_off_c, 0, 41, 66
1, 157248, Note_off_c, 0, 53, 61
1, 157257, Note_off_c, 0, 65, 67
1, 157257, Note_off_c, 0, 77, 61
1, 157311, Note_on_c, 0, 41, 74
1, 157312, Note_on_c, 0, 53, 74
1, 157312, Note_on_c, 0, 65, 74
1, 157322, Note_on_c, 0, 77, 69
1, 157337, Note_off_c, 0, 41, 65
1, 157339, Note_off_c, 0, 53, 66
1, 157343, Note_off_c, 0, 65, 66
1, 157347, Note_off_c, 0, 77, 65
1, 157408, Note_on_c, 0, 77, 66
1, 157409, Note_on_c, 0, 41, 71
1, 157412, Note_on_c, 0, 65, 69
1, 157417, Note_on_c, 0, 53, 73
1, 157432, Note_off_c, 0, 77, 64
1, 157438, Note_off_c, 0, 65, 67
1, 157438, Note_off_c, 0, 41, 64
1, 157447, Note_off_c, 0, 53, 63
1, 157507, Note_on_c, 0, 66, 87
1, 157509, Note_on_c, 0, 42, 72
1, 157509, Note_on_c, 0, 78, 78
1, 157514, Note_on_c, 0, 54, 62
1, 157531, Note_off_c, 0, 66, 67
1, 157531, Note_off_c, 0, 78, 69
1, 157535, Note_off_c, 0, 54, 62
1, 157540, Note_off_c, 0, 42, 64
1, 157587, Note_on_c, 0, 78, 79
1, 157590, Note_on_c, 0, 66, 83
1, 157598, Note_on_c, 0, 42, 75
1, 157599, Note_on_c, 0, 54, 75
1, 157617, Note_off_c, 0, 66, 68
1, 157618, Note_off_c, 0, 78, 57
1, 157622, Note_off_c, 0, 54, 69
1, 157623, Note_off_c, 0, 42, 66
1, 157688, Note_on_c, 0, 66, 86
1, 157689, Note_on_c, 0, 42, 67
1, 157692, Note_on_c, 0, 54, 77
1, 157695, Note_on_c, 0, 78, 71
1, 157710, Note_off_c, 0, 66, 71
1, 157715, Note_off_c, 0, 54, 70
1, 157718, Note_off_c, 0, 42, 66
1, 157721, Note_off_c, 0, 78, 66
1, 157775, Note_on_c, 0, 67, 86
1, 157776, Note_on_c, 0, 79, 81
1, 157781, Note_on_c, 0, 43, 76
1, 157784, Note_on_c, 0, 55, 75
1, 157798, Note_off_c, 0, 79, 69
1, 157799, Note_off_c, 0, 67, 66
1, 157811, Note_off_c, 0, 43, 64
1, 157814, Note_off_c, 0, 55, 67
1, 157868, Note_on_c, 0, 68, 89
1, 157870, Note_on_c, 0, 80, 82
1, 157878, Note_on_c, 0, 44, 78
1, 157880, Note_on_c, 0, 56, 78
1, 157900, Note_off_c, 0, 80, 59
1, 157905, Note_off_c, 0, 56, 68
1, 157908, Note_off_c, 0, 44, 64
1, 157908, Note_off_c, 0, 68, 60
1, 157960, Note_on_c, 0, 68, 84
1, 157966, Note_on_c, 0, 56, 79
1, 157966, Note_on_c, 0, 44, 78
1, 157967, Note_on_c, 0, 80, 84
1, 157995, Note_off_c, 0, 56, 63
1, 157995, Note_off_c, 0, 80, 62
1, 157998, Note_off_c, 0, 44, 64
1, 158015, Note_off_c, 0, 68, 63
1, 158074, Note_on_c, 0, 45, 88
1, 158076, Note_on_c, 0, 57, 86
1, 158076, Note_on_c, 0, 69, 93
1, 158076, Note_on_c, 0, 81, 101
1, 158097, Note_off_c, 0, 57, 71
1, 158098, Note_off_c, 0, 45, 67
1, 158112, Note_off_c, 0, 81, 65
1, 158113, Note_off_c, 0, 69, 61
1, 158176, Note_on_c, 0, 58, 88
1, 158178, Note_on_c, 0, 46, 82
1, 158183, Note_on_c, 0, 82, 93
1, 158185, Note_on_c, 0, 70, 94
1, 158215, Note_off_c, 0, 46, 62
1, 158219, Note_off_c, 0, 58, 63
1, 158232, Note_off_c, 0, 70, 62
1, 158247, Note_off_c, 0, 82, 62
1, 158297, Note_on_c, 0, 43, 76
1, 158348, Note_on_c, 0, 50, 73
1, 158356, Note_off_c, 0, 43, 60
1, 158372, Control_c, 0, 64, 87
1, 158387, Control_c, 0, 64, 26
1, 158402, Control_c, 0, 64, 0
1, 158408, Note_on_c, 0, 83, 98
1, 158409, Note_on_c, 0, 59, 82
1, 158410, Note_on_c, 0, 71, 91
1, 158412, Note_on_c, 0, 74, 72
1, 158461, Control_c, 0, 64, 70
1, 158476, Control_c, 0, 64, 92
1, 158486, Note_off_c, 0, 59, 65
1, 158491, Control_c, 0, 64, 127
1, 158494, Note_off_c, 0, 83, 67
1, 158507, Note_off_c, 0, 71, 63
1, 158541, Note_off_c, 0, 50, 62
1, 158550, Note_off_c, 0, 74, 63
1, 158774, Note_on_c, 0, 49, 54
1, 158776, Note_on_c, 0, 37, 52
1, 158784, Note_on_c, 0, 61, 52
1, 158786, Note_on_c, 0, 73, 47
1, 158811, Note_off_c, 0, 49, 62
1, 158811, Note_off_c, 0, 73, 57
1, 158816, Note_off_c, 0, 61, 58
1, 158821, Note_off_c, 0, 37, 58
1, 158926, Note_on_c, 0, 38, 59
1, 158928, Note_on_c, 0, 50, 57
1, 158936, Note_on_c, 0, 62, 65
1, 158944, Note_on_c, 0, 74, 52
1, 158964, Note_off_c, 0, 38, 62
1, 158964, Note_off_c, 0, 50, 63
1, 158964, Note_off_c, 0, 62, 64
1, 158965, Note_off_c, 0, 74, 61
1, 159035, Note_on_c, 0, 62, 66
1, 159042, Note_on_c, 0, 50, 67
1, 159045, Note_on_c, 0, 38, 60
1, 159051, Note_on_c, 0, 74, 50
1, 159063, Note_off_c, 0, 62, 65
1, 159066, Note_off_c, 0, 38, 63
1, 159072, Note_off_c, 0, 50, 63
1, 159072, Note_off_c, 0, 74, 60
1, 159129, Note_on_c, 0, 38, 76
1, 159129, Note_on_c, 0, 62, 77
1, 159130, Note_on_c, 0, 50, 80
1, 159139, Note_on_c, 0, 74, 69
1, 159152, Note_off_c, 0, 62, 68
1, 159155, Note_off_c, 0, 50, 69
1, 159156, Note_off_c, 0, 74, 67
1, 159160, Note_off_c, 0, 38, 65
1, 159229, Note_on_c, 0, 63, 79
1, 159230, Note_on_c, 0, 39, 71
1, 159231, Note_on_c, 0, 51, 71
1, 159233, Note_on_c, 0, 75, 76
1, 159253, Note_off_c, 0, 63, 69
1, 159255, Note_off_c, 0, 75, 70
1, 159260, Note_off_c, 0, 51, 66
1, 159261, Note_off_c, 0, 39, 63
1, 159310, Note_on_c, 0, 51, 84
1, 159310, Note_on_c, 0, 75, 78
1, 159313, Note_on_c, 0, 63, 77
1, 159322, Note_on_c, 0, 39, 75
1, 159333, Note_off_c, 0, 75, 65
1, 159334, Note_off_c, 0, 63, 68
1, 159340, Note_off_c, 0, 51, 62
1, 159352, Note_off_c, 0, 39, 64
1, 159401, Note_on_c, 0, 63, 84
1, 159401, Note_on_c, 0, 75, 83
1, 159405, Note_on_c, 0, 39, 79
1, 159409, Note_on_c, 0, 51, 72
1, 159426, Note_off_c, 0, 63, 65
1, 159428, Note_off_c, 0, 75, 63
1, 159432, Note_off_c, 0, 39, 68
1, 159442, Note_off_c, 0, 51, 63
1, 159493, Note_on_c, 0, 64, 79
1, 159494, Note_on_c, 0, 40, 75
1, 159494, Note_on_c, 0, 52, 82
1, 159494, Note_on_c, 0, 76, 80
1, 159522, Note_off_c, 0, 76, 71
1, 159523, Note_off_c, 0, 64, 71
1, 159525, Note_off_c, 0, 52, 66
1, 159530, Note_off_c, 0, 40, 65
1, 159575, Note_on_c, 0, 52, 84
1, 159583, Note_on_c, 0, 65, 75
1, 159591, Note_on_c, 0, 77, 73
1, 159597, Note_on_c, 0, 76, 53
1, 159608, Note_off_c, 0, 77, 66
1, 159610, Note_off_c, 0, 65, 67
1, 159610, Note_off_c, 0, 52, 61
1, 159621, Note_off_c, 0, 76, 58
1, 159719, Note_on_c, 0, 53, 63
1, 159750, Control_c, 0, 64, 117
1, 159765, Control_c, 0, 64, 77
1, 159769, Note_on_c, 0, 62, 73
1, 159773, Note_on_c, 0, 65, 93
1, 159774, Note_on_c, 0, 59, 68
1, 159775, Poly_aftertouch_c, 0, 58, 127
1, 159781, Control_c, 0, 64, 0
1, 159783, Note_on_c, 0, 69, 92
1, 159784, Note_on_c, 0, 81, 100
1, 159815, Poly_aftertouch_c, 0, 58, 0
1, 159825, Control_c, 0, 64, 61
1, 159835, Note_off_c, 0, 65, 67
1, 159840, Control_c, 0, 64, 74
1, 159855, Control_c, 0, 64, 100
1, 159857, Note_off_c, 0, 62, 62
1, 159857, Note_off_c, 0, 81, 70
1, 159864, Note_off_c, 0, 69, 62
1, 159869, Note_off_c, 0, 59, 65
1, 159870, Control_c, 0, 64, 127
1, 159877, Note_off_c, 0, 53, 62
1, 159940, Poly_aftertouch_c, 0, 74, 0
1, 160081, Note_on_c, 0, 38, 63
1, 160088, Note_on_c, 0, 62, 64
1, 160089, Note_on_c, 0, 50, 64
1, 160092, Note_on_c, 0, 74, 63
1, 160119, Note_off_c, 0, 62, 62
1, 160124, Note_off_c, 0, 74, 63
1, 160127, Note_off_c, 0, 38, 61
1, 160130, Note_off_c, 0, 50, 63
1, 160243, Note_on_c, 0, 39, 67
1, 160253, Note_on_c, 0, 63, 73
1, 160253, Note_on_c, 0, 75, 74
1, 160256, Note_on_c, 0, 51, 60
1, 160277, Note_off_c, 0, 75, 68
1, 160282, Note_off_c, 0, 63, 67
1, 160282, Note_off_c, 0, 39, 64
1, 160285, Note_off_c, 0, 51, 65
1, 160345, Note_on_c, 0, 51, 77
1, 160346, Note_on_c, 0, 75, 78
1, 160347, Note_on_c, 0, 63, 77
1, 160349, Note_on_c, 0, 39, 73
1, 160369, Note_off_c, 0, 51, 69
1, 160371, Note_off_c, 0, 75, 64
1, 160373, Note_off_c, 0, 63, 66
1, 160381, Note_off_c, 0, 39, 64
1, 160442, Note_on_c, 0, 39, 79
1, 160447, Note_on_c, 0, 63, 77
1, 160448, Note_on_c, 0, 51, 77
1, 160448, Note_on_c, 0, 75, 75
1, 160467, Note_off_c, 0, 63, 70
1, 160468, Note_off_c, 0, 39, 65
1, 160470, Note_off_c, 0, 51, 66
1, 160471, Note_off_c, 0, 75, 67
1, 160529, Note_on_c, 0, 64, 90
1, 160529, Note_on_c, 0, 76, 86
1, 160532, Note_on_c, 0, 52, 81
1, 160534, Note_on_c, 0, 40, 77
1, 160553, Note_off_c, 0, 76, 64
1, 160556, Note_off_c, 0, 64, 64
1, 160556, Note_off_c, 0, 52, 65
1, 160560, Note_off_c, 0, 40, 65
1, 160616, Note_on_c, 0, 52, 78
1, 160620, Note_on_c, 0, 40, 79
1, 160623, Note_on_c, 0, 64, 87
1, 160625, Note_on_c, 0, 76, 87
1, 160644, Note_off_c, 0, 64, 70
1, 160645, Note_off_c, 0, 76, 67
1, 160652, Note_off_c, 0, 52, 60
1, 160653, Note_off_c, 0, 40, 64
1, 160709, Note_on_c, 0, 76, 86
1, 160710, Note_on_c, 0, 40, 82
1, 160710, Note_on_c, 0, 64, 88
1, 160712, Note_on_c, 0, 52, 86
1, 160734, Note_off_c, 0, 64, 69
1, 160735, Note_off_c, 0, 40, 67
1, 160735, Note_off_c, 0, 52, 65
1, 160737, Note_off_c, 0, 76, 61
1, 160803, Note_on_c, 0, 53, 87
1, 160805, Note_on_c, 0, 65, 91
1, 160807, Note_on_c, 0, 77, 91
1, 160820, Note_on_c, 0, 41, 43
1, 160825, Note_off_c, 0, 53, 68
1, 160828, Note_off_c, 0, 65, 68
1, 160833, Note_off_c, 0, 77, 60
1, 160855, Note_off_c, 0, 41, 51
1, 160949, Note_on_c, 0, 53, 67
1, 160953, Note_on_c, 0, 71, 102
1, 160956, Note_on_c, 0, 65, 83
1, 160956, Note_on_c, 0, 83, 90
1, 160975, Note_off_c, 0, 65, 67
1, 160977, Note_off_c, 0, 83, 75
1, 160979, Note_off_c, 0, 71, 66
1, 160981, Note_off_c, 0, 53, 62
1, 161003, Note_on_c, 0, 81, 40
1, 161039, Note_off_c, 0, 81, 46
1, 161188, Control_c, 0, 64, 107
1, 161194, Note_on_c, 0, 68, 102
1, 161194, Note_on_c, 0, 52, 84
1, 161197, Note_on_c, 0, 80, 93
1, 161199, Note_on_c, 0, 76, 80
1, 161203, Control_c, 0, 64, 72
1, 161206, Poly_aftertouch_c, 0, 75, 0
1, 161209, Note_on_c, 0, 59, 71
1, 161209, Note_on_c, 0, 60, 76
1, 161218, Control_c, 0, 64, 0
1, 161233, Note_off_c, 0, 60, 67
1, 161263, Control_c, 0, 64, 35
1, 161277, Control_c, 0, 64, 66
1, 161288, Note_off_c, 0, 59, 64
1, 161292, Control_c, 0, 64, 77
1, 161302, Note_off_c, 0, 52, 59
1, 161307, Control_c, 0, 64, 89
1, 161311, Note_off_c, 0, 80, 64
1, 161322, Control_c, 0, 64, 98
1, 161337, Control_c, 0, 64, 103
1, 161344, Note_off_c, 0, 76, 63
1, 161348, Note_off_c, 0, 68, 61
1, 161351, Control_c, 0, 64, 110
1, 161366, Control_c, 0, 64, 117
1, 161382, Control_c, 0, 64, 127
1, 161559, Note_on_c, 0, 63, 73
1, 161567, Note_on_c, 0, 75, 58
1, 161584, Note_on_c, 0, 39, 59
1, 161587, Note_on_c, 0, 51, 55
1, 161615, Note_off_c, 0, 63, 41
1, 161627, Note_off_c, 0, 75, 45
1, 161659, Note_off_c, 0, 39, 56
1, 161668, Note_off_c, 0, 51, 59
1, 161772, Note_on_c, 0, 64, 68
1, 161774, Note_on_c, 0, 76, 66
1, 161781, Note_on_c, 0, 40, 55
1, 161786, Note_on_c, 0, 52, 55
1, 161799, Note_off_c, 0, 64, 65
1, 161804, Note_off_c, 0, 76, 65
1, 161815, Note_off_c, 0, 52, 66
1, 161817, Note_off_c, 0, 40, 61
1, 161895, Note_on_c, 0, 52, 61
1, 161896, Note_on_c, 0, 76, 65
1, 161900, Note_on_c, 0, 64, 61
1, 161903, Note_on_c, 0, 40, 56
1, 161917, Note_off_c, 0, 76, 66
1, 161918, Note_off_c, 0, 64, 66
1, 161925, Note_off_c, 0, 40, 62
1, 161925, Note_off_c, 0, 52, 63
1, 161996, Note_on_c, 0, 40, 66
1, 161996, Note_on_c, 0, 52, 73
1, 161997, Note_on_c, 0, 76, 67
1, 162002, Note_on_c, 0, 64, 68
1, 162020, Note_off_c, 0, 52, 69
1, 162023, Note_off_c, 0, 40, 61
1, 162023, Note_off_c, 0, 76, 67
1, 162026, Note_off_c, 0, 64, 70
1, 162095, Note_on_c, 0, 53, 77
1, 162096, Note_on_c, 0, 41, 72
1, 162101, Note_on_c, 0, 65, 79
1, 162107, Note_on_c, 0, 77, 70
1, 162119, Note_off_c, 0, 53, 67
1, 162124, Note_off_c, 0, 41, 65
1, 162126, Note_off_c, 0, 65, 70
1, 162127, Note_off_c, 0, 77, 65
1, 162189, Note_on_c, 0, 41, 77
1, 162192, Note_on_c, 0, 53, 79
1, 162195, Note_on_c, 0, 65, 77
1, 162196, Note_on_c, 0, 77, 72
1, 162217, Note_off_c, 0, 53, 67
1, 162217, Note_off_c, 0, 65, 69
1, 162218, Note_off_c, 0, 77, 67
1, 162219, Note_off_c, 0, 41, 60
1, 162277, Note_on_c, 0, 77, 72
1, 162284, Note_on_c, 0, 41, 83
1, 162285, Note_on_c, 0, 65, 84
1, 162286, Note_on_c, 0, 53, 86
1, 162304, Note_off_c, 0, 41, 68
1, 162304, Note_off_c, 0, 77, 66
1, 162306, Note_off_c, 0, 53, 69
1, 162306, Note_off_c, 0, 65, 73
1, 162374, Note_on_c, 0, 66, 94
1, 162375, Note_on_c, 0, 78, 85
1, 162383, Note_on_c, 0, 42, 78
1, 162384, Note_on_c, 0, 54, 74
1, 162406, Note_off_c, 0, 78, 56
1, 162409, Note_off_c, 0, 42, 65
1, 162410, Note_off_c, 0, 66, 60
1, 162411, Note_off_c, 0, 54, 66
1, 162463, Note_on_c, 0, 66, 84
1, 162464, Note_on_c, 0, 54, 77
1, 162466, Note_on_c, 0, 42, 73
1, 162467, Note_on_c, 0, 78, 78
1, 162491, Note_off_c, 0, 66, 65
1, 162491, Note_off_c, 0, 78, 65
1, 162506, Note_off_c, 0, 54, 63
1, 162507, Note_off_c, 0, 42, 65
1, 162563, Note_on_c, 0, 66, 90
1, 162564, Note_on_c, 0, 42, 82
1, 162565, Note_on_c, 0, 78, 85
1, 162569, Note_on_c, 0, 54, 74
1, 162589, Note_off_c, 0, 78, 56
1, 162591, Note_off_c, 0, 42, 66
1, 162593, Note_off_c, 0, 54, 65
1, 162599, Note_off_c, 0, 66, 62
1, 162655, Note_on_c, 0, 67, 86
1, 162657, Note_on_c, 0, 79, 84
1, 162661, Note_on_c, 0, 43, 75
1, 162664, Note_on_c, 0, 55, 77
1, 162682, Note_off_c, 0, 79, 63
1, 162684, Note_off_c, 0, 67, 59
1, 162691, Note_off_c, 0, 55, 65
1, 162696, Note_off_c, 0, 43, 61
1, 162744, Note_on_c, 0, 67, 82
1, 162744, Note_on_c, 0, 79, 86
1, 162747, Note_on_c, 0, 55, 78
1, 162751, Note_on_c, 0, 43, 82
1, 162792, Note_off_c, 0, 79, 59
1, 162795, Note_off_c, 0, 55, 63
1, 162795, Note_off_c, 0, 43, 64
1, 162799, Note_off_c, 0, 67, 59
1, 162879, Control_c, 0, 64, 86
1, 162880, Note_on_c, 0, 43, 78
1, 162889, Note_on_c, 0, 55, 84
1, 162893, Note_on_c, 0, 79, 81
1, 162893, Control_c, 0, 64, 55
1, 162894, Note_on_c, 0, 67, 86
1, 162908, Control_c, 0, 64, 0
1, 162938, Control_c, 0, 64, 56
1, 162953, Control_c, 0, 64, 72
1, 162966, Note_on_c, 0, 45, 40
1, 162968, Control_c, 0, 64, 96
1, 162980, Note_off_c, 0, 43, 63
1, 162983, Control_c, 0, 64, 127
1, 162991, Note_off_c, 0, 55, 63
1, 162994, Note_off_c, 0, 79, 60
1, 163000, Note_off_c, 0, 67, 59
1, 163001, Note_off_c, 0, 45, 51
1, 163010, Note_on_c, 0, 50, 26
1, 163064, Note_off_c, 0, 50, 45
1, 163091, Note_on_c, 0, 67, 85
1, 163092, Note_on_c, 0, 77, 74
1, 163093, Note_on_c, 0, 79, 80
1, 163096, Note_on_c, 0, 44, 81
1, 163096, Note_on_c, 0, 56, 85
1, 163145, Note_off_c, 0, 79, 63
1, 163146, Note_off_c, 0, 44, 62
1, 163150, Note_off_c, 0, 56, 66
1, 163150, Note_off_c, 0, 67, 63
1, 163166, Note_off_c, 0, 77, 61
1, 163226, Note_on_c, 0, 57, 91
1, 163227, Note_on_c, 0, 45, 78
1, 163228, Note_on_c, 0, 67, 89
1, 163228, Note_on_c, 0, 77, 70
1, 163236, Note_on_c, 0, 79, 81
1, 163270, Note_off_c, 0, 45, 65
1, 163276, Note_off_c, 0, 57, 66
1, 163280, Note_off_c, 0, 79, 59
1, 163286, Note_off_c, 0, 67, 64
1, 163291, Note_off_c, 0, 77, 63
1, 163347, Note_on_c, 0, 67, 92
1, 163349, Note_on_c, 0, 77, 79
1, 163350, Note_on_c, 0, 58, 91
1, 163352, Note_on_c, 0, 46, 80
1, 163355, Note_on_c, 0, 79, 81
1, 163383, Note_off_c, 0, 79, 61
1, 163389, Note_off_c, 0, 67, 64
1, 163391, Note_off_c, 0, 46, 63
1, 163394, Note_off_c, 0, 77, 64
1, 163394, Note_off_c, 0, 58, 67
1, 163454, Note_on_c, 0, 47, 80
1, 163455, Note_on_c, 0, 59, 87
1, 163455, Note_on_c, 0, 67, 99
1, 163460, Note_on_c, 0, 77, 83
1, 163461, Note_on_c, 0, 79, 82
1, 163481, Note_off_c, 0, 59, 62
1, 163483, Note_off_c, 0, 47, 65
1, 163487, Note_off_c, 0, 79, 64
1, 163495, Note_off_c, 0, 67, 62
1, 163499, Note_off_c, 0, 77, 62
1, 163555, Note_on_c, 0, 67, 94
1, 163556, Note_on_c, 0, 77, 78
1, 163558, Note_on_c, 0, 48, 77
1, 163561, Note_on_c, 0, 60, 81
1, 163562, Note_on_c, 0, 79, 83
1, 163570, Note_on_c, 0, 59, 69
1, 163573, Note_on_c, 0, 47, 51
1, 163581, Note_off_c, 0, 48, 66
1, 163585, Note_off_c, 0, 60, 68
1, 163588, Note_off_c, 0, 79, 65
1, 163590, Note_off_c, 0, 59, 70
1, 163594, Note_off_c, 0, 67, 65
1, 163600, Note_off_c, 0, 47, 57
1, 163600, Note_off_c, 0, 77, 65
1, 163658, Note_on_c, 0, 61, 98
1, 163660, Note_on_c, 0, 49, 87
1, 163660, Note_on_c, 0, 67, 95
1, 163660, Note_on_c, 0, 79, 86
1, 163663, Note_on_c, 0, 77, 79
1, 163686, Note_off_c, 0, 49, 68
1, 163699, Note_off_c, 0, 61, 62
1, 163702, Note_off_c, 0, 67, 65
1, 163706, Note_off_c, 0, 79, 62
1, 163711, Note_off_c, 0, 77, 61
1, 163773, Note_on_c, 0, 50, 85
1, 163773, Note_on_c, 0, 67, 99
1, 163774, Note_on_c, 0, 62, 87
1, 163776, Note_on_c, 0, 79, 84
1, 163779, Note_on_c, 0, 77, 79
1, 163798, Note_off_c, 0, 50, 69
1, 163806, Note_off_c, 0, 62, 57
1, 163811, Note_on_c, 0, 60, 36
1, 163812, Note_off_c, 0, 60, 127
1, 163812, Note_off_c, 0, 67, 66
1, 163819, Note_off_c, 0, 79, 62
1, 163826, Note_off_c, 0, 77, 63
1, 163890, Note_on_c, 0, 51, 82
1, 163890, Note_on_c, 0, 63, 93
1, 163895, Note_on_c, 0, 67, 94
1, 163895, Note_on_c, 0, 77, 85
1, 163900, Note_on_c, 0, 79, 82
1, 163910, Note_off_c, 0, 67, 75
1, 163923, Note_off_c, 0, 51, 64
1, 163925, Note_off_c, 0, 79, 66
1, 163926, Note_off_c, 0, 63, 63
1, 163929, Note_off_c, 0, 77, 63
1, 164033, Note_on_c, 0, 48, 75
1, 164081, Note_on_c, 0, 55, 79
1, 164086, Note_off_c, 0, 48, 62
1, 164110, Control_c, 0, 64, 107
1, 164125, Control_c, 0, 64, 69
1, 164130, Note_on_c, 0, 60, 78
1, 164140, Control_c, 0, 64, 0
1, 164141, Note_on_c, 0, 79, 78
1, 164143, Note_on_c, 0, 76, 100
1, 164145, Note_on_c, 0, 64, 101
1, 164147, Note_on_c, 0, 84, 87
1, 164147, Note_on_c, 0, 88, 95
1, 164174, Note_off_c, 0, 55, 60
1, 164184, Control_c, 0, 64, 84
1, 164192, Note_off_c, 0, 64, 66
1, 164199, Control_c, 0, 64, 127
1, 164215, Note_off_c, 0, 60, 60
1, 164233, Note_off_c, 0, 88, 66
1, 164244, Note_off_c, 0, 76, 63
1, 164262, Note_off_c, 0, 84, 65
1, 164300, Note_off_c, 0, 79, 61
1, 164855, Note_on_c, 0, 54, 76
1, 164864, Note_on_c, 0, 42, 75
1, 165007, Note_off_c, 0, 54, 61
1, 165086, Note_on_c, 0, 55, 69
1, 165099, Note_on_c, 0, 43, 66
1, 165105, Note_off_c, 0, 42, 37
1, 165112, Note_off_c, 0, 55, 66
1, 165157, Note_off_c, 0, 43, 60
1, 165178, Note_on_c, 0, 55, 74
1, 165182, Note_on_c, 0, 45, 69
1, 165226, Note_off_c, 0, 55, 61
1, 165243, Note_on_c, 0, 57, 65
1, 165245, Note_off_c, 0, 45, 62
1, 165251, Note_on_c, 0, 43, 72
1, 165274, Note_off_c, 0, 57, 65
1, 165290, Note_on_c, 0, 55, 63
1, 165299, Note_off_c, 0, 43, 60
1, 165306, Note_on_c, 0, 45, 79
1, 165313, Note_off_c, 0, 55, 70
1, 165335, Note_on_c, 0, 57, 68
1, 165369, Note_off_c, 0, 57, 64
1, 165371, Note_on_c, 0, 43, 80
1, 165382, Note_off_c, 0, 45, 62
1, 165383, Note_on_c, 0, 55, 71
1, 165411, Note_off_c, 0, 55, 68
1, 165418, Note_on_c, 0, 57, 74
1, 165428, Note_on_c, 0, 45, 78
1, 165436, Note_off_c, 0, 43, 63
1, 165466, Note_off_c, 0, 57, 66
1, 165469, Note_on_c, 0, 55, 87
1, 165503, Note_on_c, 0, 43, 82
1, 165514, Note_off_c, 0, 45, 62
1, 165529, Note_on_c, 0, 54, 91
1, 165533, Note_off_c, 0, 55, 64
1, 165561, Note_on_c, 0, 45, 75
1, 165564, Note_on_c, 0, 55, 61
1, 165568, Note_off_c, 0, 43, 62
1, 165578, Note_off_c, 0, 54, 65
1, 165593, Note_off_c, 0, 55, 68
1, 165612, Note_off_c, 0, 45, 61
1, 165669, Note_on_c, 0, 38, 59
1, 165671, Note_on_c, 0, 31, 85
1, 165743, Note_on_c, 0, 43, 95
1, 165748, Note_off_c, 0, 38, 38
1, 165771, Control_c, 0, 64, 80
1, 165786, Control_c, 0, 64, 0
1, 165791, Note_off_c, 0, 31, 64
1, 165795, Note_on_c, 0, 33, 3
1, 165811, Note_on_c, 0, 79, 85
1, 165812, Note_on_c, 0, 76, 99
1, 165812, Note_on_c, 0, 88, 103
1, 165815, Control_c, 0, 64, 53
1, 165824, Note_off_c, 0, 33, 56
1, 165830, Control_c, 0, 64, 80
1, 165837, Note_off_c, 0, 43, 65
1, 165845, Control_c, 0, 64, 127
1, 165848, Note_on_c, 0, 85, 47
1, 165867, Note_off_c, 0, 76, 66
1, 165874, Note_off_c, 0, 88, 69
1, 165875, Note_off_c, 0, 85, 54
1, 165902, Note_off_c, 0, 79, 63
1, 166051, Note_on_c, 0, 55, 82
1, 166102, Note_on_c, 0, 62, 77
1, 166110, Note_off_c, 0, 55, 64
1, 166141, Note_on_c, 0, 65, 77
1, 166166, Note_on_c, 0, 86, 98
1, 166166, Note_on_c, 0, 71, 99
1, 166168, Note_on_c, 0, 74, 100
1, 166170, Note_on_c, 0, 79, 83
1, 166208, Note_off_c, 0, 74, 66
1, 166211, Note_off_c, 0, 71, 64
1, 166212, Note_off_c, 0, 86, 66
1, 166226, Note_off_c, 0, 79, 65
1, 166228, Note_off_c, 0, 65, 60
1, 166245, Note_off_c, 0, 62, 30
1, 166395, Note_on_c, 0, 55, 80
1, 166452, Note_off_c, 0, 55, 64
1, 166454, Note_on_c, 0, 62, 77
1, 166476, Control_c, 0, 64, 86
1, 166491, Control_c, 0, 64, 53
1, 166494, Note_on_c, 0, 65, 71
1, 166505, Control_c, 0, 64, 0
1, 166515, Note_on_c, 0, 72, 108
1, 166515, Note_on_c, 0, 76, 102
1, 166515, Note_on_c, 0, 88, 101
1, 166518, Note_on_c, 0, 79, 88
1, 166518, Note_off_c, 0, 62, 58
1, 166520, Control_c, 0, 64, 59
1, 166535, Control_c, 0, 64, 77
1, 166549, Control_c, 0, 64, 127
1, 166557, Note_off_c, 0, 76, 67
1, 166562, Note_off_c, 0, 72, 65
1, 166564, Note_off_c, 0, 88, 69
1, 166578, Note_off_c, 0, 79, 66
1, 166579, Note_on_c, 0, 62, 35
1, 166589, Note_off_c, 0, 65, 64
1, 166616, Note_on_c, 0, 61, 5
1, 166670, Note_off_c, 0, 61, 50
1, 166710, Note_off_c, 0, 62, 53
1, 166733, Note_on_c, 0, 55, 81
1, 166796, Note_off_c, 0, 55, 63
1, 166800, Note_on_c, 0, 62, 76
1, 166858, Note_off_c, 0, 62, 59
1, 166859, Note_on_c, 0, 69, 71
1, 166883, Note_on_c, 0, 67, 42
1, 166887, Note_off_c, 0, 69, 68
1, 166912, Note_off_c, 0, 67, 53
1, 166913, Note_on_c, 0, 89, 104
1, 166915, Note_on_c, 0, 77, 108
1, 166916, Note_on_c, 0, 74, 99
1, 166941, Note_on_c, 0, 70, 48
1, 166942, Note_off_c, 0, 70, 127
1, 166945, Note_off_c, 0, 74, 66
1, 166962, Note_off_c, 0, 89, 67
1, 166968, Note_off_c, 0, 77, 65
1, 167252, Note_on_c, 0, 48, 77
1, 167296, Note_on_c, 0, 55, 69
1, 167302, Note_off_c, 0, 48, 53
1, 167314, Control_c, 0, 64, 119
1, 167328, Control_c, 0, 64, 78
1, 167332, Note_on_c, 0, 50, 17
1, 167336, Note_on_c, 0, 60, 83
1, 167343, Control_c, 0, 64, 0
1, 167351, Note_on_c, 0, 79, 77
1, 167356, Note_on_c, 0, 64, 98
1, 167356, Note_on_c, 0, 76, 101
1, 167356, Note_on_c, 0, 88, 95
1, 167356, Note_off_c, 0, 50, 43
1, 167362, Note_on_c, 0, 84, 82
1, 167372, Control_c, 0, 64, 47
1, 167380, Note_off_c, 0, 55, 65
1, 167387, Control_c, 0, 64, 76
1, 167402, Control_c, 0, 64, 127
1, 167410, Note_off_c, 0, 60, 60
1, 167412, Note_off_c, 0, 64, 67
1, 167422, Note_off_c, 0, 76, 70
1, 167453, Note_off_c, 0, 88, 64
1, 167457, Note_off_c, 0, 79, 63
1, 167465, Note_off_c, 0, 84, 64
1, 167767, Note_on_c, 0, 72, 111
1, 167768, Note_on_c, 0, 84, 99
1, 167770, Note_on_c, 0, 96, 100
1, 167771, Note_on_c, 0, 60, 92
1, 167821, Note_off_c, 0, 60, 61
1, 167830, Note_off_c, 0, 72, 59
1, 167837, Note_off_c, 0, 84, 61
1, 167851, Note_off_c, 0, 96, 64
1, 168019, Note_on_c, 0, 86, 96
1, 168021, Note_on_c, 0, 98, 97
1, 168025, Note_on_c, 0, 74, 92
1, 168027, Note_on_c, 0, 62, 85
1, 168059, Note_off_c, 0, 86, 66
1, 168063, Note_off_c, 0, 98, 66
1, 168065, Note_off_c, 0, 74, 63
1, 168073, Note_off_c, 0, 62, 61
1, 168116, Poly_aftertouch_c, 0, 69, 0
1, 168191, Note_on_c, 0, 84, 103
1, 168193, Note_on_c, 0, 96, 91
1, 168194, Note_on_c, 0, 60, 84
1, 168195, Note_on_c, 0, 72, 95
1, 168215, Note_off_c, 0, 72, 68
1, 168229, Note_off_c, 0, 84, 67
1, 168231, Note_off_c, 0, 96, 66
1, 168233, Note_off_c, 0, 60, 59
1, 168345, Note_on_c, 0, 91, 88
1, 168346, Note_on_c, 0, 55, 79
1, 168346, Note_on_c, 0, 79, 92
1, 168348, Note_on_c, 0, 67, 77
1, 168368, Note_off_c, 0, 55, 69
1, 168371, Note_off_c, 0, 79, 65
1, 168372, Note_off_c, 0, 67, 64
1, 168380, Note_off_c, 0, 91, 61
1, 168462, Note_on_c, 0, 69, 87
1, 168464, Note_on_c, 0, 57, 86
1, 168465, Note_on_c, 0, 81, 101
1, 168466, Note_on_c, 0, 93, 89
1, 168492, Note_off_c, 0, 69, 69
1, 168494, Note_off_c, 0, 81, 66
1, 168495, Note_off_c, 0, 93, 68
1, 168498, Note_off_c, 0, 57, 65
1, 168583, Note_on_c, 0, 79, 91
1, 168584, Note_on_c, 0, 91, 87
1, 168584, Note_on_c, 0, 67, 87
1, 168585, Note_on_c, 0, 55, 82
1, 168602, Note_off_c, 0, 79, 70
1, 168604, Note_off_c, 0, 91, 71
1, 168607, Note_off_c, 0, 55, 71
1, 168607, Note_off_c, 0, 67, 68
1, 168696, Note_on_c, 0, 76, 83
1, 168698, Note_on_c, 0, 88, 78
1, 168699, Note_on_c, 0, 52, 76
1, 168700, Note_on_c, 0, 64, 69
1, 168715, Note_off_c, 0, 76, 72
1, 168719, Note_off_c, 0, 88, 70
1, 168727, Note_off_c, 0, 52, 68
1, 168728, Note_off_c, 0, 64, 69
1, 168793, Note_on_c, 0, 77, 83
1, 168793, Note_on_c, 0, 89, 84
1, 168803, Note_on_c, 0, 53, 61
1, 168804, Note_on_c, 0, 67, 62
1, 168806, Note_on_c, 0, 65, 67
1, 168812, Note_on_c, 0, 55, 54
1, 168812, Note_off_c, 0, 89, 72
1, 168814, Note_off_c, 0, 77, 70
1, 168822, Note_off_c, 0, 67, 62
1, 168825, Note_off_c, 0, 65, 65
1, 168827, Note_off_c, 0, 53, 59
1, 168831, Note_off_c, 0, 55, 63
1, 168889, Note_on_c, 0, 88, 88
1, 168890, Note_on_c, 0, 76, 91
1, 168899, Note_on_c, 0, 64, 73
1, 168900, Note_on_c, 0, 52, 73
1, 168909, Note_off_c, 0, 88, 70
1, 168912, Note_off_c, 0, 76, 70
1, 168922, Note_off_c, 0, 64, 70
1, 168931, Note_off_c, 0, 52, 63
1, 168991, Note_on_c, 0, 72, 96
1, 168993, Note_on_c, 0, 84, 87
1, 168995, Note_on_c, 0, 48, 69
1, 168995, Note_on_c, 0, 60, 71
1, 169010, Note_off_c, 0, 72, 72
1, 169013, Note_off_c, 0, 84, 72
1, 169022, Note_off_c, 0, 48, 68
1, 169026, Note_off_c, 0, 60, 63
1, 169085, Note_on_c, 0, 74, 88
1, 169085, Note_on_c, 0, 86, 86
1, 169087, Note_on_c, 0, 50, 82
1, 169087, Note_on_c, 0, 62, 83
1, 169105, Note_off_c, 0, 86, 70
1, 169107, Note_off_c, 0, 74, 67
1, 169109, Note_off_c, 0, 62, 68
1, 169112, Note_off_c, 0, 50, 68
1, 169179, Note_on_c, 0, 84, 88
1, 169180, Note_on_c, 0, 72, 96
1, 169181, Note_on_c, 0, 48, 83
1, 169188, Note_on_c, 0, 60, 72
1, 169198, Note_off_c, 0, 72, 70
1, 169199, Note_off_c, 0, 84, 70
1, 169204, Note_off_c, 0, 48, 66
1, 169212, Note_off_c, 0, 60, 62
1, 169288, Note_on_c, 0, 67, 88
1, 169290, Note_on_c, 0, 43, 80
1, 169294, Note_on_c, 0, 55, 71
1, 169297, Note_on_c, 0, 79, 70
1, 169308, Note_off_c, 0, 67, 72
1, 169317, Note_off_c, 0, 43, 65
1, 169321, Note_on_c, 0, 69, 41
1, 169322, Note_off_c, 0, 69, 127
1, 169322, Note_off_c, 0, 79, 67
1, 169323, Note_off_c, 0, 55, 68
1, 169386, Note_on_c, 0, 45, 85
1, 169386, Note_on_c, 0, 57, 86
1, 169389, Note_on_c, 0, 69, 87
1, 169390, Note_on_c, 0, 81, 83
1, 169409, Note_off_c, 0, 57, 69
1, 169410, Note_off_c, 0, 69, 69
1, 169412, Note_off_c, 0, 81, 69
1, 169414, Note_off_c, 0, 45, 65
1, 169483, Note_on_c, 0, 67, 92
1, 169485, Note_on_c, 0, 43, 80
1, 169485, Note_on_c, 0, 79, 90
1, 169488, Note_on_c, 0, 55, 76
1, 169503, Note_off_c, 0, 67, 67
1, 169505, Note_off_c, 0, 79, 70
1, 169509, Note_off_c, 0, 43, 66
1, 169514, Note_off_c, 0, 55, 69
1, 169581, Note_on_c, 0, 64, 89
1, 169584, Note_on_c, 0, 76, 83
1, 169590, Note_on_c, 0, 52, 73
1, 169591, Note_on_c, 0, 40, 75
1, 169602, Note_off_c, 0, 64, 70
1, 169605, Note_off_c, 0, 76, 70
1, 169622, Note_off_c, 0, 52, 63
1, 169623, Note_off_c, 0, 40, 64
1, 169675, Note_on_c, 0, 65, 93
1, 169680, Note_on_c, 0, 77, 84
1, 169682, Note_on_c, 0, 41, 84
1, 169684, Note_on_c, 0, 53, 84
1, 169699, Note_off_c, 0, 65, 68
1, 169699, Note_off_c, 0, 77, 70
1, 169707, Note_off_c, 0, 53, 68
1, 169711, Note_off_c, 0, 41, 66
1, 169779, Note_on_c, 0, 76, 79
1, 169785, Note_on_c, 0, 52, 77
1, 169786, Note_on_c, 0, 64, 72
1, 169787, Note_on_c, 0, 62, 79
1, 169792, Note_on_c, 0, 40, 63
1, 169801, Note_off_c, 0, 76, 66
1, 169803, Note_on_c, 0, 74, 52
1, 169809, Note_off_c, 0, 52, 70
1, 169812, Note_off_c, 0, 62, 68
1, 169812, Note_off_c, 0, 64, 66
1, 169818, Note_off_c, 0, 40, 60
1, 169827, Note_off_c, 0, 74, 62
1, 169881, Note_on_c, 0, 60, 92
1, 169882, Note_on_c, 0, 72, 95
1, 169887, Poly_aftertouch_c, 0, 41, 0
1, 169888, Note_on_c, 0, 36, 74
1, 169890, Note_on_c, 0, 48, 66
1, 169900, Note_on_c, 0, 47, 54
1, 169906, Note_off_c, 0, 60, 63
1, 169908, Note_off_c, 0, 72, 64
1, 169915, Note_off_c, 0, 36, 65
1, 169916, Note_off_c, 0, 48, 62
1, 169928, Note_off_c, 0, 47, 54
1, 169958, Poly_aftertouch_c, 0, 35, 127
1, 169981, Note_on_c, 0, 62, 92
1, 169983, Note_on_c, 0, 50, 84
1, 169993, Note_on_c, 0, 38, 81
1, 169994, Note_on_c, 0, 74, 86
1, 170007, Poly_aftertouch_c, 0, 35, 0
1, 170015, Note_off_c, 0, 74, 68
1, 170019, Note_off_c, 0, 50, 67
1, 170027, Note_off_c, 0, 38, 65
1, 170030, Note_off_c, 0, 62, 56
1, 170097, Note_on_c, 0, 60, 98
1, 170098, Note_on_c, 0, 72, 99
1, 170103, Note_on_c, 0, 48, 85
1, 170108, Note_on_c, 0, 36, 80
1, 170123, Note_off_c, 0, 72, 67
1, 170125, Note_off_c, 0, 48, 66
1, 170128, Note_off_c, 0, 60, 65
1, 170138, Note_off_c, 0, 36, 64
1, 170226, Note_on_c, 0, 45, 94
1, 170229, Note_on_c, 0, 57, 94
1, 170230, Note_on_c, 0, 33, 85
1, 170232, Note_on_c, 0, 69, 91
1, 170245, Note_off_c, 0, 45, 72
1, 170248, Note_off_c, 0, 57, 72
1, 170251, Note_off_c, 0, 69, 72
1, 170255, Note_off_c, 0, 33, 65
1, 170367, Note_on_c, 0, 38, 84
1, 170371, Note_on_c, 0, 26, 73
1, 170371, Note_on_c, 0, 64, 76
1, 170372, Note_on_c, 0, 52, 69
1, 170386, Note_on_c, 0, 50, 47
1, 170391, Note_off_c, 0, 64, 70
1, 170394, Note_off_c, 0, 38, 65
1, 170396, Note_off_c, 0, 52, 69
1, 170399, Note_off_c, 0, 26, 57
1, 170412, Note_off_c, 0, 50, 58
1, 170531, Control_c, 0, 64, 84
1, 170546, Control_c, 0, 64, 0
1, 170549, Note_on_c, 0, 67, 100
1, 170551, Note_on_c, 0, 55, 98
1, 170554, Note_on_c, 0, 43, 94
1, 170557, Note_on_c, 0, 31, 79
1, 170588, Note_on_c, 0, 33, 44
1, 170589, Note_off_c, 0, 33, 127
1, 170590, Control_c, 0, 64, 39
1, 170590, Note_off_c, 0, 31, 64
1, 170605, Control_c, 0, 64, 84
1, 170608, Note_off_c, 0, 55, 64
1, 170610, Note_off_c, 0, 43, 64
1, 170620, Control_c, 0, 64, 127
1, 170641, Poly_aftertouch_c, 0, 65, 127
1, 170641, Note_off_c, 0, 67, 64
1, 170671, Poly_aftertouch_c, 0, 60, 0
1, 170682, Poly_aftertouch_c, 0, 65, 0
1, 170904, Note_on_c, 0, 63, 95
1, 170904, Note_on_c, 0, 87, 95
1, 170905, Note_on_c, 0, 75, 95
1, 170906, Note_on_c, 0, 51, 83
1, 170987, Note_off_c, 0, 87, 64
1, 170993, Note_off_c, 0, 75, 61
1, 171004, Note_off_c, 0, 63, 60
1, 171010, Note_off_c, 0, 51, 62
1, 171097, Note_on_c, 0, 86, 87
1, 171099, Note_on_c, 0, 74, 87
1, 171102, Note_on_c, 0, 62, 83
1, 171107, Note_on_c, 0, 50, 77
1, 171129, Note_off_c, 0, 62, 64
1, 171133, Note_off_c, 0, 50, 66
1, 171133, Note_off_c, 0, 74, 64
1, 171136, Note_off_c, 0, 86, 62
1, 171212, Note_on_c, 0, 61, 80
1, 171212, Note_on_c, 0, 85, 81
1, 171213, Note_on_c, 0, 49, 76
1, 171216, Note_on_c, 0, 73, 82
1, 171222, Poly_aftertouch_c, 0, 60, 0
1, 171236, Note_off_c, 0, 61, 68
1, 171238, Note_off_c, 0, 85, 65
1, 171240, Note_off_c, 0, 49, 65
1, 171244, Note_off_c, 0, 73, 64
1, 171299, Note_on_c, 0, 60, 87
1, 171305, Note_on_c, 0, 48, 72
1, 171306, Note_on_c, 0, 72, 89
1, 171310, Note_on_c, 0, 84, 76
1, 171319, Note_off_c, 0, 60, 70
1, 171326, Note_off_c, 0, 72, 71
1, 171330, Note_off_c, 0, 48, 65
1, 171332, Note_off_c, 0, 84, 68
1, 171392, Note_on_c, 0, 71, 84
1, 171394, Note_on_c, 0, 83, 85
1, 171400, Note_on_c, 0, 59, 84
1, 171411, Note_off_c, 0, 71, 72
1, 171413, Note_off_c, 0, 83, 74
1, 171419, Note_off_c, 0, 59, 72
1, 171422, Note_on_c, 0, 47, 43
1, 171454, Note_off_c, 0, 47, 52
1, 171487, Note_on_c, 0, 70, 90
1, 171487, Note_on_c, 0, 82, 85
1, 171488, Note_on_c, 0, 58, 86
1, 171490, Note_on_c, 0, 46, 85
1, 171510, Note_off_c, 0, 70, 65
1, 171510, Note_off_c, 0, 82, 66
1, 171526, Note_off_c, 0, 46, 65
1, 171528, Note_off_c, 0, 58, 63
1, 171570, Note_on_c, 0, 69, 87
1, 171574, Note_on_c, 0, 81, 86
1, 171583, Note_on_c, 0, 47, 50
1, 171588, Note_on_c, 0, 57, 58
1, 171588, Note_on_c, 0, 59, 61
1, 171589, Note_off_c, 0, 69, 72
1, 171595, Note_on_c, 0, 45, 57
1, 171595, Note_off_c, 0, 81, 71
1, 171604, Note_off_c, 0, 59, 66
1, 171607, Note_off_c, 0, 47, 61
1, 171610, Note_off_c, 0, 57, 57
1, 171620, Note_off_c, 0, 45, 57
1, 171647, Note_on_c, 0, 68, 95
1, 171652, Note_on_c, 0, 80, 86
1, 171664, Note_on_c, 0, 56, 83
1, 171669, Note_on_c, 0, 44, 78
1, 171682, Note_off_c, 0, 80, 60
1, 171691, Note_off_c, 0, 56, 67
1, 171693, Note_off_c, 0, 68, 63
1, 171700, Note_off_c, 0, 44, 65
1, 171740, Note_on_c, 0, 67, 84
1, 171744, Note_on_c, 0, 55, 90
1, 171746, Note_on_c, 0, 79, 75
1, 171752, Note_on_c, 0, 45, 62
1, 171758, Note_on_c, 0, 43, 57
1, 171761, Note_off_c, 0, 67, 70
1, 171766, Note_off_c, 0, 55, 71
1, 171772, Note_off_c, 0, 79, 67
1, 171784, Note_off_c, 0, 45, 64
1, 171789, Note_off_c, 0, 43, 62
1, 171822, Note_on_c, 0, 66, 99
1, 171827, Note_on_c, 0, 78, 88
1, 171837, Note_on_c, 0, 54, 91
1, 171841, Note_on_c, 0, 42, 86
1, 171854, Note_off_c, 0, 78, 60
1, 171863, Note_off_c, 0, 66, 64
1, 171875, Note_off_c, 0, 54, 63
1, 171876, Note_off_c, 0, 42, 65
1, 171921, Note_on_c, 0, 41, 87
1, 171921, Note_on_c, 0, 53, 89
1, 171933, Note_on_c, 0, 79, 65
1, 171937, Note_on_c, 0, 67, 31
1, 171938, Note_off_c, 0, 67, 127
1, 171951, Note_off_c, 0, 79, 62
1, 171955, Note_off_c, 0, 53, 60
1, 171967, Note_off_c, 0, 41, 63
1, 172075, Note_on_c, 0, 52, 97
1, 172078, Note_on_c, 0, 40, 87
1, 172087, Control_c, 0, 64, 116
1, 172100, Note_on_c, 0, 76, 98
1, 172101, Note_on_c, 0, 88, 101
1, 172102, Control_c, 0, 64, 74
1, 172107, Note_on_c, 0, 80, 92
1, 172117, Control_c, 0, 64, 0
1, 172161, Control_c, 0, 64, 64
1, 172176, Control_c, 0, 64, 82
1, 172178, Poly_aftertouch_c, 0, 41, 127
1, 172180, Note_off_c, 0, 52, 60
1, 172182, Note_off_c, 0, 40, 63
1, 172191, Control_c, 0, 64, 127
1, 172206, Poly_aftertouch_c, 0, 41, 0
1, 172240, Note_off_c, 0, 76, 63
1, 172252, Note_off_c, 0, 88, 65
1, 172304, Note_on_c, 0, 51, 80
1, 172306, Note_off_c, 0, 80, 64
1, 172307, Note_on_c, 0, 39, 76
1, 172331, Note_off_c, 0, 51, 67
1, 172346, Note_off_c, 0, 39, 64
1, 172411, Note_on_c, 0, 50, 85
1, 172417, Note_on_c, 0, 38, 71
1, 172450, Note_off_c, 0, 38, 65
1, 172459, Note_off_c, 0, 50, 62
1, 172523, Note_on_c, 0, 49, 90
1, 172525, Note_on_c, 0, 37, 82
1, 172573, Note_off_c, 0, 49, 64
1, 172574, Note_off_c, 0, 37, 59
1, 172629, Note_on_c, 0, 48, 89
1, 172634, Note_on_c, 0, 36, 86
1, 172665, Note_off_c, 0, 36, 67
1, 172672, Note_off_c, 0, 48, 62
1, 172693, Note_on_c, 0, 78, 44
1, 172712, Note_on_c, 0, 82, 22
1, 172723, Note_on_c, 0, 47, 51
1, 172736, Note_on_c, 0, 35, 84
1, 172744, Note_off_c, 0, 78, 44
1, 172760, Note_off_c, 0, 35, 64
1, 172777, Note_off_c, 0, 47, 62
1, 172784, Note_off_c, 0, 82, 61
1, 172807, Control_c, 0, 64, 89
1, 172822, Control_c, 0, 64, 63
1, 172829, Note_on_c, 0, 74, 97
1, 172831, Note_on_c, 0, 86, 91
1, 172832, Note_on_c, 0, 77, 91
1, 172836, Note_on_c, 0, 46, 87
1, 172837, Control_c, 0, 64, 0
1, 172846, Note_on_c, 0, 34, 68
1, 172852, Control_c, 0, 64, 42
1, 172856, Note_on_c, 0, 44, 64
1, 172859, Note_on_c, 0, 33, 60
1, 172867, Control_c, 0, 64, 78
1, 172877, Note_on_c, 0, 39, 32
1, 172882, Control_c, 0, 64, 127
1, 172884, Note_off_c, 0, 46, 65
1, 172888, Note_off_c, 0, 34, 61
1, 172888, Note_off_c, 0, 44, 38
1, 172889, Note_off_c, 0, 33, 60
1, 172890, Note_off_c, 0, 86, 68
1, 172893, Note_off_c, 0, 74, 67
1, 172916, Note_off_c, 0, 77, 64
1, 172965, Note_on_c, 0, 45, 96
1, 172969, Note_on_c, 0, 33, 75
1, 173002, Note_off_c, 0, 39, 27
1, 173009, Note_off_c, 0, 33, 66
1, 173014, Note_off_c, 0, 45, 65
1, 173049, Poly_aftertouch_c, 0, 34, 127
1, 173085, Note_on_c, 0, 44, 94
1, 173087, Note_on_c, 0, 32, 88
1, 173136, Note_off_c, 0, 44, 61
1, 173140, Note_off_c, 0, 32, 61
1, 173149, Poly_aftertouch_c, 0, 34, 0
1, 173200, Control_c, 0, 64, 107
1, 173211, Note_on_c, 0, 67, 103
1, 173212, Note_on_c, 0, 71, 91
1, 173212, Note_on_c, 0, 79, 103
1, 173213, Note_on_c, 0, 43, 95
1, 173214, Note_on_c, 0, 31, 90
1, 173215, Control_c, 0, 64, 73
1, 173230, Control_c, 0, 64, 0
1, 173259, Control_c, 0, 64, 67
1, 173260, Note_off_c, 0, 31, 64
1, 173270, Note_off_c, 0, 43, 63
1, 173274, Control_c, 0, 64, 89
1, 173289, Control_c, 0, 64, 127
1, 173307, Note_off_c, 0, 67, 66
1, 173357, Note_off_c, 0, 71, 62
1, 173359, Note_on_c, 0, 30, 78
1, 173362, Note_off_c, 0, 79, 54
1, 173363, Note_on_c, 0, 42, 84
1, 173406, Note_off_c, 0, 30, 62
1, 173422, Note_off_c, 0, 42, 60
1, 173481, Note_on_c, 0, 43, 75
1, 173509, Note_off_c, 0, 43, 64
1, 173618, Note_on_c, 0, 49, 29
1, 173622, Note_on_c, 0, 43, 70
1, 173662, Note_on_c, 0, 50, 82
1, 173671, Note_off_c, 0, 43, 62
1, 173690, Control_c, 0, 64, 110
1, 173696, Note_on_c, 0, 53, 70
1, 173705, Control_c, 0, 64, 70
1, 173710, Note_on_c, 0, 74, 102
1, 173710, Note_on_c, 0, 77, 87
1, 173710, Note_on_c, 0, 79, 89
1, 173712, Note_off_c, 0, 49, 30
1, 173714, Note_on_c, 0, 86, 93
1, 173716, Note_on_c, 0, 59, 102
1, 173720, Control_c, 0, 64, 0
1, 173753, Note_off_c, 0, 50, 64
1, 173771, Control_c, 0, 64, 69
1, 173773, Note_off_c, 0, 59, 64
1, 173774, Note_off_c, 0, 53, 62
1, 173779, Note_on_c, 0, 82, 6
1, 173786, Control_c, 0, 64, 106
1, 173800, Note_off_c, 0, 82, 46
1, 173801, Control_c, 0, 64, 127
1, 173838, Note_off_c, 0, 74, 64
1, 173892, Note_off_c, 0, 79, 58
1, 173894, Note_off_c, 0, 77, 60
1, 173935, Note_off_c, 0, 86, 62
1, 174269, Note_on_c, 0, 88, 98
1, 174270, Note_on_c, 0, 100, 101
1, 174271, Note_on_c, 0, 76, 97
1, 174275, Note_on_c, 0, 64, 78
1, 174301, Note_off_c, 0, 64, 65
1, 174304, Note_on_c, 0, 65, 51
1, 174305, Note_off_c, 0, 65, 127
1, 174311, Note_off_c, 0, 76, 64
1, 174317, Note_off_c, 0, 100, 67
1, 174319, Note_off_c, 0, 88, 66
1, 174506, Note_on_c, 0, 86, 95
1, 174506, Note_on_c, 0, 98, 95
1, 174513, Note_on_c, 0, 62, 86
1, 174513, Note_on_c, 0, 74, 86
1, 174532, Note_off_c, 0, 74, 72
1, 174538, Note_off_c, 0, 86, 68
1, 174539, Note_off_c, 0, 98, 69
1, 174546, Note_off_c, 0, 62, 60
1, 174671, Note_on_c, 0, 81, 101
1, 174671, Note_on_c, 0, 93, 91
1, 174674, Note_on_c, 0, 69, 86
1, 174678, Note_on_c, 0, 57, 84
1, 174692, Note_off_c, 0, 93, 67
1, 174694, Note_off_c, 0, 81, 68
1, 174697, Note_off_c, 0, 69, 68
1, 174702, Note_off_c, 0, 57, 69
1, 174814, Note_on_c, 0, 55, 87
1, 174814, Note_on_c, 0, 67, 89
1, 174817, Note_on_c, 0, 79, 88
1, 174822, Note_on_c, 0, 91, 84
1, 174832, Note_off_c, 0, 67, 72
1, 174835, Note_off_c, 0, 79, 72
1, 174841, Note_off_c, 0, 55, 67
1, 174841, Note_off_c, 0, 91, 71
1, 174941, Note_on_c, 0, 64, 96
1, 174945, Note_on_c, 0, 52, 91
1, 174952, Note_on_c, 0, 76, 94
1, 174957, Note_on_c, 0, 88, 83
1, 174964, Note_off_c, 0, 64, 68
1, 174971, Note_off_c, 0, 52, 68
1, 174971, Note_off_c, 0, 76, 72
1, 174978, Note_off_c, 0, 88, 71
1, 175068, Note_on_c, 0, 62, 80
1, 175072, Note_on_c, 0, 74, 94
1, 175073, Note_on_c, 0, 50, 78
1, 175078, Note_on_c, 0, 86, 80
1, 175088, Note_off_c, 0, 62, 69
1, 175091, Note_off_c, 0, 74, 71
1, 175094, Note_on_c, 0, 52, 54
1, 175095, Note_off_c, 0, 86, 72
1, 175099, Note_off_c, 0, 50, 69
1, 175116, Note_off_c, 0, 52, 59
1, 175211, Note_on_c, 0, 57, 81
1, 175219, Note_on_c, 0, 45, 72
1, 175222, Note_on_c, 0, 69, 66
1, 175232, Note_on_c, 0, 47, 61
1, 175236, Note_on_c, 0, 71, 55
1, 175238, Note_off_c, 0, 57, 70
1, 175245, Note_off_c, 0, 69, 67
1, 175246, Note_on_c, 0, 81, 48
1, 175247, Note_on_c, 0, 83, 39
1, 175254, Note_off_c, 0, 47, 59
1, 175256, Note_off_c, 0, 45, 62
1, 175257, Note_off_c, 0, 71, 61
1, 175275, Note_off_c, 0, 81, 34
1, 175279, Note_off_c, 0, 83, 58
1, 175367, Note_on_c, 0, 55, 89
1, 175369, Note_on_c, 0, 43, 94
1, 175372, Note_on_c, 0, 67, 87
1, 175389, Note_off_c, 0, 55, 71
1, 175392, Note_off_c, 0, 67, 69
1, 175398, Note_off_c, 0, 43, 64
1, 175407, Note_on_c, 0, 77, 28
1, 175408, Note_off_c, 0, 77, 127
1, 175526, Poly_aftertouch_c, 0, 67, 0
1, 175541, Note_on_c, 0, 63, 42
1, 175569, Note_on_c, 0, 55, 89
1, 175571, Note_on_c, 0, 41, 88
1, 175573, Note_on_c, 0, 67, 73
1, 175577, Note_off_c, 0, 63, 54
1, 175578, Note_on_c, 0, 29, 81
1, 175589, Note_off_c, 0, 55, 69
1, 175592, Note_off_c, 0, 41, 67
1, 175608, Note_off_c, 0, 29, 65
1, 175610, Note_off_c, 0, 67, 62
1, 175613, Note_on_c, 0, 65, 32
1, 175614, Note_off_c, 0, 65, 127
1, 175647, Poly_aftertouch_c, 0, 32, 127
1, 175687, Poly_aftertouch_c, 0, 32, 0
1, 175829, Note_on_c, 0, 31, 31
1, 175845, Note_on_c, 0, 24, 78
1, 175846, Note_on_c, 0, 36, 99
1, 175847, Control_c, 0, 64, 81
1, 175853, Note_on_c, 0, 64, 79
1, 175854, Note_on_c, 0, 60, 91
1, 175855, Note_on_c, 0, 72, 94
1, 175861, Control_c, 0, 64, 0
1, 175863, Note_off_c, 0, 31, 58
1, 175869, Poly_aftertouch_c, 0, 28, 0
1, 175883, Note_off_c, 0, 24, 66
1, 175906, Control_c, 0, 64, 64
1, 175916, Note_off_c, 0, 36, 65
1, 175921, Control_c, 0, 64, 83
1, 175935, Control_c, 0, 64, 127
1, 176036, Note_on_c, 0, 31, 60
1, 176036, Note_on_c, 0, 43, 76
1, 176081, Note_off_c, 0, 31, 62
1, 176083, Note_off_c, 0, 43, 61
1, 176151, Note_on_c, 0, 43, 75
1, 176161, Note_on_c, 0, 31, 63
1, 176182, Note_off_c, 0, 43, 62
1, 176196, Note_off_c, 0, 31, 54
1, 176239, Control_c, 0, 64, 95
1, 176242, Note_on_c, 0, 43, 90
1, 176251, Note_on_c, 0, 31, 72
1, 176254, Control_c, 0, 64, 65
1, 176269, Control_c, 0, 64, 55
1, 176272, Note_off_c, 0, 31, 60
1, 176283, Note_off_c, 0, 43, 66
1, 176284, Control_c, 0, 64, 66
1, 176299, Control_c, 0, 64, 78
1, 176313, Control_c, 0, 64, 111
1, 176328, Control_c, 0, 64, 127
1, 176374, Note_on_c, 0, 48, 75
1, 176387, Note_on_c, 0, 36, 63
1, 176424, Note_off_c, 0, 36, 62
1, 176430, Note_off_c, 0, 48, 61
1, 176503, Note_on_c, 0, 48, 72
1, 176505, Note_on_c, 0, 36, 68
1, 176551, Note_off_c, 0, 36, 63
1, 176555, Note_off_c, 0, 48, 60
1, 176580, Control_c, 0, 64, 83
1, 176595, Control_c, 0, 64, 50
1, 176609, Control_c, 0, 64, 0
1, 176624, Control_c, 0, 64, 64
1, 176626, Note_on_c, 0, 48, 79
1, 176639, Control_c, 0, 64, 76
1, 176640, Note_on_c, 0, 36, 52
1, 176654, Control_c, 0, 64, 124
1, 176661, Note_off_c, 0, 48, 63
1, 176669, Control_c, 0, 64, 127
1, 176675, Note_off_c, 0, 36, 52
1, 176786, Note_on_c, 0, 43, 56
1, 176787, Note_on_c, 0, 55, 49
1, 176794, Note_off_c, 0, 60, 40
1, 176825, Note_off_c, 0, 43, 61
1, 176831, Note_off_c, 0, 55, 47
1, 176938, Note_on_c, 0, 43, 45
1, 176941, Note_on_c, 0, 55, 44
1, 176972, Note_off_c, 0, 43, 59
1, 177014, Note_off_c, 0, 55, 40
1, 177017, Control_c, 0, 64, 92
1, 177032, Control_c, 0, 64, 69
1, 177047, Control_c, 0, 64, 46
1, 177062, Control_c, 0, 64, 60
1, 177069, Note_on_c, 0, 43, 52
1, 177076, Control_c, 0, 64, 67
1, 177086, Note_on_c, 0, 55, 49
1, 177091, Control_c, 0, 64, 77
1, 177106, Control_c, 0, 64, 100
1, 177106, Note_off_c, 0, 43, 62
1, 177120, Control_c, 0, 64, 127
1, 177130, Note_off_c, 0, 55, 64
1, 177152, Note_off_c, 0, 72, 54
1, 177220, Note_off_c, 0, 64, 60
1, 177269, Note_on_c, 0, 60, 50
1, 177274, Note_on_c, 0, 48, 41
1, 177351, Note_off_c, 0, 60, 48
1, 177361, Note_off_c, 0, 48, 33
1, 177515, Note_on_c, 0, 60, 32
1, 177515, Note_on_c, 0, 48, 40
1, 177580, Note_off_c, 0, 48, 52
1, 177636, Note_off_c, 0, 60, 35
1, 178003, Control_c, 0, 64, 122
1, 178017, Control_c, 0, 64, 101
1, 178018, Note_on_c, 0, 48, 38
1, 178032, Control_c, 0, 64, 80
1, 178045, Note_on_c, 0, 60, 21
1, 178047, Control_c, 0, 64, 0
1, 178106, Control_c, 0, 64, 56
1, 178121, Control_c, 0, 64, 68
1, 178136, Control_c, 0, 64, 80
1, 178152, Control_c, 0, 64, 98
1, 178166, Control_c, 0, 64, 106
1, 178181, Control_c, 0, 64, 109
1, 178196, Control_c, 0, 64, 112
1, 178200, Note_off_c, 0, 60, 35
1, 178211, Control_c, 0, 64, 114
1, 178233, Control_c, 0, 64, 114
1, 178248, Control_c, 0, 64, 115
1, 178263, Control_c, 0, 64, 116
1, 178266, Note_off_c, 0, 48, 38
1, 178278, Control_c, 0, 64, 121
1, 178293, Control_c, 0, 64, 127
1, 178345, Note_on_c, 0, 60, 30
1, 178377, Note_on_c, 0, 72, 41
1, 178381, Note_on_c, 0, 67, 10
1, 178385, Note_on_c, 0, 75, 33
1, 178385, Note_off_c, 0, 60, 48
1, 178417, Poly_aftertouch_c, 0, 51, 127
1, 178420, Note_on_c, 0, 51, 3
1, 178435, Note_off_c, 0, 67, 47
1, 178442, Note_off_c, 0, 75, 58
1, 178444, Note_off_c, 0, 72, 53
1, 178462, Note_off_c, 0, 51, 51
1, 178546, Note_on_c, 0, 67, 37
1, 178546, Note_on_c, 0, 75, 51
1, 178549, Note_on_c, 0, 63, 43
1, 178582, Note_on_c, 0, 55, 17
1, 178582, Note_off_c, 0, 67, 50
1, 178583, Note_off_c, 0, 63, 64
1, 178589, Note_off_c, 0, 75, 57
1, 178612, Poly_aftertouch_c, 0, 72, 127
1, 178645, Note_off_c, 0, 55, 44
1, 178665, Note_on_c, 0, 79, 74
1, 178670, Note_on_c, 0, 51, 52
1, 178674, Poly_aftertouch_c, 0, 72, 0
1, 178674, Note_on_c, 0, 67, 52
1, 178702, Note_off_c, 0, 67, 58
1, 178705, Note_off_c, 0, 51, 59
1, 178728, Poly_aftertouch_c, 0, 60, 127
1, 178761, Poly_aftertouch_c, 0, 60, 0
1, 178775, Note_on_c, 0, 67, 70
1, 178782, Note_on_c, 0, 75, 61
1, 178788, Note_on_c, 0, 55, 43
1, 178788, Note_on_c, 0, 72, 61
1, 178791, Note_on_c, 0, 63, 55
1, 178800, Note_off_c, 0, 67, 67
1, 178809, Note_off_c, 0, 75, 66
1, 178816, Note_off_c, 0, 72, 64
1, 178819, Note_off_c, 0, 63, 63
1, 178844, Note_off_c, 0, 55, 56
1, 178890, Note_on_c, 0, 75, 51
1, 178895, Note_on_c, 0, 51, 51
1, 178905, Note_on_c, 0, 67, 26
1, 178910, Note_on_c, 0, 72, 43
1, 178913, Note_off_c, 0, 75, 61
1, 178922, Note_off_c, 0, 51, 58
1, 178936, Note_off_c, 0, 67, 54
1, 178937, Note_off_c, 0, 72, 56
1, 178997, Control_c, 0, 64, 99
1, 179004, Note_on_c, 0, 75, 58
1, 179011, Control_c, 0, 64, 74
1, 179016, Note_on_c, 0, 41, 60
1, 179026, Control_c, 0, 64, 59
1, 179029, Note_on_c, 0, 68, 52
1, 179032, Note_on_c, 0, 72, 60
1, 179041, Control_c, 0, 64, 63
1, 179043, Note_off_c, 0, 41, 60
1, 179046, Note_off_c, 0, 75, 60
1, 179051, Note_on_c, 0, 53, 17
1, 179056, Note_off_c, 0, 68, 55
1, 179056, Control_c, 0, 64, 69
1, 179064, Note_off_c, 0, 72, 66
1, 179071, Control_c, 0, 64, 82
1, 179080, Note_off_c, 0, 53, 44
1, 179086, Control_c, 0, 64, 112
1, 179101, Control_c, 0, 64, 127
1, 179151, Note_on_c, 0, 72, 60
1, 179152, Note_on_c, 0, 68, 48
1, 179157, Note_on_c, 0, 75, 55
1, 179175, Note_on_c, 0, 60, 56
1, 179177, Note_off_c, 0, 68, 59
1, 179178, Note_on_c, 0, 53, 45
1, 179184, Note_off_c, 0, 75, 63
1, 179186, Note_off_c, 0, 72, 65
1, 179213, Note_off_c, 0, 60, 62
1, 179214, Note_off_c, 0, 53, 48
1, 179256, Note_on_c, 0, 68, 61
1, 179256, Note_on_c, 0, 75, 70
1, 179264, Note_on_c, 0, 56, 64
1, 179265, Note_off_c, 0, 79, 60
1, 179268, Note_on_c, 0, 63, 58
1, 179272, Note_on_c, 0, 72, 58
1, 179292, Note_off_c, 0, 63, 64
1, 179296, Note_off_c, 0, 68, 54
1, 179306, Note_off_c, 0, 56, 54
1, 179322, Note_off_c, 0, 75, 61
1, 179363, Note_on_c, 0, 80, 91
1, 179375, Note_on_c, 0, 53, 52
1, 179378, Note_on_c, 0, 60, 62
1, 179396, Note_off_c, 0, 72, 61
1, 179406, Note_off_c, 0, 53, 60
1, 179414, Note_off_c, 0, 60, 62
1, 179476, Note_on_c, 0, 56, 61
1, 179479, Note_on_c, 0, 63, 62
1, 179498, Note_on_c, 0, 75, 48
1, 179506, Note_off_c, 0, 63, 66
1, 179520, Note_off_c, 0, 56, 56
1, 179520, Note_off_c, 0, 75, 60
1, 179593, Note_on_c, 0, 53, 64
1, 179595, Note_on_c, 0, 75, 55
1, 179601, Note_on_c, 0, 68, 59
1, 179622, Note_off_c, 0, 53, 64
1, 179625, Note_off_c, 0, 75, 65
1, 179626, Note_off_c, 0, 68, 61
1, 179637, Poly_aftertouch_c, 0, 60, 127
1, 179667, Poly_aftertouch_c, 0, 60, 0
1, 179746, Control_c, 0, 64, 99
1, 179756, Note_on_c, 0, 35, 60
1, 179761, Control_c, 0, 64, 71
1, 179776, Control_c, 0, 64, 28
1, 179780, Note_on_c, 0, 47, 49
1, 179785, Note_on_c, 0, 74, 58
1, 179791, Control_c, 0, 64, 39
1, 179796, Note_on_c, 0, 67, 37
1, 179797, Note_off_c, 0, 35, 59
1, 179800, Note_on_c, 0, 65, 51
1, 179806, Control_c, 0, 64, 61
1, 179820, Control_c, 0, 64, 68
1, 179828, Note_off_c, 0, 65, 54
1, 179835, Control_c, 0, 64, 80
1, 179845, Note_off_c, 0, 67, 46
1, 179847, Note_off_c, 0, 47, 58
1, 179850, Control_c, 0, 64, 109
1, 179854, Note_off_c, 0, 74, 62
1, 179865, Control_c, 0, 64, 127
1, 179899, Note_off_c, 0, 80, 64
1, 179927, Poly_aftertouch_c, 0, 76, 0
1, 179943, Note_on_c, 0, 47, 57
1, 179943, Note_on_c, 0, 74, 52
1, 179959, Note_on_c, 0, 65, 47
1, 179959, Note_on_c, 0, 67, 22
1, 179965, Note_on_c, 0, 55, 35
1, 179974, Note_off_c, 0, 47, 64
1, 179998, Note_off_c, 0, 65, 51
1, 180007, Note_off_c, 0, 67, 47
1, 180009, Note_off_c, 0, 55, 56
1, 180046, Note_on_c, 0, 79, 89
1, 180058, Note_on_c, 0, 71, 28
1, 180066, Note_on_c, 0, 50, 54
1, 180072, Note_on_c, 0, 62, 44
1, 180096, Note_off_c, 0, 71, 51
1, 180098, Note_off_c, 0, 62, 53
1, 180099, Note_off_c, 0, 74, 35
1, 180165, Note_on_c, 0, 47, 70
1, 180166, Note_on_c, 0, 74, 56
1, 180177, Note_off_c, 0, 50, 58
1, 180197, Note_on_c, 0, 55, 51
1, 180198, Note_off_c, 0, 47, 62
1, 180202, Note_on_c, 0, 65, 17
1, 180207, Note_off_c, 0, 74, 62
1, 180229, Poly_aftertouch_c, 0, 67, 127
1, 180234, Note_off_c, 0, 55, 63
1, 180241, Note_off_c, 0, 65, 54
1, 180287, Note_on_c, 0, 74, 70
1, 180295, Note_on_c, 0, 50, 62
1, 180311, Note_on_c, 0, 62, 31
1, 180338, Poly_aftertouch_c, 0, 67, 0
1, 180339, Note_off_c, 0, 74, 49
1, 180343, Note_off_c, 0, 62, 47
1, 180429, Note_on_c, 0, 55, 53
1, 180436, Note_on_c, 0, 74, 74
1, 180439, Note_on_c, 0, 47, 55
1, 180458, Note_off_c, 0, 55, 61
1, 180460, Note_off_c, 0, 50, 49
1, 180474, Note_on_c, 0, 67, 34
1, 180477, Note_off_c, 0, 47, 63
1, 180489, Note_off_c, 0, 79, 56
1, 180614, Control_c, 0, 64, 92
1, 180629, Control_c, 0, 64, 68
1, 180630, Note_on_c, 0, 36, 54
1, 180632, Note_off_c, 0, 67, 50
1, 180634, Note_on_c, 0, 48, 60
1, 180643, Control_c, 0, 64, 0
1, 180658, Control_c, 0, 64, 12
1, 180673, Control_c, 0, 64, 61
1, 180688, Control_c, 0, 64, 70
1, 180697, Note_off_c, 0, 36, 63
1, 180702, Control_c, 0, 64, 85
1, 180713, Note_off_c, 0, 74, 59
1, 180717, Control_c, 0, 64, 116
1, 180731, Note_off_c, 0, 48, 62
1, 180732, Control_c, 0, 64, 127
1, 180787, Note_on_c, 0, 75, 64
1, 180811, Note_on_c, 0, 67, 44
1, 180811, Note_on_c, 0, 72, 24
1, 180833, Note_off_c, 0, 75, 58
1, 180838, Note_off_c, 0, 67, 55
1, 180855, Note_off_c, 0, 72, 44
1, 180875, Note_on_c, 0, 48, 53
1, 180910, Note_off_c, 0, 48, 62
1, 180922, Note_on_c, 0, 55, 47
1, 180944, Note_on_c, 0, 77, 65
1, 180949, Note_on_c, 0, 72, 53
1, 180964, Note_on_c, 0, 67, 26
1, 180975, Note_off_c, 0, 72, 58
1, 180982, Note_off_c, 0, 55, 59
1, 180985, Note_off_c, 0, 77, 55
1, 180999, Note_off_c, 0, 67, 47
1, 181047, Note_on_c, 0, 51, 48
1, 181056, Note_on_c, 0, 75, 68
1, 181063, Note_on_c, 0, 67, 53
1, 181069, Note_on_c, 0, 63, 15
1, 181083, Note_off_c, 0, 67, 64
1, 181086, Note_off_c, 0, 75, 63
1, 181108, Note_off_c, 0, 51, 54
1, 181117, Note_off_c, 0, 63, 53
1, 181153, Note_on_c, 0, 74, 75
1, 181169, Note_on_c, 0, 67, 48
1, 181174, Note_on_c, 0, 48, 20
1, 181174, Note_on_c, 0, 55, 49
1, 181193, Note_off_c, 0, 67, 59
1, 181196, Note_off_c, 0, 74, 62
1, 181210, Note_off_c, 0, 48, 44
1, 181251, Note_off_c, 0, 55, 41
1, 181262, Note_on_c, 0, 75, 82
1, 181268, Note_on_c, 0, 67, 74
1, 181274, Note_on_c, 0, 63, 58
1, 181296, Note_off_c, 0, 67, 64
1, 181301, Note_off_c, 0, 63, 65
1, 181317, Note_on_c, 0, 51, 23
1, 181324, Note_off_c, 0, 75, 56
1, 181376, Note_on_c, 0, 77, 79
1, 181378, Note_on_c, 0, 67, 64
1, 181388, Note_on_c, 0, 55, 53
1, 181396, Note_on_c, 0, 48, 71
1, 181405, Note_off_c, 0, 67, 66
1, 181408, Note_off_c, 0, 55, 62
1, 181421, Note_off_c, 0, 77, 61
1, 181426, Note_off_c, 0, 51, 39
1, 181430, Note_off_c, 0, 48, 64
1, 181438, Poly_aftertouch_c, 0, 49, 0
1, 181465, Poly_aftertouch_c, 0, 49, 0
1, 181490, Note_on_c, 0, 79, 82
1, 181500, Note_on_c, 0, 67, 69
1, 181511, Note_off_c, 0, 79, 68
1, 181519, Note_off_c, 0, 67, 64
1, 181611, Note_on_c, 0, 32, 57
1, 181621, Note_on_c, 0, 44, 29
1, 181643, Control_c, 0, 64, 95
1, 181649, Note_on_c, 0, 72, 73
1, 181658, Control_c, 0, 64, 70
1, 181662, Note_on_c, 0, 68, 56
1, 181673, Control_c, 0, 64, 0
1, 181688, Note_off_c, 0, 32, 63
1, 181695, Note_on_c, 0, 63, 34
1, 181703, Control_c, 0, 64, 59
1, 181712, Note_off_c, 0, 44, 60
1, 181717, Control_c, 0, 64, 72
1, 181732, Control_c, 0, 64, 97
1, 181739, Note_off_c, 0, 68, 57
1, 181747, Control_c, 0, 64, 127
1, 181749, Note_off_c, 0, 63, 45
1, 181837, Note_on_c, 0, 68, 64
1, 181842, Note_on_c, 0, 63, 51
1, 181843, Note_on_c, 0, 48, 43
1, 181846, Note_on_c, 0, 56, 56
1, 181864, Note_off_c, 0, 68, 66
1, 181871, Note_off_c, 0, 63, 61
1, 181872, Note_off_c, 0, 56, 64
1, 181876, Note_off_c, 0, 48, 53
1, 181935, Note_on_c, 0, 68, 76
1, 181939, Note_on_c, 0, 51, 68
1, 181939, Note_on_c, 0, 60, 70
1, 181945, Note_on_c, 0, 63, 68
1, 181948, Note_off_c, 0, 72, 61
1, 181978, Note_off_c, 0, 60, 62
1, 182006, Note_off_c, 0, 51, 59
1, 182023, Note_off_c, 0, 63, 60
1, 182055, Note_on_c, 0, 72, 96
1, 182061, Note_on_c, 0, 56, 73
1, 182064, Note_on_c, 0, 48, 63
1, 182082, Note_off_c, 0, 68, 63
1, 182100, Note_off_c, 0, 48, 62
1, 182102, Poly_aftertouch_c, 0, 63, 127
1, 182117, Note_off_c, 0, 56, 62
1, 182145, Poly_aftertouch_c, 0, 63, 0
1, 182155, Note_on_c, 0, 51, 77
1, 182177, Note_off_c, 0, 51, 71
1, 182189, Note_on_c, 0, 68, 75
1, 182195, Note_on_c, 0, 63, 60
1, 182205, Note_off_c, 0, 72, 59
1, 182259, Note_off_c, 0, 63, 59
1, 182277, Note_on_c, 0, 44, 71
1, 182281, Note_on_c, 0, 32, 69
1, 182305, Note_off_c, 0, 44, 64
1, 182312, Note_off_c, 0, 32, 64
1, 182335, Note_on_c, 0, 72, 87
1, 182350, Note_off_c, 0, 68, 58
1, 182439, Note_on_c, 0, 29, 60
1, 182451, Control_c, 0, 64, 104
1, 182465, Note_on_c, 0, 41, 65
1, 182466, Control_c, 0, 64, 78
1, 182481, Control_c, 0, 64, 32
1, 182496, Control_c, 0, 64, 0
1, 182515, Note_on_c, 0, 74, 65
1, 182516, Note_on_c, 0, 68, 52
1, 182522, Note_off_c, 0, 29, 62
1, 182525, Note_off_c, 0, 72, 59
1, 182526, Control_c, 0, 64, 38
1, 182530, Note_on_c, 0, 62, 44
1, 182540, Control_c, 0, 64, 68
1, 182555, Control_c, 0, 64, 83
1, 182570, Note_off_c, 0, 41, 64
1, 182570, Control_c, 0, 64, 114
1, 182576, Note_off_c, 0, 68, 44
1, 182585, Control_c, 0, 64, 127
1, 182588, Note_off_c, 0, 62, 57
1, 182693, Note_on_c, 0, 68, 70
1, 182702, Note_on_c, 0, 62, 55
1, 182727, Note_off_c, 0, 68, 66
1, 182734, Note_off_c, 0, 62, 59
1, 182803, Note_on_c, 0, 68, 71
1, 182811, Note_on_c, 0, 62, 68
1, 182821, Note_on_c, 0, 60, 57
1, 182834, Note_on_c, 0, 53, 44
1, 182836, Note_off_c, 0, 62, 65
1, 182851, Note_off_c, 0, 60, 63
1, 182857, Note_off_c, 0, 68, 62
1, 182866, Note_off_c, 0, 53, 53
1, 182918, Note_on_c, 0, 72, 98
1, 182923, Note_on_c, 0, 50, 59
1, 182928, Note_on_c, 0, 56, 62
1, 182938, Note_on_c, 0, 62, 54
1, 182958, Note_off_c, 0, 62, 62
1, 182960, Note_off_c, 0, 74, 61
1, 182961, Note_off_c, 0, 50, 61
1, 182963, Note_off_c, 0, 56, 62
1, 183038, Note_on_c, 0, 62, 61
1, 183053, Note_on_c, 0, 60, 58
1, 183057, Note_on_c, 0, 53, 48
1, 183089, Note_off_c, 0, 62, 55
1, 183092, Note_off_c, 0, 60, 62
1, 183099, Note_off_c, 0, 53, 50
1, 183155, Note_on_c, 0, 56, 60
1, 183158, Note_on_c, 0, 50, 64
1, 183172, Note_off_c, 0, 56, 64
1, 183184, Note_off_c, 0, 50, 66
1, 183222, Note_on_c, 0, 68, 84
1, 183242, Note_off_c, 0, 72, 62
1, 183273, Note_off_c, 0, 68, 65
1, 183367, Note_on_c, 0, 31, 57
1, 183390, Note_on_c, 0, 43, 50
1, 183408, Control_c, 0, 64, 97
1, 183414, Note_on_c, 0, 67, 72
1, 183423, Control_c, 0, 64, 71
1, 183434, Note_on_c, 0, 60, 50
1, 183438, Control_c, 0, 64, 0
1, 183444, Note_on_c, 0, 65, 46
1, 183452, Note_off_c, 0, 31, 53
1, 183490, Control_c, 0, 64, 63
1, 183494, Note_off_c, 0, 65, 57
1, 183504, Control_c, 0, 64, 74
1, 183519, Control_c, 0, 64, 92
1, 183534, Note_off_c, 0, 43, 62
1, 183534, Control_c, 0, 64, 127
1, 183549, Note_off_c, 0, 60, 45
1, 183636, Note_on_c, 0, 65, 49
1, 183651, Note_on_c, 0, 43, 38
1, 183664, Note_off_c, 0, 65, 63
1, 183682, Note_off_c, 0, 43, 54
1, 183706, Poly_aftertouch_c, 0, 50, 127
1, 183742, Poly_aftertouch_c, 0, 50, 0
1, 183762, Note_on_c, 0, 65, 59
1, 183769, Note_on_c, 0, 55, 55
1, 183796, Note_off_c, 0, 65, 65
1, 183834, Note_off_c, 0, 55, 47
1, 183864, Note_off_c, 0, 67, 55
1, 183876, Note_on_c, 0, 65, 68
1, 183900, Note_on_c, 0, 50, 44
1, 183904, Note_off_c, 0, 65, 66
1, 183906, Note_on_c, 0, 43, 39
1, 183967, Note_off_c, 0, 43, 43
1, 183996, Note_off_c, 0, 50, 54
1, 184000, Note_on_c, 0, 68, 68
1, 184002, Note_on_c, 0, 70, 63
1, 184033, Note_off_c, 0, 68, 61
1, 184036, Note_on_c, 0, 55, 41
1, 184047, Note_off_c, 0, 70, 57
1, 184084, Note_off_c, 0, 55, 56
1, 184132, Note_on_c, 0, 67, 67
1, 184156, Note_on_c, 0, 50, 48
1, 184166, Note_on_c, 0, 43, 50
1, 184193, Note_off_c, 0, 50, 64
1, 184226, Note_off_c, 0, 43, 61
1, 184262, Note_on_c, 0, 62, 68
1, 184262, Note_off_c, 0, 67, 62
1, 184396, Note_on_c, 0, 36, 42
1, 184405, Note_on_c, 0, 48, 31
1, 184431, Control_c, 0, 64, 97
1, 184445, Control_c, 0, 64, 71
1, 184454, Note_off_c, 0, 62, 60
1, 184460, Control_c, 0, 64, 0
1, 184464, Note_on_c, 0, 63, 58
1, 184475, Note_on_c, 0, 60, 39
1, 184484, Note_off_c, 0, 36, 52
1, 184520, Control_c, 0, 64, 51
1, 184525, Note_off_c, 0, 60, 58
1, 184535, Control_c, 0, 64, 68
1, 184549, Note_off_c, 0, 48, 55
1, 184550, Control_c, 0, 64, 78
1, 184565, Control_c, 0, 64, 89
1, 184580, Control_c, 0, 64, 96
1, 184595, Control_c, 0, 64, 100
1, 184609, Control_c, 0, 64, 107
1, 184624, Control_c, 0, 64, 116
1, 184639, Control_c, 0, 64, 127
1, 184677, Note_on_c, 0, 51, 42
1, 184697, Note_on_c, 0, 60, 45
1, 184708, Note_off_c, 0, 63, 56
1, 184729, Note_off_c, 0, 60, 59
1, 184752, Note_off_c, 0, 51, 45
1, 184812, Note_on_c, 0, 55, 55
1, 184904, Note_off_c, 0, 55, 48
1, 184931, Note_on_c, 0, 43, 49
1, 184938, Note_on_c, 0, 48, 51
1, 184955, Note_on_c, 0, 51, 36
1, 185021, Note_off_c, 0, 48, 57
1, 185028, Note_off_c, 0, 43, 46
1, 185065, Note_off_c, 0, 51, 38
1, 185067, Note_on_c, 0, 55, 67
1, 185113, Note_off_c, 0, 55, 62
1, 185174, Note_on_c, 0, 43, 64
1, 185180, Note_on_c, 0, 51, 56
1, 185186, Note_on_c, 0, 48, 56
1, 185209, Note_off_c, 0, 48, 61
1, 185210, Note_off_c, 0, 43, 66
1, 185212, Note_off_c, 0, 51, 53
1, 185283, Poly_aftertouch_c, 0, 45, 0
1, 185351, Note_on_c, 0, 27, 61
1, 185358, Control_c, 0, 64, 114
1, 185362, Note_on_c, 0, 39, 53
1, 185372, Control_c, 0, 64, 81
1, 185387, Control_c, 0, 64, 0
1, 185417, Note_off_c, 0, 27, 64
1, 185424, Note_on_c, 0, 58, 59
1, 185427, Note_on_c, 0, 51, 49
1, 185428, Note_on_c, 0, 55, 55
1, 185432, Control_c, 0, 64, 63
1, 185447, Note_off_c, 0, 39, 61
1, 185447, Control_c, 0, 64, 83
1, 185457, Note_off_c, 0, 51, 54
1, 185462, Control_c, 0, 64, 127
1, 185471, Note_off_c, 0, 55, 65
1, 185489, Note_off_c, 0, 58, 61
1, 185644, Note_on_c, 0, 51, 51
1, 185654, Note_on_c, 0, 75, 61
1, 185657, Note_on_c, 0, 67, 50
1, 185668, Note_on_c, 0, 70, 48
1, 185689, Note_off_c, 0, 51, 55
1, 185689, Note_off_c, 0, 75, 60
1, 185691, Note_off_c, 0, 67, 61
1, 185692, Note_off_c, 0, 70, 63
1, 185783, Note_on_c, 0, 70, 63
1, 185788, Note_on_c, 0, 75, 62
1, 185790, Note_on_c, 0, 63, 55
1, 185793, Note_on_c, 0, 67, 51
1, 185801, Note_on_c, 0, 55, 53
1, 185814, Note_off_c, 0, 70, 63
1, 185814, Note_off_c, 0, 67, 59
1, 185820, Note_off_c, 0, 75, 63
1, 185821, Note_off_c, 0, 63, 63
1, 185851, Note_off_c, 0, 55, 53
1, 185882, Note_on_c, 0, 79, 93
1, 185903, Note_on_c, 0, 51, 53
1, 185903, Note_on_c, 0, 58, 65
1, 185915, Note_on_c, 0, 67, 23
1, 185938, Note_off_c, 0, 58, 62
1, 185949, Note_off_c, 0, 51, 54
1, 185954, Note_off_c, 0, 67, 43
1, 186006, Note_on_c, 0, 70, 69
1, 186007, Note_on_c, 0, 63, 71
1, 186009, Note_on_c, 0, 75, 66
1, 186018, Note_on_c, 0, 55, 54
1, 186031, Note_off_c, 0, 63, 66
1, 186033, Note_off_c, 0, 70, 66
1, 186034, Note_off_c, 0, 75, 66
1, 186066, Note_off_c, 0, 55, 51
1, 186097, Note_on_c, 0, 51, 76
1, 186108, Note_on_c, 0, 70, 68
1, 186109, Poly_aftertouch_c, 0, 67, 0
1, 186111, Note_on_c, 0, 75, 64
1, 186118, Note_on_c, 0, 58, 29
1, 186123, Note_off_c, 0, 51, 66
1, 186129, Note_on_c, 0, 67, 24
1, 186130, Note_off_c, 0, 70, 69
1, 186142, Note_off_c, 0, 75, 64
1, 186157, Note_off_c, 0, 58, 50
1, 186163, Note_off_c, 0, 67, 55
1, 186211, Control_c, 0, 64, 114
1, 186226, Control_c, 0, 64, 80
1, 186238, Note_on_c, 0, 75, 45
1, 186240, Control_c, 0, 64, 0
1, 186258, Note_on_c, 0, 32, 57
1, 186260, Note_on_c, 0, 44, 62
1, 186262, Note_on_c, 0, 72, 65
1, 186267, Note_on_c, 0, 68, 59
1, 186270, Control_c, 0, 64, 50
1, 186285, Control_c, 0, 64, 69
1, 186291, Note_off_c, 0, 32, 61
1, 186295, Note_off_c, 0, 75, 62
1, 186295, Note_off_c, 0, 44, 63
1, 186297, Note_off_c, 0, 72, 62
1, 186300, Control_c, 0, 64, 86
1, 186302, Note_off_c, 0, 68, 62
1, 186314, Control_c, 0, 64, 124
1, 186329, Control_c, 0, 64, 127
1, 186401, Note_on_c, 0, 68, 57
1, 186402, Note_on_c, 0, 75, 64
1, 186407, Note_on_c, 0, 72, 58
1, 186419, Note_on_c, 0, 54, 38
1, 186425, Note_on_c, 0, 60, 56
1, 186431, Note_off_c, 0, 75, 64
1, 186433, Note_off_c, 0, 68, 65
1, 186438, Note_off_c, 0, 72, 65
1, 186451, Note_off_c, 0, 54, 56
1, 186466, Note_off_c, 0, 60, 64
1, 186511, Note_on_c, 0, 75, 76
1, 186511, Note_off_c, 0, 79, 64
1, 186514, Note_on_c, 0, 63, 73
1, 186517, Note_on_c, 0, 68, 68
1, 186517, Note_on_c, 0, 56, 67
1, 186520, Note_on_c, 0, 72, 70
1, 186547, Note_off_c, 0, 63, 59
1, 186548, Note_off_c, 0, 68, 62
1, 186577, Note_off_c, 0, 56, 58
1, 186584, Note_off_c, 0, 75, 63
1, 186613, Note_on_c, 0, 80, 95
1, 186631, Note_on_c, 0, 60, 69
1, 186635, Note_on_c, 0, 53, 62
1, 186651, Note_off_c, 0, 72, 62
1, 186662, Note_off_c, 0, 60, 59
1, 186667, Note_off_c, 0, 53, 63
1, 186740, Note_on_c, 0, 56, 62
1, 186741, Note_on_c, 0, 63, 69
1, 186746, Note_on_c, 0, 75, 61
1, 186750, Note_on_c, 0, 68, 50
1, 186768, Note_off_c, 0, 63, 68
1, 186769, Note_on_c, 0, 72, 25
1, 186773, Note_off_c, 0, 75, 66
1, 186781, Note_off_c, 0, 68, 54
1, 186791, Note_off_c, 0, 56, 55
1, 186809, Note_off_c, 0, 72, 55
1, 186845, Note_on_c, 0, 53, 69
1, 186849, Note_on_c, 0, 75, 71
1, 186854, Note_on_c, 0, 60, 39
1, 186854, Note_on_c, 0, 68, 68
1, 186868, Note_off_c, 0, 53, 68
1, 186872, Note_on_c, 0, 72, 48
1, 186881, Note_off_c, 0, 60, 53
1, 186884, Note_off_c, 0, 68, 65
1, 186900, Note_off_c, 0, 72, 56
1, 186903, Note_off_c, 0, 75, 58
1, 186989, Control_c, 0, 64, 89
1, 187004, Control_c, 0, 64, 61
1, 187007, Note_on_c, 0, 46, 58
1, 187014, Note_on_c, 0, 34, 50
1, 187019, Control_c, 0, 64, 0
1, 187021, Note_on_c, 0, 74, 64
1, 187023, Note_on_c, 0, 70, 67
1, 187028, Note_on_c, 0, 68, 59
1, 187048, Note_off_c, 0, 34, 59
1, 187049, Control_c, 0, 64, 50
1, 187052, Note_off_c, 0, 46, 60
1, 187063, Control_c, 0, 64, 70
1, 187064, Note_off_c, 0, 68, 57
1, 187078, Control_c, 0, 64, 90
1, 187080, Note_off_c, 0, 70, 60
1, 187093, Control_c, 0, 64, 127
1, 187100, Note_off_c, 0, 74, 62
1, 187158, Note_off_c, 0, 80, 58
1, 187165, Note_on_c, 0, 46, 61
1, 187179, Note_on_c, 0, 74, 44
1, 187181, Note_on_c, 0, 70, 70
1, 187192, Note_off_c, 0, 46, 66
1, 187194, Note_on_c, 0, 68, 45
1, 187233, Note_off_c, 0, 68, 53
1, 187242, Note_off_c, 0, 74, 58
1, 187285, Note_on_c, 0, 79, 96
1, 187291, Note_on_c, 0, 62, 71
1, 187307, Note_off_c, 0, 70, 61
1, 187318, Note_off_c, 0, 62, 65
1, 187337, Note_on_c, 0, 53, 39
1, 187369, Note_off_c, 0, 53, 51
1, 187404, Note_on_c, 0, 68, 70
1, 187407, Note_on_c, 0, 74, 56
1, 187411, Note_on_c, 0, 46, 62
1, 187435, Note_off_c, 0, 68, 65
1, 187444, Note_off_c, 0, 46, 64
1, 187444, Note_off_c, 0, 74, 63
1, 187529, Note_on_c, 0, 62, 59
1, 187531, Note_on_c, 0, 74, 70
1, 187537, Note_on_c, 0, 53, 64
1, 187550, Note_off_c, 0, 79, 47
1, 187552, Note_off_c, 0, 62, 57
1, 187568, Note_off_c, 0, 53, 64
1, 187695, Note_on_c, 0, 35, 65
1, 187702, Note_on_c, 0, 77, 88
1, 187703, Note_on_c, 0, 47, 55
1, 187730, Note_off_c, 0, 74, 60
1, 187732, Note_off_c, 0, 35, 61
1, 187751, Note_off_c, 0, 47, 59
1, 187873, Control_c, 0, 64, 102
1, 187887, Control_c, 0, 64, 75
1, 187895, Note_on_c, 0, 36, 46
1, 187902, Control_c, 0, 64, 0
1, 187909, Note_on_c, 0, 48, 57
1, 187942, Note_on_c, 0, 67, 59
1, 187946, Control_c, 0, 64, 42
1, 187969, Control_c, 0, 64, 67
1, 187975, Note_off_c, 0, 36, 43
1, 187984, Control_c, 0, 64, 83
1, 187988, Note_off_c, 0, 77, 60
1, 187999, Control_c, 0, 64, 107
1, 188011, Note_off_c, 0, 48, 57
1, 188013, Control_c, 0, 64, 127
1, 188018, Note_off_c, 0, 67, 63
1, 188067, Poly_aftertouch_c, 0, 72, 0
1, 188152, Note_on_c, 0, 48, 52
1, 188160, Note_on_c, 0, 75, 63
1, 188174, Note_on_c, 0, 67, 49
1, 188190, Note_on_c, 0, 55, 43
1, 188191, Note_off_c, 0, 48, 60
1, 188198, Note_off_c, 0, 67, 64
1, 188210, Note_off_c, 0, 75, 58
1, 188267, Note_off_c, 0, 55, 52
1, 188331, Note_on_c, 0, 77, 62
1, 188343, Note_on_c, 0, 51, 44
1, 188343, Note_on_c, 0, 72, 54
1, 188349, Note_on_c, 0, 63, 38
1, 188368, Note_off_c, 0, 72, 57
1, 188369, Note_on_c, 0, 67, 21
1, 188380, Note_off_c, 0, 77, 55
1, 188381, Note_off_c, 0, 63, 55
1, 188402, Note_off_c, 0, 67, 45
1, 188427, Note_off_c, 0, 51, 47
1, 188455, Note_on_c, 0, 75, 76
1, 188482, Note_on_c, 0, 55, 48
1, 188488, Note_on_c, 0, 67, 35
1, 188493, Note_on_c, 0, 48, 4
1, 188495, Note_off_c, 0, 75, 54
1, 188517, Note_off_c, 0, 67, 53
1, 188542, Note_off_c, 0, 48, 36
1, 188565, Note_on_c, 0, 74, 81
1, 188571, Note_off_c, 0, 55, 53
1, 188587, Note_on_c, 0, 67, 63
1, 188595, Note_on_c, 0, 63, 56
1, 188610, Note_off_c, 0, 67, 64
1, 188614, Note_off_c, 0, 74, 64
1, 188631, Note_off_c, 0, 63, 64
1, 188632, Note_on_c, 0, 51, 14
1, 188672, Note_on_c, 0, 75, 82
1, 188682, Note_on_c, 0, 67, 65
1, 188720, Note_off_c, 0, 67, 62
1, 188723, Note_on_c, 0, 55, 47
1, 188739, Note_on_c, 0, 48, 53
1, 188743, Note_off_c, 0, 51, 0
1, 188744, Note_off_c, 0, 75, 61
1, 188764, Note_off_c, 0, 55, 63
1, 188781, Poly_aftertouch_c, 0, 51, 0
1, 188789, Note_on_c, 0, 77, 83
1, 188797, Note_on_c, 0, 67, 62
1, 188803, Note_off_c, 0, 48, 62
1, 188821, Note_off_c, 0, 67, 69
1, 188836, Note_off_c, 0, 77, 63
1, 188900, Note_on_c, 0, 79, 88
1, 188908, Note_on_c, 0, 67, 72
1, 188923, Note_off_c, 0, 79, 64
1, 188935, Note_off_c, 0, 67, 66
1, 189013, Note_on_c, 0, 38, 43
1, 189048, Note_on_c, 0, 50, 50
1, 189073, Control_c, 0, 64, 94
1, 189087, Control_c, 0, 64, 69
1, 189090, Note_on_c, 0, 67, 36
1, 189102, Control_c, 0, 64, 0
1, 189105, Note_on_c, 0, 74, 69
1, 189111, Note_on_c, 0, 62, 61
1, 189132, Control_c, 0, 64, 37
1, 189135, Note_off_c, 0, 38, 59
1, 189147, Control_c, 0, 64, 68
1, 189161, Control_c, 0, 64, 85
1, 189170, Note_off_c, 0, 50, 60
1, 189176, Control_c, 0, 64, 127
1, 189178, Note_off_c, 0, 67, 61
1, 189193, Note_off_c, 0, 62, 58
1, 189285, Note_on_c, 0, 46, 59
1, 189294, Note_on_c, 0, 67, 65
1, 189322, Note_off_c, 0, 67, 65
1, 189336, Note_off_c, 0, 46, 54
1, 189345, Note_on_c, 0, 55, 18
1, 189403, Note_on_c, 0, 58, 64
1, 189406, Note_off_c, 0, 55, 43
1, 189409, Note_on_c, 0, 62, 78
1, 189414, Note_on_c, 0, 50, 52
1, 189441, Note_off_c, 0, 58, 59
1, 189469, Note_off_c, 0, 50, 58
1, 189528, Note_on_c, 0, 55, 64
1, 189538, Note_on_c, 0, 46, 59
1, 189573, Note_off_c, 0, 55, 63
1, 189581, Note_off_c, 0, 46, 56
1, 189581, Note_off_c, 0, 62, 57
1, 189607, Note_off_c, 0, 74, 55
1, 189635, Note_on_c, 0, 58, 63
1, 189648, Note_on_c, 0, 67, 76
1, 189663, Note_off_c, 0, 58, 62
1, 189757, Note_on_c, 0, 38, 63
1, 189761, Note_on_c, 0, 72, 89
1, 189768, Note_off_c, 0, 67, 57
1, 189780, Note_on_c, 0, 62, 52
1, 189789, Note_off_c, 0, 38, 64
1, 189806, Note_off_c, 0, 72, 59
1, 189808, Note_off_c, 0, 62, 53
1, 189882, Note_on_c, 0, 62, 72
1, 189882, Note_on_c, 0, 74, 77
1, 189912, Note_off_c, 0, 62, 63
1, 189925, Note_off_c, 0, 74, 55
1, 190005, Note_on_c, 0, 26, 48
1, 190014, Control_c, 0, 64, 86
1, 190021, Note_on_c, 0, 38, 47
1, 190029, Control_c, 0, 64, 0
1, 190056, Note_off_c, 0, 26, 51
1, 190069, Note_on_c, 0, 67, 51
1, 190073, Note_on_c, 0, 75, 63
1, 190073, Control_c, 0, 64, 32
1, 190084, Note_on_c, 0, 63, 51
1, 190088, Control_c, 0, 64, 67
1, 190099, Note_off_c, 0, 38, 64
1, 190103, Control_c, 0, 64, 84
1, 190118, Control_c, 0, 64, 127
1, 190148, Note_off_c, 0, 67, 61
1, 190149, Note_off_c, 0, 63, 57
1, 190268, Note_on_c, 0, 63, 55
1, 190275, Note_on_c, 0, 50, 29
1, 190279, Note_on_c, 0, 67, 50
1, 190279, Note_on_c, 0, 57, 39
1, 190298, Note_off_c, 0, 63, 64
1, 190306, Note_off_c, 0, 67, 64
1, 190308, Note_off_c, 0, 57, 52
1, 190311, Note_off_c, 0, 50, 46
1, 190387, Note_on_c, 0, 67, 61
1, 190395, Note_on_c, 0, 60, 52
1, 190397, Note_on_c, 0, 63, 47
1, 190419, Note_off_c, 0, 67, 64
1, 190425, Note_off_c, 0, 63, 59
1, 190435, Note_off_c, 0, 60, 56
1, 190526, Control_c, 0, 64, 85
1, 190529, Note_on_c, 0, 63, 44
1, 190532, Note_on_c, 0, 66, 66
1, 190539, Note_on_c, 0, 50, 47
1, 190541, Control_c, 0, 64, 59
1, 190543, Note_on_c, 0, 57, 38
1, 190556, Control_c, 0, 64, 0
1, 190571, Control_c, 0, 64, 49
1, 190584, Note_off_c, 0, 63, 43
1, 190586, Control_c, 0, 64, 69
1, 190596, Note_off_c, 0, 66, 54
1, 190601, Control_c, 0, 64, 87
1, 190615, Control_c, 0, 64, 127
1, 190646, Note_off_c, 0, 57, 47
1, 190687, Note_off_c, 0, 75, 63
1, 190699, Note_on_c, 0, 63, 46
1, 190701, Note_on_c, 0, 60, 42
1, 190702, Note_on_c, 0, 66, 51
1, 190708, Note_off_c, 0, 50, 34
1, 190724, Note_off_c, 0, 63, 62
1, 190724, Note_off_c, 0, 66, 61
1, 190753, Note_off_c, 0, 60, 55
1, 190848, Note_on_c, 0, 50, 38
1, 190860, Note_on_c, 0, 66, 62
1, 190866, Note_on_c, 0, 57, 36
1, 190892, Note_on_c, 0, 60, 44
1, 190897, Note_off_c, 0, 57, 45
1, 190911, Note_off_c, 0, 50, 63
1, 190929, Note_off_c, 0, 60, 49
1, 190957, Note_off_c, 0, 66, 52
1, 191104, Note_on_c, 0, 31, 49
1, 191126, Note_on_c, 0, 43, 27
1, 191127, Control_c, 0, 64, 96
1, 191142, Control_c, 0, 64, 71
1, 191155, Note_on_c, 0, 62, 39
1, 191156, Note_on_c, 0, 66, 54
1, 191156, Control_c, 0, 64, 0
1, 191167, Note_on_c, 0, 58, 41
1, 191176, Note_off_c, 0, 31, 53
1, 191201, Control_c, 0, 64, 32
1, 191216, Control_c, 0, 64, 66
1, 191224, Note_off_c, 0, 58, 59
1, 191230, Note_off_c, 0, 62, 50
1, 191230, Control_c, 0, 64, 86
1, 191245, Control_c, 0, 64, 124
1, 191259, Note_off_c, 0, 43, 55
1, 191260, Control_c, 0, 64, 127
1, 191377, Note_on_c, 0, 62, 45
1, 191387, Note_on_c, 0, 58, 37
1, 191419, Note_off_c, 0, 58, 53
1, 191425, Note_off_c, 0, 62, 55
1, 191427, Note_on_c, 0, 43, 3
1, 191440, Poly_aftertouch_c, 0, 50, 127
1, 191464, Note_off_c, 0, 43, 51
1, 191480, Poly_aftertouch_c, 0, 50, 0
1, 191502, Note_on_c, 0, 55, 46
1, 191522, Note_on_c, 0, 58, 40
1, 191522, Note_on_c, 0, 67, 58
1, 191563, Note_off_c, 0, 55, 53
1, 191563, Note_off_c, 0, 58, 58
1, 191583, Note_off_c, 0, 66, 37
1, 191622, Note_on_c, 0, 43, 44
1, 191635, Note_on_c, 0, 50, 34
1, 191652, Note_on_c, 0, 62, 50
1, 191663, Note_on_c, 0, 58, 45
1, 191671, Note_off_c, 0, 43, 55
1, 191687, Note_off_c, 0, 62, 61
1, 191692, Note_off_c, 0, 58, 54
1, 191707, Note_off_c, 0, 50, 58
1, 191760, Note_on_c, 0, 55, 53
1, 191781, Note_off_c, 0, 55, 60
1, 191787, Note_on_c, 0, 62, 54
1, 191791, Note_on_c, 0, 58, 44
1, 191820, Note_off_c, 0, 58, 60
1, 191820, Note_off_c, 0, 62, 63
1, 191905, Note_on_c, 0, 38, 60
1, 191910, Note_on_c, 0, 58, 53
1, 191911, Note_on_c, 0, 62, 54
1, 191937, Note_off_c, 0, 38, 63
1, 191945, Note_off_c, 0, 58, 62
1, 191949, Note_off_c, 0, 62, 59
1, 192038, Control_c, 0, 64, 99
1, 192045, Note_on_c, 0, 31, 55
1, 192052, Note_on_c, 0, 43, 57
1, 192052, Note_on_c, 0, 62, 51
1, 192052, Control_c, 0, 64, 71
1, 192059, Note_on_c, 0, 58, 45
1, 192067, Control_c, 0, 64, 0
1, 192080, Note_off_c, 0, 31, 57
1, 192094, Note_off_c, 0, 62, 60
1, 192097, Control_c, 0, 64, 31
1, 192100, Note_off_c, 0, 58, 60
1, 192110, Note_off_c, 0, 43, 63
1, 192111, Control_c, 0, 64, 69
1, 192126, Control_c, 0, 64, 94
1, 192141, Control_c, 0, 64, 127
1, 192205, Note_on_c, 0, 62, 49
1, 192220, Note_on_c, 0, 59, 44
1, 192242, Note_off_c, 0, 62, 60
1, 192243, Note_on_c, 0, 50, 38
1, 192251, Note_off_c, 0, 59, 61
1, 192252, Note_on_c, 0, 43, 10
1, 192276, Note_off_c, 0, 50, 49
1, 192288, Note_off_c, 0, 43, 41
1, 192344, Note_on_c, 0, 62, 55
1, 192346, Note_on_c, 0, 59, 50
1, 192347, Note_on_c, 0, 55, 56
1, 192352, Note_off_c, 0, 67, 56
1, 192381, Note_off_c, 0, 59, 61
1, 192386, Note_off_c, 0, 55, 58
1, 192390, Note_off_c, 0, 62, 53
1, 192501, Note_on_c, 0, 43, 49
1, 192503, Note_on_c, 0, 67, 61
1, 192504, Control_c, 0, 64, 97
1, 192508, Note_on_c, 0, 50, 44
1, 192519, Control_c, 0, 64, 68
1, 192529, Note_on_c, 0, 59, 16
1, 192535, Control_c, 0, 64, 0
1, 192565, Control_c, 0, 64, 53
1, 192568, Note_off_c, 0, 59, 47
1, 192580, Control_c, 0, 64, 71
1, 192586, Note_off_c, 0, 43, 39
1, 192595, Control_c, 0, 64, 90
1, 192609, Control_c, 0, 64, 127
1, 192619, Note_off_c, 0, 50, 39
1, 192651, Note_on_c, 0, 55, 46
1, 192670, Note_on_c, 0, 59, 43
1, 192679, Note_off_c, 0, 55, 55
1, 192683, Note_on_c, 0, 62, 48
1, 192701, Note_off_c, 0, 59, 54
1, 192716, Note_off_c, 0, 62, 61
1, 192857, Note_on_c, 0, 31, 34
1, 192860, Note_on_c, 0, 43, 45
1, 192872, Note_on_c, 0, 62, 38
1, 192874, Note_on_c, 0, 59, 34
1, 192890, Note_off_c, 0, 43, 56
1, 192902, Note_off_c, 0, 59, 54
1, 192902, Note_off_c, 0, 31, 40
1, 192902, Note_off_c, 0, 62, 54
1, 193083, Control_c, 0, 64, 95
1, 193085, Note_on_c, 0, 30, 57
1, 193094, Note_on_c, 0, 42, 47
1, 193096, Note_on_c, 0, 62, 39
1, 193098, Control_c, 0, 64, 62
1, 193111, Note_on_c, 0, 59, 32
1, 193113, Control_c, 0, 64, 0
1, 193147, Note_off_c, 0, 30, 61
1, 193157, Control_c, 0, 64, 26
1, 193162, Note_off_c, 0, 62, 59
1, 193170, Note_off_c, 0, 42, 58
1, 193171, Control_c, 0, 64, 70
1, 193173, Note_off_c, 0, 59, 62
1, 193186, Control_c, 0, 64, 87
1, 193209, Control_c, 0, 64, 127
1, 193310, Note_on_c, 0, 51, 53
1, 193311, Note_on_c, 0, 42, 33
1, 193317, Note_on_c, 0, 63, 51
1, 193328, Note_on_c, 0, 60, 40
1, 193343, Note_off_c, 0, 51, 56
1, 193349, Note_off_c, 0, 63, 64
1, 193351, Note_off_c, 0, 42, 45
1, 193358, Note_off_c, 0, 60, 51
1, 193374, Note_off_c, 0, 67, 62
1, 193418, Note_on_c, 0, 56, 62
1, 193424, Note_on_c, 0, 63, 65
1, 193431, Note_on_c, 0, 48, 48
1, 193445, Note_on_c, 0, 60, 46
1, 193455, Note_off_c, 0, 56, 63
1, 193482, Note_off_c, 0, 60, 49
1, 193485, Note_off_c, 0, 48, 59
1, 193534, Note_on_c, 0, 68, 85
1, 193543, Note_on_c, 0, 42, 59
1, 193543, Note_off_c, 0, 63, 47
1, 193546, Note_on_c, 0, 51, 59
1, 193574, Note_off_c, 0, 42, 62
1, 193624, Note_off_c, 0, 51, 59
1, 193654, Note_on_c, 0, 48, 61
1, 193658, Note_on_c, 0, 56, 51
1, 193671, Note_on_c, 0, 63, 54
1, 193679, Note_off_c, 0, 56, 59
1, 193683, Note_off_c, 0, 48, 64
1, 193702, Note_off_c, 0, 63, 61
1, 193740, Poly_aftertouch_c, 0, 60, 127
1, 193762, Poly_aftertouch_c, 0, 60, 0
1, 193781, Note_on_c, 0, 42, 69
1, 193787, Note_on_c, 0, 60, 34
1, 193787, Note_on_c, 0, 63, 59
1, 193792, Note_on_c, 0, 30, 63
1, 193808, Note_off_c, 0, 42, 65
1, 193821, Note_off_c, 0, 63, 62
1, 193823, Note_off_c, 0, 30, 63
1, 193826, Note_off_c, 0, 60, 46
1, 193936, Control_c, 0, 64, 87
1, 193957, Note_on_c, 0, 29, 60
1, 193957, Control_c, 0, 64, 0
1, 193963, Note_on_c, 0, 41, 64
1, 193969, Note_on_c, 0, 61, 66
1, 193970, Note_on_c, 0, 56, 62
1, 193989, Note_off_c, 0, 29, 63
1, 194025, Note_off_c, 0, 61, 60
1, 194029, Note_off_c, 0, 41, 64
1, 194032, Control_c, 0, 64, 72
1, 194042, Note_off_c, 0, 56, 55
1, 194047, Control_c, 0, 64, 97
1, 194062, Control_c, 0, 64, 127
1, 194086, Note_on_c, 0, 61, 74
1, 194112, Note_off_c, 0, 68, 62
1, 194115, Note_on_c, 0, 41, 52
1, 194124, Note_off_c, 0, 61, 65
1, 194139, Note_on_c, 0, 49, 50
1, 194149, Note_off_c, 0, 41, 64
1, 194173, Note_off_c, 0, 49, 63
1, 194209, Note_on_c, 0, 73, 89
1, 194223, Note_on_c, 0, 61, 72
1, 194223, Note_on_c, 0, 56, 62
1, 194247, Note_off_c, 0, 61, 64
1, 194252, Note_off_c, 0, 56, 65
1, 194256, Note_off_c, 0, 73, 63
1, 194333, Note_on_c, 0, 41, 71
1, 194350, Note_on_c, 0, 49, 69
1, 194362, Note_on_c, 0, 77, 96
1, 194363, Note_off_c, 0, 41, 62
1, 194378, Note_on_c, 0, 65, 63
1, 194405, Note_off_c, 0, 65, 64
1, 194424, Note_off_c, 0, 49, 54
1, 194471, Note_on_c, 0, 56, 68
1, 194488, Note_off_c, 0, 56, 68
1, 194496, Note_off_c, 0, 77, 68
1, 194497, Note_on_c, 0, 73, 80
1, 194497, Note_on_c, 0, 68, 78
1, 194521, Note_off_c, 0, 68, 67
1, 194539, Note_off_c, 0, 73, 62
1, 194626, Note_on_c, 0, 29, 60
1, 194632, Note_on_c, 0, 41, 64
1, 194638, Note_on_c, 0, 82, 84
1, 194650, Note_on_c, 0, 70, 66
1, 194661, Note_off_c, 0, 29, 54
1, 194661, Note_off_c, 0, 41, 65
1, 194667, Note_off_c, 0, 70, 65
1, 194684, Note_off_c, 0, 82, 52
1, 194829, Note_on_c, 0, 36, 56
1, 194850, Note_on_c, 0, 48, 53
1, 194884, Control_c, 0, 64, 103
1, 194893, Note_on_c, 0, 80, 81
1, 194899, Control_c, 0, 64, 67
1, 194902, Note_on_c, 0, 75, 58
1, 194912, Note_on_c, 0, 66, 52
1, 194914, Control_c, 0, 64, 0
1, 194923, Note_off_c, 0, 36, 62
1, 194939, Note_on_c, 0, 68, 36
1, 194959, Control_c, 0, 64, 61
1, 194974, Control_c, 0, 64, 76
1, 194981, Note_off_c, 0, 48, 61
1, 194981, Note_off_c, 0, 68, 49
1, 194987, Note_off_c, 0, 75, 62
1, 194989, Control_c, 0, 64, 104
1, 194992, Note_off_c, 0, 66, 65
1, 195004, Control_c, 0, 64, 127
1, 195097, Note_on_c, 0, 75, 63
1, 195104, Note_on_c, 0, 56, 59
1, 195109, Note_on_c, 0, 66, 49
1, 195110, Note_on_c, 0, 48, 32
1, 195126, Note_off_c, 0, 75, 65
1, 195135, Note_off_c, 0, 66, 58
1, 195142, Note_off_c, 0, 56, 61
1, 195151, Note_off_c, 0, 48, 42
1, 195204, Note_on_c, 0, 75, 68
1, 195205, Note_on_c, 0, 66, 76
1, 195215, Note_on_c, 0, 63, 66
1, 195233, Note_off_c, 0, 66, 67
1, 195234, Note_on_c, 0, 51, 45
1, 195242, Note_off_c, 0, 63, 66
1, 195245, Note_off_c, 0, 75, 59
1, 195274, Note_off_c, 0, 51, 60
1, 195326, Note_on_c, 0, 48, 58
1, 195327, Note_on_c, 0, 56, 70
1, 195330, Note_on_c, 0, 75, 64
1, 195331, Note_on_c, 0, 66, 48
1, 195350, Note_off_c, 0, 48, 59
1, 195356, Note_off_c, 0, 66, 59
1, 195356, Note_off_c, 0, 75, 67
1, 195393, Note_off_c, 0, 56, 60
1, 195415, Note_off_c, 0, 80, 48
1, 195426, Note_on_c, 0, 63, 69
1, 195426, Note_on_c, 0, 75, 73
1, 195434, Note_on_c, 0, 66, 69
1, 195458, Note_off_c, 0, 63, 65
1, 195469, Note_off_c, 0, 66, 67
1, 195485, Note_off_c, 0, 75, 62
1, 195538, Note_on_c, 0, 78, 85
1, 195551, Note_on_c, 0, 66, 64
1, 195575, Note_off_c, 0, 66, 70
1, 195594, Note_on_c, 0, 36, 60
1, 195596, Note_off_c, 0, 78, 60
1, 195603, Note_on_c, 0, 48, 43
1, 195645, Note_off_c, 0, 36, 62
1, 195654, Note_on_c, 0, 77, 82
1, 195662, Note_on_c, 0, 66, 69
1, 195668, Note_off_c, 0, 48, 60
1, 195691, Note_off_c, 0, 66, 67
1, 195716, Note_off_c, 0, 77, 60
1, 195823, Note_on_c, 0, 37, 44
1, 195839, Note_on_c, 0, 49, 50
1, 195841, Control_c, 0, 64, 82
1, 195856, Control_c, 0, 64, 0
1, 195868, Note_on_c, 0, 77, 65
1, 195877, Note_on_c, 0, 65, 57
1, 195879, Note_on_c, 0, 68, 51
1, 195884, Note_on_c, 0, 73, 52
1, 195909, Note_off_c, 0, 37, 61
1, 195915, Control_c, 0, 64, 60
1, 195926, Note_off_c, 0, 73, 63
1, 195930, Control_c, 0, 64, 73
1, 195934, Note_off_c, 0, 49, 63
1, 195944, Control_c, 0, 64, 90
1, 195946, Note_off_c, 0, 65, 58
1, 195951, Note_off_c, 0, 68, 58
1, 195959, Control_c, 0, 64, 127
1, 196058, Note_on_c, 0, 49, 49
1, 196061, Note_on_c, 0, 56, 59
1, 196065, Note_on_c, 0, 65, 49
1, 196074, Note_on_c, 0, 73, 29
1, 196078, Note_on_c, 0, 68, 38
1, 196089, Note_off_c, 0, 65, 60
1, 196094, Note_off_c, 0, 49, 52
1, 196103, Note_off_c, 0, 56, 59
1, 196108, Note_off_c, 0, 68, 55
1, 196110, Note_off_c, 0, 73, 51
1, 196160, Note_on_c, 0, 61, 70
1, 196174, Note_on_c, 0, 53, 59
1, 196176, Note_on_c, 0, 65, 56
1, 196179, Note_on_c, 0, 68, 65
1, 196205, Note_off_c, 0, 65, 63
1, 196214, Note_off_c, 0, 68, 66
1, 196233, Note_off_c, 0, 61, 56
1, 196241, Note_off_c, 0, 53, 54
1, 196256, Poly_aftertouch_c, 0, 73, 127
1, 196294, Note_on_c, 0, 49, 66
1, 196294, Note_on_c, 0, 56, 65
1, 196297, Note_on_c, 0, 68, 62
1, 196298, Note_on_c, 0, 73, 20
1, 196300, Note_on_c, 0, 65, 56
1, 196331, Note_off_c, 0, 65, 65
1, 196335, Note_off_c, 0, 68, 63
1, 196343, Note_off_c, 0, 73, 60
1, 196351, Note_off_c, 0, 49, 50
1, 196363, Note_off_c, 0, 56, 58
1, 196397, Note_on_c, 0, 61, 71
1, 196410, Note_on_c, 0, 53, 60
1, 196418, Note_on_c, 0, 65, 61
1, 196424, Note_off_c, 0, 61, 65
1, 196434, Note_on_c, 0, 73, 58
1, 196441, Note_off_c, 0, 53, 62
1, 196446, Note_off_c, 0, 65, 66
1, 196461, Note_off_c, 0, 73, 66
1, 196525, Note_on_c, 0, 36, 85
1, 196526, Note_on_c, 0, 48, 83
1, 196541, Note_on_c, 0, 73, 66
1, 196545, Note_on_c, 0, 65, 55
1, 196551, Note_off_c, 0, 36, 65
1, 196553, Note_off_c, 0, 48, 67
1, 196573, Note_off_c, 0, 65, 65
1, 196575, Note_off_c, 0, 73, 59
1, 196649, Control_c, 0, 64, 104
1, 196664, Control_c, 0, 64, 72
1, 196679, Control_c, 0, 64, 0
1, 196685, Note_on_c, 0, 35, 68
1, 196688, Note_on_c, 0, 47, 71
1, 196697, Note_on_c, 0, 74, 69
1, 196702, Note_on_c, 0, 67, 60
1, 196708, Note_on_c, 0, 65, 63
1, 196709, Control_c, 0, 64, 55
1, 196714, Note_off_c, 0, 35, 64
1, 196724, Control_c, 0, 64, 72
1, 196739, Control_c, 0, 64, 97
1, 196740, Note_off_c, 0, 65, 64
1, 196742, Note_off_c, 0, 47, 63
1, 196745, Note_off_c, 0, 67, 60
1, 196753, Control_c, 0, 64, 127
1, 196759, Note_off_c, 0, 74, 60
1, 196834, Note_on_c, 0, 74, 52
1, 196835, Note_on_c, 0, 47, 62
1, 196842, Note_on_c, 0, 55, 61
1, 196866, Note_off_c, 0, 47, 65
1, 196869, Note_off_c, 0, 74, 65
1, 196874, Note_on_c, 0, 65, 17
1, 196875, Note_off_c, 0, 55, 64
1, 196914, Note_off_c, 0, 65, 45
1, 196949, Note_on_c, 0, 74, 77
1, 196950, Note_on_c, 0, 50, 74
1, 196956, Note_on_c, 0, 65, 58
1, 196962, Note_on_c, 0, 62, 59
1, 196962, Note_off_c, 0, 77, 52
1, 196972, Note_off_c, 0, 74, 69
1, 196982, Note_off_c, 0, 62, 59
1, 196994, Note_off_c, 0, 65, 64
1, 197031, Poly_aftertouch_c, 0, 60, 0
1, 197063, Poly_aftertouch_c, 0, 60, 0
1, 197078, Note_on_c, 0, 67, 92
1, 197080, Note_on_c, 0, 47, 72
1, 197105, Note_on_c, 0, 55, 55
1, 197112, Note_off_c, 0, 47, 63
1, 197162, Note_off_c, 0, 50, 35
1, 197194, Note_on_c, 0, 62, 65
1, 197208, Note_on_c, 0, 65, 76
1, 197218, Note_off_c, 0, 62, 62
1, 197225, Note_off_c, 0, 55, 57
1, 197252, Note_off_c, 0, 65, 63
1, 197338, Note_on_c, 0, 62, 64
1, 197341, Note_on_c, 0, 65, 79
1, 197341, Note_off_c, 0, 67, 61
1, 197344, Note_on_c, 0, 35, 67
1, 197348, Note_on_c, 0, 47, 60
1, 197362, Note_off_c, 0, 65, 72
1, 197368, Note_off_c, 0, 35, 59
1, 197374, Note_off_c, 0, 62, 61
1, 197376, Note_off_c, 0, 47, 63
1, 197513, Note_on_c, 0, 36, 47
1, 197538, Note_on_c, 0, 48, 63
1, 197546, Control_c, 0, 64, 95
1, 197558, Note_on_c, 0, 68, 75
1, 197561, Control_c, 0, 64, 69
1, 197571, Note_on_c, 0, 63, 60
1, 197576, Control_c, 0, 64, 0
1, 197621, Control_c, 0, 64, 65
1, 197635, Control_c, 0, 64, 78
1, 197650, Control_c, 0, 64, 98
1, 197659, Note_off_c, 0, 63, 60
1, 197665, Control_c, 0, 64, 127
1, 197674, Note_off_c, 0, 36, 34
1, 197687, Note_off_c, 0, 68, 59
1, 197704, Note_off_c, 0, 48, 58
1, 197744, Note_on_c, 0, 67, 73
1, 197758, Note_on_c, 0, 63, 60
1, 197786, Note_off_c, 0, 63, 65
1, 197793, Note_off_c, 0, 67, 53
1, 197842, Note_on_c, 0, 71, 76
1, 197845, Note_on_c, 0, 63, 71
1, 197852, Note_on_c, 0, 48, 55
1, 197868, Note_on_c, 0, 55, 52
1, 197870, Note_off_c, 0, 63, 67
1, 197925, Note_off_c, 0, 48, 44
1, 197930, Note_off_c, 0, 55, 46
1, 197937, Note_on_c, 0, 72, 87
1, 197940, Note_off_c, 0, 71, 64
1, 197961, Note_off_c, 0, 72, 70
1, 198034, Note_on_c, 0, 51, 62
1, 198038, Note_on_c, 0, 74, 79
1, 198039, Note_on_c, 0, 60, 56
1, 198093, Note_off_c, 0, 74, 60
1, 198116, Note_off_c, 0, 51, 60
1, 198149, Note_on_c, 0, 75, 85
1, 198149, Note_off_c, 0, 60, 37
1, 198158, Note_on_c, 0, 48, 60
1, 198195, Note_on_c, 0, 55, 47
1, 198229, Note_off_c, 0, 75, 51
1, 198241, Note_off_c, 0, 55, 61
1, 198243, Note_off_c, 0, 48, 59
1, 198268, Note_on_c, 0, 51, 55
1, 198283, Note_on_c, 0, 84, 80
1, 198292, Note_on_c, 0, 86, 69
1, 198299, Note_on_c, 0, 72, 77
1, 198302, Note_off_c, 0, 51, 64
1, 198310, Note_off_c, 0, 86, 41
1, 198325, Note_off_c, 0, 72, 67
1, 198432, Note_on_c, 0, 80, 91
1, 198444, Note_on_c, 0, 72, 82
1, 198450, Note_off_c, 0, 84, 65
1, 198471, Note_off_c, 0, 72, 67
1, 198490, Note_off_c, 0, 80, 64
1, 198611, Note_on_c, 0, 38, 50
1, 198633, Note_on_c, 0, 50, 52
1, 198703, Control_c, 0, 64, 108
1, 198710, Note_on_c, 0, 79, 84
1, 198718, Control_c, 0, 64, 72
1, 198720, Note_on_c, 0, 71, 61
1, 198732, Control_c, 0, 64, 0
1, 198736, Note_on_c, 0, 67, 50
1, 198738, Note_on_c, 0, 65, 56
1, 198806, Control_c, 0, 64, 67
1, 198818, Note_off_c, 0, 38, 63
1, 198821, Control_c, 0, 64, 79
1, 198828, Note_off_c, 0, 65, 59
1, 198832, Note_off_c, 0, 67, 60
1, 198836, Control_c, 0, 64, 94
1, 198843, Note_off_c, 0, 71, 53
1, 198851, Control_c, 0, 64, 109
1, 198862, Note_off_c, 0, 50, 64
1, 198865, Control_c, 0, 64, 127
1, 198955, Note_on_c, 0, 71, 57
1, 198959, Note_on_c, 0, 55, 55
1, 198963, Note_on_c, 0, 67, 42
1, 198965, Note_on_c, 0, 50, 47
1, 198974, Note_on_c, 0, 65, 41
1, 198982, Note_off_c, 0, 71, 63
1, 198993, Note_off_c, 0, 55, 64
1, 198993, Note_off_c, 0, 67, 54
1, 198999, Note_off_c, 0, 50, 53
1, 199001, Note_off_c, 0, 65, 56
1, 199072, Note_on_c, 0, 71, 63
1, 199081, Note_on_c, 0, 65, 51
1, 199085, Note_on_c, 0, 62, 57
1, 199088, Note_on_c, 0, 67, 38
1, 199089, Control_c, 0, 64, 126
1, 199099, Note_off_c, 0, 71, 67
1, 199102, Note_off_c, 0, 65, 62
1, 199104, Control_c, 0, 64, 121
1, 199112, Note_off_c, 0, 62, 60
1, 199114, Note_off_c, 0, 67, 55
1, 199119, Control_c, 0, 64, 119
1, 199134, Control_c, 0, 64, 117
1, 199148, Control_c, 0, 64, 116
1, 199150, Note_off_c, 0, 79, 22
1, 199163, Control_c, 0, 64, 116
1, 199180, Note_on_c, 0, 71, 71
1, 199193, Note_on_c, 0, 50, 56
1, 199193, Note_on_c, 0, 55, 64
1, 199201, Control_c, 0, 64, 115
1, 199203, Note_on_c, 0, 65, 46
1, 199216, Control_c, 0, 64, 115
1, 199219, Note_off_c, 0, 71, 65
1, 199226, Note_off_c, 0, 65, 61
1, 199230, Note_off_c, 0, 50, 62
1, 199230, Control_c, 0, 64, 114
1, 199240, Note_off_c, 0, 55, 56
1, 199245, Control_c, 0, 64, 114
1, 199260, Control_c, 0, 64, 113
1, 199275, Control_c, 0, 64, 113
1, 199290, Control_c, 0, 64, 112
1, 199297, Note_on_c, 0, 73, 80
1, 199298, Note_on_c, 0, 65, 72
1, 199304, Control_c, 0, 64, 112
1, 199319, Control_c, 0, 64, 111
1, 199328, Note_on_c, 0, 62, 42
1, 199331, Note_off_c, 0, 65, 67
1, 199334, Control_c, 0, 64, 110
1, 199347, Note_off_c, 0, 73, 62
1, 199348, Control_c, 0, 64, 110
1, 199350, Note_off_c, 0, 62, 55
1, 199363, Control_c, 0, 64, 109
1, 199378, Control_c, 0, 64, 108
1, 199393, Control_c, 0, 64, 107
1, 199408, Control_c, 0, 64, 107
1, 199414, Note_on_c, 0, 74, 78
1, 199422, Note_on_c, 0, 65, 62
1, 199422, Control_c, 0, 64, 106
1, 199437, Control_c, 0, 64, 105
1, 199447, Note_off_c, 0, 65, 65
1, 199452, Control_c, 0, 64, 105
1, 199467, Note_off_c, 0, 74, 61
1, 199481, Control_c, 0, 64, 104
1, 199526, Control_c, 0, 64, 104
1, 199540, Note_on_c, 0, 79, 78
1, 199544, Note_on_c, 0, 38, 48
1, 199556, Note_on_c, 0, 71, 56
1, 199556, Control_c, 0, 64, 103
1, 199571, Note_on_c, 0, 50, 37
1, 199575, Note_off_c, 0, 71, 63
1, 199585, Control_c, 0, 64, 103
1, 199608, Note_off_c, 0, 79, 59
1, 199627, Note_off_c, 0, 38, 60
1, 199630, Control_c, 0, 64, 102
1, 199636, Note_off_c, 0, 50, 58
1, 199683, Note_on_c, 0, 77, 78
1, 199704, Note_on_c, 0, 67, 49
1, 199717, Note_off_c, 0, 77, 57
1, 199720, Control_c, 0, 64, 102
1, 199727, Note_off_c, 0, 67, 58
1, 199816, Note_on_c, 0, 75, 73
1, 199818, Note_on_c, 0, 67, 56
1, 199837, Control_c, 0, 64, 101
1, 199852, Note_off_c, 0, 67, 62
1, 199857, Note_off_c, 0, 75, 53
1, 199964, Control_c, 0, 64, 101
1, 199985, Note_on_c, 0, 39, 42
1, 199988, Note_on_c, 0, 51, 35
1, 199993, Control_c, 0, 64, 94
1, 200008, Control_c, 0, 64, 72
1, 200023, Control_c, 0, 64, 0
1, 200038, Note_on_c, 0, 75, 55
1, 200045, Note_on_c, 0, 72, 52
1, 200059, Note_on_c, 0, 67, 39
1, 200067, Control_c, 0, 64, 59
1, 200071, Note_off_c, 0, 39, 62
1, 200082, Control_c, 0, 64, 72
1, 200096, Control_c, 0, 64, 89
1, 200105, Note_off_c, 0, 72, 57
1, 200110, Note_off_c, 0, 67, 58
1, 200111, Control_c, 0, 64, 119
1, 200124, Note_off_c, 0, 51, 53
1, 200126, Control_c, 0, 64, 127
1, 200234, Note_on_c, 0, 72, 60
1, 200237, Note_on_c, 0, 67, 48
1, 200240, Note_on_c, 0, 51, 56
1, 200245, Note_on_c, 0, 60, 53
1, 200272, Note_off_c, 0, 72, 62
1, 200273, Note_off_c, 0, 67, 61
1, 200281, Note_off_c, 0, 51, 58
1, 200289, Note_off_c, 0, 60, 58
1, 200348, Note_on_c, 0, 63, 65
1, 200363, Note_on_c, 0, 55, 53
1, 200366, Note_on_c, 0, 67, 52
1, 200369, Note_on_c, 0, 72, 64
1, 200390, Note_off_c, 0, 67, 62
1, 200396, Note_off_c, 0, 63, 53
1, 200402, Note_off_c, 0, 72, 65
1, 200438, Note_off_c, 0, 55, 50
1, 200482, Note_on_c, 0, 60, 61
1, 200489, Note_on_c, 0, 51, 53
1, 200492, Note_on_c, 0, 67, 45
1, 200492, Note_on_c, 0, 72, 59
1, 200524, Note_off_c, 0, 67, 58
1, 200531, Note_off_c, 0, 72, 63
1, 200567, Note_off_c, 0, 60, 57
1, 200569, Note_off_c, 0, 51, 46
1, 200618, Note_on_c, 0, 63, 53
1, 200620, Note_on_c, 0, 55, 61
1, 200649, Note_off_c, 0, 63, 54
1, 200650, Note_on_c, 0, 67, 33
1, 200650, Note_off_c, 0, 55, 65
1, 200663, Note_on_c, 0, 72, 29
1, 200692, Note_off_c, 0, 67, 50
1, 200711, Note_off_c, 0, 72, 54
1, 200787, Note_on_c, 0, 51, 67
1, 200793, Note_on_c, 0, 39, 56
1, 200793, Note_on_c, 0, 67, 36
1, 200796, Note_off_c, 0, 75, 61
1, 200819, Note_off_c, 0, 51, 64
1, 200820, Note_off_c, 0, 67, 54
1, 200821, Note_off_c, 0, 39, 58
1, 200993, Note_on_c, 0, 41, 46
1, 201008, Control_c, 0, 64, 98
1, 201009, Note_on_c, 0, 53, 50
1, 201023, Control_c, 0, 64, 76
1, 201037, Control_c, 0, 64, 30
1, 201040, Note_on_c, 0, 68, 48
1, 201041, Note_on_c, 0, 62, 50
1, 201052, Control_c, 0, 64, 0
1, 201067, Note_off_c, 0, 41, 60
1, 201082, Control_c, 0, 64, 64
1, 201097, Control_c, 0, 64, 77
1, 201103, Note_off_c, 0, 68, 52
1, 201106, Note_off_c, 0, 62, 55
1, 201112, Control_c, 0, 64, 104
1, 201118, Note_off_c, 0, 53, 61
1, 201127, Control_c, 0, 64, 127
1, 201225, Note_on_c, 0, 68, 60
1, 201226, Note_on_c, 0, 62, 52
1, 201234, Note_on_c, 0, 53, 39
1, 201242, Note_on_c, 0, 59, 39
1, 201257, Note_off_c, 0, 68, 65
1, 201258, Note_off_c, 0, 62, 62
1, 201261, Note_off_c, 0, 53, 53
1, 201272, Note_off_c, 0, 59, 58
1, 201334, Note_on_c, 0, 68, 72
1, 201338, Note_on_c, 0, 65, 70
1, 201338, Note_on_c, 0, 62, 61
1, 201367, Note_off_c, 0, 65, 67
1, 201375, Note_off_c, 0, 62, 59
1, 201399, Note_off_c, 0, 68, 61
1, 201450, Note_on_c, 0, 71, 90
1, 201463, Note_on_c, 0, 59, 63
1, 201466, Note_on_c, 0, 53, 57
1, 201495, Note_off_c, 0, 53, 60
1, 201535, Note_off_c, 0, 59, 61
1, 201571, Note_on_c, 0, 65, 75
1, 201573, Note_on_c, 0, 68, 69
1, 201582, Note_on_c, 0, 62, 60
1, 201592, Note_off_c, 0, 65, 65
1, 201604, Note_off_c, 0, 68, 61
1, 201611, Note_off_c, 0, 62, 64
1, 201695, Note_on_c, 0, 62, 64
1, 201696, Note_on_c, 0, 53, 83
1, 201700, Note_on_c, 0, 41, 78
1, 201702, Note_on_c, 0, 68, 68
1, 201718, Note_off_c, 0, 53, 70
1, 201728, Note_off_c, 0, 62, 62
1, 201729, Note_off_c, 0, 41, 65
1, 201745, Note_off_c, 0, 68, 58
1, 201787, Control_c, 0, 64, 119
1, 201802, Control_c, 0, 64, 80
1, 201816, Control_c, 0, 64, 0
1, 201843, Note_on_c, 0, 51, 68
1, 201847, Note_on_c, 0, 67, 66
1, 201851, Note_on_c, 0, 39, 57
1, 201854, Note_on_c, 0, 63, 70
1, 201860, Control_c, 0, 64, 65
1, 201875, Control_c, 0, 64, 82
1, 201881, Note_off_c, 0, 39, 62
1, 201887, Note_off_c, 0, 51, 61
1, 201890, Note_off_c, 0, 63, 60
1, 201890, Control_c, 0, 64, 127
1, 201899, Note_off_c, 0, 67, 56
1, 201975, Note_on_c, 0, 67, 67
1, 201977, Note_on_c, 0, 55, 67
1, 201982, Note_on_c, 0, 63, 64
1, 201985, Note_on_c, 0, 48, 55
1, 202006, Note_off_c, 0, 71, 61
1, 202007, Note_off_c, 0, 55, 63
1, 202013, Note_off_c, 0, 48, 61
1, 202048, Note_off_c, 0, 63, 56
1, 202074, Note_off_c, 0, 67, 0
1, 202086, Note_on_c, 0, 72, 103
1, 202093, Note_on_c, 0, 60, 73
1, 202098, Note_on_c, 0, 51, 65
1, 202106, Note_on_c, 0, 67, 14
1, 202119, Note_on_c, 0, 63, 17
1, 202122, Note_off_c, 0, 60, 65
1, 202134, Note_off_c, 0, 51, 59
1, 202146, Note_off_c, 0, 67, 43
1, 202151, Note_off_c, 0, 72, 63
1, 202155, Note_off_c, 0, 63, 55
1, 202226, Note_on_c, 0, 48, 68
1, 202228, Note_on_c, 0, 55, 70
1, 202235, Note_on_c, 0, 74, 92
1, 202256, Note_on_c, 0, 63, 33
1, 202266, Note_off_c, 0, 48, 60
1, 202280, Note_off_c, 0, 55, 61
1, 202286, Note_off_c, 0, 63, 55
1, 202349, Note_off_c, 0, 74, 60
1, 202349, Note_on_c, 0, 51, 74
1, 202352, Note_on_c, 0, 60, 58
1, 202356, Note_on_c, 0, 63, 75
1, 202367, Note_on_c, 0, 67, 65
1, 202373, Note_off_c, 0, 60, 60
1, 202377, Note_off_c, 0, 51, 66
1, 202388, Note_off_c, 0, 63, 58
1, 202475, Note_on_c, 0, 48, 84
1, 202478, Note_on_c, 0, 75, 90
1, 202488, Note_on_c, 0, 36, 56
1, 202496, Note_on_c, 0, 38, 45
1, 202498, Note_off_c, 0, 48, 68
1, 202520, Note_off_c, 0, 36, 53
1, 202532, Note_off_c, 0, 38, 51
1, 202534, Note_off_c, 0, 67, 0
1, 202574, Poly_aftertouch_c, 0, 63, 0
1, 202580, Control_c, 0, 64, 87
1, 202583, Poly_aftertouch_c, 0, 67, 0
1, 202595, Control_c, 0, 64, 38
1, 202609, Control_c, 0, 64, 0
1, 202626, Note_on_c, 0, 35, 71
1, 202628, Note_on_c, 0, 47, 72
1, 202638, Note_on_c, 0, 67, 63
1, 202639, Control_c, 0, 64, 58
1, 202644, Note_on_c, 0, 65, 66
1, 202654, Control_c, 0, 64, 74
1, 202656, Note_off_c, 0, 35, 64
1, 202669, Control_c, 0, 64, 104
1, 202672, Note_off_c, 0, 65, 67
1, 202681, Note_off_c, 0, 47, 62
1, 202683, Note_off_c, 0, 67, 56
1, 202683, Control_c, 0, 64, 127
1, 202774, Note_on_c, 0, 67, 66
1, 202775, Note_on_c, 0, 47, 51
1, 202777, Note_on_c, 0, 65, 51
1, 202787, Note_on_c, 0, 55, 55
1, 202798, Note_off_c, 0, 47, 60
1, 202802, Note_off_c, 0, 65, 63
1, 202806, Note_off_c, 0, 67, 63
1, 202818, Note_off_c, 0, 55, 63
1, 202870, Note_on_c, 0, 67, 77
1, 202876, Note_on_c, 0, 65, 71
1, 202883, Note_on_c, 0, 50, 54
1, 202891, Note_on_c, 0, 60, 39
1, 202897, Note_on_c, 0, 62, 28
1, 202899, Note_off_c, 0, 75, 59
1, 202921, Note_off_c, 0, 60, 51
1, 202923, Note_off_c, 0, 50, 60
1, 202939, Note_off_c, 0, 62, 45
1, 202951, Note_off_c, 0, 65, 49
1, 202993, Note_on_c, 0, 47, 72
1, 202996, Note_on_c, 0, 74, 97
1, 203013, Note_on_c, 0, 65, 48
1, 203023, Note_off_c, 0, 47, 63
1, 203032, Note_on_c, 0, 55, 49
1, 203032, Note_off_c, 0, 65, 65
1, 203069, Note_off_c, 0, 55, 63
1, 203088, Note_off_c, 0, 67, 0
1, 203102, Note_on_c, 0, 65, 71
1, 203103, Note_on_c, 0, 67, 53
1, 203106, Note_on_c, 0, 62, 75
1, 203113, Note_on_c, 0, 50, 68
1, 203121, Note_off_c, 0, 62, 65
1, 203136, Note_off_c, 0, 65, 64
1, 203145, Note_off_c, 0, 50, 64
1, 203148, Note_off_c, 0, 67, 61
1, 203234, Note_on_c, 0, 65, 80
1, 203243, Note_on_c, 0, 35, 72
1, 203243, Note_on_c, 0, 67, 69
1, 203246, Note_on_c, 0, 47, 66
1, 203263, Note_off_c, 0, 65, 65
1, 203270, Note_on_c, 0, 45, 39
1, 203272, Note_off_c, 0, 35, 64
1, 203277, Note_off_c, 0, 47, 63
1, 203306, Note_off_c, 0, 45, 46
1, 203328, Note_off_c, 0, 67, 51
1, 203344, Control_c, 0, 64, 90
1, 203359, Control_c, 0, 64, 49
1, 203374, Control_c, 0, 64, 0
1, 203379, Note_on_c, 0, 48, 67
1, 203380, Note_on_c, 0, 36, 72
1, 203392, Note_on_c, 0, 67, 56
1, 203402, Note_on_c, 0, 63, 70
1, 203413, Note_off_c, 0, 36, 67
1, 203419, Control_c, 0, 64, 65
1, 203433, Control_c, 0, 64, 82
1, 203448, Control_c, 0, 64, 122
1, 203451, Note_off_c, 0, 48, 64
1, 203463, Control_c, 0, 64, 127
1, 203466, Note_off_c, 0, 67, 63
1, 203467, Note_off_c, 0, 63, 60
1, 203513, Note_off_c, 0, 74, 63
1, 203520, Note_on_c, 0, 67, 74
1, 203538, Note_on_c, 0, 63, 53
1, 203547, Note_on_c, 0, 48, 56
1, 203550, Note_on_c, 0, 55, 55
1, 203559, Note_off_c, 0, 63, 65
1, 203562, Note_off_c, 0, 67, 62
1, 203580, Note_off_c, 0, 48, 63
1, 203582, Note_off_c, 0, 55, 65
1, 203644, Note_on_c, 0, 63, 79
1, 203644, Note_on_c, 0, 75, 91
1, 203660, Note_on_c, 0, 60, 63
1, 203672, Note_on_c, 0, 51, 52
1, 203672, Note_off_c, 0, 63, 67
1, 203701, Note_off_c, 0, 60, 63
1, 203704, Note_off_c, 0, 75, 61
1, 203714, Note_off_c, 0, 51, 58
1, 203803, Note_on_c, 0, 48, 63
1, 203811, Note_on_c, 0, 55, 58
1, 203821, Note_on_c, 0, 77, 91
1, 203835, Note_on_c, 0, 67, 48
1, 203841, Control_c, 0, 64, 96
1, 203856, Control_c, 0, 64, 71
1, 203870, Control_c, 0, 64, 31
1, 203875, Note_off_c, 0, 67, 50
1, 203885, Control_c, 0, 64, 56
1, 203900, Control_c, 0, 64, 67
1, 203915, Control_c, 0, 64, 80
1, 203930, Control_c, 0, 64, 109
1, 203944, Control_c, 0, 64, 127
1, 203964, Note_off_c, 0, 55, 40
1, 203968, Note_off_c, 0, 48, 28
1, 203985, Note_on_c, 0, 75, 85
1, 203985, Note_on_c, 0, 60, 47
1, 203989, Note_on_c, 0, 51, 63
1, 204011, Note_off_c, 0, 60, 54
1, 204026, Note_off_c, 0, 77, 63
1, 204029, Note_off_c, 0, 51, 64
1, 204160, Note_on_c, 0, 36, 57
1, 204163, Note_on_c, 0, 48, 61
1, 204165, Note_on_c, 0, 79, 94
1, 204170, Note_on_c, 0, 67, 75
1, 204174, Note_off_c, 0, 75, 63
1, 204194, Note_off_c, 0, 48, 63
1, 204200, Note_off_c, 0, 67, 63
1, 204212, Note_off_c, 0, 36, 61
1, 204262, Note_off_c, 0, 79, 59
1, 204378, Note_on_c, 0, 29, 58
1, 204386, Poly_aftertouch_c, 0, 72, 127
1, 204405, Note_on_c, 0, 41, 61
1, 204456, Control_c, 0, 64, 110
1, 204470, Control_c, 0, 64, 83
1, 204485, Control_c, 0, 64, 55
1, 204492, Note_on_c, 0, 79, 74
1, 204500, Control_c, 0, 64, 0
1, 204510, Note_off_c, 0, 29, 62
1, 204512, Note_on_c, 0, 68, 59
1, 204526, Note_on_c, 0, 75, 46
1, 204531, Control_c, 0, 64, 36
1, 204546, Control_c, 0, 64, 65
1, 204560, Control_c, 0, 64, 76
1, 204571, Note_off_c, 0, 41, 64
1, 204575, Control_c, 0, 64, 88
1, 204590, Control_c, 0, 64, 96
1, 204598, Note_off_c, 0, 75, 48
1, 204605, Control_c, 0, 64, 97
1, 204619, Control_c, 0, 64, 98
1, 204624, Note_off_c, 0, 68, 38
1, 204634, Control_c, 0, 64, 98
1, 204664, Control_c, 0, 64, 99
1, 204679, Control_c, 0, 64, 100
1, 204693, Control_c, 0, 64, 102
1, 204708, Control_c, 0, 64, 105
1, 204723, Control_c, 0, 64, 108
1, 204728, Note_on_c, 0, 75, 71
1, 204730, Note_on_c, 0, 68, 70
1, 204738, Control_c, 0, 64, 111
1, 204751, Note_on_c, 0, 60, 62
1, 204753, Control_c, 0, 64, 114
1, 204760, Note_on_c, 0, 53, 47
1, 204763, Note_off_c, 0, 79, 60
1, 204767, Control_c, 0, 64, 116
1, 204782, Control_c, 0, 64, 117
1, 204790, Note_off_c, 0, 68, 54
1, 204797, Control_c, 0, 64, 119
1, 204803, Note_off_c, 0, 60, 48
1, 204811, Control_c, 0, 64, 120
1, 204865, Note_on_c, 0, 77, 90
1, 204867, Note_on_c, 0, 63, 68
1, 204876, Note_off_c, 0, 53, 55
1, 204877, Note_on_c, 0, 56, 62
1, 204880, Note_off_c, 0, 75, 63
1, 204882, Note_on_c, 0, 68, 53
1, 204906, Poly_aftertouch_c, 0, 72, 0
1, 204930, Note_off_c, 0, 63, 56
1, 204934, Note_off_c, 0, 68, 56
1, 204951, Note_off_c, 0, 56, 57
1, 204975, Note_off_c, 0, 77, 59
1, 204999, Note_on_c, 0, 80, 95
1, 205002, Note_on_c, 0, 53, 63
1, 205005, Note_on_c, 0, 72, 27
1, 205011, Note_on_c, 0, 60, 64
1, 205070, Note_off_c, 0, 72, 39
1, 205079, Note_off_c, 0, 53, 56
1, 205093, Note_off_c, 0, 60, 47
1, 205111, Note_on_c, 0, 56, 66
1, 205115, Note_on_c, 0, 63, 54
1, 205119, Poly_aftertouch_c, 0, 68, 0
1, 205131, Note_on_c, 0, 75, 83
1, 205132, Note_on_c, 0, 68, 48
1, 205136, Note_off_c, 0, 80, 67
1, 205139, Note_off_c, 0, 56, 66
1, 205141, Note_off_c, 0, 63, 58
1, 205173, Note_off_c, 0, 68, 65
1, 205184, Note_off_c, 0, 75, 63
1, 205234, Control_c, 0, 64, 119
1, 205270, Note_on_c, 0, 72, 93
1, 205272, Note_on_c, 0, 41, 77
1, 205278, Note_on_c, 0, 29, 68
1, 205288, Note_on_c, 0, 65, 67
1, 205297, Note_off_c, 0, 41, 66
1, 205312, Note_off_c, 0, 29, 53
1, 205315, Note_off_c, 0, 65, 66
1, 205324, Control_c, 0, 64, 119
1, 205339, Control_c, 0, 64, 118
1, 205353, Control_c, 0, 64, 117
1, 205368, Control_c, 0, 64, 116
1, 205383, Control_c, 0, 64, 105
1, 205398, Control_c, 0, 64, 78
1, 205413, Control_c, 0, 64, 0
1, 205434, Note_on_c, 0, 32, 50
1, 205434, Note_on_c, 0, 44, 61
1, 205443, Note_on_c, 0, 74, 78
1, 205452, Note_on_c, 0, 65, 63
1, 205457, Note_on_c, 0, 68, 62
1, 205457, Control_c, 0, 64, 53
1, 205468, Note_off_c, 0, 32, 48
1, 205470, Note_off_c, 0, 72, 61
1, 205472, Control_c, 0, 64, 70
1, 205473, Note_off_c, 0, 44, 61
1, 205487, Control_c, 0, 64, 86
1, 205501, Note_off_c, 0, 65, 58
1, 205502, Control_c, 0, 64, 127
1, 205542, Note_off_c, 0, 68, 33
1, 205556, Poly_aftertouch_c, 0, 45, 0
1, 205586, Note_off_c, 0, 74, 59
1, 205619, Note_on_c, 0, 72, 80
1, 205622, Note_on_c, 0, 65, 67
1, 205627, Note_on_c, 0, 60, 62
1, 205654, Note_on_c, 0, 53, 31
1, 205654, Note_off_c, 0, 65, 66
1, 205726, Note_off_c, 0, 60, 48
1, 205744, Note_off_c, 0, 72, 59
1, 205753, Note_on_c, 0, 75, 85
1, 205758, Note_on_c, 0, 65, 65
1, 205759, Note_on_c, 0, 63, 60
1, 205769, Note_on_c, 0, 56, 58
1, 205783, Note_off_c, 0, 53, 23
1, 205789, Note_off_c, 0, 65, 66
1, 205808, Note_off_c, 0, 75, 62
1, 205885, Note_off_c, 0, 63, 50
1, 205944, Note_on_c, 0, 53, 42
1, 205968, Control_c, 0, 64, 100
1, 205981, Note_on_c, 0, 60, 49
1, 205983, Control_c, 0, 64, 77
1, 205985, Note_off_c, 0, 56, 37
1, 205988, Note_on_c, 0, 72, 66
1, 205988, Note_on_c, 0, 75, 72
1, 205998, Control_c, 0, 64, 0
1, 206018, Note_on_c, 0, 68, 56
1, 206055, Note_off_c, 0, 72, 57
1, 206057, Control_c, 0, 64, 60
1, 206058, Note_off_c, 0, 68, 63
1, 206072, Control_c, 0, 64, 70
1, 206087, Control_c, 0, 64, 80
1, 206102, Control_c, 0, 64, 92
1, 206117, Note_off_c, 0, 75, 52
1, 206118, Control_c, 0, 64, 95
1, 206132, Control_c, 0, 64, 97
1, 206147, Control_c, 0, 64, 98
1, 206150, Note_off_c, 0, 53, 56
1, 206170, Note_off_c, 0, 60, 36
1, 206174, Note_on_c, 0, 56, 53
1, 206182, Note_on_c, 0, 63, 51
1, 206184, Note_on_c, 0, 77, 66
1, 206191, Control_c, 0, 64, 98
1, 206194, Note_on_c, 0, 72, 51
1, 206197, Note_on_c, 0, 68, 55
1, 206208, Note_off_c, 0, 63, 57
1, 206222, Note_off_c, 0, 77, 57
1, 206226, Note_off_c, 0, 68, 63
1, 206233, Note_off_c, 0, 72, 51
1, 206249, Note_off_c, 0, 56, 62
1, 206301, Note_on_c, 0, 75, 76
1, 206309, Note_on_c, 0, 68, 65
1, 206336, Note_off_c, 0, 68, 68
1, 206346, Note_off_c, 0, 75, 57
1, 206406, Note_on_c, 0, 74, 71
1, 206424, Note_on_c, 0, 68, 61
1, 206445, Note_off_c, 0, 68, 65
1, 206453, Note_off_c, 0, 74, 60
1, 206503, Control_c, 0, 64, 99
1, 206512, Note_on_c, 0, 75, 77
1, 206514, Note_on_c, 0, 68, 66
1, 206544, Note_off_c, 0, 68, 63
1, 206562, Note_off_c, 0, 75, 60
1, 206638, Note_on_c, 0, 79, 74
1, 206647, Note_on_c, 0, 32, 48
1, 206654, Note_on_c, 0, 68, 55
1, 206662, Note_on_c, 0, 44, 43
1, 206709, Note_off_c, 0, 68, 55
1, 206719, Note_off_c, 0, 44, 61
1, 206722, Note_off_c, 0, 32, 56
1, 206737, Note_off_c, 0, 79, 59
1, 206839, Note_on_c, 0, 77, 73
1, 206850, Note_on_c, 0, 68, 59
1, 206865, Note_off_c, 0, 77, 67
1, 206886, Note_off_c, 0, 68, 64
1, 207015, Note_on_c, 0, 34, 41
1, 207029, Control_c, 0, 64, 98
1, 207044, Control_c, 0, 64, 94
1, 207051, Note_on_c, 0, 46, 39
1, 207059, Control_c, 0, 64, 81
1, 207074, Control_c, 0, 64, 64
1, 207088, Control_c, 0, 64, 0
1, 207097, Note_on_c, 0, 70, 48
1, 207101, Note_on_c, 0, 74, 53
1, 207112, Note_on_c, 0, 65, 39
1, 207112, Note_on_c, 0, 68, 39
1, 207133, Control_c, 0, 64, 63
1, 207139, Note_off_c, 0, 34, 57
1, 207148, Control_c, 0, 64, 75
1, 207163, Control_c, 0, 64, 93
1, 207168, Note_off_c, 0, 65, 50
1, 207168, Note_off_c, 0, 68, 54
1, 207171, Note_off_c, 0, 46, 62
1, 207176, Note_off_c, 0, 70, 54
1, 207178, Control_c, 0, 64, 126
1, 207193, Control_c, 0, 64, 127
1, 207304, Note_on_c, 0, 46, 39
1, 207308, Note_on_c, 0, 70, 56
1, 207323, Note_on_c, 0, 56, 42
1, 207332, Note_on_c, 0, 68, 38
1, 207335, Note_off_c, 0, 46, 56
1, 207339, Note_on_c, 0, 65, 31
1, 207345, Note_off_c, 0, 70, 62
1, 207357, Note_off_c, 0, 56, 53
1, 207365, Note_off_c, 0, 68, 54
1, 207374, Note_off_c, 0, 65, 50
1, 207451, Note_on_c, 0, 62, 50
1, 207451, Note_on_c, 0, 70, 56
1, 207455, Note_on_c, 0, 68, 53
1, 207464, Note_on_c, 0, 53, 43
1, 207467, Note_on_c, 0, 65, 50
1, 207475, Note_off_c, 0, 62, 56
1, 207482, Note_off_c, 0, 68, 63
1, 207483, Note_off_c, 0, 70, 64
1, 207491, Note_off_c, 0, 65, 59
1, 207495, Note_off_c, 0, 53, 56
1, 207562, Note_on_c, 0, 46, 62
1, 207571, Note_on_c, 0, 70, 57
1, 207571, Note_on_c, 0, 65, 52
1, 207578, Note_on_c, 0, 68, 50
1, 207595, Note_off_c, 0, 46, 65
1, 207603, Note_off_c, 0, 68, 63
1, 207604, Note_off_c, 0, 65, 64
1, 207606, Note_off_c, 0, 70, 63
1, 207680, Note_on_c, 0, 53, 66
1, 207680, Note_on_c, 0, 62, 57
1, 207696, Note_on_c, 0, 70, 53
1, 207699, Note_on_c, 0, 65, 52
1, 207699, Note_off_c, 0, 62, 61
1, 207707, Note_on_c, 0, 68, 41
1, 207715, Note_off_c, 0, 53, 63
1, 207729, Note_off_c, 0, 65, 65
1, 207732, Note_off_c, 0, 70, 63
1, 207740, Note_off_c, 0, 68, 53
1, 207829, Note_on_c, 0, 46, 66
1, 207832, Note_on_c, 0, 70, 59
1, 207838, Note_on_c, 0, 68, 46
1, 207843, Note_on_c, 0, 34, 51
1, 207851, Note_on_c, 0, 65, 36
1, 207868, Note_off_c, 0, 46, 61
1, 207873, Note_off_c, 0, 68, 56
1, 207885, Note_off_c, 0, 34, 53
1, 207886, Note_off_c, 0, 65, 50
1, 207888, Note_off_c, 0, 70, 53
1, 207954, Control_c, 0, 64, 96
1, 207969, Control_c, 0, 64, 71
1, 207980, Note_on_c, 0, 35, 50
1, 207984, Control_c, 0, 64, 0
1, 207999, Note_on_c, 0, 47, 50
1, 208012, Note_off_c, 0, 35, 61
1, 208014, Control_c, 0, 64, 52
1, 208015, Note_on_c, 0, 65, 38
1, 208015, Note_on_c, 0, 67, 49
1, 208028, Control_c, 0, 64, 71
1, 208043, Control_c, 0, 64, 91
1, 208054, Note_off_c, 0, 47, 63
1, 208058, Note_off_c, 0, 67, 59
1, 208058, Control_c, 0, 64, 127
1, 208067, Note_off_c, 0, 65, 59
1, 208164, Note_on_c, 0, 67, 54
1, 208183, Note_on_c, 0, 65, 51
1, 208206, Note_off_c, 0, 67, 62
1, 208220, Note_off_c, 0, 65, 61
1, 208311, Note_on_c, 0, 67, 56
1, 208315, Note_on_c, 0, 65, 53
1, 208325, Note_on_c, 0, 50, 25
1, 208349, Note_off_c, 0, 67, 60
1, 208355, Note_off_c, 0, 65, 60
1, 208451, Control_c, 0, 64, 89
1, 208465, Control_c, 0, 64, 68
1, 208466, Note_on_c, 0, 47, 47
1, 208478, Note_off_c, 0, 50, 35
1, 208480, Control_c, 0, 64, 36
1, 208495, Control_c, 0, 64, 58
1, 208503, Note_on_c, 0, 55, 36
1, 208504, Note_on_c, 0, 67, 43
1, 208506, Note_off_c, 0, 47, 56
1, 208511, Control_c, 0, 64, 66
1, 208513, Note_on_c, 0, 65, 41
1, 208522, Note_off_c, 0, 74, 46
1, 208525, Control_c, 0, 64, 75
1, 208540, Control_c, 0, 64, 93
1, 208555, Control_c, 0, 64, 119
1, 208570, Control_c, 0, 64, 127
1, 208603, Note_off_c, 0, 55, 53
1, 208647, Note_off_c, 0, 67, 44
1, 208672, Note_on_c, 0, 62, 42
1, 208673, Note_on_c, 0, 70, 61
1, 208700, Note_off_c, 0, 62, 52
1, 208701, Note_on_c, 0, 68, 52
1, 208707, Note_off_c, 0, 65, 40
1, 208718, Note_off_c, 0, 70, 54
1, 208745, Note_off_c, 0, 68, 60
1, 208867, Control_c, 0, 64, 124
1, 208882, Control_c, 0, 64, 122
1, 208897, Control_c, 0, 64, 121
1, 208902, Note_on_c, 0, 67, 60
1, 208908, Note_on_c, 0, 35, 44
1, 208911, Control_c, 0, 64, 119
1, 208915, Note_on_c, 0, 47, 44
1, 208933, Control_c, 0, 64, 119
1, 208943, Note_off_c, 0, 67, 62
1, 208948, Control_c, 0, 64, 117
1, 208958, Note_off_c, 0, 35, 50
1, 208963, Control_c, 0, 64, 116
1, 208971, Note_off_c, 0, 47, 58
1, 208978, Control_c, 0, 64, 115
1, 208993, Control_c, 0, 64, 114
1, 209038, Control_c, 0, 64, 114
1, 209067, Control_c, 0, 64, 113
1, 209082, Control_c, 0, 64, 113
1, 209097, Control_c, 0, 64, 112
1, 209154, Note_on_c, 0, 36, 36
1, 209165, Note_on_c, 0, 48, 37
1, 209185, Control_c, 0, 64, 112
1, 209200, Control_c, 0, 64, 109
1, 209215, Control_c, 0, 64, 93
1, 209230, Control_c, 0, 64, 74
1, 209245, Control_c, 0, 64, 0
1, 209260, Note_on_c, 0, 76, 53
1, 209274, Note_on_c, 0, 67, 33
1, 209283, Note_on_c, 0, 70, 29
1, 209284, Note_on_c, 0, 72, 43
1, 209289, Control_c, 0, 64, 53
1, 209305, Control_c, 0, 64, 68
1, 209307, Note_off_c, 0, 36, 37
1, 209320, Control_c, 0, 64, 81
1, 209334, Control_c, 0, 64, 98
1, 209344, Note_off_c, 0, 67, 51
1, 209348, Note_off_c, 0, 48, 56
1, 209349, Control_c, 0, 64, 112
1, 209350, Note_off_c, 0, 72, 54
1, 209364, Control_c, 0, 64, 120
1, 209368, Note_off_c, 0, 76, 58
1, 209376, Note_off_c, 0, 70, 33
1, 209379, Control_c, 0, 64, 127
1, 209542, Note_on_c, 0, 76, 48
1, 209561, Note_on_c, 0, 72, 45
1, 209571, Note_on_c, 0, 67, 23
1, 209579, Note_on_c, 0, 70, 11
1, 209592, Note_off_c, 0, 76, 60
1, 209598, Note_off_c, 0, 72, 52
1, 209610, Note_off_c, 0, 67, 52
1, 209625, Note_off_c, 0, 70, 53
1, 209688, Note_on_c, 0, 76, 64
1, 209703, Note_on_c, 0, 64, 34
1, 209705, Note_on_c, 0, 72, 53
1, 209715, Note_on_c, 0, 58, 35
1, 209731, Note_off_c, 0, 72, 56
1, 209732, Note_off_c, 0, 76, 62
1, 209752, Note_off_c, 0, 64, 43
1, 209766, Note_off_c, 0, 58, 45
1, 209821, Note_on_c, 0, 79, 88
1, 209830, Note_on_c, 0, 55, 45
1, 209831, Note_on_c, 0, 60, 49
1, 209861, Note_on_c, 0, 70, 43
1, 209879, Note_off_c, 0, 55, 58
1, 209887, Note_off_c, 0, 60, 50
1, 209898, Note_off_c, 0, 70, 49
1, 209943, Note_on_c, 0, 58, 63
1, 209950, Note_on_c, 0, 64, 44
1, 209952, Note_on_c, 0, 76, 61
1, 209961, Note_on_c, 0, 72, 60
1, 209971, Note_off_c, 0, 58, 67
1, 209975, Note_off_c, 0, 64, 56
1, 209990, Note_off_c, 0, 76, 63
1, 209994, Note_off_c, 0, 72, 65
1, 210012, Poly_aftertouch_c, 0, 70, 127
1, 210058, Poly_aftertouch_c, 0, 70, 0
1, 210070, Note_on_c, 0, 48, 75
1, 210073, Note_on_c, 0, 36, 72
1, 210074, Note_on_c, 0, 70, 42
1, 210075, Note_on_c, 0, 72, 73
1, 210084, Note_on_c, 0, 76, 63
1, 210097, Note_off_c, 0, 48, 65
1, 210098, Note_off_c, 0, 36, 62
1, 210106, Note_off_c, 0, 70, 63
1, 210114, Note_off_c, 0, 72, 63
1, 210114, Note_off_c, 0, 76, 65
1, 210187, Control_c, 0, 64, 108
1, 210202, Control_c, 0, 64, 80
1, 210213, Note_on_c, 0, 53, 69
1, 210214, Note_on_c, 0, 41, 66
1, 210217, Control_c, 0, 64, 0
1, 210221, Note_on_c, 0, 76, 56
1, 210227, Note_on_c, 0, 72, 65
1, 210232, Note_on_c, 0, 68, 60
1, 210242, Note_off_c, 0, 41, 65
1, 210246, Control_c, 0, 64, 60
1, 210261, Control_c, 0, 64, 72
1, 210266, Note_off_c, 0, 68, 65
1, 210268, Note_off_c, 0, 72, 61
1, 210274, Note_off_c, 0, 53, 63
1, 210275, Control_c, 0, 64, 95
1, 210284, Note_off_c, 0, 76, 63
1, 210290, Control_c, 0, 64, 127
1, 210362, Note_on_c, 0, 68, 60
1, 210364, Note_on_c, 0, 76, 54
1, 210367, Note_on_c, 0, 60, 65
1, 210372, Note_on_c, 0, 53, 55
1, 210379, Note_on_c, 0, 72, 59
1, 210394, Note_off_c, 0, 68, 64
1, 210398, Note_off_c, 0, 60, 63
1, 210400, Note_off_c, 0, 76, 64
1, 210403, Note_off_c, 0, 53, 52
1, 210406, Note_off_c, 0, 72, 65
1, 210440, Note_off_c, 0, 79, 57
1, 210475, Note_on_c, 0, 65, 75
1, 210476, Note_on_c, 0, 68, 68
1, 210480, Note_on_c, 0, 76, 74
1, 210481, Note_on_c, 0, 72, 74
1, 210502, Note_off_c, 0, 65, 69
1, 210519, Note_off_c, 0, 68, 59
1, 210555, Note_off_c, 0, 76, 63
1, 210582, Note_on_c, 0, 80, 93
1, 210590, Note_on_c, 0, 53, 57
1, 210593, Note_on_c, 0, 60, 71
1, 210624, Note_off_c, 0, 53, 62
1, 210628, Note_off_c, 0, 72, 61
1, 210630, Note_off_c, 0, 60, 54
1, 210699, Note_on_c, 0, 65, 73
1, 210704, Note_on_c, 0, 77, 67
1, 210723, Note_off_c, 0, 65, 66
1, 210742, Note_on_c, 0, 68, 17
1, 210759, Note_off_c, 0, 77, 53
1, 210781, Note_off_c, 0, 68, 55
1, 210838, Note_on_c, 0, 77, 70
1, 210844, Note_on_c, 0, 53, 62
1, 210856, Note_on_c, 0, 68, 51
1, 210856, Note_on_c, 0, 41, 52
1, 210867, Note_off_c, 0, 53, 60
1, 210886, Note_off_c, 0, 68, 52
1, 210889, Note_off_c, 0, 41, 53
1, 210920, Control_c, 0, 64, 90
1, 210935, Control_c, 0, 64, 64
1, 210950, Control_c, 0, 64, 0
1, 210979, Control_c, 0, 64, 55
1, 210988, Note_on_c, 0, 75, 73
1, 210989, Note_on_c, 0, 46, 64
1, 210993, Note_on_c, 0, 68, 63
1, 210994, Control_c, 0, 64, 72
1, 210998, Note_on_c, 0, 34, 52
1, 210999, Note_off_c, 0, 77, 53
1, 211009, Control_c, 0, 64, 92
1, 211017, Note_on_c, 0, 72, 37
1, 211017, Note_off_c, 0, 46, 65
1, 211024, Control_c, 0, 64, 127
1, 211032, Note_off_c, 0, 34, 52
1, 211032, Note_off_c, 0, 68, 61
1, 211058, Note_off_c, 0, 75, 62
1, 211065, Note_off_c, 0, 72, 44
1, 211142, Note_on_c, 0, 68, 63
1, 211142, Note_off_c, 0, 80, 63
1, 211146, Note_on_c, 0, 75, 70
1, 211155, Note_on_c, 0, 53, 66
1, 211171, Note_on_c, 0, 60, 56
1, 211190, Note_on_c, 0, 72, 26
1, 211195, Note_off_c, 0, 53, 61
1, 211203, Note_off_c, 0, 60, 62
1, 211214, Note_off_c, 0, 75, 61
1, 211220, Note_off_c, 0, 68, 57
1, 211250, Note_off_c, 0, 72, 0
1, 211250, Note_on_c, 0, 72, 31
1, 211256, Note_on_c, 0, 79, 97
1, 211268, Note_on_c, 0, 56, 68
1, 211268, Note_on_c, 0, 63, 66
1, 211300, Note_off_c, 0, 63, 63
1, 211303, Note_off_c, 0, 72, 63
1, 211327, Note_off_c, 0, 56, 49
1, 211393, Note_on_c, 0, 75, 65
1, 211394, Note_on_c, 0, 60, 65
1, 211394, Note_on_c, 0, 68, 62
1, 211399, Note_on_c, 0, 53, 61
1, 211421, Note_off_c, 0, 68, 64
1, 211434, Note_off_c, 0, 75, 57
1, 211439, Note_off_c, 0, 53, 61
1, 211444, Note_off_c, 0, 60, 49
1, 211500, Note_on_c, 0, 56, 69
1, 211506, Note_on_c, 0, 63, 57
1, 211524, Note_on_c, 0, 75, 79
1, 211527, Note_off_c, 0, 56, 69
1, 211533, Note_off_c, 0, 79, 54
1, 211536, Note_off_c, 0, 63, 55
1, 211672, Note_on_c, 0, 77, 88
1, 211677, Note_on_c, 0, 46, 64
1, 211679, Note_off_c, 0, 75, 63
1, 211680, Note_on_c, 0, 34, 57
1, 211706, Note_off_c, 0, 46, 63
1, 211721, Note_off_c, 0, 34, 48
1, 211862, Control_c, 0, 64, 108
1, 211872, Note_on_c, 0, 39, 54
1, 211876, Control_c, 0, 64, 78
1, 211879, Note_on_c, 0, 51, 47
1, 211891, Control_c, 0, 64, 0
1, 211924, Note_on_c, 0, 67, 58
1, 211958, Control_c, 0, 64, 59
1, 211962, Note_off_c, 0, 39, 63
1, 211973, Control_c, 0, 64, 71
1, 211988, Control_c, 0, 64, 87
1, 211997, Note_off_c, 0, 51, 56
1, 211998, Note_off_c, 0, 77, 58
1, 212002, Control_c, 0, 64, 105
1, 212017, Control_c, 0, 64, 115
1, 212024, Note_off_c, 0, 67, 57
1, 212032, Control_c, 0, 64, 127
1, 212143, Note_on_c, 0, 75, 66
1, 212145, Note_on_c, 0, 51, 51
1, 212157, Note_on_c, 0, 67, 48
1, 212167, Note_on_c, 0, 70, 42
1, 212182, Note_off_c, 0, 67, 60
1, 212189, Note_on_c, 0, 58, 37
1, 212195, Note_off_c, 0, 70, 54
1, 212205, Note_off_c, 0, 75, 60
1, 212218, Note_off_c, 0, 51, 44
1, 212261, Note_off_c, 0, 58, 47
1, 212332, Note_on_c, 0, 77, 62
1, 212338, Note_on_c, 0, 62, 42
1, 212344, Note_on_c, 0, 55, 42
1, 212344, Note_on_c, 0, 70, 39
1, 212346, Note_on_c, 0, 67, 45
1, 212373, Note_off_c, 0, 67, 58
1, 212374, Note_off_c, 0, 70, 57
1, 212374, Note_off_c, 0, 77, 57
1, 212394, Note_off_c, 0, 55, 56
1, 212405, Note_off_c, 0, 62, 46
1, 212460, Note_on_c, 0, 67, 66
1, 212465, Note_on_c, 0, 75, 69
1, 212489, Note_on_c, 0, 51, 48
1, 212493, Note_off_c, 0, 67, 63
1, 212497, Note_on_c, 0, 58, 50
1, 212508, Note_off_c, 0, 75, 57
1, 212575, Note_on_c, 0, 74, 77
1, 212583, Note_on_c, 0, 67, 70
1, 212605, Note_on_c, 0, 55, 59
1, 212605, Note_off_c, 0, 51, 51
1, 212607, Note_off_c, 0, 67, 68
1, 212617, Note_off_c, 0, 58, 53
1, 212623, Note_off_c, 0, 74, 64
1, 212633, Note_off_c, 0, 55, 65
1, 212693, Note_on_c, 0, 75, 81
1, 212700, Note_on_c, 0, 67, 69
1, 212734, Note_off_c, 0, 67, 59
1, 212763, Note_off_c, 0, 75, 59
1, 212810, Note_on_c, 0, 51, 45
1, 212812, Note_on_c, 0, 39, 51
1, 212814, Note_on_c, 0, 77, 83
1, 212825, Note_on_c, 0, 67, 64
1, 212848, Note_off_c, 0, 67, 68
1, 212849, Note_off_c, 0, 51, 63
1, 212864, Note_off_c, 0, 77, 62
1, 212910, Note_off_c, 0, 39, 62
1, 212947, Note_on_c, 0, 79, 88
1, 212955, Note_on_c, 0, 67, 70
1, 212983, Note_off_c, 0, 67, 64
1, 212990, Note_off_c, 0, 79, 59
1, 213085, Note_on_c, 0, 32, 47
1, 213106, Note_on_c, 0, 44, 11
1, 213107, Control_c, 0, 64, 117
1, 213122, Control_c, 0, 64, 88
1, 213137, Control_c, 0, 64, 64
1, 213145, Note_on_c, 0, 72, 66
1, 213149, Note_on_c, 0, 68, 59
1, 213151, Control_c, 0, 64, 0
1, 213160, Note_on_c, 0, 67, 46
1, 213166, Control_c, 0, 64, 26
1, 213176, Note_off_c, 0, 32, 63
1, 213181, Control_c, 0, 64, 68
1, 213196, Control_c, 0, 64, 86
1, 213207, Note_off_c, 0, 67, 60
1, 213207, Note_off_c, 0, 68, 59
1, 213211, Control_c, 0, 64, 127
1, 213214, Note_off_c, 0, 44, 55
1, 213319, Note_on_c, 0, 48, 54
1, 213320, Note_on_c, 0, 68, 70
1, 213325, Note_off_c, 0, 72, 57
1, 213327, Note_on_c, 0, 67, 54
1, 213337, Note_on_c, 0, 56, 47
1, 213346, Note_off_c, 0, 68, 67
1, 213357, Note_off_c, 0, 67, 65
1, 213360, Note_off_c, 0, 48, 60
1, 213364, Note_off_c, 0, 56, 56
1, 213435, Note_on_c, 0, 60, 64
1, 213441, Note_on_c, 0, 68, 77
1, 213442, Note_on_c, 0, 51, 57
1, 213461, Note_on_c, 0, 67, 40
1, 213473, Note_off_c, 0, 60, 55
1, 213473, Note_off_c, 0, 68, 63
1, 213484, Note_off_c, 0, 67, 59
1, 213500, Note_off_c, 0, 51, 53
1, 213556, Note_on_c, 0, 48, 64
1, 213560, Note_on_c, 0, 72, 92
1, 213567, Note_on_c, 0, 56, 66
1, 213569, Note_on_c, 0, 67, 54
1, 213599, Note_off_c, 0, 67, 64
1, 213614, Note_off_c, 0, 48, 59
1, 213631, Note_off_c, 0, 56, 54
1, 213662, Note_off_c, 0, 72, 53
1, 213680, Note_on_c, 0, 51, 73
1, 213688, Note_on_c, 0, 68, 85
1, 213707, Note_off_c, 0, 51, 67
1, 213714, Note_on_c, 0, 67, 27
1, 213743, Note_off_c, 0, 68, 57
1, 213755, Note_off_c, 0, 67, 42
1, 213840, Note_on_c, 0, 67, 75
1, 213840, Note_on_c, 0, 72, 90
1, 213840, Note_on_c, 0, 44, 73
1, 213843, Note_on_c, 0, 32, 62
1, 213864, Note_off_c, 0, 67, 68
1, 213872, Note_off_c, 0, 44, 64
1, 213873, Note_off_c, 0, 32, 63
1, 213912, Note_off_c, 0, 72, 55
1, 214015, Note_on_c, 0, 38, 49
1, 214031, Note_on_c, 0, 50, 55
1, 214048, Control_c, 0, 64, 90
1, 214063, Control_c, 0, 64, 59
1, 214078, Control_c, 0, 64, 0
1, 214079, Note_on_c, 0, 72, 81
1, 214079, Note_on_c, 0, 68, 51
1, 214096, Note_on_c, 0, 65, 56
1, 214105, Note_off_c, 0, 38, 64
1, 214109, Note_off_c, 0, 68, 55
1, 214123, Control_c, 0, 64, 63
1, 214138, Control_c, 0, 64, 77
1, 214153, Control_c, 0, 64, 98
1, 214155, Note_off_c, 0, 50, 62
1, 214175, Control_c, 0, 64, 127
1, 214185, Note_off_c, 0, 65, 61
1, 214283, Note_on_c, 0, 68, 72
1, 214284, Note_on_c, 0, 56, 56
1, 214299, Note_on_c, 0, 65, 52
1, 214315, Note_off_c, 0, 68, 63
1, 214322, Note_off_c, 0, 56, 60
1, 214329, Note_off_c, 0, 65, 59
1, 214364, Poly_aftertouch_c, 0, 50, 0
1, 214388, Note_on_c, 0, 60, 61
1, 214400, Note_on_c, 0, 53, 52
1, 214405, Note_on_c, 0, 68, 77
1, 214414, Note_on_c, 0, 65, 59
1, 214445, Note_off_c, 0, 72, 52
1, 214476, Note_off_c, 0, 53, 41
1, 214491, Note_off_c, 0, 65, 53
1, 214537, Note_off_c, 0, 60, 54
1, 214538, Note_on_c, 0, 56, 57
1, 214542, Note_on_c, 0, 50, 48
1, 214545, Note_on_c, 0, 77, 90
1, 214545, Control_c, 0, 64, 92
1, 214560, Control_c, 0, 64, 71
1, 214575, Control_c, 0, 64, 0
1, 214590, Control_c, 0, 64, 30
1, 214604, Control_c, 0, 64, 63
1, 214619, Control_c, 0, 64, 74
1, 214634, Control_c, 0, 64, 96
1, 214648, Control_c, 0, 64, 127
1, 214703, Note_off_c, 0, 77, 58
1, 214709, Note_on_c, 0, 53, 61
1, 214709, Note_off_c, 0, 50, 35
1, 214713, Note_on_c, 0, 60, 40
1, 214723, Note_off_c, 0, 56, 36
1, 214725, Note_on_c, 0, 65, 60
1, 214727, Note_on_c, 0, 72, 74
1, 214732, Note_off_c, 0, 68, 62
1, 214740, Note_off_c, 0, 53, 64
1, 214746, Note_off_c, 0, 60, 49
1, 214755, Note_off_c, 0, 65, 65
1, 214900, Note_on_c, 0, 75, 84
1, 214905, Note_off_c, 0, 72, 65
1, 214906, Note_on_c, 0, 65, 63
1, 214951, Note_off_c, 0, 65, 61
1, 214953, Note_on_c, 0, 48, 14
1, 214961, Note_on_c, 0, 36, 20
1, 214988, Poly_aftertouch_c, 0, 38, 127
1, 214991, Note_off_c, 0, 36, 0
1, 215001, Note_off_c, 0, 75, 56
1, 215003, Note_off_c, 0, 48, 37
1, 215010, Poly_aftertouch_c, 0, 36, 0
1, 215023, Poly_aftertouch_c, 0, 38, 0
1, 215142, Note_on_c, 0, 31, 50
1, 215167, Note_on_c, 0, 43, 48
1, 215190, Control_c, 0, 64, 118
1, 215205, Control_c, 0, 64, 89
1, 215220, Control_c, 0, 64, 66
1, 215234, Note_on_c, 0, 75, 65
1, 215235, Control_c, 0, 64, 0
1, 215239, Note_on_c, 0, 68, 46
1, 215247, Note_on_c, 0, 72, 63
1, 215252, Note_on_c, 0, 65, 55
1, 215264, Control_c, 0, 64, 20
1, 215279, Control_c, 0, 64, 66
1, 215285, Note_off_c, 0, 31, 39
1, 215294, Control_c, 0, 64, 78
1, 215306, Note_off_c, 0, 65, 54
1, 215309, Control_c, 0, 64, 93
1, 215324, Control_c, 0, 64, 103
1, 215329, Note_off_c, 0, 43, 61
1, 215331, Note_off_c, 0, 72, 58
1, 215338, Control_c, 0, 64, 104
1, 215353, Control_c, 0, 64, 105
1, 215355, Note_off_c, 0, 68, 35
1, 215541, Note_on_c, 0, 50, 45
1, 215541, Note_on_c, 0, 72, 57
1, 215542, Note_on_c, 0, 68, 52
1, 215546, Control_c, 0, 64, 104
1, 215553, Note_on_c, 0, 65, 40
1, 215563, Note_on_c, 0, 56, 42
1, 215577, Note_off_c, 0, 68, 57
1, 215584, Note_off_c, 0, 65, 53
1, 215586, Note_off_c, 0, 72, 58
1, 215605, Control_c, 0, 64, 104
1, 215609, Note_off_c, 0, 50, 55
1, 215614, Note_off_c, 0, 56, 56
1, 215714, Note_on_c, 0, 72, 62
1, 215721, Note_on_c, 0, 68, 49
1, 215724, Note_on_c, 0, 60, 50
1, 215730, Note_on_c, 0, 65, 30
1, 215753, Note_off_c, 0, 72, 63
1, 215761, Note_off_c, 0, 68, 49
1, 215765, Note_off_c, 0, 65, 53
1, 215775, Note_off_c, 0, 60, 51
1, 215851, Control_c, 0, 64, 102
1, 215855, Note_on_c, 0, 68, 57
1, 215858, Note_on_c, 0, 71, 65
1, 215858, Note_on_c, 0, 50, 49
1, 215858, Note_on_c, 0, 65, 53
1, 215866, Control_c, 0, 64, 91
1, 215877, Note_on_c, 0, 55, 47
1, 215881, Control_c, 0, 64, 75
1, 215895, Control_c, 0, 64, 64
1, 215902, Note_off_c, 0, 65, 61
1, 215907, Note_off_c, 0, 68, 50
1, 215910, Control_c, 0, 64, 59
1, 215925, Note_off_c, 0, 71, 57
1, 215925, Control_c, 0, 64, 62
1, 215940, Control_c, 0, 64, 65
1, 215955, Control_c, 0, 64, 70
1, 215969, Control_c, 0, 64, 79
1, 215979, Note_off_c, 0, 50, 0
1, 215984, Control_c, 0, 64, 99
1, 215999, Control_c, 0, 64, 117
1, 216004, Note_off_c, 0, 55, 39
1, 216007, Note_on_c, 0, 59, 54
1, 216013, Control_c, 0, 64, 127
1, 216016, Note_on_c, 0, 65, 53
1, 216019, Poly_aftertouch_c, 0, 50, 0
1, 216025, Note_on_c, 0, 68, 47
1, 216030, Note_off_c, 0, 59, 62
1, 216031, Note_on_c, 0, 71, 50
1, 216043, Note_off_c, 0, 75, 48
1, 216054, Note_off_c, 0, 65, 63
1, 216192, Note_on_c, 0, 74, 63
1, 216195, Note_on_c, 0, 31, 56
1, 216202, Note_on_c, 0, 65, 40
1, 216208, Note_off_c, 0, 71, 43
1, 216214, Note_on_c, 0, 43, 35
1, 216236, Note_off_c, 0, 31, 61
1, 216237, Note_off_c, 0, 65, 53
1, 216253, Note_off_c, 0, 43, 56
1, 216307, Note_off_c, 0, 68, 38
1, 216381, Note_on_c, 0, 32, 53
1, 216384, Control_c, 0, 64, 124
1, 216399, Control_c, 0, 64, 98
1, 216421, Control_c, 0, 64, 80
1, 216427, Note_on_c, 0, 44, 44
1, 216436, Control_c, 0, 64, 64
1, 216451, Control_c, 0, 64, 12
1, 216466, Control_c, 0, 64, 44
1, 216469, Note_on_c, 0, 63, 57
1, 216481, Control_c, 0, 64, 64
1, 216496, Control_c, 0, 64, 71
1, 216499, Note_off_c, 0, 32, 63
1, 216511, Control_c, 0, 64, 85
1, 216526, Control_c, 0, 64, 106
1, 216539, Note_off_c, 0, 44, 61
1, 216541, Control_c, 0, 64, 127
1, 216547, Note_off_c, 0, 63, 56
1, 216551, Note_off_c, 0, 74, 56
1, 216756, Note_on_c, 0, 72, 66
1, 216761, Note_on_c, 0, 68, 44
1, 216764, Note_on_c, 0, 63, 44
1, 216771, Note_on_c, 0, 56, 42
1, 216775, Note_on_c, 0, 48, 37
1, 216815, Note_off_c, 0, 68, 56
1, 216817, Note_off_c, 0, 63, 58
1, 216850, Note_off_c, 0, 48, 40
1, 216857, Note_off_c, 0, 72, 56
1, 216886, Note_off_c, 0, 56, 38
1, 216987, Note_on_c, 0, 74, 68
1, 216997, Note_on_c, 0, 63, 55
1, 216998, Note_on_c, 0, 60, 44
1, 217005, Note_on_c, 0, 51, 37
1, 217006, Note_on_c, 0, 68, 43
1, 217049, Note_off_c, 0, 63, 55
1, 217074, Note_off_c, 0, 74, 59
1, 217125, Note_off_c, 0, 51, 34
1, 217163, Note_on_c, 0, 72, 83
1, 217164, Note_on_c, 0, 63, 68
1, 217171, Note_on_c, 0, 48, 50
1, 217173, Note_off_c, 0, 60, 39
1, 217182, Note_on_c, 0, 56, 51
1, 217214, Note_off_c, 0, 68, 44
1, 217224, Note_off_c, 0, 63, 59
1, 217247, Note_off_c, 0, 72, 61
1, 217294, Note_on_c, 0, 71, 81
1, 217298, Note_on_c, 0, 63, 72
1, 217322, Note_off_c, 0, 56, 60
1, 217325, Note_off_c, 0, 48, 60
1, 217325, Note_on_c, 0, 51, 66
1, 217349, Note_off_c, 0, 63, 60
1, 217355, Note_off_c, 0, 51, 67
1, 217416, Note_on_c, 0, 72, 90
1, 217420, Note_on_c, 0, 63, 75
1, 217449, Note_off_c, 0, 71, 57
1, 217473, Note_off_c, 0, 63, 61
1, 217539, Note_on_c, 0, 44, 61
1, 217539, Note_on_c, 0, 63, 74
1, 217539, Note_on_c, 0, 74, 85
1, 217540, Note_on_c, 0, 32, 63
1, 217554, Note_off_c, 0, 72, 58
1, 217586, Note_off_c, 0, 63, 62
1, 217587, Note_off_c, 0, 74, 62
1, 217592, Note_off_c, 0, 44, 61
1, 217625, Note_off_c, 0, 32, 62
1, 217676, Note_on_c, 0, 75, 90
1, 217681, Note_on_c, 0, 63, 87
1, 217704, Note_off_c, 0, 63, 70
1, 217713, Note_off_c, 0, 75, 63
1, 217837, Note_on_c, 0, 27, 67
1, 217848, Note_on_c, 0, 39, 68
1, 217867, Control_c, 0, 64, 108
1, 217882, Control_c, 0, 64, 76
1, 217897, Control_c, 0, 64, 0
1, 217911, Note_on_c, 0, 67, 85
1, 217918, Note_on_c, 0, 60, 61
1, 217923, Note_on_c, 0, 55, 66
1, 217951, Note_off_c, 0, 27, 64
1, 217963, Control_c, 0, 64, 67
1, 217978, Control_c, 0, 64, 87
1, 217980, Note_off_c, 0, 39, 64
1, 217992, Note_off_c, 0, 60, 56
1, 217992, Control_c, 0, 64, 127
1, 218003, Note_off_c, 0, 55, 61
1, 218124, Note_on_c, 0, 51, 72
1, 218124, Note_on_c, 0, 60, 71
1, 218183, Note_off_c, 0, 60, 59
1, 218233, Note_off_c, 0, 51, 51
1, 218261, Note_on_c, 0, 60, 79
1, 218268, Note_on_c, 0, 63, 80
1, 218277, Note_off_c, 0, 67, 61
1, 218280, Note_on_c, 0, 55, 55
1, 218283, Note_off_c, 0, 60, 68
1, 218405, Note_off_c, 0, 63, 54
1, 218436, Note_on_c, 0, 51, 69
1, 218468, Control_c, 0, 64, 99
1, 218482, Control_c, 0, 64, 75
1, 218497, Control_c, 0, 64, 53
1, 218500, Note_on_c, 0, 84, 97
1, 218510, Note_off_c, 0, 55, 38
1, 218511, Control_c, 0, 64, 34
1, 218512, Note_on_c, 0, 72, 75
1, 218526, Control_c, 0, 64, 62
1, 218541, Control_c, 0, 64, 72
1, 218556, Control_c, 0, 64, 98
1, 218571, Control_c, 0, 64, 127
1, 218574, Note_off_c, 0, 51, 64
1, 218584, Note_off_c, 0, 72, 56
1, 218722, Note_on_c, 0, 79, 79
1, 218723, Note_on_c, 0, 72, 85
1, 218727, Note_on_c, 0, 60, 72
1, 218730, Note_on_c, 0, 55, 64
1, 218758, Note_off_c, 0, 60, 65
1, 218761, Note_off_c, 0, 72, 62
1, 218778, Note_on_c, 0, 57, 24
1, 218779, Note_off_c, 0, 55, 63
1, 218803, Note_off_c, 0, 79, 51
1, 218815, Note_off_c, 0, 57, 39
1, 218949, Note_on_c, 0, 39, 75
1, 218949, Note_on_c, 0, 72, 91
1, 218951, Note_on_c, 0, 79, 79
1, 218952, Note_on_c, 0, 27, 76
1, 218991, Note_off_c, 0, 27, 57
1, 218994, Note_off_c, 0, 39, 59
1, 219002, Note_off_c, 0, 72, 62
1, 219018, Note_off_c, 0, 79, 60
1, 219168, Note_on_c, 0, 29, 62
1, 219245, Control_c, 0, 64, 114
1, 219250, Note_on_c, 0, 41, 79
1, 219261, Control_c, 0, 64, 81
1, 219276, Control_c, 0, 64, 0
1, 219286, Note_on_c, 0, 79, 73
1, 219288, Note_on_c, 0, 72, 79
1, 219335, Control_c, 0, 64, 61
1, 219337, Note_off_c, 0, 29, 61
1, 219350, Control_c, 0, 64, 72
1, 219364, Control_c, 0, 64, 87
1, 219379, Control_c, 0, 64, 100
1, 219394, Control_c, 0, 64, 105
1, 219415, Note_off_c, 0, 41, 59
1, 219417, Control_c, 0, 64, 109
1, 219432, Control_c, 0, 64, 111
1, 219446, Control_c, 0, 64, 112
1, 219457, Note_off_c, 0, 72, 53
1, 219689, Note_off_c, 0, 84, 48
1, 219715, Note_on_c, 0, 83, 86
1, 219727, Note_on_c, 0, 72, 67
1, 219733, Note_on_c, 0, 53, 50
1, 219742, Note_on_c, 0, 60, 48
1, 219749, Note_on_c, 0, 62, 48
1, 219768, Note_off_c, 0, 79, 41
1, 219776, Note_off_c, 0, 72, 57
1, 219838, Note_off_c, 0, 53, 46
1, 219873, Note_off_c, 0, 60, 35
1, 219936, Control_c, 0, 64, 113
1, 219951, Control_c, 0, 64, 113
1, 219966, Control_c, 0, 64, 114
1, 219980, Control_c, 0, 64, 115
1, 219988, Note_off_c, 0, 83, 57
1, 219995, Control_c, 0, 64, 117
1, 220002, Note_off_c, 0, 62, 29
1, 220010, Control_c, 0, 64, 119
1, 220025, Control_c, 0, 64, 120
1, 220031, Note_on_c, 0, 82, 82
1, 220040, Control_c, 0, 64, 121
1, 220054, Note_on_c, 0, 72, 58
1, 220060, Note_on_c, 0, 65, 59
1, 220069, Control_c, 0, 64, 122
1, 220174, Note_off_c, 0, 82, 64
1, 220177, Note_off_c, 0, 72, 31
1, 220192, Note_off_c, 0, 65, 36
1, 220300, Note_on_c, 0, 81, 97
1, 220308, Note_on_c, 0, 60, 42
1, 220320, Note_on_c, 0, 72, 71
1, 220325, Note_on_c, 0, 53, 55
1, 220341, Note_on_c, 0, 62, 39
1, 220407, Note_off_c, 0, 53, 49
1, 220413, Note_off_c, 0, 72, 37
1, 220432, Control_c, 0, 64, 124
1, 220440, Note_off_c, 0, 60, 36
1, 220461, Control_c, 0, 64, 126
1, 220468, Poly_aftertouch_c, 0, 57, 0
1, 220476, Control_c, 0, 64, 127
1, 220493, Note_off_c, 0, 81, 0
1, 220511, Note_on_c, 0, 80, 89
1, 220521, Note_on_c, 0, 72, 80
1, 220529, Poly_aftertouch_c, 0, 81, 0
1, 220530, Note_on_c, 0, 65, 69
1, 220544, Note_off_c, 0, 72, 69
1, 220601, Note_off_c, 0, 62, 29
1, 220654, Note_off_c, 0, 65, 58
1, 220672, Note_off_c, 0, 80, 63
1, 220675, Note_on_c, 0, 77, 81
1, 220686, Note_on_c, 0, 68, 81
1, 220698, Note_on_c, 0, 60, 68
1, 220722, Note_off_c, 0, 77, 63
1, 220747, Note_off_c, 0, 68, 63
1, 220824, Note_off_c, 0, 60, 60
1, 220835, Note_on_c, 0, 72, 96
1, 220839, Note_on_c, 0, 65, 77
1, 220871, Note_off_c, 0, 65, 57
1, 220958, Control_c, 0, 64, 126
1, 220973, Control_c, 0, 64, 122
1, 220988, Control_c, 0, 64, 120
1, 220989, Note_on_c, 0, 74, 91
1, 220994, Note_on_c, 0, 65, 78
1, 221003, Control_c, 0, 64, 119
1, 221013, Note_off_c, 0, 72, 62
1, 221018, Control_c, 0, 64, 118
1, 221033, Control_c, 0, 64, 117
1, 221042, Note_off_c, 0, 65, 49
1, 221062, Control_c, 0, 64, 117
1, 221098, Note_on_c, 0, 31, 72
1, 221105, Note_on_c, 0, 43, 72
1, 221107, Control_c, 0, 64, 114
1, 221122, Control_c, 0, 64, 96
1, 221136, Control_c, 0, 64, 74
1, 221151, Control_c, 0, 64, 0
1, 221180, Note_on_c, 0, 76, 80
1, 221181, Note_on_c, 0, 64, 70
1, 221182, Note_on_c, 0, 70, 53
1, 221182, Note_on_c, 0, 72, 70
1, 221196, Control_c, 0, 64, 38
1, 221206, Note_off_c, 0, 31, 58
1, 221210, Control_c, 0, 64, 66
1, 221224, Note_off_c, 0, 74, 52
1, 221225, Control_c, 0, 64, 78
1, 221240, Control_c, 0, 64, 94
1, 221254, Control_c, 0, 64, 110
1, 221269, Note_off_c, 0, 43, 63
1, 221269, Control_c, 0, 64, 124
1, 221274, Note_off_c, 0, 64, 66
1, 221286, Control_c, 0, 64, 127
1, 221304, Note_off_c, 0, 76, 59
1, 221319, Note_off_c, 0, 72, 63
1, 221367, Note_off_c, 0, 70, 60
1, 221443, Note_on_c, 0, 60, 61
1, 221445, Note_on_c, 0, 77, 82
1, 221448, Note_on_c, 0, 65, 77
1, 221453, Note_on_c, 0, 70, 71
1, 221454, Note_on_c, 0, 55, 50
1, 221495, Note_off_c, 0, 77, 61
1, 221504, Note_off_c, 0, 65, 64
1, 221511, Note_off_c, 0, 70, 63
1, 221535, Note_off_c, 0, 55, 60
1, 221594, Note_on_c, 0, 76, 80
1, 221598, Note_on_c, 0, 64, 80
1, 221605, Note_on_c, 0, 70, 76
1, 221608, Note_off_c, 0, 60, 21
1, 221641, Note_off_c, 0, 76, 65
1, 221644, Note_off_c, 0, 64, 64
1, 221656, Note_off_c, 0, 70, 58
1, 221670, Note_on_c, 0, 67, 57
1, 221699, Note_off_c, 0, 67, 55
1, 221734, Note_on_c, 0, 74, 84
1, 221736, Note_on_c, 0, 62, 83
1, 221767, Note_off_c, 0, 62, 57
1, 221778, Note_off_c, 0, 74, 62
1, 221821, Note_on_c, 0, 55, 71
1, 221847, Note_on_c, 0, 60, 55
1, 221851, Note_on_c, 0, 64, 88
1, 221853, Note_on_c, 0, 76, 85
1, 221868, Note_off_c, 0, 60, 58
1, 221881, Note_off_c, 0, 64, 63
1, 221884, Note_off_c, 0, 55, 64
1, 221888, Note_off_c, 0, 76, 61
1, 221968, Note_on_c, 0, 65, 87
1, 221969, Note_on_c, 0, 77, 89
1, 221993, Note_off_c, 0, 65, 66
1, 222009, Note_off_c, 0, 77, 64
1, 222091, Note_on_c, 0, 72, 48
1, 222097, Note_on_c, 0, 43, 75
1, 222097, Note_on_c, 0, 80, 86
1, 222098, Note_on_c, 0, 31, 72
1, 222103, Note_on_c, 0, 70, 81
1, 222131, Note_off_c, 0, 72, 52
1, 222145, Note_off_c, 0, 70, 59
1, 222151, Note_off_c, 0, 31, 63
1, 222157, Note_off_c, 0, 43, 62
1, 222164, Note_off_c, 0, 80, 63
1, 222223, Note_on_c, 0, 79, 89
1, 222226, Poly_aftertouch_c, 0, 32, 0
1, 222231, Note_on_c, 0, 70, 87
1, 222305, Note_off_c, 0, 70, 60
1, 222310, Note_off_c, 0, 79, 54
1, 222336, Note_on_c, 0, 32, 70
1, 222345, Note_on_c, 0, 44, 79
1, 222345, Control_c, 0, 64, 97
1, 222360, Control_c, 0, 64, 65
1, 222374, Control_c, 0, 64, 0
1, 222395, Note_on_c, 0, 65, 79
1, 222395, Note_on_c, 0, 72, 87
1, 222427, Control_c, 0, 64, 63
1, 222434, Note_off_c, 0, 32, 63
1, 222441, Control_c, 0, 64, 77
1, 222456, Control_c, 0, 64, 101
1, 222470, Note_off_c, 0, 65, 63
1, 222471, Note_off_c, 0, 44, 62
1, 222471, Control_c, 0, 64, 127
1, 222509, Note_off_c, 0, 72, 63
1, 222555, Note_on_c, 0, 76, 82
1, 222556, Note_on_c, 0, 65, 81
1, 222591, Note_off_c, 0, 65, 63
1, 222613, Note_off_c, 0, 76, 60
1, 222658, Note_on_c, 0, 77, 86
1, 222664, Note_on_c, 0, 53, 67
1, 222664, Note_on_c, 0, 72, 80
1, 222677, Note_on_c, 0, 60, 62
1, 222691, Note_off_c, 0, 72, 67
1, 222699, Note_off_c, 0, 77, 62
1, 222757, Note_on_c, 0, 79, 92
1, 222771, Note_on_c, 0, 72, 75
1, 222795, Note_off_c, 0, 79, 65
1, 222798, Note_off_c, 0, 72, 66
1, 222887, Note_off_c, 0, 60, 45
1, 222887, Control_c, 0, 64, 118
1, 222892, Note_on_c, 0, 82, 89
1, 222893, Note_on_c, 0, 72, 85
1, 222899, Note_on_c, 0, 65, 71
1, 222902, Control_c, 0, 64, 87
1, 222917, Control_c, 0, 64, 70
1, 222931, Control_c, 0, 64, 67
1, 222946, Control_c, 0, 64, 72
1, 222959, Note_off_c, 0, 53, 47
1, 222961, Control_c, 0, 64, 86
1, 222972, Note_off_c, 0, 72, 63
1, 222976, Control_c, 0, 64, 116
1, 222991, Control_c, 0, 64, 127
1, 222995, Note_off_c, 0, 65, 56
1, 223012, Note_off_c, 0, 82, 65
1, 223050, Note_on_c, 0, 80, 93
1, 223054, Note_on_c, 0, 53, 72
1, 223060, Note_on_c, 0, 72, 91
1, 223073, Note_on_c, 0, 60, 73
1, 223100, Note_off_c, 0, 72, 62
1, 223102, Note_off_c, 0, 80, 64
1, 223112, Note_off_c, 0, 60, 59
1, 223131, Note_off_c, 0, 53, 62
1, 223211, Note_on_c, 0, 72, 103
1, 223223, Note_on_c, 0, 65, 83
1, 223303, Note_off_c, 0, 65, 63
1, 223409, Note_on_c, 0, 65, 85
1, 223409, Note_on_c, 0, 74, 87
1, 223412, Note_on_c, 0, 44, 85
1, 223414, Note_on_c, 0, 32, 76
1, 223418, Note_off_c, 0, 72, 64
1, 223432, Note_off_c, 0, 65, 70
1, 223444, Note_off_c, 0, 32, 67
1, 223445, Note_off_c, 0, 44, 59
1, 223447, Note_off_c, 0, 74, 65
1, 223635, Note_on_c, 0, 31, 63
1, 223647, Note_on_c, 0, 43, 67
1, 223679, Control_c, 0, 64, 105
1, 223694, Control_c, 0, 64, 73
1, 223696, Note_on_c, 0, 72, 76
1, 223701, Note_on_c, 0, 75, 80
1, 223704, Note_on_c, 0, 63, 65
1, 223709, Note_on_c, 0, 67, 55
1, 223709, Control_c, 0, 64, 0
1, 223768, Control_c, 0, 64, 18
1, 223783, Control_c, 0, 64, 63
1, 223790, Note_off_c, 0, 31, 58
1, 223798, Control_c, 0, 64, 70
1, 223813, Control_c, 0, 64, 78
1, 223827, Control_c, 0, 64, 88
1, 223829, Note_off_c, 0, 67, 54
1, 223842, Control_c, 0, 64, 94
1, 223846, Note_off_c, 0, 43, 64
1, 223857, Control_c, 0, 64, 99
1, 223865, Note_off_c, 0, 63, 50
1, 223872, Control_c, 0, 64, 101
1, 223886, Control_c, 0, 64, 101
1, 223904, Note_off_c, 0, 72, 38
1, 223909, Control_c, 0, 64, 102
1, 223954, Control_c, 0, 64, 102
1, 224058, Note_on_c, 0, 72, 61
1, 224065, Note_on_c, 0, 48, 48
1, 224068, Note_on_c, 0, 67, 47
1, 224075, Note_on_c, 0, 55, 37
1, 224085, Note_on_c, 0, 63, 40
1, 224124, Note_off_c, 0, 67, 55
1, 224131, Control_c, 0, 64, 103
1, 224133, Note_off_c, 0, 55, 50
1, 224134, Note_off_c, 0, 63, 45
1, 224138, Note_off_c, 0, 48, 53
1, 224145, Note_off_c, 0, 72, 53
1, 224146, Control_c, 0, 64, 104
1, 224160, Control_c, 0, 64, 109
1, 224175, Control_c, 0, 64, 114
1, 224190, Control_c, 0, 64, 127
1, 224272, Note_on_c, 0, 72, 68
1, 224281, Note_on_c, 0, 60, 46
1, 224282, Note_on_c, 0, 63, 49
1, 224318, Note_off_c, 0, 63, 52
1, 224339, Note_off_c, 0, 72, 61
1, 224364, Poly_aftertouch_c, 0, 67, 127
1, 224407, Note_off_c, 0, 60, 25
1, 224436, Poly_aftertouch_c, 0, 67, 0
1, 224454, Note_off_c, 0, 75, 57
1, 224461, Note_on_c, 0, 72, 67
1, 224469, Note_on_c, 0, 48, 45
1, 224470, Note_on_c, 0, 63, 28
1, 224474, Poly_aftertouch_c, 0, 67, 127
1, 224476, Note_on_c, 0, 55, 40
1, 224502, Note_off_c, 0, 72, 60
1, 224517, Note_off_c, 0, 63, 49
1, 224542, Note_off_c, 0, 48, 48
1, 224581, Poly_aftertouch_c, 0, 67, 0
1, 224595, Note_off_c, 0, 55, 57
1, 224624, Note_on_c, 0, 60, 56
1, 224634, Note_on_c, 0, 63, 70
1, 224636, Note_on_c, 0, 72, 88
1, 224686, Note_off_c, 0, 60, 55
1, 224700, Note_off_c, 0, 63, 61
1, 224771, Note_on_c, 0, 48, 58
1, 224775, Note_on_c, 0, 55, 53
1, 224798, Note_on_c, 0, 74, 87
1, 224805, Note_off_c, 0, 55, 65
1, 224807, Note_on_c, 0, 63, 69
1, 224835, Note_off_c, 0, 48, 61
1, 224844, Poly_aftertouch_c, 0, 67, 127
1, 224854, Note_off_c, 0, 72, 44
1, 224859, Note_off_c, 0, 63, 60
1, 224900, Note_off_c, 0, 74, 44
1, 224923, Note_on_c, 0, 72, 85
1, 224925, Note_on_c, 0, 63, 82
1, 224966, Poly_aftertouch_c, 0, 67, 0
1, 224968, Note_off_c, 0, 72, 64
1, 224971, Note_off_c, 0, 63, 63
1, 225057, Control_c, 0, 64, 112
1, 225060, Note_on_c, 0, 31, 55
1, 225066, Note_on_c, 0, 43, 50
1, 225072, Control_c, 0, 64, 84
1, 225087, Control_c, 0, 64, 60
1, 225091, Note_on_c, 0, 67, 77
1, 225101, Control_c, 0, 64, 0
1, 225102, Note_on_c, 0, 60, 61
1, 225122, Note_on_c, 0, 62, 54
1, 225146, Control_c, 0, 64, 58
1, 225161, Control_c, 0, 64, 71
1, 225173, Note_off_c, 0, 31, 44
1, 225175, Control_c, 0, 64, 82
1, 225190, Control_c, 0, 64, 93
1, 225205, Control_c, 0, 64, 96
1, 225219, Control_c, 0, 64, 98
1, 225234, Control_c, 0, 64, 99
1, 225242, Note_off_c, 0, 43, 62
1, 225251, Note_off_c, 0, 60, 35
1, 225260, Note_off_c, 0, 62, 34
1, 225340, Control_c, 0, 64, 98
1, 225355, Control_c, 0, 64, 98
1, 225370, Control_c, 0, 64, 97
1, 225373, Note_on_c, 0, 62, 58
1, 225379, Note_on_c, 0, 60, 53
1, 225385, Control_c, 0, 64, 97
1, 225406, Control_c, 0, 64, 96
1, 225416, Note_on_c, 0, 50, 36
1, 225424, Note_off_c, 0, 60, 61
1, 225424, Note_off_c, 0, 62, 56
1, 225436, Control_c, 0, 64, 96
1, 225466, Control_c, 0, 64, 95
1, 225495, Control_c, 0, 64, 95
1, 225501, Note_off_c, 0, 50, 34
1, 225570, Control_c, 0, 64, 94
1, 225577, Note_on_c, 0, 55, 49
1, 225579, Note_on_c, 0, 62, 48
1, 225585, Note_on_c, 0, 60, 47
1, 225609, Note_off_c, 0, 62, 58
1, 225615, Note_off_c, 0, 60, 54
1, 225658, Control_c, 0, 64, 94
1, 225732, Control_c, 0, 64, 93
1, 225791, Note_on_c, 0, 50, 39
1, 225791, Control_c, 0, 64, 88
1, 225793, Note_on_c, 0, 43, 41
1, 225796, Note_off_c, 0, 55, 41
1, 225806, Control_c, 0, 64, 75
1, 225807, Note_on_c, 0, 62, 46
1, 225809, Note_on_c, 0, 59, 48
1, 225821, Control_c, 0, 64, 55
1, 225836, Control_c, 0, 64, 0
1, 225850, Control_c, 0, 64, 38
1, 225865, Control_c, 0, 64, 61
1, 225880, Control_c, 0, 64, 68
1, 225895, Control_c, 0, 64, 79
1, 225910, Control_c, 0, 64, 93
1, 225925, Note_off_c, 0, 59, 49
1, 225925, Control_c, 0, 64, 104
1, 225933, Note_off_c, 0, 62, 51
1, 225940, Control_c, 0, 64, 107
1, 225954, Control_c, 0, 64, 108
1, 225957, Note_off_c, 0, 43, 30
1, 225969, Control_c, 0, 64, 109
1, 226026, Note_off_c, 0, 50, 30
1, 226094, Note_on_c, 0, 55, 46
1, 226106, Note_on_c, 0, 62, 49
1, 226109, Note_on_c, 0, 59, 47
1, 226119, Note_off_c, 0, 67, 59
1, 226156, Note_off_c, 0, 55, 63
1, 226169, Note_off_c, 0, 59, 59
1, 226297, Note_on_c, 0, 67, 81
1, 226304, Note_on_c, 0, 59, 61
1, 226309, Note_off_c, 0, 62, 55
1, 226371, Note_off_c, 0, 59, 62
1, 226452, Control_c, 0, 64, 108
1, 226481, Note_on_c, 0, 31, 48
1, 226488, Note_on_c, 0, 43, 46
1, 226500, Note_on_c, 0, 68, 84
1, 226507, Note_on_c, 0, 59, 47
1, 226536, Note_off_c, 0, 67, 60
1, 226541, Control_c, 0, 64, 108
1, 226580, Note_off_c, 0, 43, 54
1, 226599, Control_c, 0, 64, 107
1, 226618, Note_off_c, 0, 31, 0
1, 226652, Poly_aftertouch_c, 0, 31, 0
1, 226733, Note_off_c, 0, 59, 43
1, 226780, Note_on_c, 0, 67, 76
1, 226805, Note_off_c, 0, 68, 63
1, 226839, Note_off_c, 0, 67, 63
1, 226964, Control_c, 0, 64, 107
1, 227037, Control_c, 0, 64, 106
1, 227067, Control_c, 0, 64, 106
1, 227096, Control_c, 0, 64, 105
1, 227138, Note_on_c, 0, 30, 58
1, 227141, Control_c, 0, 64, 105
1, 227148, Note_on_c, 0, 42, 56
1, 227171, Control_c, 0, 64, 104
1, 227215, Control_c, 0, 64, 104
1, 227245, Control_c, 0, 64, 103
1, 227260, Control_c, 0, 64, 102
1, 227275, Control_c, 0, 64, 97
1, 227286, Note_on_c, 0, 60, 70
1, 227290, Control_c, 0, 64, 85
1, 227293, Note_on_c, 0, 56, 39
1, 227301, Note_on_c, 0, 51, 43
1, 227304, Control_c, 0, 64, 69
1, 227319, Control_c, 0, 64, 0
1, 227393, Control_c, 0, 64, 31
1, 227408, Control_c, 0, 64, 52
1, 227422, Control_c, 0, 64, 62
1, 227437, Control_c, 0, 64, 66
1, 227452, Control_c, 0, 64, 71
1, 227454, Note_off_c, 0, 30, 61
1, 227467, Control_c, 0, 64, 77
1, 227482, Control_c, 0, 64, 81
1, 227493, Note_off_c, 0, 56, 48
1, 227496, Control_c, 0, 64, 83
1, 227511, Control_c, 0, 64, 86
1, 227526, Control_c, 0, 64, 89
1, 227541, Control_c, 0, 64, 92
1, 227555, Control_c, 0, 64, 96
1, 227561, Note_off_c, 0, 42, 60
1, 227570, Control_c, 0, 64, 99
1, 227585, Note_off_c, 0, 51, 37
1, 227585, Control_c, 0, 64, 103
1, 227600, Control_c, 0, 64, 106
1, 227615, Control_c, 0, 64, 110
1, 227630, Control_c, 0, 64, 112
1, 227652, Control_c, 0, 64, 114
1, 227667, Control_c, 0, 64, 116
1, 227683, Control_c, 0, 64, 117
1, 227698, Control_c, 0, 64, 120
1, 227713, Control_c, 0, 64, 124
1, 227727, Control_c, 0, 64, 126
1, 227742, Control_c, 0, 64, 127
1, 227923, Note_on_c, 0, 42, 36
1, 227943, Note_on_c, 0, 51, 36
1, 228026, Note_off_c, 0, 51, 56
1, 228051, Note_off_c, 0, 42, 38
1, 228236, Note_on_c, 0, 51, 52
1, 228241, Note_on_c, 0, 56, 52
1, 228301, Note_off_c, 0, 56, 54
1, 228321, Note_off_c, 0, 51, 56
1, 228426, Note_on_c, 0, 42, 61
1, 228438, Note_on_c, 0, 51, 61
1, 228496, Note_off_c, 0, 42, 59
1, 228520, Note_off_c, 0, 51, 57
1, 228609, Note_on_c, 0, 56, 64
1, 228625, Note_on_c, 0, 51, 58
1, 228637, Note_off_c, 0, 56, 67
1, 228654, Control_c, 0, 64, 126
1, 228657, Note_off_c, 0, 51, 66
1, 228668, Control_c, 0, 64, 122
1, 228683, Control_c, 0, 64, 120
1, 228698, Control_c, 0, 64, 119
1, 228713, Control_c, 0, 64, 117
1, 228728, Control_c, 0, 64, 117
1, 228742, Control_c, 0, 64, 116
1, 228757, Control_c, 0, 64, 115
1, 228772, Control_c, 0, 64, 115
1, 228787, Control_c, 0, 64, 114
1, 228801, Note_on_c, 0, 42, 69
1, 228801, Control_c, 0, 64, 114
1, 228805, Note_on_c, 0, 30, 60
1, 228816, Control_c, 0, 64, 113
1, 228831, Control_c, 0, 64, 112
1, 228846, Control_c, 0, 64, 112
1, 228861, Control_c, 0, 64, 111
1, 228867, Note_off_c, 0, 42, 58
1, 228876, Control_c, 0, 64, 111
1, 228891, Control_c, 0, 64, 110
1, 228894, Note_off_c, 0, 30, 53
1, 228920, Control_c, 0, 64, 110
1, 228950, Control_c, 0, 64, 109
1, 229039, Control_c, 0, 64, 109
1, 229070, Note_on_c, 0, 29, 58
1, 229077, Note_on_c, 0, 41, 66
1, 229098, Control_c, 0, 64, 108
1, 229112, Control_c, 0, 64, 104
1, 229127, Control_c, 0, 64, 88
1, 229150, Control_c, 0, 64, 64
1, 229165, Control_c, 0, 64, 0
1, 229224, Control_c, 0, 64, 42
1, 229239, Note_off_c, 0, 29, 43
1, 229239, Control_c, 0, 64, 65
1, 229254, Control_c, 0, 64, 72
1, 229269, Control_c, 0, 64, 78
1, 229284, Control_c, 0, 64, 82
1, 229299, Control_c, 0, 64, 83
1, 229299, Note_off_c, 0, 41, 61
1, 229314, Control_c, 0, 64, 84
1, 229329, Control_c, 0, 64, 84
1, 229343, Control_c, 0, 64, 85
1, 229358, Control_c, 0, 64, 86
1, 229373, Control_c, 0, 64, 87
1, 229378, Note_on_c, 0, 61, 69
1, 229388, Control_c, 0, 64, 89
1, 229403, Control_c, 0, 64, 90
1, 229418, Control_c, 0, 64, 90
1, 229432, Control_c, 0, 64, 91
1, 229436, Note_off_c, 0, 60, 55
1, 229447, Control_c, 0, 64, 91
1, 229477, Control_c, 0, 64, 92
1, 229506, Control_c, 0, 64, 92
1, 229521, Control_c, 0, 64, 93
1, 229564, Note_on_c, 0, 41, 45
1, 229565, Control_c, 0, 64, 93
1, 229579, Note_on_c, 0, 49, 45
1, 229580, Control_c, 0, 64, 94
1, 229595, Control_c, 0, 64, 95
1, 229610, Note_off_c, 0, 41, 57
1, 229610, Control_c, 0, 64, 96
1, 229617, Note_on_c, 0, 65, 72
1, 229624, Control_c, 0, 64, 97
1, 229638, Note_off_c, 0, 49, 55
1, 229639, Control_c, 0, 64, 98
1, 229645, Note_off_c, 0, 61, 61
1, 229654, Control_c, 0, 64, 99
1, 229669, Control_c, 0, 64, 100
1, 229684, Control_c, 0, 64, 100
1, 229698, Control_c, 0, 64, 101
1, 229791, Note_on_c, 0, 68, 71
1, 229797, Note_off_c, 0, 65, 63
1, 229812, Note_on_c, 0, 56, 52
1, 229827, Note_on_c, 0, 49, 33
1, 229835, Note_off_c, 0, 68, 64
1, 229852, Note_off_c, 0, 56, 60
1, 229871, Note_off_c, 0, 49, 49
1, 229877, Control_c, 0, 64, 100
1, 229913, Control_c, 0, 64, 100
1, 229928, Control_c, 0, 64, 99
1, 229943, Control_c, 0, 64, 99
1, 229962, Note_on_c, 0, 73, 76
1, 229970, Note_on_c, 0, 41, 53
1, 229973, Control_c, 0, 64, 98
1, 229975, Note_on_c, 0, 49, 50
1, 229998, Note_off_c, 0, 41, 59
1, 230003, Control_c, 0, 64, 98
1, 230032, Control_c, 0, 64, 97
1, 230041, Note_off_c, 0, 49, 55
1, 230062, Control_c, 0, 64, 97
1, 230092, Control_c, 0, 64, 96
1, 230107, Control_c, 0, 64, 96
1, 230134, Note_on_c, 0, 76, 79
1, 230152, Control_c, 0, 64, 95
1, 230161, Note_on_c, 0, 56, 49
1, 230166, Control_c, 0, 64, 95
1, 230169, Note_off_c, 0, 73, 60
1, 230183, Note_off_c, 0, 56, 61
1, 230184, Note_on_c, 0, 49, 42
1, 230226, Control_c, 0, 64, 94
1, 230226, Note_off_c, 0, 49, 63
1, 230300, Control_c, 0, 64, 94
1, 230359, Control_c, 0, 64, 93
1, 230372, Note_on_c, 0, 77, 79
1, 230414, Note_off_c, 0, 76, 63
1, 230418, Control_c, 0, 64, 93
1, 230506, Control_c, 0, 64, 92
1, 230540, Note_on_c, 0, 29, 39
1, 230551, Control_c, 0, 64, 92
1, 230566, Note_on_c, 0, 41, 35
1, 230566, Control_c, 0, 64, 87
1, 230581, Control_c, 0, 64, 78
1, 230596, Control_c, 0, 64, 67
1, 230611, Control_c, 0, 64, 52
1, 230626, Control_c, 0, 64, 54
1, 230647, Control_c, 0, 64, 63
1, 230662, Control_c, 0, 64, 67
1, 230677, Control_c, 0, 64, 71
1, 230690, Note_on_c, 0, 80, 68
1, 230691, Control_c, 0, 64, 80
1, 230706, Control_c, 0, 64, 89
1, 230716, Note_off_c, 0, 77, 58
1, 230721, Control_c, 0, 64, 92
1, 230736, Control_c, 0, 64, 93
1, 230751, Control_c, 0, 64, 94
1, 230757, Note_off_c, 0, 29, 39
1, 230766, Control_c, 0, 64, 94
1, 230779, Note_off_c, 0, 80, 65
1, 230781, Control_c, 0, 64, 95
1, 230795, Control_c, 0, 64, 96
1, 230810, Control_c, 0, 64, 97
1, 230816, Note_off_c, 0, 41, 42
1, 230825, Control_c, 0, 64, 97
1, 230840, Control_c, 0, 64, 98
1, 230900, Control_c, 0, 64, 98
1, 231023, Note_on_c, 0, 31, 18
1, 231028, Note_on_c, 0, 43, 36
1, 231049, Control_c, 0, 64, 98
1, 231093, Control_c, 0, 64, 97
1, 231108, Control_c, 0, 64, 97
1, 231122, Control_c, 0, 64, 96
1, 231137, Control_c, 0, 64, 95
1, 231152, Control_c, 0, 64, 94
1, 231167, Control_c, 0, 64, 94
1, 231182, Control_c, 0, 64, 93
1, 231196, Control_c, 0, 64, 92
1, 231208, Note_on_c, 0, 59, 56
1, 231211, Control_c, 0, 64, 92
1, 231226, Control_c, 0, 64, 91
1, 231241, Control_c, 0, 64, 87
1, 231256, Control_c, 0, 64, 79
1, 231270, Control_c, 0, 64, 67
1, 231285, Control_c, 0, 64, 24
1, 231300, Control_c, 0, 64, 0
1, 231329, Control_c, 0, 64, 44
1, 231344, Control_c, 0, 64, 60
1, 231347, Note_off_c, 0, 31, 41
1, 231359, Control_c, 0, 64, 65
1, 231374, Control_c, 0, 64, 69
1, 231396, Control_c, 0, 64, 77
1, 231411, Control_c, 0, 64, 88
1, 231426, Control_c, 0, 64, 95
1, 231441, Control_c, 0, 64, 99
1, 231446, Note_off_c, 0, 43, 61
1, 231455, Control_c, 0, 64, 103
1, 231470, Control_c, 0, 64, 105
1, 231485, Control_c, 0, 64, 107
1, 231500, Control_c, 0, 64, 108
1, 231514, Control_c, 0, 64, 109
1, 231544, Control_c, 0, 64, 110
1, 231559, Control_c, 0, 64, 110
1, 231589, Control_c, 0, 64, 111
1, 231618, Control_c, 0, 64, 111
1, 231633, Control_c, 0, 64, 112
1, 231648, Control_c, 0, 64, 114
1, 231664, Control_c, 0, 64, 117
1, 231679, Control_c, 0, 64, 120
1, 231693, Control_c, 0, 64, 127
1, 231757, Note_on_c, 0, 43, 31
1, 231760, Note_on_c, 0, 50, 21
1, 231830, Note_off_c, 0, 43, 52
1, 231830, Note_off_c, 0, 50, 50
1, 232021, Note_on_c, 0, 53, 37
1, 232024, Note_on_c, 0, 50, 23
1, 232065, Note_off_c, 0, 50, 42
1, 232065, Note_off_c, 0, 53, 60
1, 232280, Note_on_c, 0, 56, 45
1, 232283, Note_on_c, 0, 53, 46
1, 232373, Note_off_c, 0, 53, 51
1, 232391, Note_off_c, 0, 56, 46
1, 232519, Note_on_c, 0, 53, 42
1, 232533, Note_on_c, 0, 56, 45
1, 232572, Note_off_c, 0, 53, 57
1, 232589, Note_off_c, 0, 56, 54
1, 232725, Note_on_c, 0, 53, 38
1, 232727, Note_on_c, 0, 56, 38
1, 232757, Note_off_c, 0, 56, 59
1, 232760, Note_off_c, 0, 53, 61
1, 233091, Note_on_c, 0, 31, 42
1, 233116, Control_c, 0, 64, 107
1, 233123, Note_on_c, 0, 43, 30
1, 233131, Control_c, 0, 64, 88
1, 233146, Control_c, 0, 64, 67
1, 233161, Control_c, 0, 64, 0
1, 233175, Control_c, 0, 64, 34
1, 233190, Control_c, 0, 64, 61
1, 233205, Control_c, 0, 64, 70
1, 233219, Control_c, 0, 64, 83
1, 233234, Control_c, 0, 64, 105
1, 233236, Note_off_c, 0, 31, 35
1, 233249, Control_c, 0, 64, 127
1, 233300, Note_off_c, 0, 43, 55
1, 233461, Note_on_c, 0, 68, 41
1, 233600, Note_off_c, 0, 59, 38
1, 233691, Note_on_c, 0, 43, 27
1, 233705, Note_on_c, 0, 67, 51
1, 233714, Note_on_c, 0, 50, 27
1, 233758, Note_off_c, 0, 68, 44
1, 233785, Note_off_c, 0, 43, 50
1, 233788, Note_off_c, 0, 50, 49
1, 233913, Note_on_c, 0, 53, 42
1, 233928, Note_on_c, 0, 66, 59
1, 233932, Note_off_c, 0, 67, 49
1, 233965, Note_off_c, 0, 53, 56
1, 233973, Note_off_c, 0, 66, 61
1, 234221, Control_c, 0, 64, 121
1, 234236, Control_c, 0, 64, 103
1, 234241, Note_on_c, 0, 53, 34
1, 234247, Note_on_c, 0, 59, 37
1, 234251, Note_on_c, 0, 65, 47
1, 234251, Control_c, 0, 64, 86
1, 234265, Control_c, 0, 64, 70
1, 234280, Control_c, 0, 64, 54
1, 234295, Control_c, 0, 64, 42
1, 234310, Control_c, 0, 64, 50
1, 234325, Control_c, 0, 64, 59
1, 234340, Control_c, 0, 64, 64
1, 234355, Control_c, 0, 64, 68
1, 234370, Control_c, 0, 64, 74
1, 234392, Control_c, 0, 64, 85
1, 234407, Control_c, 0, 64, 96
1, 234421, Control_c, 0, 64, 101
1, 234436, Control_c, 0, 64, 104
1, 234451, Control_c, 0, 64, 106
1, 234465, Note_off_c, 0, 53, 36
1, 234465, Control_c, 0, 64, 108
1, 234474, Note_off_c, 0, 59, 35
1, 234480, Control_c, 0, 64, 112
1, 234495, Control_c, 0, 64, 116
1, 234510, Control_c, 0, 64, 120
1, 234525, Control_c, 0, 64, 127
1, 234563, Note_off_c, 0, 65, 45
1, 234591, Note_on_c, 0, 55, 45
1, 234728, Note_on_c, 0, 53, 23
1, 234739, Note_on_c, 0, 59, 21
1, 234903, Note_off_c, 0, 59, 42
1, 234914, Note_off_c, 0, 53, 34
1, 234953, Note_on_c, 0, 65, 47
1, 234972, Note_off_c, 0, 55, 38
1, 235329, Note_on_c, 0, 59, 23
1, 235334, Note_on_c, 0, 53, 23
1, 235429, Note_off_c, 0, 59, 46
1, 235433, Note_on_c, 0, 63, 37
1, 235489, Note_off_c, 0, 53, 34
1, 235508, Note_off_c, 0, 65, 44
1, 236392, Note_on_c, 0, 24, 34
1, 236453, Control_c, 0, 64, 114
1, 236468, Control_c, 0, 64, 98
1, 236483, Control_c, 0, 64, 87
1, 236498, Control_c, 0, 64, 76
1, 236513, Control_c, 0, 64, 69
1, 236528, Control_c, 0, 64, 65
1, 236543, Control_c, 0, 64, 66
1, 236558, Control_c, 0, 64, 67
1, 236572, Control_c, 0, 64, 68
1, 236578, Note_on_c, 0, 60, 39
1, 236581, Note_off_c, 0, 63, 42
1, 236587, Control_c, 0, 64, 70
1, 236602, Control_c, 0, 64, 72
1, 236614, Note_off_c, 0, 24, 42
1, 236617, Control_c, 0, 64, 77
1, 236639, Control_c, 0, 64, 88
1, 236654, Control_c, 0, 64, 97
1, 236668, Control_c, 0, 64, 104
1, 236683, Control_c, 0, 64, 111
1, 236698, Control_c, 0, 64, 127
1, 237539, Note_on_c, 0, 43, 26
1, 237711, Note_off_c, 0, 43, 32
1, 238032, Note_on_c, 0, 43, 22
1, 238047, Note_on_c, 0, 51, 26
1, 238120, Note_off_c, 0, 43, 50
1, 238167, Note_off_c, 0, 51, 35
1, 238378, Note_on_c, 0, 55, 39
1, 238390, Note_on_c, 0, 51, 22
1, 238475, Note_off_c, 0, 51, 41
1, 238492, Note_off_c, 0, 55, 50
1, 238643, Note_on_c, 0, 55, 37
1, 238646, Note_on_c, 0, 51, 37
1, 238686, Note_off_c, 0, 55, 63
1, 238701, Note_off_c, 0, 51, 59
1, 238991, Note_on_c, 0, 31, 43
1, 239270, Note_off_c, 0, 31, 36
1, 239418, Note_on_c, 0, 36, 44
1, 239418, Control_c, 0, 64, 105
1, 239433, Control_c, 0, 64, 80
1, 239447, Control_c, 0, 64, 65
1, 239462, Control_c, 0, 64, 62
1, 239476, Control_c, 0, 64, 67
1, 239491, Control_c, 0, 64, 75
1, 239506, Control_c, 0, 64, 96
1, 239519, Note_off_c, 0, 36, 58
1, 239521, Control_c, 0, 64, 127
1, 239902, Note_on_c, 0, 43, 3
1, 240021, Note_off_c, 0, 43, 36
1, 240155, Note_on_c, 0, 43, 38
1, 240305, Note_off_c, 0, 43, 35
1, 240521, Note_on_c, 0, 43, 22
1, 240552, Note_on_c, 0, 51, 31
1, 240616, Note_off_c, 0, 43, 58
1, 240671, Note_off_c, 0, 51, 35
1, 240925, Note_on_c, 0, 55, 32
1, 240937, Note_on_c, 0, 51, 18
1, 241060, Note_off_c, 0, 55, 37
1, 241062, Note_off_c, 0, 51, 33
1, 241353, Note_on_c, 0, 55, 26
1, 241372, Note_on_c, 0, 51, 4
1, 241416, Note_off_c, 0, 55, 57
1, 241437, Note_off_c, 0, 51, 45
1, 241934, Note_on_c, 0, 31, 38
1, 242809, Note_off_c, 0, 31, 29
1, 242891, Note_on_c, 0, 24, 30
1, 242984, Control_c, 0, 64, 112
1, 242999, Control_c, 0, 64, 100
1, 243014, Control_c, 0, 64, 91
1, 243029, Control_c, 0, 64, 80
1, 243044, Control_c, 0, 64, 69
1, 243059, Control_c, 0, 64, 58
1, 243073, Control_c, 0, 64, 43
1, 243088, Control_c, 0, 64, 42
1, 243103, Control_c, 0, 64, 38
1, 243118, Control_c, 0, 64, 0
1, 243421, Control_c, 0, 64, 40
1, 243435, Control_c, 0, 64, 53
1, 243450, Control_c, 0, 64, 60
1, 243465, Control_c, 0, 64, 63
1, 243479, Control_c, 0, 64, 64
1, 243494, Control_c, 0, 64, 66
1, 243509, Control_c, 0, 64, 68
1, 243524, Control_c, 0, 64, 71
1, 243539, Control_c, 0, 64, 74
1, 243554, Control_c, 0, 64, 75
1, 243569, Control_c, 0, 64, 75
1, 243584, Control_c, 0, 64, 76
1, 243598, Control_c, 0, 64, 78
1, 243613, Control_c, 0, 64, 80
1, 243628, Control_c, 0, 64, 84
1, 243643, Control_c, 0, 64, 87
1, 243658, Control_c, 0, 64, 89
1, 243673, Control_c, 0, 64, 92
1, 243688, Control_c, 0, 64, 95
1, 243703, Control_c, 0, 64, 98
1, 243718, Control_c, 0, 64, 101
1, 243733, Control_c, 0, 64, 105
1, 243747, Control_c, 0, 64, 109
1, 243762, Control_c, 0, 64, 115
1, 243777, Control_c, 0, 64, 127
1, 244652, Note_on_c, 0, 55, 27
1, 244767, Note_off_c, 0, 60, 38
1, 245067, Note_off_c, 0, 24, 27
1, 245280, Note_on_c, 0, 60, 32
1, 245351, Note_off_c, 0, 55, 42
1, 245769, Note_on_c, 0, 62, 38
1, 245810, Note_off_c, 0, 60, 48
1, 245831, Control_c, 0, 64, 120
1, 245846, Control_c, 0, 64, 117
1, 245861, Control_c, 0, 64, 115
1, 245875, Control_c, 0, 64, 112
1, 245890, Control_c, 0, 64, 111
1, 245905, Control_c, 0, 64, 110
1, 245920, Control_c, 0, 64, 108
1, 245935, Control_c, 0, 64, 107
1, 245949, Control_c, 0, 64, 106
1, 245964, Control_c, 0, 64, 105
1, 245979, Control_c, 0, 64, 104
1, 245993, Control_c, 0, 64, 104
1, 246008, Control_c, 0, 64, 103
1, 246023, Control_c, 0, 64, 102
1, 246039, Control_c, 0, 64, 101
1, 246054, Control_c, 0, 64, 101
1, 246069, Control_c, 0, 64, 100
1, 246084, Control_c, 0, 64, 99
1, 246098, Control_c, 0, 64, 98
1, 246113, Control_c, 0, 64, 97
1, 246128, Control_c, 0, 64, 96
1, 246143, Control_c, 0, 64, 95
1, 246158, Control_c, 0, 64, 93
1, 246160, Note_on_c, 0, 63, 42
1, 246172, Control_c, 0, 64, 92
1, 246187, Control_c, 0, 64, 91
1, 246202, Control_c, 0, 64, 91
1, 246216, Control_c, 0, 64, 90
1, 246231, Control_c, 0, 64, 90
1, 246245, Note_off_c, 0, 62, 32
1, 246246, Control_c, 0, 64, 89
1, 246261, Control_c, 0, 64, 87
1, 246276, Control_c, 0, 64, 86
1, 246290, Control_c, 0, 64, 83
1, 246305, Control_c, 0, 64, 80
1, 246320, Control_c, 0, 64, 76
1, 246335, Control_c, 0, 64, 71
1, 246350, Control_c, 0, 64, 68
1, 246372, Control_c, 0, 64, 68
1, 246387, Control_c, 0, 64, 67
1, 246402, Control_c, 0, 64, 68
1, 246431, Control_c, 0, 64, 67
1, 246508, Note_on_c, 0, 66, 46
1, 246520, Control_c, 0, 64, 67
1, 246571, Note_off_c, 0, 63, 51
1, 246579, Control_c, 0, 64, 66
1, 246594, Control_c, 0, 64, 66
1, 246713, Control_c, 0, 64, 65
1, 246770, Note_on_c, 0, 68, 46
1, 246823, Note_off_c, 0, 66, 59
1, 246951, Control_c, 0, 64, 66
1, 247030, Note_on_c, 0, 67, 47
1, 247039, Note_off_c, 0, 68, 63
1, 247261, Note_on_c, 0, 71, 56
1, 247299, Note_off_c, 0, 67, 50
1, 247299, Control_c, 0, 64, 65
1, 247372, Control_c, 0, 64, 65
1, 247432, Control_c, 0, 64, 64
1, 247506, Control_c, 0, 64, 64
1, 247518, Note_on_c, 0, 74, 47
1, 247548, Note_off_c, 0, 71, 58
1, 247580, Control_c, 0, 64, 63
1, 247655, Control_c, 0, 64, 63
1, 247778, Note_on_c, 0, 72, 45
1, 247804, Note_off_c, 0, 74, 59
1, 248070, Note_on_c, 0, 75, 38
1, 248107, Note_off_c, 0, 72, 47
1, 248401, Note_on_c, 0, 78, 31
1, 248492, Note_off_c, 0, 75, 42
1, 248843, Note_on_c, 0, 79, 32
1, 248869, Note_off_c, 0, 78, 41
1, 249213, Note_on_c, 0, 82, 37
1, 249275, Note_on_c, 0, 80, 40
1, 249280, Note_off_c, 0, 79, 39
1, 249309, Note_off_c, 0, 82, 52
1, 249883, Note_on_c, 0, 79, 33
1, 249945, Note_off_c, 0, 80, 44
1, 250368, Control_c, 0, 64, 63
1, 250487, Control_c, 0, 64, 64
1, 250531, Control_c, 0, 64, 64
1, 250561, Control_c, 0, 64, 65
1, 250590, Control_c, 0, 64, 65
1, 250620, Control_c, 0, 64, 66
1, 250635, Control_c, 0, 64, 66
1, 250664, Control_c, 0, 64, 67
1, 250679, Control_c, 0, 64, 67
1, 250694, Control_c, 0, 64, 68
1, 250723, Control_c, 0, 64, 68
1, 250738, Control_c, 0, 64, 69
1, 250753, Control_c, 0, 64, 69
1, 250768, Control_c, 0, 64, 70
1, 250782, Control_c, 0, 64, 71
1, 250797, Control_c, 0, 64, 71
1, 250812, Control_c, 0, 64, 73
1, 250827, Control_c, 0, 64, 75
1, 250843, Control_c, 0, 64, 77
1, 250866, Control_c, 0, 64, 78
1, 250881, Control_c, 0, 64, 80
1, 250895, Control_c, 0, 64, 81
1, 250910, Control_c, 0, 64, 81
1, 250925, Control_c, 0, 64, 82
1, 250939, Control_c, 0, 64, 83
1, 250954, Control_c, 0, 64, 83
1, 250969, Control_c, 0, 64, 84
1, 250976, Note_on_c, 0, 84, 36
1, 250984, Control_c, 0, 64, 85
1, 250999, Control_c, 0, 64, 85
1, 251013, Control_c, 0, 64, 87
1, 251027, Note_off_c, 0, 79, 37
1, 251028, Control_c, 0, 64, 88
1, 251043, Control_c, 0, 64, 91
1, 251058, Control_c, 0, 64, 93
1, 251073, Control_c, 0, 64, 95
1, 251087, Control_c, 0, 64, 98
1, 251102, Control_c, 0, 64, 103
1, 251117, Control_c, 0, 64, 109
1, 251131, Control_c, 0, 64, 118
1, 251146, Control_c, 0, 64, 127
1, 251248, Note_off_c, 0, 84, 41
1, 253146, Note_on_c, 0, 55, 36
1, 253150, Note_on_c, 0, 60, 30
1, 253158, Note_on_c, 0, 63, 34
1, 253159, Note_on_c, 0, 36, 32
1, 253172, Poly_aftertouch_c, 0, 51, 127
1, 253173, Note_on_c, 0, 51, 3
1, 253173, Note_on_c, 0, 48, 34
1, 254031, Note_off_c, 0, 48, 30
1, 254141, Note_off_c, 0, 36, 33
1, 254194, Note_off_c, 0, 51, 40
1, 254210, Note_off_c, 0, 63, 42
1, 254291, Note_off_c, 0, 60, 38
1, 254353, Note_off_c, 0, 55, 36
1, 255129, Note_on_c, 0, 36, 36
1, 255133, Note_on_c, 0, 60, 38
1, 255133, Note_on_c, 0, 63, 44
1, 255134, Note_on_c, 0, 51, 23
1, 255146, Note_on_c, 0, 55, 37
1, 255152, Note_on_c, 0, 48, 27
1, 255969, Note_off_c, 0, 48, 30
1, 256209, Note_off_c, 0, 36, 27
1, 256239, Note_off_c, 0, 51, 35
1, 256248, Note_off_c, 0, 63, 37
1, 256330, Note_off_c, 0, 60, 36
1, 256463, Note_off_c, 0, 55, 32
1, 258062, Note_on_c, 0, 36, 29
1, 258073, Note_on_c, 0, 48, 28
1, 258103, Note_on_c, 0, 63, 19
1, 258107, Note_on_c, 0, 55, 25
1, 258109, Note_on_c, 0, 60, 15
1, 258110, Poly_aftertouch_c, 0, 51, 127
1, 259676, Poly_aftertouch_c, 0, 51, 0
1, 259871, Note_off_c, 0, 48, 38
1, 260278, Note_off_c, 0, 60, 21
1, 260346, Note_off_c, 0, 55, 27
1, 260441, Note_off_c, 0, 36, 32
1, 260690, Note_off_c, 0, 63, 35
1, 264053, Control_c, 0, 64, 121
1, 264068, Control_c, 0, 64, 117
1, 264083, Control_c, 0, 64, 114
1, 264098, Control_c, 0, 64, 111
1, 264112, Control_c, 0, 64, 110
1, 264127, Control_c, 0, 64, 108
1, 264142, Control_c, 0, 64, 106
1, 264157, Control_c, 0, 64, 104
1, 264172, Control_c, 0, 64, 101
1, 264186, Control_c, 0, 64, 97
1, 264201, Control_c, 0, 64, 94
1, 264216, Control_c, 0, 64, 89
1, 264231, Control_c, 0, 64, 83
1, 264245, Control_c, 0, 64, 77
1, 264260, Control_c, 0, 64, 70
1, 264275, Control_c, 0, 64, 65
1, 264290, Control_c, 0, 64, 64
1, 264342, Control_c, 0, 64, 63
1, 264372, Control_c, 0, 64, 63
1, 264401, Control_c, 0, 64, 62
1, 264432, Control_c, 0, 64, 62
1, 264447, Control_c, 0, 64, 60
1, 264461, Control_c, 0, 64, 58
1, 264476, Control_c, 0, 64, 56
1, 264491, Control_c, 0, 64, 55
1, 264506, Control_c, 0, 64, 54
1, 264521, Control_c, 0, 64, 51
1, 264535, Control_c, 0, 64, 46
1, 264550, Control_c, 0, 64, 40
1, 264565, Control_c, 0, 64, 35
1, 264580, Control_c, 0, 64, 30
1, 264595, Control_c, 0, 64, 15
1, 264609, Control_c, 0, 64, 0
1, 264609, End_track
0, 0, End_of_file
